<REAPER_PROJECT 0.1 "4.22/x64"
  RIPPLE 0
  GROUPOVERRIDE 0 0 0
  AUTOXFADE 1
  ENVATTACH 1
  MIXERUIFLAGS 11 48
  PEAKGAIN 1.00000000000000
  FEEDBACK 0
  PANLAW 1.00000000000000
  PROJOFFS 0.00000000000000 0
  MAXPROJLEN 0 600.00000000000000
  GRID 3199 8 1.00000000000000 8 1.00000000000000 0
  TIMEMODE 1 0 -1
  PANMODE 3
  CURSOR 0.00000000000000
  ZOOM 12.53434814267567 0 0
  VZOOMEX 6
  USE_REC_CFG 0
  RECMODE 1
  SMPTESYNC 0 23.976024 100 40 1000 300 0 0.000000 1
  LOOP 1
  LOOPGRAN 0 4.00000000000000
  RECORD_PATH "" ""
  <RECORD_CFG
    ZXZhdxAD
  >
  <APPLYFX_CFG
  >
  RENDER_FILE "C:\Users\Ruggery\Desktop\backing.wav"
  RENDER_FMT 0 2 44100
  RENDER_1X 0
  RENDER_RANGE 2 0.00000000000000 0.00000000000000
  RENDER_RESAMPLE 3 0 1
  RENDER_ADDTOPROJ 0
  RENDER_STEMS 0
  RENDER_DITHER 0
  TIMELOCKMODE 0
  ITEMMIX 0
  DEFPITCHMODE 393216
  TAKELANE 1
  SAMPLERATE 44100 0 0
  <RENDER_CFG
    ZXZhdxAD
  >
  LOCK 1
  <METRONOME 6 2.000000
    VOL 0.250000 0.125000
    FREQ 800 1600 1
    BEATLEN 4
    SAMPLES "" ""
  >
  GLOBAL_AUTO -1
  TEMPO 120.00000000000000 4 4
  PLAYRATE 1.00000000000000 0 0.25000 4.00000
  SELECTION 0.00000000000000 85.06693645507892
  SELECTION2 0.00000000000000 85.06693645507892
  MASTERAUTOMODE 0
  MASTERTRACKHEIGHT 0
  MASTERPEAKCOL 16576
  MASTERMUTESOLO 0
  MASTERTRACKVIEW 1 0.666700 0.500000 0.500000 -1 -1 -1
  MASTERHWOUT 0 0 1.00000000000000 0.00000000000000 0 0 0 -1.00000000000000
  MASTER_NCH 2 2
  MASTER_VOLUME 1.00000000000000 0.00000000000000 -1.00000000000000 -1.00000000000000 1.00000000000000
  MASTER_PANMODE -1
  MASTER_FX 1
  MASTER_SEL 0
  <MASTERPLAYSPEEDENV
    ACT 0
    VIS 0 1 1.000000
    LANEHEIGHT 0 0
    ARM 0
    DEFSHAPE 0 -1 -1
  >
  <TEMPOENVEX
    ACT 1
    VIS 1 0 1.000000
    LANEHEIGHT 0 0
    ARM 0
    DEFSHAPE 1 -1 -1
    PT 0.000000000000 106.7430000000 1 262148
    PT 5.058880491459 108.5714285680 1 0 1
    PT 5.611512070406 108.1142857120 1 0 1
    PT 8.941321795565 109.0285714240 1 0 1
    PT 11.142579657200 110.3999999920 1 0 1
    PT 13.316492700678 114.9714285760 1 0 1
    PT 15.403967849783 111.3142857040 1 0 1
    PT 16.481996597217 110.8571428480 1 0 1
    PT 18.105707937423 116.3428571440 1 0 1
    PT 20.684293399112 113.6000000080 1 0 1
    PT 24.909645511789 116.3428571440 1 0 1
    PT 25.941079696464 108.1142857120 1 0 1
    PT 26.496047983991 113.1428571520 1 0 1
    PT 29.147563135506 114.9714285760 1 0 1
    PT 30.191300710059 114.5142857200 1 0 1
    PT 40.146390530418 117.7142857120 1 0 1
    PT 42.185225481874 112.2285714400 1 0 1
    PT 51.273820186559 114.9714285760 1 0 1
    PT 53.361295335664 116.8000000000 1 0 1
    PT 54.388692595938 118.6285714240 1 0 1
    PT 55.400253289580 112.6857142960 1 0 1
    PT 57.530070733799 114.9714285760 1 0 1
    PT 59.617545882904 112.6857142960 1 0 1
    PT 66.006998215561 117.2571428560 1 0 1
    PT 68.053781841292 114.0571428640 1 0 1
    PT 69.105886049709 118.6285714240 1 0 1
    PT 70.117446743351 112.2285714400 1 0 1
    PT 75.463678922577 114.9714285760 1 0 1
    PT 76.507416497129 105.3714285760 1 0 1
    PT 78.785073763941 80.6857142800 1 0 1
    PT 79.528699826264 67.4285714320 1 0 1
    PT 80.418530334738 84.8000000080 1 0 1
    PT 81.126077504549 63.7714285600 1 0 1
    PT 82.066936455079 80.0000000000 1
  >
  <PROJBAY
  >
  <TRACK '{6BE8C53F-E96F-4F80-9E65-E5F2B4D4AC12}'
    NAME "PART GUITAR"
    PEAKCOL 16576
    BEAT -1
    AUTOMODE 0
    VOLPAN 1.00000000000000 0.00000000000000 -1.00000000000000 -1.00000000000000 1.00000000000000
    MUTESOLO 0 0 0
    IPHASE 0
    ISBUS 0 0
    BUSCOMP 0 0
    SHOWINMIX 1 0.666700 0.500000 1 0.500000 -1 -1 -1
    FREEMODE 0
    SEL 0
    REC 0 0 0 0 0 0 0
    VU 2
    TRACKHEIGHT 0 0
    INQ 0 0 0 0.5000000000 100 0 0 100
    NCHAN 2
    FX 1
    TRACKID {6BE8C53F-E96F-4F80-9E65-E5F2B4D4AC12}
    PERF 0
    MIDIOUT -1
    <MIDINOTENAMES
      0 127 "Trill Marker"
      0 126 "Tremolo Marker"
      0 125 "---"
      0 124 "BRE"
      0 123 "BRE"
      0 122 "BRE"
      0 121 "BRE"
      0 120 "BRE (use all 5)"
      0 119 "----"
      0 116 "OVERDRIVE"
      0 111 "----"
      0 103 "Solo Marker"
      0 102 "Force HOPO Off"
      0 101 "Force HOPO On"
      0 100 "EXPERT Orange"
      0 99 "EXPERT Blue"
      0 98 "EXPERT Yellow"
      0 97 "EXPERT Red"
      0 96 "EXPERT Green"
      0 91 "----"
      0 90 "Force HOPO Off"
      0 89 "Force HOPO On"
      0 88 "HARD Orange"
      0 87 "HARD Blue"
      0 86 "HARD Yellow"
      0 85 "HARD Red"
      0 84 "HARD Green"
      0 80 "----"
      0 76 "MEDIUM Orange"
      0 75 "MEDIUM Blue"
      0 74 "MEDIUM Yellow"
      0 73 "MEDIUM Red"
      0 72 "MEDIUM Green"
      0 68 "----"
      0 64 "EASY Orange"
      0 63 "EASY Blue"
      0 62 "EASY Yellow"
      0 61 "EASY Red"
      0 60 "EASY Green"
      0 59 "Left Hand Highest (Fret 12)"
      0 58 "-"
      0 57 "Fret 11"
      0 56 "Fret 10"
      0 55 "Fret 9"
      0 54 "-"
      0 53 "Fret 8"
      0 52 "Fret 7"
      0 51 "-"
      0 50 "Fret 6"
      0 49 "Fret 5"
      0 48 "-"
      0 47 "Fret 4"
      0 46 "-"
      0 45 "Fret 3"
      0 44 "-"
      0 43 "Fret 2"
      0 42 "-"
      0 41 "-"
      0 40 "Left Hand Lowest (Fret 1)"
    >
    MAINSEND 1 0
    <FXCHAIN
      WNDRECT 173 339 878 559
      SHOW 0
      LASTSEL 0
      DOCKED 0
      BYPASS 0 0
      <VST "VSTi: RBN Preview (RBN)" "rbprev_vst64.dll" 0 ""
        dnBicu5e7f4AAAAAAgAAAAEAAAAAAAAAAgAAAAAAAAAEAAAAAQAAAA==
        AAAQAAMAqgAAABAAAAA=
      >
      FLOATPOS 0 0 0 0
      FXID {2363F2D2-8927-44AE-B9F5-F0F8CD625009}
      WAK 0
    >
    <ITEM
      POSITION 0.00000000000000
      SNAPOFFS 0.00000000000000
      LENGTH 85.06693645507892
      LOOP 0
      ALLTAKES 0
      SEL 0
      FADEIN 1 0.000000 0.000000 1 0
      FADEOUT 1 0.000000 0.000000 1 0
      MUTE 0
      IGUID {56C39B7A-3875-4E71-9C27-88689D1C142E}
      IID 4
      NAME "PART GUITAR"
      VOLPAN 1.000000 0.000000 1.000000 -1.000000
      SOFFS 0.00000000000000 0.00000000000000
      PLAYRATE 1.00000000000000 1 0.00000000000000 -1
      CHANMODE 0
      GUID {06D8F076-0EE6-4398-993B-DF6F60604688}
      <SOURCE MIDI
        HASDATA 1 480 QN
        POOLEDEVTS {972ACA01-6202-4A4E-9D80-829CE6B4F76A}
        <X 0 0
          /wNQQVJUIEdVSVRBUg==
        >
        <X 3840 0
          /wFbbWFwIFN0cnVtTWFwX0RlZmF1bHRd
        >
        <X 0 0
          /wFbcGxheV0=
        >
        E 0 90 34 60
        E 0 90 60 60
        E 0 90 54 60
        E 0 90 48 60
        E 0 90 3c 60
        E 120 80 60 00
        E 0 80 54 00
        E 0 80 48 00
        E 0 80 3c 00
        E 120 90 62 60
        E 0 90 56 60
        E 120 80 62 00
        E 0 80 56 00
        E 120 90 61 60
        E 0 90 55 60
        E 0 90 49 60
        E 120 80 61 00
        E 0 80 55 00
        E 0 80 49 00
        E 120 90 64 60
        E 0 90 58 60
        E 120 80 64 00
        E 0 80 58 00
        E 120 90 60 60
        E 0 90 54 60
        E 0 90 48 60
        E 0 90 3c 60
        E 120 80 60 00
        E 0 80 54 00
        E 0 80 48 00
        E 0 80 3c 00
        E 120 90 62 60
        E 0 90 56 60
        E 120 80 62 00
        E 0 80 56 00
        E 120 90 61 60
        E 0 90 55 60
        E 0 90 49 60
        E 120 80 61 00
        E 0 80 55 00
        E 0 80 49 00
        E 120 90 64 60
        E 0 90 58 60
        E 120 80 64 00
        E 0 80 58 00
        E 120 90 60 60
        E 0 90 54 60
        E 0 90 48 60
        E 0 90 3c 60
        E 120 80 60 00
        E 0 80 54 00
        E 0 80 48 00
        E 0 80 3c 00
        E 120 90 62 60
        E 0 90 56 60
        E 120 80 62 00
        E 0 80 56 00
        E 120 90 61 60
        E 0 90 55 60
        E 0 90 49 60
        E 120 80 61 00
        E 0 80 55 00
        E 0 80 49 00
        E 120 90 64 60
        E 0 90 58 60
        E 120 80 64 00
        E 0 80 58 00
        E 120 90 60 60
        E 0 90 54 60
        E 0 90 48 60
        E 0 90 3c 60
        E 120 80 60 00
        E 0 80 54 00
        E 0 80 48 00
        E 0 80 3c 00
        E 120 90 62 60
        E 0 90 56 60
        E 120 80 62 00
        E 0 80 56 00
        E 120 90 61 60
        E 0 90 55 60
        E 0 90 49 60
        E 120 80 61 00
        E 0 80 55 00
        E 0 80 49 00
        E 120 90 64 60
        E 0 90 58 60
        E 120 80 64 00
        E 0 80 58 00
        E 120 90 60 60
        E 0 90 74 60
        E 0 90 54 60
        E 0 90 48 60
        E 0 90 3c 60
        E 120 80 60 00
        E 0 80 54 00
        E 0 80 48 00
        E 0 80 3c 00
        E 120 90 63 60
        E 0 90 57 60
        E 120 80 63 00
        E 0 80 57 00
        E 120 90 61 60
        E 0 90 55 60
        E 0 90 49 60
        E 120 80 61 00
        E 0 80 55 00
        E 0 80 49 00
        E 120 90 64 60
        E 0 90 58 60
        E 120 80 64 00
        E 0 80 58 00
        E 120 90 60 60
        E 0 90 54 60
        E 0 90 48 60
        E 0 90 3c 60
        E 120 80 60 00
        E 0 80 54 00
        E 0 80 48 00
        E 0 80 3c 00
        E 120 90 63 60
        E 0 90 57 60
        E 120 80 63 00
        E 0 80 57 00
        E 120 90 61 60
        E 0 90 55 60
        E 0 90 49 60
        E 120 80 61 00
        E 0 80 55 00
        E 0 80 49 00
        E 120 90 64 60
        E 0 90 58 60
        E 120 80 64 00
        E 0 80 58 00
        E 120 90 60 60
        E 0 90 54 60
        E 0 90 48 60
        E 0 90 3c 60
        E 120 80 60 00
        E 0 80 54 00
        E 0 80 48 00
        E 0 80 3c 00
        E 120 90 63 60
        E 0 90 57 60
        E 120 80 63 00
        E 0 80 57 00
        E 120 90 61 60
        E 0 90 55 60
        E 0 90 49 60
        E 120 80 61 00
        E 0 80 55 00
        E 0 80 49 00
        E 120 90 64 60
        E 0 90 58 60
        E 120 80 64 00
        E 0 80 58 00
        E 120 90 60 60
        E 0 90 54 60
        E 0 90 48 60
        E 0 90 3c 60
        E 120 80 60 00
        E 0 80 54 00
        E 0 80 48 00
        E 0 80 3c 00
        E 120 90 63 60
        E 0 90 57 60
        E 120 80 63 00
        E 0 80 57 00
        E 120 90 61 60
        E 0 90 55 60
        E 0 90 49 60
        E 120 80 61 00
        E 0 80 55 00
        E 0 80 49 00
        E 120 90 64 60
        E 0 90 58 60
        E 120 80 64 00
        E 0 80 58 00
        E 120 80 74 00
        E 0 90 60 60
        E 0 90 54 60
        E 0 90 48 60
        E 0 90 3c 60
        E 120 80 60 00
        E 0 80 54 00
        E 0 80 48 00
        E 0 80 3c 00
        E 120 90 62 60
        E 0 90 56 60
        E 120 80 62 00
        E 0 80 56 00
        E 120 90 61 60
        E 0 90 55 60
        E 0 90 49 60
        E 120 80 61 00
        E 0 80 55 00
        E 0 80 49 00
        E 120 90 64 60
        E 0 90 58 60
        E 120 80 64 00
        E 0 80 58 00
        E 120 90 60 60
        E 0 90 54 60
        E 0 90 48 60
        E 0 90 3c 60
        E 120 80 60 00
        E 0 80 54 00
        E 0 80 48 00
        E 0 80 3c 00
        E 120 90 62 60
        E 0 90 56 60
        E 120 80 62 00
        E 0 80 56 00
        E 120 90 61 60
        E 0 90 55 60
        E 0 90 49 60
        E 120 80 61 00
        E 0 80 55 00
        E 0 80 49 00
        E 120 90 64 60
        E 0 90 58 60
        E 120 80 64 00
        E 0 80 58 00
        E 120 90 60 60
        E 0 90 54 60
        E 0 90 48 60
        E 0 90 3c 60
        E 120 80 60 00
        E 0 80 54 00
        E 0 80 48 00
        E 0 80 3c 00
        E 120 90 62 60
        E 0 90 56 60
        E 120 80 62 00
        E 0 80 56 00
        E 120 90 61 60
        E 0 90 55 60
        E 0 90 49 60
        E 120 80 61 00
        E 0 80 55 00
        E 0 80 49 00
        E 120 90 64 60
        E 0 90 58 60
        E 120 80 64 00
        E 0 80 58 00
        E 120 90 60 60
        E 0 90 54 60
        E 0 90 48 60
        E 0 90 3c 60
        E 120 80 60 00
        E 0 80 54 00
        E 0 80 48 00
        E 0 80 3c 00
        E 120 90 62 60
        E 0 90 56 60
        E 120 80 62 00
        E 0 80 56 00
        E 120 90 61 60
        E 0 90 55 60
        E 0 90 49 60
        E 120 80 61 00
        E 0 80 55 00
        E 0 80 49 00
        E 120 90 64 60
        E 0 90 58 60
        E 120 80 64 00
        E 0 80 58 00
        E 120 90 60 60
        E 0 90 54 60
        E 0 90 48 60
        E 0 90 3c 60
        E 120 80 60 00
        E 0 80 54 00
        E 0 80 48 00
        E 0 80 3c 00
        E 120 90 63 60
        E 0 90 57 60
        E 120 80 63 00
        E 0 80 57 00
        E 120 90 61 60
        E 0 90 55 60
        E 0 90 49 60
        E 120 80 61 00
        E 0 80 55 00
        E 0 80 49 00
        E 120 90 64 60
        E 0 90 58 60
        E 120 80 64 00
        E 0 80 58 00
        E 120 90 60 60
        E 0 90 54 60
        E 0 90 48 60
        E 0 90 3c 60
        E 120 80 60 00
        E 0 80 54 00
        E 0 80 48 00
        E 0 80 3c 00
        E 120 90 63 60
        E 0 90 57 60
        E 120 80 63 00
        E 0 80 57 00
        E 120 90 61 60
        E 0 90 55 60
        E 0 90 49 60
        E 120 80 61 00
        E 0 80 55 00
        E 0 80 49 00
        E 120 90 64 60
        E 0 90 58 60
        E 120 80 64 00
        E 0 80 58 00
        E 120 90 60 60
        E 0 90 54 60
        E 0 90 48 60
        E 0 90 3c 60
        E 120 80 60 00
        E 0 80 54 00
        E 0 80 48 00
        E 0 80 3c 00
        E 120 90 63 60
        E 0 90 57 60
        E 120 80 63 00
        E 0 80 57 00
        E 120 90 61 60
        E 0 90 55 60
        E 0 90 49 60
        E 120 80 61 00
        E 0 80 55 00
        E 0 80 49 00
        E 120 90 64 60
        E 0 90 58 60
        E 120 80 64 00
        E 0 80 58 00
        E 120 90 60 60
        E 0 90 54 60
        E 0 90 48 60
        E 0 90 3c 60
        E 120 80 60 00
        E 0 80 54 00
        E 0 80 48 00
        E 0 80 3c 00
        E 120 90 63 60
        E 0 90 57 60
        E 120 80 63 00
        E 0 80 57 00
        E 120 90 61 60
        E 0 90 55 60
        E 0 90 49 60
        E 120 80 61 00
        E 0 80 55 00
        E 0 80 49 00
        E 120 90 64 60
        E 0 90 58 60
        E 120 80 64 00
        E 0 80 58 00
        E 120 90 60 60
        E 0 90 54 60
        E 0 90 48 60
        E 0 90 3c 60
        E 120 80 60 00
        E 0 80 54 00
        E 0 80 48 00
        E 0 80 3c 00
        E 120 90 62 60
        E 0 90 56 60
        E 120 80 62 00
        E 0 80 56 00
        E 120 90 61 60
        E 0 90 55 60
        E 0 90 49 60
        E 120 80 61 00
        E 0 80 55 00
        E 0 80 49 00
        E 120 90 64 60
        E 0 90 58 60
        E 120 80 64 00
        E 0 80 58 00
        E 120 90 60 60
        E 0 90 54 60
        E 0 90 48 60
        E 0 90 3c 60
        E 120 80 60 00
        E 0 80 54 00
        E 0 80 48 00
        E 0 80 3c 00
        E 120 90 62 60
        E 0 90 56 60
        E 120 80 62 00
        E 0 80 56 00
        E 120 90 61 60
        E 0 90 55 60
        E 0 90 49 60
        E 120 80 61 00
        E 0 80 55 00
        E 0 80 49 00
        E 120 90 64 60
        E 0 90 58 60
        E 120 80 64 00
        E 0 80 58 00
        E 120 90 60 60
        E 0 90 74 60
        E 0 90 54 60
        E 0 90 48 60
        E 0 90 3c 60
        E 120 80 60 00
        E 0 80 54 00
        E 0 80 48 00
        E 0 80 3c 00
        E 120 90 62 60
        E 0 90 56 60
        E 120 80 62 00
        E 0 80 56 00
        E 120 90 61 60
        E 0 90 55 60
        E 0 90 49 60
        E 120 80 61 00
        E 0 80 55 00
        E 0 80 49 00
        E 120 90 64 60
        E 0 90 58 60
        E 120 80 64 00
        E 0 80 58 00
        E 120 90 60 60
        E 0 90 54 60
        E 0 90 48 60
        E 0 90 3c 60
        E 120 80 60 00
        E 0 80 54 00
        E 0 80 48 00
        E 0 80 3c 00
        E 120 90 62 60
        E 0 90 56 60
        E 120 80 62 00
        E 0 80 56 00
        E 120 90 61 60
        E 0 90 55 60
        E 0 90 49 60
        E 120 80 61 00
        E 0 80 55 00
        E 0 80 49 00
        E 120 90 64 60
        E 0 90 58 60
        E 120 80 64 00
        E 0 80 58 00
        E 120 80 74 00
        E 0 90 60 60
        E 0 90 54 60
        E 0 90 48 60
        E 0 90 3c 60
        E 120 80 60 00
        E 0 80 54 00
        E 0 80 48 00
        E 0 80 3c 00
        E 120 90 63 60
        E 0 90 57 60
        E 120 80 63 00
        E 0 80 57 00
        E 120 90 61 60
        E 0 90 55 60
        E 0 90 49 60
        E 120 80 61 00
        E 0 80 55 00
        E 0 80 49 00
        E 120 90 64 60
        E 0 90 58 60
        E 120 80 64 00
        E 0 80 58 00
        E 120 90 60 60
        E 0 90 54 60
        E 0 90 48 60
        E 0 90 3c 60
        E 120 80 60 00
        E 0 80 54 00
        E 0 80 48 00
        E 0 80 3c 00
        E 120 90 63 60
        E 0 90 57 60
        E 120 80 63 00
        E 0 80 57 00
        E 120 90 61 60
        E 0 90 55 60
        E 0 90 49 60
        E 120 80 61 00
        E 0 80 55 00
        E 0 80 49 00
        E 120 90 64 60
        E 0 90 58 60
        E 120 80 64 00
        E 0 80 58 00
        E 120 90 60 60
        E 0 90 54 60
        E 0 90 48 60
        E 0 90 3c 60
        E 120 80 60 00
        E 0 80 54 00
        E 0 80 48 00
        E 0 80 3c 00
        E 120 90 63 60
        E 0 90 57 60
        E 120 80 63 00
        E 0 80 57 00
        E 120 90 61 60
        E 0 90 55 60
        E 0 90 49 60
        E 120 80 61 00
        E 0 80 55 00
        E 0 80 49 00
        E 120 90 64 60
        E 0 90 58 60
        E 120 80 64 00
        E 0 80 58 00
        E 120 90 60 60
        E 0 90 54 60
        E 0 90 48 60
        E 0 90 3c 60
        E 120 80 60 00
        E 0 80 54 00
        E 0 80 48 00
        E 0 80 3c 00
        E 120 90 63 60
        E 0 90 57 60
        E 120 80 63 00
        E 0 80 57 00
        E 120 90 61 60
        E 0 90 55 60
        E 0 90 49 60
        E 120 80 61 00
        E 0 80 55 00
        E 0 80 49 00
        E 120 90 64 60
        E 0 90 58 60
        E 120 80 64 00
        E 0 80 58 00
        E 120 90 60 60
        E 0 90 54 60
        E 0 90 48 60
        E 0 90 3c 60
        E 120 80 60 00
        E 0 80 54 00
        E 0 80 48 00
        E 0 80 3c 00
        E 120 90 62 60
        E 0 90 56 60
        E 120 80 62 00
        E 0 80 56 00
        E 120 90 61 60
        E 0 90 55 60
        E 0 90 49 60
        E 120 80 61 00
        E 0 80 55 00
        E 0 80 49 00
        E 120 90 64 60
        E 0 90 58 60
        E 120 80 64 00
        E 0 80 58 00
        E 120 90 60 60
        E 0 90 54 60
        E 0 90 48 60
        E 0 90 3c 60
        E 120 80 60 00
        E 0 80 54 00
        E 0 80 48 00
        E 0 80 3c 00
        E 120 90 62 60
        E 0 90 56 60
        E 120 80 62 00
        E 0 80 56 00
        E 120 90 61 60
        E 0 90 55 60
        E 0 90 49 60
        E 120 80 61 00
        E 0 80 55 00
        E 0 80 49 00
        E 120 90 64 60
        E 0 90 58 60
        E 120 80 64 00
        E 0 80 58 00
        E 120 90 60 60
        E 0 90 74 60
        E 0 90 54 60
        E 0 90 48 60
        E 0 90 3c 60
        E 120 80 60 00
        E 0 80 54 00
        E 0 80 48 00
        E 0 80 3c 00
        E 120 90 62 60
        E 0 90 56 60
        E 120 80 62 00
        E 0 80 56 00
        E 120 90 61 60
        E 0 90 55 60
        E 0 90 49 60
        E 120 80 61 00
        E 0 80 55 00
        E 0 80 49 00
        E 120 90 64 60
        E 0 90 58 60
        E 120 80 64 00
        E 0 80 58 00
        E 120 90 60 60
        E 0 90 54 60
        E 0 90 48 60
        E 0 90 3c 60
        E 120 80 60 00
        E 0 80 54 00
        E 0 80 48 00
        E 0 80 3c 00
        E 120 90 62 60
        E 0 90 56 60
        E 120 80 62 00
        E 0 80 56 00
        E 120 90 61 60
        E 0 90 55 60
        E 0 90 49 60
        E 120 80 61 00
        E 0 80 55 00
        E 0 80 49 00
        E 120 90 64 60
        E 0 90 58 60
        E 120 80 64 00
        E 0 80 58 00
        E 120 80 74 00
        E 0 90 60 60
        E 0 90 54 60
        E 0 90 48 60
        E 0 90 3c 60
        E 120 80 60 00
        E 0 80 54 00
        E 0 80 48 00
        E 0 80 3c 00
        E 120 90 63 60
        E 0 90 57 60
        E 120 80 63 00
        E 0 80 57 00
        E 120 90 61 60
        E 0 90 55 60
        E 0 90 49 60
        E 120 80 61 00
        E 0 80 55 00
        E 0 80 49 00
        E 120 90 64 60
        E 0 90 58 60
        E 120 80 64 00
        E 0 80 58 00
        E 120 90 60 60
        E 0 90 54 60
        E 0 90 48 60
        E 0 90 3c 60
        E 120 80 60 00
        E 0 80 54 00
        E 0 80 48 00
        E 0 80 3c 00
        E 120 90 63 60
        E 0 90 57 60
        E 120 80 63 00
        E 0 80 57 00
        E 120 90 61 60
        E 0 90 55 60
        E 0 90 49 60
        E 120 80 61 00
        E 0 80 55 00
        E 0 80 49 00
        E 120 90 64 60
        E 0 90 58 60
        E 120 80 64 00
        E 0 80 58 00
        E 120 90 60 60
        E 0 90 54 60
        E 0 90 48 60
        E 0 90 3c 60
        E 120 80 60 00
        E 0 80 54 00
        E 0 80 48 00
        E 0 80 3c 00
        E 120 90 63 60
        E 0 90 57 60
        E 120 80 63 00
        E 0 80 57 00
        E 120 90 61 60
        E 0 90 55 60
        E 0 90 49 60
        E 120 80 61 00
        E 0 80 55 00
        E 0 80 49 00
        E 120 90 64 60
        E 0 90 58 60
        E 120 80 64 00
        E 0 80 58 00
        E 120 90 60 60
        E 0 90 54 60
        E 0 90 48 60
        E 0 90 3c 60
        E 120 80 60 00
        E 0 80 54 00
        E 0 80 48 00
        E 0 80 3c 00
        E 120 90 63 60
        E 0 90 57 60
        E 120 80 63 00
        E 0 80 57 00
        E 120 90 61 60
        E 0 90 55 60
        E 0 90 49 60
        E 120 80 61 00
        E 0 80 55 00
        E 0 80 49 00
        E 120 90 64 60
        E 0 90 58 60
        E 120 80 64 00
        E 0 80 58 00
        E 120 90 60 60
        E 0 90 54 60
        E 0 90 48 60
        E 0 90 3c 60
        E 120 80 60 00
        E 0 80 54 00
        E 0 80 48 00
        E 0 80 3c 00
        E 120 90 62 60
        E 0 90 56 60
        E 120 80 62 00
        E 0 80 56 00
        E 120 90 61 60
        E 0 90 55 60
        E 0 90 49 60
        E 120 80 61 00
        E 0 80 55 00
        E 0 80 49 00
        E 120 90 64 60
        E 0 90 58 60
        E 120 80 64 00
        E 0 80 58 00
        E 120 90 60 60
        E 0 90 54 60
        E 0 90 48 60
        E 0 90 3c 60
        E 120 80 60 00
        E 0 80 54 00
        E 0 80 48 00
        E 0 80 3c 00
        E 120 90 62 60
        E 0 90 56 60
        E 120 80 62 00
        E 0 80 56 00
        E 120 90 61 60
        E 0 90 55 60
        E 0 90 49 60
        E 120 80 61 00
        E 0 80 55 00
        E 0 80 49 00
        E 120 90 64 60
        E 0 90 58 60
        E 120 80 64 00
        E 0 80 58 00
        E 120 90 60 60
        E 0 90 54 60
        E 0 90 48 60
        E 0 90 3c 60
        E 120 80 60 00
        E 0 80 54 00
        E 0 80 48 00
        E 0 80 3c 00
        E 120 90 62 60
        E 0 90 56 60
        E 120 80 62 00
        E 0 80 56 00
        E 120 90 61 60
        E 0 90 55 60
        E 0 90 49 60
        E 120 80 61 00
        E 0 80 55 00
        E 0 80 49 00
        E 120 90 64 60
        E 0 90 58 60
        E 120 80 64 00
        E 0 80 58 00
        E 120 90 60 60
        E 0 90 54 60
        E 0 90 48 60
        E 0 90 3c 60
        E 120 80 60 00
        E 0 80 54 00
        E 0 80 48 00
        E 0 80 3c 00
        E 120 90 62 60
        E 0 90 56 60
        E 120 80 62 00
        E 0 80 56 00
        E 120 90 61 60
        E 0 90 55 60
        E 0 90 49 60
        E 120 80 61 00
        E 0 80 55 00
        E 0 80 49 00
        E 120 90 64 60
        E 0 90 58 60
        E 120 80 34 00
        E 0 80 64 00
        E 0 80 58 00
        <X 120 0
          /wFbbWFwIEhhbmRNYXBfQ2hvcmRfQV0=
        >
        E 0 90 2f 60
        E 0 90 60 60
        E 0 90 74 60
        E 0 90 54 60
        E 0 90 48 60
        E 0 90 3c 60
        E 120 80 60 00
        E 0 80 54 00
        E 0 80 48 00
        E 0 80 3c 00
        E 120 90 62 60
        E 0 90 56 60
        E 120 80 62 00
        E 0 80 56 00
        E 120 90 64 60
        E 0 90 58 60
        E 0 90 4b 60
        E 120 80 64 00
        E 0 80 58 00
        E 0 80 4b 00
        E 120 90 62 60
        E 0 90 56 60
        E 120 80 62 00
        E 0 80 56 00
        E 120 90 60 60
        E 0 90 54 60
        E 0 90 48 60
        E 0 90 3c 60
        E 120 80 60 00
        E 0 80 54 00
        E 0 80 48 00
        E 0 80 3c 00
        E 120 90 62 60
        E 0 90 56 60
        E 120 80 62 00
        E 0 80 56 00
        E 120 90 64 60
        E 0 90 58 60
        E 0 90 4b 60
        E 120 80 64 00
        E 0 80 58 00
        E 0 80 4b 00
        E 120 90 62 60
        E 0 90 56 60
        E 120 80 62 00
        E 0 80 56 00
        E 120 90 60 60
        E 0 90 54 60
        E 0 90 48 60
        E 0 90 3c 60
        E 120 80 60 00
        E 0 80 54 00
        E 0 80 48 00
        E 0 80 3c 00
        E 120 90 62 60
        E 0 90 56 60
        E 120 80 62 00
        E 0 80 56 00
        E 120 90 63 60
        E 0 90 57 60
        E 0 90 4b 60
        E 120 80 63 00
        E 0 80 57 00
        E 0 80 4b 00
        E 120 90 62 60
        E 0 90 56 60
        E 120 80 62 00
        E 0 80 56 00
        E 120 90 60 60
        E 0 90 54 60
        E 0 90 48 60
        E 0 90 3c 60
        E 120 80 60 00
        E 0 80 54 00
        E 0 80 48 00
        E 0 80 3c 00
        E 120 90 62 60
        E 0 90 56 60
        E 120 80 62 00
        E 0 80 56 00
        E 120 90 63 60
        E 0 90 57 60
        E 0 90 4b 60
        E 120 80 63 00
        E 0 80 57 00
        E 0 80 4b 00
        E 120 90 62 60
        E 0 90 56 60
        E 120 80 2f 00
        E 0 80 62 00
        E 0 80 56 00
        <X 120 0
          /wFbbWFwIEhhbmRNYXBfRGVmYXVsdF0=
        >
        E 0 80 74 00
        E 0 90 34 60
        E 0 90 60 60
        E 0 90 54 60
        E 0 90 48 60
        E 0 90 3c 60
        E 120 80 60 00
        E 0 80 54 00
        E 0 80 48 00
        E 0 80 3c 00
        E 120 90 62 60
        E 0 90 56 60
        E 120 80 62 00
        E 0 80 56 00
        E 120 90 61 60
        E 0 90 55 60
        E 0 90 49 60
        E 120 80 61 00
        E 0 80 55 00
        E 0 80 49 00
        E 120 90 64 60
        E 0 90 58 60
        E 120 80 64 00
        E 0 80 58 00
        E 120 90 60 60
        E 0 90 54 60
        E 0 90 48 60
        E 0 90 3c 60
        E 120 80 60 00
        E 0 80 54 00
        E 0 80 48 00
        E 0 80 3c 00
        E 120 90 62 60
        E 0 90 56 60
        E 120 80 62 00
        E 0 80 56 00
        E 120 90 61 60
        E 0 90 55 60
        E 0 90 49 60
        E 120 80 61 00
        E 0 80 55 00
        E 0 80 49 00
        E 120 90 64 60
        E 0 90 58 60
        E 120 80 64 00
        E 0 80 58 00
        E 120 90 60 60
        E 0 90 54 60
        E 0 90 48 60
        E 0 90 3c 60
        E 120 80 60 00
        E 0 80 54 00
        E 0 80 48 00
        E 0 80 3c 00
        E 120 90 62 60
        E 0 90 56 60
        E 120 80 62 00
        E 0 80 56 00
        E 120 90 61 60
        E 0 90 55 60
        E 0 90 49 60
        E 120 80 61 00
        E 0 80 55 00
        E 0 80 49 00
        E 120 90 64 60
        E 0 90 58 60
        E 120 80 64 00
        E 0 80 58 00
        E 120 90 60 60
        E 0 90 54 60
        E 0 90 48 60
        E 0 90 3c 60
        E 120 80 60 00
        E 0 80 54 00
        E 0 80 48 00
        E 0 80 3c 00
        E 120 90 62 60
        E 0 90 56 60
        E 120 80 62 00
        E 0 80 56 00
        E 120 90 61 60
        E 0 90 55 60
        E 0 90 49 60
        E 120 80 61 00
        E 0 80 55 00
        E 0 80 49 00
        E 120 90 64 60
        E 0 90 58 60
        E 120 80 34 00
        E 0 80 64 00
        E 0 80 58 00
        <X 120 0
          /wFbbWFwIEhhbmRNYXBfQ2hvcmRfQV0=
        >
        E 0 90 2f 60
        E 0 90 60 60
        E 0 90 54 60
        E 0 90 48 60
        E 0 90 3c 60
        E 120 80 60 00
        E 0 80 54 00
        E 0 80 48 00
        E 0 80 3c 00
        E 120 90 62 60
        E 0 90 56 60
        E 120 80 62 00
        E 0 80 56 00
        E 120 90 64 60
        E 0 90 58 60
        E 0 90 4b 60
        E 120 80 64 00
        E 0 80 58 00
        E 0 80 4b 00
        E 120 90 62 60
        E 0 90 56 60
        E 120 80 62 00
        E 0 80 56 00
        E 120 90 60 60
        E 0 90 54 60
        E 0 90 48 60
        E 0 90 3c 60
        E 120 80 60 00
        E 0 80 54 00
        E 0 80 48 00
        E 0 80 3c 00
        E 120 90 62 60
        E 0 90 56 60
        E 120 80 62 00
        E 0 80 56 00
        E 120 90 64 60
        E 0 90 58 60
        E 0 90 4b 60
        E 120 80 64 00
        E 0 80 58 00
        E 0 80 4b 00
        E 120 90 62 60
        E 0 90 56 60
        E 120 80 62 00
        E 0 80 56 00
        E 120 90 60 60
        E 0 90 74 60
        E 0 90 54 60
        E 0 90 48 60
        E 0 90 3c 60
        E 120 80 60 00
        E 0 80 54 00
        E 0 80 48 00
        E 0 80 3c 00
        E 120 90 62 60
        E 0 90 56 60
        E 120 80 62 00
        E 0 80 56 00
        E 120 90 63 60
        E 0 90 57 60
        E 0 90 4b 60
        E 120 80 63 00
        E 0 80 57 00
        E 0 80 4b 00
        E 120 90 62 60
        E 0 90 56 60
        E 120 80 62 00
        E 0 80 56 00
        E 120 90 60 60
        E 0 90 54 60
        E 0 90 48 60
        E 0 90 3c 60
        E 120 80 60 00
        E 0 80 54 00
        E 0 80 48 00
        E 0 80 3c 00
        E 120 90 62 60
        E 0 90 56 60
        E 120 80 62 00
        E 0 80 56 00
        E 120 90 63 60
        E 0 90 57 60
        E 0 90 4b 60
        E 120 80 63 00
        E 0 80 57 00
        E 0 80 4b 00
        E 120 90 62 60
        E 0 90 56 60
        E 120 80 2f 00
        E 0 80 62 00
        E 0 80 56 00
        <X 120 0
          /wFbbWFwIEhhbmRNYXBfRGVmYXVsdF0=
        >
        E 0 80 74 00
        E 0 90 34 60
        E 0 90 60 60
        E 0 90 54 60
        E 0 90 48 60
        E 0 90 3c 60
        E 120 80 60 00
        E 0 80 54 00
        E 0 80 48 00
        E 0 80 3c 00
        E 120 90 62 60
        E 0 90 56 60
        E 120 80 62 00
        E 0 80 56 00
        E 120 90 61 60
        E 0 90 55 60
        E 0 90 49 60
        E 120 80 61 00
        E 0 80 55 00
        E 0 80 49 00
        E 120 90 64 60
        E 0 90 58 60
        E 120 80 64 00
        E 0 80 58 00
        E 120 90 60 60
        E 0 90 54 60
        E 0 90 48 60
        E 0 90 3c 60
        E 120 80 60 00
        E 0 80 54 00
        E 0 80 48 00
        E 0 80 3c 00
        E 120 90 62 60
        E 0 90 56 60
        E 120 80 62 00
        E 0 80 56 00
        E 120 90 61 60
        E 0 90 55 60
        E 0 90 49 60
        E 120 80 61 00
        E 0 80 55 00
        E 0 80 49 00
        E 120 90 64 60
        E 0 90 58 60
        E 120 80 64 00
        E 0 80 58 00
        E 120 90 60 60
        E 0 90 54 60
        E 0 90 48 60
        E 0 90 3c 60
        E 120 80 60 00
        E 0 80 54 00
        E 0 80 48 00
        E 0 80 3c 00
        E 120 90 62 60
        E 0 90 56 60
        E 120 80 62 00
        E 0 80 56 00
        E 120 90 61 60
        E 0 90 55 60
        E 0 90 49 60
        E 120 80 61 00
        E 0 80 55 00
        E 0 80 49 00
        E 120 90 64 60
        E 0 90 58 60
        E 120 80 64 00
        E 0 80 58 00
        E 120 90 60 60
        E 0 90 54 60
        E 0 90 48 60
        E 0 90 3c 60
        E 120 80 60 00
        E 0 80 54 00
        E 0 80 48 00
        E 0 80 3c 00
        E 120 90 62 60
        E 0 90 56 60
        E 120 80 62 00
        E 0 80 56 00
        E 120 90 61 60
        E 0 90 55 60
        E 0 90 49 60
        E 120 80 61 00
        E 0 80 55 00
        E 0 80 49 00
        E 120 90 64 60
        E 0 90 58 60
        E 120 80 34 00
        E 0 80 64 00
        E 0 80 58 00
        <X 120 0
          /wFbbWFwIEhhbmRNYXBfQ2hvcmRfQV0=
        >
        E 0 90 2f 60
        E 0 90 60 60
        E 0 90 54 60
        E 0 90 48 60
        E 0 90 3c 60
        E 120 80 60 00
        E 0 80 54 00
        E 0 80 48 00
        E 0 80 3c 00
        E 120 90 62 60
        E 0 90 56 60
        E 120 80 62 00
        E 0 80 56 00
        E 120 90 64 60
        E 0 90 58 60
        E 0 90 4b 60
        E 120 80 64 00
        E 0 80 58 00
        E 0 80 4b 00
        E 120 90 62 60
        E 0 90 56 60
        E 120 80 62 00
        E 0 80 56 00
        E 120 90 60 60
        E 0 90 54 60
        E 0 90 48 60
        E 0 90 3c 60
        E 120 80 60 00
        E 0 80 54 00
        E 0 80 48 00
        E 0 80 3c 00
        E 120 90 62 60
        E 0 90 56 60
        E 120 80 62 00
        E 0 80 56 00
        E 120 90 64 60
        E 0 90 58 60
        E 0 90 4b 60
        E 120 80 64 00
        E 0 80 58 00
        E 0 80 4b 00
        E 120 90 62 60
        E 0 90 56 60
        E 120 80 62 00
        E 0 80 56 00
        E 120 90 60 60
        E 0 90 54 60
        E 0 90 48 60
        E 0 90 3c 60
        E 120 80 60 00
        E 0 80 54 00
        E 0 80 48 00
        E 0 80 3c 00
        E 120 90 62 60
        E 0 90 56 60
        E 120 80 62 00
        E 0 80 56 00
        E 120 90 63 60
        E 0 90 57 60
        E 0 90 4b 60
        E 120 80 63 00
        E 0 80 57 00
        E 0 80 4b 00
        E 120 90 62 60
        E 0 90 56 60
        E 120 80 62 00
        E 0 80 56 00
        E 120 90 60 60
        E 0 90 54 60
        E 0 90 48 60
        E 0 90 3c 60
        E 120 80 60 00
        E 0 80 54 00
        E 0 80 48 00
        E 0 80 3c 00
        E 120 90 62 60
        E 0 90 56 60
        E 120 80 62 00
        E 0 80 56 00
        E 120 90 63 60
        E 0 90 57 60
        E 0 90 4b 60
        E 120 80 63 00
        E 0 80 57 00
        E 0 80 4b 00
        E 120 90 62 60
        E 0 90 56 60
        E 120 80 2f 00
        E 0 80 62 00
        E 0 80 56 00
        <X 120 0
          /wFbbWFwIEhhbmRNYXBfRGVmYXVsdF0=
        >
        E 0 90 34 60
        E 0 90 60 60
        E 0 90 74 60
        E 0 90 54 60
        E 0 90 48 60
        E 0 90 3c 60
        E 120 80 60 00
        E 0 80 54 00
        E 0 80 48 00
        E 0 80 3c 00
        E 120 90 62 60
        E 0 90 56 60
        E 120 80 62 00
        E 0 80 56 00
        E 120 90 61 60
        E 0 90 55 60
        E 0 90 49 60
        E 120 80 61 00
        E 0 80 55 00
        E 0 80 49 00
        E 120 90 64 60
        E 0 90 58 60
        E 120 80 64 00
        E 0 80 58 00
        E 120 90 60 60
        E 0 90 54 60
        E 0 90 48 60
        E 0 90 3c 60
        E 120 80 60 00
        E 0 80 54 00
        E 0 80 48 00
        E 0 80 3c 00
        E 120 90 62 60
        E 0 90 56 60
        E 120 80 62 00
        E 0 80 56 00
        E 120 90 61 60
        E 0 90 55 60
        E 0 90 49 60
        E 120 80 61 00
        E 0 80 55 00
        E 0 80 49 00
        E 120 90 64 60
        E 0 90 58 60
        E 120 80 64 00
        E 0 80 58 00
        E 120 90 60 60
        E 0 90 54 60
        E 0 90 48 60
        E 0 90 3c 60
        E 120 80 60 00
        E 0 80 54 00
        E 0 80 48 00
        E 0 80 3c 00
        E 120 90 62 60
        E 0 90 56 60
        E 120 80 62 00
        E 0 80 56 00
        E 120 90 61 60
        E 0 90 55 60
        E 0 90 49 60
        E 120 80 61 00
        E 0 80 55 00
        E 0 80 49 00
        E 120 90 64 60
        E 0 90 58 60
        E 120 80 64 00
        E 0 80 58 00
        E 120 90 60 60
        E 0 90 54 60
        E 0 90 48 60
        E 0 90 3c 60
        E 120 80 60 00
        E 0 80 54 00
        E 0 80 48 00
        E 0 80 3c 00
        E 120 90 62 60
        E 0 90 56 60
        E 120 80 62 00
        E 0 80 56 00
        E 120 90 61 60
        E 0 90 55 60
        E 0 90 49 60
        E 120 80 61 00
        E 0 80 55 00
        E 0 80 49 00
        E 120 90 64 60
        E 0 90 58 60
        E 120 80 64 00
        E 0 80 58 00
        E 120 80 74 00
        E 0 90 60 60
        E 0 90 54 60
        E 0 90 48 60
        E 0 90 3c 60
        E 120 80 60 00
        E 0 80 54 00
        E 0 80 48 00
        E 0 80 3c 00
        E 120 90 63 60
        E 0 90 57 60
        E 120 80 63 00
        E 0 80 57 00
        E 120 90 61 60
        E 0 90 55 60
        E 0 90 49 60
        E 120 80 61 00
        E 0 80 55 00
        E 0 80 49 00
        E 120 90 64 60
        E 0 90 58 60
        E 120 80 64 00
        E 0 80 58 00
        E 120 90 60 60
        E 0 90 54 60
        E 0 90 48 60
        E 0 90 3c 60
        E 120 80 60 00
        E 0 80 54 00
        E 0 80 48 00
        E 0 80 3c 00
        E 120 90 63 60
        E 0 90 57 60
        E 120 80 63 00
        E 0 80 57 00
        E 120 90 61 60
        E 0 90 55 60
        E 0 90 49 60
        E 120 80 61 00
        E 0 80 55 00
        E 0 80 49 00
        E 120 90 64 60
        E 0 90 58 60
        E 120 80 64 00
        E 0 80 58 00
        E 120 90 60 60
        E 0 90 54 60
        E 0 90 48 60
        E 0 90 3c 60
        E 120 80 60 00
        E 0 80 54 00
        E 0 80 48 00
        E 0 80 3c 00
        E 120 90 63 60
        E 0 90 57 60
        E 120 80 63 00
        E 0 80 57 00
        E 120 90 61 60
        E 0 90 55 60
        E 0 90 49 60
        E 120 80 61 00
        E 0 80 55 00
        E 0 80 49 00
        E 120 90 64 60
        E 0 90 58 60
        E 120 80 64 00
        E 0 80 58 00
        E 120 90 60 60
        E 0 90 54 60
        E 0 90 48 60
        E 0 90 3c 60
        E 120 80 60 00
        E 0 80 54 00
        E 0 80 48 00
        E 0 80 3c 00
        E 120 90 63 60
        E 0 90 57 60
        E 120 80 63 00
        E 0 80 57 00
        E 120 90 61 60
        E 0 90 55 60
        E 0 90 49 60
        E 120 80 61 00
        E 0 80 55 00
        E 0 80 49 00
        E 120 90 64 60
        E 0 90 58 60
        E 120 80 64 00
        E 0 80 58 00
        <X 120 0
          /wFbbWVsbG93XQ==
        >
        E 0 90 60 60
        E 0 90 54 60
        E 0 90 48 60
        E 0 90 3c 60
        E 120 80 60 00
        E 0 80 54 00
        E 0 80 48 00
        E 0 80 3c 00
        E 120 90 62 60
        E 0 90 56 60
        E 120 80 62 00
        E 0 80 56 00
        E 120 90 61 60
        E 0 90 55 60
        E 0 90 49 60
        E 120 80 61 00
        E 0 80 55 00
        E 0 80 49 00
        E 120 90 64 60
        E 0 90 58 60
        E 120 80 64 00
        E 0 80 58 00
        E 120 90 60 60
        E 0 90 54 60
        E 0 90 48 60
        E 0 90 3c 60
        E 120 80 60 00
        E 0 80 54 00
        E 0 80 48 00
        E 0 80 3c 00
        E 120 90 62 60
        E 0 90 56 60
        E 120 80 62 00
        E 0 80 56 00
        E 120 90 61 60
        E 0 90 55 60
        E 0 90 49 60
        E 120 80 61 00
        E 0 80 55 00
        E 0 80 49 00
        E 120 90 64 60
        E 0 90 58 60
        E 120 80 64 00
        E 0 80 58 00
        E 120 90 60 60
        E 0 90 54 60
        E 0 90 48 60
        E 0 90 3c 60
        E 120 80 60 00
        E 0 80 54 00
        E 0 80 48 00
        E 0 80 3c 00
        E 120 90 62 60
        E 0 90 56 60
        E 120 80 62 00
        E 0 80 56 00
        E 120 90 61 60
        E 0 90 55 60
        E 0 90 49 60
        E 120 80 61 00
        E 0 80 55 00
        E 0 80 49 00
        E 120 90 64 60
        E 0 90 58 60
        E 120 80 64 00
        E 0 80 58 00
        E 120 90 60 60
        E 0 90 54 60
        E 0 90 48 60
        E 0 90 3c 60
        E 120 80 60 00
        E 0 80 54 00
        E 0 80 48 00
        E 0 80 3c 00
        E 120 90 62 60
        E 0 90 56 60
        E 120 80 62 00
        E 0 80 56 00
        E 120 90 61 60
        E 0 90 55 60
        E 0 90 49 60
        E 120 80 61 00
        E 0 80 55 00
        E 0 80 49 00
        E 120 90 64 60
        E 0 90 58 60
        E 120 80 64 00
        E 0 80 58 00
        E 120 90 60 60
        E 0 90 54 60
        E 0 90 48 60
        E 0 90 3c 60
        E 120 80 60 00
        E 0 80 54 00
        E 0 80 48 00
        E 0 80 3c 00
        E 120 90 62 60
        E 0 90 56 60
        E 120 80 62 00
        E 0 80 56 00
        E 120 90 61 60
        E 0 90 55 60
        E 0 90 49 60
        E 120 80 61 00
        E 0 80 55 00
        E 0 80 49 00
        E 120 90 64 60
        E 0 90 58 60
        E 120 80 64 00
        E 0 80 58 00
        E 120 90 60 60
        E 0 90 54 60
        E 0 90 48 60
        E 0 90 3c 60
        E 120 80 60 00
        E 0 80 54 00
        E 0 80 48 00
        E 0 80 3c 00
        E 120 90 62 60
        E 0 90 56 60
        E 120 80 62 00
        E 0 80 56 00
        E 120 90 60 60
        E 0 90 54 60
        E 0 90 48 60
        E 120 80 60 00
        E 0 80 54 00
        E 0 80 48 00
        E 120 90 62 60
        E 0 90 56 60
        E 120 80 62 00
        E 0 80 56 00
        E 120 90 61 60
        E 0 90 55 60
        E 0 90 49 60
        E 0 90 3d 60
        E 120 80 61 00
        E 0 80 55 00
        E 0 80 49 00
        E 0 80 3d 00
        E 120 90 64 60
        E 0 90 58 60
        E 120 80 64 00
        E 0 80 58 00
        E 120 90 61 60
        E 0 90 55 60
        E 0 90 49 60
        E 120 80 61 00
        E 0 80 55 00
        E 0 80 49 00
        E 120 90 60 60
        E 0 90 54 60
        E 120 80 60 00
        E 0 80 54 00
        E 120 90 62 60
        E 0 90 56 60
        E 0 90 4a 60
        E 0 90 3e 60
        E 120 80 62 00
        E 0 80 56 00
        E 0 80 4a 00
        E 0 80 3e 00
        E 120 90 61 60
        E 0 90 55 60
        E 120 80 61 00
        E 0 80 55 00
        E 120 90 64 60
        E 0 90 58 60
        E 0 90 4b 60
        E 0 90 3e 60
        E 120 80 64 00
        E 0 80 58 00
        E 0 80 4b 00
        E 0 80 3e 00
        E 120 90 61 60
        E 0 90 55 60
        E 120 80 34 00
        E 0 80 61 00
        E 0 80 55 00
        <X 120 0
          /wFbaWRsZV9yZWFsdGltZV0=
        >
        E 1920 b0 7b 00
        GUID {DBF56F3E-AFB3-4E4B-BE80-08984A843C17}
        IGNTEMPO 0 120.00000000 4 4
        SRCCOLOR 2
        VELLANE 132 100 0
        COLORMAP "C:\Program Files (x86)\REAPER\Data\color_maps\rockband_guitarbass.png"
        TEXTSTRINGFILE "C:\Program Files (x86)\REAPER\Data\Text_Strings\Text Events List - Instruments.txt"
        CFGEDITVIEW -3840.000000 0.012204 12 12 0 0 0
        CFGEDIT 1 1 0 1 1 0 1 1 1 1 1 0.25000000 53 44 1253 718 0 2 0 2 0.00000000 0 1 0 0 0.500000 0 0 1.000000 64
        KEYSNAP 0 0 "100304450070" 0 "Blues"
        EVTFILTER 0 -1 -1 -1 -1 0 1 0 0 -1.00000000 -1.00000000
      >
    >
  >
  <TRACK '{EA7C5FFF-0006-40D7-9892-B603F81FC984}'
    NAME "PART REAL_GUITAR"
    PEAKCOL 16576
    BEAT -1
    AUTOMODE 0
    VOLPAN 1.83352193671769 0.00000000000000 -1.00000000000000 -1.00000000000000 1.00000000000000
    MUTESOLO 0 0 0
    IPHASE 0
    ISBUS 0 0
    BUSCOMP 0 0
    SHOWINMIX 1 0.666700 0.500000 1 0.500000 -1 -1 -1
    FREEMODE 0
    SEL 0
    REC 0 0 0 0 0 0 0
    VU 2
    TRACKHEIGHT 0 0
    INQ 0 0 0 0.5000000000 100 0 0 100
    NCHAN 2
    FX 0
    TRACKID {EA7C5FFF-0006-40D7-9892-B603F81FC984}
    PERF 0
    MIDIOUT -1
    <MIDINOTENAMES
      0 127 "Trill Marker"
      0 126 "Tremolo Marker"
      0 125 "BRE"
      0 124 "BRE"
      0 123 "BRE"
      0 122 "BRE"
      0 121 "BRE"
      0 120 "BRE (use all 6)"
      0 119 "-----------"
      0 116 "OVERDRIVE"
      0 115 "Solo Marker"
      0 109 "-----------"
      0 108 "Left Hand Position"
      0 107 "Force Chord Numbering"
      0 105 "Strum Direction"
      0 104 "Arpeggio Marker"
      0 103 "Slide Marker"
      0 102 "Force HOPO"
      0 101 "EXPERT e String"
      0 100 "EXPERT B String"
      0 99 "EXPERT G String"
      0 98 "EXPERT D String"
      0 97 "EXPERT A String"
      0 96 "EXPERT E String"
      0 21 "-----------"
      0 18 "Flat/Sharp Swap"
      0 17 "Hide Chord Names"
      0 16 "Slash Chord"
      0 15 "D#"
      0 14 "D"
      0 13 "C#"
      0 12 "C"
      0 11 "B"
      0 10 "A#"
      0 9 "A"
      0 8 "G#"
      0 7 "G"
      0 6 "F#"
      0 5 "F"
      0 4 "E"
      0 95 "-----------"
      0 81 "Strum Direction"
      0 80 "Arpeggio Marker"
      0 79 "Slide Marker"
      0 78 "Force HOPO"
      0 77 "HARD e String"
      0 76 "HARD B String"
      0 75 "HARD G String"
      0 74 "HARD D String"
      0 73 "HARD A String"
      0 72 "HARD E String"
      0 71 "-----------"
      0 56 "Arpeggio Marker"
      0 55 "Slide Marker"
      0 53 "MEDIUM e String"
      0 52 "MEDIUM B String"
      0 51 "MEDIUM G String"
      0 50 "MEDIUM D String"
      0 49 "MEDIUM A String"
      0 48 "MEDIUM E String"
      0 47 "-----------"
      0 32 "Arpeggio Marker"
      0 31 "Slide Marker"
      0 29 "EASY e String"
      0 28 "EASY B String"
      0 27 "EASY G String"
      0 26 "EASY D String"
      0 25 "EASY A String"
      0 24 "EASY E String"
    >
    MAINSEND 1 0
    <FXCHAIN
      WNDRECT 0 42 716 467
      SHOW 0
      LASTSEL 1
      DOCKED 0
      BYPASS 0 0
      <JS "c3/progtr" ""
        0.000000 3.000000 -1.000000 -1.000000 -1.000000 -1.000000 -1.000000 -1.000000 0.000000 1.000000 - - - - - - - - - - - - - - - - - - - - - - - - - - - - - - - - - - - - - - - - - - - - - - - - - - - - - - 
      >
      FLOATPOS 0 0 0 0
      FXID {1B63D982-C286-4F51-BAE6-862C6E7BCF9B}
      WAK 0
      BYPASS 0 0
      <VST "VSTi: ReaSynth (Cockos)" "reasynth.dll" 0 ""
        eXNlcu9e7f4AAAAAAgAAAAEAAAAAAAAAAgAAAAAAAAA4AAAAAAAAAA==
        AAAQAO++rd4N8K3eppvEO5e15j0AAAAAAAAAAAAAgD8AAIA/4jAEPA==
        AAAAAAAAAD+01hM+j8L1Pby7Az8AABAAAAA=
      >
      FLOATPOS 0 0 0 0
      FXID {0BA6D82C-7552-4CBF-868C-34254AE12564}
      WAK 0
    >
    <ITEM
      POSITION 0.00000000000000
      SNAPOFFS 0.00000000000000
      LENGTH 85.06693645507892
      LOOP 0
      ALLTAKES 0
      SEL 0
      FADEIN 1 0.000000 0.000000 1 0
      FADEOUT 1 0.000000 0.000000 1 0
      MUTE 0
      IGUID {F8842BCD-6839-4CC4-950D-2E91779B538F}
      IID 5
      NAME "PART REAL_GUITAR"
      VOLPAN 1.000000 0.000000 1.000000 -1.000000
      SOFFS 0.00000000000000 0.00000000000000
      PLAYRATE 1.00000000000000 1 0.00000000000000 -1
      CHANMODE 0
      GUID {EAA6B786-BC44-4E6B-9297-4A85FD6D375E}
      <SOURCE MIDI
        HASDATA 1 480 QN
        POOLEDEVTS {A8247FE3-27F5-4097-9EB6-9225B19F4067}
        <X 0 0
          /wNQQVJUIFJFQUxfR1VJVEFS
        >
        <X 3840 0
          /wFbY2hyZDMgRTxndHI+Izk8L2d0cj5d
        >
        e 0 90 12 60
        E 0 90 04 64
        E 0 90 19 6b
        E 0 90 31 6b
        E 0 90 49 6b
        E 0 90 50 64
        E 0 90 61 6b
        E 0 90 68 64
        E 0 90 6c 6a
        E 0 91 4a 6a
        E 0 91 4b 64
        E 0 91 4c 64
        E 0 91 62 6a
        E 0 91 63 64
        E 0 91 64 64
        E 120 80 04 00
        E 0 80 19 00
        E 0 80 31 00
        E 0 80 49 00
        E 0 80 61 00
        E 0 80 6c 00
        E 0 81 4a 00
        E 0 81 4b 00
        E 0 81 4c 00
        E 0 81 62 00
        E 0 81 63 00
        E 0 81 64 00
        E 120 90 4a 6a
        E 0 90 62 6a
        E 120 80 4a 00
        E 0 80 62 00
        E 120 90 33 64
        E 0 90 4b 64
        E 0 90 63 64
        E 120 80 33 00
        E 0 80 4b 00
        E 0 80 63 00
        E 120 90 4c 64
        E 0 90 64 64
        E 120 80 4c 00
        E 0 80 64 00
        E 120 90 19 6b
        E 0 90 31 6b
        E 0 90 49 6b
        E 0 90 61 6b
        E 120 80 19 00
        E 0 80 31 00
        E 0 80 49 00
        E 0 80 61 00
        E 120 90 4a 6a
        E 0 90 62 6a
        E 120 80 4a 00
        E 0 80 62 00
        E 120 90 33 64
        E 0 90 4b 64
        E 0 90 63 64 1
        E 120 80 33 00
        E 0 80 4b 00
        E 0 80 63 00 1
        E 120 90 4c 64
        E 0 90 64 64 1
        E 120 80 4c 00
        E 0 80 64 00 1
        E 120 90 19 6b
        E 0 90 31 6b
        E 0 90 49 6b
        E 0 90 61 6b
        E 120 80 19 00
        E 0 80 31 00
        E 0 80 49 00
        E 0 80 61 00
        E 120 90 4a 6a
        E 0 90 62 6a
        E 120 80 4a 00
        E 0 80 62 00
        E 120 90 33 64
        E 0 90 4b 64
        E 0 90 63 64 1
        E 120 80 33 00
        E 0 80 4b 00
        E 0 80 63 00 1
        E 120 90 4c 64
        E 0 90 64 64 1
        E 120 80 4c 00
        E 0 80 64 00 1
        E 120 90 19 6b
        E 0 90 31 6b
        E 0 90 49 6b
        E 0 90 61 6b
        E 120 80 19 00
        E 0 80 31 00
        E 0 80 49 00
        E 0 80 61 00
        E 120 90 4a 6a
        E 0 90 62 6a
        E 120 80 4a 00
        E 0 80 62 00
        E 120 90 33 64
        E 0 90 4b 64
        E 0 90 63 64 1
        E 120 80 33 00
        E 0 80 4b 00
        E 0 80 63 00 1
        E 120 90 4c 64
        E 0 90 64 64 1
        E 120 80 50 00
        E 0 80 68 00
        E 0 80 4c 00
        E 0 80 64 00 1
        <X 120 0
          /wFbYmVnaW5fcGcgc29uZ190cmFpbmVyX3BnXzFd
        >
        E 0 90 19 6b
        E 0 90 31 6b
        E 0 90 49 6b
        E 0 90 50 64
        E 0 90 61 6b
        E 0 90 68 64
        E 0 90 74 64
        E 0 91 4a 6b
        E 0 91 4b 64
        E 0 91 4c 64
        E 0 91 62 6b
        E 0 91 63 64
        E 0 91 64 64
        E 120 80 19 00
        E 0 80 31 00
        E 0 80 49 00
        E 0 80 61 00
        E 0 81 4a 00
        E 0 81 4b 00
        E 0 81 4c 00
        E 0 81 62 00
        E 0 81 63 00
        E 0 81 64 00
        <X 120 0
          /wFbY2hyZDMgRW08Z3RyPmFkZCAxMTwvZ3RyPl0=
        >
        E 0 90 4a 6b
        E 0 90 62 6b
        E 120 80 4a 00
        E 0 80 62 00
        E 120 90 33 64
        E 0 90 4b 64
        E 0 90 63 64 1
        E 120 80 33 00
        E 0 80 4b 00
        E 0 80 63 00 1
        E 120 90 4c 64
        E 0 90 64 64 1
        E 120 80 4c 00
        E 0 80 64 00 1
        <X 120 0
          /wFbcGdfbm9ybSBzb25nX3RyYWluZXJfcGdfMV0=
        >
        E 0 90 19 6b
        E 0 90 31 6b
        E 0 90 49 6b
        E 0 90 61 6b
        E 120 80 19 00
        E 0 80 31 00
        E 0 80 49 00
        E 0 80 61 00
        E 120 90 4a 6b
        E 0 90 62 6b
        E 120 80 4a 00
        E 0 80 62 00
        E 120 90 33 64
        E 0 90 4b 64
        E 0 90 63 64 1
        E 120 80 33 00
        E 0 80 4b 00
        E 0 80 63 00 1
        E 120 90 4c 64
        E 0 90 64 64 1
        E 120 80 4c 00
        E 0 80 64 00 1
        E 120 90 19 6b
        E 0 90 31 6b
        E 0 90 49 6b
        E 0 90 61 6b
        E 120 80 19 00
        E 0 80 31 00
        E 0 80 49 00
        E 0 80 61 00
        E 120 90 4a 6b
        E 0 90 62 6b
        E 120 80 4a 00
        E 0 80 62 00
        E 120 90 33 64
        E 0 90 4b 64
        E 0 90 63 64 1
        E 120 80 33 00
        E 0 80 4b 00
        E 0 80 63 00 1
        E 120 90 4c 64
        E 0 90 64 64 1
        E 120 80 4c 00
        E 0 80 64 00 1
        E 120 90 19 6b
        E 0 90 31 6b
        E 0 90 49 6b
        E 0 90 61 6b
        E 120 80 19 00
        E 0 80 31 00
        E 0 80 49 00
        E 0 80 61 00
        E 120 90 4a 6b
        E 0 90 62 6b
        E 120 80 4a 00
        E 0 80 62 00
        E 120 90 33 64
        E 0 90 4b 64
        E 0 90 63 64 1
        E 120 80 33 00
        E 0 80 4b 00
        E 0 80 63 00 1
        E 120 90 4c 64
        E 0 90 64 64 1
        E 120 80 50 00
        E 0 80 68 00
        E 0 80 4c 00
        E 0 80 64 00 1
        <X 120 0
          /wFbY2hyZDMgRTxndHI+Izk8L2d0cj5d
        >
        E 0 80 74 00
        E 0 90 19 6b
        E 0 90 31 6b
        E 0 90 49 6b
        E 0 90 50 64
        E 0 90 61 6b
        E 0 90 68 64 1
        E 0 91 4a 6a
        E 0 91 4b 64
        E 0 91 4c 64
        E 0 91 62 6a
        E 0 91 63 64
        E 0 91 64 64
        E 120 80 19 00
        E 0 80 31 00
        E 0 80 49 00
        E 0 80 61 00 1
        E 0 81 4a 00
        E 0 81 4b 00
        E 0 81 4c 00
        E 0 81 62 00 1
        E 0 81 63 00 1
        E 0 81 64 00 1
        E 120 90 4a 6a
        E 0 90 62 6a
        E 120 80 4a 00
        E 0 80 62 00 1
        E 120 90 33 64
        E 0 90 4b 64
        E 0 90 63 64 1
        E 120 80 33 00
        E 0 80 4b 00
        E 0 80 63 00 1
        E 120 90 4c 64
        E 0 90 64 64 1
        E 120 80 4c 00
        E 0 80 64 00 1
        E 120 90 19 6b
        E 0 90 31 6b
        E 0 90 49 6b
        E 0 90 61 6b 1
        E 120 80 19 00
        E 0 80 31 00
        E 0 80 49 00
        E 0 80 61 00 1
        E 120 90 4a 6a
        E 0 90 62 6a 1
        E 120 80 4a 00
        E 0 80 62 00 1
        E 120 90 33 64
        E 0 90 4b 64
        E 0 90 63 64 1
        E 120 80 33 00
        E 0 80 4b 00
        E 0 80 63 00 1
        E 120 90 4c 64
        E 0 90 64 64 1
        E 120 80 4c 00
        E 0 80 64 00 1
        E 120 90 19 6b
        E 0 90 31 6b
        E 0 90 49 6b
        E 0 90 61 6b 1
        E 120 80 19 00
        E 0 80 31 00
        E 0 80 49 00
        E 0 80 61 00 1
        E 120 90 4a 6a
        E 0 90 62 6a 1
        E 120 80 4a 00
        E 0 80 62 00 1
        E 120 90 33 64
        E 0 90 4b 64
        E 0 90 63 64 1
        E 120 80 33 00
        E 0 80 4b 00
        E 0 80 63 00 1
        E 120 90 4c 64
        E 0 90 64 64 1
        E 120 80 4c 00
        E 0 80 64 00 1
        E 120 90 19 6b
        E 0 90 31 6b
        E 0 90 49 6b
        E 0 90 61 6b 1
        E 120 80 19 00
        E 0 80 31 00
        E 0 80 49 00
        E 0 80 61 00 1
        E 120 90 4a 6a
        E 0 90 62 6a 1
        E 120 80 4a 00
        E 0 80 62 00 1
        E 120 90 33 64
        E 0 90 4b 64
        E 0 90 63 64 1
        E 120 80 33 00
        E 0 80 4b 00
        E 0 80 63 00 1
        E 120 90 4c 64
        E 0 90 64 64 1
        E 120 80 50 00
        E 0 80 68 00 1
        E 0 80 4c 00
        E 0 80 64 00 1
        <X 120 0
          /wFbZW5kX3BnIHNvbmdfdHJhaW5lcl9wZ18xXQ==
        >
        <X 0 0
          /wFbY2hyZDMgRW08Z3RyPmFkZCAxMTwvZ3RyPl0=
        >
        E 0 90 19 6b
        E 0 90 31 6b
        E 0 90 49 6b
        E 0 90 50 64
        E 0 90 61 6b 1
        E 0 90 68 64 1
        E 0 91 4a 6b
        E 0 91 4b 64
        E 0 91 4c 64
        E 0 91 62 6b 1
        E 0 91 63 64 1
        E 0 91 64 64 1
        E 120 80 19 00
        E 0 80 31 00
        E 0 80 49 00
        E 0 80 61 00 1
        E 0 81 4a 00
        E 0 81 4b 00
        E 0 81 4c 00
        E 0 81 62 00 1
        E 0 81 63 00 1
        E 0 81 64 00 1
        E 120 90 4a 6b
        E 0 90 62 6b 1
        E 120 80 4a 00
        E 0 80 62 00 1
        E 120 90 33 64
        E 0 90 4b 64
        E 0 90 63 64 1
        E 120 80 33 00
        E 0 80 4b 00
        E 0 80 63 00 1
        E 120 90 4c 64
        E 0 90 64 64 1
        E 120 80 4c 00
        E 0 80 64 00 1
        E 120 90 19 6b
        E 0 90 31 6b
        E 0 90 49 6b
        E 0 90 61 6b 1
        E 120 80 19 00
        E 0 80 31 00
        E 0 80 49 00
        E 0 80 61 00 1
        E 120 90 4a 6b
        E 0 90 62 6b 1
        E 120 80 4a 00
        E 0 80 62 00 1
        E 120 90 33 64
        E 0 90 4b 64
        E 0 90 63 64 1
        E 120 80 33 00
        E 0 80 4b 00
        E 0 80 63 00 1
        E 120 90 4c 64
        E 0 90 64 64 1
        E 120 80 4c 00
        E 0 80 64 00 1
        E 120 90 19 6b
        E 0 90 31 6b
        E 0 90 49 6b
        E 0 90 61 6b 1
        E 120 80 19 00
        E 0 80 31 00
        E 0 80 49 00
        E 0 80 61 00 1
        E 120 90 4a 6b
        E 0 90 62 6b 1
        E 120 80 4a 00
        E 0 80 62 00 1
        E 120 90 33 64
        E 0 90 4b 64
        E 0 90 63 64 1
        E 120 80 33 00
        E 0 80 4b 00
        E 0 80 63 00 1
        E 120 90 4c 64
        E 0 90 64 64 1
        E 120 80 4c 00
        E 0 80 64 00 1
        E 120 90 19 6b
        E 0 90 31 6b
        E 0 90 49 6b
        E 0 90 61 6b 1
        E 120 80 19 00
        E 0 80 31 00
        E 0 80 49 00
        E 0 80 61 00 1
        E 120 90 4a 6b
        E 0 90 62 6b 1
        E 120 80 4a 00
        E 0 80 62 00 1
        E 120 90 33 64
        E 0 90 4b 64
        E 0 90 63 64 1
        E 120 80 33 00
        E 0 80 4b 00
        E 0 80 63 00 1
        E 120 90 4c 64
        E 0 90 64 64 1
        E 120 80 50 00
        E 0 80 68 00 1
        E 0 80 4c 00
        E 0 80 64 00 1
        <X 120 0
          /wFbY2hyZDMgRTxndHI+Izk8L2d0cj5d
        >
        E 0 90 19 6b
        E 0 90 31 6b
        E 0 90 49 6b
        E 0 90 50 64
        E 0 90 61 6b
        E 0 90 68 64 1
        E 0 91 4a 6a
        E 0 91 4b 64
        E 0 91 4c 64
        E 0 91 62 6a
        E 0 91 63 64
        E 0 91 64 64
        E 120 80 19 00
        E 0 80 31 00
        E 0 80 49 00
        E 0 80 61 00 1
        E 0 81 4a 00
        E 0 81 4b 00
        E 0 81 4c 00
        E 0 81 62 00 1
        E 0 81 63 00 1
        E 0 81 64 00 1
        E 120 90 4a 6a
        E 0 90 62 6a
        E 120 80 4a 00
        E 0 80 62 00 1
        E 120 90 33 64
        E 0 90 4b 64
        E 0 90 63 64 1
        E 120 80 33 00
        E 0 80 4b 00
        E 0 80 63 00 1
        E 120 90 4c 64
        E 0 90 64 64 1
        E 120 80 4c 00
        E 0 80 64 00 1
        E 120 90 19 6b
        E 0 90 31 6b
        E 0 90 49 6b
        E 0 90 61 6b 1
        E 120 80 19 00
        E 0 80 31 00
        E 0 80 49 00
        E 0 80 61 00 1
        E 120 90 4a 6a
        E 0 90 62 6a 1
        E 120 80 4a 00
        E 0 80 62 00 1
        E 120 90 33 64
        E 0 90 4b 64
        E 0 90 63 64 1
        E 120 80 33 00
        E 0 80 4b 00
        E 0 80 63 00 1
        E 120 90 4c 64
        E 0 90 64 64 1
        E 120 80 4c 00
        E 0 80 64 00 1
        E 120 90 19 6b
        E 0 90 31 6b
        E 0 90 49 6b
        E 0 90 61 6b 1
        E 0 90 74 64
        E 120 80 19 00
        E 0 80 31 00
        E 0 80 49 00
        E 0 80 61 00 1
        E 120 90 4a 6a
        E 0 90 62 6a 1
        E 120 80 4a 00
        E 0 80 62 00 1
        E 120 90 33 64
        E 0 90 4b 64
        E 0 90 63 64 1
        E 120 80 33 00
        E 0 80 4b 00
        E 0 80 63 00 1
        E 120 90 4c 64
        E 0 90 64 64 1
        E 120 80 4c 00
        E 0 80 64 00 1
        E 120 90 19 6b
        E 0 90 31 6b
        E 0 90 49 6b
        E 0 90 61 6b 1
        E 120 80 19 00
        E 0 80 31 00
        E 0 80 49 00
        E 0 80 61 00 1
        E 120 90 4a 6a
        E 0 90 62 6a 1
        E 120 80 4a 00
        E 0 80 62 00 1
        E 120 90 33 64
        E 0 90 4b 64
        E 0 90 63 64 1
        E 120 80 33 00
        E 0 80 4b 00
        E 0 80 63 00 1
        E 120 90 4c 64
        E 0 90 64 64 1
        E 120 80 50 00
        E 0 80 68 00 1
        E 0 80 4c 00
        E 0 80 64 00 1
        <X 120 0
          /wFbY2hyZDMgRW08Z3RyPmFkZCAxMTwvZ3RyPl0=
        >
        E 0 80 74 00
        E 0 90 19 6b
        E 0 90 31 6b
        E 0 90 49 6b
        E 0 90 50 64
        E 0 90 61 6b 1
        E 0 90 68 64 1
        E 0 91 4a 6b
        E 0 91 4b 64
        E 0 91 4c 64
        E 0 91 62 6b 1
        E 0 91 63 64 1
        E 0 91 64 64 1
        E 120 80 19 00
        E 0 80 31 00
        E 0 80 49 00
        E 0 80 61 00 1
        E 0 81 4a 00
        E 0 81 4b 00
        E 0 81 4c 00
        E 0 81 62 00 1
        E 0 81 63 00 1
        E 0 81 64 00 1
        E 120 90 4a 6b
        E 0 90 62 6b 1
        E 120 80 4a 00
        E 0 80 62 00 1
        E 120 90 33 64
        E 0 90 4b 64
        E 0 90 63 64 1
        E 120 80 33 00
        E 0 80 4b 00
        E 0 80 63 00 1
        E 120 90 4c 64
        E 0 90 64 64 1
        E 120 80 4c 00
        E 0 80 64 00 1
        E 120 90 19 6b
        E 0 90 31 6b
        E 0 90 49 6b
        E 0 90 61 6b 1
        E 120 80 19 00
        E 0 80 31 00
        E 0 80 49 00
        E 0 80 61 00 1
        E 120 90 4a 6b
        E 0 90 62 6b 1
        E 120 80 4a 00
        E 0 80 62 00 1
        E 120 90 33 64
        E 0 90 4b 64
        E 0 90 63 64 1
        E 120 80 33 00
        E 0 80 4b 00
        E 0 80 63 00 1
        E 120 90 4c 64
        E 0 90 64 64 1
        E 120 80 4c 00
        E 0 80 64 00 1
        E 120 90 19 6b
        E 0 90 31 6b
        E 0 90 49 6b
        E 0 90 61 6b 1
        E 120 80 19 00
        E 0 80 31 00
        E 0 80 49 00
        E 0 80 61 00 1
        E 120 90 4a 6b
        E 0 90 62 6b 1
        E 120 80 4a 00
        E 0 80 62 00 1
        E 120 90 33 64
        E 0 90 4b 64
        E 0 90 63 64 1
        E 120 80 33 00
        E 0 80 4b 00
        E 0 80 63 00 1
        E 120 90 4c 64
        E 0 90 64 64 1
        E 120 80 4c 00
        E 0 80 64 00 1
        E 120 90 19 6b
        E 0 90 31 6b
        E 0 90 49 6b
        E 0 90 61 6b 1
        E 120 80 19 00
        E 0 80 31 00
        E 0 80 49 00
        E 0 80 61 00 1
        E 120 90 4a 6b
        E 0 90 62 6b 1
        E 120 80 4a 00
        E 0 80 62 00 1
        E 120 90 33 64
        E 0 90 4b 64
        E 0 90 63 64 1
        E 120 80 33 00
        E 0 80 4b 00
        E 0 80 63 00 1
        E 120 90 4c 64
        E 0 90 64 64 1
        E 120 80 50 00
        E 0 80 68 00 1
        E 0 80 4c 00
        E 0 80 64 00 1
        <X 120 0
          /wFbY2hyZDMgRTxndHI+Izk8L2d0cj5d
        >
        E 0 90 19 6b
        E 0 90 31 6b
        E 0 90 49 6b
        E 0 90 50 64
        E 0 90 61 6b
        E 0 90 68 64 1
        E 0 91 4a 6a
        E 0 91 4b 64
        E 0 91 4c 64
        E 0 91 62 6a
        E 0 91 63 64
        E 0 91 64 64
        E 120 80 19 00
        E 0 80 31 00
        E 0 80 49 00
        E 0 80 61 00 1
        E 0 81 4a 00
        E 0 81 4b 00
        E 0 81 4c 00
        E 0 81 62 00 1
        E 0 81 63 00 1
        E 0 81 64 00 1
        E 120 90 4a 6a
        E 0 90 62 6a
        E 120 80 4a 00
        E 0 80 62 00 1
        E 120 90 33 64
        E 0 90 4b 64
        E 0 90 63 64 1
        E 120 80 33 00
        E 0 80 4b 00
        E 0 80 63 00 1
        E 120 90 4c 64
        E 0 90 64 64 1
        E 120 80 4c 00
        E 0 80 64 00 1
        E 120 90 19 6b
        E 0 90 31 6b
        E 0 90 49 6b
        E 0 90 61 6b 1
        E 120 80 19 00
        E 0 80 31 00
        E 0 80 49 00
        E 0 80 61 00 1
        E 120 90 4a 6a
        E 0 90 62 6a 1
        E 120 80 4a 00
        E 0 80 62 00 1
        E 120 90 33 64
        E 0 90 4b 64
        E 0 90 63 64 1
        E 120 80 33 00
        E 0 80 4b 00
        E 0 80 63 00 1
        E 120 90 4c 64
        E 0 90 64 64 1
        E 120 80 4c 00
        E 0 80 64 00 1
        E 120 90 19 6b
        E 0 90 31 6b
        E 0 90 49 6b
        E 0 90 61 6b 1
        E 0 90 74 64
        E 120 80 19 00
        E 0 80 31 00
        E 0 80 49 00
        E 0 80 61 00 1
        E 120 90 4a 6a
        E 0 90 62 6a 1
        E 120 80 4a 00
        E 0 80 62 00 1
        E 120 90 33 64
        E 0 90 4b 64
        E 0 90 63 64 1
        E 120 80 33 00
        E 0 80 4b 00
        E 0 80 63 00 1
        E 120 90 4c 64
        E 0 90 64 64 1
        E 120 80 4c 00
        E 0 80 64 00 1
        E 120 90 19 6b
        E 0 90 31 6b
        E 0 90 49 6b
        E 0 90 61 6b 1
        E 120 80 19 00
        E 0 80 31 00
        E 0 80 49 00
        E 0 80 61 00 1
        E 120 90 4a 6a
        E 0 90 62 6a 1
        E 120 80 4a 00
        E 0 80 62 00 1
        E 120 90 33 64
        E 0 90 4b 64
        E 0 90 63 64 1
        E 120 80 33 00
        E 0 80 4b 00
        E 0 80 63 00 1
        E 120 90 4c 64
        E 0 90 64 64 1
        E 120 80 50 00
        E 0 80 68 00 1
        E 0 80 4c 00
        E 0 80 64 00 1
        <X 120 0
          /wFbY2hyZDMgRW08Z3RyPmFkZCAxMTwvZ3RyPl0=
        >
        E 0 80 74 00
        E 0 90 19 6b
        E 0 90 31 6b
        E 0 90 49 6b
        E 0 90 50 64
        E 0 90 61 6b 1
        E 0 90 68 64 1
        E 0 91 4a 6b
        E 0 91 4b 64
        E 0 91 4c 64
        E 0 91 62 6b 1
        E 0 91 63 64 1
        E 0 91 64 64 1
        E 120 80 19 00
        E 0 80 31 00
        E 0 80 49 00
        E 0 80 61 00 1
        E 0 81 4a 00
        E 0 81 4b 00
        E 0 81 4c 00
        E 0 81 62 00 1
        E 0 81 63 00 1
        E 0 81 64 00 1
        E 120 90 4a 6b
        E 0 90 62 6b 1
        E 120 80 4a 00
        E 0 80 62 00 1
        E 120 90 33 64
        E 0 90 4b 64
        E 0 90 63 64 1
        E 120 80 33 00
        E 0 80 4b 00
        E 0 80 63 00 1
        E 120 90 4c 64
        E 0 90 64 64 1
        E 120 80 4c 00
        E 0 80 64 00 1
        E 120 90 19 6b
        E 0 90 31 6b
        E 0 90 49 6b
        E 0 90 61 6b 1
        E 120 80 19 00
        E 0 80 31 00
        E 0 80 49 00
        E 0 80 61 00 1
        E 120 90 4a 6b
        E 0 90 62 6b 1
        E 120 80 4a 00
        E 0 80 62 00 1
        E 120 90 33 64
        E 0 90 4b 64
        E 0 90 63 64 1
        E 120 80 33 00
        E 0 80 4b 00
        E 0 80 63 00 1
        E 120 90 4c 64
        E 0 90 64 64 1
        E 120 80 4c 00
        E 0 80 64 00 1
        E 120 90 19 6b
        E 0 90 31 6b
        E 0 90 49 6b
        E 0 90 61 6b 1
        E 120 80 19 00
        E 0 80 31 00
        E 0 80 49 00
        E 0 80 61 00 1
        E 120 90 4a 6b
        E 0 90 62 6b 1
        E 120 80 4a 00
        E 0 80 62 00 1
        E 120 90 33 64
        E 0 90 4b 64
        E 0 90 63 64 1
        E 120 80 33 00
        E 0 80 4b 00
        E 0 80 63 00 1
        E 120 90 4c 64
        E 0 90 64 64 1
        E 120 80 4c 00
        E 0 80 64 00 1
        E 120 90 19 6b
        E 0 90 31 6b
        E 0 90 49 6b
        E 0 90 61 6b 1
        E 120 80 19 00
        E 0 80 31 00
        E 0 80 49 00
        E 0 80 61 00 1
        E 120 90 4a 6b
        E 0 90 62 6b 1
        E 120 80 4a 00
        E 0 80 62 00 1
        E 120 90 33 64
        E 0 90 4b 64
        E 0 90 63 64 1
        E 120 80 33 00
        E 0 80 4b 00
        E 0 80 63 00 1
        E 120 90 4c 64
        E 0 90 64 64 1
        E 120 80 50 00
        E 0 80 68 00 1
        E 0 80 4c 00
        E 0 80 64 00 1
        <X 120 0
          /wFbY2hyZDMgRTxndHI+Izk8L2d0cj5d
        >
        E 0 90 19 6b
        E 0 90 31 6b
        E 0 90 49 6b
        E 0 90 50 64
        E 0 90 61 6b
        E 0 90 68 64 1
        E 0 91 4a 6a
        E 0 91 4b 64
        E 0 91 4c 64
        E 0 91 62 6a
        E 0 91 63 64
        E 0 91 64 64
        E 120 80 19 00
        E 0 80 31 00
        E 0 80 49 00
        E 0 80 61 00 1
        E 0 81 4a 00
        E 0 81 4b 00
        E 0 81 4c 00
        E 0 81 62 00 1
        E 0 81 63 00 1
        E 0 81 64 00 1
        E 120 90 4a 6a
        E 0 90 62 6a
        E 120 80 4a 00
        E 0 80 62 00 1
        E 120 90 33 64
        E 0 90 4b 64
        E 0 90 63 64 1
        E 120 80 33 00
        E 0 80 4b 00
        E 0 80 63 00 1
        E 120 90 4c 64
        E 0 90 64 64 1
        E 120 80 4c 00
        E 0 80 64 00 1
        E 120 90 19 6b
        E 0 90 31 6b
        E 0 90 49 6b
        E 0 90 61 6b 1
        E 120 80 19 00
        E 0 80 31 00
        E 0 80 49 00
        E 0 80 61 00 1
        E 120 90 4a 6a
        E 0 90 62 6a 1
        E 120 80 4a 00
        E 0 80 62 00 1
        E 120 90 33 64
        E 0 90 4b 64
        E 0 90 63 64 1
        E 120 80 33 00
        E 0 80 4b 00
        E 0 80 63 00 1
        E 120 90 4c 64
        E 0 90 64 64 1
        E 120 80 4c 00
        E 0 80 64 00 1
        E 120 90 19 6b
        E 0 90 31 6b
        E 0 90 49 6b
        E 0 90 61 6b 1
        E 120 80 19 00
        E 0 80 31 00
        E 0 80 49 00
        E 0 80 61 00 1
        E 120 90 4a 6a
        E 0 90 62 6a 1
        E 120 80 4a 00
        E 0 80 62 00 1
        E 120 90 33 64
        E 0 90 4b 64
        E 0 90 63 64 1
        E 120 80 33 00
        E 0 80 4b 00
        E 0 80 63 00 1
        E 120 90 4c 64
        E 0 90 64 64 1
        E 120 80 4c 00
        E 0 80 64 00 1
        E 120 90 19 6b
        E 0 90 31 6b
        E 0 90 49 6b
        E 0 90 61 6b 1
        E 120 80 19 00
        E 0 80 31 00
        E 0 80 49 00
        E 0 80 61 00 1
        E 120 90 4a 6a
        E 0 90 62 6a 1
        E 120 80 4a 00
        E 0 80 62 00 1
        E 120 90 33 64
        E 0 90 4b 64
        E 0 90 63 64 1
        E 120 80 33 00
        E 0 80 4b 00
        E 0 80 63 00 1
        E 120 90 4c 64
        E 0 90 64 64 1
        E 120 80 50 00
        E 0 80 68 00 1
        E 0 80 4c 00
        E 0 80 64 00 1
        <X 120 0
          /wFbYmVnaW5fcGcgc29uZ190cmFpbmVyX3BnXzJd
        >
        E 0 90 0b 64
        E 0 90 10 64
        E 0 90 1b 68
        E 0 90 33 68
        E 0 90 49 64
        E 0 90 50 64
        E 0 90 61 64
        E 0 90 68 64
        E 0 90 6c 68
        E 0 90 74 64
        E 0 91 4b 68
        E 0 91 4c 68
        E 0 91 63 68
        E 0 91 64 68
        E 120 80 0b 00
        E 0 80 1b 00
        E 0 80 33 00
        E 0 80 49 00
        E 0 80 61 00
        E 0 80 6c 00
        E 0 81 4b 00
        E 0 81 4c 00
        E 0 81 63 00
        E 0 81 64 00
        E 120 90 4b 68
        E 0 90 63 68
        E 120 80 4b 00
        E 0 80 63 00
        E 120 90 34 68
        E 0 90 4c 68
        E 0 90 64 68
        E 120 80 34 00
        E 0 80 4c 00
        E 0 80 64 00
        E 120 90 4b 68
        E 0 90 63 68
        E 120 80 4b 00
        E 0 80 63 00
        E 120 90 19 64
        E 0 90 31 64
        E 0 90 49 64
        E 0 90 61 64
        E 120 80 19 00
        E 0 80 31 00
        E 0 80 49 00
        E 0 80 61 00
        E 120 90 4b 68
        E 0 90 63 68
        E 120 80 4b 00
        E 0 80 63 00
        E 120 90 34 68
        E 0 90 4c 68
        E 0 90 64 68
        E 120 80 34 00
        E 0 80 4c 00
        E 0 80 64 00
        E 120 90 4b 68
        E 0 90 63 68
        E 120 80 50 00
        E 0 80 68 00
        E 0 80 4b 00
        E 0 80 63 00
        E 120 90 1b 68
        E 0 90 33 68
        E 0 90 49 64
        E 0 90 50 64
        E 0 90 61 64
        E 0 90 68 64
        E 0 90 6c 66
        E 0 91 4b 68
        E 0 91 4c 66
        E 0 91 63 68
        E 0 91 64 66
        E 120 80 10 00
        E 0 80 1b 00
        E 0 80 33 00
        E 0 80 49 00
        E 0 80 61 00
        E 0 80 6c 00
        E 0 81 4b 00
        E 0 81 4c 00
        E 0 81 63 00
        E 0 81 64 00
        E 120 90 4b 68
        E 0 90 63 68
        E 120 80 4b 00
        E 0 80 63 00
        E 120 90 34 66
        E 0 90 4c 66
        E 0 90 64 66
        E 120 80 34 00
        E 0 80 4c 00
        E 0 80 64 00
        E 120 90 4b 68
        E 0 90 63 68
        E 120 80 4b 00
        E 0 80 63 00
        E 120 90 19 64
        E 0 90 31 64
        E 0 90 49 64
        E 0 90 61 64
        E 120 80 19 00
        E 0 80 31 00
        E 0 80 49 00
        E 0 80 61 00
        E 120 90 4b 68
        E 0 90 63 68
        E 120 80 4b 00
        E 0 80 63 00
        E 120 90 34 66
        E 0 90 4c 66
        E 0 90 64 66
        E 120 80 34 00
        E 0 80 4c 00
        E 0 80 64 00
        E 120 90 4b 68
        E 0 90 63 68
        E 120 80 50 00
        E 0 80 68 00
        E 0 80 4b 00
        E 0 80 63 00
        <X 120 0
          /wFbY2hyZDMgRTxndHI+Izk8L2d0cj5d
        >
        E 0 80 74 00
        E 0 90 04 64
        E 0 90 19 6b
        E 0 90 31 6b
        E 0 90 49 6b
        E 0 90 50 64
        E 0 90 61 6b
        E 0 90 68 64 1
        E 0 90 6c 6a 1
        E 0 91 4a 6a
        E 0 91 4b 64
        E 0 91 4c 64
        E 0 91 62 6a
        E 0 91 63 64
        E 0 91 64 64
        E 120 80 04 00
        E 0 80 19 00
        E 0 80 31 00
        E 0 80 49 00
        E 0 80 61 00 1
        E 0 80 6c 00 1
        E 0 81 4a 00
        E 0 81 4b 00
        E 0 81 4c 00
        E 0 81 62 00 1
        E 0 81 63 00 1
        E 0 81 64 00 1
        E 120 90 4a 6a
        E 0 90 62 6a
        E 120 80 4a 00
        E 0 80 62 00 1
        E 120 90 33 64
        E 0 90 4b 64
        E 0 90 63 64 1
        E 120 80 33 00
        E 0 80 4b 00
        E 0 80 63 00 1
        E 120 90 4c 64
        E 0 90 64 64 1
        E 120 80 4c 00
        E 0 80 64 00 1
        E 120 90 19 6b
        E 0 90 31 6b
        E 0 90 49 6b
        E 0 90 61 6b 1
        E 120 80 19 00
        E 0 80 31 00
        E 0 80 49 00
        E 0 80 61 00 1
        E 120 90 4a 6a
        E 0 90 62 6a 1
        E 120 80 4a 00
        E 0 80 62 00 1
        E 120 90 33 64
        E 0 90 4b 64
        E 0 90 63 64 1
        E 120 80 33 00
        E 0 80 4b 00
        E 0 80 63 00 1
        E 120 90 4c 64
        E 0 90 64 64 1
        E 120 80 4c 00
        E 0 80 64 00 1
        E 120 90 19 6b
        E 0 90 31 6b
        E 0 90 49 6b
        E 0 90 61 6b 1
        E 120 80 19 00
        E 0 80 31 00
        E 0 80 49 00
        E 0 80 61 00 1
        E 120 90 4a 6a
        E 0 90 62 6a 1
        E 120 80 4a 00
        E 0 80 62 00 1
        E 120 90 33 64
        E 0 90 4b 64
        E 0 90 63 64 1
        E 120 80 33 00
        E 0 80 4b 00
        E 0 80 63 00 1
        E 120 90 4c 64
        E 0 90 64 64 1
        E 120 80 4c 00
        E 0 80 64 00 1
        E 120 90 19 6b
        E 0 90 31 6b
        E 0 90 49 6b
        E 0 90 61 6b 1
        E 120 80 19 00
        E 0 80 31 00
        E 0 80 49 00
        E 0 80 61 00 1
        E 120 90 4a 6a
        E 0 90 62 6a 1
        E 120 80 4a 00
        E 0 80 62 00 1
        E 120 90 33 64
        E 0 90 4b 64
        E 0 90 63 64 1
        E 120 80 33 00
        E 0 80 4b 00
        E 0 80 63 00 1
        E 120 90 4c 64
        E 0 90 64 64 1
        E 120 80 50 00
        E 0 80 68 00 1
        E 0 80 4c 00
        E 0 80 64 00 1
        <X 120 0
          /wFbZW5kX3BnIHNvbmdfdHJhaW5lcl9wZ18yXQ==
        >
        E 0 90 0b 64
        E 0 90 10 64
        E 0 90 1b 68
        E 0 90 33 68
        E 0 90 49 64
        E 0 90 50 64
        E 0 90 61 64
        E 0 90 68 64
        E 0 90 6c 68
        E 0 91 4b 68
        E 0 91 4c 68
        E 0 91 63 68
        E 0 91 64 68
        E 120 80 0b 00
        E 0 80 1b 00
        E 0 80 33 00
        E 0 80 49 00
        E 0 80 61 00
        E 0 80 6c 00
        E 0 81 4b 00
        E 0 81 4c 00
        E 0 81 63 00
        E 0 81 64 00
        E 120 90 4b 68
        E 0 90 63 68
        E 120 80 4b 00
        E 0 80 63 00
        E 120 90 34 68
        E 0 90 4c 68
        E 0 90 64 68
        E 120 80 34 00
        E 0 80 4c 00
        E 0 80 64 00
        E 120 90 4b 68
        E 0 90 63 68
        E 120 80 4b 00
        E 0 80 63 00
        E 120 90 19 64
        E 0 90 31 64
        E 0 90 49 64
        E 0 90 61 64
        E 120 80 19 00
        E 0 80 31 00
        E 0 80 49 00
        E 0 80 61 00
        E 120 90 4b 68
        E 0 90 63 68
        E 120 80 4b 00
        E 0 80 63 00
        E 120 90 34 68
        E 0 90 4c 68
        E 0 90 64 68
        E 120 80 34 00
        E 0 80 4c 00
        E 0 80 64 00
        E 120 90 4b 68
        E 0 90 63 68
        E 120 80 50 00
        E 0 80 68 00
        E 0 80 4b 00
        E 0 80 63 00
        E 120 90 1b 68
        E 0 90 33 68
        E 0 90 49 64
        E 0 90 50 64
        E 0 90 61 64
        E 0 90 68 64
        E 0 90 6c 66
        E 0 90 74 64
        E 0 91 4b 68
        E 0 91 4c 66
        E 0 91 63 68
        E 0 91 64 66
        E 120 80 10 00
        E 0 80 1b 00
        E 0 80 33 00
        E 0 80 49 00
        E 0 80 61 00
        E 0 80 6c 00
        E 0 81 4b 00
        E 0 81 4c 00
        E 0 81 63 00
        E 0 81 64 00
        E 120 90 4b 68
        E 0 90 63 68
        E 120 80 4b 00
        E 0 80 63 00
        E 120 90 34 66
        E 0 90 4c 66
        E 0 90 64 66
        E 120 80 34 00
        E 0 80 4c 00
        E 0 80 64 00
        E 120 90 4b 68
        E 0 90 63 68
        E 120 80 4b 00
        E 0 80 63 00
        E 120 90 19 64
        E 0 90 31 64
        E 0 90 49 64
        E 0 90 61 64
        E 120 80 19 00
        E 0 80 31 00
        E 0 80 49 00
        E 0 80 61 00
        E 120 90 4b 68
        E 0 90 63 68
        E 120 80 4b 00
        E 0 80 63 00
        E 120 90 34 66
        E 0 90 4c 66
        E 0 90 64 66
        E 120 80 34 00
        E 0 80 4c 00
        E 0 80 64 00
        E 120 90 4b 68
        E 0 90 63 68
        E 120 80 50 00
        E 0 80 68 00
        E 0 80 4b 00
        E 0 80 63 00
        <X 120 0
          /wFbY2hyZDMgRTxndHI+Izk8L2d0cj5d
        >
        E 0 80 74 00
        E 0 90 04 64
        E 0 90 19 6b
        E 0 90 31 6b
        E 0 90 49 6b
        E 0 90 50 64
        E 0 90 61 6b
        E 0 90 68 64 1
        E 0 90 6c 6a 1
        E 0 91 4a 6a
        E 0 91 4b 64
        E 0 91 4c 64
        E 0 91 62 6a
        E 0 91 63 64
        E 0 91 64 64
        E 120 80 04 00
        E 0 80 19 00
        E 0 80 31 00
        E 0 80 49 00
        E 0 80 61 00 1
        E 0 80 6c 00 1
        E 0 81 4a 00
        E 0 81 4b 00
        E 0 81 4c 00
        E 0 81 62 00 1
        E 0 81 63 00 1
        E 0 81 64 00 1
        E 120 90 4a 6a
        E 0 90 62 6a
        E 120 80 4a 00
        E 0 80 62 00 1
        E 120 90 33 64
        E 0 90 4b 64
        E 0 90 63 64 1
        E 120 80 33 00
        E 0 80 4b 00
        E 0 80 63 00 1
        E 120 90 4c 64
        E 0 90 64 64 1
        E 120 80 4c 00
        E 0 80 64 00 1
        E 120 90 19 6b
        E 0 90 31 6b
        E 0 90 49 6b
        E 0 90 61 6b 1
        E 120 80 19 00
        E 0 80 31 00
        E 0 80 49 00
        E 0 80 61 00 1
        E 120 90 4a 6a
        E 0 90 62 6a 1
        E 120 80 4a 00
        E 0 80 62 00 1
        E 120 90 33 64
        E 0 90 4b 64
        E 0 90 63 64 1
        E 120 80 33 00
        E 0 80 4b 00
        E 0 80 63 00 1
        E 120 90 4c 64
        E 0 90 64 64 1
        E 120 80 4c 00
        E 0 80 64 00 1
        E 120 90 19 6b
        E 0 90 31 6b
        E 0 90 49 6b
        E 0 90 61 6b 1
        E 120 80 19 00
        E 0 80 31 00
        E 0 80 49 00
        E 0 80 61 00 1
        E 120 90 4a 6a
        E 0 90 62 6a 1
        E 120 80 4a 00
        E 0 80 62 00 1
        E 120 90 33 64
        E 0 90 4b 64
        E 0 90 63 64 1
        E 120 80 33 00
        E 0 80 4b 00
        E 0 80 63 00 1
        E 120 90 4c 64
        E 0 90 64 64 1
        E 120 80 4c 00
        E 0 80 64 00 1
        E 120 90 19 6b
        E 0 90 31 6b
        E 0 90 49 6b
        E 0 90 61 6b 1
        E 120 80 19 00
        E 0 80 31 00
        E 0 80 49 00
        E 0 80 61 00 1
        E 120 90 4a 6a
        E 0 90 62 6a 1
        E 120 80 4a 00
        E 0 80 62 00 1
        E 120 90 33 64
        E 0 90 4b 64
        E 0 90 63 64 1
        E 120 80 33 00
        E 0 80 4b 00
        E 0 80 63 00 1
        E 120 90 4c 64
        E 0 90 64 64 1
        E 120 80 50 00
        E 0 80 68 00 1
        E 0 80 4c 00
        E 0 80 64 00 1
        E 120 90 0b 64
        E 0 90 10 64
        E 0 90 1b 68
        E 0 90 33 68
        E 0 90 49 64
        E 0 90 50 64
        E 0 90 61 64
        E 0 90 68 64
        E 0 90 6c 68
        E 0 91 4b 68
        E 0 91 4c 68
        E 0 91 63 68
        E 0 91 64 68
        E 120 80 0b 00
        E 0 80 1b 00
        E 0 80 33 00
        E 0 80 49 00
        E 0 80 61 00
        E 0 80 6c 00
        E 0 81 4b 00
        E 0 81 4c 00
        E 0 81 63 00
        E 0 81 64 00
        E 120 90 4b 68
        E 0 90 63 68
        E 120 80 4b 00
        E 0 80 63 00
        E 120 90 34 68
        E 0 90 4c 68
        E 0 90 64 68
        E 120 80 34 00
        E 0 80 4c 00
        E 0 80 64 00
        E 120 90 4b 68
        E 0 90 63 68
        E 120 80 4b 00
        E 0 80 63 00
        E 120 90 19 64
        E 0 90 31 64
        E 0 90 49 64
        E 0 90 61 64
        E 120 80 19 00
        E 0 80 31 00
        E 0 80 49 00
        E 0 80 61 00
        E 120 90 4b 68
        E 0 90 63 68
        E 120 80 4b 00
        E 0 80 63 00
        E 120 90 34 68
        E 0 90 4c 68
        E 0 90 64 68
        E 120 80 34 00
        E 0 80 4c 00
        E 0 80 64 00
        E 120 90 4b 68
        E 0 90 63 68
        E 120 80 50 00
        E 0 80 68 00
        E 0 80 4b 00
        E 0 80 63 00
        E 120 90 1b 68
        E 0 90 33 68
        E 0 90 49 64
        E 0 90 50 64
        E 0 90 61 64
        E 0 90 68 64
        E 0 90 6c 66
        E 0 91 4b 68
        E 0 91 4c 66
        E 0 91 63 68
        E 0 91 64 66
        E 120 80 10 00
        E 0 80 1b 00
        E 0 80 33 00
        E 0 80 49 00
        E 0 80 61 00
        E 0 80 6c 00
        E 0 81 4b 00
        E 0 81 4c 00
        E 0 81 63 00
        E 0 81 64 00
        E 120 90 4b 68
        E 0 90 63 68
        E 120 80 4b 00
        E 0 80 63 00
        E 120 90 34 66
        E 0 90 4c 66
        E 0 90 64 66
        E 120 80 34 00
        E 0 80 4c 00
        E 0 80 64 00
        E 120 90 4b 68
        E 0 90 63 68
        E 120 80 4b 00
        E 0 80 63 00
        E 120 90 19 64
        E 0 90 31 64
        E 0 90 49 64
        E 0 90 61 64
        E 120 80 19 00
        E 0 80 31 00
        E 0 80 49 00
        E 0 80 61 00
        E 120 90 4b 68
        E 0 90 63 68
        E 120 80 4b 00
        E 0 80 63 00
        E 120 90 34 66
        E 0 90 4c 66
        E 0 90 64 66
        E 120 80 34 00
        E 0 80 4c 00
        E 0 80 64 00
        E 120 90 4b 68
        E 0 90 63 68
        E 120 80 50 00
        E 0 80 68 00
        E 0 80 4b 00
        E 0 80 63 00
        <X 120 0
          /wFbY2hyZDMgRTxndHI+Izk8L2d0cj5d
        >
        E 0 90 04 64
        E 0 90 19 6b
        E 0 90 31 6b
        E 0 90 49 6b
        E 0 90 50 64
        E 0 90 61 6b
        E 0 90 68 64 1
        E 0 90 6c 6a 1
        E 0 90 74 64
        E 0 91 4a 6a
        E 0 91 4b 64
        E 0 91 4c 64
        E 0 91 62 6a
        E 0 91 63 64
        E 0 91 64 64
        E 120 80 04 00
        E 0 80 19 00
        E 0 80 31 00
        E 0 80 49 00
        E 0 80 61 00 1
        E 0 80 6c 00 1
        E 0 81 4a 00
        E 0 81 4b 00
        E 0 81 4c 00
        E 0 81 62 00 1
        E 0 81 63 00 1
        E 0 81 64 00 1
        E 120 90 4a 6a
        E 0 90 62 6a
        E 120 80 4a 00
        E 0 80 62 00 1
        E 120 90 33 64
        E 0 90 4b 64
        E 0 90 63 64 1
        E 120 80 33 00
        E 0 80 4b 00
        E 0 80 63 00 1
        E 120 90 4c 64
        E 0 90 64 64 1
        E 120 80 4c 00
        E 0 80 64 00 1
        E 120 90 19 6b
        E 0 90 31 6b
        E 0 90 49 6b
        E 0 90 61 6b 1
        E 120 80 19 00
        E 0 80 31 00
        E 0 80 49 00
        E 0 80 61 00 1
        E 120 90 4a 6a
        E 0 90 62 6a 1
        E 120 80 4a 00
        E 0 80 62 00 1
        E 120 90 33 64
        E 0 90 4b 64
        E 0 90 63 64 1
        E 120 80 33 00
        E 0 80 4b 00
        E 0 80 63 00 1
        E 120 90 4c 64
        E 0 90 64 64 1
        E 120 80 4c 00
        E 0 80 64 00 1
        E 120 90 19 6b
        E 0 90 31 6b
        E 0 90 49 6b
        E 0 90 61 6b 1
        E 120 80 19 00
        E 0 80 31 00
        E 0 80 49 00
        E 0 80 61 00 1
        E 120 90 4a 6a
        E 0 90 62 6a 1
        E 120 80 4a 00
        E 0 80 62 00 1
        E 120 90 33 64
        E 0 90 4b 64
        E 0 90 63 64 1
        E 120 80 33 00
        E 0 80 4b 00
        E 0 80 63 00 1
        E 120 90 4c 64
        E 0 90 64 64 1
        E 120 80 4c 00
        E 0 80 64 00 1
        E 120 90 19 6b
        E 0 90 31 6b
        E 0 90 49 6b
        E 0 90 61 6b 1
        E 120 80 19 00
        E 0 80 31 00
        E 0 80 49 00
        E 0 80 61 00 1
        E 120 90 4a 6a
        E 0 90 62 6a 1
        E 120 80 4a 00
        E 0 80 62 00 1
        E 120 90 33 64
        E 0 90 4b 64
        E 0 90 63 64 1
        E 120 80 33 00
        E 0 80 4b 00
        E 0 80 63 00 1
        E 120 90 4c 64
        E 0 90 64 64 1
        E 120 80 50 00
        E 0 80 68 00 1
        E 0 80 4c 00
        E 0 80 64 00 1
        <X 120 0
          /wFbY2hyZDMgRW08Z3RyPmFkZCAxMTwvZ3RyPl0=
        >
        E 0 80 74 00
        E 0 90 19 6b
        E 0 90 31 6b
        E 0 90 49 6b
        E 0 90 50 64
        E 0 90 61 6b
        E 0 90 68 64
        E 0 91 4a 6b
        E 0 91 4b 64
        E 0 91 4c 64
        E 0 91 62 6b
        E 0 91 63 64
        E 0 91 64 64
        E 120 80 19 00
        E 0 80 31 00
        E 0 80 49 00
        E 0 80 61 00
        E 0 81 4a 00
        E 0 81 4b 00
        E 0 81 4c 00
        E 0 81 62 00
        E 0 81 63 00
        E 0 81 64 00
        E 120 90 4a 6b
        E 0 90 62 6b
        E 120 80 4a 00
        E 0 80 62 00
        E 120 90 33 64
        E 0 90 4b 64
        E 0 90 63 64
        E 120 80 33 00
        E 0 80 4b 00
        E 0 80 63 00
        E 120 90 4c 64
        E 0 90 64 64
        E 120 80 4c 00
        E 0 80 64 00
        E 120 90 19 6b
        E 0 90 31 6b
        E 0 90 49 6b
        E 0 90 61 6b
        E 120 80 19 00
        E 0 80 31 00
        E 0 80 49 00
        E 0 80 61 00
        E 120 90 4a 6b
        E 0 90 62 6b
        E 120 80 4a 00
        E 0 80 62 00
        E 120 90 33 64
        E 0 90 4b 64
        E 0 90 63 64
        E 120 80 33 00
        E 0 80 4b 00
        E 0 80 63 00
        E 120 90 4c 64
        E 0 90 64 64
        E 120 80 4c 00
        E 0 80 64 00
        E 120 90 19 6b
        E 0 90 31 6b
        E 0 90 49 6b
        E 0 90 61 6b
        E 120 80 19 00
        E 0 80 31 00
        E 0 80 49 00
        E 0 80 61 00
        E 120 90 4a 6b
        E 0 90 62 6b
        E 120 80 4a 00
        E 0 80 62 00
        E 120 90 33 64
        E 0 90 4b 64
        E 0 90 63 64
        E 120 80 33 00
        E 0 80 4b 00
        E 0 80 63 00
        E 120 90 4c 64
        E 0 90 64 64
        E 120 80 4c 00
        E 0 80 64 00
        E 120 90 19 6b
        E 0 90 31 6b
        E 0 90 49 6b
        E 0 90 61 6b
        E 120 80 19 00
        E 0 80 31 00
        E 0 80 49 00
        E 0 80 61 00
        E 120 90 4a 6b
        E 0 90 62 6b
        E 120 80 4a 00
        E 0 80 62 00
        E 120 90 33 64
        E 0 90 4b 64
        E 0 90 63 64
        E 120 80 33 00
        E 0 80 4b 00
        E 0 80 63 00
        E 120 90 4c 64
        E 0 90 64 64
        E 120 80 50 00
        E 0 80 68 00
        E 0 80 4c 00
        E 0 80 64 00
        <X 120 0
          /wFbY2hyZDMgRTxndHI+Izk8L2d0cj5d
        >
        E 0 90 19 6b
        E 0 90 31 6b
        E 0 90 49 6b
        E 0 90 50 64
        E 0 90 61 6b
        E 0 90 68 64 1
        E 0 91 4a 6a
        E 0 91 4b 64
        E 0 91 4c 64
        E 0 91 62 6a
        E 0 91 63 64
        E 0 91 64 64
        E 120 80 19 00
        E 0 80 31 00
        E 0 80 49 00
        E 0 80 61 00 1
        E 0 81 4a 00
        E 0 81 4b 00
        E 0 81 4c 00
        E 0 81 62 00 1
        E 0 81 63 00 1
        E 0 81 64 00 1
        E 120 90 4a 6a
        E 0 90 62 6a
        E 120 80 4a 00
        E 0 80 62 00 1
        E 120 90 33 64
        E 0 90 4b 64
        E 0 90 63 64 1
        E 120 80 33 00
        E 0 80 4b 00
        E 0 80 63 00 1
        E 120 90 4c 64
        E 0 90 64 64 1
        E 120 80 4c 00
        E 0 80 64 00 1
        E 120 90 19 6b
        E 0 90 31 6b
        E 0 90 49 6b
        E 0 90 61 6b 1
        E 120 80 19 00
        E 0 80 31 00
        E 0 80 49 00
        E 0 80 61 00 1
        E 120 90 4a 6a
        E 0 90 62 6a 1
        E 120 80 4a 00
        E 0 80 62 00 1
        E 120 90 33 64
        E 0 90 4b 64
        E 0 90 63 64 1
        E 120 80 33 00
        E 0 80 4b 00
        E 0 80 63 00 1
        E 120 90 4c 64
        E 0 90 64 64 1
        E 120 80 4c 00
        E 0 80 64 00 1
        E 120 90 19 6b
        E 0 90 31 6b
        E 0 90 49 6b
        E 0 90 61 6b 1
        E 120 80 19 00
        E 0 80 31 00
        E 0 80 49 00
        E 0 80 61 00 1
        E 120 90 4a 6a
        E 0 90 62 6a 1
        E 120 80 4a 00
        E 0 80 62 00 1
        E 120 90 33 64
        E 0 90 4b 64
        E 0 90 63 64 1
        E 120 80 33 00
        E 0 80 4b 00
        E 0 80 63 00 1
        E 120 90 4c 64
        E 0 90 64 64 1
        E 120 80 4c 00
        E 0 80 64 00 1
        E 120 90 19 6b
        E 0 90 31 6b
        E 0 90 49 6b
        E 0 90 61 6b 1
        E 120 80 19 00
        E 0 80 31 00
        E 0 80 49 00
        E 0 80 61 00 1
        E 120 90 4a 6a
        E 0 90 62 6a 1
        E 120 80 4a 00
        E 0 80 62 00 1
        E 120 90 33 64
        E 0 90 4b 64
        E 0 90 63 64 1
        E 120 80 33 00
        E 0 80 4b 00
        E 0 80 63 00 1
        E 120 90 4c 64
        E 0 90 64 64 1
        E 120 80 4c 00
        E 0 80 64 00 1
        E 120 90 19 6b
        E 0 90 31 6b
        E 0 90 49 6b
        E 0 90 61 6b
        E 120 80 19 00
        E 0 80 31 00
        E 0 80 49 00
        E 0 80 61 00
        E 120 90 4a 6a
        E 0 90 62 6a
        E 120 80 4a 00
        E 0 80 62 00
        E 120 90 33 64
        E 0 90 4b 64
        E 0 90 63 64
        E 120 80 33 00
        E 0 80 4b 00
        E 0 80 63 00
        E 120 90 4c 64
        E 0 90 64 64
        E 120 80 4c 00
        E 0 80 64 00
        E 120 90 19 6b
        E 0 90 31 6b
        E 0 90 49 6b
        E 0 90 61 6b
        E 120 80 19 00
        E 0 80 31 00
        E 0 80 49 00
        E 0 80 61 00
        E 120 90 4a 6a
        E 0 90 62 6a
        E 120 80 4a 00
        E 0 80 62 00
        E 120 90 31 6b
        E 0 90 49 6b
        E 0 90 61 6b
        E 120 80 31 00
        E 0 80 49 00
        E 0 80 61 00
        E 120 90 4a 6a
        E 0 90 62 6a
        E 120 80 4a 00
        E 0 80 62 00
        E 120 90 1b 64
        E 0 90 33 64
        E 0 90 4b 64
        E 0 90 63 64
        E 120 80 1b 00
        E 0 80 33 00
        E 0 80 4b 00
        E 0 80 63 00
        E 120 90 4c 64
        E 0 90 64 64
        E 120 80 4c 00
        E 0 80 64 00
        E 120 90 33 64
        E 0 90 4b 64
        E 0 90 63 64
        E 120 80 33 00
        E 0 80 4b 00
        E 0 80 63 00
        E 120 90 49 6b
        E 0 90 61 6b
        E 120 80 49 00
        E 0 80 61 00
        E 120 90 1a 6a
        E 0 90 32 6a
        E 0 90 4a 6a
        E 0 90 62 6a
        E 120 80 1a 00
        E 0 80 32 00
        E 0 80 4a 00
        E 0 80 62 00
        E 120 90 4b 64
        E 0 90 63 64
        E 120 80 4b 00
        E 0 80 63 00
        E 120 90 1c 64
        E 0 90 34 64
        E 0 90 4c 64
        E 0 90 64 64
        E 120 80 1c 00
        E 0 80 34 00
        E 0 80 4c 00
        E 0 80 64 00
        E 120 90 4b 64
        E 0 90 63 64
        E 120 80 4b 00
        E 0 80 63 00
        e 120 80 12 00
        E 0 80 50 00 -1
        E 0 80 68 00
        E 1920 b0 7b 00
        GUID {C65D8AD9-BA2A-489D-A3A1-AA047F4A3CF4}
        IGNTEMPO 0 120.00000000 4 4
        SRCCOLOR 3
        VELLANE 132 100 0
        COLORMAP "C:\Users\Ruggery\AppData\Roaming\Reaper\Data\color_maps\rockband_proguitarbass.png"
        TEXTSTRINGFILE "C:\Program Files (x86)\REAPER\Data\Text_Strings\Text Events List - Pro Trainers.txt"
        CFGEDITVIEW 70848.276474 0.090677 37 12 0 0 0
        CFGEDIT 1 1 0 1 1 0 1 1 1 1 1 0.25000000 53 44 1253 718 0 2 0 2 0.00000000 0 1 0 0 0.500000 0 0 1.000000 64
        KEYSNAP 0 0 "100304450070" 0 "Blues"
        EVTFILTER 0 -1 -1 -1 -1 0 1 0 0 -1.00000000 -1.00000000
      >
    >
  >
  <TRACK '{055417B2-D5B8-4E5C-B826-7A0F1FF2091B}'
    NAME "PART VOCALS"
    PEAKCOL 16576
    BEAT -1
    AUTOMODE 0
    VOLPAN 1.00000000000000 0.00000000000000 -1.00000000000000 -1.00000000000000 1.00000000000000
    MUTESOLO 0 0 0
    IPHASE 0
    ISBUS 0 0
    BUSCOMP 0 0
    SHOWINMIX 1 0.666700 0.500000 1 0.500000 -1 -1 -1
    FREEMODE 0
    SEL 0
    REC 0 0 0 0 0 0 0
    VU 2
    TRACKHEIGHT 0 0
    INQ 0 0 0 0.5000000000 100 0 0 100
    NCHAN 2
    FX 0
    TRACKID {055417B2-D5B8-4E5C-B826-7A0F1FF2091B}
    PERF 0
    MIDIOUT -1
    <MIDINOTENAMES
      0 116 "OVERDRIVE"
      0 115 "----"
      0 105 "Phrase Marker"
      0 104 "----"
      0 97 "Non-Displayed Percussion"
      0 96 "Displayed Percussion"
      0 95 "----"
      0 84 "UNUSED C5 Note"
      0 83 "Highest Note B4"
      0 82 "A#4"
      0 81 "A4"
      0 80 "G#4"
      0 79 "G4"
      0 78 "F#4"
      0 77 "F4"
      0 76 "E4"
      0 75 "D#4"
      0 74 "D4"
      0 73 "C#4"
      0 72 "C4"
      0 71 "B3"
      0 70 "A#3"
      0 69 "A3"
      0 68 "G#3"
      0 67 "G3"
      0 66 "F#3"
      0 65 "F3"
      0 64 "E3"
      0 63 "D#3"
      0 62 "D3"
      0 61 "C#3"
      0 60 "C3"
      0 59 "B2"
      0 58 "A#2"
      0 57 "A2"
      0 56 "G#2"
      0 55 "G2"
      0 54 "F#2"
      0 53 "F2"
      0 52 "E2"
      0 51 "D#2"
      0 50 "D2"
      0 49 "C#2"
      0 48 "C2"
      0 47 "B1"
      0 46 "A#1"
      0 45 "A1"
      0 44 "G#1"
      0 43 "G1"
      0 42 "F#1"
      0 41 "F1"
      0 40 "E1"
      0 39 "D#1"
      0 38 "D!"
      0 37 "C#1"
      0 36 "Lowest Note C1"
      0 2 "---"
      0 1 "Lyric Shift"
      0 0 "Range Shift"
    >
    MAINSEND 1 0
    <FXCHAIN
      WNDRECT 691 70 716 467
      SHOW 0
      LASTSEL 1
      DOCKED 0
      BYPASS 0 0
      <JS "MIDI/midi_note_filter" ""
        36.000000 84.000000 - - - - - - - - - - - - - - - - - - - - - - - - - - - - - - - - - - - - - - - - - - - - - - - - - - - - - - - - - - - - - - 
      >
      FLOATPOS 0 0 0 0
      FXID {479C0C31-DE94-415F-84A0-CC4AFC80D718}
      WAK 0
      BYPASS 0 0
      <VST "VSTi: ReaSynth (Cockos)" "reasynth.dll" 0 ""
        eXNlcu9e7f4AAAAAAgAAAAEAAAAAAAAAAgAAAAAAAAA4AAAAAAAAAA==
        AAAQAO++rd4N8K3eppvEOxe30ToAAAAAAAAAAAAAAABuA8w+6WeIPQ==
        AAAAAAAAAD8AAIA/AACAP7y7Az8AABAAAAA=
      >
      FLOATPOS 0 0 0 0
      FXID {60B9A53B-98C9-4C66-BC5E-342F74833AFD}
      WAK 0
    >
    <ITEM
      POSITION 0.00000000000000
      SNAPOFFS 0.00000000000000
      LENGTH 85.06693645507892
      LOOP 0
      ALLTAKES 0
      SEL 0
      FADEIN 1 0.000000 0.000000 1 0
      FADEOUT 1 0.000000 0.000000 1 0
      MUTE 0
      IGUID {2B9C7699-85DE-4B5F-8169-575C78056DAC}
      IID 2
      NAME "PART VOCALS"
      VOLPAN 1.000000 0.000000 1.000000 -1.000000
      SOFFS 0.00000000000000 0.00000000000000
      PLAYRATE 1.00000000000000 1 0.00000000000000 -1
      CHANMODE 0
      GUID {78EA9469-B701-40A0-B647-5D3E52B5A95E}
      <SOURCE MIDI
        HASDATA 1 480 QN
        POOLEDEVTS {A2F1E887-409F-4224-81E7-80C5CDF8D196}
        <X 0 0
          /wNQQVJUIFZPQ0FMUw==
        >
        <X 3840 0
          /wFbaWRsZV0=
        >
        <X 3840 0
          /wFbbWVsbG93XQ==
        >
        E 0 90 69 60
        E 0 90 74 60
        <X 510 0
          /wVBLQ==
        >
        E 0 90 44 60
        E 270 80 44 00
        <X 60 0
          /wVyYS0=
        >
        E 0 90 46 60
        E 240 80 46 00
        <X 120 0
          /wXDp8OhwqdhLQ==
        >
        E 0 90 49 60
        E 270 80 49 00
        <X 90 0
          /wUr
        >
        E 0 90 48 60
        E 240 80 48 00
        <X 120 0
          /wV6dWw=
        >
        E 0 90 44 60
        E 1050 80 44 00
        E 30 90 01 60
        E 30 80 01 00
        <X 30 0
          /wXp
        >
        E 0 90 44 60
        E 180 80 44 00
        <X 210 0
          /wVzby0=
        >
        E 0 90 44 60
        E 330 80 44 00
        <X 60 0
          /wVuaG8=
        >
        E 0 90 44 60
        E 240 80 44 00
        <X 120 0
          /wVzZS0=
        >
        E 0 90 3f 60
        E 120 80 3f 00
        <X 210 0
          /wVncmUt
        >
        E 0 90 43 60
        E 390 80 43 00
        <X 180 0
          /wUr
        >
        E 0 90 41 60
        E 90 80 41 00
        <X 210 0
          /wVkbw==
        >
        E 0 90 3f 60
        E 780 80 3f 00
        <X 420 0
          /wFbaWRsZV0=
        >
        E 120 80 69 00
        E 0 80 74 00
        <X 3240 0
          /wFbbWVsbG93XQ==
        >
        E 120 90 69 60
        E 0 90 74 60
        <X 180 0
          /wVO428=
        >
        E 0 90 44 60
        E 180 80 44 00
        <X 180 0
          /wXp
        >
        E 0 90 48 60
        E 150 80 48 00
        <X 270 0
          /wVzZS0=
        >
        E 0 90 4b 60
        E 120 80 4b 00
        <X 120 0
          /wVncmUt
        >
        E 0 90 4b 60
        E 2700 80 4b 00
        <X 90 0
          /wVkbw==
        >
        E 0 90 4b 60
        E 180 80 4b 00
        E 150 80 69 00
        E 0 80 74 00
        E 1440 90 69 60
        <X 390 0
          /wVBLQ==
        >
        E 0 90 44 60
        E 210 80 44 00
        <X 90 0
          /wVyYS0=
        >
        E 0 90 46 60
        E 210 80 46 00
        <X 120 0
          /wXn4adhLQ==
        >
        E 0 90 49 60
        E 330 80 49 00
        <X 60 0
          /wUr
        >
        E 0 90 48 60
        E 210 80 48 00
        <X 150 0
          /wV6dWw=
        >
        E 0 90 44 60
        E 930 80 44 00
        <X 180 0
          /wVmaS0=
        >
        E 0 90 44 60
        E 150 80 44 00
        <X 180 0
          /wVjYQ==
        >
        E 0 90 3f 60
        E 90 80 3f 00
        <X 240 0
          /wVzZW4t
        >
        E 0 90 43 60
        E 420 80 43 00
        <X 150 0
          /wUr
        >
        E 0 90 41 60
        E 60 80 41 00
        <X 210 0
          /wVkbw==
        >
        E 0 90 3f 60
        E 630 80 3f 00
        <X 270 0
          /wFbaWRsZV0=
        >
        E 0 80 69 00
        <X 2880 0
          /wFbbWVsbG93XQ==
        >
        E 0 90 69 60
        E 0 90 74 60
        <X 180 0
          /wVP
        >
        E 0 90 44 60
        E 120 80 44 00
        <X 210 0
          /wVuby0=
        >
        E 0 90 44 60
        E 240 80 44 00
        <X 120 0
          /wVtZQ==
        >
        E 0 90 44 60
        E 180 80 44 00
        <X 180 0
          /wVtYWlz
        >
        E 0 90 44 60
        E 180 80 44 00
        <X 270 0
          /wViZS0=
        >
        E 0 90 44 60
        E 330 80 44 00
        <X 120 0
          /wVsbw==
        >
        E 0 90 48 60
        E 120 80 48 00
        <X 150 0
          /wVkbw==
        >
        E 0 90 4b 60
        E 150 80 4b 00
        <X 210 0
          /wVtZS0=
        >
        E 0 90 4b 60
        E 1710 80 4b 00
        <X 60 0
          /wVkbw==
        >
        E 0 90 4b 60
        E 330 80 4b 00
        E 420 80 69 00
        E 0 80 74 00 30
        <X 480 0
          /wFbcGxheV0=
        >
        E 0 90 69 60
        <X 270 0
          /wVDb20=
        >
        E 0 90 46 60
        E 180 80 46 00
        <X 150 0
          /wVm6Q==
        >
        E 0 90 4b 60
        E 270 80 4b 00
        <X 60 0
          /wVlbQ==
        >
        E 0 90 4a 60
        E 180 80 4a 00
        <X 150 0
          /wVEZXVz
        >
        E 0 90 46 60
        E 1050 80 46 00
        E 90 90 01 60
        E 30 80 01 00
        <X 240 0
          /wVldQ==
        >
        E 0 90 44 60
        E 150 80 44 00
        <X 60 0
          /wVu428=
        >
        E 0 90 46 60
        E 150 80 46 00
        <X 120 0
          /wV2b3U=
        >
        E 0 90 48 60
        E 300 80 48 00
        <X 90 0
          /wVtb3It
        >
        E 0 90 46 60
        E 120 80 46 00
        <X 90 0
          /wVyZXI=
        >
        E 0 90 44 60
        E 540 80 44 00
        <X 180 0
          /wV0428=
        >
        E 0 90 3f 60
        E 150 80 3f 00
        <X 150 0
          /wVjZQ==
        >
        E 0 90 43 60
        E 300 80 43 00
        <X 390 0
          /wUr
        >
        E 0 90 41 60
        E 60 80 41 00
        <X 180 0
          /wVkbw==
        >
        E 0 90 3f 60
        E 900 80 3f 00
        E 120 80 69 00
        E 960 90 69 60
        E 0 90 74 60
        <X 240 0
          /wVDb20=
        >
        E 0 90 46 60
        E 180 80 46 00
        <X 180 0
          /wVm6Q==
        >
        E 0 90 4b 60
        E 270 80 4b 00
        <X 60 0
          /wVlbQ==
        >
        E 0 90 4a 60
        E 120 80 4a 00
        <X 90 0
          /wVEZXVz
        >
        E 0 90 46 60
        E 1050 80 46 00
        E 210 90 01 60
        E 30 80 01 00
        <X 150 0
          /wVldQ==
        >
        E 0 90 44 60
        E 150 80 44 00
        <X 90 0
          /wVu428=
        >
        E 0 90 46 60
        E 150 80 46 00
        <X 150 0
          /wV2b3U=
        >
        E 0 90 48 60
        E 240 80 48 00
        <X 150 0
          /wVtb3It
        >
        E 0 90 46 60
        E 120 80 46 00
        <X 90 0
          /wVyZXI=
        >
        E 0 90 44 60
        E 540 80 44 00
        <X 150 0
          /wV0428=
        >
        E 0 90 3f 60
        E 150 80 3f 00
        <X 180 0
          /wVjZQ==
        >
        E 0 90 43 60
        E 240 80 43 00
        <X 450 0
          /wUr
        >
        E 0 90 41 60
        E 60 80 41 00
        <X 210 0
          /wVkbw==
        >
        E 0 90 3f 60
        E 750 80 3f 00
        E 270 80 69 00
        E 0 80 74 00
        E 480 90 69 60
        <X 510 0
          /wVDb20=
        >
        E 0 90 46 60
        E 210 80 46 00
        <X 90 0
          /wVm6Q==
        >
        E 0 90 4b 60
        E 270 80 4b 00
        <X 60 0
          /wVlbQ==
        >
        E 0 90 4a 60
        E 150 80 4a 00
        <X 150 0
          /wVEZXVz
        >
        E 0 90 46 60
        E 1200 80 46 00
        E 240 90 01 60
        E 30 80 01 00
        <X 150 0
          /wVldQ==
        >
        E 0 90 44 60
        E 150 80 44 00
        <X 60 0
          /wVu428=
        >
        E 0 90 46 60
        E 120 80 46 00
        <X 150 0
          /wV2b3U=
        >
        E 0 90 48 60
        E 180 80 48 00
        <X 150 0
          /wVtb3It
        >
        E 0 90 46 60
        E 120 80 46 00
        <X 90 0
          /wVyZXI=
        >
        E 0 90 44 60
        E 540 80 44 00
        <X 210 0
          /wV0428=
        >
        E 0 90 3f 60
        E 240 80 3f 00
        <X 120 0
          /wVjZQ==
        >
        E 0 90 43 60
        E 330 80 43 00
        <X 390 0
          /wUr
        >
        E 0 90 41 60
        E 60 80 41 00
        <X 120 0
          /wVkbw==
        >
        E 0 90 3f 60
        E 900 80 3f 00
        <X 210 0
          /wFbaWRsZV0=
        >
        E 0 80 69 00
        E 1920 90 69 60
        <X 240 0
          /wFbbWVsbG93XQ==
        >
        <X 270 0
          /wVBLQ==
        >
        E 0 90 44 60
        E 180 80 44 00
        <X 120 0
          /wVyYS0=
        >
        E 0 90 46 60
        E 180 80 46 00
        <X 180 0
          /wXDp8OhwqdhLQ==
        >
        E 0 90 49 60
        E 300 80 49 00
        <X 90 0
          /wUr
        >
        E 0 90 48 60
        E 240 80 48 00
        <X 180 0
          /wV6dWw=
        >
        E 0 90 44 60
        E 960 80 44 00
        <X 150 0
          /wXp
        >
        E 0 90 44 60
        E 180 80 44 00
        <X 120 0
          /wVicmluLQ==
        >
        E 0 90 3f 60
        E 150 80 3f 00
        <X 180 0
          /wVxdWUt
        >
        E 0 90 43 60
        E 300 80 43 00
        <X 360 0
          /wUr
        >
        E 0 90 41 60
        E 60 80 41 00
        <X 210 0
          /wVkbw==
        >
        E 0 90 3f 60
        E 720 80 3f 00
        <X 390 0
          /wFbaWRsZV0=
        >
        E 0 80 69 00
        <X 2880 0
          /wFbaWRsZV9yZWFsdGltZV0=
        >
        E 4800 b0 7b 00
        GUID {99151C5C-E414-4A9E-81AF-CF6A76D64E7B}
        IGNTEMPO 0 120.00000000 4 4
        SRCCOLOR 0
        VELLANE 132 100 0
        COLORMAP "C:\Program Files (x86)\REAPER\Data\color_maps\rockband_guitarbass.png"
        CFGEDITVIEW -3744.000000 0.012517 0 12 0 0 0
        CFGEDIT 1 1 0 1 1 0 1 1 1 1 1 0.06250000 231 66 1431 740 0 2 0 2 0.00000000 0 1 0 0 0.500000 0 0 1.000000 64
        KEYSNAP 0 0 "100304450070" 0 "Blues"
        EVTFILTER 0 -1 -1 -1 -1 0 1 0 0 -1.00000000 -1.00000000
      >
    >
  >
  <TRACK '{61B1FC02-2BB0-414C-9AB5-EC7D1C449920}'
    NAME "HARM1"
    PEAKCOL 16576
    BEAT -1
    AUTOMODE 0
    VOLPAN 1.00000000000000 0.00000000000000 -1.00000000000000 -1.00000000000000 1.00000000000000
    MUTESOLO 0 0 0
    IPHASE 0
    ISBUS 0 0
    BUSCOMP 0 0
    SHOWINMIX 1 0.666700 0.500000 1 0.500000 -1 -1 -1
    FREEMODE 0
    SEL 0
    REC 0 0 0 0 0 0 0
    VU 2
    TRACKHEIGHT 0 0
    INQ 0 0 0 0.5000000000 100 0 0 100
    NCHAN 2
    FX 0
    TRACKID {61B1FC02-2BB0-414C-9AB5-EC7D1C449920}
    PERF 0
    MIDIOUT -1
    <MIDINOTENAMES
      0 116 "OVERDRIVE"
      0 115 "----"
      0 105 "Phrase Marker"
      0 104 "----"
      0 97 "Non-Displayed Percussion"
      0 96 "Displayed Percussion"
      0 95 "----"
      0 84 "UNUSED C5 Note"
      0 83 "Highest Note B4"
      0 82 "A#4"
      0 81 "A4"
      0 80 "G#4"
      0 79 "G4"
      0 78 "F#4"
      0 77 "F4"
      0 76 "E4"
      0 75 "D#4"
      0 74 "D4"
      0 73 "C#4"
      0 72 "C4"
      0 71 "B3"
      0 70 "A#3"
      0 69 "A3"
      0 68 "G#3"
      0 67 "G3"
      0 66 "F#3"
      0 65 "F3"
      0 64 "E3"
      0 63 "D#3"
      0 62 "D3"
      0 61 "C#3"
      0 60 "C3"
      0 59 "B2"
      0 58 "A#2"
      0 57 "A2"
      0 56 "G#2"
      0 55 "G2"
      0 54 "F#2"
      0 53 "F2"
      0 52 "E2"
      0 51 "D#2"
      0 50 "D2"
      0 49 "C#2"
      0 48 "C2"
      0 47 "B1"
      0 46 "A#1"
      0 45 "A1"
      0 44 "G#1"
      0 43 "G1"
      0 42 "F#1"
      0 41 "F1"
      0 40 "E1"
      0 39 "D#1"
      0 38 "D!"
      0 37 "C#1"
      0 36 "Lowest Note C1"
      0 2 "---"
      0 1 "Lyric Shift"
      0 0 "Range Shift"
    >
    MAINSEND 1 0
    <FXCHAIN
      WNDRECT 691 70 716 467
      SHOW 0
      LASTSEL 1
      DOCKED 0
      BYPASS 0 0
      <JS "MIDI/midi_note_filter" ""
        36.000000 84.000000 - - - - - - - - - - - - - - - - - - - - - - - - - - - - - - - - - - - - - - - - - - - - - - - - - - - - - - - - - - - - - - 
      >
      FLOATPOS 0 0 0 0
      FXID {479C0C31-DE94-415F-84A0-CC4AFC80D718}
      WAK 0
      BYPASS 0 0
      <VST "VSTi: ReaSynth (Cockos)" "reasynth.dll" 0 ""
        eXNlcu9e7f4AAAAAAgAAAAEAAAAAAAAAAgAAAAAAAAA4AAAAAAAAAA==
        AAAQAO++rd4N8K3eppvEOxe30ToAAAAAAAAAAAAAAABuA8w+6WeIPQ==
        AAAAAAAAAD8AAIA/AACAP7y7Az8AABAAAAA=
      >
      FLOATPOS 0 0 0 0
      FXID {60B9A53B-98C9-4C66-BC5E-342F74833AFD}
      WAK 0
    >
    <ITEM
      POSITION 0.00000000000000
      SNAPOFFS 0.00000000000000
      LENGTH 85.06693645507892
      LOOP 0
      ALLTAKES 0
      SEL 0
      FADEIN 1 0.000000 0.000000 1 0
      FADEOUT 1 0.000000 0.000000 1 0
      MUTE 0
      IGUID {2B9C7699-85DE-4B5F-8169-575C78056DAC}
      IID 2
      NAME "HARM1"
      VOLPAN 1.000000 0.000000 1.000000 -1.000000
      SOFFS 0.00000000000000 0.00000000000000
      PLAYRATE 1.00000000000000 1 0.00000000000000 -1
      CHANMODE 0
      GUID {78EA9469-B701-40A0-B647-5D3E52B5A95E}
      <SOURCE MIDI
        HASDATA 1 480 QN
        POOLEDEVTS {78E3C974-C01A-45F7-8332-3DAA9B7FDDC7}
        <X 0 0
          /wNIQVJNMQ==
        >
        <X 3840 0
          /wFbaWRsZV0=
        >
        <X 3840 0
          /wFbbWVsbG93XQ==
        >
        E 0 90 69 60
        E 0 90 74 60
        <X 510 0
          /wVBLQ==
        >
        E 0 90 44 60
        E 270 80 44 00
        <X 60 0
          /wVyYS0=
        >
        E 0 90 46 60
        E 240 80 46 00
        <X 120 0
          /wXDp8OhwqdhLQ==
        >
        E 0 90 49 60
        E 270 80 49 00
        <X 90 0
          /wUr
        >
        E 0 90 48 60
        E 240 80 48 00
        <X 120 0
          /wV6dWw=
        >
        E 0 90 44 60
        E 1050 80 44 00
        E 30 90 01 60
        E 30 80 01 00
        <X 30 0
          /wXp
        >
        E 0 90 44 60
        E 180 80 44 00
        <X 210 0
          /wVzby0=
        >
        E 0 90 44 60
        E 330 80 44 00
        <X 60 0
          /wVuaG8=
        >
        E 0 90 44 60
        E 240 80 44 00
        <X 120 0
          /wVzZS0=
        >
        E 0 90 3f 60
        E 120 80 3f 00
        <X 210 0
          /wVncmUt
        >
        E 0 90 43 60
        E 390 80 43 00
        <X 180 0
          /wUr
        >
        E 0 90 41 60
        E 90 80 41 00
        <X 210 0
          /wVkbw==
        >
        E 0 90 3f 60
        E 780 80 3f 00
        <X 420 0
          /wFbaWRsZV0=
        >
        E 120 80 69 00
        E 0 80 74 00
        <X 3240 0
          /wFbbWVsbG93XQ==
        >
        E 120 90 69 60
        E 0 90 74 60
        <X 180 0
          /wVO428=
        >
        E 0 90 44 60
        E 180 80 44 00
        <X 180 0
          /wXp
        >
        E 0 90 48 60
        E 150 80 48 00
        <X 270 0
          /wVzZS0=
        >
        E 0 90 4b 60
        E 120 80 4b 00
        <X 120 0
          /wVncmUt
        >
        E 0 90 4b 60
        E 2700 80 4b 00
        <X 90 0
          /wVkbw==
        >
        E 0 90 4b 60
        E 180 80 4b 00
        E 150 80 69 00
        E 0 80 74 00
        E 1440 90 69 60
        <X 390 0
          /wVBLQ==
        >
        E 0 90 44 60
        E 210 80 44 00
        <X 90 0
          /wVyYS0=
        >
        E 0 90 46 60
        E 210 80 46 00
        <X 120 0
          /wXn4adhLQ==
        >
        E 0 90 49 60
        E 330 80 49 00
        <X 60 0
          /wUr
        >
        E 0 90 48 60
        E 210 80 48 00
        <X 150 0
          /wV6dWw=
        >
        E 0 90 44 60
        E 930 80 44 00
        <X 180 0
          /wVmaS0=
        >
        E 0 90 44 60
        E 150 80 44 00
        <X 180 0
          /wVjYQ==
        >
        E 0 90 3f 60
        E 90 80 3f 00
        <X 240 0
          /wVzZW4t
        >
        E 0 90 43 60
        E 420 80 43 00
        <X 150 0
          /wUr
        >
        E 0 90 41 60
        E 60 80 41 00
        <X 210 0
          /wVkbw==
        >
        E 0 90 3f 60
        E 630 80 3f 00
        <X 270 0
          /wFbaWRsZV0=
        >
        E 0 80 69 00
        <X 2880 0
          /wFbbWVsbG93XQ==
        >
        E 0 90 69 60
        E 0 90 74 60
        <X 180 0
          /wVP
        >
        E 0 90 44 60
        E 120 80 44 00
        <X 210 0
          /wVuby0=
        >
        E 0 90 44 60
        E 240 80 44 00
        <X 120 0
          /wVtZQ==
        >
        E 0 90 44 60
        E 180 80 44 00
        <X 180 0
          /wVtYWlz
        >
        E 0 90 44 60
        E 180 80 44 00
        <X 270 0
          /wViZS0=
        >
        E 0 90 44 60
        E 330 80 44 00
        <X 120 0
          /wVsbw==
        >
        E 0 90 48 60
        E 120 80 48 00
        <X 150 0
          /wVkbw==
        >
        E 0 90 4b 60
        E 150 80 4b 00
        <X 210 0
          /wVtZS0=
        >
        E 0 90 4b 60
        E 1710 80 4b 00
        <X 60 0
          /wVkbw==
        >
        E 0 90 4b 60
        E 330 80 4b 00
        E 420 80 69 00
        E 0 80 74 00 30
        <X 480 0
          /wFbcGxheV0=
        >
        E 0 90 69 60
        <X 270 0
          /wVDb20=
        >
        E 0 90 46 60
        E 180 80 46 00
        <X 150 0
          /wVm6Q==
        >
        E 0 90 4b 60
        E 270 80 4b 00
        <X 60 0
          /wVlbQ==
        >
        E 0 90 4a 60
        E 180 80 4a 00
        <X 150 0
          /wVEZXVz
        >
        E 0 90 46 60
        E 1050 80 46 00
        E 90 90 01 60
        E 30 80 01 00
        <X 240 0
          /wVldQ==
        >
        E 0 90 44 60
        E 150 80 44 00
        <X 60 0
          /wVu428=
        >
        E 0 90 46 60
        E 150 80 46 00
        <X 120 0
          /wV2b3U=
        >
        E 0 90 48 60
        E 300 80 48 00
        <X 90 0
          /wVtb3It
        >
        E 0 90 46 60
        E 120 80 46 00
        <X 90 0
          /wVyZXI=
        >
        E 0 90 44 60
        E 540 80 44 00
        <X 180 0
          /wV0428=
        >
        E 0 90 3f 60
        E 150 80 3f 00
        <X 150 0
          /wVjZQ==
        >
        E 0 90 43 60
        E 300 80 43 00
        <X 390 0
          /wUr
        >
        E 0 90 41 60
        E 60 80 41 00
        <X 180 0
          /wVkbw==
        >
        E 0 90 3f 60
        E 900 80 3f 00
        E 120 80 69 00
        E 960 90 69 60
        E 0 90 74 60
        <X 240 0
          /wVDb20=
        >
        E 0 90 46 60
        E 180 80 46 00
        <X 180 0
          /wVm6Q==
        >
        E 0 90 4b 60
        E 270 80 4b 00
        <X 60 0
          /wVlbQ==
        >
        E 0 90 4a 60
        E 120 80 4a 00
        <X 90 0
          /wVEZXVz
        >
        E 0 90 46 60
        E 1050 80 46 00
        E 210 90 01 60
        E 30 80 01 00
        <X 150 0
          /wVldQ==
        >
        E 0 90 44 60
        E 150 80 44 00
        <X 90 0
          /wVu428=
        >
        E 0 90 46 60
        E 150 80 46 00
        <X 150 0
          /wV2b3U=
        >
        E 0 90 48 60
        E 240 80 48 00
        <X 150 0
          /wVtb3It
        >
        E 0 90 46 60
        E 120 80 46 00
        <X 90 0
          /wVyZXI=
        >
        E 0 90 44 60
        E 540 80 44 00
        <X 150 0
          /wV0428=
        >
        E 0 90 3f 60
        E 150 80 3f 00
        <X 180 0
          /wVjZQ==
        >
        E 0 90 43 60
        E 240 80 43 00
        <X 450 0
          /wUr
        >
        E 0 90 41 60
        E 60 80 41 00
        <X 210 0
          /wVkbw==
        >
        E 0 90 3f 60
        E 750 80 3f 00
        E 270 80 69 00
        E 0 80 74 00
        E 480 90 69 60
        <X 510 0
          /wVDb20=
        >
        E 0 90 46 60
        E 210 80 46 00
        <X 90 0
          /wVm6Q==
        >
        E 0 90 4b 60
        E 270 80 4b 00
        <X 60 0
          /wVlbQ==
        >
        E 0 90 4a 60
        E 150 80 4a 00
        <X 150 0
          /wVEZXVz
        >
        E 0 90 46 60
        E 1200 80 46 00
        E 240 90 01 60
        E 30 80 01 00
        <X 150 0
          /wVldQ==
        >
        E 0 90 44 60
        E 150 80 44 00
        <X 60 0
          /wVu428=
        >
        E 0 90 46 60
        E 120 80 46 00
        <X 150 0
          /wV2b3U=
        >
        E 0 90 48 60
        E 180 80 48 00
        <X 150 0
          /wVtb3It
        >
        E 0 90 46 60
        E 120 80 46 00
        <X 90 0
          /wVyZXI=
        >
        E 0 90 44 60
        E 540 80 44 00
        <X 210 0
          /wV0428=
        >
        E 0 90 3f 60
        E 240 80 3f 00
        <X 120 0
          /wVjZQ==
        >
        E 0 90 43 60
        E 330 80 43 00
        <X 390 0
          /wUr
        >
        E 0 90 41 60
        E 60 80 41 00
        <X 120 0
          /wVkbw==
        >
        E 0 90 3f 60
        E 900 80 3f 00
        <X 210 0
          /wFbaWRsZV0=
        >
        E 0 80 69 00
        E 1920 90 69 60
        <X 240 0
          /wFbbWVsbG93XQ==
        >
        <X 270 0
          /wVBLQ==
        >
        E 0 90 44 60
        E 180 80 44 00
        <X 120 0
          /wVyYS0=
        >
        E 0 90 46 60
        E 180 80 46 00
        <X 180 0
          /wXDp8OhwqdhLQ==
        >
        E 0 90 49 60
        E 300 80 49 00
        <X 90 0
          /wUr
        >
        E 0 90 48 60
        E 240 80 48 00
        <X 180 0
          /wV6dWw=
        >
        E 0 90 44 60
        E 960 80 44 00
        <X 150 0
          /wXp
        >
        E 0 90 44 60
        E 180 80 44 00
        <X 120 0
          /wVicmluLQ==
        >
        E 0 90 3f 60
        E 150 80 3f 00
        <X 180 0
          /wVxdWUt
        >
        E 0 90 43 60
        E 300 80 43 00
        <X 360 0
          /wUr
        >
        E 0 90 41 60
        E 60 80 41 00
        <X 210 0
          /wVkbw==
        >
        E 0 90 3f 60
        E 720 80 3f 00
        <X 390 0
          /wFbaWRsZV0=
        >
        E 0 80 69 00
        <X 2880 0
          /wFbaWRsZV9yZWFsdGltZV0=
        >
        E 4800 b0 7b 00
        GUID {99151C5C-E414-4A9E-81AF-CF6A76D64E7B}
        IGNTEMPO 0 120.00000000 4 4
        SRCCOLOR 0
        VELLANE 132 100 0
        COLORMAP "C:\Program Files (x86)\REAPER\Data\color_maps\rockband_guitarbass.png"
        CFGEDITVIEW -3744.000000 0.012517 0 12 0 0 0
        CFGEDIT 1 1 0 1 1 0 1 1 1 1 1 0.06250000 231 66 1431 740 0 2 0 2 0.00000000 0 1 0 0 0.500000 0 0 1.000000 64
        KEYSNAP 0 0 "100304450070" 0 "Blues"
        EVTFILTER 0 -1 -1 -1 -1 0 1 0 0 -1.00000000 -1.00000000
      >
    >
  >
  <TRACK '{677933FD-2789-40CA-9D37-863445E6AEDD}'
    NAME "HARM2"
    PEAKCOL 16576
    BEAT -1
    AUTOMODE 0
    VOLPAN 1.00000000000000 0.00000000000000 -1.00000000000000 -1.00000000000000 1.00000000000000
    MUTESOLO 0 0 0
    IPHASE 0
    ISBUS 0 0
    BUSCOMP 0 0
    SHOWINMIX 1 0.666700 0.500000 1 0.500000 -1 -1 -1
    FREEMODE 0
    SEL 0
    REC 0 0 0 0 0 0 0
    VU 2
    TRACKHEIGHT 0 0
    INQ 0 0 0 0.5000000000 100 0 0 100
    NCHAN 2
    FX 0
    TRACKID {677933FD-2789-40CA-9D37-863445E6AEDD}
    PERF 0
    MIDIOUT -1
    <MIDINOTENAMES
      0 105 "Phrase Marker"
      0 104 "----"
      0 84 "C6 (Unused Highest Note)"
      0 83 "B5"
      0 82 "A#4"
      0 81 "A4"
      0 80 "G#4"
      0 79 "G4"
      0 78 "F#4"
      0 77 "F4"
      0 76 "E4"
      0 75 "D#4"
      0 74 "D4"
      0 73 "C#4"
      0 72 "C4"
      0 71 "B3"
      0 70 "A#3"
      0 69 "A3"
      0 68 "G#3"
      0 67 "G3"
      0 66 "F#3"
      0 65 "F3"
      0 64 "E3"
      0 63 "D#3"
      0 62 "D3"
      0 61 "C#3"
      0 60 "C3"
      0 59 "B2"
      0 58 "A#2"
      0 57 "A2"
      0 56 "G#2"
      0 55 "G2"
      0 54 "F#2"
      0 53 "F2"
      0 52 "E2"
      0 51 "D#2"
      0 50 "D2"
      0 49 "C#2"
      0 48 "C2"
      0 47 "B1"
      0 46 "A#1"
      0 45 "A1"
      0 44 "G#1"
      0 43 "G1"
      0 42 "F#1"
      0 41 "F1"
      0 40 "E1"
      0 39 "D#1"
      0 38 "D1"
      0 37 "C#1"
      0 36 "Lowest Note C1"
    >
    MAINSEND 1 0
    <FXCHAIN
      WNDRECT 691 70 716 467
      SHOW 0
      LASTSEL 1
      DOCKED 0
      BYPASS 0 0
      <JS "MIDI/midi_note_filter" ""
        36.000000 84.000000 - - - - - - - - - - - - - - - - - - - - - - - - - - - - - - - - - - - - - - - - - - - - - - - - - - - - - - - - - - - - - - 
      >
      FLOATPOS 0 0 0 0
      FXID {479C0C31-DE94-415F-84A0-CC4AFC80D718}
      WAK 0
      BYPASS 0 0
      <VST "VSTi: ReaSynth (Cockos)" "reasynth.dll" 0 ""
        eXNlcu9e7f4AAAAAAgAAAAEAAAAAAAAAAgAAAAAAAAA4AAAAAAAAAA==
        AAAQAO++rd4N8K3eppvEOxe30ToAAAAAAAAAAAAAAABuA8w+6WeIPQ==
        AAAAAAAAAD8AAIA/AACAP7y7Az8AABAAAAA=
      >
      FLOATPOS 0 0 0 0
      FXID {60B9A53B-98C9-4C66-BC5E-342F74833AFD}
      WAK 0
    >
    <ITEM
      POSITION 0.00000000000000
      SNAPOFFS 0.00000000000000
      LENGTH 85.06693645507892
      LOOP 0
      ALLTAKES 0
      SEL 0
      FADEIN 1 0.000000 0.000000 1 0
      FADEOUT 1 0.000000 0.000000 1 0
      MUTE 0
      IGUID {2B9C7699-85DE-4B5F-8169-575C78056DAC}
      IID 2
      NAME "HARM2"
      VOLPAN 1.000000 0.000000 1.000000 -1.000000
      SOFFS 0.00000000000000 0.00000000000000
      PLAYRATE 1.00000000000000 1 0.00000000000000 -1
      CHANMODE 0
      GUID {78EA9469-B701-40A0-B647-5D3E52B5A95E}
      <SOURCE MIDI
        HASDATA 1 480 QN
        POOLEDEVTS {98C8BE67-7200-4B83-A6AB-43C14A753938}
        <X 0 0
          /wNIQVJNMg==
        >
        <X 3840 0
          /wFbaWRsZV0=
        >
        <X 3840 0
          /wFbbWVsbG93XQ==
        >
        E 0 90 69 60
        <X 510 0
          /wVBLQ==
        >
        E 0 90 44 60
        E 270 80 44 00
        <X 60 0
          /wVyYS0=
        >
        E 0 90 46 60
        E 240 80 46 00
        <X 120 0
          /wXDp8OhwqdhLQ==
        >
        E 0 90 49 60
        E 270 80 49 00
        <X 90 0
          /wUr
        >
        E 0 90 48 60
        E 240 80 48 00
        <X 120 0
          /wV6dWw=
        >
        E 0 90 44 60
        E 1050 80 44 00
        E 30 90 01 60
        E 30 80 01 00
        <X 30 0
          /wXp
        >
        E 0 90 44 60
        E 180 80 44 00
        <X 210 0
          /wVzby0=
        >
        E 0 90 44 60
        E 330 80 44 00
        <X 60 0
          /wVuaG8=
        >
        E 0 90 44 60
        E 240 80 44 00
        <X 120 0
          /wVzZS0=
        >
        E 0 90 3f 60
        E 120 80 3f 00
        <X 210 0
          /wVncmUt
        >
        E 0 90 43 60
        E 390 80 43 00
        <X 180 0
          /wUr
        >
        E 0 90 41 60
        E 90 80 41 00
        <X 210 0
          /wVkbw==
        >
        E 0 90 3f 60
        E 780 80 3f 00
        <X 420 0
          /wFbaWRsZV0=
        >
        E 120 80 69 00
        <X 3240 0
          /wFbbWVsbG93XQ==
        >
        E 120 90 69 60
        <X 180 0
          /wVO428=
        >
        E 0 90 44 60
        E 180 80 44 00
        <X 180 0
          /wXp
        >
        E 0 90 48 60
        E 150 80 48 00
        <X 270 0
          /wVzZS0=
        >
        E 0 90 4b 60
        E 120 80 4b 00
        <X 120 0
          /wVncmUt
        >
        E 0 90 4b 60
        E 2700 80 4b 00
        <X 90 0
          /wVkbw==
        >
        E 0 90 4b 60
        E 180 80 4b 00
        E 150 80 69 00
        E 1440 90 69 60
        <X 390 0
          /wVBLQ==
        >
        E 0 90 44 60
        E 210 80 44 00
        <X 90 0
          /wVyYS0=
        >
        E 0 90 46 60
        E 210 80 46 00
        <X 120 0
          /wXn4adhLQ==
        >
        E 0 90 49 60
        E 330 80 49 00
        <X 60 0
          /wUr
        >
        E 0 90 48 60
        E 210 80 48 00
        <X 150 0
          /wV6dWw=
        >
        E 0 90 44 60
        E 930 80 44 00
        <X 180 0
          /wVmaS0=
        >
        E 0 90 44 60
        E 150 80 44 00
        <X 180 0
          /wVjYQ==
        >
        E 0 90 3f 60
        E 90 80 3f 00
        <X 240 0
          /wVzZW4t
        >
        E 0 90 43 60
        E 420 80 43 00
        <X 150 0
          /wUr
        >
        E 0 90 41 60
        E 60 80 41 00
        <X 210 0
          /wVkbw==
        >
        E 0 90 3f 60
        E 630 80 3f 00
        <X 270 0
          /wFbaWRsZV0=
        >
        E 0 80 69 00
        <X 2880 0
          /wFbbWVsbG93XQ==
        >
        E 0 90 69 60
        <X 180 0
          /wVP
        >
        E 0 90 44 60
        E 120 80 44 00
        <X 210 0
          /wVuby0=
        >
        E 0 90 44 60
        E 240 80 44 00
        <X 120 0
          /wVtZQ==
        >
        E 0 90 44 60
        E 180 80 44 00
        <X 180 0
          /wVtYWlz
        >
        E 0 90 44 60
        E 180 80 44 00
        <X 270 0
          /wViZS0=
        >
        E 0 90 44 60
        E 330 80 44 00
        <X 120 0
          /wVsbw==
        >
        E 0 90 48 60
        E 120 80 48 00
        <X 150 0
          /wVkbw==
        >
        E 0 90 4b 60
        E 150 80 4b 00
        <X 210 0
          /wVtZS0=
        >
        E 0 90 4b 60
        E 1710 80 4b 00
        <X 60 0
          /wVkbw==
        >
        E 0 90 4b 60
        E 330 80 4b 00
        E 420 80 69 00
        <X 480 0
          /wFbcGxheV0=
        >
        E 0 90 69 60
        <X 270 0
          /wVDb20=
        >
        E 0 90 46 60
        E 180 80 46 00
        <X 150 0
          /wVm6Q==
        >
        E 0 90 4b 60
        E 270 80 4b 00
        <X 60 0
          /wVlbQ==
        >
        E 0 90 4a 60
        E 180 80 4a 00
        <X 150 0
          /wVEZXVz
        >
        E 0 90 46 60
        E 1050 80 46 00
        E 90 90 01 60
        E 30 80 01 00
        <X 240 0
          /wVldQ==
        >
        E 0 90 44 60
        E 150 80 44 00
        <X 60 0
          /wVu428=
        >
        E 0 90 46 60
        E 150 80 46 00
        <X 120 0
          /wV2b3U=
        >
        E 0 90 48 60
        E 300 80 48 00
        <X 90 0
          /wVtb3It
        >
        E 0 90 46 60
        E 120 80 46 00
        <X 90 0
          /wVyZXI=
        >
        E 0 90 44 60
        E 540 80 44 00
        <X 180 0
          /wV0428=
        >
        E 0 90 3f 60
        E 150 80 3f 00
        <X 150 0
          /wVjZQ==
        >
        E 0 90 43 60
        E 300 80 43 00
        <X 390 0
          /wUr
        >
        E 0 90 41 60
        E 60 80 41 00
        <X 180 0
          /wVkbw==
        >
        E 0 90 3f 60
        E 900 80 3f 00
        E 120 80 69 00
        E 960 90 69 60
        <X 240 0
          /wVDb20=
        >
        E 0 90 46 60
        E 180 80 46 00
        <X 180 0
          /wVm6Q==
        >
        E 0 90 4b 60
        E 270 80 4b 00
        <X 60 0
          /wVlbQ==
        >
        E 0 90 4a 60
        E 120 80 4a 00
        <X 90 0
          /wVEZXVz
        >
        E 0 90 46 60
        E 1050 80 46 00
        E 210 90 01 60
        E 30 80 01 00
        <X 150 0
          /wVldQ==
        >
        E 0 90 44 60
        E 150 80 44 00
        <X 90 0
          /wVu428=
        >
        E 0 90 46 60
        E 150 80 46 00
        <X 150 0
          /wV2b3U=
        >
        E 0 90 48 60
        E 240 80 48 00
        <X 150 0
          /wVtb3It
        >
        E 0 90 46 60
        E 120 80 46 00
        <X 90 0
          /wVyZXI=
        >
        E 0 90 44 60
        E 540 80 44 00
        <X 150 0
          /wV0428=
        >
        E 0 90 3f 60
        E 150 80 3f 00
        <X 180 0
          /wVjZQ==
        >
        E 0 90 43 60
        E 240 80 43 00
        <X 450 0
          /wUr
        >
        E 0 90 41 60
        E 60 80 41 00
        <X 210 0
          /wVkbw==
        >
        E 0 90 3f 60
        E 750 80 3f 00
        E 270 80 69 00
        E 480 90 69 60
        <X 510 0
          /wVDb20=
        >
        E 0 90 46 60
        E 210 80 46 00
        <X 90 0
          /wVm6Q==
        >
        E 0 90 4b 60
        E 270 80 4b 00
        <X 60 0
          /wVlbQ==
        >
        E 0 90 4a 60
        E 150 80 4a 00
        <X 150 0
          /wVEZXVz
        >
        E 0 90 46 60
        E 1200 80 46 00
        E 240 90 01 60
        E 30 80 01 00
        <X 150 0
          /wVldQ==
        >
        E 0 90 44 60
        E 150 80 44 00
        <X 60 0
          /wVu428=
        >
        E 0 90 46 60
        E 120 80 46 00
        <X 150 0
          /wV2b3U=
        >
        E 0 90 48 60
        E 180 80 48 00
        <X 150 0
          /wVtb3It
        >
        E 0 90 46 60
        E 120 80 46 00
        <X 90 0
          /wVyZXI=
        >
        E 0 90 44 60
        E 540 80 44 00
        <X 210 0
          /wV0428=
        >
        E 0 90 3f 60
        E 240 80 3f 00
        <X 120 0
          /wVjZQ==
        >
        E 0 90 43 60
        E 330 80 43 00
        <X 390 0
          /wUr
        >
        E 0 90 41 60
        E 60 80 41 00
        <X 120 0
          /wVkbw==
        >
        E 0 90 3f 60
        E 900 80 3f 00
        <X 210 0
          /wFbaWRsZV0=
        >
        E 0 80 69 00
        E 1920 90 69 60
        <X 240 0
          /wFbbWVsbG93XQ==
        >
        <X 270 0
          /wVBLQ==
        >
        E 0 90 44 60
        E 180 80 44 00
        <X 120 0
          /wVyYS0=
        >
        E 0 90 46 60
        E 180 80 46 00
        <X 180 0
          /wXDp8OhwqdhLQ==
        >
        E 0 90 49 60
        E 300 80 49 00
        <X 90 0
          /wUr
        >
        E 0 90 48 60
        E 240 80 48 00
        <X 180 0
          /wV6dWw=
        >
        E 0 90 44 60
        E 960 80 44 00
        <X 150 0
          /wXp
        >
        E 0 90 44 60
        E 180 80 44 00
        <X 120 0
          /wVicmluLQ==
        >
        E 0 90 3f 60
        E 150 80 3f 00
        <X 180 0
          /wVxdWUt
        >
        E 0 90 43 60
        E 300 80 43 00
        <X 360 0
          /wUr
        >
        E 0 90 41 60
        E 60 80 41 00
        <X 210 0
          /wVkbw==
        >
        E 0 90 3f 60
        E 720 80 3f 00
        <X 390 0
          /wFbaWRsZV0=
        >
        E 0 80 69 00
        <X 2880 0
          /wFbaWRsZV9yZWFsdGltZV0=
        >
        E 4800 b0 7b 00
        GUID {99151C5C-E414-4A9E-81AF-CF6A76D64E7B}
        IGNTEMPO 0 120.00000000 4 4
        SRCCOLOR 0
        VELLANE 132 100 0
        COLORMAP "C:\Program Files (x86)\REAPER\Data\color_maps\rockband_guitarbass.png"
        CFGEDITVIEW -3744.000000 0.012517 0 12 0 0 0
        CFGEDIT 1 1 0 1 1 0 1 1 1 1 1 0.06250000 231 66 1431 740 0 2 0 2 0.00000000 0 1 0 0 0.500000 0 0 1.000000 64
        KEYSNAP 0 0 "100304450070" 0 "Blues"
        EVTFILTER 0 -1 -1 -1 -1 0 1 0 0 -1.00000000 -1.00000000
      >
    >
  >
  <TRACK '{E55FDAB3-3524-4B95-B74E-18EAEA6C75C2}'
    NAME "EVENTS"
    PEAKCOL 16576
    BEAT -1
    AUTOMODE 0
    VOLPAN 1.00000000000000 0.00000000000000 -1.00000000000000 -1.00000000000000 1.00000000000000
    MUTESOLO 0 0 0
    IPHASE 0
    ISBUS 0 0
    BUSCOMP 0 0
    SHOWINMIX 1 0.666700 0.500000 1 0.500000 -1 -1 -1
    FREEMODE 0
    SEL 0
    REC 0 0 0 0 0 0 0
    VU 2
    TRACKHEIGHT 0 0
    INQ 0 0 0 0.5000000000 100 0 0 100
    NCHAN 2
    FX 1
    TRACKID {E55FDAB3-3524-4B95-B74E-18EAEA6C75C2}
    PERF 0
    MIDIOUT -1
    <MIDINOTENAMES
      0 26 "Hi-Hat"
      0 25 "Snare"
      0 24 "Kick"
    >
    MAINSEND 1 0
    <FXCHAIN
      SHOW 0
      LASTSEL 0
      DOCKED 0
    >
    <ITEM
      POSITION 0.00000000000000
      SNAPOFFS 0.00000000000000
      LENGTH 85.06693645507896
      LOOP 0
      ALLTAKES 0
      SEL 0
      FADEIN 1 0.000000 0.000000 1 0
      FADEOUT 1 0.000000 0.000000 1 0
      MUTE 0
      IGUID {9113715F-F9AF-45D3-AA0C-F6E16EE1DC88}
      IID 6
      NAME "EVENTS"
      VOLPAN 1.000000 0.000000 1.000000 -1.000000
      SOFFS 0.00000000000000 0.00000000000000
      PLAYRATE 1.00000000000000 1 0.00000000000000 -1
      CHANMODE 0
      GUID {FB045F70-1CBE-4269-8C99-002CF64B8C1F}
      <SOURCE MIDI
        HASDATA 1 480 QN
        POOLEDEVTS {A87E368A-1F1D-4244-9255-4ED484A923BE}
        <X 0 0
          /wNFVkVOVFM=
        >
        <X 3840 0
          /wFbY3Jvd2Rfbm9jbGFwXQ==
        >
        <X 0 0
          /wFbcHJjX3ZlcnNlXzFhXQ==
        >
        <X 0 0
          /wFbY3Jvd2RfbWVsbG93XQ==
        >
        <X 5760 0
          /wFbbXVzaWNfc3RhcnRd
        >
        <X 13440 0
          /wFbcHJjX3ZlcnNlXzFiXQ==
        >
        <X 15360 0
          /wFbcHJjX3ZlcnNlXzJd
        >
        <X 19200 0
          /wFbcHJjX2VuZGluZ10=
        >
        <X 14400 0
          /wFbY3Jvd2RfcmVhbHRpbWVd
        >
        <X 1440 0
          /wFbbXVzaWNfZW5kXQ==
        >
        <X 1435 0
          /wFbZW5kXQ==
        >
        E 6 b0 7b 00
        GUID {F644B057-C7C7-47F1-A806-1F80C0185A95}
        IGNTEMPO 0 120.00000000 4 4
        SRCCOLOR 4
        VELLANE 132 100 0
        COLORMAP "C:\Program Files (x86)\REAPER\Data\color_maps\rockband_guitarbass.png"
        TEXTSTRINGFILE "C:\Program Files (x86)\REAPER\Data\Text_Strings\Text Events List - Events.txt"
        CFGEDITVIEW 8513.991758 0.090677 0 48 0 0 0
        CFGEDIT 1 1 0 1 1 0 1 1 1 1 1 0.25000000 53 44 1253 718 0 2 0 2 0.00000000 0 1 0 0 0.500000 0 0 1.000000 64
        KEYSNAP 0 0 "100304450070" 0 "Blues"
        EVTFILTER 0 -1 -1 -1 -1 0 1 0 0 -1.00000000 -1.00000000
      >
    >
  >
  <TRACK '{BFD6CFC4-EA54-496E-B846-8233A1496624}'
    NAME "VENUE"
    PEAKCOL 16576
    BEAT -1
    AUTOMODE 0
    VOLPAN 1.00000000000000 0.00000000000000 -1.00000000000000 -1.00000000000000 1.00000000000000
    MUTESOLO 0 0 0
    IPHASE 0
    ISBUS 1 1
    BUSCOMP 1 0
    SHOWINMIX 1 0.666700 0.500000 1 0.500000 -1 -1 -1
    FREEMODE 0
    SEL 0
    REC 0 0 0 0 0 0 0
    VU 2
    TRACKHEIGHT 0 0
    INQ 0 0 0 0.5000000000 100 0 0 100
    NCHAN 2
    FX 1
    TRACKID {BFD6CFC4-EA54-496E-B846-8233A1496624}
    PERF 0
    MIDIOUT -1
    <MIDINOTENAMES
      0 87 "Guitarist Sing Along"
      0 86 "Drummer Sing Along"
      0 85 "Bassist Sing Along"
      0 84 "----"
      0 40 "Spotlight on Vocals"
      0 39 "Spotlight on Guitar"
      0 38 "Spotlight on Drums"
      0 37 "Spotlight on Bass"
      0 41 "Spotlight on Keys"
    >
    MAINSEND 1 0
    <FXCHAIN
      SHOW 0
      LASTSEL 0
      DOCKED 0
    >
    <ITEM
      POSITION 0.00000000000000
      SNAPOFFS 0.00000000000000
      LENGTH 85.06693645507892
      LOOP 0
      ALLTAKES 0
      SEL 0
      FADEIN 1 0.000000 0.000000 1 0
      FADEOUT 1 0.000000 0.000000 1 0
      MUTE 0
      IGUID {9D065276-A7B8-44A8-A8F8-AD3B09468799}
      IID 10
      NAME "VENUE"
      VOLPAN 1.000000 0.000000 1.000000 -1.000000
      SOFFS 0.00000000000000 0.00000000000000
      PLAYRATE 1.00000000000000 1 0.00000000000000 -1
      CHANMODE 0
      GUID {4726BECE-5301-4AE6-B556-1201A0F2DF85}
      <SOURCE MIDI
        HASDATA 1 480 QN
        POOLEDEVTS {195B58FD-E307-411A-87BC-55F530BB1DB4}
        <X 0 0
          /wNWRU5VRQ==
        >
        <X 0 0
          /wFbbGlnaHRpbmcgKGJsYWNrb3V0X2Zhc3QpXQ==
        >
        <X 0 0
          /wFbZmxpY2tlcl90cmFpbHMucHBd
        >
        <X 0 0
          /wFbY29vcF9hbGxfZmFyXQ==
        >
        E 7440 90 27 60
        E 0 90 57 60
        <X 720 0
          /wFbY29vcF9nX25lYXJd
        >
        <X 7200 0
          /wFbY29vcF9nX2Nsb3NldXBfaGFuZF0=
        >
        <X 3840 0
          /wFbY29vcF9nX25lYXJd
        >
        <X 3840 0
          /wFbY29vcF9hbGxfYmVoaW5kXQ==
        >
        <X 5760 0
          /wFbZGlyZWN0ZWRfZ3VpdGFyX2Nsc10=
        >
        <X 2880 0
          /wFbY29vcF9nX25lYXJd
        >
        <X 6720 0
          /wFbY29vcF9nX2Nsb3NldXBfaGVhZF0=
        >
        <X 3840 0
          /wFbY29vcF9nX25lYXJd
        >
        <X 3840 0
          /wFbY29vcF9nX2Nsb3NldXBfaGFuZF0=
        >
        <X 3840 0
          /wFbZGlyZWN0ZWRfZ3VpdGFyX2Nsc10=
        >
        <X 3840 0
          /wFbY29vcF9hbGxfYmVoaW5kXQ==
        >
        <X 7680 0
          /wFbY29vcF9hbGxfZmFyXQ==
        >
        <X 5760 0
          /wFbZGlyZWN0ZWRfZ3VpdGFyX2Nsc10=
        >
        E 0 80 57 00
        <X 3840 0
          /wFbY29vcF9hbGxfZmFyXQ==
        >
        E 1920 80 27 00
        E 1920 b0 7b 00
        GUID {F959FD52-B5FA-4DCB-9AF6-4B21453F0E2A}
        IGNTEMPO 0 120.00000000 4 4
        SRCCOLOR 74
        VELLANE 132 100 0
        COLORMAP "C:\Program Files\REAPER (x64)\Data\color_maps\rockband_guitarbass.png"
        CFGEDITVIEW -3744.000000 0.016791 0 48 0 0 0
        CFGEDIT 1 1 0 1 1 0 1 1 1 1 1 0.25000000 53 44 1253 718 0 2 0 1 0.00000000 0 1 1 0 0.500000 0 0 1.000000 64
        KEYSNAP 0 0 "102034050607" 0 "Major"
        EVTFILTER 0 -1 -1 -1 -1 0 1 0 0 -1.00000000 -1.00000000
      >
    >
  >
  <TRACK '{4E8B181C-7391-4ABE-B37E-CD8EA85BFCFA}'
    NAME "CAMERA"
    PEAKCOL 16576
    BEAT -1
    AUTOMODE 0
    VOLPAN 1.00000000000000 0.00000000000000 -1.00000000000000 -1.00000000000000 1.00000000000000
    MUTESOLO 1 0 0
    IPHASE 0
    ISBUS 0 0
    BUSCOMP 0 0
    SHOWINMIX 1 0.666700 0.500000 1 0.500000 -1 -1 -1
    FREEMODE 0
    SEL 0
    REC 0 0 0 0 0 0 0
    VU 2
    TRACKHEIGHT 0 0
    INQ 0 0 0 0.5000000000 100 0 0 100
    NCHAN 2
    FX 1
    TRACKID {4E8B181C-7391-4ABE-B37E-CD8EA85BFCFA}
    PERF 0
    MIDIOUT -1
    <MIDINOTENAMES
      0 102 "RANDOM"
      0 100 "All_Behind"
      0 99 "All_Far"
      0 98 "All_Near"
      0 96 "Front_Behind"
      0 95 "Front_Near"
      0 93 "D_Behind"
      0 92 "D_Near"
      0 91 "V_Behind"
      0 90 "V_Near"
      0 89 "B_Behind"
      0 88 "B_Near"
      0 87 "G_Behind"
      0 86 "G_Near"
      0 85 "K_Behind"
      0 84 "K_Near"
      0 82 "D_Hand"
      0 81 "D_Head"
      0 80 "V_Closeup"
      0 79 "B_Hand"
      0 78 "B_Head"
      0 77 "G_Hand"
      0 76 "G_Head"
      0 75 "K_Hand"
      0 74 "K_Head"
      0 72 "DV_Near"
      0 71 "BD_Near"
      0 70 "DG_Near"
      0 69 "BV_Behind"
      0 68 "BV_Near"
      0 67 "GV_Behind"
      0 66 "GV_Near"
      0 65 "KV_Behind"
      0 64 "KV_Near"
      0 63 "BG_Behind"
      0 62 "BG_Near"
      0 61 "BK_Behind"
      0 60 "BK_Near"
      0 59 "GK_Behind"
      0 58 "GK_Near"
      0 56 "D_All"
      0 55 "D_All_Cam"
      0 54 "D_All_LT*"
      0 53 "D_All_Yeah"
      0 52 "D_BRE"
      0 51 "D_BRE_Jump"
      0 49 "D_Drums_NP"
      0 48 "D_Bass_NP"
      0 47 "D_Gtr_NP"
      0 46 "D_Vox_NP"
      0 45 "D_Keys_NP"
      0 43 "D_Drums"
      0 42 "D_Drums_LT*"
      0 41 "D_Vocals"
      0 40 "D_Bass"
      0 39 "D_Gtr"
      0 38 "D_Keys"
      0 36 "D_Vox_Cam_PR"
      0 35 "D_Vox_Cam_PT"
      0 34 "D_Gtr_Cam_PR"
      0 33 "D_Gtr_Cam_PT"
      0 32 "D_Keys_Cam"
      0 31 "D_Bass_Cam"
      0 29 "D_Stagedive"
      0 28 "D_Crowdsurf"
      0 26 "D_Vox_CLS"
      0 25 "D_Bass_CLS*"
      0 24 "D_Gtr_CLS*"
      0 23 "D_Drums_KD*"
      0 21 "D_Drums_Point"
      0 20 "D_Crowd_Gtr"
      0 19 "D_Crowd_Bass"
      0 17 "D_Duo_Drums"
      0 16 "D_Duo_Gtr"
      0 15 "D_Duo_Bass"
      0 14 "D_Duo_KV"
      0 13 "D_Duo_GB"
      0 12 "D_Duo_KB"
      0 11 "D_Duo_KG"
      0 10 "D_Crowd*"
    >
    MAINSEND 1 0
    <FXCHAIN
      SHOW 0
      LASTSEL 0
      DOCKED 0
    >
    <ITEM
      POSITION 0.00000000000000
      SNAPOFFS 0.00000000000000
      LENGTH 85.06693645507892
      LOOP 0
      ALLTAKES 0
      SEL 0
      FADEIN 1 0.000000 0.000000 1 0
      FADEOUT 1 0.000000 0.000000 1 0
      MUTE 0
      IGUID {91557BBB-909F-4487-950F-B3382E5793BC}
      IID 11
      NAME "CAMERA"
      VOLPAN 1.000000 0.000000 1.000000 -1.000000
      SOFFS 0.00000000000000 0.00000000000000
      PLAYRATE 1.00000000000000 1 0.00000000000000 -1
      CHANMODE 0
      GUID {FE8B02D6-0A6C-46DC-8885-E3803D2FC5EB}
      <SOURCE MIDI
        HASDATA 1 480 QN
        POOLEDEVTS {F1CDDAC5-E72A-43D9-A1CE-83A2E85EC74A}
        <X 0 0
          /wFbY29vcF9hbGxfZmFyXQ==
        >
        E 0 90 63 60
        <X 8160 0
          /wFbY29vcF9nX25lYXJd
        >
        E 0 80 63 00
        E 0 90 56 60
        <X 7200 0
          /wFbY29vcF9nX2Nsb3NldXBfaGFuZF0=
        >
        E 0 80 56 00
        E 0 90 4d 60
        <X 3840 0
          /wFbY29vcF9nX25lYXJd
        >
        E 0 80 4d 00
        E 0 90 56 60
        <X 3840 0
          /wFbY29vcF9hbGxfYmVoaW5kXQ==
        >
        E 0 80 56 00
        E 0 90 64 60
        <X 5760 0
          /wFbZGlyZWN0ZWRfZ3VpdGFyX2Nsc10=
        >
        E 0 80 64 00
        E 0 90 18 60
        <X 2880 0
          /wFbY29vcF9nX25lYXJd
        >
        E 0 80 18 00
        E 0 90 56 60
        <X 6720 0
          /wFbY29vcF9nX2Nsb3NldXBfaGVhZF0=
        >
        E 0 80 56 00
        E 0 90 4c 60
        <X 3840 0
          /wFbY29vcF9nX25lYXJd
        >
        E 0 80 4c 00
        E 0 90 56 60
        <X 3840 0
          /wFbY29vcF9nX2Nsb3NldXBfaGFuZF0=
        >
        E 0 80 56 00
        E 0 90 4d 60
        <X 3840 0
          /wFbZGlyZWN0ZWRfZ3VpdGFyX2Nsc10=
        >
        E 0 80 4d 00
        E 0 90 18 60
        <X 3840 0
          /wFbY29vcF9hbGxfYmVoaW5kXQ==
        >
        E 0 80 18 00
        E 0 90 64 60
        <X 7680 0
          /wFbY29vcF9hbGxfZmFyXQ==
        >
        E 0 80 64 00
        E 0 90 63 60
        <X 5760 0
          /wFbZGlyZWN0ZWRfZ3VpdGFyX2Nsc10=
        >
        E 0 80 63 00
        E 0 90 18 60
        <X 3840 0
          /wFbY29vcF9hbGxfZmFyXQ==
        >
        E 0 80 18 00
        E 0 90 63 60
        E 1920 80 63 00
        E 1920 b0 7b 00
        GUID {91B64BB0-33D6-4852-8E90-FDD34F1533B1}
        IGNTEMPO 0 120.00000000 4 4
        SRCCOLOR 75
        VELLANE 132 100 0
        COLORMAP "C:\Program Files\REAPER (x64)\Data\color_maps\rockband_guitarbass.png"
        CFGEDITVIEW 71229.860465 0.066174 0 12 0 0 0
        CFGEDIT 1 1 0 1 1 0 1 1 1 1 1 0.25000000 53 44 1253 718 0 2 0 1 0.00000000 0 1 1 0 0.500000 0 0 1.000000 64
        KEYSNAP 0 0 "102034050607" 0 "Major"
        EVTFILTER 0 -1 -1 -1 -1 0 1 0 0 -1.00000000 -1.00000000
      >
    >
  >
  <TRACK '{886D2002-4C88-48C4-95F9-C45B766FB6C6}'
    NAME "LIGHTING"
    PEAKCOL 16576
    BEAT -1
    AUTOMODE 0
    VOLPAN 1.00000000000000 0.00000000000000 -1.00000000000000 -1.00000000000000 1.00000000000000
    MUTESOLO 1 0 0
    IPHASE 0
    ISBUS 2 -1
    BUSCOMP 0 0
    SHOWINMIX 1 0.666700 0.500000 1 0.500000 -1 -1 -1
    FREEMODE 0
    SEL 0
    REC 0 0 0 0 0 0 0
    VU 2
    TRACKHEIGHT 0 0
    INQ 0 0 0 0.5000000000 100 0 0 100
    NCHAN 2
    FX 1
    TRACKID {886D2002-4C88-48C4-95F9-C45B766FB6C6}
    PERF 0
    MIDIOUT -1
    <MIDINOTENAMES
      0 71 "Default"
      0 70 "Color_Muted"
      0 69 "Video_Grainy"
      0 68 "16mm Film"
      0 67 "Shitty_TV"
      0 66 "Bloom"
      0 65 "Sepia_Ink"
      0 64 "Silvertone"
      0 63 "Film_BW"
      0 62 "Video_BW"
      0 61 "Contrast BW"
      0 60 "Photocopy"
      0 59 "Blue_Filter"
      0 58 "Desat_Blue"
      0 57 "Video_Security"
      0 55 "Bright"
      0 54 "Posterize"
      0 53 "Clean_Trails"
      0 52 "Video_Trails"
      0 51 "Flicker_Trails"
      0 50 "Desat_Posterize"
      0 49 "Film_Contrast"
      0 48 "Film_Contrast_Blue"
      0 47 "Film_Contrast_Green"
      0 46 "Film_Contrast_Red"
      0 45 "Horror_Movie"
      0 44 "Photo_Negative"
      0 43 "Mirror"
      0 42 "Psych_Blue_Red"
      0 41 "Space_Woosh"
      0 39 "Verse"
      0 38 "Chorus"
      0 37 "Manual_Cool"
      0 36 "Manual_Warm"
      0 35 "Dischord"
      0 34 "Stomp"
      0 32 "first"
      0 31 "prev"
      0 30 "next"
      0 28 "Loop_Cool"
      0 27 "Loop_Warm"
      0 26 "Harmony"
      0 25 "Frenzy"
      0 24 "Silhouettes"
      0 23 "Silhouettes_Spot"
      0 22 "Searchlights"
      0 21 "Sweep"
      0 20 "Strobe_Slow"
      0 19 "Strobe_Fast"
      0 18 "Blackout_Slow"
      0 17 "Blackout_Fast"
      0 16 "Blackout_Spot"
      0 15 "Flare_Slow"
      0 14 "Flare_Fast"
      0 13 "BRE"
      0 11 "BONUSFX"
      0 10 "BONUSFX_Opt"
      0 8 "STROBE"
    >
    MAINSEND 1 0
    <FXCHAIN
      SHOW 0
      LASTSEL 0
      DOCKED 0
    >
    <ITEM
      POSITION 0.00000000000000
      SNAPOFFS 0.00000000000000
      LENGTH 85.06693645507892
      LOOP 0
      ALLTAKES 0
      SEL 0
      FADEIN 1 0.000000 0.000000 1 0
      FADEOUT 1 0.000000 0.000000 1 0
      MUTE 0
      IGUID {9F1D7DE0-EC54-461E-97A7-4CB637DE2738}
      IID 12
      NAME "LIGHTING"
      VOLPAN 1.000000 0.000000 1.000000 -1.000000
      SOFFS 0.00000000000000 0.00000000000000
      PLAYRATE 1.00000000000000 1 0.00000000000000 -1
      CHANMODE 0
      GUID {5E3ADDF6-5CA0-4E0C-86CE-364CE2C2ADEF}
      <SOURCE MIDI
        HASDATA 1 480 QN
        POOLEDEVTS {030A8EF2-E500-484E-B048-A3712A4C5F12}
        <X 0 0
          /wFbbGlnaHRpbmcgKGJsYWNrb3V0X2Zhc3QpXQ==
        >
        <X 0 0
          /wFbZmxpY2tlcl90cmFpbHMucHBd
        >
        e 0 90 11 60
        e 0 90 33 60
        e 74880 80 11 00
        e 0 80 33 00
        E 0 b0 7b 00
        GUID {1F0EB5A7-70FF-4B98-9BF9-A4B8A847AD0E}
        IGNTEMPO 0 120.00000000 4 4
        SRCCOLOR 76
        VELLANE 132 100 0
        COLORMAP "C:\Program Files\REAPER (x64)\Data\color_maps\rockband_guitarbass.png"
        CFGEDITVIEW 40436.910110 0.020916 0 14 0 0 0
        CFGEDIT 1 1 0 1 1 0 1 1 1 1 1 0.25000000 53 44 1253 718 0 2 0 1 0.00000000 0 1 1 0 0.500000 0 0 1.000000 64
        KEYSNAP 0 0 "102034050607" 0 "Major"
        EVTFILTER 0 -1 -1 -1 -1 0 1 0 0 -1.00000000 -1.00000000
      >
    >
  >
  <TRACK '{9056303F-E6E8-431A-915B-CF6D1DA402CE}'
    NAME "BEAT"
    PEAKCOL 16576
    BEAT -1
    AUTOMODE 0
    VOLPAN 1.00000000000000 0.00000000000000 -1.00000000000000 -1.00000000000000 1.00000000000000
    MUTESOLO 0 0 0
    IPHASE 0
    ISBUS 0 0
    BUSCOMP 0 0
    SHOWINMIX 1 0.666700 0.500000 1 0.500000 -1 -1 -1
    FREEMODE 0
    SEL 0
    REC 0 0 0 0 0 0 0
    VU 2
    TRACKHEIGHT 0 0
    INQ 0 0 0 0.5000000000 100 0 0 100
    NCHAN 2
    FX 1
    TRACKID {9056303F-E6E8-431A-915B-CF6D1DA402CE}
    PERF 0
    MIDIOUT -1
    <MIDINOTENAMES
      0 13 "Up Beats"
      0 12 "Downbeat"
    >
    MAINSEND 1 0
    <FXCHAIN
      SHOW 0
      LASTSEL 0
      DOCKED 0
    >
    <ITEM
      POSITION 0.00000000000000
      SNAPOFFS 0.00000000000000
      LENGTH 85.06693645507896
      LOOP 0
      ALLTAKES 0
      SEL 0
      FADEIN 1 0.000000 0.000000 1 0
      FADEOUT 1 0.000000 0.000000 1 0
      MUTE 0
      IGUID {B665671B-72D0-44E5-820F-7BAC1890C4D1}
      IID 7
      NAME "BEAT"
      VOLPAN 1.000000 0.000000 1.000000 -1.000000
      SOFFS 0.00000000000000 0.00000000000000
      PLAYRATE 1.00000000000000 1 0.00000000000000 -1
      CHANMODE 0
      GUID {8B095B89-8CBB-4491-AC92-5C5E7C9E1BFC}
      <SOURCE MIDI
        HASDATA 1 480 QN
        POOLEDEVTS {AF26FF37-0801-4AFD-881F-B526CEF7539B}
        <X 0 0
          /wNCRUFU
        >
        E 0 96 0c 64
        E 120 86 0c 00
        E 360 96 0d 64
        E 120 86 0d 00
        E 360 96 0d 64
        E 120 86 0d 00
        E 360 96 0d 64
        E 120 86 0d 00
        E 360 96 0c 64
        E 120 86 0c 00
        E 360 96 0d 64
        E 120 86 0d 00
        E 360 96 0d 64
        E 120 86 0d 00
        E 360 96 0d 64
        E 120 86 0d 00
        E 360 96 0c 64
        E 120 86 0c 00
        E 360 96 0d 64
        E 120 86 0d 00
        E 360 96 0d 64
        E 120 86 0d 00
        E 360 96 0d 64
        E 120 86 0d 00
        E 360 96 0c 64
        E 120 86 0c 00
        E 360 96 0d 64
        E 120 86 0d 00
        E 360 96 0d 64
        E 120 86 0d 00
        E 360 96 0d 64
        E 120 86 0d 00
        E 360 96 0c 64
        E 120 86 0c 00
        E 360 96 0d 64
        E 120 86 0d 00
        E 360 96 0d 64
        E 120 86 0d 00
        E 360 96 0d 64
        E 120 86 0d 00
        E 360 96 0c 64
        E 120 86 0c 00
        E 360 96 0d 64
        E 120 86 0d 00
        E 360 96 0d 64
        E 120 86 0d 00
        E 360 96 0d 64
        E 120 86 0d 00
        E 360 96 0c 64
        E 120 86 0c 00
        E 360 96 0d 64
        E 120 86 0d 00
        E 360 96 0d 64
        E 120 86 0d 00
        E 360 96 0d 64
        E 120 86 0d 00
        E 360 96 0c 64
        E 120 86 0c 00
        E 360 96 0d 64
        E 120 86 0d 00
        E 360 96 0d 64
        E 120 86 0d 00
        E 360 96 0d 64
        E 120 86 0d 00
        E 360 96 0c 64
        E 120 86 0c 00
        E 360 96 0d 64
        E 120 86 0d 00
        E 360 96 0d 64
        E 120 86 0d 00
        E 360 96 0d 64
        E 120 86 0d 00
        E 360 96 0c 64
        E 120 86 0c 00
        E 360 96 0d 64
        E 120 86 0d 00
        E 360 96 0d 64
        E 120 86 0d 00
        E 360 96 0d 64
        E 120 86 0d 00
        E 360 96 0c 64
        E 120 86 0c 00
        E 360 96 0d 64
        E 120 86 0d 00
        E 360 96 0d 64
        E 120 86 0d 00
        E 360 96 0d 64
        E 120 86 0d 00
        E 360 96 0c 64
        E 120 86 0c 00
        E 360 96 0d 64
        E 120 86 0d 00
        E 360 96 0d 64
        E 120 86 0d 00
        E 360 96 0d 64
        E 120 86 0d 00
        E 360 96 0c 64
        E 120 86 0c 00
        E 360 96 0d 64
        E 120 86 0d 00
        E 360 96 0d 64
        E 120 86 0d 00
        E 360 96 0d 64
        E 120 86 0d 00
        E 360 96 0c 64
        E 120 86 0c 00
        E 360 96 0d 64
        E 120 86 0d 00
        E 360 96 0d 64
        E 120 86 0d 00
        E 360 96 0d 64
        E 120 86 0d 00
        E 360 96 0c 64
        E 120 86 0c 00
        E 360 96 0d 64
        E 120 86 0d 00
        E 360 96 0d 64
        E 120 86 0d 00
        E 360 96 0d 64
        E 120 86 0d 00
        E 360 96 0c 64
        E 120 86 0c 00
        E 360 96 0d 64
        E 120 86 0d 00
        E 360 96 0d 64
        E 120 86 0d 00
        E 360 96 0d 64
        E 120 86 0d 00
        E 360 96 0c 64
        E 120 86 0c 00
        E 360 96 0d 64
        E 120 86 0d 00
        E 360 96 0d 64
        E 120 86 0d 00
        E 360 96 0d 64
        E 120 86 0d 00
        E 360 96 0c 64
        E 120 86 0c 00
        E 360 96 0d 64
        E 120 86 0d 00
        E 360 96 0d 64
        E 120 86 0d 00
        E 360 96 0d 64
        E 120 86 0d 00
        E 360 96 0c 64
        E 120 86 0c 00
        E 360 96 0d 64
        E 120 86 0d 00
        E 360 96 0d 64
        E 120 86 0d 00
        E 360 96 0d 64
        E 120 86 0d 00
        E 360 96 0c 64
        E 120 86 0c 00
        E 360 96 0d 64
        E 120 86 0d 00
        E 360 96 0d 64
        E 120 86 0d 00
        E 360 96 0d 64
        E 120 86 0d 00
        E 360 96 0c 64
        E 120 86 0c 00
        E 360 96 0d 64
        E 120 86 0d 00
        E 360 96 0d 64
        E 120 86 0d 00
        E 360 96 0d 64
        E 120 86 0d 00
        E 360 96 0c 64
        E 120 86 0c 00
        E 360 96 0d 64
        E 120 86 0d 00
        E 360 96 0d 64
        E 120 86 0d 00
        E 360 96 0d 64
        E 120 86 0d 00
        E 360 96 0c 64
        E 120 86 0c 00
        E 360 96 0d 64
        E 120 86 0d 00
        E 360 96 0d 64
        E 120 86 0d 00
        E 360 96 0d 64
        E 120 86 0d 00
        E 360 96 0c 64
        E 120 86 0c 00
        E 360 96 0d 64
        E 120 86 0d 00
        E 360 96 0d 64
        E 120 86 0d 00
        E 360 96 0d 64
        E 120 86 0d 00
        E 360 96 0c 64
        E 120 86 0c 00
        E 360 96 0d 64
        E 120 86 0d 00
        E 360 96 0d 64
        E 120 86 0d 00
        E 360 96 0d 64
        E 120 86 0d 00
        E 360 96 0c 64
        E 120 86 0c 00
        E 360 96 0d 64
        E 120 86 0d 00
        E 360 96 0d 64
        E 120 86 0d 00
        E 360 96 0d 64
        E 120 86 0d 00
        E 360 96 0c 64
        E 120 86 0c 00
        E 360 96 0d 64
        E 120 86 0d 00
        E 360 96 0d 64
        E 120 86 0d 00
        E 360 96 0d 64
        E 120 86 0d 00
        E 360 96 0c 64
        E 120 86 0c 00
        E 360 96 0d 64
        E 120 86 0d 00
        E 360 96 0d 64
        E 120 86 0d 00
        E 360 96 0d 64
        E 120 86 0d 00
        E 360 96 0c 64
        E 120 86 0c 00
        E 360 96 0d 64
        E 120 86 0d 00
        E 360 96 0d 64
        E 120 86 0d 00
        E 360 96 0d 64
        E 120 86 0d 00
        E 360 96 0c 64
        E 120 86 0c 00
        E 360 96 0d 64
        E 120 86 0d 00
        E 360 96 0d 64
        E 120 86 0d 00
        E 360 96 0d 64
        E 120 86 0d 00
        E 360 96 0c 64
        E 120 86 0c 00
        E 360 96 0d 64
        E 120 86 0d 00
        E 360 96 0d 64
        E 120 86 0d 00
        E 360 96 0d 64
        E 120 86 0d 00
        E 360 96 0c 64
        E 120 86 0c 00
        E 360 96 0d 64
        E 120 86 0d 00
        E 360 96 0d 64
        E 120 86 0d 00
        E 360 96 0d 64
        E 120 86 0d 00
        E 360 96 0c 64
        E 120 86 0c 00
        E 360 96 0d 64
        E 120 86 0d 00
        E 360 96 0d 64
        E 120 86 0d 00
        E 360 96 0d 64
        E 120 86 0d 00
        E 360 96 0c 64
        E 120 86 0c 00
        E 360 96 0d 64
        E 120 86 0d 00
        E 360 96 0d 64
        E 120 86 0d 00
        E 360 96 0d 64
        E 120 86 0d 00
        E 360 96 0c 64
        E 120 86 0c 00
        E 360 96 0d 64
        E 120 86 0d 00
        E 360 96 0d 64
        E 120 86 0d 00
        E 360 96 0d 64
        E 120 86 0d 00
        E 360 96 0c 64
        E 120 86 0c 00
        E 360 96 0d 64
        E 120 86 0d 00
        E 360 96 0d 64
        E 120 86 0d 00
        E 360 96 0d 64
        E 120 86 0d 00
        E 360 96 0c 64
        E 120 86 0c 00
        E 360 96 0d 64
        E 120 86 0d 00
        E 360 96 0d 64
        E 120 86 0d 00
        E 360 96 0d 64
        E 120 86 0d 00
        E 360 96 0c 64
        E 120 86 0c 00
        E 360 96 0d 64
        E 120 86 0d 00
        E 360 96 0d 64
        E 120 86 0d 00
        E 360 96 0d 64
        E 120 86 0d 00
        E 360 96 0c 64
        E 120 86 0c 00
        E 360 96 0d 64
        E 120 86 0d 00
        E 360 96 0d 64
        E 120 86 0d 00
        E 360 96 0d 64
        E 120 86 0d 00
        E 360 b0 7b 00
        GUID {087D2449-0F7D-4B28-96DF-234E3854389E}
        IGNTEMPO 0 120.00000000 4 4
        SRCCOLOR 5
        VELLANE 132 100 0
        COLORMAP "C:\Program Files (x86)\REAPER\Data\color_maps\rockband_guitarbass.png"
        CFGEDITVIEW -7744.457555 0.010465 0 48 0 0 0
        CFGEDIT 1 1 0 1 1 0 1 1 1 1 1 0.25000000 53 44 1253 718 0 2 0 2 0.00000000 0 1 0 0 0.500000 0 0 1.000000 64
        KEYSNAP 0 0 "100304450070" 0 "Blues"
        EVTFILTER 0 -1 -1 -1 -1 0 1 0 0 -1.00000000 -1.00000000
      >
    >
  >
  <TRACK '{9B7BD7D9-5AD0-44C1-83C7-178536E088A9}'
    NAME "backing toc-35"
    PEAKCOL 16576
    BEAT -1
    AUTOMODE 0
    VOLPAN 1.00000000000000 0.00000000000000 -1.00000000000000 -1.00000000000000 1.00000000000000
    MUTESOLO 0 0 0
    IPHASE 0
    ISBUS 0 0
    BUSCOMP 0 0
    SHOWINMIX 1 0.666700 0.500000 1 0.500000 -1 -1 -1
    FREEMODE 0
    SEL 0
    REC 0 0 0 0 0 0 0
    VU 2
    TRACKHEIGHT 0 0
    INQ 0 0 0 0.5000000000 100 0 0 100
    NCHAN 2
    FX 1
    TRACKID {9B7BD7D9-5AD0-44C1-83C7-178536E088A9}
    PERF 0
    MIDIOUT -1
    MAINSEND 1 0
    <FXCHAIN
      WNDRECT 0 43 1111 691
      SHOW 0
      LASTSEL 0
      DOCKED 0
    >
    <ITEM
      POSITION 0.00000000000000
      SNAPOFFS 0.00000000000000
      LENGTH 85.06693877551021
      LOOP 0
      ALLTAKES 0
      SEL 0
      FADEIN 1 0.000000 0.000000 1 0
      FADEOUT 1 0.000000 0.000000 1 0
      MUTE 0
      IGUID {0EA5DF80-D20D-4E26-9B29-058C8DF0F856}
      IID 9
      NAME "backing.wav"
      VOLPAN 1.000000 0.000000 1.000000 -1.000000
      SOFFS 0.00000000000000
      PLAYRATE 1.00000000000000 1 0.00000000000000 -1
      CHANMODE 0
      GUID {D6C4ED7A-5A05-4688-8D5E-08D44335CA24}
      <SOURCE WAVE
        FILE "wav\backing.wav"
      >
    >
  >
  <EXTENSIONS
  >
>
