<REAPER_PROJECT 0.1 "4.22/x64"
  RIPPLE 0
  GROUPOVERRIDE 0 0 0
  AUTOXFADE 1
  ENVATTACH 1
  MIXERUIFLAGS 11 48
  PEAKGAIN 1.00000000000000
  FEEDBACK 0
  PANLAW 1.00000000000000
  PROJOFFS 0.00000000000000 0
  MAXPROJLEN 0 600.00000000000000
  GRID 3199 8 1.00000000000000 8 1.00000000000000 0
  TIMEMODE 1 0 -1
  PANMODE 3
  CURSOR 0.00000000000000
  ZOOM 8.50676931311670 0 0
  VZOOMEX 6
  USE_REC_CFG 0
  RECMODE 1
  SMPTESYNC 0 23.976024 100 40 1000 300 0 0.000000 1
  LOOP 1
  LOOPGRAN 0 4.00000000000000
  RECORD_PATH "" ""
  <RECORD_CFG
    ZXZhdxAD
  >
  <APPLYFX_CFG
  >
  RENDER_FILE "C:\Users\Ruggery\Desktop\bass.wav"
  RENDER_FMT 0 2 44100
  RENDER_1X 0
  RENDER_RANGE 2 0.00000000000000 0.00000000000000
  RENDER_RESAMPLE 3 0 1
  RENDER_ADDTOPROJ 0
  RENDER_STEMS 0
  RENDER_DITHER 0
  TIMELOCKMODE 0
  ITEMMIX 0
  DEFPITCHMODE 393216
  TAKELANE 1
  SAMPLERATE 44100 0 0
  <RENDER_CFG
    ZXZhdxAD
  >
  LOCK 1
  <METRONOME 6 2.000000
    VOL 0.250000 0.125000
    FREQ 800 1600 1
    BEATLEN 4
    SAMPLES "" ""
  >
  GLOBAL_AUTO -1
  TEMPO 120.00000000000000 4 4
  PLAYRATE 1.00000000000000 0 0.25000 4.00000
  SELECTION 147.79673400002898 0.00000000000000
  SELECTION2 147.79673400002898 0.00000000000000
  MASTERAUTOMODE 0
  MASTERTRACKHEIGHT 0
  MASTERPEAKCOL 16576
  MASTERMUTESOLO 0
  MASTERTRACKVIEW 0 0.666700 0.500000 0.500000 -1 -1 -1
  MASTERHWOUT 0 0 1.00000000000000 0.00000000000000 0 0 0 -1.00000000000000
  MASTER_NCH 2 2
  MASTER_VOLUME 1.00000000000000 0.00000000000000 -1.00000000000000 -1.00000000000000 1.00000000000000
  MASTER_PANMODE -1
  MASTER_FX 1
  MASTER_SEL 0
  <MASTERPLAYSPEEDENV
    ACT 0
    VIS 0 1 1.000000
    LANEHEIGHT 0 0
    ARM 0
    DEFSHAPE 0 -1 -1
  >
  <TEMPOENVEX
    ACT 1
    VIS 1 0 1.000000
    LANEHEIGHT 0 0
    ARM 0
    DEFSHAPE 1 -1 -1
    PT 0.000000000000 56.8499984366 1
    PT 29.551452000000 56.8000015147 1
    PT 48.565536000000 56.8499984366 1
    PT 57.008808000000 56.8000015147 1
    PT 73.910216000000 56.8250158873 1
    PT 74.966089000000 56.8499984366 1
    PT 130.902766000000 56.8250158873 1
  >
  <PROJBAY
  >
  <TRACK '{4D031258-AF39-4294-8F0F-FA41C73CEF09}'
    NAME "PART DRUMS"
    PEAKCOL 16576
    BEAT -1
    AUTOMODE 0
    VOLPAN 1.00000000000000 0.00000000000000 -1.00000000000000 -1.00000000000000 1.00000000000000
    MUTESOLO 0 0 0
    IPHASE 0
    ISBUS 1 1
    BUSCOMP 0 0
    SHOWINMIX 1 0.666700 0.500000 1 0.500000 -1 -1 -1
    FREEMODE 0
    SEL 0
    REC 0 0 0 0 0 0 0
    VU 2
    TRACKHEIGHT 0 0
    INQ 0 0 0 0.5000000000 100 0 0 100
    NCHAN 2
    FX 1
    TRACKID {4D031258-AF39-4294-8F0F-FA41C73CEF09}
    PERF 0
    MIDIOUT -1
    <MIDINOTENAMES
      0 127 "CYMBAL SWELLS"
      0 126 "DRUM ROLL"
      0 125 "---"
      0 124 "DRUM FILL"
      0 123 "DRUM FILL"
      0 122 "DRUM FILL"
      0 121 "DRUM FILL"
      0 120 "DRUM FILL (use all 5)"
      0 118 "----"
      0 116 "OVERDRIVE"
      0 114 "----"
      0 112 "TOM GEMS PAD 4"
      0 111 "TOM GEMS PAD 3"
      0 110 "TOM GEMS PAD 2"
      0 103 "Solo Marker"
      0 102 "----"
      0 100 "EXPERT Green"
      0 99 "EXPERT Blue"
      0 98 "EXPERT Yellow"
      0 97 "EXPERT Red"
      0 96 "EXPERT Kick"
      0 92 "----"
      0 88 "HARD Green"
      0 87 "HARD Blue"
      0 86 "HARD Yellow"
      0 85 "HARD Red"
      0 84 "HARD Kick"
      0 80 "----"
      0 76 "MEDIUM Green"
      0 75 "MEDIUM Blue"
      0 74 "MEDIUM Yellow"
      0 73 "MEDIUM Red"
      0 72 "MEDIUM Kick"
      0 68 "----"
      0 64 "EASY Green"
      0 63 "EASY Blue"
      0 62 "EASY Yellow"
      0 61 "EASY Red"
      0 60 "EASY Kick"
      0 56 "----"
      0 52 "-- DRUM ANIMATION --"
      0 51 "FLOOR TOM RH"
      0 50 "FLOOR TOM LH"
      0 49 "TOM2 RH"
      0 48 "TOM2 LH"
      0 47 "TOM1 RH"
      0 46 "TOM1 LH"
      0 45 "SOFT CRASH 2 LH"
      0 44 "CRASH 2 LH"
      0 43 "RIDE LH"
      0 42 "RIDE CYM RH"
      0 41 "CRASH2 CHOKE"
      0 40 "CRASH1 CHOKE"
      0 39 "CRASH2 SOFT RH"
      0 38 "CRASH2 HARD RH"
      0 37 "CRASH1 SOFT RH"
      0 36 "CRASH1 HARD RH"
      0 35 "CRASH1 SOFT LH"
      0 34 "CRASH1 HARD LH"
      0 32 "PERCUSSION RH"
      0 31 "HI-HAT RH"
      0 30 "HI-HAT LH"
      0 29 "SOFT SNARE RH"
      0 28 "SOFT SNARE LH"
      0 27 "SNARE RH"
      0 26 "SNARE LH"
      0 25 "HI-HAT OPEN"
      0 24 "KICK RF"
    >
    MAINSEND 1 0
    <FXCHAIN
      WNDRECT 0 43 891 559
      SHOW 0
      LASTSEL 0
      DOCKED 0
      BYPASS 0 0
      <VST "VSTi: RBN Preview (RBN)" "rbprev_vst64.dll" 0 ""
        dnBicu5e7f4AAAAAAgAAAAEAAAAAAAAAAgAAAAAAAAAEAAAAAQAAAA==
        AAAQAAMBWgAAABAAAAA=
      >
      FLOATPOS 0 0 0 0
      FXID {FE6F2FD6-B3E8-4109-A512-F41E6C44BAA6}
      WAK 0
    >
    <ITEM
      POSITION 0.00000000000000
      SNAPOFFS 0.00000000000000
      LENGTH 147.79673400002898
      LOOP 0
      ALLTAKES 0
      SEL 0
      FADEIN 1 0.000000 0.000000 1 0
      FADEOUT 1 0.000000 0.000000 1 0
      MUTE 0
      IGUID {C65B7D86-D85C-4907-A0A6-7EA7C7AA1CA3}
      IID 1
      NAME "PART DRUMS"
      VOLPAN 1.000000 0.000000 1.000000 -1.000000
      SOFFS 0.00000000000000 0.00000000000000
      PLAYRATE 1.00000000000000 1 0.00000000000000 -1
      CHANMODE 0
      GUID {DF1F60A7-7C60-49F4-8EFB-14F3D1B5D37A}
      <SOURCE MIDI
        HASDATA 1 480 QN
        POOLEDEVTS {65C8530A-3BCB-4DE9-A016-A0831207124C}
        <X 0 0
          /wNQQVJUIERSVU1T
        >
        E 0 90 19 60
        <X 120 0
          /wFbbWl4IDAgZHJ1bXMwXQ==
        >
        <X 120 0
          /wFbbWl4IDEgZHJ1bXMwXQ==
        >
        <X 120 0
          /wFbbWl4IDIgZHJ1bXMwXQ==
        >
        <X 120 0
          /wFbbWl4IDMgZHJ1bXMwXQ==
        >
        E 960 80 19 00
        <X 480 0
          /wFbaWRsZV0=
        >
        <X 3720 0
          /wFbbWVsbG93XQ==
        >
        E 120 90 18 60
        E 0 90 33 60
        E 0 90 3f 60
        E 0 90 4b 60
        E 0 90 54 60
        E 0 90 57 60
        E 0 90 60 60
        E 0 90 63 60
        E 0 90 6f 60
        E 120 80 18 00
        E 0 80 33 00
        E 0 80 3f 00
        E 0 80 4b 00
        E 0 80 54 00
        E 0 80 57 00
        E 0 80 60 00
        E 0 80 63 00
        E 0 80 6f 00
        E 840 90 1f 60
        E 0 90 3e 60
        E 0 90 4a 60
        E 0 90 56 60
        E 0 90 62 60
        E 80 80 1f 00
        E 0 80 3e 00
        E 0 80 4a 00
        E 0 80 56 00
        E 0 80 62 00
        E 0 90 1e 60
        E 0 90 62 60
        E 80 80 1e 00
        E 0 80 62 00
        E 0 90 1f 60
        E 0 90 62 60
        E 80 80 1f 00
        E 0 80 62 00
        E 0 90 1e 60
        E 0 90 56 60
        E 0 90 62 60
        E 80 80 1e 00
        E 0 80 56 00
        E 0 80 62 00
        E 0 90 1f 60
        E 0 90 62 60
        E 80 80 1f 00
        E 0 80 62 00
        E 0 90 1e 60
        E 0 90 62 60
        E 80 80 1e 00
        E 0 80 62 00
        E 0 90 1f 60
        E 0 90 3e 60
        E 0 90 4a 60
        E 0 90 56 60
        E 0 90 62 60
        E 80 80 1f 00
        E 0 80 3e 00
        E 0 80 4a 00
        E 0 80 56 00
        E 0 80 62 00
        E 0 90 1e 60
        E 0 90 62 60
        E 79 90 1f 60
        E 1 80 1e 00
        E 0 80 62 00
        E 0 90 62 60
        E 79 80 1f 00
        E 1 80 62 00
        E 0 90 1e 60
        E 0 90 56 60
        E 0 90 62 60
        E 80 80 1e 00
        E 0 80 56 00
        E 0 80 62 00
        E 0 90 1f 60
        E 0 90 62 60
        E 79 90 1e 60
        E 1 80 1f 00
        E 0 80 62 00
        E 0 90 62 60
        E 79 80 1e 00
        E 1 80 62 00
        E 0 90 2f 60
        E 0 90 3f 60
        E 0 90 4b 60
        E 0 90 57 60
        E 0 90 63 60
        E 0 90 6f 60
        E 120 80 2f 00
        E 0 80 3f 00
        E 0 80 4b 00
        E 0 80 57 00
        E 0 80 63 00
        E 0 80 6f 00
        E 360 90 2f 60
        E 0 90 3f 60
        E 0 90 4b 60
        E 0 90 57 60
        E 0 90 63 60
        E 0 90 6f 60
        E 120 80 2f 00
        E 0 80 3f 00
        E 0 80 4b 00
        E 0 80 57 00
        E 0 80 63 00
        E 0 80 6f 00
        E 360 90 27 60
        E 0 90 40 60
        E 0 90 4c 60
        E 0 90 58 60
        E 0 90 64 60
        E 0 90 78 60
        E 0 90 79 60
        E 0 90 7a 60
        E 0 90 7b 60
        E 0 90 7c 60
        E 60 80 40 00
        E 0 80 4c 00
        E 0 80 58 00
        E 20 80 27 00
        E 0 80 64 00
        E 0 90 2d 60
        E 0 90 64 60
        E 80 80 2d 00
        E 0 80 64 00
        E 0 90 27 60
        E 0 90 64 60
        E 80 80 27 00
        E 0 80 64 00
        E 0 90 2d 60
        E 0 90 58 60
        E 0 90 64 60
        E 60 80 58 00
        E 20 80 2d 00
        E 0 80 64 00
        E 0 90 27 60
        E 0 90 64 60
        E 80 80 27 00
        E 0 80 64 00
        E 0 90 2d 60
        E 0 90 64 60
        E 80 80 2d 00
        E 0 80 64 00
        E 0 90 27 60
        E 0 90 4c 60
        E 0 90 58 60
        E 0 90 64 60
        E 60 80 4c 00
        E 0 80 58 00
        E 20 80 27 00
        E 0 80 64 00
        E 0 90 2d 60
        E 0 90 64 60
        E 80 80 2d 00
        E 0 80 64 00
        E 0 90 27 60
        E 0 90 64 60
        E 80 80 27 00
        E 0 80 64 00
        E 0 90 2d 60
        E 0 90 58 60
        E 0 90 64 60
        E 60 80 58 00
        E 20 80 2d 00
        E 0 80 64 00
        E 0 90 27 60
        E 0 90 64 60
        E 80 80 27 00
        E 0 80 64 00
        E 0 90 2d 60
        E 0 90 64 60
        E 80 80 78 00
        E 0 80 79 00
        E 0 80 7a 00
        E 0 80 7b 00
        E 0 80 7c 00
        E 0 80 2d 00
        E 0 80 64 00
        E 0 90 18 60
        E 0 90 33 60
        E 0 90 3f 60
        E 0 90 4b 60
        E 0 90 54 60
        E 0 90 57 60
        E 0 90 60 60
        E 0 90 63 60
        E 0 90 6f 60
        E 0 90 74 60
        E 120 80 18 00
        E 0 80 33 00
        E 0 80 3f 00
        E 0 80 4b 00
        E 0 80 54 00
        E 0 80 57 00
        E 0 80 60 00
        E 0 80 63 00
        E 0 80 6f 00
        E 840 90 1f 60
        E 0 90 3e 60
        E 0 90 4a 60
        E 0 90 56 60
        E 0 90 62 60
        E 80 80 1f 00
        E 0 80 3e 00
        E 0 80 4a 00
        E 0 80 56 00
        E 0 80 62 00
        E 0 90 1e 60
        E 0 90 62 60
        E 80 80 1e 00
        E 0 80 62 00
        E 0 90 1f 60
        E 0 90 62 60
        E 80 80 1f 00
        E 0 80 62 00
        E 0 90 1e 60
        E 0 90 56 60
        E 0 90 62 60
        E 80 80 1e 00
        E 0 80 56 00
        E 0 80 62 00
        E 0 90 1f 60
        E 0 90 62 60
        E 80 80 1f 00
        E 0 80 62 00
        E 0 90 1e 60
        E 0 90 62 60
        E 80 80 1e 00
        E 0 80 62 00
        E 0 90 1f 60
        E 0 90 3e 60
        E 0 90 4a 60
        E 0 90 56 60
        E 0 90 62 60
        E 80 80 1f 00
        E 0 80 3e 00
        E 0 80 4a 00
        E 0 80 56 00
        E 0 80 62 00
        E 0 90 1e 60
        E 0 90 62 60
        E 79 90 1f 60
        E 1 80 1e 00
        E 0 80 62 00
        E 0 90 62 60
        E 79 80 1f 00
        E 1 80 62 00
        E 0 90 1e 60
        E 0 90 56 60
        E 0 90 62 60
        E 80 80 1e 00
        E 0 80 56 00
        E 0 80 62 00
        E 0 90 1f 60
        E 0 90 62 60
        E 79 90 1e 60
        E 1 80 1f 00
        E 0 80 62 00
        E 0 90 62 60
        E 79 80 1e 00
        E 1 80 62 00
        E 0 90 2f 60
        E 0 90 3f 60
        E 0 90 4b 60
        E 0 90 57 60
        E 0 90 63 60
        E 0 90 6f 60
        E 119 80 2f 00
        E 1 80 74 00
        E 0 80 3f 00
        E 0 80 4b 00
        E 0 80 57 00
        E 0 80 63 00
        E 0 80 6f 00
        E 360 90 2f 60
        E 0 90 3f 60
        E 0 90 4b 60
        E 0 90 57 60
        E 0 90 63 60
        E 0 90 6f 60
        E 119 80 2f 00
        E 1 80 3f 00
        E 0 80 4b 00
        E 0 80 57 00
        E 0 80 63 00
        E 0 80 6f 00
        E 360 90 27 60
        E 0 90 40 60
        E 0 90 4c 60
        E 0 90 58 60
        E 0 90 64 60
        E 0 90 78 60
        E 0 90 79 60
        E 0 90 7a 60
        E 0 90 7b 60
        E 0 90 7c 60
        E 60 80 40 00
        E 0 80 4c 00
        E 0 80 58 00
        E 20 80 27 00
        E 0 80 64 00
        E 0 90 2d 60
        E 0 90 64 60
        E 80 80 2d 00
        E 0 80 64 00
        E 0 90 27 60
        E 0 90 64 60
        E 80 80 27 00
        E 0 80 64 00
        E 0 90 2d 60
        E 0 90 58 60
        E 0 90 64 60
        E 60 80 58 00
        E 20 80 2d 00
        E 0 80 64 00
        E 0 90 27 60
        E 0 90 64 60
        E 80 80 27 00
        E 0 80 64 00
        E 0 90 2d 60
        E 0 90 64 60
        E 80 80 2d 00
        E 0 80 64 00
        E 0 90 27 60
        E 0 90 4c 60
        E 0 90 58 60
        E 0 90 64 60
        E 60 80 4c 00
        E 0 80 58 00
        E 20 80 27 00
        E 0 80 64 00
        E 0 90 2d 60
        E 0 90 64 60
        E 80 80 2d 00
        E 0 80 64 00
        E 0 90 27 60
        E 0 90 64 60
        E 80 80 27 00
        E 0 80 64 00
        E 0 90 2d 60
        E 0 90 58 60
        E 0 90 64 60
        E 60 80 58 00
        E 20 80 2d 00
        E 0 80 64 00
        E 0 90 27 60
        E 0 90 64 60
        E 80 80 27 00
        E 0 80 64 00
        E 0 90 2d 60
        E 0 90 64 60
        E 80 80 78 00
        E 0 80 79 00
        E 0 80 7a 00
        E 0 80 7b 00
        E 0 80 7c 00
        E 0 80 2d 00
        E 0 80 64 00
        E 0 90 18 60
        E 0 90 33 60
        E 0 90 3f 60
        E 0 90 4b 60
        E 0 90 54 60
        E 0 90 57 60
        E 0 90 60 60
        E 0 90 63 60
        E 0 90 6f 60
        E 120 80 18 00
        E 0 80 33 00
        E 0 80 3f 00
        E 0 80 4b 00
        E 0 80 54 00
        E 0 80 57 00
        E 0 80 60 00
        E 0 80 63 00
        E 0 80 6f 00
        E 840 90 1f 60
        E 0 90 3e 60
        E 0 90 4a 60
        E 0 90 56 60
        E 0 90 62 60
        E 80 80 1f 00
        E 0 80 3e 00
        E 0 80 4a 00
        E 0 80 56 00
        E 0 80 62 00
        E 0 90 1e 60
        E 0 90 62 60
        E 80 80 1e 00
        E 0 80 62 00
        E 0 90 1f 60
        E 0 90 62 60
        E 80 80 1f 00
        E 0 80 62 00
        E 0 90 1e 60
        E 0 90 56 60
        E 0 90 62 60
        E 80 80 1e 00
        E 0 80 56 00
        E 0 80 62 00
        E 0 90 1f 60
        E 0 90 62 60
        E 80 80 1f 00
        E 0 80 62 00
        E 0 90 1e 60
        E 0 90 62 60
        E 80 80 1e 00
        E 0 80 62 00
        E 0 90 1f 60
        E 0 90 3e 60
        E 0 90 4a 60
        E 0 90 56 60
        E 0 90 62 60
        E 80 80 1f 00
        E 0 80 3e 00
        E 0 80 4a 00
        E 0 80 56 00
        E 0 80 62 00
        E 0 90 1e 60
        E 0 90 62 60
        E 79 90 1f 60
        E 1 80 1e 00
        E 0 80 62 00
        E 0 90 62 60
        E 79 80 1f 00
        E 1 80 62 00
        E 0 90 1e 60
        E 0 90 56 60
        E 0 90 62 60
        E 80 80 1e 00
        E 0 80 56 00
        E 0 80 62 00
        E 0 90 1f 60
        E 0 90 62 60
        E 79 90 1e 60
        E 1 80 1f 00
        E 0 80 62 00
        E 0 90 62 60
        E 79 80 1e 00
        E 1 80 62 00
        E 0 90 2f 60
        E 0 90 3f 60
        E 0 90 4b 60
        E 0 90 57 60
        E 0 90 63 60
        E 0 90 6f 60
        E 119 80 2f 00
        E 1 80 3f 00
        E 0 80 4b 00
        E 0 80 57 00
        E 0 80 63 00
        E 0 80 6f 00
        E 360 90 2f 60
        E 0 90 3f 60
        E 0 90 4b 60
        E 0 90 57 60
        E 0 90 63 60
        E 0 90 6f 60
        E 119 80 2f 00
        E 1 80 3f 00
        E 0 80 4b 00
        E 0 80 57 00
        E 0 80 63 00
        E 0 80 6f 00
        E 360 90 27 60
        E 0 90 40 60
        E 0 90 4c 60
        E 0 90 58 60
        E 0 90 64 60
        E 0 90 78 60
        E 0 90 79 60
        E 0 90 7a 60
        E 0 90 7b 60
        E 0 90 7c 60
        E 60 80 40 00
        E 0 80 4c 00
        E 0 80 58 00
        E 20 80 27 00
        E 0 80 64 00
        E 0 90 2d 60
        E 0 90 64 60
        E 80 80 2d 00
        E 0 80 64 00
        E 0 90 27 60
        E 0 90 64 60
        E 80 80 27 00
        E 0 80 64 00
        E 0 90 2d 60
        E 0 90 58 60
        E 0 90 64 60
        E 60 80 58 00
        E 20 80 2d 00
        E 0 80 64 00
        E 0 90 27 60
        E 0 90 64 60
        E 80 80 27 00
        E 0 80 64 00
        E 0 90 2d 60
        E 0 90 64 60
        E 80 80 2d 00
        E 0 80 64 00
        E 0 90 27 60
        E 0 90 4c 60
        E 0 90 58 60
        E 0 90 64 60
        E 60 80 4c 00
        E 0 80 58 00
        E 20 80 27 00
        E 0 80 64 00
        E 0 90 2d 60
        E 0 90 64 60
        E 80 80 2d 00
        E 0 80 64 00
        E 0 90 27 60
        E 0 90 64 60
        E 80 80 27 00
        E 0 80 64 00
        E 0 90 2d 60
        E 0 90 58 60
        E 0 90 64 60
        E 60 80 58 00
        E 20 80 2d 00
        E 0 80 64 00
        E 0 90 27 60
        E 0 90 64 60
        E 80 80 27 00
        E 0 80 64 00
        E 0 90 2d 60
        E 0 90 64 60
        E 80 80 78 00
        E 0 80 79 00
        E 0 80 7a 00
        E 0 80 7b 00
        E 0 80 7c 00
        E 0 80 2d 00
        E 0 80 64 00
        E 0 90 18 60
        E 0 90 33 60
        E 0 90 3f 60
        E 0 90 4b 60
        E 0 90 54 60
        E 0 90 57 60
        E 0 90 60 60
        E 0 90 63 60
        E 0 90 6f 60
        E 120 80 18 00
        E 0 80 33 00
        E 0 80 3f 00
        E 0 80 4b 00
        E 0 80 54 00
        E 0 80 57 00
        E 0 80 60 00
        E 0 80 63 00
        E 0 80 6f 00
        E 840 90 1f 60
        E 0 90 3e 60
        E 0 90 4a 60
        E 0 90 56 60
        E 0 90 62 60
        E 80 80 1f 00
        E 0 80 3e 00
        E 0 80 4a 00
        E 0 80 56 00
        E 0 80 62 00
        E 0 90 1e 60
        E 0 90 62 60
        E 80 80 1e 00
        E 0 80 62 00
        E 0 90 1f 60
        E 0 90 62 60
        E 80 80 1f 00
        E 0 80 62 00
        E 0 90 1e 60
        E 0 90 56 60
        E 0 90 62 60
        E 80 80 1e 00
        E 0 80 56 00
        E 0 80 62 00
        E 0 90 1f 60
        E 0 90 62 60
        E 80 80 1f 00
        E 0 80 62 00
        E 0 90 1e 60
        E 0 90 62 60
        E 80 80 1e 00
        E 0 80 62 00
        E 0 90 1f 60
        E 0 90 3e 60
        E 0 90 4a 60
        E 0 90 56 60
        E 0 90 62 60
        E 80 80 1f 00
        E 0 80 3e 00
        E 0 80 4a 00
        E 0 80 56 00
        E 0 80 62 00
        E 0 90 1e 60
        E 0 90 62 60
        E 79 90 1f 60
        E 1 80 1e 00
        E 0 80 62 00
        E 0 90 62 60
        E 79 80 1f 00
        E 1 80 62 00
        E 0 90 1e 60
        E 0 90 56 60
        E 0 90 62 60
        E 80 80 1e 00
        E 0 80 56 00
        E 0 80 62 00
        E 0 90 1f 60
        E 0 90 62 60
        E 79 90 1e 60
        E 1 80 1f 00
        E 0 80 62 00
        E 0 90 62 60
        E 79 80 1e 00
        E 1 80 62 00
        E 0 90 2f 60
        E 0 90 3f 60
        E 0 90 4b 60
        E 0 90 57 60
        E 0 90 63 60
        E 0 90 6f 60
        E 119 80 2f 00
        E 1 80 3f 00
        E 0 80 4b 00
        E 0 80 57 00
        E 0 80 63 00
        E 0 80 6f 00
        E 360 90 2f 60
        E 0 90 3f 60
        E 0 90 4b 60
        E 0 90 57 60
        E 0 90 63 60
        E 0 90 6f 60
        E 119 80 2f 00
        E 1 80 3f 00
        E 0 80 4b 00
        E 0 80 57 00
        E 0 80 63 00
        E 0 80 6f 00
        E 360 90 27 60
        E 0 90 40 60
        E 0 90 4c 60
        E 0 90 58 60
        E 0 90 64 60
        E 0 90 78 60
        E 0 90 79 60
        E 0 90 7a 60
        E 0 90 7b 60
        E 0 90 7c 60
        E 60 80 40 00
        E 0 80 4c 00
        E 0 80 58 00
        E 20 80 27 00
        E 0 80 64 00
        E 0 90 2d 60
        E 0 90 64 60
        E 80 80 2d 00
        E 0 80 64 00
        E 0 90 27 60
        E 0 90 64 60
        E 80 80 27 00
        E 0 80 64 00
        E 0 90 2d 60
        E 0 90 58 60
        E 0 90 64 60
        E 60 80 58 00
        E 20 80 2d 00
        E 0 80 64 00
        E 0 90 27 60
        E 0 90 64 60
        E 80 80 27 00
        E 0 80 64 00
        E 0 90 2d 60
        E 0 90 64 60
        E 80 80 2d 00
        E 0 80 64 00
        E 0 90 27 60
        E 0 90 4c 60
        E 0 90 58 60
        E 0 90 64 60
        E 60 80 4c 00
        E 0 80 58 00
        E 20 80 27 00
        E 0 80 64 00
        E 0 90 2d 60
        E 0 90 64 60
        E 80 80 2d 00
        E 0 80 64 00
        E 0 90 27 60
        E 0 90 64 60
        E 80 80 27 00
        E 0 80 64 00
        E 0 90 2d 60
        E 0 90 58 60
        E 0 90 64 60
        E 60 80 58 00
        E 20 80 2d 00
        E 0 80 64 00
        E 0 90 27 60
        E 0 90 64 60
        E 80 80 27 00
        E 0 80 64 00
        E 0 90 2d 60
        E 0 90 64 60
        E 80 80 78 00
        E 0 80 79 00
        E 0 80 7a 00
        E 0 80 7b 00
        E 0 80 7c 00
        E 0 80 2d 00
        E 0 80 64 00
        E 0 90 18 60
        E 0 90 33 60
        E 0 90 3f 60
        E 0 90 4b 60
        E 0 90 54 60
        E 0 90 57 60
        E 0 90 60 60
        E 0 90 63 60
        E 0 90 6f 60
        E 120 80 18 00
        E 0 80 33 00
        E 0 80 3f 00
        E 0 80 4b 00
        E 0 80 54 00
        E 0 80 57 00
        E 0 80 60 00
        E 0 80 63 00
        E 0 80 6f 00
        E 840 90 1f 60
        E 0 90 3e 60
        E 0 90 4a 60
        E 0 90 56 60
        E 0 90 62 60
        E 80 80 1f 00
        E 0 80 3e 00
        E 0 80 4a 00
        E 0 80 56 00
        E 0 80 62 00
        E 0 90 1e 60
        E 0 90 62 60
        E 80 80 1e 00
        E 0 80 62 00
        E 0 90 1f 60
        E 0 90 62 60
        E 80 80 1f 00
        E 0 80 62 00
        E 0 90 1e 60
        E 0 90 56 60
        E 0 90 62 60
        E 80 80 1e 00
        E 0 80 56 00
        E 0 80 62 00
        E 0 90 1f 60
        E 0 90 62 60
        E 80 80 1f 00
        E 0 80 62 00
        E 0 90 1e 60
        E 0 90 62 60
        E 80 80 1e 00
        E 0 80 62 00
        E 0 90 1f 60
        E 0 90 3e 60
        E 0 90 4a 60
        E 0 90 56 60
        E 0 90 62 60
        E 80 80 1f 00
        E 0 80 3e 00
        E 0 80 4a 00
        E 0 80 56 00
        E 0 80 62 00
        E 0 90 1e 60
        E 0 90 62 60
        E 79 90 1f 60
        E 1 80 1e 00
        E 0 80 62 00
        E 0 90 62 60
        E 79 80 1f 00
        E 1 80 62 00
        E 0 90 1e 60
        E 0 90 56 60
        E 0 90 62 60
        E 80 80 1e 00
        E 0 80 56 00
        E 0 80 62 00
        E 0 90 1f 60
        E 0 90 62 60
        E 79 90 1e 60
        E 1 80 1f 00
        E 0 80 62 00
        E 0 90 62 60
        E 79 80 1e 00
        E 1 80 62 00
        E 0 90 2f 60
        E 0 90 3f 60
        E 0 90 4b 60
        E 0 90 57 60
        E 0 90 63 60
        E 0 90 6f 60
        E 119 80 2f 00
        E 1 80 3f 00
        E 0 80 4b 00
        E 0 80 57 00
        E 0 80 63 00
        E 0 80 6f 00
        E 360 90 2f 60
        E 0 90 3f 60
        E 0 90 4b 60
        E 0 90 57 60
        E 0 90 63 60
        E 0 90 6f 60
        E 119 80 2f 00
        E 1 80 3f 00
        E 0 80 4b 00
        E 0 80 57 00
        E 0 80 63 00
        E 0 80 6f 00
        E 360 90 27 60
        E 0 90 40 60
        E 0 90 4c 60
        E 0 90 58 60
        E 0 90 64 60
        E 0 90 78 60
        E 0 90 79 60
        E 0 90 7a 60
        E 0 90 7b 60
        E 0 90 7c 60
        E 60 80 40 00
        E 0 80 4c 00
        E 0 80 58 00
        E 20 80 27 00
        E 0 80 64 00
        E 0 90 2d 60
        E 0 90 64 60
        E 80 80 2d 00
        E 0 80 64 00
        E 0 90 27 60
        E 0 90 64 60
        E 80 80 27 00
        E 0 80 64 00
        E 0 90 2d 60
        E 0 90 58 60
        E 0 90 64 60
        E 60 80 58 00
        E 20 80 2d 00
        E 0 80 64 00
        E 0 90 27 60
        E 0 90 64 60
        E 80 80 27 00
        E 0 80 64 00
        E 0 90 2d 60
        E 0 90 64 60
        E 80 80 2d 00
        E 0 80 64 00
        E 0 90 27 60
        E 0 90 4c 60
        E 0 90 58 60
        E 0 90 64 60
        E 60 80 4c 00
        E 0 80 58 00
        E 20 80 27 00
        E 0 80 64 00
        E 0 90 2d 60
        E 0 90 64 60
        E 80 80 2d 00
        E 0 80 64 00
        E 0 90 27 60
        E 0 90 64 60
        E 80 80 27 00
        E 0 80 64 00
        E 0 90 2d 60
        E 0 90 58 60
        E 0 90 64 60
        E 60 80 58 00
        E 20 80 2d 00
        E 0 80 64 00
        E 0 90 27 60
        E 0 90 64 60
        E 80 80 27 00
        E 0 80 64 00
        E 0 90 2d 60
        E 0 90 64 60
        E 80 80 78 00
        E 0 80 79 00
        E 0 80 7a 00
        E 0 80 7b 00
        E 0 80 7c 00
        E 0 80 2d 00
        E 0 80 64 00
        E 0 90 18 60
        E 0 90 33 60
        E 0 90 3f 60
        E 0 90 4b 60
        E 0 90 54 60
        E 0 90 57 60
        E 0 90 60 60
        E 0 90 63 60
        E 0 90 6f 60
        E 120 80 18 00
        E 0 80 33 00
        E 0 80 3f 00
        E 0 80 4b 00
        E 0 80 54 00
        E 0 80 57 00
        E 0 80 60 00
        E 0 80 63 00
        E 0 80 6f 00
        E 840 90 1f 60
        E 0 90 3e 60
        E 0 90 4a 60
        E 0 90 56 60
        E 0 90 62 60
        E 80 80 1f 00
        E 0 80 3e 00
        E 0 80 4a 00
        E 0 80 56 00
        E 0 80 62 00
        E 0 90 1e 60
        E 0 90 62 60
        E 80 80 1e 00
        E 0 80 62 00
        E 0 90 1f 60
        E 0 90 62 60
        E 80 80 1f 00
        E 0 80 62 00
        E 0 90 1e 60
        E 0 90 56 60
        E 0 90 62 60
        E 80 80 1e 00
        E 0 80 56 00
        E 0 80 62 00
        E 0 90 1f 60
        E 0 90 62 60
        E 80 80 1f 00
        E 0 80 62 00
        E 0 90 1e 60
        E 0 90 62 60
        E 80 80 1e 00
        E 0 80 62 00
        E 0 90 1f 60
        E 0 90 3e 60
        E 0 90 4a 60
        E 0 90 56 60
        E 0 90 62 60
        E 80 80 1f 00
        E 0 80 3e 00
        E 0 80 4a 00
        E 0 80 56 00
        E 0 80 62 00
        E 0 90 1e 60
        E 0 90 62 60
        E 79 90 1f 60
        E 1 80 1e 00
        E 0 80 62 00
        E 0 90 62 60
        E 79 80 1f 00
        E 1 80 62 00
        E 0 90 1e 60
        E 0 90 56 60
        E 0 90 62 60
        E 80 80 1e 00
        E 0 80 56 00
        E 0 80 62 00
        E 0 90 1f 60
        E 0 90 62 60
        E 79 90 1e 60
        E 1 80 1f 00
        E 0 80 62 00
        E 0 90 62 60
        E 79 80 1e 00
        E 1 80 62 00
        E 0 90 2f 60
        E 0 90 3f 60
        E 0 90 4b 60
        E 0 90 57 60
        E 0 90 63 60
        E 0 90 6f 60
        E 119 80 2f 00
        E 1 80 3f 00
        E 0 80 4b 00
        E 0 80 57 00
        E 0 80 63 00
        E 0 80 6f 00
        E 360 90 2f 60
        E 0 90 3f 60
        E 0 90 4b 60
        E 0 90 57 60
        E 0 90 63 60
        E 0 90 6f 60
        E 119 80 2f 00
        E 1 80 3f 00
        E 0 80 4b 00
        E 0 80 57 00
        E 0 80 63 00
        E 0 80 6f 00
        E 360 90 27 60
        E 0 90 40 60
        E 0 90 4c 60
        E 0 90 58 60
        E 0 90 64 60
        E 60 80 40 00
        E 0 80 4c 00
        E 0 80 58 00
        E 20 80 27 00
        E 0 80 64 00
        E 0 90 2d 60
        E 0 90 64 60
        E 80 80 2d 00
        E 0 80 64 00
        E 0 90 27 60
        E 0 90 64 60
        E 80 80 27 00
        E 0 80 64 00
        E 0 90 2d 60
        E 0 90 58 60
        E 0 90 64 60
        E 60 80 58 00
        E 20 80 2d 00
        E 0 80 64 00
        E 0 90 27 60
        E 0 90 64 60
        E 80 80 27 00
        E 0 80 64 00
        E 0 90 2d 60
        E 0 90 64 60
        E 80 80 2d 00
        E 0 80 64 00
        E 0 90 27 60
        E 0 90 4c 60
        E 0 90 58 60
        E 0 90 64 60
        E 60 80 4c 00
        E 0 80 58 00
        E 20 80 27 00
        E 0 80 64 00
        E 0 90 2d 60
        E 0 90 64 60
        E 80 80 2d 00
        E 0 80 64 00
        E 0 90 27 60
        E 0 90 64 60
        E 80 80 27 00
        E 0 80 64 00
        E 0 90 2d 60
        E 0 90 58 60
        E 0 90 64 60
        E 60 80 58 00
        E 20 80 2d 00
        E 0 80 64 00
        E 0 90 27 60
        E 0 90 64 60
        E 80 80 27 00
        E 0 80 64 00
        E 0 90 2d 60
        E 0 90 64 60
        E 80 80 2d 00
        E 0 80 64 00
        E 0 90 18 60
        E 0 90 33 60
        E 0 90 3f 60
        E 0 90 4b 60
        E 0 90 54 60
        E 0 90 57 60
        E 0 90 60 60
        E 0 90 63 60
        E 0 90 6f 60
        E 120 80 18 00
        E 0 80 33 00
        E 0 80 3f 00
        E 0 80 4b 00
        E 0 80 54 00
        E 0 80 57 00
        E 0 80 60 00
        E 0 80 63 00
        E 0 80 6f 00
        E 840 90 1f 60
        E 0 90 3e 60
        E 0 90 4a 60
        E 0 90 56 60
        E 0 90 62 60
        E 0 90 78 60
        E 0 90 79 60
        E 0 90 7a 60
        E 0 90 7b 60
        E 0 90 7c 60
        E 80 80 1f 00
        E 0 80 3e 00
        E 0 80 4a 00
        E 0 80 56 00
        E 0 80 62 00
        E 0 90 1e 60
        E 0 90 62 60
        E 80 80 1e 00
        E 0 80 62 00
        E 0 90 1f 60
        E 0 90 62 60
        E 80 80 1f 00
        E 0 80 62 00
        E 0 90 1e 60
        E 0 90 56 60
        E 0 90 62 60
        E 80 80 1e 00
        E 0 80 56 00
        E 0 80 62 00
        E 0 90 1f 60
        E 0 90 62 60
        E 80 80 1f 00
        E 0 80 62 00
        E 0 90 1e 60
        E 0 90 62 60
        E 80 80 1e 00
        E 0 80 62 00
        E 0 90 1f 60
        E 0 90 3e 60
        E 0 90 4a 60
        E 0 90 56 60
        E 0 90 62 60
        E 80 80 1f 00
        E 0 80 3e 00
        E 0 80 4a 00
        E 0 80 56 00
        E 0 80 62 00
        E 0 90 1e 60
        E 0 90 62 60
        E 79 90 1f 60
        E 1 80 1e 00
        E 0 80 62 00
        E 0 90 62 60
        E 79 80 1f 00
        E 1 80 62 00
        E 0 90 1e 60
        E 0 90 56 60
        E 0 90 62 60
        E 80 80 1e 00
        E 0 80 56 00
        E 0 80 62 00
        E 0 90 1f 60
        E 0 90 62 60
        E 79 90 1e 60
        E 1 80 1f 00
        E 0 80 62 00
        E 0 90 62 60
        E 79 80 1e 00
        E 1 80 78 00
        E 0 80 79 00
        E 0 80 7a 00
        E 0 80 7b 00
        E 0 80 7c 00
        E 0 80 62 00
        E 0 90 2f 60
        E 0 90 3f 60
        E 0 90 4b 60
        E 0 90 57 60
        E 0 90 63 60
        E 0 90 6f 60
        E 0 90 74 60
        E 119 80 2f 00
        E 1 80 3f 00
        E 0 80 4b 00
        E 0 80 57 00
        E 0 80 63 00
        E 0 80 6f 00
        E 360 90 2f 60
        E 0 90 3f 60
        E 0 90 4b 60
        E 0 90 57 60
        E 0 90 63 60
        E 0 90 6f 60
        E 119 80 2f 00
        E 1 80 3f 00
        E 0 80 4b 00
        E 0 80 57 00
        E 0 80 63 00
        E 0 80 6f 00
        E 360 90 27 60
        E 0 90 40 60
        E 0 90 4c 60
        E 0 90 58 60
        E 0 90 64 60
        E 60 80 40 00
        E 0 80 4c 00
        E 0 80 58 00
        E 20 80 27 00
        E 0 80 64 00
        E 0 90 2d 60
        E 0 90 64 60
        E 80 80 2d 00
        E 0 80 64 00
        E 0 90 27 60
        E 0 90 64 60
        E 80 80 27 00
        E 0 80 64 00
        E 0 90 2d 60
        E 0 90 58 60
        E 0 90 64 60
        E 60 80 58 00
        E 20 80 2d 00
        E 0 80 64 00
        E 0 90 27 60
        E 0 90 64 60
        E 80 80 27 00
        E 0 80 64 00
        E 0 90 2d 60
        E 0 90 64 60
        E 80 80 2d 00
        E 0 80 64 00
        E 0 90 27 60
        E 0 90 4c 60
        E 0 90 58 60
        E 0 90 64 60
        E 60 80 4c 00
        E 0 80 58 00
        E 20 80 27 00
        E 0 80 64 00
        E 0 90 2d 60
        E 0 90 64 60
        E 80 80 2d 00
        E 0 80 64 00
        E 0 90 27 60
        E 0 90 64 60
        E 80 80 27 00
        E 0 80 64 00
        E 0 90 2d 60
        E 0 90 58 60
        E 0 90 64 60
        E 60 80 58 00
        E 20 80 2d 00
        E 0 80 64 00
        E 0 90 27 60
        E 0 90 64 60
        E 80 80 27 00
        E 0 80 64 00
        E 0 90 2d 60
        E 0 90 64 60
        E 80 80 2d 00
        E 0 80 64 00
        E 0 90 18 60
        E 0 90 33 60
        E 0 90 3f 60
        E 0 90 4b 60
        E 0 90 54 60
        E 0 90 57 60
        E 0 90 60 60
        E 0 90 63 60
        E 0 90 6f 60
        E 120 80 18 00
        E 0 80 33 00
        E 0 80 3f 00
        E 0 80 4b 00
        E 0 80 54 00
        E 0 80 57 00
        E 0 80 60 00
        E 0 80 63 00
        E 0 80 6f 00
        E 840 90 1f 60
        E 0 90 3e 60
        E 0 90 4a 60
        E 0 90 56 60
        E 0 90 62 60
        E 80 80 1f 00
        E 0 80 3e 00
        E 0 80 4a 00
        E 0 80 56 00
        E 0 80 62 00
        E 0 90 1e 60
        E 0 90 62 60
        E 80 80 1e 00
        E 0 80 62 00
        E 0 90 1f 60
        E 0 90 62 60
        E 80 80 1f 00
        E 0 80 62 00
        E 0 90 1e 60
        E 0 90 56 60
        E 0 90 62 60
        E 80 80 1e 00
        E 0 80 56 00
        E 0 80 62 00
        E 0 90 1f 60
        E 0 90 62 60
        E 80 80 1f 00
        E 0 80 62 00
        E 0 90 1e 60
        E 0 90 62 60
        E 80 80 1e 00
        E 0 80 62 00
        E 0 90 1f 60
        E 0 90 3e 60
        E 0 90 4a 60
        E 0 90 56 60
        E 0 90 62 60
        E 80 80 1f 00
        E 0 80 3e 00
        E 0 80 4a 00
        E 0 80 56 00
        E 0 80 62 00
        E 0 90 1e 60
        E 0 90 62 60
        E 79 90 1f 60
        E 1 80 1e 00
        E 0 80 62 00
        E 0 90 62 60
        E 79 80 1f 00
        E 1 80 62 00
        E 0 90 1e 60
        E 0 90 56 60
        E 0 90 62 60
        E 80 80 1e 00
        E 0 80 56 00
        E 0 80 62 00
        E 0 90 1f 60
        E 0 90 62 60
        E 79 90 1e 60
        E 1 80 1f 00
        E 0 80 62 00
        E 0 90 62 60
        E 79 80 1e 00
        E 1 80 62 00
        E 0 90 2f 60
        E 0 90 3f 60
        E 0 90 4b 60
        E 0 90 57 60
        E 0 90 63 60
        E 0 90 6f 60
        E 119 80 2f 00
        E 1 80 74 00
        E 0 80 3f 00
        E 0 80 4b 00
        E 0 80 57 00
        E 0 80 63 00
        E 0 80 6f 00
        E 360 90 2f 60
        E 0 90 3f 60
        E 0 90 4b 60
        E 0 90 57 60
        E 0 90 63 60
        E 0 90 6f 60
        E 119 80 2f 00
        E 1 80 3f 00
        E 0 80 4b 00
        E 0 80 57 00
        E 0 80 63 00
        E 0 80 6f 00
        E 360 90 27 60
        E 0 90 40 60
        E 0 90 4c 60
        E 0 90 58 60
        E 0 90 64 60
        E 60 80 40 00
        E 0 80 4c 00
        E 0 80 58 00
        E 20 80 27 00
        E 0 80 64 00
        E 0 90 2d 60
        E 0 90 64 60
        E 80 80 2d 00
        E 0 80 64 00
        E 0 90 27 60
        E 0 90 64 60
        E 80 80 27 00
        E 0 80 64 00
        E 0 90 2d 60
        E 0 90 58 60
        E 0 90 64 60
        E 60 80 58 00
        E 20 80 2d 00
        E 0 80 64 00
        E 0 90 27 60
        E 0 90 64 60
        E 80 80 27 00
        E 0 80 64 00
        E 0 90 2d 60
        E 0 90 64 60
        E 80 80 2d 00
        E 0 80 64 00
        E 0 90 27 60
        E 0 90 4c 60
        E 0 90 58 60
        E 0 90 64 60
        E 60 80 4c 00
        E 0 80 58 00
        E 20 80 27 00
        E 0 80 64 00
        E 0 90 2d 60
        E 0 90 64 60
        E 80 80 2d 00
        E 0 80 64 00
        E 0 90 27 60
        E 0 90 64 60
        E 80 80 27 00
        E 0 80 64 00
        E 0 90 2d 60
        E 0 90 58 60
        E 0 90 64 60
        E 60 80 58 00
        E 20 80 2d 00
        E 0 80 64 00
        E 0 90 27 60
        E 0 90 64 60
        E 80 80 27 00
        E 0 80 64 00
        E 0 90 2d 60
        E 0 90 64 60
        E 80 80 2d 00
        E 0 80 64 00
        E 0 90 18 60
        E 0 90 33 60
        E 0 90 3f 60
        E 0 90 4b 60
        E 0 90 54 60
        E 0 90 57 60
        E 0 90 60 60
        E 0 90 63 60
        E 0 90 6f 60
        E 120 80 18 00
        E 0 80 33 00
        E 0 80 3f 00
        E 0 80 4b 00
        E 0 80 54 00
        E 0 80 57 00
        E 0 80 60 00
        E 0 80 63 00
        E 0 80 6f 00
        E 840 90 1f 60
        E 0 90 3e 60
        E 0 90 4a 60
        E 0 90 56 60
        E 0 90 62 60
        E 0 90 78 60
        E 0 90 79 60
        E 0 90 7a 60
        E 0 90 7b 60
        E 0 90 7c 60
        E 80 80 1f 00
        E 0 80 3e 00
        E 0 80 4a 00
        E 0 80 56 00
        E 0 80 62 00
        E 0 90 1e 60
        E 0 90 62 60
        E 80 80 1e 00
        E 0 80 62 00
        E 0 90 1f 60
        E 0 90 62 60
        E 80 80 1f 00
        E 0 80 62 00
        E 0 90 1e 60
        E 0 90 56 60
        E 0 90 62 60
        E 80 80 1e 00
        E 0 80 56 00
        E 0 80 62 00
        E 0 90 1f 60
        E 0 90 62 60
        E 80 80 1f 00
        E 0 80 62 00
        E 0 90 1e 60
        E 0 90 62 60
        E 80 80 1e 00
        E 0 80 62 00
        E 0 90 1f 60
        E 0 90 3e 60
        E 0 90 4a 60
        E 0 90 56 60
        E 0 90 62 60
        E 80 80 1f 00
        E 0 80 3e 00
        E 0 80 4a 00
        E 0 80 56 00
        E 0 80 62 00
        E 0 90 1e 60
        E 0 90 62 60
        E 79 90 1f 60
        E 1 80 1e 00
        E 0 80 62 00
        E 0 90 62 60
        E 79 80 1f 00
        E 1 80 62 00
        E 0 90 1e 60
        E 0 90 56 60
        E 0 90 62 60
        E 80 80 1e 00
        E 0 80 56 00
        E 0 80 62 00
        E 0 90 1f 60
        E 0 90 62 60
        E 79 90 1e 60
        E 1 80 1f 00
        E 0 80 62 00
        E 0 90 62 60
        E 79 80 1e 00
        E 1 80 78 00
        E 0 80 79 00
        E 0 80 7a 00
        E 0 80 7b 00
        E 0 80 7c 00
        E 0 80 62 00
        E 0 90 2f 60
        E 0 90 3f 60
        E 0 90 4b 60
        E 0 90 57 60
        E 0 90 63 60
        E 0 90 6f 60
        E 119 80 2f 00
        E 1 80 3f 00
        E 0 80 4b 00
        E 0 80 57 00
        E 0 80 63 00
        E 0 80 6f 00
        E 360 90 2f 60
        E 0 90 3f 60
        E 0 90 4b 60
        E 0 90 57 60
        E 0 90 63 60
        E 0 90 6f 60
        E 119 80 2f 00
        E 1 80 3f 00
        E 0 80 4b 00
        E 0 80 57 00
        E 0 80 63 00
        E 0 80 6f 00
        E 360 90 27 60
        E 0 90 40 60
        E 0 90 4c 60
        E 0 90 58 60
        E 0 90 64 60
        E 60 80 40 00
        E 0 80 4c 00
        E 0 80 58 00
        E 20 80 27 00
        E 0 80 64 00
        E 0 90 2d 60
        E 0 90 64 60
        E 80 80 2d 00
        E 0 80 64 00
        E 0 90 27 60
        E 0 90 64 60
        E 80 80 27 00
        E 0 80 64 00
        E 0 90 2d 60
        E 0 90 58 60
        E 0 90 64 60
        E 60 80 58 00
        E 20 80 2d 00
        E 0 80 64 00
        E 0 90 27 60
        E 0 90 64 60
        E 80 80 27 00
        E 0 80 64 00
        E 0 90 2d 60
        E 0 90 64 60
        E 80 80 2d 00
        E 0 80 64 00
        E 0 90 27 60
        E 0 90 4c 60
        E 0 90 58 60
        E 0 90 64 60
        E 60 80 4c 00
        E 0 80 58 00
        E 20 80 27 00
        E 0 80 64 00
        E 0 90 2d 60
        E 0 90 64 60
        E 80 80 2d 00
        E 0 80 64 00
        E 0 90 27 60
        E 0 90 64 60
        E 80 80 27 00
        E 0 80 64 00
        E 0 90 2d 60
        E 0 90 58 60
        E 0 90 64 60
        E 60 80 58 00
        E 20 80 2d 00
        E 0 80 64 00
        E 0 90 27 60
        E 0 90 64 60
        E 80 80 27 00
        E 0 80 64 00
        E 0 90 2d 60
        E 0 90 64 60
        E 80 80 2d 00
        E 0 80 64 00
        E 0 90 18 60
        E 0 90 33 60
        E 0 90 3f 60
        E 0 90 4b 60
        E 0 90 54 60
        E 0 90 57 60
        E 0 90 60 60
        E 0 90 63 60
        E 0 90 6f 60
        E 120 80 18 00
        E 0 80 33 00
        E 0 80 3f 00
        E 0 80 4b 00
        E 0 80 54 00
        E 0 80 57 00
        E 0 80 60 00
        E 0 80 63 00
        E 0 80 6f 00
        E 840 90 1f 60
        E 0 90 3e 60
        E 0 90 4a 60
        E 0 90 56 60
        E 0 90 62 60
        E 0 90 74 60
        E 80 80 1f 00
        E 0 80 3e 00
        E 0 80 4a 00
        E 0 80 56 00
        E 0 80 62 00
        E 0 90 1e 60
        E 0 90 62 60
        E 80 80 1e 00
        E 0 80 62 00
        E 0 90 1f 60
        E 0 90 62 60
        E 80 80 1f 00
        E 0 80 62 00
        E 0 90 1e 60
        E 0 90 56 60
        E 0 90 62 60
        E 80 80 1e 00
        E 0 80 56 00
        E 0 80 62 00
        E 0 90 1f 60
        E 0 90 62 60
        E 80 80 1f 00
        E 0 80 62 00
        E 0 90 1e 60
        E 0 90 62 60
        E 80 80 1e 00
        E 0 80 62 00
        E 0 90 1f 60
        E 0 90 3e 60
        E 0 90 4a 60
        E 0 90 56 60
        E 0 90 62 60
        E 80 80 1f 00
        E 0 80 3e 00
        E 0 80 4a 00
        E 0 80 56 00
        E 0 80 62 00
        E 0 90 1e 60
        E 0 90 62 60
        E 79 90 1f 60
        E 1 80 1e 00
        E 0 80 62 00
        E 0 90 62 60
        E 79 80 1f 00
        E 1 80 62 00
        E 0 90 1e 60
        E 0 90 56 60
        E 0 90 62 60
        E 80 80 1e 00
        E 0 80 56 00
        E 0 80 62 00
        E 0 90 1f 60
        E 0 90 62 60
        E 79 90 1e 60
        E 1 80 1f 00
        E 0 80 62 00
        E 0 90 62 60
        E 79 80 1e 00
        E 1 80 62 00
        E 0 90 2f 60
        E 0 90 3f 60
        E 0 90 4b 60
        E 0 90 57 60
        E 0 90 63 60
        E 0 90 6f 60
        E 119 80 2f 00
        E 1 80 74 00
        E 0 80 3f 00
        E 0 80 4b 00
        E 0 80 57 00
        E 0 80 63 00
        E 0 80 6f 00
        E 360 90 2f 60
        E 0 90 3f 60
        E 0 90 4b 60
        E 0 90 57 60
        E 0 90 63 60
        E 0 90 6f 60
        E 119 80 2f 00
        E 1 80 3f 00
        E 0 80 4b 00
        E 0 80 57 00
        E 0 80 63 00
        E 0 80 6f 00
        E 360 90 27 60
        E 0 90 40 60
        E 0 90 4c 60
        E 0 90 58 60
        E 0 90 64 60
        E 60 80 40 00
        E 0 80 4c 00
        E 0 80 58 00
        E 20 80 27 00
        E 0 80 64 00
        E 0 90 2d 60
        E 0 90 64 60
        E 80 80 2d 00
        E 0 80 64 00
        E 0 90 27 60
        E 0 90 64 60
        E 80 80 27 00
        E 0 80 64 00
        E 0 90 2d 60
        E 0 90 58 60
        E 0 90 64 60
        E 60 80 58 00
        E 20 80 2d 00
        E 0 80 64 00
        E 0 90 27 60
        E 0 90 64 60
        E 80 80 27 00
        E 0 80 64 00
        E 0 90 2d 60
        E 0 90 64 60
        E 80 80 2d 00
        E 0 80 64 00
        E 0 90 27 60
        E 0 90 4c 60
        E 0 90 58 60
        E 0 90 64 60
        E 60 80 4c 00
        E 0 80 58 00
        E 20 80 27 00
        E 0 80 64 00
        E 0 90 2d 60
        E 0 90 64 60
        E 80 80 2d 00
        E 0 80 64 00
        E 0 90 27 60
        E 0 90 64 60
        E 80 80 27 00
        E 0 80 64 00
        E 0 90 2d 60
        E 0 90 58 60
        E 0 90 64 60
        E 60 80 58 00
        E 20 80 2d 00
        E 0 80 64 00
        E 0 90 27 60
        E 0 90 64 60
        E 80 80 27 00
        E 0 80 64 00
        E 0 90 2d 60
        E 0 90 64 60
        E 80 80 2d 00
        E 0 80 64 00
        E 0 90 18 60
        E 0 90 33 60
        E 0 90 3f 60
        E 0 90 4b 60
        E 0 90 54 60
        E 0 90 57 60
        E 0 90 60 60
        E 0 90 63 60
        E 0 90 6f 60
        E 120 80 18 00
        E 0 80 33 00
        E 0 80 3f 00
        E 0 80 4b 00
        E 0 80 54 00
        E 0 80 57 00
        E 0 80 60 00
        E 0 80 63 00
        E 0 80 6f 00
        E 840 90 1f 60
        E 0 90 3e 60
        E 0 90 4a 60
        E 0 90 56 60
        E 0 90 62 60
        E 0 90 78 60
        E 0 90 79 60
        E 0 90 7a 60
        E 0 90 7b 60
        E 0 90 7c 60
        E 80 80 1f 00
        E 0 80 3e 00
        E 0 80 4a 00
        E 0 80 56 00
        E 0 80 62 00
        E 0 90 1e 60
        E 0 90 62 60
        E 80 80 1e 00
        E 0 80 62 00
        E 0 90 1f 60
        E 0 90 62 60
        E 80 80 1f 00
        E 0 80 62 00
        E 0 90 1e 60
        E 0 90 56 60
        E 0 90 62 60
        E 80 80 1e 00
        E 0 80 56 00
        E 0 80 62 00
        E 0 90 1f 60
        E 0 90 62 60
        E 80 80 1f 00
        E 0 80 62 00
        E 0 90 1e 60
        E 0 90 62 60
        E 80 80 1e 00
        E 0 80 62 00
        E 0 90 1f 60
        E 0 90 3e 60
        E 0 90 4a 60
        E 0 90 56 60
        E 0 90 62 60
        E 80 80 1f 00
        E 0 80 3e 00
        E 0 80 4a 00
        E 0 80 56 00
        E 0 80 62 00
        E 0 90 1e 60
        E 0 90 62 60
        E 79 90 1f 60
        E 1 80 1e 00
        E 0 80 62 00
        E 0 90 62 60
        E 79 80 1f 00
        E 1 80 62 00
        E 0 90 1e 60
        E 0 90 56 60
        E 0 90 62 60
        E 80 80 1e 00
        E 0 80 56 00
        E 0 80 62 00
        E 0 90 1f 60
        E 0 90 62 60
        E 79 90 1e 60
        E 1 80 1f 00
        E 0 80 62 00
        E 0 90 62 60
        E 79 80 1e 00
        E 1 80 78 00
        E 0 80 79 00
        E 0 80 7a 00
        E 0 80 7b 00
        E 0 80 7c 00
        E 0 80 62 00
        E 0 90 2f 60
        E 0 90 3f 60
        E 0 90 4b 60
        E 0 90 57 60
        E 0 90 63 60
        E 0 90 6f 60
        E 119 80 2f 00
        E 1 80 3f 00
        E 0 80 4b 00
        E 0 80 57 00
        E 0 80 63 00
        E 0 80 6f 00
        E 360 90 2f 60
        E 0 90 3f 60
        E 0 90 4b 60
        E 0 90 57 60
        E 0 90 63 60
        E 0 90 6f 60
        E 119 80 2f 00
        E 1 80 3f 00
        E 0 80 4b 00
        E 0 80 57 00
        E 0 80 63 00
        E 0 80 6f 00
        E 360 90 27 60
        E 0 90 40 60
        E 0 90 4c 60
        E 0 90 58 60
        E 0 90 64 60
        E 60 80 40 00
        E 0 80 4c 00
        E 0 80 58 00
        E 20 80 27 00
        E 0 80 64 00
        E 0 90 2d 60
        E 0 90 64 60
        E 80 80 2d 00
        E 0 80 64 00
        E 0 90 27 60
        E 0 90 64 60
        E 80 80 27 00
        E 0 80 64 00
        E 0 90 2d 60
        E 0 90 58 60
        E 0 90 64 60
        E 60 80 58 00
        E 20 80 2d 00
        E 0 80 64 00
        E 0 90 27 60
        E 0 90 64 60
        E 80 80 27 00
        E 0 80 64 00
        E 0 90 2d 60
        E 0 90 64 60
        E 80 80 2d 00
        E 0 80 64 00
        E 0 90 27 60
        E 0 90 4c 60
        E 0 90 58 60
        E 0 90 64 60
        E 60 80 4c 00
        E 0 80 58 00
        E 20 80 27 00
        E 0 80 64 00
        E 0 90 2d 60
        E 0 90 64 60
        E 80 80 2d 00
        E 0 80 64 00
        E 0 90 27 60
        E 0 90 64 60
        E 80 80 27 00
        E 0 80 64 00
        E 0 90 2d 60
        E 0 90 58 60
        E 0 90 64 60
        E 60 80 58 00
        E 20 80 2d 00
        E 0 80 64 00
        E 0 90 27 60
        E 0 90 64 60
        E 80 80 27 00
        E 0 80 64 00
        E 0 90 2d 60
        E 0 90 64 60
        E 80 80 2d 00
        E 0 80 64 00
        E 0 90 18 60
        E 0 90 33 60
        E 0 90 3f 60
        E 0 90 4b 60
        E 0 90 54 60
        E 0 90 57 60
        E 0 90 60 60
        E 0 90 63 60
        E 0 90 6f 60
        E 120 80 18 00
        E 0 80 33 00
        E 0 80 3f 00
        E 0 80 4b 00
        E 0 80 54 00
        E 0 80 57 00
        E 0 80 60 00
        E 0 80 63 00
        E 0 80 6f 00
        E 840 90 1f 60
        E 0 90 3e 60
        E 0 90 4a 60
        E 0 90 56 60
        E 0 90 62 60
        E 0 90 78 60
        E 0 90 79 60
        E 0 90 7a 60
        E 0 90 7b 60
        E 0 90 7c 60
        E 80 80 1f 00
        E 0 80 3e 00
        E 0 80 4a 00
        E 0 80 56 00
        E 0 80 62 00
        E 0 90 1e 60
        E 0 90 62 60
        E 80 80 1e 00
        E 0 80 62 00
        E 0 90 1f 60
        E 0 90 62 60
        E 80 80 1f 00
        E 0 80 62 00
        E 0 90 1e 60
        E 0 90 56 60
        E 0 90 62 60
        E 80 80 1e 00
        E 0 80 56 00
        E 0 80 62 00
        E 0 90 1f 60
        E 0 90 62 60
        E 80 80 1f 00
        E 0 80 62 00
        E 0 90 1e 60
        E 0 90 62 60
        E 80 80 1e 00
        E 0 80 62 00
        E 0 90 1f 60
        E 0 90 3e 60
        E 0 90 4a 60
        E 0 90 56 60
        E 0 90 62 60
        E 80 80 1f 00
        E 0 80 3e 00
        E 0 80 4a 00
        E 0 80 56 00
        E 0 80 62 00
        E 0 90 1e 60
        E 0 90 62 60
        E 79 90 1f 60
        E 1 80 1e 00
        E 0 80 62 00
        E 0 90 62 60
        E 79 80 1f 00
        E 1 80 62 00
        E 0 90 1e 60
        E 0 90 56 60
        E 0 90 62 60
        E 80 80 1e 00
        E 0 80 56 00
        E 0 80 62 00
        E 0 90 1f 60
        E 0 90 62 60
        E 79 90 1e 60
        E 1 80 1f 00
        E 0 80 62 00
        E 0 90 62 60
        E 79 80 1e 00
        E 1 80 78 00
        E 0 80 79 00
        E 0 80 7a 00
        E 0 80 7b 00
        E 0 80 7c 00
        E 0 80 62 00
        E 0 90 2f 60
        E 0 90 3f 60
        E 0 90 4b 60
        E 0 90 57 60
        E 0 90 63 60
        E 0 90 6f 60
        E 119 80 2f 00
        E 1 80 3f 00
        E 0 80 4b 00
        E 0 80 57 00
        E 0 80 63 00
        E 0 80 6f 00
        E 360 90 2f 60
        E 0 90 3f 60
        E 0 90 4b 60
        E 0 90 57 60
        E 0 90 63 60
        E 0 90 6f 60
        E 119 80 2f 00
        E 1 80 3f 00
        E 0 80 4b 00
        E 0 80 57 00
        E 0 80 63 00
        E 0 80 6f 00
        E 360 90 27 60
        E 0 90 40 60
        E 0 90 4c 60
        E 0 90 58 60
        E 0 90 64 60
        E 60 80 40 00
        E 0 80 4c 00
        E 0 80 58 00
        E 20 80 27 00
        E 0 80 64 00
        E 0 90 2d 60
        E 0 90 64 60
        E 80 80 2d 00
        E 0 80 64 00
        E 0 90 27 60
        E 0 90 64 60
        E 80 80 27 00
        E 0 80 64 00
        E 0 90 2d 60
        E 0 90 58 60
        E 0 90 64 60
        E 60 80 58 00
        E 20 80 2d 00
        E 0 80 64 00
        E 0 90 27 60
        E 0 90 64 60
        E 80 80 27 00
        E 0 80 64 00
        E 0 90 2d 60
        E 0 90 64 60
        E 80 80 2d 00
        E 0 80 64 00
        E 0 90 27 60
        E 0 90 4c 60
        E 0 90 58 60
        E 0 90 64 60
        E 60 80 4c 00
        E 0 80 58 00
        E 20 80 27 00
        E 0 80 64 00
        E 0 90 2d 60
        E 0 90 64 60
        E 80 80 2d 00
        E 0 80 64 00
        E 0 90 27 60
        E 0 90 64 60
        E 80 80 27 00
        E 0 80 64 00
        E 0 90 2d 60
        E 0 90 58 60
        E 0 90 64 60
        E 60 80 58 00
        E 20 80 2d 00
        E 0 80 64 00
        E 0 90 27 60
        E 0 90 64 60
        E 80 80 27 00
        E 0 80 64 00
        E 0 90 2d 60
        E 0 90 64 60
        E 80 80 2d 00
        E 0 80 64 00
        E 0 90 18 60
        E 0 90 33 60
        E 0 90 3f 60
        E 0 90 4b 60
        E 0 90 54 60
        E 0 90 57 60
        E 0 90 60 60
        E 0 90 63 60
        E 0 90 6f 60
        E 120 80 18 00
        E 0 80 33 00
        E 0 80 3f 00
        E 0 80 4b 00
        E 0 80 54 00
        E 0 80 57 00
        E 0 80 60 00
        E 0 80 63 00
        E 0 80 6f 00
        E 840 90 1f 60
        E 0 90 3e 60
        E 0 90 4a 60
        E 0 90 56 60
        E 0 90 62 60
        E 0 90 78 60
        E 0 90 79 60
        E 0 90 7a 60
        E 0 90 7b 60
        E 0 90 7c 60
        E 80 80 1f 00
        E 0 80 3e 00
        E 0 80 4a 00
        E 0 80 56 00
        E 0 80 62 00
        E 0 90 1e 60
        E 0 90 62 60
        E 80 80 1e 00
        E 0 80 62 00
        E 0 90 1f 60
        E 0 90 62 60
        E 80 80 1f 00
        E 0 80 62 00
        E 0 90 1e 60
        E 0 90 56 60
        E 0 90 62 60
        E 80 80 1e 00
        E 0 80 56 00
        E 0 80 62 00
        E 0 90 1f 60
        E 0 90 62 60
        E 80 80 1f 00
        E 0 80 62 00
        E 0 90 1e 60
        E 0 90 62 60
        E 80 80 1e 00
        E 0 80 62 00
        E 0 90 1f 60
        E 0 90 3e 60
        E 0 90 4a 60
        E 0 90 56 60
        E 0 90 62 60
        E 80 80 1f 00
        E 0 80 3e 00
        E 0 80 4a 00
        E 0 80 56 00
        E 0 80 62 00
        E 0 90 1e 60
        E 0 90 62 60
        E 79 90 1f 60
        E 1 80 1e 00
        E 0 80 62 00
        E 0 90 62 60
        E 79 80 1f 00
        E 1 80 62 00
        E 0 90 1e 60
        E 0 90 56 60
        E 0 90 62 60
        E 80 80 1e 00
        E 0 80 56 00
        E 0 80 62 00
        E 0 90 1f 60
        E 0 90 62 60
        E 79 90 1e 60
        E 1 80 1f 00
        E 0 80 62 00
        E 0 90 62 60
        E 79 80 1e 00
        E 1 80 78 00
        E 0 80 79 00
        E 0 80 7a 00
        E 0 80 7b 00
        E 0 80 7c 00
        E 0 80 62 00
        E 0 90 2f 60
        E 0 90 3f 60
        E 0 90 4b 60
        E 0 90 57 60
        E 0 90 63 60
        E 0 90 6f 60
        E 119 80 2f 00
        E 1 80 3f 00
        E 0 80 4b 00
        E 0 80 57 00
        E 0 80 63 00
        E 0 80 6f 00
        E 360 90 2f 60
        E 0 90 3f 60
        E 0 90 4b 60
        E 0 90 57 60
        E 0 90 63 60
        E 0 90 6f 60
        E 119 80 2f 00
        E 1 80 3f 00
        E 0 80 4b 00
        E 0 80 57 00
        E 0 80 63 00
        E 0 80 6f 00
        E 360 90 27 60
        E 0 90 40 60
        E 0 90 4c 60
        E 0 90 58 60
        E 0 90 64 60
        E 60 80 40 00
        E 0 80 4c 00
        E 0 80 58 00
        E 20 80 27 00
        E 0 80 64 00
        E 0 90 2d 60
        E 0 90 64 60
        E 80 80 2d 00
        E 0 80 64 00
        E 0 90 27 60
        E 0 90 64 60
        E 80 80 27 00
        E 0 80 64 00
        E 0 90 2d 60
        E 0 90 58 60
        E 0 90 64 60
        E 60 80 58 00
        E 20 80 2d 00
        E 0 80 64 00
        E 0 90 27 60
        E 0 90 64 60
        E 80 80 27 00
        E 0 80 64 00
        E 0 90 2d 60
        E 0 90 64 60
        E 80 80 2d 00
        E 0 80 64 00
        E 0 90 27 60
        E 0 90 4c 60
        E 0 90 58 60
        E 0 90 64 60
        E 60 80 4c 00
        E 0 80 58 00
        E 20 80 27 00
        E 0 80 64 00
        E 0 90 2d 60
        E 0 90 64 60
        E 80 80 2d 00
        E 0 80 64 00
        E 0 90 27 60
        E 0 90 64 60
        E 80 80 27 00
        E 0 80 64 00
        E 0 90 2d 60
        E 0 90 58 60
        E 0 90 64 60
        E 60 80 58 00
        E 20 80 2d 00
        E 0 80 64 00
        E 0 90 27 60
        E 0 90 64 60
        E 80 80 27 00
        E 0 80 64 00
        E 0 90 2d 60
        E 0 90 64 60
        E 80 80 2d 00
        E 0 80 64 00
        E 0 90 18 60
        E 0 90 33 60
        E 0 90 3f 60
        E 0 90 4b 60
        E 0 90 54 60
        E 0 90 57 60
        E 0 90 60 60
        E 0 90 63 60
        E 0 90 6f 60
        E 120 80 18 00
        E 0 80 33 00
        E 0 80 3f 00
        E 0 80 4b 00
        E 0 80 54 00
        E 0 80 57 00
        E 0 80 60 00
        E 0 80 63 00
        E 0 80 6f 00
        E 840 90 1f 60
        E 0 90 3e 60
        E 0 90 4a 60
        E 0 90 56 60
        E 0 90 62 60
        E 80 80 1f 00
        E 0 80 3e 00
        E 0 80 4a 00
        E 0 80 56 00
        E 0 80 62 00
        E 0 90 1e 60
        E 0 90 62 60
        E 80 80 1e 00
        E 0 80 62 00
        E 0 90 1f 60
        E 0 90 62 60
        E 80 80 1f 00
        E 0 80 62 00
        E 0 90 1e 60
        E 0 90 56 60
        E 0 90 62 60
        E 80 80 1e 00
        E 0 80 56 00
        E 0 80 62 00
        E 0 90 1f 60
        E 0 90 62 60
        E 80 80 1f 00
        E 0 80 62 00
        E 0 90 1e 60
        E 0 90 62 60
        E 80 80 1e 00
        E 0 80 62 00
        E 0 90 1f 60
        E 0 90 3e 60
        E 0 90 4a 60
        E 0 90 56 60
        E 0 90 62 60
        E 80 80 1f 00
        E 0 80 3e 00
        E 0 80 4a 00
        E 0 80 56 00
        E 0 80 62 00
        E 0 90 1e 60
        E 0 90 62 60
        E 79 90 1f 60
        E 1 80 1e 00
        E 0 80 62 00
        E 0 90 62 60
        E 79 80 1f 00
        E 1 80 62 00
        E 0 90 1e 60
        E 0 90 56 60
        E 0 90 62 60
        E 80 80 1e 00
        E 0 80 56 00
        E 0 80 62 00
        E 0 90 1f 60
        E 0 90 62 60
        E 79 90 1e 60
        E 1 80 1f 00
        E 0 80 62 00
        E 0 90 62 60
        E 79 80 1e 00
        E 1 80 62 00
        E 0 90 2f 60
        E 0 90 3f 60
        E 0 90 4b 60
        E 0 90 57 60
        E 0 90 63 60
        E 0 90 6f 60
        E 119 80 2f 00
        E 1 80 3f 00
        E 0 80 4b 00
        E 0 80 57 00
        E 0 80 63 00
        E 0 80 6f 00
        E 360 90 2f 60
        E 0 90 3f 60
        E 0 90 4b 60
        E 0 90 57 60
        E 0 90 63 60
        E 0 90 6f 60
        E 119 80 2f 00
        E 1 80 3f 00
        E 0 80 4b 00
        E 0 80 57 00
        E 0 80 63 00
        E 0 80 6f 00
        E 360 90 27 60
        E 0 90 40 60
        E 0 90 4c 60
        E 0 90 58 60
        E 0 90 64 60
        E 0 90 78 60
        E 0 90 79 60
        E 0 90 7a 60
        E 0 90 7b 60
        E 0 90 7c 60
        E 60 80 40 00
        E 0 80 4c 00
        E 0 80 58 00
        E 20 80 27 00
        E 0 80 64 00
        E 0 90 2d 60
        E 0 90 64 60
        E 80 80 2d 00
        E 0 80 64 00
        E 0 90 27 60
        E 0 90 64 60
        E 80 80 27 00
        E 0 80 64 00
        E 0 90 2d 60
        E 0 90 58 60
        E 0 90 64 60
        E 60 80 58 00
        E 20 80 2d 00
        E 0 80 64 00
        E 0 90 27 60
        E 0 90 64 60
        E 80 80 27 00
        E 0 80 64 00
        E 0 90 2d 60
        E 0 90 64 60
        E 80 80 2d 00
        E 0 80 64 00
        E 0 90 27 60
        E 0 90 4c 60
        E 0 90 58 60
        E 0 90 64 60
        E 60 80 4c 00
        E 0 80 58 00
        E 20 80 27 00
        E 0 80 64 00
        E 0 90 2d 60
        E 0 90 64 60
        E 80 80 2d 00
        E 0 80 64 00
        E 0 90 27 60
        E 0 90 64 60
        E 80 80 27 00
        E 0 80 64 00
        E 0 90 2d 60
        E 0 90 58 60
        E 0 90 64 60
        E 60 80 58 00
        E 20 80 2d 00
        E 0 80 64 00
        E 0 90 27 60
        E 0 90 64 60
        E 80 80 27 00
        E 0 80 64 00
        E 0 90 2d 60
        E 0 90 64 60
        E 80 80 78 00
        E 0 80 79 00
        E 0 80 7a 00
        E 0 80 7b 00
        E 0 80 7c 00
        E 0 80 2d 00
        E 0 80 64 00
        E 0 90 18 60
        E 0 90 33 60
        E 0 90 3f 60
        E 0 90 4b 60
        E 0 90 54 60
        E 0 90 57 60
        E 0 90 60 60
        E 0 90 63 60
        E 0 90 6f 60
        E 120 80 18 00
        E 0 80 33 00
        E 0 80 3f 00
        E 0 80 4b 00
        E 0 80 54 00
        E 0 80 57 00
        E 0 80 60 00
        E 0 80 63 00
        E 0 80 6f 00
        E 840 90 1f 60
        E 0 90 3e 60
        E 0 90 4a 60
        E 0 90 56 60
        E 0 90 62 60
        E 80 80 1f 00
        E 0 80 3e 00
        E 0 80 4a 00
        E 0 80 56 00
        E 0 80 62 00
        E 0 90 1e 60
        E 0 90 62 60
        E 80 80 1e 00
        E 0 80 62 00
        E 0 90 1f 60
        E 0 90 62 60
        E 80 80 1f 00
        E 0 80 62 00
        E 0 90 1e 60
        E 0 90 56 60
        E 0 90 62 60
        E 80 80 1e 00
        E 0 80 56 00
        E 0 80 62 00
        E 0 90 1f 60
        E 0 90 62 60
        E 80 80 1f 00
        E 0 80 62 00
        E 0 90 1e 60
        E 0 90 62 60
        E 80 80 1e 00
        E 0 80 62 00
        E 0 90 1f 60
        E 0 90 3e 60
        E 0 90 4a 60
        E 0 90 56 60
        E 0 90 62 60
        E 80 80 1f 00
        E 0 80 3e 00
        E 0 80 4a 00
        E 0 80 56 00
        E 0 80 62 00
        E 0 90 1e 60
        E 0 90 62 60
        E 79 90 1f 60
        E 1 80 1e 00
        E 0 80 62 00
        E 0 90 62 60
        E 79 80 1f 00
        E 1 80 62 00
        E 0 90 1e 60
        E 0 90 56 60
        E 0 90 62 60
        E 80 80 1e 00
        E 0 80 56 00
        E 0 80 62 00
        E 0 90 1f 60
        E 0 90 62 60
        E 79 90 1e 60
        E 1 80 1f 00
        E 0 80 62 00
        E 0 90 62 60
        E 79 80 1e 00
        E 1 80 62 00
        E 0 90 2f 60
        E 0 90 3f 60
        E 0 90 4b 60
        E 0 90 57 60
        E 0 90 63 60
        E 0 90 6f 60
        E 119 80 2f 00
        E 1 80 3f 00
        E 0 80 4b 00
        E 0 80 57 00
        E 0 80 63 00
        E 0 80 6f 00
        E 360 90 2f 60
        E 0 90 3f 60
        E 0 90 4b 60
        E 0 90 57 60
        E 0 90 63 60
        E 0 90 6f 60
        E 119 80 2f 00
        E 1 80 3f 00
        E 0 80 4b 00
        E 0 80 57 00
        E 0 80 63 00
        E 0 80 6f 00
        E 360 90 1e 60
        E 0 90 2f 60
        E 0 90 3e 60
        E 0 90 3f 60
        E 0 90 4a 60
        E 0 90 4b 60
        E 0 90 56 60
        E 0 90 57 60
        E 0 90 62 60
        E 0 90 63 60
        E 0 90 6f 60
        E 119 80 2f 00
        E 1 80 1e 00
        E 0 80 3e 00
        E 0 80 3f 00
        E 0 80 4a 00
        E 0 80 4b 00
        E 0 80 56 00
        E 0 80 57 00
        E 0 80 62 00
        E 0 80 63 00
        E 0 80 6f 00
        E 360 90 2f 60
        E 0 90 3f 60
        E 0 90 4b 60
        E 0 90 57 60
        E 0 90 63 60
        E 0 90 6f 60
        E 119 80 2f 00
        E 1 80 3f 00
        E 0 80 4b 00
        E 0 80 57 00
        E 0 80 63 00
        E 0 80 6f 00
        <X 359 0
          /wFbaWRsZV0=
        >
        E 3841 b0 7b 00
        GUID {95DE5FC8-D5AC-4E52-BB05-C0BA4F59C4A5}
        IGNTEMPO 0 120.00000000 4 4
        SRCCOLOR 1
        VELLANE 132 128 60
        COLORMAP "C:\Program Files\REAPER (x64)\Data\color_maps\rockband_guitarbass.png"
        CFGEDITVIEW -4369.466209 7.598273 0 12 0 0 0
        CFGEDIT 1 1 0 1 1 0 1 1 1 1 1 0.12500000 53 44 1253 718 0 2 1 1 0.00000000 0 1 1 0 0.500000 0 0 1.000000 64
        KEYSNAP 0 7 "102030050700" 0 "Pentatonic"
        EVTFILTER 0 -1 -1 -1 -1 0 1 0 0 -1.00000000 -1.00000000
      >
    >
  >
  <TRACK '{A3A6854A-6837-4B5A-BC4B-3CE3A4FD500D}'
    NAME "drums"
    PEAKCOL 16576
    BEAT -1
    AUTOMODE 0
    VOLPAN 1.00000000000000 0.00000000000000 -1.00000000000000 -1.00000000000000 1.00000000000000
    MUTESOLO 0 0 0
    IPHASE 0
    ISBUS 2 -1
    BUSCOMP 0 0
    SHOWINMIX 1 0.666700 0.500000 1 0.500000 -1 -1 -1
    FREEMODE 0
    SEL 0
    REC 0 0 0 0 0 0 0
    VU 2
    TRACKHEIGHT 0 0
    INQ 0 0 0 0.5000000000 100 0 0 100
    NCHAN 2
    FX 1
    TRACKID {A3A6854A-6837-4B5A-BC4B-3CE3A4FD500D}
    PERF 0
    MIDIOUT -1
    MAINSEND 1 0
    <ITEM
      POSITION 0.00000000000000
      SNAPOFFS 0.00000000000000
      LENGTH 147.79673469387754
      LOOP 0
      ALLTAKES 0
      SEL 0
      FADEIN 1 0.000000 0.000000 1 0
      FADEOUT 1 0.000000 0.000000 1 0
      MUTE 0
      IGUID {3E2D66A0-C038-4A24-82FB-C34288D1E0C5}
      IID 19
      NAME "drums.wav"
      VOLPAN 1.000000 0.000000 1.000000 -1.000000
      SOFFS 0.00000000000000
      PLAYRATE 1.00000000000000 1 0.00000000000000 -1
      CHANMODE 0
      GUID {CA24312A-6767-406C-958F-2069B68EDD1D}
      <SOURCE WAVE
        FILE "wav\drums.wav"
      >
    >
  >
  <TRACK '{FC7D08E7-8559-4F12-B434-1A2B24EBDC16}'
    NAME "PART BASS"
    PEAKCOL 16576
    BEAT -1
    AUTOMODE 0
    VOLPAN 1.00000000000000 0.00000000000000 -1.00000000000000 -1.00000000000000 1.00000000000000
    MUTESOLO 0 0 0
    IPHASE 0
    ISBUS 1 1
    BUSCOMP 0 0
    SHOWINMIX 1 0.666700 0.500000 1 0.500000 -1 -1 -1
    FREEMODE 0
    SEL 0
    REC 0 0 0 0 0 0 0
    VU 2
    TRACKHEIGHT 0 0
    INQ 0 0 0 0.5000000000 100 0 0 100
    NCHAN 2
    FX 1
    TRACKID {FC7D08E7-8559-4F12-B434-1A2B24EBDC16}
    PERF 0
    MIDIOUT -1
    <MIDINOTENAMES
      0 127 "TRILL MARKER"
      0 126 "TREMOLO MARKER"
      0 125 "---"
      0 124 "BRE"
      0 123 "BRE"
      0 122 "BRE"
      0 121 "BRE"
      0 120 "BRE (use all 5)"
      0 119 "----"
      0 116 "OVERDRIVE"
      0 115 "----"
      0 103 "Solo Marker"
      0 102 "Force HOPO Off"
      0 101 "Force HOPO On"
      0 100 "EXPERT Orange"
      0 99 "EXPERT Blue"
      0 98 "EXPERT Yellow"
      0 97 "EXPERT Red"
      0 96 "EXPERT Green"
      0 95 "----"
      0 90 "Force HOPO Off"
      0 89 "Force HOPO On"
      0 88 "HARD Orange"
      0 87 "HARD Blue"
      0 86 "HARD Yellow"
      0 85 "HARD Red"
      0 84 "HARD Green"
      0 77 "----"
      0 76 "MEDIUM Orange"
      0 75 "MEDIUM Blue"
      0 74 "MEDIUM Yellow"
      0 73 "MEDIUM Red"
      0 72 "MEDIUM Green"
      0 65 "----"
      0 64 "EASY Orange"
      0 63 "EASY Blue"
      0 62 "EASY Yellow"
      0 61 "EASY Red"
      0 60 "EASY Green"
      0 59 "Fret 12"
      0 57 "Fret 11"
      0 56 "Fret 10"
      0 55 "Fret 9"
      0 53 "Fret 8"
      0 52 "Fret 7"
      0 50 "Fret 6"
      0 49 "Fret 5"
      0 47 "Fret 4"
      0 45 "Fret 3"
      0 43 "Fret 2"
      0 40 "Fret 1"
    >
    MAINSEND 1 0
    <FXCHAIN
      WNDRECT 0 43 891 559
      SHOW 0
      LASTSEL 0
      DOCKED 0
      BYPASS 0 0
      <VST "VSTi: RBN Preview (RBN)" "rbprev_vst64.dll" 0 ""
        dnBicu5e7f4AAAAAAgAAAAEAAAAAAAAAAgAAAAAAAAAEAAAAAQAAAA==
        AAAQAAMAWgAAABAAAAA=
      >
      FLOATPOS 0 0 0 0
      FXID {262925FC-586A-49D2-8BC3-D888CBF9653D}
      WAK 0
    >
    <ITEM
      POSITION 0.00000000000000
      SNAPOFFS 0.00000000000000
      LENGTH 147.79673400000001
      LOOP 0
      ALLTAKES 0
      SEL 0
      FADEIN 1 0.000000 0.000000 1 0
      FADEOUT 1 0.000000 0.000000 1 0
      MUTE 0
      IGUID {A3235275-ACAB-4950-89DB-172FD60825D7}
      IID 2
      NAME "PART BASS"
      VOLPAN 1.000000 0.000000 1.000000 -1.000000
      SOFFS 0.00000000000000 0.00000000000000
      PLAYRATE 1.00000000000000 1 0.00000000000000 -1
      CHANMODE 0
      GUID {027EC6FD-3065-430B-9DE4-313F2D93CF9E}
      <SOURCE MIDI
        HASDATA 1 480 QN
        POOLEDEVTS {58292BF9-709A-423B-9838-6311BBD252C9}
        <X 0 0
          /wNQQVJUIEJBU1M=
        >
        <X 1920 0
          /wFbaWRsZV0=
        >
        <X 1840 0
          /wFbbWVsbG93XQ==
        >
        E 80 90 35 60
        E 0 90 3c 60
        E 0 90 49 60
        E 0 90 55 60
        E 0 90 61 60
        E 1440 80 3c 00
        E 240 80 49 00
        E 120 80 55 00
        E 40 80 61 00
        E 80 90 3c 60
        E 0 90 49 60
        E 0 90 55 60
        E 0 90 61 60
        E 480 80 3c 00
        E 240 80 49 00
        E 0 80 55 00
        E 0 80 61 00
        E 80 90 61 60
        E 80 80 61 00
        E 80 90 3e 60
        E 0 90 4b 60
        E 0 90 57 60
        E 0 90 63 60
        E 480 80 3e 00
        E 40 80 4b 00
        E 0 80 57 00
        E 40 80 63 00
        E 80 90 56 60
        E 0 90 62 60
        E 80 80 56 00
        E 0 80 62 00
        E 80 90 63 60
        E 80 80 63 00
        E 21 80 35 00
        E 59 90 37 60
        E 0 90 40 60
        E 0 90 4c 60
        E 0 90 58 60
        E 0 90 64 60
        E 480 80 40 00
        E 120 80 4c 00
        E 0 80 58 00
        E 40 80 64 00
        E 80 90 57 60
        E 0 90 63 60
        E 80 80 57 00
        E 0 80 63 00
        E 160 90 3d 60
        E 0 90 4a 60
        E 0 90 56 60
        E 0 90 62 60
        E 480 80 3d 00
        E 240 80 4a 00
        E 120 80 56 00
        E 40 80 62 00
        E 21 80 37 00
        E 59 90 35 60
        E 0 90 3c 60
        E 0 90 49 60
        E 0 90 55 60
        E 0 90 61 60
        E 480 80 3c 00
        E 240 80 49 00
        E 0 80 55 00
        E 0 80 61 00
        E 80 90 61 60
        E 80 80 61 00
        E 80 90 3e 60
        E 0 90 4b 60
        E 0 90 57 60
        E 0 90 63 60
        E 480 80 3e 00
        E 39 80 4b 00
        E 0 80 57 00
        E 41 80 63 00
        E 79 90 58 60
        E 0 90 64 60
        E 80 80 58 00
        E 0 80 64 00
        E 81 90 63 60
        E 80 80 63 00
        E 21 80 35 00
        E 59 90 32 60
        E 0 90 3d 60
        E 0 90 4a 60
        E 0 90 56 60
        E 0 90 62 60
        E 480 80 3d 00
        E 120 80 4a 00
        E 0 80 56 00
        E 40 80 62 00
        E 80 90 55 60
        E 0 90 61 60
        E 80 80 55 00
        E 0 80 61 00
        E 160 90 3c 60
        E 0 90 48 60
        E 0 90 54 60
        E 0 90 60 60
        E 480 80 3c 00
        E 0 80 48 00
        E 0 80 54 00
        E 0 80 60 00
        E 160 90 54 60
        E 0 90 60 60
        E 80 80 54 00
        E 0 80 60 00
        E 80 90 61 60
        E 80 80 61 00
        E 21 80 32 00
        E 59 90 35 60
        E 0 90 3c 60
        E 0 90 49 60
        E 0 90 55 60
        E 0 90 61 60
        E 0 90 74 60
        E 480 80 3c 00
        E 240 80 49 00
        E 0 80 55 00
        E 0 80 61 00
        E 80 90 61 60
        E 80 80 61 00
        E 80 90 3e 60
        E 0 90 4b 60
        E 0 90 57 60
        E 0 90 63 60
        E 480 80 3e 00
        E 40 80 4b 00
        E 0 80 57 00
        E 40 80 63 00
        E 80 90 56 60
        E 0 90 62 60
        E 80 80 56 00
        E 0 80 62 00
        E 80 90 63 60
        E 80 80 63 00
        E 21 80 35 00
        E 59 90 37 60
        E 0 90 40 60
        E 0 90 4c 60
        E 0 90 58 60
        E 0 90 64 60
        E 480 80 74 00
        E 0 80 40 00
        E 120 80 4c 00
        E 0 80 58 00
        E 40 80 64 00
        E 80 90 57 60
        E 0 90 63 60
        E 80 80 57 00
        E 0 80 63 00
        E 160 90 3d 60
        E 0 90 4a 60
        E 0 90 56 60
        E 0 90 62 60
        E 480 80 3d 00
        E 240 80 4a 00
        E 120 80 56 00
        E 40 80 62 00
        E 21 80 37 00
        E 59 90 35 60
        E 0 90 3c 60
        E 0 90 49 60
        E 0 90 55 60
        E 0 90 61 60
        E 480 80 3c 00
        E 240 80 49 00
        E 0 80 55 00
        E 0 80 61 00
        E 80 90 61 60
        E 80 80 61 00
        E 80 90 3e 60
        E 0 90 4b 60
        E 0 90 57 60
        E 0 90 63 60
        E 480 80 3e 00
        E 39 80 4b 00
        E 0 80 57 00
        E 41 80 63 00
        E 79 90 58 60
        E 0 90 64 60
        E 80 80 58 00
        E 0 80 64 00
        E 81 90 63 60
        E 80 80 63 00
        E 21 80 35 00
        E 59 90 32 60
        E 0 90 3d 60
        E 0 90 4a 60
        E 0 90 56 60
        E 0 90 62 60
        E 480 80 3d 00
        E 120 80 4a 00
        E 0 80 56 00
        E 40 80 62 00
        E 80 90 55 60
        E 0 90 61 60
        E 80 80 55 00
        E 0 80 61 00
        E 160 90 3c 60
        E 0 90 48 60
        E 0 90 54 60
        E 0 90 60 60
        E 480 80 3c 00
        E 0 80 48 00
        E 0 80 54 00
        E 0 80 60 00
        E 160 90 54 60
        E 0 90 60 60
        E 80 80 54 00
        E 0 80 60 00
        E 80 90 61 60
        E 80 80 61 00
        E 21 80 32 00
        E 59 90 2f 60
        E 0 90 3e 60
        E 0 90 4b 60
        E 0 90 57 60
        E 0 90 63 60
        E 480 80 3e 00
        E 40 80 4b 00
        E 0 80 57 00
        E 40 80 63 00
        E 80 90 55 60
        E 0 90 61 60
        E 80 80 55 00
        E 0 80 61 00
        E 80 90 62 60
        E 80 80 62 00
        E 80 90 3e 60
        E 0 90 4b 60
        E 0 90 57 60
        E 0 90 63 60
        E 480 80 3e 00
        E 40 80 4b 00
        E 0 80 57 00
        E 40 80 63 00
        E 80 90 57 60
        E 0 90 63 60
        E 80 80 57 00
        E 0 80 63 00
        E 80 90 62 60
        E 80 80 62 00
        E 80 90 3c 60
        E 0 90 49 60
        E 0 90 55 60
        E 0 90 61 60
        E 480 80 3c 00
        E 120 80 49 00
        E 0 80 55 00
        E 40 80 61 00
        E 80 90 54 60
        E 0 90 60 60
        E 80 80 54 00
        E 0 80 60 00
        E 160 90 3c 60
        E 0 90 49 60
        E 0 90 55 60
        E 0 90 61 60
        E 480 80 3c 00
        E 240 80 49 00
        E 120 80 55 00
        E 40 80 61 00
        E 80 90 3e 60
        E 0 90 4b 60
        E 0 90 57 60
        E 0 90 63 60
        E 480 80 3e 00
        E 40 80 4b 00
        E 0 80 57 00
        E 40 80 63 00
        E 80 90 55 60
        E 0 90 61 60
        E 80 80 55 00
        E 0 80 61 00
        E 80 90 62 60
        E 80 80 62 00
        E 80 90 3e 60
        E 0 90 4b 60
        E 0 90 57 60
        E 0 90 63 60
        E 480 80 3e 00
        E 40 80 4b 00
        E 0 80 57 00
        E 40 80 63 00
        E 21 80 2f 00
        E 59 90 2d 60
        E 0 90 58 60
        E 0 90 64 60
        E 80 80 58 00
        E 0 80 64 00
        E 80 90 63 60
        E 80 80 63 00
        E 21 80 2d 00
        E 59 90 32 60
        E 0 90 3d 60
        E 0 90 4a 60
        E 0 90 56 60
        E 0 90 62 60
        E 480 80 3d 00
        E 240 80 4a 00
        E 120 80 56 00
        E 40 80 62 00
        E 80 90 3c 60
        E 0 90 48 60
        E 0 90 54 60
        E 0 90 60 60
        E 480 80 3c 00
        E 240 80 48 00
        E 120 80 54 00
        E 40 80 60 00
        E 80 90 3c 60
        E 0 90 49 60
        E 0 90 55 60
        E 0 90 61 60
        E 480 80 3c 00
        E 240 80 49 00
        E 120 80 55 00
        E 40 80 61 00
        E 80 90 3e 60
        E 0 90 4b 60
        E 0 90 57 60
        E 0 90 63 60
        E 480 80 3e 00
        E 240 80 4b 00
        E 120 80 57 00
        E 40 80 63 00
        E 80 90 3d 60
        E 0 90 4a 60
        E 0 90 56 60
        E 0 90 62 60
        E 0 90 74 60
        E 480 80 3d 00
        E 240 80 4a 00
        E 120 80 56 00
        E 40 80 62 00
        E 21 80 32 00
        E 59 90 35 60
        E 0 90 3c 60
        E 0 90 48 60
        E 0 90 54 60
        E 0 90 60 60
        E 480 80 3c 00
        E 40 80 48 00
        E 0 80 54 00
        E 40 80 60 00
        E 80 90 58 60
        E 0 90 64 60
        E 80 80 58 00
        E 0 80 64 00
        E 80 90 63 60
        E 80 80 63 00
        E 80 90 3d 60
        E 0 90 4a 60
        E 0 90 56 60
        E 0 90 62 60
        E 480 80 3d 00
        E 240 80 4a 00
        E 120 80 56 00
        E 40 80 62 00
        E 21 80 35 00
        E 59 90 32 60
        E 0 90 3c 60
        E 0 90 48 60
        E 0 90 54 60
        E 0 90 60 60
        E 480 80 3c 00
        E 240 80 48 00
        E 120 80 54 00
        E 40 80 60 00
        E 21 80 32 00
        E 59 90 35 60
        E 0 90 3c 60
        E 0 90 49 60
        E 0 90 55 60
        E 0 90 61 60
        E 120 80 74 00
        E 360 80 3c 00
        E 240 80 49 00
        E 0 80 55 00
        E 0 80 61 00
        E 80 90 61 60
        E 80 80 61 00
        E 80 90 3e 60
        E 0 90 4b 60
        E 0 90 57 60
        E 0 90 63 60
        E 480 80 3e 00
        E 40 80 4b 00
        E 0 80 57 00
        E 40 80 63 00
        E 80 90 56 60
        E 0 90 62 60
        E 80 80 56 00
        E 0 80 62 00
        E 80 90 63 60
        E 80 80 63 00
        E 21 80 35 00
        E 59 90 37 60
        E 0 90 40 60
        E 0 90 4c 60
        E 0 90 58 60
        E 0 90 64 60
        E 480 80 40 00
        E 120 80 4c 00
        E 0 80 58 00
        E 40 80 64 00
        E 80 90 57 60
        E 0 90 63 60
        E 80 80 57 00
        E 0 80 63 00
        E 160 90 3d 60
        E 0 90 4a 60
        E 0 90 56 60
        E 0 90 62 60
        E 480 80 3d 00
        E 240 80 4a 00
        E 120 80 56 00
        E 40 80 62 00
        E 21 80 37 00
        E 59 90 35 60
        E 0 90 3c 60
        E 0 90 49 60
        E 0 90 55 60
        E 0 90 61 60
        E 480 80 3c 00
        E 240 80 49 00
        E 0 80 55 00
        E 0 80 61 00
        E 80 90 61 60
        E 80 80 61 00
        E 80 90 3e 60
        E 0 90 4b 60
        E 0 90 57 60
        E 0 90 63 60
        E 480 80 3e 00
        E 40 80 4b 00
        E 0 80 57 00
        E 40 80 63 00
        E 80 90 58 60
        E 0 90 64 60
        E 80 80 58 00
        E 0 80 64 00
        E 80 90 63 60
        E 80 80 63 00
        E 21 80 35 00
        E 59 90 32 60
        E 0 90 3d 60
        E 0 90 4a 60
        E 0 90 56 60
        E 0 90 62 60
        E 480 80 3d 00
        E 120 80 4a 00
        E 0 80 56 00
        E 40 80 62 00
        E 80 90 55 60
        E 0 90 61 60
        E 80 80 55 00
        E 0 80 61 00
        E 160 90 3c 60
        E 0 90 48 60
        E 0 90 54 60
        E 0 90 60 60
        E 480 80 3c 00
        E 0 80 48 00
        E 0 80 54 00
        E 0 80 60 00
        E 160 90 54 60
        E 0 90 60 60
        E 80 80 54 00
        E 0 80 60 00
        E 80 90 61 60
        E 80 80 61 00
        E 21 80 32 00
        E 59 90 35 60
        E 0 90 3c 60
        E 0 90 49 60
        E 0 90 55 60
        E 0 90 61 60
        E 480 80 3c 00
        E 240 80 49 00
        E 0 80 55 00
        E 0 80 61 00
        E 80 90 61 60
        E 80 80 61 00
        E 80 90 3e 60
        E 0 90 4b 60
        E 0 90 57 60
        E 0 90 63 60
        E 0 90 74 60
        E 480 80 3e 00
        E 40 80 4b 00
        E 0 80 57 00
        E 40 80 63 00
        E 80 90 56 60
        E 0 90 62 60
        E 80 80 56 00
        E 0 80 62 00
        E 80 90 63 60
        E 80 80 63 00
        E 21 80 35 00
        E 59 90 37 60
        E 0 90 40 60
        E 0 90 4c 60
        E 0 90 58 60
        E 0 90 64 60
        E 480 80 40 00
        E 120 80 4c 00
        E 0 80 58 00
        E 40 80 64 00
        E 80 90 57 60
        E 0 90 63 60
        E 80 80 57 00
        E 0 80 63 00
        E 160 90 3d 60
        E 0 90 4a 60
        E 0 90 56 60
        E 0 90 62 60
        E 480 80 3d 00
        E 240 80 4a 00
        E 120 80 56 00
        E 40 80 62 00
        E 21 80 37 00
        E 59 80 74 00
        E 0 90 35 60
        E 0 90 3c 60
        E 0 90 49 60
        E 0 90 55 60
        E 0 90 61 60
        E 480 80 3c 00
        E 240 80 49 00
        E 0 80 55 00
        E 0 80 61 00
        E 80 90 61 60
        E 80 80 61 00
        E 80 90 3e 60
        E 0 90 4b 60
        E 0 90 57 60
        E 0 90 63 60
        E 480 80 3e 00
        E 40 80 4b 00
        E 0 80 57 00
        E 40 80 63 00
        E 80 90 58 60
        E 0 90 64 60
        E 80 80 58 00
        E 0 80 64 00
        E 80 90 63 60
        E 80 80 63 00
        E 21 80 35 00
        E 59 90 32 60
        E 0 90 3d 60
        E 0 90 4a 60
        E 0 90 56 60
        E 0 90 62 60
        E 480 80 3d 00
        E 120 80 4a 00
        E 0 80 56 00
        E 40 80 62 00
        E 80 90 55 60
        E 0 90 61 60
        E 80 80 55 00
        E 0 80 61 00
        E 160 90 3c 60
        E 0 90 48 60
        E 0 90 54 60
        E 0 90 60 60
        E 480 80 3c 00
        E 0 80 48 00
        E 0 80 54 00
        E 0 80 60 00
        E 160 90 54 60
        E 0 90 60 60
        E 80 80 54 00
        E 0 80 60 00
        E 80 90 61 60
        E 80 80 61 00
        E 21 80 32 00
        E 59 90 2f 60
        E 0 90 3e 60
        E 0 90 4b 60
        E 0 90 57 60
        E 0 90 63 60
        E 480 80 3e 00
        E 40 80 4b 00
        E 0 80 57 00
        E 40 80 63 00
        E 80 90 55 60
        E 0 90 61 60
        E 80 80 55 00
        E 0 80 61 00
        E 80 90 62 60
        E 80 80 62 00
        E 80 90 3e 60
        E 0 90 4b 60
        E 0 90 57 60
        E 0 90 63 60
        E 480 80 3e 00
        E 40 80 4b 00
        E 0 80 57 00
        E 40 80 63 00
        E 80 90 57 60
        E 0 90 63 60
        E 80 80 57 00
        E 0 80 63 00
        E 80 90 62 60
        E 80 80 62 00
        E 80 90 3c 60
        E 0 90 49 60
        E 0 90 55 60
        E 0 90 61 60
        E 480 80 3c 00
        E 120 80 49 00
        E 0 80 55 00
        E 40 80 61 00
        E 80 90 54 60
        E 0 90 60 60
        E 80 80 54 00
        E 0 80 60 00
        E 160 90 3c 60
        E 0 90 49 60
        E 0 90 55 60
        E 0 90 61 60
        E 480 80 3c 00
        E 240 80 49 00
        E 120 80 55 00
        E 40 80 61 00
        E 80 90 3e 60
        E 0 90 4b 60
        E 0 90 57 60
        E 0 90 63 60
        E 480 80 3e 00
        E 40 80 4b 00
        E 0 80 57 00
        E 40 80 63 00
        E 80 90 55 60
        E 0 90 61 60
        E 80 80 55 00
        E 0 80 61 00
        E 80 90 62 60
        E 80 80 62 00
        E 80 90 3e 60
        E 0 90 4b 60
        E 0 90 57 60
        E 0 90 63 60
        E 480 80 3e 00
        E 40 80 4b 00
        E 0 80 57 00
        E 40 80 63 00
        E 21 80 2f 00
        E 59 90 2d 60
        E 0 90 58 60
        E 0 90 64 60
        E 80 80 58 00
        E 0 80 64 00
        E 80 90 63 60
        E 80 80 63 00
        E 21 80 2d 00
        E 59 90 32 60
        E 0 90 3d 60
        E 0 90 4a 60
        E 0 90 56 60
        E 0 90 62 60
        E 480 80 3d 00
        E 240 80 4a 00
        E 120 80 56 00
        E 40 80 62 00
        E 80 90 3c 60
        E 0 90 48 60
        E 0 90 54 60
        E 0 90 60 60
        E 480 80 3c 00
        E 240 80 48 00
        E 120 80 54 00
        E 40 80 60 00
        E 80 90 3c 60
        E 0 90 49 60
        E 0 90 55 60
        E 0 90 61 60
        E 480 80 3c 00
        E 240 80 49 00
        E 120 80 55 00
        E 40 80 61 00
        E 80 90 3e 60
        E 0 90 4b 60
        E 0 90 57 60
        E 0 90 63 60
        E 480 80 3e 00
        E 240 80 4b 00
        E 120 80 57 00
        E 40 80 63 00
        E 80 90 3d 60
        E 0 90 4a 60
        E 0 90 56 60
        E 0 90 62 60
        E 480 80 3d 00
        E 240 80 4a 00
        E 120 80 56 00
        E 40 80 62 00
        E 21 80 32 00
        E 59 90 35 60
        E 0 90 3c 60
        E 0 90 48 60
        E 0 90 54 60
        E 0 90 60 60
        E 480 80 3c 00
        E 40 80 48 00
        E 0 80 54 00
        E 40 80 60 00
        E 80 90 58 60
        E 0 90 64 60
        E 80 80 58 00
        E 0 80 64 00
        E 80 90 63 60
        E 80 80 63 00
        E 80 90 3d 60
        E 0 90 4a 60
        E 0 90 56 60
        E 0 90 62 60
        E 480 80 3d 00
        E 240 80 4a 00
        E 120 80 56 00
        E 40 80 62 00
        E 21 80 35 00
        E 59 90 32 60
        E 0 90 3c 60
        E 0 90 48 60
        E 0 90 54 60
        E 0 90 60 60
        <X 959 0
          /wFbaWRsZV0=
        >
        E 0 80 3c 00
        E 0 80 48 00
        E 0 80 54 00
        E 0 80 60 00
        E 1 80 32 00
        E 3839 b0 7b 00
        GUID {734F5B80-D5B8-485D-833A-7B6030CDF497}
        IGNTEMPO 0 120.00000000 4 4
        SRCCOLOR 2
        VELLANE 132 128 60
        COLORMAP "C:\Program Files\REAPER (x64)\Data\color_maps\rockband_guitarbass.png"
        CFGEDITVIEW -3368.188089 8.506769 4 12 0 0 0
        CFGEDIT 1 1 0 1 1 0 1 1 1 1 1 0.25000000 53 44 1253 718 0 2 1 1 0.00000000 0 1 1 0 0.500000 0 0 1.000000 64
        KEYSNAP 0 7 "102030050700" 0 "Pentatonic"
        EVTFILTER 0 -1 -1 -1 -1 0 1 0 0 -1.00000000 -1.00000000
      >
    >
  >
  <TRACK '{F3CB552C-3872-4FB5-8A54-C7C4DB45E38D}'
    NAME "bass"
    PEAKCOL 16576
    BEAT -1
    AUTOMODE 0
    VOLPAN 1.00000000000000 0.00000000000000 -1.00000000000000 -1.00000000000000 1.00000000000000
    MUTESOLO 0 0 0
    IPHASE 0
    ISBUS 2 -1
    BUSCOMP 0 0
    SHOWINMIX 1 0.666700 0.500000 1 0.500000 -1 -1 -1
    FREEMODE 0
    SEL 0
    REC 0 0 0 0 0 0 0
    VU 2
    TRACKHEIGHT 0 0
    INQ 0 0 0 0.5000000000 100 0 0 100
    NCHAN 2
    FX 1
    TRACKID {F3CB552C-3872-4FB5-8A54-C7C4DB45E38D}
    PERF 0
    MIDIOUT -1
    MAINSEND 1 0
    <ITEM
      POSITION 0.00000000000000
      SNAPOFFS 0.00000000000000
      LENGTH 147.79673469387754
      LOOP 0
      ALLTAKES 0
      SEL 0
      FADEIN 1 0.000000 0.000000 1 0
      FADEOUT 1 0.000000 0.000000 1 0
      MUTE 0
      IGUID {A582E97B-1A7D-4088-ABEC-94CD15669E57}
      IID 23
      NAME "bass.wav"
      VOLPAN 1.000000 0.000000 1.000000 -1.000000
      SOFFS 0.00000000000000
      PLAYRATE 1.00000000000000 1 0.00000000000000 -1
      CHANMODE 0
      GUID {A8021216-91BB-4D15-877E-131509816A30}
      <SOURCE WAVE
        FILE "wav\bass.wav"
      >
    >
  >
  <TRACK '{1D9561EA-CAE9-4E4E-BF29-9924387547A6}'
    NAME "PART GUITAR"
    PEAKCOL 16576
    BEAT -1
    AUTOMODE 0
    VOLPAN 1.00000000000000 0.00000000000000 -1.00000000000000 -1.00000000000000 1.00000000000000
    MUTESOLO 0 0 0
    IPHASE 0
    ISBUS 1 1
    BUSCOMP 0 0
    SHOWINMIX 1 0.666700 0.500000 1 0.500000 -1 -1 -1
    FREEMODE 0
    SEL 0
    REC 0 0 0 0 0 0 0
    VU 2
    TRACKHEIGHT 0 0
    INQ 0 0 0 0.5000000000 100 0 0 100
    NCHAN 2
    FX 1
    TRACKID {1D9561EA-CAE9-4E4E-BF29-9924387547A6}
    PERF 0
    MIDIOUT -1
    <MIDINOTENAMES
      0 127 "TRILL MARKER"
      0 126 "TREMOLO MARKER"
      0 125 "---"
      0 124 "BRE"
      0 123 "BRE"
      0 122 "BRE"
      0 121 "BRE"
      0 120 "BRE (use all 5)"
      0 119 "----"
      0 116 "OVERDRIVE"
      0 115 "----"
      0 103 "Solo Marker"
      0 102 "Force HOPO Off"
      0 101 "Force HOPO On"
      0 100 "EXPERT Orange"
      0 99 "EXPERT Blue"
      0 98 "EXPERT Yellow"
      0 97 "EXPERT Red"
      0 96 "EXPERT Green"
      0 95 "----"
      0 90 "Force HOPO Off"
      0 89 "Force HOPO On"
      0 88 "HARD Orange"
      0 87 "HARD Blue"
      0 86 "HARD Yellow"
      0 85 "HARD Red"
      0 84 "HARD Green"
      0 77 "----"
      0 76 "MEDIUM Orange"
      0 75 "MEDIUM Blue"
      0 74 "MEDIUM Yellow"
      0 73 "MEDIUM Red"
      0 72 "MEDIUM Green"
      0 65 "----"
      0 64 "EASY Orange"
      0 63 "EASY Blue"
      0 62 "EASY Yellow"
      0 61 "EASY Red"
      0 60 "EASY Green"
      0 59 "Fret 12"
      0 57 "Fret 11"
      0 56 "Fret 10"
      0 55 "Fret 9"
      0 53 "Fret 8"
      0 52 "Fret 7"
      0 50 "Fret 6"
      0 49 "Fret 5"
      0 47 "Fret 4"
      0 45 "Fret 3"
      0 43 "Fret 2"
      0 40 "Fret 1"
    >
    MAINSEND 1 0
    <FXCHAIN
      WNDRECT 0 43 891 559
      SHOW 0
      LASTSEL 0
      DOCKED 0
      BYPASS 0 0
      <VST "VSTi: RBN Preview (RBN)" "rbprev_vst64.dll" 0 ""
        dnBicu5e7f4AAAAAAgAAAAEAAAAAAAAAAgAAAAAAAAAEAAAAAQAAAA==
        AAAQAAMAWgAAABAAAAA=
      >
      FLOATPOS 0 0 0 0
      FXID {293C2D5B-AE51-4A9F-A5F2-D570048A7B95}
      WAK 0
    >
    <ITEM
      POSITION 0.00000000000000
      SNAPOFFS 0.00000000000000
      LENGTH 147.79673469387754
      LOOP 0
      ALLTAKES 0
      SEL 0
      FADEIN 1 0.000000 0.000000 1 0
      FADEOUT 1 0.000000 0.000000 1 0
      MUTE 0
      IGUID {D0D91B2C-9DC7-42C9-B3E0-E8B5977DE82E}
      IID 3
      NAME "PART GUITAR"
      VOLPAN 1.000000 0.000000 1.000000 -1.000000
      SOFFS 0.00000000000000 0.00000000000000
      PLAYRATE 1.00000000000000 1 0.00000000000000 -1
      CHANMODE 0
      GUID {1B8C32B2-8781-4A69-8574-DC52892414BE}
      <SOURCE MIDI
        HASDATA 1 480 QN
        POOLEDEVTS {B7A38D65-6ADF-4752-A4A8-C1F601497608}
        <X 0 0
          /wNQQVJUIEdVSVRBUg==
        >
        <X 1920 0
          /wFbaWRsZV0=
        >
        <X 3760 0
          /wFbbWVsbG93XQ==
        >
        E 80 90 28 60
        E 0 90 3e 60
        E 0 90 4b 60
        E 0 90 58 60
        E 0 90 64 60
        E 0 90 74 60
        E 240 80 3e 00
        E 0 80 4b 00
        E 120 80 58 00
        E 40 80 64 00
        E 80 90 4b 60
        E 0 90 57 60
        E 0 90 63 60
        E 80 80 4b 00
        E 0 80 57 00
        E 0 80 63 00
        E 160 90 56 60
        E 0 90 62 60
        E 80 80 56 00
        E 0 80 62 00
        E 160 90 3c 60
        E 0 90 49 60
        E 0 90 55 60
        E 0 90 61 60
        E 240 80 3c 00
        E 0 80 49 00
        E 120 80 55 00
        E 40 80 61 00
        E 80 90 48 60
        E 0 90 54 60
        E 0 90 60 60
        E 240 80 48 00
        E 120 80 54 00
        E 40 80 60 00
        E 80 90 3d 60
        E 0 90 4a 60
        E 0 90 56 60
        E 0 90 62 60
        E 480 80 3d 00
        E 120 80 4a 00
        E 0 80 56 00
        E 40 80 62 00
        E 80 90 57 60
        E 0 90 63 60
        E 80 80 57 00
        E 0 80 63 00
        E 160 90 3e 60
        E 0 90 4b 60
        E 0 90 58 60
        E 0 90 64 60
        E 480 80 3e 00
        E 240 80 4b 00
        E 120 80 58 00
        E 40 80 64 00
        E 80 80 74 00
        E 0 90 3c 60
        E 0 90 49 60
        E 0 90 55 60
        E 0 90 61 60
        E 480 80 3c 00
        E 120 80 49 00
        E 0 80 55 00
        E 40 80 61 00
        E 80 90 56 60
        E 0 90 62 60
        E 80 80 56 00
        E 0 80 62 00
        E 160 90 3e 60
        E 0 90 4b 60
        E 0 90 57 60
        E 0 90 63 60
        E 240 80 3e 00
        E 0 80 4b 00
        E 120 80 57 00
        E 40 80 63 00
        E 80 90 4a 60
        E 0 90 56 60
        E 0 90 62 60
        E 240 80 4a 00
        E 120 80 56 00
        E 40 80 62 00
        E 80 90 3c 60
        E 0 90 49 60
        E 0 90 55 60
        E 0 90 61 60
        E 1440 80 3c 00
        E 240 80 49 00
        E 0 80 55 00
        E 0 80 61 00
        E 240 90 3e 60
        E 0 90 4b 60
        E 0 90 58 60
        E 0 90 64 60
        E 240 80 3e 00
        E 0 80 4b 00
        E 120 80 58 00
        E 40 80 64 00
        E 80 90 4b 60
        E 0 90 57 60
        E 0 90 63 60
        E 80 80 4b 00
        E 0 80 57 00
        E 0 80 63 00
        E 160 90 56 60
        E 0 90 62 60
        E 80 80 56 00
        E 0 80 62 00
        E 160 90 3c 60
        E 0 90 49 60
        E 0 90 55 60
        E 0 90 61 60
        E 240 80 3c 00
        E 0 80 49 00
        E 120 80 55 00
        E 40 80 61 00
        E 80 90 48 60
        E 0 90 54 60
        E 0 90 60 60
        E 240 80 48 00
        E 120 80 54 00
        E 40 80 60 00
        E 80 90 3d 60
        E 0 90 4a 60
        E 0 90 56 60
        E 0 90 62 60
        E 480 80 3d 00
        E 120 80 4a 00
        E 0 80 56 00
        E 40 80 62 00
        E 80 90 57 60
        E 0 90 63 60
        E 80 80 57 00
        E 0 80 63 00
        E 160 90 3e 60
        E 0 90 4b 60
        E 0 90 58 60
        E 0 90 64 60
        E 480 80 3e 00
        E 240 80 4b 00
        E 120 80 58 00
        E 40 80 64 00
        E 80 90 3c 60
        E 0 90 49 60
        E 0 90 55 60
        E 0 90 61 60
        E 480 80 3c 00
        E 120 80 49 00
        E 0 80 55 00
        E 40 80 61 00
        E 80 90 56 60
        E 0 90 62 60
        E 80 80 56 00
        E 0 80 62 00
        E 160 90 3e 60
        E 0 90 4b 60
        E 0 90 57 60
        E 0 90 63 60
        E 240 80 3e 00
        E 0 80 4b 00
        E 120 80 57 00
        E 40 80 63 00
        E 80 90 4a 60
        E 0 90 56 60
        E 0 90 62 60
        E 240 80 4a 00
        E 120 80 56 00
        E 40 80 62 00
        E 80 90 3c 60
        E 0 90 49 60
        E 0 90 55 60
        E 0 90 61 60
        E 1440 80 3c 00
        E 240 80 49 00
        E 0 80 55 00
        E 0 80 61 00
        E 240 90 3d 60
        E 0 90 4a 60
        E 0 90 56 60
        E 0 90 62 60
        E 240 80 3d 00
        E 0 80 4a 00
        E 120 80 56 00
        E 40 80 62 00
        E 80 90 4b 60
        E 0 90 57 60
        E 0 90 63 60
        E 80 80 4b 00
        E 0 80 57 00
        E 0 80 63 00
        E 160 90 56 60
        E 0 90 62 60
        E 80 80 56 00
        E 0 80 62 00
        E 101 80 28 00
        E 59 90 2d 60
        E 0 90 3e 60
        E 0 90 4b 60
        E 0 90 58 60
        E 0 90 64 60
        E 240 80 3e 00
        E 0 80 4b 00
        E 120 80 58 00
        E 40 80 64 00
        E 21 80 2d 00
        E 59 90 28 60
        E 0 90 4b 60
        E 0 90 57 60
        E 0 90 63 60
        E 80 80 4b 00
        E 0 80 57 00
        E 0 80 63 00
        E 160 90 56 60
        E 0 90 62 60
        E 80 80 56 00
        E 0 80 62 00
        E 160 90 3c 60
        E 0 90 48 60
        E 0 90 54 60
        E 0 90 60 60
        E 1440 80 3c 00
        E 240 80 48 00
        E 0 80 54 00
        E 0 80 60 00
        E 240 90 3d 60
        E 0 90 4a 60
        E 0 90 56 60
        E 0 90 62 60
        E 240 80 3d 00
        E 0 80 4a 00
        E 120 80 56 00
        E 40 80 62 00
        E 80 90 4b 60
        E 0 90 57 60
        E 0 90 63 60
        E 80 80 4b 00
        E 0 80 57 00
        E 0 80 63 00
        E 160 90 56 60
        E 0 90 62 60
        E 80 80 56 00
        E 0 80 62 00
        E 101 80 28 00
        E 59 90 2d 60
        E 0 90 3e 60
        E 0 90 4b 60
        E 0 90 58 60
        E 0 90 64 60
        E 120 80 3e 00
        E 120 80 4b 00
        E 120 80 58 00
        E 40 80 64 00
        E 21 80 2d 00
        E 59 90 2f 60
        E 0 90 3e 60
        E 0 90 4b 60
        E 0 90 57 60
        E 0 90 63 60
        E 80 80 3e 00
        E 0 80 4b 00
        E 0 80 57 00
        E 0 80 63 00
        E 160 90 56 60
        E 0 90 62 60
        E 80 80 56 00
        E 0 80 62 00
        E 160 90 3e 60
        E 0 90 4b 60
        E 0 90 57 60
        E 0 90 63 60
        E 240 80 3e 00
        E 0 80 4b 00
        E 120 80 57 00
        E 40 80 63 00
        E 80 90 4a 60
        E 0 90 56 60
        E 0 90 62 60
        E 80 80 4a 00
        E 0 80 56 00
        E 0 80 62 00
        E 160 90 55 60
        E 0 90 61 60
        E 80 80 55 00
        E 0 80 61 00
        E 160 90 3d 60
        E 0 90 4a 60
        E 0 90 56 60
        E 0 90 62 60
        E 480 80 3d 00
        E 120 80 4a 00
        E 0 80 56 00
        E 40 80 62 00
        E 80 90 58 60
        E 0 90 64 60
        E 80 80 58 00
        E 0 80 64 00
        E 160 90 3e 60
        E 0 90 4b 60
        E 0 90 57 60
        E 0 90 63 60
        E 240 80 3e 00
        E 0 80 4b 00
        E 120 80 57 00
        E 40 80 63 00
        E 80 90 4a 60
        E 0 90 56 60
        E 0 90 62 60
        E 80 80 4a 00
        E 0 80 56 00
        E 0 80 62 00
        E 160 90 55 60
        E 0 90 61 60
        E 80 80 55 00
        E 0 80 61 00
        E 160 90 3d 60
        E 0 90 4a 60
        E 0 90 56 60
        E 0 90 62 60
        E 80 80 3d 00
        E 0 80 4a 00
        E 0 80 56 00
        E 0 80 62 00
        E 160 90 57 60
        E 0 90 63 60
        E 80 80 57 00
        E 0 80 63 00
        E 160 90 48 60
        E 0 90 54 60
        E 0 90 60 60
        E 240 80 48 00
        E 120 80 54 00
        E 40 80 60 00
        E 80 90 3e 60
        E 0 90 4b 60
        E 0 90 57 60
        E 0 90 63 60
        E 0 90 74 60
        E 240 80 3e 00
        E 0 80 4b 00
        E 120 80 57 00
        E 40 80 63 00
        E 80 90 4a 60
        E 0 90 56 60
        E 0 90 62 60
        E 80 80 4a 00
        E 0 80 56 00
        E 0 80 62 00
        E 160 90 55 60
        E 0 90 61 60
        E 80 80 55 00
        E 0 80 61 00
        E 160 90 3d 60
        E 0 90 4a 60
        E 0 90 56 60
        E 0 90 62 60
        E 240 80 3d 00
        E 0 80 4a 00
        E 120 80 56 00
        E 40 80 62 00
        E 80 90 4b 60
        E 0 90 57 60
        E 0 90 63 60
        E 240 80 4b 00
        E 120 80 57 00
        E 40 80 63 00
        E 80 90 3e 60
        E 0 90 4b 60
        E 0 90 58 60
        E 0 90 64 60
        E 1440 80 3e 00
        E 240 80 4b 00
        E 0 80 58 00
        E 0 80 64 00
        E 181 80 2f 00
        E 59 90 28 60
        E 0 90 3e 60
        E 0 90 4b 60
        E 0 90 58 60
        E 0 90 64 60
        E 120 80 74 00
        E 120 80 3e 00
        E 0 80 4b 00
        E 120 80 58 00
        E 40 80 64 00
        E 80 90 4b 60
        E 0 90 57 60
        E 0 90 63 60
        E 80 80 4b 00
        E 0 80 57 00
        E 0 80 63 00
        E 160 90 56 60
        E 0 90 62 60
        E 80 80 56 00
        E 0 80 62 00
        E 160 90 3c 60
        E 0 90 49 60
        E 0 90 55 60
        E 0 90 61 60
        E 240 80 3c 00
        E 0 80 49 00
        E 120 80 55 00
        E 40 80 61 00
        E 80 90 48 60
        E 0 90 54 60
        E 0 90 60 60
        E 240 80 48 00
        E 120 80 54 00
        E 40 80 60 00
        E 80 90 3d 60
        E 0 90 4a 60
        E 0 90 56 60
        E 0 90 62 60
        E 480 80 3d 00
        E 120 80 4a 00
        E 0 80 56 00
        E 40 80 62 00
        E 80 90 57 60
        E 0 90 63 60
        E 80 80 57 00
        E 0 80 63 00
        E 160 90 3e 60
        E 0 90 4b 60
        E 0 90 58 60
        E 0 90 64 60
        E 480 80 3e 00
        E 240 80 4b 00
        E 120 80 58 00
        E 40 80 64 00
        E 80 90 3c 60
        E 0 90 49 60
        E 0 90 55 60
        E 0 90 61 60
        E 480 80 3c 00
        E 120 80 49 00
        E 0 80 55 00
        E 40 80 61 00
        E 80 90 56 60
        E 0 90 62 60
        E 80 80 56 00
        E 0 80 62 00
        E 160 90 3e 60
        E 0 90 4b 60
        E 0 90 57 60
        E 0 90 63 60
        E 240 80 3e 00
        E 0 80 4b 00
        E 120 80 57 00
        E 40 80 63 00
        E 80 90 4a 60
        E 0 90 56 60
        E 0 90 62 60
        E 240 80 4a 00
        E 120 80 56 00
        E 40 80 62 00
        E 80 90 3c 60
        E 0 90 49 60
        E 0 90 55 60
        E 0 90 61 60
        E 1440 80 3c 00
        E 240 80 49 00
        E 0 80 55 00
        E 0 80 61 00
        E 240 90 3e 60
        E 0 90 4b 60
        E 0 90 58 60
        E 0 90 64 60
        E 240 80 3e 00
        E 0 80 4b 00
        E 120 80 58 00
        E 40 80 64 00
        E 80 90 4b 60
        E 0 90 57 60
        E 0 90 63 60
        E 80 80 4b 00
        E 0 80 57 00
        E 0 80 63 00
        E 160 90 56 60
        E 0 90 62 60
        E 80 80 56 00
        E 0 80 62 00
        E 160 90 3c 60
        E 0 90 49 60
        E 0 90 55 60
        E 0 90 61 60
        E 240 80 3c 00
        E 0 80 49 00
        E 120 80 55 00
        E 40 80 61 00
        E 80 90 48 60
        E 0 90 54 60
        E 0 90 60 60
        E 240 80 48 00
        E 120 80 54 00
        E 40 80 60 00
        E 80 90 3d 60
        E 0 90 4a 60
        E 0 90 56 60
        E 0 90 62 60
        E 480 80 3d 00
        E 120 80 4a 00
        E 0 80 56 00
        E 40 80 62 00
        E 80 90 57 60
        E 0 90 63 60
        E 80 80 57 00
        E 0 80 63 00
        E 160 90 3e 60
        E 0 90 4b 60
        E 0 90 58 60
        E 0 90 64 60
        E 480 80 3e 00
        E 240 80 4b 00
        E 120 80 58 00
        E 40 80 64 00
        E 80 90 3c 60
        E 0 90 49 60
        E 0 90 55 60
        E 0 90 61 60
        E 0 90 74 60
        E 480 80 3c 00
        E 120 80 49 00
        E 0 80 55 00
        E 40 80 61 00
        E 80 90 56 60
        E 0 90 62 60
        E 80 80 56 00
        E 0 80 62 00
        E 160 90 3e 60
        E 0 90 4b 60
        E 0 90 57 60
        E 0 90 63 60
        E 240 80 3e 00
        E 0 80 4b 00
        E 120 80 57 00
        E 40 80 63 00
        E 80 90 4a 60
        E 0 90 56 60
        E 0 90 62 60
        E 240 80 4a 00
        E 120 80 56 00
        E 40 80 62 00
        E 80 90 3c 60
        E 0 90 49 60
        E 0 90 55 60
        E 0 90 61 60
        E 1440 80 3c 00
        E 240 80 49 00
        E 0 80 55 00
        E 0 80 61 00
        E 240 80 74 00
        E 0 90 3d 60
        E 0 90 4a 60
        E 0 90 56 60
        E 0 90 62 60
        E 240 80 3d 00
        E 0 80 4a 00
        E 120 80 56 00
        E 40 80 62 00
        E 80 90 4b 60
        E 0 90 57 60
        E 0 90 63 60
        E 80 80 4b 00
        E 0 80 57 00
        E 0 80 63 00
        E 160 90 56 60
        E 0 90 62 60
        E 80 80 56 00
        E 0 80 62 00
        E 101 80 28 00
        E 59 90 2d 60
        E 0 90 3e 60
        E 0 90 4b 60
        E 0 90 58 60
        E 0 90 64 60
        E 240 80 3e 00
        E 0 80 4b 00
        E 120 80 58 00
        E 40 80 64 00
        E 21 80 2d 00
        E 59 90 28 60
        E 0 90 4b 60
        E 0 90 57 60
        E 0 90 63 60
        E 80 80 4b 00
        E 0 80 57 00
        E 0 80 63 00
        E 160 90 56 60
        E 0 90 62 60
        E 80 80 56 00
        E 0 80 62 00
        E 160 90 3c 60
        E 0 90 48 60
        E 0 90 54 60
        E 0 90 60 60
        E 1440 80 3c 00
        E 240 80 48 00
        E 0 80 54 00
        E 0 80 60 00
        E 240 90 3d 60
        E 0 90 4a 60
        E 0 90 56 60
        E 0 90 62 60
        E 240 80 3d 00
        E 0 80 4a 00
        E 120 80 56 00
        E 40 80 62 00
        E 80 90 4b 60
        E 0 90 57 60
        E 0 90 63 60
        E 80 80 4b 00
        E 0 80 57 00
        E 0 80 63 00
        E 160 90 56 60
        E 0 90 62 60
        E 80 80 56 00
        E 0 80 62 00
        E 101 80 28 00
        E 59 90 2d 60
        E 0 90 3e 60
        E 0 90 4b 60
        E 0 90 58 60
        E 0 90 64 60
        E 120 80 3e 00
        E 120 80 4b 00
        E 120 80 58 00
        E 40 80 64 00
        E 21 80 2d 00
        E 59 90 2f 60
        E 0 90 3e 60
        E 0 90 4b 60
        E 0 90 57 60
        E 0 90 63 60
        E 80 80 3e 00
        E 0 80 4b 00
        E 0 80 57 00
        E 0 80 63 00
        E 160 90 56 60
        E 0 90 62 60
        E 80 80 56 00
        E 0 80 62 00
        E 160 90 3e 60
        E 0 90 4b 60
        E 0 90 57 60
        E 0 90 63 60
        E 240 80 3e 00
        E 0 80 4b 00
        E 120 80 57 00
        E 40 80 63 00
        E 80 90 4a 60
        E 0 90 56 60
        E 0 90 62 60
        E 80 80 4a 00
        E 0 80 56 00
        E 0 80 62 00
        E 160 90 55 60
        E 0 90 61 60
        E 80 80 55 00
        E 0 80 61 00
        E 160 90 3d 60
        E 0 90 4a 60
        E 0 90 56 60
        E 0 90 62 60
        E 480 80 3d 00
        E 120 80 4a 00
        E 0 80 56 00
        E 40 80 62 00
        E 80 90 58 60
        E 0 90 64 60
        E 80 80 58 00
        E 0 80 64 00
        E 160 90 3e 60
        E 0 90 4b 60
        E 0 90 57 60
        E 0 90 63 60
        E 240 80 3e 00
        E 0 80 4b 00
        E 120 80 57 00
        E 40 80 63 00
        E 80 90 4a 60
        E 0 90 56 60
        E 0 90 62 60
        E 80 80 4a 00
        E 0 80 56 00
        E 0 80 62 00
        E 160 90 55 60
        E 0 90 61 60
        E 80 80 55 00
        E 0 80 61 00
        E 160 90 3d 60
        E 0 90 4a 60
        E 0 90 56 60
        E 0 90 62 60
        E 80 80 3d 00
        E 0 80 4a 00
        E 0 80 56 00
        E 0 80 62 00
        E 160 90 57 60
        E 0 90 63 60
        E 80 80 57 00
        E 0 80 63 00
        E 160 90 48 60
        E 0 90 54 60
        E 0 90 60 60
        E 240 80 48 00
        E 120 80 54 00
        E 40 80 60 00
        E 80 90 3e 60
        E 0 90 4b 60
        E 0 90 57 60
        E 0 90 63 60
        E 240 80 3e 00
        E 0 80 4b 00
        E 120 80 57 00
        E 40 80 63 00
        E 80 90 4a 60
        E 0 90 56 60
        E 0 90 62 60
        E 80 80 4a 00
        E 0 80 56 00
        E 0 80 62 00
        E 160 90 55 60
        E 0 90 61 60
        E 80 80 55 00
        E 0 80 61 00
        E 160 90 3d 60
        E 0 90 4a 60
        E 0 90 56 60
        E 0 90 62 60
        E 240 80 3d 00
        E 0 80 4a 00
        E 120 80 56 00
        E 40 80 62 00
        E 80 90 4b 60
        E 0 90 57 60
        E 0 90 63 60
        E 240 80 4b 00
        E 120 80 57 00
        E 40 80 63 00
        E 80 90 3e 60
        E 0 90 4b 60
        E 0 90 58 60
        E 0 90 64 60
        E 1680 80 2f 00
        E 0 80 3e 00
        E 0 80 4b 00
        E 0 80 58 00
        E 0 80 64 00
        <X 239 0
          /wFbaWRsZV0=
        >
        E 3841 b0 7b 00
        GUID {BDF610CE-330E-443F-A630-80EF2EF0A395}
        IGNTEMPO 0 120.00000000 4 4
        SRCCOLOR 3
        VELLANE 132 128 60
        COLORMAP "C:\Program Files\REAPER (x64)\Data\color_maps\rockband_guitarbass.png"
        CFGEDITVIEW -3360.000016 8.506769 56 12 0 0 0
        CFGEDIT 1 1 0 1 1 0 1 1 1 1 1 0.12500000 53 44 1253 718 0 0 1 1 0.00000000 0 1 1 0 0.500000 0 0 1.000000 64
        KEYSNAP 0 7 "102030050700" 0 "Pentatonic"
        EVTFILTER 0 -1 -1 -1 -1 0 1 0 0 -1.00000000 -1.00000000
      >
    >
  >
  <TRACK '{202D948D-9B14-453A-B701-50ACC5F4B402}'
    NAME "guitar"
    PEAKCOL 16576
    BEAT -1
    AUTOMODE 0
    VOLPAN 1.00000000000000 0.00000000000000 -1.00000000000000 -1.00000000000000 1.00000000000000
    MUTESOLO 0 0 0
    IPHASE 0
    ISBUS 2 -1
    BUSCOMP 0 0
    SHOWINMIX 1 0.666700 0.500000 1 0.500000 -1 -1 -1
    FREEMODE 0
    SEL 0
    REC 0 0 0 0 0 0 0
    VU 2
    TRACKHEIGHT 0 0
    INQ 0 0 0 0.5000000000 100 0 0 100
    NCHAN 2
    FX 1
    TRACKID {202D948D-9B14-453A-B701-50ACC5F4B402}
    PERF 0
    MIDIOUT -1
    MAINSEND 1 0
    <ITEM
      POSITION 0.00000000000000
      SNAPOFFS 0.00000000000000
      LENGTH 147.79673469387754
      LOOP 0
      ALLTAKES 0
      SEL 0
      FADEIN 1 0.000000 0.000000 1 0
      FADEOUT 1 0.000000 0.000000 1 0
      MUTE 0
      IGUID {88BFD990-600C-4B81-AC3F-40749D3D511F}
      IID 20
      NAME "guitar.wav"
      VOLPAN 1.000000 0.000000 1.000000 -1.000000
      SOFFS 0.00000000000000
      PLAYRATE 1.00000000000000 1 0.00000000000000 -1
      CHANMODE 0
      GUID {72699343-CBD5-4315-BC64-94EAE6881AFD}
      <SOURCE WAVE
        FILE "wav\guitar.wav"
      >
    >
  >
  <TRACK '{F3AE0020-9EB7-49B3-A0D5-C106C88FFCD1}'
    NAME "PART KEYS"
    PEAKCOL 16576
    BEAT -1
    AUTOMODE 0
    VOLPAN 1.00000000000000 0.00000000000000 -1.00000000000000 -1.00000000000000 1.00000000000000
    MUTESOLO 0 0 0
    IPHASE 0
    ISBUS 1 1
    BUSCOMP 0 0
    SHOWINMIX 1 0.666700 0.500000 1 0.500000 -1 -1 -1
    FREEMODE 0
    SEL 0
    REC 0 0 0 0 0 0 0
    VU 2
    TRACKHEIGHT 0 0
    INQ 0 0 0 0.5000000000 100 0 0 100
    NCHAN 2
    FX 1
    TRACKID {F3AE0020-9EB7-49B3-A0D5-C106C88FFCD1}
    PERF 0
    MIDIOUT -1
    <MIDINOTENAMES
      0 127 "TRILL MARKER"
      0 125 "---"
      0 124 "BRE"
      0 123 "BRE"
      0 122 "BRE"
      0 121 "BRE"
      0 120 "BRE (use all 5)"
      0 119 "----"
      0 116 "OVERDRIVE"
      0 115 "----"
      0 103 "Solo Marker"
      0 102 "Force HOPO Off"
      0 101 "Force HOPO On"
      0 100 "EXPERT Orange"
      0 99 "EXPERT Blue"
      0 98 "EXPERT Yellow"
      0 97 "EXPERT Red"
      0 96 "EXPERT Green"
      0 95 "----"
      0 90 "Force HOPO Off"
      0 89 "Force HOPO On"
      0 88 "HARD Orange"
      0 87 "HARD Blue"
      0 86 "HARD Yellow"
      0 85 "HARD Red"
      0 84 "HARD Green"
      0 77 "----"
      0 76 "MEDIUM Orange"
      0 75 "MEDIUM Blue"
      0 74 "MEDIUM Yellow"
      0 73 "MEDIUM Red"
      0 72 "MEDIUM Green"
      0 65 "----"
      0 64 "EASY Orange"
      0 63 "EASY Blue"
      0 62 "EASY Yellow"
      0 61 "EASY Red"
      0 60 "EASY Green"
    >
    MAINSEND 1 0
    <FXCHAIN
      WNDRECT 0 43 891 559
      SHOW 0
      LASTSEL 0
      DOCKED 0
      BYPASS 0 0
      <VST "VSTi: RBN Preview (RBN)" "rbprev_vst64.dll" 0 ""
        dnBicu5e7f4AAAAAAgAAAAEAAAAAAAAAAgAAAAAAAAAEAAAAAQAAAA==
        AAAQAAMAWgAAABAAAAA=
      >
      FLOATPOS 0 0 0 0
      FXID {164D28AD-0C82-4D68-BD35-7782F8F2FD7C}
      WAK 0
    >
    <ITEM
      POSITION 0.00000000000000
      SNAPOFFS 0.00000000000000
      LENGTH 147.79673469387754
      LOOP 0
      ALLTAKES 0
      SEL 0
      FADEIN 1 0.000000 0.000000 1 0
      FADEOUT 1 0.000000 0.000000 1 0
      MUTE 0
      IGUID {EC4D3278-8485-4B59-ABC8-5261BAD499DB}
      IID 4
      NAME "PART KEYS"
      VOLPAN 1.000000 0.000000 1.000000 -1.000000
      SOFFS 0.00000000000000 0.00000000000000
      PLAYRATE 1.00000000000000 1 0.00000000000000 -1
      CHANMODE 0
      GUID {5B7AB41C-80C4-4D5E-8914-3FBA4DE7099B}
      <SOURCE MIDI
        HASDATA 1 480 QN
        POOLEDEVTS {1F7A635A-9F26-4FB1-AC4B-9D54BC0AC633}
        <X 0 0
          /wNQQVJUIEtFWVM=
        >
        <X 1800 0
          /wFbbWVsbG93XQ==
        >
        E 120 90 3c 60
        E 0 90 48 60
        E 0 90 54 60
        E 0 90 60 60
        E 80 80 3c 00
        E 0 80 48 00
        E 0 80 54 00
        E 0 80 60 00
        E 0 90 61 60
        E 80 80 61 00
        E 0 90 55 60
        E 0 90 62 60
        E 80 80 55 00
        E 0 80 62 00
        E 0 90 49 60
        E 0 90 60 60
        E 80 80 49 00
        E 0 80 60 00
        E 0 90 56 60
        E 0 90 61 60
        E 80 80 56 00
        E 0 80 61 00
        E 0 90 62 60
        E 80 80 62 00
        E 0 90 3d 60
        E 0 90 4a 60
        E 0 90 57 60
        E 0 90 63 60
        E 80 80 3d 00
        E 0 80 4a 00
        E 0 80 57 00
        E 0 80 63 00
        E 0 90 62 60
        E 80 80 62 00
        E 0 90 56 60
        E 0 90 61 60
        E 80 80 56 00
        E 0 80 61 00
        E 0 90 49 60
        E 0 90 63 60
        E 80 80 49 00
        E 0 80 63 00
        E 0 90 55 60
        E 0 90 62 60
        E 80 80 55 00
        E 0 80 62 00
        E 0 90 61 60
        E 80 80 61 00
        E 0 90 3c 60
        E 0 90 48 60
        E 0 90 54 60
        E 0 90 60 60
        E 80 80 3c 00
        E 0 80 48 00
        E 0 80 54 00
        E 0 80 60 00
        E 0 90 62 60
        E 80 80 62 00
        E 0 90 55 60
        E 0 90 63 60
        E 80 80 55 00
        E 0 80 63 00
        E 0 90 4a 60
        E 0 90 60 60
        E 80 80 4a 00
        E 0 80 60 00
        E 0 90 57 60
        E 0 90 62 60
        E 80 80 57 00
        E 0 80 62 00
        E 0 90 63 60
        E 80 80 63 00
        E 0 90 3e 60
        E 0 90 4b 60
        E 0 90 58 60
        E 0 90 64 60
        E 80 80 3e 00
        E 0 80 4b 00
        E 0 80 58 00
        E 0 80 64 00
        E 0 90 63 60
        E 80 80 63 00
        E 0 90 57 60
        E 0 90 62 60
        E 80 80 57 00
        E 0 80 62 00
        E 0 90 4a 60
        E 0 90 64 60
        E 80 80 4a 00
        E 0 80 64 00
        E 0 90 56 60
        E 0 90 63 60
        E 80 80 56 00
        E 0 80 63 00
        E 0 90 62 60
        E 80 80 62 00
        E 0 90 3c 60
        E 0 90 48 60
        E 0 90 49 60
        E 0 90 55 60
        E 0 90 56 60
        E 0 90 61 60
        E 0 90 62 60
        E 0 90 74 60
        E 120 80 3c 00
        E 120 80 48 00
        E 0 80 49 00
        E 120 80 55 00
        E 0 80 56 00
        E 40 80 61 00
        E 0 80 62 00
        E 80 90 3d 60
        E 0 90 49 60
        E 0 90 4a 60
        E 0 90 56 60
        E 0 90 57 60
        E 0 90 62 60
        E 0 90 63 60
        E 120 80 3d 00
        E 120 80 49 00
        E 0 80 4a 00
        E 120 80 56 00
        E 0 80 57 00
        E 40 80 62 00
        E 0 80 63 00
        E 80 90 3e 60
        E 0 90 48 60
        E 0 90 4a 60
        E 0 90 55 60
        E 0 90 57 60
        E 0 90 61 60
        E 0 90 63 60
        E 120 80 3e 00
        E 120 80 48 00
        E 0 80 4a 00
        E 120 80 55 00
        E 0 80 57 00
        E 40 80 61 00
        E 0 80 63 00
        E 80 90 40 60
        E 0 90 49 60
        E 0 90 4c 60
        E 0 90 55 60
        E 0 90 58 60
        E 0 90 61 60
        E 0 90 64 60
        E 120 80 40 00
        E 120 80 49 00
        E 0 80 4c 00
        E 120 80 55 00
        E 0 80 58 00
        E 40 80 61 00
        E 0 80 64 00
        E 80 80 74 00
        E 0 90 3e 60
        E 0 90 49 60
        E 0 90 4b 60
        E 0 90 55 60
        E 0 90 57 60
        E 0 90 61 60
        E 0 90 63 60
        E 1440 80 3e 00
        E 240 80 49 00
        E 0 80 4b 00
        E 120 80 55 00
        E 0 80 57 00
        E 40 80 61 00
        E 0 80 63 00
        E 80 90 3f 60
        E 0 90 4a 60
        E 0 90 4b 60
        E 0 90 56 60
        E 0 90 57 60
        E 0 90 62 60
        E 0 90 63 60
        E 480 80 3f 00
        E 240 80 4a 00
        E 0 80 4b 00
        E 120 80 56 00
        E 40 80 62 00
        E 80 90 3c 60
        E 0 90 48 60
        E 0 90 54 60
        E 0 90 60 60
        E 480 80 3c 00
        E 240 80 48 00
        E 120 80 57 00
        E 0 80 54 00
        E 40 80 63 00
        E 0 80 60 00
        E 80 90 3e 60
        E 0 90 49 60
        E 0 90 4b 60
        E 0 90 55 60
        E 0 90 57 60
        E 0 90 61 60
        E 0 90 63 60
        E 1440 80 3e 00
        E 240 80 49 00
        E 0 80 4b 00
        E 120 80 55 00
        E 0 80 57 00
        E 40 80 61 00
        E 0 80 63 00
        E 80 90 40 60
        E 0 90 4b 60
        E 0 90 4c 60
        E 0 90 56 60
        E 0 90 58 60
        E 0 90 62 60
        E 0 90 64 60
        E 480 80 40 00
        E 240 80 4b 00
        E 0 80 4c 00
        E 120 80 56 00
        E 40 80 62 00
        E 80 90 3c 60
        E 0 90 48 60
        E 0 90 54 60
        E 0 90 60 60
        E 480 80 3c 00
        E 240 80 48 00
        E 120 80 58 00
        E 0 80 54 00
        E 40 80 64 00
        E 0 80 60 00
        E 80 90 3e 60
        E 0 90 49 60
        E 0 90 4b 60
        E 0 90 55 60
        E 0 90 57 60
        E 0 90 61 60
        E 0 90 63 60
        E 1440 80 3e 00
        E 240 80 49 00
        E 0 80 4b 00
        E 120 80 55 00
        E 0 80 57 00
        E 40 80 61 00
        E 0 80 63 00
        E 80 90 3f 60
        E 0 90 4a 60
        E 0 90 4b 60
        E 0 90 56 60
        E 0 90 57 60
        E 0 90 62 60
        E 0 90 63 60
        E 480 80 3f 00
        E 240 80 4a 00
        E 0 80 4b 00
        E 120 80 56 00
        E 40 80 62 00
        E 80 90 3c 60
        E 0 90 48 60
        E 0 90 54 60
        E 0 90 60 60
        E 480 80 3c 00
        E 240 80 48 00
        E 120 80 57 00
        E 0 80 54 00
        E 40 80 63 00
        E 0 80 60 00
        E 80 90 3e 60
        E 0 90 49 60
        E 0 90 4b 60
        E 0 90 55 60
        E 0 90 57 60
        E 0 90 61 60
        E 0 90 63 60
        E 1440 80 3e 00
        E 240 80 49 00
        E 0 80 4b 00
        E 120 80 55 00
        E 0 80 57 00
        E 40 80 61 00
        E 0 80 63 00
        E 80 90 40 60
        E 0 90 4b 60
        E 0 90 4c 60
        E 0 90 56 60
        E 0 90 58 60
        E 0 90 62 60
        E 0 90 64 60
        E 480 80 40 00
        E 240 80 4b 00
        E 0 80 4c 00
        E 120 80 56 00
        E 40 80 62 00
        E 80 90 3c 60
        E 0 90 48 60
        E 0 90 54 60
        E 0 90 60 60
        E 480 80 3c 00
        E 240 80 48 00
        E 120 80 58 00
        E 0 80 54 00
        E 40 80 64 00
        E 0 80 60 00
        E 80 90 3c 60
        E 0 90 48 60
        E 0 90 49 60
        E 0 90 54 60
        E 0 90 55 60
        E 0 90 60 60
        E 0 90 61 60
        E 240 80 3c 00
        E 0 80 48 00
        E 0 80 49 00
        E 120 80 54 00
        E 0 80 55 00
        E 40 80 61 00
        E 80 90 49 60
        E 0 90 56 60
        E 0 90 62 60
        E 240 80 49 00
        E 120 80 56 00
        E 40 80 62 00
        E 80 90 3e 60
        E 0 90 4a 60
        E 0 90 57 60
        E 0 90 63 60
        E 240 80 3e 00
        E 0 80 4a 00
        E 120 80 57 00
        E 40 80 63 00
        E 80 90 49 60
        E 0 90 55 60
        E 0 90 61 60
        E 240 80 49 00
        E 120 80 55 00
        E 40 80 60 00
        E 0 80 61 00
        E 80 90 3e 60
        E 0 90 49 60
        E 0 90 4b 60
        E 0 90 55 60
        E 0 90 57 60
        E 0 90 61 60
        E 0 90 63 60
        E 480 80 3e 00
        E 240 80 49 00
        E 0 80 4b 00
        E 120 80 55 00
        E 40 80 61 00
        E 80 90 3c 60
        E 0 90 48 60
        E 0 90 54 60
        E 0 90 60 60
        E 480 80 3c 00
        E 240 80 48 00
        E 120 80 57 00
        E 0 80 54 00
        E 40 80 63 00
        E 0 80 60 00
        E 80 90 3c 60
        E 0 90 48 60
        E 0 90 49 60
        E 0 90 54 60
        E 0 90 55 60
        E 0 90 60 60
        E 0 90 61 60
        E 240 80 3c 00
        E 0 80 48 00
        E 0 80 49 00
        E 120 80 54 00
        E 0 80 55 00
        E 40 80 61 00
        E 80 90 49 60
        E 0 90 56 60
        E 0 90 62 60
        E 240 80 49 00
        E 119 80 56 00
        E 40 80 62 00
        E 81 90 3e 60
        E 0 90 4a 60
        E 0 90 57 60
        E 0 90 63 60
        E 240 80 3e 00
        E 0 80 4a 00
        E 120 80 57 00
        E 40 80 63 00
        E 80 90 4b 60
        E 0 90 58 60
        E 0 90 64 60
        E 240 80 4b 00
        E 120 80 58 00
        E 40 80 60 00
        E 0 80 64 00
        E 80 90 3e 60
        E 0 90 49 60
        E 0 90 4a 60
        E 0 90 55 60
        E 0 90 56 60
        E 0 90 61 60
        E 0 90 62 60
        E 480 80 3e 00
        E 240 80 49 00
        E 0 80 4a 00
        E 120 80 55 00
        E 0 80 56 00
        E 40 80 61 00
        E 0 80 62 00
        E 80 90 3d 60
        E 0 90 48 60
        E 0 90 4a 60
        E 0 90 54 60
        E 0 90 57 60
        E 0 90 60 60
        E 0 90 63 60
        E 480 80 3d 00
        E 240 80 48 00
        E 0 80 4a 00
        E 120 80 54 00
        E 0 80 57 00
        E 40 80 60 00
        E 0 80 63 00
        E 80 90 3d 60
        E 0 90 48 60
        E 0 90 4a 60
        E 0 90 54 60
        E 0 90 56 60
        E 0 90 60 60
        E 0 90 62 60
        E 480 80 3d 00
        E 240 80 48 00
        E 0 80 4a 00
        E 120 80 54 00
        E 0 80 56 00
        E 40 80 60 00
        E 0 80 62 00
        E 80 90 3c 60
        E 0 90 48 60
        E 0 90 49 60
        E 0 90 54 60
        E 0 90 55 60
        E 0 90 60 60
        E 0 90 61 60
        E 480 80 3c 00
        E 240 80 48 00
        E 0 80 49 00
        E 120 80 54 00
        E 0 80 55 00
        E 40 80 60 00
        E 0 80 61 00
        E 80 90 3f 60
        E 0 90 4a 60
        E 0 90 4b 60
        E 0 90 56 60
        E 0 90 57 60
        E 0 90 62 60
        E 0 90 63 60
        E 0 90 74 60
        E 480 80 3f 00
        E 240 80 4a 00
        E 0 80 4b 00
        E 120 80 56 00
        E 0 80 57 00
        E 40 80 62 00
        E 0 80 63 00
        E 80 90 3f 60
        E 0 90 4a 60
        E 0 90 4b 60
        E 0 90 55 60
        E 0 90 58 60
        E 0 90 61 60
        E 0 90 64 60
        E 480 80 3f 00
        E 240 80 4a 00
        E 0 80 4b 00
        E 120 80 55 00
        E 0 80 58 00
        E 40 80 61 00
        E 0 80 64 00
        E 80 90 3d 60
        E 0 90 48 60
        E 0 90 4a 60
        E 0 90 54 60
        E 0 90 57 60
        E 0 90 60 60
        E 0 90 63 60
        E 1440 80 3d 00
        E 240 80 48 00
        E 0 80 4a 00
        E 120 80 54 00
        E 0 80 57 00
        E 40 80 60 00
        E 0 80 63 00
        E 80 90 3e 60
        E 0 90 49 60
        E 0 90 4b 60
        E 0 90 55 60
        E 0 90 57 60
        E 0 90 61 60
        E 0 90 63 60
        E 120 80 74 00
        E 1320 80 3e 00
        E 240 80 49 00
        E 0 80 4b 00
        E 120 80 55 00
        E 0 80 57 00
        E 40 80 61 00
        E 0 80 63 00
        E 80 90 3f 60
        E 0 90 4a 60
        E 0 90 4b 60
        E 0 90 56 60
        E 0 90 57 60
        E 0 90 62 60
        E 0 90 63 60
        E 480 80 3f 00
        E 240 80 4a 00
        E 0 80 4b 00
        E 120 80 56 00
        E 40 80 62 00
        E 80 90 3c 60
        E 0 90 48 60
        E 0 90 54 60
        E 0 90 60 60
        E 480 80 3c 00
        E 240 80 48 00
        E 120 80 57 00
        E 0 80 54 00
        E 40 80 63 00
        E 0 80 60 00
        E 80 90 3e 60
        E 0 90 49 60
        E 0 90 4b 60
        E 0 90 55 60
        E 0 90 57 60
        E 0 90 61 60
        E 0 90 63 60
        E 1440 80 3e 00
        E 240 80 49 00
        E 0 80 4b 00
        E 120 80 55 00
        E 0 80 57 00
        E 40 80 61 00
        E 0 80 63 00
        E 80 90 40 60
        E 0 90 4b 60
        E 0 90 4c 60
        E 0 90 56 60
        E 0 90 58 60
        E 0 90 62 60
        E 0 90 64 60
        E 480 80 40 00
        E 240 80 4b 00
        E 0 80 4c 00
        E 120 80 56 00
        E 40 80 62 00
        E 80 90 3c 60
        E 0 90 48 60
        E 0 90 54 60
        E 0 90 60 60
        E 480 80 3c 00
        E 240 80 48 00
        E 120 80 58 00
        E 0 80 54 00
        E 40 80 64 00
        E 0 80 60 00
        E 80 90 3e 60
        E 0 90 49 60
        E 0 90 4b 60
        E 0 90 55 60
        E 0 90 57 60
        E 0 90 61 60
        E 0 90 63 60
        E 1440 80 3e 00
        E 240 80 49 00
        E 0 80 4b 00
        E 120 80 55 00
        E 0 80 57 00
        E 40 80 61 00
        E 0 80 63 00
        E 80 90 3f 60
        E 0 90 4a 60
        E 0 90 4b 60
        E 0 90 56 60
        E 0 90 57 60
        E 0 90 62 60
        E 0 90 63 60
        E 480 80 3f 00
        E 240 80 4a 00
        E 0 80 4b 00
        E 120 80 56 00
        E 40 80 62 00
        E 80 90 3c 60
        E 0 90 48 60
        E 0 90 54 60
        E 0 90 60 60
        E 480 80 3c 00
        E 240 80 48 00
        E 120 80 57 00
        E 0 80 54 00
        E 40 80 63 00
        E 0 80 60 00
        E 80 90 3e 60
        E 0 90 49 60
        E 0 90 4b 60
        E 0 90 55 60
        E 0 90 57 60
        E 0 90 61 60
        E 0 90 63 60
        E 1440 80 3e 00
        E 240 80 49 00
        E 0 80 4b 00
        E 120 80 55 00
        E 0 80 57 00
        E 40 80 61 00
        E 0 80 63 00
        E 80 90 40 60
        E 0 90 4b 60
        E 0 90 4c 60
        E 0 90 56 60
        E 0 90 58 60
        E 0 90 62 60
        E 0 90 64 60
        E 480 80 40 00
        E 240 80 4b 00
        E 0 80 4c 00
        E 120 80 56 00
        E 40 80 62 00
        E 80 90 3c 60
        E 0 90 48 60
        E 0 90 54 60
        E 0 90 60 60
        E 480 80 3c 00
        E 240 80 48 00
        E 120 80 58 00
        E 0 80 54 00
        E 40 80 64 00
        E 0 80 60 00
        E 80 90 3c 60
        E 0 90 48 60
        E 0 90 49 60
        E 0 90 54 60
        E 0 90 55 60
        E 0 90 60 60
        E 0 90 61 60
        E 0 90 74 60
        E 240 80 3c 00
        E 0 80 48 00
        E 0 80 49 00
        E 120 80 54 00
        E 0 80 55 00
        E 40 80 61 00
        E 80 90 49 60
        E 0 90 56 60
        E 0 90 62 60
        E 240 80 49 00
        E 120 80 56 00
        E 40 80 62 00
        E 80 90 3e 60
        E 0 90 4a 60
        E 0 90 57 60
        E 0 90 63 60
        E 240 80 3e 00
        E 0 80 4a 00
        E 120 80 57 00
        E 40 80 63 00
        E 80 90 49 60
        E 0 90 55 60
        E 0 90 61 60
        E 240 80 49 00
        E 120 80 55 00
        E 40 80 60 00
        E 0 80 61 00
        E 80 90 3e 60
        E 0 90 49 60
        E 0 90 4b 60
        E 0 90 55 60
        E 0 90 57 60
        E 0 90 61 60
        E 0 90 63 60
        E 120 80 74 00
        E 360 80 3e 00
        E 240 80 49 00
        E 0 80 4b 00
        E 120 80 55 00
        E 40 80 61 00
        E 80 90 3c 60
        E 0 90 48 60
        E 0 90 54 60
        E 0 90 60 60
        E 480 80 3c 00
        E 240 80 48 00
        E 120 80 57 00
        E 0 80 54 00
        E 40 80 63 00
        E 0 80 60 00
        E 80 90 3c 60
        E 0 90 48 60
        E 0 90 49 60
        E 0 90 54 60
        E 0 90 55 60
        E 0 90 60 60
        E 0 90 61 60
        E 240 80 3c 00
        E 0 80 48 00
        E 0 80 49 00
        E 120 80 54 00
        E 0 80 55 00
        E 40 80 61 00
        E 80 90 49 60
        E 0 90 56 60
        E 0 90 62 60
        E 240 80 49 00
        E 120 80 56 00
        E 40 80 62 00
        E 80 90 3e 60
        E 0 90 4a 60
        E 0 90 57 60
        E 0 90 63 60
        E 240 80 3e 00
        E 0 80 4a 00
        E 120 80 57 00
        E 40 80 63 00
        E 80 90 4b 60
        E 0 90 58 60
        E 0 90 64 60
        E 240 80 4b 00
        E 120 80 58 00
        E 40 80 60 00
        E 0 80 64 00
        E 80 90 3e 60
        E 0 90 49 60
        E 0 90 4a 60
        E 0 90 55 60
        E 0 90 56 60
        E 0 90 61 60
        E 0 90 62 60
        E 480 80 3e 00
        E 240 80 49 00
        E 0 80 4a 00
        E 120 80 55 00
        E 0 80 56 00
        E 40 80 61 00
        E 0 80 62 00
        E 80 90 3d 60
        E 0 90 48 60
        E 0 90 4a 60
        E 0 90 54 60
        E 0 90 57 60
        E 0 90 60 60
        E 0 90 63 60
        E 480 80 3d 00
        E 240 80 48 00
        E 0 80 4a 00
        E 120 80 54 00
        E 0 80 57 00
        E 40 80 60 00
        E 0 80 63 00
        E 80 90 3d 60
        E 0 90 48 60
        E 0 90 4a 60
        E 0 90 54 60
        E 0 90 56 60
        E 0 90 60 60
        E 0 90 62 60
        E 480 80 3d 00
        E 240 80 48 00
        E 0 80 4a 00
        E 120 80 54 00
        E 0 80 56 00
        E 40 80 60 00
        E 0 80 62 00
        E 80 90 3c 60
        E 0 90 48 60
        E 0 90 49 60
        E 0 90 54 60
        E 0 90 55 60
        E 0 90 60 60
        E 0 90 61 60
        E 480 80 3c 00
        E 240 80 48 00
        E 0 80 49 00
        E 120 80 54 00
        E 0 80 55 00
        E 40 80 60 00
        E 0 80 61 00
        E 80 90 3f 60
        E 0 90 4a 60
        E 0 90 4b 60
        E 0 90 56 60
        E 0 90 57 60
        E 0 90 62 60
        E 0 90 63 60
        E 480 80 3f 00
        E 240 80 4a 00
        E 0 80 4b 00
        E 120 80 56 00
        E 0 80 57 00
        E 40 80 62 00
        E 0 80 63 00
        E 80 90 3f 60
        E 0 90 4a 60
        E 0 90 4b 60
        E 0 90 55 60
        E 0 90 58 60
        E 0 90 61 60
        E 0 90 64 60
        E 480 80 3f 00
        E 240 80 4a 00
        E 0 80 4b 00
        E 120 80 55 00
        E 0 80 58 00
        E 40 80 61 00
        E 0 80 64 00
        E 80 90 3d 60
        E 0 90 48 60
        E 0 90 4a 60
        E 0 90 54 60
        E 0 90 57 60
        E 0 90 60 60
        E 0 90 63 60
        <X 1919 0
          /wFbaWRsZV0=
        >
        E 0 80 3d 00
        E 0 80 48 00
        E 0 80 4a 00
        E 0 80 54 00
        E 0 80 57 00
        E 0 80 60 00
        E 0 80 63 00
        E 3841 b0 7b 00
        GUID {26E04AD1-18B1-462C-B722-963E8CD35A59}
        IGNTEMPO 0 120.00000000 4 4
        SRCCOLOR 4
        VELLANE 132 128 60
        COLORMAP "C:\Program Files\REAPER (x64)\Data\color_maps\rockband_guitarbass.png"
        CFGEDITVIEW -3368.188089 8.506769 0 14 0 0 0
        CFGEDIT 1 1 0 1 1 0 1 1 1 1 1 0.12500000 53 44 1253 718 0 2 1 1 0.00000000 0 1 1 0 0.500000 0 0 1.000000 64
        KEYSNAP 0 7 "102030050700" 0 "Pentatonic"
        EVTFILTER 0 -1 -1 -1 -1 0 1 0 0 -1.00000000 -1.00000000
      >
    >
  >
  <TRACK '{9105C5B8-9AA0-47B7-87CF-A411BC80638F}'
    NAME "PART REAL_KEYS_X"
    PEAKCOL 16576
    BEAT -1
    AUTOMODE 0
    VOLPAN 1.00000000000000 0.00000000000000 -1.00000000000000 -1.00000000000000 1.00000000000000
    MUTESOLO 0 0 0
    IPHASE 0
    ISBUS 0 0
    BUSCOMP 0 0
    SHOWINMIX 1 0.666700 0.500000 1 0.500000 -1 -1 -1
    FREEMODE 0
    SEL 0
    REC 0 0 0 0 0 0 0
    VU 2
    TRACKHEIGHT 0 0
    INQ 0 0 0 0.5000000000 100 0 0 100
    NCHAN 2
    FX 0
    TRACKID {9105C5B8-9AA0-47B7-87CF-A411BC80638F}
    PERF 0
    MIDIOUT -1
    <MIDINOTENAMES
      0 127 "TRILL MARKER"
      0 126 "GLISSANDO MARKER"
      0 125 "---"
      0 116 "OVERDRIVE"
      0 115 "SOLO"
      0 114 "---"
      0 72 "Highest playable note B#3"
      0 71 "B3"
      0 70 "A#3"
      0 69 "A3"
      0 68 "G#3"
      0 67 "G3"
      0 66 "F#3"
      0 65 "F3"
      0 64 "E3"
      0 63 "D#3"
      0 62 "D3"
      0 61 "C#3"
      0 60 "C3"
      0 59 "B2"
      0 58 "A#2"
      0 57 "A2"
      0 56 "G#2"
      0 55 "G2"
      0 54 "F#2"
      0 53 "F2"
      0 52 "E2"
      0 51 "D#2"
      0 50 "D2"
      0 49 "C#2"
      0 48 "Lowest playable note C2"
      0 10 "---"
      0 9 "Range A2-C4"
      0 8 "Range"
      0 7 "Range"
      0 6 "Range"
      0 5 "Range F2-A3"
      0 4 "Range"
      0 3 "Range"
      0 2 "Range"
      0 1 "Range"
      0 0 "Range C2-E3"
    >
    MAINSEND 1 0
    <FXCHAIN
      WNDRECT 0 43 655 467
      SHOW 0
      LASTSEL 1
      DOCKED 0
      BYPASS 0 0
      <JS "MIDI/midi_note_filter" ""
        48.000000 72.000000 - - - - - - - - - - - - - - - - - - - - - - - - - - - - - - - - - - - - - - - - - - - - - - - - - - - - - - - - - - - - - - 
      >
      FLOATPOS 0 0 0 0
      FXID {071D5EAB-C542-4465-A88A-BB7950F796F1}
      WAK 0
      BYPASS 0 0
      <VST "VSTi: ReaSynth (Cockos)" "reasynth.dll" 0 ""
        eXNlcu9e7f4AAAAAAgAAAAEAAAAAAAAAAgAAAAAAAAA4AAAAAAAAAA==
        AAAQAO++rd4N8K3eppvEOxe30ToAAIA/AAAAAAAAAADMm4A+6WeIPQ==
        AAAAAAAAAD8AAIA/AACAPwAAAD8AABAAAAA=
      >
      FLOATPOS 0 0 0 0
      FXID {F7D5DA64-DF2A-467C-A417-705ACFCF2BE7}
      WAK 0
    >
    <ITEM
      POSITION 0.00000000000000
      SNAPOFFS 0.00000000000000
      LENGTH 147.79673400000001
      LOOP 0
      ALLTAKES 0
      SEL 0
      FADEIN 1 0.000000 0.000000 1 0
      FADEOUT 1 0.000000 0.000000 1 0
      MUTE 0
      IGUID {5EE0C703-C06B-475A-A9F1-DC722FAD71B5}
      IID 5
      NAME "PART REAL_KEYS_X"
      VOLPAN 1.000000 0.000000 1.000000 -1.000000
      SOFFS 0.00000000000000 0.00000000000000
      PLAYRATE 1.00000000000000 1 0.00000000000000 -1
      CHANMODE 0
      GUID {013A6563-6DD6-4021-A438-1F574D0700F8}
      <SOURCE MIDI
        HASDATA 1 480 QN
        POOLEDEVTS {27732A5D-DBBF-4E53-A805-73DC8AD0C8F4}
        <X 0 0
          /wNQQVJUIFJFQUxfS0VZU19Y
        >
        E 0 90 05 60
        E 80 80 05 00
        <X 1840 0
          /wFbYmVnaW5fa2V5IHNvbmdfdHJhaW5lcl9rZXlfMV0=
        >
        E 0 90 35 60
        E 80 80 35 00
        E 0 90 38 60
        E 80 80 38 00
        E 0 90 3c 60
        E 80 80 3c 00
        E 0 90 35 60
        E 80 80 35 00
        E 0 90 38 60
        E 80 80 38 00
        E 0 90 3c 60
        E 80 80 3c 00
        E 0 90 3d 60
        E 80 80 3d 00
        E 0 90 3a 60
        E 80 80 3a 00
        E 0 90 36 60
        E 80 80 36 00
        E 0 90 3d 60
        E 80 80 3d 00
        E 0 90 3a 60
        E 80 80 3a 00
        E 0 90 36 60
        <X 80 0
          /wFba2V5X25vcm0gc29uZ190cmFpbmVyX2tleV8xXQ==
        >
        E 0 80 36 00
        E 0 90 38 60
        E 80 80 38 00
        E 0 90 3c 60
        E 80 80 3c 00
        E 0 90 3f 60
        E 80 80 3f 00
        E 0 90 38 60
        E 80 80 38 00
        E 0 90 3c 60
        E 80 80 3c 00
        E 0 90 3f 60
        E 80 80 3f 00
        E 0 90 42 60
        E 80 80 42 00
        E 0 90 3d 60
        E 80 80 3d 00
        E 0 90 3a 60
        E 80 80 3a 00
        E 0 90 42 60
        E 80 80 42 00
        E 0 90 3d 60
        E 80 80 3d 00
        E 0 90 3a 60
        E 80 80 3a 00
        E 0 90 38 60
        E 0 90 3c 60
        E 0 90 74 60
        E 360 80 38 00
        E 0 80 3c 00
        E 120 90 36 60
        E 0 90 3a 60
        E 0 90 3d 60
        E 360 80 36 00
        E 0 80 3a 00
        E 0 80 3d 00
        E 120 90 38 60
        E 0 90 3c 60
        E 0 90 3f 60
        E 360 80 38 00
        E 0 80 3c 00
        E 0 80 3f 00
        E 120 90 36 60
        E 0 90 3a 60
        E 0 90 42 60
        E 360 80 36 00
        E 0 80 3a 00
        E 0 80 42 00
        <X 120 0
          /wFbZW5kX2tleSBzb25nX3RyYWluZXJfa2V5XzFd
        >
        <X 0 0
          /wFbYmVnaW5fa2V5IHNvbmdfdHJhaW5lcl9rZXlfMl0=
        >
        E 0 90 3c 60
        E 0 90 41 60
        E 0 80 74 00
        E 1800 80 3c 00
        E 0 80 41 00
        <X 120 0
          /wFba2V5X25vcm0gc29uZ190cmFpbmVyX2tleV8yXQ==
        >
        E 0 90 3d 60
        E 0 90 41 60
        E 840 80 3d 00
        E 120 90 3a 60
        E 840 80 41 00
        E 0 80 3a 00
        E 120 90 3c 60
        E 0 90 41 60
        E 1800 80 3c 00
        E 0 80 41 00
        E 120 90 3d 60
        E 0 90 42 60
        E 840 80 3d 00
        E 120 90 3a 60
        E 840 80 42 00
        E 0 80 3a 00
        <X 120 0
          /wFbZW5kX2tleSBzb25nX3RyYWluZXJfa2V5XzJd
        >
        E 0 90 3c 60
        E 0 90 41 60
        E 1800 80 3c 00
        E 0 80 41 00
        E 120 90 3d 60
        E 0 90 41 60
        E 840 80 3d 00
        E 120 90 3a 60
        E 840 80 41 00
        E 0 80 3a 00
        E 120 90 3c 60
        E 0 90 41 60
        E 1800 80 3c 00
        E 0 80 41 00
        E 120 90 3d 60
        E 0 90 42 60
        E 840 80 3d 00
        E 120 90 3a 60
        E 840 80 42 00
        E 0 80 3a 00
        <X 120 0
          /wFbYmVnaW5fa2V5IHNvbmdfdHJhaW5lcl9rZXlfM10=
        >
        E 0 90 38 60
        E 0 90 3c 60
        E 360 80 3c 00
        E 120 90 3d 60
        E 360 80 3d 00
        <X 120 0
          /wFba2V5X25vcm0gc29uZ190cmFpbmVyX2tleV8zXQ==
        >
        E 0 90 3f 60
        E 360 80 3f 00
        E 120 90 3c 60
        E 360 80 38 00
        E 0 80 3c 00
        E 120 90 38 60
        E 0 90 3d 60
        E 840 80 38 00
        E 120 90 36 60
        E 840 80 3d 00
        E 0 80 36 00
        <X 120 0
          /wFbZW5kX2tleSBzb25nX3RyYWluZXJfa2V5XzNd
        >
        <X 0 0
          /wFbYmVnaW5fa2V5IHNvbmdfdHJhaW5lcl9rZXlfNF0=
        >
        E 0 90 38 60
        E 0 90 3c 60
        E 360 80 3c 00
        E 120 90 3d 60
        E 360 80 3d 00
        E 120 90 3f 60
        E 360 80 3f 00
        E 120 90 44 60
        E 360 80 38 00
        E 0 80 44 00
        E 120 90 36 60
        E 0 90 3d 60
        E 840 80 36 00
        E 0 80 3d 00
        <X 120 0
          /wFba2V5X25vcm0gc29uZ190cmFpbmVyX2tleV80XQ==
        >
        E 0 90 35 60
        E 0 90 3f 60
        E 840 80 35 00
        E 0 80 3f 00
        E 120 90 35 60
        E 0 90 3d 60
        E 840 80 35 00
        E 0 80 3d 00
        E 120 90 35 60
        E 0 90 3c 60
        E 840 80 35 00
        E 0 80 3c 00
        E 120 90 37 60
        E 0 90 3d 60
        E 0 90 74 60
        E 840 80 37 00
        E 0 80 3d 00
        E 120 90 36 60
        E 0 90 3f 60
        E 840 80 36 00
        E 0 80 3f 00
        E 120 90 35 60
        E 0 90 3e 60
        E 1800 80 35 00
        E 0 80 3e 00
        <X 120 0
          /wFbZW5kX2tleSBzb25nX3RyYWluZXJfa2V5XzRd
        >
        E 0 90 3c 60
        E 0 90 41 60
        E 120 80 74 00
        E 1680 80 3c 00
        E 0 80 41 00
        E 120 90 3d 60
        E 0 90 41 60
        E 840 80 3d 00
        E 120 90 3a 60
        E 840 80 41 00
        E 0 80 3a 00
        E 120 90 3c 60
        E 0 90 41 60
        E 1800 80 3c 00
        E 0 80 41 00
        E 120 90 3d 60
        E 0 90 42 60
        E 960 80 3d 00
        E 0 90 3a 60
        E 840 80 42 00
        E 0 80 3a 00
        E 120 90 3c 60
        E 0 90 41 60
        E 1800 80 3c 00
        E 0 80 41 00
        E 120 90 3d 60
        E 0 90 41 60
        E 840 80 3d 00
        E 120 90 3a 60
        E 840 80 41 00
        E 0 80 3a 00
        E 120 90 3c 60
        E 0 90 41 60
        E 1800 80 3c 00
        E 0 80 41 00
        E 120 90 3d 60
        E 0 90 42 60
        E 960 80 3d 00
        E 0 90 3a 60
        E 840 80 42 00
        E 0 80 3a 00
        E 120 90 38 60
        E 0 90 3c 60
        E 0 90 74 60
        E 360 80 3c 00
        E 120 90 3d 60
        E 360 80 3d 00
        E 120 90 3f 60
        E 360 80 3f 00
        E 120 90 3c 60
        E 360 80 38 00
        E 0 80 3c 00
        E 120 90 38 60
        E 0 90 3d 60
        E 120 80 74 00
        E 720 80 38 00
        E 120 90 36 60
        E 840 80 3d 00
        E 0 80 36 00
        E 120 90 38 60
        E 0 90 3c 60
        E 360 80 3c 00
        E 120 90 3d 60
        E 360 80 3d 00
        E 120 90 3f 60
        E 360 80 3f 00
        E 120 90 44 60
        E 360 80 38 00
        E 0 80 44 00
        E 120 90 36 60
        E 0 90 3d 60
        E 840 80 36 00
        E 0 80 3d 00
        E 120 90 35 60
        E 0 90 3f 60
        E 840 80 35 00
        E 0 80 3f 00
        E 120 90 35 60
        E 0 90 3d 60
        E 840 80 35 00
        E 0 80 3d 00
        E 120 90 35 60
        E 0 90 3c 60
        E 840 80 35 00
        E 0 80 3c 00
        E 120 90 37 60
        E 0 90 3d 60
        E 840 80 37 00
        E 0 80 3d 00
        E 120 90 36 60
        E 0 90 3f 60
        E 840 80 36 00
        E 0 80 3f 00
        E 120 90 35 60
        E 0 90 3e 60
        E 1919 80 35 00
        E 0 80 3e 00
        E 3840 b0 7b 00
        GUID {D358CA9F-EA2D-4063-BB6F-79660F9928AB}
        IGNTEMPO 0 120.00000000 4 4
        SRCCOLOR 5
        VELLANE 132 128 60
        COLORMAP "C:\Program Files\REAPER (x64)\Data\color_maps\rockband_guitarbass.png"
        CFGEDITVIEW -8493.524042 6.907521 0 13 0 0 0
        CFGEDIT 1 1 0 1 1 0 1 1 1 1 1 0.12500000 53 44 1253 718 0 2 1 1 0.00000000 0 1 1 0 0.500000 0 0 1.000000 64
        KEYSNAP 0 7 "102030050700" 0 "Pentatonic"
        EVTFILTER 0 -1 -1 -1 -1 0 1 0 0 -1.00000000 -1.00000000
      >
    >
  >
  <TRACK '{0A9F2876-F02E-405D-9438-B91071C5DB0B}'
    NAME "PART REAL_KEYS_H"
    PEAKCOL 16576
    BEAT -1
    AUTOMODE 0
    VOLPAN 1.00000000000000 0.00000000000000 -1.00000000000000 -1.00000000000000 1.00000000000000
    MUTESOLO 0 0 0
    IPHASE 0
    ISBUS 0 0
    BUSCOMP 0 0
    SHOWINMIX 1 0.666700 0.500000 1 0.500000 -1 -1 -1
    FREEMODE 0
    SEL 0
    REC 0 0 0 0 0 0 0
    VU 2
    TRACKHEIGHT 0 0
    INQ 0 0 0 0.5000000000 100 0 0 100
    NCHAN 2
    FX 1
    TRACKID {0A9F2876-F02E-405D-9438-B91071C5DB0B}
    PERF 0
    MIDIOUT -1
    <MIDINOTENAMES
      0 72 "Highest playable note B#3"
      0 71 "B3"
      0 70 "A#3"
      0 69 "A3"
      0 68 "G#3"
      0 67 "G3"
      0 66 "F#3"
      0 65 "F3"
      0 64 "E3"
      0 63 "D#3"
      0 62 "D3"
      0 61 "C#3"
      0 60 "C3"
      0 59 "B2"
      0 58 "A#2"
      0 57 "A2"
      0 56 "G#2"
      0 55 "G2"
      0 54 "F#2"
      0 53 "F2"
      0 52 "E2"
      0 51 "D#2"
      0 50 "D2"
      0 49 "C#2"
      0 48 "Lowest playable note C2"
      0 10 "---"
      0 9 "Range A2-C4"
      0 8 "Range"
      0 7 "Range"
      0 6 "Range"
      0 5 "Range F2-A3"
      0 4 "Range"
      0 3 "Range"
      0 2 "Range"
      0 1 "Range"
      0 0 "Range C2-E3"
    >
    MAINSEND 1 0
    <FXCHAIN
      SHOW 0
      LASTSEL 0
      DOCKED 0
    >
    <ITEM
      POSITION 0.00000000000000
      SNAPOFFS 0.00000000000000
      LENGTH 147.79673400000001
      LOOP 0
      ALLTAKES 0
      SEL 0
      FADEIN 1 0.000000 0.000000 1 0
      FADEOUT 1 0.000000 0.000000 1 0
      MUTE 0
      IGUID {CFB86B76-E213-4A79-B175-2AD45E299FEF}
      IID 6
      NAME "PART REAL_KEYS_H"
      VOLPAN 1.000000 0.000000 1.000000 -1.000000
      SOFFS 0.00000000000000 0.00000000000000
      PLAYRATE 1.00000000000000 1 0.00000000000000 -1
      CHANMODE 0
      GUID {8247A122-C4D9-4A2B-B8F9-C708C539C2B3}
      <SOURCE MIDI
        HASDATA 1 480 QN
        POOLEDEVTS {2EBEE1A3-C423-48CE-BC4F-A6E33838A5DB}
        <X 0 0
          /wNQQVJUIFJFQUxfS0VZU19I
        >
        E 0 90 05 60
        E 80 80 05 00
        E 1840 90 35 60
        E 80 80 35 00
        E 80 90 3c 60
        E 80 80 3c 00
        E 80 90 38 60
        E 80 80 38 00
        E 80 90 3d 60
        E 80 80 3d 00
        E 80 90 36 60
        E 80 80 36 00
        E 80 90 3a 60
        E 80 80 3a 00
        E 80 90 38 60
        E 80 80 38 00
        E 80 90 3f 60
        E 80 80 3f 00
        E 80 90 3c 60
        E 80 80 3c 00
        E 80 90 42 60
        E 80 80 42 00
        E 80 90 3a 60
        E 80 80 3a 00
        E 80 90 3d 60
        E 80 80 3d 00
        E 80 90 38 60
        E 0 90 3c 60
        E 360 80 38 00
        E 0 80 3c 00
        E 120 90 3a 60
        E 0 90 3d 60
        E 360 80 3a 00
        E 0 80 3d 00
        E 120 90 3c 60
        E 0 90 3f 60
        E 360 80 3c 00
        E 0 80 3f 00
        E 120 90 3a 60
        E 0 90 42 60
        E 360 80 3a 00
        E 0 80 42 00
        E 120 90 3c 60
        E 0 90 41 60
        E 1800 80 3c 00
        E 0 80 41 00
        E 120 90 3d 60
        E 0 90 41 60
        E 840 80 3d 00
        E 120 90 3a 60
        E 840 80 41 00
        E 0 80 3a 00
        E 120 90 3c 60
        E 0 90 41 60
        E 1800 80 3c 00
        E 0 80 41 00
        E 120 90 3d 60
        E 0 90 42 60
        E 840 80 3d 00
        E 120 90 3a 60
        E 840 80 42 00
        E 0 80 3a 00
        E 120 90 3c 60
        E 0 90 41 60
        E 1800 80 3c 00
        E 0 80 41 00
        E 120 90 3d 60
        E 0 90 41 60
        E 840 80 3d 00
        E 120 90 3a 60
        E 840 80 41 00
        E 0 80 3a 00
        E 120 90 3c 60
        E 0 90 41 60
        E 1800 80 3c 00
        E 0 80 41 00
        E 120 90 3d 60
        E 0 90 42 60
        E 840 80 3d 00
        E 120 90 3a 60
        E 840 80 42 00
        E 0 80 3a 00
        E 120 90 38 60
        E 0 90 3c 60
        E 360 80 3c 00
        E 120 90 3d 60
        E 360 80 3d 00
        E 120 90 3f 60
        E 360 80 3f 00
        E 120 90 3c 60
        E 360 80 38 00
        E 0 80 3c 00
        E 120 90 38 60
        E 0 90 3d 60
        E 840 80 38 00
        E 120 90 36 60
        E 840 80 3d 00
        E 0 80 36 00
        E 120 90 38 60
        E 0 90 3c 60
        E 360 80 3c 00
        E 120 90 3d 60
        E 360 80 3d 00
        E 120 90 3f 60
        E 360 80 3f 00
        E 120 90 44 60
        E 360 80 38 00
        E 0 80 44 00
        E 120 90 36 60
        E 0 90 3d 60
        E 840 80 36 00
        E 0 80 3d 00
        E 120 90 35 60
        E 0 90 3f 60
        E 840 80 35 00
        E 0 80 3f 00
        E 120 90 35 60
        E 0 90 3d 60
        E 840 80 35 00
        E 0 80 3d 00
        E 120 90 35 60
        E 0 90 3c 60
        E 840 80 35 00
        E 0 80 3c 00
        E 120 90 37 60
        E 0 90 3d 60
        E 840 80 37 00
        E 0 80 3d 00
        E 120 90 36 60
        E 0 90 3f 60
        E 840 80 36 00
        E 0 80 3f 00
        E 120 90 35 60
        E 0 90 3e 60
        E 1800 80 35 00
        E 0 80 3e 00
        E 120 90 3c 60
        E 0 90 41 60
        E 1800 80 3c 00
        E 0 80 41 00
        E 120 90 3d 60
        E 0 90 41 60
        E 840 80 3d 00
        E 120 90 3a 60
        E 840 80 41 00
        E 0 80 3a 00
        E 120 90 3c 60
        E 0 90 41 60
        E 1800 80 3c 00
        E 0 80 41 00
        E 120 90 3d 60
        E 0 90 42 60
        E 960 80 3d 00
        E 0 90 3a 60
        E 840 80 42 00
        E 0 80 3a 00
        E 120 90 3c 60
        E 0 90 41 60
        E 1800 80 3c 00
        E 0 80 41 00
        E 120 90 3d 60
        E 0 90 41 60
        E 840 80 3d 00
        E 120 90 3a 60
        E 840 80 41 00
        E 0 80 3a 00
        E 120 90 3c 60
        E 0 90 41 60
        E 1800 80 3c 00
        E 0 80 41 00
        E 120 90 3d 60
        E 0 90 42 60
        E 960 80 3d 00
        E 0 90 3a 60
        E 840 80 42 00
        E 0 80 3a 00
        E 120 90 38 60
        E 0 90 3c 60
        E 360 80 3c 00
        E 120 90 3d 60
        E 360 80 3d 00
        E 120 90 3f 60
        E 360 80 3f 00
        E 120 90 3c 60
        E 360 80 38 00
        E 0 80 3c 00
        E 120 90 38 60
        E 0 90 3d 60
        E 840 80 38 00
        E 120 90 36 60
        E 840 80 3d 00
        E 0 80 36 00
        E 120 90 38 60
        E 0 90 3c 60
        E 360 80 3c 00
        E 120 90 3d 60
        E 360 80 3d 00
        E 120 90 3f 60
        E 360 80 3f 00
        E 120 90 44 60
        E 360 80 38 00
        E 0 80 44 00
        E 120 90 36 60
        E 0 90 3d 60
        E 840 80 36 00
        E 0 80 3d 00
        E 120 90 35 60
        E 0 90 3f 60
        E 840 80 35 00
        E 0 80 3f 00
        E 120 90 35 60
        E 0 90 3d 60
        E 840 80 35 00
        E 0 80 3d 00
        E 120 90 35 60
        E 0 90 3c 60
        E 840 80 35 00
        E 0 80 3c 00
        E 120 90 37 60
        E 0 90 3d 60
        E 840 80 37 00
        E 0 80 3d 00
        E 120 90 36 60
        E 0 90 3f 60
        E 840 80 36 00
        E 0 80 3f 00
        E 120 90 35 60
        E 0 90 3e 60
        E 1919 80 35 00
        E 0 80 3e 00
        E 3840 b0 7b 00
        GUID {C9012F6C-0ACC-4E66-A80B-AAC5CE4EDF11}
        IGNTEMPO 0 120.00000000 4 4
        SRCCOLOR 6
        VELLANE 132 128 60
        COLORMAP "C:\Program Files\REAPER (x64)\Data\color_maps\rockband_guitarbass.png"
        CFGEDITVIEW -8493.524042 6.907521 0 15 0 0 0
        CFGEDIT 1 1 0 1 1 0 1 1 1 1 1 0.12500000 -8 -8 1544 872 0 2 1 1 0.00000000 0 1 0 0 0.500000 0 0 1.000000 64
        KEYSNAP 0 7 "102030050700" 0 "Pentatonic"
        EVTFILTER 0 -1 -1 -1 -1 0 1 0 0 -1.00000000 -1.00000000
      >
    >
  >
  <TRACK '{C74CDC7A-51BB-41BB-A886-E5DA15F453CD}'
    NAME "PART REAL_KEYS_M"
    PEAKCOL 16576
    BEAT -1
    AUTOMODE 0
    VOLPAN 1.00000000000000 0.00000000000000 -1.00000000000000 -1.00000000000000 1.00000000000000
    MUTESOLO 0 0 0
    IPHASE 0
    ISBUS 0 0
    BUSCOMP 0 0
    SHOWINMIX 1 0.666700 0.500000 1 0.500000 -1 -1 -1
    FREEMODE 0
    SEL 0
    REC 0 0 0 0 0 0 0
    VU 2
    TRACKHEIGHT 0 0
    INQ 0 0 0 0.5000000000 100 0 0 100
    NCHAN 2
    FX 1
    TRACKID {C74CDC7A-51BB-41BB-A886-E5DA15F453CD}
    PERF 0
    MIDIOUT -1
    <MIDINOTENAMES
      0 72 "Highest playable note B#3"
      0 71 "B3"
      0 70 "A#3"
      0 69 "A3"
      0 68 "G#3"
      0 67 "G3"
      0 66 "F#3"
      0 65 "F3"
      0 64 "E3"
      0 63 "D#3"
      0 62 "D3"
      0 61 "C#3"
      0 60 "C3"
      0 59 "B2"
      0 58 "A#2"
      0 57 "A2"
      0 56 "G#2"
      0 55 "G2"
      0 54 "F#2"
      0 53 "F2"
      0 52 "E2"
      0 51 "D#2"
      0 50 "D2"
      0 49 "C#2"
      0 48 "Lowest playable note C2"
      0 10 "---"
      0 9 "Range A2-C4"
      0 8 "Range"
      0 7 "Range"
      0 6 "Range"
      0 5 "Range F2-A3"
      0 4 "Range"
      0 3 "Range"
      0 2 "Range"
      0 1 "Range"
      0 0 "Range C2-E3"
    >
    MAINSEND 1 0
    <FXCHAIN
      SHOW 0
      LASTSEL 0
      DOCKED 0
    >
    <ITEM
      POSITION 0.00000000000000
      SNAPOFFS 0.00000000000000
      LENGTH 147.79673400000001
      LOOP 0
      ALLTAKES 0
      SEL 0
      FADEIN 1 0.000000 0.000000 1 0
      FADEOUT 1 0.000000 0.000000 1 0
      MUTE 0
      IGUID {6E214C00-5D28-432E-B666-1B9D2824141A}
      IID 7
      NAME "PART REAL_KEYS_M"
      VOLPAN 1.000000 0.000000 1.000000 -1.000000
      SOFFS 0.00000000000000 0.00000000000000
      PLAYRATE 1.00000000000000 1 0.00000000000000 -1
      CHANMODE 0
      GUID {7208E4C9-2E9A-442C-83B6-E271D3157EBB}
      <SOURCE MIDI
        HASDATA 1 480 QN
        POOLEDEVTS {B99A5A95-A917-49AF-BE0E-F0D413ECE351}
        <X 0 0
          /wNQQVJUIFJFQUxfS0VZU19N
        >
        E 0 90 05 60
        E 80 80 05 00
        E 1840 90 35 60
        E 80 80 35 00
        E 400 90 3d 60
        E 80 80 3d 00
        E 400 90 38 60
        E 80 80 38 00
        E 400 90 42 60
        E 80 80 42 00
        E 400 90 3c 60
        E 120 80 3c 00
        E 360 90 3d 60
        E 120 80 3d 00
        E 360 90 3f 60
        E 120 80 3f 00
        E 360 90 42 60
        E 120 80 42 00
        E 360 90 3c 60
        E 0 90 41 60
        E 1560 80 3c 00
        E 0 80 41 00
        E 360 90 3d 60
        E 0 90 41 60
        E 600 80 3d 00
        E 360 90 3a 60
        E 600 80 41 00
        E 0 80 3a 00
        E 360 90 3c 60
        E 0 90 41 60
        E 1560 80 3c 00
        E 0 80 41 00
        E 360 90 3d 60
        E 0 90 42 60
        E 600 80 3d 00
        E 360 90 3a 60
        E 600 80 42 00
        E 0 80 3a 00
        E 360 90 3c 60
        E 0 90 41 60
        E 1560 80 3c 00
        E 0 80 41 00
        E 360 90 3d 60
        E 0 90 41 60
        E 600 80 3d 00
        E 360 90 3a 60
        E 600 80 41 00
        E 0 80 3a 00
        E 360 90 3c 60
        E 0 90 41 60
        E 1560 80 3c 00
        E 0 80 41 00
        E 360 90 3d 60
        E 0 90 42 60
        E 600 80 3d 00
        E 360 90 3a 60
        E 600 80 42 00
        E 0 80 3a 00
        E 360 90 3c 60
        E 120 80 3c 00
        E 360 90 3d 60
        E 120 80 3d 00
        E 360 90 3f 60
        E 120 80 3f 00
        E 360 90 3c 60
        E 120 80 3c 00
        E 360 90 38 60
        E 600 80 38 00
        E 360 90 36 60
        E 600 80 36 00
        E 360 90 3c 60
        E 120 80 3c 00
        E 360 90 3d 60
        E 120 80 3d 00
        E 360 90 3f 60
        E 120 80 3f 00
        E 360 90 44 60
        E 120 80 44 00
        E 360 90 3d 60
        E 600 80 3d 00
        E 360 90 3f 60
        E 600 80 3f 00
        E 360 90 3d 60
        E 600 80 3d 00
        E 360 90 3c 60
        E 600 80 3c 00
        E 360 90 3d 60
        E 600 80 3d 00
        E 360 90 3f 60
        E 600 80 3f 00
        E 360 90 3e 60
        E 1560 80 3e 00
        E 360 90 3c 60
        E 0 90 41 60
        E 1560 80 3c 00
        E 0 80 41 00
        E 360 90 3d 60
        E 0 90 41 60
        E 600 80 3d 00
        E 360 90 3a 60
        E 600 80 41 00
        E 0 80 3a 00
        E 360 90 3c 60
        E 0 90 41 60
        E 1560 80 3c 00
        E 0 80 41 00
        E 360 90 3d 60
        E 0 90 42 60
        E 720 80 3d 00
        E 240 90 3a 60
        E 600 80 42 00
        E 0 80 3a 00
        E 360 90 3c 60
        E 0 90 41 60
        E 1560 80 3c 00
        E 0 80 41 00
        E 360 90 3d 60
        E 0 90 41 60
        E 600 80 3d 00
        E 360 90 3a 60
        E 600 80 41 00
        E 0 80 3a 00
        E 360 90 3c 60
        E 0 90 41 60
        E 1560 80 3c 00
        E 0 80 41 00
        E 360 90 3d 60
        E 0 90 42 60
        E 720 80 3d 00
        E 240 90 3a 60
        E 600 80 42 00
        E 0 80 3a 00
        E 360 90 3c 60
        E 120 80 3c 00
        E 360 90 3d 60
        E 120 80 3d 00
        E 360 90 3f 60
        E 120 80 3f 00
        E 360 90 3c 60
        E 120 80 3c 00
        E 360 90 38 60
        E 600 80 38 00
        E 360 90 36 60
        E 600 80 36 00
        E 360 90 3c 60
        E 120 80 3c 00
        E 360 90 3d 60
        E 120 80 3d 00
        E 360 90 3f 60
        E 120 80 3f 00
        E 360 90 44 60
        E 120 80 44 00
        E 360 90 3d 60
        E 600 80 3d 00
        E 360 90 3f 60
        E 600 80 3f 00
        E 360 90 3d 60
        E 600 80 3d 00
        E 360 90 3c 60
        E 600 80 3c 00
        E 360 90 3d 60
        E 600 80 3d 00
        E 360 90 3f 60
        E 600 80 3f 00
        E 360 90 3e 60
        E 1919 80 3e 00
        E 3840 b0 7b 00
        GUID {42486F12-09BE-4580-9C65-0E6A57B210C7}
        IGNTEMPO 0 120.00000000 4 4
        SRCCOLOR 7
        VELLANE 132 128 60
        COLORMAP "C:\Program Files\REAPER (x64)\Data\color_maps\rockband_guitarbass.png"
        CFGEDITVIEW -8493.524042 6.907521 0 15 0 0 0
        CFGEDIT 1 1 0 1 1 0 1 1 1 1 1 0.12500000 -8 -8 1544 872 0 2 1 1 0.00000000 0 1 0 0 0.500000 0 0 1.000000 64
        KEYSNAP 0 7 "102030050700" 0 "Pentatonic"
        EVTFILTER 0 -1 -1 -1 -1 0 1 0 0 -1.00000000 -1.00000000
      >
    >
  >
  <TRACK '{E06CF20E-FBCF-4246-A9D4-BFA7EADC1ED3}'
    NAME "PART REAL_KEYS_E"
    PEAKCOL 16576
    BEAT -1
    AUTOMODE 0
    VOLPAN 1.00000000000000 0.00000000000000 -1.00000000000000 -1.00000000000000 1.00000000000000
    MUTESOLO 0 0 0
    IPHASE 0
    ISBUS 0 0
    BUSCOMP 0 0
    SHOWINMIX 1 0.666700 0.500000 1 0.500000 -1 -1 -1
    FREEMODE 0
    SEL 0
    REC 0 0 0 0 0 0 0
    VU 2
    TRACKHEIGHT 0 0
    INQ 0 0 0 0.5000000000 100 0 0 100
    NCHAN 2
    FX 1
    TRACKID {E06CF20E-FBCF-4246-A9D4-BFA7EADC1ED3}
    PERF 0
    MIDIOUT -1
    <MIDINOTENAMES
      0 72 "Highest playable note B#3"
      0 71 "B3"
      0 70 "A#3"
      0 69 "A3"
      0 68 "G#3"
      0 67 "G3"
      0 66 "F#3"
      0 65 "F3"
      0 64 "E3"
      0 63 "D#3"
      0 62 "D3"
      0 61 "C#3"
      0 60 "C3"
      0 59 "B2"
      0 58 "A#2"
      0 57 "A2"
      0 56 "G#2"
      0 55 "G2"
      0 54 "F#2"
      0 53 "F2"
      0 52 "E2"
      0 51 "D#2"
      0 50 "D2"
      0 49 "C#2"
      0 48 "Lowest playable note C2"
      0 10 "---"
      0 9 "Range A2-C4"
      0 8 "Range"
      0 7 "Range"
      0 6 "Range"
      0 5 "Range F2-A3"
      0 4 "Range"
      0 3 "Range"
      0 2 "Range"
      0 1 "Range"
      0 0 "Range C2-E3"
    >
    MAINSEND 1 0
    <FXCHAIN
      SHOW 0
      LASTSEL 0
      DOCKED 0
    >
    <ITEM
      POSITION 0.00000000000000
      SNAPOFFS 0.00000000000000
      LENGTH 147.79673400000001
      LOOP 0
      ALLTAKES 0
      SEL 0
      FADEIN 1 0.000000 0.000000 1 0
      FADEOUT 1 0.000000 0.000000 1 0
      MUTE 0
      IGUID {E55B78DD-EA0D-4ED6-89D7-0787CA040593}
      IID 8
      NAME "PART REAL_KEYS_E"
      VOLPAN 1.000000 0.000000 1.000000 -1.000000
      SOFFS 0.00000000000000 0.00000000000000
      PLAYRATE 1.00000000000000 1 0.00000000000000 -1
      CHANMODE 0
      GUID {E2463B66-FA08-4767-BA3D-7AFC1EE5CBF7}
      <SOURCE MIDI
        HASDATA 1 480 QN
        POOLEDEVTS {C49F4FA1-713D-4BBB-9054-3551448593FF}
        <X 0 0
          /wNQQVJUIFJFQUxfS0VZU19F
        >
        E 0 90 05 60
        E 80 80 05 00
        E 1840 90 35 60
        E 120 80 35 00
        E 840 90 38 60
        E 120 80 38 00
        E 840 90 3c 60
        E 480 80 3c 00
        E 480 90 3f 60
        E 480 80 3f 00
        E 480 90 41 60
        E 1440 80 41 00
        E 480 90 3d 60
        E 480 80 3d 00
        E 480 90 3a 60
        E 480 80 3a 00
        E 480 90 3c 60
        E 1440 80 3c 00
        E 480 90 3d 60
        E 480 80 3d 00
        E 480 90 3a 60
        E 480 80 3a 00
        E 480 90 41 60
        E 1440 80 41 00
        E 480 90 3d 60
        E 480 80 3d 00
        E 480 90 3a 60
        E 480 80 3a 00
        E 480 90 3c 60
        E 1440 80 3c 00
        E 480 90 3d 60
        E 480 80 3d 00
        E 480 90 3a 60
        E 480 80 3a 00
        E 480 90 3c 60
        E 480 80 3c 00
        E 480 90 3f 60
        E 480 80 3f 00
        E 480 90 38 60
        E 840 80 38 00
        E 120 90 36 60
        E 840 80 36 00
        E 120 90 3c 60
        E 480 80 3c 00
        E 480 90 3f 60
        E 480 80 3f 00
        E 480 90 3d 60
        E 480 80 3d 00
        E 480 90 3f 60
        E 480 80 3f 00
        E 480 90 3d 60
        E 480 80 3d 00
        E 480 90 3c 60
        E 480 80 3c 00
        E 480 90 3d 60
        E 480 80 3d 00
        E 480 90 3f 60
        E 480 80 3f 00
        E 480 90 3e 60
        E 1440 80 3e 00
        E 480 90 41 60
        E 1440 80 41 00
        E 480 90 3d 60
        E 480 80 3d 00
        E 480 90 3a 60
        E 480 80 3a 00
        E 480 90 3c 60
        E 1440 80 3c 00
        E 480 90 3d 60
        E 480 80 3d 00
        E 480 90 3a 60
        E 480 80 3a 00
        E 480 90 41 60
        E 1440 80 41 00
        E 480 90 3d 60
        E 480 80 3d 00
        E 480 90 3a 60
        E 480 80 3a 00
        E 480 90 3c 60
        E 1440 80 3c 00
        E 480 90 3d 60
        E 480 80 3d 00
        E 480 90 3a 60
        E 480 80 3a 00
        E 480 90 3c 60
        E 480 80 3c 00
        E 480 90 3f 60
        E 480 80 3f 00
        E 480 90 38 60
        E 840 80 38 00
        E 120 90 36 60
        E 840 80 36 00
        E 120 90 3c 60
        E 480 80 3c 00
        E 480 90 3f 60
        E 480 80 3f 00
        E 480 90 3d 60
        E 480 80 3d 00
        E 480 90 3f 60
        E 480 80 3f 00
        E 480 90 3d 60
        E 480 80 3d 00
        E 480 90 3c 60
        E 480 80 3c 00
        E 480 90 3d 60
        E 480 80 3d 00
        E 480 90 3f 60
        E 480 80 3f 00
        E 480 90 3e 60
        E 1439 80 3e 00
        E 4320 b0 7b 00
        GUID {365903EB-9045-44EB-9693-A569E3789D3A}
        IGNTEMPO 0 120.00000000 4 4
        SRCCOLOR 8
        VELLANE 132 128 60
        COLORMAP "C:\Program Files\REAPER (x64)\Data\color_maps\rockband_guitarbass.png"
        CFGEDITVIEW -8493.524042 6.907521 0 15 0 0 0
        CFGEDIT 1 1 0 1 1 0 1 1 1 1 1 0.12500000 -8 -8 1544 872 0 2 1 1 0.00000000 0 1 0 0 0.500000 0 0 1.000000 64
        KEYSNAP 0 7 "102030050700" 0 "Pentatonic"
        EVTFILTER 0 -1 -1 -1 -1 0 1 0 0 -1.00000000 -1.00000000
      >
    >
  >
  <TRACK '{2AD26FDB-B3CF-4BE5-B118-AFF678B6783A}'
    NAME "PART KEYS_ANIM_RH"
    PEAKCOL 16576
    BEAT -1
    AUTOMODE 0
    VOLPAN 1.00000000000000 0.00000000000000 -1.00000000000000 -1.00000000000000 1.00000000000000
    MUTESOLO 0 0 0
    IPHASE 0
    ISBUS 0 0
    BUSCOMP 0 0
    SHOWINMIX 1 0.666700 0.500000 1 0.500000 -1 -1 -1
    FREEMODE 0
    SEL 0
    REC 0 0 0 0 0 0 0
    VU 2
    TRACKHEIGHT 0 0
    INQ 0 0 0 0.5000000000 100 0 0 100
    NCHAN 2
    FX 1
    TRACKID {2AD26FDB-B3CF-4BE5-B118-AFF678B6783A}
    PERF 0
    MIDIOUT -1
    <MIDINOTENAMES
      0 72 "Highest playable note B#3"
      0 71 "B3"
      0 70 "A#3"
      0 69 "A3"
      0 68 "G#3"
      0 67 "G3"
      0 66 "F#3"
      0 65 "F3"
      0 64 "E3"
      0 63 "D#3"
      0 62 "D3"
      0 61 "C#3"
      0 60 "C3"
      0 59 "B2"
      0 58 "A#2"
      0 57 "A2"
      0 56 "G#2"
      0 55 "G2"
      0 54 "F#2"
      0 53 "F2"
      0 52 "E2"
      0 51 "D#2"
      0 50 "D2"
      0 49 "C#2"
      0 48 "Lowest playable note C2"
    >
    MAINSEND 1 0
    <FXCHAIN
      SHOW 0
      LASTSEL 0
      DOCKED 0
    >
    <ITEM
      POSITION 0.00000000000000
      SNAPOFFS 0.00000000000000
      LENGTH 147.79673400000001
      LOOP 0
      ALLTAKES 0
      SEL 0
      FADEIN 1 0.000000 0.000000 1 0
      FADEOUT 1 0.000000 0.000000 1 0
      MUTE 0
      IGUID {8CA34538-D3AE-44DD-8C40-256D77ECCA95}
      IID 9
      NAME "PART KEYS_ANIM_RH"
      VOLPAN 1.000000 0.000000 1.000000 -1.000000
      SOFFS 0.00000000000000 0.00000000000000
      PLAYRATE 1.00000000000000 1 0.00000000000000 -1
      CHANMODE 0
      GUID {E74A71C0-A749-4BB7-90E2-A99B4D966D76}
      <SOURCE MIDI
        HASDATA 1 480 QN
        POOLEDEVTS {2961C0CC-8DB6-43A9-A31A-DBFC9E81CD88}
        <X 0 0
          /wNQQVJUIEtFWVNfQU5JTV9SSA==
        >
        E 1920 90 35 60
        E 80 80 35 00
        E 0 90 38 60
        E 80 80 38 00
        E 0 90 3c 60
        E 80 80 3c 00
        E 0 90 35 60
        E 80 80 35 00
        E 0 90 38 60
        E 80 80 38 00
        E 0 90 3c 60
        E 80 80 3c 00
        E 0 90 3d 60
        E 80 80 3d 00
        E 0 90 3a 60
        E 80 80 3a 00
        E 0 90 36 60
        E 80 80 36 00
        E 0 90 3d 60
        E 80 80 3d 00
        E 0 90 3a 60
        E 80 80 3a 00
        E 0 90 36 60
        E 80 80 36 00
        E 0 90 38 60
        E 80 80 38 00
        E 0 90 3c 60
        E 80 80 3c 00
        E 0 90 3f 60
        E 80 80 3f 00
        E 0 90 38 60
        E 80 80 38 00
        E 0 90 3c 60
        E 80 80 3c 00
        E 0 90 3f 60
        E 80 80 3f 00
        E 0 90 42 60
        E 80 80 42 00
        E 0 90 3d 60
        E 80 80 3d 00
        E 0 90 3a 60
        E 80 80 3a 00
        E 0 90 42 60
        E 80 80 42 00
        E 0 90 3d 60
        E 80 80 3d 00
        E 0 90 3a 60
        E 80 80 3a 00
        E 0 90 38 60
        E 0 90 3c 60
        E 360 80 38 00
        E 0 80 3c 00
        E 120 90 36 60
        E 0 90 3a 60
        E 0 90 3d 60
        E 360 80 36 00
        E 0 80 3a 00
        E 0 80 3d 00
        E 120 90 38 60
        E 0 90 3c 60
        E 0 90 3f 60
        E 360 80 38 00
        E 0 80 3c 00
        E 0 80 3f 00
        E 120 90 36 60
        E 0 90 3a 60
        E 0 90 42 60
        E 360 80 36 00
        E 0 80 3a 00
        E 0 80 42 00
        E 120 90 3c 60
        E 0 90 41 60
        E 1800 80 3c 00
        E 0 80 41 00
        E 120 90 3d 60
        E 0 90 41 60
        E 840 80 3d 00
        E 120 90 3a 60
        E 840 80 41 00
        E 0 80 3a 00
        E 120 90 3c 60
        E 0 90 41 60
        E 1800 80 3c 00
        E 0 80 41 00
        E 120 90 3d 60
        E 0 90 42 60
        E 840 80 3d 00
        E 120 90 3a 60
        E 840 80 42 00
        E 0 80 3a 00
        E 120 90 3c 60
        E 0 90 41 60
        E 1800 80 3c 00
        E 0 80 41 00
        E 120 90 3d 60
        E 0 90 41 60
        E 840 80 3d 00
        E 120 90 3a 60
        E 840 80 41 00
        E 0 80 3a 00
        E 120 90 3c 60
        E 0 90 41 60
        E 1800 80 3c 00
        E 0 80 41 00
        E 120 90 3d 60
        E 0 90 42 60
        E 840 80 3d 00
        E 120 90 3a 60
        E 840 80 42 00
        E 0 80 3a 00
        E 120 90 38 60
        E 0 90 3c 60
        E 360 80 3c 00
        E 120 90 3d 60
        E 360 80 3d 00
        E 120 90 3f 60
        E 360 80 3f 00
        E 120 90 3c 60
        E 360 80 38 00
        E 0 80 3c 00
        E 120 90 38 60
        E 0 90 3d 60
        E 840 80 38 00
        E 120 90 36 60
        E 840 80 3d 00
        E 0 80 36 00
        E 120 90 38 60
        E 0 90 3c 60
        E 360 80 3c 00
        E 120 90 3d 60
        E 360 80 3d 00
        E 120 90 3f 60
        E 360 80 3f 00
        E 120 90 44 60
        E 360 80 38 00
        E 0 80 44 00
        E 120 90 36 60
        E 0 90 3d 60
        E 840 80 36 00
        E 0 80 3d 00
        E 120 90 35 60
        E 0 90 3f 60
        E 840 80 35 00
        E 0 80 3f 00
        E 120 90 35 60
        E 0 90 3d 60
        E 840 80 35 00
        E 0 80 3d 00
        E 120 90 35 60
        E 0 90 3c 60
        E 840 80 35 00
        E 0 80 3c 00
        E 120 90 37 60
        E 0 90 3d 60
        E 840 80 37 00
        E 0 80 3d 00
        E 120 90 36 60
        E 0 90 3f 60
        E 840 80 36 00
        E 0 80 3f 00
        E 120 90 35 60
        E 0 90 3e 60
        E 1800 80 35 00
        E 0 80 3e 00
        E 120 90 3c 60
        E 0 90 41 60
        E 1800 80 3c 00
        E 0 80 41 00
        E 120 90 3d 60
        E 0 90 41 60
        E 840 80 3d 00
        E 120 90 3a 60
        E 840 80 41 00
        E 0 80 3a 00
        E 120 90 3c 60
        E 0 90 41 60
        E 1800 80 3c 00
        E 0 80 41 00
        E 120 90 3d 60
        E 0 90 42 60
        E 960 80 3d 00
        E 0 90 3a 60
        E 840 80 42 00
        E 0 80 3a 00
        E 120 90 3c 60
        E 0 90 41 60
        E 1800 80 3c 00
        E 0 80 41 00
        E 120 90 3d 60
        E 0 90 41 60
        E 840 80 3d 00
        E 120 90 3a 60
        E 840 80 41 00
        E 0 80 3a 00
        E 120 90 3c 60
        E 0 90 41 60
        E 1800 80 3c 00
        E 0 80 41 00
        E 120 90 3d 60
        E 0 90 42 60
        E 960 80 3d 00
        E 0 90 3a 60
        E 840 80 42 00
        E 0 80 3a 00
        E 120 90 38 60
        E 0 90 3c 60
        E 360 80 3c 00
        E 120 90 3d 60
        E 360 80 3d 00
        E 120 90 3f 60
        E 360 80 3f 00
        E 120 90 3c 60
        E 360 80 38 00
        E 0 80 3c 00
        E 120 90 38 60
        E 0 90 3d 60
        E 840 80 38 00
        E 120 90 36 60
        E 840 80 3d 00
        E 0 80 36 00
        E 120 90 38 60
        E 0 90 3c 60
        E 360 80 3c 00
        E 120 90 3d 60
        E 360 80 3d 00
        E 120 90 3f 60
        E 360 80 3f 00
        E 120 90 44 60
        E 360 80 38 00
        E 0 80 44 00
        E 120 90 36 60
        E 0 90 3d 60
        E 840 80 36 00
        E 0 80 3d 00
        E 120 90 35 60
        E 0 90 3f 60
        E 840 80 35 00
        E 0 80 3f 00
        E 120 90 35 60
        E 0 90 3d 60
        E 840 80 35 00
        E 0 80 3d 00
        E 120 90 35 60
        E 0 90 3c 60
        E 840 80 35 00
        E 0 80 3c 00
        E 120 90 37 60
        E 0 90 3d 60
        E 840 80 37 00
        E 0 80 3d 00
        E 120 90 36 60
        E 0 90 3f 60
        E 840 80 36 00
        E 0 80 3f 00
        E 120 90 35 60
        E 0 90 3e 60
        E 1919 80 35 00
        E 0 80 3e 00
        E 3840 b0 7b 00
        GUID {77722730-891A-4972-B1D1-AB2B8E92ADBF}
        IGNTEMPO 0 120.00000000 4 4
        SRCCOLOR 9
        VELLANE 132 128 60
        COLORMAP "C:\Program Files\REAPER (x64)\Data\color_maps\rockband_guitarbass.png"
        CFGEDITVIEW -8493.524042 6.907521 0 22 0 0 0
        CFGEDIT 1 1 0 1 1 0 1 1 1 1 1 0.12500000 -8 -8 1544 872 0 2 1 1 0.00000000 0 1 0 0 0.500000 0 0 1.000000 64
        KEYSNAP 0 7 "102030050700" 0 "Pentatonic"
        EVTFILTER 0 -1 -1 -1 -1 0 1 0 0 -1.00000000 -1.00000000
      >
    >
  >
  <TRACK '{20E34AEB-D848-4765-8A4B-B209E13D7235}'
    NAME "keys"
    PEAKCOL 16576
    BEAT -1
    AUTOMODE 0
    VOLPAN 1.00000000000000 0.00000000000000 -1.00000000000000 -1.00000000000000 1.00000000000000
    MUTESOLO 0 0 0
    IPHASE 0
    ISBUS 2 -1
    BUSCOMP 0 0
    SHOWINMIX 1 0.666700 0.500000 1 0.500000 -1 -1 -1
    FREEMODE 0
    SEL 0
    REC 0 0 0 0 0 0 0
    VU 2
    TRACKHEIGHT 0 0
    INQ 0 0 0 0.5000000000 100 0 0 100
    NCHAN 2
    FX 1
    TRACKID {20E34AEB-D848-4765-8A4B-B209E13D7235}
    PERF 0
    MIDIOUT -1
    MAINSEND 1 0
    <ITEM
      POSITION 0.00000000000000
      SNAPOFFS 0.00000000000000
      LENGTH 147.79673469387754
      LOOP 0
      ALLTAKES 0
      SEL 0
      FADEIN 1 0.000000 0.000000 1 0
      FADEOUT 1 0.000000 0.000000 1 0
      MUTE 0
      IGUID {105153E6-46E8-40B2-9F19-2D4F1FC144CB}
      IID 21
      NAME "keys.wav"
      VOLPAN 1.000000 0.000000 1.000000 -1.000000
      SOFFS 0.00000000000000
      PLAYRATE 1.00000000000000 1 0.00000000000000 -1
      CHANMODE 0
      GUID {7BC29F50-38D1-4464-8BB2-13B5623E5F00}
      <SOURCE WAVE
        FILE "wav\keys.wav"
      >
    >
  >
  <TRACK '{4464B94A-1D06-4DB5-A94B-ADA733D60965}'
    NAME "PART REAL_BASS"
    PEAKCOL 16576
    BEAT -1
    AUTOMODE 0
    VOLPAN 1.00000000000000 0.00000000000000 -1.00000000000000 -1.00000000000000 1.00000000000000
    MUTESOLO 0 0 0
    IPHASE 0
    ISBUS 0 0
    BUSCOMP 0 0
    SHOWINMIX 1 0.666700 0.500000 1 0.500000 -1 -1 -1
    FREEMODE 0
    SEL 0
    REC 0 0 0 0 0 0 0
    VU 2
    TRACKHEIGHT 0 0
    INQ 0 0 0 0.5000000000 100 0 0 100
    NCHAN 2
    FX 0
    TRACKID {4464B94A-1D06-4DB5-A94B-ADA733D60965}
    PERF 0
    MIDIOUT -1
    <MIDINOTENAMES
      0 127 "Trill Marker"
      0 126 "Tremolo Marker"
      0 125 "BRE"
      0 124 "BRE"
      0 123 "BRE"
      0 122 "BRE"
      0 121 "BRE"
      0 120 "BRE (use all 6)"
      0 119 "-----------"
      0 116 "OVERDRIVE"
      0 115 "Solo Marker"
      0 109 "-----------"
      0 108 "Fret Hand Position"
      0 107 "Force Chord Numbering"
      0 106 "Loose Strumming"
      0 105 "Strum Direction"
      0 104 "Arpeggio Marker"
      0 103 "Slide Marker"
      0 102 "Force HOPO"
      0 101 "EXPERT e String"
      0 100 "EXPERT B String"
      0 99 "EXPERT G String"
      0 98 "EXPERT D String"
      0 97 "EXPERT A String"
      0 96 "EXPERT E String"
      0 95 "-----------"
      0 82 "Loose Strumming"
      0 81 "Strum Direction"
      0 80 "Arpeggio Marker"
      0 79 "Slide Marker"
      0 78 "Force HOPO"
      0 77 "HARD e String"
      0 76 "HARD B String"
      0 75 "HARD G String"
      0 74 "HARD D String"
      0 73 "HARD A String"
      0 72 "HARD E String"
      0 71 "-----------"
      0 58 "Loose Strumming"
      0 56 "Arpeggio Marker"
      0 55 "Slide Marker"
      0 53 "MEDIUM e String"
      0 52 "MEDIUM B String"
      0 51 "MEDIUM G String"
      0 50 "MEDIUM D String"
      0 49 "MEDIUM A String"
      0 48 "MEDIUM E String"
      0 47 "-----------"
      0 32 "Arpeggio Marker"
      0 31 "Slide Marker"
      0 29 "EASY e String"
      0 28 "EASY B String"
      0 27 "EASY G String"
      0 26 "EASY D String"
      0 25 "EASY A String"
      0 24 "EASY E String"
      0 21 "-----------"
      0 18 "Flat/Sharp Swap"
      0 17 "Hide Chord Names"
      0 16 "Slash Chord"
      0 15 "D#"
      0 14 "D"
      0 13 "C#"
      0 12 "C"
      0 11 "B"
      0 10 "A#"
      0 9 "A"
      0 8 "G#"
      0 7 "G"
      0 6 "F#"
      0 5 "F"
      0 4 "E"
    >
    MAINSEND 1 0
    <FXCHAIN
      WNDRECT 0 43 655 467
      SHOW 0
      LASTSEL 2
      DOCKED 0
      BYPASS 0 0
      <JS "c3/progtr" ""
        0.000000 3.000000 0.000000 0.000000 0.000000 0.000000 0.000000 0.000000 0.000000 1.000000 - - - - - - - - - - - - - - - - - - - - - - - - - - - - - - - - - - - - - - - - - - - - - - - - - - - - - - 
      >
      FLOATPOS 0 0 0 0
      FXID {7695263E-C026-4441-B837-6E1C2AEFE1C5}
      WAK 0
      BYPASS 0 0
      <JS "MIDI/midi_transpose" ""
        -12.000000 1.000000 0.000000 127.000000 - - - - - - - - - - - - - - - - - - - - - - - - - - - - - - - - - - - - - - - - - - - - - - - - - - - - - - - - - - - - 
      >
      FLOATPOS 0 0 0 0
      FXID {75A834D3-892E-42CB-B9D8-C5DB63A766B3}
      WAK 0
      BYPASS 0 0
      <VST "VSTi: ReaSynth (Cockos)" "reasynth.dll" 0 ""
        eXNlcu9e7f4AAAAAAgAAAAEAAAAAAAAAAgAAAAAAAAA4AAAAAAAAAA==
        AAAQAO++rd4N8K3eppvEO+gJMjwAAAAAAAAAAAAAgD8AAIA/4jAEPA==
        AAAAAAAAAD+01hM+j8L1PQAAAD8AABAAAAA=
      >
      FLOATPOS 0 0 0 0
      FXID {B63C2898-5D1B-4A4B-A737-95EB449EB085}
      WAK 0
    >
    <ITEM
      POSITION 0.00000000000000
      SNAPOFFS 0.00000000000000
      LENGTH 147.79673469387754
      LOOP 0
      ALLTAKES 0
      SEL 0
      FADEIN 1 0.000000 0.000000 1 0
      FADEOUT 1 0.000000 0.000000 1 0
      MUTE 0
      IGUID {B94205D4-B625-419B-A3D6-01A606C95923}
      IID 10
      NAME "PART REAL_BASS"
      VOLPAN 1.000000 0.000000 1.000000 -1.000000
      SOFFS 0.00000000000000 0.00000000000000
      PLAYRATE 1.00000000000000 1 0.00000000000000 -1
      CHANMODE 0
      GUID {1274F954-5F6C-4704-8777-6D3FDAEEC815}
      <SOURCE MIDI
        HASDATA 1 480 QN
        POOLEDEVTS {0398120E-53A0-42FF-96AD-83560CA2CCD9}
        <X 0 0
          /wNQQVJUIFJFQUxfQkFTUw==
        >
        E 3840 90 19 6c
        E 0 90 31 6c
        E 0 90 49 6c
        E 0 90 61 6c
        e 0 90 6c 6c
        e 80 80 6c 00
        E 1360 80 19 00
        E 0 80 31 00
        E 400 80 49 00
        E 0 80 61 00
        <X 80 0
          /wFbYmVnaW5fcGIgc29uZ190cmFpbmVyX3BiXzFd
        >
        E 0 90 19 6c
        E 0 90 31 6c
        E 0 90 49 6c
        E 0 90 61 6c
        E 80 80 19 00
        E 400 80 31 00
        E 240 80 49 00
        E 0 80 61 00
        E 80 90 61 6c
        E 80 80 61 00
        E 80 90 1b 6e
        E 0 90 33 6e
        E 0 90 4b 6e
        E 0 90 63 6e
        E 80 80 1b 00
        E 400 80 33 00
        E 80 80 4b 00
        E 0 80 63 00
        E 80 90 4b 6c
        E 0 90 63 6c
        E 80 80 4b 00
        E 0 80 63 00
        E 80 90 63 6e
        E 80 80 63 00
        <X 80 0
          /wFbcGJfbm9ybSBzb25nX3RyYWluZXJfcGJfMV0=
        >
        E 0 90 1b 6f
        E 0 90 33 6f
        E 0 90 4b 6f
        E 0 90 63 6f
        e 0 90 6c 6d
        E 80 80 1b 00
        e 0 80 6c 00
        E 400 80 33 00
        E 160 80 4b 00
        E 0 80 63 00
        E 80 90 4a 6f
        E 0 90 62 6f
        E 80 80 4a 00
        E 0 80 62 00
        E 160 90 19 6d
        E 0 90 31 6d
        E 0 90 49 6d
        E 0 90 61 6d
        E 80 80 19 00
        E 400 80 31 00
        E 400 80 49 00
        E 0 80 61 00
        E 80 90 19 6c
        E 0 90 31 6c
        E 0 90 49 6c
        E 0 90 61 6c
        e 0 90 6c 6c
        E 80 80 19 00
        e 0 80 6c 00
        E 400 80 31 00
        E 240 80 49 00
        E 0 80 61 00
        E 80 90 61 6c
        E 80 80 61 00
        E 80 90 1a 6e
        E 0 90 32 6e
        E 0 90 4a 6e
        E 0 90 62 6e
        E 80 80 1a 00
        E 400 80 32 00
        E 80 80 4a 00
        E 0 80 62 00
        E 80 90 63 6e
        E 80 80 63 00
        E 80 90 63 6d
        E 80 80 63 00
        E 80 90 1b 6c
        E 0 90 33 6c
        E 0 90 4b 6c
        E 0 90 63 6c
        e 0 90 6c 6a
        E 80 80 1b 00
        e 0 80 6c 00
        E 400 80 33 00
        E 160 80 4b 00
        E 0 80 63 00
        E 80 90 4a 6c
        E 0 90 62 6c
        E 80 80 4a 00
        E 0 80 62 00
        E 160 90 19 6a
        E 0 90 31 6a
        E 0 90 49 6a
        E 0 90 61 6a
        E 80 80 19 00
        E 400 80 31 00
        E 80 80 49 00
        E 0 80 61 00
        E 80 90 49 6a
        E 0 90 61 6a
        E 80 80 49 00
        E 0 80 61 00
        E 80 90 61 6b
        E 80 80 61 00
        <X 80 0
          /wFbZW5kX3BiIHNvbmdfdHJhaW5lcl9wYl8xXQ==
        >
        E 0 90 19 6c
        E 0 90 31 6c
        E 0 90 49 6c
        E 0 90 61 6c
        e 0 90 6c 6c
        E 0 90 74 60
        E 80 80 19 00
        e 0 80 6c 00
        E 400 80 31 00
        E 240 80 49 00
        E 0 80 61 00
        E 80 90 61 6c
        E 80 80 61 00
        E 80 90 1b 6e
        E 0 90 33 6e
        E 0 90 4b 6e
        E 0 90 63 6e
        E 80 80 1b 00
        E 400 80 33 00
        E 80 80 4b 00
        E 0 80 63 00
        E 80 90 4b 6c
        E 0 90 63 6c
        E 80 80 4b 00
        E 0 80 63 00
        E 80 90 63 6e
        E 80 80 63 00
        E 80 90 1b 6f
        E 0 90 33 6f
        E 0 90 4b 6f
        E 0 90 63 6f
        e 0 90 6c 6d
        E 80 80 1b 00
        e 0 80 6c 00
        E 400 80 74 00
        E 0 80 33 00
        E 160 80 4b 00
        E 0 80 63 00
        E 80 90 4a 6f
        E 0 90 62 6f
        E 80 80 4a 00
        E 0 80 62 00
        E 160 90 19 6d
        E 0 90 31 6d
        E 0 90 49 6d
        E 0 90 61 6d
        E 80 80 19 00
        E 400 80 31 00
        E 400 80 49 00
        E 0 80 61 00
        E 80 90 19 6c
        E 0 90 31 6c
        E 0 90 49 6c
        E 0 90 61 6c
        e 0 90 6c 6c
        E 80 80 19 00
        e 0 80 6c 00
        E 400 80 31 00
        E 240 80 49 00
        E 0 80 61 00
        E 80 90 61 6c
        E 80 80 61 00
        E 80 90 1a 6e
        E 0 90 32 6e
        E 0 90 4a 6e
        E 0 90 62 6e
        E 80 80 1a 00
        E 400 80 32 00
        E 80 80 4a 00
        E 0 80 62 00
        E 80 90 63 6e
        E 80 80 63 00
        E 80 90 63 6d
        E 80 80 63 00
        E 80 90 1b 6c
        E 0 90 33 6c
        E 0 90 4b 6c
        E 0 90 63 6c
        e 0 90 6c 6a
        E 80 80 1b 00
        e 0 80 6c 00
        E 400 80 33 00
        E 160 80 4b 00
        E 0 80 63 00
        E 80 90 4a 6c
        E 0 90 62 6c
        E 80 80 4a 00
        E 0 80 62 00
        E 160 90 19 6a
        E 0 90 31 6a
        E 0 90 49 6a
        E 0 90 61 6a
        E 80 80 19 00
        E 400 80 31 00
        E 80 80 49 00
        E 0 80 61 00
        E 80 90 49 6a
        E 0 90 61 6a
        E 80 80 49 00
        E 0 80 61 00
        E 80 90 61 6b
        E 80 80 61 00
        <X 80 0
          /wFbYmVnaW5fcGIgc29uZ190cmFpbmVyX3BiXzJd
        >
        E 0 90 1a 6a
        E 0 90 32 6a
        E 0 90 4a 6a
        E 0 90 62 6a
        e 0 90 6c 68
        E 80 80 1a 00
        e 0 80 6c 00
        E 400 80 32 00
        E 80 80 4a 00
        E 0 80 62 00
        E 80 90 4a 68
        E 0 90 62 68
        E 80 80 4a 00
        E 0 80 62 00
        E 80 90 62 69
        E 80 80 62 00
        <X 80 0
          /wFbcGJfbm9ybSBzb25nX3RyYWluZXJfcGJfMl0=
        >
        E 0 90 1a 6a
        E 0 90 32 6a
        E 0 90 4a 6a
        E 0 90 62 6a
        E 80 80 1a 00
        E 400 80 32 00
        E 80 80 4a 00
        E 0 80 62 00
        E 80 90 4a 6a
        E 0 90 62 6a
        E 80 80 4a 00
        E 0 80 62 00
        E 80 90 62 69
        E 80 80 62 00
        E 80 90 1a 68
        E 0 90 32 68
        E 0 90 4a 68
        E 0 90 62 68
        E 80 80 1a 00
        E 400 80 32 00
        E 160 80 4a 00
        E 0 80 62 00
        E 80 90 49 68
        E 0 90 61 68
        E 80 80 49 00
        E 0 80 61 00
        E 160 90 1a 68
        E 0 90 32 68
        E 0 90 4a 68
        E 0 90 62 68
        E 80 80 1a 00
        E 400 80 32 00
        E 400 80 4a 00
        E 0 80 62 00
        <X 80 0
          /wFbZW5kX3BiIHNvbmdfdHJhaW5lcl9wYl8yXQ==
        >
        <X 0 0
          /wFbYmVnaW5fcGIgc29uZ190cmFpbmVyX3BiXzNd
        >
        E 0 90 1a 6a
        E 0 90 32 6a
        E 0 90 4a 6a
        E 0 90 62 6a
        E 80 80 1a 00
        E 400 80 32 00
        E 80 80 4a 00
        E 0 80 62 00
        E 80 90 4a 68
        E 0 90 62 68
        E 80 80 4a 00
        E 0 80 62 00
        E 80 90 62 69
        E 80 80 62 00
        E 80 90 1a 6a
        E 0 90 32 6a
        E 0 90 4a 6a
        E 0 90 62 6a
        E 80 80 1a 00
        E 400 80 32 00
        E 80 80 4a 00
        E 0 80 62 00
        E 80 90 4a 68
        E 0 90 62 68
        e 0 90 6c 67
        E 80 80 4a 00
        E 0 80 62 00
        e 0 80 6c 00
        E 80 90 62 67
        E 80 80 62 00
        E 80 90 19 6a
        E 0 90 31 6a
        E 0 90 49 6a
        E 0 90 61 6a
        e 0 90 6c 6a
        E 80 80 19 00
        e 0 80 6c 00
        E 400 80 31 00
        E 400 80 49 00
        E 0 80 61 00
        <X 80 0
          /wFbcGJfbm9ybSBzb25nX3RyYWluZXJfcGJfM10=
        >
        E 0 90 18 6c
        E 0 90 30 6c
        E 0 90 48 6c
        E 0 90 60 6c
        E 80 80 18 00
        E 400 80 30 00
        E 400 80 48 00
        E 0 80 60 00
        E 80 90 18 6d
        E 0 90 30 6d
        E 0 90 48 6d
        E 0 90 60 6d
        E 80 80 18 00
        E 400 80 30 00
        E 400 80 48 00
        E 0 80 60 00
        E 80 90 19 6c
        E 0 90 31 6c
        E 0 90 49 6c
        E 0 90 61 6c
        E 80 80 19 00
        E 400 80 31 00
        E 400 80 49 00
        E 0 80 61 00
        E 80 90 19 6a
        E 0 90 31 6a
        E 0 90 49 6a
        E 0 90 61 6a
        E 0 90 74 60
        E 80 80 19 00
        E 400 80 31 00
        E 400 80 49 00
        E 0 80 61 00
        E 80 90 18 6c
        E 0 90 30 6c
        E 0 90 48 6c
        E 0 90 60 6c
        e 0 90 6c 6c
        E 80 80 18 00
        e 0 80 6c 00
        E 400 80 30 00
        E 80 80 48 00
        E 0 80 60 00
        E 80 90 4a 6e
        E 0 90 62 6e
        E 80 80 4a 00
        E 0 80 62 00
        E 80 90 62 6d
        E 80 80 62 00
        E 80 90 1a 6c
        E 0 90 32 6c
        E 0 90 4a 6c
        E 0 90 62 6c
        E 80 80 1a 00
        E 400 80 32 00
        E 400 80 4a 00
        E 0 80 62 00
        E 80 90 18 6a
        E 0 90 30 6a
        E 0 90 48 6a
        E 0 90 60 6a
        e 0 90 6c 6a
        E 80 80 18 00
        e 0 80 6c 00
        E 400 80 30 00
        E 400 80 48 00
        E 0 80 60 00
        <X 80 0
          /wFbZW5kX3BiIHNvbmdfdHJhaW5lcl9wYl8zXQ==
        >
        E 0 90 19 6c
        E 0 90 31 6c
        E 0 90 49 6c
        E 0 90 61 6c
        e 0 90 6c 6c
        E 80 80 19 00
        e 0 80 6c 00
        E 40 80 74 00
        E 360 80 31 00
        E 240 80 49 00
        E 0 80 61 00
        E 80 90 61 6c
        E 80 80 61 00
        E 80 90 1b 6e
        E 0 90 33 6e
        E 0 90 4b 6e
        E 0 90 63 6e
        E 80 80 1b 00
        E 400 80 33 00
        E 80 80 4b 00
        E 0 80 63 00
        E 80 90 4b 6c
        E 0 90 63 6c
        E 80 80 4b 00
        E 0 80 63 00
        E 80 90 63 6e
        E 80 80 63 00
        E 80 90 1b 6f
        E 0 90 33 6f
        E 0 90 4b 6f
        E 0 90 63 6f
        e 0 90 6c 6d
        E 80 80 1b 00
        e 0 80 6c 00
        E 400 80 33 00
        E 160 80 4b 00
        E 0 80 63 00
        E 80 90 4a 6f
        E 0 90 62 6f
        E 80 80 4a 00
        E 0 80 62 00
        E 160 90 19 6d
        E 0 90 31 6d
        E 0 90 49 6d
        E 0 90 61 6d
        E 80 80 19 00
        E 400 80 31 00
        E 400 80 49 00
        E 0 80 61 00
        E 80 90 19 6c
        E 0 90 31 6c
        E 0 90 49 6c
        E 0 90 61 6c
        e 0 90 6c 6c
        E 80 80 19 00
        e 0 80 6c 00
        E 400 80 31 00
        E 240 80 49 00
        E 0 80 61 00
        E 80 90 61 6c
        E 80 80 61 00
        E 80 90 1a 6e
        E 0 90 32 6e
        E 0 90 4a 6e
        E 0 90 62 6e
        E 80 80 1a 00
        E 400 80 32 00
        E 80 80 4a 00
        E 0 80 62 00
        E 80 90 4b 6e
        E 0 90 63 6e
        E 80 80 4b 00
        E 0 80 63 00
        E 80 90 63 6d
        E 80 80 63 00
        E 80 90 1b 6c
        E 0 90 33 6c
        E 0 90 4b 6c
        E 0 90 63 6c
        e 0 90 6c 6a
        E 80 80 1b 00
        e 0 80 6c 00
        E 400 80 33 00
        E 160 80 4b 00
        E 0 80 63 00
        E 80 90 4a 6c
        E 0 90 62 6c
        E 80 80 4a 00
        E 0 80 62 00
        E 160 90 19 6a
        E 0 90 31 6a
        E 0 90 49 6a
        E 0 90 61 6a
        E 80 80 19 00
        E 400 80 31 00
        E 80 80 49 00
        E 0 80 61 00
        E 80 90 49 6a
        E 0 90 61 6a
        E 80 80 49 00
        E 0 80 61 00
        E 80 90 61 6b
        E 80 80 61 00
        E 80 90 19 6c
        E 0 90 31 6c
        E 0 90 49 6c
        E 0 90 61 6c
        e 0 90 6c 6c
        E 80 80 19 00
        e 0 80 6c 00
        E 400 80 31 00
        E 240 80 49 00
        E 0 80 61 00
        E 80 90 61 6c
        E 80 80 61 00
        E 80 90 1b 6e
        E 0 90 33 6e
        E 0 90 4b 6e
        E 0 90 63 6e
        E 0 90 74 60
        E 80 80 1b 00
        E 400 80 33 00
        E 80 80 4b 00
        E 0 80 63 00
        E 80 90 4b 6c
        E 0 90 63 6c
        E 80 80 4b 00
        E 0 80 63 00
        E 80 90 63 6e
        E 80 80 63 00
        E 80 90 1b 6f
        E 0 90 33 6f
        E 0 90 4b 6f
        E 0 90 63 6f
        e 0 90 6c 6d
        E 80 80 1b 00
        e 0 80 6c 00
        E 400 80 33 00
        E 160 80 4b 00
        E 0 80 63 00
        E 80 90 4a 6f
        E 0 90 62 6f
        E 80 80 4a 00
        E 0 80 62 00
        E 160 90 19 6d
        E 0 90 31 6d
        E 0 90 49 6d
        E 0 90 61 6d
        E 80 80 19 00
        E 400 80 31 00
        E 400 80 49 00
        E 0 80 61 00
        E 80 80 74 00
        E 0 90 19 6c
        E 0 90 31 6c
        E 0 90 49 6c
        E 0 90 61 6c
        e 0 90 6c 6c
        E 80 80 19 00
        e 0 80 6c 00
        E 400 80 31 00
        E 240 80 49 00
        E 0 80 61 00
        E 80 90 61 6c
        E 80 80 61 00
        E 80 90 1a 6e
        E 0 90 32 6e
        E 0 90 4a 6e
        E 0 90 62 6e
        E 80 80 1a 00
        E 400 80 32 00
        E 80 80 4a 00
        E 0 80 62 00
        E 80 90 4b 6e
        E 0 90 63 6e
        E 80 80 4b 00
        E 0 80 63 00
        E 80 90 63 6d
        E 80 80 63 00
        E 80 90 1b 6c
        E 0 90 33 6c
        E 0 90 4b 6c
        E 0 90 63 6c
        e 0 90 6c 6a
        E 80 80 1b 00
        e 0 80 6c 00
        E 400 80 33 00
        E 160 80 4b 00
        E 0 80 63 00
        E 80 90 4a 6c
        E 0 90 62 6c
        E 80 80 4a 00
        E 0 80 62 00
        E 160 90 19 6a
        E 0 90 31 6a
        E 0 90 49 6a
        E 0 90 61 6a
        E 80 80 19 00
        E 400 80 31 00
        E 80 80 49 00
        E 0 80 61 00
        E 80 90 49 6a
        E 0 90 61 6a
        E 80 80 49 00
        E 0 80 61 00
        E 80 90 61 6b
        E 80 80 61 00
        E 80 90 1a 6a
        E 0 90 32 6a
        E 0 90 4a 6a
        E 0 90 62 6a
        e 0 90 6c 68
        E 80 80 1a 00
        e 0 80 6c 00
        E 400 80 32 00
        E 80 80 4a 00
        E 0 80 62 00
        E 80 90 4a 68
        E 0 90 62 68
        E 80 80 4a 00
        E 0 80 62 00
        E 80 90 62 69
        E 80 80 62 00
        E 80 90 1a 6a
        E 0 90 32 6a
        E 0 90 4a 6a
        E 0 90 62 6a
        E 80 80 1a 00
        E 400 80 32 00
        E 80 80 4a 00
        E 0 80 62 00
        E 80 90 4a 6a
        E 0 90 62 6a
        E 80 80 4a 00
        E 0 80 62 00
        E 80 90 62 69
        E 80 80 62 00
        E 80 90 1a 68
        E 0 90 32 68
        E 0 90 4a 68
        E 0 90 62 68
        E 80 80 1a 00
        E 400 80 32 00
        E 160 80 4a 00
        E 0 80 62 00
        E 80 90 49 68
        E 0 90 61 68
        E 80 80 49 00
        E 0 80 61 00
        E 160 90 1a 68
        E 0 90 32 68
        E 0 90 4a 68
        E 0 90 62 68
        E 80 80 1a 00
        E 400 80 32 00
        E 400 80 4a 00
        E 0 80 62 00
        E 80 90 1a 6a
        E 0 90 32 6a
        E 0 90 4a 6a
        E 0 90 62 6a
        E 80 80 1a 00
        E 400 80 32 00
        E 80 80 4a 00
        E 0 80 62 00
        E 80 90 4a 68
        E 0 90 62 68
        E 80 80 4a 00
        E 0 80 62 00
        E 80 90 62 69
        E 80 80 62 00
        E 80 90 1a 6a
        E 0 90 32 6a
        E 0 90 4a 6a
        E 0 90 62 6a
        E 80 80 1a 00
        E 400 80 32 00
        E 80 80 4a 00
        E 0 80 62 00
        E 80 90 4a 68
        E 0 90 62 68
        e 0 90 6c 67
        E 80 80 4a 00
        E 0 80 62 00
        e 0 80 6c 00
        E 80 90 62 67
        E 80 80 62 00
        E 80 90 19 6a
        E 0 90 31 6a
        E 0 90 49 6a
        E 0 90 61 6a
        e 0 90 6c 6a
        E 80 80 19 00
        e 0 80 6c 00
        E 400 80 31 00
        E 400 80 49 00
        E 0 80 61 00
        E 80 90 18 6c
        E 0 90 30 6c
        E 0 90 48 6c
        E 0 90 60 6c
        E 80 80 18 00
        E 400 80 30 00
        E 400 80 48 00
        E 0 80 60 00
        E 80 90 18 6d
        E 0 90 30 6d
        E 0 90 48 6d
        E 0 90 60 6d
        E 80 80 18 00
        E 400 80 30 00
        E 400 80 48 00
        E 0 80 60 00
        E 80 90 19 6c
        E 0 90 31 6c
        E 0 90 49 6c
        E 0 90 61 6c
        E 80 80 19 00
        E 400 80 31 00
        E 400 80 49 00
        E 0 80 61 00
        E 80 90 19 6a
        E 0 90 31 6a
        E 0 90 49 6a
        E 0 90 61 6a
        E 80 80 19 00
        E 400 80 31 00
        E 400 80 49 00
        E 0 80 61 00
        E 80 90 18 6c
        E 0 90 30 6c
        E 0 90 48 6c
        E 0 90 60 6c
        e 0 90 6c 6c
        E 80 80 18 00
        e 0 80 6c 00
        E 400 80 30 00
        E 80 80 48 00
        E 0 80 60 00
        E 80 90 4a 6e
        E 0 90 62 6e
        E 80 80 4a 00
        E 0 80 62 00
        E 80 90 62 6d
        E 80 80 62 00
        E 80 90 1a 6c
        E 0 90 32 6c
        E 0 90 4a 6c
        E 0 90 62 6c
        E 80 80 1a 00
        E 400 80 32 00
        E 400 80 4a 00
        E 0 80 62 00
        E 80 90 18 6a
        E 0 90 30 6a
        E 0 90 48 6a
        E 0 90 60 6a
        e 0 90 6c 6a
        E 80 80 18 00
        e 0 80 6c 00
        E 400 80 30 00
        E 479 80 48 00
        E 0 80 60 00
        E 3842 b0 7b 00
        GUID {0EE8784E-1873-4F49-817D-FF94994459F8}
        IGNTEMPO 0 120.00000000 4 4
        SRCCOLOR 10
        VELLANE 132 128 60
        COLORMAP "C:\Program Files\REAPER (x64)\Data\color_maps\rockband_guitarbass.png"
        CFGEDITVIEW -4806.412830 6.907521 0 12 0 0 0
        CFGEDIT 1 1 0 1 1 0 1 1 1 1 1 0.12500000 -8 -8 1544 872 0 2 1 1 0.00000000 0 1 0 0 0.500000 0 0 1.000000 64
        KEYSNAP 0 7 "102030050700" 0 "Pentatonic"
        EVTFILTER 0 -1 -1 -1 -1 0 1 0 0 -1.00000000 -1.00000000
      >
    >
  >
  <TRACK '{D3B78B6C-BC91-4F31-8568-8AB06FE6BC7E}'
    NAME "PART REAL_GUITAR"
    PEAKCOL 16576
    BEAT -1
    AUTOMODE 0
    VOLPAN 1.00000000000000 0.00000000000000 -1.00000000000000 -1.00000000000000 1.00000000000000
    MUTESOLO 0 0 0
    IPHASE 0
    ISBUS 0 0
    BUSCOMP 0 0
    SHOWINMIX 1 0.666700 0.500000 1 0.500000 -1 -1 -1
    FREEMODE 0
    SEL 0
    REC 0 0 0 0 0 0 0
    VU 2
    TRACKHEIGHT 0 0
    INQ 0 0 0 0.5000000000 100 0 0 100
    NCHAN 2
    FX 0
    TRACKID {D3B78B6C-BC91-4F31-8568-8AB06FE6BC7E}
    PERF 0
    MIDIOUT -1
    <MIDINOTENAMES
      0 127 "Trill Marker"
      0 126 "Tremolo Marker"
      0 125 "BRE"
      0 124 "BRE"
      0 123 "BRE"
      0 122 "BRE"
      0 121 "BRE"
      0 120 "BRE (use all 6)"
      0 119 "-----------"
      0 116 "OVERDRIVE"
      0 115 "Solo Marker"
      0 109 "-----------"
      0 108 "Fret Hand Position"
      0 107 "Force Chord Numbering"
      0 106 "Loose Strumming"
      0 105 "Strum Direction"
      0 104 "Arpeggio Marker"
      0 103 "Slide Marker"
      0 102 "Force HOPO"
      0 101 "EXPERT e String"
      0 100 "EXPERT B String"
      0 99 "EXPERT G String"
      0 98 "EXPERT D String"
      0 97 "EXPERT A String"
      0 96 "EXPERT E String"
      0 95 "-----------"
      0 82 "Loose Strumming"
      0 81 "Strum Direction"
      0 80 "Arpeggio Marker"
      0 79 "Slide Marker"
      0 78 "Force HOPO"
      0 77 "HARD e String"
      0 76 "HARD B String"
      0 75 "HARD G String"
      0 74 "HARD D String"
      0 73 "HARD A String"
      0 72 "HARD E String"
      0 71 "-----------"
      0 58 "Loose Strumming"
      0 56 "Arpeggio Marker"
      0 55 "Slide Marker"
      0 53 "MEDIUM e String"
      0 52 "MEDIUM B String"
      0 51 "MEDIUM G String"
      0 50 "MEDIUM D String"
      0 49 "MEDIUM A String"
      0 48 "MEDIUM E String"
      0 47 "-----------"
      0 32 "Arpeggio Marker"
      0 31 "Slide Marker"
      0 29 "EASY e String"
      0 28 "EASY B String"
      0 27 "EASY G String"
      0 26 "EASY D String"
      0 25 "EASY A String"
      0 24 "EASY E String"
      0 21 "-----------"
      0 18 "Flat/Sharp Swap"
      0 17 "Hide Chord Names"
      0 16 "Slash Chord"
      0 15 "D#"
      0 14 "D"
      0 13 "C#"
      0 12 "C"
      0 11 "B"
      0 10 "A#"
      0 9 "A"
      0 8 "G#"
      0 7 "G"
      0 6 "F#"
      0 5 "F"
      0 4 "E"
    >
    MAINSEND 1 0
    <FXCHAIN
      WNDRECT 0 43 655 467
      SHOW 0
      LASTSEL 1
      DOCKED 0
      BYPASS 0 0
      <JS "c3/progtr" ""
        0.000000 3.000000 0.000000 0.000000 0.000000 0.000000 0.000000 0.000000 0.000000 1.000000 - - - - - - - - - - - - - - - - - - - - - - - - - - - - - - - - - - - - - - - - - - - - - - - - - - - - - - 
      >
      FLOATPOS 0 0 0 0
      FXID {0F0465E7-E2E0-4BC0-8022-30C9E697C9E1}
      WAK 0
      BYPASS 0 0
      <VST "VSTi: ReaSynth (Cockos)" "reasynth.dll" 0 ""
        eXNlcu9e7f4AAAAAAgAAAAEAAAAAAAAAAgAAAAAAAAA4AAAAAAAAAA==
        AAAQAO++rd4N8K3eppvEO+gJMjyHFlk/AAAAAAAAAADMm4A+4jAEPA==
        AAAAAAAAAD+01hM+j8L1PQAAAD8AABAAAAA=
      >
      FLOATPOS 0 0 0 0
      FXID {5DB88B88-EFE2-472D-AE58-4D279C70E2BA}
      WAK 0
    >
    <ITEM
      POSITION 0.00000000000000
      SNAPOFFS 0.00000000000000
      LENGTH 147.79673400000001
      LOOP 0
      ALLTAKES 0
      SEL 0
      FADEIN 1 0.000000 0.000000 1 0
      FADEOUT 1 0.000000 0.000000 1 0
      MUTE 0
      IGUID {CD049ABD-CF36-49CC-B7D6-6C07691060FB}
      IID 11
      NAME "PART REAL_GUITAR"
      VOLPAN 1.000000 0.000000 1.000000 -1.000000
      SOFFS 0.00000000000000 0.00000000000000
      PLAYRATE 1.00000000000000 1 0.00000000000000 -1
      CHANMODE 0
      GUID {0DE529D0-01DD-423A-8E5E-C96E6DB5CEF2}
      <SOURCE MIDI
        HASDATA 1 480 QN
        POOLEDEVTS {ED2DEC17-05D3-4ABA-9188-E3388E4D6A12}
        <X 0 0
          /wNQQVJUIFJFQUxfR1VJVEFS
        >
        <X 5760 0
          /wFbYmVnaW5fcGcgc29uZ190cmFpbmVyX3BnXzFd
        >
        E 0 90 1d 65
        E 0 90 35 65
        E 0 90 4d 65
        E 0 90 65 65
        e 0 90 6c 65
        E 0 90 74 60
        E 80 80 1d 00
        E 0 80 35 00
        e 40 80 6c 00
        E 280 80 4d 00
        E 0 80 65 00
        E 80 90 34 68
        E 0 90 4c 68
        E 0 90 64 68
        E 80 80 34 00
        E 0 80 4c 00
        E 0 80 64 00
        E 160 90 4c 66
        E 0 90 64 66
        E 80 80 4c 00
        E 0 80 64 00
        E 160 90 1c 65
        E 0 90 34 65
        E 0 90 4c 65
        E 0 90 64 65
        E 80 80 1c 00
        E 0 80 34 00
        E 320 80 4c 00
        E 0 80 64 00
        E 80 90 33 65
        E 0 90 4b 65
        E 0 90 63 65
        E 80 80 33 00
        E 320 80 4b 00
        E 0 80 63 00
        <X 80 0
          /wFbcGdfbm9ybSBzb25nX3RyYWluZXJfcGdfMV0=
        >
        E 0 90 1b 67
        E 0 90 33 67
        E 0 90 4b 67
        E 0 90 63 67
        E 80 80 1b 00
        E 400 80 33 00
        E 160 80 4b 00
        E 0 80 63 00
        E 80 90 4c 65
        E 0 90 64 65
        E 80 80 4c 00
        E 0 80 64 00
        E 160 90 1c 66
        E 0 90 34 66
        E 0 90 4c 66
        E 0 90 64 66
        E 80 80 1c 00
        E 400 80 34 00
        E 400 80 4c 00
        E 0 80 64 00
        E 80 80 74 00
        E 0 90 1b 65
        E 0 90 33 65
        E 0 90 4b 65
        E 0 90 63 65
        E 80 80 1b 00
        E 400 80 33 00
        E 160 80 4b 00
        E 0 80 63 00
        E 80 90 4b 67
        E 0 90 63 67
        E 80 80 4b 00
        E 0 80 63 00
        E 160 90 1c 65
        E 0 90 34 65
        E 0 90 4c 65
        E 0 90 64 65
        E 80 80 1c 00
        E 0 80 34 00
        E 320 80 4c 00
        E 0 80 64 00
        E 80 90 33 65
        E 0 90 4b 65
        E 0 90 63 65
        E 80 80 33 00
        E 320 80 4b 00
        E 0 80 63 00
        E 80 90 1a 68
        E 0 90 32 68
        E 0 90 4a 68
        E 0 90 62 68
        E 1440 80 1a 00
        E 160 80 32 00
        E 80 80 4a 00
        E 0 80 62 00
        <X 240 0
          /wFbZW5kX3BnIHNvbmdfdHJhaW5lcl9wZ18xXQ==
        >
        E 0 90 1d 65
        E 0 90 35 65
        E 0 90 4d 65
        E 0 90 65 65
        E 80 80 1d 00
        E 0 80 35 00
        E 320 80 4d 00
        E 0 80 65 00
        E 80 90 34 68
        E 0 90 4c 68
        E 0 90 64 68
        E 80 80 34 00
        E 0 80 4c 00
        E 0 80 64 00
        E 160 90 4c 66
        E 0 90 64 66
        E 80 80 4c 00
        E 0 80 64 00
        E 160 90 1c 65
        E 0 90 34 65
        E 0 90 4c 65
        E 0 90 64 65
        E 80 80 1c 00
        E 0 80 34 00
        E 320 80 4c 00
        E 0 80 64 00
        E 80 90 33 65
        E 0 90 4b 65
        E 0 90 63 65
        E 80 80 33 00
        E 320 80 4b 00
        E 0 80 63 00
        E 80 90 1b 67
        E 0 90 33 67
        E 0 90 4b 67
        E 0 90 63 67
        E 80 80 1b 00
        E 400 80 33 00
        E 160 80 4b 00
        E 0 80 63 00
        E 80 90 4c 65
        E 0 90 64 65
        E 80 80 4c 00
        E 0 80 64 00
        E 160 90 1c 66
        E 0 90 34 66
        E 0 90 4c 66
        E 0 90 64 66
        E 80 80 1c 00
        E 400 80 34 00
        E 400 80 4c 00
        E 0 80 64 00
        E 80 90 1b 65
        E 0 90 33 65
        E 0 90 4b 65
        E 0 90 63 65
        E 80 80 1b 00
        E 400 80 33 00
        E 160 80 4b 00
        E 0 80 63 00
        E 80 90 4b 67
        E 0 90 63 67
        E 80 80 4b 00
        E 0 80 63 00
        E 160 90 1c 65
        E 0 90 34 65
        E 0 90 4c 65
        E 0 90 64 65
        E 80 80 1c 00
        E 0 80 34 00
        E 320 80 4c 00
        E 0 80 64 00
        E 80 90 33 65
        E 0 90 4b 65
        E 0 90 63 65
        E 80 80 33 00
        E 320 80 4b 00
        E 0 80 63 00
        E 80 90 1a 68
        E 0 90 32 68
        E 0 90 4a 68
        E 0 90 62 68
        E 1440 80 1a 00
        E 160 80 32 00
        E 80 80 4a 00
        E 0 80 62 00
        <X 240 0
          /wFbYmVnaW5fcGcgc29uZ190cmFpbmVyX3BnXzJd
        >
        E 0 90 1b 65
        E 0 90 33 65
        E 0 90 4b 65
        E 0 90 63 65
        E 80 80 1b 00
        E 0 80 33 00
        E 320 80 4b 00
        E 0 80 63 00
        E 80 90 33 67
        E 0 90 4b 67
        E 0 90 63 67
        E 80 80 33 00
        E 0 80 4b 00
        E 0 80 63 00
        E 160 90 4b 65
        E 0 90 63 65
        E 80 80 4b 00
        E 0 80 63 00
        E 160 90 1d 6a
        E 0 90 35 6a
        E 0 90 4d 6a
        E 0 90 65 6a
        e 0 90 6c 67
        E 80 80 1d 00
        E 0 80 35 00
        e 0 80 6c 00
        E 320 80 4d 00
        E 0 80 65 00
        <X 80 0
          /wFbcGdfbm9ybSBzb25nX3RyYWluZXJfcGdfMl0=
        >
        E 0 90 4d 68
        E 0 90 65 68
        e 0 90 6c 65
        E 80 80 4d 00
        E 0 80 65 00
        e 0 80 6c 00
        E 160 90 4c 68
        E 0 90 64 68
        E 80 80 4c 00
        E 0 80 64 00
        E 160 90 1a 68
        E 0 90 32 68
        E 0 90 4a 68
        E 0 90 62 68
        E 1440 80 1a 00
        E 0 80 32 00
        E 240 80 4a 00
        E 0 80 62 00
        E 240 90 1b 65
        E 0 90 33 65
        E 0 90 4b 65
        E 0 90 63 65
        E 80 80 1b 00
        E 0 80 33 00
        E 320 80 4b 00
        E 0 80 63 00
        E 80 90 33 67
        E 0 90 4b 67
        E 0 90 63 67
        E 80 80 33 00
        E 0 80 4b 00
        E 0 80 63 00
        E 160 90 4b 65
        E 0 90 63 65
        E 80 80 4b 00
        E 0 80 63 00
        E 160 90 1d 6a
        E 0 90 35 6a
        E 0 90 4d 6a
        E 0 90 65 6a
        e 0 90 6c 67
        E 80 80 1d 00
        E 0 80 35 00
        e 0 80 6c 00
        E 320 80 4d 00
        E 0 80 65 00
        E 80 90 35 68
        E 0 90 4d 68
        E 0 90 65 68
        e 0 90 6c 68
        E 80 80 35 00
        E 0 80 4d 00
        E 0 80 65 00
        e 0 80 6c 00
        E 160 90 4c 68
        E 0 90 64 68
        E 80 80 4c 00
        E 0 80 64 00
        <X 160 0
          /wFbZW5kX3BnIHNvbmdfdHJhaW5lcl9wZ18yXQ==
        >
        <X 0 0
          /wFbYmVnaW5fcGcgc29uZ190cmFpbmVyX3BnXzNd
        >
        E 0 90 1c 6a
        E 0 90 34 6a
        E 0 90 4c 6a
        E 0 90 64 6a
        E 80 80 1c 00
        E 0 80 34 00
        E 320 80 4c 00
        E 0 80 64 00
        E 80 90 34 68
        E 0 90 4c 68
        E 0 90 64 68
        E 80 80 34 00
        E 0 80 4c 00
        E 0 80 64 00
        E 160 90 4b 6a
        E 0 90 63 6a
        E 80 80 4b 00
        E 0 80 63 00
        E 160 90 1c 68
        E 0 90 34 68
        E 0 90 4c 68
        E 0 90 64 68
        E 80 80 1c 00
        E 0 80 34 00
        E 560 80 4c 00
        E 0 80 64 00
        E 80 90 4d 68
        E 0 90 65 68
        E 80 80 4d 00
        E 0 80 65 00
        E 160 90 1c 6a
        E 0 90 34 6a
        E 0 90 4c 6a
        E 0 90 64 6a
        E 80 80 1c 00
        E 0 80 34 00
        E 320 80 4c 00
        E 0 80 64 00
        <X 80 0
          /wFbcGdfbm9ybSBzb25nX3RyYWluZXJfcGdfM10=
        >
        E 0 90 34 68
        E 0 90 4c 68
        E 0 90 64 68
        E 80 80 34 00
        E 0 80 4c 00
        E 0 80 64 00
        E 160 90 4b 6a
        E 0 90 63 6a
        E 80 80 4b 00
        E 0 80 63 00
        E 160 90 1c 68
        E 0 90 4c 68
        E 0 90 64 68
        E 80 80 1c 00
        E 0 80 4c 00
        E 0 80 64 00
        E 160 90 4c 6a
        E 0 90 64 6a
        E 80 80 4c 00
        E 0 80 64 00
        E 160 90 1a 6a
        E 0 90 32 6a
        E 0 90 4a 6a
        E 0 90 62 6a
        E 80 80 1a 00
        E 0 80 32 00
        E 320 80 4a 00
        E 0 80 62 00
        E 80 90 1c 6a
        E 0 90 34 6a
        E 0 90 4c 6a
        E 0 90 64 6a
        E 0 90 74 60
        E 80 80 1c 00
        E 0 80 34 00
        E 320 80 4c 00
        E 0 80 64 00
        E 80 90 34 68
        E 0 90 4c 68
        E 0 90 64 68
        E 80 80 34 00
        E 0 80 4c 00
        E 0 80 64 00
        E 160 90 4b 6a
        E 0 90 63 6a
        E 80 80 4b 00
        E 0 80 63 00
        E 160 90 1c 68
        E 0 90 34 68
        E 0 90 4c 68
        E 0 90 64 68
        E 80 80 1c 00
        E 0 80 34 00
        E 320 80 4c 00
        E 0 80 64 00
        E 80 90 35 68
        E 0 90 4d 68
        E 0 90 65 68
        E 80 80 35 00
        E 320 80 4d 00
        E 0 80 65 00
        E 80 90 1d 6a
        E 0 90 35 6a
        E 0 90 4d 6a
        E 0 90 65 6a
        E 1440 80 1d 00
        E 0 80 35 00
        E 240 80 4d 00
        E 0 80 65 00
        <X 240 0
          /wFbZW5kX3BnIHNvbmdfdHJhaW5lcl9wZ18zXQ==
        >
        E 0 90 1d 65
        E 0 90 35 65
        E 0 90 4d 65
        E 0 90 65 65
        e 0 90 6c 65
        E 80 80 1d 00
        E 0 80 35 00
        E 40 80 74 00
        e 0 80 6c 00
        E 280 80 4d 00
        E 0 80 65 00
        E 80 90 34 68
        E 0 90 4c 68
        E 0 90 64 68
        E 80 80 34 00
        E 0 80 4c 00
        E 0 80 64 00
        E 160 90 4c 66
        E 0 90 64 66
        E 80 80 4c 00
        E 0 80 64 00
        E 160 90 1c 65
        E 0 90 34 65
        E 0 90 4c 65
        E 0 90 64 65
        E 80 80 1c 00
        E 0 80 34 00
        E 320 80 4c 00
        E 0 80 64 00
        E 80 90 33 65
        E 0 90 4b 65
        E 0 90 63 65
        E 80 80 33 00
        E 320 80 4b 00
        E 0 80 63 00
        E 80 90 1b 67
        E 0 90 33 67
        E 0 90 4b 67
        E 0 90 63 67
        E 80 80 1b 00
        E 400 80 33 00
        E 160 80 4b 00
        E 0 80 63 00
        E 80 90 4c 65
        E 0 90 64 65
        E 80 80 4c 00
        E 0 80 64 00
        E 160 90 1c 66
        E 0 90 34 66
        E 0 90 4c 66
        E 0 90 64 66
        E 80 80 1c 00
        E 400 80 34 00
        E 400 80 4c 00
        E 0 80 64 00
        E 80 90 1b 65
        E 0 90 33 65
        E 0 90 4b 65
        E 0 90 63 65
        E 80 80 1b 00
        E 400 80 33 00
        E 160 80 4b 00
        E 0 80 63 00
        E 80 90 4b 67
        E 0 90 63 67
        E 80 80 4b 00
        E 0 80 63 00
        E 160 90 1c 65
        E 0 90 34 65
        E 0 90 4c 65
        E 0 90 64 65
        E 80 80 1c 00
        E 0 80 34 00
        E 320 80 4c 00
        E 0 80 64 00
        E 80 90 33 65
        E 0 90 4b 65
        E 0 90 63 65
        E 80 80 33 00
        E 320 80 4b 00
        E 0 80 63 00
        E 80 90 1a 68
        E 0 90 32 68
        E 0 90 4a 68
        E 0 90 62 68
        E 1440 80 1a 00
        E 160 80 32 00
        E 80 80 4a 00
        E 0 80 62 00
        E 240 90 1d 65
        E 0 90 35 65
        E 0 90 4d 65
        E 0 90 65 65
        E 80 80 1d 00
        E 0 80 35 00
        E 320 80 4d 00
        E 0 80 65 00
        E 80 90 34 68
        E 0 90 4c 68
        E 0 90 64 68
        E 80 80 34 00
        E 0 80 4c 00
        E 0 80 64 00
        E 160 90 4c 66
        E 0 90 64 66
        E 80 80 4c 00
        E 0 80 64 00
        E 160 90 1c 65
        E 0 90 34 65
        E 0 90 4c 65
        E 0 90 64 65
        E 80 80 1c 00
        E 0 80 34 00
        E 320 80 4c 00
        E 0 80 64 00
        E 80 90 33 65
        E 0 90 4b 65
        E 0 90 63 65
        E 80 80 33 00
        E 320 80 4b 00
        E 0 80 63 00
        E 80 90 1b 67
        E 0 90 33 67
        E 0 90 4b 67
        E 0 90 63 67
        E 80 80 1b 00
        E 400 80 33 00
        E 160 80 4b 00
        E 0 80 63 00
        E 80 90 4c 65
        E 0 90 64 65
        E 80 80 4c 00
        E 0 80 64 00
        E 160 90 1c 66
        E 0 90 34 66
        E 0 90 4c 66
        E 0 90 64 66
        E 80 80 1c 00
        E 400 80 34 00
        E 400 80 4c 00
        E 0 80 64 00
        E 80 90 1b 65
        E 0 90 33 65
        E 0 90 4b 65
        E 0 90 63 65
        E 0 90 74 60
        E 80 80 1b 00
        E 400 80 33 00
        E 160 80 4b 00
        E 0 80 63 00
        E 80 90 4b 67
        E 0 90 63 67
        E 80 80 4b 00
        E 0 80 63 00
        E 160 90 1c 65
        E 0 90 34 65
        E 0 90 4c 65
        E 0 90 64 65
        E 80 80 1c 00
        E 0 80 34 00
        E 320 80 4c 00
        E 0 80 64 00
        E 80 90 33 65
        E 0 90 4b 65
        E 0 90 63 65
        E 80 80 33 00
        E 320 80 4b 00
        E 0 80 63 00
        E 80 90 1a 68
        E 0 90 32 68
        E 0 90 4a 68
        E 0 90 62 68
        E 1440 80 1a 00
        E 160 80 32 00
        E 80 80 4a 00
        E 0 80 62 00
        E 240 80 74 00
        E 0 90 1b 65
        E 0 90 33 65
        E 0 90 4b 65
        E 0 90 63 65
        E 80 80 1b 00
        E 0 80 33 00
        E 320 80 4b 00
        E 0 80 63 00
        E 80 90 33 67
        E 0 90 4b 67
        E 0 90 63 67
        E 80 80 33 00
        E 0 80 4b 00
        E 0 80 63 00
        E 160 90 4b 65
        E 0 90 63 65
        E 80 80 4b 00
        E 0 80 63 00
        E 160 90 1d 6a
        E 0 90 35 6a
        E 0 90 4d 6a
        E 0 90 65 6a
        e 0 90 6c 67
        E 80 80 1d 00
        E 0 80 35 00
        e 0 80 6c 00
        E 320 80 4d 00
        E 0 80 65 00
        E 80 90 4d 68
        E 0 90 65 68
        e 0 90 6c 65
        E 80 80 4d 00
        E 0 80 65 00
        e 0 80 6c 00
        E 160 90 4c 68
        E 0 90 64 68
        E 80 80 4c 00
        E 0 80 64 00
        E 160 90 1a 68
        E 0 90 32 68
        E 0 90 4a 68
        E 0 90 62 68
        E 1440 80 1a 00
        E 0 80 32 00
        E 240 80 4a 00
        E 0 80 62 00
        E 240 90 1b 65
        E 0 90 33 65
        E 0 90 4b 65
        E 0 90 63 65
        E 80 80 1b 00
        E 0 80 33 00
        E 320 80 4b 00
        E 0 80 63 00
        E 80 90 33 67
        E 0 90 4b 67
        E 0 90 63 67
        E 80 80 33 00
        E 0 80 4b 00
        E 0 80 63 00
        E 160 90 4b 65
        E 0 90 63 65
        E 80 80 4b 00
        E 0 80 63 00
        E 160 90 1d 6a
        E 0 90 35 6a
        E 0 90 4d 6a
        E 0 90 65 6a
        e 0 90 6c 67
        E 80 80 1d 00
        E 0 80 35 00
        e 0 80 6c 00
        E 320 80 4d 00
        E 0 80 65 00
        E 80 90 35 68
        E 0 90 4d 68
        E 0 90 65 68
        e 0 90 6c 68
        E 80 80 35 00
        E 0 80 4d 00
        E 0 80 65 00
        e 0 80 6c 00
        E 160 90 4c 68
        E 0 90 64 68
        E 80 80 4c 00
        E 0 80 64 00
        E 160 90 1c 6a
        E 0 90 34 6a
        E 0 90 4c 6a
        E 0 90 64 6a
        E 80 80 1c 00
        E 0 80 34 00
        E 320 80 4c 00
        E 0 80 64 00
        E 80 90 34 68
        E 0 90 4c 68
        E 0 90 64 68
        E 80 80 34 00
        E 0 80 4c 00
        E 0 80 64 00
        E 160 90 4b 6a
        E 0 90 63 6a
        E 80 80 4b 00
        E 0 80 63 00
        E 160 90 1c 68
        E 0 90 34 68
        E 0 90 4c 68
        E 0 90 64 68
        E 80 80 1c 00
        E 0 80 34 00
        E 560 80 4c 00
        E 0 80 64 00
        E 80 90 4d 68
        E 0 90 65 68
        E 80 80 4d 00
        E 0 80 65 00
        E 160 90 1c 6a
        E 0 90 34 6a
        E 0 90 4c 6a
        E 0 90 64 6a
        E 80 80 1c 00
        E 0 80 34 00
        E 320 80 4c 00
        E 0 80 64 00
        E 80 90 34 68
        E 0 90 4c 68
        E 0 90 64 68
        E 80 80 34 00
        E 0 80 4c 00
        E 0 80 64 00
        E 160 90 4b 6a
        E 0 90 63 6a
        E 80 80 4b 00
        E 0 80 63 00
        E 160 90 1c 68
        E 0 90 4c 68
        E 0 90 64 68
        E 80 80 1c 00
        E 0 80 4c 00
        E 0 80 64 00
        E 159 90 64 6a
        E 80 80 64 00
        E 160 90 62 6a
        E 1 90 1a 6a
        E 0 90 32 6a
        E 80 80 1a 00
        E 0 80 32 00
        E 320 80 62 00
        E 80 90 1c 6a
        E 0 90 34 6a
        E 0 90 4c 6a
        E 0 90 64 6a
        E 80 80 1c 00
        E 0 80 34 00
        E 319 80 4c 00
        E 0 80 64 00
        E 80 90 64 68
        E 1 90 34 68
        E 79 80 64 00
        E 1 80 34 00
        E 160 90 4b 6a
        E 0 90 63 6a
        E 80 80 4b 00
        E 0 80 63 00
        E 160 90 1c 68
        E 0 90 34 68
        E 0 90 4c 68
        E 0 90 64 68
        E 80 80 1c 00
        E 0 80 34 00
        E 319 80 4c 00
        E 0 80 64 00
        E 81 90 35 68
        E 0 90 4d 68
        E 0 90 65 68
        E 80 80 35 00
        E 319 80 4d 00
        E 0 80 65 00
        E 81 90 1d 6a
        E 0 90 35 6a
        E 0 90 4d 6a
        E 0 90 65 6a
        E 1680 80 1d 00
        E 0 80 35 00
        E 0 80 4d 00
        E 0 80 65 00
        E 4079 b0 7b 00
        GUID {EEA0E5E2-434A-4BDC-A5F8-92D1948EC230}
        IGNTEMPO 0 120.00000000 4 4
        SRCCOLOR 11
        VELLANE 132 128 60
        COLORMAP "C:\Program Files\REAPER (x64)\Data\color_maps\rockband_guitarbass.png"
        CFGEDITVIEW -3368.188089 8.506769 0 12 0 0 0
        CFGEDIT 1 1 0 1 1 0 1 1 1 1 1 0.12500000 -8 -8 1544 872 0 2 1 1 0.00000000 0 1 0 0 0.500000 0 0 1.000000 64
        KEYSNAP 0 7 "102030050700" 0 "Pentatonic"
        EVTFILTER 0 -1 -1 -1 -1 0 1 0 0 -1.00000000 -1.00000000
      >
    >
  >
  <TRACK '{8B536F71-E11B-4C15-8D54-49FDDD5BFB82}'
    NAME "EVENTS"
    PEAKCOL 16576
    BEAT -1
    AUTOMODE 0
    VOLPAN 1.00000000000000 0.00000000000000 -1.00000000000000 -1.00000000000000 1.00000000000000
    MUTESOLO 0 0 0
    IPHASE 0
    ISBUS 0 0
    BUSCOMP 0 0
    SHOWINMIX 1 0.666700 0.500000 1 0.500000 -1 -1 -1
    FREEMODE 0
    SEL 0
    REC 0 0 0 0 0 0 0
    VU 2
    TRACKHEIGHT 0 0
    INQ 0 0 0 0.5000000000 100 0 0 100
    NCHAN 2
    FX 1
    TRACKID {8B536F71-E11B-4C15-8D54-49FDDD5BFB82}
    PERF 0
    MIDIOUT -1
    <MIDINOTENAMES
      0 26 "Hi-Hat"
      0 25 "Snare"
      0 24 "Kick"
    >
    MAINSEND 1 0
    <FXCHAIN
      SHOW 0
      LASTSEL 0
      DOCKED 0
    >
    <ITEM
      POSITION 0.00000000000000
      SNAPOFFS 0.00000000000000
      LENGTH 147.79673400000001
      LOOP 0
      ALLTAKES 0
      SEL 0
      FADEIN 1 0.000000 0.000000 1 0
      FADEOUT 1 0.000000 0.000000 1 0
      MUTE 0
      IGUID {A179F95D-E374-4E22-8AFF-85D44939A138}
      IID 12
      NAME "EVENTS"
      VOLPAN 1.000000 0.000000 1.000000 -1.000000
      SOFFS 0.00000000000000 0.00000000000000
      PLAYRATE 1.00000000000000 1 0.00000000000000 -1
      CHANMODE 0
      GUID {4D8B96C1-77C4-499D-B8C6-9C56440B249F}
      <SOURCE MIDI
        HASDATA 1 480 QN
        POOLEDEVTS {6410F9DE-6DE8-4F6A-BBAA-B180E1DE3188}
        <X 0 0
          /wNFVkVOVFM=
        >
        <X 1920 0
          /wFbcHJjX2ludHJvXQ==
        >
        <X 240 0
          /wFbY3Jvd2RfbWVsbG93XQ==
        >
        <X 0 0
          /wFbY3Jvd2Rfbm9jbGFwXQ==
        >
        <X 3600 0
          /wFbcHJjX3ZlcnNlXzFhXQ==
        >
        <X 960 0
          /wFbbXVzaWNfc3RhcnRd
        >
        <X 14400 0
          /wFbcHJjX3ZlcnNlXzJd
        >
        <X 13440 0
          /wFbcHJjX3ZlcnNlXzFiXQ==
        >
        <X 15360 0
          /wFbcHJjX291dHJvXQ==
        >
        <X 13920 0
          /wFbbXVzaWNfZW5kXQ==
        >
        <X 3355 0
          /wFbZW5kXQ==
        >
        E 5 b0 7b 00
        GUID {089E1C16-AA80-44C3-83B8-69642753A155}
        IGNTEMPO 0 120.00000000 4 4
        SRCCOLOR 12
        VELLANE 132 128 60
        COLORMAP "C:\Program Files\REAPER (x64)\Data\color_maps\rockband_guitarbass.png"
        CFGEDITVIEW -8427.682770 6.907521 0 48 0 0 0
        CFGEDIT 1 1 0 1 1 0 1 1 1 1 1 0.12500000 -8 -8 1544 872 0 2 1 1 0.00000000 0 1 0 0 0.500000 0 0 1.000000 64
        KEYSNAP 0 7 "102030050700" 0 "Pentatonic"
        EVTFILTER 0 -1 -1 -1 -1 0 1 0 0 -1.00000000 -1.00000000
      >
    >
  >
  <TRACK '{9221032D-3DEE-4406-AF59-DCBF700F84EA}'
    NAME "BEAT"
    PEAKCOL 16576
    BEAT -1
    AUTOMODE 0
    VOLPAN 1.00000000000000 0.00000000000000 -1.00000000000000 -1.00000000000000 1.00000000000000
    MUTESOLO 0 0 0
    IPHASE 0
    ISBUS 0 0
    BUSCOMP 0 0
    SHOWINMIX 1 0.666700 0.500000 1 0.500000 -1 -1 -1
    FREEMODE 0
    SEL 0
    REC 0 0 0 0 0 0 0
    VU 2
    TRACKHEIGHT 0 0
    INQ 0 0 0 0.5000000000 100 0 0 100
    NCHAN 2
    FX 1
    TRACKID {9221032D-3DEE-4406-AF59-DCBF700F84EA}
    PERF 0
    MIDIOUT -1
    <MIDINOTENAMES
      0 13 "Up Beats"
      0 12 "Downbeat"
    >
    MAINSEND 1 0
    <FXCHAIN
      SHOW 0
      LASTSEL 0
      DOCKED 0
    >
    <ITEM
      POSITION 0.00000000000000
      SNAPOFFS 0.00000000000000
      LENGTH 147.79673400000001
      LOOP 0
      ALLTAKES 0
      SEL 0
      FADEIN 1 0.000000 0.000000 1 0
      FADEOUT 1 0.000000 0.000000 1 0
      MUTE 0
      IGUID {6E60088D-FC76-405A-9434-CCF2FC764244}
      IID 13
      NAME "BEAT"
      VOLPAN 1.000000 0.000000 1.000000 -1.000000
      SOFFS 0.00000000000000 0.00000000000000
      PLAYRATE 1.00000000000000 1 0.00000000000000 -1
      CHANMODE 0
      GUID {D7375F3D-B4D1-47FF-B712-00611E3BC56B}
      <SOURCE MIDI
        HASDATA 1 480 QN
        POOLEDEVTS {55966B92-7A96-410D-87E5-400D5D6E1C07}
        <X 0 0
          /wNCRUFU
        >
        E 0 96 0c 64
        E 120 86 0c 00
        E 360 96 0d 64
        E 120 86 0d 00
        E 360 96 0d 64
        E 120 86 0d 00
        E 360 96 0d 64
        E 120 86 0d 00
        E 360 96 0c 64
        E 120 86 0c 00
        E 360 96 0d 64
        E 120 86 0d 00
        E 360 96 0d 64
        E 120 86 0d 00
        E 360 96 0d 64
        E 120 86 0d 00
        E 360 96 0c 64
        E 120 86 0c 00
        E 360 96 0d 64
        E 120 86 0d 00
        E 360 96 0d 64
        E 120 86 0d 00
        E 360 96 0d 64
        E 120 86 0d 00
        E 360 96 0c 64
        E 120 86 0c 00
        E 360 96 0d 64
        E 120 86 0d 00
        E 360 96 0d 64
        E 120 86 0d 00
        E 360 96 0d 64
        E 120 86 0d 00
        E 360 96 0c 64
        E 120 86 0c 00
        E 360 96 0d 64
        E 120 86 0d 00
        E 360 96 0d 64
        E 120 86 0d 00
        E 360 96 0d 64
        E 120 86 0d 00
        E 360 96 0c 64
        E 120 86 0c 00
        E 360 96 0d 64
        E 120 86 0d 00
        E 360 96 0d 64
        E 120 86 0d 00
        E 360 96 0d 64
        E 120 86 0d 00
        E 360 96 0c 64
        E 120 86 0c 00
        E 360 96 0d 64
        E 120 86 0d 00
        E 360 96 0d 64
        E 120 86 0d 00
        E 360 96 0d 64
        E 120 86 0d 00
        E 360 96 0c 64
        E 120 86 0c 00
        E 360 96 0d 64
        E 120 86 0d 00
        E 360 96 0d 64
        E 120 86 0d 00
        E 360 96 0d 64
        E 120 86 0d 00
        E 360 96 0c 64
        E 120 86 0c 00
        E 360 96 0d 64
        E 120 86 0d 00
        E 360 96 0d 64
        E 120 86 0d 00
        E 360 96 0d 64
        E 120 86 0d 00
        E 360 96 0c 64
        E 120 86 0c 00
        E 360 96 0d 64
        E 120 86 0d 00
        E 360 96 0d 64
        E 120 86 0d 00
        E 360 96 0d 64
        E 120 86 0d 00
        E 360 96 0c 64
        E 120 86 0c 00
        E 360 96 0d 64
        E 120 86 0d 00
        E 360 96 0d 64
        E 120 86 0d 00
        E 360 96 0d 64
        E 120 86 0d 00
        E 360 96 0c 64
        E 120 86 0c 00
        E 360 96 0d 64
        E 120 86 0d 00
        E 360 96 0d 64
        E 120 86 0d 00
        E 360 96 0d 64
        E 120 86 0d 00
        E 360 96 0c 64
        E 120 86 0c 00
        E 360 96 0d 64
        E 120 86 0d 00
        E 360 96 0d 64
        E 120 86 0d 00
        E 360 96 0d 64
        E 120 86 0d 00
        E 360 96 0c 64
        E 120 86 0c 00
        E 360 96 0d 64
        E 120 86 0d 00
        E 360 96 0d 64
        E 120 86 0d 00
        E 360 96 0d 64
        E 120 86 0d 00
        E 360 96 0c 64
        E 120 86 0c 00
        E 360 96 0d 64
        E 120 86 0d 00
        E 360 96 0d 64
        E 120 86 0d 00
        E 360 96 0d 64
        E 120 86 0d 00
        E 360 96 0c 64
        E 120 86 0c 00
        E 360 96 0d 64
        E 120 86 0d 00
        E 360 96 0d 64
        E 120 86 0d 00
        E 360 96 0d 64
        E 120 86 0d 00
        E 360 96 0c 64
        E 120 86 0c 00
        E 360 96 0d 64
        E 120 86 0d 00
        E 360 96 0d 64
        E 120 86 0d 00
        E 360 96 0d 64
        E 120 86 0d 00
        E 360 96 0c 64
        E 120 86 0c 00
        E 360 96 0d 64
        E 120 86 0d 00
        E 360 96 0d 64
        E 120 86 0d 00
        E 360 96 0d 64
        E 120 86 0d 00
        E 360 96 0c 64
        E 120 86 0c 00
        E 360 96 0d 64
        E 120 86 0d 00
        E 360 96 0d 64
        E 120 86 0d 00
        E 360 96 0d 64
        E 120 86 0d 00
        E 360 96 0c 64
        E 120 86 0c 00
        E 360 96 0d 64
        E 120 86 0d 00
        E 360 96 0d 64
        E 120 86 0d 00
        E 360 96 0d 64
        E 120 86 0d 00
        E 360 96 0c 64
        E 120 86 0c 00
        E 360 96 0d 64
        E 120 86 0d 00
        E 360 96 0d 64
        E 120 86 0d 00
        E 360 96 0d 64
        E 120 86 0d 00
        E 360 96 0c 64
        E 120 86 0c 00
        E 360 96 0d 64
        E 120 86 0d 00
        E 360 96 0d 64
        E 120 86 0d 00
        E 360 96 0d 64
        E 120 86 0d 00
        E 360 96 0c 64
        E 120 86 0c 00
        E 360 96 0d 64
        E 120 86 0d 00
        E 360 96 0d 64
        E 120 86 0d 00
        E 360 96 0d 64
        E 120 86 0d 00
        E 360 96 0c 64
        E 120 86 0c 00
        E 360 96 0d 64
        E 120 86 0d 00
        E 360 96 0d 64
        E 120 86 0d 00
        E 360 96 0d 64
        E 120 86 0d 00
        E 360 96 0c 64
        E 120 86 0c 00
        E 360 96 0d 64
        E 120 86 0d 00
        E 360 96 0d 64
        E 120 86 0d 00
        E 360 96 0d 64
        E 120 86 0d 00
        E 360 96 0c 64
        E 120 86 0c 00
        E 360 96 0d 64
        E 120 86 0d 00
        E 360 96 0d 64
        E 120 86 0d 00
        E 360 96 0d 64
        E 120 86 0d 00
        E 360 96 0c 64
        E 120 86 0c 00
        E 360 96 0d 64
        E 120 86 0d 00
        E 360 96 0d 64
        E 120 86 0d 00
        E 360 96 0d 64
        E 120 86 0d 00
        E 360 96 0c 64
        E 120 86 0c 00
        E 360 96 0d 64
        E 120 86 0d 00
        E 360 96 0d 64
        E 120 86 0d 00
        E 360 96 0d 64
        E 120 86 0d 00
        E 360 96 0c 64
        E 120 86 0c 00
        E 360 96 0d 64
        E 120 86 0d 00
        E 360 96 0d 64
        E 120 86 0d 00
        E 360 96 0d 64
        E 120 86 0d 00
        E 360 96 0c 64
        E 120 86 0c 00
        E 360 96 0d 64
        E 120 86 0d 00
        E 360 96 0d 64
        E 120 86 0d 00
        E 360 96 0d 64
        E 120 86 0d 00
        E 360 96 0c 64
        E 120 86 0c 00
        E 360 96 0d 64
        E 120 86 0d 00
        E 360 96 0d 64
        E 120 86 0d 00
        E 360 96 0d 64
        E 120 86 0d 00
        E 360 96 0c 64
        E 120 86 0c 00
        E 360 96 0d 64
        E 120 86 0d 00
        E 360 96 0d 64
        E 120 86 0d 00
        E 360 96 0d 64
        E 120 86 0d 00
        E 360 96 0c 64
        E 120 86 0c 00
        E 360 96 0d 64
        E 120 86 0d 00
        E 360 96 0d 64
        E 120 86 0d 00
        E 360 96 0d 64
        E 120 86 0d 00
        E 360 96 0c 64
        E 120 86 0c 00
        E 360 96 0d 64
        E 120 86 0d 00
        E 360 96 0d 64
        E 120 86 0d 00
        E 360 96 0d 64
        E 120 86 0d 00
        E 360 96 0c 64
        E 120 86 0c 00
        E 360 96 0d 64
        E 120 86 0d 00
        E 360 96 0d 64
        E 120 86 0d 00
        E 360 96 0d 64
        E 120 86 0d 00
        E 360 b0 7b 00
        GUID {803D3866-BE74-4E6A-8B35-B2E4CDEC73AC}
        IGNTEMPO 0 120.00000000 4 4
        SRCCOLOR 13
        VELLANE 132 128 60
        COLORMAP "C:\Program Files\REAPER (x64)\Data\color_maps\rockband_guitarbass.png"
        CFGEDITVIEW -8427.682770 6.907521 0 48 0 0 0
        CFGEDIT 1 1 0 1 1 0 1 1 1 1 1 0.12500000 -8 -8 1544 872 0 2 1 1 0.00000000 0 1 0 0 0.500000 0 0 1.000000 64
        KEYSNAP 0 7 "102030050700" 0 "Pentatonic"
        EVTFILTER 0 -1 -1 -1 -1 0 1 0 0 -1.00000000 -1.00000000
      >
    >
  >
  <TRACK '{4F3B5DC8-10B6-48D1-9673-02095D3B5A7C}'
    NAME "backing"
    PEAKCOL 16576
    BEAT -1
    AUTOMODE 0
    VOLPAN 1.00000000000000 0.00000000000000 -1.00000000000000 -1.00000000000000 1.00000000000000
    MUTESOLO 0 0 0
    IPHASE 0
    ISBUS 0 0
    BUSCOMP 0 0
    SHOWINMIX 1 0.666700 0.500000 1 0.500000 -1 -1 -1
    FREEMODE 0
    SEL 0
    REC 0 0 0 0 0 0 0
    VU 2
    TRACKHEIGHT 0 0
    INQ 0 0 0 0.5000000000 100 0 0 100
    NCHAN 2
    FX 1
    TRACKID {4F3B5DC8-10B6-48D1-9673-02095D3B5A7C}
    PERF 0
    MIDIOUT -1
    MAINSEND 1 0
    <ITEM
      POSITION 0.00000000000000
      SNAPOFFS 0.00000000000000
      LENGTH 147.79673469387754
      LOOP 0
      ALLTAKES 0
      SEL 0
      FADEIN 1 0.000000 0.000000 1 0
      FADEOUT 1 0.000000 0.000000 1 0
      MUTE 0
      IGUID {B781966D-517D-40F7-A38E-D4D59BBC6498}
      IID 22
      NAME "backing.wav"
      VOLPAN 1.000000 0.000000 1.000000 -1.000000
      SOFFS 0.00000000000000
      PLAYRATE 1.00000000000000 1 0.00000000000000 -1
      CHANMODE 0
      GUID {B6D54CA2-D11B-4677-A487-D5521B9F6495}
      <SOURCE WAVE
        FILE "wav\backing.wav"
      >
    >
  >
  <EXTENSIONS
  >
>
