<REAPER_PROJECT 0.1 "4.22/x64"
  RIPPLE 0
  GROUPOVERRIDE 0 0 0
  AUTOXFADE 1
  ENVATTACH 1
  MIXERUIFLAGS 11 48
  PEAKGAIN 1.00000000000000
  FEEDBACK 0
  PANLAW 1.00000000000000
  PROJOFFS 0.00000000000000 0
  MAXPROJLEN 0 600.00000000000000
  GRID 3199 8 1.00000000000000 8 1.00000000000000 0
  TIMEMODE 1 0 3
  PANMODE 3
  CURSOR 0.00000000000000
  ZOOM 208.45885817181315 0 0
  VZOOMEX 6
  USE_REC_CFG 0
  RECMODE 1
  SMPTESYNC 0 23.976024 100 40 1000 300 0 0.000000 1
  LOOP 0
  LOOPGRAN 0 4.00000000000000
  RECORD_PATH "" ""
  <RECORD_CFG
  >
  <APPLYFX_CFG
  >
  RENDER_FILE ""
  RENDER_PATTERN ""
  RENDER_FMT 0 2 0
  RENDER_1X 0
  RENDER_RANGE 1 0.00000000000000 0.00000000000000
  RENDER_RESAMPLE 3 0 1
  RENDER_ADDTOPROJ 0
  RENDER_STEMS 0
  RENDER_DITHER 0
  TIMELOCKMODE 0
  ITEMMIX 0
  DEFPITCHMODE 393216
  TAKELANE 1
  SAMPLERATE 44100 0 0
  <RENDER_CFG
  >
  LOCK 1
  <METRONOME 6 2.000000
    VOL 0.250000 0.125000
    FREQ 800 1600 1
    BEATLEN 4
    SAMPLES "" ""
  >
  GLOBAL_AUTO -1
  TEMPO 120.00000000000000 4 4
  PLAYRATE 1.00000000000000 0 0.25000 4.00000
  SELECTION 0.00000000000000 0.00000000000000
  SELECTION2 0.00000000000000 0.00000000000000
  MASTERAUTOMODE 0
  MASTERTRACKHEIGHT 0
  MASTERPEAKCOL 16576
  MASTERMUTESOLO 0
  MASTERTRACKVIEW 0 0.666700 0.500000 0.500000 -1 -1 -1
  MASTERHWOUT 0 0 1.00000000000000 0.00000000000000 0 0 0 -1.00000000000000
  MASTER_NCH 2 2
  MASTER_VOLUME 1.00000000000000 0.00000000000000 -1.00000000000000 -1.00000000000000 1.00000000000000
  MASTER_PANMODE -1
  MASTER_FX 1
  MASTER_SEL 0
  <MASTERPLAYSPEEDENV
    ACT 0
    VIS 0 1 1.000000
    LANEHEIGHT 0 0
    ARM 0
    DEFSHAPE 0 -1 -1
  >
  <TEMPOENVEX
    ACT 1
    VIS 1 0 1.000000
    LANEHEIGHT 0 0
    ARM 0
    DEFSHAPE 1 -1 -1
    PT 0.000000000000 120.0000000000 1 262146
    PT 1.000000000000 120.0000000000 1 262148
  >
  <PROJBAY
  >
  <TRACK '{F2921042-8726-40AD-8E4B-EC82ECB33326}'
    NAME "PART DRUMS"
    PEAKCOL 16576
    BEAT -1
    AUTOMODE 0
    VOLPAN 1.00000000000000 0.00000000000000 -1.00000000000000 -1.00000000000000 1.00000000000000
    MUTESOLO 0 0 0
    IPHASE 0
    ISBUS 1 1
    BUSCOMP 0 0
    SHOWINMIX 1 0.666700 0.500000 1 0.500000 -1 -1 -1
    FREEMODE 0
    SEL 0
    REC 0 0 0 0 0 0 0
    VU 2
    TRACKHEIGHT 0 0
    INQ 0 0 0 0.5000000000 100 0 0 100
    NCHAN 2
    FX 1
    TRACKID {F2921042-8726-40AD-8E4B-EC82ECB33326}
    PERF 0
    MIDIOUT -1
    <MIDINOTENAMES
      0 127 "Cymbal Swells"
      0 126 "Drum Roll"
      0 125 "---"
      0 124 "DRUM FILL"
      0 123 "DRUM FILL"
      0 122 "DRUM FILL"
      0 121 "DRUM FILL"
      0 120 "DRUM FILL (use all 5)"
      0 118 "----"
      0 116 "OVERDRIVE"
      0 114 "----"
      0 112 "TOM GEMS PAD 4"
      0 111 "TOM GEMS PAD 3"
      0 110 "TOM GEMS PAD 2"
      0 103 "Solo Marker"
      0 102 "----"
      0 100 "EXPERT Green"
      0 99 "EXPERT Blue"
      0 98 "EXPERT Yellow"
      0 97 "EXPERT Red"
      0 96 "EXPERT Kick"
      0 92 "----"
      0 88 "HARD Green"
      0 87 "HARD Blue"
      0 86 "HARD Yellow"
      0 85 "HARD Red"
      0 84 "HARD Kick"
      0 80 "----"
      0 76 "MEDIUM Green"
      0 75 "MEDIUM Blue"
      0 74 "MEDIUM Yellow"
      0 73 "MEDIUM Red"
      0 72 "MEDIUM Kick"
      0 68 "----"
      0 64 "EASY Green"
      0 63 "EASY Blue"
      0 62 "EASY Yellow"
      0 61 "EASY Red"
      0 60 "EASY Kick"
      0 56 "----"
      0 52 "-- DRUM ANIMATION --"
      0 51 "FLOOR TOM RH"
      0 50 "FLOOR TOM LH"
      0 49 "TOM2 RH"
      0 48 "TOM2 LH"
      0 47 "TOM1 RH"
      0 46 "TOM1 LH"
      0 45 "SOFT CRASH 2 LH"
      0 44 "CRASH 2 LH"
      0 43 "RIDE LH"
      0 42 "RIDE CYM RH"
      0 41 "CRASH2 CHOKE"
      0 40 "CRASH1 CHOKE"
      0 39 "CRASH2 SOFT RH"
      0 38 "CRASH2 HARD RH"
      0 37 "CRASH1 SOFT RH"
      0 36 "CRASH1 HARD RH"
      0 35 "CRASH1 SOFT LH"
      0 34 "CRASH1 HARD LH"
      0 32 "PERCUSSION RH"
      0 31 "HI-HAT RH"
      0 30 "HI-HAT LH"
      0 29 "SOFT SNARE RH"
      0 28 "SOFT SNARE LH"
      0 27 "SNARE RH"
      0 26 "SNARE LH"
      0 25 "HI-HAT OPEN"
      0 24 "KICK RF"
    >
    MAINSEND 1 0
    <FXCHAIN
      WNDRECT 0 43 878 559
      SHOW 0
      LASTSEL 0
      DOCKED 0
      BYPASS 0 0
      <VST "VSTi: RBN Preview (RBN)" "rbprev_vst64.dll" 0 ""
        dnBicu5e7f4AAAAAAgAAAAEAAAAAAAAAAgAAAAAAAAAEAAAAAQAAAA==
        AAAQAAMBqgAAABAAAAA=
      >
      FLOATPOS 0 0 0 0
      FXID {A8B18C05-D306-4E27-BD10-500D55559816}
      WAK 0
    >
    <ITEM
      POSITION 0.00000000000000
      SNAPOFFS 0.00000000000000
      LENGTH 83.00000000000000
      LOOP 0
      ALLTAKES 0
      SEL 0
      FADEIN 1 0.000000 0.000000 1 0
      FADEOUT 1 0.000000 0.000000 1 0
      MUTE 0
      IGUID {8571EC76-2B93-4759-A0C3-B877DEC61478}
      IID 1
      NAME "PART DRUMS"
      VOLPAN 1.000000 0.000000 1.000000 -1.000000
      SOFFS 0.00000000000000 0.00000000000000
      PLAYRATE 1.00000000000000 1 0.00000000000000 -1
      CHANMODE 0
      GUID {CEBD2FF4-53B8-402C-92E3-ED324BB7829C}
      <SOURCE MIDI
        HASDATA 1 480 QN
        POOLEDEVTS {B6823962-84BC-46B1-B702-0E48F5A7A4DE}
        <X 0 0
          /wNQQVJUIERSVU1T
        >
        <X 240 0
          /wFbbWl4IDEgZHJ1bXMwXQ==
        >
        <X 0 0
          /wFbbWl4IDAgZHJ1bXMwXQ==
        >
        <X 120 0
          /wFbbWl4IDIgZHJ1bXMwXQ==
        >
        <X 120 0
          /wFbbWl4IDMgZHJ1bXMwXQ==
        >
        <X 3360 0
          /wFbcGxheV0=
        >
        E 0 90 1a 60
        E 0 90 2f 60
        E 0 90 61 60
        E 0 90 62 60
        E 0 90 74 60
        E 0 90 55 60
        E 0 90 56 60
        E 0 90 49 60
        E 0 90 4a 60
        E 0 90 6e 60
        E 0 90 3d 60
        E 0 90 3e 60
        E 120 80 1a 00
        E 0 80 2f 00
        E 0 80 61 00
        E 0 80 62 00
        E 0 80 55 00
        E 0 80 56 00
        E 0 80 49 00
        E 0 80 4a 00
        E 0 90 1a 60
        E 0 90 2f 60
        E 0 90 61 60
        E 0 90 62 60
        E 0 80 3d 00
        E 0 80 3e 00
        E 120 80 1a 00
        E 0 80 2f 00
        E 0 80 61 00
        E 0 80 62 00
        E 0 90 1a 60
        E 0 90 2f 60
        E 0 90 61 60
        E 0 90 62 60
        E 0 90 55 60
        E 0 90 56 60
        E 120 80 6e 00
        E 0 80 1a 00
        E 0 80 2f 00
        E 0 80 61 00
        E 0 80 62 00
        E 0 80 55 00
        E 0 80 56 00
        <X 600 0
          /wFbbWVsbG93XQ==
        >
        E 0 90 26 60
        E 0 90 64 60
        E 0 90 58 60
        E 0 90 4c 60
        E 0 90 40 60
        E 120 80 74 00
        E 0 80 26 00
        E 0 80 64 00
        E 0 80 58 00
        E 0 80 4c 00
        E 0 80 40 00
        E 120 90 1f 60
        E 0 90 62 60
        E 0 90 56 60
        E 120 80 1f 00
        E 0 80 62 00
        E 0 80 56 00
        E 0 90 1f 60
        E 0 90 62 60
        E 120 80 1f 00
        E 0 80 62 00
        E 0 90 18 60
        E 0 90 33 60
        E 0 90 60 60
        E 0 90 64 60
        E 0 90 54 60
        E 0 90 58 60
        E 0 90 4c 60
        E 0 90 70 60
        E 0 90 40 60
        E 120 80 18 00
        E 0 80 33 00
        E 0 80 60 00
        E 0 80 64 00
        E 0 80 54 00
        E 0 80 58 00
        E 0 80 4c 00
        E 0 80 70 00
        E 0 80 40 00
        E 120 90 1f 60
        E 0 90 62 60
        E 0 90 56 60
        E 120 80 1f 00
        E 0 80 62 00
        E 0 80 56 00
        E 0 90 1f 60
        E 0 90 62 60
        E 120 80 1f 00
        E 0 80 62 00
        E 240 90 1f 60
        E 0 90 62 60
        E 0 90 56 60
        E 120 80 1f 00
        E 0 80 62 00
        E 0 80 56 00
        E 0 90 1f 60
        E 0 90 62 60
        E 120 80 1f 00
        E 0 80 62 00
        E 0 90 18 60
        E 0 90 33 60
        E 0 90 60 60
        E 0 90 64 60
        E 0 90 54 60
        E 0 90 58 60
        E 0 90 4c 60
        E 0 90 70 60
        E 0 90 40 60
        E 120 80 18 00
        E 0 80 33 00
        E 0 80 60 00
        E 0 80 64 00
        E 0 80 54 00
        E 0 80 58 00
        E 0 80 4c 00
        E 0 80 70 00
        E 0 80 40 00
        E 120 90 1f 60
        E 0 90 62 60
        E 0 90 56 60
        E 120 80 1f 00
        E 0 80 62 00
        E 0 80 56 00
        E 0 90 19 60
        E 0 90 1f 60
        E 0 90 63 60
        E 120 80 19 00
        E 0 80 1f 00
        E 0 80 63 00
        E 0 90 1f 60
        E 0 90 62 60
        E 0 90 56 60
        E 0 90 4a 60
        E 0 90 3e 60
        E 120 80 1f 00
        E 0 80 62 00
        E 0 80 56 00
        E 0 80 4a 00
        E 0 80 3e 00
        E 120 90 1f 60
        E 0 90 62 60
        E 0 90 56 60
        E 120 80 1f 00
        E 0 80 62 00
        E 0 80 56 00
        E 0 90 1f 60
        E 0 90 62 60
        E 120 80 1f 00
        E 0 80 62 00
        E 0 90 18 60
        E 0 90 33 60
        E 0 90 60 60
        E 0 90 64 60
        E 0 90 54 60
        E 0 90 58 60
        E 0 90 4c 60
        E 0 90 70 60
        E 0 90 40 60
        E 120 80 18 00
        E 0 80 33 00
        E 0 80 60 00
        E 0 80 64 00
        E 0 80 54 00
        E 0 80 58 00
        E 0 80 4c 00
        E 0 80 70 00
        E 0 80 40 00
        E 120 90 1f 60
        E 0 90 62 60
        E 0 90 56 60
        E 120 80 1f 00
        E 0 80 62 00
        E 0 80 56 00
        E 0 90 1f 60
        E 0 90 62 60
        E 120 80 1f 00
        E 0 80 62 00
        E 0 90 78 60
        E 0 90 79 60
        E 0 90 7a 60
        E 0 90 7b 60
        E 0 90 7c 60
        E 240 90 1f 60
        E 0 90 62 60
        E 0 90 56 60
        E 120 80 1f 00
        E 0 80 62 00
        E 0 80 56 00
        E 0 90 1f 60
        E 0 90 62 60
        E 120 80 1f 00
        E 0 80 62 00
        E 0 90 18 60
        E 0 90 33 60
        E 0 90 60 60
        E 0 90 64 60
        E 0 90 54 60
        E 0 90 58 60
        E 0 90 4c 60
        E 0 90 70 60
        E 0 90 40 60
        E 120 80 18 00
        E 0 80 33 00
        E 0 80 60 00
        E 0 80 64 00
        E 0 80 54 00
        E 0 80 58 00
        E 0 80 4c 00
        E 0 80 70 00
        E 0 80 40 00
        E 120 90 19 60
        E 0 90 1f 60
        E 0 90 63 60
        E 0 90 57 60
        E 120 80 1f 00
        E 0 80 63 00
        E 0 80 57 00
        E 120 80 78 00
        E 0 80 79 00
        E 0 80 7a 00
        E 0 80 7b 00
        E 0 80 7c 00
        E 0 80 19 00
        E 0 90 1f 60
        E 0 90 62 60
        E 0 90 56 60
        E 0 90 4a 60
        E 0 90 3e 60
        E 120 80 1f 00
        E 0 80 62 00
        E 0 80 56 00
        E 0 80 4a 00
        E 0 80 3e 00
        E 120 90 1f 60
        E 0 90 62 60
        E 0 90 56 60
        E 120 80 1f 00
        E 0 80 62 00
        E 0 80 56 00
        E 0 90 1f 60
        E 0 90 62 60
        E 120 80 1f 00
        E 0 80 62 00
        E 0 90 18 60
        E 0 90 33 60
        E 0 90 60 60
        E 0 90 64 60
        E 0 90 54 60
        E 0 90 58 60
        E 0 90 4c 60
        E 0 90 70 60
        E 0 90 40 60
        E 120 80 18 00
        E 0 80 33 00
        E 0 80 60 00
        E 0 80 64 00
        E 0 80 54 00
        E 0 80 58 00
        E 0 80 4c 00
        E 0 80 70 00
        E 0 80 40 00
        E 120 90 1f 60
        E 0 90 62 60
        E 0 90 56 60
        E 120 80 1f 00
        E 0 80 62 00
        E 0 80 56 00
        E 0 90 1f 60
        E 0 90 62 60
        E 120 80 1f 00
        E 0 80 62 00
        E 240 90 1f 60
        E 0 90 62 60
        E 0 90 56 60
        E 120 80 1f 00
        E 0 80 62 00
        E 0 80 56 00
        E 0 90 1f 60
        E 0 90 62 60
        E 120 80 1f 00
        E 0 80 62 00
        E 0 90 18 60
        E 0 90 33 60
        E 0 90 60 60
        E 0 90 64 60
        E 0 90 54 60
        E 0 90 58 60
        E 0 90 4c 60
        E 0 90 70 60
        E 0 90 40 60
        E 120 80 18 00
        E 0 80 33 00
        E 0 80 60 00
        E 0 80 64 00
        E 0 80 54 00
        E 0 80 58 00
        E 0 80 4c 00
        E 0 80 70 00
        E 0 80 40 00
        E 120 90 1f 60
        E 0 90 62 60
        E 0 90 56 60
        E 120 80 1f 00
        E 0 80 62 00
        E 0 80 56 00
        E 0 90 19 60
        E 0 90 1f 60
        E 0 90 63 60
        E 120 80 19 00
        E 0 80 1f 00
        E 0 80 63 00
        E 0 90 1f 60
        E 0 90 62 60
        E 0 90 56 60
        E 0 90 4a 60
        E 0 90 3e 60
        E 120 80 1f 00
        E 0 80 62 00
        E 0 80 56 00
        E 0 80 4a 00
        E 0 80 3e 00
        E 120 90 1f 60
        E 0 90 62 60
        E 0 90 56 60
        E 120 80 1f 00
        E 0 80 62 00
        E 0 80 56 00
        E 0 90 1f 60
        E 0 90 62 60
        E 120 80 1f 00
        E 0 80 62 00
        E 0 90 18 60
        E 0 90 33 60
        E 0 90 60 60
        E 0 90 64 60
        E 0 90 54 60
        E 0 90 58 60
        E 0 90 4c 60
        E 0 90 70 60
        E 0 90 40 60
        E 120 80 18 00
        E 0 80 33 00
        E 0 80 60 00
        E 0 80 64 00
        E 0 80 54 00
        E 0 80 58 00
        E 0 80 4c 00
        E 0 80 70 00
        E 0 80 40 00
        E 120 90 31 60
        E 0 90 63 60
        E 0 90 57 60
        E 0 90 6f 60
        E 80 80 31 00
        E 0 80 63 00
        E 0 80 57 00
        E 0 90 30 60
        E 0 90 63 60
        E 80 80 30 00
        E 0 80 63 00
        E 0 90 31 60
        E 0 90 63 60
        E 80 80 6f 00
        E 0 80 31 00
        E 0 80 63 00
        E 0 90 18 60
        E 0 90 60 60
        E 0 90 54 60
        E 0 90 48 60
        E 0 90 3c 60
        E 80 80 18 00
        E 40 80 60 00
        E 0 80 54 00
        E 0 80 48 00
        E 0 90 1a 60
        E 0 90 61 60
        E 0 80 3c 00
        E 120 80 1a 00
        E 0 80 61 00
        E 0 90 1f 60
        E 0 90 62 60
        E 0 90 56 60
        E 120 80 1f 00
        E 0 80 62 00
        E 0 80 56 00
        E 0 90 18 60
        E 0 90 1f 60
        E 0 90 60 60
        E 0 90 62 60
        E 120 80 18 00
        E 0 80 1f 00
        E 0 80 60 00
        E 0 80 62 00
        E 0 90 1a 60
        E 0 90 33 60
        E 0 90 61 60
        E 0 90 64 60
        E 0 90 55 60
        E 0 90 58 60
        E 0 90 49 60
        E 0 90 4c 60
        E 0 90 70 60
        E 0 90 3d 60
        E 0 90 40 60
        E 120 80 1a 00
        E 0 80 33 00
        E 0 80 61 00
        E 0 80 64 00
        E 0 80 55 00
        E 0 80 58 00
        E 0 80 49 00
        E 0 80 4c 00
        E 0 80 70 00
        E 0 80 3d 00
        E 0 80 40 00
        E 120 90 19 60
        E 0 90 1f 60
        E 0 90 63 60
        E 0 90 57 60
        E 120 80 1f 00
        E 0 80 63 00
        E 0 80 57 00
        <X 120 0
          /wFbcGxheV0=
        >
        E 0 80 19 00
        E 0 90 18 60
        E 0 90 26 60
        E 0 90 60 60
        E 0 90 64 60
        E 0 90 74 60
        E 0 90 54 60
        E 0 90 58 60
        E 0 90 48 60
        E 0 90 4c 60
        E 0 90 40 60
        E 120 80 18 00
        E 0 80 26 00
        E 0 80 60 00
        E 0 80 64 00
        E 0 80 54 00
        E 0 80 58 00
        E 0 80 48 00
        E 0 80 4c 00
        E 0 80 40 00
        E 120 90 1f 60
        E 0 90 62 60
        E 0 90 56 60
        E 120 80 1f 00
        E 0 80 62 00
        E 0 80 56 00
        E 0 90 1f 60
        E 0 90 62 60
        E 120 80 1f 00
        E 0 80 62 00
        E 0 90 1a 60
        E 0 90 60 60
        E 0 90 61 60
        E 0 90 54 60
        E 0 90 55 60
        E 0 90 49 60
        E 0 90 3d 60
        E 120 80 1a 00
        E 0 80 60 00
        E 0 80 61 00
        E 0 80 54 00
        E 0 80 55 00
        E 0 80 49 00
        E 0 80 3d 00
        E 120 90 1f 60
        E 0 90 62 60
        E 0 90 56 60
        E 120 80 1f 00
        E 0 80 62 00
        E 0 80 56 00
        E 0 90 1f 60
        E 0 90 62 60
        E 120 80 1f 00
        E 0 80 62 00
        E 0 90 18 60
        E 0 90 60 60
        E 0 90 54 60
        E 0 90 48 60
        E 0 90 3c 60
        E 120 80 18 00
        E 0 80 60 00
        E 0 80 54 00
        E 0 80 48 00
        E 0 80 3c 00
        E 120 90 1f 60
        E 0 90 62 60
        E 0 90 56 60
        E 120 80 1f 00
        E 0 80 62 00
        E 0 80 56 00
        E 0 90 1a 60
        E 0 90 1f 60
        E 0 90 61 60
        E 0 90 62 60
        E 120 80 1a 00
        E 0 80 1f 00
        E 0 80 61 00
        E 0 80 62 00
        E 0 90 31 60
        E 0 90 63 60
        E 0 90 57 60
        E 0 90 4b 60
        E 0 90 6f 60
        E 0 90 3f 60
        E 120 80 31 00
        E 0 80 63 00
        E 0 80 57 00
        E 0 80 4b 00
        E 0 80 6f 00
        E 0 80 3f 00
        E 120 90 33 60
        E 0 90 64 60
        E 0 90 58 60
        E 0 90 70 60
        E 120 80 33 00
        E 0 80 64 00
        E 0 80 58 00
        E 0 80 70 00
        E 0 90 19 60
        E 0 90 1e 60
        E 0 90 63 60
        E 120 80 74 00
        E 0 80 19 00
        E 0 80 1e 00
        E 0 80 63 00
        E 0 90 18 60
        E 0 90 1f 60
        E 0 90 60 60
        E 0 90 62 60
        E 0 90 54 60
        E 0 90 56 60
        E 0 90 48 60
        E 0 90 4a 60
        E 0 90 3e 60
        E 120 80 18 00
        E 0 80 1f 00
        E 0 80 60 00
        E 0 80 62 00
        E 0 80 54 00
        E 0 80 56 00
        E 0 80 48 00
        E 0 80 4a 00
        E 0 80 3e 00
        E 120 90 1f 60
        E 0 90 62 60
        E 0 90 56 60
        E 120 80 1f 00
        E 0 80 62 00
        E 0 80 56 00
        E 0 90 1f 60
        E 0 90 62 60
        E 120 80 1f 00
        E 0 80 62 00
        E 0 90 1a 60
        E 0 90 61 60
        E 0 90 55 60
        E 0 90 49 60
        E 0 90 3d 60
        E 120 80 1a 00
        E 0 80 61 00
        E 0 80 55 00
        E 0 80 49 00
        E 0 80 3d 00
        E 120 90 1f 60
        E 0 90 62 60
        E 0 90 56 60
        E 120 80 1f 00
        E 0 80 62 00
        E 0 80 56 00
        E 0 90 1f 60
        E 0 90 62 60
        E 120 80 1f 00
        E 0 80 62 00
        E 0 90 18 60
        E 0 90 60 60
        E 0 90 78 60
        E 0 90 79 60
        E 0 90 7a 60
        E 0 90 7b 60
        E 0 90 7c 60
        E 0 90 54 60
        E 0 90 48 60
        E 0 90 3c 60
        E 120 80 18 00
        E 0 80 60 00
        E 0 80 54 00
        E 0 80 48 00
        E 0 80 3c 00
        E 120 90 1f 60
        E 0 90 62 60
        E 0 90 56 60
        E 120 80 1f 00
        E 0 80 62 00
        E 0 80 56 00
        E 0 90 1f 60
        E 0 90 62 60
        E 120 80 1f 00
        E 0 80 62 00
        E 0 90 1a 60
        E 0 90 33 60
        E 0 90 61 60
        E 0 90 64 60
        E 0 90 55 60
        E 0 90 58 60
        E 0 90 49 60
        E 0 90 4c 60
        E 0 90 70 60
        E 0 90 3d 60
        E 0 90 40 60
        E 120 80 1a 00
        E 0 80 33 00
        E 0 80 61 00
        E 0 80 64 00
        E 0 80 55 00
        E 0 80 58 00
        E 0 80 49 00
        E 0 80 4c 00
        E 0 80 70 00
        E 0 80 3d 00
        E 0 80 40 00
        E 120 90 19 60
        E 0 90 1f 60
        E 0 90 63 60
        E 0 90 57 60
        E 120 80 1f 00
        E 0 80 63 00
        E 0 80 57 00
        E 120 80 78 00
        E 0 80 79 00
        E 0 80 7a 00
        E 0 80 7b 00
        E 0 80 7c 00
        E 0 80 19 00
        E 0 90 18 60
        E 0 90 1f 60
        E 0 90 60 60
        E 0 90 62 60
        E 0 90 54 60
        E 0 90 56 60
        E 0 90 48 60
        E 0 90 4a 60
        E 0 90 3e 60
        E 120 80 18 00
        E 0 80 1f 00
        E 0 80 60 00
        E 0 80 62 00
        E 0 80 54 00
        E 0 80 56 00
        E 0 80 48 00
        E 0 80 4a 00
        E 0 80 3e 00
        E 120 90 1f 60
        E 0 90 62 60
        E 0 90 56 60
        E 120 80 1f 00
        E 0 80 62 00
        E 0 80 56 00
        E 0 90 1f 60
        E 0 90 62 60
        E 120 80 1f 00
        E 0 80 62 00
        E 0 90 1a 60
        E 0 90 61 60
        E 0 90 55 60
        E 0 90 49 60
        E 0 90 3d 60
        E 120 80 1a 00
        E 0 80 61 00
        E 0 80 55 00
        E 0 80 49 00
        E 0 80 3d 00
        E 120 90 1f 60
        E 0 90 62 60
        E 0 90 56 60
        E 120 80 1f 00
        E 0 80 62 00
        E 0 80 56 00
        E 0 90 1f 60
        E 0 90 62 60
        E 120 80 1f 00
        E 0 80 62 00
        E 0 90 18 60
        E 0 90 60 60
        E 0 90 54 60
        E 0 90 48 60
        E 0 90 3c 60
        E 120 80 18 00
        E 0 80 60 00
        E 0 80 54 00
        E 0 80 48 00
        E 0 80 3c 00
        E 120 90 1f 60
        E 0 90 62 60
        E 0 90 56 60
        E 120 80 1f 00
        E 0 80 62 00
        E 0 80 56 00
        E 0 90 1a 60
        E 0 90 1f 60
        E 0 90 61 60
        E 0 90 62 60
        E 120 80 1a 00
        E 0 80 1f 00
        E 0 80 61 00
        E 0 80 62 00
        E 0 90 31 60
        E 0 90 63 60
        E 0 90 57 60
        E 0 90 4b 60
        E 0 90 6f 60
        E 0 90 3f 60
        E 120 80 31 00
        E 0 80 63 00
        E 0 80 57 00
        E 0 80 4b 00
        E 0 80 6f 00
        E 0 80 3f 00
        E 120 90 33 60
        E 0 90 64 60
        E 0 90 58 60
        E 0 90 70 60
        E 120 80 33 00
        E 0 80 64 00
        E 0 80 58 00
        E 0 80 70 00
        E 0 90 19 60
        E 0 90 1e 60
        E 0 90 63 60
        E 120 80 19 00
        E 0 80 1e 00
        E 0 80 63 00
        E 0 90 18 60
        E 0 90 1f 60
        E 0 90 60 60
        E 0 90 62 60
        E 0 90 54 60
        E 0 90 56 60
        E 0 90 48 60
        E 0 90 4a 60
        E 0 90 3e 60
        E 120 80 18 00
        E 0 80 1f 00
        E 0 80 60 00
        E 0 80 62 00
        E 0 80 54 00
        E 0 80 56 00
        E 0 80 48 00
        E 0 80 4a 00
        E 0 80 3e 00
        E 120 90 1f 60
        E 0 90 62 60
        E 0 90 56 60
        E 120 80 1f 00
        E 0 80 62 00
        E 0 80 56 00
        E 0 90 1f 60
        E 0 90 62 60
        E 120 80 1f 00
        E 0 80 62 00
        E 0 90 1a 60
        E 0 90 61 60
        E 0 90 55 60
        E 0 90 49 60
        E 0 90 3d 60
        E 120 80 1a 00
        E 0 80 61 00
        E 0 80 55 00
        E 0 80 49 00
        E 0 80 3d 00
        E 120 90 1f 60
        E 0 90 62 60
        E 0 90 56 60
        E 120 80 1f 00
        E 0 80 62 00
        E 0 80 56 00
        E 0 90 1f 60
        E 0 90 62 60
        E 120 80 1f 00
        E 0 80 62 00
        E 0 90 18 60
        E 0 90 60 60
        E 0 90 78 60
        E 0 90 79 60
        E 0 90 7a 60
        E 0 90 7b 60
        E 0 90 7c 60
        E 0 90 54 60
        E 0 90 48 60
        E 0 90 3c 60
        E 120 80 18 00
        E 0 80 60 00
        E 0 80 54 00
        E 0 80 48 00
        E 0 90 1a 60
        E 0 90 61 60
        E 0 80 3c 00
        E 120 80 1a 00
        E 0 80 61 00
        E 0 90 1f 60
        E 0 90 62 60
        E 0 90 56 60
        E 120 80 1f 00
        E 0 80 62 00
        E 0 80 56 00
        E 0 90 1f 60
        E 0 90 62 60
        E 120 80 1f 00
        E 0 80 62 00
        E 0 90 1a 60
        E 0 90 61 60
        E 0 90 55 60
        E 0 90 49 60
        E 0 90 3d 60
        E 120 80 1a 00
        E 0 80 61 00
        E 0 80 55 00
        E 0 80 49 00
        E 0 80 3d 00
        E 120 90 33 60
        E 0 90 63 60
        E 0 90 57 60
        E 0 90 6f 60
        E 120 80 33 00
        E 0 80 63 00
        E 0 80 57 00
        E 0 80 6f 00
        E 120 80 78 00
        E 0 80 79 00
        E 0 80 7a 00
        E 0 80 7b 00
        E 0 80 7c 00
        E 0 90 18 60
        E 0 90 26 60
        E 0 90 60 60
        E 0 90 64 60
        E 0 90 54 60
        E 0 90 58 60
        E 0 90 48 60
        E 0 90 4c 60
        E 0 90 40 60
        E 120 80 18 00
        E 0 80 26 00
        E 0 80 60 00
        E 0 80 64 00
        E 0 80 54 00
        E 0 80 58 00
        E 0 80 48 00
        E 0 80 4c 00
        E 0 80 40 00
        E 120 90 1f 60
        E 0 90 62 60
        E 0 90 56 60
        E 120 80 1f 00
        E 0 80 62 00
        E 0 80 56 00
        E 0 90 1f 60
        E 0 90 62 60
        E 120 80 1f 00
        E 0 80 62 00
        E 0 90 1a 60
        E 0 90 61 60
        E 0 90 55 60
        E 0 90 49 60
        E 0 90 3d 60
        E 120 80 1a 00
        E 0 80 61 00
        E 0 80 55 00
        E 0 80 49 00
        E 0 80 3d 00
        E 120 90 1f 60
        E 0 90 62 60
        E 0 90 56 60
        E 120 80 1f 00
        E 0 80 62 00
        E 0 80 56 00
        E 0 90 1f 60
        E 0 90 62 60
        E 120 80 1f 00
        E 0 80 62 00
        E 0 90 18 60
        E 0 90 60 60
        E 0 90 54 60
        E 0 90 48 60
        E 0 90 3c 60
        E 120 80 18 00
        E 0 80 60 00
        E 0 80 54 00
        E 0 80 48 00
        E 0 80 3c 00
        E 120 90 1f 60
        E 0 90 62 60
        E 0 90 56 60
        E 120 80 1f 00
        E 0 80 62 00
        E 0 80 56 00
        E 0 90 1a 60
        E 0 90 1f 60
        E 0 90 61 60
        E 0 90 62 60
        E 120 80 1a 00
        E 0 80 1f 00
        E 0 80 61 00
        E 0 80 62 00
        E 0 90 31 60
        E 0 90 63 60
        E 0 90 57 60
        E 0 90 4b 60
        E 0 90 6f 60
        E 0 90 3f 60
        E 120 80 31 00
        E 0 80 63 00
        E 0 80 57 00
        E 0 80 4b 00
        E 0 80 6f 00
        E 0 80 3f 00
        E 120 90 33 60
        E 0 90 64 60
        E 0 90 58 60
        E 0 90 70 60
        E 120 80 33 00
        E 0 80 64 00
        E 0 80 58 00
        E 0 80 70 00
        E 0 90 19 60
        E 0 90 1e 60
        E 0 90 63 60
        E 120 80 19 00
        E 0 80 1e 00
        E 0 80 63 00
        E 0 90 18 60
        E 0 90 1f 60
        E 0 90 60 60
        E 0 90 62 60
        E 0 90 74 60
        E 0 90 54 60
        E 0 90 56 60
        E 0 90 48 60
        E 0 90 4a 60
        E 0 90 3e 60
        E 120 80 18 00
        E 0 80 1f 00
        E 0 80 60 00
        E 0 80 62 00
        E 0 80 54 00
        E 0 80 56 00
        E 0 80 48 00
        E 0 80 4a 00
        E 0 80 3e 00
        E 120 90 1f 60
        E 0 90 62 60
        E 0 90 56 60
        E 120 80 1f 00
        E 0 80 62 00
        E 0 80 56 00
        E 0 90 1f 60
        E 0 90 62 60
        E 120 80 1f 00
        E 0 80 62 00
        E 0 90 1a 60
        E 0 90 61 60
        E 0 90 55 60
        E 0 90 49 60
        E 0 90 3d 60
        E 120 80 1a 00
        E 0 80 61 00
        E 0 80 55 00
        E 0 80 49 00
        E 0 80 3d 00
        E 120 90 1f 60
        E 0 90 62 60
        E 0 90 56 60
        E 120 80 1f 00
        E 0 80 62 00
        E 0 80 56 00
        E 0 90 1f 60
        E 0 90 62 60
        E 120 80 1f 00
        E 0 80 62 00
        E 0 90 18 60
        E 0 90 60 60
        E 0 90 54 60
        E 0 90 48 60
        E 0 90 3c 60
        E 120 80 18 00
        E 0 80 60 00
        E 0 80 54 00
        E 0 80 48 00
        E 0 80 3c 00
        E 120 90 1f 60
        E 0 90 62 60
        E 0 90 56 60
        E 120 80 1f 00
        E 0 80 62 00
        E 0 80 56 00
        E 0 90 1f 60
        E 0 90 62 60
        E 120 80 1f 00
        E 0 80 62 00
        E 0 90 1a 60
        E 0 90 33 60
        E 0 90 61 60
        E 0 90 64 60
        E 0 90 55 60
        E 0 90 58 60
        E 0 90 49 60
        E 0 90 4c 60
        E 0 90 70 60
        E 0 90 3d 60
        E 0 90 40 60
        E 120 80 1a 00
        E 0 80 33 00
        E 0 80 61 00
        E 0 80 64 00
        E 0 80 55 00
        E 0 80 58 00
        E 0 80 49 00
        E 0 80 4c 00
        E 0 80 70 00
        E 0 80 3d 00
        E 0 80 40 00
        E 120 90 19 60
        E 0 90 1f 60
        E 0 90 63 60
        E 0 90 57 60
        E 120 80 1f 00
        E 0 80 63 00
        E 0 80 57 00
        E 120 80 74 00
        E 0 80 19 00
        E 0 90 18 60
        E 0 90 1f 60
        E 0 90 60 60
        E 0 90 62 60
        E 0 90 54 60
        E 0 90 56 60
        E 0 90 48 60
        E 0 90 4a 60
        E 0 90 3e 60
        E 120 80 18 00
        E 0 80 1f 00
        E 0 80 60 00
        E 0 80 62 00
        E 0 80 54 00
        E 0 80 56 00
        E 0 80 48 00
        E 0 80 4a 00
        E 0 80 3e 00
        E 120 90 1f 60
        E 0 90 62 60
        E 0 90 56 60
        E 120 80 1f 00
        E 0 80 62 00
        E 0 80 56 00
        E 0 90 1f 60
        E 0 90 62 60
        E 120 80 1f 00
        E 0 80 62 00
        E 0 90 1a 60
        E 0 90 61 60
        E 0 90 55 60
        E 0 90 49 60
        E 0 90 3d 60
        E 120 80 1a 00
        E 0 80 61 00
        E 0 80 55 00
        E 0 80 49 00
        E 0 80 3d 00
        E 120 90 1f 60
        E 0 90 62 60
        E 0 90 56 60
        E 120 80 1f 00
        E 0 80 62 00
        E 0 80 56 00
        E 0 90 1f 60
        E 0 90 62 60
        E 120 80 1f 00
        E 0 80 62 00
        E 0 90 18 60
        E 0 90 60 60
        E 0 90 54 60
        E 0 90 48 60
        E 0 90 3c 60
        E 120 80 18 00
        E 0 80 60 00
        E 0 80 54 00
        E 0 80 48 00
        E 0 80 3c 00
        E 120 90 1f 60
        E 0 90 62 60
        E 0 90 56 60
        E 120 80 1f 00
        E 0 80 62 00
        E 0 80 56 00
        E 0 90 1a 60
        E 0 90 1f 60
        E 0 90 61 60
        E 0 90 62 60
        E 120 80 1a 00
        E 0 80 1f 00
        E 0 80 61 00
        E 0 80 62 00
        E 0 90 31 60
        E 0 90 63 60
        E 0 90 57 60
        E 0 90 4b 60
        E 0 90 6f 60
        E 0 90 3f 60
        E 120 80 31 00
        E 0 80 63 00
        E 0 80 57 00
        E 0 80 4b 00
        E 0 80 6f 00
        E 0 80 3f 00
        E 120 90 33 60
        E 0 90 64 60
        E 0 90 58 60
        E 0 90 70 60
        E 120 80 33 00
        E 0 80 64 00
        E 0 80 58 00
        E 0 80 70 00
        E 0 90 19 60
        E 0 90 1e 60
        E 0 90 63 60
        E 120 80 19 00
        E 0 80 1e 00
        E 0 80 63 00
        E 0 90 18 60
        E 0 90 1f 60
        E 0 90 60 60
        E 0 90 62 60
        E 0 90 54 60
        E 0 90 56 60
        E 0 90 48 60
        E 0 90 4a 60
        E 0 90 3e 60
        E 120 80 18 00
        E 0 80 1f 00
        E 0 80 60 00
        E 0 80 62 00
        E 0 80 54 00
        E 0 80 56 00
        E 0 80 48 00
        E 0 80 4a 00
        E 0 80 3e 00
        E 120 90 1f 60
        E 0 90 62 60
        E 0 90 56 60
        E 120 80 1f 00
        E 0 80 62 00
        E 0 80 56 00
        E 0 90 1f 60
        E 0 90 62 60
        E 120 80 1f 00
        E 0 80 62 00
        E 0 90 1a 60
        E 0 90 61 60
        E 0 90 55 60
        E 0 90 49 60
        E 0 90 3d 60
        E 120 80 1a 00
        E 0 80 61 00
        E 0 80 55 00
        E 0 80 49 00
        E 0 80 3d 00
        E 120 90 1f 60
        E 0 90 62 60
        E 0 90 56 60
        E 120 80 1f 00
        E 0 80 62 00
        E 0 80 56 00
        E 0 90 1b 60
        E 0 90 61 60
        E 60 80 1b 00
        E 0 80 61 00
        E 0 90 1a 60
        E 0 90 61 60
        E 60 80 1a 00
        E 0 80 61 00
        E 0 90 18 60
        E 0 90 1b 60
        E 0 90 60 60
        E 0 90 61 60
        E 0 90 78 60
        E 0 90 79 60
        E 0 90 7a 60
        E 0 90 7b 60
        E 0 90 7c 60
        E 0 90 54 60
        E 0 90 55 60
        E 0 90 49 60
        E 0 90 3d 60
        E 120 80 18 00
        E 0 80 1b 00
        E 0 80 60 00
        E 0 80 61 00
        E 0 80 54 00
        E 0 80 55 00
        E 0 80 49 00
        E 0 90 1a 60
        E 0 90 61 60
        E 0 80 3d 00
        E 120 80 1a 00
        E 0 80 61 00
        E 0 90 1b 60
        E 0 90 61 60
        E 0 90 55 60
        E 120 80 1b 00
        E 0 80 61 00
        E 0 80 55 00
        E 120 90 31 60
        E 0 90 62 60
        E 0 90 56 60
        E 0 90 4a 60
        E 0 90 6e 60
        E 0 90 3e 60
        E 120 80 31 00
        E 0 80 62 00
        E 0 80 56 00
        E 0 80 4a 00
        E 0 80 6e 00
        E 0 80 3e 00
        E 120 90 19 60
        E 0 90 1f 60
        E 0 90 33 60
        E 0 90 63 60
        E 0 90 57 60
        E 0 90 6f 60
        E 120 80 1f 00
        E 0 80 33 00
        E 0 80 63 00
        E 0 80 57 00
        E 0 80 6f 00
        <X 120 0
          /wFbbWVsbG93XQ==
        >
        E 0 80 78 00
        E 0 80 79 00
        E 0 80 7a 00
        E 0 80 7b 00
        E 0 80 7c 00
        E 0 80 19 00
        E 0 90 24 60
        E 0 90 64 60
        E 0 90 58 60
        E 0 90 4c 60
        E 0 90 40 60
        E 120 80 24 00
        E 0 80 64 00
        E 0 80 58 00
        E 0 80 4c 00
        E 0 80 40 00
        E 120 90 1f 60
        E 0 90 62 60
        E 0 90 56 60
        E 120 80 1f 00
        E 0 80 62 00
        E 0 80 56 00
        E 0 90 1f 60
        E 0 90 62 60
        E 120 80 1f 00
        E 0 80 62 00
        E 0 90 18 60
        E 0 90 33 60
        E 0 90 60 60
        E 0 90 64 60
        E 0 90 54 60
        E 0 90 58 60
        E 0 90 4c 60
        E 0 90 70 60
        E 0 90 40 60
        E 120 80 18 00
        E 0 80 33 00
        E 0 80 60 00
        E 0 80 64 00
        E 0 80 54 00
        E 0 80 58 00
        E 0 80 4c 00
        E 0 80 70 00
        E 0 80 40 00
        E 120 90 1f 60
        E 0 90 62 60
        E 0 90 56 60
        E 120 80 1f 00
        E 0 80 62 00
        E 0 80 56 00
        E 0 90 1f 60
        E 0 90 62 60
        E 120 80 1f 00
        E 0 80 62 00
        E 240 90 1f 60
        E 0 90 62 60
        E 0 90 56 60
        E 120 80 1f 00
        E 0 80 62 00
        E 0 80 56 00
        E 0 90 1f 60
        E 0 90 62 60
        E 120 80 1f 00
        E 0 80 62 00
        E 0 90 18 60
        E 0 90 33 60
        E 0 90 60 60
        E 0 90 64 60
        E 0 90 54 60
        E 0 90 58 60
        E 0 90 4c 60
        E 0 90 70 60
        E 0 90 40 60
        E 120 80 18 00
        E 0 80 33 00
        E 0 80 60 00
        E 0 80 64 00
        E 0 80 54 00
        E 0 80 58 00
        E 0 80 4c 00
        E 0 80 70 00
        E 0 80 40 00
        E 120 90 19 60
        E 0 90 1f 60
        E 0 90 63 60
        E 0 90 57 60
        E 120 80 1f 00
        E 0 80 63 00
        E 0 80 57 00
        E 120 80 19 00
        E 0 90 1f 60
        E 0 90 62 60
        E 0 90 56 60
        E 0 90 4a 60
        E 0 90 3e 60
        E 120 80 1f 00
        E 0 80 62 00
        E 0 80 56 00
        E 0 80 4a 00
        E 0 80 3e 00
        E 120 90 1f 60
        E 0 90 62 60
        E 0 90 56 60
        E 120 80 1f 00
        E 0 80 62 00
        E 0 80 56 00
        E 0 90 1f 60
        E 0 90 62 60
        E 120 80 1f 00
        E 0 80 62 00
        E 0 90 18 60
        E 0 90 33 60
        E 0 90 60 60
        E 0 90 64 60
        E 0 90 54 60
        E 0 90 58 60
        E 0 90 4c 60
        E 0 90 70 60
        E 0 90 40 60
        E 120 80 18 00
        E 0 80 33 00
        E 0 80 60 00
        E 0 80 64 00
        E 0 80 54 00
        E 0 80 58 00
        E 0 80 4c 00
        E 0 80 70 00
        E 0 80 40 00
        E 120 90 1f 60
        E 0 90 62 60
        E 0 90 56 60
        E 120 80 1f 00
        E 0 80 62 00
        E 0 80 56 00
        E 0 90 1f 60
        E 0 90 62 60
        E 120 80 1f 00
        E 0 80 62 00
        E 240 90 1f 60
        E 0 90 62 60
        E 0 90 56 60
        E 120 80 1f 00
        E 0 80 62 00
        E 0 80 56 00
        E 0 90 1f 60
        E 0 90 62 60
        E 120 80 1f 00
        E 0 80 62 00
        E 0 90 18 60
        E 0 90 33 60
        E 0 90 60 60
        E 0 90 64 60
        E 0 90 54 60
        E 0 90 58 60
        E 0 90 4c 60
        E 0 90 70 60
        E 0 90 40 60
        E 120 80 18 00
        E 0 80 33 00
        E 0 80 60 00
        E 0 80 64 00
        E 0 80 54 00
        E 0 80 58 00
        E 0 80 4c 00
        E 0 80 70 00
        E 0 80 40 00
        E 120 90 19 60
        E 0 90 1f 60
        E 0 90 63 60
        E 0 90 57 60
        E 120 80 1f 00
        E 0 80 63 00
        E 0 80 57 00
        E 120 80 19 00
        E 0 90 1f 60
        E 0 90 62 60
        E 0 90 74 60
        E 0 90 56 60
        E 0 90 4a 60
        E 0 90 3e 60
        E 120 80 1f 00
        E 0 80 62 00
        E 0 80 56 00
        E 0 80 4a 00
        E 0 80 3e 00
        E 120 90 1f 60
        E 0 90 62 60
        E 0 90 56 60
        E 120 80 1f 00
        E 0 80 62 00
        E 0 80 56 00
        E 0 90 1f 60
        E 0 90 62 60
        E 120 80 1f 00
        E 0 80 62 00
        E 0 90 18 60
        E 0 90 33 60
        E 0 90 60 60
        E 0 90 64 60
        E 0 90 54 60
        E 0 90 58 60
        E 0 90 4c 60
        E 0 90 70 60
        E 0 90 40 60
        E 120 80 18 00
        E 0 80 33 00
        E 0 80 60 00
        E 0 80 64 00
        E 0 80 54 00
        E 0 80 58 00
        E 0 80 4c 00
        E 0 80 70 00
        E 0 80 40 00
        E 120 90 1f 60
        E 0 90 62 60
        E 0 90 56 60
        E 120 80 1f 00
        E 0 80 62 00
        E 0 80 56 00
        E 0 90 1f 60
        E 0 90 62 60
        E 120 80 1f 00
        E 0 80 62 00
        E 240 90 1f 60
        E 0 90 62 60
        E 0 90 56 60
        E 120 80 1f 00
        E 0 80 62 00
        E 0 80 56 00
        E 0 90 1f 60
        E 0 90 62 60
        E 120 80 1f 00
        E 0 80 62 00
        E 0 90 18 60
        E 0 90 33 60
        E 0 90 60 60
        E 0 90 64 60
        E 0 90 54 60
        E 0 90 58 60
        E 0 90 4c 60
        E 0 90 70 60
        E 0 90 40 60
        E 120 80 18 00
        E 0 80 33 00
        E 0 80 60 00
        E 0 80 64 00
        E 0 80 54 00
        E 0 80 58 00
        E 0 80 4c 00
        E 0 80 70 00
        E 0 80 40 00
        E 120 90 19 60
        E 0 90 1f 60
        E 0 90 63 60
        E 0 90 57 60
        E 120 80 1f 00
        E 0 80 63 00
        E 0 80 57 00
        E 120 80 19 00
        E 0 90 1f 60
        E 0 90 62 60
        E 0 90 56 60
        E 0 90 4a 60
        E 0 90 3e 60
        E 120 80 1f 00
        E 0 80 62 00
        E 0 80 56 00
        E 0 80 4a 00
        E 0 80 3e 00
        E 120 90 1f 60
        E 0 90 62 60
        E 0 90 56 60
        E 120 80 1f 00
        E 0 80 62 00
        E 0 80 56 00
        E 0 90 1f 60
        E 0 90 62 60
        E 120 80 1f 00
        E 0 80 62 00
        E 0 90 18 60
        E 0 90 33 60
        E 0 90 60 60
        E 0 90 64 60
        E 0 90 54 60
        E 0 90 58 60
        E 0 90 4c 60
        E 0 90 70 60
        E 0 90 40 60
        E 120 80 18 00
        E 0 80 33 00
        E 0 80 60 00
        E 0 80 64 00
        E 0 80 54 00
        E 0 80 58 00
        E 0 80 4c 00
        E 0 80 70 00
        E 0 80 40 00
        E 120 90 31 60
        E 0 90 63 60
        E 0 90 57 60
        E 0 90 6f 60
        E 80 80 31 00
        E 0 80 63 00
        E 0 80 57 00
        E 0 90 30 60
        E 0 90 63 60
        E 80 80 30 00
        E 0 80 63 00
        E 0 90 31 60
        E 0 90 63 60
        E 80 80 6f 00
        E 0 80 31 00
        E 0 80 63 00
        E 0 90 18 60
        E 0 90 60 60
        E 0 90 54 60
        E 0 90 48 60
        E 0 90 3c 60
        E 120 80 18 00
        E 0 80 60 00
        E 0 80 54 00
        E 0 80 48 00
        E 0 90 1a 60
        E 0 90 61 60
        E 0 80 3c 00
        E 120 80 1a 00
        E 0 80 61 00
        E 0 90 1f 60
        E 0 90 62 60
        E 0 90 56 60
        E 120 80 1f 00
        E 0 80 62 00
        E 0 80 56 00
        E 0 90 18 60
        E 0 90 1f 60
        E 0 90 60 60
        E 0 90 62 60
        E 120 80 18 00
        E 0 80 1f 00
        E 0 80 60 00
        E 0 80 62 00
        E 0 90 1a 60
        E 0 90 33 60
        E 0 90 61 60
        E 0 90 64 60
        E 0 90 55 60
        E 0 90 58 60
        E 0 90 49 60
        E 0 90 4c 60
        E 0 90 70 60
        E 0 90 3d 60
        E 0 90 40 60
        E 120 80 1a 00
        E 0 80 33 00
        E 0 80 61 00
        E 0 80 64 00
        E 0 80 55 00
        E 0 80 58 00
        E 0 80 49 00
        E 0 80 4c 00
        E 0 80 70 00
        E 0 80 3d 00
        E 0 80 40 00
        E 120 90 19 60
        E 0 90 1f 60
        E 0 90 63 60
        E 0 90 57 60
        E 120 80 1f 00
        E 0 80 63 00
        E 0 80 57 00
        <X 120 0
          /wFbcGxheV0=
        >
        E 0 80 74 00
        E 0 80 19 00
        E 0 90 18 60
        E 0 90 26 60
        E 0 90 60 60
        E 0 90 64 60
        E 0 90 54 60
        E 0 90 58 60
        E 0 90 48 60
        E 0 90 4c 60
        E 0 90 40 60
        E 120 80 18 00
        E 0 80 26 00
        E 0 80 60 00
        E 0 80 64 00
        E 0 80 54 00
        E 0 80 58 00
        E 0 80 48 00
        E 0 80 4c 00
        E 0 80 40 00
        E 120 90 1f 60
        E 0 90 62 60
        E 0 90 56 60
        E 120 80 1f 00
        E 0 80 62 00
        E 0 80 56 00
        E 0 90 1f 60
        E 0 90 62 60
        E 120 80 1f 00
        E 0 80 62 00
        E 0 90 1a 60
        E 0 90 61 60
        E 0 90 55 60
        E 0 90 49 60
        E 0 90 3d 60
        E 120 80 1a 00
        E 0 80 61 00
        E 0 80 55 00
        E 0 80 49 00
        E 0 80 3d 00
        E 120 90 1f 60
        E 0 90 62 60
        E 0 90 56 60
        E 120 80 1f 00
        E 0 80 62 00
        E 0 80 56 00
        E 0 90 1f 60
        E 0 90 62 60
        E 120 80 1f 00
        E 0 80 62 00
        E 0 90 18 60
        E 0 90 60 60
        E 0 90 54 60
        E 0 90 48 60
        E 0 90 3c 60
        E 120 80 18 00
        E 0 80 60 00
        E 0 80 54 00
        E 0 80 48 00
        E 0 80 3c 00
        E 120 90 1f 60
        E 0 90 62 60
        E 0 90 56 60
        E 120 80 1f 00
        E 0 80 62 00
        E 0 80 56 00
        E 0 90 1a 60
        E 0 90 1f 60
        E 0 90 61 60
        E 0 90 62 60
        E 120 80 1a 00
        E 0 80 1f 00
        E 0 80 61 00
        E 0 80 62 00
        E 0 90 31 60
        E 0 90 63 60
        E 0 90 57 60
        E 0 90 4b 60
        E 0 90 6f 60
        E 0 90 3f 60
        E 120 80 31 00
        E 0 80 63 00
        E 0 80 57 00
        E 0 80 4b 00
        E 0 80 6f 00
        E 0 80 3f 00
        E 120 90 33 60
        E 0 90 64 60
        E 0 90 58 60
        E 0 90 70 60
        E 120 80 33 00
        E 0 80 64 00
        E 0 80 58 00
        E 0 80 70 00
        E 0 90 19 60
        E 0 90 1e 60
        E 0 90 63 60
        E 120 80 19 00
        E 0 80 1e 00
        E 0 80 63 00
        E 0 90 18 60
        E 0 90 1f 60
        E 0 90 60 60
        E 0 90 62 60
        E 0 90 54 60
        E 0 90 56 60
        E 0 90 48 60
        E 0 90 4a 60
        E 0 90 3e 60
        E 120 80 18 00
        E 0 80 1f 00
        E 0 80 60 00
        E 0 80 62 00
        E 0 80 54 00
        E 0 80 56 00
        E 0 80 48 00
        E 0 80 4a 00
        E 0 80 3e 00
        E 120 90 1f 60
        E 0 90 62 60
        E 0 90 56 60
        E 120 80 1f 00
        E 0 80 62 00
        E 0 80 56 00
        E 0 90 1f 60
        E 0 90 62 60
        E 120 80 1f 00
        E 0 80 62 00
        E 0 90 1a 60
        E 0 90 61 60
        E 0 90 55 60
        E 0 90 49 60
        E 0 90 3d 60
        E 120 80 1a 00
        E 0 80 61 00
        E 0 80 55 00
        E 0 80 49 00
        E 0 80 3d 00
        E 120 90 1f 60
        E 0 90 62 60
        E 0 90 56 60
        E 120 80 1f 00
        E 0 80 62 00
        E 0 80 56 00
        E 0 90 1f 60
        E 0 90 62 60
        E 120 80 1f 00
        E 0 80 62 00
        E 0 90 18 60
        E 0 90 60 60
        E 0 90 78 60
        E 0 90 79 60
        E 0 90 7a 60
        E 0 90 7b 60
        E 0 90 7c 60
        E 0 90 54 60
        E 0 90 48 60
        E 0 90 3c 60
        E 120 80 18 00
        E 0 80 60 00
        E 0 80 54 00
        E 0 80 48 00
        E 0 80 3c 00
        E 120 90 1f 60
        E 0 90 62 60
        E 0 90 56 60
        E 120 80 1f 00
        E 0 80 62 00
        E 0 80 56 00
        E 0 90 1f 60
        E 0 90 62 60
        E 120 80 1f 00
        E 0 80 62 00
        E 0 90 1a 60
        E 0 90 33 60
        E 0 90 61 60
        E 0 90 64 60
        E 0 90 55 60
        E 0 90 58 60
        E 0 90 49 60
        E 0 90 4c 60
        E 0 90 70 60
        E 0 90 3d 60
        E 0 90 40 60
        E 120 80 1a 00
        E 0 80 33 00
        E 0 80 61 00
        E 0 80 64 00
        E 0 80 55 00
        E 0 80 58 00
        E 0 80 49 00
        E 0 80 4c 00
        E 0 80 70 00
        E 0 80 3d 00
        E 0 80 40 00
        E 120 90 19 60
        E 0 90 1f 60
        E 0 90 63 60
        E 0 90 57 60
        E 120 80 1f 00
        E 0 80 63 00
        E 0 80 57 00
        E 120 80 78 00
        E 0 80 79 00
        E 0 80 7a 00
        E 0 80 7b 00
        E 0 80 7c 00
        E 0 80 19 00
        E 0 90 18 60
        E 0 90 1f 60
        E 0 90 60 60
        E 0 90 62 60
        E 0 90 54 60
        E 0 90 56 60
        E 0 90 48 60
        E 0 90 4a 60
        E 0 90 3e 60
        E 120 80 18 00
        E 0 80 1f 00
        E 0 80 60 00
        E 0 80 62 00
        E 0 80 54 00
        E 0 80 56 00
        E 0 80 48 00
        E 0 80 4a 00
        E 0 80 3e 00
        E 120 90 1f 60
        E 0 90 62 60
        E 0 90 56 60
        E 120 80 1f 00
        E 0 80 62 00
        E 0 80 56 00
        E 0 90 1f 60
        E 0 90 62 60
        E 120 80 1f 00
        E 0 80 62 00
        E 0 90 1a 60
        E 0 90 61 60
        E 0 90 55 60
        E 0 90 49 60
        E 0 90 3d 60
        E 120 80 1a 00
        E 0 80 61 00
        E 0 80 55 00
        E 0 80 49 00
        E 0 80 3d 00
        E 120 90 1f 60
        E 0 90 62 60
        E 0 90 56 60
        E 120 80 1f 00
        E 0 80 62 00
        E 0 80 56 00
        E 0 90 1f 60
        E 0 90 62 60
        E 120 80 1f 00
        E 0 80 62 00
        E 0 90 18 60
        E 0 90 60 60
        E 0 90 54 60
        E 0 90 48 60
        E 0 90 3c 60
        E 120 80 18 00
        E 0 80 60 00
        E 0 80 54 00
        E 0 80 48 00
        E 0 80 3c 00
        E 120 90 1f 60
        E 0 90 62 60
        E 0 90 56 60
        E 120 80 1f 00
        E 0 80 62 00
        E 0 80 56 00
        E 0 90 1a 60
        E 0 90 1f 60
        E 0 90 61 60
        E 0 90 62 60
        E 120 80 1a 00
        E 0 80 1f 00
        E 0 80 61 00
        E 0 80 62 00
        E 0 90 31 60
        E 0 90 63 60
        E 0 90 57 60
        E 0 90 4b 60
        E 0 90 6f 60
        E 0 90 3f 60
        E 120 80 31 00
        E 0 80 63 00
        E 0 80 57 00
        E 0 80 4b 00
        E 0 80 6f 00
        E 0 80 3f 00
        E 120 90 33 60
        E 0 90 64 60
        E 0 90 58 60
        E 0 90 70 60
        E 120 80 33 00
        E 0 80 64 00
        E 0 80 58 00
        E 0 80 70 00
        E 0 90 19 60
        E 0 90 1e 60
        E 0 90 63 60
        E 120 80 19 00
        E 0 80 1e 00
        E 0 80 63 00
        E 0 90 18 60
        E 0 90 1f 60
        E 0 90 60 60
        E 0 90 62 60
        E 0 90 54 60
        E 0 90 56 60
        E 0 90 48 60
        E 0 90 4a 60
        E 0 90 3e 60
        E 120 80 18 00
        E 0 80 1f 00
        E 0 80 60 00
        E 0 80 62 00
        E 0 80 54 00
        E 0 80 56 00
        E 0 80 48 00
        E 0 80 4a 00
        E 0 80 3e 00
        E 120 90 1f 60
        E 0 90 62 60
        E 0 90 56 60
        E 120 80 1f 00
        E 0 80 62 00
        E 0 80 56 00
        E 0 90 1f 60
        E 0 90 62 60
        E 120 80 1f 00
        E 0 80 62 00
        E 0 90 1a 60
        E 0 90 61 60
        E 0 90 55 60
        E 0 90 49 60
        E 0 90 3d 60
        E 120 80 1a 00
        E 0 80 61 00
        E 0 80 55 00
        E 0 80 49 00
        E 0 80 3d 00
        E 120 90 1f 60
        E 0 90 62 60
        E 0 90 56 60
        E 120 80 1f 00
        E 0 80 62 00
        E 0 80 56 00
        E 0 90 1d 60
        E 0 90 61 60
        E 60 80 1d 00
        E 0 80 61 00
        E 0 90 1c 60
        E 0 90 61 60
        E 60 80 1c 00
        E 0 80 61 00
        E 0 90 18 60
        E 0 90 1b 60
        E 0 90 60 60
        E 0 90 61 60
        E 0 90 78 60
        E 0 90 79 60
        E 0 90 7a 60
        E 0 90 7b 60
        E 0 90 7c 60
        E 0 90 54 60
        E 0 90 55 60
        E 0 90 49 60
        E 0 90 3d 60
        E 120 80 18 00
        E 0 80 1b 00
        E 0 80 60 00
        E 0 80 61 00
        E 0 80 54 00
        E 0 80 55 00
        E 0 80 49 00
        E 0 90 1a 60
        E 0 90 61 60
        E 0 80 3d 00
        E 120 80 1a 00
        E 0 80 61 00
        E 120 90 1a 60
        E 0 90 61 60
        E 120 80 1a 00
        E 0 80 61 00
        E 0 90 31 60
        E 0 90 63 60
        E 0 90 57 60
        E 0 90 4b 60
        E 0 90 6f 60
        E 0 90 3f 60
        E 120 80 31 00
        E 0 80 63 00
        E 0 80 57 00
        E 0 80 4b 00
        E 0 80 6f 00
        E 0 80 3f 00
        E 120 90 33 60
        E 0 90 64 60
        E 0 90 58 60
        E 0 90 70 60
        E 120 80 33 00
        E 0 80 64 00
        E 0 80 58 00
        E 0 80 70 00
        <X 120 0
          /wFbbWVsbG93XQ==
        >
        E 0 80 78 00
        E 0 80 79 00
        E 0 80 7a 00
        E 0 80 7b 00
        E 0 80 7c 00
        E 0 90 18 60
        E 0 90 24 60
        E 0 90 60 60
        E 0 90 63 60
        E 0 90 54 60
        E 0 90 57 60
        E 0 90 48 60
        E 0 90 4b 60
        E 0 90 3f 60
        E 120 80 18 00
        E 0 80 24 00
        E 0 80 60 00
        E 0 80 63 00
        E 0 80 54 00
        E 0 80 57 00
        E 0 80 48 00
        E 0 80 4b 00
        E 0 80 3f 00
        E 360 90 18 60
        E 0 90 33 60
        E 0 90 60 60
        E 0 90 64 60
        E 0 90 54 60
        E 0 90 58 60
        E 0 90 4c 60
        E 0 90 70 60
        E 0 90 40 60
        E 120 80 18 00
        E 0 80 33 00
        E 0 80 60 00
        E 0 80 64 00
        E 0 80 54 00
        E 0 80 58 00
        E 0 80 4c 00
        E 0 80 70 00
        E 0 80 40 00
        E 840 90 18 60
        E 0 90 33 60
        E 0 90 60 60
        E 0 90 64 60
        E 0 90 54 60
        E 0 90 58 60
        E 0 90 4c 60
        E 0 90 70 60
        E 0 90 40 60
        E 120 80 18 00
        E 0 80 33 00
        E 0 80 60 00
        E 0 80 64 00
        E 0 80 54 00
        E 0 80 58 00
        E 0 80 4c 00
        E 0 80 70 00
        E 0 80 40 00
        E 840 90 18 60
        E 0 90 33 60
        E 0 90 60 60
        E 0 90 64 60
        E 0 90 54 60
        E 0 90 58 60
        E 0 90 4c 60
        E 0 90 70 60
        E 0 90 40 60
        E 120 80 18 00
        E 0 80 33 00
        E 0 80 60 00
        E 0 80 64 00
        E 0 80 54 00
        E 0 80 58 00
        E 0 80 4c 00
        E 0 80 70 00
        E 0 80 40 00
        E 360 90 18 60
        E 0 90 1a 60
        E 0 90 2f 60
        E 0 90 60 60
        E 0 90 61 60
        E 0 90 62 60
        E 0 90 78 60
        E 0 90 79 60
        E 0 90 7a 60
        E 0 90 7b 60
        E 0 90 7c 60
        E 0 90 54 60
        E 0 90 55 60
        E 0 90 56 60
        E 0 90 49 60
        E 0 90 4a 60
        E 0 90 6e 60
        E 0 90 3d 60
        E 0 90 3e 60
        E 120 80 18 00
        E 0 80 1a 00
        E 0 80 2f 00
        E 0 80 60 00
        E 0 80 61 00
        E 0 80 62 00
        E 0 80 54 00
        E 0 80 55 00
        E 0 80 56 00
        E 0 80 49 00
        E 0 80 4a 00
        E 0 90 1a 60
        E 0 90 2f 60
        E 0 90 61 60
        E 0 90 62 60
        E 0 80 3d 00
        E 0 80 3e 00
        E 120 80 1a 00
        E 0 80 2f 00
        E 0 80 61 00
        E 0 80 62 00
        E 0 90 1a 60
        E 0 90 2f 60
        E 0 90 61 60
        E 0 90 62 60
        E 0 90 55 60
        E 0 90 56 60
        E 120 80 6e 00
        E 0 80 1a 00
        E 0 80 2f 00
        E 0 80 61 00
        E 0 80 62 00
        E 0 80 55 00
        E 0 80 56 00
        E 600 80 78 00
        E 0 80 79 00
        E 0 80 7a 00
        E 0 80 7b 00
        E 0 80 7c 00
        E 0 90 24 60
        E 0 90 63 60
        E 0 90 57 60
        E 0 90 4b 60
        E 0 90 3f 60
        E 120 80 24 00
        E 0 80 63 00
        E 0 80 57 00
        E 0 80 4b 00
        E 0 80 3f 00
        E 360 90 18 60
        E 0 90 60 60
        E 0 90 54 60
        E 0 90 48 60
        E 0 90 3c 60
        E 120 80 18 00
        E 0 80 60 00
        E 0 80 54 00
        E 0 80 48 00
        E 0 80 3c 00
        E 840 90 18 60
        E 0 90 60 60
        E 0 90 54 60
        E 0 90 48 60
        E 0 90 3c 60
        E 120 80 18 00
        E 0 80 60 00
        E 0 80 54 00
        E 0 80 48 00
        E 0 80 3c 00
        E 840 90 18 60
        E 0 90 60 60
        E 0 90 54 60
        E 0 90 48 60
        E 0 90 3c 60
        E 120 80 18 00
        E 0 80 60 00
        E 0 80 54 00
        E 0 80 48 00
        E 0 80 3c 00
        E 360 90 78 60
        E 0 90 79 60
        E 0 90 7a 60
        E 0 90 7b 60
        E 0 90 7c 60
        E 480 90 18 60
        E 0 90 60 60
        E 0 90 54 60
        E 0 90 48 60
        E 0 90 3c 60
        E 120 80 18 00
        E 0 80 60 00
        E 0 80 54 00
        E 0 80 48 00
        E 0 80 3c 00
        E 360 80 78 00
        E 0 80 79 00
        E 0 80 7a 00
        E 0 80 7b 00
        E 0 80 7c 00
        E 480 90 18 60
        E 0 90 60 60
        E 0 90 54 60
        E 0 90 48 60
        E 0 90 3c 60
        E 120 80 18 00
        E 0 80 60 00
        E 0 80 54 00
        E 0 80 48 00
        E 0 80 3c 00
        E 840 90 18 60
        E 0 90 60 60
        E 0 90 54 60
        E 0 90 48 60
        E 0 90 3c 60
        E 120 80 18 00
        E 0 80 60 00
        E 0 80 54 00
        E 0 80 48 00
        E 0 80 3c 00
        E 360 90 74 60
        E 480 90 18 60
        E 0 90 60 60
        E 0 90 54 60
        E 0 90 48 60
        E 0 90 3c 60
        E 120 80 18 00
        E 0 80 60 00
        E 0 80 54 00
        E 0 80 48 00
        E 0 80 3c 00
        E 120 90 31 60
        E 0 90 63 60
        E 0 90 57 60
        E 0 90 6f 60
        E 80 80 31 00
        E 0 80 63 00
        E 0 80 57 00
        E 0 90 30 60
        E 0 90 63 60
        E 80 80 30 00
        E 0 80 63 00
        E 0 90 31 60
        E 0 90 63 60
        E 80 80 6f 00
        E 0 80 31 00
        E 0 80 63 00
        E 0 90 18 60
        E 0 90 60 60
        E 0 90 54 60
        E 0 90 48 60
        E 0 90 3c 60
        E 120 80 18 00
        E 0 80 60 00
        E 0 80 54 00
        E 0 80 48 00
        E 0 90 1a 60
        E 0 90 61 60
        E 0 80 3c 00
        E 120 80 1a 00
        E 0 80 61 00
        E 0 90 1f 60
        E 0 90 62 60
        E 0 90 56 60
        E 120 80 1f 00
        E 0 80 62 00
        E 0 80 56 00
        E 0 90 18 60
        E 0 90 1f 60
        E 0 90 60 60
        E 0 90 62 60
        E 120 80 18 00
        E 0 80 1f 00
        E 0 80 60 00
        E 0 80 62 00
        E 0 90 1a 60
        E 0 90 33 60
        E 0 90 61 60
        E 0 90 64 60
        E 0 90 55 60
        E 0 90 58 60
        E 0 90 49 60
        E 0 90 4c 60
        E 0 90 70 60
        E 0 90 3d 60
        E 0 90 40 60
        E 120 80 1a 00
        E 0 80 33 00
        E 0 80 61 00
        E 0 80 64 00
        E 0 80 55 00
        E 0 80 58 00
        E 0 80 49 00
        E 0 80 4c 00
        E 0 80 70 00
        E 0 80 3d 00
        E 0 80 40 00
        E 120 90 19 60
        E 0 90 1f 60
        E 0 90 33 60
        E 0 90 63 60
        E 0 90 57 60
        E 120 80 1f 00
        E 0 80 33 00
        E 0 80 63 00
        E 0 80 57 00
        E 120 80 19 00
        E 0 90 24 60
        E 0 90 64 60
        E 0 90 58 60
        E 0 90 4c 60
        E 0 90 40 60
        E 120 80 74 00
        E 0 80 24 00
        E 0 80 64 00
        E 0 80 58 00
        E 0 80 4c 00
        E 0 80 40 00
        E 120 90 1f 60
        E 0 90 62 60
        E 0 90 56 60
        E 120 80 1f 00
        E 0 80 62 00
        E 0 80 56 00
        E 0 90 1f 60
        E 0 90 62 60
        E 120 80 1f 00
        E 0 80 62 00
        E 0 90 18 60
        E 0 90 33 60
        E 0 90 60 60
        E 0 90 64 60
        E 0 90 54 60
        E 0 90 58 60
        E 0 90 4c 60
        E 0 90 70 60
        E 0 90 40 60
        E 120 80 18 00
        E 0 80 33 00
        E 0 80 60 00
        E 0 80 64 00
        E 0 80 54 00
        E 0 80 58 00
        E 0 80 4c 00
        E 0 80 70 00
        E 0 80 40 00
        E 120 90 1f 60
        E 0 90 62 60
        E 0 90 56 60
        E 120 80 1f 00
        E 0 80 62 00
        E 0 80 56 00
        E 0 90 1f 60
        E 0 90 62 60
        E 120 80 1f 00
        E 0 80 62 00
        E 240 90 1f 60
        E 0 90 62 60
        E 0 90 56 60
        E 120 80 1f 00
        E 0 80 62 00
        E 0 80 56 00
        E 0 90 1f 60
        E 0 90 62 60
        E 120 80 1f 00
        E 0 80 62 00
        E 0 90 18 60
        E 0 90 33 60
        E 0 90 60 60
        E 0 90 64 60
        E 0 90 54 60
        E 0 90 58 60
        E 0 90 4c 60
        E 0 90 70 60
        E 0 90 40 60
        E 120 80 18 00
        E 0 80 33 00
        E 0 80 60 00
        E 0 80 64 00
        E 0 80 54 00
        E 0 80 58 00
        E 0 80 4c 00
        E 0 80 70 00
        E 0 80 40 00
        E 120 90 1f 60
        E 0 90 62 60
        E 0 90 56 60
        E 120 80 1f 00
        E 0 80 62 00
        E 0 80 56 00
        E 0 90 19 60
        E 0 90 1f 60
        E 0 90 63 60
        E 120 80 19 00
        E 0 80 1f 00
        E 0 80 63 00
        E 0 90 1f 60
        E 0 90 62 60
        E 0 90 56 60
        E 0 90 4a 60
        E 0 90 3e 60
        E 120 80 1f 00
        E 0 80 62 00
        E 0 80 56 00
        E 0 80 4a 00
        E 0 80 3e 00
        E 120 90 1f 60
        E 0 90 62 60
        E 0 90 56 60
        E 120 80 1f 00
        E 0 80 62 00
        E 0 80 56 00
        E 0 90 1f 60
        E 0 90 62 60
        E 120 80 1f 00
        E 0 80 62 00
        E 0 90 18 60
        E 0 90 33 60
        E 0 90 60 60
        E 0 90 64 60
        E 0 90 54 60
        E 0 90 58 60
        E 0 90 4c 60
        E 0 90 70 60
        E 0 90 40 60
        E 120 80 18 00
        E 0 80 33 00
        E 0 80 60 00
        E 0 80 64 00
        E 0 80 54 00
        E 0 80 58 00
        E 0 80 4c 00
        E 0 80 70 00
        E 0 80 40 00
        E 120 90 1f 60
        E 0 90 62 60
        E 0 90 56 60
        E 120 80 1f 00
        E 0 80 62 00
        E 0 80 56 00
        E 0 90 1f 60
        E 0 90 62 60
        E 120 80 1f 00
        E 0 80 62 00
        E 0 90 78 60
        E 0 90 79 60
        E 0 90 7a 60
        E 0 90 7b 60
        E 0 90 7c 60
        E 240 90 1f 60
        E 0 90 62 60
        E 0 90 56 60
        E 120 80 1f 00
        E 0 80 62 00
        E 0 80 56 00
        E 0 90 1f 60
        E 0 90 62 60
        E 120 80 1f 00
        E 0 80 62 00
        E 0 90 18 60
        E 0 90 33 60
        E 0 90 60 60
        E 0 90 64 60
        E 0 90 54 60
        E 0 90 58 60
        E 0 90 4c 60
        E 0 90 70 60
        E 0 90 40 60
        E 120 80 18 00
        E 0 80 33 00
        E 0 80 60 00
        E 0 80 64 00
        E 0 80 54 00
        E 0 80 58 00
        E 0 80 4c 00
        E 0 80 70 00
        E 0 80 40 00
        E 120 90 19 60
        E 0 90 1f 60
        E 0 90 63 60
        E 0 90 57 60
        E 120 80 1f 00
        E 0 80 63 00
        E 0 80 57 00
        E 120 80 78 00
        E 0 80 79 00
        E 0 80 7a 00
        E 0 80 7b 00
        E 0 80 7c 00
        E 0 80 19 00
        E 0 90 1f 60
        E 0 90 62 60
        E 0 90 56 60
        E 0 90 4a 60
        E 0 90 3e 60
        E 120 80 1f 00
        E 0 80 62 00
        E 0 80 56 00
        E 0 80 4a 00
        E 0 80 3e 00
        E 120 90 1f 60
        E 0 90 62 60
        E 0 90 56 60
        E 120 80 1f 00
        E 0 80 62 00
        E 0 80 56 00
        E 0 90 1f 60
        E 0 90 62 60
        E 120 80 1f 00
        E 0 80 62 00
        E 0 90 18 60
        E 0 90 33 60
        E 0 90 60 60
        E 0 90 64 60
        E 0 90 54 60
        E 0 90 58 60
        E 0 90 4c 60
        E 0 90 70 60
        E 0 90 40 60
        E 120 80 18 00
        E 0 80 33 00
        E 0 80 60 00
        E 0 80 64 00
        E 0 80 54 00
        E 0 80 58 00
        E 0 80 4c 00
        E 0 80 70 00
        E 0 80 40 00
        E 120 90 1f 60
        E 0 90 62 60
        E 0 90 56 60
        E 120 80 1f 00
        E 0 80 62 00
        E 0 80 56 00
        E 0 90 1f 60
        E 0 90 62 60
        E 120 80 1f 00
        E 0 80 62 00
        E 240 90 1f 60
        E 0 90 62 60
        E 0 90 56 60
        E 120 80 1f 00
        E 0 80 62 00
        E 0 80 56 00
        E 0 90 1f 60
        E 0 90 62 60
        E 120 80 1f 00
        E 0 80 62 00
        E 0 90 18 60
        E 0 90 33 60
        E 0 90 60 60
        E 0 90 64 60
        E 0 90 54 60
        E 0 90 58 60
        E 0 90 4c 60
        E 0 90 70 60
        E 0 90 40 60
        E 120 80 18 00
        E 0 80 33 00
        E 0 80 60 00
        E 0 80 64 00
        E 0 80 54 00
        E 0 80 58 00
        E 0 80 4c 00
        E 0 80 70 00
        E 0 80 40 00
        E 120 90 1f 60
        E 0 90 62 60
        E 0 90 56 60
        E 120 80 1f 00
        E 0 80 62 00
        E 0 80 56 00
        E 0 90 19 60
        E 0 90 1f 60
        E 0 90 63 60
        E 120 80 19 00
        E 0 80 1f 00
        E 0 80 63 00
        E 0 90 1f 60
        E 0 90 62 60
        E 0 90 56 60
        E 0 90 4a 60
        E 0 90 3e 60
        E 120 80 1f 00
        E 0 80 62 00
        E 0 80 56 00
        E 0 80 4a 00
        E 0 80 3e 00
        E 120 90 1f 60
        E 0 90 62 60
        E 0 90 56 60
        E 120 80 1f 00
        E 0 80 62 00
        E 0 80 56 00
        E 0 90 1f 60
        E 0 90 62 60
        <X 120 0
          /wFbcGxheV0=
        >
        E 0 80 1f 00
        E 0 80 62 00
        E 0 90 18 60
        E 0 90 33 60
        E 0 90 60 60
        E 0 90 64 60
        E 0 90 54 60
        E 0 90 58 60
        E 0 90 4c 60
        E 0 90 70 60
        E 0 90 40 60
        E 120 80 18 00
        E 0 80 33 00
        E 0 80 60 00
        E 0 80 64 00
        E 0 80 54 00
        E 0 80 58 00
        E 0 80 4c 00
        E 0 80 70 00
        E 0 80 40 00
        E 120 90 31 60
        E 0 90 63 60
        E 0 90 57 60
        E 0 90 6f 60
        E 80 80 31 00
        E 0 80 63 00
        E 0 80 57 00
        E 0 90 30 60
        E 0 90 63 60
        E 80 80 30 00
        E 0 80 63 00
        E 0 90 31 60
        E 0 90 63 60
        E 80 80 6f 00
        E 0 80 31 00
        E 0 80 63 00
        E 0 90 18 60
        E 0 90 60 60
        E 0 90 78 60
        E 0 90 79 60
        E 0 90 7a 60
        E 0 90 7b 60
        E 0 90 7c 60
        E 0 90 54 60
        E 0 90 48 60
        E 0 90 3c 60
        E 80 80 18 00
        E 0 80 60 00
        E 0 80 54 00
        E 0 80 48 00
        E 0 80 3c 00
        E 40 90 1a 60
        E 0 90 61 60
        E 120 80 1a 00
        E 0 80 61 00
        E 0 90 1f 60
        E 0 90 62 60
        E 0 90 56 60
        E 120 80 1f 00
        E 0 80 62 00
        E 0 80 56 00
        E 0 90 18 60
        E 0 90 1d 60
        E 0 90 60 60
        E 0 90 61 60
        E 60 80 18 00
        E 0 80 1d 00
        E 0 80 60 00
        E 0 80 61 00
        E 0 90 1c 60
        E 0 90 61 60
        E 60 80 1c 00
        E 0 80 61 00
        E 0 90 1b 60
        E 0 90 61 60
        E 0 90 55 60
        E 0 90 49 60
        E 0 90 3d 60
        E 60 80 1b 00
        E 0 80 61 00
        E 0 80 55 00
        E 0 80 49 00
        E 0 80 3d 00
        E 60 90 1a 60
        E 0 90 61 60
        E 60 80 1a 00
        E 0 80 61 00
        E 60 90 18 60
        E 0 90 1a 60
        E 0 90 26 60
        E 0 90 60 60
        E 0 90 61 60
        E 0 90 64 60
        E 0 90 54 60
        E 0 90 55 60
        E 0 90 58 60
        E 60 80 18 00
        E 0 80 1a 00
        E 0 80 26 00
        E 0 80 60 00
        E 0 80 61 00
        E 0 80 64 00
        E 0 80 54 00
        E 0 80 55 00
        E 0 80 58 00
        <X 180 0
          /wFbaW50ZW5zZV0=
        >
        E 0 80 78 00
        E 0 80 79 00
        E 0 80 7a 00
        E 0 80 7b 00
        E 0 80 7c 00
        E 0 90 18 60
        E 0 90 1f 60
        E 0 90 60 60
        E 0 90 62 60
        E 0 90 54 60
        E 0 90 56 60
        E 0 90 48 60
        E 0 90 4a 60
        E 0 90 3e 60
        E 120 80 18 00
        E 0 80 1f 00
        E 0 80 60 00
        E 0 80 62 00
        E 0 80 54 00
        E 0 80 56 00
        E 0 80 48 00
        E 0 80 4a 00
        E 0 80 3e 00
        E 120 90 1f 60
        E 0 90 62 60
        E 0 90 56 60
        E 120 80 1f 00
        E 0 80 62 00
        E 0 80 56 00
        E 0 90 1f 60
        E 0 90 62 60
        E 120 80 1f 00
        E 0 80 62 00
        E 0 90 1a 60
        E 0 90 61 60
        E 0 90 55 60
        E 0 90 49 60
        E 0 90 3d 60
        E 120 80 1a 00
        E 0 80 61 00
        E 0 80 55 00
        E 0 80 49 00
        E 0 80 3d 00
        E 120 90 1f 60
        E 0 90 62 60
        E 0 90 56 60
        E 120 80 1f 00
        E 0 80 62 00
        E 0 80 56 00
        E 0 90 1f 60
        E 0 90 62 60
        E 120 80 1f 00
        E 0 80 62 00
        E 0 90 18 60
        E 0 90 60 60
        E 0 90 54 60
        E 0 90 48 60
        E 0 90 3c 60
        E 120 80 18 00
        E 0 80 60 00
        E 0 80 54 00
        E 0 80 48 00
        E 0 80 3c 00
        E 120 90 1f 60
        E 0 90 62 60
        E 0 90 56 60
        E 120 80 1f 00
        E 0 80 62 00
        E 0 80 56 00
        E 0 90 1a 60
        E 0 90 1f 60
        E 0 90 61 60
        E 0 90 62 60
        E 120 80 1a 00
        E 0 80 1f 00
        E 0 80 61 00
        E 0 80 62 00
        E 0 90 31 60
        E 0 90 63 60
        E 0 90 57 60
        E 0 90 4b 60
        E 0 90 6f 60
        E 0 90 3f 60
        E 120 80 31 00
        E 0 80 63 00
        E 0 80 57 00
        E 0 80 4b 00
        E 0 80 6f 00
        E 0 80 3f 00
        E 120 90 33 60
        E 0 90 64 60
        E 0 90 58 60
        E 0 90 70 60
        E 120 80 33 00
        E 0 80 64 00
        E 0 80 58 00
        E 0 80 70 00
        E 0 90 19 60
        E 0 90 1e 60
        E 0 90 63 60
        E 120 80 19 00
        E 0 80 1e 00
        E 0 80 63 00
        E 0 90 18 60
        E 0 90 1f 60
        E 0 90 60 60
        E 0 90 62 60
        E 0 90 54 60
        E 0 90 56 60
        E 0 90 48 60
        E 0 90 4a 60
        E 0 90 3e 60
        E 120 80 18 00
        E 0 80 1f 00
        E 0 80 60 00
        E 0 80 62 00
        E 0 80 54 00
        E 0 80 56 00
        E 0 80 48 00
        E 0 80 4a 00
        E 0 80 3e 00
        E 120 90 1f 60
        E 0 90 62 60
        E 0 90 56 60
        E 120 80 1f 00
        E 0 80 62 00
        E 0 80 56 00
        E 0 90 1f 60
        E 0 90 62 60
        E 120 80 1f 00
        E 0 80 62 00
        E 0 90 1a 60
        E 0 90 61 60
        E 0 90 55 60
        E 0 90 49 60
        E 0 90 3d 60
        E 120 80 1a 00
        E 0 80 61 00
        E 0 80 55 00
        E 0 80 49 00
        E 0 80 3d 00
        E 120 90 1f 60
        E 0 90 62 60
        E 0 90 56 60
        E 120 80 1f 00
        E 0 80 62 00
        E 0 80 56 00
        E 0 90 1f 60
        E 0 90 62 60
        E 120 80 1f 00
        E 0 80 62 00
        E 0 90 18 60
        E 0 90 60 60
        E 0 90 78 60
        E 0 90 79 60
        E 0 90 7a 60
        E 0 90 7b 60
        E 0 90 7c 60
        E 0 90 54 60
        E 0 90 48 60
        E 0 90 3c 60
        E 120 80 18 00
        E 0 80 60 00
        E 0 80 54 00
        E 0 80 48 00
        E 0 80 3c 00
        E 120 90 1f 60
        E 0 90 62 60
        E 0 90 56 60
        E 120 80 1f 00
        E 0 80 62 00
        E 0 80 56 00
        E 0 90 1f 60
        E 0 90 62 60
        E 120 80 1f 00
        E 0 80 62 00
        E 0 90 1a 60
        E 0 90 33 60
        E 0 90 61 60
        E 0 90 64 60
        E 0 90 55 60
        E 0 90 58 60
        E 0 90 49 60
        E 0 90 4c 60
        E 0 90 70 60
        E 0 90 3d 60
        E 0 90 40 60
        E 120 80 1a 00
        E 0 80 33 00
        E 0 80 61 00
        E 0 80 64 00
        E 0 80 55 00
        E 0 80 58 00
        E 0 80 49 00
        E 0 80 4c 00
        E 0 80 70 00
        E 0 80 3d 00
        E 0 80 40 00
        E 120 90 19 60
        E 0 90 1f 60
        E 0 90 63 60
        E 0 90 57 60
        E 120 80 1f 00
        E 0 80 63 00
        E 0 80 57 00
        E 120 80 78 00
        E 0 80 79 00
        E 0 80 7a 00
        E 0 80 7b 00
        E 0 80 7c 00
        E 0 80 19 00
        E 0 90 18 60
        E 0 90 1f 60
        E 0 90 60 60
        E 0 90 62 60
        E 0 90 54 60
        E 0 90 56 60
        E 0 90 48 60
        E 0 90 4a 60
        E 0 90 3e 60
        E 120 80 18 00
        E 0 80 1f 00
        E 0 80 60 00
        E 0 80 62 00
        E 0 80 54 00
        E 0 80 56 00
        E 0 80 48 00
        E 0 80 4a 00
        E 0 80 3e 00
        E 120 90 1f 60
        E 0 90 62 60
        E 0 90 56 60
        E 120 80 1f 00
        E 0 80 62 00
        E 0 80 56 00
        E 0 90 1f 60
        E 0 90 62 60
        E 120 80 1f 00
        E 0 80 62 00
        E 0 90 1a 60
        E 0 90 61 60
        E 0 90 55 60
        E 0 90 49 60
        E 0 90 3d 60
        E 120 80 1a 00
        E 0 80 61 00
        E 0 80 55 00
        E 0 80 49 00
        E 0 80 3d 00
        E 120 90 1f 60
        E 0 90 62 60
        E 0 90 56 60
        E 120 80 1f 00
        E 0 80 62 00
        E 0 80 56 00
        E 0 90 1f 60
        E 0 90 62 60
        E 120 80 1f 00
        E 0 80 62 00
        E 0 90 18 60
        E 0 90 60 60
        E 0 90 54 60
        E 0 90 48 60
        E 0 90 3c 60
        E 120 80 18 00
        E 0 80 60 00
        E 0 80 54 00
        E 0 80 48 00
        E 0 80 3c 00
        E 120 90 1f 60
        E 0 90 62 60
        E 0 90 56 60
        E 120 80 1f 00
        E 0 80 62 00
        E 0 80 56 00
        E 0 90 1a 60
        E 0 90 1f 60
        E 0 90 61 60
        E 0 90 62 60
        E 120 80 1a 00
        E 0 80 1f 00
        E 0 80 61 00
        E 0 80 62 00
        E 0 90 31 60
        E 0 90 63 60
        E 0 90 57 60
        E 0 90 4b 60
        E 0 90 6f 60
        E 0 90 3f 60
        E 120 80 31 00
        E 0 80 63 00
        E 0 80 57 00
        E 0 80 4b 00
        E 0 80 6f 00
        E 0 80 3f 00
        E 120 90 33 60
        E 0 90 64 60
        E 0 90 58 60
        E 0 90 70 60
        E 120 80 33 00
        E 0 80 64 00
        E 0 80 58 00
        E 0 80 70 00
        E 0 90 19 60
        E 0 90 1e 60
        E 0 90 63 60
        E 120 80 19 00
        E 0 80 1e 00
        E 0 80 63 00
        E 0 90 18 60
        E 0 90 1f 60
        E 0 90 60 60
        E 0 90 62 60
        E 0 90 54 60
        E 0 90 56 60
        E 0 90 48 60
        E 0 90 4a 60
        E 0 90 3e 60
        E 120 80 18 00
        E 0 80 1f 00
        E 0 80 60 00
        E 0 80 62 00
        E 0 80 54 00
        E 0 80 56 00
        E 0 80 48 00
        E 0 80 4a 00
        E 0 80 3e 00
        E 120 90 1f 60
        E 0 90 62 60
        E 0 90 56 60
        E 120 80 1f 00
        E 0 80 62 00
        E 0 80 56 00
        E 0 90 1f 60
        E 0 90 62 60
        E 120 80 1f 00
        E 0 80 62 00
        E 0 90 1a 60
        E 0 90 61 60
        E 0 90 55 60
        E 0 90 49 60
        E 0 90 3d 60
        E 120 80 1a 00
        E 0 80 61 00
        E 0 80 55 00
        E 0 80 49 00
        E 0 80 3d 00
        E 120 90 1f 60
        E 0 90 62 60
        E 0 90 56 60
        E 120 80 1f 00
        E 0 80 62 00
        E 0 80 56 00
        E 0 90 1f 60
        E 0 90 62 60
        E 120 80 1f 00
        E 0 80 62 00
        E 0 90 18 60
        E 0 90 60 60
        E 0 90 78 60
        E 0 90 79 60
        E 0 90 7a 60
        E 0 90 7b 60
        E 0 90 7c 60
        E 0 90 54 60
        E 0 90 48 60
        E 0 90 3c 60
        E 120 80 18 00
        E 0 80 60 00
        E 0 80 54 00
        E 0 80 48 00
        E 0 90 1a 60
        E 0 90 61 60
        E 0 80 3c 00
        E 120 80 1a 00
        E 0 80 61 00
        E 0 90 1f 60
        E 0 90 62 60
        E 0 90 56 60
        E 120 80 1f 00
        E 0 80 62 00
        E 0 80 56 00
        E 0 90 1f 60
        E 0 90 62 60
        E 120 80 1f 00
        E 0 80 62 00
        E 0 90 1a 60
        E 0 90 61 60
        E 0 90 55 60
        E 0 90 49 60
        E 0 90 3d 60
        E 120 80 1a 00
        E 0 80 61 00
        E 0 80 55 00
        E 0 80 49 00
        E 0 80 3d 00
        E 120 90 19 60
        E 0 90 1f 60
        E 0 90 63 60
        E 0 90 57 60
        E 120 80 1f 00
        E 0 80 63 00
        E 0 80 57 00
        E 120 80 78 00
        E 0 80 79 00
        E 0 80 7a 00
        E 0 80 7b 00
        E 0 80 7c 00
        E 0 80 19 00
        E 0 90 18 60
        E 0 90 26 60
        E 0 90 60 60
        E 0 90 64 60
        E 0 90 54 60
        E 0 90 58 60
        E 0 90 48 60
        E 0 90 4c 60
        E 0 90 40 60
        E 120 80 18 00
        E 0 80 26 00
        E 0 80 60 00
        E 0 80 64 00
        E 0 80 54 00
        E 0 80 58 00
        E 0 80 48 00
        E 0 80 4c 00
        E 0 80 40 00
        E 120 90 1f 60
        E 0 90 62 60
        E 0 90 56 60
        E 120 80 1f 00
        E 0 80 62 00
        E 0 80 56 00
        E 0 90 1f 60
        E 0 90 62 60
        E 120 80 1f 00
        E 0 80 62 00
        E 0 90 1a 60
        E 0 90 61 60
        E 0 90 55 60
        E 0 90 49 60
        E 0 90 3d 60
        E 120 80 1a 00
        E 0 80 61 00
        E 0 80 55 00
        E 0 80 49 00
        E 0 80 3d 00
        E 120 90 1f 60
        E 0 90 62 60
        E 0 90 56 60
        E 120 80 1f 00
        E 0 80 62 00
        E 0 80 56 00
        E 0 90 1f 60
        E 0 90 62 60
        E 120 80 1f 00
        E 0 80 62 00
        E 0 90 18 60
        E 0 90 60 60
        E 0 90 54 60
        E 0 90 48 60
        E 0 90 3c 60
        E 120 80 18 00
        E 0 80 60 00
        E 0 80 54 00
        E 0 80 48 00
        E 0 80 3c 00
        E 120 90 1f 60
        E 0 90 62 60
        E 0 90 56 60
        E 120 80 1f 00
        E 0 80 62 00
        E 0 80 56 00
        E 0 90 1a 60
        E 0 90 1f 60
        E 0 90 61 60
        E 0 90 62 60
        E 120 80 1a 00
        E 0 80 1f 00
        E 0 80 61 00
        E 0 80 62 00
        E 0 90 31 60
        E 0 90 63 60
        E 0 90 57 60
        E 0 90 4b 60
        E 0 90 6f 60
        E 0 90 3f 60
        E 120 80 31 00
        E 0 80 63 00
        E 0 80 57 00
        E 0 80 4b 00
        E 0 80 6f 00
        E 0 80 3f 00
        E 120 90 33 60
        E 0 90 64 60
        E 0 90 58 60
        E 0 90 70 60
        E 120 80 33 00
        E 0 80 64 00
        E 0 80 58 00
        E 0 80 70 00
        E 0 90 19 60
        E 0 90 1e 60
        E 0 90 63 60
        E 120 80 19 00
        E 0 80 1e 00
        E 0 80 63 00
        E 0 90 18 60
        E 0 90 1f 60
        E 0 90 60 60
        E 0 90 62 60
        E 0 90 54 60
        E 0 90 56 60
        E 0 90 48 60
        E 0 90 4a 60
        E 0 90 3e 60
        E 120 80 18 00
        E 0 80 1f 00
        E 0 80 60 00
        E 0 80 62 00
        E 0 80 54 00
        E 0 80 56 00
        E 0 80 48 00
        E 0 80 4a 00
        E 0 80 3e 00
        E 120 90 1f 60
        E 0 90 62 60
        E 0 90 56 60
        E 120 80 1f 00
        E 0 80 62 00
        E 0 80 56 00
        E 0 90 1f 60
        E 0 90 62 60
        E 120 80 1f 00
        E 0 80 62 00
        E 0 90 1a 60
        E 0 90 61 60
        E 0 90 55 60
        E 0 90 49 60
        E 0 90 3d 60
        E 120 80 1a 00
        E 0 80 61 00
        E 0 80 55 00
        E 0 80 49 00
        E 0 80 3d 00
        E 120 90 1f 60
        E 0 90 62 60
        E 0 90 56 60
        E 120 80 1f 00
        E 0 80 62 00
        E 0 80 56 00
        E 0 90 1f 60
        E 0 90 62 60
        E 120 80 1f 00
        E 0 80 62 00
        E 0 90 18 60
        E 0 90 60 60
        E 0 90 78 60
        E 0 90 79 60
        E 0 90 7a 60
        E 0 90 7b 60
        E 0 90 7c 60
        E 0 90 54 60
        E 0 90 48 60
        E 0 90 3c 60
        E 120 80 18 00
        E 0 80 60 00
        E 0 80 54 00
        E 0 80 48 00
        E 0 80 3c 00
        E 120 90 1f 60
        E 0 90 62 60
        E 0 90 56 60
        E 120 80 1f 00
        E 0 80 62 00
        E 0 80 56 00
        E 0 90 1f 60
        E 0 90 62 60
        E 120 80 1f 00
        E 0 80 62 00
        E 0 90 1a 60
        E 0 90 33 60
        E 0 90 61 60
        E 0 90 64 60
        E 0 90 55 60
        E 0 90 58 60
        E 0 90 49 60
        E 0 90 4c 60
        E 0 90 70 60
        E 0 90 3d 60
        E 0 90 40 60
        E 120 80 1a 00
        E 0 80 33 00
        E 0 80 61 00
        E 0 80 64 00
        E 0 80 55 00
        E 0 80 58 00
        E 0 80 49 00
        E 0 80 4c 00
        E 0 80 70 00
        E 0 80 3d 00
        E 0 80 40 00
        E 120 90 19 60
        E 0 90 1f 60
        E 0 90 63 60
        E 0 90 57 60
        E 120 80 1f 00
        E 0 80 63 00
        E 0 80 57 00
        E 120 80 78 00
        E 0 80 79 00
        E 0 80 7a 00
        E 0 80 7b 00
        E 0 80 7c 00
        E 0 80 19 00
        E 0 90 18 60
        E 0 90 1f 60
        E 0 90 60 60
        E 0 90 62 60
        E 0 90 54 60
        E 0 90 56 60
        E 0 90 48 60
        E 0 90 4a 60
        E 0 90 3e 60
        E 120 80 18 00
        E 0 80 1f 00
        E 0 80 60 00
        E 0 80 62 00
        E 0 80 54 00
        E 0 80 56 00
        E 0 80 48 00
        E 0 80 4a 00
        E 0 80 3e 00
        E 120 90 1f 60
        E 0 90 62 60
        E 0 90 56 60
        E 120 80 1f 00
        E 0 80 62 00
        E 0 80 56 00
        E 0 90 1f 60
        E 0 90 62 60
        E 120 80 1f 00
        E 0 80 62 00
        E 0 90 1a 60
        E 0 90 61 60
        E 0 90 55 60
        E 0 90 49 60
        E 0 90 3d 60
        E 120 80 1a 00
        E 0 80 61 00
        E 0 80 55 00
        E 0 80 49 00
        E 0 80 3d 00
        E 120 90 1f 60
        E 0 90 62 60
        E 0 90 56 60
        E 120 80 1f 00
        E 0 80 62 00
        E 0 80 56 00
        E 0 90 1f 60
        E 0 90 62 60
        E 120 80 1f 00
        E 0 80 62 00
        E 0 90 18 60
        E 0 90 60 60
        E 0 90 54 60
        E 0 90 48 60
        E 0 90 3c 60
        E 120 80 18 00
        E 0 80 60 00
        E 0 80 54 00
        E 0 80 48 00
        E 0 80 3c 00
        E 120 90 1f 60
        E 0 90 62 60
        E 0 90 56 60
        E 120 80 1f 00
        E 0 80 62 00
        E 0 80 56 00
        E 0 90 1a 60
        E 0 90 1f 60
        E 0 90 61 60
        E 0 90 62 60
        E 120 80 1a 00
        E 0 80 1f 00
        E 0 80 61 00
        E 0 80 62 00
        E 0 90 31 60
        E 0 90 63 60
        E 0 90 57 60
        E 0 90 4b 60
        E 0 90 6f 60
        E 0 90 3f 60
        E 120 80 31 00
        E 0 80 63 00
        E 0 80 57 00
        E 0 80 4b 00
        E 0 80 6f 00
        E 0 80 3f 00
        E 120 90 33 60
        E 0 90 64 60
        E 0 90 58 60
        E 0 90 70 60
        E 120 80 33 00
        E 0 80 64 00
        E 0 80 58 00
        E 0 80 70 00
        E 0 90 19 60
        E 0 90 1e 60
        E 0 90 63 60
        E 120 80 19 00
        E 0 80 1e 00
        E 0 80 63 00
        E 0 90 18 60
        E 0 90 1f 60
        E 0 90 60 60
        E 0 90 62 60
        E 0 90 54 60
        E 0 90 56 60
        E 0 90 48 60
        E 0 90 4a 60
        E 0 90 3e 60
        E 120 80 18 00
        E 0 80 1f 00
        E 0 80 60 00
        E 0 80 62 00
        E 0 80 54 00
        E 0 80 56 00
        E 0 80 48 00
        E 0 80 4a 00
        E 0 80 3e 00
        E 120 90 1f 60
        E 0 90 62 60
        E 0 90 56 60
        E 120 80 1f 00
        E 0 80 62 00
        E 0 80 56 00
        E 0 90 1f 60
        E 0 90 62 60
        E 120 80 1f 00
        E 0 80 62 00
        E 0 90 1a 60
        E 0 90 61 60
        E 0 90 55 60
        E 0 90 49 60
        E 0 90 3d 60
        E 120 80 1a 00
        E 0 80 61 00
        E 0 80 55 00
        E 0 80 49 00
        E 0 80 3d 00
        E 120 90 19 60
        E 0 90 1f 60
        E 0 90 63 60
        E 0 90 57 60
        E 120 80 1f 00
        E 0 80 63 00
        E 0 80 57 00
        E 120 80 19 00
        E 0 90 18 60
        E 0 90 1b 60
        E 0 90 60 60
        E 0 90 61 60
        E 0 90 62 60
        E 0 90 54 60
        E 0 90 55 60
        E 0 90 56 60
        E 0 90 49 60
        E 0 90 4a 60
        E 0 90 6e 60
        E 0 90 3d 60
        E 0 90 3e 60
        E 120 80 18 00
        E 0 80 1b 00
        E 0 80 60 00
        E 0 80 61 00
        E 0 80 62 00
        E 0 80 54 00
        E 0 80 55 00
        E 0 80 56 00
        E 0 80 49 00
        E 0 80 4a 00
        E 0 90 1a 60
        E 0 90 61 60
        E 0 90 62 60
        E 0 80 3d 00
        E 0 80 3e 00
        E 120 80 1a 00
        E 0 80 61 00
        E 0 80 62 00
        E 0 90 1b 60
        E 0 90 61 60
        E 0 90 62 60
        E 0 90 55 60
        E 0 90 56 60
        E 120 80 6e 00
        E 0 80 1b 00
        E 0 80 61 00
        E 0 80 62 00
        E 0 80 55 00
        E 0 80 56 00
        <X 119 0
          /wFbaWRsZV9yZWFsdGltZV0=
        >
        E 2401 b0 7b 00
        GUID {DB9BCD38-8448-45D0-8072-11DAD76115FF}
        IGNTEMPO 0 120.00000000 4 4
        SRCCOLOR 52
        VELLANE 132 71 60
        COLORMAP "C:\Program Files (x86)\REAPER\Data\color_maps\rockband_guitarbass.png"
        CFGEDITVIEW -14443.981992 4.851848 0 12 0 0 0
        CFGEDIT 1 1 0 1 1 0 1 1 1 1 1 0.25000000 -8 -8 1548 876 0 2 1 2 0.00000000 0 1 0 0 0.500000 0 0 1.000000 64
        KEYSNAP 0 0 "102034050607" 0 "Major"
        EVTFILTER 0 -1 -1 -1 -1 0 1 0 0 -1.00000000 -1.00000000
      >
    >
  >
  <TRACK '{52FEF060-C7E2-4F45-82F3-89EA398C2A98}'
    NAME "kick"
    PEAKCOL 16576
    BEAT -1
    AUTOMODE 0
    VOLPAN 1.00000000000000 0.00000000000000 -1.00000000000000 -1.00000000000000 1.00000000000000
    MUTESOLO 0 0 0
    IPHASE 0
    ISBUS 0 0
    BUSCOMP 0 0
    SHOWINMIX 1 0.666700 0.500000 1 0.500000 -1 -1 -1
    FREEMODE 0
    SEL 0
    REC 0 0 0 0 0 0 0
    VU 2
    TRACKHEIGHT 0 0
    INQ 0 0 0 0.5000000000 100 0 0 100
    NCHAN 2
    FX 1
    TRACKID {52FEF060-C7E2-4F45-82F3-89EA398C2A98}
    PERF 0
    MIDIOUT -1
    MAINSEND 1 0
    <ITEM
      POSITION 0.00000000000000
      SNAPOFFS 0.00000000000000
      LENGTH 83.00000000000000
      LOOP 0
      ALLTAKES 0
      SEL 0
      FADEIN 1 0.000000 0.000000 1 0
      FADEOUT 1 0.000000 0.000000 1 0
      MUTE 0
      IGUID {5D2F7D58-82FC-47DC-A08E-0F07048E5335}
      IID 21
      NAME "kick.wav"
      VOLPAN 1.000000 0.000000 1.000000 -1.000000
      SOFFS 0.00000000000000
      PLAYRATE 1.00000000000000 1 0.00000000000000 -1
      CHANMODE 0
      GUID {FCA73087-C34F-4D09-BDD0-806CEA152335}
      <SOURCE WAVE
        FILE "wav\kick.wav"
      >
    >
  >
  <TRACK '{B96D5588-3ECE-41EA-95DC-51C4ABD8A241}'
    NAME "snare"
    PEAKCOL 16576
    BEAT -1
    AUTOMODE 0
    VOLPAN 1.00000000000000 0.00000000000000 -1.00000000000000 -1.00000000000000 1.00000000000000
    MUTESOLO 0 0 0
    IPHASE 0
    ISBUS 0 0
    BUSCOMP 0 0
    SHOWINMIX 1 0.666700 0.500000 1 0.500000 -1 -1 -1
    FREEMODE 0
    SEL 0
    REC 0 0 0 0 0 0 0
    VU 2
    TRACKHEIGHT 0 0
    INQ 0 0 0 0.5000000000 100 0 0 100
    NCHAN 2
    FX 1
    TRACKID {B96D5588-3ECE-41EA-95DC-51C4ABD8A241}
    PERF 0
    MIDIOUT -1
    MAINSEND 1 0
    <ITEM
      POSITION 0.00000000000000
      SNAPOFFS 0.00000000000000
      LENGTH 83.00000000000000
      LOOP 0
      ALLTAKES 0
      SEL 0
      FADEIN 1 0.000000 0.000000 1 0
      FADEOUT 1 0.000000 0.000000 1 0
      MUTE 0
      IGUID {2BC7EDF2-E9EA-4C9A-891F-B79A071C9F6D}
      IID 23
      NAME "snare.wav"
      VOLPAN 1.000000 0.000000 1.000000 -1.000000
      SOFFS 0.00000000000000
      PLAYRATE 1.00000000000000 1 0.00000000000000 -1
      CHANMODE 0
      GUID {D40683AA-EFCA-4A91-9290-D3D215DF8B57}
      <SOURCE WAVE
        FILE "wav\snare.wav"
      >
    >
  >
  <TRACK '{720FBD82-5948-4C04-BBEC-6F6CA7DEA1ED}'
    NAME "kit"
    PEAKCOL 16576
    BEAT -1
    AUTOMODE 0
    VOLPAN 1.00000000000000 0.00000000000000 -1.00000000000000 -1.00000000000000 1.00000000000000
    MUTESOLO 0 0 0
    IPHASE 0
    ISBUS 2 -1
    BUSCOMP 0 0
    SHOWINMIX 1 0.666700 0.500000 1 0.500000 -1 -1 -1
    FREEMODE 0
    SEL 0
    REC 0 0 0 0 0 0 0
    VU 2
    TRACKHEIGHT 0 0
    INQ 0 0 0 0.5000000000 100 0 0 100
    NCHAN 2
    FX 1
    TRACKID {720FBD82-5948-4C04-BBEC-6F6CA7DEA1ED}
    PERF 0
    MIDIOUT -1
    MAINSEND 1 0
    <ITEM
      POSITION 0.00000000000000
      SNAPOFFS 0.00000000000000
      LENGTH 83.00000000000000
      LOOP 0
      ALLTAKES 0
      SEL 0
      FADEIN 1 0.000000 0.000000 1 0
      FADEOUT 1 0.000000 0.000000 1 0
      MUTE 0
      IGUID {718F218A-B029-4407-A67D-586DBB0E2822}
      IID 30
      NAME "kit.wav"
      VOLPAN 1.000000 0.000000 1.000000 -1.000000
      SOFFS 0.00000000000000
      PLAYRATE 1.00000000000000 1 0.00000000000000 -1
      CHANMODE 0
      GUID {B6729F8A-E0A3-4E0B-A740-82B5CABA25B7}
      <SOURCE WAVE
        FILE "wav\kit.wav"
      >
    >
  >
  <TRACK '{D1D14A44-30B2-41E6-83D2-6CA47DEAB00D}'
    NAME "PART BASS"
    PEAKCOL 16576
    BEAT -1
    AUTOMODE 0
    VOLPAN 1.00000000000000 0.00000000000000 -1.00000000000000 -1.00000000000000 1.00000000000000
    MUTESOLO 0 0 0
    IPHASE 0
    ISBUS 1 1
    BUSCOMP 0 0
    SHOWINMIX 1 0.666700 0.500000 1 0.500000 -1 -1 -1
    FREEMODE 0
    SEL 0
    REC 0 0 0 0 0 0 0
    VU 2
    TRACKHEIGHT 0 0
    INQ 0 0 0 0.5000000000 100 0 0 100
    NCHAN 2
    FX 1
    TRACKID {D1D14A44-30B2-41E6-83D2-6CA47DEAB00D}
    PERF 0
    MIDIOUT -1
    <MIDINOTENAMES
      0 127 "Trill Marker"
      0 126 "Tremolo Marker"
      0 125 "---"
      0 124 "BRE"
      0 123 "BRE"
      0 122 "BRE"
      0 121 "BRE"
      0 120 "BRE (use all 5)"
      0 119 "----"
      0 116 "OVERDRIVE"
      0 111 "----"
      0 103 "Solo Marker"
      0 102 "Force HOPO Off"
      0 101 "Force HOPO On"
      0 100 "EXPERT Orange"
      0 99 "EXPERT Blue"
      0 98 "EXPERT Yellow"
      0 97 "EXPERT Red"
      0 96 "EXPERT Green"
      0 91 "----"
      0 90 "Force HOPO Off"
      0 89 "Force HOPO On"
      0 88 "HARD Orange"
      0 87 "HARD Blue"
      0 86 "HARD Yellow"
      0 85 "HARD Red"
      0 84 "HARD Green"
      0 80 "----"
      0 76 "MEDIUM Orange"
      0 75 "MEDIUM Blue"
      0 74 "MEDIUM Yellow"
      0 73 "MEDIUM Red"
      0 72 "MEDIUM Green"
      0 68 "----"
      0 64 "EASY Orange"
      0 63 "EASY Blue"
      0 62 "EASY Yellow"
      0 61 "EASY Red"
      0 60 "EASY Green"
      0 59 "Left Hand Highest (Fret 12)"
      0 58 "-"
      0 57 "Fret 11"
      0 56 "Fret 10"
      0 55 "Fret 9"
      0 54 "-"
      0 53 "Fret 8"
      0 52 "Fret 7"
      0 51 "-"
      0 50 "Fret 6"
      0 49 "Fret 5"
      0 48 "-"
      0 47 "Fret 4"
      0 46 "-"
      0 45 "Fret 3"
      0 44 "-"
      0 43 "Fret 2"
      0 42 "-"
      0 41 "-"
      0 40 "Left Hand Lowest (Fret 1)"
    >
    MAINSEND 1 0
    <FXCHAIN
      WNDRECT 0 43 878 559
      SHOW 0
      LASTSEL 0
      DOCKED 0
      BYPASS 0 0
      <VST "VSTi: RBN Preview (RBN)" "rbprev_vst64.dll" 0 ""
        dnBicu5e7f4AAAAAAgAAAAEAAAAAAAAAAgAAAAAAAAAEAAAAAQAAAA==
        AAAQAAMAqgAAABAAAAA=
      >
      FLOATPOS 0 0 0 0
      FXID {622A6BF0-8CC1-4BAF-90E0-C8AD4A8FBD41}
      WAK 0
    >
    <ITEM
      POSITION 0.00000000000000
      SNAPOFFS 0.00000000000000
      LENGTH 80.50000000000000
      LOOP 0
      ALLTAKES 0
      SEL 0
      FADEIN 1 0.000000 0.000000 1 0
      FADEOUT 1 0.000000 0.000000 1 0
      MUTE 0
      IGUID {4B9BB1BA-BB40-47AD-9C61-470EBF4948F8}
      IID 2
      NAME "PART BASS"
      VOLPAN 1.000000 0.000000 1.000000 -1.000000
      SOFFS 0.00000000000000 0.00000000000000
      PLAYRATE 1.00000000000000 1 0.00000000000000 -1
      CHANMODE 0
      GUID {FE446B85-A6C7-4701-B9EA-7E00F3020C9B}
      <SOURCE MIDI
        HASDATA 1 480 QN
        POOLEDEVTS {56AA5B40-D741-445C-9B0E-B52942BE4BE7}
        <X 0 0
          /wNQQVJUIEJBU1M=
        >
        <X 3840 0
          /wFbcGxheV0=
        >
        E 0 90 32 60
        E 0 90 3c 60
        E 0 90 49 60
        E 0 90 56 60
        E 0 90 62 60
        E 0 90 74 60
        E 120 80 3c 00
        E 0 80 49 00
        E 0 80 56 00
        E 0 80 62 00
        E 0 90 64 60
        E 120 80 64 00
        E 0 90 54 60
        E 0 90 60 60
        E 120 80 32 00
        E 0 80 54 00
        E 0 80 60 00
        E 0 90 35 60
        E 0 90 63 60
        E 120 80 63 00
        E 0 90 49 60
        E 0 90 56 60
        E 0 90 62 60
        E 120 80 49 00
        E 0 80 56 00
        E 0 80 62 00
        E 0 90 61 60
        E 120 80 61 00
        E 0 90 54 60
        E 0 90 60 60
        E 120 80 35 00
        E 0 80 54 00
        E 0 80 60 00
        E 120 90 2d 60
        E 0 90 3e 60
        E 0 90 4b 60
        E 0 90 58 60
        E 0 90 64 60
        E 120 80 74 00
        E 0 80 3e 00
        E 0 80 4b 00
        E 0 80 58 00
        E 0 80 64 00
        E 120 90 57 60
        E 0 90 63 60
        E 120 80 57 00
        E 0 80 63 00
        E 240 90 49 60
        E 0 90 56 60
        E 0 90 62 60
        E 120 80 2d 00
        E 0 80 49 00
        E 0 80 56 00
        E 0 80 62 00
        E 120 90 2f 60
        E 0 90 55 60
        E 0 90 60 60
        E 120 80 55 00
        E 0 80 60 00
        E 0 90 61 60
        E 120 80 61 00
        E 240 90 3c 60
        E 0 90 49 60
        E 0 90 56 60
        E 0 90 62 60
        E 120 80 2f 00
        E 0 80 3c 00
        E 0 80 49 00
        E 0 80 56 00
        E 0 80 62 00
        E 240 90 32 60
        E 0 90 57 60
        E 0 90 63 60
        E 120 80 57 00
        E 0 80 63 00
        E 120 90 3c 60
        E 0 90 49 60
        E 0 90 56 60
        E 0 90 62 60
        E 120 80 3c 00
        E 0 80 49 00
        E 0 80 56 00
        E 0 80 62 00
        E 120 90 57 60
        E 0 90 63 60
        E 120 80 57 00
        E 0 80 63 00
        E 240 90 4b 60
        E 0 90 58 60
        E 0 90 64 60
        E 120 80 32 00
        E 0 80 4b 00
        E 0 80 58 00
        E 0 80 64 00
        E 240 90 2d 60
        E 0 90 3e 60
        E 0 90 4b 60
        E 0 90 58 60
        E 0 90 63 60
        E 120 80 3e 00
        E 0 80 4b 00
        E 0 80 58 00
        E 0 80 63 00
        E 0 90 64 60
        E 120 80 2d 00
        E 0 80 64 00
        E 120 90 28 60
        E 0 90 64 60
        E 120 80 64 00
        E 0 90 4a 60
        E 0 90 57 60
        E 0 90 63 60
        E 120 80 4a 00
        E 0 80 57 00
        E 0 80 63 00
        E 0 90 61 60
        E 120 80 61 00
        E 0 90 56 60
        E 0 90 62 60
        E 120 80 28 00
        E 0 80 56 00
        E 0 80 62 00
        E 120 90 2d 60
        E 0 90 3e 60
        E 0 90 4b 60
        E 0 90 58 60
        E 0 90 64 60
        E 120 80 3e 00
        E 0 80 4b 00
        E 0 80 58 00
        E 0 80 64 00
        E 120 90 57 60
        E 0 90 63 60
        E 120 80 57 00
        E 0 80 63 00
        E 240 90 49 60
        E 0 90 56 60
        E 0 90 62 60
        E 120 80 2d 00
        E 0 80 49 00
        E 0 80 56 00
        E 0 80 62 00
        E 120 90 2f 60
        E 0 90 55 60
        E 0 90 60 60
        E 120 80 55 00
        E 0 80 60 00
        E 0 90 61 60
        E 120 80 61 00
        E 240 90 3c 60
        E 0 90 49 60
        E 0 90 56 60
        E 0 90 62 60
        E 120 80 2f 00
        E 0 80 3c 00
        E 0 80 49 00
        E 0 80 56 00
        E 0 80 62 00
        E 240 90 32 60
        E 0 90 57 60
        E 0 90 63 60
        E 120 80 57 00
        E 0 80 63 00
        E 120 90 3c 60
        E 0 90 49 60
        E 0 90 56 60
        E 0 90 62 60
        E 0 90 74 60
        E 120 80 3c 00
        E 0 80 49 00
        E 0 80 56 00
        E 0 80 62 00
        E 120 90 57 60
        E 0 90 63 60
        E 120 80 57 00
        E 0 80 63 00
        E 240 90 4b 60
        E 0 90 58 60
        E 0 90 64 60
        E 120 80 32 00
        E 0 80 4b 00
        E 0 80 58 00
        E 0 80 64 00
        E 240 90 2d 60
        E 0 90 3e 60
        E 0 90 4b 60
        E 0 90 58 60
        E 0 90 63 60
        E 120 80 3e 00
        E 0 80 4b 00
        E 0 80 58 00
        E 0 80 63 00
        E 0 90 64 60
        E 120 80 64 00
        E 120 90 64 60
        E 120 80 64 00
        E 0 90 4a 60
        E 0 90 57 60
        E 0 90 63 60
        E 120 80 4a 00
        E 0 80 57 00
        E 0 80 63 00
        E 0 90 62 60
        E 120 80 62 00
        E 0 90 55 60
        E 0 90 61 60
        E 120 80 55 00
        E 0 80 61 00
        E 120 80 74 00
        E 0 90 3e 60
        E 0 90 4b 60
        E 0 90 58 60
        E 0 90 64 60
        E 120 80 3e 00
        E 0 80 4b 00
        E 0 80 58 00
        E 0 80 64 00
        E 120 90 57 60
        E 0 90 63 60
        E 120 80 2d 00
        E 0 80 57 00
        E 0 80 63 00
        E 240 90 49 60
        E 0 90 56 60
        E 0 90 62 60
        E 120 80 49 00
        E 0 80 56 00
        E 0 80 62 00
        E 120 90 2f 60
        E 0 90 55 60
        E 0 90 60 60
        E 120 80 55 00
        E 0 80 60 00
        E 0 90 61 60
        E 120 80 61 00
        E 240 90 3c 60
        E 0 90 49 60
        E 0 90 56 60
        E 0 90 62 60
        E 120 80 2f 00
        E 0 80 3c 00
        E 0 80 49 00
        E 0 80 56 00
        E 0 80 62 00
        E 240 90 32 60
        E 0 90 57 60
        E 0 90 63 60
        E 120 80 57 00
        E 0 80 63 00
        E 120 90 3c 60
        E 0 90 49 60
        E 0 90 56 60
        E 0 90 62 60
        E 120 80 3c 00
        E 0 80 49 00
        E 0 80 56 00
        E 0 80 62 00
        E 120 90 57 60
        E 0 90 63 60
        E 120 80 57 00
        E 0 80 63 00
        E 240 90 4b 60
        E 0 90 58 60
        E 0 90 64 60
        E 120 80 32 00
        E 0 80 4b 00
        E 0 80 58 00
        E 0 80 64 00
        E 240 90 2d 60
        E 0 90 3e 60
        E 0 90 4b 60
        E 0 90 58 60
        E 0 90 63 60
        E 120 80 3e 00
        E 0 80 4b 00
        E 0 80 58 00
        E 0 80 63 00
        E 0 90 64 60
        E 120 80 2d 00
        E 0 80 64 00
        E 120 90 28 60
        E 0 90 64 60
        E 120 80 64 00
        E 0 90 4a 60
        E 0 90 57 60
        E 0 90 63 60
        E 120 80 4a 00
        E 0 80 57 00
        E 0 80 63 00
        E 0 90 61 60
        E 120 80 61 00
        E 0 90 56 60
        E 0 90 62 60
        E 120 80 28 00
        E 0 80 56 00
        E 0 80 62 00
        E 120 90 2d 60
        E 0 90 3e 60
        E 0 90 4b 60
        E 0 90 58 60
        E 0 90 64 60
        E 120 80 3e 00
        E 0 80 4b 00
        E 0 80 58 00
        E 0 80 64 00
        E 120 90 57 60
        E 0 90 63 60
        E 120 80 57 00
        E 0 80 63 00
        E 240 90 49 60
        E 0 90 56 60
        E 0 90 62 60
        E 120 80 2d 00
        E 0 80 49 00
        E 0 80 56 00
        E 0 80 62 00
        E 120 90 2f 60
        E 0 90 55 60
        E 0 90 60 60
        E 120 80 55 00
        E 0 80 60 00
        E 0 90 61 60
        E 120 80 61 00
        E 240 90 3c 60
        E 0 90 49 60
        E 0 90 56 60
        E 0 90 62 60
        E 120 80 2f 00
        E 0 80 3c 00
        E 0 80 49 00
        E 0 80 56 00
        E 0 80 62 00
        E 240 90 32 60
        E 0 90 57 60
        E 0 90 63 60
        E 120 80 57 00
        E 0 80 63 00
        E 120 90 3c 60
        E 0 90 49 60
        E 0 90 56 60
        E 0 90 62 60
        E 120 80 3c 00
        E 0 80 49 00
        E 0 80 56 00
        E 0 80 62 00
        E 120 90 57 60
        E 0 90 63 60
        E 120 80 57 00
        E 0 80 63 00
        E 240 90 4b 60
        E 0 90 58 60
        E 0 90 64 60
        E 120 80 32 00
        E 0 80 4b 00
        E 0 80 58 00
        E 0 80 64 00
        E 240 90 2d 60
        E 0 90 3e 60
        E 0 90 4b 60
        E 0 90 58 60
        E 0 90 63 60
        E 120 80 3e 00
        E 0 80 4b 00
        E 0 80 58 00
        E 0 80 63 00
        E 0 90 64 60
        E 120 80 64 00
        E 120 90 64 60
        E 120 80 64 00
        E 0 90 4a 60
        E 0 90 57 60
        E 0 90 63 60
        E 120 80 4a 00
        E 0 80 57 00
        E 0 80 63 00
        E 0 90 62 60
        E 120 80 62 00
        E 0 90 55 60
        E 0 90 61 60
        E 120 80 55 00
        E 0 80 61 00
        E 120 90 3e 60
        E 0 90 4b 60
        E 0 90 58 60
        E 0 90 64 60
        E 120 80 3e 00
        E 0 80 4b 00
        E 0 80 58 00
        E 0 80 64 00
        E 120 90 57 60
        E 0 90 63 60
        E 120 80 57 00
        E 0 80 63 00
        E 240 90 49 60
        E 0 90 56 60
        E 0 90 62 60
        E 120 80 2d 00
        E 0 80 49 00
        E 0 80 56 00
        E 0 80 62 00
        E 120 90 2f 60
        E 0 90 55 60
        E 0 90 60 60
        E 120 80 55 00
        E 0 80 60 00
        E 0 90 61 60
        E 120 80 61 00
        E 240 90 3c 60
        E 0 90 49 60
        E 0 90 56 60
        E 0 90 62 60
        E 120 80 2f 00
        E 0 80 3c 00
        E 0 80 49 00
        E 0 80 56 00
        E 0 80 62 00
        E 240 90 32 60
        E 0 90 57 60
        E 0 90 63 60
        E 120 80 57 00
        E 0 80 63 00
        E 120 90 3c 60
        E 0 90 49 60
        E 0 90 56 60
        E 0 90 62 60
        E 120 80 3c 00
        E 0 80 49 00
        E 0 80 56 00
        E 0 80 62 00
        E 120 90 57 60
        E 0 90 63 60
        E 120 80 57 00
        E 0 80 63 00
        E 240 90 4b 60
        E 0 90 58 60
        E 0 90 64 60
        E 120 80 32 00
        E 0 80 4b 00
        E 0 80 58 00
        E 0 80 64 00
        E 240 90 2d 60
        E 0 90 3e 60
        E 0 90 4b 60
        E 0 90 58 60
        E 0 90 63 60
        E 120 80 3e 00
        E 0 80 4b 00
        E 0 80 58 00
        E 0 80 63 00
        E 0 90 64 60
        E 120 80 2d 00
        E 0 80 64 00
        E 120 90 28 60
        E 0 90 64 60
        E 120 80 64 00
        E 0 90 4a 60
        E 0 90 57 60
        E 0 90 63 60
        E 120 80 4a 00
        E 0 80 57 00
        E 0 80 63 00
        E 0 90 61 60
        E 120 80 61 00
        E 0 90 56 60
        E 0 90 62 60
        E 120 80 28 00
        E 0 80 56 00
        E 0 80 62 00
        E 120 90 2d 60
        E 0 90 3e 60
        E 0 90 4b 60
        E 0 90 58 60
        E 0 90 64 60
        E 0 90 74 60
        E 120 80 3e 00
        E 0 80 4b 00
        E 0 80 58 00
        E 0 80 64 00
        E 120 90 57 60
        E 0 90 63 60
        E 120 80 57 00
        E 0 80 63 00
        E 240 90 49 60
        E 0 90 56 60
        E 0 90 62 60
        E 120 80 2d 00
        E 0 80 49 00
        E 0 80 56 00
        E 0 80 62 00
        E 120 90 2f 60
        E 0 90 55 60
        E 0 90 60 60
        E 120 80 55 00
        E 0 80 60 00
        E 0 90 61 60
        E 120 80 61 00
        E 240 90 3c 60
        E 0 90 49 60
        E 0 90 56 60
        E 0 90 62 60
        E 120 80 2f 00
        E 0 80 3c 00
        E 0 80 49 00
        E 0 80 56 00
        E 0 80 62 00
        E 240 90 32 60
        E 0 90 57 60
        E 0 90 63 60
        E 120 80 57 00
        E 0 80 63 00
        E 120 90 3c 60
        E 0 90 49 60
        E 0 90 56 60
        E 0 90 62 60
        E 120 80 3c 00
        E 0 80 49 00
        E 0 80 56 00
        E 0 80 62 00
        E 120 90 57 60
        E 0 90 63 60
        E 120 80 57 00
        E 0 80 63 00
        E 240 90 58 60
        E 0 90 64 60
        E 120 80 58 00
        E 0 80 64 00
        E 120 90 62 60
        E 120 80 62 00
        E 0 90 3d 60
        E 0 90 4a 60
        E 0 90 57 60
        E 0 90 63 60
        E 120 80 3d 00
        E 0 80 4a 00
        E 0 80 57 00
        E 0 80 63 00
        E 0 90 64 60
        E 120 80 64 00
        E 0 90 54 60
        E 0 90 60 60
        E 120 80 32 00
        E 0 80 54 00
        E 0 80 60 00
        E 0 90 35 60
        E 0 90 64 60
        E 120 80 64 00
        E 0 90 4a 60
        E 0 90 57 60
        E 0 90 63 60
        E 120 80 4a 00
        E 0 80 57 00
        E 0 80 63 00
        E 0 90 62 60
        E 120 80 62 00
        E 0 90 55 60
        E 0 90 61 60
        E 120 80 35 00
        E 0 80 55 00
        E 0 80 61 00
        E 120 80 74 00
        E 0 90 2d 60
        E 0 90 3c 60
        E 0 90 48 60
        E 0 90 54 60
        E 0 90 60 60
        E 120 80 3c 00
        E 0 80 48 00
        E 0 80 54 00
        E 0 80 60 00
        E 120 90 48 60
        E 0 90 55 60
        E 0 90 61 60
        E 120 80 48 00
        E 0 80 55 00
        E 0 80 61 00
        E 360 90 55 60
        E 0 90 61 60
        E 120 80 2d 00
        E 0 80 55 00
        E 0 80 61 00
        E 120 90 31 60
        E 0 90 3c 60
        E 0 90 49 60
        E 0 90 56 60
        E 0 90 62 60
        E 120 80 3c 00
        E 0 80 49 00
        E 0 80 56 00
        E 0 80 62 00
        E 120 90 57 60
        E 0 90 62 60
        E 120 80 57 00
        E 0 80 62 00
        E 0 90 63 60
        E 120 80 31 00
        E 0 80 63 00
        E 120 90 2d 60
        E 0 90 48 60
        E 0 90 55 60
        E 0 90 62 60
        E 120 80 48 00
        E 0 80 62 00
        E 0 90 61 60
        E 360 80 55 00
        E 0 80 61 00
        E 120 90 3c 60
        E 0 90 48 60
        E 0 90 54 60
        E 0 90 60 60
        E 120 80 2d 00
        E 0 80 3c 00
        E 0 80 48 00
        E 0 80 54 00
        E 0 80 60 00
        E 360 90 28 60
        E 0 90 56 60
        E 0 90 62 60
        E 120 80 56 00
        E 0 80 62 00
        E 0 90 61 60
        E 120 80 61 00
        E 0 90 3c 60
        E 0 90 48 60
        E 0 90 54 60
        E 0 90 60 60
        E 120 80 3c 00
        E 0 80 48 00
        E 0 80 54 00
        E 0 80 60 00
        E 0 90 63 60
        E 120 80 63 00
        E 0 90 48 60
        E 0 90 54 60
        E 0 90 60 60
        E 120 80 48 00
        E 0 80 54 00
        E 0 80 60 00
        E 0 90 61 60
        E 120 80 61 00
        E 120 90 56 60
        E 0 90 63 60
        E 120 80 56 00
        E 0 80 63 00
        E 0 90 62 60
        E 120 80 28 00
        E 0 80 62 00
        E 120 90 2d 60
        E 0 90 3c 60
        E 0 90 48 60
        E 0 90 54 60
        E 0 90 60 60
        E 120 80 3c 00
        E 0 80 48 00
        E 0 80 54 00
        E 0 80 60 00
        E 120 90 48 60
        E 0 90 55 60
        E 0 90 61 60
        E 120 80 48 00
        E 0 80 55 00
        E 0 80 61 00
        E 360 90 55 60
        E 0 90 61 60
        E 120 80 2d 00
        E 0 80 55 00
        E 0 80 61 00
        E 120 90 31 60
        E 0 90 3c 60
        E 0 90 49 60
        E 0 90 56 60
        E 0 90 62 60
        E 120 80 3c 00
        E 0 80 49 00
        E 0 80 56 00
        E 0 80 62 00
        E 120 90 57 60
        E 0 90 62 60
        E 120 80 57 00
        E 0 80 62 00
        E 0 90 63 60
        E 120 80 31 00
        E 0 80 63 00
        E 120 90 2d 60
        E 0 90 48 60
        E 0 90 55 60
        E 0 90 62 60
        E 120 80 48 00
        E 0 80 62 00
        E 0 90 61 60
        E 360 80 55 00
        E 0 80 61 00
        E 120 90 3c 60
        E 0 90 48 60
        E 0 90 54 60
        E 0 90 60 60
        E 120 80 2d 00
        E 0 80 3c 00
        E 0 80 48 00
        E 0 80 54 00
        E 0 80 60 00
        E 360 90 32 60
        E 0 90 49 60
        E 0 90 56 60
        E 0 90 62 60
        E 120 80 49 00
        E 0 80 56 00
        E 0 80 62 00
        E 0 90 61 60
        E 120 80 61 00
        E 0 90 3c 60
        E 0 90 49 60
        E 0 90 56 60
        E 0 90 62 60
        E 120 80 3c 00
        E 0 80 49 00
        E 0 80 56 00
        E 0 80 62 00
        E 0 90 64 60
        E 120 80 64 00
        E 0 90 54 60
        E 0 90 60 60
        E 120 80 32 00
        E 0 80 54 00
        E 0 80 60 00
        E 0 90 35 60
        E 0 90 63 60
        E 120 80 63 00
        E 0 90 49 60
        E 0 90 56 60
        E 0 90 62 60
        E 120 80 49 00
        E 0 80 56 00
        E 0 80 62 00
        E 0 90 61 60
        E 120 80 61 00
        E 0 90 54 60
        E 0 90 60 60
        E 120 80 35 00
        E 0 80 54 00
        E 0 80 60 00
        E 120 90 2d 60
        E 0 90 3e 60
        E 0 90 4b 60
        E 0 90 58 60
        E 0 90 64 60
        E 120 80 3e 00
        E 0 80 4b 00
        E 0 80 58 00
        E 0 80 64 00
        E 120 90 57 60
        E 0 90 63 60
        E 120 80 57 00
        E 0 80 63 00
        E 240 90 49 60
        E 0 90 56 60
        E 0 90 62 60
        E 120 80 2d 00
        E 0 80 49 00
        E 0 80 56 00
        E 0 80 62 00
        E 120 90 2f 60
        E 0 90 55 60
        E 0 90 60 60
        E 120 80 55 00
        E 0 80 60 00
        E 0 90 61 60
        E 120 80 61 00
        E 240 90 3c 60
        E 0 90 49 60
        E 0 90 56 60
        E 0 90 62 60
        E 120 80 2f 00
        E 0 80 3c 00
        E 0 80 49 00
        E 0 80 56 00
        E 0 80 62 00
        E 240 90 32 60
        E 0 90 57 60
        E 0 90 63 60
        E 120 80 57 00
        E 0 80 63 00
        E 120 90 3c 60
        E 0 90 49 60
        E 0 90 56 60
        E 0 90 62 60
        E 0 90 74 60
        E 120 80 3c 00
        E 0 80 49 00
        E 0 80 56 00
        E 0 80 62 00
        E 120 90 57 60
        E 0 90 63 60
        E 120 80 57 00
        E 0 80 63 00
        E 240 90 4b 60
        E 0 90 58 60
        E 0 90 64 60
        E 120 80 32 00
        E 0 80 4b 00
        E 0 80 58 00
        E 0 80 64 00
        E 240 90 2d 60
        E 0 90 3e 60
        E 0 90 4b 60
        E 0 90 58 60
        E 0 90 63 60
        E 120 80 3e 00
        E 0 80 4b 00
        E 0 80 58 00
        E 0 80 63 00
        E 0 90 64 60
        E 120 80 2d 00
        E 0 80 64 00
        E 120 90 28 60
        E 0 90 64 60
        E 120 80 64 00
        E 0 90 4a 60
        E 0 90 57 60
        E 0 90 63 60
        E 120 80 4a 00
        E 0 80 57 00
        E 0 80 63 00
        E 0 90 61 60
        E 120 80 61 00
        E 0 90 56 60
        E 0 90 62 60
        E 120 80 28 00
        E 0 80 56 00
        E 0 80 62 00
        E 120 80 74 00
        E 0 90 2d 60
        E 0 90 3e 60
        E 0 90 4b 60
        E 0 90 58 60
        E 0 90 64 60
        E 120 80 3e 00
        E 0 80 4b 00
        E 0 80 58 00
        E 0 80 64 00
        E 120 90 57 60
        E 0 90 63 60
        E 120 80 57 00
        E 0 80 63 00
        E 240 90 49 60
        E 0 90 56 60
        E 0 90 62 60
        E 120 80 2d 00
        E 0 80 49 00
        E 0 80 56 00
        E 0 80 62 00
        E 120 90 2f 60
        E 0 90 55 60
        E 0 90 60 60
        E 120 80 55 00
        E 0 80 60 00
        E 0 90 61 60
        E 120 80 61 00
        E 240 90 3c 60
        E 0 90 49 60
        E 0 90 56 60
        E 0 90 62 60
        E 120 80 2f 00
        E 0 80 3c 00
        E 0 80 49 00
        E 0 80 56 00
        E 0 80 62 00
        E 240 90 32 60
        E 0 90 57 60
        E 0 90 63 60
        E 120 80 57 00
        E 0 80 63 00
        E 120 90 3c 60
        E 0 90 49 60
        E 0 90 56 60
        E 0 90 62 60
        E 120 80 3c 00
        E 0 80 49 00
        E 0 80 56 00
        E 0 80 62 00
        E 120 90 57 60
        E 0 90 63 60
        E 120 80 57 00
        E 0 80 63 00
        E 240 90 4b 60
        E 0 90 58 60
        E 0 90 64 60
        E 120 80 32 00
        E 0 80 4b 00
        E 0 80 58 00
        E 0 80 64 00
        E 240 90 2d 60
        E 0 90 3e 60
        E 0 90 4b 60
        E 0 90 58 60
        E 0 90 63 60
        E 120 80 3e 00
        E 0 80 4b 00
        E 0 80 58 00
        E 0 80 63 00
        E 0 90 64 60
        E 120 80 64 00
        E 120 90 64 60
        E 120 80 64 00
        E 0 90 4a 60
        E 0 90 57 60
        E 0 90 63 60
        E 120 80 4a 00
        E 0 80 57 00
        E 0 80 63 00
        E 0 90 62 60
        E 120 80 62 00
        E 0 90 55 60
        E 0 90 61 60
        E 120 80 55 00
        E 0 80 61 00
        E 120 90 3e 60
        E 0 90 4b 60
        E 0 90 58 60
        E 0 90 64 60
        E 120 80 3e 00
        E 0 80 4b 00
        E 0 80 58 00
        E 0 80 64 00
        E 120 90 57 60
        E 0 90 63 60
        E 120 80 57 00
        E 0 80 63 00
        E 120 90 49 60
        E 0 90 56 60
        E 0 90 62 60
        E 120 80 2d 00
        E 0 80 49 00
        E 0 80 56 00
        E 0 80 62 00
        E 240 90 2f 60
        E 0 90 55 60
        E 0 90 60 60
        E 120 80 55 00
        E 0 80 60 00
        E 0 90 61 60
        E 120 80 61 00
        E 240 90 3c 60
        E 0 90 49 60
        E 0 90 56 60
        E 0 90 62 60
        E 120 80 2f 00
        E 0 80 3c 00
        E 0 80 49 00
        E 0 80 56 00
        E 0 80 62 00
        E 240 90 32 60
        E 0 90 57 60
        E 0 90 63 60
        E 120 80 57 00
        E 0 80 63 00
        E 120 90 3c 60
        E 0 90 49 60
        E 0 90 56 60
        E 0 90 62 60
        E 120 80 3c 00
        E 0 80 49 00
        E 0 80 56 00
        E 0 80 62 00
        E 120 90 57 60
        E 0 90 63 60
        E 120 80 32 00
        E 0 80 57 00
        E 0 80 63 00
        E 120 90 74 60
        E 120 90 31 60
        E 0 90 60 60
        E 120 80 60 00
        E 0 90 55 60
        E 0 90 61 60
        E 120 80 55 00
        E 0 80 61 00
        E 0 90 62 60
        E 120 80 31 00
        E 0 80 62 00
        E 0 90 32 60
        E 0 90 3d 60
        E 0 90 4a 60
        E 0 90 57 60
        E 0 90 63 60
        E 120 80 3d 00
        E 0 80 4a 00
        E 0 80 57 00
        E 0 80 63 00
        E 0 90 64 60
        E 120 80 64 00
        E 0 90 54 60
        E 0 90 60 60
        E 120 80 32 00
        E 0 80 54 00
        E 0 80 60 00
        E 0 90 35 60
        E 0 90 63 60
        E 120 80 63 00
        E 0 90 49 60
        E 0 90 56 60
        E 0 90 62 60
        E 120 80 49 00
        E 0 80 56 00
        E 0 80 62 00
        E 0 90 61 60
        E 120 80 61 00
        E 0 90 54 60
        E 0 90 60 60
        E 120 80 35 00
        E 0 80 54 00
        E 0 80 60 00
        E 120 90 32 60
        E 0 90 3c 60
        E 0 90 48 60
        E 0 90 55 60
        E 0 90 61 60
        E 480 80 74 00
        <X 3360 0
          /wFbaWRsZV0=
        >
        E 0 80 32 00
        E 0 80 3c 00
        E 0 80 48 00
        E 0 80 55 00
        E 0 80 61 00
        <X 3120 0
          /wFbbWVsbG93XQ==
        >
        E 120 90 2d 60
        E 0 90 64 60
        E 120 80 64 00
        E 0 90 4a 60
        E 0 90 57 60
        E 0 90 63 60
        E 120 80 4a 00
        E 0 80 57 00
        E 0 80 63 00
        E 0 90 62 60
        E 120 80 62 00
        E 0 90 55 60
        E 0 90 61 60
        E 120 80 55 00
        E 0 80 61 00
        E 120 90 3e 60
        E 0 90 4b 60
        E 0 90 58 60
        E 0 90 64 60
        E 120 80 3e 00
        E 0 80 4b 00
        E 0 80 58 00
        E 0 80 64 00
        E 120 90 57 60
        E 0 90 63 60
        E 120 80 57 00
        E 0 80 63 00
        E 240 90 49 60
        E 0 90 56 60
        E 0 90 62 60
        E 120 80 2d 00
        E 0 80 49 00
        E 0 80 56 00
        E 0 80 62 00
        E 120 90 2f 60
        E 0 90 55 60
        E 0 90 60 60
        E 120 80 55 00
        E 0 80 60 00
        E 0 90 61 60
        E 120 80 61 00
        E 240 90 3c 60
        E 0 90 49 60
        E 0 90 56 60
        E 0 90 62 60
        E 120 80 2f 00
        E 0 80 3c 00
        E 0 80 49 00
        E 0 80 56 00
        E 0 80 62 00
        E 240 90 32 60
        E 0 90 57 60
        E 0 90 63 60
        E 120 80 57 00
        E 0 80 63 00
        E 120 90 3c 60
        E 0 90 49 60
        E 0 90 56 60
        E 0 90 62 60
        E 120 80 3c 00
        E 0 80 49 00
        E 0 80 56 00
        E 0 80 62 00
        E 120 90 57 60
        E 0 90 63 60
        E 120 80 57 00
        E 0 80 63 00
        E 240 90 4b 60
        E 0 90 58 60
        E 0 90 64 60
        E 120 80 32 00
        E 0 80 4b 00
        E 0 80 58 00
        E 0 80 64 00
        E 240 90 2d 60
        E 0 90 3e 60
        E 0 90 4b 60
        E 0 90 58 60
        E 0 90 63 60
        E 120 80 3e 00
        E 0 80 4b 00
        E 0 80 58 00
        E 0 80 63 00
        E 0 90 64 60
        E 120 80 2d 00
        E 0 80 64 00
        E 120 90 28 60
        E 0 90 64 60
        E 120 80 64 00
        E 0 90 4a 60
        E 0 90 57 60
        E 0 90 63 60
        E 120 80 4a 00
        E 0 80 57 00
        E 0 80 63 00
        E 0 90 61 60
        E 120 80 61 00
        E 0 90 56 60
        E 0 90 62 60
        E 120 80 28 00
        E 0 80 56 00
        E 0 80 62 00
        E 120 90 2d 60
        E 0 90 3e 60
        E 0 90 4b 60
        E 0 90 58 60
        E 0 90 64 60
        E 120 80 3e 00
        E 0 80 4b 00
        E 0 80 58 00
        E 0 80 64 00
        E 120 90 57 60
        E 0 90 63 60
        E 0 90 74 60
        E 120 80 57 00
        E 0 80 63 00
        E 240 90 49 60
        E 0 90 56 60
        E 0 90 62 60
        E 120 80 2d 00
        E 0 80 49 00
        E 0 80 56 00
        E 0 80 62 00
        E 120 90 2f 60
        E 0 90 55 60
        E 0 90 60 60
        E 120 80 55 00
        E 0 80 60 00
        E 0 90 61 60
        E 120 80 61 00
        E 240 90 3c 60
        E 0 90 49 60
        E 0 90 56 60
        E 0 90 62 60
        E 120 80 2f 00
        E 0 80 3c 00
        E 0 80 49 00
        E 0 80 56 00
        E 0 80 62 00
        E 240 90 32 60
        E 0 90 57 60
        E 0 90 63 60
        E 120 80 57 00
        E 0 80 63 00
        E 120 90 3c 60
        E 0 90 49 60
        E 0 90 56 60
        E 0 90 62 60
        E 120 80 3c 00
        E 0 80 49 00
        E 0 80 56 00
        E 0 80 62 00
        E 120 90 57 60
        E 0 90 63 60
        E 120 80 57 00
        E 0 80 63 00
        E 240 90 4b 60
        E 0 90 58 60
        E 0 90 64 60
        E 120 80 74 00
        E 0 80 32 00
        E 0 80 4b 00
        E 0 80 58 00
        E 0 80 64 00
        E 240 90 2d 60
        E 0 90 3e 60
        E 0 90 4b 60
        E 0 90 58 60
        E 0 90 63 60
        E 120 80 3e 00
        E 0 80 4b 00
        E 0 80 58 00
        E 0 80 63 00
        E 0 90 64 60
        E 120 80 64 00
        E 120 90 64 60
        E 120 80 64 00
        E 0 90 4a 60
        E 0 90 57 60
        E 0 90 63 60
        E 120 80 4a 00
        E 0 80 57 00
        E 0 80 63 00
        E 0 90 62 60
        E 120 80 62 00
        E 0 90 55 60
        E 0 90 61 60
        E 120 80 2d 00
        E 0 80 55 00
        E 0 80 61 00
        <X 120 0
          /wFbaW50ZW5zZV0=
        >
        E 0 90 31 60
        E 0 90 3e 60
        E 0 90 4b 60
        E 0 90 58 60
        E 0 90 64 60
        E 120 80 3e 00
        E 0 80 4b 00
        E 0 80 58 00
        E 0 80 64 00
        E 120 90 57 60
        E 0 90 63 60
        E 120 80 57 00
        E 0 80 63 00
        E 240 90 49 60
        E 0 90 56 60
        E 0 90 62 60
        E 120 80 31 00
        E 0 80 49 00
        E 0 80 56 00
        E 0 80 62 00
        E 120 90 32 60
        E 0 90 55 60
        E 0 90 60 60
        E 120 80 55 00
        E 0 80 60 00
        E 0 90 61 60
        E 120 80 61 00
        E 240 90 3c 60
        E 0 90 49 60
        E 0 90 56 60
        E 0 90 62 60
        E 120 80 32 00
        E 0 80 3c 00
        E 0 80 49 00
        E 0 80 56 00
        E 0 80 62 00
        E 240 90 35 60
        E 0 90 57 60
        E 0 90 63 60
        E 120 80 57 00
        E 0 80 63 00
        E 120 90 3c 60
        E 0 90 49 60
        E 0 90 56 60
        E 0 90 62 60
        E 120 80 3c 00
        E 0 80 49 00
        E 0 80 56 00
        E 0 80 62 00
        E 120 90 57 60
        E 0 90 63 60
        E 120 80 57 00
        E 0 80 63 00
        E 240 90 4b 60
        E 0 90 58 60
        E 0 90 64 60
        E 120 80 35 00
        E 0 80 4b 00
        E 0 80 58 00
        E 0 80 64 00
        E 240 90 31 60
        E 0 90 3e 60
        E 0 90 4b 60
        E 0 90 58 60
        E 0 90 63 60
        E 120 80 3e 00
        E 0 80 4b 00
        E 0 80 58 00
        E 0 80 63 00
        E 0 90 64 60
        E 120 80 31 00
        E 0 80 64 00
        E 120 90 2d 60
        E 0 90 64 60
        E 120 80 64 00
        E 0 90 4a 60
        E 0 90 57 60
        E 0 90 63 60
        E 120 80 4a 00
        E 0 80 57 00
        E 0 80 63 00
        E 0 90 61 60
        E 120 80 61 00
        E 0 90 56 60
        E 0 90 62 60
        E 120 80 2d 00
        E 0 80 56 00
        E 0 80 62 00
        E 120 90 31 60
        E 0 90 3e 60
        E 0 90 4b 60
        E 0 90 58 60
        E 0 90 64 60
        E 120 80 3e 00
        E 0 80 4b 00
        E 0 80 58 00
        E 0 80 64 00
        E 120 90 57 60
        E 0 90 63 60
        E 120 80 57 00
        E 0 80 63 00
        E 240 90 49 60
        E 0 90 56 60
        E 0 90 62 60
        E 120 80 31 00
        E 0 80 49 00
        E 0 80 56 00
        E 0 80 62 00
        E 120 90 32 60
        E 0 90 55 60
        E 0 90 60 60
        E 120 80 55 00
        E 0 80 60 00
        E 0 90 61 60
        E 120 80 61 00
        E 240 90 3c 60
        E 0 90 49 60
        E 0 90 56 60
        E 0 90 62 60
        E 120 80 32 00
        E 0 80 3c 00
        E 0 80 49 00
        E 0 80 56 00
        E 0 80 62 00
        E 240 90 35 60
        E 0 90 57 60
        E 0 90 63 60
        E 120 80 57 00
        E 0 80 63 00
        E 120 90 3c 60
        E 0 90 49 60
        E 0 90 56 60
        E 0 90 62 60
        E 120 80 3c 00
        E 0 80 49 00
        E 0 80 56 00
        E 0 80 62 00
        E 120 90 57 60
        E 0 90 63 60
        E 120 80 57 00
        E 0 80 63 00
        E 240 90 4b 60
        E 0 90 58 60
        E 0 90 64 60
        E 120 80 35 00
        E 0 80 4b 00
        E 0 80 58 00
        E 0 80 64 00
        E 240 90 31 60
        E 0 90 3e 60
        E 0 90 4b 60
        E 0 90 58 60
        E 0 90 63 60
        E 120 80 3e 00
        E 0 80 4b 00
        E 0 80 58 00
        E 0 80 63 00
        E 0 90 64 60
        E 120 80 64 00
        E 120 90 64 60
        E 120 80 64 00
        E 0 90 4a 60
        E 0 90 57 60
        E 0 90 63 60
        E 120 80 4a 00
        E 0 80 57 00
        E 0 80 63 00
        E 0 90 62 60
        E 120 80 62 00
        E 0 90 55 60
        E 0 90 61 60
        E 120 80 55 00
        E 0 80 61 00
        E 120 90 3e 60
        E 0 90 4b 60
        E 0 90 58 60
        E 0 90 64 60
        E 120 80 3e 00
        E 0 80 4b 00
        E 0 80 58 00
        E 0 80 64 00
        E 120 90 57 60
        E 0 90 63 60
        E 120 80 31 00
        E 0 80 57 00
        E 0 80 63 00
        E 240 90 49 60
        E 0 90 56 60
        E 0 90 62 60
        E 120 80 49 00
        E 0 80 56 00
        E 0 80 62 00
        E 120 90 32 60
        E 0 90 55 60
        E 0 90 60 60
        E 120 80 55 00
        E 0 80 60 00
        E 0 90 61 60
        E 120 80 61 00
        E 240 90 3c 60
        E 0 90 49 60
        E 0 90 56 60
        E 0 90 62 60
        E 120 80 32 00
        E 0 80 3c 00
        E 0 80 49 00
        E 0 80 56 00
        E 0 80 62 00
        E 240 90 35 60
        E 0 90 57 60
        E 0 90 63 60
        E 120 80 57 00
        E 0 80 63 00
        E 120 90 3c 60
        E 0 90 49 60
        E 0 90 56 60
        E 0 90 62 60
        E 120 80 3c 00
        E 0 80 49 00
        E 0 80 56 00
        E 0 80 62 00
        E 120 90 57 60
        E 0 90 63 60
        E 120 80 57 00
        E 0 80 63 00
        E 240 90 4b 60
        E 0 90 58 60
        E 0 90 64 60
        E 120 80 35 00
        E 0 80 4b 00
        E 0 80 58 00
        E 0 80 64 00
        E 240 90 31 60
        E 0 90 3e 60
        E 0 90 4b 60
        E 0 90 58 60
        E 0 90 63 60
        E 120 80 3e 00
        E 0 80 4b 00
        E 0 80 58 00
        E 0 80 63 00
        E 0 90 64 60
        E 120 80 31 00
        E 0 80 64 00
        E 120 90 2d 60
        E 0 90 64 60
        E 120 80 64 00
        E 0 90 4a 60
        E 0 90 57 60
        E 0 90 63 60
        E 120 80 4a 00
        E 0 80 57 00
        E 0 80 63 00
        E 0 90 61 60
        E 120 80 61 00
        E 0 90 56 60
        E 0 90 62 60
        E 120 80 2d 00
        E 0 80 56 00
        E 0 80 62 00
        E 120 90 31 60
        E 0 90 3e 60
        E 0 90 4b 60
        E 0 90 58 60
        E 0 90 64 60
        E 120 80 3e 00
        E 0 80 4b 00
        E 0 80 58 00
        E 0 80 64 00
        E 120 90 57 60
        E 0 90 63 60
        E 120 80 57 00
        E 0 80 63 00
        E 120 90 49 60
        E 0 90 56 60
        E 0 90 62 60
        E 120 80 31 00
        E 0 80 49 00
        E 0 80 56 00
        E 0 80 62 00
        E 240 90 32 60
        E 0 90 55 60
        E 0 90 60 60
        E 120 80 55 00
        E 0 80 60 00
        E 0 90 61 60
        E 120 80 61 00
        E 240 90 3c 60
        E 0 90 49 60
        E 0 90 56 60
        E 0 90 62 60
        E 120 80 32 00
        E 0 80 3c 00
        E 0 80 49 00
        E 0 80 56 00
        E 0 80 62 00
        E 240 90 35 60
        E 0 90 57 60
        E 0 90 63 60
        E 120 80 57 00
        E 0 80 63 00
        E 120 90 3c 60
        E 0 90 49 60
        E 0 90 56 60
        E 0 90 62 60
        E 120 80 3c 00
        E 0 80 49 00
        E 0 80 56 00
        E 0 80 62 00
        E 120 90 57 60
        E 0 90 63 60
        E 120 80 35 00
        E 0 80 57 00
        E 0 80 63 00
        E 240 90 34 60
        E 0 90 60 60
        E 120 80 60 00
        E 0 90 55 60
        E 0 90 61 60
        E 120 80 55 00
        E 0 80 61 00
        E 0 90 62 60
        E 120 80 62 00
        E 0 90 3d 60
        E 0 90 4a 60
        E 0 90 57 60
        E 0 90 63 60
        E 120 80 3d 00
        E 0 80 4a 00
        E 0 80 57 00
        E 0 80 63 00
        E 0 90 64 60
        E 120 80 64 00
        E 0 90 54 60
        E 0 90 60 60
        E 120 80 34 00
        E 0 80 54 00
        E 0 80 60 00
        <X 119 0
          /wFbaWRsZV9yZWFsdGltZV0=
        >
        E 1 b0 7b 00
        GUID {1DE160CB-3C21-462B-AC40-12ADCE6B8052}
        IGNTEMPO 0 120.00000000 4 4
        SRCCOLOR 53
        VELLANE 132 71 60
        COLORMAP "C:\Program Files (x86)\REAPER\Data\color_maps\rockband_guitarbass.png"
        CFGEDITVIEW -3864.000000 19.954828 0 14 0 0 0
        CFGEDIT 1 1 0 1 1 0 1 1 1 1 1 0.25000000 -8 -8 1928 1088 0 2 1 2 0.00000000 0 1 0 0 0.500000 0 0 1.000000 64
        KEYSNAP 0 0 "102034050607" 0 "Major"
        EVTFILTER 0 -1 -1 -1 -1 0 1 0 0 -1.00000000 -1.00000000
      >
    >
  >
  <TRACK '{8D2F02CA-C9EF-4AF5-B95D-3A8C37BBD5E3}'
    NAME "bass"
    PEAKCOL 16576
    BEAT -1
    AUTOMODE 0
    VOLPAN 1.00000000000000 0.00000000000000 -1.00000000000000 -1.00000000000000 1.00000000000000
    MUTESOLO 0 0 0
    IPHASE 0
    ISBUS 2 -1
    BUSCOMP 0 0
    SHOWINMIX 1 0.666700 0.500000 1 0.500000 -1 -1 -1
    FREEMODE 0
    SEL 0
    REC 0 0 0 0 0 0 0
    VU 2
    TRACKHEIGHT 0 0
    INQ 0 0 0 0.5000000000 100 0 0 100
    NCHAN 2
    FX 1
    TRACKID {8D2F02CA-C9EF-4AF5-B95D-3A8C37BBD5E3}
    PERF 0
    MIDIOUT -1
    MAINSEND 1 0
    <ITEM
      POSITION 0.00000000000000
      SNAPOFFS 0.00000000000000
      LENGTH 83.00000000000000
      LOOP 0
      ALLTAKES 0
      SEL 0
      FADEIN 1 0.000000 0.000000 1 0
      FADEOUT 1 0.000000 0.000000 1 0
      MUTE 0
      IGUID {443C2E95-4C98-4D00-8C3F-A680E7D44E34}
      IID 18
      NAME "bass.wav"
      VOLPAN 1.000000 0.000000 1.000000 -1.000000
      SOFFS 0.00000000000000
      PLAYRATE 1.00000000000000 1 0.00000000000000 -1
      CHANMODE 0
      GUID {4EF9985D-7204-408A-9641-16A1F8D566B4}
      <SOURCE WAVE
        FILE "wav\bass.wav"
      >
    >
  >
  <TRACK '{FAB1F812-D8FE-4062-BF1A-A90F30CC5E42}'
    NAME "PART GUITAR"
    PEAKCOL 16576
    BEAT -1
    AUTOMODE 0
    VOLPAN 1.00000000000000 0.00000000000000 -1.00000000000000 -1.00000000000000 1.00000000000000
    MUTESOLO 0 0 0
    IPHASE 0
    ISBUS 1 1
    BUSCOMP 0 0
    SHOWINMIX 1 0.666700 0.500000 1 0.500000 -1 -1 -1
    FREEMODE 0
    SEL 0
    REC 0 0 0 0 0 0 0
    VU 2
    TRACKHEIGHT 0 0
    INQ 0 0 0 0.5000000000 100 0 0 100
    NCHAN 2
    FX 1
    TRACKID {FAB1F812-D8FE-4062-BF1A-A90F30CC5E42}
    PERF 0
    MIDIOUT -1
    MAINSEND 1 0
    <FXCHAIN
      WNDRECT 0 43 857 559
      SHOW 0
      LASTSEL 0
      DOCKED 0
      BYPASS 0 0
      <VST "VSTi: RBN Preview (RBN)" "rbprev_vst64.dll" 0 ""
        dnBicu5e7f4AAAAAAgAAAAEAAAAAAAAAAgAAAAAAAAAEAAAAAQAAAA==
        AAAQAAMAqgAAABAAAAA=
      >
      FLOATPOS 0 0 0 0
      FXID {42D27559-0ECA-43C8-A0A2-59C5EF3F60EC}
      WAK 0
    >
    <ITEM
      POSITION 0.00000000000000
      SNAPOFFS 0.00000000000000
      LENGTH 80.50000000000000
      LOOP 0
      ALLTAKES 0
      SEL 0
      FADEIN 1 0.000000 0.000000 1 0
      FADEOUT 1 0.000000 0.000000 1 0
      MUTE 0
      IGUID {D44FCCAB-D7AF-49F9-BEB1-3325F7E17714}
      IID 4
      NAME "PART GUITAR"
      VOLPAN 1.000000 0.000000 1.000000 -1.000000
      SOFFS 0.00000000000000 0.00000000000000
      PLAYRATE 1.00000000000000 1 0.00000000000000 -1
      CHANMODE 0
      GUID {44FA5587-5B97-43D6-8AD3-4DE98FD29E4D}
      <SOURCE MIDI
        HASDATA 1 480 QN
        POOLEDEVTS {D4964AEF-0E61-4D00-A210-AB7050245F3D}
        <X 0 0
          /wNQQVJUIEdVSVRBUg==
        >
        E 3840 90 74 60
        <X 960 0
          /wFbcGxheV0=
        >
        E 0 90 2b 60
        E 0 90 3d 60
        E 0 90 4a 60
        E 0 90 56 60
        E 0 90 62 60
        E 120 80 74 00
        E 0 80 3d 00
        E 0 80 4a 00
        E 0 80 56 00
        E 120 80 62 00
        E 120 90 58 60
        E 0 90 64 60
        E 120 80 58 00
        E 0 80 64 00
        E 240 90 55 60
        E 0 90 61 60
        E 120 80 55 00
        E 0 80 61 00
        E 120 90 3d 60
        E 0 90 4a 60
        E 0 90 56 60
        E 0 90 62 60
        E 120 80 3d 00
        E 0 80 4a 00
        E 0 80 56 00
        E 120 80 62 00
        E 120 90 57 60
        E 0 90 63 60
        E 120 80 57 00
        E 0 80 63 00
        E 120 90 62 60
        E 120 80 62 00
        E 0 90 4b 60
        E 0 90 57 60
        E 0 90 63 60
        E 120 80 4b 00
        E 0 80 57 00
        E 0 80 63 00
        E 0 90 64 60
        E 0 90 65 60
        E 120 80 64 00
        E 0 90 3e 60
        E 0 90 4b 60
        E 0 90 57 60
        E 0 90 63 60
        E 120 80 65 00
        E 360 80 3e 00
        E 0 80 4b 00
        E 120 80 57 00
        E 0 80 63 00
        E 120 90 56 60
        E 0 90 62 60
        E 120 80 56 00
        E 0 80 62 00
        E 0 90 63 60
        E 120 80 63 00
        E 0 90 3c 60
        E 0 90 48 60
        E 0 90 54 60
        E 0 90 60 60
        E 120 80 3c 00
        E 0 80 48 00
        E 0 80 54 00
        E 120 80 60 00
        E 120 90 55 60
        E 0 90 61 60
        E 120 80 55 00
        E 0 80 61 00
        E 240 90 4a 60
        E 0 90 56 60
        E 0 90 62 60
        E 120 80 4a 00
        E 360 80 56 00
        E 0 80 62 00
        E 120 90 4b 60
        E 0 90 58 60
        E 0 90 64 60
        E 120 80 4b 00
        E 0 80 58 00
        E 0 80 64 00
        E 240 90 55 60
        E 0 90 61 60
        E 120 80 55 00
        E 0 80 61 00
        E 120 90 3d 60
        E 0 90 4a 60
        E 0 90 56 60
        E 0 90 62 60
        E 120 80 3d 00
        E 0 80 4a 00
        E 0 80 56 00
        E 120 80 62 00
        E 120 90 57 60
        E 0 90 63 60
        E 120 80 57 00
        E 0 80 63 00
        E 120 90 62 60
        E 120 80 62 00
        E 0 90 4b 60
        E 0 90 57 60
        E 0 90 63 60
        E 120 80 4b 00
        E 0 80 57 00
        E 0 80 63 00
        E 0 90 64 60
        E 0 90 65 60
        E 120 80 64 00
        E 0 90 3e 60
        E 0 90 4b 60
        E 0 90 57 60
        E 0 90 63 60
        E 120 80 65 00
        E 360 80 3e 00
        E 0 80 4b 00
        E 120 80 57 00
        E 0 80 63 00
        E 120 90 56 60
        E 0 90 62 60
        E 120 80 56 00
        E 0 80 62 00
        E 0 90 63 60
        E 120 80 63 00
        E 0 90 3c 60
        E 0 90 48 60
        E 0 90 54 60
        E 0 90 60 60
        E 120 80 3c 00
        E 0 80 48 00
        E 0 80 54 00
        E 120 80 60 00
        E 120 90 55 60
        E 0 90 61 60
        E 120 80 55 00
        E 0 80 61 00
        E 240 90 4a 60
        E 0 90 56 60
        E 0 90 62 60
        E 120 80 2b 00
        E 0 80 4a 00
        E 0 80 56 00
        E 0 80 62 00
        E 360 90 2f 60
        E 0 90 4a 60
        E 0 90 4b 60
        E 0 90 56 60
        E 0 90 57 60
        E 0 90 62 60
        E 0 90 63 60
        E 120 80 4a 00
        E 0 80 4b 00
        E 0 80 56 00
        E 0 80 57 00
        E 0 80 62 00
        E 0 80 63 00
        E 0 90 63 60
        E 0 90 64 60
        E 0 90 65 60
        E 120 80 63 00
        E 0 80 64 00
        E 0 90 4a 60
        E 0 90 4b 60
        E 0 90 56 60
        E 0 90 57 60
        E 0 90 62 60
        E 0 90 63 60
        E 120 80 65 00
        E 0 80 4a 00
        E 0 80 4b 00
        E 0 80 56 00
        E 0 80 57 00
        E 0 80 62 00
        E 0 80 63 00
        E 0 90 63 60
        E 120 80 63 00
        E 0 90 58 60
        E 0 90 64 60
        E 120 80 58 00
        E 0 80 64 00
        E 0 90 63 60
        E 120 80 63 00
        E 0 90 3c 60
        E 0 90 49 60
        E 0 90 55 60
        E 0 90 61 60
        E 120 80 3c 00
        E 0 80 49 00
        E 0 80 55 00
        E 0 80 61 00
        E 0 90 60 60
        E 120 80 60 00
        E 0 90 56 60
        E 0 90 62 60
        E 120 80 56 00
        E 0 80 62 00
        E 0 90 61 60
        E 120 80 61 00
        E 120 90 49 60
        E 0 90 55 60
        E 0 90 60 60
        E 120 80 60 00
        E 0 90 61 60
        E 240 80 49 00
        E 120 80 2f 00
        E 0 80 55 00
        E 0 80 61 00
        E 120 90 28 60
        E 0 90 54 60
        E 0 90 60 60
        E 0 90 74 60
        E 120 80 28 00
        E 0 80 54 00
        E 0 80 60 00
        E 0 90 2b 60
        E 0 90 61 60
        E 120 80 2b 00
        E 0 80 61 00
        E 0 90 2f 60
        E 0 90 3d 60
        E 0 90 4a 60
        E 0 90 56 60
        E 0 90 62 60
        E 120 80 3d 00
        E 0 80 4a 00
        E 0 80 56 00
        E 0 80 62 00
        E 0 90 63 60
        E 120 80 63 00
        E 120 90 56 60
        E 0 90 62 60
        E 120 80 56 00
        E 0 80 62 00
        E 120 90 4a 60
        E 0 90 4b 60
        E 0 90 56 60
        E 0 90 57 60
        E 0 90 62 60
        E 0 90 63 60
        E 120 80 4a 00
        E 0 80 4b 00
        E 0 80 56 00
        E 0 80 57 00
        E 0 80 62 00
        E 0 80 63 00
        E 120 90 58 60
        E 0 90 62 60
        E 120 80 58 00
        E 0 80 62 00
        E 0 90 64 60
        E 120 80 64 00
        E 120 90 3e 60
        E 0 90 4b 60
        E 0 90 57 60
        E 0 90 62 60
        E 120 80 3e 00
        E 0 80 4b 00
        E 0 80 62 00
        E 0 90 63 60
        E 240 80 74 00
        E 0 80 57 00
        E 0 80 63 00
        E 120 90 4a 60
        E 0 90 4b 60
        E 0 90 56 60
        E 0 90 57 60
        E 0 90 62 60
        E 0 90 63 60
        E 120 80 4a 00
        E 0 80 4b 00
        E 0 80 56 00
        E 0 80 57 00
        E 0 80 62 00
        E 0 80 63 00
        E 0 90 63 60
        E 0 90 64 60
        E 0 90 65 60
        E 120 80 63 00
        E 0 80 64 00
        E 0 90 4a 60
        E 0 90 4b 60
        E 0 90 56 60
        E 0 90 57 60
        E 0 90 62 60
        E 0 90 63 60
        E 120 80 65 00
        E 0 80 4a 00
        E 0 80 4b 00
        E 0 80 56 00
        E 0 80 57 00
        E 0 80 62 00
        E 0 80 63 00
        E 0 90 63 60
        E 120 80 63 00
        E 0 90 58 60
        E 0 90 64 60
        E 120 80 58 00
        E 0 80 64 00
        E 0 90 63 60
        E 120 80 63 00
        E 0 90 3c 60
        E 0 90 49 60
        E 0 90 55 60
        E 0 90 61 60
        E 120 80 3c 00
        E 0 80 49 00
        E 0 80 55 00
        E 0 80 61 00
        E 0 90 60 60
        E 120 80 60 00
        E 0 90 56 60
        E 0 90 62 60
        E 120 80 56 00
        E 0 80 62 00
        E 0 90 61 60
        E 120 80 61 00
        E 120 90 49 60
        E 0 90 55 60
        E 0 90 60 60
        E 120 80 60 00
        E 0 90 61 60
        E 240 80 49 00
        E 120 80 2f 00
        E 0 80 55 00
        E 0 80 61 00
        E 120 90 28 60
        E 0 90 54 60
        E 0 90 60 60
        E 120 80 28 00
        E 0 80 54 00
        E 0 80 60 00
        E 0 90 2b 60
        E 0 90 61 60
        E 120 80 2b 00
        E 0 80 61 00
        E 0 90 2f 60
        E 0 90 3d 60
        E 0 90 4a 60
        E 0 90 56 60
        E 0 90 62 60
        E 120 80 3d 00
        E 0 80 4a 00
        E 0 80 56 00
        E 0 80 62 00
        E 0 90 63 60
        E 120 80 63 00
        E 120 90 56 60
        E 0 90 62 60
        E 120 80 56 00
        E 0 80 62 00
        E 120 90 4a 60
        E 0 90 4b 60
        E 0 90 56 60
        E 0 90 57 60
        E 0 90 62 60
        E 0 90 63 60
        E 120 80 4a 00
        E 0 80 4b 00
        E 0 80 56 00
        E 0 80 57 00
        E 0 80 62 00
        E 0 80 63 00
        E 120 90 58 60
        E 0 90 62 60
        E 120 80 58 00
        E 0 80 62 00
        E 0 90 64 60
        E 120 80 64 00
        E 120 90 3e 60
        E 0 90 4b 60
        E 0 90 57 60
        E 0 90 62 60
        E 120 80 3e 00
        E 0 80 4b 00
        E 0 80 62 00
        E 0 90 63 60
        E 240 80 57 00
        E 0 80 63 00
        E 120 90 4a 60
        E 0 90 4b 60
        E 0 90 56 60
        E 0 90 57 60
        E 0 90 62 60
        E 0 90 63 60
        E 120 80 4a 00
        E 0 80 4b 00
        E 0 80 56 00
        E 0 80 57 00
        E 0 80 62 00
        E 0 80 63 00
        E 0 90 63 60
        E 0 90 64 60
        E 0 90 65 60
        E 120 80 63 00
        E 0 80 64 00
        E 0 90 4a 60
        E 0 90 4b 60
        E 0 90 56 60
        E 0 90 57 60
        E 0 90 62 60
        E 0 90 63 60
        E 120 80 65 00
        E 0 80 4a 00
        E 0 80 4b 00
        E 0 80 56 00
        E 0 80 57 00
        E 0 80 62 00
        E 0 80 63 00
        E 0 90 63 60
        E 120 80 63 00
        E 0 90 58 60
        E 0 90 64 60
        E 120 80 58 00
        E 0 80 64 00
        E 0 90 63 60
        E 120 80 63 00
        E 0 90 3c 60
        E 0 90 49 60
        E 0 90 55 60
        E 0 90 61 60
        E 120 80 3c 00
        E 0 80 49 00
        E 0 80 55 00
        E 0 80 61 00
        E 0 90 60 60
        E 120 80 60 00
        E 0 90 56 60
        E 0 90 62 60
        E 120 80 56 00
        E 0 80 62 00
        E 0 90 61 60
        E 120 80 61 00
        E 120 90 49 60
        E 0 90 55 60
        E 0 90 60 60
        E 120 80 60 00
        E 0 90 61 60
        E 240 80 49 00
        E 120 80 2f 00
        E 0 80 55 00
        E 0 80 61 00
        E 120 90 28 60
        E 0 90 54 60
        E 0 90 60 60
        E 120 80 28 00
        E 0 80 54 00
        E 0 80 60 00
        E 0 90 2b 60
        E 0 90 61 60
        E 120 80 2b 00
        E 0 80 61 00
        E 0 90 2f 60
        E 0 90 3d 60
        E 0 90 4a 60
        E 0 90 56 60
        E 0 90 62 60
        E 120 80 3d 00
        E 0 80 4a 00
        E 0 80 56 00
        E 0 80 62 00
        E 0 90 63 60
        E 120 80 63 00
        E 120 90 56 60
        E 0 90 62 60
        E 120 80 56 00
        E 0 80 62 00
        E 120 90 4a 60
        E 0 90 4b 60
        E 0 90 56 60
        E 0 90 57 60
        E 0 90 62 60
        E 0 90 63 60
        E 120 80 4a 00
        E 0 80 4b 00
        E 0 80 56 00
        E 0 80 57 00
        E 0 80 62 00
        E 0 80 63 00
        E 120 90 58 60
        E 0 90 62 60
        E 120 80 58 00
        E 0 80 62 00
        E 0 90 64 60
        E 120 80 64 00
        E 120 90 3e 60
        E 0 90 4b 60
        E 0 90 57 60
        E 0 90 62 60
        E 120 80 3e 00
        E 0 80 4b 00
        E 0 80 62 00
        E 0 90 63 60
        E 120 90 74 60
        E 120 80 57 00
        E 0 80 63 00
        E 120 90 4a 60
        E 0 90 4b 60
        E 0 90 56 60
        E 0 90 57 60
        E 0 90 62 60
        E 0 90 63 60
        E 120 80 4a 00
        E 0 80 4b 00
        E 0 80 56 00
        E 0 80 57 00
        E 0 80 62 00
        E 0 80 63 00
        E 0 90 63 60
        E 0 90 64 60
        E 0 90 65 60
        E 120 80 63 00
        E 0 80 64 00
        E 0 90 4a 60
        E 0 90 4b 60
        E 0 90 56 60
        E 0 90 57 60
        E 0 90 62 60
        E 0 90 63 60
        E 120 80 65 00
        E 0 80 4a 00
        E 0 80 4b 00
        E 0 80 56 00
        E 0 80 57 00
        E 0 80 62 00
        E 0 80 63 00
        E 0 90 63 60
        E 120 80 63 00
        E 0 90 58 60
        E 0 90 64 60
        E 120 80 58 00
        E 0 80 64 00
        E 0 90 63 60
        E 120 80 63 00
        E 0 90 3c 60
        E 0 90 49 60
        E 0 90 55 60
        E 0 90 61 60
        E 120 80 3c 00
        E 0 80 49 00
        E 0 80 55 00
        E 0 80 61 00
        E 0 90 60 60
        E 120 80 60 00
        E 0 90 56 60
        E 0 90 62 60
        E 120 80 56 00
        E 0 80 62 00
        E 0 90 61 60
        E 120 80 61 00
        E 120 90 49 60
        E 0 90 55 60
        E 0 90 60 60
        E 120 80 60 00
        E 0 90 61 60
        E 240 80 49 00
        E 120 80 2f 00
        E 0 80 55 00
        E 0 80 61 00
        E 120 90 28 60
        E 0 90 54 60
        E 0 90 60 60
        E 120 80 28 00
        E 0 80 54 00
        E 0 80 60 00
        E 0 90 2b 60
        E 0 90 61 60
        E 120 80 2b 00
        E 0 80 61 00
        E 0 90 2f 60
        E 0 90 3d 60
        E 0 90 4a 60
        E 0 90 56 60
        E 0 90 62 60
        E 120 80 3d 00
        E 0 80 4a 00
        E 0 80 56 00
        E 0 80 62 00
        E 0 90 63 60
        E 120 80 63 00
        E 120 90 56 60
        E 0 90 62 60
        E 120 80 56 00
        E 0 80 62 00
        E 120 90 4a 60
        E 0 90 4b 60
        E 0 90 56 60
        E 0 90 57 60
        E 0 90 62 60
        E 0 90 63 60
        E 120 80 4a 00
        E 0 80 4b 00
        E 0 80 56 00
        E 0 80 57 00
        E 0 80 62 00
        E 0 80 63 00
        E 120 90 58 60
        E 0 90 62 60
        E 120 80 58 00
        E 0 80 62 00
        E 0 90 64 60
        E 120 80 64 00
        E 120 90 56 60
        E 0 90 62 60
        E 120 80 56 00
        E 0 80 62 00
        E 0 90 63 60
        E 60 80 63 00
        <X 60 0
          /wFbbWVsbG93XQ==
        >
        E 0 80 74 00
        E 0 90 40 60
        E 0 90 4a 60
        E 0 90 4c 60
        E 0 90 55 60
        E 0 90 58 60
        E 0 90 61 60
        E 0 90 62 60
        E 0 90 64 60
        E 1200 80 40 00
        E 0 80 4a 00
        E 0 80 4c 00
        E 360 80 55 00
        E 0 80 58 00
        E 0 80 61 00
        E 0 80 62 00
        E 0 80 64 00
        E 120 90 3e 60
        E 0 90 4a 60
        E 0 90 4b 60
        E 0 90 56 60
        E 0 90 58 60
        E 0 90 61 60
        E 0 90 63 60
        E 0 90 64 60
        E 1680 80 3e 00
        E 0 80 4a 00
        E 0 80 4b 00
        E 360 80 56 00
        E 0 80 58 00
        E 0 80 61 00
        E 0 80 63 00
        E 0 80 64 00
        E 120 90 40 60
        E 0 90 4a 60
        E 0 90 4c 60
        E 0 90 55 60
        E 0 90 58 60
        E 0 90 61 60
        E 0 90 62 60
        E 0 90 64 60
        E 1200 80 40 00
        E 0 80 4a 00
        E 0 80 4c 00
        E 360 80 55 00
        E 0 80 58 00
        E 0 80 61 00
        E 0 80 62 00
        E 0 80 64 00
        E 120 90 3e 60
        E 0 90 4a 60
        E 0 90 4b 60
        E 0 90 56 60
        E 0 90 58 60
        E 0 90 61 60
        E 0 90 63 60
        E 0 90 64 60
        E 1680 80 3e 00
        E 0 80 4a 00
        E 0 80 4b 00
        E 360 80 56 00
        E 0 80 58 00
        E 0 80 61 00
        E 0 80 63 00
        E 0 80 64 00
        <X 120 0
          /wFbcGxheV0=
        >
        E 0 90 3e 60
        E 0 90 4b 60
        E 0 90 57 60
        E 0 90 63 60
        E 120 80 3e 00
        E 0 80 4b 00
        E 0 80 57 00
        E 0 80 63 00
        E 120 90 56 60
        E 0 90 57 60
        E 0 90 62 60
        E 0 90 63 60
        E 120 80 56 00
        E 0 80 57 00
        E 0 80 62 00
        E 0 80 63 00
        E 0 90 63 60
        E 0 90 64 60
        E 0 90 65 60
        E 120 80 63 00
        E 0 80 64 00
        E 0 90 4a 60
        E 0 90 4b 60
        E 0 90 56 60
        E 0 90 57 60
        E 0 90 62 60
        E 0 90 63 60
        E 120 80 65 00
        E 0 80 4a 00
        E 0 80 4b 00
        E 0 80 56 00
        E 0 80 57 00
        E 0 80 62 00
        E 0 80 63 00
        E 0 90 63 60
        E 120 80 63 00
        E 0 90 58 60
        E 0 90 64 60
        E 120 80 58 00
        E 0 80 64 00
        E 0 90 63 60
        E 120 80 63 00
        E 0 90 3c 60
        E 0 90 49 60
        E 0 90 55 60
        E 0 90 61 60
        E 120 80 3c 00
        E 0 80 49 00
        E 0 80 55 00
        E 0 80 61 00
        E 0 90 60 60
        E 120 80 60 00
        E 0 90 56 60
        E 0 90 62 60
        E 120 80 56 00
        E 0 80 62 00
        E 0 90 61 60
        E 120 80 61 00
        E 120 90 49 60
        E 0 90 55 60
        E 0 90 60 60
        E 120 80 60 00
        E 0 90 61 60
        E 240 80 49 00
        E 120 80 2f 00
        E 0 80 55 00
        E 0 80 61 00
        E 120 90 28 60
        E 0 90 54 60
        E 0 90 60 60
        E 120 80 28 00
        E 0 80 54 00
        E 0 80 60 00
        E 0 90 2b 60
        E 0 90 61 60
        E 120 80 2b 00
        E 0 80 61 00
        E 0 90 2f 60
        E 0 90 3d 60
        E 0 90 4a 60
        E 0 90 56 60
        E 0 90 62 60
        E 120 80 3d 00
        E 0 80 4a 00
        E 0 80 56 00
        E 0 80 62 00
        E 0 90 63 60
        E 120 80 63 00
        E 120 90 56 60
        E 0 90 62 60
        E 120 80 56 00
        E 0 80 62 00
        E 120 90 4a 60
        E 0 90 4b 60
        E 0 90 56 60
        E 0 90 57 60
        E 0 90 62 60
        E 0 90 63 60
        E 120 80 4a 00
        E 0 80 4b 00
        E 0 80 56 00
        E 0 80 57 00
        E 0 80 62 00
        E 0 80 63 00
        E 120 90 58 60
        E 0 90 62 60
        E 120 80 58 00
        E 0 80 62 00
        E 0 90 64 60
        E 120 80 64 00
        E 120 90 3e 60
        E 0 90 4b 60
        E 0 90 57 60
        E 0 90 62 60
        E 120 80 3e 00
        E 0 80 4b 00
        E 0 80 62 00
        E 0 90 63 60
        E 240 80 57 00
        E 0 80 63 00
        E 120 90 4a 60
        E 0 90 4b 60
        E 0 90 56 60
        E 0 90 57 60
        E 0 90 62 60
        E 0 90 63 60
        E 0 90 74 60
        E 120 80 4a 00
        E 0 80 4b 00
        E 0 80 56 00
        E 0 80 57 00
        E 0 80 62 00
        E 0 80 63 00
        E 0 90 63 60
        E 0 90 64 60
        E 0 90 65 60
        E 120 80 63 00
        E 0 80 64 00
        E 0 90 4a 60
        E 0 90 4b 60
        E 0 90 56 60
        E 0 90 57 60
        E 0 90 62 60
        E 0 90 63 60
        E 120 80 65 00
        E 0 80 4a 00
        E 0 80 4b 00
        E 0 80 56 00
        E 0 80 57 00
        E 0 80 62 00
        E 0 80 63 00
        E 0 90 63 60
        E 120 80 63 00
        E 0 90 58 60
        E 0 90 64 60
        E 120 80 58 00
        E 0 80 64 00
        E 0 90 63 60
        E 120 80 63 00
        E 0 90 3c 60
        E 0 90 49 60
        E 0 90 55 60
        E 0 90 61 60
        E 120 80 3c 00
        E 0 80 49 00
        E 0 80 55 00
        E 0 80 61 00
        E 0 90 60 60
        E 120 80 60 00
        E 0 90 56 60
        E 0 90 62 60
        E 120 80 56 00
        E 0 80 62 00
        E 0 90 61 60
        E 120 80 61 00
        E 120 90 49 60
        E 0 90 55 60
        E 0 90 60 60
        E 120 80 60 00
        E 0 90 61 60
        E 240 80 74 00
        E 0 80 49 00
        E 120 80 2f 00
        E 0 80 55 00
        E 0 80 61 00
        E 120 90 28 60
        E 0 90 54 60
        E 0 90 60 60
        E 120 80 28 00
        E 0 80 54 00
        E 0 80 60 00
        E 0 90 2b 60
        E 0 90 61 60
        E 120 80 2b 00
        E 0 80 61 00
        E 0 90 2f 60
        E 0 90 3d 60
        E 0 90 4a 60
        E 0 90 56 60
        E 0 90 62 60
        E 120 80 3d 00
        E 0 80 4a 00
        E 0 80 56 00
        E 0 80 62 00
        E 0 90 63 60
        E 120 80 63 00
        E 120 90 56 60
        E 0 90 62 60
        E 120 80 56 00
        E 0 80 62 00
        E 120 90 4a 60
        E 0 90 4b 60
        E 0 90 56 60
        E 0 90 57 60
        E 0 90 62 60
        E 0 90 63 60
        E 120 80 4a 00
        E 0 80 4b 00
        E 0 80 56 00
        E 0 80 57 00
        E 0 80 62 00
        E 0 80 63 00
        E 120 90 58 60
        E 0 90 62 60
        E 120 80 58 00
        E 0 80 62 00
        E 0 90 64 60
        E 120 80 64 00
        E 120 90 3e 60
        E 0 90 4b 60
        E 0 90 57 60
        E 0 90 62 60
        E 120 80 62 00
        E 0 90 63 60
        <X 3000 0
          /wFbaWRsZV0=
        >
        E 0 80 2f 00
        E 0 80 3e 00
        E 0 80 4b 00
        E 0 80 57 00
        E 0 80 63 00
        <X 960 0
          /wFbbWVsbG93XQ==
        >
        E 0 90 2b 60
        E 0 90 3d 60
        E 0 90 4a 60
        E 0 90 56 60
        E 0 90 62 60
        E 0 90 67 60
        E 120 80 3d 00
        E 0 80 4a 00
        E 0 80 56 00
        E 120 80 62 00
        E 120 90 58 60
        E 0 90 64 60
        E 120 80 58 00
        E 0 80 64 00
        E 240 90 55 60
        E 0 90 61 60
        E 120 80 55 00
        E 0 80 61 00
        E 120 90 3d 60
        E 0 90 4a 60
        E 0 90 56 60
        E 0 90 62 60
        E 120 80 3d 00
        E 0 80 4a 00
        E 0 80 56 00
        E 120 80 62 00
        E 120 90 57 60
        E 0 90 63 60
        E 120 80 57 00
        E 0 80 63 00
        E 120 90 62 60
        E 120 80 62 00
        E 0 90 4b 60
        E 0 90 57 60
        E 0 90 63 60
        E 120 80 4b 00
        E 0 80 57 00
        E 0 80 63 00
        E 0 90 64 60
        E 0 90 65 60
        E 120 80 64 00
        E 0 90 3e 60
        E 0 90 4b 60
        E 0 90 57 60
        E 0 90 63 60
        E 120 80 65 00
        E 360 80 3e 00
        E 0 80 4b 00
        E 120 80 57 00
        E 0 80 63 00
        E 120 90 56 60
        E 0 90 62 60
        E 120 80 56 00
        E 0 80 62 00
        E 0 90 63 60
        E 120 80 63 00
        E 0 90 3c 60
        E 0 90 48 60
        E 0 90 54 60
        E 0 90 60 60
        E 120 80 3c 00
        E 0 80 48 00
        E 0 80 54 00
        E 120 80 60 00
        E 120 90 55 60
        E 0 90 61 60
        E 120 80 55 00
        E 0 80 61 00
        E 240 90 4a 60
        E 0 90 56 60
        E 0 90 62 60
        E 120 80 4a 00
        E 360 80 56 00
        E 0 80 62 00
        E 120 90 4b 60
        E 0 90 58 60
        E 0 90 64 60
        E 120 80 4b 00
        E 0 80 58 00
        E 0 80 64 00
        E 240 90 55 60
        E 0 90 61 60
        E 120 80 55 00
        E 0 80 61 00
        E 120 90 3d 60
        E 0 90 4a 60
        E 0 90 56 60
        E 0 90 62 60
        E 120 80 3d 00
        E 0 80 4a 00
        E 0 80 56 00
        E 120 80 62 00
        E 120 90 57 60
        E 0 90 63 60
        E 120 80 57 00
        E 0 80 63 00
        E 120 90 62 60
        E 120 80 62 00
        E 0 90 4b 60
        E 0 90 57 60
        E 0 90 63 60
        E 120 80 4b 00
        E 0 80 57 00
        E 0 80 63 00
        E 0 90 64 60
        E 0 90 65 60
        E 120 80 64 00
        E 0 90 3e 60
        E 0 90 4b 60
        E 0 90 57 60
        E 0 90 63 60
        E 120 80 65 00
        E 360 80 3e 00
        E 0 80 4b 00
        E 120 80 57 00
        E 0 80 63 00
        E 120 90 56 60
        E 0 90 62 60
        E 120 80 56 00
        E 0 80 62 00
        E 0 90 63 60
        E 120 80 63 00
        E 0 90 3c 60
        E 0 90 48 60
        E 0 90 54 60
        E 0 90 60 60
        E 120 80 3c 00
        E 0 80 48 00
        E 0 80 54 00
        E 120 80 60 00
        E 120 90 55 60
        E 0 90 61 60
        E 120 80 55 00
        E 0 80 61 00
        E 240 90 4a 60
        E 0 90 56 60
        E 0 90 62 60
        E 120 80 4a 00
        E 360 80 56 00
        E 0 80 62 00
        E 120 90 4b 60
        E 0 90 58 60
        E 0 90 64 60
        E 0 90 74 60
        E 120 80 4b 00
        E 0 80 58 00
        E 0 80 64 00
        E 240 90 55 60
        E 0 90 61 60
        E 120 80 55 00
        E 0 80 61 00
        E 120 90 3d 60
        E 0 90 4a 60
        E 0 90 56 60
        E 0 90 62 60
        E 120 80 3d 00
        E 0 80 4a 00
        E 0 80 56 00
        E 120 80 62 00
        E 120 90 57 60
        E 0 90 63 60
        E 120 80 57 00
        E 0 80 63 00
        E 120 90 62 60
        E 120 80 62 00
        E 0 90 4b 60
        E 0 90 57 60
        E 0 90 63 60
        E 120 80 4b 00
        E 0 80 57 00
        E 0 80 63 00
        E 0 90 64 60
        E 0 90 65 60
        E 120 80 64 00
        E 0 90 3e 60
        E 0 90 4b 60
        E 0 90 57 60
        E 0 90 63 60
        E 120 80 65 00
        E 360 80 3e 00
        E 0 80 4b 00
        E 120 80 57 00
        E 0 80 63 00
        E 120 90 56 60
        E 0 90 62 60
        E 120 80 56 00
        E 0 80 62 00
        E 0 90 63 60
        E 120 80 63 00
        E 0 90 3c 60
        E 0 90 48 60
        E 0 90 54 60
        E 0 90 60 60
        E 120 80 3c 00
        E 0 80 48 00
        E 0 80 54 00
        E 120 80 60 00
        E 120 90 55 60
        E 0 90 61 60
        E 120 80 55 00
        E 0 80 61 00
        E 240 90 4a 60
        E 0 90 56 60
        E 0 90 62 60
        E 120 80 4a 00
        E 360 80 74 00
        E 0 80 56 00
        E 0 80 62 00
        E 120 90 4b 60
        E 0 90 58 60
        E 0 90 64 60
        E 120 80 4b 00
        E 0 80 58 00
        E 0 80 64 00
        E 240 90 55 60
        E 0 90 61 60
        E 120 80 55 00
        E 0 80 61 00
        E 120 90 3d 60
        E 0 90 4a 60
        E 0 90 56 60
        E 0 90 62 60
        E 120 80 3d 00
        E 0 80 4a 00
        E 0 80 56 00
        E 120 80 62 00
        E 120 90 57 60
        E 0 90 63 60
        E 120 80 57 00
        E 0 80 63 00
        E 120 90 62 60
        E 120 80 62 00
        E 0 90 4b 60
        E 0 90 57 60
        E 0 90 63 60
        E 120 80 4b 00
        E 0 80 57 00
        E 0 80 63 00
        E 0 90 64 60
        E 0 90 65 60
        E 120 80 64 00
        E 0 90 3e 60
        E 0 90 4b 60
        E 0 90 57 60
        E 0 90 63 60
        E 120 80 65 00
        E 360 80 3e 00
        E 0 80 4b 00
        E 120 80 57 00
        E 0 80 63 00
        E 120 90 56 60
        E 0 90 62 60
        E 120 80 56 00
        E 0 80 62 00
        E 0 90 63 60
        E 120 80 63 00
        E 0 90 3c 60
        E 0 90 48 60
        E 0 90 54 60
        E 0 90 60 60
        E 120 80 3c 00
        E 0 80 48 00
        E 0 80 54 00
        E 120 80 60 00
        E 120 90 55 60
        E 0 90 61 60
        E 120 80 55 00
        E 0 80 61 00
        E 240 90 56 60
        E 0 90 62 60
        E 120 80 2b 00
        E 0 80 56 00
        E 0 80 62 00
        <X 120 0
          /wFbaW50ZW5zZV0=
        >
        E 0 80 67 00
        E 0 90 32 60
        E 0 90 3e 60
        E 0 90 4b 60
        E 0 90 57 60
        E 0 90 63 60
        E 120 80 3e 00
        E 0 80 4b 00
        E 0 80 57 00
        E 0 80 63 00
        E 120 90 56 60
        E 0 90 57 60
        E 0 90 62 60
        E 0 90 63 60
        E 120 80 56 00
        E 0 80 57 00
        E 0 80 62 00
        E 0 80 63 00
        E 0 90 63 60
        E 0 90 64 60
        E 0 90 65 60
        E 120 80 63 00
        E 0 80 64 00
        E 0 90 4a 60
        E 0 90 4b 60
        E 0 90 56 60
        E 0 90 57 60
        E 0 90 62 60
        E 0 90 63 60
        E 120 80 65 00
        E 0 80 4a 00
        E 0 80 4b 00
        E 0 80 56 00
        E 0 80 57 00
        E 0 80 62 00
        E 0 80 63 00
        E 0 90 63 60
        E 120 80 63 00
        E 0 90 58 60
        E 0 90 64 60
        E 120 80 58 00
        E 0 80 64 00
        E 0 90 63 60
        E 120 80 63 00
        E 0 90 3c 60
        E 0 90 49 60
        E 0 90 55 60
        E 0 90 61 60
        E 120 80 3c 00
        E 0 80 49 00
        E 0 80 55 00
        E 0 80 61 00
        E 0 90 60 60
        E 120 80 60 00
        E 0 90 56 60
        E 0 90 62 60
        E 120 80 56 00
        E 0 80 62 00
        E 0 90 61 60
        E 120 80 61 00
        E 120 90 49 60
        E 0 90 55 60
        E 0 90 60 60
        E 120 80 60 00
        E 0 90 61 60
        E 240 80 49 00
        E 120 80 32 00
        E 0 80 55 00
        E 0 80 61 00
        E 120 90 2d 60
        E 0 90 54 60
        E 0 90 60 60
        E 120 80 2d 00
        E 0 80 54 00
        E 0 80 60 00
        E 0 90 2f 60
        E 0 90 61 60
        E 120 80 2f 00
        E 0 80 61 00
        E 0 90 32 60
        E 0 90 3d 60
        E 0 90 4a 60
        E 0 90 56 60
        E 0 90 62 60
        E 120 80 3d 00
        E 0 80 4a 00
        E 0 80 56 00
        E 0 80 62 00
        E 0 90 63 60
        E 120 80 63 00
        E 120 90 56 60
        E 0 90 62 60
        E 120 80 56 00
        E 0 80 62 00
        E 120 90 4a 60
        E 0 90 4b 60
        E 0 90 56 60
        E 0 90 57 60
        E 0 90 62 60
        E 0 90 63 60
        E 120 80 4a 00
        E 0 80 4b 00
        E 0 80 56 00
        E 0 80 57 00
        E 0 80 62 00
        E 0 80 63 00
        E 120 90 58 60
        E 0 90 62 60
        E 120 80 58 00
        E 0 80 62 00
        E 0 90 64 60
        E 120 80 64 00
        E 120 90 3e 60
        E 0 90 4b 60
        E 0 90 57 60
        E 0 90 62 60
        E 120 80 3e 00
        E 0 80 4b 00
        E 0 80 62 00
        E 0 90 63 60
        E 240 80 57 00
        E 0 80 63 00
        E 120 90 4a 60
        E 0 90 4b 60
        E 0 90 56 60
        E 0 90 57 60
        E 0 90 62 60
        E 0 90 63 60
        E 120 80 4a 00
        E 0 80 4b 00
        E 0 80 56 00
        E 0 80 57 00
        E 0 80 62 00
        E 0 80 63 00
        E 0 90 63 60
        E 0 90 64 60
        E 0 90 65 60
        E 120 80 63 00
        E 0 80 64 00
        E 0 90 4a 60
        E 0 90 4b 60
        E 0 90 56 60
        E 0 90 57 60
        E 0 90 62 60
        E 0 90 63 60
        E 120 80 65 00
        E 0 80 4a 00
        E 0 80 4b 00
        E 0 80 56 00
        E 0 80 57 00
        E 0 80 62 00
        E 0 80 63 00
        E 0 90 63 60
        E 120 80 63 00
        E 0 90 58 60
        E 0 90 64 60
        E 120 80 58 00
        E 0 80 64 00
        E 0 90 63 60
        E 120 80 63 00
        E 0 90 3c 60
        E 0 90 49 60
        E 0 90 55 60
        E 0 90 61 60
        E 120 80 3c 00
        E 0 80 49 00
        E 0 80 55 00
        E 0 80 61 00
        E 0 90 60 60
        E 120 80 60 00
        E 0 90 56 60
        E 0 90 62 60
        E 120 80 56 00
        E 0 80 62 00
        E 0 90 61 60
        E 120 80 61 00
        E 120 90 49 60
        E 0 90 55 60
        E 0 90 60 60
        E 120 80 60 00
        E 0 90 61 60
        E 240 80 49 00
        E 120 80 32 00
        E 0 80 55 00
        E 0 80 61 00
        E 120 90 2d 60
        E 0 90 54 60
        E 0 90 60 60
        E 120 80 2d 00
        E 0 80 54 00
        E 0 80 60 00
        E 0 90 2f 60
        E 0 90 61 60
        E 120 80 2f 00
        E 0 80 61 00
        E 0 90 32 60
        E 0 90 3d 60
        E 0 90 4a 60
        E 0 90 56 60
        E 0 90 62 60
        E 120 80 3d 00
        E 0 80 4a 00
        E 0 80 56 00
        E 0 80 62 00
        E 0 90 63 60
        E 120 80 63 00
        E 120 90 56 60
        E 0 90 62 60
        E 120 80 56 00
        E 0 80 62 00
        E 120 90 4a 60
        E 0 90 4b 60
        E 0 90 56 60
        E 0 90 57 60
        E 0 90 62 60
        E 0 90 63 60
        E 120 80 4a 00
        E 0 80 4b 00
        E 0 80 56 00
        E 0 80 57 00
        E 0 80 62 00
        E 0 80 63 00
        E 120 90 58 60
        E 0 90 62 60
        E 120 80 58 00
        E 0 80 62 00
        E 0 90 64 60
        E 120 80 64 00
        E 120 90 3e 60
        E 0 90 4b 60
        E 0 90 57 60
        E 0 90 62 60
        E 120 80 3e 00
        E 0 80 4b 00
        E 0 80 62 00
        E 0 90 63 60
        E 240 80 57 00
        E 0 80 63 00
        E 120 90 4a 60
        E 0 90 4b 60
        E 0 90 56 60
        E 0 90 57 60
        E 0 90 62 60
        E 0 90 63 60
        E 120 80 4a 00
        E 0 80 4b 00
        E 0 80 56 00
        E 0 80 57 00
        E 0 80 62 00
        E 0 80 63 00
        E 0 90 63 60
        E 0 90 64 60
        E 0 90 65 60
        E 120 80 63 00
        E 0 80 64 00
        E 0 90 4a 60
        E 0 90 4b 60
        E 0 90 56 60
        E 0 90 57 60
        E 0 90 62 60
        E 0 90 63 60
        E 120 80 65 00
        E 0 80 4a 00
        E 0 80 4b 00
        E 0 80 56 00
        E 0 80 57 00
        E 0 80 62 00
        E 0 80 63 00
        E 0 90 63 60
        E 120 80 63 00
        E 0 90 58 60
        E 0 90 64 60
        E 120 80 58 00
        E 0 80 64 00
        E 0 90 63 60
        E 120 80 63 00
        E 0 90 3c 60
        E 0 90 49 60
        E 0 90 55 60
        E 0 90 61 60
        E 120 80 3c 00
        E 0 80 49 00
        E 0 80 55 00
        E 0 80 61 00
        E 0 90 60 60
        E 120 80 60 00
        E 0 90 56 60
        E 0 90 62 60
        E 120 80 56 00
        E 0 80 62 00
        E 0 90 61 60
        E 120 80 61 00
        E 120 90 49 60
        E 0 90 55 60
        E 0 90 60 60
        E 120 80 60 00
        E 0 90 61 60
        E 240 80 49 00
        E 120 80 32 00
        E 0 80 55 00
        E 0 80 61 00
        E 120 90 2d 60
        E 0 90 54 60
        E 0 90 60 60
        E 120 80 2d 00
        E 0 80 54 00
        E 0 80 60 00
        E 0 90 2f 60
        E 0 90 61 60
        E 120 80 2f 00
        E 0 80 61 00
        E 0 90 32 60
        E 0 90 3d 60
        E 0 90 4a 60
        E 0 90 56 60
        E 0 90 62 60
        E 120 80 3d 00
        E 0 80 4a 00
        E 0 80 56 00
        E 0 80 62 00
        E 0 90 63 60
        E 120 80 63 00
        E 120 90 56 60
        E 0 90 62 60
        E 120 80 56 00
        E 0 80 62 00
        E 120 90 4a 60
        E 0 90 4b 60
        E 0 90 56 60
        E 0 90 57 60
        E 0 90 62 60
        E 0 90 63 60
        E 120 80 4a 00
        E 0 80 4b 00
        E 0 80 56 00
        E 0 80 57 00
        E 0 80 62 00
        E 0 80 63 00
        E 120 90 58 60
        E 0 90 62 60
        E 120 80 58 00
        E 0 80 62 00
        E 0 90 64 60
        E 120 80 64 00
        E 120 90 3e 60
        E 0 90 4b 60
        E 0 90 57 60
        E 0 90 62 60
        E 120 80 3e 00
        E 0 80 4b 00
        E 0 80 62 00
        E 0 90 63 60
        E 240 80 57 00
        E 0 80 63 00
        E 120 90 4a 60
        E 0 90 4b 60
        E 0 90 56 60
        E 0 90 57 60
        E 0 90 62 60
        E 0 90 63 60
        E 120 80 4a 00
        E 0 80 4b 00
        E 0 80 56 00
        E 0 80 57 00
        E 0 80 62 00
        E 0 80 63 00
        E 0 90 63 60
        E 0 90 64 60
        E 0 90 65 60
        E 120 80 63 00
        E 0 80 64 00
        E 0 90 4a 60
        E 0 90 4b 60
        E 0 90 56 60
        E 0 90 57 60
        E 0 90 62 60
        E 0 90 63 60
        E 120 80 65 00
        E 0 80 4a 00
        E 0 80 4b 00
        E 0 80 56 00
        E 0 80 57 00
        E 0 80 62 00
        E 0 80 63 00
        E 0 90 63 60
        E 120 80 63 00
        E 0 90 58 60
        E 0 90 64 60
        E 120 80 58 00
        E 0 80 64 00
        E 0 90 63 60
        E 120 80 63 00
        E 0 90 3c 60
        E 0 90 49 60
        E 0 90 55 60
        E 0 90 61 60
        E 120 80 3c 00
        E 0 80 49 00
        E 0 80 55 00
        E 0 80 61 00
        E 0 90 60 60
        E 120 80 60 00
        E 0 90 56 60
        E 0 90 62 60
        E 120 80 56 00
        E 0 80 62 00
        E 0 90 61 60
        E 120 80 61 00
        E 120 90 49 60
        E 0 90 55 60
        E 0 90 60 60
        E 120 80 60 00
        E 0 90 61 60
        E 240 80 49 00
        E 120 80 32 00
        E 0 80 55 00
        E 0 80 61 00
        E 120 90 2d 60
        E 0 90 54 60
        E 0 90 60 60
        E 120 80 2d 00
        E 0 80 54 00
        E 0 80 60 00
        E 0 90 2f 60
        E 0 90 61 60
        E 120 80 2f 00
        E 0 80 61 00
        E 0 90 32 60
        E 0 90 3d 60
        E 0 90 4a 60
        E 0 90 56 60
        E 0 90 62 60
        E 120 80 3d 00
        E 0 80 4a 00
        E 0 80 56 00
        E 0 80 62 00
        E 0 90 63 60
        E 120 80 63 00
        E 120 90 56 60
        E 0 90 62 60
        E 480 80 32 00
        E 0 80 56 00
        E 0 80 62 00
        <X 119 0
          /wFbaWRsZV9yZWFsdGltZV0=
        >
        E 1 b0 7b 00
        GUID {4E8D1C6E-B789-4A2C-8759-261CCF85D410}
        IGNTEMPO 0 120.00000000 4 4
        SRCCOLOR 55
        VELLANE 132 71 60
        COLORMAP "C:\Program Files (x86)\REAPER\Data\color_maps\rockband_guitarbass.png"
        CFGEDITVIEW -448.183502 154.222544 0 12 0 0 0
        CFGEDIT 1 1 0 1 1 0 1 1 1 1 1 0.25000000 -8 -8 1928 1088 0 0 1 1 0.00000000 0 1 0 0 0.500000 0 0 1.000000 64
        KEYSNAP 0 0 "102034050607" 0 "Major"
        EVTFILTER 0 -1 -1 -1 -1 0 1 0 0 -1.00000000 -1.00000000
      >
    >
  >
  <TRACK '{FF9EB941-4BD3-430B-A005-DE23C5CBD10D}'
    NAME "guitar"
    PEAKCOL 16576
    BEAT -1
    AUTOMODE 0
    VOLPAN 1.00000000000000 0.00000000000000 -1.00000000000000 -1.00000000000000 1.00000000000000
    MUTESOLO 0 0 0
    IPHASE 0
    ISBUS 2 -1
    BUSCOMP 0 0
    SHOWINMIX 1 0.666700 0.500000 1 0.500000 -1 -1 -1
    FREEMODE 0
    SEL 0
    REC 0 0 0 0 0 0 0
    VU 2
    TRACKHEIGHT 0 0
    INQ 0 0 0 0.5000000000 100 0 0 100
    NCHAN 2
    FX 1
    TRACKID {FF9EB941-4BD3-430B-A005-DE23C5CBD10D}
    PERF 0
    MIDIOUT -1
    MAINSEND 1 0
    <ITEM
      POSITION 0.00000000000000
      SNAPOFFS 0.00000000000000
      LENGTH 83.00000000000000
      LOOP 0
      ALLTAKES 0
      SEL 0
      FADEIN 1 0.000000 0.000000 1 0
      FADEOUT 1 0.000000 0.000000 1 0
      MUTE 0
      IGUID {CC751E20-6B54-4F93-9B6C-93A5AE6F13E1}
      IID 19
      NAME "guitar.wav"
      VOLPAN 1.000000 0.000000 1.000000 -1.000000
      SOFFS 0.00000000000000
      PLAYRATE 1.00000000000000 1 0.00000000000000 -1
      CHANMODE 0
      GUID {9470D434-B29D-4B27-AD57-554D2E5816F2}
      <SOURCE WAVE
        FILE "wav\guitar.wav"
      >
    >
  >
  <TRACK '{0140008E-D9FF-4C48-B827-5D46109367E6}'
    NAME "PART KEYS - town"
    PEAKCOL 16576
    BEAT -1
    AUTOMODE 0
    VOLPAN 1.00000000000000 0.00000000000000 -1.00000000000000 -1.00000000000000 1.00000000000000
    MUTESOLO 0 0 0
    IPHASE 0
    ISBUS 1 1
    BUSCOMP 0 0
    SHOWINMIX 1 0.666700 0.500000 1 0.500000 -1 -1 -1
    FREEMODE 0
    SEL 0
    REC 0 0 0 0 0 0 0
    VU 2
    TRACKHEIGHT 0 0
    INQ 0 0 0 0.5000000000 100 0 0 100
    NCHAN 2
    FX 1
    TRACKID {0140008E-D9FF-4C48-B827-5D46109367E6}
    PERF 0
    MIDIOUT -1
    MAINSEND 1 0
    <FXCHAIN
      WNDRECT 330 292 878 559
      SHOW 0
      LASTSEL 0
      DOCKED 0
      BYPASS 0 0
      <VST "VSTi: RBN Preview (RBN)" "rbprev_vst64.dll" 0 ""
        dnBicu5e7f4AAAAAAgAAAAEAAAAAAAAAAgAAAAAAAAAEAAAAAQAAAA==
        AAAQAAMAqgAAABAAAAA=
      >
      FLOATPOS 0 0 0 0
      FXID {B53FB328-5B5A-417E-9E11-738D754B00AB}
      WAK 0
    >
    <ITEM
      POSITION 0.00000000000000
      SNAPOFFS 0.00000000000000
      LENGTH 80.50000000000000
      LOOP 0
      ALLTAKES 0
      SEL 0
      FADEIN 1 0.000000 0.000000 1 0
      FADEOUT 1 0.000000 0.000000 1 0
      MUTE 0
      IGUID {17242079-32C4-4671-8BE0-64A5B4E3B72B}
      IID 6
      NAME "PART KEYS"
      VOLPAN 1.000000 0.000000 1.000000 -1.000000
      SOFFS 0.00000000000000 0.00000000000000
      PLAYRATE 1.00000000000000 1 0.00000000000000 -1
      CHANMODE 0
      GUID {B5EB78B6-B2EA-42AC-BAA4-53792CE421D6}
      <SOURCE MIDI
        HASDATA 1 480 QN
        POOLEDEVTS {7D5DD6B9-7C90-455F-8E8C-99CF55330BCA}
        <X 0 0
          /wNQQVJUIEtFWVM=
        >
        <X 3840 0
          /wFbcGxheV0=
        >
        E 0 90 3d 60
        E 0 90 3f 60
        E 0 90 40 60
        E 0 90 49 60
        E 0 90 4b 60
        E 0 90 4c 60
        E 0 90 55 60
        E 0 90 57 60
        E 0 90 58 60
        E 0 90 61 60
        E 0 90 63 60
        E 0 90 64 60
        E 0 90 74 60
        E 60 80 3d 00
        E 0 80 3f 00
        E 0 80 40 00
        E 0 80 49 00
        E 0 80 4b 00
        E 0 80 4c 00
        E 0 80 55 00
        E 0 80 57 00
        E 0 80 58 00
        E 0 80 61 00
        E 0 80 63 00
        E 0 80 64 00
        E 60 90 61 60
        E 0 90 63 60
        E 0 90 64 60
        E 60 80 61 00
        E 0 80 63 00
        E 0 80 64 00
        E 60 90 55 60
        E 0 90 57 60
        E 0 90 58 60
        E 0 90 61 60
        E 0 90 63 60
        E 0 90 64 60
        E 60 80 55 00
        E 0 80 57 00
        E 0 80 58 00
        E 0 80 61 00
        E 0 80 63 00
        E 0 80 64 00
        <X 180 0
          /wFbaWRsZV0=
        >
        E 600 80 74 00
        <X 3960 0
          /wFbcGxheV0=
        >
        E 0 90 55 60
        E 0 90 56 60
        E 0 90 61 60
        E 0 90 62 60
        E 60 80 55 00
        E 0 80 56 00
        E 0 80 61 00
        E 0 80 62 00
        E 60 90 60 60
        E 0 90 61 60
        E 0 90 65 60
        E 60 80 60 00
        E 0 80 61 00
        E 60 90 3d 60
        E 0 90 3e 60
        E 0 90 49 60
        E 0 90 4a 60
        E 0 90 55 60
        E 0 90 56 60
        E 0 90 61 60
        E 0 90 62 60
        E 60 80 3d 00
        E 0 80 3e 00
        E 0 80 49 00
        E 0 80 4a 00
        E 0 80 55 00
        E 0 80 56 00
        E 0 80 61 00
        E 0 80 62 00
        E 60 90 61 60
        E 0 90 63 60
        E 60 80 61 00
        E 0 80 63 00
        E 60 90 56 60
        E 0 90 58 60
        E 0 90 62 60
        E 0 90 64 60
        E 60 80 56 00
        E 0 80 58 00
        E 0 80 62 00
        E 0 80 64 00
        E 60 80 65 00
        E 120 90 3f 60
        E 0 90 40 60
        E 0 90 4b 60
        E 0 90 4c 60
        E 0 90 57 60
        E 0 90 58 60
        E 0 90 63 60
        E 0 90 64 60
        E 60 80 3f 00
        E 0 80 40 00
        E 0 80 4b 00
        E 0 80 4c 00
        E 0 80 57 00
        E 0 80 58 00
        E 0 80 63 00
        E 0 80 64 00
        E 180 90 57 60
        E 0 90 58 60
        E 0 90 63 60
        E 0 90 64 60
        E 60 80 57 00
        E 0 80 58 00
        E 0 80 63 00
        E 0 80 64 00
        E 60 90 62 60
        E 0 90 64 60
        E 0 90 65 60
        E 60 80 62 00
        E 0 80 64 00
        E 60 80 65 00
        E 120 90 62 60
        E 0 90 64 60
        E 60 80 62 00
        E 0 80 64 00
        E 60 90 3e 60
        E 0 90 40 60
        E 0 90 4a 60
        E 0 90 4c 60
        E 0 90 56 60
        E 0 90 58 60
        E 0 90 62 60
        E 0 90 64 60
        E 0 90 65 60
        E 60 80 3e 00
        E 0 80 40 00
        E 0 80 4a 00
        E 0 80 4c 00
        E 0 80 56 00
        E 0 80 58 00
        E 0 80 62 00
        E 0 80 64 00
        E 60 90 61 60
        E 0 90 63 60
        E 60 80 61 00
        E 0 80 63 00
        E 60 80 65 00
        E 120 90 55 60
        E 0 90 57 60
        E 0 90 61 60
        E 0 90 63 60
        E 60 80 55 00
        E 0 80 57 00
        E 0 80 61 00
        E 0 80 63 00
        E 300 90 3d 60
        E 0 90 3f 60
        E 0 90 49 60
        E 0 90 4b 60
        E 0 90 55 60
        E 0 90 57 60
        E 0 90 61 60
        E 0 90 63 60
        E 60 80 3d 00
        E 0 80 3f 00
        E 0 80 49 00
        E 0 80 4b 00
        E 0 80 55 00
        E 0 80 57 00
        E 0 80 61 00
        E 0 80 63 00
        E 60 90 62 60
        E 0 90 64 60
        E 0 90 65 60
        E 60 80 62 00
        E 0 80 64 00
        E 60 80 65 00
        E 1200 90 3e 60
        E 0 90 4a 60
        E 0 90 56 60
        E 0 90 62 60
        E 960 80 3e 00
        E 0 80 4a 00
        E 360 80 56 00
        E 0 80 62 00
        E 120 90 3f 60
        E 0 90 4b 60
        E 0 90 57 60
        E 0 90 63 60
        E 60 80 3f 00
        E 0 80 4b 00
        E 0 80 57 00
        E 0 80 63 00
        E 60 90 64 60
        E 60 80 64 00
        E 60 90 57 60
        E 0 90 63 60
        E 360 80 57 00
        E 0 80 63 00
        E 120 90 56 60
        E 0 90 62 60
        E 80 80 56 00
        E 0 80 62 00
        E 0 90 63 60
        E 0 90 65 60
        E 80 80 63 00
        E 0 90 62 60
        E 80 80 62 00
        E 0 90 3d 60
        E 0 90 49 60
        E 0 90 55 60
        E 0 90 61 60
        E 120 80 65 00
        E 0 80 3d 00
        E 0 80 49 00
        E 240 80 55 00
        E 0 80 61 00
        E 120 90 3c 60
        E 0 90 48 60
        E 0 90 54 60
        E 0 90 60 60
        E 60 80 3c 00
        E 0 80 48 00
        E 0 80 54 00
        E 0 80 60 00
        E 180 90 58 60
        E 0 90 64 60
        E 60 80 58 00
        E 0 80 64 00
        E 180 90 3f 60
        E 0 90 4b 60
        E 0 90 57 60
        E 0 90 63 60
        E 80 80 3f 00
        E 0 80 4b 00
        E 0 80 57 00
        E 0 80 63 00
        E 0 90 64 60
        E 0 90 65 60
        E 80 80 64 00
        E 0 90 63 60
        E 80 80 63 00
        E 0 90 56 60
        E 0 90 62 60
        E 80 80 65 00
        E 40 80 56 00
        E 0 80 62 00
        E 120 90 3f 60
        E 0 90 4b 60
        E 0 90 57 60
        E 0 90 63 60
        E 0 90 74 60
        E 480 80 3f 00
        E 0 80 4b 00
        E 120 80 57 00
        E 0 80 63 00
        E 120 90 56 60
        E 0 90 62 60
        E 80 80 56 00
        E 0 80 62 00
        E 0 90 63 60
        E 0 90 65 60
        E 79 90 62 60
        E 1 80 63 00
        E 79 80 62 00
        E 1 90 3d 60
        E 0 90 49 60
        E 0 90 55 60
        E 0 90 61 60
        E 80 80 65 00
        E 40 80 3d 00
        E 0 80 49 00
        E 480 80 55 00
        E 0 80 61 00
        E 120 90 3c 60
        E 0 90 48 60
        E 0 90 54 60
        E 0 90 60 60
        E 240 80 74 00
        E 960 80 3c 00
        E 0 80 48 00
        E 360 80 54 00
        E 0 80 60 00
        E 120 90 3c 60
        E 0 90 48 60
        E 0 90 54 60
        E 0 90 60 60
        E 120 80 3c 00
        E 0 80 48 00
        E 240 80 54 00
        E 0 80 60 00
        E 120 90 3e 60
        E 0 90 4a 60
        E 0 90 56 60
        E 0 90 62 60
        E 960 80 3e 00
        E 0 80 4a 00
        E 360 80 56 00
        E 0 80 62 00
        E 120 90 3f 60
        E 0 90 4b 60
        E 0 90 57 60
        E 0 90 63 60
        E 60 80 3f 00
        E 0 80 4b 00
        E 0 80 57 00
        E 0 80 63 00
        E 60 90 64 60
        E 60 80 64 00
        E 60 90 57 60
        E 0 90 63 60
        E 360 80 57 00
        E 0 80 63 00
        E 120 90 56 60
        E 0 90 62 60
        E 80 80 56 00
        E 0 80 62 00
        E 0 90 63 60
        E 0 90 65 60
        E 80 80 63 00
        E 0 90 62 60
        E 80 80 62 00
        E 0 90 3d 60
        E 0 90 49 60
        E 0 90 55 60
        E 0 90 61 60
        E 80 80 65 00
        E 40 80 3d 00
        E 0 80 49 00
        E 240 80 55 00
        E 0 80 61 00
        E 120 90 3c 60
        E 0 90 48 60
        E 0 90 54 60
        E 0 90 60 60
        E 60 80 3c 00
        E 0 80 48 00
        E 0 80 54 00
        E 0 80 60 00
        E 180 90 58 60
        E 0 90 64 60
        E 60 80 58 00
        E 0 80 64 00
        E 180 90 3f 60
        E 0 90 4b 60
        E 0 90 57 60
        E 0 90 63 60
        E 80 80 3f 00
        E 0 80 4b 00
        E 0 80 57 00
        E 0 80 63 00
        E 0 90 64 60
        E 0 90 65 60
        E 80 80 64 00
        E 0 90 63 60
        E 80 80 63 00
        E 0 90 56 60
        E 0 90 62 60
        E 80 80 65 00
        E 40 80 56 00
        E 0 80 62 00
        E 120 90 3f 60
        E 0 90 4b 60
        E 0 90 57 60
        E 0 90 63 60
        E 0 90 74 60
        E 120 80 3f 00
        E 0 80 4b 00
        E 0 80 57 00
        E 0 80 63 00
        E 120 90 55 60
        E 0 90 56 60
        E 0 90 61 60
        E 0 90 62 60
        E 60 80 55 00
        E 0 80 56 00
        E 0 80 61 00
        E 0 80 62 00
        E 20 90 65 60
        E 40 90 60 60
        E 0 90 61 60
        E 60 80 60 00
        E 0 80 61 00
        E 60 90 3d 60
        E 0 90 3e 60
        E 0 90 49 60
        E 0 90 4a 60
        E 0 90 55 60
        E 0 90 56 60
        E 0 90 61 60
        E 0 90 62 60
        E 60 80 3d 00
        E 0 80 3e 00
        E 0 80 49 00
        E 0 80 4a 00
        E 0 80 55 00
        E 0 80 56 00
        E 0 80 61 00
        E 0 80 62 00
        E 60 90 61 60
        E 0 90 63 60
        E 60 80 61 00
        E 0 80 63 00
        E 60 90 56 60
        E 0 90 58 60
        E 0 90 62 60
        E 0 90 64 60
        E 60 80 56 00
        E 0 80 58 00
        E 0 80 62 00
        E 0 80 64 00
        E 60 80 65 00
        E 120 90 3f 60
        E 0 90 40 60
        E 0 90 4b 60
        E 0 90 4c 60
        E 0 90 57 60
        E 0 90 58 60
        E 0 90 63 60
        E 0 90 64 60
        E 60 80 3f 00
        E 0 80 40 00
        E 0 80 4b 00
        E 0 80 4c 00
        E 0 80 57 00
        E 0 80 58 00
        E 0 80 63 00
        E 0 80 64 00
        E 180 90 57 60
        E 0 90 58 60
        E 0 90 63 60
        E 0 90 64 60
        E 0 90 65 60
        E 60 80 57 00
        E 0 80 58 00
        E 0 80 63 00
        E 0 80 64 00
        E 60 90 62 60
        E 0 90 64 60
        E 60 80 62 00
        E 0 80 64 00
        E 60 80 65 00
        E 120 90 62 60
        E 0 90 64 60
        E 60 80 62 00
        E 0 80 64 00
        E 60 90 3e 60
        E 0 90 40 60
        E 0 90 4a 60
        E 0 90 4c 60
        E 0 90 56 60
        E 0 90 58 60
        E 0 90 62 60
        E 0 90 64 60
        E 0 90 65 60
        E 60 80 3e 00
        E 0 80 40 00
        E 0 80 4a 00
        E 0 80 4c 00
        E 0 80 56 00
        E 0 80 58 00
        E 0 80 62 00
        E 0 80 64 00
        E 60 90 61 60
        E 0 90 63 60
        E 60 80 61 00
        E 0 80 63 00
        E 60 80 65 00
        E 120 90 55 60
        E 0 90 57 60
        E 0 90 61 60
        E 0 90 63 60
        E 60 80 55 00
        E 0 80 57 00
        E 0 80 61 00
        E 0 80 63 00
        E 300 90 3d 60
        E 0 90 3f 60
        E 0 90 49 60
        E 0 90 4b 60
        E 0 90 55 60
        E 0 90 57 60
        E 0 90 61 60
        E 0 90 63 60
        E 60 80 3d 00
        E 0 80 3f 00
        E 0 80 49 00
        E 0 80 4b 00
        E 0 80 55 00
        E 0 80 57 00
        E 0 80 61 00
        E 0 80 63 00
        E 60 90 62 60
        E 0 90 64 60
        E 0 90 65 60
        E 60 80 62 00
        E 0 80 64 00
        E 60 80 65 00
        E 240 90 3d 60
        E 0 90 3f 60
        E 0 90 40 60
        E 0 90 49 60
        E 0 90 4b 60
        E 0 90 4c 60
        E 0 90 55 60
        E 0 90 57 60
        E 0 90 58 60
        E 0 90 61 60
        E 0 90 63 60
        E 0 90 64 60
        E 120 80 3d 00
        E 0 80 3f 00
        E 0 80 40 00
        E 0 80 49 00
        E 0 80 4b 00
        E 0 80 4c 00
        E 0 80 55 00
        E 0 80 57 00
        E 0 80 58 00
        E 0 80 61 00
        E 0 80 63 00
        E 0 80 64 00
        E 0 90 61 60
        E 0 90 63 60
        E 0 90 64 60
        E 120 80 61 00
        E 0 80 63 00
        E 0 80 64 00
        E 0 90 55 60
        E 0 90 57 60
        E 0 90 58 60
        E 0 90 61 60
        E 0 90 63 60
        E 0 90 64 60
        E 120 80 55 00
        E 0 80 57 00
        E 0 80 58 00
        E 0 80 61 00
        E 0 80 63 00
        E 0 80 64 00
        <X 120 0
          /wFbaWRsZV0=
        >
        E 480 80 74 00
        <X 2640 0
          /wFbcGxheV0=
        >
        E 0 90 54 60
        E 0 90 60 60
        E 120 80 54 00
        E 0 80 60 00
        E 0 90 61 60
        E 0 90 65 60
        E 120 80 61 00
        E 0 90 3e 60
        E 0 90 4a 60
        E 0 90 56 60
        E 0 90 62 60
        E 120 80 3e 00
        E 0 80 4a 00
        E 0 80 56 00
        E 0 80 62 00
        E 0 90 61 60
        E 120 80 61 00
        E 0 90 54 60
        E 0 90 60 60
        E 120 80 54 00
        E 0 80 60 00
        E 0 90 61 60
        E 120 80 65 00
        E 0 80 61 00
        E 120 90 61 60
        E 0 90 63 60
        E 120 80 61 00
        E 0 80 63 00
        E 0 90 3e 60
        E 0 90 40 60
        E 0 90 4a 60
        E 0 90 4c 60
        E 0 90 56 60
        E 0 90 58 60
        E 0 90 62 60
        E 0 90 64 60
        E 0 90 65 60
        E 120 80 3e 00
        E 0 80 40 00
        E 0 80 4a 00
        E 0 80 4c 00
        E 0 80 56 00
        E 0 80 58 00
        E 0 80 62 00
        E 0 80 64 00
        E 0 80 65 00
        E 120 90 67 60
        E 240 90 54 60
        E 0 90 56 60
        E 0 90 60 60
        E 0 90 62 60
        E 120 80 54 00
        E 0 80 56 00
        E 0 80 60 00
        E 0 80 62 00
        E 0 90 61 60
        E 0 90 62 60
        E 0 90 65 60
        E 120 80 61 00
        E 0 80 62 00
        E 0 90 3c 60
        E 0 90 3e 60
        E 0 90 48 60
        E 0 90 4a 60
        E 0 90 54 60
        E 0 90 56 60
        E 0 90 60 60
        E 0 90 62 60
        E 120 80 65 00
        E 0 80 3c 00
        E 0 80 3e 00
        E 0 80 48 00
        E 0 80 4a 00
        E 0 80 54 00
        E 0 80 56 00
        E 0 80 60 00
        E 0 80 62 00
        E 120 90 55 60
        E 0 90 56 60
        E 0 90 61 60
        E 0 90 62 60
        E 120 80 55 00
        E 0 80 56 00
        E 0 80 61 00
        E 0 80 62 00
        E 120 90 3c 60
        E 0 90 3e 60
        E 0 90 48 60
        E 0 90 4a 60
        E 0 90 54 60
        E 0 90 56 60
        E 0 90 60 60
        E 0 90 62 60
        E 120 80 3c 00
        E 0 80 3e 00
        E 0 80 48 00
        E 0 80 4a 00
        E 0 80 54 00
        E 0 80 56 00
        E 0 80 60 00
        E 0 80 62 00
        E 120 90 55 60
        E 0 90 56 60
        E 0 90 61 60
        E 0 90 62 60
        E 120 80 55 00
        E 0 80 56 00
        E 0 80 61 00
        E 0 80 62 00
        E 0 90 61 60
        E 0 90 63 60
        E 0 90 65 60
        E 120 80 61 00
        E 0 80 63 00
        E 0 80 65 00
        E 120 90 60 60
        E 0 90 62 60
        E 120 80 60 00
        E 0 80 62 00
        E 0 90 3c 60
        E 0 90 3f 60
        E 0 90 48 60
        E 0 90 4b 60
        E 0 90 54 60
        E 0 90 57 60
        E 0 90 60 60
        E 0 90 63 60
        E 120 80 3c 00
        E 0 80 3f 00
        E 0 80 48 00
        E 0 80 4b 00
        E 0 80 54 00
        E 0 80 57 00
        E 120 80 60 00
        E 0 80 63 00
        E 120 90 55 60
        E 0 90 57 60
        E 0 90 61 60
        E 0 90 63 60
        E 120 80 55 00
        E 0 80 57 00
        E 0 80 61 00
        E 0 80 63 00
        E 240 90 3d 60
        E 0 90 3e 60
        E 0 90 49 60
        E 0 90 4a 60
        E 0 90 55 60
        E 0 90 56 60
        E 0 90 61 60
        E 0 90 62 60
        E 120 80 3d 00
        E 0 80 3e 00
        E 0 80 49 00
        E 0 80 4a 00
        E 0 80 55 00
        E 0 80 56 00
        E 0 80 61 00
        E 0 80 62 00
        E 120 90 55 60
        E 0 90 57 60
        E 0 90 61 60
        E 0 90 63 60
        E 120 80 55 00
        E 0 80 57 00
        E 0 80 61 00
        E 0 80 63 00
        E 0 90 61 60
        E 0 90 62 60
        E 0 90 65 60
        E 120 80 61 00
        E 0 80 62 00
        E 0 90 3c 60
        E 0 90 3e 60
        E 0 90 48 60
        E 0 90 4a 60
        E 0 90 54 60
        E 0 90 56 60
        E 0 90 60 60
        E 0 90 62 60
        E 120 80 3c 00
        E 0 80 3e 00
        E 0 80 48 00
        E 0 80 4a 00
        E 0 80 54 00
        E 0 80 56 00
        E 0 80 60 00
        E 0 80 62 00
        E 0 90 61 60
        E 0 90 62 60
        E 120 80 65 00
        E 0 80 61 00
        E 0 80 62 00
        E 240 90 3c 60
        E 0 90 3f 60
        E 0 90 48 60
        E 0 90 4b 60
        E 0 90 54 60
        E 0 90 57 60
        E 0 90 60 60
        E 0 90 63 60
        E 120 80 3c 00
        E 0 80 3f 00
        E 0 80 48 00
        E 0 80 4b 00
        E 0 80 54 00
        E 0 80 57 00
        E 0 80 60 00
        E 0 80 63 00
        E 0 90 61 60
        E 0 90 64 60
        E 0 90 65 60
        E 120 80 61 00
        E 0 80 64 00
        E 0 80 65 00
        E 240 90 74 60
        E 240 90 55 60
        E 0 90 57 60
        E 0 90 61 60
        E 0 90 63 60
        E 120 80 55 00
        E 0 80 57 00
        E 0 80 61 00
        E 0 80 63 00
        E 120 90 3d 60
        E 0 90 3f 60
        E 0 90 49 60
        E 0 90 4b 60
        E 0 90 55 60
        E 0 90 57 60
        E 0 90 61 60
        E 0 90 63 60
        E 120 80 3d 00
        E 0 80 3f 00
        E 0 80 49 00
        E 0 80 4b 00
        E 0 80 55 00
        E 0 80 57 00
        E 0 80 61 00
        E 0 80 63 00
        E 120 90 54 60
        E 0 90 60 60
        E 120 80 54 00
        E 0 80 60 00
        E 120 90 3e 60
        E 0 90 3f 60
        E 0 90 4a 60
        E 0 90 4b 60
        E 0 90 56 60
        E 0 90 57 60
        E 0 90 62 60
        E 0 90 63 60
        E 120 80 3e 00
        E 0 80 3f 00
        E 0 80 4a 00
        E 0 80 4b 00
        E 0 80 56 00
        E 0 80 57 00
        E 0 80 63 00
        E 0 90 64 60
        E 120 80 62 00
        E 0 80 64 00
        E 120 90 56 60
        E 0 90 58 60
        E 0 90 62 60
        E 0 90 64 60
        E 120 80 56 00
        E 0 80 58 00
        E 0 80 62 00
        E 0 80 64 00
        E 240 90 3e 60
        E 0 90 3f 60
        E 0 90 4a 60
        E 0 90 4b 60
        E 0 90 56 60
        E 0 90 57 60
        E 0 90 62 60
        E 0 90 63 60
        E 120 80 3e 00
        E 0 80 3f 00
        E 0 80 4a 00
        E 0 80 4b 00
        E 0 80 56 00
        E 0 80 57 00
        E 120 80 74 00
        E 0 80 62 00
        E 0 80 63 00
        E 120 90 56 60
        E 0 90 57 60
        E 0 90 62 60
        E 0 90 63 60
        E 120 80 56 00
        E 0 80 57 00
        E 0 80 62 00
        E 0 80 63 00
        E 240 90 3e 60
        E 0 90 3f 60
        E 0 90 4a 60
        E 0 90 4b 60
        E 0 90 56 60
        E 0 90 57 60
        E 0 90 62 60
        E 0 90 63 60
        E 120 80 3e 00
        E 0 80 3f 00
        E 0 80 4a 00
        E 0 80 4b 00
        E 0 80 56 00
        E 0 80 57 00
        E 0 80 62 00
        E 0 80 63 00
        E 120 90 54 60
        E 0 90 60 60
        E 120 80 54 00
        E 0 80 60 00
        E 0 90 61 60
        E 0 90 65 60
        E 120 80 61 00
        E 0 90 3e 60
        E 0 90 3f 60
        E 0 90 4a 60
        E 0 90 4b 60
        E 0 90 56 60
        E 0 90 57 60
        E 0 90 62 60
        E 0 90 63 60
        E 120 80 65 00
        E 0 80 3e 00
        E 0 80 3f 00
        E 0 80 4a 00
        E 0 80 4b 00
        E 0 80 56 00
        E 0 80 57 00
        E 0 80 62 00
        E 0 80 63 00
        E 120 90 54 60
        E 0 90 60 60
        E 120 80 54 00
        E 0 80 60 00
        E 0 90 61 60
        E 0 90 65 60
        E 120 80 61 00
        E 0 90 3c 60
        E 0 90 3e 60
        E 0 90 48 60
        E 0 90 4a 60
        E 0 90 54 60
        E 0 90 56 60
        E 0 90 60 60
        E 0 90 62 60
        E 120 80 65 00
        E 0 80 3c 00
        E 0 80 3e 00
        E 0 80 48 00
        E 0 80 4a 00
        E 0 80 54 00
        E 0 80 56 00
        E 0 80 60 00
        E 0 80 62 00
        E 120 90 55 60
        E 0 90 56 60
        E 0 90 61 60
        E 0 90 62 60
        E 120 80 55 00
        E 0 80 56 00
        E 0 80 61 00
        E 0 80 62 00
        E 120 90 3d 60
        E 0 90 3f 60
        E 0 90 49 60
        E 0 90 4b 60
        E 0 90 55 60
        E 0 90 57 60
        E 0 90 61 60
        E 0 90 63 60
        E 120 80 3d 00
        E 0 80 3f 00
        E 0 80 49 00
        E 0 80 4b 00
        E 0 80 55 00
        E 0 80 57 00
        E 0 80 61 00
        E 0 80 63 00
        E 240 90 55 60
        E 0 90 57 60
        E 0 90 61 60
        E 0 90 63 60
        E 120 80 55 00
        E 0 80 57 00
        E 0 80 61 00
        E 0 80 63 00
        E 120 90 55 60
        E 0 90 57 60
        E 0 90 61 60
        E 0 90 63 60
        E 120 80 55 00
        E 0 80 57 00
        E 0 80 61 00
        E 0 80 63 00
        E 120 90 60 60
        E 120 80 60 00
        E 0 90 3e 60
        E 0 90 3f 60
        E 0 90 4a 60
        E 0 90 4b 60
        E 0 90 56 60
        E 0 90 57 60
        E 0 90 62 60
        E 0 90 63 60
        E 0 90 65 60
        E 120 80 3e 00
        E 0 80 3f 00
        E 0 80 4a 00
        E 0 80 4b 00
        E 0 80 56 00
        E 0 80 57 00
        E 0 80 63 00
        E 0 90 64 60
        E 120 80 62 00
        E 0 80 65 00
        E 0 80 64 00
        E 120 90 56 60
        E 0 90 58 60
        E 0 90 62 60
        E 0 90 64 60
        E 120 80 56 00
        E 0 80 58 00
        E 0 80 62 00
        E 0 80 64 00
        E 120 90 56 60
        E 0 90 58 60
        E 0 90 62 60
        E 0 90 64 60
        E 120 80 56 00
        E 0 80 58 00
        E 0 80 62 00
        E 0 80 64 00
        E 120 90 60 60
        E 120 80 60 00
        E 0 90 3d 60
        E 0 90 3f 60
        E 0 90 49 60
        E 0 90 4b 60
        E 0 90 55 60
        E 0 90 57 60
        E 0 90 61 60
        E 0 90 63 60
        E 0 90 65 60
        E 120 80 3d 00
        E 0 80 3f 00
        E 0 80 49 00
        E 0 80 4b 00
        E 0 80 55 00
        E 0 80 57 00
        E 120 80 61 00
        E 0 80 63 00
        E 0 80 65 00
        E 120 90 55 60
        E 0 90 57 60
        E 0 90 61 60
        E 0 90 63 60
        E 120 80 55 00
        E 0 80 57 00
        E 0 80 61 00
        E 0 80 63 00
        E 120 90 61 60
        E 0 90 63 60
        E 120 80 61 00
        E 0 80 63 00
        E 0 90 54 60
        E 0 90 60 60
        E 0 90 65 60
        E 120 80 54 00
        E 0 80 60 00
        E 0 90 61 60
        E 120 80 61 00
        E 0 90 3d 60
        E 0 90 3f 60
        E 0 90 49 60
        E 0 90 4b 60
        E 0 90 55 60
        E 0 90 57 60
        E 0 90 61 60
        E 0 90 63 60
        E 120 80 65 00
        E 0 80 3d 00
        E 0 80 3f 00
        E 0 80 49 00
        E 0 80 4b 00
        E 0 80 55 00
        E 0 80 57 00
        E 0 80 61 00
        E 0 80 63 00
        E 120 90 54 60
        E 0 90 60 60
        E 120 80 54 00
        E 0 80 60 00
        E 0 90 61 60
        E 0 90 65 60
        E 120 80 61 00
        E 0 90 3c 60
        E 0 90 3e 60
        E 0 90 48 60
        E 0 90 4a 60
        E 0 90 54 60
        E 0 90 56 60
        E 0 90 60 60
        E 0 90 62 60
        E 120 80 65 00
        E 0 80 3c 00
        E 0 80 3e 00
        E 0 80 48 00
        E 0 80 4a 00
        E 0 80 54 00
        E 0 80 56 00
        E 0 80 60 00
        E 0 80 62 00
        E 120 90 55 60
        E 0 90 57 60
        E 0 90 61 60
        E 0 90 63 60
        E 120 80 55 00
        E 0 80 57 00
        E 0 80 61 00
        E 0 80 63 00
        E 120 90 3e 60
        E 0 90 3f 60
        E 0 90 40 60
        E 0 90 4a 60
        E 0 90 4b 60
        E 0 90 4c 60
        E 0 90 56 60
        E 0 90 57 60
        E 0 90 58 60
        E 0 90 62 60
        E 0 90 63 60
        E 0 90 64 60
        E 1920 80 67 00
        E 0 80 3e 00
        E 0 80 3f 00
        E 0 80 40 00
        E 0 80 4a 00
        E 0 80 4b 00
        E 0 80 4c 00
        E 0 80 56 00
        E 0 80 57 00
        E 0 80 58 00
        E 0 80 62 00
        E 0 80 63 00
        E 0 80 64 00
        E 960 90 3d 60
        E 0 90 3f 60
        E 0 90 40 60
        E 0 90 49 60
        E 0 90 4b 60
        E 0 90 4c 60
        E 0 90 55 60
        E 0 90 57 60
        E 0 90 58 60
        E 0 90 61 60
        E 0 90 63 60
        E 0 90 64 60
        E 120 80 3d 00
        E 0 80 3f 00
        E 0 80 40 00
        E 0 80 49 00
        E 0 80 4b 00
        E 0 80 4c 00
        E 0 80 55 00
        E 0 80 57 00
        E 0 80 58 00
        E 0 80 61 00
        E 0 80 63 00
        E 0 80 64 00
        E 0 90 61 60
        E 0 90 63 60
        E 0 90 64 60
        E 120 80 61 00
        E 0 80 63 00
        E 0 80 64 00
        E 0 90 55 60
        E 0 90 57 60
        E 0 90 58 60
        E 0 90 61 60
        E 0 90 63 60
        E 0 90 64 60
        E 120 80 55 00
        E 0 80 57 00
        E 0 80 58 00
        E 0 80 61 00
        E 0 80 63 00
        E 0 80 64 00
        <X 120 0
          /wFbaWRsZV0=
        >
        <X 12240 0
          /wFbcGxheV0=
        >
        E 0 90 55 60
        E 0 90 56 60
        E 0 90 61 60
        E 0 90 62 60
        E 0 90 74 60
        E 60 80 55 00
        E 0 80 56 00
        E 0 80 61 00
        E 0 80 62 00
        E 60 90 60 60
        E 0 90 61 60
        E 0 90 65 60
        E 60 80 60 00
        E 0 80 61 00
        E 60 90 3d 60
        E 0 90 3e 60
        E 0 90 49 60
        E 0 90 4a 60
        E 0 90 55 60
        E 0 90 56 60
        E 0 90 61 60
        E 0 90 62 60
        E 60 80 3d 00
        E 0 80 3e 00
        E 0 80 49 00
        E 0 80 4a 00
        E 0 80 55 00
        E 0 80 56 00
        E 0 80 61 00
        E 0 80 62 00
        E 60 90 61 60
        E 0 90 63 60
        E 60 80 61 00
        E 0 80 63 00
        E 60 90 56 60
        E 0 90 58 60
        E 0 90 62 60
        E 0 90 64 60
        E 60 80 56 00
        E 0 80 58 00
        E 0 80 62 00
        E 0 80 64 00
        E 60 80 65 00
        E 120 90 3f 60
        E 0 90 40 60
        E 0 90 4b 60
        E 0 90 4c 60
        E 0 90 57 60
        E 0 90 58 60
        E 0 90 63 60
        E 0 90 64 60
        E 60 80 3f 00
        E 0 80 40 00
        E 0 80 4b 00
        E 0 80 4c 00
        E 0 80 57 00
        E 0 80 58 00
        E 0 80 63 00
        E 0 80 64 00
        E 180 90 57 60
        E 0 90 58 60
        E 0 90 63 60
        E 0 90 64 60
        E 60 80 57 00
        E 0 80 58 00
        E 0 80 63 00
        E 0 80 64 00
        E 60 90 62 60
        E 0 90 64 60
        E 0 90 65 60
        E 60 80 62 00
        E 0 80 64 00
        E 60 80 65 00
        E 120 90 62 60
        E 0 90 64 60
        E 60 80 62 00
        E 0 80 64 00
        E 60 90 3e 60
        E 0 90 40 60
        E 0 90 4a 60
        E 0 90 4c 60
        E 0 90 56 60
        E 0 90 58 60
        E 0 90 62 60
        E 0 90 64 60
        E 0 90 65 60
        E 60 80 3e 00
        E 0 80 40 00
        E 0 80 4a 00
        E 0 80 4c 00
        E 0 80 56 00
        E 0 80 58 00
        E 0 80 62 00
        E 0 80 64 00
        E 60 90 61 60
        E 0 90 63 60
        E 60 80 61 00
        E 0 80 63 00
        E 60 80 65 00
        E 120 90 55 60
        E 0 90 57 60
        E 0 90 61 60
        E 0 90 63 60
        E 60 80 55 00
        E 0 80 57 00
        E 0 80 61 00
        E 0 80 63 00
        E 300 90 3d 60
        E 0 90 3f 60
        E 0 90 49 60
        E 0 90 4b 60
        E 0 90 55 60
        E 0 90 57 60
        E 0 90 61 60
        E 0 90 63 60
        E 60 80 3d 00
        E 0 80 3f 00
        E 0 80 49 00
        E 0 80 4b 00
        E 0 80 55 00
        E 0 80 57 00
        E 0 80 61 00
        E 0 80 63 00
        E 60 90 62 60
        E 0 90 64 60
        E 0 90 65 60
        E 60 80 62 00
        E 0 80 64 00
        E 60 80 74 00
        E 0 80 65 00
        <X 1200 0
          /wFbaW50ZW5zZV0=
        >
        E 0 90 3e 60
        E 0 90 4a 60
        E 0 90 56 60
        E 0 90 62 60
        E 960 80 3e 00
        E 0 80 4a 00
        E 360 80 56 00
        E 0 80 62 00
        E 120 90 3f 60
        E 0 90 4b 60
        E 0 90 57 60
        E 0 90 63 60
        E 60 80 3f 00
        E 0 80 4b 00
        E 0 80 57 00
        E 0 80 63 00
        E 60 90 64 60
        E 60 80 64 00
        E 60 90 57 60
        E 0 90 63 60
        E 360 80 57 00
        E 0 80 63 00
        E 120 90 56 60
        E 0 90 62 60
        E 80 80 56 00
        E 0 80 62 00
        E 0 90 63 60
        E 0 90 65 60
        E 80 80 63 00
        E 0 90 62 60
        E 80 80 62 00
        E 0 90 3d 60
        E 0 90 49 60
        E 0 90 55 60
        E 0 90 61 60
        E 120 80 65 00
        E 0 80 3d 00
        E 0 80 49 00
        E 240 80 55 00
        E 0 80 61 00
        E 120 90 3c 60
        E 0 90 48 60
        E 0 90 54 60
        E 0 90 60 60
        E 60 80 3c 00
        E 0 80 48 00
        E 0 80 54 00
        E 0 80 60 00
        E 180 90 58 60
        E 0 90 64 60
        E 60 80 58 00
        E 0 80 64 00
        E 180 90 3f 60
        E 0 90 4b 60
        E 0 90 57 60
        E 0 90 63 60
        E 80 80 3f 00
        E 0 80 4b 00
        E 0 80 57 00
        E 0 80 63 00
        E 0 90 64 60
        E 0 90 65 60
        E 80 80 64 00
        E 0 90 63 60
        E 80 80 63 00
        E 0 90 56 60
        E 0 90 62 60
        E 80 80 65 00
        E 40 80 56 00
        E 0 80 62 00
        E 120 90 3f 60
        E 0 90 4b 60
        E 0 90 57 60
        E 0 90 63 60
        E 480 80 3f 00
        E 0 80 4b 00
        E 120 80 57 00
        E 0 80 63 00
        E 120 90 56 60
        E 0 90 62 60
        E 80 80 56 00
        E 0 80 62 00
        E 0 90 63 60
        E 0 90 65 60
        E 79 90 62 60
        E 1 80 63 00
        E 79 80 62 00
        E 1 90 3d 60
        E 0 90 49 60
        E 0 90 55 60
        E 0 90 61 60
        E 80 80 65 00
        E 40 80 3d 00
        E 0 80 49 00
        E 480 80 55 00
        E 0 80 61 00
        E 120 90 3c 60
        E 0 90 48 60
        E 0 90 54 60
        E 0 90 60 60
        E 1200 80 3c 00
        E 0 80 48 00
        E 360 80 54 00
        E 0 80 60 00
        E 120 90 3c 60
        E 0 90 48 60
        E 0 90 54 60
        E 0 90 60 60
        E 120 80 3c 00
        E 0 80 48 00
        E 240 80 54 00
        E 0 80 60 00
        E 120 90 3e 60
        E 0 90 4a 60
        E 0 90 56 60
        E 0 90 62 60
        E 960 80 3e 00
        E 0 80 4a 00
        E 360 80 56 00
        E 0 80 62 00
        E 120 90 3f 60
        E 0 90 4b 60
        E 0 90 57 60
        E 0 90 63 60
        E 60 80 3f 00
        E 0 80 4b 00
        E 0 80 57 00
        E 0 80 63 00
        E 60 90 64 60
        E 60 80 64 00
        E 60 90 57 60
        E 0 90 63 60
        E 360 80 57 00
        E 0 80 63 00
        E 120 90 56 60
        E 0 90 62 60
        E 80 80 56 00
        E 0 80 62 00
        E 0 90 63 60
        E 0 90 65 60
        E 80 80 63 00
        E 0 90 62 60
        E 80 80 62 00
        E 0 90 3d 60
        E 0 90 49 60
        E 0 90 55 60
        E 0 90 61 60
        E 80 80 65 00
        E 40 80 3d 00
        E 0 80 49 00
        E 240 80 55 00
        E 0 80 61 00
        E 120 90 3c 60
        E 0 90 48 60
        E 0 90 54 60
        E 0 90 60 60
        E 60 80 3c 00
        E 0 80 48 00
        E 0 80 54 00
        E 0 80 60 00
        E 180 90 58 60
        E 0 90 64 60
        E 60 80 58 00
        E 0 80 64 00
        E 180 90 3f 60
        E 0 90 4b 60
        E 0 90 57 60
        E 0 90 63 60
        E 80 80 3f 00
        E 0 80 4b 00
        E 0 80 57 00
        E 0 80 63 00
        E 0 90 64 60
        E 0 90 65 60
        E 80 80 64 00
        E 0 90 63 60
        E 80 80 63 00
        E 0 90 56 60
        E 0 90 62 60
        E 80 80 65 00
        E 40 80 56 00
        E 0 80 62 00
        E 120 90 3f 60
        E 0 90 4b 60
        E 0 90 57 60
        E 0 90 63 60
        E 120 80 3f 00
        E 0 80 4b 00
        E 0 80 57 00
        E 0 80 63 00
        E 360 90 3c 60
        E 0 90 48 60
        E 0 90 54 60
        E 0 90 60 60
        E 120 80 3c 00
        E 0 80 48 00
        E 0 80 54 00
        E 0 80 60 00
        E 0 90 61 60
        E 0 90 65 60
        E 120 80 61 00
        E 0 90 56 60
        E 0 90 62 60
        E 120 80 56 00
        E 0 80 62 00
        E 0 90 63 60
        E 120 80 63 00
        E 0 90 40 60
        E 0 90 4c 60
        E 0 90 58 60
        E 0 90 64 60
        E 120 80 40 00
        E 0 80 4c 00
        E 0 80 58 00
        E 0 80 64 00
        E 0 90 63 60
        E 120 80 63 00
        E 0 90 56 60
        E 0 90 62 60
        E 120 80 56 00
        E 0 80 62 00
        E 0 90 63 60
        E 120 80 65 00
        E 0 80 63 00
        E 120 90 63 60
        E 120 80 63 00
        E 0 90 3e 60
        E 0 90 4a 60
        E 0 90 56 60
        E 0 90 62 60
        E 0 90 65 60
        E 120 80 3e 00
        E 0 80 4a 00
        E 0 80 56 00
        E 0 80 62 00
        E 0 80 65 00
        E 240 90 56 60
        E 0 90 62 60
        E 120 80 56 00
        E 0 80 62 00
        E 120 90 62 60
        E 120 80 62 00
        E 0 90 3c 60
        E 0 90 48 60
        E 0 90 54 60
        E 0 90 60 60
        E 0 90 65 60
        E 120 80 3c 00
        E 0 80 48 00
        E 0 80 54 00
        E 0 80 60 00
        E 0 90 61 60
        E 120 80 61 00
        E 0 90 54 60
        E 0 90 60 60
        E 120 80 54 00
        E 0 80 60 00
        E 0 90 61 60
        E 120 80 65 00
        E 0 80 61 00
        E 0 90 3d 60
        E 0 90 3f 60
        E 0 90 40 60
        E 0 90 49 60
        E 0 90 4b 60
        E 0 90 4c 60
        E 0 90 55 60
        E 0 90 57 60
        E 0 90 58 60
        E 0 90 61 60
        E 0 90 63 60
        E 0 90 64 60
        E 120 80 3d 00
        E 0 80 3f 00
        E 0 80 40 00
        E 0 80 49 00
        E 0 80 4b 00
        E 0 80 4c 00
        E 0 80 55 00
        E 0 80 57 00
        E 0 80 58 00
        E 0 80 61 00
        E 0 80 63 00
        E 0 80 64 00
        E 0 90 61 60
        E 0 90 63 60
        E 0 90 64 60
        E 120 80 61 00
        E 0 80 63 00
        E 0 80 64 00
        E 0 90 55 60
        E 0 90 57 60
        E 0 90 58 60
        E 0 90 61 60
        E 0 90 63 60
        E 0 90 64 60
        E 120 80 55 00
        E 0 80 57 00
        E 0 80 58 00
        E 0 80 61 00
        E 0 80 63 00
        E 0 80 64 00
        <X 119 0
          /wFbaWRsZV9yZWFsdGltZV0=
        >
        E 1 b0 7b 00
        GUID {534FEC06-AF47-4D46-9C63-1F0458AD64CF}
        IGNTEMPO 0 120.00000000 4 4
        SRCCOLOR 57
        VELLANE 132 71 60
        COLORMAP "C:\Program Files (x86)\REAPER\Data\color_maps\rockband_guitarbass.png"
      >
    >
  >
  <TRACK '{FE4FCD96-94E8-43BF-925C-18D048EBFFE3}'
    NAME "PART REAL_KEYS_X - town"
    PEAKCOL 16576
    BEAT -1
    AUTOMODE 0
    VOLPAN 1.00000000000000 0.00000000000000 -1.00000000000000 -1.00000000000000 1.00000000000000
    MUTESOLO 0 0 0
    IPHASE 0
    ISBUS 0 0
    BUSCOMP 0 0
    SHOWINMIX 1 0.666700 0.500000 1 0.500000 -1 -1 -1
    FREEMODE 0
    SEL 0
    REC 0 0 0 0 0 0 0
    VU 2
    TRACKHEIGHT 0 0
    INQ 0 0 0 0.5000000000 100 0 0 100
    NCHAN 2
    FX 1
    TRACKID {FE4FCD96-94E8-43BF-925C-18D048EBFFE3}
    PERF 0
    MIDIOUT -1
    MAINSEND 1 0
    <ITEM
      POSITION 0.00000000000000
      SNAPOFFS 0.00000000000000
      LENGTH 81.00000000000000
      LOOP 0
      ALLTAKES 0
      SEL 0
      FADEIN 1 0.000000 0.000000 1 0
      FADEOUT 1 0.000000 0.000000 1 0
      MUTE 0
      IGUID {C2FA0D99-6432-40A7-A219-EC2CB8126DB3}
      IID 7
      NAME "PART REAL_KEYS_X"
      VOLPAN 1.000000 0.000000 1.000000 -1.000000
      SOFFS 0.00000000000000 0.00000000000000
      PLAYRATE 1.00000000000000 1 0.00000000000000 -1
      CHANMODE 0
      GUID {6B9B580F-AE30-4F06-8677-50851AD24A09}
      <SOURCE MIDI
        HASDATA 1 480 QN
        POOLEDEVTS {BC9517BE-822A-4185-861B-B641727D2029}
        <X 0 0
          /wNQQVJUIFJFQUxfS0VZU19Y
        >
        E 0 90 00 60
        E 60 80 00 00
        <X 3780 0
          /wFbYmVnaW5fa2V5IHNvbmdfdHJhaW5lcl9rZXlfMV0=
        >
        E 0 90 34 60
        E 0 90 36 60
        E 0 90 3b 60
        E 0 90 3f 60
        E 0 90 74 60
        E 60 80 34 00
        E 0 80 36 00
        E 0 80 3b 00
        E 0 80 3f 00
        E 60 90 34 60
        E 0 90 36 60
        E 0 90 3b 60
        E 0 90 3f 60
        E 60 80 34 00
        E 0 80 36 00
        E 0 80 3b 00
        E 0 80 3f 00
        E 60 90 34 60
        E 0 90 36 60
        E 0 90 3b 60
        E 0 90 3f 60
        E 60 80 34 00
        E 0 80 36 00
        E 0 80 3b 00
        E 0 80 3f 00
        <X 660 0
          /wFbZW5kX2tleSBzb25nX3RyYWluZXJfa2V5XzFd
        >
        E 120 80 74 00
        <X 3720 0
          /wFbYmVnaW5fa2V5IHNvbmdfdHJhaW5lcl9rZXlfMl0=
        >
        E 240 90 3b 60
        E 0 90 3f 60
        E 60 80 3b 00
        E 0 80 3f 00
        E 60 90 38 60
        E 0 90 3d 60
        E 60 80 38 00
        E 0 80 3d 00
        E 60 90 3b 60
        E 0 90 3f 60
        E 60 80 3b 00
        E 0 80 3f 00
        E 60 90 36 60
        E 0 90 3d 60
        E 60 80 36 00
        E 0 80 3d 00
        E 60 90 38 60
        E 0 90 3f 60
        E 60 80 38 00
        E 0 80 3f 00
        E 180 90 34 60
        E 0 90 3b 60
        E 60 80 34 00
        E 0 80 3b 00
        E 180 90 34 60
        E 0 90 3b 60
        E 60 80 34 00
        E 0 80 3b 00
        E 60 90 33 60
        E 0 90 38 60
        E 60 80 33 00
        E 0 80 38 00
        E 180 90 33 60
        E 0 90 38 60
        E 60 80 33 00
        E 0 80 38 00
        E 60 90 33 60
        E 0 90 38 60
        E 60 80 33 00
        E 0 80 38 00
        E 60 90 31 60
        E 0 90 36 60
        E 60 80 31 00
        E 0 80 36 00
        E 180 90 31 60
        E 0 90 36 60
        E 60 80 31 00
        E 0 80 36 00
        E 300 90 31 60
        E 0 90 36 60
        E 60 80 31 00
        E 0 80 36 00
        E 60 90 33 60
        E 0 90 38 60
        E 60 80 33 00
        E 0 80 38 00
        <X 1260 0
          /wFbZW5kX2tleSBzb25nX3RyYWluZXJfa2V5XzJd
        >
        <X 0 0
          /wFbYmVnaW5fa2V5IHNvbmdfdHJhaW5lcl9rZXlfM10=
        >
        E 0 90 3d 60
        E 1320 80 3d 00
        E 120 90 3f 60
        E 120 80 3f 00
        E 0 90 40 60
        E 120 80 40 00
        E 0 90 3f 60
        E 360 80 3f 00
        E 120 90 3d 60
        E 80 80 3d 00
        E 0 90 3f 60
        E 80 80 3f 00
        E 0 90 3d 60
        E 80 80 3d 00
        E 0 90 3b 60
        E 400 80 3b 00
        E 80 90 3a 60
        E 120 80 3a 00
        E 120 90 3d 60
        E 120 80 3d 00
        E 120 90 3b 60
        E 80 80 3b 00
        E 0 90 3d 60
        E 80 80 3d 00
        E 0 90 3b 60
        E 80 80 3b 00
        E 0 90 3a 60
        E 120 80 3a 00
        E 120 90 3b 60
        E 0 90 74 60
        E 600 80 3b 00
        E 120 90 39 60
        E 80 80 39 00
        E 0 90 3b 60
        E 80 80 3b 00
        E 0 90 39 60
        E 80 80 39 00
        E 0 90 38 60
        E 600 80 38 00
        E 120 90 36 60
        E 240 80 74 00
        E 1320 80 36 00
        E 120 90 36 60
        E 360 80 36 00
        <X 120 0
          /wFbYmVnaW5fa2V5IHNvbmdfdHJhaW5lcl9rZXlfNF0=
        >
        <X 0 0
          /wFbZW5kX2tleSBzb25nX3RyYWluZXJfa2V5XzNd
        >
        E 0 90 3d 60
        E 1320 80 3d 00
        E 120 90 3f 60
        E 120 80 3f 00
        E 0 90 40 60
        E 120 80 40 00
        E 0 90 3f 60
        E 360 80 3f 00
        E 120 90 3d 60
        E 80 80 3d 00
        E 0 90 3f 60
        E 80 80 3f 00
        E 0 90 3d 60
        E 80 80 3d 00
        E 0 90 3b 60
        E 400 80 3b 00
        E 80 90 3a 60
        E 120 80 3a 00
        E 120 90 3d 60
        E 120 80 3d 00
        E 120 90 3b 60
        E 80 80 3b 00
        E 0 90 3d 60
        E 80 80 3d 00
        E 0 90 3b 60
        E 80 80 3b 00
        E 0 90 3a 60
        E 120 80 3a 00
        E 120 90 3b 60
        E 0 90 74 60
        E 120 80 3b 00
        E 120 90 3b 60
        E 0 90 3f 60
        E 60 80 3b 00
        E 0 80 3f 00
        E 60 90 38 60
        E 0 90 3d 60
        E 60 80 38 00
        E 0 80 3d 00
        E 60 90 3b 60
        E 0 90 3f 60
        E 60 80 3b 00
        E 0 80 3f 00
        E 60 90 36 60
        E 0 90 3d 60
        E 60 80 36 00
        E 0 80 3d 00
        E 60 90 38 60
        E 0 90 3f 60
        E 60 80 38 00
        E 0 80 3f 00
        E 180 90 34 60
        E 0 90 3b 60
        E 60 80 34 00
        E 0 80 3b 00
        E 180 90 34 60
        E 0 90 3b 60
        E 60 80 34 00
        E 0 80 3b 00
        E 60 90 33 60
        E 0 90 38 60
        E 60 80 33 00
        E 0 80 38 00
        E 180 90 33 60
        E 0 90 38 60
        E 60 80 33 00
        E 0 80 38 00
        E 60 90 33 60
        E 0 90 38 60
        E 60 80 33 00
        E 0 80 38 00
        E 60 90 31 60
        E 0 90 36 60
        E 60 80 31 00
        E 0 80 36 00
        E 180 90 31 60
        E 0 90 36 60
        E 60 80 31 00
        E 0 80 36 00
        E 300 90 31 60
        E 0 90 36 60
        E 60 80 31 00
        E 0 80 36 00
        E 60 90 33 60
        E 0 90 38 60
        E 60 80 33 00
        E 0 80 38 00
        E 300 90 34 60
        E 0 90 36 60
        E 0 90 3b 60
        E 0 90 3f 60
        E 60 80 34 00
        E 0 80 36 00
        E 0 80 3b 00
        E 0 80 3f 00
        E 60 90 34 60
        E 0 90 36 60
        E 0 90 3b 60
        E 0 90 3f 60
        E 60 80 34 00
        E 0 80 36 00
        E 0 80 3b 00
        E 0 80 3f 00
        E 60 90 34 60
        E 0 90 36 60
        E 0 90 3b 60
        E 0 90 3f 60
        E 60 80 34 00
        E 0 80 36 00
        E 0 80 3b 00
        E 0 80 3f 00
        <X 660 0
          /wFbZW5kX2tleSBzb25nX3RyYWluZXJfa2V5XzRd
        >
        E 0 80 74 00
        <X 1920 0
          /wFbYmVnaW5fa2V5IHNvbmdfdHJhaW5lcl9rZXlfNV0=
        >
        E 720 90 33 60
        E 60 80 33 00
        E 60 90 36 60
        E 60 80 36 00
        E 60 90 38 60
        E 60 80 38 00
        E 60 90 36 60
        E 60 80 36 00
        E 60 90 33 60
        E 60 80 33 00
        E 60 90 36 60
        E 60 80 36 00
        E 180 90 36 60
        E 0 90 3a 60
        E 0 90 3d 60
        E 60 80 36 00
        E 0 80 3a 00
        E 0 80 3d 00
        E 60 90 38 60
        E 0 90 3b 60
        E 0 90 3f 60
        E 60 80 38 00
        E 0 80 3b 00
        E 0 80 3f 00
        <X 180 0
          /wFbZW5kX2tleSBzb25nX3RyYWluZXJfa2V5XzVd
        >
        <X 0 0
          /wFbYmVnaW5fa2V5IHNvbmdfdHJhaW5lcl9rZXlfNl0=
        >
        E 0 90 73 60
        E 240 90 38 60
        E 0 90 3b 60
        E 120 80 38 00
        E 0 80 3b 00
        E 0 90 36 60
        E 0 90 3a 60
        E 120 80 36 00
        E 0 80 3a 00
        E 0 90 38 60
        E 0 90 3b 60
        E 120 80 38 00
        E 0 80 3b 00
        E 120 90 36 60
        E 0 90 3a 60
        E 120 80 36 00
        E 0 80 3a 00
        E 120 90 38 60
        E 0 90 3b 60
        E 120 80 38 00
        E 0 80 3b 00
        E 120 90 36 60
        E 0 90 3a 60
        E 120 80 36 00
        E 0 80 3a 00
        E 0 90 3b 60
        E 0 90 3f 60
        E 120 80 3b 00
        E 0 80 3f 00
        E 120 90 36 60
        E 0 90 3a 60
        E 120 80 36 00
        E 0 80 3a 00
        E 0 90 36 60
        E 0 90 3d 60
        E 240 80 36 00
        E 0 80 3d 00
        E 120 90 3b 60
        E 0 90 3f 60
        E 120 80 3b 00
        E 0 80 3f 00
        E 240 90 3a 60
        E 0 90 3d 60
        E 120 80 3a 00
        E 0 80 3d 00
        E 120 90 3b 60
        E 0 90 3f 60
        E 120 80 3b 00
        E 0 80 3f 00
        E 0 90 3a 60
        E 0 90 3d 60
        E 120 80 3a 00
        E 0 80 3d 00
        E 0 90 38 60
        E 0 90 3b 60
        E 120 80 38 00
        E 0 80 3b 00
        E 0 90 3a 60
        E 0 90 3d 60
        E 120 80 3a 00
        E 0 80 3d 00
        E 240 90 36 60
        E 0 90 3d 60
        E 120 80 36 00
        E 0 80 3d 00
        E 0 90 38 60
        E 0 90 3f 60
        E 120 80 38 00
        E 0 80 3f 00
        E 240 90 74 60
        E 240 90 3b 60
        E 0 90 3f 60
        E 120 80 3b 00
        E 0 80 3f 00
        E 120 90 3b 60
        E 0 90 3f 60
        E 120 80 3b 00
        E 0 80 3f 00
        E 120 90 36 60
        E 120 80 36 00
        E 120 90 3b 60
        E 0 90 40 60
        E 120 80 3b 00
        E 0 80 40 00
        E 0 90 3d 60
        E 120 80 3d 00
        E 120 90 3d 60
        E 0 90 40 60
        E 120 80 3d 00
        E 0 80 40 00
        E 240 90 3a 60
        E 0 90 3d 60
        E 240 80 74 00
        E 0 80 3a 00
        E 0 80 3d 00
        E 120 90 3a 60
        E 0 90 3d 60
        E 120 80 3a 00
        E 0 80 3d 00
        E 240 90 3a 60
        E 0 90 3d 60
        E 120 80 3a 00
        E 0 80 3d 00
        E 120 90 34 60
        E 120 80 34 00
        E 0 90 36 60
        E 120 80 36 00
        E 0 90 3a 60
        E 0 90 3d 60
        E 120 80 3a 00
        E 0 80 3d 00
        E 120 90 34 60
        E 120 80 34 00
        E 0 90 36 60
        E 120 80 36 00
        E 0 90 38 60
        E 0 90 3b 60
        E 120 80 38 00
        E 0 80 3b 00
        E 120 90 3a 60
        E 0 90 3d 60
        E 120 80 3a 00
        E 0 80 3d 00
        E 120 90 3b 60
        E 0 90 3f 60
        E 240 80 3b 00
        E 0 80 3f 00
        E 120 90 3b 60
        E 0 90 3f 60
        E 120 80 3b 00
        E 0 80 3f 00
        E 120 90 3b 60
        E 0 90 3f 60
        E 120 80 3b 00
        E 0 80 3f 00
        E 120 90 36 60
        E 120 80 36 00
        E 0 90 3b 60
        E 0 90 40 60
        E 120 80 3b 00
        E 0 80 40 00
        E 0 90 3d 60
        E 120 80 3d 00
        E 120 90 3d 60
        E 0 90 40 60
        E 120 80 3d 00
        E 0 80 40 00
        E 120 90 3d 60
        E 0 90 40 60
        E 120 80 3d 00
        E 0 80 40 00
        E 120 90 36 60
        E 120 80 36 00
        E 0 90 3a 60
        E 0 90 3d 60
        E 240 80 3a 00
        E 0 80 3d 00
        E 120 90 3a 60
        E 0 90 3d 60
        E 120 80 3a 00
        E 0 80 3d 00
        E 120 90 3a 60
        E 0 90 3d 60
        E 120 80 3a 00
        E 0 80 3d 00
        E 0 90 34 60
        E 120 80 34 00
        E 0 90 36 60
        E 120 80 36 00
        E 0 90 3a 60
        E 0 90 3d 60
        E 120 80 3a 00
        E 0 80 3d 00
        E 120 90 34 60
        E 120 80 34 00
        E 0 90 36 60
        E 120 80 36 00
        E 0 90 38 60
        E 0 90 3b 60
        E 120 80 38 00
        E 0 80 3b 00
        E 120 90 3a 60
        E 0 90 3d 60
        E 120 80 3a 00
        E 0 80 3d 00
        E 120 90 36 60
        E 0 90 3b 60
        E 0 90 3f 60
        E 1920 80 73 00
        E 0 80 36 00
        E 0 80 3b 00
        E 0 80 3f 00
        E 960 90 34 60
        E 0 90 36 60
        E 0 90 3b 60
        E 0 90 3f 60
        E 60 80 34 00
        E 0 80 36 00
        E 0 80 3b 00
        E 0 80 3f 00
        E 60 90 34 60
        E 0 90 36 60
        E 0 90 3b 60
        E 0 90 3f 60
        E 60 80 34 00
        E 0 80 36 00
        E 0 80 3b 00
        E 0 80 3f 00
        E 60 90 34 60
        E 0 90 36 60
        E 0 90 3b 60
        E 0 90 3f 60
        E 60 80 34 00
        E 0 80 36 00
        E 0 80 3b 00
        E 0 80 3f 00
        <X 660 0
          /wFbZW5kX2tleSBzb25nX3RyYWluZXJfa2V5XzZd
        >
        E 11760 90 3b 60
        E 0 90 3f 60
        E 0 90 74 60
        E 60 80 3b 00
        E 0 80 3f 00
        E 60 90 38 60
        E 0 90 3d 60
        E 60 80 38 00
        E 0 80 3d 00
        E 60 90 3b 60
        E 0 90 3f 60
        E 60 80 3b 00
        E 0 80 3f 00
        E 60 90 36 60
        E 0 90 3d 60
        E 60 80 36 00
        E 0 80 3d 00
        E 60 90 38 60
        E 0 90 3f 60
        E 60 80 38 00
        E 0 80 3f 00
        E 180 90 34 60
        E 0 90 3b 60
        E 60 80 34 00
        E 0 80 3b 00
        E 180 90 34 60
        E 0 90 3b 60
        E 60 80 34 00
        E 0 80 3b 00
        E 60 90 33 60
        E 0 90 38 60
        E 60 80 33 00
        E 0 80 38 00
        E 180 90 33 60
        E 0 90 38 60
        E 60 80 33 00
        E 0 80 38 00
        E 60 90 33 60
        E 0 90 38 60
        E 60 80 33 00
        E 0 80 38 00
        E 60 90 31 60
        E 0 90 36 60
        E 60 80 31 00
        E 0 80 36 00
        E 180 90 31 60
        E 0 90 36 60
        E 60 80 31 00
        E 0 80 36 00
        E 300 90 31 60
        E 0 90 36 60
        E 60 80 31 00
        E 0 80 36 00
        E 60 90 33 60
        E 0 90 38 60
        E 60 80 33 00
        E 0 80 38 00
        E 60 80 74 00
        <X 1200 0
          /wFbYmVnaW5fa2V5IHNvbmdfdHJhaW5lcl9rZXlfN10=
        >
        E 0 90 05 60
        E 0 90 3f 60
        E 120 80 05 00
        E 1200 80 3f 00
        E 120 90 41 60
        E 120 80 41 00
        E 0 90 42 60
        E 120 80 42 00
        E 0 90 41 60
        E 360 80 41 00
        E 120 90 3f 60
        E 80 80 3f 00
        E 0 90 41 60
        E 80 80 41 00
        E 0 90 3f 60
        E 80 80 3f 00
        E 0 90 3d 60
        E 400 80 3d 00
        E 80 90 3c 60
        E 120 80 3c 00
        E 120 90 3f 60
        E 120 80 3f 00
        E 120 90 3d 60
        E 80 80 3d 00
        E 0 90 3f 60
        E 80 80 3f 00
        E 0 90 3d 60
        E 80 80 3d 00
        E 0 90 3c 60
        E 120 80 3c 00
        E 120 90 3d 60
        E 600 80 3d 00
        E 120 90 3b 60
        E 80 80 3b 00
        E 0 90 3d 60
        E 80 80 3d 00
        E 0 90 3b 60
        E 80 80 3b 00
        E 0 90 3a 60
        E 600 80 3a 00
        E 120 90 38 60
        E 1560 80 38 00
        E 120 90 38 60
        E 360 80 38 00
        <X 120 0
          /wFbZW5kX2tleSBzb25nX3RyYWluZXJfa2V5Xzdd
        >
        <X 0 0
          /wFbYmVnaW5fa2V5IHNvbmdfdHJhaW5lcl9rZXlfOF0=
        >
        E 0 90 3f 60
        E 1320 80 3f 00
        E 120 90 41 60
        E 120 80 41 00
        E 0 90 42 60
        E 120 80 42 00
        E 0 90 41 60
        E 360 80 41 00
        E 120 90 3f 60
        E 80 80 3f 00
        E 0 90 41 60
        E 80 80 41 00
        E 0 90 3f 60
        E 80 80 3f 00
        E 0 90 3d 60
        E 400 80 3d 00
        E 80 90 3c 60
        E 120 80 3c 00
        E 120 90 3f 60
        E 120 80 3f 00
        E 120 90 3d 60
        E 80 80 3d 00
        E 0 90 3f 60
        E 80 80 3f 00
        E 0 90 3d 60
        E 80 80 3d 00
        E 0 90 3c 60
        E 120 80 3c 00
        E 120 90 00 60
        E 0 90 3d 60
        E 120 80 00 00
        E 0 80 3d 00
        E 360 90 33 60
        E 60 80 33 00
        E 60 90 35 60
        E 60 80 35 00
        E 60 90 38 60
        E 60 80 38 00
        E 60 90 3a 60
        E 60 80 3a 00
        E 60 90 3d 60
        E 60 80 3d 00
        E 60 90 3a 60
        E 60 80 3a 00
        E 60 90 38 60
        E 60 80 38 00
        E 60 90 3a 60
        E 60 80 3a 00
        E 180 90 3a 60
        E 60 80 3a 00
        E 60 90 38 60
        E 60 80 38 00
        E 300 90 38 60
        E 60 80 38 00
        E 180 90 38 60
        E 60 80 38 00
        E 60 90 33 60
        E 60 80 33 00
        E 60 90 35 60
        E 60 80 35 00
        E 60 90 33 60
        E 60 80 33 00
        E 60 90 35 60
        E 60 80 35 00
        E 60 90 35 60
        E 0 90 36 60
        E 0 90 3a 60
        E 0 90 3d 60
        E 60 80 35 00
        E 0 80 36 00
        E 0 80 3a 00
        E 0 80 3d 00
        E 60 90 35 60
        E 0 90 36 60
        E 0 90 3a 60
        E 0 90 3d 60
        E 60 80 35 00
        E 0 80 36 00
        E 0 80 3a 00
        E 0 80 3d 00
        E 60 90 35 60
        E 0 90 36 60
        E 0 90 3a 60
        E 0 90 3d 60
        E 60 80 35 00
        E 0 80 36 00
        E 0 80 3a 00
        E 0 80 3d 00
        <X 659 0
          /wFbZW5kX2tleSBzb25nX3RyYWluZXJfa2V5Xzhd
        >
        E 1 b0 7b 00
        GUID {B03AB853-225F-426E-9C51-22EC7ACC6FAE}
        IGNTEMPO 0 120.00000000 4 4
        SRCCOLOR 58
        VELLANE 132 71 60
        COLORMAP "C:\Program Files (x86)\REAPER\Data\color_maps\rockband_guitarbass.png"
      >
    >
  >
  <TRACK '{DE21D368-B191-4110-98A5-9292053ADEF6}'
    NAME "PART REAL_KEYS_H - town"
    PEAKCOL 16576
    BEAT -1
    AUTOMODE 0
    VOLPAN 1.00000000000000 0.00000000000000 -1.00000000000000 -1.00000000000000 1.00000000000000
    MUTESOLO 0 0 0
    IPHASE 0
    ISBUS 0 0
    BUSCOMP 0 0
    SHOWINMIX 1 0.666700 0.500000 1 0.500000 -1 -1 -1
    FREEMODE 0
    SEL 0
    REC 0 0 0 0 0 0 0
    VU 2
    TRACKHEIGHT 0 0
    INQ 0 0 0 0.5000000000 100 0 0 100
    NCHAN 2
    FX 1
    TRACKID {DE21D368-B191-4110-98A5-9292053ADEF6}
    PERF 0
    MIDIOUT -1
    MAINSEND 1 0
    <ITEM
      POSITION 0.00000000000000
      SNAPOFFS 0.00000000000000
      LENGTH 80.50000000000000
      LOOP 0
      ALLTAKES 0
      SEL 0
      FADEIN 1 0.000000 0.000000 1 0
      FADEOUT 1 0.000000 0.000000 1 0
      MUTE 0
      IGUID {22975E2A-CC05-4A9F-980E-8B7F8540CF8B}
      IID 8
      NAME "PART REAL_KEYS_H"
      VOLPAN 1.000000 0.000000 1.000000 -1.000000
      SOFFS 0.00000000000000 0.00000000000000
      PLAYRATE 1.00000000000000 1 0.00000000000000 -1
      CHANMODE 0
      GUID {E90002AC-2A3B-4EDE-985D-681913A53F06}
      <SOURCE MIDI
        HASDATA 1 480 QN
        POOLEDEVTS {02B95F8C-9130-4832-825F-07A1FD6CC608}
        <X 0 0
          /wNQQVJUIFJFQUxfS0VZU19I
        >
        E 0 90 00 60
        E 60 80 00 00
        E 3780 90 34 60
        E 0 90 3b 60
        E 0 90 3f 60
        E 60 80 34 00
        E 0 80 3b 00
        E 0 80 3f 00
        E 180 90 34 60
        E 0 90 3b 60
        E 0 90 3f 60
        E 60 80 34 00
        E 0 80 3b 00
        E 0 80 3f 00
        E 4740 90 3b 60
        E 0 90 3f 60
        E 60 80 3b 00
        E 0 80 3f 00
        E 180 90 3b 60
        E 0 90 3f 60
        E 60 80 3b 00
        E 0 80 3f 00
        E 180 90 38 60
        E 0 90 3f 60
        E 60 80 38 00
        E 0 80 3f 00
        E 180 90 34 60
        E 0 90 3b 60
        E 60 80 34 00
        E 0 80 3b 00
        E 180 90 34 60
        E 0 90 3b 60
        E 60 80 34 00
        E 0 80 3b 00
        E 420 90 33 60
        E 0 90 38 60
        E 60 80 33 00
        E 0 80 38 00
        E 300 90 31 60
        E 0 90 36 60
        E 60 80 31 00
        E 0 80 36 00
        E 300 90 31 60
        E 0 90 36 60
        E 60 80 31 00
        E 0 80 36 00
        E 1380 90 3d 60
        E 1320 80 3d 00
        E 120 90 3f 60
        E 120 80 3f 00
        E 120 90 3f 60
        E 360 80 3f 00
        E 120 90 3d 60
        E 80 80 3d 00
        E 160 90 3b 60
        E 400 80 3b 00
        E 80 90 3a 60
        E 120 80 3a 00
        E 120 90 3d 60
        E 120 80 3d 00
        E 120 90 3b 60
        E 80 80 3b 00
        E 160 90 3a 60
        E 120 80 3a 00
        E 120 90 3b 60
        E 600 80 3b 00
        E 120 90 39 60
        E 80 80 39 00
        E 160 90 38 60
        E 600 80 38 00
        E 120 90 36 60
        E 1560 80 36 00
        E 120 90 36 60
        E 360 80 36 00
        E 120 90 3d 60
        E 1320 80 3d 00
        E 120 90 3f 60
        E 120 80 3f 00
        E 120 90 3f 60
        E 360 80 3f 00
        E 120 90 3d 60
        E 80 80 3d 00
        E 160 90 3b 60
        E 400 80 3b 00
        E 80 90 3a 60
        E 120 80 3a 00
        E 120 90 3d 60
        E 120 80 3d 00
        E 120 90 3b 60
        E 80 80 3b 00
        E 160 90 3a 60
        E 120 80 3a 00
        E 120 90 3b 60
        E 120 80 3b 00
        E 120 90 3b 60
        E 0 90 3f 60
        E 60 80 3b 00
        E 0 80 3f 00
        E 180 90 3b 60
        E 0 90 3f 60
        E 60 80 3b 00
        E 0 80 3f 00
        E 180 90 38 60
        E 0 90 3f 60
        E 60 80 38 00
        E 0 80 3f 00
        E 180 90 34 60
        E 0 90 3b 60
        E 60 80 34 00
        E 0 80 3b 00
        E 180 90 34 60
        E 0 90 3b 60
        E 60 80 34 00
        E 0 80 3b 00
        E 420 90 33 60
        E 0 90 38 60
        E 60 80 33 00
        E 0 80 38 00
        E 300 90 31 60
        E 0 90 36 60
        E 60 80 31 00
        E 0 80 36 00
        E 300 90 31 60
        E 0 90 36 60
        E 60 80 31 00
        E 0 80 36 00
        E 420 90 34 60
        E 0 90 3b 60
        E 0 90 3f 60
        E 60 80 34 00
        E 0 80 3b 00
        E 0 80 3f 00
        E 180 90 34 60
        E 0 90 3b 60
        E 0 90 3f 60
        E 60 80 34 00
        E 0 80 3b 00
        E 0 80 3f 00
        E 3300 90 33 60
        E 60 80 33 00
        E 180 90 38 60
        E 60 80 38 00
        E 180 90 33 60
        E 60 80 33 00
        E 420 90 38 60
        E 0 90 3b 60
        E 0 90 3f 60
        E 60 80 38 00
        E 0 80 3b 00
        E 0 80 3f 00
        E 420 90 38 60
        E 0 90 3b 60
        E 120 80 38 00
        E 0 80 3b 00
        E 120 90 38 60
        E 0 90 3b 60
        E 120 80 38 00
        E 0 80 3b 00
        E 120 90 36 60
        E 0 90 3a 60
        E 120 80 36 00
        E 0 80 3a 00
        E 120 90 38 60
        E 0 90 3b 60
        E 120 80 38 00
        E 0 80 3b 00
        E 120 90 36 60
        E 0 90 3a 60
        E 120 80 36 00
        E 0 80 3a 00
        E 360 90 36 60
        E 0 90 3d 60
        E 240 80 36 00
        E 0 80 3d 00
        E 120 90 3b 60
        E 0 90 3f 60
        E 120 80 3b 00
        E 0 80 3f 00
        E 240 90 3a 60
        E 0 90 3d 60
        E 120 80 3a 00
        E 0 80 3d 00
        E 120 90 3b 60
        E 0 90 3f 60
        E 120 80 3b 00
        E 0 80 3f 00
        E 120 90 38 60
        E 0 90 3b 60
        E 120 80 38 00
        E 0 80 3b 00
        E 360 90 36 60
        E 0 90 3d 60
        E 120 80 36 00
        E 0 80 3d 00
        E 600 90 3b 60
        E 0 90 3f 60
        E 120 80 3b 00
        E 0 80 3f 00
        E 120 90 3b 60
        E 0 90 3f 60
        E 120 80 3b 00
        E 0 80 3f 00
        E 120 90 36 60
        E 120 80 36 00
        E 120 90 3b 60
        E 0 90 40 60
        E 120 80 3b 00
        E 120 80 40 00
        E 120 90 3d 60
        E 0 90 40 60
        E 120 80 3d 00
        E 0 80 40 00
        E 240 90 3a 60
        E 0 90 3d 60
        E 240 80 3a 00
        E 0 80 3d 00
        E 120 90 3a 60
        E 0 90 3d 60
        E 120 80 3a 00
        E 0 80 3d 00
        E 240 90 3a 60
        E 0 90 3d 60
        E 120 80 3a 00
        E 0 80 3d 00
        E 120 90 34 60
        E 120 80 34 00
        E 120 90 3a 60
        E 0 90 3d 60
        E 120 80 3a 00
        E 0 80 3d 00
        E 120 90 34 60
        E 120 80 34 00
        E 120 90 38 60
        E 0 90 3b 60
        E 120 80 38 00
        E 0 80 3b 00
        E 120 90 3a 60
        E 0 90 3d 60
        E 120 80 3a 00
        E 0 80 3d 00
        E 120 90 3b 60
        E 0 90 3f 60
        E 240 80 3b 00
        E 0 80 3f 00
        E 120 90 3b 60
        E 0 90 3f 60
        E 120 80 3b 00
        E 0 80 3f 00
        E 120 90 3b 60
        E 0 90 3f 60
        E 120 80 3b 00
        E 0 80 3f 00
        E 240 90 3b 60
        E 0 90 40 60
        E 120 80 3b 00
        E 120 80 40 00
        E 120 90 3d 60
        E 0 90 40 60
        E 120 80 3d 00
        E 0 80 40 00
        E 120 90 3d 60
        E 0 90 40 60
        E 120 80 3d 00
        E 0 80 40 00
        E 240 90 3a 60
        E 0 90 3d 60
        E 240 80 3a 00
        E 0 80 3d 00
        E 120 90 3a 60
        E 0 90 3d 60
        E 120 80 3a 00
        E 0 80 3d 00
        E 240 90 34 60
        E 120 80 34 00
        E 120 90 3a 60
        E 0 90 3d 60
        E 120 80 3a 00
        E 0 80 3d 00
        E 120 90 34 60
        E 120 80 34 00
        E 120 90 38 60
        E 0 90 3b 60
        E 120 80 38 00
        E 0 80 3b 00
        E 120 90 3a 60
        E 0 90 3d 60
        E 120 80 3a 00
        E 0 80 3d 00
        E 120 90 36 60
        E 0 90 3b 60
        E 0 90 3f 60
        E 1920 80 36 00
        E 0 80 3b 00
        E 0 80 3f 00
        E 960 90 34 60
        E 0 90 3b 60
        E 0 90 3f 60
        E 60 80 34 00
        E 0 80 3b 00
        E 0 80 3f 00
        E 180 90 34 60
        E 0 90 3b 60
        E 0 90 3f 60
        E 60 80 34 00
        E 0 80 3b 00
        E 0 80 3f 00
        E 12420 90 3b 60
        E 0 90 3f 60
        E 60 80 3b 00
        E 0 80 3f 00
        E 180 90 3b 60
        E 0 90 3f 60
        E 60 80 3b 00
        E 0 80 3f 00
        E 180 90 38 60
        E 0 90 3f 60
        E 60 80 38 00
        E 0 80 3f 00
        E 180 90 34 60
        E 0 90 3b 60
        E 60 80 34 00
        E 0 80 3b 00
        E 180 90 34 60
        E 0 90 3b 60
        E 60 80 34 00
        E 0 80 3b 00
        E 420 90 33 60
        E 0 90 38 60
        E 60 80 33 00
        E 0 80 38 00
        E 300 90 31 60
        E 0 90 36 60
        E 60 80 31 00
        E 0 80 36 00
        E 300 90 31 60
        E 0 90 36 60
        E 60 80 31 00
        E 0 80 36 00
        E 1380 90 05 60
        E 0 90 3f 60
        E 120 80 05 00
        E 1200 80 3f 00
        E 120 90 41 60
        E 120 80 41 00
        E 120 90 41 60
        E 360 80 41 00
        E 120 90 3f 60
        E 80 80 3f 00
        E 160 90 3d 60
        E 400 80 3d 00
        E 80 90 3c 60
        E 120 80 3c 00
        E 120 90 3f 60
        E 120 80 3f 00
        E 120 90 3d 60
        E 80 80 3d 00
        E 160 90 3c 60
        E 120 80 3c 00
        E 120 90 3d 60
        E 600 80 3d 00
        E 120 90 3b 60
        E 80 80 3b 00
        E 160 90 3a 60
        E 600 80 3a 00
        E 120 90 38 60
        E 1560 80 38 00
        E 120 90 38 60
        E 360 80 38 00
        E 120 90 3f 60
        E 1320 80 3f 00
        E 120 90 41 60
        E 120 80 41 00
        E 120 90 41 60
        E 360 80 41 00
        E 120 90 3f 60
        E 80 80 3f 00
        E 160 90 3d 60
        E 400 80 3d 00
        E 80 90 3c 60
        E 120 80 3c 00
        E 120 90 3f 60
        E 120 80 3f 00
        E 120 90 3d 60
        E 80 80 3d 00
        E 160 90 3c 60
        E 120 80 3c 00
        E 120 90 00 60
        E 0 90 3d 60
        E 120 80 00 00
        E 0 80 3d 00
        E 360 90 33 60
        E 60 80 33 00
        E 180 90 38 60
        E 60 80 38 00
        E 180 90 3d 60
        E 60 80 3d 00
        E 180 90 38 60
        E 60 80 38 00
        E 420 90 38 60
        E 60 80 38 00
        E 300 90 38 60
        E 60 80 38 00
        E 300 90 33 60
        E 60 80 33 00
        E 180 90 33 60
        E 60 80 33 00
        E 180 90 36 60
        E 0 90 3a 60
        E 0 90 3d 60
        E 60 80 36 00
        E 0 80 3a 00
        E 0 80 3d 00
        E 180 90 36 60
        E 0 90 3a 60
        E 0 90 3d 60
        E 60 80 36 00
        E 0 80 3a 00
        E 0 80 3d 00
        E 180 b0 7b 00
        GUID {878108B5-9058-4876-A45B-4EFC397A20FF}
        IGNTEMPO 0 120.00000000 4 4
        SRCCOLOR 59
        VELLANE 132 71 60
        COLORMAP "C:\Program Files (x86)\REAPER\Data\color_maps\rockband_guitarbass.png"
      >
    >
  >
  <TRACK '{E50ADB6B-C02D-4BF3-97BE-729A1F10D0B4}'
    NAME "PART REAL_KEYS_M - town"
    PEAKCOL 16576
    BEAT -1
    AUTOMODE 0
    VOLPAN 1.00000000000000 0.00000000000000 -1.00000000000000 -1.00000000000000 1.00000000000000
    MUTESOLO 0 0 0
    IPHASE 0
    ISBUS 0 0
    BUSCOMP 0 0
    SHOWINMIX 1 0.666700 0.500000 1 0.500000 -1 -1 -1
    FREEMODE 0
    SEL 0
    REC 0 0 0 0 0 0 0
    VU 2
    TRACKHEIGHT 0 0
    INQ 0 0 0 0.5000000000 100 0 0 100
    NCHAN 2
    FX 1
    TRACKID {E50ADB6B-C02D-4BF3-97BE-729A1F10D0B4}
    PERF 0
    MIDIOUT -1
    MAINSEND 1 0
    <ITEM
      POSITION 0.00000000000000
      SNAPOFFS 0.00000000000000
      LENGTH 80.50000000000000
      LOOP 0
      ALLTAKES 0
      SEL 0
      FADEIN 1 0.000000 0.000000 1 0
      FADEOUT 1 0.000000 0.000000 1 0
      MUTE 0
      IGUID {965ECD72-5DD0-4A66-B81A-DADEB7DFF9C3}
      IID 9
      NAME "PART REAL_KEYS_M"
      VOLPAN 1.000000 0.000000 1.000000 -1.000000
      SOFFS 0.00000000000000 0.00000000000000
      PLAYRATE 1.00000000000000 1 0.00000000000000 -1
      CHANMODE 0
      GUID {1225D206-7126-4772-B9D6-4A9DF32B6346}
      <SOURCE MIDI
        HASDATA 1 480 QN
        POOLEDEVTS {A5F511D6-CEB4-4DED-B0F2-75EB155C324C}
        <X 0 0
          /wNQQVJUIFJFQUxfS0VZU19N
        >
        E 0 90 00 60
        E 60 80 00 00
        E 3780 90 34 60
        E 0 90 3b 60
        E 60 80 34 00
        E 0 80 3b 00
        E 5220 90 3b 60
        E 0 90 3f 60
        E 60 80 3b 00
        E 0 80 3f 00
        E 420 90 34 60
        E 0 90 3b 60
        E 60 80 34 00
        E 0 80 3b 00
        E 660 90 33 60
        E 0 90 38 60
        E 60 80 33 00
        E 0 80 38 00
        E 660 90 31 60
        E 0 90 36 60
        E 60 80 31 00
        E 0 80 36 00
        E 1380 90 3d 60
        E 1320 80 3d 00
        E 120 90 3f 60
        E 120 80 3f 00
        E 840 90 3b 60
        E 400 80 3b 00
        E 80 90 3a 60
        E 120 80 3a 00
        E 360 90 3b 60
        E 80 80 3b 00
        E 400 90 3b 60
        E 600 80 3b 00
        E 360 90 38 60
        E 600 80 38 00
        E 120 90 36 60
        E 1560 80 36 00
        E 120 90 36 60
        E 360 80 36 00
        E 120 90 3d 60
        E 1320 80 3d 00
        E 120 90 3f 60
        E 120 80 3f 00
        E 840 90 3b 60
        E 400 80 3b 00
        E 80 90 3a 60
        E 120 80 3a 00
        E 360 90 3b 60
        E 80 80 3b 00
        E 400 90 3b 60
        E 120 80 3b 00
        E 360 90 3b 60
        E 0 90 3f 60
        E 60 80 3b 00
        E 0 80 3f 00
        E 420 90 34 60
        E 0 90 3b 60
        E 60 80 34 00
        E 0 80 3b 00
        E 660 90 33 60
        E 0 90 38 60
        E 60 80 33 00
        E 0 80 38 00
        E 660 90 31 60
        E 0 90 36 60
        E 60 80 31 00
        E 0 80 36 00
        E 420 90 34 60
        E 0 90 36 60
        E 0 90 3b 60
        E 0 90 3f 60
        E 60 80 34 00
        E 0 80 36 00
        E 0 80 3b 00
        E 0 80 3f 00
        E 3780 90 38 60
        E 60 80 38 00
        E 660 90 38 60
        E 0 90 3b 60
        E 60 80 38 00
        E 0 80 3b 00
        E 660 90 38 60
        E 0 90 3b 60
        E 120 80 38 00
        E 0 80 3b 00
        E 360 90 38 60
        E 0 90 3b 60
        E 120 80 38 00
        E 0 80 3b 00
        E 600 90 36 60
        E 0 90 3d 60
        E 240 80 36 00
        E 0 80 3d 00
        E 480 90 3a 60
        E 0 90 3d 60
        E 120 80 3a 00
        E 0 80 3d 00
        E 360 90 38 60
        E 0 90 3b 60
        E 120 80 38 00
        E 0 80 3b 00
        E 360 90 36 60
        E 0 90 3d 60
        E 120 80 36 00
        E 0 80 3d 00
        E 840 90 3b 60
        E 0 90 3f 60
        E 120 80 3b 00
        E 0 80 3f 00
        E 360 90 3b 60
        E 0 90 40 60
        E 120 80 3b 00
        E 120 80 40 00
        E 480 90 3a 60
        E 0 90 3d 60
        E 240 80 3a 00
        E 0 80 3d 00
        E 480 90 3a 60
        E 0 90 3d 60
        E 120 80 3a 00
        E 0 80 3d 00
        E 360 90 3a 60
        E 0 90 3d 60
        E 120 80 3a 00
        E 0 80 3d 00
        E 360 90 38 60
        E 0 90 3b 60
        E 120 80 38 00
        E 0 80 3b 00
        E 360 90 3b 60
        E 0 90 3f 60
        E 240 80 3b 00
        E 0 80 3f 00
        E 720 90 3b 60
        E 0 90 40 60
        E 120 80 3b 00
        E 120 80 40 00
        E 720 90 3a 60
        E 0 90 3d 60
        E 240 80 3a 00
        E 0 80 3d 00
        E 720 90 3a 60
        E 0 90 3d 60
        E 120 80 3a 00
        E 0 80 3d 00
        E 360 90 38 60
        E 0 90 3b 60
        E 120 80 38 00
        E 0 80 3b 00
        E 360 90 36 60
        E 0 90 3b 60
        E 1920 80 36 00
        E 0 80 3b 00
        E 960 90 34 60
        E 0 90 3b 60
        E 60 80 34 00
        E 0 80 3b 00
        E 12900 90 3b 60
        E 0 90 3f 60
        E 60 80 3b 00
        E 0 80 3f 00
        E 420 90 34 60
        E 0 90 3b 60
        E 60 80 34 00
        E 0 80 3b 00
        E 660 90 33 60
        E 0 90 38 60
        E 60 80 33 00
        E 0 80 38 00
        E 660 90 31 60
        E 0 90 36 60
        E 60 80 31 00
        E 0 80 36 00
        E 1380 90 3f 60
        E 1320 80 3f 00
        E 120 90 35 60
        E 120 80 35 00
        E 840 90 3d 60
        E 400 80 3d 00
        E 80 90 3c 60
        E 120 80 3c 00
        E 360 90 3d 60
        E 80 80 3d 00
        E 400 90 3d 60
        E 600 80 3d 00
        E 360 90 3a 60
        E 600 80 3a 00
        E 120 90 38 60
        E 1560 80 38 00
        E 120 90 38 60
        E 360 80 38 00
        E 120 90 3f 60
        E 1320 80 3f 00
        E 120 90 35 60
        E 120 80 35 00
        E 840 90 3d 60
        E 400 80 3d 00
        E 80 90 3c 60
        E 120 80 3c 00
        E 360 90 3d 60
        E 80 80 3d 00
        E 400 90 3d 60
        E 120 80 3d 00
        E 360 90 33 60
        E 60 80 33 00
        E 420 90 3d 60
        E 60 80 3d 00
        E 660 90 38 60
        E 60 80 38 00
        E 660 90 33 60
        E 60 80 33 00
        E 420 90 36 60
        E 0 90 3d 60
        E 60 80 36 00
        E 0 80 3d 00
        E 420 b0 7b 00
        GUID {EBB059AF-7215-462E-94C0-CCDFD7669AEA}
        IGNTEMPO 0 120.00000000 4 4
        SRCCOLOR 60
        VELLANE 132 71 60
        COLORMAP "C:\Program Files (x86)\REAPER\Data\color_maps\rockband_guitarbass.png"
      >
    >
  >
  <TRACK '{0FE6F8EB-1E62-477D-BADB-E6340B851FF7}'
    NAME "PART REAL_KEYS_E - town"
    PEAKCOL 16576
    BEAT -1
    AUTOMODE 0
    VOLPAN 1.00000000000000 0.00000000000000 -1.00000000000000 -1.00000000000000 1.00000000000000
    MUTESOLO 0 0 0
    IPHASE 0
    ISBUS 0 0
    BUSCOMP 0 0
    SHOWINMIX 1 0.666700 0.500000 1 0.500000 -1 -1 -1
    FREEMODE 0
    SEL 0
    REC 0 0 0 0 0 0 0
    VU 2
    TRACKHEIGHT 0 0
    INQ 0 0 0 0.5000000000 100 0 0 100
    NCHAN 2
    FX 1
    TRACKID {0FE6F8EB-1E62-477D-BADB-E6340B851FF7}
    PERF 0
    MIDIOUT -1
    MAINSEND 1 0
    <ITEM
      POSITION 0.00000000000000
      SNAPOFFS 0.00000000000000
      LENGTH 80.50000000000000
      LOOP 0
      ALLTAKES 0
      SEL 0
      FADEIN 1 0.000000 0.000000 1 0
      FADEOUT 1 0.000000 0.000000 1 0
      MUTE 0
      IGUID {D3C34871-E144-4ED1-BC39-4D857D08B406}
      IID 10
      NAME "PART REAL_KEYS_E"
      VOLPAN 1.000000 0.000000 1.000000 -1.000000
      SOFFS 0.00000000000000 0.00000000000000
      PLAYRATE 1.00000000000000 1 0.00000000000000 -1
      CHANMODE 0
      GUID {63845952-6903-4DA9-9E92-0626F0218E83}
      <SOURCE MIDI
        HASDATA 1 480 QN
        POOLEDEVTS {B4E9FCCB-5989-4FB0-973B-5BD68660528D}
        <X 0 0
          /wNQQVJUIFJFQUxfS0VZU19F
        >
        E 0 90 00 60
        E 60 80 00 00
        E 3780 90 34 60
        E 60 80 34 00
        E 5220 90 3b 60
        E 60 80 3b 00
        E 420 90 34 60
        E 60 80 34 00
        E 660 90 38 60
        E 60 80 38 00
        E 660 90 36 60
        E 60 80 36 00
        E 1380 90 3d 60
        E 1320 80 3d 00
        E 120 90 3f 60
        E 120 80 3f 00
        E 840 90 3b 60
        E 400 80 3b 00
        E 80 90 3a 60
        E 120 80 3a 00
        E 360 90 3b 60
        E 80 80 3b 00
        E 400 90 3b 60
        E 600 80 3b 00
        E 360 90 38 60
        E 600 80 38 00
        E 120 90 36 60
        E 1560 80 36 00
        E 120 90 36 60
        E 360 80 36 00
        E 120 90 3d 60
        E 1320 80 3d 00
        E 120 90 3f 60
        E 120 80 3f 00
        E 840 90 3b 60
        E 400 80 3b 00
        E 80 90 3a 60
        E 120 80 3a 00
        E 360 90 3b 60
        E 80 80 3b 00
        E 400 90 3b 60
        E 120 80 3b 00
        E 360 90 3b 60
        E 60 80 3b 00
        E 420 90 34 60
        E 60 80 34 00
        E 660 90 38 60
        E 60 80 38 00
        E 660 90 36 60
        E 60 80 36 00
        E 420 90 34 60
        E 60 80 34 00
        E 3780 90 38 60
        E 60 80 38 00
        E 660 90 3b 60
        E 60 80 3b 00
        E 660 90 3b 60
        E 120 80 3b 00
        E 360 90 3b 60
        E 120 80 3b 00
        E 600 90 36 60
        E 240 80 36 00
        E 480 90 3d 60
        E 120 80 3d 00
        E 360 90 3b 60
        E 120 80 3b 00
        E 360 90 3d 60
        E 120 80 3d 00
        E 840 90 3f 60
        E 120 80 3f 00
        E 360 90 40 60
        E 240 80 40 00
        E 480 90 3a 60
        E 240 80 3a 00
        E 480 90 3a 60
        E 120 80 3a 00
        E 360 90 3a 60
        E 120 80 3a 00
        E 360 90 38 60
        E 120 80 38 00
        E 360 90 3b 60
        E 240 80 3b 00
        E 720 90 40 60
        E 240 80 40 00
        E 720 90 3a 60
        E 240 80 3a 00
        E 720 90 3a 60
        E 120 80 3a 00
        E 360 90 38 60
        E 120 80 38 00
        E 360 90 3b 60
        E 1920 80 3b 00
        E 960 90 34 60
        E 60 80 34 00
        E 12900 90 3b 60
        E 60 80 3b 00
        E 420 90 34 60
        E 60 80 34 00
        E 660 90 38 60
        E 60 80 38 00
        E 660 90 36 60
        E 60 80 36 00
        E 1380 90 3f 60
        E 1320 80 3f 00
        E 120 90 35 60
        E 120 80 35 00
        E 840 90 3d 60
        E 400 80 3d 00
        E 80 90 3c 60
        E 120 80 3c 00
        E 360 90 3d 60
        E 80 80 3d 00
        E 400 90 3d 60
        E 600 80 3d 00
        E 360 90 3a 60
        E 600 80 3a 00
        E 120 90 38 60
        E 1560 80 38 00
        E 120 90 38 60
        E 360 80 38 00
        E 120 90 3f 60
        E 1320 80 3f 00
        E 120 90 35 60
        E 120 80 35 00
        E 840 90 3d 60
        E 400 80 3d 00
        E 80 90 3c 60
        E 120 80 3c 00
        E 360 90 3d 60
        E 80 80 3d 00
        E 400 90 3d 60
        E 120 80 3d 00
        E 360 90 33 60
        E 60 80 33 00
        E 420 90 3d 60
        E 60 80 3d 00
        E 660 90 38 60
        E 60 80 38 00
        E 660 90 33 60
        E 60 80 33 00
        E 420 90 36 60
        E 60 80 36 00
        E 420 b0 7b 00
        GUID {A9A64F59-6B1B-4FB8-BE15-F96726B36177}
        IGNTEMPO 0 120.00000000 4 4
        SRCCOLOR 61
        VELLANE 132 71 60
        COLORMAP "C:\Program Files (x86)\REAPER\Data\color_maps\rockband_guitarbass.png"
        CFGEDITVIEW -5179.554764 13.530120 63 12 0 0 0
        CFGEDIT 1 1 0 1 1 0 1 1 1 1 1 0.25000000 -8 -8 1548 876 0 0 1 1 0.00000000 0 1 0 0 0.500000 0 0 1.000000 64
        KEYSNAP 0 3 "102034050607" 0 "Major"
        EVTFILTER 0 -1 -1 -1 -1 0 1 0 0 -1.00000000 -1.00000000
      >
    >
  >
  <TRACK '{2178FE4E-FC1A-4967-8F7E-F4762BD130C6}'
    NAME "PART KEYS_ANIM_RH - town"
    PEAKCOL 16576
    BEAT -1
    AUTOMODE 0
    VOLPAN 1.00000000000000 0.00000000000000 -1.00000000000000 -1.00000000000000 1.00000000000000
    MUTESOLO 0 0 0
    IPHASE 0
    ISBUS 0 0
    BUSCOMP 0 0
    SHOWINMIX 1 0.666700 0.500000 1 0.500000 -1 -1 -1
    FREEMODE 0
    SEL 0
    REC 0 0 0 0 0 0 0
    VU 2
    TRACKHEIGHT 0 0
    INQ 0 0 0 0.5000000000 100 0 0 100
    NCHAN 2
    FX 1
    TRACKID {2178FE4E-FC1A-4967-8F7E-F4762BD130C6}
    PERF 0
    MIDIOUT -1
    MAINSEND 1 0
    <ITEM
      POSITION 0.00000000000000
      SNAPOFFS 0.00000000000000
      LENGTH 80.50000000000000
      LOOP 0
      ALLTAKES 0
      SEL 0
      FADEIN 1 0.000000 0.000000 1 0
      FADEOUT 1 0.000000 0.000000 1 0
      MUTE 0
      IGUID {85B3ADBF-63C9-4ACD-A8F3-67DE5726A0E4}
      IID 11
      NAME "PART KEYS_ANIM_RH"
      VOLPAN 1.000000 0.000000 1.000000 -1.000000
      SOFFS 0.00000000000000 0.00000000000000
      PLAYRATE 1.00000000000000 1 0.00000000000000 -1
      CHANMODE 0
      GUID {12573E89-9D44-4D93-9E16-4E3E267F6733}
      <SOURCE MIDI
        HASDATA 1 480 QN
        POOLEDEVTS {B42AD812-77F5-48A0-8446-D1D97AFED457}
        <X 0 0
          /wNQQVJUIEtFWVNfQU5JTV9SSA==
        >
        E 3840 90 34 60
        E 0 90 36 60
        E 0 90 3b 60
        E 0 90 3f 60
        E 60 80 34 00
        E 0 80 36 00
        E 0 80 3b 00
        E 0 80 3f 00
        E 60 90 34 60
        E 0 90 36 60
        E 0 90 3b 60
        E 0 90 3f 60
        E 60 80 34 00
        E 0 80 36 00
        E 0 80 3b 00
        E 0 80 3f 00
        E 60 90 34 60
        E 0 90 36 60
        E 0 90 3b 60
        E 0 90 3f 60
        E 60 80 34 00
        E 0 80 36 00
        E 0 80 3b 00
        E 0 80 3f 00
        E 4740 90 3b 60
        E 0 90 3f 60
        E 60 80 3b 00
        E 0 80 3f 00
        E 60 90 38 60
        E 0 90 3d 60
        E 60 80 38 00
        E 0 80 3d 00
        E 60 90 3b 60
        E 0 90 3f 60
        E 60 80 3b 00
        E 0 80 3f 00
        E 60 90 36 60
        E 0 90 3d 60
        E 60 80 36 00
        E 0 80 3d 00
        E 60 90 38 60
        E 0 90 3f 60
        E 60 80 38 00
        E 0 80 3f 00
        E 180 90 34 60
        E 0 90 3b 60
        E 60 80 34 00
        E 0 80 3b 00
        E 180 90 34 60
        E 0 90 3b 60
        E 60 80 34 00
        E 0 80 3b 00
        E 60 90 33 60
        E 0 90 38 60
        E 60 80 33 00
        E 0 80 38 00
        E 180 90 33 60
        E 0 90 38 60
        E 60 80 33 00
        E 0 80 38 00
        E 60 90 33 60
        E 0 90 38 60
        E 60 80 33 00
        E 0 80 38 00
        E 60 90 31 60
        E 0 90 36 60
        E 60 80 31 00
        E 0 80 36 00
        E 180 90 31 60
        E 0 90 36 60
        E 60 80 31 00
        E 0 80 36 00
        E 300 90 31 60
        E 0 90 36 60
        E 60 80 31 00
        E 0 80 36 00
        E 60 90 33 60
        E 0 90 38 60
        E 60 80 33 00
        E 0 80 38 00
        E 1260 90 3d 60
        E 1320 80 3d 00
        E 120 90 3f 60
        E 120 80 3f 00
        E 0 90 40 60
        E 120 80 40 00
        E 0 90 3f 60
        E 360 80 3f 00
        E 120 90 3d 60
        E 80 80 3d 00
        E 0 90 3f 60
        E 80 80 3f 00
        E 0 90 3d 60
        E 80 80 3d 00
        E 0 90 3b 60
        E 400 80 3b 00
        E 80 90 3a 60
        E 120 80 3a 00
        E 120 90 3d 60
        E 120 80 3d 00
        E 120 90 3b 60
        E 80 80 3b 00
        E 0 90 3d 60
        E 80 80 3d 00
        E 0 90 3b 60
        E 80 80 3b 00
        E 0 90 3a 60
        E 120 80 3a 00
        E 120 90 3b 60
        E 600 80 3b 00
        E 120 90 39 60
        E 80 80 39 00
        E 0 90 3b 60
        E 80 80 3b 00
        E 0 90 39 60
        E 80 80 39 00
        E 0 90 38 60
        E 600 80 38 00
        E 120 90 36 60
        E 1560 80 36 00
        E 120 90 36 60
        E 360 80 36 00
        E 120 90 3d 60
        E 1320 80 3d 00
        E 120 90 3f 60
        E 120 80 3f 00
        E 0 90 40 60
        E 120 80 40 00
        E 0 90 3f 60
        E 360 80 3f 00
        E 120 90 3d 60
        E 80 80 3d 00
        E 0 90 3f 60
        E 80 80 3f 00
        E 0 90 3d 60
        E 80 80 3d 00
        E 0 90 3b 60
        E 400 80 3b 00
        E 80 90 3a 60
        E 120 80 3a 00
        E 120 90 3d 60
        E 120 80 3d 00
        E 120 90 3b 60
        E 80 80 3b 00
        E 0 90 3d 60
        E 80 80 3d 00
        E 0 90 3b 60
        E 80 80 3b 00
        E 0 90 3a 60
        E 120 80 3a 00
        E 120 90 3b 60
        E 120 80 3b 00
        E 120 90 3b 60
        E 0 90 3f 60
        E 60 80 3b 00
        E 0 80 3f 00
        E 60 90 38 60
        E 0 90 3d 60
        E 60 80 38 00
        E 0 80 3d 00
        E 60 90 3b 60
        E 0 90 3f 60
        E 60 80 3b 00
        E 0 80 3f 00
        E 60 90 36 60
        E 0 90 3d 60
        E 60 80 36 00
        E 0 80 3d 00
        E 60 90 38 60
        E 0 90 3f 60
        E 60 80 38 00
        E 0 80 3f 00
        E 180 90 34 60
        E 0 90 3b 60
        E 60 80 34 00
        E 0 80 3b 00
        E 180 90 34 60
        E 0 90 3b 60
        E 60 80 34 00
        E 0 80 3b 00
        E 60 90 33 60
        E 0 90 38 60
        E 60 80 33 00
        E 0 80 38 00
        E 180 90 33 60
        E 0 90 38 60
        E 60 80 33 00
        E 0 80 38 00
        E 60 90 33 60
        E 0 90 38 60
        E 60 80 33 00
        E 0 80 38 00
        E 60 90 31 60
        E 0 90 36 60
        E 60 80 31 00
        E 0 80 36 00
        E 180 90 31 60
        E 0 90 36 60
        E 60 80 31 00
        E 0 80 36 00
        E 300 90 31 60
        E 0 90 36 60
        E 60 80 31 00
        E 0 80 36 00
        E 60 90 33 60
        E 0 90 38 60
        E 60 80 33 00
        E 0 80 38 00
        E 300 90 34 60
        E 0 90 36 60
        E 0 90 3b 60
        E 0 90 3f 60
        E 60 80 34 00
        E 0 80 36 00
        E 0 80 3b 00
        E 0 80 3f 00
        E 60 90 34 60
        E 0 90 36 60
        E 0 90 3b 60
        E 0 90 3f 60
        E 60 80 34 00
        E 0 80 36 00
        E 0 80 3b 00
        E 0 80 3f 00
        E 60 90 34 60
        E 0 90 36 60
        E 0 90 3b 60
        E 0 90 3f 60
        E 60 80 34 00
        E 0 80 36 00
        E 0 80 3b 00
        E 0 80 3f 00
        E 3300 90 33 60
        E 60 80 33 00
        E 60 90 36 60
        E 60 80 36 00
        E 60 90 38 60
        E 60 80 38 00
        E 60 90 36 60
        E 60 80 36 00
        E 60 90 33 60
        E 60 80 33 00
        E 60 90 36 60
        E 60 80 36 00
        E 180 90 36 60
        E 0 90 3a 60
        E 0 90 3d 60
        E 60 80 36 00
        E 0 80 3a 00
        E 0 80 3d 00
        E 60 90 38 60
        E 0 90 3b 60
        E 0 90 3f 60
        E 60 80 38 00
        E 0 80 3b 00
        E 0 80 3f 00
        E 420 90 38 60
        E 0 90 3b 60
        E 120 80 38 00
        E 0 80 3b 00
        E 0 90 36 60
        E 0 90 3a 60
        E 120 80 36 00
        E 0 80 3a 00
        E 0 90 38 60
        E 0 90 3b 60
        E 120 80 38 00
        E 0 80 3b 00
        E 120 90 36 60
        E 0 90 3a 60
        E 120 80 36 00
        E 0 80 3a 00
        E 120 90 38 60
        E 0 90 3b 60
        E 120 80 38 00
        E 0 80 3b 00
        E 120 90 36 60
        E 0 90 3a 60
        E 120 80 36 00
        E 0 80 3a 00
        E 0 90 3b 60
        E 0 90 3f 60
        E 120 80 3b 00
        E 0 80 3f 00
        E 120 90 36 60
        E 0 90 3a 60
        E 120 80 36 00
        E 0 80 3a 00
        E 0 90 36 60
        E 0 90 3d 60
        E 240 80 36 00
        E 0 80 3d 00
        E 120 90 3b 60
        E 0 90 3f 60
        E 120 80 3b 00
        E 0 80 3f 00
        E 240 90 3a 60
        E 0 90 3d 60
        E 120 80 3a 00
        E 0 80 3d 00
        E 120 90 3b 60
        E 0 90 3f 60
        E 120 80 3b 00
        E 0 80 3f 00
        E 0 90 3a 60
        E 0 90 3d 60
        E 120 80 3a 00
        E 0 80 3d 00
        E 0 90 38 60
        E 0 90 3b 60
        E 120 80 38 00
        E 0 80 3b 00
        E 0 90 3a 60
        E 0 90 3d 60
        E 120 80 3a 00
        E 0 80 3d 00
        E 240 90 36 60
        E 0 90 3d 60
        E 120 80 36 00
        E 0 80 3d 00
        E 0 90 38 60
        E 0 90 3f 60
        E 120 80 38 00
        E 0 80 3f 00
        E 480 90 3b 60
        E 0 90 3f 60
        E 120 80 3b 00
        E 0 80 3f 00
        E 120 90 3b 60
        E 0 90 3f 60
        E 120 80 3b 00
        E 0 80 3f 00
        E 120 90 36 60
        E 120 80 36 00
        E 120 90 3b 60
        E 0 90 40 60
        E 120 80 3b 00
        E 0 80 40 00
        E 0 90 3d 60
        E 120 80 3d 00
        E 120 90 3d 60
        E 0 90 40 60
        E 120 80 3d 00
        E 0 80 40 00
        E 240 90 3a 60
        E 0 90 3d 60
        E 240 80 3a 00
        E 0 80 3d 00
        E 120 90 3a 60
        E 0 90 3d 60
        E 120 80 3a 00
        E 0 80 3d 00
        E 240 90 3a 60
        E 0 90 3d 60
        E 120 80 3a 00
        E 0 80 3d 00
        E 120 90 34 60
        E 120 80 34 00
        E 0 90 36 60
        E 120 80 36 00
        E 0 90 3a 60
        E 0 90 3d 60
        E 120 80 3a 00
        E 0 80 3d 00
        E 120 90 34 60
        E 120 80 34 00
        E 0 90 36 60
        E 120 80 36 00
        E 0 90 38 60
        E 0 90 3b 60
        E 120 80 38 00
        E 0 80 3b 00
        E 120 90 3a 60
        E 0 90 3d 60
        E 120 80 3a 00
        E 0 80 3d 00
        E 120 90 3b 60
        E 0 90 3f 60
        E 240 80 3b 00
        E 0 80 3f 00
        E 120 90 3b 60
        E 0 90 3f 60
        E 120 80 3b 00
        E 0 80 3f 00
        E 120 90 3b 60
        E 0 90 3f 60
        E 120 80 3b 00
        E 0 80 3f 00
        E 120 90 36 60
        E 120 80 36 00
        E 0 90 3b 60
        E 0 90 40 60
        E 120 80 3b 00
        E 0 80 40 00
        E 0 90 3d 60
        E 120 80 3d 00
        E 120 90 3d 60
        E 0 90 40 60
        E 120 80 3d 00
        E 0 80 40 00
        E 120 90 3d 60
        E 0 90 40 60
        E 120 80 3d 00
        E 0 80 40 00
        E 120 90 36 60
        E 120 80 36 00
        E 0 90 3a 60
        E 0 90 3d 60
        E 240 80 3a 00
        E 0 80 3d 00
        E 120 90 3a 60
        E 0 90 3d 60
        E 120 80 3a 00
        E 0 80 3d 00
        E 120 90 3a 60
        E 0 90 3d 60
        E 120 80 3a 00
        E 0 80 3d 00
        E 0 90 34 60
        E 120 80 34 00
        E 0 90 36 60
        E 120 80 36 00
        E 0 90 3a 60
        E 0 90 3d 60
        E 120 80 3a 00
        E 0 80 3d 00
        E 120 90 34 60
        E 120 80 34 00
        E 0 90 36 60
        E 120 80 36 00
        E 0 90 38 60
        E 0 90 3b 60
        E 120 80 38 00
        E 0 80 3b 00
        E 120 90 3a 60
        E 0 90 3d 60
        E 120 80 3a 00
        E 0 80 3d 00
        E 120 90 36 60
        E 0 90 3b 60
        E 0 90 3f 60
        E 1920 80 36 00
        E 0 80 3b 00
        E 0 80 3f 00
        E 960 90 34 60
        E 0 90 36 60
        E 0 90 3b 60
        E 0 90 3f 60
        E 60 80 34 00
        E 0 80 36 00
        E 0 80 3b 00
        E 0 80 3f 00
        E 60 90 34 60
        E 0 90 36 60
        E 0 90 3b 60
        E 0 90 3f 60
        E 60 80 34 00
        E 0 80 36 00
        E 0 80 3b 00
        E 0 80 3f 00
        E 60 90 34 60
        E 0 90 36 60
        E 0 90 3b 60
        E 0 90 3f 60
        E 60 80 34 00
        E 0 80 36 00
        E 0 80 3b 00
        E 0 80 3f 00
        E 12420 90 3b 60
        E 0 90 3f 60
        E 60 80 3b 00
        E 0 80 3f 00
        E 60 90 38 60
        E 0 90 3d 60
        E 60 80 38 00
        E 0 80 3d 00
        E 60 90 3b 60
        E 0 90 3f 60
        E 60 80 3b 00
        E 0 80 3f 00
        E 60 90 36 60
        E 0 90 3d 60
        E 60 80 36 00
        E 0 80 3d 00
        E 60 90 38 60
        E 0 90 3f 60
        E 60 80 38 00
        E 0 80 3f 00
        E 180 90 34 60
        E 0 90 3b 60
        E 60 80 34 00
        E 0 80 3b 00
        E 180 90 34 60
        E 0 90 3b 60
        E 60 80 34 00
        E 0 80 3b 00
        E 60 90 33 60
        E 0 90 38 60
        E 60 80 33 00
        E 0 80 38 00
        E 180 90 33 60
        E 0 90 38 60
        E 60 80 33 00
        E 0 80 38 00
        E 60 90 33 60
        E 0 90 38 60
        E 60 80 33 00
        E 0 80 38 00
        E 60 90 31 60
        E 0 90 36 60
        E 60 80 31 00
        E 0 80 36 00
        E 180 90 31 60
        E 0 90 36 60
        E 60 80 31 00
        E 0 80 36 00
        E 300 90 31 60
        E 0 90 36 60
        E 60 80 31 00
        E 0 80 36 00
        E 60 90 33 60
        E 0 90 38 60
        E 60 80 33 00
        E 0 80 38 00
        E 1260 90 3f 60
        E 1320 80 3f 00
        E 120 90 41 60
        E 120 80 41 00
        E 0 90 42 60
        E 120 80 42 00
        E 0 90 41 60
        E 360 80 41 00
        E 120 90 3f 60
        E 80 80 3f 00
        E 0 90 41 60
        E 80 80 41 00
        E 0 90 3f 60
        E 80 80 3f 00
        E 0 90 3d 60
        E 400 80 3d 00
        E 80 90 3c 60
        E 120 80 3c 00
        E 120 90 3f 60
        E 120 80 3f 00
        E 120 90 3d 60
        E 80 80 3d 00
        E 0 90 3f 60
        E 80 80 3f 00
        E 0 90 3d 60
        E 80 80 3d 00
        E 0 90 3c 60
        E 120 80 3c 00
        E 120 90 3d 60
        E 600 80 3d 00
        E 120 90 3b 60
        E 80 80 3b 00
        E 0 90 3d 60
        E 80 80 3d 00
        E 0 90 3b 60
        E 80 80 3b 00
        E 0 90 3a 60
        E 600 80 3a 00
        E 120 90 38 60
        E 1560 80 38 00
        E 120 90 38 60
        E 360 80 38 00
        E 120 90 3f 60
        E 1320 80 3f 00
        E 120 90 41 60
        E 120 80 41 00
        E 0 90 42 60
        E 120 80 42 00
        E 0 90 41 60
        E 360 80 41 00
        E 120 90 3f 60
        E 80 80 3f 00
        E 0 90 41 60
        E 80 80 41 00
        E 0 90 3f 60
        E 80 80 3f 00
        E 0 90 3d 60
        E 400 80 3d 00
        E 80 90 3c 60
        E 120 80 3c 00
        E 120 90 3f 60
        E 120 80 3f 00
        E 120 90 3d 60
        E 80 80 3d 00
        E 0 90 3f 60
        E 80 80 3f 00
        E 0 90 3d 60
        E 80 80 3d 00
        E 0 90 3c 60
        E 120 80 3c 00
        E 120 90 3d 60
        E 120 80 3d 00
        E 360 90 33 60
        E 60 80 33 00
        E 60 90 35 60
        E 60 80 35 00
        E 60 90 38 60
        E 60 80 38 00
        E 60 90 3a 60
        E 60 80 3a 00
        E 60 90 3d 60
        E 60 80 3d 00
        E 60 90 3a 60
        E 60 80 3a 00
        E 60 90 38 60
        E 60 80 38 00
        E 60 90 3a 60
        E 60 80 3a 00
        E 180 90 3a 60
        E 60 80 3a 00
        E 60 90 38 60
        E 60 80 38 00
        E 300 90 38 60
        E 60 80 38 00
        E 180 90 38 60
        E 60 80 38 00
        E 60 90 33 60
        E 60 80 33 00
        E 60 90 35 60
        E 60 80 35 00
        E 60 90 33 60
        E 60 80 33 00
        E 60 90 35 60
        E 60 80 35 00
        E 60 90 35 60
        E 0 90 36 60
        E 0 90 3a 60
        E 0 90 3d 60
        E 60 80 35 00
        E 0 80 36 00
        E 0 80 3a 00
        E 0 80 3d 00
        E 60 90 35 60
        E 0 90 36 60
        E 0 90 3a 60
        E 0 90 3d 60
        E 60 80 35 00
        E 0 80 36 00
        E 0 80 3a 00
        E 0 80 3d 00
        E 60 90 35 60
        E 0 90 36 60
        E 0 90 3a 60
        E 0 90 3d 60
        E 60 80 35 00
        E 0 80 36 00
        E 0 80 3a 00
        E 0 80 3d 00
        E 180 b0 7b 00
        GUID {7E0DAADA-BE49-4408-8C28-013835543550}
        IGNTEMPO 0 120.00000000 4 4
        SRCCOLOR 62
        VELLANE 132 71 60
        COLORMAP "C:\Program Files (x86)\REAPER\Data\color_maps\rockband_guitarbass.png"
      >
    >
  >
  <TRACK '{8C85CEB2-7EE3-40AA-BB14-5965A54D168A}'
    NAME "PART KEYS_ANIM_LH - town"
    PEAKCOL 16576
    BEAT -1
    AUTOMODE 0
    VOLPAN 1.00000000000000 0.00000000000000 -1.00000000000000 -1.00000000000000 1.00000000000000
    MUTESOLO 0 0 0
    IPHASE 0
    ISBUS 0 0
    BUSCOMP 0 0
    SHOWINMIX 1 0.666700 0.500000 1 0.500000 -1 -1 -1
    FREEMODE 0
    SEL 0
    REC 0 0 0 0 0 0 0
    VU 2
    TRACKHEIGHT 0 0
    INQ 0 0 0 0.5000000000 100 0 0 100
    NCHAN 2
    FX 1
    TRACKID {8C85CEB2-7EE3-40AA-BB14-5965A54D168A}
    PERF 0
    MIDIOUT -1
    MAINSEND 1 0
    <ITEM
      POSITION 0.00000000000000
      SNAPOFFS 0.00000000000000
      LENGTH 0.50000000000000
      LOOP 0
      ALLTAKES 0
      SEL 0
      FADEIN 1 0.000000 0.000000 1 0
      FADEOUT 1 0.000000 0.000000 1 0
      MUTE 0
      IGUID {33811104-6A43-43CA-9AC6-D4334905CE51}
      IID 12
      NAME "PART KEYS_ANIM_LH"
      VOLPAN 1.000000 0.000000 1.000000 -1.000000
      SOFFS 0.00000000000000 0.00000000000000
      PLAYRATE 1.00000000000000 1 0.00000000000000 -1
      CHANMODE 0
      GUID {DFC4D847-B120-41A0-ABB7-0871C74AC664}
      <SOURCE MIDI
        HASDATA 1 480 QN
        POOLEDEVTS {2570F7C9-4C17-42B5-BC0E-B06C21D257EF}
        <X 0 0
          /wNQQVJUIEtFWVNfQU5JTV9MSA==
        >
        E 480 b0 7b 00
        GUID {CB6B7EFE-3C23-475B-AB2D-3958B57A5C97}
        IGNTEMPO 0 120.00000000 4 4
        SRCCOLOR 63
        VELLANE 132 71 60
        COLORMAP "C:\Program Files (x86)\REAPER\Data\color_maps\rockband_guitarbass.png"
        CFGEDITVIEW -5179.554764 13.530120 61 12 0 0 0
        CFGEDIT 1 1 0 1 1 0 1 1 1 1 1 0.25000000 -8 -8 1548 876 0 0 1 1 0.00000000 0 1 0 0 0.500000 0 0 1.000000 64
        KEYSNAP 0 3 "102034050607" 0 "Major"
        EVTFILTER 0 -1 -1 -1 -1 0 1 0 0 -1.00000000 -1.00000000
      >
    >
  >
  <TRACK '{E358B641-D083-4C09-A839-01B629DDAD25}'
    NAME "keys"
    PEAKCOL 16576
    BEAT -1
    AUTOMODE 0
    VOLPAN 1.00000000000000 0.00000000000000 -1.00000000000000 -1.00000000000000 1.00000000000000
    MUTESOLO 0 0 0
    IPHASE 0
    ISBUS 2 -1
    BUSCOMP 0 0
    SHOWINMIX 1 0.666700 0.500000 1 0.500000 -1 -1 -1
    FREEMODE 0
    SEL 0
    REC 0 0 0 0 0 0 0
    VU 2
    TRACKHEIGHT 0 0
    INQ 0 0 0 0.5000000000 100 0 0 100
    NCHAN 2
    FX 1
    TRACKID {E358B641-D083-4C09-A839-01B629DDAD25}
    PERF 0
    MIDIOUT -1
    MAINSEND 1 0
    <ITEM
      POSITION 0.00000000000000
      SNAPOFFS 0.00000000000000
      LENGTH 83.00000000000000
      LOOP 0
      ALLTAKES 0
      SEL 0
      FADEIN 1 0.000000 0.000000 1 0
      FADEOUT 1 0.000000 0.000000 1 0
      MUTE 0
      IGUID {DB6BF490-203C-4045-BFC7-BB72452CDE31}
      IID 20
      NAME "keys.wav"
      VOLPAN 1.000000 0.000000 1.000000 -1.000000
      SOFFS 0.00000000000000
      PLAYRATE 1.00000000000000 1 0.00000000000000 -1
      CHANMODE 0
      GUID {B9BCBE75-D57E-4382-851B-E263F710DDD3}
      <SOURCE WAVE
        FILE "wav\keys.wav"
      >
    >
  >
  <TRACK '{37E4F1E0-B5BB-4B16-91CC-05CDA0C3551F}'
    NAME "PART REAL_BASS"
    PEAKCOL 16576
    BEAT -1
    AUTOMODE 0
    VOLPAN 1.00000000000000 0.00000000000000 -1.00000000000000 -1.00000000000000 1.00000000000000
    MUTESOLO 0 0 0
    IPHASE 0
    ISBUS 0 0
    BUSCOMP 0 0
    SHOWINMIX 1 0.666700 0.500000 1 0.500000 -1 -1 -1
    FREEMODE 0
    SEL 0
    REC 0 0 0 0 0 0 0
    VU 2
    TRACKHEIGHT 0 0
    INQ 0 0 0 0.5000000000 100 0 0 100
    NCHAN 2
    FX 1
    TRACKID {37E4F1E0-B5BB-4B16-91CC-05CDA0C3551F}
    PERF 0
    MIDIOUT -1
    <MIDINOTENAMES
      0 127 "Trill Marker"
      0 126 "Tremolo Marker"
      0 125 "BRE"
      0 124 "BRE"
      0 123 "BRE"
      0 122 "BRE"
      0 121 "BRE"
      0 120 "BRE (use all 6)"
      0 119 "-----------"
      0 116 "OVERDRIVE"
      0 115 "Solo Marker"
      0 109 "-----------"
      0 108 "Left Hand Position"
      0 107 "Force Chord Numbering"
      0 106 "Loose Strumming"
      0 105 "Strum Direction"
      0 104 "Arpeggio Marker"
      0 103 "Slide Marker"
      0 102 "Force HOPO"
      0 101 "EXPERT e String"
      0 100 "EXPERT B String"
      0 99 "EXPERT G String"
      0 98 "EXPERT D String"
      0 97 "EXPERT A String"
      0 96 "EXPERT E String"
      0 95 "-----------"
      0 82 "Loose Strumming"
      0 81 "Strum Direction"
      0 80 "Arpeggio Marker"
      0 79 "Slide Marker"
      0 78 "Force HOPO"
      0 77 "HARD e String"
      0 76 "HARD B String"
      0 75 "HARD G String"
      0 74 "HARD D String"
      0 73 "HARD A String"
      0 72 "HARD E String"
      0 71 "-----------"
      0 58 "Loose Strumming"
      0 56 "Arpeggio Marker"
      0 55 "Slide Marker"
      0 53 "MEDIUM e String"
      0 52 "MEDIUM B String"
      0 51 "MEDIUM G String"
      0 50 "MEDIUM D String"
      0 49 "MEDIUM A String"
      0 48 "MEDIUM E String"
      0 47 "-----------"
      0 32 "Arpeggio Marker"
      0 31 "Slide Marker"
      0 29 "EASY e String"
      0 28 "EASY B String"
      0 27 "EASY G String"
      0 26 "EASY D String"
      0 25 "EASY A String"
      0 24 "EASY E String"
      0 21 "-----------"
      0 18 "Flat/Sharp Swap"
      0 17 "Hide Chord Names"
      0 16 "Slash Chord"
      0 15 "D#"
      0 14 "D"
      0 13 "C#"
      0 12 "C"
      0 11 "B"
      0 10 "A#"
      0 9 "A"
      0 8 "G#"
      0 7 "G"
      0 6 "F#"
      0 5 "F"
      0 4 "E"
    >
    MAINSEND 1 0
    <FXCHAIN
      WNDRECT 0 43 716 467
      SHOW 0
      LASTSEL 1
      DOCKED 0
      BYPASS 0 0
      <JS "c3/progtr" ""
        0.000000 3.000000 0.000000 0.000000 0.000000 0.000000 0.000000 0.000000 0.000000 1.000000 - - - - - - - - - - - - - - - - - - - - - - - - - - - - - - - - - - - - - - - - - - - - - - - - - - - - - - 
      >
      FLOATPOS 0 0 0 0
      FXID {345A902E-26C6-4DDE-962E-8D5BD1EFF609}
      WAK 0
      BYPASS 0 0
      <JS "MIDI/midi_transpose" ""
        -4.000000 1.000000 0.000000 127.000000 - - - - - - - - - - - - - - - - - - - - - - - - - - - - - - - - - - - - - - - - - - - - - - - - - - - - - - - - - - - - 
      >
      FLOATPOS 0 0 0 0
      FXID {46EACED3-3451-44FA-BD2A-EE434C64A9F2}
      WAK 0
      BYPASS 0 0
      <VST "VSTi: ReaSynth (Cockos)" "reasynth.dll" 0 ""
        eXNlcu9e7f4AAAAAAgAAAAEAAAAAAAAAAgAAAAAAAAA4AAAAAAAAAA==
        AAAQAO++rd4N8K3eppvEO+gJMjwAAAAAAAAAAAAAgD8AAIA/4jAEPA==
        AAAAAAAAAD+01hM+j8L1PQAAAD8AABAAAAA=
      >
      FLOATPOS 0 0 0 0
      FXID {6ADAA4BD-365E-4F6F-9F3E-EBB5081E368E}
      WAK 0
    >
    <ITEM
      POSITION 0.00000000000000
      SNAPOFFS 0.00000000000000
      LENGTH 81.00000000000000
      LOOP 0
      ALLTAKES 0
      SEL 0
      FADEIN 1 0.000000 0.000000 1 0
      FADEOUT 1 0.000000 0.000000 1 0
      MUTE 0
      IGUID {201E4CF2-E8F0-4AF2-A433-6D0276D802A6}
      IID 3
      NAME "PART REAL_BASS"
      VOLPAN 1.000000 0.000000 1.000000 -1.000000
      SOFFS 0.00000000000000 0.00000000000000
      PLAYRATE 1.00000000000000 1 0.00000000000000 -1
      CHANMODE 0
      GUID {0AF8A936-F22F-4D54-B91D-B7D94E84780F}
      <SOURCE MIDI
        HASDATA 1 480 QN
        POOLEDEVTS {6812E527-BEF2-45FF-B3C8-F5902B715EC7}
        <X 0 0
          /wNQQVJUIFJFQUxfQkFTUw==
        >
        <X 2880 0
          /wFbYmVnaW5fcGIgc29uZ190cmFpbmVyX3BiXzFd
        >
        E 960 90 1a 6c
        E 0 90 32 6c
        E 0 90 4a 6c
        E 0 90 62 6c
        E 0 90 6c 6a
        E 0 90 74 64
        E 120 80 1a 00
        E 0 80 32 00
        E 0 80 4a 00
        E 0 80 62 00
        E 0 80 6c 00
        E 0 90 63 6c
        E 120 80 63 00
        E 0 90 48 6a
        E 0 90 60 6a
        E 120 80 48 00
        E 0 80 60 00
        E 0 90 62 6e
        E 0 90 6c 6c
        E 120 80 62 00
        E 0 80 6c 00
        E 0 90 32 6c
        E 0 90 4a 6c
        E 0 90 62 6c
        E 120 80 32 00
        E 0 80 4a 00
        E 0 80 62 00
        E 0 90 61 6e
        E 120 80 61 00
        E 0 90 49 6c
        E 0 92 61 6c
        E 120 80 49 00
        E 0 82 61 00
        <X 120 0
          /wFbZW5kX3BiIHNvbmdfdHJhaW5lcl9wYl8xXQ==
        >
        <X 0 0
          /wFbYmVnaW5fcGIgc29uZ190cmFpbmVyX3BiXzJd
        >
        E 0 90 19 6a
        E 0 90 31 6a
        E 0 90 49 6a
        E 0 90 61 6a
        E 0 90 6c 67
        E 120 80 74 00
        E 0 80 19 00
        E 0 80 31 00
        E 0 80 49 00
        E 0 80 61 00
        E 0 80 6c 00
        E 120 90 49 68
        E 0 90 61 68
        E 120 80 49 00
        E 0 80 61 00
        E 240 90 31 67
        E 0 90 49 67
        E 0 90 61 67
        E 120 80 31 00
        E 0 80 49 00
        E 0 80 61 00
        E 120 90 48 6a
        E 0 90 60 6a
        E 0 90 6c 68
        <X 120 0
          /wFbcGJfbm9ybSBzb25nX3RyYWluZXJfcGJfMl0=
        >
        E 0 80 48 00
        E 0 80 60 00
        E 0 80 6c 00
        E 0 90 60 68
        E 120 80 60 00
        E 240 90 18 6a
        E 0 90 30 6a
        E 0 90 48 6a
        E 0 90 60 6a
        E 120 80 18 00
        E 0 80 30 00
        E 0 80 48 00
        E 0 80 60 00
        E 240 90 48 6c
        E 0 90 60 6c
        E 0 90 6c 6a
        E 120 80 48 00
        E 0 80 60 00
        E 0 80 6c 00
        E 120 90 18 6a
        E 0 90 30 6a
        E 0 90 48 6a
        E 0 90 60 6a
        E 120 80 18 00
        E 0 80 30 00
        E 0 80 48 00
        E 0 80 60 00
        E 120 90 48 6c
        E 0 90 60 6c
        E 120 80 48 00
        E 0 80 60 00
        E 240 90 31 6a
        E 0 90 49 6a
        E 0 90 61 6a
        E 120 80 31 00
        E 0 80 49 00
        E 0 80 61 00
        E 240 90 1a 67
        E 0 90 32 67
        E 0 90 4a 67
        E 0 90 62 67
        E 0 90 6c 67
        E 120 80 1a 00
        E 0 80 32 00
        E 0 80 4a 00
        E 0 80 62 00
        E 0 80 6c 00
        E 0 90 62 69
        E 120 80 62 00
        E 120 90 62 67
        E 0 90 6c 65
        E 120 80 62 00
        E 0 80 6c 00
        E 0 90 32 65
        E 0 90 4a 65
        E 0 90 62 65
        E 120 80 32 00
        E 0 80 4a 00
        E 0 80 62 00
        E 0 90 61 65
        E 120 80 61 00
        E 0 90 49 67
        E 0 90 61 67
        E 120 80 49 00
        E 0 80 61 00
        E 120 90 19 6a
        E 0 90 31 6a
        E 0 90 49 6a
        E 0 90 61 6a
        E 0 90 6c 67
        E 120 80 19 00
        E 0 80 31 00
        E 0 80 49 00
        E 0 80 61 00
        E 0 80 6c 00
        E 120 90 49 68
        E 0 90 61 68
        E 120 80 49 00
        E 0 80 61 00
        E 240 90 31 67
        E 0 90 49 67
        E 0 90 61 67
        E 120 80 31 00
        E 0 80 49 00
        E 0 80 61 00
        E 120 90 48 6a
        E 0 90 60 6a
        E 0 90 6c 68
        E 120 80 48 00
        E 0 80 60 00
        E 0 80 6c 00
        E 0 90 60 68
        E 120 80 60 00
        E 240 90 18 6a
        E 0 90 30 6a
        E 0 90 48 6a
        E 0 90 60 6a
        E 120 80 18 00
        E 0 80 30 00
        E 0 80 48 00
        E 0 80 60 00
        E 240 90 48 6c
        E 0 90 60 6c
        E 0 90 6c 6a
        E 120 80 48 00
        E 0 80 60 00
        E 0 80 6c 00
        E 120 90 18 6a
        E 0 90 30 6a
        E 0 90 48 6a
        E 0 90 60 6a
        E 0 90 74 64
        E 120 80 18 00
        E 0 80 30 00
        E 0 80 48 00
        E 0 80 60 00
        E 120 90 48 6c
        E 0 90 60 6c
        E 120 80 48 00
        E 0 80 60 00
        E 240 90 31 6a
        E 0 90 49 6a
        E 0 90 61 6a
        E 120 80 31 00
        E 0 80 49 00
        E 0 80 61 00
        E 240 90 1a 67
        E 0 90 32 67
        E 0 90 4a 67
        E 0 90 62 67
        E 0 90 6c 67
        E 120 80 1a 00
        E 0 80 32 00
        E 0 80 4a 00
        E 0 80 62 00
        E 0 80 6c 00
        E 0 90 63 67
        E 120 80 63 00
        E 120 90 62 69
        E 120 80 62 00
        E 0 90 32 67
        E 0 90 4a 67
        E 0 90 62 67
        E 120 80 32 00
        E 0 80 4a 00
        E 0 80 62 00
        E 0 90 61 6a
        E 120 80 61 00
        E 0 90 49 67
        E 0 90 61 67
        E 120 80 49 00
        E 0 80 61 00
        <X 120 0
          /wFbZW5kX3BiIHNvbmdfdHJhaW5lcl9wYl8yXQ==
        >
        E 0 80 74 00
        E 0 90 19 6a
        E 0 90 31 6a
        E 0 90 49 6a
        E 0 90 61 6a
        E 120 80 19 00
        E 0 80 31 00
        E 0 80 49 00
        E 0 80 61 00
        E 120 90 49 68
        E 0 90 61 68
        E 120 80 49 00
        E 0 80 61 00
        E 240 90 31 67
        E 0 90 49 67
        E 0 90 61 67
        E 120 80 31 00
        E 0 80 49 00
        E 0 80 61 00
        E 120 90 48 6a
        E 0 90 60 6a
        E 0 90 6c 64
        E 120 80 48 00
        E 0 80 60 00
        E 0 80 6c 00
        E 0 90 60 68
        E 120 80 60 00
        E 240 90 18 6a
        E 0 90 30 6a
        E 0 90 48 6a
        E 0 90 60 6a
        E 120 80 18 00
        E 0 80 30 00
        E 0 80 48 00
        E 0 80 60 00
        E 240 90 48 6c
        E 0 90 60 6c
        E 0 90 6c 64
        E 120 80 48 00
        E 0 80 60 00
        E 0 80 6c 00
        E 120 90 18 6a
        E 0 90 30 6a
        E 0 90 48 6a
        E 0 90 60 6a
        E 120 80 18 00
        E 0 80 30 00
        E 0 80 48 00
        E 0 80 60 00
        E 120 90 48 6c
        E 0 90 60 6c
        E 120 80 48 00
        E 0 80 60 00
        E 240 90 31 6a
        E 0 90 49 6a
        E 0 90 61 6a
        E 120 80 31 00
        E 0 80 49 00
        E 0 80 61 00
        E 240 90 1a 67
        E 0 90 32 67
        E 0 90 4a 67
        E 0 90 62 67
        E 0 90 6c 64
        E 120 80 1a 00
        E 0 80 32 00
        E 0 80 4a 00
        E 0 80 62 00
        E 0 80 6c 00
        E 0 90 62 69
        E 120 80 62 00
        E 120 90 62 67
        E 0 90 6c 64
        E 120 80 62 00
        E 0 80 6c 00
        E 0 90 32 65
        E 0 90 4a 65
        E 0 90 62 65
        E 120 80 32 00
        E 0 80 4a 00
        E 0 80 62 00
        E 0 90 61 65
        E 120 80 61 00
        E 0 90 49 67
        E 0 90 61 67
        E 120 80 49 00
        E 0 80 61 00
        E 120 90 19 6a
        E 0 90 31 6a
        E 0 90 49 6a
        E 0 90 61 6a
        E 0 90 6c 64
        E 120 80 19 00
        E 0 80 31 00
        E 0 80 49 00
        E 0 80 61 00
        E 0 80 6c 00
        E 120 90 49 68
        E 0 90 61 68
        E 120 80 49 00
        E 0 80 61 00
        E 240 90 31 67
        E 0 90 49 67
        E 0 90 61 67
        E 120 80 31 00
        E 0 80 49 00
        E 0 80 61 00
        E 120 90 48 6a
        E 0 90 60 6a
        E 0 90 6c 64
        E 120 80 48 00
        E 0 80 60 00
        E 0 80 6c 00
        E 0 90 60 68
        E 120 80 60 00
        E 240 90 18 6a
        E 0 90 30 6a
        E 0 90 48 6a
        E 0 90 60 6a
        E 120 80 18 00
        E 0 80 30 00
        E 0 80 48 00
        E 0 80 60 00
        E 240 90 48 6c
        E 0 90 60 6c
        E 0 90 6c 64
        E 120 80 48 00
        E 0 80 60 00
        E 0 80 6c 00
        E 120 90 18 6a
        E 0 90 30 6a
        E 0 90 48 6a
        E 0 90 60 6a
        E 120 80 18 00
        E 0 80 30 00
        E 0 80 48 00
        E 0 80 60 00
        E 120 90 48 6c
        E 0 90 60 6c
        E 120 80 48 00
        E 0 80 60 00
        E 240 90 31 6a
        E 0 90 49 6a
        E 0 90 61 6a
        E 120 80 31 00
        E 0 80 49 00
        E 0 80 61 00
        E 240 90 1a 67
        E 0 90 32 67
        E 0 90 4a 67
        E 0 90 62 67
        E 0 90 6c 64
        E 120 80 1a 00
        E 0 80 32 00
        E 0 80 4a 00
        E 0 80 62 00
        E 0 80 6c 00
        E 0 90 63 67
        E 120 80 63 00
        E 120 90 62 69
        E 120 80 62 00
        E 0 90 32 67
        E 0 90 4a 67
        E 0 90 62 67
        E 120 80 32 00
        E 0 80 4a 00
        E 0 80 62 00
        E 0 90 61 6a
        E 120 80 61 00
        E 0 90 49 67
        E 0 90 61 67
        E 120 80 49 00
        E 0 80 61 00
        E 120 90 19 6a
        E 0 90 31 6a
        E 0 90 49 6a
        E 0 90 61 6a
        E 120 80 19 00
        E 0 80 31 00
        E 0 80 49 00
        E 0 80 61 00
        E 120 90 49 68
        E 0 90 61 68
        E 120 80 49 00
        E 0 80 61 00
        E 240 90 31 67
        E 0 90 49 67
        E 0 90 61 67
        E 120 80 31 00
        E 0 80 49 00
        E 0 80 61 00
        E 120 90 48 6a
        E 0 90 60 6a
        E 0 90 6c 64
        E 120 80 48 00
        E 0 80 60 00
        E 0 80 6c 00
        E 0 90 60 68
        E 120 80 60 00
        E 240 90 18 6a
        E 0 90 30 6a
        E 0 90 48 6a
        E 0 90 60 6a
        E 120 80 18 00
        E 0 80 30 00
        E 0 80 48 00
        E 0 80 60 00
        E 240 90 48 6c
        E 0 90 60 6c
        E 0 90 6c 64
        E 120 80 48 00
        E 0 80 60 00
        E 0 80 6c 00
        E 120 90 18 6a
        E 0 90 30 6a
        E 0 90 48 6a
        E 0 90 60 6a
        E 120 80 18 00
        E 0 80 30 00
        E 0 80 48 00
        E 0 80 60 00
        E 120 90 48 6c
        E 0 90 60 6c
        E 120 80 48 00
        E 0 80 60 00
        E 240 90 31 6a
        E 0 90 49 6a
        E 0 90 61 6a
        E 120 80 31 00
        E 0 80 49 00
        E 0 80 61 00
        E 240 90 1a 67
        E 0 90 32 67
        E 0 90 4a 67
        E 0 90 62 67
        E 0 90 6c 64
        E 120 80 1a 00
        E 0 80 32 00
        E 0 80 4a 00
        E 0 80 62 00
        E 0 80 6c 00
        E 0 90 62 69
        E 120 80 62 00
        E 120 90 62 67
        E 0 90 6c 64
        E 120 80 62 00
        E 0 80 6c 00
        E 0 90 32 65
        E 0 90 4a 65
        E 0 90 62 65
        E 120 80 32 00
        E 0 80 4a 00
        E 0 80 62 00
        E 0 90 61 65
        E 120 80 61 00
        E 0 90 49 67
        E 0 90 61 67
        E 120 80 49 00
        E 0 80 61 00
        <X 120 0
          /wFbYmVnaW5fcGIgc29uZ190cmFpbmVyX3BiXzNd
        >
        E 0 90 19 6a
        E 0 90 31 6a
        E 0 90 49 6a
        E 0 90 61 6a
        E 0 90 6c 64
        E 0 90 74 64
        E 120 80 19 00
        E 0 80 31 00
        E 0 80 49 00
        E 0 80 61 00
        E 0 80 6c 00
        E 120 90 49 68
        E 0 90 61 68
        E 120 80 49 00
        E 0 80 61 00
        <X 120 0
          /wFbcGJfbm9ybSBzb25nX3RyYWluZXJfcGJfM10=
        >
        E 120 90 31 67
        E 0 90 49 67
        E 0 90 61 67
        E 120 80 31 00
        E 0 80 49 00
        E 0 80 61 00
        E 120 90 48 6a
        E 0 90 60 6a
        E 0 90 6c 64
        E 120 80 48 00
        E 0 80 60 00
        E 0 80 6c 00
        E 0 90 60 68
        E 120 80 60 00
        E 240 90 18 6a
        E 0 90 30 6a
        E 0 90 48 6a
        E 0 90 60 6a
        E 120 80 18 00
        E 0 80 30 00
        E 0 80 48 00
        E 0 80 60 00
        E 240 90 48 6c
        E 0 90 60 6c
        E 0 90 6c 64
        E 120 80 48 00
        E 0 80 60 00
        E 0 80 6c 00
        E 120 90 18 6a
        E 0 90 30 6a
        E 0 90 48 6a
        E 0 90 60 6a
        E 120 80 18 00
        E 0 80 30 00
        E 0 80 48 00
        E 0 80 60 00
        E 120 90 48 6c
        E 0 90 60 6c
        E 120 80 48 00
        E 0 80 60 00
        E 240 90 49 6a
        E 0 90 61 6a
        E 0 90 6c 64
        E 120 80 49 00
        E 0 80 61 00
        E 0 80 6c 00
        E 120 90 61 6c
        E 120 80 61 00
        E 0 90 1a 6c
        E 0 90 32 6c
        E 0 90 4a 6c
        E 0 90 62 6c
        E 120 80 1a 00
        E 0 80 32 00
        E 0 80 4a 00
        E 0 80 62 00
        E 0 90 63 6c
        E 120 80 63 00
        E 0 90 48 6a
        E 0 90 60 6a
        E 120 80 48 00
        E 0 80 60 00
        E 0 90 62 6e
        E 0 90 6c 64
        E 120 80 62 00
        E 0 80 6c 00
        E 0 90 32 6c
        E 0 90 4a 6c
        E 0 90 62 6c
        E 120 80 32 00
        E 0 80 4a 00
        E 0 80 62 00
        E 0 90 61 6e
        E 120 80 61 00
        E 0 90 49 6c
        E 0 92 61 6c
        E 120 80 49 00
        E 0 82 61 00
        <X 120 0
          /wFbYmVnaW5fcGIgc29uZ190cmFpbmVyX3BiXzRd
        >
        <X 0 0
          /wFbZW5kX3BiIHNvbmdfdHJhaW5lcl9wYl8zXQ==
        >
        E 0 80 74 00
        E 0 90 19 67
        E 0 90 31 67
        E 0 90 49 67
        E 0 90 61 67
        E 0 90 6c 64
        E 120 80 19 00
        E 0 80 31 00
        E 0 80 49 00
        E 0 80 61 00
        E 0 80 6c 00
        E 120 90 31 69
        E 0 90 49 69
        E 0 90 61 69
        E 120 80 31 00
        E 0 80 49 00
        E 0 80 61 00
        E 360 90 49 6a
        E 0 90 61 6a
        E 120 80 49 00
        E 0 80 61 00
        <X 120 0
          /wFbcGJfbm9ybSBzb25nX3RyYWluZXJfcGJfNF0=
        >
        E 0 90 1a 69
        E 0 90 32 69
        E 0 90 4a 69
        E 0 90 62 69
        E 0 90 6c 64
        E 120 80 1a 00
        E 0 80 32 00
        E 0 80 4a 00
        E 0 80 62 00
        E 0 80 6c 00
        E 120 90 4a 69
        E 0 90 62 69
        E 120 80 4a 00
        E 0 80 62 00
        E 0 90 62 6a
        E 120 80 62 00
        E 120 90 32 69
        E 0 90 4a 69
        E 0 90 62 69
        E 0 90 6c 64
        E 120 80 32 00
        E 0 80 62 00
        E 0 80 6c 00
        E 0 90 62 67
        E 360 80 4a 00
        E 0 80 62 00
        E 120 90 19 6a
        E 0 90 31 6a
        E 0 90 49 6a
        E 0 90 61 6a
        E 120 80 19 00
        E 0 80 31 00
        E 0 80 49 00
        E 0 80 61 00
        E 360 90 49 68
        E 0 90 61 68
        E 0 90 6c 64
        E 120 80 49 00
        E 0 80 61 00
        E 0 80 6c 00
        E 0 90 61 67
        E 120 80 61 00
        E 0 90 19 65
        E 0 90 31 65
        E 0 90 49 65
        E 0 90 61 65
        E 120 80 19 00
        E 0 80 31 00
        E 0 80 49 00
        E 0 80 61 00
        E 0 90 63 67
        E 120 80 63 00
        E 0 90 30 65
        E 0 90 48 65
        E 0 90 60 65
        E 120 80 30 00
        E 0 80 48 00
        E 0 80 60 00
        E 0 90 60 67
        E 120 80 60 00
        E 120 90 4a 67
        E 0 90 62 67
        E 120 80 4a 00
        E 0 80 62 00
        E 0 90 62 65
        E 120 80 62 00
        E 120 90 19 67
        E 0 90 31 67
        E 0 90 49 67
        E 0 90 61 67
        E 0 90 6c 64
        E 120 80 19 00
        E 0 80 31 00
        E 0 80 49 00
        E 0 80 61 00
        E 0 80 6c 00
        E 120 90 31 69
        E 0 90 49 69
        E 0 90 61 69
        E 120 80 31 00
        E 0 80 49 00
        E 0 80 61 00
        E 360 90 49 6a
        E 0 90 61 6a
        E 120 80 49 00
        E 0 80 61 00
        E 120 90 1a 69
        E 0 90 32 69
        E 0 90 4a 69
        E 0 90 62 69
        E 0 90 6c 64
        E 120 80 1a 00
        E 0 80 32 00
        E 0 80 4a 00
        E 0 80 62 00
        E 0 80 6c 00
        E 120 90 4a 69
        E 0 90 62 69
        E 120 80 4a 00
        E 0 80 62 00
        E 0 90 62 6a
        E 120 80 62 00
        E 120 90 32 69
        E 0 90 4a 69
        E 0 90 62 69
        E 0 90 6c 64
        E 120 80 32 00
        E 0 80 62 00
        E 0 80 6c 00
        E 0 90 62 67
        E 360 80 4a 00
        E 0 80 62 00
        E 120 90 19 6a
        E 0 90 31 6a
        E 0 90 49 6a
        E 0 90 61 6a
        E 120 80 19 00
        E 0 80 31 00
        E 0 80 49 00
        E 0 80 61 00
        E 360 90 30 6d
        E 0 90 48 6d
        E 0 90 60 6d
        E 0 90 6c 64
        E 120 80 30 00
        E 0 80 48 00
        E 0 80 60 00
        E 0 80 6c 00
        E 0 90 60 6c
        E 120 80 60 00
        E 0 90 1a 6c
        E 0 90 32 6c
        E 0 90 4a 6c
        E 0 90 62 6c
        E 120 80 1a 00
        E 0 80 32 00
        E 0 80 4a 00
        E 0 80 62 00
        E 0 90 63 6c
        E 120 80 63 00
        E 0 90 48 6a
        E 0 90 60 6a
        E 120 80 48 00
        E 0 80 60 00
        E 0 90 62 6e
        E 0 90 6c 64
        E 120 80 62 00
        E 0 80 6c 00
        E 0 90 32 6c
        E 0 90 4a 6c
        E 0 90 62 6c
        E 120 80 32 00
        E 0 80 4a 00
        E 0 80 62 00
        E 0 90 61 6e
        E 120 80 61 00
        E 0 90 49 6c
        E 0 92 61 6c
        E 120 80 49 00
        E 0 82 61 00
        <X 120 0
          /wFbZW5kX3BiIHNvbmdfdHJhaW5lcl9wYl80XQ==
        >
        E 0 90 19 6a
        E 0 90 31 6a
        E 0 90 49 6a
        E 0 90 61 6a
        E 0 90 6c 64
        E 120 80 19 00
        E 0 80 31 00
        E 0 80 49 00
        E 0 80 61 00
        E 0 80 6c 00
        E 120 90 49 68
        E 0 90 61 68
        E 120 80 49 00
        E 0 80 61 00
        E 240 90 31 67
        E 0 90 49 67
        E 0 90 61 67
        E 120 80 31 00
        E 0 80 49 00
        E 0 80 61 00
        E 120 90 48 6a
        E 0 90 60 6a
        E 0 90 6c 64
        E 120 80 48 00
        E 0 80 60 00
        E 0 80 6c 00
        E 0 90 60 68
        E 120 80 60 00
        E 240 90 18 6a
        E 0 90 30 6a
        E 0 90 48 6a
        E 0 90 60 6a
        E 120 80 18 00
        E 0 80 30 00
        E 0 80 48 00
        E 0 80 60 00
        E 240 90 48 6c
        E 0 90 60 6c
        E 0 90 6c 64
        E 120 80 48 00
        E 0 80 60 00
        E 0 80 6c 00
        E 120 90 18 6a
        E 0 90 30 6a
        E 0 90 48 6a
        E 0 90 60 6a
        E 0 90 74 64
        E 120 80 18 00
        E 0 80 30 00
        E 0 80 48 00
        E 0 80 60 00
        E 120 90 48 6c
        E 0 90 60 6c
        E 120 80 48 00
        E 0 80 60 00
        E 240 90 31 6a
        E 0 90 49 6a
        E 0 90 61 6a
        E 120 80 31 00
        E 0 80 49 00
        E 0 80 61 00
        E 240 90 1a 67
        E 0 90 32 67
        E 0 90 4a 67
        E 0 90 62 67
        E 0 90 6c 64
        E 120 80 1a 00
        E 0 80 32 00
        E 0 80 4a 00
        E 0 80 62 00
        E 0 80 6c 00
        E 0 90 62 69
        E 120 80 62 00
        E 120 90 62 67
        E 0 90 6c 64
        E 120 80 62 00
        E 0 80 6c 00
        E 0 90 32 65
        E 0 90 4a 65
        E 0 90 62 65
        E 120 80 32 00
        E 0 80 4a 00
        E 0 80 62 00
        E 0 90 61 65
        E 120 80 61 00
        E 0 90 49 67
        E 0 90 61 67
        E 120 80 49 00
        E 0 80 61 00
        E 120 80 74 00
        E 0 90 19 6a
        E 0 90 31 6a
        E 0 90 49 6a
        E 0 90 61 6a
        E 0 90 6c 64
        E 120 80 19 00
        E 0 80 31 00
        E 0 80 49 00
        E 0 80 61 00
        E 0 80 6c 00
        E 120 90 49 68
        E 0 90 61 68
        E 120 80 49 00
        E 0 80 61 00
        E 240 90 31 67
        E 0 90 49 67
        E 0 90 61 67
        E 120 80 31 00
        E 0 80 49 00
        E 0 80 61 00
        E 120 90 48 6a
        E 0 90 60 6a
        E 0 90 6c 64
        E 120 80 48 00
        E 0 80 60 00
        E 0 80 6c 00
        E 0 90 60 68
        E 120 80 60 00
        E 240 90 18 6a
        E 0 90 30 6a
        E 0 90 48 6a
        E 0 90 60 6a
        E 120 80 18 00
        E 0 80 30 00
        E 0 80 48 00
        E 0 80 60 00
        E 240 90 48 6c
        E 0 90 60 6c
        E 0 90 6c 64
        E 120 80 48 00
        E 0 80 60 00
        E 0 80 6c 00
        E 120 90 18 6a
        E 0 90 30 6a
        E 0 90 48 6a
        E 0 90 60 6a
        E 120 80 18 00
        E 0 80 30 00
        E 0 80 48 00
        E 0 80 60 00
        E 120 90 48 6c
        E 0 90 60 6c
        E 120 80 48 00
        E 0 80 60 00
        E 240 90 31 6a
        E 0 90 49 6a
        E 0 90 61 6a
        E 120 80 31 00
        E 0 80 49 00
        E 0 80 61 00
        E 240 90 1a 67
        E 0 90 32 67
        E 0 90 4a 67
        E 0 90 62 67
        E 0 90 6c 64
        E 120 80 1a 00
        E 0 80 32 00
        E 0 80 4a 00
        E 0 80 62 00
        E 0 80 6c 00
        E 0 90 63 67
        E 120 80 63 00
        E 120 90 62 69
        E 120 80 62 00
        E 0 90 32 67
        E 0 90 4a 67
        E 0 90 62 67
        E 120 80 32 00
        E 0 80 4a 00
        E 0 80 62 00
        E 0 90 61 6a
        E 120 80 61 00
        E 0 90 49 67
        E 0 90 61 67
        E 120 80 49 00
        E 0 80 61 00
        <X 120 0
          /wFbYmVnaW5fcGIgc29uZ190cmFpbmVyX3BiXzVd
        >
        E 0 90 19 6a
        E 0 90 31 6a
        E 0 90 49 6a
        E 0 90 61 6a
        E 120 80 19 00
        E 0 80 31 00
        E 0 80 49 00
        E 0 80 61 00
        E 120 90 49 68
        E 0 90 61 68
        E 120 80 49 00
        E 0 80 61 00
        E 120 90 31 67
        E 0 90 49 67
        E 0 90 61 67
        E 120 80 31 00
        E 0 80 49 00
        E 0 80 61 00
        E 240 90 48 6a
        E 0 90 60 6a
        E 0 90 6c 64
        <X 120 0
          /wFbcGJfbm9ybSBzb25nX3RyYWluZXJfcGJfNV0=
        >
        E 0 80 48 00
        E 0 80 60 00
        E 0 80 6c 00
        E 0 90 60 68
        E 120 80 60 00
        E 240 90 18 6a
        E 0 90 30 6a
        E 0 90 48 6a
        E 0 90 60 6a
        E 120 80 18 00
        E 0 80 30 00
        E 0 80 48 00
        E 0 80 60 00
        E 240 90 48 6c
        E 0 90 60 6c
        E 0 90 6c 64
        E 120 80 48 00
        E 0 80 60 00
        E 0 80 6c 00
        E 120 90 18 6a
        E 0 90 30 6a
        E 0 90 48 6a
        E 0 90 60 6a
        E 120 80 18 00
        E 0 80 30 00
        E 0 80 48 00
        E 0 80 60 00
        E 120 90 48 6c
        E 0 90 60 6c
        E 120 80 48 00
        E 0 80 60 00
        E 120 90 74 64
        E 120 90 61 6a
        E 0 90 6c 64
        E 120 80 61 00
        E 0 80 6c 00
        E 0 90 49 6c
        E 0 90 61 6c
        E 120 80 49 00
        E 0 80 61 00
        E 0 90 62 69
        E 120 80 62 00
        E 0 90 1a 6c
        E 0 90 32 6c
        E 0 90 4a 6c
        E 0 90 62 6c
        E 0 90 6c 64
        E 120 80 1a 00
        E 0 80 32 00
        E 0 80 4a 00
        E 0 80 62 00
        E 0 80 6c 00
        E 0 90 63 6c
        E 120 80 63 00
        E 0 90 48 6a
        E 0 90 60 6a
        E 120 80 48 00
        E 0 80 60 00
        E 0 90 62 6e
        E 0 90 6c 64
        E 120 80 62 00
        E 0 80 6c 00
        E 0 90 32 6c
        E 0 90 4a 6c
        E 0 90 62 6c
        E 120 80 32 00
        E 0 80 4a 00
        E 0 80 62 00
        E 0 90 61 6e
        E 120 80 61 00
        E 0 90 49 6c
        E 0 92 61 6c
        E 120 80 49 00
        E 0 82 61 00
        E 120 90 19 6a
        E 0 90 31 6a
        E 0 90 49 6a
        E 0 90 61 6a
        E 0 90 6c 64
        E 480 80 74 00
        <X 3360 0
          /wFbZW5kX3BiIHNvbmdfdHJhaW5lcl9wYl81XQ==
        >
        E 0 80 19 00
        E 0 80 31 00
        E 0 80 49 00
        E 0 80 61 00
        E 0 80 6c 00
        E 3240 90 62 69
        E 0 90 6c 64
        E 120 80 62 00
        E 0 80 6c 00
        E 0 90 32 67
        E 0 90 4a 67
        E 0 90 62 67
        E 120 80 32 00
        E 0 80 4a 00
        E 0 80 62 00
        E 0 90 61 6a
        E 120 80 61 00
        E 0 90 49 67
        E 0 90 61 67
        E 120 80 49 00
        E 0 80 61 00
        E 120 90 19 6a
        E 0 90 31 6a
        E 0 90 49 6a
        E 0 90 61 6a
        E 0 90 6c 64
        E 120 80 19 00
        E 0 80 31 00
        E 0 80 49 00
        E 0 80 61 00
        E 0 80 6c 00
        E 120 90 49 68
        E 0 90 61 68
        E 120 80 49 00
        E 0 80 61 00
        E 240 90 31 67
        E 0 90 49 67
        E 0 90 61 67
        E 120 80 31 00
        E 0 80 49 00
        E 0 80 61 00
        E 120 90 48 6a
        E 0 90 60 6a
        E 0 90 6c 64
        E 120 80 48 00
        E 0 80 60 00
        E 0 80 6c 00
        E 0 90 60 68
        E 120 80 60 00
        E 240 90 18 6a
        E 0 90 30 6a
        E 0 90 48 6a
        E 0 90 60 6a
        E 120 80 18 00
        E 0 80 30 00
        E 0 80 48 00
        E 0 80 60 00
        E 240 90 48 6c
        E 0 90 60 6c
        E 0 90 6c 64
        E 120 80 48 00
        E 0 80 60 00
        E 0 80 6c 00
        E 120 90 18 6a
        E 0 90 30 6a
        E 0 90 48 6a
        E 0 90 60 6a
        E 120 80 18 00
        E 0 80 30 00
        E 0 80 48 00
        E 0 80 60 00
        E 120 90 48 6c
        E 0 90 60 6c
        E 120 80 48 00
        E 0 80 60 00
        E 240 90 31 6a
        E 0 90 49 6a
        E 0 90 61 6a
        E 120 80 31 00
        E 0 80 49 00
        E 0 80 61 00
        E 240 90 1a 67
        E 0 90 32 67
        E 0 90 4a 67
        E 0 90 62 67
        E 0 90 6c 64
        E 120 80 1a 00
        E 0 80 32 00
        E 0 80 4a 00
        E 0 80 62 00
        E 0 80 6c 00
        E 0 90 62 69
        E 120 80 62 00
        E 120 90 62 67
        E 0 90 6c 64
        E 120 80 62 00
        E 0 80 6c 00
        E 0 90 32 65
        E 0 90 4a 65
        E 0 90 62 65
        E 120 80 32 00
        E 0 80 4a 00
        E 0 80 62 00
        E 0 90 61 65
        E 120 80 61 00
        E 0 90 49 67
        E 0 90 61 67
        E 120 80 49 00
        E 0 80 61 00
        E 120 90 19 6a
        E 0 90 31 6a
        E 0 90 49 6a
        E 0 90 61 6a
        E 0 90 6c 64
        E 120 80 19 00
        E 0 80 31 00
        E 0 80 49 00
        E 0 80 61 00
        E 0 80 6c 00
        E 120 90 49 68
        E 0 90 61 68
        E 0 90 74 64
        E 120 80 49 00
        E 0 80 61 00
        E 240 90 31 67
        E 0 90 49 67
        E 0 90 61 67
        E 120 80 31 00
        E 0 80 49 00
        E 0 80 61 00
        E 120 90 48 6a
        E 0 90 60 6a
        E 0 90 6c 64
        E 120 80 48 00
        E 0 80 60 00
        E 0 80 6c 00
        E 0 90 60 68
        E 120 80 60 00
        E 240 90 18 6a
        E 0 90 30 6a
        E 0 90 48 6a
        E 0 90 60 6a
        E 120 80 18 00
        E 0 80 30 00
        E 0 80 48 00
        E 0 80 60 00
        E 240 90 48 6c
        E 0 90 60 6c
        E 0 90 6c 64
        E 120 80 48 00
        E 0 80 60 00
        E 0 80 6c 00
        E 120 90 18 6a
        E 0 90 30 6a
        E 0 90 48 6a
        E 0 90 60 6a
        E 120 80 18 00
        E 0 80 30 00
        E 0 80 48 00
        E 0 80 60 00
        E 120 90 48 6c
        E 0 90 60 6c
        E 120 80 48 00
        E 0 80 60 00
        E 240 90 31 6a
        E 0 90 49 6a
        E 0 90 61 6a
        E 120 80 74 00
        E 0 80 31 00
        E 0 80 49 00
        E 0 80 61 00
        E 240 90 1a 67
        E 0 90 32 67
        E 0 90 4a 67
        E 0 90 62 67
        E 0 90 6c 64
        E 120 80 1a 00
        E 0 80 32 00
        E 0 80 4a 00
        E 0 80 62 00
        E 0 80 6c 00
        E 0 90 63 67
        E 120 80 63 00
        E 120 90 62 69
        E 120 80 62 00
        E 0 90 32 67
        E 0 90 4a 67
        E 0 90 62 67
        E 120 80 32 00
        E 0 80 4a 00
        E 0 80 62 00
        E 0 90 61 6a
        E 120 80 61 00
        E 0 90 49 67
        E 0 90 61 67
        E 120 80 49 00
        E 0 80 61 00
        <X 120 0
          /wFbYmVnaW5fcGIgc29uZ190cmFpbmVyX3BiXzZd
        >
        E 0 90 19 6c
        E 0 90 31 6c
        E 0 90 49 6c
        E 0 90 61 6c
        E 0 90 6c 64
        E 120 80 19 00
        E 0 80 31 00
        E 0 80 49 00
        E 0 80 61 00
        E 0 80 6c 00
        E 120 90 49 6a
        E 0 90 61 6a
        E 120 80 49 00
        E 0 80 61 00
        E 240 90 31 69
        E 0 90 49 69
        E 0 90 61 69
        E 120 80 31 00
        E 0 80 49 00
        E 0 80 61 00
        E 120 90 48 6c
        E 0 90 60 6c
        E 0 90 6c 64
        <X 120 0
          /wFbcGJfbm9ybSBzb25nX3RyYWluZXJfcGJfNl0=
        >
        E 0 80 48 00
        E 0 80 60 00
        E 0 80 6c 00
        E 0 90 60 6a
        E 120 80 60 00
        E 240 90 18 6c
        E 0 90 30 6c
        E 0 90 48 6c
        E 0 90 60 6c
        E 120 80 18 00
        E 0 80 30 00
        E 0 80 48 00
        E 0 80 60 00
        E 240 90 48 6e
        E 0 90 60 6e
        E 0 90 6c 64
        E 120 80 48 00
        E 0 80 60 00
        E 0 80 6c 00
        E 120 90 18 6c
        E 0 90 30 6c
        E 0 90 48 6c
        E 0 90 60 6c
        E 120 80 18 00
        E 0 80 30 00
        E 0 80 48 00
        E 0 80 60 00
        E 120 90 48 6e
        E 0 90 60 6e
        E 120 80 48 00
        E 0 80 60 00
        E 240 90 31 6c
        E 0 90 49 6c
        E 0 90 61 6c
        E 120 80 31 00
        E 0 80 49 00
        E 0 80 61 00
        E 240 90 1a 69
        E 0 90 32 69
        E 0 90 4a 69
        E 0 90 62 69
        E 0 90 6c 64
        E 120 80 1a 00
        E 0 80 32 00
        E 0 80 4a 00
        E 0 80 62 00
        E 0 80 6c 00
        E 0 90 62 6b
        E 120 80 62 00
        E 120 90 62 69
        E 0 90 6c 64
        E 120 80 62 00
        E 0 80 6c 00
        E 0 90 32 67
        E 0 90 4a 67
        E 0 90 62 67
        E 120 80 32 00
        E 0 80 4a 00
        E 0 80 62 00
        E 0 90 61 67
        E 120 80 61 00
        E 0 90 49 69
        E 0 90 61 69
        E 120 80 49 00
        E 0 80 61 00
        E 120 90 19 6c
        E 0 90 31 6c
        E 0 90 49 6c
        E 0 90 61 6c
        E 0 90 6c 64
        E 120 80 19 00
        E 0 80 31 00
        E 0 80 49 00
        E 0 80 61 00
        E 0 80 6c 00
        E 120 90 49 6a
        E 0 90 61 6a
        E 120 80 49 00
        E 0 80 61 00
        E 240 90 31 69
        E 0 90 49 69
        E 0 90 61 69
        E 120 80 31 00
        E 0 80 49 00
        E 0 80 61 00
        E 120 90 48 6c
        E 0 90 60 6c
        E 0 90 6c 64
        E 120 80 48 00
        E 0 80 60 00
        E 0 80 6c 00
        E 0 90 60 6a
        E 120 80 60 00
        E 240 90 18 6c
        E 0 90 30 6c
        E 0 90 48 6c
        E 0 90 60 6c
        E 120 80 18 00
        E 0 80 30 00
        E 0 80 48 00
        E 0 80 60 00
        E 240 90 48 6e
        E 0 90 60 6e
        E 0 90 6c 64
        E 120 80 48 00
        E 0 80 60 00
        E 0 80 6c 00
        E 120 90 18 6c
        E 0 90 30 6c
        E 0 90 48 6c
        E 0 90 60 6c
        E 120 80 18 00
        E 0 80 30 00
        E 0 80 48 00
        E 0 80 60 00
        E 120 90 48 6e
        E 0 90 60 6e
        E 120 80 48 00
        E 0 80 60 00
        E 240 90 31 6c
        E 0 90 49 6c
        E 0 90 61 6c
        E 120 80 31 00
        E 0 80 49 00
        E 0 80 61 00
        E 240 90 1a 69
        E 0 90 32 69
        E 0 90 4a 69
        E 0 90 62 69
        E 0 90 6c 64
        E 120 80 1a 00
        E 0 80 32 00
        E 0 80 4a 00
        E 0 80 62 00
        E 0 80 6c 00
        E 0 90 63 69
        E 120 80 63 00
        E 120 90 62 6b
        E 120 80 62 00
        E 0 90 32 69
        E 0 90 4a 69
        E 0 90 62 69
        E 120 80 32 00
        E 0 80 4a 00
        E 0 80 62 00
        E 0 90 61 6c
        E 120 80 61 00
        E 0 90 49 69
        E 0 90 61 69
        E 120 80 49 00
        E 0 80 61 00
        <X 120 0
          /wFbZW5kX3BiIHNvbmdfdHJhaW5lcl9wYl82XQ==
        >
        <X 0 0
          /wFbYmVnaW5fcGIgc29uZ190cmFpbmVyX3BiXzdd
        >
        E 0 90 19 6c
        E 0 90 31 6c
        E 0 90 49 6c
        E 0 90 61 6c
        E 120 80 19 00
        E 0 80 31 00
        E 0 80 49 00
        E 0 80 61 00
        E 120 90 49 6a
        E 0 90 61 6a
        E 120 80 49 00
        E 0 80 61 00
        E 240 90 31 69
        E 0 90 49 69
        E 0 90 61 69
        E 120 80 31 00
        E 0 80 49 00
        E 0 80 61 00
        E 120 90 48 6c
        E 0 90 60 6c
        E 0 90 6c 64
        <X 120 0
          /wFbcGJfbm9ybSBzb25nX3RyYWluZXJfcGJfN10=
        >
        E 0 80 48 00
        E 0 80 60 00
        E 0 80 6c 00
        E 0 90 60 6a
        E 120 80 60 00
        E 240 90 18 6c
        E 0 90 30 6c
        E 0 90 48 6c
        E 0 90 60 6c
        E 120 80 18 00
        E 0 80 30 00
        E 0 80 48 00
        E 0 80 60 00
        E 240 90 48 6e
        E 0 90 60 6e
        E 0 90 6c 64
        E 120 80 48 00
        E 0 80 60 00
        E 0 80 6c 00
        E 120 90 18 6c
        E 0 90 30 6c
        E 0 90 48 6c
        E 0 90 60 6c
        E 120 80 18 00
        E 0 80 30 00
        E 0 80 48 00
        E 0 80 60 00
        E 120 90 48 6e
        E 0 90 60 6e
        E 120 80 48 00
        E 0 80 60 00
        E 240 90 31 6c
        E 0 90 49 6c
        E 0 90 61 6c
        E 120 80 31 00
        E 0 80 49 00
        E 0 80 61 00
        E 240 90 1a 69
        E 0 90 32 69
        E 0 90 4a 69
        E 0 90 62 69
        E 0 90 6c 64
        E 120 80 1a 00
        E 0 80 32 00
        E 0 80 4a 00
        E 0 80 62 00
        E 0 80 6c 00
        E 0 90 62 6b
        E 120 80 62 00
        E 120 90 62 69
        E 0 90 6c 64
        E 120 80 62 00
        E 0 80 6c 00
        E 0 90 32 67
        E 0 90 4a 67
        E 0 90 62 67
        E 120 80 32 00
        E 0 80 4a 00
        E 0 80 62 00
        E 0 90 61 67
        E 120 80 61 00
        E 0 90 49 69
        E 0 90 61 69
        E 120 80 49 00
        E 0 80 61 00
        E 120 90 19 6c
        E 0 90 31 6c
        E 0 90 49 6c
        E 0 90 61 6c
        E 0 90 6c 64
        E 120 80 19 00
        E 0 80 31 00
        E 0 80 49 00
        E 0 80 61 00
        E 0 80 6c 00
        E 120 90 49 6a
        E 0 90 61 6a
        E 120 80 49 00
        E 0 80 61 00
        E 120 90 31 69
        E 0 90 49 69
        E 0 90 61 69
        E 120 80 31 00
        E 0 80 49 00
        E 0 80 61 00
        E 240 90 48 6c
        E 0 90 60 6c
        E 0 90 6c 64
        E 120 80 48 00
        E 0 80 60 00
        E 0 80 6c 00
        E 0 90 60 6a
        E 120 80 60 00
        E 240 90 18 6c
        E 0 90 30 6c
        E 0 90 48 6c
        E 0 90 60 6c
        E 120 80 18 00
        E 0 80 30 00
        E 0 80 48 00
        E 0 80 60 00
        E 240 90 48 6e
        E 0 90 60 6e
        E 0 90 6c 64
        E 120 80 48 00
        E 0 80 60 00
        E 0 80 6c 00
        E 120 90 18 6c
        E 0 90 30 6c
        E 0 90 48 6c
        E 0 90 60 6c
        E 120 80 18 00
        E 0 80 30 00
        E 0 80 48 00
        E 0 80 60 00
        E 120 90 48 6e
        E 0 90 60 6e
        E 120 80 48 00
        E 0 80 60 00
        E 240 90 61 6c
        E 0 90 6c 64
        E 120 80 61 00
        E 0 80 6c 00
        E 0 90 49 6e
        E 0 90 61 6e
        E 120 80 49 00
        E 0 80 61 00
        E 0 90 62 6b
        E 120 80 62 00
        E 0 90 1a 6e
        E 0 90 32 6e
        E 0 90 4a 6e
        E 0 90 62 6e
        E 120 80 1a 00
        E 0 80 32 00
        E 0 80 4a 00
        E 0 80 62 00
        E 0 90 63 6e
        E 120 80 63 00
        E 0 90 48 6c
        E 0 90 60 6c
        E 120 80 48 00
        E 0 80 60 00
        <X 599 0
          /wFbZW5kX3BiIHNvbmdfdHJhaW5lcl9wYl83XQ==
        >
        E 1 b0 7b 00
        GUID {3C5229CA-FDCA-4924-AC38-B4394A4A6DD6}
        IGNTEMPO 0 120.00000000 4 4
        SRCCOLOR 54
        VELLANE 132 71 60
        COLORMAP "C:\Program Files (x86)\REAPER\Data\color_maps\rockband_guitarbass.png"
        CFGEDITVIEW 9470.105416 166.553584 8 12 0 0 0
        CFGEDIT 1 1 0 1 1 0 1 1 1 1 1 0.25000000 -8 -8 1548 876 0 2 1 1 0.00000000 0 1 0 0 0.500000 0 0 1.000000 64
        KEYSNAP 0 0 "102034050607" 0 "Major"
        EVTFILTER 0 -1 -1 -1 -1 0 1 0 0 -1.00000000 -1.00000000
      >
    >
  >
  <TRACK '{670CDCDC-4E36-4B12-9039-E7A368979D95}'
    NAME "PART REAL_GUITAR"
    PEAKCOL 16576
    BEAT -1
    AUTOMODE 0
    VOLPAN 1.00000000000000 0.00000000000000 -1.00000000000000 -1.00000000000000 1.00000000000000
    MUTESOLO 0 0 0
    IPHASE 0
    ISBUS 0 0
    BUSCOMP 0 0
    SHOWINMIX 1 0.666700 0.500000 1 0.500000 -1 -1 -1
    FREEMODE 0
    SEL 1
    REC 0 0 0 0 0 0 0
    VU 2
    TRACKHEIGHT 0 0
    INQ 0 0 0 0.5000000000 100 0 0 100
    NCHAN 2
    FX 0
    TRACKID {670CDCDC-4E36-4B12-9039-E7A368979D95}
    PERF 0
    MIDIOUT -1
    <MIDINOTENAMES
      0 127 "Trill Marker"
      0 126 "Tremolo Marker"
      0 125 "BRE"
      0 124 "BRE"
      0 123 "BRE"
      0 122 "BRE"
      0 121 "BRE"
      0 120 "BRE (use all 6)"
      0 119 "-----------"
      0 116 "OVERDRIVE"
      0 115 "Solo Marker"
      0 109 "-----------"
      0 108 "Left Hand Position"
      0 107 "Force Chord Numbering"
      0 106 "Loose Strumming"
      0 105 "Strum Direction"
      0 104 "Arpeggio Marker"
      0 103 "Slide Marker"
      0 102 "Force HOPO"
      0 101 "EXPERT e String"
      0 100 "EXPERT B String"
      0 99 "EXPERT G String"
      0 98 "EXPERT D String"
      0 97 "EXPERT A String"
      0 96 "EXPERT E String"
      0 95 "-----------"
      0 82 "Loose Strumming"
      0 81 "Strum Direction"
      0 80 "Arpeggio Marker"
      0 79 "Slide Marker"
      0 78 "Force HOPO"
      0 77 "HARD e String"
      0 76 "HARD B String"
      0 75 "HARD G String"
      0 74 "HARD D String"
      0 73 "HARD A String"
      0 72 "HARD E String"
      0 71 "-----------"
      0 58 "Loose Strumming"
      0 56 "Arpeggio Marker"
      0 55 "Slide Marker"
      0 53 "MEDIUM e String"
      0 52 "MEDIUM B String"
      0 51 "MEDIUM G String"
      0 50 "MEDIUM D String"
      0 49 "MEDIUM A String"
      0 48 "MEDIUM E String"
      0 47 "-----------"
      0 32 "Arpeggio Marker"
      0 31 "Slide Marker"
      0 29 "EASY e String"
      0 28 "EASY B String"
      0 27 "EASY G String"
      0 26 "EASY D String"
      0 25 "EASY A String"
      0 24 "EASY E String"
      0 21 "-----------"
      0 18 "Flat/Sharp Swap"
      0 17 "Hide Chord Names"
      0 16 "Slash Chord"
      0 15 "D#"
      0 14 "D"
      0 13 "C#"
      0 12 "C"
      0 11 "B"
      0 10 "A#"
      0 9 "A"
      0 8 "G#"
      0 7 "G"
      0 6 "F#"
      0 5 "F"
      0 4 "E"
    >
    MAINSEND 1 0
    <FXCHAIN
      WNDRECT 0 43 655 467
      SHOW 0
      LASTSEL 1
      DOCKED 0
      BYPASS 0 0
      <JS "c3/progtr" ""
        0.000000 3.000000 0.000000 0.000000 0.000000 0.000000 0.000000 0.000000 0.000000 1.000000 - - - - - - - - - - - - - - - - - - - - - - - - - - - - - - - - - - - - - - - - - - - - - - - - - - - - - - 
      >
      FLOATPOS 0 0 0 0
      FXID {52D86A58-698B-40E1-806A-0AC411E833E4}
      WAK 0
      BYPASS 0 0
      <VST "VSTi: ReaSynth (Cockos)" "reasynth.dll" 0 ""
        eXNlcu9e7f4AAAAAAgAAAAEAAAAAAAAAAgAAAAAAAAA4AAAAAAAAAA==
        AAAQAO++rd4N8K3eppvEO3eCsz2HFlk/AAAAAAAAAAAGJA4+4jAEPA==
        AAAAAAAAAD+01hM+j8L1PQAAAD8AABAAAAA=
      >
      FLOATPOS 0 0 0 0
      FXID {3A5C1A31-2E18-4D67-9E9B-4313F5EEC7FD}
      WAK 0
    >
    <ITEM
      POSITION 0.00000000000000
      SNAPOFFS 0.00000000000000
      LENGTH 80.50000000000000
      LOOP 0
      ALLTAKES 0
      SEL 1
      FADEIN 1 0.000000 0.000000 1 0
      FADEOUT 1 0.000000 0.000000 1 0
      MUTE 0
      IGUID {1B97F569-B28E-4241-98FA-DBDC802AC051}
      IID 5
      NAME "PART REAL_GUITAR"
      VOLPAN 1.000000 0.000000 1.000000 -1.000000
      SOFFS 0.00000000000000 0.00000000000000
      PLAYRATE 1.00000000000000 1 0.00000000000000 -1
      CHANMODE 0
      GUID {A38B4878-ECA6-48D4-B84F-B3D624BB6937}
      <SOURCE MIDI
        HASDATA 1 480 QN
        POOLEDEVTS {474C284A-A009-47E4-93AA-2AA413E9B997}
        <X 0 0
          /wNQQVJUIFJFQUxfR1VJVEFS
        >
        E 3840 90 74 64
        <X 960 0
          /wFbYmVnaW5fcGcgc29uZ190cmFpbmVyX3BnXzFd
        >
        E 0 90 19 66
        E 0 90 31 66
        E 0 90 49 66
        E 0 90 61 66
        E 0 90 6c 66
        E 120 80 74 00
        E 0 80 19 00
        E 0 80 31 00
        E 0 80 49 00
        E 0 80 6c 00
        E 120 80 61 00
        E 120 90 4b 68
        E 0 90 63 68
        E 120 80 4b 00
        E 0 80 63 00
        E 240 90 49 66
        E 0 90 61 66
        E 120 80 49 00
        E 0 80 61 00
        <X 120 0
          /wFbcGdfbm9ybSBzb25nX3RyYWluZXJfcGdfMV0=
        >
        E 0 90 1a 66
        E 0 90 32 66
        E 0 90 4a 66
        E 0 90 62 66
        E 120 80 1a 00
        E 0 80 32 00
        E 0 80 4a 00
        E 120 80 62 00
        E 120 90 4a 68
        E 0 90 62 68
        E 120 80 4a 00
        E 0 80 62 00
        E 120 93 62 66
        E 120 90 1a 68
        E 0 90 32 68
        E 0 90 4a 68
        E 0 92 62 68
        E 0 83 62 00 -60
        E 720 80 1a 00
        E 0 80 32 00
        E 120 80 4a 00
        E 0 82 62 00
        E 120 90 4a 66
        E 0 90 62 66
        E 120 80 4a 00
        E 0 80 62 00
        E 0 90 62 68
        E 120 80 62 00
        E 0 90 18 66
        E 0 90 30 66
        E 0 90 48 66
        E 0 90 60 66
        E 120 80 18 00
        E 0 80 30 00
        E 0 80 48 00
        E 120 80 60 00
        E 120 90 48 68
        E 0 90 60 68
        E 120 80 48 00
        E 0 80 60 00
        E 240 90 31 66
        E 0 90 49 66
        E 0 90 61 66
        E 120 80 31 00
        E 360 80 49 00
        E 0 80 61 00
        E 120 90 33 68
        E 0 90 4b 68
        E 0 90 63 68
        E 120 80 33 00
        E 0 80 4b 00
        E 0 80 63 00
        E 240 90 49 66
        E 0 90 61 66
        E 120 80 49 00
        E 0 80 61 00
        E 120 90 1a 66
        E 0 90 32 66
        E 0 90 4a 66
        E 0 90 62 66
        E 120 80 1a 00
        E 0 80 32 00
        E 0 80 4a 00
        E 120 80 62 00
        E 120 90 4a 68
        E 0 90 62 68
        E 120 80 4a 00
        E 0 80 62 00
        E 120 93 62 66
        E 120 90 32 68
        E 0 90 4a 68
        E 0 92 62 68
        E 0 83 62 00 -60
        E 120 80 32 00
        E 0 80 4a 00
        E 120 90 1a 68
        E 0 90 32 68
        E 0 90 4a 68
        E 480 80 1a 00
        E 0 80 32 00
        E 120 80 4a 00
        E 0 82 62 00
        E 120 90 4a 66
        E 0 90 62 66
        E 60 80 62 00
        E 60 80 4a 00
        E 0 90 62 68
        E 120 80 62 00
        E 0 90 18 66
        E 0 90 30 66
        E 0 90 48 66
        E 0 90 60 66
        E 120 80 18 00
        E 0 80 30 00
        E 0 80 48 00
        E 120 80 60 00
        E 120 90 48 68
        E 0 90 60 68
        E 120 80 48 00
        E 0 80 60 00
        E 240 90 31 66
        E 0 90 49 66
        E 0 90 61 66
        E 120 80 31 00
        E 0 80 49 00
        E 0 80 61 00
        <X 120 0
          /wFbZW5kX3BnIHNvbmdfdHJhaW5lcl9wZ18xXQ==
        >
        <X 0 0
          /wFbYmVnaW5fcGcgc29uZ190cmFpbmVyX3BnXzJd
        >
        E 240 90 11 60
        E 0 90 33 6a
        E 0 90 34 69
        E 0 90 4b 6a
        E 0 90 4c 69
        E 0 90 6b 64
        E 0 90 6c 68
        E 0 92 63 6a
        E 0 92 64 69
        E 120 80 33 00
        E 0 80 34 00
        E 0 80 4b 00
        E 0 80 4c 00
        E 0 80 6c 00
        <X 120 0
          /wFbcGdfbm9ybSBzb25nX3RyYWluZXJfcGdfMl0=
        >
        E 0 80 6b 00
        E 0 90 33 6a
        E 0 90 34 69
        E 0 90 4b 6a
        E 0 90 4c 69
        E 0 82 63 00
        E 0 82 64 00
        E 120 80 33 00
        E 0 80 34 00
        E 0 80 4b 00
        E 0 80 4c 00
        E 0 90 64 68
        E 120 80 64 00
        E 0 90 4c 69
        E 0 90 64 69
        E 120 80 4c 00
        E 0 80 64 00
        E 0 90 64 68
        E 120 80 64 00
        E 0 90 1b 68
        E 0 90 33 68
        E 0 90 4b 68
        E 0 90 63 68
        E 120 80 1b 00
        E 0 80 33 00
        E 0 80 4b 00
        E 0 80 63 00
        E 0 90 62 6a
        E 120 80 62 00
        E 0 90 4b 6a
        E 0 90 63 6a
        E 120 80 4b 00
        E 0 80 63 00
        E 0 90 63 68
        E 120 80 63 00
        E 120 90 32 68
        E 0 90 4a 68
        E 0 90 62 68
        E 120 80 62 00
        E 0 90 63 68
        E 240 80 32 00
        E 120 80 4a 00
        E 0 80 63 00
        E 120 90 4a 65
        E 0 90 62 65
        E 0 90 6c 65
        E 0 90 74 64
        E 120 80 4a 00
        E 0 80 62 00
        E 0 80 6c 00
        E 0 90 62 66
        E 120 80 62 00
        E 0 90 1a 68
        E 0 90 32 68
        E 0 90 4a 68
        E 0 90 62 68
        E 0 90 6c 68
        E 120 80 1a 00
        E 0 80 32 00
        E 0 80 4a 00
        E 0 80 62 00
        E 0 80 6c 00
        E 0 90 63 68
        E 120 80 63 00
        E 120 90 4a 68
        E 0 90 62 68
        E 120 80 4a 00
        E 0 80 62 00
        E 120 90 32 68
        E 0 90 33 68
        E 0 90 4a 68
        E 0 90 4b 68
        E 0 90 62 68
        E 0 90 63 68
        E 120 80 32 00
        E 0 80 33 00
        E 0 80 4a 00
        E 0 80 4b 00
        E 0 80 62 00
        E 0 80 63 00
        E 120 90 4a 68
        E 0 90 62 68
        E 120 80 4a 00
        E 0 80 62 00
        E 0 90 63 6a
        E 120 80 63 00
        E 120 90 1a 68
        E 0 90 32 68
        E 0 90 4a 68
        E 0 90 62 68
        E 120 80 1a 00
        E 0 80 32 00
        E 0 80 62 00
        E 0 90 63 68
        <X 120 0
          /wFbZW5kX3BnIHNvbmdfdHJhaW5lcl9wZ18yXQ==
        >
        E 120 80 74 00
        E 0 80 4a 00
        E 0 80 63 00
        E 120 90 33 6a
        E 0 90 34 69
        E 0 90 4b 6a
        E 0 90 4c 69
        E 0 90 6b 64
        E 0 92 63 6a
        E 0 92 64 69
        E 120 80 33 00
        E 0 80 34 00
        E 0 80 4b 00
        E 0 80 4c 00
        E 120 80 6b 00
        E 0 90 33 6a
        E 0 90 34 69
        E 0 90 4b 6a
        E 0 90 4c 69
        E 0 82 63 00
        E 0 82 64 00
        E 120 80 33 00
        E 0 80 34 00
        E 0 80 4b 00
        E 0 80 4c 00
        E 0 90 64 68
        E 120 80 64 00
        E 0 90 4c 69
        E 0 90 64 69
        E 120 80 4c 00
        E 0 80 64 00
        E 0 90 64 68
        E 120 80 64 00
        E 0 90 1b 68
        E 0 90 33 68
        E 0 90 4b 68
        E 0 90 63 68
        E 120 80 1b 00
        E 0 80 33 00
        E 0 80 4b 00
        E 0 80 63 00
        E 0 90 62 6a
        E 120 80 62 00
        E 0 90 4b 6a
        E 0 90 63 6a
        E 120 80 4b 00
        E 0 80 63 00
        E 0 90 63 68
        E 120 80 63 00
        E 120 90 32 68
        E 0 90 4a 68
        E 0 90 62 68
        E 120 80 62 00
        E 0 90 63 68
        E 240 80 32 00
        E 120 80 4a 00
        E 0 80 63 00
        E 120 90 4a 65
        E 0 90 62 65
        E 0 90 6c 65
        E 120 80 4a 00
        E 0 80 62 00
        E 0 80 6c 00
        E 0 90 62 66
        E 120 80 62 00
        E 0 90 1a 68
        E 0 90 32 68
        E 0 90 4a 68
        E 0 90 62 68
        E 0 90 6c 68
        E 120 80 1a 00
        E 0 80 32 00
        E 0 80 4a 00
        E 0 80 62 00
        E 0 80 6c 00
        E 0 90 63 68
        E 120 80 63 00
        E 120 90 4a 68
        E 0 90 62 68
        E 120 80 4a 00
        E 0 80 62 00
        E 120 90 32 68
        E 0 90 33 68
        E 0 90 4a 68
        E 0 90 4b 68
        E 0 90 62 68
        E 0 90 63 68
        E 120 80 32 00
        E 0 80 33 00
        E 0 80 4a 00
        E 0 80 4b 00
        E 0 80 62 00
        E 0 80 63 00
        E 120 90 4a 68
        E 0 90 62 68
        E 120 80 4a 00
        E 0 80 62 00
        E 0 90 63 6a
        E 120 80 63 00
        E 120 90 1a 68
        E 0 90 32 68
        E 0 90 4a 68
        E 0 90 62 68
        E 120 80 1a 00
        E 0 80 32 00
        E 0 80 62 00
        E 0 90 63 68
        E 240 80 4a 00
        E 0 80 63 00
        E 120 90 33 6a
        E 0 90 34 69
        E 0 90 4b 6a
        E 0 90 4c 69
        E 0 90 6b 64
        E 0 92 63 6a
        E 0 92 64 69
        E 120 80 33 00
        E 0 80 34 00
        E 0 80 4b 00
        E 0 80 4c 00
        E 120 80 6b 00
        E 0 90 33 6a
        E 0 90 34 69
        E 0 90 4b 6a
        E 0 90 4c 69
        E 0 82 63 00
        E 0 82 64 00
        E 120 80 33 00
        E 0 80 34 00
        E 0 80 4b 00
        E 0 80 4c 00
        E 0 90 64 68
        E 120 80 64 00
        E 0 90 4c 69
        E 0 90 64 69
        E 120 80 4c 00
        E 0 80 64 00
        E 0 90 64 68
        E 120 80 64 00
        E 0 90 1b 68
        E 0 90 33 68
        E 0 90 4b 68
        E 0 90 63 68
        E 120 80 1b 00
        E 0 80 33 00
        E 0 80 4b 00
        E 0 80 63 00
        E 0 90 62 6a
        E 120 80 62 00
        E 0 90 4b 6a
        E 0 90 63 6a
        E 120 80 4b 00
        E 0 80 63 00
        E 0 90 63 68
        E 120 80 63 00
        E 120 90 32 68
        E 0 90 4a 68
        E 0 90 62 68
        E 120 80 62 00
        E 0 90 63 68
        E 240 80 32 00
        E 120 80 4a 00
        E 0 80 63 00
        E 120 90 4a 65
        E 0 90 62 65
        E 0 90 6c 65
        E 120 80 4a 00
        E 0 80 62 00
        E 0 80 6c 00
        E 0 90 62 66
        E 120 80 62 00
        E 0 90 1a 68
        E 0 90 32 68
        E 0 90 4a 68
        E 0 90 62 68
        E 0 90 6c 68
        E 120 80 1a 00
        E 0 80 32 00
        E 0 80 4a 00
        E 0 80 62 00
        E 0 80 6c 00
        E 0 90 63 68
        E 120 80 63 00
        E 120 90 4a 68
        E 0 90 62 68
        E 120 80 4a 00
        E 0 80 62 00
        E 120 90 32 68
        E 0 90 33 68
        E 0 90 4a 68
        E 0 90 4b 68
        E 0 90 62 68
        E 0 90 63 68
        E 120 80 32 00
        E 0 80 33 00
        E 0 80 4a 00
        E 0 80 4b 00
        E 0 80 62 00
        E 0 80 63 00
        E 120 90 4a 68
        E 0 90 62 68
        E 120 80 4a 00
        E 0 80 62 00
        E 0 90 63 6a
        E 120 80 63 00
        E 120 90 1a 68
        E 0 90 32 68
        E 0 90 4a 68
        E 0 90 62 68
        E 120 80 1a 00
        E 0 80 32 00
        E 0 80 62 00
        E 0 90 63 68
        E 120 90 74 64
        E 120 80 4a 00
        E 0 80 63 00
        E 120 90 33 6a
        E 0 90 34 69
        E 0 90 4b 6a
        E 0 90 4c 69
        E 0 90 6b 64
        E 0 92 63 6a
        E 0 92 64 69
        E 120 80 33 00
        E 0 80 34 00
        E 0 80 4b 00
        E 0 80 4c 00
        E 120 80 6b 00
        E 0 90 33 6a
        E 0 90 34 69
        E 0 90 4b 6a
        E 0 90 4c 69
        E 0 82 63 00
        E 0 82 64 00
        E 120 80 33 00
        E 0 80 34 00
        E 0 80 4b 00
        E 0 80 4c 00
        E 0 90 64 68
        E 120 80 64 00
        E 0 90 4c 69
        E 0 90 64 69
        E 120 80 4c 00
        E 0 80 64 00
        E 0 90 64 68
        E 120 80 64 00
        E 0 90 1b 68
        E 0 90 33 68
        E 0 90 4b 68
        E 0 90 63 68
        E 120 80 1b 00
        E 0 80 33 00
        E 0 80 4b 00
        E 0 80 63 00
        E 0 90 62 6a
        E 120 80 62 00
        E 0 90 4b 6a
        E 0 90 63 6a
        E 120 80 4b 00
        E 0 80 63 00
        E 0 90 63 68
        E 120 80 63 00
        E 120 90 32 68
        E 0 90 4a 68
        E 0 90 62 68
        E 120 80 62 00
        E 0 90 63 68
        E 240 80 32 00
        E 120 80 4a 00
        E 0 80 63 00
        E 120 90 4a 65
        E 0 90 62 65
        E 0 90 6c 65
        E 120 80 4a 00
        E 0 80 62 00
        E 0 80 6c 00
        E 0 90 62 66
        E 120 80 62 00
        E 0 90 1a 68
        E 0 90 32 68
        E 0 90 4a 68
        E 0 90 62 68
        E 0 90 6c 68
        E 120 80 1a 00
        E 0 80 32 00
        E 0 80 4a 00
        E 0 80 62 00
        E 0 80 6c 00
        E 0 90 63 68
        E 120 80 63 00
        E 120 90 4a 68
        E 0 90 62 68
        E 120 80 4a 00
        E 0 80 62 00
        E 120 90 32 68
        E 0 90 33 68
        E 0 90 4a 68
        E 0 90 4b 68
        E 0 90 62 68
        E 0 90 63 68
        E 120 80 32 00
        E 0 80 33 00
        E 0 80 4a 00
        E 0 80 4b 00
        E 0 80 62 00
        E 0 80 63 00
        E 120 90 4a 68
        E 0 90 62 68
        E 120 80 4a 00
        E 0 80 62 00
        E 0 90 63 6a
        E 120 80 63 00
        E 120 90 4a 68
        E 0 90 62 68
        E 120 80 4a 00
        E 0 80 62 00
        <X 120 0
          /wFbYmVnaW5fcGcgc29uZ190cmFpbmVyX3BnXzNd
        >
        E 0 80 11 00
        E 0 80 74 00
        E 0 90 08 60
        E 0 90 33 68
        E 0 90 34 68
        E 0 90 4b 68
        E 0 90 4c 68
        E 0 90 4d 68
        E 0 90 52 64
        E 0 90 63 68
        E 0 90 64 68
        E 0 90 65 68
        E 0 90 6a 64
        E 120 80 08 00
        <X 840 0
          /wFbcGdfbm9ybSBzb25nX3RyYWluZXJfcGdfM10=
        >
        E 240 80 33 00
        E 0 80 34 00
        E 360 80 4b 00
        E 0 80 4c 00
        E 0 80 4d 00
        E 0 80 63 00
        E 0 80 64 00
        E 0 80 65 00
        E 120 90 04 60
        E 0 90 1b 68
        E 0 90 33 68
        E 0 90 34 69
        E 0 90 4b 68
        E 0 90 4c 69
        E 0 90 4d 68
        E 0 90 63 68
        E 0 90 64 69
        E 0 90 65 68
        E 120 80 04 00
        E 1560 80 1b 00
        E 0 80 33 00
        E 0 80 34 00
        E 360 80 4b 00
        E 0 80 4c 00
        E 0 80 4d 00
        E 0 80 63 00
        E 0 80 64 00
        E 0 80 65 00
        E 120 90 08 60
        E 0 90 33 68
        E 0 90 34 68
        E 0 90 4b 68
        E 0 90 4c 68
        E 0 90 4d 68
        E 0 90 63 68
        E 0 90 64 68
        E 0 90 65 68
        E 120 80 08 00
        E 1080 80 33 00
        E 0 80 34 00
        E 360 80 4b 00
        E 0 80 4c 00
        E 0 80 4d 00
        E 0 80 63 00
        E 0 80 64 00
        E 0 80 65 00
        E 120 90 04 60
        E 0 90 1b 68
        E 0 90 33 68
        E 0 90 34 69
        E 0 90 4b 68
        E 0 90 4c 69
        E 0 90 4d 68
        E 0 90 63 68
        E 0 90 64 69
        E 0 90 65 68
        E 120 80 04 00
        <X 2040 0
          /wFbZW5kX3BnIHNvbmdfdHJhaW5lcl9wZ18zXQ==
        >
        E 0 80 52 00
        E 0 80 6a 00
        E 0 80 1b 00
        E 0 80 33 00
        E 0 80 34 00
        E 0 80 4b 00
        E 0 80 4c 00
        E 0 80 4d 00
        E 0 80 63 00
        E 0 80 64 00
        E 0 80 65 00
        E 240 90 11 60
        E 0 90 4b 6a
        E 0 90 4c 69
        E 0 90 6b 64
        E 0 90 6c 68
        E 0 92 63 6a
        E 0 92 64 69
        E 120 80 4b 00
        E 0 80 4c 00
        E 0 80 6c 00
        E 120 80 6b 00
        E 0 90 33 6a
        E 0 90 34 69
        E 0 90 4b 6a
        E 0 90 4c 69
        E 0 82 63 00
        E 0 82 64 00
        E 120 80 33 00
        E 0 80 34 00
        E 0 80 4b 00
        E 0 80 4c 00
        E 0 90 64 68
        E 120 80 64 00
        E 0 90 4c 69
        E 0 90 64 69
        E 120 80 4c 00
        E 0 80 64 00
        E 0 90 64 68
        E 120 80 64 00
        E 0 90 1b 68
        E 0 90 33 68
        E 0 90 4b 68
        E 0 90 63 68
        E 120 80 1b 00
        E 0 80 33 00
        E 0 80 4b 00
        E 0 80 63 00
        E 0 90 62 6a
        E 120 80 62 00
        E 0 90 4b 6a
        E 0 90 63 6a
        E 120 80 4b 00
        E 0 80 63 00
        E 0 90 63 68
        E 120 80 63 00
        E 120 90 32 68
        E 0 90 4a 68
        E 0 90 62 68
        E 120 80 62 00
        E 0 90 63 68
        E 240 80 32 00
        E 120 80 4a 00
        E 0 80 63 00
        E 120 90 4a 65
        E 0 90 62 65
        E 0 90 6c 65
        E 120 80 4a 00
        E 0 80 62 00
        E 0 80 6c 00
        E 0 90 62 66
        E 120 80 62 00
        E 0 90 1a 68
        E 0 90 32 68
        E 0 90 4a 68
        E 0 90 62 68
        E 0 90 6c 68
        E 120 80 1a 00
        E 0 80 32 00
        E 0 80 4a 00
        E 0 80 62 00
        E 0 80 6c 00
        E 0 90 63 68
        E 120 80 63 00
        E 120 90 4a 68
        E 0 90 62 68
        E 120 80 4a 00
        E 0 80 62 00
        E 120 90 32 68
        E 0 90 33 68
        E 0 90 4a 68
        E 0 90 4b 68
        E 0 90 62 68
        E 0 90 63 68
        E 120 80 32 00
        E 0 80 33 00
        E 0 80 4a 00
        E 0 80 4b 00
        E 0 80 62 00
        E 0 80 63 00
        E 120 90 4a 68
        E 0 90 62 68
        E 120 80 4a 00
        E 0 80 62 00
        E 0 90 63 6a
        E 120 80 63 00
        E 120 90 1a 68
        E 0 90 32 68
        E 0 90 4a 68
        E 0 90 62 68
        E 120 80 1a 00
        E 0 80 32 00
        E 0 80 62 00
        E 0 90 63 68
        E 240 80 4a 00
        E 0 80 63 00
        E 120 90 33 6a
        E 0 90 34 69
        E 0 90 4b 6a
        E 0 90 4c 69
        E 0 90 6b 64
        E 0 90 74 64
        E 0 92 63 6a
        E 0 92 64 69
        E 120 80 33 00
        E 0 80 34 00
        E 0 80 4b 00
        E 0 80 4c 00
        E 120 80 6b 00
        E 0 90 33 6a
        E 0 90 34 69
        E 0 90 4b 6a
        E 0 90 4c 69
        E 0 82 63 00
        E 0 82 64 00
        E 120 80 33 00
        E 0 80 34 00
        E 0 80 4b 00
        E 0 80 4c 00
        E 0 90 64 68
        E 120 80 64 00
        E 0 90 4c 69
        E 0 90 64 69
        E 120 80 4c 00
        E 0 80 64 00
        E 0 90 64 68
        E 120 80 64 00
        E 0 90 1b 68
        E 0 90 33 68
        E 0 90 4b 68
        E 0 90 63 68
        E 120 80 1b 00
        E 0 80 33 00
        E 0 80 4b 00
        E 0 80 63 00
        E 0 90 62 6a
        E 120 80 62 00
        E 0 90 4b 6a
        E 0 90 63 6a
        E 120 80 4b 00
        E 0 80 63 00
        E 0 90 63 68
        E 120 80 63 00
        E 120 90 32 68
        E 0 90 4a 68
        E 0 90 62 68
        E 120 80 62 00
        E 0 90 63 68
        E 240 80 74 00
        E 0 80 32 00
        E 120 80 4a 00
        E 0 80 63 00
        E 120 90 4a 65
        E 0 90 62 65
        E 0 90 6c 65
        E 120 80 4a 00
        E 0 80 62 00
        E 0 80 6c 00
        E 0 90 62 66
        E 120 80 62 00
        E 0 90 1a 68
        E 0 90 32 68
        E 0 90 4a 68
        E 0 90 62 68
        E 0 90 6c 68
        E 120 80 1a 00
        E 0 80 32 00
        E 0 80 4a 00
        E 0 80 62 00
        E 0 80 6c 00
        E 0 90 63 68
        E 120 80 63 00
        E 120 90 4a 68
        E 0 90 62 68
        E 120 80 4a 00
        E 0 80 62 00
        E 120 90 32 68
        E 0 90 33 68
        E 0 90 4a 68
        E 0 90 4b 68
        E 0 90 62 68
        E 0 90 63 68
        E 120 80 32 00
        E 0 80 33 00
        E 0 80 4a 00
        E 0 80 4b 00
        E 0 80 62 00
        E 0 80 63 00
        E 120 90 4a 68
        E 0 90 62 68
        E 120 80 4a 00
        E 0 80 62 00
        E 0 90 63 6a
        E 120 80 63 00
        E 120 90 1a 68
        E 0 90 32 68
        E 0 90 4a 68
        E 0 90 62 68
        E 120 80 62 00
        E 0 90 63 68
        E 2040 80 1a 00
        E 0 80 32 00
        E 0 80 4a 00
        E 0 80 63 00
        E 1920 90 19 66
        E 0 90 31 66
        E 0 90 49 66
        E 0 90 61 66
        E 0 90 6c 64
        E 0 90 73 64
        E 120 80 19 00
        E 0 80 31 00
        E 0 80 49 00
        E 0 80 6c 00
        E 120 80 61 00
        E 120 90 4b 68
        E 0 90 63 68
        E 120 80 4b 00
        E 0 80 63 00
        E 240 90 49 66
        E 0 90 61 66
        E 120 80 49 00
        E 0 80 61 00
        E 120 90 1a 66
        E 0 90 32 66
        E 0 90 4a 66
        E 0 90 62 66
        E 120 80 1a 00
        E 0 80 32 00
        E 0 80 4a 00
        E 120 80 62 00
        E 120 90 4a 68
        E 0 90 62 68
        E 120 80 4a 00
        E 0 80 62 00
        E 120 93 62 66
        E 120 90 32 68
        E 0 90 4a 68
        E 0 92 62 68
        E 0 83 62 00
        E 120 80 32 00
        E 0 80 4a 00
        E 120 90 1a 68
        E 0 90 32 68
        E 0 90 4a 68
        E 480 80 1a 00
        E 0 80 32 00
        E 120 80 4a 00
        E 0 82 62 00
        E 120 90 4a 66
        E 0 90 62 66
        E 120 80 4a 00
        E 0 80 62 00
        E 0 90 62 68
        E 120 80 62 00
        E 0 90 18 66
        E 0 90 30 66
        E 0 90 48 66
        E 0 90 60 66
        E 120 80 18 00
        E 0 80 30 00
        E 0 80 48 00
        E 120 80 60 00
        E 120 90 48 68
        E 0 90 60 68
        E 120 80 48 00
        E 0 80 60 00
        E 240 90 31 66
        E 0 90 49 66
        E 0 90 61 66
        E 120 80 31 00
        E 360 80 49 00
        E 0 80 61 00
        E 120 90 33 68
        E 0 90 4b 68
        E 0 90 63 68
        E 120 80 33 00
        E 0 80 4b 00
        E 0 80 63 00
        E 240 90 49 66
        E 0 90 61 66
        E 120 80 49 00
        E 0 80 61 00
        E 120 90 1a 66
        E 0 90 32 66
        E 0 90 4a 66
        E 0 90 62 66
        E 120 80 1a 00
        E 0 80 32 00
        E 0 80 4a 00
        E 120 80 62 00
        E 120 90 4a 68
        E 0 90 62 68
        E 120 80 4a 00
        E 0 80 62 00
        E 120 93 62 66
        E 120 90 32 68
        E 0 90 4a 68
        E 0 92 62 68
        E 0 83 62 00
        E 120 80 32 00
        E 0 80 4a 00
        E 120 90 1a 68
        E 0 90 32 68
        E 0 90 4a 68
        E 480 80 1a 00
        E 0 80 32 00
        E 120 80 4a 00
        E 0 82 62 00
        E 120 90 4a 66
        E 0 90 62 66
        E 120 80 4a 00
        E 0 80 62 00
        E 0 90 62 68
        E 120 80 62 00
        E 0 90 18 66
        E 0 90 30 66
        E 0 90 48 66
        E 0 90 60 66
        E 120 80 18 00
        E 0 80 30 00
        E 0 80 48 00
        E 120 80 60 00
        E 120 90 48 68
        E 0 90 60 68
        E 120 80 48 00
        E 0 80 60 00
        E 240 90 31 66
        E 0 90 49 66
        E 0 90 61 66
        E 120 80 31 00
        E 360 80 49 00
        E 0 80 61 00
        E 120 90 33 68
        E 0 90 4b 68
        E 0 90 63 68
        E 0 90 74 64
        E 120 80 33 00
        E 0 80 4b 00
        E 0 80 63 00
        E 240 90 49 66
        E 0 90 61 66
        E 120 80 49 00
        E 0 80 61 00
        E 120 90 1a 66
        E 0 90 32 66
        E 0 90 4a 66
        E 0 90 62 66
        E 120 80 1a 00
        E 0 80 32 00
        E 0 80 4a 00
        E 120 80 62 00
        E 120 90 4a 68
        E 0 90 62 68
        E 120 80 4a 00
        E 0 80 62 00
        E 120 93 62 66
        E 120 90 32 68
        E 0 90 4a 68
        E 0 92 62 68
        E 0 83 62 00
        E 120 80 32 00
        E 0 80 4a 00
        E 120 90 1a 68
        E 0 90 32 68
        E 0 90 4a 68
        E 480 80 1a 00
        E 0 80 32 00
        E 120 80 4a 00
        E 0 82 62 00
        E 120 90 4a 66
        E 0 90 62 66
        E 120 80 4a 00
        E 0 80 62 00
        E 0 90 62 68
        E 120 80 62 00
        E 0 90 18 66
        E 0 90 30 66
        E 0 90 48 66
        E 0 90 60 66
        E 120 80 18 00
        E 0 80 30 00
        E 0 80 48 00
        E 120 80 60 00
        E 120 90 48 68
        E 0 90 60 68
        E 120 80 48 00
        E 0 80 60 00
        E 240 90 31 66
        E 0 90 49 66
        E 0 90 61 66
        E 120 80 31 00
        E 360 80 74 00
        E 0 80 49 00
        E 0 80 61 00
        E 120 90 33 68
        E 0 90 4b 68
        E 0 90 63 68
        E 120 80 33 00
        E 0 80 4b 00
        E 0 80 63 00
        E 240 90 49 66
        E 0 90 61 66
        E 120 80 49 00
        E 0 80 61 00
        E 120 90 1a 66
        E 0 90 32 66
        E 0 90 4a 66
        E 0 90 62 66
        E 120 80 1a 00
        E 0 80 32 00
        E 0 80 4a 00
        E 120 80 62 00
        E 120 90 4a 68
        E 0 90 62 68
        E 120 80 4a 00
        E 0 80 62 00
        E 120 93 62 66
        E 120 90 32 68
        E 0 90 4a 68
        E 0 92 62 68
        E 0 83 62 00
        E 120 80 32 00
        E 0 80 4a 00
        E 120 90 1a 68
        E 0 90 32 68
        E 0 90 4a 68
        E 480 80 1a 00
        E 0 80 32 00
        E 120 80 4a 00
        E 0 82 62 00
        E 120 90 4a 66
        E 0 90 62 66
        E 120 80 4a 00
        E 0 80 62 00
        E 0 90 62 68
        E 120 80 62 00
        E 0 90 18 66
        E 0 90 30 66
        E 0 90 48 66
        E 0 90 60 66
        E 120 80 18 00
        E 0 80 30 00
        E 0 80 48 00
        E 120 80 60 00
        E 120 90 48 68
        E 0 90 60 68
        E 120 80 48 00
        E 0 80 60 00
        E 240 90 49 68
        E 0 90 61 68
        E 120 80 49 00
        E 0 80 61 00
        <X 120 0
          /wFbYmVnaW5fcGcgc29uZ190cmFpbmVyX3BnXzRd
        >
        E 0 80 73 00
        E 240 90 4b 6c
        E 0 90 4c 6b
        E 0 90 6b 64
        E 0 90 6c 6b
        E 0 92 63 6c
        E 0 92 64 6b
        E 120 80 4b 00
        E 0 80 4c 00
        E 0 80 6c 00
        <X 120 0
          /wFbcGdfbm9ybSBzb25nX3RyYWluZXJfcGdfNF0=
        >
        E 0 80 6b 00
        E 0 90 33 6c
        E 0 90 34 6b
        E 0 90 4b 6c
        E 0 90 4c 6b
        E 0 82 63 00
        E 0 82 64 00
        E 120 80 33 00
        E 0 80 34 00
        E 0 80 4b 00
        E 0 80 4c 00
        E 0 90 64 6a
        E 0 90 6c 6a
        E 120 80 64 00
        E 0 80 6c 00
        E 0 90 4c 6b
        E 0 90 64 6b
        E 120 80 4c 00
        E 0 80 64 00
        E 0 90 64 6a
        E 120 80 64 00
        E 0 90 1b 6a
        E 0 90 33 6a
        E 0 90 4b 6a
        E 0 90 63 6a
        E 120 80 1b 00
        E 0 80 33 00
        E 0 80 4b 00
        E 0 80 63 00
        E 0 90 62 6c
        E 120 80 62 00
        E 0 90 4b 6c
        E 0 90 63 6c
        E 120 80 4b 00
        E 0 80 63 00
        E 0 90 63 6a
        E 120 80 63 00
        E 120 90 32 6a
        E 0 90 4a 6a
        E 0 90 62 6a
        E 120 80 62 00
        E 0 90 63 6a
        E 240 80 32 00
        E 120 80 4a 00
        E 0 80 63 00
        E 120 90 4a 67
        E 0 90 62 67
        E 0 90 6c 67
        E 120 80 4a 00
        E 0 80 62 00
        E 0 80 6c 00
        E 0 90 62 68
        E 120 80 62 00
        E 0 90 1a 6a
        E 0 90 32 6a
        E 0 90 4a 6a
        E 0 90 62 6a
        E 0 90 6c 6a
        E 120 80 1a 00
        E 0 80 32 00
        E 0 80 4a 00
        E 0 80 62 00
        E 0 80 6c 00
        E 0 90 63 6a
        E 120 80 63 00
        E 120 90 4a 6a
        E 0 90 62 6a
        E 120 80 4a 00
        E 0 80 62 00
        E 120 90 32 6a
        E 0 90 33 6a
        E 0 90 4a 6a
        E 0 90 4b 6a
        E 0 90 62 6a
        E 0 90 63 6a
        E 120 80 32 00
        E 0 80 33 00
        E 0 80 4a 00
        E 0 80 4b 00
        E 0 80 62 00
        E 0 80 63 00
        E 120 90 4a 6a
        E 0 90 62 6a
        E 120 80 4a 00
        E 0 80 62 00
        E 0 90 63 6c
        E 120 80 63 00
        E 120 90 1a 6a
        E 0 90 32 6a
        E 0 90 4a 6a
        E 0 90 62 6a
        E 120 80 1a 00
        E 0 80 32 00
        E 0 80 62 00
        E 0 90 63 6a
        <X 120 0
          /wFbZW5kX3BnIHNvbmdfdHJhaW5lcl9wZ180XQ==
        >
        E 120 80 4a 00
        E 0 80 63 00
        E 120 90 33 6c
        E 0 90 34 6b
        E 0 90 4b 6c
        E 0 90 4c 6b
        E 0 90 6b 64
        E 0 90 6c 6b
        E 0 92 63 6c
        E 0 92 64 6b
        E 120 80 33 00
        E 0 80 34 00
        E 0 80 4b 00
        E 0 80 4c 00
        E 0 80 6c 00
        E 120 80 6b 00
        E 0 90 33 6c
        E 0 90 34 6b
        E 0 90 4b 6c
        E 0 90 4c 6b
        E 0 82 63 00
        E 0 82 64 00
        E 120 80 33 00
        E 0 80 34 00
        E 0 80 4b 00
        E 0 80 4c 00
        E 0 90 64 6a
        E 0 90 6c 6a
        E 120 80 64 00
        E 0 80 6c 00
        E 0 90 4c 6b
        E 0 90 64 6b
        E 120 80 4c 00
        E 0 80 64 00
        E 0 90 64 6a
        E 120 80 64 00
        E 0 90 1b 6a
        E 0 90 33 6a
        E 0 90 4b 6a
        E 0 90 63 6a
        E 120 80 1b 00
        E 0 80 33 00
        E 0 80 4b 00
        E 0 80 63 00
        E 0 90 62 6c
        E 120 80 62 00
        E 0 90 4b 6c
        E 0 90 63 6c
        E 120 80 4b 00
        E 0 80 63 00
        E 0 90 63 6a
        E 120 80 63 00
        E 120 90 32 6a
        E 0 90 4a 6a
        E 0 90 62 6a
        E 120 80 62 00
        E 0 90 63 6a
        E 240 80 32 00
        E 120 80 4a 00
        E 0 80 63 00
        E 120 90 4a 67
        E 0 90 62 67
        E 0 90 6c 67
        E 120 80 4a 00
        E 0 80 62 00
        E 0 80 6c 00
        E 0 90 62 68
        E 120 80 62 00
        E 0 90 1a 6a
        E 0 90 32 6a
        E 0 90 4a 6a
        E 0 90 62 6a
        E 0 90 6c 6a
        E 120 80 1a 00
        E 0 80 32 00
        E 0 80 4a 00
        E 0 80 62 00
        E 0 80 6c 00
        E 0 90 63 6a
        E 120 80 63 00
        E 120 90 4a 6a
        E 0 90 62 6a
        E 120 80 4a 00
        E 0 80 62 00
        E 120 90 32 6a
        E 0 90 33 6a
        E 0 90 4a 6a
        E 0 90 4b 6a
        E 0 90 62 6a
        E 0 90 63 6a
        E 120 80 32 00
        E 0 80 33 00
        E 0 80 4a 00
        E 0 80 4b 00
        E 0 80 62 00
        E 0 80 63 00
        E 120 90 4a 6a
        E 0 90 62 6a
        E 120 80 4a 00
        E 0 80 62 00
        E 0 90 63 6c
        E 120 80 63 00
        E 120 90 1a 6a
        E 0 90 32 6a
        E 0 90 4a 6a
        E 0 90 62 6a
        E 120 80 1a 00
        E 0 80 32 00
        E 0 80 62 00
        E 0 90 63 6a
        E 240 80 4a 00
        E 0 80 63 00
        E 120 90 33 6c
        E 0 90 34 6b
        E 0 90 4b 6c
        E 0 90 4c 6b
        E 0 90 6b 64
        E 0 90 6c 6b
        E 0 92 63 6c
        E 0 92 64 6b
        E 120 80 33 00
        E 0 80 34 00
        E 0 80 4b 00
        E 0 80 4c 00
        E 0 80 6c 00
        E 120 80 6b 00
        E 0 90 33 6c
        E 0 90 34 6b
        E 0 90 4b 6c
        E 0 90 4c 6b
        E 0 82 63 00
        E 0 82 64 00
        E 120 80 33 00
        E 0 80 34 00
        E 0 80 4b 00
        E 0 80 4c 00
        E 0 90 64 6a
        E 0 90 6c 6a
        E 120 80 64 00
        E 0 80 6c 00
        E 0 90 4c 6b
        E 0 90 64 6b
        E 120 80 4c 00
        E 0 80 64 00
        E 0 90 64 6a
        E 120 80 64 00
        E 0 90 1b 6a
        E 0 90 33 6a
        E 0 90 4b 6a
        E 0 90 63 6a
        E 120 80 1b 00
        E 0 80 33 00
        E 0 80 4b 00
        E 0 80 63 00
        E 0 90 62 6c
        E 120 80 62 00
        E 0 90 4b 6c
        E 0 90 63 6c
        E 120 80 4b 00
        E 0 80 63 00
        E 0 90 63 6a
        E 120 80 63 00
        E 120 90 32 6a
        E 0 90 4a 6a
        E 0 90 62 6a
        E 120 80 62 00
        E 0 90 63 6a
        E 240 80 32 00
        E 120 80 4a 00
        E 0 80 63 00
        E 120 90 4a 67
        E 0 90 62 67
        E 0 90 6c 67
        E 120 80 4a 00
        E 0 80 62 00
        E 0 80 6c 00
        E 0 90 62 68
        E 120 80 62 00
        E 0 90 1a 6a
        E 0 90 32 6a
        E 0 90 4a 6a
        E 0 90 62 6a
        E 0 90 6c 6a
        E 120 80 1a 00
        E 0 80 32 00
        E 0 80 4a 00
        E 0 80 62 00
        E 0 80 6c 00
        E 0 90 63 6a
        E 120 80 63 00
        E 120 90 4a 6a
        E 0 90 62 6a
        E 120 80 4a 00
        E 0 80 62 00
        E 120 90 32 6a
        E 0 90 33 6a
        E 0 90 4a 6a
        E 0 90 4b 6a
        E 0 90 62 6a
        E 0 90 63 6a
        E 120 80 32 00
        E 0 80 33 00
        E 0 80 4a 00
        E 0 80 4b 00
        E 0 80 62 00
        E 0 80 63 00
        E 120 90 4a 6a
        E 0 90 62 6a
        E 120 80 4a 00
        E 0 80 62 00
        E 0 90 63 6c
        E 120 80 63 00
        E 120 90 1a 6a
        E 0 90 32 6a
        E 0 90 4a 6a
        E 0 90 62 6a
        E 120 80 1a 00
        E 0 80 32 00
        E 0 80 62 00
        E 0 90 63 6a
        E 240 80 4a 00
        E 0 80 63 00
        E 120 90 33 6c
        E 0 90 34 6b
        E 0 90 4b 6c
        E 0 90 4c 6b
        E 0 90 6b 64
        E 0 90 6c 6b
        E 0 92 63 6c
        E 0 92 64 6b
        E 120 80 33 00
        E 0 80 34 00
        E 0 80 4b 00
        E 0 80 4c 00
        E 0 80 6c 00
        E 120 80 6b 00
        E 0 90 33 6c
        E 0 90 34 6b
        E 0 90 4b 6c
        E 0 90 4c 6b
        E 0 82 63 00
        E 0 82 64 00
        E 120 80 33 00
        E 0 80 34 00
        E 0 80 4b 00
        E 0 80 4c 00
        E 0 90 64 6a
        E 0 90 6c 6a
        E 120 80 64 00
        E 0 80 6c 00
        E 0 90 4c 6b
        E 0 90 64 6b
        E 120 80 4c 00
        E 0 80 64 00
        E 0 90 64 6a
        E 120 80 64 00
        E 0 90 1b 6a
        E 0 90 33 6a
        E 0 90 4b 6a
        E 0 90 63 6a
        E 120 80 1b 00
        E 0 80 33 00
        E 0 80 4b 00
        E 0 80 63 00
        E 0 90 62 6c
        E 120 80 62 00
        E 0 90 4b 6c
        E 0 90 63 6c
        E 120 80 4b 00
        E 0 80 63 00
        E 0 90 63 6a
        E 120 80 63 00
        E 120 90 32 6a
        E 0 90 4a 6a
        E 0 90 62 6a
        E 120 80 62 00
        E 0 90 63 6a
        E 240 80 32 00
        E 120 80 4a 00
        E 0 80 63 00
        E 120 90 4a 67
        E 0 90 62 67
        E 0 90 6c 67
        E 120 80 4a 00
        E 0 80 62 00
        E 0 80 6c 00
        E 0 90 62 68
        E 120 80 62 00
        E 0 90 1a 6a
        E 0 90 32 6a
        E 0 90 4a 6a
        E 0 90 62 6a
        E 0 90 6c 6a
        E 120 80 1a 00
        E 0 80 32 00
        E 0 80 4a 00
        E 0 80 62 00
        E 0 80 6c 00
        E 0 90 63 6a
        E 120 80 63 00
        E 120 90 4a 6a
        E 0 90 62 6a
        E 480 80 4a 00
        E 0 80 62 00
        E 119 80 11 00
        E 1 b0 7b 00
        GUID {6E3446EB-272E-45F3-8DF8-0145AC38A469}
        IGNTEMPO 0 120.00000000 4 4
        SRCCOLOR 56
        VELLANE 132 71 60
        COLORMAP "C:\Program Files (x86)\REAPER\Data\color_maps\rockband_guitarbass.png"
        CFGEDITVIEW 71081.651938 208.458858 1 12 0 0 0
        CFGEDIT 1 1 0 1 1 0 1 1 1 1 1 0.25000000 -8 -8 1548 876 0 2 1 1 0.00000000 0 1 0 0 0.500000 0 0 1.000000 64
        KEYSNAP 0 0 "102034050607" 0 "Major"
        EVTFILTER 0 -1 -1 -1 -1 0 1 0 0 -1.00000000 -1.00000000
      >
    >
  >
  <TRACK '{8CD9F96F-A468-42D7-94D0-C8518717076A}'
    NAME "EVENTS"
    PEAKCOL 16576
    BEAT -1
    AUTOMODE 0
    VOLPAN 1.00000000000000 0.00000000000000 -1.00000000000000 -1.00000000000000 1.00000000000000
    MUTESOLO 0 0 0
    IPHASE 0
    ISBUS 0 0
    BUSCOMP 0 0
    SHOWINMIX 1 0.666700 0.500000 1 0.500000 -1 -1 -1
    FREEMODE 0
    SEL 0
    REC 0 0 0 0 0 0 0
    VU 2
    TRACKHEIGHT 0 0
    INQ 0 0 0 0.5000000000 100 0 0 100
    NCHAN 2
    FX 1
    TRACKID {8CD9F96F-A468-42D7-94D0-C8518717076A}
    PERF 0
    MIDIOUT -1
    MAINSEND 1 0
    <ITEM
      POSITION 0.00000000000000
      SNAPOFFS 0.00000000000000
      LENGTH 83.00000000000000
      LOOP 0
      ALLTAKES 0
      SEL 0
      FADEIN 1 0.000000 0.000000 1 0
      FADEOUT 1 0.000000 0.000000 1 0
      MUTE 0
      IGUID {FD601DFA-59EF-42CB-9C6A-7210B21C2B92}
      IID 13
      NAME "EVENTS"
      VOLPAN 1.000000 0.000000 1.000000 -1.000000
      SOFFS 0.00000000000000 0.00000000000000
      PLAYRATE 1.00000000000000 1 0.00000000000000 -1
      CHANMODE 0
      GUID {4016AE4C-3CFE-4C75-852B-C1DD668D5B02}
      <SOURCE MIDI
        HASDATA 1 480 QN
        POOLEDEVTS {A8F34AAB-2D1B-44A9-B344-19F8F17A5682}
        <X 0 0
          /wNFVkVOVFM=
        >
        E 960 90 1a 60
        E 120 80 1a 00
        E 840 90 1a 60
        E 120 80 1a 00
        E 840 90 1a 60
        E 120 80 1a 00
        E 360 90 1a 60
        E 120 80 1a 00
        <X 360 0
          /wFbcHJjX2ludHJvXQ==
        >
        <X 0 0
          /wFbbXVzaWNfc3RhcnRd
        >
        E 0 90 19 60
        E 0 90 1a 60
        E 120 80 19 00
        E 0 80 1a 00
        E 0 90 19 60
        E 0 90 1a 60
        E 120 80 19 00
        E 0 80 1a 00
        E 0 90 19 60
        E 0 90 1a 60
        E 120 80 19 00
        E 0 80 1a 00
        <X 600 0
          /wFbY3Jvd2Rfbm9ybWFsXQ==
        >
        <X 0 0
          /wFbcHJjX2Nob3J1c18xXQ==
        >
        E 240 90 1a 60
        E 120 80 1a 00
        E 0 90 1a 60
        E 120 80 1a 00
        E 0 90 18 60
        E 120 80 18 00
        E 120 90 1a 60
        E 120 80 1a 00
        E 0 90 1a 60
        E 120 80 1a 00
        E 240 90 1a 60
        E 120 80 1a 00
        E 0 90 1a 60
        E 120 80 1a 00
        E 0 90 18 60
        E 120 80 18 00
        E 120 90 1a 60
        E 120 80 1a 00
        E 120 90 1a 60
        E 120 80 1a 00
        E 120 90 1a 60
        E 120 80 1a 00
        E 0 90 1a 60
        E 120 80 1a 00
        E 0 90 18 60
        E 120 80 18 00
        E 120 90 1a 60
        E 120 80 1a 00
        E 0 90 1a 60
        E 120 80 1a 00
        E 240 90 1a 60
        E 120 80 1a 00
        E 0 90 1a 60
        E 120 80 1a 00
        E 0 90 18 60
        E 120 80 18 00
        E 360 90 1a 60
        E 120 80 1a 00
        E 120 90 1a 60
        E 120 80 1a 00
        E 0 90 1a 60
        E 120 80 1a 00
        E 0 90 18 60
        E 120 80 18 00
        E 120 90 1a 60
        E 120 80 1a 00
        E 0 90 1a 60
        E 120 80 1a 00
        E 240 90 1a 60
        E 120 80 1a 00
        E 0 90 1a 60
        E 120 80 1a 00
        E 0 90 18 60
        E 120 80 18 00
        E 120 90 1a 60
        E 120 80 1a 00
        E 120 90 1a 60
        E 120 80 1a 00
        E 120 90 1a 60
        E 120 80 1a 00
        E 0 90 1a 60
        E 120 80 1a 00
        E 0 90 18 60
        E 120 80 18 00
        E 360 90 18 60
        E 80 80 18 00
        E 40 90 19 60
        E 120 80 19 00
        E 0 90 1a 60
        E 120 80 1a 00
        E 0 90 18 60
        E 0 90 1a 60
        E 120 80 18 00
        E 0 80 1a 00
        E 0 90 19 60
        E 120 80 19 00
        E 360 90 18 60
        E 120 80 18 00
        E 120 90 1a 60
        E 120 80 1a 00
        E 0 90 1a 60
        E 120 80 1a 00
        E 0 90 18 60
        E 0 90 19 60
        E 120 80 18 00
        E 0 80 19 00
        E 120 90 1a 60
        E 120 80 1a 00
        E 0 90 1a 60
        E 120 80 1a 00
        E 0 90 18 60
        E 120 80 18 00
        E 120 90 1a 60
        E 120 80 1a 00
        E 0 90 19 60
        E 0 90 1a 60
        E 120 80 19 00
        E 0 80 1a 00
        E 480 90 18 60
        E 0 90 1a 60
        E 120 80 18 00
        E 0 80 1a 00
        E 120 90 1a 60
        E 120 80 1a 00
        E 0 90 1a 60
        E 120 80 1a 00
        E 0 90 19 60
        E 120 80 19 00
        E 120 90 1a 60
        E 120 80 1a 00
        E 0 90 1a 60
        E 120 80 1a 00
        E 0 90 18 60
        E 120 80 18 00
        E 120 90 1a 60
        E 120 80 1a 00
        E 0 90 1a 60
        E 120 80 1a 00
        E 0 90 19 60
        E 120 80 19 00
        E 360 90 18 60
        E 0 90 1a 60
        E 120 80 18 00
        E 0 80 1a 00
        E 120 90 1a 60
        E 120 80 1a 00
        E 0 90 1a 60
        E 120 80 1a 00
        E 0 90 19 60
        E 120 80 19 00
        E 120 90 1a 60
        E 120 80 1a 00
        E 0 90 1a 60
        E 120 80 1a 00
        E 0 90 18 60
        E 120 80 18 00
        E 120 90 1a 60
        E 120 80 1a 00
        E 0 90 19 60
        E 0 90 1a 60
        E 120 80 19 00
        E 0 80 1a 00
        E 480 90 18 60
        E 0 90 1a 60
        E 120 80 18 00
        E 0 80 1a 00
        E 120 90 1a 60
        E 120 80 1a 00
        E 0 90 1a 60
        E 120 80 1a 00
        E 0 90 19 60
        E 120 80 19 00
        E 120 90 1a 60
        E 120 80 1a 00
        E 0 90 1a 60
        E 120 80 1a 00
        E 0 90 18 60
        E 120 80 18 00
        E 0 90 19 60
        E 120 80 19 00
        E 0 90 1a 60
        E 120 80 1a 00
        E 0 90 1a 60
        E 120 80 1a 00
        E 0 90 19 60
        E 120 80 19 00
        E 120 90 1a 60
        E 120 80 1a 00
        E 120 90 18 60
        E 120 80 18 00
        E 120 90 1a 60
        E 120 80 1a 00
        E 0 90 1a 60
        E 120 80 1a 00
        E 0 90 19 60
        E 120 80 19 00
        E 120 90 1a 60
        E 120 80 1a 00
        E 0 90 1a 60
        E 120 80 1a 00
        E 0 90 18 60
        E 120 80 18 00
        E 120 90 1a 60
        E 120 80 1a 00
        E 0 90 19 60
        E 0 90 1a 60
        E 120 80 19 00
        E 0 80 1a 00
        E 480 90 18 60
        E 0 90 1a 60
        E 120 80 18 00
        E 0 80 1a 00
        E 120 90 1a 60
        E 120 80 1a 00
        E 0 90 1a 60
        E 120 80 1a 00
        E 0 90 19 60
        E 120 80 19 00
        E 120 90 1a 60
        E 120 80 1a 00
        E 0 90 1a 60
        E 120 80 1a 00
        E 0 90 18 60
        E 120 80 18 00
        E 120 90 1a 60
        E 120 80 1a 00
        E 0 90 1a 60
        E 120 80 1a 00
        E 0 90 19 60
        E 120 80 19 00
        E 360 90 18 60
        E 0 90 1a 60
        E 120 80 18 00
        E 0 80 1a 00
        E 120 90 1a 60
        E 120 80 1a 00
        E 0 90 1a 60
        E 120 80 1a 00
        E 0 90 19 60
        E 120 80 19 00
        E 120 90 1a 60
        E 120 80 1a 00
        E 0 90 1a 60
        E 120 80 1a 00
        E 0 90 18 60
        E 120 80 18 00
        E 120 90 1a 60
        E 120 80 1a 00
        E 0 90 19 60
        E 0 90 1a 60
        E 120 80 19 00
        E 0 80 1a 00
        E 480 90 18 60
        E 0 90 1a 60
        E 120 80 18 00
        E 0 80 1a 00
        E 120 90 1a 60
        E 120 80 1a 00
        E 0 90 1a 60
        E 120 80 1a 00
        E 0 90 19 60
        E 120 80 19 00
        E 120 90 1a 60
        E 120 80 1a 00
        E 0 90 19 60
        E 60 80 19 00
        E 0 90 19 60
        E 60 80 19 00
        E 0 90 18 60
        E 0 90 19 60
        E 120 80 18 00
        E 0 80 19 00
        E 0 90 19 60
        E 120 80 19 00
        E 0 90 19 60
        E 120 80 19 00
        E 120 90 1a 60
        E 120 80 1a 00
        E 120 90 1a 60
        E 120 80 1a 00
        <X 120 0
          /wFbY3Jvd2RfbWVsbG93XQ==
        >
        <X 0 0
          /wFbcHJjX3ZlcnNlXzFd
        >
        E 240 90 1a 60
        E 120 80 1a 00
        E 0 90 1a 60
        E 120 80 1a 00
        E 0 90 18 60
        E 120 80 18 00
        E 120 90 1a 60
        E 120 80 1a 00
        E 0 90 1a 60
        E 120 80 1a 00
        E 240 90 1a 60
        E 120 80 1a 00
        E 0 90 1a 60
        E 120 80 1a 00
        E 0 90 18 60
        E 120 80 18 00
        E 360 90 1a 60
        E 120 80 1a 00
        E 120 90 1a 60
        E 120 80 1a 00
        E 0 90 1a 60
        E 120 80 1a 00
        E 0 90 18 60
        E 120 80 18 00
        E 120 90 1a 60
        E 120 80 1a 00
        E 0 90 1a 60
        E 120 80 1a 00
        E 240 90 1a 60
        E 120 80 1a 00
        E 0 90 1a 60
        E 120 80 1a 00
        E 0 90 18 60
        E 120 80 18 00
        E 360 90 1a 60
        E 120 80 1a 00
        E 120 90 1a 60
        E 120 80 1a 00
        E 0 90 1a 60
        E 120 80 1a 00
        E 0 90 18 60
        E 120 80 18 00
        E 120 90 1a 60
        E 120 80 1a 00
        E 0 90 1a 60
        E 120 80 1a 00
        E 240 90 1a 60
        E 120 80 1a 00
        E 0 90 1a 60
        E 120 80 1a 00
        E 0 90 18 60
        E 120 80 18 00
        E 360 90 1a 60
        E 120 80 1a 00
        E 120 90 1a 60
        E 120 80 1a 00
        E 0 90 1a 60
        E 120 80 1a 00
        E 0 90 18 60
        E 120 80 18 00
        E 360 90 18 60
        E 120 80 18 00
        E 0 90 19 60
        E 120 80 19 00
        E 0 90 1a 60
        E 120 80 1a 00
        E 0 90 18 60
        E 0 90 1a 60
        E 120 80 18 00
        E 0 80 1a 00
        E 0 90 19 60
        E 120 80 19 00
        <X 360 0
          /wFbcHJjX2Nob3J1c18yXQ==
        >
        E 0 90 18 60
        E 120 80 18 00
        E 120 90 1a 60
        E 120 80 1a 00
        E 0 90 1a 60
        E 120 80 1a 00
        E 0 90 19 60
        E 120 80 19 00
        E 120 90 1a 60
        E 120 80 1a 00
        E 0 90 1a 60
        E 120 80 1a 00
        E 0 90 18 60
        E 120 80 18 00
        E 120 90 1a 60
        E 120 80 1a 00
        E 0 90 19 60
        E 0 90 1a 60
        E 120 80 19 00
        E 0 80 1a 00
        E 480 90 18 60
        E 0 90 1a 60
        E 120 80 18 00
        E 0 80 1a 00
        E 120 90 1a 60
        E 120 80 1a 00
        E 0 90 1a 60
        E 120 80 1a 00
        E 0 90 19 60
        E 120 80 19 00
        E 120 90 1a 60
        E 120 80 1a 00
        E 0 90 1a 60
        E 120 80 1a 00
        E 0 90 18 60
        E 120 80 18 00
        E 120 90 1a 60
        E 120 80 1a 00
        E 0 90 1a 60
        E 120 80 1a 00
        E 0 90 19 60
        E 120 80 19 00
        E 360 90 18 60
        E 0 90 1a 60
        E 120 80 18 00
        E 0 80 1a 00
        E 120 90 1a 60
        E 120 80 1a 00
        E 0 90 1a 60
        E 120 80 1a 00
        E 0 90 19 60
        E 120 80 19 00
        E 120 90 1a 60
        E 120 80 1a 00
        E 0 90 1a 60
        E 120 80 1a 00
        E 0 90 18 60
        E 120 80 18 00
        E 120 90 1a 60
        E 120 80 1a 00
        E 0 90 19 60
        E 0 90 1a 60
        E 120 80 19 00
        E 0 80 1a 00
        E 480 90 18 60
        E 0 90 1a 60
        E 120 80 18 00
        E 0 80 1a 00
        E 120 90 1a 60
        E 120 80 1a 00
        E 0 90 1a 60
        E 120 80 1a 00
        E 0 90 19 60
        E 120 80 19 00
        E 120 90 1a 60
        E 120 80 1a 00
        E 0 90 19 60
        E 60 80 19 00
        E 0 90 19 60
        E 60 80 19 00
        E 0 90 18 60
        E 0 90 19 60
        E 120 80 18 00
        E 0 80 19 00
        E 0 90 19 60
        E 120 80 19 00
        E 0 90 1a 60
        E 120 80 1a 00
        E 0 90 19 60
        E 0 90 1a 60
        E 120 80 19 00
        E 0 80 1a 00
        E 240 90 1a 60
        E 120 80 1a 00
        <X 120 0
          /wFbcHJjX2JyZWFrXQ==
        >
        E 0 90 18 60
        E 120 80 18 00
        E 360 90 18 60
        E 120 80 18 00
        E 840 90 18 60
        E 120 80 18 00
        E 840 90 18 60
        E 120 80 18 00
        E 360 90 18 60
        E 0 90 19 60
        E 0 90 1a 60
        E 120 80 18 00
        E 0 80 19 00
        E 0 80 1a 00
        E 0 90 18 60
        E 0 90 19 60
        E 0 90 1a 60
        E 120 80 18 00
        E 0 80 19 00
        E 0 80 1a 00
        E 0 90 18 60
        E 0 90 19 60
        E 0 90 1a 60
        E 120 80 18 00
        E 0 80 19 00
        E 0 80 1a 00
        E 1080 90 18 60
        E 120 80 18 00
        E 840 90 18 60
        E 120 80 18 00
        E 840 90 18 60
        E 120 80 18 00
        E 840 90 18 60
        E 120 80 18 00
        E 840 90 18 60
        E 120 80 18 00
        E 840 90 18 60
        E 120 80 18 00
        E 840 90 18 60
        E 120 80 18 00
        E 360 90 18 60
        E 120 80 18 00
        E 0 90 19 60
        E 120 80 19 00
        E 0 90 1a 60
        E 120 80 1a 00
        E 0 90 18 60
        E 0 90 1a 60
        E 120 80 18 00
        E 0 80 1a 00
        E 0 90 19 60
        E 120 80 19 00
        E 600 90 1a 60
        E 120 80 1a 00
        E 0 90 1a 60
        E 120 80 1a 00
        E 0 90 18 60
        E 120 80 18 00
        E 120 90 1a 60
        E 120 80 1a 00
        E 0 90 1a 60
        E 120 80 1a 00
        E 240 90 1a 60
        E 120 80 1a 00
        E 0 90 1a 60
        E 120 80 1a 00
        E 0 90 18 60
        E 120 80 18 00
        E 120 90 1a 60
        E 120 80 1a 00
        E 120 90 1a 60
        E 120 80 1a 00
        E 120 90 1a 60
        E 120 80 1a 00
        E 0 90 1a 60
        E 120 80 1a 00
        E 0 90 18 60
        E 120 80 18 00
        E 120 90 1a 60
        E 120 80 1a 00
        E 0 90 1a 60
        E 120 80 1a 00
        E 240 90 1a 60
        E 120 80 1a 00
        E 0 90 1a 60
        E 120 80 1a 00
        E 0 90 18 60
        E 120 80 18 00
        E 360 90 1a 60
        E 120 80 1a 00
        E 120 90 1a 60
        E 120 80 1a 00
        E 0 90 1a 60
        E 120 80 1a 00
        E 0 90 18 60
        E 120 80 18 00
        E 120 90 1a 60
        E 120 80 1a 00
        E 0 90 1a 60
        E 120 80 1a 00
        E 240 90 1a 60
        E 120 80 1a 00
        E 0 90 1a 60
        E 120 80 1a 00
        E 0 90 18 60
        E 120 80 18 00
        E 120 90 1a 60
        E 120 80 1a 00
        E 120 90 1a 60
        E 120 80 1a 00
        E 120 90 1a 60
        E 120 80 1a 00
        E 0 90 1a 60
        E 120 80 1a 00
        E 0 90 18 60
        E 120 80 18 00
        E 360 90 18 60
        E 80 80 18 00
        E 40 90 19 60
        E 120 80 19 00
        E 0 90 1a 60
        E 120 80 1a 00
        E 0 90 18 60
        E 0 90 19 60
        E 60 80 18 00
        E 0 80 19 00
        E 0 90 19 60
        E 60 80 19 00
        E 0 90 19 60
        E 60 80 19 00
        E 60 90 19 60
        E 60 80 19 00
        E 60 90 18 60
        E 0 90 19 60
        E 60 80 18 00
        E 0 80 19 00
        <X 180 0
          /wFbcHJjX291dHJvXQ==
        >
        E 0 90 18 60
        E 0 90 1a 60
        E 120 80 18 00
        E 0 80 1a 00
        E 120 90 1a 60
        E 120 80 1a 00
        E 0 90 1a 60
        E 120 80 1a 00
        E 0 90 19 60
        E 120 80 19 00
        E 120 90 1a 60
        E 120 80 1a 00
        E 0 90 1a 60
        E 120 80 1a 00
        E 0 90 18 60
        E 120 80 18 00
        E 120 90 1a 60
        E 120 80 1a 00
        E 0 90 19 60
        E 0 90 1a 60
        E 120 80 19 00
        E 0 80 1a 00
        E 480 90 18 60
        E 0 90 1a 60
        E 120 80 18 00
        E 0 80 1a 00
        E 120 90 1a 60
        E 120 80 1a 00
        E 0 90 1a 60
        E 120 80 1a 00
        E 0 90 19 60
        E 120 80 19 00
        E 120 90 1a 60
        E 120 80 1a 00
        E 0 90 1a 60
        E 120 80 1a 00
        E 0 90 18 60
        E 120 80 18 00
        E 120 90 1a 60
        E 120 80 1a 00
        E 0 90 1a 60
        E 120 80 1a 00
        E 0 90 19 60
        E 120 80 19 00
        E 360 90 18 60
        E 0 90 1a 60
        E 120 80 18 00
        E 0 80 1a 00
        E 120 90 1a 60
        E 120 80 1a 00
        E 0 90 1a 60
        E 120 80 1a 00
        E 0 90 19 60
        E 120 80 19 00
        E 120 90 1a 60
        E 120 80 1a 00
        E 0 90 1a 60
        E 120 80 1a 00
        E 0 90 18 60
        E 120 80 18 00
        E 120 90 1a 60
        E 120 80 1a 00
        E 0 90 19 60
        E 0 90 1a 60
        E 120 80 19 00
        E 0 80 1a 00
        E 480 90 18 60
        E 0 90 1a 60
        E 120 80 18 00
        E 0 80 1a 00
        E 120 90 1a 60
        E 120 80 1a 00
        E 0 90 1a 60
        E 120 80 1a 00
        E 0 90 19 60
        E 120 80 19 00
        E 120 90 1a 60
        E 120 80 1a 00
        E 0 90 1a 60
        E 120 80 1a 00
        E 0 90 18 60
        E 120 80 18 00
        E 0 90 19 60
        E 120 80 19 00
        E 0 90 1a 60
        E 120 80 1a 00
        E 0 90 1a 60
        E 120 80 1a 00
        E 0 90 19 60
        E 120 80 19 00
        E 120 90 1a 60
        E 120 80 1a 00
        E 120 90 18 60
        E 120 80 18 00
        E 120 90 1a 60
        E 120 80 1a 00
        E 0 90 1a 60
        E 120 80 1a 00
        E 0 90 19 60
        E 120 80 19 00
        E 120 90 1a 60
        E 120 80 1a 00
        E 0 90 1a 60
        E 120 80 1a 00
        E 0 90 18 60
        E 120 80 18 00
        E 120 90 1a 60
        E 120 80 1a 00
        E 0 90 19 60
        E 0 90 1a 60
        E 120 80 19 00
        E 0 80 1a 00
        E 480 90 18 60
        E 0 90 1a 60
        E 120 80 18 00
        E 0 80 1a 00
        E 120 90 1a 60
        E 120 80 1a 00
        E 0 90 1a 60
        E 120 80 1a 00
        E 0 90 19 60
        E 120 80 19 00
        E 120 90 1a 60
        E 120 80 1a 00
        E 0 90 1a 60
        E 120 80 1a 00
        E 0 90 18 60
        E 120 80 18 00
        E 120 90 1a 60
        E 120 80 1a 00
        E 0 90 1a 60
        E 120 80 1a 00
        E 0 90 19 60
        E 120 80 19 00
        E 360 90 18 60
        E 0 90 1a 60
        E 120 80 18 00
        E 0 80 1a 00
        E 120 90 1a 60
        E 120 80 1a 00
        E 0 90 1a 60
        E 120 80 1a 00
        E 0 90 19 60
        E 120 80 19 00
        E 120 90 1a 60
        E 120 80 1a 00
        E 0 90 1a 60
        E 120 80 1a 00
        E 0 90 18 60
        E 120 80 18 00
        E 120 90 1a 60
        E 120 80 1a 00
        E 0 90 19 60
        E 0 90 1a 60
        E 120 80 19 00
        E 0 80 1a 00
        E 480 90 18 60
        E 0 90 1a 60
        E 120 80 18 00
        E 0 80 1a 00
        E 120 90 1a 60
        E 120 80 1a 00
        E 0 90 1a 60
        E 120 80 1a 00
        E 0 90 19 60
        E 120 80 19 00
        E 120 90 1a 60
        E 120 80 1a 00
        E 0 90 19 60
        E 60 80 19 00
        E 0 90 19 60
        E 60 80 19 00
        E 0 90 18 60
        E 0 90 19 60
        E 120 80 18 00
        E 0 80 19 00
        E 0 90 18 60
        E 0 90 19 60
        E 120 80 18 00
        E 0 80 19 00
        E 0 90 18 60
        E 0 90 19 60
        E 120 80 18 00
        E 0 80 19 00
        <X 120 0
          /wFbbXVzaWNfZW5kXQ==
        >
        <X 2395 0
          /wFbZW5kXQ==
        >
        E 5 b0 7b 00
        GUID {9F9FE062-2EAA-484C-A4AD-5A10144A261B}
        IGNTEMPO 0 120.00000000 4 4
        SRCCOLOR 64
        VELLANE 132 71 60
        COLORMAP "C:\Program Files (x86)\REAPER\Data\color_maps\rockband_guitarbass.png"
        CFGEDITVIEW 75873.732062 154.222544 58 12 0 0 0
        CFGEDIT 1 1 0 1 1 0 1 1 1 1 1 0.25000000 -8 -8 1928 1088 0 0 1 1 0.00000000 0 1 0 0 0.500000 0 0 1.000000 64
        KEYSNAP 0 0 "102034050607" 0 "Major"
        EVTFILTER 0 -1 -1 -1 -1 0 1 0 0 -1.00000000 -1.00000000
      >
    >
  >
  <TRACK '{12E7C56A-A1CF-41EE-B371-EE9A3E255D11}'
    NAME "BEAT"
    PEAKCOL 16576
    BEAT -1
    AUTOMODE 0
    VOLPAN 1.00000000000000 0.00000000000000 -1.00000000000000 -1.00000000000000 1.00000000000000
    MUTESOLO 0 0 0
    IPHASE 0
    ISBUS 0 0
    BUSCOMP 0 0
    SHOWINMIX 1 0.666700 0.500000 1 0.500000 -1 -1 -1
    FREEMODE 0
    SEL 0
    REC 0 0 0 0 0 0 0
    VU 2
    TRACKHEIGHT 0 0
    INQ 0 0 0 0.5000000000 100 0 0 100
    NCHAN 2
    FX 1
    TRACKID {12E7C56A-A1CF-41EE-B371-EE9A3E255D11}
    PERF 0
    MIDIOUT -1
    MAINSEND 1 0
    <ITEM
      POSITION 0.00000000000000
      SNAPOFFS 0.00000000000000
      LENGTH 83.00000000000000
      LOOP 0
      ALLTAKES 0
      SEL 0
      FADEIN 1 0.000000 0.000000 1 0
      FADEOUT 1 0.000000 0.000000 1 0
      MUTE 0
      IGUID {94E4653C-6FB9-4028-ABD3-A2D9C5F93D97}
      IID 15
      NAME "BEAT"
      VOLPAN 1.000000 0.000000 1.000000 -1.000000
      SOFFS 0.00000000000000 0.00000000000000
      PLAYRATE 1.00000000000000 1 0.00000000000000 -1
      CHANMODE 0
      GUID {09991E95-0AFB-4AE4-9653-6C6E319AFF82}
      <SOURCE MIDI
        HASDATA 1 480 QN
        POOLEDEVTS {BAEEE1FA-3D03-4DB3-9912-A33389966C3C}
        <X 0 0
          /wNCRUFU
        >
        E 0 96 0c 64
        E 120 86 0c 00
        E 360 96 0d 64
        E 120 86 0d 00
        E 360 96 0c 64
        E 120 86 0c 00
        E 360 96 0d 64
        E 120 86 0d 00
        E 360 96 0d 64
        E 120 86 0d 00
        E 360 96 0d 64
        E 120 86 0d 00
        E 360 96 0c 64
        E 120 86 0c 00
        E 360 96 0d 64
        E 120 86 0d 00
        E 360 96 0d 64
        E 120 86 0d 00
        E 360 96 0d 64
        E 120 86 0d 00
        E 360 96 0c 64
        E 120 86 0c 00
        E 360 96 0d 64
        E 120 86 0d 00
        E 360 96 0d 64
        E 120 86 0d 00
        E 360 96 0d 64
        E 120 86 0d 00
        E 360 96 0c 64
        E 120 86 0c 00
        E 360 96 0d 64
        E 120 86 0d 00
        E 360 96 0d 64
        E 120 86 0d 00
        E 360 96 0d 64
        E 120 86 0d 00
        E 360 96 0c 64
        E 120 86 0c 00
        E 360 96 0d 64
        E 120 86 0d 00
        E 360 96 0d 64
        E 120 86 0d 00
        E 360 96 0d 64
        E 120 86 0d 00
        E 360 96 0c 64
        E 120 86 0c 00
        E 360 96 0d 64
        E 120 86 0d 00
        E 360 96 0d 64
        E 120 86 0d 00
        E 360 96 0d 64
        E 120 86 0d 00
        E 360 96 0c 64
        E 120 86 0c 00
        E 360 96 0d 64
        E 120 86 0d 00
        E 360 96 0d 64
        E 120 86 0d 00
        E 360 96 0d 64
        E 120 86 0d 00
        E 360 96 0c 64
        E 120 86 0c 00
        E 360 96 0d 64
        E 120 86 0d 00
        E 360 96 0d 64
        E 120 86 0d 00
        E 360 96 0d 64
        E 120 86 0d 00
        E 360 96 0c 64
        E 120 86 0c 00
        E 360 96 0d 64
        E 120 86 0d 00
        E 360 96 0d 64
        E 120 86 0d 00
        E 360 96 0d 64
        E 120 86 0d 00
        E 360 96 0c 64
        E 120 86 0c 00
        E 360 96 0d 64
        E 120 86 0d 00
        E 360 96 0d 64
        E 120 86 0d 00
        E 360 96 0d 64
        E 120 86 0d 00
        E 360 96 0c 64
        E 120 86 0c 00
        E 360 96 0d 64
        E 120 86 0d 00
        E 360 96 0d 64
        E 120 86 0d 00
        E 360 96 0d 64
        E 120 86 0d 00
        E 360 96 0c 64
        E 120 86 0c 00
        E 360 96 0d 64
        E 120 86 0d 00
        E 360 96 0d 64
        E 120 86 0d 00
        E 360 96 0d 64
        E 120 86 0d 00
        E 360 96 0c 64
        E 120 86 0c 00
        E 360 96 0d 64
        E 120 86 0d 00
        E 360 96 0d 64
        E 120 86 0d 00
        E 360 96 0d 64
        E 120 86 0d 00
        E 360 96 0c 64
        E 120 86 0c 00
        E 360 96 0d 64
        E 120 86 0d 00
        E 360 96 0d 64
        E 120 86 0d 00
        E 360 96 0d 64
        E 120 86 0d 00
        E 360 96 0c 64
        E 120 86 0c 00
        E 360 96 0d 64
        E 120 86 0d 00
        E 360 96 0d 64
        E 120 86 0d 00
        E 360 96 0d 64
        E 120 86 0d 00
        E 360 96 0c 64
        E 120 86 0c 00
        E 360 96 0d 64
        E 120 86 0d 00
        E 360 96 0d 64
        E 120 86 0d 00
        E 360 96 0d 64
        E 120 86 0d 00
        E 360 96 0c 64
        E 120 86 0c 00
        E 360 96 0d 64
        E 120 86 0d 00
        E 360 96 0d 64
        E 120 86 0d 00
        E 360 96 0d 64
        E 120 86 0d 00
        E 360 96 0c 64
        E 120 86 0c 00
        E 360 96 0d 64
        E 120 86 0d 00
        E 360 96 0d 64
        E 120 86 0d 00
        E 360 96 0d 64
        E 120 86 0d 00
        E 360 96 0c 64
        E 120 86 0c 00
        E 360 96 0d 64
        E 120 86 0d 00
        E 360 96 0d 64
        E 120 86 0d 00
        E 360 96 0d 64
        E 120 86 0d 00
        E 360 96 0c 64
        E 120 86 0c 00
        E 360 96 0d 64
        E 120 86 0d 00
        E 360 96 0d 64
        E 120 86 0d 00
        E 360 96 0d 64
        E 120 86 0d 00
        E 360 96 0c 64
        E 120 86 0c 00
        E 360 96 0d 64
        E 120 86 0d 00
        E 360 96 0d 64
        E 120 86 0d 00
        E 360 96 0d 64
        E 120 86 0d 00
        E 360 96 0c 64
        E 120 86 0c 00
        E 360 96 0d 64
        E 120 86 0d 00
        E 360 96 0d 64
        E 120 86 0d 00
        E 360 96 0d 64
        E 120 86 0d 00
        E 360 96 0c 64
        E 120 86 0c 00
        E 360 96 0d 64
        E 120 86 0d 00
        E 360 96 0d 64
        E 120 86 0d 00
        E 360 96 0d 64
        E 120 86 0d 00
        E 360 96 0c 64
        E 120 86 0c 00
        E 360 96 0d 64
        E 120 86 0d 00
        E 360 96 0d 64
        E 120 86 0d 00
        E 360 96 0d 64
        E 120 86 0d 00
        E 360 96 0c 64
        E 120 86 0c 00
        E 360 96 0d 64
        E 120 86 0d 00
        E 360 96 0d 64
        E 120 86 0d 00
        E 360 96 0d 64
        E 120 86 0d 00
        E 360 96 0c 64
        E 120 86 0c 00
        E 360 96 0d 64
        E 120 86 0d 00
        E 360 96 0d 64
        E 120 86 0d 00
        E 360 96 0d 64
        E 120 86 0d 00
        E 360 96 0c 64
        E 120 86 0c 00
        E 360 96 0d 64
        E 120 86 0d 00
        E 360 96 0d 64
        E 120 86 0d 00
        E 360 96 0d 64
        E 120 86 0d 00
        E 360 96 0c 64
        E 120 86 0c 00
        E 360 96 0d 64
        E 120 86 0d 00
        E 360 96 0d 64
        E 120 86 0d 00
        E 360 96 0d 64
        E 120 86 0d 00
        E 360 96 0c 64
        E 120 86 0c 00
        E 360 96 0d 64
        E 120 86 0d 00
        E 360 96 0d 64
        E 120 86 0d 00
        E 360 96 0d 64
        E 120 86 0d 00
        E 360 96 0c 64
        E 120 86 0c 00
        E 360 96 0d 64
        E 120 86 0d 00
        E 360 96 0d 64
        E 120 86 0d 00
        E 360 96 0d 64
        E 120 86 0d 00
        E 360 96 0c 64
        E 120 86 0c 00
        E 360 96 0d 64
        E 120 86 0d 00
        E 360 96 0d 64
        E 120 86 0d 00
        E 360 96 0d 64
        E 120 86 0d 00
        E 360 96 0c 64
        E 120 86 0c 00
        E 360 96 0d 64
        E 120 86 0d 00
        E 360 96 0d 64
        E 120 86 0d 00
        E 360 96 0d 64
        E 120 86 0d 00
        E 360 96 0c 64
        E 120 86 0c 00
        E 360 96 0d 64
        E 120 86 0d 00
        E 360 96 0d 64
        E 120 86 0d 00
        E 360 96 0d 64
        E 120 86 0d 00
        E 360 96 0c 64
        E 120 86 0c 00
        E 360 96 0d 64
        E 120 86 0d 00
        E 360 96 0d 64
        E 120 86 0d 00
        E 360 96 0d 64
        E 120 86 0d 00
        E 360 96 0c 64
        E 120 86 0c 00
        E 360 96 0d 64
        E 120 86 0d 00
        E 360 96 0d 64
        E 120 86 0d 00
        E 360 96 0d 64
        E 120 86 0d 00
        E 360 96 0c 64
        E 120 86 0c 00
        E 360 96 0d 64
        E 120 86 0d 00
        E 360 96 0d 64
        E 120 86 0d 00
        E 360 96 0d 64
        E 120 86 0d 00
        E 360 96 0c 64
        E 120 86 0c 00
        E 360 96 0d 64
        E 120 86 0d 00
        E 360 96 0d 64
        E 120 86 0d 00
        E 360 96 0d 64
        E 120 86 0d 00
        E 360 96 0c 64
        E 120 86 0c 00
        E 360 96 0d 64
        E 120 86 0d 00
        E 360 96 0d 64
        E 120 86 0d 00
        E 360 96 0d 64
        E 120 86 0d 00
        E 360 96 0c 64
        E 120 86 0c 00
        E 360 96 0d 64
        E 120 86 0d 00
        E 360 96 0d 64
        E 120 86 0d 00
        E 360 96 0d 64
        E 120 86 0d 00
        E 360 96 0c 64
        E 120 86 0c 00
        E 360 96 0d 64
        E 120 86 0d 00
        E 360 96 0d 64
        E 120 86 0d 00
        E 360 96 0d 64
        E 120 86 0d 00
        E 360 96 0c 64
        E 120 86 0c 00
        E 360 96 0d 64
        E 120 86 0d 00
        E 360 96 0d 64
        E 120 86 0d 00
        E 360 96 0d 64
        E 120 86 0d 00
        E 360 b0 7b 00
        GUID {97DCA368-1EF6-4DB2-8C98-6299B992A5E2}
        IGNTEMPO 0 120.00000000 4 4
        SRCCOLOR 66
        VELLANE 132 71 60
        COLORMAP "C:\Program Files (x86)\REAPER\Data\color_maps\rockband_guitarbass.png"
        CFGEDITVIEW 75879.956833 154.222544 58 12 0 0 0
        CFGEDIT 1 1 0 1 1 0 1 1 1 1 1 0.25000000 -8 -8 1928 1088 0 0 1 1 0.00000000 0 1 0 0 0.500000 0 0 1.000000 64
        KEYSNAP 0 0 "102034050607" 0 "Major"
        EVTFILTER 0 -1 -1 -1 -1 0 1 0 0 -1.00000000 -1.00000000
      >
    >
  >
  <TRACK '{B32A030E-6FD0-4BDE-8ED2-8489E4E16FD6}'
    NAME "backing"
    PEAKCOL 16576
    BEAT -1
    AUTOMODE 0
    VOLPAN 1.00000000000000 0.00000000000000 -1.00000000000000 -1.00000000000000 1.00000000000000
    MUTESOLO 0 0 0
    IPHASE 0
    ISBUS 0 0
    BUSCOMP 0 0
    SHOWINMIX 1 0.666700 0.500000 1 0.500000 -1 -1 -1
    FREEMODE 0
    SEL 0
    REC 0 0 0 0 0 0 0
    VU 2
    TRACKHEIGHT 0 0
    INQ 0 0 0 0.5000000000 100 0 0 100
    NCHAN 2
    FX 1
    TRACKID {B32A030E-6FD0-4BDE-8ED2-8489E4E16FD6}
    PERF 0
    MIDIOUT -1
    MAINSEND 1 0
    <ITEM
      POSITION 0.00000000000000
      SNAPOFFS 0.00000000000000
      LENGTH 83.00000000000000
      LOOP 0
      ALLTAKES 0
      SEL 0
      FADEIN 1 0.000000 0.000000 1 0
      FADEOUT 1 0.000000 0.000000 1 0
      MUTE 0
      IGUID {AFC53A5B-AFD0-4793-BCF1-8DF473682CC6}
      IID 17
      NAME "backing.wav"
      VOLPAN 1.000000 0.000000 1.000000 -1.000000
      SOFFS 0.00000000000000
      PLAYRATE 1.00000000000000 1 0.00000000000000 -1
      CHANMODE 0
      GUID {A6A98206-CD96-41D4-9C55-826AE9EA3201}
      <SOURCE WAVE
        FILE "wav\backing.wav"
      >
    >
  >
  <EXTENSIONS
  >
>
