<REAPER_PROJECT 0.1 "4.22/x64"
  RIPPLE 0
  GROUPOVERRIDE 0 0 0
  AUTOXFADE 1
  ENVATTACH 1
  MIXERUIFLAGS 11 48
  PEAKGAIN 1.00000000000000
  FEEDBACK 0
  PANLAW 1.00000000000000
  PROJOFFS 0.00000000000000 0
  MAXPROJLEN 0 600.00000000000000
  GRID 3199 8 1.00000000000000 8 1.00000000000000 0
  TIMEMODE 1 0 -1
  PANMODE 3
  CURSOR 0.00000000000000
  ZOOM 56.74686282832967 0 0
  VZOOMEX 4
  USE_REC_CFG 0
  RECMODE 1
  SMPTESYNC 0 23.976024 100 40 1000 300 0 0.000000 1
  LOOP 1
  LOOPGRAN 0 4.00000000000000
  RECORD_PATH "" ""
  <RECORD_CFG
    ZXZhdxAD
  >
  <APPLYFX_CFG
  >
  RENDER_FILE "C:\Users\Ruggery\Desktop\backing.wav"
  RENDER_FMT 0 1 44100
  RENDER_1X 0
  RENDER_RANGE 2 0.00000000000000 0.00000000000000
  RENDER_RESAMPLE 3 0 1
  RENDER_ADDTOPROJ 0
  RENDER_STEMS 0
  RENDER_DITHER 0
  TIMELOCKMODE 0
  ITEMMIX 0
  DEFPITCHMODE 393216
  TAKELANE 1
  SAMPLERATE 44100 0 0
  <RENDER_CFG
    ZXZhdxAD
  >
  LOCK 1
  <METRONOME 6 2.000000
    VOL 0.250000 0.125000
    FREQ 800 1600 1
    BEATLEN 4
    SAMPLES "" ""
  >
  GLOBAL_AUTO -1
  TEMPO 99.99300000000000 3 4
  PLAYRATE 1.00000000000000 0 0.25000 4.00000
  SELECTION 122.40856859980200 0.00000000000000
  SELECTION2 122.40856859980200 0.00000000000000
  MASTERAUTOMODE 0
  MASTERTRACKHEIGHT 0
  MASTERPEAKCOL 16576
  MASTERMUTESOLO 0
  MASTERTRACKVIEW 0 0.666700 0.500000 0.500000 -1 -1 -1
  MASTERHWOUT 0 0 1.00000000000000 0.00000000000000 0 0 0 -1.00000000000000
  MASTER_NCH 2 2
  MASTER_VOLUME 0.10957967399611 0.00000000000000 -1.00000000000000 -1.00000000000000 1.00000000000000
  MASTER_PANMODE -1
  MASTER_FX 1
  MASTER_SEL 0
  <MASTERPLAYSPEEDENV
    ACT 0
    VIS 0 1 1.000000
    LANEHEIGHT 0 0
    ARM 0
    DEFSHAPE 0 -1 -1
  >
  <TEMPOENVEX
    ACT 1
    VIS 1 0 1.000000
    LANEHEIGHT 0 0
    ARM 0
    DEFSHAPE 1 -1 -1
    PT 0.000000000000 99.9930000000 1 262147
  >
  <PROJBAY
  >
  <TRACK '{3ADD0B9D-3F0C-410F-B031-527072AF7522}'
    NAME "PART DRUMS"
    PEAKCOL 16576
    BEAT -1
    AUTOMODE 0
    VOLPAN 1.00000000000000 0.00000000000000 -1.00000000000000 -1.00000000000000 1.00000000000000
    MUTESOLO 0 0 0
    IPHASE 0
    ISBUS 1 1
    BUSCOMP 0 0
    SHOWINMIX 1 0.666700 0.500000 1 0.500000 -1 -1 -1
    FREEMODE 0
    SEL 0
    REC 0 0 0 0 0 0 0
    VU 2
    TRACKHEIGHT 0 0
    INQ 0 0 0 0.5000000000 100 0 0 100
    NCHAN 2
    FX 1
    TRACKID {3ADD0B9D-3F0C-410F-B031-527072AF7522}
    PERF 0
    MIDIOUT -1
    <MIDINOTENAMES
      0 127 "CYMBAL SWELLS"
      0 126 "DRUM ROLL"
      0 125 "---"
      0 124 "DRUM FILL"
      0 123 "DRUM FILL"
      0 122 "DRUM FILL"
      0 121 "DRUM FILL"
      0 120 "DRUM FILL (use all 5)"
      0 118 "----"
      0 116 "OVERDRIVE"
      0 114 "----"
      0 112 "TOM GEMS PAD 4"
      0 111 "TOM GEMS PAD 3"
      0 110 "TOM GEMS PAD 2"
      0 103 "Solo Marker"
      0 102 "----"
      0 100 "EXPERT Green"
      0 99 "EXPERT Blue"
      0 98 "EXPERT Yellow"
      0 97 "EXPERT Red"
      0 96 "EXPERT Kick"
      0 92 "----"
      0 88 "HARD Green"
      0 87 "HARD Blue"
      0 86 "HARD Yellow"
      0 85 "HARD Red"
      0 84 "HARD Kick"
      0 80 "----"
      0 76 "MEDIUM Green"
      0 75 "MEDIUM Blue"
      0 74 "MEDIUM Yellow"
      0 73 "MEDIUM Red"
      0 72 "MEDIUM Kick"
      0 68 "----"
      0 64 "EASY Green"
      0 63 "EASY Blue"
      0 62 "EASY Yellow"
      0 61 "EASY Red"
      0 60 "EASY Kick"
      0 56 "----"
      0 52 "-- DRUM ANIMATION --"
      0 51 "FLOOR TOM RH"
      0 50 "FLOOR TOM LH"
      0 49 "TOM2 RH"
      0 48 "TOM2 LH"
      0 47 "TOM1 RH"
      0 46 "TOM1 LH"
      0 45 "SOFT CRASH 2 LH"
      0 44 "CRASH 2 LH"
      0 43 "RIDE LH"
      0 42 "RIDE CYM RH"
      0 41 "CRASH2 CHOKE"
      0 40 "CRASH1 CHOKE"
      0 39 "CRASH2 SOFT RH"
      0 38 "CRASH2 HARD RH"
      0 37 "CRASH1 SOFT RH"
      0 36 "CRASH1 HARD RH"
      0 35 "CRASH1 SOFT LH"
      0 34 "CRASH1 HARD LH"
      0 32 "PERCUSSION RH"
      0 31 "HI-HAT RH"
      0 30 "HI-HAT LH"
      0 29 "SOFT SNARE RH"
      0 28 "SOFT SNARE LH"
      0 27 "SNARE RH"
      0 26 "SNARE LH"
      0 25 "HI-HAT OPEN"
      0 24 "KICK RF"
    >
    MAINSEND 1 0
    <FXCHAIN
      WNDRECT 0 43 891 559
      SHOW 0
      LASTSEL 0
      DOCKED 0
      BYPASS 0 0
      <VST "VSTi: RBN Preview (RBN)" "rbprev_vst64.dll" 0 ""
        dnBicu5e7f4AAAAAAgAAAAEAAAAAAAAAAgAAAAAAAAAEAAAAAQAAAA==
        AAAQAAMBqgAAABAAAAA=
      >
      FLOATPOS 0 0 0 0
      FXID {A7727B69-52D6-490E-9638-4B143FCCD997}
      WAK 0
    >
    <ITEM
      POSITION 0.00000000000000
      SNAPOFFS 0.00000000000000
      LENGTH 122.40856859980200
      LOOP 0
      ALLTAKES 0
      SEL 0
      FADEIN 1 0.000000 0.000000 1 0
      FADEOUT 1 0.000000 0.000000 1 0
      MUTE 0
      IGUID {677D896D-06C3-4831-B35B-D7F4EF0317D4}
      IID 6
      NAME "PART DRUMS"
      VOLPAN 1.000000 0.000000 1.000000 -1.000000
      SOFFS 0.00000000000000 0.00000000000000
      PLAYRATE 1.00000000000000 1 0.00000000000000 -1
      CHANMODE 0
      GUID {44AC6E87-A278-4553-BAC4-D287E762D323}
      <SOURCE MIDI
        HASDATA 1 480 QN
        POOLEDEVTS {4862C714-2A1D-4B5C-AB37-AF2E73AB912E}
        <X 0 0
          /wNQQVJUIERSVU1T
        >
        E 0 90 19 60
        E 0 90 1e 60
        <X 120 0
          /wFbbWl4IDAgZHJ1bXMwXQ==
        >
        E 0 80 1e 00
        <X 120 0
          /wFbbWl4IDEgZHJ1bXMwXQ==
        >
        <X 120 0
          /wFbbWl4IDIgZHJ1bXMwXQ==
        >
        <X 120 0
          /wFbbWl4IDMgZHJ1bXMwXQ==
        >
        E 480 80 19 00
        <X 1920 0
          /wFbbWVsbG93XQ==
        >
        E 480 90 1f 60
        E 0 90 3e 60
        E 0 90 4a 60
        E 0 90 56 60
        E 0 90 62 60
        E 120 80 1f 00
        E 0 80 3e 00
        E 0 80 4a 00
        E 0 80 56 00
        E 0 80 62 00
        E 360 90 1f 60
        E 0 90 3e 60
        E 0 90 4a 60
        E 0 90 56 60
        E 0 90 62 60
        E 120 80 1f 00
        E 0 80 3e 00
        E 0 80 4a 00
        E 0 80 56 00
        E 0 80 62 00
        E 840 90 1f 60
        E 0 90 3e 60
        E 0 90 4a 60
        E 0 90 56 60
        E 0 90 62 60
        E 120 80 1f 00
        E 0 80 3e 00
        E 0 80 4a 00
        E 0 80 56 00
        E 0 80 62 00
        E 360 90 1f 60
        E 0 90 3e 60
        E 0 90 4a 60
        E 0 90 56 60
        E 0 90 62 60
        E 120 80 1f 00
        E 0 80 3e 00
        E 0 80 4a 00
        E 0 80 56 00
        E 0 80 62 00
        E 840 90 1f 60
        E 0 90 3e 60
        E 0 90 4a 60
        E 0 90 56 60
        E 0 90 62 60
        E 120 80 1f 00
        E 0 80 3e 00
        E 0 80 4a 00
        E 0 80 56 00
        E 0 80 62 00
        E 360 90 1f 60
        E 0 90 3e 60
        E 0 90 4a 60
        E 0 90 56 60
        E 0 90 62 60
        E 120 80 1f 00
        E 0 80 3e 00
        E 0 80 4a 00
        E 0 80 56 00
        E 0 80 62 00
        E 360 90 78 60
        E 0 90 79 60
        E 0 90 7a 60
        E 0 90 7b 60
        E 0 90 7c 60
        E 480 90 1f 60
        E 0 90 3e 60
        E 0 90 4a 60
        E 0 90 56 60
        E 0 90 62 60
        E 120 80 1f 00
        E 0 80 3e 00
        E 0 80 4a 00
        E 0 80 56 00
        E 0 80 62 00
        E 360 90 1f 60
        E 0 90 3e 60
        E 0 90 4a 60
        E 0 90 56 60
        E 0 90 62 60
        E 120 80 1f 00
        E 0 80 3e 00
        E 0 80 4a 00
        E 0 80 56 00
        E 0 80 62 00
        E 360 80 78 00
        E 0 80 79 00
        E 0 80 7a 00
        E 0 80 7b 00
        E 0 80 7c 00
        E 0 90 74 60
        E 480 90 1f 60
        E 0 90 3e 60
        E 0 90 4a 60
        E 0 90 56 60
        E 0 90 62 60
        E 120 80 1f 00
        E 0 80 3e 00
        E 0 80 4a 00
        E 0 80 56 00
        E 0 80 62 00
        E 360 90 1f 60
        E 0 90 3e 60
        E 0 90 4a 60
        E 0 90 56 60
        E 0 90 62 60
        E 120 80 1f 00
        E 0 80 3e 00
        E 0 80 4a 00
        E 0 80 56 00
        E 0 80 62 00
        E 840 90 1f 60
        E 0 90 3e 60
        E 0 90 4a 60
        E 0 90 56 60
        E 0 90 62 60
        E 120 80 1f 00
        E 0 80 3e 00
        E 0 80 4a 00
        E 0 80 56 00
        E 0 80 62 00
        E 360 90 1f 60
        E 0 90 3e 60
        E 0 90 4a 60
        E 0 90 56 60
        E 0 90 62 60
        E 120 80 1f 00
        E 0 80 3e 00
        E 0 80 4a 00
        E 0 80 56 00
        E 0 80 62 00
        E 360 80 74 00
        E 480 90 1f 60
        E 0 90 3e 60
        E 0 90 4a 60
        E 0 90 56 60
        E 0 90 62 60
        E 120 80 1f 00
        E 0 80 3e 00
        E 0 80 4a 00
        E 0 80 56 00
        E 0 80 62 00
        E 360 90 1f 60
        E 0 90 3e 60
        E 0 90 4a 60
        E 0 90 56 60
        E 0 90 62 60
        E 120 80 1f 00
        E 0 80 3e 00
        E 0 80 4a 00
        E 0 80 56 00
        E 0 80 62 00
        E 360 90 78 60
        E 0 90 79 60
        E 0 90 7a 60
        E 0 90 7b 60
        E 0 90 7c 60
        E 480 90 1f 60
        E 0 90 3e 60
        E 0 90 4a 60
        E 0 90 56 60
        E 0 90 62 60
        E 120 80 1f 00
        E 0 80 3e 00
        E 0 80 4a 00
        E 0 80 56 00
        E 0 80 62 00
        E 360 90 1f 60
        E 0 90 3e 60
        E 0 90 4a 60
        E 0 90 56 60
        E 0 90 62 60
        E 120 80 1f 00
        E 0 80 3e 00
        E 0 80 4a 00
        E 0 80 56 00
        E 0 80 62 00
        E 360 80 78 00
        E 0 80 79 00
        E 0 80 7a 00
        E 0 80 7b 00
        E 0 80 7c 00
        E 480 90 1f 60
        E 0 90 3e 60
        E 0 90 4a 60
        E 0 90 56 60
        E 0 90 62 60
        E 120 80 1f 00
        E 0 80 3e 00
        E 0 80 4a 00
        E 0 80 56 00
        E 0 80 62 00
        E 360 90 1f 60
        E 0 90 3e 60
        E 0 90 4a 60
        E 0 90 56 60
        E 0 90 62 60
        E 120 80 1f 00
        E 0 80 3e 00
        E 0 80 4a 00
        E 0 80 56 00
        E 0 80 62 00
        E 840 90 1f 60
        E 0 90 3e 60
        E 0 90 4a 60
        E 0 90 56 60
        E 0 90 62 60
        E 120 80 1f 00
        E 0 80 3e 00
        E 0 80 4a 00
        E 0 80 56 00
        E 0 80 62 00
        E 360 90 1f 60
        E 0 90 3e 60
        E 0 90 4a 60
        E 0 90 56 60
        E 0 90 62 60
        E 120 80 1f 00
        E 0 80 3e 00
        E 0 80 4a 00
        E 0 80 56 00
        E 0 80 62 00
        E 840 90 1f 60
        E 0 90 3e 60
        E 0 90 4a 60
        E 0 90 56 60
        E 0 90 62 60
        E 120 80 1f 00
        E 0 80 3e 00
        E 0 80 4a 00
        E 0 80 56 00
        E 0 80 62 00
        E 360 90 1f 60
        E 0 90 3e 60
        E 0 90 4a 60
        E 0 90 56 60
        E 0 90 62 60
        E 120 80 1f 00
        E 0 80 3e 00
        E 0 80 4a 00
        E 0 80 56 00
        E 0 80 62 00
        E 360 90 78 60
        E 0 90 79 60
        E 0 90 7a 60
        E 0 90 7b 60
        E 0 90 7c 60
        E 480 90 1f 60
        E 0 90 3e 60
        E 0 90 4a 60
        E 0 90 56 60
        E 0 90 62 60
        E 120 80 1f 00
        E 0 80 3e 00
        E 0 80 4a 00
        E 0 80 56 00
        E 0 80 62 00
        E 360 90 1f 60
        E 0 90 3e 60
        E 0 90 4a 60
        E 0 90 56 60
        E 0 90 62 60
        E 120 80 1f 00
        E 0 80 3e 00
        E 0 80 4a 00
        E 0 80 56 00
        E 0 80 62 00
        E 360 80 78 00
        E 0 80 79 00
        E 0 80 7a 00
        E 0 80 7b 00
        E 0 80 7c 00
        E 480 90 1f 60
        E 0 90 3e 60
        E 0 90 4a 60
        E 0 90 56 60
        E 0 90 62 60
        E 120 80 1f 00
        E 0 80 3e 00
        E 0 80 4a 00
        E 0 80 56 00
        E 0 80 62 00
        E 360 90 1f 60
        E 0 90 3e 60
        E 0 90 4a 60
        E 0 90 56 60
        E 0 90 62 60
        E 120 80 1f 00
        E 0 80 3e 00
        E 0 80 4a 00
        E 0 80 56 00
        E 0 80 62 00
        E 840 90 1f 60
        E 0 90 3e 60
        E 0 90 4a 60
        E 0 90 56 60
        E 0 90 62 60
        E 120 80 1f 00
        E 0 80 3e 00
        E 0 80 4a 00
        E 0 80 56 00
        E 0 80 62 00
        E 360 90 1f 60
        E 0 90 3e 60
        E 0 90 4a 60
        E 0 90 56 60
        E 0 90 62 60
        E 120 80 1f 00
        E 0 80 3e 00
        E 0 80 4a 00
        E 0 80 56 00
        E 0 80 62 00
        E 840 90 1f 60
        E 0 90 3e 60
        E 0 90 4a 60
        E 0 90 56 60
        E 0 90 62 60
        E 120 80 1f 00
        E 0 80 3e 00
        E 0 80 4a 00
        E 0 80 56 00
        E 0 80 62 00
        E 360 90 1f 60
        E 0 90 3e 60
        E 0 90 4a 60
        E 0 90 56 60
        E 0 90 62 60
        E 120 80 1f 00
        E 0 80 3e 00
        E 0 80 4a 00
        E 0 80 56 00
        E 0 80 62 00
        E 360 90 78 60
        E 0 90 79 60
        E 0 90 7a 60
        E 0 90 7b 60
        E 0 90 7c 60
        E 480 90 1f 60
        E 0 90 3e 60
        E 0 90 4a 60
        E 0 90 56 60
        E 0 90 62 60
        E 120 80 1f 00
        E 0 80 3e 00
        E 0 80 4a 00
        E 0 80 56 00
        E 0 80 62 00
        E 360 90 1f 60
        E 0 90 3e 60
        E 0 90 4a 60
        E 0 90 56 60
        E 0 90 62 60
        E 120 80 1f 00
        E 0 80 3e 00
        E 0 80 4a 00
        E 0 80 56 00
        E 0 80 62 00
        E 360 80 78 00
        E 0 80 79 00
        E 0 80 7a 00
        E 0 80 7b 00
        E 0 80 7c 00
        E 480 90 1f 60
        E 0 90 3e 60
        E 0 90 4a 60
        E 0 90 56 60
        E 0 90 62 60
        E 120 80 1f 00
        E 0 80 3e 00
        E 0 80 4a 00
        E 0 80 56 00
        E 0 80 62 00
        E 360 90 1f 60
        E 0 90 3e 60
        E 0 90 4a 60
        E 0 90 56 60
        E 0 90 62 60
        E 120 80 1f 00
        E 0 80 3e 00
        E 0 80 4a 00
        E 0 80 56 00
        E 0 80 62 00
        E 840 90 1f 60
        E 0 90 3e 60
        E 0 90 4a 60
        E 0 90 56 60
        E 0 90 62 60
        E 120 80 1f 00
        E 0 80 3e 00
        E 0 80 4a 00
        E 0 80 56 00
        E 0 80 62 00
        E 360 90 1f 60
        E 0 90 3e 60
        E 0 90 4a 60
        E 0 90 56 60
        E 0 90 62 60
        E 120 80 1f 00
        E 0 80 3e 00
        E 0 80 4a 00
        E 0 80 56 00
        E 0 80 62 00
        E 840 90 1f 60
        E 0 90 3e 60
        E 0 90 4a 60
        E 0 90 56 60
        E 0 90 62 60
        E 120 80 1f 00
        E 0 80 3e 00
        E 0 80 4a 00
        E 0 80 56 00
        E 0 80 62 00
        E 360 90 1f 60
        E 0 90 3e 60
        E 0 90 4a 60
        E 0 90 56 60
        E 0 90 62 60
        E 120 80 1f 00
        E 0 80 3e 00
        E 0 80 4a 00
        E 0 80 56 00
        E 0 80 62 00
        E 360 90 78 60
        E 0 90 79 60
        E 0 90 7a 60
        E 0 90 7b 60
        E 0 90 7c 60
        E 480 90 1f 60
        E 0 90 3e 60
        E 0 90 4a 60
        E 0 90 56 60
        E 0 90 62 60
        E 120 80 1f 00
        E 0 80 3e 00
        E 0 80 4a 00
        E 0 80 56 00
        E 0 80 62 00
        E 360 90 1f 60
        E 0 90 3e 60
        E 0 90 4a 60
        E 0 90 56 60
        E 0 90 62 60
        E 120 80 1f 00
        E 0 80 3e 00
        E 0 80 4a 00
        E 0 80 56 00
        E 0 80 62 00
        E 360 80 78 00
        E 0 80 79 00
        E 0 80 7a 00
        E 0 80 7b 00
        E 0 80 7c 00
        E 480 90 1f 60
        E 0 90 3e 60
        E 0 90 4a 60
        E 0 90 56 60
        E 0 90 62 60
        E 120 80 1f 00
        E 0 80 3e 00
        E 0 80 4a 00
        E 0 80 56 00
        E 0 80 62 00
        E 360 90 1f 60
        E 0 90 3e 60
        E 0 90 4a 60
        E 0 90 56 60
        E 0 90 62 60
        E 120 80 1f 00
        E 0 80 3e 00
        E 0 80 4a 00
        E 0 80 56 00
        E 0 80 62 00
        E 840 90 1f 60
        E 0 90 3e 60
        E 0 90 4a 60
        E 0 90 56 60
        E 0 90 62 60
        E 120 80 1f 00
        E 0 80 3e 00
        E 0 80 4a 00
        E 0 80 56 00
        E 0 80 62 00
        E 360 90 1f 60
        E 0 90 3e 60
        E 0 90 4a 60
        E 0 90 56 60
        E 0 90 62 60
        E 120 80 1f 00
        E 0 80 3e 00
        E 0 80 4a 00
        E 0 80 56 00
        E 0 80 62 00
        E 840 90 1f 60
        E 0 90 3e 60
        E 0 90 4a 60
        E 0 90 56 60
        E 0 90 62 60
        E 0 90 74 60
        E 120 80 1f 00
        E 0 80 3e 00
        E 0 80 4a 00
        E 0 80 56 00
        E 0 80 62 00
        E 360 90 1f 60
        E 0 90 3e 60
        E 0 90 4a 60
        E 0 90 56 60
        E 0 90 62 60
        E 120 80 1f 00
        E 0 80 3e 00
        E 0 80 4a 00
        E 0 80 56 00
        E 0 80 62 00
        E 840 90 1f 60
        E 0 90 3e 60
        E 0 90 4a 60
        E 0 90 56 60
        E 0 90 62 60
        E 120 80 1f 00
        E 0 80 3e 00
        E 0 80 4a 00
        E 0 80 56 00
        E 0 80 62 00
        E 360 90 1f 60
        E 0 90 3e 60
        E 0 90 4a 60
        E 0 90 56 60
        E 0 90 62 60
        E 120 80 1f 00
        E 0 80 3e 00
        E 0 80 4a 00
        E 0 80 56 00
        E 0 80 62 00
        E 360 80 74 00
        E 480 90 1f 60
        E 0 90 3e 60
        E 0 90 4a 60
        E 0 90 56 60
        E 0 90 62 60
        E 120 80 1f 00
        E 0 80 3e 00
        E 0 80 4a 00
        E 0 80 56 00
        E 0 80 62 00
        E 360 90 1f 60
        E 0 90 3e 60
        E 0 90 4a 60
        E 0 90 56 60
        E 0 90 62 60
        E 120 80 1f 00
        E 0 80 3e 00
        E 0 80 4a 00
        E 0 80 56 00
        E 0 80 62 00
        E 840 90 1f 60
        E 0 90 3e 60
        E 0 90 4a 60
        E 0 90 56 60
        E 0 90 62 60
        E 120 80 1f 00
        E 0 80 3e 00
        E 0 80 4a 00
        E 0 80 56 00
        E 0 80 62 00
        E 360 90 1f 60
        E 0 90 3e 60
        E 0 90 4a 60
        E 0 90 56 60
        E 0 90 62 60
        E 120 80 1f 00
        E 0 80 3e 00
        E 0 80 4a 00
        E 0 80 56 00
        E 0 80 62 00
        E 840 90 1f 60
        E 0 90 3e 60
        E 0 90 4a 60
        E 0 90 56 60
        E 0 90 62 60
        E 120 80 1f 00
        E 0 80 3e 00
        E 0 80 4a 00
        E 0 80 56 00
        E 0 80 62 00
        E 360 90 1f 60
        E 0 90 3e 60
        E 0 90 4a 60
        E 0 90 56 60
        E 0 90 62 60
        E 120 80 1f 00
        E 0 80 3e 00
        E 0 80 4a 00
        E 0 80 56 00
        E 0 80 62 00
        E 360 90 78 60
        E 0 90 79 60
        E 0 90 7a 60
        E 0 90 7b 60
        E 0 90 7c 60
        E 480 90 1f 60
        E 0 90 3e 60
        E 0 90 4a 60
        E 0 90 56 60
        E 0 90 62 60
        E 120 80 1f 00
        E 0 80 3e 00
        E 0 80 4a 00
        E 0 80 56 00
        E 0 80 62 00
        E 360 90 1f 60
        E 0 90 3e 60
        E 0 90 4a 60
        E 0 90 56 60
        E 0 90 62 60
        E 120 80 1f 00
        E 0 80 3e 00
        E 0 80 4a 00
        E 0 80 56 00
        E 0 80 62 00
        E 360 80 78 00
        E 0 80 79 00
        E 0 80 7a 00
        E 0 80 7b 00
        E 0 80 7c 00
        E 480 90 1f 60
        E 0 90 3e 60
        E 0 90 4a 60
        E 0 90 56 60
        E 0 90 62 60
        E 120 80 1f 00
        E 0 80 3e 00
        E 0 80 4a 00
        E 0 80 56 00
        E 0 80 62 00
        E 360 90 1f 60
        E 0 90 3e 60
        E 0 90 4a 60
        E 0 90 56 60
        E 0 90 62 60
        E 120 80 1f 00
        E 0 80 3e 00
        E 0 80 4a 00
        E 0 80 56 00
        E 0 80 62 00
        E 840 90 1f 60
        E 0 90 3e 60
        E 0 90 4a 60
        E 0 90 56 60
        E 0 90 62 60
        E 120 80 1f 00
        E 0 80 3e 00
        E 0 80 4a 00
        E 0 80 56 00
        E 0 80 62 00
        E 360 90 1f 60
        E 0 90 3e 60
        E 0 90 4a 60
        E 0 90 56 60
        E 0 90 62 60
        E 120 80 1f 00
        E 0 80 3e 00
        E 0 80 4a 00
        E 0 80 56 00
        E 0 80 62 00
        E 360 90 74 60
        E 480 90 1f 60
        E 0 90 3e 60
        E 0 90 4a 60
        E 0 90 56 60
        E 0 90 62 60
        E 120 80 1f 00
        E 0 80 3e 00
        E 0 80 4a 00
        E 0 80 56 00
        E 0 80 62 00
        E 360 90 1f 60
        E 0 90 3e 60
        E 0 90 4a 60
        E 0 90 56 60
        E 0 90 62 60
        E 120 80 1f 00
        E 0 80 3e 00
        E 0 80 4a 00
        E 0 80 56 00
        E 0 80 62 00
        E 840 90 1f 60
        E 0 90 3e 60
        E 0 90 4a 60
        E 0 90 56 60
        E 0 90 62 60
        E 120 80 1f 00
        E 0 80 3e 00
        E 0 80 4a 00
        E 0 80 56 00
        E 0 80 62 00
        E 360 90 1f 60
        E 0 90 3e 60
        E 0 90 4a 60
        E 0 90 56 60
        E 0 90 62 60
        E 120 80 1f 00
        E 0 80 3e 00
        E 0 80 4a 00
        E 0 80 56 00
        E 0 80 62 00
        E 360 80 74 00
        E 480 90 1f 60
        E 0 90 3e 60
        E 0 90 4a 60
        E 0 90 56 60
        E 0 90 62 60
        E 120 80 1f 00
        E 0 80 3e 00
        E 0 80 4a 00
        E 0 80 56 00
        E 0 80 62 00
        E 360 90 1f 60
        E 0 90 3e 60
        E 0 90 4a 60
        E 0 90 56 60
        E 0 90 62 60
        E 120 80 1f 00
        E 0 80 3e 00
        E 0 80 4a 00
        E 0 80 56 00
        E 0 80 62 00
        E 840 90 1f 60
        E 0 90 3e 60
        E 0 90 4a 60
        E 0 90 56 60
        E 0 90 62 60
        E 120 80 1f 00
        E 0 80 3e 00
        E 0 80 4a 00
        E 0 80 56 00
        E 0 80 62 00
        E 360 90 1f 60
        E 0 90 3e 60
        E 0 90 4a 60
        E 0 90 56 60
        E 0 90 62 60
        E 120 80 1f 00
        E 0 80 3e 00
        E 0 80 4a 00
        E 0 80 56 00
        E 0 80 62 00
        E 840 90 1f 60
        E 0 90 3e 60
        E 0 90 4a 60
        E 0 90 56 60
        E 0 90 62 60
        E 120 80 1f 00
        E 0 80 3e 00
        E 0 80 4a 00
        E 0 80 56 00
        E 0 80 62 00
        E 360 90 1f 60
        E 0 90 3e 60
        E 0 90 4a 60
        E 0 90 56 60
        E 0 90 62 60
        E 120 80 1f 00
        E 0 80 3e 00
        E 0 80 4a 00
        E 0 80 56 00
        E 0 80 62 00
        E 360 90 78 60
        E 0 90 79 60
        E 0 90 7a 60
        E 0 90 7b 60
        E 0 90 7c 60
        E 480 90 1f 60
        E 0 90 3e 60
        E 0 90 4a 60
        E 0 90 56 60
        E 0 90 62 60
        E 120 80 1f 00
        E 0 80 3e 00
        E 0 80 4a 00
        E 0 80 56 00
        E 0 80 62 00
        E 360 90 1f 60
        E 0 90 3e 60
        E 0 90 4a 60
        E 0 90 56 60
        E 0 90 62 60
        E 120 80 1f 00
        E 0 80 3e 00
        E 0 80 4a 00
        E 0 80 56 00
        E 0 80 62 00
        E 360 80 78 00
        E 0 80 79 00
        E 0 80 7a 00
        E 0 80 7b 00
        E 0 80 7c 00
        E 480 90 1f 60
        E 0 90 3e 60
        E 0 90 4a 60
        E 0 90 56 60
        E 0 90 62 60
        E 120 80 1f 00
        E 0 80 3e 00
        E 0 80 4a 00
        E 0 80 56 00
        E 0 80 62 00
        E 360 90 1f 60
        E 0 90 3e 60
        E 0 90 4a 60
        E 0 90 56 60
        E 0 90 62 60
        E 120 80 1f 00
        E 0 80 3e 00
        E 0 80 4a 00
        E 0 80 56 00
        E 0 80 62 00
        E 840 90 1f 60
        E 0 90 3e 60
        E 0 90 4a 60
        E 0 90 56 60
        E 0 90 62 60
        E 120 80 1f 00
        E 0 80 3e 00
        E 0 80 4a 00
        E 0 80 56 00
        E 0 80 62 00
        E 360 90 1f 60
        E 0 90 3e 60
        E 0 90 4a 60
        E 0 90 56 60
        E 0 90 62 60
        E 120 80 1f 00
        E 0 80 3e 00
        E 0 80 4a 00
        E 0 80 56 00
        E 0 80 62 00
        E 840 90 1f 60
        E 0 90 3e 60
        E 0 90 4a 60
        E 0 90 56 60
        E 0 90 62 60
        E 120 80 1f 00
        E 0 80 3e 00
        E 0 80 4a 00
        E 0 80 56 00
        E 0 80 62 00
        E 360 90 1f 60
        E 0 90 3e 60
        E 0 90 4a 60
        E 0 90 56 60
        E 0 90 62 60
        E 120 80 1f 00
        E 0 80 3e 00
        E 0 80 4a 00
        E 0 80 56 00
        E 0 80 62 00
        E 360 90 78 60
        E 0 90 79 60
        E 0 90 7a 60
        E 0 90 7b 60
        E 0 90 7c 60
        E 480 90 1f 60
        E 0 90 3e 60
        E 0 90 4a 60
        E 0 90 56 60
        E 0 90 62 60
        E 120 80 1f 00
        E 0 80 3e 00
        E 0 80 4a 00
        E 0 80 56 00
        E 0 80 62 00
        E 360 90 1f 60
        E 0 90 3e 60
        E 0 90 4a 60
        E 0 90 56 60
        E 0 90 62 60
        E 120 80 1f 00
        E 0 80 3e 00
        E 0 80 4a 00
        E 0 80 56 00
        E 0 80 62 00
        E 360 80 78 00
        E 0 80 79 00
        E 0 80 7a 00
        E 0 80 7b 00
        E 0 80 7c 00
        E 480 90 1f 60
        E 0 90 3e 60
        E 0 90 4a 60
        E 0 90 56 60
        E 0 90 62 60
        E 120 80 1f 00
        E 0 80 3e 00
        E 0 80 4a 00
        E 0 80 56 00
        E 0 80 62 00
        E 360 90 1f 60
        E 0 90 3e 60
        E 0 90 4a 60
        E 0 90 56 60
        E 0 90 62 60
        E 120 80 1f 00
        E 0 80 3e 00
        E 0 80 4a 00
        E 0 80 56 00
        E 0 80 62 00
        E 840 90 1f 60
        E 0 90 3e 60
        E 0 90 4a 60
        E 0 90 56 60
        E 0 90 62 60
        E 120 80 1f 00
        E 0 80 3e 00
        E 0 80 4a 00
        E 0 80 56 00
        E 0 80 62 00
        E 360 90 1f 60
        E 0 90 3e 60
        E 0 90 4a 60
        E 0 90 56 60
        E 0 90 62 60
        E 120 80 1f 00
        E 0 80 3e 00
        E 0 80 4a 00
        E 0 80 56 00
        E 0 80 62 00
        E 360 90 74 60
        E 480 90 1f 60
        E 0 90 3e 60
        E 0 90 4a 60
        E 0 90 56 60
        E 0 90 62 60
        E 120 80 1f 00
        E 0 80 3e 00
        E 0 80 4a 00
        E 0 80 56 00
        E 0 80 62 00
        E 360 90 1f 60
        E 0 90 3e 60
        E 0 90 4a 60
        E 0 90 56 60
        E 0 90 62 60
        E 120 80 1f 00
        E 0 80 3e 00
        E 0 80 4a 00
        E 0 80 56 00
        E 0 80 62 00
        E 840 90 1f 60
        E 0 90 3e 60
        E 0 90 4a 60
        E 0 90 56 60
        E 0 90 62 60
        E 120 80 1f 00
        E 0 80 3e 00
        E 0 80 4a 00
        E 0 80 56 00
        E 0 80 62 00
        E 360 90 1f 60
        E 0 90 3e 60
        E 0 90 4a 60
        E 0 90 56 60
        E 0 90 62 60
        E 120 80 1f 00
        E 0 80 3e 00
        E 0 80 4a 00
        E 0 80 56 00
        E 0 80 62 00
        E 360 80 74 00
        E 480 90 1f 60
        E 0 90 3e 60
        E 0 90 4a 60
        E 0 90 56 60
        E 0 90 62 60
        E 120 80 1f 00
        E 0 80 3e 00
        E 0 80 4a 00
        E 0 80 56 00
        E 0 80 62 00
        E 360 90 1f 60
        E 0 90 3e 60
        E 0 90 4a 60
        E 0 90 56 60
        E 0 90 62 60
        E 120 80 1f 00
        E 0 80 3e 00
        E 0 80 4a 00
        E 0 80 56 00
        E 0 80 62 00
        E 840 90 1f 60
        E 0 90 3e 60
        E 0 90 4a 60
        E 0 90 56 60
        E 0 90 62 60
        E 120 80 1f 00
        E 0 80 3e 00
        E 0 80 4a 00
        E 0 80 56 00
        E 0 80 62 00
        E 360 90 1f 60
        E 0 90 3e 60
        E 0 90 4a 60
        E 0 90 56 60
        E 0 90 62 60
        E 120 80 1f 00
        E 0 80 3e 00
        E 0 80 4a 00
        E 0 80 56 00
        E 0 80 62 00
        E 840 90 1f 60
        E 0 90 3e 60
        E 0 90 4a 60
        E 0 90 56 60
        E 0 90 62 60
        E 120 80 1f 00
        E 0 80 3e 00
        E 0 80 4a 00
        E 0 80 56 00
        E 0 80 62 00
        E 360 90 1f 60
        E 0 90 3e 60
        E 0 90 4a 60
        E 0 90 56 60
        E 0 90 62 60
        E 120 80 1f 00
        E 0 80 3e 00
        E 0 80 4a 00
        E 0 80 56 00
        E 0 80 62 00
        E 360 90 78 60
        E 0 90 79 60
        E 0 90 7a 60
        E 0 90 7b 60
        E 0 90 7c 60
        E 480 90 1f 60
        E 0 90 3e 60
        E 0 90 4a 60
        E 0 90 56 60
        E 0 90 62 60
        E 120 80 1f 00
        E 0 80 3e 00
        E 0 80 4a 00
        E 0 80 56 00
        E 0 80 62 00
        E 360 90 1f 60
        E 0 90 3e 60
        E 0 90 4a 60
        E 0 90 56 60
        E 0 90 62 60
        E 120 80 1f 00
        E 0 80 3e 00
        E 0 80 4a 00
        E 0 80 56 00
        E 0 80 62 00
        E 360 80 78 00
        E 0 80 79 00
        E 0 80 7a 00
        E 0 80 7b 00
        E 0 80 7c 00
        E 480 90 1f 60
        E 0 90 3e 60
        E 0 90 4a 60
        E 0 90 56 60
        E 0 90 62 60
        E 120 80 1f 00
        E 0 80 3e 00
        E 0 80 4a 00
        E 0 80 56 00
        E 0 80 62 00
        E 360 90 1f 60
        E 0 90 3e 60
        E 0 90 4a 60
        E 0 90 56 60
        E 0 90 62 60
        E 120 80 1f 00
        E 0 80 3e 00
        E 0 80 4a 00
        E 0 80 56 00
        E 0 80 62 00
        E 840 90 1f 60
        E 0 90 3e 60
        E 0 90 4a 60
        E 0 90 56 60
        E 0 90 62 60
        E 120 80 1f 00
        E 0 80 3e 00
        E 0 80 4a 00
        E 0 80 56 00
        E 0 80 62 00
        E 360 90 1f 60
        E 0 90 3e 60
        E 0 90 4a 60
        E 0 90 56 60
        E 0 90 62 60
        E 120 80 1f 00
        E 0 80 3e 00
        E 0 80 4a 00
        E 0 80 56 00
        E 0 80 62 00
        E 840 90 1f 60
        E 0 90 3e 60
        E 0 90 4a 60
        E 0 90 56 60
        E 0 90 62 60
        E 120 80 1f 00
        E 0 80 3e 00
        E 0 80 4a 00
        E 0 80 56 00
        E 0 80 62 00
        E 360 90 1f 60
        E 0 90 3e 60
        E 0 90 4a 60
        E 0 90 56 60
        E 0 90 62 60
        E 120 80 1f 00
        E 0 80 3e 00
        E 0 80 4a 00
        E 0 80 56 00
        E 0 80 62 00
        E 360 90 78 60
        E 0 90 79 60
        E 0 90 7a 60
        E 0 90 7b 60
        E 0 90 7c 60
        E 480 90 1f 60
        E 0 90 3e 60
        E 0 90 4a 60
        E 0 90 56 60
        E 0 90 62 60
        E 120 80 1f 00
        E 0 80 3e 00
        E 0 80 4a 00
        E 0 80 56 00
        E 0 80 62 00
        E 360 90 1f 60
        E 0 90 3e 60
        E 0 90 4a 60
        E 0 90 56 60
        E 0 90 62 60
        E 120 80 1f 00
        E 0 80 3e 00
        E 0 80 4a 00
        E 0 80 56 00
        E 0 80 62 00
        E 360 80 78 00
        E 0 80 79 00
        E 0 80 7a 00
        E 0 80 7b 00
        E 0 80 7c 00
        E 480 90 1f 60
        E 0 90 3e 60
        E 0 90 4a 60
        E 0 90 56 60
        E 0 90 62 60
        E 120 80 1f 00
        E 0 80 3e 00
        E 0 80 4a 00
        E 0 80 56 00
        E 0 80 62 00
        E 360 90 1f 60
        E 0 90 3e 60
        E 0 90 4a 60
        E 0 90 56 60
        E 0 90 62 60
        E 120 80 1f 00
        E 0 80 3e 00
        E 0 80 4a 00
        E 0 80 56 00
        E 0 80 62 00
        E 360 90 74 60
        E 480 90 1f 60
        E 0 90 3e 60
        E 0 90 4a 60
        E 0 90 56 60
        E 0 90 62 60
        E 120 80 1f 00
        E 0 80 3e 00
        E 0 80 4a 00
        E 0 80 56 00
        E 0 80 62 00
        E 360 90 1f 60
        E 0 90 3e 60
        E 0 90 4a 60
        E 0 90 56 60
        E 0 90 62 60
        E 120 80 1f 00
        E 0 80 3e 00
        E 0 80 4a 00
        E 0 80 56 00
        E 0 80 62 00
        E 360 80 74 00
        E 480 90 1f 60
        E 0 90 3e 60
        E 0 90 4a 60
        E 0 90 56 60
        E 0 90 62 60
        E 120 80 1f 00
        E 0 80 3e 00
        E 0 80 4a 00
        E 0 80 56 00
        E 0 80 62 00
        E 360 90 1f 60
        E 0 90 3e 60
        E 0 90 4a 60
        E 0 90 56 60
        E 0 90 62 60
        E 120 80 1f 00
        E 0 80 3e 00
        E 0 80 4a 00
        E 0 80 56 00
        E 0 80 62 00
        E 360 90 78 60
        E 0 90 79 60
        E 0 90 7a 60
        E 0 90 7b 60
        E 0 90 7c 60
        E 480 90 1f 60
        E 0 90 3e 60
        E 0 90 4a 60
        E 0 90 56 60
        E 0 90 62 60
        E 120 80 1f 00
        E 0 80 3e 00
        E 0 80 4a 00
        E 0 80 56 00
        E 0 80 62 00
        E 360 90 1f 60
        E 0 90 3e 60
        E 0 90 4a 60
        E 0 90 56 60
        E 0 90 62 60
        E 120 80 1f 00
        E 0 80 3e 00
        E 0 80 4a 00
        E 0 80 56 00
        E 0 80 62 00
        E 360 80 78 00
        E 0 80 79 00
        E 0 80 7a 00
        E 0 80 7b 00
        E 0 80 7c 00
        E 480 90 1f 60
        E 0 90 3e 60
        E 0 90 4a 60
        E 0 90 56 60
        E 0 90 62 60
        E 120 80 1f 00
        E 0 80 3e 00
        E 0 80 4a 00
        E 0 80 56 00
        E 0 80 62 00
        E 360 90 1f 60
        E 0 90 3e 60
        E 0 90 4a 60
        E 0 90 56 60
        E 0 90 62 60
        E 120 80 1f 00
        E 0 80 3e 00
        E 0 80 4a 00
        E 0 80 56 00
        E 0 80 62 00
        E 840 90 1f 60
        E 0 90 3e 60
        E 0 90 4a 60
        E 0 90 56 60
        E 0 90 62 60
        E 120 80 1f 00
        E 0 80 3e 00
        E 0 80 4a 00
        E 0 80 56 00
        E 0 80 62 00
        E 360 90 1f 60
        E 0 90 3e 60
        E 0 90 4a 60
        E 0 90 56 60
        E 0 90 62 60
        E 120 80 1f 00
        E 0 80 3e 00
        E 0 80 4a 00
        E 0 80 56 00
        E 0 80 62 00
        E 840 90 1f 60
        E 0 90 3e 60
        E 0 90 4a 60
        E 0 90 56 60
        E 0 90 62 60
        E 120 80 1f 00
        E 0 80 3e 00
        E 0 80 4a 00
        E 0 80 56 00
        E 0 80 62 00
        E 360 90 1f 60
        E 0 90 3e 60
        E 0 90 4a 60
        E 0 90 56 60
        E 0 90 62 60
        E 120 80 1f 00
        E 0 80 3e 00
        E 0 80 4a 00
        E 0 80 56 00
        E 0 80 62 00
        E 360 90 78 60
        E 0 90 79 60
        E 0 90 7a 60
        E 0 90 7b 60
        E 0 90 7c 60
        E 480 90 1f 60
        E 0 90 3e 60
        E 0 90 4a 60
        E 0 90 56 60
        E 0 90 62 60
        E 120 80 1f 00
        E 0 80 3e 00
        E 0 80 4a 00
        E 0 80 56 00
        E 0 80 62 00
        E 360 90 1f 60
        E 0 90 3e 60
        E 0 90 4a 60
        E 0 90 56 60
        E 0 90 62 60
        E 120 80 1f 00
        E 0 80 3e 00
        E 0 80 4a 00
        E 0 80 56 00
        E 0 80 62 00
        E 360 80 78 00
        E 0 80 79 00
        E 0 80 7a 00
        E 0 80 7b 00
        E 0 80 7c 00
        E 480 90 1f 60
        E 0 90 3e 60
        E 0 90 4a 60
        E 0 90 56 60
        E 0 90 62 60
        E 120 80 1f 00
        E 0 80 3e 00
        E 0 80 4a 00
        E 0 80 56 00
        E 0 80 62 00
        E 360 90 1f 60
        E 0 90 3e 60
        E 0 90 4a 60
        E 0 90 56 60
        E 0 90 62 60
        E 120 80 1f 00
        E 0 80 3e 00
        E 0 80 4a 00
        E 0 80 56 00
        E 0 80 62 00
        E 840 90 1f 60
        E 0 90 3e 60
        E 0 90 4a 60
        E 0 90 56 60
        E 0 90 62 60
        E 120 80 1f 00
        E 0 80 3e 00
        E 0 80 4a 00
        E 0 80 56 00
        E 0 80 62 00
        E 360 90 1f 60
        E 0 90 3e 60
        E 0 90 4a 60
        E 0 90 56 60
        E 0 90 62 60
        E 120 80 1f 00
        E 0 80 3e 00
        E 0 80 4a 00
        E 0 80 56 00
        E 0 80 62 00
        E 840 90 1f 60
        E 0 90 3e 60
        E 0 90 4a 60
        E 0 90 56 60
        E 0 90 62 60
        E 120 80 1f 00
        E 0 80 3e 00
        E 0 80 4a 00
        E 0 80 56 00
        E 0 80 62 00
        E 360 90 1f 60
        E 0 90 3e 60
        E 0 90 4a 60
        E 0 90 56 60
        E 0 90 62 60
        E 120 80 1f 00
        E 0 80 3e 00
        E 0 80 4a 00
        E 0 80 56 00
        E 0 80 62 00
        E 840 90 1f 60
        E 0 90 3e 60
        E 0 90 4a 60
        E 0 90 56 60
        E 0 90 62 60
        E 120 80 1f 00
        E 0 80 3e 00
        E 0 80 4a 00
        E 0 80 56 00
        E 0 80 62 00
        E 360 90 1f 60
        E 0 90 3e 60
        E 0 90 4a 60
        E 0 90 56 60
        E 0 90 62 60
        E 120 80 1f 00
        E 0 80 3e 00
        E 0 80 4a 00
        E 0 80 56 00
        E 0 80 62 00
        <X 480 0
          /wFbaWRsZV9yZWFsdGltZV0=
        >
        E 2760 b0 7b 00
        GUID {28F085CF-0C7B-411F-9C55-3C38418D2CAC}
        IGNTEMPO 0 120.00000000 4 4
        SRCCOLOR 1
        VELLANE 132 128 60
        COLORMAP "C:\Program Files\REAPER (x64)\Data\color_maps\rockband_guitarbass.png"
        CFGEDITVIEW -4906.620390 10.271117 0 14 0 0 0
        CFGEDIT 1 1 0 1 1 0 1 1 1 1 1 0.25000000 -8 -8 1544 872 0 2 1 1 0.00000000 0 1 0 0 0.500000 0 0 1.000000 64
        KEYSNAP 0 6 "102030050700" 0 "Pentatonic"
        EVTFILTER 0 -1 -1 -1 -1 0 1 0 0 -1.00000000 -1.00000000
      >
    >
  >
  <TRACK '{9F2B56BA-C86F-4C1D-ADDC-AEB8AD326C0F}'
    NAME "drums"
    PEAKCOL 16576
    BEAT -1
    AUTOMODE 0
    VOLPAN 1.00000000000000 0.00000000000000 -1.00000000000000 -1.00000000000000 1.00000000000000
    MUTESOLO 0 0 0
    IPHASE 0
    ISBUS 2 -1
    BUSCOMP 0 0
    SHOWINMIX 1 0.666700 0.500000 1 0.500000 -1 -1 -1
    FREEMODE 0
    SEL 0
    REC 0 0 0 0 0 0 0
    VU 2
    TRACKHEIGHT 0 0
    INQ 0 0 0 0.5000000000 100 0 0 100
    NCHAN 2
    FX 1
    TRACKID {9F2B56BA-C86F-4C1D-ADDC-AEB8AD326C0F}
    PERF 0
    MIDIOUT -1
    MAINSEND 1 0
    <ITEM
      POSITION 0.00000000000000
      SNAPOFFS 0.00000000000000
      LENGTH 122.40857142857143
      LOOP 0
      ALLTAKES 0
      SEL 0
      FADEIN 1 0.000000 0.000000 1 0
      FADEOUT 1 0.000000 0.000000 1 0
      MUTE 0
      IGUID {0AE08C18-1143-4882-ADD6-51E4A0436EDD}
      IID 18
      NAME "drums.wav"
      VOLPAN 1.000000 0.000000 1.000000 -1.000000
      SOFFS 0.00000000000000
      PLAYRATE 1.00000000000000 1 0.00000000000000 -1
      CHANMODE 0
      GUID {F3D33847-FA7F-45BE-9278-835CC0B31334}
      <SOURCE WAVE
        FILE "wav\drums.wav"
      >
    >
  >
  <TRACK '{D4DADF1C-EE2F-4A84-AAA4-3CBB44FB702B}'
    NAME "PART BASS"
    PEAKCOL 16576
    BEAT -1
    AUTOMODE 0
    VOLPAN 1.00000000000000 0.00000000000000 -1.00000000000000 -1.00000000000000 1.00000000000000
    MUTESOLO 0 0 0
    IPHASE 0
    ISBUS 1 1
    BUSCOMP 0 0
    SHOWINMIX 1 0.666700 0.500000 1 0.500000 -1 -1 -1
    FREEMODE 0
    SEL 0
    REC 0 0 0 0 0 0 0
    VU 2
    TRACKHEIGHT 0 0
    INQ 0 0 0 0.5000000000 100 0 0 100
    NCHAN 2
    FX 1
    TRACKID {D4DADF1C-EE2F-4A84-AAA4-3CBB44FB702B}
    PERF 0
    MIDIOUT -1
    <MIDINOTENAMES
      0 127 "TRILL MARKER"
      0 126 "TREMOLO MARKER"
      0 125 "---"
      0 124 "BRE"
      0 123 "BRE"
      0 122 "BRE"
      0 121 "BRE"
      0 120 "BRE (use all 5)"
      0 119 "----"
      0 116 "OVERDRIVE"
      0 115 "----"
      0 103 "Solo Marker"
      0 102 "Force HOPO Off"
      0 101 "Force HOPO On"
      0 100 "EXPERT Orange"
      0 99 "EXPERT Blue"
      0 98 "EXPERT Yellow"
      0 97 "EXPERT Red"
      0 96 "EXPERT Green"
      0 95 "----"
      0 90 "Force HOPO Off"
      0 89 "Force HOPO On"
      0 88 "HARD Orange"
      0 87 "HARD Blue"
      0 86 "HARD Yellow"
      0 85 "HARD Red"
      0 84 "HARD Green"
      0 77 "----"
      0 76 "MEDIUM Orange"
      0 75 "MEDIUM Blue"
      0 74 "MEDIUM Yellow"
      0 73 "MEDIUM Red"
      0 72 "MEDIUM Green"
      0 65 "----"
      0 64 "EASY Orange"
      0 63 "EASY Blue"
      0 62 "EASY Yellow"
      0 61 "EASY Red"
      0 60 "EASY Green"
      0 59 "Fret 12"
      0 57 "Fret 11"
      0 56 "Fret 10"
      0 55 "Fret 9"
      0 53 "Fret 8"
      0 52 "Fret 7"
      0 50 "Fret 6"
      0 49 "Fret 5"
      0 47 "Fret 4"
      0 45 "Fret 3"
      0 43 "Fret 2"
      0 40 "Fret 1"
    >
    MAINSEND 1 0
    <FXCHAIN
      WNDRECT 0 43 891 559
      SHOW 0
      LASTSEL 0
      DOCKED 0
      BYPASS 0 0
      <VST "VSTi: RBN Preview (RBN)" "rbprev_vst64.dll" 0 ""
        dnBicu5e7f4AAAAAAgAAAAEAAAAAAAAAAgAAAAAAAAAEAAAAAQAAAA==
        AAAQAAAAqgAAABAAAAA=
      >
      FLOATPOS 0 0 0 0
      FXID {B7CA8692-D579-44AA-AC25-268A1C011EF3}
      WAK 0
    >
    <ITEM
      POSITION 0.00000000000000
      SNAPOFFS 0.00000000000000
      LENGTH 122.40856859980200
      LOOP 0
      ALLTAKES 0
      SEL 0
      FADEIN 1 0.000000 0.000000 1 0
      FADEOUT 1 0.000000 0.000000 1 0
      MUTE 0
      IGUID {2FEE781E-887A-4D52-9AA2-C803061863DC}
      IID 11
      NAME "PART BASS"
      VOLPAN 1.000000 0.000000 1.000000 -1.000000
      SOFFS 0.00000000000000 0.00000000000000
      PLAYRATE 1.00000000000000 1 0.00000000000000 -1
      CHANMODE 0
      GUID {F845F9FC-90EC-487C-A1E9-632BE768E12C}
      <SOURCE MIDI
        HASDATA 1 480 QN
        POOLEDEVTS {A59DB885-9001-4C29-AE2A-91BB8D3ACA68}
        <X 0 0
          /wNQQVJUIEJBU1M=
        >
        <X 2880 0
          /wFbbWVsbG93XQ==
        >
        E 0 90 3d 60
        E 0 90 49 60
        E 0 90 55 60
        E 0 90 61 60
        E 120 80 3d 00
        E 0 80 49 00
        E 240 80 55 00
        E 0 80 61 00
        E 120 90 4b 60
        E 0 90 57 60
        E 0 90 63 60
        E 120 80 4b 00
        E 240 80 57 00
        E 0 80 63 00
        E 120 90 3e 60
        E 0 90 4b 60
        E 0 90 58 60
        E 0 90 64 60
        E 120 80 3e 00
        E 0 80 4b 00
        E 240 80 58 00
        E 0 80 64 00
        E 120 90 3c 60
        E 0 90 48 60
        E 0 90 54 60
        E 0 90 60 60
        E 120 80 3c 00
        E 0 80 48 00
        E 240 80 54 00
        E 0 80 60 00
        E 120 90 49 60
        E 0 90 55 60
        E 0 90 61 60
        E 120 80 49 00
        E 240 80 55 00
        E 0 80 61 00
        E 120 90 4b 60
        E 0 90 57 60
        E 0 90 63 60
        E 120 80 4b 00
        E 240 80 57 00
        E 0 80 63 00
        E 120 90 3d 60
        E 0 90 49 60
        E 0 90 55 60
        E 0 90 61 60
        E 120 80 3d 00
        E 0 80 49 00
        E 240 80 55 00
        E 0 80 61 00
        E 120 90 4b 60
        E 0 90 57 60
        E 0 90 63 60
        E 120 80 4b 00
        E 240 80 57 00
        E 0 80 63 00
        E 120 90 3e 60
        E 0 90 4b 60
        E 0 90 58 60
        E 0 90 64 60
        E 120 80 3e 00
        E 0 80 4b 00
        E 240 80 58 00
        E 0 80 64 00
        E 120 90 3c 60
        E 0 90 48 60
        E 0 90 54 60
        E 0 90 60 60
        E 120 80 3c 00
        E 0 80 48 00
        E 240 80 54 00
        E 0 80 60 00
        E 120 90 49 60
        E 0 90 55 60
        E 0 90 61 60
        E 120 80 49 00
        E 240 80 55 00
        E 0 80 61 00
        E 120 90 4b 60
        E 0 90 57 60
        E 0 90 63 60
        E 120 80 4b 00
        E 240 80 57 00
        E 0 80 63 00
        E 120 90 3d 60
        E 0 90 49 60
        E 0 90 55 60
        E 0 90 61 60
        E 120 80 3d 00
        E 0 80 49 00
        E 240 80 55 00
        E 0 80 61 00
        E 120 90 4b 60
        E 0 90 57 60
        E 0 90 63 60
        E 120 80 4b 00
        E 240 80 57 00
        E 0 80 63 00
        E 120 90 3e 60
        E 0 90 4b 60
        E 0 90 58 60
        E 0 90 64 60
        E 120 80 3e 00
        E 0 80 4b 00
        E 240 80 58 00
        E 0 80 64 00
        E 120 90 3c 60
        E 0 90 48 60
        E 0 90 54 60
        E 0 90 60 60
        E 120 80 3c 00
        E 0 80 48 00
        E 240 80 54 00
        E 0 80 60 00
        E 120 90 49 60
        E 0 90 55 60
        E 0 90 61 60
        E 120 80 49 00
        E 240 80 55 00
        E 0 80 61 00
        E 120 90 4b 60
        E 0 90 57 60
        E 0 90 63 60
        E 120 80 4b 00
        E 240 80 57 00
        E 0 80 63 00
        E 120 90 3d 60
        E 0 90 49 60
        E 0 90 55 60
        E 0 90 61 60
        E 120 80 3d 00
        E 0 80 49 00
        E 240 80 55 00
        E 0 80 61 00
        E 120 90 4b 60
        E 0 90 57 60
        E 0 90 63 60
        E 120 80 4b 00
        E 240 80 57 00
        E 0 80 63 00
        E 120 90 3e 60
        E 0 90 4b 60
        E 0 90 58 60
        E 0 90 64 60
        E 120 80 3e 00
        E 0 80 4b 00
        E 240 80 58 00
        E 0 80 64 00
        E 120 90 3c 60
        E 0 90 48 60
        E 0 90 54 60
        E 0 90 60 60
        E 120 80 3c 00
        E 0 80 48 00
        E 240 80 54 00
        E 0 80 60 00
        E 120 90 49 60
        E 0 90 55 60
        E 0 90 61 60
        E 120 80 49 00
        E 240 80 55 00
        E 0 80 61 00
        E 120 90 4b 60
        E 0 90 57 60
        E 0 90 63 60
        E 120 80 4b 00
        E 240 80 57 00
        E 0 80 63 00
        E 120 90 3e 60
        E 0 90 4a 60
        E 0 90 56 60
        E 0 90 62 60
        E 0 90 74 60
        E 120 80 3e 00
        E 0 80 4a 00
        E 240 80 56 00
        E 0 80 62 00
        E 120 90 4b 60
        E 0 90 57 60
        E 0 90 63 60
        E 120 80 4b 00
        E 240 80 57 00
        E 0 80 63 00
        E 120 90 3e 60
        E 0 90 4b 60
        E 0 90 58 60
        E 0 90 64 60
        E 120 80 3e 00
        E 0 80 4b 00
        E 240 80 58 00
        E 0 80 64 00
        E 120 90 3d 60
        E 0 90 49 60
        E 0 90 55 60
        E 0 90 61 60
        E 120 80 3d 00
        E 0 80 49 00
        E 240 80 55 00
        E 0 80 61 00
        E 120 90 4a 60
        E 0 90 56 60
        E 0 90 62 60
        E 120 80 4a 00
        E 240 80 56 00
        E 0 80 62 00
        E 120 90 4b 60
        E 0 90 58 60
        E 0 90 64 60
        E 120 80 4b 00
        E 240 80 58 00
        E 0 80 64 00
        E 120 80 74 00
        E 0 90 3e 60
        E 0 90 4a 60
        E 0 90 56 60
        E 0 90 62 60
        E 120 80 3e 00
        E 0 80 4a 00
        E 240 80 56 00
        E 0 80 62 00
        E 120 90 4b 60
        E 0 90 57 60
        E 0 90 63 60
        E 120 80 4b 00
        E 240 80 57 00
        E 0 80 63 00
        E 120 90 3e 60
        E 0 90 4b 60
        E 0 90 58 60
        E 0 90 64 60
        E 120 80 3e 00
        E 0 80 4b 00
        E 240 80 58 00
        E 0 80 64 00
        E 120 90 3d 60
        E 0 90 49 60
        E 0 90 55 60
        E 0 90 61 60
        E 120 80 3d 00
        E 0 80 49 00
        E 240 80 55 00
        E 0 80 61 00
        E 120 90 4a 60
        E 0 90 56 60
        E 0 90 62 60
        E 120 80 4a 00
        E 240 80 56 00
        E 0 80 62 00
        E 120 90 4b 60
        E 0 90 58 60
        E 0 90 64 60
        E 120 80 4b 00
        E 240 80 58 00
        E 0 80 64 00
        E 120 90 3e 60
        E 0 90 4a 60
        E 0 90 56 60
        E 0 90 62 60
        E 120 80 3e 00
        E 0 80 4a 00
        E 240 80 56 00
        E 0 80 62 00
        E 120 90 4b 60
        E 0 90 57 60
        E 0 90 63 60
        E 120 80 4b 00
        E 240 80 57 00
        E 0 80 63 00
        E 120 90 3e 60
        E 0 90 4b 60
        E 0 90 58 60
        E 0 90 64 60
        E 120 80 3e 00
        E 0 80 4b 00
        E 240 80 58 00
        E 0 80 64 00
        E 120 90 3d 60
        E 0 90 49 60
        E 0 90 55 60
        E 0 90 61 60
        E 120 80 3d 00
        E 0 80 49 00
        E 240 80 55 00
        E 0 80 61 00
        E 120 90 4a 60
        E 0 90 56 60
        E 0 90 62 60
        E 120 80 4a 00
        E 240 80 56 00
        E 0 80 62 00
        E 120 90 3e 60
        E 0 90 4b 60
        E 0 90 58 60
        E 0 90 64 60
        E 120 80 3e 00
        E 0 80 4b 00
        E 240 80 58 00
        E 0 80 64 00
        E 120 90 3e 60
        E 0 90 4b 60
        E 0 90 57 60
        E 0 90 63 60
        E 120 80 3e 00
        E 0 80 4b 00
        E 240 80 57 00
        E 0 80 63 00
        E 120 90 49 60
        E 0 90 55 60
        E 0 90 61 60
        E 120 80 49 00
        E 240 80 55 00
        E 0 80 61 00
        E 120 90 3c 60
        E 0 90 48 60
        E 0 90 54 60
        E 0 90 60 60
        E 120 80 3c 00
        E 0 80 48 00
        E 240 80 54 00
        E 0 80 60 00
        E 120 90 3e 60
        E 0 90 4a 60
        E 0 90 56 60
        E 0 90 62 60
        E 960 80 3e 00
        E 0 80 4a 00
        E 360 80 56 00
        E 0 80 62 00
        E 120 90 3d 60
        E 0 90 49 60
        E 0 90 55 60
        E 0 90 61 60
        E 0 90 74 60
        E 120 80 3d 00
        E 0 80 49 00
        E 240 80 55 00
        E 0 80 61 00
        E 120 90 4b 60
        E 0 90 57 60
        E 0 90 63 60
        E 120 80 4b 00
        E 239 80 57 00
        E 0 80 63 00
        E 121 90 3e 60
        E 0 90 4b 60
        E 0 90 58 60
        E 0 90 64 60
        E 120 80 3e 00
        E 0 80 4b 00
        E 240 80 58 00
        E 0 80 64 00
        E 120 90 3c 60
        E 0 90 48 60
        E 0 90 54 60
        E 0 90 60 60
        E 120 80 3c 00
        E 0 80 48 00
        E 240 80 54 00
        E 0 80 60 00
        E 120 90 49 60
        E 0 90 55 60
        E 0 90 61 60
        E 120 80 49 00
        E 240 80 55 00
        E 0 80 61 00
        E 120 90 4b 60
        E 0 90 57 60
        E 0 90 63 60
        E 120 80 4b 00
        E 240 80 57 00
        E 0 80 63 00
        E 120 80 74 00
        E 0 90 3d 60
        E 0 90 49 60
        E 0 90 55 60
        E 0 90 61 60
        E 120 80 3d 00
        E 0 80 49 00
        E 240 80 55 00
        E 0 80 61 00
        E 120 90 4b 60
        E 0 90 57 60
        E 0 90 63 60
        E 120 80 4b 00
        E 240 80 57 00
        E 0 80 63 00
        E 120 90 3e 60
        E 0 90 4b 60
        E 0 90 58 60
        E 0 90 64 60
        E 120 80 3e 00
        E 0 80 4b 00
        E 240 80 58 00
        E 0 80 64 00
        E 120 90 3c 60
        E 0 90 48 60
        E 0 90 54 60
        E 0 90 60 60
        E 120 80 3c 00
        E 0 80 48 00
        E 240 80 54 00
        E 0 80 60 00
        E 120 90 49 60
        E 0 90 55 60
        E 0 90 61 60
        E 120 80 49 00
        E 240 80 55 00
        E 0 80 61 00
        E 120 90 4b 60
        E 0 90 57 60
        E 0 90 63 60
        E 120 80 4b 00
        E 240 80 57 00
        E 0 80 63 00
        E 120 90 3d 60
        E 0 90 49 60
        E 0 90 55 60
        E 0 90 61 60
        E 120 80 3d 00
        E 0 80 49 00
        E 240 80 55 00
        E 0 80 61 00
        E 120 90 4b 60
        E 0 90 57 60
        E 0 90 63 60
        E 120 80 4b 00
        E 240 80 57 00
        E 0 80 63 00
        E 120 90 3e 60
        E 0 90 4b 60
        E 0 90 58 60
        E 0 90 64 60
        E 120 80 3e 00
        E 0 80 4b 00
        E 240 80 58 00
        E 0 80 64 00
        E 120 90 3c 60
        E 0 90 48 60
        E 0 90 54 60
        E 0 90 60 60
        E 120 80 3c 00
        E 0 80 48 00
        E 240 80 54 00
        E 0 80 60 00
        E 120 90 49 60
        E 0 90 55 60
        E 0 90 61 60
        E 120 80 49 00
        E 240 80 55 00
        E 0 80 61 00
        E 120 90 4b 60
        E 0 90 57 60
        E 0 90 63 60
        E 120 80 4b 00
        E 240 80 57 00
        E 0 80 63 00
        E 120 90 3d 60
        E 0 90 49 60
        E 0 90 55 60
        E 0 90 61 60
        E 120 80 3d 00
        E 0 80 49 00
        E 240 80 55 00
        E 0 80 61 00
        E 120 90 4b 60
        E 0 90 57 60
        E 0 90 63 60
        E 120 80 4b 00
        E 240 80 57 00
        E 0 80 63 00
        E 120 90 3e 60
        E 0 90 4b 60
        E 0 90 58 60
        E 0 90 64 60
        E 120 80 3e 00
        E 0 80 4b 00
        E 240 80 58 00
        E 0 80 64 00
        E 120 90 3c 60
        E 0 90 48 60
        E 0 90 54 60
        E 0 90 60 60
        E 120 80 3c 00
        E 0 80 48 00
        E 239 80 54 00
        E 0 80 60 00
        E 121 90 49 60
        E 0 90 55 60
        E 0 90 61 60
        E 120 80 49 00
        E 240 80 55 00
        E 0 80 61 00
        E 120 90 4b 60
        E 0 90 57 60
        E 0 90 63 60
        E 120 80 4b 00
        E 240 80 57 00
        E 0 80 63 00
        E 120 90 3e 60
        E 0 90 4a 60
        E 0 90 56 60
        E 0 90 62 60
        E 120 80 3e 00
        E 0 80 4a 00
        E 239 80 56 00
        E 1 80 62 00
        E 119 90 4b 60
        E 0 90 57 60
        E 0 90 63 60
        E 120 80 4b 00
        E 241 80 57 00
        E 0 80 63 00
        E 120 90 3e 60
        E 0 90 4b 60
        E 0 90 58 60
        E 0 90 64 60
        E 120 80 3e 00
        E 0 80 4b 00
        E 240 80 58 00
        E 0 80 64 00
        E 120 90 3d 60
        E 0 90 49 60
        E 0 90 55 60
        E 0 90 61 60
        E 120 80 3d 00
        E 0 80 49 00
        E 239 80 55 00
        E 0 80 61 00
        E 121 90 4a 60
        E 0 90 56 60
        E 0 90 62 60
        E 120 80 4a 00
        E 240 80 56 00
        E 0 80 62 00
        E 120 90 4b 60
        E 0 90 58 60
        E 0 90 64 60
        E 120 80 4b 00
        E 240 80 58 00
        E 0 80 64 00
        E 120 90 3e 60
        E 0 90 4a 60
        E 0 90 56 60
        E 0 90 62 60
        E 120 80 3e 00
        E 0 80 4a 00
        E 240 80 56 00
        E 0 80 62 00
        E 120 90 4b 60
        E 0 90 57 60
        E 0 90 63 60
        E 120 80 4b 00
        E 240 80 57 00
        E 0 80 63 00
        E 120 90 3e 60
        E 0 90 4b 60
        E 0 90 58 60
        E 0 90 64 60
        E 120 80 3e 00
        E 0 80 4b 00
        E 240 80 58 00
        E 0 80 64 00
        E 120 90 3d 60
        E 0 90 49 60
        E 0 90 55 60
        E 0 90 61 60
        E 120 80 3d 00
        E 0 80 49 00
        E 240 80 55 00
        E 0 80 61 00
        E 120 90 4a 60
        E 0 90 56 60
        E 0 90 62 60
        E 120 80 4a 00
        E 240 80 56 00
        E 0 80 62 00
        E 120 90 4b 60
        E 0 90 58 60
        E 0 90 64 60
        E 120 80 4b 00
        E 240 80 58 00
        E 0 80 64 00
        E 120 90 3e 60
        E 0 90 4a 60
        E 0 90 56 60
        E 0 90 62 60
        E 120 80 3e 00
        E 0 80 4a 00
        E 240 80 56 00
        E 0 80 62 00
        E 120 90 4b 60
        E 0 90 57 60
        E 0 90 63 60
        E 120 80 4b 00
        E 240 80 57 00
        E 0 80 63 00
        E 120 90 3e 60
        E 0 90 4b 60
        E 0 90 58 60
        E 0 90 64 60
        E 120 80 3e 00
        E 0 80 4b 00
        E 240 80 58 00
        E 0 80 64 00
        E 120 90 3d 60
        E 0 90 49 60
        E 0 90 55 60
        E 0 90 61 60
        E 120 80 3d 00
        E 0 80 49 00
        E 240 80 55 00
        E 0 80 61 00
        E 120 90 4a 60
        E 0 90 56 60
        E 0 90 62 60
        E 120 80 4a 00
        E 240 80 56 00
        E 0 80 62 00
        E 120 90 3e 60
        E 0 90 4b 60
        E 0 90 58 60
        E 0 90 64 60
        E 120 80 3e 00
        E 0 80 4b 00
        E 240 80 58 00
        E 0 80 64 00
        E 120 90 3e 60
        E 0 90 4b 60
        E 0 90 57 60
        E 0 90 63 60
        E 0 90 74 60
        E 120 80 3e 00
        E 0 80 4b 00
        E 240 80 57 00
        E 0 80 63 00
        E 120 90 49 60
        E 0 90 55 60
        E 0 90 61 60
        E 120 80 49 00
        E 240 80 55 00
        E 0 80 61 00
        E 120 90 3c 60
        E 0 90 48 60
        E 0 90 54 60
        E 0 90 60 60
        E 120 80 3c 00
        E 0 80 48 00
        E 240 80 54 00
        E 0 80 60 00
        E 120 90 3e 60
        E 0 90 4a 60
        E 0 90 56 60
        E 0 90 62 60
        E 960 80 3e 00
        E 0 80 4a 00
        E 360 80 56 00
        E 0 80 62 00
        E 120 80 74 00
        E 0 90 3d 60
        E 0 90 49 60
        E 0 90 55 60
        E 0 90 61 60
        E 120 80 3d 00
        E 0 80 49 00
        E 240 80 55 00
        E 0 80 61 00
        E 120 90 4b 60
        E 0 90 57 60
        E 0 90 63 60
        E 120 80 4b 00
        E 239 80 57 00
        E 0 80 63 00
        E 121 90 3e 60
        E 0 90 4b 60
        E 0 90 58 60
        E 0 90 64 60
        E 120 80 3e 00
        E 0 80 4b 00
        E 240 80 58 00
        E 0 80 64 00
        E 120 90 3c 60
        E 0 90 48 60
        E 0 90 54 60
        E 0 90 60 60
        E 120 80 3c 00
        E 0 80 48 00
        E 240 80 54 00
        E 0 80 60 00
        E 120 90 49 60
        E 0 90 55 60
        E 0 90 61 60
        E 120 80 49 00
        E 240 80 55 00
        E 0 80 61 00
        E 120 90 4b 60
        E 0 90 57 60
        E 0 90 63 60
        E 120 80 4b 00
        E 240 80 57 00
        E 0 80 63 00
        E 120 90 3d 60
        E 0 90 49 60
        E 0 90 55 60
        E 0 90 61 60
        E 120 80 3d 00
        E 0 80 49 00
        E 240 80 55 00
        E 0 80 61 00
        E 120 90 4b 60
        E 0 90 57 60
        E 0 90 63 60
        E 120 80 4b 00
        E 240 80 57 00
        E 0 80 63 00
        E 120 90 3e 60
        E 0 90 4b 60
        E 0 90 58 60
        E 0 90 64 60
        E 120 80 3e 00
        E 0 80 4b 00
        E 240 80 58 00
        E 0 80 64 00
        E 120 90 3c 60
        E 0 90 48 60
        E 0 90 54 60
        E 0 90 60 60
        E 120 80 3c 00
        E 0 80 48 00
        E 240 80 54 00
        E 0 80 60 00
        E 120 90 49 60
        E 0 90 55 60
        E 0 90 61 60
        E 120 80 49 00
        E 240 80 55 00
        E 0 80 61 00
        E 120 90 4b 60
        E 0 90 57 60
        E 0 90 63 60
        E 120 80 4b 00
        E 240 80 57 00
        E 0 80 63 00
        E 120 90 3d 60
        E 0 90 49 60
        E 0 90 55 60
        E 0 90 61 60
        E 120 80 3d 00
        E 0 80 49 00
        E 240 80 55 00
        E 0 80 61 00
        E 120 90 4b 60
        E 0 90 57 60
        E 0 90 63 60
        E 120 80 4b 00
        E 240 80 57 00
        E 0 80 63 00
        E 120 90 3e 60
        E 0 90 4b 60
        E 0 90 58 60
        E 0 90 64 60
        E 120 80 3e 00
        E 0 80 4b 00
        E 240 80 58 00
        E 0 80 64 00
        E 120 90 3c 60
        E 0 90 48 60
        E 0 90 54 60
        E 0 90 60 60
        E 120 80 3c 00
        E 0 80 48 00
        E 240 80 54 00
        E 0 80 60 00
        E 120 90 49 60
        E 0 90 55 60
        E 0 90 61 60
        E 120 80 49 00
        E 240 80 55 00
        E 0 80 61 00
        E 120 90 4b 60
        E 0 90 57 60
        E 0 90 63 60
        E 120 80 4b 00
        E 240 80 57 00
        E 0 80 63 00
        E 120 90 3d 60
        E 0 90 49 60
        E 0 90 55 60
        E 0 90 61 60
        E 0 90 74 60
        E 120 80 3d 00
        E 0 80 49 00
        E 240 80 55 00
        E 0 80 61 00
        E 120 90 4b 60
        E 0 90 57 60
        E 0 90 63 60
        E 120 80 4b 00
        E 240 80 57 00
        E 0 80 63 00
        E 120 90 3e 60
        E 0 90 4b 60
        E 0 90 58 60
        E 0 90 64 60
        E 120 80 3e 00
        E 0 80 4b 00
        E 240 80 58 00
        E 0 80 64 00
        E 120 90 3c 60
        E 0 90 48 60
        E 0 90 54 60
        E 0 90 60 60
        E 120 80 3c 00
        E 0 80 48 00
        E 239 80 54 00
        E 0 80 60 00
        E 121 90 49 60
        E 0 90 55 60
        E 0 90 61 60
        E 120 80 49 00
        E 240 80 55 00
        E 0 80 61 00
        E 120 90 4b 60
        E 0 90 57 60
        E 0 90 63 60
        E 120 80 4b 00
        E 240 80 57 00
        E 0 80 63 00
        E 120 80 74 00
        E 0 90 3e 60
        E 0 90 4a 60
        E 0 90 56 60
        E 0 90 62 60
        E 120 80 3e 00
        E 0 80 4a 00
        E 239 80 56 00
        E 1 80 62 00
        E 119 90 4b 60
        E 0 90 57 60
        E 0 90 63 60
        E 120 80 4b 00
        E 241 80 57 00
        E 0 80 63 00
        E 120 90 3e 60
        E 0 90 4b 60
        E 0 90 58 60
        E 0 90 64 60
        E 120 80 3e 00
        E 0 80 4b 00
        E 240 80 58 00
        E 0 80 64 00
        E 120 90 3d 60
        E 0 90 49 60
        E 0 90 55 60
        E 0 90 61 60
        E 120 80 3d 00
        E 0 80 49 00
        E 239 80 55 00
        E 0 80 61 00
        E 121 90 4a 60
        E 0 90 56 60
        E 0 90 62 60
        E 120 80 4a 00
        E 240 80 56 00
        E 0 80 62 00
        E 120 90 4b 60
        E 0 90 58 60
        E 0 90 64 60
        E 120 80 4b 00
        E 240 80 58 00
        E 0 80 64 00
        E 120 90 3e 60
        E 0 90 4a 60
        E 0 90 56 60
        E 0 90 62 60
        E 120 80 3e 00
        E 0 80 4a 00
        E 240 80 56 00
        E 0 80 62 00
        E 120 90 4b 60
        E 0 90 57 60
        E 0 90 63 60
        E 120 80 4b 00
        E 240 80 57 00
        E 0 80 63 00
        E 120 90 3e 60
        E 0 90 4b 60
        E 0 90 58 60
        E 0 90 64 60
        E 120 80 3e 00
        E 0 80 4b 00
        E 240 80 58 00
        E 0 80 64 00
        E 120 90 3d 60
        E 0 90 49 60
        E 0 90 55 60
        E 0 90 61 60
        E 120 80 3d 00
        E 0 80 49 00
        E 240 80 55 00
        E 0 80 61 00
        E 120 90 4a 60
        E 0 90 56 60
        E 0 90 62 60
        E 120 80 4a 00
        E 240 80 56 00
        E 0 80 62 00
        E 120 90 4b 60
        E 0 90 58 60
        E 0 90 64 60
        E 120 80 4b 00
        E 240 80 58 00
        E 0 80 64 00
        E 120 90 3e 60
        E 0 90 4a 60
        E 0 90 56 60
        E 0 90 62 60
        E 120 80 3e 00
        E 0 80 4a 00
        E 240 80 56 00
        E 0 80 62 00
        E 120 90 4b 60
        E 0 90 57 60
        E 0 90 63 60
        E 120 80 4b 00
        E 240 80 57 00
        E 0 80 63 00
        E 120 90 3e 60
        E 0 90 4b 60
        E 0 90 58 60
        E 0 90 64 60
        E 120 80 3e 00
        E 0 80 4b 00
        E 240 80 58 00
        E 0 80 64 00
        E 120 90 3d 60
        E 0 90 49 60
        E 0 90 55 60
        E 0 90 61 60
        E 120 80 3d 00
        E 0 80 49 00
        E 240 80 55 00
        E 0 80 61 00
        E 120 90 4a 60
        E 0 90 56 60
        E 0 90 62 60
        E 120 80 4a 00
        E 240 80 56 00
        E 0 80 62 00
        E 120 90 3e 60
        E 0 90 4b 60
        E 0 90 58 60
        E 0 90 64 60
        E 120 80 3e 00
        E 0 80 4b 00
        E 240 80 58 00
        E 0 80 64 00
        E 120 90 3e 60
        E 0 90 4b 60
        E 0 90 57 60
        E 0 90 63 60
        E 120 80 3e 00
        E 0 80 4b 00
        E 240 80 57 00
        E 0 80 63 00
        E 120 90 49 60
        E 0 90 55 60
        E 0 90 61 60
        E 120 80 49 00
        E 240 80 55 00
        E 0 80 61 00
        E 120 90 3c 60
        E 0 90 48 60
        E 0 90 54 60
        E 0 90 60 60
        E 120 80 3c 00
        E 0 80 48 00
        E 240 80 54 00
        E 0 80 60 00
        E 120 90 3e 60
        E 0 90 4a 60
        E 0 90 56 60
        E 0 90 62 60
        E 960 80 3e 00
        E 0 80 4a 00
        E 360 80 56 00
        E 0 80 62 00
        E 120 90 3d 60
        E 0 90 49 60
        E 0 90 55 60
        E 0 90 61 60
        E 120 80 3d 00
        E 0 80 49 00
        E 240 80 55 00
        E 0 80 61 00
        E 120 90 4b 60
        E 0 90 57 60
        E 0 90 63 60
        E 120 80 4b 00
        E 239 80 57 00
        E 0 80 63 00
        E 121 90 3e 60
        E 0 90 4b 60
        E 0 90 58 60
        E 0 90 64 60
        E 120 80 3e 00
        E 0 80 4b 00
        E 240 80 58 00
        E 0 80 64 00
        E 120 90 3c 60
        E 0 90 48 60
        E 0 90 54 60
        E 0 90 60 60
        E 120 80 3c 00
        E 0 80 48 00
        E 240 80 54 00
        E 0 80 60 00
        E 120 90 49 60
        E 0 90 55 60
        E 0 90 61 60
        E 120 80 49 00
        E 240 80 55 00
        E 0 80 61 00
        E 120 90 4b 60
        E 0 90 57 60
        E 0 90 63 60
        E 120 80 4b 00
        E 240 80 57 00
        E 0 80 63 00
        E 120 90 3d 60
        E 0 90 49 60
        E 0 90 55 60
        E 0 90 61 60
        E 0 90 74 60
        E 120 80 3d 00
        E 0 80 49 00
        E 240 80 55 00
        E 0 80 61 00
        E 120 90 4b 60
        E 0 90 57 60
        E 0 90 63 60
        E 120 80 4b 00
        E 240 80 57 00
        E 0 80 63 00
        E 120 90 3e 60
        E 0 90 4b 60
        E 0 90 58 60
        E 0 90 64 60
        E 120 80 3e 00
        E 0 80 4b 00
        E 240 80 58 00
        E 0 80 64 00
        E 120 90 3c 60
        E 0 90 48 60
        E 0 90 54 60
        E 0 90 60 60
        E 120 80 3c 00
        E 0 80 48 00
        E 240 80 54 00
        E 0 80 60 00
        E 120 90 49 60
        E 0 90 55 60
        E 0 90 61 60
        E 120 80 49 00
        E 240 80 55 00
        E 0 80 61 00
        E 120 90 4b 60
        E 0 90 57 60
        E 0 90 63 60
        E 120 80 4b 00
        E 240 80 57 00
        E 0 80 63 00
        E 120 80 74 00
        E 0 90 3d 60
        E 0 90 49 60
        E 0 90 55 60
        E 0 90 61 60
        E 120 80 3d 00
        E 0 80 49 00
        E 240 80 55 00
        E 0 80 61 00
        E 120 90 4b 60
        E 0 90 57 60
        E 0 90 63 60
        E 120 80 4b 00
        E 240 80 57 00
        E 0 80 63 00
        E 120 90 3e 60
        E 0 90 4b 60
        E 0 90 58 60
        E 0 90 64 60
        E 120 80 3e 00
        E 0 80 4b 00
        E 240 80 58 00
        E 0 80 64 00
        E 120 90 3c 60
        E 0 90 48 60
        E 0 90 54 60
        E 0 90 60 60
        E 120 80 3c 00
        E 0 80 48 00
        E 240 80 54 00
        E 0 80 60 00
        E 120 90 49 60
        E 0 90 55 60
        E 0 90 61 60
        E 120 80 49 00
        E 240 80 55 00
        E 0 80 61 00
        E 120 90 4b 60
        E 0 90 57 60
        E 0 90 63 60
        E 120 80 4b 00
        E 240 80 57 00
        E 0 80 63 00
        E 120 90 3d 60
        E 0 90 49 60
        E 0 90 55 60
        E 0 90 61 60
        E 120 80 3d 00
        E 0 80 49 00
        E 240 80 55 00
        E 0 80 61 00
        E 120 90 4b 60
        E 0 90 57 60
        E 0 90 63 60
        E 120 80 4b 00
        E 240 80 57 00
        E 0 80 63 00
        E 120 90 3e 60
        E 0 90 4b 60
        E 0 90 58 60
        E 0 90 64 60
        E 120 80 3e 00
        E 0 80 4b 00
        E 240 80 58 00
        E 0 80 64 00
        E 120 90 3c 60
        E 0 90 48 60
        E 0 90 54 60
        E 0 90 60 60
        E 120 80 3c 00
        E 0 80 48 00
        E 239 80 54 00
        E 0 80 60 00
        E 121 90 49 60
        E 0 90 55 60
        E 0 90 61 60
        E 120 80 49 00
        E 240 80 55 00
        E 0 80 61 00
        E 120 90 4b 60
        E 0 90 57 60
        E 0 90 63 60
        E 120 80 4b 00
        E 240 80 57 00
        E 0 80 63 00
        E 120 90 3e 60
        E 0 90 4a 60
        E 0 90 56 60
        E 0 90 62 60
        E 120 80 3e 00
        E 0 80 4a 00
        E 239 80 56 00
        E 1 80 62 00
        E 119 90 4b 60
        E 0 90 57 60
        E 0 90 63 60
        E 120 80 4b 00
        E 241 80 57 00
        E 0 80 63 00
        E 120 90 3e 60
        E 0 90 4b 60
        E 0 90 58 60
        E 0 90 64 60
        E 120 80 3e 00
        E 0 80 4b 00
        E 240 80 58 00
        E 0 80 64 00
        E 120 90 3d 60
        E 0 90 49 60
        E 0 90 55 60
        E 0 90 61 60
        E 120 80 3d 00
        E 0 80 49 00
        E 239 80 55 00
        E 0 80 61 00
        E 121 90 4a 60
        E 0 90 56 60
        E 0 90 62 60
        E 120 80 4a 00
        E 240 80 56 00
        E 0 80 62 00
        E 120 90 4b 60
        E 0 90 58 60
        E 0 90 64 60
        E 120 80 4b 00
        E 240 80 58 00
        E 0 80 64 00
        E 120 90 3e 60
        E 0 90 4a 60
        E 0 90 56 60
        E 0 90 62 60
        E 120 80 3e 00
        E 0 80 4a 00
        E 240 80 56 00
        E 0 80 62 00
        E 120 90 4b 60
        E 0 90 57 60
        E 0 90 63 60
        E 120 80 4b 00
        E 240 80 57 00
        E 0 80 63 00
        E 120 90 3e 60
        E 0 90 4b 60
        E 0 90 58 60
        E 0 90 64 60
        E 120 80 3e 00
        E 0 80 4b 00
        E 240 80 58 00
        E 0 80 64 00
        E 120 90 3d 60
        E 0 90 49 60
        E 0 90 55 60
        E 0 90 61 60
        E 120 80 3d 00
        E 0 80 49 00
        E 240 80 55 00
        E 0 80 61 00
        E 120 90 4a 60
        E 0 90 56 60
        E 0 90 62 60
        E 120 80 4a 00
        E 240 80 56 00
        E 0 80 62 00
        E 120 90 4b 60
        E 0 90 58 60
        E 0 90 64 60
        E 120 80 4b 00
        E 240 80 58 00
        E 0 80 64 00
        E 120 90 3e 60
        E 0 90 4a 60
        E 0 90 56 60
        E 0 90 62 60
        E 120 80 3e 00
        E 0 80 4a 00
        E 240 80 56 00
        E 0 80 62 00
        E 120 90 4b 60
        E 0 90 57 60
        E 0 90 63 60
        E 120 80 4b 00
        E 240 80 57 00
        E 0 80 63 00
        E 120 90 3e 60
        E 0 90 4b 60
        E 0 90 58 60
        E 0 90 64 60
        E 120 80 3e 00
        E 0 80 4b 00
        E 240 80 58 00
        E 0 80 64 00
        E 120 90 3d 60
        E 0 90 49 60
        E 0 90 55 60
        E 0 90 61 60
        E 120 80 3d 00
        E 0 80 49 00
        E 240 80 55 00
        E 0 80 61 00
        E 120 90 4a 60
        E 0 90 56 60
        E 0 90 62 60
        E 120 80 4a 00
        E 240 80 56 00
        E 0 80 62 00
        E 120 90 3e 60
        E 0 90 4b 60
        E 0 90 58 60
        E 0 90 64 60
        E 120 80 3e 00
        E 0 80 4b 00
        E 240 80 58 00
        E 0 80 64 00
        E 120 90 3e 60
        E 0 90 4b 60
        E 0 90 57 60
        E 0 90 63 60
        E 120 80 3e 00
        E 0 80 4b 00
        E 240 80 57 00
        E 0 80 63 00
        E 120 90 49 60
        E 0 90 55 60
        E 0 90 61 60
        E 120 80 49 00
        E 240 80 55 00
        E 0 80 61 00
        E 120 90 3c 60
        E 0 90 48 60
        E 0 90 54 60
        E 0 90 60 60
        E 120 80 3c 00
        E 0 80 48 00
        E 240 80 54 00
        E 0 80 60 00
        E 120 90 3e 60
        E 0 90 4a 60
        E 0 90 56 60
        E 0 90 62 60
        E 1440 80 3e 00
        E 0 80 4a 00
        E 0 80 56 00
        E 0 80 62 00
        <X 480 0
          /wFbaWRsZV9yZWFsdGltZV0=
        >
        E 2400 b0 7b 00
        GUID {BB80A23D-B3F1-482B-A0A2-DAD966C5A883}
        IGNTEMPO 0 120.00000000 4 4
        SRCCOLOR 6
        VELLANE 132 128 60
        COLORMAP "C:\Program Files\REAPER (x64)\Data\color_maps\rockband_guitarbass.png"
        CFGEDITVIEW -4906.620390 10.271117 0 14 0 0 0
        CFGEDIT 1 1 0 1 1 0 1 1 1 1 1 0.25000000 -8 -8 1544 872 0 2 1 1 0.00000000 0 1 0 0 0.500000 0 0 1.000000 64
        KEYSNAP 0 6 "102030050700" 0 "Pentatonic"
        EVTFILTER 0 -1 -1 -1 -1 0 1 0 0 -1.00000000 -1.00000000
      >
    >
  >
  <TRACK '{B0DC64FA-3786-4545-9BC5-1EE2F509FF06}'
    NAME "bass"
    PEAKCOL 16576
    BEAT -1
    AUTOMODE 0
    VOLPAN 1.00000000000000 0.00000000000000 -1.00000000000000 -1.00000000000000 1.00000000000000
    MUTESOLO 0 0 0
    IPHASE 0
    ISBUS 2 -1
    BUSCOMP 0 0
    SHOWINMIX 1 0.666700 0.500000 1 0.500000 -1 -1 -1
    FREEMODE 0
    SEL 0
    REC 0 0 0 0 0 0 0
    VU 2
    TRACKHEIGHT 0 0
    INQ 0 0 0 0.5000000000 100 0 0 100
    NCHAN 2
    FX 1
    TRACKID {B0DC64FA-3786-4545-9BC5-1EE2F509FF06}
    PERF 0
    MIDIOUT -1
    MAINSEND 1 0
    <ITEM
      POSITION 0.00000000000000
      SNAPOFFS 0.00000000000000
      LENGTH 122.40857142857143
      LOOP 0
      ALLTAKES 0
      SEL 0
      FADEIN 1 0.000000 0.000000 1 0
      FADEOUT 1 0.000000 0.000000 1 0
      MUTE 0
      IGUID {320D0C3E-93AF-40B6-9A46-7DBA0F2C7529}
      IID 17
      NAME "bass.wav"
      VOLPAN 1.000000 0.000000 1.000000 -1.000000
      SOFFS 0.00000000000000
      PLAYRATE 1.00000000000000 1 0.00000000000000 -1
      CHANMODE 0
      GUID {1EC5A6BE-468A-49E1-85A4-CC0C5F7E1906}
      <SOURCE WAVE
        FILE "wav\bass.wav"
      >
    >
  >
  <TRACK '{090A17ED-28FB-4EF0-902B-B773657176AF}'
    NAME "PART GUITAR"
    PEAKCOL 16576
    BEAT -1
    AUTOMODE 0
    VOLPAN 1.00000000000000 0.00000000000000 -1.00000000000000 -1.00000000000000 1.00000000000000
    MUTESOLO 0 0 0
    IPHASE 0
    ISBUS 1 1
    BUSCOMP 0 0
    SHOWINMIX 1 0.666700 0.500000 1 0.500000 -1 -1 -1
    FREEMODE 0
    SEL 0
    REC 0 0 0 0 0 0 0
    VU 2
    TRACKHEIGHT 0 0
    INQ 0 0 0 0.5000000000 100 0 0 100
    NCHAN 2
    FX 1
    TRACKID {090A17ED-28FB-4EF0-902B-B773657176AF}
    PERF 0
    MIDIOUT -1
    <MIDINOTENAMES
      0 127 "TRILL MARKER"
      0 126 "TREMOLO MARKER"
      0 125 "---"
      0 124 "BRE"
      0 123 "BRE"
      0 122 "BRE"
      0 121 "BRE"
      0 120 "BRE (use all 5)"
      0 119 "----"
      0 116 "OVERDRIVE"
      0 115 "----"
      0 103 "Solo Marker"
      0 102 "Force HOPO Off"
      0 101 "Force HOPO On"
      0 100 "EXPERT Orange"
      0 99 "EXPERT Blue"
      0 98 "EXPERT Yellow"
      0 97 "EXPERT Red"
      0 96 "EXPERT Green"
      0 95 "----"
      0 90 "Force HOPO Off"
      0 89 "Force HOPO On"
      0 88 "HARD Orange"
      0 87 "HARD Blue"
      0 86 "HARD Yellow"
      0 85 "HARD Red"
      0 84 "HARD Green"
      0 77 "----"
      0 76 "MEDIUM Orange"
      0 75 "MEDIUM Blue"
      0 74 "MEDIUM Yellow"
      0 73 "MEDIUM Red"
      0 72 "MEDIUM Green"
      0 65 "----"
      0 64 "EASY Orange"
      0 63 "EASY Blue"
      0 62 "EASY Yellow"
      0 61 "EASY Red"
      0 60 "EASY Green"
      0 59 "Fret 12"
      0 57 "Fret 11"
      0 56 "Fret 10"
      0 55 "Fret 9"
      0 53 "Fret 8"
      0 52 "Fret 7"
      0 50 "Fret 6"
      0 49 "Fret 5"
      0 47 "Fret 4"
      0 45 "Fret 3"
      0 43 "Fret 2"
      0 40 "Fret 1"
    >
    MAINSEND 1 0
    <FXCHAIN
      WNDRECT 0 43 891 559
      SHOW 0
      LASTSEL 0
      DOCKED 0
      BYPASS 0 0
      <VST "VSTi: RBN Preview (RBN)" "rbprev_vst64.dll" 0 ""
        dnBicu5e7f4AAAAAAgAAAAEAAAAAAAAAAgAAAAAAAAAEAAAAAQAAAA==
        AAAQAAMAqgAAABAAAAA=
      >
      FLOATPOS 0 0 0 0
      FXID {6CEC2694-FB11-45DA-9946-C5F4AB8AFD33}
      WAK 0
    >
    <ITEM
      POSITION 0.00000000000000
      SNAPOFFS 0.00000000000000
      LENGTH 122.40856859980200
      LOOP 0
      ALLTAKES 0
      SEL 0
      FADEIN 1 0.000000 0.000000 1 0
      FADEOUT 1 0.000000 0.000000 1 0
      MUTE 0
      IGUID {A8E74386-CB0A-4F45-BF36-51A01ED6CD6B}
      IID 12
      NAME "PART GUITAR"
      VOLPAN 1.000000 0.000000 1.000000 -1.000000
      SOFFS 0.00000000000000 0.00000000000000
      PLAYRATE 1.00000000000000 1 0.00000000000000 -1
      CHANMODE 0
      GUID {BCA495B5-067F-4F76-ACCB-D524157D6B3E}
      <SOURCE MIDI
        HASDATA 1 480 QN
        POOLEDEVTS {CC51E171-04CC-4869-A5EE-A8F00F84F961}
        <X 0 0
          /wNQQVJUIEdVSVRBUg==
        >
        <X 2880 0
          /wFbbWVsbG93XQ==
        >
        E 0 90 3e 60
        E 0 90 4b 60
        E 0 90 58 60
        E 0 90 64 60
        E 120 80 3e 00
        E 0 80 4b 00
        E 0 80 58 00
        E 0 80 64 00
        E 1320 90 3d 60
        E 0 90 4a 60
        E 0 90 56 60
        E 0 90 62 60
        E 120 80 3d 00
        E 0 80 4a 00
        E 0 80 56 00
        E 0 80 62 00
        E 840 90 49 60
        E 0 90 55 60
        E 0 90 61 60
        E 120 80 49 00
        E 0 80 55 00
        E 0 80 61 00
        E 360 90 3e 60
        E 0 90 4b 60
        E 0 90 58 60
        E 0 90 64 60
        E 120 80 3e 00
        E 0 80 4b 00
        E 0 80 58 00
        E 0 80 64 00
        E 1320 90 3d 60
        E 0 90 4a 60
        E 0 90 56 60
        E 0 90 62 60
        E 120 80 3d 00
        E 0 80 4a 00
        E 0 80 56 00
        E 0 80 62 00
        E 1320 90 3e 60
        E 0 90 4b 60
        E 0 90 58 60
        E 0 90 64 60
        E 120 80 3e 00
        E 0 80 4b 00
        E 0 80 58 00
        E 0 80 64 00
        E 1320 90 3d 60
        E 0 90 4a 60
        E 0 90 56 60
        E 0 90 62 60
        E 120 80 3d 00
        E 0 80 4a 00
        E 0 80 56 00
        E 0 80 62 00
        E 840 90 49 60
        E 0 90 55 60
        E 0 90 61 60
        E 120 80 49 00
        E 0 80 55 00
        E 0 80 61 00
        E 360 90 3e 60
        E 0 90 4b 60
        E 0 90 58 60
        E 0 90 64 60
        E 120 80 3e 00
        E 0 80 4b 00
        E 0 80 58 00
        E 0 80 64 00
        E 1320 90 3d 60
        E 0 90 4a 60
        E 0 90 56 60
        E 0 90 62 60
        E 120 80 3d 00
        E 0 80 4a 00
        E 0 80 56 00
        E 0 80 62 00
        E 1320 90 3e 60
        E 0 90 4b 60
        E 0 90 57 60
        E 0 90 63 60
        E 120 80 3e 00
        E 0 80 4b 00
        E 240 80 57 00
        E 0 80 63 00
        E 120 90 48 60
        E 0 90 54 60
        E 0 90 60 60
        E 120 80 48 00
        E 240 80 54 00
        E 0 80 60 00
        E 120 90 3e 60
        E 0 90 4b 60
        E 0 90 57 60
        E 0 90 63 60
        E 120 80 3e 00
        E 0 80 4b 00
        E 240 80 57 00
        E 0 80 63 00
        E 120 90 3d 60
        E 0 90 4a 60
        E 0 90 56 60
        E 0 90 62 60
        E 960 80 3d 00
        E 0 80 4a 00
        E 360 80 56 00
        E 0 80 62 00
        E 120 90 3e 60
        E 0 90 4b 60
        E 0 90 57 60
        E 0 90 63 60
        E 0 90 74 60
        E 120 80 3e 00
        E 0 80 4b 00
        E 240 80 57 00
        E 0 80 63 00
        E 120 90 48 60
        E 0 90 54 60
        E 0 90 60 60
        E 120 80 48 00
        E 240 80 54 00
        E 0 80 60 00
        E 120 90 3e 60
        E 0 90 4b 60
        E 0 90 57 60
        E 0 90 63 60
        E 120 80 3e 00
        E 0 80 4b 00
        E 240 80 57 00
        E 0 80 63 00
        E 120 90 3d 60
        E 0 90 4a 60
        E 0 90 56 60
        E 0 90 62 60
        E 960 80 3d 00
        E 0 80 4a 00
        E 360 80 56 00
        E 0 80 62 00
        E 120 80 74 00
        E 0 90 3e 60
        E 0 90 4b 60
        E 0 90 57 60
        E 0 90 63 60
        E 120 80 3e 00
        E 0 80 4b 00
        E 240 80 57 00
        E 0 80 63 00
        E 120 90 48 60
        E 0 90 54 60
        E 0 90 60 60
        E 120 80 48 00
        E 240 80 54 00
        E 0 80 60 00
        E 120 90 3e 60
        E 0 90 4b 60
        E 0 90 57 60
        E 0 90 63 60
        E 120 80 3e 00
        E 0 80 4b 00
        E 240 80 57 00
        E 0 80 63 00
        E 120 90 3d 60
        E 0 90 4a 60
        E 0 90 56 60
        E 0 90 62 60
        E 960 80 3d 00
        E 0 80 4a 00
        E 360 80 56 00
        E 0 80 62 00
        E 120 90 3c 60
        E 0 90 48 60
        E 0 90 54 60
        E 0 90 60 60
        E 120 80 3c 00
        E 0 80 48 00
        E 240 80 54 00
        E 0 80 60 00
        E 120 90 49 60
        E 0 90 55 60
        E 0 90 61 60
        E 120 80 49 00
        E 240 80 55 00
        E 0 80 61 00
        E 120 90 3d 60
        E 0 90 4a 60
        E 0 90 56 60
        E 0 90 62 60
        E 120 80 3d 00
        E 0 80 4a 00
        E 240 80 56 00
        E 0 80 62 00
        E 120 90 3e 60
        E 0 90 4b 60
        E 0 90 57 60
        E 0 90 63 60
        E 960 80 3e 00
        E 0 80 4b 00
        E 360 80 57 00
        E 0 80 63 00
        E 120 90 3e 60
        E 0 90 4b 60
        E 0 90 58 60
        E 0 90 64 60
        E 120 80 3e 00
        E 0 80 4b 00
        E 0 80 58 00
        E 0 80 64 00
        E 1320 90 3d 60
        E 0 90 4a 60
        E 0 90 56 60
        E 0 90 62 60
        E 120 80 3d 00
        E 0 80 4a 00
        E 0 80 56 00
        E 0 80 62 00
        E 840 90 49 60
        E 0 90 55 60
        E 0 90 61 60
        E 120 80 49 00
        E 0 80 55 00
        E 0 80 61 00
        E 360 90 3e 60
        E 0 90 4b 60
        E 0 90 58 60
        E 0 90 64 60
        E 120 80 3e 00
        E 0 80 4b 00
        E 0 80 58 00
        E 0 80 64 00
        E 1320 90 3d 60
        E 0 90 4a 60
        E 0 90 56 60
        E 0 90 62 60
        E 120 80 3d 00
        E 0 80 4a 00
        E 0 80 56 00
        E 0 80 62 00
        E 1320 90 3e 60
        E 0 90 4b 60
        E 0 90 58 60
        E 0 90 64 60
        E 120 80 3e 00
        E 0 80 4b 00
        E 0 80 58 00
        E 0 80 64 00
        E 1320 90 3d 60
        E 0 90 4a 60
        E 0 90 56 60
        E 0 90 62 60
        E 0 90 74 60
        E 120 80 3d 00
        E 0 80 4a 00
        E 0 80 56 00
        E 0 80 62 00
        E 840 90 49 60
        E 0 90 55 60
        E 0 90 61 60
        E 120 80 49 00
        E 0 80 55 00
        E 0 80 61 00
        E 360 90 3e 60
        E 0 90 4b 60
        E 0 90 58 60
        E 0 90 64 60
        E 120 80 74 00
        E 0 80 3e 00
        E 0 80 4b 00
        E 0 80 58 00
        E 0 80 64 00
        E 1320 90 3d 60
        E 0 90 4a 60
        E 0 90 56 60
        E 0 90 62 60
        E 120 80 3d 00
        E 0 80 4a 00
        E 0 80 56 00
        E 0 80 62 00
        E 1320 90 3e 60
        E 0 90 4b 60
        E 0 90 57 60
        E 0 90 63 60
        E 120 80 3e 00
        E 0 80 4b 00
        E 240 80 57 00
        E 0 80 63 00
        E 120 90 48 60
        E 0 90 54 60
        E 0 90 60 60
        E 120 80 48 00
        E 240 80 54 00
        E 0 80 60 00
        E 120 90 3e 60
        E 0 90 4b 60
        E 0 90 57 60
        E 0 90 63 60
        E 120 80 3e 00
        E 0 80 4b 00
        E 240 80 57 00
        E 0 80 63 00
        E 120 90 3d 60
        E 0 90 4a 60
        E 0 90 56 60
        E 0 90 62 60
        E 960 80 3d 00
        E 0 80 4a 00
        E 360 80 56 00
        E 0 80 62 00
        E 120 90 3e 60
        E 0 90 4b 60
        E 0 90 57 60
        E 0 90 63 60
        E 120 80 3e 00
        E 0 80 4b 00
        E 240 80 57 00
        E 0 80 63 00
        E 120 90 48 60
        E 0 90 54 60
        E 0 90 60 60
        E 120 80 48 00
        E 240 80 54 00
        E 0 80 60 00
        E 120 90 3e 60
        E 0 90 4b 60
        E 0 90 57 60
        E 0 90 63 60
        E 120 80 3e 00
        E 0 80 4b 00
        E 240 80 57 00
        E 0 80 63 00
        E 120 90 3d 60
        E 0 90 4a 60
        E 0 90 56 60
        E 0 90 62 60
        E 960 80 3d 00
        E 0 80 4a 00
        E 360 80 56 00
        E 0 80 62 00
        E 120 90 3e 60
        E 0 90 4b 60
        E 0 90 57 60
        E 0 90 63 60
        E 120 80 3e 00
        E 0 80 4b 00
        E 240 80 57 00
        E 0 80 63 00
        E 120 90 48 60
        E 0 90 54 60
        E 0 90 60 60
        E 120 80 48 00
        E 240 80 54 00
        E 0 80 60 00
        E 120 90 3e 60
        E 0 90 4b 60
        E 0 90 57 60
        E 0 90 63 60
        E 120 80 3e 00
        E 0 80 4b 00
        E 240 80 57 00
        E 0 80 63 00
        E 120 90 3d 60
        E 0 90 4a 60
        E 0 90 56 60
        E 0 90 62 60
        E 960 80 3d 00
        E 0 80 4a 00
        E 360 80 56 00
        E 0 80 62 00
        E 120 90 3c 60
        E 0 90 48 60
        E 0 90 54 60
        E 0 90 60 60
        E 0 90 74 60
        E 120 80 3c 00
        E 0 80 48 00
        E 240 80 54 00
        E 0 80 60 00
        E 120 90 49 60
        E 0 90 55 60
        E 0 90 61 60
        E 120 80 49 00
        E 240 80 55 00
        E 0 80 61 00
        E 120 90 3d 60
        E 0 90 4a 60
        E 0 90 56 60
        E 0 90 62 60
        E 120 80 3d 00
        E 0 80 4a 00
        E 240 80 56 00
        E 0 80 62 00
        E 120 90 3e 60
        E 0 90 4b 60
        E 0 90 57 60
        E 0 90 63 60
        E 960 80 3e 00
        E 0 80 4b 00
        E 360 80 57 00
        E 0 80 63 00
        E 120 80 74 00
        E 0 90 3e 60
        E 0 90 4b 60
        E 0 90 58 60
        E 0 90 64 60
        E 120 80 3e 00
        E 0 80 4b 00
        E 0 80 58 00
        E 0 80 64 00
        E 1320 90 3d 60
        E 0 90 4a 60
        E 0 90 56 60
        E 0 90 62 60
        E 120 80 3d 00
        E 0 80 4a 00
        E 0 80 56 00
        E 0 80 62 00
        E 840 90 49 60
        E 0 90 55 60
        E 0 90 61 60
        E 120 80 49 00
        E 0 80 55 00
        E 0 80 61 00
        E 360 90 3e 60
        E 0 90 4b 60
        E 0 90 58 60
        E 0 90 64 60
        E 120 80 3e 00
        E 0 80 4b 00
        E 0 80 58 00
        E 0 80 64 00
        E 1320 90 3d 60
        E 0 90 4a 60
        E 0 90 56 60
        E 0 90 62 60
        E 120 80 3d 00
        E 0 80 4a 00
        E 0 80 56 00
        E 0 80 62 00
        E 1320 90 3e 60
        E 0 90 4b 60
        E 0 90 58 60
        E 0 90 64 60
        E 120 80 3e 00
        E 0 80 4b 00
        E 0 80 58 00
        E 0 80 64 00
        E 1320 90 3d 60
        E 0 90 4a 60
        E 0 90 56 60
        E 0 90 62 60
        E 120 80 3d 00
        E 0 80 4a 00
        E 0 80 56 00
        E 0 80 62 00
        E 840 90 49 60
        E 0 90 55 60
        E 0 90 61 60
        E 120 80 49 00
        E 0 80 55 00
        E 0 80 61 00
        E 360 90 3e 60
        E 0 90 4b 60
        E 0 90 58 60
        E 0 90 64 60
        E 120 80 3e 00
        E 0 80 4b 00
        E 0 80 58 00
        E 0 80 64 00
        E 1320 90 3d 60
        E 0 90 4a 60
        E 0 90 56 60
        E 0 90 62 60
        E 120 80 3d 00
        E 0 80 4a 00
        E 0 80 56 00
        E 0 80 62 00
        E 1320 90 3e 60
        E 0 90 4b 60
        E 0 90 57 60
        E 0 90 63 60
        E 0 90 74 60
        E 120 80 3e 00
        E 0 80 4b 00
        E 240 80 57 00
        E 0 80 63 00
        E 120 90 48 60
        E 0 90 54 60
        E 0 90 60 60
        E 120 80 48 00
        E 240 80 54 00
        E 0 80 60 00
        E 120 90 3e 60
        E 0 90 4b 60
        E 0 90 57 60
        E 0 90 63 60
        E 120 80 3e 00
        E 0 80 4b 00
        E 240 80 57 00
        E 0 80 63 00
        E 120 90 3d 60
        E 0 90 4a 60
        E 0 90 56 60
        E 0 90 62 60
        E 960 80 3d 00
        E 0 80 4a 00
        E 360 80 56 00
        E 0 80 62 00
        E 120 80 74 00
        E 0 90 3e 60
        E 0 90 4b 60
        E 0 90 57 60
        E 0 90 63 60
        E 120 80 3e 00
        E 0 80 4b 00
        E 240 80 57 00
        E 0 80 63 00
        E 120 90 48 60
        E 0 90 54 60
        E 0 90 60 60
        E 120 80 48 00
        E 240 80 54 00
        E 0 80 60 00
        E 120 90 3e 60
        E 0 90 4b 60
        E 0 90 57 60
        E 0 90 63 60
        E 120 80 3e 00
        E 0 80 4b 00
        E 240 80 57 00
        E 0 80 63 00
        E 120 90 3d 60
        E 0 90 4a 60
        E 0 90 56 60
        E 0 90 62 60
        E 960 80 3d 00
        E 0 80 4a 00
        E 360 80 56 00
        E 0 80 62 00
        E 120 90 3e 60
        E 0 90 4b 60
        E 0 90 57 60
        E 0 90 63 60
        E 120 80 3e 00
        E 0 80 4b 00
        E 240 80 57 00
        E 0 80 63 00
        E 120 90 48 60
        E 0 90 54 60
        E 0 90 60 60
        E 120 80 48 00
        E 240 80 54 00
        E 0 80 60 00
        E 120 90 3e 60
        E 0 90 4b 60
        E 0 90 57 60
        E 0 90 63 60
        E 120 80 3e 00
        E 0 80 4b 00
        E 240 80 57 00
        E 0 80 63 00
        E 120 90 3d 60
        E 0 90 4a 60
        E 0 90 56 60
        E 0 90 62 60
        E 960 80 3d 00
        E 0 80 4a 00
        E 360 80 56 00
        E 0 80 62 00
        E 120 90 3c 60
        E 0 90 48 60
        E 0 90 54 60
        E 0 90 60 60
        E 120 80 3c 00
        E 0 80 48 00
        E 240 80 54 00
        E 0 80 60 00
        E 120 90 49 60
        E 0 90 55 60
        E 0 90 61 60
        E 120 80 49 00
        E 240 80 55 00
        E 0 80 61 00
        E 120 90 3d 60
        E 0 90 4a 60
        E 0 90 56 60
        E 0 90 62 60
        E 120 80 3d 00
        E 0 80 4a 00
        E 240 80 56 00
        E 0 80 62 00
        E 120 90 3e 60
        E 0 90 4b 60
        E 0 90 57 60
        E 0 90 63 60
        E 960 80 3e 00
        E 0 80 4b 00
        E 360 80 57 00
        E 0 80 63 00
        E 120 90 3e 60
        E 0 90 4b 60
        E 0 90 58 60
        E 0 90 64 60
        E 120 80 3e 00
        E 0 80 4b 00
        E 0 80 58 00
        E 0 80 64 00
        E 1320 90 3d 60
        E 0 90 4a 60
        E 0 90 56 60
        E 0 90 62 60
        E 120 80 3d 00
        E 0 80 4a 00
        E 0 80 56 00
        E 0 80 62 00
        E 840 90 49 60
        E 0 90 55 60
        E 0 90 61 60
        E 120 80 49 00
        E 0 80 55 00
        E 0 80 61 00
        E 360 90 3e 60
        E 0 90 4b 60
        E 0 90 58 60
        E 0 90 64 60
        E 120 80 3e 00
        E 0 80 4b 00
        E 0 80 58 00
        E 0 80 64 00
        E 1320 90 3d 60
        E 0 90 4a 60
        E 0 90 56 60
        E 0 90 62 60
        E 120 80 3d 00
        E 0 80 4a 00
        E 0 80 56 00
        E 0 80 62 00
        E 1320 90 3e 60
        E 0 90 4b 60
        E 0 90 58 60
        E 0 90 64 60
        E 120 80 3e 00
        E 0 80 4b 00
        E 0 80 58 00
        E 0 80 64 00
        E 1320 90 3d 60
        E 0 90 4a 60
        E 0 90 56 60
        E 0 90 62 60
        E 120 80 3d 00
        E 0 80 4a 00
        E 0 80 56 00
        E 0 80 62 00
        E 840 90 49 60
        E 0 90 55 60
        E 0 90 61 60
        E 120 80 49 00
        E 0 80 55 00
        E 0 80 61 00
        E 360 90 3e 60
        E 0 90 4b 60
        E 0 90 58 60
        E 0 90 64 60
        e 0 90 74 60
        E 120 80 3e 00
        E 0 80 4b 00
        E 0 80 58 00
        E 0 80 64 00
        E 1320 90 3d 60
        E 0 90 4a 60
        E 0 90 56 60
        E 0 90 62 60
        E 120 80 3d 00
        E 0 80 4a 00
        E 0 80 56 00
        E 0 80 62 00
        e 120 80 74 00
        E 1200 90 3e 60
        E 0 90 4b 60
        E 0 90 57 60
        E 0 90 63 60
        E 120 80 3e 00
        E 0 80 4b 00
        E 240 80 57 00
        E 0 80 63 00
        E 120 90 48 60
        E 0 90 54 60
        E 0 90 60 60
        E 120 80 48 00
        E 240 80 54 00
        E 0 80 60 00
        E 120 90 3e 60
        E 0 90 4b 60
        E 0 90 57 60
        E 0 90 63 60
        E 120 80 3e 00
        E 0 80 4b 00
        E 240 80 57 00
        E 0 80 63 00
        E 120 90 3d 60
        E 0 90 4a 60
        E 0 90 56 60
        E 0 90 62 60
        E 960 80 3d 00
        E 0 80 4a 00
        E 360 80 56 00
        E 0 80 62 00
        E 120 90 3e 60
        E 0 90 4b 60
        E 0 90 57 60
        E 0 90 63 60
        E 120 80 3e 00
        E 0 80 4b 00
        E 240 80 57 00
        E 0 80 63 00
        E 120 90 48 60
        E 0 90 54 60
        E 0 90 60 60
        E 120 80 48 00
        E 240 80 54 00
        E 0 80 60 00
        E 120 90 3e 60
        E 0 90 4b 60
        E 0 90 57 60
        E 0 90 63 60
        E 120 80 3e 00
        E 0 80 4b 00
        E 240 80 57 00
        E 0 80 63 00
        E 120 90 3d 60
        E 0 90 4a 60
        E 0 90 56 60
        E 0 90 62 60
        E 960 80 3d 00
        E 0 80 4a 00
        E 360 80 56 00
        E 0 80 62 00
        E 120 90 3e 60
        E 0 90 4b 60
        E 0 90 57 60
        E 0 90 63 60
        E 120 80 3e 00
        E 0 80 4b 00
        E 240 80 57 00
        E 0 80 63 00
        E 120 90 48 60
        E 0 90 54 60
        E 0 90 60 60
        E 120 80 48 00
        E 240 80 54 00
        E 0 80 60 00
        E 120 90 3e 60
        E 0 90 4b 60
        E 0 90 57 60
        E 0 90 63 60
        E 120 80 3e 00
        E 0 80 4b 00
        E 240 80 57 00
        E 0 80 63 00
        E 120 90 3d 60
        E 0 90 4a 60
        E 0 90 56 60
        E 0 90 62 60
        E 960 80 3d 00
        E 0 80 4a 00
        E 360 80 56 00
        E 0 80 62 00
        E 120 90 3c 60
        E 0 90 48 60
        E 0 90 54 60
        E 0 90 60 60
        E 120 80 3c 00
        E 0 80 48 00
        E 240 80 54 00
        E 0 80 60 00
        E 120 90 49 60
        E 0 90 55 60
        E 0 90 61 60
        E 120 80 49 00
        E 240 80 55 00
        E 0 80 61 00
        E 120 90 3d 60
        E 0 90 4a 60
        E 0 90 56 60
        E 0 90 62 60
        E 120 80 3d 00
        E 0 80 4a 00
        E 240 80 56 00
        E 0 80 62 00
        E 120 90 3e 60
        E 0 90 4b 60
        E 0 90 57 60
        E 0 90 63 60
        E 1440 80 3e 00
        E 0 80 4b 00
        E 0 80 57 00
        E 0 80 63 00
        <X 480 0
          /wFbaWRsZV9yZWFsdGltZV0=
        >
        E 2400 b0 7b 00
        GUID {A5A0EC13-1BBB-4F71-A0E0-ABE8EB0C2688}
        IGNTEMPO 0 120.00000000 4 4
        SRCCOLOR 7
        VELLANE 132 128 60
        COLORMAP "C:\Program Files\REAPER (x64)\Data\color_maps\rockband_guitarbass.png"
        CFGEDITVIEW -4906.620390 10.271117 0 14 0 0 0
        CFGEDIT 1 1 0 1 1 0 1 1 1 1 1 0.25000000 -8 -8 1544 872 0 2 1 1 0.00000000 0 1 0 0 0.500000 0 0 1.000000 64
        KEYSNAP 0 6 "102030050700" 0 "Pentatonic"
        EVTFILTER 0 -1 -1 -1 -1 0 1 0 0 -1.00000000 -1.00000000
      >
    >
  >
  <TRACK '{5A29CB4F-13B4-4D59-943D-13F4EAFB0A62}'
    NAME "guitar"
    PEAKCOL 16576
    BEAT -1
    AUTOMODE 0
    VOLPAN 1.00000000000000 0.00000000000000 -1.00000000000000 -1.00000000000000 1.00000000000000
    MUTESOLO 0 0 0
    IPHASE 0
    ISBUS 2 -1
    BUSCOMP 0 0
    SHOWINMIX 1 0.666700 0.500000 1 0.500000 -1 -1 -1
    FREEMODE 0
    SEL 0
    REC 0 0 0 0 0 0 0
    VU 2
    TRACKHEIGHT 0 0
    INQ 0 0 0 0.5000000000 100 0 0 100
    NCHAN 2
    FX 1
    TRACKID {5A29CB4F-13B4-4D59-943D-13F4EAFB0A62}
    PERF 0
    MIDIOUT -1
    MAINSEND 1 0
    <ITEM
      POSITION 0.00000000000000
      SNAPOFFS 0.00000000000000
      LENGTH 122.40857142857143
      LOOP 0
      ALLTAKES 0
      SEL 0
      FADEIN 1 0.000000 0.000000 1 0
      FADEOUT 1 0.000000 0.000000 1 0
      MUTE 0
      IGUID {09AA222A-F0DD-4005-B6D0-0B519971D0A8}
      IID 19
      NAME "guitar.wav"
      VOLPAN 1.000000 0.000000 1.000000 -1.000000
      SOFFS 0.00000000000000
      PLAYRATE 1.00000000000000 1 0.00000000000000 -1
      CHANMODE 0
      GUID {E7A71B63-D222-4356-85AF-1AC29D665509}
      <SOURCE WAVE
        FILE "wav\guitar.wav"
      >
    >
  >
  <TRACK '{197F2BCF-9C3A-4E3E-9A4A-D9B16897F274}'
    NAME "PART KEYS"
    PEAKCOL 16576
    BEAT -1
    AUTOMODE 0
    VOLPAN 1.00000000000000 0.00000000000000 -1.00000000000000 -1.00000000000000 1.00000000000000
    MUTESOLO 0 0 0
    IPHASE 0
    ISBUS 1 1
    BUSCOMP 0 0
    SHOWINMIX 1 0.666700 0.500000 1 0.500000 -1 -1 -1
    FREEMODE 0
    SEL 0
    REC 0 0 0 0 0 0 0
    VU 2
    TRACKHEIGHT 0 0
    INQ 0 0 0 0.5000000000 100 0 0 100
    NCHAN 2
    FX 1
    TRACKID {197F2BCF-9C3A-4E3E-9A4A-D9B16897F274}
    PERF 0
    MIDIOUT -1
    <MIDINOTENAMES
      0 127 "TRILL MARKER"
      0 125 "---"
      0 124 "BRE"
      0 123 "BRE"
      0 122 "BRE"
      0 121 "BRE"
      0 120 "BRE (use all 5)"
      0 119 "----"
      0 116 "OVERDRIVE"
      0 115 "----"
      0 103 "Solo Marker"
      0 102 "Force HOPO Off"
      0 101 "Force HOPO On"
      0 100 "EXPERT Orange"
      0 99 "EXPERT Blue"
      0 98 "EXPERT Yellow"
      0 97 "EXPERT Red"
      0 96 "EXPERT Green"
      0 95 "----"
      0 90 "Force HOPO Off"
      0 89 "Force HOPO On"
      0 88 "HARD Orange"
      0 87 "HARD Blue"
      0 86 "HARD Yellow"
      0 85 "HARD Red"
      0 84 "HARD Green"
      0 77 "----"
      0 76 "MEDIUM Orange"
      0 75 "MEDIUM Blue"
      0 74 "MEDIUM Yellow"
      0 73 "MEDIUM Red"
      0 72 "MEDIUM Green"
      0 65 "----"
      0 64 "EASY Orange"
      0 63 "EASY Blue"
      0 62 "EASY Yellow"
      0 61 "EASY Red"
      0 60 "EASY Green"
    >
    MAINSEND 1 0
    <FXCHAIN
      WNDRECT 0 43 891 559
      SHOW 0
      LASTSEL 0
      DOCKED 0
      BYPASS 0 0
      <VST "VSTi: RBN Preview (RBN)" "rbprev_vst64.dll" 0 ""
        dnBicu5e7f4AAAAAAgAAAAEAAAAAAAAAAgAAAAAAAAAEAAAAAQAAAA==
        AAAQAAMAqgAAABAAAAA=
      >
      FLOATPOS 0 0 0 0
      FXID {32364E2B-4AAF-4D4A-8E42-E8FD05F2ACBD}
      WAK 0
    >
    <ITEM
      POSITION 0.00000000000000
      SNAPOFFS 0.00000000000000
      LENGTH 122.40856859980200
      LOOP 0
      ALLTAKES 0
      SEL 0
      FADEIN 1 0.000000 0.000000 1 0
      FADEOUT 1 0.000000 0.000000 1 0
      MUTE 0
      IGUID {97C1BF5B-5E41-44D8-AB05-958E568A4902}
      IID 13
      NAME "PART KEYS"
      VOLPAN 1.000000 0.000000 1.000000 -1.000000
      SOFFS 0.00000000000000 0.00000000000000
      PLAYRATE 1.00000000000000 1 0.00000000000000 -1
      CHANMODE 0
      GUID {6CE07DE0-3A5A-4A97-8917-AB7766F0336C}
      <SOURCE MIDI
        HASDATA 1 480 QN
        POOLEDEVTS {40273F69-0250-4727-9A7A-C6A65F8E7805}
        <X 0 0
          /wNQQVJUIEtFWVM=
        >
        <X 2880 0
          /wFbbWVsbG93XQ==
        >
        E 0 90 3d 60
        E 0 90 4a 60
        E 0 90 56 60
        E 0 90 62 60
        E 480 80 3d 00
        E 0 80 4a 00
        E 360 80 56 00
        E 0 80 62 00
        E 120 90 3e 60
        E 0 90 4b 60
        E 0 90 57 60
        E 0 90 63 60
        E 120 80 3e 00
        E 0 80 4b 00
        E 240 80 57 00
        E 0 80 63 00
        E 120 90 3d 60
        E 0 90 4a 60
        E 0 90 56 60
        E 0 90 62 60
        E 480 80 3d 00
        E 0 80 4a 00
        E 120 80 56 00
        E 0 80 62 00
        E 120 90 55 60
        E 0 90 61 60
        E 120 80 55 00
        E 0 80 61 00
        E 120 90 48 60
        E 0 90 54 60
        E 0 90 60 60
        E 120 80 48 00
        E 240 80 54 00
        E 0 80 60 00
        E 120 90 3d 60
        E 0 90 4a 60
        E 0 90 56 60
        E 0 90 62 60
        E 480 80 3d 00
        E 0 80 4a 00
        E 360 80 56 00
        E 0 80 62 00
        E 120 90 3e 60
        E 0 90 4b 60
        E 0 90 57 60
        E 0 90 63 60
        E 120 80 3e 00
        E 0 80 4b 00
        E 240 80 57 00
        E 0 80 63 00
        E 120 90 3d 60
        E 0 90 4a 60
        E 0 90 56 60
        E 0 90 62 60
        E 960 80 3d 00
        E 0 80 4a 00
        E 360 80 56 00
        E 0 80 62 00
        E 120 90 3d 60
        E 0 90 4a 60
        E 0 90 56 60
        E 0 90 62 60
        E 480 80 3d 00
        E 0 80 4a 00
        E 360 80 56 00
        E 0 80 62 00
        E 120 90 3e 60
        E 0 90 4b 60
        E 0 90 57 60
        E 0 90 63 60
        E 120 80 3e 00
        E 0 80 4b 00
        E 240 80 57 00
        E 0 80 63 00
        E 120 90 3d 60
        E 0 90 4a 60
        E 0 90 56 60
        E 0 90 62 60
        E 480 80 3d 00
        E 0 80 4a 00
        E 120 80 56 00
        E 0 80 62 00
        E 120 90 55 60
        E 0 90 61 60
        E 120 80 55 00
        E 0 80 61 00
        E 120 90 48 60
        E 0 90 54 60
        E 0 90 60 60
        E 120 80 48 00
        E 240 80 54 00
        E 0 80 60 00
        E 120 90 3d 60
        E 0 90 4a 60
        E 0 90 56 60
        E 0 90 62 60
        E 0 90 74 60
        E 480 80 3d 00
        E 0 80 4a 00
        E 360 80 56 00
        E 0 80 62 00
        E 120 90 3e 60
        E 0 90 4b 60
        E 0 90 57 60
        E 0 90 63 60
        E 120 80 3e 00
        E 0 80 4b 00
        E 240 80 57 00
        E 0 80 63 00
        E 120 90 3d 60
        E 0 90 4a 60
        E 0 90 56 60
        E 0 90 62 60
        E 960 80 3d 00
        E 0 80 4a 00
        E 360 80 56 00
        E 0 80 62 00
        E 120 80 74 00
        E 0 90 3e 60
        E 0 90 4b 60
        E 0 90 57 60
        E 0 90 63 60
        E 480 80 3e 00
        E 0 80 4b 00
        E 360 80 57 00
        E 0 80 63 00
        E 120 90 3e 60
        E 0 90 4b 60
        E 0 90 58 60
        E 0 90 64 60
        E 120 80 3e 00
        E 0 80 4b 00
        E 240 80 58 00
        E 0 80 64 00
        E 120 90 3e 60
        E 0 90 4b 60
        E 0 90 57 60
        E 0 90 63 60
        E 480 80 3e 00
        E 0 80 4b 00
        E 120 80 57 00
        E 0 80 63 00
        E 120 90 56 60
        E 0 90 62 60
        E 120 80 56 00
        E 0 80 62 00
        E 120 90 49 60
        E 0 90 55 60
        E 0 90 61 60
        E 120 80 49 00
        E 240 80 55 00
        E 0 80 61 00
        E 120 90 3e 60
        E 0 90 4b 60
        E 0 90 57 60
        E 0 90 63 60
        E 480 80 3e 00
        E 0 80 4b 00
        E 360 80 57 00
        E 0 80 63 00
        E 120 90 3e 60
        E 0 90 4b 60
        E 0 90 58 60
        E 0 90 64 60
        E 120 80 3e 00
        E 0 80 4b 00
        E 240 80 58 00
        E 0 80 64 00
        E 120 90 3e 60
        E 0 90 4b 60
        E 0 90 57 60
        E 0 90 63 60
        E 960 80 3e 00
        E 0 80 4b 00
        E 360 80 57 00
        E 0 80 63 00
        E 120 90 3e 60
        E 0 90 4b 60
        E 0 90 57 60
        E 0 90 63 60
        E 480 80 3e 00
        E 0 80 4b 00
        E 360 80 57 00
        E 0 80 63 00
        E 120 90 3e 60
        E 0 90 4b 60
        E 0 90 58 60
        E 0 90 64 60
        E 120 80 3e 00
        E 0 80 4b 00
        E 240 80 58 00
        E 0 80 64 00
        E 120 90 3e 60
        E 0 90 4b 60
        E 0 90 57 60
        E 0 90 63 60
        E 480 80 3e 00
        E 0 80 4b 00
        E 120 80 57 00
        E 0 80 63 00
        E 120 90 56 60
        E 0 90 62 60
        E 120 80 56 00
        E 0 80 62 00
        E 120 90 49 60
        E 0 90 55 60
        E 0 90 61 60
        E 120 80 49 00
        E 240 80 55 00
        E 0 80 61 00
        E 120 90 3c 60
        E 0 90 48 60
        E 0 90 54 60
        E 0 90 60 60
        E 120 80 3c 00
        E 0 80 48 00
        E 240 80 54 00
        E 0 80 60 00
        E 120 90 49 60
        E 0 90 55 60
        E 0 90 61 60
        E 120 80 49 00
        E 240 80 55 00
        E 0 80 61 00
        E 120 90 3e 60
        E 0 90 4b 60
        E 0 90 58 60
        E 0 90 64 60
        E 120 80 3e 00
        E 0 80 4b 00
        E 240 80 58 00
        E 0 80 64 00
        E 120 90 3e 60
        E 0 90 4b 60
        E 0 90 57 60
        E 0 90 63 60
        E 960 80 3e 00
        E 0 80 4b 00
        E 360 80 57 00
        E 0 80 63 00
        E 120 90 3d 60
        E 0 90 4a 60
        E 0 90 56 60
        E 0 90 62 60
        E 480 80 3d 00
        E 0 80 4a 00
        E 360 80 56 00
        E 0 80 62 00
        E 120 90 3e 60
        E 0 90 4b 60
        E 0 90 57 60
        E 0 90 63 60
        E 120 80 3e 00
        E 0 80 4b 00
        E 240 80 57 00
        E 0 80 63 00
        E 120 90 3d 60
        E 0 90 4a 60
        E 0 90 56 60
        E 0 90 62 60
        E 480 80 3d 00
        E 0 80 4a 00
        E 120 80 56 00
        E 0 80 62 00
        E 120 90 55 60
        E 0 90 61 60
        E 120 80 55 00
        E 0 80 61 00
        E 120 90 48 60
        E 0 90 54 60
        E 0 90 60 60
        E 120 80 48 00
        E 240 80 54 00
        E 0 80 60 00
        E 120 90 3d 60
        E 0 90 4a 60
        E 0 90 56 60
        E 0 90 62 60
        E 0 90 74 60
        E 480 80 3d 00
        E 0 80 4a 00
        E 360 80 56 00
        E 0 80 62 00
        E 120 90 3e 60
        E 0 90 4b 60
        E 0 90 57 60
        E 0 90 63 60
        E 120 80 3e 00
        E 0 80 4b 00
        E 240 80 57 00
        E 0 80 63 00
        E 120 90 3d 60
        E 0 90 4a 60
        E 0 90 56 60
        E 0 90 62 60
        E 960 80 3d 00
        E 0 80 4a 00
        E 360 80 56 00
        E 0 80 62 00
        E 120 80 74 00
        E 0 90 3d 60
        E 0 90 4a 60
        E 0 90 56 60
        E 0 90 62 60
        E 480 80 3d 00
        E 0 80 4a 00
        E 360 80 56 00
        E 0 80 62 00
        E 120 90 3e 60
        E 0 90 4b 60
        E 0 90 57 60
        E 0 90 63 60
        E 120 80 3e 00
        E 0 80 4b 00
        E 240 80 57 00
        E 0 80 63 00
        E 120 90 3d 60
        E 0 90 4a 60
        E 0 90 56 60
        E 0 90 62 60
        E 480 80 3d 00
        E 0 80 4a 00
        E 120 80 56 00
        E 0 80 62 00
        E 120 90 55 60
        E 0 90 61 60
        E 120 80 55 00
        E 0 80 61 00
        E 120 90 48 60
        E 0 90 54 60
        E 0 90 60 60
        E 120 80 48 00
        E 240 80 54 00
        E 0 80 60 00
        E 120 90 3d 60
        E 0 90 4a 60
        E 0 90 56 60
        E 0 90 62 60
        E 480 80 3d 00
        E 0 80 4a 00
        E 360 80 56 00
        E 0 80 62 00
        E 120 90 3e 60
        E 0 90 4b 60
        E 0 90 57 60
        E 0 90 63 60
        E 120 80 3e 00
        E 0 80 4b 00
        E 240 80 57 00
        E 0 80 63 00
        E 120 90 3d 60
        E 0 90 4a 60
        E 0 90 56 60
        E 0 90 62 60
        E 960 80 3d 00
        E 0 80 4a 00
        E 360 80 56 00
        E 0 80 62 00
        E 120 90 3e 60
        E 0 90 4b 60
        E 0 90 57 60
        E 0 90 63 60
        E 480 80 3e 00
        E 0 80 4b 00
        E 360 80 57 00
        E 0 80 63 00
        E 120 90 3e 60
        E 0 90 4b 60
        E 0 90 58 60
        E 0 90 64 60
        E 120 80 3e 00
        E 0 80 4b 00
        E 240 80 58 00
        E 0 80 64 00
        E 120 90 3e 60
        E 0 90 4b 60
        E 0 90 57 60
        E 0 90 63 60
        E 480 80 3e 00
        E 0 80 4b 00
        E 120 80 57 00
        E 0 80 63 00
        E 120 90 56 60
        E 0 90 62 60
        E 120 80 56 00
        E 0 80 62 00
        E 120 90 49 60
        E 0 90 55 60
        E 0 90 61 60
        E 120 80 49 00
        E 240 80 55 00
        E 0 80 61 00
        E 120 90 3e 60
        E 0 90 4b 60
        E 0 90 57 60
        E 0 90 63 60
        E 480 80 3e 00
        E 0 80 4b 00
        E 360 80 57 00
        E 0 80 63 00
        E 120 90 3e 60
        E 0 90 4b 60
        E 0 90 58 60
        E 0 90 64 60
        E 120 80 3e 00
        E 0 80 4b 00
        E 240 80 58 00
        E 0 80 64 00
        E 120 90 3e 60
        E 0 90 4b 60
        E 0 90 57 60
        E 0 90 63 60
        E 960 80 3e 00
        E 0 80 4b 00
        E 360 80 57 00
        E 0 80 63 00
        E 120 90 3e 60
        E 0 90 4b 60
        E 0 90 57 60
        E 0 90 63 60
        E 480 80 3e 00
        E 0 80 4b 00
        E 360 80 57 00
        E 0 80 63 00
        E 120 90 3e 60
        E 0 90 4b 60
        E 0 90 58 60
        E 0 90 64 60
        E 120 80 3e 00
        E 0 80 4b 00
        E 240 80 58 00
        E 0 80 64 00
        E 120 90 3e 60
        E 0 90 4b 60
        E 0 90 57 60
        E 0 90 63 60
        E 480 80 3e 00
        E 0 80 4b 00
        E 120 80 57 00
        E 0 80 63 00
        E 120 90 56 60
        E 0 90 62 60
        E 120 80 56 00
        E 0 80 62 00
        E 120 90 49 60
        E 0 90 55 60
        E 0 90 61 60
        E 120 80 49 00
        E 240 80 55 00
        E 0 80 61 00
        E 120 90 3c 60
        E 0 90 48 60
        E 0 90 54 60
        E 0 90 60 60
        E 0 90 74 60
        E 120 80 3c 00
        E 0 80 48 00
        E 240 80 54 00
        E 0 80 60 00
        E 120 90 49 60
        E 0 90 55 60
        E 0 90 61 60
        E 120 80 49 00
        E 240 80 55 00
        E 0 80 61 00
        E 120 90 3e 60
        E 0 90 4b 60
        E 0 90 58 60
        E 0 90 64 60
        E 120 80 3e 00
        E 0 80 4b 00
        E 240 80 58 00
        E 0 80 64 00
        E 120 90 3e 60
        E 0 90 4b 60
        E 0 90 57 60
        E 0 90 63 60
        E 960 80 3e 00
        E 0 80 4b 00
        E 360 80 57 00
        E 0 80 63 00
        E 120 80 74 00
        E 0 90 3d 60
        E 0 90 4a 60
        E 0 90 56 60
        E 0 90 62 60
        E 480 80 3d 00
        E 0 80 4a 00
        E 360 80 56 00
        E 0 80 62 00
        E 120 90 3e 60
        E 0 90 4b 60
        E 0 90 57 60
        E 0 90 63 60
        E 120 80 3e 00
        E 0 80 4b 00
        E 240 80 57 00
        E 0 80 63 00
        E 120 90 3d 60
        E 0 90 4a 60
        E 0 90 56 60
        E 0 90 62 60
        E 480 80 3d 00
        E 0 80 4a 00
        E 120 80 56 00
        E 0 80 62 00
        E 120 90 55 60
        E 0 90 61 60
        E 120 80 55 00
        E 0 80 61 00
        E 120 90 48 60
        E 0 90 54 60
        E 0 90 60 60
        E 120 80 48 00
        E 240 80 54 00
        E 0 80 60 00
        E 120 90 3d 60
        E 0 90 4a 60
        E 0 90 56 60
        E 0 90 62 60
        E 480 80 3d 00
        E 0 80 4a 00
        E 360 80 56 00
        E 0 80 62 00
        E 120 90 3e 60
        E 0 90 4b 60
        E 0 90 57 60
        E 0 90 63 60
        E 120 80 3e 00
        E 0 80 4b 00
        E 240 80 57 00
        E 0 80 63 00
        E 120 90 3d 60
        E 0 90 4a 60
        E 0 90 56 60
        E 0 90 62 60
        E 960 80 3d 00
        E 0 80 4a 00
        E 360 80 56 00
        E 0 80 62 00
        E 120 90 3d 60
        E 0 90 4a 60
        E 0 90 56 60
        E 0 90 62 60
        E 480 80 3d 00
        E 0 80 4a 00
        E 360 80 56 00
        E 0 80 62 00
        E 120 90 3e 60
        E 0 90 4b 60
        E 0 90 57 60
        E 0 90 63 60
        E 120 80 3e 00
        E 0 80 4b 00
        E 240 80 57 00
        E 0 80 63 00
        E 120 90 3d 60
        E 0 90 4a 60
        E 0 90 56 60
        E 0 90 62 60
        E 480 80 3d 00
        E 0 80 4a 00
        E 120 80 56 00
        E 0 80 62 00
        E 120 90 55 60
        E 0 90 61 60
        E 120 80 55 00
        E 0 80 61 00
        E 120 90 48 60
        E 0 90 54 60
        E 0 90 60 60
        E 120 80 48 00
        E 240 80 54 00
        E 0 80 60 00
        E 120 90 3d 60
        E 0 90 4a 60
        E 0 90 56 60
        E 0 90 62 60
        E 480 80 3d 00
        E 0 80 4a 00
        E 360 80 56 00
        E 0 80 62 00
        E 120 90 3e 60
        E 0 90 4b 60
        E 0 90 57 60
        E 0 90 63 60
        E 120 80 3e 00
        E 0 80 4b 00
        E 240 80 57 00
        E 0 80 63 00
        E 120 90 3d 60
        E 0 90 4a 60
        E 0 90 56 60
        E 0 90 62 60
        E 960 80 3d 00
        E 0 80 4a 00
        E 360 80 56 00
        E 0 80 62 00
        E 120 90 3e 60
        E 0 90 4b 60
        E 0 90 57 60
        E 0 90 63 60
        E 480 80 3e 00
        E 0 80 4b 00
        E 360 80 57 00
        E 0 80 63 00
        E 120 90 3e 60
        E 0 90 4b 60
        E 0 90 58 60
        E 0 90 64 60
        E 120 80 3e 00
        E 0 80 4b 00
        E 240 80 58 00
        E 0 80 64 00
        E 120 90 3e 60
        E 0 90 4b 60
        E 0 90 57 60
        E 0 90 63 60
        E 480 80 3e 00
        E 0 80 4b 00
        E 120 80 57 00
        E 0 80 63 00
        E 120 90 56 60
        E 0 90 62 60
        E 120 80 56 00
        E 0 80 62 00
        E 120 90 49 60
        E 0 90 55 60
        E 0 90 61 60
        E 120 80 49 00
        E 240 80 55 00
        E 0 80 61 00
        E 120 90 3e 60
        E 0 90 4b 60
        E 0 90 57 60
        E 0 90 63 60
        E 480 80 3e 00
        E 0 80 4b 00
        E 360 80 57 00
        E 0 80 63 00
        E 120 90 3e 60
        E 0 90 4b 60
        E 0 90 58 60
        E 0 90 64 60
        E 120 80 3e 00
        E 0 80 4b 00
        E 240 80 58 00
        E 0 80 64 00
        E 120 90 3e 60
        E 0 90 4b 60
        E 0 90 57 60
        E 0 90 63 60
        E 960 80 3e 00
        E 0 80 4b 00
        E 360 80 57 00
        E 0 80 63 00
        E 120 90 3e 60
        E 0 90 4b 60
        E 0 90 57 60
        E 0 90 63 60
        E 0 90 74 60
        E 480 80 3e 00
        E 0 80 4b 00
        E 360 80 57 00
        E 0 80 63 00
        E 120 90 3e 60
        E 0 90 4b 60
        E 0 90 58 60
        E 0 90 64 60
        E 120 80 3e 00
        E 0 80 4b 00
        E 240 80 58 00
        E 0 80 64 00
        E 120 90 3e 60
        E 0 90 4b 60
        E 0 90 57 60
        E 0 90 63 60
        E 480 80 3e 00
        E 0 80 4b 00
        E 120 80 57 00
        E 0 80 63 00
        E 120 90 56 60
        E 0 90 62 60
        E 120 80 56 00
        E 0 80 62 00
        E 120 90 49 60
        E 0 90 55 60
        E 0 90 61 60
        E 120 80 49 00
        E 240 80 55 00
        E 0 80 61 00
        E 120 80 74 00
        E 0 90 3c 60
        E 0 90 48 60
        E 0 90 54 60
        E 0 90 60 60
        E 120 80 3c 00
        E 0 80 48 00
        E 240 80 54 00
        E 0 80 60 00
        E 120 90 49 60
        E 0 90 55 60
        E 0 90 61 60
        E 120 80 49 00
        E 240 80 55 00
        E 0 80 61 00
        E 120 90 3e 60
        E 0 90 4b 60
        E 0 90 58 60
        E 0 90 64 60
        E 120 80 3e 00
        E 0 80 4b 00
        E 240 80 58 00
        E 0 80 64 00
        E 120 90 3e 60
        E 0 90 4b 60
        E 0 90 57 60
        E 0 90 63 60
        E 960 80 3e 00
        E 0 80 4b 00
        E 360 80 57 00
        E 0 80 63 00
        E 120 90 3d 60
        E 0 90 4a 60
        E 0 90 56 60
        E 0 90 62 60
        E 480 80 3d 00
        E 0 80 4a 00
        E 360 80 56 00
        E 0 80 62 00
        E 120 90 3e 60
        E 0 90 4b 60
        E 0 90 57 60
        E 0 90 63 60
        E 120 80 3e 00
        E 0 80 4b 00
        E 240 80 57 00
        E 0 80 63 00
        E 120 90 3d 60
        E 0 90 4a 60
        E 0 90 56 60
        E 0 90 62 60
        E 480 80 3d 00
        E 0 80 4a 00
        E 120 80 56 00
        E 0 80 62 00
        E 120 90 55 60
        E 0 90 61 60
        E 120 80 55 00
        E 0 80 61 00
        E 120 90 48 60
        E 0 90 54 60
        E 0 90 60 60
        E 120 80 48 00
        E 240 80 54 00
        E 0 80 60 00
        E 120 90 3d 60
        E 0 90 4a 60
        E 0 90 56 60
        E 0 90 62 60
        E 480 80 3d 00
        E 0 80 4a 00
        E 360 80 56 00
        E 0 80 62 00
        E 120 90 3e 60
        E 0 90 4b 60
        E 0 90 57 60
        E 0 90 63 60
        E 120 80 3e 00
        E 0 80 4b 00
        E 240 80 57 00
        E 0 80 63 00
        E 120 90 3d 60
        E 0 90 4a 60
        E 0 90 56 60
        E 0 90 62 60
        E 960 80 3d 00
        E 0 80 4a 00
        E 360 80 56 00
        E 0 80 62 00
        E 120 90 3d 60
        E 0 90 4a 60
        E 0 90 56 60
        E 0 90 62 60
        E 480 80 3d 00
        E 0 80 4a 00
        E 360 80 56 00
        E 0 80 62 00
        E 120 90 3e 60
        E 0 90 4b 60
        E 0 90 57 60
        E 0 90 63 60
        E 120 80 3e 00
        E 0 80 4b 00
        E 240 80 57 00
        E 0 80 63 00
        E 120 90 3d 60
        E 0 90 4a 60
        E 0 90 56 60
        E 0 90 62 60
        E 480 80 3d 00
        E 0 80 4a 00
        E 120 80 56 00
        E 0 80 62 00
        E 120 90 55 60
        E 0 90 61 60
        E 120 80 55 00
        E 0 80 61 00
        E 120 90 48 60
        E 0 90 54 60
        E 0 90 60 60
        E 120 80 48 00
        E 240 80 54 00
        E 0 80 60 00
        E 120 90 3d 60
        E 0 90 4a 60
        E 0 90 56 60
        E 0 90 62 60
        E 480 80 3d 00
        E 0 80 4a 00
        E 360 80 56 00
        E 0 80 62 00
        E 120 90 3e 60
        E 0 90 4b 60
        E 0 90 57 60
        E 0 90 63 60
        E 120 80 3e 00
        E 0 80 4b 00
        E 240 80 57 00
        E 0 80 63 00
        E 120 90 3d 60
        E 0 90 4a 60
        E 0 90 56 60
        E 0 90 62 60
        E 960 80 3d 00
        E 0 80 4a 00
        E 360 80 56 00
        E 0 80 62 00
        E 120 90 3e 60
        E 0 90 4b 60
        E 0 90 57 60
        E 0 90 63 60
        E 0 90 74 60
        E 480 80 3e 00
        E 0 80 4b 00
        E 360 80 57 00
        E 0 80 63 00
        E 120 90 3e 60
        E 0 90 4b 60
        E 0 90 58 60
        E 0 90 64 60
        E 120 80 3e 00
        E 0 80 4b 00
        E 240 80 58 00
        E 0 80 64 00
        E 120 90 3e 60
        E 0 90 4b 60
        E 0 90 57 60
        E 0 90 63 60
        E 120 80 74 00
        E 360 80 3e 00
        E 0 80 4b 00
        E 120 80 57 00
        E 0 80 63 00
        E 120 90 56 60
        E 0 90 62 60
        E 120 80 56 00
        E 0 80 62 00
        E 120 90 49 60
        E 0 90 55 60
        E 0 90 61 60
        E 120 80 49 00
        E 240 80 55 00
        E 0 80 61 00
        E 120 90 3e 60
        E 0 90 4b 60
        E 0 90 57 60
        E 0 90 63 60
        E 480 80 3e 00
        E 0 80 4b 00
        E 360 80 57 00
        E 0 80 63 00
        E 120 90 3e 60
        E 0 90 4b 60
        E 0 90 58 60
        E 0 90 64 60
        E 120 80 3e 00
        E 0 80 4b 00
        E 240 80 58 00
        E 0 80 64 00
        E 120 90 3e 60
        E 0 90 4b 60
        E 0 90 57 60
        E 0 90 63 60
        E 960 80 3e 00
        E 0 80 4b 00
        E 360 80 57 00
        E 0 80 63 00
        E 120 90 3e 60
        E 0 90 4b 60
        E 0 90 57 60
        E 0 90 63 60
        E 480 80 3e 00
        E 0 80 4b 00
        E 360 80 57 00
        E 0 80 63 00
        E 120 90 3e 60
        E 0 90 4b 60
        E 0 90 58 60
        E 0 90 64 60
        E 120 80 3e 00
        E 0 80 4b 00
        E 240 80 58 00
        E 0 80 64 00
        E 120 90 3e 60
        E 0 90 4b 60
        E 0 90 57 60
        E 0 90 63 60
        E 480 80 3e 00
        E 0 80 4b 00
        E 120 80 57 00
        E 0 80 63 00
        E 120 90 56 60
        E 0 90 62 60
        E 120 80 56 00
        E 0 80 62 00
        E 120 90 49 60
        E 0 90 55 60
        E 0 90 61 60
        E 120 80 49 00
        E 240 80 55 00
        E 0 80 61 00
        E 120 90 3c 60
        E 0 90 48 60
        E 0 90 54 60
        E 0 90 60 60
        E 120 80 3c 00
        E 0 80 48 00
        E 240 80 54 00
        E 0 80 60 00
        E 120 90 49 60
        E 0 90 55 60
        E 0 90 61 60
        E 120 80 49 00
        E 240 80 55 00
        E 0 80 61 00
        E 120 90 3e 60
        E 0 90 4b 60
        E 0 90 58 60
        E 0 90 64 60
        E 120 80 3e 00
        E 0 80 4b 00
        E 240 80 58 00
        E 0 80 64 00
        E 120 90 3e 60
        E 0 90 4b 60
        E 0 90 57 60
        E 0 90 63 60
        E 1440 80 3e 00
        E 0 80 4b 00
        E 0 80 57 00
        E 0 80 63 00
        <X 480 0
          /wFbaWRsZV9yZWFsdGltZV0=
        >
        E 2400 b0 7b 00
        GUID {4D4F2A7F-363E-4CBA-9003-D8C46BAFF4B2}
        IGNTEMPO 0 120.00000000 4 4
        SRCCOLOR 8
        VELLANE 132 128 60
        COLORMAP "C:\Program Files\REAPER (x64)\Data\color_maps\rockband_guitarbass.png"
        CFGEDITVIEW -4896.000000 10.271117 0 14 0 0 0
        CFGEDIT 1 1 0 1 1 0 1 1 1 1 1 0.25000000 -8 -8 1544 872 0 2 1 1 0.00000000 0 1 0 0 0.500000 0 0 1.000000 64
        KEYSNAP 0 6 "102030050700" 0 "Pentatonic"
        EVTFILTER 0 -1 -1 -1 -1 0 1 0 0 -1.00000000 -1.00000000
      >
    >
  >
  <TRACK '{81CA27CA-9EE1-498B-B846-C4749D50B822}'
    NAME "PART REAL_KEYS_X"
    PEAKCOL 16576
    BEAT -1
    AUTOMODE 0
    VOLPAN 1.00000000000000 0.00000000000000 -1.00000000000000 -1.00000000000000 1.00000000000000
    MUTESOLO 0 0 0
    IPHASE 0
    ISBUS 0 0
    BUSCOMP 0 0
    SHOWINMIX 1 0.666700 0.500000 1 0.500000 -1 -1 -1
    FREEMODE 0
    SEL 0
    REC 0 0 0 0 0 0 0
    VU 2
    TRACKHEIGHT 0 0
    INQ 0 0 0 0.5000000000 100 0 0 100
    NCHAN 2
    FX 0
    TRACKID {81CA27CA-9EE1-498B-B846-C4749D50B822}
    PERF 0
    MIDIOUT -1
    <MIDINOTENAMES
      0 127 "TRILL MARKER"
      0 126 "GLISSANDO MARKER"
      0 125 "---"
      0 116 "OVERDRIVE"
      0 115 "SOLO"
      0 114 "---"
      0 72 "Highest playable note B#3"
      0 71 "B3"
      0 70 "A#3"
      0 69 "A3"
      0 68 "G#3"
      0 67 "G3"
      0 66 "F#3"
      0 65 "F3"
      0 64 "E3"
      0 63 "D#3"
      0 62 "D3"
      0 61 "C#3"
      0 60 "C3"
      0 59 "B2"
      0 58 "A#2"
      0 57 "A2"
      0 56 "G#2"
      0 55 "G2"
      0 54 "F#2"
      0 53 "F2"
      0 52 "E2"
      0 51 "D#2"
      0 50 "D2"
      0 49 "C#2"
      0 48 "Lowest playable note C2"
      0 10 "---"
      0 9 "Range A2-C4"
      0 8 "Range"
      0 7 "Range"
      0 6 "Range"
      0 5 "Range F2-A3"
      0 4 "Range"
      0 3 "Range"
      0 2 "Range"
      0 1 "Range"
      0 0 "Range C2-E3"
    >
    MAINSEND 1 0
    <FXCHAIN
      WNDRECT 0 43 655 467
      SHOW 0
      LASTSEL 1
      DOCKED 0
      BYPASS 0 0
      <JS "MIDI/midi_note_filter" ""
        48.000000 72.000000 - - - - - - - - - - - - - - - - - - - - - - - - - - - - - - - - - - - - - - - - - - - - - - - - - - - - - - - - - - - - - - 
      >
      FLOATPOS 0 0 0 0
      FXID {E5391D9B-AA4B-44CC-BEF5-47C99293E9A3}
      WAK 0
      BYPASS 0 0
      <VST "VSTi: ReaSynth (Cockos)" "reasynth.dll" 0 ""
        eXNlcu9e7f4AAAAAAgAAAAEAAAAAAAAAAgAAAAAAAAA4AAAAAAAAAA==
        AAAQAO++rd4N8K3eppvEOxe30ToAAIA/AAAAAAAAAADMm4A+6WeIPQ==
        AAAAAAAAAD8AAIA/AACAPwAAAD8AABAAAAA=
      >
      FLOATPOS 0 0 0 0
      FXID {14BBD295-0514-41B9-B8D4-25B2C41F8A0B}
      WAK 0
    >
    <ITEM
      POSITION 0.00000000000000
      SNAPOFFS 0.00000000000000
      LENGTH 122.40856859980200
      LOOP 0
      ALLTAKES 0
      SEL 0
      FADEIN 1 0.000000 0.000000 1 0
      FADEOUT 1 0.000000 0.000000 1 0
      MUTE 0
      IGUID {3E1CF095-2FB1-47C2-81DF-A9B6175795F1}
      IID 10
      NAME "PART REAL_KEYS_X"
      VOLPAN 1.000000 0.000000 1.000000 -1.000000
      SOFFS 0.00000000000000 0.00000000000000
      PLAYRATE 1.00000000000000 1 0.00000000000000 -1
      CHANMODE 0
      GUID {CE53B143-BEBA-4D4F-96E1-B083DD3A09EA}
      <SOURCE MIDI
        HASDATA 1 480 QN
        POOLEDEVTS {95B033CA-683B-48BD-A0BA-84E985E772C4}
        <X 0 0
          /wNQQVJUIFJFQUxfS0VZU19Y
        >
        E 0 90 05 60
        E 120 80 05 00
        E 2760 90 3c 60
        E 840 80 3c 00
        E 120 90 3d 60
        E 360 80 3d 00
        E 120 90 3c 60
        E 600 80 3c 00
        E 120 90 3a 60
        E 120 80 3a 00
        E 120 90 38 60
        E 360 80 38 00
        E 120 90 3c 60
        E 840 80 3c 00
        E 120 90 3d 60
        E 360 80 3d 00
        E 120 90 3c 60
        E 1320 80 3c 00
        E 120 90 3c 60
        E 840 80 3c 00
        E 120 90 3d 60
        E 360 80 3d 00
        E 120 90 3c 60
        E 600 80 3c 00
        E 120 90 3a 60
        E 120 80 3a 00
        E 120 90 38 60
        E 360 80 38 00
        E 120 90 3c 60
        E 0 90 74 60
        E 840 80 3c 00
        E 120 90 3d 60
        E 360 80 3d 00
        E 120 90 3c 60
        E 1320 80 3c 00
        E 120 90 3f 60
        E 0 80 74 00
        E 840 80 3f 00
        E 120 90 40 60
        E 360 80 40 00
        E 120 90 3f 60
        E 600 80 3f 00
        E 120 90 3d 60
        E 120 80 3d 00
        E 120 90 3b 60
        E 360 80 3b 00
        E 120 90 3f 60
        E 840 80 3f 00
        E 120 90 40 60
        E 360 80 40 00
        E 120 90 3f 60
        E 1320 80 3f 00
        E 120 90 3f 60
        E 840 80 3f 00
        E 120 90 40 60
        E 360 80 40 00
        E 120 90 3f 60
        E 600 80 3f 00
        E 120 90 3d 60
        E 120 80 3d 00
        E 120 90 3b 60
        E 360 80 3b 00
        E 120 90 3a 60
        E 360 80 3a 00
        E 120 90 3d 60
        E 360 80 3d 00
        E 120 90 41 60
        E 360 80 41 00
        E 120 90 3f 60
        E 1320 80 3f 00
        E 120 90 3c 60
        E 840 80 3c 00
        E 120 90 3d 60
        E 360 80 3d 00
        E 120 90 3c 60
        E 600 80 3c 00
        E 120 90 3a 60
        E 120 80 3a 00
        E 120 90 38 60
        E 360 80 38 00
        E 120 90 3c 60
        E 0 90 74 60
        E 840 80 3c 00
        E 120 90 3d 60
        E 360 80 3d 00
        E 120 90 3c 60
        E 1320 80 3c 00
        E 120 90 3c 60
        E 0 80 74 00
        E 840 80 3c 00
        E 120 90 3d 60
        E 360 80 3d 00
        E 120 90 3c 60
        E 600 80 3c 00
        E 120 90 3a 60
        E 120 80 3a 00
        E 120 90 38 60
        E 360 80 38 00
        E 120 90 3c 60
        E 840 80 3c 00
        E 120 90 3d 60
        E 360 80 3d 00
        E 120 90 3c 60
        E 1320 80 3c 00
        E 120 90 3f 60
        E 840 80 3f 00
        E 120 90 40 60
        E 360 80 40 00
        E 120 90 3f 60
        E 600 80 3f 00
        E 120 90 3d 60
        E 120 80 3d 00
        E 120 90 3b 60
        E 360 80 3b 00
        E 120 90 3f 60
        E 840 80 3f 00
        E 120 90 40 60
        E 360 80 40 00
        E 120 90 3f 60
        E 1320 80 3f 00
        E 120 90 3f 60
        E 840 80 3f 00
        E 120 90 40 60
        E 360 80 40 00
        E 120 90 3f 60
        E 600 80 3f 00
        E 120 90 3d 60
        E 120 80 3d 00
        E 120 90 3b 60
        E 360 80 3b 00
        E 120 90 3a 60
        E 0 90 74 60
        E 360 80 3a 00
        E 120 90 3d 60
        E 360 80 3d 00
        E 120 90 41 60
        E 360 80 41 00
        E 120 90 3f 60
        E 1320 80 3f 00
        E 120 90 3c 60
        E 0 80 74 00
        E 840 80 3c 00
        E 120 90 3d 60
        E 360 80 3d 00
        E 120 90 3c 60
        E 600 80 3c 00
        E 120 90 3a 60
        E 120 80 3a 00
        E 120 90 38 60
        E 360 80 38 00
        E 120 90 3c 60
        E 840 80 3c 00
        E 120 90 3d 60
        E 360 80 3d 00
        E 120 90 3c 60
        E 1320 80 3c 00
        E 120 90 3c 60
        E 840 80 3c 00
        E 120 90 3d 60
        E 360 80 3d 00
        E 120 90 3c 60
        E 600 80 3c 00
        E 120 90 3a 60
        E 120 80 3a 00
        E 120 90 38 60
        E 360 80 38 00
        E 120 90 3c 60
        E 840 80 3c 00
        E 120 90 3d 60
        E 360 80 3d 00
        E 120 90 3c 60
        E 1320 80 3c 00
        E 120 90 3f 60
        E 840 80 3f 00
        E 120 90 40 60
        E 360 80 40 00
        E 120 90 3f 60
        E 600 80 3f 00
        E 120 90 3d 60
        E 120 80 3d 00
        E 120 90 3b 60
        E 360 80 3b 00
        E 120 90 3f 60
        E 840 80 3f 00
        E 120 90 40 60
        E 360 80 40 00
        E 120 90 3f 60
        E 1320 80 3f 00
        E 120 90 3f 60
        E 0 90 74 60
        E 840 80 3f 00
        E 120 90 40 60
        E 360 80 40 00
        E 120 90 3f 60
        E 600 80 3f 00
        E 120 90 3d 60
        E 120 80 3d 00
        E 120 90 3b 60
        E 360 80 3b 00
        E 120 90 3a 60
        E 0 80 74 00
        E 360 80 3a 00
        E 120 90 3d 60
        E 360 80 3d 00
        E 120 90 41 60
        E 360 80 41 00
        E 120 90 3f 60
        E 1320 80 3f 00
        E 120 90 3c 60
        E 840 80 3c 00
        E 120 90 3d 60
        E 360 80 3d 00
        E 120 90 3c 60
        E 600 80 3c 00
        E 120 90 3a 60
        E 120 80 3a 00
        E 120 90 38 60
        E 360 80 38 00
        E 120 90 3c 60
        E 840 80 3c 00
        E 120 90 3d 60
        E 360 80 3d 00
        E 120 90 3c 60
        E 1320 80 3c 00
        E 120 90 3c 60
        E 840 80 3c 00
        E 120 90 3d 60
        E 360 80 3d 00
        E 120 90 3c 60
        E 600 80 3c 00
        E 120 90 3a 60
        E 120 80 3a 00
        E 120 90 38 60
        E 360 80 38 00
        E 120 90 3c 60
        E 840 80 3c 00
        E 120 90 3d 60
        E 360 80 3d 00
        E 120 90 3c 60
        E 1320 80 3c 00
        E 120 90 3f 60
        E 0 90 74 60
        E 840 80 3f 00
        E 120 90 40 60
        E 360 80 40 00
        E 120 90 3f 60
        E 120 80 74 00
        E 480 80 3f 00
        E 120 90 3d 60
        E 120 80 3d 00
        E 120 90 3b 60
        E 360 80 3b 00
        E 120 90 3f 60
        E 840 80 3f 00
        E 120 90 40 60
        E 360 80 40 00
        E 120 90 3f 60
        E 1320 80 3f 00
        E 120 90 3f 60
        E 840 80 3f 00
        E 120 90 40 60
        E 360 80 40 00
        E 120 90 3f 60
        E 600 80 3f 00
        E 120 90 3d 60
        E 120 80 3d 00
        E 120 90 3b 60
        E 360 80 3b 00
        E 120 90 3a 60
        E 360 80 3a 00
        E 120 90 3d 60
        E 360 80 3d 00
        E 120 90 41 60
        E 360 80 41 00
        E 120 90 3f 60
        E 1440 80 3f 00
        E 2880 b0 7b 00
        GUID {4829ECFF-25C3-4733-8C8D-11C5DA80EFC7}
        IGNTEMPO 0 120.00000000 4 4
        SRCCOLOR 5
        VELLANE 132 128 60
        COLORMAP "C:\Program Files\REAPER (x64)\Data\color_maps\rockband_guitarbass.png"
        CFGEDITVIEW -4906.620390 10.271117 0 13 0 0 0
        CFGEDIT 1 1 0 1 1 0 1 1 1 1 1 0.25000000 -8 -8 1544 872 0 2 1 1 0.00000000 0 1 0 0 0.500000 0 0 1.000000 64
        KEYSNAP 0 6 "102030050700" 0 "Pentatonic"
        EVTFILTER 0 -1 -1 -1 -1 0 1 0 0 -1.00000000 -1.00000000
      >
    >
  >
  <TRACK '{DA1021EC-B4BA-4A05-99AB-62F8613B2098}'
    NAME "PART REAL_KEYS_H"
    PEAKCOL 16576
    BEAT -1
    AUTOMODE 0
    VOLPAN 1.00000000000000 0.00000000000000 -1.00000000000000 -1.00000000000000 1.00000000000000
    MUTESOLO 0 0 0
    IPHASE 0
    ISBUS 0 0
    BUSCOMP 0 0
    SHOWINMIX 1 0.666700 0.500000 1 0.500000 -1 -1 -1
    FREEMODE 0
    SEL 0
    REC 0 0 0 0 0 0 0
    VU 2
    TRACKHEIGHT 0 0
    INQ 0 0 0 0.5000000000 100 0 0 100
    NCHAN 2
    FX 0
    TRACKID {DA1021EC-B4BA-4A05-99AB-62F8613B2098}
    PERF 0
    MIDIOUT -1
    <MIDINOTENAMES
      0 72 "Highest playable note B#3"
      0 71 "B3"
      0 70 "A#3"
      0 69 "A3"
      0 68 "G#3"
      0 67 "G3"
      0 66 "F#3"
      0 65 "F3"
      0 64 "E3"
      0 63 "D#3"
      0 62 "D3"
      0 61 "C#3"
      0 60 "C3"
      0 59 "B2"
      0 58 "A#2"
      0 57 "A2"
      0 56 "G#2"
      0 55 "G2"
      0 54 "F#2"
      0 53 "F2"
      0 52 "E2"
      0 51 "D#2"
      0 50 "D2"
      0 49 "C#2"
      0 48 "Lowest playable note C2"
      0 10 "---"
      0 9 "Range A2-C4"
      0 8 "Range"
      0 7 "Range"
      0 6 "Range"
      0 5 "Range F2-A3"
      0 4 "Range"
      0 3 "Range"
      0 2 "Range"
      0 1 "Range"
      0 0 "Range C2-E3"
    >
    MAINSEND 1 0
    <FXCHAIN
      WNDRECT 0 43 729 467
      SHOW 0
      LASTSEL 0
      DOCKED 0
    >
    <ITEM
      POSITION 0.00000000000000
      SNAPOFFS 0.00000000000000
      LENGTH 122.40856859980200
      LOOP 0
      ALLTAKES 0
      SEL 0
      FADEIN 1 0.000000 0.000000 1 0
      FADEOUT 1 0.000000 0.000000 1 0
      MUTE 0
      IGUID {3E1CF095-2FB1-47C2-81DF-A9B6175795F1}
      IID 10
      NAME "PART REAL_KEYS_H"
      VOLPAN 1.000000 0.000000 1.000000 -1.000000
      SOFFS 0.00000000000000 0.00000000000000
      PLAYRATE 1.00000000000000 1 0.00000000000000 -1
      CHANMODE 0
      GUID {CE53B143-BEBA-4D4F-96E1-B083DD3A09EA}
      <SOURCE MIDI
        HASDATA 1 480 QN
        POOLEDEVTS {37336E11-7E0F-4DF1-83ED-391A75B6F839}
        <X 0 0
          /wNQQVJUIFJFQUxfS0VZU19I
        >
        E 0 90 05 60
        E 120 80 05 00
        E 2760 90 3c 60
        E 840 80 3c 00
        E 120 90 3d 60
        E 360 80 3d 00
        E 120 90 3c 60
        E 600 80 3c 00
        E 120 90 3a 60
        E 120 80 3a 00
        E 120 90 38 60
        E 360 80 38 00
        E 120 90 3c 60
        E 840 80 3c 00
        E 120 90 3d 60
        E 360 80 3d 00
        E 120 90 3c 60
        E 1320 80 3c 00
        E 120 90 3c 60
        E 840 80 3c 00
        E 120 90 3d 60
        E 360 80 3d 00
        E 120 90 3c 60
        E 600 80 3c 00
        E 120 90 3a 60
        E 120 80 3a 00
        E 120 90 38 60
        E 360 80 38 00
        E 120 90 3c 60
        E 840 80 3c 00
        E 120 90 3d 60
        E 360 80 3d 00
        E 120 90 3c 60
        E 1320 80 3c 00
        E 120 90 3f 60
        E 840 80 3f 00
        E 120 90 40 60
        E 360 80 40 00
        E 120 90 3f 60
        E 600 80 3f 00
        E 120 90 3d 60
        E 120 80 3d 00
        E 120 90 3b 60
        E 360 80 3b 00
        E 120 90 3f 60
        E 840 80 3f 00
        E 120 90 40 60
        E 360 80 40 00
        E 120 90 3f 60
        E 1320 80 3f 00
        E 120 90 3f 60
        E 840 80 3f 00
        E 120 90 40 60
        E 360 80 40 00
        E 120 90 3f 60
        E 600 80 3f 00
        E 120 90 3d 60
        E 120 80 3d 00
        E 120 90 3b 60
        E 360 80 3b 00
        E 120 90 3a 60
        E 360 80 3a 00
        E 120 90 3d 60
        E 360 80 3d 00
        E 120 90 41 60
        E 360 80 41 00
        E 120 90 3f 60
        E 1320 80 3f 00
        E 120 90 3c 60
        E 840 80 3c 00
        E 120 90 3d 60
        E 360 80 3d 00
        E 120 90 3c 60
        E 600 80 3c 00
        E 120 90 3a 60
        E 120 80 3a 00
        E 120 90 38 60
        E 360 80 38 00
        E 120 90 3c 60
        E 840 80 3c 00
        E 120 90 3d 60
        E 360 80 3d 00
        E 120 90 3c 60
        E 1320 80 3c 00
        E 120 90 3c 60
        E 840 80 3c 00
        E 120 90 3d 60
        E 360 80 3d 00
        E 120 90 3c 60
        E 600 80 3c 00
        E 120 90 3a 60
        E 120 80 3a 00
        E 120 90 38 60
        E 360 80 38 00
        E 120 90 3c 60
        E 840 80 3c 00
        E 120 90 3d 60
        E 360 80 3d 00
        E 120 90 3c 60
        E 1320 80 3c 00
        E 120 90 3f 60
        E 840 80 3f 00
        E 120 90 40 60
        E 360 80 40 00
        E 120 90 3f 60
        E 600 80 3f 00
        E 120 90 3d 60
        E 120 80 3d 00
        E 120 90 3b 60
        E 360 80 3b 00
        E 120 90 3f 60
        E 840 80 3f 00
        E 120 90 40 60
        E 360 80 40 00
        E 120 90 3f 60
        E 1320 80 3f 00
        E 120 90 3f 60
        E 840 80 3f 00
        E 120 90 40 60
        E 360 80 40 00
        E 120 90 3f 60
        E 600 80 3f 00
        E 120 90 3d 60
        E 120 80 3d 00
        E 120 90 3b 60
        E 360 80 3b 00
        E 120 90 3a 60
        E 360 80 3a 00
        E 120 90 3d 60
        E 360 80 3d 00
        E 120 90 41 60
        E 360 80 41 00
        E 120 90 3f 60
        E 1320 80 3f 00
        E 120 90 3c 60
        E 840 80 3c 00
        E 120 90 3d 60
        E 360 80 3d 00
        E 120 90 3c 60
        E 600 80 3c 00
        E 120 90 3a 60
        E 120 80 3a 00
        E 120 90 38 60
        E 360 80 38 00
        E 120 90 3c 60
        E 840 80 3c 00
        E 120 90 3d 60
        E 360 80 3d 00
        E 120 90 3c 60
        E 1320 80 3c 00
        E 120 90 3c 60
        E 840 80 3c 00
        E 120 90 3d 60
        E 360 80 3d 00
        E 120 90 3c 60
        E 600 80 3c 00
        E 120 90 3a 60
        E 120 80 3a 00
        E 120 90 38 60
        E 360 80 38 00
        E 120 90 3c 60
        E 840 80 3c 00
        E 120 90 3d 60
        E 360 80 3d 00
        E 120 90 3c 60
        E 1320 80 3c 00
        E 120 90 3f 60
        E 840 80 3f 00
        E 120 90 40 60
        E 360 80 40 00
        E 120 90 3f 60
        E 600 80 3f 00
        E 120 90 3d 60
        E 120 80 3d 00
        E 120 90 3b 60
        E 360 80 3b 00
        E 120 90 3f 60
        E 840 80 3f 00
        E 120 90 40 60
        E 360 80 40 00
        E 120 90 3f 60
        E 1320 80 3f 00
        E 120 90 3f 60
        E 840 80 3f 00
        E 120 90 40 60
        E 360 80 40 00
        E 120 90 3f 60
        E 600 80 3f 00
        E 120 90 3d 60
        E 120 80 3d 00
        E 120 90 3b 60
        E 360 80 3b 00
        E 120 90 3a 60
        E 360 80 3a 00
        E 120 90 3d 60
        E 360 80 3d 00
        E 120 90 41 60
        E 360 80 41 00
        E 120 90 3f 60
        E 1320 80 3f 00
        E 120 90 3c 60
        E 840 80 3c 00
        E 120 90 3d 60
        E 360 80 3d 00
        E 120 90 3c 60
        E 600 80 3c 00
        E 120 90 3a 60
        E 120 80 3a 00
        E 120 90 38 60
        E 360 80 38 00
        E 120 90 3c 60
        E 840 80 3c 00
        E 120 90 3d 60
        E 360 80 3d 00
        E 120 90 3c 60
        E 1320 80 3c 00
        E 120 90 3c 60
        E 840 80 3c 00
        E 120 90 3d 60
        E 360 80 3d 00
        E 120 90 3c 60
        E 600 80 3c 00
        E 120 90 3a 60
        E 120 80 3a 00
        E 120 90 38 60
        E 360 80 38 00
        E 120 90 3c 60
        E 840 80 3c 00
        E 120 90 3d 60
        E 360 80 3d 00
        E 120 90 3c 60
        E 1320 80 3c 00
        E 120 90 3f 60
        E 840 80 3f 00
        E 120 90 40 60
        E 360 80 40 00
        E 120 90 3f 60
        E 600 80 3f 00
        E 120 90 3d 60
        E 120 80 3d 00
        E 120 90 3b 60
        E 360 80 3b 00
        E 120 90 3f 60
        E 840 80 3f 00
        E 120 90 40 60
        E 360 80 40 00
        E 120 90 3f 60
        E 1320 80 3f 00
        E 120 90 3f 60
        E 840 80 3f 00
        E 120 90 40 60
        E 360 80 40 00
        E 120 90 3f 60
        E 600 80 3f 00
        E 120 90 3d 60
        E 120 80 3d 00
        E 120 90 3b 60
        E 360 80 3b 00
        E 120 90 3a 60
        E 360 80 3a 00
        E 120 90 3d 60
        E 360 80 3d 00
        E 120 90 41 60
        E 360 80 41 00
        E 120 90 3f 60
        E 1440 80 3f 00
        E 2880 b0 7b 00
        GUID {4829ECFF-25C3-4733-8C8D-11C5DA80EFC7}
        IGNTEMPO 0 120.00000000 4 4
        SRCCOLOR 5
        VELLANE 132 128 60
        COLORMAP "C:\Program Files\REAPER (x64)\Data\color_maps\rockband_guitarbass.png"
        CFGEDITVIEW -1029.059742 56.746863 0 15 0 0 0
        CFGEDIT 1 1 0 1 1 0 1 1 1 1 1 0.25000000 -8 -8 1544 872 0 2 1 1 0.00000000 0 1 0 0 0.500000 0 0 1.000000 64
        KEYSNAP 0 6 "102030050700" 0 "Pentatonic"
        EVTFILTER 0 -1 -1 -1 -1 0 1 0 0 -1.00000000 -1.00000000
      >
    >
  >
  <TRACK '{9D4FFF9C-735C-4094-8DD7-5773CF247C75}'
    NAME "PART REAL_KEYS_M"
    PEAKCOL 16576
    BEAT -1
    AUTOMODE 0
    VOLPAN 1.00000000000000 0.00000000000000 -1.00000000000000 -1.00000000000000 1.00000000000000
    MUTESOLO 0 0 0
    IPHASE 0
    ISBUS 0 0
    BUSCOMP 0 0
    SHOWINMIX 1 0.666700 0.500000 1 0.500000 -1 -1 -1
    FREEMODE 0
    SEL 0
    REC 0 0 0 0 0 0 0
    VU 2
    TRACKHEIGHT 0 0
    INQ 0 0 0 0.5000000000 100 0 0 100
    NCHAN 2
    FX 0
    TRACKID {9D4FFF9C-735C-4094-8DD7-5773CF247C75}
    PERF 0
    MIDIOUT -1
    <MIDINOTENAMES
      0 72 "Highest playable note B#3"
      0 71 "B3"
      0 70 "A#3"
      0 69 "A3"
      0 68 "G#3"
      0 67 "G3"
      0 66 "F#3"
      0 65 "F3"
      0 64 "E3"
      0 63 "D#3"
      0 62 "D3"
      0 61 "C#3"
      0 60 "C3"
      0 59 "B2"
      0 58 "A#2"
      0 57 "A2"
      0 56 "G#2"
      0 55 "G2"
      0 54 "F#2"
      0 53 "F2"
      0 52 "E2"
      0 51 "D#2"
      0 50 "D2"
      0 49 "C#2"
      0 48 "Lowest playable note C2"
      0 10 "---"
      0 9 "Range A2-C4"
      0 8 "Range"
      0 7 "Range"
      0 6 "Range"
      0 5 "Range F2-A3"
      0 4 "Range"
      0 3 "Range"
      0 2 "Range"
      0 1 "Range"
      0 0 "Range C2-E3"
    >
    MAINSEND 1 0
    <FXCHAIN
      WNDRECT 0 43 729 467
      SHOW 0
      LASTSEL 0
      DOCKED 0
    >
    <ITEM
      POSITION 0.00000000000000
      SNAPOFFS 0.00000000000000
      LENGTH 122.40856859980200
      LOOP 0
      ALLTAKES 0
      SEL 0
      FADEIN 1 0.000000 0.000000 1 0
      FADEOUT 1 0.000000 0.000000 1 0
      MUTE 0
      IGUID {3E1CF095-2FB1-47C2-81DF-A9B6175795F1}
      IID 10
      NAME "PART REAL_KEYS_M"
      VOLPAN 1.000000 0.000000 1.000000 -1.000000
      SOFFS 0.00000000000000 0.00000000000000
      PLAYRATE 1.00000000000000 1 0.00000000000000 -1
      CHANMODE 0
      GUID {CE53B143-BEBA-4D4F-96E1-B083DD3A09EA}
      <SOURCE MIDI
        HASDATA 1 480 QN
        POOLEDEVTS {A604579F-80BF-4847-ADB2-FFE7D1724459}
        <X 0 0
          /wNQQVJUIFJFQUxfS0VZU19N
        >
        E 0 90 05 60
        E 120 80 05 00
        E 2760 90 3c 60
        E 480 80 3c 00
        E 480 90 3d 60
        E 120 80 3d 00
        E 360 90 3c 60
        E 480 80 3c 00
        E 480 90 38 60
        E 120 80 38 00
        E 360 90 3c 60
        E 480 80 3c 00
        E 480 90 3d 60
        E 120 80 3d 00
        E 360 90 3c 60
        E 960 80 3c 00
        E 480 90 3c 60
        E 480 80 3c 00
        E 480 90 3d 60
        E 120 80 3d 00
        E 360 90 3c 60
        E 480 80 3c 00
        E 480 90 38 60
        E 120 80 38 00
        E 360 90 3c 60
        E 480 80 3c 00
        E 480 90 3d 60
        E 120 80 3d 00
        E 360 90 3c 60
        E 960 80 3c 00
        E 480 90 3f 60
        E 480 80 3f 00
        E 480 90 40 60
        E 120 80 40 00
        E 360 90 3f 60
        E 480 80 3f 00
        E 480 90 3b 60
        E 120 80 3b 00
        E 360 90 3f 60
        E 480 80 3f 00
        E 480 90 40 60
        E 120 80 40 00
        E 360 90 3f 60
        E 960 80 3f 00
        E 480 90 3f 60
        E 480 80 3f 00
        E 480 90 40 60
        E 120 80 40 00
        E 360 90 3f 60
        E 480 80 3f 00
        E 480 90 3b 60
        E 120 80 3b 00
        E 360 90 3a 60
        E 120 80 3a 00
        E 360 90 3d 60
        E 120 80 3d 00
        E 360 90 41 60
        E 120 80 41 00
        E 360 90 3f 60
        E 960 80 3f 00
        E 480 90 3c 60
        E 480 80 3c 00
        E 480 90 3d 60
        E 120 80 3d 00
        E 360 90 3c 60
        E 480 80 3c 00
        E 480 90 38 60
        E 120 80 38 00
        E 360 90 3c 60
        E 480 80 3c 00
        E 480 90 3d 60
        E 120 80 3d 00
        E 360 90 3c 60
        E 960 80 3c 00
        E 480 90 3c 60
        E 480 80 3c 00
        E 480 90 3d 60
        E 120 80 3d 00
        E 360 90 3c 60
        E 480 80 3c 00
        E 480 90 38 60
        E 120 80 38 00
        E 360 90 3c 60
        E 480 80 3c 00
        E 480 90 3d 60
        E 120 80 3d 00
        E 360 90 3c 60
        E 960 80 3c 00
        E 480 90 3f 60
        E 480 80 3f 00
        E 480 90 40 60
        E 120 80 40 00
        E 360 90 3f 60
        E 480 80 3f 00
        E 480 90 3b 60
        E 120 80 3b 00
        E 360 90 3f 60
        E 480 80 3f 00
        E 480 90 40 60
        E 120 80 40 00
        E 360 90 3f 60
        E 960 80 3f 00
        E 480 90 3f 60
        E 480 80 3f 00
        E 480 90 40 60
        E 120 80 40 00
        E 360 90 3f 60
        E 480 80 3f 00
        E 480 90 3b 60
        E 120 80 3b 00
        E 360 90 3a 60
        E 120 80 3a 00
        E 360 90 3d 60
        E 120 80 3d 00
        E 360 90 41 60
        E 120 80 41 00
        E 360 90 3f 60
        E 960 80 3f 00
        E 480 90 3c 60
        E 480 80 3c 00
        E 480 90 3d 60
        E 120 80 3d 00
        E 360 90 3c 60
        E 480 80 3c 00
        E 480 90 38 60
        E 120 80 38 00
        E 360 90 3c 60
        E 480 80 3c 00
        E 480 90 3d 60
        E 120 80 3d 00
        E 360 90 3c 60
        E 960 80 3c 00
        E 480 90 3c 60
        E 480 80 3c 00
        E 480 90 3d 60
        E 120 80 3d 00
        E 360 90 3c 60
        E 480 80 3c 00
        E 480 90 38 60
        E 120 80 38 00
        E 360 90 3c 60
        E 480 80 3c 00
        E 480 90 3d 60
        E 120 80 3d 00
        E 360 90 3c 60
        E 960 80 3c 00
        E 480 90 3f 60
        E 480 80 3f 00
        E 480 90 40 60
        E 120 80 40 00
        E 360 90 3f 60
        E 480 80 3f 00
        E 480 90 3b 60
        E 120 80 3b 00
        E 360 90 3f 60
        E 480 80 3f 00
        E 480 90 40 60
        E 120 80 40 00
        E 360 90 3f 60
        E 960 80 3f 00
        E 480 90 3f 60
        E 480 80 3f 00
        E 480 90 40 60
        E 120 80 40 00
        E 360 90 3f 60
        E 480 80 3f 00
        E 480 90 3b 60
        E 120 80 3b 00
        E 360 90 3a 60
        E 120 80 3a 00
        E 360 90 3d 60
        E 120 80 3d 00
        E 360 90 41 60
        E 120 80 41 00
        E 360 90 3f 60
        E 960 80 3f 00
        E 480 90 3c 60
        E 480 80 3c 00
        E 480 90 3d 60
        E 120 80 3d 00
        E 360 90 3c 60
        E 480 80 3c 00
        E 480 90 38 60
        E 120 80 38 00
        E 360 90 3c 60
        E 480 80 3c 00
        E 480 90 3d 60
        E 120 80 3d 00
        E 360 90 3c 60
        E 960 80 3c 00
        E 480 90 3c 60
        E 480 80 3c 00
        E 480 90 3d 60
        E 120 80 3d 00
        E 360 90 3c 60
        E 480 80 3c 00
        E 480 90 38 60
        E 120 80 38 00
        E 360 90 3c 60
        E 480 80 3c 00
        E 480 90 3d 60
        E 120 80 3d 00
        E 360 90 3c 60
        E 960 80 3c 00
        E 480 90 3f 60
        E 480 80 3f 00
        E 480 90 40 60
        E 120 80 40 00
        E 360 90 3f 60
        E 480 80 3f 00
        E 480 90 3b 60
        E 120 80 3b 00
        E 360 90 3f 60
        E 480 80 3f 00
        E 480 90 40 60
        E 120 80 40 00
        E 360 90 3f 60
        E 960 80 3f 00
        E 480 90 3f 60
        E 480 80 3f 00
        E 480 90 40 60
        E 120 80 40 00
        E 360 90 3f 60
        E 480 80 3f 00
        E 480 90 3b 60
        E 120 80 3b 00
        E 360 90 3a 60
        E 120 80 3a 00
        E 360 90 3d 60
        E 120 80 3d 00
        E 360 90 41 60
        E 120 80 41 00
        E 360 90 3f 60
        E 1440 80 3f 00
        E 2880 b0 7b 00
        GUID {4829ECFF-25C3-4733-8C8D-11C5DA80EFC7}
        IGNTEMPO 0 120.00000000 4 4
        SRCCOLOR 5
        VELLANE 132 128 60
        COLORMAP "C:\Program Files\REAPER (x64)\Data\color_maps\rockband_guitarbass.png"
        CFGEDITVIEW -1029.059742 56.746863 0 15 0 0 0
        CFGEDIT 1 1 0 1 1 0 1 1 1 1 1 0.25000000 -8 -8 1544 872 0 2 1 1 0.00000000 0 1 0 0 0.500000 0 0 1.000000 64
        KEYSNAP 0 6 "102030050700" 0 "Pentatonic"
        EVTFILTER 0 -1 -1 -1 -1 0 1 0 0 -1.00000000 -1.00000000
      >
    >
  >
  <TRACK '{B884F289-D329-458D-8E95-7B1850AD08B3}'
    NAME "PART REAL_KEYS_E"
    PEAKCOL 16576
    BEAT -1
    AUTOMODE 0
    VOLPAN 1.00000000000000 0.00000000000000 -1.00000000000000 -1.00000000000000 1.00000000000000
    MUTESOLO 0 0 0
    IPHASE 0
    ISBUS 0 0
    BUSCOMP 0 0
    SHOWINMIX 1 0.666700 0.500000 1 0.500000 -1 -1 -1
    FREEMODE 0
    SEL 0
    REC 0 0 0 0 0 0 0
    VU 2
    TRACKHEIGHT 0 0
    INQ 0 0 0 0.5000000000 100 0 0 100
    NCHAN 2
    FX 0
    TRACKID {B884F289-D329-458D-8E95-7B1850AD08B3}
    PERF 0
    MIDIOUT -1
    <MIDINOTENAMES
      0 72 "Highest playable note B#3"
      0 71 "B3"
      0 70 "A#3"
      0 69 "A3"
      0 68 "G#3"
      0 67 "G3"
      0 66 "F#3"
      0 65 "F3"
      0 64 "E3"
      0 63 "D#3"
      0 62 "D3"
      0 61 "C#3"
      0 60 "C3"
      0 59 "B2"
      0 58 "A#2"
      0 57 "A2"
      0 56 "G#2"
      0 55 "G2"
      0 54 "F#2"
      0 53 "F2"
      0 52 "E2"
      0 51 "D#2"
      0 50 "D2"
      0 49 "C#2"
      0 48 "Lowest playable note C2"
      0 10 "---"
      0 9 "Range A2-C4"
      0 8 "Range"
      0 7 "Range"
      0 6 "Range"
      0 5 "Range F2-A3"
      0 4 "Range"
      0 3 "Range"
      0 2 "Range"
      0 1 "Range"
      0 0 "Range C2-E3"
    >
    MAINSEND 1 0
    <FXCHAIN
      WNDRECT 0 43 729 467
      SHOW 0
      LASTSEL 0
      DOCKED 0
    >
    <ITEM
      POSITION 0.00000000000000
      SNAPOFFS 0.00000000000000
      LENGTH 122.40856859980200
      LOOP 0
      ALLTAKES 0
      SEL 0
      FADEIN 1 0.000000 0.000000 1 0
      FADEOUT 1 0.000000 0.000000 1 0
      MUTE 0
      IGUID {3E1CF095-2FB1-47C2-81DF-A9B6175795F1}
      IID 10
      NAME "PART REAL_KEYS_E"
      VOLPAN 1.000000 0.000000 1.000000 -1.000000
      SOFFS 0.00000000000000 0.00000000000000
      PLAYRATE 1.00000000000000 1 0.00000000000000 -1
      CHANMODE 0
      GUID {CE53B143-BEBA-4D4F-96E1-B083DD3A09EA}
      <SOURCE MIDI
        HASDATA 1 480 QN
        POOLEDEVTS {4CDB6B5E-9C83-46F9-9711-BF0FB4D43975}
        <X 0 0
          /wNQQVJUIFJFQUxfS0VZU19F
        >
        e 0 90 05 60
        e 120 80 05 00
        E 2760 90 3c 60
        E 480 80 3c 00
        E 480 90 3d 60
        E 120 80 3d 00
        E 360 90 3c 60
        E 600 80 3c 00
        E 840 90 3c 60
        E 480 80 3c 00
        E 480 90 3d 60
        E 120 80 3d 00
        E 360 90 3c 60
        E 960 80 3c 00
        E 480 90 3c 60
        E 480 80 3c 00
        E 480 90 3d 60
        E 120 80 3d 00
        E 360 90 3c 60
        E 600 80 3c 00
        E 840 90 3c 60
        E 480 80 3c 00
        E 480 90 3d 60
        E 120 80 3d 00
        E 360 90 3c 60
        E 960 80 3c 00
        E 480 90 3f 60
        E 480 80 3f 00
        E 480 90 40 60
        E 120 80 40 00
        E 360 90 3f 60
        E 600 80 3f 00
        E 840 90 3f 60
        E 480 80 3f 00
        E 480 90 40 60
        E 120 80 40 00
        E 360 90 3f 60
        E 960 80 3f 00
        E 480 90 3f 60
        E 480 80 3f 00
        E 480 90 40 60
        E 120 80 40 00
        E 360 90 3f 60
        E 600 80 3f 00
        E 840 90 3a 60
        E 360 80 3a 00
        E 600 90 41 60
        E 120 80 41 00
        E 360 90 3f 60
        E 960 80 3f 00
        E 480 90 3c 60
        E 480 80 3c 00
        E 480 90 3d 60
        E 120 80 3d 00
        E 360 90 3c 60
        E 600 80 3c 00
        E 840 90 3c 60
        E 480 80 3c 00
        E 480 90 3d 60
        E 120 80 3d 00
        E 360 90 3c 60
        E 960 80 3c 00
        E 480 90 3c 60
        E 480 80 3c 00
        E 480 90 3d 60
        E 120 80 3d 00
        E 360 90 3c 60
        E 600 80 3c 00
        E 840 90 3c 60
        E 480 80 3c 00
        E 480 90 3d 60
        E 120 80 3d 00
        E 360 90 3c 60
        E 960 80 3c 00
        E 480 90 3f 60
        E 480 80 3f 00
        E 480 90 40 60
        E 120 80 40 00
        E 360 90 3f 60
        E 600 80 3f 00
        E 840 90 3f 60
        E 480 80 3f 00
        E 480 90 40 60
        E 120 80 40 00
        E 360 90 3f 60
        E 960 80 3f 00
        E 480 90 3f 60
        E 480 80 3f 00
        E 480 90 40 60
        E 120 80 40 00
        E 360 90 3f 60
        E 600 80 3f 00
        E 840 90 3a 60
        E 360 80 3a 00
        E 600 90 41 60
        E 120 80 41 00
        E 360 90 3f 60
        E 960 80 3f 00
        E 480 90 3c 60
        E 480 80 3c 00
        E 480 90 3d 60
        E 120 80 3d 00
        E 360 90 3c 60
        E 600 80 3c 00
        E 840 90 3c 60
        E 480 80 3c 00
        E 480 90 3d 60
        E 120 80 3d 00
        E 360 90 3c 60
        E 960 80 3c 00
        E 480 90 3c 60
        E 480 80 3c 00
        E 480 90 3d 60
        E 120 80 3d 00
        E 360 90 3c 60
        E 600 80 3c 00
        E 840 90 3c 60
        E 480 80 3c 00
        E 480 90 3d 60
        E 120 80 3d 00
        E 360 90 3c 60
        E 960 80 3c 00
        E 480 90 3f 60
        E 480 80 3f 00
        E 480 90 40 60
        E 120 80 40 00
        E 360 90 3f 60
        E 600 80 3f 00
        E 840 90 3f 60
        E 480 80 3f 00
        E 480 90 40 60
        E 120 80 40 00
        E 360 90 3f 60
        E 960 80 3f 00
        E 480 90 3f 60
        E 480 80 3f 00
        E 480 90 40 60
        E 120 80 40 00
        E 360 90 3f 60
        E 600 80 3f 00
        E 840 90 3a 60
        E 360 80 3a 00
        E 600 90 41 60
        E 120 80 41 00
        E 360 90 3f 60
        E 960 80 3f 00
        E 480 90 3c 60
        E 480 80 3c 00
        E 480 90 3d 60
        E 120 80 3d 00
        E 360 90 3c 60
        E 600 80 3c 00
        E 840 90 3c 60
        E 480 80 3c 00
        E 480 90 3d 60
        E 120 80 3d 00
        E 360 90 3c 60
        E 960 80 3c 00
        E 480 90 3c 60
        E 480 80 3c 00
        E 480 90 3d 60
        E 120 80 3d 00
        E 360 90 3c 60
        E 600 80 3c 00
        E 840 90 3c 60
        E 480 80 3c 00
        E 480 90 3d 60
        E 120 80 3d 00
        E 360 90 3c 60
        E 960 80 3c 00
        E 480 90 3f 60
        E 480 80 3f 00
        E 480 90 40 60
        E 120 80 40 00
        E 360 90 3f 60
        E 600 80 3f 00
        E 840 90 3f 60
        E 480 80 3f 00
        E 480 90 40 60
        E 120 80 40 00
        E 360 90 3f 60
        E 960 80 3f 00
        E 480 90 3f 60
        E 480 80 3f 00
        E 480 90 40 60
        E 120 80 40 00
        E 360 90 3f 60
        E 600 80 3f 00
        E 840 90 3a 60
        E 360 80 3a 00
        E 600 90 41 60
        E 120 80 41 00
        E 360 90 3f 60
        E 1440 80 3f 00
        E 2880 b0 7b 00
        GUID {4829ECFF-25C3-4733-8C8D-11C5DA80EFC7}
        IGNTEMPO 0 120.00000000 4 4
        SRCCOLOR 5
        VELLANE 132 128 60
        COLORMAP "C:\Program Files\REAPER (x64)\Data\color_maps\rockband_guitarbass.png"
        CFGEDITVIEW -1029.059742 56.746863 0 15 0 0 0
        CFGEDIT 1 1 0 1 1 0 1 1 1 1 1 0.25000000 -8 -8 1544 872 0 2 1 1 0.00000000 0 1 0 0 0.500000 0 0 1.000000 64
        KEYSNAP 0 6 "102030050700" 0 "Pentatonic"
        EVTFILTER 0 -1 -1 -1 -1 0 1 0 0 -1.00000000 -1.00000000
      >
    >
  >
  <TRACK '{C03E109C-1DD8-4308-A32F-1CB29CEB67C8}'
    NAME "PART ANIM_KEYS_RH"
    PEAKCOL 16576
    BEAT -1
    AUTOMODE 0
    VOLPAN 1.00000000000000 0.00000000000000 -1.00000000000000 -1.00000000000000 1.00000000000000
    MUTESOLO 0 0 0
    IPHASE 0
    ISBUS 0 0
    BUSCOMP 0 0
    SHOWINMIX 1 0.666700 0.500000 1 0.500000 -1 -1 -1
    FREEMODE 0
    SEL 0
    REC 0 0 0 0 0 0 0
    VU 2
    TRACKHEIGHT 0 0
    INQ 0 0 0 0.5000000000 100 0 0 100
    NCHAN 2
    FX 0
    TRACKID {C03E109C-1DD8-4308-A32F-1CB29CEB67C8}
    PERF 0
    MIDIOUT -1
    <MIDINOTENAMES
      0 72 "Highest playable note B#3"
      0 71 "B3"
      0 70 "A#3"
      0 69 "A3"
      0 68 "G#3"
      0 67 "G3"
      0 66 "F#3"
      0 65 "F3"
      0 64 "E3"
      0 63 "D#3"
      0 62 "D3"
      0 61 "C#3"
      0 60 "C3"
      0 59 "B2"
      0 58 "A#2"
      0 57 "A2"
      0 56 "G#2"
      0 55 "G2"
      0 54 "F#2"
      0 53 "F2"
      0 52 "E2"
      0 51 "D#2"
      0 50 "D2"
      0 49 "C#2"
      0 48 "Lowest playable note C2"
    >
    MAINSEND 1 0
    <FXCHAIN
      WNDRECT 0 43 729 467
      SHOW 0
      LASTSEL 0
      DOCKED 0
    >
    <ITEM
      POSITION 0.00000000000000
      SNAPOFFS 0.00000000000000
      LENGTH 122.40856859980200
      LOOP 0
      ALLTAKES 0
      SEL 0
      FADEIN 1 0.000000 0.000000 1 0
      FADEOUT 1 0.000000 0.000000 1 0
      MUTE 0
      IGUID {3E1CF095-2FB1-47C2-81DF-A9B6175795F1}
      IID 10
      NAME "PART ANIM_KEYS_RH"
      VOLPAN 1.000000 0.000000 1.000000 -1.000000
      SOFFS 0.00000000000000 0.00000000000000
      PLAYRATE 1.00000000000000 1 0.00000000000000 -1
      CHANMODE 0
      GUID {CE53B143-BEBA-4D4F-96E1-B083DD3A09EA}
      <SOURCE MIDI
        HASDATA 1 480 QN
        POOLEDEVTS {B30AE7C2-2668-4F5E-9B03-F61DACFECAD6}
        <X 0 0
          /wNQQVJUIEtFWVNfQU5JTV9SSA==
        >
        E 2880 90 3c 60
        E 840 80 3c 00
        E 120 90 3d 60
        E 360 80 3d 00
        E 120 90 3c 60
        E 600 80 3c 00
        E 120 90 3a 60
        E 120 80 3a 00
        E 120 90 38 60
        E 360 80 38 00
        E 120 90 3c 60
        E 840 80 3c 00
        E 120 90 3d 60
        E 360 80 3d 00
        E 120 90 3c 60
        E 1320 80 3c 00
        E 120 90 3c 60
        E 840 80 3c 00
        E 120 90 3d 60
        E 360 80 3d 00
        E 120 90 3c 60
        E 600 80 3c 00
        E 120 90 3a 60
        E 120 80 3a 00
        E 120 90 38 60
        E 360 80 38 00
        E 120 90 3c 60
        E 840 80 3c 00
        E 120 90 3d 60
        E 360 80 3d 00
        E 120 90 3c 60
        E 1320 80 3c 00
        E 120 90 3f 60
        E 840 80 3f 00
        E 120 90 40 60
        E 360 80 40 00
        E 120 90 3f 60
        E 600 80 3f 00
        E 120 90 3d 60
        E 120 80 3d 00
        E 120 90 3b 60
        E 360 80 3b 00
        E 120 90 3f 60
        E 840 80 3f 00
        E 120 90 40 60
        E 360 80 40 00
        E 120 90 3f 60
        E 1320 80 3f 00
        E 120 90 3f 60
        E 840 80 3f 00
        E 120 90 40 60
        E 360 80 40 00
        E 120 90 3f 60
        E 600 80 3f 00
        E 120 90 3d 60
        E 120 80 3d 00
        E 120 90 3b 60
        E 360 80 3b 00
        E 120 90 3a 60
        E 360 80 3a 00
        E 120 90 3d 60
        E 360 80 3d 00
        E 120 90 41 60
        E 360 80 41 00
        E 120 90 3f 60
        E 1320 80 3f 00
        E 120 90 3c 60
        E 840 80 3c 00
        E 120 90 3d 60
        E 360 80 3d 00
        E 120 90 3c 60
        E 600 80 3c 00
        E 120 90 3a 60
        E 120 80 3a 00
        E 120 90 38 60
        E 360 80 38 00
        E 120 90 3c 60
        E 840 80 3c 00
        E 120 90 3d 60
        E 360 80 3d 00
        E 120 90 3c 60
        E 1320 80 3c 00
        E 120 90 3c 60
        E 840 80 3c 00
        E 120 90 3d 60
        E 360 80 3d 00
        E 120 90 3c 60
        E 600 80 3c 00
        E 120 90 3a 60
        E 120 80 3a 00
        E 120 90 38 60
        E 360 80 38 00
        E 120 90 3c 60
        E 840 80 3c 00
        E 120 90 3d 60
        E 360 80 3d 00
        E 120 90 3c 60
        E 1320 80 3c 00
        E 120 90 3f 60
        E 840 80 3f 00
        E 120 90 40 60
        E 360 80 40 00
        E 120 90 3f 60
        E 600 80 3f 00
        E 120 90 3d 60
        E 120 80 3d 00
        E 120 90 3b 60
        E 360 80 3b 00
        E 120 90 3f 60
        E 840 80 3f 00
        E 120 90 40 60
        E 360 80 40 00
        E 120 90 3f 60
        E 1320 80 3f 00
        E 120 90 3f 60
        E 840 80 3f 00
        E 120 90 40 60
        E 360 80 40 00
        E 120 90 3f 60
        E 600 80 3f 00
        E 120 90 3d 60
        E 120 80 3d 00
        E 120 90 3b 60
        E 360 80 3b 00
        E 120 90 3a 60
        E 360 80 3a 00
        E 120 90 3d 60
        E 360 80 3d 00
        E 120 90 41 60
        E 360 80 41 00
        E 120 90 3f 60
        E 1320 80 3f 00
        E 120 90 3c 60
        E 840 80 3c 00
        E 120 90 3d 60
        E 360 80 3d 00
        E 120 90 3c 60
        E 600 80 3c 00
        E 120 90 3a 60
        E 120 80 3a 00
        E 120 90 38 60
        E 360 80 38 00
        E 120 90 3c 60
        E 840 80 3c 00
        E 120 90 3d 60
        E 360 80 3d 00
        E 120 90 3c 60
        E 1320 80 3c 00
        E 120 90 3c 60
        E 840 80 3c 00
        E 120 90 3d 60
        E 360 80 3d 00
        E 120 90 3c 60
        E 600 80 3c 00
        E 120 90 3a 60
        E 120 80 3a 00
        E 120 90 38 60
        E 360 80 38 00
        E 120 90 3c 60
        E 840 80 3c 00
        E 120 90 3d 60
        E 360 80 3d 00
        E 120 90 3c 60
        E 1320 80 3c 00
        E 120 90 3f 60
        E 840 80 3f 00
        E 120 90 40 60
        E 360 80 40 00
        E 120 90 3f 60
        E 600 80 3f 00
        E 120 90 3d 60
        E 120 80 3d 00
        E 120 90 3b 60
        E 360 80 3b 00
        E 120 90 3f 60
        E 840 80 3f 00
        E 120 90 40 60
        E 360 80 40 00
        E 120 90 3f 60
        E 1320 80 3f 00
        E 120 90 3f 60
        E 840 80 3f 00
        E 120 90 40 60
        E 360 80 40 00
        E 120 90 3f 60
        E 600 80 3f 00
        E 120 90 3d 60
        E 120 80 3d 00
        E 120 90 3b 60
        E 360 80 3b 00
        E 120 90 3a 60
        E 360 80 3a 00
        E 120 90 3d 60
        E 360 80 3d 00
        E 120 90 41 60
        E 360 80 41 00
        E 120 90 3f 60
        E 1320 80 3f 00
        E 120 90 3c 60
        E 840 80 3c 00
        E 120 90 3d 60
        E 360 80 3d 00
        E 120 90 3c 60
        E 600 80 3c 00
        E 120 90 3a 60
        E 120 80 3a 00
        E 120 90 38 60
        E 360 80 38 00
        E 120 90 3c 60
        E 840 80 3c 00
        E 120 90 3d 60
        E 360 80 3d 00
        E 120 90 3c 60
        E 1320 80 3c 00
        E 120 90 3c 60
        E 840 80 3c 00
        E 120 90 3d 60
        E 360 80 3d 00
        E 120 90 3c 60
        E 600 80 3c 00
        E 120 90 3a 60
        E 120 80 3a 00
        E 120 90 38 60
        E 360 80 38 00
        E 120 90 3c 60
        E 840 80 3c 00
        E 120 90 3d 60
        E 360 80 3d 00
        E 120 90 3c 60
        E 1320 80 3c 00
        E 120 90 3f 60
        E 840 80 3f 00
        E 120 90 40 60
        E 360 80 40 00
        E 120 90 3f 60
        E 600 80 3f 00
        E 120 90 3d 60
        E 120 80 3d 00
        E 120 90 3b 60
        E 360 80 3b 00
        E 120 90 3f 60
        E 840 80 3f 00
        E 120 90 40 60
        E 360 80 40 00
        E 120 90 3f 60
        E 1320 80 3f 00
        E 120 90 3f 60
        E 840 80 3f 00
        E 120 90 40 60
        E 360 80 40 00
        E 120 90 3f 60
        E 600 80 3f 00
        E 120 90 3d 60
        E 120 80 3d 00
        E 120 90 3b 60
        E 360 80 3b 00
        E 120 90 3a 60
        E 360 80 3a 00
        E 120 90 3d 60
        E 360 80 3d 00
        E 120 90 41 60
        E 360 80 41 00
        E 120 90 3f 60
        E 1440 80 3f 00
        E 2880 b0 7b 00
        GUID {4829ECFF-25C3-4733-8C8D-11C5DA80EFC7}
        IGNTEMPO 0 120.00000000 4 4
        SRCCOLOR 5
        VELLANE 132 128 60
        COLORMAP "C:\Program Files\REAPER (x64)\Data\color_maps\rockband_guitarbass.png"
        CFGEDITVIEW -4906.620390 10.271117 0 22 0 0 0
        CFGEDIT 1 1 0 1 1 0 1 1 1 1 1 0.25000000 -8 -8 1544 872 0 2 1 1 0.00000000 0 1 0 0 0.500000 0 0 1.000000 64
        KEYSNAP 0 6 "102030050700" 0 "Pentatonic"
        EVTFILTER 0 -1 -1 -1 -1 0 1 0 0 -1.00000000 -1.00000000
      >
    >
  >
  <TRACK '{1F174865-1CA1-4E58-AB78-545F628C2526}'
    NAME "keys"
    PEAKCOL 16576
    BEAT -1
    AUTOMODE 0
    VOLPAN 1.00000000000000 0.00000000000000 -1.00000000000000 -1.00000000000000 1.00000000000000
    MUTESOLO 0 0 0
    IPHASE 0
    ISBUS 2 -1
    BUSCOMP 0 0
    SHOWINMIX 1 0.666700 0.500000 1 0.500000 -1 -1 -1
    FREEMODE 0
    SEL 0
    REC 0 0 0 0 0 0 0
    VU 2
    TRACKHEIGHT 0 0
    INQ 0 0 0 0.5000000000 100 0 0 100
    NCHAN 2
    FX 1
    TRACKID {1F174865-1CA1-4E58-AB78-545F628C2526}
    PERF 0
    MIDIOUT -1
    MAINSEND 1 0
    <ITEM
      POSITION 0.00000000000000
      SNAPOFFS 0.00000000000000
      LENGTH 122.40857142857143
      LOOP 0
      ALLTAKES 0
      SEL 0
      FADEIN 1 0.000000 0.000000 1 0
      FADEOUT 1 0.000000 0.000000 1 0
      MUTE 0
      IGUID {DA1794BE-59DE-4D1C-A61C-A1DC7C9B0645}
      IID 20
      NAME "keys.wav"
      VOLPAN 1.000000 0.000000 1.000000 -1.000000
      SOFFS 0.00000000000000
      PLAYRATE 1.00000000000000 1 0.00000000000000 -1
      CHANMODE 0
      GUID {D26705C3-0271-4CDB-9BD2-B79638F5D4DC}
      <SOURCE WAVE
        FILE "wav\keys.wav"
      >
    >
  >
  <TRACK '{E6539D3C-2AA3-4B69-B9AD-CF9DF81F695E}'
    NAME "PART REAL_BASS"
    PEAKCOL 16576
    BEAT -1
    AUTOMODE 0
    VOLPAN 1.00000000000000 0.00000000000000 -1.00000000000000 -1.00000000000000 1.00000000000000
    MUTESOLO 0 0 0
    IPHASE 0
    ISBUS 0 0
    BUSCOMP 0 0
    SHOWINMIX 1 0.666700 0.500000 1 0.500000 -1 -1 -1
    FREEMODE 0
    SEL 0
    REC 0 0 0 0 0 0 0
    VU 2
    TRACKHEIGHT 0 0
    INQ 0 0 0 0.5000000000 100 0 0 100
    NCHAN 2
    FX 0
    TRACKID {E6539D3C-2AA3-4B69-B9AD-CF9DF81F695E}
    PERF 0
    MIDIOUT -1
    <MIDINOTENAMES
      0 127 "Trill Marker"
      0 126 "Tremolo Marker"
      0 125 "BRE"
      0 124 "BRE"
      0 123 "BRE"
      0 122 "BRE"
      0 121 "BRE"
      0 120 "BRE (use all 6)"
      0 119 "-----------"
      0 116 "OVERDRIVE"
      0 115 "Solo Marker"
      0 109 "-----------"
      0 108 "Fret Hand Position"
      0 107 "Force Chord Numbering"
      0 106 "Loose Strumming"
      0 105 "Strum Direction"
      0 104 "Arpeggio Marker"
      0 103 "Slide Marker"
      0 102 "Force HOPO"
      0 101 "EXPERT e String"
      0 100 "EXPERT B String"
      0 99 "EXPERT G String"
      0 98 "EXPERT D String"
      0 97 "EXPERT A String"
      0 96 "EXPERT E String"
      0 95 "-----------"
      0 82 "Loose Strumming"
      0 81 "Strum Direction"
      0 80 "Arpeggio Marker"
      0 79 "Slide Marker"
      0 78 "Force HOPO"
      0 77 "HARD e String"
      0 76 "HARD B String"
      0 75 "HARD G String"
      0 74 "HARD D String"
      0 73 "HARD A String"
      0 72 "HARD E String"
      0 71 "-----------"
      0 58 "Loose Strumming"
      0 56 "Arpeggio Marker"
      0 55 "Slide Marker"
      0 53 "MEDIUM e String"
      0 52 "MEDIUM B String"
      0 51 "MEDIUM G String"
      0 50 "MEDIUM D String"
      0 49 "MEDIUM A String"
      0 48 "MEDIUM E String"
      0 47 "-----------"
      0 32 "Arpeggio Marker"
      0 31 "Slide Marker"
      0 29 "EASY e String"
      0 28 "EASY B String"
      0 27 "EASY G String"
      0 26 "EASY D String"
      0 25 "EASY A String"
      0 24 "EASY E String"
      0 21 "-----------"
      0 18 "Flat/Sharp Swap"
      0 17 "Hide Chord Names"
      0 16 "Slash Chord"
      0 15 "D#"
      0 14 "D"
      0 13 "C#"
      0 12 "C"
      0 11 "B"
      0 10 "A#"
      0 9 "A"
      0 8 "G#"
      0 7 "G"
      0 6 "F#"
      0 5 "F"
      0 4 "E"
    >
    MAINSEND 1 0
    <FXCHAIN
      WNDRECT 0 43 729 467
      SHOW 0
      LASTSEL 2
      DOCKED 0
      BYPASS 0 0
      <JS "c3/progtr" ""
        0.000000 3.000000 0.000000 0.000000 0.000000 0.000000 0.000000 0.000000 0.000000 1.000000 - - - - - - - - - - - - - - - - - - - - - - - - - - - - - - - - - - - - - - - - - - - - - - - - - - - - - - 
      >
      FLOATPOS 0 0 0 0
      FXID {BB979FB3-BC5B-4063-95A2-137CA8A785E3}
      WAK 0
      BYPASS 0 0
      <JS "MIDI/midi_transpose" ""
        -12.000000 1.000000 0.000000 127.000000 - - - - - - - - - - - - - - - - - - - - - - - - - - - - - - - - - - - - - - - - - - - - - - - - - - - - - - - - - - - - 
      >
      FLOATPOS 0 0 0 0
      FXID {DE2EB35D-A92D-486F-A843-96E8935012C0}
      WAK 0
      BYPASS 0 0
      <VST "VSTi: ReaSynth (Cockos)" "reasynth.dll" 0 ""
        eXNlcu9e7f4AAAAAAgAAAAEAAAAAAAAAAgAAAAAAAAA4AAAAAAAAAA==
        AAAQAO++rd4N8K3eppvEO+gJMjwAAAAAAAAAAAAAgD8AAIA/4jAEPA==
        AAAAAAAAAD+01hM+j8L1PQAAAD8AABAAAAA=
      >
      FLOATPOS 0 0 0 0
      FXID {3D419ABE-62FD-48F0-9C9B-9352F99C9355}
      WAK 0
    >
    <ITEM
      POSITION 0.00000000000000
      SNAPOFFS 0.00000000000000
      LENGTH 122.40856859980200
      LOOP 0
      ALLTAKES 0
      SEL 0
      FADEIN 1 0.000000 0.000000 1 0
      FADEOUT 1 0.000000 0.000000 1 0
      MUTE 0
      IGUID {4EA8E7B8-33C2-4A99-AAAE-964BFF616B7B}
      IID 7
      NAME "PART REAL_BASS"
      VOLPAN 1.000000 0.000000 1.000000 -1.000000
      SOFFS 0.00000000000000 0.00000000000000
      PLAYRATE 1.00000000000000 1 0.00000000000000 -1
      CHANMODE 0
      GUID {AC91301D-0B36-4D01-8007-984A32BB43B9}
      <SOURCE MIDI
        HASDATA 1 480 QN
        POOLEDEVTS {4CC2B979-D8E6-4EF1-AEFD-0AEC76A5F9C8}
        <X 0 0
          /wNQQVJUIFJFQUxfQkFTUw==
        >
        <X 2880 0
          /wFbYmVnaW5fcGIgc29uZ190cmFpbmVyX3BiXzFd
        >
        E 0 90 32 6a
        E 0 90 4a 6a
        E 0 90 62 6a
        E 0 90 6c 69
        e 0 90 1a 6a
        E 120 80 6c 00
        E 240 80 32 00
        E 0 80 4a 00
        E 0 80 62 00
        e 0 80 1a 00
        E 120 90 33 69
        E 0 90 4b 69
        E 0 90 63 69
        E 360 80 33 00
        E 0 80 4b 00
        E 0 80 63 00
        E 120 90 33 6c
        E 0 90 4b 6c
        E 0 90 63 6c
        e 0 90 1b 6c
        E 360 80 33 00
        E 0 80 4b 00
        E 0 80 63 00
        e 0 80 1b 00
        <X 120 0
          /wFbcGJfbm9ybSBzb25nX3RyYWluZXJfcGJfMV0=
        >
        E 0 90 31 68
        E 0 90 49 68
        E 0 90 61 68
        E 0 90 6c 67
        e 0 90 19 68
        E 120 80 6c 00
        E 240 80 31 00
        E 0 80 49 00
        E 0 80 61 00
        e 0 80 19 00
        E 120 90 32 67
        E 0 90 4a 67
        E 0 90 62 67
        E 360 80 32 00
        E 0 80 4a 00
        E 0 80 62 00
        E 120 90 33 6a
        E 0 90 4b 6a
        E 0 90 63 6a
        E 360 80 33 00
        E 0 80 4b 00
        E 0 80 63 00
        E 120 90 32 6a
        E 0 90 4a 6a
        E 0 90 62 6a
        E 0 90 6c 69
        e 0 90 1a 6a
        E 120 80 6c 00
        E 240 80 32 00
        E 0 80 4a 00
        E 0 80 62 00
        e 0 80 1a 00
        E 120 90 33 69
        E 0 90 4b 69
        E 0 90 63 69
        E 360 80 33 00
        E 0 80 4b 00
        E 0 80 63 00
        E 120 90 33 6c
        E 0 90 4b 6c
        E 0 90 63 6c
        e 0 90 1b 6c
        E 360 80 33 00
        E 0 80 4b 00
        E 0 80 63 00
        e 0 80 1b 00
        E 120 90 31 68
        E 0 90 49 68
        E 0 90 61 68
        E 0 90 6c 67
        e 0 90 19 68
        E 120 80 6c 00
        E 240 80 31 00
        E 0 80 49 00
        E 0 80 61 00
        e 0 80 19 00
        E 120 90 32 67
        E 0 90 4a 67
        E 0 90 62 67
        E 360 80 32 00
        E 0 80 4a 00
        E 0 80 62 00
        E 120 90 33 6a
        E 0 90 4b 6a
        E 0 90 63 6a
        E 360 80 33 00
        E 0 80 4b 00
        E 0 80 63 00
        <X 120 0
          /wFbZW5kX3BiIHNvbmdfdHJhaW5lcl9wYl8xXQ==
        >
        E 0 90 32 6a
        E 0 90 4a 6a
        E 0 90 62 6a
        E 0 90 6c 69
        e 0 90 1a 6a
        E 120 80 6c 00
        E 240 80 32 00
        E 0 80 4a 00
        E 0 80 62 00
        e 0 80 1a 00
        E 120 90 33 69
        E 0 90 4b 69
        E 0 90 63 69
        E 360 80 33 00
        E 0 80 4b 00
        E 0 80 63 00
        E 120 90 33 6c
        E 0 90 4b 6c
        E 0 90 63 6c
        e 0 90 1b 6c
        E 360 80 33 00
        E 0 80 4b 00
        E 0 80 63 00
        e 0 80 1b 00
        E 120 90 31 68
        E 0 90 49 68
        E 0 90 61 68
        E 0 90 6c 67
        e 0 90 19 68
        E 120 80 6c 00
        E 240 80 31 00
        E 0 80 49 00
        E 0 80 61 00
        e 0 80 19 00
        E 120 90 32 67
        E 0 90 4a 67
        E 0 90 62 67
        E 360 80 32 00
        E 0 80 4a 00
        E 0 80 62 00
        E 120 90 33 6a
        E 0 90 4b 6a
        E 0 90 63 6a
        E 360 80 33 00
        E 0 80 4b 00
        E 0 80 63 00
        E 120 90 32 6a
        E 0 90 4a 6a
        E 0 90 62 6a
        E 0 90 6c 69
        e 0 90 1a 6a
        E 120 80 6c 00
        E 240 80 32 00
        E 0 80 4a 00
        E 0 80 62 00
        e 0 80 1a 00
        E 120 90 33 69
        E 0 90 4b 69
        E 0 90 63 69
        E 360 80 33 00
        E 0 80 4b 00
        E 0 80 63 00
        E 120 90 33 6c
        E 0 90 4b 6c
        E 0 90 63 6c
        e 0 90 1b 6c
        E 360 80 33 00
        E 0 80 4b 00
        E 0 80 63 00
        e 0 80 1b 00
        E 120 90 31 68
        E 0 90 49 68
        E 0 90 61 68
        E 0 90 6c 67
        e 0 90 19 68
        E 120 80 6c 00
        E 240 80 31 00
        E 0 80 49 00
        E 0 80 61 00
        e 0 80 19 00
        E 120 90 32 67
        E 0 90 4a 67
        E 0 90 62 67
        E 360 80 32 00
        E 0 80 4a 00
        E 0 80 62 00
        E 120 90 33 6a
        E 0 90 4b 6a
        E 0 90 63 6a
        E 360 80 33 00
        E 0 80 4b 00
        E 0 80 63 00
        <X 120 0
          /wFbYmVnaW5fcGIgc29uZ190cmFpbmVyX3BiXzJd
        >
        E 0 90 32 6d
        E 0 90 4a 6d
        E 0 90 62 6d
        E 0 90 6c 6c
        E 0 90 74 60
        e 0 90 1a 6d
        E 120 80 6c 00
        E 240 80 32 00
        E 0 80 4a 00
        E 0 80 62 00
        e 0 80 1a 00
        E 120 90 33 6c
        E 0 90 4b 6c
        E 0 90 63 6c
        E 360 80 33 00
        E 0 80 4b 00
        E 0 80 63 00
        E 120 90 33 6f
        E 0 90 4b 6f
        E 0 90 63 6f
        e 0 90 1b 6f
        E 360 80 33 00
        E 0 80 4b 00
        E 0 80 63 00
        e 0 80 1b 00
        <X 120 0
          /wFbcGJfbm9ybSBzb25nX3RyYWluZXJfcGJfMl0=
        >
        E 0 90 31 6b
        E 0 90 49 6b
        E 0 90 61 6b
        E 0 90 6c 6a
        e 0 90 19 6b
        E 120 80 6c 00
        E 240 80 31 00
        E 0 80 49 00
        E 0 80 61 00
        e 0 80 19 00
        E 120 90 32 6a
        E 0 90 4a 6a
        E 0 90 62 6a
        E 360 80 32 00
        E 0 80 4a 00
        E 0 80 62 00
        E 120 90 33 6d
        E 0 90 4b 6d
        E 0 90 63 6d
        E 360 80 33 00
        E 0 80 4b 00
        E 0 80 63 00
        E 120 90 32 6d
        E 0 90 4a 6d
        E 0 90 62 6d
        E 0 90 6c 6c
        E 0 80 74 00
        e 0 90 1a 6d
        E 120 80 6c 00
        E 240 80 32 00
        E 0 80 4a 00
        E 0 80 62 00
        e 0 80 1a 00
        E 120 90 33 6c
        E 0 90 4b 6c
        E 0 90 63 6c
        E 360 80 33 00
        E 0 80 4b 00
        E 0 80 63 00
        E 120 90 33 6f
        E 0 90 4b 6f
        E 0 90 63 6f
        e 0 90 1b 6f
        E 360 80 33 00
        E 0 80 4b 00
        E 0 80 63 00
        e 0 80 1b 00
        E 120 90 31 6b
        E 0 90 49 6b
        E 0 90 61 6b
        E 0 90 6c 6a
        e 0 90 19 6b
        E 120 80 6c 00
        E 240 80 31 00
        E 0 80 49 00
        E 0 80 61 00
        e 0 80 19 00
        E 120 90 32 6a
        E 0 90 4a 6a
        E 0 90 62 6a
        E 360 80 32 00
        E 0 80 4a 00
        E 0 80 62 00
        E 120 90 33 6d
        E 0 90 4b 6d
        E 0 90 63 6d
        E 360 80 33 00
        E 0 80 4b 00
        E 0 80 63 00
        <X 120 0
          /wFbZW5kX3BiIHNvbmdfdHJhaW5lcl9wYl8yXQ==
        >
        <X 0 0
          /wFbYmVnaW5fcGIgc29uZ190cmFpbmVyX3BiXzNd
        >
        E 0 90 32 6d
        E 0 90 4a 6d
        E 0 90 62 6d
        E 0 90 6c 6c
        e 0 90 1a 6d
        E 120 80 6c 00
        E 240 80 32 00
        E 0 80 4a 00
        E 0 80 62 00
        e 0 80 1a 00
        E 120 90 33 6c
        E 0 90 4b 6c
        E 0 90 63 6c
        E 360 80 33 00
        E 0 80 4b 00
        E 0 80 63 00
        E 120 90 33 6f
        E 0 90 4b 6f
        E 0 90 63 6f
        e 0 90 1b 6f
        E 360 80 33 00
        E 0 80 4b 00
        E 0 80 63 00
        e 0 80 1b 00
        <X 120 0
          /wFbcGJfbm9ybSBzb25nX3RyYWluZXJfcGJfM10=
        >
        E 0 90 31 6b
        E 0 90 49 6b
        E 0 90 61 6b
        E 0 90 6c 6a
        e 0 90 19 6b
        E 120 80 6c 00
        E 240 80 31 00
        E 0 80 49 00
        E 0 80 61 00
        e 0 80 19 00
        E 120 90 32 6a
        E 0 90 4a 6a
        E 0 90 62 6a
        E 360 80 32 00
        E 0 80 4a 00
        E 0 80 62 00
        E 120 90 33 6d
        E 0 90 4b 6d
        E 0 90 63 6d
        e 0 90 1b 6d
        E 360 80 33 00
        E 0 80 4b 00
        E 0 80 63 00
        e 0 80 1b 00
        E 120 90 32 6c
        E 0 90 4a 6c
        E 0 90 62 6c
        E 0 90 6c 6c
        e 0 90 1a 6c
        E 120 80 6c 00
        E 240 80 32 00
        E 0 80 4a 00
        E 0 80 62 00
        e 0 80 1a 00
        E 120 90 31 6c
        E 0 90 49 6c
        E 0 90 61 6c
        E 360 80 31 00
        E 0 80 49 00
        E 0 80 61 00
        E 120 90 30 6d
        E 0 90 48 6d
        E 0 90 60 6d
        e 0 90 18 6d
        E 360 80 30 00
        E 0 80 48 00
        E 0 80 60 00
        e 0 80 18 00
        E 120 90 31 6e
        E 0 90 49 6e
        E 0 90 61 6e
        e 0 90 19 6e
        E 1320 80 31 00
        E 0 80 49 00
        E 0 80 61 00
        e 0 80 19 00
        <X 120 0
          /wFbZW5kX3BiIHNvbmdfdHJhaW5lcl9wYl8zXQ==
        >
        E 0 90 32 6a
        E 0 90 4a 6a
        E 0 90 62 6a
        E 0 90 6c 69
        E 0 90 74 60
        e 0 90 1a 6a
        E 120 80 6c 00
        E 240 80 32 00
        E 0 80 4a 00
        E 0 80 62 00
        e 0 80 1a 00
        E 120 90 33 69
        E 0 90 4b 69
        E 0 90 63 69
        E 360 80 33 00
        E 0 80 4b 00
        E 0 80 63 00
        E 120 90 33 6c
        E 0 90 4b 6c
        E 0 90 63 6c
        e 0 90 1b 6c
        E 360 80 33 00
        E 0 80 4b 00
        E 0 80 63 00
        e 0 80 1b 00
        E 120 90 31 68
        E 0 90 49 68
        E 0 90 61 68
        E 0 90 6c 67
        e 0 90 19 68
        E 120 80 6c 00
        E 240 80 31 00
        E 0 80 49 00
        E 0 80 61 00
        e 0 80 19 00
        E 120 90 32 67
        E 0 90 4a 67
        E 0 90 62 67
        E 360 80 32 00
        E 0 80 4a 00
        E 0 80 62 00
        E 120 90 33 6a
        E 0 90 4b 6a
        E 0 90 63 6a
        E 360 80 33 00
        E 0 80 4b 00
        E 0 80 63 00
        E 120 90 32 6a
        E 0 90 4a 6a
        E 0 90 62 6a
        E 0 90 6c 69
        E 0 80 74 00
        e 0 90 1a 6a
        E 120 80 6c 00
        E 240 80 32 00
        E 0 80 4a 00
        E 0 80 62 00
        e 0 80 1a 00
        E 120 90 33 69
        E 0 90 4b 69
        E 0 90 63 69
        E 360 80 33 00
        E 0 80 4b 00
        E 0 80 63 00
        E 120 90 33 6c
        E 0 90 4b 6c
        E 0 90 63 6c
        e 0 90 1b 6c
        E 360 80 33 00
        E 0 80 4b 00
        E 0 80 63 00
        e 0 80 1b 00
        E 120 90 31 68
        E 0 90 49 68
        E 0 90 61 68
        E 0 90 6c 67
        e 0 90 19 68
        E 120 80 6c 00
        E 240 80 31 00
        E 0 80 49 00
        E 0 80 61 00
        e 0 80 19 00
        E 120 90 32 67
        E 0 90 4a 67
        E 0 90 62 67
        E 360 80 32 00
        E 0 80 4a 00
        E 0 80 62 00
        E 120 90 33 6a
        E 0 90 4b 6a
        E 0 90 63 6a
        E 360 80 33 00
        E 0 80 4b 00
        E 0 80 63 00
        E 120 90 32 6a
        E 0 90 4a 6a
        E 0 90 62 6a
        E 0 90 6c 69
        e 0 90 1a 6a
        E 120 80 6c 00
        E 240 80 32 00
        E 0 80 4a 00
        E 0 80 62 00
        e 0 80 1a 00
        E 120 90 33 69
        E 0 90 4b 69
        E 0 90 63 69
        E 360 80 33 00
        E 0 80 4b 00
        E 0 80 63 00
        E 120 90 33 6c
        E 0 90 4b 6c
        E 0 90 63 6c
        e 0 90 1b 6c
        E 360 80 33 00
        E 0 80 4b 00
        E 0 80 63 00
        e 0 80 1b 00
        E 120 90 31 68
        E 0 90 49 68
        E 0 90 61 68
        E 0 90 6c 67
        e 0 90 19 68
        E 120 80 6c 00
        E 240 80 31 00
        E 0 80 49 00
        E 0 80 61 00
        e 0 80 19 00
        E 120 90 32 67
        E 0 90 4a 67
        E 0 90 62 67
        E 360 80 32 00
        E 0 80 4a 00
        E 0 80 62 00
        E 120 90 33 6a
        E 0 90 4b 6a
        E 0 90 63 6a
        E 360 80 33 00
        E 0 80 4b 00
        E 0 80 63 00
        E 120 90 32 6a
        E 0 90 4a 6a
        E 0 90 62 6a
        E 0 90 6c 69
        e 0 90 1a 6a
        E 120 80 6c 00
        E 240 80 32 00
        E 0 80 4a 00
        E 0 80 62 00
        e 0 80 1a 00
        E 120 90 33 69
        E 0 90 4b 69
        E 0 90 63 69
        E 360 80 33 00
        E 0 80 4b 00
        E 0 80 63 00
        E 120 90 33 6c
        E 0 90 4b 6c
        E 0 90 63 6c
        e 0 90 1b 6c
        E 360 80 33 00
        E 0 80 4b 00
        E 0 80 63 00
        e 0 80 1b 00
        E 120 90 31 68
        E 0 90 49 68
        E 0 90 61 68
        E 0 90 6c 67
        e 0 90 19 68
        E 120 80 6c 00
        E 240 80 31 00
        E 0 80 49 00
        E 0 80 61 00
        e 0 80 19 00
        E 120 90 32 67
        E 0 90 4a 67
        E 0 90 62 67
        E 360 80 32 00
        E 0 80 4a 00
        E 0 80 62 00
        E 120 90 33 6a
        E 0 90 4b 6a
        E 0 90 63 6a
        E 360 80 33 00
        E 0 80 4b 00
        E 0 80 63 00
        E 120 90 32 6d
        E 0 90 4a 6d
        E 0 90 62 6d
        E 0 90 6c 6c
        e 0 90 1a 6d
        E 120 80 6c 00
        E 240 80 32 00
        E 0 80 4a 00
        E 0 80 62 00
        e 0 80 1a 00
        E 120 90 63 6c
        E 360 80 63 00
        E 120 90 33 6f
        E 0 90 4b 6f
        E 0 90 63 6f
        e 0 90 1b 6f
        E 360 80 33 00
        E 0 80 4b 00
        E 0 80 63 00
        e 0 80 1b 00
        E 120 90 31 6b
        E 0 90 49 6b
        E 0 90 61 6b
        E 0 90 6c 6a
        e 0 90 19 6b
        E 120 80 6c 00
        E 240 80 31 00
        E 0 80 49 00
        E 0 80 61 00
        e 0 80 19 00
        E 120 90 32 6a
        E 0 90 4a 6a
        E 0 90 62 6a
        E 360 80 32 00
        E 0 80 4a 00
        E 0 80 62 00
        E 120 90 33 6d
        E 0 90 4b 6d
        E 0 90 63 6d
        E 360 80 33 00
        E 0 80 4b 00
        E 0 80 63 00
        E 120 90 32 6d
        E 0 90 4a 6d
        E 0 90 62 6d
        E 0 90 6c 6c
        e 0 90 1a 6d
        E 120 80 6c 00
        E 240 80 32 00
        E 0 80 4a 00
        E 0 80 62 00
        e 0 80 1a 00
        E 120 90 33 6c
        E 0 90 4b 6c
        E 0 90 63 6c
        E 360 80 33 00
        E 0 80 4b 00
        E 0 80 63 00
        E 120 90 33 6f
        E 0 90 4b 6f
        E 0 90 63 6f
        e 0 90 1b 6f
        E 360 80 33 00
        E 0 80 4b 00
        E 0 80 63 00
        e 0 80 1b 00
        E 120 90 31 6b
        E 0 90 49 6b
        E 0 90 61 6b
        E 0 90 6c 6a
        e 0 90 19 6b
        E 120 80 6c 00
        E 240 80 31 00
        E 0 80 49 00
        E 0 80 61 00
        e 0 80 19 00
        E 120 90 32 6a
        E 0 90 4a 6a
        E 0 90 62 6a
        E 360 80 32 00
        E 0 80 4a 00
        E 0 80 62 00
        E 120 90 33 6d
        E 0 90 4b 6d
        E 0 90 63 6d
        E 360 80 33 00
        E 0 80 4b 00
        E 0 80 63 00
        E 120 90 32 6d
        E 0 90 4a 6d
        E 0 90 62 6d
        E 0 90 6c 6c
        e 0 90 1a 6d
        E 120 80 6c 00
        E 240 80 32 00
        E 0 80 4a 00
        E 0 80 62 00
        e 0 80 1a 00
        E 120 90 33 6c
        E 0 90 4b 6c
        E 0 90 63 6c
        E 360 80 33 00
        E 0 80 4b 00
        E 0 80 63 00
        E 120 90 33 6f
        E 0 90 4b 6f
        E 0 90 63 6f
        e 0 90 1b 6f
        E 360 80 33 00
        E 0 80 4b 00
        E 0 80 63 00
        e 0 80 1b 00
        E 120 90 31 6b
        E 0 90 49 6b
        E 0 90 61 6b
        E 0 90 6c 6a
        e 0 90 19 6b
        E 120 80 6c 00
        E 240 80 31 00
        E 0 80 49 00
        E 0 80 61 00
        e 0 80 19 00
        E 120 90 32 6a
        E 0 90 4a 6a
        E 0 90 62 6a
        E 360 80 32 00
        E 0 80 4a 00
        E 0 80 62 00
        E 120 90 33 6d
        E 0 90 4b 6d
        E 0 90 63 6d
        e 0 90 1b 6d
        E 360 80 33 00
        E 0 80 4b 00
        E 0 80 63 00
        e 0 80 1b 00
        E 120 90 32 6c
        E 0 90 4a 6c
        E 0 90 62 6c
        E 0 90 6c 6c
        E 0 90 74 60
        e 0 90 1a 6c
        E 120 80 6c 00
        E 240 80 32 00
        E 0 80 4a 00
        E 0 80 62 00
        e 0 80 1a 00
        E 120 90 31 6c
        E 0 90 49 6c
        E 0 90 61 6c
        E 360 80 31 00
        E 0 80 49 00
        E 0 80 61 00
        E 120 90 30 6d
        E 0 90 48 6d
        E 0 90 60 6d
        e 0 90 18 6d
        E 360 80 30 00
        E 0 80 48 00
        E 0 80 60 00
        e 0 80 18 00
        E 120 90 31 6e
        E 0 90 49 6e
        E 0 90 61 6e
        e 0 90 19 6e
        E 1320 80 31 00
        E 0 80 49 00
        E 0 80 61 00
        e 0 80 19 00
        E 120 90 32 6a
        E 0 90 4a 6a
        E 0 90 62 6a
        E 0 90 6c 69
        E 0 80 74 00
        e 0 90 1a 6a
        E 120 80 6c 00
        E 240 80 32 00
        E 0 80 4a 00
        E 0 80 62 00
        e 0 80 1a 00
        E 120 90 33 69
        E 0 90 4b 69
        E 0 90 63 69
        E 360 80 33 00
        E 0 80 4b 00
        E 0 80 63 00
        E 120 90 33 6c
        E 0 90 4b 6c
        E 0 90 63 6c
        e 0 90 1b 6c
        E 360 80 33 00
        E 0 80 4b 00
        E 0 80 63 00
        e 0 80 1b 00
        E 120 90 31 68
        E 0 90 49 68
        E 0 90 61 68
        E 0 90 6c 67
        e 0 90 19 68
        E 120 80 6c 00
        E 240 80 31 00
        E 0 80 49 00
        E 0 80 61 00
        e 0 80 19 00
        E 120 90 32 67
        E 0 90 4a 67
        E 0 90 62 67
        E 360 80 32 00
        E 0 80 4a 00
        E 0 80 62 00
        E 120 90 33 6a
        E 0 90 4b 6a
        E 0 90 63 6a
        E 360 80 33 00
        E 0 80 4b 00
        E 0 80 63 00
        E 120 90 32 6a
        E 0 90 4a 6a
        E 0 90 62 6a
        E 0 90 6c 69
        e 0 90 1a 6a
        E 120 80 6c 00
        E 240 80 32 00
        E 0 80 4a 00
        E 0 80 62 00
        e 0 80 1a 00
        E 120 90 33 69
        E 0 90 4b 69
        E 0 90 63 69
        E 360 80 33 00
        E 0 80 4b 00
        E 0 80 63 00
        E 120 90 33 6c
        E 0 90 4b 6c
        E 0 90 63 6c
        e 0 90 1b 6c
        E 360 80 33 00
        E 0 80 4b 00
        E 0 80 63 00
        e 0 80 1b 00
        E 120 90 31 68
        E 0 90 49 68
        E 0 90 61 68
        E 0 90 6c 67
        e 0 90 19 68
        E 120 80 6c 00
        E 240 80 31 00
        E 0 80 49 00
        E 0 80 61 00
        e 0 80 19 00
        E 120 90 32 67
        E 0 90 4a 67
        E 0 90 62 67
        E 360 80 32 00
        E 0 80 4a 00
        E 0 80 62 00
        E 120 90 33 6a
        E 0 90 4b 6a
        E 0 90 63 6a
        E 360 80 33 00
        E 0 80 4b 00
        E 0 80 63 00
        E 120 90 32 6a
        E 0 90 4a 6a
        E 0 90 62 6a
        E 0 90 6c 69
        e 0 90 1a 6a
        E 120 80 6c 00
        E 240 80 32 00
        E 0 80 4a 00
        E 0 80 62 00
        e 0 80 1a 00
        E 120 90 33 69
        E 0 90 4b 69
        E 0 90 63 69
        E 360 80 33 00
        E 0 80 4b 00
        E 0 80 63 00
        E 120 90 33 6c
        E 0 90 4b 6c
        E 0 90 63 6c
        e 0 90 1b 6c
        E 360 80 33 00
        E 0 80 4b 00
        E 0 80 63 00
        e 0 80 1b 00
        E 120 90 31 68
        E 0 90 49 68
        E 0 90 61 68
        E 0 90 6c 67
        e 0 90 19 68
        E 120 80 6c 00
        E 240 80 31 00
        E 0 80 49 00
        E 0 80 61 00
        e 0 80 19 00
        E 120 90 32 67
        E 0 90 4a 67
        E 0 90 62 67
        E 360 80 32 00
        E 0 80 4a 00
        E 0 80 62 00
        E 120 90 33 6a
        E 0 90 4b 6a
        E 0 90 63 6a
        E 360 80 33 00
        E 0 80 4b 00
        E 0 80 63 00
        E 120 90 32 6a
        E 0 90 4a 6a
        E 0 90 62 6a
        E 0 90 6c 69
        E 0 90 74 60
        e 0 90 1a 6a
        E 120 80 6c 00
        E 240 80 32 00
        E 0 80 4a 00
        E 0 80 62 00
        e 0 80 1a 00
        E 120 90 33 69
        E 0 90 4b 69
        E 0 90 63 69
        E 360 80 33 00
        E 0 80 4b 00
        E 0 80 63 00
        E 120 90 33 6c
        E 0 90 4b 6c
        E 0 90 63 6c
        e 0 90 1b 6c
        E 360 80 33 00
        E 0 80 4b 00
        E 0 80 63 00
        e 0 80 1b 00
        E 120 90 31 68
        E 0 90 49 68
        E 0 90 61 68
        E 0 90 6c 67
        e 0 90 19 68
        E 120 80 6c 00
        E 240 80 31 00
        E 0 80 49 00
        E 0 80 61 00
        e 0 80 19 00
        E 120 90 32 67
        E 0 90 4a 67
        E 0 90 62 67
        E 360 80 32 00
        E 0 80 4a 00
        E 0 80 62 00
        E 120 90 33 6a
        E 0 90 4b 6a
        E 0 90 63 6a
        E 360 80 33 00
        E 0 80 4b 00
        E 0 80 63 00
        E 120 90 32 6d
        E 0 90 4a 6d
        E 0 90 62 6d
        E 0 90 6c 6c
        E 0 80 74 00
        e 0 90 1a 6d
        E 120 80 6c 00
        E 240 80 32 00
        E 0 80 4a 00
        E 0 80 62 00
        e 0 80 1a 00
        E 120 90 63 6c
        E 360 80 63 00
        E 120 90 33 6f
        E 0 90 4b 6f
        E 0 90 63 6f
        e 0 90 1b 6f
        E 360 80 33 00
        E 0 80 4b 00
        E 0 80 63 00
        e 0 80 1b 00
        E 120 90 31 6b
        E 0 90 49 6b
        E 0 90 61 6b
        E 0 90 6c 6a
        e 0 90 19 6b
        E 120 80 6c 00
        E 240 80 31 00
        E 0 80 49 00
        E 0 80 61 00
        e 0 80 19 00
        E 120 90 32 6a
        E 0 90 4a 6a
        E 0 90 62 6a
        E 360 80 32 00
        E 0 80 4a 00
        E 0 80 62 00
        E 120 90 33 6d
        E 0 90 4b 6d
        E 0 90 63 6d
        E 360 80 33 00
        E 0 80 4b 00
        E 0 80 63 00
        E 120 90 32 6d
        E 0 90 4a 6d
        E 0 90 62 6d
        E 0 90 6c 6c
        e 0 90 1a 6d
        E 120 80 6c 00
        E 240 80 32 00
        E 0 80 4a 00
        E 0 80 62 00
        e 0 80 1a 00
        E 120 90 33 6c
        E 0 90 4b 6c
        E 0 90 63 6c
        E 360 80 33 00
        E 0 80 4b 00
        E 0 80 63 00
        E 120 90 33 6f
        E 0 90 4b 6f
        E 0 90 63 6f
        e 0 90 1b 6f
        E 360 80 33 00
        E 0 80 4b 00
        E 0 80 63 00
        e 0 80 1b 00
        E 120 90 31 6b
        E 0 90 49 6b
        E 0 90 61 6b
        E 0 90 6c 6a
        e 0 90 19 6b
        E 120 80 6c 00
        E 240 80 31 00
        E 0 80 49 00
        E 0 80 61 00
        e 0 80 19 00
        E 120 90 32 6a
        E 0 90 4a 6a
        E 0 90 62 6a
        E 360 80 32 00
        E 0 80 4a 00
        E 0 80 62 00
        E 120 90 33 6d
        E 0 90 4b 6d
        E 0 90 63 6d
        E 360 80 33 00
        E 0 80 4b 00
        E 0 80 63 00
        E 120 90 32 6d
        E 0 90 4a 6d
        E 0 90 62 6d
        E 0 90 6c 6c
        e 0 90 1a 6d
        E 120 80 6c 00
        E 240 80 32 00
        E 0 80 4a 00
        E 0 80 62 00
        e 0 80 1a 00
        E 120 90 33 6c
        E 0 90 4b 6c
        E 0 90 63 6c
        E 360 80 33 00
        E 0 80 4b 00
        E 0 80 63 00
        E 120 90 33 6f
        E 0 90 4b 6f
        E 0 90 63 6f
        e 0 90 1b 6f
        E 360 80 33 00
        E 0 80 4b 00
        E 0 80 63 00
        e 0 80 1b 00
        E 120 90 31 6b
        E 0 90 49 6b
        E 0 90 61 6b
        E 0 90 6c 6a
        e 0 90 19 6b
        E 120 80 6c 00
        E 240 80 31 00
        E 0 80 49 00
        E 0 80 61 00
        e 0 80 19 00
        E 120 90 32 6a
        E 0 90 4a 6a
        E 0 90 62 6a
        E 360 80 32 00
        E 0 80 4a 00
        E 0 80 62 00
        E 120 90 33 6d
        E 0 90 4b 6d
        E 0 90 63 6d
        e 0 90 1b 6d
        E 360 80 33 00
        E 0 80 4b 00
        E 0 80 63 00
        e 0 80 1b 00
        E 120 90 32 6c
        E 0 90 4a 6c
        E 0 90 62 6c
        E 0 90 6c 6c
        e 0 90 1a 6c
        E 120 80 6c 00
        E 240 80 32 00
        E 0 80 4a 00
        E 0 80 62 00
        e 0 80 1a 00
        E 120 90 31 6c
        E 0 90 49 6c
        E 0 90 61 6c
        E 360 80 31 00
        E 0 80 49 00
        E 0 80 61 00
        E 120 90 30 6d
        E 0 90 48 6d
        E 0 90 60 6d
        e 0 90 18 6d
        E 360 80 30 00
        E 0 80 48 00
        E 0 80 60 00
        e 0 80 18 00
        E 120 90 31 6e
        E 0 90 49 6e
        E 0 90 61 6e
        e 0 90 19 6e
        E 1320 80 31 00
        E 0 80 49 00
        E 0 80 61 00
        e 0 80 19 00
        E 120 90 32 6a
        E 0 90 4a 6a
        E 0 90 62 6a
        E 0 90 6c 69
        e 0 90 1a 6a
        E 120 80 6c 00
        E 240 80 32 00
        E 0 80 4a 00
        E 0 80 62 00
        e 0 80 1a 00
        E 120 90 33 69
        E 0 90 4b 69
        E 0 90 63 69
        E 360 80 33 00
        E 0 80 4b 00
        E 0 80 63 00
        E 120 90 33 6c
        E 0 90 4b 6c
        E 0 90 63 6c
        e 0 90 1b 6c
        E 360 80 33 00
        E 0 80 4b 00
        E 0 80 63 00
        e 0 80 1b 00
        E 120 90 31 68
        E 0 90 49 68
        E 0 90 61 68
        E 0 90 6c 67
        e 0 90 19 68
        E 120 80 6c 00
        E 240 80 31 00
        E 0 80 49 00
        E 0 80 61 00
        e 0 80 19 00
        E 120 90 32 67
        E 0 90 4a 67
        E 0 90 62 67
        E 360 80 32 00
        E 0 80 4a 00
        E 0 80 62 00
        E 120 90 33 6a
        E 0 90 4b 6a
        E 0 90 63 6a
        E 360 80 33 00
        E 0 80 4b 00
        E 0 80 63 00
        E 120 90 32 6a
        E 0 90 4a 6a
        E 0 90 62 6a
        E 0 90 6c 69
        E 0 90 74 60
        e 0 90 1a 6a
        E 120 80 6c 00
        E 240 80 32 00
        E 0 80 4a 00
        E 0 80 62 00
        e 0 80 1a 00
        E 120 90 33 69
        E 0 90 4b 69
        E 0 90 63 69
        E 360 80 33 00
        E 0 80 4b 00
        E 0 80 63 00
        E 120 90 33 6c
        E 0 90 4b 6c
        E 0 90 63 6c
        e 0 90 1b 6c
        E 360 80 33 00
        E 0 80 4b 00
        E 0 80 63 00
        e 0 80 1b 00
        E 120 90 31 68
        E 0 90 49 68
        E 0 90 61 68
        E 0 90 6c 67
        e 0 90 19 68
        E 120 80 6c 00
        E 240 80 31 00
        E 0 80 49 00
        E 0 80 61 00
        e 0 80 19 00
        E 120 90 32 67
        E 0 90 4a 67
        E 0 90 62 67
        E 360 80 32 00
        E 0 80 4a 00
        E 0 80 62 00
        E 120 90 33 6a
        E 0 90 4b 6a
        E 0 90 63 6a
        E 360 80 33 00
        E 0 80 4b 00
        E 0 80 63 00
        E 120 90 32 6a
        E 0 90 4a 6a
        E 0 90 62 6a
        E 0 90 6c 69
        E 0 80 74 00
        e 0 90 1a 6a
        E 120 80 6c 00
        E 240 80 32 00
        E 0 80 4a 00
        E 0 80 62 00
        e 0 80 1a 00
        E 120 90 33 69
        E 0 90 4b 69
        E 0 90 63 69
        E 360 80 33 00
        E 0 80 4b 00
        E 0 80 63 00
        E 120 90 33 6c
        E 0 90 4b 6c
        E 0 90 63 6c
        e 0 90 1b 6c
        E 360 80 33 00
        E 0 80 4b 00
        E 0 80 63 00
        e 0 80 1b 00
        E 120 90 31 68
        E 0 90 49 68
        E 0 90 61 68
        E 0 90 6c 67
        e 0 90 19 68
        E 120 80 6c 00
        E 240 80 31 00
        E 0 80 49 00
        E 0 80 61 00
        e 0 80 19 00
        E 120 90 32 67
        E 0 90 4a 67
        E 0 90 62 67
        E 360 80 32 00
        E 0 80 4a 00
        E 0 80 62 00
        E 120 90 33 6a
        E 0 90 4b 6a
        E 0 90 63 6a
        E 360 80 33 00
        E 0 80 4b 00
        E 0 80 63 00
        E 120 90 32 6a
        E 0 90 4a 6a
        E 0 90 62 6a
        E 0 90 6c 69
        e 0 90 1a 6a
        E 120 80 6c 00
        E 240 80 32 00
        E 0 80 4a 00
        E 0 80 62 00
        e 0 80 1a 00
        E 120 90 33 69
        E 0 90 4b 69
        E 0 90 63 69
        E 360 80 33 00
        E 0 80 4b 00
        E 0 80 63 00
        E 120 90 33 6c
        E 0 90 4b 6c
        E 0 90 63 6c
        e 0 90 1b 6c
        E 360 80 33 00
        E 0 80 4b 00
        E 0 80 63 00
        e 0 80 1b 00
        E 120 90 31 68
        E 0 90 49 68
        E 0 90 61 68
        E 0 90 6c 67
        e 0 90 19 68
        E 120 80 6c 00
        E 240 80 31 00
        E 0 80 49 00
        E 0 80 61 00
        e 0 80 19 00
        E 120 90 32 67
        E 0 90 4a 67
        E 0 90 62 67
        E 360 80 32 00
        E 0 80 4a 00
        E 0 80 62 00
        E 120 90 33 6a
        E 0 90 4b 6a
        E 0 90 63 6a
        E 360 80 33 00
        E 0 80 4b 00
        E 0 80 63 00
        E 120 90 32 6d
        E 0 90 4a 6d
        E 0 90 62 6d
        E 0 90 6c 6c
        e 0 90 1a 6d
        E 120 80 6c 00
        E 240 80 32 00
        E 0 80 4a 00
        E 0 80 62 00
        e 0 80 1a 00
        E 120 90 63 6c
        E 360 80 63 00
        E 120 90 33 6f
        E 0 90 4b 6f
        E 0 90 63 6f
        e 0 90 1b 6f
        E 360 80 33 00
        E 0 80 4b 00
        E 0 80 63 00
        e 0 80 1b 00
        E 120 90 31 6b
        E 0 90 49 6b
        E 0 90 61 6b
        E 0 90 6c 6a
        e 0 90 19 6b
        E 120 80 6c 00
        E 240 80 31 00
        E 0 80 49 00
        E 0 80 61 00
        e 0 80 19 00
        E 120 90 32 6a
        E 0 90 4a 6a
        E 0 90 62 6a
        E 360 80 32 00
        E 0 80 4a 00
        E 0 80 62 00
        E 120 90 33 6d
        E 0 90 4b 6d
        E 0 90 63 6d
        E 360 80 33 00
        E 0 80 4b 00
        E 0 80 63 00
        E 120 90 32 6d
        E 0 90 4a 6d
        E 0 90 62 6d
        E 0 90 6c 6c
        e 0 90 1a 6d
        E 120 80 6c 00
        E 240 80 32 00
        E 0 80 4a 00
        E 0 80 62 00
        e 0 80 1a 00
        E 120 90 33 6c
        E 0 90 4b 6c
        E 0 90 63 6c
        E 360 80 33 00
        E 0 80 4b 00
        E 0 80 63 00
        E 120 90 33 6f
        E 0 90 4b 6f
        E 0 90 63 6f
        e 0 90 1b 6f
        E 360 80 33 00
        E 0 80 4b 00
        E 0 80 63 00
        e 0 80 1b 00
        E 120 90 31 6b
        E 0 90 49 6b
        E 0 90 61 6b
        E 0 90 6c 6a
        e 0 90 19 6b
        E 120 80 6c 00
        E 240 80 31 00
        E 0 80 49 00
        E 0 80 61 00
        e 0 80 19 00
        E 120 90 32 6a
        E 0 90 4a 6a
        E 0 90 62 6a
        E 360 80 32 00
        E 0 80 4a 00
        E 0 80 62 00
        E 120 90 33 6d
        E 0 90 4b 6d
        E 0 90 63 6d
        E 360 80 33 00
        E 0 80 4b 00
        E 0 80 63 00
        E 120 90 32 6d
        E 0 90 4a 6d
        E 0 90 62 6d
        E 0 90 6c 6c
        e 0 90 1a 6d
        E 120 80 6c 00
        E 240 80 32 00
        E 0 80 4a 00
        E 0 80 62 00
        e 0 80 1a 00
        E 120 90 33 6c
        E 0 90 4b 6c
        E 0 90 63 6c
        E 360 80 33 00
        E 0 80 4b 00
        E 0 80 63 00
        E 120 90 33 6f
        E 0 90 4b 6f
        E 0 90 63 6f
        e 0 90 1b 6f
        E 360 80 33 00
        E 0 80 4b 00
        E 0 80 63 00
        e 0 80 1b 00
        E 120 90 31 6b
        E 0 90 49 6b
        E 0 90 61 6b
        E 0 90 6c 6a
        e 0 90 19 6b
        E 120 80 6c 00
        E 240 80 31 00
        E 0 80 49 00
        E 0 80 61 00
        e 0 80 19 00
        E 120 90 32 6a
        E 0 90 4a 6a
        E 0 90 62 6a
        E 360 80 32 00
        E 0 80 4a 00
        E 0 80 62 00
        E 120 90 33 6d
        E 0 90 4b 6d
        E 0 90 63 6d
        e 0 90 1b 6d
        E 360 80 33 00
        E 0 80 4b 00
        E 0 80 63 00
        e 0 80 1b 00
        E 120 90 32 6c
        E 0 90 4a 6c
        E 0 90 62 6c
        E 0 90 6c 6c
        e 0 90 1a 6c
        E 120 80 6c 00
        E 240 80 32 00
        E 0 80 4a 00
        E 0 80 62 00
        e 0 80 1a 00
        E 120 90 31 6c
        E 0 90 49 6c
        E 0 90 61 6c
        E 360 80 31 00
        E 0 80 49 00
        E 0 80 61 00
        E 120 90 30 6d
        E 0 90 48 6d
        E 0 90 60 6d
        e 0 90 18 6d
        E 360 80 30 00
        E 0 80 48 00
        E 0 80 60 00
        e 0 80 18 00
        E 120 90 31 6e
        E 0 90 49 6e
        E 0 90 61 6e
        e 0 90 19 6e
        E 1440 80 31 00
        E 0 80 49 00
        E 0 80 61 00
        e 0 80 19 00
        E 2880 b0 7b 00
        GUID {1096C4AC-ADBC-401B-A806-64E0C4F9F43E}
        IGNTEMPO 0 120.00000000 4 4
        SRCCOLOR 2
        VELLANE 132 128 60
        COLORMAP "C:\Program Files\REAPER (x64)\Data\color_maps\rockband_guitarbass.png"
        TEXTSTRINGFILE "C:\Program Files\REAPER (x64)\Data\Text_Strings\Text Events List - PRO Trainers.txt"
        CFGEDITVIEW -4896.000000 10.271117 17 12 0 0 0
        CFGEDIT 1 1 0 1 1 0 1 1 1 1 1 0.25000000 -8 -8 1544 872 0 2 1 1 0.00000000 0 1 0 0 0.500000 0 0 1.000000 64
        KEYSNAP 0 6 "102030050700" 0 "Pentatonic"
        EVTFILTER 0 -1 -1 -1 -1 0 1 0 0 -1.00000000 -1.00000000
      >
    >
  >
  <TRACK '{AE630A6F-DB5B-44EE-A6C8-DBB8A4659618}'
    NAME "PART REAL_GUITAR"
    PEAKCOL 16576
    BEAT -1
    AUTOMODE 0
    VOLPAN 1.00000000000000 0.00000000000000 -1.00000000000000 -1.00000000000000 1.00000000000000
    MUTESOLO 0 0 0
    IPHASE 0
    ISBUS 0 0
    BUSCOMP 0 0
    SHOWINMIX 1 0.666700 0.500000 1 0.500000 -1 -1 -1
    FREEMODE 0
    SEL 0
    REC 0 0 0 0 0 0 0
    VU 2
    TRACKHEIGHT 0 0
    INQ 0 0 0 0.5000000000 100 0 0 100
    NCHAN 2
    FX 0
    TRACKID {AE630A6F-DB5B-44EE-A6C8-DBB8A4659618}
    PERF 0
    MIDIOUT -1
    <MIDINOTENAMES
      0 127 "Trill Marker"
      0 126 "Tremolo Marker"
      0 125 "BRE"
      0 124 "BRE"
      0 123 "BRE"
      0 122 "BRE"
      0 121 "BRE"
      0 120 "BRE (use all 6)"
      0 119 "-----------"
      0 116 "OVERDRIVE"
      0 115 "Solo Marker"
      0 109 "-----------"
      0 108 "Fret Hand Position"
      0 107 "Force Chord Numbering"
      0 106 "Loose Strumming"
      0 105 "Strum Direction"
      0 104 "Arpeggio Marker"
      0 103 "Slide Marker"
      0 102 "Force HOPO"
      0 101 "EXPERT e String"
      0 100 "EXPERT B String"
      0 99 "EXPERT G String"
      0 98 "EXPERT D String"
      0 97 "EXPERT A String"
      0 96 "EXPERT E String"
      0 95 "-----------"
      0 82 "Loose Strumming"
      0 81 "Strum Direction"
      0 80 "Arpeggio Marker"
      0 79 "Slide Marker"
      0 78 "Force HOPO"
      0 77 "HARD e String"
      0 76 "HARD B String"
      0 75 "HARD G String"
      0 74 "HARD D String"
      0 73 "HARD A String"
      0 72 "HARD E String"
      0 71 "-----------"
      0 58 "Loose Strumming"
      0 56 "Arpeggio Marker"
      0 55 "Slide Marker"
      0 53 "MEDIUM e String"
      0 52 "MEDIUM B String"
      0 51 "MEDIUM G String"
      0 50 "MEDIUM D String"
      0 49 "MEDIUM A String"
      0 48 "MEDIUM E String"
      0 47 "-----------"
      0 32 "Arpeggio Marker"
      0 31 "Slide Marker"
      0 29 "EASY e String"
      0 28 "EASY B String"
      0 27 "EASY G String"
      0 26 "EASY D String"
      0 25 "EASY A String"
      0 24 "EASY E String"
      0 21 "-----------"
      0 18 "Flat/Sharp Swap"
      0 17 "Hide Chord Names"
      0 16 "Slash Chord"
      0 15 "D#"
      0 14 "D"
      0 13 "C#"
      0 12 "C"
      0 11 "B"
      0 10 "A#"
      0 9 "A"
      0 8 "G#"
      0 7 "G"
      0 6 "F#"
      0 5 "F"
      0 4 "E"
    >
    MAINSEND 1 0
    <FXCHAIN
      WNDRECT 0 43 655 467
      SHOW 0
      LASTSEL 1
      DOCKED 0
      BYPASS 0 0
      <JS "c3/progtr" ""
        0.000000 3.000000 0.000000 0.000000 0.000000 0.000000 0.000000 0.000000 0.000000 1.000000 - - - - - - - - - - - - - - - - - - - - - - - - - - - - - - - - - - - - - - - - - - - - - - - - - - - - - - 
      >
      FLOATPOS 0 0 0 0
      FXID {08E53E62-8A9E-430D-8B6D-F0FF3DDB1F39}
      WAK 0
      BYPASS 0 0
      <VST "VSTi: ReaSynth (Cockos)" "reasynth.dll" 0 ""
        eXNlcu9e7f4AAAAAAgAAAAEAAAAAAAAAAgAAAAAAAAA4AAAAAAAAAA==
        AAAQAO++rd4N8K3eppvEO+gJMjyHFlk/AAAAAAAAAADMm4A+4jAEPA==
        AAAAAAAAAD+01hM+j8L1PQAAAD8AABAAAAA=
      >
      FLOATPOS 0 0 0 0
      FXID {6EE4BF86-79BE-4506-8C9B-EF7D1D028CA7}
      WAK 0
    >
    <ITEM
      POSITION 0.00000000000000
      SNAPOFFS 0.00000000000000
      LENGTH 122.40856859980200
      LOOP 0
      ALLTAKES 0
      SEL 0
      FADEIN 1 0.000000 0.000000 1 0
      FADEOUT 1 0.000000 0.000000 1 0
      MUTE 0
      IGUID {E173CD36-418F-4066-AA0F-D5E0BD10425C}
      IID 8
      NAME "PART REAL_GUITAR"
      VOLPAN 1.000000 0.000000 1.000000 -1.000000
      SOFFS 0.00000000000000 0.00000000000000
      PLAYRATE 1.00000000000000 1 0.00000000000000 -1
      CHANMODE 0
      GUID {963B6E17-EFE2-45B4-A46B-22DF47DE89FC}
      <SOURCE MIDI
        HASDATA 1 480 QN
        POOLEDEVTS {40AF7220-67F1-4300-92AD-4A86A9CCBF93}
        <X 0 0
          /wNQQVJUIFJFQUxfR1VJVEFS
        >
        <X 2880 0
          /wFbYmVnaW5fcGcgc29uZ190cmFpbmVyX3BnXzFd
        >
        E 0 90 1c 6d
        E 0 90 34 6d
        E 0 90 4c 6d
        E 0 90 64 6d
        E 0 90 6c 6c
        E 120 80 1c 00
        E 0 80 34 00
        E 0 80 4c 00
        E 0 80 64 00
        E 0 80 6c 00
        <X 1320 0
          /wFbcGdfbm9ybSBzb25nX3RyYWluZXJfcGdfMV0=
        >
        E 0 90 1b 6e
        E 0 90 33 6e
        E 0 90 4b 6e
        E 0 90 63 6e
        E 120 80 1b 00
        E 0 80 33 00
        E 0 80 4b 00
        E 0 80 63 00
        E 840 90 33 6c
        E 0 90 4b 6c
        E 0 90 63 6c
        E 120 80 33 00
        E 0 80 4b 00
        E 0 80 63 00
        E 360 90 1c 6d
        E 0 90 34 6d
        E 0 90 4c 6d
        E 0 90 64 6d
        E 120 80 1c 00
        E 0 80 34 00
        E 0 80 4c 00
        E 0 80 64 00
        E 1320 90 1b 6e
        E 0 90 33 6e
        E 0 90 4b 6e
        E 0 90 63 6e
        E 120 80 1b 00
        E 0 80 33 00
        E 0 80 4b 00
        E 0 80 63 00
        <X 1320 0
          /wFbZW5kX3BnIHNvbmdfdHJhaW5lcl9wZ18xXQ==
        >
        E 0 90 1c 6d
        E 0 90 34 6d
        E 0 90 4c 6d
        E 0 90 64 6d
        E 120 80 1c 00
        E 0 80 34 00
        E 0 80 4c 00
        E 0 80 64 00
        E 1320 90 1b 6e
        E 0 90 33 6e
        E 0 90 4b 6e
        E 0 90 63 6e
        E 120 80 1b 00
        E 0 80 33 00
        E 0 80 4b 00
        E 0 80 63 00
        E 840 90 33 6c
        E 0 90 4b 6c
        E 0 90 63 6c
        E 120 80 33 00
        E 0 80 4b 00
        E 0 80 63 00
        E 360 90 1c 6d
        E 0 90 34 6d
        E 0 90 4c 6d
        E 0 90 64 6d
        E 120 80 1c 00
        E 0 80 34 00
        E 0 80 4c 00
        E 0 80 64 00
        E 1320 90 1b 6e
        E 0 90 33 6e
        E 0 90 4b 6e
        E 0 90 63 6e
        E 120 80 1b 00
        E 0 80 33 00
        E 0 80 4b 00
        E 0 80 63 00
        <X 1320 0
          /wFbYmVnaW5fcGcgc29uZ190cmFpbmVyX3BnXzJd
        >
        E 0 90 1d 72
        E 0 90 35 72
        E 0 90 4d 72
        E 0 90 65 72
        E 0 90 6c 6f
        E 120 80 6c 00
        E 240 80 1d 00
        E 0 80 35 00
        E 0 80 4d 00
        E 0 80 65 00
        E 120 90 33 6f
        E 0 90 4b 6f
        E 0 90 63 6f
        E 360 80 33 00
        E 0 80 4b 00
        E 0 80 63 00
        E 120 90 1d 72
        E 0 90 35 72
        E 0 90 4d 72
        E 0 90 65 72
        E 360 80 1d 00
        E 0 80 35 00
        E 0 80 4d 00
        E 0 80 65 00
        <X 120 0
          /wFbcGdfbm9ybSBzb25nX3RyYWluZXJfcGdfMl0=
        >
        E 0 90 1c 70
        E 0 90 34 70
        E 0 90 4c 70
        E 0 90 64 70
        E 1320 80 1c 00
        E 0 80 34 00
        E 0 80 4c 00
        E 0 80 64 00
        E 120 90 1d 72
        E 0 90 35 72
        E 0 90 4d 72
        E 0 90 65 72
        E 0 90 74 60
        E 360 80 1d 00
        E 0 80 35 00
        E 0 80 4d 00
        E 0 80 65 00
        E 119 90 63 6f
        E 361 80 63 00
        E 120 90 1d 72
        E 0 90 35 72
        E 0 90 4d 72
        E 0 90 65 72
        E 360 80 1d 00
        E 0 80 35 00
        E 0 80 4d 00
        E 0 80 65 00
        E 120 90 1c 70
        E 0 90 34 70
        E 0 90 4c 70
        E 0 90 64 70
        E 1320 80 1c 00
        E 0 80 34 00
        E 0 80 4c 00
        E 0 80 64 00
        <X 120 0
          /wFbZW5kX3BnIHNvbmdfdHJhaW5lcl9wZ18yXQ==
        >
        <X 0 0
          /wFbYmVnaW5fcGcgc29uZ190cmFpbmVyX3BnXzNd
        >
        E 0 90 1d 72
        E 0 90 35 72
        E 0 90 4d 72
        E 0 90 65 72
        E 0 80 74 00
        E 360 80 1d 00
        E 0 80 35 00
        E 0 80 4d 00
        E 0 80 65 00
        E 119 90 63 6f
        E 361 80 63 00
        E 120 90 1d 72
        E 0 90 35 72
        E 0 90 4d 72
        E 0 90 65 72
        E 360 80 1d 00
        E 0 80 35 00
        E 0 80 4d 00
        E 0 80 65 00
        <X 120 0
          /wFbcGdfbm9ybSBzb25nX3RyYWluZXJfcGdfM10=
        >
        E 0 90 1c 70
        E 0 90 34 70
        E 0 90 4c 70
        E 0 90 64 70
        E 1320 80 1c 00
        E 0 80 34 00
        E 0 80 4c 00
        E 0 80 64 00
        E 120 90 1a 6f
        E 0 90 32 6f
        E 0 90 4a 6f
        E 0 90 62 6f
        E 0 90 6c 6d
        E 120 80 6c 00
        E 240 80 1a 00
        E 0 80 32 00
        E 0 80 4a 00
        E 0 80 62 00
        E 120 90 33 6e
        E 0 90 4b 6e
        E 0 90 63 6e
        E 360 80 33 00
        E 0 80 4b 00
        E 0 80 63 00
        E 120 90 1c 6d
        E 0 90 34 6d
        E 0 90 4c 6d
        E 0 90 64 6d
        E 360 80 1c 00
        E 0 80 34 00
        E 0 80 4c 00
        E 0 80 64 00
        E 120 90 1c 6f
        E 0 90 34 6f
        E 0 90 4c 6f
        E 0 90 64 6f
        E 1320 80 1c 00
        E 0 80 34 00
        E 0 80 4c 00
        E 0 80 64 00
        <X 120 0
          /wFbZW5kX3BnIHNvbmdfdHJhaW5lcl9wZ18zXQ==
        >
        E 0 90 1c 6d
        E 0 90 34 6d
        E 0 90 4c 6d
        E 0 90 64 6d
        E 0 90 6c 6c
        E 120 80 1c 00
        E 0 80 34 00
        E 0 80 4c 00
        E 0 80 64 00
        E 0 80 6c 00
        E 1320 90 1b 6e
        E 0 90 33 6e
        E 0 90 4b 6e
        E 0 90 63 6e
        E 120 80 1b 00
        E 0 80 33 00
        E 0 80 4b 00
        E 0 80 63 00
        E 840 90 33 6c
        E 0 90 4b 6c
        E 0 90 63 6c
        E 120 80 33 00
        E 0 80 4b 00
        E 0 80 63 00
        E 360 90 1c 6d
        E 0 90 34 6d
        E 0 90 4c 6d
        E 0 90 64 6d
        E 120 80 1c 00
        E 0 80 34 00
        E 0 80 4c 00
        E 0 80 64 00
        E 1320 90 1b 6e
        E 0 90 33 6e
        E 0 90 4b 6e
        E 0 90 63 6e
        E 120 80 1b 00
        E 0 80 33 00
        E 0 80 4b 00
        E 0 80 63 00
        E 1320 90 1c 6d
        E 0 90 34 6d
        E 0 90 4c 6d
        E 0 90 64 6d
        E 120 80 1c 00
        E 0 80 34 00
        E 0 80 4c 00
        E 0 80 64 00
        E 1320 90 1b 6e
        E 0 90 33 6e
        E 0 90 4b 6e
        E 0 90 63 6e
        E 0 90 74 60
        E 120 80 1b 00
        E 0 80 33 00
        E 0 80 4b 00
        E 0 80 63 00
        E 840 90 33 6c
        E 0 90 4b 6c
        E 0 90 63 6c
        E 120 80 33 00
        E 0 80 4b 00
        E 0 80 63 00
        E 360 90 1c 6d
        E 0 90 34 6d
        E 0 90 4c 6d
        E 0 90 64 6d
        E 120 80 1c 00
        E 0 80 34 00
        E 0 80 4c 00
        E 0 80 64 00
        E 0 80 74 00
        E 1320 90 1b 6e
        E 0 90 33 6e
        E 0 90 4b 6e
        E 0 90 63 6e
        E 120 80 1b 00
        E 0 80 33 00
        E 0 80 4b 00
        E 0 80 63 00
        E 1320 90 1d 72
        E 0 90 35 72
        E 0 90 4d 72
        E 0 90 65 72
        E 0 90 6c 6f
        E 120 80 6c 00
        E 240 80 1d 00
        E 0 80 35 00
        E 0 80 4d 00
        E 0 80 65 00
        E 120 90 33 6f
        E 0 90 4b 6f
        E 0 90 63 6f
        E 360 80 33 00
        E 0 80 4b 00
        E 0 80 63 00
        E 120 90 1d 72
        E 0 90 35 72
        E 0 90 4d 72
        E 0 90 65 72
        E 360 80 1d 00
        E 0 80 35 00
        E 0 80 4d 00
        E 0 80 65 00
        E 120 90 1c 70
        E 0 90 34 70
        E 0 90 4c 70
        E 0 90 64 70
        E 1320 80 1c 00
        E 0 80 34 00
        E 0 80 4c 00
        E 0 80 64 00
        E 120 90 1d 72
        E 0 90 35 72
        E 0 90 4d 72
        E 0 90 65 72
        E 360 80 1d 00
        E 0 80 35 00
        E 0 80 4d 00
        E 0 80 65 00
        E 119 90 63 6f
        E 361 80 63 00
        E 120 90 1d 72
        E 0 90 35 72
        E 0 90 4d 72
        E 0 90 65 72
        E 360 80 1d 00
        E 0 80 35 00
        E 0 80 4d 00
        E 0 80 65 00
        E 120 90 1c 70
        E 0 90 34 70
        E 0 90 4c 70
        E 0 90 64 70
        E 1320 80 1c 00
        E 0 80 34 00
        E 0 80 4c 00
        E 0 80 64 00
        E 120 90 1d 72
        E 0 90 35 72
        E 0 90 4d 72
        E 0 90 65 72
        E 360 80 1d 00
        E 0 80 35 00
        E 0 80 4d 00
        E 0 80 65 00
        E 119 90 63 6f
        E 361 80 63 00
        E 120 90 1d 72
        E 0 90 35 72
        E 0 90 4d 72
        E 0 90 65 72
        E 360 80 1d 00
        E 0 80 35 00
        E 0 80 4d 00
        E 0 80 65 00
        E 120 90 1c 70
        E 0 90 34 70
        E 0 90 4c 70
        E 0 90 64 70
        E 1320 80 1c 00
        E 0 80 34 00
        E 0 80 4c 00
        E 0 80 64 00
        E 120 90 1a 6f
        E 0 90 32 6f
        E 0 90 4a 6f
        E 0 90 62 6f
        E 0 90 6c 6d
        E 0 90 74 60
        E 120 80 6c 00
        E 240 80 1a 00
        E 0 80 32 00
        E 0 80 4a 00
        E 0 80 62 00
        E 120 90 33 6e
        E 0 90 4b 6e
        E 0 90 63 6e
        E 360 80 33 00
        E 0 80 4b 00
        E 0 80 63 00
        E 120 90 1c 6d
        E 0 90 34 6d
        E 0 90 4c 6d
        E 0 90 64 6d
        E 360 80 1c 00
        E 0 80 34 00
        E 0 80 4c 00
        E 0 80 64 00
        E 120 90 1c 6f
        E 0 90 34 6f
        E 0 90 4c 6f
        E 0 90 64 6f
        E 1320 80 1c 00
        E 0 80 34 00
        E 0 80 4c 00
        E 0 80 64 00
        E 120 90 1c 6d
        E 0 90 34 6d
        E 0 90 4c 6d
        E 0 90 64 6d
        E 0 90 6c 6c
        E 0 80 74 00
        E 120 80 1c 00
        E 0 80 34 00
        E 0 80 4c 00
        E 0 80 64 00
        E 0 80 6c 00
        E 1320 90 1b 6e
        E 0 90 33 6e
        E 0 90 4b 6e
        E 0 90 63 6e
        E 120 80 1b 00
        E 0 80 33 00
        E 0 80 4b 00
        E 0 80 63 00
        E 840 90 33 6c
        E 0 90 4b 6c
        E 0 90 63 6c
        E 120 80 33 00
        E 0 80 4b 00
        E 0 80 63 00
        E 360 90 1c 6d
        E 0 90 34 6d
        E 0 90 4c 6d
        E 0 90 64 6d
        E 120 80 1c 00
        E 0 80 34 00
        E 0 80 4c 00
        E 0 80 64 00
        E 1320 90 1b 6e
        E 0 90 33 6e
        E 0 90 4b 6e
        E 0 90 63 6e
        E 120 80 1b 00
        E 0 80 33 00
        E 0 80 4b 00
        E 0 80 63 00
        E 1320 90 1c 6d
        E 0 90 34 6d
        E 0 90 4c 6d
        E 0 90 64 6d
        E 120 80 1c 00
        E 0 80 34 00
        E 0 80 4c 00
        E 0 80 64 00
        E 1320 90 1b 6e
        E 0 90 33 6e
        E 0 90 4b 6e
        E 0 90 63 6e
        E 120 80 1b 00
        E 0 80 33 00
        E 0 80 4b 00
        E 0 80 63 00
        E 840 90 33 6c
        E 0 90 4b 6c
        E 0 90 63 6c
        E 120 80 33 00
        E 0 80 4b 00
        E 0 80 63 00
        E 360 90 1c 6d
        E 0 90 34 6d
        E 0 90 4c 6d
        E 0 90 64 6d
        E 120 80 1c 00
        E 0 80 34 00
        E 0 80 4c 00
        E 0 80 64 00
        E 1320 90 1b 6e
        E 0 90 33 6e
        E 0 90 4b 6e
        E 0 90 63 6e
        E 120 80 1b 00
        E 0 80 33 00
        E 0 80 4b 00
        E 0 80 63 00
        E 1320 90 1d 72
        E 0 90 35 72
        E 0 90 4d 72
        E 0 90 65 72
        E 0 90 6c 6f
        E 0 90 74 60
        E 120 80 6c 00
        E 240 80 1d 00
        E 0 80 35 00
        E 0 80 4d 00
        E 0 80 65 00
        E 120 90 33 6f
        E 0 90 4b 6f
        E 0 90 63 6f
        E 360 80 33 00
        E 0 80 4b 00
        E 0 80 63 00
        E 120 90 1d 72
        E 0 90 35 72
        E 0 90 4d 72
        E 0 90 65 72
        E 360 80 1d 00
        E 0 80 35 00
        E 0 80 4d 00
        E 0 80 65 00
        E 120 90 1c 70
        E 0 90 34 70
        E 0 90 4c 70
        E 0 90 64 70
        E 1320 80 1c 00
        E 0 80 34 00
        E 0 80 4c 00
        E 0 80 64 00
        E 120 90 1d 72
        E 0 90 35 72
        E 0 90 4d 72
        E 0 90 65 72
        E 0 80 74 00
        E 360 80 1d 00
        E 0 80 35 00
        E 0 80 4d 00
        E 0 80 65 00
        E 119 90 63 6f
        E 361 80 63 00
        E 120 90 1d 72
        E 0 90 35 72
        E 0 90 4d 72
        E 0 90 65 72
        E 360 80 1d 00
        E 0 80 35 00
        E 0 80 4d 00
        E 0 80 65 00
        E 120 90 1c 70
        E 0 90 34 70
        E 0 90 4c 70
        E 0 90 64 70
        E 1320 80 1c 00
        E 0 80 34 00
        E 0 80 4c 00
        E 0 80 64 00
        E 120 90 1d 72
        E 0 90 35 72
        E 0 90 4d 72
        E 0 90 65 72
        E 360 80 1d 00
        E 0 80 35 00
        E 0 80 4d 00
        E 0 80 65 00
        E 119 90 63 6f
        E 361 80 63 00
        E 120 90 1d 72
        E 0 90 35 72
        E 0 90 4d 72
        E 0 90 65 72
        E 360 80 1d 00
        E 0 80 35 00
        E 0 80 4d 00
        E 0 80 65 00
        E 120 90 1c 70
        E 0 90 34 70
        E 0 90 4c 70
        E 0 90 64 70
        E 1320 80 1c 00
        E 0 80 34 00
        E 0 80 4c 00
        E 0 80 64 00
        E 120 90 1a 6f
        E 0 90 32 6f
        E 0 90 4a 6f
        E 0 90 62 6f
        E 0 90 6c 6d
        E 120 80 6c 00
        E 240 80 1a 00
        E 0 80 32 00
        E 0 80 4a 00
        E 0 80 62 00
        E 120 90 33 6e
        E 0 90 4b 6e
        E 0 90 63 6e
        E 360 80 33 00
        E 0 80 4b 00
        E 0 80 63 00
        E 120 90 1c 6d
        E 0 90 34 6d
        E 0 90 4c 6d
        E 0 90 64 6d
        E 360 80 1c 00
        E 0 80 34 00
        E 0 80 4c 00
        E 0 80 64 00
        E 120 90 1c 6f
        E 0 90 34 6f
        E 0 90 4c 6f
        E 0 90 64 6f
        E 1320 80 1c 00
        E 0 80 34 00
        E 0 80 4c 00
        E 0 80 64 00
        E 120 90 1c 6d
        E 0 90 34 6d
        E 0 90 4c 6d
        E 0 90 64 6d
        E 0 90 6c 6c
        E 120 80 1c 00
        E 0 80 34 00
        E 0 80 4c 00
        E 0 80 64 00
        E 0 80 6c 00
        E 1320 90 1b 6e
        E 0 90 33 6e
        E 0 90 4b 6e
        E 0 90 63 6e
        E 120 80 1b 00
        E 0 80 33 00
        E 0 80 4b 00
        E 0 80 63 00
        E 840 90 33 6c
        E 0 90 4b 6c
        E 0 90 63 6c
        E 120 80 33 00
        E 0 80 4b 00
        E 0 80 63 00
        E 360 90 1c 6d
        E 0 90 34 6d
        E 0 90 4c 6d
        E 0 90 64 6d
        E 120 80 1c 00
        E 0 80 34 00
        E 0 80 4c 00
        E 0 80 64 00
        E 1320 90 1b 6e
        E 0 90 33 6e
        E 0 90 4b 6e
        E 0 90 63 6e
        E 120 80 1b 00
        E 0 80 33 00
        E 0 80 4b 00
        E 0 80 63 00
        E 1320 90 1c 6d
        E 0 90 34 6d
        E 0 90 4c 6d
        E 0 90 64 6d
        E 120 80 1c 00
        E 0 80 34 00
        E 0 80 4c 00
        E 0 80 64 00
        E 1320 90 1b 6e
        E 0 90 33 6e
        E 0 90 4b 6e
        E 0 90 63 6e
        E 120 80 1b 00
        E 0 80 33 00
        E 0 80 4b 00
        E 0 80 63 00
        E 840 90 33 6c
        E 0 90 4b 6c
        E 0 90 63 6c
        E 120 80 33 00
        E 0 80 4b 00
        E 0 80 63 00
        E 360 90 1c 6d
        E 0 90 34 6d
        E 0 90 4c 6d
        E 0 90 64 6d
        e 0 90 74 60
        E 120 80 1c 00
        E 0 80 34 00
        E 0 80 4c 00
        E 0 80 64 00
        E 1320 90 1b 6e
        E 0 90 33 6e
        E 0 90 4b 6e
        E 0 90 63 6e
        E 120 80 1b 00
        E 0 80 33 00
        E 0 80 4b 00
        E 0 80 63 00
        e 120 80 74 00
        E 1200 90 1d 72
        E 0 90 35 72
        E 0 90 4d 72
        E 0 90 65 72
        E 0 90 6c 6f
        E 120 80 6c 00
        E 240 80 1d 00
        E 0 80 35 00
        E 0 80 4d 00
        E 0 80 65 00
        E 120 90 33 6f
        E 0 90 4b 6f
        E 0 90 63 6f
        E 360 80 33 00
        E 0 80 4b 00
        E 0 80 63 00
        E 120 90 1d 72
        E 0 90 35 72
        E 0 90 4d 72
        E 0 90 65 72
        E 360 80 1d 00
        E 0 80 35 00
        E 0 80 4d 00
        E 0 80 65 00
        E 120 90 1c 70
        E 0 90 34 70
        E 0 90 4c 70
        E 0 90 64 70
        E 1320 80 1c 00
        E 0 80 34 00
        E 0 80 4c 00
        E 0 80 64 00
        E 120 90 1d 72
        E 0 90 35 72
        E 0 90 4d 72
        E 0 90 65 72
        E 360 80 1d 00
        E 0 80 35 00
        E 0 80 4d 00
        E 0 80 65 00
        E 119 90 63 6f
        E 361 80 63 00
        E 120 90 1d 72
        E 0 90 35 72
        E 0 90 4d 72
        E 0 90 65 72
        E 360 80 1d 00
        E 0 80 35 00
        E 0 80 4d 00
        E 0 80 65 00
        E 120 90 1c 70
        E 0 90 34 70
        E 0 90 4c 70
        E 0 90 64 70
        E 1320 80 1c 00
        E 0 80 34 00
        E 0 80 4c 00
        E 0 80 64 00
        E 120 90 1d 72
        E 0 90 35 72
        E 0 90 4d 72
        E 0 90 65 72
        E 360 80 1d 00
        E 0 80 35 00
        E 0 80 4d 00
        E 0 80 65 00
        E 119 90 63 6f
        E 361 80 63 00
        E 120 90 1d 72
        E 0 90 35 72
        E 0 90 4d 72
        E 0 90 65 72
        E 360 80 1d 00
        E 0 80 35 00
        E 0 80 4d 00
        E 0 80 65 00
        E 120 90 1c 70
        E 0 90 34 70
        E 0 90 4c 70
        E 0 90 64 70
        E 1320 80 1c 00
        E 0 80 34 00
        E 0 80 4c 00
        E 0 80 64 00
        E 120 90 1a 6f
        E 0 90 32 6f
        E 0 90 4a 6f
        E 0 90 62 6f
        E 0 90 6c 6d
        E 120 80 6c 00
        E 240 80 1a 00
        E 0 80 32 00
        E 0 80 4a 00
        E 0 80 62 00
        E 120 90 33 6e
        E 0 90 4b 6e
        E 0 90 63 6e
        E 360 80 33 00
        E 0 80 4b 00
        E 0 80 63 00
        E 120 90 1c 6d
        E 0 90 34 6d
        E 0 90 4c 6d
        E 0 90 64 6d
        E 360 80 1c 00
        E 0 80 34 00
        E 0 80 4c 00
        E 0 80 64 00
        E 120 90 1c 6f
        E 0 90 34 6f
        E 0 90 4c 6f
        E 0 90 64 6f
        E 1440 80 1c 00
        E 0 80 34 00
        E 0 80 4c 00
        E 0 80 64 00
        E 2880 b0 7b 00
        GUID {E1A7DD4A-6AA8-43AD-B525-F530EDA58F4A}
        IGNTEMPO 0 120.00000000 4 4
        SRCCOLOR 3
        VELLANE 132 128 60
        COLORMAP "C:\Program Files\REAPER (x64)\Data\color_maps\rockband_guitarbass.png"
        TEXTSTRINGFILE "C:\Program Files\REAPER (x64)\Data\Text_Strings\Text Events List - PRO Trainers.txt"
        CFGEDITVIEW -4896.000000 10.271117 0 12 0 0 0
        CFGEDIT 1 1 0 1 1 0 1 1 1 1 1 0.25000000 -8 -8 1544 872 0 2 1 1 0.00000000 0 1 0 0 0.500000 0 0 1.000000 64
        KEYSNAP 0 6 "102030050700" 0 "Pentatonic"
        EVTFILTER 0 -1 -1 -1 -1 0 1 0 0 -1.00000000 -1.00000000
      >
    >
  >
  <TRACK '{89BDA0A2-5FFA-4570-96F6-72EA6BE70D1C}'
    NAME "EVENTS"
    PEAKCOL 16576
    BEAT -1
    AUTOMODE 0
    VOLPAN 1.00000000000000 0.00000000000000 -1.00000000000000 -1.00000000000000 1.00000000000000
    MUTESOLO 0 0 0
    IPHASE 0
    ISBUS 0 0
    BUSCOMP 0 0
    SHOWINMIX 1 0.666700 0.500000 1 0.500000 -1 -1 -1
    FREEMODE 0
    SEL 0
    REC 0 0 0 0 0 0 0
    VU 2
    TRACKHEIGHT 0 0
    INQ 0 0 0 0.5000000000 100 0 0 100
    NCHAN 2
    FX 1
    TRACKID {89BDA0A2-5FFA-4570-96F6-72EA6BE70D1C}
    PERF 0
    MIDIOUT -1
    <MIDINOTENAMES
      0 26 "Hi-Hat"
      0 25 "Snare"
      0 24 "Kick"
    >
    MAINSEND 1 0
    <FXCHAIN
      SHOW 0
      LASTSEL 0
      DOCKED 0
    >
    <ITEM
      POSITION 0.00000000000000
      SNAPOFFS 0.00000000000000
      LENGTH 122.40856859980200
      LOOP 0
      ALLTAKES 0
      SEL 0
      FADEIN 1 0.000000 0.000000 1 0
      FADEOUT 1 0.000000 0.000000 1 0
      MUTE 0
      IGUID {CC43A8DE-AD4B-4E04-88F4-D408ABF1D562}
      IID 14
      NAME "EVENTS"
      VOLPAN 1.000000 0.000000 1.000000 -1.000000
      SOFFS 0.00000000000000 0.00000000000000
      PLAYRATE 1.00000000000000 1 0.00000000000000 -1
      CHANMODE 0
      GUID {E2075ADC-E78E-41AE-9884-E7CE354CA455}
      <SOURCE MIDI
        HASDATA 1 480 QN
        POOLEDEVTS {6EBE4505-81C7-45AA-B0D6-755F6189AA19}
        <X 0 0
          /wNFVkVOVFM=
        >
        e 0 90 1a 60
        e 120 80 1a 00
        e 360 90 1a 60
        e 120 80 1a 00
        e 360 90 1a 60
        e 120 80 1a 00
        e 360 90 1a 60
        e 120 80 1a 00
        e 360 90 1a 60
        e 120 80 1a 00
        e 360 90 1a 60
        e 120 80 1a 00
        <X 360 0
          /wFbcHJjX21lbG9keV8xYV0=
        >
        e 0 90 18 60
        e 120 80 18 00
        e 360 90 1a 60
        e 120 80 1a 00
        <X 120 0
          /wFbbXVzaWNfc3RhcnRd
        >
        e 240 90 1a 60
        e 120 80 1a 00
        e 360 90 18 60
        e 120 80 18 00
        e 360 90 1a 60
        e 120 80 1a 00
        e 360 90 1a 60
        e 120 80 1a 00
        e 360 90 18 60
        e 120 80 18 00
        e 360 90 1a 60
        e 120 80 1a 00
        e 360 90 1a 60
        e 120 80 1a 00
        e 360 90 18 60
        e 120 80 18 00
        e 360 90 1a 60
        e 120 80 1a 00
        e 360 90 1a 60
        e 120 80 1a 00
        e 360 90 18 60
        e 120 80 18 00
        e 360 90 1a 60
        e 120 80 1a 00
        e 360 90 1a 60
        e 120 80 1a 00
        e 360 90 18 60
        e 120 80 18 00
        e 360 90 1a 60
        e 120 80 1a 00
        e 360 90 1a 60
        e 120 80 1a 00
        e 360 90 18 60
        e 120 80 18 00
        e 360 90 1a 60
        e 120 80 1a 00
        e 360 90 1a 60
        e 120 80 1a 00
        e 360 90 18 60
        e 120 80 18 00
        e 360 90 1a 60
        e 120 80 1a 00
        e 360 90 1a 60
        e 120 80 1a 00
        <X 360 0
          /wFbcHJjX21lbG9keV8xYl0=
        >
        e 0 90 18 60
        e 120 80 18 00
        e 360 90 1a 60
        e 120 80 1a 00
        e 360 90 1a 60
        e 120 80 1a 00
        e 360 90 18 60
        e 120 80 18 00
        e 360 90 1a 60
        e 120 80 1a 00
        e 360 90 1a 60
        e 120 80 1a 00
        e 360 90 18 60
        e 120 80 18 00
        e 360 90 1a 60
        e 120 80 1a 00
        e 360 90 1a 60
        e 120 80 1a 00
        e 360 90 18 60
        e 120 80 18 00
        e 360 90 1a 60
        e 120 80 1a 00
        e 360 90 1a 60
        e 120 80 1a 00
        e 360 90 18 60
        e 120 80 18 00
        e 360 90 1a 60
        e 120 80 1a 00
        e 360 90 1a 60
        e 120 80 1a 00
        e 360 90 18 60
        e 120 80 18 00
        e 360 90 1a 60
        e 120 80 1a 00
        e 360 90 1a 60
        e 120 80 1a 00
        e 360 90 18 60
        e 120 80 18 00
        e 360 90 1a 60
        e 120 80 1a 00
        e 360 90 1a 60
        e 120 80 1a 00
        e 360 90 18 60
        e 120 80 18 00
        e 360 90 1a 60
        e 120 80 1a 00
        e 360 90 1a 60
        e 120 80 1a 00
        <X 360 0
          /wFbcHJjX21lbG9keV8yYV0=
        >
        e 0 90 18 60
        e 120 80 18 00
        e 360 90 1a 60
        e 120 80 1a 00
        e 360 90 1a 60
        e 120 80 1a 00
        e 360 90 18 60
        e 120 80 18 00
        e 360 90 1a 60
        e 120 80 1a 00
        e 360 90 1a 60
        e 120 80 1a 00
        e 360 90 18 60
        e 120 80 18 00
        e 360 90 1a 60
        e 120 80 1a 00
        e 360 90 1a 60
        e 120 80 1a 00
        e 360 90 18 60
        e 120 80 18 00
        e 360 90 1a 60
        e 120 80 1a 00
        e 360 90 1a 60
        e 120 80 1a 00
        e 360 90 18 60
        e 120 80 18 00
        e 360 90 1a 60
        e 120 80 1a 00
        e 360 90 1a 60
        e 120 80 1a 00
        e 360 90 18 60
        e 120 80 18 00
        e 360 90 1a 60
        e 120 80 1a 00
        e 360 90 1a 60
        e 120 80 1a 00
        e 360 90 18 60
        e 120 80 18 00
        e 360 90 1a 60
        e 120 80 1a 00
        e 360 90 1a 60
        e 120 80 1a 00
        e 360 90 18 60
        e 120 80 18 00
        e 360 90 1a 60
        e 120 80 1a 00
        e 360 90 1a 60
        e 120 80 1a 00
        <X 360 0
          /wFbcHJjX21lbG9keV8yYl0=
        >
        e 0 90 18 60
        e 120 80 18 00
        e 360 90 1a 60
        e 120 80 1a 00
        e 360 90 1a 60
        e 120 80 1a 00
        e 360 90 18 60
        e 120 80 18 00
        e 360 90 1a 60
        e 120 80 1a 00
        e 360 90 1a 60
        e 120 80 1a 00
        e 360 90 18 60
        e 120 80 18 00
        e 360 90 1a 60
        e 120 80 1a 00
        e 360 90 1a 60
        e 120 80 1a 00
        e 360 90 18 60
        e 120 80 18 00
        e 360 90 1a 60
        e 120 80 1a 00
        e 360 90 1a 60
        e 120 80 1a 00
        e 360 90 18 60
        e 120 80 18 00
        e 360 90 1a 60
        e 120 80 1a 00
        e 360 90 1a 60
        e 120 80 1a 00
        e 360 90 18 60
        e 120 80 18 00
        e 360 90 1a 60
        e 120 80 1a 00
        e 360 90 1a 60
        e 120 80 1a 00
        e 360 90 18 60
        e 120 80 18 00
        e 360 90 1a 60
        e 120 80 1a 00
        e 360 90 1a 60
        e 120 80 1a 00
        e 360 90 18 60
        e 120 80 18 00
        e 360 90 1a 60
        e 120 80 1a 00
        e 360 90 1a 60
        e 120 80 1a 00
        <X 360 0
          /wFbcHJjX21lbG9keV8zYV0=
        >
        e 0 90 18 60
        e 120 80 18 00
        e 360 90 1a 60
        e 120 80 1a 00
        e 360 90 1a 60
        e 120 80 1a 00
        e 360 90 18 60
        e 120 80 18 00
        e 360 90 1a 60
        e 120 80 1a 00
        e 360 90 1a 60
        e 120 80 1a 00
        e 360 90 18 60
        e 120 80 18 00
        e 360 90 1a 60
        e 120 80 1a 00
        e 360 90 1a 60
        e 120 80 1a 00
        e 360 90 18 60
        e 120 80 18 00
        e 360 90 1a 60
        e 120 80 1a 00
        e 360 90 1a 60
        e 120 80 1a 00
        e 360 90 18 60
        e 120 80 18 00
        e 360 90 1a 60
        e 120 80 1a 00
        e 360 90 1a 60
        e 120 80 1a 00
        e 360 90 18 60
        e 120 80 18 00
        e 360 90 1a 60
        e 120 80 1a 00
        e 360 90 1a 60
        e 120 80 1a 00
        e 360 90 18 60
        e 120 80 18 00
        e 360 90 1a 60
        e 120 80 1a 00
        e 360 90 1a 60
        e 120 80 1a 00
        e 360 90 18 60
        e 120 80 18 00
        e 360 90 1a 60
        e 120 80 1a 00
        e 360 90 1a 60
        e 120 80 1a 00
        <X 360 0
          /wFbcHJjX21lbG9keV8zYl0=
        >
        e 0 90 18 60
        e 120 80 18 00
        e 360 90 1a 60
        e 120 80 1a 00
        e 360 90 1a 60
        e 120 80 1a 00
        e 360 90 18 60
        e 120 80 18 00
        e 360 90 1a 60
        e 120 80 1a 00
        e 360 90 1a 60
        e 120 80 1a 00
        e 360 90 18 60
        e 120 80 18 00
        e 360 90 1a 60
        e 120 80 1a 00
        e 360 90 1a 60
        e 120 80 1a 00
        e 360 90 18 60
        e 120 80 18 00
        e 360 90 1a 60
        e 120 80 1a 00
        e 360 90 1a 60
        e 120 80 1a 00
        e 360 90 18 60
        e 120 80 18 00
        e 360 90 1a 60
        e 120 80 1a 00
        e 360 90 1a 60
        e 120 80 1a 00
        e 360 90 18 60
        e 120 80 18 00
        e 360 90 1a 60
        e 120 80 1a 00
        e 360 90 1a 60
        e 120 80 1a 00
        e 360 90 18 60
        e 120 80 18 00
        e 360 90 1a 60
        e 120 80 1a 00
        e 360 90 1a 60
        e 120 80 1a 00
        e 360 90 18 60
        e 120 80 18 00
        e 360 90 1a 60
        e 120 80 1a 00
        e 360 90 1a 60
        e 120 80 1a 00
        <X 360 0
          /wFbcHJjX21lbG9keV80YV0=
        >
        e 0 90 18 60
        e 120 80 18 00
        e 360 90 1a 60
        e 120 80 1a 00
        e 360 90 1a 60
        e 120 80 1a 00
        e 360 90 18 60
        e 120 80 18 00
        e 360 90 1a 60
        e 120 80 1a 00
        e 360 90 1a 60
        e 120 80 1a 00
        e 360 90 18 60
        e 120 80 18 00
        e 360 90 1a 60
        e 120 80 1a 00
        e 360 90 1a 60
        e 120 80 1a 00
        e 360 90 18 60
        e 120 80 18 00
        e 360 90 1a 60
        e 120 80 1a 00
        e 360 90 1a 60
        e 120 80 1a 00
        e 360 90 18 60
        e 120 80 18 00
        e 360 90 1a 60
        e 120 80 1a 00
        e 360 90 1a 60
        e 120 80 1a 00
        e 360 90 18 60
        e 120 80 18 00
        e 360 90 1a 60
        e 120 80 1a 00
        e 360 90 1a 60
        e 120 80 1a 00
        e 360 90 18 60
        e 120 80 18 00
        e 360 90 1a 60
        e 120 80 1a 00
        e 360 90 1a 60
        e 120 80 1a 00
        e 360 90 18 60
        e 120 80 18 00
        e 360 90 1a 60
        e 120 80 1a 00
        e 360 90 1a 60
        e 120 80 1a 00
        <X 360 0
          /wFbcHJjX291dHJvXQ==
        >
        e 0 90 18 60
        e 120 80 18 00
        e 360 90 1a 60
        e 120 80 1a 00
        e 360 90 1a 60
        e 120 80 1a 00
        e 360 90 18 60
        e 120 80 18 00
        e 360 90 1a 60
        e 120 80 1a 00
        e 360 90 1a 60
        e 120 80 1a 00
        e 360 90 18 60
        e 120 80 18 00
        e 360 90 1a 60
        e 120 80 1a 00
        e 360 90 1a 60
        e 120 80 1a 00
        e 360 90 18 60
        e 120 80 18 00
        e 360 90 1a 60
        e 120 80 1a 00
        e 360 90 1a 60
        e 120 80 1a 00
        e 360 90 18 60
        e 120 80 18 00
        e 360 90 1a 60
        e 120 80 1a 00
        e 360 90 1a 60
        e 120 80 1a 00
        e 360 90 18 60
        e 120 80 18 00
        e 360 90 1a 60
        e 120 80 1a 00
        e 360 90 1a 60
        e 120 80 1a 00
        e 360 90 18 60
        e 120 80 18 00
        e 360 90 1a 60
        e 120 80 1a 00
        e 360 90 1a 60
        e 120 80 1a 00
        e 360 90 18 60
        e 120 80 18 00
        e 360 90 1a 60
        e 120 80 1a 00
        e 360 90 1a 60
        e 120 80 1a 00
        <X 600 0
          /wFbbXVzaWNfZW5kXQ==
        >
        <X 2635 0
          /wFbZW5kXQ==
        >
        E 5 b0 7b 00
        GUID {60EEAE37-9E00-4D66-8D53-32D965ED3290}
        IGNTEMPO 0 120.00000000 4 4
        SRCCOLOR 9
        VELLANE 132 128 60
        COLORMAP "C:\Program Files\REAPER (x64)\Data\color_maps\rockband_guitarbass.png"
        TEXTSTRINGFILE "C:\Program Files\REAPER (x64)\Data\Text_Strings\Text Events List - Events.txt"
        CFGEDITVIEW -4896.000000 10.271117 0 48 0 0 0
        CFGEDIT 1 1 0 1 1 0 1 1 1 1 1 0.25000000 -8 -8 1544 872 0 2 1 1 0.00000000 0 1 0 0 0.500000 0 0 1.000000 64
        KEYSNAP 0 6 "102030050700" 0 "Pentatonic"
        EVTFILTER 0 -1 -1 -1 -1 0 1 0 0 -1.00000000 -1.00000000
      >
    >
  >
  <TRACK '{ADB7FA16-AA07-4DA7-AFC7-E2311F61145E}'
    NAME "BEAT"
    PEAKCOL 16576
    BEAT -1
    AUTOMODE 0
    VOLPAN 1.00000000000000 0.00000000000000 -1.00000000000000 -1.00000000000000 1.00000000000000
    MUTESOLO 0 0 0
    IPHASE 0
    ISBUS 0 0
    BUSCOMP 0 0
    SHOWINMIX 1 0.666700 0.500000 1 0.500000 -1 -1 -1
    FREEMODE 0
    SEL 0
    REC 0 0 0 0 0 0 0
    VU 2
    TRACKHEIGHT 0 0
    INQ 0 0 0 0.5000000000 100 0 0 100
    NCHAN 2
    FX 1
    TRACKID {ADB7FA16-AA07-4DA7-AFC7-E2311F61145E}
    PERF 0
    MIDIOUT -1
    <MIDINOTENAMES
      0 13 "Up Beats"
      0 12 "Downbeat"
    >
    MAINSEND 1 0
    <FXCHAIN
      SHOW 0
      LASTSEL 0
      DOCKED 0
    >
    <ITEM
      POSITION 0.00000000000000
      SNAPOFFS 0.00000000000000
      LENGTH 122.40856859980200
      LOOP 0
      ALLTAKES 0
      SEL 0
      FADEIN 1 0.000000 0.000000 1 0
      FADEOUT 1 0.000000 0.000000 1 0
      MUTE 0
      IGUID {73AA5B45-01BF-4B32-A6A7-396F552C5D5F}
      IID 15
      NAME "BEAT"
      VOLPAN 1.000000 0.000000 1.000000 -1.000000
      SOFFS 0.00000000000000 0.00000000000000
      PLAYRATE 1.00000000000000 1 0.00000000000000 -1
      CHANMODE 0
      GUID {A809CA80-E3DE-45D2-9C1E-EDA4B24EE9FD}
      <SOURCE MIDI
        HASDATA 1 480 QN
        POOLEDEVTS {45AA6013-0BCA-4DF2-BB81-C4A99214780F}
        e 0 96 0c 64
        e 120 86 0c 00
        e 360 96 0d 64
        e 120 86 0d 00
        e 360 96 0d 64
        e 120 86 0d 00
        e 360 96 0c 64
        e 120 86 0c 00
        e 360 96 0d 64
        e 120 86 0d 00
        e 360 96 0d 64
        e 120 86 0d 00
        e 360 96 0c 64
        e 120 86 0c 00
        e 360 96 0d 64
        e 120 86 0d 00
        e 360 96 0d 64
        e 120 86 0d 00
        e 360 96 0c 64
        e 120 86 0c 00
        e 360 96 0d 64
        e 120 86 0d 00
        e 360 96 0d 64
        e 120 86 0d 00
        e 360 96 0c 64
        e 120 86 0c 00
        e 360 96 0d 64
        e 120 86 0d 00
        e 360 96 0d 64
        e 120 86 0d 00
        e 360 96 0c 64
        e 120 86 0c 00
        e 360 96 0d 64
        e 120 86 0d 00
        e 360 96 0d 64
        e 120 86 0d 00
        e 360 96 0c 64
        e 120 86 0c 00
        e 360 96 0d 64
        e 120 86 0d 00
        e 360 96 0d 64
        e 120 86 0d 00
        e 360 96 0c 64
        e 120 86 0c 00
        e 360 96 0d 64
        e 120 86 0d 00
        e 360 96 0d 64
        e 120 86 0d 00
        e 360 96 0c 64
        e 120 86 0c 00
        e 360 96 0d 64
        e 120 86 0d 00
        e 360 96 0d 64
        e 120 86 0d 00
        e 360 96 0c 64
        e 120 86 0c 00
        e 360 96 0d 64
        e 120 86 0d 00
        e 360 96 0d 64
        e 120 86 0d 00
        e 360 96 0c 64
        e 120 86 0c 00
        e 360 96 0d 64
        e 120 86 0d 00
        e 360 96 0d 64
        e 120 86 0d 00
        e 360 96 0c 64
        e 120 86 0c 00
        e 360 96 0d 64
        e 120 86 0d 00
        e 360 96 0d 64
        e 120 86 0d 00
        e 360 96 0c 64
        e 120 86 0c 00
        e 360 96 0d 64
        e 120 86 0d 00
        e 360 96 0d 64
        e 120 86 0d 00
        e 360 96 0c 64
        e 120 86 0c 00
        e 360 96 0d 64
        e 120 86 0d 00
        e 360 96 0d 64
        e 120 86 0d 00
        e 360 96 0c 64
        e 120 86 0c 00
        e 360 96 0d 64
        e 120 86 0d 00
        e 360 96 0d 64
        e 120 86 0d 00
        e 360 96 0c 64
        e 120 86 0c 00
        e 360 96 0d 64
        e 120 86 0d 00
        e 360 96 0d 64
        e 120 86 0d 00
        e 360 96 0c 64
        e 120 86 0c 00
        e 360 96 0d 64
        e 120 86 0d 00
        e 360 96 0d 64
        e 120 86 0d 00
        e 360 96 0c 64
        e 120 86 0c 00
        e 360 96 0d 64
        e 120 86 0d 00
        e 360 96 0d 64
        e 120 86 0d 00
        e 360 96 0c 64
        e 120 86 0c 00
        e 360 96 0d 64
        e 120 86 0d 00
        e 360 96 0d 64
        e 120 86 0d 00
        e 360 96 0c 64
        e 120 86 0c 00
        e 360 96 0d 64
        e 120 86 0d 00
        e 360 96 0d 64
        e 120 86 0d 00
        e 360 96 0c 64
        e 120 86 0c 00
        e 360 96 0d 64
        e 120 86 0d 00
        e 360 96 0d 64
        e 120 86 0d 00
        e 360 96 0c 64
        e 120 86 0c 00
        e 360 96 0d 64
        e 120 86 0d 00
        e 360 96 0d 64
        e 120 86 0d 00
        e 360 96 0c 64
        e 120 86 0c 00
        e 360 96 0d 64
        e 120 86 0d 00
        e 360 96 0d 64
        e 120 86 0d 00
        e 360 96 0c 64
        e 120 86 0c 00
        e 360 96 0d 64
        e 120 86 0d 00
        e 360 96 0d 64
        e 120 86 0d 00
        e 360 96 0c 64
        e 120 86 0c 00
        e 360 96 0d 64
        e 120 86 0d 00
        e 360 96 0d 64
        e 120 86 0d 00
        e 360 96 0c 64
        e 120 86 0c 00
        e 360 96 0d 64
        e 120 86 0d 00
        e 360 96 0d 64
        e 120 86 0d 00
        e 360 96 0c 64
        e 120 86 0c 00
        e 360 96 0d 64
        e 120 86 0d 00
        e 360 96 0d 64
        e 120 86 0d 00
        e 360 96 0c 64
        e 120 86 0c 00
        e 360 96 0d 64
        e 120 86 0d 00
        e 360 96 0d 64
        e 120 86 0d 00
        e 360 96 0c 64
        e 120 86 0c 00
        e 360 96 0d 64
        e 120 86 0d 00
        e 360 96 0d 64
        e 120 86 0d 00
        e 360 96 0c 64
        e 120 86 0c 00
        e 360 96 0d 64
        e 120 86 0d 00
        e 360 96 0d 64
        e 120 86 0d 00
        e 360 96 0c 64
        e 120 86 0c 00
        e 360 96 0d 64
        e 120 86 0d 00
        e 360 96 0d 64
        e 120 86 0d 00
        e 360 96 0c 64
        e 120 86 0c 00
        e 360 96 0d 64
        e 120 86 0d 00
        e 360 96 0d 64
        e 120 86 0d 00
        e 360 96 0c 64
        e 120 86 0c 00
        e 360 96 0d 64
        e 120 86 0d 00
        e 360 96 0d 64
        e 120 86 0d 00
        e 360 96 0c 64
        e 120 86 0c 00
        e 360 96 0d 64
        e 120 86 0d 00
        e 360 96 0d 64
        e 120 86 0d 00
        e 360 96 0c 64
        e 120 86 0c 00
        e 360 96 0d 64
        e 120 86 0d 00
        e 360 96 0d 64
        e 120 86 0d 00
        e 360 96 0c 64
        e 120 86 0c 00
        e 360 96 0d 64
        e 120 86 0d 00
        e 360 96 0d 64
        e 120 86 0d 00
        e 360 96 0c 64
        e 120 86 0c 00
        e 360 96 0d 64
        e 120 86 0d 00
        e 360 96 0d 64
        e 120 86 0d 00
        e 360 96 0c 64
        e 120 86 0c 00
        e 360 96 0d 64
        e 120 86 0d 00
        e 360 96 0d 64
        e 120 86 0d 00
        e 360 96 0c 64
        e 120 86 0c 00
        e 360 96 0d 64
        e 120 86 0d 00
        e 360 96 0d 64
        e 120 86 0d 00
        e 360 96 0c 64
        e 120 86 0c 00
        e 360 96 0d 64
        e 120 86 0d 00
        e 360 96 0d 64
        e 120 86 0d 00
        e 360 96 0c 64
        e 120 86 0c 00
        e 360 96 0d 64
        e 120 86 0d 00
        e 360 96 0d 64
        e 120 86 0d 00
        e 360 96 0c 64
        e 120 86 0c 00
        e 360 96 0d 64
        e 120 86 0d 00
        e 360 96 0d 64
        e 120 86 0d 00
        e 360 96 0c 64
        e 120 86 0c 00
        e 360 96 0d 64
        e 120 86 0d 00
        e 360 96 0d 64
        e 120 86 0d 00
        e 360 96 0c 64
        e 120 86 0c 00
        e 360 96 0d 64
        e 120 86 0d 00
        e 360 96 0d 64
        e 120 86 0d 00
        e 360 96 0c 64
        e 120 86 0c 00
        e 360 96 0d 64
        e 120 86 0d 00
        e 360 96 0d 64
        e 120 86 0d 00
        e 360 96 0c 64
        e 120 86 0c 00
        e 360 96 0d 64
        e 120 86 0d 00
        e 360 96 0d 64
        e 120 86 0d 00
        e 360 96 0c 64
        e 120 86 0c 00
        e 360 96 0d 64
        e 120 86 0d 00
        e 360 96 0d 64
        e 120 86 0d 00
        e 360 96 0c 64
        e 120 86 0c 00
        e 360 96 0d 64
        e 120 86 0d 00
        e 360 96 0d 64
        e 120 86 0d 00
        e 360 96 0c 64
        e 120 86 0c 00
        e 360 96 0d 64
        e 120 86 0d 00
        e 360 96 0d 64
        e 120 86 0d 00
        e 360 96 0c 64
        e 120 86 0c 00
        e 360 96 0d 64
        e 120 86 0d 00
        e 360 96 0d 64
        e 120 86 0d 00
        e 360 96 0c 64
        e 120 86 0c 00
        e 360 96 0d 64
        e 120 86 0d 00
        e 360 96 0d 64
        e 120 86 0d 00
        e 360 96 0c 64
        e 120 86 0c 00
        e 360 96 0d 64
        e 120 86 0d 00
        e 360 96 0d 64
        e 120 86 0d 00
        e 360 96 0c 64
        e 120 86 0c 00
        e 360 96 0d 64
        e 120 86 0d 00
        e 360 96 0d 64
        e 120 86 0d 00
        e 360 96 0c 64
        e 120 86 0c 00
        e 360 96 0d 64
        e 120 86 0d 00
        e 360 96 0d 64
        e 120 86 0d 00
        e 360 96 0c 64
        e 120 86 0c 00
        e 360 96 0d 64
        e 120 86 0d 00
        e 360 96 0d 64
        e 120 86 0d 00
        e 360 96 0c 64
        e 120 86 0c 00
        e 360 96 0d 64
        e 120 86 0d 00
        e 360 96 0d 64
        e 120 86 0d 00
        e 360 96 0c 64
        e 120 86 0c 00
        e 360 96 0d 64
        e 120 86 0d 00
        e 360 96 0d 64
        e 120 86 0d 00
        e 360 96 0c 64
        e 120 86 0c 00
        e 360 96 0d 64
        e 120 86 0d 00
        e 360 96 0d 64
        e 120 86 0d 00
        e 360 96 0c 64
        e 120 86 0c 00
        e 360 96 0d 64
        e 120 86 0d 00
        e 360 96 0d 64
        e 120 86 0d 00
        e 360 96 0c 64
        e 120 86 0c 00
        e 360 96 0d 64
        e 120 86 0d 00
        e 360 96 0d 64
        e 120 86 0d 00
        e 360 96 0c 64
        e 120 86 0c 00
        e 360 96 0d 64
        e 120 86 0d 00
        e 360 96 0d 64
        e 120 86 0d 00
        e 360 96 0c 64
        e 120 86 0c 00
        e 360 96 0d 64
        e 120 86 0d 00
        e 360 96 0d 64
        e 120 86 0d 00
        e 360 96 0c 64
        e 120 86 0c 00
        e 360 96 0d 64
        e 120 86 0d 00
        e 360 96 0d 64
        e 120 86 0d 00
        e 360 96 0c 64
        e 120 86 0c 00
        e 360 96 0d 64
        e 120 86 0d 00
        e 360 96 0d 64
        e 120 86 0d 00
        e 360 96 0c 64
        e 120 86 0c 00
        e 360 96 0d 64
        e 120 86 0d 00
        e 360 96 0d 64
        e 120 86 0d 00
        e 360 96 0c 64
        e 120 86 0c 00
        e 360 96 0d 64
        e 120 86 0d 00
        e 360 96 0d 64
        e 120 86 0d 00
        e 360 96 0c 64
        e 120 86 0c 00
        e 360 96 0d 64
        e 120 86 0d 00
        e 360 96 0d 64
        e 120 86 0d 00
        e 360 96 0c 64
        e 120 86 0c 00
        e 360 96 0d 64
        e 120 86 0d 00
        e 360 96 0d 64
        e 120 86 0d 00
        E 360 b0 7b 00
        GUID {FAF61B72-0B2F-4D5F-83FC-632666453AEB}
        IGNTEMPO 0 120.00000000 4 4
        SRCCOLOR 10
        VELLANE 132 128 60
        COLORMAP "C:\Program Files\REAPER (x64)\Data\color_maps\rockband_guitarbass.png"
        CFGEDITVIEW -5685.449024 10.271117 0 48 0 0 0
        CFGEDIT 1 1 0 1 1 0 1 1 1 1 1 0.25000000 -8 -8 1544 872 0 2 1 1 0.00000000 0 1 0 0 0.500000 0 0 1.000000 64
        KEYSNAP 0 6 "102030050700" 0 "Pentatonic"
        EVTFILTER 0 -1 -1 -1 -1 0 1 0 0 -1.00000000 -1.00000000
      >
    >
  >
  <TRACK '{209F6164-62A0-45F0-99D5-A2A31E39D9C4}'
    NAME "backing"
    PEAKCOL 16576
    BEAT -1
    AUTOMODE 0
    VOLPAN 1.00000000000000 0.00000000000000 -1.00000000000000 -1.00000000000000 1.00000000000000
    MUTESOLO 0 0 0
    IPHASE 0
    ISBUS 0 0
    BUSCOMP 0 0
    SHOWINMIX 1 0.666700 0.500000 1 0.500000 -1 -1 -1
    FREEMODE 0
    SEL 0
    REC 0 0 0 0 0 0 0
    VU 2
    TRACKHEIGHT 0 0
    INQ 0 0 0 0.5000000000 100 0 0 100
    NCHAN 2
    FX 1
    TRACKID {209F6164-62A0-45F0-99D5-A2A31E39D9C4}
    PERF 0
    MIDIOUT -1
    MAINSEND 1 0
    <ITEM
      POSITION 0.00000000000000
      SNAPOFFS 0.00000000000000
      LENGTH 122.40857142857143
      LOOP 0
      ALLTAKES 0
      SEL 0
      FADEIN 1 0.000000 0.000000 1 0
      FADEOUT 1 0.000000 0.000000 1 0
      MUTE 0
      IGUID {798C035C-09F6-4A45-A51C-2CBD017C1509}
      IID 16
      NAME "backing.wav"
      VOLPAN 1.000000 0.000000 1.000000 -1.000000
      SOFFS 0.00000000000000
      PLAYRATE 1.00000000000000 1 0.00000000000000 -1
      CHANMODE 0
      GUID {3DD39C65-A674-4FB5-9D31-0D6D9ACC6271}
      <SOURCE WAVE
        FILE "wav\backing.wav"
      >
    >
  >
  <EXTENSIONS
  >
>
