<REAPER_PROJECT 0.1 "4.22/x64"
  RIPPLE 0
  GROUPOVERRIDE 0 0 0
  AUTOXFADE 1
  ENVATTACH 1
  MIXERUIFLAGS 11 48
  PEAKGAIN 1.00000000000000
  FEEDBACK 0
  PANLAW 1.00000000000000
  PROJOFFS 0.00000000000000 0
  MAXPROJLEN 0 600.00000000000000
  GRID 3199 8 1.00000000000000 8 1.00000000000000 0
  TIMEMODE 1 0 -1
  PANMODE 3
  CURSOR 7.04168700000000
  ZOOM 11.81708660118730 0 0
  VZOOMEX 6
  USE_REC_CFG 0
  RECMODE 1
  SMPTESYNC 0 23.976024 100 40 1000 300 0 0.000000 1
  LOOP 1
  LOOPGRAN 0 4.00000000000000
  RECORD_PATH "" ""
  <RECORD_CFG
    ZXZhdxAD
  >
  <APPLYFX_CFG
  >
  RENDER_FILE ""
  RENDER_PATTERN ""
  RENDER_FMT 0 2 0
  RENDER_1X 0
  RENDER_RANGE 1 0.00000000000000 0.00000000000000
  RENDER_RESAMPLE 3 0 1
  RENDER_ADDTOPROJ 0
  RENDER_STEMS 0
  RENDER_DITHER 0
  TIMELOCKMODE 0
  ITEMMIX 0
  DEFPITCHMODE 393216
  TAKELANE 1
  SAMPLERATE 44100 0 0
  <RENDER_CFG
  >
  LOCK 1
  <METRONOME 6 2.000000
    VOL 0.250000 0.125000
    FREQ 800 1600 1
    BEATLEN 4
    SAMPLES "" ""
  >
  GLOBAL_AUTO -1
  TEMPO 120.00000000000000 4 4
  PLAYRATE 1.00000000000000 0 0.25000 4.00000
  SELECTION 95.03188373750000 0.00000000000000
  SELECTION2 95.03188373750000 0.00000000000000
  MASTERAUTOMODE 0
  MASTERTRACKHEIGHT 0
  MASTERPEAKCOL 16576
  MASTERMUTESOLO 0
  MASTERTRACKVIEW 0 0.666700 0.500000 0.500000 -1 -1 -1
  MASTERHWOUT 0 0 1.00000000000000 0.00000000000000 0 0 0 -1.00000000000000
  MASTER_NCH 2 2
  MASTER_VOLUME 1.00000000000000 0.00000000000000 -1.00000000000000 -1.00000000000000 1.00000000000000
  MASTER_PANMODE -1
  MASTER_FX 1
  MASTER_SEL 0
  <MASTERPLAYSPEEDENV
    ACT 0
    VIS 0 1 1.000000
    LANEHEIGHT 0 0
    ARM 0
    DEFSHAPE 0 -1 -1
  >
  <TEMPOENVEX
    ACT 1
    VIS 1 0 1.000000
    LANEHEIGHT 0 0
    ARM 0
    DEFSHAPE 1 -1 -1
    PT 0.000000000000 102.0000510000 1
    PT 5.294115000000 103.0000480667 1
    PT 7.041687000000 103.0000480667 1 262146
    PT 8.206735000000 103.0000480667 1 262148
    PT 10.536831000000 102.3000460350 1
    PT 38.689311000000 103.0000480667 1
    PT 43.338580675000 102.3000460350 1
    PT 44.522597737500 102.0000510000 1
    PT 48.052007737500 102.1000273968 1
    PT 50.402643737500 102.3000460350 1
    PT 76.209083737500 102.4999743750 1
    PT 85.574939737500 102.1000273968 1
    PT 89.982382237500 101.0000690167 1
  >
  <PROJBAY
  >
  <TRACK '{DF666CBC-0195-4800-9D68-86AD036C12EB}'
    NAME "PART DRUMS"
    PEAKCOL 16576
    BEAT -1
    AUTOMODE 0
    VOLPAN 1.00000000000000 0.00000000000000 -1.00000000000000 -1.00000000000000 1.00000000000000
    MUTESOLO 0 0 0
    IPHASE 0
    ISBUS 1 1
    BUSCOMP 0 0
    SHOWINMIX 1 0.666700 0.500000 1 0.500000 -1 -1 -1
    FREEMODE 0
    SEL 0
    REC 0 0 0 0 0 0 0
    VU 2
    TRACKHEIGHT 0 0
    INQ 0 0 0 0.5000000000 100 0 0 100
    NCHAN 2
    FX 1
    TRACKID {DF666CBC-0195-4800-9D68-86AD036C12EB}
    PERF 0
    MIDIOUT -1
    <MIDINOTENAMES
      0 127 "CYMBAL SWELLS"
      0 126 "DRUM ROLL"
      0 125 "---"
      0 124 "DRUM FILL"
      0 123 "DRUM FILL"
      0 122 "DRUM FILL"
      0 121 "DRUM FILL"
      0 120 "DRUM FILL (use all 5)"
      0 118 "----"
      0 116 "OVERDRIVE"
      0 114 "----"
      0 112 "TOM GEMS PAD 4"
      0 111 "TOM GEMS PAD 3"
      0 110 "TOM GEMS PAD 2"
      0 103 "Solo Marker"
      0 102 "----"
      0 100 "EXPERT Green"
      0 99 "EXPERT Blue"
      0 98 "EXPERT Yellow"
      0 97 "EXPERT Red"
      0 96 "EXPERT Kick"
      0 92 "----"
      0 88 "HARD Green"
      0 87 "HARD Blue"
      0 86 "HARD Yellow"
      0 85 "HARD Red"
      0 84 "HARD Kick"
      0 80 "----"
      0 76 "MEDIUM Green"
      0 75 "MEDIUM Blue"
      0 74 "MEDIUM Yellow"
      0 73 "MEDIUM Red"
      0 72 "MEDIUM Kick"
      0 68 "----"
      0 64 "EASY Green"
      0 63 "EASY Blue"
      0 62 "EASY Yellow"
      0 61 "EASY Red"
      0 60 "EASY Kick"
      0 56 "----"
      0 52 "-- DRUM ANIMATION --"
      0 51 "FLOOR TOM RH"
      0 50 "FLOOR TOM LH"
      0 49 "TOM2 RH"
      0 48 "TOM2 LH"
      0 47 "TOM1 RH"
      0 46 "TOM1 LH"
      0 45 "SOFT CRASH 2 LH"
      0 44 "CRASH 2 LH"
      0 43 "RIDE LH"
      0 42 "RIDE CYM RH"
      0 41 "CRASH2 CHOKE"
      0 40 "CRASH1 CHOKE"
      0 39 "CRASH2 SOFT RH"
      0 38 "CRASH2 HARD RH"
      0 37 "CRASH1 SOFT RH"
      0 36 "CRASH1 HARD RH"
      0 35 "CRASH1 SOFT LH"
      0 34 "CRASH1 HARD LH"
      0 32 "PERCUSSION RH"
      0 31 "HI-HAT RH"
      0 30 "HI-HAT LH"
      0 29 "SOFT SNARE RH"
      0 28 "SOFT SNARE LH"
      0 27 "SNARE RH"
      0 26 "SNARE LH"
      0 25 "HI-HAT OPEN"
      0 24 "KICK RF"
    >
    MAINSEND 1 0
    <FXCHAIN
      WNDRECT 0 43 891 559
      SHOW 0
      LASTSEL 0
      DOCKED 0
      BYPASS 0 0
      <VST "VSTi: RBN Preview (RBN)" "rbprev_vst64.dll" 0 ""
        dnBicu5e7f4AAAAAAgAAAAEAAAAAAAAAAgAAAAAAAAAEAAAAAQAAAA==
        AAAQAAMBqgAAABAAAAA=
      >
      FLOATPOS 0 0 0 0
      FXID {762D0434-ED69-4C09-B4B8-2FD7A13B7DAE}
      WAK 0
    >
    <ITEM
      POSITION 0.00000000000000
      SNAPOFFS 0.00000000000000
      LENGTH 95.03100000000001
      LOOP 0
      ALLTAKES 0
      SEL 0
      FADEIN 1 0.000000 0.000000 1 0
      FADEOUT 1 0.000000 0.000000 1 0
      MUTE 0
      IGUID {DB4F73F2-C999-44DC-8A04-6218906C092B}
      IID 1
      NAME "PART DRUMS"
      VOLPAN 1.000000 0.000000 1.000000 -1.000000
      SOFFS 0.00000000000000 0.00000000000000
      PLAYRATE 1.00000000000000 1 0.00000000000000 -1
      CHANMODE 0
      GUID {CDB1E728-CFAA-42C6-88F0-2CED3F1997FF}
      <SOURCE MIDI
        HASDATA 1 480 QN
        POOLEDEVTS {53DDDDF0-B599-4FC3-BF53-E1EEF5114664}
        <X 0 0
          /wNQQVJUIERSVU1T
        >
        <X 120 0
          /wFbbWl4IDAgZHJ1bXMyXQ==
        >
        <X 120 0
          /wFbbWl4IDEgZHJ1bXMyXQ==
        >
        <X 120 0
          /wFbbWl4IDIgZHJ1bXMyXQ==
        >
        <X 120 0
          /wFbbWl4IDMgZHJ1bXMyXQ==
        >
        <X 3360 0
          /wFbaWRsZV0=
        >
        <X 4800 0
          /wFbbWVsbG93XQ==
        >
        E 0 90 1a 60
        E 0 90 26 60
        E 0 90 3d 60
        E 0 90 40 60
        E 0 90 49 60
        E 0 90 4c 60
        E 0 90 55 60
        E 0 90 58 60
        E 0 90 61 60
        E 0 90 64 60
        E 60 80 1a 00
        E 0 80 26 00
        E 0 80 3d 00
        E 0 80 40 00
        E 0 80 49 00
        E 0 80 4c 00
        E 0 80 55 00
        E 0 80 58 00
        E 0 80 61 00
        E 0 80 64 00
        E 180 90 1b 60
        E 0 90 55 60
        E 0 90 61 60
        E 60 80 1b 00
        E 0 80 55 00
        E 0 80 61 00
        E 60 90 1a 60
        E 0 90 61 60
        E 60 80 1a 00
        E 0 80 61 00
        E 60 90 1b 60
        E 0 90 49 60
        E 0 90 55 60
        E 0 90 61 60
        E 60 80 1b 00
        E 0 80 49 00
        E 0 80 55 00
        E 0 80 61 00
        E 420 90 1a 60
        E 0 90 2f 60
        E 0 90 3d 60
        E 0 90 3e 60
        E 0 90 49 60
        E 0 90 4a 60
        E 0 90 55 60
        E 0 90 56 60
        E 0 90 61 60
        E 0 90 62 60
        E 0 90 6e 60
        E 60 80 1a 00
        E 0 80 2f 00
        E 0 80 3d 00
        E 0 80 3e 00
        E 0 80 49 00
        E 0 80 4a 00
        E 0 80 55 00
        E 0 80 56 00
        E 0 80 61 00
        E 0 80 62 00
        E 0 80 6e 00
        E 180 90 1a 60
        E 0 90 55 60
        E 0 90 61 60
        E 60 80 1a 00
        E 0 80 55 00
        E 0 80 61 00
        E 180 90 1a 60
        E 0 90 31 60
        E 0 90 49 60
        E 0 90 4b 60
        E 0 90 55 60
        E 0 90 57 60
        E 0 90 61 60
        E 0 90 63 60
        E 0 90 6f 60
        E 60 80 1a 00
        E 0 80 31 00
        E 0 80 49 00
        E 0 80 4b 00
        E 0 80 55 00
        E 0 80 57 00
        E 0 80 61 00
        E 0 80 63 00
        E 0 80 6f 00
        E 420 90 1a 60
        E 0 90 3d 60
        E 0 90 49 60
        E 0 90 55 60
        E 0 90 61 60
        E 0 90 74 60
        E 60 80 1a 00
        E 0 80 3d 00
        E 0 80 49 00
        E 0 80 55 00
        E 0 80 61 00
        E 180 90 1b 60
        E 0 90 55 60
        E 0 90 61 60
        E 60 80 1b 00
        E 0 80 55 00
        E 0 80 61 00
        E 60 90 1a 60
        E 0 90 61 60
        E 60 80 1a 00
        E 0 80 61 00
        E 60 90 1b 60
        E 0 90 49 60
        E 0 90 55 60
        E 0 90 61 60
        E 60 80 1b 00
        E 0 80 49 00
        E 0 80 55 00
        E 0 80 61 00
        E 300 90 1b 60
        E 0 90 61 60
        E 60 80 1b 00
        E 0 80 61 00
        E 0 90 1a 60
        E 0 90 61 60
        E 60 80 1a 00
        E 0 80 61 00
        E 0 90 2f 60
        E 0 90 3e 60
        E 0 90 4a 60
        E 0 90 56 60
        E 0 90 62 60
        E 0 90 6e 60
        E 60 80 2f 00
        E 0 80 3e 00
        E 0 80 4a 00
        E 0 80 56 00
        E 0 80 62 00
        E 0 80 6e 00
        E 180 90 1b 60
        E 0 90 55 60
        E 0 90 61 60
        E 60 80 1b 00
        E 0 80 55 00
        E 0 80 61 00
        E 60 90 1a 60
        E 0 90 61 60
        E 60 80 1a 00
        E 0 80 61 00
        E 60 90 1a 60
        E 0 90 31 60
        E 0 90 49 60
        E 0 90 4b 60
        E 0 90 55 60
        E 0 90 57 60
        E 0 90 61 60
        E 0 90 63 60
        E 0 90 6f 60
        E 60 80 74 00
        E 0 80 1a 00
        E 0 80 31 00
        E 0 80 49 00
        E 0 80 4b 00
        E 0 80 55 00
        E 0 80 57 00
        E 0 80 61 00
        E 0 80 63 00
        E 0 80 6f 00
        E 420 90 1a 60
        E 0 90 3d 60
        E 0 90 49 60
        E 0 90 55 60
        E 0 90 61 60
        E 60 80 1a 00
        E 0 80 3d 00
        E 0 80 49 00
        E 0 80 55 00
        E 0 80 61 00
        E 180 90 1b 60
        E 0 90 55 60
        E 0 90 61 60
        E 60 80 1b 00
        E 0 80 55 00
        E 0 80 61 00
        E 60 90 1a 60
        E 0 90 61 60
        E 60 80 1a 00
        E 0 80 61 00
        E 60 90 1b 60
        E 0 90 49 60
        E 0 90 55 60
        E 0 90 61 60
        E 60 80 1b 00
        E 0 80 49 00
        E 0 80 55 00
        E 0 80 61 00
        E 420 90 1a 60
        E 0 90 2f 60
        E 0 90 3d 60
        E 0 90 3e 60
        E 0 90 49 60
        E 0 90 4a 60
        E 0 90 55 60
        E 0 90 56 60
        E 0 90 61 60
        E 0 90 62 60
        E 0 90 6e 60
        E 60 80 1a 00
        E 0 80 2f 00
        E 0 80 3d 00
        E 0 80 3e 00
        E 0 80 49 00
        E 0 80 4a 00
        E 0 80 55 00
        E 0 80 56 00
        E 0 80 61 00
        E 0 80 62 00
        E 0 80 6e 00
        E 180 90 1a 60
        E 0 90 55 60
        E 0 90 61 60
        E 60 80 1a 00
        E 0 80 55 00
        E 0 80 61 00
        E 180 90 1a 60
        E 0 90 31 60
        E 0 90 49 60
        E 0 90 4b 60
        E 0 90 55 60
        E 0 90 57 60
        E 0 90 61 60
        E 0 90 63 60
        E 0 90 6f 60
        E 60 80 1a 00
        E 0 80 31 00
        E 0 80 49 00
        E 0 80 4b 00
        E 0 80 55 00
        E 0 80 57 00
        E 0 80 61 00
        E 0 80 63 00
        E 0 80 6f 00
        E 420 90 1a 60
        E 0 90 3d 60
        E 0 90 49 60
        E 0 90 55 60
        E 0 90 61 60
        E 0 90 78 60
        E 0 90 79 60
        E 0 90 7a 60
        E 0 90 7b 60
        E 0 90 7c 60
        E 60 80 1a 00
        E 0 80 3d 00
        E 0 80 49 00
        E 0 80 55 00
        E 0 80 61 00
        E 180 90 1b 60
        E 0 90 55 60
        E 0 90 61 60
        E 60 80 1b 00
        E 0 80 55 00
        E 0 80 61 00
        E 60 90 1a 60
        E 0 90 61 60
        E 60 80 1a 00
        E 0 80 61 00
        E 60 90 1b 60
        E 0 90 49 60
        E 0 90 55 60
        E 0 90 61 60
        E 60 80 1b 00
        E 0 80 49 00
        E 0 80 55 00
        E 0 80 61 00
        E 300 90 1b 60
        E 0 90 61 60
        E 60 80 1b 00
        E 0 80 61 00
        E 0 90 1a 60
        E 0 90 61 60
        E 60 80 1a 00
        E 0 80 61 00
        E 0 90 2f 60
        E 0 90 3e 60
        E 0 90 4a 60
        E 0 90 56 60
        E 0 90 62 60
        E 0 90 6e 60
        E 60 80 2f 00
        E 0 80 3e 00
        E 0 80 4a 00
        E 0 80 56 00
        E 0 80 62 00
        E 0 80 6e 00
        E 180 90 1b 60
        E 0 90 55 60
        E 0 90 61 60
        E 60 80 1b 00
        E 0 80 55 00
        E 0 80 61 00
        E 60 90 1a 60
        E 0 90 61 60
        E 60 80 1a 00
        E 0 80 61 00
        E 60 90 1a 60
        E 0 90 31 60
        E 0 90 49 60
        E 0 90 4b 60
        E 0 90 55 60
        E 0 90 57 60
        E 0 90 61 60
        E 0 90 63 60
        E 0 90 6f 60
        E 60 80 1a 00
        E 0 80 31 00
        E 0 80 49 00
        E 0 80 4b 00
        E 0 80 55 00
        E 0 80 57 00
        E 0 80 61 00
        E 0 80 63 00
        E 0 80 6f 00
        E 420 80 78 00
        E 0 80 79 00
        E 0 80 7a 00
        E 0 80 7b 00
        E 0 80 7c 00
        E 0 90 1a 60
        E 0 90 26 60
        E 0 90 3d 60
        E 0 90 40 60
        E 0 90 49 60
        E 0 90 4c 60
        E 0 90 55 60
        E 0 90 58 60
        E 0 90 61 60
        E 0 90 64 60
        E 60 80 1a 00
        E 0 80 26 00
        E 0 80 3d 00
        E 0 80 40 00
        E 0 80 49 00
        E 0 80 4c 00
        E 0 80 55 00
        E 0 80 58 00
        E 0 80 61 00
        E 0 80 64 00
        E 180 90 1b 60
        E 0 90 55 60
        E 0 90 61 60
        E 60 80 1b 00
        E 0 80 55 00
        E 0 80 61 00
        E 60 90 1a 60
        E 0 90 61 60
        E 60 80 1a 00
        E 0 80 61 00
        E 60 90 1b 60
        E 0 90 49 60
        E 0 90 55 60
        E 0 90 61 60
        E 60 80 1b 00
        E 0 80 49 00
        E 0 80 55 00
        E 0 80 61 00
        E 420 90 1a 60
        E 0 90 31 60
        E 0 90 3d 60
        E 0 90 3f 60
        E 0 90 49 60
        E 0 90 4b 60
        E 0 90 55 60
        E 0 90 57 60
        E 0 90 61 60
        E 0 90 63 60
        E 0 90 6f 60
        E 60 80 1a 00
        E 0 80 31 00
        E 0 80 3d 00
        E 0 80 3f 00
        E 0 80 49 00
        E 0 80 4b 00
        E 0 80 55 00
        E 0 80 57 00
        E 0 80 61 00
        E 0 80 63 00
        E 0 80 6f 00
        E 180 90 1a 60
        E 0 90 55 60
        E 0 90 61 60
        E 60 80 1a 00
        E 0 80 55 00
        E 0 80 61 00
        E 180 90 1a 60
        E 0 90 33 60
        E 0 90 49 60
        E 0 90 4c 60
        E 0 90 55 60
        E 0 90 58 60
        E 0 90 61 60
        E 0 90 64 60
        E 0 90 70 60
        E 60 80 1a 00
        E 0 80 33 00
        E 0 80 49 00
        E 0 80 4c 00
        E 0 80 55 00
        E 0 80 58 00
        E 0 80 61 00
        E 0 80 64 00
        E 0 80 70 00
        E 420 90 1a 60
        E 0 90 3d 60
        E 0 90 49 60
        E 0 90 55 60
        E 0 90 61 60
        E 60 80 1a 00
        E 0 80 3d 00
        E 0 80 49 00
        E 0 80 55 00
        E 0 80 61 00
        E 180 90 1b 60
        E 0 90 55 60
        E 0 90 61 60
        E 60 80 1b 00
        E 0 80 55 00
        E 0 80 61 00
        E 60 90 1a 60
        E 0 90 61 60
        E 60 80 1a 00
        E 0 80 61 00
        E 60 90 1b 60
        E 0 90 49 60
        E 0 90 55 60
        E 0 90 61 60
        E 60 80 1b 00
        E 0 80 49 00
        E 0 80 55 00
        E 0 80 61 00
        E 300 90 1b 60
        E 0 90 61 60
        E 60 80 1b 00
        E 0 80 61 00
        E 0 90 1a 60
        E 0 90 61 60
        E 60 80 1a 00
        E 0 80 61 00
        E 0 90 31 60
        E 0 90 3f 60
        E 0 90 4b 60
        E 0 90 57 60
        E 0 90 63 60
        E 0 90 6f 60
        E 60 80 31 00
        E 0 80 3f 00
        E 0 80 4b 00
        E 0 80 57 00
        E 0 80 63 00
        E 0 80 6f 00
        E 180 90 1b 60
        E 0 90 55 60
        E 0 90 61 60
        E 60 80 1b 00
        E 0 80 55 00
        E 0 80 61 00
        E 60 90 1a 60
        E 0 90 61 60
        E 60 80 1a 00
        E 0 80 61 00
        E 60 90 1a 60
        E 0 90 33 60
        E 0 90 49 60
        E 0 90 4c 60
        E 0 90 55 60
        E 0 90 58 60
        E 0 90 61 60
        E 0 90 64 60
        E 0 90 70 60
        E 60 80 1a 00
        E 0 80 33 00
        E 0 80 49 00
        E 0 80 4c 00
        E 0 80 55 00
        E 0 80 58 00
        E 0 80 61 00
        E 0 80 64 00
        E 0 80 70 00
        E 420 90 1a 60
        E 0 90 3d 60
        E 0 90 49 60
        E 0 90 55 60
        E 0 90 61 60
        E 60 80 1a 00
        E 0 80 3d 00
        E 0 80 49 00
        E 0 80 55 00
        E 0 80 61 00
        E 180 90 1b 60
        E 0 90 55 60
        E 0 90 61 60
        E 60 80 1b 00
        E 0 80 55 00
        E 0 80 61 00
        E 60 90 1a 60
        E 0 90 61 60
        E 60 80 1a 00
        E 0 80 61 00
        E 60 90 1b 60
        E 0 90 49 60
        E 0 90 55 60
        E 0 90 61 60
        E 60 80 1b 00
        E 0 80 49 00
        E 0 80 55 00
        E 0 80 61 00
        E 420 90 1a 60
        E 0 90 31 60
        E 0 90 3d 60
        E 0 90 3f 60
        E 0 90 49 60
        E 0 90 4b 60
        E 0 90 55 60
        E 0 90 57 60
        E 0 90 61 60
        E 0 90 63 60
        E 0 90 6f 60
        E 60 80 1a 00
        E 0 80 31 00
        E 0 80 3d 00
        E 0 80 3f 00
        E 0 80 49 00
        E 0 80 4b 00
        E 0 80 55 00
        E 0 80 57 00
        E 0 80 61 00
        E 0 80 63 00
        E 0 80 6f 00
        E 180 90 1a 60
        E 0 90 55 60
        E 0 90 61 60
        E 60 80 1a 00
        E 0 80 55 00
        E 0 80 61 00
        E 180 90 1a 60
        E 0 90 33 60
        E 0 90 49 60
        E 0 90 4c 60
        E 0 90 55 60
        E 0 90 58 60
        E 0 90 61 60
        E 0 90 64 60
        E 0 90 70 60
        E 60 80 1a 00
        E 0 80 33 00
        E 0 80 49 00
        E 0 80 4c 00
        E 0 80 55 00
        E 0 80 58 00
        E 0 80 61 00
        E 0 80 64 00
        E 0 80 70 00
        E 420 90 1a 60
        E 0 90 3d 60
        E 0 90 49 60
        E 0 90 55 60
        E 0 90 61 60
        E 0 90 78 60
        E 0 90 79 60
        E 0 90 7a 60
        E 0 90 7b 60
        E 0 90 7c 60
        E 60 80 1a 00
        E 0 80 3d 00
        E 0 80 49 00
        E 0 80 55 00
        E 0 80 61 00
        E 180 90 1b 60
        E 0 90 55 60
        E 0 90 61 60
        E 60 80 1b 00
        E 0 80 55 00
        E 0 80 61 00
        E 60 90 1a 60
        E 0 90 61 60
        E 60 80 1a 00
        E 0 80 61 00
        E 60 90 1b 60
        E 0 90 49 60
        E 0 90 55 60
        E 0 90 61 60
        E 60 80 1b 00
        E 0 80 49 00
        E 0 80 55 00
        E 0 80 61 00
        E 300 90 1b 60
        E 0 90 61 60
        E 60 80 1b 00
        E 0 80 61 00
        E 0 90 1a 60
        E 0 90 61 60
        E 60 80 1a 00
        E 0 80 61 00
        E 0 90 31 60
        E 0 90 3f 60
        E 0 90 4b 60
        E 0 90 57 60
        E 0 90 63 60
        E 0 90 6f 60
        E 60 80 31 00
        E 0 80 3f 00
        E 0 80 4b 00
        E 0 80 57 00
        E 0 80 63 00
        E 0 80 6f 00
        E 180 90 1b 60
        E 0 90 55 60
        E 0 90 61 60
        E 60 80 1b 00
        E 0 80 55 00
        E 0 80 61 00
        E 60 90 1a 60
        E 0 90 61 60
        E 60 80 1a 00
        E 0 80 61 00
        E 60 90 1a 60
        E 0 90 33 60
        E 0 90 49 60
        E 0 90 4c 60
        E 0 90 55 60
        E 0 90 58 60
        E 0 90 61 60
        E 0 90 64 60
        E 0 90 70 60
        E 60 80 1a 00
        E 0 80 33 00
        E 0 80 49 00
        E 0 80 4c 00
        E 0 80 55 00
        E 0 80 58 00
        E 0 80 61 00
        E 0 80 64 00
        E 0 80 70 00
        E 420 80 78 00
        E 0 80 79 00
        E 0 80 7a 00
        E 0 80 7b 00
        E 0 80 7c 00
        E 0 90 1a 60
        E 0 90 26 60
        E 0 90 3d 60
        E 0 90 40 60
        E 0 90 49 60
        E 0 90 4c 60
        E 0 90 55 60
        E 0 90 58 60
        E 0 90 61 60
        E 0 90 64 60
        E 60 80 1a 00
        E 0 80 26 00
        E 0 80 3d 00
        E 0 80 40 00
        E 0 80 49 00
        E 0 80 4c 00
        E 0 80 55 00
        E 0 80 58 00
        E 0 80 61 00
        E 0 80 64 00
        E 180 90 1b 60
        E 0 90 55 60
        E 0 90 61 60
        E 60 80 1b 00
        E 0 80 55 00
        E 0 80 61 00
        E 60 90 1a 60
        E 0 90 61 60
        E 60 80 1a 00
        E 0 80 61 00
        E 60 90 1b 60
        E 0 90 49 60
        E 0 90 55 60
        E 0 90 61 60
        E 60 80 1b 00
        E 0 80 49 00
        E 0 80 55 00
        E 0 80 61 00
        E 420 90 1a 60
        E 0 90 2f 60
        E 0 90 3d 60
        E 0 90 3e 60
        E 0 90 49 60
        E 0 90 4a 60
        E 0 90 55 60
        E 0 90 56 60
        E 0 90 61 60
        E 0 90 62 60
        E 0 90 6e 60
        E 60 80 1a 00
        E 0 80 2f 00
        E 0 80 3d 00
        E 0 80 3e 00
        E 0 80 49 00
        E 0 80 4a 00
        E 0 80 55 00
        E 0 80 56 00
        E 0 80 61 00
        E 0 80 62 00
        E 0 80 6e 00
        E 180 90 1a 60
        E 0 90 55 60
        E 0 90 61 60
        E 60 80 1a 00
        E 0 80 55 00
        E 0 80 61 00
        E 180 90 1a 60
        E 0 90 31 60
        E 0 90 49 60
        E 0 90 4b 60
        E 0 90 55 60
        E 0 90 57 60
        E 0 90 61 60
        E 0 90 63 60
        E 0 90 6f 60
        E 60 80 1a 00
        E 0 80 31 00
        E 0 80 49 00
        E 0 80 4b 00
        E 0 80 55 00
        E 0 80 57 00
        E 0 80 61 00
        E 0 80 63 00
        E 0 80 6f 00
        E 420 90 1a 60
        E 0 90 3d 60
        E 0 90 49 60
        E 0 90 55 60
        E 0 90 61 60
        E 60 80 1a 00
        E 0 80 3d 00
        E 0 80 49 00
        E 0 80 55 00
        E 0 80 61 00
        E 180 90 1b 60
        E 0 90 55 60
        E 0 90 61 60
        E 60 80 1b 00
        E 0 80 55 00
        E 0 80 61 00
        E 60 90 1a 60
        E 0 90 61 60
        E 60 80 1a 00
        E 0 80 61 00
        E 60 90 1b 60
        E 0 90 49 60
        E 0 90 55 60
        E 0 90 61 60
        E 60 80 1b 00
        E 0 80 49 00
        E 0 80 55 00
        E 0 80 61 00
        E 300 90 1b 60
        E 0 90 61 60
        E 60 80 1b 00
        E 0 80 61 00
        E 0 90 1a 60
        E 0 90 61 60
        E 60 80 1a 00
        E 0 80 61 00
        E 0 90 2f 60
        E 0 90 3e 60
        E 0 90 4a 60
        E 0 90 56 60
        E 0 90 62 60
        E 0 90 6e 60
        E 60 80 2f 00
        E 0 80 3e 00
        E 0 80 4a 00
        E 0 80 56 00
        E 0 80 62 00
        E 0 80 6e 00
        E 180 90 1b 60
        E 0 90 55 60
        E 0 90 61 60
        E 60 80 1b 00
        E 0 80 55 00
        E 0 80 61 00
        E 60 90 1a 60
        E 0 90 61 60
        E 60 80 1a 00
        E 0 80 61 00
        E 60 90 1a 60
        E 0 90 31 60
        E 0 90 49 60
        E 0 90 4b 60
        E 0 90 55 60
        E 0 90 57 60
        E 0 90 61 60
        E 0 90 63 60
        E 0 90 6f 60
        E 60 80 1a 00
        E 0 80 31 00
        E 0 80 49 00
        E 0 80 4b 00
        E 0 80 55 00
        E 0 80 57 00
        E 0 80 61 00
        E 0 80 63 00
        E 0 80 6f 00
        E 420 90 1a 60
        E 0 90 3d 60
        E 0 90 49 60
        E 0 90 55 60
        E 0 90 61 60
        E 60 80 1a 00
        E 0 80 3d 00
        E 0 80 49 00
        E 0 80 55 00
        E 0 80 61 00
        E 180 90 1b 60
        E 0 90 55 60
        E 0 90 61 60
        E 60 80 1b 00
        E 0 80 55 00
        E 0 80 61 00
        E 60 90 1a 60
        E 0 90 61 60
        E 60 80 1a 00
        E 0 80 61 00
        E 60 90 1b 60
        E 0 90 49 60
        E 0 90 55 60
        E 0 90 61 60
        E 60 80 1b 00
        E 0 80 49 00
        E 0 80 55 00
        E 0 80 61 00
        E 420 90 1a 60
        E 0 90 2f 60
        E 0 90 3d 60
        E 0 90 3e 60
        E 0 90 49 60
        E 0 90 4a 60
        E 0 90 55 60
        E 0 90 56 60
        E 0 90 61 60
        E 0 90 62 60
        E 0 90 6e 60
        E 60 80 1a 00
        E 0 80 2f 00
        E 0 80 3d 00
        E 0 80 3e 00
        E 0 80 49 00
        E 0 80 4a 00
        E 0 80 55 00
        E 0 80 56 00
        E 0 80 61 00
        E 0 80 62 00
        E 0 80 6e 00
        E 180 90 1a 60
        E 0 90 55 60
        E 0 90 61 60
        E 60 80 1a 00
        E 0 80 55 00
        E 0 80 61 00
        E 180 90 1a 60
        E 0 90 31 60
        E 0 90 49 60
        E 0 90 4b 60
        E 0 90 55 60
        E 0 90 57 60
        E 0 90 61 60
        E 0 90 63 60
        E 0 90 6f 60
        E 60 80 1a 00
        E 0 80 31 00
        E 0 80 49 00
        E 0 80 4b 00
        E 0 80 55 00
        E 0 80 57 00
        E 0 80 61 00
        E 0 80 63 00
        E 0 80 6f 00
        E 420 90 1a 60
        E 0 90 3d 60
        E 0 90 49 60
        E 0 90 55 60
        E 0 90 61 60
        E 60 80 1a 00
        E 0 80 3d 00
        E 0 80 49 00
        E 0 80 55 00
        E 0 80 61 00
        E 180 90 1b 60
        E 0 90 55 60
        E 0 90 61 60
        E 60 80 1b 00
        E 0 80 55 00
        E 0 80 61 00
        E 60 90 1a 60
        E 0 90 61 60
        E 60 80 1a 00
        E 0 80 61 00
        E 60 90 1b 60
        E 0 90 49 60
        E 0 90 55 60
        E 0 90 61 60
        E 60 80 1b 00
        E 0 80 49 00
        E 0 80 55 00
        E 0 80 61 00
        E 300 90 1b 60
        E 0 90 61 60
        E 60 80 1b 00
        E 0 80 61 00
        E 0 90 1a 60
        E 0 90 61 60
        E 60 80 1a 00
        E 0 80 61 00
        E 0 90 2f 60
        E 0 90 3e 60
        E 0 90 4a 60
        E 0 90 56 60
        E 0 90 62 60
        E 0 90 6e 60
        E 60 80 2f 00
        E 0 80 3e 00
        E 0 80 4a 00
        E 0 80 56 00
        E 0 80 62 00
        E 0 80 6e 00
        E 180 90 1b 60
        E 0 90 55 60
        E 0 90 61 60
        E 60 80 1b 00
        E 0 80 55 00
        E 0 80 61 00
        E 60 90 1a 60
        E 0 90 61 60
        E 60 80 1a 00
        E 0 80 61 00
        E 60 90 1a 60
        E 0 90 31 60
        E 0 90 49 60
        E 0 90 4b 60
        E 0 90 55 60
        E 0 90 57 60
        E 0 90 61 60
        E 0 90 63 60
        E 0 90 6f 60
        E 60 80 1a 00
        E 0 80 31 00
        E 0 80 49 00
        E 0 80 4b 00
        E 0 80 55 00
        E 0 80 57 00
        E 0 80 61 00
        E 0 80 63 00
        E 0 80 6f 00
        E 2340 90 78 60
        E 0 90 79 60
        E 0 90 7a 60
        E 0 90 7b 60
        E 0 90 7c 60
        E 1920 80 78 00
        E 0 80 79 00
        E 0 80 7a 00
        E 0 80 7b 00
        E 0 80 7c 00
        E 0 90 1a 60
        E 0 90 2f 60
        E 0 90 3d 60
        E 0 90 3e 60
        E 0 90 49 60
        E 0 90 4a 60
        E 0 90 55 60
        E 0 90 56 60
        E 0 90 61 60
        E 0 90 62 60
        E 0 90 6e 60
        E 0 90 74 60
        E 60 80 1a 00
        E 0 80 2f 00
        E 0 80 3d 00
        E 0 80 3e 00
        E 0 80 49 00
        E 0 80 4a 00
        E 0 80 55 00
        E 0 80 56 00
        E 0 80 61 00
        E 0 80 62 00
        E 0 80 6e 00
        E 180 90 1d 60
        E 0 90 3d 60
        E 0 90 49 60
        E 0 90 55 60
        E 0 90 61 60
        E 0 90 7e 60
        E 60 80 1d 00
        E 0 80 3d 00
        E 0 80 49 00
        E 0 80 55 00
        E 0 80 61 00
        E 0 90 1c 60
        E 0 90 61 60
        E 60 80 1c 00
        E 0 80 61 00
        E 0 90 1d 60
        E 0 90 61 60
        E 60 80 1d 00
        E 0 80 61 00
        E 0 90 1c 60
        E 0 90 61 60
        E 60 80 1c 00
        E 0 80 61 00
        E 0 90 1d 60
        E 0 90 55 60
        E 0 90 61 60
        E 60 80 1d 00
        E 0 80 55 00
        E 0 80 61 00
        E 0 90 1c 60
        E 0 90 61 60
        E 60 80 1c 00
        E 0 80 61 00
        E 0 90 1d 60
        E 0 90 61 60
        E 60 80 1d 00
        E 0 80 61 00
        E 0 90 1c 60
        E 0 90 61 60
        E 60 80 1c 00
        E 0 80 61 00
        E 0 90 1d 60
        E 0 90 49 60
        E 0 90 55 60
        E 0 90 61 60
        E 60 80 1d 00
        E 0 80 49 00
        E 0 80 55 00
        E 0 80 61 00
        E 0 90 1c 60
        E 0 90 61 60
        E 60 80 1c 00
        E 0 80 61 00
        E 0 90 1d 60
        E 0 90 61 60
        E 60 80 1d 00
        E 0 80 61 00
        E 0 90 1c 60
        E 0 90 61 60
        E 60 80 1c 00
        E 0 80 61 00
        E 0 90 1b 60
        E 0 90 55 60
        E 0 90 61 60
        E 24 80 7e 00
        E 36 80 1b 00
        E 0 80 55 00
        E 0 80 61 00
        E 180 90 1a 60
        E 0 90 31 60
        E 0 90 55 60
        E 0 90 57 60
        E 0 90 61 60
        E 0 90 63 60
        E 0 90 6f 60
        E 60 80 1a 00
        E 0 80 31 00
        E 0 80 55 00
        E 0 80 57 00
        E 0 80 61 00
        E 0 80 63 00
        E 0 80 6f 00
        E 180 90 1a 60
        E 0 90 2f 60
        E 0 90 49 60
        E 0 90 4a 60
        E 0 90 55 60
        E 0 90 56 60
        E 0 90 61 60
        E 0 90 62 60
        E 0 90 6e 60
        E 60 80 1a 00
        E 0 80 2f 00
        E 0 80 49 00
        E 0 80 4a 00
        E 0 80 55 00
        E 0 80 56 00
        E 0 80 61 00
        E 0 80 62 00
        E 0 80 6e 00
        E 420 90 1a 60
        E 0 90 3d 60
        E 0 90 49 60
        E 0 90 55 60
        E 0 90 61 60
        E 60 80 74 00
        E 0 80 1a 00
        E 0 80 3d 00
        E 0 80 49 00
        E 0 80 55 00
        E 0 80 61 00
        E 180 90 1a 60
        E 0 90 55 60
        E 0 90 61 60
        E 60 80 1a 00
        E 0 80 55 00
        E 0 80 61 00
        E 180 90 26 60
        E 0 90 4c 60
        E 0 90 58 60
        E 0 90 64 60
        E 60 80 26 00
        E 0 80 4c 00
        E 0 80 58 00
        E 0 80 64 00
        E 420 90 1a 60
        E 0 90 3d 60
        E 0 90 49 60
        E 0 90 55 60
        E 0 90 61 60
        E 60 80 1a 00
        E 0 80 3d 00
        E 0 80 49 00
        E 0 80 55 00
        E 0 80 61 00
        E 179 90 1a 60
        E 0 90 55 60
        E 0 90 61 60
        E 60 80 1a 00
        E 0 80 55 00
        E 0 80 61 00
        E 181 90 26 60
        E 0 90 4c 60
        E 0 90 58 60
        E 0 90 64 60
        E 60 80 26 00
        E 0 80 4c 00
        E 0 80 58 00
        E 0 80 64 00
        E 420 90 1a 60
        E 0 90 3d 60
        E 0 90 49 60
        E 0 90 55 60
        E 0 90 61 60
        E 0 90 78 60
        E 0 90 79 60
        E 0 90 7a 60
        E 0 90 7b 60
        E 0 90 7c 60
        E 60 80 1a 00
        E 0 80 3d 00
        E 0 80 49 00
        E 0 80 55 00
        E 0 80 61 00
        E 179 90 1a 60
        E 0 90 55 60
        E 0 90 61 60
        E 60 80 1a 00
        E 0 80 55 00
        E 0 80 61 00
        E 661 90 1a 60
        E 0 90 3d 60
        E 0 90 49 60
        E 0 90 55 60
        E 0 90 61 60
        E 60 80 1a 00
        E 0 80 3d 00
        E 0 80 49 00
        E 0 80 55 00
        E 0 80 61 00
        E 180 90 1a 60
        E 0 90 55 60
        E 0 90 61 60
        E 60 80 1a 00
        E 0 80 55 00
        E 0 80 61 00
        E 660 80 78 00
        E 0 80 79 00
        E 0 80 7a 00
        E 0 80 7b 00
        E 0 80 7c 00
        E 0 90 1a 60
        E 0 90 26 60
        E 0 90 3d 60
        E 0 90 40 60
        E 0 90 49 60
        E 0 90 4c 60
        E 0 90 55 60
        E 0 90 58 60
        E 0 90 61 60
        E 0 90 64 60
        E 60 80 1a 00
        E 0 80 26 00
        E 0 80 3d 00
        E 0 80 40 00
        E 0 80 49 00
        E 0 80 4c 00
        E 0 80 55 00
        E 0 80 58 00
        E 0 80 61 00
        E 0 80 64 00
        E 180 90 1b 60
        E 0 90 55 60
        E 0 90 61 60
        E 60 80 1b 00
        E 0 80 55 00
        E 0 80 61 00
        E 60 90 1a 60
        E 0 90 61 60
        E 60 80 1a 00
        E 0 80 61 00
        E 60 90 1b 60
        E 0 90 49 60
        E 0 90 55 60
        E 0 90 61 60
        E 60 80 1b 00
        E 0 80 49 00
        E 0 80 55 00
        E 0 80 61 00
        E 420 90 1a 60
        E 0 90 2f 60
        E 0 90 3d 60
        E 0 90 3e 60
        E 0 90 49 60
        E 0 90 4a 60
        E 0 90 55 60
        E 0 90 56 60
        E 0 90 61 60
        E 0 90 62 60
        E 0 90 6e 60
        E 60 80 1a 00
        E 0 80 2f 00
        E 0 80 3d 00
        E 0 80 3e 00
        E 0 80 49 00
        E 0 80 4a 00
        E 0 80 55 00
        E 0 80 56 00
        E 0 80 61 00
        E 0 80 62 00
        E 0 80 6e 00
        E 180 90 1a 60
        E 0 90 55 60
        E 0 90 61 60
        E 60 80 1a 00
        E 0 80 55 00
        E 0 80 61 00
        E 180 90 1a 60
        E 0 90 31 60
        E 0 90 49 60
        E 0 90 4b 60
        E 0 90 55 60
        E 0 90 57 60
        E 0 90 61 60
        E 0 90 63 60
        E 0 90 6f 60
        E 60 80 1a 00
        E 0 80 31 00
        E 0 80 49 00
        E 0 80 4b 00
        E 0 80 55 00
        E 0 80 57 00
        E 0 80 61 00
        E 0 80 63 00
        E 0 80 6f 00
        E 420 90 1a 60
        E 0 90 3d 60
        E 0 90 49 60
        E 0 90 55 60
        E 0 90 61 60
        E 60 80 1a 00
        E 0 80 3d 00
        E 0 80 49 00
        E 0 80 55 00
        E 0 80 61 00
        E 180 90 1b 60
        E 0 90 55 60
        E 0 90 61 60
        E 60 80 1b 00
        E 0 80 55 00
        E 0 80 61 00
        E 60 90 1a 60
        E 0 90 61 60
        E 60 80 1a 00
        E 0 80 61 00
        E 60 90 1b 60
        E 0 90 49 60
        E 0 90 55 60
        E 0 90 61 60
        E 60 80 1b 00
        E 0 80 49 00
        E 0 80 55 00
        E 0 80 61 00
        E 300 90 1b 60
        E 0 90 61 60
        E 60 80 1b 00
        E 0 80 61 00
        E 0 90 1a 60
        E 0 90 61 60
        E 60 80 1a 00
        E 0 80 61 00
        E 0 90 2f 60
        E 0 90 3e 60
        E 0 90 4a 60
        E 0 90 56 60
        E 0 90 62 60
        E 0 90 6e 60
        E 60 80 2f 00
        E 0 80 3e 00
        E 0 80 4a 00
        E 0 80 56 00
        E 0 80 62 00
        E 0 80 6e 00
        E 180 90 1b 60
        E 0 90 55 60
        E 0 90 61 60
        E 60 80 1b 00
        E 0 80 55 00
        E 0 80 61 00
        E 60 90 1a 60
        E 0 90 61 60
        E 60 80 1a 00
        E 0 80 61 00
        E 60 90 1a 60
        E 0 90 31 60
        E 0 90 49 60
        E 0 90 4b 60
        E 0 90 55 60
        E 0 90 57 60
        E 0 90 61 60
        E 0 90 63 60
        E 0 90 6f 60
        E 60 80 1a 00
        E 0 80 31 00
        E 0 80 49 00
        E 0 80 4b 00
        E 0 80 55 00
        E 0 80 57 00
        E 0 80 61 00
        E 0 80 63 00
        E 0 80 6f 00
        E 420 90 1a 60
        E 0 90 3d 60
        E 0 90 49 60
        E 0 90 55 60
        E 0 90 61 60
        E 60 80 1a 00
        E 0 80 3d 00
        E 0 80 49 00
        E 0 80 55 00
        E 0 80 61 00
        E 180 90 1b 60
        E 0 90 55 60
        E 0 90 61 60
        E 60 80 1b 00
        E 0 80 55 00
        E 0 80 61 00
        E 60 90 1a 60
        E 0 90 61 60
        E 60 80 1a 00
        E 0 80 61 00
        E 60 90 1b 60
        E 0 90 49 60
        E 0 90 55 60
        E 0 90 61 60
        E 60 80 1b 00
        E 0 80 49 00
        E 0 80 55 00
        E 0 80 61 00
        E 420 90 1a 60
        E 0 90 2f 60
        E 0 90 3d 60
        E 0 90 3e 60
        E 0 90 49 60
        E 0 90 4a 60
        E 0 90 55 60
        E 0 90 56 60
        E 0 90 61 60
        E 0 90 62 60
        E 0 90 6e 60
        E 60 80 1a 00
        E 0 80 2f 00
        E 0 80 3d 00
        E 0 80 3e 00
        E 0 80 49 00
        E 0 80 4a 00
        E 0 80 55 00
        E 0 80 56 00
        E 0 80 61 00
        E 0 80 62 00
        E 0 80 6e 00
        E 180 90 1a 60
        E 0 90 55 60
        E 0 90 61 60
        E 60 80 1a 00
        E 0 80 55 00
        E 0 80 61 00
        E 180 90 1a 60
        E 0 90 31 60
        E 0 90 49 60
        E 0 90 4b 60
        E 0 90 55 60
        E 0 90 57 60
        E 0 90 61 60
        E 0 90 63 60
        E 0 90 6f 60
        E 60 80 1a 00
        E 0 80 31 00
        E 0 80 49 00
        E 0 80 4b 00
        E 0 80 55 00
        E 0 80 57 00
        E 0 80 61 00
        E 0 80 63 00
        E 0 80 6f 00
        E 420 90 1a 60
        E 0 90 3d 60
        E 0 90 49 60
        E 0 90 55 60
        E 0 90 61 60
        E 60 80 1a 00
        E 0 80 3d 00
        E 0 80 49 00
        E 0 80 55 00
        E 0 80 61 00
        E 180 90 1b 60
        E 0 90 55 60
        E 0 90 61 60
        E 60 80 1b 00
        E 0 80 55 00
        E 0 80 61 00
        E 60 90 1a 60
        E 0 90 61 60
        E 60 80 1a 00
        E 0 80 61 00
        E 60 90 1b 60
        E 0 90 49 60
        E 0 90 55 60
        E 0 90 61 60
        E 60 80 1b 00
        E 0 80 49 00
        E 0 80 55 00
        E 0 80 61 00
        E 180 90 74 60
        E 120 90 1b 60
        E 0 90 61 60
        E 60 80 1b 00
        E 0 80 61 00
        E 0 90 1a 60
        E 0 90 61 60
        E 60 80 1a 00
        E 0 80 61 00
        E 0 90 2f 60
        E 0 90 3e 60
        E 0 90 4a 60
        E 0 90 56 60
        E 0 90 62 60
        E 0 90 6e 60
        E 60 80 2f 00
        E 0 80 3e 00
        E 0 80 4a 00
        E 0 80 56 00
        E 0 80 62 00
        E 0 80 6e 00
        E 180 90 1b 60
        E 0 90 55 60
        E 0 90 61 60
        E 60 80 1b 00
        E 0 80 55 00
        E 0 80 61 00
        E 60 90 1a 60
        E 0 90 61 60
        E 60 80 1a 00
        E 0 80 61 00
        E 60 90 1a 60
        E 0 90 31 60
        E 0 90 49 60
        E 0 90 4b 60
        E 0 90 55 60
        E 0 90 57 60
        E 0 90 61 60
        E 0 90 63 60
        E 0 90 6f 60
        E 60 80 1a 00
        E 0 80 31 00
        E 0 80 49 00
        E 0 80 4b 00
        E 0 80 55 00
        E 0 80 57 00
        E 0 80 61 00
        E 0 80 63 00
        E 0 80 6f 00
        E 120 80 74 00
        E 300 90 1a 60
        E 0 90 26 60
        E 0 90 3d 60
        E 0 90 40 60
        E 0 90 49 60
        E 0 90 4c 60
        E 0 90 55 60
        E 0 90 58 60
        E 0 90 61 60
        E 0 90 64 60
        E 60 80 1a 00
        E 0 80 26 00
        E 0 80 3d 00
        E 0 80 40 00
        E 0 80 49 00
        E 0 80 4c 00
        E 0 80 55 00
        E 0 80 58 00
        E 0 80 61 00
        E 0 80 64 00
        E 180 90 1b 60
        E 0 90 55 60
        E 0 90 61 60
        E 60 80 1b 00
        E 0 80 55 00
        E 0 80 61 00
        E 60 90 1a 60
        E 0 90 61 60
        E 60 80 1a 00
        E 0 80 61 00
        E 60 90 1b 60
        E 0 90 49 60
        E 0 90 55 60
        E 0 90 61 60
        E 60 80 1b 00
        E 0 80 49 00
        E 0 80 55 00
        E 0 80 61 00
        E 420 90 1a 60
        E 0 90 31 60
        E 0 90 3d 60
        E 0 90 3f 60
        E 0 90 49 60
        E 0 90 4b 60
        E 0 90 55 60
        E 0 90 57 60
        E 0 90 61 60
        E 0 90 63 60
        E 0 90 6f 60
        E 60 80 1a 00
        E 0 80 31 00
        E 0 80 3d 00
        E 0 80 3f 00
        E 0 80 49 00
        E 0 80 4b 00
        E 0 80 55 00
        E 0 80 57 00
        E 0 80 61 00
        E 0 80 63 00
        E 0 80 6f 00
        E 180 90 1a 60
        E 0 90 55 60
        E 0 90 61 60
        E 60 80 1a 00
        E 0 80 55 00
        E 0 80 61 00
        E 180 90 1a 60
        E 0 90 33 60
        E 0 90 49 60
        E 0 90 4c 60
        E 0 90 55 60
        E 0 90 58 60
        E 0 90 61 60
        E 0 90 64 60
        E 0 90 70 60
        E 60 80 1a 00
        E 0 80 33 00
        E 0 80 49 00
        E 0 80 4c 00
        E 0 80 55 00
        E 0 80 58 00
        E 0 80 61 00
        E 0 80 64 00
        E 0 80 70 00
        E 420 90 1a 60
        E 0 90 3d 60
        E 0 90 49 60
        E 0 90 55 60
        E 0 90 61 60
        E 60 80 1a 00
        E 0 80 3d 00
        E 0 80 49 00
        E 0 80 55 00
        E 0 80 61 00
        E 180 90 1b 60
        E 0 90 55 60
        E 0 90 61 60
        E 60 80 1b 00
        E 0 80 55 00
        E 0 80 61 00
        E 60 90 1a 60
        E 0 90 61 60
        E 60 80 1a 00
        E 0 80 61 00
        E 60 90 1b 60
        E 0 90 49 60
        E 0 90 55 60
        E 0 90 61 60
        E 60 80 1b 00
        E 0 80 49 00
        E 0 80 55 00
        E 0 80 61 00
        E 300 90 1b 60
        E 0 90 61 60
        E 60 80 1b 00
        E 0 80 61 00
        E 0 90 1a 60
        E 0 90 61 60
        E 60 80 1a 00
        E 0 80 61 00
        E 0 90 31 60
        E 0 90 3f 60
        E 0 90 4b 60
        E 0 90 57 60
        E 0 90 63 60
        E 0 90 6f 60
        E 60 80 31 00
        E 0 80 3f 00
        E 0 80 4b 00
        E 0 80 57 00
        E 0 80 63 00
        E 0 80 6f 00
        E 180 90 1b 60
        E 0 90 55 60
        E 0 90 61 60
        E 60 80 1b 00
        E 0 80 55 00
        E 0 80 61 00
        E 60 90 1a 60
        E 0 90 61 60
        E 60 80 1a 00
        E 0 80 61 00
        E 60 90 1a 60
        E 0 90 33 60
        E 0 90 49 60
        E 0 90 4c 60
        E 0 90 55 60
        E 0 90 58 60
        E 0 90 61 60
        E 0 90 64 60
        E 0 90 70 60
        E 60 80 1a 00
        E 0 80 33 00
        E 0 80 49 00
        E 0 80 4c 00
        E 0 80 55 00
        E 0 80 58 00
        E 0 80 61 00
        E 0 80 64 00
        E 0 80 70 00
        E 420 90 1a 60
        E 0 90 3d 60
        E 0 90 49 60
        E 0 90 55 60
        E 0 90 61 60
        E 60 80 1a 00
        E 0 80 3d 00
        E 0 80 49 00
        E 0 80 55 00
        E 0 80 61 00
        E 180 90 1b 60
        E 0 90 55 60
        E 0 90 61 60
        E 60 80 1b 00
        E 0 80 55 00
        E 0 80 61 00
        E 60 90 1a 60
        E 0 90 61 60
        E 60 80 1a 00
        E 0 80 61 00
        E 60 90 1b 60
        E 0 90 49 60
        E 0 90 55 60
        E 0 90 61 60
        E 60 80 1b 00
        E 0 80 49 00
        E 0 80 55 00
        E 0 80 61 00
        E 420 90 1a 60
        E 0 90 31 60
        E 0 90 3d 60
        E 0 90 3f 60
        E 0 90 49 60
        E 0 90 4b 60
        E 0 90 55 60
        E 0 90 57 60
        E 0 90 61 60
        E 0 90 63 60
        E 0 90 6f 60
        E 60 80 1a 00
        E 0 80 31 00
        E 0 80 3d 00
        E 0 80 3f 00
        E 0 80 49 00
        E 0 80 4b 00
        E 0 80 55 00
        E 0 80 57 00
        E 0 80 61 00
        E 0 80 63 00
        E 0 80 6f 00
        E 180 90 1a 60
        E 0 90 55 60
        E 0 90 61 60
        E 60 80 1a 00
        E 0 80 55 00
        E 0 80 61 00
        E 180 90 1a 60
        E 0 90 33 60
        E 0 90 49 60
        E 0 90 4c 60
        E 0 90 55 60
        E 0 90 58 60
        E 0 90 61 60
        E 0 90 64 60
        E 0 90 70 60
        E 60 80 1a 00
        E 0 80 33 00
        E 0 80 49 00
        E 0 80 4c 00
        E 0 80 55 00
        E 0 80 58 00
        E 0 80 61 00
        E 0 80 64 00
        E 0 80 70 00
        E 420 90 1a 60
        E 0 90 3d 60
        E 0 90 49 60
        E 0 90 55 60
        E 0 90 61 60
        E 0 90 78 60
        E 0 90 79 60
        E 0 90 7a 60
        E 0 90 7b 60
        E 0 90 7c 60
        E 60 80 1a 00
        E 0 80 3d 00
        E 0 80 49 00
        E 0 80 55 00
        E 0 80 61 00
        E 180 90 1b 60
        E 0 90 55 60
        E 0 90 61 60
        E 60 80 1b 00
        E 0 80 55 00
        E 0 80 61 00
        E 60 90 1a 60
        E 0 90 61 60
        E 60 80 1a 00
        E 0 80 61 00
        E 60 90 1b 60
        E 0 90 49 60
        E 0 90 55 60
        E 0 90 61 60
        E 60 80 1b 00
        E 0 80 49 00
        E 0 80 55 00
        E 0 80 61 00
        E 300 90 1b 60
        E 0 90 61 60
        E 60 80 1b 00
        E 0 80 61 00
        E 0 90 1a 60
        E 0 90 61 60
        E 60 80 1a 00
        E 0 80 61 00
        E 0 90 31 60
        E 0 90 3f 60
        E 0 90 4b 60
        E 0 90 57 60
        E 0 90 63 60
        E 0 90 6f 60
        E 60 80 31 00
        E 0 80 3f 00
        E 0 80 4b 00
        E 0 80 57 00
        E 0 80 63 00
        E 0 80 6f 00
        E 180 90 1b 60
        E 0 90 55 60
        E 0 90 61 60
        E 60 80 1b 00
        E 0 80 55 00
        E 0 80 61 00
        E 60 90 1a 60
        E 0 90 61 60
        E 60 80 1a 00
        E 0 80 61 00
        E 60 90 1a 60
        E 0 90 33 60
        E 0 90 49 60
        E 0 90 4c 60
        E 0 90 55 60
        E 0 90 58 60
        E 0 90 61 60
        E 0 90 64 60
        E 0 90 70 60
        E 60 80 1a 00
        E 0 80 33 00
        E 0 80 49 00
        E 0 80 4c 00
        E 0 80 55 00
        E 0 80 58 00
        E 0 80 61 00
        E 0 80 64 00
        E 0 80 70 00
        E 420 80 78 00
        E 0 80 79 00
        E 0 80 7a 00
        E 0 80 7b 00
        E 0 80 7c 00
        E 0 90 1a 60
        E 0 90 26 60
        E 0 90 3d 60
        E 0 90 40 60
        E 0 90 49 60
        E 0 90 4c 60
        E 0 90 55 60
        E 0 90 58 60
        E 0 90 61 60
        E 0 90 64 60
        E 0 90 74 60
        E 60 80 1a 00
        E 0 80 26 00
        E 0 80 3d 00
        E 0 80 40 00
        E 0 80 49 00
        E 0 80 4c 00
        E 0 80 55 00
        E 0 80 58 00
        E 0 80 61 00
        E 0 80 64 00
        E 180 90 1b 60
        E 0 90 55 60
        E 0 90 61 60
        E 60 80 1b 00
        E 0 80 55 00
        E 0 80 61 00
        E 60 90 1a 60
        E 0 90 61 60
        E 60 80 1a 00
        E 0 80 61 00
        E 60 90 1b 60
        E 0 90 49 60
        E 0 90 55 60
        E 0 90 61 60
        E 60 80 1b 00
        E 0 80 49 00
        E 0 80 55 00
        E 0 80 61 00
        E 420 90 1a 60
        E 0 90 2f 60
        E 0 90 3d 60
        E 0 90 3e 60
        E 0 90 49 60
        E 0 90 4a 60
        E 0 90 55 60
        E 0 90 56 60
        E 0 90 61 60
        E 0 90 62 60
        E 0 90 6e 60
        E 60 80 1a 00
        E 0 80 2f 00
        E 0 80 3d 00
        E 0 80 3e 00
        E 0 80 49 00
        E 0 80 4a 00
        E 0 80 55 00
        E 0 80 56 00
        E 0 80 61 00
        E 0 80 62 00
        E 0 80 6e 00
        E 180 90 1a 60
        E 0 90 55 60
        E 0 90 61 60
        E 60 80 1a 00
        E 0 80 55 00
        E 0 80 61 00
        E 180 90 1a 60
        E 0 90 31 60
        E 0 90 49 60
        E 0 90 4b 60
        E 0 90 55 60
        E 0 90 57 60
        E 0 90 61 60
        E 0 90 63 60
        E 0 90 6f 60
        E 60 80 1a 00
        E 0 80 31 00
        E 0 80 49 00
        E 0 80 4b 00
        E 0 80 55 00
        E 0 80 57 00
        E 0 80 61 00
        E 0 80 63 00
        E 0 80 6f 00
        E 420 90 1a 60
        E 0 90 3d 60
        E 0 90 49 60
        E 0 90 55 60
        E 0 90 61 60
        E 60 80 1a 00
        E 0 80 3d 00
        E 0 80 49 00
        E 0 80 55 00
        E 0 80 61 00
        E 180 90 1b 60
        E 0 90 55 60
        E 0 90 61 60
        E 60 80 1b 00
        E 0 80 55 00
        E 0 80 61 00
        E 60 90 1a 60
        E 0 90 61 60
        E 60 80 1a 00
        E 0 80 61 00
        E 60 90 1b 60
        E 0 90 49 60
        E 0 90 55 60
        E 0 90 61 60
        E 60 80 1b 00
        E 0 80 49 00
        E 0 80 55 00
        E 0 80 61 00
        E 300 90 1b 60
        E 0 90 61 60
        E 60 80 1b 00
        E 0 80 61 00
        E 0 90 1a 60
        E 0 90 61 60
        E 60 80 1a 00
        E 0 80 61 00
        E 0 90 2f 60
        E 0 90 3e 60
        E 0 90 4a 60
        E 0 90 56 60
        E 0 90 62 60
        E 0 90 6e 60
        E 60 80 2f 00
        E 0 80 3e 00
        E 0 80 4a 00
        E 0 80 56 00
        E 0 80 62 00
        E 0 80 6e 00
        E 180 90 1b 60
        E 0 90 55 60
        E 0 90 61 60
        E 60 80 1b 00
        E 0 80 55 00
        E 0 80 61 00
        E 60 90 1a 60
        E 0 90 61 60
        E 60 80 1a 00
        E 0 80 61 00
        E 60 90 1a 60
        E 0 90 31 60
        E 0 90 49 60
        E 0 90 4b 60
        E 0 90 55 60
        E 0 90 57 60
        E 0 90 61 60
        E 0 90 63 60
        E 0 90 6f 60
        E 60 80 1a 00
        E 0 80 31 00
        E 0 80 49 00
        E 0 80 4b 00
        E 0 80 55 00
        E 0 80 57 00
        E 0 80 61 00
        E 0 80 63 00
        E 0 80 6f 00
        E 420 80 74 00
        E 0 90 1a 60
        E 0 90 3d 60
        E 0 90 49 60
        E 0 90 55 60
        E 0 90 61 60
        E 60 80 1a 00
        E 0 80 3d 00
        E 0 80 49 00
        E 0 80 55 00
        E 0 80 61 00
        E 180 90 1b 60
        E 0 90 55 60
        E 0 90 61 60
        E 60 80 1b 00
        E 0 80 55 00
        E 0 80 61 00
        E 60 90 1a 60
        E 0 90 61 60
        E 60 80 1a 00
        E 0 80 61 00
        E 60 90 1b 60
        E 0 90 49 60
        E 0 90 55 60
        E 0 90 61 60
        E 60 80 1b 00
        E 0 80 49 00
        E 0 80 55 00
        E 0 80 61 00
        E 420 90 1a 60
        E 0 90 2f 60
        E 0 90 3d 60
        E 0 90 3e 60
        E 0 90 49 60
        E 0 90 4a 60
        E 0 90 55 60
        E 0 90 56 60
        E 0 90 61 60
        E 0 90 62 60
        E 0 90 6e 60
        E 60 80 1a 00
        E 0 80 2f 00
        E 0 80 3d 00
        E 0 80 3e 00
        E 0 80 49 00
        E 0 80 4a 00
        E 0 80 55 00
        E 0 80 56 00
        E 0 80 61 00
        E 0 80 62 00
        E 0 80 6e 00
        E 180 90 1a 60
        E 0 90 55 60
        E 0 90 61 60
        E 60 80 1a 00
        E 0 80 55 00
        E 0 80 61 00
        E 180 90 1a 60
        E 0 90 31 60
        E 0 90 49 60
        E 0 90 4b 60
        E 0 90 55 60
        E 0 90 57 60
        E 0 90 61 60
        E 0 90 63 60
        E 0 90 6f 60
        E 60 80 1a 00
        E 0 80 31 00
        E 0 80 49 00
        E 0 80 4b 00
        E 0 80 55 00
        E 0 80 57 00
        E 0 80 61 00
        E 0 80 63 00
        E 0 80 6f 00
        E 420 90 1a 60
        E 0 90 3d 60
        E 0 90 49 60
        E 0 90 55 60
        E 0 90 61 60
        E 60 80 1a 00
        E 0 80 3d 00
        E 0 80 49 00
        E 0 80 55 00
        E 0 80 61 00
        E 180 90 1b 60
        E 0 90 55 60
        E 0 90 61 60
        E 60 80 1b 00
        E 0 80 55 00
        E 0 80 61 00
        E 60 90 1a 60
        E 0 90 61 60
        E 60 80 1a 00
        E 0 80 61 00
        E 60 90 1b 60
        E 0 90 49 60
        E 0 90 55 60
        E 0 90 61 60
        E 60 80 1b 00
        E 0 80 49 00
        E 0 80 55 00
        E 0 80 61 00
        E 300 90 1b 60
        E 0 90 61 60
        E 60 80 1b 00
        E 0 80 61 00
        E 0 90 1a 60
        E 0 90 61 60
        E 60 80 1a 00
        E 0 80 61 00
        E 0 90 2f 60
        E 0 90 3e 60
        E 0 90 4a 60
        E 0 90 56 60
        E 0 90 62 60
        E 0 90 6e 60
        E 60 80 2f 00
        E 0 80 3e 00
        E 0 80 4a 00
        E 0 80 56 00
        E 0 80 62 00
        E 0 80 6e 00
        E 180 90 1b 60
        E 0 90 55 60
        E 0 90 61 60
        E 60 80 1b 00
        E 0 80 55 00
        E 0 80 61 00
        E 60 90 1a 60
        E 0 90 61 60
        E 60 80 1a 00
        E 0 80 61 00
        E 60 90 1a 60
        E 0 90 31 60
        E 0 90 49 60
        E 0 90 4b 60
        E 0 90 55 60
        E 0 90 57 60
        E 0 90 61 60
        E 0 90 63 60
        E 0 90 6f 60
        E 60 80 1a 00
        E 0 80 31 00
        E 0 80 49 00
        E 0 80 4b 00
        E 0 80 55 00
        E 0 80 57 00
        E 0 80 61 00
        E 0 80 63 00
        E 0 80 6f 00
        E 2340 90 78 60
        E 0 90 79 60
        E 0 90 7a 60
        E 0 90 7b 60
        E 0 90 7c 60
        E 1920 80 78 00
        E 0 80 79 00
        E 0 80 7a 00
        E 0 80 7b 00
        E 0 80 7c 00
        E 0 90 1a 60
        E 0 90 2f 60
        E 0 90 3d 60
        E 0 90 3e 60
        E 0 90 49 60
        E 0 90 4a 60
        E 0 90 55 60
        E 0 90 56 60
        E 0 90 61 60
        E 0 90 62 60
        E 0 90 6e 60
        E 60 80 1a 00
        E 0 80 2f 00
        E 0 80 3d 00
        E 0 80 3e 00
        E 0 80 49 00
        E 0 80 4a 00
        E 0 80 55 00
        E 0 80 56 00
        E 0 80 61 00
        E 0 80 62 00
        E 0 80 6e 00
        E 180 90 1d 60
        E 0 90 3d 60
        E 0 90 49 60
        E 0 90 55 60
        E 0 90 61 60
        E 0 90 7e 60
        E 60 80 1d 00
        E 0 80 3d 00
        E 0 80 49 00
        E 0 80 55 00
        E 0 80 61 00
        E 0 90 1c 60
        E 0 90 61 60
        E 60 80 1c 00
        E 0 80 61 00
        E 0 90 1d 60
        E 0 90 61 60
        E 60 80 1d 00
        E 0 80 61 00
        E 0 90 1c 60
        E 0 90 61 60
        E 60 80 1c 00
        E 0 80 61 00
        E 0 90 1d 60
        E 0 90 55 60
        E 0 90 61 60
        E 60 80 1d 00
        E 0 80 55 00
        E 0 80 61 00
        E 0 90 1c 60
        E 0 90 61 60
        E 60 80 1c 00
        E 0 80 61 00
        E 0 90 1d 60
        E 0 90 61 60
        E 60 80 1d 00
        E 0 80 61 00
        E 0 90 1c 60
        E 0 90 61 60
        E 60 80 1c 00
        E 0 80 61 00
        E 0 90 1d 60
        E 0 90 49 60
        E 0 90 55 60
        E 0 90 61 60
        E 60 80 1d 00
        E 0 80 49 00
        E 0 80 55 00
        E 0 80 61 00
        E 0 90 1c 60
        E 0 90 61 60
        E 60 80 1c 00
        E 0 80 61 00
        E 0 90 1d 60
        E 0 90 61 60
        E 60 80 1d 00
        E 0 80 61 00
        E 0 90 1c 60
        E 0 90 61 60
        E 60 80 1c 00
        E 0 80 61 00
        E 0 90 1b 60
        E 0 90 55 60
        E 0 90 61 60
        E 24 80 7e 00
        E 36 80 1b 00
        E 0 80 55 00
        E 0 80 61 00
        E 180 90 1a 60
        E 0 90 31 60
        E 0 90 55 60
        E 0 90 57 60
        E 0 90 61 60
        E 0 90 63 60
        E 0 90 6f 60
        E 60 80 1a 00
        E 0 80 31 00
        E 0 80 55 00
        E 0 80 57 00
        E 0 80 61 00
        E 0 80 63 00
        E 0 80 6f 00
        E 180 90 1a 60
        E 0 90 2f 60
        E 0 90 49 60
        E 0 90 4a 60
        E 0 90 55 60
        E 0 90 56 60
        E 0 90 61 60
        E 0 90 62 60
        E 0 90 6e 60
        E 60 80 1a 00
        E 0 80 2f 00
        E 0 80 49 00
        E 0 80 4a 00
        E 0 80 55 00
        E 0 80 56 00
        E 0 80 61 00
        E 0 80 62 00
        E 0 80 6e 00
        E 420 90 1a 60
        E 0 90 3d 60
        E 0 90 49 60
        E 0 90 55 60
        E 0 90 61 60
        E 60 80 1a 00
        E 0 80 3d 00
        E 0 80 49 00
        E 0 80 55 00
        E 0 80 61 00
        E 180 90 1a 60
        E 0 90 55 60
        E 0 90 61 60
        E 60 80 1a 00
        E 0 80 55 00
        E 0 80 61 00
        E 180 90 26 60
        E 0 90 4c 60
        E 0 90 58 60
        E 0 90 64 60
        E 60 80 26 00
        E 0 80 4c 00
        E 0 80 58 00
        E 0 80 64 00
        E 420 90 1a 60
        E 0 90 3d 60
        E 0 90 49 60
        E 0 90 55 60
        E 0 90 61 60
        E 60 80 1a 00
        E 0 80 3d 00
        E 0 80 49 00
        E 0 80 55 00
        E 0 80 61 00
        E 179 90 55 60
        E 0 90 61 60
        E 1 90 1a 60
        E 59 80 55 00
        E 0 80 61 00
        E 1 80 1a 00
        E 180 90 26 60
        E 0 90 4c 60
        E 0 90 58 60
        E 0 90 64 60
        E 60 80 26 00
        E 0 80 4c 00
        E 0 80 58 00
        E 0 80 64 00
        E 420 90 1a 60
        E 0 90 3d 60
        E 0 90 49 60
        E 0 90 55 60
        E 0 90 61 60
        E 60 80 1a 00
        E 0 80 3d 00
        E 0 80 49 00
        E 0 80 55 00
        E 0 80 61 00
        E 179 90 55 60
        E 0 90 61 60
        E 1 90 1a 60
        E 59 80 55 00
        E 0 80 61 00
        E 1 80 1a 00
        E 660 90 1a 60
        E 0 90 3d 60
        E 0 90 49 60
        E 0 90 55 60
        E 0 90 61 60
        E 60 80 1a 00
        E 0 80 3d 00
        E 0 80 49 00
        E 0 80 55 00
        E 0 80 61 00
        E 180 90 1a 60
        E 0 90 55 60
        E 0 90 61 60
        E 60 80 1a 00
        E 0 80 55 00
        E 0 80 61 00
        <X 480 0
          /wFbaWRsZV9yZWFsdGltZV0=
        >
        E 4019 b0 7b 00
        GUID {1AB270CA-D732-4F58-8887-503F4D720B73}
        IGNTEMPO 0 120.00000000 4 4
        SRCCOLOR 1
        VELLANE 132 128 60
        COLORMAP "C:\Program Files\REAPER (x64)\Data\color_maps\rockband_guitarbass.png"
        CFGEDITVIEW -5040.838897 11.817087 0 12 0 0 0
        CFGEDIT 1 1 0 1 1 0 1 1 1 1 1 0.25000000 -8 -8 1544 872 0 2 1 1 0.00000000 0 1 0 0 0.500000 0 0 1.000000 64
        KEYSNAP 0 6 "102030050700" 0 "Pentatonic"
        EVTFILTER 0 -1 -1 -1 -1 0 1 0 0 -1.00000000 -1.00000000
      >
    >
  >
  <TRACK '{ABE428B5-7B7C-48F3-AA7F-4F028EB165A1}'
    NAME "kick"
    PEAKCOL 16576
    BEAT -1
    AUTOMODE 0
    VOLPAN 1.00000000000000 0.00000000000000 -1.00000000000000 -1.00000000000000 1.00000000000000
    MUTESOLO 0 0 0
    IPHASE 0
    ISBUS 0 0
    BUSCOMP 0 0
    SHOWINMIX 1 0.666700 0.500000 1 0.500000 -1 -1 -1
    FREEMODE 0
    SEL 0
    REC 0 0 0 0 0 0 0
    VU 2
    TRACKHEIGHT 0 0
    INQ 0 0 0 0.5000000000 100 0 0 100
    NCHAN 2
    FX 1
    TRACKID {ABE428B5-7B7C-48F3-AA7F-4F028EB165A1}
    PERF 0
    MIDIOUT -1
    MAINSEND 1 0
    <ITEM
      POSITION 0.00000000000000
      SNAPOFFS 0.00000000000000
      LENGTH 95.03100000000001
      LOOP 0
      ALLTAKES 0
      SEL 0
      FADEIN 1 0.000000 0.000000 1 0
      FADEOUT 1 0.000000 0.000000 1 0
      MUTE 0
      IGUID {F1B0E0BA-7D5F-4C0C-93D6-F5690B896844}
      IID 15
      NAME "kick.wav"
      VOLPAN 1.000000 0.000000 1.000000 -1.000000
      SOFFS 0.00000000000000
      PLAYRATE 1.00000000000000 1 0.00000000000000 -1
      CHANMODE 0
      GUID {AC98085F-82B6-4C95-87F4-D845EB221431}
      <SOURCE WAVE
        FILE "C:\Users\Ruggery\Documents\Visual Studio Code\Projects\ruggy-customs-projects\songs\royalpalace\wav\kick.wav"
      >
    >
  >
  <TRACK '{1AC4CF9C-3E16-4C0C-A4F2-778C174A3251}'
    NAME "snare"
    PEAKCOL 16576
    BEAT -1
    AUTOMODE 0
    VOLPAN 1.00000000000000 0.00000000000000 -1.00000000000000 -1.00000000000000 1.00000000000000
    MUTESOLO 0 0 0
    IPHASE 0
    ISBUS 0 0
    BUSCOMP 0 0
    SHOWINMIX 1 0.666700 0.500000 1 0.500000 -1 -1 -1
    FREEMODE 0
    SEL 0
    REC 0 0 0 0 0 0 0
    VU 2
    TRACKHEIGHT 0 0
    INQ 0 0 0 0.5000000000 100 0 0 100
    NCHAN 2
    FX 1
    TRACKID {1AC4CF9C-3E16-4C0C-A4F2-778C174A3251}
    PERF 0
    MIDIOUT -1
    MAINSEND 1 0
    <ITEM
      POSITION 0.00000000000000
      SNAPOFFS 0.00000000000000
      LENGTH 95.03100000000001
      LOOP 0
      ALLTAKES 0
      SEL 0
      FADEIN 1 0.000000 0.000000 1 0
      FADEOUT 1 0.000000 0.000000 1 0
      MUTE 0
      IGUID {724E33CC-DF1C-47D6-971B-50FF8AC55686}
      IID 17
      NAME "snare.wav"
      VOLPAN 1.000000 0.000000 1.000000 -1.000000
      SOFFS 0.00000000000000
      PLAYRATE 1.00000000000000 1 0.00000000000000 -1
      CHANMODE 0
      GUID {DEF3AE56-D9E3-4BFF-9148-8E5D177C1422}
      <SOURCE WAVE
        FILE "C:\Users\Ruggery\Documents\Visual Studio Code\Projects\ruggy-customs-projects\songs\royalpalace\wav\snare.wav"
      >
    >
  >
  <TRACK '{0E599B69-814E-4385-A258-239A2FDEF67A}'
    NAME "kit"
    PEAKCOL 16576
    BEAT -1
    AUTOMODE 0
    VOLPAN 1.00000000000000 0.00000000000000 -1.00000000000000 -1.00000000000000 1.00000000000000
    MUTESOLO 0 0 0
    IPHASE 0
    ISBUS 2 -1
    BUSCOMP 0 0
    SHOWINMIX 1 0.666700 0.500000 1 0.500000 -1 -1 -1
    FREEMODE 0
    SEL 0
    REC 0 0 0 0 0 0 0
    VU 2
    TRACKHEIGHT 0 0
    INQ 0 0 0 0.5000000000 100 0 0 100
    NCHAN 2
    FX 1
    TRACKID {0E599B69-814E-4385-A258-239A2FDEF67A}
    PERF 0
    MIDIOUT -1
    MAINSEND 1 0
    <ITEM
      POSITION 0.00000000000000
      SNAPOFFS 0.00000000000000
      LENGTH 95.03100000000001
      LOOP 0
      ALLTAKES 0
      SEL 0
      FADEIN 1 0.000000 0.000000 1 0
      FADEOUT 1 0.000000 0.000000 1 0
      MUTE 0
      IGUID {20E6BFD7-54F8-452D-B058-700A1964C383}
      IID 16
      NAME "kit.wav"
      VOLPAN 1.000000 0.000000 1.000000 -1.000000
      SOFFS 0.00000000000000
      PLAYRATE 1.00000000000000 1 0.00000000000000 -1
      CHANMODE 0
      GUID {D2F3A717-2C57-453F-AAA6-42D2257FD9C1}
      <SOURCE WAVE
        FILE "C:\Users\Ruggery\Documents\Visual Studio Code\Projects\ruggy-customs-projects\songs\royalpalace\wav\kit.wav"
      >
    >
  >
  <TRACK '{7BF81CA4-3AD4-4D66-91EC-299AD40BCC63}'
    NAME "PART BASS"
    PEAKCOL 16576
    BEAT -1
    AUTOMODE 0
    VOLPAN 1.00000000000000 0.00000000000000 -1.00000000000000 -1.00000000000000 1.00000000000000
    MUTESOLO 0 0 0
    IPHASE 0
    ISBUS 1 1
    BUSCOMP 0 0
    SHOWINMIX 1 0.666700 0.500000 1 0.500000 -1 -1 -1
    FREEMODE 0
    SEL 0
    REC 0 0 0 0 0 0 0
    VU 2
    TRACKHEIGHT 0 0
    INQ 0 0 0 0.5000000000 100 0 0 100
    NCHAN 2
    FX 1
    TRACKID {7BF81CA4-3AD4-4D66-91EC-299AD40BCC63}
    PERF 0
    MIDIOUT -1
    <MIDINOTENAMES
      0 127 "TRILL MARKER"
      0 126 "TREMOLO MARKER"
      0 125 "---"
      0 124 "BRE"
      0 123 "BRE"
      0 122 "BRE"
      0 121 "BRE"
      0 120 "BRE (use all 5)"
      0 119 "----"
      0 116 "OVERDRIVE"
      0 115 "----"
      0 103 "Solo Marker"
      0 102 "Force HOPO Off"
      0 101 "Force HOPO On"
      0 100 "EXPERT Orange"
      0 99 "EXPERT Blue"
      0 98 "EXPERT Yellow"
      0 97 "EXPERT Red"
      0 96 "EXPERT Green"
      0 95 "----"
      0 90 "Force HOPO Off"
      0 89 "Force HOPO On"
      0 88 "HARD Orange"
      0 87 "HARD Blue"
      0 86 "HARD Yellow"
      0 85 "HARD Red"
      0 84 "HARD Green"
      0 77 "----"
      0 76 "MEDIUM Orange"
      0 75 "MEDIUM Blue"
      0 74 "MEDIUM Yellow"
      0 73 "MEDIUM Red"
      0 72 "MEDIUM Green"
      0 65 "----"
      0 64 "EASY Orange"
      0 63 "EASY Blue"
      0 62 "EASY Yellow"
      0 61 "EASY Red"
      0 60 "EASY Green"
      0 59 "Fret 12"
      0 57 "Fret 11"
      0 56 "Fret 10"
      0 55 "Fret 9"
      0 53 "Fret 8"
      0 52 "Fret 7"
      0 50 "Fret 6"
      0 49 "Fret 5"
      0 47 "Fret 4"
      0 45 "Fret 3"
      0 43 "Fret 2"
      0 40 "Fret 1"
    >
    MAINSEND 1 0
    <FXCHAIN
      WNDRECT 0 43 891 559
      SHOW 0
      LASTSEL 0
      DOCKED 0
      BYPASS 0 0
      <VST "VSTi: RBN Preview (RBN)" "rbprev_vst64.dll" 0 ""
        dnBicu5e7f4AAAAAAgAAAAEAAAAAAAAAAgAAAAAAAAAEAAAAAQAAAA==
        AAAQAAMAqgAAABAAAAA=
      >
      FLOATPOS 0 0 0 0
      FXID {F32A0B83-C199-4CB8-856D-931125678F33}
      WAK 0
    >
    <ITEM
      POSITION 0.00000000000000
      SNAPOFFS 0.00000000000000
      LENGTH 95.03100000000001
      LOOP 0
      ALLTAKES 0
      SEL 0
      FADEIN 1 0.000000 0.000000 1 0
      FADEOUT 1 0.000000 0.000000 1 0
      MUTE 0
      IGUID {7A1BF1B6-0A06-4DBE-9AC2-ED1A065B6B5E}
      IID 2
      NAME "PART BASS"
      VOLPAN 1.000000 0.000000 1.000000 -1.000000
      SOFFS 0.00000000000000 0.00000000000000
      PLAYRATE 1.00000000000000 1 0.00000000000000 -1
      CHANMODE 0
      GUID {716F87A0-C4C4-405B-BAA7-3D646E1B5B14}
      <SOURCE MIDI
        HASDATA 1 480 QN
        POOLEDEVTS {67C3A965-7932-44E3-80EC-3AD2D450F2E6}
        <X 0 0
          /wNQQVJUIEJBU1M=
        >
        <X 3840 0
          /wFbaWRsZV0=
        >
        <X 4800 0
          /wFbbWVsbG93XQ==
        >
        E 0 90 3d 60
        E 0 90 49 60
        E 0 90 55 60
        E 0 90 61 60
        E 480 80 3d 00
        E 0 80 49 00
        E 0 80 55 00
        E 0 80 61 00
        E 1440 90 3d 60
        E 0 90 49 60
        E 0 90 55 60
        E 0 90 61 60
        E 480 80 3d 00
        E 0 80 49 00
        E 0 80 55 00
        E 0 80 61 00
        E 1440 90 3d 60
        E 0 90 49 60
        E 0 90 55 60
        E 0 90 61 60
        E 480 80 3d 00
        E 0 80 49 00
        E 0 80 55 00
        E 0 80 61 00
        E 1440 90 3d 60
        E 0 90 49 60
        E 0 90 55 60
        E 0 90 61 60
        E 0 90 74 60
        E 480 80 3d 00
        E 0 80 49 00
        E 0 80 55 00
        E 0 80 61 00
        E 1440 90 3e 60
        E 0 90 4b 60
        E 0 90 57 60
        E 0 90 63 60
        E 480 80 74 00
        E 0 80 3e 00
        E 0 80 4b 00
        E 0 80 57 00
        E 0 80 63 00
        E 1440 90 3e 60
        E 0 90 4b 60
        E 0 90 57 60
        E 0 90 63 60
        E 480 80 3e 00
        E 0 80 4b 00
        E 0 80 57 00
        E 0 80 63 00
        E 1440 90 3e 60
        E 0 90 4b 60
        E 0 90 57 60
        E 0 90 63 60
        E 480 80 3e 00
        E 0 80 4b 00
        E 0 80 57 00
        E 0 80 63 00
        E 1440 90 3e 60
        E 0 90 4b 60
        E 0 90 57 60
        E 0 90 63 60
        E 480 80 3e 00
        E 0 80 4b 00
        E 0 80 57 00
        E 0 80 63 00
        E 1440 90 3d 60
        E 0 90 49 60
        E 0 90 55 60
        E 0 90 61 60
        E 480 80 3d 00
        E 0 80 49 00
        E 0 80 55 00
        E 0 80 61 00
        E 1440 90 3d 60
        E 0 90 49 60
        E 0 90 55 60
        E 0 90 61 60
        E 480 80 3d 00
        E 0 80 49 00
        E 0 80 55 00
        E 0 80 61 00
        E 1440 90 3d 60
        E 0 90 49 60
        E 0 90 55 60
        E 0 90 61 60
        E 480 80 3d 00
        E 0 80 49 00
        E 0 80 55 00
        E 0 80 61 00
        E 1440 90 3d 60
        E 0 90 49 60
        E 0 90 55 60
        E 0 90 61 60
        E 480 80 3d 00
        E 0 80 49 00
        E 0 80 55 00
        E 0 80 61 00
        E 1440 90 3e 60
        E 0 90 4b 60
        E 0 90 57 60
        E 0 90 63 60
        E 120 80 3e 00
        E 0 80 4b 00
        E 240 80 57 00
        E 0 80 63 00
        E 120 90 4a 60
        E 0 90 56 60
        E 0 90 62 60
        E 120 80 4a 00
        E 240 80 56 00
        E 0 80 62 00
        E 120 90 3d 60
        E 0 90 49 60
        E 0 90 55 60
        E 0 90 61 60
        E 120 80 3d 00
        E 0 80 49 00
        E 240 80 55 00
        E 0 80 61 00
        E 120 90 48 60
        E 0 90 54 60
        E 0 90 60 60
        E 120 80 48 00
        E 240 80 54 00
        E 0 80 60 00
        E 120 90 3e 60
        E 0 90 4b 60
        E 0 90 57 60
        E 0 90 63 60
        E 120 80 3e 00
        E 0 80 4b 00
        E 240 80 57 00
        E 0 80 63 00
        E 120 90 4a 60
        E 0 90 56 60
        E 0 90 62 60
        E 120 80 4a 00
        E 240 80 56 00
        E 0 80 62 00
        E 120 90 3d 60
        E 0 90 49 60
        E 0 90 55 60
        E 0 90 61 60
        E 120 80 3d 00
        E 0 80 49 00
        E 240 80 55 00
        E 0 80 61 00
        E 120 90 48 60
        E 0 90 54 60
        E 0 90 60 60
        E 120 80 48 00
        E 240 80 54 00
        E 0 80 60 00
        E 120 90 40 60
        E 0 90 4c 60
        E 0 90 58 60
        E 0 90 64 60
        E 0 90 74 60
        E 60 80 40 00
        E 0 80 4c 00
        E 0 80 58 00
        E 0 80 64 00
        E 180 90 4c 60
        E 0 90 58 60
        E 0 90 64 60
        E 120 80 4c 00
        E 240 80 58 00
        E 0 80 64 00
        E 120 90 57 60
        E 0 90 63 60
        E 60 80 57 00
        E 0 80 63 00
        E 180 90 3e 60
        E 0 90 4a 60
        E 0 90 56 60
        E 0 90 62 60
        E 60 80 3e 00
        E 0 80 4a 00
        E 0 80 56 00
        E 0 80 62 00
        E 180 90 55 60
        E 0 90 61 60
        E 60 80 55 00
        E 0 80 61 00
        E 180 90 48 60
        E 0 90 54 60
        E 0 90 60 60
        E 120 80 48 00
        E 240 80 54 00
        E 0 80 60 00
        E 120 90 3c 60
        E 0 90 48 60
        E 0 90 54 60
        E 0 90 60 60
        E 60 80 74 00
        E 0 80 3c 00
        E 0 80 48 00
        E 0 80 54 00
        E 0 80 60 00
        E 180 90 48 60
        E 0 90 54 60
        E 0 90 60 60
        E 60 80 48 00
        E 0 80 54 00
        E 0 80 60 00
        E 660 90 3c 60
        E 0 90 48 60
        E 0 90 54 60
        E 0 90 60 60
        E 60 80 3c 00
        E 0 80 48 00
        E 0 80 54 00
        E 0 80 60 00
        E 180 90 48 60
        E 0 90 54 60
        E 0 90 60 60
        E 60 80 48 00
        E 0 80 54 00
        E 0 80 60 00
        E 660 90 3c 60
        E 0 90 48 60
        E 0 90 54 60
        E 0 90 60 60
        E 60 80 3c 00
        E 0 80 48 00
        E 0 80 54 00
        E 0 80 60 00
        E 180 90 48 60
        E 0 90 54 60
        E 0 90 60 60
        E 60 80 48 00
        E 0 80 54 00
        E 0 80 60 00
        E 660 90 3c 60
        E 0 90 48 60
        E 0 90 54 60
        E 0 90 60 60
        E 60 80 3c 00
        E 0 80 48 00
        E 0 80 54 00
        E 0 80 60 00
        E 180 90 48 60
        E 0 90 54 60
        E 0 90 60 60
        E 60 80 48 00
        E 0 80 54 00
        E 0 80 60 00
        E 660 90 3d 60
        E 0 90 49 60
        E 0 90 55 60
        E 0 90 61 60
        E 480 80 3d 00
        E 0 80 49 00
        E 0 80 55 00
        E 0 80 61 00
        E 1440 90 3d 60
        E 0 90 49 60
        E 0 90 55 60
        E 0 90 61 60
        E 481 80 3d 00
        E 0 80 49 00
        E 0 80 55 00
        E 0 80 61 00
        E 1439 90 74 60
        E 1 90 3d 60
        E 0 90 49 60
        E 0 90 55 60
        E 0 90 61 60
        E 480 80 3d 00
        E 0 80 49 00
        E 0 80 55 00
        E 0 80 61 00
        E 1440 90 3d 60
        E 0 90 49 60
        E 0 90 55 60
        E 0 90 61 60
        E 479 80 74 00
        E 1 80 3d 00
        E 0 80 49 00
        E 0 80 55 00
        E 0 80 61 00
        E 1440 90 3e 60
        E 0 90 4b 60
        E 0 90 57 60
        E 0 90 63 60
        E 480 80 3e 00
        E 0 80 4b 00
        E 0 80 57 00
        E 0 80 63 00
        E 1440 90 3e 60
        E 0 90 4b 60
        E 0 90 57 60
        E 0 90 63 60
        E 480 80 3e 00
        E 0 80 4b 00
        E 0 80 57 00
        E 0 80 63 00
        E 1440 90 3e 60
        E 0 90 4b 60
        E 0 90 57 60
        E 0 90 63 60
        E 480 80 3e 00
        E 0 80 4b 00
        E 0 80 57 00
        E 0 80 63 00
        E 1440 90 3e 60
        E 0 90 4b 60
        E 0 90 57 60
        E 0 90 63 60
        E 480 80 3e 00
        E 0 80 4b 00
        E 0 80 57 00
        E 0 80 63 00
        E 1439 90 74 60
        E 1 90 3d 60
        E 0 90 49 60
        E 0 90 55 60
        E 0 90 61 60
        E 480 80 3d 00
        E 0 80 49 00
        E 0 80 55 00
        E 0 80 61 00
        E 1440 90 3d 60
        E 0 90 49 60
        E 0 90 55 60
        E 0 90 61 60
        E 480 80 3d 00
        E 0 80 49 00
        E 0 80 55 00
        E 0 80 61 00
        E 1439 80 74 00
        E 1 90 3d 60
        E 0 90 49 60
        E 0 90 55 60
        E 0 90 61 60
        E 480 80 3d 00
        E 0 80 49 00
        E 0 80 55 00
        E 0 80 61 00
        E 1440 90 3d 60
        E 0 90 49 60
        E 0 90 55 60
        E 0 90 61 60
        E 479 80 3d 00
        E 0 80 49 00
        E 0 80 55 00
        E 0 80 61 00
        E 1441 90 3e 60
        E 0 90 4b 60
        E 0 90 57 60
        E 0 90 63 60
        E 120 80 3e 00
        E 0 80 4b 00
        E 240 80 57 00
        E 0 80 63 00
        E 120 90 4a 60
        E 0 90 56 60
        E 0 90 62 60
        E 120 80 4a 00
        E 240 80 56 00
        E 0 80 62 00
        E 120 90 3d 60
        E 0 90 49 60
        E 0 90 55 60
        E 0 90 61 60
        E 120 80 3d 00
        E 0 80 49 00
        E 240 80 55 00
        E 0 80 61 00
        E 120 90 48 60
        E 0 90 54 60
        E 0 90 60 60
        E 120 80 48 00
        E 240 80 54 00
        E 0 80 60 00
        E 120 90 3e 60
        E 0 90 4b 60
        E 0 90 57 60
        E 0 90 63 60
        E 120 80 3e 00
        E 0 80 4b 00
        E 240 80 57 00
        E 0 80 63 00
        E 120 90 4a 60
        E 0 90 56 60
        E 0 90 62 60
        E 120 80 4a 00
        E 240 80 56 00
        E 0 80 62 00
        E 120 90 3d 60
        E 0 90 49 60
        E 0 90 55 60
        E 0 90 61 60
        E 120 80 3d 00
        E 0 80 49 00
        E 240 80 55 00
        E 0 80 61 00
        E 120 90 48 60
        E 0 90 54 60
        E 0 90 60 60
        E 120 80 48 00
        E 240 80 54 00
        E 0 80 60 00
        E 120 90 40 60
        E 0 90 4c 60
        E 0 90 58 60
        E 0 90 64 60
        E 60 80 40 00
        E 0 80 4c 00
        E 0 80 58 00
        E 0 80 64 00
        E 180 90 4c 60
        E 0 90 58 60
        E 0 90 64 60
        E 120 80 4c 00
        E 240 80 58 00
        E 0 80 64 00
        E 120 90 57 60
        E 0 90 63 60
        E 60 80 57 00
        E 0 80 63 00
        E 180 90 3e 60
        E 0 90 4a 60
        E 0 90 56 60
        E 0 90 62 60
        E 60 80 3e 00
        E 0 80 4a 00
        E 0 80 56 00
        E 0 80 62 00
        E 180 90 55 60
        E 0 90 61 60
        E 60 80 55 00
        E 0 80 61 00
        E 180 90 48 60
        E 0 90 54 60
        E 0 90 60 60
        E 120 80 48 00
        E 240 80 54 00
        E 0 80 60 00
        E 120 90 3c 60
        E 0 90 48 60
        E 0 90 54 60
        E 0 90 60 60
        E 60 80 3c 00
        E 0 80 48 00
        E 0 80 54 00
        E 0 80 60 00
        E 180 90 48 60
        E 0 90 54 60
        E 0 90 60 60
        E 60 80 48 00
        E 0 80 54 00
        E 0 80 60 00
        E 660 90 3c 60
        E 0 90 48 60
        E 0 90 54 60
        E 0 90 60 60
        E 60 80 3c 00
        E 0 80 48 00
        E 0 80 54 00
        E 0 80 60 00
        E 180 90 48 60
        E 0 90 54 60
        E 0 90 60 60
        E 60 80 48 00
        E 0 80 54 00
        E 0 80 60 00
        E 660 90 3c 60
        E 0 90 48 60
        E 0 90 54 60
        E 0 90 60 60
        E 60 80 3c 00
        E 0 80 48 00
        E 0 80 54 00
        E 0 80 60 00
        E 180 90 48 60
        E 0 90 54 60
        E 0 90 60 60
        E 60 80 48 00
        E 0 80 54 00
        E 0 80 60 00
        E 660 90 3c 60
        E 0 90 48 60
        E 0 90 54 60
        E 0 90 60 60
        E 60 80 3c 00
        E 0 80 48 00
        E 0 80 54 00
        E 0 80 60 00
        E 180 90 48 60
        E 0 90 54 60
        E 0 90 60 60
        E 60 80 48 00
        E 0 80 54 00
        E 0 80 60 00
        <X 480 0
          /wFbaWRsZV9yZWFsdGltZV0=
        >
        E 4018 b0 7b 00
        GUID {4D1BB67C-C753-4EE7-AE19-C9B5B1AC3B4D}
        IGNTEMPO 0 120.00000000 4 4
        SRCCOLOR 2
        VELLANE 132 128 60
        COLORMAP "C:\Program Files\REAPER (x64)\Data\color_maps\rockband_guitarbass.png"
        CFGEDITVIEW -5040.838897 11.817087 0 12 0 0 0
        CFGEDIT 1 1 0 1 1 0 1 1 1 1 1 0.25000000 -8 -8 1544 872 0 2 1 1 0.00000000 0 1 0 0 0.500000 0 0 1.000000 64
        KEYSNAP 0 6 "102030050700" 0 "Pentatonic"
        EVTFILTER 0 -1 -1 -1 -1 0 1 0 0 -1.00000000 -1.00000000
      >
    >
  >
  <TRACK '{708912EB-1870-4B5C-913E-9D6801616A0E}'
    NAME "bass"
    PEAKCOL 16576
    BEAT -1
    AUTOMODE 0
    VOLPAN 1.00000000000000 0.00000000000000 -1.00000000000000 -1.00000000000000 1.00000000000000
    MUTESOLO 0 0 0
    IPHASE 0
    ISBUS 2 -1
    BUSCOMP 0 0
    SHOWINMIX 1 0.666700 0.500000 1 0.500000 -1 -1 -1
    FREEMODE 0
    SEL 0
    REC 0 0 0 0 0 0 0
    VU 2
    TRACKHEIGHT 0 0
    INQ 0 0 0 0.5000000000 100 0 0 100
    NCHAN 2
    FX 1
    TRACKID {708912EB-1870-4B5C-913E-9D6801616A0E}
    PERF 0
    MIDIOUT -1
    MAINSEND 1 0
    <ITEM
      POSITION 0.00000000000000
      SNAPOFFS 0.00000000000000
      LENGTH 95.03100000000001
      LOOP 0
      ALLTAKES 0
      SEL 0
      FADEIN 1 0.000000 0.000000 1 0
      FADEOUT 1 0.000000 0.000000 1 0
      MUTE 0
      IGUID {AF69ED26-16C1-4EBA-AFE2-00A09B6EC385}
      IID 13
      NAME "bass.wav"
      VOLPAN 1.000000 0.000000 1.000000 -1.000000
      SOFFS 0.00000000000000
      PLAYRATE 1.00000000000000 1 0.00000000000000 -1
      CHANMODE 0
      GUID {506D6D66-B397-4E53-BA84-408302BB8A28}
      <SOURCE WAVE
        FILE "C:\Users\Ruggery\Documents\Visual Studio Code\Projects\ruggy-customs-projects\songs\royalpalace\wav\bass.wav"
      >
    >
  >
  <TRACK '{5D6781A4-5A8C-4534-B412-A508413CE9A6}'
    NAME "PART KEYS"
    PEAKCOL 16576
    BEAT -1
    AUTOMODE 0
    VOLPAN 1.00000000000000 0.00000000000000 -1.00000000000000 -1.00000000000000 1.00000000000000
    MUTESOLO 0 0 0
    IPHASE 0
    ISBUS 1 1
    BUSCOMP 0 0
    SHOWINMIX 1 0.666700 0.500000 1 0.500000 -1 -1 -1
    FREEMODE 0
    SEL 0
    REC 0 0 0 0 0 0 0
    VU 2
    TRACKHEIGHT 0 0
    INQ 0 0 0 0.5000000000 100 0 0 100
    NCHAN 2
    FX 1
    TRACKID {5D6781A4-5A8C-4534-B412-A508413CE9A6}
    PERF 0
    MIDIOUT -1
    <MIDINOTENAMES
      0 127 "TRILL MARKER"
      0 125 "---"
      0 124 "BRE"
      0 123 "BRE"
      0 122 "BRE"
      0 121 "BRE"
      0 120 "BRE (use all 5)"
      0 119 "----"
      0 116 "OVERDRIVE"
      0 115 "----"
      0 103 "Solo Marker"
      0 102 "Force HOPO Off"
      0 101 "Force HOPO On"
      0 100 "EXPERT Orange"
      0 99 "EXPERT Blue"
      0 98 "EXPERT Yellow"
      0 97 "EXPERT Red"
      0 96 "EXPERT Green"
      0 95 "----"
      0 90 "Force HOPO Off"
      0 89 "Force HOPO On"
      0 88 "HARD Orange"
      0 87 "HARD Blue"
      0 86 "HARD Yellow"
      0 85 "HARD Red"
      0 84 "HARD Green"
      0 77 "----"
      0 76 "MEDIUM Orange"
      0 75 "MEDIUM Blue"
      0 74 "MEDIUM Yellow"
      0 73 "MEDIUM Red"
      0 72 "MEDIUM Green"
      0 65 "----"
      0 64 "EASY Orange"
      0 63 "EASY Blue"
      0 62 "EASY Yellow"
      0 61 "EASY Red"
      0 60 "EASY Green"
    >
    MAINSEND 1 0
    <FXCHAIN
      WNDRECT 0 43 891 559
      SHOW 0
      LASTSEL 0
      DOCKED 0
      BYPASS 0 0
      <VST "VSTi: RBN Preview (RBN)" "rbprev_vst64.dll" 0 ""
        dnBicu5e7f4AAAAAAgAAAAEAAAAAAAAAAgAAAAAAAAAEAAAAAQAAAA==
        AAAQAAMAqgAAABAAAAA=
      >
      FLOATPOS 0 0 0 0
      FXID {0746C891-7D2D-44B9-83F8-1FC7BAF9F6C4}
      WAK 0
    >
    <ITEM
      POSITION 0.00000000000000
      SNAPOFFS 0.00000000000000
      LENGTH 95.03100000000001
      LOOP 0
      ALLTAKES 0
      SEL 0
      FADEIN 1 0.000000 0.000000 1 0
      FADEOUT 1 0.000000 0.000000 1 0
      MUTE 0
      IGUID {6DD4BAF6-51CA-46D0-B7C7-CC1A7A9311FA}
      IID 3
      NAME "PART KEYS"
      VOLPAN 1.000000 0.000000 1.000000 -1.000000
      SOFFS 0.00000000000000 0.00000000000000
      PLAYRATE 1.00000000000000 1 0.00000000000000 -1
      CHANMODE 0
      GUID {3B04D426-E499-43B4-946A-33462AC232D5}
      <SOURCE MIDI
        HASDATA 1 480 QN
        POOLEDEVTS {98296B06-B435-4DF9-828E-2385DE2411CD}
        <X 0 0
          /wNQQVJUIEtFWVM=
        >
        <X 3840 0
          /wFbbWVsbG93XQ==
        >
        E 0 90 3c 60
        E 0 90 48 60
        E 0 90 55 60
        E 0 90 61 60
        E 60 80 3c 00
        E 0 80 48 00
        E 0 80 55 00
        E 0 80 61 00
        E 180 90 55 60
        E 0 90 61 60
        E 40 80 55 00
        E 0 80 61 00
        E 40 90 61 60
        E 40 80 61 00
        E 40 90 61 60
        E 40 80 61 00
        E 40 90 49 60
        E 0 90 4b 60
        E 0 90 55 60
        E 0 90 57 60
        E 0 90 61 60
        E 0 90 63 60
        E 480 80 49 00
        E 0 80 4b 00
        E 120 80 55 00
        E 0 80 57 00
        E 0 80 61 00
        E 0 80 63 00
        E 120 90 55 60
        E 0 90 56 60
        E 0 90 61 60
        E 0 90 62 60
        E 0 90 74 60
        E 60 80 55 00
        E 0 80 56 00
        E 0 80 61 00
        E 0 80 62 00
        E 60 90 61 60
        E 0 90 63 60
        E 60 80 61 00
        E 0 80 63 00
        E 60 90 4a 60
        E 0 90 4b 60
        E 0 90 56 60
        E 0 90 58 60
        E 0 90 62 60
        E 0 90 64 60
        E 60 80 4a 00
        E 0 80 4b 00
        E 0 80 56 00
        E 0 80 58 00
        E 0 80 62 00
        E 0 80 64 00
        E 180 90 55 60
        E 0 90 56 60
        E 0 90 61 60
        E 0 90 62 60
        E 60 80 55 00
        E 0 80 56 00
        E 0 80 61 00
        E 0 80 62 00
        E 180 90 3e 60
        E 0 90 49 60
        E 0 90 4b 60
        E 0 90 55 60
        E 0 90 57 60
        E 0 90 61 60
        E 0 90 63 60
        E 60 80 3e 00
        E 0 80 49 00
        E 0 80 4b 00
        E 0 80 55 00
        E 0 80 57 00
        E 0 80 61 00
        E 0 80 63 00
        E 180 90 55 60
        E 0 90 56 60
        E 0 90 61 60
        E 0 90 62 60
        E 60 80 55 00
        E 0 80 56 00
        E 0 80 61 00
        E 0 80 62 00
        E 60 90 61 60
        E 0 90 63 60
        E 60 80 61 00
        E 0 80 63 00
        E 60 90 4a 60
        E 0 90 4b 60
        E 0 90 56 60
        E 0 90 58 60
        E 0 90 62 60
        E 0 90 64 60
        E 60 80 4a 00
        E 0 80 4b 00
        E 0 80 56 00
        E 0 80 58 00
        E 0 80 62 00
        E 0 80 64 00
        E 180 90 55 60
        E 0 90 56 60
        E 0 90 61 60
        E 0 90 62 60
        E 60 80 55 00
        E 0 80 56 00
        E 0 80 61 00
        E 0 80 62 00
        E 180 90 3e 60
        E 0 90 49 60
        E 0 90 4b 60
        E 0 90 55 60
        E 0 90 57 60
        E 0 90 61 60
        E 0 90 63 60
        E 480 80 74 00
        E 960 80 3e 00
        E 0 80 49 00
        E 0 80 4b 00
        E 360 80 55 00
        E 0 80 57 00
        E 0 80 61 00
        E 0 80 63 00
        E 120 90 3c 60
        E 0 90 48 60
        E 0 90 55 60
        E 0 90 61 60
        E 60 80 3c 00
        E 0 80 48 00
        E 0 80 55 00
        E 0 80 61 00
        E 180 90 58 60
        E 0 90 64 60
        E 60 80 58 00
        E 0 80 64 00
        E 180 90 4b 60
        E 0 90 58 60
        E 0 90 64 60
        E 60 80 4b 00
        E 0 80 58 00
        E 0 80 64 00
        E 180 90 57 60
        E 0 90 63 60
        E 60 80 57 00
        E 0 80 63 00
        E 180 90 3d 60
        E 0 90 49 60
        E 0 90 56 60
        E 0 90 62 60
        E 60 80 3d 00
        E 0 80 49 00
        E 0 80 56 00
        E 0 80 62 00
        E 180 90 55 60
        E 0 90 61 60
        E 60 80 55 00
        E 0 80 61 00
        E 60 90 63 60
        E 60 80 63 00
        E 60 90 3d 60
        E 0 90 49 60
        E 0 90 56 60
        E 0 90 62 60
        E 60 80 3d 00
        E 0 80 49 00
        E 0 80 56 00
        E 0 80 62 00
        E 180 90 55 60
        E 0 90 61 60
        E 60 80 55 00
        E 0 80 61 00
        E 180 90 3d 60
        E 0 90 49 60
        E 0 90 56 60
        E 0 90 62 60
        E 60 80 3d 00
        E 0 80 49 00
        E 0 80 56 00
        E 0 80 62 00
        E 180 90 55 60
        E 0 90 61 60
        E 60 80 55 00
        E 0 80 61 00
        E 180 90 4b 60
        E 0 90 58 60
        E 0 90 64 60
        E 60 80 4b 00
        E 0 80 58 00
        E 0 80 64 00
        E 180 90 57 60
        E 0 90 63 60
        E 60 80 57 00
        E 0 80 63 00
        E 180 90 3d 60
        E 0 90 49 60
        E 0 90 56 60
        E 0 90 62 60
        E 120 80 3d 00
        E 0 80 49 00
        E 240 80 56 00
        E 0 80 62 00
        E 120 90 48 60
        E 0 90 54 60
        E 0 90 60 60
        E 120 80 48 00
        E 240 80 54 00
        E 0 80 60 00
        E 120 90 3c 60
        E 0 90 48 60
        E 0 90 55 60
        E 0 90 61 60
        E 60 80 3c 00
        E 0 80 48 00
        E 0 80 55 00
        E 0 80 61 00
        E 180 90 58 60
        E 0 90 64 60
        E 60 80 58 00
        E 0 80 64 00
        E 180 90 4b 60
        E 0 90 58 60
        E 0 90 64 60
        E 60 80 4b 00
        E 0 80 58 00
        E 0 80 64 00
        E 181 90 57 60
        E 0 90 63 60
        E 60 80 57 00
        E 0 80 63 00
        E 180 90 3d 60
        E 0 90 49 60
        E 0 90 56 60
        E 0 90 62 60
        E 60 80 3d 00
        E 0 80 49 00
        E 0 80 56 00
        E 0 80 62 00
        E 180 90 55 60
        E 0 90 61 60
        E 60 80 55 00
        E 0 80 61 00
        E 60 90 63 60
        E 60 80 63 00
        E 59 90 3d 60
        E 0 90 49 60
        E 0 90 56 60
        E 0 90 62 60
        E 60 80 3d 00
        E 0 80 49 00
        E 0 80 56 00
        E 0 80 62 00
        E 180 90 55 60
        E 0 90 61 60
        E 60 80 55 00
        E 0 80 61 00
        E 180 90 3d 60
        E 0 90 49 60
        E 0 90 56 60
        E 0 90 62 60
        E 60 80 3d 00
        E 0 80 49 00
        E 0 80 56 00
        E 0 80 62 00
        E 181 90 55 60
        E 0 90 61 60
        E 60 80 55 00
        E 0 80 61 00
        E 180 90 4b 60
        E 0 90 58 60
        E 0 90 64 60
        E 60 80 4b 00
        E 0 80 58 00
        E 0 80 64 00
        E 180 90 57 60
        E 0 90 63 60
        E 60 80 57 00
        E 0 80 63 00
        E 180 90 3d 60
        E 0 90 49 60
        E 0 90 56 60
        E 0 90 62 60
        E 479 80 3d 00
        E 0 80 49 00
        E 360 80 56 00
        E 1 80 62 00
        E 119 90 3d 60
        E 0 90 49 60
        E 0 90 56 60
        E 0 90 62 60
        E 60 80 3d 00
        E 0 80 49 00
        E 0 80 56 00
        E 0 80 62 00
        E 180 90 58 60
        E 0 90 64 60
        E 60 80 58 00
        E 0 80 64 00
        E 180 90 4b 60
        E 0 90 58 60
        E 0 90 64 60
        E 60 80 4b 00
        E 0 80 58 00
        E 0 80 64 00
        E 181 90 57 60
        E 0 90 63 60
        E 60 80 57 00
        E 0 80 63 00
        E 180 90 3d 60
        E 0 90 49 60
        E 0 90 56 60
        E 0 90 62 60
        E 60 80 3d 00
        E 0 80 49 00
        E 0 80 56 00
        E 0 80 62 00
        E 180 90 55 60
        E 0 90 61 60
        E 60 80 55 00
        E 0 80 61 00
        E 60 90 63 60
        E 60 80 63 00
        E 59 90 3d 60
        E 0 90 49 60
        E 0 90 56 60
        E 0 90 62 60
        E 60 80 3d 00
        E 0 80 49 00
        E 0 80 56 00
        E 0 80 62 00
        E 180 90 55 60
        E 0 90 61 60
        E 60 80 55 00
        E 0 80 61 00
        E 180 90 3d 60
        E 0 90 49 60
        E 0 90 56 60
        E 0 90 62 60
        E 60 80 3d 00
        E 0 80 49 00
        E 0 80 56 00
        E 0 80 62 00
        E 181 90 55 60
        E 0 90 61 60
        E 60 80 55 00
        E 0 80 61 00
        E 180 90 4b 60
        E 0 90 58 60
        E 0 90 64 60
        E 60 80 4b 00
        E 0 80 58 00
        E 0 80 64 00
        E 180 90 57 60
        E 0 90 63 60
        E 60 80 57 00
        E 0 80 63 00
        E 180 90 3d 60
        E 0 90 49 60
        E 0 90 56 60
        E 0 90 62 60
        E 120 80 3d 00
        E 0 80 49 00
        E 239 80 56 00
        E 0 80 62 00
        E 120 90 48 60
        E 0 90 54 60
        E 0 90 60 60
        E 120 80 48 00
        E 240 80 54 00
        E 0 80 60 00
        E 120 90 3d 60
        E 0 90 49 60
        E 0 90 56 60
        E 0 90 62 60
        E 60 80 3d 00
        E 0 80 49 00
        E 0 80 56 00
        E 0 80 62 00
        E 180 90 58 60
        E 0 90 64 60
        E 60 80 58 00
        E 0 80 64 00
        E 180 90 4b 60
        E 0 90 58 60
        E 0 90 64 60
        E 60 80 4b 00
        E 0 80 58 00
        E 0 80 64 00
        E 181 90 57 60
        E 0 90 63 60
        E 60 80 57 00
        E 0 80 63 00
        E 180 90 3d 60
        E 0 90 49 60
        E 0 90 56 60
        E 0 90 62 60
        E 60 80 3d 00
        E 0 80 49 00
        E 0 80 56 00
        E 0 80 62 00
        E 180 90 55 60
        E 0 90 61 60
        E 60 80 55 00
        E 0 80 61 00
        E 60 90 63 60
        E 60 80 63 00
        E 59 90 3d 60
        E 0 90 49 60
        E 0 90 56 60
        E 0 90 62 60
        E 60 80 3d 00
        E 0 80 49 00
        E 0 80 56 00
        E 0 80 62 00
        E 180 90 55 60
        E 0 90 61 60
        E 60 80 55 00
        E 0 80 61 00
        E 180 90 3d 60
        E 0 90 49 60
        E 0 90 56 60
        E 0 90 62 60
        E 0 90 74 60
        E 60 80 3d 00
        E 0 80 49 00
        E 0 80 56 00
        E 0 80 62 00
        E 181 90 55 60
        E 0 90 61 60
        E 60 80 55 00
        E 0 80 61 00
        E 180 90 4b 60
        E 0 90 58 60
        E 0 90 64 60
        E 60 80 4b 00
        E 0 80 58 00
        E 0 80 64 00
        E 180 90 57 60
        E 0 90 63 60
        E 60 80 57 00
        E 0 80 63 00
        E 180 90 3d 60
        E 0 90 49 60
        E 0 90 56 60
        E 0 90 62 60
        E 479 80 3d 00
        E 0 80 49 00
        E 360 80 56 00
        E 0 80 62 00
        E 120 80 74 00
        E 0 90 3c 60
        E 0 90 48 60
        E 0 90 55 60
        E 0 90 61 60
        E 60 80 3c 00
        E 0 80 48 00
        E 0 80 55 00
        E 0 80 61 00
        E 180 90 58 60
        E 0 90 64 60
        E 60 80 58 00
        E 0 80 64 00
        E 180 90 4b 60
        E 0 90 58 60
        E 0 90 64 60
        E 60 80 4b 00
        E 0 80 58 00
        E 0 80 64 00
        E 180 90 57 60
        E 0 90 63 60
        E 60 80 57 00
        E 0 80 63 00
        E 180 90 3d 60
        E 0 90 49 60
        E 0 90 56 60
        E 0 90 62 60
        E 60 80 3d 00
        E 0 80 49 00
        E 0 80 56 00
        E 0 80 62 00
        E 180 90 55 60
        E 0 90 61 60
        E 60 80 55 00
        E 0 80 61 00
        E 60 90 63 60
        E 60 80 63 00
        E 60 90 3d 60
        E 0 90 49 60
        E 0 90 56 60
        E 0 90 62 60
        E 60 80 3d 00
        E 0 80 49 00
        E 0 80 56 00
        E 0 80 62 00
        E 180 90 55 60
        E 0 90 61 60
        E 60 80 55 00
        E 0 80 61 00
        E 180 90 3d 60
        E 0 90 49 60
        E 0 90 56 60
        E 0 90 62 60
        E 60 80 3d 00
        E 0 80 49 00
        E 0 80 56 00
        E 0 80 62 00
        E 180 90 55 60
        E 0 90 61 60
        E 60 80 55 00
        E 0 80 61 00
        E 180 90 4b 60
        E 0 90 58 60
        E 0 90 64 60
        E 60 80 4b 00
        E 0 80 58 00
        E 0 80 64 00
        E 180 90 57 60
        E 0 90 63 60
        E 60 80 57 00
        E 0 80 63 00
        E 180 90 3d 60
        E 0 90 49 60
        E 0 90 56 60
        E 0 90 62 60
        E 120 80 3d 00
        E 0 80 49 00
        E 240 80 56 00
        E 0 80 62 00
        E 120 90 48 60
        E 0 90 54 60
        E 0 90 60 60
        E 120 80 48 00
        E 240 80 54 00
        E 0 80 60 00
        E 120 90 3c 60
        E 0 90 48 60
        E 0 90 55 60
        E 0 90 61 60
        E 60 80 3c 00
        E 0 80 48 00
        E 0 80 55 00
        E 0 80 61 00
        E 180 90 58 60
        E 0 90 64 60
        E 60 80 58 00
        E 0 80 64 00
        E 180 90 4b 60
        E 0 90 58 60
        E 0 90 64 60
        E 60 80 4b 00
        E 0 80 58 00
        E 0 80 64 00
        E 180 90 57 60
        E 0 90 63 60
        E 60 80 57 00
        E 0 80 63 00
        E 180 90 3d 60
        E 0 90 49 60
        E 0 90 56 60
        E 0 90 62 60
        E 60 80 3d 00
        E 0 80 49 00
        E 0 80 56 00
        E 0 80 62 00
        E 180 90 55 60
        E 0 90 61 60
        E 60 80 55 00
        E 0 80 61 00
        E 60 90 63 60
        E 60 80 63 00
        E 60 90 3d 60
        E 0 90 49 60
        E 0 90 56 60
        E 0 90 62 60
        E 60 80 3d 00
        E 0 80 49 00
        E 0 80 56 00
        E 0 80 62 00
        E 180 90 55 60
        E 0 90 61 60
        E 60 80 55 00
        E 0 80 61 00
        E 180 90 3d 60
        E 0 90 49 60
        E 0 90 56 60
        E 0 90 62 60
        E 60 80 3d 00
        E 0 80 49 00
        E 0 80 56 00
        E 0 80 62 00
        E 180 90 55 60
        E 0 90 61 60
        E 60 80 55 00
        E 0 80 61 00
        E 180 90 4b 60
        E 0 90 58 60
        E 0 90 64 60
        E 60 80 4b 00
        E 0 80 58 00
        E 0 80 64 00
        E 180 90 57 60
        E 0 90 63 60
        E 60 80 57 00
        E 0 80 63 00
        E 180 90 3d 60
        E 0 90 49 60
        E 0 90 56 60
        E 0 90 62 60
        E 480 80 3d 00
        E 0 80 49 00
        E 360 80 56 00
        E 0 80 62 00
        E 120 90 3c 60
        E 0 90 48 60
        E 0 90 55 60
        E 0 90 61 60
        E 60 80 3c 00
        E 0 80 48 00
        E 0 80 55 00
        E 0 80 61 00
        E 60 90 60 60
        E 60 80 60 00
        E 60 90 55 60
        E 0 90 61 60
        E 60 80 55 00
        E 0 80 61 00
        E 60 90 62 60
        E 60 80 62 00
        E 60 90 4a 60
        E 0 90 57 60
        E 0 90 63 60
        E 60 80 4a 00
        E 0 80 57 00
        E 0 80 63 00
        E 180 90 54 60
        E 0 90 60 60
        E 60 80 54 00
        E 0 80 60 00
        E 180 90 3c 60
        E 0 90 48 60
        E 0 90 55 60
        E 0 90 61 60
        E 60 80 3c 00
        E 0 80 48 00
        E 0 80 55 00
        E 0 80 61 00
        E 60 90 60 60
        E 60 80 60 00
        E 60 90 55 60
        E 0 90 61 60
        E 60 80 55 00
        E 0 80 61 00
        E 60 90 62 60
        E 60 80 62 00
        E 60 90 4a 60
        E 0 90 57 60
        E 0 90 63 60
        E 120 80 4a 00
        E 240 80 57 00
        E 0 80 63 00
        E 120 90 3d 60
        E 0 90 49 60
        E 0 90 56 60
        E 0 90 62 60
        E 60 80 3d 00
        E 0 80 49 00
        E 0 80 56 00
        E 0 80 62 00
        E 60 90 61 60
        E 60 80 61 00
        E 60 90 56 60
        E 0 90 62 60
        E 60 80 56 00
        E 0 80 62 00
        E 60 90 63 60
        E 60 80 63 00
        E 60 90 4b 60
        E 0 90 58 60
        E 0 90 64 60
        E 60 80 4b 00
        E 0 80 58 00
        E 0 80 64 00
        E 180 90 55 60
        E 0 90 61 60
        E 60 80 55 00
        E 0 80 61 00
        E 180 90 3d 60
        E 0 90 49 60
        E 0 90 56 60
        E 0 90 62 60
        E 60 80 3d 00
        E 0 80 49 00
        E 0 80 56 00
        E 0 80 62 00
        E 60 90 61 60
        E 60 80 61 00
        E 60 90 56 60
        E 0 90 62 60
        E 60 80 56 00
        E 0 80 62 00
        E 60 90 63 60
        E 60 80 63 00
        E 60 90 4b 60
        E 0 90 58 60
        E 0 90 64 60
        E 60 80 4b 00
        E 0 80 58 00
        E 0 80 64 00
        E 60 90 62 60
        E 60 80 62 00
        E 60 90 57 60
        E 0 90 63 60
        E 60 80 57 00
        E 0 80 63 00
        E 60 90 64 60
        E 60 80 64 00
        E 60 90 3c 60
        E 0 90 48 60
        E 0 90 55 60
        E 0 90 61 60
        E 0 90 74 60
        E 60 80 3c 00
        E 0 80 48 00
        E 0 80 55 00
        E 0 80 61 00
        E 60 90 60 60
        E 60 80 60 00
        E 60 90 55 60
        E 0 90 61 60
        E 60 80 55 00
        E 0 80 61 00
        E 60 90 62 60
        E 60 80 62 00
        E 60 90 4a 60
        E 0 90 57 60
        E 0 90 63 60
        E 60 80 4a 00
        E 0 80 57 00
        E 0 80 63 00
        E 180 90 54 60
        E 0 90 60 60
        E 60 80 54 00
        E 0 80 60 00
        E 180 90 3c 60
        E 0 90 48 60
        E 0 90 55 60
        E 0 90 61 60
        E 60 80 3c 00
        E 0 80 48 00
        E 0 80 55 00
        E 0 80 61 00
        E 60 90 60 60
        E 60 80 60 00
        E 60 90 55 60
        E 0 90 61 60
        E 60 80 55 00
        E 0 80 61 00
        E 60 90 62 60
        E 60 80 62 00
        E 60 90 4a 60
        E 0 90 57 60
        E 0 90 63 60
        E 60 80 4a 00
        E 0 80 57 00
        E 0 80 63 00
        E 60 90 61 60
        E 60 80 61 00
        E 60 90 56 60
        E 0 90 62 60
        E 60 80 56 00
        E 0 80 62 00
        E 60 90 63 60
        E 60 80 63 00
        E 60 90 3e 60
        E 0 90 4b 60
        E 0 90 58 60
        E 0 90 64 60
        E 60 80 74 00
        E 0 80 3e 00
        E 0 80 4b 00
        E 0 80 58 00
        E 0 80 64 00
        E 60 90 63 60
        E 60 80 63 00
        E 60 90 58 60
        E 0 90 64 60
        E 60 80 58 00
        E 0 80 64 00
        E 60 90 63 60
        E 60 80 63 00
        E 60 90 49 60
        E 0 90 56 60
        E 0 90 62 60
        E 60 80 49 00
        E 0 80 56 00
        E 0 80 62 00
        E 60 90 61 60
        E 60 80 61 00
        E 60 90 54 60
        E 0 90 60 60
        E 60 80 54 00
        E 0 80 60 00
        E 60 90 61 60
        E 60 80 61 00
        E 60 90 3e 60
        E 0 90 4a 60
        E 0 90 57 60
        E 0 90 63 60
        E 60 80 3e 00
        E 0 80 4a 00
        E 0 80 57 00
        E 0 80 63 00
        E 60 90 62 60
        E 60 80 62 00
        E 60 90 57 60
        E 0 90 63 60
        E 60 80 57 00
        E 0 80 63 00
        E 60 90 62 60
        E 60 80 62 00
        E 60 90 48 60
        E 0 90 55 60
        E 0 90 61 60
        E 60 80 48 00
        E 0 80 55 00
        E 0 80 61 00
        E 60 90 62 60
        E 60 80 62 00
        E 60 90 54 60
        E 0 90 60 60
        E 60 80 54 00
        E 0 80 60 00
        E 60 90 62 60
        E 60 80 62 00
        E 60 90 3e 60
        E 0 90 4b 60
        E 0 90 58 60
        E 0 90 64 60
        E 60 80 3e 00
        E 0 80 4b 00
        E 0 80 58 00
        E 0 80 64 00
        E 60 90 63 60
        E 60 80 63 00
        E 60 90 56 60
        E 0 90 62 60
        E 60 80 56 00
        E 0 80 62 00
        E 60 90 61 60
        E 60 80 61 00
        E 60 90 3e 60
        E 0 90 4b 60
        E 0 90 58 60
        E 0 90 64 60
        E 60 80 3e 00
        E 0 80 4b 00
        E 0 80 58 00
        E 0 80 64 00
        E 60 90 62 60
        E 60 80 62 00
        E 60 90 55 60
        E 0 90 61 60
        E 60 80 55 00
        E 0 80 61 00
        E 60 90 62 60
        E 60 80 62 00
        E 60 90 3e 60
        E 0 90 4b 60
        E 0 90 58 60
        E 0 90 64 60
        E 60 80 3e 00
        E 0 80 4b 00
        E 0 80 58 00
        E 0 80 64 00
        E 60 90 63 60
        E 60 80 63 00
        E 60 90 56 60
        E 0 90 62 60
        E 60 80 56 00
        E 0 80 62 00
        E 60 90 61 60
        E 60 80 61 00
        E 60 90 4a 60
        E 0 90 57 60
        E 0 90 63 60
        E 60 80 4a 00
        E 0 80 57 00
        E 0 80 63 00
        E 60 90 62 60
        E 60 80 62 00
        E 60 90 55 60
        E 0 90 61 60
        E 60 80 55 00
        E 0 80 61 00
        E 60 90 60 60
        E 60 80 60 00
        E 60 90 3c 60
        E 0 90 48 60
        E 0 90 55 60
        E 0 90 61 60
        E 60 80 3c 00
        E 0 80 48 00
        E 0 80 55 00
        E 0 80 61 00
        E 180 90 58 60
        E 0 90 64 60
        E 60 80 58 00
        E 0 80 64 00
        E 180 90 4b 60
        E 0 90 58 60
        E 0 90 64 60
        E 60 80 4b 00
        E 0 80 58 00
        E 0 80 64 00
        E 180 90 57 60
        E 0 90 63 60
        E 60 80 57 00
        E 0 80 63 00
        E 180 90 3d 60
        E 0 90 49 60
        E 0 90 56 60
        E 0 90 62 60
        E 60 80 3d 00
        E 0 80 49 00
        E 0 80 56 00
        E 0 80 62 00
        E 180 90 55 60
        E 0 90 61 60
        E 60 80 55 00
        E 0 80 61 00
        E 60 90 63 60
        E 60 80 63 00
        E 60 90 3d 60
        E 0 90 49 60
        E 0 90 56 60
        E 0 90 62 60
        E 60 80 3d 00
        E 0 80 49 00
        E 0 80 56 00
        E 0 80 62 00
        E 180 90 55 60
        E 0 90 61 60
        E 0 90 74 60
        E 60 80 55 00
        E 0 80 61 00
        E 180 90 3d 60
        E 0 90 49 60
        E 0 90 56 60
        E 0 90 62 60
        E 60 80 3d 00
        E 0 80 49 00
        E 0 80 56 00
        E 0 80 62 00
        E 180 90 55 60
        E 0 90 61 60
        E 60 80 55 00
        E 0 80 61 00
        E 180 90 4b 60
        E 0 90 58 60
        E 0 90 64 60
        E 60 80 4b 00
        E 0 80 58 00
        E 0 80 64 00
        E 180 90 57 60
        E 0 90 63 60
        E 60 80 57 00
        E 0 80 63 00
        E 180 90 3d 60
        E 0 90 49 60
        E 0 90 56 60
        E 0 90 62 60
        E 120 80 3d 00
        E 0 80 49 00
        E 240 80 56 00
        E 0 80 62 00
        E 120 90 48 60
        E 0 90 54 60
        E 0 90 60 60
        E 120 80 48 00
        E 240 80 54 00
        E 0 80 60 00
        E 120 80 74 00
        E 0 90 3c 60
        E 0 90 48 60
        E 0 90 55 60
        E 0 90 61 60
        E 60 80 3c 00
        E 0 80 48 00
        E 0 80 55 00
        E 0 80 61 00
        E 180 90 58 60
        E 0 90 64 60
        E 60 80 58 00
        E 0 80 64 00
        E 180 90 4b 60
        E 0 90 58 60
        E 0 90 64 60
        E 60 80 4b 00
        E 0 80 58 00
        E 0 80 64 00
        E 180 90 57 60
        E 0 90 63 60
        E 60 80 57 00
        E 0 80 63 00
        E 180 90 3d 60
        E 0 90 49 60
        E 0 90 56 60
        E 0 90 62 60
        E 60 80 3d 00
        E 0 80 49 00
        E 0 80 56 00
        E 0 80 62 00
        E 180 90 55 60
        E 0 90 61 60
        E 60 80 55 00
        E 0 80 61 00
        E 60 90 63 60
        E 60 80 63 00
        E 60 90 3d 60
        E 0 90 49 60
        E 0 90 56 60
        E 0 90 62 60
        E 60 80 3d 00
        E 0 80 49 00
        E 0 80 56 00
        E 0 80 62 00
        E 180 90 55 60
        E 0 90 61 60
        E 60 80 55 00
        E 0 80 61 00
        E 180 90 3d 60
        E 0 90 49 60
        E 0 90 56 60
        E 0 90 62 60
        E 60 80 3d 00
        E 0 80 49 00
        E 0 80 56 00
        E 0 80 62 00
        E 180 90 55 60
        E 0 90 61 60
        E 60 80 55 00
        E 0 80 61 00
        E 180 90 4b 60
        E 0 90 58 60
        E 0 90 64 60
        E 60 80 4b 00
        E 0 80 58 00
        E 0 80 64 00
        E 180 90 57 60
        E 0 90 63 60
        E 60 80 57 00
        E 0 80 63 00
        E 180 90 3d 60
        E 0 90 49 60
        E 0 90 56 60
        E 0 90 62 60
        E 480 80 3d 00
        E 0 80 49 00
        E 360 80 56 00
        E 0 80 62 00
        E 120 90 3d 60
        E 0 90 49 60
        E 0 90 56 60
        E 0 90 62 60
        E 60 80 3d 00
        E 0 80 49 00
        E 0 80 56 00
        E 0 80 62 00
        E 180 90 58 60
        E 0 90 64 60
        E 60 80 58 00
        E 0 80 64 00
        E 180 90 4b 60
        E 0 90 58 60
        E 0 90 64 60
        E 60 80 4b 00
        E 0 80 58 00
        E 0 80 64 00
        E 180 90 57 60
        E 0 90 63 60
        E 60 80 57 00
        E 0 80 63 00
        E 180 90 3d 60
        E 0 90 49 60
        E 0 90 56 60
        E 0 90 62 60
        E 60 80 3d 00
        E 0 80 49 00
        E 0 80 56 00
        E 0 80 62 00
        E 180 90 55 60
        E 0 90 61 60
        E 60 80 55 00
        E 0 80 61 00
        E 60 90 63 60
        E 60 80 63 00
        E 60 90 3d 60
        E 0 90 49 60
        E 0 90 56 60
        E 0 90 62 60
        E 60 80 3d 00
        E 0 80 49 00
        E 0 80 56 00
        E 0 80 62 00
        E 180 90 55 60
        E 0 90 61 60
        E 60 80 55 00
        E 0 80 61 00
        E 180 90 3d 60
        E 0 90 49 60
        E 0 90 56 60
        E 0 90 62 60
        E 60 80 3d 00
        E 0 80 49 00
        E 0 80 56 00
        E 0 80 62 00
        E 180 90 55 60
        E 0 90 61 60
        E 60 80 55 00
        E 0 80 61 00
        E 180 90 4b 60
        E 0 90 58 60
        E 0 90 64 60
        E 60 80 4b 00
        E 0 80 58 00
        E 0 80 64 00
        E 180 90 57 60
        E 0 90 63 60
        E 60 80 57 00
        E 0 80 63 00
        E 180 90 3d 60
        E 0 90 49 60
        E 0 90 56 60
        E 0 90 62 60
        E 120 80 3d 00
        E 0 80 49 00
        E 240 80 56 00
        E 0 80 62 00
        E 120 90 48 60
        E 0 90 54 60
        E 0 90 60 60
        E 120 80 48 00
        E 240 80 54 00
        E 0 80 60 00
        E 120 90 3d 60
        E 0 90 49 60
        E 0 90 56 60
        E 0 90 62 60
        E 60 80 3d 00
        E 0 80 49 00
        E 0 80 56 00
        E 0 80 62 00
        E 180 90 58 60
        E 0 90 64 60
        E 60 80 58 00
        E 0 80 64 00
        E 180 90 4b 60
        E 0 90 58 60
        E 0 90 64 60
        E 60 80 4b 00
        E 0 80 58 00
        E 0 80 64 00
        E 180 90 57 60
        E 0 90 63 60
        E 60 80 57 00
        E 0 80 63 00
        E 180 90 3d 60
        E 0 90 49 60
        E 0 90 56 60
        E 0 90 62 60
        E 60 80 3d 00
        E 0 80 49 00
        E 0 80 56 00
        E 0 80 62 00
        E 180 90 55 60
        E 0 90 61 60
        E 60 80 55 00
        E 0 80 61 00
        E 60 90 63 60
        E 60 80 63 00
        E 60 90 3d 60
        E 0 90 49 60
        E 0 90 56 60
        E 0 90 62 60
        E 60 80 3d 00
        E 0 80 49 00
        E 0 80 56 00
        E 0 80 62 00
        E 180 90 55 60
        E 0 90 61 60
        E 60 80 55 00
        E 0 80 61 00
        E 180 90 3d 60
        E 0 90 49 60
        E 0 90 56 60
        E 0 90 62 60
        E 60 80 3d 00
        E 0 80 49 00
        E 0 80 56 00
        E 0 80 62 00
        E 180 90 55 60
        E 0 90 61 60
        E 60 80 55 00
        E 0 80 61 00
        E 180 90 4b 60
        E 0 90 58 60
        E 0 90 64 60
        E 60 80 4b 00
        E 0 80 58 00
        E 0 80 64 00
        E 180 90 57 60
        E 0 90 63 60
        E 60 80 57 00
        E 0 80 63 00
        E 180 90 3d 60
        E 0 90 49 60
        E 0 90 56 60
        E 0 90 62 60
        E 480 80 3d 00
        E 0 80 49 00
        E 360 80 56 00
        E 0 80 62 00
        E 120 90 3c 60
        E 0 90 48 60
        E 0 90 55 60
        E 0 90 61 60
        E 0 90 74 60
        E 60 80 3c 00
        E 0 80 48 00
        E 0 80 55 00
        E 0 80 61 00
        E 180 90 58 60
        E 0 90 64 60
        E 60 80 58 00
        E 0 80 64 00
        E 180 90 4b 60
        E 0 90 58 60
        E 0 90 64 60
        E 60 80 4b 00
        E 0 80 58 00
        E 0 80 64 00
        E 180 90 57 60
        E 0 90 63 60
        E 60 80 57 00
        E 0 80 63 00
        E 180 90 3d 60
        E 0 90 49 60
        E 0 90 56 60
        E 0 90 62 60
        E 60 80 3d 00
        E 0 80 49 00
        E 0 80 56 00
        E 0 80 62 00
        E 180 90 55 60
        E 0 90 61 60
        E 60 80 55 00
        E 0 80 61 00
        E 60 90 63 60
        E 60 80 63 00
        E 60 90 3d 60
        E 0 90 49 60
        E 0 90 56 60
        E 0 90 62 60
        E 60 80 3d 00
        E 0 80 49 00
        E 0 80 56 00
        E 0 80 62 00
        E 180 90 55 60
        E 0 90 61 60
        E 60 80 55 00
        E 0 80 61 00
        E 180 90 3d 60
        E 0 90 49 60
        E 0 90 56 60
        E 0 90 62 60
        E 60 80 3d 00
        E 0 80 49 00
        E 0 80 56 00
        E 0 80 62 00
        E 180 90 55 60
        E 0 90 61 60
        E 60 80 55 00
        E 0 80 61 00
        E 180 90 4b 60
        E 0 90 58 60
        E 0 90 64 60
        E 60 80 4b 00
        E 0 80 58 00
        E 0 80 64 00
        E 180 90 57 60
        E 0 90 63 60
        E 60 80 57 00
        E 0 80 63 00
        E 180 90 3d 60
        E 0 90 49 60
        E 0 90 56 60
        E 0 90 62 60
        E 120 80 3d 00
        E 0 80 49 00
        E 240 80 56 00
        E 0 80 62 00
        E 120 90 48 60
        E 0 90 54 60
        E 0 90 60 60
        E 120 80 48 00
        E 240 80 54 00
        E 0 80 60 00
        E 120 80 74 00
        E 0 90 3c 60
        E 0 90 48 60
        E 0 90 55 60
        E 0 90 61 60
        E 60 80 3c 00
        E 0 80 48 00
        E 0 80 55 00
        E 0 80 61 00
        E 180 90 58 60
        E 0 90 64 60
        E 60 80 58 00
        E 0 80 64 00
        E 180 90 4b 60
        E 0 90 58 60
        E 0 90 64 60
        E 60 80 4b 00
        E 0 80 58 00
        E 0 80 64 00
        E 180 90 57 60
        E 0 90 63 60
        E 60 80 57 00
        E 0 80 63 00
        E 180 90 3d 60
        E 0 90 49 60
        E 0 90 56 60
        E 0 90 62 60
        E 60 80 3d 00
        E 0 80 49 00
        E 0 80 56 00
        E 0 80 62 00
        E 180 90 55 60
        E 0 90 61 60
        E 60 80 55 00
        E 0 80 61 00
        E 60 90 63 60
        E 60 80 63 00
        E 60 90 3d 60
        E 0 90 49 60
        E 0 90 56 60
        E 0 90 62 60
        E 60 80 3d 00
        E 0 80 49 00
        E 0 80 56 00
        E 0 80 62 00
        E 180 90 55 60
        E 0 90 61 60
        E 60 80 55 00
        E 0 80 61 00
        E 180 90 3d 60
        E 0 90 49 60
        E 0 90 56 60
        E 0 90 62 60
        E 60 80 3d 00
        E 0 80 49 00
        E 0 80 56 00
        E 0 80 62 00
        E 180 90 55 60
        E 0 90 61 60
        E 60 80 55 00
        E 0 80 61 00
        E 180 90 4b 60
        E 0 90 58 60
        E 0 90 64 60
        E 60 80 4b 00
        E 0 80 58 00
        E 0 80 64 00
        E 180 90 57 60
        E 0 90 63 60
        E 60 80 57 00
        E 0 80 63 00
        E 180 90 3d 60
        E 0 90 49 60
        E 0 90 56 60
        E 0 90 62 60
        E 480 80 3d 00
        E 0 80 49 00
        E 360 80 56 00
        E 0 80 62 00
        E 120 90 3c 60
        E 0 90 48 60
        E 0 90 55 60
        E 0 90 61 60
        E 60 80 3c 00
        E 0 80 48 00
        E 0 80 55 00
        E 0 80 61 00
        E 60 90 60 60
        E 60 80 60 00
        E 60 90 55 60
        E 0 90 61 60
        E 60 80 55 00
        E 0 80 61 00
        E 60 90 62 60
        E 60 80 62 00
        E 60 90 4a 60
        E 0 90 57 60
        E 0 90 63 60
        E 60 80 4a 00
        E 0 80 57 00
        E 0 80 63 00
        E 180 90 54 60
        E 0 90 60 60
        E 60 80 54 00
        E 0 80 60 00
        E 180 90 3c 60
        E 0 90 48 60
        E 0 90 55 60
        E 0 90 61 60
        E 60 80 3c 00
        E 0 80 48 00
        E 0 80 55 00
        E 0 80 61 00
        E 60 90 60 60
        E 60 80 60 00
        E 60 90 55 60
        E 0 90 61 60
        E 60 80 55 00
        E 0 80 61 00
        E 60 90 62 60
        E 60 80 62 00
        E 60 90 4a 60
        E 0 90 57 60
        E 0 90 63 60
        E 120 80 4a 00
        E 240 80 57 00
        E 0 80 63 00
        E 120 90 3d 60
        E 0 90 49 60
        E 0 90 56 60
        E 0 90 62 60
        E 60 80 3d 00
        E 0 80 49 00
        E 0 80 56 00
        E 0 80 62 00
        E 60 90 61 60
        E 60 80 61 00
        E 60 90 56 60
        E 0 90 62 60
        E 60 80 56 00
        E 0 80 62 00
        E 60 90 63 60
        E 60 80 63 00
        E 60 90 4b 60
        E 0 90 58 60
        E 0 90 64 60
        E 60 80 4b 00
        E 0 80 58 00
        E 0 80 64 00
        E 180 90 55 60
        E 0 90 61 60
        E 60 80 55 00
        E 0 80 61 00
        E 180 90 3d 60
        E 0 90 49 60
        E 0 90 56 60
        E 0 90 62 60
        E 60 80 3d 00
        E 0 80 49 00
        E 0 80 56 00
        E 0 80 62 00
        E 60 90 61 60
        E 60 80 61 00
        E 60 90 56 60
        E 0 90 62 60
        E 60 80 56 00
        E 0 80 62 00
        E 60 90 63 60
        E 60 80 63 00
        E 60 90 4b 60
        E 0 90 58 60
        E 0 90 64 60
        E 60 80 4b 00
        E 0 80 58 00
        E 0 80 64 00
        E 60 90 62 60
        E 60 80 62 00
        E 60 90 57 60
        E 0 90 63 60
        E 60 80 57 00
        E 0 80 63 00
        E 60 90 64 60
        E 60 80 64 00
        E 60 90 3c 60
        E 0 90 48 60
        E 0 90 55 60
        E 0 90 61 60
        E 60 80 3c 00
        E 0 80 48 00
        E 0 80 55 00
        E 0 80 61 00
        E 60 90 60 60
        E 60 80 60 00
        E 60 90 55 60
        E 0 90 61 60
        E 60 80 55 00
        E 0 80 61 00
        E 60 90 62 60
        E 60 80 62 00
        E 60 90 4a 60
        E 0 90 57 60
        E 0 90 63 60
        E 60 80 4a 00
        E 0 80 57 00
        E 0 80 63 00
        E 180 90 54 60
        E 0 90 60 60
        E 60 80 54 00
        E 0 80 60 00
        E 180 90 3c 60
        E 0 90 48 60
        E 0 90 55 60
        E 0 90 61 60
        E 60 80 3c 00
        E 0 80 48 00
        E 0 80 55 00
        E 0 80 61 00
        E 60 90 60 60
        E 60 80 60 00
        E 60 90 55 60
        E 0 90 61 60
        E 60 80 55 00
        E 0 80 61 00
        E 60 90 62 60
        E 60 80 62 00
        E 60 90 4a 60
        E 0 90 57 60
        E 0 90 63 60
        E 60 80 4a 00
        E 0 80 57 00
        E 0 80 63 00
        E 60 90 61 60
        E 60 80 61 00
        E 60 90 56 60
        E 0 90 62 60
        E 60 80 56 00
        E 0 80 62 00
        E 60 90 63 60
        E 60 80 63 00
        E 60 90 3e 60
        E 0 90 4b 60
        E 0 90 58 60
        E 0 90 64 60
        E 60 80 3e 00
        E 0 80 4b 00
        E 0 80 58 00
        E 0 80 64 00
        E 60 90 63 60
        E 60 80 63 00
        E 60 90 58 60
        E 0 90 64 60
        E 60 80 58 00
        E 0 80 64 00
        E 60 90 63 60
        E 60 80 63 00
        E 60 90 49 60
        E 0 90 56 60
        E 0 90 62 60
        E 60 80 49 00
        E 0 80 56 00
        E 0 80 62 00
        E 60 90 61 60
        E 60 80 61 00
        E 60 90 54 60
        E 0 90 60 60
        E 60 80 54 00
        E 0 80 60 00
        E 60 90 61 60
        E 60 80 61 00
        E 60 90 3e 60
        E 0 90 4a 60
        E 0 90 57 60
        E 0 90 63 60
        E 60 80 3e 00
        E 0 80 4a 00
        E 0 80 57 00
        E 0 80 63 00
        E 60 90 62 60
        E 60 80 62 00
        E 60 90 57 60
        E 0 90 63 60
        E 60 80 57 00
        E 0 80 63 00
        E 60 90 62 60
        E 60 80 62 00
        E 60 90 48 60
        E 0 90 55 60
        E 0 90 61 60
        E 60 80 48 00
        E 0 80 55 00
        E 0 80 61 00
        E 60 90 62 60
        E 60 80 62 00
        E 60 90 54 60
        E 0 90 60 60
        E 60 80 54 00
        E 0 80 60 00
        E 60 90 62 60
        E 60 80 62 00
        E 60 90 3e 60
        E 0 90 4b 60
        E 0 90 58 60
        E 0 90 64 60
        E 60 80 3e 00
        E 0 80 4b 00
        E 0 80 58 00
        E 0 80 64 00
        E 60 90 63 60
        E 60 80 63 00
        E 60 90 56 60
        E 0 90 62 60
        E 60 80 56 00
        E 0 80 62 00
        E 60 90 61 60
        E 60 80 61 00
        E 60 90 3e 60
        E 0 90 4b 60
        E 0 90 58 60
        E 0 90 64 60
        E 60 80 3e 00
        E 0 80 4b 00
        E 0 80 58 00
        E 0 80 64 00
        E 60 90 62 60
        E 60 80 62 00
        E 60 90 55 60
        E 0 90 61 60
        E 60 80 55 00
        E 0 80 61 00
        E 60 90 62 60
        E 60 80 62 00
        E 60 90 3e 60
        E 0 90 4b 60
        E 0 90 58 60
        E 0 90 64 60
        E 60 80 3e 00
        E 0 80 4b 00
        E 0 80 58 00
        E 0 80 64 00
        E 60 90 63 60
        E 60 80 63 00
        E 60 90 56 60
        E 0 90 62 60
        E 60 80 56 00
        E 0 80 62 00
        E 60 90 61 60
        E 60 80 61 00
        E 60 90 4a 60
        E 0 90 57 60
        E 0 90 63 60
        E 60 80 4a 00
        E 0 80 57 00
        E 0 80 63 00
        E 60 90 62 60
        E 60 80 62 00
        E 60 90 55 60
        E 0 90 61 60
        E 60 80 55 00
        E 0 80 61 00
        E 60 90 60 60
        E 60 80 60 00
        E 60 90 3c 60
        E 0 90 48 60
        E 0 90 55 60
        E 0 90 61 60
        E 960 80 3c 00
        E 0 80 48 00
        E 0 80 55 00
        E 0 80 61 00
        <X 479 0
          /wFbaWRsZV9yZWFsdGltZV0=
        >
        E 2400 b0 7b 00
        GUID {3321218E-4C3D-4070-8061-59588FC5A669}
        IGNTEMPO 0 120.00000000 4 4
        SRCCOLOR 3
        VELLANE 132 128 60
        COLORMAP "C:\Program Files\REAPER (x64)\Data\color_maps\rockband_guitarbass.png"
        CFGEDITVIEW -5040.838897 11.817087 0 14 0 0 0
        CFGEDIT 1 1 0 1 1 0 1 1 1 1 1 0.25000000 -8 -8 1544 872 0 2 1 1 0.00000000 0 1 0 0 0.500000 0 0 1.000000 64
        KEYSNAP 0 6 "102030050700" 0 "Pentatonic"
        EVTFILTER 0 -1 -1 -1 -1 0 1 0 0 -1.00000000 -1.00000000
      >
    >
  >
  <TRACK '{B24BE2A2-AFE7-4074-989B-B2D7454893AE}'
    NAME "PART REAL_KEYS_X"
    PEAKCOL 16576
    BEAT -1
    AUTOMODE 0
    VOLPAN 1.00000000000000 0.00000000000000 -1.00000000000000 -1.00000000000000 1.00000000000000
    MUTESOLO 0 0 0
    IPHASE 0
    ISBUS 0 0
    BUSCOMP 0 0
    SHOWINMIX 1 0.666700 0.500000 1 0.500000 -1 -1 -1
    FREEMODE 0
    SEL 0
    REC 0 0 0 0 0 0 0
    VU 2
    TRACKHEIGHT 0 0
    INQ 0 0 0 0.5000000000 100 0 0 100
    NCHAN 2
    FX 0
    TRACKID {B24BE2A2-AFE7-4074-989B-B2D7454893AE}
    PERF 0
    MIDIOUT -1
    <MIDINOTENAMES
      0 127 "TRILL MARKER"
      0 126 "GLISSANDO MARKER"
      0 125 "---"
      0 116 "OVERDRIVE"
      0 115 "SOLO"
      0 114 "---"
      0 72 "Highest playable note B#3"
      0 71 "B3"
      0 70 "A#3"
      0 69 "A3"
      0 68 "G#3"
      0 67 "G3"
      0 66 "F#3"
      0 65 "F3"
      0 64 "E3"
      0 63 "D#3"
      0 62 "D3"
      0 61 "C#3"
      0 60 "C3"
      0 59 "B2"
      0 58 "A#2"
      0 57 "A2"
      0 56 "G#2"
      0 55 "G2"
      0 54 "F#2"
      0 53 "F2"
      0 52 "E2"
      0 51 "D#2"
      0 50 "D2"
      0 49 "C#2"
      0 48 "Lowest playable note C2"
      0 10 "---"
      0 9 "Range A2-C4"
      0 8 "Range"
      0 7 "Range"
      0 6 "Range"
      0 5 "Range F2-A3"
      0 4 "Range"
      0 3 "Range"
      0 2 "Range"
      0 1 "Range"
      0 0 "Range C2-E3"
    >
    MAINSEND 1 0
    <FXCHAIN
      WNDRECT 0 43 655 467
      SHOW 0
      LASTSEL 1
      DOCKED 0
      BYPASS 0 0
      <JS "MIDI/midi_note_filter" ""
        48.000000 72.000000 - - - - - - - - - - - - - - - - - - - - - - - - - - - - - - - - - - - - - - - - - - - - - - - - - - - - - - - - - - - - - - 
      >
      FLOATPOS 0 0 0 0
      FXID {CE677A92-27A8-430B-9EF3-4305731D9866}
      WAK 0
      BYPASS 0 0
      <VST "VSTi: ReaSynth (Cockos)" "reasynth.dll" 0 ""
        eXNlcu9e7f4AAAAAAgAAAAEAAAAAAAAAAgAAAAAAAAA4AAAAAAAAAA==
        AAAQAO++rd4N8K3eppvEO3terzwAAIA/AAAAAAAAAADMm4A+6WeIPQ==
        AAAAAAAAAD8AAIA/AACAPwAAAD8AABAAAAA=
      >
      FLOATPOS 0 0 0 0
      FXID {1E0CE8D9-A4E1-4923-9AF5-1F7A60C28141}
      WAK 0
    >
    <ITEM
      POSITION 0.00000000000000
      SNAPOFFS 0.00000000000000
      LENGTH 95.03100000000001
      LOOP 0
      ALLTAKES 0
      SEL 0
      FADEIN 1 0.000000 0.000000 1 0
      FADEOUT 1 0.000000 0.000000 1 0
      MUTE 0
      IGUID {0AE918CE-533E-47D9-B986-E028D87AD18C}
      IID 4
      NAME "PART REAL_KEYS_X"
      VOLPAN 1.000000 0.000000 1.000000 -1.000000
      SOFFS 0.00000000000000 0.00000000000000
      PLAYRATE 1.00000000000000 1 0.00000000000000 -1
      CHANMODE 0
      GUID {A2D606B2-6551-420F-8C21-B300D710E31C}
      <SOURCE MIDI
        HASDATA 1 480 QN
        POOLEDEVTS {BDC4D92A-450E-4FDE-BB26-6EDCDA692230}
        <X 0 0
          /wNQQVJUIFJFQUxfS0VZU19Y
        >
        E 0 90 00 60
        E 60 80 00 00
        <X 3780 0
          /wFbYmVnaW5fa2V5IHNvbmdfdHJhaW5lcl9rZXlfMV0=
        >
        E 0 90 36 60
        E 120 80 36 00
        E 120 90 36 60
        E 40 80 36 00
        E 40 90 36 60
        E 40 80 36 00
        E 40 90 36 60
        E 40 80 36 00
        E 40 90 36 60
        E 0 90 3d 60
        E 600 80 36 00
        E 0 80 3d 00
        E 120 90 36 60
        E 0 90 3b 60
        E 0 90 74 60
        E 60 80 36 00
        E 0 80 3b 00
        E 60 90 36 60
        E 0 90 3d 60
        E 60 80 36 00
        E 0 80 3d 00
        E 60 90 38 60
        E 0 90 3f 60
        E 60 80 38 00
        E 0 80 3f 00
        E 180 90 38 60
        E 0 90 3b 60
        E 60 80 38 00
        E 0 80 3b 00
        E 180 90 36 60
        E 0 90 3d 60
        E 60 80 36 00
        E 0 80 3d 00
        E 180 90 36 60
        E 0 90 3b 60
        E 60 80 36 00
        E 0 80 3b 00
        E 60 90 36 60
        E 0 90 3d 60
        E 60 80 36 00
        E 0 80 3d 00
        E 60 90 38 60
        E 0 90 3f 60
        E 60 80 38 00
        E 0 80 3f 00
        E 180 90 38 60
        E 0 90 3b 60
        E 60 80 38 00
        E 0 80 3b 00
        E 180 90 36 60
        E 0 90 3d 60
        E 480 80 74 00
        E 1320 80 36 00
        E 0 80 3d 00
        <X 120 0
          /wFbYmVnaW5fa2V5IHNvbmdfdHJhaW5lcl9rZXlfMl0=
        >
        <X 0 0
          /wFbZW5kX2tleSBzb25nX3RyYWluZXJfa2V5XzFd
        >
        E 0 90 36 60
        E 60 80 36 00
        E 180 90 3d 60
        E 60 80 3d 00
        E 180 90 3d 60
        E 60 80 3d 00
        E 180 90 3b 60
        E 60 80 3b 00
        E 180 90 3a 60
        E 60 80 3a 00
        E 180 90 38 60
        E 60 80 38 00
        E 60 90 3b 60
        E 60 80 3b 00
        E 60 90 3a 60
        E 60 80 3a 00
        E 180 90 36 60
        E 60 80 36 00
        <X 180 0
          /wFba2V5X25vcm0gc29uZ190cmFpbmVyX2tleV8yXQ==
        >
        E 0 90 38 60
        E 60 80 38 00
        E 180 90 36 60
        E 60 80 36 00
        E 180 90 3a 60
        E 60 80 3a 00
        E 180 90 38 60
        E 60 80 38 00
        E 180 90 36 60
        E 360 80 36 00
        E 120 90 31 60
        E 360 80 31 00
        E 120 90 36 60
        E 60 80 36 00
        E 180 90 3d 60
        E 60 80 3d 00
        E 180 90 3d 60
        E 60 80 3d 00
        E 180 90 3b 60
        E 60 80 3b 00
        E 180 90 3a 60
        E 60 80 3a 00
        E 180 90 38 60
        E 60 80 38 00
        E 60 90 3b 60
        E 60 80 3b 00
        E 60 90 3a 60
        E 60 80 3a 00
        E 180 90 36 60
        E 60 80 36 00
        E 180 90 38 60
        E 60 80 38 00
        E 180 90 36 60
        E 60 80 36 00
        E 180 90 3a 60
        E 60 80 3a 00
        E 180 90 38 60
        E 60 80 38 00
        E 180 90 36 60
        E 840 80 36 00
        <X 120 0
          /wFbZW5kX2tleSBzb25nX3RyYWluZXJfa2V5XzJd
        >
        <X 0 0
          /wFbYmVnaW5fa2V5IHNvbmdfdHJhaW5lcl9rZXlfM10=
        >
        E 0 90 39 60
        E 60 80 39 00
        E 180 90 40 60
        E 60 80 40 00
        E 180 90 40 60
        E 60 80 40 00
        E 180 90 3e 60
        E 60 80 3e 00
        E 180 90 3d 60
        E 60 80 3d 00
        E 180 90 3b 60
        E 60 80 3b 00
        E 60 90 3e 60
        E 60 80 3e 00
        E 60 90 3d 60
        E 60 80 3d 00
        E 180 90 39 60
        E 60 80 39 00
        <X 180 0
          /wFba2V5X25vcm0gc29uZ190cmFpbmVyX2tleV8zXQ==
        >
        E 0 90 3b 60
        E 60 80 3b 00
        E 180 90 39 60
        E 60 80 39 00
        E 180 90 3d 60
        E 60 80 3d 00
        E 180 90 3b 60
        E 60 80 3b 00
        E 180 90 39 60
        E 360 80 39 00
        E 120 90 34 60
        E 360 80 34 00
        E 120 90 39 60
        E 60 80 39 00
        E 180 90 40 60
        E 60 80 40 00
        E 180 90 40 60
        E 60 80 40 00
        E 180 90 3e 60
        E 60 80 3e 00
        E 180 90 3d 60
        E 60 80 3d 00
        E 180 90 3b 60
        E 60 80 3b 00
        E 60 90 3e 60
        E 60 80 3e 00
        E 60 90 3d 60
        E 60 80 3d 00
        E 180 90 39 60
        E 60 80 39 00
        E 180 90 3b 60
        E 0 90 74 60
        E 60 80 3b 00
        E 180 90 39 60
        E 60 80 39 00
        E 180 90 3d 60
        E 60 80 3d 00
        E 180 90 3b 60
        E 60 80 3b 00
        E 180 90 39 60
        E 840 80 39 00
        <X 120 0
          /wFbZW5kX2tleSBzb25nX3RyYWluZXJfa2V5XzNd
        >
        E 0 80 74 00
        E 0 90 36 60
        E 60 80 36 00
        E 180 90 3d 60
        E 60 80 3d 00
        E 180 90 3d 60
        E 60 80 3d 00
        E 180 90 3b 60
        E 60 80 3b 00
        E 180 90 3a 60
        E 60 80 3a 00
        E 180 90 38 60
        E 60 80 38 00
        E 60 90 3b 60
        E 60 80 3b 00
        E 60 90 3a 60
        E 60 80 3a 00
        E 180 90 36 60
        E 60 80 36 00
        E 180 90 38 60
        E 60 80 38 00
        E 180 90 36 60
        E 60 80 36 00
        E 180 90 3a 60
        E 60 80 3a 00
        E 180 90 38 60
        E 60 80 38 00
        E 180 90 36 60
        E 360 80 36 00
        E 120 90 31 60
        E 360 80 31 00
        E 120 90 36 60
        E 60 80 36 00
        E 180 90 3d 60
        E 60 80 3d 00
        E 180 90 3d 60
        E 60 80 3d 00
        E 180 90 3b 60
        E 60 80 3b 00
        E 180 90 3a 60
        E 60 80 3a 00
        E 180 90 38 60
        E 60 80 38 00
        E 60 90 3b 60
        E 60 80 3b 00
        E 60 90 3a 60
        E 60 80 3a 00
        E 180 90 36 60
        E 60 80 36 00
        E 180 90 05 60
        E 0 90 38 60
        E 60 80 05 00
        E 0 80 38 00
        E 180 90 36 60
        E 60 80 36 00
        E 180 90 3a 60
        E 60 80 3a 00
        E 180 90 38 60
        E 60 80 38 00
        E 180 90 36 60
        E 840 80 36 00
        <X 120 0
          /wFbYmVnaW5fa2V5IHNvbmdfdHJhaW5lcl9rZXlfNF0=
        >
        E 0 90 3f 60
        E 60 80 3f 00
        E 60 90 3d 60
        E 60 80 3d 00
        E 60 90 3f 60
        E 60 80 3f 00
        E 60 90 41 60
        E 60 80 41 00
        E 60 90 42 60
        E 60 80 42 00
        E 180 90 3d 60
        E 60 80 3d 00
        E 180 90 3f 60
        E 60 80 3f 00
        E 59 90 3d 60
        E 60 80 3d 00
        E 61 90 3f 60
        E 60 80 3f 00
        E 60 90 41 60
        E 60 80 41 00
        E 60 90 42 60
        E 360 80 42 00
        E 120 90 09 60
        E 0 90 3f 60
        E 60 80 09 00
        E 0 80 3f 00
        E 60 90 3d 60
        E 60 80 3d 00
        E 60 90 3f 60
        E 60 80 3f 00
        E 60 90 41 60
        E 60 80 41 00
        E 60 90 42 60
        E 60 80 42 00
        E 180 90 3d 60
        E 60 80 3d 00
        E 180 90 3f 60
        E 60 80 3f 00
        E 59 90 3d 60
        E 60 80 3d 00
        E 61 90 3f 60
        E 60 80 3f 00
        E 60 90 41 60
        E 60 80 41 00
        E 60 90 42 60
        E 60 80 42 00
        E 60 90 44 60
        E 60 80 44 00
        E 60 90 46 60
        E 60 80 46 00
        E 60 90 48 60
        E 60 80 48 00
        <X 60 0
          /wFbZW5kX2tleSBzb25nX3RyYWluZXJfa2V5XzRd
        >
        <X 0 0
          /wFbYmVnaW5fa2V5IHNvbmdfdHJhaW5lcl9rZXlfNV0=
        >
        E 0 90 3d 60
        E 0 90 74 60
        E 60 80 3d 00
        E 60 90 3c 60
        E 60 80 3c 00
        E 60 90 3d 60
        E 60 80 3d 00
        E 60 90 3f 60
        E 60 80 3f 00
        E 60 90 41 60
        E 60 80 41 00
        E 180 90 3c 60
        E 60 80 3c 00
        E 180 90 3d 60
        E 60 80 3d 00
        E 61 90 3c 60
        E 60 80 3c 00
        E 60 90 3d 60
        E 60 80 3d 00
        E 60 90 3f 60
        E 60 80 3f 00
        E 59 90 41 60
        E 60 80 41 00
        E 60 90 42 60
        E 60 80 42 00
        E 60 90 44 60
        E 60 80 44 00
        E 60 90 46 60
        E 60 80 46 00
        E 60 90 47 60
        E 60 80 74 00
        E 0 80 47 00
        E 60 90 46 60
        E 60 80 46 00
        E 60 90 47 60
        E 60 80 47 00
        E 60 90 46 60
        E 60 80 46 00
        E 60 90 05 60
        E 0 90 44 60
        E 60 80 05 00
        E 0 80 44 00
        E 60 90 42 60
        E 60 80 42 00
        E 60 90 41 60
        E 60 80 41 00
        E 60 90 42 60
        E 60 80 42 00
        E 60 90 44 60
        E 60 80 44 00
        E 60 90 42 60
        E 60 80 42 00
        E 60 90 44 60
        E 60 80 44 00
        E 60 90 42 60
        E 60 80 42 00
        E 60 90 41 60
        E 60 80 41 00
        E 60 90 3f 60
        E 60 80 3f 00
        E 60 90 3d 60
        E 60 80 3d 00
        E 60 90 3f 60
        E 60 80 3f 00
        E 60 90 41 60
        E 60 80 41 00
        E 60 90 3f 60
        E 60 80 3f 00
        E 60 90 3d 60
        E 60 80 3d 00
        E 60 90 3b 60
        E 60 80 3b 00
        E 60 90 3d 60
        E 60 80 3d 00
        E 60 90 3b 60
        E 60 80 3b 00
        E 60 90 3a 60
        E 60 80 3a 00
        E 60 90 3b 60
        E 60 80 3b 00
        E 60 90 3d 60
        E 60 80 3d 00
        E 60 90 3b 60
        E 60 80 3b 00
        E 60 90 3a 60
        E 60 80 3a 00
        E 60 90 38 60
        E 60 80 38 00
        E 60 90 3a 60
        E 60 80 3a 00
        E 60 90 38 60
        E 60 80 38 00
        E 60 90 36 60
        E 60 80 36 00
        E 60 90 35 60
        E 60 80 35 00
        <X 60 0
          /wFbZW5kX2tleSBzb25nX3RyYWluZXJfa2V5XzVd
        >
        E 0 90 00 60
        E 0 90 36 60
        E 60 80 00 00
        E 0 80 36 00
        E 180 90 3d 60
        E 60 80 3d 00
        E 180 90 3d 60
        E 60 80 3d 00
        E 180 90 3b 60
        E 60 80 3b 00
        E 180 90 3a 60
        E 60 80 3a 00
        E 180 90 38 60
        E 60 80 38 00
        E 60 90 3b 60
        E 60 80 3b 00
        E 60 90 3a 60
        E 60 80 3a 00
        E 180 90 36 60
        E 0 90 74 60
        E 60 80 36 00
        E 180 90 38 60
        E 60 80 38 00
        E 180 90 36 60
        E 60 80 36 00
        E 180 90 3a 60
        E 60 80 3a 00
        E 180 90 38 60
        E 60 80 38 00
        E 180 90 36 60
        E 360 80 36 00
        E 120 90 31 60
        E 360 80 31 00
        E 120 80 74 00
        E 0 90 36 60
        E 60 80 36 00
        E 180 90 3d 60
        E 60 80 3d 00
        E 180 90 3d 60
        E 60 80 3d 00
        E 180 90 3b 60
        E 60 80 3b 00
        E 180 90 3a 60
        E 60 80 3a 00
        E 180 90 38 60
        E 60 80 38 00
        E 60 90 3b 60
        E 60 80 3b 00
        E 60 90 3a 60
        E 60 80 3a 00
        E 180 90 36 60
        E 60 80 36 00
        E 180 90 38 60
        E 60 80 38 00
        E 180 90 36 60
        E 60 80 36 00
        E 180 90 3a 60
        E 60 80 3a 00
        E 180 90 38 60
        E 60 80 38 00
        E 180 90 36 60
        E 840 80 36 00
        E 120 90 39 60
        E 60 80 39 00
        E 180 90 40 60
        E 60 80 40 00
        E 180 90 40 60
        E 60 80 40 00
        E 180 90 3e 60
        E 60 80 3e 00
        E 180 90 3d 60
        E 60 80 3d 00
        E 180 90 3b 60
        E 60 80 3b 00
        E 60 90 3e 60
        E 60 80 3e 00
        E 60 90 3d 60
        E 60 80 3d 00
        E 180 90 39 60
        E 60 80 39 00
        E 180 90 3b 60
        E 60 80 3b 00
        E 180 90 39 60
        E 60 80 39 00
        E 180 90 3d 60
        E 60 80 3d 00
        E 180 90 3b 60
        E 60 80 3b 00
        E 180 90 39 60
        E 360 80 39 00
        E 120 90 34 60
        E 360 80 34 00
        E 120 90 39 60
        E 60 80 39 00
        E 180 90 40 60
        E 60 80 40 00
        E 180 90 40 60
        E 60 80 40 00
        E 180 90 3e 60
        E 60 80 3e 00
        E 180 90 3d 60
        E 60 80 3d 00
        E 180 90 3b 60
        E 60 80 3b 00
        E 60 90 3e 60
        E 60 80 3e 00
        E 60 90 3d 60
        E 60 80 3d 00
        E 180 90 39 60
        E 60 80 39 00
        E 180 90 3b 60
        E 60 80 3b 00
        E 180 90 39 60
        E 60 80 39 00
        E 180 90 3d 60
        E 60 80 3d 00
        E 180 90 3b 60
        E 60 80 3b 00
        E 180 90 39 60
        E 840 80 39 00
        E 120 90 36 60
        E 0 90 74 60
        E 60 80 36 00
        E 180 90 3d 60
        E 60 80 3d 00
        E 180 90 3d 60
        E 60 80 3d 00
        E 180 90 3b 60
        E 60 80 3b 00
        E 180 90 3a 60
        E 60 80 3a 00
        E 180 90 38 60
        E 60 80 38 00
        E 60 90 3b 60
        E 60 80 3b 00
        E 60 90 3a 60
        E 60 80 3a 00
        E 180 90 36 60
        E 60 80 36 00
        E 180 90 38 60
        E 60 80 38 00
        E 180 90 36 60
        E 60 80 36 00
        E 180 90 3a 60
        E 60 80 3a 00
        E 180 90 38 60
        E 60 80 38 00
        E 180 90 36 60
        E 360 80 36 00
        E 120 90 31 60
        E 360 80 31 00
        E 120 80 74 00
        E 0 90 36 60
        E 60 80 36 00
        E 180 90 3d 60
        E 60 80 3d 00
        E 180 90 3d 60
        E 60 80 3d 00
        E 180 90 3b 60
        E 60 80 3b 00
        E 180 90 3a 60
        E 60 80 3a 00
        E 180 90 38 60
        E 60 80 38 00
        E 60 90 3b 60
        E 60 80 3b 00
        E 60 90 3a 60
        E 60 80 3a 00
        E 180 90 36 60
        E 60 80 36 00
        E 180 90 05 60
        E 0 90 38 60
        E 60 80 05 00
        E 0 80 38 00
        E 180 90 36 60
        E 60 80 36 00
        E 180 90 3a 60
        E 60 80 3a 00
        E 180 90 38 60
        E 60 80 38 00
        E 180 90 36 60
        E 840 80 36 00
        E 120 90 3f 60
        E 60 80 3f 00
        E 60 90 3d 60
        E 60 80 3d 00
        E 60 90 3f 60
        E 60 80 3f 00
        E 60 90 41 60
        E 60 80 41 00
        E 60 90 42 60
        E 60 80 42 00
        E 180 90 3d 60
        E 60 80 3d 00
        E 180 90 3f 60
        E 60 80 3f 00
        E 60 90 3d 60
        E 60 80 3d 00
        E 60 90 3f 60
        E 60 80 3f 00
        E 60 90 41 60
        E 60 80 41 00
        E 60 90 42 60
        E 360 80 42 00
        E 120 90 09 60
        E 0 90 3f 60
        E 60 80 09 00
        E 0 80 3f 00
        E 60 90 3d 60
        E 60 80 3d 00
        E 60 90 3f 60
        E 60 80 3f 00
        E 60 90 41 60
        E 60 80 41 00
        E 60 90 42 60
        E 60 80 42 00
        E 180 90 3d 60
        E 60 80 3d 00
        E 180 90 3f 60
        E 60 80 3f 00
        E 60 90 3d 60
        E 60 80 3d 00
        E 60 90 3f 60
        E 60 80 3f 00
        E 60 90 41 60
        E 60 80 41 00
        E 60 90 42 60
        E 60 80 42 00
        E 60 90 44 60
        E 60 80 44 00
        E 60 90 46 60
        E 60 80 46 00
        E 60 90 48 60
        E 60 80 48 00
        E 60 90 3d 60
        E 60 80 3d 00
        E 60 90 3c 60
        E 60 80 3c 00
        E 60 90 3d 60
        E 60 80 3d 00
        E 60 90 3f 60
        E 60 80 3f 00
        E 60 90 41 60
        E 60 80 41 00
        E 180 90 3c 60
        E 60 80 3c 00
        E 180 90 3d 60
        E 60 80 3d 00
        E 60 90 3c 60
        E 60 80 3c 00
        E 60 90 3d 60
        E 60 80 3d 00
        E 60 90 3f 60
        E 60 80 3f 00
        E 60 90 41 60
        E 60 80 41 00
        E 60 90 42 60
        E 60 80 42 00
        E 60 90 44 60
        E 60 80 44 00
        E 60 90 46 60
        E 60 80 46 00
        E 60 90 47 60
        E 60 80 47 00
        E 60 90 46 60
        E 60 80 46 00
        E 60 90 47 60
        E 60 80 47 00
        E 60 90 46 60
        E 60 80 46 00
        E 60 90 05 60
        E 0 90 44 60
        E 60 80 05 00
        E 0 80 44 00
        E 60 90 42 60
        E 60 80 42 00
        E 60 90 41 60
        E 60 80 41 00
        E 60 90 42 60
        E 60 80 42 00
        E 60 90 44 60
        E 60 80 44 00
        E 60 90 42 60
        E 60 80 42 00
        E 60 90 44 60
        E 60 80 44 00
        E 60 90 42 60
        E 60 80 42 00
        E 60 90 41 60
        E 60 80 41 00
        E 60 90 3f 60
        E 60 80 3f 00
        E 60 90 3d 60
        E 60 80 3d 00
        E 60 90 3f 60
        E 60 80 3f 00
        E 60 90 41 60
        E 60 80 41 00
        E 60 90 3f 60
        E 60 80 3f 00
        E 60 90 3d 60
        E 60 80 3d 00
        E 60 90 3b 60
        E 60 80 3b 00
        E 60 90 3d 60
        E 60 80 3d 00
        E 60 90 3b 60
        E 60 80 3b 00
        E 60 90 3a 60
        E 60 80 3a 00
        E 60 90 3b 60
        E 60 80 3b 00
        E 60 90 3d 60
        E 60 80 3d 00
        E 60 90 3b 60
        E 60 80 3b 00
        E 60 90 3a 60
        E 60 80 3a 00
        E 60 90 38 60
        E 60 80 38 00
        E 60 90 3a 60
        E 60 80 3a 00
        E 60 90 38 60
        E 60 80 38 00
        E 60 90 36 60
        E 60 80 36 00
        E 60 90 35 60
        E 60 80 35 00
        E 60 90 36 60
        E 959 80 36 00
        E 2880 b0 7b 00
        GUID {6C33164C-EEAD-4AE7-9470-117E4279CA94}
        IGNTEMPO 0 120.00000000 4 4
        SRCCOLOR 4
        VELLANE 132 128 60
        COLORMAP "C:\Program Files\REAPER (x64)\Data\color_maps\rockband_guitarbass.png"
        CFGEDITVIEW -5040.838897 11.817087 0 13 0 0 0
        CFGEDIT 1 1 0 1 1 0 1 1 1 1 1 0.25000000 -8 -8 1544 872 0 2 1 1 0.00000000 0 1 0 0 0.500000 0 0 1.000000 64
        KEYSNAP 0 6 "102030050700" 0 "Pentatonic"
        EVTFILTER 0 -1 -1 -1 -1 0 1 0 0 -1.00000000 -1.00000000
      >
    >
  >
  <TRACK '{95A60E59-E0A1-4F37-AF27-802B3A23C8F4}'
    NAME "PART REAL_KEYS_H"
    PEAKCOL 16576
    BEAT -1
    AUTOMODE 0
    VOLPAN 1.00000000000000 0.00000000000000 -1.00000000000000 -1.00000000000000 1.00000000000000
    MUTESOLO 0 0 0
    IPHASE 0
    ISBUS 0 0
    BUSCOMP 0 0
    SHOWINMIX 1 0.666700 0.500000 1 0.500000 -1 -1 -1
    FREEMODE 0
    SEL 0
    REC 0 0 0 0 0 0 0
    VU 2
    TRACKHEIGHT 0 0
    INQ 0 0 0 0.5000000000 100 0 0 100
    NCHAN 2
    FX 1
    TRACKID {95A60E59-E0A1-4F37-AF27-802B3A23C8F4}
    PERF 0
    MIDIOUT -1
    <MIDINOTENAMES
      0 72 "Highest playable note B#3"
      0 71 "B3"
      0 70 "A#3"
      0 69 "A3"
      0 68 "G#3"
      0 67 "G3"
      0 66 "F#3"
      0 65 "F3"
      0 64 "E3"
      0 63 "D#3"
      0 62 "D3"
      0 61 "C#3"
      0 60 "C3"
      0 59 "B2"
      0 58 "A#2"
      0 57 "A2"
      0 56 "G#2"
      0 55 "G2"
      0 54 "F#2"
      0 53 "F2"
      0 52 "E2"
      0 51 "D#2"
      0 50 "D2"
      0 49 "C#2"
      0 48 "Lowest playable note C2"
      0 10 "---"
      0 9 "Range A2-C4"
      0 8 "Range"
      0 7 "Range"
      0 6 "Range"
      0 5 "Range F2-A3"
      0 4 "Range"
      0 3 "Range"
      0 2 "Range"
      0 1 "Range"
      0 0 "Range C2-E3"
    >
    MAINSEND 1 0
    <FXCHAIN
      SHOW 0
      LASTSEL 0
      DOCKED 0
    >
    <ITEM
      POSITION 0.00000000000000
      SNAPOFFS 0.00000000000000
      LENGTH 95.03100000000001
      LOOP 0
      ALLTAKES 0
      SEL 0
      FADEIN 1 0.000000 0.000000 1 0
      FADEOUT 1 0.000000 0.000000 1 0
      MUTE 0
      IGUID {95802865-A96E-4C68-A7A3-4273E0DBB935}
      IID 5
      NAME "PART REAL_KEYS_H"
      VOLPAN 1.000000 0.000000 1.000000 -1.000000
      SOFFS 0.00000000000000 0.00000000000000
      PLAYRATE 1.00000000000000 1 0.00000000000000 -1
      CHANMODE 0
      GUID {F6A36B6D-55D9-4D07-AA5D-9F65BAFC418A}
      <SOURCE MIDI
        HASDATA 1 480 QN
        POOLEDEVTS {591B501F-6BAC-4C5A-B5B2-F3C6BCDAD54C}
        <X 0 0
          /wNQQVJUIFJFQUxfS0VZU19I
        >
        E 0 90 00 60
        E 60 80 00 00
        E 3780 90 36 60
        E 120 80 36 00
        E 120 90 36 60
        E 40 80 36 00
        E 200 90 36 60
        E 0 90 3d 60
        E 600 80 36 00
        E 0 80 3d 00
        E 120 90 36 60
        E 0 90 3b 60
        E 60 80 36 00
        E 0 80 3b 00
        E 180 90 38 60
        E 0 90 3f 60
        E 60 80 38 00
        E 0 80 3f 00
        E 180 90 38 60
        E 0 90 3b 60
        E 60 80 38 00
        E 0 80 3b 00
        E 180 90 36 60
        E 0 90 3d 60
        E 60 80 36 00
        E 0 80 3d 00
        E 180 90 36 60
        E 0 90 3b 60
        E 60 80 36 00
        E 0 80 3b 00
        E 180 90 38 60
        E 0 90 3f 60
        E 60 80 38 00
        E 0 80 3f 00
        E 180 90 38 60
        E 0 90 3b 60
        E 60 80 38 00
        E 0 80 3b 00
        E 180 90 36 60
        E 0 90 3d 60
        E 1800 80 36 00
        E 0 80 3d 00
        E 120 90 36 60
        E 60 80 36 00
        E 180 90 3d 60
        E 60 80 3d 00
        E 180 90 3d 60
        E 60 80 3d 00
        E 180 90 3b 60
        E 60 80 3b 00
        E 180 90 3a 60
        E 60 80 3a 00
        E 180 90 38 60
        E 60 80 38 00
        E 180 90 3a 60
        E 60 80 3a 00
        E 180 90 36 60
        E 60 80 36 00
        E 180 90 38 60
        E 60 80 38 00
        E 180 90 36 60
        E 60 80 36 00
        E 180 90 3a 60
        E 60 80 3a 00
        E 180 90 38 60
        E 60 80 38 00
        E 180 90 36 60
        E 360 80 36 00
        E 120 90 31 60
        E 360 80 31 00
        E 120 90 36 60
        E 60 80 36 00
        E 180 90 3d 60
        E 60 80 3d 00
        E 180 90 3d 60
        E 60 80 3d 00
        E 180 90 3b 60
        E 60 80 3b 00
        E 180 90 3a 60
        E 60 80 3a 00
        E 180 90 38 60
        E 60 80 38 00
        E 180 90 3a 60
        E 60 80 3a 00
        E 180 90 36 60
        E 60 80 36 00
        E 180 90 38 60
        E 60 80 38 00
        E 180 90 36 60
        E 60 80 36 00
        E 180 90 3a 60
        E 60 80 3a 00
        E 180 90 38 60
        E 60 80 38 00
        E 180 90 36 60
        E 840 80 36 00
        E 120 90 39 60
        E 60 80 39 00
        E 180 90 40 60
        E 60 80 40 00
        E 180 90 40 60
        E 60 80 40 00
        E 180 90 3e 60
        E 60 80 3e 00
        E 180 90 3d 60
        E 60 80 3d 00
        E 180 90 3b 60
        E 60 80 3b 00
        E 180 90 3d 60
        E 60 80 3d 00
        E 180 90 39 60
        E 60 80 39 00
        E 180 90 3b 60
        E 60 80 3b 00
        E 180 90 39 60
        E 60 80 39 00
        E 180 90 3d 60
        E 60 80 3d 00
        E 180 90 3b 60
        E 60 80 3b 00
        E 180 90 39 60
        E 360 80 39 00
        E 120 90 34 60
        E 360 80 34 00
        E 120 90 39 60
        E 60 80 39 00
        E 180 90 40 60
        E 60 80 40 00
        E 180 90 40 60
        E 60 80 40 00
        E 180 90 3e 60
        E 60 80 3e 00
        E 180 90 3d 60
        E 60 80 3d 00
        E 180 90 3b 60
        E 60 80 3b 00
        E 180 90 3d 60
        E 60 80 3d 00
        E 180 90 39 60
        E 60 80 39 00
        E 180 90 3b 60
        E 60 80 3b 00
        E 180 90 39 60
        E 60 80 39 00
        E 180 90 3d 60
        E 60 80 3d 00
        E 180 90 3b 60
        E 60 80 3b 00
        E 180 90 39 60
        E 840 80 39 00
        E 120 90 36 60
        E 60 80 36 00
        E 180 90 3d 60
        E 60 80 3d 00
        E 180 90 3d 60
        E 60 80 3d 00
        E 180 90 3b 60
        E 60 80 3b 00
        E 180 90 3a 60
        E 60 80 3a 00
        E 180 90 38 60
        E 60 80 38 00
        E 180 90 3a 60
        E 60 80 3a 00
        E 180 90 36 60
        E 60 80 36 00
        E 180 90 38 60
        E 60 80 38 00
        E 180 90 36 60
        E 60 80 36 00
        E 180 90 3a 60
        E 60 80 3a 00
        E 180 90 38 60
        E 60 80 38 00
        E 180 90 36 60
        E 360 80 36 00
        E 120 90 31 60
        E 360 80 31 00
        E 120 90 36 60
        E 60 80 36 00
        E 180 90 3d 60
        E 60 80 3d 00
        E 180 90 3d 60
        E 60 80 3d 00
        E 180 90 3b 60
        E 60 80 3b 00
        E 180 90 3a 60
        E 60 80 3a 00
        E 180 90 38 60
        E 60 80 38 00
        E 180 90 3a 60
        E 60 80 3a 00
        E 180 90 36 60
        E 60 80 36 00
        E 180 90 05 60
        E 0 90 38 60
        E 60 80 05 00
        E 0 80 38 00
        E 180 90 36 60
        E 60 80 36 00
        E 180 90 3a 60
        E 60 80 3a 00
        E 180 90 38 60
        E 60 80 38 00
        E 180 90 36 60
        E 840 80 36 00
        E 120 90 3f 60
        E 60 80 3f 00
        E 180 90 3f 60
        E 60 80 3f 00
        E 180 90 42 60
        E 60 80 42 00
        E 180 90 3d 60
        E 60 80 3d 00
        E 180 90 3f 60
        E 60 80 3f 00
        E 180 90 3f 60
        E 60 80 3f 00
        E 180 90 42 60
        E 360 80 42 00
        E 120 90 09 60
        E 0 90 3f 60
        E 60 80 09 00
        E 0 80 3f 00
        E 180 90 3f 60
        E 60 80 3f 00
        E 180 90 42 60
        E 60 80 42 00
        E 180 90 3d 60
        E 60 80 3d 00
        E 180 90 3f 60
        E 60 80 3f 00
        E 180 90 3f 60
        E 60 80 3f 00
        E 180 90 42 60
        E 60 80 42 00
        E 180 90 46 60
        E 60 80 46 00
        E 180 90 3d 60
        E 60 80 3d 00
        E 180 90 3d 60
        E 60 80 3d 00
        E 60 90 3f 60
        E 60 80 3f 00
        E 60 90 41 60
        E 60 80 41 00
        E 180 90 3c 60
        E 60 80 3c 00
        E 180 90 3d 60
        E 60 80 3d 00
        E 181 90 3d 60
        E 60 80 3d 00
        E 60 90 3f 60
        E 60 80 3f 00
        E 59 90 41 60
        E 60 80 41 00
        E 180 90 44 60
        E 60 80 44 00
        E 180 90 47 60
        E 60 80 47 00
        E 60 90 46 60
        E 60 80 46 00
        E 60 90 47 60
        E 60 80 47 00
        E 60 90 46 60
        E 60 80 46 00
        E 60 90 05 60
        E 0 90 44 60
        E 60 80 05 00
        E 0 80 44 00
        E 180 90 41 60
        E 60 80 41 00
        E 180 90 44 60
        E 60 80 44 00
        E 60 90 42 60
        E 60 80 42 00
        E 60 90 44 60
        E 60 80 44 00
        E 60 90 42 60
        E 60 80 42 00
        E 60 90 41 60
        E 60 80 41 00
        E 180 90 3d 60
        E 60 80 3d 00
        E 180 90 41 60
        E 60 80 41 00
        E 180 90 3d 60
        E 60 80 3d 00
        E 180 90 3d 60
        E 60 80 3d 00
        E 180 90 3a 60
        E 60 80 3a 00
        E 180 90 3d 60
        E 60 80 3d 00
        E 180 90 3a 60
        E 60 80 3a 00
        E 180 90 3a 60
        E 60 80 3a 00
        E 180 90 36 60
        E 60 80 36 00
        E 180 90 00 60
        E 0 90 36 60
        E 60 80 00 00
        E 0 80 36 00
        E 180 90 3d 60
        E 60 80 3d 00
        E 180 90 3d 60
        E 60 80 3d 00
        E 180 90 3b 60
        E 60 80 3b 00
        E 180 90 3a 60
        E 60 80 3a 00
        E 180 90 38 60
        E 60 80 38 00
        E 180 90 3a 60
        E 60 80 3a 00
        E 180 90 36 60
        E 60 80 36 00
        E 180 90 38 60
        E 60 80 38 00
        E 180 90 36 60
        E 60 80 36 00
        E 180 90 3a 60
        E 60 80 3a 00
        E 180 90 38 60
        E 60 80 38 00
        E 180 90 36 60
        E 360 80 36 00
        E 120 90 31 60
        E 360 80 31 00
        E 120 90 36 60
        E 60 80 36 00
        E 180 90 3d 60
        E 60 80 3d 00
        E 180 90 3d 60
        E 60 80 3d 00
        E 180 90 3b 60
        E 60 80 3b 00
        E 180 90 3a 60
        E 60 80 3a 00
        E 180 90 38 60
        E 60 80 38 00
        E 180 90 3a 60
        E 60 80 3a 00
        E 180 90 36 60
        E 60 80 36 00
        E 180 90 38 60
        E 60 80 38 00
        E 180 90 36 60
        E 60 80 36 00
        E 180 90 3a 60
        E 60 80 3a 00
        E 180 90 38 60
        E 60 80 38 00
        E 180 90 36 60
        E 840 80 36 00
        E 120 90 39 60
        E 60 80 39 00
        E 180 90 40 60
        E 60 80 40 00
        E 180 90 40 60
        E 60 80 40 00
        E 180 90 3e 60
        E 60 80 3e 00
        E 180 90 3d 60
        E 60 80 3d 00
        E 180 90 3b 60
        E 60 80 3b 00
        E 180 90 3d 60
        E 60 80 3d 00
        E 180 90 39 60
        E 60 80 39 00
        E 180 90 3b 60
        E 60 80 3b 00
        E 180 90 39 60
        E 60 80 39 00
        E 180 90 3d 60
        E 60 80 3d 00
        E 180 90 3b 60
        E 60 80 3b 00
        E 180 90 39 60
        E 360 80 39 00
        E 120 90 34 60
        E 360 80 34 00
        E 120 90 39 60
        E 60 80 39 00
        E 180 90 40 60
        E 60 80 40 00
        E 180 90 40 60
        E 60 80 40 00
        E 180 90 3e 60
        E 60 80 3e 00
        E 180 90 3d 60
        E 60 80 3d 00
        E 180 90 3b 60
        E 60 80 3b 00
        E 180 90 3d 60
        E 60 80 3d 00
        E 180 90 39 60
        E 60 80 39 00
        E 180 90 3b 60
        E 60 80 3b 00
        E 180 90 39 60
        E 60 80 39 00
        E 180 90 3d 60
        E 60 80 3d 00
        E 180 90 3b 60
        E 60 80 3b 00
        E 180 90 39 60
        E 840 80 39 00
        E 120 90 36 60
        E 60 80 36 00
        E 180 90 3d 60
        E 60 80 3d 00
        E 180 90 3d 60
        E 60 80 3d 00
        E 180 90 3b 60
        E 60 80 3b 00
        E 180 90 3a 60
        E 60 80 3a 00
        E 180 90 38 60
        E 60 80 38 00
        E 180 90 3a 60
        E 60 80 3a 00
        E 180 90 36 60
        E 60 80 36 00
        E 180 90 38 60
        E 60 80 38 00
        E 180 90 36 60
        E 60 80 36 00
        E 180 90 3a 60
        E 60 80 3a 00
        E 180 90 38 60
        E 60 80 38 00
        E 180 90 36 60
        E 360 80 36 00
        E 120 90 31 60
        E 360 80 31 00
        E 120 90 36 60
        E 60 80 36 00
        E 180 90 3d 60
        E 60 80 3d 00
        E 180 90 3d 60
        E 60 80 3d 00
        E 180 90 3b 60
        E 60 80 3b 00
        E 180 90 3a 60
        E 60 80 3a 00
        E 180 90 38 60
        E 60 80 38 00
        E 180 90 3a 60
        E 60 80 3a 00
        E 180 90 36 60
        E 60 80 36 00
        E 180 90 05 60
        E 0 90 38 60
        E 60 80 05 00
        E 0 80 38 00
        E 180 90 36 60
        E 60 80 36 00
        E 180 90 3a 60
        E 60 80 3a 00
        E 180 90 38 60
        E 60 80 38 00
        E 180 90 36 60
        E 840 80 36 00
        E 120 90 3f 60
        E 60 80 3f 00
        E 180 90 3f 60
        E 60 80 3f 00
        E 180 90 42 60
        E 60 80 42 00
        E 180 90 3d 60
        E 60 80 3d 00
        E 180 90 3f 60
        E 60 80 3f 00
        E 180 90 3f 60
        E 60 80 3f 00
        E 180 90 42 60
        E 360 80 42 00
        E 120 90 09 60
        E 0 90 3f 60
        E 60 80 09 00
        E 0 80 3f 00
        E 180 90 3f 60
        E 60 80 3f 00
        E 180 90 42 60
        E 60 80 42 00
        E 180 90 3d 60
        E 60 80 3d 00
        E 180 90 3f 60
        E 60 80 3f 00
        E 180 90 3f 60
        E 60 80 3f 00
        E 180 90 42 60
        E 60 80 42 00
        E 180 90 46 60
        E 60 80 46 00
        E 180 90 3d 60
        E 60 80 3d 00
        E 180 90 3d 60
        E 60 80 3d 00
        E 60 90 3f 60
        E 60 80 3f 00
        E 60 90 41 60
        E 60 80 41 00
        E 180 90 3c 60
        E 60 80 3c 00
        E 180 90 3d 60
        E 60 80 3d 00
        E 180 90 3d 60
        E 60 80 3d 00
        E 60 90 3f 60
        E 60 80 3f 00
        E 60 90 41 60
        E 60 80 41 00
        E 180 90 44 60
        E 60 80 44 00
        E 180 90 47 60
        E 60 80 47 00
        E 60 90 46 60
        E 60 80 46 00
        E 60 90 47 60
        E 60 80 47 00
        E 60 90 46 60
        E 60 80 46 00
        E 60 90 05 60
        E 0 90 44 60
        E 60 80 05 00
        E 0 80 44 00
        E 180 90 41 60
        E 60 80 41 00
        E 180 90 44 60
        E 60 80 44 00
        E 60 90 42 60
        E 60 80 42 00
        E 60 90 44 60
        E 60 80 44 00
        E 60 90 42 60
        E 60 80 42 00
        E 60 90 41 60
        E 60 80 41 00
        E 180 90 3d 60
        E 60 80 3d 00
        E 180 90 41 60
        E 60 80 41 00
        E 180 90 3d 60
        E 60 80 3d 00
        E 180 90 3d 60
        E 60 80 3d 00
        E 180 90 3a 60
        E 60 80 3a 00
        E 180 90 3d 60
        E 60 80 3d 00
        E 180 90 3a 60
        E 60 80 3a 00
        E 180 90 3a 60
        E 60 80 3a 00
        E 180 90 36 60
        E 60 80 36 00
        E 4019 b0 7b 00
        GUID {999F3FCA-ABE5-430C-A975-A144DF6A2F61}
        IGNTEMPO 0 120.00000000 4 4
        SRCCOLOR 5
        VELLANE 132 128 60
        COLORMAP "C:\Program Files\REAPER (x64)\Data\color_maps\rockband_guitarbass.png"
        CFGEDITVIEW -5040.838897 11.817087 1 15 0 0 0
        CFGEDIT 1 1 0 1 1 0 1 1 1 1 1 0.25000000 -8 -8 1544 872 0 2 1 1 0.00000000 0 1 0 0 0.500000 0 0 1.000000 64
        KEYSNAP 0 6 "102030050700" 0 "Pentatonic"
        EVTFILTER 0 -1 -1 -1 -1 0 1 0 0 -1.00000000 -1.00000000
      >
    >
  >
  <TRACK '{D80047A4-8D99-4C76-ACA4-EC644916C23D}'
    NAME "PART REAL_KEYS_M"
    PEAKCOL 16576
    BEAT -1
    AUTOMODE 0
    VOLPAN 1.00000000000000 0.00000000000000 -1.00000000000000 -1.00000000000000 1.00000000000000
    MUTESOLO 0 0 0
    IPHASE 0
    ISBUS 0 0
    BUSCOMP 0 0
    SHOWINMIX 1 0.666700 0.500000 1 0.500000 -1 -1 -1
    FREEMODE 0
    SEL 0
    REC 0 0 0 0 0 0 0
    VU 2
    TRACKHEIGHT 0 0
    INQ 0 0 0 0.5000000000 100 0 0 100
    NCHAN 2
    FX 1
    TRACKID {D80047A4-8D99-4C76-ACA4-EC644916C23D}
    PERF 0
    MIDIOUT -1
    <MIDINOTENAMES
      0 72 "Highest playable note B#3"
      0 71 "B3"
      0 70 "A#3"
      0 69 "A3"
      0 68 "G#3"
      0 67 "G3"
      0 66 "F#3"
      0 65 "F3"
      0 64 "E3"
      0 63 "D#3"
      0 62 "D3"
      0 61 "C#3"
      0 60 "C3"
      0 59 "B2"
      0 58 "A#2"
      0 57 "A2"
      0 56 "G#2"
      0 55 "G2"
      0 54 "F#2"
      0 53 "F2"
      0 52 "E2"
      0 51 "D#2"
      0 50 "D2"
      0 49 "C#2"
      0 48 "Lowest playable note C2"
      0 10 "---"
      0 9 "Range A2-C4"
      0 8 "Range"
      0 7 "Range"
      0 6 "Range"
      0 5 "Range F2-A3"
      0 4 "Range"
      0 3 "Range"
      0 2 "Range"
      0 1 "Range"
      0 0 "Range C2-E3"
    >
    MAINSEND 1 0
    <FXCHAIN
      SHOW 0
      LASTSEL 0
      DOCKED 0
    >
    <ITEM
      POSITION 0.00000000000000
      SNAPOFFS 0.00000000000000
      LENGTH 95.03100000000001
      LOOP 0
      ALLTAKES 0
      SEL 0
      FADEIN 1 0.000000 0.000000 1 0
      FADEOUT 1 0.000000 0.000000 1 0
      MUTE 0
      IGUID {28B7666F-021B-4CA2-AF74-1E9DA551E680}
      IID 6
      NAME "PART REAL_KEYS_M"
      VOLPAN 1.000000 0.000000 1.000000 -1.000000
      SOFFS 0.00000000000000 0.00000000000000
      PLAYRATE 1.00000000000000 1 0.00000000000000 -1
      CHANMODE 0
      GUID {FF0A93A1-B16D-4B11-96DE-EA055FDF91A7}
      <SOURCE MIDI
        HASDATA 1 480 QN
        POOLEDEVTS {E0D03C54-16A5-42BB-AAE0-6F1FAB71F13F}
        <X 0 0
          /wNQQVJUIFJFQUxfS0VZU19N
        >
        E 0 90 00 60
        E 60 80 00 00
        E 3780 90 36 60
        E 60 80 36 00
        E 420 90 36 60
        E 480 80 36 00
        E 480 90 38 60
        E 60 80 38 00
        E 420 90 36 60
        E 60 80 36 00
        E 420 90 38 60
        E 60 80 38 00
        E 420 90 36 60
        E 1440 80 36 00
        E 480 90 36 60
        E 60 80 36 00
        E 420 90 3d 60
        E 60 80 3d 00
        E 420 90 3a 60
        E 60 80 3a 00
        E 420 90 3a 60
        E 60 80 3a 00
        E 420 90 38 60
        E 60 80 38 00
        E 420 90 3a 60
        E 60 80 3a 00
        E 420 90 36 60
        E 120 80 36 00
        E 360 90 31 60
        E 120 80 31 00
        E 360 90 36 60
        E 60 80 36 00
        E 420 90 3d 60
        E 60 80 3d 00
        E 900 90 3a 60
        E 60 80 3a 00
        E 420 90 38 60
        E 60 80 38 00
        E 1860 90 39 60
        E 60 80 39 00
        E 420 90 40 60
        E 60 80 40 00
        E 900 90 3d 60
        E 60 80 3d 00
        E 420 90 3b 60
        E 60 80 3b 00
        E 1380 90 34 60
        E 120 80 34 00
        E 360 90 39 60
        E 60 80 39 00
        E 420 90 40 60
        E 60 80 40 00
        E 900 90 3d 60
        E 60 80 3d 00
        E 420 90 3b 60
        E 60 80 3b 00
        E 1860 90 36 60
        E 60 80 36 00
        E 420 90 3d 60
        E 60 80 3d 00
        E 420 90 3a 60
        E 60 80 3a 00
        E 420 90 3a 60
        E 60 80 3a 00
        E 420 90 38 60
        E 60 80 38 00
        E 420 90 3a 60
        E 60 80 3a 00
        E 420 90 36 60
        E 120 80 36 00
        E 360 90 31 60
        E 120 80 31 00
        E 360 90 36 60
        E 60 80 36 00
        E 420 90 3d 60
        E 60 80 3d 00
        E 420 90 3a 60
        E 60 80 3a 00
        E 420 90 3a 60
        E 60 80 3a 00
        E 420 90 38 60
        E 60 80 38 00
        E 420 90 3a 60
        E 60 80 3a 00
        E 420 90 36 60
        E 480 80 36 00
        E 480 90 33 60
        E 60 80 33 00
        E 420 90 36 60
        E 60 80 36 00
        E 420 90 33 60
        E 60 80 33 00
        E 420 90 36 60
        E 120 80 36 00
        E 360 90 33 60
        E 60 80 33 00
        E 420 90 36 60
        E 60 80 36 00
        E 420 90 33 60
        E 60 80 33 00
        E 420 90 36 60
        E 60 80 36 00
        E 420 90 31 60
        E 60 80 31 00
        E 420 90 35 60
        E 60 80 35 00
        E 420 90 31 60
        E 60 80 31 00
        E 420 90 35 60
        E 60 80 35 00
        E 420 90 3b 60
        E 60 80 3b 00
        E 420 90 38 60
        E 60 80 38 00
        E 420 90 38 60
        E 60 80 38 00
        E 420 90 35 60
        E 60 80 35 00
        E 420 90 35 60
        E 60 80 35 00
        E 420 90 3d 60
        E 60 80 3d 00
        E 420 90 3d 60
        E 60 80 3d 00
        E 420 90 3a 60
        E 60 80 3a 00
        E 420 90 36 60
        E 60 80 36 00
        E 420 90 3d 60
        E 60 80 3d 00
        E 420 90 3a 60
        E 60 80 3a 00
        E 420 90 3a 60
        E 60 80 3a 00
        E 420 90 38 60
        E 60 80 38 00
        E 420 90 3a 60
        E 60 80 3a 00
        E 420 90 36 60
        E 120 80 36 00
        E 360 90 31 60
        E 120 80 31 00
        E 360 90 36 60
        E 60 80 36 00
        E 420 90 3d 60
        E 60 80 3d 00
        E 420 90 3a 60
        E 60 80 3a 00
        E 420 90 3a 60
        E 60 80 3a 00
        E 420 90 38 60
        E 60 80 38 00
        E 420 90 3a 60
        E 60 80 3a 00
        E 420 90 36 60
        E 480 80 36 00
        E 480 90 39 60
        E 60 80 39 00
        E 420 90 40 60
        E 60 80 40 00
        E 420 90 3d 60
        E 60 80 3d 00
        E 420 90 3d 60
        E 60 80 3d 00
        E 420 90 3b 60
        E 60 80 3b 00
        E 420 90 3d 60
        E 60 80 3d 00
        E 420 90 39 60
        E 120 80 39 00
        E 360 90 34 60
        E 120 80 34 00
        E 360 90 39 60
        E 60 80 39 00
        E 420 90 40 60
        E 60 80 40 00
        E 420 90 3d 60
        E 60 80 3d 00
        E 420 90 3d 60
        E 60 80 3d 00
        E 420 90 3b 60
        E 60 80 3b 00
        E 420 90 3d 60
        E 60 80 3d 00
        E 420 90 39 60
        E 480 80 39 00
        E 480 90 36 60
        E 60 80 36 00
        E 420 90 3d 60
        E 60 80 3d 00
        E 420 90 3a 60
        E 60 80 3a 00
        E 420 90 3a 60
        E 60 80 3a 00
        E 420 90 38 60
        E 60 80 38 00
        E 420 90 3a 60
        E 60 80 3a 00
        E 420 90 36 60
        E 120 80 36 00
        E 360 90 31 60
        E 120 80 31 00
        E 360 90 36 60
        E 60 80 36 00
        E 420 90 3d 60
        E 60 80 3d 00
        E 420 90 3a 60
        E 60 80 3a 00
        E 420 90 3a 60
        E 60 80 3a 00
        E 420 90 38 60
        E 60 80 38 00
        E 420 90 3a 60
        E 60 80 3a 00
        E 420 90 36 60
        E 480 80 36 00
        E 480 90 33 60
        E 60 80 33 00
        E 420 90 36 60
        E 60 80 36 00
        E 420 90 33 60
        E 60 80 33 00
        E 420 90 36 60
        E 120 80 36 00
        E 360 90 33 60
        E 60 80 33 00
        E 420 90 36 60
        E 60 80 36 00
        E 420 90 33 60
        E 60 80 33 00
        E 420 90 36 60
        E 60 80 36 00
        E 420 90 31 60
        E 60 80 31 00
        E 420 90 35 60
        E 60 80 35 00
        E 420 90 31 60
        E 60 80 31 00
        E 420 90 35 60
        E 60 80 35 00
        E 420 90 3b 60
        E 60 80 3b 00
        E 420 90 38 60
        E 60 80 38 00
        E 420 90 38 60
        E 60 80 38 00
        E 420 90 35 60
        E 60 80 35 00
        E 420 90 35 60
        E 60 80 35 00
        E 420 90 3d 60
        E 60 80 3d 00
        E 420 90 3d 60
        E 60 80 3d 00
        E 420 90 3a 60
        E 60 80 3a 00
        E 420 90 36 60
        E 959 80 36 00
        E 2880 b0 7b 00
        GUID {B18DE91A-444B-4509-A424-67AD9F68BA5A}
        IGNTEMPO 0 120.00000000 4 4
        SRCCOLOR 6
        VELLANE 132 128 60
        COLORMAP "C:\Program Files\REAPER (x64)\Data\color_maps\rockband_guitarbass.png"
        CFGEDITVIEW -5040.838897 11.817087 8 15 0 0 0
        CFGEDIT 1 1 0 1 1 0 1 1 1 1 1 0.25000000 -8 -8 1544 872 0 2 1 1 0.00000000 0 1 0 0 0.500000 0 0 1.000000 64
        KEYSNAP 0 6 "102030050700" 0 "Pentatonic"
        EVTFILTER 0 -1 -1 -1 -1 0 1 0 0 -1.00000000 -1.00000000
      >
    >
  >
  <TRACK '{6F399BCF-EF53-43A5-A22F-F85B94374AFA}'
    NAME "PART REAL_KEYS_E"
    PEAKCOL 16576
    BEAT -1
    AUTOMODE 0
    VOLPAN 1.00000000000000 0.00000000000000 -1.00000000000000 -1.00000000000000 1.00000000000000
    MUTESOLO 0 0 0
    IPHASE 0
    ISBUS 0 0
    BUSCOMP 0 0
    SHOWINMIX 1 0.666700 0.500000 1 0.500000 -1 -1 -1
    FREEMODE 0
    SEL 0
    REC 0 0 0 0 0 0 0
    VU 2
    TRACKHEIGHT 0 0
    INQ 0 0 0 0.5000000000 100 0 0 100
    NCHAN 2
    FX 1
    TRACKID {6F399BCF-EF53-43A5-A22F-F85B94374AFA}
    PERF 0
    MIDIOUT -1
    <MIDINOTENAMES
      0 72 "Highest playable note B#3"
      0 71 "B3"
      0 70 "A#3"
      0 69 "A3"
      0 68 "G#3"
      0 67 "G3"
      0 66 "F#3"
      0 65 "F3"
      0 64 "E3"
      0 63 "D#3"
      0 62 "D3"
      0 61 "C#3"
      0 60 "C3"
      0 59 "B2"
      0 58 "A#2"
      0 57 "A2"
      0 56 "G#2"
      0 55 "G2"
      0 54 "F#2"
      0 53 "F2"
      0 52 "E2"
      0 51 "D#2"
      0 50 "D2"
      0 49 "C#2"
      0 48 "Lowest playable note C2"
      0 10 "---"
      0 9 "Range A2-C4"
      0 8 "Range"
      0 7 "Range"
      0 6 "Range"
      0 5 "Range F2-A3"
      0 4 "Range"
      0 3 "Range"
      0 2 "Range"
      0 1 "Range"
      0 0 "Range C2-E3"
    >
    MAINSEND 1 0
    <FXCHAIN
      SHOW 0
      LASTSEL 0
      DOCKED 0
    >
    <ITEM
      POSITION 0.00000000000000
      SNAPOFFS 0.00000000000000
      LENGTH 95.03100000000001
      LOOP 0
      ALLTAKES 0
      SEL 0
      FADEIN 1 0.000000 0.000000 1 0
      FADEOUT 1 0.000000 0.000000 1 0
      MUTE 0
      IGUID {954F5232-89DD-400F-8C57-4A55D58B554B}
      IID 7
      NAME "PART REAL_KEYS_E"
      VOLPAN 1.000000 0.000000 1.000000 -1.000000
      SOFFS 0.00000000000000 0.00000000000000
      PLAYRATE 1.00000000000000 1 0.00000000000000 -1
      CHANMODE 0
      GUID {40230E7E-57CE-4646-9255-AB561ABDE7F4}
      <SOURCE MIDI
        HASDATA 1 480 QN
        POOLEDEVTS {7BAAAFD2-0253-4FD4-A607-7C48030FB5A0}
        <X 0 0
          /wNQQVJUIFJFQUxfS0VZU19F
        >
        E 0 90 00 60
        E 60 80 00 00
        E 3780 90 36 60
        E 60 80 36 00
        E 1860 90 36 60
        E 60 80 36 00
        E 900 90 36 60
        E 1440 80 36 00
        E 480 90 36 60
        E 60 80 36 00
        E 900 90 3a 60
        E 60 80 3a 00
        E 420 90 3a 60
        E 60 80 3a 00
        E 420 90 38 60
        E 60 80 38 00
        E 900 90 36 60
        E 60 80 36 00
        E 900 90 36 60
        E 60 80 36 00
        E 1380 90 3a 60
        E 60 80 3a 00
        E 420 90 38 60
        E 60 80 38 00
        E 1860 90 39 60
        E 60 80 39 00
        E 1380 90 3d 60
        E 60 80 3d 00
        E 420 90 3b 60
        E 60 80 3b 00
        E 1860 90 39 60
        E 60 80 39 00
        E 1380 90 3d 60
        E 60 80 3d 00
        E 420 90 3b 60
        E 60 80 3b 00
        E 1860 90 36 60
        E 60 80 36 00
        E 900 90 3a 60
        E 60 80 3a 00
        E 420 90 3a 60
        E 60 80 3a 00
        E 420 90 38 60
        E 60 80 38 00
        E 900 90 36 60
        E 60 80 36 00
        E 900 90 36 60
        E 60 80 36 00
        E 900 90 3a 60
        E 60 80 3a 00
        E 420 90 3a 60
        E 60 80 3a 00
        E 420 90 38 60
        E 60 80 38 00
        E 900 90 36 60
        E 60 80 36 00
        E 900 90 33 60
        E 60 80 33 00
        E 900 90 33 60
        E 60 80 33 00
        E 900 90 33 60
        E 60 80 33 00
        E 900 90 33 60
        E 60 80 33 00
        E 900 90 31 60
        E 60 80 31 00
        E 900 90 31 60
        E 60 80 31 00
        E 900 90 3b 60
        E 60 80 3b 00
        E 900 90 38 60
        E 60 80 38 00
        E 900 90 35 60
        E 60 80 35 00
        E 420 90 31 60
        E 60 80 31 00
        E 420 90 31 60
        E 60 80 31 00
        E 900 90 36 60
        E 60 80 36 00
        E 900 90 3a 60
        E 60 80 3a 00
        E 420 90 3a 60
        E 60 80 3a 00
        E 420 90 38 60
        E 60 80 38 00
        E 900 90 36 60
        E 60 80 36 00
        E 900 90 36 60
        E 60 80 36 00
        E 900 90 3a 60
        E 60 80 3a 00
        E 420 90 3a 60
        E 60 80 3a 00
        E 420 90 38 60
        E 60 80 38 00
        E 900 90 36 60
        E 60 80 36 00
        E 900 90 39 60
        E 60 80 39 00
        E 900 90 3d 60
        E 60 80 3d 00
        E 420 90 3d 60
        E 60 80 3d 00
        E 420 90 3b 60
        E 60 80 3b 00
        E 900 90 39 60
        E 60 80 39 00
        E 900 90 39 60
        E 60 80 39 00
        E 900 90 3d 60
        E 60 80 3d 00
        E 420 90 3d 60
        E 60 80 3d 00
        E 420 90 3b 60
        E 60 80 3b 00
        E 900 90 39 60
        E 60 80 39 00
        E 900 90 36 60
        E 60 80 36 00
        E 900 90 3a 60
        E 60 80 3a 00
        E 420 90 3a 60
        E 60 80 3a 00
        E 420 90 38 60
        E 60 80 38 00
        E 900 90 36 60
        E 60 80 36 00
        E 900 90 36 60
        E 60 80 36 00
        E 900 90 3a 60
        E 60 80 3a 00
        E 420 90 3a 60
        E 60 80 3a 00
        E 420 90 38 60
        E 60 80 38 00
        E 900 90 36 60
        E 60 80 36 00
        E 900 90 33 60
        E 60 80 33 00
        E 900 90 33 60
        E 60 80 33 00
        E 900 90 33 60
        E 60 80 33 00
        E 900 90 33 60
        E 60 80 33 00
        E 900 90 31 60
        E 60 80 31 00
        E 900 90 31 60
        E 60 80 31 00
        E 900 90 3b 60
        E 60 80 3b 00
        E 900 90 38 60
        E 60 80 38 00
        E 900 90 35 60
        E 60 80 35 00
        E 420 90 31 60
        E 60 80 31 00
        E 420 90 31 60
        E 60 80 31 00
        E 900 90 36 60
        E 959 80 36 00
        E 2880 b0 7b 00
        GUID {50F40973-B64E-4B9A-9594-988800FBD8DE}
        IGNTEMPO 0 120.00000000 4 4
        SRCCOLOR 7
        VELLANE 132 128 60
        COLORMAP "C:\Program Files\REAPER (x64)\Data\color_maps\rockband_guitarbass.png"
        CFGEDITVIEW -5040.838897 11.817087 11 15 0 0 0
        CFGEDIT 1 1 0 1 1 0 1 1 1 1 1 0.25000000 -8 -8 1544 872 0 2 1 1 0.00000000 0 1 0 0 0.500000 0 0 1.000000 64
        KEYSNAP 0 6 "102030050700" 0 "Pentatonic"
        EVTFILTER 0 -1 -1 -1 -1 0 1 0 0 -1.00000000 -1.00000000
      >
    >
  >
  <TRACK '{9F8990C9-2117-4A0F-90E5-317380B39FD2}'
    NAME "PART KEYS_ANIM_RH"
    PEAKCOL 16576
    BEAT -1
    AUTOMODE 0
    VOLPAN 1.00000000000000 0.00000000000000 -1.00000000000000 -1.00000000000000 1.00000000000000
    MUTESOLO 0 0 0
    IPHASE 0
    ISBUS 0 0
    BUSCOMP 0 0
    SHOWINMIX 1 0.666700 0.500000 1 0.500000 -1 -1 -1
    FREEMODE 0
    SEL 0
    REC 0 0 0 0 0 0 0
    VU 2
    TRACKHEIGHT 0 0
    INQ 0 0 0 0.5000000000 100 0 0 100
    NCHAN 2
    FX 1
    TRACKID {9F8990C9-2117-4A0F-90E5-317380B39FD2}
    PERF 0
    MIDIOUT -1
    <MIDINOTENAMES
      0 72 "Highest playable note B#3"
      0 71 "B3"
      0 70 "A#3"
      0 69 "A3"
      0 68 "G#3"
      0 67 "G3"
      0 66 "F#3"
      0 65 "F3"
      0 64 "E3"
      0 63 "D#3"
      0 62 "D3"
      0 61 "C#3"
      0 60 "C3"
      0 59 "B2"
      0 58 "A#2"
      0 57 "A2"
      0 56 "G#2"
      0 55 "G2"
      0 54 "F#2"
      0 53 "F2"
      0 52 "E2"
      0 51 "D#2"
      0 50 "D2"
      0 49 "C#2"
      0 48 "Lowest playable note C2"
    >
    MAINSEND 1 0
    <FXCHAIN
      SHOW 0
      LASTSEL 0
      DOCKED 0
    >
    <ITEM
      POSITION 0.00000000000000
      SNAPOFFS 0.00000000000000
      LENGTH 95.03100000000001
      LOOP 0
      ALLTAKES 0
      SEL 0
      FADEIN 1 0.000000 0.000000 1 0
      FADEOUT 1 0.000000 0.000000 1 0
      MUTE 0
      IGUID {1B4E8B4E-8CA1-4075-ACDE-C444B532FC3F}
      IID 8
      NAME "PART KEYS_ANIM_RH"
      VOLPAN 1.000000 0.000000 1.000000 -1.000000
      SOFFS 0.00000000000000 0.00000000000000
      PLAYRATE 1.00000000000000 1 0.00000000000000 -1
      CHANMODE 0
      GUID {E5655770-F8B1-4DDB-8640-527D5BC0F950}
      <SOURCE MIDI
        HASDATA 1 480 QN
        POOLEDEVTS {D235E8CB-DEA9-4AEC-9B95-78741AA446CC}
        <X 0 0
          /wNQQVJUIEtFWVNfQU5JTV9SSA==
        >
        E 3840 90 36 60
        E 60 80 36 00
        E 180 90 36 60
        E 40 80 36 00
        E 40 90 36 60
        E 40 80 36 00
        E 40 90 36 60
        E 40 80 36 00
        E 40 90 36 60
        E 0 90 3d 60
        E 600 80 36 00
        E 0 80 3d 00
        E 120 90 36 60
        E 0 90 3b 60
        E 60 80 36 00
        E 0 80 3b 00
        E 60 90 36 60
        E 0 90 3d 60
        E 60 80 36 00
        E 0 80 3d 00
        E 60 90 38 60
        E 0 90 3f 60
        E 60 80 38 00
        E 0 80 3f 00
        E 180 90 38 60
        E 0 90 3b 60
        E 60 80 38 00
        E 0 80 3b 00
        E 180 90 36 60
        E 0 90 3d 60
        E 60 80 36 00
        E 0 80 3d 00
        E 180 90 36 60
        E 0 90 3b 60
        E 60 80 36 00
        E 0 80 3b 00
        E 60 90 36 60
        E 0 90 3d 60
        E 60 80 36 00
        E 0 80 3d 00
        E 60 90 38 60
        E 0 90 3f 60
        E 60 80 38 00
        E 0 80 3f 00
        E 179 90 38 60
        E 0 90 3b 60
        E 60 80 38 00
        E 0 80 3b 00
        E 181 90 36 60
        E 0 90 3d 60
        E 1800 80 36 00
        E 0 80 3d 00
        E 120 90 36 60
        E 60 80 36 00
        E 180 90 3d 60
        E 60 80 3d 00
        E 180 90 3d 60
        E 60 80 3d 00
        E 180 90 3b 60
        E 60 80 3b 00
        E 180 90 3a 60
        E 60 80 3a 00
        E 180 90 38 60
        E 60 80 38 00
        E 60 90 3b 60
        E 60 80 3b 00
        E 60 90 3a 60
        E 60 80 3a 00
        E 180 90 36 60
        E 60 80 36 00
        E 180 90 38 60
        E 60 80 38 00
        E 180 90 36 60
        E 60 80 36 00
        E 180 90 3a 60
        E 60 80 3a 00
        E 180 90 38 60
        E 60 80 38 00
        E 180 90 36 60
        E 360 80 36 00
        E 120 90 31 60
        E 360 80 31 00
        E 120 90 36 60
        E 60 80 36 00
        E 180 90 3d 60
        E 60 80 3d 00
        E 180 90 3d 60
        E 60 80 3d 00
        E 180 90 3b 60
        E 60 80 3b 00
        E 180 90 3a 60
        E 60 80 3a 00
        E 180 90 38 60
        E 60 80 38 00
        E 60 90 3b 60
        E 60 80 3b 00
        E 60 90 3a 60
        E 60 80 3a 00
        E 180 90 36 60
        E 60 80 36 00
        E 180 90 38 60
        E 60 80 38 00
        E 180 90 36 60
        E 60 80 36 00
        E 180 90 3a 60
        E 60 80 3a 00
        E 180 90 38 60
        E 60 80 38 00
        E 180 90 36 60
        E 840 80 36 00
        E 120 90 39 60
        E 60 80 39 00
        E 180 90 40 60
        E 60 80 40 00
        E 180 90 40 60
        E 60 80 40 00
        E 180 90 3e 60
        E 60 80 3e 00
        E 180 90 3d 60
        E 60 80 3d 00
        E 180 90 3b 60
        E 60 80 3b 00
        E 60 90 3e 60
        E 60 80 3e 00
        E 60 90 3d 60
        E 60 80 3d 00
        E 180 90 39 60
        E 60 80 39 00
        E 180 90 3b 60
        E 60 80 3b 00
        E 180 90 39 60
        E 60 80 39 00
        E 180 90 3d 60
        E 60 80 3d 00
        E 180 90 3b 60
        E 60 80 3b 00
        E 180 90 39 60
        E 360 80 39 00
        E 120 90 34 60
        E 360 80 34 00
        E 120 90 39 60
        E 60 80 39 00
        E 180 90 40 60
        E 60 80 40 00
        E 180 90 40 60
        E 60 80 40 00
        E 180 90 3e 60
        E 60 80 3e 00
        E 180 90 3d 60
        E 60 80 3d 00
        E 180 90 3b 60
        E 60 80 3b 00
        E 60 90 3e 60
        E 60 80 3e 00
        E 60 90 3d 60
        E 60 80 3d 00
        E 180 90 39 60
        E 60 80 39 00
        E 180 90 3b 60
        E 60 80 3b 00
        E 180 90 39 60
        E 60 80 39 00
        E 180 90 3d 60
        E 60 80 3d 00
        E 180 90 3b 60
        E 60 80 3b 00
        E 180 90 39 60
        E 840 80 39 00
        E 120 90 36 60
        E 60 80 36 00
        E 180 90 3d 60
        E 60 80 3d 00
        E 180 90 3d 60
        E 60 80 3d 00
        E 180 90 3b 60
        E 60 80 3b 00
        E 180 90 3a 60
        E 60 80 3a 00
        E 180 90 38 60
        E 60 80 38 00
        E 60 90 3b 60
        E 60 80 3b 00
        E 60 90 3a 60
        E 60 80 3a 00
        E 180 90 36 60
        E 60 80 36 00
        E 180 90 38 60
        E 60 80 38 00
        E 180 90 36 60
        E 60 80 36 00
        E 180 90 3a 60
        E 60 80 3a 00
        E 180 90 38 60
        E 60 80 38 00
        E 180 90 36 60
        E 360 80 36 00
        E 120 90 31 60
        E 360 80 31 00
        E 120 90 36 60
        E 60 80 36 00
        E 180 90 3d 60
        E 60 80 3d 00
        E 180 90 3d 60
        E 60 80 3d 00
        E 180 90 3b 60
        E 60 80 3b 00
        E 180 90 3a 60
        E 60 80 3a 00
        E 180 90 38 60
        E 60 80 38 00
        E 60 90 3b 60
        E 60 80 3b 00
        E 60 90 3a 60
        E 60 80 3a 00
        E 180 90 36 60
        E 60 80 36 00
        E 180 90 38 60
        E 60 80 38 00
        E 180 90 36 60
        E 60 80 36 00
        E 180 90 3a 60
        E 60 80 3a 00
        E 180 90 38 60
        E 60 80 38 00
        E 180 90 36 60
        E 840 80 36 00
        E 120 90 33 60
        E 60 80 33 00
        E 60 90 31 60
        E 60 80 31 00
        E 60 90 33 60
        E 60 80 33 00
        E 60 90 35 60
        E 60 80 35 00
        E 60 90 36 60
        E 60 80 36 00
        E 180 90 31 60
        E 60 80 31 00
        E 180 90 33 60
        E 60 80 33 00
        E 59 90 31 60
        E 60 80 31 00
        E 61 90 33 60
        E 60 80 33 00
        E 60 90 35 60
        E 60 80 35 00
        E 60 90 36 60
        E 360 80 36 00
        E 120 90 3f 60
        E 60 80 3f 00
        E 60 90 3d 60
        E 60 80 3d 00
        E 60 90 3f 60
        E 60 80 3f 00
        E 60 90 41 60
        E 60 80 41 00
        E 60 90 42 60
        E 60 80 42 00
        E 180 90 3d 60
        E 60 80 3d 00
        E 180 90 3f 60
        E 60 80 3f 00
        E 59 90 3d 60
        E 60 80 3d 00
        E 61 90 3f 60
        E 60 80 3f 00
        E 60 90 41 60
        E 60 80 41 00
        E 60 90 42 60
        E 60 80 42 00
        E 60 90 44 60
        E 60 80 44 00
        E 60 90 46 60
        E 60 80 46 00
        E 60 90 48 60
        E 60 80 48 00
        E 60 90 3d 60
        E 60 80 3d 00
        E 60 90 3c 60
        E 60 80 3c 00
        E 60 90 3d 60
        E 60 80 3d 00
        E 60 90 3f 60
        E 60 80 3f 00
        E 60 90 41 60
        E 60 80 41 00
        E 180 90 3c 60
        E 60 80 3c 00
        E 180 90 3d 60
        E 60 80 3d 00
        E 61 90 3c 60
        E 60 80 3c 00
        E 60 90 3d 60
        E 60 80 3d 00
        E 60 90 3f 60
        E 60 80 3f 00
        E 59 90 41 60
        E 60 80 41 00
        E 60 90 42 60
        E 60 80 42 00
        E 60 90 44 60
        E 60 80 44 00
        E 60 90 46 60
        E 60 80 46 00
        E 60 90 47 60
        E 60 80 47 00
        E 60 90 46 60
        E 60 80 46 00
        E 60 90 47 60
        E 60 80 47 00
        E 60 90 46 60
        E 60 80 46 00
        E 60 90 44 60
        E 60 80 44 00
        E 60 90 42 60
        E 60 80 42 00
        E 60 90 41 60
        E 60 80 41 00
        E 60 90 42 60
        E 60 80 42 00
        E 60 90 44 60
        E 60 80 44 00
        E 60 90 42 60
        E 60 80 42 00
        E 60 90 44 60
        E 60 80 44 00
        E 60 90 42 60
        E 60 80 42 00
        E 60 90 41 60
        E 60 80 41 00
        E 60 90 3f 60
        E 60 80 3f 00
        E 60 90 3d 60
        E 60 80 3d 00
        E 60 90 3f 60
        E 60 80 3f 00
        E 60 90 41 60
        E 60 80 41 00
        E 60 90 3f 60
        E 60 80 3f 00
        E 60 90 3d 60
        E 60 80 3d 00
        E 60 90 3b 60
        E 60 80 3b 00
        E 60 90 3d 60
        E 60 80 3d 00
        E 60 90 3b 60
        E 60 80 3b 00
        E 60 90 3a 60
        E 60 80 3a 00
        E 60 90 3b 60
        E 60 80 3b 00
        E 60 90 3d 60
        E 60 80 3d 00
        E 60 90 3b 60
        E 60 80 3b 00
        E 60 90 3a 60
        E 60 80 3a 00
        E 60 90 38 60
        E 60 80 38 00
        E 60 90 3a 60
        E 60 80 3a 00
        E 60 90 38 60
        E 60 80 38 00
        E 60 90 36 60
        E 60 80 36 00
        E 60 90 35 60
        E 60 80 35 00
        E 60 90 36 60
        E 60 80 36 00
        E 180 90 3d 60
        E 60 80 3d 00
        E 180 90 3d 60
        E 60 80 3d 00
        E 180 90 3b 60
        E 60 80 3b 00
        E 180 90 3a 60
        E 60 80 3a 00
        E 180 90 38 60
        E 60 80 38 00
        E 60 90 3b 60
        E 60 80 3b 00
        E 60 90 3a 60
        E 60 80 3a 00
        E 180 90 36 60
        E 60 80 36 00
        E 180 90 38 60
        E 60 80 38 00
        E 180 90 36 60
        E 60 80 36 00
        E 180 90 3a 60
        E 60 80 3a 00
        E 180 90 38 60
        E 60 80 38 00
        E 180 90 36 60
        E 360 80 36 00
        E 120 90 31 60
        E 360 80 31 00
        E 120 90 36 60
        E 60 80 36 00
        E 180 90 3d 60
        E 60 80 3d 00
        E 180 90 3d 60
        E 60 80 3d 00
        E 180 90 3b 60
        E 60 80 3b 00
        E 180 90 3a 60
        E 60 80 3a 00
        E 180 90 38 60
        E 60 80 38 00
        E 60 90 3b 60
        E 60 80 3b 00
        E 60 90 3a 60
        E 60 80 3a 00
        E 180 90 36 60
        E 60 80 36 00
        E 180 90 38 60
        E 60 80 38 00
        E 180 90 36 60
        E 60 80 36 00
        E 180 90 3a 60
        E 60 80 3a 00
        E 180 90 38 60
        E 60 80 38 00
        E 180 90 36 60
        E 840 80 36 00
        E 120 90 39 60
        E 60 80 39 00
        E 180 90 40 60
        E 60 80 40 00
        E 180 90 40 60
        E 60 80 40 00
        E 180 90 3e 60
        E 60 80 3e 00
        E 180 90 3d 60
        E 60 80 3d 00
        E 180 90 3b 60
        E 60 80 3b 00
        E 60 90 3e 60
        E 60 80 3e 00
        E 60 90 3d 60
        E 60 80 3d 00
        E 180 90 39 60
        E 60 80 39 00
        E 180 90 3b 60
        E 60 80 3b 00
        E 180 90 39 60
        E 60 80 39 00
        E 180 90 3d 60
        E 60 80 3d 00
        E 180 90 3b 60
        E 60 80 3b 00
        E 180 90 39 60
        E 360 80 39 00
        E 120 90 34 60
        E 360 80 34 00
        E 120 90 39 60
        E 60 80 39 00
        E 180 90 40 60
        E 60 80 40 00
        E 180 90 40 60
        E 60 80 40 00
        E 180 90 3e 60
        E 60 80 3e 00
        E 180 90 3d 60
        E 60 80 3d 00
        E 180 90 3b 60
        E 60 80 3b 00
        E 60 90 3e 60
        E 60 80 3e 00
        E 60 90 3d 60
        E 60 80 3d 00
        E 180 90 39 60
        E 60 80 39 00
        E 180 90 3b 60
        E 60 80 3b 00
        E 180 90 39 60
        E 60 80 39 00
        E 180 90 3d 60
        E 60 80 3d 00
        E 180 90 3b 60
        E 60 80 3b 00
        E 180 90 39 60
        E 840 80 39 00
        E 120 90 36 60
        E 60 80 36 00
        E 180 90 3d 60
        E 60 80 3d 00
        E 180 90 3d 60
        E 60 80 3d 00
        E 180 90 3b 60
        E 60 80 3b 00
        E 180 90 3a 60
        E 60 80 3a 00
        E 180 90 38 60
        E 60 80 38 00
        E 60 90 3b 60
        E 60 80 3b 00
        E 60 90 3a 60
        E 60 80 3a 00
        E 180 90 36 60
        E 60 80 36 00
        E 180 90 38 60
        E 60 80 38 00
        E 180 90 36 60
        E 60 80 36 00
        E 180 90 3a 60
        E 60 80 3a 00
        E 180 90 38 60
        E 60 80 38 00
        E 180 90 36 60
        E 360 80 36 00
        E 120 90 31 60
        E 360 80 31 00
        E 120 90 36 60
        E 60 80 36 00
        E 180 90 3d 60
        E 60 80 3d 00
        E 180 90 3d 60
        E 60 80 3d 00
        E 180 90 3b 60
        E 60 80 3b 00
        E 180 90 3a 60
        E 60 80 3a 00
        E 180 90 38 60
        E 60 80 38 00
        E 60 90 3b 60
        E 60 80 3b 00
        E 60 90 3a 60
        E 60 80 3a 00
        E 180 90 36 60
        E 60 80 36 00
        E 180 90 38 60
        E 60 80 38 00
        E 180 90 36 60
        E 60 80 36 00
        E 180 90 3a 60
        E 60 80 3a 00
        E 180 90 38 60
        E 60 80 38 00
        E 180 90 36 60
        E 840 80 36 00
        E 120 90 33 60
        E 60 80 33 00
        E 60 90 31 60
        E 60 80 31 00
        E 60 90 33 60
        E 60 80 33 00
        E 60 90 35 60
        E 60 80 35 00
        E 60 90 36 60
        E 60 80 36 00
        E 180 90 31 60
        E 60 80 31 00
        E 180 90 33 60
        E 60 80 33 00
        E 60 90 31 60
        E 60 80 31 00
        E 60 90 33 60
        E 60 80 33 00
        E 60 90 35 60
        E 60 80 35 00
        E 60 90 36 60
        E 360 80 36 00
        E 120 90 3f 60
        E 60 80 3f 00
        E 60 90 3d 60
        E 60 80 3d 00
        E 60 90 3f 60
        E 60 80 3f 00
        E 60 90 41 60
        E 60 80 41 00
        E 60 90 42 60
        E 60 80 42 00
        E 180 90 3d 60
        E 60 80 3d 00
        E 180 90 3f 60
        E 60 80 3f 00
        E 60 90 3d 60
        E 60 80 3d 00
        E 60 90 3f 60
        E 60 80 3f 00
        E 60 90 41 60
        E 60 80 41 00
        E 60 90 42 60
        E 60 80 42 00
        E 60 90 44 60
        E 60 80 44 00
        E 60 90 46 60
        E 60 80 46 00
        E 60 90 48 60
        E 60 80 48 00
        E 60 90 3d 60
        E 60 80 3d 00
        E 60 90 3c 60
        E 60 80 3c 00
        E 60 90 3d 60
        E 60 80 3d 00
        E 60 90 3f 60
        E 60 80 3f 00
        E 60 90 41 60
        E 60 80 41 00
        E 180 90 3c 60
        E 60 80 3c 00
        E 180 90 3d 60
        E 60 80 3d 00
        E 60 90 3c 60
        E 60 80 3c 00
        E 60 90 3d 60
        E 60 80 3d 00
        E 60 90 3f 60
        E 60 80 3f 00
        E 60 90 41 60
        E 60 80 41 00
        E 60 90 42 60
        E 60 80 42 00
        E 60 90 44 60
        E 60 80 44 00
        E 60 90 46 60
        E 60 80 46 00
        E 60 90 47 60
        E 60 80 47 00
        E 60 90 46 60
        E 60 80 46 00
        E 60 90 47 60
        E 60 80 47 00
        E 60 90 46 60
        E 60 80 46 00
        E 60 90 44 60
        E 60 80 44 00
        E 60 90 42 60
        E 60 80 42 00
        E 60 90 41 60
        E 60 80 41 00
        E 60 90 42 60
        E 60 80 42 00
        E 60 90 44 60
        E 60 80 44 00
        E 60 90 42 60
        E 60 80 42 00
        E 60 90 44 60
        E 60 80 44 00
        E 60 90 42 60
        E 60 80 42 00
        E 60 90 41 60
        E 60 80 41 00
        E 60 90 3f 60
        E 60 80 3f 00
        E 60 90 3d 60
        E 60 80 3d 00
        E 60 90 3f 60
        E 60 80 3f 00
        E 60 90 41 60
        E 60 80 41 00
        E 60 90 3f 60
        E 60 80 3f 00
        E 60 90 3d 60
        E 60 80 3d 00
        E 60 90 3b 60
        E 60 80 3b 00
        E 60 90 3d 60
        E 60 80 3d 00
        E 60 90 3b 60
        E 60 80 3b 00
        E 60 90 3a 60
        E 60 80 3a 00
        E 60 90 3b 60
        E 60 80 3b 00
        E 60 90 3d 60
        E 60 80 3d 00
        E 60 90 3b 60
        E 60 80 3b 00
        E 60 90 3a 60
        E 60 80 3a 00
        E 60 90 38 60
        E 60 80 38 00
        E 60 90 3a 60
        E 60 80 3a 00
        E 60 90 38 60
        E 60 80 38 00
        E 60 90 36 60
        E 60 80 36 00
        E 60 90 35 60
        E 60 80 35 00
        E 60 90 36 60
        E 959 80 36 00
        E 2880 b0 7b 00
        GUID {E466AF1B-DB2D-4F03-8D7C-A89CD49FD6CF}
        IGNTEMPO 0 120.00000000 4 4
        SRCCOLOR 8
        VELLANE 132 128 60
        COLORMAP "C:\Program Files\REAPER (x64)\Data\color_maps\rockband_guitarbass.png"
        CFGEDITVIEW -5040.838897 11.817087 0 22 0 0 0
        CFGEDIT 1 1 0 1 1 0 1 1 1 1 1 0.25000000 -8 -8 1544 872 0 2 1 1 0.00000000 0 1 0 0 0.500000 0 0 1.000000 64
        KEYSNAP 0 6 "102030050700" 0 "Pentatonic"
        EVTFILTER 0 -1 -1 -1 -1 0 1 0 0 -1.00000000 -1.00000000
      >
    >
  >
  <TRACK '{CA02C646-1DD2-4650-92AD-E4DF136533B2}'
    NAME "keys"
    PEAKCOL 16576
    BEAT -1
    AUTOMODE 0
    VOLPAN 1.00000000000000 0.00000000000000 -1.00000000000000 -1.00000000000000 1.00000000000000
    MUTESOLO 0 0 0
    IPHASE 0
    ISBUS 2 -1
    BUSCOMP 0 0
    SHOWINMIX 1 0.666700 0.500000 1 0.500000 -1 -1 -1
    FREEMODE 0
    SEL 1
    REC 0 0 0 0 0 0 0
    VU 2
    TRACKHEIGHT 0 0
    INQ 0 0 0 0.5000000000 100 0 0 100
    NCHAN 2
    FX 1
    TRACKID {CA02C646-1DD2-4650-92AD-E4DF136533B2}
    PERF 0
    MIDIOUT -1
    MAINSEND 1 0
    <ITEM
      POSITION 0.00000000000000
      SNAPOFFS 0.00000000000000
      LENGTH 95.03100000000001
      LOOP 0
      ALLTAKES 0
      SEL 0
      FADEIN 1 0.000000 0.000000 1 0
      FADEOUT 1 0.000000 0.000000 1 0
      MUTE 0
      IGUID {1906B798-4977-40B2-AD9D-138949A79537}
      IID 14
      NAME "keys.wav"
      VOLPAN 1.000000 0.000000 1.000000 -1.000000
      SOFFS 0.00000000000000
      PLAYRATE 1.00000000000000 1 0.00000000000000 -1
      CHANMODE 0
      GUID {E76D0A89-5246-4B5A-9E73-CAA29A8837BF}
      <SOURCE WAVE
        FILE "C:\Users\Ruggery\Documents\Visual Studio Code\Projects\ruggy-customs-projects\songs\royalpalace\wav\keys.wav"
      >
    >
  >
  <TRACK '{50A1935C-BBA9-42C5-A01C-40862B4783AE}'
    NAME "PART REAL_BASS"
    PEAKCOL 16576
    BEAT -1
    AUTOMODE 0
    VOLPAN 1.00000000000000 0.00000000000000 -1.00000000000000 -1.00000000000000 1.00000000000000
    MUTESOLO 0 0 0
    IPHASE 0
    ISBUS 0 0
    BUSCOMP 0 0
    SHOWINMIX 1 0.666700 0.500000 1 0.500000 -1 -1 -1
    FREEMODE 0
    SEL 0
    REC 0 0 0 0 0 0 0
    VU 2
    TRACKHEIGHT 0 0
    INQ 0 0 0 0.5000000000 100 0 0 100
    NCHAN 2
    FX 0
    TRACKID {50A1935C-BBA9-42C5-A01C-40862B4783AE}
    PERF 0
    MIDIOUT -1
    <MIDINOTENAMES
      0 127 "Trill Marker"
      0 126 "Tremolo Marker"
      0 125 "BRE"
      0 124 "BRE"
      0 123 "BRE"
      0 122 "BRE"
      0 121 "BRE"
      0 120 "BRE (use all 6)"
      0 119 "-----------"
      0 116 "OVERDRIVE"
      0 115 "Solo Marker"
      0 109 "-----------"
      0 108 "Fret Hand Position"
      0 107 "Force Chord Numbering"
      0 106 "Loose Strumming"
      0 105 "Strum Direction"
      0 104 "Arpeggio Marker"
      0 103 "Slide Marker"
      0 102 "Force HOPO"
      0 101 "EXPERT e String"
      0 100 "EXPERT B String"
      0 99 "EXPERT G String"
      0 98 "EXPERT D String"
      0 97 "EXPERT A String"
      0 96 "EXPERT E String"
      0 95 "-----------"
      0 82 "Loose Strumming"
      0 81 "Strum Direction"
      0 80 "Arpeggio Marker"
      0 79 "Slide Marker"
      0 78 "Force HOPO"
      0 77 "HARD e String"
      0 76 "HARD B String"
      0 75 "HARD G String"
      0 74 "HARD D String"
      0 73 "HARD A String"
      0 72 "HARD E String"
      0 71 "-----------"
      0 58 "Loose Strumming"
      0 56 "Arpeggio Marker"
      0 55 "Slide Marker"
      0 53 "MEDIUM e String"
      0 52 "MEDIUM B String"
      0 51 "MEDIUM G String"
      0 50 "MEDIUM D String"
      0 49 "MEDIUM A String"
      0 48 "MEDIUM E String"
      0 47 "-----------"
      0 32 "Arpeggio Marker"
      0 31 "Slide Marker"
      0 29 "EASY e String"
      0 28 "EASY B String"
      0 27 "EASY G String"
      0 26 "EASY D String"
      0 25 "EASY A String"
      0 24 "EASY E String"
      0 21 "-----------"
      0 18 "Flat/Sharp Swap"
      0 17 "Hide Chord Names"
      0 16 "Slash Chord"
      0 15 "D#"
      0 14 "D"
      0 13 "C#"
      0 12 "C"
      0 11 "B"
      0 10 "A#"
      0 9 "A"
      0 8 "G#"
      0 7 "G"
      0 6 "F#"
      0 5 "F"
      0 4 "E"
    >
    MAINSEND 1 0
    <FXCHAIN
      WNDRECT 0 43 655 467
      SHOW 0
      LASTSEL 2
      DOCKED 0
      BYPASS 0 0
      <JS "c3/progtr" ""
        0.000000 3.000000 0.000000 0.000000 0.000000 0.000000 0.000000 0.000000 0.000000 1.000000 - - - - - - - - - - - - - - - - - - - - - - - - - - - - - - - - - - - - - - - - - - - - - - - - - - - - - - 
      >
      FLOATPOS 0 0 0 0
      FXID {8E379BF8-FF7E-4870-AFFF-872E7EC5B163}
      WAK 0
      BYPASS 0 0
      <JS "MIDI/midi_transpose" ""
        -12.000000 1.000000 0.000000 127.000000 - - - - - - - - - - - - - - - - - - - - - - - - - - - - - - - - - - - - - - - - - - - - - - - - - - - - - - - - - - - - 
      >
      FLOATPOS 0 0 0 0
      FXID {4A95A52E-EAB0-4187-8DA6-BBD9E3F83EA5}
      WAK 0
      BYPASS 0 0
      <VST "VSTi: ReaSynth (Cockos)" "reasynth.dll" 0 ""
        eXNlcu9e7f4AAAAAAgAAAAEAAAAAAAAAAgAAAAAAAAA4AAAAAAAAAA==
        AAAQAO++rd4N8K3eppvEO+gJMjwAAAAAAAAAAAAAgD8AAIA/4jAEPA==
        AAAAAAAAAD+01hM+j8L1PQAAAD8AABAAAAA=
      >
      FLOATPOS 0 0 0 0
      FXID {C0671266-9790-499E-8F30-939BB101F8D4}
      WAK 0
    >
    <ITEM
      POSITION 0.00000000000000
      SNAPOFFS 0.00000000000000
      LENGTH 95.03100000000001
      LOOP 0
      ALLTAKES 0
      SEL 0
      FADEIN 1 0.000000 0.000000 1 0
      FADEOUT 1 0.000000 0.000000 1 0
      MUTE 0
      IGUID {C45879F0-124B-4429-87DA-9EF4B50178F2}
      IID 9
      NAME "PART REAL_BASS"
      VOLPAN 1.000000 0.000000 1.000000 -1.000000
      SOFFS 0.00000000000000 0.00000000000000
      PLAYRATE 1.00000000000000 1 0.00000000000000 -1
      CHANMODE 0
      GUID {074AD55B-6D1B-472E-B931-37B75918104E}
      <SOURCE MIDI
        HASDATA 1 480 QN
        POOLEDEVTS {967CC2BE-DBA6-4182-AFA8-A5F5A4E5251B}
        <X 0 0
          /wNQQVJUIFJFQUxfQkFTUw==
        >
        <X 8640 0
          /wFbYmVnaW5fcGIgc29uZ190cmFpbmVyX3BiXzFd
        >
        E 0 90 1a 68
        E 0 90 32 68
        E 0 90 4a 68
        E 0 90 62 68
        E 0 90 6c 68
        E 120 80 6c 00
        E 360 80 1a 00
        E 0 80 32 00
        E 0 80 4a 00
        E 0 80 62 00
        E 1440 90 1a 68
        E 0 90 32 68
        E 0 90 4a 68
        E 0 90 62 68
        E 480 80 1a 00
        E 0 80 32 00
        E 0 80 4a 00
        E 0 80 62 00
        <X 1440 0
          /wFbcGJfbm9ybSBzb25nX3RyYWluZXJfcGJfMV0=
        >
        E 0 90 1a 68
        E 0 90 32 68
        E 0 90 4a 68
        E 0 90 62 68
        E 480 80 1a 00
        E 0 80 32 00
        E 0 80 4a 00
        E 0 80 62 00
        E 1440 90 1a 68
        E 0 90 32 68
        E 0 90 4a 68
        E 0 90 62 68
        E 0 90 74 60
        E 480 80 1a 00
        E 0 80 32 00
        E 0 80 4a 00
        E 0 80 62 00
        E 1440 90 1a 6b
        E 0 90 32 6b
        E 0 90 4a 6b
        E 0 90 62 6b
        E 0 90 6c 6b
        E 120 80 6c 00
        E 360 80 74 00
        E 0 80 1a 00
        E 0 80 32 00
        E 0 80 4a 00
        E 0 80 62 00
        E 1440 90 1a 6b
        E 0 90 32 6b
        E 0 90 4a 6b
        E 0 90 62 6b
        E 480 80 1a 00
        E 0 80 32 00
        E 0 80 4a 00
        E 0 80 62 00
        E 1440 90 1a 6b
        E 0 90 32 6b
        E 0 90 4a 6b
        E 0 90 62 6b
        E 480 80 1a 00
        E 0 80 32 00
        E 0 80 4a 00
        E 0 80 62 00
        E 1440 90 1a 6b
        E 0 90 32 6b
        E 0 90 4a 6b
        E 0 90 62 6b
        E 480 80 1a 00
        E 0 80 32 00
        E 0 80 4a 00
        E 0 80 62 00
        <X 1440 0
          /wFbZW5kX3BiIHNvbmdfdHJhaW5lcl9wYl8xXQ==
        >
        E 0 90 1a 68
        E 0 90 32 68
        E 0 90 4a 68
        E 0 90 62 68
        E 0 90 6c 68
        E 120 80 6c 00
        E 360 80 1a 00
        E 0 80 32 00
        E 0 80 4a 00
        E 0 80 62 00
        E 1440 90 1a 68
        E 0 90 32 68
        E 0 90 4a 68
        E 0 90 62 68
        E 480 80 1a 00
        E 0 80 32 00
        E 0 80 4a 00
        E 0 80 62 00
        E 1440 90 1a 68
        E 0 90 32 68
        E 0 90 4a 68
        E 0 90 62 68
        E 480 80 1a 00
        E 0 80 32 00
        E 0 80 4a 00
        E 0 80 62 00
        E 1440 90 1a 68
        E 0 90 32 68
        E 0 90 4a 68
        E 0 90 62 68
        E 480 80 1a 00
        E 0 80 32 00
        E 0 80 4a 00
        E 0 80 62 00
        <X 1440 0
          /wFbYmVnaW5fcGIgc29uZ190cmFpbmVyX3BiXzJd
        >
        E 0 90 1b 68
        E 0 90 33 68
        E 0 90 4b 68
        E 0 90 63 68
        E 0 90 6c 67
        E 120 80 6c 00
        E 240 80 1b 00
        E 0 80 33 00
        E 0 80 4b 00
        E 0 80 63 00
        E 120 90 33 67
        E 0 90 4b 67
        E 0 90 63 67
        E 360 80 33 00
        E 0 80 4b 00
        E 0 80 63 00
        E 120 90 1a 6a
        E 0 90 32 6a
        E 0 90 4a 6a
        E 0 90 62 6a
        E 360 80 1a 00
        E 0 80 32 00
        E 0 80 4a 00
        E 0 80 62 00
        E 120 90 32 68
        E 0 90 4a 68
        E 0 90 62 68
        E 360 80 32 00
        E 0 80 4a 00
        E 0 80 62 00
        E 120 90 1b 68
        E 0 90 33 68
        E 0 90 4b 68
        E 0 90 63 68
        E 359 80 1b 00
        E 0 80 33 00
        E 0 80 4b 00
        E 0 80 63 00
        E 121 90 33 67
        E 0 90 4b 67
        E 0 90 63 67
        E 360 80 33 00
        E 0 80 4b 00
        E 0 80 63 00
        E 120 90 1a 6a
        E 0 90 32 6a
        E 0 90 4a 6a
        E 0 90 62 6a
        E 360 80 1a 00
        E 0 80 32 00
        E 0 80 4a 00
        E 0 80 62 00
        E 119 90 62 68
        E 361 80 62 00
        E 120 90 1b 6a
        E 0 90 33 6a
        E 0 90 4b 6a
        E 0 90 63 6a
        E 0 90 74 60
        E 60 80 1b 00
        E 0 80 33 00
        E 0 80 4b 00
        E 0 80 63 00
        E 180 90 33 6a
        E 0 90 4b 6a
        E 0 90 63 6a
        E 360 80 33 00
        E 0 80 4b 00
        E 0 80 63 00
        E 120 90 4a 6a
        E 0 90 62 6a
        E 60 80 4a 00
        E 0 80 62 00
        E 180 90 1a 67
        E 0 90 32 67
        E 0 90 4a 67
        E 0 90 62 67
        E 60 80 1a 00
        E 0 80 32 00
        E 0 80 4a 00
        E 0 80 62 00
        E 180 90 49 6a
        E 0 90 61 6a
        E 0 90 6c 68
        E 60 80 49 00
        E 0 80 61 00
        E 60 80 6c 00
        E 120 90 31 68
        E 0 90 49 68
        E 0 90 61 68
        E 360 80 31 00
        E 0 80 49 00
        E 0 80 61 00
        <X 120 0
          /wFbZW5kX3BiIHNvbmdfdHJhaW5lcl9wYl8yXQ==
        >
        E 0 90 19 68
        E 0 90 31 68
        E 0 90 49 68
        E 0 90 61 68
        E 60 80 74 00
        E 0 80 19 00
        E 0 80 31 00
        E 0 80 49 00
        E 0 80 61 00
        E 180 90 31 68
        E 0 90 49 68
        E 0 90 61 68
        E 60 80 31 00
        E 0 80 49 00
        E 0 80 61 00
        E 660 90 19 68
        E 0 90 31 68
        E 0 90 49 68
        E 0 90 61 68
        E 60 80 19 00
        E 0 80 31 00
        E 0 80 49 00
        E 0 80 61 00
        E 180 90 31 68
        E 0 90 49 68
        E 0 90 61 68
        E 60 80 31 00
        E 0 80 49 00
        E 0 80 61 00
        E 660 90 19 68
        E 0 90 31 68
        E 0 90 49 68
        E 0 90 61 68
        E 60 80 19 00
        E 0 80 31 00
        E 0 80 49 00
        E 0 80 61 00
        E 180 90 31 68
        E 0 90 49 68
        E 0 90 61 68
        E 60 80 31 00
        E 0 80 49 00
        E 0 80 61 00
        E 660 90 19 68
        E 0 90 31 68
        E 0 90 49 68
        E 0 90 61 68
        E 60 80 19 00
        E 0 80 31 00
        E 0 80 49 00
        E 0 80 61 00
        E 180 90 31 68
        E 0 90 49 68
        E 0 90 61 68
        E 60 80 31 00
        E 0 80 49 00
        E 0 80 61 00
        E 660 90 1a 68
        E 0 90 32 68
        E 0 90 4a 68
        E 0 90 62 68
        E 480 80 1a 00
        E 0 80 32 00
        E 0 80 4a 00
        E 0 80 62 00
        E 1440 90 1a 68
        E 0 90 32 68
        E 0 90 4a 68
        E 0 90 62 68
        E 480 80 1a 00
        E 0 80 32 00
        E 0 80 4a 00
        E 0 80 62 00
        E 1440 90 1a 68
        E 0 90 32 68
        E 0 90 4a 68
        E 0 90 62 68
        E 0 90 74 60
        E 480 80 1a 00
        E 0 80 32 00
        E 0 80 4a 00
        E 0 80 62 00
        E 1440 90 1a 68
        E 0 90 32 68
        E 0 90 4a 68
        E 0 90 62 68
        E 480 80 74 00
        E 0 80 1a 00
        E 0 80 32 00
        E 0 80 4a 00
        E 0 80 62 00
        E 1440 90 1a 6b
        E 0 90 32 6b
        E 0 90 4a 6b
        E 0 90 62 6b
        E 0 90 6c 6b
        E 120 80 6c 00
        E 360 80 1a 00
        E 0 80 32 00
        E 0 80 4a 00
        E 0 80 62 00
        E 1440 90 1a 6b
        E 0 90 32 6b
        E 0 90 4a 6b
        E 0 90 62 6b
        E 480 80 1a 00
        E 0 80 32 00
        E 0 80 4a 00
        E 0 80 62 00
        E 1440 90 1a 6b
        E 0 90 32 6b
        E 0 90 4a 6b
        E 0 90 62 6b
        E 480 80 1a 00
        E 0 80 32 00
        E 0 80 4a 00
        E 0 80 62 00
        E 1440 90 1a 6b
        E 0 90 32 6b
        E 0 90 4a 6b
        E 0 90 62 6b
        E 480 80 1a 00
        E 0 80 32 00
        E 0 80 4a 00
        E 0 80 62 00
        E 1440 90 1a 68
        E 0 90 32 68
        E 0 90 4a 68
        E 0 90 62 68
        E 0 90 6c 68
        E 0 90 74 60
        E 120 80 6c 00
        E 360 80 1a 00
        E 0 80 32 00
        E 0 80 4a 00
        E 0 80 62 00
        E 1440 90 1a 68
        E 0 90 32 68
        E 0 90 4a 68
        E 0 90 62 68
        E 480 80 1a 00
        E 0 80 32 00
        E 0 80 4a 00
        E 0 80 62 00
        E 1440 80 74 00
        E 0 90 1a 68
        E 0 90 32 68
        E 0 90 4a 68
        E 0 90 62 68
        E 480 80 1a 00
        E 0 80 32 00
        E 0 80 4a 00
        E 0 80 62 00
        E 1440 90 1a 68
        E 0 90 32 68
        E 0 90 4a 68
        E 0 90 62 68
        E 480 80 1a 00
        E 0 80 32 00
        E 0 80 4a 00
        E 0 80 62 00
        E 1440 90 1b 68
        E 0 90 33 68
        E 0 90 4b 68
        E 0 90 63 68
        E 0 90 6c 67
        E 120 80 6c 00
        E 240 80 1b 00
        E 0 80 33 00
        E 0 80 4b 00
        E 0 80 63 00
        E 120 90 33 67
        E 0 90 4b 67
        E 0 90 63 67
        E 360 80 33 00
        E 0 80 4b 00
        E 0 80 63 00
        E 120 90 1a 6a
        E 0 90 32 6a
        E 0 90 4a 6a
        E 0 90 62 6a
        E 360 80 1a 00
        E 0 80 32 00
        E 0 80 4a 00
        E 0 80 62 00
        E 120 90 32 68
        E 0 90 4a 68
        E 0 90 62 68
        E 360 80 32 00
        E 0 80 4a 00
        E 0 80 62 00
        E 120 90 1b 68
        E 0 90 33 68
        E 0 90 4b 68
        E 0 90 63 68
        E 360 80 1b 00
        E 0 80 33 00
        E 0 80 4b 00
        E 0 80 63 00
        E 120 90 33 67
        E 0 90 4b 67
        E 0 90 63 67
        E 360 80 33 00
        E 0 80 4b 00
        E 0 80 63 00
        E 120 90 1a 6a
        E 0 90 32 6a
        E 0 90 4a 6a
        E 0 90 62 6a
        E 360 80 1a 00
        E 0 80 32 00
        E 0 80 4a 00
        E 0 80 62 00
        E 120 90 62 68
        E 360 80 62 00
        E 120 90 1b 6a
        E 0 90 33 6a
        E 0 90 4b 6a
        E 0 90 63 6a
        E 60 80 1b 00
        E 0 80 33 00
        E 0 80 4b 00
        E 0 80 63 00
        E 180 90 33 6a
        E 0 90 4b 6a
        E 0 90 63 6a
        E 360 80 33 00
        E 0 80 4b 00
        E 0 80 63 00
        E 120 90 4a 6a
        E 0 90 62 6a
        E 60 80 4a 00
        E 0 80 62 00
        E 180 90 1a 67
        E 0 90 32 67
        E 0 90 4a 67
        E 0 90 62 67
        E 60 80 1a 00
        E 0 80 32 00
        E 0 80 4a 00
        E 0 80 62 00
        E 180 90 49 6a
        E 0 90 61 6a
        E 0 90 6c 68
        E 60 80 49 00
        E 0 80 61 00
        E 60 80 6c 00
        E 120 90 31 68
        E 0 90 49 68
        E 0 90 61 68
        E 360 80 31 00
        E 0 80 49 00
        E 0 80 61 00
        E 120 90 19 68
        E 0 90 31 68
        E 0 90 49 68
        E 0 90 61 68
        E 60 80 19 00
        E 0 80 31 00
        E 0 80 49 00
        E 0 80 61 00
        E 180 90 31 68
        E 0 90 49 68
        E 0 90 61 68
        E 60 80 31 00
        E 0 80 49 00
        E 0 80 61 00
        E 660 90 19 68
        E 0 90 31 68
        E 0 90 49 68
        E 0 90 61 68
        E 60 80 19 00
        E 0 80 31 00
        E 0 80 49 00
        E 0 80 61 00
        E 180 90 31 68
        E 0 90 49 68
        E 0 90 61 68
        E 60 80 31 00
        E 0 80 49 00
        E 0 80 61 00
        E 660 90 19 68
        E 0 90 31 68
        E 0 90 49 68
        E 0 90 61 68
        E 60 80 19 00
        E 0 80 31 00
        E 0 80 49 00
        E 0 80 61 00
        E 180 90 31 68
        E 0 90 49 68
        E 0 90 61 68
        E 60 80 31 00
        E 0 80 49 00
        E 0 80 61 00
        E 660 90 19 68
        E 0 90 31 68
        E 0 90 49 68
        E 0 90 61 68
        E 60 80 19 00
        E 0 80 31 00
        E 0 80 49 00
        E 0 80 61 00
        E 180 90 31 68
        E 0 90 49 68
        E 0 90 61 68
        E 60 80 31 00
        E 0 80 49 00
        E 0 80 61 00
        E 4499 b0 7b 00
        GUID {854F544B-1AD3-484B-82F0-5A3A1854BD76}
        IGNTEMPO 0 120.00000000 4 4
        SRCCOLOR 9
        VELLANE 132 128 60
        COLORMAP "C:\Program Files\REAPER (x64)\Data\color_maps\rockband_guitarbass.png"
        CFGEDITVIEW -5040.838897 11.817087 7 12 0 0 0
        CFGEDIT 1 1 0 1 1 0 1 1 1 1 1 0.25000000 -8 -8 1544 872 0 2 1 1 0.00000000 0 1 0 0 0.500000 0 0 1.000000 64
        KEYSNAP 0 6 "102030050700" 0 "Pentatonic"
        EVTFILTER 0 -1 -1 -1 -1 0 1 0 0 -1.00000000 -1.00000000
      >
    >
  >
  <TRACK '{B4CA7B5E-3C80-45F1-9F94-A3C6D7CA9F02}'
    NAME "EVENTS"
    PEAKCOL 16576
    BEAT -1
    AUTOMODE 0
    VOLPAN 1.00000000000000 0.00000000000000 -1.00000000000000 -1.00000000000000 1.00000000000000
    MUTESOLO 0 0 0
    IPHASE 0
    ISBUS 0 0
    BUSCOMP 0 0
    SHOWINMIX 1 0.666700 0.500000 1 0.500000 -1 -1 -1
    FREEMODE 0
    SEL 0
    REC 0 0 0 0 0 0 0
    VU 2
    TRACKHEIGHT 0 0
    INQ 0 0 0 0.5000000000 100 0 0 100
    NCHAN 2
    FX 1
    TRACKID {B4CA7B5E-3C80-45F1-9F94-A3C6D7CA9F02}
    PERF 0
    MIDIOUT -1
    <MIDINOTENAMES
      0 26 "Hi-Hat"
      0 25 "Snare"
      0 24 "Kick"
    >
    MAINSEND 1 0
    <FXCHAIN
      SHOW 0
      LASTSEL 0
      DOCKED 0
    >
    <ITEM
      POSITION 0.00000000000000
      SNAPOFFS 0.00000000000000
      LENGTH 95.03100000000001
      LOOP 0
      ALLTAKES 0
      SEL 0
      FADEIN 1 0.000000 0.000000 1 0
      FADEOUT 1 0.000000 0.000000 1 0
      MUTE 0
      IGUID {A632393D-62E9-4C30-A92E-5417CB86A2E0}
      IID 10
      NAME "EVENTS"
      VOLPAN 1.000000 0.000000 1.000000 -1.000000
      SOFFS 0.00000000000000 0.00000000000000
      PLAYRATE 1.00000000000000 1 0.00000000000000 -1
      CHANMODE 0
      GUID {42A23A0F-372B-4B5D-BA4A-6E1E5CB43031}
      <SOURCE MIDI
        HASDATA 1 480 QN
        POOLEDEVTS {9079FCFB-A862-4B17-8419-8293015EB472}
        <X 0 0
          /wNFVkVOVFM=
        >
        <X 3840 0
          /wFbY3Jvd2Rfbm9jbGFwXQ==
        >
        <X 0 0
          /wFbcHJjX2hvcm5faW50cm9d
        >
        <X 4800 0
          /wFbcHJjX3ZlcnNlXzFhXQ==
        >
        <X 960 0
          /wFbY3Jvd2Rfbm9ybWFsXQ==
        >
        <X 0 0
          /wFbbXVzaWNfc3RhcnRd
        >
        <X 14400 0
          /wFbcHJjX3ZlcnNlXzFiXQ==
        >
        <X 7680 0
          /wFbcHJjX2JyaWRnZV0=
        >
        <X 0 0
          /wFbY3Jvd2RfY2xhcF0=
        >
        <X 9600 0
          /wFbcHJjX3ZlcnNlXzJhXQ==
        >
        <X 0 0
          /wFbY3Jvd2Rfbm9jbGFwXQ==
        >
        <X 15360 0
          /wFbcHJjX3ZlcnNlXzJiXQ==
        >
        <X 7680 0
          /wFbcHJjX291dHJvXQ==
        >
        <X 0 0
          /wFbY3Jvd2RfY2xhcF0=
        >
        <X 9840 0
          /wFbY3Jvd2Rfbm9jbGFwXQ==
        >
        <X 240 0
          /wFbbXVzaWNfZW5kXQ==
        >
        <X 0 0
          /wFbY3Jvd2RfcmVhbHRpbWVd
        >
        <X 3355 0
          /wFbZW5kXQ==
        >
        E 5 b0 7b 00
        GUID {83AD93FE-1647-44B9-B1C2-6DB59F884D5A}
        IGNTEMPO 0 120.00000000 4 4
        SRCCOLOR 10
        VELLANE 132 128 60
        COLORMAP "C:\Program Files\REAPER (x64)\Data\color_maps\rockband_guitarbass.png"
        CFGEDITVIEW -5040.838897 11.817087 0 48 0 0 0
        CFGEDIT 1 1 0 1 1 0 1 1 1 1 1 0.25000000 -8 -8 1544 872 0 2 1 1 0.00000000 0 1 0 0 0.500000 0 0 1.000000 64
        KEYSNAP 0 6 "102030050700" 0 "Pentatonic"
        EVTFILTER 0 -1 -1 -1 -1 0 1 0 0 -1.00000000 -1.00000000
      >
    >
  >
  <TRACK '{C26FB4D9-85D3-46EB-BF64-9CCBDCBD5BF8}'
    NAME "BEAT"
    PEAKCOL 16576
    BEAT -1
    AUTOMODE 0
    VOLPAN 1.00000000000000 0.00000000000000 -1.00000000000000 -1.00000000000000 1.00000000000000
    MUTESOLO 0 0 0
    IPHASE 0
    ISBUS 0 0
    BUSCOMP 0 0
    SHOWINMIX 1 0.666700 0.500000 1 0.500000 -1 -1 -1
    FREEMODE 0
    SEL 0
    REC 0 0 0 0 0 0 0
    VU 2
    TRACKHEIGHT 0 0
    INQ 0 0 0 0.5000000000 100 0 0 100
    NCHAN 2
    FX 1
    TRACKID {C26FB4D9-85D3-46EB-BF64-9CCBDCBD5BF8}
    PERF 0
    MIDIOUT -1
    <MIDINOTENAMES
      0 13 "Up Beats"
      0 12 "Downbeat"
    >
    MAINSEND 1 0
    <FXCHAIN
      SHOW 0
      LASTSEL 0
      DOCKED 0
    >
    <ITEM
      POSITION 0.00000000000000
      SNAPOFFS 0.00000000000000
      LENGTH 95.03100000000001
      LOOP 0
      ALLTAKES 0
      SEL 1
      FADEIN 1 0.000000 0.000000 1 0
      FADEOUT 1 0.000000 0.000000 1 0
      MUTE 0
      IGUID {CC9492E0-E9DB-40B2-BD79-E4B1EAC15DF6}
      IID 11
      NAME "BEAT"
      VOLPAN 1.000000 0.000000 1.000000 -1.000000
      SOFFS 0.00000000000000 0.00000000000000
      PLAYRATE 1.00000000000000 1 0.00000000000000 -1
      CHANMODE 0
      GUID {FFA0CD11-B4FE-41F5-A365-90BF2288A3D9}
      <SOURCE MIDI
        HASDATA 1 480 QN
        POOLEDEVTS {22BABAF1-5280-4693-B178-57A03089DA43}
        <X 0 0
          /wNCRUFU
        >
        E 0 96 0c 64
        E 120 86 0c 00
        E 360 96 0d 64
        E 120 86 0d 00
        E 360 96 0d 64
        E 120 86 0d 00
        E 360 96 0d 64
        E 120 86 0d 00
        E 360 96 0c 64
        E 120 86 0c 00
        E 360 96 0d 64
        E 120 86 0d 00
        E 360 96 0d 64
        E 120 86 0d 00
        E 360 96 0d 64
        E 120 86 0d 00
        E 360 96 0c 64
        E 120 86 0c 00
        E 360 96 0d 64
        E 120 86 0d 00
        E 360 96 0d 64
        E 120 86 0d 00
        E 360 96 0d 64
        E 120 86 0d 00
        E 360 96 0c 64
        E 120 86 0c 00
        E 360 96 0d 64
        E 120 86 0d 00
        E 360 96 0c 64
        E 120 86 0c 00
        E 360 96 0d 64
        E 120 86 0d 00
        E 360 96 0d 64
        E 120 86 0d 00
        E 360 96 0d 64
        E 120 86 0d 00
        E 360 96 0c 64
        E 120 86 0c 00
        E 360 96 0d 64
        E 120 86 0d 00
        E 360 96 0d 64
        E 120 86 0d 00
        E 360 96 0d 64
        E 120 86 0d 00
        E 360 96 0c 64
        E 120 86 0c 00
        E 360 96 0d 64
        E 120 86 0d 00
        E 360 96 0d 64
        E 120 86 0d 00
        E 360 96 0d 64
        E 120 86 0d 00
        E 360 96 0c 64
        E 120 86 0c 00
        E 360 96 0d 64
        E 120 86 0d 00
        E 360 96 0d 64
        E 120 86 0d 00
        E 360 96 0d 64
        E 120 86 0d 00
        E 360 96 0c 64
        E 120 86 0c 00
        E 360 96 0d 64
        E 120 86 0d 00
        E 360 96 0d 64
        E 120 86 0d 00
        E 360 96 0d 64
        E 120 86 0d 00
        E 360 96 0c 64
        E 120 86 0c 00
        E 360 96 0d 64
        E 120 86 0d 00
        E 360 96 0d 64
        E 120 86 0d 00
        E 360 96 0d 64
        E 120 86 0d 00
        E 360 96 0c 64
        E 120 86 0c 00
        E 360 96 0d 64
        E 120 86 0d 00
        E 360 96 0d 64
        E 120 86 0d 00
        E 360 96 0d 64
        E 120 86 0d 00
        E 360 96 0c 64
        E 120 86 0c 00
        E 360 96 0d 64
        E 120 86 0d 00
        E 360 96 0d 64
        E 120 86 0d 00
        E 360 96 0d 64
        E 120 86 0d 00
        E 360 96 0c 64
        E 120 86 0c 00
        E 360 96 0d 64
        E 120 86 0d 00
        E 360 96 0d 64
        E 120 86 0d 00
        E 360 96 0d 64
        E 120 86 0d 00
        E 360 96 0c 64
        E 120 86 0c 00
        E 360 96 0d 64
        E 120 86 0d 00
        E 360 96 0d 64
        E 120 86 0d 00
        E 360 96 0d 64
        E 120 86 0d 00
        E 360 96 0c 64
        E 120 86 0c 00
        E 360 96 0d 64
        E 120 86 0d 00
        E 360 96 0d 64
        E 120 86 0d 00
        E 360 96 0d 64
        E 120 86 0d 00
        E 360 96 0c 64
        E 120 86 0c 00
        E 360 96 0d 64
        E 120 86 0d 00
        E 360 96 0d 64
        E 120 86 0d 00
        E 360 96 0d 64
        E 120 86 0d 00
        E 360 96 0c 64
        E 120 86 0c 00
        E 360 96 0d 64
        E 120 86 0d 00
        E 360 96 0d 64
        E 120 86 0d 00
        E 360 96 0d 64
        E 120 86 0d 00
        E 360 96 0c 64
        E 120 86 0c 00
        E 360 96 0d 64
        E 120 86 0d 00
        E 360 96 0d 64
        E 120 86 0d 00
        E 360 96 0d 64
        E 120 86 0d 00
        E 360 96 0c 64
        E 120 86 0c 00
        E 360 96 0d 64
        E 120 86 0d 00
        E 360 96 0d 64
        E 120 86 0d 00
        E 360 96 0d 64
        E 120 86 0d 00
        E 360 96 0c 64
        E 120 86 0c 00
        E 360 96 0d 64
        E 120 86 0d 00
        E 360 96 0d 64
        E 120 86 0d 00
        E 360 96 0d 64
        E 120 86 0d 00
        E 360 96 0c 64
        E 120 86 0c 00
        E 360 96 0d 64
        E 120 86 0d 00
        E 360 96 0d 64
        E 120 86 0d 00
        E 360 96 0d 64
        E 120 86 0d 00
        E 360 96 0c 64
        E 120 86 0c 00
        E 360 96 0d 64
        E 120 86 0d 00
        E 360 96 0d 64
        E 120 86 0d 00
        E 360 96 0d 64
        E 120 86 0d 00
        E 360 96 0c 64
        E 120 86 0c 00
        E 360 96 0d 64
        E 120 86 0d 00
        E 360 96 0d 64
        E 120 86 0d 00
        E 360 96 0d 64
        E 120 86 0d 00
        E 360 96 0c 64
        E 120 86 0c 00
        E 360 96 0d 64
        E 120 86 0d 00
        E 360 96 0d 64
        E 120 86 0d 00
        E 360 96 0d 64
        E 120 86 0d 00
        E 360 96 0c 64
        E 120 86 0c 00
        E 360 96 0d 64
        E 120 86 0d 00
        E 360 96 0d 64
        E 120 86 0d 00
        E 360 96 0d 64
        E 120 86 0d 00
        E 360 96 0c 64
        E 120 86 0c 00
        E 360 96 0d 64
        E 120 86 0d 00
        E 360 96 0d 64
        E 120 86 0d 00
        E 360 96 0d 64
        E 120 86 0d 00
        E 360 96 0c 64
        E 120 86 0c 00
        E 360 96 0d 64
        E 120 86 0d 00
        E 360 96 0d 64
        E 120 86 0d 00
        E 360 96 0d 64
        E 120 86 0d 00
        E 360 96 0c 64
        E 120 86 0c 00
        E 360 96 0d 64
        E 120 86 0d 00
        E 360 96 0d 64
        E 120 86 0d 00
        E 360 96 0d 64
        E 120 86 0d 00
        E 360 96 0c 64
        E 120 86 0c 00
        E 360 96 0d 64
        E 120 86 0d 00
        E 360 96 0d 64
        E 120 86 0d 00
        E 360 96 0d 64
        E 120 86 0d 00
        E 360 96 0c 64
        E 120 86 0c 00
        E 360 96 0d 64
        E 120 86 0d 00
        E 360 96 0d 64
        E 120 86 0d 00
        E 360 96 0d 64
        E 120 86 0d 00
        E 360 96 0c 64
        E 120 86 0c 00
        E 360 96 0d 64
        E 120 86 0d 00
        E 360 96 0d 64
        E 120 86 0d 00
        E 360 96 0d 64
        E 120 86 0d 00
        E 360 96 0c 64
        E 120 86 0c 00
        E 360 96 0d 64
        E 120 86 0d 00
        E 360 96 0d 64
        E 120 86 0d 00
        E 360 96 0d 64
        E 120 86 0d 00
        E 360 96 0c 64
        E 120 86 0c 00
        E 360 96 0d 64
        E 120 86 0d 00
        E 360 96 0d 64
        E 120 86 0d 00
        E 360 96 0d 64
        E 120 86 0d 00
        E 360 96 0c 64
        E 120 86 0c 00
        E 360 96 0d 64
        E 120 86 0d 00
        E 360 96 0d 64
        E 120 86 0d 00
        E 360 96 0d 64
        E 120 86 0d 00
        E 360 96 0c 64
        E 120 86 0c 00
        E 360 96 0d 64
        E 120 86 0d 00
        E 360 96 0d 64
        E 120 86 0d 00
        E 360 96 0d 64
        E 120 86 0d 00
        E 360 96 0c 64
        E 120 86 0c 00
        E 360 96 0d 64
        E 120 86 0d 00
        E 360 96 0d 64
        E 120 86 0d 00
        E 360 96 0d 64
        E 120 86 0d 00
        E 360 96 0c 64
        E 120 86 0c 00
        E 360 96 0d 64
        E 120 86 0d 00
        E 360 96 0d 64
        E 120 86 0d 00
        E 360 96 0d 64
        E 120 86 0d 00
        E 360 96 0c 64
        E 120 86 0c 00
        E 360 96 0d 64
        E 120 86 0d 00
        E 360 96 0d 64
        E 120 86 0d 00
        E 360 96 0d 64
        E 120 86 0d 00
        E 360 96 0c 64
        E 120 86 0c 00
        E 360 96 0d 64
        E 120 86 0d 00
        E 360 96 0d 64
        E 120 86 0d 00
        E 360 96 0d 64
        E 120 86 0d 00
        E 360 96 0c 64
        E 120 86 0c 00
        E 360 96 0d 64
        E 120 86 0d 00
        E 360 96 0d 64
        E 120 86 0d 00
        E 360 96 0d 64
        E 120 86 0d 00
        E 360 96 0c 64
        E 120 86 0c 00
        E 360 96 0d 64
        E 120 86 0d 00
        E 360 96 0d 64
        E 120 86 0d 00
        E 360 96 0d 64
        E 120 86 0d 00
        E 360 b0 7b 00
        GUID {D37F304D-C951-43B2-A607-B83D46DD6EE4}
        IGNTEMPO 0 120.00000000 4 4
        SRCCOLOR 11
        VELLANE 132 128 60
        COLORMAP "C:\Program Files\REAPER (x64)\Data\color_maps\rockband_guitarbass.png"
        CFGEDITVIEW -5040.838897 11.817087 0 48 0 0 0
        CFGEDIT 1 1 0 1 1 0 1 1 1 1 1 0.25000000 -8 -8 1544 872 0 2 1 1 0.00000000 0 1 0 0 0.500000 0 0 1.000000 64
        KEYSNAP 0 6 "102030050700" 0 "Pentatonic"
        EVTFILTER 0 -1 -1 -1 -1 0 1 0 0 -1.00000000 -1.00000000
      >
    >
  >
  <TRACK '{8F27A73F-556E-4C7A-90CC-AC78E72ED90A}'
    NAME "backing"
    PEAKCOL 16576
    BEAT -1
    AUTOMODE 0
    VOLPAN 1.00000000000000 0.00000000000000 -1.00000000000000 -1.00000000000000 1.00000000000000
    MUTESOLO 0 0 0
    IPHASE 0
    ISBUS 0 0
    BUSCOMP 0 0
    SHOWINMIX 1 0.666700 0.500000 1 0.500000 -1 -1 -1
    FREEMODE 0
    SEL 0
    REC 0 0 0 0 0 0 0
    VU 2
    TRACKHEIGHT 0 0
    INQ 0 0 0 0.5000000000 100 0 0 100
    NCHAN 2
    FX 1
    TRACKID {8F27A73F-556E-4C7A-90CC-AC78E72ED90A}
    PERF 0
    MIDIOUT -1
    MAINSEND 1 0
    <ITEM
      POSITION 0.00000000000000
      SNAPOFFS 0.00000000000000
      LENGTH 95.03100000000001
      LOOP 0
      ALLTAKES 0
      SEL 0
      FADEIN 1 0.000000 0.000000 1 0
      FADEOUT 1 0.000000 0.000000 1 0
      MUTE 0
      IGUID {1B95F6B0-DBC5-4F75-9BB4-B241CFE62B6B}
      IID 12
      NAME "backing.wav"
      VOLPAN 1.000000 0.000000 1.000000 -1.000000
      SOFFS 0.00000000000000
      PLAYRATE 1.00000000000000 1 0.00000000000000 -1
      CHANMODE 0
      GUID {64D75DCF-A4DF-4922-BA8C-34269D1EF7C6}
      <SOURCE WAVE
        FILE "C:\Users\Ruggery\Documents\Visual Studio Code\Projects\ruggy-customs-projects\songs\royalpalace\wav\backing.wav"
      >
    >
  >
  <EXTENSIONS
  >
>
