<REAPER_PROJECT 0.1 "4.22/x64"
  RIPPLE 0
  GROUPOVERRIDE 0 0 0
  AUTOXFADE 1
  ENVATTACH 1
  MIXERUIFLAGS 11 48
  PEAKGAIN 1.00000000000000
  FEEDBACK 0
  PANLAW 1.00000000000000
  PROJOFFS 0.00000000000000 0
  MAXPROJLEN 0 600.00000000000000
  GRID 3199 8 1.00000000000000 8 1.00000000000000 0
  TIMEMODE 1 0 -1
  PANMODE 3
  CURSOR 255.99974399997154
  ZOOM 39.84784125634425 0 0
  VZOOMEX 6
  USE_REC_CFG 0
  RECMODE 1
  SMPTESYNC 0 23.976024 100 40 1000 300 0 0.000000 1
  LOOP 1
  LOOPGRAN 0 4.00000000000000
  RECORD_PATH "" ""
  <RECORD_CFG
    ZXZhdxAD
  >
  <APPLYFX_CFG
  >
  RENDER_FILE ""
  RENDER_PATTERN ""
  RENDER_FMT 0 2 0
  RENDER_1X 0
  RENDER_RANGE 1 0.00000000000000 0.00000000000000
  RENDER_RESAMPLE 3 0 1
  RENDER_ADDTOPROJ 0
  RENDER_STEMS 0
  RENDER_DITHER 0
  TIMELOCKMODE 0
  ITEMMIX 0
  DEFPITCHMODE 393216
  TAKELANE 1
  SAMPLERATE 44100 0 0
  <RENDER_CFG
  >
  LOCK 1
  <METRONOME 6 2.000000
    VOL 0.250000 0.125000
    FREQ 800 1600 1
    BEATLEN 4
    SAMPLES "" ""
  >
  GLOBAL_AUTO -1
  TEMPO 120.00000000000000 4 4
  PLAYRATE 1.00000000000000 0 0.25000 4.00000
  SELECTION 249.33308399997230 0.00000000000000
  SELECTION2 249.33308399997230 0.00000000000000
  MASTERAUTOMODE 0
  MASTERTRACKHEIGHT 0
  MASTERPEAKCOL 16576
  MASTERMUTESOLO 0
  MASTERTRACKVIEW 0 0.666700 0.500000 0.500000 -1 -1 -1
  MASTERHWOUT 0 0 1.00000000000000 0.00000000000000 0 0 0 -1.00000000000000
  MASTER_NCH 2 2
  MASTER_VOLUME 0.07203428572018 0.00000000000000 -1.00000000000000 -1.00000000000000 1.00000000000000
  MASTER_PANMODE -1
  MASTER_FX 1
  MASTER_SEL 0
  <MASTERPLAYSPEEDENV
    ACT 0
    VIS 0 1 1.000000
    LANEHEIGHT 0 0
    ARM 0
    DEFSHAPE 0 -1 -1
  >
  <TEMPOENVEX
    ACT 1
    VIS 1 0 1.000000
    LANEHEIGHT 0 0
    ARM 0
    DEFSHAPE 1 -1 -1
    PT 0.000000000000 180.0001800002 1
  >
  <PROJBAY
  >
  <TRACK '{306A93BF-EE56-4413-A902-6ADB229B8D75}'
    NAME "PART DRUMS"
    PEAKCOL 16576
    BEAT -1
    AUTOMODE 0
    VOLPAN 1.00000000000000 0.00000000000000 -1.00000000000000 -1.00000000000000 1.00000000000000
    MUTESOLO 0 0 0
    IPHASE 0
    ISBUS 1 1
    BUSCOMP 0 0
    SHOWINMIX 1 0.666700 0.500000 1 0.500000 -1 -1 -1
    FREEMODE 0
    SEL 1
    REC 0 0 0 0 0 0 0
    VU 2
    TRACKHEIGHT 0 0
    INQ 0 0 0 0.5000000000 100 0 0 100
    NCHAN 2
    FX 1
    TRACKID {306A93BF-EE56-4413-A902-6ADB229B8D75}
    PERF 0
    MIDIOUT -1
    <MIDINOTENAMES
      0 127 "CYMBAL SWELLS"
      0 126 "DRUM ROLL"
      0 125 "---"
      0 124 "DRUM FILL"
      0 123 "DRUM FILL"
      0 122 "DRUM FILL"
      0 121 "DRUM FILL"
      0 120 "DRUM FILL (use all 5)"
      0 118 "----"
      0 116 "OVERDRIVE"
      0 114 "----"
      0 112 "TOM GEMS PAD 4"
      0 111 "TOM GEMS PAD 3"
      0 110 "TOM GEMS PAD 2"
      0 103 "Solo Marker"
      0 102 "----"
      0 100 "EXPERT Green"
      0 99 "EXPERT Blue"
      0 98 "EXPERT Yellow"
      0 97 "EXPERT Red"
      0 96 "EXPERT Kick"
      0 92 "----"
      0 88 "HARD Green"
      0 87 "HARD Blue"
      0 86 "HARD Yellow"
      0 85 "HARD Red"
      0 84 "HARD Kick"
      0 80 "----"
      0 76 "MEDIUM Green"
      0 75 "MEDIUM Blue"
      0 74 "MEDIUM Yellow"
      0 73 "MEDIUM Red"
      0 72 "MEDIUM Kick"
      0 68 "----"
      0 64 "EASY Green"
      0 63 "EASY Blue"
      0 62 "EASY Yellow"
      0 61 "EASY Red"
      0 60 "EASY Kick"
      0 56 "----"
      0 52 "-- DRUM ANIMATION --"
      0 51 "FLOOR TOM RH"
      0 50 "FLOOR TOM LH"
      0 49 "TOM2 RH"
      0 48 "TOM2 LH"
      0 47 "TOM1 RH"
      0 46 "TOM1 LH"
      0 45 "SOFT CRASH 2 LH"
      0 44 "CRASH 2 LH"
      0 43 "RIDE LH"
      0 42 "RIDE CYM RH"
      0 41 "CRASH2 CHOKE"
      0 40 "CRASH1 CHOKE"
      0 39 "CRASH2 SOFT RH"
      0 38 "CRASH2 HARD RH"
      0 37 "CRASH1 SOFT RH"
      0 36 "CRASH1 HARD RH"
      0 35 "CRASH1 SOFT LH"
      0 34 "CRASH1 HARD LH"
      0 32 "PERCUSSION RH"
      0 31 "HI-HAT RH"
      0 30 "HI-HAT LH"
      0 29 "SOFT SNARE RH"
      0 28 "SOFT SNARE LH"
      0 27 "SNARE RH"
      0 26 "SNARE LH"
      0 25 "HI-HAT OPEN"
      0 24 "KICK RF"
    >
    MAINSEND 1 0
    <FXCHAIN
      WNDRECT 0 43 891 559
      SHOW 0
      LASTSEL 0
      DOCKED 0
      BYPASS 0 0
      <VST "VSTi: RBN Preview (RBN)" "rbprev_vst64.dll" 0 ""
        dnBicu5e7f4AAAAAAgAAAAEAAAAAAAAAAgAAAAAAAAAEAAAAAQAAAA==
        AAAQAAMBqgAAABAAAAA=
      >
      FLOATPOS 0 0 0 0
      FXID {26475C5F-A0C9-4EDF-92B0-9F81C311B3F9}
      WAK 0
    >
    <ITEM
      POSITION 0.00000000000000
      SNAPOFFS 0.00000000000000
      LENGTH 249.33300000000000
      LOOP 0
      ALLTAKES 0
      SEL 0
      FADEIN 1 0.000000 0.000000 1 0
      FADEOUT 1 0.000000 0.000000 1 0
      MUTE 0
      IGUID {FCF84A74-5211-4943-8AC0-AA0183D6486E}
      IID 1
      NAME "PART DRUMS"
      VOLPAN 1.000000 0.000000 1.000000 -1.000000
      SOFFS 0.00000000000000 0.00000000000000
      PLAYRATE 1.00000000000000 1 0.00000000000000 -1
      CHANMODE 0
      GUID {B43110F1-4E4E-41DF-BA91-F2AAD45BF818}
      <SOURCE MIDI
        HASDATA 1 480 QN
        POOLEDEVTS {DC24A090-9BE0-49D0-89EE-BB97303F464D}
        <X 0 0
          /wNQQVJUIERSVU1T
        >
        <X 0 0
          /wFbbWl4IDAgZHJ1bXMwXQ==
        >
        E 0 90 19 60
        <X 120 0
          /wFbbWl4IDEgZHJ1bXMwXQ==
        >
        <X 120 0
          /wFbbWl4IDIgZHJ1bXMwXQ==
        >
        <X 120 0
          /wFbbWl4IDMgZHJ1bXMwXQ==
        >
        E 1560 80 19 00
        E 480 90 19 60
        E 3360 80 19 00
        <X 1800 0
          /wFbcGxheV0=
        >
        E 120 90 18 60
        E 0 90 1f 60
        E 0 90 3e 60
        E 0 90 48 60
        E 0 90 4a 60
        E 0 90 54 60
        E 0 90 56 60
        E 0 90 60 60
        E 0 90 62 60
        E 120 80 18 00
        E 0 80 1f 00
        E 0 80 3e 00
        E 0 80 48 00
        E 0 80 4a 00
        E 0 80 54 00
        E 0 80 56 00
        E 0 80 60 00
        E 0 80 62 00
        E 360 90 18 60
        E 0 90 1f 60
        E 0 90 3e 60
        E 0 90 48 60
        E 0 90 4a 60
        E 0 90 54 60
        E 0 90 56 60
        E 0 90 60 60
        E 0 90 62 60
        E 120 80 18 00
        E 0 80 1f 00
        E 0 80 3e 00
        E 0 80 48 00
        E 0 80 4a 00
        E 0 80 54 00
        E 0 80 56 00
        E 0 80 60 00
        E 0 80 62 00
        E 360 90 18 60
        E 0 90 1f 60
        E 0 90 3e 60
        E 0 90 48 60
        E 0 90 4a 60
        E 0 90 54 60
        E 0 90 56 60
        E 0 90 60 60
        E 0 90 62 60
        E 120 80 18 00
        E 0 80 1f 00
        E 0 80 3e 00
        E 0 80 48 00
        E 0 80 4a 00
        E 0 80 54 00
        E 0 80 56 00
        E 0 80 60 00
        E 0 80 62 00
        E 360 90 18 60
        E 0 90 1f 60
        E 0 90 3e 60
        E 0 90 48 60
        E 0 90 4a 60
        E 0 90 54 60
        E 0 90 56 60
        E 0 90 60 60
        E 0 90 62 60
        E 120 80 18 00
        E 0 80 1f 00
        E 0 80 3e 00
        E 0 80 48 00
        E 0 80 4a 00
        E 0 80 54 00
        E 0 80 56 00
        E 0 80 60 00
        E 0 80 62 00
        E 360 90 18 60
        E 0 90 1f 60
        E 0 90 3e 60
        E 0 90 48 60
        E 0 90 4a 60
        E 0 90 54 60
        E 0 90 56 60
        E 0 90 60 60
        E 0 90 62 60
        E 120 80 18 00
        E 0 80 1f 00
        E 0 80 3e 00
        E 0 80 48 00
        E 0 80 4a 00
        E 0 80 54 00
        E 0 80 56 00
        E 0 80 60 00
        E 0 80 62 00
        E 360 90 18 60
        E 0 90 1f 60
        E 0 90 3e 60
        E 0 90 48 60
        E 0 90 4a 60
        E 0 90 54 60
        E 0 90 56 60
        E 0 90 60 60
        E 0 90 62 60
        E 120 80 18 00
        E 0 80 1f 00
        E 0 80 3e 00
        E 0 80 48 00
        E 0 80 4a 00
        E 0 80 54 00
        E 0 80 56 00
        E 0 80 60 00
        E 0 80 62 00
        E 360 90 18 60
        E 0 90 1f 60
        E 0 90 3e 60
        E 0 90 48 60
        E 0 90 4a 60
        E 0 90 54 60
        E 0 90 56 60
        E 0 90 60 60
        E 0 90 62 60
        E 120 80 18 00
        E 0 80 1f 00
        E 0 80 3e 00
        E 0 80 48 00
        E 0 80 4a 00
        E 0 80 54 00
        E 0 80 56 00
        E 0 80 60 00
        E 0 80 62 00
        E 360 90 18 60
        E 0 90 1f 60
        E 0 90 3e 60
        E 0 90 48 60
        E 0 90 4a 60
        E 0 90 54 60
        E 0 90 56 60
        E 0 90 60 60
        E 0 90 62 60
        E 120 80 18 00
        E 0 80 1f 00
        E 0 80 3e 00
        E 0 80 48 00
        E 0 80 4a 00
        E 0 80 54 00
        E 0 80 56 00
        E 0 80 60 00
        E 0 80 62 00
        E 120 90 18 60
        E 0 90 19 60
        E 0 90 1f 60
        E 0 90 54 60
        E 0 90 57 60
        E 0 90 60 60
        E 0 90 63 60
        E 120 80 18 00
        E 0 80 1f 00
        E 0 80 54 00
        E 0 80 57 00
        E 0 80 60 00
        E 0 80 63 00
        E 120 90 18 60
        E 0 90 3c 60
        E 0 90 48 60
        E 0 90 54 60
        E 0 90 60 60
        E 120 80 18 00
        E 0 80 3c 00
        E 0 80 48 00
        E 0 80 54 00
        E 0 80 60 00
        E 360 90 1a 60
        E 0 90 1f 60
        E 0 90 3d 60
        E 0 90 3f 60
        E 0 90 49 60
        E 0 90 4b 60
        E 0 90 55 60
        E 0 90 57 60
        E 0 90 61 60
        E 0 90 63 60
        E 120 80 1a 00
        E 0 80 1f 00
        E 0 80 3d 00
        E 0 80 3f 00
        E 0 80 49 00
        E 0 80 4b 00
        E 0 80 55 00
        E 0 80 57 00
        E 0 80 61 00
        E 0 80 63 00
        E 360 90 18 60
        E 0 90 1f 60
        E 0 90 3f 60
        E 0 90 48 60
        E 0 90 4b 60
        E 0 90 54 60
        E 0 90 57 60
        E 0 90 60 60
        E 0 90 63 60
        E 120 80 18 00
        E 0 80 1f 00
        E 0 80 3f 00
        E 0 80 48 00
        E 0 80 4b 00
        E 0 80 54 00
        E 0 80 57 00
        E 0 80 60 00
        E 0 80 63 00
        E 120 90 18 60
        E 0 90 54 60
        E 0 90 60 60
        E 120 80 18 00
        E 0 80 54 00
        E 0 80 60 00
        E 120 90 1a 60
        E 0 90 1f 60
        E 0 90 3d 60
        E 0 90 3f 60
        E 0 90 49 60
        E 0 90 4b 60
        E 0 90 55 60
        E 0 90 57 60
        E 0 90 61 60
        E 0 90 63 60
        E 120 80 1a 00
        E 0 80 1f 00
        E 0 80 3d 00
        E 0 80 3f 00
        E 0 80 49 00
        E 0 80 4b 00
        E 0 80 55 00
        E 0 80 57 00
        E 0 80 61 00
        E 0 80 63 00
        E 120 90 18 60
        E 0 90 54 60
        E 0 90 60 60
        E 120 80 18 00
        E 0 80 54 00
        E 0 80 60 00
        E 120 90 1f 60
        E 0 90 3f 60
        E 0 90 4b 60
        E 0 90 57 60
        E 0 90 63 60
        E 120 80 1f 00
        E 0 80 3f 00
        E 0 80 4b 00
        E 0 80 57 00
        E 0 80 63 00
        E 120 90 18 60
        E 0 90 54 60
        E 0 90 60 60
        E 120 80 18 00
        E 0 80 54 00
        E 0 80 60 00
        E 120 90 1a 60
        E 0 90 1f 60
        E 0 90 3d 60
        E 0 90 3f 60
        E 0 90 49 60
        E 0 90 4b 60
        E 0 90 55 60
        E 0 90 57 60
        E 0 90 61 60
        E 0 90 63 60
        E 120 80 1a 00
        E 0 80 1f 00
        E 0 80 3d 00
        E 0 80 3f 00
        E 0 80 49 00
        E 0 80 4b 00
        E 0 80 55 00
        E 0 80 57 00
        E 0 80 61 00
        E 0 80 63 00
        E 360 90 18 60
        E 0 90 1f 60
        E 0 90 3f 60
        E 0 90 48 60
        E 0 90 4b 60
        E 0 90 54 60
        E 0 90 57 60
        E 0 90 60 60
        E 0 90 63 60
        E 120 80 18 00
        E 0 80 1f 00
        E 0 80 3f 00
        E 0 80 48 00
        E 0 80 4b 00
        E 0 80 54 00
        E 0 80 57 00
        E 0 80 60 00
        E 0 80 63 00
        E 120 90 18 60
        E 0 90 54 60
        E 0 90 60 60
        E 120 80 18 00
        E 0 80 54 00
        E 0 80 60 00
        E 120 80 19 00
        E 0 90 1a 60
        E 0 90 3d 60
        E 0 90 49 60
        E 0 90 55 60
        E 0 90 61 60
        E 120 80 1a 00
        E 0 80 3d 00
        E 0 80 49 00
        E 0 80 55 00
        E 0 80 61 00
        E 120 90 1a 60
        E 0 90 33 60
        E 0 90 55 60
        E 0 90 58 60
        E 0 90 61 60
        E 0 90 64 60
        E 0 90 70 60
        E 120 80 1a 00
        E 0 80 33 00
        E 0 80 55 00
        E 0 80 58 00
        E 0 80 61 00
        E 0 80 64 00
        E 0 80 70 00
        E 120 90 18 60
        E 0 90 1f 60
        E 0 90 3e 60
        E 0 90 48 60
        E 0 90 4a 60
        E 0 90 54 60
        E 0 90 56 60
        E 0 90 60 60
        E 0 90 62 60
        E 120 80 18 00
        E 0 80 1f 00
        E 0 80 3e 00
        E 0 80 48 00
        E 0 80 4a 00
        E 0 80 54 00
        E 0 80 56 00
        E 0 80 60 00
        E 0 80 62 00
        E 360 90 18 60
        E 0 90 1f 60
        E 0 90 3e 60
        E 0 90 48 60
        E 0 90 4a 60
        E 0 90 54 60
        E 0 90 56 60
        E 0 90 60 60
        E 0 90 62 60
        E 120 80 18 00
        E 0 80 1f 00
        E 0 80 3e 00
        E 0 80 48 00
        E 0 80 4a 00
        E 0 80 54 00
        E 0 80 56 00
        E 0 80 60 00
        E 0 80 62 00
        E 360 90 18 60
        E 0 90 1f 60
        E 0 90 3e 60
        E 0 90 48 60
        E 0 90 4a 60
        E 0 90 54 60
        E 0 90 56 60
        E 0 90 60 60
        E 0 90 62 60
        E 120 80 18 00
        E 0 80 1f 00
        E 0 80 3e 00
        E 0 80 48 00
        E 0 80 4a 00
        E 0 80 54 00
        E 0 80 56 00
        E 0 80 60 00
        E 0 80 62 00
        E 360 90 18 60
        E 0 90 1f 60
        E 0 90 3e 60
        E 0 90 48 60
        E 0 90 4a 60
        E 0 90 54 60
        E 0 90 56 60
        E 0 90 60 60
        E 0 90 62 60
        E 120 80 18 00
        E 0 80 1f 00
        E 0 80 3e 00
        E 0 80 48 00
        E 0 80 4a 00
        E 0 80 54 00
        E 0 80 56 00
        E 0 80 60 00
        E 0 80 62 00
        E 360 90 18 60
        E 0 90 1f 60
        E 0 90 3e 60
        E 0 90 48 60
        E 0 90 4a 60
        E 0 90 54 60
        E 0 90 56 60
        E 0 90 60 60
        E 0 90 62 60
        E 120 80 18 00
        E 0 80 1f 00
        E 0 80 3e 00
        E 0 80 48 00
        E 0 80 4a 00
        E 0 80 54 00
        E 0 80 56 00
        E 0 80 60 00
        E 0 80 62 00
        E 360 90 18 60
        E 0 90 1f 60
        E 0 90 3e 60
        E 0 90 48 60
        E 0 90 4a 60
        E 0 90 54 60
        E 0 90 56 60
        E 0 90 60 60
        E 0 90 62 60
        E 120 80 18 00
        E 0 80 1f 00
        E 0 80 3e 00
        E 0 80 48 00
        E 0 80 4a 00
        E 0 80 54 00
        E 0 80 56 00
        E 0 80 60 00
        E 0 80 62 00
        E 360 90 18 60
        E 0 90 1f 60
        E 0 90 3e 60
        E 0 90 48 60
        E 0 90 4a 60
        E 0 90 54 60
        E 0 90 56 60
        E 0 90 60 60
        E 0 90 62 60
        E 120 80 18 00
        E 0 80 1f 00
        E 0 80 3e 00
        E 0 80 48 00
        E 0 80 4a 00
        E 0 80 54 00
        E 0 80 56 00
        E 0 80 60 00
        E 0 80 62 00
        E 360 90 18 60
        E 0 90 1f 60
        E 0 90 3e 60
        E 0 90 48 60
        E 0 90 4a 60
        E 0 90 54 60
        E 0 90 56 60
        E 0 90 60 60
        E 0 90 62 60
        E 120 80 18 00
        E 0 80 1f 00
        E 0 80 3e 00
        E 0 80 48 00
        E 0 80 4a 00
        E 0 80 54 00
        E 0 80 56 00
        E 0 80 60 00
        E 0 80 62 00
        E 120 90 18 60
        E 0 90 19 60
        E 0 90 1f 60
        E 0 90 54 60
        E 0 90 57 60
        E 0 90 60 60
        E 0 90 63 60
        E 120 80 18 00
        E 0 80 1f 00
        E 0 80 54 00
        E 0 80 57 00
        E 0 80 60 00
        E 0 80 63 00
        E 120 90 18 60
        E 0 90 3c 60
        E 0 90 48 60
        E 0 90 54 60
        E 0 90 60 60
        E 120 80 18 00
        E 0 80 3c 00
        E 0 80 48 00
        E 0 80 54 00
        E 0 80 60 00
        E 360 90 1a 60
        E 0 90 1f 60
        E 0 90 3d 60
        E 0 90 3f 60
        E 0 90 49 60
        E 0 90 4b 60
        E 0 90 55 60
        E 0 90 57 60
        E 0 90 61 60
        E 0 90 63 60
        E 120 80 1a 00
        E 0 80 1f 00
        E 0 80 3d 00
        E 0 80 3f 00
        E 0 80 49 00
        E 0 80 4b 00
        E 0 80 55 00
        E 0 80 57 00
        E 0 80 61 00
        E 0 80 63 00
        E 360 90 18 60
        E 0 90 1f 60
        E 0 90 3f 60
        E 0 90 48 60
        E 0 90 4b 60
        E 0 90 54 60
        E 0 90 57 60
        E 0 90 60 60
        E 0 90 63 60
        E 120 80 18 00
        E 0 80 1f 00
        E 0 80 3f 00
        E 0 80 48 00
        E 0 80 4b 00
        E 0 80 54 00
        E 0 80 57 00
        E 0 80 60 00
        E 0 80 63 00
        E 120 90 18 60
        E 0 90 54 60
        E 0 90 60 60
        E 120 80 18 00
        E 0 80 54 00
        E 0 80 60 00
        E 120 90 1a 60
        E 0 90 1f 60
        E 0 90 3d 60
        E 0 90 3f 60
        E 0 90 49 60
        E 0 90 4b 60
        E 0 90 55 60
        E 0 90 57 60
        E 0 90 61 60
        E 0 90 63 60
        E 120 80 1a 00
        E 0 80 1f 00
        E 0 80 3d 00
        E 0 80 3f 00
        E 0 80 49 00
        E 0 80 4b 00
        E 0 80 55 00
        E 0 80 57 00
        E 0 80 61 00
        E 0 80 63 00
        E 120 90 18 60
        E 0 90 54 60
        E 0 90 60 60
        E 120 80 18 00
        E 0 80 54 00
        E 0 80 60 00
        E 120 90 1f 60
        E 0 90 3f 60
        E 0 90 4b 60
        E 0 90 57 60
        E 0 90 63 60
        E 0 90 78 60
        E 0 90 79 60
        E 0 90 7a 60
        E 0 90 7b 60
        E 0 90 7c 60
        E 120 80 1f 00
        E 0 80 3f 00
        E 0 80 4b 00
        E 0 80 57 00
        E 0 80 63 00
        E 120 90 18 60
        E 0 90 54 60
        E 0 90 60 60
        E 120 80 18 00
        E 0 80 54 00
        E 0 80 60 00
        E 120 90 1a 60
        E 0 90 1f 60
        E 0 90 3d 60
        E 0 90 3f 60
        E 0 90 49 60
        E 0 90 4b 60
        E 0 90 55 60
        E 0 90 57 60
        E 0 90 61 60
        E 0 90 63 60
        E 120 80 1a 00
        E 0 80 1f 00
        E 0 80 3d 00
        E 0 80 3f 00
        E 0 80 49 00
        E 0 80 4b 00
        E 0 80 55 00
        E 0 80 57 00
        E 0 80 61 00
        E 0 80 63 00
        E 360 90 18 60
        E 0 90 1f 60
        E 0 90 3f 60
        E 0 90 48 60
        E 0 90 4b 60
        E 0 90 54 60
        E 0 90 57 60
        E 0 90 60 60
        E 0 90 63 60
        E 120 80 18 00
        E 0 80 1f 00
        E 0 80 3f 00
        E 0 80 48 00
        E 0 80 4b 00
        E 0 80 54 00
        E 0 80 57 00
        E 0 80 60 00
        E 0 80 63 00
        E 120 90 18 60
        E 0 90 54 60
        E 0 90 60 60
        E 120 80 18 00
        E 0 80 54 00
        E 0 80 60 00
        E 120 90 1b 60
        E 0 90 3d 60
        E 0 90 49 60
        E 0 90 55 60
        E 0 90 61 60
        E 120 80 1b 00
        E 0 80 3d 00
        E 0 80 49 00
        E 0 80 55 00
        E 0 80 61 00
        E 0 90 1a 60
        E 0 90 61 60
        E 120 80 1a 00
        E 0 80 61 00
        E 0 90 1b 60
        E 0 90 55 60
        E 0 90 61 60
        E 120 80 1b 00
        E 0 80 55 00
        E 0 80 61 00
        E 0 90 1a 60
        E 0 90 61 60
        <X 120 0
          /wFbaW50ZW5zZV0=
        >
        E 0 80 78 00
        E 0 80 79 00
        E 0 80 7a 00
        E 0 80 7b 00
        E 0 80 7c 00
        E 0 80 1a 00
        E 0 80 61 00
        E 0 90 18 60
        E 0 90 1f 60
        E 0 90 3f 60
        E 0 90 48 60
        E 0 90 4b 60
        E 0 90 54 60
        E 0 90 57 60
        E 0 90 60 60
        E 0 90 63 60
        E 120 80 18 00
        E 0 80 1f 00
        E 0 80 3f 00
        E 0 80 48 00
        E 0 80 4b 00
        E 0 80 54 00
        E 0 80 57 00
        E 0 80 60 00
        E 0 80 63 00
        E 120 90 18 60
        E 0 90 54 60
        E 0 90 60 60
        E 120 80 18 00
        E 0 80 54 00
        E 0 80 60 00
        E 120 90 1a 60
        E 0 90 1f 60
        E 0 90 3d 60
        E 0 90 3f 60
        E 0 90 49 60
        E 0 90 4b 60
        E 0 90 55 60
        E 0 90 57 60
        E 0 90 61 60
        E 0 90 63 60
        E 120 80 1a 00
        E 0 80 1f 00
        E 0 80 3d 00
        E 0 80 3f 00
        E 0 80 49 00
        E 0 80 4b 00
        E 0 80 55 00
        E 0 80 57 00
        E 0 80 61 00
        E 0 80 63 00
        E 360 90 18 60
        E 0 90 1f 60
        E 0 90 3f 60
        E 0 90 48 60
        E 0 90 4b 60
        E 0 90 54 60
        E 0 90 57 60
        E 0 90 60 60
        E 0 90 63 60
        E 120 80 18 00
        E 0 80 1f 00
        E 0 80 3f 00
        E 0 80 48 00
        E 0 80 4b 00
        E 0 80 54 00
        E 0 80 57 00
        E 0 80 60 00
        E 0 80 63 00
        E 120 90 18 60
        E 0 90 54 60
        E 0 90 60 60
        E 120 80 18 00
        E 0 80 54 00
        E 0 80 60 00
        E 120 90 1a 60
        E 0 90 1f 60
        E 0 90 3d 60
        E 0 90 3f 60
        E 0 90 49 60
        E 0 90 4b 60
        E 0 90 55 60
        E 0 90 57 60
        E 0 90 61 60
        E 0 90 63 60
        E 120 80 1a 00
        E 0 80 1f 00
        E 0 80 3d 00
        E 0 80 3f 00
        E 0 80 49 00
        E 0 80 4b 00
        E 0 80 55 00
        E 0 80 57 00
        E 0 80 61 00
        E 0 80 63 00
        E 120 90 18 60
        E 0 90 33 60
        E 0 90 54 60
        E 0 90 58 60
        E 0 90 60 60
        E 0 90 64 60
        E 0 90 70 60
        E 120 80 18 00
        E 0 80 33 00
        E 0 80 54 00
        E 0 80 58 00
        E 0 80 60 00
        E 0 80 64 00
        E 0 80 70 00
        E 120 90 18 60
        E 0 90 1f 60
        E 0 90 3f 60
        E 0 90 48 60
        E 0 90 4b 60
        E 0 90 54 60
        E 0 90 57 60
        E 0 90 60 60
        E 0 90 63 60
        E 120 80 18 00
        E 0 80 1f 00
        E 0 80 3f 00
        E 0 80 48 00
        E 0 80 4b 00
        E 0 80 54 00
        E 0 80 57 00
        E 0 80 60 00
        E 0 80 63 00
        E 120 90 18 60
        E 0 90 54 60
        E 0 90 60 60
        E 120 80 18 00
        E 0 80 54 00
        E 0 80 60 00
        E 120 90 1a 60
        E 0 90 1f 60
        E 0 90 3d 60
        E 0 90 3f 60
        E 0 90 49 60
        E 0 90 4b 60
        E 0 90 55 60
        E 0 90 57 60
        E 0 90 61 60
        E 0 90 63 60
        E 120 80 1a 00
        E 0 80 1f 00
        E 0 80 3d 00
        E 0 80 3f 00
        E 0 80 49 00
        E 0 80 4b 00
        E 0 80 55 00
        E 0 80 57 00
        E 0 80 61 00
        E 0 80 63 00
        E 360 90 18 60
        E 0 90 1f 60
        E 0 90 3f 60
        E 0 90 48 60
        E 0 90 4b 60
        E 0 90 54 60
        E 0 90 57 60
        E 0 90 60 60
        E 0 90 63 60
        E 120 80 18 00
        E 0 80 1f 00
        E 0 80 3f 00
        E 0 80 48 00
        E 0 80 4b 00
        E 0 80 54 00
        E 0 80 57 00
        E 0 80 60 00
        E 0 80 63 00
        E 120 90 18 60
        E 0 90 54 60
        E 0 90 60 60
        E 120 80 18 00
        E 0 80 54 00
        E 0 80 60 00
        E 120 90 1a 60
        E 0 90 1f 60
        E 0 90 3d 60
        E 0 90 3f 60
        E 0 90 49 60
        E 0 90 4b 60
        E 0 90 55 60
        E 0 90 57 60
        E 0 90 61 60
        E 0 90 63 60
        E 120 80 1a 00
        E 0 80 1f 00
        E 0 80 3d 00
        E 0 80 3f 00
        E 0 80 49 00
        E 0 80 4b 00
        E 0 80 55 00
        E 0 80 57 00
        E 0 80 61 00
        E 0 80 63 00
        E 120 90 18 60
        E 0 90 54 60
        E 0 90 60 60
        E 120 80 18 00
        E 0 80 54 00
        E 0 80 60 00
        E 120 90 18 60
        E 0 90 1f 60
        E 0 90 3f 60
        E 0 90 48 60
        E 0 90 4b 60
        E 0 90 54 60
        E 0 90 57 60
        E 0 90 60 60
        E 0 90 63 60
        E 120 80 18 00
        E 0 80 1f 00
        E 0 80 3f 00
        E 0 80 48 00
        E 0 80 4b 00
        E 0 80 54 00
        E 0 80 57 00
        E 0 80 60 00
        E 0 80 63 00
        E 360 90 1a 60
        E 0 90 1f 60
        E 0 90 3d 60
        E 0 90 3f 60
        E 0 90 49 60
        E 0 90 4b 60
        E 0 90 55 60
        E 0 90 57 60
        E 0 90 61 60
        E 0 90 63 60
        E 120 80 1a 00
        E 0 80 1f 00
        E 0 80 3d 00
        E 0 80 3f 00
        E 0 80 49 00
        E 0 80 4b 00
        E 0 80 55 00
        E 0 80 57 00
        E 0 80 61 00
        E 0 80 63 00
        E 120 90 18 60
        E 0 90 54 60
        E 0 90 60 60
        E 120 80 18 00
        E 0 80 54 00
        E 0 80 60 00
        E 120 90 18 60
        E 0 90 1f 60
        E 0 90 3f 60
        E 0 90 48 60
        E 0 90 4b 60
        E 0 90 54 60
        E 0 90 57 60
        E 0 90 60 60
        E 0 90 63 60
        E 120 80 18 00
        E 0 80 1f 00
        E 0 80 3f 00
        E 0 80 48 00
        E 0 80 4b 00
        E 0 80 54 00
        E 0 80 57 00
        E 0 80 60 00
        E 0 80 63 00
        E 120 90 18 60
        E 0 90 54 60
        E 0 90 60 60
        E 120 80 18 00
        E 0 80 54 00
        E 0 80 60 00
        E 120 90 1a 60
        E 0 90 1f 60
        E 0 90 3d 60
        E 0 90 3f 60
        E 0 90 49 60
        E 0 90 4b 60
        E 0 90 55 60
        E 0 90 57 60
        E 0 90 61 60
        E 0 90 63 60
        E 120 80 1a 00
        E 0 80 1f 00
        E 0 80 3d 00
        E 0 80 3f 00
        E 0 80 49 00
        E 0 80 4b 00
        E 0 80 55 00
        E 0 80 57 00
        E 0 80 61 00
        E 0 80 63 00
        E 360 90 18 60
        E 0 90 1f 60
        E 0 90 3f 60
        E 0 90 48 60
        E 0 90 4b 60
        E 0 90 54 60
        E 0 90 57 60
        E 0 90 60 60
        E 0 90 63 60
        E 120 80 18 00
        E 0 80 1f 00
        E 0 80 3f 00
        E 0 80 48 00
        E 0 80 4b 00
        E 0 80 54 00
        E 0 80 57 00
        E 0 80 60 00
        E 0 80 63 00
        E 120 90 18 60
        E 0 90 54 60
        E 0 90 60 60
        E 120 80 18 00
        E 0 80 54 00
        E 0 80 60 00
        E 120 90 1a 60
        E 0 90 1f 60
        E 0 90 3d 60
        E 0 90 3f 60
        E 0 90 49 60
        E 0 90 4b 60
        E 0 90 55 60
        E 0 90 57 60
        E 0 90 61 60
        E 0 90 63 60
        E 120 80 1a 00
        E 0 80 1f 00
        E 0 80 3d 00
        E 0 80 3f 00
        E 0 80 49 00
        E 0 80 4b 00
        E 0 80 55 00
        E 0 80 57 00
        E 0 80 61 00
        E 0 80 63 00
        E 120 90 18 60
        E 0 90 54 60
        E 0 90 60 60
        E 120 80 18 00
        E 0 80 54 00
        E 0 80 60 00
        E 120 90 1f 60
        E 0 90 3f 60
        E 0 90 4b 60
        E 0 90 57 60
        E 0 90 63 60
        E 120 80 1f 00
        E 0 80 3f 00
        E 0 80 4b 00
        E 0 80 57 00
        E 0 80 63 00
        E 120 90 18 60
        E 0 90 54 60
        E 0 90 60 60
        E 120 80 18 00
        E 0 80 54 00
        E 0 80 60 00
        E 120 90 1a 60
        E 0 90 1f 60
        E 0 90 3d 60
        E 0 90 3f 60
        E 0 90 49 60
        E 0 90 4b 60
        E 0 90 55 60
        E 0 90 57 60
        E 0 90 61 60
        E 0 90 63 60
        E 120 80 1a 00
        E 0 80 1f 00
        E 0 80 3d 00
        E 0 80 3f 00
        E 0 80 49 00
        E 0 80 4b 00
        E 0 80 55 00
        E 0 80 57 00
        E 0 80 61 00
        E 0 80 63 00
        E 0 90 1a 60
        E 0 90 61 60
        E 120 80 1a 00
        E 0 80 61 00
        E 0 90 1b 60
        E 0 90 55 60
        E 0 90 61 60
        E 120 80 1b 00
        E 0 80 55 00
        E 0 80 61 00
        E 0 90 1a 60
        E 0 90 61 60
        E 120 80 1a 00
        E 0 80 61 00
        E 0 90 18 60
        E 0 90 1f 60
        E 0 90 3f 60
        E 0 90 48 60
        E 0 90 4b 60
        E 0 90 54 60
        E 0 90 57 60
        E 0 90 60 60
        E 0 90 63 60
        E 0 90 74 60
        E 120 80 18 00
        E 0 80 1f 00
        E 0 80 3f 00
        E 0 80 48 00
        E 0 80 4b 00
        E 0 80 54 00
        E 0 80 57 00
        E 0 80 60 00
        E 0 80 63 00
        E 120 90 18 60
        E 0 90 54 60
        E 0 90 60 60
        E 120 80 18 00
        E 0 80 54 00
        E 0 80 60 00
        E 120 90 1a 60
        E 0 90 1f 60
        E 0 90 3d 60
        E 0 90 3f 60
        E 0 90 49 60
        E 0 90 4b 60
        E 0 90 55 60
        E 0 90 57 60
        E 0 90 61 60
        E 0 90 63 60
        E 120 80 1a 00
        E 0 80 1f 00
        E 0 80 3d 00
        E 0 80 3f 00
        E 0 80 49 00
        E 0 80 4b 00
        E 0 80 55 00
        E 0 80 57 00
        E 0 80 61 00
        E 0 80 63 00
        E 360 90 18 60
        E 0 90 1f 60
        E 0 90 3f 60
        E 0 90 48 60
        E 0 90 4b 60
        E 0 90 54 60
        E 0 90 57 60
        E 0 90 60 60
        E 0 90 63 60
        E 120 80 18 00
        E 0 80 1f 00
        E 0 80 3f 00
        E 0 80 48 00
        E 0 80 4b 00
        E 0 80 54 00
        E 0 80 57 00
        E 0 80 60 00
        E 0 80 63 00
        E 120 90 18 60
        E 0 90 54 60
        E 0 90 60 60
        E 120 80 18 00
        E 0 80 54 00
        E 0 80 60 00
        E 120 90 1a 60
        E 0 90 1f 60
        E 0 90 3d 60
        E 0 90 3f 60
        E 0 90 49 60
        E 0 90 4b 60
        E 0 90 55 60
        E 0 90 57 60
        E 0 90 61 60
        E 0 90 63 60
        E 120 80 1a 00
        E 0 80 1f 00
        E 0 80 3d 00
        E 0 80 3f 00
        E 0 80 49 00
        E 0 80 4b 00
        E 0 80 55 00
        E 0 80 57 00
        E 0 80 61 00
        E 0 80 63 00
        E 120 90 18 60
        E 0 90 33 60
        E 0 90 54 60
        E 0 90 58 60
        E 0 90 60 60
        E 0 90 64 60
        E 0 90 70 60
        E 120 80 18 00
        E 0 80 33 00
        E 0 80 54 00
        E 0 80 58 00
        E 0 80 60 00
        E 0 80 64 00
        E 0 80 70 00
        E 120 90 18 60
        E 0 90 1f 60
        E 0 90 3f 60
        E 0 90 48 60
        E 0 90 4b 60
        E 0 90 54 60
        E 0 90 57 60
        E 0 90 60 60
        E 0 90 63 60
        E 120 80 18 00
        E 0 80 1f 00
        E 0 80 3f 00
        E 0 80 48 00
        E 0 80 4b 00
        E 0 80 54 00
        E 0 80 57 00
        E 0 80 60 00
        E 0 80 63 00
        E 120 90 18 60
        E 0 90 54 60
        E 0 90 60 60
        E 120 80 18 00
        E 0 80 54 00
        E 0 80 60 00
        E 120 90 1a 60
        E 0 90 1f 60
        E 0 90 3d 60
        E 0 90 3f 60
        E 0 90 49 60
        E 0 90 4b 60
        E 0 90 55 60
        E 0 90 57 60
        E 0 90 61 60
        E 0 90 63 60
        E 120 80 1a 00
        E 0 80 1f 00
        E 0 80 3d 00
        E 0 80 3f 00
        E 0 80 49 00
        E 0 80 4b 00
        E 0 80 55 00
        E 0 80 57 00
        E 0 80 61 00
        E 0 80 63 00
        E 360 90 18 60
        E 0 90 1f 60
        E 0 90 3f 60
        E 0 90 48 60
        E 0 90 4b 60
        E 0 90 54 60
        E 0 90 57 60
        E 0 90 60 60
        E 0 90 63 60
        E 120 80 18 00
        E 0 80 1f 00
        E 0 80 3f 00
        E 0 80 48 00
        E 0 80 4b 00
        E 0 80 54 00
        E 0 80 57 00
        E 0 80 60 00
        E 0 80 63 00
        E 120 90 18 60
        E 0 90 54 60
        E 0 90 60 60
        E 120 80 18 00
        E 0 80 54 00
        E 0 80 60 00
        E 120 90 1a 60
        E 0 90 1f 60
        E 0 90 3d 60
        E 0 90 3f 60
        E 0 90 49 60
        E 0 90 4b 60
        E 0 90 55 60
        E 0 90 57 60
        E 0 90 61 60
        E 0 90 63 60
        E 120 80 1a 00
        E 0 80 1f 00
        E 0 80 3d 00
        E 0 80 3f 00
        E 0 80 49 00
        E 0 80 4b 00
        E 0 80 55 00
        E 0 80 57 00
        E 0 80 61 00
        E 0 80 63 00
        E 120 90 18 60
        E 0 90 54 60
        E 0 90 60 60
        E 120 80 18 00
        E 0 80 54 00
        E 0 80 60 00
        E 120 90 18 60
        E 0 90 1f 60
        E 0 90 3f 60
        E 0 90 48 60
        E 0 90 4b 60
        E 0 90 54 60
        E 0 90 57 60
        E 0 90 60 60
        E 0 90 63 60
        E 120 80 74 00
        E 0 80 18 00
        E 0 80 1f 00
        E 0 80 3f 00
        E 0 80 48 00
        E 0 80 4b 00
        E 0 80 54 00
        E 0 80 57 00
        E 0 80 60 00
        E 0 80 63 00
        E 360 90 1a 60
        E 0 90 1f 60
        E 0 90 3d 60
        E 0 90 3f 60
        E 0 90 49 60
        E 0 90 4b 60
        E 0 90 55 60
        E 0 90 57 60
        E 0 90 61 60
        E 0 90 63 60
        E 120 80 1a 00
        E 0 80 1f 00
        E 0 80 3d 00
        E 0 80 3f 00
        E 0 80 49 00
        E 0 80 4b 00
        E 0 80 55 00
        E 0 80 57 00
        E 0 80 61 00
        E 0 80 63 00
        E 120 90 18 60
        E 0 90 54 60
        E 0 90 60 60
        E 120 80 18 00
        E 0 80 54 00
        E 0 80 60 00
        E 120 90 18 60
        E 0 90 1f 60
        E 0 90 3f 60
        E 0 90 48 60
        E 0 90 4b 60
        E 0 90 54 60
        E 0 90 57 60
        E 0 90 60 60
        E 0 90 63 60
        E 120 80 18 00
        E 0 80 1f 00
        E 0 80 3f 00
        E 0 80 48 00
        E 0 80 4b 00
        E 0 80 54 00
        E 0 80 57 00
        E 0 80 60 00
        E 0 80 63 00
        E 120 90 18 60
        E 0 90 54 60
        E 0 90 60 60
        E 120 80 18 00
        E 0 80 54 00
        E 0 80 60 00
        E 120 90 1a 60
        E 0 90 1f 60
        E 0 90 3d 60
        E 0 90 3f 60
        E 0 90 49 60
        E 0 90 4b 60
        E 0 90 55 60
        E 0 90 57 60
        E 0 90 61 60
        E 0 90 63 60
        E 120 80 1a 00
        E 0 80 1f 00
        E 0 80 3d 00
        E 0 80 3f 00
        E 0 80 49 00
        E 0 80 4b 00
        E 0 80 55 00
        E 0 80 57 00
        E 0 80 61 00
        E 0 80 63 00
        E 360 90 18 60
        E 0 90 1f 60
        E 0 90 3f 60
        E 0 90 48 60
        E 0 90 4b 60
        E 0 90 54 60
        E 0 90 57 60
        E 0 90 60 60
        E 0 90 63 60
        E 0 90 78 60
        E 0 90 79 60
        E 0 90 7a 60
        E 0 90 7b 60
        E 0 90 7c 60
        E 120 80 18 00
        E 0 80 1f 00
        E 0 80 3f 00
        E 0 80 48 00
        E 0 80 4b 00
        E 0 80 54 00
        E 0 80 57 00
        E 0 80 60 00
        E 0 80 63 00
        E 120 90 18 60
        E 0 90 54 60
        E 0 90 60 60
        E 120 80 18 00
        E 0 80 54 00
        E 0 80 60 00
        E 120 90 1a 60
        E 0 90 1f 60
        E 0 90 3d 60
        E 0 90 3f 60
        E 0 90 49 60
        E 0 90 4b 60
        E 0 90 55 60
        E 0 90 57 60
        E 0 90 61 60
        E 0 90 63 60
        E 120 80 1a 00
        E 0 80 1f 00
        E 0 80 3d 00
        E 0 80 3f 00
        E 0 80 49 00
        E 0 80 4b 00
        E 0 80 55 00
        E 0 80 57 00
        E 0 80 61 00
        E 0 80 63 00
        E 120 90 18 60
        E 0 90 54 60
        E 0 90 60 60
        E 120 80 18 00
        E 0 80 54 00
        E 0 80 60 00
        E 120 90 1f 60
        E 0 90 3f 60
        E 0 90 4b 60
        E 0 90 57 60
        E 0 90 63 60
        E 120 80 1f 00
        E 0 80 3f 00
        E 0 80 4b 00
        E 0 80 57 00
        E 0 80 63 00
        E 120 90 18 60
        E 0 90 54 60
        E 0 90 60 60
        E 120 80 18 00
        E 0 80 54 00
        E 0 80 60 00
        E 120 90 1a 60
        E 0 90 1f 60
        E 0 90 3d 60
        E 0 90 3f 60
        E 0 90 49 60
        E 0 90 4b 60
        E 0 90 55 60
        E 0 90 57 60
        E 0 90 61 60
        E 0 90 63 60
        E 120 80 1a 00
        E 0 80 1f 00
        E 0 80 3d 00
        E 0 80 3f 00
        E 0 80 49 00
        E 0 80 4b 00
        E 0 80 55 00
        E 0 80 57 00
        E 0 80 61 00
        E 0 80 63 00
        E 0 90 1a 60
        E 0 90 61 60
        E 120 80 1a 00
        E 0 80 61 00
        E 0 90 1b 60
        E 0 90 55 60
        E 0 90 61 60
        E 120 80 1b 00
        E 0 80 55 00
        E 0 80 61 00
        E 0 90 1a 60
        E 0 90 61 60
        E 120 80 78 00
        E 0 80 79 00
        E 0 80 7a 00
        E 0 80 7b 00
        E 0 80 7c 00
        E 0 80 1a 00
        E 0 80 61 00
        E 0 90 18 60
        E 0 90 1f 60
        E 0 90 3f 60
        E 0 90 48 60
        E 0 90 4b 60
        E 0 90 54 60
        E 0 90 57 60
        E 0 90 60 60
        E 0 90 63 60
        E 120 80 18 00
        E 0 80 1f 00
        E 0 80 3f 00
        E 0 80 48 00
        E 0 80 4b 00
        E 0 80 54 00
        E 0 80 57 00
        E 0 80 60 00
        E 0 80 63 00
        E 120 90 18 60
        E 0 90 54 60
        E 0 90 60 60
        E 120 80 18 00
        E 0 80 54 00
        E 0 80 60 00
        E 120 90 1a 60
        E 0 90 1f 60
        E 0 90 3d 60
        E 0 90 3f 60
        E 0 90 49 60
        E 0 90 4b 60
        E 0 90 55 60
        E 0 90 57 60
        E 0 90 61 60
        E 0 90 63 60
        E 120 80 1a 00
        E 0 80 1f 00
        E 0 80 3d 00
        E 0 80 3f 00
        E 0 80 49 00
        E 0 80 4b 00
        E 0 80 55 00
        E 0 80 57 00
        E 0 80 61 00
        E 0 80 63 00
        E 360 90 18 60
        E 0 90 1f 60
        E 0 90 3f 60
        E 0 90 48 60
        E 0 90 4b 60
        E 0 90 54 60
        E 0 90 57 60
        E 0 90 60 60
        E 0 90 63 60
        E 120 80 18 00
        E 0 80 1f 00
        E 0 80 3f 00
        E 0 80 48 00
        E 0 80 4b 00
        E 0 80 54 00
        E 0 80 57 00
        E 0 80 60 00
        E 0 80 63 00
        E 120 90 18 60
        E 0 90 54 60
        E 0 90 60 60
        E 120 80 18 00
        E 0 80 54 00
        E 0 80 60 00
        E 120 90 1a 60
        E 0 90 1f 60
        E 0 90 3d 60
        E 0 90 3f 60
        E 0 90 49 60
        E 0 90 4b 60
        E 0 90 55 60
        E 0 90 57 60
        E 0 90 61 60
        E 0 90 63 60
        E 120 80 1a 00
        E 0 80 1f 00
        E 0 80 3d 00
        E 0 80 3f 00
        E 0 80 49 00
        E 0 80 4b 00
        E 0 80 55 00
        E 0 80 57 00
        E 0 80 61 00
        E 0 80 63 00
        E 120 90 18 60
        E 0 90 33 60
        E 0 90 54 60
        E 0 90 58 60
        E 0 90 60 60
        E 0 90 64 60
        E 0 90 70 60
        E 120 80 18 00
        E 0 80 33 00
        E 0 80 54 00
        E 0 80 58 00
        E 0 80 60 00
        E 0 80 64 00
        E 0 80 70 00
        E 120 90 18 60
        E 0 90 1f 60
        E 0 90 3f 60
        E 0 90 48 60
        E 0 90 4b 60
        E 0 90 54 60
        E 0 90 57 60
        E 0 90 60 60
        E 0 90 63 60
        E 120 80 18 00
        E 0 80 1f 00
        E 0 80 3f 00
        E 0 80 48 00
        E 0 80 4b 00
        E 0 80 54 00
        E 0 80 57 00
        E 0 80 60 00
        E 0 80 63 00
        E 120 90 18 60
        E 0 90 54 60
        E 0 90 60 60
        E 120 80 18 00
        E 0 80 54 00
        E 0 80 60 00
        E 120 90 1a 60
        E 0 90 1f 60
        E 0 90 3d 60
        E 0 90 3f 60
        E 0 90 49 60
        E 0 90 4b 60
        E 0 90 55 60
        E 0 90 57 60
        E 0 90 61 60
        E 0 90 63 60
        E 120 80 1a 00
        E 0 80 1f 00
        E 0 80 3d 00
        E 0 80 3f 00
        E 0 80 49 00
        E 0 80 4b 00
        E 0 80 55 00
        E 0 80 57 00
        E 0 80 61 00
        E 0 80 63 00
        E 360 90 18 60
        E 0 90 1f 60
        E 0 90 3f 60
        E 0 90 48 60
        E 0 90 4b 60
        E 0 90 54 60
        E 0 90 57 60
        E 0 90 60 60
        E 0 90 63 60
        E 120 80 18 00
        E 0 80 1f 00
        E 0 80 3f 00
        E 0 80 48 00
        E 0 80 4b 00
        E 0 80 54 00
        E 0 80 57 00
        E 0 80 60 00
        E 0 80 63 00
        E 120 90 18 60
        E 0 90 54 60
        E 0 90 60 60
        E 120 80 18 00
        E 0 80 54 00
        E 0 80 60 00
        E 120 90 1a 60
        E 0 90 1f 60
        E 0 90 3d 60
        E 0 90 3f 60
        E 0 90 49 60
        E 0 90 4b 60
        E 0 90 55 60
        E 0 90 57 60
        E 0 90 61 60
        E 0 90 63 60
        E 120 80 1a 00
        E 0 80 1f 00
        E 0 80 3d 00
        E 0 80 3f 00
        E 0 80 49 00
        E 0 80 4b 00
        E 0 80 55 00
        E 0 80 57 00
        E 0 80 61 00
        E 0 80 63 00
        E 120 90 18 60
        E 0 90 54 60
        E 0 90 60 60
        E 120 80 18 00
        E 0 80 54 00
        E 0 80 60 00
        E 120 90 18 60
        E 0 90 1f 60
        E 0 90 3f 60
        E 0 90 48 60
        E 0 90 4b 60
        E 0 90 54 60
        E 0 90 57 60
        E 0 90 60 60
        E 0 90 63 60
        E 120 80 18 00
        E 0 80 1f 00
        E 0 80 3f 00
        E 0 80 48 00
        E 0 80 4b 00
        E 0 80 54 00
        E 0 80 57 00
        E 0 80 60 00
        E 0 80 63 00
        E 360 90 1a 60
        E 0 90 1f 60
        E 0 90 3d 60
        E 0 90 3f 60
        E 0 90 49 60
        E 0 90 4b 60
        E 0 90 55 60
        E 0 90 57 60
        E 0 90 61 60
        E 0 90 63 60
        E 120 80 1a 00
        E 0 80 1f 00
        E 0 80 3d 00
        E 0 80 3f 00
        E 0 80 49 00
        E 0 80 4b 00
        E 0 80 55 00
        E 0 80 57 00
        E 0 80 61 00
        E 0 80 63 00
        E 120 90 18 60
        E 0 90 54 60
        E 0 90 60 60
        E 120 80 18 00
        E 0 80 54 00
        E 0 80 60 00
        E 120 90 18 60
        E 0 90 1f 60
        E 0 90 3f 60
        E 0 90 48 60
        E 0 90 4b 60
        E 0 90 54 60
        E 0 90 57 60
        E 0 90 60 60
        E 0 90 63 60
        E 120 80 18 00
        E 0 80 1f 00
        E 0 80 3f 00
        E 0 80 48 00
        E 0 80 4b 00
        E 0 80 54 00
        E 0 80 57 00
        E 0 80 60 00
        E 0 80 63 00
        E 120 90 18 60
        E 0 90 54 60
        E 0 90 60 60
        E 120 80 18 00
        E 0 80 54 00
        E 0 80 60 00
        E 120 90 1a 60
        E 0 90 1f 60
        E 0 90 3d 60
        E 0 90 3f 60
        E 0 90 49 60
        E 0 90 4b 60
        E 0 90 55 60
        E 0 90 57 60
        E 0 90 61 60
        E 0 90 63 60
        E 120 80 1a 00
        E 0 80 1f 00
        E 0 80 3d 00
        E 0 80 3f 00
        E 0 80 49 00
        E 0 80 4b 00
        E 0 80 55 00
        E 0 80 57 00
        E 0 80 61 00
        E 0 80 63 00
        E 360 90 18 60
        E 0 90 1f 60
        E 0 90 3f 60
        E 0 90 48 60
        E 0 90 4b 60
        E 0 90 54 60
        E 0 90 57 60
        E 0 90 60 60
        E 0 90 63 60
        E 120 80 18 00
        E 0 80 1f 00
        E 0 80 3f 00
        E 0 80 48 00
        E 0 80 4b 00
        E 0 80 54 00
        E 0 80 57 00
        E 0 80 60 00
        E 0 80 63 00
        E 120 90 18 60
        E 0 90 54 60
        E 0 90 60 60
        E 120 80 18 00
        E 0 80 54 00
        E 0 80 60 00
        E 120 90 1a 60
        E 0 90 1f 60
        E 0 90 3d 60
        E 0 90 3f 60
        E 0 90 49 60
        E 0 90 4b 60
        E 0 90 55 60
        E 0 90 57 60
        E 0 90 61 60
        E 0 90 63 60
        E 120 80 1a 00
        E 0 80 1f 00
        E 0 80 3d 00
        E 0 80 3f 00
        E 0 80 49 00
        E 0 80 4b 00
        E 0 80 55 00
        E 0 80 57 00
        E 0 80 61 00
        E 0 80 63 00
        E 120 90 18 60
        E 0 90 54 60
        E 0 90 60 60
        E 120 80 18 00
        E 0 80 54 00
        E 0 80 60 00
        E 120 90 1f 60
        E 0 90 3f 60
        E 0 90 4b 60
        E 0 90 57 60
        E 0 90 63 60
        E 120 80 1f 00
        E 0 80 3f 00
        E 0 80 4b 00
        E 0 80 57 00
        E 0 80 63 00
        E 120 90 18 60
        E 0 90 54 60
        E 0 90 60 60
        E 120 80 18 00
        E 0 80 54 00
        E 0 80 60 00
        E 120 90 1a 60
        E 0 90 1f 60
        E 0 90 3d 60
        E 0 90 3f 60
        E 0 90 49 60
        E 0 90 4b 60
        E 0 90 55 60
        E 0 90 57 60
        E 0 90 61 60
        E 0 90 63 60
        E 120 80 1a 00
        E 0 80 1f 00
        E 0 80 3d 00
        E 0 80 3f 00
        E 0 80 49 00
        E 0 80 4b 00
        E 0 80 55 00
        E 0 80 57 00
        E 0 80 61 00
        E 0 80 63 00
        E 0 90 1a 60
        E 0 90 61 60
        E 120 80 1a 00
        E 0 80 61 00
        E 0 90 1b 60
        E 0 90 55 60
        E 0 90 61 60
        E 120 80 1b 00
        E 0 80 55 00
        E 0 80 61 00
        E 0 90 1a 60
        E 0 90 61 60
        E 120 80 1a 00
        E 0 80 61 00
        E 0 90 18 60
        E 0 90 1f 60
        E 0 90 3f 60
        E 0 90 48 60
        E 0 90 4b 60
        E 0 90 54 60
        E 0 90 57 60
        E 0 90 60 60
        E 0 90 63 60
        E 120 80 18 00
        E 0 80 1f 00
        E 0 80 3f 00
        E 0 80 48 00
        E 0 80 4b 00
        E 0 80 54 00
        E 0 80 57 00
        E 0 80 60 00
        E 0 80 63 00
        E 120 90 18 60
        E 0 90 54 60
        E 0 90 60 60
        E 120 80 18 00
        E 0 80 54 00
        E 0 80 60 00
        E 120 90 1a 60
        E 0 90 1f 60
        E 0 90 3d 60
        E 0 90 3f 60
        E 0 90 49 60
        E 0 90 4b 60
        E 0 90 55 60
        E 0 90 57 60
        E 0 90 61 60
        E 0 90 63 60
        E 120 80 1a 00
        E 0 80 1f 00
        E 0 80 3d 00
        E 0 80 3f 00
        E 0 80 49 00
        E 0 80 4b 00
        E 0 80 55 00
        E 0 80 57 00
        E 0 80 61 00
        E 0 80 63 00
        E 360 90 18 60
        E 0 90 1f 60
        E 0 90 3f 60
        E 0 90 48 60
        E 0 90 4b 60
        E 0 90 54 60
        E 0 90 57 60
        E 0 90 60 60
        E 0 90 63 60
        E 120 80 18 00
        E 0 80 1f 00
        E 0 80 3f 00
        E 0 80 48 00
        E 0 80 4b 00
        E 0 80 54 00
        E 0 80 57 00
        E 0 80 60 00
        E 0 80 63 00
        E 120 90 18 60
        E 0 90 54 60
        E 0 90 60 60
        E 120 80 18 00
        E 0 80 54 00
        E 0 80 60 00
        E 120 90 1a 60
        E 0 90 1f 60
        E 0 90 3d 60
        E 0 90 3f 60
        E 0 90 49 60
        E 0 90 4b 60
        E 0 90 55 60
        E 0 90 57 60
        E 0 90 61 60
        E 0 90 63 60
        E 120 80 1a 00
        E 0 80 1f 00
        E 0 80 3d 00
        E 0 80 3f 00
        E 0 80 49 00
        E 0 80 4b 00
        E 0 80 55 00
        E 0 80 57 00
        E 0 80 61 00
        E 0 80 63 00
        E 120 90 18 60
        E 0 90 33 60
        E 0 90 54 60
        E 0 90 58 60
        E 0 90 60 60
        E 0 90 64 60
        E 0 90 70 60
        E 120 80 18 00
        E 0 80 33 00
        E 0 80 54 00
        E 0 80 58 00
        E 0 80 60 00
        E 0 80 64 00
        E 0 80 70 00
        E 120 90 18 60
        E 0 90 1f 60
        E 0 90 3f 60
        E 0 90 48 60
        E 0 90 4b 60
        E 0 90 54 60
        E 0 90 57 60
        E 0 90 60 60
        E 0 90 63 60
        E 120 80 18 00
        E 0 80 1f 00
        E 0 80 3f 00
        E 0 80 48 00
        E 0 80 4b 00
        E 0 80 54 00
        E 0 80 57 00
        E 0 80 60 00
        E 0 80 63 00
        E 120 90 18 60
        E 0 90 54 60
        E 0 90 60 60
        E 120 80 18 00
        E 0 80 54 00
        E 0 80 60 00
        E 120 90 1a 60
        E 0 90 1f 60
        E 0 90 3d 60
        E 0 90 3f 60
        E 0 90 49 60
        E 0 90 4b 60
        E 0 90 55 60
        E 0 90 57 60
        E 0 90 61 60
        E 0 90 63 60
        E 120 80 1a 00
        E 0 80 1f 00
        E 0 80 3d 00
        E 0 80 3f 00
        E 0 80 49 00
        E 0 80 4b 00
        E 0 80 55 00
        E 0 80 57 00
        E 0 80 61 00
        E 0 80 63 00
        E 360 90 18 60
        E 0 90 1f 60
        E 0 90 3f 60
        E 0 90 48 60
        E 0 90 4b 60
        E 0 90 54 60
        E 0 90 57 60
        E 0 90 60 60
        E 0 90 63 60
        E 120 80 18 00
        E 0 80 1f 00
        E 0 80 3f 00
        E 0 80 48 00
        E 0 80 4b 00
        E 0 80 54 00
        E 0 80 57 00
        E 0 80 60 00
        E 0 80 63 00
        E 120 90 18 60
        E 0 90 54 60
        E 0 90 60 60
        E 120 80 18 00
        E 0 80 54 00
        E 0 80 60 00
        E 120 90 1a 60
        E 0 90 1f 60
        E 0 90 3d 60
        E 0 90 3f 60
        E 0 90 49 60
        E 0 90 4b 60
        E 0 90 55 60
        E 0 90 57 60
        E 0 90 61 60
        E 0 90 63 60
        E 120 80 1a 00
        E 0 80 1f 00
        E 0 80 3d 00
        E 0 80 3f 00
        E 0 80 49 00
        E 0 80 4b 00
        E 0 80 55 00
        E 0 80 57 00
        E 0 80 61 00
        E 0 80 63 00
        E 120 90 18 60
        E 0 90 54 60
        E 0 90 60 60
        E 120 80 18 00
        E 0 80 54 00
        E 0 80 60 00
        E 120 90 18 60
        E 0 90 1f 60
        E 0 90 3f 60
        E 0 90 48 60
        E 0 90 4b 60
        E 0 90 54 60
        E 0 90 57 60
        E 0 90 60 60
        E 0 90 63 60
        E 120 80 18 00
        E 0 80 1f 00
        E 0 80 3f 00
        E 0 80 48 00
        E 0 80 4b 00
        E 0 80 54 00
        E 0 80 57 00
        E 0 80 60 00
        E 0 80 63 00
        E 360 90 1a 60
        E 0 90 1f 60
        E 0 90 3d 60
        E 0 90 3f 60
        E 0 90 49 60
        E 0 90 4b 60
        E 0 90 55 60
        E 0 90 57 60
        E 0 90 61 60
        E 0 90 63 60
        E 120 80 1a 00
        E 0 80 1f 00
        E 0 80 3d 00
        E 0 80 3f 00
        E 0 80 49 00
        E 0 80 4b 00
        E 0 80 55 00
        E 0 80 57 00
        E 0 80 61 00
        E 0 80 63 00
        E 120 90 18 60
        E 0 90 54 60
        E 0 90 60 60
        E 120 80 18 00
        E 0 80 54 00
        E 0 80 60 00
        E 120 90 18 60
        E 0 90 1f 60
        E 0 90 3f 60
        E 0 90 48 60
        E 0 90 4b 60
        E 0 90 54 60
        E 0 90 57 60
        E 0 90 60 60
        E 0 90 63 60
        E 120 80 18 00
        E 0 80 1f 00
        E 0 80 3f 00
        E 0 80 48 00
        E 0 80 4b 00
        E 0 80 54 00
        E 0 80 57 00
        E 0 80 60 00
        E 0 80 63 00
        E 120 90 18 60
        E 0 90 54 60
        E 0 90 60 60
        E 120 80 18 00
        E 0 80 54 00
        E 0 80 60 00
        E 120 90 1a 60
        E 0 90 1f 60
        E 0 90 3d 60
        E 0 90 3f 60
        E 0 90 49 60
        E 0 90 4b 60
        E 0 90 55 60
        E 0 90 57 60
        E 0 90 61 60
        E 0 90 63 60
        E 120 80 1a 00
        E 0 80 1f 00
        E 0 80 3d 00
        E 0 80 3f 00
        E 0 80 49 00
        E 0 80 4b 00
        E 0 80 55 00
        E 0 80 57 00
        E 0 80 61 00
        E 0 80 63 00
        E 360 90 18 60
        E 0 90 1f 60
        E 0 90 3f 60
        E 0 90 48 60
        E 0 90 4b 60
        E 0 90 54 60
        E 0 90 57 60
        E 0 90 60 60
        E 0 90 63 60
        E 0 90 78 60
        E 0 90 79 60
        E 0 90 7a 60
        E 0 90 7b 60
        E 0 90 7c 60
        E 120 80 18 00
        E 0 80 1f 00
        E 0 80 3f 00
        E 0 80 48 00
        E 0 80 4b 00
        E 0 80 54 00
        E 0 80 57 00
        E 0 80 60 00
        E 0 80 63 00
        E 120 90 18 60
        E 0 90 54 60
        E 0 90 60 60
        E 120 80 18 00
        E 0 80 54 00
        E 0 80 60 00
        E 120 90 1a 60
        E 0 90 1f 60
        E 0 90 3d 60
        E 0 90 3f 60
        E 0 90 49 60
        E 0 90 4b 60
        E 0 90 55 60
        E 0 90 57 60
        E 0 90 61 60
        E 0 90 63 60
        E 120 80 1a 00
        E 0 80 1f 00
        E 0 80 3d 00
        E 0 80 3f 00
        E 0 80 49 00
        E 0 80 4b 00
        E 0 80 55 00
        E 0 80 57 00
        E 0 80 61 00
        E 0 80 63 00
        E 120 90 18 60
        E 0 90 54 60
        E 0 90 60 60
        E 120 80 18 00
        E 0 80 54 00
        E 0 80 60 00
        E 120 90 1f 60
        E 0 90 3f 60
        E 0 90 4b 60
        E 0 90 57 60
        E 0 90 63 60
        E 120 80 1f 00
        E 0 80 3f 00
        E 0 80 4b 00
        E 0 80 57 00
        E 0 80 63 00
        E 120 90 18 60
        E 0 90 54 60
        E 0 90 60 60
        E 120 80 18 00
        E 0 80 54 00
        E 0 80 60 00
        E 120 90 1a 60
        E 0 90 1f 60
        E 0 90 3d 60
        E 0 90 3f 60
        E 0 90 49 60
        E 0 90 4b 60
        E 0 90 55 60
        E 0 90 57 60
        E 0 90 61 60
        E 0 90 63 60
        E 120 80 1a 00
        E 0 80 1f 00
        E 0 80 3d 00
        E 0 80 3f 00
        E 0 80 49 00
        E 0 80 4b 00
        E 0 80 55 00
        E 0 80 57 00
        E 0 80 61 00
        E 0 80 63 00
        E 0 90 1a 60
        E 0 90 61 60
        E 120 80 1a 00
        E 0 80 61 00
        E 0 90 1b 60
        E 0 90 55 60
        E 0 90 61 60
        E 120 80 1b 00
        E 0 80 55 00
        E 0 80 61 00
        E 0 90 1a 60
        E 0 90 61 60
        <X 120 0
          /wFbcGxheV0=
        >
        E 0 80 19 00
        E 0 80 78 00
        E 0 80 79 00
        E 0 80 7a 00
        E 0 80 7b 00
        E 0 80 7c 00
        E 0 80 1a 00
        E 0 80 61 00
        E 0 90 18 60
        E 0 90 1f 60
        E 0 90 3e 60
        E 0 90 48 60
        E 0 90 4a 60
        E 0 90 54 60
        E 0 90 56 60
        E 0 90 60 60
        E 0 90 62 60
        E 0 90 74 60
        E 120 80 18 00
        E 0 80 1f 00
        E 0 80 3e 00
        E 0 80 48 00
        E 0 80 4a 00
        E 0 80 54 00
        E 0 80 56 00
        E 0 80 60 00
        E 0 80 62 00
        E 360 90 1a 60
        E 0 90 1f 60
        E 0 90 3d 60
        E 0 90 3e 60
        E 0 90 49 60
        E 0 90 4a 60
        E 0 90 55 60
        E 0 90 56 60
        E 0 90 61 60
        E 0 90 62 60
        E 120 80 1a 00
        E 0 80 1f 00
        E 0 80 3d 00
        E 0 80 3e 00
        E 0 80 49 00
        E 0 80 4a 00
        E 0 80 55 00
        E 0 80 56 00
        E 0 80 61 00
        E 0 80 62 00
        E 360 90 18 60
        E 0 90 1f 60
        E 0 90 3e 60
        E 0 90 48 60
        E 0 90 4a 60
        E 0 90 54 60
        E 0 90 56 60
        E 0 90 60 60
        E 0 90 62 60
        E 120 80 18 00
        E 0 80 1f 00
        E 0 80 3e 00
        E 0 80 48 00
        E 0 80 4a 00
        E 0 80 54 00
        E 0 80 56 00
        E 0 80 60 00
        E 0 80 62 00
        E 120 90 18 60
        E 0 90 54 60
        E 0 90 60 60
        E 120 80 18 00
        E 0 80 54 00
        E 0 80 60 00
        E 120 90 1a 60
        E 0 90 1f 60
        E 0 90 3d 60
        E 0 90 3e 60
        E 0 90 49 60
        E 0 90 4a 60
        E 0 90 55 60
        E 0 90 56 60
        E 0 90 61 60
        E 0 90 62 60
        E 120 80 1a 00
        E 0 80 1f 00
        E 0 80 3d 00
        E 0 80 3e 00
        E 0 80 49 00
        E 0 80 4a 00
        E 0 80 55 00
        E 0 80 56 00
        E 0 80 61 00
        E 0 80 62 00
        E 360 90 18 60
        E 0 90 1f 60
        E 0 90 3e 60
        E 0 90 48 60
        E 0 90 4a 60
        E 0 90 54 60
        E 0 90 56 60
        E 0 90 60 60
        E 0 90 62 60
        E 120 80 18 00
        E 0 80 1f 00
        E 0 80 3e 00
        E 0 80 48 00
        E 0 80 4a 00
        E 0 80 54 00
        E 0 80 56 00
        E 0 80 60 00
        E 0 80 62 00
        E 360 90 1a 60
        E 0 90 1f 60
        E 0 90 3d 60
        E 0 90 3e 60
        E 0 90 49 60
        E 0 90 4a 60
        E 0 90 55 60
        E 0 90 56 60
        E 0 90 61 60
        E 0 90 62 60
        E 120 80 1a 00
        E 0 80 1f 00
        E 0 80 3d 00
        E 0 80 3e 00
        E 0 80 49 00
        E 0 80 4a 00
        E 0 80 55 00
        E 0 80 56 00
        E 0 80 61 00
        E 0 80 62 00
        E 120 90 18 60
        E 0 90 54 60
        E 0 90 60 60
        E 120 80 18 00
        E 0 80 54 00
        E 0 80 60 00
        E 120 90 1f 60
        E 0 90 3e 60
        E 0 90 4a 60
        E 0 90 56 60
        E 0 90 62 60
        E 120 80 1f 00
        E 0 80 3e 00
        E 0 80 4a 00
        E 0 80 56 00
        E 0 80 62 00
        E 120 90 18 60
        E 0 90 54 60
        E 0 90 60 60
        E 120 80 18 00
        E 0 80 54 00
        E 0 80 60 00
        E 120 90 1a 60
        E 0 90 1f 60
        E 0 90 3d 60
        E 0 90 3e 60
        E 0 90 49 60
        E 0 90 4a 60
        E 0 90 55 60
        E 0 90 56 60
        E 0 90 61 60
        E 0 90 62 60
        E 120 80 1a 00
        E 0 80 1f 00
        E 0 80 3d 00
        E 0 80 3e 00
        E 0 80 49 00
        E 0 80 4a 00
        E 0 80 55 00
        E 0 80 56 00
        E 0 80 61 00
        E 0 80 62 00
        E 120 90 18 60
        E 0 90 19 60
        E 0 90 1f 60
        E 0 90 54 60
        E 0 90 57 60
        E 0 90 60 60
        E 0 90 63 60
        E 120 80 18 00
        E 0 80 1f 00
        E 0 80 54 00
        E 0 80 57 00
        E 0 80 60 00
        E 0 80 63 00
        E 120 80 74 00
        E 240 80 19 00
        E 0 90 18 60
        E 0 90 1f 60
        E 0 90 54 60
        E 0 90 56 60
        E 0 90 60 60
        E 0 90 62 60
        E 120 80 18 00
        E 0 80 1f 00
        E 0 80 54 00
        E 0 80 56 00
        E 0 80 60 00
        E 0 80 62 00
        E 120 90 1a 60
        E 0 90 1f 60
        E 0 90 3d 60
        E 0 90 3e 60
        E 0 90 49 60
        E 0 90 4a 60
        E 0 90 55 60
        E 0 90 56 60
        E 0 90 61 60
        E 0 90 62 60
        E 120 80 1a 00
        E 0 80 1f 00
        E 0 80 3d 00
        E 0 80 3e 00
        E 0 80 49 00
        E 0 80 4a 00
        E 0 80 55 00
        E 0 80 56 00
        E 0 80 61 00
        E 0 80 62 00
        E 120 90 18 60
        E 0 90 54 60
        E 0 90 60 60
        E 120 80 18 00
        E 0 80 54 00
        E 0 80 60 00
        E 120 90 18 60
        E 0 90 1f 60
        E 0 90 3e 60
        E 0 90 48 60
        E 0 90 4a 60
        E 0 90 54 60
        E 0 90 56 60
        E 0 90 60 60
        E 0 90 62 60
        E 120 80 18 00
        E 0 80 1f 00
        E 0 80 3e 00
        E 0 80 48 00
        E 0 80 4a 00
        E 0 80 54 00
        E 0 80 56 00
        E 0 80 60 00
        E 0 80 62 00
        E 120 90 18 60
        E 0 90 54 60
        E 0 90 60 60
        E 120 80 18 00
        E 0 80 54 00
        E 0 80 60 00
        E 120 90 1a 60
        E 0 90 1f 60
        E 0 90 3d 60
        E 0 90 3e 60
        E 0 90 49 60
        E 0 90 4a 60
        E 0 90 55 60
        E 0 90 56 60
        E 0 90 61 60
        E 0 90 62 60
        E 120 80 1a 00
        E 0 80 1f 00
        E 0 80 3d 00
        E 0 80 3e 00
        E 0 80 49 00
        E 0 80 4a 00
        E 0 80 55 00
        E 0 80 56 00
        E 0 80 61 00
        E 0 80 62 00
        E 360 90 18 60
        E 0 90 1f 60
        E 0 90 3e 60
        E 0 90 48 60
        E 0 90 4a 60
        E 0 90 54 60
        E 0 90 56 60
        E 0 90 60 60
        E 0 90 62 60
        E 120 80 18 00
        E 0 80 1f 00
        E 0 80 3e 00
        E 0 80 48 00
        E 0 80 4a 00
        E 0 80 54 00
        E 0 80 56 00
        E 0 80 60 00
        E 0 80 62 00
        E 120 90 18 60
        E 0 90 54 60
        E 0 90 60 60
        E 120 80 18 00
        E 0 80 54 00
        E 0 80 60 00
        E 120 90 1a 60
        E 0 90 1f 60
        E 0 90 3d 60
        E 0 90 3e 60
        E 0 90 49 60
        E 0 90 4a 60
        E 0 90 55 60
        E 0 90 56 60
        E 0 90 61 60
        E 0 90 62 60
        E 120 80 1a 00
        E 0 80 1f 00
        E 0 80 3d 00
        E 0 80 3e 00
        E 0 80 49 00
        E 0 80 4a 00
        E 0 80 55 00
        E 0 80 56 00
        E 0 80 61 00
        E 0 80 62 00
        E 120 90 18 60
        E 0 90 54 60
        E 0 90 60 60
        E 120 80 18 00
        E 0 80 54 00
        E 0 80 60 00
        E 120 90 1f 60
        E 0 90 3e 60
        E 0 90 4a 60
        E 0 90 56 60
        E 0 90 62 60
        E 120 80 1f 00
        E 0 80 3e 00
        E 0 80 4a 00
        E 0 80 56 00
        E 0 80 62 00
        E 120 90 18 60
        E 0 90 19 60
        E 0 90 1f 60
        E 0 90 54 60
        E 0 90 57 60
        E 0 90 60 60
        E 0 90 63 60
        E 120 80 18 00
        E 0 80 1f 00
        E 0 80 54 00
        E 0 80 57 00
        E 0 80 60 00
        E 0 80 63 00
        E 120 90 1a 60
        E 0 90 3d 60
        E 0 90 49 60
        E 0 90 55 60
        E 0 90 61 60
        E 120 80 1a 00
        E 0 80 3d 00
        E 0 80 49 00
        E 0 80 55 00
        E 0 80 61 00
        E 120 80 19 00
        E 0 90 1a 60
        E 0 90 55 60
        E 0 90 61 60
        E 120 80 1a 00
        E 0 80 55 00
        E 0 80 61 00
        E 120 90 18 60
        E 0 90 1f 60
        E 0 90 3e 60
        E 0 90 48 60
        E 0 90 4a 60
        E 0 90 54 60
        E 0 90 56 60
        E 0 90 60 60
        E 0 90 62 60
        E 120 80 18 00
        E 0 80 1f 00
        E 0 80 3e 00
        E 0 80 48 00
        E 0 80 4a 00
        E 0 80 54 00
        E 0 80 56 00
        E 0 80 60 00
        E 0 80 62 00
        E 360 90 1a 60
        E 0 90 1f 60
        E 0 90 3d 60
        E 0 90 3e 60
        E 0 90 49 60
        E 0 90 4a 60
        E 0 90 55 60
        E 0 90 56 60
        E 0 90 61 60
        E 0 90 62 60
        E 120 80 1a 00
        E 0 80 1f 00
        E 0 80 3d 00
        E 0 80 3e 00
        E 0 80 49 00
        E 0 80 4a 00
        E 0 80 55 00
        E 0 80 56 00
        E 0 80 61 00
        E 0 80 62 00
        E 360 90 18 60
        E 0 90 1f 60
        E 0 90 3e 60
        E 0 90 48 60
        E 0 90 4a 60
        E 0 90 54 60
        E 0 90 56 60
        E 0 90 60 60
        E 0 90 62 60
        E 120 80 18 00
        E 0 80 1f 00
        E 0 80 3e 00
        E 0 80 48 00
        E 0 80 4a 00
        E 0 80 54 00
        E 0 80 56 00
        E 0 80 60 00
        E 0 80 62 00
        E 120 90 18 60
        E 0 90 54 60
        E 0 90 60 60
        E 120 80 18 00
        E 0 80 54 00
        E 0 80 60 00
        E 120 90 1a 60
        E 0 90 1f 60
        E 0 90 3d 60
        E 0 90 3e 60
        E 0 90 49 60
        E 0 90 4a 60
        E 0 90 55 60
        E 0 90 56 60
        E 0 90 61 60
        E 0 90 62 60
        E 120 80 1a 00
        E 0 80 1f 00
        E 0 80 3d 00
        E 0 80 3e 00
        E 0 80 49 00
        E 0 80 4a 00
        E 0 80 55 00
        E 0 80 56 00
        E 0 80 61 00
        E 0 80 62 00
        E 360 90 18 60
        E 0 90 1f 60
        E 0 90 3e 60
        E 0 90 48 60
        E 0 90 4a 60
        E 0 90 54 60
        E 0 90 56 60
        E 0 90 60 60
        E 0 90 62 60
        E 120 80 18 00
        E 0 80 1f 00
        E 0 80 3e 00
        E 0 80 48 00
        E 0 80 4a 00
        E 0 80 54 00
        E 0 80 56 00
        E 0 80 60 00
        E 0 80 62 00
        E 360 90 1a 60
        E 0 90 1f 60
        E 0 90 3d 60
        E 0 90 3e 60
        E 0 90 49 60
        E 0 90 4a 60
        E 0 90 55 60
        E 0 90 56 60
        E 0 90 61 60
        E 0 90 62 60
        E 120 80 1a 00
        E 0 80 1f 00
        E 0 80 3d 00
        E 0 80 3e 00
        E 0 80 49 00
        E 0 80 4a 00
        E 0 80 55 00
        E 0 80 56 00
        E 0 80 61 00
        E 0 80 62 00
        E 120 90 18 60
        E 0 90 54 60
        E 0 90 60 60
        E 120 80 18 00
        E 0 80 54 00
        E 0 80 60 00
        E 360 90 18 60
        E 0 90 19 60
        E 0 90 1f 60
        E 0 90 54 60
        E 0 90 57 60
        E 0 90 60 60
        E 0 90 63 60
        E 120 80 18 00
        E 0 80 1f 00
        E 0 80 54 00
        E 0 80 57 00
        E 0 80 60 00
        E 0 80 63 00
        E 120 90 1a 60
        E 0 90 3d 60
        E 0 90 49 60
        E 0 90 55 60
        E 0 90 61 60
        E 120 80 1a 00
        E 0 80 3d 00
        E 0 80 49 00
        E 0 80 55 00
        E 0 80 61 00
        E 120 90 18 60
        E 0 90 1f 60
        E 0 90 54 60
        E 0 90 57 60
        E 0 90 60 60
        E 0 90 63 60
        E 120 80 18 00
        E 0 80 1f 00
        E 0 80 54 00
        E 0 80 57 00
        E 0 80 60 00
        E 0 80 63 00
        E 360 80 19 00
        E 0 90 18 60
        E 0 90 1f 60
        E 0 90 54 60
        E 0 90 56 60
        E 0 90 60 60
        E 0 90 62 60
        E 120 80 18 00
        E 0 80 1f 00
        E 0 80 54 00
        E 0 80 56 00
        E 0 80 60 00
        E 0 80 62 00
        E 120 90 1a 60
        E 0 90 1f 60
        E 0 90 3d 60
        E 0 90 3e 60
        E 0 90 49 60
        E 0 90 4a 60
        E 0 90 55 60
        E 0 90 56 60
        E 0 90 61 60
        E 0 90 62 60
        E 120 80 1a 00
        E 0 80 1f 00
        E 0 80 3d 00
        E 0 80 3e 00
        E 0 80 49 00
        E 0 80 4a 00
        E 0 80 55 00
        E 0 80 56 00
        E 0 80 61 00
        E 0 80 62 00
        E 120 90 18 60
        E 0 90 54 60
        E 0 90 60 60
        E 120 80 18 00
        E 0 80 54 00
        E 0 80 60 00
        E 120 90 18 60
        E 0 90 1f 60
        E 0 90 3e 60
        E 0 90 48 60
        E 0 90 4a 60
        E 0 90 54 60
        E 0 90 56 60
        E 0 90 60 60
        E 0 90 62 60
        E 120 80 18 00
        E 0 80 1f 00
        E 0 80 3e 00
        E 0 80 48 00
        E 0 80 4a 00
        E 0 80 54 00
        E 0 80 56 00
        E 0 80 60 00
        E 0 80 62 00
        E 120 90 18 60
        E 0 90 54 60
        E 0 90 60 60
        E 120 80 18 00
        E 0 80 54 00
        E 0 80 60 00
        E 120 90 1a 60
        E 0 90 1f 60
        E 0 90 3d 60
        E 0 90 3e 60
        E 0 90 49 60
        E 0 90 4a 60
        E 0 90 55 60
        E 0 90 56 60
        E 0 90 61 60
        E 0 90 62 60
        E 120 80 1a 00
        E 0 80 1f 00
        E 0 80 3d 00
        E 0 80 3e 00
        E 0 80 49 00
        E 0 80 4a 00
        E 0 80 55 00
        E 0 80 56 00
        E 0 80 61 00
        E 0 80 62 00
        E 360 90 18 60
        E 0 90 1f 60
        E 0 90 3e 60
        E 0 90 48 60
        E 0 90 4a 60
        E 0 90 54 60
        E 0 90 56 60
        E 0 90 60 60
        E 0 90 62 60
        E 0 90 78 60
        E 0 90 79 60
        E 0 90 7a 60
        E 0 90 7b 60
        E 0 90 7c 60
        E 120 80 18 00
        E 0 80 1f 00
        E 0 80 3e 00
        E 0 80 48 00
        E 0 80 4a 00
        E 0 80 54 00
        E 0 80 56 00
        E 0 80 60 00
        E 0 80 62 00
        E 120 90 18 60
        E 0 90 54 60
        E 0 90 60 60
        E 120 80 18 00
        E 0 80 54 00
        E 0 80 60 00
        E 120 90 1a 60
        E 0 90 1f 60
        E 0 90 3d 60
        E 0 90 3e 60
        E 0 90 49 60
        E 0 90 4a 60
        E 0 90 55 60
        E 0 90 56 60
        E 0 90 61 60
        E 0 90 62 60
        E 120 80 1a 00
        E 0 80 1f 00
        E 0 80 3d 00
        E 0 80 3e 00
        E 0 80 49 00
        E 0 80 4a 00
        E 0 80 55 00
        E 0 80 56 00
        E 0 80 61 00
        E 0 80 62 00
        E 120 90 18 60
        E 0 90 54 60
        E 0 90 60 60
        E 120 80 18 00
        E 0 80 54 00
        E 0 80 60 00
        E 120 90 19 60
        E 0 90 1f 60
        E 0 90 3f 60
        E 0 90 4b 60
        E 0 90 57 60
        E 0 90 63 60
        E 120 80 1f 00
        E 0 80 3f 00
        E 0 80 4b 00
        E 0 80 57 00
        E 0 80 63 00
        E 120 90 18 60
        E 0 90 54 60
        E 0 90 60 60
        E 120 80 18 00
        E 0 80 54 00
        E 0 80 60 00
        E 120 80 19 00
        E 0 90 1a 60
        E 0 90 3d 60
        E 0 90 49 60
        E 0 90 55 60
        E 0 90 61 60
        E 120 80 1a 00
        E 0 80 3d 00
        E 0 80 49 00
        E 0 80 55 00
        E 0 80 61 00
        E 120 90 1a 60
        E 0 90 33 60
        E 0 90 55 60
        E 0 90 58 60
        E 0 90 61 60
        E 0 90 64 60
        E 0 90 70 60
        E 120 80 1a 00
        E 0 80 33 00
        E 0 80 55 00
        E 0 80 58 00
        E 0 80 61 00
        E 0 80 64 00
        E 0 80 70 00
        E 120 80 78 00
        E 0 80 79 00
        E 0 80 7a 00
        E 0 80 7b 00
        E 0 80 7c 00
        E 0 90 18 60
        E 0 90 19 60
        E 0 90 1f 60
        E 0 90 3f 60
        E 0 90 48 60
        E 0 90 4b 60
        E 0 90 54 60
        E 0 90 57 60
        E 0 90 60 60
        E 0 90 63 60
        E 120 80 18 00
        E 0 80 1f 00
        E 0 80 3f 00
        E 0 80 48 00
        E 0 80 4b 00
        E 0 80 54 00
        E 0 80 57 00
        E 0 80 60 00
        E 0 80 63 00
        E 360 90 1a 60
        E 0 90 1f 60
        E 0 90 3d 60
        E 0 90 3f 60
        E 0 90 49 60
        E 0 90 4b 60
        E 0 90 55 60
        E 0 90 57 60
        E 0 90 61 60
        E 0 90 63 60
        E 120 80 1a 00
        E 0 80 1f 00
        E 0 80 3d 00
        E 0 80 3f 00
        E 0 80 49 00
        E 0 80 4b 00
        E 0 80 55 00
        E 0 80 57 00
        E 0 80 61 00
        E 0 80 63 00
        E 360 90 18 60
        E 0 90 1f 60
        E 0 90 3f 60
        E 0 90 48 60
        E 0 90 4b 60
        E 0 90 54 60
        E 0 90 57 60
        E 0 90 60 60
        E 0 90 63 60
        E 120 80 18 00
        E 0 80 1f 00
        E 0 80 3f 00
        E 0 80 48 00
        E 0 80 4b 00
        E 0 80 54 00
        E 0 80 57 00
        E 0 80 60 00
        E 0 80 63 00
        E 120 90 18 60
        E 0 90 54 60
        E 0 90 60 60
        E 120 80 18 00
        E 0 80 54 00
        E 0 80 60 00
        E 120 90 1a 60
        E 0 90 1f 60
        E 0 90 3d 60
        E 0 90 3f 60
        E 0 90 49 60
        E 0 90 4b 60
        E 0 90 55 60
        E 0 90 57 60
        E 0 90 61 60
        E 0 90 63 60
        E 120 80 1a 00
        E 0 80 1f 00
        E 0 80 3d 00
        E 0 80 3f 00
        E 0 80 49 00
        E 0 80 4b 00
        E 0 80 55 00
        E 0 80 57 00
        E 0 80 61 00
        E 0 80 63 00
        E 360 90 18 60
        E 0 90 1f 60
        E 0 90 3f 60
        E 0 90 48 60
        E 0 90 4b 60
        E 0 90 54 60
        E 0 90 57 60
        E 0 90 60 60
        E 0 90 63 60
        E 120 80 18 00
        E 0 80 1f 00
        E 0 80 3f 00
        E 0 80 48 00
        E 0 80 4b 00
        E 0 80 54 00
        E 0 80 57 00
        E 0 80 60 00
        E 0 80 63 00
        E 360 90 1a 60
        E 0 90 1f 60
        E 0 90 3d 60
        E 0 90 3f 60
        E 0 90 49 60
        E 0 90 4b 60
        E 0 90 55 60
        E 0 90 57 60
        E 0 90 61 60
        E 0 90 63 60
        E 120 80 1a 00
        E 0 80 1f 00
        E 0 80 3d 00
        E 0 80 3f 00
        E 0 80 49 00
        E 0 80 4b 00
        E 0 80 55 00
        E 0 80 57 00
        E 0 80 61 00
        E 0 80 63 00
        E 120 90 18 60
        E 0 90 54 60
        E 0 90 60 60
        E 120 80 18 00
        E 0 80 54 00
        E 0 80 60 00
        E 120 90 1f 60
        E 0 90 3f 60
        E 0 90 4b 60
        E 0 90 57 60
        E 0 90 63 60
        E 120 80 1f 00
        E 0 80 3f 00
        E 0 80 4b 00
        E 0 80 57 00
        E 0 80 63 00
        E 120 90 18 60
        E 0 90 54 60
        E 0 90 60 60
        E 120 80 18 00
        E 0 80 54 00
        E 0 80 60 00
        E 120 90 1a 60
        E 0 90 1f 60
        E 0 90 3d 60
        E 0 90 3f 60
        E 0 90 49 60
        E 0 90 4b 60
        E 0 90 55 60
        E 0 90 57 60
        E 0 90 61 60
        E 0 90 63 60
        E 120 80 1a 00
        E 0 80 1f 00
        E 0 80 3d 00
        E 0 80 3f 00
        E 0 80 49 00
        E 0 80 4b 00
        E 0 80 55 00
        E 0 80 57 00
        E 0 80 61 00
        E 0 80 63 00
        E 120 90 18 60
        E 0 90 1f 60
        E 0 90 54 60
        E 0 90 57 60
        E 0 90 60 60
        E 0 90 63 60
        E 120 80 18 00
        E 0 80 1f 00
        E 0 80 54 00
        E 0 80 57 00
        E 0 80 60 00
        E 0 80 63 00
        E 360 90 18 60
        E 0 90 1f 60
        E 0 90 54 60
        E 0 90 57 60
        E 0 90 60 60
        E 0 90 63 60
        E 120 80 18 00
        E 0 80 1f 00
        E 0 80 54 00
        E 0 80 57 00
        E 0 80 60 00
        E 0 80 63 00
        E 120 90 1a 60
        E 0 90 1f 60
        E 0 90 3d 60
        E 0 90 3f 60
        E 0 90 49 60
        E 0 90 4b 60
        E 0 90 55 60
        E 0 90 57 60
        E 0 90 61 60
        E 0 90 63 60
        E 120 80 1a 00
        E 0 80 1f 00
        E 0 80 3d 00
        E 0 80 3f 00
        E 0 80 49 00
        E 0 80 4b 00
        E 0 80 55 00
        E 0 80 57 00
        E 0 80 61 00
        E 0 80 63 00
        E 120 90 18 60
        E 0 90 54 60
        E 0 90 60 60
        E 120 80 18 00
        E 0 80 54 00
        E 0 80 60 00
        E 120 90 18 60
        E 0 90 1f 60
        E 0 90 3f 60
        E 0 90 48 60
        E 0 90 4b 60
        E 0 90 54 60
        E 0 90 57 60
        E 0 90 60 60
        E 0 90 63 60
        E 120 80 18 00
        E 0 80 1f 00
        E 0 80 3f 00
        E 0 80 48 00
        E 0 80 4b 00
        E 0 80 54 00
        E 0 80 57 00
        E 0 80 60 00
        E 0 80 63 00
        E 120 90 18 60
        E 0 90 54 60
        E 0 90 60 60
        E 120 80 18 00
        E 0 80 54 00
        E 0 80 60 00
        E 120 90 1a 60
        E 0 90 1f 60
        E 0 90 3d 60
        E 0 90 3f 60
        E 0 90 49 60
        E 0 90 4b 60
        E 0 90 55 60
        E 0 90 57 60
        E 0 90 61 60
        E 0 90 63 60
        E 120 80 1a 00
        E 0 80 1f 00
        E 0 80 3d 00
        E 0 80 3f 00
        E 0 80 49 00
        E 0 80 4b 00
        E 0 80 55 00
        E 0 80 57 00
        E 0 80 61 00
        E 0 80 63 00
        E 360 90 18 60
        E 0 90 1f 60
        E 0 90 3f 60
        E 0 90 48 60
        E 0 90 4b 60
        E 0 90 54 60
        E 0 90 57 60
        E 0 90 60 60
        E 0 90 63 60
        E 120 80 18 00
        E 0 80 1f 00
        E 0 80 3f 00
        E 0 80 48 00
        E 0 80 4b 00
        E 0 80 54 00
        E 0 80 57 00
        E 0 80 60 00
        E 0 80 63 00
        E 120 90 18 60
        E 0 90 54 60
        E 0 90 60 60
        E 120 80 18 00
        E 0 80 54 00
        E 0 80 60 00
        E 120 90 1a 60
        E 0 90 1f 60
        E 0 90 3d 60
        E 0 90 3f 60
        E 0 90 49 60
        E 0 90 4b 60
        E 0 90 55 60
        E 0 90 57 60
        E 0 90 61 60
        E 0 90 63 60
        E 120 80 1a 00
        E 0 80 1f 00
        E 0 80 3d 00
        E 0 80 3f 00
        E 0 80 49 00
        E 0 80 4b 00
        E 0 80 55 00
        E 0 80 57 00
        E 0 80 61 00
        E 0 80 63 00
        E 120 90 18 60
        E 0 90 54 60
        E 0 90 60 60
        E 120 80 18 00
        E 0 80 54 00
        E 0 80 60 00
        E 120 90 1a 60
        E 0 90 1f 60
        E 0 90 3d 60
        E 0 90 3f 60
        E 0 90 49 60
        E 0 90 4b 60
        E 0 90 55 60
        E 0 90 57 60
        E 0 90 61 60
        E 0 90 63 60
        E 120 80 1a 00
        E 0 80 1f 00
        E 0 80 3d 00
        E 0 80 3f 00
        E 0 80 49 00
        E 0 80 4b 00
        E 0 80 55 00
        E 0 80 57 00
        E 0 80 61 00
        E 0 80 63 00
        E 120 90 18 60
        E 0 90 1f 60
        E 0 90 54 60
        E 0 90 57 60
        E 0 90 60 60
        E 0 90 63 60
        E 120 80 18 00
        E 0 80 1f 00
        E 0 80 54 00
        E 0 80 57 00
        E 0 80 60 00
        E 0 80 63 00
        E 120 90 1a 60
        E 0 90 3d 60
        E 0 90 49 60
        E 0 90 55 60
        E 0 90 61 60
        E 120 80 1a 00
        E 0 80 3d 00
        E 0 80 49 00
        E 0 80 55 00
        E 0 80 61 00
        E 120 80 19 00
        E 0 90 1a 60
        E 0 90 55 60
        E 0 90 61 60
        E 120 80 1a 00
        E 0 80 55 00
        E 0 80 61 00
        E 120 90 18 60
        E 0 90 19 60
        E 0 90 1f 60
        E 0 90 3f 60
        E 0 90 48 60
        E 0 90 4b 60
        E 0 90 54 60
        E 0 90 57 60
        E 0 90 60 60
        E 0 90 63 60
        E 120 80 18 00
        E 0 80 1f 00
        E 0 80 3f 00
        E 0 80 48 00
        E 0 80 4b 00
        E 0 80 54 00
        E 0 80 57 00
        E 0 80 60 00
        E 0 80 63 00
        E 120 90 18 60
        E 0 90 54 60
        E 0 90 60 60
        E 120 80 18 00
        E 0 80 54 00
        E 0 80 60 00
        E 120 90 1a 60
        E 0 90 1f 60
        E 0 90 3d 60
        E 0 90 3f 60
        E 0 90 49 60
        E 0 90 4b 60
        E 0 90 55 60
        E 0 90 57 60
        E 0 90 61 60
        E 0 90 63 60
        E 120 80 1a 00
        E 0 80 1f 00
        E 0 80 3d 00
        E 0 80 3f 00
        E 0 80 49 00
        E 0 80 4b 00
        E 0 80 55 00
        E 0 80 57 00
        E 0 80 61 00
        E 0 80 63 00
        E 120 90 18 60
        E 0 90 54 60
        E 0 90 60 60
        E 120 80 18 00
        E 0 80 54 00
        E 0 80 60 00
        E 120 90 18 60
        E 0 90 1f 60
        E 0 90 3f 60
        E 0 90 48 60
        E 0 90 4b 60
        E 0 90 54 60
        E 0 90 57 60
        E 0 90 60 60
        E 0 90 63 60
        E 120 80 18 00
        E 0 80 1f 00
        E 0 80 3f 00
        E 0 80 48 00
        E 0 80 4b 00
        E 0 80 54 00
        E 0 80 57 00
        E 0 80 60 00
        E 0 80 63 00
        E 120 90 18 60
        E 0 90 54 60
        E 0 90 60 60
        E 120 80 18 00
        E 0 80 54 00
        E 0 80 60 00
        E 120 90 1a 60
        E 0 90 1f 60
        E 0 90 3d 60
        E 0 90 3f 60
        E 0 90 49 60
        E 0 90 4b 60
        E 0 90 55 60
        E 0 90 57 60
        E 0 90 61 60
        E 0 90 63 60
        E 120 80 1a 00
        E 0 80 1f 00
        E 0 80 3d 00
        E 0 80 3f 00
        E 0 80 49 00
        E 0 80 4b 00
        E 0 80 55 00
        E 0 80 57 00
        E 0 80 61 00
        E 0 80 63 00
        E 120 90 18 60
        E 0 90 54 60
        E 0 90 60 60
        E 120 80 18 00
        E 0 80 54 00
        E 0 80 60 00
        E 120 90 18 60
        E 0 90 1f 60
        E 0 90 3f 60
        E 0 90 48 60
        E 0 90 4b 60
        E 0 90 54 60
        E 0 90 57 60
        E 0 90 60 60
        E 0 90 63 60
        E 120 80 18 00
        E 0 80 1f 00
        E 0 80 3f 00
        E 0 80 48 00
        E 0 80 4b 00
        E 0 80 54 00
        E 0 80 57 00
        E 0 80 60 00
        E 0 80 63 00
        E 120 90 18 60
        E 0 90 54 60
        E 0 90 60 60
        E 120 80 18 00
        E 0 80 54 00
        E 0 80 60 00
        E 120 90 1a 60
        E 0 90 1f 60
        E 0 90 3d 60
        E 0 90 3f 60
        E 0 90 49 60
        E 0 90 4b 60
        E 0 90 55 60
        E 0 90 57 60
        E 0 90 61 60
        E 0 90 63 60
        E 120 80 1a 00
        E 0 80 1f 00
        E 0 80 3d 00
        E 0 80 3f 00
        E 0 80 49 00
        E 0 80 4b 00
        E 0 80 55 00
        E 0 80 57 00
        E 0 80 61 00
        E 0 80 63 00
        E 120 90 18 60
        E 0 90 54 60
        E 0 90 60 60
        E 120 80 18 00
        E 0 80 54 00
        E 0 80 60 00
        E 120 80 19 00
        E 0 90 18 60
        E 0 90 3c 60
        E 0 90 48 60
        E 0 90 54 60
        E 0 90 60 60
        E 120 80 18 00
        E 0 80 3c 00
        E 0 80 48 00
        E 0 80 54 00
        E 0 80 60 00
        E 120 90 18 60
        E 0 90 19 60
        E 0 90 1f 60
        E 0 90 54 60
        E 0 90 57 60
        E 0 90 60 60
        E 0 90 63 60
        E 120 80 18 00
        E 0 80 1f 00
        E 0 80 54 00
        E 0 80 57 00
        E 0 80 60 00
        E 0 80 63 00
        E 120 90 1a 60
        E 0 90 3d 60
        E 0 90 49 60
        E 0 90 55 60
        E 0 90 61 60
        E 120 80 1a 00
        E 0 80 3d 00
        E 0 80 49 00
        E 0 80 55 00
        E 0 80 61 00
        E 120 90 18 60
        E 0 90 33 60
        E 0 90 54 60
        E 0 90 58 60
        E 0 90 60 60
        E 0 90 64 60
        E 0 90 70 60
        E 120 80 18 00
        E 0 80 33 00
        E 0 80 54 00
        E 0 80 58 00
        E 0 80 60 00
        E 0 80 64 00
        E 0 80 70 00
        E 120 90 18 60
        E 0 90 1f 60
        E 0 90 3f 60
        E 0 90 48 60
        E 0 90 4b 60
        E 0 90 54 60
        E 0 90 57 60
        E 0 90 60 60
        E 0 90 63 60
        E 120 80 18 00
        E 0 80 1f 00
        E 0 80 3f 00
        E 0 80 48 00
        E 0 80 4b 00
        E 0 80 54 00
        E 0 80 57 00
        E 0 80 60 00
        E 0 80 63 00
        E 120 90 18 60
        E 0 90 54 60
        E 0 90 60 60
        E 120 80 18 00
        E 0 80 54 00
        E 0 80 60 00
        E 120 90 1a 60
        E 0 90 1f 60
        E 0 90 3d 60
        E 0 90 3f 60
        E 0 90 49 60
        E 0 90 4b 60
        E 0 90 55 60
        E 0 90 57 60
        E 0 90 61 60
        E 0 90 63 60
        E 120 80 1a 00
        E 0 80 1f 00
        E 0 80 3d 00
        E 0 80 3f 00
        E 0 80 49 00
        E 0 80 4b 00
        E 0 80 55 00
        E 0 80 57 00
        E 0 80 61 00
        E 0 80 63 00
        E 120 90 18 60
        E 0 90 54 60
        E 0 90 60 60
        E 120 80 18 00
        E 0 80 54 00
        E 0 80 60 00
        E 120 90 1f 60
        E 0 90 3f 60
        E 0 90 4b 60
        E 0 90 57 60
        E 0 90 63 60
        E 120 80 1f 00
        E 0 80 3f 00
        E 0 80 4b 00
        E 0 80 57 00
        E 0 80 63 00
        E 120 90 18 60
        E 0 90 54 60
        E 0 90 60 60
        E 120 80 18 00
        E 0 80 54 00
        E 0 80 60 00
        E 120 90 1a 60
        E 0 90 1f 60
        E 0 90 3d 60
        E 0 90 3f 60
        E 0 90 49 60
        E 0 90 4b 60
        E 0 90 55 60
        E 0 90 57 60
        E 0 90 61 60
        E 0 90 63 60
        E 120 80 1a 00
        E 0 80 1f 00
        E 0 80 3d 00
        E 0 80 3f 00
        E 0 80 49 00
        E 0 80 4b 00
        E 0 80 55 00
        E 0 80 57 00
        E 0 80 61 00
        E 0 80 63 00
        E 120 90 18 60
        E 0 90 54 60
        E 0 90 60 60
        E 120 80 18 00
        E 0 80 54 00
        E 0 80 60 00
        E 120 80 19 00
        E 0 90 1a 60
        E 0 90 24 60
        E 0 90 3d 60
        E 0 90 40 60
        E 0 90 49 60
        E 0 90 4c 60
        E 0 90 55 60
        E 0 90 58 60
        E 0 90 61 60
        E 0 90 64 60
        E 0 90 78 60
        E 0 90 79 60
        E 0 90 7a 60
        E 0 90 7b 60
        E 0 90 7c 60
        E 120 80 1a 00
        E 0 80 24 00
        E 0 80 3d 00
        E 0 80 40 00
        E 0 80 49 00
        E 0 80 4c 00
        E 0 80 55 00
        E 0 80 58 00
        E 0 80 61 00
        E 0 80 64 00
        E 120 90 18 60
        E 0 90 54 60
        E 0 90 60 60
        E 120 80 18 00
        E 0 80 54 00
        E 0 80 60 00
        E 120 90 1a 60
        E 0 90 24 60
        E 0 90 3d 60
        E 0 90 40 60
        E 0 90 49 60
        E 0 90 4c 60
        E 0 90 55 60
        E 0 90 58 60
        E 0 90 61 60
        E 0 90 64 60
        E 120 80 1a 00
        E 0 80 24 00
        E 0 80 3d 00
        E 0 80 40 00
        E 0 80 49 00
        E 0 80 4c 00
        E 0 80 55 00
        E 0 80 58 00
        E 0 80 61 00
        E 0 80 64 00
        E 120 90 18 60
        E 0 90 54 60
        E 0 90 60 60
        E 120 80 18 00
        E 0 80 54 00
        E 0 80 60 00
        E 120 90 1a 60
        E 0 90 24 60
        E 0 90 3d 60
        E 0 90 40 60
        E 0 90 49 60
        E 0 90 4c 60
        E 0 90 55 60
        E 0 90 58 60
        E 0 90 61 60
        E 0 90 64 60
        E 120 80 1a 00
        E 0 80 24 00
        E 0 80 3d 00
        E 0 80 40 00
        E 0 80 49 00
        E 0 80 4c 00
        E 0 80 55 00
        E 0 80 58 00
        E 0 80 61 00
        E 0 80 64 00
        E 120 90 18 60
        E 0 90 54 60
        E 0 90 60 60
        E 120 80 18 00
        E 0 80 54 00
        E 0 80 60 00
        E 120 90 1a 60
        E 0 90 24 60
        E 0 90 3d 60
        E 0 90 40 60
        E 0 90 49 60
        E 0 90 4c 60
        E 0 90 55 60
        E 0 90 58 60
        E 0 90 61 60
        E 0 90 64 60
        E 120 80 1a 00
        E 0 80 24 00
        E 0 80 3d 00
        E 0 80 40 00
        E 0 80 49 00
        E 0 80 4c 00
        E 0 80 55 00
        E 0 80 58 00
        E 0 80 61 00
        E 0 80 64 00
        E 120 90 1b 60
        E 0 90 55 60
        E 0 90 61 60
        E 120 80 1b 00
        E 0 80 55 00
        E 0 80 61 00
        E 0 90 1a 60
        E 0 90 61 60
        E 120 80 78 00
        E 0 80 79 00
        E 0 80 7a 00
        E 0 80 7b 00
        E 0 80 7c 00
        E 0 80 1a 00
        E 0 80 61 00
        E 0 90 18 60
        E 0 90 19 60
        E 0 90 1f 60
        E 0 90 3f 60
        E 0 90 48 60
        E 0 90 4b 60
        E 0 90 54 60
        E 0 90 57 60
        E 0 90 60 60
        E 0 90 63 60
        E 120 80 18 00
        E 0 80 1f 00
        E 0 80 3f 00
        E 0 80 48 00
        E 0 80 4b 00
        E 0 80 54 00
        E 0 80 57 00
        E 0 80 60 00
        E 0 80 63 00
        E 120 90 18 60
        E 0 90 54 60
        E 0 90 60 60
        E 120 80 18 00
        E 0 80 54 00
        E 0 80 60 00
        E 120 80 19 00
        E 0 90 1a 60
        E 0 90 1f 60
        E 0 90 3d 60
        E 0 90 3e 60
        E 0 90 49 60
        E 0 90 4a 60
        E 0 90 55 60
        E 0 90 56 60
        E 0 90 61 60
        E 0 90 62 60
        E 120 80 1a 00
        E 0 80 1f 00
        E 0 80 3d 00
        E 0 80 3e 00
        E 0 80 49 00
        E 0 80 4a 00
        E 0 80 55 00
        E 0 80 56 00
        E 0 80 61 00
        E 0 80 62 00
        E 120 90 18 60
        E 0 90 54 60
        E 0 90 60 60
        E 120 80 18 00
        E 0 80 54 00
        E 0 80 60 00
        E 120 90 1f 60
        E 0 90 3e 60
        E 0 90 4a 60
        E 0 90 56 60
        E 0 90 62 60
        E 120 80 1f 00
        E 0 80 3e 00
        E 0 80 4a 00
        E 0 80 56 00
        E 0 80 62 00
        E 120 90 18 60
        E 0 90 54 60
        E 0 90 60 60
        E 120 80 18 00
        E 0 80 54 00
        E 0 80 60 00
        E 120 90 1a 60
        E 0 90 1f 60
        E 0 90 3d 60
        E 0 90 3e 60
        E 0 90 49 60
        E 0 90 4a 60
        E 0 90 55 60
        E 0 90 56 60
        E 0 90 61 60
        E 0 90 62 60
        E 120 80 1a 00
        E 0 80 1f 00
        E 0 80 3d 00
        E 0 80 3e 00
        E 0 80 49 00
        E 0 80 4a 00
        E 0 80 55 00
        E 0 80 56 00
        E 0 80 61 00
        E 0 80 62 00
        E 360 90 18 60
        E 0 90 1f 60
        E 0 90 3e 60
        E 0 90 48 60
        E 0 90 4a 60
        E 0 90 54 60
        E 0 90 56 60
        E 0 90 60 60
        E 0 90 62 60
        E 120 80 18 00
        E 0 80 1f 00
        E 0 80 3e 00
        E 0 80 48 00
        E 0 80 4a 00
        E 0 80 54 00
        E 0 80 56 00
        E 0 80 60 00
        E 0 80 62 00
        E 120 90 18 60
        E 0 90 54 60
        E 0 90 60 60
        E 120 80 18 00
        E 0 80 54 00
        E 0 80 60 00
        E 120 90 1a 60
        E 0 90 1f 60
        E 0 90 3d 60
        E 0 90 3e 60
        E 0 90 49 60
        E 0 90 4a 60
        E 0 90 55 60
        E 0 90 56 60
        E 0 90 61 60
        E 0 90 62 60
        E 120 80 1a 00
        E 0 80 1f 00
        E 0 80 3d 00
        E 0 80 3e 00
        E 0 80 49 00
        E 0 80 4a 00
        E 0 80 55 00
        E 0 80 56 00
        E 0 80 61 00
        E 0 80 62 00
        E 360 90 18 60
        E 0 90 1f 60
        E 0 90 3e 60
        E 0 90 48 60
        E 0 90 4a 60
        E 0 90 54 60
        E 0 90 56 60
        E 0 90 60 60
        E 0 90 62 60
        E 120 80 18 00
        E 0 80 1f 00
        E 0 80 3e 00
        E 0 80 48 00
        E 0 80 4a 00
        E 0 80 54 00
        E 0 80 56 00
        E 0 80 60 00
        E 0 80 62 00
        E 120 90 18 60
        E 0 90 54 60
        E 0 90 60 60
        E 120 80 18 00
        E 0 80 54 00
        E 0 80 60 00
        E 120 90 1a 60
        E 0 90 1f 60
        E 0 90 3d 60
        E 0 90 3e 60
        E 0 90 49 60
        E 0 90 4a 60
        E 0 90 55 60
        E 0 90 56 60
        E 0 90 61 60
        E 0 90 62 60
        E 120 80 1a 00
        E 0 80 1f 00
        E 0 80 3d 00
        E 0 80 3e 00
        E 0 80 49 00
        E 0 80 4a 00
        E 0 80 55 00
        E 0 80 56 00
        E 0 80 61 00
        E 0 80 62 00
        E 120 90 18 60
        E 0 90 1f 60
        E 0 90 54 60
        E 0 90 56 60
        E 0 90 60 60
        E 0 90 62 60
        E 120 80 18 00
        E 0 80 1f 00
        E 0 80 54 00
        E 0 80 56 00
        E 0 80 60 00
        E 0 80 62 00
        E 120 90 18 60
        E 0 90 3c 60
        E 0 90 48 60
        E 0 90 54 60
        E 0 90 60 60
        E 0 90 74 60
        E 120 80 18 00
        E 0 80 3c 00
        E 0 80 48 00
        E 0 80 54 00
        E 0 80 60 00
        E 360 90 1a 60
        E 0 90 1f 60
        E 0 90 3d 60
        E 0 90 3e 60
        E 0 90 49 60
        E 0 90 4a 60
        E 0 90 55 60
        E 0 90 56 60
        E 0 90 61 60
        E 0 90 62 60
        E 120 80 1a 00
        E 0 80 1f 00
        E 0 80 3d 00
        E 0 80 3e 00
        E 0 80 49 00
        E 0 80 4a 00
        E 0 80 55 00
        E 0 80 56 00
        E 0 80 61 00
        E 0 80 62 00
        E 360 90 18 60
        E 0 90 1f 60
        E 0 90 3e 60
        E 0 90 48 60
        E 0 90 4a 60
        E 0 90 54 60
        E 0 90 56 60
        E 0 90 60 60
        E 0 90 62 60
        E 120 80 18 00
        E 0 80 1f 00
        E 0 80 3e 00
        E 0 80 48 00
        E 0 80 4a 00
        E 0 80 54 00
        E 0 80 56 00
        E 0 80 60 00
        E 0 80 62 00
        E 120 90 18 60
        E 0 90 54 60
        E 0 90 60 60
        E 120 80 18 00
        E 0 80 54 00
        E 0 80 60 00
        E 120 90 1a 60
        E 0 90 1f 60
        E 0 90 3d 60
        E 0 90 3e 60
        E 0 90 49 60
        E 0 90 4a 60
        E 0 90 55 60
        E 0 90 56 60
        E 0 90 61 60
        E 0 90 62 60
        E 120 80 1a 00
        E 0 80 1f 00
        E 0 80 3d 00
        E 0 80 3e 00
        E 0 80 49 00
        E 0 80 4a 00
        E 0 80 55 00
        E 0 80 56 00
        E 0 80 61 00
        E 0 80 62 00
        E 120 90 18 60
        E 0 90 54 60
        E 0 90 60 60
        E 120 80 18 00
        E 0 80 54 00
        E 0 80 60 00
        E 120 90 1f 60
        E 0 90 3e 60
        E 0 90 4a 60
        E 0 90 56 60
        E 0 90 62 60
        E 120 80 1f 00
        E 0 80 3e 00
        E 0 80 4a 00
        E 0 80 56 00
        E 0 80 62 00
        E 120 90 18 60
        E 0 90 54 60
        E 0 90 60 60
        E 120 80 18 00
        E 0 80 54 00
        E 0 80 60 00
        E 120 90 1a 60
        E 0 90 1f 60
        E 0 90 3d 60
        E 0 90 3e 60
        E 0 90 49 60
        E 0 90 4a 60
        E 0 90 55 60
        E 0 90 56 60
        E 0 90 61 60
        E 0 90 62 60
        E 120 80 1a 00
        E 0 80 1f 00
        E 0 80 3d 00
        E 0 80 3e 00
        E 0 80 49 00
        E 0 80 4a 00
        E 0 80 55 00
        E 0 80 56 00
        E 0 80 61 00
        E 0 80 62 00
        E 360 90 18 60
        E 0 90 1f 60
        E 0 90 3e 60
        E 0 90 48 60
        E 0 90 4a 60
        E 0 90 54 60
        E 0 90 56 60
        E 0 90 60 60
        E 0 90 62 60
        E 120 80 18 00
        E 0 80 1f 00
        E 0 80 3e 00
        E 0 80 48 00
        E 0 80 4a 00
        E 0 80 54 00
        E 0 80 56 00
        E 0 80 60 00
        E 0 80 62 00
        E 120 90 18 60
        E 0 90 54 60
        E 0 90 60 60
        E 120 80 18 00
        E 0 80 54 00
        E 0 80 60 00
        E 120 90 1a 60
        E 0 90 3d 60
        E 0 90 49 60
        E 0 90 55 60
        E 0 90 61 60
        E 120 80 1a 00
        E 0 80 3d 00
        E 0 80 49 00
        E 0 80 55 00
        E 0 80 61 00
        E 120 90 33 60
        E 0 90 55 60
        E 0 90 58 60
        E 0 90 61 60
        E 0 90 64 60
        E 0 90 70 60
        E 120 80 33 00
        E 0 80 55 00
        E 0 80 58 00
        E 0 80 61 00
        E 0 80 64 00
        E 0 80 70 00
        E 120 80 74 00
        E 0 90 18 60
        E 0 90 1f 60
        E 0 90 3e 60
        E 0 90 48 60
        E 0 90 4a 60
        E 0 90 54 60
        E 0 90 56 60
        E 0 90 60 60
        E 0 90 62 60
        E 120 80 18 00
        E 0 80 1f 00
        E 0 80 3e 00
        E 0 80 48 00
        E 0 80 4a 00
        E 0 80 54 00
        E 0 80 56 00
        E 0 80 60 00
        E 0 80 62 00
        E 120 90 18 60
        E 0 90 54 60
        E 0 90 60 60
        E 120 80 18 00
        E 0 80 54 00
        E 0 80 60 00
        E 120 90 1a 60
        E 0 90 1f 60
        E 0 90 3d 60
        E 0 90 3e 60
        E 0 90 49 60
        E 0 90 4a 60
        E 0 90 55 60
        E 0 90 56 60
        E 0 90 61 60
        E 0 90 62 60
        E 120 80 1a 00
        E 0 80 1f 00
        E 0 80 3d 00
        E 0 80 3e 00
        E 0 80 49 00
        E 0 80 4a 00
        E 0 80 55 00
        E 0 80 56 00
        E 0 80 61 00
        E 0 80 62 00
        E 120 90 18 60
        E 0 90 54 60
        E 0 90 60 60
        E 120 80 18 00
        E 0 80 54 00
        E 0 80 60 00
        E 120 90 1f 60
        E 0 90 3e 60
        E 0 90 4a 60
        E 0 90 56 60
        E 0 90 62 60
        E 120 80 1f 00
        E 0 80 3e 00
        E 0 80 4a 00
        E 0 80 56 00
        E 0 80 62 00
        E 120 90 18 60
        E 0 90 54 60
        E 0 90 60 60
        E 120 80 18 00
        E 0 80 54 00
        E 0 80 60 00
        E 120 90 1a 60
        E 0 90 1f 60
        E 0 90 3d 60
        E 0 90 3e 60
        E 0 90 49 60
        E 0 90 4a 60
        E 0 90 55 60
        E 0 90 56 60
        E 0 90 61 60
        E 0 90 62 60
        E 120 80 1a 00
        E 0 80 1f 00
        E 0 80 3d 00
        E 0 80 3e 00
        E 0 80 49 00
        E 0 80 4a 00
        E 0 80 55 00
        E 0 80 56 00
        E 0 80 61 00
        E 0 80 62 00
        E 360 90 18 60
        E 0 90 1f 60
        E 0 90 3e 60
        E 0 90 48 60
        E 0 90 4a 60
        E 0 90 54 60
        E 0 90 56 60
        E 0 90 60 60
        E 0 90 62 60
        E 120 80 18 00
        E 0 80 1f 00
        E 0 80 3e 00
        E 0 80 48 00
        E 0 80 4a 00
        E 0 80 54 00
        E 0 80 56 00
        E 0 80 60 00
        E 0 80 62 00
        E 120 90 18 60
        E 0 90 54 60
        E 0 90 60 60
        E 120 80 18 00
        E 0 80 54 00
        E 0 80 60 00
        E 120 90 1a 60
        E 0 90 1f 60
        E 0 90 3d 60
        E 0 90 3e 60
        E 0 90 49 60
        E 0 90 4a 60
        E 0 90 55 60
        E 0 90 56 60
        E 0 90 61 60
        E 0 90 62 60
        E 120 80 1a 00
        E 0 80 1f 00
        E 0 80 3d 00
        E 0 80 3e 00
        E 0 80 49 00
        E 0 80 4a 00
        E 0 80 55 00
        E 0 80 56 00
        E 0 80 61 00
        E 0 80 62 00
        E 360 90 18 60
        E 0 90 1f 60
        E 0 90 3e 60
        E 0 90 48 60
        E 0 90 4a 60
        E 0 90 54 60
        E 0 90 56 60
        E 0 90 60 60
        E 0 90 62 60
        E 120 80 18 00
        E 0 80 1f 00
        E 0 80 3e 00
        E 0 80 48 00
        E 0 80 4a 00
        E 0 80 54 00
        E 0 80 56 00
        E 0 80 60 00
        E 0 80 62 00
        E 120 90 18 60
        E 0 90 54 60
        E 0 90 60 60
        E 120 80 18 00
        E 0 80 54 00
        E 0 80 60 00
        E 120 90 1a 60
        E 0 90 1f 60
        E 0 90 3d 60
        E 0 90 3e 60
        E 0 90 49 60
        E 0 90 4a 60
        E 0 90 55 60
        E 0 90 56 60
        E 0 90 61 60
        E 0 90 62 60
        E 120 80 1a 00
        E 0 80 1f 00
        E 0 80 3d 00
        E 0 80 3e 00
        E 0 80 49 00
        E 0 80 4a 00
        E 0 80 55 00
        E 0 80 56 00
        E 0 80 61 00
        E 0 80 62 00
        E 120 90 18 60
        E 0 90 1f 60
        E 0 90 54 60
        E 0 90 56 60
        E 0 90 60 60
        E 0 90 62 60
        E 120 80 18 00
        E 0 80 1f 00
        E 0 80 54 00
        E 0 80 56 00
        E 0 80 60 00
        E 0 80 62 00
        E 120 90 18 60
        E 0 90 3c 60
        E 0 90 48 60
        E 0 90 54 60
        E 0 90 60 60
        E 120 80 18 00
        E 0 80 3c 00
        E 0 80 48 00
        E 0 80 54 00
        E 0 80 60 00
        E 360 90 1a 60
        E 0 90 1f 60
        E 0 90 3d 60
        E 0 90 3e 60
        E 0 90 49 60
        E 0 90 4a 60
        E 0 90 55 60
        E 0 90 56 60
        E 0 90 61 60
        E 0 90 62 60
        E 120 80 1a 00
        E 0 80 1f 00
        E 0 80 3d 00
        E 0 80 3e 00
        E 0 80 49 00
        E 0 80 4a 00
        E 0 80 55 00
        E 0 80 56 00
        E 0 80 61 00
        E 0 80 62 00
        E 360 90 18 60
        E 0 90 1f 60
        E 0 90 3e 60
        E 0 90 48 60
        E 0 90 4a 60
        E 0 90 54 60
        E 0 90 56 60
        E 0 90 60 60
        E 0 90 62 60
        E 120 80 18 00
        E 0 80 1f 00
        E 0 80 3e 00
        E 0 80 48 00
        E 0 80 4a 00
        E 0 80 54 00
        E 0 80 56 00
        E 0 80 60 00
        E 0 80 62 00
        E 120 90 18 60
        E 0 90 54 60
        E 0 90 60 60
        E 120 80 18 00
        E 0 80 54 00
        E 0 80 60 00
        E 120 90 1a 60
        E 0 90 1f 60
        E 0 90 3d 60
        E 0 90 3e 60
        E 0 90 49 60
        E 0 90 4a 60
        E 0 90 55 60
        E 0 90 56 60
        E 0 90 61 60
        E 0 90 62 60
        E 120 80 1a 00
        E 0 80 1f 00
        E 0 80 3d 00
        E 0 80 3e 00
        E 0 80 49 00
        E 0 80 4a 00
        E 0 80 55 00
        E 0 80 56 00
        E 0 80 61 00
        E 0 80 62 00
        E 120 90 18 60
        E 0 90 54 60
        E 0 90 60 60
        E 120 80 18 00
        E 0 80 54 00
        E 0 80 60 00
        E 120 90 1f 60
        E 0 90 3e 60
        E 0 90 4a 60
        E 0 90 56 60
        E 0 90 62 60
        E 0 90 78 60
        E 0 90 79 60
        E 0 90 7a 60
        E 0 90 7b 60
        E 0 90 7c 60
        E 120 80 1f 00
        E 0 80 3e 00
        E 0 80 4a 00
        E 0 80 56 00
        E 0 80 62 00
        E 120 90 18 60
        E 0 90 54 60
        E 0 90 60 60
        E 120 80 18 00
        E 0 80 54 00
        E 0 80 60 00
        E 120 90 1a 60
        E 0 90 1f 60
        E 0 90 3d 60
        E 0 90 3e 60
        E 0 90 49 60
        E 0 90 4a 60
        E 0 90 55 60
        E 0 90 56 60
        E 0 90 61 60
        E 0 90 62 60
        E 120 80 1a 00
        E 0 80 1f 00
        E 0 80 3d 00
        E 0 80 3e 00
        E 0 80 49 00
        E 0 80 4a 00
        E 0 80 55 00
        E 0 80 56 00
        E 0 80 61 00
        E 0 80 62 00
        E 360 90 18 60
        E 0 90 1f 60
        E 0 90 3e 60
        E 0 90 48 60
        E 0 90 4a 60
        E 0 90 54 60
        E 0 90 56 60
        E 0 90 60 60
        E 0 90 62 60
        E 120 80 18 00
        E 0 80 1f 00
        E 0 80 3e 00
        E 0 80 48 00
        E 0 80 4a 00
        E 0 80 54 00
        E 0 80 56 00
        E 0 80 60 00
        E 0 80 62 00
        E 120 90 18 60
        E 0 90 54 60
        E 0 90 60 60
        E 120 80 18 00
        E 0 80 54 00
        E 0 80 60 00
        E 120 90 1b 60
        E 0 90 3d 60
        E 0 90 49 60
        E 0 90 55 60
        E 0 90 61 60
        E 120 80 1b 00
        E 0 80 3d 00
        E 0 80 49 00
        E 0 80 55 00
        E 0 80 61 00
        E 0 90 1a 60
        E 0 90 61 60
        E 120 80 1a 00
        E 0 80 61 00
        E 0 90 1b 60
        E 0 90 55 60
        E 0 90 61 60
        E 120 80 1b 00
        E 0 80 55 00
        E 0 80 61 00
        E 0 90 1a 60
        E 0 90 61 60
        E 120 80 78 00
        E 0 80 79 00
        E 0 80 7a 00
        E 0 80 7b 00
        E 0 80 7c 00
        E 0 80 1a 00
        E 0 80 61 00
        E 0 90 18 60
        E 0 90 19 60
        E 0 90 1f 60
        E 0 90 3f 60
        E 0 90 48 60
        E 0 90 4b 60
        E 0 90 54 60
        E 0 90 57 60
        E 0 90 60 60
        E 0 90 63 60
        E 120 80 18 00
        E 0 80 1f 00
        E 0 80 3f 00
        E 0 80 48 00
        E 0 80 4b 00
        E 0 80 54 00
        E 0 80 57 00
        E 0 80 60 00
        E 0 80 63 00
        E 120 90 18 60
        E 0 90 54 60
        E 0 90 60 60
        E 120 80 18 00
        E 0 80 54 00
        E 0 80 60 00
        E 120 90 1a 60
        E 0 90 1f 60
        E 0 90 3d 60
        E 0 90 3f 60
        E 0 90 49 60
        E 0 90 4b 60
        E 0 90 55 60
        E 0 90 57 60
        E 0 90 61 60
        E 0 90 63 60
        E 120 80 1a 00
        E 0 80 1f 00
        E 0 80 3d 00
        E 0 80 3f 00
        E 0 80 49 00
        E 0 80 4b 00
        E 0 80 55 00
        E 0 80 57 00
        E 0 80 61 00
        E 0 80 63 00
        E 360 90 18 60
        E 0 90 1f 60
        E 0 90 3f 60
        E 0 90 48 60
        E 0 90 4b 60
        E 0 90 54 60
        E 0 90 57 60
        E 0 90 60 60
        E 0 90 63 60
        E 120 80 18 00
        E 0 80 1f 00
        E 0 80 3f 00
        E 0 80 48 00
        E 0 80 4b 00
        E 0 80 54 00
        E 0 80 57 00
        E 0 80 60 00
        E 0 80 63 00
        E 120 90 18 60
        E 0 90 54 60
        E 0 90 60 60
        E 120 80 18 00
        E 0 80 54 00
        E 0 80 60 00
        E 120 90 1a 60
        E 0 90 1f 60
        E 0 90 3d 60
        E 0 90 3f 60
        E 0 90 49 60
        E 0 90 4b 60
        E 0 90 55 60
        E 0 90 57 60
        E 0 90 61 60
        E 0 90 63 60
        E 120 80 1a 00
        E 0 80 1f 00
        E 0 80 3d 00
        E 0 80 3f 00
        E 0 80 49 00
        E 0 80 4b 00
        E 0 80 55 00
        E 0 80 57 00
        E 0 80 61 00
        E 0 80 63 00
        E 120 90 18 60
        E 0 90 33 60
        E 0 90 54 60
        E 0 90 58 60
        E 0 90 60 60
        E 0 90 64 60
        E 0 90 70 60
        E 120 80 18 00
        E 0 80 33 00
        E 0 80 54 00
        E 0 80 58 00
        E 0 80 60 00
        E 0 80 64 00
        E 0 80 70 00
        E 120 90 18 60
        E 0 90 1f 60
        E 0 90 3f 60
        E 0 90 48 60
        E 0 90 4b 60
        E 0 90 54 60
        E 0 90 57 60
        E 0 90 60 60
        E 0 90 63 60
        E 120 80 18 00
        E 0 80 1f 00
        E 0 80 3f 00
        E 0 80 48 00
        E 0 80 4b 00
        E 0 80 54 00
        E 0 80 57 00
        E 0 80 60 00
        E 0 80 63 00
        E 120 90 18 60
        E 0 90 54 60
        E 0 90 60 60
        E 120 80 18 00
        E 0 80 54 00
        E 0 80 60 00
        E 120 90 1a 60
        E 0 90 1f 60
        E 0 90 3d 60
        E 0 90 3f 60
        E 0 90 49 60
        E 0 90 4b 60
        E 0 90 55 60
        E 0 90 57 60
        E 0 90 61 60
        E 0 90 63 60
        E 120 80 1a 00
        E 0 80 1f 00
        E 0 80 3d 00
        E 0 80 3f 00
        E 0 80 49 00
        E 0 80 4b 00
        E 0 80 55 00
        E 0 80 57 00
        E 0 80 61 00
        E 0 80 63 00
        E 360 90 18 60
        E 0 90 1f 60
        E 0 90 3f 60
        E 0 90 48 60
        E 0 90 4b 60
        E 0 90 54 60
        E 0 90 57 60
        E 0 90 60 60
        E 0 90 63 60
        E 120 80 18 00
        E 0 80 1f 00
        E 0 80 3f 00
        E 0 80 48 00
        E 0 80 4b 00
        E 0 80 54 00
        E 0 80 57 00
        E 0 80 60 00
        E 0 80 63 00
        E 120 90 18 60
        E 0 90 54 60
        E 0 90 60 60
        E 120 80 18 00
        E 0 80 54 00
        E 0 80 60 00
        E 120 90 1a 60
        E 0 90 1f 60
        E 0 90 3d 60
        E 0 90 3f 60
        E 0 90 49 60
        E 0 90 4b 60
        E 0 90 55 60
        E 0 90 57 60
        E 0 90 61 60
        E 0 90 63 60
        E 120 80 1a 00
        E 0 80 1f 00
        E 0 80 3d 00
        E 0 80 3f 00
        E 0 80 49 00
        E 0 80 4b 00
        E 0 80 55 00
        E 0 80 57 00
        E 0 80 61 00
        E 0 80 63 00
        E 120 90 18 60
        E 0 90 54 60
        E 0 90 60 60
        E 120 80 18 00
        E 0 80 54 00
        E 0 80 60 00
        E 120 90 18 60
        E 0 90 1f 60
        E 0 90 3f 60
        E 0 90 48 60
        E 0 90 4b 60
        E 0 90 54 60
        E 0 90 57 60
        E 0 90 60 60
        E 0 90 63 60
        E 120 80 18 00
        E 0 80 1f 00
        E 0 80 3f 00
        E 0 80 48 00
        E 0 80 4b 00
        E 0 80 54 00
        E 0 80 57 00
        E 0 80 60 00
        E 0 80 63 00
        E 360 90 1a 60
        E 0 90 1f 60
        E 0 90 3d 60
        E 0 90 3f 60
        E 0 90 49 60
        E 0 90 4b 60
        E 0 90 55 60
        E 0 90 57 60
        E 0 90 61 60
        E 0 90 63 60
        E 120 80 1a 00
        E 0 80 1f 00
        E 0 80 3d 00
        E 0 80 3f 00
        E 0 80 49 00
        E 0 80 4b 00
        E 0 80 55 00
        E 0 80 57 00
        E 0 80 61 00
        E 0 80 63 00
        E 120 90 18 60
        E 0 90 54 60
        E 0 90 60 60
        E 120 80 18 00
        E 0 80 54 00
        E 0 80 60 00
        E 120 90 18 60
        E 0 90 1f 60
        E 0 90 3f 60
        E 0 90 48 60
        E 0 90 4b 60
        E 0 90 54 60
        E 0 90 57 60
        E 0 90 60 60
        E 0 90 63 60
        E 120 80 18 00
        E 0 80 1f 00
        E 0 80 3f 00
        E 0 80 48 00
        E 0 80 4b 00
        E 0 80 54 00
        E 0 80 57 00
        E 0 80 60 00
        E 0 80 63 00
        E 120 90 18 60
        E 0 90 54 60
        E 0 90 60 60
        E 120 80 18 00
        E 0 80 54 00
        E 0 80 60 00
        E 120 90 1a 60
        E 0 90 1f 60
        E 0 90 3d 60
        E 0 90 3f 60
        E 0 90 49 60
        E 0 90 4b 60
        E 0 90 55 60
        E 0 90 57 60
        E 0 90 61 60
        E 0 90 63 60
        E 120 80 1a 00
        E 0 80 1f 00
        E 0 80 3d 00
        E 0 80 3f 00
        E 0 80 49 00
        E 0 80 4b 00
        E 0 80 55 00
        E 0 80 57 00
        E 0 80 61 00
        E 0 80 63 00
        E 360 90 18 60
        E 0 90 1f 60
        E 0 90 3f 60
        E 0 90 48 60
        E 0 90 4b 60
        E 0 90 54 60
        E 0 90 57 60
        E 0 90 60 60
        E 0 90 63 60
        E 120 80 18 00
        E 0 80 1f 00
        E 0 80 3f 00
        E 0 80 48 00
        E 0 80 4b 00
        E 0 80 54 00
        E 0 80 57 00
        E 0 80 60 00
        E 0 80 63 00
        E 120 90 18 60
        E 0 90 54 60
        E 0 90 60 60
        E 120 80 18 00
        E 0 80 54 00
        E 0 80 60 00
        E 120 90 1a 60
        E 0 90 1f 60
        E 0 90 3d 60
        E 0 90 3f 60
        E 0 90 49 60
        E 0 90 4b 60
        E 0 90 55 60
        E 0 90 57 60
        E 0 90 61 60
        E 0 90 63 60
        E 120 80 1a 00
        E 0 80 1f 00
        E 0 80 3d 00
        E 0 80 3f 00
        E 0 80 49 00
        E 0 80 4b 00
        E 0 80 55 00
        E 0 80 57 00
        E 0 80 61 00
        E 0 80 63 00
        E 120 90 18 60
        E 0 90 54 60
        E 0 90 60 60
        E 120 80 18 00
        E 0 80 54 00
        E 0 80 60 00
        E 120 90 1f 60
        E 0 90 3f 60
        E 0 90 4b 60
        E 0 90 57 60
        E 0 90 63 60
        E 120 80 1f 00
        E 0 80 3f 00
        E 0 80 4b 00
        E 0 80 57 00
        E 0 80 63 00
        E 120 90 18 60
        E 0 90 54 60
        E 0 90 60 60
        E 120 80 18 00
        E 0 80 54 00
        E 0 80 60 00
        E 120 90 1a 60
        E 0 90 1f 60
        E 0 90 3d 60
        E 0 90 3f 60
        E 0 90 49 60
        E 0 90 4b 60
        E 0 90 55 60
        E 0 90 57 60
        E 0 90 61 60
        E 0 90 63 60
        E 120 80 1a 00
        E 0 80 1f 00
        E 0 80 3d 00
        E 0 80 3f 00
        E 0 80 49 00
        E 0 80 4b 00
        E 0 80 55 00
        E 0 80 57 00
        E 0 80 61 00
        E 0 80 63 00
        E 0 90 1a 60
        E 0 90 61 60
        E 120 80 1a 00
        E 0 80 61 00
        E 0 90 1b 60
        E 0 90 55 60
        E 0 90 61 60
        E 120 80 1b 00
        E 0 80 55 00
        E 0 80 61 00
        E 0 90 1a 60
        E 0 90 61 60
        E 120 80 1a 00
        E 0 80 61 00
        E 0 90 18 60
        E 0 90 1f 60
        E 0 90 3f 60
        E 0 90 48 60
        E 0 90 4b 60
        E 0 90 54 60
        E 0 90 57 60
        E 0 90 60 60
        E 0 90 63 60
        E 120 80 18 00
        E 0 80 1f 00
        E 0 80 3f 00
        E 0 80 48 00
        E 0 80 4b 00
        E 0 80 54 00
        E 0 80 57 00
        E 0 80 60 00
        E 0 80 63 00
        E 120 90 18 60
        E 0 90 54 60
        E 0 90 60 60
        E 120 80 18 00
        E 0 80 54 00
        E 0 80 60 00
        E 120 90 1a 60
        E 0 90 1f 60
        E 0 90 3d 60
        E 0 90 3f 60
        E 0 90 49 60
        E 0 90 4b 60
        E 0 90 55 60
        E 0 90 57 60
        E 0 90 61 60
        E 0 90 63 60
        E 120 80 1a 00
        E 0 80 1f 00
        E 0 80 3d 00
        E 0 80 3f 00
        E 0 80 49 00
        E 0 80 4b 00
        E 0 80 55 00
        E 0 80 57 00
        E 0 80 61 00
        E 0 80 63 00
        E 360 90 18 60
        E 0 90 1f 60
        E 0 90 3f 60
        E 0 90 48 60
        E 0 90 4b 60
        E 0 90 54 60
        E 0 90 57 60
        E 0 90 60 60
        E 0 90 63 60
        E 120 80 18 00
        E 0 80 1f 00
        E 0 80 3f 00
        E 0 80 48 00
        E 0 80 4b 00
        E 0 80 54 00
        E 0 80 57 00
        E 0 80 60 00
        E 0 80 63 00
        E 120 90 18 60
        E 0 90 54 60
        E 0 90 60 60
        E 120 80 18 00
        E 0 80 54 00
        E 0 80 60 00
        E 120 90 1a 60
        E 0 90 1f 60
        E 0 90 3d 60
        E 0 90 3f 60
        E 0 90 49 60
        E 0 90 4b 60
        E 0 90 55 60
        E 0 90 57 60
        E 0 90 61 60
        E 0 90 63 60
        E 120 80 1a 00
        E 0 80 1f 00
        E 0 80 3d 00
        E 0 80 3f 00
        E 0 80 49 00
        E 0 80 4b 00
        E 0 80 55 00
        E 0 80 57 00
        E 0 80 61 00
        E 0 80 63 00
        E 120 90 18 60
        E 0 90 33 60
        E 0 90 54 60
        E 0 90 58 60
        E 0 90 60 60
        E 0 90 64 60
        E 0 90 70 60
        E 120 80 18 00
        E 0 80 33 00
        E 0 80 54 00
        E 0 80 58 00
        E 0 80 60 00
        E 0 80 64 00
        E 0 80 70 00
        E 120 90 18 60
        E 0 90 1f 60
        E 0 90 3f 60
        E 0 90 48 60
        E 0 90 4b 60
        E 0 90 54 60
        E 0 90 57 60
        E 0 90 60 60
        E 0 90 63 60
        E 120 80 18 00
        E 0 80 1f 00
        E 0 80 3f 00
        E 0 80 48 00
        E 0 80 4b 00
        E 0 80 54 00
        E 0 80 57 00
        E 0 80 60 00
        E 0 80 63 00
        E 120 90 18 60
        E 0 90 54 60
        E 0 90 60 60
        E 120 80 18 00
        E 0 80 54 00
        E 0 80 60 00
        E 120 90 1a 60
        E 0 90 1f 60
        E 0 90 3d 60
        E 0 90 3f 60
        E 0 90 49 60
        E 0 90 4b 60
        E 0 90 55 60
        E 0 90 57 60
        E 0 90 61 60
        E 0 90 63 60
        E 120 80 1a 00
        E 0 80 1f 00
        E 0 80 3d 00
        E 0 80 3f 00
        E 0 80 49 00
        E 0 80 4b 00
        E 0 80 55 00
        E 0 80 57 00
        E 0 80 61 00
        E 0 80 63 00
        E 360 90 18 60
        E 0 90 1f 60
        E 0 90 3f 60
        E 0 90 48 60
        E 0 90 4b 60
        E 0 90 54 60
        E 0 90 57 60
        E 0 90 60 60
        E 0 90 63 60
        E 120 80 18 00
        E 0 80 1f 00
        E 0 80 3f 00
        E 0 80 48 00
        E 0 80 4b 00
        E 0 80 54 00
        E 0 80 57 00
        E 0 80 60 00
        E 0 80 63 00
        E 120 90 18 60
        E 0 90 54 60
        E 0 90 60 60
        E 120 80 18 00
        E 0 80 54 00
        E 0 80 60 00
        E 120 90 1a 60
        E 0 90 1f 60
        E 0 90 3d 60
        E 0 90 3f 60
        E 0 90 49 60
        E 0 90 4b 60
        E 0 90 55 60
        E 0 90 57 60
        E 0 90 61 60
        E 0 90 63 60
        E 120 80 1a 00
        E 0 80 1f 00
        E 0 80 3d 00
        E 0 80 3f 00
        E 0 80 49 00
        E 0 80 4b 00
        E 0 80 55 00
        E 0 80 57 00
        E 0 80 61 00
        E 0 80 63 00
        E 120 90 18 60
        E 0 90 54 60
        E 0 90 60 60
        E 120 80 18 00
        E 0 80 54 00
        E 0 80 60 00
        E 120 90 18 60
        E 0 90 1f 60
        E 0 90 3f 60
        E 0 90 48 60
        E 0 90 4b 60
        E 0 90 54 60
        E 0 90 57 60
        E 0 90 60 60
        E 0 90 63 60
        E 120 80 18 00
        E 0 80 1f 00
        E 0 80 3f 00
        E 0 80 48 00
        E 0 80 4b 00
        E 0 80 54 00
        E 0 80 57 00
        E 0 80 60 00
        E 0 80 63 00
        E 360 90 1a 60
        E 0 90 1f 60
        E 0 90 3d 60
        E 0 90 3f 60
        E 0 90 49 60
        E 0 90 4b 60
        E 0 90 55 60
        E 0 90 57 60
        E 0 90 61 60
        E 0 90 63 60
        E 120 80 1a 00
        E 0 80 1f 00
        E 0 80 3d 00
        E 0 80 3f 00
        E 0 80 49 00
        E 0 80 4b 00
        E 0 80 55 00
        E 0 80 57 00
        E 0 80 61 00
        E 0 80 63 00
        E 120 90 18 60
        E 0 90 54 60
        E 0 90 60 60
        E 120 80 18 00
        E 0 80 54 00
        E 0 80 60 00
        E 120 90 18 60
        E 0 90 1f 60
        E 0 90 3f 60
        E 0 90 48 60
        E 0 90 4b 60
        E 0 90 54 60
        E 0 90 57 60
        E 0 90 60 60
        E 0 90 63 60
        E 120 80 18 00
        E 0 80 1f 00
        E 0 80 3f 00
        E 0 80 48 00
        E 0 80 4b 00
        E 0 80 54 00
        E 0 80 57 00
        E 0 80 60 00
        E 0 80 63 00
        E 120 90 18 60
        E 0 90 54 60
        E 0 90 60 60
        E 120 80 18 00
        E 0 80 54 00
        E 0 80 60 00
        E 120 90 1a 60
        E 0 90 1f 60
        E 0 90 3d 60
        E 0 90 3f 60
        E 0 90 49 60
        E 0 90 4b 60
        E 0 90 55 60
        E 0 90 57 60
        E 0 90 61 60
        E 0 90 63 60
        E 120 80 1a 00
        E 0 80 1f 00
        E 0 80 3d 00
        E 0 80 3f 00
        E 0 80 49 00
        E 0 80 4b 00
        E 0 80 55 00
        E 0 80 57 00
        E 0 80 61 00
        E 0 80 63 00
        E 360 90 18 60
        E 0 90 1f 60
        E 0 90 3f 60
        E 0 90 48 60
        E 0 90 4b 60
        E 0 90 54 60
        E 0 90 57 60
        E 0 90 60 60
        E 0 90 63 60
        E 0 90 78 60
        E 0 90 79 60
        E 0 90 7a 60
        E 0 90 7b 60
        E 0 90 7c 60
        E 120 80 18 00
        E 0 80 1f 00
        E 0 80 3f 00
        E 0 80 48 00
        E 0 80 4b 00
        E 0 80 54 00
        E 0 80 57 00
        E 0 80 60 00
        E 0 80 63 00
        E 120 90 18 60
        E 0 90 54 60
        E 0 90 60 60
        E 120 80 18 00
        E 0 80 54 00
        E 0 80 60 00
        E 120 90 1a 60
        E 0 90 1f 60
        E 0 90 3d 60
        E 0 90 3f 60
        E 0 90 49 60
        E 0 90 4b 60
        E 0 90 55 60
        E 0 90 57 60
        E 0 90 61 60
        E 0 90 63 60
        E 120 80 1a 00
        E 0 80 1f 00
        E 0 80 3d 00
        E 0 80 3f 00
        E 0 80 49 00
        E 0 80 4b 00
        E 0 80 55 00
        E 0 80 57 00
        E 0 80 61 00
        E 0 80 63 00
        E 120 90 18 60
        E 0 90 54 60
        E 0 90 60 60
        E 120 80 18 00
        E 0 80 54 00
        E 0 80 60 00
        E 120 90 1f 60
        E 0 90 3f 60
        E 0 90 4b 60
        E 0 90 57 60
        E 0 90 63 60
        E 120 80 1f 00
        E 0 80 3f 00
        E 0 80 4b 00
        E 0 80 57 00
        E 0 80 63 00
        E 120 90 18 60
        E 0 90 54 60
        E 0 90 60 60
        E 120 80 18 00
        E 0 80 54 00
        E 0 80 60 00
        E 120 90 1a 60
        E 0 90 1f 60
        E 0 90 3d 60
        E 0 90 3f 60
        E 0 90 49 60
        E 0 90 4b 60
        E 0 90 55 60
        E 0 90 57 60
        E 0 90 61 60
        E 0 90 63 60
        E 120 80 1a 00
        E 0 80 1f 00
        E 0 80 3d 00
        E 0 80 3f 00
        E 0 80 49 00
        E 0 80 4b 00
        E 0 80 55 00
        E 0 80 57 00
        E 0 80 61 00
        E 0 80 63 00
        E 0 90 1a 60
        E 0 90 61 60
        E 120 80 1a 00
        E 0 80 61 00
        E 0 90 1b 60
        E 0 90 55 60
        E 0 90 61 60
        E 120 80 1b 00
        E 0 80 55 00
        E 0 80 61 00
        E 0 90 1a 60
        E 0 90 61 60
        E 120 80 78 00
        E 0 80 79 00
        E 0 80 7a 00
        E 0 80 7b 00
        E 0 80 7c 00
        E 0 80 1a 00
        E 0 80 61 00
        E 0 90 18 60
        E 0 90 1f 60
        E 0 90 3f 60
        E 0 90 48 60
        E 0 90 4b 60
        E 0 90 54 60
        E 0 90 57 60
        E 0 90 60 60
        E 0 90 63 60
        E 120 80 18 00
        E 0 80 1f 00
        E 0 80 3f 00
        E 0 80 48 00
        E 0 80 4b 00
        E 0 80 54 00
        E 0 80 57 00
        E 0 80 60 00
        E 0 80 63 00
        E 120 90 18 60
        E 0 90 54 60
        E 0 90 60 60
        E 120 80 18 00
        E 0 80 54 00
        E 0 80 60 00
        E 120 90 1a 60
        E 0 90 1f 60
        E 0 90 3d 60
        E 0 90 3f 60
        E 0 90 49 60
        E 0 90 4b 60
        E 0 90 55 60
        E 0 90 57 60
        E 0 90 61 60
        E 0 90 63 60
        E 120 80 1a 00
        E 0 80 1f 00
        E 0 80 3d 00
        E 0 80 3f 00
        E 0 80 49 00
        E 0 80 4b 00
        E 0 80 55 00
        E 0 80 57 00
        E 0 80 61 00
        E 0 80 63 00
        E 360 90 18 60
        E 0 90 1f 60
        E 0 90 3f 60
        E 0 90 48 60
        E 0 90 4b 60
        E 0 90 54 60
        E 0 90 57 60
        E 0 90 60 60
        E 0 90 63 60
        E 120 80 18 00
        E 0 80 1f 00
        E 0 80 3f 00
        E 0 80 48 00
        E 0 80 4b 00
        E 0 80 54 00
        E 0 80 57 00
        E 0 80 60 00
        E 0 80 63 00
        E 120 90 18 60
        E 0 90 54 60
        E 0 90 60 60
        E 120 80 18 00
        E 0 80 54 00
        E 0 80 60 00
        E 120 90 1a 60
        E 0 90 1f 60
        E 0 90 3d 60
        E 0 90 3f 60
        E 0 90 49 60
        E 0 90 4b 60
        E 0 90 55 60
        E 0 90 57 60
        E 0 90 61 60
        E 0 90 63 60
        E 120 80 1a 00
        E 0 80 1f 00
        E 0 80 3d 00
        E 0 80 3f 00
        E 0 80 49 00
        E 0 80 4b 00
        E 0 80 55 00
        E 0 80 57 00
        E 0 80 61 00
        E 0 80 63 00
        E 120 90 18 60
        E 0 90 33 60
        E 0 90 54 60
        E 0 90 58 60
        E 0 90 60 60
        E 0 90 64 60
        E 0 90 70 60
        E 120 80 18 00
        E 0 80 33 00
        E 0 80 54 00
        E 0 80 58 00
        E 0 80 60 00
        E 0 80 64 00
        E 0 80 70 00
        E 120 90 18 60
        E 0 90 1f 60
        E 0 90 3f 60
        E 0 90 48 60
        E 0 90 4b 60
        E 0 90 54 60
        E 0 90 57 60
        E 0 90 60 60
        E 0 90 63 60
        E 120 80 18 00
        E 0 80 1f 00
        E 0 80 3f 00
        E 0 80 48 00
        E 0 80 4b 00
        E 0 80 54 00
        E 0 80 57 00
        E 0 80 60 00
        E 0 80 63 00
        E 120 90 18 60
        E 0 90 54 60
        E 0 90 60 60
        E 120 80 18 00
        E 0 80 54 00
        E 0 80 60 00
        E 120 90 1a 60
        E 0 90 1f 60
        E 0 90 3d 60
        E 0 90 3f 60
        E 0 90 49 60
        E 0 90 4b 60
        E 0 90 55 60
        E 0 90 57 60
        E 0 90 61 60
        E 0 90 63 60
        E 120 80 1a 00
        E 0 80 1f 00
        E 0 80 3d 00
        E 0 80 3f 00
        E 0 80 49 00
        E 0 80 4b 00
        E 0 80 55 00
        E 0 80 57 00
        E 0 80 61 00
        E 0 80 63 00
        E 360 90 18 60
        E 0 90 1f 60
        E 0 90 3f 60
        E 0 90 48 60
        E 0 90 4b 60
        E 0 90 54 60
        E 0 90 57 60
        E 0 90 60 60
        E 0 90 63 60
        E 120 80 18 00
        E 0 80 1f 00
        E 0 80 3f 00
        E 0 80 48 00
        E 0 80 4b 00
        E 0 80 54 00
        E 0 80 57 00
        E 0 80 60 00
        E 0 80 63 00
        E 120 90 18 60
        E 0 90 54 60
        E 0 90 60 60
        E 120 80 18 00
        E 0 80 54 00
        E 0 80 60 00
        E 120 90 1a 60
        E 0 90 1f 60
        E 0 90 3d 60
        E 0 90 3f 60
        E 0 90 49 60
        E 0 90 4b 60
        E 0 90 55 60
        E 0 90 57 60
        E 0 90 61 60
        E 0 90 63 60
        E 120 80 1a 00
        E 0 80 1f 00
        E 0 80 3d 00
        E 0 80 3f 00
        E 0 80 49 00
        E 0 80 4b 00
        E 0 80 55 00
        E 0 80 57 00
        E 0 80 61 00
        E 0 80 63 00
        E 120 90 18 60
        E 0 90 54 60
        E 0 90 60 60
        E 120 80 18 00
        E 0 80 54 00
        E 0 80 60 00
        E 120 90 18 60
        E 0 90 1f 60
        E 0 90 3f 60
        E 0 90 48 60
        E 0 90 4b 60
        E 0 90 54 60
        E 0 90 57 60
        E 0 90 60 60
        E 0 90 63 60
        E 120 80 18 00
        E 0 80 1f 00
        E 0 80 3f 00
        E 0 80 48 00
        E 0 80 4b 00
        E 0 80 54 00
        E 0 80 57 00
        E 0 80 60 00
        E 0 80 63 00
        E 360 90 1a 60
        E 0 90 1f 60
        E 0 90 3d 60
        E 0 90 3f 60
        E 0 90 49 60
        E 0 90 4b 60
        E 0 90 55 60
        E 0 90 57 60
        E 0 90 61 60
        E 0 90 63 60
        E 120 80 1a 00
        E 0 80 1f 00
        E 0 80 3d 00
        E 0 80 3f 00
        E 0 80 49 00
        E 0 80 4b 00
        E 0 80 55 00
        E 0 80 57 00
        E 0 80 61 00
        E 0 80 63 00
        E 120 90 18 60
        E 0 90 54 60
        E 0 90 60 60
        E 120 80 18 00
        E 0 80 54 00
        E 0 80 60 00
        E 120 90 18 60
        E 0 90 1f 60
        E 0 90 3f 60
        E 0 90 48 60
        E 0 90 4b 60
        E 0 90 54 60
        E 0 90 57 60
        E 0 90 60 60
        E 0 90 63 60
        E 120 80 18 00
        E 0 80 1f 00
        E 0 80 3f 00
        E 0 80 48 00
        E 0 80 4b 00
        E 0 80 54 00
        E 0 80 57 00
        E 0 80 60 00
        E 0 80 63 00
        E 120 90 18 60
        E 0 90 54 60
        E 0 90 60 60
        E 120 80 18 00
        E 0 80 54 00
        E 0 80 60 00
        E 120 90 1a 60
        E 0 90 1f 60
        E 0 90 3d 60
        E 0 90 3f 60
        E 0 90 49 60
        E 0 90 4b 60
        E 0 90 55 60
        E 0 90 57 60
        E 0 90 61 60
        E 0 90 63 60
        E 120 80 1a 00
        E 0 80 1f 00
        E 0 80 3d 00
        E 0 80 3f 00
        E 0 80 49 00
        E 0 80 4b 00
        E 0 80 55 00
        E 0 80 57 00
        E 0 80 61 00
        E 0 80 63 00
        E 360 90 18 60
        E 0 90 1f 60
        E 0 90 3f 60
        E 0 90 48 60
        E 0 90 4b 60
        E 0 90 54 60
        E 0 90 57 60
        E 0 90 60 60
        E 0 90 63 60
        E 120 80 18 00
        E 0 80 1f 00
        E 0 80 3f 00
        E 0 80 48 00
        E 0 80 4b 00
        E 0 80 54 00
        E 0 80 57 00
        E 0 80 60 00
        E 0 80 63 00
        E 120 90 18 60
        E 0 90 54 60
        E 0 90 60 60
        E 120 80 18 00
        E 0 80 54 00
        E 0 80 60 00
        E 120 90 1a 60
        E 0 90 1f 60
        E 0 90 3d 60
        E 0 90 3f 60
        E 0 90 49 60
        E 0 90 4b 60
        E 0 90 55 60
        E 0 90 57 60
        E 0 90 61 60
        E 0 90 63 60
        E 120 80 1a 00
        E 0 80 1f 00
        E 0 80 3d 00
        E 0 80 3f 00
        E 0 80 49 00
        E 0 80 4b 00
        E 0 80 55 00
        E 0 80 57 00
        E 0 80 61 00
        E 0 80 63 00
        E 120 90 18 60
        E 0 90 54 60
        E 0 90 60 60
        E 120 80 18 00
        E 0 80 54 00
        E 0 80 60 00
        E 120 90 1f 60
        E 0 90 3f 60
        E 0 90 4b 60
        E 0 90 57 60
        E 0 90 63 60
        E 120 80 1f 00
        E 0 80 3f 00
        E 0 80 4b 00
        E 0 80 57 00
        E 0 80 63 00
        E 120 90 18 60
        E 0 90 54 60
        E 0 90 60 60
        E 120 80 18 00
        E 0 80 54 00
        E 0 80 60 00
        E 120 90 1a 60
        E 0 90 1f 60
        E 0 90 3d 60
        E 0 90 3f 60
        E 0 90 49 60
        E 0 90 4b 60
        E 0 90 55 60
        E 0 90 57 60
        E 0 90 61 60
        E 0 90 63 60
        E 120 80 1a 00
        E 0 80 1f 00
        E 0 80 3d 00
        E 0 80 3f 00
        E 0 80 49 00
        E 0 80 4b 00
        E 0 80 55 00
        E 0 80 57 00
        E 0 80 61 00
        E 0 80 63 00
        E 0 90 1a 60
        E 0 90 61 60
        E 120 80 1a 00
        E 0 80 61 00
        E 0 90 1b 60
        E 0 90 55 60
        E 0 90 61 60
        E 120 80 1b 00
        E 0 80 55 00
        E 0 80 61 00
        E 0 90 1a 60
        E 0 90 61 60
        E 120 80 1a 00
        E 0 80 61 00
        E 0 90 18 60
        E 0 90 1f 60
        E 0 90 3f 60
        E 0 90 48 60
        E 0 90 4b 60
        E 0 90 54 60
        E 0 90 57 60
        E 0 90 60 60
        E 0 90 63 60
        E 120 80 18 00
        E 0 80 1f 00
        E 0 80 3f 00
        E 0 80 48 00
        E 0 80 4b 00
        E 0 80 54 00
        E 0 80 57 00
        E 0 80 60 00
        E 0 80 63 00
        E 120 90 18 60
        E 0 90 54 60
        E 0 90 60 60
        E 120 80 18 00
        E 0 80 54 00
        E 0 80 60 00
        E 120 90 1a 60
        E 0 90 1f 60
        E 0 90 3d 60
        E 0 90 3f 60
        E 0 90 49 60
        E 0 90 4b 60
        E 0 90 55 60
        E 0 90 57 60
        E 0 90 61 60
        E 0 90 63 60
        E 120 80 1a 00
        E 0 80 1f 00
        E 0 80 3d 00
        E 0 80 3f 00
        E 0 80 49 00
        E 0 80 4b 00
        E 0 80 55 00
        E 0 80 57 00
        E 0 80 61 00
        E 0 80 63 00
        E 360 90 18 60
        E 0 90 1f 60
        E 0 90 3f 60
        E 0 90 48 60
        E 0 90 4b 60
        E 0 90 54 60
        E 0 90 57 60
        E 0 90 60 60
        E 0 90 63 60
        E 120 80 18 00
        E 0 80 1f 00
        E 0 80 3f 00
        E 0 80 48 00
        E 0 80 4b 00
        E 0 80 54 00
        E 0 80 57 00
        E 0 80 60 00
        E 0 80 63 00
        E 120 90 18 60
        E 0 90 54 60
        E 0 90 60 60
        E 120 80 18 00
        E 0 80 54 00
        E 0 80 60 00
        E 120 90 1a 60
        E 0 90 1f 60
        E 0 90 3d 60
        E 0 90 3f 60
        E 0 90 49 60
        E 0 90 4b 60
        E 0 90 55 60
        E 0 90 57 60
        E 0 90 61 60
        E 0 90 63 60
        E 120 80 1a 00
        E 0 80 1f 00
        E 0 80 3d 00
        E 0 80 3f 00
        E 0 80 49 00
        E 0 80 4b 00
        E 0 80 55 00
        E 0 80 57 00
        E 0 80 61 00
        E 0 80 63 00
        E 120 90 18 60
        E 0 90 33 60
        E 0 90 54 60
        E 0 90 58 60
        E 0 90 60 60
        E 0 90 64 60
        E 0 90 70 60
        E 120 80 18 00
        E 0 80 33 00
        E 0 80 54 00
        E 0 80 58 00
        E 0 80 60 00
        E 0 80 64 00
        E 0 80 70 00
        E 120 90 18 60
        E 0 90 1f 60
        E 0 90 3f 60
        E 0 90 48 60
        E 0 90 4b 60
        E 0 90 54 60
        E 0 90 57 60
        E 0 90 60 60
        E 0 90 63 60
        E 120 80 18 00
        E 0 80 1f 00
        E 0 80 3f 00
        E 0 80 48 00
        E 0 80 4b 00
        E 0 80 54 00
        E 0 80 57 00
        E 0 80 60 00
        E 0 80 63 00
        E 120 90 18 60
        E 0 90 54 60
        E 0 90 60 60
        E 120 80 18 00
        E 0 80 54 00
        E 0 80 60 00
        E 120 90 1a 60
        E 0 90 1f 60
        E 0 90 3d 60
        E 0 90 3f 60
        E 0 90 49 60
        E 0 90 4b 60
        E 0 90 55 60
        E 0 90 57 60
        E 0 90 61 60
        E 0 90 63 60
        E 120 80 1a 00
        E 0 80 1f 00
        E 0 80 3d 00
        E 0 80 3f 00
        E 0 80 49 00
        E 0 80 4b 00
        E 0 80 55 00
        E 0 80 57 00
        E 0 80 61 00
        E 0 80 63 00
        E 360 90 18 60
        E 0 90 1f 60
        E 0 90 3f 60
        E 0 90 48 60
        E 0 90 4b 60
        E 0 90 54 60
        E 0 90 57 60
        E 0 90 60 60
        E 0 90 63 60
        E 120 80 18 00
        E 0 80 1f 00
        E 0 80 3f 00
        E 0 80 48 00
        E 0 80 4b 00
        E 0 80 54 00
        E 0 80 57 00
        E 0 80 60 00
        E 0 80 63 00
        E 120 90 18 60
        E 0 90 54 60
        E 0 90 60 60
        E 120 80 18 00
        E 0 80 54 00
        E 0 80 60 00
        E 120 90 1a 60
        E 0 90 1f 60
        E 0 90 3d 60
        E 0 90 3f 60
        E 0 90 49 60
        E 0 90 4b 60
        E 0 90 55 60
        E 0 90 57 60
        E 0 90 61 60
        E 0 90 63 60
        E 120 80 1a 00
        E 0 80 1f 00
        E 0 80 3d 00
        E 0 80 3f 00
        E 0 80 49 00
        E 0 80 4b 00
        E 0 80 55 00
        E 0 80 57 00
        E 0 80 61 00
        E 0 80 63 00
        E 120 90 18 60
        E 0 90 54 60
        E 0 90 60 60
        E 120 80 18 00
        E 0 80 54 00
        E 0 80 60 00
        E 120 90 18 60
        E 0 90 1f 60
        E 0 90 3f 60
        E 0 90 48 60
        E 0 90 4b 60
        E 0 90 54 60
        E 0 90 57 60
        E 0 90 60 60
        E 0 90 63 60
        E 120 80 18 00
        E 0 80 1f 00
        E 0 80 3f 00
        E 0 80 48 00
        E 0 80 4b 00
        E 0 80 54 00
        E 0 80 57 00
        E 0 80 60 00
        E 0 80 63 00
        E 360 90 1a 60
        E 0 90 1f 60
        E 0 90 3d 60
        E 0 90 3f 60
        E 0 90 49 60
        E 0 90 4b 60
        E 0 90 55 60
        E 0 90 57 60
        E 0 90 61 60
        E 0 90 63 60
        E 120 80 1a 00
        E 0 80 1f 00
        E 0 80 3d 00
        E 0 80 3f 00
        E 0 80 49 00
        E 0 80 4b 00
        E 0 80 55 00
        E 0 80 57 00
        E 0 80 61 00
        E 0 80 63 00
        E 120 90 18 60
        E 0 90 54 60
        E 0 90 60 60
        E 120 80 18 00
        E 0 80 54 00
        E 0 80 60 00
        E 120 90 18 60
        E 0 90 1f 60
        E 0 90 3f 60
        E 0 90 48 60
        E 0 90 4b 60
        E 0 90 54 60
        E 0 90 57 60
        E 0 90 60 60
        E 0 90 63 60
        E 120 80 18 00
        E 0 80 1f 00
        E 0 80 3f 00
        E 0 80 48 00
        E 0 80 4b 00
        E 0 80 54 00
        E 0 80 57 00
        E 0 80 60 00
        E 0 80 63 00
        E 120 90 18 60
        E 0 90 54 60
        E 0 90 60 60
        E 120 80 18 00
        E 0 80 54 00
        E 0 80 60 00
        E 120 90 1a 60
        E 0 90 1f 60
        E 0 90 3d 60
        E 0 90 3f 60
        E 0 90 49 60
        E 0 90 4b 60
        E 0 90 55 60
        E 0 90 57 60
        E 0 90 61 60
        E 0 90 63 60
        E 120 80 1a 00
        E 0 80 1f 00
        E 0 80 3d 00
        E 0 80 3f 00
        E 0 80 49 00
        E 0 80 4b 00
        E 0 80 55 00
        E 0 80 57 00
        E 0 80 61 00
        E 0 80 63 00
        E 360 90 18 60
        E 0 90 1f 60
        E 0 90 3f 60
        E 0 90 48 60
        E 0 90 4b 60
        E 0 90 54 60
        E 0 90 57 60
        E 0 90 60 60
        E 0 90 63 60
        E 0 90 78 60
        E 0 90 79 60
        E 0 90 7a 60
        E 0 90 7b 60
        E 0 90 7c 60
        E 120 80 18 00
        E 0 80 1f 00
        E 0 80 3f 00
        E 0 80 48 00
        E 0 80 4b 00
        E 0 80 54 00
        E 0 80 57 00
        E 0 80 60 00
        E 0 80 63 00
        E 120 90 18 60
        E 0 90 54 60
        E 0 90 60 60
        E 120 80 18 00
        E 0 80 54 00
        E 0 80 60 00
        E 120 90 1a 60
        E 0 90 1f 60
        E 0 90 3d 60
        E 0 90 3f 60
        E 0 90 49 60
        E 0 90 4b 60
        E 0 90 55 60
        E 0 90 57 60
        E 0 90 61 60
        E 0 90 63 60
        E 120 80 1a 00
        E 0 80 1f 00
        E 0 80 3d 00
        E 0 80 3f 00
        E 0 80 49 00
        E 0 80 4b 00
        E 0 80 55 00
        E 0 80 57 00
        E 0 80 61 00
        E 0 80 63 00
        E 120 90 18 60
        E 0 90 54 60
        E 0 90 60 60
        E 120 80 18 00
        E 0 80 54 00
        E 0 80 60 00
        E 120 90 1f 60
        E 0 90 3f 60
        E 0 90 4b 60
        E 0 90 57 60
        E 0 90 63 60
        E 120 80 1f 00
        E 0 80 3f 00
        E 0 80 4b 00
        E 0 80 57 00
        E 0 80 63 00
        E 120 90 18 60
        E 0 90 54 60
        E 0 90 60 60
        E 120 80 18 00
        E 0 80 54 00
        E 0 80 60 00
        E 120 90 1a 60
        E 0 90 1f 60
        E 0 90 3d 60
        E 0 90 3f 60
        E 0 90 49 60
        E 0 90 4b 60
        E 0 90 55 60
        E 0 90 57 60
        E 0 90 61 60
        E 0 90 63 60
        E 120 80 1a 00
        E 0 80 1f 00
        E 0 80 3d 00
        E 0 80 3f 00
        E 0 80 49 00
        E 0 80 4b 00
        E 0 80 55 00
        E 0 80 57 00
        E 0 80 61 00
        E 0 80 63 00
        E 0 90 1a 60
        E 0 90 61 60
        E 120 80 1a 00
        E 0 80 61 00
        E 0 90 1b 60
        E 0 90 55 60
        E 0 90 61 60
        E 120 80 1b 00
        E 0 80 55 00
        E 0 80 61 00
        E 0 90 1a 60
        E 0 90 61 60
        E 120 80 19 00
        E 0 80 78 00
        E 0 80 79 00
        E 0 80 7a 00
        E 0 80 7b 00
        E 0 80 7c 00
        E 0 80 1a 00
        E 0 80 61 00
        E 0 90 18 60
        E 0 90 1f 60
        E 0 90 3e 60
        E 0 90 48 60
        E 0 90 4a 60
        E 0 90 54 60
        E 0 90 56 60
        E 0 90 60 60
        E 0 90 62 60
        E 120 80 18 00
        E 0 80 1f 00
        E 0 80 3e 00
        E 0 80 48 00
        E 0 80 4a 00
        E 0 80 54 00
        E 0 80 56 00
        E 0 80 60 00
        E 0 80 62 00
        E 360 90 1a 60
        E 0 90 1f 60
        E 0 90 3d 60
        E 0 90 3e 60
        E 0 90 49 60
        E 0 90 4a 60
        E 0 90 55 60
        E 0 90 56 60
        E 0 90 61 60
        E 0 90 62 60
        E 120 80 1a 00
        E 0 80 1f 00
        E 0 80 3d 00
        E 0 80 3e 00
        E 0 80 49 00
        E 0 80 4a 00
        E 0 80 55 00
        E 0 80 56 00
        E 0 80 61 00
        E 0 80 62 00
        E 360 90 18 60
        E 0 90 1f 60
        E 0 90 3e 60
        E 0 90 48 60
        E 0 90 4a 60
        E 0 90 54 60
        E 0 90 56 60
        E 0 90 60 60
        E 0 90 62 60
        E 120 80 18 00
        E 0 80 1f 00
        E 0 80 3e 00
        E 0 80 48 00
        E 0 80 4a 00
        E 0 80 54 00
        E 0 80 56 00
        E 0 80 60 00
        E 0 80 62 00
        E 120 90 18 60
        E 0 90 54 60
        E 0 90 60 60
        E 120 80 18 00
        E 0 80 54 00
        E 0 80 60 00
        E 120 90 1a 60
        E 0 90 1f 60
        E 0 90 3d 60
        E 0 90 3e 60
        E 0 90 49 60
        E 0 90 4a 60
        E 0 90 55 60
        E 0 90 56 60
        E 0 90 61 60
        E 0 90 62 60
        E 120 80 1a 00
        E 0 80 1f 00
        E 0 80 3d 00
        E 0 80 3e 00
        E 0 80 49 00
        E 0 80 4a 00
        E 0 80 55 00
        E 0 80 56 00
        E 0 80 61 00
        E 0 80 62 00
        E 360 90 18 60
        E 0 90 1f 60
        E 0 90 3e 60
        E 0 90 48 60
        E 0 90 4a 60
        E 0 90 54 60
        E 0 90 56 60
        E 0 90 60 60
        E 0 90 62 60
        E 120 80 18 00
        E 0 80 1f 00
        E 0 80 3e 00
        E 0 80 48 00
        E 0 80 4a 00
        E 0 80 54 00
        E 0 80 56 00
        E 0 80 60 00
        E 0 80 62 00
        E 360 90 1a 60
        E 0 90 1f 60
        E 0 90 3d 60
        E 0 90 3e 60
        E 0 90 49 60
        E 0 90 4a 60
        E 0 90 55 60
        E 0 90 56 60
        E 0 90 61 60
        E 0 90 62 60
        E 120 80 1a 00
        E 0 80 1f 00
        E 0 80 3d 00
        E 0 80 3e 00
        E 0 80 49 00
        E 0 80 4a 00
        E 0 80 55 00
        E 0 80 56 00
        E 0 80 61 00
        E 0 80 62 00
        E 120 90 18 60
        E 0 90 54 60
        E 0 90 60 60
        E 120 80 18 00
        E 0 80 54 00
        E 0 80 60 00
        E 120 90 1f 60
        E 0 90 3e 60
        E 0 90 4a 60
        E 0 90 56 60
        E 0 90 62 60
        E 120 80 1f 00
        E 0 80 3e 00
        E 0 80 4a 00
        E 0 80 56 00
        E 0 80 62 00
        E 120 90 18 60
        E 0 90 54 60
        E 0 90 60 60
        E 120 80 18 00
        E 0 80 54 00
        E 0 80 60 00
        E 120 90 1a 60
        E 0 90 1f 60
        E 0 90 3d 60
        E 0 90 3e 60
        E 0 90 49 60
        E 0 90 4a 60
        E 0 90 55 60
        E 0 90 56 60
        E 0 90 61 60
        E 0 90 62 60
        E 120 80 1a 00
        E 0 80 1f 00
        E 0 80 3d 00
        E 0 80 3e 00
        E 0 80 49 00
        E 0 80 4a 00
        E 0 80 55 00
        E 0 80 56 00
        E 0 80 61 00
        E 0 80 62 00
        E 120 90 18 60
        E 0 90 19 60
        E 0 90 1f 60
        E 0 90 54 60
        E 0 90 57 60
        E 0 90 60 60
        E 0 90 63 60
        E 120 80 18 00
        E 0 80 1f 00
        E 0 80 54 00
        E 0 80 57 00
        E 0 80 60 00
        E 0 80 63 00
        E 120 90 74 60
        E 240 80 19 00
        E 0 90 18 60
        E 0 90 1f 60
        E 0 90 54 60
        E 0 90 56 60
        E 0 90 60 60
        E 0 90 62 60
        E 120 80 18 00
        E 0 80 1f 00
        E 0 80 54 00
        E 0 80 56 00
        E 0 80 60 00
        E 0 80 62 00
        E 120 90 1a 60
        E 0 90 1f 60
        E 0 90 3d 60
        E 0 90 3e 60
        E 0 90 49 60
        E 0 90 4a 60
        E 0 90 55 60
        E 0 90 56 60
        E 0 90 61 60
        E 0 90 62 60
        E 120 80 1a 00
        E 0 80 1f 00
        E 0 80 3d 00
        E 0 80 3e 00
        E 0 80 49 00
        E 0 80 4a 00
        E 0 80 55 00
        E 0 80 56 00
        E 0 80 61 00
        E 0 80 62 00
        E 120 90 18 60
        E 0 90 54 60
        E 0 90 60 60
        E 120 80 18 00
        E 0 80 54 00
        E 0 80 60 00
        E 120 90 18 60
        E 0 90 1f 60
        E 0 90 3e 60
        E 0 90 48 60
        E 0 90 4a 60
        E 0 90 54 60
        E 0 90 56 60
        E 0 90 60 60
        E 0 90 62 60
        E 120 80 18 00
        E 0 80 1f 00
        E 0 80 3e 00
        E 0 80 48 00
        E 0 80 4a 00
        E 0 80 54 00
        E 0 80 56 00
        E 0 80 60 00
        E 0 80 62 00
        E 120 90 18 60
        E 0 90 54 60
        E 0 90 60 60
        E 120 80 18 00
        E 0 80 54 00
        E 0 80 60 00
        E 120 90 1a 60
        E 0 90 1f 60
        E 0 90 3d 60
        E 0 90 3e 60
        E 0 90 49 60
        E 0 90 4a 60
        E 0 90 55 60
        E 0 90 56 60
        E 0 90 61 60
        E 0 90 62 60
        E 120 80 1a 00
        E 0 80 1f 00
        E 0 80 3d 00
        E 0 80 3e 00
        E 0 80 49 00
        E 0 80 4a 00
        E 0 80 55 00
        E 0 80 56 00
        E 0 80 61 00
        E 0 80 62 00
        E 360 90 18 60
        E 0 90 1f 60
        E 0 90 3e 60
        E 0 90 48 60
        E 0 90 4a 60
        E 0 90 54 60
        E 0 90 56 60
        E 0 90 60 60
        E 0 90 62 60
        E 120 80 18 00
        E 0 80 1f 00
        E 0 80 3e 00
        E 0 80 48 00
        E 0 80 4a 00
        E 0 80 54 00
        E 0 80 56 00
        E 0 80 60 00
        E 0 80 62 00
        E 120 90 18 60
        E 0 90 54 60
        E 0 90 60 60
        E 120 80 18 00
        E 0 80 54 00
        E 0 80 60 00
        E 120 90 1a 60
        E 0 90 1f 60
        E 0 90 3d 60
        E 0 90 3e 60
        E 0 90 49 60
        E 0 90 4a 60
        E 0 90 55 60
        E 0 90 56 60
        E 0 90 61 60
        E 0 90 62 60
        E 120 80 1a 00
        E 0 80 1f 00
        E 0 80 3d 00
        E 0 80 3e 00
        E 0 80 49 00
        E 0 80 4a 00
        E 0 80 55 00
        E 0 80 56 00
        E 0 80 61 00
        E 0 80 62 00
        E 120 90 18 60
        E 0 90 54 60
        E 0 90 60 60
        E 120 80 18 00
        E 0 80 54 00
        E 0 80 60 00
        E 120 90 1f 60
        E 0 90 3e 60
        E 0 90 4a 60
        E 0 90 56 60
        E 0 90 62 60
        E 120 80 1f 00
        E 0 80 3e 00
        E 0 80 4a 00
        E 0 80 56 00
        E 0 80 62 00
        E 120 90 18 60
        E 0 90 19 60
        E 0 90 1f 60
        E 0 90 54 60
        E 0 90 57 60
        E 0 90 60 60
        E 0 90 63 60
        E 120 80 18 00
        E 0 80 1f 00
        E 0 80 54 00
        E 0 80 57 00
        E 0 80 60 00
        E 0 80 63 00
        E 120 90 1a 60
        E 0 90 3d 60
        E 0 90 49 60
        E 0 90 55 60
        E 0 90 61 60
        E 120 80 1a 00
        E 0 80 3d 00
        E 0 80 49 00
        E 0 80 55 00
        E 0 80 61 00
        E 120 80 19 00
        E 0 90 1a 60
        E 0 90 55 60
        E 0 90 61 60
        E 120 80 1a 00
        E 0 80 55 00
        E 0 80 61 00
        E 120 80 74 00
        E 0 90 18 60
        E 0 90 1f 60
        E 0 90 3e 60
        E 0 90 48 60
        E 0 90 4a 60
        E 0 90 54 60
        E 0 90 56 60
        E 0 90 60 60
        E 0 90 62 60
        E 120 80 18 00
        E 0 80 1f 00
        E 0 80 3e 00
        E 0 80 48 00
        E 0 80 4a 00
        E 0 80 54 00
        E 0 80 56 00
        E 0 80 60 00
        E 0 80 62 00
        E 360 90 1a 60
        E 0 90 1f 60
        E 0 90 3d 60
        E 0 90 3e 60
        E 0 90 49 60
        E 0 90 4a 60
        E 0 90 55 60
        E 0 90 56 60
        E 0 90 61 60
        E 0 90 62 60
        E 120 80 1a 00
        E 0 80 1f 00
        E 0 80 3d 00
        E 0 80 3e 00
        E 0 80 49 00
        E 0 80 4a 00
        E 0 80 55 00
        E 0 80 56 00
        E 0 80 61 00
        E 0 80 62 00
        E 360 90 18 60
        E 0 90 1f 60
        E 0 90 3e 60
        E 0 90 48 60
        E 0 90 4a 60
        E 0 90 54 60
        E 0 90 56 60
        E 0 90 60 60
        E 0 90 62 60
        E 120 80 18 00
        E 0 80 1f 00
        E 0 80 3e 00
        E 0 80 48 00
        E 0 80 4a 00
        E 0 80 54 00
        E 0 80 56 00
        E 0 80 60 00
        E 0 80 62 00
        E 120 90 18 60
        E 0 90 54 60
        E 0 90 60 60
        E 120 80 18 00
        E 0 80 54 00
        E 0 80 60 00
        E 120 90 1a 60
        E 0 90 1f 60
        E 0 90 3d 60
        E 0 90 3e 60
        E 0 90 49 60
        E 0 90 4a 60
        E 0 90 55 60
        E 0 90 56 60
        E 0 90 61 60
        E 0 90 62 60
        E 120 80 1a 00
        E 0 80 1f 00
        E 0 80 3d 00
        E 0 80 3e 00
        E 0 80 49 00
        E 0 80 4a 00
        E 0 80 55 00
        E 0 80 56 00
        E 0 80 61 00
        E 0 80 62 00
        E 360 90 18 60
        E 0 90 1f 60
        E 0 90 3e 60
        E 0 90 48 60
        E 0 90 4a 60
        E 0 90 54 60
        E 0 90 56 60
        E 0 90 60 60
        E 0 90 62 60
        E 120 80 18 00
        E 0 80 1f 00
        E 0 80 3e 00
        E 0 80 48 00
        E 0 80 4a 00
        E 0 80 54 00
        E 0 80 56 00
        E 0 80 60 00
        E 0 80 62 00
        E 360 90 1a 60
        E 0 90 1f 60
        E 0 90 3d 60
        E 0 90 3e 60
        E 0 90 49 60
        E 0 90 4a 60
        E 0 90 55 60
        E 0 90 56 60
        E 0 90 61 60
        E 0 90 62 60
        E 120 80 1a 00
        E 0 80 1f 00
        E 0 80 3d 00
        E 0 80 3e 00
        E 0 80 49 00
        E 0 80 4a 00
        E 0 80 55 00
        E 0 80 56 00
        E 0 80 61 00
        E 0 80 62 00
        E 120 90 18 60
        E 0 90 54 60
        E 0 90 60 60
        E 120 80 18 00
        E 0 80 54 00
        E 0 80 60 00
        E 360 90 18 60
        E 0 90 19 60
        E 0 90 1f 60
        E 0 90 54 60
        E 0 90 57 60
        E 0 90 60 60
        E 0 90 63 60
        E 120 80 18 00
        E 0 80 1f 00
        E 0 80 54 00
        E 0 80 57 00
        E 0 80 60 00
        E 0 80 63 00
        E 120 90 1a 60
        E 0 90 3d 60
        E 0 90 49 60
        E 0 90 55 60
        E 0 90 61 60
        E 120 80 1a 00
        E 0 80 3d 00
        E 0 80 49 00
        E 0 80 55 00
        E 0 80 61 00
        E 120 90 18 60
        E 0 90 1f 60
        E 0 90 54 60
        E 0 90 57 60
        E 0 90 60 60
        E 0 90 63 60
        E 120 80 18 00
        E 0 80 1f 00
        E 0 80 54 00
        E 0 80 57 00
        E 0 80 60 00
        E 0 80 63 00
        E 360 80 19 00
        E 0 90 18 60
        E 0 90 1f 60
        E 0 90 54 60
        E 0 90 56 60
        E 0 90 60 60
        E 0 90 62 60
        E 120 80 18 00
        E 0 80 1f 00
        E 0 80 54 00
        E 0 80 56 00
        E 0 80 60 00
        E 0 80 62 00
        E 120 90 1a 60
        E 0 90 1f 60
        E 0 90 3d 60
        E 0 90 3e 60
        E 0 90 49 60
        E 0 90 4a 60
        E 0 90 55 60
        E 0 90 56 60
        E 0 90 61 60
        E 0 90 62 60
        E 120 80 1a 00
        E 0 80 1f 00
        E 0 80 3d 00
        E 0 80 3e 00
        E 0 80 49 00
        E 0 80 4a 00
        E 0 80 55 00
        E 0 80 56 00
        E 0 80 61 00
        E 0 80 62 00
        E 120 90 18 60
        E 0 90 54 60
        E 0 90 60 60
        E 120 80 18 00
        E 0 80 54 00
        E 0 80 60 00
        E 120 90 18 60
        E 0 90 1f 60
        E 0 90 3e 60
        E 0 90 48 60
        E 0 90 4a 60
        E 0 90 54 60
        E 0 90 56 60
        E 0 90 60 60
        E 0 90 62 60
        E 120 80 18 00
        E 0 80 1f 00
        E 0 80 3e 00
        E 0 80 48 00
        E 0 80 4a 00
        E 0 80 54 00
        E 0 80 56 00
        E 0 80 60 00
        E 0 80 62 00
        E 120 90 18 60
        E 0 90 54 60
        E 0 90 60 60
        E 120 80 18 00
        E 0 80 54 00
        E 0 80 60 00
        E 120 90 1a 60
        E 0 90 1f 60
        E 0 90 3d 60
        E 0 90 3e 60
        E 0 90 49 60
        E 0 90 4a 60
        E 0 90 55 60
        E 0 90 56 60
        E 0 90 61 60
        E 0 90 62 60
        E 120 80 1a 00
        E 0 80 1f 00
        E 0 80 3d 00
        E 0 80 3e 00
        E 0 80 49 00
        E 0 80 4a 00
        E 0 80 55 00
        E 0 80 56 00
        E 0 80 61 00
        E 0 80 62 00
        E 360 90 18 60
        E 0 90 1f 60
        E 0 90 3e 60
        E 0 90 48 60
        E 0 90 4a 60
        E 0 90 54 60
        E 0 90 56 60
        E 0 90 60 60
        E 0 90 62 60
        E 0 90 78 60
        E 0 90 79 60
        E 0 90 7a 60
        E 0 90 7b 60
        E 0 90 7c 60
        E 120 80 18 00
        E 0 80 1f 00
        E 0 80 3e 00
        E 0 80 48 00
        E 0 80 4a 00
        E 0 80 54 00
        E 0 80 56 00
        E 0 80 60 00
        E 0 80 62 00
        E 120 90 18 60
        E 0 90 54 60
        E 0 90 60 60
        E 120 80 18 00
        E 0 80 54 00
        E 0 80 60 00
        E 120 90 1a 60
        E 0 90 1f 60
        E 0 90 3d 60
        E 0 90 3e 60
        E 0 90 49 60
        E 0 90 4a 60
        E 0 90 55 60
        E 0 90 56 60
        E 0 90 61 60
        E 0 90 62 60
        E 120 80 1a 00
        E 0 80 1f 00
        E 0 80 3d 00
        E 0 80 3e 00
        E 0 80 49 00
        E 0 80 4a 00
        E 0 80 55 00
        E 0 80 56 00
        E 0 80 61 00
        E 0 80 62 00
        E 120 90 18 60
        E 0 90 54 60
        E 0 90 60 60
        E 120 80 18 00
        E 0 80 54 00
        E 0 80 60 00
        E 120 90 19 60
        E 0 90 1f 60
        E 0 90 3f 60
        E 0 90 4b 60
        E 0 90 57 60
        E 0 90 63 60
        E 120 80 1f 00
        E 0 80 3f 00
        E 0 80 4b 00
        E 0 80 57 00
        E 0 80 63 00
        E 120 90 18 60
        E 0 90 54 60
        E 0 90 60 60
        E 120 80 18 00
        E 0 80 54 00
        E 0 80 60 00
        E 120 80 19 00
        E 0 90 1a 60
        E 0 90 3d 60
        E 0 90 49 60
        E 0 90 55 60
        E 0 90 61 60
        E 120 80 1a 00
        E 0 80 3d 00
        E 0 80 49 00
        E 0 80 55 00
        E 0 80 61 00
        E 120 90 1a 60
        E 0 90 33 60
        E 0 90 55 60
        E 0 90 58 60
        E 0 90 61 60
        E 0 90 64 60
        E 0 90 70 60
        E 120 80 1a 00
        E 0 80 33 00
        E 0 80 55 00
        E 0 80 58 00
        E 0 80 61 00
        E 0 80 64 00
        E 0 80 70 00
        E 120 80 78 00
        E 0 80 79 00
        E 0 80 7a 00
        E 0 80 7b 00
        E 0 80 7c 00
        E 0 90 18 60
        E 0 90 19 60
        E 0 90 1f 60
        E 0 90 3f 60
        E 0 90 48 60
        E 0 90 4b 60
        E 0 90 54 60
        E 0 90 57 60
        E 0 90 60 60
        E 0 90 63 60
        E 120 80 18 00
        E 0 80 1f 00
        E 0 80 3f 00
        E 0 80 48 00
        E 0 80 4b 00
        E 0 80 54 00
        E 0 80 57 00
        E 0 80 60 00
        E 0 80 63 00
        E 360 90 1a 60
        E 0 90 1f 60
        E 0 90 3d 60
        E 0 90 3f 60
        E 0 90 49 60
        E 0 90 4b 60
        E 0 90 55 60
        E 0 90 57 60
        E 0 90 61 60
        E 0 90 63 60
        E 120 80 1a 00
        E 0 80 1f 00
        E 0 80 3d 00
        E 0 80 3f 00
        E 0 80 49 00
        E 0 80 4b 00
        E 0 80 55 00
        E 0 80 57 00
        E 0 80 61 00
        E 0 80 63 00
        E 360 90 18 60
        E 0 90 1f 60
        E 0 90 3f 60
        E 0 90 48 60
        E 0 90 4b 60
        E 0 90 54 60
        E 0 90 57 60
        E 0 90 60 60
        E 0 90 63 60
        E 120 80 18 00
        E 0 80 1f 00
        E 0 80 3f 00
        E 0 80 48 00
        E 0 80 4b 00
        E 0 80 54 00
        E 0 80 57 00
        E 0 80 60 00
        E 0 80 63 00
        E 120 90 18 60
        E 0 90 54 60
        E 0 90 60 60
        E 120 80 18 00
        E 0 80 54 00
        E 0 80 60 00
        E 120 90 1a 60
        E 0 90 1f 60
        E 0 90 3d 60
        E 0 90 3f 60
        E 0 90 49 60
        E 0 90 4b 60
        E 0 90 55 60
        E 0 90 57 60
        E 0 90 61 60
        E 0 90 63 60
        E 120 80 1a 00
        E 0 80 1f 00
        E 0 80 3d 00
        E 0 80 3f 00
        E 0 80 49 00
        E 0 80 4b 00
        E 0 80 55 00
        E 0 80 57 00
        E 0 80 61 00
        E 0 80 63 00
        E 360 90 18 60
        E 0 90 1f 60
        E 0 90 3f 60
        E 0 90 48 60
        E 0 90 4b 60
        E 0 90 54 60
        E 0 90 57 60
        E 0 90 60 60
        E 0 90 63 60
        E 120 80 18 00
        E 0 80 1f 00
        E 0 80 3f 00
        E 0 80 48 00
        E 0 80 4b 00
        E 0 80 54 00
        E 0 80 57 00
        E 0 80 60 00
        E 0 80 63 00
        E 360 90 1a 60
        E 0 90 1f 60
        E 0 90 3d 60
        E 0 90 3f 60
        E 0 90 49 60
        E 0 90 4b 60
        E 0 90 55 60
        E 0 90 57 60
        E 0 90 61 60
        E 0 90 63 60
        E 120 80 1a 00
        E 0 80 1f 00
        E 0 80 3d 00
        E 0 80 3f 00
        E 0 80 49 00
        E 0 80 4b 00
        E 0 80 55 00
        E 0 80 57 00
        E 0 80 61 00
        E 0 80 63 00
        E 120 90 18 60
        E 0 90 54 60
        E 0 90 60 60
        E 120 80 18 00
        E 0 80 54 00
        E 0 80 60 00
        E 120 90 1f 60
        E 0 90 3f 60
        E 0 90 4b 60
        E 0 90 57 60
        E 0 90 63 60
        E 120 80 1f 00
        E 0 80 3f 00
        E 0 80 4b 00
        E 0 80 57 00
        E 0 80 63 00
        E 120 90 18 60
        E 0 90 54 60
        E 0 90 60 60
        E 120 80 18 00
        E 0 80 54 00
        E 0 80 60 00
        E 120 90 1a 60
        E 0 90 1f 60
        E 0 90 3d 60
        E 0 90 3f 60
        E 0 90 49 60
        E 0 90 4b 60
        E 0 90 55 60
        E 0 90 57 60
        E 0 90 61 60
        E 0 90 63 60
        E 120 80 1a 00
        E 0 80 1f 00
        E 0 80 3d 00
        E 0 80 3f 00
        E 0 80 49 00
        E 0 80 4b 00
        E 0 80 55 00
        E 0 80 57 00
        E 0 80 61 00
        E 0 80 63 00
        E 120 90 18 60
        E 0 90 1f 60
        E 0 90 54 60
        E 0 90 57 60
        E 0 90 60 60
        E 0 90 63 60
        E 120 80 18 00
        E 0 80 1f 00
        E 0 80 54 00
        E 0 80 57 00
        E 0 80 60 00
        E 0 80 63 00
        E 360 90 18 60
        E 0 90 1f 60
        E 0 90 54 60
        E 0 90 57 60
        E 0 90 60 60
        E 0 90 63 60
        E 120 80 18 00
        E 0 80 1f 00
        E 0 80 54 00
        E 0 80 57 00
        E 0 80 60 00
        E 0 80 63 00
        E 120 90 1a 60
        E 0 90 1f 60
        E 0 90 3d 60
        E 0 90 3f 60
        E 0 90 49 60
        E 0 90 4b 60
        E 0 90 55 60
        E 0 90 57 60
        E 0 90 61 60
        E 0 90 63 60
        E 120 80 1a 00
        E 0 80 1f 00
        E 0 80 3d 00
        E 0 80 3f 00
        E 0 80 49 00
        E 0 80 4b 00
        E 0 80 55 00
        E 0 80 57 00
        E 0 80 61 00
        E 0 80 63 00
        E 120 90 18 60
        E 0 90 54 60
        E 0 90 60 60
        E 120 80 18 00
        E 0 80 54 00
        E 0 80 60 00
        E 120 90 18 60
        E 0 90 1f 60
        E 0 90 3f 60
        E 0 90 48 60
        E 0 90 4b 60
        E 0 90 54 60
        E 0 90 57 60
        E 0 90 60 60
        E 0 90 63 60
        E 120 80 18 00
        E 0 80 1f 00
        E 0 80 3f 00
        E 0 80 48 00
        E 0 80 4b 00
        E 0 80 54 00
        E 0 80 57 00
        E 0 80 60 00
        E 0 80 63 00
        E 120 90 18 60
        E 0 90 54 60
        E 0 90 60 60
        E 120 80 18 00
        E 0 80 54 00
        E 0 80 60 00
        E 120 90 1a 60
        E 0 90 1f 60
        E 0 90 3d 60
        E 0 90 3f 60
        E 0 90 49 60
        E 0 90 4b 60
        E 0 90 55 60
        E 0 90 57 60
        E 0 90 61 60
        E 0 90 63 60
        E 120 80 1a 00
        E 0 80 1f 00
        E 0 80 3d 00
        E 0 80 3f 00
        E 0 80 49 00
        E 0 80 4b 00
        E 0 80 55 00
        E 0 80 57 00
        E 0 80 61 00
        E 0 80 63 00
        E 360 90 18 60
        E 0 90 1f 60
        E 0 90 3f 60
        E 0 90 48 60
        E 0 90 4b 60
        E 0 90 54 60
        E 0 90 57 60
        E 0 90 60 60
        E 0 90 63 60
        E 120 80 18 00
        E 0 80 1f 00
        E 0 80 3f 00
        E 0 80 48 00
        E 0 80 4b 00
        E 0 80 54 00
        E 0 80 57 00
        E 0 80 60 00
        E 0 80 63 00
        E 120 90 18 60
        E 0 90 54 60
        E 0 90 60 60
        E 120 80 18 00
        E 0 80 54 00
        E 0 80 60 00
        E 120 90 1a 60
        E 0 90 1f 60
        E 0 90 3d 60
        E 0 90 3f 60
        E 0 90 49 60
        E 0 90 4b 60
        E 0 90 55 60
        E 0 90 57 60
        E 0 90 61 60
        E 0 90 63 60
        E 120 80 1a 00
        E 0 80 1f 00
        E 0 80 3d 00
        E 0 80 3f 00
        E 0 80 49 00
        E 0 80 4b 00
        E 0 80 55 00
        E 0 80 57 00
        E 0 80 61 00
        E 0 80 63 00
        E 120 90 18 60
        E 0 90 54 60
        E 0 90 60 60
        E 120 80 18 00
        E 0 80 54 00
        E 0 80 60 00
        E 120 90 1a 60
        E 0 90 1f 60
        E 0 90 3d 60
        E 0 90 3f 60
        E 0 90 49 60
        E 0 90 4b 60
        E 0 90 55 60
        E 0 90 57 60
        E 0 90 61 60
        E 0 90 63 60
        E 120 80 1a 00
        E 0 80 1f 00
        E 0 80 3d 00
        E 0 80 3f 00
        E 0 80 49 00
        E 0 80 4b 00
        E 0 80 55 00
        E 0 80 57 00
        E 0 80 61 00
        E 0 80 63 00
        E 120 90 18 60
        E 0 90 1f 60
        E 0 90 54 60
        E 0 90 57 60
        E 0 90 60 60
        E 0 90 63 60
        E 120 80 18 00
        E 0 80 1f 00
        E 0 80 54 00
        E 0 80 57 00
        E 0 80 60 00
        E 0 80 63 00
        E 120 90 1a 60
        E 0 90 3d 60
        E 0 90 49 60
        E 0 90 55 60
        E 0 90 61 60
        E 120 80 1a 00
        E 0 80 3d 00
        E 0 80 49 00
        E 0 80 55 00
        E 0 80 61 00
        E 120 80 19 00
        E 0 90 1a 60
        E 0 90 55 60
        E 0 90 61 60
        E 120 80 1a 00
        E 0 80 55 00
        E 0 80 61 00
        E 120 90 18 60
        E 0 90 19 60
        E 0 90 1f 60
        E 0 90 3f 60
        E 0 90 48 60
        E 0 90 4b 60
        E 0 90 54 60
        E 0 90 57 60
        E 0 90 60 60
        E 0 90 63 60
        E 120 80 18 00
        E 0 80 1f 00
        E 0 80 3f 00
        E 0 80 48 00
        E 0 80 4b 00
        E 0 80 54 00
        E 0 80 57 00
        E 0 80 60 00
        E 0 80 63 00
        E 120 90 18 60
        E 0 90 54 60
        E 0 90 60 60
        E 120 80 18 00
        E 0 80 54 00
        E 0 80 60 00
        E 120 90 1a 60
        E 0 90 1f 60
        E 0 90 3d 60
        E 0 90 3f 60
        E 0 90 49 60
        E 0 90 4b 60
        E 0 90 55 60
        E 0 90 57 60
        E 0 90 61 60
        E 0 90 63 60
        E 120 80 1a 00
        E 0 80 1f 00
        E 0 80 3d 00
        E 0 80 3f 00
        E 0 80 49 00
        E 0 80 4b 00
        E 0 80 55 00
        E 0 80 57 00
        E 0 80 61 00
        E 0 80 63 00
        E 120 90 18 60
        E 0 90 54 60
        E 0 90 60 60
        E 120 80 18 00
        E 0 80 54 00
        E 0 80 60 00
        E 120 90 18 60
        E 0 90 1f 60
        E 0 90 3f 60
        E 0 90 48 60
        E 0 90 4b 60
        E 0 90 54 60
        E 0 90 57 60
        E 0 90 60 60
        E 0 90 63 60
        E 120 80 18 00
        E 0 80 1f 00
        E 0 80 3f 00
        E 0 80 48 00
        E 0 80 4b 00
        E 0 80 54 00
        E 0 80 57 00
        E 0 80 60 00
        E 0 80 63 00
        E 120 90 18 60
        E 0 90 54 60
        E 0 90 60 60
        E 120 80 18 00
        E 0 80 54 00
        E 0 80 60 00
        E 120 90 1a 60
        E 0 90 1f 60
        E 0 90 3d 60
        E 0 90 3f 60
        E 0 90 49 60
        E 0 90 4b 60
        E 0 90 55 60
        E 0 90 57 60
        E 0 90 61 60
        E 0 90 63 60
        E 120 80 1a 00
        E 0 80 1f 00
        E 0 80 3d 00
        E 0 80 3f 00
        E 0 80 49 00
        E 0 80 4b 00
        E 0 80 55 00
        E 0 80 57 00
        E 0 80 61 00
        E 0 80 63 00
        E 120 90 18 60
        E 0 90 54 60
        E 0 90 60 60
        E 120 80 18 00
        E 0 80 54 00
        E 0 80 60 00
        E 120 90 18 60
        E 0 90 1f 60
        E 0 90 3f 60
        E 0 90 48 60
        E 0 90 4b 60
        E 0 90 54 60
        E 0 90 57 60
        E 0 90 60 60
        E 0 90 63 60
        E 120 80 18 00
        E 0 80 1f 00
        E 0 80 3f 00
        E 0 80 48 00
        E 0 80 4b 00
        E 0 80 54 00
        E 0 80 57 00
        E 0 80 60 00
        E 0 80 63 00
        E 120 90 18 60
        E 0 90 54 60
        E 0 90 60 60
        E 120 80 18 00
        E 0 80 54 00
        E 0 80 60 00
        E 120 90 1a 60
        E 0 90 1f 60
        E 0 90 3d 60
        E 0 90 3f 60
        E 0 90 49 60
        E 0 90 4b 60
        E 0 90 55 60
        E 0 90 57 60
        E 0 90 61 60
        E 0 90 63 60
        E 120 80 1a 00
        E 0 80 1f 00
        E 0 80 3d 00
        E 0 80 3f 00
        E 0 80 49 00
        E 0 80 4b 00
        E 0 80 55 00
        E 0 80 57 00
        E 0 80 61 00
        E 0 80 63 00
        E 120 90 18 60
        E 0 90 54 60
        E 0 90 60 60
        E 120 80 18 00
        E 0 80 54 00
        E 0 80 60 00
        E 120 80 19 00
        E 0 90 18 60
        E 0 90 3c 60
        E 0 90 48 60
        E 0 90 54 60
        E 0 90 60 60
        E 120 80 18 00
        E 0 80 3c 00
        E 0 80 48 00
        E 0 80 54 00
        E 0 80 60 00
        E 120 90 18 60
        E 0 90 19 60
        E 0 90 1f 60
        E 0 90 54 60
        E 0 90 57 60
        E 0 90 60 60
        E 0 90 63 60
        E 120 80 18 00
        E 0 80 1f 00
        E 0 80 54 00
        E 0 80 57 00
        E 0 80 60 00
        E 0 80 63 00
        E 120 90 1a 60
        E 0 90 3d 60
        E 0 90 49 60
        E 0 90 55 60
        E 0 90 61 60
        E 120 80 1a 00
        E 0 80 3d 00
        E 0 80 49 00
        E 0 80 55 00
        E 0 80 61 00
        E 120 90 18 60
        E 0 90 1e 60
        E 0 90 33 60
        E 0 90 54 60
        E 0 90 57 60
        E 0 90 58 60
        E 0 90 60 60
        E 0 90 63 60
        E 0 90 64 60
        E 0 90 70 60
        E 120 80 18 00
        E 0 80 1e 00
        E 0 80 33 00
        E 0 80 54 00
        E 0 80 57 00
        E 0 80 58 00
        E 0 80 60 00
        E 0 80 63 00
        E 0 80 64 00
        E 0 80 70 00
        E 360 90 18 60
        E 0 90 1f 60
        E 0 90 54 60
        E 0 90 57 60
        E 0 90 60 60
        E 0 90 63 60
        E 120 80 18 00
        E 0 80 1f 00
        E 0 80 54 00
        E 0 80 57 00
        E 0 80 60 00
        E 0 80 63 00
        E 120 90 18 60
        E 0 90 1f 60
        E 0 90 3f 60
        E 0 90 48 60
        E 0 90 4b 60
        E 0 90 54 60
        E 0 90 57 60
        E 0 90 60 60
        E 0 90 63 60
        E 120 80 18 00
        E 0 80 1f 00
        E 0 80 3f 00
        E 0 80 48 00
        E 0 80 4b 00
        E 0 80 54 00
        E 0 80 57 00
        E 0 80 60 00
        E 0 80 63 00
        E 360 90 18 60
        E 0 90 1f 60
        E 0 90 3f 60
        E 0 90 48 60
        E 0 90 4b 60
        E 0 90 54 60
        E 0 90 57 60
        E 0 90 60 60
        E 0 90 63 60
        E 120 80 18 00
        E 0 80 1f 00
        E 0 80 3f 00
        E 0 80 48 00
        E 0 80 4b 00
        E 0 80 54 00
        E 0 80 57 00
        E 0 80 60 00
        E 0 80 63 00
        E 360 90 18 60
        E 0 90 1f 60
        E 0 90 3f 60
        E 0 90 48 60
        E 0 90 4b 60
        E 0 90 54 60
        E 0 90 57 60
        E 0 90 60 60
        E 0 90 63 60
        E 120 80 18 00
        E 0 80 1f 00
        E 0 80 3f 00
        E 0 80 48 00
        E 0 80 4b 00
        E 0 80 54 00
        E 0 80 57 00
        E 0 80 60 00
        E 0 80 63 00
        E 360 90 18 60
        E 0 90 1f 60
        E 0 90 3f 60
        E 0 90 48 60
        E 0 90 4b 60
        E 0 90 54 60
        E 0 90 57 60
        E 0 90 60 60
        E 0 90 63 60
        E 0 90 78 60
        E 0 90 79 60
        E 0 90 7a 60
        E 0 90 7b 60
        E 0 90 7c 60
        E 120 80 18 00
        E 0 80 1f 00
        E 0 80 3f 00
        E 0 80 48 00
        E 0 80 4b 00
        E 0 80 54 00
        E 0 80 57 00
        E 0 80 60 00
        E 0 80 63 00
        E 120 90 18 60
        E 0 90 54 60
        E 0 90 60 60
        E 120 80 18 00
        E 0 80 54 00
        E 0 80 60 00
        E 120 90 1f 60
        E 0 90 3f 60
        E 0 90 4b 60
        E 0 90 57 60
        E 0 90 63 60
        E 120 80 1f 00
        E 0 80 3f 00
        E 0 80 4b 00
        E 0 80 57 00
        E 0 80 63 00
        E 120 90 18 60
        E 0 90 54 60
        E 0 90 60 60
        E 120 80 18 00
        E 0 80 54 00
        E 0 80 60 00
        E 120 90 1f 60
        E 0 90 3f 60
        E 0 90 4b 60
        E 0 90 57 60
        E 0 90 63 60
        E 120 80 1f 00
        E 0 80 3f 00
        E 0 80 4b 00
        E 0 80 57 00
        E 0 80 63 00
        E 120 90 18 60
        E 0 90 1b 60
        E 0 90 54 60
        E 0 90 55 60
        E 0 90 60 60
        E 0 90 61 60
        E 120 80 18 00
        E 0 80 1b 00
        E 0 80 54 00
        E 0 80 55 00
        E 0 80 60 00
        E 0 80 61 00
        E 0 90 1a 60
        E 0 90 61 60
        <X 120 0
          /wFbaW50ZW5zZV0=
        >
        E 0 80 19 00
        E 0 80 1a 00
        E 0 80 61 00
        E 0 90 1b 60
        E 0 90 3d 60
        E 0 90 49 60
        E 0 90 55 60
        E 0 90 61 60
        E 120 80 1b 00
        E 0 80 3d 00
        E 0 80 49 00
        E 0 80 55 00
        E 0 80 61 00
        E 120 90 1a 60
        E 0 90 33 60
        E 0 90 55 60
        E 0 90 58 60
        E 0 90 61 60
        E 0 90 64 60
        E 0 90 70 60
        E 120 80 1a 00
        E 0 80 33 00
        E 0 80 55 00
        E 0 80 58 00
        E 0 80 61 00
        E 0 80 64 00
        E 0 80 70 00
        E 120 80 78 00
        E 0 80 79 00
        E 0 80 7a 00
        E 0 80 7b 00
        E 0 80 7c 00
        E 0 90 18 60
        E 0 90 19 60
        E 0 90 1f 60
        E 0 90 3f 60
        E 0 90 48 60
        E 0 90 4b 60
        E 0 90 54 60
        E 0 90 57 60
        E 0 90 60 60
        E 0 90 63 60
        E 120 80 18 00
        E 0 80 1f 00
        E 0 80 3f 00
        E 0 80 48 00
        E 0 80 4b 00
        E 0 80 54 00
        E 0 80 57 00
        E 0 80 60 00
        E 0 80 63 00
        E 360 90 1a 60
        E 0 90 1f 60
        E 0 90 3d 60
        E 0 90 3f 60
        E 0 90 49 60
        E 0 90 4b 60
        E 0 90 55 60
        E 0 90 57 60
        E 0 90 61 60
        E 0 90 63 60
        E 120 80 1a 00
        E 0 80 1f 00
        E 0 80 3d 00
        E 0 80 3f 00
        E 0 80 49 00
        E 0 80 4b 00
        E 0 80 55 00
        E 0 80 57 00
        E 0 80 61 00
        E 0 80 63 00
        E 360 90 18 60
        E 0 90 1f 60
        E 0 90 3f 60
        E 0 90 48 60
        E 0 90 4b 60
        E 0 90 54 60
        E 0 90 57 60
        E 0 90 60 60
        E 0 90 63 60
        E 120 80 18 00
        E 0 80 1f 00
        E 0 80 3f 00
        E 0 80 48 00
        E 0 80 4b 00
        E 0 80 54 00
        E 0 80 57 00
        E 0 80 60 00
        E 0 80 63 00
        E 120 90 18 60
        E 0 90 54 60
        E 0 90 60 60
        E 120 80 18 00
        E 0 80 54 00
        E 0 80 60 00
        E 120 90 1a 60
        E 0 90 1f 60
        E 0 90 3d 60
        E 0 90 3f 60
        E 0 90 49 60
        E 0 90 4b 60
        E 0 90 55 60
        E 0 90 57 60
        E 0 90 61 60
        E 0 90 63 60
        E 120 80 1a 00
        E 0 80 1f 00
        E 0 80 3d 00
        E 0 80 3f 00
        E 0 80 49 00
        E 0 80 4b 00
        E 0 80 55 00
        E 0 80 57 00
        E 0 80 61 00
        E 0 80 63 00
        E 360 90 18 60
        E 0 90 1f 60
        E 0 90 3f 60
        E 0 90 48 60
        E 0 90 4b 60
        E 0 90 54 60
        E 0 90 57 60
        E 0 90 60 60
        E 0 90 63 60
        E 120 80 18 00
        E 0 80 1f 00
        E 0 80 3f 00
        E 0 80 48 00
        E 0 80 4b 00
        E 0 80 54 00
        E 0 80 57 00
        E 0 80 60 00
        E 0 80 63 00
        E 360 90 1a 60
        E 0 90 1f 60
        E 0 90 3d 60
        E 0 90 3f 60
        E 0 90 49 60
        E 0 90 4b 60
        E 0 90 55 60
        E 0 90 57 60
        E 0 90 61 60
        E 0 90 63 60
        E 120 80 1a 00
        E 0 80 1f 00
        E 0 80 3d 00
        E 0 80 3f 00
        E 0 80 49 00
        E 0 80 4b 00
        E 0 80 55 00
        E 0 80 57 00
        E 0 80 61 00
        E 0 80 63 00
        E 120 90 18 60
        E 0 90 54 60
        E 0 90 60 60
        E 120 80 18 00
        E 0 80 54 00
        E 0 80 60 00
        E 120 90 1f 60
        E 0 90 3f 60
        E 0 90 4b 60
        E 0 90 57 60
        E 0 90 63 60
        E 120 80 1f 00
        E 0 80 3f 00
        E 0 80 4b 00
        E 0 80 57 00
        E 0 80 63 00
        E 120 90 18 60
        E 0 90 54 60
        E 0 90 60 60
        E 120 80 18 00
        E 0 80 54 00
        E 0 80 60 00
        E 120 90 1a 60
        E 0 90 1f 60
        E 0 90 3d 60
        E 0 90 3f 60
        E 0 90 49 60
        E 0 90 4b 60
        E 0 90 55 60
        E 0 90 57 60
        E 0 90 61 60
        E 0 90 63 60
        E 120 80 1a 00
        E 0 80 1f 00
        E 0 80 3d 00
        E 0 80 3f 00
        E 0 80 49 00
        E 0 80 4b 00
        E 0 80 55 00
        E 0 80 57 00
        E 0 80 61 00
        E 0 80 63 00
        E 120 90 18 60
        E 0 90 54 60
        E 0 90 60 60
        E 120 80 18 00
        E 0 80 54 00
        E 0 80 60 00
        E 120 90 1f 60
        E 0 90 3f 60
        E 0 90 4b 60
        E 0 90 57 60
        E 0 90 63 60
        E 120 80 1f 00
        E 0 80 3f 00
        E 0 80 4b 00
        E 0 80 57 00
        E 0 80 63 00
        E 120 90 18 60
        E 0 90 54 60
        E 0 90 60 60
        E 120 80 18 00
        E 0 80 54 00
        E 0 80 60 00
        E 120 90 1a 60
        E 0 90 1f 60
        E 0 90 3d 60
        E 0 90 3f 60
        E 0 90 49 60
        E 0 90 4b 60
        E 0 90 55 60
        E 0 90 57 60
        E 0 90 61 60
        E 0 90 63 60
        E 120 80 1a 00
        E 0 80 1f 00
        E 0 80 3d 00
        E 0 80 3f 00
        E 0 80 49 00
        E 0 80 4b 00
        E 0 80 55 00
        E 0 80 57 00
        E 0 80 61 00
        E 0 80 63 00
        E 120 90 18 60
        E 0 90 54 60
        E 0 90 60 60
        E 120 80 18 00
        E 0 80 54 00
        E 0 80 60 00
        E 120 90 18 60
        E 0 90 1f 60
        E 0 90 3f 60
        E 0 90 48 60
        E 0 90 4b 60
        E 0 90 54 60
        E 0 90 57 60
        E 0 90 60 60
        E 0 90 63 60
        E 120 80 18 00
        E 0 80 1f 00
        E 0 80 3f 00
        E 0 80 48 00
        E 0 80 4b 00
        E 0 80 54 00
        E 0 80 57 00
        E 0 80 60 00
        E 0 80 63 00
        E 120 90 18 60
        E 0 90 54 60
        E 0 90 60 60
        E 120 80 18 00
        E 0 80 54 00
        E 0 80 60 00
        E 120 90 1a 60
        E 0 90 1f 60
        E 0 90 3d 60
        E 0 90 3f 60
        E 0 90 49 60
        E 0 90 4b 60
        E 0 90 55 60
        E 0 90 57 60
        E 0 90 61 60
        E 0 90 63 60
        E 120 80 1a 00
        E 0 80 1f 00
        E 0 80 3d 00
        E 0 80 3f 00
        E 0 80 49 00
        E 0 80 4b 00
        E 0 80 55 00
        E 0 80 57 00
        E 0 80 61 00
        E 0 80 63 00
        E 360 90 18 60
        E 0 90 1f 60
        E 0 90 3f 60
        E 0 90 48 60
        E 0 90 4b 60
        E 0 90 54 60
        E 0 90 57 60
        E 0 90 60 60
        E 0 90 63 60
        E 120 80 18 00
        E 0 80 1f 00
        E 0 80 3f 00
        E 0 80 48 00
        E 0 80 4b 00
        E 0 80 54 00
        E 0 80 57 00
        E 0 80 60 00
        E 0 80 63 00
        E 120 90 18 60
        E 0 90 54 60
        E 0 90 60 60
        E 120 80 18 00
        E 0 80 54 00
        E 0 80 60 00
        E 120 90 1a 60
        E 0 90 1f 60
        E 0 90 3d 60
        E 0 90 3f 60
        E 0 90 49 60
        E 0 90 4b 60
        E 0 90 55 60
        E 0 90 57 60
        E 0 90 61 60
        E 0 90 63 60
        E 120 80 1a 00
        E 0 80 1f 00
        E 0 80 3d 00
        E 0 80 3f 00
        E 0 80 49 00
        E 0 80 4b 00
        E 0 80 55 00
        E 0 80 57 00
        E 0 80 61 00
        E 0 80 63 00
        E 120 90 18 60
        E 0 90 54 60
        E 0 90 60 60
        E 120 80 18 00
        E 0 80 54 00
        E 0 80 60 00
        E 120 90 1f 60
        E 0 90 3f 60
        E 0 90 4b 60
        E 0 90 57 60
        E 0 90 63 60
        E 120 80 1f 00
        E 0 80 3f 00
        E 0 80 4b 00
        E 0 80 57 00
        E 0 80 63 00
        E 120 90 18 60
        E 0 90 54 60
        E 0 90 60 60
        E 120 80 18 00
        E 0 80 54 00
        E 0 80 60 00
        E 120 90 1a 60
        E 0 90 1f 60
        E 0 90 3d 60
        E 0 90 3f 60
        E 0 90 49 60
        E 0 90 4b 60
        E 0 90 55 60
        E 0 90 57 60
        E 0 90 61 60
        E 0 90 63 60
        E 120 80 1a 00
        E 0 80 1f 00
        E 0 80 3d 00
        E 0 80 3f 00
        E 0 80 49 00
        E 0 80 4b 00
        E 0 80 55 00
        E 0 80 57 00
        E 0 80 61 00
        E 0 80 63 00
        E 360 90 18 60
        E 0 90 1f 60
        E 0 90 3f 60
        E 0 90 48 60
        E 0 90 4b 60
        E 0 90 54 60
        E 0 90 57 60
        E 0 90 60 60
        E 0 90 63 60
        E 120 80 18 00
        E 0 80 1f 00
        E 0 80 3f 00
        E 0 80 48 00
        E 0 80 4b 00
        E 0 80 54 00
        E 0 80 57 00
        E 0 80 60 00
        E 0 80 63 00
        E 360 90 1a 60
        E 0 90 1f 60
        E 0 90 3d 60
        E 0 90 3f 60
        E 0 90 49 60
        E 0 90 4b 60
        E 0 90 55 60
        E 0 90 57 60
        E 0 90 61 60
        E 0 90 63 60
        E 120 80 1a 00
        E 0 80 1f 00
        E 0 80 3d 00
        E 0 80 3f 00
        E 0 80 49 00
        E 0 80 4b 00
        E 0 80 55 00
        E 0 80 57 00
        E 0 80 61 00
        E 0 80 63 00
        E 360 90 18 60
        E 0 90 1f 60
        E 0 90 3f 60
        E 0 90 48 60
        E 0 90 4b 60
        E 0 90 54 60
        E 0 90 57 60
        E 0 90 60 60
        E 0 90 63 60
        E 120 80 18 00
        E 0 80 1f 00
        E 0 80 3f 00
        E 0 80 48 00
        E 0 80 4b 00
        E 0 80 54 00
        E 0 80 57 00
        E 0 80 60 00
        E 0 80 63 00
        E 120 90 18 60
        E 0 90 54 60
        E 0 90 60 60
        E 120 80 18 00
        E 0 80 54 00
        E 0 80 60 00
        E 120 90 1a 60
        E 0 90 1f 60
        E 0 90 3d 60
        E 0 90 3f 60
        E 0 90 49 60
        E 0 90 4b 60
        E 0 90 55 60
        E 0 90 57 60
        E 0 90 61 60
        E 0 90 63 60
        E 120 80 1a 00
        E 0 80 1f 00
        E 0 80 3d 00
        E 0 80 3f 00
        E 0 80 49 00
        E 0 80 4b 00
        E 0 80 55 00
        E 0 80 57 00
        E 0 80 61 00
        E 0 80 63 00
        E 360 90 18 60
        E 0 90 1f 60
        E 0 90 3f 60
        E 0 90 48 60
        E 0 90 4b 60
        E 0 90 54 60
        E 0 90 57 60
        E 0 90 60 60
        E 0 90 63 60
        E 120 80 18 00
        E 0 80 1f 00
        E 0 80 3f 00
        E 0 80 48 00
        E 0 80 4b 00
        E 0 80 54 00
        E 0 80 57 00
        E 0 80 60 00
        E 0 80 63 00
        E 360 90 1a 60
        E 0 90 1f 60
        E 0 90 3d 60
        E 0 90 3f 60
        E 0 90 49 60
        E 0 90 4b 60
        E 0 90 55 60
        E 0 90 57 60
        E 0 90 61 60
        E 0 90 63 60
        E 120 80 1a 00
        E 0 80 1f 00
        E 0 80 3d 00
        E 0 80 3f 00
        E 0 80 49 00
        E 0 80 4b 00
        E 0 80 55 00
        E 0 80 57 00
        E 0 80 61 00
        E 0 80 63 00
        E 120 90 18 60
        E 0 90 54 60
        E 0 90 60 60
        E 120 80 18 00
        E 0 80 54 00
        E 0 80 60 00
        E 120 90 1f 60
        E 0 90 3f 60
        E 0 90 4b 60
        E 0 90 57 60
        E 0 90 63 60
        E 120 80 1f 00
        E 0 80 3f 00
        E 0 80 4b 00
        E 0 80 57 00
        E 0 80 63 00
        E 120 90 18 60
        E 0 90 54 60
        E 0 90 60 60
        E 120 80 18 00
        E 0 80 54 00
        E 0 80 60 00
        E 120 90 1a 60
        E 0 90 1f 60
        E 0 90 3d 60
        E 0 90 3f 60
        E 0 90 49 60
        E 0 90 4b 60
        E 0 90 55 60
        E 0 90 57 60
        E 0 90 61 60
        E 0 90 63 60
        E 120 80 1a 00
        E 0 80 1f 00
        E 0 80 3d 00
        E 0 80 3f 00
        E 0 80 49 00
        E 0 80 4b 00
        E 0 80 55 00
        E 0 80 57 00
        E 0 80 61 00
        E 0 80 63 00
        E 120 90 18 60
        E 0 90 54 60
        E 0 90 60 60
        E 120 80 18 00
        E 0 80 54 00
        E 0 80 60 00
        E 120 90 1f 60
        E 0 90 3f 60
        E 0 90 4b 60
        E 0 90 57 60
        E 0 90 63 60
        E 120 80 1f 00
        E 0 80 3f 00
        E 0 80 4b 00
        E 0 80 57 00
        E 0 80 63 00
        E 120 90 18 60
        E 0 90 54 60
        E 0 90 60 60
        E 120 80 18 00
        E 0 80 54 00
        E 0 80 60 00
        E 120 90 1a 60
        E 0 90 1f 60
        E 0 90 3d 60
        E 0 90 3f 60
        E 0 90 49 60
        E 0 90 4b 60
        E 0 90 55 60
        E 0 90 57 60
        E 0 90 61 60
        E 0 90 63 60
        E 120 80 1a 00
        E 0 80 1f 00
        E 0 80 3d 00
        E 0 80 3f 00
        E 0 80 49 00
        E 0 80 4b 00
        E 0 80 55 00
        E 0 80 57 00
        E 0 80 61 00
        E 0 80 63 00
        E 120 90 18 60
        E 0 90 54 60
        E 0 90 60 60
        E 120 80 18 00
        E 0 80 54 00
        E 0 80 60 00
        E 120 90 18 60
        E 0 90 1f 60
        E 0 90 3f 60
        E 0 90 48 60
        E 0 90 4b 60
        E 0 90 54 60
        E 0 90 57 60
        E 0 90 60 60
        E 0 90 63 60
        E 120 80 18 00
        E 0 80 1f 00
        E 0 80 3f 00
        E 0 80 48 00
        E 0 80 4b 00
        E 0 80 54 00
        E 0 80 57 00
        E 0 80 60 00
        E 0 80 63 00
        E 120 90 18 60
        E 0 90 54 60
        E 0 90 60 60
        E 120 80 18 00
        E 0 80 54 00
        E 0 80 60 00
        E 120 90 1a 60
        E 0 90 1f 60
        E 0 90 3d 60
        E 0 90 3f 60
        E 0 90 49 60
        E 0 90 4b 60
        E 0 90 55 60
        E 0 90 57 60
        E 0 90 61 60
        E 0 90 63 60
        E 120 80 1a 00
        E 0 80 1f 00
        E 0 80 3d 00
        E 0 80 3f 00
        E 0 80 49 00
        E 0 80 4b 00
        E 0 80 55 00
        E 0 80 57 00
        E 0 80 61 00
        E 0 80 63 00
        E 360 90 18 60
        E 0 90 1f 60
        E 0 90 3f 60
        E 0 90 48 60
        E 0 90 4b 60
        E 0 90 54 60
        E 0 90 57 60
        E 0 90 60 60
        E 0 90 63 60
        E 0 90 78 60
        E 0 90 79 60
        E 0 90 7a 60
        E 0 90 7b 60
        E 0 90 7c 60
        E 120 80 18 00
        E 0 80 1f 00
        E 0 80 3f 00
        E 0 80 48 00
        E 0 80 4b 00
        E 0 80 54 00
        E 0 80 57 00
        E 0 80 60 00
        E 0 80 63 00
        E 120 90 18 60
        E 0 90 54 60
        E 0 90 60 60
        E 120 80 18 00
        E 0 80 54 00
        E 0 80 60 00
        E 120 90 1a 60
        E 0 90 1f 60
        E 0 90 3d 60
        E 0 90 3f 60
        E 0 90 49 60
        E 0 90 4b 60
        E 0 90 55 60
        E 0 90 57 60
        E 0 90 61 60
        E 0 90 63 60
        E 120 80 1a 00
        E 0 80 1f 00
        E 0 80 3d 00
        E 0 80 3f 00
        E 0 80 49 00
        E 0 80 4b 00
        E 0 80 55 00
        E 0 80 57 00
        E 0 80 61 00
        E 0 80 63 00
        E 120 90 18 60
        E 0 90 54 60
        E 0 90 60 60
        E 120 80 18 00
        E 0 80 54 00
        E 0 80 60 00
        E 120 90 1a 60
        E 0 90 1f 60
        E 0 90 3d 60
        E 0 90 3f 60
        E 0 90 49 60
        E 0 90 4b 60
        E 0 90 55 60
        E 0 90 57 60
        E 0 90 61 60
        E 0 90 63 60
        E 120 80 1a 00
        E 0 80 1f 00
        E 0 80 3d 00
        E 0 80 3f 00
        E 0 80 49 00
        E 0 80 4b 00
        E 0 80 55 00
        E 0 80 57 00
        E 0 80 61 00
        E 0 80 63 00
        E 120 90 18 60
        E 0 90 54 60
        E 0 90 60 60
        E 120 80 18 00
        E 0 80 54 00
        E 0 80 60 00
        E 120 90 1a 60
        E 0 90 1f 60
        E 0 90 3d 60
        E 0 90 3f 60
        E 0 90 49 60
        E 0 90 4b 60
        E 0 90 55 60
        E 0 90 57 60
        E 0 90 61 60
        E 0 90 63 60
        E 120 80 1a 00
        E 0 80 1f 00
        E 0 80 3d 00
        E 0 80 3f 00
        E 0 80 49 00
        E 0 80 4b 00
        E 0 80 55 00
        E 0 80 57 00
        E 0 80 61 00
        E 0 80 63 00
        E 120 90 1a 60
        E 0 90 55 60
        E 0 90 61 60
        E 120 80 1a 00
        E 0 80 55 00
        E 0 80 61 00
        E 120 80 78 00
        E 0 80 79 00
        E 0 80 7a 00
        E 0 80 7b 00
        E 0 80 7c 00
        E 0 90 18 60
        E 0 90 1f 60
        E 0 90 3f 60
        E 0 90 48 60
        E 0 90 4b 60
        E 0 90 54 60
        E 0 90 57 60
        E 0 90 60 60
        E 0 90 63 60
        E 120 80 18 00
        E 0 80 1f 00
        E 0 80 3f 00
        E 0 80 48 00
        E 0 80 4b 00
        E 0 80 54 00
        E 0 80 57 00
        E 0 80 60 00
        E 0 80 63 00
        E 360 90 1a 60
        E 0 90 1f 60
        E 0 90 3d 60
        E 0 90 3f 60
        E 0 90 49 60
        E 0 90 4b 60
        E 0 90 55 60
        E 0 90 57 60
        E 0 90 61 60
        E 0 90 63 60
        E 120 80 1a 00
        E 0 80 1f 00
        E 0 80 3d 00
        E 0 80 3f 00
        E 0 80 49 00
        E 0 80 4b 00
        E 0 80 55 00
        E 0 80 57 00
        E 0 80 61 00
        E 0 80 63 00
        E 360 90 18 60
        E 0 90 1f 60
        E 0 90 3f 60
        E 0 90 48 60
        E 0 90 4b 60
        E 0 90 54 60
        E 0 90 57 60
        E 0 90 60 60
        E 0 90 63 60
        E 120 80 18 00
        E 0 80 1f 00
        E 0 80 3f 00
        E 0 80 48 00
        E 0 80 4b 00
        E 0 80 54 00
        E 0 80 57 00
        E 0 80 60 00
        E 0 80 63 00
        E 120 90 18 60
        E 0 90 54 60
        E 0 90 60 60
        E 120 80 18 00
        E 0 80 54 00
        E 0 80 60 00
        E 120 90 1a 60
        E 0 90 1f 60
        E 0 90 3d 60
        E 0 90 3f 60
        E 0 90 49 60
        E 0 90 4b 60
        E 0 90 55 60
        E 0 90 57 60
        E 0 90 61 60
        E 0 90 63 60
        E 120 80 1a 00
        E 0 80 1f 00
        E 0 80 3d 00
        E 0 80 3f 00
        E 0 80 49 00
        E 0 80 4b 00
        E 0 80 55 00
        E 0 80 57 00
        E 0 80 61 00
        E 0 80 63 00
        E 360 90 18 60
        E 0 90 1f 60
        E 0 90 3f 60
        E 0 90 48 60
        E 0 90 4b 60
        E 0 90 54 60
        E 0 90 57 60
        E 0 90 60 60
        E 0 90 63 60
        E 120 80 18 00
        E 0 80 1f 00
        E 0 80 3f 00
        E 0 80 48 00
        E 0 80 4b 00
        E 0 80 54 00
        E 0 80 57 00
        E 0 80 60 00
        E 0 80 63 00
        E 360 90 1a 60
        E 0 90 1f 60
        E 0 90 3d 60
        E 0 90 3f 60
        E 0 90 49 60
        E 0 90 4b 60
        E 0 90 55 60
        E 0 90 57 60
        E 0 90 61 60
        E 0 90 63 60
        E 120 80 1a 00
        E 0 80 1f 00
        E 0 80 3d 00
        E 0 80 3f 00
        E 0 80 49 00
        E 0 80 4b 00
        E 0 80 55 00
        E 0 80 57 00
        E 0 80 61 00
        E 0 80 63 00
        E 120 90 18 60
        E 0 90 54 60
        E 0 90 60 60
        E 120 80 18 00
        E 0 80 54 00
        E 0 80 60 00
        E 120 90 1f 60
        E 0 90 3f 60
        E 0 90 4b 60
        E 0 90 57 60
        E 0 90 63 60
        E 120 80 1f 00
        E 0 80 3f 00
        E 0 80 4b 00
        E 0 80 57 00
        E 0 80 63 00
        E 120 90 18 60
        E 0 90 54 60
        E 0 90 60 60
        E 120 80 18 00
        E 0 80 54 00
        E 0 80 60 00
        E 120 90 1a 60
        E 0 90 1f 60
        E 0 90 3d 60
        E 0 90 3f 60
        E 0 90 49 60
        E 0 90 4b 60
        E 0 90 55 60
        E 0 90 57 60
        E 0 90 61 60
        E 0 90 63 60
        E 120 80 1a 00
        E 0 80 1f 00
        E 0 80 3d 00
        E 0 80 3f 00
        E 0 80 49 00
        E 0 80 4b 00
        E 0 80 55 00
        E 0 80 57 00
        E 0 80 61 00
        E 0 80 63 00
        E 120 90 18 60
        E 0 90 54 60
        E 0 90 60 60
        E 120 80 18 00
        E 0 80 54 00
        E 0 80 60 00
        E 120 90 1f 60
        E 0 90 3f 60
        E 0 90 4b 60
        E 0 90 57 60
        E 0 90 63 60
        E 120 80 1f 00
        E 0 80 3f 00
        E 0 80 4b 00
        E 0 80 57 00
        E 0 80 63 00
        E 120 90 18 60
        E 0 90 54 60
        E 0 90 60 60
        E 120 80 18 00
        E 0 80 54 00
        E 0 80 60 00
        E 120 90 1a 60
        E 0 90 1f 60
        E 0 90 3d 60
        E 0 90 3f 60
        E 0 90 49 60
        E 0 90 4b 60
        E 0 90 55 60
        E 0 90 57 60
        E 0 90 61 60
        E 0 90 63 60
        E 120 80 1a 00
        E 0 80 1f 00
        E 0 80 3d 00
        E 0 80 3f 00
        E 0 80 49 00
        E 0 80 4b 00
        E 0 80 55 00
        E 0 80 57 00
        E 0 80 61 00
        E 0 80 63 00
        E 120 90 18 60
        E 0 90 54 60
        E 0 90 60 60
        E 120 80 18 00
        E 0 80 54 00
        E 0 80 60 00
        E 120 90 18 60
        E 0 90 1f 60
        E 0 90 3f 60
        E 0 90 48 60
        E 0 90 4b 60
        E 0 90 54 60
        E 0 90 57 60
        E 0 90 60 60
        E 0 90 63 60
        E 120 80 18 00
        E 0 80 1f 00
        E 0 80 3f 00
        E 0 80 48 00
        E 0 80 4b 00
        E 0 80 54 00
        E 0 80 57 00
        E 0 80 60 00
        E 0 80 63 00
        E 120 90 18 60
        E 0 90 54 60
        E 0 90 60 60
        E 120 80 18 00
        E 0 80 54 00
        E 0 80 60 00
        E 120 90 1a 60
        E 0 90 1f 60
        E 0 90 3d 60
        E 0 90 3f 60
        E 0 90 49 60
        E 0 90 4b 60
        E 0 90 55 60
        E 0 90 57 60
        E 0 90 61 60
        E 0 90 63 60
        E 120 80 1a 00
        E 0 80 1f 00
        E 0 80 3d 00
        E 0 80 3f 00
        E 0 80 49 00
        E 0 80 4b 00
        E 0 80 55 00
        E 0 80 57 00
        E 0 80 61 00
        E 0 80 63 00
        E 360 90 18 60
        E 0 90 1f 60
        E 0 90 3f 60
        E 0 90 48 60
        E 0 90 4b 60
        E 0 90 54 60
        E 0 90 57 60
        E 0 90 60 60
        E 0 90 63 60
        E 120 80 18 00
        E 0 80 1f 00
        E 0 80 3f 00
        E 0 80 48 00
        E 0 80 4b 00
        E 0 80 54 00
        E 0 80 57 00
        E 0 80 60 00
        E 0 80 63 00
        E 120 90 18 60
        E 0 90 54 60
        E 0 90 60 60
        E 120 80 18 00
        E 0 80 54 00
        E 0 80 60 00
        E 120 90 1a 60
        E 0 90 1f 60
        E 0 90 3d 60
        E 0 90 3f 60
        E 0 90 49 60
        E 0 90 4b 60
        E 0 90 55 60
        E 0 90 57 60
        E 0 90 61 60
        E 0 90 63 60
        E 120 80 1a 00
        E 0 80 1f 00
        E 0 80 3d 00
        E 0 80 3f 00
        E 0 80 49 00
        E 0 80 4b 00
        E 0 80 55 00
        E 0 80 57 00
        E 0 80 61 00
        E 0 80 63 00
        E 120 90 18 60
        E 0 90 54 60
        E 0 90 60 60
        E 120 80 18 00
        E 0 80 54 00
        E 0 80 60 00
        E 120 90 1f 60
        E 0 90 3f 60
        E 0 90 4b 60
        E 0 90 57 60
        E 0 90 63 60
        E 120 80 1f 00
        E 0 80 3f 00
        E 0 80 4b 00
        E 0 80 57 00
        E 0 80 63 00
        E 120 90 18 60
        E 0 90 54 60
        E 0 90 60 60
        E 120 80 18 00
        E 0 80 54 00
        E 0 80 60 00
        E 120 90 1a 60
        E 0 90 1f 60
        E 0 90 3d 60
        E 0 90 3f 60
        E 0 90 49 60
        E 0 90 4b 60
        E 0 90 55 60
        E 0 90 57 60
        E 0 90 61 60
        E 0 90 63 60
        E 120 80 1a 00
        E 0 80 1f 00
        E 0 80 3d 00
        E 0 80 3f 00
        E 0 80 49 00
        E 0 80 4b 00
        E 0 80 55 00
        E 0 80 57 00
        E 0 80 61 00
        E 0 80 63 00
        E 120 90 1b 60
        E 0 90 55 60
        E 0 90 61 60
        E 120 80 1b 00
        E 0 80 55 00
        E 0 80 61 00
        E 0 90 1a 60
        E 0 90 61 60
        E 120 80 1a 00
        E 0 80 61 00
        E 0 90 18 60
        E 0 90 1f 60
        E 0 90 3f 60
        E 0 90 48 60
        E 0 90 4b 60
        E 0 90 54 60
        E 0 90 57 60
        E 0 90 60 60
        E 0 90 63 60
        E 120 80 18 00
        E 0 80 1f 00
        E 0 80 3f 00
        E 0 80 48 00
        E 0 80 4b 00
        E 0 80 54 00
        E 0 80 57 00
        E 0 80 60 00
        E 0 80 63 00
        E 120 90 18 60
        E 0 90 54 60
        E 0 90 60 60
        E 120 80 18 00
        E 0 80 54 00
        E 0 80 60 00
        E 120 90 1f 60
        E 0 90 3f 60
        E 0 90 4b 60
        E 0 90 57 60
        E 0 90 63 60
        E 120 80 1f 00
        E 0 80 3f 00
        E 0 80 4b 00
        E 0 80 57 00
        E 0 80 63 00
        E 120 90 18 60
        E 0 90 54 60
        E 0 90 60 60
        E 120 80 18 00
        E 0 80 54 00
        E 0 80 60 00
        E 120 90 1a 60
        E 0 90 1f 60
        E 0 90 3d 60
        E 0 90 3f 60
        E 0 90 49 60
        E 0 90 4b 60
        E 0 90 55 60
        E 0 90 57 60
        E 0 90 61 60
        E 0 90 63 60
        E 120 80 1a 00
        E 0 80 1f 00
        E 0 80 3d 00
        E 0 80 3f 00
        E 0 80 49 00
        E 0 80 4b 00
        E 0 80 55 00
        E 0 80 57 00
        E 0 80 61 00
        E 0 80 63 00
        E 120 90 18 60
        E 0 90 54 60
        E 0 90 60 60
        E 120 80 18 00
        E 0 80 54 00
        E 0 80 60 00
        E 120 90 18 60
        E 0 90 1f 60
        E 0 90 3f 60
        E 0 90 48 60
        E 0 90 4b 60
        E 0 90 54 60
        E 0 90 57 60
        E 0 90 60 60
        E 0 90 63 60
        E 120 80 18 00
        E 0 80 1f 00
        E 0 80 3f 00
        E 0 80 48 00
        E 0 80 4b 00
        E 0 80 54 00
        E 0 80 57 00
        E 0 80 60 00
        E 0 80 63 00
        E 120 90 18 60
        E 0 90 54 60
        E 0 90 60 60
        E 120 80 18 00
        E 0 80 54 00
        E 0 80 60 00
        E 120 90 1f 60
        E 0 90 3f 60
        E 0 90 4b 60
        E 0 90 57 60
        E 0 90 63 60
        E 120 80 1f 00
        E 0 80 3f 00
        E 0 80 4b 00
        E 0 80 57 00
        E 0 80 63 00
        E 120 90 18 60
        E 0 90 54 60
        E 0 90 60 60
        E 120 80 18 00
        E 0 80 54 00
        E 0 80 60 00
        E 120 90 1f 60
        E 0 90 3f 60
        E 0 90 4b 60
        E 0 90 57 60
        E 0 90 63 60
        E 120 80 1f 00
        E 0 80 3f 00
        E 0 80 4b 00
        E 0 80 57 00
        E 0 80 63 00
        E 120 90 18 60
        E 0 90 54 60
        E 0 90 60 60
        E 120 80 18 00
        E 0 80 54 00
        E 0 80 60 00
        E 120 90 1a 60
        E 0 90 1f 60
        E 0 90 3d 60
        E 0 90 3f 60
        E 0 90 49 60
        E 0 90 4b 60
        E 0 90 55 60
        E 0 90 57 60
        E 0 90 61 60
        E 0 90 63 60
        E 120 80 1a 00
        E 0 80 1f 00
        E 0 80 3d 00
        E 0 80 3f 00
        E 0 80 49 00
        E 0 80 4b 00
        E 0 80 55 00
        E 0 80 57 00
        E 0 80 61 00
        E 0 80 63 00
        E 120 90 18 60
        E 0 90 54 60
        E 0 90 60 60
        E 120 80 18 00
        E 0 80 54 00
        E 0 80 60 00
        E 120 90 1f 60
        E 0 90 3f 60
        E 0 90 4b 60
        E 0 90 57 60
        E 0 90 63 60
        E 120 80 1f 00
        E 0 80 3f 00
        E 0 80 4b 00
        E 0 80 57 00
        E 0 80 63 00
        E 120 90 18 60
        E 0 90 54 60
        E 0 90 60 60
        E 120 80 18 00
        E 0 80 54 00
        E 0 80 60 00
        E 120 90 18 60
        E 0 90 1f 60
        E 0 90 3f 60
        E 0 90 48 60
        E 0 90 4b 60
        E 0 90 54 60
        E 0 90 57 60
        E 0 90 60 60
        E 0 90 63 60
        E 0 90 74 60
        E 120 80 18 00
        E 0 80 1f 00
        E 0 80 3f 00
        E 0 80 48 00
        E 0 80 4b 00
        E 0 80 54 00
        E 0 80 57 00
        E 0 80 60 00
        E 0 80 63 00
        E 120 90 18 60
        E 0 90 54 60
        E 0 90 60 60
        E 120 80 18 00
        E 0 80 54 00
        E 0 80 60 00
        E 120 90 1f 60
        E 0 90 3f 60
        E 0 90 4b 60
        E 0 90 57 60
        E 0 90 63 60
        E 120 80 1f 00
        E 0 80 3f 00
        E 0 80 4b 00
        E 0 80 57 00
        E 0 80 63 00
        E 120 90 18 60
        E 0 90 54 60
        E 0 90 60 60
        E 120 80 18 00
        E 0 80 54 00
        E 0 80 60 00
        E 120 90 1c 60
        E 0 90 1f 60
        E 0 90 3d 60
        E 0 90 3f 60
        E 0 90 49 60
        E 0 90 4b 60
        E 0 90 55 60
        E 0 90 57 60
        E 0 90 61 60
        E 0 90 63 60
        E 120 80 1c 00
        E 0 80 1f 00
        E 0 80 3d 00
        E 0 80 3f 00
        E 0 80 49 00
        E 0 80 4b 00
        E 0 80 55 00
        E 0 80 57 00
        E 0 80 61 00
        E 0 80 63 00
        E 0 90 1c 60
        E 0 90 61 60
        E 120 80 1c 00
        E 0 80 61 00
        E 0 90 18 60
        E 0 90 54 60
        E 0 90 60 60
        E 120 80 18 00
        E 0 80 54 00
        E 0 80 60 00
        E 120 90 1f 60
        E 0 90 3f 60
        E 0 90 4b 60
        E 0 90 57 60
        E 0 90 63 60
        E 120 80 1f 00
        E 0 80 3f 00
        E 0 80 4b 00
        E 0 80 57 00
        E 0 80 63 00
        E 120 90 18 60
        E 0 90 1a 60
        E 0 90 33 60
        E 0 90 54 60
        E 0 90 55 60
        E 0 90 58 60
        E 0 90 60 60
        E 0 90 61 60
        E 0 90 64 60
        E 0 90 70 60
        E 120 80 74 00
        E 0 80 18 00
        E 0 80 1a 00
        E 0 80 33 00
        E 0 80 54 00
        E 0 80 55 00
        E 0 80 58 00
        E 0 80 60 00
        E 0 80 61 00
        E 0 80 64 00
        E 0 80 70 00
        <X 120 0
          /wFbcGxheV0=
        >
        E 0 80 19 00
        E 0 90 78 60
        E 0 90 79 60
        E 0 90 7a 60
        E 0 90 7b 60
        E 0 90 7c 60
        E 1440 90 18 60
        E 0 90 1a 60
        E 0 90 3d 60
        E 0 90 49 60
        E 0 90 54 60
        E 0 90 55 60
        E 0 90 60 60
        E 0 90 61 60
        E 120 80 18 00
        E 0 80 1a 00
        E 0 80 3d 00
        E 0 80 49 00
        E 0 80 54 00
        E 0 80 55 00
        E 0 80 60 00
        E 0 80 61 00
        E 120 90 18 60
        E 0 90 33 60
        E 0 90 54 60
        E 0 90 57 60
        E 0 90 60 60
        E 0 90 63 60
        E 0 90 6f 60
        E 120 80 18 00
        E 0 80 33 00
        E 0 80 54 00
        E 0 80 57 00
        E 0 80 60 00
        E 0 80 63 00
        E 0 80 6f 00
        E 120 80 78 00
        E 0 80 79 00
        E 0 80 7a 00
        E 0 80 7b 00
        E 0 80 7c 00
        E 0 90 18 60
        E 0 90 24 60
        E 0 90 40 60
        E 0 90 48 60
        E 0 90 4c 60
        E 0 90 54 60
        E 0 90 58 60
        E 0 90 60 60
        E 0 90 64 60
        E 120 80 18 00
        E 0 80 24 00
        E 0 80 40 00
        E 0 80 48 00
        E 0 80 4c 00
        E 0 80 54 00
        E 0 80 58 00
        E 0 80 60 00
        E 0 80 64 00
        E 120 90 18 60
        E 0 90 54 60
        E 0 90 60 60
        E 120 80 18 00
        E 0 80 54 00
        E 0 80 60 00
        E 120 90 1a 60
        E 0 90 24 60
        E 0 90 3d 60
        E 0 90 40 60
        E 0 90 49 60
        E 0 90 4c 60
        E 0 90 55 60
        E 0 90 58 60
        E 0 90 61 60
        E 0 90 64 60
        E 120 80 1a 00
        E 0 80 24 00
        E 0 80 3d 00
        E 0 80 40 00
        E 0 80 49 00
        E 0 80 4c 00
        E 0 80 55 00
        E 0 80 58 00
        E 0 80 61 00
        E 0 80 64 00
        E 120 90 18 60
        E 0 90 33 60
        E 0 90 54 60
        E 0 90 57 60
        E 0 90 60 60
        E 0 90 63 60
        E 0 90 6f 60
        E 120 80 18 00
        E 0 80 33 00
        E 0 80 54 00
        E 0 80 57 00
        E 0 80 60 00
        E 0 80 63 00
        E 0 80 6f 00
        E 120 90 24 60
        E 0 90 40 60
        E 0 90 4c 60
        E 0 90 58 60
        E 0 90 64 60
        E 120 80 24 00
        E 0 80 40 00
        E 0 80 4c 00
        E 0 80 58 00
        E 0 80 64 00
        E 120 90 18 60
        E 0 90 54 60
        E 0 90 60 60
        E 120 80 18 00
        E 0 80 54 00
        E 0 80 60 00
        E 120 90 1a 60
        E 0 90 24 60
        E 0 90 3d 60
        E 0 90 40 60
        E 0 90 49 60
        E 0 90 4c 60
        E 0 90 55 60
        E 0 90 58 60
        E 0 90 61 60
        E 0 90 64 60
        E 120 80 1a 00
        E 0 80 24 00
        E 0 80 3d 00
        E 0 80 40 00
        E 0 80 49 00
        E 0 80 4c 00
        E 0 80 55 00
        E 0 80 58 00
        E 0 80 61 00
        E 0 80 64 00
        E 360 90 18 60
        E 0 90 24 60
        E 0 90 40 60
        E 0 90 48 60
        E 0 90 4c 60
        E 0 90 54 60
        E 0 90 58 60
        E 0 90 60 60
        E 0 90 64 60
        E 120 80 18 00
        E 0 80 24 00
        E 0 80 40 00
        E 0 80 48 00
        E 0 80 4c 00
        E 0 80 54 00
        E 0 80 58 00
        E 0 80 60 00
        E 0 80 64 00
        E 120 90 18 60
        E 0 90 54 60
        E 0 90 60 60
        E 120 80 18 00
        E 0 80 54 00
        E 0 80 60 00
        E 120 90 1a 60
        E 0 90 24 60
        E 0 90 3d 60
        E 0 90 40 60
        E 0 90 49 60
        E 0 90 4c 60
        E 0 90 55 60
        E 0 90 58 60
        E 0 90 61 60
        E 0 90 64 60
        E 120 80 1a 00
        E 0 80 24 00
        E 0 80 3d 00
        E 0 80 40 00
        E 0 80 49 00
        E 0 80 4c 00
        E 0 80 55 00
        E 0 80 58 00
        E 0 80 61 00
        E 0 80 64 00
        E 120 90 18 60
        E 0 90 54 60
        E 0 90 60 60
        E 120 80 18 00
        E 0 80 54 00
        E 0 80 60 00
        E 120 90 24 60
        E 0 90 40 60
        E 0 90 4c 60
        E 0 90 58 60
        E 0 90 64 60
        E 120 80 24 00
        E 0 80 40 00
        E 0 80 4c 00
        E 0 80 58 00
        E 0 80 64 00
        E 120 90 18 60
        E 0 90 54 60
        E 0 90 60 60
        E 120 80 18 00
        E 0 80 54 00
        E 0 80 60 00
        E 120 90 1a 60
        E 0 90 24 60
        E 0 90 3d 60
        E 0 90 40 60
        E 0 90 49 60
        E 0 90 4c 60
        E 0 90 55 60
        E 0 90 58 60
        E 0 90 61 60
        E 0 90 64 60
        E 120 80 1a 00
        E 0 80 24 00
        E 0 80 3d 00
        E 0 80 40 00
        E 0 80 49 00
        E 0 80 4c 00
        E 0 80 55 00
        E 0 80 58 00
        E 0 80 61 00
        E 0 80 64 00
        E 360 90 18 60
        E 0 90 24 60
        E 0 90 40 60
        E 0 90 48 60
        E 0 90 4c 60
        E 0 90 54 60
        E 0 90 58 60
        E 0 90 60 60
        E 0 90 64 60
        E 120 80 18 00
        E 0 80 24 00
        E 0 80 40 00
        E 0 80 48 00
        E 0 80 4c 00
        E 0 80 54 00
        E 0 80 58 00
        E 0 80 60 00
        E 0 80 64 00
        E 120 90 18 60
        E 0 90 54 60
        E 0 90 60 60
        E 120 80 18 00
        E 0 80 54 00
        E 0 80 60 00
        E 120 90 1a 60
        E 0 90 24 60
        E 0 90 3d 60
        E 0 90 40 60
        E 0 90 49 60
        E 0 90 4c 60
        E 0 90 55 60
        E 0 90 58 60
        E 0 90 61 60
        E 0 90 64 60
        E 120 80 1a 00
        E 0 80 24 00
        E 0 80 3d 00
        E 0 80 40 00
        E 0 80 49 00
        E 0 80 4c 00
        E 0 80 55 00
        E 0 80 58 00
        E 0 80 61 00
        E 0 80 64 00
        E 120 90 18 60
        E 0 90 54 60
        E 0 90 60 60
        E 120 80 18 00
        E 0 80 54 00
        E 0 80 60 00
        E 120 90 24 60
        E 0 90 40 60
        E 0 90 4c 60
        E 0 90 58 60
        E 0 90 64 60
        E 120 80 24 00
        E 0 80 40 00
        E 0 80 4c 00
        E 0 80 58 00
        E 0 80 64 00
        E 120 90 18 60
        E 0 90 54 60
        E 0 90 60 60
        E 120 80 18 00
        E 0 80 54 00
        E 0 80 60 00
        E 120 90 1a 60
        E 0 90 24 60
        E 0 90 3d 60
        E 0 90 40 60
        E 0 90 49 60
        E 0 90 4c 60
        E 0 90 55 60
        E 0 90 58 60
        E 0 90 61 60
        E 0 90 64 60
        E 120 80 1a 00
        E 0 80 24 00
        E 0 80 3d 00
        E 0 80 40 00
        E 0 80 49 00
        E 0 80 4c 00
        E 0 80 55 00
        E 0 80 58 00
        E 0 80 61 00
        E 0 80 64 00
        E 360 90 18 60
        E 0 90 24 60
        E 0 90 40 60
        E 0 90 48 60
        E 0 90 4c 60
        E 0 90 54 60
        E 0 90 58 60
        E 0 90 60 60
        E 0 90 64 60
        E 120 80 18 00
        E 0 80 24 00
        E 0 80 40 00
        E 0 80 48 00
        E 0 80 4c 00
        E 0 80 54 00
        E 0 80 58 00
        E 0 80 60 00
        E 0 80 64 00
        E 120 90 18 60
        E 0 90 54 60
        E 0 90 60 60
        E 120 80 18 00
        E 0 80 54 00
        E 0 80 60 00
        E 120 90 1a 60
        E 0 90 24 60
        E 0 90 3d 60
        E 0 90 40 60
        E 0 90 49 60
        E 0 90 4c 60
        E 0 90 55 60
        E 0 90 58 60
        E 0 90 61 60
        E 0 90 64 60
        E 120 80 1a 00
        E 0 80 24 00
        E 0 80 3d 00
        E 0 80 40 00
        E 0 80 49 00
        E 0 80 4c 00
        E 0 80 55 00
        E 0 80 58 00
        E 0 80 61 00
        E 0 80 64 00
        E 120 90 18 60
        E 0 90 54 60
        E 0 90 60 60
        E 120 80 18 00
        E 0 80 54 00
        E 0 80 60 00
        E 120 90 24 60
        E 0 90 40 60
        E 0 90 4c 60
        E 0 90 58 60
        E 0 90 64 60
        E 120 80 24 00
        E 0 80 40 00
        E 0 80 4c 00
        E 0 80 58 00
        E 0 80 64 00
        E 120 90 18 60
        E 0 90 54 60
        E 0 90 60 60
        E 120 80 18 00
        E 0 80 54 00
        E 0 80 60 00
        E 120 90 1a 60
        E 0 90 24 60
        E 0 90 3d 60
        E 0 90 40 60
        E 0 90 49 60
        E 0 90 4c 60
        E 0 90 55 60
        E 0 90 58 60
        E 0 90 61 60
        E 0 90 64 60
        E 120 80 1a 00
        E 0 80 24 00
        E 0 80 3d 00
        E 0 80 40 00
        E 0 80 49 00
        E 0 80 4c 00
        E 0 80 55 00
        E 0 80 58 00
        E 0 80 61 00
        E 0 80 64 00
        E 120 90 1a 60
        E 0 90 55 60
        E 0 90 61 60
        E 120 80 1a 00
        E 0 80 55 00
        E 0 80 61 00
        E 120 90 18 60
        E 0 90 24 60
        E 0 90 40 60
        E 0 90 48 60
        E 0 90 4c 60
        E 0 90 54 60
        E 0 90 58 60
        E 0 90 60 60
        E 0 90 64 60
        E 120 80 18 00
        E 0 80 24 00
        E 0 80 40 00
        E 0 80 48 00
        E 0 80 4c 00
        E 0 80 54 00
        E 0 80 58 00
        E 0 80 60 00
        E 0 80 64 00
        E 120 90 18 60
        E 0 90 54 60
        E 0 90 60 60
        E 120 80 18 00
        E 0 80 54 00
        E 0 80 60 00
        E 120 90 1a 60
        E 0 90 24 60
        E 0 90 3d 60
        E 0 90 40 60
        E 0 90 49 60
        E 0 90 4c 60
        E 0 90 55 60
        E 0 90 58 60
        E 0 90 61 60
        E 0 90 64 60
        E 120 80 1a 00
        E 0 80 24 00
        E 0 80 3d 00
        E 0 80 40 00
        E 0 80 49 00
        E 0 80 4c 00
        E 0 80 55 00
        E 0 80 58 00
        E 0 80 61 00
        E 0 80 64 00
        E 120 90 18 60
        E 0 90 54 60
        E 0 90 60 60
        E 120 80 18 00
        E 0 80 54 00
        E 0 80 60 00
        E 120 90 24 60
        E 0 90 40 60
        E 0 90 4c 60
        E 0 90 58 60
        E 0 90 64 60
        E 120 80 24 00
        E 0 80 40 00
        E 0 80 4c 00
        E 0 80 58 00
        E 0 80 64 00
        E 120 90 18 60
        E 0 90 54 60
        E 0 90 60 60
        E 120 80 18 00
        E 0 80 54 00
        E 0 80 60 00
        E 120 90 1a 60
        E 0 90 24 60
        E 0 90 3d 60
        E 0 90 40 60
        E 0 90 49 60
        E 0 90 4c 60
        E 0 90 55 60
        E 0 90 58 60
        E 0 90 61 60
        E 0 90 64 60
        E 120 80 1a 00
        E 0 80 24 00
        E 0 80 3d 00
        E 0 80 40 00
        E 0 80 49 00
        E 0 80 4c 00
        E 0 80 55 00
        E 0 80 58 00
        E 0 80 61 00
        E 0 80 64 00
        E 360 90 18 60
        E 0 90 24 60
        E 0 90 40 60
        E 0 90 48 60
        E 0 90 4c 60
        E 0 90 54 60
        E 0 90 58 60
        E 0 90 60 60
        E 0 90 64 60
        E 120 80 18 00
        E 0 80 24 00
        E 0 80 40 00
        E 0 80 48 00
        E 0 80 4c 00
        E 0 80 54 00
        E 0 80 58 00
        E 0 80 60 00
        E 0 80 64 00
        E 120 90 18 60
        E 0 90 54 60
        E 0 90 60 60
        E 120 80 18 00
        E 0 80 54 00
        E 0 80 60 00
        E 120 90 1a 60
        E 0 90 24 60
        E 0 90 3d 60
        E 0 90 40 60
        E 0 90 49 60
        E 0 90 4c 60
        E 0 90 55 60
        E 0 90 58 60
        E 0 90 61 60
        E 0 90 64 60
        E 120 80 1a 00
        E 0 80 24 00
        E 0 80 3d 00
        E 0 80 40 00
        E 0 80 49 00
        E 0 80 4c 00
        E 0 80 55 00
        E 0 80 58 00
        E 0 80 61 00
        E 0 80 64 00
        E 120 90 18 60
        E 0 90 54 60
        E 0 90 60 60
        E 120 80 18 00
        E 0 80 54 00
        E 0 80 60 00
        E 120 90 24 60
        E 0 90 40 60
        E 0 90 4c 60
        E 0 90 58 60
        E 0 90 64 60
        E 120 80 24 00
        E 0 80 40 00
        E 0 80 4c 00
        E 0 80 58 00
        E 0 80 64 00
        E 120 90 18 60
        E 0 90 54 60
        E 0 90 60 60
        E 120 80 18 00
        E 0 80 54 00
        E 0 80 60 00
        E 120 90 1a 60
        E 0 90 24 60
        E 0 90 3d 60
        E 0 90 40 60
        E 0 90 49 60
        E 0 90 4c 60
        E 0 90 55 60
        E 0 90 58 60
        E 0 90 61 60
        E 0 90 64 60
        E 120 80 1a 00
        E 0 80 24 00
        E 0 80 3d 00
        E 0 80 40 00
        E 0 80 49 00
        E 0 80 4c 00
        E 0 80 55 00
        E 0 80 58 00
        E 0 80 61 00
        E 0 80 64 00
        E 360 90 18 60
        E 0 90 24 60
        E 0 90 40 60
        E 0 90 48 60
        E 0 90 4c 60
        E 0 90 54 60
        E 0 90 58 60
        E 0 90 60 60
        E 0 90 64 60
        E 120 80 18 00
        E 0 80 24 00
        E 0 80 40 00
        E 0 80 48 00
        E 0 80 4c 00
        E 0 80 54 00
        E 0 80 58 00
        E 0 80 60 00
        E 0 80 64 00
        E 120 90 18 60
        E 0 90 54 60
        E 0 90 60 60
        E 120 80 18 00
        E 0 80 54 00
        E 0 80 60 00
        E 120 90 1a 60
        E 0 90 24 60
        E 0 90 3d 60
        E 0 90 40 60
        E 0 90 49 60
        E 0 90 4c 60
        E 0 90 55 60
        E 0 90 58 60
        E 0 90 61 60
        E 0 90 64 60
        E 120 80 1a 00
        E 0 80 24 00
        E 0 80 3d 00
        E 0 80 40 00
        E 0 80 49 00
        E 0 80 4c 00
        E 0 80 55 00
        E 0 80 58 00
        E 0 80 61 00
        E 0 80 64 00
        E 120 90 18 60
        E 0 90 54 60
        E 0 90 60 60
        E 120 80 18 00
        E 0 80 54 00
        E 0 80 60 00
        E 120 90 24 60
        E 0 90 40 60
        E 0 90 4c 60
        E 0 90 58 60
        E 0 90 64 60
        E 120 80 24 00
        E 0 80 40 00
        E 0 80 4c 00
        E 0 80 58 00
        E 0 80 64 00
        E 120 90 18 60
        E 0 90 54 60
        E 0 90 60 60
        E 120 80 18 00
        E 0 80 54 00
        E 0 80 60 00
        E 120 90 1a 60
        E 0 90 24 60
        E 0 90 3d 60
        E 0 90 40 60
        E 0 90 49 60
        E 0 90 4c 60
        E 0 90 55 60
        E 0 90 58 60
        E 0 90 61 60
        E 0 90 64 60
        E 120 80 1a 00
        E 0 80 24 00
        E 0 80 3d 00
        E 0 80 40 00
        E 0 80 49 00
        E 0 80 4c 00
        E 0 80 55 00
        E 0 80 58 00
        E 0 80 61 00
        E 0 80 64 00
        E 360 90 18 60
        E 0 90 24 60
        E 0 90 40 60
        E 0 90 48 60
        E 0 90 4c 60
        E 0 90 54 60
        E 0 90 58 60
        E 0 90 60 60
        E 0 90 64 60
        E 0 90 78 60
        E 0 90 79 60
        E 0 90 7a 60
        E 0 90 7b 60
        E 0 90 7c 60
        E 120 80 18 00
        E 0 80 24 00
        E 0 80 40 00
        E 0 80 48 00
        E 0 80 4c 00
        E 0 80 54 00
        E 0 80 58 00
        E 0 80 60 00
        E 0 80 64 00
        E 120 90 18 60
        E 0 90 54 60
        E 0 90 60 60
        E 120 80 18 00
        E 0 80 54 00
        E 0 80 60 00
        E 120 90 1a 60
        E 0 90 24 60
        E 0 90 3d 60
        E 0 90 40 60
        E 0 90 49 60
        E 0 90 4c 60
        E 0 90 55 60
        E 0 90 58 60
        E 0 90 61 60
        E 0 90 64 60
        E 120 80 1a 00
        E 0 80 24 00
        E 0 80 3d 00
        E 0 80 40 00
        E 0 80 49 00
        E 0 80 4c 00
        E 0 80 55 00
        E 0 80 58 00
        E 0 80 61 00
        E 0 80 64 00
        E 120 90 18 60
        E 0 90 54 60
        E 0 90 60 60
        E 120 80 18 00
        E 0 80 54 00
        E 0 80 60 00
        E 120 90 1a 60
        E 0 90 24 60
        E 0 90 3d 60
        E 0 90 40 60
        E 0 90 49 60
        E 0 90 4c 60
        E 0 90 55 60
        E 0 90 58 60
        E 0 90 61 60
        E 0 90 64 60
        E 120 80 1a 00
        E 0 80 24 00
        E 0 80 3d 00
        E 0 80 40 00
        E 0 80 49 00
        E 0 80 4c 00
        E 0 80 55 00
        E 0 80 58 00
        E 0 80 61 00
        E 0 80 64 00
        E 120 90 18 60
        E 0 90 54 60
        E 0 90 60 60
        E 120 80 18 00
        E 0 80 54 00
        E 0 80 60 00
        E 120 90 1a 60
        E 0 90 24 60
        E 0 90 3d 60
        E 0 90 40 60
        E 0 90 49 60
        E 0 90 4c 60
        E 0 90 55 60
        E 0 90 58 60
        E 0 90 61 60
        E 0 90 64 60
        E 120 80 1a 00
        E 0 80 24 00
        E 0 80 3d 00
        E 0 80 40 00
        E 0 80 49 00
        E 0 80 4c 00
        E 0 80 55 00
        E 0 80 58 00
        E 0 80 61 00
        E 0 80 64 00
        E 0 90 1a 60
        E 0 90 61 60
        E 120 80 1a 00
        E 0 80 61 00
        E 0 90 1b 60
        E 0 90 55 60
        E 0 90 61 60
        E 120 80 1b 00
        E 0 80 55 00
        E 0 80 61 00
        E 0 90 1a 60
        E 0 90 61 60
        E 120 80 78 00
        E 0 80 79 00
        E 0 80 7a 00
        E 0 80 7b 00
        E 0 80 7c 00
        E 0 80 1a 00
        E 0 80 61 00
        E 0 90 18 60
        E 0 90 24 60
        E 0 90 40 60
        E 0 90 48 60
        E 0 90 4c 60
        E 0 90 54 60
        E 0 90 58 60
        E 0 90 60 60
        E 0 90 64 60
        E 120 80 18 00
        E 0 80 24 00
        E 0 80 40 00
        E 0 80 48 00
        E 0 80 4c 00
        E 0 80 54 00
        E 0 80 58 00
        E 0 80 60 00
        E 0 80 64 00
        E 120 90 18 60
        E 0 90 54 60
        E 0 90 60 60
        E 120 80 18 00
        E 0 80 54 00
        E 0 80 60 00
        E 120 90 1a 60
        E 0 90 24 60
        E 0 90 3d 60
        E 0 90 40 60
        E 0 90 49 60
        E 0 90 4c 60
        E 0 90 55 60
        E 0 90 58 60
        E 0 90 61 60
        E 0 90 64 60
        E 120 80 1a 00
        E 0 80 24 00
        E 0 80 3d 00
        E 0 80 40 00
        E 0 80 49 00
        E 0 80 4c 00
        E 0 80 55 00
        E 0 80 58 00
        E 0 80 61 00
        E 0 80 64 00
        E 120 90 18 60
        E 0 90 33 60
        E 0 90 54 60
        E 0 90 57 60
        E 0 90 60 60
        E 0 90 63 60
        E 0 90 6f 60
        E 120 80 18 00
        E 0 80 33 00
        E 0 80 54 00
        E 0 80 57 00
        E 0 80 60 00
        E 0 80 63 00
        E 0 80 6f 00
        E 120 90 24 60
        E 0 90 40 60
        E 0 90 4c 60
        E 0 90 58 60
        E 0 90 64 60
        E 120 80 24 00
        E 0 80 40 00
        E 0 80 4c 00
        E 0 80 58 00
        E 0 80 64 00
        E 120 90 18 60
        E 0 90 54 60
        E 0 90 60 60
        E 120 80 18 00
        E 0 80 54 00
        E 0 80 60 00
        E 120 90 1a 60
        E 0 90 24 60
        E 0 90 3d 60
        E 0 90 40 60
        E 0 90 49 60
        E 0 90 4c 60
        E 0 90 55 60
        E 0 90 58 60
        E 0 90 61 60
        E 0 90 64 60
        E 120 80 1a 00
        E 0 80 24 00
        E 0 80 3d 00
        E 0 80 40 00
        E 0 80 49 00
        E 0 80 4c 00
        E 0 80 55 00
        E 0 80 58 00
        E 0 80 61 00
        E 0 80 64 00
        E 360 90 18 60
        E 0 90 24 60
        E 0 90 40 60
        E 0 90 48 60
        E 0 90 4c 60
        E 0 90 54 60
        E 0 90 58 60
        E 0 90 60 60
        E 0 90 64 60
        E 120 80 18 00
        E 0 80 24 00
        E 0 80 40 00
        E 0 80 48 00
        E 0 80 4c 00
        E 0 80 54 00
        E 0 80 58 00
        E 0 80 60 00
        E 0 80 64 00
        E 120 90 18 60
        E 0 90 54 60
        E 0 90 60 60
        E 120 80 18 00
        E 0 80 54 00
        E 0 80 60 00
        E 120 90 1a 60
        E 0 90 24 60
        E 0 90 3d 60
        E 0 90 40 60
        E 0 90 49 60
        E 0 90 4c 60
        E 0 90 55 60
        E 0 90 58 60
        E 0 90 61 60
        E 0 90 64 60
        E 120 80 1a 00
        E 0 80 24 00
        E 0 80 3d 00
        E 0 80 40 00
        E 0 80 49 00
        E 0 80 4c 00
        E 0 80 55 00
        E 0 80 58 00
        E 0 80 61 00
        E 0 80 64 00
        E 120 90 18 60
        E 0 90 54 60
        E 0 90 60 60
        E 120 80 18 00
        E 0 80 54 00
        E 0 80 60 00
        E 120 90 24 60
        E 0 90 40 60
        E 0 90 4c 60
        E 0 90 58 60
        E 0 90 64 60
        E 120 80 24 00
        E 0 80 40 00
        E 0 80 4c 00
        E 0 80 58 00
        E 0 80 64 00
        E 120 90 18 60
        E 0 90 54 60
        E 0 90 60 60
        E 120 80 18 00
        E 0 80 54 00
        E 0 80 60 00
        E 120 90 1a 60
        E 0 90 24 60
        E 0 90 3d 60
        E 0 90 40 60
        E 0 90 49 60
        E 0 90 4c 60
        E 0 90 55 60
        E 0 90 58 60
        E 0 90 61 60
        E 0 90 64 60
        E 120 80 1a 00
        E 0 80 24 00
        E 0 80 3d 00
        E 0 80 40 00
        E 0 80 49 00
        E 0 80 4c 00
        E 0 80 55 00
        E 0 80 58 00
        E 0 80 61 00
        E 0 80 64 00
        E 360 90 18 60
        E 0 90 24 60
        E 0 90 40 60
        E 0 90 48 60
        E 0 90 4c 60
        E 0 90 54 60
        E 0 90 58 60
        E 0 90 60 60
        E 0 90 64 60
        E 120 80 18 00
        E 0 80 24 00
        E 0 80 40 00
        E 0 80 48 00
        E 0 80 4c 00
        E 0 80 54 00
        E 0 80 58 00
        E 0 80 60 00
        E 0 80 64 00
        E 120 90 18 60
        E 0 90 54 60
        E 0 90 60 60
        E 120 80 18 00
        E 0 80 54 00
        E 0 80 60 00
        E 120 90 1a 60
        E 0 90 24 60
        E 0 90 3d 60
        E 0 90 40 60
        E 0 90 49 60
        E 0 90 4c 60
        E 0 90 55 60
        E 0 90 58 60
        E 0 90 61 60
        E 0 90 64 60
        E 120 80 1a 00
        E 0 80 24 00
        E 0 80 3d 00
        E 0 80 40 00
        E 0 80 49 00
        E 0 80 4c 00
        E 0 80 55 00
        E 0 80 58 00
        E 0 80 61 00
        E 0 80 64 00
        E 120 90 18 60
        E 0 90 54 60
        E 0 90 60 60
        E 120 80 18 00
        E 0 80 54 00
        E 0 80 60 00
        E 120 90 24 60
        E 0 90 40 60
        E 0 90 4c 60
        E 0 90 58 60
        E 0 90 64 60
        E 120 80 24 00
        E 0 80 40 00
        E 0 80 4c 00
        E 0 80 58 00
        E 0 80 64 00
        E 120 90 18 60
        E 0 90 54 60
        E 0 90 60 60
        E 120 80 18 00
        E 0 80 54 00
        E 0 80 60 00
        E 120 90 1a 60
        E 0 90 24 60
        E 0 90 3d 60
        E 0 90 40 60
        E 0 90 49 60
        E 0 90 4c 60
        E 0 90 55 60
        E 0 90 58 60
        E 0 90 61 60
        E 0 90 64 60
        E 120 80 1a 00
        E 0 80 24 00
        E 0 80 3d 00
        E 0 80 40 00
        E 0 80 49 00
        E 0 80 4c 00
        E 0 80 55 00
        E 0 80 58 00
        E 0 80 61 00
        E 0 80 64 00
        E 360 90 18 60
        E 0 90 24 60
        E 0 90 40 60
        E 0 90 48 60
        E 0 90 4c 60
        E 0 90 54 60
        E 0 90 58 60
        E 0 90 60 60
        E 0 90 64 60
        E 120 80 18 00
        E 0 80 24 00
        E 0 80 40 00
        E 0 80 48 00
        E 0 80 4c 00
        E 0 80 54 00
        E 0 80 58 00
        E 0 80 60 00
        E 0 80 64 00
        E 120 90 18 60
        E 0 90 54 60
        E 0 90 60 60
        E 120 80 18 00
        E 0 80 54 00
        E 0 80 60 00
        E 120 90 1a 60
        E 0 90 24 60
        E 0 90 3d 60
        E 0 90 40 60
        E 0 90 49 60
        E 0 90 4c 60
        E 0 90 55 60
        E 0 90 58 60
        E 0 90 61 60
        E 0 90 64 60
        E 120 80 1a 00
        E 0 80 24 00
        E 0 80 3d 00
        E 0 80 40 00
        E 0 80 49 00
        E 0 80 4c 00
        E 0 80 55 00
        E 0 80 58 00
        E 0 80 61 00
        E 0 80 64 00
        E 120 90 18 60
        E 0 90 54 60
        E 0 90 60 60
        E 120 80 18 00
        E 0 80 54 00
        E 0 80 60 00
        E 120 90 24 60
        E 0 90 40 60
        E 0 90 4c 60
        E 0 90 58 60
        E 0 90 64 60
        E 120 80 24 00
        E 0 80 40 00
        E 0 80 4c 00
        E 0 80 58 00
        E 0 80 64 00
        E 120 90 18 60
        E 0 90 54 60
        E 0 90 60 60
        E 120 80 18 00
        E 0 80 54 00
        E 0 80 60 00
        E 120 90 1a 60
        E 0 90 24 60
        E 0 90 3d 60
        E 0 90 40 60
        E 0 90 49 60
        E 0 90 4c 60
        E 0 90 55 60
        E 0 90 58 60
        E 0 90 61 60
        E 0 90 64 60
        E 120 80 1a 00
        E 0 80 24 00
        E 0 80 3d 00
        E 0 80 40 00
        E 0 80 49 00
        E 0 80 4c 00
        E 0 80 55 00
        E 0 80 58 00
        E 0 80 61 00
        E 0 80 64 00
        E 120 90 1a 60
        E 0 90 55 60
        E 0 90 61 60
        E 120 80 1a 00
        E 0 80 55 00
        E 0 80 61 00
        E 120 90 18 60
        E 0 90 24 60
        E 0 90 40 60
        E 0 90 48 60
        E 0 90 4c 60
        E 0 90 54 60
        E 0 90 58 60
        E 0 90 60 60
        E 0 90 64 60
        E 120 80 18 00
        E 0 80 24 00
        E 0 80 40 00
        E 0 80 48 00
        E 0 80 4c 00
        E 0 80 54 00
        E 0 80 58 00
        E 0 80 60 00
        E 0 80 64 00
        E 120 90 18 60
        E 0 90 54 60
        E 0 90 60 60
        E 120 80 18 00
        E 0 80 54 00
        E 0 80 60 00
        E 120 90 1a 60
        E 0 90 24 60
        E 0 90 3d 60
        E 0 90 40 60
        E 0 90 49 60
        E 0 90 4c 60
        E 0 90 55 60
        E 0 90 58 60
        E 0 90 61 60
        E 0 90 64 60
        E 120 80 1a 00
        E 0 80 24 00
        E 0 80 3d 00
        E 0 80 40 00
        E 0 80 49 00
        E 0 80 4c 00
        E 0 80 55 00
        E 0 80 58 00
        E 0 80 61 00
        E 0 80 64 00
        E 120 90 18 60
        E 0 90 54 60
        E 0 90 60 60
        E 120 80 18 00
        E 0 80 54 00
        E 0 80 60 00
        E 120 90 24 60
        E 0 90 40 60
        E 0 90 4c 60
        E 0 90 58 60
        E 0 90 64 60
        E 120 80 24 00
        E 0 80 40 00
        E 0 80 4c 00
        E 0 80 58 00
        E 0 80 64 00
        E 120 90 18 60
        E 0 90 54 60
        E 0 90 60 60
        E 120 80 18 00
        E 0 80 54 00
        E 0 80 60 00
        E 120 90 1a 60
        E 0 90 24 60
        E 0 90 3d 60
        E 0 90 40 60
        E 0 90 49 60
        E 0 90 4c 60
        E 0 90 55 60
        E 0 90 58 60
        E 0 90 61 60
        E 0 90 64 60
        E 120 80 1a 00
        E 0 80 24 00
        E 0 80 3d 00
        E 0 80 40 00
        E 0 80 49 00
        E 0 80 4c 00
        E 0 80 55 00
        E 0 80 58 00
        E 0 80 61 00
        E 0 80 64 00
        E 360 90 18 60
        E 0 90 24 60
        E 0 90 40 60
        E 0 90 48 60
        E 0 90 4c 60
        E 0 90 54 60
        E 0 90 58 60
        E 0 90 60 60
        E 0 90 64 60
        E 120 80 18 00
        E 0 80 24 00
        E 0 80 40 00
        E 0 80 48 00
        E 0 80 4c 00
        E 0 80 54 00
        E 0 80 58 00
        E 0 80 60 00
        E 0 80 64 00
        E 120 90 18 60
        E 0 90 54 60
        E 0 90 60 60
        E 120 80 18 00
        E 0 80 54 00
        E 0 80 60 00
        E 120 90 1a 60
        E 0 90 24 60
        E 0 90 3d 60
        E 0 90 40 60
        E 0 90 49 60
        E 0 90 4c 60
        E 0 90 55 60
        E 0 90 58 60
        E 0 90 61 60
        E 0 90 64 60
        E 120 80 1a 00
        E 0 80 24 00
        E 0 80 3d 00
        E 0 80 40 00
        E 0 80 49 00
        E 0 80 4c 00
        E 0 80 55 00
        E 0 80 58 00
        E 0 80 61 00
        E 0 80 64 00
        E 120 90 18 60
        E 0 90 54 60
        E 0 90 60 60
        E 120 80 18 00
        E 0 80 54 00
        E 0 80 60 00
        E 120 90 24 60
        E 0 90 40 60
        E 0 90 4c 60
        E 0 90 58 60
        E 0 90 64 60
        E 120 80 24 00
        E 0 80 40 00
        E 0 80 4c 00
        E 0 80 58 00
        E 0 80 64 00
        E 120 90 18 60
        E 0 90 54 60
        E 0 90 60 60
        E 120 80 18 00
        E 0 80 54 00
        E 0 80 60 00
        E 120 90 1a 60
        E 0 90 24 60
        E 0 90 3d 60
        E 0 90 40 60
        E 0 90 49 60
        E 0 90 4c 60
        E 0 90 55 60
        E 0 90 58 60
        E 0 90 61 60
        E 0 90 64 60
        E 120 80 1a 00
        E 0 80 24 00
        E 0 80 3d 00
        E 0 80 40 00
        E 0 80 49 00
        E 0 80 4c 00
        E 0 80 55 00
        E 0 80 58 00
        E 0 80 61 00
        E 0 80 64 00
        E 360 90 18 60
        E 0 90 24 60
        E 0 90 40 60
        E 0 90 48 60
        E 0 90 4c 60
        E 0 90 54 60
        E 0 90 58 60
        E 0 90 60 60
        E 0 90 64 60
        E 0 90 74 60
        E 120 80 18 00
        E 0 80 24 00
        E 0 80 40 00
        E 0 80 48 00
        E 0 80 4c 00
        E 0 80 54 00
        E 0 80 58 00
        E 0 80 60 00
        E 0 80 64 00
        E 120 90 18 60
        E 0 90 54 60
        E 0 90 60 60
        E 120 80 18 00
        E 0 80 54 00
        E 0 80 60 00
        E 120 90 1a 60
        E 0 90 24 60
        E 0 90 3d 60
        E 0 90 40 60
        E 0 90 49 60
        E 0 90 4c 60
        E 0 90 55 60
        E 0 90 58 60
        E 0 90 61 60
        E 0 90 64 60
        E 120 80 1a 00
        E 0 80 24 00
        E 0 80 3d 00
        E 0 80 40 00
        E 0 80 49 00
        E 0 80 4c 00
        E 0 80 55 00
        E 0 80 58 00
        E 0 80 61 00
        E 0 80 64 00
        E 120 90 18 60
        E 0 90 54 60
        E 0 90 60 60
        E 120 80 18 00
        E 0 80 54 00
        E 0 80 60 00
        E 120 90 24 60
        E 0 90 40 60
        E 0 90 4c 60
        E 0 90 58 60
        E 0 90 64 60
        E 120 80 24 00
        E 0 80 40 00
        E 0 80 4c 00
        E 0 80 58 00
        E 0 80 64 00
        E 120 90 18 60
        E 0 90 54 60
        E 0 90 60 60
        E 120 80 18 00
        E 0 80 54 00
        E 0 80 60 00
        E 120 90 1a 60
        E 0 90 24 60
        E 0 90 3d 60
        E 0 90 40 60
        E 0 90 49 60
        E 0 90 4c 60
        E 0 90 55 60
        E 0 90 58 60
        E 0 90 61 60
        E 0 90 64 60
        E 120 80 1a 00
        E 0 80 24 00
        E 0 80 3d 00
        E 0 80 40 00
        E 0 80 49 00
        E 0 80 4c 00
        E 0 80 55 00
        E 0 80 58 00
        E 0 80 61 00
        E 0 80 64 00
        E 360 90 18 60
        E 0 90 24 60
        E 0 90 40 60
        E 0 90 48 60
        E 0 90 4c 60
        E 0 90 54 60
        E 0 90 58 60
        E 0 90 60 60
        E 0 90 64 60
        E 120 80 18 00
        E 0 80 24 00
        E 0 80 40 00
        E 0 80 48 00
        E 0 80 4c 00
        E 0 80 54 00
        E 0 80 58 00
        E 0 80 60 00
        E 0 80 64 00
        E 120 90 18 60
        E 0 90 54 60
        E 0 90 60 60
        E 120 80 18 00
        E 0 80 54 00
        E 0 80 60 00
        E 120 90 1a 60
        E 0 90 24 60
        E 0 90 3d 60
        E 0 90 40 60
        E 0 90 49 60
        E 0 90 4c 60
        E 0 90 55 60
        E 0 90 58 60
        E 0 90 61 60
        E 0 90 64 60
        E 120 80 1a 00
        E 0 80 24 00
        E 0 80 3d 00
        E 0 80 40 00
        E 0 80 49 00
        E 0 80 4c 00
        E 0 80 55 00
        E 0 80 58 00
        E 0 80 61 00
        E 0 80 64 00
        E 120 90 18 60
        E 0 90 54 60
        E 0 90 60 60
        E 120 80 18 00
        E 0 80 54 00
        E 0 80 60 00
        E 120 90 18 60
        E 0 90 1a 60
        E 0 90 24 60
        E 0 90 3d 60
        E 0 90 40 60
        E 0 90 49 60
        E 0 90 4c 60
        E 0 90 54 60
        E 0 90 55 60
        E 0 90 58 60
        E 0 90 60 60
        E 0 90 61 60
        E 0 90 64 60
        E 120 80 18 00
        E 0 80 1a 00
        E 0 80 24 00
        E 0 80 3d 00
        E 0 80 40 00
        E 0 80 49 00
        E 0 80 4c 00
        E 0 80 54 00
        E 0 80 55 00
        E 0 80 58 00
        E 0 80 60 00
        E 0 80 61 00
        E 0 80 64 00
        E 0 90 1a 60
        E 0 90 61 60
        E 120 80 1a 00
        E 0 80 61 00
        E 0 90 1b 60
        E 0 90 55 60
        E 0 90 61 60
        E 120 80 1b 00
        E 0 80 55 00
        E 0 80 61 00
        E 0 90 1a 60
        E 0 90 61 60
        E 120 80 1a 00
        E 0 80 61 00
        E 0 90 18 60
        E 0 90 1b 60
        E 0 90 3d 60
        E 0 90 49 60
        E 0 90 54 60
        E 0 90 55 60
        E 0 90 60 60
        E 0 90 61 60
        E 120 80 18 00
        E 0 80 1b 00
        E 0 80 3d 00
        E 0 80 49 00
        E 0 80 54 00
        E 0 80 55 00
        E 0 80 60 00
        E 0 80 61 00
        E 0 90 1a 60
        E 0 90 61 60
        E 120 80 1a 00
        E 0 80 61 00
        E 0 90 1b 60
        E 0 90 55 60
        E 0 90 61 60
        E 120 80 1b 00
        E 0 80 55 00
        E 0 80 61 00
        E 0 90 1a 60
        E 0 90 61 60
        E 120 80 1a 00
        E 0 80 61 00
        E 0 90 18 60
        E 0 90 24 60
        E 0 90 40 60
        E 0 90 48 60
        E 0 90 4c 60
        E 0 90 54 60
        E 0 90 58 60
        E 0 90 60 60
        E 0 90 64 60
        E 120 80 74 00
        E 0 80 18 00
        E 0 80 24 00
        E 0 80 40 00
        E 0 80 48 00
        E 0 80 4c 00
        E 0 80 54 00
        E 0 80 58 00
        E 0 80 60 00
        E 0 80 64 00
        <X 120 0
          /wFbaWRsZV0=
        >
        <X 59160 0
          /wFbaW50ZW5zZV0=
        >
        E 120 90 1a 60
        E 0 90 3d 60
        E 0 90 49 60
        E 0 90 55 60
        E 0 90 61 60
        E 0 90 78 60
        E 0 90 79 60
        E 0 90 7a 60
        E 0 90 7b 60
        E 0 90 7c 60
        E 120 80 1a 00
        E 0 80 3d 00
        E 0 80 49 00
        E 0 80 55 00
        E 0 80 61 00
        E 0 90 18 60
        E 0 90 60 60
        E 120 80 18 00
        E 0 80 60 00
        E 120 90 18 60
        E 0 90 60 60
        E 120 80 18 00
        E 0 80 60 00
        E 0 90 1a 60
        E 0 90 3d 60
        E 0 90 49 60
        E 0 90 55 60
        E 0 90 61 60
        E 120 80 1a 00
        E 0 80 3d 00
        E 0 80 49 00
        E 0 80 55 00
        E 0 80 61 00
        E 0 90 18 60
        E 0 90 60 60
        E 120 80 18 00
        E 0 80 60 00
        E 120 90 18 60
        E 0 90 60 60
        E 120 80 18 00
        E 0 80 60 00
        E 0 90 1a 60
        E 0 90 33 60
        E 0 90 3d 60
        E 0 90 3f 60
        E 0 90 49 60
        E 0 90 4b 60
        E 0 90 55 60
        E 0 90 57 60
        E 0 90 61 60
        E 0 90 63 60
        E 0 90 6f 60
        E 120 80 1a 00
        E 0 80 33 00
        E 0 80 3d 00
        E 0 80 3f 00
        E 0 80 49 00
        E 0 80 4b 00
        E 0 80 55 00
        E 0 80 57 00
        E 0 80 61 00
        E 0 80 63 00
        E 0 80 6f 00
        E 120 90 18 60
        E 0 90 54 60
        E 0 90 60 60
        E 120 80 18 00
        E 0 80 54 00
        E 0 80 60 00
        E 120 90 1b 60
        E 0 90 3d 60
        E 0 90 49 60
        E 0 90 55 60
        E 0 90 61 60
        E 120 80 1b 00
        E 0 80 3d 00
        E 0 80 49 00
        E 0 80 55 00
        E 0 80 61 00
        E 0 90 1a 60
        E 0 90 61 60
        E 120 80 1a 00
        E 0 80 61 00
        E 0 90 1b 60
        E 0 90 55 60
        E 0 90 61 60
        E 120 80 1b 00
        E 0 80 55 00
        E 0 80 61 00
        E 0 90 1a 60
        E 0 90 61 60
        E 120 80 78 00
        E 0 80 79 00
        E 0 80 7a 00
        E 0 80 7b 00
        E 0 80 7c 00
        E 0 80 1a 00
        E 0 80 61 00
        E 0 90 18 60
        E 0 90 19 60
        E 0 90 24 60
        E 0 90 40 60
        E 0 90 48 60
        E 0 90 4c 60
        E 0 90 54 60
        E 0 90 58 60
        E 0 90 60 60
        E 0 90 64 60
        E 0 90 74 60
        E 120 80 18 00
        E 0 80 24 00
        E 0 80 40 00
        E 0 80 48 00
        E 0 80 4c 00
        E 0 80 54 00
        E 0 80 58 00
        E 0 80 60 00
        E 0 80 64 00
        E 360 90 1a 60
        E 0 90 1f 60
        E 0 90 3d 60
        E 0 90 3e 60
        E 0 90 49 60
        E 0 90 4a 60
        E 0 90 55 60
        E 0 90 56 60
        E 0 90 61 60
        E 0 90 62 60
        E 120 80 1a 00
        E 0 80 1f 00
        E 0 80 3d 00
        E 0 80 3e 00
        E 0 80 49 00
        E 0 80 4a 00
        E 0 80 55 00
        E 0 80 56 00
        E 0 80 61 00
        E 0 80 62 00
        E 360 90 18 60
        E 0 90 1f 60
        E 0 90 3e 60
        E 0 90 48 60
        E 0 90 4a 60
        E 0 90 54 60
        E 0 90 56 60
        E 0 90 60 60
        E 0 90 62 60
        E 120 80 18 00
        E 0 80 1f 00
        E 0 80 3e 00
        E 0 80 48 00
        E 0 80 4a 00
        E 0 80 54 00
        E 0 80 56 00
        E 0 80 60 00
        E 0 80 62 00
        E 120 90 18 60
        E 0 90 54 60
        E 0 90 60 60
        E 120 80 18 00
        E 0 80 54 00
        E 0 80 60 00
        E 120 90 1a 60
        E 0 90 1f 60
        E 0 90 3d 60
        E 0 90 3e 60
        E 0 90 49 60
        E 0 90 4a 60
        E 0 90 55 60
        E 0 90 56 60
        E 0 90 61 60
        E 0 90 62 60
        E 120 80 1a 00
        E 0 80 1f 00
        E 0 80 3d 00
        E 0 80 3e 00
        E 0 80 49 00
        E 0 80 4a 00
        E 0 80 55 00
        E 0 80 56 00
        E 0 80 61 00
        E 0 80 62 00
        E 360 90 18 60
        E 0 90 24 60
        E 0 90 40 60
        E 0 90 48 60
        E 0 90 4c 60
        E 0 90 54 60
        E 0 90 58 60
        E 0 90 60 60
        E 0 90 64 60
        E 120 80 74 00
        E 0 80 18 00
        E 0 80 24 00
        E 0 80 40 00
        E 0 80 48 00
        E 0 80 4c 00
        E 0 80 54 00
        E 0 80 58 00
        E 0 80 60 00
        E 0 80 64 00
        E 360 90 1a 60
        E 0 90 1f 60
        E 0 90 3d 60
        E 0 90 3e 60
        E 0 90 49 60
        E 0 90 4a 60
        E 0 90 55 60
        E 0 90 56 60
        E 0 90 61 60
        E 0 90 62 60
        E 120 80 1a 00
        E 0 80 1f 00
        E 0 80 3d 00
        E 0 80 3e 00
        E 0 80 49 00
        E 0 80 4a 00
        E 0 80 55 00
        E 0 80 56 00
        E 0 80 61 00
        E 0 80 62 00
        E 120 90 18 60
        E 0 90 54 60
        E 0 90 60 60
        E 120 80 18 00
        E 0 80 54 00
        E 0 80 60 00
        E 120 90 1f 60
        E 0 90 3e 60
        E 0 90 4a 60
        E 0 90 56 60
        E 0 90 62 60
        E 120 80 1f 00
        E 0 80 3e 00
        E 0 80 4a 00
        E 0 80 56 00
        E 0 80 62 00
        E 120 90 18 60
        E 0 90 54 60
        E 0 90 60 60
        E 120 80 18 00
        E 0 80 54 00
        E 0 80 60 00
        E 120 90 1a 60
        E 0 90 1f 60
        E 0 90 3d 60
        E 0 90 3e 60
        E 0 90 49 60
        E 0 90 4a 60
        E 0 90 55 60
        E 0 90 56 60
        E 0 90 61 60
        E 0 90 62 60
        E 120 80 1a 00
        E 0 80 1f 00
        E 0 80 3d 00
        E 0 80 3e 00
        E 0 80 49 00
        E 0 80 4a 00
        E 0 80 55 00
        E 0 80 56 00
        E 0 80 61 00
        E 0 80 62 00
        E 120 90 18 60
        E 0 90 54 60
        E 0 90 60 60
        E 120 80 18 00
        E 0 80 54 00
        E 0 80 60 00
        E 120 90 1f 60
        E 0 90 3e 60
        E 0 90 4a 60
        E 0 90 56 60
        E 0 90 62 60
        E 120 80 1f 00
        E 0 80 3e 00
        E 0 80 4a 00
        E 0 80 56 00
        E 0 80 62 00
        E 120 90 18 60
        E 0 90 54 60
        E 0 90 60 60
        E 120 80 18 00
        E 0 80 54 00
        E 0 80 60 00
        E 120 90 1a 60
        E 0 90 1f 60
        E 0 90 3d 60
        E 0 90 3e 60
        E 0 90 49 60
        E 0 90 4a 60
        E 0 90 55 60
        E 0 90 56 60
        E 0 90 61 60
        E 0 90 62 60
        E 120 80 1a 00
        E 0 80 1f 00
        E 0 80 3d 00
        E 0 80 3e 00
        E 0 80 49 00
        E 0 80 4a 00
        E 0 80 55 00
        E 0 80 56 00
        E 0 80 61 00
        E 0 80 62 00
        E 120 90 18 60
        E 0 90 54 60
        E 0 90 60 60
        E 120 80 18 00
        E 0 80 54 00
        E 0 80 60 00
        E 120 90 18 60
        E 0 90 1f 60
        E 0 90 3e 60
        E 0 90 48 60
        E 0 90 4a 60
        E 0 90 54 60
        E 0 90 56 60
        E 0 90 60 60
        E 0 90 62 60
        E 120 80 18 00
        E 0 80 1f 00
        E 0 80 3e 00
        E 0 80 48 00
        E 0 80 4a 00
        E 0 80 54 00
        E 0 80 56 00
        E 0 80 60 00
        E 0 80 62 00
        E 120 90 18 60
        E 0 90 54 60
        E 0 90 60 60
        E 120 80 18 00
        E 0 80 54 00
        E 0 80 60 00
        E 120 90 1a 60
        E 0 90 1f 60
        E 0 90 3d 60
        E 0 90 3e 60
        E 0 90 49 60
        E 0 90 4a 60
        E 0 90 55 60
        E 0 90 56 60
        E 0 90 61 60
        E 0 90 62 60
        E 120 80 1a 00
        E 0 80 1f 00
        E 0 80 3d 00
        E 0 80 3e 00
        E 0 80 49 00
        E 0 80 4a 00
        E 0 80 55 00
        E 0 80 56 00
        E 0 80 61 00
        E 0 80 62 00
        E 360 90 18 60
        E 0 90 1f 60
        E 0 90 3e 60
        E 0 90 48 60
        E 0 90 4a 60
        E 0 90 54 60
        E 0 90 56 60
        E 0 90 60 60
        E 0 90 62 60
        E 120 80 18 00
        E 0 80 1f 00
        E 0 80 3e 00
        E 0 80 48 00
        E 0 80 4a 00
        E 0 80 54 00
        E 0 80 56 00
        E 0 80 60 00
        E 0 80 62 00
        E 120 90 18 60
        E 0 90 54 60
        E 0 90 60 60
        E 120 80 18 00
        E 0 80 54 00
        E 0 80 60 00
        E 120 90 1a 60
        E 0 90 1f 60
        E 0 90 3d 60
        E 0 90 3e 60
        E 0 90 49 60
        E 0 90 4a 60
        E 0 90 55 60
        E 0 90 56 60
        E 0 90 61 60
        E 0 90 62 60
        E 120 80 1a 00
        E 0 80 1f 00
        E 0 80 3d 00
        E 0 80 3e 00
        E 0 80 49 00
        E 0 80 4a 00
        E 0 80 55 00
        E 0 80 56 00
        E 0 80 61 00
        E 0 80 62 00
        E 120 90 18 60
        E 0 90 54 60
        E 0 90 60 60
        E 120 80 18 00
        E 0 80 54 00
        E 0 80 60 00
        E 120 90 1f 60
        E 0 90 3e 60
        E 0 90 4a 60
        E 0 90 56 60
        E 0 90 62 60
        E 120 80 1f 00
        E 0 80 3e 00
        E 0 80 4a 00
        E 0 80 56 00
        E 0 80 62 00
        E 120 90 18 60
        E 0 90 54 60
        E 0 90 60 60
        E 120 80 18 00
        E 0 80 54 00
        E 0 80 60 00
        E 120 90 1a 60
        E 0 90 1f 60
        E 0 90 3d 60
        E 0 90 3e 60
        E 0 90 49 60
        E 0 90 4a 60
        E 0 90 55 60
        E 0 90 56 60
        E 0 90 61 60
        E 0 90 62 60
        E 120 80 1a 00
        E 0 80 1f 00
        E 0 80 3d 00
        E 0 80 3e 00
        E 0 80 49 00
        E 0 80 4a 00
        E 0 80 55 00
        E 0 80 56 00
        E 0 80 61 00
        E 0 80 62 00
        E 360 90 18 60
        E 0 90 1f 60
        E 0 90 3e 60
        E 0 90 48 60
        E 0 90 4a 60
        E 0 90 54 60
        E 0 90 56 60
        E 0 90 60 60
        E 0 90 62 60
        E 120 80 18 00
        E 0 80 1f 00
        E 0 80 3e 00
        E 0 80 48 00
        E 0 80 4a 00
        E 0 80 54 00
        E 0 80 56 00
        E 0 80 60 00
        E 0 80 62 00
        E 360 90 1a 60
        E 0 90 1f 60
        E 0 90 3d 60
        E 0 90 3e 60
        E 0 90 49 60
        E 0 90 4a 60
        E 0 90 55 60
        E 0 90 56 60
        E 0 90 61 60
        E 0 90 62 60
        E 120 80 1a 00
        E 0 80 1f 00
        E 0 80 3d 00
        E 0 80 3e 00
        E 0 80 49 00
        E 0 80 4a 00
        E 0 80 55 00
        E 0 80 56 00
        E 0 80 61 00
        E 0 80 62 00
        E 360 90 18 60
        E 0 90 1f 60
        E 0 90 3e 60
        E 0 90 48 60
        E 0 90 4a 60
        E 0 90 54 60
        E 0 90 56 60
        E 0 90 60 60
        E 0 90 62 60
        E 120 80 18 00
        E 0 80 1f 00
        E 0 80 3e 00
        E 0 80 48 00
        E 0 80 4a 00
        E 0 80 54 00
        E 0 80 56 00
        E 0 80 60 00
        E 0 80 62 00
        E 120 90 18 60
        E 0 90 54 60
        E 0 90 60 60
        E 120 80 18 00
        E 0 80 54 00
        E 0 80 60 00
        E 120 90 1a 60
        E 0 90 1f 60
        E 0 90 3d 60
        E 0 90 3e 60
        E 0 90 49 60
        E 0 90 4a 60
        E 0 90 55 60
        E 0 90 56 60
        E 0 90 61 60
        E 0 90 62 60
        E 120 80 1a 00
        E 0 80 1f 00
        E 0 80 3d 00
        E 0 80 3e 00
        E 0 80 49 00
        E 0 80 4a 00
        E 0 80 55 00
        E 0 80 56 00
        E 0 80 61 00
        E 0 80 62 00
        E 360 90 18 60
        E 0 90 1f 60
        E 0 90 3e 60
        E 0 90 48 60
        E 0 90 4a 60
        E 0 90 54 60
        E 0 90 56 60
        E 0 90 60 60
        E 0 90 62 60
        E 120 80 18 00
        E 0 80 1f 00
        E 0 80 3e 00
        E 0 80 48 00
        E 0 80 4a 00
        E 0 80 54 00
        E 0 80 56 00
        E 0 80 60 00
        E 0 80 62 00
        E 360 90 1a 60
        E 0 90 1f 60
        E 0 90 3d 60
        E 0 90 3e 60
        E 0 90 49 60
        E 0 90 4a 60
        E 0 90 55 60
        E 0 90 56 60
        E 0 90 61 60
        E 0 90 62 60
        E 120 80 1a 00
        E 0 80 1f 00
        E 0 80 3d 00
        E 0 80 3e 00
        E 0 80 49 00
        E 0 80 4a 00
        E 0 80 55 00
        E 0 80 56 00
        E 0 80 61 00
        E 0 80 62 00
        E 120 90 18 60
        E 0 90 54 60
        E 0 90 60 60
        E 120 80 18 00
        E 0 80 54 00
        E 0 80 60 00
        E 120 90 1f 60
        E 0 90 3e 60
        E 0 90 4a 60
        E 0 90 56 60
        E 0 90 62 60
        E 120 80 1f 00
        E 0 80 3e 00
        E 0 80 4a 00
        E 0 80 56 00
        E 0 80 62 00
        E 120 90 18 60
        E 0 90 54 60
        E 0 90 60 60
        E 120 80 18 00
        E 0 80 54 00
        E 0 80 60 00
        E 120 90 1a 60
        E 0 90 1f 60
        E 0 90 3d 60
        E 0 90 3e 60
        E 0 90 49 60
        E 0 90 4a 60
        E 0 90 55 60
        E 0 90 56 60
        E 0 90 61 60
        E 0 90 62 60
        E 120 80 1a 00
        E 0 80 1f 00
        E 0 80 3d 00
        E 0 80 3e 00
        E 0 80 49 00
        E 0 80 4a 00
        E 0 80 55 00
        E 0 80 56 00
        E 0 80 61 00
        E 0 80 62 00
        E 120 90 18 60
        E 0 90 54 60
        E 0 90 60 60
        E 120 80 18 00
        E 0 80 54 00
        E 0 80 60 00
        E 120 90 1f 60
        E 0 90 3e 60
        E 0 90 4a 60
        E 0 90 56 60
        E 0 90 62 60
        E 120 80 1f 00
        E 0 80 3e 00
        E 0 80 4a 00
        E 0 80 56 00
        E 0 80 62 00
        E 120 90 18 60
        E 0 90 54 60
        E 0 90 60 60
        E 120 80 18 00
        E 0 80 54 00
        E 0 80 60 00
        E 120 90 1a 60
        E 0 90 1f 60
        E 0 90 3d 60
        E 0 90 3e 60
        E 0 90 49 60
        E 0 90 4a 60
        E 0 90 55 60
        E 0 90 56 60
        E 0 90 61 60
        E 0 90 62 60
        E 120 80 1a 00
        E 0 80 1f 00
        E 0 80 3d 00
        E 0 80 3e 00
        E 0 80 49 00
        E 0 80 4a 00
        E 0 80 55 00
        E 0 80 56 00
        E 0 80 61 00
        E 0 80 62 00
        E 120 90 18 60
        E 0 90 54 60
        E 0 90 60 60
        E 120 80 18 00
        E 0 80 54 00
        E 0 80 60 00
        E 120 90 18 60
        E 0 90 1f 60
        E 0 90 3e 60
        E 0 90 48 60
        E 0 90 4a 60
        E 0 90 54 60
        E 0 90 56 60
        E 0 90 60 60
        E 0 90 62 60
        E 120 80 18 00
        E 0 80 1f 00
        E 0 80 3e 00
        E 0 80 48 00
        E 0 80 4a 00
        E 0 80 54 00
        E 0 80 56 00
        E 0 80 60 00
        E 0 80 62 00
        E 120 90 18 60
        E 0 90 54 60
        E 0 90 60 60
        E 120 80 18 00
        E 0 80 54 00
        E 0 80 60 00
        E 120 90 1a 60
        E 0 90 1f 60
        E 0 90 3d 60
        E 0 90 3e 60
        E 0 90 49 60
        E 0 90 4a 60
        E 0 90 55 60
        E 0 90 56 60
        E 0 90 61 60
        E 0 90 62 60
        E 120 80 1a 00
        E 0 80 1f 00
        E 0 80 3d 00
        E 0 80 3e 00
        E 0 80 49 00
        E 0 80 4a 00
        E 0 80 55 00
        E 0 80 56 00
        E 0 80 61 00
        E 0 80 62 00
        E 360 90 18 60
        E 0 90 1f 60
        E 0 90 3e 60
        E 0 90 48 60
        E 0 90 4a 60
        E 0 90 54 60
        E 0 90 56 60
        E 0 90 60 60
        E 0 90 62 60
        E 0 90 78 60
        E 0 90 79 60
        E 0 90 7a 60
        E 0 90 7b 60
        E 0 90 7c 60
        E 120 80 18 00
        E 0 80 1f 00
        E 0 80 3e 00
        E 0 80 48 00
        E 0 80 4a 00
        E 0 80 54 00
        E 0 80 56 00
        E 0 80 60 00
        E 0 80 62 00
        E 120 90 18 60
        E 0 90 54 60
        E 0 90 60 60
        E 120 80 18 00
        E 0 80 54 00
        E 0 80 60 00
        E 120 90 1a 60
        E 0 90 1f 60
        E 0 90 3d 60
        E 0 90 3e 60
        E 0 90 49 60
        E 0 90 4a 60
        E 0 90 55 60
        E 0 90 56 60
        E 0 90 61 60
        E 0 90 62 60
        E 120 80 1a 00
        E 0 80 1f 00
        E 0 80 3d 00
        E 0 80 3e 00
        E 0 80 49 00
        E 0 80 4a 00
        E 0 80 55 00
        E 0 80 56 00
        E 0 80 61 00
        E 0 80 62 00
        E 120 90 18 60
        E 0 90 54 60
        E 0 90 60 60
        E 120 80 18 00
        E 0 80 54 00
        E 0 80 60 00
        E 120 90 1a 60
        E 0 90 1f 60
        E 0 90 3d 60
        E 0 90 3e 60
        E 0 90 49 60
        E 0 90 4a 60
        E 0 90 55 60
        E 0 90 56 60
        E 0 90 61 60
        E 0 90 62 60
        E 120 80 1a 00
        E 0 80 1f 00
        E 0 80 3d 00
        E 0 80 3e 00
        E 0 80 49 00
        E 0 80 4a 00
        E 0 80 55 00
        E 0 80 56 00
        E 0 80 61 00
        E 0 80 62 00
        E 120 90 18 60
        E 0 90 54 60
        E 0 90 60 60
        E 120 80 18 00
        E 0 80 54 00
        E 0 80 60 00
        E 120 90 1a 60
        E 0 90 1f 60
        E 0 90 3d 60
        E 0 90 3e 60
        E 0 90 49 60
        E 0 90 4a 60
        E 0 90 55 60
        E 0 90 56 60
        E 0 90 61 60
        E 0 90 62 60
        E 120 80 1a 00
        E 0 80 1f 00
        E 0 80 3d 00
        E 0 80 3e 00
        E 0 80 49 00
        E 0 80 4a 00
        E 0 80 55 00
        E 0 80 56 00
        E 0 80 61 00
        E 0 80 62 00
        E 120 90 1a 60
        E 0 90 55 60
        E 0 90 61 60
        E 120 80 1a 00
        E 0 80 55 00
        E 0 80 61 00
        E 120 80 78 00
        E 0 80 79 00
        E 0 80 7a 00
        E 0 80 7b 00
        E 0 80 7c 00
        E 0 90 18 60
        E 0 90 1f 60
        E 0 90 3e 60
        E 0 90 48 60
        E 0 90 4a 60
        E 0 90 54 60
        E 0 90 56 60
        E 0 90 60 60
        E 0 90 62 60
        E 0 90 74 60
        E 120 80 18 00
        E 0 80 1f 00
        E 0 80 3e 00
        E 0 80 48 00
        E 0 80 4a 00
        E 0 80 54 00
        E 0 80 56 00
        E 0 80 60 00
        E 0 80 62 00
        E 360 90 1a 60
        E 0 90 1f 60
        E 0 90 3d 60
        E 0 90 3e 60
        E 0 90 49 60
        E 0 90 4a 60
        E 0 90 55 60
        E 0 90 56 60
        E 0 90 61 60
        E 0 90 62 60
        E 120 80 1a 00
        E 0 80 1f 00
        E 0 80 3d 00
        E 0 80 3e 00
        E 0 80 49 00
        E 0 80 4a 00
        E 0 80 55 00
        E 0 80 56 00
        E 0 80 61 00
        E 0 80 62 00
        E 360 90 18 60
        E 0 90 1f 60
        E 0 90 3e 60
        E 0 90 48 60
        E 0 90 4a 60
        E 0 90 54 60
        E 0 90 56 60
        E 0 90 60 60
        E 0 90 62 60
        E 120 80 18 00
        E 0 80 1f 00
        E 0 80 3e 00
        E 0 80 48 00
        E 0 80 4a 00
        E 0 80 54 00
        E 0 80 56 00
        E 0 80 60 00
        E 0 80 62 00
        E 120 90 18 60
        E 0 90 54 60
        E 0 90 60 60
        E 120 80 18 00
        E 0 80 54 00
        E 0 80 60 00
        E 120 90 1a 60
        E 0 90 1f 60
        E 0 90 3d 60
        E 0 90 3e 60
        E 0 90 49 60
        E 0 90 4a 60
        E 0 90 55 60
        E 0 90 56 60
        E 0 90 61 60
        E 0 90 62 60
        E 120 80 1a 00
        E 0 80 1f 00
        E 0 80 3d 00
        E 0 80 3e 00
        E 0 80 49 00
        E 0 80 4a 00
        E 0 80 55 00
        E 0 80 56 00
        E 0 80 61 00
        E 0 80 62 00
        E 360 90 18 60
        E 0 90 1f 60
        E 0 90 3e 60
        E 0 90 48 60
        E 0 90 4a 60
        E 0 90 54 60
        E 0 90 56 60
        E 0 90 60 60
        E 0 90 62 60
        E 120 80 18 00
        E 0 80 1f 00
        E 0 80 3e 00
        E 0 80 48 00
        E 0 80 4a 00
        E 0 80 54 00
        E 0 80 56 00
        E 0 80 60 00
        E 0 80 62 00
        E 360 90 1a 60
        E 0 90 1f 60
        E 0 90 3d 60
        E 0 90 3e 60
        E 0 90 49 60
        E 0 90 4a 60
        E 0 90 55 60
        E 0 90 56 60
        E 0 90 61 60
        E 0 90 62 60
        E 120 80 1a 00
        E 0 80 1f 00
        E 0 80 3d 00
        E 0 80 3e 00
        E 0 80 49 00
        E 0 80 4a 00
        E 0 80 55 00
        E 0 80 56 00
        E 0 80 61 00
        E 0 80 62 00
        E 120 90 18 60
        E 0 90 54 60
        E 0 90 60 60
        E 120 80 18 00
        E 0 80 54 00
        E 0 80 60 00
        E 120 90 1f 60
        E 0 90 3e 60
        E 0 90 4a 60
        E 0 90 56 60
        E 0 90 62 60
        E 120 80 1f 00
        E 0 80 3e 00
        E 0 80 4a 00
        E 0 80 56 00
        E 0 80 62 00
        E 120 90 18 60
        E 0 90 54 60
        E 0 90 60 60
        E 120 80 18 00
        E 0 80 54 00
        E 0 80 60 00
        E 120 90 1a 60
        E 0 90 1f 60
        E 0 90 3d 60
        E 0 90 3e 60
        E 0 90 49 60
        E 0 90 4a 60
        E 0 90 55 60
        E 0 90 56 60
        E 0 90 61 60
        E 0 90 62 60
        E 120 80 1a 00
        E 0 80 1f 00
        E 0 80 3d 00
        E 0 80 3e 00
        E 0 80 49 00
        E 0 80 4a 00
        E 0 80 55 00
        E 0 80 56 00
        E 0 80 61 00
        E 0 80 62 00
        E 120 90 18 60
        E 0 90 54 60
        E 0 90 60 60
        E 120 80 18 00
        E 0 80 54 00
        E 0 80 60 00
        E 120 80 74 00
        E 0 90 1f 60
        E 0 90 3e 60
        E 0 90 4a 60
        E 0 90 56 60
        E 0 90 62 60
        E 120 80 1f 00
        E 0 80 3e 00
        E 0 80 4a 00
        E 0 80 56 00
        E 0 80 62 00
        E 120 90 18 60
        E 0 90 54 60
        E 0 90 60 60
        E 120 80 18 00
        E 0 80 54 00
        E 0 80 60 00
        E 120 90 1a 60
        E 0 90 1f 60
        E 0 90 3d 60
        E 0 90 3e 60
        E 0 90 49 60
        E 0 90 4a 60
        E 0 90 55 60
        E 0 90 56 60
        E 0 90 61 60
        E 0 90 62 60
        E 120 80 1a 00
        E 0 80 1f 00
        E 0 80 3d 00
        E 0 80 3e 00
        E 0 80 49 00
        E 0 80 4a 00
        E 0 80 55 00
        E 0 80 56 00
        E 0 80 61 00
        E 0 80 62 00
        E 120 90 18 60
        E 0 90 54 60
        E 0 90 60 60
        E 120 80 18 00
        E 0 80 54 00
        E 0 80 60 00
        E 120 90 18 60
        E 0 90 1f 60
        E 0 90 3e 60
        E 0 90 48 60
        E 0 90 4a 60
        E 0 90 54 60
        E 0 90 56 60
        E 0 90 60 60
        E 0 90 62 60
        E 120 80 18 00
        E 0 80 1f 00
        E 0 80 3e 00
        E 0 80 48 00
        E 0 80 4a 00
        E 0 80 54 00
        E 0 80 56 00
        E 0 80 60 00
        E 0 80 62 00
        E 120 90 18 60
        E 0 90 54 60
        E 0 90 60 60
        E 120 80 18 00
        E 0 80 54 00
        E 0 80 60 00
        E 120 90 1a 60
        E 0 90 1f 60
        E 0 90 3d 60
        E 0 90 3e 60
        E 0 90 49 60
        E 0 90 4a 60
        E 0 90 55 60
        E 0 90 56 60
        E 0 90 61 60
        E 0 90 62 60
        E 120 80 1a 00
        E 0 80 1f 00
        E 0 80 3d 00
        E 0 80 3e 00
        E 0 80 49 00
        E 0 80 4a 00
        E 0 80 55 00
        E 0 80 56 00
        E 0 80 61 00
        E 0 80 62 00
        E 360 90 18 60
        E 0 90 1f 60
        E 0 90 3e 60
        E 0 90 48 60
        E 0 90 4a 60
        E 0 90 54 60
        E 0 90 56 60
        E 0 90 60 60
        E 0 90 62 60
        E 120 80 18 00
        E 0 80 1f 00
        E 0 80 3e 00
        E 0 80 48 00
        E 0 80 4a 00
        E 0 80 54 00
        E 0 80 56 00
        E 0 80 60 00
        E 0 80 62 00
        E 120 90 18 60
        E 0 90 54 60
        E 0 90 60 60
        E 120 80 18 00
        E 0 80 54 00
        E 0 80 60 00
        E 120 90 1a 60
        E 0 90 1f 60
        E 0 90 3d 60
        E 0 90 3e 60
        E 0 90 49 60
        E 0 90 4a 60
        E 0 90 55 60
        E 0 90 56 60
        E 0 90 61 60
        E 0 90 62 60
        E 120 80 1a 00
        E 0 80 1f 00
        E 0 80 3d 00
        E 0 80 3e 00
        E 0 80 49 00
        E 0 80 4a 00
        E 0 80 55 00
        E 0 80 56 00
        E 0 80 61 00
        E 0 80 62 00
        E 120 90 18 60
        E 0 90 54 60
        E 0 90 60 60
        E 120 80 18 00
        E 0 80 54 00
        E 0 80 60 00
        E 120 90 1f 60
        E 0 90 3e 60
        E 0 90 4a 60
        E 0 90 56 60
        E 0 90 62 60
        E 120 80 1f 00
        E 0 80 3e 00
        E 0 80 4a 00
        E 0 80 56 00
        E 0 80 62 00
        E 120 90 18 60
        E 0 90 54 60
        E 0 90 60 60
        E 120 80 18 00
        E 0 80 54 00
        E 0 80 60 00
        E 120 90 1a 60
        E 0 90 1f 60
        E 0 90 3d 60
        E 0 90 3e 60
        E 0 90 49 60
        E 0 90 4a 60
        E 0 90 55 60
        E 0 90 56 60
        E 0 90 61 60
        E 0 90 62 60
        E 120 80 1a 00
        E 0 80 1f 00
        E 0 80 3d 00
        E 0 80 3e 00
        E 0 80 49 00
        E 0 80 4a 00
        E 0 80 55 00
        E 0 80 56 00
        E 0 80 61 00
        E 0 80 62 00
        E 120 90 1b 60
        E 0 90 55 60
        E 0 90 61 60
        E 120 80 1b 00
        E 0 80 55 00
        E 0 80 61 00
        E 0 90 1a 60
        E 0 90 61 60
        E 120 80 1a 00
        E 0 80 61 00
        E 0 90 18 60
        E 0 90 1f 60
        E 0 90 3e 60
        E 0 90 48 60
        E 0 90 4a 60
        E 0 90 54 60
        E 0 90 56 60
        E 0 90 60 60
        E 0 90 62 60
        E 120 80 18 00
        E 0 80 1f 00
        E 0 80 3e 00
        E 0 80 48 00
        E 0 80 4a 00
        E 0 80 54 00
        E 0 80 56 00
        E 0 80 60 00
        E 0 80 62 00
        E 120 90 18 60
        E 0 90 54 60
        E 0 90 60 60
        E 120 80 18 00
        E 0 80 54 00
        E 0 80 60 00
        E 120 90 1f 60
        E 0 90 3e 60
        E 0 90 4a 60
        E 0 90 56 60
        E 0 90 62 60
        E 120 80 1f 00
        E 0 80 3e 00
        E 0 80 4a 00
        E 0 80 56 00
        E 0 80 62 00
        E 120 90 18 60
        E 0 90 54 60
        E 0 90 60 60
        E 120 80 18 00
        E 0 80 54 00
        E 0 80 60 00
        E 120 90 1a 60
        E 0 90 1f 60
        E 0 90 3d 60
        E 0 90 3e 60
        E 0 90 49 60
        E 0 90 4a 60
        E 0 90 55 60
        E 0 90 56 60
        E 0 90 61 60
        E 0 90 62 60
        E 120 80 1a 00
        E 0 80 1f 00
        E 0 80 3d 00
        E 0 80 3e 00
        E 0 80 49 00
        E 0 80 4a 00
        E 0 80 55 00
        E 0 80 56 00
        E 0 80 61 00
        E 0 80 62 00
        E 120 90 18 60
        E 0 90 54 60
        E 0 90 60 60
        E 120 80 18 00
        E 0 80 54 00
        E 0 80 60 00
        E 120 90 18 60
        E 0 90 1f 60
        E 0 90 3e 60
        E 0 90 48 60
        E 0 90 4a 60
        E 0 90 54 60
        E 0 90 56 60
        E 0 90 60 60
        E 0 90 62 60
        E 120 80 18 00
        E 0 80 1f 00
        E 0 80 3e 00
        E 0 80 48 00
        E 0 80 4a 00
        E 0 80 54 00
        E 0 80 56 00
        E 0 80 60 00
        E 0 80 62 00
        E 120 90 18 60
        E 0 90 54 60
        E 0 90 60 60
        E 120 80 18 00
        E 0 80 54 00
        E 0 80 60 00
        E 120 90 1f 60
        E 0 90 3e 60
        E 0 90 4a 60
        E 0 90 56 60
        E 0 90 62 60
        E 120 80 1f 00
        E 0 80 3e 00
        E 0 80 4a 00
        E 0 80 56 00
        E 0 80 62 00
        E 120 90 18 60
        E 0 90 54 60
        E 0 90 60 60
        E 120 80 18 00
        E 0 80 54 00
        E 0 80 60 00
        E 120 90 1f 60
        E 0 90 3e 60
        E 0 90 4a 60
        E 0 90 56 60
        E 0 90 62 60
        E 120 80 1f 00
        E 0 80 3e 00
        E 0 80 4a 00
        E 0 80 56 00
        E 0 80 62 00
        E 120 90 18 60
        E 0 90 54 60
        E 0 90 60 60
        E 120 80 18 00
        E 0 80 54 00
        E 0 80 60 00
        E 120 90 1a 60
        E 0 90 1f 60
        E 0 90 3d 60
        E 0 90 3e 60
        E 0 90 49 60
        E 0 90 4a 60
        E 0 90 55 60
        E 0 90 56 60
        E 0 90 61 60
        E 0 90 62 60
        E 120 80 1a 00
        E 0 80 1f 00
        E 0 80 3d 00
        E 0 80 3e 00
        E 0 80 49 00
        E 0 80 4a 00
        E 0 80 55 00
        E 0 80 56 00
        E 0 80 61 00
        E 0 80 62 00
        E 120 90 18 60
        E 0 90 54 60
        E 0 90 60 60
        E 120 80 18 00
        E 0 80 54 00
        E 0 80 60 00
        E 120 90 1f 60
        E 0 90 3e 60
        E 0 90 4a 60
        E 0 90 56 60
        E 0 90 62 60
        E 120 80 1f 00
        E 0 80 3e 00
        E 0 80 4a 00
        E 0 80 56 00
        E 0 80 62 00
        E 120 90 18 60
        E 0 90 54 60
        E 0 90 60 60
        E 120 80 18 00
        E 0 80 54 00
        E 0 80 60 00
        E 120 90 18 60
        E 0 90 1f 60
        E 0 90 3e 60
        E 0 90 48 60
        E 0 90 4a 60
        E 0 90 54 60
        E 0 90 56 60
        E 0 90 60 60
        E 0 90 62 60
        E 120 80 18 00
        E 0 80 1f 00
        E 0 80 3e 00
        E 0 80 48 00
        E 0 80 4a 00
        E 0 80 54 00
        E 0 80 56 00
        E 0 80 60 00
        E 0 80 62 00
        E 120 90 18 60
        E 0 90 54 60
        E 0 90 60 60
        E 120 80 18 00
        E 0 80 54 00
        E 0 80 60 00
        E 120 90 1f 60
        E 0 90 3e 60
        E 0 90 4a 60
        E 0 90 56 60
        E 0 90 62 60
        E 120 80 1f 00
        E 0 80 3e 00
        E 0 80 4a 00
        E 0 80 56 00
        E 0 80 62 00
        E 120 90 18 60
        E 0 90 54 60
        E 0 90 60 60
        E 120 80 18 00
        E 0 80 54 00
        E 0 80 60 00
        E 120 90 1c 60
        E 0 90 1f 60
        E 0 90 3d 60
        E 0 90 3e 60
        E 0 90 49 60
        E 0 90 4a 60
        E 0 90 55 60
        E 0 90 56 60
        E 0 90 61 60
        E 0 90 62 60
        E 120 80 1c 00
        E 0 80 1f 00
        E 0 80 3d 00
        E 0 80 3e 00
        E 0 80 49 00
        E 0 80 4a 00
        E 0 80 55 00
        E 0 80 56 00
        E 0 80 61 00
        E 0 80 62 00
        E 0 90 1c 60
        E 0 90 61 60
        E 120 80 1c 00
        E 0 80 61 00
        E 0 90 18 60
        E 0 90 54 60
        E 0 90 60 60
        E 120 80 18 00
        E 0 80 54 00
        E 0 80 60 00
        E 120 90 1f 60
        E 0 90 3e 60
        E 0 90 4a 60
        E 0 90 56 60
        E 0 90 62 60
        E 120 80 1f 00
        E 0 80 3e 00
        E 0 80 4a 00
        E 0 80 56 00
        E 0 80 62 00
        E 120 90 18 60
        E 0 90 1a 60
        E 0 90 33 60
        E 0 90 54 60
        E 0 90 55 60
        E 0 90 57 60
        E 0 90 60 60
        E 0 90 61 60
        E 0 90 63 60
        E 0 90 6f 60
        E 120 80 18 00
        E 0 80 1a 00
        E 0 80 33 00
        E 0 80 54 00
        E 0 80 55 00
        E 0 80 57 00
        E 0 80 60 00
        E 0 80 61 00
        E 0 80 63 00
        E 0 80 6f 00
        E 120 80 19 00
        E 0 90 78 60
        E 0 90 79 60
        E 0 90 7a 60
        E 0 90 7b 60
        E 0 90 7c 60
        E 1440 90 18 60
        E 0 90 1a 60
        E 0 90 3d 60
        E 0 90 49 60
        E 0 90 54 60
        E 0 90 55 60
        E 0 90 60 60
        E 0 90 61 60
        E 120 80 18 00
        E 0 80 1a 00
        E 0 80 3d 00
        E 0 80 49 00
        E 0 80 54 00
        E 0 80 55 00
        E 0 80 60 00
        E 0 80 61 00
        E 120 90 18 60
        E 0 90 33 60
        E 0 90 54 60
        E 0 90 57 60
        E 0 90 60 60
        E 0 90 63 60
        E 0 90 6f 60
        E 120 80 18 00
        E 0 80 33 00
        E 0 80 54 00
        E 0 80 57 00
        E 0 80 60 00
        E 0 80 63 00
        E 0 80 6f 00
        E 120 80 78 00
        E 0 80 79 00
        E 0 80 7a 00
        E 0 80 7b 00
        E 0 80 7c 00
        E 0 90 18 60
        E 0 90 24 60
        E 0 90 40 60
        E 0 90 48 60
        E 0 90 4c 60
        E 0 90 54 60
        E 0 90 58 60
        E 0 90 60 60
        E 0 90 64 60
        E 120 80 18 00
        E 0 80 24 00
        E 0 80 40 00
        E 0 80 48 00
        E 0 80 4c 00
        E 0 80 54 00
        E 0 80 58 00
        E 0 80 60 00
        E 0 80 64 00
        E 120 90 18 60
        E 0 90 54 60
        E 0 90 60 60
        E 120 80 18 00
        E 0 80 54 00
        E 0 80 60 00
        E 120 90 1a 60
        E 0 90 24 60
        E 0 90 3d 60
        E 0 90 40 60
        E 0 90 49 60
        E 0 90 4c 60
        E 0 90 55 60
        E 0 90 58 60
        E 0 90 61 60
        E 0 90 64 60
        E 120 80 1a 00
        E 0 80 24 00
        E 0 80 3d 00
        E 0 80 40 00
        E 0 80 49 00
        E 0 80 4c 00
        E 0 80 55 00
        E 0 80 58 00
        E 0 80 61 00
        E 0 80 64 00
        E 120 90 18 60
        E 0 90 33 60
        E 0 90 54 60
        E 0 90 57 60
        E 0 90 60 60
        E 0 90 63 60
        E 0 90 6f 60
        E 120 80 18 00
        E 0 80 33 00
        E 0 80 54 00
        E 0 80 57 00
        E 0 80 60 00
        E 0 80 63 00
        E 0 80 6f 00
        E 120 90 18 60
        E 0 90 24 60
        E 0 90 40 60
        E 0 90 48 60
        E 0 90 4c 60
        E 0 90 54 60
        E 0 90 58 60
        E 0 90 60 60
        E 0 90 64 60
        E 120 80 18 00
        E 0 80 24 00
        E 0 80 40 00
        E 0 80 48 00
        E 0 80 4c 00
        E 0 80 54 00
        E 0 80 58 00
        E 0 80 60 00
        E 0 80 64 00
        E 120 90 18 60
        E 0 90 54 60
        E 0 90 60 60
        E 120 80 18 00
        E 0 80 54 00
        E 0 80 60 00
        E 120 90 1a 60
        E 0 90 24 60
        E 0 90 3d 60
        E 0 90 40 60
        E 0 90 49 60
        E 0 90 4c 60
        E 0 90 55 60
        E 0 90 58 60
        E 0 90 61 60
        E 0 90 64 60
        E 120 80 1a 00
        E 0 80 24 00
        E 0 80 3d 00
        E 0 80 40 00
        E 0 80 49 00
        E 0 80 4c 00
        E 0 80 55 00
        E 0 80 58 00
        E 0 80 61 00
        E 0 80 64 00
        E 120 90 18 60
        E 0 90 54 60
        E 0 90 60 60
        E 120 80 18 00
        E 0 80 54 00
        E 0 80 60 00
        E 120 90 24 60
        E 0 90 40 60
        E 0 90 4c 60
        E 0 90 58 60
        E 0 90 64 60
        E 120 80 24 00
        E 0 80 40 00
        E 0 80 4c 00
        E 0 80 58 00
        E 0 80 64 00
        E 120 90 18 60
        E 0 90 54 60
        E 0 90 60 60
        E 120 80 18 00
        E 0 80 54 00
        E 0 80 60 00
        E 120 90 1a 60
        E 0 90 24 60
        E 0 90 3d 60
        E 0 90 40 60
        E 0 90 49 60
        E 0 90 4c 60
        E 0 90 55 60
        E 0 90 58 60
        E 0 90 61 60
        E 0 90 64 60
        E 120 80 1a 00
        E 0 80 24 00
        E 0 80 3d 00
        E 0 80 40 00
        E 0 80 49 00
        E 0 80 4c 00
        E 0 80 55 00
        E 0 80 58 00
        E 0 80 61 00
        E 0 80 64 00
        E 360 90 18 60
        E 0 90 24 60
        E 0 90 40 60
        E 0 90 48 60
        E 0 90 4c 60
        E 0 90 54 60
        E 0 90 58 60
        E 0 90 60 60
        E 0 90 64 60
        E 120 80 18 00
        E 0 80 24 00
        E 0 80 40 00
        E 0 80 48 00
        E 0 80 4c 00
        E 0 80 54 00
        E 0 80 58 00
        E 0 80 60 00
        E 0 80 64 00
        E 120 90 18 60
        E 0 90 54 60
        E 0 90 60 60
        E 120 80 18 00
        E 0 80 54 00
        E 0 80 60 00
        E 120 90 1a 60
        E 0 90 24 60
        E 0 90 3d 60
        E 0 90 40 60
        E 0 90 49 60
        E 0 90 4c 60
        E 0 90 55 60
        E 0 90 58 60
        E 0 90 61 60
        E 0 90 64 60
        E 120 80 1a 00
        E 0 80 24 00
        E 0 80 3d 00
        E 0 80 40 00
        E 0 80 49 00
        E 0 80 4c 00
        E 0 80 55 00
        E 0 80 58 00
        E 0 80 61 00
        E 0 80 64 00
        E 120 90 18 60
        E 0 90 54 60
        E 0 90 60 60
        E 120 80 18 00
        E 0 80 54 00
        E 0 80 60 00
        E 120 90 24 60
        E 0 90 40 60
        E 0 90 4c 60
        E 0 90 58 60
        E 0 90 64 60
        E 120 80 24 00
        E 0 80 40 00
        E 0 80 4c 00
        E 0 80 58 00
        E 0 80 64 00
        E 120 90 18 60
        E 0 90 54 60
        E 0 90 60 60
        E 120 80 18 00
        E 0 80 54 00
        E 0 80 60 00
        E 120 90 1a 60
        E 0 90 24 60
        E 0 90 3d 60
        E 0 90 40 60
        E 0 90 49 60
        E 0 90 4c 60
        E 0 90 55 60
        E 0 90 58 60
        E 0 90 61 60
        E 0 90 64 60
        E 120 80 1a 00
        E 0 80 24 00
        E 0 80 3d 00
        E 0 80 40 00
        E 0 80 49 00
        E 0 80 4c 00
        E 0 80 55 00
        E 0 80 58 00
        E 0 80 61 00
        E 0 80 64 00
        E 120 90 18 60
        E 0 90 54 60
        E 0 90 60 60
        E 120 80 18 00
        E 0 80 54 00
        E 0 80 60 00
        E 120 90 18 60
        E 0 90 24 60
        E 0 90 40 60
        E 0 90 48 60
        E 0 90 4c 60
        E 0 90 54 60
        E 0 90 58 60
        E 0 90 60 60
        E 0 90 64 60
        E 120 80 18 00
        E 0 80 24 00
        E 0 80 40 00
        E 0 80 48 00
        E 0 80 4c 00
        E 0 80 54 00
        E 0 80 58 00
        E 0 80 60 00
        E 0 80 64 00
        E 120 90 18 60
        E 0 90 54 60
        E 0 90 60 60
        E 120 80 18 00
        E 0 80 54 00
        E 0 80 60 00
        E 120 90 1a 60
        E 0 90 24 60
        E 0 90 3d 60
        E 0 90 40 60
        E 0 90 49 60
        E 0 90 4c 60
        E 0 90 55 60
        E 0 90 58 60
        E 0 90 61 60
        E 0 90 64 60
        E 120 80 1a 00
        E 0 80 24 00
        E 0 80 3d 00
        E 0 80 40 00
        E 0 80 49 00
        E 0 80 4c 00
        E 0 80 55 00
        E 0 80 58 00
        E 0 80 61 00
        E 0 80 64 00
        E 120 90 18 60
        E 0 90 54 60
        E 0 90 60 60
        E 120 80 18 00
        E 0 80 54 00
        E 0 80 60 00
        E 120 90 18 60
        E 0 90 24 60
        E 0 90 40 60
        E 0 90 48 60
        E 0 90 4c 60
        E 0 90 54 60
        E 0 90 58 60
        E 0 90 60 60
        E 0 90 64 60
        E 120 80 18 00
        E 0 80 24 00
        E 0 80 40 00
        E 0 80 48 00
        E 0 80 4c 00
        E 0 80 54 00
        E 0 80 58 00
        E 0 80 60 00
        E 0 80 64 00
        E 120 90 18 60
        E 0 90 54 60
        E 0 90 60 60
        E 120 80 18 00
        E 0 80 54 00
        E 0 80 60 00
        E 120 90 1a 60
        E 0 90 24 60
        E 0 90 3d 60
        E 0 90 40 60
        E 0 90 49 60
        E 0 90 4c 60
        E 0 90 55 60
        E 0 90 58 60
        E 0 90 61 60
        E 0 90 64 60
        E 120 80 1a 00
        E 0 80 24 00
        E 0 80 3d 00
        E 0 80 40 00
        E 0 80 49 00
        E 0 80 4c 00
        E 0 80 55 00
        E 0 80 58 00
        E 0 80 61 00
        E 0 80 64 00
        E 120 90 18 60
        E 0 90 54 60
        E 0 90 60 60
        E 120 80 18 00
        E 0 80 54 00
        E 0 80 60 00
        E 0 90 18 60
        E 0 90 60 60
        E 120 80 18 00
        E 0 80 60 00
        E 0 90 1a 60
        E 0 90 24 60
        E 0 90 3d 60
        E 0 90 40 60
        E 0 90 49 60
        E 0 90 4c 60
        E 0 90 55 60
        E 0 90 58 60
        E 0 90 61 60
        E 0 90 64 60
        E 120 80 1a 00
        E 0 80 24 00
        E 0 80 3d 00
        E 0 80 40 00
        E 0 80 49 00
        E 0 80 4c 00
        E 0 80 55 00
        E 0 80 58 00
        E 0 80 61 00
        E 0 80 64 00
        E 120 90 18 60
        E 0 90 54 60
        E 0 90 60 60
        E 120 80 18 00
        E 0 80 54 00
        E 0 80 60 00
        E 120 90 1a 60
        E 0 90 24 60
        E 0 90 3d 60
        E 0 90 40 60
        E 0 90 49 60
        E 0 90 4c 60
        E 0 90 55 60
        E 0 90 58 60
        E 0 90 61 60
        E 0 90 64 60
        E 120 80 1a 00
        E 0 80 24 00
        E 0 80 3d 00
        E 0 80 40 00
        E 0 80 49 00
        E 0 80 4c 00
        E 0 80 55 00
        E 0 80 58 00
        E 0 80 61 00
        E 0 80 64 00
        E 120 90 1a 60
        E 0 90 55 60
        E 0 90 61 60
        E 120 80 1a 00
        E 0 80 55 00
        E 0 80 61 00
        E 120 90 18 60
        E 0 90 24 60
        E 0 90 40 60
        E 0 90 48 60
        E 0 90 4c 60
        E 0 90 54 60
        E 0 90 58 60
        E 0 90 60 60
        E 0 90 64 60
        E 120 80 18 00
        E 0 80 24 00
        E 0 80 40 00
        E 0 80 48 00
        E 0 80 4c 00
        E 0 80 54 00
        E 0 80 58 00
        E 0 80 60 00
        E 0 80 64 00
        E 120 90 18 60
        E 0 90 54 60
        E 0 90 60 60
        E 120 80 18 00
        E 0 80 54 00
        E 0 80 60 00
        E 120 90 1a 60
        E 0 90 24 60
        E 0 90 3d 60
        E 0 90 40 60
        E 0 90 49 60
        E 0 90 4c 60
        E 0 90 55 60
        E 0 90 58 60
        E 0 90 61 60
        E 0 90 64 60
        E 120 80 1a 00
        E 0 80 24 00
        E 0 80 3d 00
        E 0 80 40 00
        E 0 80 49 00
        E 0 80 4c 00
        E 0 80 55 00
        E 0 80 58 00
        E 0 80 61 00
        E 0 80 64 00
        E 120 90 18 60
        E 0 90 54 60
        E 0 90 60 60
        E 120 80 18 00
        E 0 80 54 00
        E 0 80 60 00
        E 120 90 18 60
        E 0 90 24 60
        E 0 90 40 60
        E 0 90 48 60
        E 0 90 4c 60
        E 0 90 54 60
        E 0 90 58 60
        E 0 90 60 60
        E 0 90 64 60
        E 120 80 18 00
        E 0 80 24 00
        E 0 80 40 00
        E 0 80 48 00
        E 0 80 4c 00
        E 0 80 54 00
        E 0 80 58 00
        E 0 80 60 00
        E 0 80 64 00
        E 120 90 18 60
        E 0 90 54 60
        E 0 90 60 60
        E 120 80 18 00
        E 0 80 54 00
        E 0 80 60 00
        E 120 90 1a 60
        E 0 90 24 60
        E 0 90 3d 60
        E 0 90 40 60
        E 0 90 49 60
        E 0 90 4c 60
        E 0 90 55 60
        E 0 90 58 60
        E 0 90 61 60
        E 0 90 64 60
        E 120 80 1a 00
        E 0 80 24 00
        E 0 80 3d 00
        E 0 80 40 00
        E 0 80 49 00
        E 0 80 4c 00
        E 0 80 55 00
        E 0 80 58 00
        E 0 80 61 00
        E 0 80 64 00
        E 120 90 18 60
        E 0 90 54 60
        E 0 90 60 60
        E 120 80 18 00
        E 0 80 54 00
        E 0 80 60 00
        E 120 90 24 60
        E 0 90 40 60
        E 0 90 4c 60
        E 0 90 58 60
        E 0 90 64 60
        E 120 80 24 00
        E 0 80 40 00
        E 0 80 4c 00
        E 0 80 58 00
        E 0 80 64 00
        E 120 90 18 60
        E 0 90 54 60
        E 0 90 60 60
        E 120 80 18 00
        E 0 80 54 00
        E 0 80 60 00
        E 120 90 1a 60
        E 0 90 24 60
        E 0 90 3d 60
        E 0 90 40 60
        E 0 90 49 60
        E 0 90 4c 60
        E 0 90 55 60
        E 0 90 58 60
        E 0 90 61 60
        E 0 90 64 60
        E 120 80 1a 00
        E 0 80 24 00
        E 0 80 3d 00
        E 0 80 40 00
        E 0 80 49 00
        E 0 80 4c 00
        E 0 80 55 00
        E 0 80 58 00
        E 0 80 61 00
        E 0 80 64 00
        E 360 90 18 60
        E 0 90 24 60
        E 0 90 40 60
        E 0 90 48 60
        E 0 90 4c 60
        E 0 90 54 60
        E 0 90 58 60
        E 0 90 60 60
        E 0 90 64 60
        E 120 80 18 00
        E 0 80 24 00
        E 0 80 40 00
        E 0 80 48 00
        E 0 80 4c 00
        E 0 80 54 00
        E 0 80 58 00
        E 0 80 60 00
        E 0 80 64 00
        E 120 90 18 60
        E 0 90 54 60
        E 0 90 60 60
        E 120 80 18 00
        E 0 80 54 00
        E 0 80 60 00
        E 120 90 1a 60
        E 0 90 24 60
        E 0 90 3d 60
        E 0 90 40 60
        E 0 90 49 60
        E 0 90 4c 60
        E 0 90 55 60
        E 0 90 58 60
        E 0 90 61 60
        E 0 90 64 60
        E 120 80 1a 00
        E 0 80 24 00
        E 0 80 3d 00
        E 0 80 40 00
        E 0 80 49 00
        E 0 80 4c 00
        E 0 80 55 00
        E 0 80 58 00
        E 0 80 61 00
        E 0 80 64 00
        E 120 90 18 60
        E 0 90 54 60
        E 0 90 60 60
        E 120 80 18 00
        E 0 80 54 00
        E 0 80 60 00
        E 120 90 24 60
        E 0 90 40 60
        E 0 90 4c 60
        E 0 90 58 60
        E 0 90 64 60
        E 120 80 24 00
        E 0 80 40 00
        E 0 80 4c 00
        E 0 80 58 00
        E 0 80 64 00
        E 120 90 18 60
        E 0 90 54 60
        E 0 90 60 60
        E 120 80 18 00
        E 0 80 54 00
        E 0 80 60 00
        E 120 90 1a 60
        E 0 90 24 60
        E 0 90 3d 60
        E 0 90 40 60
        E 0 90 49 60
        E 0 90 4c 60
        E 0 90 55 60
        E 0 90 58 60
        E 0 90 61 60
        E 0 90 64 60
        E 120 80 1a 00
        E 0 80 24 00
        E 0 80 3d 00
        E 0 80 40 00
        E 0 80 49 00
        E 0 80 4c 00
        E 0 80 55 00
        E 0 80 58 00
        E 0 80 61 00
        E 0 80 64 00
        E 120 90 18 60
        E 0 90 54 60
        E 0 90 60 60
        E 120 80 18 00
        E 0 80 54 00
        E 0 80 60 00
        E 120 90 18 60
        E 0 90 24 60
        E 0 90 40 60
        E 0 90 48 60
        E 0 90 4c 60
        E 0 90 54 60
        E 0 90 58 60
        E 0 90 60 60
        E 0 90 64 60
        E 120 80 18 00
        E 0 80 24 00
        E 0 80 40 00
        E 0 80 48 00
        E 0 80 4c 00
        E 0 80 54 00
        E 0 80 58 00
        E 0 80 60 00
        E 0 80 64 00
        E 120 90 18 60
        E 0 90 54 60
        E 0 90 60 60
        E 120 80 18 00
        E 0 80 54 00
        E 0 80 60 00
        E 120 90 1a 60
        E 0 90 24 60
        E 0 90 3d 60
        E 0 90 40 60
        E 0 90 49 60
        E 0 90 4c 60
        E 0 90 55 60
        E 0 90 58 60
        E 0 90 61 60
        E 0 90 64 60
        E 120 80 1a 00
        E 0 80 24 00
        E 0 80 3d 00
        E 0 80 40 00
        E 0 80 49 00
        E 0 80 4c 00
        E 0 80 55 00
        E 0 80 58 00
        E 0 80 61 00
        E 0 80 64 00
        E 120 90 18 60
        E 0 90 54 60
        E 0 90 60 60
        E 120 80 18 00
        E 0 80 54 00
        E 0 80 60 00
        E 120 90 18 60
        E 0 90 24 60
        E 0 90 40 60
        E 0 90 48 60
        E 0 90 4c 60
        E 0 90 54 60
        E 0 90 58 60
        E 0 90 60 60
        E 0 90 64 60
        E 0 90 78 60
        E 0 90 79 60
        E 0 90 7a 60
        E 0 90 7b 60
        E 0 90 7c 60
        E 120 80 18 00
        E 0 80 24 00
        E 0 80 40 00
        E 0 80 48 00
        E 0 80 4c 00
        E 0 80 54 00
        E 0 80 58 00
        E 0 80 60 00
        E 0 80 64 00
        E 120 90 18 60
        E 0 90 54 60
        E 0 90 60 60
        E 120 80 18 00
        E 0 80 54 00
        E 0 80 60 00
        E 120 90 1a 60
        E 0 90 24 60
        E 0 90 3d 60
        E 0 90 40 60
        E 0 90 49 60
        E 0 90 4c 60
        E 0 90 55 60
        E 0 90 58 60
        E 0 90 61 60
        E 0 90 64 60
        E 120 80 1a 00
        E 0 80 24 00
        E 0 80 3d 00
        E 0 80 40 00
        E 0 80 49 00
        E 0 80 4c 00
        E 0 80 55 00
        E 0 80 58 00
        E 0 80 61 00
        E 0 80 64 00
        E 120 90 18 60
        E 0 90 54 60
        E 0 90 60 60
        E 120 80 18 00
        E 0 80 54 00
        E 0 80 60 00
        E 0 90 18 60
        E 0 90 60 60
        E 120 80 18 00
        E 0 80 60 00
        E 0 90 1a 60
        E 0 90 24 60
        E 0 90 3d 60
        E 0 90 40 60
        E 0 90 49 60
        E 0 90 4c 60
        E 0 90 55 60
        E 0 90 58 60
        E 0 90 61 60
        E 0 90 64 60
        E 120 80 1a 00
        E 0 80 24 00
        E 0 80 3d 00
        E 0 80 40 00
        E 0 80 49 00
        E 0 80 4c 00
        E 0 80 55 00
        E 0 80 58 00
        E 0 80 61 00
        E 0 80 64 00
        E 120 90 18 60
        E 0 90 54 60
        E 0 90 60 60
        E 120 80 18 00
        E 0 80 54 00
        E 0 80 60 00
        E 120 90 1a 60
        E 0 90 24 60
        E 0 90 3d 60
        E 0 90 40 60
        E 0 90 49 60
        E 0 90 4c 60
        E 0 90 55 60
        E 0 90 58 60
        E 0 90 61 60
        E 0 90 64 60
        E 120 80 1a 00
        E 0 80 24 00
        E 0 80 3d 00
        E 0 80 40 00
        E 0 80 49 00
        E 0 80 4c 00
        E 0 80 55 00
        E 0 80 58 00
        E 0 80 61 00
        E 0 80 64 00
        E 120 90 1a 60
        E 0 90 55 60
        E 0 90 61 60
        E 120 80 1a 00
        E 0 80 55 00
        E 0 80 61 00
        E 120 80 78 00
        E 0 80 79 00
        E 0 80 7a 00
        E 0 80 7b 00
        E 0 80 7c 00
        E 0 90 18 60
        E 0 90 19 60
        E 0 90 24 60
        E 0 90 40 60
        E 0 90 48 60
        E 0 90 4c 60
        E 0 90 54 60
        E 0 90 58 60
        E 0 90 60 60
        E 0 90 64 60
        E 120 80 18 00
        E 0 80 24 00
        E 0 80 40 00
        E 0 80 48 00
        E 0 80 4c 00
        E 0 80 54 00
        E 0 80 58 00
        E 0 80 60 00
        E 0 80 64 00
        E 120 90 18 60
        E 0 90 54 60
        E 0 90 60 60
        E 120 80 18 00
        E 0 80 54 00
        E 0 80 60 00
        E 120 90 1a 60
        E 0 90 1f 60
        E 0 90 3d 60
        E 0 90 3e 60
        E 0 90 49 60
        E 0 90 4a 60
        E 0 90 55 60
        E 0 90 56 60
        E 0 90 61 60
        E 0 90 62 60
        E 120 80 1a 00
        E 0 80 1f 00
        E 0 80 3d 00
        E 0 80 3e 00
        E 0 80 49 00
        E 0 80 4a 00
        E 0 80 55 00
        E 0 80 56 00
        E 0 80 61 00
        E 0 80 62 00
        E 120 90 18 60
        E 0 90 33 60
        E 0 90 54 60
        E 0 90 57 60
        E 0 90 60 60
        E 0 90 63 60
        E 0 90 6f 60
        E 120 80 18 00
        E 0 80 33 00
        E 0 80 54 00
        E 0 80 57 00
        E 0 80 60 00
        E 0 80 63 00
        E 0 80 6f 00
        E 120 90 18 60
        E 0 90 1f 60
        E 0 90 3e 60
        E 0 90 48 60
        E 0 90 4a 60
        E 0 90 54 60
        E 0 90 56 60
        E 0 90 60 60
        E 0 90 62 60
        E 120 80 18 00
        E 0 80 1f 00
        E 0 80 3e 00
        E 0 80 48 00
        E 0 80 4a 00
        E 0 80 54 00
        E 0 80 56 00
        E 0 80 60 00
        E 0 80 62 00
        E 120 90 18 60
        E 0 90 54 60
        E 0 90 60 60
        E 120 80 18 00
        E 0 80 54 00
        E 0 80 60 00
        E 120 90 1a 60
        E 0 90 1f 60
        E 0 90 3d 60
        E 0 90 3e 60
        E 0 90 49 60
        E 0 90 4a 60
        E 0 90 55 60
        E 0 90 56 60
        E 0 90 61 60
        E 0 90 62 60
        E 120 80 1a 00
        E 0 80 1f 00
        E 0 80 3d 00
        E 0 80 3e 00
        E 0 80 49 00
        E 0 80 4a 00
        E 0 80 55 00
        E 0 80 56 00
        E 0 80 61 00
        E 0 80 62 00
        E 120 90 18 60
        E 0 90 54 60
        E 0 90 60 60
        E 120 80 18 00
        E 0 80 54 00
        E 0 80 60 00
        E 120 90 1f 60
        E 0 90 3e 60
        E 0 90 4a 60
        E 0 90 56 60
        E 0 90 62 60
        E 120 80 1f 00
        E 0 80 3e 00
        E 0 80 4a 00
        E 0 80 56 00
        E 0 80 62 00
        E 120 90 18 60
        E 0 90 54 60
        E 0 90 60 60
        E 120 80 18 00
        E 0 80 54 00
        E 0 80 60 00
        E 120 90 1a 60
        E 0 90 1f 60
        E 0 90 3d 60
        E 0 90 3e 60
        E 0 90 49 60
        E 0 90 4a 60
        E 0 90 55 60
        E 0 90 56 60
        E 0 90 61 60
        E 0 90 62 60
        E 120 80 1a 00
        E 0 80 1f 00
        E 0 80 3d 00
        E 0 80 3e 00
        E 0 80 49 00
        E 0 80 4a 00
        E 0 80 55 00
        E 0 80 56 00
        E 0 80 61 00
        E 0 80 62 00
        E 360 90 18 60
        E 0 90 1f 60
        E 0 90 3e 60
        E 0 90 48 60
        E 0 90 4a 60
        E 0 90 54 60
        E 0 90 56 60
        E 0 90 60 60
        E 0 90 62 60
        E 120 80 18 00
        E 0 80 1f 00
        E 0 80 3e 00
        E 0 80 48 00
        E 0 80 4a 00
        E 0 80 54 00
        E 0 80 56 00
        E 0 80 60 00
        E 0 80 62 00
        E 120 90 18 60
        E 0 90 54 60
        E 0 90 60 60
        E 120 80 18 00
        E 0 80 54 00
        E 0 80 60 00
        E 120 90 1a 60
        E 0 90 1f 60
        E 0 90 3d 60
        E 0 90 3e 60
        E 0 90 49 60
        E 0 90 4a 60
        E 0 90 55 60
        E 0 90 56 60
        E 0 90 61 60
        E 0 90 62 60
        E 120 80 1a 00
        E 0 80 1f 00
        E 0 80 3d 00
        E 0 80 3e 00
        E 0 80 49 00
        E 0 80 4a 00
        E 0 80 55 00
        E 0 80 56 00
        E 0 80 61 00
        E 0 80 62 00
        E 120 90 18 60
        E 0 90 54 60
        E 0 90 60 60
        E 120 80 18 00
        E 0 80 54 00
        E 0 80 60 00
        E 120 90 1f 60
        E 0 90 3e 60
        E 0 90 4a 60
        E 0 90 56 60
        E 0 90 62 60
        E 120 80 1f 00
        E 0 80 3e 00
        E 0 80 4a 00
        E 0 80 56 00
        E 0 80 62 00
        E 120 90 18 60
        E 0 90 54 60
        E 0 90 60 60
        E 120 80 18 00
        E 0 80 54 00
        E 0 80 60 00
        E 120 90 1a 60
        E 0 90 1f 60
        E 0 90 3d 60
        E 0 90 3e 60
        E 0 90 49 60
        E 0 90 4a 60
        E 0 90 55 60
        E 0 90 56 60
        E 0 90 61 60
        E 0 90 62 60
        E 120 80 1a 00
        E 0 80 1f 00
        E 0 80 3d 00
        E 0 80 3e 00
        E 0 80 49 00
        E 0 80 4a 00
        E 0 80 55 00
        E 0 80 56 00
        E 0 80 61 00
        E 0 80 62 00
        E 120 90 18 60
        E 0 90 54 60
        E 0 90 60 60
        E 120 80 18 00
        E 0 80 54 00
        E 0 80 60 00
        E 120 90 18 60
        E 0 90 1f 60
        E 0 90 3e 60
        E 0 90 48 60
        E 0 90 4a 60
        E 0 90 54 60
        E 0 90 56 60
        E 0 90 60 60
        E 0 90 62 60
        E 120 80 18 00
        E 0 80 1f 00
        E 0 80 3e 00
        E 0 80 48 00
        E 0 80 4a 00
        E 0 80 54 00
        E 0 80 56 00
        E 0 80 60 00
        E 0 80 62 00
        E 120 90 18 60
        E 0 90 54 60
        E 0 90 60 60
        E 120 80 18 00
        E 0 80 54 00
        E 0 80 60 00
        E 120 90 1a 60
        E 0 90 1f 60
        E 0 90 3d 60
        E 0 90 3e 60
        E 0 90 49 60
        E 0 90 4a 60
        E 0 90 55 60
        E 0 90 56 60
        E 0 90 61 60
        E 0 90 62 60
        E 120 80 1a 00
        E 0 80 1f 00
        E 0 80 3d 00
        E 0 80 3e 00
        E 0 80 49 00
        E 0 80 4a 00
        E 0 80 55 00
        E 0 80 56 00
        E 0 80 61 00
        E 0 80 62 00
        E 120 90 18 60
        E 0 90 54 60
        E 0 90 60 60
        E 120 80 18 00
        E 0 80 54 00
        E 0 80 60 00
        E 120 90 18 60
        E 0 90 1f 60
        E 0 90 3e 60
        E 0 90 48 60
        E 0 90 4a 60
        E 0 90 54 60
        E 0 90 56 60
        E 0 90 60 60
        E 0 90 62 60
        E 120 80 18 00
        E 0 80 1f 00
        E 0 80 3e 00
        E 0 80 48 00
        E 0 80 4a 00
        E 0 80 54 00
        E 0 80 56 00
        E 0 80 60 00
        E 0 80 62 00
        E 120 90 18 60
        E 0 90 54 60
        E 0 90 60 60
        E 120 80 18 00
        E 0 80 54 00
        E 0 80 60 00
        E 120 90 1a 60
        E 0 90 1f 60
        E 0 90 3d 60
        E 0 90 3e 60
        E 0 90 49 60
        E 0 90 4a 60
        E 0 90 55 60
        E 0 90 56 60
        E 0 90 61 60
        E 0 90 62 60
        E 120 80 1a 00
        E 0 80 1f 00
        E 0 80 3d 00
        E 0 80 3e 00
        E 0 80 49 00
        E 0 80 4a 00
        E 0 80 55 00
        E 0 80 56 00
        E 0 80 61 00
        E 0 80 62 00
        E 120 90 18 60
        E 0 90 54 60
        E 0 90 60 60
        E 120 80 18 00
        E 0 80 54 00
        E 0 80 60 00
        E 0 90 18 60
        E 0 90 60 60
        E 120 80 18 00
        E 0 80 60 00
        E 0 90 1a 60
        E 0 90 1f 60
        E 0 90 3d 60
        E 0 90 3e 60
        E 0 90 49 60
        E 0 90 4a 60
        E 0 90 55 60
        E 0 90 56 60
        E 0 90 61 60
        E 0 90 62 60
        E 120 80 1a 00
        E 0 80 1f 00
        E 0 80 3d 00
        E 0 80 3e 00
        E 0 80 49 00
        E 0 80 4a 00
        E 0 80 55 00
        E 0 80 56 00
        E 0 80 61 00
        E 0 80 62 00
        E 120 90 18 60
        E 0 90 54 60
        E 0 90 60 60
        E 120 80 18 00
        E 0 80 54 00
        E 0 80 60 00
        E 120 90 1a 60
        E 0 90 1f 60
        E 0 90 3d 60
        E 0 90 3e 60
        E 0 90 49 60
        E 0 90 4a 60
        E 0 90 55 60
        E 0 90 56 60
        E 0 90 61 60
        E 0 90 62 60
        E 120 80 1a 00
        E 0 80 1f 00
        E 0 80 3d 00
        E 0 80 3e 00
        E 0 80 49 00
        E 0 80 4a 00
        E 0 80 55 00
        E 0 80 56 00
        E 0 80 61 00
        E 0 80 62 00
        E 120 90 1b 60
        E 0 90 55 60
        E 0 90 61 60
        E 120 80 1b 00
        E 0 80 55 00
        E 0 80 61 00
        E 0 90 1a 60
        E 0 90 61 60
        E 120 80 1a 00
        E 0 80 61 00
        E 0 90 18 60
        E 0 90 1f 60
        E 0 90 3e 60
        E 0 90 48 60
        E 0 90 4a 60
        E 0 90 54 60
        E 0 90 56 60
        E 0 90 60 60
        E 0 90 62 60
        E 120 80 18 00
        E 0 80 1f 00
        E 0 80 3e 00
        E 0 80 48 00
        E 0 80 4a 00
        E 0 80 54 00
        E 0 80 56 00
        E 0 80 60 00
        E 0 80 62 00
        E 120 90 18 60
        E 0 90 54 60
        E 0 90 60 60
        E 120 80 18 00
        E 0 80 54 00
        E 0 80 60 00
        E 120 90 1a 60
        E 0 90 1f 60
        E 0 90 3d 60
        E 0 90 3e 60
        E 0 90 49 60
        E 0 90 4a 60
        E 0 90 55 60
        E 0 90 56 60
        E 0 90 61 60
        E 0 90 62 60
        E 120 80 1a 00
        E 0 80 1f 00
        E 0 80 3d 00
        E 0 80 3e 00
        E 0 80 49 00
        E 0 80 4a 00
        E 0 80 55 00
        E 0 80 56 00
        E 0 80 61 00
        E 0 80 62 00
        E 120 90 18 60
        E 0 90 54 60
        E 0 90 60 60
        E 120 80 18 00
        E 0 80 54 00
        E 0 80 60 00
        E 120 90 18 60
        E 0 90 1f 60
        E 0 90 3e 60
        E 0 90 48 60
        E 0 90 4a 60
        E 0 90 54 60
        E 0 90 56 60
        E 0 90 60 60
        E 0 90 62 60
        E 120 80 18 00
        E 0 80 1f 00
        E 0 80 3e 00
        E 0 80 48 00
        E 0 80 4a 00
        E 0 80 54 00
        E 0 80 56 00
        E 0 80 60 00
        E 0 80 62 00
        E 120 90 18 60
        E 0 90 54 60
        E 0 90 60 60
        E 120 80 18 00
        E 0 80 54 00
        E 0 80 60 00
        E 120 90 1a 60
        E 0 90 1f 60
        E 0 90 3d 60
        E 0 90 3e 60
        E 0 90 49 60
        E 0 90 4a 60
        E 0 90 55 60
        E 0 90 56 60
        E 0 90 61 60
        E 0 90 62 60
        E 120 80 1a 00
        E 0 80 1f 00
        E 0 80 3d 00
        E 0 80 3e 00
        E 0 80 49 00
        E 0 80 4a 00
        E 0 80 55 00
        E 0 80 56 00
        E 0 80 61 00
        E 0 80 62 00
        E 120 90 18 60
        E 0 90 54 60
        E 0 90 60 60
        E 120 80 18 00
        E 0 80 54 00
        E 0 80 60 00
        E 120 90 1f 60
        E 0 90 3e 60
        E 0 90 4a 60
        E 0 90 56 60
        E 0 90 62 60
        E 120 80 1f 00
        E 0 80 3e 00
        E 0 80 4a 00
        E 0 80 56 00
        E 0 80 62 00
        E 120 90 18 60
        E 0 90 54 60
        E 0 90 60 60
        E 120 80 18 00
        E 0 80 54 00
        E 0 80 60 00
        E 120 90 1a 60
        E 0 90 1f 60
        E 0 90 3d 60
        E 0 90 3e 60
        E 0 90 49 60
        E 0 90 4a 60
        E 0 90 55 60
        E 0 90 56 60
        E 0 90 61 60
        E 0 90 62 60
        E 120 80 1a 00
        E 0 80 1f 00
        E 0 80 3d 00
        E 0 80 3e 00
        E 0 80 49 00
        E 0 80 4a 00
        E 0 80 55 00
        E 0 80 56 00
        E 0 80 61 00
        E 0 80 62 00
        E 360 90 18 60
        E 0 90 1f 60
        E 0 90 3e 60
        E 0 90 48 60
        E 0 90 4a 60
        E 0 90 54 60
        E 0 90 56 60
        E 0 90 60 60
        E 0 90 62 60
        E 120 80 18 00
        E 0 80 1f 00
        E 0 80 3e 00
        E 0 80 48 00
        E 0 80 4a 00
        E 0 80 54 00
        E 0 80 56 00
        E 0 80 60 00
        E 0 80 62 00
        E 120 90 18 60
        E 0 90 54 60
        E 0 90 60 60
        E 120 80 18 00
        E 0 80 54 00
        E 0 80 60 00
        E 120 90 1a 60
        E 0 90 1f 60
        E 0 90 3d 60
        E 0 90 3e 60
        E 0 90 49 60
        E 0 90 4a 60
        E 0 90 55 60
        E 0 90 56 60
        E 0 90 61 60
        E 0 90 62 60
        E 120 80 1a 00
        E 0 80 1f 00
        E 0 80 3d 00
        E 0 80 3e 00
        E 0 80 49 00
        E 0 80 4a 00
        E 0 80 55 00
        E 0 80 56 00
        E 0 80 61 00
        E 0 80 62 00
        E 120 90 18 60
        E 0 90 1a 60
        E 0 90 54 60
        E 0 90 55 60
        E 0 90 60 60
        E 0 90 61 60
        E 120 80 18 00
        E 0 80 1a 00
        E 0 80 54 00
        E 0 80 55 00
        E 0 80 60 00
        E 0 80 61 00
        E 120 90 1f 60
        E 0 90 3e 60
        E 0 90 4a 60
        E 0 90 56 60
        E 0 90 62 60
        E 120 80 1f 00
        E 0 80 3e 00
        E 0 80 4a 00
        E 0 80 56 00
        E 0 80 62 00
        E 120 90 18 60
        E 0 90 54 60
        E 0 90 60 60
        E 120 80 18 00
        E 0 80 54 00
        E 0 80 60 00
        E 120 90 1a 60
        E 0 90 1f 60
        E 0 90 3d 60
        E 0 90 3e 60
        E 0 90 49 60
        E 0 90 4a 60
        E 0 90 55 60
        E 0 90 56 60
        E 0 90 61 60
        E 0 90 62 60
        E 120 80 1a 00
        E 0 80 1f 00
        E 0 80 3d 00
        E 0 80 3e 00
        E 0 80 49 00
        E 0 80 4a 00
        E 0 80 55 00
        E 0 80 56 00
        E 0 80 61 00
        E 0 80 62 00
        E 120 90 18 60
        E 0 90 1a 60
        E 0 90 54 60
        E 0 90 55 60
        E 0 90 60 60
        E 0 90 61 60
        E 120 80 18 00
        E 0 80 1a 00
        E 0 80 54 00
        E 0 80 55 00
        E 0 80 60 00
        E 0 80 61 00
        E 120 90 18 60
        E 0 90 1f 60
        E 0 90 3e 60
        E 0 90 48 60
        E 0 90 4a 60
        E 0 90 54 60
        E 0 90 56 60
        E 0 90 60 60
        E 0 90 62 60
        E 120 80 18 00
        E 0 80 1f 00
        E 0 80 3e 00
        E 0 80 48 00
        E 0 80 4a 00
        E 0 80 54 00
        E 0 80 56 00
        E 0 80 60 00
        E 0 80 62 00
        E 120 90 18 60
        E 0 90 1a 60
        E 0 90 54 60
        E 0 90 55 60
        E 0 90 60 60
        E 0 90 61 60
        E 120 80 18 00
        E 0 80 1a 00
        E 0 80 54 00
        E 0 80 55 00
        E 0 80 60 00
        E 0 80 61 00
        E 120 90 1a 60
        E 0 90 1f 60
        E 0 90 3d 60
        E 0 90 3e 60
        E 0 90 49 60
        E 0 90 4a 60
        E 0 90 55 60
        E 0 90 56 60
        E 0 90 61 60
        E 0 90 62 60
        E 120 80 1a 00
        E 0 80 1f 00
        E 0 80 3d 00
        E 0 80 3e 00
        E 0 80 49 00
        E 0 80 4a 00
        E 0 80 55 00
        E 0 80 56 00
        E 0 80 61 00
        E 0 80 62 00
        E 120 90 18 60
        E 0 90 54 60
        E 0 90 60 60
        E 120 80 18 00
        E 0 80 54 00
        E 0 80 60 00
        E 120 90 18 60
        E 0 90 1f 60
        E 0 90 3e 60
        E 0 90 48 60
        E 0 90 4a 60
        E 0 90 54 60
        E 0 90 56 60
        E 0 90 60 60
        E 0 90 62 60
        E 120 80 18 00
        E 0 80 1f 00
        E 0 80 3e 00
        E 0 80 48 00
        E 0 80 4a 00
        E 0 80 54 00
        E 0 80 56 00
        E 0 80 60 00
        E 0 80 62 00
        E 120 90 18 60
        E 0 90 54 60
        E 0 90 60 60
        E 120 80 18 00
        E 0 80 54 00
        E 0 80 60 00
        E 120 90 1a 60
        E 0 90 1f 60
        E 0 90 3d 60
        E 0 90 3e 60
        E 0 90 49 60
        E 0 90 4a 60
        E 0 90 55 60
        E 0 90 56 60
        E 0 90 61 60
        E 0 90 62 60
        E 120 80 1a 00
        E 0 80 1f 00
        E 0 80 3d 00
        E 0 80 3e 00
        E 0 80 49 00
        E 0 80 4a 00
        E 0 80 55 00
        E 0 80 56 00
        E 0 80 61 00
        E 0 80 62 00
        E 120 90 18 60
        E 0 90 54 60
        E 0 90 60 60
        E 120 80 18 00
        E 0 80 54 00
        E 0 80 60 00
        E 0 90 18 60
        E 0 90 60 60
        E 120 80 19 00
        E 0 80 18 00
        E 0 80 60 00
        E 0 90 1a 60
        E 0 90 1f 60
        E 0 90 3d 60
        E 0 90 3e 60
        E 0 90 49 60
        E 0 90 4a 60
        E 0 90 55 60
        E 0 90 56 60
        E 0 90 61 60
        E 0 90 62 60
        E 120 80 1a 00
        E 0 80 1f 00
        E 0 80 3d 00
        E 0 80 3e 00
        E 0 80 49 00
        E 0 80 4a 00
        E 0 80 55 00
        E 0 80 56 00
        E 0 80 61 00
        E 0 80 62 00
        E 0 90 1a 60
        E 0 90 61 60
        E 120 80 1a 00
        E 0 80 61 00
        E 0 90 18 60
        E 0 90 1b 60
        E 0 90 54 60
        E 0 90 55 60
        E 0 90 60 60
        E 0 90 61 60
        E 120 80 18 00
        E 0 80 1b 00
        E 0 80 54 00
        E 0 80 55 00
        E 0 80 60 00
        E 0 80 61 00
        E 0 90 1a 60
        E 0 90 61 60
        E 120 80 1a 00
        E 0 80 61 00
        E 0 90 2f 60
        E 0 90 3f 60
        E 0 90 4b 60
        E 0 90 57 60
        E 0 90 63 60
        E 0 90 6f 60
        E 120 80 2f 00
        E 0 80 3f 00
        E 0 80 4b 00
        E 0 80 57 00
        E 0 80 63 00
        E 0 80 6f 00
        E 0 90 1a 60
        E 0 90 61 60
        E 120 80 1a 00
        E 0 80 61 00
        E 0 90 1b 60
        E 0 90 55 60
        E 0 90 61 60
        E 120 80 1b 00
        E 0 80 55 00
        E 0 80 61 00
        E 0 90 1a 60
        E 0 90 61 60
        E 120 80 1a 00
        E 0 80 61 00
        E 0 90 18 60
        E 0 90 24 60
        E 0 90 40 60
        E 0 90 48 60
        E 0 90 4c 60
        E 0 90 54 60
        E 0 90 58 60
        E 0 90 60 60
        E 0 90 64 60
        E 120 80 18 00
        E 0 80 24 00
        E 0 80 40 00
        E 0 80 48 00
        E 0 80 4c 00
        E 0 80 54 00
        E 0 80 58 00
        E 0 80 60 00
        E 0 80 64 00
        <X 359 0
          /wFbaWRsZV9yZWFsdGltZV0=
        >
        E 12961 b0 7b 00
        GUID {9E2AA56A-3B68-41B2-8658-2FD6099A6594}
        IGNTEMPO 0 120.00000000 4 4
        SRCCOLOR 3
        VELLANE 132 71 60
        COLORMAP "C:\Program Files\REAPER (x64)\Data\color_maps\rockband_guitarbass.png"
        CFGEDITVIEW 0.000000 2.846050 0 12 0 0 0
        CFGEDIT 1 1 0 1 1 0 1 1 1 1 1 0.25000000 100 100 1200 800 0 2 2 1 0.00000000 0 1 0 0 0.500000 0 0 1.000000 64
        KEYSNAP 0 6 "102030050700" 0 "Pentatonic"
        EVTFILTER 0 -1 -1 -1 -1 0 1 0 0 -1.00000000 -1.00000000
      >
    >
  >
  <TRACK '{6D2453AF-0179-4A63-AE07-08EFEBD32DB0}'
    NAME "drums"
    PEAKCOL 16576
    BEAT -1
    AUTOMODE 0
    VOLPAN 1.00000000000000 0.00000000000000 -1.00000000000000 -1.00000000000000 1.00000000000000
    MUTESOLO 0 0 0
    IPHASE 0
    ISBUS 2 -1
    BUSCOMP 0 0
    SHOWINMIX 1 0.666700 0.500000 1 0.500000 -1 -1 -1
    FREEMODE 0
    SEL 0
    REC 0 0 0 0 0 0 0
    VU 2
    TRACKHEIGHT 0 0
    INQ 0 0 0 0.5000000000 100 0 0 100
    NCHAN 2
    FX 1
    TRACKID {6D2453AF-0179-4A63-AE07-08EFEBD32DB0}
    PERF 0
    MIDIOUT -1
    MAINSEND 1 0
    <ITEM
      POSITION 0.00000000000000
      SNAPOFFS 0.00000000000000
      LENGTH 249.33300000000000
      LOOP 0
      ALLTAKES 0
      SEL 0
      FADEIN 1 0.000000 0.000000 1 0
      FADEOUT 1 0.000000 0.000000 1 0
      MUTE 0
      IGUID {B99FA680-B910-4D3F-A879-A1DE1B40D6A4}
      IID 17
      NAME "drums.wav"
      VOLPAN 1.000000 0.000000 1.000000 -1.000000
      SOFFS 0.00000000000000
      PLAYRATE 1.00000000000000 1 0.00000000000000 -1
      CHANMODE 0
      GUID {118969B1-0CA6-4BE5-B3E3-EEB9B874FA30}
      <SOURCE WAVE
        FILE "wav\drums.wav"
      >
    >
  >
  <TRACK '{65DACA04-B1FD-464B-963C-E6D8EA5CD422}'
    NAME "PART BASS"
    PEAKCOL 16576
    BEAT -1
    AUTOMODE 0
    VOLPAN 1.00000000000000 0.00000000000000 -1.00000000000000 -1.00000000000000 1.00000000000000
    MUTESOLO 0 0 0
    IPHASE 0
    ISBUS 1 1
    BUSCOMP 0 0
    SHOWINMIX 1 0.666700 0.500000 1 0.500000 -1 -1 -1
    FREEMODE 0
    SEL 0
    REC 0 0 0 0 0 0 0
    VU 2
    TRACKHEIGHT 0 0
    INQ 0 0 0 0.5000000000 100 0 0 100
    NCHAN 2
    FX 1
    TRACKID {65DACA04-B1FD-464B-963C-E6D8EA5CD422}
    PERF 0
    MIDIOUT -1
    <MIDINOTENAMES
      0 127 "TRILL MARKER"
      0 126 "TREMOLO MARKER"
      0 125 "---"
      0 124 "BRE"
      0 123 "BRE"
      0 122 "BRE"
      0 121 "BRE"
      0 120 "BRE (use all 5)"
      0 119 "----"
      0 116 "OVERDRIVE"
      0 115 "----"
      0 103 "Solo Marker"
      0 102 "Force HOPO Off"
      0 101 "Force HOPO On"
      0 100 "EXPERT Orange"
      0 99 "EXPERT Blue"
      0 98 "EXPERT Yellow"
      0 97 "EXPERT Red"
      0 96 "EXPERT Green"
      0 95 "----"
      0 90 "Force HOPO Off"
      0 89 "Force HOPO On"
      0 88 "HARD Orange"
      0 87 "HARD Blue"
      0 86 "HARD Yellow"
      0 85 "HARD Red"
      0 84 "HARD Green"
      0 77 "----"
      0 76 "MEDIUM Orange"
      0 75 "MEDIUM Blue"
      0 74 "MEDIUM Yellow"
      0 73 "MEDIUM Red"
      0 72 "MEDIUM Green"
      0 65 "----"
      0 64 "EASY Orange"
      0 63 "EASY Blue"
      0 62 "EASY Yellow"
      0 61 "EASY Red"
      0 60 "EASY Green"
      0 59 "Fret 12"
      0 57 "Fret 11"
      0 56 "Fret 10"
      0 55 "Fret 9"
      0 53 "Fret 8"
      0 52 "Fret 7"
      0 50 "Fret 6"
      0 49 "Fret 5"
      0 47 "Fret 4"
      0 45 "Fret 3"
      0 43 "Fret 2"
      0 40 "Fret 1"
    >
    MAINSEND 1 0
    <FXCHAIN
      WNDRECT 0 43 891 559
      SHOW 0
      LASTSEL 0
      DOCKED 0
      BYPASS 0 0
      <VST "VSTi: RBN Preview (RBN)" "rbprev_vst64.dll" 0 ""
        dnBicu5e7f4AAAAAAgAAAAEAAAAAAAAAAgAAAAAAAAAEAAAAAQAAAA==
        AAAQAAMAqgAAABAAAAA=
      >
      FLOATPOS 0 0 0 0
      FXID {D872A4B6-106B-4BCC-8B77-25D9F85D0A65}
      WAK 0
    >
    <ITEM
      POSITION 0.00000000000000
      SNAPOFFS 0.00000000000000
      LENGTH 249.33300000000000
      LOOP 0
      ALLTAKES 0
      SEL 0
      FADEIN 1 0.000000 0.000000 1 0
      FADEOUT 1 0.000000 0.000000 1 0
      MUTE 0
      IGUID {E5776463-5D35-4915-AAB5-C21A19ACD304}
      IID 2
      NAME "PART BASS"
      VOLPAN 1.000000 0.000000 1.000000 -1.000000
      SOFFS 0.00000000000000 0.00000000000000
      PLAYRATE 1.00000000000000 1 0.00000000000000 -1
      CHANMODE 0
      GUID {6E32FF4F-405E-4168-AF7C-EAAA5953A97D}
      <SOURCE MIDI
        HASDATA 1 480 QN
        POOLEDEVTS {35EAAC3D-7F3B-411E-99FB-991DAA339F4B}
        <X 0 0
          /wNQQVJUIEJBU1M=
        >
        <X 6600 0
          /wFbcGxheV0=
        >
        E 120 90 2d 60
        E 0 90 3c 60
        E 0 90 48 60
        E 0 90 54 60
        E 0 90 60 60
        E 120 80 3c 00
        E 0 80 48 00
        E 0 80 54 00
        E 0 80 60 00
        E 360 90 48 60
        E 0 90 54 60
        E 0 90 60 60
        E 60 80 2d 00
        E 0 90 2f 60
        E 60 80 48 00
        E 0 80 54 00
        E 0 80 60 00
        E 0 80 2f 00
        E 0 90 31 60
        E 60 80 31 00
        E 0 90 32 60
        E 60 80 32 00
        E 0 90 34 60
        E 0 90 55 60
        E 0 90 61 60
        E 0 90 65 60
        E 60 80 34 00
        E 0 90 35 60
        E 60 80 55 00
        E 0 80 61 00
        E 0 80 65 00
        E 0 80 35 00
        E 0 90 37 60
        E 60 80 37 00
        E 60 90 28 60
        E 0 90 3e 60
        E 0 90 4a 60
        E 0 90 56 60
        E 0 90 62 60
        E 120 80 3e 00
        E 0 80 4a 00
        E 0 80 56 00
        E 0 80 62 00
        E 360 90 3e 60
        E 0 90 4a 60
        E 0 90 56 60
        E 0 90 62 60
        E 120 80 3e 00
        E 0 80 4a 00
        E 0 80 56 00
        E 0 80 62 00
        E 360 90 3e 60
        E 0 90 4a 60
        E 0 90 56 60
        E 0 90 62 60
        E 120 80 3e 00
        E 0 80 4a 00
        E 0 80 56 00
        E 0 80 62 00
        E 360 90 3e 60
        E 0 90 4a 60
        E 0 90 56 60
        E 0 90 62 60
        E 120 80 3e 00
        E 0 80 4a 00
        E 0 80 56 00
        E 0 80 62 00
        E 360 90 3e 60
        E 0 90 4a 60
        E 0 90 56 60
        E 0 90 62 60
        E 120 80 3e 00
        E 0 80 4a 00
        E 0 80 56 00
        E 0 80 62 00
        E 360 90 4a 60
        E 0 90 56 60
        E 0 90 62 60
        E 120 80 4a 00
        E 0 80 56 00
        E 0 80 62 00
        E 360 90 3c 60
        E 0 90 48 60
        E 0 90 54 60
        E 0 90 60 60
        E 120 80 3c 00
        E 0 80 48 00
        E 0 80 54 00
        E 0 80 60 00
        E 120 90 55 60
        E 0 90 61 60
        E 120 80 55 00
        E 0 80 61 00
        E 120 90 4a 60
        E 0 90 56 60
        E 0 90 62 60
        E 120 80 4a 00
        E 0 80 56 00
        E 0 80 62 00
        E 120 90 57 60
        E 0 90 63 60
        E 120 80 57 00
        E 480 80 63 00
        E 120 90 3f 60
        E 0 90 4b 60
        E 0 90 57 60
        E 0 90 63 60
        E 120 80 3f 00
        E 0 80 4b 00
        E 0 80 57 00
        E 0 80 63 00
        E 360 90 3f 60
        E 0 90 4b 60
        E 0 90 57 60
        E 0 90 63 60
        E 120 80 3f 00
        E 0 80 4b 00
        E 0 80 57 00
        E 0 80 63 00
        E 120 90 4b 60
        E 0 90 57 60
        E 0 90 63 60
        E 120 80 4b 00
        E 0 80 57 00
        E 0 80 63 00
        E 120 90 3f 60
        E 0 90 4b 60
        E 0 90 57 60
        E 0 90 63 60
        E 120 80 3f 00
        E 0 80 4b 00
        E 0 80 57 00
        E 0 80 63 00
        E 120 90 55 60
        E 0 90 61 60
        E 120 80 55 00
        E 480 80 61 00
        E 120 90 3d 60
        E 0 90 49 60
        E 0 90 55 60
        E 0 90 61 60
        E 120 80 3d 00
        E 0 80 49 00
        E 0 80 55 00
        E 0 80 61 00
        E 120 90 57 60
        E 0 90 63 60
        E 120 80 57 00
        E 0 80 63 00
        E 360 90 57 60
        E 0 90 63 60
        E 120 80 57 00
        E 0 80 63 00
        E 120 90 3e 60
        E 0 90 4a 60
        E 0 90 56 60
        E 0 90 62 60
        E 120 80 3e 00
        E 0 80 4a 00
        E 0 80 56 00
        E 0 80 62 00
        E 120 90 54 60
        E 0 90 60 60
        E 120 80 54 00
        E 0 80 60 00
        E 120 90 3e 60
        E 0 90 4a 60
        E 0 90 56 60
        E 0 90 62 60
        E 120 80 3e 00
        E 0 80 4a 00
        E 0 80 56 00
        E 0 80 62 00
        E 360 90 3e 60
        E 0 90 4a 60
        E 0 90 56 60
        E 0 90 62 60
        E 120 80 3e 00
        E 0 80 4a 00
        E 0 80 56 00
        E 0 80 62 00
        E 360 90 3e 60
        E 0 90 4a 60
        E 0 90 56 60
        E 0 90 62 60
        E 120 80 3e 00
        E 0 80 4a 00
        E 0 80 56 00
        E 0 80 62 00
        E 360 90 3e 60
        E 0 90 4a 60
        E 0 90 56 60
        E 0 90 62 60
        E 120 80 3e 00
        E 0 80 4a 00
        E 0 80 56 00
        E 0 80 62 00
        E 360 90 3e 60
        E 0 90 4a 60
        E 0 90 56 60
        E 0 90 62 60
        E 120 80 3e 00
        E 0 80 4a 00
        E 0 80 56 00
        E 0 80 62 00
        E 360 90 4a 60
        E 0 90 56 60
        E 0 90 62 60
        E 120 80 4a 00
        E 0 80 56 00
        E 0 80 62 00
        E 360 90 3c 60
        E 0 90 48 60
        E 0 90 54 60
        E 0 90 60 60
        E 120 80 3c 00
        E 0 80 48 00
        E 0 80 54 00
        E 0 80 60 00
        E 120 90 55 60
        E 0 90 61 60
        E 120 80 55 00
        E 0 80 61 00
        E 120 90 4a 60
        E 0 90 56 60
        E 0 90 62 60
        E 120 80 4a 00
        E 0 80 56 00
        E 0 80 62 00
        E 120 90 57 60
        E 0 90 63 60
        E 120 80 57 00
        E 0 80 63 00
        E 600 90 3f 60
        E 0 90 4b 60
        E 0 90 57 60
        E 0 90 63 60
        E 120 80 3f 00
        E 0 80 4b 00
        E 0 80 57 00
        E 0 80 63 00
        E 360 90 3f 60
        E 0 90 4b 60
        E 0 90 57 60
        E 0 90 63 60
        E 120 80 3f 00
        E 0 80 4b 00
        E 0 80 57 00
        E 0 80 63 00
        E 120 90 4b 60
        E 0 90 57 60
        E 0 90 63 60
        E 120 80 4b 00
        E 0 80 57 00
        E 0 80 63 00
        E 120 90 3f 60
        E 0 90 4b 60
        E 0 90 57 60
        E 0 90 63 60
        E 120 80 3f 00
        E 0 80 4b 00
        E 0 80 57 00
        E 0 80 63 00
        E 120 90 58 60
        E 0 90 64 60
        E 120 80 58 00
        E 480 80 64 00
        E 120 90 40 60
        E 0 90 4c 60
        E 0 90 58 60
        E 0 90 64 60
        E 120 80 40 00
        E 0 80 4c 00
        E 0 80 58 00
        E 0 80 64 00
        E 120 90 55 60
        E 0 90 61 60
        E 120 80 55 00
        E 0 80 61 00
        E 360 90 49 60
        E 0 90 55 60
        E 0 90 61 60
        E 120 80 49 00
        E 0 80 55 00
        E 0 80 61 00
        E 120 90 49 60
        E 0 90 55 60
        E 0 90 61 60
        E 120 80 49 00
        E 0 80 55 00
        E 0 80 61 00
        E 120 90 55 60
        E 0 90 61 60
        E 120 80 28 00
        E 0 80 55 00
        E 0 80 61 00
        <X 120 0
          /wFbaW50ZW5zZV0=
        >
        E 0 90 2d 60
        E 0 90 3e 60
        E 0 90 4a 60
        E 0 90 56 60
        E 0 90 62 60
        E 120 80 3e 00
        E 0 80 4a 00
        E 0 80 56 00
        E 0 80 62 00
        E 360 90 3e 60
        E 0 90 4a 60
        E 0 90 56 60
        E 0 90 62 60
        E 120 80 3e 00
        E 0 80 4a 00
        E 0 80 56 00
        E 0 80 62 00
        E 360 90 3e 60
        E 0 90 4a 60
        E 0 90 56 60
        E 0 90 62 60
        E 120 80 3e 00
        E 0 80 4a 00
        E 0 80 56 00
        E 0 80 62 00
        E 360 90 3e 60
        E 0 90 4a 60
        E 0 90 56 60
        E 0 90 62 60
        E 120 80 3e 00
        E 0 80 4a 00
        E 0 80 56 00
        E 0 80 62 00
        E 360 90 3e 60
        E 0 90 4a 60
        E 0 90 56 60
        E 0 90 62 60
        E 120 80 3e 00
        E 0 80 4a 00
        E 0 80 56 00
        E 0 80 62 00
        E 120 90 4a 60
        E 0 90 56 60
        E 0 90 62 60
        E 120 80 4a 00
        E 0 80 56 00
        E 0 80 62 00
        E 120 90 3e 60
        E 0 90 4a 60
        E 0 90 56 60
        E 0 90 62 60
        E 120 80 3e 00
        E 0 80 4a 00
        E 0 80 56 00
        E 0 80 62 00
        E 360 90 3e 60
        E 0 90 4a 60
        E 0 90 56 60
        E 0 90 62 60
        E 120 80 3e 00
        E 0 80 4a 00
        E 0 80 56 00
        E 0 80 62 00
        E 120 90 4a 60
        E 0 90 56 60
        E 0 90 62 60
        E 120 80 4a 00
        E 0 80 56 00
        E 0 80 62 00
        E 120 90 4a 60
        E 0 90 56 60
        E 0 90 62 60
        E 120 80 4a 00
        E 0 80 56 00
        E 0 80 62 00
        E 120 90 57 60
        E 0 90 63 60
        E 120 80 57 00
        E 0 80 63 00
        E 120 90 3d 60
        E 0 90 49 60
        E 0 90 55 60
        E 0 90 61 60
        E 120 80 3d 00
        E 0 80 49 00
        E 0 80 55 00
        E 0 80 61 00
        E 360 90 3d 60
        E 0 90 49 60
        E 0 90 55 60
        E 0 90 61 60
        E 120 80 3d 00
        E 0 80 49 00
        E 0 80 55 00
        E 0 80 61 00
        E 360 90 3d 60
        E 0 90 49 60
        E 0 90 55 60
        E 0 90 61 60
        E 120 80 3d 00
        E 0 80 49 00
        E 0 80 55 00
        E 0 80 61 00
        E 360 90 3d 60
        E 0 90 49 60
        E 0 90 55 60
        E 0 90 61 60
        E 120 80 3d 00
        E 0 80 49 00
        E 0 80 55 00
        E 0 80 61 00
        E 360 90 3d 60
        E 0 90 49 60
        E 0 90 55 60
        E 0 90 61 60
        E 120 80 3d 00
        E 0 80 49 00
        E 0 80 55 00
        E 0 80 61 00
        E 120 90 49 60
        E 0 90 55 60
        E 0 90 61 60
        E 120 80 49 00
        E 0 80 55 00
        E 0 80 61 00
        E 120 90 3d 60
        E 0 90 49 60
        E 0 90 55 60
        E 0 90 61 60
        E 120 80 3d 00
        E 0 80 49 00
        E 0 80 55 00
        E 0 80 61 00
        E 360 90 3d 60
        E 0 90 49 60
        E 0 90 55 60
        E 0 90 61 60
        E 120 80 3d 00
        E 0 80 49 00
        E 0 80 55 00
        E 0 80 61 00
        E 120 90 49 60
        E 0 90 55 60
        E 0 90 61 60
        E 120 80 49 00
        E 0 80 55 00
        E 0 80 61 00
        E 120 90 49 60
        E 0 90 55 60
        E 0 90 61 60
        E 120 80 49 00
        E 0 80 55 00
        E 0 80 61 00
        E 120 90 55 60
        E 0 90 61 60
        E 120 80 55 00
        E 0 80 61 00
        E 120 90 3c 60
        E 0 90 48 60
        E 0 90 54 60
        E 0 90 60 60
        E 0 90 74 60
        E 120 80 3c 00
        E 0 80 48 00
        E 0 80 54 00
        E 0 80 60 00
        E 360 90 3c 60
        E 0 90 48 60
        E 0 90 54 60
        E 0 90 60 60
        E 120 80 3c 00
        E 0 80 48 00
        E 0 80 54 00
        E 0 80 60 00
        E 360 90 3c 60
        E 0 90 48 60
        E 0 90 54 60
        E 0 90 60 60
        E 120 80 3c 00
        E 0 80 48 00
        E 0 80 54 00
        E 0 80 60 00
        E 360 90 3c 60
        E 0 90 48 60
        E 0 90 54 60
        E 0 90 60 60
        E 120 80 3c 00
        E 0 80 48 00
        E 0 80 54 00
        E 0 80 60 00
        E 360 90 3c 60
        E 0 90 48 60
        E 0 90 54 60
        E 0 90 60 60
        E 120 80 3c 00
        E 0 80 48 00
        E 0 80 54 00
        E 0 80 60 00
        E 120 90 48 60
        E 0 90 54 60
        E 0 90 60 60
        E 120 80 48 00
        E 0 80 54 00
        E 0 80 60 00
        E 120 90 3c 60
        E 0 90 48 60
        E 0 90 54 60
        E 0 90 60 60
        E 120 80 3c 00
        E 0 80 48 00
        E 0 80 54 00
        E 0 80 60 00
        E 360 90 3c 60
        E 0 90 48 60
        E 0 90 54 60
        E 0 90 60 60
        E 120 80 3c 00
        E 0 80 48 00
        E 0 80 54 00
        E 0 80 60 00
        E 120 90 48 60
        E 0 90 54 60
        E 0 90 60 60
        E 120 80 48 00
        E 0 80 54 00
        E 0 80 60 00
        E 120 90 48 60
        E 0 90 54 60
        E 0 90 60 60
        E 120 80 48 00
        E 0 80 54 00
        E 0 80 60 00
        E 120 90 55 60
        E 0 90 61 60
        E 120 80 55 00
        E 0 80 61 00
        E 120 90 3e 60
        E 0 90 4a 60
        E 0 90 56 60
        E 0 90 62 60
        E 120 80 74 00
        E 0 80 3e 00
        E 0 80 4a 00
        E 0 80 56 00
        E 0 80 62 00
        E 360 90 3e 60
        E 0 90 4a 60
        E 0 90 56 60
        E 0 90 62 60
        E 120 80 3e 00
        E 0 80 4a 00
        E 0 80 56 00
        E 0 80 62 00
        E 360 90 3e 60
        E 0 90 4a 60
        E 0 90 56 60
        E 0 90 62 60
        E 120 80 3e 00
        E 0 80 4a 00
        E 0 80 56 00
        E 0 80 62 00
        E 360 90 3e 60
        E 0 90 4a 60
        E 0 90 56 60
        E 0 90 62 60
        E 120 80 3e 00
        E 0 80 4a 00
        E 0 80 56 00
        E 0 80 62 00
        E 360 90 3e 60
        E 0 90 4a 60
        E 0 90 56 60
        E 0 90 62 60
        E 120 80 3e 00
        E 0 80 4a 00
        E 0 80 56 00
        E 0 80 62 00
        E 120 90 4a 60
        E 0 90 56 60
        E 0 90 62 60
        E 120 80 4a 00
        E 0 80 56 00
        E 0 80 62 00
        E 120 90 3e 60
        E 0 90 4a 60
        E 0 90 56 60
        E 0 90 62 60
        E 120 80 3e 00
        E 0 80 4a 00
        E 0 80 56 00
        E 0 80 62 00
        E 360 90 3e 60
        E 0 90 4a 60
        E 0 90 56 60
        E 0 90 62 60
        E 120 80 3e 00
        E 0 80 4a 00
        E 0 80 56 00
        E 0 80 62 00
        E 120 90 4a 60
        E 0 90 56 60
        E 0 90 62 60
        E 120 80 4a 00
        E 0 80 56 00
        E 0 80 62 00
        E 120 90 3e 60
        E 0 90 4a 60
        E 0 90 56 60
        E 0 90 62 60
        E 120 80 3e 00
        E 0 80 4a 00
        E 0 80 56 00
        E 0 80 62 00
        E 120 90 57 60
        E 0 90 63 60
        E 120 80 57 00
        E 0 80 63 00
        E 120 90 3e 60
        E 0 90 4a 60
        E 0 90 56 60
        E 0 90 62 60
        E 120 80 3e 00
        E 0 80 4a 00
        E 0 80 56 00
        E 0 80 62 00
        E 360 90 3e 60
        E 0 90 4a 60
        E 0 90 56 60
        E 0 90 62 60
        E 120 80 3e 00
        E 0 80 4a 00
        E 0 80 56 00
        E 0 80 62 00
        E 360 90 3e 60
        E 0 90 4a 60
        E 0 90 56 60
        E 0 90 62 60
        E 120 80 3e 00
        E 0 80 4a 00
        E 0 80 56 00
        E 0 80 62 00
        E 360 90 3e 60
        E 0 90 4a 60
        E 0 90 56 60
        E 0 90 62 60
        E 120 80 3e 00
        E 0 80 4a 00
        E 0 80 56 00
        E 0 80 62 00
        E 360 90 3e 60
        E 0 90 4a 60
        E 0 90 56 60
        E 0 90 62 60
        E 120 80 3e 00
        E 0 80 4a 00
        E 0 80 56 00
        E 0 80 62 00
        E 120 90 4a 60
        E 0 90 56 60
        E 0 90 62 60
        E 120 80 4a 00
        E 0 80 56 00
        E 0 80 62 00
        E 120 90 3e 60
        E 0 90 4a 60
        E 0 90 56 60
        E 0 90 62 60
        E 120 80 3e 00
        E 0 80 4a 00
        E 0 80 56 00
        E 0 80 62 00
        E 360 90 3e 60
        E 0 90 4a 60
        E 0 90 56 60
        E 0 90 62 60
        E 120 80 3e 00
        E 0 80 4a 00
        E 0 80 56 00
        E 0 80 62 00
        E 120 90 4a 60
        E 0 90 56 60
        E 0 90 62 60
        E 120 80 4a 00
        E 0 80 56 00
        E 0 80 62 00
        E 120 90 4a 60
        E 0 90 56 60
        E 0 90 62 60
        E 120 80 4a 00
        E 0 80 56 00
        E 0 80 62 00
        E 120 90 57 60
        E 0 90 63 60
        E 120 80 57 00
        E 0 80 63 00
        E 120 90 3d 60
        E 0 90 49 60
        E 0 90 55 60
        E 0 90 61 60
        E 120 80 3d 00
        E 0 80 49 00
        E 0 80 55 00
        E 0 80 61 00
        E 360 90 3d 60
        E 0 90 49 60
        E 0 90 55 60
        E 0 90 61 60
        E 120 80 3d 00
        E 0 80 49 00
        E 0 80 55 00
        E 0 80 61 00
        E 360 90 3d 60
        E 0 90 49 60
        E 0 90 55 60
        E 0 90 61 60
        E 120 80 3d 00
        E 0 80 49 00
        E 0 80 55 00
        E 0 80 61 00
        E 360 90 3d 60
        E 0 90 49 60
        E 0 90 55 60
        E 0 90 61 60
        E 120 80 3d 00
        E 0 80 49 00
        E 0 80 55 00
        E 0 80 61 00
        E 360 90 3d 60
        E 0 90 49 60
        E 0 90 55 60
        E 0 90 61 60
        E 120 80 3d 00
        E 0 80 49 00
        E 0 80 55 00
        E 0 80 61 00
        E 120 90 49 60
        E 0 90 55 60
        E 0 90 61 60
        E 120 80 49 00
        E 0 80 55 00
        E 0 80 61 00
        E 120 90 3d 60
        E 0 90 49 60
        E 0 90 55 60
        E 0 90 61 60
        E 120 80 3d 00
        E 0 80 49 00
        E 0 80 55 00
        E 0 80 61 00
        E 360 90 3d 60
        E 0 90 49 60
        E 0 90 55 60
        E 0 90 61 60
        E 120 80 3d 00
        E 0 80 49 00
        E 0 80 55 00
        E 0 80 61 00
        E 120 90 49 60
        E 0 90 55 60
        E 0 90 61 60
        E 120 80 49 00
        E 0 80 55 00
        E 0 80 61 00
        E 120 90 49 60
        E 0 90 55 60
        E 0 90 61 60
        E 120 80 49 00
        E 0 80 55 00
        E 0 80 61 00
        E 120 90 55 60
        E 0 90 61 60
        E 120 80 55 00
        E 0 80 61 00
        E 120 90 3c 60
        E 0 90 48 60
        E 0 90 54 60
        E 0 90 60 60
        E 120 80 3c 00
        E 0 80 48 00
        E 0 80 54 00
        E 0 80 60 00
        E 360 90 3c 60
        E 0 90 48 60
        E 0 90 54 60
        E 0 90 60 60
        E 120 80 3c 00
        E 0 80 48 00
        E 0 80 54 00
        E 0 80 60 00
        E 360 90 3c 60
        E 0 90 48 60
        E 0 90 54 60
        E 0 90 60 60
        E 120 80 3c 00
        E 0 80 48 00
        E 0 80 54 00
        E 0 80 60 00
        E 360 90 3c 60
        E 0 90 48 60
        E 0 90 54 60
        E 0 90 60 60
        E 120 80 3c 00
        E 0 80 48 00
        E 0 80 54 00
        E 0 80 60 00
        E 360 90 3c 60
        E 0 90 48 60
        E 0 90 54 60
        E 0 90 60 60
        E 120 80 3c 00
        E 0 80 48 00
        E 0 80 54 00
        E 0 80 60 00
        E 120 90 48 60
        E 0 90 54 60
        E 0 90 60 60
        E 120 80 48 00
        E 0 80 54 00
        E 0 80 60 00
        E 120 90 3c 60
        E 0 90 48 60
        E 0 90 54 60
        E 0 90 60 60
        E 120 80 3c 00
        E 0 80 48 00
        E 0 80 54 00
        E 0 80 60 00
        E 360 90 3c 60
        E 0 90 48 60
        E 0 90 54 60
        E 0 90 60 60
        E 120 80 3c 00
        E 0 80 48 00
        E 0 80 54 00
        E 0 80 60 00
        E 120 90 48 60
        E 0 90 54 60
        E 0 90 60 60
        E 120 80 48 00
        E 0 80 54 00
        E 0 80 60 00
        E 120 90 48 60
        E 0 90 54 60
        E 0 90 60 60
        E 120 80 48 00
        E 0 80 54 00
        E 0 80 60 00
        E 120 90 55 60
        E 0 90 61 60
        E 120 80 55 00
        E 0 80 61 00
        E 120 90 3e 60
        E 0 90 4a 60
        E 0 90 56 60
        E 0 90 62 60
        E 0 90 74 60
        E 120 80 3e 00
        E 0 80 4a 00
        E 0 80 56 00
        E 0 80 62 00
        E 360 90 3e 60
        E 0 90 4a 60
        E 0 90 56 60
        E 0 90 62 60
        E 120 80 3e 00
        E 0 80 4a 00
        E 0 80 56 00
        E 0 80 62 00
        E 360 90 3e 60
        E 0 90 4a 60
        E 0 90 56 60
        E 0 90 62 60
        E 120 80 3e 00
        E 0 80 4a 00
        E 0 80 56 00
        E 0 80 62 00
        E 360 90 3e 60
        E 0 90 4a 60
        E 0 90 56 60
        E 0 90 62 60
        E 120 80 3e 00
        E 0 80 4a 00
        E 0 80 56 00
        E 0 80 62 00
        E 360 90 3e 60
        E 0 90 4a 60
        E 0 90 56 60
        E 0 90 62 60
        E 120 80 3e 00
        E 0 80 4a 00
        E 0 80 56 00
        E 0 80 62 00
        E 120 90 4a 60
        E 0 90 56 60
        E 0 90 62 60
        E 120 80 4a 00
        E 0 80 56 00
        E 0 80 62 00
        E 120 90 3e 60
        E 0 90 4a 60
        E 0 90 56 60
        E 0 90 62 60
        E 120 80 3e 00
        E 0 80 4a 00
        E 0 80 56 00
        E 0 80 62 00
        E 360 90 3e 60
        E 0 90 4a 60
        E 0 90 56 60
        E 0 90 62 60
        E 120 80 3e 00
        E 0 80 4a 00
        E 0 80 56 00
        E 0 80 62 00
        E 120 90 4a 60
        E 0 90 56 60
        E 0 90 62 60
        E 120 80 4a 00
        E 0 80 56 00
        E 0 80 62 00
        E 120 90 4a 60
        E 0 90 56 60
        E 0 90 62 60
        E 120 80 4a 00
        E 0 80 56 00
        E 0 80 62 00
        E 120 90 57 60
        E 0 90 63 60
        E 120 80 2d 00
        E 0 80 57 00
        E 0 80 63 00
        <X 120 0
          /wFbcGxheV0=
        >
        E 0 80 74 00
        E 0 90 2b 60
        E 0 90 3c 60
        E 0 90 48 60
        E 0 90 54 60
        E 0 90 60 60
        E 120 80 3c 00
        E 0 80 48 00
        E 0 80 54 00
        E 0 80 60 00
        E 360 90 3c 60
        E 0 90 48 60
        E 0 90 54 60
        E 0 90 60 60
        E 120 80 3c 00
        E 0 80 48 00
        E 0 80 54 00
        E 0 80 60 00
        E 360 90 3c 60
        E 0 90 48 60
        E 0 90 54 60
        E 0 90 60 60
        E 120 80 3c 00
        E 0 80 48 00
        E 0 80 54 00
        E 0 80 60 00
        E 360 90 3c 60
        E 0 90 48 60
        E 0 90 54 60
        E 0 90 60 60
        E 120 80 3c 00
        E 0 80 48 00
        E 0 80 54 00
        E 0 80 60 00
        E 360 90 3c 60
        E 0 90 48 60
        E 0 90 54 60
        E 0 90 60 60
        E 120 80 3c 00
        E 0 80 48 00
        E 0 80 54 00
        E 0 80 60 00
        E 360 90 3c 60
        E 0 90 48 60
        E 0 90 54 60
        E 0 90 60 60
        E 120 80 3c 00
        E 0 80 48 00
        E 0 80 54 00
        E 0 80 60 00
        E 360 90 3c 60
        E 0 90 48 60
        E 0 90 54 60
        E 0 90 60 60
        E 120 80 3c 00
        E 0 80 48 00
        E 0 80 54 00
        E 0 80 60 00
        E 360 90 49 60
        E 0 90 55 60
        E 0 90 61 60
        E 120 80 49 00
        E 0 80 55 00
        E 0 80 61 00
        E 120 90 56 60
        E 0 90 62 60
        E 120 80 56 00
        E 0 80 62 00
        E 360 90 4a 60
        E 0 90 56 60
        E 0 90 62 60
        E 120 80 4a 00
        E 0 80 56 00
        E 0 80 62 00
        E 120 90 3e 60
        E 0 90 4a 60
        E 0 90 56 60
        E 0 90 62 60
        E 120 80 3e 00
        E 0 80 4a 00
        E 0 80 56 00
        E 0 80 62 00
        E 360 90 3e 60
        E 0 90 4a 60
        E 0 90 56 60
        E 0 90 62 60
        E 120 80 3e 00
        E 0 80 4a 00
        E 0 80 56 00
        E 0 80 62 00
        E 360 90 3e 60
        E 0 90 4a 60
        E 0 90 56 60
        E 0 90 62 60
        E 120 80 3e 00
        E 0 80 4a 00
        E 0 80 56 00
        E 0 80 62 00
        E 120 90 54 60
        E 0 90 60 60
        E 120 80 54 00
        E 0 80 60 00
        E 360 90 54 60
        E 0 90 60 60
        E 120 80 54 00
        E 0 80 60 00
        E 120 90 49 60
        E 0 90 55 60
        E 0 90 61 60
        E 120 80 49 00
        E 0 80 55 00
        E 0 80 61 00
        E 120 90 54 60
        E 0 90 60 60
        E 120 80 54 00
        E 0 80 60 00
        E 120 90 3f 60
        E 0 90 4b 60
        E 0 90 57 60
        E 0 90 63 60
        E 120 80 3f 00
        E 0 80 4b 00
        E 0 80 57 00
        E 0 80 63 00
        E 120 90 55 60
        E 0 90 61 60
        E 120 80 55 00
        E 0 80 61 00
        E 120 90 4a 60
        E 0 90 56 60
        E 0 90 62 60
        E 120 80 4a 00
        E 0 80 56 00
        E 0 80 62 00
        E 120 90 55 60
        E 0 90 61 60
        E 120 80 55 00
        E 0 80 61 00
        E 120 90 3c 60
        E 0 90 48 60
        E 0 90 54 60
        E 0 90 60 60
        E 120 80 3c 00
        E 0 80 48 00
        E 0 80 54 00
        E 0 80 60 00
        E 360 90 3c 60
        E 0 90 48 60
        E 0 90 54 60
        E 0 90 60 60
        E 120 80 3c 00
        E 0 80 48 00
        E 0 80 54 00
        E 0 80 60 00
        E 360 90 3c 60
        E 0 90 48 60
        E 0 90 54 60
        E 0 90 60 60
        E 120 80 3c 00
        E 0 80 48 00
        E 0 80 54 00
        E 0 80 60 00
        E 360 90 3c 60
        E 0 90 48 60
        E 0 90 54 60
        E 0 90 60 60
        E 120 80 3c 00
        E 0 80 48 00
        E 0 80 54 00
        E 0 80 60 00
        E 360 90 3c 60
        E 0 90 48 60
        E 0 90 54 60
        E 0 90 60 60
        E 120 80 3c 00
        E 0 80 48 00
        E 0 80 54 00
        E 0 80 60 00
        E 360 90 3c 60
        E 0 90 48 60
        E 0 90 54 60
        E 0 90 60 60
        E 120 80 3c 00
        E 0 80 48 00
        E 0 80 54 00
        E 0 80 60 00
        E 360 90 3c 60
        E 0 90 48 60
        E 0 90 54 60
        E 0 90 60 60
        E 120 80 3c 00
        E 0 80 48 00
        E 0 80 54 00
        E 0 80 60 00
        E 360 90 49 60
        E 0 90 55 60
        E 0 90 61 60
        E 120 80 49 00
        E 0 80 55 00
        E 0 80 61 00
        E 120 90 56 60
        E 0 90 62 60
        E 120 80 56 00
        E 0 80 62 00
        E 360 90 4a 60
        E 0 90 56 60
        E 0 90 62 60
        E 120 80 4a 00
        E 0 80 56 00
        E 0 80 62 00
        E 120 90 3e 60
        E 0 90 4a 60
        E 0 90 56 60
        E 0 90 62 60
        E 120 80 3e 00
        E 0 80 4a 00
        E 0 80 56 00
        E 0 80 62 00
        E 360 90 3e 60
        E 0 90 4a 60
        E 0 90 56 60
        E 0 90 62 60
        E 120 80 3e 00
        E 0 80 4a 00
        E 0 80 56 00
        E 0 80 62 00
        E 360 90 3e 60
        E 0 90 4a 60
        E 0 90 56 60
        E 0 90 62 60
        E 120 80 3e 00
        E 0 80 4a 00
        E 0 80 56 00
        E 0 80 62 00
        E 120 90 57 60
        E 0 90 63 60
        E 120 80 57 00
        E 0 80 63 00
        E 360 90 57 60
        E 0 90 63 60
        E 120 80 57 00
        E 0 80 63 00
        E 120 90 4c 60
        E 0 90 58 60
        E 0 90 64 60
        E 120 80 4c 00
        E 0 80 58 00
        E 0 80 64 00
        E 120 90 57 60
        E 0 90 63 60
        E 120 80 57 00
        E 0 80 63 00
        E 120 90 3d 60
        E 0 90 49 60
        E 0 90 55 60
        E 0 90 61 60
        E 120 80 3d 00
        E 0 80 49 00
        E 0 80 55 00
        E 0 80 61 00
        E 120 90 57 60
        E 0 90 63 60
        E 120 80 57 00
        E 0 80 63 00
        E 120 90 4a 60
        E 0 90 56 60
        E 0 90 62 60
        E 120 80 4a 00
        E 0 80 56 00
        E 0 80 62 00
        E 120 90 55 60
        E 0 90 61 60
        E 120 80 55 00
        E 0 80 61 00
        E 120 90 3c 60
        E 0 90 48 60
        E 0 90 54 60
        E 0 90 60 60
        E 120 80 3c 00
        E 0 80 48 00
        E 0 80 54 00
        E 0 80 60 00
        E 360 90 3c 60
        E 0 90 48 60
        E 0 90 54 60
        E 0 90 60 60
        E 120 80 3c 00
        E 0 80 48 00
        E 0 80 54 00
        E 0 80 60 00
        E 360 90 3c 60
        E 0 90 48 60
        E 0 90 54 60
        E 0 90 60 60
        E 120 80 3c 00
        E 0 80 48 00
        E 0 80 54 00
        E 0 80 60 00
        E 360 90 3c 60
        E 0 90 48 60
        E 0 90 54 60
        E 0 90 60 60
        E 120 80 3c 00
        E 0 80 48 00
        E 0 80 54 00
        E 0 80 60 00
        E 360 90 3c 60
        E 0 90 48 60
        E 0 90 54 60
        E 0 90 60 60
        E 120 80 3c 00
        E 0 80 48 00
        E 0 80 54 00
        E 0 80 60 00
        E 360 90 3c 60
        E 0 90 48 60
        E 0 90 54 60
        E 0 90 60 60
        E 120 80 3c 00
        E 0 80 48 00
        E 0 80 54 00
        E 0 80 60 00
        E 360 90 3c 60
        E 0 90 48 60
        E 0 90 54 60
        E 0 90 60 60
        E 120 80 3c 00
        E 0 80 48 00
        E 0 80 54 00
        E 0 80 60 00
        E 360 90 49 60
        E 0 90 55 60
        E 0 90 61 60
        E 120 80 49 00
        E 0 80 55 00
        E 0 80 61 00
        E 120 90 56 60
        E 0 90 62 60
        E 120 80 56 00
        E 0 80 62 00
        E 360 90 4a 60
        E 0 90 56 60
        E 0 90 62 60
        E 120 80 4a 00
        E 0 80 56 00
        E 0 80 62 00
        E 120 90 3e 60
        E 0 90 4a 60
        E 0 90 56 60
        E 0 90 62 60
        E 120 80 3e 00
        E 0 80 4a 00
        E 0 80 56 00
        E 0 80 62 00
        E 360 90 3e 60
        E 0 90 4a 60
        E 0 90 56 60
        E 0 90 62 60
        E 120 80 3e 00
        E 0 80 4a 00
        E 0 80 56 00
        E 0 80 62 00
        E 360 90 3e 60
        E 0 90 4a 60
        E 0 90 56 60
        E 0 90 62 60
        E 120 80 3e 00
        E 0 80 4a 00
        E 0 80 56 00
        E 0 80 62 00
        E 120 90 54 60
        E 0 90 60 60
        E 120 80 54 00
        E 0 80 60 00
        E 360 90 54 60
        E 0 90 60 60
        E 120 80 54 00
        E 0 80 60 00
        E 120 90 49 60
        E 0 90 55 60
        E 0 90 61 60
        E 120 80 49 00
        E 0 80 55 00
        E 0 80 61 00
        E 120 90 54 60
        E 0 90 60 60
        E 120 80 54 00
        E 0 80 60 00
        E 120 90 3f 60
        E 0 90 4b 60
        E 0 90 57 60
        E 0 90 63 60
        E 120 80 3f 00
        E 0 80 4b 00
        E 0 80 57 00
        E 0 80 63 00
        E 120 90 55 60
        E 0 90 61 60
        E 120 80 55 00
        E 0 80 61 00
        E 120 90 4a 60
        E 0 90 56 60
        E 0 90 62 60
        E 120 80 4a 00
        E 0 80 56 00
        E 0 80 62 00
        E 120 90 55 60
        E 0 90 61 60
        E 120 80 55 00
        E 0 80 61 00
        E 120 90 3c 60
        E 0 90 48 60
        E 0 90 54 60
        E 0 90 60 60
        E 120 80 3c 00
        E 0 80 48 00
        E 0 80 54 00
        E 0 80 60 00
        E 360 90 3c 60
        E 0 90 48 60
        E 0 90 54 60
        E 0 90 60 60
        E 120 80 3c 00
        E 0 80 48 00
        E 0 80 54 00
        E 0 80 60 00
        E 360 90 3c 60
        E 0 90 48 60
        E 0 90 54 60
        E 0 90 60 60
        E 120 80 3c 00
        E 0 80 48 00
        E 0 80 54 00
        E 0 80 60 00
        E 360 90 3c 60
        E 0 90 48 60
        E 0 90 54 60
        E 0 90 60 60
        E 120 80 3c 00
        E 0 80 48 00
        E 0 80 54 00
        E 0 80 60 00
        E 360 90 3c 60
        E 0 90 48 60
        E 0 90 54 60
        E 0 90 60 60
        E 120 80 3c 00
        E 0 80 48 00
        E 0 80 54 00
        E 0 80 60 00
        E 360 90 3c 60
        E 0 90 48 60
        E 0 90 54 60
        E 0 90 60 60
        E 120 80 3c 00
        E 0 80 48 00
        E 0 80 54 00
        E 0 80 60 00
        E 360 90 3c 60
        E 0 90 48 60
        E 0 90 54 60
        E 0 90 60 60
        E 120 80 3c 00
        E 0 80 48 00
        E 0 80 54 00
        E 0 80 60 00
        E 360 90 49 60
        E 0 90 55 60
        E 0 90 61 60
        E 120 80 49 00
        E 0 80 55 00
        E 0 80 61 00
        E 120 90 56 60
        E 0 90 62 60
        E 120 80 56 00
        E 0 80 62 00
        E 360 90 4a 60
        E 0 90 56 60
        E 0 90 62 60
        E 120 80 4a 00
        E 0 80 56 00
        E 0 80 62 00
        E 120 90 3e 60
        E 0 90 4a 60
        E 0 90 56 60
        E 0 90 62 60
        E 120 80 3e 00
        E 0 80 4a 00
        E 0 80 56 00
        E 0 80 62 00
        E 360 90 3e 60
        E 0 90 4a 60
        E 0 90 56 60
        E 0 90 62 60
        E 120 80 3e 00
        E 0 80 4a 00
        E 0 80 56 00
        E 0 80 62 00
        E 360 90 3e 60
        E 0 90 4a 60
        E 0 90 56 60
        E 0 90 62 60
        E 120 80 3e 00
        E 0 80 4a 00
        E 0 80 56 00
        E 0 80 62 00
        E 120 90 57 60
        E 0 90 63 60
        E 120 80 57 00
        E 0 80 63 00
        E 360 90 57 60
        E 0 90 63 60
        E 120 80 57 00
        E 0 80 63 00
        E 120 90 4c 60
        E 0 90 58 60
        E 0 90 64 60
        E 120 80 4c 00
        E 0 80 58 00
        E 0 80 64 00
        E 120 90 57 60
        E 0 90 63 60
        E 120 80 57 00
        E 0 80 63 00
        E 120 90 3d 60
        E 0 90 49 60
        E 0 90 55 60
        E 0 90 61 60
        E 120 80 3d 00
        E 0 80 49 00
        E 0 80 55 00
        E 0 80 61 00
        E 120 90 57 60
        E 0 90 63 60
        E 120 80 57 00
        E 0 80 63 00
        E 120 90 49 60
        E 0 90 55 60
        E 0 90 61 60
        E 120 80 49 00
        E 0 80 55 00
        E 0 80 61 00
        E 120 90 54 60
        E 0 90 60 60
        E 120 80 2b 00
        E 0 80 54 00
        E 0 80 60 00
        E 120 90 28 60
        E 0 90 3e 60
        E 0 90 4a 60
        E 0 90 56 60
        E 0 90 62 60
        E 120 80 3e 00
        E 0 80 4a 00
        E 0 80 56 00
        E 0 80 62 00
        E 360 90 3e 60
        E 0 90 4a 60
        E 0 90 56 60
        E 0 90 62 60
        E 120 80 3e 00
        E 0 80 4a 00
        E 0 80 56 00
        E 0 80 62 00
        E 360 90 3e 60
        E 0 90 4a 60
        E 0 90 56 60
        E 0 90 62 60
        E 120 80 3e 00
        E 0 80 4a 00
        E 0 80 56 00
        E 0 80 62 00
        E 360 90 3e 60
        E 0 90 4a 60
        E 0 90 56 60
        E 0 90 62 60
        E 120 80 3e 00
        E 0 80 4a 00
        E 0 80 56 00
        E 0 80 62 00
        E 360 90 3e 60
        E 0 90 4a 60
        E 0 90 56 60
        E 0 90 62 60
        E 120 80 3e 00
        E 0 80 4a 00
        E 0 80 56 00
        E 0 80 62 00
        E 360 90 4a 60
        E 0 90 56 60
        E 0 90 62 60
        E 120 80 4a 00
        E 0 80 56 00
        E 0 80 62 00
        E 360 90 3c 60
        E 0 90 48 60
        E 0 90 54 60
        E 0 90 60 60
        E 120 80 3c 00
        E 0 80 48 00
        E 0 80 54 00
        E 0 80 60 00
        E 120 90 55 60
        E 0 90 61 60
        E 120 80 55 00
        E 0 80 61 00
        E 120 90 4a 60
        E 0 90 56 60
        E 0 90 62 60
        E 120 80 4a 00
        E 0 80 56 00
        E 0 80 62 00
        E 120 90 57 60
        E 0 90 63 60
        E 120 80 57 00
        E 480 80 63 00
        E 120 90 3f 60
        E 0 90 4b 60
        E 0 90 57 60
        E 0 90 63 60
        E 120 80 3f 00
        E 0 80 4b 00
        E 0 80 57 00
        E 0 80 63 00
        E 360 90 3f 60
        E 0 90 4b 60
        E 0 90 57 60
        E 0 90 63 60
        E 120 80 3f 00
        E 0 80 4b 00
        E 0 80 57 00
        E 0 80 63 00
        E 120 90 4b 60
        E 0 90 57 60
        E 0 90 63 60
        E 120 80 4b 00
        E 0 80 57 00
        E 0 80 63 00
        E 120 90 3f 60
        E 0 90 4b 60
        E 0 90 57 60
        E 0 90 63 60
        E 120 80 3f 00
        E 0 80 4b 00
        E 0 80 57 00
        E 0 80 63 00
        E 120 90 55 60
        E 0 90 61 60
        E 120 80 55 00
        E 480 80 61 00
        E 120 90 3d 60
        E 0 90 49 60
        E 0 90 55 60
        E 0 90 61 60
        E 120 80 3d 00
        E 0 80 49 00
        E 0 80 55 00
        E 0 80 61 00
        E 120 90 57 60
        E 0 90 63 60
        E 120 80 57 00
        E 0 80 63 00
        E 360 90 57 60
        E 0 90 63 60
        E 120 80 57 00
        E 0 80 63 00
        E 120 90 3e 60
        E 0 90 4a 60
        E 0 90 56 60
        E 0 90 62 60
        E 120 80 3e 00
        E 0 80 4a 00
        E 0 80 56 00
        E 0 80 62 00
        E 120 90 54 60
        E 0 90 60 60
        E 120 80 54 00
        E 0 80 60 00
        E 120 90 3e 60
        E 0 90 4a 60
        E 0 90 56 60
        E 0 90 62 60
        E 120 80 3e 00
        E 0 80 4a 00
        E 0 80 56 00
        E 0 80 62 00
        E 360 90 3e 60
        E 0 90 4a 60
        E 0 90 56 60
        E 0 90 62 60
        E 120 80 3e 00
        E 0 80 4a 00
        E 0 80 56 00
        E 0 80 62 00
        E 360 90 3e 60
        E 0 90 4a 60
        E 0 90 56 60
        E 0 90 62 60
        E 120 80 3e 00
        E 0 80 4a 00
        E 0 80 56 00
        E 0 80 62 00
        E 360 90 3e 60
        E 0 90 4a 60
        E 0 90 56 60
        E 0 90 62 60
        E 120 80 3e 00
        E 0 80 4a 00
        E 0 80 56 00
        E 0 80 62 00
        E 360 90 3e 60
        E 0 90 4a 60
        E 0 90 56 60
        E 0 90 62 60
        E 120 80 3e 00
        E 0 80 4a 00
        E 0 80 56 00
        E 0 80 62 00
        E 360 90 4a 60
        E 0 90 56 60
        E 0 90 62 60
        E 120 80 4a 00
        E 0 80 56 00
        E 0 80 62 00
        E 360 90 3c 60
        E 0 90 48 60
        E 0 90 54 60
        E 0 90 60 60
        E 120 80 3c 00
        E 0 80 48 00
        E 0 80 54 00
        E 0 80 60 00
        E 120 90 55 60
        E 0 90 61 60
        E 120 80 55 00
        E 0 80 61 00
        E 120 90 4a 60
        E 0 90 56 60
        E 0 90 62 60
        E 120 80 4a 00
        E 0 80 56 00
        E 0 80 62 00
        E 120 90 57 60
        E 0 90 63 60
        E 120 80 57 00
        E 0 80 63 00
        E 600 90 3f 60
        E 0 90 4b 60
        E 0 90 57 60
        E 0 90 63 60
        E 120 80 3f 00
        E 0 80 4b 00
        E 0 80 57 00
        E 0 80 63 00
        E 360 90 3f 60
        E 0 90 4b 60
        E 0 90 57 60
        E 0 90 63 60
        E 120 80 3f 00
        E 0 80 4b 00
        E 0 80 57 00
        E 0 80 63 00
        E 120 90 4b 60
        E 0 90 57 60
        E 0 90 63 60
        E 120 80 4b 00
        E 0 80 57 00
        E 0 80 63 00
        E 120 90 3f 60
        E 0 90 4b 60
        E 0 90 57 60
        E 0 90 63 60
        E 120 80 3f 00
        E 0 80 4b 00
        E 0 80 57 00
        E 0 80 63 00
        E 120 90 58 60
        E 0 90 64 60
        E 120 80 58 00
        E 480 80 64 00
        E 120 90 40 60
        E 0 90 4c 60
        E 0 90 58 60
        E 0 90 64 60
        E 120 80 40 00
        E 0 80 4c 00
        E 0 80 58 00
        E 0 80 64 00
        E 120 90 55 60
        E 0 90 61 60
        E 120 80 55 00
        E 0 80 61 00
        E 360 90 49 60
        E 0 90 55 60
        E 0 90 61 60
        E 120 80 49 00
        E 0 80 55 00
        E 0 80 61 00
        E 120 90 49 60
        E 0 90 55 60
        E 0 90 61 60
        E 120 80 49 00
        E 0 80 55 00
        E 0 80 61 00
        E 120 90 55 60
        E 0 90 61 60
        E 120 80 28 00
        E 0 80 55 00
        E 0 80 61 00
        E 120 90 2d 60
        E 0 90 3e 60
        E 0 90 4a 60
        E 0 90 56 60
        E 0 90 62 60
        E 0 90 74 60
        E 120 80 3e 00
        E 0 80 4a 00
        E 0 80 56 00
        E 0 80 62 00
        E 360 90 3e 60
        E 0 90 4a 60
        E 0 90 56 60
        E 0 90 62 60
        E 120 80 3e 00
        E 0 80 4a 00
        E 0 80 56 00
        E 0 80 62 00
        E 360 90 3e 60
        E 0 90 4a 60
        E 0 90 56 60
        E 0 90 62 60
        E 120 80 3e 00
        E 0 80 4a 00
        E 0 80 56 00
        E 0 80 62 00
        E 360 90 3e 60
        E 0 90 4a 60
        E 0 90 56 60
        E 0 90 62 60
        E 120 80 3e 00
        E 0 80 4a 00
        E 0 80 56 00
        E 0 80 62 00
        E 360 90 3e 60
        E 0 90 4a 60
        E 0 90 56 60
        E 0 90 62 60
        E 120 80 3e 00
        E 0 80 4a 00
        E 0 80 56 00
        E 0 80 62 00
        E 120 90 4a 60
        E 0 90 56 60
        E 0 90 62 60
        E 120 80 4a 00
        E 0 80 56 00
        E 0 80 62 00
        E 120 90 3e 60
        E 0 90 4a 60
        E 0 90 56 60
        E 0 90 62 60
        E 120 80 3e 00
        E 0 80 4a 00
        E 0 80 56 00
        E 0 80 62 00
        E 360 90 3e 60
        E 0 90 4a 60
        E 0 90 56 60
        E 0 90 62 60
        E 120 80 3e 00
        E 0 80 4a 00
        E 0 80 56 00
        E 0 80 62 00
        E 120 90 4a 60
        E 0 90 56 60
        E 0 90 62 60
        E 120 80 4a 00
        E 0 80 56 00
        E 0 80 62 00
        E 120 90 4a 60
        E 0 90 56 60
        E 0 90 62 60
        E 120 80 4a 00
        E 0 80 56 00
        E 0 80 62 00
        E 120 90 57 60
        E 0 90 63 60
        E 120 80 57 00
        E 0 80 63 00
        E 120 80 74 00
        E 0 90 3d 60
        E 0 90 49 60
        E 0 90 55 60
        E 0 90 61 60
        E 120 80 3d 00
        E 0 80 49 00
        E 0 80 55 00
        E 0 80 61 00
        E 360 90 3d 60
        E 0 90 49 60
        E 0 90 55 60
        E 0 90 61 60
        E 120 80 3d 00
        E 0 80 49 00
        E 0 80 55 00
        E 0 80 61 00
        E 360 90 3d 60
        E 0 90 49 60
        E 0 90 55 60
        E 0 90 61 60
        E 120 80 3d 00
        E 0 80 49 00
        E 0 80 55 00
        E 0 80 61 00
        E 360 90 3d 60
        E 0 90 49 60
        E 0 90 55 60
        E 0 90 61 60
        E 120 80 3d 00
        E 0 80 49 00
        E 0 80 55 00
        E 0 80 61 00
        E 360 90 3d 60
        E 0 90 49 60
        E 0 90 55 60
        E 0 90 61 60
        E 120 80 3d 00
        E 0 80 49 00
        E 0 80 55 00
        E 0 80 61 00
        E 120 90 49 60
        E 0 90 55 60
        E 0 90 61 60
        E 120 80 49 00
        E 0 80 55 00
        E 0 80 61 00
        E 120 90 3d 60
        E 0 90 49 60
        E 0 90 55 60
        E 0 90 61 60
        E 120 80 3d 00
        E 0 80 49 00
        E 0 80 55 00
        E 0 80 61 00
        E 360 90 3d 60
        E 0 90 49 60
        E 0 90 55 60
        E 0 90 61 60
        E 120 80 3d 00
        E 0 80 49 00
        E 0 80 55 00
        E 0 80 61 00
        E 120 90 49 60
        E 0 90 55 60
        E 0 90 61 60
        E 120 80 49 00
        E 0 80 55 00
        E 0 80 61 00
        E 120 90 49 60
        E 0 90 55 60
        E 0 90 61 60
        E 120 80 49 00
        E 0 80 55 00
        E 0 80 61 00
        E 120 90 55 60
        E 0 90 61 60
        E 120 80 55 00
        E 0 80 61 00
        E 120 90 3c 60
        E 0 90 48 60
        E 0 90 54 60
        E 0 90 60 60
        E 120 80 3c 00
        E 0 80 48 00
        E 0 80 54 00
        E 0 80 60 00
        E 360 90 3c 60
        E 0 90 48 60
        E 0 90 54 60
        E 0 90 60 60
        E 120 80 3c 00
        E 0 80 48 00
        E 0 80 54 00
        E 0 80 60 00
        E 360 90 3c 60
        E 0 90 48 60
        E 0 90 54 60
        E 0 90 60 60
        E 120 80 3c 00
        E 0 80 48 00
        E 0 80 54 00
        E 0 80 60 00
        E 360 90 3c 60
        E 0 90 48 60
        E 0 90 54 60
        E 0 90 60 60
        E 120 80 3c 00
        E 0 80 48 00
        E 0 80 54 00
        E 0 80 60 00
        E 360 90 3c 60
        E 0 90 48 60
        E 0 90 54 60
        E 0 90 60 60
        E 120 80 3c 00
        E 0 80 48 00
        E 0 80 54 00
        E 0 80 60 00
        E 120 90 48 60
        E 0 90 54 60
        E 0 90 60 60
        E 120 80 48 00
        E 0 80 54 00
        E 0 80 60 00
        E 120 90 3c 60
        E 0 90 48 60
        E 0 90 54 60
        E 0 90 60 60
        E 120 80 3c 00
        E 0 80 48 00
        E 0 80 54 00
        E 0 80 60 00
        E 360 90 3c 60
        E 0 90 48 60
        E 0 90 54 60
        E 0 90 60 60
        E 120 80 3c 00
        E 0 80 48 00
        E 0 80 54 00
        E 0 80 60 00
        E 120 90 48 60
        E 0 90 54 60
        E 0 90 60 60
        E 120 80 48 00
        E 0 80 54 00
        E 0 80 60 00
        E 120 90 48 60
        E 0 90 54 60
        E 0 90 60 60
        E 120 80 48 00
        E 0 80 54 00
        E 0 80 60 00
        E 120 90 55 60
        E 0 90 61 60
        E 120 80 55 00
        E 0 80 61 00
        E 120 90 3e 60
        E 0 90 4a 60
        E 0 90 56 60
        E 0 90 62 60
        E 120 80 3e 00
        E 0 80 4a 00
        E 0 80 56 00
        E 0 80 62 00
        E 360 90 3e 60
        E 0 90 4a 60
        E 0 90 56 60
        E 0 90 62 60
        E 120 80 3e 00
        E 0 80 4a 00
        E 0 80 56 00
        E 0 80 62 00
        E 360 90 3e 60
        E 0 90 4a 60
        E 0 90 56 60
        E 0 90 62 60
        E 120 80 3e 00
        E 0 80 4a 00
        E 0 80 56 00
        E 0 80 62 00
        E 360 90 3e 60
        E 0 90 4a 60
        E 0 90 56 60
        E 0 90 62 60
        E 120 80 3e 00
        E 0 80 4a 00
        E 0 80 56 00
        E 0 80 62 00
        E 360 90 3e 60
        E 0 90 4a 60
        E 0 90 56 60
        E 0 90 62 60
        E 120 80 3e 00
        E 0 80 4a 00
        E 0 80 56 00
        E 0 80 62 00
        E 120 90 4a 60
        E 0 90 56 60
        E 0 90 62 60
        E 120 80 4a 00
        E 0 80 56 00
        E 0 80 62 00
        E 120 90 3e 60
        E 0 90 4a 60
        E 0 90 56 60
        E 0 90 62 60
        E 120 80 3e 00
        E 0 80 4a 00
        E 0 80 56 00
        E 0 80 62 00
        E 360 90 3e 60
        E 0 90 4a 60
        E 0 90 56 60
        E 0 90 62 60
        E 120 80 3e 00
        E 0 80 4a 00
        E 0 80 56 00
        E 0 80 62 00
        E 120 90 4a 60
        E 0 90 56 60
        E 0 90 62 60
        E 120 80 4a 00
        E 0 80 56 00
        E 0 80 62 00
        E 120 90 3e 60
        E 0 90 4a 60
        E 0 90 56 60
        E 0 90 62 60
        E 120 80 3e 00
        E 0 80 4a 00
        E 0 80 56 00
        E 0 80 62 00
        E 120 90 57 60
        E 0 90 63 60
        E 120 80 57 00
        E 0 80 63 00
        E 120 90 3e 60
        E 0 90 4a 60
        E 0 90 56 60
        E 0 90 62 60
        E 120 80 3e 00
        E 0 80 4a 00
        E 0 80 56 00
        E 0 80 62 00
        E 360 90 3e 60
        E 0 90 4a 60
        E 0 90 56 60
        E 0 90 62 60
        E 120 80 3e 00
        E 0 80 4a 00
        E 0 80 56 00
        E 0 80 62 00
        E 360 90 3e 60
        E 0 90 4a 60
        E 0 90 56 60
        E 0 90 62 60
        E 120 80 3e 00
        E 0 80 4a 00
        E 0 80 56 00
        E 0 80 62 00
        E 360 90 3e 60
        E 0 90 4a 60
        E 0 90 56 60
        E 0 90 62 60
        E 120 80 3e 00
        E 0 80 4a 00
        E 0 80 56 00
        E 0 80 62 00
        E 360 90 3e 60
        E 0 90 4a 60
        E 0 90 56 60
        E 0 90 62 60
        E 120 80 3e 00
        E 0 80 4a 00
        E 0 80 56 00
        E 0 80 62 00
        E 120 90 4a 60
        E 0 90 56 60
        E 0 90 62 60
        E 120 80 4a 00
        E 0 80 56 00
        E 0 80 62 00
        E 120 90 3e 60
        E 0 90 4a 60
        E 0 90 56 60
        E 0 90 62 60
        E 120 80 3e 00
        E 0 80 4a 00
        E 0 80 56 00
        E 0 80 62 00
        E 360 90 3e 60
        E 0 90 4a 60
        E 0 90 56 60
        E 0 90 62 60
        E 120 80 3e 00
        E 0 80 4a 00
        E 0 80 56 00
        E 0 80 62 00
        E 120 90 4a 60
        E 0 90 56 60
        E 0 90 62 60
        E 120 80 4a 00
        E 0 80 56 00
        E 0 80 62 00
        E 120 90 4a 60
        E 0 90 56 60
        E 0 90 62 60
        E 120 80 4a 00
        E 0 80 56 00
        E 0 80 62 00
        E 120 90 57 60
        E 0 90 63 60
        E 120 80 57 00
        E 0 80 63 00
        E 120 90 3d 60
        E 0 90 49 60
        E 0 90 55 60
        E 0 90 61 60
        E 120 80 3d 00
        E 0 80 49 00
        E 0 80 55 00
        E 0 80 61 00
        E 360 90 3d 60
        E 0 90 49 60
        E 0 90 55 60
        E 0 90 61 60
        E 120 80 3d 00
        E 0 80 49 00
        E 0 80 55 00
        E 0 80 61 00
        E 360 90 3d 60
        E 0 90 49 60
        E 0 90 55 60
        E 0 90 61 60
        E 120 80 3d 00
        E 0 80 49 00
        E 0 80 55 00
        E 0 80 61 00
        E 360 90 3d 60
        E 0 90 49 60
        E 0 90 55 60
        E 0 90 61 60
        E 120 80 3d 00
        E 0 80 49 00
        E 0 80 55 00
        E 0 80 61 00
        E 360 90 3d 60
        E 0 90 49 60
        E 0 90 55 60
        E 0 90 61 60
        E 120 80 3d 00
        E 0 80 49 00
        E 0 80 55 00
        E 0 80 61 00
        E 120 90 49 60
        E 0 90 55 60
        E 0 90 61 60
        E 120 80 49 00
        E 0 80 55 00
        E 0 80 61 00
        E 120 90 3d 60
        E 0 90 49 60
        E 0 90 55 60
        E 0 90 61 60
        E 120 80 3d 00
        E 0 80 49 00
        E 0 80 55 00
        E 0 80 61 00
        E 360 90 3d 60
        E 0 90 49 60
        E 0 90 55 60
        E 0 90 61 60
        E 120 80 3d 00
        E 0 80 49 00
        E 0 80 55 00
        E 0 80 61 00
        E 120 90 49 60
        E 0 90 55 60
        E 0 90 61 60
        E 120 80 49 00
        E 0 80 55 00
        E 0 80 61 00
        E 120 90 49 60
        E 0 90 55 60
        E 0 90 61 60
        E 120 80 49 00
        E 0 80 55 00
        E 0 80 61 00
        E 120 90 55 60
        E 0 90 61 60
        E 120 80 55 00
        E 0 80 61 00
        E 120 90 3c 60
        E 0 90 48 60
        E 0 90 54 60
        E 0 90 60 60
        E 120 80 3c 00
        E 0 80 48 00
        E 0 80 54 00
        E 0 80 60 00
        E 360 90 3c 60
        E 0 90 48 60
        E 0 90 54 60
        E 0 90 60 60
        E 120 80 3c 00
        E 0 80 48 00
        E 0 80 54 00
        E 0 80 60 00
        E 360 90 3c 60
        E 0 90 48 60
        E 0 90 54 60
        E 0 90 60 60
        E 120 80 3c 00
        E 0 80 48 00
        E 0 80 54 00
        E 0 80 60 00
        E 360 90 3c 60
        E 0 90 48 60
        E 0 90 54 60
        E 0 90 60 60
        E 120 80 3c 00
        E 0 80 48 00
        E 0 80 54 00
        E 0 80 60 00
        E 360 90 3c 60
        E 0 90 48 60
        E 0 90 54 60
        E 0 90 60 60
        E 120 80 3c 00
        E 0 80 48 00
        E 0 80 54 00
        E 0 80 60 00
        E 120 90 48 60
        E 0 90 54 60
        E 0 90 60 60
        E 120 80 48 00
        E 0 80 54 00
        E 0 80 60 00
        E 120 90 3c 60
        E 0 90 48 60
        E 0 90 54 60
        E 0 90 60 60
        E 120 80 3c 00
        E 0 80 48 00
        E 0 80 54 00
        E 0 80 60 00
        E 360 90 3c 60
        E 0 90 48 60
        E 0 90 54 60
        E 0 90 60 60
        E 120 80 3c 00
        E 0 80 48 00
        E 0 80 54 00
        E 0 80 60 00
        E 120 90 48 60
        E 0 90 54 60
        E 0 90 60 60
        E 120 80 48 00
        E 0 80 54 00
        E 0 80 60 00
        E 120 90 48 60
        E 0 90 54 60
        E 0 90 60 60
        E 120 80 48 00
        E 0 80 54 00
        E 0 80 60 00
        E 120 90 55 60
        E 0 90 61 60
        E 120 80 55 00
        E 0 80 61 00
        E 120 90 3e 60
        E 0 90 4a 60
        E 0 90 56 60
        E 0 90 62 60
        E 120 80 3e 00
        E 0 80 4a 00
        E 0 80 56 00
        E 0 80 62 00
        E 360 90 3e 60
        E 0 90 4a 60
        E 0 90 56 60
        E 0 90 62 60
        E 120 80 3e 00
        E 0 80 4a 00
        E 0 80 56 00
        E 0 80 62 00
        E 360 90 3e 60
        E 0 90 4a 60
        E 0 90 56 60
        E 0 90 62 60
        E 120 80 3e 00
        E 0 80 4a 00
        E 0 80 56 00
        E 0 80 62 00
        E 360 90 3e 60
        E 0 90 4a 60
        E 0 90 56 60
        E 0 90 62 60
        E 120 80 3e 00
        E 0 80 4a 00
        E 0 80 56 00
        E 0 80 62 00
        E 360 90 3e 60
        E 0 90 4a 60
        E 0 90 56 60
        E 0 90 62 60
        E 120 80 3e 00
        E 0 80 4a 00
        E 0 80 56 00
        E 0 80 62 00
        E 120 90 4a 60
        E 0 90 56 60
        E 0 90 62 60
        E 120 80 4a 00
        E 0 80 56 00
        E 0 80 62 00
        E 120 90 3e 60
        E 0 90 4a 60
        E 0 90 56 60
        E 0 90 62 60
        E 120 80 3e 00
        E 0 80 4a 00
        E 0 80 56 00
        E 0 80 62 00
        E 360 90 3e 60
        E 0 90 4a 60
        E 0 90 56 60
        E 0 90 62 60
        E 120 80 3e 00
        E 0 80 4a 00
        E 0 80 56 00
        E 0 80 62 00
        E 120 90 4a 60
        E 0 90 56 60
        E 0 90 62 60
        E 120 80 4a 00
        E 0 80 56 00
        E 0 80 62 00
        E 120 90 4a 60
        E 0 90 56 60
        E 0 90 62 60
        E 120 80 4a 00
        E 0 80 56 00
        E 0 80 62 00
        E 120 90 57 60
        E 0 90 63 60
        E 120 80 2d 00
        E 0 80 57 00
        E 0 80 63 00
        E 120 90 2b 60
        E 0 90 3c 60
        E 0 90 48 60
        E 0 90 54 60
        E 0 90 60 60
        E 120 80 3c 00
        E 0 80 48 00
        E 0 80 54 00
        E 0 80 60 00
        E 360 90 3c 60
        E 0 90 48 60
        E 0 90 54 60
        E 0 90 60 60
        E 120 80 3c 00
        E 0 80 48 00
        E 0 80 54 00
        E 0 80 60 00
        E 360 90 3c 60
        E 0 90 48 60
        E 0 90 54 60
        E 0 90 60 60
        E 120 80 3c 00
        E 0 80 48 00
        E 0 80 54 00
        E 0 80 60 00
        E 360 90 3c 60
        E 0 90 48 60
        E 0 90 54 60
        E 0 90 60 60
        E 120 80 3c 00
        E 0 80 48 00
        E 0 80 54 00
        E 0 80 60 00
        E 360 90 3c 60
        E 0 90 48 60
        E 0 90 54 60
        E 0 90 60 60
        E 120 80 3c 00
        E 0 80 48 00
        E 0 80 54 00
        E 0 80 60 00
        E 360 90 3c 60
        E 0 90 48 60
        E 0 90 54 60
        E 0 90 60 60
        E 120 80 3c 00
        E 0 80 48 00
        E 0 80 54 00
        E 0 80 60 00
        E 360 90 3c 60
        E 0 90 48 60
        E 0 90 54 60
        E 0 90 60 60
        E 120 80 3c 00
        E 0 80 48 00
        E 0 80 54 00
        E 0 80 60 00
        E 360 90 49 60
        E 0 90 55 60
        E 0 90 61 60
        E 120 80 49 00
        E 0 80 55 00
        E 0 80 61 00
        E 120 90 56 60
        E 0 90 62 60
        E 120 80 56 00
        E 0 80 62 00
        E 120 90 74 60
        E 240 90 4a 60
        E 0 90 56 60
        E 0 90 62 60
        E 120 80 4a 00
        E 0 80 56 00
        E 0 80 62 00
        E 120 90 3e 60
        E 0 90 4a 60
        E 0 90 56 60
        E 0 90 62 60
        E 120 80 3e 00
        E 0 80 4a 00
        E 0 80 56 00
        E 0 80 62 00
        E 360 90 3e 60
        E 0 90 4a 60
        E 0 90 56 60
        E 0 90 62 60
        E 120 80 3e 00
        E 0 80 4a 00
        E 0 80 56 00
        E 0 80 62 00
        E 360 90 3e 60
        E 0 90 4a 60
        E 0 90 56 60
        E 0 90 62 60
        E 120 80 3e 00
        E 0 80 4a 00
        E 0 80 56 00
        E 0 80 62 00
        E 120 90 54 60
        E 0 90 60 60
        E 120 80 54 00
        E 0 80 60 00
        E 360 90 54 60
        E 0 90 60 60
        E 120 80 54 00
        E 0 80 60 00
        E 120 90 49 60
        E 0 90 55 60
        E 0 90 61 60
        E 120 80 49 00
        E 0 80 55 00
        E 0 80 61 00
        E 120 90 54 60
        E 0 90 60 60
        E 120 80 54 00
        E 0 80 60 00
        E 120 90 3f 60
        E 0 90 4b 60
        E 0 90 57 60
        E 0 90 63 60
        E 120 80 3f 00
        E 0 80 4b 00
        E 0 80 57 00
        E 0 80 63 00
        E 120 90 55 60
        E 0 90 61 60
        E 120 80 55 00
        E 0 80 61 00
        E 120 90 4a 60
        E 0 90 56 60
        E 0 90 62 60
        E 120 80 4a 00
        E 0 80 56 00
        E 0 80 62 00
        E 120 90 55 60
        E 0 90 61 60
        E 120 80 55 00
        E 0 80 61 00
        E 120 80 74 00
        E 0 90 3c 60
        E 0 90 48 60
        E 0 90 54 60
        E 0 90 60 60
        E 120 80 3c 00
        E 0 80 48 00
        E 0 80 54 00
        E 0 80 60 00
        E 360 90 3c 60
        E 0 90 48 60
        E 0 90 54 60
        E 0 90 60 60
        E 120 80 3c 00
        E 0 80 48 00
        E 0 80 54 00
        E 0 80 60 00
        E 360 90 3c 60
        E 0 90 48 60
        E 0 90 54 60
        E 0 90 60 60
        E 120 80 3c 00
        E 0 80 48 00
        E 0 80 54 00
        E 0 80 60 00
        E 360 90 3c 60
        E 0 90 48 60
        E 0 90 54 60
        E 0 90 60 60
        E 120 80 3c 00
        E 0 80 48 00
        E 0 80 54 00
        E 0 80 60 00
        E 360 90 3c 60
        E 0 90 48 60
        E 0 90 54 60
        E 0 90 60 60
        E 120 80 3c 00
        E 0 80 48 00
        E 0 80 54 00
        E 0 80 60 00
        E 360 90 3c 60
        E 0 90 48 60
        E 0 90 54 60
        E 0 90 60 60
        E 120 80 3c 00
        E 0 80 48 00
        E 0 80 54 00
        E 0 80 60 00
        E 360 90 3c 60
        E 0 90 48 60
        E 0 90 54 60
        E 0 90 60 60
        E 120 80 3c 00
        E 0 80 48 00
        E 0 80 54 00
        E 0 80 60 00
        E 360 90 49 60
        E 0 90 55 60
        E 0 90 61 60
        E 120 80 49 00
        E 0 80 55 00
        E 0 80 61 00
        E 120 90 56 60
        E 0 90 62 60
        E 120 80 56 00
        E 0 80 62 00
        E 360 90 4a 60
        E 0 90 56 60
        E 0 90 62 60
        E 120 80 4a 00
        E 0 80 56 00
        E 0 80 62 00
        E 120 90 3e 60
        E 0 90 4a 60
        E 0 90 56 60
        E 0 90 62 60
        E 120 80 3e 00
        E 0 80 4a 00
        E 0 80 56 00
        E 0 80 62 00
        E 360 90 3e 60
        E 0 90 4a 60
        E 0 90 56 60
        E 0 90 62 60
        E 120 80 3e 00
        E 0 80 4a 00
        E 0 80 56 00
        E 0 80 62 00
        E 360 90 3e 60
        E 0 90 4a 60
        E 0 90 56 60
        E 0 90 62 60
        E 120 80 3e 00
        E 0 80 4a 00
        E 0 80 56 00
        E 0 80 62 00
        E 120 90 57 60
        E 0 90 63 60
        E 120 80 57 00
        E 0 80 63 00
        E 360 90 57 60
        E 0 90 63 60
        E 120 80 57 00
        E 0 80 63 00
        E 120 90 4c 60
        E 0 90 58 60
        E 0 90 64 60
        E 120 80 4c 00
        E 0 80 58 00
        E 0 80 64 00
        E 120 90 57 60
        E 0 90 63 60
        E 120 80 57 00
        E 0 80 63 00
        E 120 90 3d 60
        E 0 90 49 60
        E 0 90 55 60
        E 0 90 61 60
        E 120 80 3d 00
        E 0 80 49 00
        E 0 80 55 00
        E 0 80 61 00
        E 120 90 57 60
        E 0 90 63 60
        E 120 80 57 00
        E 0 80 63 00
        E 120 90 4a 60
        E 0 90 56 60
        E 0 90 62 60
        E 120 80 4a 00
        E 0 80 56 00
        E 0 80 62 00
        E 120 90 55 60
        E 0 90 61 60
        E 120 80 55 00
        E 0 80 61 00
        E 120 90 3c 60
        E 0 90 48 60
        E 0 90 54 60
        E 0 90 60 60
        E 120 80 3c 00
        E 0 80 48 00
        E 0 80 54 00
        E 0 80 60 00
        E 360 90 3c 60
        E 0 90 48 60
        E 0 90 54 60
        E 0 90 60 60
        E 120 80 3c 00
        E 0 80 48 00
        E 0 80 54 00
        E 0 80 60 00
        E 360 90 3c 60
        E 0 90 48 60
        E 0 90 54 60
        E 0 90 60 60
        E 120 80 3c 00
        E 0 80 48 00
        E 0 80 54 00
        E 0 80 60 00
        E 360 90 3c 60
        E 0 90 48 60
        E 0 90 54 60
        E 0 90 60 60
        E 120 80 3c 00
        E 0 80 48 00
        E 0 80 54 00
        E 0 80 60 00
        E 360 90 3c 60
        E 0 90 48 60
        E 0 90 54 60
        E 0 90 60 60
        E 120 80 3c 00
        E 0 80 48 00
        E 0 80 54 00
        E 0 80 60 00
        E 360 90 3c 60
        E 0 90 48 60
        E 0 90 54 60
        E 0 90 60 60
        E 120 80 3c 00
        E 0 80 48 00
        E 0 80 54 00
        E 0 80 60 00
        E 360 90 3c 60
        E 0 90 48 60
        E 0 90 54 60
        E 0 90 60 60
        E 120 80 3c 00
        E 0 80 48 00
        E 0 80 54 00
        E 0 80 60 00
        E 360 90 49 60
        E 0 90 55 60
        E 0 90 61 60
        E 120 80 49 00
        E 0 80 55 00
        E 0 80 61 00
        E 120 90 56 60
        E 0 90 62 60
        E 120 80 56 00
        E 0 80 62 00
        E 360 90 4a 60
        E 0 90 56 60
        E 0 90 62 60
        E 120 80 4a 00
        E 0 80 56 00
        E 0 80 62 00
        E 120 90 3e 60
        E 0 90 4a 60
        E 0 90 56 60
        E 0 90 62 60
        E 120 80 3e 00
        E 0 80 4a 00
        E 0 80 56 00
        E 0 80 62 00
        E 360 90 3e 60
        E 0 90 4a 60
        E 0 90 56 60
        E 0 90 62 60
        E 120 80 3e 00
        E 0 80 4a 00
        E 0 80 56 00
        E 0 80 62 00
        E 360 90 3e 60
        E 0 90 4a 60
        E 0 90 56 60
        E 0 90 62 60
        E 120 80 3e 00
        E 0 80 4a 00
        E 0 80 56 00
        E 0 80 62 00
        E 120 90 54 60
        E 0 90 60 60
        E 120 80 54 00
        E 0 80 60 00
        E 360 90 54 60
        E 0 90 60 60
        E 120 80 54 00
        E 0 80 60 00
        E 120 90 49 60
        E 0 90 55 60
        E 0 90 61 60
        E 120 80 49 00
        E 0 80 55 00
        E 0 80 61 00
        E 120 90 54 60
        E 0 90 60 60
        E 120 80 54 00
        E 0 80 60 00
        E 120 90 3f 60
        E 0 90 4b 60
        E 0 90 57 60
        E 0 90 63 60
        E 120 80 3f 00
        E 0 80 4b 00
        E 0 80 57 00
        E 0 80 63 00
        E 120 90 55 60
        E 0 90 61 60
        E 120 80 55 00
        E 0 80 61 00
        E 120 90 4a 60
        E 0 90 56 60
        E 0 90 62 60
        E 120 80 4a 00
        E 0 80 56 00
        E 0 80 62 00
        E 120 90 55 60
        E 0 90 61 60
        E 120 80 55 00
        E 0 80 61 00
        E 120 90 3c 60
        E 0 90 48 60
        E 0 90 54 60
        E 0 90 60 60
        E 120 80 3c 00
        E 0 80 48 00
        E 0 80 54 00
        E 0 80 60 00
        E 360 90 3c 60
        E 0 90 48 60
        E 0 90 54 60
        E 0 90 60 60
        E 120 80 3c 00
        E 0 80 48 00
        E 0 80 54 00
        E 0 80 60 00
        E 360 90 3c 60
        E 0 90 48 60
        E 0 90 54 60
        E 0 90 60 60
        E 120 80 3c 00
        E 0 80 48 00
        E 0 80 54 00
        E 0 80 60 00
        E 360 90 3c 60
        E 0 90 48 60
        E 0 90 54 60
        E 0 90 60 60
        E 120 80 3c 00
        E 0 80 48 00
        E 0 80 54 00
        E 0 80 60 00
        E 360 90 3c 60
        E 0 90 48 60
        E 0 90 54 60
        E 0 90 60 60
        E 120 80 3c 00
        E 0 80 48 00
        E 0 80 54 00
        E 0 80 60 00
        E 360 90 3c 60
        E 0 90 48 60
        E 0 90 54 60
        E 0 90 60 60
        E 120 80 3c 00
        E 0 80 48 00
        E 0 80 54 00
        E 0 80 60 00
        E 360 90 3c 60
        E 0 90 48 60
        E 0 90 54 60
        E 0 90 60 60
        E 120 80 3c 00
        E 0 80 48 00
        E 0 80 54 00
        E 0 80 60 00
        E 360 90 49 60
        E 0 90 55 60
        E 0 90 61 60
        E 120 80 49 00
        E 0 80 55 00
        E 0 80 61 00
        E 120 90 56 60
        E 0 90 62 60
        E 120 80 56 00
        E 0 80 62 00
        E 360 90 4a 60
        E 0 90 56 60
        E 0 90 62 60
        E 120 80 4a 00
        E 0 80 56 00
        E 0 80 62 00
        E 120 90 3e 60
        E 0 90 4a 60
        E 0 90 56 60
        E 0 90 62 60
        E 120 80 3e 00
        E 0 80 4a 00
        E 0 80 56 00
        E 0 80 62 00
        E 360 90 3e 60
        E 0 90 4a 60
        E 0 90 56 60
        E 0 90 62 60
        E 120 80 3e 00
        E 0 80 4a 00
        E 0 80 56 00
        E 0 80 62 00
        E 360 90 3e 60
        E 0 90 4a 60
        E 0 90 56 60
        E 0 90 62 60
        E 120 80 3e 00
        E 0 80 4a 00
        E 0 80 56 00
        E 0 80 62 00
        E 120 90 57 60
        E 0 90 63 60
        E 120 80 57 00
        E 0 80 63 00
        E 360 90 57 60
        E 0 90 63 60
        E 120 80 57 00
        E 0 80 63 00
        E 120 90 4c 60
        E 0 90 58 60
        E 0 90 64 60
        E 120 80 4c 00
        E 0 80 58 00
        E 0 80 64 00
        E 120 90 57 60
        E 0 90 63 60
        E 120 80 57 00
        E 0 80 63 00
        E 120 90 3d 60
        E 0 90 49 60
        E 0 90 55 60
        E 0 90 61 60
        E 120 80 3d 00
        E 0 80 49 00
        E 0 80 55 00
        E 0 80 61 00
        E 120 90 57 60
        E 0 90 63 60
        E 120 80 57 00
        E 0 80 63 00
        E 120 90 3d 60
        E 0 90 49 60
        E 0 90 55 60
        E 0 90 61 60
        E 120 80 3d 00
        E 0 80 49 00
        E 0 80 55 00
        E 0 80 61 00
        E 120 90 54 60
        E 0 90 60 60
        E 120 80 54 00
        E 0 80 60 00
        E 120 90 3d 60
        E 0 90 49 60
        E 0 90 55 60
        E 0 90 61 60
        E 0 90 74 60
        E 120 80 3d 00
        E 0 80 49 00
        E 0 80 55 00
        E 0 80 61 00
        E 360 90 3d 60
        E 0 90 49 60
        E 0 90 55 60
        E 0 90 61 60
        E 120 80 3d 00
        E 0 80 49 00
        E 0 80 55 00
        E 0 80 61 00
        E 360 90 3d 60
        E 0 90 49 60
        E 0 90 55 60
        E 0 90 61 60
        E 120 80 3d 00
        E 0 80 49 00
        E 0 80 55 00
        E 0 80 61 00
        E 360 90 3d 60
        E 0 90 49 60
        E 0 90 55 60
        E 0 90 61 60
        E 120 80 3d 00
        E 0 80 49 00
        E 0 80 55 00
        E 0 80 61 00
        E 360 90 3d 60
        E 0 90 49 60
        E 0 90 55 60
        E 0 90 61 60
        E 120 80 3d 00
        E 0 80 49 00
        E 0 80 55 00
        E 0 80 61 00
        E 360 90 3d 60
        E 0 90 49 60
        E 0 90 55 60
        E 0 90 61 60
        E 120 80 3d 00
        E 0 80 49 00
        E 0 80 55 00
        E 0 80 61 00
        E 360 90 3d 60
        E 0 90 49 60
        E 0 90 55 60
        E 0 90 61 60
        E 120 80 3d 00
        E 0 80 49 00
        E 0 80 55 00
        E 0 80 61 00
        E 120 90 49 60
        E 0 90 55 60
        E 0 90 61 60
        E 120 80 49 00
        E 0 80 55 00
        E 0 80 61 00
        E 360 90 4a 60
        E 0 90 56 60
        E 0 90 62 60
        E 120 80 4a 00
        E 0 80 56 00
        E 480 80 62 00
        E 120 90 3e 60
        E 0 90 4a 60
        E 0 90 56 60
        E 0 90 62 60
        E 120 80 3e 00
        E 0 80 4a 00
        E 0 80 56 00
        E 0 80 62 00
        E 360 90 3e 60
        E 0 90 4a 60
        E 0 90 56 60
        E 0 90 62 60
        E 120 80 3e 00
        E 0 80 4a 00
        E 0 80 56 00
        E 0 80 62 00
        E 120 90 4a 60
        E 0 90 56 60
        E 0 90 62 60
        E 120 80 4a 00
        E 0 80 56 00
        E 0 80 62 00
        E 120 90 3e 60
        E 0 90 4a 60
        E 0 90 56 60
        E 0 90 62 60
        E 120 80 3e 00
        E 0 80 4a 00
        E 0 80 56 00
        E 0 80 62 00
        E 120 90 4a 60
        E 0 90 56 60
        E 0 90 62 60
        E 120 80 4a 00
        E 0 80 56 00
        E 480 80 62 00
        E 120 90 3e 60
        E 0 90 4a 60
        E 0 90 56 60
        E 0 90 62 60
        E 120 80 3e 00
        E 0 80 4a 00
        E 0 80 56 00
        E 0 80 62 00
        E 120 90 4a 60
        E 0 90 56 60
        E 0 90 62 60
        E 120 80 4a 00
        E 0 80 56 00
        E 0 80 62 00
        E 360 90 4a 60
        E 0 90 56 60
        E 0 90 62 60
        E 120 80 4a 00
        E 0 80 56 00
        E 0 80 62 00
        E 120 90 4a 60
        E 0 90 56 60
        E 0 90 62 60
        E 120 80 4a 00
        E 0 80 56 00
        E 0 80 62 00
        E 120 90 56 60
        E 0 90 62 60
        E 120 80 56 00
        E 0 80 62 00
        E 120 80 74 00
        E 0 90 3f 60
        E 0 90 4b 60
        E 0 90 57 60
        E 0 90 63 60
        E 120 80 3f 00
        E 0 80 4b 00
        E 0 80 57 00
        E 0 80 63 00
        E 360 90 3f 60
        E 0 90 4b 60
        E 0 90 57 60
        E 0 90 63 60
        E 120 80 3f 00
        E 0 80 4b 00
        E 0 80 57 00
        E 0 80 63 00
        E 360 90 3f 60
        E 0 90 4b 60
        E 0 90 57 60
        E 0 90 63 60
        E 120 80 3f 00
        E 0 80 4b 00
        E 0 80 57 00
        E 0 80 63 00
        E 360 90 3f 60
        E 0 90 4b 60
        E 0 90 57 60
        E 0 90 63 60
        E 120 80 3f 00
        E 0 80 4b 00
        E 0 80 57 00
        E 0 80 63 00
        E 360 90 3f 60
        E 0 90 4b 60
        E 0 90 57 60
        E 0 90 63 60
        E 120 80 3f 00
        E 0 80 4b 00
        E 0 80 57 00
        E 0 80 63 00
        E 360 90 3f 60
        E 0 90 4b 60
        E 0 90 57 60
        E 0 90 63 60
        E 120 80 3f 00
        E 0 80 4b 00
        E 0 80 57 00
        E 0 80 63 00
        E 360 90 3f 60
        E 0 90 4b 60
        E 0 90 57 60
        E 0 90 63 60
        E 120 80 3f 00
        E 0 80 4b 00
        E 0 80 57 00
        E 0 80 63 00
        E 120 90 4b 60
        E 0 90 57 60
        E 0 90 63 60
        E 120 80 4b 00
        E 0 80 57 00
        E 0 80 63 00
        E 360 90 4c 60
        E 0 90 58 60
        E 0 90 64 60
        E 120 80 4c 00
        E 0 80 58 00
        E 480 80 64 00
        E 120 90 40 60
        E 0 90 4c 60
        E 0 90 58 60
        E 0 90 64 60
        E 120 80 40 00
        E 0 80 4c 00
        E 0 80 58 00
        E 0 80 64 00
        E 360 90 40 60
        E 0 90 4c 60
        E 0 90 58 60
        E 0 90 64 60
        E 120 80 40 00
        E 0 80 4c 00
        E 0 80 58 00
        E 0 80 64 00
        E 120 90 4c 60
        E 0 90 58 60
        E 0 90 64 60
        E 120 80 4c 00
        E 0 80 58 00
        E 0 80 64 00
        E 120 90 40 60
        E 0 90 4c 60
        E 0 90 58 60
        E 0 90 64 60
        E 120 80 40 00
        E 0 80 4c 00
        E 0 80 58 00
        E 0 80 64 00
        E 120 90 4c 60
        E 0 90 58 60
        E 0 90 64 60
        E 120 80 4c 00
        E 0 80 58 00
        E 480 80 64 00
        E 120 90 40 60
        E 0 90 4c 60
        E 0 90 58 60
        E 0 90 64 60
        E 120 80 40 00
        E 0 80 4c 00
        E 0 80 58 00
        E 0 80 64 00
        E 120 90 54 60
        E 0 90 60 60
        E 120 80 54 00
        E 0 80 60 00
        E 360 90 48 60
        E 0 90 54 60
        E 0 90 60 60
        E 120 80 48 00
        E 0 80 54 00
        E 0 80 60 00
        E 120 90 48 60
        E 0 90 54 60
        E 0 90 60 60
        E 120 80 48 00
        E 0 80 54 00
        E 0 80 60 00
        E 120 90 54 60
        E 0 90 60 60
        E 120 80 54 00
        E 0 80 60 00
        E 120 90 3d 60
        E 0 90 49 60
        E 0 90 55 60
        E 0 90 61 60
        E 120 80 3d 00
        E 0 80 49 00
        E 0 80 55 00
        E 0 80 61 00
        E 360 90 3d 60
        E 0 90 49 60
        E 0 90 55 60
        E 0 90 61 60
        E 120 80 3d 00
        E 0 80 49 00
        E 0 80 55 00
        E 0 80 61 00
        E 360 90 3d 60
        E 0 90 49 60
        E 0 90 55 60
        E 0 90 61 60
        E 120 80 3d 00
        E 0 80 49 00
        E 0 80 55 00
        E 0 80 61 00
        E 360 90 3d 60
        E 0 90 49 60
        E 0 90 55 60
        E 0 90 61 60
        E 120 80 3d 00
        E 0 80 49 00
        E 0 80 55 00
        E 0 80 61 00
        E 360 90 3d 60
        E 0 90 49 60
        E 0 90 55 60
        E 0 90 61 60
        E 120 80 3d 00
        E 0 80 49 00
        E 0 80 55 00
        E 0 80 61 00
        E 360 90 3d 60
        E 0 90 49 60
        E 0 90 55 60
        E 0 90 61 60
        E 120 80 3d 00
        E 0 80 49 00
        E 0 80 55 00
        E 0 80 61 00
        E 360 90 3d 60
        E 0 90 49 60
        E 0 90 55 60
        E 0 90 61 60
        E 120 80 3d 00
        E 0 80 49 00
        E 0 80 55 00
        E 0 80 61 00
        E 120 90 49 60
        E 0 90 55 60
        E 0 90 61 60
        E 120 80 49 00
        E 0 80 55 00
        E 0 80 61 00
        E 360 90 4a 60
        E 0 90 56 60
        E 0 90 62 60
        E 120 80 4a 00
        E 0 80 56 00
        E 480 80 62 00
        E 120 90 3e 60
        E 0 90 4a 60
        E 0 90 56 60
        E 0 90 62 60
        E 120 80 3e 00
        E 0 80 4a 00
        E 0 80 56 00
        E 0 80 62 00
        E 360 90 3e 60
        E 0 90 4a 60
        E 0 90 56 60
        E 0 90 62 60
        E 120 80 3e 00
        E 0 80 4a 00
        E 0 80 56 00
        E 0 80 62 00
        E 120 90 4a 60
        E 0 90 56 60
        E 0 90 62 60
        E 120 80 4a 00
        E 0 80 56 00
        E 0 80 62 00
        E 120 90 3e 60
        E 0 90 4a 60
        E 0 90 56 60
        E 0 90 62 60
        E 120 80 3e 00
        E 0 80 4a 00
        E 0 80 56 00
        E 0 80 62 00
        E 120 90 4a 60
        E 0 90 56 60
        E 0 90 62 60
        E 120 80 4a 00
        E 0 80 56 00
        E 480 80 62 00
        E 120 90 3e 60
        E 0 90 4a 60
        E 0 90 56 60
        E 0 90 62 60
        E 120 80 3e 00
        E 0 80 4a 00
        E 0 80 56 00
        E 0 80 62 00
        E 120 90 4a 60
        E 0 90 56 60
        E 0 90 62 60
        E 120 80 4a 00
        E 0 80 56 00
        E 0 80 62 00
        E 360 90 4a 60
        E 0 90 56 60
        E 0 90 62 60
        E 120 80 4a 00
        E 0 80 56 00
        E 0 80 62 00
        E 120 90 4a 60
        E 0 90 56 60
        E 0 90 62 60
        E 120 80 4a 00
        E 0 80 56 00
        E 0 80 62 00
        E 120 90 56 60
        E 0 90 62 60
        E 120 80 56 00
        E 0 80 62 00
        E 120 90 3f 60
        E 0 90 4b 60
        E 0 90 57 60
        E 0 90 63 60
        E 120 80 3f 00
        E 0 80 4b 00
        E 0 80 57 00
        E 0 80 63 00
        E 360 90 3f 60
        E 0 90 4b 60
        E 0 90 57 60
        E 0 90 63 60
        E 120 80 3f 00
        E 0 80 4b 00
        E 0 80 57 00
        E 0 80 63 00
        E 360 90 3f 60
        E 0 90 4b 60
        E 0 90 57 60
        E 0 90 63 60
        E 120 80 3f 00
        E 0 80 4b 00
        E 0 80 57 00
        E 0 80 63 00
        E 360 90 3f 60
        E 0 90 4b 60
        E 0 90 57 60
        E 0 90 63 60
        E 120 80 3f 00
        E 0 80 4b 00
        E 0 80 57 00
        E 0 80 63 00
        E 360 90 3f 60
        E 0 90 4b 60
        E 0 90 57 60
        E 0 90 63 60
        E 120 80 3f 00
        E 0 80 4b 00
        E 0 80 57 00
        E 0 80 63 00
        E 360 90 3f 60
        E 0 90 4b 60
        E 0 90 57 60
        E 0 90 63 60
        E 120 80 3f 00
        E 0 80 4b 00
        E 0 80 57 00
        E 0 80 63 00
        E 360 90 3f 60
        E 0 90 4b 60
        E 0 90 57 60
        E 0 90 63 60
        E 120 80 3f 00
        E 0 80 4b 00
        E 0 80 57 00
        E 0 80 63 00
        E 120 90 4b 60
        E 0 90 57 60
        E 0 90 63 60
        E 120 80 4b 00
        E 0 80 57 00
        E 0 80 63 00
        E 360 90 4c 60
        E 0 90 58 60
        E 0 90 64 60
        E 120 80 4c 00
        E 0 80 58 00
        E 480 80 64 00
        E 120 90 40 60
        E 0 90 4c 60
        E 0 90 58 60
        E 0 90 64 60
        E 120 80 40 00
        E 0 80 4c 00
        E 0 80 58 00
        E 0 80 64 00
        E 360 90 40 60
        E 0 90 4c 60
        E 0 90 58 60
        E 0 90 64 60
        E 120 80 40 00
        E 0 80 4c 00
        E 0 80 58 00
        E 0 80 64 00
        E 120 90 4c 60
        E 0 90 58 60
        E 0 90 64 60
        E 120 80 4c 00
        E 0 80 58 00
        E 0 80 64 00
        E 120 90 40 60
        E 0 90 4c 60
        E 0 90 58 60
        E 0 90 64 60
        E 120 80 40 00
        E 0 80 4c 00
        E 0 80 58 00
        E 0 80 64 00
        E 120 90 4c 60
        E 0 90 58 60
        E 0 90 64 60
        E 120 80 4c 00
        E 0 80 58 00
        E 480 80 64 00
        E 120 90 40 60
        E 0 90 4c 60
        E 0 90 58 60
        E 0 90 64 60
        E 120 80 40 00
        E 0 80 4c 00
        E 0 80 58 00
        E 0 80 64 00
        E 120 90 54 60
        E 0 90 60 60
        E 120 80 54 00
        E 0 80 60 00
        E 360 90 48 60
        E 0 90 54 60
        E 0 90 60 60
        E 120 80 48 00
        E 0 80 54 00
        E 0 80 60 00
        E 120 90 48 60
        E 0 90 54 60
        E 0 90 60 60
        E 120 80 48 00
        E 0 80 54 00
        E 0 80 60 00
        E 120 90 54 60
        E 0 90 60 60
        E 120 80 54 00
        E 0 80 60 00
        E 120 90 3d 60
        E 0 90 49 60
        E 0 90 55 60
        E 0 90 61 60
        E 120 80 3d 00
        E 0 80 49 00
        E 0 80 55 00
        E 0 80 61 00
        E 360 90 3d 60
        E 0 90 49 60
        E 0 90 55 60
        E 0 90 61 60
        E 120 80 3d 00
        E 0 80 49 00
        E 0 80 55 00
        E 0 80 61 00
        E 360 90 3d 60
        E 0 90 49 60
        E 0 90 55 60
        E 0 90 61 60
        E 120 80 3d 00
        E 0 80 49 00
        E 0 80 55 00
        E 0 80 61 00
        E 360 90 3d 60
        E 0 90 49 60
        E 0 90 55 60
        E 0 90 61 60
        E 120 80 3d 00
        E 0 80 49 00
        E 0 80 55 00
        E 0 80 61 00
        E 360 90 3d 60
        E 0 90 49 60
        E 0 90 55 60
        E 0 90 61 60
        E 120 80 3d 00
        E 0 80 49 00
        E 0 80 55 00
        E 0 80 61 00
        E 360 90 3d 60
        E 0 90 49 60
        E 0 90 55 60
        E 0 90 61 60
        E 120 80 3d 00
        E 0 80 49 00
        E 0 80 55 00
        E 0 80 61 00
        E 360 90 3d 60
        E 0 90 49 60
        E 0 90 55 60
        E 0 90 61 60
        E 120 80 3d 00
        E 0 80 49 00
        E 0 80 55 00
        E 0 80 61 00
        E 120 90 49 60
        E 0 90 55 60
        E 0 90 61 60
        E 120 80 49 00
        E 0 80 55 00
        E 0 80 61 00
        E 120 90 3d 60
        E 0 90 49 60
        E 0 90 55 60
        E 0 90 61 60
        E 120 80 3d 00
        E 0 80 49 00
        E 0 80 55 00
        E 0 80 61 00
        E 120 90 56 60
        E 0 90 62 60
        E 120 80 56 00
        E 480 80 62 00
        E 120 90 3e 60
        E 0 90 4a 60
        E 0 90 56 60
        E 0 90 62 60
        E 120 80 3e 00
        E 0 80 4a 00
        E 0 80 56 00
        E 0 80 62 00
        E 360 90 3e 60
        E 0 90 4a 60
        E 0 90 56 60
        E 0 90 62 60
        E 120 80 3e 00
        E 0 80 4a 00
        E 0 80 56 00
        E 0 80 62 00
        E 120 90 4a 60
        E 0 90 56 60
        E 0 90 62 60
        E 120 80 4a 00
        E 0 80 56 00
        E 0 80 62 00
        E 120 90 3e 60
        E 0 90 4a 60
        E 0 90 56 60
        E 0 90 62 60
        E 120 80 3e 00
        E 0 80 4a 00
        E 0 80 56 00
        E 0 80 62 00
        E 120 90 4a 60
        E 0 90 56 60
        E 0 90 62 60
        E 120 80 4a 00
        E 0 80 56 00
        E 480 80 62 00
        E 120 90 3e 60
        E 0 90 4a 60
        E 0 90 56 60
        E 0 90 62 60
        E 120 80 3e 00
        E 0 80 4a 00
        E 0 80 56 00
        E 0 80 62 00
        E 120 90 4a 60
        E 0 90 56 60
        E 0 90 62 60
        E 120 80 4a 00
        E 0 80 56 00
        E 0 80 62 00
        E 360 90 4a 60
        E 0 90 56 60
        E 0 90 62 60
        E 120 80 4a 00
        E 0 80 56 00
        E 0 80 62 00
        E 120 90 4a 60
        E 0 90 56 60
        E 0 90 62 60
        E 120 80 4a 00
        E 0 80 56 00
        E 0 80 62 00
        E 120 90 56 60
        E 0 90 62 60
        E 120 80 56 00
        E 0 80 62 00
        E 120 90 3d 60
        E 0 90 49 60
        E 0 90 55 60
        E 0 90 61 60
        E 120 80 3d 00
        E 0 80 49 00
        E 0 80 55 00
        E 0 80 61 00
        E 360 90 3d 60
        E 0 90 49 60
        E 0 90 55 60
        E 0 90 61 60
        E 120 80 3d 00
        E 0 80 49 00
        E 0 80 55 00
        E 0 80 61 00
        E 360 90 3d 60
        E 0 90 49 60
        E 0 90 55 60
        E 0 90 61 60
        E 120 80 3d 00
        E 0 80 49 00
        E 0 80 55 00
        E 0 80 61 00
        E 360 90 3d 60
        E 0 90 49 60
        E 0 90 55 60
        E 0 90 61 60
        E 120 80 3d 00
        E 0 80 49 00
        E 0 80 55 00
        E 0 80 61 00
        E 360 90 3d 60
        E 0 90 49 60
        E 0 90 55 60
        E 0 90 61 60
        E 120 80 3d 00
        E 0 80 49 00
        E 0 80 55 00
        E 0 80 61 00
        E 360 90 3d 60
        E 0 90 49 60
        E 0 90 55 60
        E 0 90 61 60
        E 120 80 3d 00
        E 0 80 49 00
        E 0 80 55 00
        E 0 80 61 00
        E 360 90 3d 60
        E 0 90 49 60
        E 0 90 55 60
        E 0 90 61 60
        E 120 80 3d 00
        E 0 80 49 00
        E 0 80 55 00
        E 0 80 61 00
        E 120 90 49 60
        E 0 90 55 60
        E 0 90 61 60
        E 120 80 49 00
        E 0 80 55 00
        E 0 80 61 00
        E 120 90 3d 60
        E 0 90 49 60
        E 0 90 55 60
        E 0 90 61 60
        E 120 80 3d 00
        E 0 80 49 00
        E 0 80 55 00
        E 0 80 61 00
        E 120 90 56 60
        E 0 90 62 60
        E 120 80 56 00
        E 480 80 62 00
        E 120 90 3e 60
        E 0 90 4a 60
        E 0 90 56 60
        E 0 90 62 60
        E 120 80 3e 00
        E 0 80 4a 00
        E 0 80 56 00
        E 0 80 62 00
        E 360 90 3e 60
        E 0 90 4a 60
        E 0 90 56 60
        E 0 90 62 60
        E 120 80 3e 00
        E 0 80 4a 00
        E 0 80 56 00
        E 0 80 62 00
        E 120 90 4a 60
        E 0 90 56 60
        E 0 90 62 60
        E 120 80 4a 00
        E 0 80 56 00
        E 0 80 62 00
        E 120 90 3e 60
        E 0 90 4a 60
        E 0 90 56 60
        E 0 90 62 60
        E 120 80 3e 00
        E 0 80 4a 00
        E 0 80 56 00
        E 0 80 62 00
        E 120 90 4a 60
        E 0 90 56 60
        E 0 90 62 60
        E 120 80 4a 00
        E 0 80 56 00
        E 480 80 62 00
        E 120 90 3e 60
        E 0 90 4a 60
        E 0 90 56 60
        E 0 90 62 60
        E 120 80 3e 00
        E 0 80 4a 00
        E 0 80 56 00
        E 0 80 62 00
        E 120 90 4a 60
        E 0 90 56 60
        E 0 90 62 60
        E 120 80 4a 00
        E 0 80 56 00
        E 0 80 62 00
        E 360 90 4a 60
        E 0 90 56 60
        E 0 90 62 60
        E 120 80 4a 00
        E 0 80 56 00
        E 0 80 62 00
        E 120 90 4a 60
        E 0 90 56 60
        E 0 90 62 60
        E 120 80 4a 00
        E 0 80 56 00
        E 0 80 62 00
        E 120 90 56 60
        E 0 90 62 60
        E 120 80 56 00
        E 0 80 62 00
        E 120 90 3d 60
        E 0 90 49 60
        E 0 90 55 60
        E 0 90 61 60
        E 120 80 3d 00
        E 0 80 49 00
        E 0 80 55 00
        E 0 80 61 00
        E 360 90 3d 60
        E 0 90 49 60
        E 0 90 55 60
        E 0 90 61 60
        E 120 80 3d 00
        E 0 80 49 00
        E 0 80 55 00
        E 0 80 61 00
        E 360 90 3d 60
        E 0 90 49 60
        E 0 90 55 60
        E 0 90 61 60
        E 120 80 3d 00
        E 0 80 49 00
        E 0 80 55 00
        E 0 80 61 00
        E 360 90 3d 60
        E 0 90 49 60
        E 0 90 55 60
        E 0 90 61 60
        E 120 80 3d 00
        E 0 80 49 00
        E 0 80 55 00
        E 0 80 61 00
        E 360 90 3d 60
        E 0 90 49 60
        E 0 90 55 60
        E 0 90 61 60
        E 120 80 3d 00
        E 0 80 49 00
        E 0 80 55 00
        E 0 80 61 00
        E 360 90 3d 60
        E 0 90 49 60
        E 0 90 55 60
        E 0 90 61 60
        E 120 80 3d 00
        E 0 80 49 00
        E 0 80 55 00
        E 0 80 61 00
        E 360 90 3d 60
        E 0 90 49 60
        E 0 90 55 60
        E 0 90 61 60
        E 120 80 3d 00
        E 0 80 49 00
        E 0 80 55 00
        E 0 80 61 00
        E 120 90 49 60
        E 0 90 55 60
        E 0 90 61 60
        E 120 80 49 00
        E 0 80 55 00
        E 0 80 61 00
        E 120 90 3d 60
        E 0 90 49 60
        E 0 90 55 60
        E 0 90 61 60
        E 120 80 3d 00
        E 0 80 49 00
        E 0 80 55 00
        E 0 80 61 00
        E 120 90 56 60
        E 0 90 62 60
        E 120 80 56 00
        E 480 80 62 00
        E 120 90 3e 60
        E 0 90 4a 60
        E 0 90 56 60
        E 0 90 62 60
        E 120 80 3e 00
        E 0 80 4a 00
        E 0 80 56 00
        E 0 80 62 00
        E 360 90 3e 60
        E 0 90 4a 60
        E 0 90 56 60
        E 0 90 62 60
        E 120 80 3e 00
        E 0 80 4a 00
        E 0 80 56 00
        E 0 80 62 00
        E 120 90 4a 60
        E 0 90 56 60
        E 0 90 62 60
        E 120 80 4a 00
        E 0 80 56 00
        E 0 80 62 00
        E 120 90 3e 60
        E 0 90 4a 60
        E 0 90 56 60
        E 0 90 62 60
        E 120 80 3e 00
        E 0 80 4a 00
        E 0 80 56 00
        E 0 80 62 00
        E 120 90 4a 60
        E 0 90 56 60
        E 0 90 62 60
        E 120 80 4a 00
        E 0 80 56 00
        E 480 80 62 00
        E 120 90 3e 60
        E 0 90 4a 60
        E 0 90 56 60
        E 0 90 62 60
        E 120 80 3e 00
        E 0 80 4a 00
        E 0 80 56 00
        E 0 80 62 00
        E 120 90 4a 60
        E 0 90 56 60
        E 0 90 62 60
        E 120 80 4a 00
        E 0 80 56 00
        E 0 80 62 00
        E 360 90 4a 60
        E 0 90 56 60
        E 0 90 62 60
        E 120 80 4a 00
        E 0 80 56 00
        E 0 80 62 00
        E 120 90 4a 60
        E 0 90 56 60
        E 0 90 62 60
        E 120 80 4a 00
        E 0 80 56 00
        E 0 80 62 00
        E 120 90 56 60
        E 0 90 62 60
        E 120 80 56 00
        E 0 80 62 00
        E 120 90 3d 60
        E 0 90 49 60
        E 0 90 55 60
        E 0 90 61 60
        E 120 80 3d 00
        E 0 80 49 00
        E 0 80 55 00
        E 0 80 61 00
        E 360 90 3d 60
        E 0 90 49 60
        E 0 90 55 60
        E 0 90 61 60
        E 120 80 3d 00
        E 0 80 49 00
        E 0 80 55 00
        E 0 80 61 00
        E 360 90 3d 60
        E 0 90 49 60
        E 0 90 55 60
        E 0 90 61 60
        E 120 80 3d 00
        E 0 80 49 00
        E 0 80 55 00
        E 0 80 61 00
        E 360 90 3d 60
        E 0 90 49 60
        E 0 90 55 60
        E 0 90 61 60
        E 120 80 3d 00
        E 0 80 49 00
        E 0 80 55 00
        E 0 80 61 00
        E 360 90 3d 60
        E 0 90 49 60
        E 0 90 55 60
        E 0 90 61 60
        E 120 80 3d 00
        E 0 80 49 00
        E 0 80 55 00
        E 0 80 61 00
        E 360 90 3d 60
        E 0 90 49 60
        E 0 90 55 60
        E 0 90 61 60
        E 120 80 3d 00
        E 0 80 49 00
        E 0 80 55 00
        E 0 80 61 00
        E 360 90 3d 60
        E 0 90 49 60
        E 0 90 55 60
        E 0 90 61 60
        E 120 80 3d 00
        E 0 80 49 00
        E 0 80 55 00
        E 0 80 61 00
        E 120 90 49 60
        E 0 90 55 60
        E 0 90 61 60
        E 120 80 49 00
        E 0 80 55 00
        E 0 80 61 00
        E 120 90 3d 60
        E 0 90 49 60
        E 0 90 55 60
        E 0 90 61 60
        E 120 80 3d 00
        E 0 80 49 00
        E 0 80 55 00
        E 0 80 61 00
        E 120 90 56 60
        E 0 90 62 60
        E 120 80 56 00
        E 120 90 74 60
        E 360 80 62 00
        E 120 90 3e 60
        E 0 90 4a 60
        E 0 90 56 60
        E 0 90 62 60
        E 120 80 3e 00
        E 0 80 4a 00
        E 0 80 56 00
        E 0 80 62 00
        E 360 90 3e 60
        E 0 90 4a 60
        E 0 90 56 60
        E 0 90 62 60
        E 120 80 3e 00
        E 0 80 4a 00
        E 0 80 56 00
        E 0 80 62 00
        E 120 90 4a 60
        E 0 90 56 60
        E 0 90 62 60
        E 120 80 4a 00
        E 0 80 56 00
        E 0 80 62 00
        E 120 90 3e 60
        E 0 90 4a 60
        E 0 90 56 60
        E 0 90 62 60
        E 120 80 3e 00
        E 0 80 4a 00
        E 0 80 56 00
        E 0 80 62 00
        E 120 90 4a 60
        E 0 90 56 60
        E 0 90 62 60
        E 120 80 4a 00
        E 0 80 56 00
        E 480 80 62 00
        E 120 90 3e 60
        E 0 90 4a 60
        E 0 90 56 60
        E 0 90 62 60
        E 120 80 3e 00
        E 0 80 4a 00
        E 0 80 56 00
        E 0 80 62 00
        E 120 90 4a 60
        E 0 90 56 60
        E 0 90 62 60
        E 120 80 4a 00
        E 0 80 56 00
        E 0 80 62 00
        E 360 90 4a 60
        E 0 90 56 60
        E 0 90 62 60
        E 120 80 4a 00
        E 0 80 56 00
        E 0 80 62 00
        E 120 90 4a 60
        E 0 90 56 60
        E 0 90 62 60
        E 120 80 4a 00
        E 0 80 56 00
        E 0 80 62 00
        E 120 90 56 60
        E 0 90 62 60
        E 120 80 56 00
        E 0 80 62 00
        <X 120 0
          /wFbbWVsbG93XQ==
        >
        E 0 90 3d 60
        E 0 90 49 60
        E 0 90 55 60
        E 0 90 61 60
        E 120 80 74 00
        E 0 80 3d 00
        E 0 80 49 00
        E 0 80 55 00
        E 0 80 61 00
        E 360 90 3d 60
        E 0 90 49 60
        E 0 90 55 60
        E 0 90 61 60
        E 120 80 3d 00
        E 0 80 49 00
        E 0 80 55 00
        E 0 80 61 00
        E 360 90 3d 60
        E 0 90 49 60
        E 0 90 55 60
        E 0 90 61 60
        E 120 80 3d 00
        E 0 80 49 00
        E 0 80 55 00
        E 0 80 61 00
        E 360 90 3d 60
        E 0 90 49 60
        E 0 90 55 60
        E 0 90 61 60
        E 120 80 3d 00
        E 0 80 49 00
        E 0 80 55 00
        E 0 80 61 00
        E 360 90 3d 60
        E 0 90 49 60
        E 0 90 55 60
        E 0 90 61 60
        E 120 80 3d 00
        E 0 80 49 00
        E 0 80 55 00
        E 0 80 61 00
        E 360 90 3d 60
        E 0 90 49 60
        E 0 90 55 60
        E 0 90 61 60
        E 120 80 3d 00
        E 0 80 49 00
        E 0 80 55 00
        E 0 80 61 00
        E 360 90 3d 60
        E 0 90 49 60
        E 0 90 55 60
        E 0 90 61 60
        E 120 80 3d 00
        E 0 80 49 00
        E 0 80 55 00
        E 0 80 61 00
        E 120 90 49 60
        E 0 90 55 60
        E 0 90 61 60
        E 120 80 49 00
        E 0 80 55 00
        E 0 80 61 00
        E 360 90 4a 60
        E 0 90 56 60
        E 0 90 62 60
        E 120 80 4a 00
        E 0 80 56 00
        E 480 80 62 00
        E 120 90 3e 60
        E 0 90 4a 60
        E 0 90 56 60
        E 0 90 62 60
        E 120 80 3e 00
        E 0 80 4a 00
        E 0 80 56 00
        E 0 80 62 00
        E 360 90 3e 60
        E 0 90 4a 60
        E 0 90 56 60
        E 0 90 62 60
        E 120 80 3e 00
        E 0 80 4a 00
        E 0 80 56 00
        E 0 80 62 00
        E 120 90 4a 60
        E 0 90 56 60
        E 0 90 62 60
        E 120 80 4a 00
        E 0 80 56 00
        E 0 80 62 00
        E 120 90 3e 60
        E 0 90 4a 60
        E 0 90 56 60
        E 0 90 62 60
        E 120 80 3e 00
        E 0 80 4a 00
        E 0 80 56 00
        E 0 80 62 00
        E 120 90 4a 60
        E 0 90 56 60
        E 0 90 62 60
        E 120 80 4a 00
        E 0 80 56 00
        E 480 80 62 00
        E 120 90 3e 60
        E 0 90 4a 60
        E 0 90 56 60
        E 0 90 62 60
        E 120 80 3e 00
        E 0 80 4a 00
        E 0 80 56 00
        E 0 80 62 00
        E 120 90 4a 60
        E 0 90 56 60
        E 0 90 62 60
        E 120 80 4a 00
        E 0 80 56 00
        E 0 80 62 00
        E 360 90 4a 60
        E 0 90 56 60
        E 0 90 62 60
        E 120 80 4a 00
        E 0 80 56 00
        E 0 80 62 00
        E 120 90 4a 60
        E 0 90 56 60
        E 0 90 62 60
        E 120 80 4a 00
        E 0 80 56 00
        E 0 80 62 00
        E 120 90 56 60
        E 0 90 62 60
        E 120 80 56 00
        E 0 80 62 00
        E 120 90 3f 60
        E 0 90 4b 60
        E 0 90 57 60
        E 0 90 63 60
        E 120 80 3f 00
        E 0 80 4b 00
        E 0 80 57 00
        E 0 80 63 00
        E 360 90 3f 60
        E 0 90 4b 60
        E 0 90 57 60
        E 0 90 63 60
        E 120 80 3f 00
        E 0 80 4b 00
        E 0 80 57 00
        E 0 80 63 00
        E 360 90 3f 60
        E 0 90 4b 60
        E 0 90 57 60
        E 0 90 63 60
        E 120 80 3f 00
        E 0 80 4b 00
        E 0 80 57 00
        E 0 80 63 00
        E 360 90 3f 60
        E 0 90 4b 60
        E 0 90 57 60
        E 0 90 63 60
        E 120 80 3f 00
        E 0 80 4b 00
        E 0 80 57 00
        E 0 80 63 00
        E 360 90 3f 60
        E 0 90 4b 60
        E 0 90 57 60
        E 0 90 63 60
        E 120 80 3f 00
        E 0 80 4b 00
        E 0 80 57 00
        E 0 80 63 00
        E 360 90 3f 60
        E 0 90 4b 60
        E 0 90 57 60
        E 0 90 63 60
        E 120 80 3f 00
        E 0 80 4b 00
        E 0 80 57 00
        E 0 80 63 00
        E 360 90 3f 60
        E 0 90 4b 60
        E 0 90 57 60
        E 0 90 63 60
        E 120 80 3f 00
        E 0 80 4b 00
        E 0 80 57 00
        E 0 80 63 00
        E 120 90 4b 60
        E 0 90 57 60
        E 0 90 63 60
        E 120 80 4b 00
        E 0 80 57 00
        E 0 80 63 00
        E 360 90 4c 60
        E 0 90 58 60
        E 0 90 64 60
        E 120 80 4c 00
        E 0 80 58 00
        E 480 80 64 00
        E 120 90 40 60
        E 0 90 4c 60
        E 0 90 58 60
        E 0 90 64 60
        E 120 80 40 00
        E 0 80 4c 00
        E 0 80 58 00
        E 0 80 64 00
        E 360 90 40 60
        E 0 90 4c 60
        E 0 90 58 60
        E 0 90 64 60
        E 120 80 40 00
        E 0 80 4c 00
        E 0 80 58 00
        E 0 80 64 00
        E 120 90 4c 60
        E 0 90 58 60
        E 0 90 64 60
        E 120 80 4c 00
        E 0 80 58 00
        E 0 80 64 00
        E 120 90 40 60
        E 0 90 4c 60
        E 0 90 58 60
        E 0 90 64 60
        E 120 80 40 00
        E 0 80 4c 00
        E 0 80 58 00
        E 0 80 64 00
        E 120 90 4c 60
        E 0 90 58 60
        E 0 90 64 60
        E 120 80 4c 00
        E 0 80 58 00
        E 480 80 64 00
        E 120 90 40 60
        E 0 90 4c 60
        E 0 90 58 60
        E 0 90 64 60
        E 120 80 40 00
        E 0 80 4c 00
        E 0 80 58 00
        E 0 80 64 00
        E 120 90 54 60
        E 0 90 60 60
        E 120 80 54 00
        E 0 80 60 00
        E 360 90 48 60
        E 0 90 54 60
        E 0 90 60 60
        E 120 80 48 00
        E 0 80 54 00
        E 0 80 60 00
        E 120 90 48 60
        E 0 90 54 60
        E 0 90 60 60
        E 120 80 48 00
        E 0 80 54 00
        E 0 80 60 00
        E 120 90 54 60
        E 0 90 60 60
        E 120 80 54 00
        E 0 80 60 00
        E 120 90 3d 60
        E 0 90 49 60
        E 0 90 55 60
        E 0 90 61 60
        E 120 80 3d 00
        E 0 80 49 00
        E 0 80 55 00
        E 0 80 61 00
        E 360 90 3d 60
        E 0 90 49 60
        E 0 90 55 60
        E 0 90 61 60
        E 120 80 3d 00
        E 0 80 49 00
        E 0 80 55 00
        E 0 80 61 00
        E 360 90 3d 60
        E 0 90 49 60
        E 0 90 55 60
        E 0 90 61 60
        E 120 80 3d 00
        E 0 80 49 00
        E 0 80 55 00
        E 0 80 61 00
        E 360 90 3d 60
        E 0 90 49 60
        E 0 90 55 60
        E 0 90 61 60
        E 120 80 3d 00
        E 0 80 49 00
        E 0 80 55 00
        E 0 80 61 00
        E 360 90 3d 60
        E 0 90 49 60
        E 0 90 55 60
        E 0 90 61 60
        E 120 80 3d 00
        E 0 80 49 00
        E 0 80 55 00
        E 0 80 61 00
        E 360 90 3d 60
        E 0 90 49 60
        E 0 90 55 60
        E 0 90 61 60
        E 120 80 3d 00
        E 0 80 49 00
        E 0 80 55 00
        E 0 80 61 00
        E 360 90 3d 60
        E 0 90 49 60
        E 0 90 55 60
        E 0 90 61 60
        E 120 80 3d 00
        E 0 80 49 00
        E 0 80 55 00
        E 0 80 61 00
        E 120 90 49 60
        E 0 90 55 60
        E 0 90 61 60
        E 120 80 49 00
        E 0 80 55 00
        E 0 80 61 00
        E 360 90 4a 60
        E 0 90 56 60
        E 0 90 62 60
        E 120 80 4a 00
        E 0 80 56 00
        E 480 80 62 00
        E 120 90 3e 60
        E 0 90 4a 60
        E 0 90 56 60
        E 0 90 62 60
        E 120 80 3e 00
        E 0 80 4a 00
        E 0 80 56 00
        E 0 80 62 00
        E 360 90 3e 60
        E 0 90 4a 60
        E 0 90 56 60
        E 0 90 62 60
        E 120 80 3e 00
        E 0 80 4a 00
        E 0 80 56 00
        E 0 80 62 00
        E 120 90 4a 60
        E 0 90 56 60
        E 0 90 62 60
        E 120 80 4a 00
        E 0 80 56 00
        E 0 80 62 00
        E 120 90 3e 60
        E 0 90 4a 60
        E 0 90 56 60
        E 0 90 62 60
        E 120 80 3e 00
        E 0 80 4a 00
        E 0 80 56 00
        E 0 80 62 00
        E 120 90 4a 60
        E 0 90 56 60
        E 0 90 62 60
        E 120 80 4a 00
        E 0 80 56 00
        E 480 80 62 00
        E 120 90 3e 60
        E 0 90 4a 60
        E 0 90 56 60
        E 0 90 62 60
        E 120 80 3e 00
        E 0 80 4a 00
        E 0 80 56 00
        E 0 80 62 00
        E 120 90 4a 60
        E 0 90 56 60
        E 0 90 62 60
        E 120 80 4a 00
        E 0 80 56 00
        E 0 80 62 00
        E 360 90 4a 60
        E 0 90 56 60
        E 0 90 62 60
        E 120 80 4a 00
        E 0 80 56 00
        E 0 80 62 00
        E 120 90 4a 60
        E 0 90 56 60
        E 0 90 62 60
        E 120 80 4a 00
        E 0 80 56 00
        E 0 80 62 00
        E 120 90 56 60
        E 0 90 62 60
        E 120 80 56 00
        E 0 80 62 00
        E 120 90 3f 60
        E 0 90 4b 60
        E 0 90 57 60
        E 0 90 63 60
        E 120 80 3f 00
        E 0 80 4b 00
        E 0 80 57 00
        E 0 80 63 00
        E 360 90 3f 60
        E 0 90 4b 60
        E 0 90 57 60
        E 0 90 63 60
        E 120 80 3f 00
        E 0 80 4b 00
        E 0 80 57 00
        E 0 80 63 00
        E 360 90 3f 60
        E 0 90 4b 60
        E 0 90 57 60
        E 0 90 63 60
        E 120 80 3f 00
        E 0 80 4b 00
        E 0 80 57 00
        E 0 80 63 00
        E 360 90 3f 60
        E 0 90 4b 60
        E 0 90 57 60
        E 0 90 63 60
        E 120 80 3f 00
        E 0 80 4b 00
        E 0 80 57 00
        E 0 80 63 00
        E 360 90 3f 60
        E 0 90 4b 60
        E 0 90 57 60
        E 0 90 63 60
        E 120 80 3f 00
        E 0 80 4b 00
        E 0 80 57 00
        E 0 80 63 00
        E 360 90 3f 60
        E 0 90 4b 60
        E 0 90 57 60
        E 0 90 63 60
        E 120 80 3f 00
        E 0 80 4b 00
        E 0 80 57 00
        E 0 80 63 00
        E 360 90 3f 60
        E 0 90 4b 60
        E 0 90 57 60
        E 0 90 63 60
        E 120 80 3f 00
        E 0 80 4b 00
        E 0 80 57 00
        E 0 80 63 00
        E 120 90 4b 60
        E 0 90 57 60
        E 0 90 63 60
        E 120 80 4b 00
        E 0 80 57 00
        E 0 80 63 00
        E 360 90 4c 60
        E 0 90 58 60
        E 0 90 64 60
        E 120 80 4c 00
        E 0 80 58 00
        E 480 80 64 00
        E 120 90 40 60
        E 0 90 4c 60
        E 0 90 58 60
        E 0 90 64 60
        E 120 80 40 00
        E 0 80 4c 00
        E 0 80 58 00
        E 0 80 64 00
        E 360 90 40 60
        E 0 90 4c 60
        E 0 90 58 60
        E 0 90 64 60
        E 120 80 40 00
        E 0 80 4c 00
        E 0 80 58 00
        E 0 80 64 00
        E 120 90 4c 60
        E 0 90 58 60
        E 0 90 64 60
        E 120 80 4c 00
        E 0 80 58 00
        E 0 80 64 00
        E 120 90 40 60
        E 0 90 4c 60
        E 0 90 58 60
        E 0 90 64 60
        E 120 80 40 00
        E 0 80 4c 00
        E 0 80 58 00
        E 0 80 64 00
        E 120 90 4c 60
        E 0 90 58 60
        E 0 90 64 60
        E 120 80 4c 00
        E 0 80 58 00
        E 480 80 64 00
        E 120 90 40 60
        E 0 90 4c 60
        E 0 90 58 60
        E 0 90 64 60
        E 120 80 40 00
        E 0 80 4c 00
        E 0 80 58 00
        E 0 80 64 00
        E 120 90 54 60
        E 0 90 60 60
        E 120 80 54 00
        E 0 80 60 00
        E 360 90 48 60
        E 0 90 54 60
        E 0 90 60 60
        E 120 80 48 00
        E 0 80 54 00
        E 0 80 60 00
        E 120 90 48 60
        E 0 90 54 60
        E 0 90 60 60
        E 120 80 48 00
        E 0 80 54 00
        E 0 80 60 00
        E 120 90 54 60
        E 0 90 60 60
        E 120 80 2b 00
        E 0 80 54 00
        E 0 80 60 00
        E 120 90 28 60
        E 0 90 40 60
        E 0 90 4c 60
        E 0 90 58 60
        E 0 90 64 60
        E 3360 80 40 00
        E 120 80 4c 00
        E 120 80 58 00
        E 120 80 64 00
        E 120 90 3f 60
        E 0 90 4b 60
        E 0 90 57 60
        E 0 90 63 60
        E 3360 80 3f 00
        E 120 80 4b 00
        E 120 80 57 00
        E 120 80 63 00
        E 120 90 3d 60
        E 0 90 49 60
        E 0 90 55 60
        E 0 90 61 60
        E 3360 80 3d 00
        E 120 80 49 00
        E 120 80 55 00
        E 120 80 61 00
        E 120 90 3e 60
        E 0 90 4a 60
        E 0 90 56 60
        E 0 90 62 60
        E 3360 80 3e 00
        E 120 80 4a 00
        E 120 80 56 00
        E 120 80 62 00
        E 120 90 40 60
        E 0 90 4c 60
        E 0 90 58 60
        E 0 90 64 60
        E 0 90 74 60
        E 3360 80 40 00
        E 120 80 4c 00
        E 120 80 58 00
        E 120 80 64 00
        E 120 90 3f 60
        E 0 90 4b 60
        E 0 90 57 60
        E 0 90 63 60
        E 3360 80 3f 00
        E 120 80 4b 00
        E 120 80 57 00
        E 120 80 63 00
        E 120 80 74 00
        E 0 90 3d 60
        E 0 90 49 60
        E 0 90 55 60
        E 0 90 61 60
        E 3360 80 3d 00
        E 120 80 49 00
        E 120 80 55 00
        E 120 80 61 00
        E 120 90 3e 60
        E 0 90 4a 60
        E 0 90 56 60
        E 0 90 62 60
        E 3360 80 3e 00
        E 120 80 4a 00
        E 120 80 56 00
        E 120 80 28 00
        E 0 80 62 00
        <X 120 0
          /wFbcGxheV0=
        >
        E 0 90 2b 60
        E 0 90 3d 60
        E 0 90 49 60
        E 0 90 55 60
        E 0 90 61 60
        E 120 80 3d 00
        E 0 80 49 00
        E 0 80 55 00
        E 0 80 61 00
        E 360 90 3d 60
        E 0 90 49 60
        E 0 90 55 60
        E 0 90 61 60
        E 120 80 3d 00
        E 0 80 49 00
        E 0 80 55 00
        E 0 80 61 00
        E 360 90 3d 60
        E 0 90 49 60
        E 0 90 55 60
        E 0 90 61 60
        E 120 80 3d 00
        E 0 80 49 00
        E 0 80 55 00
        E 0 80 61 00
        E 360 90 3d 60
        E 0 90 49 60
        E 0 90 55 60
        E 0 90 61 60
        E 120 80 3d 00
        E 0 80 49 00
        E 0 80 55 00
        E 0 80 61 00
        E 360 90 3d 60
        E 0 90 49 60
        E 0 90 55 60
        E 0 90 61 60
        E 120 80 3d 00
        E 0 80 49 00
        E 0 80 55 00
        E 0 80 61 00
        E 360 90 3d 60
        E 0 90 49 60
        E 0 90 55 60
        E 0 90 61 60
        E 120 80 3d 00
        E 0 80 49 00
        E 0 80 55 00
        E 0 80 61 00
        E 360 90 3d 60
        E 0 90 49 60
        E 0 90 55 60
        E 0 90 61 60
        E 120 80 3d 00
        E 0 80 49 00
        E 0 80 55 00
        E 0 80 61 00
        E 120 90 49 60
        E 0 90 55 60
        E 0 90 61 60
        E 120 80 49 00
        E 0 80 55 00
        E 0 80 61 00
        E 360 90 4a 60
        E 0 90 56 60
        E 0 90 62 60
        E 120 80 4a 00
        E 0 80 56 00
        E 480 80 62 00
        E 120 90 3e 60
        E 0 90 4a 60
        E 0 90 56 60
        E 0 90 62 60
        E 120 80 3e 00
        E 0 80 4a 00
        E 0 80 56 00
        E 0 80 62 00
        E 360 90 3e 60
        E 0 90 4a 60
        E 0 90 56 60
        E 0 90 62 60
        E 120 80 3e 00
        E 0 80 4a 00
        E 0 80 56 00
        E 0 80 62 00
        E 120 90 4a 60
        E 0 90 56 60
        E 0 90 62 60
        E 120 80 4a 00
        E 0 80 56 00
        E 0 80 62 00
        E 120 90 3e 60
        E 0 90 4a 60
        E 0 90 56 60
        E 0 90 62 60
        E 120 80 3e 00
        E 0 80 4a 00
        E 0 80 56 00
        E 0 80 62 00
        E 120 90 4a 60
        E 0 90 56 60
        E 0 90 62 60
        E 120 80 4a 00
        E 0 80 56 00
        E 480 80 62 00
        E 120 90 3e 60
        E 0 90 4a 60
        E 0 90 56 60
        E 0 90 62 60
        E 120 80 3e 00
        E 0 80 4a 00
        E 0 80 56 00
        E 0 80 62 00
        E 120 90 4a 60
        E 0 90 56 60
        E 0 90 62 60
        E 120 80 4a 00
        E 0 80 56 00
        E 0 80 62 00
        E 360 90 4a 60
        E 0 90 56 60
        E 0 90 62 60
        E 120 80 4a 00
        E 0 80 56 00
        E 0 80 62 00
        E 120 90 4a 60
        E 0 90 56 60
        E 0 90 62 60
        E 120 80 4a 00
        E 0 80 56 00
        E 0 80 62 00
        E 120 90 56 60
        E 0 90 62 60
        E 120 80 56 00
        E 0 80 62 00
        E 120 90 3f 60
        E 0 90 4b 60
        E 0 90 57 60
        E 0 90 63 60
        E 120 80 3f 00
        E 0 80 4b 00
        E 0 80 57 00
        E 0 80 63 00
        E 360 90 3f 60
        E 0 90 4b 60
        E 0 90 57 60
        E 0 90 63 60
        E 120 80 3f 00
        E 0 80 4b 00
        E 0 80 57 00
        E 0 80 63 00
        E 360 90 3f 60
        E 0 90 4b 60
        E 0 90 57 60
        E 0 90 63 60
        E 120 80 3f 00
        E 0 80 4b 00
        E 0 80 57 00
        E 0 80 63 00
        E 360 90 3f 60
        E 0 90 4b 60
        E 0 90 57 60
        E 0 90 63 60
        E 120 80 3f 00
        E 0 80 4b 00
        E 0 80 57 00
        E 0 80 63 00
        E 360 90 3f 60
        E 0 90 4b 60
        E 0 90 57 60
        E 0 90 63 60
        E 120 80 3f 00
        E 0 80 4b 00
        E 0 80 57 00
        E 0 80 63 00
        E 360 90 3f 60
        E 0 90 4b 60
        E 0 90 57 60
        E 0 90 63 60
        E 120 80 3f 00
        E 0 80 4b 00
        E 0 80 57 00
        E 0 80 63 00
        E 360 90 3f 60
        E 0 90 4b 60
        E 0 90 57 60
        E 0 90 63 60
        E 120 80 3f 00
        E 0 80 4b 00
        E 0 80 57 00
        E 0 80 63 00
        E 120 90 4b 60
        E 0 90 57 60
        E 0 90 63 60
        E 120 80 4b 00
        E 0 80 57 00
        E 0 80 63 00
        E 360 90 4c 60
        E 0 90 58 60
        E 0 90 64 60
        E 120 80 4c 00
        E 0 80 58 00
        E 480 80 64 00
        E 120 90 40 60
        E 0 90 4c 60
        E 0 90 58 60
        E 0 90 64 60
        E 120 80 40 00
        E 0 80 4c 00
        E 0 80 58 00
        E 0 80 64 00
        E 360 90 40 60
        E 0 90 4c 60
        E 0 90 58 60
        E 0 90 64 60
        E 120 80 40 00
        E 0 80 4c 00
        E 0 80 58 00
        E 0 80 64 00
        E 120 90 4c 60
        E 0 90 58 60
        E 0 90 64 60
        E 120 80 4c 00
        E 0 80 58 00
        E 0 80 64 00
        E 120 90 40 60
        E 0 90 4c 60
        E 0 90 58 60
        E 0 90 64 60
        E 120 80 40 00
        E 0 80 4c 00
        E 0 80 58 00
        E 0 80 64 00
        E 120 90 4c 60
        E 0 90 58 60
        E 0 90 64 60
        E 120 80 4c 00
        E 0 80 58 00
        E 480 80 64 00
        E 120 90 40 60
        E 0 90 4c 60
        E 0 90 58 60
        E 0 90 64 60
        E 120 80 40 00
        E 0 80 4c 00
        E 0 80 58 00
        E 0 80 64 00
        E 120 90 54 60
        E 0 90 60 60
        E 120 80 54 00
        E 0 80 60 00
        E 360 90 48 60
        E 0 90 54 60
        E 0 90 60 60
        E 120 80 48 00
        E 0 80 54 00
        E 0 80 60 00
        E 120 90 48 60
        E 0 90 54 60
        E 0 90 60 60
        E 120 80 48 00
        E 0 80 54 00
        E 0 80 60 00
        E 120 90 54 60
        E 0 90 60 60
        E 120 80 54 00
        E 0 80 60 00
        E 120 90 3d 60
        E 0 90 49 60
        E 0 90 55 60
        E 0 90 61 60
        E 0 90 74 60
        E 120 80 3d 00
        E 0 80 49 00
        E 0 80 55 00
        E 0 80 61 00
        E 360 90 3d 60
        E 0 90 49 60
        E 0 90 55 60
        E 0 90 61 60
        E 120 80 3d 00
        E 0 80 49 00
        E 0 80 55 00
        E 0 80 61 00
        E 360 90 3d 60
        E 0 90 49 60
        E 0 90 55 60
        E 0 90 61 60
        E 120 80 3d 00
        E 0 80 49 00
        E 0 80 55 00
        E 0 80 61 00
        E 360 90 3d 60
        E 0 90 49 60
        E 0 90 55 60
        E 0 90 61 60
        E 120 80 3d 00
        E 0 80 49 00
        E 0 80 55 00
        E 0 80 61 00
        E 360 90 3d 60
        E 0 90 49 60
        E 0 90 55 60
        E 0 90 61 60
        E 120 80 3d 00
        E 0 80 49 00
        E 0 80 55 00
        E 0 80 61 00
        E 360 90 3d 60
        E 0 90 49 60
        E 0 90 55 60
        E 0 90 61 60
        E 120 80 3d 00
        E 0 80 49 00
        E 0 80 55 00
        E 0 80 61 00
        E 360 90 3d 60
        E 0 90 49 60
        E 0 90 55 60
        E 0 90 61 60
        E 120 80 3d 00
        E 0 80 49 00
        E 0 80 55 00
        E 0 80 61 00
        E 120 90 49 60
        E 0 90 55 60
        E 0 90 61 60
        E 120 80 49 00
        E 0 80 55 00
        E 0 80 61 00
        E 360 90 4a 60
        E 0 90 56 60
        E 0 90 62 60
        E 120 80 4a 00
        E 0 80 56 00
        E 120 80 74 00
        E 360 80 62 00
        E 120 90 3e 60
        E 0 90 4a 60
        E 0 90 56 60
        E 0 90 62 60
        E 120 80 3e 00
        E 0 80 4a 00
        E 0 80 56 00
        E 0 80 62 00
        E 360 90 3e 60
        E 0 90 4a 60
        E 0 90 56 60
        E 0 90 62 60
        E 120 80 3e 00
        E 0 80 4a 00
        E 0 80 56 00
        E 0 80 62 00
        E 120 90 4a 60
        E 0 90 56 60
        E 0 90 62 60
        E 120 80 4a 00
        E 0 80 56 00
        E 0 80 62 00
        E 120 90 3e 60
        E 0 90 4a 60
        E 0 90 56 60
        E 0 90 62 60
        E 120 80 3e 00
        E 0 80 4a 00
        E 0 80 56 00
        E 0 80 62 00
        E 120 90 4a 60
        E 0 90 56 60
        E 0 90 62 60
        E 120 80 4a 00
        E 0 80 56 00
        E 480 80 62 00
        E 120 90 3e 60
        E 0 90 4a 60
        E 0 90 56 60
        E 0 90 62 60
        E 120 80 3e 00
        E 0 80 4a 00
        E 0 80 56 00
        E 0 80 62 00
        E 120 90 4a 60
        E 0 90 56 60
        E 0 90 62 60
        E 120 80 4a 00
        E 0 80 56 00
        E 0 80 62 00
        E 360 90 4a 60
        E 0 90 56 60
        E 0 90 62 60
        E 120 80 4a 00
        E 0 80 56 00
        E 0 80 62 00
        E 120 90 4a 60
        E 0 90 56 60
        E 0 90 62 60
        E 120 80 4a 00
        E 0 80 56 00
        E 0 80 62 00
        E 120 90 56 60
        E 0 90 62 60
        E 120 80 56 00
        E 0 80 62 00
        E 120 90 3f 60
        E 0 90 4b 60
        E 0 90 57 60
        E 0 90 63 60
        E 120 80 3f 00
        E 0 80 4b 00
        E 0 80 57 00
        E 0 80 63 00
        E 360 90 3f 60
        E 0 90 4b 60
        E 0 90 57 60
        E 0 90 63 60
        E 120 80 3f 00
        E 0 80 4b 00
        E 0 80 57 00
        E 0 80 63 00
        E 360 90 3f 60
        E 0 90 4b 60
        E 0 90 57 60
        E 0 90 63 60
        E 120 80 3f 00
        E 0 80 4b 00
        E 0 80 57 00
        E 0 80 63 00
        E 360 90 3f 60
        E 0 90 4b 60
        E 0 90 57 60
        E 0 90 63 60
        E 120 80 3f 00
        E 0 80 4b 00
        E 0 80 57 00
        E 0 80 63 00
        E 360 90 3f 60
        E 0 90 4b 60
        E 0 90 57 60
        E 0 90 63 60
        E 120 80 3f 00
        E 0 80 4b 00
        E 0 80 57 00
        E 0 80 63 00
        E 360 90 3f 60
        E 0 90 4b 60
        E 0 90 57 60
        E 0 90 63 60
        E 120 80 3f 00
        E 0 80 4b 00
        E 0 80 57 00
        E 0 80 63 00
        E 360 90 3f 60
        E 0 90 4b 60
        E 0 90 57 60
        E 0 90 63 60
        E 120 80 3f 00
        E 0 80 4b 00
        E 0 80 57 00
        E 0 80 63 00
        E 120 90 4b 60
        E 0 90 57 60
        E 0 90 63 60
        E 120 80 4b 00
        E 0 80 57 00
        E 0 80 63 00
        E 360 90 4c 60
        E 0 90 58 60
        E 0 90 64 60
        E 120 80 4c 00
        E 0 80 58 00
        E 480 80 64 00
        E 120 90 40 60
        E 0 90 4c 60
        E 0 90 58 60
        E 0 90 64 60
        E 120 80 40 00
        E 0 80 4c 00
        E 0 80 58 00
        E 0 80 64 00
        E 360 90 40 60
        E 0 90 4c 60
        E 0 90 58 60
        E 0 90 64 60
        E 120 80 40 00
        E 0 80 4c 00
        E 0 80 58 00
        E 0 80 64 00
        E 120 90 4c 60
        E 0 90 58 60
        E 0 90 64 60
        E 120 80 4c 00
        E 0 80 58 00
        E 0 80 64 00
        E 120 90 40 60
        E 0 90 4c 60
        E 0 90 58 60
        E 0 90 64 60
        E 120 80 40 00
        E 0 80 4c 00
        E 0 80 58 00
        E 0 80 64 00
        E 120 90 4c 60
        E 0 90 58 60
        E 0 90 64 60
        E 1800 80 4c 00
        E 120 80 58 00
        E 120 80 2b 00
        E 0 80 64 00
        E 120 90 28 60
        E 0 90 3e 60
        E 0 90 4a 60
        E 0 90 56 60
        E 0 90 62 60
        E 120 80 3e 00
        E 0 80 4a 00
        E 0 80 56 00
        E 0 80 62 00
        E 360 90 3e 60
        E 0 90 4a 60
        E 0 90 56 60
        E 0 90 62 60
        E 120 80 3e 00
        E 0 80 4a 00
        E 0 80 56 00
        E 0 80 62 00
        E 360 90 3e 60
        E 0 90 4a 60
        E 0 90 56 60
        E 0 90 62 60
        E 120 80 3e 00
        E 0 80 4a 00
        E 0 80 56 00
        E 0 80 62 00
        E 360 90 3e 60
        E 0 90 4a 60
        E 0 90 56 60
        E 0 90 62 60
        E 120 80 3e 00
        E 0 80 4a 00
        E 0 80 56 00
        E 0 80 62 00
        E 360 90 3e 60
        E 0 90 4a 60
        E 0 90 56 60
        E 0 90 62 60
        E 120 80 3e 00
        E 0 80 4a 00
        E 0 80 56 00
        E 0 80 62 00
        E 360 90 4a 60
        E 0 90 56 60
        E 0 90 62 60
        E 120 80 4a 00
        E 0 80 56 00
        E 0 80 62 00
        E 360 90 3c 60
        E 0 90 48 60
        E 0 90 54 60
        E 0 90 60 60
        E 120 80 3c 00
        E 0 80 48 00
        E 0 80 54 00
        E 0 80 60 00
        E 120 90 55 60
        E 0 90 61 60
        E 120 80 55 00
        E 0 80 61 00
        E 120 90 4a 60
        E 0 90 56 60
        E 0 90 62 60
        E 120 80 4a 00
        E 0 80 56 00
        E 0 80 62 00
        E 120 90 57 60
        E 0 90 63 60
        E 120 80 57 00
        E 480 80 63 00
        E 120 90 3f 60
        E 0 90 4b 60
        E 0 90 57 60
        E 0 90 63 60
        E 120 80 3f 00
        E 0 80 4b 00
        E 0 80 57 00
        E 0 80 63 00
        E 360 90 3f 60
        E 0 90 4b 60
        E 0 90 57 60
        E 0 90 63 60
        E 120 80 3f 00
        E 0 80 4b 00
        E 0 80 57 00
        E 0 80 63 00
        E 120 90 4b 60
        E 0 90 57 60
        E 0 90 63 60
        E 120 80 4b 00
        E 0 80 57 00
        E 0 80 63 00
        E 120 90 3f 60
        E 0 90 4b 60
        E 0 90 57 60
        E 0 90 63 60
        E 120 80 3f 00
        E 0 80 4b 00
        E 0 80 57 00
        E 0 80 63 00
        E 120 90 55 60
        E 0 90 61 60
        E 120 80 55 00
        E 480 80 61 00
        E 120 90 3d 60
        E 0 90 49 60
        E 0 90 55 60
        E 0 90 61 60
        E 120 80 3d 00
        E 0 80 49 00
        E 0 80 55 00
        E 0 80 61 00
        E 120 90 57 60
        E 0 90 63 60
        E 120 80 57 00
        E 0 80 63 00
        E 360 90 57 60
        E 0 90 63 60
        E 120 80 57 00
        E 0 80 63 00
        E 120 90 3e 60
        E 0 90 4a 60
        E 0 90 56 60
        E 0 90 62 60
        E 120 80 3e 00
        E 0 80 4a 00
        E 0 80 56 00
        E 0 80 62 00
        E 120 90 54 60
        E 0 90 60 60
        E 120 80 54 00
        E 0 80 60 00
        E 120 90 3e 60
        E 0 90 4a 60
        E 0 90 56 60
        E 0 90 62 60
        E 120 80 3e 00
        E 0 80 4a 00
        E 0 80 56 00
        E 0 80 62 00
        E 360 90 3e 60
        E 0 90 4a 60
        E 0 90 56 60
        E 0 90 62 60
        E 120 80 3e 00
        E 0 80 4a 00
        E 0 80 56 00
        E 0 80 62 00
        E 360 90 3e 60
        E 0 90 4a 60
        E 0 90 56 60
        E 0 90 62 60
        E 120 80 3e 00
        E 0 80 4a 00
        E 0 80 56 00
        E 0 80 62 00
        E 360 90 3e 60
        E 0 90 4a 60
        E 0 90 56 60
        E 0 90 62 60
        E 120 80 3e 00
        E 0 80 4a 00
        E 0 80 56 00
        E 0 80 62 00
        E 360 90 3e 60
        E 0 90 4a 60
        E 0 90 56 60
        E 0 90 62 60
        E 120 80 3e 00
        E 0 80 4a 00
        E 0 80 56 00
        E 0 80 62 00
        E 360 90 4a 60
        E 0 90 56 60
        E 0 90 62 60
        E 120 80 4a 00
        E 0 80 56 00
        E 0 80 62 00
        E 360 90 3c 60
        E 0 90 48 60
        E 0 90 54 60
        E 0 90 60 60
        E 120 80 3c 00
        E 0 80 48 00
        E 0 80 54 00
        E 0 80 60 00
        E 120 90 55 60
        E 0 90 61 60
        E 120 80 55 00
        E 0 80 61 00
        E 120 90 4a 60
        E 0 90 56 60
        E 0 90 62 60
        E 120 80 4a 00
        E 0 80 56 00
        E 0 80 62 00
        E 120 90 57 60
        E 0 90 63 60
        E 120 80 57 00
        E 0 80 63 00
        E 600 90 3f 60
        E 0 90 4b 60
        E 0 90 57 60
        E 0 90 63 60
        E 120 80 3f 00
        E 0 80 4b 00
        E 0 80 57 00
        E 0 80 63 00
        E 360 90 3f 60
        E 0 90 4b 60
        E 0 90 57 60
        E 0 90 63 60
        E 120 80 3f 00
        E 0 80 4b 00
        E 0 80 57 00
        E 0 80 63 00
        E 120 90 4b 60
        E 0 90 57 60
        E 0 90 63 60
        E 120 80 4b 00
        E 0 80 57 00
        E 0 80 63 00
        E 120 90 3f 60
        E 0 90 4b 60
        E 0 90 57 60
        E 0 90 63 60
        E 120 80 3f 00
        E 0 80 4b 00
        E 0 80 57 00
        E 0 80 63 00
        E 120 90 58 60
        E 0 90 64 60
        E 120 80 58 00
        E 480 80 64 00
        E 120 90 40 60
        E 0 90 4c 60
        E 0 90 58 60
        E 0 90 64 60
        E 120 80 40 00
        E 0 80 4c 00
        E 0 80 58 00
        E 0 80 64 00
        E 120 90 55 60
        E 0 90 61 60
        E 120 80 55 00
        E 0 80 61 00
        E 360 90 49 60
        E 0 90 55 60
        E 0 90 61 60
        E 120 80 49 00
        E 0 80 55 00
        E 0 80 61 00
        E 120 90 49 60
        E 0 90 55 60
        E 0 90 61 60
        E 120 80 49 00
        E 0 80 55 00
        E 0 80 61 00
        E 120 90 55 60
        E 0 90 61 60
        E 120 80 55 00
        E 0 80 61 00
        E 120 90 3e 60
        E 0 90 4a 60
        E 0 90 56 60
        E 0 90 62 60
        E 120 80 3e 00
        E 0 80 4a 00
        E 0 80 56 00
        E 0 80 62 00
        E 360 90 3e 60
        E 0 90 4a 60
        E 0 90 56 60
        E 0 90 62 60
        E 120 80 3e 00
        E 0 80 4a 00
        E 0 80 56 00
        E 0 80 62 00
        E 360 90 3e 60
        E 0 90 4a 60
        E 0 90 56 60
        E 0 90 62 60
        E 120 80 3e 00
        E 0 80 4a 00
        E 0 80 56 00
        E 0 80 62 00
        E 360 90 3e 60
        E 0 90 4a 60
        E 0 90 56 60
        E 0 90 62 60
        E 120 80 3e 00
        E 0 80 4a 00
        E 0 80 56 00
        E 0 80 62 00
        E 360 90 3e 60
        E 0 90 4a 60
        E 0 90 56 60
        E 0 90 62 60
        E 120 80 3e 00
        E 0 80 4a 00
        E 0 80 56 00
        E 0 80 62 00
        E 360 90 4a 60
        E 0 90 56 60
        E 0 90 62 60
        E 120 80 4a 00
        E 0 80 56 00
        E 0 80 62 00
        E 360 90 3c 60
        E 0 90 48 60
        E 0 90 54 60
        E 0 90 60 60
        E 120 80 3c 00
        E 0 80 48 00
        E 0 80 54 00
        E 0 80 60 00
        E 120 90 55 60
        E 0 90 61 60
        E 120 80 55 00
        E 0 80 61 00
        E 120 90 4a 60
        E 0 90 56 60
        E 0 90 62 60
        E 120 80 4a 00
        E 0 80 56 00
        E 0 80 62 00
        E 120 90 57 60
        E 0 90 63 60
        E 120 80 57 00
        E 480 80 63 00
        E 120 90 3f 60
        E 0 90 4b 60
        E 0 90 57 60
        E 0 90 63 60
        E 120 80 3f 00
        E 0 80 4b 00
        E 0 80 57 00
        E 0 80 63 00
        E 360 90 3f 60
        E 0 90 4b 60
        E 0 90 57 60
        E 0 90 63 60
        E 120 80 3f 00
        E 0 80 4b 00
        E 0 80 57 00
        E 0 80 63 00
        E 120 90 4b 60
        E 0 90 57 60
        E 0 90 63 60
        E 120 80 4b 00
        E 0 80 57 00
        E 0 80 63 00
        E 120 90 3f 60
        E 0 90 4b 60
        E 0 90 57 60
        E 0 90 63 60
        E 120 80 3f 00
        E 0 80 4b 00
        E 0 80 57 00
        E 0 80 63 00
        E 120 90 55 60
        E 0 90 61 60
        E 120 80 55 00
        E 480 80 61 00
        E 120 90 3d 60
        E 0 90 49 60
        E 0 90 55 60
        E 0 90 61 60
        E 120 80 3d 00
        E 0 80 49 00
        E 0 80 55 00
        E 0 80 61 00
        E 120 90 57 60
        E 0 90 63 60
        E 120 80 57 00
        E 0 80 63 00
        E 360 90 57 60
        E 0 90 63 60
        E 120 80 57 00
        E 0 80 63 00
        E 120 90 3e 60
        E 0 90 4a 60
        E 0 90 56 60
        E 0 90 62 60
        E 120 80 3e 00
        E 0 80 4a 00
        E 0 80 56 00
        E 0 80 62 00
        E 120 90 54 60
        E 0 90 60 60
        E 120 80 54 00
        E 0 80 60 00
        E 120 90 3e 60
        E 0 90 4a 60
        E 0 90 56 60
        E 0 90 62 60
        E 120 80 3e 00
        E 0 80 4a 00
        E 0 80 56 00
        E 0 80 62 00
        E 360 90 3e 60
        E 0 90 4a 60
        E 0 90 56 60
        E 0 90 62 60
        E 120 80 3e 00
        E 0 80 4a 00
        E 0 80 56 00
        E 0 80 62 00
        E 360 90 3e 60
        E 0 90 4a 60
        E 0 90 56 60
        E 0 90 62 60
        E 120 80 3e 00
        E 0 80 4a 00
        E 0 80 56 00
        E 0 80 62 00
        E 360 90 3e 60
        E 0 90 4a 60
        E 0 90 56 60
        E 0 90 62 60
        E 120 80 3e 00
        E 0 80 4a 00
        E 0 80 56 00
        E 0 80 62 00
        E 360 90 3e 60
        E 0 90 4a 60
        E 0 90 56 60
        E 0 90 62 60
        E 120 80 3e 00
        E 0 80 4a 00
        E 0 80 56 00
        E 0 80 62 00
        E 360 90 4a 60
        E 0 90 56 60
        E 0 90 62 60
        E 120 80 4a 00
        E 0 80 56 00
        E 0 80 62 00
        E 360 90 3c 60
        E 0 90 48 60
        E 0 90 54 60
        E 0 90 60 60
        E 120 80 3c 00
        E 0 80 48 00
        E 0 80 54 00
        E 0 80 60 00
        E 120 90 55 60
        E 0 90 61 60
        E 120 80 55 00
        E 0 80 61 00
        E 120 90 4a 60
        E 0 90 56 60
        E 0 90 62 60
        E 120 80 4a 00
        E 0 80 56 00
        E 0 80 62 00
        E 120 90 57 60
        E 0 90 63 60
        E 120 80 57 00
        E 0 80 63 00
        E 600 90 3f 60
        E 0 90 4b 60
        E 0 90 57 60
        E 0 90 63 60
        E 120 80 3f 00
        E 0 80 4b 00
        E 0 80 57 00
        E 0 80 63 00
        E 360 90 3f 60
        E 0 90 4b 60
        E 0 90 57 60
        E 0 90 63 60
        E 120 80 3f 00
        E 0 80 4b 00
        E 0 80 57 00
        E 0 80 63 00
        E 120 90 4b 60
        E 0 90 57 60
        E 0 90 63 60
        E 120 80 4b 00
        E 0 80 57 00
        E 0 80 63 00
        E 120 90 3f 60
        E 0 90 4b 60
        E 0 90 57 60
        E 0 90 63 60
        E 120 80 3f 00
        E 0 80 4b 00
        E 0 80 57 00
        E 0 80 63 00
        E 120 90 58 60
        E 0 90 64 60
        E 120 80 58 00
        E 480 80 64 00
        E 120 90 40 60
        E 0 90 4c 60
        E 0 90 58 60
        E 0 90 64 60
        E 120 80 40 00
        E 0 80 4c 00
        E 0 80 58 00
        E 0 80 64 00
        E 120 90 55 60
        E 0 90 61 60
        E 120 80 55 00
        E 0 80 61 00
        E 360 90 49 60
        E 0 90 55 60
        E 0 90 61 60
        E 120 80 49 00
        E 0 80 55 00
        E 0 80 61 00
        E 120 90 3d 60
        E 0 90 49 60
        E 0 90 55 60
        E 0 90 61 60
        E 120 80 3d 00
        E 0 80 49 00
        E 0 80 55 00
        E 0 80 61 00
        E 120 90 49 60
        E 0 90 55 60
        E 0 90 61 60
        E 120 80 49 00
        E 0 80 55 00
        E 0 80 61 00
        E 120 90 3d 60
        E 0 90 49 60
        E 0 90 55 60
        E 0 90 61 60
        E 3840 80 28 00
        E 0 80 3d 00
        E 0 80 49 00
        E 0 80 55 00
        E 0 80 61 00
        <X 1 0
          /wFbaWRsZV9yZWFsdGltZV0=
        >
        E 9598 b0 7b 00
        GUID {CB352141-BF7F-487C-BA5E-BCF17349BE9E}
        IGNTEMPO 0 120.00000000 4 4
        SRCCOLOR 4
        VELLANE 132 71 60
        COLORMAP "C:\Program Files\REAPER (x64)\Data\color_maps\rockband_guitarbass.png"
        CFGEDITVIEW 0.000000 2.814818 0 12 0 0 0
        CFGEDIT 1 1 0 1 1 0 1 1 1 1 1 0.25000000 100 100 1200 800 0 2 2 1 0.00000000 0 1 0 0 0.500000 0 0 1.000000 64
        KEYSNAP 0 6 "102030050700" 0 "Pentatonic"
        EVTFILTER 0 -1 -1 -1 -1 0 1 0 0 -1.00000000 -1.00000000
      >
    >
  >
  <TRACK '{E7C49DB9-067F-4520-9366-40DAA40C2441}'
    NAME "bass"
    PEAKCOL 16576
    BEAT -1
    AUTOMODE 0
    VOLPAN 1.00000000000000 0.00000000000000 -1.00000000000000 -1.00000000000000 1.00000000000000
    MUTESOLO 0 0 0
    IPHASE 0
    ISBUS 2 -1
    BUSCOMP 0 0
    SHOWINMIX 1 0.666700 0.500000 1 0.500000 -1 -1 -1
    FREEMODE 0
    SEL 0
    REC 0 0 0 0 0 0 0
    VU 2
    TRACKHEIGHT 0 0
    INQ 0 0 0 0.5000000000 100 0 0 100
    NCHAN 2
    FX 1
    TRACKID {E7C49DB9-067F-4520-9366-40DAA40C2441}
    PERF 0
    MIDIOUT -1
    MAINSEND 1 0
    <ITEM
      POSITION 0.00000000000000
      SNAPOFFS 0.00000000000000
      LENGTH 249.33300000000000
      LOOP 0
      ALLTAKES 0
      SEL 0
      FADEIN 1 0.000000 0.000000 1 0
      FADEOUT 1 0.000000 0.000000 1 0
      MUTE 0
      IGUID {8E701FFF-34E3-4819-9EF4-E7F4A3ECFD97}
      IID 16
      NAME "bass.wav"
      VOLPAN 1.000000 0.000000 1.000000 -1.000000
      SOFFS 0.00000000000000
      PLAYRATE 1.00000000000000 1 0.00000000000000 -1
      CHANMODE 0
      GUID {7C80A18F-616E-4A92-96E7-090A374C3667}
      <SOURCE WAVE
        FILE "wav\bass.wav"
      >
    >
  >
  <TRACK '{2B6D35EE-59A6-4C18-A9BA-8BA1E84EED40}'
    NAME "PART GUITAR"
    PEAKCOL 16576
    BEAT -1
    AUTOMODE 0
    VOLPAN 1.00000000000000 0.00000000000000 -1.00000000000000 -1.00000000000000 1.00000000000000
    MUTESOLO 0 0 0
    IPHASE 0
    ISBUS 1 1
    BUSCOMP 0 0
    SHOWINMIX 1 0.666700 0.500000 1 0.500000 -1 -1 -1
    FREEMODE 0
    SEL 0
    REC 0 0 0 0 0 0 0
    VU 2
    TRACKHEIGHT 0 0
    INQ 0 0 0 0.5000000000 100 0 0 100
    NCHAN 2
    FX 1
    TRACKID {2B6D35EE-59A6-4C18-A9BA-8BA1E84EED40}
    PERF 0
    MIDIOUT -1
    <MIDINOTENAMES
      0 127 "TRILL MARKER"
      0 126 "TREMOLO MARKER"
      0 125 "---"
      0 124 "BRE"
      0 123 "BRE"
      0 122 "BRE"
      0 121 "BRE"
      0 120 "BRE (use all 5)"
      0 119 "----"
      0 116 "OVERDRIVE"
      0 115 "----"
      0 103 "Solo Marker"
      0 102 "Force HOPO Off"
      0 101 "Force HOPO On"
      0 100 "EXPERT Orange"
      0 99 "EXPERT Blue"
      0 98 "EXPERT Yellow"
      0 97 "EXPERT Red"
      0 96 "EXPERT Green"
      0 95 "----"
      0 90 "Force HOPO Off"
      0 89 "Force HOPO On"
      0 88 "HARD Orange"
      0 87 "HARD Blue"
      0 86 "HARD Yellow"
      0 85 "HARD Red"
      0 84 "HARD Green"
      0 77 "----"
      0 76 "MEDIUM Orange"
      0 75 "MEDIUM Blue"
      0 74 "MEDIUM Yellow"
      0 73 "MEDIUM Red"
      0 72 "MEDIUM Green"
      0 65 "----"
      0 64 "EASY Orange"
      0 63 "EASY Blue"
      0 62 "EASY Yellow"
      0 61 "EASY Red"
      0 60 "EASY Green"
      0 59 "Fret 12"
      0 57 "Fret 11"
      0 56 "Fret 10"
      0 55 "Fret 9"
      0 53 "Fret 8"
      0 52 "Fret 7"
      0 50 "Fret 6"
      0 49 "Fret 5"
      0 47 "Fret 4"
      0 45 "Fret 3"
      0 43 "Fret 2"
      0 40 "Fret 1"
    >
    MAINSEND 1 0
    <FXCHAIN
      WNDRECT 0 43 891 559
      SHOW 0
      LASTSEL 0
      DOCKED 0
      BYPASS 0 0
      <VST "VSTi: RBN Preview (RBN)" "rbprev_vst64.dll" 0 ""
        dnBicu5e7f4AAAAAAgAAAAEAAAAAAAAAAgAAAAAAAAAEAAAAAQAAAA==
        AAAQAAMAqgAAABAAAAA=
      >
      FLOATPOS 0 0 0 0
      FXID {B23E8247-7078-41CB-B067-2B8F1B56C846}
      WAK 0
    >
    <ITEM
      POSITION 0.00000000000000
      SNAPOFFS 0.00000000000000
      LENGTH 249.33300000000000
      LOOP 0
      ALLTAKES 0
      SEL 0
      FADEIN 1 0.000000 0.000000 1 0
      FADEOUT 1 0.000000 0.000000 1 0
      MUTE 0
      IGUID {3EEB7A65-2AB0-4324-8E43-A568771FAC9E}
      IID 4
      NAME "PART GUITAR"
      VOLPAN 1.000000 0.000000 1.000000 -1.000000
      SOFFS 0.00000000000000 0.00000000000000
      PLAYRATE 1.00000000000000 1 0.00000000000000 -1
      CHANMODE 0
      GUID {D9F97FE9-FD2E-4AAB-8370-8654DF1511A5}
      <SOURCE MIDI
        HASDATA 1 480 QN
        POOLEDEVTS {F4D5EB62-E793-4382-ADC8-6C8AD4AB5CF6}
        <X 0 0
          /wNQQVJUIEdVSVRBUg==
        >
        <X 7680 0
          /wFbaWRsZV0=
        >
        <X 15360 0
          /wFbaW50ZW5zZV0=
        >
        E 0 90 35 6c
        E 0 90 3e 60
        E 0 90 4b 60
        E 0 90 58 60
        E 0 90 64 60
        E 3360 80 3e 00
        E 120 80 4b 00
        E 120 80 58 00
        E 120 80 64 00
        E 120 90 3e 60
        E 0 90 4b 60
        E 0 90 57 60
        E 0 90 63 60
        E 3360 80 3e 00
        E 120 80 4b 00
        E 120 80 57 00
        E 120 80 63 00
        E 120 90 3e 60
        E 0 90 4b 60
        E 0 90 58 60
        E 0 90 64 60
        E 0 90 74 60
        E 2400 80 3e 00
        E 120 80 4b 00
        E 120 80 58 00
        E 120 80 64 00
        E 120 90 3e 60
        E 0 90 4b 60
        E 0 90 57 60
        E 0 90 63 60
        E 120 80 3e 00
        E 480 80 4b 00
        E 120 80 57 00
        E 120 80 63 00
        E 120 90 3c 60
        E 0 90 48 60
        E 0 90 54 60
        E 0 90 60 60
        E 120 80 74 00
        E 3240 80 3c 00
        E 120 80 48 00
        E 120 80 54 00
        E 120 80 60 00
        E 120 90 3e 60
        E 0 90 4b 60
        E 0 90 58 60
        E 0 90 64 60
        E 3360 80 3e 00
        E 120 80 4b 00
        E 120 80 58 00
        E 120 80 64 00
        E 120 90 3e 60
        E 0 90 4b 60
        E 0 90 57 60
        E 0 90 63 60
        E 3360 80 3e 00
        E 120 80 4b 00
        E 120 80 57 00
        E 120 80 63 00
        E 120 90 3e 60
        E 0 90 4b 60
        E 0 90 58 60
        E 0 90 64 60
        E 2400 80 3e 00
        E 120 80 4b 00
        E 120 80 58 00
        E 120 80 64 00
        E 120 90 3e 60
        E 0 90 4b 60
        E 0 90 57 60
        E 0 90 63 60
        E 120 80 3e 00
        E 480 80 4b 00
        E 120 80 57 00
        E 120 80 63 00
        E 120 90 3c 60
        E 0 90 48 60
        E 0 90 54 60
        E 0 90 60 60
        <X 3840 0
          /wFbcGxheV0=
        >
        E 1920 80 3c 00
        E 0 80 48 00
        E 0 80 54 00
        E 0 80 60 00
        E 1920 90 74 60
        E 121 80 35 00
        E 119 90 38 6e
        E 0 90 55 60
        E 0 90 61 60
        E 120 80 55 00
        E 0 80 61 00
        E 120 90 4a 60
        E 0 90 56 60
        E 0 90 62 60
        E 120 80 4a 00
        E 0 80 56 00
        E 0 80 62 00
        E 120 90 55 60
        E 0 90 61 60
        E 120 80 55 00
        E 0 80 61 00
        E 120 90 3e 60
        E 0 90 4b 60
        E 0 90 57 60
        E 0 90 63 60
        E 120 80 3e 00
        E 0 80 4b 00
        E 0 80 57 00
        E 0 80 63 00
        E 120 90 56 60
        E 0 90 62 60
        E 120 80 56 00
        E 0 80 62 00
        E 120 90 49 60
        E 0 90 55 60
        E 0 90 61 60
        E 120 80 49 00
        E 0 80 55 00
        E 0 80 61 00
        E 1 80 38 00
        E 119 90 37 6d
        E 0 90 54 60
        E 0 90 60 60
        E 120 80 54 00
        E 0 80 60 00
        E 241 80 37 00
        E 119 90 38 6e
        E 0 90 55 60
        E 0 90 61 60
        E 120 80 55 00
        E 0 80 61 00
        E 120 90 4a 60
        E 0 90 56 60
        E 0 90 62 60
        E 120 80 4a 00
        E 0 80 56 00
        E 0 80 62 00
        E 120 90 55 60
        E 0 90 61 60
        E 120 80 55 00
        E 0 80 61 00
        E 120 90 3e 60
        E 0 90 4b 60
        E 0 90 57 60
        E 0 90 63 60
        E 120 80 3e 00
        E 0 80 4b 00
        E 0 80 57 00
        E 0 80 63 00
        E 120 90 55 60
        E 0 90 61 60
        E 120 80 55 00
        E 0 80 61 00
        E 120 90 4a 60
        E 0 90 56 60
        E 0 90 62 60
        E 120 80 4a 00
        E 0 80 56 00
        E 0 80 62 00
        E 120 90 57 60
        E 0 90 63 60
        E 120 80 57 00
        E 0 80 63 00
        E 120 80 74 00
        E 0 90 3c 60
        E 0 90 49 60
        E 0 90 55 60
        E 0 90 61 60
        E 2880 80 3c 00
        E 0 80 49 00
        E 0 80 55 00
        E 0 80 61 00
        E 1200 90 55 60
        E 0 90 61 60
        E 120 80 55 00
        E 0 80 61 00
        E 120 90 4a 60
        E 0 90 56 60
        E 0 90 62 60
        E 120 80 4a 00
        E 0 80 56 00
        E 0 80 62 00
        E 120 90 55 60
        E 0 90 61 60
        E 120 80 55 00
        E 0 80 61 00
        E 120 90 3e 60
        E 0 90 4b 60
        E 0 90 57 60
        E 0 90 63 60
        E 120 80 3e 00
        E 0 80 4b 00
        E 0 80 57 00
        E 0 80 63 00
        E 120 90 56 60
        E 0 90 62 60
        E 120 80 56 00
        E 0 80 62 00
        E 120 90 49 60
        E 0 90 55 60
        E 0 90 61 60
        E 120 80 49 00
        E 0 80 55 00
        E 0 80 61 00
        E 120 90 54 60
        E 0 90 60 60
        E 120 80 54 00
        E 0 80 60 00
        E 360 90 55 60
        E 0 90 61 60
        E 120 80 55 00
        E 0 80 61 00
        E 120 90 4a 60
        E 0 90 56 60
        E 0 90 62 60
        E 120 80 4a 00
        E 0 80 56 00
        E 0 80 62 00
        E 120 90 55 60
        E 0 90 61 60
        E 120 80 55 00
        E 0 80 61 00
        E 120 90 3e 60
        E 0 90 4b 60
        E 0 90 57 60
        E 0 90 63 60
        E 120 80 3e 00
        E 0 80 4b 00
        E 0 80 57 00
        E 0 80 63 00
        E 120 90 55 60
        E 0 90 61 60
        E 120 80 55 00
        E 0 80 61 00
        E 120 90 3e 60
        E 0 90 4b 60
        E 0 90 57 60
        E 0 90 63 60
        E 120 80 3e 00
        E 0 80 4b 00
        E 0 80 57 00
        E 0 80 63 00
        E 120 90 4b 60
        E 0 90 58 60
        E 0 90 64 60
        E 3120 80 4b 00
        E 0 80 58 00
        E 0 80 64 00
        E 1200 90 55 60
        E 0 90 61 60
        E 120 80 55 00
        E 0 80 61 00
        E 120 90 4a 60
        E 0 90 56 60
        E 0 90 62 60
        E 120 80 4a 00
        E 0 80 56 00
        E 0 80 62 00
        E 120 90 55 60
        E 0 90 61 60
        E 120 80 55 00
        E 0 80 61 00
        E 120 90 3e 60
        E 0 90 4b 60
        E 0 90 57 60
        E 0 90 63 60
        E 120 80 3e 00
        E 0 80 4b 00
        E 0 80 57 00
        E 0 80 63 00
        E 120 90 56 60
        E 0 90 62 60
        E 120 80 56 00
        E 0 80 62 00
        E 120 90 49 60
        E 0 90 55 60
        E 0 90 61 60
        E 120 80 49 00
        E 0 80 55 00
        E 0 80 61 00
        E 1 80 38 00
        E 119 90 37 6d
        E 0 90 54 60
        E 0 90 60 60
        E 120 80 54 00
        E 0 80 60 00
        E 241 80 37 00
        E 119 90 38 6e
        E 0 90 55 60
        E 0 90 61 60
        E 120 80 55 00
        E 0 80 61 00
        E 120 90 4a 60
        E 0 90 56 60
        E 0 90 62 60
        E 120 80 4a 00
        E 0 80 56 00
        E 0 80 62 00
        E 120 90 55 60
        E 0 90 61 60
        E 120 80 55 00
        E 0 80 61 00
        E 120 90 3e 60
        E 0 90 4b 60
        E 0 90 57 60
        E 0 90 63 60
        E 120 80 3e 00
        E 0 80 4b 00
        E 0 80 57 00
        E 0 80 63 00
        E 120 90 54 60
        E 0 90 60 60
        E 120 80 54 00
        E 0 80 60 00
        E 120 90 49 60
        E 0 90 55 60
        E 0 90 61 60
        E 120 80 49 00
        E 0 80 55 00
        E 0 80 61 00
        E 120 90 56 60
        E 0 90 62 60
        E 3120 80 56 00
        E 0 80 62 00
        E 3360 90 3c 60
        E 0 90 48 60
        E 0 90 54 60
        E 0 90 60 60
        E 120 80 3c 00
        E 0 80 48 00
        E 0 80 54 00
        E 0 80 60 00
        E 1 80 38 00
        E 119 90 3b 70
        E 0 90 57 60
        E 0 90 63 60
        E 120 80 57 00
        E 0 80 63 00
        E 360 90 4b 60
        E 0 90 58 60
        E 0 90 64 60
        E 120 80 4b 00
        E 0 80 58 00
        E 480 80 64 00
        E 1 80 3b 00
        E 119 90 37 6d
        E 0 90 3d 60
        E 0 90 4a 60
        E 0 90 56 60
        E 0 90 62 60
        E 2400 80 3d 00
        E 120 80 4a 00
        E 120 80 56 00
        E 120 80 62 00
        E 120 90 3c 60
        E 0 90 49 60
        E 0 90 55 60
        E 0 90 61 60
        E 120 80 3c 00
        E 480 80 49 00
        E 120 80 55 00
        E 120 80 61 00
        E 120 90 3d 60
        E 0 90 4a 60
        E 0 90 56 60
        E 0 90 62 60
        E 2880 80 3d 00
        E 0 80 4a 00
        E 0 80 56 00
        E 0 80 62 00
        E 960 90 3d 60
        E 0 90 4a 60
        E 0 90 56 60
        E 0 90 62 60
        E 2400 80 3d 00
        E 120 80 4a 00
        E 120 80 56 00
        E 120 80 62 00
        E 120 90 3e 60
        E 0 90 4b 60
        E 0 90 57 60
        E 0 90 63 60
        E 120 80 3e 00
        E 480 80 4b 00
        E 120 80 57 00
        E 120 80 63 00
        E 120 90 3c 60
        E 0 90 49 60
        E 0 90 55 60
        E 0 90 61 60
        E 0 90 74 60
        E 1200 80 3c 00
        E 120 80 49 00
        E 120 80 55 00
        E 120 80 61 00
        E 120 90 3c 60
        E 0 90 48 60
        E 0 90 54 60
        E 0 90 60 60
        E 1680 80 3c 00
        E 120 80 48 00
        E 120 80 54 00
        E 120 80 60 00
        E 1 80 37 00
        <X 119 0
          /wFbaW50ZW5zZV0=
        >
        E 0 80 74 00
        E 0 90 35 6c
        E 0 90 3e 60
        E 0 90 4b 60
        E 0 90 58 60
        E 0 90 64 60
        E 3360 80 3e 00
        E 120 80 4b 00
        E 120 80 58 00
        E 120 80 64 00
        E 120 90 3e 60
        E 0 90 4b 60
        E 0 90 57 60
        E 0 90 63 60
        E 3360 80 3e 00
        E 120 80 4b 00
        E 120 80 57 00
        E 120 80 63 00
        E 120 90 3e 60
        E 0 90 4b 60
        E 0 90 58 60
        E 0 90 64 60
        E 2400 80 3e 00
        E 120 80 4b 00
        E 120 80 58 00
        E 120 80 64 00
        E 120 90 3e 60
        E 0 90 4b 60
        E 0 90 57 60
        E 0 90 63 60
        E 120 80 3e 00
        E 480 80 4b 00
        E 120 80 57 00
        E 120 80 63 00
        E 120 90 3c 60
        E 0 90 48 60
        E 0 90 54 60
        E 0 90 60 60
        E 3360 80 3c 00
        E 120 80 48 00
        E 120 80 54 00
        E 120 80 60 00
        E 1 80 35 00
        E 119 90 35 6c
        E 0 90 3e 60
        E 0 90 4b 60
        E 0 90 58 60
        E 0 90 64 60
        E 3360 80 3e 00
        E 120 80 4b 00
        E 120 80 58 00
        E 120 80 64 00
        E 120 90 3e 60
        E 0 90 4b 60
        E 0 90 57 60
        E 0 90 63 60
        E 3360 80 3e 00
        E 120 80 4b 00
        E 120 80 57 00
        E 120 80 63 00
        E 120 90 3e 60
        E 0 90 4b 60
        E 0 90 58 60
        E 0 90 64 60
        E 2400 80 3e 00
        E 120 80 4b 00
        E 120 80 58 00
        E 120 80 64 00
        E 120 90 3e 60
        E 0 90 4b 60
        E 0 90 57 60
        E 0 90 63 60
        E 120 80 3e 00
        E 480 80 4b 00
        E 120 80 57 00
        E 120 80 63 00
        E 120 90 3c 60
        E 0 90 48 60
        E 0 90 54 60
        E 0 90 60 60
        <X 3840 0
          /wFbcGxheV0=
        >
        E 1920 80 3c 00
        E 0 80 48 00
        E 0 80 54 00
        E 0 80 60 00
        E 1920 90 74 60
        E 121 80 35 00
        E 119 90 38 6e
        E 0 90 55 60
        E 0 90 61 60
        E 120 80 55 00
        E 0 80 61 00
        E 120 90 4a 60
        E 0 90 56 60
        E 0 90 62 60
        E 120 80 4a 00
        E 0 80 56 00
        E 0 80 62 00
        E 120 90 55 60
        E 0 90 61 60
        E 120 80 55 00
        E 0 80 61 00
        E 120 90 3e 60
        E 0 90 4b 60
        E 0 90 57 60
        E 0 90 63 60
        E 120 80 3e 00
        E 0 80 4b 00
        E 0 80 57 00
        E 0 80 63 00
        E 120 90 56 60
        E 0 90 62 60
        E 120 80 56 00
        E 0 80 62 00
        E 120 90 49 60
        E 0 90 55 60
        E 0 90 61 60
        E 120 80 49 00
        E 0 80 55 00
        E 0 80 61 00
        E 1 80 38 00
        E 119 90 37 6d
        E 0 90 54 60
        E 0 90 60 60
        E 120 80 54 00
        E 0 80 60 00
        E 241 80 37 00
        E 119 90 38 6e
        E 0 90 55 60
        E 0 90 61 60
        E 120 80 55 00
        E 0 80 61 00
        E 120 90 4a 60
        E 0 90 56 60
        E 0 90 62 60
        E 120 80 4a 00
        E 0 80 56 00
        E 0 80 62 00
        E 120 90 55 60
        E 0 90 61 60
        E 120 80 55 00
        E 0 80 61 00
        E 120 90 3e 60
        E 0 90 4b 60
        E 0 90 57 60
        E 0 90 63 60
        E 120 80 3e 00
        E 0 80 4b 00
        E 0 80 57 00
        E 0 80 63 00
        E 120 90 55 60
        E 0 90 61 60
        E 120 80 55 00
        E 0 80 61 00
        E 120 90 4a 60
        E 0 90 56 60
        E 0 90 62 60
        E 120 80 4a 00
        E 0 80 56 00
        E 0 80 62 00
        E 120 90 57 60
        E 0 90 63 60
        E 120 80 57 00
        E 0 80 63 00
        E 120 80 74 00
        E 0 90 3c 60
        E 0 90 49 60
        E 0 90 55 60
        E 0 90 61 60
        E 2880 80 3c 00
        E 0 80 49 00
        E 0 80 55 00
        E 0 80 61 00
        E 1200 90 55 60
        E 0 90 61 60
        E 120 80 55 00
        E 0 80 61 00
        E 120 90 4a 60
        E 0 90 56 60
        E 0 90 62 60
        E 120 80 4a 00
        E 0 80 56 00
        E 0 80 62 00
        E 120 90 55 60
        E 0 90 61 60
        E 120 80 55 00
        E 0 80 61 00
        E 120 90 3e 60
        E 0 90 4b 60
        E 0 90 57 60
        E 0 90 63 60
        E 120 80 3e 00
        E 0 80 4b 00
        E 0 80 57 00
        E 0 80 63 00
        E 120 90 56 60
        E 0 90 62 60
        E 120 80 56 00
        E 0 80 62 00
        E 120 90 49 60
        E 0 90 55 60
        E 0 90 61 60
        E 120 80 49 00
        E 0 80 55 00
        E 0 80 61 00
        E 120 90 54 60
        E 0 90 60 60
        E 120 80 54 00
        E 0 80 60 00
        E 360 90 55 60
        E 0 90 61 60
        E 120 80 55 00
        E 0 80 61 00
        E 120 90 4a 60
        E 0 90 56 60
        E 0 90 62 60
        E 120 80 4a 00
        E 0 80 56 00
        E 0 80 62 00
        E 120 90 55 60
        E 0 90 61 60
        E 120 80 55 00
        E 0 80 61 00
        E 120 90 3e 60
        E 0 90 4b 60
        E 0 90 57 60
        E 0 90 63 60
        E 120 80 3e 00
        E 0 80 4b 00
        E 0 80 57 00
        E 0 80 63 00
        E 120 90 55 60
        E 0 90 61 60
        E 120 80 55 00
        E 0 80 61 00
        E 120 90 3e 60
        E 0 90 4b 60
        E 0 90 57 60
        E 0 90 63 60
        E 120 80 3e 00
        E 0 80 4b 00
        E 0 80 57 00
        E 0 80 63 00
        E 120 90 4b 60
        E 0 90 58 60
        E 0 90 64 60
        E 3120 80 4b 00
        E 0 80 58 00
        E 0 80 64 00
        E 1200 90 55 60
        E 0 90 61 60
        E 120 80 55 00
        E 0 80 61 00
        E 120 90 4a 60
        E 0 90 56 60
        E 0 90 62 60
        E 120 80 4a 00
        E 0 80 56 00
        E 0 80 62 00
        E 120 90 55 60
        E 0 90 61 60
        E 120 80 55 00
        E 0 80 61 00
        E 120 90 3e 60
        E 0 90 4b 60
        E 0 90 57 60
        E 0 90 63 60
        E 120 80 3e 00
        E 0 80 4b 00
        E 0 80 57 00
        E 0 80 63 00
        E 120 90 56 60
        E 0 90 62 60
        E 120 80 56 00
        E 0 80 62 00
        E 120 90 49 60
        E 0 90 55 60
        E 0 90 61 60
        E 120 80 49 00
        E 0 80 55 00
        E 0 80 61 00
        E 1 80 38 00
        E 119 90 37 6d
        E 0 90 54 60
        E 0 90 60 60
        E 120 80 54 00
        E 0 80 60 00
        E 241 80 37 00
        E 119 90 38 6e
        E 0 90 55 60
        E 0 90 61 60
        E 120 80 55 00
        E 0 80 61 00
        E 120 90 4a 60
        E 0 90 56 60
        E 0 90 62 60
        E 120 80 4a 00
        E 0 80 56 00
        E 0 80 62 00
        E 120 90 55 60
        E 0 90 61 60
        E 120 80 55 00
        E 0 80 61 00
        E 120 90 3e 60
        E 0 90 4b 60
        E 0 90 57 60
        E 0 90 63 60
        E 120 80 3e 00
        E 0 80 4b 00
        E 0 80 57 00
        E 0 80 63 00
        E 120 90 54 60
        E 0 90 60 60
        E 120 80 54 00
        E 0 80 60 00
        E 120 90 49 60
        E 0 90 55 60
        E 0 90 61 60
        E 120 80 49 00
        E 0 80 55 00
        E 0 80 61 00
        E 120 90 56 60
        E 0 90 62 60
        E 3120 80 56 00
        E 0 80 62 00
        E 3360 90 3c 60
        E 0 90 48 60
        E 0 90 54 60
        E 0 90 60 60
        E 120 80 3c 00
        E 0 80 48 00
        E 0 80 54 00
        E 0 80 60 00
        E 120 90 58 60
        E 0 90 64 60
        E 120 80 58 00
        E 0 80 64 00
        E 360 90 4b 60
        E 0 90 57 60
        E 0 90 63 60
        <X 720 0
          /wFbaW50ZW5zZV0=
        >
        E 2880 80 4b 00
        E 0 80 57 00
        E 0 80 63 00
        E 4681 80 38 00
        E 119 90 2b 66
        E 0 90 3c 60
        E 0 90 48 60
        E 0 90 54 60
        E 0 90 60 60
        E 0 90 74 60
        E 1440 80 3c 00
        E 120 80 48 00
        E 120 80 54 00
        E 120 80 60 00
        E 120 90 3c 60
        E 0 90 49 60
        E 0 90 55 60
        E 0 90 61 60
        E 1200 80 3c 00
        E 120 80 49 00
        E 120 80 55 00
        E 120 80 61 00
        E 120 90 3e 60
        E 0 90 4b 60
        E 0 90 57 60
        E 0 90 63 60
        E 1440 80 3e 00
        E 120 80 4b 00
        E 120 80 57 00
        E 120 80 63 00
        E 120 90 3d 60
        E 0 90 4a 60
        E 0 90 56 60
        E 0 90 62 60
        E 2160 80 74 00
        E 2880 80 3d 00
        E 0 80 4a 00
        E 0 80 56 00
        E 0 80 62 00
        E 3721 80 2b 00
        E 119 90 37 6d
        E 0 90 3c 60
        E 0 90 48 60
        E 0 90 54 60
        E 0 90 60 60
        E 120 80 3c 00
        E 480 80 48 00
        E 120 80 54 00
        E 120 80 60 00
        E 1 80 37 00
        E 119 90 38 6e
        E 0 90 3c 60
        E 0 90 49 60
        E 0 90 55 60
        E 0 90 61 60
        E 1440 80 3c 00
        E 120 80 49 00
        E 120 80 55 00
        E 120 80 61 00
        E 120 90 3d 60
        E 0 90 4a 60
        E 0 90 56 60
        E 0 90 62 60
        E 1200 80 3d 00
        E 120 80 4a 00
        E 120 80 56 00
        E 120 80 62 00
        E 120 90 3e 60
        E 0 90 4b 60
        E 0 90 58 60
        E 0 90 64 60
        E 1440 80 3e 00
        E 120 80 4b 00
        E 120 80 58 00
        E 120 80 64 00
        E 120 90 3e 60
        E 0 90 4b 60
        E 0 90 57 60
        E 0 90 63 60
        E 1680 80 3e 00
        E 120 80 4b 00
        E 120 80 57 00
        E 120 80 63 00
        <X 120 0
          /wFbcGxheV0=
        >
        E 0 90 3d 60
        E 0 90 4a 60
        E 0 90 56 60
        E 0 90 62 60
        E 3360 80 3d 00
        E 120 80 4a 00
        E 120 80 56 00
        E 120 80 62 00
        E 120 90 3c 60
        E 0 90 49 60
        E 0 90 55 60
        E 0 90 61 60
        E 3360 80 3c 00
        E 120 80 49 00
        E 120 80 55 00
        E 120 80 61 00
        E 120 90 3d 60
        E 0 90 4a 60
        E 0 90 56 60
        E 0 90 62 60
        E 3360 80 3d 00
        E 120 80 4a 00
        E 120 80 56 00
        E 120 80 62 00
        E 120 90 3c 60
        E 0 90 48 60
        E 0 90 54 60
        E 0 90 60 60
        E 3360 80 3c 00
        E 120 80 48 00
        E 120 80 54 00
        E 120 80 60 00
        E 120 90 3d 60
        E 0 90 4a 60
        E 0 90 56 60
        E 0 90 62 60
        E 3360 80 3d 00
        E 120 80 4a 00
        E 120 80 56 00
        E 120 80 62 00
        E 120 90 3c 60
        E 0 90 49 60
        E 0 90 55 60
        E 0 90 61 60
        E 3360 80 3c 00
        E 120 80 49 00
        E 120 80 55 00
        E 120 80 61 00
        E 1 80 38 00
        E 119 90 37 71
        E 0 90 3d 60
        E 0 90 4a 60
        E 0 90 56 60
        E 0 90 62 60
        E 3360 80 3d 00
        E 120 80 4a 00
        E 120 80 56 00
        E 120 80 62 00
        E 120 90 3e 60
        E 0 90 4b 60
        E 0 90 58 60
        E 0 90 64 60
        E 0 90 74 60
        E 3360 80 3e 00
        E 120 80 4b 00
        E 120 80 58 00
        E 120 80 64 00
        E 1 80 37 00
        <X 119 0
          /wFbbWVsbG93XQ==
        >
        E 0 90 3b 70
        E 0 90 3d 60
        E 0 90 4a 60
        E 0 90 56 60
        E 0 90 62 60
        E 120 80 74 00
        E 0 80 3d 00
        E 0 80 4a 00
        E 0 80 56 00
        E 0 80 62 00
        E 360 90 3d 60
        E 0 90 4a 60
        E 0 90 56 60
        E 0 90 62 60
        E 720 80 3d 00
        E 120 80 4a 00
        E 120 80 56 00
        E 120 80 62 00
        E 120 90 3d 60
        E 0 90 4a 60
        E 0 90 56 60
        E 0 90 62 60
        E 120 80 3d 00
        E 0 80 4a 00
        E 0 80 56 00
        E 0 80 62 00
        E 360 90 4a 60
        E 0 90 56 60
        E 0 90 62 60
        E 120 80 4a 00
        E 0 80 56 00
        E 0 80 62 00
        E 120 90 3d 60
        E 0 90 4a 60
        E 0 90 56 60
        E 0 90 62 60
        E 960 80 3d 00
        E 120 80 4a 00
        E 120 80 56 00
        E 120 80 62 00
        E 120 90 3c 60
        E 0 90 49 60
        E 0 90 55 60
        E 0 90 61 60
        E 120 80 3c 00
        E 0 80 49 00
        E 0 80 55 00
        E 0 80 61 00
        E 360 90 3c 60
        E 0 90 49 60
        E 0 90 55 60
        E 0 90 61 60
        E 720 80 3c 00
        E 120 80 49 00
        E 120 80 55 00
        E 120 80 61 00
        E 120 90 3c 60
        E 0 90 49 60
        E 0 90 55 60
        E 0 90 61 60
        E 120 80 3c 00
        E 0 80 49 00
        E 0 80 55 00
        E 0 80 61 00
        E 360 90 49 60
        E 0 90 55 60
        E 0 90 61 60
        E 120 80 49 00
        E 0 80 55 00
        E 0 80 61 00
        E 120 90 3c 60
        E 0 90 49 60
        E 0 90 55 60
        E 0 90 61 60
        E 960 80 3c 00
        E 120 80 49 00
        E 120 80 55 00
        E 120 80 61 00
        E 120 90 3c 60
        E 0 90 48 60
        E 0 90 54 60
        E 0 90 60 60
        E 120 80 3c 00
        E 0 80 48 00
        E 0 80 54 00
        E 0 80 60 00
        E 360 90 3c 60
        E 0 90 48 60
        E 0 90 54 60
        E 0 90 60 60
        E 720 80 3c 00
        E 120 80 48 00
        E 120 80 54 00
        E 120 80 60 00
        E 120 90 3c 60
        E 0 90 48 60
        E 0 90 54 60
        E 0 90 60 60
        E 120 80 3c 00
        E 0 80 48 00
        E 0 80 54 00
        E 0 80 60 00
        E 360 90 48 60
        E 0 90 54 60
        E 0 90 60 60
        E 120 80 48 00
        E 0 80 54 00
        E 0 80 60 00
        E 120 90 3c 60
        E 0 90 48 60
        E 0 90 54 60
        E 0 90 60 60
        E 960 80 3c 00
        E 120 80 48 00
        E 120 80 54 00
        E 120 80 60 00
        E 120 90 3e 60
        E 0 90 4b 60
        E 0 90 57 60
        E 0 90 63 60
        E 120 80 3e 00
        E 0 80 4b 00
        E 0 80 57 00
        E 0 80 63 00
        E 360 90 3e 60
        E 0 90 4b 60
        E 0 90 57 60
        E 0 90 63 60
        E 720 80 3e 00
        E 120 80 4b 00
        E 120 80 57 00
        E 120 80 63 00
        E 120 90 3e 60
        E 0 90 4b 60
        E 0 90 57 60
        E 0 90 63 60
        E 120 80 3e 00
        E 0 80 4b 00
        E 0 80 57 00
        E 0 80 63 00
        E 360 90 4b 60
        E 0 90 57 60
        E 0 90 63 60
        E 120 80 4b 00
        E 0 80 57 00
        E 0 80 63 00
        E 120 90 3e 60
        E 0 90 4b 60
        E 0 90 57 60
        E 0 90 63 60
        E 960 80 3e 00
        E 120 80 4b 00
        E 120 80 57 00
        E 120 80 63 00
        E 120 90 3d 60
        E 0 90 4a 60
        E 0 90 56 60
        E 0 90 62 60
        E 120 80 3d 00
        E 0 80 4a 00
        E 0 80 56 00
        E 0 80 62 00
        E 360 90 3d 60
        E 0 90 4a 60
        E 0 90 56 60
        E 0 90 62 60
        E 720 80 3d 00
        E 120 80 4a 00
        E 120 80 56 00
        E 120 80 62 00
        E 120 90 3d 60
        E 0 90 4a 60
        E 0 90 56 60
        E 0 90 62 60
        E 120 80 3d 00
        E 0 80 4a 00
        E 0 80 56 00
        E 0 80 62 00
        E 360 90 4a 60
        E 0 90 56 60
        E 0 90 62 60
        E 120 80 4a 00
        E 0 80 56 00
        E 0 80 62 00
        E 120 90 3d 60
        E 0 90 4a 60
        E 0 90 56 60
        E 0 90 62 60
        E 960 80 3d 00
        E 120 80 4a 00
        E 120 80 56 00
        E 120 80 62 00
        E 120 90 3c 60
        E 0 90 49 60
        E 0 90 55 60
        E 0 90 61 60
        E 120 80 3c 00
        E 0 80 49 00
        E 0 80 55 00
        E 0 80 61 00
        E 360 90 3c 60
        E 0 90 49 60
        E 0 90 55 60
        E 0 90 61 60
        E 720 80 3c 00
        E 120 80 49 00
        E 120 80 55 00
        E 120 80 61 00
        E 120 90 3c 60
        E 0 90 49 60
        E 0 90 55 60
        E 0 90 61 60
        E 120 80 3c 00
        E 0 80 49 00
        E 0 80 55 00
        E 0 80 61 00
        E 360 90 49 60
        E 0 90 55 60
        E 0 90 61 60
        E 120 80 49 00
        E 0 80 55 00
        E 0 80 61 00
        E 120 90 3c 60
        E 0 90 49 60
        E 0 90 55 60
        E 0 90 61 60
        E 960 80 3c 00
        E 120 80 49 00
        E 120 80 55 00
        E 120 80 61 00
        E 120 90 3e 60
        E 0 90 4b 60
        E 0 90 58 60
        E 0 90 64 60
        E 120 80 3e 00
        E 0 80 4b 00
        E 0 80 58 00
        E 0 80 64 00
        E 360 90 3e 60
        E 0 90 4b 60
        E 0 90 58 60
        E 0 90 64 60
        E 720 80 3e 00
        E 120 80 4b 00
        E 120 80 58 00
        E 120 80 64 00
        E 120 90 3e 60
        E 0 90 4b 60
        E 0 90 58 60
        E 0 90 64 60
        E 120 80 3e 00
        E 0 80 4b 00
        E 0 80 58 00
        E 0 80 64 00
        E 360 90 4b 60
        E 0 90 58 60
        E 0 90 64 60
        E 120 80 4b 00
        E 0 80 58 00
        E 0 80 64 00
        E 120 90 3e 60
        E 0 90 4b 60
        E 0 90 58 60
        E 0 90 64 60
        E 960 80 3e 00
        E 120 80 4b 00
        E 120 80 58 00
        E 120 80 64 00
        E 120 90 3e 60
        E 0 90 4b 60
        E 0 90 57 60
        E 0 90 63 60
        E 120 80 3e 00
        E 0 80 4b 00
        E 0 80 57 00
        E 0 80 63 00
        E 360 90 3e 60
        E 0 90 4b 60
        E 0 90 57 60
        E 0 90 63 60
        E 720 80 3e 00
        E 120 80 4b 00
        E 120 80 57 00
        E 120 80 63 00
        E 120 90 3e 60
        E 0 90 4b 60
        E 0 90 57 60
        E 0 90 63 60
        E 120 80 3e 00
        E 0 80 4b 00
        E 0 80 57 00
        E 0 80 63 00
        E 360 90 4b 60
        E 0 90 57 60
        E 0 90 63 60
        E 120 80 4b 00
        E 0 80 57 00
        E 0 80 63 00
        E 120 90 3e 60
        E 0 90 4b 60
        E 0 90 57 60
        E 0 90 63 60
        E 960 80 3e 00
        E 120 80 4b 00
        E 120 80 57 00
        E 120 80 63 00
        E 120 90 3d 60
        E 0 90 4a 60
        E 0 90 56 60
        E 0 90 62 60
        E 120 80 3d 00
        E 0 80 4a 00
        E 0 80 56 00
        E 0 80 62 00
        E 360 90 3d 60
        E 0 90 4a 60
        E 0 90 56 60
        E 0 90 62 60
        E 720 80 3d 00
        E 120 80 4a 00
        E 120 80 56 00
        E 120 80 62 00
        E 120 90 3d 60
        E 0 90 4a 60
        E 0 90 56 60
        E 0 90 62 60
        E 120 80 3d 00
        E 0 80 4a 00
        E 0 80 56 00
        E 0 80 62 00
        E 360 90 4a 60
        E 0 90 56 60
        E 0 90 62 60
        E 120 80 4a 00
        E 0 80 56 00
        E 0 80 62 00
        E 120 90 3d 60
        E 0 90 4a 60
        E 0 90 56 60
        E 0 90 62 60
        E 960 80 3d 00
        E 120 80 4a 00
        E 120 80 56 00
        E 120 80 62 00
        E 120 90 3c 60
        E 0 90 49 60
        E 0 90 55 60
        E 0 90 61 60
        E 120 80 3c 00
        E 0 80 49 00
        E 0 80 55 00
        E 0 80 61 00
        E 360 90 3c 60
        E 0 90 49 60
        E 0 90 55 60
        E 0 90 61 60
        E 720 80 3c 00
        E 120 80 49 00
        E 120 80 55 00
        E 120 80 61 00
        E 120 90 3c 60
        E 0 90 49 60
        E 0 90 55 60
        E 0 90 61 60
        E 120 80 3c 00
        E 0 80 49 00
        E 0 80 55 00
        E 0 80 61 00
        E 360 90 49 60
        E 0 90 55 60
        E 0 90 61 60
        E 120 80 49 00
        E 0 80 55 00
        E 0 80 61 00
        E 120 90 3c 60
        E 0 90 49 60
        E 0 90 55 60
        E 0 90 61 60
        E 960 80 3c 00
        E 120 80 49 00
        E 120 80 55 00
        E 120 80 61 00
        E 120 90 3c 60
        E 0 90 48 60
        E 0 90 54 60
        E 0 90 60 60
        E 120 80 3c 00
        E 0 80 48 00
        E 0 80 54 00
        E 0 80 60 00
        E 360 90 3c 60
        E 0 90 48 60
        E 0 90 54 60
        E 0 90 60 60
        E 720 80 3c 00
        E 120 80 48 00
        E 120 80 54 00
        E 120 80 60 00
        E 120 90 3c 60
        E 0 90 48 60
        E 0 90 54 60
        E 0 90 60 60
        E 120 80 3c 00
        E 0 80 48 00
        E 0 80 54 00
        E 0 80 60 00
        E 360 90 48 60
        E 0 90 54 60
        E 0 90 60 60
        E 120 80 48 00
        E 0 80 54 00
        E 0 80 60 00
        E 120 90 3c 60
        E 0 90 48 60
        E 0 90 54 60
        E 0 90 60 60
        E 960 80 3c 00
        E 120 80 48 00
        E 120 80 54 00
        E 120 80 60 00
        E 120 90 3e 60
        E 0 90 4b 60
        E 0 90 57 60
        E 0 90 63 60
        E 120 80 3e 00
        E 0 80 4b 00
        E 0 80 57 00
        E 0 80 63 00
        E 360 90 3e 60
        E 0 90 4b 60
        E 0 90 57 60
        E 0 90 63 60
        E 720 80 3e 00
        E 120 80 4b 00
        E 120 80 57 00
        E 120 80 63 00
        E 120 90 3e 60
        E 0 90 4b 60
        E 0 90 57 60
        E 0 90 63 60
        E 120 80 3e 00
        E 0 80 4b 00
        E 0 80 57 00
        E 0 80 63 00
        E 360 90 4b 60
        E 0 90 57 60
        E 0 90 63 60
        E 120 80 4b 00
        E 0 80 57 00
        E 0 80 63 00
        E 120 90 3e 60
        E 0 90 4b 60
        E 0 90 57 60
        E 0 90 63 60
        E 960 80 3e 00
        E 120 80 4b 00
        E 120 80 57 00
        E 120 80 63 00
        E 120 90 3d 60
        E 0 90 4a 60
        E 0 90 56 60
        E 0 90 62 60
        E 120 80 3d 00
        E 0 80 4a 00
        E 0 80 56 00
        E 0 80 62 00
        E 360 90 3d 60
        E 0 90 4a 60
        E 0 90 56 60
        E 0 90 62 60
        E 720 80 3d 00
        E 120 80 4a 00
        E 120 80 56 00
        E 120 80 62 00
        E 120 90 3d 60
        E 0 90 4a 60
        E 0 90 56 60
        E 0 90 62 60
        E 120 80 3d 00
        E 0 80 4a 00
        E 0 80 56 00
        E 0 80 62 00
        E 360 90 4a 60
        E 0 90 56 60
        E 0 90 62 60
        E 120 80 4a 00
        E 0 80 56 00
        E 0 80 62 00
        E 120 90 3d 60
        E 0 90 4a 60
        E 0 90 56 60
        E 0 90 62 60
        E 960 80 3d 00
        E 120 80 4a 00
        E 120 80 56 00
        E 120 80 62 00
        E 120 90 3c 60
        E 0 90 49 60
        E 0 90 55 60
        E 0 90 61 60
        E 120 80 3c 00
        E 0 80 49 00
        E 0 80 55 00
        E 0 80 61 00
        E 360 90 3c 60
        E 0 90 49 60
        E 0 90 55 60
        E 0 90 61 60
        E 720 80 3c 00
        E 120 80 49 00
        E 120 80 55 00
        E 120 80 61 00
        E 120 90 3c 60
        E 0 90 49 60
        E 0 90 55 60
        E 0 90 61 60
        E 120 80 3c 00
        E 0 80 49 00
        E 0 80 55 00
        E 0 80 61 00
        E 360 90 49 60
        E 0 90 55 60
        E 0 90 61 60
        E 120 80 49 00
        E 0 80 55 00
        E 0 80 61 00
        E 120 90 3c 60
        E 0 90 49 60
        E 0 90 55 60
        E 0 90 61 60
        E 960 80 3c 00
        E 120 80 49 00
        E 120 80 55 00
        E 120 80 61 00
        E 120 90 3e 60
        E 0 90 4b 60
        E 0 90 57 60
        E 0 90 63 60
        E 0 90 74 60
        E 120 80 3e 00
        E 0 80 4b 00
        E 0 80 57 00
        E 0 80 63 00
        E 360 90 3e 60
        E 0 90 4b 60
        E 0 90 57 60
        E 0 90 63 60
        E 720 80 3e 00
        E 120 80 4b 00
        E 120 80 57 00
        E 120 80 63 00
        E 120 90 3e 60
        E 0 90 4b 60
        E 0 90 57 60
        E 0 90 63 60
        E 120 80 3e 00
        E 0 80 4b 00
        E 0 80 57 00
        E 0 80 63 00
        E 360 90 4b 60
        E 0 90 57 60
        E 0 90 63 60
        E 120 80 4b 00
        E 0 80 57 00
        E 0 80 63 00
        E 120 90 3e 60
        E 0 90 4b 60
        E 0 90 57 60
        E 0 90 63 60
        E 960 80 3e 00
        E 120 80 4b 00
        E 120 80 57 00
        E 120 80 63 00
        E 120 90 3e 60
        E 0 90 4b 60
        E 0 90 58 60
        E 0 90 64 60
        E 120 80 74 00
        E 0 80 3e 00
        E 0 80 4b 00
        E 0 80 58 00
        E 0 80 64 00
        E 360 90 3e 60
        E 0 90 4b 60
        E 0 90 58 60
        E 0 90 64 60
        E 720 80 3e 00
        E 120 80 4b 00
        E 120 80 58 00
        E 120 80 64 00
        E 120 90 3e 60
        E 0 90 4b 60
        E 0 90 58 60
        E 0 90 64 60
        E 120 80 3e 00
        E 0 80 4b 00
        E 0 80 58 00
        E 0 80 64 00
        E 360 90 4b 60
        E 0 90 58 60
        E 0 90 64 60
        E 120 80 4b 00
        E 0 80 58 00
        E 0 80 64 00
        E 120 90 3e 60
        E 0 90 4b 60
        E 0 90 58 60
        E 0 90 64 60
        E 960 80 3e 00
        E 120 80 4b 00
        E 120 80 58 00
        E 120 80 64 00
        <X 120 0
          /wFbaW50ZW5zZV0=
        >
        E 0 90 3d 60
        E 0 90 4a 60
        E 0 90 56 60
        E 0 90 62 60
        E 1440 80 3d 00
        E 120 80 4a 00
        E 120 80 56 00
        E 120 80 62 00
        E 120 90 3e 60
        E 0 90 4b 60
        E 0 90 57 60
        E 0 90 63 60
        E 1200 80 3e 00
        E 120 80 4b 00
        E 120 80 57 00
        E 120 80 63 00
        E 120 90 3c 60
        E 0 90 49 60
        E 0 90 55 60
        E 0 90 61 60
        E 2640 80 3c 00
        E 120 80 49 00
        E 120 80 55 00
        E 120 80 61 00
        E 120 90 3c 60
        E 0 90 48 60
        E 0 90 54 60
        E 0 90 60 60
        E 120 80 3c 00
        E 480 80 48 00
        E 120 80 54 00
        E 120 80 60 00
        E 120 90 3e 60
        E 0 90 4b 60
        E 0 90 57 60
        E 0 90 63 60
        E 3120 80 3e 00
        E 120 80 4b 00
        E 120 80 57 00
        E 120 80 63 00
        E 120 90 3d 60
        E 0 90 4a 60
        E 0 90 56 60
        E 0 90 62 60
        E 1440 80 3d 00
        E 120 80 4a 00
        E 120 80 56 00
        E 120 80 62 00
        E 1 80 3b 00
        E 119 90 34 6b
        E 0 90 3c 60
        E 0 90 49 60
        E 0 90 55 60
        E 0 90 61 60
        E 1680 80 3c 00
        E 120 80 49 00
        E 120 80 55 00
        E 120 80 61 00
        E 120 90 3c 60
        E 0 90 48 60
        E 0 90 54 60
        E 0 90 60 60
        E 0 90 74 60
        E 1440 80 3c 00
        E 120 80 48 00
        E 120 80 54 00
        E 120 80 60 00
        E 120 90 3c 60
        E 0 90 49 60
        E 0 90 55 60
        E 0 90 61 60
        E 1200 80 3c 00
        E 120 80 49 00
        E 120 80 55 00
        E 120 80 61 00
        E 120 90 3d 60
        E 0 90 4a 60
        E 0 90 56 60
        E 0 90 62 60
        E 240 80 74 00
        E 2400 80 3d 00
        E 120 80 4a 00
        E 120 80 56 00
        E 120 80 62 00
        E 120 90 3e 60
        E 0 90 4b 60
        E 0 90 57 60
        E 0 90 63 60
        E 120 80 3e 00
        E 480 80 4b 00
        E 120 80 57 00
        E 120 80 63 00
        E 120 90 3e 60
        E 0 90 4b 60
        E 0 90 58 60
        E 0 90 64 60
        E 3120 80 3e 00
        E 120 80 4b 00
        E 120 80 58 00
        E 120 80 64 00
        E 120 90 3e 60
        E 0 90 4b 60
        E 0 90 57 60
        E 0 90 63 60
        E 1440 80 3e 00
        E 120 80 4b 00
        E 120 80 57 00
        E 120 80 63 00
        E 120 90 3d 60
        E 0 90 4a 60
        E 0 90 56 60
        E 0 90 62 60
        E 1680 80 3d 00
        E 120 80 4a 00
        E 120 80 56 00
        E 120 80 62 00
        E 120 90 3c 60
        E 0 90 49 60
        E 0 90 55 60
        E 0 90 61 60
        E 3360 80 3c 00
        E 120 80 49 00
        E 120 80 55 00
        E 120 80 61 00
        E 120 90 3e 60
        E 0 90 4b 60
        E 0 90 57 60
        E 0 90 63 60
        E 1200 80 3e 00
        E 120 80 4b 00
        E 120 80 57 00
        E 120 80 63 00
        E 120 90 3c 60
        E 0 90 49 60
        E 0 90 55 60
        E 0 90 61 60
        E 120 80 3c 00
        E 0 80 49 00
        E 0 80 55 00
        E 0 80 61 00
        E 360 90 4a 60
        E 0 90 56 60
        E 0 90 62 60
        E 120 80 4a 00
        E 0 80 56 00
        E 0 80 62 00
        E 360 90 3c 60
        E 0 90 49 60
        E 0 90 55 60
        E 0 90 61 60
        E 120 80 3c 00
        E 0 80 49 00
        E 0 80 55 00
        E 0 80 61 00
        E 360 90 48 60
        E 0 90 54 60
        E 0 90 60 60
        E 120 80 48 00
        E 0 80 54 00
        E 0 80 60 00
        E 600 90 3c 60
        E 0 90 49 60
        E 0 90 55 60
        E 0 90 61 60
        E 3360 80 3c 00
        E 120 80 49 00
        E 120 80 55 00
        E 120 80 61 00
        E 120 90 3e 60
        E 0 90 4b 60
        E 0 90 57 60
        E 0 90 63 60
        E 1200 80 3e 00
        E 120 80 4b 00
        E 120 80 57 00
        E 120 80 63 00
        E 120 90 3c 60
        E 0 90 49 60
        E 0 90 55 60
        E 0 90 61 60
        E 120 80 3c 00
        E 0 80 49 00
        E 0 80 55 00
        E 0 80 61 00
        E 360 90 4a 60
        E 0 90 56 60
        E 0 90 62 60
        E 120 80 4a 00
        E 0 80 56 00
        E 0 80 62 00
        E 360 90 3c 60
        E 0 90 49 60
        E 0 90 55 60
        E 0 90 61 60
        E 120 80 3c 00
        E 0 80 49 00
        E 0 80 55 00
        E 0 80 61 00
        E 360 90 48 60
        E 0 90 54 60
        E 0 90 60 60
        E 1320 80 48 00
        E 120 80 54 00
        E 120 80 60 00
        E 1 80 34 00
        E 119 90 3b 70
        E 0 90 3c 60
        E 0 90 49 60
        E 0 90 55 60
        E 0 90 61 60
        E 120 80 3c 00
        E 0 80 49 00
        E 0 80 55 00
        E 0 80 61 00
        E 120 90 54 60
        E 0 90 60 60
        E 120 80 54 00
        E 0 80 60 00
        E 120 90 3c 60
        E 0 90 49 60
        E 0 90 55 60
        E 0 90 61 60
        E 120 80 3c 00
        E 0 80 49 00
        E 0 80 55 00
        E 0 80 61 00
        E 120 90 56 60
        E 0 90 62 60
        E 120 80 56 00
        E 0 80 62 00
        E 360 90 55 60
        E 0 90 61 60
        E 120 80 55 00
        E 0 80 61 00
        E 120 90 4a 60
        E 0 90 56 60
        E 0 90 62 60
        E 120 80 4a 00
        E 0 80 56 00
        E 0 80 62 00
        E 120 90 55 60
        E 0 90 61 60
        E 120 80 55 00
        E 0 80 61 00
        E 120 90 3e 60
        E 0 90 4b 60
        E 0 90 57 60
        E 0 90 63 60
        E 120 80 3e 00
        E 0 80 4b 00
        E 0 80 57 00
        E 0 80 63 00
        E 120 90 56 60
        E 0 90 62 60
        E 120 80 56 00
        E 0 80 62 00
        E 120 90 49 60
        E 0 90 55 60
        E 0 90 61 60
        E 120 80 49 00
        E 0 80 55 00
        E 0 80 61 00
        E 120 90 54 60
        E 0 90 60 60
        E 120 80 54 00
        E 0 80 60 00
        E 241 80 3b 00
        E 119 90 37 6d
        E 0 90 54 60
        E 0 90 60 60
        E 120 80 54 00
        E 0 80 60 00
        E 120 90 3c 60
        E 0 90 49 60
        E 0 90 55 60
        E 0 90 61 60
        E 120 80 3c 00
        E 0 80 49 00
        E 0 80 55 00
        E 0 80 61 00
        E 120 90 54 60
        E 0 90 60 60
        E 120 80 54 00
        E 0 80 60 00
        E 120 90 3c 60
        E 0 90 49 60
        E 0 90 55 60
        E 0 90 61 60
        E 120 80 3c 00
        E 0 80 49 00
        E 0 80 55 00
        E 0 80 61 00
        E 120 90 54 60
        E 0 90 60 60
        E 120 80 54 00
        E 0 80 60 00
        E 120 90 3c 60
        E 0 90 49 60
        E 0 90 55 60
        E 0 90 61 60
        E 120 80 3c 00
        E 0 80 49 00
        E 0 80 55 00
        E 0 80 61 00
        E 120 90 56 60
        E 0 90 62 60
        E 120 80 56 00
        E 0 80 62 00
        E 360 90 4b 60
        E 0 90 57 60
        E 0 90 63 60
        E 120 80 4b 00
        E 0 80 57 00
        E 0 80 63 00
        E 360 90 3d 60
        E 0 90 4a 60
        E 0 90 56 60
        E 0 90 62 60
        E 120 80 3d 00
        E 0 80 4a 00
        E 0 80 56 00
        E 0 80 62 00
        E 360 90 49 60
        E 0 90 55 60
        E 0 90 61 60
        E 1320 80 49 00
        E 120 80 55 00
        E 120 80 61 00
        E 1 80 37 00
        E 119 90 3b 70
        E 0 90 3c 60
        E 0 90 49 60
        E 0 90 55 60
        E 0 90 61 60
        E 120 80 3c 00
        E 0 80 49 00
        E 0 80 55 00
        E 0 80 61 00
        E 120 90 54 60
        E 0 90 60 60
        E 120 80 54 00
        E 0 80 60 00
        E 120 90 3c 60
        E 0 90 49 60
        E 0 90 55 60
        E 0 90 61 60
        E 120 80 3c 00
        E 0 80 49 00
        E 0 80 55 00
        E 0 80 61 00
        E 120 90 56 60
        E 0 90 62 60
        E 120 80 56 00
        E 0 80 62 00
        E 360 90 55 60
        E 0 90 61 60
        E 120 80 55 00
        E 0 80 61 00
        E 120 90 4a 60
        E 0 90 56 60
        E 0 90 62 60
        E 120 80 4a 00
        E 0 80 56 00
        E 0 80 62 00
        E 1 80 3b 00
        E 119 90 39 73
        E 0 90 55 60
        E 0 90 61 60
        E 120 80 55 00
        E 0 80 61 00
        E 120 90 3e 60
        E 0 90 4b 60
        E 0 90 57 60
        E 0 90 63 60
        E 120 80 3e 00
        E 0 80 4b 00
        E 0 80 57 00
        E 0 80 63 00
        E 120 90 56 60
        E 0 90 62 60
        E 120 80 56 00
        E 0 80 62 00
        E 120 90 3e 60
        E 0 90 4b 60
        E 0 90 57 60
        E 0 90 63 60
        E 120 80 3e 00
        E 0 80 4b 00
        E 0 80 57 00
        E 0 80 63 00
        E 120 90 4b 60
        E 0 90 58 60
        E 0 90 64 60
        E 120 80 4b 00
        E 0 80 58 00
        E 0 80 64 00
        E 241 80 39 00
        E 119 90 37 6d
        E 0 90 54 60
        E 0 90 60 60
        E 120 80 54 00
        E 0 80 60 00
        E 120 90 3c 60
        E 0 90 49 60
        E 0 90 55 60
        E 0 90 61 60
        E 120 80 3c 00
        E 0 80 49 00
        E 0 80 55 00
        E 0 80 61 00
        E 120 90 54 60
        E 0 90 60 60
        E 120 80 54 00
        E 0 80 60 00
        E 120 90 3c 60
        E 0 90 49 60
        E 0 90 55 60
        E 0 90 61 60
        E 120 80 3c 00
        E 0 80 49 00
        E 0 80 55 00
        E 0 80 61 00
        E 120 90 54 60
        E 0 90 60 60
        E 120 80 54 00
        E 0 80 60 00
        E 120 90 3c 60
        E 0 90 49 60
        E 0 90 55 60
        E 0 90 61 60
        E 120 80 3c 00
        E 0 80 49 00
        E 0 80 55 00
        E 0 80 61 00
        E 120 90 56 60
        E 0 90 62 60
        E 120 80 56 00
        E 0 80 62 00
        E 360 90 4b 60
        E 0 90 57 60
        E 0 90 63 60
        E 120 80 4b 00
        E 0 80 57 00
        E 0 80 63 00
        E 360 90 3d 60
        E 0 90 4a 60
        E 0 90 56 60
        E 0 90 62 60
        E 120 80 3d 00
        E 0 80 4a 00
        E 0 80 56 00
        E 0 80 62 00
        E 360 90 49 60
        E 0 90 55 60
        E 0 90 61 60
        E 120 80 49 00
        E 0 80 55 00
        E 0 80 61 00
        E 600 90 3e 60
        E 0 90 4b 60
        E 0 90 57 60
        E 0 90 63 60
        E 4320 80 3e 00
        E 0 80 4b 00
        E 0 80 57 00
        E 0 80 63 00
        E 1 80 37 00
        <X 119 0
          /wFbaWRsZV9yZWFsdGltZV0=
        >
        E 8999 b0 7b 00
        GUID {5EBA5A7B-0E4B-4629-AD98-C88B9E50EACB}
        IGNTEMPO 0 120.00000000 4 4
        SRCCOLOR 6
        VELLANE 132 71 60
        COLORMAP "C:\Program Files\REAPER (x64)\Data\color_maps\rockband_guitarbass.png"
        CFGEDITVIEW 0.000000 2.810962 0 12 0 0 0
        CFGEDIT 1 1 0 1 1 0 1 1 1 1 1 0.25000000 100 100 1200 800 0 2 2 1 0.00000000 0 1 0 0 0.500000 0 0 1.000000 64
        KEYSNAP 0 6 "102030050700" 0 "Pentatonic"
        EVTFILTER 0 -1 -1 -1 -1 0 1 0 0 -1.00000000 -1.00000000
      >
    >
  >
  <TRACK '{706C08E0-75F8-4024-A1E1-B4D855A9F3D8}'
    NAME "guitar"
    PEAKCOL 16576
    BEAT -1
    AUTOMODE 0
    VOLPAN 1.00000000000000 0.00000000000000 -1.00000000000000 -1.00000000000000 1.00000000000000
    MUTESOLO 0 0 0
    IPHASE 0
    ISBUS 2 -1
    BUSCOMP 0 0
    SHOWINMIX 1 0.666700 0.500000 1 0.500000 -1 -1 -1
    FREEMODE 0
    SEL 0
    REC 0 0 0 0 0 0 0
    VU 2
    TRACKHEIGHT 0 0
    INQ 0 0 0 0.5000000000 100 0 0 100
    NCHAN 2
    FX 1
    TRACKID {706C08E0-75F8-4024-A1E1-B4D855A9F3D8}
    PERF 0
    MIDIOUT -1
    MAINSEND 1 0
    <ITEM
      POSITION 0.00000000000000
      SNAPOFFS 0.00000000000000
      LENGTH 249.33300000000000
      LOOP 0
      ALLTAKES 0
      SEL 0
      FADEIN 1 0.000000 0.000000 1 0
      FADEOUT 1 0.000000 0.000000 1 0
      MUTE 0
      IGUID {0B494F4B-7C0B-4C95-8A2F-5DE74EBB07BA}
      IID 18
      NAME "guitar.wav"
      VOLPAN 1.000000 0.000000 1.000000 -1.000000
      SOFFS 0.00000000000000
      PLAYRATE 1.00000000000000 1 0.00000000000000 -1
      CHANMODE 0
      GUID {47594947-1965-4D19-9E24-8F991B67C0DA}
      <SOURCE WAVE
        FILE "wav\guitar.wav"
      >
    >
  >
  <TRACK '{1EEA369E-B36D-4DBF-BECF-9F9645224B91}'
    NAME "PART KEYS"
    PEAKCOL 16576
    BEAT -1
    AUTOMODE 0
    VOLPAN 1.00000000000000 0.00000000000000 -1.00000000000000 -1.00000000000000 1.00000000000000
    MUTESOLO 0 0 0
    IPHASE 0
    ISBUS 1 1
    BUSCOMP 0 0
    SHOWINMIX 1 0.666700 0.500000 1 0.500000 -1 -1 -1
    FREEMODE 0
    SEL 0
    REC 0 0 0 0 0 0 0
    VU 2
    TRACKHEIGHT 0 0
    INQ 0 0 0 0.5000000000 100 0 0 100
    NCHAN 2
    FX 1
    TRACKID {1EEA369E-B36D-4DBF-BECF-9F9645224B91}
    PERF 0
    MIDIOUT -1
    <MIDINOTENAMES
      0 127 "TRILL MARKER"
      0 125 "---"
      0 124 "BRE"
      0 123 "BRE"
      0 122 "BRE"
      0 121 "BRE"
      0 120 "BRE (use all 5)"
      0 119 "----"
      0 116 "OVERDRIVE"
      0 115 "----"
      0 103 "Solo Marker"
      0 102 "Force HOPO Off"
      0 101 "Force HOPO On"
      0 100 "EXPERT Orange"
      0 99 "EXPERT Blue"
      0 98 "EXPERT Yellow"
      0 97 "EXPERT Red"
      0 96 "EXPERT Green"
      0 95 "----"
      0 90 "Force HOPO Off"
      0 89 "Force HOPO On"
      0 88 "HARD Orange"
      0 87 "HARD Blue"
      0 86 "HARD Yellow"
      0 85 "HARD Red"
      0 84 "HARD Green"
      0 77 "----"
      0 76 "MEDIUM Orange"
      0 75 "MEDIUM Blue"
      0 74 "MEDIUM Yellow"
      0 73 "MEDIUM Red"
      0 72 "MEDIUM Green"
      0 65 "----"
      0 64 "EASY Orange"
      0 63 "EASY Blue"
      0 62 "EASY Yellow"
      0 61 "EASY Red"
      0 60 "EASY Green"
    >
    MAINSEND 1 0
    <FXCHAIN
      WNDRECT 0 43 891 559
      SHOW 0
      LASTSEL 0
      DOCKED 0
      BYPASS 0 0
      <VST "VSTi: RBN Preview (RBN)" "rbprev_vst64.dll" 0 ""
        dnBicu5e7f4AAAAAAgAAAAEAAAAAAAAAAgAAAAAAAAAEAAAAAQAAAA==
        AAAQAAMAqgAAABAAAAA=
      >
      FLOATPOS 0 0 0 0
      FXID {70DD3EBD-FC38-428C-9100-A6C80497EA42}
      WAK 0
    >
    <ITEM
      POSITION 0.00000000000000
      SNAPOFFS 0.00000000000000
      LENGTH 249.33300000000000
      LOOP 0
      ALLTAKES 0
      SEL 0
      FADEIN 1 0.000000 0.000000 1 0
      FADEOUT 1 0.000000 0.000000 1 0
      MUTE 0
      IGUID {294B6ECD-A8AF-4FF2-9E70-101FAEE5E5DC}
      IID 6
      NAME "PART KEYS"
      VOLPAN 1.000000 0.000000 1.000000 -1.000000
      SOFFS 0.00000000000000 0.00000000000000
      PLAYRATE 1.00000000000000 1 0.00000000000000 -1
      CHANMODE 0
      GUID {19F407DD-75D7-486F-BA3B-40A345F9B2EB}
      <SOURCE MIDI
        HASDATA 1 480 QN
        POOLEDEVTS {E3474D49-92FF-45AD-81A7-C3A9204D11B5}
        <X 0 0
          /wNQQVJUIEtFWVM=
        >
        <X 7680 0
          /wFbcGxheV0=
        >
        E 960 90 3c 60
        E 0 90 49 60
        E 0 90 55 60
        E 0 90 61 60
        E 120 80 3c 00
        E 0 80 49 00
        E 0 80 55 00
        E 0 80 61 00
        E 120 90 54 60
        E 0 90 60 60
        E 120 80 54 00
        E 0 80 60 00
        E 120 90 3c 60
        E 0 90 49 60
        E 0 90 55 60
        E 0 90 61 60
        E 120 80 3c 00
        E 0 80 49 00
        E 0 80 55 00
        E 0 80 61 00
        E 120 90 56 60
        E 0 90 62 60
        E 120 80 56 00
        E 0 80 62 00
        E 360 90 55 60
        E 0 90 61 60
        E 120 80 55 00
        E 0 80 61 00
        E 120 90 4a 60
        E 0 90 56 60
        E 0 90 62 60
        E 120 80 4a 00
        E 0 80 56 00
        E 0 80 62 00
        E 120 90 55 60
        E 0 90 61 60
        E 120 80 55 00
        E 0 80 61 00
        E 120 90 3e 60
        E 0 90 4b 60
        E 0 90 57 60
        E 0 90 63 60
        E 120 80 3e 00
        E 0 80 4b 00
        E 0 80 57 00
        E 0 80 63 00
        E 120 90 56 60
        E 0 90 62 60
        E 120 80 56 00
        E 0 80 62 00
        E 120 90 49 60
        E 0 90 55 60
        E 0 90 61 60
        E 120 80 49 00
        E 0 80 55 00
        E 0 80 61 00
        E 120 90 54 60
        E 0 90 60 60
        E 120 80 54 00
        E 0 80 60 00
        E 360 90 54 60
        E 0 90 60 60
        E 120 80 54 00
        E 0 80 60 00
        E 120 90 3c 60
        E 0 90 49 60
        E 0 90 55 60
        E 0 90 61 60
        E 120 80 3c 00
        E 0 80 49 00
        E 0 80 55 00
        E 0 80 61 00
        E 120 90 54 60
        E 0 90 60 60
        E 120 80 54 00
        E 0 80 60 00
        E 120 90 3c 60
        E 0 90 49 60
        E 0 90 55 60
        E 0 90 61 60
        E 120 80 3c 00
        E 0 80 49 00
        E 0 80 55 00
        E 0 80 61 00
        E 120 90 54 60
        E 0 90 60 60
        E 120 80 54 00
        E 0 80 60 00
        E 120 90 3c 60
        E 0 90 49 60
        E 0 90 55 60
        E 0 90 61 60
        E 120 80 3c 00
        E 0 80 49 00
        E 0 80 55 00
        E 0 80 61 00
        E 120 90 56 60
        E 0 90 62 60
        E 120 80 56 00
        E 0 80 62 00
        E 360 90 4b 60
        E 0 90 57 60
        E 0 90 63 60
        E 120 80 4b 00
        E 0 80 57 00
        E 0 80 63 00
        E 360 90 3d 60
        E 0 90 4a 60
        E 0 90 56 60
        E 0 90 62 60
        E 120 80 3d 00
        E 0 80 4a 00
        E 0 80 56 00
        E 0 80 62 00
        E 360 90 49 60
        E 0 90 55 60
        E 0 90 61 60
        E 120 80 49 00
        E 0 80 55 00
        E 0 80 61 00
        E 1560 90 3c 60
        E 0 90 49 60
        E 0 90 55 60
        E 0 90 61 60
        E 120 80 3c 00
        E 0 80 49 00
        E 0 80 55 00
        E 0 80 61 00
        E 120 90 54 60
        E 0 90 60 60
        E 120 80 54 00
        E 0 80 60 00
        E 120 90 3c 60
        E 0 90 49 60
        E 0 90 55 60
        E 0 90 61 60
        E 120 80 3c 00
        E 0 80 49 00
        E 0 80 55 00
        E 0 80 61 00
        E 120 90 56 60
        E 0 90 62 60
        E 120 80 56 00
        E 0 80 62 00
        E 360 90 55 60
        E 0 90 61 60
        E 120 80 55 00
        E 0 80 61 00
        E 120 90 4a 60
        E 0 90 56 60
        E 0 90 62 60
        E 120 80 4a 00
        E 0 80 56 00
        E 0 80 62 00
        E 120 90 55 60
        E 0 90 61 60
        E 120 80 55 00
        E 0 80 61 00
        E 120 90 3e 60
        E 0 90 4b 60
        E 0 90 57 60
        E 0 90 63 60
        E 120 80 3e 00
        E 0 80 4b 00
        E 0 80 57 00
        E 0 80 63 00
        E 120 90 56 60
        E 0 90 62 60
        E 120 80 56 00
        E 0 80 62 00
        E 120 90 3e 60
        E 0 90 4b 60
        E 0 90 57 60
        E 0 90 63 60
        E 120 80 3e 00
        E 0 80 4b 00
        E 0 80 57 00
        E 0 80 63 00
        E 120 90 58 60
        E 0 90 64 60
        E 120 80 58 00
        E 0 80 64 00
        E 360 90 54 60
        E 0 90 60 60
        E 120 80 54 00
        E 0 80 60 00
        E 120 90 3c 60
        E 0 90 49 60
        E 0 90 55 60
        E 0 90 61 60
        E 120 80 3c 00
        E 0 80 49 00
        E 0 80 55 00
        E 0 80 61 00
        E 120 90 54 60
        E 0 90 60 60
        E 120 80 54 00
        E 0 80 60 00
        E 120 90 3c 60
        E 0 90 49 60
        E 0 90 55 60
        E 0 90 61 60
        E 120 80 3c 00
        E 0 80 49 00
        E 0 80 55 00
        E 0 80 61 00
        E 120 90 54 60
        E 0 90 60 60
        E 120 80 54 00
        E 0 80 60 00
        E 120 90 3c 60
        E 0 90 49 60
        E 0 90 55 60
        E 0 90 61 60
        E 120 80 3c 00
        E 0 80 49 00
        E 0 80 55 00
        E 0 80 61 00
        E 120 90 56 60
        E 0 90 62 60
        E 120 80 56 00
        E 0 80 62 00
        E 360 90 4b 60
        E 0 90 57 60
        E 0 90 63 60
        E 120 80 4b 00
        E 0 80 57 00
        E 0 80 63 00
        E 360 90 3d 60
        E 0 90 4a 60
        E 0 90 56 60
        E 0 90 62 60
        E 120 80 3d 00
        E 0 80 4a 00
        E 0 80 56 00
        E 0 80 62 00
        E 360 90 49 60
        E 0 90 55 60
        E 0 90 61 60
        E 120 80 49 00
        E 0 80 55 00
        E 0 80 61 00
        <X 600 0
          /wFbaW50ZW5zZV0=
        >
        E 0 90 3d 60
        E 0 90 4a 60
        E 0 90 56 60
        E 0 90 62 60
        E 120 80 3d 00
        E 0 80 4a 00
        E 0 80 56 00
        E 0 80 62 00
        E 360 90 4b 60
        E 0 90 57 60
        E 0 90 63 60
        E 120 80 4b 00
        E 0 80 57 00
        E 0 80 63 00
        E 360 90 3d 60
        E 0 90 4a 60
        E 0 90 56 60
        E 0 90 62 60
        E 120 80 3d 00
        E 0 80 4a 00
        E 0 80 56 00
        E 0 80 62 00
        E 360 90 4b 60
        E 0 90 57 60
        E 0 90 63 60
        E 120 80 4b 00
        E 0 80 57 00
        E 0 80 63 00
        E 360 90 3d 60
        E 0 90 4a 60
        E 0 90 56 60
        E 0 90 62 60
        E 120 80 3d 00
        E 0 80 4a 00
        E 0 80 56 00
        E 0 80 62 00
        E 360 90 4b 60
        E 0 90 57 60
        E 0 90 63 60
        E 120 80 4b 00
        E 0 80 57 00
        E 0 80 63 00
        E 120 90 56 60
        E 0 90 62 60
        E 120 80 56 00
        E 0 80 62 00
        E 360 90 3c 60
        E 0 90 49 60
        E 0 90 55 60
        E 0 90 61 60
        E 120 80 3c 00
        E 0 80 49 00
        E 0 80 55 00
        E 0 80 61 00
        E 600 90 3c 60
        E 0 90 48 60
        E 0 90 54 60
        E 0 90 60 60
        E 120 80 3c 00
        E 0 80 48 00
        E 0 80 54 00
        E 0 80 60 00
        E 120 90 55 60
        E 0 90 61 60
        E 120 80 55 00
        E 0 80 61 00
        E 120 90 4a 60
        E 0 90 56 60
        E 0 90 62 60
        E 120 80 4a 00
        E 0 80 56 00
        E 0 80 62 00
        E 120 90 57 60
        E 0 90 63 60
        E 120 80 57 00
        E 0 80 63 00
        E 360 90 56 60
        E 0 90 62 60
        E 120 80 56 00
        E 0 80 62 00
        E 120 90 4b 60
        E 0 90 57 60
        E 0 90 63 60
        E 120 80 4b 00
        E 0 80 57 00
        E 0 80 63 00
        E 120 90 56 60
        E 0 90 62 60
        E 120 80 56 00
        E 0 80 62 00
        E 120 90 3c 60
        E 0 90 49 60
        E 0 90 55 60
        E 0 90 61 60
        E 120 80 3c 00
        E 0 80 49 00
        E 0 80 55 00
        E 0 80 61 00
        E 120 90 56 60
        E 0 90 62 60
        E 120 80 56 00
        E 0 80 62 00
        E 120 90 4b 60
        E 0 90 57 60
        E 0 90 63 60
        E 120 80 4b 00
        E 0 80 57 00
        E 0 80 63 00
        E 120 90 58 60
        E 0 90 64 60
        E 120 80 58 00
        E 0 80 64 00
        E 360 90 55 60
        E 0 90 61 60
        E 120 80 55 00
        E 0 80 61 00
        E 120 90 3c 60
        E 0 90 48 60
        E 0 90 54 60
        E 0 90 60 60
        E 120 80 3c 00
        E 0 80 48 00
        E 0 80 54 00
        E 0 80 60 00
        E 120 90 55 60
        E 0 90 61 60
        E 120 80 55 00
        E 0 80 61 00
        E 120 90 3c 60
        E 0 90 48 60
        E 0 90 54 60
        E 0 90 60 60
        E 0 90 74 60
        E 120 80 3c 00
        E 0 80 48 00
        E 0 80 54 00
        E 0 80 60 00
        E 120 90 55 60
        E 0 90 61 60
        E 120 80 55 00
        E 0 80 61 00
        E 120 90 4a 60
        E 0 90 56 60
        E 0 90 62 60
        E 120 80 4a 00
        E 0 80 56 00
        E 0 80 62 00
        E 120 90 57 60
        E 0 90 63 60
        E 120 80 57 00
        E 0 80 63 00
        E 120 90 3d 60
        E 0 90 4a 60
        E 0 90 56 60
        E 0 90 62 60
        E 120 80 3d 00
        E 0 80 4a 00
        E 0 80 56 00
        E 0 80 62 00
        E 120 90 57 60
        E 0 90 63 60
        E 120 80 57 00
        E 0 80 63 00
        E 120 90 4c 60
        E 0 90 58 60
        E 0 90 64 60
        E 120 80 4c 00
        E 0 80 58 00
        E 0 80 64 00
        E 120 90 56 60
        E 0 90 62 60
        E 120 80 56 00
        E 0 80 62 00
        E 360 90 3c 60
        E 0 90 49 60
        E 0 90 55 60
        E 0 90 61 60
        E 120 80 3c 00
        E 0 80 49 00
        E 0 80 55 00
        E 0 80 61 00
        E 360 90 4a 60
        E 0 90 56 60
        E 0 90 62 60
        E 120 80 4a 00
        E 0 80 56 00
        E 0 80 62 00
        E 360 90 55 60
        E 0 90 61 60
        E 120 80 55 00
        E 0 80 61 00
        E 120 90 3d 60
        E 0 90 4a 60
        E 0 90 56 60
        E 0 90 62 60
        E 120 80 3d 00
        E 0 80 4a 00
        E 0 80 56 00
        E 0 80 62 00
        E 120 90 57 60
        E 0 90 63 60
        E 120 80 57 00
        E 0 80 63 00
        E 120 90 3d 60
        E 0 90 4a 60
        E 0 90 56 60
        E 0 90 62 60
        E 120 80 74 00
        E 0 80 3d 00
        E 0 80 4a 00
        E 0 80 56 00
        E 0 80 62 00
        E 120 90 55 60
        E 0 90 61 60
        E 120 80 55 00
        E 0 80 61 00
        E 360 90 55 60
        E 0 90 61 60
        E 120 80 55 00
        E 0 80 61 00
        E 120 90 3d 60
        E 0 90 4a 60
        E 0 90 56 60
        E 0 90 62 60
        E 120 80 3d 00
        E 0 80 4a 00
        E 0 80 56 00
        E 0 80 62 00
        E 120 90 57 60
        E 0 90 63 60
        E 120 80 57 00
        E 0 80 63 00
        E 120 90 4c 60
        E 0 90 58 60
        E 0 90 64 60
        E 120 80 4c 00
        E 0 80 58 00
        E 0 80 64 00
        E 120 90 57 60
        E 0 90 63 60
        E 1680 80 57 00
        E 0 80 63 00
        E 480 90 3d 60
        E 0 90 4a 60
        E 0 90 56 60
        E 0 90 62 60
        E 120 80 3d 00
        E 0 80 4a 00
        E 0 80 56 00
        E 0 80 62 00
        E 360 90 4b 60
        E 0 90 57 60
        E 0 90 63 60
        E 120 80 4b 00
        E 0 80 57 00
        E 0 80 63 00
        E 360 90 3d 60
        E 0 90 4a 60
        E 0 90 56 60
        E 0 90 62 60
        E 120 80 3d 00
        E 0 80 4a 00
        E 0 80 56 00
        E 0 80 62 00
        E 360 90 4b 60
        E 0 90 57 60
        E 0 90 63 60
        E 120 80 4b 00
        E 0 80 57 00
        E 0 80 63 00
        E 360 90 3d 60
        E 0 90 4a 60
        E 0 90 56 60
        E 0 90 62 60
        E 120 80 3d 00
        E 0 80 4a 00
        E 0 80 56 00
        E 0 80 62 00
        E 360 90 4b 60
        E 0 90 57 60
        E 0 90 63 60
        E 120 80 4b 00
        E 0 80 57 00
        E 0 80 63 00
        E 120 90 56 60
        E 0 90 62 60
        E 120 80 56 00
        E 0 80 62 00
        E 360 90 3c 60
        E 0 90 49 60
        E 0 90 55 60
        E 0 90 61 60
        E 120 80 3c 00
        E 0 80 49 00
        E 0 80 55 00
        E 0 80 61 00
        E 600 90 3c 60
        E 0 90 48 60
        E 0 90 54 60
        E 0 90 60 60
        E 0 90 74 60
        E 120 80 3c 00
        E 0 80 48 00
        E 0 80 54 00
        E 0 80 60 00
        E 120 90 55 60
        E 0 90 61 60
        E 120 80 55 00
        E 0 80 61 00
        E 120 90 4a 60
        E 0 90 56 60
        E 0 90 62 60
        E 120 80 4a 00
        E 0 80 56 00
        E 0 80 62 00
        E 120 90 57 60
        E 0 90 63 60
        E 120 80 57 00
        E 0 80 63 00
        E 360 90 56 60
        E 0 90 62 60
        E 120 80 56 00
        E 0 80 62 00
        E 120 90 4b 60
        E 0 90 57 60
        E 0 90 63 60
        E 120 80 4b 00
        E 0 80 57 00
        E 0 80 63 00
        E 120 90 56 60
        E 0 90 62 60
        E 120 80 56 00
        E 0 80 62 00
        E 120 90 3c 60
        E 0 90 49 60
        E 0 90 55 60
        E 0 90 61 60
        E 120 80 3c 00
        E 0 80 49 00
        E 0 80 55 00
        E 0 80 61 00
        E 120 90 56 60
        E 0 90 62 60
        E 120 80 56 00
        E 0 80 62 00
        E 120 90 4b 60
        E 0 90 57 60
        E 0 90 63 60
        E 120 80 4b 00
        E 0 80 57 00
        E 0 80 63 00
        E 120 90 58 60
        E 0 90 64 60
        E 120 80 58 00
        E 0 80 64 00
        E 360 90 55 60
        E 0 90 61 60
        E 120 80 55 00
        E 0 80 61 00
        E 120 90 3c 60
        E 0 90 48 60
        E 0 90 54 60
        E 0 90 60 60
        E 120 80 3c 00
        E 0 80 48 00
        E 0 80 54 00
        E 0 80 60 00
        E 120 90 55 60
        E 0 90 61 60
        E 120 80 55 00
        E 0 80 61 00
        E 120 80 74 00
        E 0 90 3c 60
        E 0 90 48 60
        E 0 90 54 60
        E 0 90 60 60
        E 120 80 3c 00
        E 0 80 48 00
        E 0 80 54 00
        E 0 80 60 00
        E 120 90 55 60
        E 0 90 61 60
        E 120 80 55 00
        E 0 80 61 00
        E 120 90 4a 60
        E 0 90 56 60
        E 0 90 62 60
        E 120 80 4a 00
        E 0 80 56 00
        E 0 80 62 00
        E 120 90 57 60
        E 0 90 63 60
        E 120 80 57 00
        E 0 80 63 00
        E 120 90 3d 60
        E 0 90 4a 60
        E 0 90 56 60
        E 0 90 62 60
        E 120 80 3d 00
        E 0 80 4a 00
        E 0 80 56 00
        E 0 80 62 00
        E 120 90 57 60
        E 0 90 63 60
        E 120 80 57 00
        E 0 80 63 00
        E 120 90 4c 60
        E 0 90 58 60
        E 0 90 64 60
        E 120 80 4c 00
        E 0 80 58 00
        E 0 80 64 00
        E 120 90 56 60
        E 0 90 62 60
        E 120 80 56 00
        E 0 80 62 00
        E 360 90 3c 60
        E 0 90 49 60
        E 0 90 55 60
        E 0 90 61 60
        E 120 80 3c 00
        E 0 80 49 00
        E 0 80 55 00
        E 0 80 61 00
        E 360 90 4a 60
        E 0 90 56 60
        E 0 90 62 60
        E 120 80 4a 00
        E 0 80 56 00
        E 0 80 62 00
        E 360 90 55 60
        E 0 90 61 60
        E 120 80 55 00
        E 0 80 61 00
        E 120 90 3d 60
        E 0 90 4a 60
        E 0 90 56 60
        E 0 90 62 60
        E 120 80 3d 00
        E 0 80 4a 00
        E 0 80 56 00
        E 0 80 62 00
        E 120 90 57 60
        E 0 90 63 60
        E 120 80 57 00
        E 0 80 63 00
        E 120 90 3d 60
        E 0 90 4a 60
        E 0 90 56 60
        E 0 90 62 60
        E 120 80 3d 00
        E 0 80 4a 00
        E 0 80 56 00
        E 0 80 62 00
        E 120 90 55 60
        E 0 90 61 60
        E 120 80 55 00
        E 0 80 61 00
        E 360 90 55 60
        E 0 90 61 60
        E 120 80 55 00
        E 0 80 61 00
        E 120 90 3d 60
        E 0 90 4a 60
        E 0 90 56 60
        E 0 90 62 60
        E 120 80 3d 00
        E 0 80 4a 00
        E 0 80 56 00
        E 0 80 62 00
        E 120 90 57 60
        E 0 90 63 60
        E 120 80 57 00
        E 0 80 63 00
        E 120 90 4c 60
        E 0 90 58 60
        E 0 90 64 60
        E 120 80 4c 00
        E 0 80 58 00
        E 0 80 64 00
        E 120 90 57 60
        E 0 90 63 60
        E 1680 80 57 00
        E 0 80 63 00
        <X 480 0
          /wFbcGxheV0=
        >
        E 0 90 3c 60
        E 0 90 48 60
        E 0 90 54 60
        E 0 90 60 60
        E 1200 80 3c 00
        E 120 80 48 00
        E 120 80 54 00
        E 120 80 60 00
        E 120 90 3c 60
        E 0 90 49 60
        E 0 90 55 60
        E 0 90 61 60
        E 120 80 3c 00
        E 0 80 49 00
        E 0 80 55 00
        E 0 80 61 00
        E 360 90 48 60
        E 0 90 54 60
        E 0 90 60 60
        E 120 80 48 00
        E 0 80 54 00
        E 0 80 60 00
        E 360 90 3d 60
        E 0 90 4a 60
        E 0 90 56 60
        E 0 90 62 60
        E 120 80 3d 00
        E 0 80 4a 00
        E 0 80 56 00
        E 0 80 62 00
        E 360 90 4b 60
        E 0 90 57 60
        E 0 90 63 60
        E 120 80 4b 00
        E 0 80 57 00
        E 0 80 63 00
        E 360 90 3c 60
        E 0 90 49 60
        E 0 90 55 60
        E 0 90 61 60
        E 120 80 3c 00
        E 0 80 49 00
        E 0 80 55 00
        E 0 80 61 00
        E 360 90 55 60
        E 0 90 61 60
        E 120 80 55 00
        E 0 80 61 00
        E 120 90 4a 60
        E 0 90 56 60
        E 0 90 62 60
        E 120 80 4a 00
        E 0 80 56 00
        E 0 80 62 00
        E 120 90 55 60
        E 0 90 61 60
        E 120 80 55 00
        E 0 80 61 00
        E 120 90 3e 60
        E 0 90 4b 60
        E 0 90 57 60
        E 0 90 63 60
        E 120 80 3e 00
        E 0 80 4b 00
        E 0 80 57 00
        E 0 80 63 00
        E 120 90 56 60
        E 0 90 62 60
        E 120 80 56 00
        E 0 80 62 00
        E 120 90 49 60
        E 0 90 55 60
        E 0 90 61 60
        E 120 80 49 00
        E 0 80 55 00
        E 0 80 61 00
        E 120 90 54 60
        E 0 90 60 60
        E 120 80 54 00
        E 0 80 60 00
        E 360 90 55 60
        E 0 90 61 60
        E 120 80 55 00
        E 0 80 61 00
        E 120 90 4a 60
        E 0 90 56 60
        E 0 90 62 60
        E 120 80 4a 00
        E 0 80 56 00
        E 0 80 62 00
        E 120 90 55 60
        E 0 90 61 60
        E 120 80 55 00
        E 0 80 61 00
        E 120 90 3e 60
        E 0 90 4b 60
        E 0 90 57 60
        E 0 90 63 60
        E 120 80 3e 00
        E 0 80 4b 00
        E 0 80 57 00
        E 0 80 63 00
        E 120 90 55 60
        E 0 90 61 60
        E 120 80 55 00
        E 0 80 61 00
        E 120 90 4a 60
        E 0 90 56 60
        E 0 90 62 60
        E 120 80 4a 00
        E 0 80 56 00
        E 0 80 62 00
        E 120 90 57 60
        E 0 90 63 60
        E 120 80 57 00
        E 0 80 63 00
        E 1080 90 3d 60
        E 0 90 4a 60
        E 0 90 56 60
        E 0 90 62 60
        E 120 80 3d 00
        E 0 80 4a 00
        E 0 80 56 00
        E 480 80 62 00
        E 120 90 4b 60
        E 0 90 57 60
        E 0 90 63 60
        E 120 80 4b 00
        E 0 80 57 00
        E 0 80 63 00
        E 360 90 40 60
        E 0 90 4c 60
        E 0 90 58 60
        E 0 90 64 60
        E 120 80 40 00
        E 0 80 4c 00
        E 0 80 58 00
        E 0 80 64 00
        E 360 90 4a 60
        E 0 90 56 60
        E 0 90 62 60
        E 120 80 4a 00
        E 0 80 56 00
        E 0 80 62 00
        E 360 90 3e 60
        E 0 90 4b 60
        E 0 90 57 60
        E 0 90 63 60
        E 120 80 3e 00
        E 0 80 4b 00
        E 0 80 57 00
        E 0 80 63 00
        E 360 90 49 60
        E 0 90 55 60
        E 0 90 61 60
        E 120 80 49 00
        E 0 80 55 00
        E 0 80 61 00
        E 360 90 55 60
        E 0 90 61 60
        E 120 80 55 00
        E 0 80 61 00
        E 120 90 4a 60
        E 0 90 56 60
        E 0 90 62 60
        E 120 80 4a 00
        E 0 80 56 00
        E 0 80 62 00
        E 120 90 55 60
        E 0 90 61 60
        E 120 80 55 00
        E 0 80 61 00
        E 120 90 3e 60
        E 0 90 4b 60
        E 0 90 57 60
        E 0 90 63 60
        E 120 80 3e 00
        E 0 80 4b 00
        E 0 80 57 00
        E 0 80 63 00
        E 120 90 56 60
        E 0 90 62 60
        E 120 80 56 00
        E 0 80 62 00
        E 120 90 49 60
        E 0 90 55 60
        E 0 90 61 60
        E 120 80 49 00
        E 0 80 55 00
        E 0 80 61 00
        E 120 90 54 60
        E 0 90 60 60
        E 120 80 54 00
        E 0 80 60 00
        E 360 90 55 60
        E 0 90 61 60
        E 120 80 55 00
        E 0 80 61 00
        E 120 90 4a 60
        E 0 90 56 60
        E 0 90 62 60
        E 120 80 4a 00
        E 0 80 56 00
        E 0 80 62 00
        E 120 90 55 60
        E 0 90 61 60
        E 120 80 55 00
        E 0 80 61 00
        E 120 90 3e 60
        E 0 90 4b 60
        E 0 90 57 60
        E 0 90 63 60
        E 120 80 3e 00
        E 0 80 4b 00
        E 0 80 57 00
        E 0 80 63 00
        E 120 90 55 60
        E 0 90 61 60
        E 120 80 55 00
        E 0 80 61 00
        E 120 90 3e 60
        E 0 90 4b 60
        E 0 90 57 60
        E 0 90 63 60
        E 120 80 3e 00
        E 0 80 4b 00
        E 0 80 57 00
        E 0 80 63 00
        E 120 90 58 60
        E 0 90 64 60
        E 120 80 58 00
        E 0 80 64 00
        E 600 90 3c 60
        E 0 90 48 60
        E 0 90 54 60
        E 0 90 60 60
        E 120 80 3c 00
        E 0 80 48 00
        E 0 80 54 00
        E 0 80 60 00
        E 360 90 3c 60
        E 0 90 49 60
        E 0 90 55 60
        E 0 90 61 60
        E 120 80 3c 00
        E 0 80 49 00
        E 0 80 55 00
        E 0 80 61 00
        E 360 90 4a 60
        E 0 90 56 60
        E 0 90 62 60
        E 120 80 4a 00
        E 0 80 56 00
        E 0 80 62 00
        E 360 90 3e 60
        E 0 90 4b 60
        E 0 90 57 60
        E 0 90 63 60
        E 120 80 3e 00
        E 0 80 4b 00
        E 0 80 57 00
        E 0 80 63 00
        E 120 90 54 60
        E 0 90 60 60
        E 120 80 54 00
        E 0 80 60 00
        E 360 90 4a 60
        E 0 90 56 60
        E 0 90 62 60
        E 120 80 4a 00
        E 0 80 56 00
        E 0 80 62 00
        E 360 90 3e 60
        E 0 90 4b 60
        E 0 90 57 60
        E 0 90 63 60
        E 120 80 3e 00
        E 0 80 4b 00
        E 0 80 57 00
        E 0 80 63 00
        E 360 90 4c 60
        E 0 90 58 60
        E 0 90 64 60
        E 120 80 4c 00
        E 0 80 58 00
        E 0 80 64 00
        E 360 90 55 60
        E 0 90 61 60
        E 120 80 55 00
        E 0 80 61 00
        E 120 90 4a 60
        E 0 90 56 60
        E 0 90 62 60
        E 120 80 4a 00
        E 0 80 56 00
        E 0 80 62 00
        E 120 90 55 60
        E 0 90 61 60
        E 120 80 55 00
        E 0 80 61 00
        E 120 90 3e 60
        E 0 90 4b 60
        E 0 90 57 60
        E 0 90 63 60
        E 120 80 3e 00
        E 0 80 4b 00
        E 0 80 57 00
        E 0 80 63 00
        E 120 90 56 60
        E 0 90 62 60
        E 120 80 56 00
        E 0 80 62 00
        E 120 90 49 60
        E 0 90 55 60
        E 0 90 61 60
        E 120 80 49 00
        E 0 80 55 00
        E 0 80 61 00
        E 120 90 54 60
        E 0 90 60 60
        E 120 80 54 00
        E 0 80 60 00
        E 360 90 55 60
        E 0 90 61 60
        E 120 80 55 00
        E 0 80 61 00
        E 120 90 4a 60
        E 0 90 56 60
        E 0 90 62 60
        E 120 80 4a 00
        E 0 80 56 00
        E 0 80 62 00
        E 120 90 55 60
        E 0 90 61 60
        E 120 80 55 00
        E 0 80 61 00
        E 120 90 3e 60
        E 0 90 4b 60
        E 0 90 57 60
        E 0 90 63 60
        E 120 80 3e 00
        E 0 80 4b 00
        E 0 80 57 00
        E 0 80 63 00
        E 120 90 54 60
        E 0 90 60 60
        E 120 80 54 00
        E 0 80 60 00
        E 120 90 49 60
        E 0 90 55 60
        E 0 90 61 60
        E 120 80 49 00
        E 0 80 55 00
        E 0 80 61 00
        E 120 90 56 60
        E 0 90 62 60
        E 120 80 56 00
        E 0 80 62 00
        E 120 90 3c 60
        E 0 90 48 60
        E 0 90 54 60
        E 0 90 60 60
        E 120 80 3c 00
        E 0 80 48 00
        E 0 80 54 00
        E 0 80 60 00
        E 360 90 49 60
        E 0 90 55 60
        E 0 90 61 60
        E 120 80 49 00
        E 0 80 55 00
        E 0 80 61 00
        E 360 90 3d 60
        E 0 90 4a 60
        E 0 90 56 60
        E 0 90 62 60
        E 120 80 3d 00
        E 0 80 4a 00
        E 0 80 56 00
        E 0 80 62 00
        E 360 90 49 60
        E 0 90 55 60
        E 0 90 61 60
        E 120 80 49 00
        E 0 80 55 00
        E 0 80 61 00
        E 360 90 3d 60
        E 0 90 4a 60
        E 0 90 56 60
        E 0 90 62 60
        E 120 80 3d 00
        E 0 80 4a 00
        E 0 80 56 00
        E 0 80 62 00
        E 360 90 4c 60
        E 0 90 58 60
        E 0 90 64 60
        E 120 80 4c 00
        E 0 80 58 00
        E 0 80 64 00
        E 360 90 3e 60
        E 0 90 4b 60
        E 0 90 57 60
        E 0 90 63 60
        E 120 80 3e 00
        E 0 80 4b 00
        E 0 80 57 00
        E 0 80 63 00
        E 360 90 49 60
        E 0 90 55 60
        E 0 90 61 60
        E 120 80 49 00
        E 0 80 55 00
        E 0 80 61 00
        E 120 90 54 60
        E 0 90 60 60
        E 120 80 54 00
        E 0 80 60 00
        E 360 90 54 60
        E 0 90 60 60
        E 120 80 54 00
        E 0 80 60 00
        E 120 90 3c 60
        E 0 90 49 60
        E 0 90 55 60
        E 0 90 61 60
        E 120 80 3c 00
        E 0 80 49 00
        E 0 80 55 00
        E 0 80 61 00
        E 120 90 54 60
        E 0 90 60 60
        E 120 80 54 00
        E 0 80 60 00
        E 120 90 3c 60
        E 0 90 49 60
        E 0 90 55 60
        E 0 90 61 60
        E 120 80 3c 00
        E 0 80 49 00
        E 0 80 55 00
        E 0 80 61 00
        E 120 90 54 60
        E 0 90 60 60
        E 120 80 54 00
        E 0 80 60 00
        E 120 90 3c 60
        E 0 90 49 60
        E 0 90 55 60
        E 0 90 61 60
        E 120 80 3c 00
        E 0 80 49 00
        E 0 80 55 00
        E 0 80 61 00
        E 120 90 56 60
        E 0 90 62 60
        E 120 80 56 00
        E 0 80 62 00
        E 600 90 3c 60
        E 0 90 48 60
        E 0 90 54 60
        E 0 90 60 60
        E 120 80 3c 00
        E 0 80 48 00
        E 0 80 54 00
        E 0 80 60 00
        E 120 90 57 60
        E 0 90 63 60
        E 120 80 57 00
        E 0 80 63 00
        E 360 90 4c 60
        E 0 90 58 60
        E 0 90 64 60
        E 720 80 4c 00
        E 0 80 58 00
        E 0 80 64 00
        E 960 90 3c 60
        E 0 90 49 60
        E 0 90 55 60
        E 0 90 61 60
        E 120 80 3c 00
        E 0 80 49 00
        E 0 80 55 00
        E 0 80 61 00
        E 120 90 54 60
        E 0 90 60 60
        E 120 80 54 00
        E 0 80 60 00
        E 120 90 3c 60
        E 0 90 49 60
        E 0 90 55 60
        E 0 90 61 60
        E 120 80 3c 00
        E 0 80 49 00
        E 0 80 55 00
        E 0 80 61 00
        E 120 90 56 60
        E 0 90 62 60
        E 120 80 56 00
        E 0 80 62 00
        E 360 90 55 60
        E 0 90 61 60
        E 120 80 55 00
        E 0 80 61 00
        E 120 90 4a 60
        E 0 90 56 60
        E 0 90 62 60
        E 120 80 4a 00
        E 0 80 56 00
        E 0 80 62 00
        E 120 90 55 60
        E 0 90 61 60
        E 120 80 55 00
        E 0 80 61 00
        E 120 90 3e 60
        E 0 90 4b 60
        E 0 90 57 60
        E 0 90 63 60
        E 120 80 3e 00
        E 0 80 4b 00
        E 0 80 57 00
        E 0 80 63 00
        E 120 90 56 60
        E 0 90 62 60
        E 120 80 56 00
        E 0 80 62 00
        E 120 90 49 60
        E 0 90 55 60
        E 0 90 61 60
        E 120 80 49 00
        E 0 80 55 00
        E 0 80 61 00
        E 120 90 54 60
        E 0 90 60 60
        E 120 80 54 00
        E 0 80 60 00
        E 360 90 54 60
        E 0 90 60 60
        E 120 80 54 00
        E 0 80 60 00
        E 120 90 3c 60
        E 0 90 49 60
        E 0 90 55 60
        E 0 90 61 60
        E 120 80 3c 00
        E 0 80 49 00
        E 0 80 55 00
        E 0 80 61 00
        E 120 90 54 60
        E 0 90 60 60
        E 120 80 54 00
        E 0 80 60 00
        E 120 90 3c 60
        E 0 90 49 60
        E 0 90 55 60
        E 0 90 61 60
        E 120 80 3c 00
        E 0 80 49 00
        E 0 80 55 00
        E 0 80 61 00
        E 120 90 54 60
        E 0 90 60 60
        E 120 80 54 00
        E 0 80 60 00
        E 120 90 3c 60
        E 0 90 49 60
        E 0 90 55 60
        E 0 90 61 60
        E 120 80 3c 00
        E 0 80 49 00
        E 0 80 55 00
        E 0 80 61 00
        E 120 90 56 60
        E 0 90 62 60
        E 120 80 56 00
        E 0 80 62 00
        E 360 90 4b 60
        E 0 90 57 60
        E 0 90 63 60
        E 120 80 4b 00
        E 0 80 57 00
        E 0 80 63 00
        E 360 90 3d 60
        E 0 90 4a 60
        E 0 90 56 60
        E 0 90 62 60
        E 120 80 3d 00
        E 0 80 4a 00
        E 0 80 56 00
        E 0 80 62 00
        E 360 90 49 60
        E 0 90 55 60
        E 0 90 61 60
        E 120 80 49 00
        E 0 80 55 00
        E 0 80 61 00
        E 600 90 74 60
        E 960 90 3c 60
        E 0 90 49 60
        E 0 90 55 60
        E 0 90 61 60
        E 120 80 3c 00
        E 0 80 49 00
        E 0 80 55 00
        E 0 80 61 00
        E 120 90 54 60
        E 0 90 60 60
        E 120 80 54 00
        E 0 80 60 00
        E 120 90 3c 60
        E 0 90 49 60
        E 0 90 55 60
        E 0 90 61 60
        E 120 80 3c 00
        E 0 80 49 00
        E 0 80 55 00
        E 0 80 61 00
        E 120 90 56 60
        E 0 90 62 60
        E 120 80 56 00
        E 0 80 62 00
        E 360 90 55 60
        E 0 90 61 60
        E 120 80 55 00
        E 0 80 61 00
        E 120 90 4a 60
        E 0 90 56 60
        E 0 90 62 60
        E 120 80 4a 00
        E 0 80 56 00
        E 0 80 62 00
        E 120 90 55 60
        E 0 90 61 60
        E 120 80 55 00
        E 0 80 61 00
        E 120 90 3e 60
        E 0 90 4b 60
        E 0 90 57 60
        E 0 90 63 60
        E 120 80 3e 00
        E 0 80 4b 00
        E 0 80 57 00
        E 0 80 63 00
        E 120 90 56 60
        E 0 90 62 60
        E 120 80 56 00
        E 0 80 62 00
        E 120 90 3e 60
        E 0 90 4b 60
        E 0 90 57 60
        E 0 90 63 60
        E 120 80 3e 00
        E 0 80 4b 00
        E 0 80 57 00
        E 0 80 63 00
        E 120 90 58 60
        E 0 90 64 60
        E 120 80 58 00
        E 0 80 64 00
        E 120 80 74 00
        E 240 90 54 60
        E 0 90 60 60
        E 120 80 54 00
        E 0 80 60 00
        E 120 90 3c 60
        E 0 90 49 60
        E 0 90 55 60
        E 0 90 61 60
        E 120 80 3c 00
        E 0 80 49 00
        E 0 80 55 00
        E 0 80 61 00
        E 120 90 54 60
        E 0 90 60 60
        E 120 80 54 00
        E 0 80 60 00
        E 120 90 3c 60
        E 0 90 49 60
        E 0 90 55 60
        E 0 90 61 60
        E 120 80 3c 00
        E 0 80 49 00
        E 0 80 55 00
        E 0 80 61 00
        E 120 90 54 60
        E 0 90 60 60
        E 120 80 54 00
        E 0 80 60 00
        E 120 90 3c 60
        E 0 90 49 60
        E 0 90 55 60
        E 0 90 61 60
        E 120 80 3c 00
        E 0 80 49 00
        E 0 80 55 00
        E 0 80 61 00
        E 120 90 56 60
        E 0 90 62 60
        E 120 80 56 00
        E 0 80 62 00
        E 360 90 4b 60
        E 0 90 57 60
        E 0 90 63 60
        E 120 80 4b 00
        E 0 80 57 00
        E 0 80 63 00
        E 360 90 3d 60
        E 0 90 4a 60
        E 0 90 56 60
        E 0 90 62 60
        E 120 80 3d 00
        E 0 80 4a 00
        E 0 80 56 00
        E 0 80 62 00
        E 360 90 49 60
        E 0 90 55 60
        E 0 90 61 60
        E 120 80 49 00
        E 0 80 55 00
        E 0 80 61 00
        <X 600 0
          /wFbaW50ZW5zZV0=
        >
        E 0 90 3d 60
        E 0 90 4a 60
        E 0 90 56 60
        E 0 90 62 60
        E 120 80 3d 00
        E 0 80 4a 00
        E 0 80 56 00
        E 0 80 62 00
        E 360 90 4b 60
        E 0 90 57 60
        E 0 90 63 60
        E 120 80 4b 00
        E 0 80 57 00
        E 0 80 63 00
        E 360 90 3d 60
        E 0 90 4a 60
        E 0 90 56 60
        E 0 90 62 60
        E 120 80 3d 00
        E 0 80 4a 00
        E 0 80 56 00
        E 0 80 62 00
        E 360 90 4b 60
        E 0 90 57 60
        E 0 90 63 60
        E 120 80 4b 00
        E 0 80 57 00
        E 0 80 63 00
        E 360 90 3d 60
        E 0 90 4a 60
        E 0 90 56 60
        E 0 90 62 60
        E 120 80 3d 00
        E 0 80 4a 00
        E 0 80 56 00
        E 0 80 62 00
        E 360 90 4b 60
        E 0 90 57 60
        E 0 90 63 60
        E 120 80 4b 00
        E 0 80 57 00
        E 0 80 63 00
        E 120 90 56 60
        E 0 90 62 60
        E 120 80 56 00
        E 0 80 62 00
        E 360 90 3c 60
        E 0 90 49 60
        E 0 90 55 60
        E 0 90 61 60
        E 120 80 3c 00
        E 0 80 49 00
        E 0 80 55 00
        E 0 80 61 00
        E 600 90 3c 60
        E 0 90 48 60
        E 0 90 54 60
        E 0 90 60 60
        E 120 80 3c 00
        E 0 80 48 00
        E 0 80 54 00
        E 0 80 60 00
        E 120 90 55 60
        E 0 90 61 60
        E 120 80 55 00
        E 0 80 61 00
        E 120 90 4a 60
        E 0 90 56 60
        E 0 90 62 60
        E 120 80 4a 00
        E 0 80 56 00
        E 0 80 62 00
        E 120 90 57 60
        E 0 90 63 60
        E 120 80 57 00
        E 0 80 63 00
        E 360 90 56 60
        E 0 90 62 60
        E 120 80 56 00
        E 0 80 62 00
        E 120 90 4b 60
        E 0 90 57 60
        E 0 90 63 60
        E 120 80 4b 00
        E 0 80 57 00
        E 0 80 63 00
        E 120 90 56 60
        E 0 90 62 60
        E 120 80 56 00
        E 0 80 62 00
        E 120 90 3c 60
        E 0 90 49 60
        E 0 90 55 60
        E 0 90 61 60
        E 120 80 3c 00
        E 0 80 49 00
        E 0 80 55 00
        E 0 80 61 00
        E 120 90 56 60
        E 0 90 62 60
        E 120 80 56 00
        E 0 80 62 00
        E 120 90 4b 60
        E 0 90 57 60
        E 0 90 63 60
        E 120 80 4b 00
        E 0 80 57 00
        E 0 80 63 00
        E 120 90 58 60
        E 0 90 64 60
        E 120 80 58 00
        E 0 80 64 00
        E 360 90 55 60
        E 0 90 61 60
        E 120 80 55 00
        E 0 80 61 00
        E 120 90 3c 60
        E 0 90 48 60
        E 0 90 54 60
        E 0 90 60 60
        E 120 80 3c 00
        E 0 80 48 00
        E 0 80 54 00
        E 0 80 60 00
        E 120 90 55 60
        E 0 90 61 60
        E 120 80 55 00
        E 0 80 61 00
        E 120 90 3c 60
        E 0 90 48 60
        E 0 90 54 60
        E 0 90 60 60
        E 120 80 3c 00
        E 0 80 48 00
        E 0 80 54 00
        E 0 80 60 00
        E 120 90 55 60
        E 0 90 61 60
        E 120 80 55 00
        E 0 80 61 00
        E 120 90 4a 60
        E 0 90 56 60
        E 0 90 62 60
        E 120 80 4a 00
        E 0 80 56 00
        E 0 80 62 00
        E 120 90 57 60
        E 0 90 63 60
        E 120 80 57 00
        E 0 80 63 00
        E 120 90 3d 60
        E 0 90 4a 60
        E 0 90 56 60
        E 0 90 62 60
        E 120 80 3d 00
        E 0 80 4a 00
        E 0 80 56 00
        E 0 80 62 00
        E 120 90 57 60
        E 0 90 63 60
        E 120 80 57 00
        E 0 80 63 00
        E 120 90 4c 60
        E 0 90 58 60
        E 0 90 64 60
        E 120 80 4c 00
        E 0 80 58 00
        E 0 80 64 00
        E 120 90 56 60
        E 0 90 62 60
        E 120 80 56 00
        E 0 80 62 00
        E 360 90 3c 60
        E 0 90 49 60
        E 0 90 55 60
        E 0 90 61 60
        E 120 80 3c 00
        E 0 80 49 00
        E 0 80 55 00
        E 0 80 61 00
        E 360 90 4a 60
        E 0 90 56 60
        E 0 90 62 60
        E 120 80 4a 00
        E 0 80 56 00
        E 0 80 62 00
        E 360 90 55 60
        E 0 90 61 60
        E 120 80 55 00
        E 0 80 61 00
        E 120 90 3d 60
        E 0 90 4a 60
        E 0 90 56 60
        E 0 90 62 60
        E 120 80 3d 00
        E 0 80 4a 00
        E 0 80 56 00
        E 0 80 62 00
        E 120 90 57 60
        E 0 90 63 60
        E 120 80 57 00
        E 0 80 63 00
        E 120 90 3d 60
        E 0 90 4a 60
        E 0 90 56 60
        E 0 90 62 60
        E 120 80 3d 00
        E 0 80 4a 00
        E 0 80 56 00
        E 0 80 62 00
        E 120 90 55 60
        E 0 90 61 60
        E 120 80 55 00
        E 0 80 61 00
        E 360 90 55 60
        E 0 90 61 60
        E 120 80 55 00
        E 0 80 61 00
        E 120 90 3d 60
        E 0 90 4a 60
        E 0 90 56 60
        E 0 90 62 60
        E 120 80 3d 00
        E 0 80 4a 00
        E 0 80 56 00
        E 0 80 62 00
        E 120 90 57 60
        E 0 90 63 60
        E 120 80 57 00
        E 0 80 63 00
        E 120 90 4c 60
        E 0 90 58 60
        E 0 90 64 60
        E 120 80 4c 00
        E 0 80 58 00
        E 0 80 64 00
        E 120 90 57 60
        E 0 90 63 60
        E 1680 80 57 00
        E 0 80 63 00
        E 480 90 3d 60
        E 0 90 4a 60
        E 0 90 56 60
        E 0 90 62 60
        E 120 80 3d 00
        E 0 80 4a 00
        E 0 80 56 00
        E 0 80 62 00
        E 360 90 4b 60
        E 0 90 57 60
        E 0 90 63 60
        E 120 80 4b 00
        E 0 80 57 00
        E 0 80 63 00
        E 360 90 3d 60
        E 0 90 4a 60
        E 0 90 56 60
        E 0 90 62 60
        E 120 80 3d 00
        E 0 80 4a 00
        E 0 80 56 00
        E 0 80 62 00
        E 360 90 4b 60
        E 0 90 57 60
        E 0 90 63 60
        E 120 80 4b 00
        E 0 80 57 00
        E 0 80 63 00
        E 360 90 3d 60
        E 0 90 4a 60
        E 0 90 56 60
        E 0 90 62 60
        E 120 80 3d 00
        E 0 80 4a 00
        E 0 80 56 00
        E 0 80 62 00
        E 360 90 4b 60
        E 0 90 57 60
        E 0 90 63 60
        E 120 80 4b 00
        E 0 80 57 00
        E 0 80 63 00
        E 120 90 56 60
        E 0 90 62 60
        E 120 80 56 00
        E 0 80 62 00
        E 360 90 3c 60
        E 0 90 49 60
        E 0 90 55 60
        E 0 90 61 60
        E 120 80 3c 00
        E 0 80 49 00
        E 0 80 55 00
        E 0 80 61 00
        E 600 90 3c 60
        E 0 90 48 60
        E 0 90 54 60
        E 0 90 60 60
        E 120 80 3c 00
        E 0 80 48 00
        E 0 80 54 00
        E 0 80 60 00
        E 120 90 55 60
        E 0 90 61 60
        E 120 80 55 00
        E 0 80 61 00
        E 120 90 4a 60
        E 0 90 56 60
        E 0 90 62 60
        E 120 80 4a 00
        E 0 80 56 00
        E 0 80 62 00
        E 120 90 57 60
        E 0 90 63 60
        E 120 80 57 00
        E 0 80 63 00
        E 360 90 56 60
        E 0 90 62 60
        E 120 80 56 00
        E 0 80 62 00
        E 120 90 4b 60
        E 0 90 57 60
        E 0 90 63 60
        E 120 80 4b 00
        E 0 80 57 00
        E 0 80 63 00
        E 120 90 56 60
        E 0 90 62 60
        E 120 80 56 00
        E 0 80 62 00
        E 120 90 3c 60
        E 0 90 49 60
        E 0 90 55 60
        E 0 90 61 60
        E 120 80 3c 00
        E 0 80 49 00
        E 0 80 55 00
        E 0 80 61 00
        E 120 90 56 60
        E 0 90 62 60
        E 120 80 56 00
        E 0 80 62 00
        E 120 90 4b 60
        E 0 90 57 60
        E 0 90 63 60
        E 120 80 4b 00
        E 0 80 57 00
        E 0 80 63 00
        E 120 90 58 60
        E 0 90 64 60
        E 120 80 58 00
        E 0 80 64 00
        E 360 90 55 60
        E 0 90 61 60
        E 120 80 55 00
        E 0 80 61 00
        E 120 90 3c 60
        E 0 90 48 60
        E 0 90 54 60
        E 0 90 60 60
        E 120 80 3c 00
        E 0 80 48 00
        E 0 80 54 00
        E 0 80 60 00
        E 120 90 55 60
        E 0 90 61 60
        E 120 80 55 00
        E 0 80 61 00
        E 120 90 3c 60
        E 0 90 48 60
        E 0 90 54 60
        E 0 90 60 60
        E 120 80 3c 00
        E 0 80 48 00
        E 0 80 54 00
        E 0 80 60 00
        E 120 90 55 60
        E 0 90 61 60
        E 120 80 55 00
        E 0 80 61 00
        E 120 90 4a 60
        E 0 90 56 60
        E 0 90 62 60
        E 120 80 4a 00
        E 0 80 56 00
        E 0 80 62 00
        E 120 90 57 60
        E 0 90 63 60
        E 120 80 57 00
        E 0 80 63 00
        E 120 90 3d 60
        E 0 90 4a 60
        E 0 90 56 60
        E 0 90 62 60
        E 120 80 3d 00
        E 0 80 4a 00
        E 0 80 56 00
        E 0 80 62 00
        E 120 90 57 60
        E 0 90 63 60
        E 120 80 57 00
        E 0 80 63 00
        E 120 90 4c 60
        E 0 90 58 60
        E 0 90 64 60
        E 120 80 4c 00
        E 0 80 58 00
        E 0 80 64 00
        E 120 90 56 60
        E 0 90 62 60
        E 120 80 56 00
        E 0 80 62 00
        E 360 90 3c 60
        E 0 90 49 60
        E 0 90 55 60
        E 0 90 61 60
        E 120 80 3c 00
        E 0 80 49 00
        E 0 80 55 00
        E 0 80 61 00
        E 360 90 4a 60
        E 0 90 56 60
        E 0 90 62 60
        E 120 80 4a 00
        E 0 80 56 00
        E 0 80 62 00
        E 360 90 55 60
        E 0 90 61 60
        E 120 80 55 00
        E 0 80 61 00
        E 120 90 3d 60
        E 0 90 4a 60
        E 0 90 56 60
        E 0 90 62 60
        E 120 80 3d 00
        E 0 80 4a 00
        E 0 80 56 00
        E 0 80 62 00
        E 120 90 57 60
        E 0 90 63 60
        E 120 80 57 00
        E 0 80 63 00
        E 120 90 3d 60
        E 0 90 4a 60
        E 0 90 56 60
        E 0 90 62 60
        E 120 80 3d 00
        E 0 80 4a 00
        E 0 80 56 00
        E 0 80 62 00
        E 120 90 55 60
        E 0 90 61 60
        E 120 80 55 00
        E 0 80 61 00
        E 360 90 55 60
        E 0 90 61 60
        E 120 80 55 00
        E 0 80 61 00
        E 120 90 3d 60
        E 0 90 4a 60
        E 0 90 56 60
        E 0 90 62 60
        E 120 80 3d 00
        E 0 80 4a 00
        E 0 80 56 00
        E 0 80 62 00
        E 120 90 57 60
        E 0 90 63 60
        E 120 80 57 00
        E 0 80 63 00
        E 120 90 4c 60
        E 0 90 58 60
        E 0 90 64 60
        E 120 80 4c 00
        E 0 80 58 00
        E 0 80 64 00
        E 120 90 57 60
        E 0 90 63 60
        E 1680 80 57 00
        E 0 80 63 00
        <X 480 0
          /wFbcGxheV0=
        >
        E 0 90 3c 60
        E 0 90 48 60
        E 0 90 54 60
        E 0 90 60 60
        E 1200 80 3c 00
        E 120 80 48 00
        E 120 80 54 00
        E 120 80 60 00
        E 120 90 3c 60
        E 0 90 49 60
        E 0 90 55 60
        E 0 90 61 60
        E 120 80 3c 00
        E 0 80 49 00
        E 0 80 55 00
        E 0 80 61 00
        E 360 90 48 60
        E 0 90 54 60
        E 0 90 60 60
        E 120 80 48 00
        E 0 80 54 00
        E 0 80 60 00
        E 360 90 3d 60
        E 0 90 4a 60
        E 0 90 56 60
        E 0 90 62 60
        E 120 80 3d 00
        E 0 80 4a 00
        E 0 80 56 00
        E 0 80 62 00
        E 360 90 4b 60
        E 0 90 57 60
        E 0 90 63 60
        E 120 80 4b 00
        E 0 80 57 00
        E 0 80 63 00
        E 360 90 3c 60
        E 0 90 49 60
        E 0 90 55 60
        E 0 90 61 60
        E 120 80 3c 00
        E 0 80 49 00
        E 0 80 55 00
        E 0 80 61 00
        E 120 90 74 60
        E 240 90 55 60
        E 0 90 61 60
        E 120 80 55 00
        E 0 80 61 00
        E 120 90 4a 60
        E 0 90 56 60
        E 0 90 62 60
        E 120 80 4a 00
        E 0 80 56 00
        E 0 80 62 00
        E 120 90 55 60
        E 0 90 61 60
        E 120 80 55 00
        E 0 80 61 00
        E 120 90 3e 60
        E 0 90 4b 60
        E 0 90 57 60
        E 0 90 63 60
        E 120 80 3e 00
        E 0 80 4b 00
        E 0 80 57 00
        E 0 80 63 00
        E 120 90 56 60
        E 0 90 62 60
        E 120 80 56 00
        E 0 80 62 00
        E 120 90 49 60
        E 0 90 55 60
        E 0 90 61 60
        E 120 80 49 00
        E 0 80 55 00
        E 0 80 61 00
        E 120 90 54 60
        E 0 90 60 60
        E 120 80 54 00
        E 0 80 60 00
        E 360 90 55 60
        E 0 90 61 60
        E 120 80 55 00
        E 0 80 61 00
        E 120 90 4a 60
        E 0 90 56 60
        E 0 90 62 60
        E 120 80 4a 00
        E 0 80 56 00
        E 0 80 62 00
        E 120 90 55 60
        E 0 90 61 60
        E 120 80 55 00
        E 0 80 61 00
        E 120 90 3e 60
        E 0 90 4b 60
        E 0 90 57 60
        E 0 90 63 60
        E 120 80 3e 00
        E 0 80 4b 00
        E 0 80 57 00
        E 0 80 63 00
        E 120 90 55 60
        E 0 90 61 60
        E 120 80 55 00
        E 0 80 61 00
        E 120 90 4a 60
        E 0 90 56 60
        E 0 90 62 60
        E 120 80 4a 00
        E 0 80 56 00
        E 0 80 62 00
        E 120 90 57 60
        E 0 90 63 60
        E 120 80 57 00
        E 0 80 63 00
        E 120 80 74 00
        E 960 90 3d 60
        E 0 90 4a 60
        E 0 90 56 60
        E 0 90 62 60
        E 120 80 3d 00
        E 0 80 4a 00
        E 0 80 56 00
        E 0 80 62 00
        E 600 90 4b 60
        E 0 90 57 60
        E 0 90 63 60
        E 120 80 4b 00
        E 0 80 57 00
        E 0 80 63 00
        E 360 90 40 60
        E 0 90 4c 60
        E 0 90 58 60
        E 0 90 64 60
        E 120 80 40 00
        E 0 80 4c 00
        E 0 80 58 00
        E 0 80 64 00
        E 360 90 4a 60
        E 0 90 56 60
        E 0 90 62 60
        E 120 80 4a 00
        E 0 80 56 00
        E 0 80 62 00
        E 360 90 3e 60
        E 0 90 4b 60
        E 0 90 57 60
        E 0 90 63 60
        E 120 80 3e 00
        E 0 80 4b 00
        E 0 80 57 00
        E 0 80 63 00
        E 360 90 49 60
        E 0 90 55 60
        E 0 90 61 60
        E 120 80 49 00
        E 0 80 55 00
        E 0 80 61 00
        E 360 90 55 60
        E 0 90 61 60
        E 120 80 55 00
        E 0 80 61 00
        E 120 90 4a 60
        E 0 90 56 60
        E 0 90 62 60
        E 120 80 4a 00
        E 0 80 56 00
        E 0 80 62 00
        E 120 90 55 60
        E 0 90 61 60
        E 120 80 55 00
        E 0 80 61 00
        E 120 90 3e 60
        E 0 90 4b 60
        E 0 90 57 60
        E 0 90 63 60
        E 120 80 3e 00
        E 0 80 4b 00
        E 0 80 57 00
        E 0 80 63 00
        E 120 90 56 60
        E 0 90 62 60
        E 120 80 56 00
        E 0 80 62 00
        E 120 90 49 60
        E 0 90 55 60
        E 0 90 61 60
        E 120 80 49 00
        E 0 80 55 00
        E 0 80 61 00
        E 120 90 54 60
        E 0 90 60 60
        E 120 80 54 00
        E 0 80 60 00
        E 360 90 55 60
        E 0 90 61 60
        E 120 80 55 00
        E 0 80 61 00
        E 120 90 4a 60
        E 0 90 56 60
        E 0 90 62 60
        E 120 80 4a 00
        E 0 80 56 00
        E 0 80 62 00
        E 120 90 55 60
        E 0 90 61 60
        E 120 80 55 00
        E 0 80 61 00
        E 120 90 3e 60
        E 0 90 4b 60
        E 0 90 57 60
        E 0 90 63 60
        E 120 80 3e 00
        E 0 80 4b 00
        E 0 80 57 00
        E 0 80 63 00
        E 120 90 55 60
        E 0 90 61 60
        E 120 80 55 00
        E 0 80 61 00
        E 120 90 3e 60
        E 0 90 4b 60
        E 0 90 57 60
        E 0 90 63 60
        E 120 80 3e 00
        E 0 80 4b 00
        E 0 80 57 00
        E 0 80 63 00
        E 120 90 58 60
        E 0 90 64 60
        E 120 80 58 00
        E 0 80 64 00
        E 600 90 3c 60
        E 0 90 48 60
        E 0 90 54 60
        E 0 90 60 60
        E 120 80 3c 00
        E 0 80 48 00
        E 0 80 54 00
        E 0 80 60 00
        E 360 90 3c 60
        E 0 90 49 60
        E 0 90 55 60
        E 0 90 61 60
        E 120 80 3c 00
        E 0 80 49 00
        E 0 80 55 00
        E 0 80 61 00
        E 360 90 4a 60
        E 0 90 56 60
        E 0 90 62 60
        E 120 80 4a 00
        E 0 80 56 00
        E 0 80 62 00
        E 360 90 3e 60
        E 0 90 4b 60
        E 0 90 57 60
        E 0 90 63 60
        E 120 80 3e 00
        E 0 80 4b 00
        E 0 80 57 00
        E 0 80 63 00
        E 120 90 54 60
        E 0 90 60 60
        E 120 80 54 00
        E 0 80 60 00
        E 360 90 4a 60
        E 0 90 56 60
        E 0 90 62 60
        E 120 80 4a 00
        E 0 80 56 00
        E 0 80 62 00
        E 360 90 3e 60
        E 0 90 4b 60
        E 0 90 57 60
        E 0 90 63 60
        E 120 80 3e 00
        E 0 80 4b 00
        E 0 80 57 00
        E 0 80 63 00
        E 360 90 4c 60
        E 0 90 58 60
        E 0 90 64 60
        E 120 80 4c 00
        E 0 80 58 00
        E 0 80 64 00
        E 360 90 55 60
        E 0 90 61 60
        E 120 80 55 00
        E 0 80 61 00
        E 120 90 4a 60
        E 0 90 56 60
        E 0 90 62 60
        E 120 80 4a 00
        E 0 80 56 00
        E 0 80 62 00
        E 120 90 55 60
        E 0 90 61 60
        E 120 80 55 00
        E 0 80 61 00
        E 120 90 3e 60
        E 0 90 4b 60
        E 0 90 57 60
        E 0 90 63 60
        E 120 80 3e 00
        E 0 80 4b 00
        E 0 80 57 00
        E 0 80 63 00
        E 120 90 56 60
        E 0 90 62 60
        E 120 80 56 00
        E 0 80 62 00
        E 120 90 49 60
        E 0 90 55 60
        E 0 90 61 60
        E 120 80 49 00
        E 0 80 55 00
        E 0 80 61 00
        E 120 90 54 60
        E 0 90 60 60
        E 120 80 54 00
        E 0 80 60 00
        E 360 90 55 60
        E 0 90 61 60
        E 120 80 55 00
        E 0 80 61 00
        E 120 90 4a 60
        E 0 90 56 60
        E 0 90 62 60
        E 120 80 4a 00
        E 0 80 56 00
        E 0 80 62 00
        E 120 90 55 60
        E 0 90 61 60
        E 120 80 55 00
        E 0 80 61 00
        E 120 90 3e 60
        E 0 90 4b 60
        E 0 90 57 60
        E 0 90 63 60
        E 120 80 3e 00
        E 0 80 4b 00
        E 0 80 57 00
        E 0 80 63 00
        E 120 90 54 60
        E 0 90 60 60
        E 120 80 54 00
        E 0 80 60 00
        E 120 90 49 60
        E 0 90 55 60
        E 0 90 61 60
        E 120 80 49 00
        E 0 80 55 00
        E 0 80 61 00
        E 120 90 56 60
        E 0 90 62 60
        E 120 80 56 00
        E 0 80 62 00
        E 120 90 3c 60
        E 0 90 48 60
        E 0 90 54 60
        E 0 90 60 60
        E 120 80 3c 00
        E 0 80 48 00
        E 0 80 54 00
        E 0 80 60 00
        E 360 90 49 60
        E 0 90 55 60
        E 0 90 61 60
        E 120 80 49 00
        E 0 80 55 00
        E 0 80 61 00
        E 360 90 3d 60
        E 0 90 4a 60
        E 0 90 56 60
        E 0 90 62 60
        E 120 80 3d 00
        E 0 80 4a 00
        E 0 80 56 00
        E 0 80 62 00
        E 360 90 49 60
        E 0 90 55 60
        E 0 90 61 60
        E 120 80 49 00
        E 0 80 55 00
        E 0 80 61 00
        E 360 90 3d 60
        E 0 90 4a 60
        E 0 90 56 60
        E 0 90 62 60
        E 120 80 3d 00
        E 0 80 4a 00
        E 0 80 56 00
        E 0 80 62 00
        E 360 90 4c 60
        E 0 90 58 60
        E 0 90 64 60
        E 120 80 4c 00
        E 0 80 58 00
        E 0 80 64 00
        E 360 90 3e 60
        E 0 90 4b 60
        E 0 90 57 60
        E 0 90 63 60
        E 120 80 3e 00
        E 0 80 4b 00
        E 0 80 57 00
        E 0 80 63 00
        E 360 90 49 60
        E 0 90 55 60
        E 0 90 61 60
        E 120 80 49 00
        E 0 80 55 00
        E 0 80 61 00
        E 120 90 54 60
        E 0 90 60 60
        E 120 80 54 00
        E 0 80 60 00
        E 360 90 54 60
        E 0 90 60 60
        E 120 80 54 00
        E 0 80 60 00
        E 120 90 3c 60
        E 0 90 49 60
        E 0 90 55 60
        E 0 90 61 60
        E 120 80 3c 00
        E 0 80 49 00
        E 0 80 55 00
        E 0 80 61 00
        E 120 90 54 60
        E 0 90 60 60
        E 120 80 54 00
        E 0 80 60 00
        E 120 90 3c 60
        E 0 90 49 60
        E 0 90 55 60
        E 0 90 61 60
        E 120 80 3c 00
        E 0 80 49 00
        E 0 80 55 00
        E 0 80 61 00
        E 120 90 54 60
        E 0 90 60 60
        E 120 80 54 00
        E 0 80 60 00
        E 120 90 3c 60
        E 0 90 49 60
        E 0 90 55 60
        E 0 90 61 60
        E 120 80 3c 00
        E 0 80 49 00
        E 0 80 55 00
        E 0 80 61 00
        E 120 90 56 60
        E 0 90 62 60
        E 120 80 56 00
        E 0 80 62 00
        E 600 90 3c 60
        E 0 90 48 60
        E 0 90 54 60
        E 0 90 60 60
        E 120 80 3c 00
        E 0 80 48 00
        E 0 80 54 00
        E 0 80 60 00
        E 120 90 58 60
        E 0 90 64 60
        E 120 80 58 00
        E 0 80 64 00
        E 360 90 4b 60
        E 0 90 57 60
        E 0 90 63 60
        E 120 80 4b 00
        E 0 80 57 00
        E 0 80 63 00
        <X 600 0
          /wFbaW50ZW5zZV0=
        >
        E 0 90 3c 60
        E 0 90 49 60
        E 0 90 55 60
        E 0 90 61 60
        E 120 80 3c 00
        E 0 80 49 00
        E 0 80 55 00
        E 0 80 61 00
        E 120 90 56 60
        E 0 90 62 60
        E 120 80 56 00
        E 0 80 62 00
        E 120 90 4b 60
        E 0 90 57 60
        E 0 90 63 60
        E 120 80 4b 00
        E 0 80 57 00
        E 0 80 63 00
        E 120 90 56 60
        E 0 90 62 60
        E 120 80 56 00
        E 0 80 62 00
        E 360 90 3c 60
        E 0 90 49 60
        E 0 90 55 60
        E 0 90 61 60
        E 120 80 3c 00
        E 0 80 49 00
        E 0 80 55 00
        E 0 80 61 00
        E 360 90 54 60
        E 0 90 60 60
        E 120 80 54 00
        E 0 80 60 00
        E 120 90 3c 60
        E 0 90 49 60
        E 0 90 55 60
        E 0 90 61 60
        E 120 80 3c 00
        E 0 80 49 00
        E 0 80 55 00
        E 0 80 61 00
        E 120 90 54 60
        E 0 90 60 60
        E 120 80 54 00
        E 0 80 60 00
        E 120 90 4b 60
        E 0 90 57 60
        E 0 90 63 60
        E 120 80 4b 00
        E 0 80 57 00
        E 0 80 63 00
        E 120 90 56 60
        E 0 90 62 60
        E 120 80 56 00
        E 0 80 62 00
        E 360 90 54 60
        E 0 90 60 60
        E 120 80 54 00
        E 0 80 60 00
        E 120 90 49 60
        E 0 90 55 60
        E 0 90 61 60
        E 120 80 49 00
        E 0 80 55 00
        E 0 80 61 00
        E 120 90 54 60
        E 0 90 60 60
        E 120 80 54 00
        E 0 80 60 00
        E 120 90 40 60
        E 0 90 4c 60
        E 0 90 58 60
        E 0 90 64 60
        E 120 80 40 00
        E 0 80 4c 00
        E 0 80 58 00
        E 0 80 64 00
        E 120 90 57 60
        E 0 90 63 60
        E 120 80 57 00
        E 0 80 63 00
        E 120 90 4a 60
        E 0 90 56 60
        E 0 90 62 60
        E 120 80 4a 00
        E 0 80 56 00
        E 0 80 62 00
        E 120 90 55 60
        E 0 90 61 60
        E 120 80 55 00
        E 0 80 61 00
        E 360 90 54 60
        E 0 90 60 60
        E 120 80 54 00
        E 0 80 60 00
        E 120 90 3c 60
        E 0 90 49 60
        E 0 90 55 60
        E 0 90 61 60
        E 120 80 3c 00
        E 0 80 49 00
        E 0 80 55 00
        E 0 80 61 00
        E 120 90 54 60
        E 0 90 60 60
        E 120 80 54 00
        E 0 80 60 00
        E 120 90 3c 60
        E 0 90 49 60
        E 0 90 55 60
        E 0 90 61 60
        E 120 80 3c 00
        E 0 80 49 00
        E 0 80 55 00
        E 0 80 61 00
        E 120 90 56 60
        E 0 90 62 60
        E 120 80 56 00
        E 0 80 62 00
        E 120 90 4b 60
        E 0 90 57 60
        E 0 90 63 60
        E 120 80 4b 00
        E 0 80 57 00
        E 0 80 63 00
        E 120 90 56 60
        E 0 90 62 60
        E 120 80 56 00
        E 0 80 62 00
        E 360 90 56 60
        E 0 90 62 60
        E 120 80 56 00
        E 0 80 62 00
        E 120 90 4b 60
        E 0 90 57 60
        E 0 90 63 60
        E 120 80 4b 00
        E 0 80 57 00
        E 0 80 63 00
        E 120 90 54 60
        E 0 90 60 60
        E 120 80 54 00
        E 0 80 60 00
        E 120 90 3c 60
        E 0 90 49 60
        E 0 90 55 60
        E 0 90 61 60
        E 120 80 3c 00
        E 0 80 49 00
        E 0 80 55 00
        E 0 80 61 00
        E 120 90 54 60
        E 0 90 60 60
        E 120 80 54 00
        E 0 80 60 00
        E 120 90 49 60
        E 0 90 55 60
        E 0 90 61 60
        E 120 80 49 00
        E 0 80 55 00
        E 0 80 61 00
        E 120 90 56 60
        E 0 90 62 60
        E 120 80 56 00
        E 0 80 62 00
        E 120 90 3e 60
        E 0 90 4b 60
        E 0 90 57 60
        E 0 90 63 60
        E 120 80 3e 00
        E 0 80 4b 00
        E 0 80 57 00
        E 0 80 63 00
        E 120 90 56 60
        E 0 90 62 60
        E 120 80 56 00
        E 0 80 62 00
        E 120 90 49 60
        E 0 90 55 60
        E 0 90 61 60
        E 120 80 49 00
        E 0 80 55 00
        E 0 80 61 00
        E 120 90 54 60
        E 0 90 60 60
        E 120 80 54 00
        E 0 80 60 00
        E 120 90 3c 60
        E 0 90 49 60
        E 0 90 55 60
        E 0 90 61 60
        E 120 80 3c 00
        E 0 80 49 00
        E 0 80 55 00
        E 0 80 61 00
        E 120 90 54 60
        E 0 90 60 60
        E 120 80 54 00
        E 0 80 60 00
        E 120 90 49 60
        E 0 90 55 60
        E 0 90 61 60
        E 120 80 49 00
        E 0 80 55 00
        E 0 80 61 00
        E 120 90 56 60
        E 0 90 62 60
        E 120 80 56 00
        E 0 80 62 00
        E 120 90 3e 60
        E 0 90 4b 60
        E 0 90 57 60
        E 0 90 63 60
        E 120 80 3e 00
        E 0 80 4b 00
        E 0 80 57 00
        E 0 80 63 00
        E 120 90 56 60
        E 0 90 62 60
        E 120 80 56 00
        E 0 80 62 00
        E 120 90 49 60
        E 0 90 55 60
        E 0 90 61 60
        E 120 80 49 00
        E 0 80 55 00
        E 0 80 61 00
        E 120 90 54 60
        E 0 90 60 60
        E 120 80 54 00
        E 0 80 60 00
        E 120 90 40 60
        E 0 90 4c 60
        E 0 90 58 60
        E 0 90 64 60
        E 120 80 40 00
        E 0 80 4c 00
        E 0 80 58 00
        E 0 80 64 00
        E 120 90 55 60
        E 0 90 61 60
        E 120 80 55 00
        E 0 80 61 00
        E 120 90 40 60
        E 0 90 4c 60
        E 0 90 58 60
        E 0 90 64 60
        E 120 80 40 00
        E 0 80 4c 00
        E 0 80 58 00
        E 0 80 64 00
        E 120 90 55 60
        E 0 90 61 60
        E 120 80 55 00
        E 0 80 61 00
        E 120 90 40 60
        E 0 90 4c 60
        E 0 90 58 60
        E 0 90 64 60
        E 120 80 40 00
        E 0 80 4c 00
        E 0 80 58 00
        E 0 80 64 00
        E 120 90 55 60
        E 0 90 61 60
        E 120 80 55 00
        E 0 80 61 00
        E 360 90 57 60
        E 0 90 63 60
        E 120 80 57 00
        E 0 80 63 00
        E 120 90 3c 60
        E 0 90 49 60
        E 0 90 55 60
        E 0 90 61 60
        E 120 80 3c 00
        E 0 80 49 00
        E 0 80 55 00
        E 0 80 61 00
        E 120 90 55 60
        E 0 90 61 60
        E 120 80 55 00
        E 0 80 61 00
        E 120 90 4b 60
        E 0 90 57 60
        E 0 90 63 60
        E 120 80 4b 00
        E 0 80 57 00
        E 0 80 63 00
        E 120 90 55 60
        E 0 90 61 60
        E 120 80 55 00
        E 0 80 61 00
        E 120 90 3e 60
        E 0 90 4b 60
        E 0 90 57 60
        E 0 90 63 60
        E 120 80 3e 00
        E 0 80 4b 00
        E 0 80 57 00
        E 0 80 63 00
        E 120 90 55 60
        E 0 90 61 60
        E 120 80 55 00
        E 0 80 61 00
        E 120 90 4b 60
        E 0 90 57 60
        E 0 90 63 60
        E 120 80 4b 00
        E 0 80 57 00
        E 0 80 63 00
        E 120 90 57 60
        E 0 90 63 60
        E 120 80 57 00
        E 0 80 63 00
        E 120 90 3c 60
        E 0 90 49 60
        E 0 90 55 60
        E 0 90 61 60
        E 120 80 3c 00
        E 0 80 49 00
        E 0 80 55 00
        E 0 80 61 00
        E 120 90 56 60
        E 0 90 62 60
        E 120 80 56 00
        E 0 80 62 00
        E 120 90 4b 60
        E 0 90 57 60
        E 0 90 63 60
        E 120 80 4b 00
        E 0 80 57 00
        E 0 80 63 00
        E 120 90 56 60
        E 0 90 62 60
        E 120 80 56 00
        E 0 80 62 00
        E 360 90 3c 60
        E 0 90 49 60
        E 0 90 55 60
        E 0 90 61 60
        E 120 80 3c 00
        E 0 80 49 00
        E 0 80 55 00
        E 0 80 61 00
        E 360 90 54 60
        E 0 90 60 60
        E 120 80 54 00
        E 0 80 60 00
        E 120 90 3c 60
        E 0 90 49 60
        E 0 90 55 60
        E 0 90 61 60
        E 120 80 3c 00
        E 0 80 49 00
        E 0 80 55 00
        E 0 80 61 00
        E 120 90 54 60
        E 0 90 60 60
        E 120 80 54 00
        E 0 80 60 00
        E 120 90 4b 60
        E 0 90 57 60
        E 0 90 63 60
        E 120 80 4b 00
        E 0 80 57 00
        E 0 80 63 00
        E 120 90 56 60
        E 0 90 62 60
        E 120 80 56 00
        E 0 80 62 00
        E 120 90 74 60
        E 240 90 54 60
        E 0 90 60 60
        E 120 80 54 00
        E 0 80 60 00
        E 120 90 49 60
        E 0 90 55 60
        E 0 90 61 60
        E 120 80 49 00
        E 0 80 55 00
        E 0 80 61 00
        E 120 90 54 60
        E 0 90 60 60
        E 120 80 54 00
        E 0 80 60 00
        E 120 90 40 60
        E 0 90 4c 60
        E 0 90 58 60
        E 0 90 64 60
        E 120 80 40 00
        E 0 80 4c 00
        E 0 80 58 00
        E 0 80 64 00
        E 120 90 57 60
        E 0 90 63 60
        E 120 80 57 00
        E 0 80 63 00
        E 120 90 4a 60
        E 0 90 56 60
        E 0 90 62 60
        E 120 80 4a 00
        E 0 80 56 00
        E 0 80 62 00
        E 120 90 55 60
        E 0 90 61 60
        E 120 80 55 00
        E 0 80 61 00
        E 360 90 54 60
        E 0 90 60 60
        E 120 80 54 00
        E 0 80 60 00
        E 120 90 3c 60
        E 0 90 49 60
        E 0 90 55 60
        E 0 90 61 60
        E 120 80 3c 00
        E 0 80 49 00
        E 0 80 55 00
        E 0 80 61 00
        E 120 90 54 60
        E 0 90 60 60
        E 120 80 54 00
        E 0 80 60 00
        E 120 90 3c 60
        E 0 90 49 60
        E 0 90 55 60
        E 0 90 61 60
        E 120 80 3c 00
        E 0 80 49 00
        E 0 80 55 00
        E 0 80 61 00
        E 120 90 56 60
        E 0 90 62 60
        E 120 80 56 00
        E 0 80 62 00
        E 120 90 4b 60
        E 0 90 57 60
        E 0 90 63 60
        E 120 80 4b 00
        E 0 80 57 00
        E 0 80 63 00
        E 120 90 56 60
        E 0 90 62 60
        E 120 80 56 00
        E 0 80 62 00
        E 120 80 74 00
        E 240 90 56 60
        E 0 90 62 60
        E 120 80 56 00
        E 0 80 62 00
        E 120 90 4b 60
        E 0 90 57 60
        E 0 90 63 60
        E 120 80 4b 00
        E 0 80 57 00
        E 0 80 63 00
        E 120 90 54 60
        E 0 90 60 60
        E 120 80 54 00
        E 0 80 60 00
        E 120 90 3c 60
        E 0 90 49 60
        E 0 90 55 60
        E 0 90 61 60
        E 120 80 3c 00
        E 0 80 49 00
        E 0 80 55 00
        E 0 80 61 00
        E 120 90 54 60
        E 0 90 60 60
        E 120 80 54 00
        E 0 80 60 00
        E 120 90 49 60
        E 0 90 55 60
        E 0 90 61 60
        E 120 80 49 00
        E 0 80 55 00
        E 0 80 61 00
        E 120 90 56 60
        E 0 90 62 60
        E 120 80 56 00
        E 0 80 62 00
        E 120 90 3e 60
        E 0 90 4b 60
        E 0 90 57 60
        E 0 90 63 60
        E 120 80 3e 00
        E 0 80 4b 00
        E 0 80 57 00
        E 0 80 63 00
        E 120 90 55 60
        E 0 90 61 60
        E 120 80 55 00
        E 0 80 61 00
        E 120 90 4a 60
        E 0 90 56 60
        E 0 90 62 60
        E 120 80 4a 00
        E 0 80 56 00
        E 0 80 62 00
        E 120 90 57 60
        E 0 90 63 60
        E 120 80 57 00
        E 0 80 63 00
        E 120 90 40 60
        E 0 90 4c 60
        E 0 90 58 60
        E 0 90 64 60
        E 120 80 40 00
        E 0 80 4c 00
        E 0 80 58 00
        E 0 80 64 00
        E 120 90 55 60
        E 0 90 61 60
        E 120 80 55 00
        E 0 80 61 00
        E 120 90 4a 60
        E 0 90 56 60
        E 0 90 62 60
        E 120 80 4a 00
        E 0 80 56 00
        E 0 80 62 00
        E 120 90 57 60
        E 0 90 63 60
        E 120 80 57 00
        E 0 80 63 00
        E 120 90 40 60
        E 0 90 4c 60
        E 0 90 58 60
        E 0 90 64 60
        E 120 80 40 00
        E 0 80 4c 00
        E 0 80 58 00
        E 0 80 64 00
        E 120 90 57 60
        E 0 90 63 60
        E 120 80 57 00
        E 0 80 63 00
        E 120 90 4a 60
        E 0 90 56 60
        E 0 90 62 60
        E 120 80 4a 00
        E 0 80 56 00
        E 0 80 62 00
        E 120 90 55 60
        E 0 90 61 60
        E 120 80 55 00
        E 0 80 61 00
        E 120 90 40 60
        E 0 90 4c 60
        E 0 90 58 60
        E 0 90 64 60
        E 120 80 40 00
        E 0 80 4c 00
        E 0 80 58 00
        E 0 80 64 00
        E 120 90 55 60
        E 0 90 61 60
        E 120 80 55 00
        E 0 80 61 00
        E 120 90 40 60
        E 0 90 4c 60
        E 0 90 58 60
        E 0 90 64 60
        E 120 80 40 00
        E 0 80 4c 00
        E 0 80 58 00
        E 0 80 64 00
        E 120 90 55 60
        E 0 90 61 60
        E 120 80 55 00
        E 0 80 61 00
        E 120 90 40 60
        E 0 90 4c 60
        E 0 90 58 60
        E 0 90 64 60
        E 120 80 40 00
        E 0 80 4c 00
        E 0 80 58 00
        E 0 80 64 00
        E 120 90 55 60
        E 0 90 61 60
        E 120 80 55 00
        E 0 80 61 00
        E 360 90 57 60
        E 0 90 63 60
        E 120 80 57 00
        E 0 80 63 00
        E 120 90 3c 60
        E 0 90 49 60
        E 0 90 55 60
        E 0 90 61 60
        E 120 80 3c 00
        E 0 80 49 00
        E 0 80 55 00
        E 0 80 61 00
        E 120 90 55 60
        E 0 90 61 60
        E 120 80 55 00
        E 0 80 61 00
        E 120 90 4a 60
        E 0 90 56 60
        E 0 90 62 60
        E 120 80 4a 00
        E 0 80 56 00
        E 0 80 62 00
        E 120 90 57 60
        E 0 90 63 60
        E 120 80 57 00
        E 0 80 63 00
        E 120 90 3c 60
        E 0 90 49 60
        E 0 90 55 60
        E 0 90 61 60
        E 120 80 3c 00
        E 0 80 49 00
        E 0 80 55 00
        E 0 80 61 00
        E 120 90 57 60
        E 0 90 63 60
        E 120 80 57 00
        E 0 80 63 00
        E 120 90 4a 60
        E 0 90 56 60
        E 0 90 62 60
        E 120 80 4a 00
        E 0 80 56 00
        E 0 80 62 00
        E 120 90 55 60
        E 0 90 61 60
        E 120 80 55 00
        E 0 80 61 00
        <X 120 0
          /wFbcGxheV0=
        >
        E 960 90 3c 60
        E 0 90 49 60
        E 0 90 55 60
        E 0 90 61 60
        E 120 80 3c 00
        E 0 80 49 00
        E 0 80 55 00
        E 0 80 61 00
        E 120 90 54 60
        E 0 90 60 60
        E 120 80 54 00
        E 0 80 60 00
        E 120 90 3c 60
        E 0 90 49 60
        E 0 90 55 60
        E 0 90 61 60
        E 120 80 3c 00
        E 0 80 49 00
        E 0 80 55 00
        E 0 80 61 00
        E 120 90 56 60
        E 0 90 62 60
        E 120 80 56 00
        E 0 80 62 00
        E 360 90 55 60
        E 0 90 61 60
        E 120 80 55 00
        E 0 80 61 00
        E 120 90 4a 60
        E 0 90 56 60
        E 0 90 62 60
        E 120 80 4a 00
        E 0 80 56 00
        E 0 80 62 00
        E 120 90 55 60
        E 0 90 61 60
        E 120 80 55 00
        E 0 80 61 00
        E 120 90 3e 60
        E 0 90 4b 60
        E 0 90 57 60
        E 0 90 63 60
        E 120 80 3e 00
        E 0 80 4b 00
        E 0 80 57 00
        E 0 80 63 00
        E 120 90 56 60
        E 0 90 62 60
        E 120 80 56 00
        E 0 80 62 00
        E 120 90 49 60
        E 0 90 55 60
        E 0 90 61 60
        E 120 80 49 00
        E 0 80 55 00
        E 0 80 61 00
        E 120 90 54 60
        E 0 90 60 60
        E 120 80 54 00
        E 0 80 60 00
        E 360 90 54 60
        E 0 90 60 60
        E 120 80 54 00
        E 0 80 60 00
        E 120 90 3c 60
        E 0 90 49 60
        E 0 90 55 60
        E 0 90 61 60
        E 120 80 3c 00
        E 0 80 49 00
        E 0 80 55 00
        E 0 80 61 00
        E 120 90 54 60
        E 0 90 60 60
        E 120 80 54 00
        E 0 80 60 00
        E 120 90 3c 60
        E 0 90 49 60
        E 0 90 55 60
        E 0 90 61 60
        E 120 80 3c 00
        E 0 80 49 00
        E 0 80 55 00
        E 0 80 61 00
        E 120 90 54 60
        E 0 90 60 60
        E 120 80 54 00
        E 0 80 60 00
        E 120 90 3c 60
        E 0 90 49 60
        E 0 90 55 60
        E 0 90 61 60
        E 120 80 3c 00
        E 0 80 49 00
        E 0 80 55 00
        E 0 80 61 00
        E 120 90 56 60
        E 0 90 62 60
        E 120 80 56 00
        E 0 80 62 00
        E 360 90 4b 60
        E 0 90 57 60
        E 0 90 63 60
        E 120 80 4b 00
        E 0 80 57 00
        E 0 80 63 00
        E 360 90 3d 60
        E 0 90 4a 60
        E 0 90 56 60
        E 0 90 62 60
        E 120 80 3d 00
        E 0 80 4a 00
        E 0 80 56 00
        E 0 80 62 00
        E 360 90 49 60
        E 0 90 55 60
        E 0 90 61 60
        E 120 80 49 00
        E 0 80 55 00
        E 0 80 61 00
        E 1560 90 3c 60
        E 0 90 49 60
        E 0 90 55 60
        E 0 90 61 60
        E 120 80 3c 00
        E 0 80 49 00
        E 0 80 55 00
        E 0 80 61 00
        E 120 90 54 60
        E 0 90 60 60
        E 120 80 54 00
        E 0 80 60 00
        E 120 90 3c 60
        E 0 90 49 60
        E 0 90 55 60
        E 0 90 61 60
        E 120 80 3c 00
        E 0 80 49 00
        E 0 80 55 00
        E 0 80 61 00
        E 120 90 56 60
        E 0 90 62 60
        E 120 80 56 00
        E 0 80 62 00
        E 360 90 55 60
        E 0 90 61 60
        E 120 80 55 00
        E 0 80 61 00
        E 120 90 4a 60
        E 0 90 56 60
        E 0 90 62 60
        E 120 80 4a 00
        E 0 80 56 00
        E 0 80 62 00
        E 120 90 55 60
        E 0 90 61 60
        E 120 80 55 00
        E 0 80 61 00
        E 120 90 3e 60
        E 0 90 4b 60
        E 0 90 57 60
        E 0 90 63 60
        E 120 80 3e 00
        E 0 80 4b 00
        E 0 80 57 00
        E 0 80 63 00
        E 120 90 56 60
        E 0 90 62 60
        E 120 80 56 00
        E 0 80 62 00
        E 120 90 3e 60
        E 0 90 4b 60
        E 0 90 57 60
        E 0 90 63 60
        E 120 80 3e 00
        E 0 80 4b 00
        E 0 80 57 00
        E 0 80 63 00
        E 120 90 58 60
        E 0 90 64 60
        E 120 80 58 00
        E 0 80 64 00
        E 360 90 54 60
        E 0 90 60 60
        E 120 80 54 00
        E 0 80 60 00
        E 120 90 3c 60
        E 0 90 49 60
        E 0 90 55 60
        E 0 90 61 60
        E 120 80 3c 00
        E 0 80 49 00
        E 0 80 55 00
        E 0 80 61 00
        E 120 90 54 60
        E 0 90 60 60
        E 120 80 54 00
        E 0 80 60 00
        E 120 90 3c 60
        E 0 90 49 60
        E 0 90 55 60
        E 0 90 61 60
        E 120 80 3c 00
        E 0 80 49 00
        E 0 80 55 00
        E 0 80 61 00
        E 120 90 54 60
        E 0 90 60 60
        E 120 80 54 00
        E 0 80 60 00
        E 120 90 3c 60
        E 0 90 49 60
        E 0 90 55 60
        E 0 90 61 60
        E 120 80 3c 00
        E 0 80 49 00
        E 0 80 55 00
        E 0 80 61 00
        E 120 90 56 60
        E 0 90 62 60
        E 120 80 56 00
        E 0 80 62 00
        E 360 90 4b 60
        E 0 90 57 60
        E 0 90 63 60
        E 120 80 4b 00
        E 0 80 57 00
        E 0 80 63 00
        E 360 90 3d 60
        E 0 90 4a 60
        E 0 90 56 60
        E 0 90 62 60
        E 120 80 3d 00
        E 0 80 4a 00
        E 0 80 56 00
        E 0 80 62 00
        E 360 90 49 60
        E 0 90 55 60
        E 0 90 61 60
        E 120 80 49 00
        E 0 80 55 00
        E 0 80 61 00
        E 1560 90 3c 60
        E 0 90 49 60
        E 0 90 55 60
        E 0 90 61 60
        E 120 80 3c 00
        E 0 80 49 00
        E 0 80 55 00
        E 0 80 61 00
        E 120 90 54 60
        E 0 90 60 60
        E 120 80 54 00
        E 0 80 60 00
        E 120 90 3c 60
        E 0 90 49 60
        E 0 90 55 60
        E 0 90 61 60
        E 120 80 3c 00
        E 0 80 49 00
        E 0 80 55 00
        E 0 80 61 00
        E 120 90 56 60
        E 0 90 62 60
        E 120 80 56 00
        E 0 80 62 00
        E 360 90 55 60
        E 0 90 61 60
        E 120 80 55 00
        E 0 80 61 00
        E 120 90 4a 60
        E 0 90 56 60
        E 0 90 62 60
        E 120 80 4a 00
        E 0 80 56 00
        E 0 80 62 00
        E 120 90 55 60
        E 0 90 61 60
        E 120 80 55 00
        E 0 80 61 00
        E 120 90 3e 60
        E 0 90 4b 60
        E 0 90 57 60
        E 0 90 63 60
        E 120 80 3e 00
        E 0 80 4b 00
        E 0 80 57 00
        E 0 80 63 00
        E 120 90 56 60
        E 0 90 62 60
        E 120 80 56 00
        E 0 80 62 00
        E 120 90 49 60
        E 0 90 55 60
        E 0 90 61 60
        E 120 80 49 00
        E 0 80 55 00
        E 0 80 61 00
        E 120 90 54 60
        E 0 90 60 60
        E 120 80 54 00
        E 0 80 60 00
        E 360 90 54 60
        E 0 90 60 60
        E 120 80 54 00
        E 0 80 60 00
        E 120 90 3c 60
        E 0 90 49 60
        E 0 90 55 60
        E 0 90 61 60
        E 120 80 3c 00
        E 0 80 49 00
        E 0 80 55 00
        E 0 80 61 00
        E 120 90 54 60
        E 0 90 60 60
        E 120 80 54 00
        E 0 80 60 00
        E 120 90 3c 60
        E 0 90 49 60
        E 0 90 55 60
        E 0 90 61 60
        E 120 80 3c 00
        E 0 80 49 00
        E 0 80 55 00
        E 0 80 61 00
        E 120 90 54 60
        E 0 90 60 60
        E 120 80 54 00
        E 0 80 60 00
        E 120 90 3c 60
        E 0 90 49 60
        E 0 90 55 60
        E 0 90 61 60
        E 120 80 3c 00
        E 0 80 49 00
        E 0 80 55 00
        E 0 80 61 00
        E 120 90 56 60
        E 0 90 62 60
        E 120 80 56 00
        E 0 80 62 00
        E 360 90 4b 60
        E 0 90 57 60
        E 0 90 63 60
        E 120 80 4b 00
        E 0 80 57 00
        E 0 80 63 00
        E 360 90 3d 60
        E 0 90 4a 60
        E 0 90 56 60
        E 0 90 62 60
        E 120 80 3d 00
        E 0 80 4a 00
        E 0 80 56 00
        E 0 80 62 00
        E 360 90 49 60
        E 0 90 55 60
        E 0 90 61 60
        E 120 80 49 00
        E 0 80 55 00
        E 0 80 61 00
        E 1560 90 3c 60
        E 0 90 49 60
        E 0 90 55 60
        E 0 90 61 60
        E 120 80 3c 00
        E 0 80 49 00
        E 0 80 55 00
        E 0 80 61 00
        E 120 90 54 60
        E 0 90 60 60
        E 120 80 54 00
        E 0 80 60 00
        E 120 90 3c 60
        E 0 90 49 60
        E 0 90 55 60
        E 0 90 61 60
        E 120 80 3c 00
        E 0 80 49 00
        E 0 80 55 00
        E 0 80 61 00
        E 120 90 56 60
        E 0 90 62 60
        E 120 80 56 00
        E 0 80 62 00
        E 360 90 55 60
        E 0 90 61 60
        E 120 80 55 00
        E 0 80 61 00
        E 120 90 4a 60
        E 0 90 56 60
        E 0 90 62 60
        E 120 80 4a 00
        E 0 80 56 00
        E 0 80 62 00
        E 120 90 55 60
        E 0 90 61 60
        E 120 80 55 00
        E 0 80 61 00
        E 120 90 3e 60
        E 0 90 4b 60
        E 0 90 57 60
        E 0 90 63 60
        E 120 80 3e 00
        E 0 80 4b 00
        E 0 80 57 00
        E 0 80 63 00
        E 120 90 56 60
        E 0 90 62 60
        E 120 80 56 00
        E 0 80 62 00
        E 120 90 3e 60
        E 0 90 4b 60
        E 0 90 57 60
        E 0 90 63 60
        E 120 80 3e 00
        E 0 80 4b 00
        E 0 80 57 00
        E 0 80 63 00
        E 120 90 58 60
        E 0 90 64 60
        E 120 80 58 00
        E 0 80 64 00
        E 120 90 74 60
        E 240 90 54 60
        E 0 90 60 60
        E 120 80 54 00
        E 0 80 60 00
        E 120 90 3c 60
        E 0 90 49 60
        E 0 90 55 60
        E 0 90 61 60
        E 120 80 3c 00
        E 0 80 49 00
        E 0 80 55 00
        E 0 80 61 00
        E 120 90 54 60
        E 0 90 60 60
        E 120 80 54 00
        E 0 80 60 00
        E 120 90 3c 60
        E 0 90 49 60
        E 0 90 55 60
        E 0 90 61 60
        E 120 80 3c 00
        E 0 80 49 00
        E 0 80 55 00
        E 0 80 61 00
        E 120 90 54 60
        E 0 90 60 60
        E 120 80 54 00
        E 0 80 60 00
        E 120 90 3c 60
        E 0 90 49 60
        E 0 90 55 60
        E 0 90 61 60
        E 120 80 3c 00
        E 0 80 49 00
        E 0 80 55 00
        E 0 80 61 00
        E 120 90 56 60
        E 0 90 62 60
        E 120 80 56 00
        E 0 80 62 00
        E 360 90 4b 60
        E 0 90 57 60
        E 0 90 63 60
        E 120 80 4b 00
        E 0 80 57 00
        E 0 80 63 00
        E 360 90 3d 60
        E 0 90 4a 60
        E 0 90 56 60
        E 0 90 62 60
        E 120 80 3d 00
        E 0 80 4a 00
        E 0 80 56 00
        E 0 80 62 00
        E 360 90 49 60
        E 0 90 55 60
        E 0 90 61 60
        E 120 80 49 00
        E 0 80 55 00
        E 0 80 61 00
        <X 600 0
          /wFbbWVsbG93XQ==
        >
        E 0 90 3c 60
        E 0 90 49 60
        E 0 90 55 60
        E 0 90 61 60
        E 120 80 74 00
        E 0 80 3c 00
        E 0 80 49 00
        E 0 80 55 00
        E 0 80 61 00
        E 120 90 56 60
        E 0 90 62 60
        E 120 80 56 00
        E 0 80 62 00
        E 120 90 4b 60
        E 0 90 57 60
        E 0 90 63 60
        E 120 80 4b 00
        E 0 80 57 00
        E 0 80 63 00
        E 120 90 56 60
        E 0 90 62 60
        E 120 80 56 00
        E 0 80 62 00
        E 360 90 3c 60
        E 0 90 49 60
        E 0 90 55 60
        E 0 90 61 60
        E 120 80 3c 00
        E 0 80 49 00
        E 0 80 55 00
        E 0 80 61 00
        E 360 90 54 60
        E 0 90 60 60
        E 120 80 54 00
        E 0 80 60 00
        E 120 90 3c 60
        E 0 90 49 60
        E 0 90 55 60
        E 0 90 61 60
        E 120 80 3c 00
        E 0 80 49 00
        E 0 80 55 00
        E 0 80 61 00
        E 120 90 54 60
        E 0 90 60 60
        E 120 80 54 00
        E 0 80 60 00
        E 120 90 4b 60
        E 0 90 57 60
        E 0 90 63 60
        E 120 80 4b 00
        E 0 80 57 00
        E 0 80 63 00
        E 120 90 56 60
        E 0 90 62 60
        E 120 80 56 00
        E 0 80 62 00
        E 360 90 54 60
        E 0 90 60 60
        E 120 80 54 00
        E 0 80 60 00
        E 120 90 49 60
        E 0 90 55 60
        E 0 90 61 60
        E 120 80 49 00
        E 0 80 55 00
        E 0 80 61 00
        E 120 90 54 60
        E 0 90 60 60
        E 120 80 54 00
        E 0 80 60 00
        E 120 90 40 60
        E 0 90 4c 60
        E 0 90 58 60
        E 0 90 64 60
        E 120 80 40 00
        E 0 80 4c 00
        E 0 80 58 00
        E 0 80 64 00
        E 120 90 57 60
        E 0 90 63 60
        E 120 80 57 00
        E 0 80 63 00
        E 120 90 4a 60
        E 0 90 56 60
        E 0 90 62 60
        E 120 80 4a 00
        E 0 80 56 00
        E 0 80 62 00
        E 120 90 55 60
        E 0 90 61 60
        E 120 80 55 00
        E 0 80 61 00
        E 360 90 54 60
        E 0 90 60 60
        E 120 80 54 00
        E 0 80 60 00
        E 120 90 3c 60
        E 0 90 49 60
        E 0 90 55 60
        E 0 90 61 60
        E 120 80 3c 00
        E 0 80 49 00
        E 0 80 55 00
        E 0 80 61 00
        E 120 90 54 60
        E 0 90 60 60
        E 120 80 54 00
        E 0 80 60 00
        E 120 90 3c 60
        E 0 90 49 60
        E 0 90 55 60
        E 0 90 61 60
        E 120 80 3c 00
        E 0 80 49 00
        E 0 80 55 00
        E 0 80 61 00
        E 120 90 56 60
        E 0 90 62 60
        E 120 80 56 00
        E 0 80 62 00
        E 120 90 4b 60
        E 0 90 57 60
        E 0 90 63 60
        E 120 80 4b 00
        E 0 80 57 00
        E 0 80 63 00
        E 120 90 56 60
        E 0 90 62 60
        E 120 80 56 00
        E 0 80 62 00
        E 360 90 56 60
        E 0 90 62 60
        E 120 80 56 00
        E 0 80 62 00
        E 120 90 4b 60
        E 0 90 57 60
        E 0 90 63 60
        E 120 80 4b 00
        E 0 80 57 00
        E 0 80 63 00
        E 120 90 54 60
        E 0 90 60 60
        E 120 80 54 00
        E 0 80 60 00
        E 120 90 3c 60
        E 0 90 49 60
        E 0 90 55 60
        E 0 90 61 60
        E 120 80 3c 00
        E 0 80 49 00
        E 0 80 55 00
        E 0 80 61 00
        E 120 90 54 60
        E 0 90 60 60
        E 120 80 54 00
        E 0 80 60 00
        E 120 90 49 60
        E 0 90 55 60
        E 0 90 61 60
        E 120 80 49 00
        E 0 80 55 00
        E 0 80 61 00
        E 120 90 56 60
        E 0 90 62 60
        E 120 80 56 00
        E 0 80 62 00
        E 120 90 3e 60
        E 0 90 4b 60
        E 0 90 57 60
        E 0 90 63 60
        E 120 80 3e 00
        E 0 80 4b 00
        E 0 80 57 00
        E 0 80 63 00
        E 120 90 56 60
        E 0 90 62 60
        E 120 80 56 00
        E 0 80 62 00
        E 120 90 49 60
        E 0 90 55 60
        E 0 90 61 60
        E 120 80 49 00
        E 0 80 55 00
        E 0 80 61 00
        E 120 90 54 60
        E 0 90 60 60
        E 120 80 54 00
        E 0 80 60 00
        E 120 90 3c 60
        E 0 90 49 60
        E 0 90 55 60
        E 0 90 61 60
        E 120 80 3c 00
        E 0 80 49 00
        E 0 80 55 00
        E 0 80 61 00
        E 120 90 54 60
        E 0 90 60 60
        E 120 80 54 00
        E 0 80 60 00
        E 120 90 49 60
        E 0 90 55 60
        E 0 90 61 60
        E 120 80 49 00
        E 0 80 55 00
        E 0 80 61 00
        E 120 90 56 60
        E 0 90 62 60
        E 120 80 56 00
        E 0 80 62 00
        E 120 90 3e 60
        E 0 90 4b 60
        E 0 90 57 60
        E 0 90 63 60
        E 120 80 3e 00
        E 0 80 4b 00
        E 0 80 57 00
        E 0 80 63 00
        E 120 90 56 60
        E 0 90 62 60
        E 120 80 56 00
        E 0 80 62 00
        E 120 90 49 60
        E 0 90 55 60
        E 0 90 61 60
        E 120 80 49 00
        E 0 80 55 00
        E 0 80 61 00
        E 120 90 54 60
        E 0 90 60 60
        E 120 80 54 00
        E 0 80 60 00
        E 120 90 40 60
        E 0 90 4c 60
        E 0 90 58 60
        E 0 90 64 60
        E 120 80 40 00
        E 0 80 4c 00
        E 0 80 58 00
        E 0 80 64 00
        E 120 90 55 60
        E 0 90 61 60
        E 120 80 55 00
        E 0 80 61 00
        E 120 90 40 60
        E 0 90 4c 60
        E 0 90 58 60
        E 0 90 64 60
        E 120 80 40 00
        E 0 80 4c 00
        E 0 80 58 00
        E 0 80 64 00
        E 120 90 55 60
        E 0 90 61 60
        E 120 80 55 00
        E 0 80 61 00
        E 120 90 40 60
        E 0 90 4c 60
        E 0 90 58 60
        E 0 90 64 60
        E 120 80 40 00
        E 0 80 4c 00
        E 0 80 58 00
        E 0 80 64 00
        E 120 90 55 60
        E 0 90 61 60
        E 120 80 55 00
        E 0 80 61 00
        E 360 90 57 60
        E 0 90 63 60
        E 120 80 57 00
        E 0 80 63 00
        E 120 90 3c 60
        E 0 90 49 60
        E 0 90 55 60
        E 0 90 61 60
        E 120 80 3c 00
        E 0 80 49 00
        E 0 80 55 00
        E 0 80 61 00
        E 120 90 55 60
        E 0 90 61 60
        E 120 80 55 00
        E 0 80 61 00
        E 120 90 4b 60
        E 0 90 57 60
        E 0 90 63 60
        E 120 80 4b 00
        E 0 80 57 00
        E 0 80 63 00
        E 120 90 55 60
        E 0 90 61 60
        E 120 80 55 00
        E 0 80 61 00
        E 120 90 3e 60
        E 0 90 4b 60
        E 0 90 57 60
        E 0 90 63 60
        E 120 80 3e 00
        E 0 80 4b 00
        E 0 80 57 00
        E 0 80 63 00
        E 120 90 55 60
        E 0 90 61 60
        E 120 80 55 00
        E 0 80 61 00
        E 120 90 4b 60
        E 0 90 57 60
        E 0 90 63 60
        E 120 80 4b 00
        E 0 80 57 00
        E 0 80 63 00
        E 120 90 57 60
        E 0 90 63 60
        E 120 80 57 00
        E 0 80 63 00
        E 120 90 3c 60
        E 0 90 49 60
        E 0 90 55 60
        E 0 90 61 60
        E 120 80 3c 00
        E 0 80 49 00
        E 0 80 55 00
        E 0 80 61 00
        E 120 90 56 60
        E 0 90 62 60
        E 120 80 56 00
        E 0 80 62 00
        E 120 90 4b 60
        E 0 90 57 60
        E 0 90 63 60
        E 120 80 4b 00
        E 0 80 57 00
        E 0 80 63 00
        E 120 90 56 60
        E 0 90 62 60
        E 120 80 56 00
        E 0 80 62 00
        E 360 90 3c 60
        E 0 90 49 60
        E 0 90 55 60
        E 0 90 61 60
        E 120 80 3c 00
        E 0 80 49 00
        E 0 80 55 00
        E 0 80 61 00
        E 360 90 54 60
        E 0 90 60 60
        E 120 80 54 00
        E 0 80 60 00
        E 120 90 3c 60
        E 0 90 49 60
        E 0 90 55 60
        E 0 90 61 60
        E 120 80 3c 00
        E 0 80 49 00
        E 0 80 55 00
        E 0 80 61 00
        E 120 90 54 60
        E 0 90 60 60
        E 120 80 54 00
        E 0 80 60 00
        E 120 90 4b 60
        E 0 90 57 60
        E 0 90 63 60
        E 120 80 4b 00
        E 0 80 57 00
        E 0 80 63 00
        E 120 90 56 60
        E 0 90 62 60
        E 120 80 56 00
        E 0 80 62 00
        E 360 90 54 60
        E 0 90 60 60
        E 120 80 54 00
        E 0 80 60 00
        E 120 90 49 60
        E 0 90 55 60
        E 0 90 61 60
        E 120 80 49 00
        E 0 80 55 00
        E 0 80 61 00
        E 120 90 54 60
        E 0 90 60 60
        E 120 80 54 00
        E 0 80 60 00
        E 120 90 40 60
        E 0 90 4c 60
        E 0 90 58 60
        E 0 90 64 60
        E 120 80 40 00
        E 0 80 4c 00
        E 0 80 58 00
        E 0 80 64 00
        E 120 90 57 60
        E 0 90 63 60
        E 120 80 57 00
        E 0 80 63 00
        E 120 90 4a 60
        E 0 90 56 60
        E 0 90 62 60
        E 120 80 4a 00
        E 0 80 56 00
        E 0 80 62 00
        E 120 90 55 60
        E 0 90 61 60
        E 120 80 55 00
        E 0 80 61 00
        E 360 90 54 60
        E 0 90 60 60
        E 120 80 54 00
        E 0 80 60 00
        E 120 90 3c 60
        E 0 90 49 60
        E 0 90 55 60
        E 0 90 61 60
        E 120 80 3c 00
        E 0 80 49 00
        E 0 80 55 00
        E 0 80 61 00
        E 120 90 54 60
        E 0 90 60 60
        E 120 80 54 00
        E 0 80 60 00
        E 120 90 3c 60
        E 0 90 49 60
        E 0 90 55 60
        E 0 90 61 60
        E 120 80 3c 00
        E 0 80 49 00
        E 0 80 55 00
        E 0 80 61 00
        E 120 90 56 60
        E 0 90 62 60
        E 120 80 56 00
        E 0 80 62 00
        E 120 90 4b 60
        E 0 90 57 60
        E 0 90 63 60
        E 120 80 4b 00
        E 0 80 57 00
        E 0 80 63 00
        E 120 90 56 60
        E 0 90 62 60
        E 120 80 56 00
        E 0 80 62 00
        E 360 90 56 60
        E 0 90 62 60
        E 120 80 56 00
        E 0 80 62 00
        E 120 90 4b 60
        E 0 90 57 60
        E 0 90 63 60
        E 120 80 4b 00
        E 0 80 57 00
        E 0 80 63 00
        E 120 90 54 60
        E 0 90 60 60
        E 120 80 54 00
        E 0 80 60 00
        E 120 90 3c 60
        E 0 90 49 60
        E 0 90 55 60
        E 0 90 61 60
        E 120 80 3c 00
        E 0 80 49 00
        E 0 80 55 00
        E 0 80 61 00
        E 120 90 54 60
        E 0 90 60 60
        E 120 80 54 00
        E 0 80 60 00
        E 120 90 49 60
        E 0 90 55 60
        E 0 90 61 60
        E 120 80 49 00
        E 0 80 55 00
        E 0 80 61 00
        E 120 90 56 60
        E 0 90 62 60
        E 120 80 56 00
        E 0 80 62 00
        E 120 90 3e 60
        E 0 90 4b 60
        E 0 90 57 60
        E 0 90 63 60
        E 120 80 3e 00
        E 0 80 4b 00
        E 0 80 57 00
        E 0 80 63 00
        E 120 90 56 60
        E 0 90 62 60
        E 120 80 56 00
        E 0 80 62 00
        E 120 90 48 60
        E 0 90 54 60
        E 0 90 60 60
        E 120 80 48 00
        E 0 80 54 00
        E 0 80 60 00
        E 120 90 55 60
        E 0 90 61 60
        E 120 80 55 00
        E 0 80 61 00
        E 120 90 3d 60
        E 0 90 4a 60
        E 0 90 56 60
        E 0 90 62 60
        E 120 80 3d 00
        E 0 80 4a 00
        E 0 80 56 00
        E 0 80 62 00
        E 120 90 54 60
        E 0 90 60 60
        E 120 80 54 00
        E 0 80 60 00
        E 120 90 49 60
        E 0 90 55 60
        E 0 90 61 60
        E 120 80 49 00
        E 0 80 55 00
        E 0 80 61 00
        E 120 90 56 60
        E 0 90 62 60
        E 120 80 56 00
        E 0 80 62 00
        E 120 90 3e 60
        E 0 90 4b 60
        E 0 90 57 60
        E 0 90 63 60
        E 120 80 3e 00
        E 0 80 4b 00
        E 0 80 57 00
        E 0 80 63 00
        E 120 90 56 60
        E 0 90 62 60
        E 120 80 56 00
        E 0 80 62 00
        E 120 90 49 60
        E 0 90 55 60
        E 0 90 61 60
        E 120 80 49 00
        E 0 80 55 00
        E 0 80 61 00
        E 120 90 54 60
        E 0 90 60 60
        E 120 80 54 00
        E 0 80 60 00
        E 120 90 40 60
        E 0 90 4c 60
        E 0 90 58 60
        E 0 90 64 60
        E 120 80 40 00
        E 0 80 4c 00
        E 0 80 58 00
        E 0 80 64 00
        E 120 90 55 60
        E 0 90 61 60
        E 120 80 55 00
        E 0 80 61 00
        E 120 90 40 60
        E 0 90 4c 60
        E 0 90 58 60
        E 0 90 64 60
        E 120 80 40 00
        E 0 80 4c 00
        E 0 80 58 00
        E 0 80 64 00
        E 120 90 55 60
        E 0 90 61 60
        E 120 80 55 00
        E 0 80 61 00
        E 120 90 40 60
        E 0 90 4c 60
        E 0 90 58 60
        E 0 90 64 60
        E 120 80 40 00
        E 0 80 4c 00
        E 0 80 58 00
        E 0 80 64 00
        E 120 90 55 60
        E 0 90 61 60
        E 120 80 55 00
        E 0 80 61 00
        E 360 90 57 60
        E 0 90 63 60
        E 120 80 57 00
        E 0 80 63 00
        E 120 90 3c 60
        E 0 90 49 60
        E 0 90 55 60
        E 0 90 61 60
        E 120 80 3c 00
        E 0 80 49 00
        E 0 80 55 00
        E 0 80 61 00
        E 120 90 55 60
        E 0 90 61 60
        E 120 80 55 00
        E 0 80 61 00
        E 120 90 4a 60
        E 0 90 56 60
        E 0 90 62 60
        E 120 80 4a 00
        E 0 80 56 00
        E 0 80 62 00
        E 120 90 57 60
        E 0 90 63 60
        E 120 80 57 00
        E 0 80 63 00
        E 120 90 3c 60
        E 0 90 49 60
        E 0 90 55 60
        E 0 90 61 60
        E 120 80 3c 00
        E 0 80 49 00
        E 0 80 55 00
        E 0 80 61 00
        E 120 90 57 60
        E 0 90 63 60
        E 120 80 57 00
        E 0 80 63 00
        E 120 90 4a 60
        E 0 90 56 60
        E 0 90 62 60
        E 120 80 4a 00
        E 0 80 56 00
        E 0 80 62 00
        E 120 90 55 60
        E 0 90 61 60
        E 120 80 55 00
        E 0 80 61 00
        E 120 90 3c 60
        E 0 90 49 60
        E 0 90 55 60
        E 0 90 61 60
        E 120 80 3c 00
        E 0 80 49 00
        E 0 80 55 00
        E 0 80 61 00
        E 120 90 56 60
        E 0 90 62 60
        E 120 80 56 00
        E 0 80 62 00
        E 120 90 4b 60
        E 0 90 57 60
        E 0 90 63 60
        E 120 80 4b 00
        E 0 80 57 00
        E 0 80 63 00
        E 120 90 56 60
        E 0 90 62 60
        E 120 80 56 00
        E 0 80 62 00
        E 360 90 3c 60
        E 0 90 49 60
        E 0 90 55 60
        E 0 90 61 60
        E 120 80 3c 00
        E 0 80 49 00
        E 0 80 55 00
        E 0 80 61 00
        E 360 90 54 60
        E 0 90 60 60
        E 120 80 54 00
        E 0 80 60 00
        E 120 90 3c 60
        E 0 90 49 60
        E 0 90 55 60
        E 0 90 61 60
        E 120 80 3c 00
        E 0 80 49 00
        E 0 80 55 00
        E 0 80 61 00
        E 120 90 54 60
        E 0 90 60 60
        E 120 80 54 00
        E 0 80 60 00
        E 120 90 4b 60
        E 0 90 57 60
        E 0 90 63 60
        E 120 80 4b 00
        E 0 80 57 00
        E 0 80 63 00
        E 120 90 56 60
        E 0 90 62 60
        E 120 80 56 00
        E 0 80 62 00
        E 360 90 54 60
        E 0 90 60 60
        E 120 80 54 00
        E 0 80 60 00
        E 120 90 49 60
        E 0 90 55 60
        E 0 90 61 60
        E 120 80 49 00
        E 0 80 55 00
        E 0 80 61 00
        E 120 90 54 60
        E 0 90 60 60
        E 120 80 54 00
        E 0 80 60 00
        E 120 90 40 60
        E 0 90 4c 60
        E 0 90 58 60
        E 0 90 64 60
        E 120 80 40 00
        E 0 80 4c 00
        E 0 80 58 00
        E 0 80 64 00
        E 120 90 57 60
        E 0 90 63 60
        E 120 80 57 00
        E 0 80 63 00
        E 120 90 4a 60
        E 0 90 56 60
        E 0 90 62 60
        E 120 80 4a 00
        E 0 80 56 00
        E 0 80 62 00
        E 120 90 55 60
        E 0 90 61 60
        E 120 80 55 00
        E 0 80 61 00
        E 360 90 54 60
        E 0 90 60 60
        E 120 80 54 00
        E 0 80 60 00
        E 120 90 3c 60
        E 0 90 49 60
        E 0 90 55 60
        E 0 90 61 60
        E 120 80 3c 00
        E 0 80 49 00
        E 0 80 55 00
        E 0 80 61 00
        E 120 90 54 60
        E 0 90 60 60
        E 120 80 54 00
        E 0 80 60 00
        E 120 90 3c 60
        E 0 90 49 60
        E 0 90 55 60
        E 0 90 61 60
        E 120 80 3c 00
        E 0 80 49 00
        E 0 80 55 00
        E 0 80 61 00
        E 120 90 56 60
        E 0 90 62 60
        E 120 80 56 00
        E 0 80 62 00
        E 120 90 4b 60
        E 0 90 57 60
        E 0 90 63 60
        E 120 80 4b 00
        E 0 80 57 00
        E 0 80 63 00
        E 120 90 56 60
        E 0 90 62 60
        E 120 80 56 00
        E 0 80 62 00
        E 360 90 56 60
        E 0 90 62 60
        E 120 80 56 00
        E 0 80 62 00
        E 120 90 4b 60
        E 0 90 57 60
        E 0 90 63 60
        E 120 80 4b 00
        E 0 80 57 00
        E 0 80 63 00
        E 120 90 54 60
        E 0 90 60 60
        E 120 80 54 00
        E 0 80 60 00
        E 120 90 3c 60
        E 0 90 49 60
        E 0 90 55 60
        E 0 90 61 60
        E 0 90 74 60
        E 120 80 3c 00
        E 0 80 49 00
        E 0 80 55 00
        E 0 80 61 00
        E 120 90 54 60
        E 0 90 60 60
        E 120 80 54 00
        E 0 80 60 00
        E 120 90 49 60
        E 0 90 55 60
        E 0 90 61 60
        E 120 80 49 00
        E 0 80 55 00
        E 0 80 61 00
        E 120 90 56 60
        E 0 90 62 60
        E 120 80 56 00
        E 0 80 62 00
        E 120 90 3e 60
        E 0 90 4b 60
        E 0 90 57 60
        E 0 90 63 60
        E 120 80 3e 00
        E 0 80 4b 00
        E 0 80 57 00
        E 0 80 63 00
        E 120 90 56 60
        E 0 90 62 60
        E 120 80 56 00
        E 0 80 62 00
        E 120 90 49 60
        E 0 90 55 60
        E 0 90 61 60
        E 120 80 49 00
        E 0 80 55 00
        E 0 80 61 00
        E 120 90 54 60
        E 0 90 60 60
        E 120 80 54 00
        E 0 80 60 00
        E 120 90 3c 60
        E 0 90 49 60
        E 0 90 55 60
        E 0 90 61 60
        E 120 80 3c 00
        E 0 80 49 00
        E 0 80 55 00
        E 0 80 61 00
        E 120 90 54 60
        E 0 90 60 60
        E 120 80 54 00
        E 0 80 60 00
        E 120 90 49 60
        E 0 90 55 60
        E 0 90 61 60
        E 120 80 49 00
        E 0 80 55 00
        E 0 80 61 00
        E 120 90 56 60
        E 0 90 62 60
        E 120 80 56 00
        E 0 80 62 00
        E 120 90 3e 60
        E 0 90 4b 60
        E 0 90 57 60
        E 0 90 63 60
        E 120 80 3e 00
        E 0 80 4b 00
        E 0 80 57 00
        E 0 80 63 00
        E 120 90 56 60
        E 0 90 62 60
        E 120 80 56 00
        E 0 80 62 00
        E 120 90 49 60
        E 0 90 55 60
        E 0 90 61 60
        E 120 80 49 00
        E 0 80 55 00
        E 0 80 61 00
        E 120 90 54 60
        E 0 90 60 60
        E 120 80 54 00
        E 0 80 60 00
        E 120 80 74 00
        E 0 90 40 60
        E 0 90 4c 60
        E 0 90 58 60
        E 0 90 64 60
        E 120 80 40 00
        E 0 80 4c 00
        E 0 80 58 00
        E 0 80 64 00
        E 120 90 55 60
        E 0 90 61 60
        E 120 80 55 00
        E 0 80 61 00
        E 120 90 40 60
        E 0 90 4c 60
        E 0 90 58 60
        E 0 90 64 60
        E 120 80 40 00
        E 0 80 4c 00
        E 0 80 58 00
        E 0 80 64 00
        E 120 90 55 60
        E 0 90 61 60
        E 120 80 55 00
        E 0 80 61 00
        E 120 90 40 60
        E 0 90 4c 60
        E 0 90 58 60
        E 0 90 64 60
        E 120 80 40 00
        E 0 80 4c 00
        E 0 80 58 00
        E 0 80 64 00
        E 120 90 55 60
        E 0 90 61 60
        E 120 80 55 00
        E 0 80 61 00
        E 360 90 57 60
        E 0 90 63 60
        E 120 80 57 00
        E 0 80 63 00
        E 120 90 3c 60
        E 0 90 49 60
        E 0 90 55 60
        E 0 90 61 60
        E 120 80 3c 00
        E 0 80 49 00
        E 0 80 55 00
        E 0 80 61 00
        E 120 90 55 60
        E 0 90 61 60
        E 120 80 55 00
        E 0 80 61 00
        E 120 90 4b 60
        E 0 90 57 60
        E 0 90 63 60
        E 120 80 4b 00
        E 0 80 57 00
        E 0 80 63 00
        E 120 90 55 60
        E 0 90 61 60
        E 120 80 55 00
        E 0 80 61 00
        E 120 90 3e 60
        E 0 90 4b 60
        E 0 90 57 60
        E 0 90 63 60
        E 120 80 3e 00
        E 0 80 4b 00
        E 0 80 57 00
        E 0 80 63 00
        E 120 90 55 60
        E 0 90 61 60
        E 120 80 55 00
        E 0 80 61 00
        E 120 90 4b 60
        E 0 90 57 60
        E 0 90 63 60
        E 120 80 4b 00
        E 0 80 57 00
        E 0 80 63 00
        E 120 90 57 60
        E 0 90 63 60
        E 120 80 57 00
        E 0 80 63 00
        E 120 90 3c 60
        E 0 90 49 60
        E 0 90 55 60
        E 0 90 61 60
        E 120 80 3c 00
        E 0 80 49 00
        E 0 80 55 00
        E 0 80 61 00
        E 120 90 56 60
        E 0 90 62 60
        E 120 80 56 00
        E 0 80 62 00
        E 120 90 4b 60
        E 0 90 57 60
        E 0 90 63 60
        E 120 80 4b 00
        E 0 80 57 00
        E 0 80 63 00
        E 120 90 56 60
        E 0 90 62 60
        E 120 80 56 00
        E 0 80 62 00
        E 360 90 3c 60
        E 0 90 49 60
        E 0 90 55 60
        E 0 90 61 60
        E 120 80 3c 00
        E 0 80 49 00
        E 0 80 55 00
        E 0 80 61 00
        E 360 90 54 60
        E 0 90 60 60
        E 120 80 54 00
        E 0 80 60 00
        E 120 90 3c 60
        E 0 90 49 60
        E 0 90 55 60
        E 0 90 61 60
        E 120 80 3c 00
        E 0 80 49 00
        E 0 80 55 00
        E 0 80 61 00
        E 120 90 54 60
        E 0 90 60 60
        E 120 80 54 00
        E 0 80 60 00
        E 120 90 4b 60
        E 0 90 57 60
        E 0 90 63 60
        E 120 80 4b 00
        E 0 80 57 00
        E 0 80 63 00
        E 120 90 56 60
        E 0 90 62 60
        E 120 80 56 00
        E 0 80 62 00
        E 360 90 54 60
        E 0 90 60 60
        E 120 80 54 00
        E 0 80 60 00
        E 120 90 49 60
        E 0 90 55 60
        E 0 90 61 60
        E 120 80 49 00
        E 0 80 55 00
        E 0 80 61 00
        E 120 90 54 60
        E 0 90 60 60
        E 120 80 54 00
        E 0 80 60 00
        E 120 90 40 60
        E 0 90 4c 60
        E 0 90 58 60
        E 0 90 64 60
        E 120 80 40 00
        E 0 80 4c 00
        E 0 80 58 00
        E 0 80 64 00
        E 120 90 57 60
        E 0 90 63 60
        E 120 80 57 00
        E 0 80 63 00
        E 120 90 4a 60
        E 0 90 56 60
        E 0 90 62 60
        E 120 80 4a 00
        E 0 80 56 00
        E 0 80 62 00
        E 120 90 55 60
        E 0 90 61 60
        E 120 80 55 00
        E 0 80 61 00
        E 360 90 54 60
        E 0 90 60 60
        E 120 80 54 00
        E 0 80 60 00
        E 120 90 3c 60
        E 0 90 49 60
        E 0 90 55 60
        E 0 90 61 60
        E 120 80 3c 00
        E 0 80 49 00
        E 0 80 55 00
        E 0 80 61 00
        E 120 90 54 60
        E 0 90 60 60
        E 120 80 54 00
        E 0 80 60 00
        E 120 90 3c 60
        E 0 90 49 60
        E 0 90 55 60
        E 0 90 61 60
        E 120 80 3c 00
        E 0 80 49 00
        E 0 80 55 00
        E 0 80 61 00
        E 120 90 56 60
        E 0 90 62 60
        E 120 80 56 00
        E 0 80 62 00
        E 120 90 4b 60
        E 0 90 57 60
        E 0 90 63 60
        E 120 80 4b 00
        E 0 80 57 00
        E 0 80 63 00
        E 120 90 56 60
        E 0 90 62 60
        E 120 80 56 00
        E 0 80 62 00
        E 360 90 56 60
        E 0 90 62 60
        E 120 80 56 00
        E 0 80 62 00
        E 120 90 4b 60
        E 0 90 57 60
        E 0 90 63 60
        E 120 80 4b 00
        E 0 80 57 00
        E 0 80 63 00
        E 120 90 54 60
        E 0 90 60 60
        E 120 80 54 00
        E 0 80 60 00
        E 120 90 3c 60
        E 0 90 49 60
        E 0 90 55 60
        E 0 90 61 60
        E 120 80 3c 00
        E 0 80 49 00
        E 0 80 55 00
        E 0 80 61 00
        E 120 90 54 60
        E 0 90 60 60
        E 120 80 54 00
        E 0 80 60 00
        E 120 90 49 60
        E 0 90 55 60
        E 0 90 61 60
        E 120 80 49 00
        E 0 80 55 00
        E 0 80 61 00
        E 120 90 56 60
        E 0 90 62 60
        E 120 80 56 00
        E 0 80 62 00
        E 120 90 3e 60
        E 0 90 4b 60
        E 0 90 57 60
        E 0 90 63 60
        E 120 80 3e 00
        E 0 80 4b 00
        E 0 80 57 00
        E 0 80 63 00
        E 120 90 56 60
        E 0 90 62 60
        E 120 80 56 00
        E 0 80 62 00
        E 120 90 49 60
        E 0 90 55 60
        E 0 90 61 60
        E 120 80 49 00
        E 0 80 55 00
        E 0 80 61 00
        E 120 90 56 60
        E 0 90 62 60
        E 120 80 56 00
        E 0 80 62 00
        E 120 90 3e 60
        E 0 90 4b 60
        E 0 90 57 60
        E 0 90 63 60
        E 120 80 3e 00
        E 0 80 4b 00
        E 0 80 57 00
        E 0 80 63 00
        E 120 90 55 60
        E 0 90 61 60
        E 120 80 55 00
        E 0 80 61 00
        E 120 90 4a 60
        E 0 90 56 60
        E 0 90 62 60
        E 120 80 4a 00
        E 0 80 56 00
        E 0 80 62 00
        E 120 90 57 60
        E 0 90 63 60
        E 120 80 57 00
        E 0 80 63 00
        E 120 90 40 60
        E 0 90 4c 60
        E 0 90 58 60
        E 0 90 64 60
        E 120 80 40 00
        E 0 80 4c 00
        E 0 80 58 00
        E 0 80 64 00
        E 120 90 57 60
        E 0 90 63 60
        E 120 80 57 00
        E 0 80 63 00
        E 120 90 4a 60
        E 0 90 56 60
        E 0 90 62 60
        E 120 80 4a 00
        E 0 80 56 00
        E 0 80 62 00
        E 120 90 55 60
        E 0 90 61 60
        E 120 80 55 00
        E 0 80 61 00
        E 120 90 40 60
        E 0 90 4c 60
        E 0 90 58 60
        E 0 90 64 60
        E 120 80 40 00
        E 0 80 4c 00
        E 0 80 58 00
        E 0 80 64 00
        E 120 90 55 60
        E 0 90 61 60
        E 120 80 55 00
        E 0 80 61 00
        E 120 90 40 60
        E 0 90 4c 60
        E 0 90 58 60
        E 0 90 64 60
        E 120 80 40 00
        E 0 80 4c 00
        E 0 80 58 00
        E 0 80 64 00
        E 120 90 55 60
        E 0 90 61 60
        E 120 80 55 00
        E 0 80 61 00
        E 120 90 40 60
        E 0 90 4c 60
        E 0 90 58 60
        E 0 90 64 60
        E 120 80 40 00
        E 0 80 4c 00
        E 0 80 58 00
        E 0 80 64 00
        E 120 90 55 60
        E 0 90 61 60
        E 120 80 55 00
        E 0 80 61 00
        E 360 90 57 60
        E 0 90 63 60
        E 120 80 57 00
        E 0 80 63 00
        E 120 90 3c 60
        E 0 90 49 60
        E 0 90 55 60
        E 0 90 61 60
        E 120 80 3c 00
        E 0 80 49 00
        E 0 80 55 00
        E 0 80 61 00
        E 120 90 55 60
        E 0 90 61 60
        E 120 80 55 00
        E 0 80 61 00
        E 120 90 4a 60
        E 0 90 56 60
        E 0 90 62 60
        E 120 80 4a 00
        E 0 80 56 00
        E 0 80 62 00
        E 120 90 57 60
        E 0 90 63 60
        E 120 80 57 00
        E 0 80 63 00
        E 120 90 3c 60
        E 0 90 49 60
        E 0 90 55 60
        E 0 90 61 60
        E 120 80 3c 00
        E 0 80 49 00
        E 0 80 55 00
        E 0 80 61 00
        E 120 90 57 60
        E 0 90 63 60
        E 120 80 57 00
        E 0 80 63 00
        E 120 90 4a 60
        E 0 90 56 60
        E 0 90 62 60
        E 120 80 4a 00
        E 0 80 56 00
        E 0 80 62 00
        E 120 90 55 60
        E 0 90 61 60
        E 120 80 55 00
        E 0 80 61 00
        <X 120 0
          /wFbaW50ZW5zZV0=
        >
        E 0 90 3c 60
        E 0 90 49 60
        E 0 90 55 60
        E 0 90 61 60
        E 120 80 3c 00
        E 0 80 49 00
        E 0 80 55 00
        E 0 80 61 00
        E 120 90 56 60
        E 0 90 62 60
        E 120 80 56 00
        E 0 80 62 00
        E 120 90 4b 60
        E 0 90 57 60
        E 0 90 63 60
        E 120 80 4b 00
        E 0 80 57 00
        E 0 80 63 00
        E 120 90 56 60
        E 0 90 62 60
        E 120 80 56 00
        E 0 80 62 00
        E 360 90 3c 60
        E 0 90 49 60
        E 0 90 55 60
        E 0 90 61 60
        E 120 80 3c 00
        E 0 80 49 00
        E 0 80 55 00
        E 0 80 61 00
        E 360 90 54 60
        E 0 90 60 60
        E 120 80 54 00
        E 0 80 60 00
        E 120 90 3c 60
        E 0 90 49 60
        E 0 90 55 60
        E 0 90 61 60
        E 120 80 3c 00
        E 0 80 49 00
        E 0 80 55 00
        E 0 80 61 00
        E 120 90 54 60
        E 0 90 60 60
        E 120 80 54 00
        E 0 80 60 00
        E 120 90 4b 60
        E 0 90 57 60
        E 0 90 63 60
        E 120 80 4b 00
        E 0 80 57 00
        E 0 80 63 00
        E 120 90 56 60
        E 0 90 62 60
        E 120 80 56 00
        E 0 80 62 00
        E 360 90 54 60
        E 0 90 60 60
        E 120 80 54 00
        E 0 80 60 00
        E 120 90 49 60
        E 0 90 55 60
        E 0 90 61 60
        E 120 80 49 00
        E 0 80 55 00
        E 0 80 61 00
        E 120 90 54 60
        E 0 90 60 60
        E 120 80 54 00
        E 0 80 60 00
        E 120 90 40 60
        E 0 90 4c 60
        E 0 90 58 60
        E 0 90 64 60
        E 120 80 40 00
        E 0 80 4c 00
        E 0 80 58 00
        E 0 80 64 00
        E 120 90 57 60
        E 0 90 63 60
        E 120 80 57 00
        E 0 80 63 00
        E 120 90 4a 60
        E 0 90 56 60
        E 0 90 62 60
        E 120 80 4a 00
        E 0 80 56 00
        E 0 80 62 00
        E 120 90 55 60
        E 0 90 61 60
        E 120 80 55 00
        E 0 80 61 00
        E 360 90 54 60
        E 0 90 60 60
        E 120 80 54 00
        E 0 80 60 00
        E 120 90 3c 60
        E 0 90 49 60
        E 0 90 55 60
        E 0 90 61 60
        E 120 80 3c 00
        E 0 80 49 00
        E 0 80 55 00
        E 0 80 61 00
        E 120 90 54 60
        E 0 90 60 60
        E 120 80 54 00
        E 0 80 60 00
        E 120 90 3c 60
        E 0 90 49 60
        E 0 90 55 60
        E 0 90 61 60
        E 120 80 3c 00
        E 0 80 49 00
        E 0 80 55 00
        E 0 80 61 00
        E 120 90 56 60
        E 0 90 62 60
        E 120 80 56 00
        E 0 80 62 00
        E 120 90 4b 60
        E 0 90 57 60
        E 0 90 63 60
        E 120 80 4b 00
        E 0 80 57 00
        E 0 80 63 00
        E 120 90 56 60
        E 0 90 62 60
        E 120 80 56 00
        E 0 80 62 00
        E 360 90 56 60
        E 0 90 62 60
        E 120 80 56 00
        E 0 80 62 00
        E 120 90 4b 60
        E 0 90 57 60
        E 0 90 63 60
        E 120 80 4b 00
        E 0 80 57 00
        E 0 80 63 00
        E 120 90 54 60
        E 0 90 60 60
        E 120 80 54 00
        E 0 80 60 00
        E 120 90 3c 60
        E 0 90 49 60
        E 0 90 55 60
        E 0 90 61 60
        E 120 80 3c 00
        E 0 80 49 00
        E 0 80 55 00
        E 0 80 61 00
        E 120 90 54 60
        E 0 90 60 60
        E 120 80 54 00
        E 0 80 60 00
        E 120 90 49 60
        E 0 90 55 60
        E 0 90 61 60
        E 120 80 49 00
        E 0 80 55 00
        E 0 80 61 00
        E 120 90 56 60
        E 0 90 62 60
        E 120 80 56 00
        E 0 80 62 00
        E 120 90 3e 60
        E 0 90 4b 60
        E 0 90 57 60
        E 0 90 63 60
        E 120 80 3e 00
        E 0 80 4b 00
        E 0 80 57 00
        E 0 80 63 00
        E 120 90 56 60
        E 0 90 62 60
        E 120 80 56 00
        E 0 80 62 00
        E 120 90 49 60
        E 0 90 55 60
        E 0 90 61 60
        E 120 80 49 00
        E 0 80 55 00
        E 0 80 61 00
        E 120 90 54 60
        E 0 90 60 60
        E 120 80 54 00
        E 0 80 60 00
        E 120 90 3c 60
        E 0 90 49 60
        E 0 90 55 60
        E 0 90 61 60
        E 120 80 3c 00
        E 0 80 49 00
        E 0 80 55 00
        E 0 80 61 00
        E 120 90 54 60
        E 0 90 60 60
        E 120 80 54 00
        E 0 80 60 00
        E 120 90 49 60
        E 0 90 55 60
        E 0 90 61 60
        E 120 80 49 00
        E 0 80 55 00
        E 0 80 61 00
        E 120 90 56 60
        E 0 90 62 60
        E 120 80 56 00
        E 0 80 62 00
        E 120 90 3e 60
        E 0 90 4b 60
        E 0 90 57 60
        E 0 90 63 60
        E 120 80 3e 00
        E 0 80 4b 00
        E 0 80 57 00
        E 0 80 63 00
        E 120 90 56 60
        E 0 90 62 60
        E 120 80 56 00
        E 0 80 62 00
        E 120 90 49 60
        E 0 90 55 60
        E 0 90 61 60
        E 120 80 49 00
        E 0 80 55 00
        E 0 80 61 00
        E 120 90 54 60
        E 0 90 60 60
        E 120 80 54 00
        E 0 80 60 00
        E 120 90 40 60
        E 0 90 4c 60
        E 0 90 58 60
        E 0 90 64 60
        E 120 80 40 00
        E 0 80 4c 00
        E 0 80 58 00
        E 0 80 64 00
        E 120 90 55 60
        E 0 90 61 60
        E 120 80 55 00
        E 0 80 61 00
        E 120 90 40 60
        E 0 90 4c 60
        E 0 90 58 60
        E 0 90 64 60
        E 120 80 40 00
        E 0 80 4c 00
        E 0 80 58 00
        E 0 80 64 00
        E 120 90 55 60
        E 0 90 61 60
        E 120 80 55 00
        E 0 80 61 00
        E 120 90 40 60
        E 0 90 4c 60
        E 0 90 58 60
        E 0 90 64 60
        E 120 80 40 00
        E 0 80 4c 00
        E 0 80 58 00
        E 0 80 64 00
        E 120 90 55 60
        E 0 90 61 60
        E 120 80 55 00
        E 0 80 61 00
        E 360 90 57 60
        E 0 90 63 60
        E 120 80 57 00
        E 0 80 63 00
        E 120 90 3c 60
        E 0 90 49 60
        E 0 90 55 60
        E 0 90 61 60
        E 120 80 3c 00
        E 0 80 49 00
        E 0 80 55 00
        E 0 80 61 00
        E 120 90 55 60
        E 0 90 61 60
        E 120 80 55 00
        E 0 80 61 00
        E 120 90 4b 60
        E 0 90 57 60
        E 0 90 63 60
        E 120 80 4b 00
        E 0 80 57 00
        E 0 80 63 00
        E 120 90 55 60
        E 0 90 61 60
        E 120 80 55 00
        E 0 80 61 00
        E 120 90 3e 60
        E 0 90 4b 60
        E 0 90 57 60
        E 0 90 63 60
        E 120 80 3e 00
        E 0 80 4b 00
        E 0 80 57 00
        E 0 80 63 00
        E 120 90 55 60
        E 0 90 61 60
        E 120 80 55 00
        E 0 80 61 00
        E 120 90 4b 60
        E 0 90 57 60
        E 0 90 63 60
        E 120 80 4b 00
        E 0 80 57 00
        E 0 80 63 00
        E 120 90 57 60
        E 0 90 63 60
        E 120 80 57 00
        E 0 80 63 00
        E 120 90 3c 60
        E 0 90 49 60
        E 0 90 55 60
        E 0 90 61 60
        E 0 90 74 60
        E 120 80 3c 00
        E 0 80 49 00
        E 0 80 55 00
        E 0 80 61 00
        E 120 90 56 60
        E 0 90 62 60
        E 120 80 56 00
        E 0 80 62 00
        E 120 90 4b 60
        E 0 90 57 60
        E 0 90 63 60
        E 120 80 4b 00
        E 0 80 57 00
        E 0 80 63 00
        E 120 90 56 60
        E 0 90 62 60
        E 120 80 56 00
        E 0 80 62 00
        E 360 90 3c 60
        E 0 90 49 60
        E 0 90 55 60
        E 0 90 61 60
        E 120 80 3c 00
        E 0 80 49 00
        E 0 80 55 00
        E 0 80 61 00
        E 360 90 54 60
        E 0 90 60 60
        E 120 80 54 00
        E 0 80 60 00
        E 120 90 3c 60
        E 0 90 49 60
        E 0 90 55 60
        E 0 90 61 60
        E 120 80 3c 00
        E 0 80 49 00
        E 0 80 55 00
        E 0 80 61 00
        E 120 90 54 60
        E 0 90 60 60
        E 120 80 54 00
        E 0 80 60 00
        E 120 90 4b 60
        E 0 90 57 60
        E 0 90 63 60
        E 120 80 4b 00
        E 0 80 57 00
        E 0 80 63 00
        E 120 90 56 60
        E 0 90 62 60
        E 120 80 56 00
        E 0 80 62 00
        E 360 90 54 60
        E 0 90 60 60
        E 120 80 54 00
        E 0 80 60 00
        E 120 90 49 60
        E 0 90 55 60
        E 0 90 61 60
        E 120 80 49 00
        E 0 80 55 00
        E 0 80 61 00
        E 120 90 54 60
        E 0 90 60 60
        E 120 80 54 00
        E 0 80 60 00
        E 120 80 74 00
        E 0 90 40 60
        E 0 90 4c 60
        E 0 90 58 60
        E 0 90 64 60
        E 120 80 40 00
        E 0 80 4c 00
        E 0 80 58 00
        E 0 80 64 00
        E 120 90 57 60
        E 0 90 63 60
        E 120 80 57 00
        E 0 80 63 00
        E 120 90 4a 60
        E 0 90 56 60
        E 0 90 62 60
        E 120 80 4a 00
        E 0 80 56 00
        E 0 80 62 00
        E 120 90 55 60
        E 0 90 61 60
        E 120 80 55 00
        E 0 80 61 00
        E 360 90 54 60
        E 0 90 60 60
        E 120 80 54 00
        E 0 80 60 00
        E 120 90 3c 60
        E 0 90 49 60
        E 0 90 55 60
        E 0 90 61 60
        E 120 80 3c 00
        E 0 80 49 00
        E 0 80 55 00
        E 0 80 61 00
        E 120 90 54 60
        E 0 90 60 60
        E 120 80 54 00
        E 0 80 60 00
        E 120 90 3c 60
        E 0 90 49 60
        E 0 90 55 60
        E 0 90 61 60
        E 120 80 3c 00
        E 0 80 49 00
        E 0 80 55 00
        E 0 80 61 00
        E 120 90 56 60
        E 0 90 62 60
        E 120 80 56 00
        E 0 80 62 00
        E 120 90 4b 60
        E 0 90 57 60
        E 0 90 63 60
        E 120 80 4b 00
        E 0 80 57 00
        E 0 80 63 00
        E 120 90 56 60
        E 0 90 62 60
        E 120 80 56 00
        E 0 80 62 00
        E 360 90 56 60
        E 0 90 62 60
        E 120 80 56 00
        E 0 80 62 00
        E 120 90 4b 60
        E 0 90 57 60
        E 0 90 63 60
        E 120 80 4b 00
        E 0 80 57 00
        E 0 80 63 00
        E 120 90 54 60
        E 0 90 60 60
        E 120 80 54 00
        E 0 80 60 00
        E 120 90 3c 60
        E 0 90 49 60
        E 0 90 55 60
        E 0 90 61 60
        E 120 80 3c 00
        E 0 80 49 00
        E 0 80 55 00
        E 0 80 61 00
        E 120 90 54 60
        E 0 90 60 60
        E 120 80 54 00
        E 0 80 60 00
        E 120 90 49 60
        E 0 90 55 60
        E 0 90 61 60
        E 120 80 49 00
        E 0 80 55 00
        E 0 80 61 00
        E 120 90 56 60
        E 0 90 62 60
        E 120 80 56 00
        E 0 80 62 00
        E 120 90 3e 60
        E 0 90 4b 60
        E 0 90 57 60
        E 0 90 63 60
        E 120 80 3e 00
        E 0 80 4b 00
        E 0 80 57 00
        E 0 80 63 00
        E 120 90 55 60
        E 0 90 61 60
        E 120 80 55 00
        E 0 80 61 00
        E 120 90 4a 60
        E 0 90 56 60
        E 0 90 62 60
        E 120 80 4a 00
        E 0 80 56 00
        E 0 80 62 00
        E 120 90 57 60
        E 0 90 63 60
        E 120 80 57 00
        E 0 80 63 00
        E 120 90 40 60
        E 0 90 4c 60
        E 0 90 58 60
        E 0 90 64 60
        E 120 80 40 00
        E 0 80 4c 00
        E 0 80 58 00
        E 0 80 64 00
        E 120 90 55 60
        E 0 90 61 60
        E 120 80 55 00
        E 0 80 61 00
        E 120 90 4a 60
        E 0 90 56 60
        E 0 90 62 60
        E 120 80 4a 00
        E 0 80 56 00
        E 0 80 62 00
        E 120 90 57 60
        E 0 90 63 60
        E 120 80 57 00
        E 0 80 63 00
        E 120 90 40 60
        E 0 90 4c 60
        E 0 90 58 60
        E 0 90 64 60
        E 120 80 40 00
        E 0 80 4c 00
        E 0 80 58 00
        E 0 80 64 00
        E 120 90 57 60
        E 0 90 63 60
        E 120 80 57 00
        E 0 80 63 00
        E 120 90 4a 60
        E 0 90 56 60
        E 0 90 62 60
        E 120 80 4a 00
        E 0 80 56 00
        E 0 80 62 00
        E 120 90 55 60
        E 0 90 61 60
        E 120 80 55 00
        E 0 80 61 00
        E 120 90 40 60
        E 0 90 4c 60
        E 0 90 58 60
        E 0 90 64 60
        E 120 80 40 00
        E 0 80 4c 00
        E 0 80 58 00
        E 0 80 64 00
        E 120 90 55 60
        E 0 90 61 60
        E 120 80 55 00
        E 0 80 61 00
        E 120 90 40 60
        E 0 90 4c 60
        E 0 90 58 60
        E 0 90 64 60
        E 120 80 40 00
        E 0 80 4c 00
        E 0 80 58 00
        E 0 80 64 00
        E 120 90 55 60
        E 0 90 61 60
        E 120 80 55 00
        E 0 80 61 00
        E 120 90 40 60
        E 0 90 4c 60
        E 0 90 58 60
        E 0 90 64 60
        E 120 80 40 00
        E 0 80 4c 00
        E 0 80 58 00
        E 0 80 64 00
        E 120 90 55 60
        E 0 90 61 60
        E 120 80 55 00
        E 0 80 61 00
        E 360 90 57 60
        E 0 90 63 60
        E 120 80 57 00
        E 0 80 63 00
        E 120 90 3c 60
        E 0 90 49 60
        E 0 90 55 60
        E 0 90 61 60
        E 120 80 3c 00
        E 0 80 49 00
        E 0 80 55 00
        E 0 80 61 00
        E 120 90 55 60
        E 0 90 61 60
        E 120 80 55 00
        E 0 80 61 00
        E 120 90 4a 60
        E 0 90 56 60
        E 0 90 62 60
        E 120 80 4a 00
        E 0 80 56 00
        E 0 80 62 00
        E 120 90 57 60
        E 0 90 63 60
        E 120 80 57 00
        E 0 80 63 00
        E 120 90 3c 60
        E 0 90 49 60
        E 0 90 55 60
        E 0 90 61 60
        E 120 80 3c 00
        E 0 80 49 00
        E 0 80 55 00
        E 0 80 61 00
        E 120 90 57 60
        E 0 90 63 60
        E 120 80 57 00
        E 0 80 63 00
        E 120 90 4a 60
        E 0 90 56 60
        E 0 90 62 60
        E 120 80 4a 00
        E 0 80 56 00
        E 0 80 62 00
        E 0 90 62 60
        E 120 80 62 00
        E 0 90 55 60
        E 0 90 61 60
        E 120 80 55 00
        E 0 80 61 00
        E 1080 90 3c 60
        E 0 90 49 60
        E 0 90 55 60
        E 0 90 61 60
        E 120 80 3c 00
        E 0 80 49 00
        E 0 80 55 00
        E 0 80 61 00
        E 120 90 54 60
        E 0 90 60 60
        E 120 80 54 00
        E 0 80 60 00
        E 120 90 3c 60
        E 0 90 49 60
        E 0 90 55 60
        E 0 90 61 60
        E 120 80 3c 00
        E 0 80 49 00
        E 0 80 55 00
        E 0 80 61 00
        E 120 90 56 60
        E 0 90 62 60
        E 120 80 56 00
        E 0 80 62 00
        E 360 90 55 60
        E 0 90 61 60
        E 120 80 55 00
        E 0 80 61 00
        E 120 90 4a 60
        E 0 90 56 60
        E 0 90 62 60
        E 120 80 4a 00
        E 0 80 56 00
        E 0 80 62 00
        E 120 90 55 60
        E 0 90 61 60
        E 120 80 55 00
        E 0 80 61 00
        E 120 90 3e 60
        E 0 90 4b 60
        E 0 90 57 60
        E 0 90 63 60
        E 120 80 3e 00
        E 0 80 4b 00
        E 0 80 57 00
        E 0 80 63 00
        E 120 90 56 60
        E 0 90 62 60
        E 120 80 56 00
        E 0 80 62 00
        E 120 90 49 60
        E 0 90 55 60
        E 0 90 61 60
        E 120 80 49 00
        E 0 80 55 00
        E 0 80 61 00
        E 120 90 54 60
        E 0 90 60 60
        E 120 80 54 00
        E 0 80 60 00
        E 360 90 54 60
        E 0 90 60 60
        E 120 80 54 00
        E 0 80 60 00
        E 120 90 3c 60
        E 0 90 49 60
        E 0 90 55 60
        E 0 90 61 60
        E 120 80 3c 00
        E 0 80 49 00
        E 0 80 55 00
        E 0 80 61 00
        E 120 90 54 60
        E 0 90 60 60
        E 120 80 54 00
        E 0 80 60 00
        E 120 90 3c 60
        E 0 90 49 60
        E 0 90 55 60
        E 0 90 61 60
        E 120 80 3c 00
        E 0 80 49 00
        E 0 80 55 00
        E 0 80 61 00
        E 120 90 54 60
        E 0 90 60 60
        E 120 80 54 00
        E 0 80 60 00
        E 120 90 3c 60
        E 0 90 49 60
        E 0 90 55 60
        E 0 90 61 60
        E 120 80 3c 00
        E 0 80 49 00
        E 0 80 55 00
        E 0 80 61 00
        E 120 90 56 60
        E 0 90 62 60
        E 120 80 56 00
        E 0 80 62 00
        E 360 90 4b 60
        E 0 90 57 60
        E 0 90 63 60
        E 120 80 4b 00
        E 0 80 57 00
        E 0 80 63 00
        E 360 90 3d 60
        E 0 90 4a 60
        E 0 90 56 60
        E 0 90 62 60
        E 120 80 3d 00
        E 0 80 4a 00
        E 0 80 56 00
        E 0 80 62 00
        E 360 90 49 60
        E 0 90 55 60
        E 0 90 61 60
        E 120 80 49 00
        E 0 80 55 00
        E 0 80 61 00
        E 1560 90 3c 60
        E 0 90 49 60
        E 0 90 55 60
        E 0 90 61 60
        E 120 80 3c 00
        E 0 80 49 00
        E 0 80 55 00
        E 0 80 61 00
        E 120 90 54 60
        E 0 90 60 60
        E 120 80 54 00
        E 0 80 60 00
        E 120 90 3c 60
        E 0 90 49 60
        E 0 90 55 60
        E 0 90 61 60
        E 120 80 3c 00
        E 0 80 49 00
        E 0 80 55 00
        E 0 80 61 00
        E 120 90 56 60
        E 0 90 62 60
        E 120 80 56 00
        E 0 80 62 00
        E 360 90 55 60
        E 0 90 61 60
        E 120 80 55 00
        E 0 80 61 00
        E 120 90 4a 60
        E 0 90 56 60
        E 0 90 62 60
        E 120 80 4a 00
        E 0 80 56 00
        E 0 80 62 00
        E 120 90 55 60
        E 0 90 61 60
        E 120 80 55 00
        E 0 80 61 00
        E 120 90 3e 60
        E 0 90 4b 60
        E 0 90 57 60
        E 0 90 63 60
        E 120 80 3e 00
        E 0 80 4b 00
        E 0 80 57 00
        E 0 80 63 00
        E 120 90 56 60
        E 0 90 62 60
        E 120 80 56 00
        E 0 80 62 00
        E 120 90 3e 60
        E 0 90 4b 60
        E 0 90 57 60
        E 0 90 63 60
        E 120 80 3e 00
        E 0 80 4b 00
        E 0 80 57 00
        E 0 80 63 00
        E 120 90 58 60
        E 0 90 64 60
        E 120 80 58 00
        E 0 80 64 00
        E 360 90 54 60
        E 0 90 60 60
        E 120 80 54 00
        E 0 80 60 00
        E 120 90 3c 60
        E 0 90 49 60
        E 0 90 55 60
        E 0 90 61 60
        E 120 80 3c 00
        E 0 80 49 00
        E 0 80 55 00
        E 0 80 61 00
        E 120 90 54 60
        E 0 90 60 60
        E 120 80 54 00
        E 0 80 60 00
        E 120 90 3c 60
        E 0 90 49 60
        E 0 90 55 60
        E 0 90 61 60
        E 120 80 3c 00
        E 0 80 49 00
        E 0 80 55 00
        E 0 80 61 00
        E 120 90 54 60
        E 0 90 60 60
        E 120 80 54 00
        E 0 80 60 00
        E 120 90 3c 60
        E 0 90 49 60
        E 0 90 55 60
        E 0 90 61 60
        E 120 80 3c 00
        E 0 80 49 00
        E 0 80 55 00
        E 0 80 61 00
        E 120 90 56 60
        E 0 90 62 60
        E 120 80 56 00
        E 0 80 62 00
        E 360 90 4b 60
        E 0 90 57 60
        E 0 90 63 60
        E 120 80 4b 00
        E 0 80 57 00
        E 0 80 63 00
        E 360 90 3d 60
        E 0 90 4a 60
        E 0 90 56 60
        E 0 90 62 60
        E 120 80 3d 00
        E 0 80 4a 00
        E 0 80 56 00
        E 0 80 62 00
        E 360 90 49 60
        E 0 90 55 60
        E 0 90 61 60
        E 120 80 49 00
        E 0 80 55 00
        E 0 80 61 00
        E 1560 90 3c 60
        E 0 90 49 60
        E 0 90 55 60
        E 0 90 61 60
        E 120 80 3c 00
        E 0 80 49 00
        E 0 80 55 00
        E 0 80 61 00
        E 120 90 54 60
        E 0 90 60 60
        E 120 80 54 00
        E 0 80 60 00
        E 120 90 3c 60
        E 0 90 49 60
        E 0 90 55 60
        E 0 90 61 60
        E 120 80 3c 00
        E 0 80 49 00
        E 0 80 55 00
        E 0 80 61 00
        E 120 90 56 60
        E 0 90 62 60
        E 120 80 56 00
        E 0 80 62 00
        E 360 90 55 60
        E 0 90 61 60
        E 120 80 55 00
        E 0 80 61 00
        E 120 90 4a 60
        E 0 90 56 60
        E 0 90 62 60
        E 120 80 4a 00
        E 0 80 56 00
        E 0 80 62 00
        E 120 90 55 60
        E 0 90 61 60
        E 120 80 55 00
        E 0 80 61 00
        E 120 90 3e 60
        E 0 90 4b 60
        E 0 90 57 60
        E 0 90 63 60
        E 120 80 3e 00
        E 0 80 4b 00
        E 0 80 57 00
        E 0 80 63 00
        E 120 90 56 60
        E 0 90 62 60
        E 120 80 56 00
        E 0 80 62 00
        E 120 90 49 60
        E 0 90 55 60
        E 0 90 61 60
        E 120 80 49 00
        E 0 80 55 00
        E 0 80 61 00
        E 120 90 54 60
        E 0 90 60 60
        E 120 80 54 00
        E 0 80 60 00
        E 360 90 54 60
        E 0 90 60 60
        E 120 80 54 00
        E 0 80 60 00
        E 120 90 3c 60
        E 0 90 49 60
        E 0 90 55 60
        E 0 90 61 60
        E 120 80 3c 00
        E 0 80 49 00
        E 0 80 55 00
        E 0 80 61 00
        E 120 90 54 60
        E 0 90 60 60
        E 120 80 54 00
        E 0 80 60 00
        E 120 90 3c 60
        E 0 90 49 60
        E 0 90 55 60
        E 0 90 61 60
        E 120 80 3c 00
        E 0 80 49 00
        E 0 80 55 00
        E 0 80 61 00
        E 120 90 54 60
        E 0 90 60 60
        E 120 80 54 00
        E 0 80 60 00
        E 120 90 3c 60
        E 0 90 49 60
        E 0 90 55 60
        E 0 90 61 60
        E 120 80 3c 00
        E 0 80 49 00
        E 0 80 55 00
        E 0 80 61 00
        E 120 90 56 60
        E 0 90 62 60
        E 120 80 56 00
        E 0 80 62 00
        E 360 90 4b 60
        E 0 90 57 60
        E 0 90 63 60
        E 120 80 4b 00
        E 0 80 57 00
        E 0 80 63 00
        E 360 90 3d 60
        E 0 90 4a 60
        E 0 90 56 60
        E 0 90 62 60
        E 120 80 3d 00
        E 0 80 4a 00
        E 0 80 56 00
        E 0 80 62 00
        E 360 90 49 60
        E 0 90 55 60
        E 0 90 61 60
        E 120 80 49 00
        E 0 80 55 00
        E 0 80 61 00
        E 1560 90 3c 60
        E 0 90 49 60
        E 0 90 55 60
        E 0 90 61 60
        E 120 80 3c 00
        E 0 80 49 00
        E 0 80 55 00
        E 0 80 61 00
        E 120 90 54 60
        E 0 90 60 60
        E 120 80 54 00
        E 0 80 60 00
        E 120 90 3c 60
        E 0 90 49 60
        E 0 90 55 60
        E 0 90 61 60
        E 120 80 3c 00
        E 0 80 49 00
        E 0 80 55 00
        E 0 80 61 00
        E 120 90 56 60
        E 0 90 62 60
        E 120 80 56 00
        E 0 80 62 00
        E 360 90 55 60
        E 0 90 61 60
        E 120 80 55 00
        E 0 80 61 00
        E 120 90 4a 60
        E 0 90 56 60
        E 0 90 62 60
        E 120 80 4a 00
        E 0 80 56 00
        E 0 80 62 00
        E 120 90 55 60
        E 0 90 61 60
        E 120 80 55 00
        E 0 80 61 00
        E 120 90 3e 60
        E 0 90 4b 60
        E 0 90 57 60
        E 0 90 63 60
        E 120 80 3e 00
        E 0 80 4b 00
        E 0 80 57 00
        E 0 80 63 00
        E 120 90 56 60
        E 0 90 62 60
        E 120 80 56 00
        E 0 80 62 00
        E 120 90 3e 60
        E 0 90 4b 60
        E 0 90 57 60
        E 0 90 63 60
        E 120 80 3e 00
        E 0 80 4b 00
        E 0 80 57 00
        E 0 80 63 00
        E 120 90 58 60
        E 0 90 64 60
        E 120 80 58 00
        E 0 80 64 00
        E 360 90 54 60
        E 0 90 60 60
        E 120 80 54 00
        E 0 80 60 00
        E 120 90 3c 60
        E 0 90 49 60
        E 0 90 55 60
        E 0 90 61 60
        E 120 80 3c 00
        E 0 80 49 00
        E 0 80 55 00
        E 0 80 61 00
        E 120 90 54 60
        E 0 90 60 60
        E 120 80 54 00
        E 0 80 60 00
        E 120 90 3c 60
        E 0 90 49 60
        E 0 90 55 60
        E 0 90 61 60
        E 120 80 3c 00
        E 0 80 49 00
        E 0 80 55 00
        E 0 80 61 00
        E 120 90 54 60
        E 0 90 60 60
        E 120 80 54 00
        E 0 80 60 00
        E 120 90 3c 60
        E 0 90 49 60
        E 0 90 55 60
        E 0 90 61 60
        E 120 80 3c 00
        E 0 80 49 00
        E 0 80 55 00
        E 0 80 61 00
        E 120 90 56 60
        E 0 90 62 60
        E 120 80 56 00
        E 0 80 62 00
        E 360 90 4b 60
        E 0 90 57 60
        E 0 90 63 60
        E 120 80 4b 00
        E 0 80 57 00
        E 0 80 63 00
        E 360 90 3d 60
        E 0 90 4a 60
        E 0 90 56 60
        E 0 90 62 60
        E 120 80 3d 00
        E 0 80 4a 00
        E 0 80 56 00
        E 0 80 62 00
        E 360 90 49 60
        E 0 90 55 60
        E 0 90 61 60
        E 120 80 49 00
        E 0 80 55 00
        E 0 80 61 00
        <X 119 0
          /wFbaWRsZV9yZWFsdGltZV0=
        >
        E 13920 b0 7b 00
        GUID {2A7EC30C-A316-4A03-96AC-E88D44FDA3FD}
        IGNTEMPO 0 120.00000000 4 4
        SRCCOLOR 8
        VELLANE 132 71 60
        COLORMAP "C:\Program Files\REAPER (x64)\Data\color_maps\rockband_guitarbass.png"
        CFGEDITVIEW 0.000000 2.853967 0 12 0 0 0
        CFGEDIT 1 1 0 1 1 0 1 1 1 1 1 0.25000000 100 100 1200 800 0 2 2 1 0.00000000 0 1 0 0 0.500000 0 0 1.000000 64
        KEYSNAP 0 6 "102030050700" 0 "Pentatonic"
        EVTFILTER 0 -1 -1 -1 -1 0 1 0 0 -1.00000000 -1.00000000
      >
    >
  >
  <TRACK '{A2326150-4181-4FB8-AD34-F9EFD388654A}'
    NAME "PART REAL_KEYS_X"
    PEAKCOL 16576
    BEAT -1
    AUTOMODE 0
    VOLPAN 1.00000000000000 0.00000000000000 -1.00000000000000 -1.00000000000000 1.00000000000000
    MUTESOLO 0 0 0
    IPHASE 0
    ISBUS 0 0
    BUSCOMP 0 0
    SHOWINMIX 1 0.666700 0.500000 1 0.500000 -1 -1 -1
    FREEMODE 0
    SEL 0
    REC 0 0 0 0 0 0 0
    VU 2
    TRACKHEIGHT 0 0
    INQ 0 0 0 0.5000000000 100 0 0 100
    NCHAN 2
    FX 0
    TRACKID {A2326150-4181-4FB8-AD34-F9EFD388654A}
    PERF 0
    MIDIOUT -1
    <MIDINOTENAMES
      0 127 "TRILL MARKER"
      0 126 "GLISSANDO MARKER"
      0 125 "---"
      0 116 "OVERDRIVE"
      0 115 "SOLO"
      0 114 "---"
      0 72 "Highest playable note B#3"
      0 71 "B3"
      0 70 "A#3"
      0 69 "A3"
      0 68 "G#3"
      0 67 "G3"
      0 66 "F#3"
      0 65 "F3"
      0 64 "E3"
      0 63 "D#3"
      0 62 "D3"
      0 61 "C#3"
      0 60 "C3"
      0 59 "B2"
      0 58 "A#2"
      0 57 "A2"
      0 56 "G#2"
      0 55 "G2"
      0 54 "F#2"
      0 53 "F2"
      0 52 "E2"
      0 51 "D#2"
      0 50 "D2"
      0 49 "C#2"
      0 48 "Lowest playable note C2"
      0 10 "---"
      0 9 "Range A2-C4"
      0 8 "Range"
      0 7 "Range"
      0 6 "Range"
      0 5 "Range F2-A3"
      0 4 "Range"
      0 3 "Range"
      0 2 "Range"
      0 1 "Range"
      0 0 "Range C2-E3"
    >
    MAINSEND 1 0
    <FXCHAIN
      WNDRECT 0 43 655 467
      SHOW 0
      LASTSEL 1
      DOCKED 0
      BYPASS 0 0
      <JS "MIDI/midi_note_filter" ""
        48.000000 72.000000 - - - - - - - - - - - - - - - - - - - - - - - - - - - - - - - - - - - - - - - - - - - - - - - - - - - - - - - - - - - - - - 
      >
      FLOATPOS 0 0 0 0
      FXID {FBB3CF8E-2400-4BFD-AD4D-D5E808F009BA}
      WAK 0
      BYPASS 0 0
      <VST "VSTi: ReaSynth (Cockos)" "reasynth.dll" 0 ""
        eXNlcu9e7f4AAAAAAgAAAAEAAAAAAAAAAgAAAAAAAAA4AAAAAAAAAA==
        AAAQAO++rd4N8K3eppvEOxe30ToAAIA/AAAAAAAAAADMm4A+6WeIPQ==
        AAAAAAAAAD8AAIA/AACAPwAAAD8AABAAAAA=
      >
      FLOATPOS 0 0 0 0
      FXID {8D33F7DD-3451-44E8-AC47-DC3F602F4E36}
      WAK 0
    >
    <ITEM
      POSITION 0.00000000000000
      SNAPOFFS 0.00000000000000
      LENGTH 249.33300000000000
      LOOP 0
      ALLTAKES 0
      SEL 0
      FADEIN 1 0.000000 0.000000 1 0
      FADEOUT 1 0.000000 0.000000 1 0
      MUTE 0
      IGUID {112ADBC8-4D44-4404-8278-CCFED1564A36}
      IID 7
      NAME "PART REAL_KEYS_X"
      VOLPAN 1.000000 0.000000 1.000000 -1.000000
      SOFFS 0.00000000000000 0.00000000000000
      PLAYRATE 1.00000000000000 1 0.00000000000000 -1
      CHANMODE 0
      GUID {DD028EF4-5D1D-4501-8720-09336D4D1FEA}
      <SOURCE MIDI
        HASDATA 1 480 QN
        POOLEDEVTS {31F9E698-51CB-45FA-97D8-6D238CED3FF6}
        <X 0 0
          /wNQQVJUIFJFQUxfS0VZU19Y
        >
        E 0 90 00 60
        E 120 80 00 00
        <X 7560 0
          /wFbYmVnaW5fa2V5IHNvbmdfdHJhaW5lcl9rZXlfMV0=
        >
        E 960 90 32 60
        E 120 80 32 00
        E 120 90 30 60
        E 120 80 30 00
        E 120 90 32 60
        E 120 80 32 00
        E 120 90 34 60
        E 120 80 34 00
        E 360 90 32 60
        E 120 80 32 00
        E 120 90 34 60
        E 120 80 34 00
        E 120 90 32 60
        E 120 80 32 00
        E 120 90 37 60
        E 120 80 37 00
        E 120 90 34 60
        E 120 80 34 00
        E 120 90 32 60
        E 120 80 32 00
        E 120 90 30 60
        E 120 80 30 00
        E 360 90 30 60
        E 120 80 30 00
        E 120 90 32 60
        E 120 80 32 00
        E 120 90 30 60
        E 120 80 30 00
        E 120 90 32 60
        E 120 80 32 00
        E 120 90 30 60
        E 120 80 30 00
        E 120 90 32 60
        E 120 80 32 00
        E 120 90 34 60
        E 120 80 34 00
        E 360 90 37 60
        E 120 80 37 00
        E 360 90 34 60
        E 120 80 34 00
        E 360 90 32 60
        E 120 80 32 00
        E 1560 90 32 60
        E 120 80 32 00
        E 120 90 30 60
        E 120 80 30 00
        E 120 90 32 60
        E 120 80 32 00
        E 120 90 34 60
        E 120 80 34 00
        E 360 90 32 60
        E 120 80 32 00
        E 120 90 34 60
        E 120 80 34 00
        E 120 90 32 60
        E 120 80 32 00
        E 120 90 37 60
        E 120 80 37 00
        E 120 90 34 60
        E 120 80 34 00
        E 120 90 37 60
        E 120 80 37 00
        E 120 90 39 60
        E 120 80 39 00
        E 360 90 30 60
        E 120 80 30 00
        E 120 90 32 60
        E 120 80 32 00
        E 120 90 30 60
        E 120 80 30 00
        E 120 90 32 60
        E 120 80 32 00
        E 120 90 30 60
        E 120 80 30 00
        E 120 90 32 60
        E 120 80 32 00
        E 120 90 34 60
        E 120 80 34 00
        E 360 90 37 60
        E 120 80 37 00
        E 360 90 34 60
        E 120 80 34 00
        E 360 90 32 60
        E 120 80 32 00
        <X 600 0
          /wFbZW5kX2tleSBzb25nX3RyYWluZXJfa2V5XzFd
        >
        <X 0 0
          /wFbYmVnaW5fa2V5IHNvbmdfdHJhaW5lcl9rZXlfMl0=
        >
        E 0 90 34 60
        E 120 80 34 00
        E 360 90 37 60
        E 120 80 37 00
        E 360 90 34 60
        E 120 80 34 00
        E 360 90 37 60
        E 120 80 37 00
        E 360 90 34 60
        E 120 80 34 00
        E 360 90 37 60
        E 120 80 37 00
        E 120 90 34 60
        E 120 80 34 00
        E 360 90 32 60
        E 120 80 32 00
        E 600 90 30 60
        E 120 80 30 00
        E 120 90 32 60
        E 120 80 32 00
        E 120 90 34 60
        E 120 80 34 00
        E 120 90 37 60
        E 120 80 37 00
        E 360 90 34 60
        E 120 80 34 00
        E 120 90 37 60
        E 120 80 37 00
        E 120 90 34 60
        E 120 80 34 00
        E 120 90 32 60
        E 120 80 32 00
        E 120 90 34 60
        E 120 80 34 00
        E 120 90 37 60
        E 120 80 37 00
        E 120 90 39 60
        E 120 80 39 00
        E 360 90 32 60
        E 120 80 32 00
        E 120 90 30 60
        E 120 80 30 00
        E 120 90 32 60
        E 120 80 32 00
        E 120 90 30 60
        E 0 90 74 60
        E 120 80 30 00
        E 120 90 32 60
        E 120 80 32 00
        E 120 90 34 60
        E 120 80 34 00
        E 120 90 37 60
        E 120 80 37 00
        E 120 90 34 60
        E 120 80 34 00
        E 120 90 37 60
        E 120 80 37 00
        E 120 90 39 60
        E 120 80 39 00
        E 120 90 3c 60
        E 120 80 3c 00
        E 360 90 39 60
        E 120 80 39 00
        E 360 90 3c 60
        E 120 80 3c 00
        E 360 90 39 60
        E 120 80 39 00
        E 120 90 3b 60
        E 120 80 3b 00
        E 120 90 3e 60
        E 120 80 3e 00
        E 120 90 3c 60
        E 120 80 74 00
        E 0 80 3c 00
        E 120 90 39 60
        E 120 80 39 00
        E 360 90 39 60
        E 120 80 39 00
        E 120 90 3c 60
        E 120 80 3c 00
        E 120 90 3e 60
        E 120 80 3e 00
        E 120 90 40 60
        E 120 80 40 00
        E 120 90 3c 60
        E 1680 80 3c 00
        <X 480 0
          /wFbZW5kX2tleSBzb25nX3RyYWluZXJfa2V5XzJd
        >
        E 0 90 34 60
        E 120 80 34 00
        E 360 90 37 60
        E 120 80 37 00
        E 360 90 34 60
        E 120 80 34 00
        E 360 90 37 60
        E 120 80 37 00
        E 360 90 34 60
        E 120 80 34 00
        E 360 90 37 60
        E 120 80 37 00
        E 120 90 34 60
        E 120 80 34 00
        E 360 90 32 60
        E 120 80 32 00
        E 600 90 30 60
        E 0 90 74 60
        E 120 80 30 00
        E 120 90 32 60
        E 120 80 32 00
        E 120 90 34 60
        E 120 80 34 00
        E 120 90 37 60
        E 120 80 37 00
        E 360 90 34 60
        E 120 80 34 00
        E 120 90 37 60
        E 120 80 37 00
        E 120 90 34 60
        E 120 80 34 00
        E 120 90 32 60
        E 120 80 32 00
        E 120 90 34 60
        E 120 80 34 00
        E 120 90 37 60
        E 120 80 37 00
        E 120 90 39 60
        E 120 80 39 00
        E 360 90 32 60
        E 120 80 32 00
        E 120 90 30 60
        E 120 80 30 00
        E 120 90 32 60
        E 120 80 32 00
        E 120 80 74 00
        E 0 90 30 60
        E 120 80 30 00
        E 120 90 32 60
        E 120 80 32 00
        E 120 90 34 60
        E 120 80 34 00
        E 120 90 37 60
        E 120 80 37 00
        E 120 90 34 60
        E 120 80 34 00
        E 120 90 37 60
        E 120 80 37 00
        E 120 90 39 60
        E 120 80 39 00
        E 120 90 3c 60
        E 120 80 3c 00
        E 360 90 39 60
        E 120 80 39 00
        E 360 90 3c 60
        E 120 80 3c 00
        E 360 90 39 60
        E 120 80 39 00
        E 120 90 3b 60
        E 120 80 3b 00
        E 120 90 3e 60
        E 120 80 3e 00
        E 120 90 3c 60
        E 120 80 3c 00
        E 120 90 39 60
        E 120 80 39 00
        E 360 90 39 60
        E 120 80 39 00
        E 120 90 3c 60
        E 120 80 3c 00
        E 120 90 3e 60
        E 120 80 3e 00
        E 120 90 40 60
        E 120 80 40 00
        E 120 90 3c 60
        E 1680 80 3c 00
        <X 480 0
          /wFbYmVnaW5fa2V5IHNvbmdfdHJhaW5lcl9rZXlfM10=
        >
        E 0 90 34 60
        E 1560 80 34 00
        E 120 90 37 60
        E 120 80 37 00
        E 360 90 34 60
        E 120 80 34 00
        E 360 90 3b 60
        E 120 80 3b 00
        E 360 90 3c 60
        E 120 80 3c 00
        E 360 90 39 60
        E 120 80 39 00
        E 360 90 39 60
        E 120 80 39 00
        E 120 90 3b 60
        E 120 80 3b 00
        E 120 90 39 60
        E 120 80 39 00
        E 120 90 3c 60
        E 120 80 3c 00
        E 120 90 3b 60
        E 120 80 3b 00
        E 120 90 39 60
        E 120 80 39 00
        E 120 90 34 60
        E 120 80 34 00
        E 360 90 39 60
        E 120 80 39 00
        E 120 90 3b 60
        E 120 80 3b 00
        E 120 90 39 60
        E 120 80 39 00
        E 120 90 3c 60
        E 120 80 3c 00
        E 120 90 39 60
        E 120 80 39 00
        E 120 90 3c 60
        E 120 80 3c 00
        E 120 90 3e 60
        E 120 80 3e 00
        E 1080 90 39 60
        E 600 80 39 00
        E 120 90 3c 60
        E 120 80 3c 00
        E 360 90 3e 60
        E 120 80 3e 00
        E 360 90 3b 60
        E 120 80 3b 00
        E 360 90 3c 60
        E 120 80 3c 00
        E 360 90 39 60
        E 120 80 39 00
        E 360 90 39 60
        E 120 80 39 00
        E 120 90 3b 60
        E 120 80 3b 00
        E 120 90 39 60
        E 120 80 39 00
        E 120 90 3e 60
        E 120 80 3e 00
        E 120 90 3c 60
        E 120 80 3c 00
        E 120 90 3b 60
        E 120 80 3b 00
        E 120 90 37 60
        E 120 80 37 00
        E 360 90 39 60
        E 120 80 39 00
        E 120 90 3b 60
        E 120 80 3b 00
        E 120 90 39 60
        E 120 80 39 00
        E 120 90 3c 60
        E 120 80 3c 00
        E 120 90 39 60
        E 120 80 39 00
        E 120 90 3c 60
        E 120 80 3c 00
        E 120 90 3e 60
        E 120 80 3e 00
        <X 120 0
          /wFbYmVnaW5fa2V5IHNvbmdfdHJhaW5lcl9rZXlfNF0=
        >
        <X 0 0
          /wFbZW5kX2tleSBzb25nX3RyYWluZXJfa2V5XzNd
        >
        E 480 90 32 60
        E 120 80 32 00
        E 360 90 34 60
        E 120 80 34 00
        E 360 90 37 60
        E 120 80 37 00
        E 360 90 39 60
        E 120 80 39 00
        E 120 90 34 60
        E 120 80 34 00
        E 360 90 3b 60
        E 120 80 3b 00
        E 360 90 3c 60
        E 120 80 3c 00
        E 360 90 3e 60
        E 120 80 3e 00
        E 360 90 39 60
        E 120 80 39 00
        E 120 90 3b 60
        E 120 80 3b 00
        E 120 90 39 60
        E 120 80 39 00
        E 120 90 3c 60
        E 120 80 3c 00
        E 120 90 3b 60
        E 120 80 3b 00
        E 120 90 39 60
        E 120 80 39 00
        E 120 90 34 60
        E 120 80 34 00
        E 360 90 39 60
        E 120 80 39 00
        E 120 90 3b 60
        E 120 80 3b 00
        E 120 90 39 60
        E 120 80 39 00
        E 120 90 3c 60
        E 120 80 3c 00
        E 120 90 39 60
        E 120 80 39 00
        E 120 90 3b 60
        E 120 80 3b 00
        E 120 90 3c 60
        E 120 80 3c 00
        E 120 90 39 60
        E 120 80 39 00
        E 360 90 3b 60
        E 120 80 3b 00
        E 360 90 3c 60
        E 120 80 3c 00
        E 360 90 3b 60
        E 120 80 3b 00
        E 360 90 3c 60
        E 120 80 3c 00
        E 360 90 3e 60
        E 120 80 3e 00
        E 360 90 3c 60
        E 120 80 3c 00
        E 360 90 39 60
        E 120 80 39 00
        E 120 90 34 60
        E 120 80 34 00
        E 360 90 30 60
        E 120 80 30 00
        E 120 90 32 60
        E 120 80 32 00
        E 120 90 30 60
        E 120 80 30 00
        E 120 90 32 60
        E 120 80 32 00
        E 120 90 30 60
        E 120 80 30 00
        E 120 90 32 60
        E 120 80 32 00
        E 120 90 34 60
        E 120 80 34 00
        E 600 90 30 60
        E 120 80 30 00
        E 120 90 34 60
        E 120 80 34 00
        E 360 90 37 60
        <X 720 0
          /wFbZW5kX2tleSBzb25nX3RyYWluZXJfa2V5XzRd
        >
        E 0 80 37 00
        E 960 90 32 60
        E 120 80 32 00
        E 120 90 30 60
        E 120 80 30 00
        E 120 90 32 60
        E 120 80 32 00
        E 120 90 34 60
        E 120 80 34 00
        E 360 90 32 60
        E 120 80 32 00
        E 120 90 34 60
        E 120 80 34 00
        E 120 90 32 60
        E 120 80 32 00
        E 120 90 37 60
        E 120 80 37 00
        E 120 90 34 60
        E 120 80 34 00
        E 120 90 32 60
        E 120 80 32 00
        E 120 90 30 60
        E 120 80 30 00
        E 360 90 30 60
        E 120 80 30 00
        E 120 90 32 60
        E 120 80 32 00
        E 120 90 30 60
        E 120 80 30 00
        E 120 90 32 60
        E 120 80 32 00
        E 120 90 30 60
        E 120 80 30 00
        E 120 90 32 60
        E 120 80 32 00
        E 120 90 34 60
        E 120 80 34 00
        E 360 90 37 60
        E 120 80 37 00
        E 360 90 34 60
        E 120 80 34 00
        E 360 90 32 60
        E 120 80 32 00
        E 600 90 74 60
        E 960 90 32 60
        E 120 80 32 00
        E 120 90 30 60
        E 120 80 30 00
        E 120 90 32 60
        E 120 80 32 00
        E 120 90 34 60
        E 120 80 34 00
        E 360 90 32 60
        E 120 80 32 00
        E 120 90 34 60
        E 120 80 34 00
        E 120 90 32 60
        E 120 80 32 00
        E 120 90 37 60
        E 120 80 37 00
        E 120 90 34 60
        E 120 80 34 00
        E 120 90 37 60
        E 120 80 37 00
        E 120 90 39 60
        E 120 80 39 00
        E 120 80 74 00
        E 240 90 30 60
        E 120 80 30 00
        E 120 90 32 60
        E 120 80 32 00
        E 120 90 30 60
        E 120 80 30 00
        E 120 90 32 60
        E 120 80 32 00
        E 120 90 30 60
        E 120 80 30 00
        E 120 90 32 60
        E 120 80 32 00
        E 120 90 34 60
        E 120 80 34 00
        E 360 90 37 60
        E 120 80 37 00
        E 360 90 34 60
        E 120 80 34 00
        E 360 90 32 60
        E 120 80 32 00
        E 600 90 34 60
        E 120 80 34 00
        E 360 90 37 60
        E 120 80 37 00
        E 360 90 34 60
        E 120 80 34 00
        E 360 90 37 60
        E 120 80 37 00
        E 360 90 34 60
        E 120 80 34 00
        E 360 90 37 60
        E 120 80 37 00
        E 120 90 34 60
        E 120 80 34 00
        E 360 90 32 60
        E 120 80 32 00
        E 600 90 30 60
        E 120 80 30 00
        E 120 90 32 60
        E 120 80 32 00
        E 120 90 34 60
        E 120 80 34 00
        E 120 90 37 60
        E 120 80 37 00
        E 360 90 34 60
        E 120 80 34 00
        E 120 90 37 60
        E 120 80 37 00
        E 120 90 34 60
        E 120 80 34 00
        E 120 90 32 60
        E 120 80 32 00
        E 120 90 34 60
        E 120 80 34 00
        E 120 90 37 60
        E 120 80 37 00
        E 120 90 39 60
        E 120 80 39 00
        E 360 90 32 60
        E 120 80 32 00
        E 120 90 30 60
        E 120 80 30 00
        E 120 90 32 60
        E 120 80 32 00
        E 120 90 30 60
        E 120 80 30 00
        E 120 90 32 60
        E 120 80 32 00
        E 120 90 34 60
        E 120 80 34 00
        E 120 90 37 60
        E 120 80 37 00
        E 120 90 34 60
        E 120 80 34 00
        E 120 90 37 60
        E 120 80 37 00
        E 120 90 39 60
        E 120 80 39 00
        E 120 90 3c 60
        E 120 80 3c 00
        E 360 90 39 60
        E 120 80 39 00
        E 360 90 3c 60
        E 120 80 3c 00
        E 360 90 39 60
        E 120 80 39 00
        E 120 90 3b 60
        E 120 80 3b 00
        E 120 90 3e 60
        E 120 80 3e 00
        E 120 90 3c 60
        E 120 80 3c 00
        E 120 90 39 60
        E 120 80 39 00
        E 360 90 39 60
        E 120 80 39 00
        E 120 90 3c 60
        E 120 80 3c 00
        E 120 90 3e 60
        E 120 80 3e 00
        E 120 90 40 60
        E 120 80 40 00
        E 120 90 3c 60
        E 1680 80 3c 00
        E 480 90 34 60
        E 120 80 34 00
        E 360 90 37 60
        E 120 80 37 00
        E 360 90 34 60
        E 120 80 34 00
        E 360 90 37 60
        E 120 80 37 00
        E 360 90 34 60
        E 120 80 34 00
        E 360 90 37 60
        E 120 80 37 00
        E 120 90 34 60
        E 120 80 34 00
        E 360 90 32 60
        E 120 80 32 00
        E 600 90 30 60
        E 120 80 30 00
        E 120 90 32 60
        E 120 80 32 00
        E 120 90 34 60
        E 120 80 34 00
        E 120 90 37 60
        E 120 80 37 00
        E 360 90 34 60
        E 120 80 34 00
        E 120 90 37 60
        E 120 80 37 00
        E 120 90 34 60
        E 120 80 34 00
        E 120 90 32 60
        E 120 80 32 00
        E 120 90 34 60
        E 120 80 34 00
        E 120 90 37 60
        E 120 80 37 00
        E 120 90 39 60
        E 120 80 39 00
        E 360 90 32 60
        E 120 80 32 00
        E 120 90 30 60
        E 120 80 30 00
        E 120 90 32 60
        E 120 80 32 00
        E 120 90 30 60
        E 120 80 30 00
        E 120 90 32 60
        E 120 80 32 00
        E 120 90 34 60
        E 120 80 34 00
        E 120 90 37 60
        E 120 80 37 00
        E 120 90 34 60
        E 120 80 34 00
        E 120 90 37 60
        E 120 80 37 00
        E 120 90 39 60
        E 120 80 39 00
        E 120 90 3c 60
        E 120 80 3c 00
        E 360 90 39 60
        E 120 80 39 00
        E 360 90 3c 60
        E 120 80 3c 00
        E 360 90 39 60
        E 120 80 39 00
        E 120 90 3b 60
        E 120 80 3b 00
        E 120 90 3e 60
        E 120 80 3e 00
        E 120 90 3c 60
        E 120 80 3c 00
        E 120 90 39 60
        E 120 80 39 00
        E 360 90 39 60
        E 120 80 39 00
        E 120 90 3c 60
        E 120 80 3c 00
        E 120 90 3e 60
        E 120 80 3e 00
        E 120 90 40 60
        E 120 80 40 00
        E 120 90 3c 60
        E 1680 80 3c 00
        E 480 90 34 60
        E 1560 80 34 00
        E 120 90 37 60
        E 120 80 37 00
        E 360 90 34 60
        E 120 80 34 00
        E 360 90 3b 60
        E 120 80 3b 00
        E 360 90 3c 60
        E 120 80 3c 00
        E 360 90 39 60
        E 120 80 39 00
        E 120 90 74 60
        E 240 90 39 60
        E 120 80 39 00
        E 120 90 3b 60
        E 120 80 3b 00
        E 120 90 39 60
        E 120 80 39 00
        E 120 90 3c 60
        E 120 80 3c 00
        E 120 90 3b 60
        E 120 80 3b 00
        E 120 90 39 60
        E 120 80 39 00
        E 120 90 34 60
        E 120 80 34 00
        E 360 90 39 60
        E 120 80 39 00
        E 120 90 3b 60
        E 120 80 3b 00
        E 120 90 39 60
        E 120 80 39 00
        E 120 90 3c 60
        E 120 80 3c 00
        E 120 90 39 60
        E 120 80 39 00
        E 120 90 3c 60
        E 120 80 3c 00
        E 120 90 3e 60
        E 120 80 3e 00
        E 120 80 74 00
        E 960 90 39 60
        E 600 80 39 00
        E 120 90 3c 60
        E 120 80 3c 00
        E 360 90 3e 60
        E 120 80 3e 00
        E 360 90 3b 60
        E 120 80 3b 00
        E 360 90 3c 60
        E 120 80 3c 00
        E 360 90 39 60
        E 120 80 39 00
        E 360 90 39 60
        E 120 80 39 00
        E 120 90 3b 60
        E 120 80 3b 00
        E 120 90 39 60
        E 120 80 39 00
        E 120 90 3e 60
        E 120 80 3e 00
        E 120 90 3c 60
        E 120 80 3c 00
        E 120 90 3b 60
        E 120 80 3b 00
        E 120 90 37 60
        E 120 80 37 00
        E 360 90 39 60
        E 120 80 39 00
        E 120 90 3b 60
        E 120 80 3b 00
        E 120 90 39 60
        E 120 80 39 00
        E 120 90 3c 60
        E 120 80 3c 00
        E 120 90 39 60
        E 120 80 39 00
        E 120 90 3c 60
        E 120 80 3c 00
        E 120 90 3e 60
        E 120 80 3e 00
        E 600 90 32 60
        E 120 80 32 00
        E 360 90 34 60
        E 120 80 34 00
        E 360 90 37 60
        E 120 80 37 00
        E 360 90 39 60
        E 120 80 39 00
        E 120 90 34 60
        E 120 80 34 00
        E 360 90 3b 60
        E 120 80 3b 00
        E 360 90 3c 60
        E 120 80 3c 00
        E 360 90 3e 60
        E 120 80 3e 00
        E 360 90 39 60
        E 120 80 39 00
        E 120 90 3b 60
        E 120 80 3b 00
        E 120 90 39 60
        E 120 80 39 00
        E 120 90 3c 60
        E 120 80 3c 00
        E 120 90 3b 60
        E 120 80 3b 00
        E 120 90 39 60
        E 120 80 39 00
        E 120 90 34 60
        E 120 80 34 00
        E 360 90 39 60
        E 120 80 39 00
        E 120 90 3b 60
        E 120 80 3b 00
        E 120 90 39 60
        E 120 80 39 00
        E 120 90 3c 60
        E 120 80 3c 00
        E 120 90 39 60
        E 120 80 39 00
        E 120 90 3b 60
        E 120 80 3b 00
        E 120 90 3c 60
        E 120 80 3c 00
        E 120 90 39 60
        E 120 80 39 00
        E 360 90 3b 60
        E 120 80 3b 00
        E 360 90 3c 60
        E 120 80 3c 00
        E 360 90 3b 60
        E 120 80 3b 00
        E 360 90 3c 60
        E 120 80 3c 00
        E 360 90 3e 60
        E 120 80 3e 00
        E 360 90 3c 60
        E 120 80 3c 00
        E 360 90 39 60
        E 120 80 39 00
        E 120 90 40 60
        E 120 80 40 00
        E 360 90 3c 60
        E 120 80 3c 00
        E 120 90 3e 60
        E 120 80 3e 00
        E 120 90 3c 60
        E 120 80 3c 00
        E 120 90 3e 60
        E 120 80 3e 00
        E 120 90 3c 60
        E 120 80 3c 00
        E 120 90 3e 60
        E 120 80 3e 00
        E 120 90 40 60
        E 120 80 40 00
        E 600 90 3c 60
        E 120 80 3c 00
        E 120 90 40 60
        E 120 80 40 00
        E 360 90 3e 60
        E 120 80 3e 00
        <X 600 0
          /wFbYmVnaW5fa2V5IHNvbmdfdHJhaW5lcl9rZXlfNV0=
        >
        E 0 90 09 60
        E 0 90 3c 60
        E 120 80 09 00
        E 0 80 3c 00
        E 120 90 3e 60
        E 120 80 3e 00
        E 120 90 40 60
        E 120 80 40 00
        E 120 90 3e 60
        E 120 80 3e 00
        E 360 90 3c 60
        E 120 80 3c 00
        E 360 90 39 60
        E 120 80 39 00
        E 120 90 3c 60
        E 120 80 3c 00
        E 120 90 39 60
        E 120 80 39 00
        E 120 90 40 60
        E 120 80 40 00
        E 120 90 3e 60
        E 120 80 3e 00
        E 360 90 3c 60
        E 120 80 3c 00
        E 120 90 3e 60
        E 120 80 3e 00
        E 120 90 3c 60
        E 120 80 3c 00
        E 120 90 43 60
        E 120 80 43 00
        E 120 90 40 60
        E 120 80 40 00
        E 120 90 3e 60
        E 120 80 3e 00
        E 120 90 3c 60
        E 120 80 3c 00
        E 360 90 39 60
        E 120 80 39 00
        E 120 90 3c 60
        E 120 80 3c 00
        E 120 90 39 60
        E 120 80 39 00
        E 120 90 3c 60
        E 120 80 3c 00
        E 120 90 3e 60
        E 120 80 3e 00
        E 120 90 40 60
        E 120 80 40 00
        E 120 90 3e 60
        E 120 80 3e 00
        E 360 90 3c 60
        E 120 80 3c 00
        E 120 90 3e 60
        E 120 80 3e 00
        E 120 90 39 60
        E 120 80 39 00
        E 120 90 3c 60
        E 120 80 3c 00
        E 120 90 3e 60
        E 120 80 3e 00
        E 120 90 40 60
        E 120 80 40 00
        E 120 90 43 60
        E 120 80 43 00
        E 120 90 45 60
        E 120 80 45 00
        E 120 90 43 60
        E 120 80 43 00
        E 120 90 40 60
        E 120 80 40 00
        E 120 90 3e 60
        E 120 80 3e 00
        E 120 90 40 60
        E 120 80 40 00
        E 120 90 3e 60
        E 120 80 3e 00
        E 120 90 40 60
        E 120 80 40 00
        E 120 90 43 60
        E 120 80 43 00
        E 120 90 45 60
        E 120 80 45 00
        E 120 90 43 60
        E 120 80 43 00
        E 120 90 40 60
        E 120 80 40 00
        E 120 90 3e 60
        E 120 80 3e 00
        E 120 90 40 60
        E 120 80 40 00
        E 120 90 40 60
        E 120 80 40 00
        E 120 90 40 60
        E 120 80 40 00
        E 120 90 40 60
        E 120 80 40 00
        E 120 90 40 60
        E 120 80 40 00
        E 120 90 40 60
        E 120 80 40 00
        E 360 90 3e 60
        E 120 80 3e 00
        E 120 90 40 60
        E 120 80 40 00
        E 120 90 40 60
        E 120 80 40 00
        E 120 90 3e 60
        E 120 80 3e 00
        E 120 90 40 60
        E 120 80 40 00
        E 120 90 3e 60
        E 120 80 3e 00
        E 120 90 40 60
        E 120 80 40 00
        E 120 90 3e 60
        E 120 80 3e 00
        E 120 90 3e 60
        E 120 80 3e 00
        <X 120 0
          /wFbZW5kX2tleSBzb25nX3RyYWluZXJfa2V5XzVd
        >
        <X 0 0
          /wFbYmVnaW5fa2V5IHNvbmdfdHJhaW5lcl9rZXlfNl0=
        >
        E 0 90 3c 60
        E 120 80 3c 00
        E 120 90 3e 60
        E 120 80 3e 00
        E 120 90 40 60
        E 120 80 40 00
        E 120 90 3e 60
        E 120 80 3e 00
        E 360 90 3c 60
        E 120 80 3c 00
        E 360 90 39 60
        E 120 80 39 00
        E 120 90 3c 60
        E 120 80 3c 00
        E 120 90 39 60
        E 120 80 39 00
        E 120 90 40 60
        E 120 80 40 00
        E 120 90 3e 60
        E 120 80 3e 00
        E 120 90 74 60
        E 240 90 3c 60
        E 120 80 3c 00
        E 120 90 3e 60
        E 120 80 3e 00
        E 120 90 3c 60
        E 120 80 3c 00
        E 120 90 43 60
        E 120 80 43 00
        E 120 90 40 60
        E 120 80 40 00
        E 120 90 3e 60
        E 120 80 3e 00
        E 120 90 3c 60
        E 120 80 3c 00
        E 360 90 39 60
        E 120 80 39 00
        E 120 90 3c 60
        E 120 80 3c 00
        E 120 90 39 60
        E 120 80 39 00
        E 120 90 3c 60
        E 120 80 3c 00
        E 120 90 3e 60
        E 120 80 3e 00
        E 120 90 40 60
        E 120 80 40 00
        E 120 90 3e 60
        E 120 80 3e 00
        E 120 80 74 00
        E 240 90 3c 60
        E 120 80 3c 00
        E 120 90 3e 60
        E 120 80 3e 00
        E 120 90 39 60
        E 120 80 39 00
        E 120 90 3c 60
        E 120 80 3c 00
        E 120 90 3e 60
        E 120 80 3e 00
        E 120 90 40 60
        E 120 80 40 00
        E 120 90 43 60
        E 120 80 43 00
        E 120 90 45 60
        E 120 80 45 00
        E 120 90 43 60
        E 120 80 43 00
        E 120 90 3c 60
        E 120 80 3c 00
        E 120 90 3e 60
        E 120 80 3e 00
        E 120 90 40 60
        E 120 80 40 00
        E 120 90 3e 60
        E 120 80 3e 00
        E 120 90 40 60
        E 120 80 40 00
        E 120 90 43 60
        E 120 80 43 00
        E 120 90 45 60
        E 120 80 45 00
        E 120 90 43 60
        E 120 80 43 00
        E 120 90 40 60
        E 120 80 40 00
        E 120 90 3e 60
        E 120 80 3e 00
        E 120 90 40 60
        E 120 80 40 00
        E 120 90 40 60
        E 120 80 40 00
        E 120 90 40 60
        E 120 80 40 00
        E 120 90 40 60
        E 120 80 40 00
        E 120 90 40 60
        E 120 80 40 00
        E 120 90 40 60
        E 120 80 40 00
        E 360 90 3e 60
        E 120 80 3e 00
        E 120 90 40 60
        E 120 80 40 00
        E 120 90 40 60
        E 120 80 40 00
        E 120 90 3e 60
        E 120 80 3e 00
        E 120 90 40 60
        E 120 80 40 00
        E 120 90 40 60
        E 120 80 40 00
        E 120 90 40 60
        E 120 80 40 00
        E 120 90 3e 60
        E 120 80 3e 00
        E 120 90 3b 60
        E 120 80 3b 00
        <X 120 0
          /wFbZW5kX2tleSBzb25nX3RyYWluZXJfa2V5XzZd
        >
        E 0 90 00 60
        E 120 80 00 00
        E 840 90 32 60
        E 120 80 32 00
        E 120 90 30 60
        E 120 80 30 00
        E 120 90 32 60
        E 120 80 32 00
        E 120 90 34 60
        E 120 80 34 00
        E 360 90 32 60
        E 120 80 32 00
        E 120 90 34 60
        E 120 80 34 00
        E 120 90 32 60
        E 120 80 32 00
        E 120 90 37 60
        E 120 80 37 00
        E 120 90 34 60
        E 120 80 34 00
        E 120 90 32 60
        E 120 80 32 00
        E 120 90 30 60
        E 120 80 30 00
        E 360 90 30 60
        E 120 80 30 00
        E 120 90 32 60
        E 120 80 32 00
        E 120 90 30 60
        E 120 80 30 00
        E 120 90 32 60
        E 120 80 32 00
        E 120 90 30 60
        E 120 80 30 00
        E 120 90 32 60
        E 120 80 32 00
        E 120 90 34 60
        E 120 80 34 00
        E 360 90 37 60
        E 120 80 37 00
        E 360 90 34 60
        E 120 80 34 00
        E 360 90 32 60
        E 120 80 32 00
        E 1560 90 32 60
        E 120 80 32 00
        E 120 90 30 60
        E 120 80 30 00
        E 120 90 32 60
        E 120 80 32 00
        E 120 90 34 60
        E 120 80 34 00
        E 360 90 32 60
        E 120 80 32 00
        E 120 90 34 60
        E 120 80 34 00
        E 120 90 32 60
        E 120 80 32 00
        E 120 90 37 60
        E 120 80 37 00
        E 120 90 34 60
        E 120 80 34 00
        E 120 90 37 60
        E 120 80 37 00
        E 120 90 39 60
        E 120 80 39 00
        E 360 90 30 60
        E 120 80 30 00
        E 120 90 32 60
        E 120 80 32 00
        E 120 90 30 60
        E 120 80 30 00
        E 120 90 32 60
        E 120 80 32 00
        E 120 90 30 60
        E 120 80 30 00
        E 120 90 32 60
        E 120 80 32 00
        E 120 90 34 60
        E 120 80 34 00
        E 360 90 37 60
        E 120 80 37 00
        E 360 90 34 60
        E 120 80 34 00
        E 360 90 32 60
        E 120 80 32 00
        E 1560 90 32 60
        E 120 80 32 00
        E 120 90 30 60
        E 120 80 30 00
        E 120 90 32 60
        E 120 80 32 00
        E 120 90 34 60
        E 120 80 34 00
        E 360 90 32 60
        E 120 80 32 00
        E 120 90 34 60
        E 120 80 34 00
        E 120 90 32 60
        E 120 80 32 00
        E 120 90 37 60
        E 120 80 37 00
        E 120 90 34 60
        E 120 80 34 00
        E 120 90 32 60
        E 120 80 32 00
        E 120 90 30 60
        E 120 80 30 00
        E 360 90 30 60
        E 120 80 30 00
        E 120 90 32 60
        E 120 80 32 00
        E 120 90 30 60
        E 120 80 30 00
        E 120 90 32 60
        E 120 80 32 00
        E 120 90 30 60
        E 120 80 30 00
        E 120 90 32 60
        E 120 80 32 00
        E 120 90 34 60
        E 120 80 34 00
        E 360 90 37 60
        E 120 80 37 00
        E 360 90 34 60
        E 120 80 34 00
        E 360 90 32 60
        E 120 80 32 00
        E 1560 90 32 60
        E 120 80 32 00
        E 120 90 30 60
        E 120 80 30 00
        E 120 90 32 60
        E 120 80 32 00
        E 120 90 34 60
        E 120 80 34 00
        E 360 90 32 60
        E 120 80 32 00
        E 120 90 34 60
        E 120 80 34 00
        E 120 90 32 60
        E 120 80 32 00
        E 120 90 37 60
        E 120 80 37 00
        E 120 90 34 60
        E 120 80 34 00
        E 120 90 37 60
        E 120 80 37 00
        E 120 90 39 60
        E 120 80 39 00
        E 120 90 74 60
        E 240 90 30 60
        E 120 80 30 00
        E 120 90 32 60
        E 120 80 32 00
        E 120 90 30 60
        E 120 80 30 00
        E 120 90 32 60
        E 120 80 32 00
        E 120 90 30 60
        E 120 80 30 00
        E 120 90 32 60
        E 120 80 32 00
        E 120 90 34 60
        E 120 80 34 00
        E 360 90 37 60
        E 120 80 37 00
        E 360 90 34 60
        E 120 80 34 00
        E 360 90 32 60
        E 120 80 32 00
        E 600 90 09 60
        E 0 90 3c 60
        E 120 80 74 00
        E 0 80 09 00
        E 0 80 3c 00
        E 120 90 3e 60
        E 120 80 3e 00
        E 120 90 40 60
        E 120 80 40 00
        E 120 90 3e 60
        E 120 80 3e 00
        E 360 90 3c 60
        E 120 80 3c 00
        E 360 90 39 60
        E 120 80 39 00
        E 120 90 3c 60
        E 120 80 3c 00
        E 120 90 39 60
        E 120 80 39 00
        E 120 90 40 60
        E 120 80 40 00
        E 120 90 3e 60
        E 120 80 3e 00
        E 360 90 3c 60
        E 120 80 3c 00
        E 120 90 3e 60
        E 120 80 3e 00
        E 120 90 3c 60
        E 120 80 3c 00
        E 120 90 43 60
        E 120 80 43 00
        E 120 90 40 60
        E 120 80 40 00
        E 120 90 3e 60
        E 120 80 3e 00
        E 120 90 3c 60
        E 120 80 3c 00
        E 360 90 39 60
        E 120 80 39 00
        E 120 90 3c 60
        E 120 80 3c 00
        E 120 90 39 60
        E 120 80 39 00
        E 120 90 3c 60
        E 120 80 3c 00
        E 120 90 3e 60
        E 120 80 3e 00
        E 120 90 40 60
        E 120 80 40 00
        E 120 90 3e 60
        E 120 80 3e 00
        E 360 90 3c 60
        E 120 80 3c 00
        E 120 90 3e 60
        E 120 80 3e 00
        E 120 90 39 60
        E 120 80 39 00
        E 120 90 3c 60
        E 120 80 3c 00
        E 120 90 3e 60
        E 120 80 3e 00
        E 120 90 40 60
        E 120 80 40 00
        E 120 90 43 60
        E 120 80 43 00
        E 120 90 45 60
        E 120 80 45 00
        E 120 90 43 60
        E 120 80 43 00
        E 120 90 40 60
        E 120 80 40 00
        E 120 90 3e 60
        E 120 80 3e 00
        E 120 90 40 60
        E 120 80 40 00
        E 120 90 3e 60
        E 120 80 3e 00
        E 120 90 40 60
        E 120 80 40 00
        E 120 90 43 60
        E 120 80 43 00
        E 120 90 45 60
        E 120 80 45 00
        E 120 90 43 60
        E 120 80 43 00
        E 120 90 40 60
        E 120 80 40 00
        E 120 90 3e 60
        E 120 80 3e 00
        E 120 90 40 60
        E 120 80 40 00
        E 120 90 40 60
        E 120 80 40 00
        E 120 90 40 60
        E 120 80 40 00
        E 120 90 40 60
        E 120 80 40 00
        E 120 90 40 60
        E 120 80 40 00
        E 120 90 40 60
        E 120 80 40 00
        E 360 90 3e 60
        E 120 80 3e 00
        E 120 90 40 60
        E 120 80 40 00
        E 120 90 40 60
        E 120 80 40 00
        E 120 90 3e 60
        E 120 80 3e 00
        E 120 90 40 60
        E 120 80 40 00
        E 120 90 3e 60
        E 120 80 3e 00
        E 120 90 40 60
        E 120 80 40 00
        E 120 90 3e 60
        E 120 80 3e 00
        E 120 90 3e 60
        E 120 80 3e 00
        E 120 90 3c 60
        E 120 80 3c 00
        E 120 90 3e 60
        E 120 80 3e 00
        E 120 90 40 60
        E 120 80 40 00
        E 120 90 3e 60
        E 120 80 3e 00
        E 360 90 3c 60
        E 120 80 3c 00
        E 360 90 39 60
        E 120 80 39 00
        E 120 90 3c 60
        E 120 80 3c 00
        E 120 90 39 60
        E 120 80 39 00
        E 120 90 40 60
        E 120 80 40 00
        E 120 90 3e 60
        E 120 80 3e 00
        E 360 90 3c 60
        E 120 80 3c 00
        E 120 90 3e 60
        E 120 80 3e 00
        E 120 90 3c 60
        E 120 80 3c 00
        E 120 90 43 60
        E 120 80 43 00
        E 120 90 40 60
        E 120 80 40 00
        E 120 90 3e 60
        E 120 80 3e 00
        E 120 90 3c 60
        E 120 80 3c 00
        E 360 90 39 60
        E 120 80 39 00
        E 120 90 3c 60
        E 120 80 3c 00
        E 120 90 39 60
        E 120 80 39 00
        E 120 90 3c 60
        E 120 80 3c 00
        E 120 90 3e 60
        E 120 80 3e 00
        E 120 90 40 60
        E 120 80 40 00
        E 120 90 3e 60
        E 120 80 3e 00
        E 360 90 3c 60
        E 120 80 3c 00
        E 120 90 3e 60
        E 120 80 3e 00
        E 120 90 39 60
        E 120 80 39 00
        E 120 90 3c 60
        E 120 80 3c 00
        E 120 90 3e 60
        E 120 80 3e 00
        E 120 90 40 60
        E 120 80 40 00
        E 120 90 43 60
        E 120 80 43 00
        E 120 90 45 60
        E 120 80 45 00
        E 120 90 43 60
        E 120 80 43 00
        E 120 90 3c 60
        E 120 80 3c 00
        E 120 90 3e 60
        E 120 80 3e 00
        E 120 90 40 60
        E 120 80 40 00
        E 120 90 3e 60
        E 120 80 3e 00
        E 120 90 40 60
        E 120 80 40 00
        E 120 90 43 60
        E 120 80 43 00
        E 120 90 45 60
        E 120 80 45 00
        E 120 90 43 60
        E 120 80 43 00
        E 120 90 40 60
        E 120 80 40 00
        E 120 90 3e 60
        E 120 80 3e 00
        E 120 90 40 60
        E 120 80 40 00
        E 120 90 40 60
        E 120 80 40 00
        E 120 90 40 60
        E 120 80 40 00
        E 120 90 40 60
        E 120 80 40 00
        E 120 90 40 60
        E 120 80 40 00
        E 120 90 40 60
        E 120 80 40 00
        E 360 90 3e 60
        E 120 80 3e 00
        E 120 90 40 60
        E 120 80 40 00
        E 120 90 40 60
        E 120 80 40 00
        E 120 90 3e 60
        E 120 80 3e 00
        E 120 90 40 60
        E 120 80 40 00
        E 120 90 40 60
        E 120 80 40 00
        E 120 90 40 60
        E 120 80 40 00
        E 120 90 3e 60
        E 120 80 3e 00
        E 120 90 3b 60
        E 120 80 3b 00
        E 120 90 3c 60
        E 120 80 3c 00
        E 120 90 3e 60
        E 120 80 3e 00
        E 120 90 40 60
        E 120 80 40 00
        E 120 90 3e 60
        E 120 80 3e 00
        E 360 90 3c 60
        E 120 80 3c 00
        E 360 90 39 60
        E 120 80 39 00
        E 120 90 3c 60
        E 120 80 3c 00
        E 120 90 39 60
        E 120 80 39 00
        E 120 90 40 60
        E 120 80 40 00
        E 120 90 3e 60
        E 120 80 3e 00
        E 360 90 3c 60
        E 120 80 3c 00
        E 120 90 3e 60
        E 120 80 3e 00
        E 120 90 3c 60
        E 120 80 3c 00
        E 120 90 43 60
        E 120 80 43 00
        E 120 90 40 60
        E 120 80 40 00
        E 120 90 3e 60
        E 120 80 3e 00
        E 120 90 3c 60
        E 120 80 3c 00
        E 360 90 39 60
        E 120 80 39 00
        E 120 90 3c 60
        E 120 80 3c 00
        E 120 90 39 60
        E 120 80 39 00
        E 120 90 3c 60
        E 120 80 3c 00
        E 120 90 3e 60
        E 120 80 3e 00
        E 120 90 40 60
        E 120 80 40 00
        E 120 90 3e 60
        E 120 80 3e 00
        E 360 90 3c 60
        E 120 80 3c 00
        E 120 90 3e 60
        E 120 80 3e 00
        E 120 90 39 60
        E 120 80 39 00
        E 120 90 3c 60
        E 0 90 74 60
        E 120 80 3c 00
        E 120 90 3e 60
        E 120 80 3e 00
        E 120 90 40 60
        E 120 80 40 00
        E 120 90 43 60
        E 120 80 43 00
        E 120 90 45 60
        E 120 80 45 00
        E 120 90 43 60
        E 120 80 43 00
        E 120 90 40 60
        E 120 80 40 00
        E 120 90 3e 60
        E 120 80 3e 00
        E 120 90 40 60
        E 120 80 40 00
        E 120 90 3e 60
        E 120 80 3e 00
        E 120 90 40 60
        E 120 80 40 00
        E 120 90 43 60
        E 120 80 43 00
        E 120 90 45 60
        E 120 80 45 00
        E 120 90 43 60
        E 120 80 43 00
        E 120 90 40 60
        E 120 80 40 00
        E 120 90 3e 60
        E 120 80 3e 00
        E 120 80 74 00
        E 0 90 40 60
        E 120 80 40 00
        E 120 90 40 60
        E 120 80 40 00
        E 120 90 40 60
        E 120 80 40 00
        E 120 90 40 60
        E 120 80 40 00
        E 120 90 40 60
        E 120 80 40 00
        E 120 90 40 60
        E 120 80 40 00
        E 360 90 3e 60
        E 120 80 3e 00
        E 120 90 40 60
        E 120 80 40 00
        E 120 90 40 60
        E 120 80 40 00
        E 120 90 3e 60
        E 120 80 3e 00
        E 120 90 40 60
        E 120 80 40 00
        E 120 90 3e 60
        E 120 80 3e 00
        E 120 90 40 60
        E 120 80 40 00
        E 120 90 3e 60
        E 120 80 3e 00
        E 120 90 3e 60
        E 120 80 3e 00
        E 120 90 3c 60
        E 120 80 3c 00
        E 120 90 3e 60
        E 120 80 3e 00
        E 120 90 40 60
        E 120 80 40 00
        E 120 90 3e 60
        E 120 80 3e 00
        E 360 90 3c 60
        E 120 80 3c 00
        E 360 90 39 60
        E 120 80 39 00
        E 120 90 3c 60
        E 120 80 3c 00
        E 120 90 39 60
        E 120 80 39 00
        E 120 90 40 60
        E 120 80 40 00
        E 120 90 3e 60
        E 120 80 3e 00
        E 360 90 3c 60
        E 120 80 3c 00
        E 120 90 3e 60
        E 120 80 3e 00
        E 120 90 3c 60
        E 120 80 3c 00
        E 120 90 43 60
        E 120 80 43 00
        E 120 90 40 60
        E 120 80 40 00
        E 120 90 3e 60
        E 120 80 3e 00
        E 120 90 3c 60
        E 120 80 3c 00
        E 360 90 39 60
        E 120 80 39 00
        E 120 90 3c 60
        E 120 80 3c 00
        E 120 90 39 60
        E 120 80 39 00
        E 120 90 3c 60
        E 120 80 3c 00
        E 120 90 3e 60
        E 120 80 3e 00
        E 120 90 40 60
        E 120 80 40 00
        E 120 90 3e 60
        E 120 80 3e 00
        E 360 90 3c 60
        E 120 80 3c 00
        E 120 90 3e 60
        E 120 80 3e 00
        E 120 90 39 60
        E 120 80 39 00
        E 120 90 3c 60
        E 120 80 3c 00
        E 120 90 3e 60
        E 120 80 3e 00
        E 120 90 40 60
        E 120 80 40 00
        E 120 90 43 60
        E 120 80 43 00
        E 120 90 45 60
        E 120 80 45 00
        E 120 90 43 60
        E 120 80 43 00
        E 120 90 3c 60
        E 120 80 3c 00
        E 120 90 3e 60
        E 120 80 3e 00
        E 120 90 40 60
        E 120 80 40 00
        E 120 90 3e 60
        E 120 80 3e 00
        E 120 90 40 60
        E 120 80 40 00
        E 120 90 43 60
        E 120 80 43 00
        E 120 90 45 60
        E 120 80 45 00
        E 120 90 43 60
        E 120 80 43 00
        E 120 90 40 60
        E 120 80 40 00
        E 120 90 3e 60
        E 120 80 3e 00
        E 120 90 40 60
        E 120 80 40 00
        E 120 90 40 60
        E 120 80 40 00
        E 120 90 40 60
        E 120 80 40 00
        E 120 90 40 60
        E 120 80 40 00
        E 120 90 40 60
        E 120 80 40 00
        E 120 90 40 60
        E 120 80 40 00
        E 360 90 3e 60
        E 120 80 3e 00
        E 120 90 40 60
        E 120 80 40 00
        E 120 90 40 60
        E 120 80 40 00
        E 120 90 3e 60
        E 120 80 3e 00
        E 120 90 40 60
        E 120 80 40 00
        E 120 90 40 60
        E 120 80 40 00
        E 120 90 40 60
        E 120 80 40 00
        E 120 90 3e 60
        E 120 80 3e 00
        E 120 90 3b 60
        E 120 80 3b 00
        E 120 90 3c 60
        E 120 80 3c 00
        E 120 90 3e 60
        E 120 80 3e 00
        E 120 90 40 60
        E 120 80 40 00
        E 120 90 3e 60
        E 120 80 3e 00
        E 360 90 3c 60
        E 120 80 3c 00
        E 360 90 39 60
        E 120 80 39 00
        E 120 90 3c 60
        E 120 80 3c 00
        E 120 90 39 60
        E 120 80 39 00
        E 120 90 40 60
        E 120 80 40 00
        E 120 90 3e 60
        E 120 80 3e 00
        E 360 90 3c 60
        E 120 80 3c 00
        E 120 90 3e 60
        E 120 80 3e 00
        E 120 90 3c 60
        E 120 80 3c 00
        E 120 90 43 60
        E 120 80 43 00
        E 120 90 40 60
        E 120 80 40 00
        E 120 90 3e 60
        E 120 80 3e 00
        E 120 90 3c 60
        E 120 80 3c 00
        E 360 90 39 60
        E 120 80 39 00
        E 120 90 3c 60
        E 120 80 3c 00
        E 120 90 39 60
        E 120 80 39 00
        E 120 90 3c 60
        E 120 80 3c 00
        E 120 90 3e 60
        E 120 80 3e 00
        E 120 90 40 60
        E 120 80 40 00
        E 120 90 3e 60
        E 120 80 3e 00
        E 360 90 3c 60
        E 120 80 3c 00
        E 120 90 3e 60
        E 120 80 3e 00
        E 120 90 39 60
        E 120 80 39 00
        E 120 90 3c 60
        E 120 80 3c 00
        E 120 90 3e 60
        E 120 80 3e 00
        E 120 90 40 60
        E 120 80 40 00
        E 120 90 43 60
        E 120 80 43 00
        E 120 90 45 60
        E 120 80 45 00
        E 120 90 43 60
        E 120 80 43 00
        E 120 90 40 60
        E 120 80 40 00
        E 120 90 3e 60
        E 120 80 3e 00
        E 120 90 40 60
        E 120 80 40 00
        E 120 90 3e 60
        E 120 80 3e 00
        E 120 90 40 60
        E 120 80 40 00
        E 120 90 43 60
        E 120 80 43 00
        E 120 90 45 60
        E 120 80 45 00
        E 120 90 43 60
        E 120 80 43 00
        E 120 90 40 60
        E 120 80 40 00
        E 120 90 3e 60
        E 120 80 3e 00
        E 120 90 40 60
        E 120 80 40 00
        E 120 90 40 60
        E 120 80 40 00
        E 120 90 40 60
        E 120 80 40 00
        E 120 90 40 60
        E 120 80 40 00
        E 120 90 40 60
        E 120 80 40 00
        E 120 90 40 60
        E 120 80 40 00
        E 360 90 3e 60
        E 120 80 3e 00
        E 120 90 3e 60
        E 120 80 3e 00
        E 120 90 3e 60
        E 120 80 3e 00
        E 120 90 3e 60
        E 120 80 3e 00
        E 120 90 3e 60
        E 120 80 3e 00
        E 120 90 3e 60
        E 120 80 3e 00
        E 120 90 3e 60
        E 120 80 3e 00
        E 120 90 3e 60
        E 120 80 3e 00
        E 120 90 3e 60
        E 120 80 3e 00
        E 120 90 3c 60
        E 0 90 74 60
        E 120 80 3c 00
        E 120 90 3e 60
        E 120 80 3e 00
        E 120 90 40 60
        E 120 80 40 00
        E 120 90 3e 60
        E 120 80 3e 00
        E 360 90 3c 60
        E 120 80 3c 00
        E 360 90 39 60
        E 120 80 39 00
        E 120 90 3c 60
        E 120 80 3c 00
        E 120 90 39 60
        E 120 80 39 00
        E 120 90 40 60
        E 120 80 40 00
        E 120 90 3e 60
        E 120 80 3e 00
        E 360 90 3c 60
        E 120 80 3c 00
        E 120 90 3e 60
        E 120 80 3e 00
        E 120 90 3c 60
        E 120 80 3c 00
        E 120 80 74 00
        E 0 90 43 60
        E 120 80 43 00
        E 120 90 40 60
        E 120 80 40 00
        E 120 90 3e 60
        E 120 80 3e 00
        E 120 90 3c 60
        E 120 80 3c 00
        E 360 90 39 60
        E 120 80 39 00
        E 120 90 3c 60
        E 120 80 3c 00
        E 120 90 39 60
        E 120 80 39 00
        E 120 90 3c 60
        E 120 80 3c 00
        E 120 90 3e 60
        E 120 80 3e 00
        E 120 90 40 60
        E 120 80 40 00
        E 120 90 3e 60
        E 120 80 3e 00
        E 360 90 3c 60
        E 120 80 3c 00
        E 120 90 3e 60
        E 120 80 3e 00
        E 120 90 39 60
        E 120 80 39 00
        E 120 90 3c 60
        E 120 80 3c 00
        E 120 90 3e 60
        E 120 80 3e 00
        E 120 90 40 60
        E 120 80 40 00
        E 120 90 43 60
        E 120 80 43 00
        E 120 90 45 60
        E 120 80 45 00
        E 120 90 43 60
        E 120 80 43 00
        E 120 90 3c 60
        E 120 80 3c 00
        E 120 90 3e 60
        E 120 80 3e 00
        E 120 90 40 60
        E 120 80 40 00
        E 120 90 3e 60
        E 120 80 3e 00
        E 120 90 40 60
        E 120 80 40 00
        E 120 90 43 60
        E 120 80 43 00
        E 120 90 45 60
        E 120 80 45 00
        E 120 90 43 60
        E 120 80 43 00
        E 120 90 40 60
        E 120 80 40 00
        E 120 90 3e 60
        E 120 80 3e 00
        E 120 90 00 60
        E 0 90 40 60
        E 120 80 00 00
        E 0 80 40 00
        E 120 90 40 60
        E 120 80 40 00
        E 120 90 40 60
        E 120 80 40 00
        E 120 90 40 60
        E 120 80 40 00
        E 120 90 40 60
        E 120 80 40 00
        E 120 90 40 60
        E 120 80 40 00
        E 360 90 3e 60
        E 120 80 3e 00
        E 120 90 3e 60
        E 120 80 3e 00
        E 120 90 3e 60
        E 120 80 3e 00
        E 120 90 3e 60
        E 120 80 3e 00
        E 120 90 40 60
        E 120 80 40 00
        E 120 90 40 60
        E 120 80 40 00
        E 120 90 40 60
        E 120 80 40 00
        E 0 90 40 60
        E 120 80 40 00
        E 0 90 3e 60
        E 120 80 3e 00
        E 120 90 3b 60
        E 120 80 3b 00
        E 1080 90 32 60
        E 120 80 32 00
        E 120 90 30 60
        E 120 80 30 00
        E 120 90 32 60
        E 120 80 32 00
        E 120 90 34 60
        E 120 80 34 00
        E 360 90 32 60
        E 120 80 32 00
        E 120 90 34 60
        E 120 80 34 00
        E 120 90 32 60
        E 120 80 32 00
        E 120 90 37 60
        E 120 80 37 00
        E 120 90 34 60
        E 120 80 34 00
        E 120 90 32 60
        E 120 80 32 00
        E 120 90 30 60
        E 120 80 30 00
        E 360 90 30 60
        E 120 80 30 00
        E 120 90 32 60
        E 120 80 32 00
        E 120 90 30 60
        E 120 80 30 00
        E 120 90 32 60
        E 120 80 32 00
        E 120 90 30 60
        E 120 80 30 00
        E 120 90 32 60
        E 120 80 32 00
        E 120 90 34 60
        E 120 80 34 00
        E 360 90 37 60
        E 120 80 37 00
        E 360 90 34 60
        E 120 80 34 00
        E 360 90 32 60
        E 120 80 32 00
        E 1560 90 32 60
        E 120 80 32 00
        E 120 90 30 60
        E 120 80 30 00
        E 120 90 32 60
        E 120 80 32 00
        E 120 90 34 60
        E 120 80 34 00
        E 360 90 32 60
        E 120 80 32 00
        E 120 90 34 60
        E 120 80 34 00
        E 120 90 32 60
        E 120 80 32 00
        E 120 90 37 60
        E 120 80 37 00
        E 120 90 34 60
        E 120 80 34 00
        E 120 90 37 60
        E 120 80 37 00
        E 120 90 39 60
        E 120 80 39 00
        E 360 90 30 60
        E 120 80 30 00
        E 120 90 32 60
        E 120 80 32 00
        E 120 90 30 60
        E 120 80 30 00
        E 120 90 32 60
        E 120 80 32 00
        E 120 90 30 60
        E 120 80 30 00
        E 120 90 32 60
        E 120 80 32 00
        E 120 90 34 60
        E 120 80 34 00
        E 360 90 37 60
        E 120 80 37 00
        E 360 90 34 60
        E 120 80 34 00
        E 360 90 32 60
        E 120 80 32 00
        E 1560 90 32 60
        E 120 80 32 00
        E 120 90 30 60
        E 120 80 30 00
        E 120 90 32 60
        E 120 80 32 00
        E 120 90 34 60
        E 120 80 34 00
        E 360 90 32 60
        E 120 80 32 00
        E 120 90 34 60
        E 120 80 34 00
        E 120 90 32 60
        E 120 80 32 00
        E 120 90 37 60
        E 120 80 37 00
        E 120 90 34 60
        E 120 80 34 00
        E 120 90 32 60
        E 120 80 32 00
        E 120 90 30 60
        E 120 80 30 00
        E 360 90 30 60
        E 120 80 30 00
        E 120 90 32 60
        E 120 80 32 00
        E 120 90 30 60
        E 120 80 30 00
        E 120 90 32 60
        E 120 80 32 00
        E 120 90 30 60
        E 120 80 30 00
        E 120 90 32 60
        E 120 80 32 00
        E 120 90 34 60
        E 120 80 34 00
        E 360 90 37 60
        E 120 80 37 00
        E 360 90 34 60
        E 120 80 34 00
        E 360 90 32 60
        E 120 80 32 00
        E 1560 90 32 60
        E 120 80 32 00
        E 120 90 30 60
        E 120 80 30 00
        E 120 90 32 60
        E 120 80 32 00
        E 120 90 34 60
        E 120 80 34 00
        E 360 90 32 60
        E 120 80 32 00
        E 120 90 34 60
        E 120 80 34 00
        E 120 90 32 60
        E 120 80 32 00
        E 120 90 37 60
        E 120 80 37 00
        E 120 90 34 60
        E 120 80 34 00
        E 120 90 37 60
        E 120 80 37 00
        E 120 90 39 60
        E 120 80 39 00
        E 360 90 30 60
        E 120 80 30 00
        E 120 90 32 60
        E 120 80 32 00
        E 120 90 30 60
        E 120 80 30 00
        E 120 90 32 60
        E 120 80 32 00
        E 120 90 30 60
        E 120 80 30 00
        E 120 90 32 60
        E 120 80 32 00
        E 120 90 34 60
        E 120 80 34 00
        E 360 90 37 60
        E 120 80 37 00
        E 360 90 34 60
        E 120 80 34 00
        E 360 90 32 60
        E 120 80 32 00
        E 14039 b0 7b 00
        GUID {79C39BD4-470D-4F93-8DBF-A5BA7E134244}
        IGNTEMPO 0 120.00000000 4 4
        SRCCOLOR 9
        VELLANE 132 71 60
        COLORMAP "C:\Program Files\REAPER (x64)\Data\color_maps\rockband_guitarbass.png"
        CFGEDITVIEW 0.000000 2.853967 0 12 0 0 0
        CFGEDIT 1 1 0 1 1 0 1 1 1 1 1 0.25000000 100 100 1200 800 0 2 2 1 0.00000000 0 1 0 0 0.500000 0 0 1.000000 64
        KEYSNAP 0 6 "102030050700" 0 "Pentatonic"
        EVTFILTER 0 -1 -1 -1 -1 0 1 0 0 -1.00000000 -1.00000000
      >
    >
  >
  <TRACK '{3F97D1B1-EB8D-428C-9856-A99D1DC255AD}'
    NAME "PART REAL_KEYS_H"
    PEAKCOL 16576
    BEAT -1
    AUTOMODE 0
    VOLPAN 1.00000000000000 0.00000000000000 -1.00000000000000 -1.00000000000000 1.00000000000000
    MUTESOLO 0 0 0
    IPHASE 0
    ISBUS 0 0
    BUSCOMP 0 0
    SHOWINMIX 1 0.666700 0.500000 1 0.500000 -1 -1 -1
    FREEMODE 0
    SEL 0
    REC 0 0 0 0 0 0 0
    VU 2
    TRACKHEIGHT 0 0
    INQ 0 0 0 0.5000000000 100 0 0 100
    NCHAN 2
    FX 1
    TRACKID {3F97D1B1-EB8D-428C-9856-A99D1DC255AD}
    PERF 0
    MIDIOUT -1
    <MIDINOTENAMES
      0 72 "Highest playable note B#3"
      0 71 "B3"
      0 70 "A#3"
      0 69 "A3"
      0 68 "G#3"
      0 67 "G3"
      0 66 "F#3"
      0 65 "F3"
      0 64 "E3"
      0 63 "D#3"
      0 62 "D3"
      0 61 "C#3"
      0 60 "C3"
      0 59 "B2"
      0 58 "A#2"
      0 57 "A2"
      0 56 "G#2"
      0 55 "G2"
      0 54 "F#2"
      0 53 "F2"
      0 52 "E2"
      0 51 "D#2"
      0 50 "D2"
      0 49 "C#2"
      0 48 "Lowest playable note C2"
      0 10 "---"
      0 9 "Range A2-C4"
      0 8 "Range"
      0 7 "Range"
      0 6 "Range"
      0 5 "Range F2-A3"
      0 4 "Range"
      0 3 "Range"
      0 2 "Range"
      0 1 "Range"
      0 0 "Range C2-E3"
    >
    MAINSEND 1 0
    <FXCHAIN
      SHOW 0
      LASTSEL 0
      DOCKED 0
    >
    <ITEM
      POSITION 0.00000000000000
      SNAPOFFS 0.00000000000000
      LENGTH 249.33300000000000
      LOOP 0
      ALLTAKES 0
      SEL 0
      FADEIN 1 0.000000 0.000000 1 0
      FADEOUT 1 0.000000 0.000000 1 0
      MUTE 0
      IGUID {80C51687-753A-4B73-9D6F-9DF62E96230D}
      IID 8
      NAME "PART REAL_KEYS_H"
      VOLPAN 1.000000 0.000000 1.000000 -1.000000
      SOFFS 0.00000000000000 0.00000000000000
      PLAYRATE 1.00000000000000 1 0.00000000000000 -1
      CHANMODE 0
      GUID {10DA743C-0684-469F-9267-4A9641982E86}
      <SOURCE MIDI
        HASDATA 1 480 QN
        POOLEDEVTS {15FC0D07-CE11-4FDB-BC81-2E624E798070}
        <X 0 0
          /wNQQVJUIFJFQUxfS0VZU19I
        >
        E 0 90 00 60
        E 120 80 00 00
        E 8520 90 32 60
        E 120 80 32 00
        E 120 90 30 60
        E 120 80 30 00
        E 120 90 32 60
        E 120 80 32 00
        E 120 90 34 60
        E 120 80 34 00
        E 360 90 32 60
        E 120 80 32 00
        E 120 90 34 60
        E 120 80 34 00
        E 120 90 32 60
        E 120 80 32 00
        E 120 90 37 60
        E 120 80 37 00
        E 120 90 34 60
        E 120 80 34 00
        E 120 90 32 60
        E 120 80 32 00
        E 120 90 30 60
        E 120 80 30 00
        E 360 90 30 60
        E 120 80 30 00
        E 120 90 32 60
        E 120 80 32 00
        E 120 90 30 60
        E 120 80 30 00
        E 120 90 32 60
        E 120 80 32 00
        E 120 90 30 60
        E 120 80 30 00
        E 120 90 32 60
        E 120 80 32 00
        E 120 90 34 60
        E 120 80 34 00
        E 360 90 37 60
        E 120 80 37 00
        E 360 90 34 60
        E 120 80 34 00
        E 360 90 32 60
        E 120 80 32 00
        E 1560 90 32 60
        E 120 80 32 00
        E 120 90 30 60
        E 120 80 30 00
        E 120 90 32 60
        E 120 80 32 00
        E 120 90 34 60
        E 120 80 34 00
        E 360 90 32 60
        E 120 80 32 00
        E 120 90 34 60
        E 120 80 34 00
        E 120 90 32 60
        E 120 80 32 00
        E 120 90 37 60
        E 120 80 37 00
        E 120 90 34 60
        E 120 80 34 00
        E 120 90 37 60
        E 120 80 37 00
        E 120 90 39 60
        E 120 80 39 00
        E 360 90 30 60
        E 120 80 30 00
        E 120 90 32 60
        E 120 80 32 00
        E 120 90 30 60
        E 120 80 30 00
        E 120 90 32 60
        E 120 80 32 00
        E 120 90 30 60
        E 120 80 30 00
        E 120 90 32 60
        E 120 80 32 00
        E 120 90 34 60
        E 120 80 34 00
        E 360 90 37 60
        E 120 80 37 00
        E 360 90 34 60
        E 120 80 34 00
        E 360 90 32 60
        E 120 80 32 00
        E 600 90 34 60
        E 120 80 34 00
        E 360 90 37 60
        E 120 80 37 00
        E 360 90 34 60
        E 120 80 34 00
        E 360 90 37 60
        E 120 80 37 00
        E 360 90 34 60
        E 120 80 34 00
        E 360 90 37 60
        E 120 80 37 00
        E 120 90 34 60
        E 120 80 34 00
        E 360 90 32 60
        E 120 80 32 00
        E 600 90 30 60
        E 120 80 30 00
        E 120 90 32 60
        E 120 80 32 00
        E 120 90 34 60
        E 120 80 34 00
        E 120 90 37 60
        E 120 80 37 00
        E 360 90 34 60
        E 120 80 34 00
        E 120 90 37 60
        E 120 80 37 00
        E 120 90 34 60
        E 120 80 34 00
        E 120 90 32 60
        E 120 80 32 00
        E 120 90 34 60
        E 120 80 34 00
        E 120 90 37 60
        E 120 80 37 00
        E 120 90 39 60
        E 120 80 39 00
        E 360 90 32 60
        E 120 80 32 00
        E 120 90 30 60
        E 120 80 30 00
        E 120 90 32 60
        E 120 80 32 00
        E 120 90 30 60
        E 120 80 30 00
        E 120 90 32 60
        E 120 80 32 00
        E 120 90 34 60
        E 120 80 34 00
        E 120 90 37 60
        E 120 80 37 00
        E 120 90 34 60
        E 120 80 34 00
        E 120 90 37 60
        E 120 80 37 00
        E 120 90 39 60
        E 120 80 39 00
        E 120 90 3c 60
        E 120 80 3c 00
        E 360 90 39 60
        E 120 80 39 00
        E 360 90 3c 60
        E 120 80 3c 00
        E 360 90 39 60
        E 120 80 39 00
        E 120 90 3b 60
        E 120 80 3b 00
        E 120 90 3e 60
        E 120 80 3e 00
        E 120 90 3c 60
        E 120 80 3c 00
        E 120 90 39 60
        E 120 80 39 00
        E 360 90 39 60
        E 120 80 39 00
        E 120 90 3c 60
        E 120 80 3c 00
        E 120 90 3e 60
        E 120 80 3e 00
        E 120 90 40 60
        E 120 80 40 00
        E 120 90 3c 60
        E 1680 80 3c 00
        E 480 90 34 60
        E 120 80 34 00
        E 360 90 37 60
        E 120 80 37 00
        E 360 90 34 60
        E 120 80 34 00
        E 360 90 37 60
        E 120 80 37 00
        E 360 90 34 60
        E 120 80 34 00
        E 360 90 37 60
        E 120 80 37 00
        E 120 90 34 60
        E 120 80 34 00
        E 360 90 32 60
        E 120 80 32 00
        E 600 90 30 60
        E 120 80 30 00
        E 120 90 32 60
        E 120 80 32 00
        E 120 90 34 60
        E 120 80 34 00
        E 120 90 37 60
        E 120 80 37 00
        E 360 90 34 60
        E 120 80 34 00
        E 120 90 37 60
        E 120 80 37 00
        E 120 90 34 60
        E 120 80 34 00
        E 120 90 32 60
        E 120 80 32 00
        E 120 90 34 60
        E 120 80 34 00
        E 120 90 37 60
        E 120 80 37 00
        E 120 90 39 60
        E 120 80 39 00
        E 360 90 32 60
        E 120 80 32 00
        E 120 90 30 60
        E 120 80 30 00
        E 120 90 32 60
        E 120 80 32 00
        E 120 90 30 60
        E 120 80 30 00
        E 120 90 32 60
        E 120 80 32 00
        E 120 90 34 60
        E 120 80 34 00
        E 120 90 37 60
        E 120 80 37 00
        E 120 90 34 60
        E 120 80 34 00
        E 120 90 37 60
        E 120 80 37 00
        E 120 90 39 60
        E 120 80 39 00
        E 120 90 3c 60
        E 120 80 3c 00
        E 360 90 39 60
        E 120 80 39 00
        E 360 90 3c 60
        E 120 80 3c 00
        E 360 90 39 60
        E 120 80 39 00
        E 120 90 3b 60
        E 120 80 3b 00
        E 120 90 3e 60
        E 120 80 3e 00
        E 120 90 3c 60
        E 120 80 3c 00
        E 120 90 39 60
        E 120 80 39 00
        E 360 90 39 60
        E 120 80 39 00
        E 120 90 3c 60
        E 120 80 3c 00
        E 120 90 3e 60
        E 120 80 3e 00
        E 120 90 40 60
        E 120 80 40 00
        E 120 90 3c 60
        E 1680 80 3c 00
        E 480 90 34 60
        E 1560 80 34 00
        E 120 90 37 60
        E 120 80 37 00
        E 360 90 34 60
        E 120 80 34 00
        E 360 90 3b 60
        E 120 80 3b 00
        E 360 90 3c 60
        E 120 80 3c 00
        E 360 90 39 60
        E 120 80 39 00
        E 360 90 39 60
        E 120 80 39 00
        E 120 90 3b 60
        E 120 80 3b 00
        E 120 90 39 60
        E 120 80 39 00
        E 120 90 3c 60
        E 120 80 3c 00
        E 120 90 3b 60
        E 120 80 3b 00
        E 120 90 39 60
        E 120 80 39 00
        E 120 90 34 60
        E 120 80 34 00
        E 360 90 39 60
        E 120 80 39 00
        E 120 90 3b 60
        E 120 80 3b 00
        E 120 90 39 60
        E 120 80 39 00
        E 120 90 3c 60
        E 120 80 3c 00
        E 120 90 39 60
        E 120 80 39 00
        E 120 90 3c 60
        E 120 80 3c 00
        E 120 90 3e 60
        E 120 80 3e 00
        E 1080 90 39 60
        E 600 80 39 00
        E 120 90 3c 60
        E 120 80 3c 00
        E 360 90 3e 60
        E 120 80 3e 00
        E 360 90 3b 60
        E 120 80 3b 00
        E 360 90 3c 60
        E 120 80 3c 00
        E 360 90 39 60
        E 120 80 39 00
        E 360 90 39 60
        E 120 80 39 00
        E 120 90 3b 60
        E 120 80 3b 00
        E 120 90 39 60
        E 120 80 39 00
        E 120 90 3e 60
        E 120 80 3e 00
        E 120 90 3c 60
        E 120 80 3c 00
        E 120 90 3b 60
        E 120 80 3b 00
        E 120 90 37 60
        E 120 80 37 00
        E 360 90 39 60
        E 120 80 39 00
        E 120 90 3b 60
        E 120 80 3b 00
        E 120 90 39 60
        E 120 80 39 00
        E 120 90 3c 60
        E 120 80 3c 00
        E 120 90 39 60
        E 120 80 39 00
        E 120 90 3c 60
        E 120 80 3c 00
        E 120 90 3e 60
        E 120 80 3e 00
        E 600 90 32 60
        E 120 80 32 00
        E 360 90 34 60
        E 120 80 34 00
        E 360 90 37 60
        E 120 80 37 00
        E 360 90 39 60
        E 120 80 39 00
        E 120 90 34 60
        E 120 80 34 00
        E 360 90 3b 60
        E 120 80 3b 00
        E 360 90 3c 60
        E 120 80 3c 00
        E 360 90 3e 60
        E 120 80 3e 00
        E 360 90 39 60
        E 120 80 39 00
        E 120 90 3b 60
        E 120 80 3b 00
        E 120 90 39 60
        E 120 80 39 00
        E 120 90 3c 60
        E 120 80 3c 00
        E 120 90 3b 60
        E 120 80 3b 00
        E 120 90 39 60
        E 120 80 39 00
        E 120 90 34 60
        E 120 80 34 00
        E 360 90 39 60
        E 120 80 39 00
        E 120 90 3b 60
        E 120 80 3b 00
        E 120 90 39 60
        E 120 80 39 00
        E 120 90 3c 60
        E 120 80 3c 00
        E 120 90 39 60
        E 120 80 39 00
        E 120 90 3b 60
        E 120 80 3b 00
        E 120 90 3c 60
        E 120 80 3c 00
        E 120 90 39 60
        E 120 80 39 00
        E 360 90 3b 60
        E 120 80 3b 00
        E 360 90 3c 60
        E 120 80 3c 00
        E 360 90 3b 60
        E 120 80 3b 00
        E 360 90 3c 60
        E 120 80 3c 00
        E 360 90 3e 60
        E 120 80 3e 00
        E 360 90 3c 60
        E 120 80 3c 00
        E 360 90 39 60
        E 120 80 39 00
        E 120 90 34 60
        E 120 80 34 00
        E 360 90 30 60
        E 120 80 30 00
        E 120 90 32 60
        E 120 80 32 00
        E 120 90 30 60
        E 120 80 30 00
        E 120 90 32 60
        E 120 80 32 00
        E 120 90 30 60
        E 120 80 30 00
        E 120 90 32 60
        E 120 80 32 00
        E 120 90 34 60
        E 120 80 34 00
        E 600 90 30 60
        E 120 80 30 00
        E 120 90 34 60
        E 120 80 34 00
        E 360 90 37 60
        E 720 80 37 00
        E 960 90 32 60
        E 120 80 32 00
        E 120 90 30 60
        E 120 80 30 00
        E 120 90 32 60
        E 120 80 32 00
        E 120 90 34 60
        E 120 80 34 00
        E 360 90 32 60
        E 120 80 32 00
        E 120 90 34 60
        E 120 80 34 00
        E 120 90 32 60
        E 120 80 32 00
        E 120 90 37 60
        E 120 80 37 00
        E 120 90 34 60
        E 120 80 34 00
        E 120 90 32 60
        E 120 80 32 00
        E 120 90 30 60
        E 120 80 30 00
        E 360 90 30 60
        E 120 80 30 00
        E 120 90 32 60
        E 120 80 32 00
        E 120 90 30 60
        E 120 80 30 00
        E 120 90 32 60
        E 120 80 32 00
        E 120 90 30 60
        E 120 80 30 00
        E 120 90 32 60
        E 120 80 32 00
        E 120 90 34 60
        E 120 80 34 00
        E 360 90 37 60
        E 120 80 37 00
        E 360 90 34 60
        E 120 80 34 00
        E 360 90 32 60
        E 120 80 32 00
        E 1560 90 32 60
        E 120 80 32 00
        E 120 90 30 60
        E 120 80 30 00
        E 120 90 32 60
        E 120 80 32 00
        E 120 90 34 60
        E 120 80 34 00
        E 360 90 32 60
        E 120 80 32 00
        E 120 90 34 60
        E 120 80 34 00
        E 120 90 32 60
        E 120 80 32 00
        E 120 90 37 60
        E 120 80 37 00
        E 120 90 34 60
        E 120 80 34 00
        E 120 90 37 60
        E 120 80 37 00
        E 120 90 39 60
        E 120 80 39 00
        E 360 90 30 60
        E 120 80 30 00
        E 120 90 32 60
        E 120 80 32 00
        E 120 90 30 60
        E 120 80 30 00
        E 120 90 32 60
        E 120 80 32 00
        E 120 90 30 60
        E 120 80 30 00
        E 120 90 32 60
        E 120 80 32 00
        E 120 90 34 60
        E 120 80 34 00
        E 360 90 37 60
        E 120 80 37 00
        E 360 90 34 60
        E 120 80 34 00
        E 360 90 32 60
        E 120 80 32 00
        E 600 90 34 60
        E 120 80 34 00
        E 360 90 37 60
        E 120 80 37 00
        E 360 90 34 60
        E 120 80 34 00
        E 360 90 37 60
        E 120 80 37 00
        E 360 90 34 60
        E 120 80 34 00
        E 360 90 37 60
        E 120 80 37 00
        E 120 90 34 60
        E 120 80 34 00
        E 360 90 32 60
        E 120 80 32 00
        E 600 90 30 60
        E 120 80 30 00
        E 120 90 32 60
        E 120 80 32 00
        E 120 90 34 60
        E 120 80 34 00
        E 120 90 37 60
        E 120 80 37 00
        E 360 90 34 60
        E 120 80 34 00
        E 120 90 37 60
        E 120 80 37 00
        E 120 90 34 60
        E 120 80 34 00
        E 120 90 32 60
        E 120 80 32 00
        E 120 90 34 60
        E 120 80 34 00
        E 120 90 37 60
        E 120 80 37 00
        E 120 90 39 60
        E 120 80 39 00
        E 360 90 32 60
        E 120 80 32 00
        E 120 90 30 60
        E 120 80 30 00
        E 120 90 32 60
        E 120 80 32 00
        E 120 90 30 60
        E 120 80 30 00
        E 120 90 32 60
        E 120 80 32 00
        E 120 90 34 60
        E 120 80 34 00
        E 120 90 37 60
        E 120 80 37 00
        E 120 90 34 60
        E 120 80 34 00
        E 120 90 37 60
        E 120 80 37 00
        E 120 90 39 60
        E 120 80 39 00
        E 120 90 3c 60
        E 120 80 3c 00
        E 360 90 39 60
        E 120 80 39 00
        E 360 90 3c 60
        E 120 80 3c 00
        E 360 90 39 60
        E 120 80 39 00
        E 120 90 3b 60
        E 120 80 3b 00
        E 120 90 3e 60
        E 120 80 3e 00
        E 120 90 3c 60
        E 120 80 3c 00
        E 120 90 39 60
        E 120 80 39 00
        E 360 90 39 60
        E 120 80 39 00
        E 120 90 3c 60
        E 120 80 3c 00
        E 120 90 3e 60
        E 120 80 3e 00
        E 120 90 40 60
        E 120 80 40 00
        E 120 90 3c 60
        E 1680 80 3c 00
        E 480 90 34 60
        E 120 80 34 00
        E 360 90 37 60
        E 120 80 37 00
        E 360 90 34 60
        E 120 80 34 00
        E 360 90 37 60
        E 120 80 37 00
        E 360 90 34 60
        E 120 80 34 00
        E 360 90 37 60
        E 120 80 37 00
        E 120 90 34 60
        E 120 80 34 00
        E 360 90 32 60
        E 120 80 32 00
        E 600 90 30 60
        E 120 80 30 00
        E 120 90 32 60
        E 120 80 32 00
        E 120 90 34 60
        E 120 80 34 00
        E 120 90 37 60
        E 120 80 37 00
        E 360 90 34 60
        E 120 80 34 00
        E 120 90 37 60
        E 120 80 37 00
        E 120 90 34 60
        E 120 80 34 00
        E 120 90 32 60
        E 120 80 32 00
        E 120 90 34 60
        E 120 80 34 00
        E 120 90 37 60
        E 120 80 37 00
        E 120 90 39 60
        E 120 80 39 00
        E 360 90 32 60
        E 120 80 32 00
        E 120 90 30 60
        E 120 80 30 00
        E 120 90 32 60
        E 120 80 32 00
        E 120 90 30 60
        E 120 80 30 00
        E 120 90 32 60
        E 120 80 32 00
        E 120 90 34 60
        E 120 80 34 00
        E 120 90 37 60
        E 120 80 37 00
        E 120 90 34 60
        E 120 80 34 00
        E 120 90 37 60
        E 120 80 37 00
        E 120 90 39 60
        E 120 80 39 00
        E 120 90 3c 60
        E 120 80 3c 00
        E 360 90 39 60
        E 120 80 39 00
        E 360 90 3c 60
        E 120 80 3c 00
        E 360 90 39 60
        E 120 80 39 00
        E 120 90 3b 60
        E 120 80 3b 00
        E 120 90 3e 60
        E 120 80 3e 00
        E 120 90 3c 60
        E 120 80 3c 00
        E 120 90 39 60
        E 120 80 39 00
        E 360 90 39 60
        E 120 80 39 00
        E 120 90 3c 60
        E 120 80 3c 00
        E 120 90 3e 60
        E 120 80 3e 00
        E 120 90 40 60
        E 120 80 40 00
        E 120 90 3c 60
        E 1680 80 3c 00
        E 480 90 34 60
        E 1560 80 34 00
        E 120 90 37 60
        E 120 80 37 00
        E 360 90 34 60
        E 120 80 34 00
        E 360 90 3b 60
        E 120 80 3b 00
        E 360 90 3c 60
        E 120 80 3c 00
        E 360 90 39 60
        E 120 80 39 00
        E 360 90 39 60
        E 120 80 39 00
        E 120 90 3b 60
        E 120 80 3b 00
        E 120 90 39 60
        E 120 80 39 00
        E 120 90 3c 60
        E 120 80 3c 00
        E 120 90 3b 60
        E 120 80 3b 00
        E 120 90 39 60
        E 120 80 39 00
        E 120 90 34 60
        E 120 80 34 00
        E 360 90 39 60
        E 120 80 39 00
        E 120 90 3b 60
        E 120 80 3b 00
        E 120 90 39 60
        E 120 80 39 00
        E 120 90 3c 60
        E 120 80 3c 00
        E 120 90 39 60
        E 120 80 39 00
        E 120 90 3c 60
        E 120 80 3c 00
        E 120 90 3e 60
        E 120 80 3e 00
        E 1080 90 39 60
        E 600 80 39 00
        E 120 90 3c 60
        E 120 80 3c 00
        E 360 90 3e 60
        E 120 80 3e 00
        E 360 90 3b 60
        E 120 80 3b 00
        E 360 90 3c 60
        E 120 80 3c 00
        E 360 90 39 60
        E 120 80 39 00
        E 360 90 39 60
        E 120 80 39 00
        E 120 90 3b 60
        E 120 80 3b 00
        E 120 90 39 60
        E 120 80 39 00
        E 120 90 3e 60
        E 120 80 3e 00
        E 120 90 3c 60
        E 120 80 3c 00
        E 120 90 3b 60
        E 120 80 3b 00
        E 120 90 37 60
        E 120 80 37 00
        E 360 90 39 60
        E 120 80 39 00
        E 120 90 3b 60
        E 120 80 3b 00
        E 120 90 39 60
        E 120 80 39 00
        E 120 90 3c 60
        E 120 80 3c 00
        E 120 90 39 60
        E 120 80 39 00
        E 120 90 3c 60
        E 120 80 3c 00
        E 120 90 3e 60
        E 120 80 3e 00
        E 600 90 32 60
        E 120 80 32 00
        E 360 90 34 60
        E 120 80 34 00
        E 360 90 37 60
        E 120 80 37 00
        E 360 90 39 60
        E 120 80 39 00
        E 120 90 34 60
        E 120 80 34 00
        E 360 90 3b 60
        E 120 80 3b 00
        E 360 90 3c 60
        E 120 80 3c 00
        E 360 90 3e 60
        E 120 80 3e 00
        E 360 90 39 60
        E 120 80 39 00
        E 120 90 3b 60
        E 120 80 3b 00
        E 120 90 39 60
        E 120 80 39 00
        E 120 90 3c 60
        E 120 80 3c 00
        E 120 90 3b 60
        E 120 80 3b 00
        E 120 90 39 60
        E 120 80 39 00
        E 120 90 34 60
        E 120 80 34 00
        E 360 90 39 60
        E 120 80 39 00
        E 120 90 3b 60
        E 120 80 3b 00
        E 120 90 39 60
        E 120 80 39 00
        E 120 90 3c 60
        E 120 80 3c 00
        E 120 90 39 60
        E 120 80 39 00
        E 120 90 3b 60
        E 120 80 3b 00
        E 120 90 3c 60
        E 120 80 3c 00
        E 120 90 39 60
        E 120 80 39 00
        E 360 90 3b 60
        E 120 80 3b 00
        E 360 90 3c 60
        E 120 80 3c 00
        E 360 90 3b 60
        E 120 80 3b 00
        E 360 90 3c 60
        E 120 80 3c 00
        E 360 90 3e 60
        E 120 80 3e 00
        E 360 90 3c 60
        E 120 80 3c 00
        E 360 90 39 60
        E 120 80 39 00
        E 120 90 40 60
        E 120 80 40 00
        E 360 90 3c 60
        E 120 80 3c 00
        E 120 90 3e 60
        E 120 80 3e 00
        E 120 90 3c 60
        E 120 80 3c 00
        E 120 90 3e 60
        E 120 80 3e 00
        E 120 90 3c 60
        E 120 80 3c 00
        E 120 90 3e 60
        E 120 80 3e 00
        E 120 90 40 60
        E 120 80 40 00
        E 600 90 3c 60
        E 120 80 3c 00
        E 120 90 40 60
        E 120 80 40 00
        E 360 90 3e 60
        E 120 80 3e 00
        E 600 90 09 60
        E 0 90 3c 60
        E 120 80 09 00
        E 0 80 3c 00
        E 120 90 3e 60
        E 120 80 3e 00
        E 120 90 40 60
        E 120 80 40 00
        E 120 90 3e 60
        E 120 80 3e 00
        E 360 90 3c 60
        E 120 80 3c 00
        E 360 90 39 60
        E 120 80 39 00
        E 120 90 3c 60
        E 120 80 3c 00
        E 120 90 39 60
        E 120 80 39 00
        E 120 90 40 60
        E 120 80 40 00
        E 120 90 3e 60
        E 120 80 3e 00
        E 360 90 3c 60
        E 120 80 3c 00
        E 120 90 3e 60
        E 120 80 3e 00
        E 120 90 3c 60
        E 120 80 3c 00
        E 120 90 43 60
        E 120 80 43 00
        E 120 90 40 60
        E 120 80 40 00
        E 120 90 3e 60
        E 120 80 3e 00
        E 120 90 3c 60
        E 120 80 3c 00
        E 360 90 39 60
        E 120 80 39 00
        E 120 90 3c 60
        E 120 80 3c 00
        E 120 90 39 60
        E 120 80 39 00
        E 120 90 3c 60
        E 120 80 3c 00
        E 120 90 3e 60
        E 120 80 3e 00
        E 120 90 40 60
        E 120 80 40 00
        E 120 90 3e 60
        E 120 80 3e 00
        E 360 90 3c 60
        E 120 80 3c 00
        E 120 90 3e 60
        E 120 80 3e 00
        E 120 90 39 60
        E 120 80 39 00
        E 120 90 3c 60
        E 120 80 3c 00
        E 120 90 3e 60
        E 120 80 3e 00
        E 120 90 40 60
        E 120 80 40 00
        E 120 90 43 60
        E 120 80 43 00
        E 120 90 45 60
        E 120 80 45 00
        E 120 90 43 60
        E 120 80 43 00
        E 120 90 40 60
        E 120 80 40 00
        E 120 90 3e 60
        E 120 80 3e 00
        E 120 90 40 60
        E 120 80 40 00
        E 120 90 3e 60
        E 120 80 3e 00
        E 120 90 40 60
        E 120 80 40 00
        E 120 90 43 60
        E 120 80 43 00
        E 120 90 45 60
        E 120 80 45 00
        E 120 90 43 60
        E 120 80 43 00
        E 120 90 40 60
        E 120 80 40 00
        E 120 90 3e 60
        E 120 80 3e 00
        E 120 90 40 60
        E 120 80 40 00
        E 120 90 40 60
        E 120 80 40 00
        E 120 90 40 60
        E 120 80 40 00
        E 120 90 40 60
        E 120 80 40 00
        E 120 90 40 60
        E 120 80 40 00
        E 120 90 40 60
        E 120 80 40 00
        E 360 90 3e 60
        E 120 80 3e 00
        E 120 90 40 60
        E 120 80 40 00
        E 120 90 40 60
        E 120 80 40 00
        E 120 90 3e 60
        E 120 80 3e 00
        E 120 90 40 60
        E 120 80 40 00
        E 120 90 3e 60
        E 120 80 3e 00
        E 120 90 40 60
        E 120 80 40 00
        E 120 90 3e 60
        E 120 80 3e 00
        E 120 90 3e 60
        E 120 80 3e 00
        E 120 90 3c 60
        E 120 80 3c 00
        E 120 90 3e 60
        E 120 80 3e 00
        E 120 90 40 60
        E 120 80 40 00
        E 120 90 3e 60
        E 120 80 3e 00
        E 360 90 3c 60
        E 120 80 3c 00
        E 360 90 39 60
        E 120 80 39 00
        E 120 90 3c 60
        E 120 80 3c 00
        E 120 90 39 60
        E 120 80 39 00
        E 120 90 40 60
        E 120 80 40 00
        E 120 90 3e 60
        E 120 80 3e 00
        E 360 90 3c 60
        E 120 80 3c 00
        E 120 90 3e 60
        E 120 80 3e 00
        E 120 90 3c 60
        E 120 80 3c 00
        E 120 90 43 60
        E 120 80 43 00
        E 120 90 40 60
        E 120 80 40 00
        E 120 90 3e 60
        E 120 80 3e 00
        E 120 90 3c 60
        E 120 80 3c 00
        E 360 90 39 60
        E 120 80 39 00
        E 120 90 3c 60
        E 120 80 3c 00
        E 120 90 39 60
        E 120 80 39 00
        E 120 90 3c 60
        E 120 80 3c 00
        E 120 90 3e 60
        E 120 80 3e 00
        E 120 90 40 60
        E 120 80 40 00
        E 120 90 3e 60
        E 120 80 3e 00
        E 360 90 3c 60
        E 120 80 3c 00
        E 120 90 3e 60
        E 120 80 3e 00
        E 120 90 39 60
        E 120 80 39 00
        E 120 90 3c 60
        E 120 80 3c 00
        E 120 90 3e 60
        E 120 80 3e 00
        E 120 90 40 60
        E 120 80 40 00
        E 120 90 43 60
        E 120 80 43 00
        E 120 90 45 60
        E 120 80 45 00
        E 120 90 43 60
        E 120 80 43 00
        E 120 90 3c 60
        E 120 80 3c 00
        E 120 90 3e 60
        E 120 80 3e 00
        E 120 90 40 60
        E 120 80 40 00
        E 120 90 3e 60
        E 120 80 3e 00
        E 120 90 40 60
        E 120 80 40 00
        E 120 90 43 60
        E 120 80 43 00
        E 120 90 45 60
        E 120 80 45 00
        E 120 90 43 60
        E 120 80 43 00
        E 120 90 40 60
        E 120 80 40 00
        E 120 90 3e 60
        E 120 80 3e 00
        E 120 90 40 60
        E 120 80 40 00
        E 120 90 40 60
        E 120 80 40 00
        E 120 90 40 60
        E 120 80 40 00
        E 120 90 40 60
        E 120 80 40 00
        E 120 90 40 60
        E 120 80 40 00
        E 120 90 40 60
        E 120 80 40 00
        E 360 90 3e 60
        E 120 80 3e 00
        E 120 90 40 60
        E 120 80 40 00
        E 120 90 40 60
        E 120 80 40 00
        E 120 90 3e 60
        E 120 80 3e 00
        E 120 90 40 60
        E 120 80 40 00
        E 120 90 40 60
        E 120 80 40 00
        E 120 90 40 60
        E 120 80 40 00
        E 120 90 3e 60
        E 120 80 3e 00
        E 120 90 3b 60
        E 120 80 3b 00
        E 120 90 00 60
        E 120 80 00 00
        E 840 90 32 60
        E 120 80 32 00
        E 120 90 30 60
        E 120 80 30 00
        E 120 90 32 60
        E 120 80 32 00
        E 120 90 34 60
        E 120 80 34 00
        E 360 90 32 60
        E 120 80 32 00
        E 120 90 34 60
        E 120 80 34 00
        E 120 90 32 60
        E 120 80 32 00
        E 120 90 37 60
        E 120 80 37 00
        E 120 90 34 60
        E 120 80 34 00
        E 120 90 32 60
        E 120 80 32 00
        E 120 90 30 60
        E 120 80 30 00
        E 360 90 30 60
        E 120 80 30 00
        E 120 90 32 60
        E 120 80 32 00
        E 120 90 30 60
        E 120 80 30 00
        E 120 90 32 60
        E 120 80 32 00
        E 120 90 30 60
        E 120 80 30 00
        E 120 90 32 60
        E 120 80 32 00
        E 120 90 34 60
        E 120 80 34 00
        E 360 90 37 60
        E 120 80 37 00
        E 360 90 34 60
        E 120 80 34 00
        E 360 90 32 60
        E 120 80 32 00
        E 1560 90 32 60
        E 120 80 32 00
        E 120 90 30 60
        E 120 80 30 00
        E 120 90 32 60
        E 120 80 32 00
        E 120 90 34 60
        E 120 80 34 00
        E 360 90 32 60
        E 120 80 32 00
        E 120 90 34 60
        E 120 80 34 00
        E 120 90 32 60
        E 120 80 32 00
        E 120 90 37 60
        E 120 80 37 00
        E 120 90 34 60
        E 120 80 34 00
        E 120 90 37 60
        E 120 80 37 00
        E 120 90 39 60
        E 120 80 39 00
        E 360 90 30 60
        E 120 80 30 00
        E 120 90 32 60
        E 120 80 32 00
        E 120 90 30 60
        E 120 80 30 00
        E 120 90 32 60
        E 120 80 32 00
        E 120 90 30 60
        E 120 80 30 00
        E 120 90 32 60
        E 120 80 32 00
        E 120 90 34 60
        E 120 80 34 00
        E 360 90 37 60
        E 120 80 37 00
        E 360 90 34 60
        E 120 80 34 00
        E 360 90 32 60
        E 120 80 32 00
        E 1560 90 32 60
        E 120 80 32 00
        E 120 90 30 60
        E 120 80 30 00
        E 120 90 32 60
        E 120 80 32 00
        E 120 90 34 60
        E 120 80 34 00
        E 360 90 32 60
        E 120 80 32 00
        E 120 90 34 60
        E 120 80 34 00
        E 120 90 32 60
        E 120 80 32 00
        E 120 90 37 60
        E 120 80 37 00
        E 120 90 34 60
        E 120 80 34 00
        E 120 90 32 60
        E 120 80 32 00
        E 120 90 30 60
        E 120 80 30 00
        E 360 90 30 60
        E 120 80 30 00
        E 120 90 32 60
        E 120 80 32 00
        E 120 90 30 60
        E 120 80 30 00
        E 120 90 32 60
        E 120 80 32 00
        E 120 90 30 60
        E 120 80 30 00
        E 120 90 32 60
        E 120 80 32 00
        E 120 90 34 60
        E 120 80 34 00
        E 360 90 37 60
        E 120 80 37 00
        E 360 90 34 60
        E 120 80 34 00
        E 360 90 32 60
        E 120 80 32 00
        E 1560 90 32 60
        E 120 80 32 00
        E 120 90 30 60
        E 120 80 30 00
        E 120 90 32 60
        E 120 80 32 00
        E 120 90 34 60
        E 120 80 34 00
        E 360 90 32 60
        E 120 80 32 00
        E 120 90 34 60
        E 120 80 34 00
        E 120 90 32 60
        E 120 80 32 00
        E 120 90 37 60
        E 120 80 37 00
        E 120 90 34 60
        E 120 80 34 00
        E 120 90 37 60
        E 120 80 37 00
        E 120 90 39 60
        E 120 80 39 00
        E 360 90 30 60
        E 120 80 30 00
        E 120 90 32 60
        E 120 80 32 00
        E 120 90 30 60
        E 120 80 30 00
        E 120 90 32 60
        E 120 80 32 00
        E 120 90 30 60
        E 120 80 30 00
        E 120 90 32 60
        E 120 80 32 00
        E 120 90 34 60
        E 120 80 34 00
        E 360 90 37 60
        E 120 80 37 00
        E 360 90 34 60
        E 120 80 34 00
        E 360 90 32 60
        E 120 80 32 00
        E 600 90 09 60
        E 0 90 3c 60
        E 120 80 09 00
        E 0 80 3c 00
        E 120 90 3e 60
        E 120 80 3e 00
        E 120 90 40 60
        E 120 80 40 00
        E 120 90 3e 60
        E 120 80 3e 00
        E 360 90 3c 60
        E 120 80 3c 00
        E 360 90 39 60
        E 120 80 39 00
        E 120 90 3c 60
        E 120 80 3c 00
        E 120 90 39 60
        E 120 80 39 00
        E 120 90 40 60
        E 120 80 40 00
        E 120 90 3e 60
        E 120 80 3e 00
        E 360 90 3c 60
        E 120 80 3c 00
        E 120 90 3e 60
        E 120 80 3e 00
        E 120 90 3c 60
        E 120 80 3c 00
        E 120 90 43 60
        E 120 80 43 00
        E 120 90 40 60
        E 120 80 40 00
        E 120 90 3e 60
        E 120 80 3e 00
        E 120 90 3c 60
        E 120 80 3c 00
        E 360 90 39 60
        E 120 80 39 00
        E 120 90 3c 60
        E 120 80 3c 00
        E 120 90 39 60
        E 120 80 39 00
        E 120 90 3c 60
        E 120 80 3c 00
        E 120 90 3e 60
        E 120 80 3e 00
        E 120 90 40 60
        E 120 80 40 00
        E 120 90 3e 60
        E 120 80 3e 00
        E 360 90 3c 60
        E 120 80 3c 00
        E 120 90 3e 60
        E 120 80 3e 00
        E 120 90 39 60
        E 120 80 39 00
        E 120 90 3c 60
        E 120 80 3c 00
        E 120 90 3e 60
        E 120 80 3e 00
        E 120 90 40 60
        E 120 80 40 00
        E 120 90 43 60
        E 120 80 43 00
        E 120 90 45 60
        E 120 80 45 00
        E 120 90 43 60
        E 120 80 43 00
        E 120 90 40 60
        E 120 80 40 00
        E 120 90 3e 60
        E 120 80 3e 00
        E 120 90 40 60
        E 120 80 40 00
        E 120 90 3e 60
        E 120 80 3e 00
        E 120 90 40 60
        E 120 80 40 00
        E 120 90 43 60
        E 120 80 43 00
        E 120 90 45 60
        E 120 80 45 00
        E 120 90 43 60
        E 120 80 43 00
        E 120 90 40 60
        E 120 80 40 00
        E 120 90 3e 60
        E 120 80 3e 00
        E 120 90 40 60
        E 120 80 40 00
        E 120 90 40 60
        E 120 80 40 00
        E 120 90 40 60
        E 120 80 40 00
        E 120 90 40 60
        E 120 80 40 00
        E 120 90 40 60
        E 120 80 40 00
        E 120 90 40 60
        E 120 80 40 00
        E 360 90 3e 60
        E 120 80 3e 00
        E 120 90 40 60
        E 120 80 40 00
        E 120 90 40 60
        E 120 80 40 00
        E 120 90 3e 60
        E 120 80 3e 00
        E 120 90 40 60
        E 120 80 40 00
        E 120 90 3e 60
        E 120 80 3e 00
        E 120 90 40 60
        E 120 80 40 00
        E 120 90 3e 60
        E 120 80 3e 00
        E 120 90 3e 60
        E 120 80 3e 00
        E 120 90 3c 60
        E 120 80 3c 00
        E 120 90 3e 60
        E 120 80 3e 00
        E 120 90 40 60
        E 120 80 40 00
        E 120 90 3e 60
        E 120 80 3e 00
        E 360 90 3c 60
        E 120 80 3c 00
        E 360 90 39 60
        E 120 80 39 00
        E 120 90 3c 60
        E 120 80 3c 00
        E 120 90 39 60
        E 120 80 39 00
        E 120 90 40 60
        E 120 80 40 00
        E 120 90 3e 60
        E 120 80 3e 00
        E 360 90 3c 60
        E 120 80 3c 00
        E 120 90 3e 60
        E 120 80 3e 00
        E 120 90 3c 60
        E 120 80 3c 00
        E 120 90 43 60
        E 120 80 43 00
        E 120 90 40 60
        E 120 80 40 00
        E 120 90 3e 60
        E 120 80 3e 00
        E 120 90 3c 60
        E 120 80 3c 00
        E 360 90 39 60
        E 120 80 39 00
        E 120 90 3c 60
        E 120 80 3c 00
        E 120 90 39 60
        E 120 80 39 00
        E 120 90 3c 60
        E 120 80 3c 00
        E 120 90 3e 60
        E 120 80 3e 00
        E 120 90 40 60
        E 120 80 40 00
        E 120 90 3e 60
        E 120 80 3e 00
        E 360 90 3c 60
        E 120 80 3c 00
        E 120 90 3e 60
        E 120 80 3e 00
        E 120 90 39 60
        E 120 80 39 00
        E 120 90 3c 60
        E 120 80 3c 00
        E 120 90 3e 60
        E 120 80 3e 00
        E 120 90 40 60
        E 120 80 40 00
        E 120 90 43 60
        E 120 80 43 00
        E 120 90 45 60
        E 120 80 45 00
        E 120 90 43 60
        E 120 80 43 00
        E 120 90 3c 60
        E 120 80 3c 00
        E 120 90 3e 60
        E 120 80 3e 00
        E 120 90 40 60
        E 120 80 40 00
        E 120 90 3e 60
        E 120 80 3e 00
        E 120 90 40 60
        E 120 80 40 00
        E 120 90 43 60
        E 120 80 43 00
        E 120 90 45 60
        E 120 80 45 00
        E 120 90 43 60
        E 120 80 43 00
        E 120 90 40 60
        E 120 80 40 00
        E 120 90 3e 60
        E 120 80 3e 00
        E 120 90 40 60
        E 120 80 40 00
        E 120 90 40 60
        E 120 80 40 00
        E 120 90 40 60
        E 120 80 40 00
        E 120 90 40 60
        E 120 80 40 00
        E 120 90 40 60
        E 120 80 40 00
        E 120 90 40 60
        E 120 80 40 00
        E 360 90 3e 60
        E 120 80 3e 00
        E 120 90 40 60
        E 120 80 40 00
        E 120 90 40 60
        E 120 80 40 00
        E 120 90 3e 60
        E 120 80 3e 00
        E 120 90 40 60
        E 120 80 40 00
        E 120 90 40 60
        E 120 80 40 00
        E 120 90 40 60
        E 120 80 40 00
        E 120 90 3e 60
        E 120 80 3e 00
        E 120 90 3b 60
        E 120 80 3b 00
        E 120 90 3c 60
        E 120 80 3c 00
        E 120 90 3e 60
        E 120 80 3e 00
        E 120 90 40 60
        E 120 80 40 00
        E 120 90 3e 60
        E 120 80 3e 00
        E 360 90 3c 60
        E 120 80 3c 00
        E 360 90 39 60
        E 120 80 39 00
        E 120 90 3c 60
        E 120 80 3c 00
        E 120 90 39 60
        E 120 80 39 00
        E 120 90 40 60
        E 120 80 40 00
        E 120 90 3e 60
        E 120 80 3e 00
        E 360 90 3c 60
        E 120 80 3c 00
        E 120 90 3e 60
        E 120 80 3e 00
        E 120 90 3c 60
        E 120 80 3c 00
        E 120 90 43 60
        E 120 80 43 00
        E 120 90 40 60
        E 120 80 40 00
        E 120 90 3e 60
        E 120 80 3e 00
        E 120 90 3c 60
        E 120 80 3c 00
        E 360 90 39 60
        E 120 80 39 00
        E 120 90 3c 60
        E 120 80 3c 00
        E 120 90 39 60
        E 120 80 39 00
        E 120 90 3c 60
        E 120 80 3c 00
        E 120 90 3e 60
        E 120 80 3e 00
        E 120 90 40 60
        E 120 80 40 00
        E 120 90 3e 60
        E 120 80 3e 00
        E 360 90 3c 60
        E 120 80 3c 00
        E 120 90 3e 60
        E 120 80 3e 00
        E 120 90 39 60
        E 120 80 39 00
        E 120 90 3c 60
        E 120 80 3c 00
        E 120 90 3e 60
        E 120 80 3e 00
        E 120 90 40 60
        E 120 80 40 00
        E 120 90 43 60
        E 120 80 43 00
        E 120 90 45 60
        E 120 80 45 00
        E 120 90 43 60
        E 120 80 43 00
        E 120 90 40 60
        E 120 80 40 00
        E 120 90 3e 60
        E 120 80 3e 00
        E 120 90 40 60
        E 120 80 40 00
        E 120 90 3e 60
        E 120 80 3e 00
        E 120 90 40 60
        E 120 80 40 00
        E 120 90 43 60
        E 120 80 43 00
        E 120 90 45 60
        E 120 80 45 00
        E 120 90 43 60
        E 120 80 43 00
        E 120 90 40 60
        E 120 80 40 00
        E 120 90 3e 60
        E 120 80 3e 00
        E 120 90 40 60
        E 120 80 40 00
        E 120 90 40 60
        E 120 80 40 00
        E 120 90 40 60
        E 120 80 40 00
        E 120 90 40 60
        E 120 80 40 00
        E 120 90 40 60
        E 120 80 40 00
        E 120 90 40 60
        E 120 80 40 00
        E 360 90 3e 60
        E 120 80 3e 00
        E 120 90 40 60
        E 120 80 40 00
        E 120 90 40 60
        E 120 80 40 00
        E 120 90 3e 60
        E 120 80 3e 00
        E 120 90 40 60
        E 120 80 40 00
        E 120 90 3e 60
        E 120 80 3e 00
        E 120 90 40 60
        E 120 80 40 00
        E 120 90 3e 60
        E 120 80 3e 00
        E 120 90 3e 60
        E 120 80 3e 00
        E 120 90 3c 60
        E 120 80 3c 00
        E 120 90 3e 60
        E 120 80 3e 00
        E 120 90 40 60
        E 120 80 40 00
        E 120 90 3e 60
        E 120 80 3e 00
        E 360 90 3c 60
        E 120 80 3c 00
        E 360 90 39 60
        E 120 80 39 00
        E 120 90 3c 60
        E 120 80 3c 00
        E 120 90 39 60
        E 120 80 39 00
        E 120 90 40 60
        E 120 80 40 00
        E 120 90 3e 60
        E 120 80 3e 00
        E 360 90 3c 60
        E 120 80 3c 00
        E 120 90 3e 60
        E 120 80 3e 00
        E 120 90 3c 60
        E 120 80 3c 00
        E 120 90 43 60
        E 120 80 43 00
        E 120 90 40 60
        E 120 80 40 00
        E 120 90 3e 60
        E 120 80 3e 00
        E 120 90 3c 60
        E 120 80 3c 00
        E 360 90 39 60
        E 120 80 39 00
        E 120 90 3c 60
        E 120 80 3c 00
        E 120 90 39 60
        E 120 80 39 00
        E 120 90 3c 60
        E 120 80 3c 00
        E 120 90 3e 60
        E 120 80 3e 00
        E 120 90 40 60
        E 120 80 40 00
        E 120 90 3e 60
        E 120 80 3e 00
        E 360 90 3c 60
        E 120 80 3c 00
        E 120 90 3e 60
        E 120 80 3e 00
        E 120 90 39 60
        E 120 80 39 00
        E 120 90 3c 60
        E 120 80 3c 00
        E 120 90 3e 60
        E 120 80 3e 00
        E 120 90 40 60
        E 120 80 40 00
        E 120 90 43 60
        E 120 80 43 00
        E 120 90 45 60
        E 120 80 45 00
        E 120 90 43 60
        E 120 80 43 00
        E 120 90 3c 60
        E 120 80 3c 00
        E 120 90 3e 60
        E 120 80 3e 00
        E 120 90 40 60
        E 120 80 40 00
        E 120 90 3e 60
        E 120 80 3e 00
        E 120 90 40 60
        E 120 80 40 00
        E 120 90 43 60
        E 120 80 43 00
        E 120 90 45 60
        E 120 80 45 00
        E 120 90 43 60
        E 120 80 43 00
        E 120 90 40 60
        E 120 80 40 00
        E 120 90 3e 60
        E 120 80 3e 00
        E 120 90 40 60
        E 120 80 40 00
        E 120 90 40 60
        E 120 80 40 00
        E 120 90 40 60
        E 120 80 40 00
        E 120 90 40 60
        E 120 80 40 00
        E 120 90 40 60
        E 120 80 40 00
        E 120 90 40 60
        E 120 80 40 00
        E 360 90 3e 60
        E 120 80 3e 00
        E 120 90 40 60
        E 120 80 40 00
        E 120 90 40 60
        E 120 80 40 00
        E 120 90 3e 60
        E 120 80 3e 00
        E 120 90 40 60
        E 120 80 40 00
        E 120 90 40 60
        E 120 80 40 00
        E 120 90 40 60
        E 120 80 40 00
        E 120 90 3e 60
        E 120 80 3e 00
        E 120 90 3b 60
        E 120 80 3b 00
        E 120 90 3c 60
        E 120 80 3c 00
        E 120 90 3e 60
        E 120 80 3e 00
        E 120 90 40 60
        E 120 80 40 00
        E 120 90 3e 60
        E 120 80 3e 00
        E 360 90 3c 60
        E 120 80 3c 00
        E 360 90 39 60
        E 120 80 39 00
        E 120 90 3c 60
        E 120 80 3c 00
        E 120 90 39 60
        E 120 80 39 00
        E 120 90 40 60
        E 120 80 40 00
        E 120 90 3e 60
        E 120 80 3e 00
        E 360 90 3c 60
        E 120 80 3c 00
        E 120 90 3e 60
        E 120 80 3e 00
        E 120 90 3c 60
        E 120 80 3c 00
        E 120 90 43 60
        E 120 80 43 00
        E 120 90 40 60
        E 120 80 40 00
        E 120 90 3e 60
        E 120 80 3e 00
        E 120 90 3c 60
        E 120 80 3c 00
        E 360 90 39 60
        E 120 80 39 00
        E 120 90 3c 60
        E 120 80 3c 00
        E 120 90 39 60
        E 120 80 39 00
        E 120 90 3c 60
        E 120 80 3c 00
        E 120 90 3e 60
        E 120 80 3e 00
        E 120 90 40 60
        E 120 80 40 00
        E 120 90 3e 60
        E 120 80 3e 00
        E 360 90 3c 60
        E 120 80 3c 00
        E 120 90 3e 60
        E 120 80 3e 00
        E 120 90 39 60
        E 120 80 39 00
        E 120 90 3c 60
        E 120 80 3c 00
        E 120 90 3e 60
        E 120 80 3e 00
        E 120 90 40 60
        E 120 80 40 00
        E 120 90 43 60
        E 120 80 43 00
        E 120 90 45 60
        E 120 80 45 00
        E 120 90 43 60
        E 120 80 43 00
        E 120 90 40 60
        E 120 80 40 00
        E 120 90 3e 60
        E 120 80 3e 00
        E 120 90 40 60
        E 120 80 40 00
        E 120 90 3e 60
        E 120 80 3e 00
        E 120 90 40 60
        E 120 80 40 00
        E 120 90 43 60
        E 120 80 43 00
        E 120 90 45 60
        E 120 80 45 00
        E 120 90 43 60
        E 120 80 43 00
        E 120 90 40 60
        E 120 80 40 00
        E 120 90 3e 60
        E 120 80 3e 00
        E 120 90 40 60
        E 120 80 40 00
        E 120 90 40 60
        E 120 80 40 00
        E 120 90 40 60
        E 120 80 40 00
        E 120 90 40 60
        E 120 80 40 00
        E 120 90 40 60
        E 120 80 40 00
        E 120 90 40 60
        E 120 80 40 00
        E 360 90 3e 60
        E 120 80 3e 00
        E 120 90 3e 60
        E 120 80 3e 00
        E 120 90 3e 60
        E 120 80 3e 00
        E 120 90 3e 60
        E 120 80 3e 00
        E 120 90 3e 60
        E 120 80 3e 00
        E 120 90 3e 60
        E 120 80 3e 00
        E 120 90 3e 60
        E 120 80 3e 00
        E 120 90 3e 60
        E 120 80 3e 00
        E 120 90 3e 60
        E 120 80 3e 00
        E 120 90 3c 60
        E 120 80 3c 00
        E 120 90 3e 60
        E 120 80 3e 00
        E 120 90 40 60
        E 120 80 40 00
        E 120 90 3e 60
        E 120 80 3e 00
        E 360 90 3c 60
        E 120 80 3c 00
        E 360 90 39 60
        E 120 80 39 00
        E 120 90 3c 60
        E 120 80 3c 00
        E 120 90 39 60
        E 120 80 39 00
        E 120 90 40 60
        E 120 80 40 00
        E 120 90 3e 60
        E 120 80 3e 00
        E 360 90 3c 60
        E 120 80 3c 00
        E 120 90 3e 60
        E 120 80 3e 00
        E 120 90 3c 60
        E 120 80 3c 00
        E 120 90 43 60
        E 120 80 43 00
        E 120 90 40 60
        E 120 80 40 00
        E 120 90 3e 60
        E 120 80 3e 00
        E 120 90 3c 60
        E 120 80 3c 00
        E 360 90 39 60
        E 120 80 39 00
        E 120 90 3c 60
        E 120 80 3c 00
        E 120 90 39 60
        E 120 80 39 00
        E 120 90 3c 60
        E 120 80 3c 00
        E 120 90 3e 60
        E 120 80 3e 00
        E 120 90 40 60
        E 120 80 40 00
        E 120 90 3e 60
        E 120 80 3e 00
        E 360 90 3c 60
        E 120 80 3c 00
        E 120 90 3e 60
        E 120 80 3e 00
        E 120 90 39 60
        E 120 80 39 00
        E 120 90 3c 60
        E 120 80 3c 00
        E 120 90 3e 60
        E 120 80 3e 00
        E 120 90 40 60
        E 120 80 40 00
        E 120 90 43 60
        E 120 80 43 00
        E 120 90 45 60
        E 120 80 45 00
        E 120 90 43 60
        E 120 80 43 00
        E 120 90 3c 60
        E 120 80 3c 00
        E 120 90 3e 60
        E 120 80 3e 00
        E 120 90 40 60
        E 120 80 40 00
        E 120 90 3e 60
        E 120 80 3e 00
        E 120 90 40 60
        E 120 80 40 00
        E 120 90 43 60
        E 120 80 43 00
        E 120 90 45 60
        E 120 80 45 00
        E 120 90 43 60
        E 120 80 43 00
        E 120 90 40 60
        E 120 80 40 00
        E 120 90 3e 60
        E 120 80 3e 00
        E 120 90 00 60
        E 0 90 40 60
        E 120 80 00 00
        E 0 80 40 00
        E 120 90 40 60
        E 120 80 40 00
        E 120 90 40 60
        E 120 80 40 00
        E 120 90 40 60
        E 120 80 40 00
        E 120 90 40 60
        E 120 80 40 00
        E 120 90 40 60
        E 120 80 40 00
        E 360 90 3e 60
        E 120 80 3e 00
        E 120 90 3e 60
        E 120 80 3e 00
        E 120 90 3e 60
        E 120 80 3e 00
        E 120 90 3e 60
        E 120 80 3e 00
        E 120 90 40 60
        E 120 80 40 00
        E 120 90 40 60
        E 120 80 40 00
        E 120 90 40 60
        E 120 80 40 00
        E 120 90 3e 60
        E 120 80 3e 00
        E 120 90 3b 60
        E 120 80 3b 00
        E 1080 90 32 60
        E 120 80 32 00
        E 120 90 30 60
        E 120 80 30 00
        E 120 90 32 60
        E 120 80 32 00
        E 120 90 34 60
        E 120 80 34 00
        E 360 90 32 60
        E 120 80 32 00
        E 120 90 34 60
        E 120 80 34 00
        E 120 90 32 60
        E 120 80 32 00
        E 120 90 37 60
        E 120 80 37 00
        E 120 90 34 60
        E 120 80 34 00
        E 120 90 32 60
        E 120 80 32 00
        E 120 90 30 60
        E 120 80 30 00
        E 360 90 30 60
        E 120 80 30 00
        E 120 90 32 60
        E 120 80 32 00
        E 120 90 30 60
        E 120 80 30 00
        E 120 90 32 60
        E 120 80 32 00
        E 120 90 30 60
        E 120 80 30 00
        E 120 90 32 60
        E 120 80 32 00
        E 120 90 34 60
        E 120 80 34 00
        E 360 90 37 60
        E 120 80 37 00
        E 360 90 34 60
        E 120 80 34 00
        E 360 90 32 60
        E 120 80 32 00
        E 1560 90 32 60
        E 120 80 32 00
        E 120 90 30 60
        E 120 80 30 00
        E 120 90 32 60
        E 120 80 32 00
        E 120 90 34 60
        E 120 80 34 00
        E 360 90 32 60
        E 120 80 32 00
        E 120 90 34 60
        E 120 80 34 00
        E 120 90 32 60
        E 120 80 32 00
        E 120 90 37 60
        E 120 80 37 00
        E 120 90 34 60
        E 120 80 34 00
        E 120 90 37 60
        E 120 80 37 00
        E 120 90 39 60
        E 120 80 39 00
        E 360 90 30 60
        E 120 80 30 00
        E 120 90 32 60
        E 120 80 32 00
        E 120 90 30 60
        E 120 80 30 00
        E 120 90 32 60
        E 120 80 32 00
        E 120 90 30 60
        E 120 80 30 00
        E 120 90 32 60
        E 120 80 32 00
        E 120 90 34 60
        E 120 80 34 00
        E 360 90 37 60
        E 120 80 37 00
        E 360 90 34 60
        E 120 80 34 00
        E 360 90 32 60
        E 120 80 32 00
        E 1560 90 32 60
        E 120 80 32 00
        E 120 90 30 60
        E 120 80 30 00
        E 120 90 32 60
        E 120 80 32 00
        E 120 90 34 60
        E 120 80 34 00
        E 360 90 32 60
        E 120 80 32 00
        E 120 90 34 60
        E 120 80 34 00
        E 120 90 32 60
        E 120 80 32 00
        E 120 90 37 60
        E 120 80 37 00
        E 120 90 34 60
        E 120 80 34 00
        E 120 90 32 60
        E 120 80 32 00
        E 120 90 30 60
        E 120 80 30 00
        E 360 90 30 60
        E 120 80 30 00
        E 120 90 32 60
        E 120 80 32 00
        E 120 90 30 60
        E 120 80 30 00
        E 120 90 32 60
        E 120 80 32 00
        E 120 90 30 60
        E 120 80 30 00
        E 120 90 32 60
        E 120 80 32 00
        E 120 90 34 60
        E 120 80 34 00
        E 360 90 37 60
        E 120 80 37 00
        E 360 90 34 60
        E 120 80 34 00
        E 360 90 32 60
        E 120 80 32 00
        E 1560 90 32 60
        E 120 80 32 00
        E 120 90 30 60
        E 120 80 30 00
        E 120 90 32 60
        E 120 80 32 00
        E 120 90 34 60
        E 120 80 34 00
        E 360 90 32 60
        E 120 80 32 00
        E 120 90 34 60
        E 120 80 34 00
        E 120 90 32 60
        E 120 80 32 00
        E 120 90 37 60
        E 120 80 37 00
        E 120 90 34 60
        E 120 80 34 00
        E 120 90 37 60
        E 120 80 37 00
        E 120 90 39 60
        E 120 80 39 00
        E 360 90 30 60
        E 120 80 30 00
        E 120 90 32 60
        E 120 80 32 00
        E 120 90 30 60
        E 120 80 30 00
        E 120 90 32 60
        E 120 80 32 00
        E 120 90 30 60
        E 120 80 30 00
        E 120 90 32 60
        E 120 80 32 00
        E 120 90 34 60
        E 120 80 34 00
        E 360 90 37 60
        E 120 80 37 00
        E 360 90 34 60
        E 120 80 34 00
        E 360 90 32 60
        E 120 80 32 00
        E 14039 b0 7b 00
        GUID {E34477F7-ACFE-4692-9DB0-977EA2E7A1E6}
        IGNTEMPO 0 120.00000000 4 4
        SRCCOLOR 10
        VELLANE 132 71 60
        COLORMAP "C:\Program Files\REAPER (x64)\Data\color_maps\rockband_guitarbass.png"
        CFGEDITVIEW 0.000000 2.853967 3 12 0 0 0
        CFGEDIT 1 1 0 1 1 0 1 1 1 1 1 0.25000000 100 100 1200 800 0 2 2 1 0.00000000 0 1 0 0 0.500000 0 0 1.000000 64
        KEYSNAP 0 6 "102030050700" 0 "Pentatonic"
        EVTFILTER 0 -1 -1 -1 -1 0 1 0 0 -1.00000000 -1.00000000
      >
    >
  >
  <TRACK '{9EBF7A8F-2F8C-46D0-BFEE-C69EEA968709}'
    NAME "PART REAL_KEYS_M"
    PEAKCOL 16576
    BEAT -1
    AUTOMODE 0
    VOLPAN 1.00000000000000 0.00000000000000 -1.00000000000000 -1.00000000000000 1.00000000000000
    MUTESOLO 0 0 0
    IPHASE 0
    ISBUS 0 0
    BUSCOMP 0 0
    SHOWINMIX 1 0.666700 0.500000 1 0.500000 -1 -1 -1
    FREEMODE 0
    SEL 0
    REC 0 0 0 0 0 0 0
    VU 2
    TRACKHEIGHT 0 0
    INQ 0 0 0 0.5000000000 100 0 0 100
    NCHAN 2
    FX 1
    TRACKID {9EBF7A8F-2F8C-46D0-BFEE-C69EEA968709}
    PERF 0
    MIDIOUT -1
    <MIDINOTENAMES
      0 72 "Highest playable note B#3"
      0 71 "B3"
      0 70 "A#3"
      0 69 "A3"
      0 68 "G#3"
      0 67 "G3"
      0 66 "F#3"
      0 65 "F3"
      0 64 "E3"
      0 63 "D#3"
      0 62 "D3"
      0 61 "C#3"
      0 60 "C3"
      0 59 "B2"
      0 58 "A#2"
      0 57 "A2"
      0 56 "G#2"
      0 55 "G2"
      0 54 "F#2"
      0 53 "F2"
      0 52 "E2"
      0 51 "D#2"
      0 50 "D2"
      0 49 "C#2"
      0 48 "Lowest playable note C2"
      0 10 "---"
      0 9 "Range A2-C4"
      0 8 "Range"
      0 7 "Range"
      0 6 "Range"
      0 5 "Range F2-A3"
      0 4 "Range"
      0 3 "Range"
      0 2 "Range"
      0 1 "Range"
      0 0 "Range C2-E3"
    >
    MAINSEND 1 0
    <FXCHAIN
      SHOW 0
      LASTSEL 0
      DOCKED 0
    >
    <ITEM
      POSITION 0.00000000000000
      SNAPOFFS 0.00000000000000
      LENGTH 249.33300000000000
      LOOP 0
      ALLTAKES 0
      SEL 0
      FADEIN 1 0.000000 0.000000 1 0
      FADEOUT 1 0.000000 0.000000 1 0
      MUTE 0
      IGUID {825547B7-0C4D-44BE-8098-A72A3EEDD342}
      IID 9
      NAME "PART REAL_KEYS_M"
      VOLPAN 1.000000 0.000000 1.000000 -1.000000
      SOFFS 0.00000000000000 0.00000000000000
      PLAYRATE 1.00000000000000 1 0.00000000000000 -1
      CHANMODE 0
      GUID {A48E811A-F9C9-46FC-8823-6BD90ABB1344}
      <SOURCE MIDI
        HASDATA 1 480 QN
        POOLEDEVTS {60421154-040B-46A9-90B2-7A61BFDC2EFD}
        <X 0 0
          /wNQQVJUIFJFQUxfS0VZU19N
        >
        E 0 90 00 60
        E 120 80 00 00
        E 8520 90 32 60
        E 120 80 32 00
        E 360 90 32 60
        E 120 80 32 00
        E 840 90 34 60
        E 120 80 34 00
        E 360 90 37 60
        E 120 80 37 00
        E 360 90 32 60
        E 120 80 32 00
        E 840 90 32 60
        E 120 80 32 00
        E 360 90 32 60
        E 120 80 32 00
        E 360 90 32 60
        E 120 80 32 00
        E 600 90 37 60
        E 120 80 37 00
        E 360 90 34 60
        E 120 80 34 00
        E 360 90 32 60
        E 120 80 32 00
        E 1560 90 32 60
        E 120 80 32 00
        E 360 90 32 60
        E 120 80 32 00
        E 840 90 34 60
        E 120 80 34 00
        E 360 90 37 60
        E 120 80 37 00
        E 360 90 37 60
        E 120 80 37 00
        E 840 90 32 60
        E 120 80 32 00
        E 360 90 32 60
        E 120 80 32 00
        E 360 90 32 60
        E 120 80 32 00
        E 600 90 37 60
        E 120 80 37 00
        E 360 90 34 60
        E 120 80 34 00
        E 360 90 32 60
        E 120 80 32 00
        E 600 90 34 60
        E 120 80 34 00
        E 360 90 37 60
        E 120 80 37 00
        E 360 90 34 60
        E 120 80 34 00
        E 360 90 37 60
        E 120 80 37 00
        E 360 90 34 60
        E 120 80 34 00
        E 360 90 37 60
        E 120 80 37 00
        E 600 90 32 60
        E 120 80 32 00
        E 600 90 30 60
        E 120 80 30 00
        E 360 90 34 60
        E 120 80 34 00
        E 840 90 37 60
        E 120 80 37 00
        E 360 90 32 60
        E 120 80 32 00
        E 360 90 37 60
        E 120 80 37 00
        E 840 90 30 60
        E 120 80 30 00
        E 360 90 30 60
        E 120 80 30 00
        E 360 90 34 60
        E 120 80 34 00
        E 360 90 34 60
        E 120 80 34 00
        E 360 90 39 60
        E 120 80 39 00
        E 600 90 39 60
        E 120 80 39 00
        E 360 90 3c 60
        E 120 80 3c 00
        E 600 90 3b 60
        E 120 80 3b 00
        E 360 90 3c 60
        E 120 80 3c 00
        E 840 90 3c 60
        E 120 80 3c 00
        E 360 90 40 60
        E 120 80 40 00
        E 2280 90 34 60
        E 120 80 34 00
        E 360 90 37 60
        E 120 80 37 00
        E 360 90 34 60
        E 120 80 34 00
        E 360 90 37 60
        E 120 80 37 00
        E 360 90 34 60
        E 120 80 34 00
        E 360 90 37 60
        E 120 80 37 00
        E 600 90 32 60
        E 120 80 32 00
        E 600 90 30 60
        E 120 80 30 00
        E 360 90 34 60
        E 120 80 34 00
        E 840 90 37 60
        E 120 80 37 00
        E 360 90 32 60
        E 120 80 32 00
        E 360 90 37 60
        E 120 80 37 00
        E 840 90 30 60
        E 120 80 30 00
        E 360 90 30 60
        E 120 80 30 00
        E 360 90 34 60
        E 120 80 34 00
        E 360 90 34 60
        E 120 80 34 00
        E 360 90 39 60
        E 120 80 39 00
        E 600 90 39 60
        E 120 80 39 00
        E 360 90 3c 60
        E 120 80 3c 00
        E 600 90 3b 60
        E 120 80 3b 00
        E 360 90 3c 60
        E 120 80 3c 00
        E 840 90 3c 60
        E 120 80 3c 00
        E 360 90 40 60
        E 120 80 40 00
        E 2280 90 34 60
        E 1560 80 34 00
        E 120 90 37 60
        E 120 80 37 00
        E 360 90 34 60
        E 120 80 34 00
        E 360 90 3b 60
        E 120 80 3b 00
        E 360 90 3c 60
        E 120 80 3c 00
        E 360 90 39 60
        E 120 80 39 00
        E 600 90 3b 60
        E 120 80 3b 00
        E 360 90 3c 60
        E 120 80 3c 00
        E 360 90 39 60
        E 120 80 39 00
        E 840 90 3b 60
        E 120 80 3b 00
        E 360 90 3c 60
        E 120 80 3c 00
        E 360 90 3c 60
        E 120 80 3c 00
        E 1320 90 39 60
        E 600 80 39 00
        E 120 90 3c 60
        E 120 80 3c 00
        E 360 90 3e 60
        E 120 80 3e 00
        E 360 90 3b 60
        E 120 80 3b 00
        E 360 90 3c 60
        E 120 80 3c 00
        E 360 90 39 60
        E 120 80 39 00
        E 600 90 3b 60
        E 120 80 3b 00
        E 360 90 3e 60
        E 120 80 3e 00
        E 360 90 3b 60
        E 120 80 3b 00
        E 840 90 3b 60
        E 120 80 3b 00
        E 360 90 3c 60
        E 120 80 3c 00
        E 360 90 3c 60
        E 120 80 3c 00
        E 840 90 32 60
        E 120 80 32 00
        E 360 90 34 60
        E 120 80 34 00
        E 360 90 37 60
        E 120 80 37 00
        E 360 90 39 60
        E 120 80 39 00
        E 600 90 3b 60
        E 120 80 3b 00
        E 360 90 3c 60
        E 120 80 3c 00
        E 360 90 3e 60
        E 120 80 3e 00
        E 600 90 3b 60
        E 120 80 3b 00
        E 360 90 3c 60
        E 120 80 3c 00
        E 360 90 39 60
        E 120 80 39 00
        E 840 90 3b 60
        E 120 80 3b 00
        E 360 90 3c 60
        E 120 80 3c 00
        E 360 90 3b 60
        E 120 80 3b 00
        E 360 90 39 60
        E 120 80 39 00
        E 360 90 3b 60
        E 120 80 3b 00
        E 360 90 3c 60
        E 120 80 3c 00
        E 360 90 3b 60
        E 120 80 3b 00
        E 360 90 3c 60
        E 120 80 3c 00
        E 360 90 3e 60
        E 120 80 3e 00
        E 360 90 3c 60
        E 120 80 3c 00
        E 360 90 39 60
        E 120 80 39 00
        E 840 90 32 60
        E 120 80 32 00
        E 360 90 32 60
        E 120 80 32 00
        E 360 90 32 60
        E 120 80 32 00
        E 840 90 30 60
        E 120 80 30 00
        E 600 90 37 60
        E 720 80 37 00
        E 960 90 32 60
        E 120 80 32 00
        E 360 90 32 60
        E 120 80 32 00
        E 840 90 34 60
        E 120 80 34 00
        E 360 90 37 60
        E 120 80 37 00
        E 360 90 32 60
        E 120 80 32 00
        E 840 90 32 60
        E 120 80 32 00
        E 360 90 32 60
        E 120 80 32 00
        E 360 90 32 60
        E 120 80 32 00
        E 600 90 37 60
        E 120 80 37 00
        E 360 90 34 60
        E 120 80 34 00
        E 360 90 32 60
        E 120 80 32 00
        E 1560 90 32 60
        E 120 80 32 00
        E 360 90 32 60
        E 120 80 32 00
        E 840 90 34 60
        E 120 80 34 00
        E 360 90 37 60
        E 120 80 37 00
        E 360 90 37 60
        E 120 80 37 00
        E 840 90 32 60
        E 120 80 32 00
        E 360 90 32 60
        E 120 80 32 00
        E 360 90 32 60
        E 120 80 32 00
        E 600 90 37 60
        E 120 80 37 00
        E 360 90 34 60
        E 120 80 34 00
        E 360 90 32 60
        E 120 80 32 00
        E 600 90 34 60
        E 120 80 34 00
        E 360 90 37 60
        E 120 80 37 00
        E 360 90 34 60
        E 120 80 34 00
        E 360 90 37 60
        E 120 80 37 00
        E 360 90 34 60
        E 120 80 34 00
        E 360 90 37 60
        E 120 80 37 00
        E 600 90 32 60
        E 120 80 32 00
        E 600 90 30 60
        E 120 80 30 00
        E 360 90 34 60
        E 120 80 34 00
        E 840 90 37 60
        E 120 80 37 00
        E 360 90 32 60
        E 120 80 32 00
        E 360 90 37 60
        E 120 80 37 00
        E 840 90 30 60
        E 120 80 30 00
        E 360 90 30 60
        E 120 80 30 00
        E 360 90 34 60
        E 120 80 34 00
        E 360 90 34 60
        E 120 80 34 00
        E 360 90 39 60
        E 120 80 39 00
        E 600 90 39 60
        E 120 80 39 00
        E 360 90 3c 60
        E 120 80 3c 00
        E 600 90 3b 60
        E 120 80 3b 00
        E 360 90 3c 60
        E 120 80 3c 00
        E 840 90 3c 60
        E 120 80 3c 00
        E 360 90 40 60
        E 120 80 40 00
        E 2280 90 34 60
        E 120 80 34 00
        E 360 90 37 60
        E 120 80 37 00
        E 360 90 34 60
        E 120 80 34 00
        E 360 90 37 60
        E 120 80 37 00
        E 360 90 34 60
        E 120 80 34 00
        E 360 90 37 60
        E 120 80 37 00
        E 600 90 32 60
        E 120 80 32 00
        E 600 90 30 60
        E 120 80 30 00
        E 360 90 34 60
        E 120 80 34 00
        E 840 90 37 60
        E 120 80 37 00
        E 360 90 32 60
        E 120 80 32 00
        E 360 90 37 60
        E 120 80 37 00
        E 840 90 30 60
        E 120 80 30 00
        E 360 90 30 60
        E 120 80 30 00
        E 360 90 34 60
        E 120 80 34 00
        E 360 90 34 60
        E 120 80 34 00
        E 360 90 39 60
        E 120 80 39 00
        E 600 90 39 60
        E 120 80 39 00
        E 360 90 3c 60
        E 120 80 3c 00
        E 600 90 3b 60
        E 120 80 3b 00
        E 360 90 3c 60
        E 120 80 3c 00
        E 840 90 3c 60
        E 120 80 3c 00
        E 360 90 40 60
        E 120 80 40 00
        E 2280 90 34 60
        E 1560 80 34 00
        E 120 90 37 60
        E 120 80 37 00
        E 360 90 34 60
        E 120 80 34 00
        E 360 90 3b 60
        E 120 80 3b 00
        E 360 90 3c 60
        E 120 80 3c 00
        E 360 90 39 60
        E 120 80 39 00
        E 600 90 3b 60
        E 120 80 3b 00
        E 360 90 3c 60
        E 120 80 3c 00
        E 360 90 39 60
        E 120 80 39 00
        E 840 90 3b 60
        E 120 80 3b 00
        E 360 90 3c 60
        E 120 80 3c 00
        E 360 90 3c 60
        E 120 80 3c 00
        E 1320 90 39 60
        E 600 80 39 00
        E 120 90 3c 60
        E 120 80 3c 00
        E 360 90 3e 60
        E 120 80 3e 00
        E 360 90 3b 60
        E 120 80 3b 00
        E 360 90 3c 60
        E 120 80 3c 00
        E 360 90 39 60
        E 120 80 39 00
        E 600 90 3b 60
        E 120 80 3b 00
        E 360 90 3e 60
        E 120 80 3e 00
        E 360 90 3b 60
        E 120 80 3b 00
        E 840 90 3b 60
        E 120 80 3b 00
        E 360 90 3c 60
        E 120 80 3c 00
        E 360 90 3c 60
        E 120 80 3c 00
        E 840 90 32 60
        E 120 80 32 00
        E 360 90 34 60
        E 120 80 34 00
        E 360 90 37 60
        E 120 80 37 00
        E 360 90 39 60
        E 120 80 39 00
        E 600 90 3b 60
        E 120 80 3b 00
        E 360 90 3c 60
        E 120 80 3c 00
        E 360 90 3e 60
        E 120 80 3e 00
        E 600 90 3b 60
        E 120 80 3b 00
        E 360 90 3c 60
        E 120 80 3c 00
        E 360 90 39 60
        E 120 80 39 00
        E 840 90 3b 60
        E 120 80 3b 00
        E 360 90 3c 60
        E 120 80 3c 00
        E 360 90 3b 60
        E 120 80 3b 00
        E 360 90 39 60
        E 120 80 39 00
        E 360 90 3b 60
        E 120 80 3b 00
        E 360 90 3c 60
        E 120 80 3c 00
        E 360 90 3b 60
        E 120 80 3b 00
        E 360 90 3c 60
        E 120 80 3c 00
        E 360 90 3e 60
        E 120 80 3e 00
        E 360 90 3c 60
        E 120 80 3c 00
        E 360 90 39 60
        E 120 80 39 00
        E 840 90 3e 60
        E 120 80 3e 00
        E 360 90 3e 60
        E 120 80 3e 00
        E 360 90 3e 60
        E 120 80 3e 00
        E 840 90 3c 60
        E 120 80 3c 00
        E 600 90 3e 60
        E 120 80 3e 00
        E 600 90 3c 60
        E 120 80 3c 00
        E 360 90 40 60
        E 120 80 40 00
        E 600 90 3c 60
        E 120 80 3c 00
        E 600 90 3c 60
        E 120 80 3c 00
        E 360 90 40 60
        E 120 80 40 00
        E 840 90 3e 60
        E 120 80 3e 00
        E 360 90 37 60
        E 120 80 37 00
        E 360 90 3e 60
        E 120 80 3e 00
        E 840 90 3c 60
        E 120 80 3c 00
        E 360 90 3c 60
        E 120 80 3c 00
        E 360 90 40 60
        E 120 80 40 00
        E 840 90 3e 60
        E 120 80 3e 00
        E 360 90 3c 60
        E 120 80 3c 00
        E 360 90 40 60
        E 120 80 40 00
        E 360 90 39 60
        E 120 80 39 00
        E 360 90 40 60
        E 120 80 40 00
        E 360 90 40 60
        E 120 80 40 00
        E 360 90 40 60
        E 120 80 40 00
        E 360 90 39 60
        E 120 80 39 00
        E 360 90 40 60
        E 120 80 40 00
        E 360 90 40 60
        E 120 80 40 00
        E 360 90 40 60
        E 120 80 40 00
        E 360 90 40 60
        E 120 80 40 00
        E 840 90 40 60
        E 120 80 40 00
        E 360 90 3e 60
        E 120 80 3e 00
        E 360 90 3e 60
        E 120 80 3e 00
        E 360 90 3e 60
        E 120 80 3e 00
        E 360 90 3c 60
        E 120 80 3c 00
        E 360 90 40 60
        E 120 80 40 00
        E 600 90 3c 60
        E 120 80 3c 00
        E 600 90 3c 60
        E 120 80 3c 00
        E 360 90 40 60
        E 120 80 40 00
        E 840 90 3e 60
        E 120 80 3e 00
        E 360 90 37 60
        E 120 80 37 00
        E 360 90 3e 60
        E 120 80 3e 00
        E 840 90 3c 60
        E 120 80 3c 00
        E 360 90 3c 60
        E 120 80 3c 00
        E 360 90 40 60
        E 120 80 40 00
        E 840 90 3e 60
        E 120 80 3e 00
        E 360 90 3c 60
        E 120 80 3c 00
        E 360 90 40 60
        E 120 80 40 00
        E 360 90 39 60
        E 120 80 39 00
        E 360 90 3c 60
        E 120 80 3c 00
        E 360 90 40 60
        E 120 80 40 00
        E 360 90 40 60
        E 120 80 40 00
        E 360 90 39 60
        E 120 80 39 00
        E 360 90 40 60
        E 120 80 40 00
        E 360 90 40 60
        E 120 80 40 00
        E 360 90 40 60
        E 120 80 40 00
        E 360 90 40 60
        E 120 80 40 00
        E 840 90 40 60
        E 120 80 40 00
        E 360 90 3e 60
        E 120 80 3e 00
        E 360 90 40 60
        E 120 80 40 00
        E 360 90 3e 60
        E 120 80 3e 00
        E 1320 90 32 60
        E 120 80 32 00
        E 360 90 32 60
        E 120 80 32 00
        E 840 90 34 60
        E 120 80 34 00
        E 360 90 37 60
        E 120 80 37 00
        E 360 90 32 60
        E 120 80 32 00
        E 840 90 32 60
        E 120 80 32 00
        E 360 90 32 60
        E 120 80 32 00
        E 360 90 32 60
        E 120 80 32 00
        E 600 90 37 60
        E 120 80 37 00
        E 360 90 34 60
        E 120 80 34 00
        E 360 90 32 60
        E 120 80 32 00
        E 1560 90 32 60
        E 120 80 32 00
        E 360 90 32 60
        E 120 80 32 00
        E 840 90 34 60
        E 120 80 34 00
        E 360 90 37 60
        E 120 80 37 00
        E 360 90 37 60
        E 120 80 37 00
        E 840 90 32 60
        E 120 80 32 00
        E 360 90 32 60
        E 120 80 32 00
        E 360 90 32 60
        E 120 80 32 00
        E 600 90 37 60
        E 120 80 37 00
        E 360 90 34 60
        E 120 80 34 00
        E 360 90 32 60
        E 120 80 32 00
        E 1560 90 32 60
        E 120 80 32 00
        E 360 90 32 60
        E 120 80 32 00
        E 840 90 34 60
        E 120 80 34 00
        E 360 90 37 60
        E 120 80 37 00
        E 360 90 32 60
        E 120 80 32 00
        E 840 90 32 60
        E 120 80 32 00
        E 360 90 32 60
        E 120 80 32 00
        E 360 90 32 60
        E 120 80 32 00
        E 600 90 37 60
        E 120 80 37 00
        E 360 90 34 60
        E 120 80 34 00
        E 360 90 32 60
        E 120 80 32 00
        E 1560 90 32 60
        E 120 80 32 00
        E 360 90 32 60
        E 120 80 32 00
        E 840 90 34 60
        E 120 80 34 00
        E 360 90 37 60
        E 120 80 37 00
        E 360 90 37 60
        E 120 80 37 00
        E 840 90 32 60
        E 120 80 32 00
        E 360 90 32 60
        E 120 80 32 00
        E 360 90 32 60
        E 120 80 32 00
        E 600 90 37 60
        E 120 80 37 00
        E 360 90 34 60
        E 120 80 34 00
        E 360 90 32 60
        E 120 80 32 00
        E 600 90 3c 60
        E 120 80 3c 00
        E 360 90 40 60
        E 120 80 40 00
        E 600 90 3c 60
        E 120 80 3c 00
        E 600 90 3c 60
        E 120 80 3c 00
        E 360 90 40 60
        E 120 80 40 00
        E 840 90 3e 60
        E 120 80 3e 00
        E 360 90 37 60
        E 120 80 37 00
        E 360 90 3e 60
        E 120 80 3e 00
        E 840 90 3c 60
        E 120 80 3c 00
        E 360 90 3c 60
        E 120 80 3c 00
        E 360 90 40 60
        E 120 80 40 00
        E 840 90 3e 60
        E 120 80 3e 00
        E 360 90 3c 60
        E 120 80 3c 00
        E 360 90 40 60
        E 120 80 40 00
        E 360 90 39 60
        E 120 80 39 00
        E 360 90 40 60
        E 120 80 40 00
        E 360 90 40 60
        E 120 80 40 00
        E 360 90 40 60
        E 120 80 40 00
        E 360 90 39 60
        E 120 80 39 00
        E 360 90 40 60
        E 120 80 40 00
        E 360 90 40 60
        E 120 80 40 00
        E 360 90 40 60
        E 120 80 40 00
        E 360 90 40 60
        E 120 80 40 00
        E 840 90 40 60
        E 120 80 40 00
        E 360 90 3e 60
        E 120 80 3e 00
        E 360 90 3e 60
        E 120 80 3e 00
        E 360 90 3e 60
        E 120 80 3e 00
        E 360 90 3c 60
        E 120 80 3c 00
        E 360 90 40 60
        E 120 80 40 00
        E 600 90 3c 60
        E 120 80 3c 00
        E 600 90 3c 60
        E 120 80 3c 00
        E 360 90 40 60
        E 120 80 40 00
        E 840 90 3e 60
        E 120 80 3e 00
        E 360 90 37 60
        E 120 80 37 00
        E 360 90 3e 60
        E 120 80 3e 00
        E 840 90 3c 60
        E 120 80 3c 00
        E 360 90 3c 60
        E 120 80 3c 00
        E 360 90 40 60
        E 120 80 40 00
        E 840 90 3e 60
        E 120 80 3e 00
        E 360 90 3c 60
        E 120 80 3c 00
        E 360 90 40 60
        E 120 80 40 00
        E 360 90 39 60
        E 120 80 39 00
        E 360 90 3c 60
        E 120 80 3c 00
        E 360 90 40 60
        E 120 80 40 00
        E 360 90 40 60
        E 120 80 40 00
        E 360 90 39 60
        E 120 80 39 00
        E 360 90 40 60
        E 120 80 40 00
        E 360 90 40 60
        E 120 80 40 00
        E 360 90 40 60
        E 120 80 40 00
        E 360 90 40 60
        E 120 80 40 00
        E 840 90 40 60
        E 120 80 40 00
        E 360 90 3e 60
        E 120 80 3e 00
        E 360 90 40 60
        E 120 80 40 00
        E 360 90 3e 60
        E 120 80 3e 00
        E 360 90 3c 60
        E 120 80 3c 00
        E 360 90 40 60
        E 120 80 40 00
        E 600 90 3c 60
        E 120 80 3c 00
        E 600 90 3c 60
        E 120 80 3c 00
        E 360 90 40 60
        E 120 80 40 00
        E 840 90 3e 60
        E 120 80 3e 00
        E 360 90 37 60
        E 120 80 37 00
        E 360 90 3e 60
        E 120 80 3e 00
        E 840 90 3c 60
        E 120 80 3c 00
        E 360 90 3c 60
        E 120 80 3c 00
        E 360 90 40 60
        E 120 80 40 00
        E 840 90 3e 60
        E 120 80 3e 00
        E 360 90 3c 60
        E 120 80 3c 00
        E 360 90 40 60
        E 120 80 40 00
        E 360 90 39 60
        E 120 80 39 00
        E 360 90 40 60
        E 120 80 40 00
        E 360 90 40 60
        E 120 80 40 00
        E 360 90 40 60
        E 120 80 40 00
        E 360 90 39 60
        E 120 80 39 00
        E 360 90 40 60
        E 120 80 40 00
        E 360 90 40 60
        E 120 80 40 00
        E 360 90 40 60
        E 120 80 40 00
        E 360 90 40 60
        E 120 80 40 00
        E 840 90 40 60
        E 120 80 40 00
        E 360 90 3e 60
        E 120 80 3e 00
        E 360 90 3e 60
        E 120 80 3e 00
        E 360 90 3e 60
        E 120 80 3e 00
        E 360 90 3c 60
        E 120 80 3c 00
        E 360 90 40 60
        E 120 80 40 00
        E 600 90 3c 60
        E 120 80 3c 00
        E 600 90 3c 60
        E 120 80 3c 00
        E 360 90 40 60
        E 120 80 40 00
        E 840 90 3e 60
        E 120 80 3e 00
        E 360 90 37 60
        E 120 80 37 00
        E 360 90 3e 60
        E 120 80 3e 00
        E 840 90 3c 60
        E 120 80 3c 00
        E 360 90 3c 60
        E 120 80 3c 00
        E 360 90 40 60
        E 120 80 40 00
        E 840 90 3e 60
        E 120 80 3e 00
        E 360 90 3c 60
        E 120 80 3c 00
        E 360 90 40 60
        E 120 80 40 00
        E 360 90 39 60
        E 120 80 39 00
        E 360 90 3c 60
        E 120 80 3c 00
        E 360 90 40 60
        E 120 80 40 00
        E 360 90 40 60
        E 120 80 40 00
        E 360 90 39 60
        E 120 80 39 00
        E 360 90 40 60
        E 120 80 40 00
        E 360 90 40 60
        E 120 80 40 00
        E 360 90 40 60
        E 120 80 40 00
        E 360 90 40 60
        E 120 80 40 00
        E 840 90 40 60
        E 120 80 40 00
        E 360 90 3e 60
        E 120 80 3e 00
        E 360 90 40 60
        E 120 80 40 00
        E 360 90 3e 60
        E 120 80 3e 00
        E 360 90 3c 60
        E 120 80 3c 00
        E 360 90 40 60
        E 120 80 40 00
        E 600 90 3c 60
        E 120 80 3c 00
        E 600 90 3c 60
        E 120 80 3c 00
        E 360 90 40 60
        E 120 80 40 00
        E 840 90 3e 60
        E 120 80 3e 00
        E 360 90 37 60
        E 120 80 37 00
        E 360 90 3e 60
        E 120 80 3e 00
        E 840 90 3c 60
        E 120 80 3c 00
        E 360 90 3c 60
        E 120 80 3c 00
        E 360 90 40 60
        E 120 80 40 00
        E 840 90 3e 60
        E 120 80 3e 00
        E 360 90 3c 60
        E 120 80 3c 00
        E 360 90 40 60
        E 120 80 40 00
        E 360 90 39 60
        E 120 80 39 00
        E 360 90 40 60
        E 120 80 40 00
        E 360 90 40 60
        E 120 80 40 00
        E 360 90 40 60
        E 120 80 40 00
        E 360 90 39 60
        E 120 80 39 00
        E 360 90 40 60
        E 120 80 40 00
        E 360 90 40 60
        E 120 80 40 00
        E 360 90 40 60
        E 120 80 40 00
        E 360 90 40 60
        E 120 80 40 00
        E 840 90 3e 60
        E 120 80 3e 00
        E 360 90 3e 60
        E 120 80 3e 00
        E 360 90 3e 60
        E 120 80 3e 00
        E 360 90 3e 60
        E 120 80 3e 00
        E 360 90 3c 60
        E 120 80 3c 00
        E 360 90 40 60
        E 120 80 40 00
        E 600 90 3c 60
        E 120 80 3c 00
        E 600 90 3c 60
        E 120 80 3c 00
        E 360 90 40 60
        E 120 80 40 00
        E 840 90 3e 60
        E 120 80 3e 00
        E 360 90 37 60
        E 120 80 37 00
        E 360 90 3e 60
        E 120 80 3e 00
        E 840 90 3c 60
        E 120 80 3c 00
        E 360 90 3c 60
        E 120 80 3c 00
        E 360 90 40 60
        E 120 80 40 00
        E 840 90 3e 60
        E 120 80 3e 00
        E 360 90 3c 60
        E 120 80 3c 00
        E 360 90 40 60
        E 120 80 40 00
        E 360 90 39 60
        E 120 80 39 00
        E 360 90 3c 60
        E 120 80 3c 00
        E 360 90 40 60
        E 120 80 40 00
        E 360 90 40 60
        E 120 80 40 00
        E 360 90 39 60
        E 120 80 39 00
        E 360 90 40 60
        E 120 80 40 00
        E 360 90 40 60
        E 120 80 40 00
        E 360 90 40 60
        E 120 80 40 00
        E 360 90 40 60
        E 120 80 40 00
        E 840 90 3e 60
        E 120 80 3e 00
        E 360 90 3e 60
        E 120 80 3e 00
        E 360 90 40 60
        E 120 80 40 00
        E 360 90 3e 60
        E 120 80 3e 00
        E 1320 90 32 60
        E 120 80 32 00
        E 360 90 32 60
        E 120 80 32 00
        E 840 90 34 60
        E 120 80 34 00
        E 360 90 37 60
        E 120 80 37 00
        E 360 90 32 60
        E 120 80 32 00
        E 840 90 32 60
        E 120 80 32 00
        E 360 90 32 60
        E 120 80 32 00
        E 360 90 32 60
        E 120 80 32 00
        E 600 90 37 60
        E 120 80 37 00
        E 360 90 34 60
        E 120 80 34 00
        E 360 90 32 60
        E 120 80 32 00
        E 1560 90 32 60
        E 120 80 32 00
        E 360 90 32 60
        E 120 80 32 00
        E 840 90 34 60
        E 120 80 34 00
        E 360 90 37 60
        E 120 80 37 00
        E 360 90 37 60
        E 120 80 37 00
        E 840 90 32 60
        E 120 80 32 00
        E 360 90 32 60
        E 120 80 32 00
        E 360 90 32 60
        E 120 80 32 00
        E 600 90 37 60
        E 120 80 37 00
        E 360 90 34 60
        E 120 80 34 00
        E 360 90 32 60
        E 120 80 32 00
        E 1560 90 32 60
        E 120 80 32 00
        E 360 90 32 60
        E 120 80 32 00
        E 840 90 34 60
        E 120 80 34 00
        E 360 90 37 60
        E 120 80 37 00
        E 360 90 32 60
        E 120 80 32 00
        E 840 90 32 60
        E 120 80 32 00
        E 360 90 32 60
        E 120 80 32 00
        E 360 90 32 60
        E 120 80 32 00
        E 600 90 37 60
        E 120 80 37 00
        E 360 90 34 60
        E 120 80 34 00
        E 360 90 32 60
        E 120 80 32 00
        E 1560 90 32 60
        E 120 80 32 00
        E 360 90 32 60
        E 120 80 32 00
        E 840 90 34 60
        E 120 80 34 00
        E 360 90 37 60
        E 120 80 37 00
        E 360 90 37 60
        E 120 80 37 00
        E 840 90 32 60
        E 120 80 32 00
        E 360 90 32 60
        E 120 80 32 00
        E 360 90 32 60
        E 120 80 32 00
        E 600 90 37 60
        E 120 80 37 00
        E 360 90 34 60
        E 120 80 34 00
        E 360 90 32 60
        E 120 80 32 00
        E 14039 b0 7b 00
        GUID {39CADF31-0799-4D6A-B1C3-900D08DCDA7E}
        IGNTEMPO 0 120.00000000 4 4
        SRCCOLOR 11
        VELLANE 132 71 60
        COLORMAP "C:\Program Files\REAPER (x64)\Data\color_maps\rockband_guitarbass.png"
        CFGEDITVIEW 0.000000 2.853967 8 12 0 0 0
        CFGEDIT 1 1 0 1 1 0 1 1 1 1 1 0.25000000 100 100 1200 800 0 2 2 1 0.00000000 0 1 0 0 0.500000 0 0 1.000000 64
        KEYSNAP 0 6 "102030050700" 0 "Pentatonic"
        EVTFILTER 0 -1 -1 -1 -1 0 1 0 0 -1.00000000 -1.00000000
      >
    >
  >
  <TRACK '{EBD30B97-9D71-4F7C-8D0F-D1DD3F7C8FDA}'
    NAME "PART REAL_KEYS_E"
    PEAKCOL 16576
    BEAT -1
    AUTOMODE 0
    VOLPAN 1.00000000000000 0.00000000000000 -1.00000000000000 -1.00000000000000 1.00000000000000
    MUTESOLO 0 0 0
    IPHASE 0
    ISBUS 0 0
    BUSCOMP 0 0
    SHOWINMIX 1 0.666700 0.500000 1 0.500000 -1 -1 -1
    FREEMODE 0
    SEL 0
    REC 0 0 0 0 0 0 0
    VU 2
    TRACKHEIGHT 0 0
    INQ 0 0 0 0.5000000000 100 0 0 100
    NCHAN 2
    FX 1
    TRACKID {EBD30B97-9D71-4F7C-8D0F-D1DD3F7C8FDA}
    PERF 0
    MIDIOUT -1
    <MIDINOTENAMES
      0 72 "Highest playable note B#3"
      0 71 "B3"
      0 70 "A#3"
      0 69 "A3"
      0 68 "G#3"
      0 67 "G3"
      0 66 "F#3"
      0 65 "F3"
      0 64 "E3"
      0 63 "D#3"
      0 62 "D3"
      0 61 "C#3"
      0 60 "C3"
      0 59 "B2"
      0 58 "A#2"
      0 57 "A2"
      0 56 "G#2"
      0 55 "G2"
      0 54 "F#2"
      0 53 "F2"
      0 52 "E2"
      0 51 "D#2"
      0 50 "D2"
      0 49 "C#2"
      0 48 "Lowest playable note C2"
      0 10 "---"
      0 9 "Range A2-C4"
      0 8 "Range"
      0 7 "Range"
      0 6 "Range"
      0 5 "Range F2-A3"
      0 4 "Range"
      0 3 "Range"
      0 2 "Range"
      0 1 "Range"
      0 0 "Range C2-E3"
    >
    MAINSEND 1 0
    <FXCHAIN
      SHOW 0
      LASTSEL 0
      DOCKED 0
    >
    <ITEM
      POSITION 0.00000000000000
      SNAPOFFS 0.00000000000000
      LENGTH 249.33300000000000
      LOOP 0
      ALLTAKES 0
      SEL 0
      FADEIN 1 0.000000 0.000000 1 0
      FADEOUT 1 0.000000 0.000000 1 0
      MUTE 0
      IGUID {05AE1696-A751-48EE-96F2-A44C06BF79C8}
      IID 10
      NAME "PART REAL_KEYS_E"
      VOLPAN 1.000000 0.000000 1.000000 -1.000000
      SOFFS 0.00000000000000 0.00000000000000
      PLAYRATE 1.00000000000000 1 0.00000000000000 -1
      CHANMODE 0
      GUID {6252C579-EA3D-41D9-A468-3DE9DC24AE70}
      <SOURCE MIDI
        HASDATA 1 480 QN
        POOLEDEVTS {7BD4FC58-ABD0-4D70-B689-1378D9C3617F}
        <X 0 0
          /wNQQVJUIFJFQUxfS0VZU19F
        >
        E 0 90 00 60
        E 120 80 00 00
        E 8520 90 32 60
        E 120 80 32 00
        E 360 90 32 60
        E 120 80 32 00
        E 1320 90 37 60
        E 120 80 37 00
        E 1320 90 32 60
        E 120 80 32 00
        E 360 90 32 60
        E 120 80 32 00
        E 360 90 32 60
        E 120 80 32 00
        E 1080 90 34 60
        E 120 80 34 00
        E 2040 90 32 60
        E 120 80 32 00
        E 360 90 32 60
        E 120 80 32 00
        E 1320 90 37 60
        E 120 80 37 00
        E 360 90 37 60
        E 120 80 37 00
        E 840 90 32 60
        E 120 80 32 00
        E 360 90 32 60
        E 120 80 32 00
        E 360 90 32 60
        E 120 80 32 00
        E 1080 90 34 60
        E 120 80 34 00
        E 1080 90 34 60
        E 120 80 34 00
        E 840 90 34 60
        E 120 80 34 00
        E 840 90 34 60
        E 120 80 34 00
        E 1080 90 32 60
        E 120 80 32 00
        E 600 90 30 60
        E 120 80 30 00
        E 1800 90 32 60
        E 120 80 32 00
        E 1320 90 30 60
        E 120 80 30 00
        E 360 90 30 60
        E 120 80 30 00
        E 840 90 34 60
        E 120 80 34 00
        E 1080 90 39 60
        E 120 80 39 00
        E 1080 90 3b 60
        E 120 80 3b 00
        E 360 90 3c 60
        E 120 80 3c 00
        E 840 90 3c 60
        E 120 80 3c 00
        E 2760 90 34 60
        E 120 80 34 00
        E 840 90 34 60
        E 120 80 34 00
        E 840 90 34 60
        E 120 80 34 00
        E 1080 90 32 60
        E 120 80 32 00
        E 600 90 30 60
        E 120 80 30 00
        E 1800 90 32 60
        E 120 80 32 00
        E 1320 90 30 60
        E 120 80 30 00
        E 360 90 30 60
        E 120 80 30 00
        E 840 90 34 60
        E 120 80 34 00
        E 1080 90 39 60
        E 120 80 39 00
        E 1080 90 3b 60
        E 120 80 3b 00
        E 360 90 3c 60
        E 120 80 3c 00
        E 840 90 3c 60
        E 120 80 3c 00
        E 2760 90 34 60
        E 1560 80 34 00
        E 120 90 37 60
        E 120 80 37 00
        E 840 90 3b 60
        E 120 80 3b 00
        E 840 90 39 60
        E 120 80 39 00
        E 1080 90 3c 60
        E 120 80 3c 00
        E 1800 90 3c 60
        E 120 80 3c 00
        E 1800 90 39 60
        E 600 80 39 00
        E 600 90 3e 60
        E 120 80 3e 00
        E 840 90 3c 60
        E 120 80 3c 00
        E 1560 90 3e 60
        E 120 80 3e 00
        E 1800 90 3c 60
        E 120 80 3c 00
        E 360 90 3c 60
        E 120 80 3c 00
        E 840 90 32 60
        E 120 80 32 00
        E 360 90 34 60
        E 120 80 34 00
        E 840 90 39 60
        E 120 80 39 00
        E 1080 90 3c 60
        E 120 80 3c 00
        E 1560 90 3c 60
        E 120 80 3c 00
        E 1800 90 3c 60
        E 120 80 3c 00
        E 840 90 39 60
        E 120 80 39 00
        E 840 90 3c 60
        E 120 80 3c 00
        E 840 90 3c 60
        E 120 80 3c 00
        E 840 90 3c 60
        E 120 80 3c 00
        E 1320 90 32 60
        E 120 80 32 00
        E 360 90 32 60
        E 120 80 32 00
        E 360 90 32 60
        E 120 80 32 00
        E 840 90 30 60
        E 120 80 30 00
        E 2280 90 32 60
        E 120 80 32 00
        E 360 90 32 60
        E 120 80 32 00
        E 1320 90 37 60
        E 120 80 37 00
        E 1320 90 32 60
        E 120 80 32 00
        E 360 90 32 60
        E 120 80 32 00
        E 360 90 32 60
        E 120 80 32 00
        E 1080 90 34 60
        E 120 80 34 00
        E 2040 90 32 60
        E 120 80 32 00
        E 360 90 32 60
        E 120 80 32 00
        E 1320 90 37 60
        E 120 80 37 00
        E 360 90 37 60
        E 120 80 37 00
        E 840 90 32 60
        E 120 80 32 00
        E 360 90 32 60
        E 120 80 32 00
        E 360 90 32 60
        E 120 80 32 00
        E 1080 90 34 60
        E 120 80 34 00
        E 1080 90 34 60
        E 120 80 34 00
        E 840 90 34 60
        E 120 80 34 00
        E 840 90 34 60
        E 120 80 34 00
        E 1080 90 32 60
        E 120 80 32 00
        E 600 90 30 60
        E 120 80 30 00
        E 1800 90 32 60
        E 120 80 32 00
        E 1320 90 30 60
        E 120 80 30 00
        E 360 90 30 60
        E 120 80 30 00
        E 840 90 34 60
        E 120 80 34 00
        E 1080 90 39 60
        E 120 80 39 00
        E 1080 90 3b 60
        E 120 80 3b 00
        E 360 90 3c 60
        E 120 80 3c 00
        E 840 90 3c 60
        E 120 80 3c 00
        E 2760 90 34 60
        E 120 80 34 00
        E 840 90 34 60
        E 120 80 34 00
        E 840 90 34 60
        E 120 80 34 00
        E 1080 90 32 60
        E 120 80 32 00
        E 600 90 30 60
        E 120 80 30 00
        E 1800 90 32 60
        E 120 80 32 00
        E 1320 90 30 60
        E 120 80 30 00
        E 360 90 30 60
        E 120 80 30 00
        E 840 90 34 60
        E 120 80 34 00
        E 1080 90 39 60
        E 120 80 39 00
        E 1080 90 3b 60
        E 120 80 3b 00
        E 360 90 3c 60
        E 120 80 3c 00
        E 840 90 3c 60
        E 120 80 3c 00
        E 2760 90 34 60
        E 1560 80 34 00
        E 120 90 37 60
        E 120 80 37 00
        E 840 90 3b 60
        E 120 80 3b 00
        E 840 90 39 60
        E 120 80 39 00
        E 1080 90 3c 60
        E 120 80 3c 00
        E 1800 90 3c 60
        E 120 80 3c 00
        E 1800 90 39 60
        E 600 80 39 00
        E 600 90 3e 60
        E 120 80 3e 00
        E 840 90 3c 60
        E 120 80 3c 00
        E 1560 90 3e 60
        E 120 80 3e 00
        E 1800 90 3c 60
        E 120 80 3c 00
        E 360 90 3c 60
        E 120 80 3c 00
        E 840 90 32 60
        E 120 80 32 00
        E 360 90 34 60
        E 120 80 34 00
        E 840 90 39 60
        E 120 80 39 00
        E 1080 90 3c 60
        E 120 80 3c 00
        E 1560 90 3c 60
        E 120 80 3c 00
        E 1800 90 3c 60
        E 120 80 3c 00
        E 840 90 39 60
        E 120 80 39 00
        E 840 90 3c 60
        E 120 80 3c 00
        E 840 90 3c 60
        E 120 80 3c 00
        E 840 90 3c 60
        E 120 80 3c 00
        E 1320 90 3e 60
        E 120 80 3e 00
        E 360 90 3e 60
        E 120 80 3e 00
        E 360 90 3e 60
        E 120 80 3e 00
        E 840 90 3c 60
        E 120 80 3c 00
        E 1320 90 3c 60
        E 120 80 3c 00
        E 1080 90 3c 60
        E 120 80 3c 00
        E 600 90 3c 60
        E 120 80 3c 00
        E 1800 90 37 60
        E 120 80 37 00
        E 1320 90 3c 60
        E 120 80 3c 00
        E 360 90 3c 60
        E 120 80 3c 00
        E 1800 90 3c 60
        E 120 80 3c 00
        E 840 90 39 60
        E 120 80 39 00
        E 840 90 40 60
        E 120 80 40 00
        E 840 90 39 60
        E 120 80 39 00
        E 840 90 40 60
        E 120 80 40 00
        E 360 90 40 60
        E 120 80 40 00
        E 360 90 40 60
        E 120 80 40 00
        E 840 90 40 60
        E 120 80 40 00
        E 840 90 3e 60
        E 120 80 3e 00
        E 840 90 3c 60
        E 120 80 3c 00
        E 1080 90 3c 60
        E 120 80 3c 00
        E 600 90 3c 60
        E 120 80 3c 00
        E 1800 90 37 60
        E 120 80 37 00
        E 1320 90 3c 60
        E 120 80 3c 00
        E 360 90 3c 60
        E 120 80 3c 00
        E 1800 90 3c 60
        E 120 80 3c 00
        E 840 90 39 60
        E 120 80 39 00
        E 840 90 40 60
        E 120 80 40 00
        E 840 90 39 60
        E 120 80 39 00
        E 840 90 40 60
        E 120 80 40 00
        E 360 90 40 60
        E 120 80 40 00
        E 360 90 40 60
        E 120 80 40 00
        E 840 90 40 60
        E 120 80 40 00
        E 840 90 40 60
        E 120 80 40 00
        E 1800 90 32 60
        E 120 80 32 00
        E 360 90 32 60
        E 120 80 32 00
        E 1320 90 37 60
        E 120 80 37 00
        E 1320 90 32 60
        E 120 80 32 00
        E 360 90 32 60
        E 120 80 32 00
        E 360 90 32 60
        E 120 80 32 00
        E 1080 90 34 60
        E 120 80 34 00
        E 2040 90 32 60
        E 120 80 32 00
        E 360 90 32 60
        E 120 80 32 00
        E 1320 90 37 60
        E 120 80 37 00
        E 360 90 37 60
        E 120 80 37 00
        E 840 90 32 60
        E 120 80 32 00
        E 360 90 32 60
        E 120 80 32 00
        E 360 90 32 60
        E 120 80 32 00
        E 1080 90 34 60
        E 120 80 34 00
        E 2040 90 32 60
        E 120 80 32 00
        E 360 90 32 60
        E 120 80 32 00
        E 1320 90 37 60
        E 120 80 37 00
        E 1320 90 32 60
        E 120 80 32 00
        E 360 90 32 60
        E 120 80 32 00
        E 360 90 32 60
        E 120 80 32 00
        E 1080 90 34 60
        E 120 80 34 00
        E 2040 90 32 60
        E 120 80 32 00
        E 360 90 32 60
        E 120 80 32 00
        E 1320 90 37 60
        E 120 80 37 00
        E 360 90 37 60
        E 120 80 37 00
        E 840 90 32 60
        E 120 80 32 00
        E 360 90 32 60
        E 120 80 32 00
        E 360 90 32 60
        E 120 80 32 00
        E 1080 90 34 60
        E 120 80 34 00
        E 1080 90 3c 60
        E 120 80 3c 00
        E 1080 90 3c 60
        E 120 80 3c 00
        E 600 90 3c 60
        E 120 80 3c 00
        E 1800 90 37 60
        E 120 80 37 00
        E 1320 90 3c 60
        E 120 80 3c 00
        E 360 90 3c 60
        E 120 80 3c 00
        E 1800 90 3c 60
        E 120 80 3c 00
        E 840 90 39 60
        E 120 80 39 00
        E 840 90 40 60
        E 120 80 40 00
        E 840 90 39 60
        E 120 80 39 00
        E 840 90 40 60
        E 120 80 40 00
        E 360 90 40 60
        E 120 80 40 00
        E 360 90 40 60
        E 120 80 40 00
        E 840 90 40 60
        E 120 80 40 00
        E 840 90 3e 60
        E 120 80 3e 00
        E 840 90 3c 60
        E 120 80 3c 00
        E 1080 90 3c 60
        E 120 80 3c 00
        E 600 90 3c 60
        E 120 80 3c 00
        E 1800 90 37 60
        E 120 80 37 00
        E 1320 90 3c 60
        E 120 80 3c 00
        E 360 90 3c 60
        E 120 80 3c 00
        E 1800 90 3c 60
        E 120 80 3c 00
        E 840 90 39 60
        E 120 80 39 00
        E 840 90 40 60
        E 120 80 40 00
        E 840 90 39 60
        E 120 80 39 00
        E 840 90 40 60
        E 120 80 40 00
        E 360 90 40 60
        E 120 80 40 00
        E 360 90 40 60
        E 120 80 40 00
        E 840 90 40 60
        E 120 80 40 00
        E 840 90 40 60
        E 120 80 40 00
        E 840 90 3c 60
        E 120 80 3c 00
        E 1080 90 3c 60
        E 120 80 3c 00
        E 600 90 3c 60
        E 120 80 3c 00
        E 1800 90 37 60
        E 120 80 37 00
        E 1320 90 3c 60
        E 120 80 3c 00
        E 360 90 3c 60
        E 120 80 3c 00
        E 1800 90 3c 60
        E 120 80 3c 00
        E 840 90 39 60
        E 120 80 39 00
        E 840 90 40 60
        E 120 80 40 00
        E 840 90 39 60
        E 120 80 39 00
        E 840 90 40 60
        E 120 80 40 00
        E 360 90 40 60
        E 120 80 40 00
        E 360 90 40 60
        E 120 80 40 00
        E 840 90 40 60
        E 120 80 40 00
        E 840 90 3e 60
        E 120 80 3e 00
        E 840 90 3c 60
        E 120 80 3c 00
        E 1080 90 3c 60
        E 120 80 3c 00
        E 600 90 3c 60
        E 120 80 3c 00
        E 1800 90 37 60
        E 120 80 37 00
        E 1320 90 3c 60
        E 120 80 3c 00
        E 360 90 3c 60
        E 120 80 3c 00
        E 1800 90 3c 60
        E 120 80 3c 00
        E 840 90 39 60
        E 120 80 39 00
        E 840 90 40 60
        E 120 80 40 00
        E 840 90 39 60
        E 120 80 39 00
        E 840 90 40 60
        E 120 80 40 00
        E 360 90 40 60
        E 120 80 40 00
        E 360 90 40 60
        E 120 80 40 00
        E 840 90 40 60
        E 120 80 40 00
        E 840 90 40 60
        E 120 80 40 00
        E 840 90 3c 60
        E 120 80 3c 00
        E 1080 90 3c 60
        E 120 80 3c 00
        E 600 90 3c 60
        E 120 80 3c 00
        E 1800 90 37 60
        E 120 80 37 00
        E 1320 90 3c 60
        E 120 80 3c 00
        E 360 90 3c 60
        E 120 80 3c 00
        E 1800 90 3c 60
        E 120 80 3c 00
        E 840 90 39 60
        E 120 80 39 00
        E 840 90 40 60
        E 120 80 40 00
        E 840 90 39 60
        E 120 80 39 00
        E 840 90 40 60
        E 120 80 40 00
        E 360 90 40 60
        E 120 80 40 00
        E 360 90 40 60
        E 120 80 40 00
        E 840 90 3e 60
        E 120 80 3e 00
        E 840 90 3e 60
        E 120 80 3e 00
        E 840 90 3c 60
        E 120 80 3c 00
        E 1080 90 3c 60
        E 120 80 3c 00
        E 600 90 3c 60
        E 120 80 3c 00
        E 1800 90 37 60
        E 120 80 37 00
        E 1320 90 3c 60
        E 120 80 3c 00
        E 360 90 3c 60
        E 120 80 3c 00
        E 1800 90 3c 60
        E 120 80 3c 00
        E 840 90 39 60
        E 120 80 39 00
        E 840 90 40 60
        E 120 80 40 00
        E 840 90 39 60
        E 120 80 39 00
        E 840 90 40 60
        E 120 80 40 00
        E 360 90 40 60
        E 120 80 40 00
        E 360 90 40 60
        E 120 80 40 00
        E 840 90 3e 60
        E 120 80 3e 00
        E 840 90 40 60
        E 120 80 40 00
        E 1800 90 32 60
        E 120 80 32 00
        E 360 90 32 60
        E 120 80 32 00
        E 1320 90 37 60
        E 120 80 37 00
        E 1320 90 32 60
        E 120 80 32 00
        E 360 90 32 60
        E 120 80 32 00
        E 360 90 32 60
        E 120 80 32 00
        E 1080 90 34 60
        E 120 80 34 00
        E 2040 90 32 60
        E 120 80 32 00
        E 360 90 32 60
        E 120 80 32 00
        E 1320 90 37 60
        E 120 80 37 00
        E 360 90 37 60
        E 120 80 37 00
        E 840 90 32 60
        E 120 80 32 00
        E 360 90 32 60
        E 120 80 32 00
        E 360 90 32 60
        E 120 80 32 00
        E 1080 90 34 60
        E 120 80 34 00
        E 2040 90 32 60
        E 120 80 32 00
        E 360 90 32 60
        E 120 80 32 00
        E 1320 90 37 60
        E 120 80 37 00
        E 1320 90 32 60
        E 120 80 32 00
        E 360 90 32 60
        E 120 80 32 00
        E 360 90 32 60
        E 120 80 32 00
        E 1080 90 34 60
        E 120 80 34 00
        E 2040 90 32 60
        E 120 80 32 00
        E 360 90 32 60
        E 120 80 32 00
        E 1320 90 37 60
        E 120 80 37 00
        E 360 90 37 60
        E 120 80 37 00
        E 840 90 32 60
        E 120 80 32 00
        E 360 90 32 60
        E 120 80 32 00
        E 360 90 32 60
        E 120 80 32 00
        E 1080 90 34 60
        E 120 80 34 00
        E 14519 b0 7b 00
        GUID {7340145F-41E7-40E2-B4A6-0787B1693CCA}
        IGNTEMPO 0 120.00000000 4 4
        SRCCOLOR 12
        VELLANE 132 71 60
        COLORMAP "C:\Program Files\REAPER (x64)\Data\color_maps\rockband_guitarbass.png"
        CFGEDITVIEW 0.000000 2.857942 0 12 0 0 0
        CFGEDIT 1 1 0 1 1 0 1 1 1 1 1 0.25000000 100 100 1200 800 0 2 2 1 0.00000000 0 1 1 0 0.500000 0 0 1.000000 64
        KEYSNAP 0 6 "102030050700" 0 "Pentatonic"
        EVTFILTER 0 -1 -1 -1 -1 0 1 0 0 -1.00000000 -1.00000000
      >
    >
  >
  <TRACK '{CE1252A3-3C77-4769-AAD0-5A62AEA71321}'
    NAME "PART KEYS_ANIM_RH"
    PEAKCOL 16576
    BEAT -1
    AUTOMODE 0
    VOLPAN 1.00000000000000 0.00000000000000 -1.00000000000000 -1.00000000000000 1.00000000000000
    MUTESOLO 0 0 0
    IPHASE 0
    ISBUS 0 0
    BUSCOMP 0 0
    SHOWINMIX 1 0.666700 0.500000 1 0.500000 -1 -1 -1
    FREEMODE 0
    SEL 0
    REC 0 0 0 0 0 0 0
    VU 2
    TRACKHEIGHT 0 0
    INQ 0 0 0 0.5000000000 100 0 0 100
    NCHAN 2
    FX 1
    TRACKID {CE1252A3-3C77-4769-AAD0-5A62AEA71321}
    PERF 0
    MIDIOUT -1
    <MIDINOTENAMES
      0 72 "Highest playable note B#3"
      0 71 "B3"
      0 70 "A#3"
      0 69 "A3"
      0 68 "G#3"
      0 67 "G3"
      0 66 "F#3"
      0 65 "F3"
      0 64 "E3"
      0 63 "D#3"
      0 62 "D3"
      0 61 "C#3"
      0 60 "C3"
      0 59 "B2"
      0 58 "A#2"
      0 57 "A2"
      0 56 "G#2"
      0 55 "G2"
      0 54 "F#2"
      0 53 "F2"
      0 52 "E2"
      0 51 "D#2"
      0 50 "D2"
      0 49 "C#2"
      0 48 "Lowest playable note C2"
    >
    MAINSEND 1 0
    <FXCHAIN
      SHOW 0
      LASTSEL 0
      DOCKED 0
    >
    <ITEM
      POSITION 0.00000000000000
      SNAPOFFS 0.00000000000000
      LENGTH 249.33300000000000
      LOOP 0
      ALLTAKES 0
      SEL 0
      FADEIN 1 0.000000 0.000000 1 0
      FADEOUT 1 0.000000 0.000000 1 0
      MUTE 0
      IGUID {E34EE970-4DFA-454D-AC00-2A6780BE7B08}
      IID 11
      NAME "PART KEYS_ANIM_RH"
      VOLPAN 1.000000 0.000000 1.000000 -1.000000
      SOFFS 0.00000000000000 0.00000000000000
      PLAYRATE 1.00000000000000 1 0.00000000000000 -1
      CHANMODE 0
      GUID {526B35FF-15DC-44DD-B992-DAC5DC1D4D96}
      <SOURCE MIDI
        HASDATA 1 480 QN
        POOLEDEVTS {F922FF20-F0A7-4D78-A613-CF7DD3728532}
        <X 0 0
          /wNQQVJUIEtFWVNfQU5JTV9SSA==
        >
        E 8640 90 32 60
        E 120 80 32 00
        E 120 90 30 60
        E 120 80 30 00
        E 120 90 32 60
        E 120 80 32 00
        E 120 90 34 60
        E 120 80 34 00
        E 360 90 32 60
        E 120 80 32 00
        E 120 90 34 60
        E 120 80 34 00
        E 120 90 32 60
        E 120 80 32 00
        E 120 90 37 60
        E 120 80 37 00
        E 120 90 34 60
        E 120 80 34 00
        E 120 90 32 60
        E 120 80 32 00
        E 120 90 30 60
        E 120 80 30 00
        E 360 90 30 60
        E 120 80 30 00
        E 120 90 32 60
        E 120 80 32 00
        E 120 90 30 60
        E 120 80 30 00
        E 120 90 32 60
        E 120 80 32 00
        E 120 90 30 60
        E 120 80 30 00
        E 120 90 32 60
        E 120 80 32 00
        E 120 90 34 60
        E 120 80 34 00
        E 360 90 37 60
        E 120 80 37 00
        E 360 90 34 60
        E 120 80 34 00
        E 360 90 32 60
        E 120 80 32 00
        E 1560 90 32 60
        E 120 80 32 00
        E 120 90 30 60
        E 120 80 30 00
        E 120 90 32 60
        E 120 80 32 00
        E 120 90 34 60
        E 120 80 34 00
        E 360 90 32 60
        E 120 80 32 00
        E 120 90 34 60
        E 120 80 34 00
        E 120 90 32 60
        E 120 80 32 00
        E 120 90 37 60
        E 120 80 37 00
        E 120 90 34 60
        E 120 80 34 00
        E 120 90 37 60
        E 120 80 37 00
        E 120 90 39 60
        E 120 80 39 00
        E 360 90 30 60
        E 120 80 30 00
        E 120 90 32 60
        E 120 80 32 00
        E 120 90 30 60
        E 120 80 30 00
        E 120 90 32 60
        E 120 80 32 00
        E 120 90 30 60
        E 120 80 30 00
        E 120 90 32 60
        E 120 80 32 00
        E 120 90 34 60
        E 120 80 34 00
        E 360 90 37 60
        E 120 80 37 00
        E 360 90 34 60
        E 120 80 34 00
        E 360 90 32 60
        E 120 80 32 00
        E 600 90 34 60
        E 120 80 34 00
        E 360 90 37 60
        E 120 80 37 00
        E 360 90 34 60
        E 120 80 34 00
        E 360 90 37 60
        E 120 80 37 00
        E 360 90 34 60
        E 120 80 34 00
        E 360 90 37 60
        E 120 80 37 00
        E 120 90 34 60
        E 120 80 34 00
        E 360 90 32 60
        E 120 80 32 00
        E 600 90 30 60
        E 120 80 30 00
        E 120 90 32 60
        E 120 80 32 00
        E 120 90 34 60
        E 120 80 34 00
        E 120 90 37 60
        E 120 80 37 00
        E 360 90 34 60
        E 120 80 34 00
        E 120 90 37 60
        E 120 80 37 00
        E 120 90 34 60
        E 120 80 34 00
        E 120 90 32 60
        E 120 80 32 00
        E 120 90 34 60
        E 120 80 34 00
        E 120 90 37 60
        E 120 80 37 00
        E 120 90 39 60
        E 120 80 39 00
        E 360 90 32 60
        E 120 80 32 00
        E 120 90 30 60
        E 120 80 30 00
        E 120 90 32 60
        E 120 80 32 00
        E 120 90 30 60
        E 120 80 30 00
        E 120 90 32 60
        E 120 80 32 00
        E 120 90 34 60
        E 120 80 34 00
        E 120 90 37 60
        E 120 80 37 00
        E 120 90 34 60
        E 120 80 34 00
        E 120 90 37 60
        E 120 80 37 00
        E 120 90 39 60
        E 120 80 39 00
        E 120 90 3c 60
        E 120 80 3c 00
        E 360 90 39 60
        E 120 80 39 00
        E 360 90 3c 60
        E 120 80 3c 00
        E 360 90 39 60
        E 120 80 39 00
        E 120 90 3b 60
        E 120 80 3b 00
        E 120 90 3e 60
        E 120 80 3e 00
        E 120 90 3c 60
        E 120 80 3c 00
        E 120 90 39 60
        E 120 80 39 00
        E 360 90 39 60
        E 120 80 39 00
        E 120 90 3c 60
        E 120 80 3c 00
        E 120 90 3e 60
        E 120 80 3e 00
        E 120 90 40 60
        E 120 80 40 00
        E 120 90 3c 60
        E 1680 80 3c 00
        E 480 90 34 60
        E 120 80 34 00
        E 360 90 37 60
        E 120 80 37 00
        E 360 90 34 60
        E 120 80 34 00
        E 360 90 37 60
        E 120 80 37 00
        E 360 90 34 60
        E 120 80 34 00
        E 360 90 37 60
        E 120 80 37 00
        E 120 90 34 60
        E 120 80 34 00
        E 360 90 32 60
        E 120 80 32 00
        E 600 90 30 60
        E 120 80 30 00
        E 120 90 32 60
        E 120 80 32 00
        E 120 90 34 60
        E 120 80 34 00
        E 120 90 37 60
        E 120 80 37 00
        E 360 90 34 60
        E 120 80 34 00
        E 120 90 37 60
        E 120 80 37 00
        E 120 90 34 60
        E 120 80 34 00
        E 120 90 32 60
        E 120 80 32 00
        E 120 90 34 60
        E 120 80 34 00
        E 120 90 37 60
        E 120 80 37 00
        E 120 90 39 60
        E 120 80 39 00
        E 360 90 32 60
        E 120 80 32 00
        E 120 90 30 60
        E 120 80 30 00
        E 120 90 32 60
        E 120 80 32 00
        E 120 90 30 60
        E 120 80 30 00
        E 120 90 32 60
        E 120 80 32 00
        E 120 90 34 60
        E 120 80 34 00
        E 120 90 37 60
        E 120 80 37 00
        E 120 90 34 60
        E 120 80 34 00
        E 120 90 37 60
        E 120 80 37 00
        E 120 90 39 60
        E 120 80 39 00
        E 120 90 3c 60
        E 120 80 3c 00
        E 360 90 39 60
        E 120 80 39 00
        E 360 90 3c 60
        E 120 80 3c 00
        E 360 90 39 60
        E 120 80 39 00
        E 120 90 3b 60
        E 120 80 3b 00
        E 120 90 3e 60
        E 120 80 3e 00
        E 120 90 3c 60
        E 120 80 3c 00
        E 120 90 39 60
        E 120 80 39 00
        E 360 90 39 60
        E 120 80 39 00
        E 120 90 3c 60
        E 120 80 3c 00
        E 120 90 3e 60
        E 120 80 3e 00
        E 120 90 40 60
        E 120 80 40 00
        E 120 90 3c 60
        E 1680 80 3c 00
        E 480 90 34 60
        E 1560 80 34 00
        E 120 90 37 60
        E 120 80 37 00
        E 360 90 34 60
        E 120 80 34 00
        E 360 90 3b 60
        E 120 80 3b 00
        E 360 90 3c 60
        E 120 80 3c 00
        E 360 90 39 60
        E 120 80 39 00
        E 360 90 39 60
        E 120 80 39 00
        E 120 90 3b 60
        E 120 80 3b 00
        E 120 90 39 60
        E 120 80 39 00
        E 120 90 3c 60
        E 120 80 3c 00
        E 120 90 3b 60
        E 120 80 3b 00
        E 120 90 39 60
        E 120 80 39 00
        E 120 90 34 60
        E 120 80 34 00
        E 360 90 39 60
        E 120 80 39 00
        E 120 90 3b 60
        E 120 80 3b 00
        E 120 90 39 60
        E 120 80 39 00
        E 120 90 3c 60
        E 120 80 3c 00
        E 120 90 39 60
        E 120 80 39 00
        E 120 90 3c 60
        E 120 80 3c 00
        E 120 90 3e 60
        E 120 80 3e 00
        E 1080 90 39 60
        E 600 80 39 00
        E 120 90 3c 60
        E 120 80 3c 00
        E 360 90 3e 60
        E 120 80 3e 00
        E 360 90 3b 60
        E 120 80 3b 00
        E 360 90 3c 60
        E 120 80 3c 00
        E 360 90 39 60
        E 120 80 39 00
        E 360 90 39 60
        E 120 80 39 00
        E 120 90 3b 60
        E 120 80 3b 00
        E 120 90 39 60
        E 120 80 39 00
        E 120 90 3e 60
        E 120 80 3e 00
        E 120 90 3c 60
        E 120 80 3c 00
        E 120 90 3b 60
        E 120 80 3b 00
        E 120 90 37 60
        E 120 80 37 00
        E 360 90 39 60
        E 120 80 39 00
        E 120 90 3b 60
        E 120 80 3b 00
        E 120 90 39 60
        E 120 80 39 00
        E 120 90 3c 60
        E 120 80 3c 00
        E 120 90 39 60
        E 120 80 39 00
        E 120 90 3c 60
        E 120 80 3c 00
        E 120 90 3e 60
        E 120 80 3e 00
        E 600 90 32 60
        E 120 80 32 00
        E 360 90 34 60
        E 120 80 34 00
        E 360 90 37 60
        E 120 80 37 00
        E 360 90 39 60
        E 120 80 39 00
        E 120 90 34 60
        E 120 80 34 00
        E 360 90 3b 60
        E 120 80 3b 00
        E 360 90 3c 60
        E 120 80 3c 00
        E 360 90 3e 60
        E 120 80 3e 00
        E 360 90 39 60
        E 120 80 39 00
        E 120 90 3b 60
        E 120 80 3b 00
        E 120 90 39 60
        E 120 80 39 00
        E 120 90 3c 60
        E 120 80 3c 00
        E 120 90 3b 60
        E 120 80 3b 00
        E 120 90 39 60
        E 120 80 39 00
        E 120 90 34 60
        E 120 80 34 00
        E 360 90 39 60
        E 120 80 39 00
        E 120 90 3b 60
        E 120 80 3b 00
        E 120 90 39 60
        E 120 80 39 00
        E 120 90 3c 60
        E 120 80 3c 00
        E 120 90 39 60
        E 120 80 39 00
        E 120 90 3b 60
        E 120 80 3b 00
        E 120 90 3c 60
        E 120 80 3c 00
        E 120 90 39 60
        E 120 80 39 00
        E 360 90 3b 60
        E 120 80 3b 00
        E 360 90 3c 60
        E 120 80 3c 00
        E 360 90 3b 60
        E 120 80 3b 00
        E 360 90 3c 60
        E 120 80 3c 00
        E 360 90 3e 60
        E 120 80 3e 00
        E 360 90 3c 60
        E 120 80 3c 00
        E 360 90 39 60
        E 120 80 39 00
        E 120 90 34 60
        E 120 80 34 00
        E 360 90 30 60
        E 120 80 30 00
        E 120 90 32 60
        E 120 80 32 00
        E 120 90 30 60
        E 120 80 30 00
        E 120 90 32 60
        E 120 80 32 00
        E 120 90 30 60
        E 120 80 30 00
        E 120 90 32 60
        E 120 80 32 00
        E 120 90 34 60
        E 120 80 34 00
        E 600 90 30 60
        E 120 80 30 00
        E 120 90 34 60
        E 120 80 34 00
        E 360 90 37 60
        E 720 80 37 00
        E 960 90 32 60
        E 120 80 32 00
        E 120 90 30 60
        E 120 80 30 00
        E 120 90 32 60
        E 120 80 32 00
        E 120 90 34 60
        E 120 80 34 00
        E 360 90 32 60
        E 120 80 32 00
        E 120 90 34 60
        E 120 80 34 00
        E 120 90 32 60
        E 120 80 32 00
        E 120 90 37 60
        E 120 80 37 00
        E 120 90 34 60
        E 120 80 34 00
        E 120 90 32 60
        E 120 80 32 00
        E 120 90 30 60
        E 120 80 30 00
        E 360 90 30 60
        E 120 80 30 00
        E 120 90 32 60
        E 120 80 32 00
        E 120 90 30 60
        E 120 80 30 00
        E 120 90 32 60
        E 120 80 32 00
        E 120 90 30 60
        E 120 80 30 00
        E 120 90 32 60
        E 120 80 32 00
        E 120 90 34 60
        E 120 80 34 00
        E 360 90 37 60
        E 120 80 37 00
        E 360 90 34 60
        E 120 80 34 00
        E 360 90 32 60
        E 120 80 32 00
        E 1560 90 32 60
        E 120 80 32 00
        E 120 90 30 60
        E 120 80 30 00
        E 120 90 32 60
        E 120 80 32 00
        E 120 90 34 60
        E 120 80 34 00
        E 360 90 32 60
        E 120 80 32 00
        E 120 90 34 60
        E 120 80 34 00
        E 120 90 32 60
        E 120 80 32 00
        E 120 90 37 60
        E 120 80 37 00
        E 120 90 34 60
        E 120 80 34 00
        E 120 90 37 60
        E 120 80 37 00
        E 120 90 39 60
        E 120 80 39 00
        E 360 90 30 60
        E 120 80 30 00
        E 120 90 32 60
        E 120 80 32 00
        E 120 90 30 60
        E 120 80 30 00
        E 120 90 32 60
        E 120 80 32 00
        E 120 90 30 60
        E 120 80 30 00
        E 120 90 32 60
        E 120 80 32 00
        E 120 90 34 60
        E 120 80 34 00
        E 360 90 37 60
        E 120 80 37 00
        E 360 90 34 60
        E 120 80 34 00
        E 360 90 32 60
        E 120 80 32 00
        E 600 90 34 60
        E 120 80 34 00
        E 360 90 37 60
        E 120 80 37 00
        E 360 90 34 60
        E 120 80 34 00
        E 360 90 37 60
        E 120 80 37 00
        E 360 90 34 60
        E 120 80 34 00
        E 360 90 37 60
        E 120 80 37 00
        E 120 90 34 60
        E 120 80 34 00
        E 360 90 32 60
        E 120 80 32 00
        E 600 90 30 60
        E 120 80 30 00
        E 120 90 32 60
        E 120 80 32 00
        E 120 90 34 60
        E 120 80 34 00
        E 120 90 37 60
        E 120 80 37 00
        E 360 90 34 60
        E 120 80 34 00
        E 120 90 37 60
        E 120 80 37 00
        E 120 90 34 60
        E 120 80 34 00
        E 120 90 32 60
        E 120 80 32 00
        E 120 90 34 60
        E 120 80 34 00
        E 120 90 37 60
        E 120 80 37 00
        E 120 90 39 60
        E 120 80 39 00
        E 360 90 32 60
        E 120 80 32 00
        E 120 90 30 60
        E 120 80 30 00
        E 120 90 32 60
        E 120 80 32 00
        E 120 90 30 60
        E 120 80 30 00
        E 120 90 32 60
        E 120 80 32 00
        E 120 90 34 60
        E 120 80 34 00
        E 120 90 37 60
        E 120 80 37 00
        E 120 90 34 60
        E 120 80 34 00
        E 120 90 37 60
        E 120 80 37 00
        E 120 90 39 60
        E 120 80 39 00
        E 120 90 3c 60
        E 120 80 3c 00
        E 360 90 39 60
        E 120 80 39 00
        E 360 90 3c 60
        E 120 80 3c 00
        E 360 90 39 60
        E 120 80 39 00
        E 120 90 3b 60
        E 120 80 3b 00
        E 120 90 3e 60
        E 120 80 3e 00
        E 120 90 3c 60
        E 120 80 3c 00
        E 120 90 39 60
        E 120 80 39 00
        E 360 90 39 60
        E 120 80 39 00
        E 120 90 3c 60
        E 120 80 3c 00
        E 120 90 3e 60
        E 120 80 3e 00
        E 120 90 40 60
        E 120 80 40 00
        E 120 90 3c 60
        E 1680 80 3c 00
        E 480 90 34 60
        E 120 80 34 00
        E 360 90 37 60
        E 120 80 37 00
        E 360 90 34 60
        E 120 80 34 00
        E 360 90 37 60
        E 120 80 37 00
        E 360 90 34 60
        E 120 80 34 00
        E 360 90 37 60
        E 120 80 37 00
        E 120 90 34 60
        E 120 80 34 00
        E 360 90 32 60
        E 120 80 32 00
        E 600 90 30 60
        E 120 80 30 00
        E 120 90 32 60
        E 120 80 32 00
        E 120 90 34 60
        E 120 80 34 00
        E 120 90 37 60
        E 120 80 37 00
        E 360 90 34 60
        E 120 80 34 00
        E 120 90 37 60
        E 120 80 37 00
        E 120 90 34 60
        E 120 80 34 00
        E 120 90 32 60
        E 120 80 32 00
        E 120 90 34 60
        E 120 80 34 00
        E 120 90 37 60
        E 120 80 37 00
        E 120 90 39 60
        E 120 80 39 00
        E 360 90 32 60
        E 120 80 32 00
        E 120 90 30 60
        E 120 80 30 00
        E 120 90 32 60
        E 120 80 32 00
        E 120 90 30 60
        E 120 80 30 00
        E 120 90 32 60
        E 120 80 32 00
        E 120 90 34 60
        E 120 80 34 00
        E 120 90 37 60
        E 120 80 37 00
        E 120 90 34 60
        E 120 80 34 00
        E 120 90 37 60
        E 120 80 37 00
        E 120 90 39 60
        E 120 80 39 00
        E 120 90 3c 60
        E 120 80 3c 00
        E 360 90 39 60
        E 120 80 39 00
        E 360 90 3c 60
        E 120 80 3c 00
        E 360 90 39 60
        E 120 80 39 00
        E 120 90 3b 60
        E 120 80 3b 00
        E 120 90 3e 60
        E 120 80 3e 00
        E 120 90 3c 60
        E 120 80 3c 00
        E 120 90 39 60
        E 120 80 39 00
        E 360 90 39 60
        E 120 80 39 00
        E 120 90 3c 60
        E 120 80 3c 00
        E 120 90 3e 60
        E 120 80 3e 00
        E 120 90 40 60
        E 120 80 40 00
        E 120 90 3c 60
        E 1680 80 3c 00
        E 480 90 34 60
        E 1560 80 34 00
        E 120 90 37 60
        E 120 80 37 00
        E 360 90 34 60
        E 120 80 34 00
        E 360 90 3b 60
        E 120 80 3b 00
        E 360 90 3c 60
        E 120 80 3c 00
        E 360 90 39 60
        E 120 80 39 00
        E 360 90 39 60
        E 120 80 39 00
        E 120 90 3b 60
        E 120 80 3b 00
        E 120 90 39 60
        E 120 80 39 00
        E 120 90 3c 60
        E 120 80 3c 00
        E 120 90 3b 60
        E 120 80 3b 00
        E 120 90 39 60
        E 120 80 39 00
        E 120 90 34 60
        E 120 80 34 00
        E 360 90 39 60
        E 120 80 39 00
        E 120 90 3b 60
        E 120 80 3b 00
        E 120 90 39 60
        E 120 80 39 00
        E 120 90 3c 60
        E 120 80 3c 00
        E 120 90 39 60
        E 120 80 39 00
        E 120 90 3c 60
        E 120 80 3c 00
        E 120 90 3e 60
        E 120 80 3e 00
        E 1080 90 39 60
        E 600 80 39 00
        E 120 90 3c 60
        E 120 80 3c 00
        E 360 90 3e 60
        E 120 80 3e 00
        E 360 90 3b 60
        E 120 80 3b 00
        E 360 90 3c 60
        E 120 80 3c 00
        E 360 90 39 60
        E 120 80 39 00
        E 360 90 39 60
        E 120 80 39 00
        E 120 90 3b 60
        E 120 80 3b 00
        E 120 90 39 60
        E 120 80 39 00
        E 120 90 3e 60
        E 120 80 3e 00
        E 120 90 3c 60
        E 120 80 3c 00
        E 120 90 3b 60
        E 120 80 3b 00
        E 120 90 37 60
        E 120 80 37 00
        E 360 90 39 60
        E 120 80 39 00
        E 120 90 3b 60
        E 120 80 3b 00
        E 120 90 39 60
        E 120 80 39 00
        E 120 90 3c 60
        E 120 80 3c 00
        E 120 90 39 60
        E 120 80 39 00
        E 120 90 3c 60
        E 120 80 3c 00
        E 120 90 3e 60
        E 120 80 3e 00
        E 600 90 32 60
        E 120 80 32 00
        E 360 90 34 60
        E 120 80 34 00
        E 360 90 37 60
        E 120 80 37 00
        E 360 90 39 60
        E 120 80 39 00
        E 120 90 34 60
        E 120 80 34 00
        E 360 90 3b 60
        E 120 80 3b 00
        E 360 90 3c 60
        E 120 80 3c 00
        E 360 90 3e 60
        E 120 80 3e 00
        E 360 90 39 60
        E 120 80 39 00
        E 120 90 3b 60
        E 120 80 3b 00
        E 120 90 39 60
        E 120 80 39 00
        E 120 90 3c 60
        E 120 80 3c 00
        E 120 90 3b 60
        E 120 80 3b 00
        E 120 90 39 60
        E 120 80 39 00
        E 120 90 34 60
        E 120 80 34 00
        E 360 90 39 60
        E 120 80 39 00
        E 120 90 3b 60
        E 120 80 3b 00
        E 120 90 39 60
        E 120 80 39 00
        E 120 90 3c 60
        E 120 80 3c 00
        E 120 90 39 60
        E 120 80 39 00
        E 120 90 3b 60
        E 120 80 3b 00
        E 120 90 3c 60
        E 120 80 3c 00
        E 120 90 39 60
        E 120 80 39 00
        E 360 90 3b 60
        E 120 80 3b 00
        E 360 90 3c 60
        E 120 80 3c 00
        E 360 90 3b 60
        E 120 80 3b 00
        E 360 90 3c 60
        E 120 80 3c 00
        E 360 90 3e 60
        E 120 80 3e 00
        E 360 90 3c 60
        E 120 80 3c 00
        E 360 90 39 60
        E 120 80 39 00
        E 120 90 40 60
        E 120 80 40 00
        E 360 90 3c 60
        E 120 80 3c 00
        E 120 90 3e 60
        E 120 80 3e 00
        E 120 90 3c 60
        E 120 80 3c 00
        E 120 90 3e 60
        E 120 80 3e 00
        E 120 90 3c 60
        E 120 80 3c 00
        E 120 90 3e 60
        E 120 80 3e 00
        E 120 90 40 60
        E 120 80 40 00
        E 600 90 3c 60
        E 120 80 3c 00
        E 120 90 40 60
        E 120 80 40 00
        E 360 90 3e 60
        E 120 80 3e 00
        E 600 90 3c 60
        E 120 80 3c 00
        E 120 90 3e 60
        E 120 80 3e 00
        E 120 90 40 60
        E 120 80 40 00
        E 120 90 3e 60
        E 120 80 3e 00
        E 360 90 3c 60
        E 120 80 3c 00
        E 360 90 39 60
        E 120 80 39 00
        E 120 90 3c 60
        E 120 80 3c 00
        E 120 90 39 60
        E 120 80 39 00
        E 120 90 40 60
        E 120 80 40 00
        E 120 90 3e 60
        E 120 80 3e 00
        E 360 90 3c 60
        E 120 80 3c 00
        E 120 90 3e 60
        E 120 80 3e 00
        E 120 90 3c 60
        E 120 80 3c 00
        E 120 90 43 60
        E 120 80 43 00
        E 120 90 40 60
        E 120 80 40 00
        E 120 90 3e 60
        E 120 80 3e 00
        E 120 90 3c 60
        E 120 80 3c 00
        E 360 90 39 60
        E 120 80 39 00
        E 120 90 3c 60
        E 120 80 3c 00
        E 120 90 39 60
        E 120 80 39 00
        E 120 90 3c 60
        E 120 80 3c 00
        E 120 90 3e 60
        E 120 80 3e 00
        E 120 90 40 60
        E 120 80 40 00
        E 120 90 3e 60
        E 120 80 3e 00
        E 360 90 3c 60
        E 120 80 3c 00
        E 120 90 3e 60
        E 120 80 3e 00
        E 120 90 39 60
        E 120 80 39 00
        E 120 90 3c 60
        E 120 80 3c 00
        E 120 90 3e 60
        E 120 80 3e 00
        E 120 90 40 60
        E 120 80 40 00
        E 120 90 43 60
        E 120 80 43 00
        E 120 90 45 60
        E 120 80 45 00
        E 120 90 43 60
        E 120 80 43 00
        E 120 90 40 60
        E 120 80 40 00
        E 120 90 3e 60
        E 120 80 3e 00
        E 120 90 40 60
        E 120 80 40 00
        E 120 90 3e 60
        E 120 80 3e 00
        E 120 90 40 60
        E 120 80 40 00
        E 120 90 43 60
        E 120 80 43 00
        E 120 90 45 60
        E 120 80 45 00
        E 120 90 43 60
        E 120 80 43 00
        E 120 90 40 60
        E 120 80 40 00
        E 120 90 3e 60
        E 120 80 3e 00
        E 120 90 40 60
        E 120 80 40 00
        E 120 90 40 60
        E 120 80 40 00
        E 120 90 40 60
        E 120 80 40 00
        E 120 90 40 60
        E 120 80 40 00
        E 120 90 40 60
        E 120 80 40 00
        E 120 90 40 60
        E 120 80 40 00
        E 360 90 3e 60
        E 120 80 3e 00
        E 120 90 40 60
        E 120 80 40 00
        E 120 90 40 60
        E 120 80 40 00
        E 120 90 3e 60
        E 120 80 3e 00
        E 120 90 40 60
        E 120 80 40 00
        E 120 90 3e 60
        E 120 80 3e 00
        E 120 90 40 60
        E 120 80 40 00
        E 120 90 3e 60
        E 120 80 3e 00
        E 120 90 3e 60
        E 120 80 3e 00
        E 120 90 3c 60
        E 120 80 3c 00
        E 120 90 3e 60
        E 120 80 3e 00
        E 120 90 40 60
        E 120 80 40 00
        E 120 90 3e 60
        E 120 80 3e 00
        E 360 90 3c 60
        E 120 80 3c 00
        E 360 90 39 60
        E 120 80 39 00
        E 120 90 3c 60
        E 120 80 3c 00
        E 120 90 39 60
        E 120 80 39 00
        E 120 90 40 60
        E 120 80 40 00
        E 120 90 3e 60
        E 120 80 3e 00
        E 360 90 3c 60
        E 120 80 3c 00
        E 120 90 3e 60
        E 120 80 3e 00
        E 120 90 3c 60
        E 120 80 3c 00
        E 120 90 43 60
        E 120 80 43 00
        E 120 90 40 60
        E 120 80 40 00
        E 120 90 3e 60
        E 120 80 3e 00
        E 120 90 3c 60
        E 120 80 3c 00
        E 360 90 39 60
        E 120 80 39 00
        E 120 90 3c 60
        E 120 80 3c 00
        E 120 90 39 60
        E 120 80 39 00
        E 120 90 3c 60
        E 120 80 3c 00
        E 120 90 3e 60
        E 120 80 3e 00
        E 120 90 40 60
        E 120 80 40 00
        E 120 90 3e 60
        E 120 80 3e 00
        E 360 90 3c 60
        E 120 80 3c 00
        E 120 90 3e 60
        E 120 80 3e 00
        E 120 90 39 60
        E 120 80 39 00
        E 120 90 3c 60
        E 120 80 3c 00
        E 120 90 3e 60
        E 120 80 3e 00
        E 120 90 40 60
        E 120 80 40 00
        E 120 90 43 60
        E 120 80 43 00
        E 120 90 45 60
        E 120 80 45 00
        E 120 90 43 60
        E 120 80 43 00
        E 120 90 3c 60
        E 120 80 3c 00
        E 120 90 3e 60
        E 120 80 3e 00
        E 120 90 40 60
        E 120 80 40 00
        E 120 90 3e 60
        E 120 80 3e 00
        E 120 90 40 60
        E 120 80 40 00
        E 120 90 43 60
        E 120 80 43 00
        E 120 90 45 60
        E 120 80 45 00
        E 120 90 43 60
        E 120 80 43 00
        E 120 90 40 60
        E 120 80 40 00
        E 120 90 3e 60
        E 120 80 3e 00
        E 120 90 40 60
        E 120 80 40 00
        E 120 90 40 60
        E 120 80 40 00
        E 120 90 40 60
        E 120 80 40 00
        E 120 90 40 60
        E 120 80 40 00
        E 120 90 40 60
        E 120 80 40 00
        E 120 90 40 60
        E 120 80 40 00
        E 360 90 3e 60
        E 120 80 3e 00
        E 120 90 40 60
        E 120 80 40 00
        E 120 90 40 60
        E 120 80 40 00
        E 120 90 3e 60
        E 120 80 3e 00
        E 120 90 40 60
        E 120 80 40 00
        E 120 90 40 60
        E 120 80 40 00
        E 120 90 40 60
        E 120 80 40 00
        E 120 90 3e 60
        E 120 80 3e 00
        E 120 90 3b 60
        E 120 80 3b 00
        E 1080 90 32 60
        E 120 80 32 00
        E 120 90 30 60
        E 120 80 30 00
        E 120 90 32 60
        E 120 80 32 00
        E 120 90 34 60
        E 120 80 34 00
        E 360 90 32 60
        E 120 80 32 00
        E 120 90 34 60
        E 120 80 34 00
        E 120 90 32 60
        E 120 80 32 00
        E 120 90 37 60
        E 120 80 37 00
        E 120 90 34 60
        E 120 80 34 00
        E 120 90 32 60
        E 120 80 32 00
        E 120 90 30 60
        E 120 80 30 00
        E 360 90 30 60
        E 120 80 30 00
        E 120 90 32 60
        E 120 80 32 00
        E 120 90 30 60
        E 120 80 30 00
        E 120 90 32 60
        E 120 80 32 00
        E 120 90 30 60
        E 120 80 30 00
        E 120 90 32 60
        E 120 80 32 00
        E 120 90 34 60
        E 120 80 34 00
        E 360 90 37 60
        E 120 80 37 00
        E 360 90 34 60
        E 120 80 34 00
        E 360 90 32 60
        E 120 80 32 00
        E 1560 90 32 60
        E 120 80 32 00
        E 120 90 30 60
        E 120 80 30 00
        E 120 90 32 60
        E 120 80 32 00
        E 120 90 34 60
        E 120 80 34 00
        E 360 90 32 60
        E 120 80 32 00
        E 120 90 34 60
        E 120 80 34 00
        E 120 90 32 60
        E 120 80 32 00
        E 120 90 37 60
        E 120 80 37 00
        E 120 90 34 60
        E 120 80 34 00
        E 120 90 37 60
        E 120 80 37 00
        E 120 90 39 60
        E 120 80 39 00
        E 360 90 30 60
        E 120 80 30 00
        E 120 90 32 60
        E 120 80 32 00
        E 120 90 30 60
        E 120 80 30 00
        E 120 90 32 60
        E 120 80 32 00
        E 120 90 30 60
        E 120 80 30 00
        E 120 90 32 60
        E 120 80 32 00
        E 120 90 34 60
        E 120 80 34 00
        E 360 90 37 60
        E 120 80 37 00
        E 360 90 34 60
        E 120 80 34 00
        E 360 90 32 60
        E 120 80 32 00
        E 1560 90 32 60
        E 120 80 32 00
        E 120 90 30 60
        E 120 80 30 00
        E 120 90 32 60
        E 120 80 32 00
        E 120 90 34 60
        E 120 80 34 00
        E 360 90 32 60
        E 120 80 32 00
        E 120 90 34 60
        E 120 80 34 00
        E 120 90 32 60
        E 120 80 32 00
        E 120 90 37 60
        E 120 80 37 00
        E 120 90 34 60
        E 120 80 34 00
        E 120 90 32 60
        E 120 80 32 00
        E 120 90 30 60
        E 120 80 30 00
        E 360 90 30 60
        E 120 80 30 00
        E 120 90 32 60
        E 120 80 32 00
        E 120 90 30 60
        E 120 80 30 00
        E 120 90 32 60
        E 120 80 32 00
        E 120 90 30 60
        E 120 80 30 00
        E 120 90 32 60
        E 120 80 32 00
        E 120 90 34 60
        E 120 80 34 00
        E 360 90 37 60
        E 120 80 37 00
        E 360 90 34 60
        E 120 80 34 00
        E 360 90 32 60
        E 120 80 32 00
        E 1560 90 32 60
        E 120 80 32 00
        E 120 90 30 60
        E 120 80 30 00
        E 120 90 32 60
        E 120 80 32 00
        E 120 90 34 60
        E 120 80 34 00
        E 360 90 32 60
        E 120 80 32 00
        E 120 90 34 60
        E 120 80 34 00
        E 120 90 32 60
        E 120 80 32 00
        E 120 90 37 60
        E 120 80 37 00
        E 120 90 34 60
        E 120 80 34 00
        E 120 90 37 60
        E 120 80 37 00
        E 120 90 39 60
        E 120 80 39 00
        E 360 90 30 60
        E 120 80 30 00
        E 120 90 32 60
        E 120 80 32 00
        E 120 90 30 60
        E 120 80 30 00
        E 120 90 32 60
        E 120 80 32 00
        E 120 90 30 60
        E 120 80 30 00
        E 120 90 32 60
        E 120 80 32 00
        E 120 90 34 60
        E 120 80 34 00
        E 360 90 37 60
        E 120 80 37 00
        E 360 90 34 60
        E 120 80 34 00
        E 360 90 32 60
        E 120 80 32 00
        E 600 90 3c 60
        E 120 80 3c 00
        E 120 90 3e 60
        E 120 80 3e 00
        E 120 90 40 60
        E 120 80 40 00
        E 120 90 3e 60
        E 120 80 3e 00
        E 360 90 3c 60
        E 120 80 3c 00
        E 360 90 39 60
        E 120 80 39 00
        E 120 90 3c 60
        E 120 80 3c 00
        E 120 90 39 60
        E 120 80 39 00
        E 120 90 40 60
        E 120 80 40 00
        E 120 90 3e 60
        E 120 80 3e 00
        E 360 90 3c 60
        E 120 80 3c 00
        E 120 90 3e 60
        E 120 80 3e 00
        E 120 90 3c 60
        E 120 80 3c 00
        E 120 90 43 60
        E 120 80 43 00
        E 120 90 40 60
        E 120 80 40 00
        E 120 90 3e 60
        E 120 80 3e 00
        E 120 90 3c 60
        E 120 80 3c 00
        E 360 90 39 60
        E 120 80 39 00
        E 120 90 3c 60
        E 120 80 3c 00
        E 120 90 39 60
        E 120 80 39 00
        E 120 90 3c 60
        E 120 80 3c 00
        E 120 90 3e 60
        E 120 80 3e 00
        E 120 90 40 60
        E 120 80 40 00
        E 120 90 3e 60
        E 120 80 3e 00
        E 360 90 3c 60
        E 120 80 3c 00
        E 120 90 3e 60
        E 120 80 3e 00
        E 120 90 39 60
        E 120 80 39 00
        E 120 90 3c 60
        E 120 80 3c 00
        E 120 90 3e 60
        E 120 80 3e 00
        E 120 90 40 60
        E 120 80 40 00
        E 120 90 43 60
        E 120 80 43 00
        E 120 90 45 60
        E 120 80 45 00
        E 120 90 43 60
        E 120 80 43 00
        E 120 90 40 60
        E 120 80 40 00
        E 120 90 3e 60
        E 120 80 3e 00
        E 120 90 40 60
        E 120 80 40 00
        E 120 90 3e 60
        E 120 80 3e 00
        E 120 90 40 60
        E 120 80 40 00
        E 120 90 43 60
        E 120 80 43 00
        E 120 90 45 60
        E 120 80 45 00
        E 120 90 43 60
        E 120 80 43 00
        E 120 90 40 60
        E 120 80 40 00
        E 120 90 3e 60
        E 120 80 3e 00
        E 120 90 40 60
        E 120 80 40 00
        E 120 90 40 60
        E 120 80 40 00
        E 120 90 40 60
        E 120 80 40 00
        E 120 90 40 60
        E 120 80 40 00
        E 120 90 40 60
        E 120 80 40 00
        E 120 90 40 60
        E 120 80 40 00
        E 360 90 3e 60
        E 120 80 3e 00
        E 120 90 40 60
        E 120 80 40 00
        E 120 90 40 60
        E 120 80 40 00
        E 120 90 3e 60
        E 120 80 3e 00
        E 120 90 40 60
        E 120 80 40 00
        E 120 90 3e 60
        E 120 80 3e 00
        E 120 90 40 60
        E 120 80 40 00
        E 120 90 3e 60
        E 120 80 3e 00
        E 120 90 3e 60
        E 120 80 3e 00
        E 120 90 3c 60
        E 120 80 3c 00
        E 120 90 3e 60
        E 120 80 3e 00
        E 120 90 40 60
        E 120 80 40 00
        E 120 90 3e 60
        E 120 80 3e 00
        E 360 90 3c 60
        E 120 80 3c 00
        E 360 90 39 60
        E 120 80 39 00
        E 120 90 3c 60
        E 120 80 3c 00
        E 120 90 39 60
        E 120 80 39 00
        E 120 90 40 60
        E 120 80 40 00
        E 120 90 3e 60
        E 120 80 3e 00
        E 360 90 3c 60
        E 120 80 3c 00
        E 120 90 3e 60
        E 120 80 3e 00
        E 120 90 3c 60
        E 120 80 3c 00
        E 120 90 43 60
        E 120 80 43 00
        E 120 90 40 60
        E 120 80 40 00
        E 120 90 3e 60
        E 120 80 3e 00
        E 120 90 3c 60
        E 120 80 3c 00
        E 360 90 39 60
        E 120 80 39 00
        E 120 90 3c 60
        E 120 80 3c 00
        E 120 90 39 60
        E 120 80 39 00
        E 120 90 3c 60
        E 120 80 3c 00
        E 120 90 3e 60
        E 120 80 3e 00
        E 120 90 40 60
        E 120 80 40 00
        E 120 90 3e 60
        E 120 80 3e 00
        E 360 90 3c 60
        E 120 80 3c 00
        E 120 90 3e 60
        E 120 80 3e 00
        E 120 90 39 60
        E 120 80 39 00
        E 120 90 3c 60
        E 120 80 3c 00
        E 120 90 3e 60
        E 120 80 3e 00
        E 120 90 40 60
        E 120 80 40 00
        E 120 90 43 60
        E 120 80 43 00
        E 120 90 45 60
        E 120 80 45 00
        E 120 90 43 60
        E 120 80 43 00
        E 120 90 3c 60
        E 120 80 3c 00
        E 120 90 3e 60
        E 120 80 3e 00
        E 120 90 40 60
        E 120 80 40 00
        E 120 90 3e 60
        E 120 80 3e 00
        E 120 90 40 60
        E 120 80 40 00
        E 120 90 43 60
        E 120 80 43 00
        E 120 90 45 60
        E 120 80 45 00
        E 120 90 43 60
        E 120 80 43 00
        E 120 90 40 60
        E 120 80 40 00
        E 120 90 3e 60
        E 120 80 3e 00
        E 120 90 40 60
        E 120 80 40 00
        E 120 90 40 60
        E 120 80 40 00
        E 120 90 40 60
        E 120 80 40 00
        E 120 90 40 60
        E 120 80 40 00
        E 120 90 40 60
        E 120 80 40 00
        E 120 90 40 60
        E 120 80 40 00
        E 360 90 3e 60
        E 120 80 3e 00
        E 120 90 40 60
        E 120 80 40 00
        E 120 90 40 60
        E 120 80 40 00
        E 120 90 3e 60
        E 120 80 3e 00
        E 120 90 40 60
        E 120 80 40 00
        E 120 90 40 60
        E 120 80 40 00
        E 120 90 40 60
        E 120 80 40 00
        E 120 90 3e 60
        E 120 80 3e 00
        E 120 90 3b 60
        E 120 80 3b 00
        E 120 90 3c 60
        E 120 80 3c 00
        E 120 90 3e 60
        E 120 80 3e 00
        E 120 90 40 60
        E 120 80 40 00
        E 120 90 3e 60
        E 120 80 3e 00
        E 360 90 3c 60
        E 120 80 3c 00
        E 360 90 39 60
        E 120 80 39 00
        E 120 90 3c 60
        E 120 80 3c 00
        E 120 90 39 60
        E 120 80 39 00
        E 120 90 40 60
        E 120 80 40 00
        E 120 90 3e 60
        E 120 80 3e 00
        E 360 90 3c 60
        E 120 80 3c 00
        E 120 90 3e 60
        E 120 80 3e 00
        E 120 90 3c 60
        E 120 80 3c 00
        E 120 90 43 60
        E 120 80 43 00
        E 120 90 40 60
        E 120 80 40 00
        E 120 90 3e 60
        E 120 80 3e 00
        E 120 90 3c 60
        E 120 80 3c 00
        E 360 90 39 60
        E 120 80 39 00
        E 120 90 3c 60
        E 120 80 3c 00
        E 120 90 39 60
        E 120 80 39 00
        E 120 90 3c 60
        E 120 80 3c 00
        E 120 90 3e 60
        E 120 80 3e 00
        E 120 90 40 60
        E 120 80 40 00
        E 120 90 3e 60
        E 120 80 3e 00
        E 360 90 3c 60
        E 120 80 3c 00
        E 120 90 3e 60
        E 120 80 3e 00
        E 120 90 39 60
        E 120 80 39 00
        E 120 90 3c 60
        E 120 80 3c 00
        E 120 90 3e 60
        E 120 80 3e 00
        E 120 90 40 60
        E 120 80 40 00
        E 120 90 43 60
        E 120 80 43 00
        E 120 90 45 60
        E 120 80 45 00
        E 120 90 43 60
        E 120 80 43 00
        E 120 90 40 60
        E 120 80 40 00
        E 120 90 3e 60
        E 120 80 3e 00
        E 120 90 40 60
        E 120 80 40 00
        E 120 90 3e 60
        E 120 80 3e 00
        E 120 90 40 60
        E 120 80 40 00
        E 120 90 43 60
        E 120 80 43 00
        E 120 90 45 60
        E 120 80 45 00
        E 120 90 43 60
        E 120 80 43 00
        E 120 90 40 60
        E 120 80 40 00
        E 120 90 3e 60
        E 120 80 3e 00
        E 120 90 40 60
        E 120 80 40 00
        E 120 90 40 60
        E 120 80 40 00
        E 120 90 40 60
        E 120 80 40 00
        E 120 90 40 60
        E 120 80 40 00
        E 120 90 40 60
        E 120 80 40 00
        E 120 90 40 60
        E 120 80 40 00
        E 360 90 3e 60
        E 120 80 3e 00
        E 120 90 40 60
        E 120 80 40 00
        E 120 90 40 60
        E 120 80 40 00
        E 120 90 3e 60
        E 120 80 3e 00
        E 120 90 40 60
        E 120 80 40 00
        E 120 90 3e 60
        E 120 80 3e 00
        E 120 90 40 60
        E 120 80 40 00
        E 120 90 3e 60
        E 120 80 3e 00
        E 120 90 3e 60
        E 120 80 3e 00
        E 120 90 3c 60
        E 120 80 3c 00
        E 120 90 3e 60
        E 120 80 3e 00
        E 120 90 40 60
        E 120 80 40 00
        E 120 90 3e 60
        E 120 80 3e 00
        E 360 90 3c 60
        E 120 80 3c 00
        E 360 90 39 60
        E 120 80 39 00
        E 120 90 3c 60
        E 120 80 3c 00
        E 120 90 39 60
        E 120 80 39 00
        E 120 90 40 60
        E 120 80 40 00
        E 120 90 3e 60
        E 120 80 3e 00
        E 360 90 3c 60
        E 120 80 3c 00
        E 120 90 3e 60
        E 120 80 3e 00
        E 120 90 3c 60
        E 120 80 3c 00
        E 120 90 43 60
        E 120 80 43 00
        E 120 90 40 60
        E 120 80 40 00
        E 120 90 3e 60
        E 120 80 3e 00
        E 120 90 3c 60
        E 120 80 3c 00
        E 360 90 39 60
        E 120 80 39 00
        E 120 90 3c 60
        E 120 80 3c 00
        E 120 90 39 60
        E 120 80 39 00
        E 120 90 3c 60
        E 120 80 3c 00
        E 120 90 3e 60
        E 120 80 3e 00
        E 120 90 40 60
        E 120 80 40 00
        E 120 90 3e 60
        E 120 80 3e 00
        E 360 90 3c 60
        E 120 80 3c 00
        E 120 90 3e 60
        E 120 80 3e 00
        E 120 90 39 60
        E 120 80 39 00
        E 120 90 3c 60
        E 120 80 3c 00
        E 120 90 3e 60
        E 120 80 3e 00
        E 120 90 40 60
        E 120 80 40 00
        E 120 90 43 60
        E 120 80 43 00
        E 120 90 45 60
        E 120 80 45 00
        E 120 90 43 60
        E 120 80 43 00
        E 120 90 3c 60
        E 120 80 3c 00
        E 120 90 3e 60
        E 120 80 3e 00
        E 120 90 40 60
        E 120 80 40 00
        E 120 90 3e 60
        E 120 80 3e 00
        E 120 90 40 60
        E 120 80 40 00
        E 120 90 43 60
        E 120 80 43 00
        E 120 90 45 60
        E 120 80 45 00
        E 120 90 43 60
        E 120 80 43 00
        E 120 90 40 60
        E 120 80 40 00
        E 120 90 3e 60
        E 120 80 3e 00
        E 120 90 40 60
        E 120 80 40 00
        E 120 90 40 60
        E 120 80 40 00
        E 120 90 40 60
        E 120 80 40 00
        E 120 90 40 60
        E 120 80 40 00
        E 120 90 40 60
        E 120 80 40 00
        E 120 90 40 60
        E 120 80 40 00
        E 360 90 3e 60
        E 120 80 3e 00
        E 120 90 40 60
        E 120 80 40 00
        E 120 90 40 60
        E 120 80 40 00
        E 120 90 3e 60
        E 120 80 3e 00
        E 120 90 40 60
        E 120 80 40 00
        E 120 90 40 60
        E 120 80 40 00
        E 120 90 40 60
        E 120 80 40 00
        E 120 90 3e 60
        E 120 80 3e 00
        E 120 90 3b 60
        E 120 80 3b 00
        E 120 90 3c 60
        E 120 80 3c 00
        E 120 90 3e 60
        E 120 80 3e 00
        E 120 90 40 60
        E 120 80 40 00
        E 120 90 3e 60
        E 120 80 3e 00
        E 360 90 3c 60
        E 120 80 3c 00
        E 360 90 39 60
        E 120 80 39 00
        E 120 90 3c 60
        E 120 80 3c 00
        E 120 90 39 60
        E 120 80 39 00
        E 120 90 40 60
        E 120 80 40 00
        E 120 90 3e 60
        E 120 80 3e 00
        E 360 90 3c 60
        E 120 80 3c 00
        E 120 90 3e 60
        E 120 80 3e 00
        E 120 90 3c 60
        E 120 80 3c 00
        E 120 90 43 60
        E 120 80 43 00
        E 120 90 40 60
        E 120 80 40 00
        E 120 90 3e 60
        E 120 80 3e 00
        E 120 90 3c 60
        E 120 80 3c 00
        E 360 90 39 60
        E 120 80 39 00
        E 120 90 3c 60
        E 120 80 3c 00
        E 120 90 39 60
        E 120 80 39 00
        E 120 90 3c 60
        E 120 80 3c 00
        E 120 90 3e 60
        E 120 80 3e 00
        E 120 90 40 60
        E 120 80 40 00
        E 120 90 3e 60
        E 120 80 3e 00
        E 360 90 3c 60
        E 120 80 3c 00
        E 120 90 3e 60
        E 120 80 3e 00
        E 120 90 39 60
        E 120 80 39 00
        E 120 90 3c 60
        E 120 80 3c 00
        E 120 90 3e 60
        E 120 80 3e 00
        E 120 90 40 60
        E 120 80 40 00
        E 120 90 43 60
        E 120 80 43 00
        E 120 90 45 60
        E 120 80 45 00
        E 120 90 43 60
        E 120 80 43 00
        E 120 90 40 60
        E 120 80 40 00
        E 120 90 3e 60
        E 120 80 3e 00
        E 120 90 40 60
        E 120 80 40 00
        E 120 90 3e 60
        E 120 80 3e 00
        E 120 90 40 60
        E 120 80 40 00
        E 120 90 43 60
        E 120 80 43 00
        E 120 90 45 60
        E 120 80 45 00
        E 120 90 43 60
        E 120 80 43 00
        E 120 90 40 60
        E 120 80 40 00
        E 120 90 3e 60
        E 120 80 3e 00
        E 120 90 40 60
        E 120 80 40 00
        E 120 90 40 60
        E 120 80 40 00
        E 120 90 40 60
        E 120 80 40 00
        E 120 90 40 60
        E 120 80 40 00
        E 120 90 40 60
        E 120 80 40 00
        E 120 90 40 60
        E 120 80 40 00
        E 360 90 3e 60
        E 120 80 3e 00
        E 120 90 3e 60
        E 120 80 3e 00
        E 120 90 3e 60
        E 120 80 3e 00
        E 120 90 3e 60
        E 120 80 3e 00
        E 120 90 3e 60
        E 120 80 3e 00
        E 120 90 3e 60
        E 120 80 3e 00
        E 120 90 3e 60
        E 120 80 3e 00
        E 120 90 3e 60
        E 120 80 3e 00
        E 120 90 3e 60
        E 120 80 3e 00
        E 120 90 3c 60
        E 120 80 3c 00
        E 120 90 3e 60
        E 120 80 3e 00
        E 120 90 40 60
        E 120 80 40 00
        E 120 90 3e 60
        E 120 80 3e 00
        E 360 90 3c 60
        E 120 80 3c 00
        E 360 90 39 60
        E 120 80 39 00
        E 120 90 3c 60
        E 120 80 3c 00
        E 120 90 39 60
        E 120 80 39 00
        E 120 90 40 60
        E 120 80 40 00
        E 120 90 3e 60
        E 120 80 3e 00
        E 360 90 3c 60
        E 120 80 3c 00
        E 120 90 3e 60
        E 120 80 3e 00
        E 120 90 3c 60
        E 120 80 3c 00
        E 120 90 43 60
        E 120 80 43 00
        E 120 90 40 60
        E 120 80 40 00
        E 120 90 3e 60
        E 120 80 3e 00
        E 120 90 3c 60
        E 120 80 3c 00
        E 360 90 39 60
        E 120 80 39 00
        E 120 90 3c 60
        E 120 80 3c 00
        E 120 90 39 60
        E 120 80 39 00
        E 120 90 3c 60
        E 120 80 3c 00
        E 120 90 3e 60
        E 120 80 3e 00
        E 120 90 40 60
        E 120 80 40 00
        E 120 90 3e 60
        E 120 80 3e 00
        E 360 90 3c 60
        E 120 80 3c 00
        E 120 90 3e 60
        E 120 80 3e 00
        E 120 90 39 60
        E 120 80 39 00
        E 120 90 3c 60
        E 120 80 3c 00
        E 120 90 3e 60
        E 120 80 3e 00
        E 120 90 40 60
        E 120 80 40 00
        E 120 90 43 60
        E 120 80 43 00
        E 120 90 45 60
        E 120 80 45 00
        E 120 90 43 60
        E 120 80 43 00
        E 120 90 3c 60
        E 120 80 3c 00
        E 120 90 3e 60
        E 120 80 3e 00
        E 120 90 40 60
        E 120 80 40 00
        E 120 90 3e 60
        E 120 80 3e 00
        E 120 90 40 60
        E 120 80 40 00
        E 120 90 43 60
        E 120 80 43 00
        E 120 90 45 60
        E 120 80 45 00
        E 120 90 43 60
        E 120 80 43 00
        E 120 90 40 60
        E 120 80 40 00
        E 120 90 3e 60
        E 120 80 3e 00
        E 120 90 40 60
        E 120 80 40 00
        E 120 90 40 60
        E 120 80 40 00
        E 120 90 40 60
        E 120 80 40 00
        E 120 90 40 60
        E 120 80 40 00
        E 120 90 40 60
        E 120 80 40 00
        E 120 90 40 60
        E 120 80 40 00
        E 360 90 3e 60
        E 120 80 3e 00
        E 120 90 3e 60
        E 120 80 3e 00
        E 120 90 3e 60
        E 120 80 3e 00
        E 120 90 3e 60
        E 120 80 3e 00
        E 120 90 40 60
        E 120 80 40 00
        E 120 90 40 60
        E 120 80 40 00
        E 120 90 40 60
        E 120 80 40 00
        E 0 90 40 60
        E 120 80 40 00
        E 0 90 3e 60
        E 120 80 3e 00
        E 120 90 3b 60
        E 120 80 3b 00
        E 1080 90 32 60
        E 120 80 32 00
        E 120 90 30 60
        E 120 80 30 00
        E 120 90 32 60
        E 120 80 32 00
        E 120 90 34 60
        E 120 80 34 00
        E 360 90 32 60
        E 120 80 32 00
        E 120 90 34 60
        E 120 80 34 00
        E 120 90 32 60
        E 120 80 32 00
        E 120 90 37 60
        E 120 80 37 00
        E 120 90 34 60
        E 120 80 34 00
        E 120 90 32 60
        E 120 80 32 00
        E 120 90 30 60
        E 120 80 30 00
        E 360 90 30 60
        E 120 80 30 00
        E 120 90 32 60
        E 120 80 32 00
        E 120 90 30 60
        E 120 80 30 00
        E 120 90 32 60
        E 120 80 32 00
        E 120 90 30 60
        E 120 80 30 00
        E 120 90 32 60
        E 120 80 32 00
        E 120 90 34 60
        E 120 80 34 00
        E 360 90 37 60
        E 120 80 37 00
        E 360 90 34 60
        E 120 80 34 00
        E 360 90 32 60
        E 120 80 32 00
        E 1560 90 32 60
        E 120 80 32 00
        E 120 90 30 60
        E 120 80 30 00
        E 120 90 32 60
        E 120 80 32 00
        E 120 90 34 60
        E 120 80 34 00
        E 360 90 32 60
        E 120 80 32 00
        E 120 90 34 60
        E 120 80 34 00
        E 120 90 32 60
        E 120 80 32 00
        E 120 90 37 60
        E 120 80 37 00
        E 120 90 34 60
        E 120 80 34 00
        E 120 90 37 60
        E 120 80 37 00
        E 120 90 39 60
        E 120 80 39 00
        E 360 90 30 60
        E 120 80 30 00
        E 120 90 32 60
        E 120 80 32 00
        E 120 90 30 60
        E 120 80 30 00
        E 120 90 32 60
        E 120 80 32 00
        E 120 90 30 60
        E 120 80 30 00
        E 120 90 32 60
        E 120 80 32 00
        E 120 90 34 60
        E 120 80 34 00
        E 360 90 37 60
        E 120 80 37 00
        E 360 90 34 60
        E 120 80 34 00
        E 360 90 32 60
        E 120 80 32 00
        E 1560 90 32 60
        E 120 80 32 00
        E 120 90 30 60
        E 120 80 30 00
        E 120 90 32 60
        E 120 80 32 00
        E 120 90 34 60
        E 120 80 34 00
        E 360 90 32 60
        E 120 80 32 00
        E 120 90 34 60
        E 120 80 34 00
        E 120 90 32 60
        E 120 80 32 00
        E 120 90 37 60
        E 120 80 37 00
        E 120 90 34 60
        E 120 80 34 00
        E 120 90 32 60
        E 120 80 32 00
        E 120 90 30 60
        E 120 80 30 00
        E 360 90 30 60
        E 120 80 30 00
        E 120 90 32 60
        E 120 80 32 00
        E 120 90 30 60
        E 120 80 30 00
        E 120 90 32 60
        E 120 80 32 00
        E 120 90 30 60
        E 120 80 30 00
        E 120 90 32 60
        E 120 80 32 00
        E 120 90 34 60
        E 120 80 34 00
        E 360 90 37 60
        E 120 80 37 00
        E 360 90 34 60
        E 120 80 34 00
        E 360 90 32 60
        E 120 80 32 00
        E 1560 90 32 60
        E 120 80 32 00
        E 120 90 30 60
        E 120 80 30 00
        E 120 90 32 60
        E 120 80 32 00
        E 120 90 34 60
        E 120 80 34 00
        E 360 90 32 60
        E 120 80 32 00
        E 120 90 34 60
        E 120 80 34 00
        E 120 90 32 60
        E 120 80 32 00
        E 120 90 37 60
        E 120 80 37 00
        E 120 90 34 60
        E 120 80 34 00
        E 120 90 37 60
        E 120 80 37 00
        E 120 90 39 60
        E 120 80 39 00
        E 360 90 30 60
        E 120 80 30 00
        E 120 90 32 60
        E 120 80 32 00
        E 120 90 30 60
        E 120 80 30 00
        E 120 90 32 60
        E 120 80 32 00
        E 120 90 30 60
        E 120 80 30 00
        E 120 90 32 60
        E 120 80 32 00
        E 120 90 34 60
        E 120 80 34 00
        E 360 90 37 60
        E 120 80 37 00
        E 360 90 34 60
        E 120 80 34 00
        E 360 90 32 60
        E 120 80 32 00
        E 14039 b0 7b 00
        GUID {DD247743-4914-4333-9A2B-5E73A453D053}
        IGNTEMPO 0 120.00000000 4 4
        SRCCOLOR 13
        VELLANE 132 71 60
        COLORMAP "C:\Program Files\REAPER (x64)\Data\color_maps\rockband_guitarbass.png"
        CFGEDITVIEW 0.000000 2.853967 3 25 0 0 0
        CFGEDIT 1 1 0 1 1 0 1 1 1 1 1 0.25000000 100 100 1200 800 0 2 2 1 0.00000000 0 1 1 0 0.500000 0 0 1.000000 64
        KEYSNAP 0 6 "102030050700" 0 "Pentatonic"
        EVTFILTER 0 -1 -1 -1 -1 0 1 0 0 -1.00000000 -1.00000000
      >
    >
  >
  <TRACK '{4F4D120D-4C42-45BC-91A9-D5788A023A86}'
    NAME "keys"
    PEAKCOL 16576
    BEAT -1
    AUTOMODE 0
    VOLPAN 1.00000000000000 0.00000000000000 -1.00000000000000 -1.00000000000000 1.00000000000000
    MUTESOLO 0 0 0
    IPHASE 0
    ISBUS 2 -1
    BUSCOMP 0 0
    SHOWINMIX 1 0.666700 0.500000 1 0.500000 -1 -1 -1
    FREEMODE 0
    SEL 0
    REC 0 0 0 0 0 0 0
    VU 2
    TRACKHEIGHT 0 0
    INQ 0 0 0 0.5000000000 100 0 0 100
    NCHAN 2
    FX 1
    TRACKID {4F4D120D-4C42-45BC-91A9-D5788A023A86}
    PERF 0
    MIDIOUT -1
    MAINSEND 1 0
    <ITEM
      POSITION 0.00000000000000
      SNAPOFFS 0.00000000000000
      LENGTH 249.33300000000000
      LOOP 0
      ALLTAKES 0
      SEL 0
      FADEIN 1 0.000000 0.000000 1 0
      FADEOUT 1 0.000000 0.000000 1 0
      MUTE 0
      IGUID {815772CC-DC04-41C0-A77E-DCA0E7DEEDF0}
      IID 19
      NAME "keys.wav"
      VOLPAN 1.000000 0.000000 1.000000 -1.000000
      SOFFS 0.00000000000000
      PLAYRATE 1.00000000000000 1 0.00000000000000 -1
      CHANMODE 0
      GUID {C34B5A90-01F8-4CD8-9C8F-783A20E508E2}
      <SOURCE WAVE
        FILE "wav\keys.wav"
      >
    >
  >
  <TRACK '{5623D619-EBBE-4C51-8229-778207FDAA20}'
    NAME "PART REAL_BASS"
    PEAKCOL 16576
    BEAT -1
    AUTOMODE 0
    VOLPAN 1.00000000000000 0.00000000000000 -1.00000000000000 -1.00000000000000 1.00000000000000
    MUTESOLO 0 0 0
    IPHASE 0
    ISBUS 0 0
    BUSCOMP 0 0
    SHOWINMIX 1 0.666700 0.500000 1 0.500000 -1 -1 -1
    FREEMODE 0
    SEL 0
    REC 0 0 0 0 0 0 0
    VU 2
    TRACKHEIGHT 0 0
    INQ 0 0 0 0.5000000000 100 0 0 100
    NCHAN 2
    FX 0
    TRACKID {5623D619-EBBE-4C51-8229-778207FDAA20}
    PERF 0
    MIDIOUT -1
    <MIDINOTENAMES
      0 127 "Trill Marker"
      0 126 "Tremolo Marker"
      0 125 "BRE"
      0 124 "BRE"
      0 123 "BRE"
      0 122 "BRE"
      0 121 "BRE"
      0 120 "BRE (use all 6)"
      0 119 "-----------"
      0 116 "OVERDRIVE"
      0 115 "Solo Marker"
      0 109 "-----------"
      0 108 "Fret Hand Position"
      0 107 "Force Chord Numbering"
      0 106 "Loose Strumming"
      0 105 "Strum Direction"
      0 104 "Arpeggio Marker"
      0 103 "Slide Marker"
      0 102 "Force HOPO"
      0 101 "EXPERT e String"
      0 100 "EXPERT B String"
      0 99 "EXPERT G String"
      0 98 "EXPERT D String"
      0 97 "EXPERT A String"
      0 96 "EXPERT E String"
      0 95 "-----------"
      0 82 "Loose Strumming"
      0 81 "Strum Direction"
      0 80 "Arpeggio Marker"
      0 79 "Slide Marker"
      0 78 "Force HOPO"
      0 77 "HARD e String"
      0 76 "HARD B String"
      0 75 "HARD G String"
      0 74 "HARD D String"
      0 73 "HARD A String"
      0 72 "HARD E String"
      0 71 "-----------"
      0 58 "Loose Strumming"
      0 56 "Arpeggio Marker"
      0 55 "Slide Marker"
      0 53 "MEDIUM e String"
      0 52 "MEDIUM B String"
      0 51 "MEDIUM G String"
      0 50 "MEDIUM D String"
      0 49 "MEDIUM A String"
      0 48 "MEDIUM E String"
      0 47 "-----------"
      0 32 "Arpeggio Marker"
      0 31 "Slide Marker"
      0 29 "EASY e String"
      0 28 "EASY B String"
      0 27 "EASY G String"
      0 26 "EASY D String"
      0 25 "EASY A String"
      0 24 "EASY E String"
      0 21 "-----------"
      0 18 "Flat/Sharp Swap"
      0 17 "Hide Chord Names"
      0 16 "Slash Chord"
      0 15 "D#"
      0 14 "D"
      0 13 "C#"
      0 12 "C"
      0 11 "B"
      0 10 "A#"
      0 9 "A"
      0 8 "G#"
      0 7 "G"
      0 6 "F#"
      0 5 "F"
      0 4 "E"
    >
    MAINSEND 1 0
    <FXCHAIN
      WNDRECT 0 43 655 467
      SHOW 0
      LASTSEL 2
      DOCKED 0
      BYPASS 0 0
      <JS "c3/progtr" ""
        0.000000 3.000000 0.000000 0.000000 0.000000 0.000000 0.000000 0.000000 0.000000 1.000000 - - - - - - - - - - - - - - - - - - - - - - - - - - - - - - - - - - - - - - - - - - - - - - - - - - - - - - 
      >
      FLOATPOS 0 0 0 0
      FXID {25434B7A-9107-42F0-97E6-8BAB218EC41C}
      WAK 0
      BYPASS 0 0
      <JS "MIDI/midi_transpose" ""
        -12.000000 1.000000 0.000000 127.000000 - - - - - - - - - - - - - - - - - - - - - - - - - - - - - - - - - - - - - - - - - - - - - - - - - - - - - - - - - - - - 
      >
      FLOATPOS 0 0 0 0
      FXID {FBD81367-6E30-4D5A-8E76-C95D3F0557E9}
      WAK 0
      BYPASS 0 0
      <VST "VSTi: ReaSynth (Cockos)" "reasynth.dll" 0 ""
        eXNlcu9e7f4AAAAAAgAAAAEAAAAAAAAAAgAAAAAAAAA4AAAAAAAAAA==
        AAAQAO++rd4N8K3eppvEO+gJMjwAAAAAAAAAAAAAgD8AAIA/4jAEPA==
        AAAAAAAAAD+01hM+j8L1PQAAAD8AABAAAAA=
      >
      FLOATPOS 0 0 0 0
      FXID {8EE10F71-556E-4D75-94BD-96729DF9B8E5}
      WAK 0
    >
    <ITEM
      POSITION 0.00000000000000
      SNAPOFFS 0.00000000000000
      LENGTH 249.33300000000000
      LOOP 0
      ALLTAKES 0
      SEL 0
      FADEIN 1 0.000000 0.000000 1 0
      FADEOUT 1 0.000000 0.000000 1 0
      MUTE 0
      IGUID {02755651-42F4-466A-91B2-42EC87235350}
      IID 3
      NAME "PART REAL_BASS"
      VOLPAN 1.000000 0.000000 1.000000 -1.000000
      SOFFS 0.00000000000000 0.00000000000000
      PLAYRATE 1.00000000000000 1 0.00000000000000 -1
      CHANMODE 0
      GUID {2BE248D2-DC7A-474F-A11F-C1A621A8A429}
      <SOURCE MIDI
        HASDATA 1 480 QN
        POOLEDEVTS {D5273501-1513-4B9A-8FB7-99DF745FFF5E}
        <X 0 0
          /wNQQVJUIFJFQUxfQkFTUw==
        >
        E 6720 90 18 67
        E 0 90 30 67
        E 0 90 48 67
        E 0 90 60 67
        E 0 90 6c 67
        E 120 80 18 00
        E 0 80 30 00
        E 0 80 48 00
        E 0 80 60 00
        E 0 80 6c 00
        E 360 90 30 67
        E 0 90 48 67
        E 0 90 60 67
        E 0 9b 37 64
        E 0 9b 4f 64
        E 0 9b 67 67
        E 420 80 30 00
        E 0 80 48 00
        E 0 80 60 00
        E 0 8b 37 00
        E 0 8b 4f 00
        E 0 8b 67 00
        <X 60 0
          /wFbYmVnaW5fcGIgc29uZ190cmFpbmVyX3BiXzFd
        >
        E 0 90 19 67
        E 0 90 31 67
        E 0 90 49 67
        E 0 90 61 67
        E 0 90 6c 65
        E 120 80 19 00
        E 0 80 31 00
        E 0 80 49 00
        E 0 80 61 00
        E 0 80 6c 00
        E 360 90 19 67
        E 0 90 31 67
        E 0 90 49 67
        E 0 90 61 67
        E 120 80 19 00
        E 0 80 31 00
        E 0 80 49 00
        E 0 80 61 00
        E 360 90 19 67
        E 0 90 31 67
        E 0 90 49 67
        E 0 90 61 67
        E 120 80 19 00
        E 0 80 31 00
        E 0 80 49 00
        E 0 80 61 00
        E 360 90 19 67
        E 0 90 31 67
        E 0 90 49 67
        E 0 90 61 67
        E 120 80 19 00
        E 0 80 31 00
        E 0 80 49 00
        E 0 80 61 00
        E 360 90 19 67
        E 0 90 31 67
        E 0 90 49 67
        E 0 90 61 67
        E 120 80 19 00
        E 0 80 31 00
        E 0 80 49 00
        E 0 80 61 00
        E 360 90 31 67
        E 0 90 49 67
        E 0 90 61 67
        E 120 80 31 00
        E 0 80 49 00
        E 0 80 61 00
        E 360 90 18 68
        E 0 90 30 68
        E 0 90 48 68
        E 0 90 60 68
        E 120 80 18 00
        E 0 80 30 00
        E 0 80 48 00
        E 0 80 60 00
        E 120 90 49 65
        E 0 90 61 65
        E 120 80 49 00
        E 0 80 61 00
        E 120 90 31 67
        E 0 90 49 67
        E 0 90 61 67
        E 120 80 31 00
        E 0 80 49 00
        E 0 80 61 00
        E 120 90 4a 66
        E 0 90 62 66
        E 120 80 4a 00
        <X 120 0
          /wFbcGJfbm9ybSBzb25nX3RyYWluZXJfcGJfMV0=
        >
        E 360 80 62 00
        E 120 90 32 66
        E 0 90 4a 66
        E 0 90 62 66
        E 120 80 32 00
        E 0 80 4a 00
        E 0 80 62 00
        E 360 90 32 66
        E 0 90 4a 66
        E 0 90 62 66
        E 120 80 32 00
        E 0 80 4a 00
        E 0 80 62 00
        E 120 90 32 66
        E 0 90 4a 66
        E 0 90 62 66
        E 120 80 32 00
        E 0 80 4a 00
        E 0 80 62 00
        E 120 90 32 66
        E 0 90 4a 66
        E 0 90 62 66
        E 120 80 32 00
        E 0 80 4a 00
        E 0 80 62 00
        E 120 90 4a 64
        E 0 90 62 64
        E 120 80 4a 00
        E 480 80 62 00
        E 120 90 1a 64
        E 0 90 32 64
        E 0 90 4a 64
        E 0 90 62 64
        E 120 80 1a 00
        E 0 80 32 00
        E 0 80 4a 00
        E 0 80 62 00
        E 120 90 4a 66
        E 0 90 62 66
        E 120 80 4a 00
        E 0 80 62 00
        E 360 90 4a 66
        E 0 90 62 66
        E 120 80 4a 00
        E 0 80 62 00
        E 120 90 1a 64
        E 0 90 32 64
        E 0 90 4a 64
        E 0 90 62 64
        E 120 80 1a 00
        E 0 80 32 00
        E 0 80 4a 00
        E 0 80 62 00
        E 120 90 49 65
        E 0 90 61 65
        E 120 80 49 00
        E 0 80 61 00
        E 120 90 19 67
        E 0 90 31 67
        E 0 90 49 67
        E 0 90 61 67
        E 120 80 19 00
        E 0 80 31 00
        E 0 80 49 00
        E 0 80 61 00
        E 360 90 19 67
        E 0 90 31 67
        E 0 90 49 67
        E 0 90 61 67
        E 120 80 19 00
        E 0 80 31 00
        E 0 80 49 00
        E 0 80 61 00
        E 360 90 19 67
        E 0 90 31 67
        E 0 90 49 67
        E 0 90 61 67
        E 120 80 19 00
        E 0 80 31 00
        E 0 80 49 00
        E 0 80 61 00
        E 360 90 19 67
        E 0 90 31 67
        E 0 90 49 67
        E 0 90 61 67
        E 120 80 19 00
        E 0 80 31 00
        E 0 80 49 00
        E 0 80 61 00
        E 360 90 19 67
        E 0 90 31 67
        E 0 90 49 67
        E 0 90 61 67
        E 120 80 19 00
        E 0 80 31 00
        E 0 80 49 00
        E 0 80 61 00
        E 360 90 31 67
        E 0 90 49 67
        E 0 90 61 67
        E 120 80 31 00
        E 0 80 49 00
        E 0 80 61 00
        E 360 90 18 68
        E 0 90 30 68
        E 0 90 48 68
        E 0 90 60 68
        E 120 80 18 00
        E 0 80 30 00
        E 0 80 48 00
        E 0 80 60 00
        E 120 90 49 65
        E 0 90 61 65
        E 120 80 49 00
        E 0 80 61 00
        E 120 90 31 67
        E 0 90 49 67
        E 0 90 61 67
        E 120 80 31 00
        E 0 80 49 00
        E 0 80 61 00
        E 120 90 4a 66
        E 0 90 62 66
        E 120 80 4a 00
        E 480 80 62 00
        E 120 90 32 66
        E 0 90 4a 66
        E 0 90 62 66
        E 120 80 32 00
        E 0 80 4a 00
        E 0 80 62 00
        E 360 90 32 66
        E 0 90 4a 66
        E 0 90 62 66
        E 120 80 32 00
        E 0 80 4a 00
        E 0 80 62 00
        E 120 90 32 66
        E 0 90 4a 66
        E 0 90 62 66
        E 120 80 32 00
        E 0 80 4a 00
        E 0 80 62 00
        E 120 90 32 66
        E 0 90 4a 66
        E 0 90 62 66
        E 120 80 32 00
        E 0 80 4a 00
        E 0 80 62 00
        E 120 90 4b 64
        E 0 90 63 64
        E 120 80 4b 00
        E 480 80 63 00
        E 120 90 4b 64
        E 0 90 63 64
        E 120 80 4b 00
        E 0 80 63 00
        E 120 90 49 65
        E 0 90 61 65
        E 120 80 49 00
        E 0 80 61 00
        E 360 90 31 65
        E 0 90 49 65
        E 0 90 61 65
        E 120 80 31 00
        E 0 80 49 00
        E 0 80 61 00
        E 120 90 31 65
        E 0 90 49 65
        E 0 90 61 65
        E 120 80 31 00
        E 0 80 49 00
        E 0 80 61 00
        E 120 90 49 65
        E 0 90 61 65
        E 120 80 49 00
        E 0 80 61 00
        <X 120 0
          /wFbZW5kX3BiIHNvbmdfdHJhaW5lcl9wYl8xXQ==
        >
        <X 0 0
          /wFbYmVnaW5fcGIgc29uZ190cmFpbmVyX3BiXzJd
        >
        E 0 90 19 67
        E 0 90 31 67
        E 0 90 49 67
        E 0 90 61 67
        E 0 90 6c 67
        E 120 80 19 00
        E 0 80 31 00
        E 0 80 49 00
        E 0 80 61 00
        E 0 80 6c 00
        E 360 90 19 67
        E 0 90 31 67
        E 0 90 49 67
        E 0 90 61 67
        E 120 80 19 00
        E 0 80 31 00
        E 0 80 49 00
        E 0 80 61 00
        E 360 90 19 67
        E 0 90 31 67
        E 0 90 49 67
        E 0 90 61 67
        E 120 80 19 00
        E 0 80 31 00
        E 0 80 49 00
        E 0 80 61 00
        E 360 90 19 67
        E 0 90 31 67
        E 0 90 49 67
        E 0 90 61 67
        E 120 80 19 00
        E 0 80 31 00
        E 0 80 49 00
        E 0 80 61 00
        E 360 90 19 67
        E 0 90 31 67
        E 0 90 49 67
        E 0 90 61 67
        E 120 80 19 00
        E 0 80 31 00
        E 0 80 49 00
        E 0 80 61 00
        E 120 90 31 67
        E 0 90 49 67
        E 0 90 61 67
        E 120 80 31 00
        E 0 80 49 00
        E 0 80 61 00
        E 120 90 19 67
        E 0 90 31 67
        E 0 90 49 67
        E 0 90 61 67
        E 120 80 19 00
        E 0 80 31 00
        E 0 80 49 00
        E 0 80 61 00
        E 360 90 19 67
        E 0 90 31 67
        E 0 90 49 67
        E 0 90 61 67
        E 120 80 19 00
        E 0 80 31 00
        E 0 80 49 00
        E 0 80 61 00
        E 120 90 31 67
        E 0 90 49 67
        E 0 90 61 67
        E 120 80 31 00
        E 0 80 49 00
        E 0 80 61 00
        E 120 90 31 67
        E 0 90 49 67
        E 0 90 61 67
        E 120 80 31 00
        E 0 80 49 00
        E 0 80 61 00
        E 120 90 49 69
        E 0 90 61 69
        E 120 80 49 00
        E 0 80 61 00
        <X 120 0
          /wFbcGJfbm9ybSBzb25nX3RyYWluZXJfcGJfMl0=
        >
        E 0 90 18 69
        E 0 90 30 69
        E 0 90 48 69
        E 0 90 60 69
        E 120 80 18 00
        E 0 80 30 00
        E 0 80 48 00
        E 0 80 60 00
        E 360 90 18 69
        E 0 90 30 69
        E 0 90 48 69
        E 0 90 60 69
        E 120 80 18 00
        E 0 80 30 00
        E 0 80 48 00
        E 0 80 60 00
        E 360 90 18 69
        E 0 90 30 69
        E 0 90 48 69
        E 0 90 60 69
        E 120 80 18 00
        E 0 80 30 00
        E 0 80 48 00
        E 0 80 60 00
        E 360 90 18 69
        E 0 90 30 69
        E 0 90 48 69
        E 0 90 60 69
        E 120 80 18 00
        E 0 80 30 00
        E 0 80 48 00
        E 0 80 60 00
        E 360 90 18 69
        E 0 90 30 69
        E 0 90 48 69
        E 0 90 60 69
        E 120 80 18 00
        E 0 80 30 00
        E 0 80 48 00
        E 0 80 60 00
        E 120 90 30 69
        E 0 90 48 69
        E 0 90 60 69
        E 120 80 30 00
        E 0 80 48 00
        E 0 80 60 00
        E 120 90 18 69
        E 0 90 30 69
        E 0 90 48 69
        E 0 90 60 69
        E 120 80 18 00
        E 0 80 30 00
        E 0 80 48 00
        E 0 80 60 00
        E 360 90 18 69
        E 0 90 30 69
        E 0 90 48 69
        E 0 90 60 69
        E 120 80 18 00
        E 0 80 30 00
        E 0 80 48 00
        E 0 80 60 00
        E 120 90 30 69
        E 0 90 48 69
        E 0 90 60 69
        E 120 80 30 00
        E 0 80 48 00
        E 0 80 60 00
        E 120 90 30 69
        E 0 90 48 69
        E 0 90 60 69
        E 120 80 30 00
        E 0 80 48 00
        E 0 80 60 00
        E 120 90 48 69
        E 0 90 60 69
        E 120 80 48 00
        E 0 80 60 00
        E 120 90 18 67
        E 0 90 30 67
        E 0 90 48 67
        E 0 90 60 67
        E 0 90 74 64
        E 120 80 18 00
        E 0 80 30 00
        E 0 80 48 00
        E 0 80 60 00
        E 360 90 18 67
        E 0 90 30 67
        E 0 90 48 67
        E 0 90 60 67
        E 120 80 18 00
        E 0 80 30 00
        E 0 80 48 00
        E 0 80 60 00
        E 360 90 18 67
        E 0 90 30 67
        E 0 90 48 67
        E 0 90 60 67
        E 120 80 18 00
        E 0 80 30 00
        E 0 80 48 00
        E 0 80 60 00
        E 360 90 18 67
        E 0 90 30 67
        E 0 90 48 67
        E 0 90 60 67
        E 120 80 18 00
        E 0 80 30 00
        E 0 80 48 00
        E 0 80 60 00
        E 360 90 18 67
        E 0 90 30 67
        E 0 90 48 67
        E 0 90 60 67
        E 120 80 18 00
        E 0 80 30 00
        E 0 80 48 00
        E 0 80 60 00
        E 120 90 30 67
        E 0 90 48 67
        E 0 90 60 67
        E 120 80 30 00
        E 0 80 48 00
        E 0 80 60 00
        E 120 90 18 67
        E 0 90 30 67
        E 0 90 48 67
        E 0 90 60 67
        E 120 80 18 00
        E 0 80 30 00
        E 0 80 48 00
        E 0 80 60 00
        E 360 90 18 67
        E 0 90 30 67
        E 0 90 48 67
        E 0 90 60 67
        E 120 80 18 00
        E 0 80 30 00
        E 0 80 48 00
        E 0 80 60 00
        E 120 90 30 67
        E 0 90 48 67
        E 0 90 60 67
        E 120 80 30 00
        E 0 80 48 00
        E 0 80 60 00
        E 120 90 30 67
        E 0 90 48 67
        E 0 90 60 67
        E 120 80 30 00
        E 0 80 48 00
        E 0 80 60 00
        E 120 90 48 69
        E 0 90 60 69
        E 120 80 48 00
        E 0 80 60 00
        E 120 90 19 67
        E 0 90 31 67
        E 0 90 49 67
        E 0 90 61 67
        E 120 80 74 00
        E 0 80 19 00
        E 0 80 31 00
        E 0 80 49 00
        E 0 80 61 00
        E 360 90 19 67
        E 0 90 31 67
        E 0 90 49 67
        E 0 90 61 67
        E 120 80 19 00
        E 0 80 31 00
        E 0 80 49 00
        E 0 80 61 00
        E 360 90 19 67
        E 0 90 31 67
        E 0 90 49 67
        E 0 90 61 67
        E 120 80 19 00
        E 0 80 31 00
        E 0 80 49 00
        E 0 80 61 00
        E 360 90 19 67
        E 0 90 31 67
        E 0 90 49 67
        E 0 90 61 67
        E 120 80 19 00
        E 0 80 31 00
        E 0 80 49 00
        E 0 80 61 00
        E 360 90 19 67
        E 0 90 31 67
        E 0 90 49 67
        E 0 90 61 67
        E 120 80 19 00
        E 0 80 31 00
        E 0 80 49 00
        E 0 80 61 00
        E 120 90 31 67
        E 0 90 49 67
        E 0 90 61 67
        E 120 80 31 00
        E 0 80 49 00
        E 0 80 61 00
        E 120 90 19 67
        E 0 90 31 67
        E 0 90 49 67
        E 0 90 61 67
        E 120 80 19 00
        E 0 80 31 00
        E 0 80 49 00
        E 0 80 61 00
        E 360 90 19 67
        E 0 90 31 67
        E 0 90 49 67
        E 0 90 61 67
        E 120 80 19 00
        E 0 80 31 00
        E 0 80 49 00
        E 0 80 61 00
        E 120 90 31 67
        E 0 90 49 67
        E 0 90 61 67
        E 120 80 31 00
        E 0 80 49 00
        E 0 80 61 00
        E 120 90 19 67
        E 0 90 31 67
        E 0 90 49 67
        E 0 90 61 67
        E 120 80 19 00
        E 0 80 31 00
        E 0 80 49 00
        E 0 80 61 00
        E 120 90 49 69
        E 0 90 61 69
        E 120 80 49 00
        E 0 80 61 00
        <X 120 0
          /wFbZW5kX3BiIHNvbmdfdHJhaW5lcl9wYl8yXQ==
        >
        E 0 90 19 67
        E 0 90 31 67
        E 0 90 49 67
        E 0 90 61 67
        E 120 80 19 00
        E 0 80 31 00
        E 0 80 49 00
        E 0 80 61 00
        E 360 90 19 67
        E 0 90 31 67
        E 0 90 49 67
        E 0 90 61 67
        E 120 80 19 00
        E 0 80 31 00
        E 0 80 49 00
        E 0 80 61 00
        E 360 90 19 67
        E 0 90 31 67
        E 0 90 49 67
        E 0 90 61 67
        E 120 80 19 00
        E 0 80 31 00
        E 0 80 49 00
        E 0 80 61 00
        E 360 90 19 67
        E 0 90 31 67
        E 0 90 49 67
        E 0 90 61 67
        E 120 80 19 00
        E 0 80 31 00
        E 0 80 49 00
        E 0 80 61 00
        E 360 90 19 67
        E 0 90 31 67
        E 0 90 49 67
        E 0 90 61 67
        E 120 80 19 00
        E 0 80 31 00
        E 0 80 49 00
        E 0 80 61 00
        E 120 90 31 67
        E 0 90 49 67
        E 0 90 61 67
        E 120 80 31 00
        E 0 80 49 00
        E 0 80 61 00
        E 120 90 19 67
        E 0 90 31 67
        E 0 90 49 67
        E 0 90 61 67
        E 120 80 19 00
        E 0 80 31 00
        E 0 80 49 00
        E 0 80 61 00
        E 360 90 19 67
        E 0 90 31 67
        E 0 90 49 67
        E 0 90 61 67
        E 120 80 19 00
        E 0 80 31 00
        E 0 80 49 00
        E 0 80 61 00
        E 120 90 31 67
        E 0 90 49 67
        E 0 90 61 67
        E 120 80 31 00
        E 0 80 49 00
        E 0 80 61 00
        E 120 90 31 67
        E 0 90 49 67
        E 0 90 61 67
        E 120 80 31 00
        E 0 80 49 00
        E 0 80 61 00
        E 120 90 49 69
        E 0 90 61 69
        E 120 80 49 00
        E 0 80 61 00
        E 120 90 18 69
        E 0 90 30 69
        E 0 90 48 69
        E 0 90 60 69
        E 120 80 18 00
        E 0 80 30 00
        E 0 80 48 00
        E 0 80 60 00
        E 360 90 18 69
        E 0 90 30 69
        E 0 90 48 69
        E 0 90 60 69
        E 120 80 18 00
        E 0 80 30 00
        E 0 80 48 00
        E 0 80 60 00
        E 360 90 18 69
        E 0 90 30 69
        E 0 90 48 69
        E 0 90 60 69
        E 120 80 18 00
        E 0 80 30 00
        E 0 80 48 00
        E 0 80 60 00
        E 360 90 18 69
        E 0 90 30 69
        E 0 90 48 69
        E 0 90 60 69
        E 120 80 18 00
        E 0 80 30 00
        E 0 80 48 00
        E 0 80 60 00
        E 360 90 18 69
        E 0 90 30 69
        E 0 90 48 69
        E 0 90 60 69
        E 120 80 18 00
        E 0 80 30 00
        E 0 80 48 00
        E 0 80 60 00
        E 120 90 30 69
        E 0 90 48 69
        E 0 90 60 69
        E 120 80 30 00
        E 0 80 48 00
        E 0 80 60 00
        E 120 90 18 69
        E 0 90 30 69
        E 0 90 48 69
        E 0 90 60 69
        E 120 80 18 00
        E 0 80 30 00
        E 0 80 48 00
        E 0 80 60 00
        E 360 90 18 69
        E 0 90 30 69
        E 0 90 48 69
        E 0 90 60 69
        E 120 80 18 00
        E 0 80 30 00
        E 0 80 48 00
        E 0 80 60 00
        E 120 90 30 69
        E 0 90 48 69
        E 0 90 60 69
        E 120 80 30 00
        E 0 80 48 00
        E 0 80 60 00
        E 120 90 30 69
        E 0 90 48 69
        E 0 90 60 69
        E 120 80 30 00
        E 0 80 48 00
        E 0 80 60 00
        E 120 90 48 69
        E 0 90 60 69
        E 120 80 48 00
        E 0 80 60 00
        E 120 90 18 67
        E 0 90 30 67
        E 0 90 48 67
        E 0 90 60 67
        E 120 80 18 00
        E 0 80 30 00
        E 0 80 48 00
        E 0 80 60 00
        E 360 90 18 67
        E 0 90 30 67
        E 0 90 48 67
        E 0 90 60 67
        E 120 80 18 00
        E 0 80 30 00
        E 0 80 48 00
        E 0 80 60 00
        E 360 90 18 67
        E 0 90 30 67
        E 0 90 48 67
        E 0 90 60 67
        E 120 80 18 00
        E 0 80 30 00
        E 0 80 48 00
        E 0 80 60 00
        E 360 90 18 67
        E 0 90 30 67
        E 0 90 48 67
        E 0 90 60 67
        E 120 80 18 00
        E 0 80 30 00
        E 0 80 48 00
        E 0 80 60 00
        E 360 90 18 67
        E 0 90 30 67
        E 0 90 48 67
        E 0 90 60 67
        E 120 80 18 00
        E 0 80 30 00
        E 0 80 48 00
        E 0 80 60 00
        E 120 90 30 67
        E 0 90 48 67
        E 0 90 60 67
        E 120 80 30 00
        E 0 80 48 00
        E 0 80 60 00
        E 120 90 18 67
        E 0 90 30 67
        E 0 90 48 67
        E 0 90 60 67
        E 120 80 18 00
        E 0 80 30 00
        E 0 80 48 00
        E 0 80 60 00
        E 360 90 18 67
        E 0 90 30 67
        E 0 90 48 67
        E 0 90 60 67
        E 120 80 18 00
        E 0 80 30 00
        E 0 80 48 00
        E 0 80 60 00
        E 120 90 30 67
        E 0 90 48 67
        E 0 90 60 67
        E 120 80 30 00
        E 0 80 48 00
        E 0 80 60 00
        E 120 90 30 67
        E 0 90 48 67
        E 0 90 60 67
        E 120 80 30 00
        E 0 80 48 00
        E 0 80 60 00
        E 120 90 48 69
        E 0 90 60 69
        E 120 80 48 00
        E 0 80 60 00
        E 120 90 19 67
        E 0 90 31 67
        E 0 90 49 67
        E 0 90 61 67
        E 0 90 74 64
        E 120 80 19 00
        E 0 80 31 00
        E 0 80 49 00
        E 0 80 61 00
        E 360 90 19 67
        E 0 90 31 67
        E 0 90 49 67
        E 0 90 61 67
        E 120 80 19 00
        E 0 80 31 00
        E 0 80 49 00
        E 0 80 61 00
        E 360 90 19 67
        E 0 90 31 67
        E 0 90 49 67
        E 0 90 61 67
        E 120 80 19 00
        E 0 80 31 00
        E 0 80 49 00
        E 0 80 61 00
        E 360 90 19 67
        E 0 90 31 67
        E 0 90 49 67
        E 0 90 61 67
        E 120 80 19 00
        E 0 80 31 00
        E 0 80 49 00
        E 0 80 61 00
        E 360 90 19 67
        E 0 90 31 67
        E 0 90 49 67
        E 0 90 61 67
        E 120 80 19 00
        E 0 80 31 00
        E 0 80 49 00
        E 0 80 61 00
        E 120 90 31 67
        E 0 90 49 67
        E 0 90 61 67
        E 120 80 31 00
        E 0 80 49 00
        E 0 80 61 00
        E 120 90 19 67
        E 0 90 31 67
        E 0 90 49 67
        E 0 90 61 67
        E 120 80 19 00
        E 0 80 31 00
        E 0 80 49 00
        E 0 80 61 00
        E 360 90 19 67
        E 0 90 31 67
        E 0 90 49 67
        E 0 90 61 67
        E 120 80 19 00
        E 0 80 31 00
        E 0 80 49 00
        E 0 80 61 00
        E 120 90 31 67
        E 0 90 49 67
        E 0 90 61 67
        E 120 80 31 00
        E 0 80 49 00
        E 0 80 61 00
        E 120 90 31 67
        E 0 90 49 67
        E 0 90 61 67
        E 120 80 31 00
        E 0 80 49 00
        E 0 80 61 00
        E 120 90 49 69
        E 0 90 61 69
        E 120 80 49 00
        E 0 80 61 00
        <X 120 0
          /wFbYmVnaW5fcGIgc29uZ190cmFpbmVyX3BiXzNd
        >
        E 0 80 74 00
        E 0 90 18 69
        E 0 90 30 69
        E 0 90 48 69
        E 0 90 60 69
        E 0 90 6c 66
        E 120 80 18 00
        E 0 80 30 00
        E 0 80 48 00
        E 0 80 60 00
        E 0 80 6c 00
        E 360 90 18 69
        E 0 90 30 69
        E 0 90 48 69
        E 0 90 60 69
        E 120 80 18 00
        E 0 80 30 00
        E 0 80 48 00
        E 0 80 60 00
        E 360 90 18 69
        E 0 90 30 69
        E 0 90 48 69
        E 0 90 60 69
        E 120 80 18 00
        E 0 80 30 00
        E 0 80 48 00
        E 0 80 60 00
        E 360 90 18 69
        E 0 90 30 69
        E 0 90 48 69
        E 0 90 60 69
        E 120 80 18 00
        E 0 80 30 00
        E 0 80 48 00
        E 0 80 60 00
        E 360 90 18 69
        E 0 90 30 69
        E 0 90 48 69
        E 0 90 60 69
        E 120 80 18 00
        E 0 80 30 00
        E 0 80 48 00
        E 0 80 60 00
        E 360 90 18 69
        E 0 90 30 69
        E 0 90 48 69
        E 0 90 60 69
        E 120 80 18 00
        E 0 80 30 00
        E 0 80 48 00
        E 0 80 60 00
        E 360 90 18 69
        E 0 90 30 69
        E 0 90 48 69
        E 0 90 60 69
        E 120 80 18 00
        E 0 80 30 00
        E 0 80 48 00
        E 0 80 60 00
        E 360 90 31 67
        E 0 90 49 67
        E 0 90 61 67
        E 120 80 31 00
        E 0 80 49 00
        E 0 80 61 00
        E 120 90 49 69
        E 0 90 61 69
        E 120 80 49 00
        E 0 80 61 00
        <X 120 0
          /wFbcGJfbm9ybSBzb25nX3RyYWluZXJfcGJfM10=
        >
        E 240 90 31 69
        E 0 90 49 69
        E 0 90 61 69
        E 120 80 31 00
        E 0 80 49 00
        E 0 80 61 00
        E 120 90 19 69
        E 0 90 31 69
        E 0 90 49 69
        E 0 90 61 69
        E 120 80 19 00
        E 0 80 31 00
        E 0 80 49 00
        E 0 80 61 00
        E 360 90 19 69
        E 0 90 31 69
        E 0 90 49 69
        E 0 90 61 69
        E 120 80 19 00
        E 0 80 31 00
        E 0 80 49 00
        E 0 80 61 00
        E 360 90 19 69
        E 0 90 31 69
        E 0 90 49 69
        E 0 90 61 69
        E 120 80 19 00
        E 0 80 31 00
        E 0 80 49 00
        E 0 80 61 00
        E 120 90 48 67
        E 0 90 60 67
        E 120 80 48 00
        E 0 80 60 00
        E 360 90 48 67
        E 0 90 60 67
        E 120 80 48 00
        E 0 80 60 00
        E 120 90 30 69
        E 0 90 48 69
        E 0 90 60 69
        E 120 80 30 00
        E 0 80 48 00
        E 0 80 60 00
        E 120 90 48 67
        E 0 90 60 67
        E 120 80 48 00
        E 0 80 60 00
        E 120 90 32 66
        E 0 90 4a 66
        E 0 90 62 66
        E 120 80 32 00
        E 0 80 4a 00
        E 0 80 62 00
        E 120 90 4a 64
        E 0 90 62 64
        E 120 80 4a 00
        E 0 80 62 00
        E 120 90 31 67
        E 0 90 49 67
        E 0 90 61 67
        E 120 80 31 00
        E 0 80 49 00
        E 0 80 61 00
        E 120 90 49 66
        E 0 90 61 66
        E 120 80 49 00
        E 0 80 61 00
        E 120 90 18 69
        E 0 90 30 69
        E 0 90 48 69
        E 0 90 60 69
        E 120 80 18 00
        E 0 80 30 00
        E 0 80 48 00
        E 0 80 60 00
        E 360 90 18 69
        E 0 90 30 69
        E 0 90 48 69
        E 0 90 60 69
        E 120 80 18 00
        E 0 80 30 00
        E 0 80 48 00
        E 0 80 60 00
        E 360 90 18 69
        E 0 90 30 69
        E 0 90 48 69
        E 0 90 60 69
        E 120 80 18 00
        E 0 80 30 00
        E 0 80 48 00
        E 0 80 60 00
        E 360 90 18 69
        E 0 90 30 69
        E 0 90 48 69
        E 0 90 60 69
        E 120 80 18 00
        E 0 80 30 00
        E 0 80 48 00
        E 0 80 60 00
        E 360 90 18 69
        E 0 90 30 69
        E 0 90 48 69
        E 0 90 60 69
        E 120 80 18 00
        E 0 80 30 00
        E 0 80 48 00
        E 0 80 60 00
        E 360 90 18 69
        E 0 90 30 69
        E 0 90 48 69
        E 0 90 60 69
        E 120 80 18 00
        E 0 80 30 00
        E 0 80 48 00
        E 0 80 60 00
        E 360 90 18 69
        E 0 90 30 69
        E 0 90 48 69
        E 0 90 60 69
        E 120 80 18 00
        E 0 80 30 00
        E 0 80 48 00
        E 0 80 60 00
        E 360 90 31 67
        E 0 90 49 67
        E 0 90 61 67
        E 120 80 31 00
        E 0 80 49 00
        E 0 80 61 00
        E 120 90 49 69
        E 0 90 61 69
        E 120 80 49 00
        E 0 80 61 00
        E 360 90 31 69
        E 0 90 49 69
        E 0 90 61 69
        E 120 80 31 00
        E 0 80 49 00
        E 0 80 61 00
        E 120 90 19 69
        E 0 90 31 69
        E 0 90 49 69
        E 0 90 61 69
        E 120 80 19 00
        E 0 80 31 00
        E 0 80 49 00
        E 0 80 61 00
        E 360 90 19 69
        E 0 90 31 69
        E 0 90 49 69
        E 0 90 61 69
        E 120 80 19 00
        E 0 80 31 00
        E 0 80 49 00
        E 0 80 61 00
        E 360 90 19 69
        E 0 90 31 69
        E 0 90 49 69
        E 0 90 61 69
        E 120 80 19 00
        E 0 80 31 00
        E 0 80 49 00
        E 0 80 61 00
        E 120 90 4b 64
        E 0 90 63 64
        E 120 80 4b 00
        E 0 80 63 00
        E 360 90 4b 64
        E 0 90 63 64
        E 120 80 4b 00
        E 0 80 63 00
        E 120 90 4b 66
        E 0 90 63 66
        E 120 80 4b 00
        E 0 80 63 00
        E 120 90 4b 64
        E 0 90 63 64
        E 120 80 4b 00
        E 0 80 63 00
        E 120 90 1a 66
        E 0 90 32 66
        E 0 90 4a 66
        E 0 90 62 66
        E 120 80 1a 00
        E 0 80 32 00
        E 0 80 4a 00
        E 0 80 62 00
        E 120 90 4a 64
        E 0 90 62 64
        E 120 80 4a 00
        E 0 80 62 00
        E 120 90 31 67
        E 0 90 49 67
        E 0 90 61 67
        E 120 80 31 00
        E 0 80 49 00
        E 0 80 61 00
        E 120 90 49 66
        E 0 90 61 66
        E 120 80 49 00
        E 0 80 61 00
        <X 120 0
          /wFbZW5kX3BiIHNvbmdfdHJhaW5lcl9wYl8zXQ==
        >
        E 0 90 18 69
        E 0 90 30 69
        E 0 90 48 69
        E 0 90 60 69
        E 120 80 18 00
        E 0 80 30 00
        E 0 80 48 00
        E 0 80 60 00
        E 360 90 18 69
        E 0 90 30 69
        E 0 90 48 69
        E 0 90 60 69
        E 120 80 18 00
        E 0 80 30 00
        E 0 80 48 00
        E 0 80 60 00
        E 360 90 18 69
        E 0 90 30 69
        E 0 90 48 69
        E 0 90 60 69
        E 120 80 18 00
        E 0 80 30 00
        E 0 80 48 00
        E 0 80 60 00
        E 360 90 18 69
        E 0 90 30 69
        E 0 90 48 69
        E 0 90 60 69
        E 120 80 18 00
        E 0 80 30 00
        E 0 80 48 00
        E 0 80 60 00
        E 360 90 18 69
        E 0 90 30 69
        E 0 90 48 69
        E 0 90 60 69
        E 120 80 18 00
        E 0 80 30 00
        E 0 80 48 00
        E 0 80 60 00
        E 360 90 18 69
        E 0 90 30 69
        E 0 90 48 69
        E 0 90 60 69
        E 120 80 18 00
        E 0 80 30 00
        E 0 80 48 00
        E 0 80 60 00
        E 360 90 18 69
        E 0 90 30 69
        E 0 90 48 69
        E 0 90 60 69
        E 120 80 18 00
        E 0 80 30 00
        E 0 80 48 00
        E 0 80 60 00
        E 360 90 31 67
        E 0 90 49 67
        E 0 90 61 67
        E 120 80 31 00
        E 0 80 49 00
        E 0 80 61 00
        E 120 90 49 69
        E 0 90 61 69
        E 120 80 49 00
        E 0 80 61 00
        E 360 90 31 69
        E 0 90 49 69
        E 0 90 61 69
        E 120 80 31 00
        E 0 80 49 00
        E 0 80 61 00
        E 120 90 19 69
        E 0 90 31 69
        E 0 90 49 69
        E 0 90 61 69
        E 120 80 19 00
        E 0 80 31 00
        E 0 80 49 00
        E 0 80 61 00
        E 360 90 19 69
        E 0 90 31 69
        E 0 90 49 69
        E 0 90 61 69
        E 120 80 19 00
        E 0 80 31 00
        E 0 80 49 00
        E 0 80 61 00
        E 360 90 19 69
        E 0 90 31 69
        E 0 90 49 69
        E 0 90 61 69
        E 120 80 19 00
        E 0 80 31 00
        E 0 80 49 00
        E 0 80 61 00
        E 120 90 48 67
        E 0 90 60 67
        E 120 80 48 00
        E 0 80 60 00
        E 360 90 48 67
        E 0 90 60 67
        E 120 80 48 00
        E 0 80 60 00
        E 120 90 30 69
        E 0 90 48 69
        E 0 90 60 69
        E 120 80 30 00
        E 0 80 48 00
        E 0 80 60 00
        E 120 90 48 67
        E 0 90 60 67
        E 120 80 48 00
        E 0 80 60 00
        E 120 90 32 66
        E 0 90 4a 66
        E 0 90 62 66
        E 120 80 32 00
        E 0 80 4a 00
        E 0 80 62 00
        E 120 90 4a 64
        E 0 90 62 64
        E 120 80 4a 00
        E 0 80 62 00
        E 120 90 31 67
        E 0 90 49 67
        E 0 90 61 67
        E 120 80 31 00
        E 0 80 49 00
        E 0 80 61 00
        E 120 90 49 66
        E 0 90 61 66
        E 120 80 49 00
        E 0 80 61 00
        E 120 90 18 69
        E 0 90 30 69
        E 0 90 48 69
        E 0 90 60 69
        E 120 80 18 00
        E 0 80 30 00
        E 0 80 48 00
        E 0 80 60 00
        E 360 90 18 69
        E 0 90 30 69
        E 0 90 48 69
        E 0 90 60 69
        E 120 80 18 00
        E 0 80 30 00
        E 0 80 48 00
        E 0 80 60 00
        E 360 90 18 69
        E 0 90 30 69
        E 0 90 48 69
        E 0 90 60 69
        E 120 80 18 00
        E 0 80 30 00
        E 0 80 48 00
        E 0 80 60 00
        E 360 90 18 69
        E 0 90 30 69
        E 0 90 48 69
        E 0 90 60 69
        E 120 80 18 00
        E 0 80 30 00
        E 0 80 48 00
        E 0 80 60 00
        E 360 90 18 69
        E 0 90 30 69
        E 0 90 48 69
        E 0 90 60 69
        E 120 80 18 00
        E 0 80 30 00
        E 0 80 48 00
        E 0 80 60 00
        E 360 90 18 69
        E 0 90 30 69
        E 0 90 48 69
        E 0 90 60 69
        E 120 80 18 00
        E 0 80 30 00
        E 0 80 48 00
        E 0 80 60 00
        E 360 90 18 69
        E 0 90 30 69
        E 0 90 48 69
        E 0 90 60 69
        E 120 80 18 00
        E 0 80 30 00
        E 0 80 48 00
        E 0 80 60 00
        E 360 90 31 67
        E 0 90 49 67
        E 0 90 61 67
        E 120 80 31 00
        E 0 80 49 00
        E 0 80 61 00
        E 120 90 49 69
        E 0 90 61 69
        E 120 80 49 00
        E 0 80 61 00
        E 360 90 31 69
        E 0 90 49 69
        E 0 90 61 69
        E 120 80 31 00
        E 0 80 49 00
        E 0 80 61 00
        E 120 90 19 69
        E 0 90 31 69
        E 0 90 49 69
        E 0 90 61 69
        E 120 80 19 00
        E 0 80 31 00
        E 0 80 49 00
        E 0 80 61 00
        E 360 90 19 69
        E 0 90 31 69
        E 0 90 49 69
        E 0 90 61 69
        E 120 80 19 00
        E 0 80 31 00
        E 0 80 49 00
        E 0 80 61 00
        E 360 90 19 69
        E 0 90 31 69
        E 0 90 49 69
        E 0 90 61 69
        E 120 80 19 00
        E 0 80 31 00
        E 0 80 49 00
        E 0 80 61 00
        E 120 90 4b 64
        E 0 90 63 64
        E 120 80 4b 00
        E 0 80 63 00
        E 360 90 4b 64
        E 0 90 63 64
        E 120 80 4b 00
        E 0 80 63 00
        E 120 90 4b 66
        E 0 90 63 66
        E 120 80 4b 00
        E 0 80 63 00
        E 120 90 4b 64
        E 0 90 63 64
        E 120 80 4b 00
        E 0 80 63 00
        E 120 90 1a 66
        E 0 90 32 66
        E 0 90 4a 66
        E 0 90 62 66
        E 120 80 1a 00
        E 0 80 32 00
        E 0 80 4a 00
        E 0 80 62 00
        E 120 90 4a 64
        E 0 90 62 64
        E 120 80 4a 00
        E 0 80 62 00
        E 120 90 31 67
        E 0 90 49 67
        E 0 90 61 67
        E 120 80 31 00
        E 0 80 49 00
        E 0 80 61 00
        E 120 90 49 66
        E 0 90 61 66
        E 120 80 49 00
        E 0 80 61 00
        E 120 90 19 67
        E 0 90 31 67
        E 0 90 49 67
        E 0 90 61 67
        E 0 90 6c 65
        E 120 80 19 00
        E 0 80 31 00
        E 0 80 49 00
        E 0 80 61 00
        E 0 80 6c 00
        E 360 90 19 67
        E 0 90 31 67
        E 0 90 49 67
        E 0 90 61 67
        E 120 80 19 00
        E 0 80 31 00
        E 0 80 49 00
        E 0 80 61 00
        E 360 90 19 67
        E 0 90 31 67
        E 0 90 49 67
        E 0 90 61 67
        E 120 80 19 00
        E 0 80 31 00
        E 0 80 49 00
        E 0 80 61 00
        E 360 90 19 67
        E 0 90 31 67
        E 0 90 49 67
        E 0 90 61 67
        E 120 80 19 00
        E 0 80 31 00
        E 0 80 49 00
        E 0 80 61 00
        E 360 90 19 67
        E 0 90 31 67
        E 0 90 49 67
        E 0 90 61 67
        E 120 80 19 00
        E 0 80 31 00
        E 0 80 49 00
        E 0 80 61 00
        E 360 90 31 67
        E 0 90 49 67
        E 0 90 61 67
        E 120 80 31 00
        E 0 80 49 00
        E 0 80 61 00
        E 360 90 18 68
        E 0 90 30 68
        E 0 90 48 68
        E 0 90 60 68
        E 120 80 18 00
        E 0 80 30 00
        E 0 80 48 00
        E 0 80 60 00
        E 120 90 49 65
        E 0 90 61 65
        E 120 80 49 00
        E 0 80 61 00
        E 120 90 31 67
        E 0 90 49 67
        E 0 90 61 67
        E 120 80 31 00
        E 0 80 49 00
        E 0 80 61 00
        E 120 90 4a 66
        E 0 90 62 66
        E 120 80 4a 00
        E 480 80 62 00
        E 120 90 32 66
        E 0 90 4a 66
        E 0 90 62 66
        E 120 80 32 00
        E 0 80 4a 00
        E 0 80 62 00
        E 360 90 32 66
        E 0 90 4a 66
        E 0 90 62 66
        E 120 80 32 00
        E 0 80 4a 00
        E 0 80 62 00
        E 120 90 32 66
        E 0 90 4a 66
        E 0 90 62 66
        E 120 80 32 00
        E 0 80 4a 00
        E 0 80 62 00
        E 120 90 32 66
        E 0 90 4a 66
        E 0 90 62 66
        E 120 80 32 00
        E 0 80 4a 00
        E 0 80 62 00
        E 120 90 4a 64
        E 0 90 62 64
        E 120 80 4a 00
        E 480 80 62 00
        E 120 90 1a 64
        E 0 90 32 64
        E 0 90 4a 64
        E 0 90 62 64
        E 120 80 1a 00
        E 0 80 32 00
        E 0 80 4a 00
        E 0 80 62 00
        E 120 90 4a 66
        E 0 90 62 66
        E 120 80 4a 00
        E 0 80 62 00
        E 360 90 4a 66
        E 0 90 62 66
        E 120 80 4a 00
        E 0 80 62 00
        E 120 90 1a 64
        E 0 90 32 64
        E 0 90 4a 64
        E 0 90 62 64
        E 120 80 1a 00
        E 0 80 32 00
        E 0 80 4a 00
        E 0 80 62 00
        E 120 90 49 65
        E 0 90 61 65
        E 120 80 49 00
        E 0 80 61 00
        E 120 90 19 67
        E 0 90 31 67
        E 0 90 49 67
        E 0 90 61 67
        E 120 80 19 00
        E 0 80 31 00
        E 0 80 49 00
        E 0 80 61 00
        E 360 90 19 67
        E 0 90 31 67
        E 0 90 49 67
        E 0 90 61 67
        E 120 80 19 00
        E 0 80 31 00
        E 0 80 49 00
        E 0 80 61 00
        E 360 90 19 67
        E 0 90 31 67
        E 0 90 49 67
        E 0 90 61 67
        E 120 80 19 00
        E 0 80 31 00
        E 0 80 49 00
        E 0 80 61 00
        E 360 90 19 67
        E 0 90 31 67
        E 0 90 49 67
        E 0 90 61 67
        E 120 80 19 00
        E 0 80 31 00
        E 0 80 49 00
        E 0 80 61 00
        E 360 90 19 67
        E 0 90 31 67
        E 0 90 49 67
        E 0 90 61 67
        E 120 80 19 00
        E 0 80 31 00
        E 0 80 49 00
        E 0 80 61 00
        E 360 90 31 67
        E 0 90 49 67
        E 0 90 61 67
        E 120 80 31 00
        E 0 80 49 00
        E 0 80 61 00
        E 360 90 18 68
        E 0 90 30 68
        E 0 90 48 68
        E 0 90 60 68
        E 120 80 18 00
        E 0 80 30 00
        E 0 80 48 00
        E 0 80 60 00
        E 120 90 49 65
        E 0 90 61 65
        E 120 80 49 00
        E 0 80 61 00
        E 120 90 31 67
        E 0 90 49 67
        E 0 90 61 67
        E 120 80 31 00
        E 0 80 49 00
        E 0 80 61 00
        E 120 90 4a 66
        E 0 90 62 66
        E 120 80 4a 00
        E 480 80 62 00
        E 120 90 32 66
        E 0 90 4a 66
        E 0 90 62 66
        E 120 80 32 00
        E 0 80 4a 00
        E 0 80 62 00
        E 360 90 32 66
        E 0 90 4a 66
        E 0 90 62 66
        E 120 80 32 00
        E 0 80 4a 00
        E 0 80 62 00
        E 120 90 32 66
        E 0 90 4a 66
        E 0 90 62 66
        E 120 80 32 00
        E 0 80 4a 00
        E 0 80 62 00
        E 120 90 32 66
        E 0 90 4a 66
        E 0 90 62 66
        E 120 80 32 00
        E 0 80 4a 00
        E 0 80 62 00
        E 120 90 4b 64
        E 0 90 63 64
        E 120 80 4b 00
        E 480 80 63 00
        E 120 90 4b 64
        E 0 90 63 64
        E 120 80 4b 00
        E 0 80 63 00
        E 120 90 49 65
        E 0 90 61 65
        E 120 80 49 00
        E 0 80 61 00
        E 360 90 31 65
        E 0 90 49 65
        E 0 90 61 65
        E 120 80 31 00
        E 0 80 49 00
        E 0 80 61 00
        E 120 90 31 65
        E 0 90 49 65
        E 0 90 61 65
        E 120 80 31 00
        E 0 80 49 00
        E 0 80 61 00
        E 120 90 49 65
        E 0 90 61 65
        E 120 80 49 00
        E 0 80 61 00
        E 120 90 19 67
        E 0 90 31 67
        E 0 90 49 67
        E 0 90 61 67
        E 0 90 6c 67
        E 0 90 74 64
        E 120 80 19 00
        E 0 80 31 00
        E 0 80 49 00
        E 0 80 61 00
        E 0 80 6c 00
        E 360 90 19 67
        E 0 90 31 67
        E 0 90 49 67
        E 0 90 61 67
        E 120 80 19 00
        E 0 80 31 00
        E 0 80 49 00
        E 0 80 61 00
        E 360 90 19 67
        E 0 90 31 67
        E 0 90 49 67
        E 0 90 61 67
        E 120 80 19 00
        E 0 80 31 00
        E 0 80 49 00
        E 0 80 61 00
        E 360 90 19 67
        E 0 90 31 67
        E 0 90 49 67
        E 0 90 61 67
        E 120 80 19 00
        E 0 80 31 00
        E 0 80 49 00
        E 0 80 61 00
        E 360 90 19 67
        E 0 90 31 67
        E 0 90 49 67
        E 0 90 61 67
        E 120 80 19 00
        E 0 80 31 00
        E 0 80 49 00
        E 0 80 61 00
        E 120 90 31 67
        E 0 90 49 67
        E 0 90 61 67
        E 120 80 31 00
        E 0 80 49 00
        E 0 80 61 00
        E 120 90 19 67
        E 0 90 31 67
        E 0 90 49 67
        E 0 90 61 67
        E 120 80 19 00
        E 0 80 31 00
        E 0 80 49 00
        E 0 80 61 00
        E 360 90 19 67
        E 0 90 31 67
        E 0 90 49 67
        E 0 90 61 67
        E 120 80 19 00
        E 0 80 31 00
        E 0 80 49 00
        E 0 80 61 00
        E 120 90 31 67
        E 0 90 49 67
        E 0 90 61 67
        E 120 80 31 00
        E 0 80 49 00
        E 0 80 61 00
        E 120 90 31 67
        E 0 90 49 67
        E 0 90 61 67
        E 120 80 31 00
        E 0 80 49 00
        E 0 80 61 00
        E 120 90 49 69
        E 0 90 61 69
        E 120 80 49 00
        E 0 80 61 00
        E 120 80 74 00
        E 0 90 18 69
        E 0 90 30 69
        E 0 90 48 69
        E 0 90 60 69
        E 120 80 18 00
        E 0 80 30 00
        E 0 80 48 00
        E 0 80 60 00
        E 360 90 18 69
        E 0 90 30 69
        E 0 90 48 69
        E 0 90 60 69
        E 120 80 18 00
        E 0 80 30 00
        E 0 80 48 00
        E 0 80 60 00
        E 360 90 18 69
        E 0 90 30 69
        E 0 90 48 69
        E 0 90 60 69
        E 120 80 18 00
        E 0 80 30 00
        E 0 80 48 00
        E 0 80 60 00
        E 360 90 18 69
        E 0 90 30 69
        E 0 90 48 69
        E 0 90 60 69
        E 120 80 18 00
        E 0 80 30 00
        E 0 80 48 00
        E 0 80 60 00
        E 360 90 18 69
        E 0 90 30 69
        E 0 90 48 69
        E 0 90 60 69
        E 120 80 18 00
        E 0 80 30 00
        E 0 80 48 00
        E 0 80 60 00
        E 120 90 30 69
        E 0 90 48 69
        E 0 90 60 69
        E 120 80 30 00
        E 0 80 48 00
        E 0 80 60 00
        E 120 90 18 69
        E 0 90 30 69
        E 0 90 48 69
        E 0 90 60 69
        E 120 80 18 00
        E 0 80 30 00
        E 0 80 48 00
        E 0 80 60 00
        E 360 90 18 69
        E 0 90 30 69
        E 0 90 48 69
        E 0 90 60 69
        E 120 80 18 00
        E 0 80 30 00
        E 0 80 48 00
        E 0 80 60 00
        E 120 90 30 69
        E 0 90 48 69
        E 0 90 60 69
        E 120 80 30 00
        E 0 80 48 00
        E 0 80 60 00
        E 120 90 30 69
        E 0 90 48 69
        E 0 90 60 69
        E 120 80 30 00
        E 0 80 48 00
        E 0 80 60 00
        E 120 90 48 69
        E 0 90 60 69
        E 120 80 48 00
        E 0 80 60 00
        E 120 90 18 67
        E 0 90 30 67
        E 0 90 48 67
        E 0 90 60 67
        E 120 80 18 00
        E 0 80 30 00
        E 0 80 48 00
        E 0 80 60 00
        E 360 90 18 67
        E 0 90 30 67
        E 0 90 48 67
        E 0 90 60 67
        E 120 80 18 00
        E 0 80 30 00
        E 0 80 48 00
        E 0 80 60 00
        E 360 90 18 67
        E 0 90 30 67
        E 0 90 48 67
        E 0 90 60 67
        E 120 80 18 00
        E 0 80 30 00
        E 0 80 48 00
        E 0 80 60 00
        E 360 90 18 67
        E 0 90 30 67
        E 0 90 48 67
        E 0 90 60 67
        E 120 80 18 00
        E 0 80 30 00
        E 0 80 48 00
        E 0 80 60 00
        E 360 90 18 67
        E 0 90 30 67
        E 0 90 48 67
        E 0 90 60 67
        E 120 80 18 00
        E 0 80 30 00
        E 0 80 48 00
        E 0 80 60 00
        E 120 90 30 67
        E 0 90 48 67
        E 0 90 60 67
        E 120 80 30 00
        E 0 80 48 00
        E 0 80 60 00
        E 120 90 18 67
        E 0 90 30 67
        E 0 90 48 67
        E 0 90 60 67
        E 120 80 18 00
        E 0 80 30 00
        E 0 80 48 00
        E 0 80 60 00
        E 360 90 18 67
        E 0 90 30 67
        E 0 90 48 67
        E 0 90 60 67
        E 120 80 18 00
        E 0 80 30 00
        E 0 80 48 00
        E 0 80 60 00
        E 120 90 30 67
        E 0 90 48 67
        E 0 90 60 67
        E 120 80 30 00
        E 0 80 48 00
        E 0 80 60 00
        E 120 90 30 67
        E 0 90 48 67
        E 0 90 60 67
        E 120 80 30 00
        E 0 80 48 00
        E 0 80 60 00
        E 120 90 48 69
        E 0 90 60 69
        E 120 80 48 00
        E 0 80 60 00
        E 120 90 19 67
        E 0 90 31 67
        E 0 90 49 67
        E 0 90 61 67
        E 120 80 19 00
        E 0 80 31 00
        E 0 80 49 00
        E 0 80 61 00
        E 360 90 19 67
        E 0 90 31 67
        E 0 90 49 67
        E 0 90 61 67
        E 120 80 19 00
        E 0 80 31 00
        E 0 80 49 00
        E 0 80 61 00
        E 360 90 19 67
        E 0 90 31 67
        E 0 90 49 67
        E 0 90 61 67
        E 120 80 19 00
        E 0 80 31 00
        E 0 80 49 00
        E 0 80 61 00
        E 360 90 19 67
        E 0 90 31 67
        E 0 90 49 67
        E 0 90 61 67
        E 120 80 19 00
        E 0 80 31 00
        E 0 80 49 00
        E 0 80 61 00
        E 360 90 19 67
        E 0 90 31 67
        E 0 90 49 67
        E 0 90 61 67
        E 120 80 19 00
        E 0 80 31 00
        E 0 80 49 00
        E 0 80 61 00
        E 120 90 31 67
        E 0 90 49 67
        E 0 90 61 67
        E 120 80 31 00
        E 0 80 49 00
        E 0 80 61 00
        E 120 90 19 67
        E 0 90 31 67
        E 0 90 49 67
        E 0 90 61 67
        E 120 80 19 00
        E 0 80 31 00
        E 0 80 49 00
        E 0 80 61 00
        E 360 90 19 67
        E 0 90 31 67
        E 0 90 49 67
        E 0 90 61 67
        E 120 80 19 00
        E 0 80 31 00
        E 0 80 49 00
        E 0 80 61 00
        E 120 90 31 67
        E 0 90 49 67
        E 0 90 61 67
        E 120 80 31 00
        E 0 80 49 00
        E 0 80 61 00
        E 120 90 19 67
        E 0 90 31 67
        E 0 90 49 67
        E 0 90 61 67
        E 120 80 19 00
        E 0 80 31 00
        E 0 80 49 00
        E 0 80 61 00
        E 120 90 49 69
        E 0 90 61 69
        E 120 80 49 00
        E 0 80 61 00
        E 120 90 19 67
        E 0 90 31 67
        E 0 90 49 67
        E 0 90 61 67
        E 120 80 19 00
        E 0 80 31 00
        E 0 80 49 00
        E 0 80 61 00
        E 360 90 19 67
        E 0 90 31 67
        E 0 90 49 67
        E 0 90 61 67
        E 120 80 19 00
        E 0 80 31 00
        E 0 80 49 00
        E 0 80 61 00
        E 360 90 19 67
        E 0 90 31 67
        E 0 90 49 67
        E 0 90 61 67
        E 120 80 19 00
        E 0 80 31 00
        E 0 80 49 00
        E 0 80 61 00
        E 360 90 19 67
        E 0 90 31 67
        E 0 90 49 67
        E 0 90 61 67
        E 120 80 19 00
        E 0 80 31 00
        E 0 80 49 00
        E 0 80 61 00
        E 360 90 19 67
        E 0 90 31 67
        E 0 90 49 67
        E 0 90 61 67
        E 120 80 19 00
        E 0 80 31 00
        E 0 80 49 00
        E 0 80 61 00
        E 120 90 31 67
        E 0 90 49 67
        E 0 90 61 67
        E 120 80 31 00
        E 0 80 49 00
        E 0 80 61 00
        E 120 90 19 67
        E 0 90 31 67
        E 0 90 49 67
        E 0 90 61 67
        E 120 80 19 00
        E 0 80 31 00
        E 0 80 49 00
        E 0 80 61 00
        E 360 90 19 67
        E 0 90 31 67
        E 0 90 49 67
        E 0 90 61 67
        E 120 80 19 00
        E 0 80 31 00
        E 0 80 49 00
        E 0 80 61 00
        E 120 90 31 67
        E 0 90 49 67
        E 0 90 61 67
        E 120 80 31 00
        E 0 80 49 00
        E 0 80 61 00
        E 120 90 31 67
        E 0 90 49 67
        E 0 90 61 67
        E 120 80 31 00
        E 0 80 49 00
        E 0 80 61 00
        E 120 90 49 69
        E 0 90 61 69
        E 120 80 49 00
        E 0 80 61 00
        E 120 90 18 69
        E 0 90 30 69
        E 0 90 48 69
        E 0 90 60 69
        E 120 80 18 00
        E 0 80 30 00
        E 0 80 48 00
        E 0 80 60 00
        E 360 90 18 69
        E 0 90 30 69
        E 0 90 48 69
        E 0 90 60 69
        E 120 80 18 00
        E 0 80 30 00
        E 0 80 48 00
        E 0 80 60 00
        E 360 90 18 69
        E 0 90 30 69
        E 0 90 48 69
        E 0 90 60 69
        E 120 80 18 00
        E 0 80 30 00
        E 0 80 48 00
        E 0 80 60 00
        E 360 90 18 69
        E 0 90 30 69
        E 0 90 48 69
        E 0 90 60 69
        E 120 80 18 00
        E 0 80 30 00
        E 0 80 48 00
        E 0 80 60 00
        E 360 90 18 69
        E 0 90 30 69
        E 0 90 48 69
        E 0 90 60 69
        E 120 80 18 00
        E 0 80 30 00
        E 0 80 48 00
        E 0 80 60 00
        E 120 90 30 69
        E 0 90 48 69
        E 0 90 60 69
        E 120 80 30 00
        E 0 80 48 00
        E 0 80 60 00
        E 120 90 18 69
        E 0 90 30 69
        E 0 90 48 69
        E 0 90 60 69
        E 120 80 18 00
        E 0 80 30 00
        E 0 80 48 00
        E 0 80 60 00
        E 360 90 18 69
        E 0 90 30 69
        E 0 90 48 69
        E 0 90 60 69
        E 120 80 18 00
        E 0 80 30 00
        E 0 80 48 00
        E 0 80 60 00
        E 120 90 30 69
        E 0 90 48 69
        E 0 90 60 69
        E 120 80 30 00
        E 0 80 48 00
        E 0 80 60 00
        E 120 90 30 69
        E 0 90 48 69
        E 0 90 60 69
        E 120 80 30 00
        E 0 80 48 00
        E 0 80 60 00
        E 120 90 48 69
        E 0 90 60 69
        E 120 80 48 00
        E 0 80 60 00
        E 120 90 18 67
        E 0 90 30 67
        E 0 90 48 67
        E 0 90 60 67
        E 120 80 18 00
        E 0 80 30 00
        E 0 80 48 00
        E 0 80 60 00
        E 360 90 18 67
        E 0 90 30 67
        E 0 90 48 67
        E 0 90 60 67
        E 120 80 18 00
        E 0 80 30 00
        E 0 80 48 00
        E 0 80 60 00
        E 360 90 18 67
        E 0 90 30 67
        E 0 90 48 67
        E 0 90 60 67
        E 120 80 18 00
        E 0 80 30 00
        E 0 80 48 00
        E 0 80 60 00
        E 360 90 18 67
        E 0 90 30 67
        E 0 90 48 67
        E 0 90 60 67
        E 120 80 18 00
        E 0 80 30 00
        E 0 80 48 00
        E 0 80 60 00
        E 360 90 18 67
        E 0 90 30 67
        E 0 90 48 67
        E 0 90 60 67
        E 120 80 18 00
        E 0 80 30 00
        E 0 80 48 00
        E 0 80 60 00
        E 120 90 30 67
        E 0 90 48 67
        E 0 90 60 67
        E 120 80 30 00
        E 0 80 48 00
        E 0 80 60 00
        E 120 90 18 67
        E 0 90 30 67
        E 0 90 48 67
        E 0 90 60 67
        E 120 80 18 00
        E 0 80 30 00
        E 0 80 48 00
        E 0 80 60 00
        E 360 90 18 67
        E 0 90 30 67
        E 0 90 48 67
        E 0 90 60 67
        E 120 80 18 00
        E 0 80 30 00
        E 0 80 48 00
        E 0 80 60 00
        E 120 90 30 67
        E 0 90 48 67
        E 0 90 60 67
        E 120 80 30 00
        E 0 80 48 00
        E 0 80 60 00
        E 120 90 30 67
        E 0 90 48 67
        E 0 90 60 67
        E 120 80 30 00
        E 0 80 48 00
        E 0 80 60 00
        E 120 90 48 69
        E 0 90 60 69
        E 120 80 48 00
        E 0 80 60 00
        E 120 90 19 67
        E 0 90 31 67
        E 0 90 49 67
        E 0 90 61 67
        E 120 80 19 00
        E 0 80 31 00
        E 0 80 49 00
        E 0 80 61 00
        E 360 90 19 67
        E 0 90 31 67
        E 0 90 49 67
        E 0 90 61 67
        E 120 80 19 00
        E 0 80 31 00
        E 0 80 49 00
        E 0 80 61 00
        E 360 90 19 67
        E 0 90 31 67
        E 0 90 49 67
        E 0 90 61 67
        E 120 80 19 00
        E 0 80 31 00
        E 0 80 49 00
        E 0 80 61 00
        E 360 90 19 67
        E 0 90 31 67
        E 0 90 49 67
        E 0 90 61 67
        E 120 80 19 00
        E 0 80 31 00
        E 0 80 49 00
        E 0 80 61 00
        E 360 90 19 67
        E 0 90 31 67
        E 0 90 49 67
        E 0 90 61 67
        E 120 80 19 00
        E 0 80 31 00
        E 0 80 49 00
        E 0 80 61 00
        E 120 90 31 67
        E 0 90 49 67
        E 0 90 61 67
        E 120 80 31 00
        E 0 80 49 00
        E 0 80 61 00
        E 120 90 19 67
        E 0 90 31 67
        E 0 90 49 67
        E 0 90 61 67
        E 120 80 19 00
        E 0 80 31 00
        E 0 80 49 00
        E 0 80 61 00
        E 360 90 19 67
        E 0 90 31 67
        E 0 90 49 67
        E 0 90 61 67
        E 120 80 19 00
        E 0 80 31 00
        E 0 80 49 00
        E 0 80 61 00
        E 120 90 31 67
        E 0 90 49 67
        E 0 90 61 67
        E 120 80 31 00
        E 0 80 49 00
        E 0 80 61 00
        E 120 90 31 67
        E 0 90 49 67
        E 0 90 61 67
        E 120 80 31 00
        E 0 80 49 00
        E 0 80 61 00
        E 120 90 49 69
        E 0 90 61 69
        E 120 80 49 00
        E 0 80 61 00
        E 120 90 18 69
        E 0 90 30 69
        E 0 90 48 69
        E 0 90 60 69
        E 0 90 6c 66
        E 120 80 18 00
        E 0 80 30 00
        E 0 80 48 00
        E 0 80 60 00
        E 0 80 6c 00
        E 360 90 18 69
        E 0 90 30 69
        E 0 90 48 69
        E 0 90 60 69
        E 120 80 18 00
        E 0 80 30 00
        E 0 80 48 00
        E 0 80 60 00
        E 360 90 18 69
        E 0 90 30 69
        E 0 90 48 69
        E 0 90 60 69
        E 120 80 18 00
        E 0 80 30 00
        E 0 80 48 00
        E 0 80 60 00
        E 360 90 18 69
        E 0 90 30 69
        E 0 90 48 69
        E 0 90 60 69
        E 120 80 18 00
        E 0 80 30 00
        E 0 80 48 00
        E 0 80 60 00
        E 360 90 18 69
        E 0 90 30 69
        E 0 90 48 69
        E 0 90 60 69
        E 120 80 18 00
        E 0 80 30 00
        E 0 80 48 00
        E 0 80 60 00
        E 360 90 18 69
        E 0 90 30 69
        E 0 90 48 69
        E 0 90 60 69
        E 120 80 18 00
        E 0 80 30 00
        E 0 80 48 00
        E 0 80 60 00
        E 360 90 18 69
        E 0 90 30 69
        E 0 90 48 69
        E 0 90 60 69
        E 120 80 18 00
        E 0 80 30 00
        E 0 80 48 00
        E 0 80 60 00
        E 360 90 31 67
        E 0 90 49 67
        E 0 90 61 67
        E 120 80 31 00
        E 0 80 49 00
        E 0 80 61 00
        E 120 90 49 69
        E 0 90 61 69
        E 120 80 49 00
        E 0 80 61 00
        E 120 90 74 64
        E 240 90 31 69
        E 0 90 49 69
        E 0 90 61 69
        E 120 80 31 00
        E 0 80 49 00
        E 0 80 61 00
        E 120 90 19 69
        E 0 90 31 69
        E 0 90 49 69
        E 0 90 61 69
        E 120 80 19 00
        E 0 80 31 00
        E 0 80 49 00
        E 0 80 61 00
        E 360 90 19 69
        E 0 90 31 69
        E 0 90 49 69
        E 0 90 61 69
        E 120 80 19 00
        E 0 80 31 00
        E 0 80 49 00
        E 0 80 61 00
        E 360 90 19 69
        E 0 90 31 69
        E 0 90 49 69
        E 0 90 61 69
        E 120 80 19 00
        E 0 80 31 00
        E 0 80 49 00
        E 0 80 61 00
        E 120 90 48 67
        E 0 90 60 67
        E 120 80 48 00
        E 0 80 60 00
        E 360 90 48 67
        E 0 90 60 67
        E 120 80 48 00
        E 0 80 60 00
        E 120 90 30 69
        E 0 90 48 69
        E 0 90 60 69
        E 120 80 30 00
        E 0 80 48 00
        E 0 80 60 00
        E 120 90 48 67
        E 0 90 60 67
        E 120 80 48 00
        E 0 80 60 00
        E 120 90 32 66
        E 0 90 4a 66
        E 0 90 62 66
        E 120 80 32 00
        E 0 80 4a 00
        E 0 80 62 00
        E 120 90 4a 64
        E 0 90 62 64
        E 120 80 4a 00
        E 0 80 62 00
        E 120 90 31 67
        E 0 90 49 67
        E 0 90 61 67
        E 120 80 31 00
        E 0 80 49 00
        E 0 80 61 00
        E 120 90 49 66
        E 0 90 61 66
        E 120 80 49 00
        E 0 80 61 00
        E 120 80 74 00
        E 0 90 18 69
        E 0 90 30 69
        E 0 90 48 69
        E 0 90 60 69
        E 120 80 18 00
        E 0 80 30 00
        E 0 80 48 00
        E 0 80 60 00
        E 360 90 18 69
        E 0 90 30 69
        E 0 90 48 69
        E 0 90 60 69
        E 120 80 18 00
        E 0 80 30 00
        E 0 80 48 00
        E 0 80 60 00
        E 360 90 18 69
        E 0 90 30 69
        E 0 90 48 69
        E 0 90 60 69
        E 120 80 18 00
        E 0 80 30 00
        E 0 80 48 00
        E 0 80 60 00
        E 360 90 18 69
        E 0 90 30 69
        E 0 90 48 69
        E 0 90 60 69
        E 120 80 18 00
        E 0 80 30 00
        E 0 80 48 00
        E 0 80 60 00
        E 360 90 18 69
        E 0 90 30 69
        E 0 90 48 69
        E 0 90 60 69
        E 120 80 18 00
        E 0 80 30 00
        E 0 80 48 00
        E 0 80 60 00
        E 360 90 18 69
        E 0 90 30 69
        E 0 90 48 69
        E 0 90 60 69
        E 120 80 18 00
        E 0 80 30 00
        E 0 80 48 00
        E 0 80 60 00
        E 360 90 18 69
        E 0 90 30 69
        E 0 90 48 69
        E 0 90 60 69
        E 120 80 18 00
        E 0 80 30 00
        E 0 80 48 00
        E 0 80 60 00
        E 360 90 31 67
        E 0 90 49 67
        E 0 90 61 67
        E 120 80 31 00
        E 0 80 49 00
        E 0 80 61 00
        E 120 90 49 69
        E 0 90 61 69
        E 120 80 49 00
        E 0 80 61 00
        E 360 90 31 69
        E 0 90 49 69
        E 0 90 61 69
        E 120 80 31 00
        E 0 80 49 00
        E 0 80 61 00
        E 120 90 19 69
        E 0 90 31 69
        E 0 90 49 69
        E 0 90 61 69
        E 120 80 19 00
        E 0 80 31 00
        E 0 80 49 00
        E 0 80 61 00
        E 360 90 19 69
        E 0 90 31 69
        E 0 90 49 69
        E 0 90 61 69
        E 120 80 19 00
        E 0 80 31 00
        E 0 80 49 00
        E 0 80 61 00
        E 360 90 19 69
        E 0 90 31 69
        E 0 90 49 69
        E 0 90 61 69
        E 120 80 19 00
        E 0 80 31 00
        E 0 80 49 00
        E 0 80 61 00
        E 120 90 4b 64
        E 0 90 63 64
        E 120 80 4b 00
        E 0 80 63 00
        E 360 90 4b 64
        E 0 90 63 64
        E 120 80 4b 00
        E 0 80 63 00
        E 120 90 4b 66
        E 0 90 63 66
        E 120 80 4b 00
        E 0 80 63 00
        E 120 90 4b 64
        E 0 90 63 64
        E 120 80 4b 00
        E 0 80 63 00
        E 120 90 1a 66
        E 0 90 32 66
        E 0 90 4a 66
        E 0 90 62 66
        E 120 80 1a 00
        E 0 80 32 00
        E 0 80 4a 00
        E 0 80 62 00
        E 120 90 4a 64
        E 0 90 62 64
        E 120 80 4a 00
        E 0 80 62 00
        E 120 90 31 67
        E 0 90 49 67
        E 0 90 61 67
        E 120 80 31 00
        E 0 80 49 00
        E 0 80 61 00
        E 120 90 49 66
        E 0 90 61 66
        E 120 80 49 00
        E 0 80 61 00
        E 120 90 18 69
        E 0 90 30 69
        E 0 90 48 69
        E 0 90 60 69
        E 120 80 18 00
        E 0 80 30 00
        E 0 80 48 00
        E 0 80 60 00
        E 360 90 18 69
        E 0 90 30 69
        E 0 90 48 69
        E 0 90 60 69
        E 120 80 18 00
        E 0 80 30 00
        E 0 80 48 00
        E 0 80 60 00
        E 360 90 18 69
        E 0 90 30 69
        E 0 90 48 69
        E 0 90 60 69
        E 120 80 18 00
        E 0 80 30 00
        E 0 80 48 00
        E 0 80 60 00
        E 360 90 18 69
        E 0 90 30 69
        E 0 90 48 69
        E 0 90 60 69
        E 120 80 18 00
        E 0 80 30 00
        E 0 80 48 00
        E 0 80 60 00
        E 360 90 18 69
        E 0 90 30 69
        E 0 90 48 69
        E 0 90 60 69
        E 120 80 18 00
        E 0 80 30 00
        E 0 80 48 00
        E 0 80 60 00
        E 360 90 18 69
        E 0 90 30 69
        E 0 90 48 69
        E 0 90 60 69
        E 120 80 18 00
        E 0 80 30 00
        E 0 80 48 00
        E 0 80 60 00
        E 360 90 18 69
        E 0 90 30 69
        E 0 90 48 69
        E 0 90 60 69
        E 120 80 18 00
        E 0 80 30 00
        E 0 80 48 00
        E 0 80 60 00
        E 360 90 31 67
        E 0 90 49 67
        E 0 90 61 67
        E 120 80 31 00
        E 0 80 49 00
        E 0 80 61 00
        E 120 90 49 69
        E 0 90 61 69
        E 120 80 49 00
        E 0 80 61 00
        E 360 90 31 69
        E 0 90 49 69
        E 0 90 61 69
        E 120 80 31 00
        E 0 80 49 00
        E 0 80 61 00
        E 120 90 19 69
        E 0 90 31 69
        E 0 90 49 69
        E 0 90 61 69
        E 120 80 19 00
        E 0 80 31 00
        E 0 80 49 00
        E 0 80 61 00
        E 360 90 19 69
        E 0 90 31 69
        E 0 90 49 69
        E 0 90 61 69
        E 120 80 19 00
        E 0 80 31 00
        E 0 80 49 00
        E 0 80 61 00
        E 360 90 19 69
        E 0 90 31 69
        E 0 90 49 69
        E 0 90 61 69
        E 120 80 19 00
        E 0 80 31 00
        E 0 80 49 00
        E 0 80 61 00
        E 120 90 48 67
        E 0 90 60 67
        E 120 80 48 00
        E 0 80 60 00
        E 360 90 48 67
        E 0 90 60 67
        E 120 80 48 00
        E 0 80 60 00
        E 120 90 30 69
        E 0 90 48 69
        E 0 90 60 69
        E 120 80 30 00
        E 0 80 48 00
        E 0 80 60 00
        E 120 90 48 67
        E 0 90 60 67
        E 120 80 48 00
        E 0 80 60 00
        E 120 90 32 66
        E 0 90 4a 66
        E 0 90 62 66
        E 120 80 32 00
        E 0 80 4a 00
        E 0 80 62 00
        E 120 90 4a 64
        E 0 90 62 64
        E 120 80 4a 00
        E 0 80 62 00
        E 120 90 31 67
        E 0 90 49 67
        E 0 90 61 67
        E 120 80 31 00
        E 0 80 49 00
        E 0 80 61 00
        E 120 90 49 66
        E 0 90 61 66
        E 120 80 49 00
        E 0 80 61 00
        E 120 90 18 69
        E 0 90 30 69
        E 0 90 48 69
        E 0 90 60 69
        E 120 80 18 00
        E 0 80 30 00
        E 0 80 48 00
        E 0 80 60 00
        E 360 90 18 69
        E 0 90 30 69
        E 0 90 48 69
        E 0 90 60 69
        E 120 80 18 00
        E 0 80 30 00
        E 0 80 48 00
        E 0 80 60 00
        E 360 90 18 69
        E 0 90 30 69
        E 0 90 48 69
        E 0 90 60 69
        E 120 80 18 00
        E 0 80 30 00
        E 0 80 48 00
        E 0 80 60 00
        E 360 90 18 69
        E 0 90 30 69
        E 0 90 48 69
        E 0 90 60 69
        E 120 80 18 00
        E 0 80 30 00
        E 0 80 48 00
        E 0 80 60 00
        E 360 90 18 69
        E 0 90 30 69
        E 0 90 48 69
        E 0 90 60 69
        E 120 80 18 00
        E 0 80 30 00
        E 0 80 48 00
        E 0 80 60 00
        E 360 90 18 69
        E 0 90 30 69
        E 0 90 48 69
        E 0 90 60 69
        E 120 80 18 00
        E 0 80 30 00
        E 0 80 48 00
        E 0 80 60 00
        E 360 90 18 69
        E 0 90 30 69
        E 0 90 48 69
        E 0 90 60 69
        E 120 80 18 00
        E 0 80 30 00
        E 0 80 48 00
        E 0 80 60 00
        E 360 90 31 67
        E 0 90 49 67
        E 0 90 61 67
        E 120 80 31 00
        E 0 80 49 00
        E 0 80 61 00
        E 120 90 49 69
        E 0 90 61 69
        E 120 80 49 00
        E 0 80 61 00
        E 360 90 31 69
        E 0 90 49 69
        E 0 90 61 69
        E 120 80 31 00
        E 0 80 49 00
        E 0 80 61 00
        E 120 90 19 69
        E 0 90 31 69
        E 0 90 49 69
        E 0 90 61 69
        E 120 80 19 00
        E 0 80 31 00
        E 0 80 49 00
        E 0 80 61 00
        E 360 90 19 69
        E 0 90 31 69
        E 0 90 49 69
        E 0 90 61 69
        E 120 80 19 00
        E 0 80 31 00
        E 0 80 49 00
        E 0 80 61 00
        E 360 90 19 69
        E 0 90 31 69
        E 0 90 49 69
        E 0 90 61 69
        E 120 80 19 00
        E 0 80 31 00
        E 0 80 49 00
        E 0 80 61 00
        E 120 90 4b 64
        E 0 90 63 64
        E 120 80 4b 00
        E 0 80 63 00
        E 360 90 4b 64
        E 0 90 63 64
        E 120 80 4b 00
        E 0 80 63 00
        E 120 90 4b 66
        E 0 90 63 66
        E 120 80 4b 00
        E 0 80 63 00
        E 120 90 4b 64
        E 0 90 63 64
        E 120 80 4b 00
        E 0 80 63 00
        E 120 90 1a 66
        E 0 90 32 66
        E 0 90 4a 66
        E 0 90 62 66
        E 120 80 1a 00
        E 0 80 32 00
        E 0 80 4a 00
        E 0 80 62 00
        E 120 90 4a 64
        E 0 90 62 64
        E 120 80 4a 00
        E 0 80 62 00
        E 120 90 19 67
        E 0 90 31 67
        E 0 90 49 67
        E 0 90 61 67
        E 120 80 19 00
        E 0 80 31 00
        E 0 80 49 00
        E 0 80 61 00
        E 120 90 49 66
        E 0 90 61 66
        E 120 80 49 00
        E 0 80 61 00
        <X 120 0
          /wFbYmVnaW5fcGIgc29uZ190cmFpbmVyX3BiXzRd
        >
        E 0 90 19 67
        E 0 90 31 67
        E 0 90 49 67
        E 0 90 61 67
        E 0 90 74 64
        E 120 80 19 00
        E 0 80 31 00
        E 0 80 49 00
        E 0 80 61 00
        E 360 90 19 67
        E 0 90 31 67
        E 0 90 49 67
        E 0 90 61 67
        E 120 80 19 00
        E 0 80 31 00
        E 0 80 49 00
        E 0 80 61 00
        E 360 90 19 67
        E 0 90 31 67
        E 0 90 49 67
        E 0 90 61 67
        E 120 80 19 00
        E 0 80 31 00
        E 0 80 49 00
        E 0 80 61 00
        E 360 90 19 67
        E 0 90 31 67
        E 0 90 49 67
        E 0 90 61 67
        E 120 80 19 00
        E 0 80 31 00
        E 0 80 49 00
        E 0 80 61 00
        E 360 90 19 67
        E 0 90 31 67
        E 0 90 49 67
        E 0 90 61 67
        E 120 80 19 00
        E 0 80 31 00
        E 0 80 49 00
        E 0 80 61 00
        E 360 90 19 67
        E 0 90 31 67
        E 0 90 49 67
        E 0 90 61 67
        E 120 80 19 00
        E 0 80 31 00
        E 0 80 49 00
        E 0 80 61 00
        E 360 90 19 67
        E 0 90 31 67
        E 0 90 49 67
        E 0 90 61 67
        E 120 80 19 00
        E 0 80 31 00
        E 0 80 49 00
        E 0 80 61 00
        E 120 90 31 67
        E 0 90 49 67
        E 0 90 61 67
        E 120 80 31 00
        E 0 80 49 00
        E 0 80 61 00
        E 360 90 32 66
        E 0 90 4a 66
        E 0 90 62 66
        E 120 80 32 00
        E 0 80 4a 00
        <X 120 0
          /wFbcGJfbm9ybSBzb25nX3RyYWluZXJfcGJfNF0=
        >
        E 360 80 62 00
        E 120 90 1a 66
        E 0 90 32 66
        E 0 90 4a 66
        E 0 90 62 66
        E 120 80 1a 00
        E 0 80 32 00
        E 0 80 4a 00
        E 0 80 62 00
        E 360 90 1a 66
        E 0 90 32 66
        E 0 90 4a 66
        E 0 90 62 66
        E 120 80 1a 00
        E 0 80 32 00
        E 0 80 4a 00
        E 0 80 62 00
        E 120 90 32 66
        E 0 90 4a 66
        E 0 90 62 66
        E 120 80 32 00
        E 0 80 4a 00
        E 0 80 62 00
        E 120 90 1a 66
        E 0 90 32 66
        E 0 90 4a 66
        E 0 90 62 66
        E 120 80 1a 00
        E 0 80 32 00
        E 0 80 4a 00
        E 0 80 62 00
        E 120 90 32 66
        E 0 90 4a 66
        E 0 90 62 66
        E 120 80 32 00
        E 0 80 4a 00
        E 480 80 62 00
        E 120 90 1a 66
        E 0 90 32 66
        E 0 90 4a 66
        E 0 90 62 66
        E 120 80 1a 00
        E 0 80 32 00
        E 0 80 4a 00
        E 0 80 62 00
        E 120 90 32 66
        E 0 90 4a 66
        E 0 90 62 66
        E 120 80 32 00
        E 0 80 4a 00
        E 0 80 62 00
        E 360 90 32 66
        E 0 90 4a 66
        E 0 90 62 66
        E 120 80 32 00
        E 0 80 4a 00
        E 0 80 62 00
        E 120 90 32 66
        E 0 90 4a 66
        E 0 90 62 66
        E 120 80 32 00
        E 0 80 4a 00
        E 0 80 62 00
        E 120 90 4a 66
        E 0 90 62 66
        E 120 80 4a 00
        E 0 80 62 00
        E 120 80 74 00
        E 0 90 32 67
        E 0 90 4a 67
        E 0 90 62 67
        E 120 80 32 00
        E 0 80 4a 00
        E 0 80 62 00
        E 360 90 32 67
        E 0 90 4a 67
        E 0 90 62 67
        E 120 80 32 00
        E 0 80 4a 00
        E 0 80 62 00
        E 360 90 32 67
        E 0 90 4a 67
        E 0 90 62 67
        E 120 80 32 00
        E 0 80 4a 00
        E 0 80 62 00
        E 360 90 32 67
        E 0 90 4a 67
        E 0 90 62 67
        E 120 80 32 00
        E 0 80 4a 00
        E 0 80 62 00
        E 360 90 32 67
        E 0 90 4a 67
        E 0 90 62 67
        E 120 80 32 00
        E 0 80 4a 00
        E 0 80 62 00
        E 360 90 32 67
        E 0 90 4a 67
        E 0 90 62 67
        E 120 80 32 00
        E 0 80 4a 00
        E 0 80 62 00
        E 360 90 32 67
        E 0 90 4a 67
        E 0 90 62 67
        E 120 80 32 00
        E 0 80 4a 00
        E 0 80 62 00
        E 120 90 32 67
        E 0 90 4a 67
        E 0 90 62 67
        E 120 80 32 00
        E 0 80 4a 00
        E 0 80 62 00
        E 360 90 4b 64
        E 0 90 63 64
        E 120 80 4b 00
        E 480 80 63 00
        E 120 90 4b 64
        E 0 90 63 64
        E 120 80 4b 00
        E 0 80 63 00
        E 360 90 4b 64
        E 0 90 63 64
        E 120 80 4b 00
        E 0 80 63 00
        E 120 90 4b 64
        E 0 90 63 64
        E 120 80 4b 00
        E 0 80 63 00
        E 120 90 4b 64
        E 0 90 63 64
        E 120 80 4b 00
        E 0 80 63 00
        E 120 90 4b 64
        E 0 90 63 64
        E 120 80 4b 00
        E 480 80 63 00
        E 120 90 4b 64
        E 0 90 63 64
        E 120 80 4b 00
        E 0 80 63 00
        E 120 90 49 64
        E 0 90 61 64
        E 120 80 49 00
        E 0 80 61 00
        E 360 90 31 64
        E 0 90 49 64
        E 0 90 61 64
        E 120 80 31 00
        E 0 80 49 00
        E 0 80 61 00
        E 120 90 31 64
        E 0 90 49 64
        E 0 90 61 64
        E 120 80 31 00
        E 0 80 49 00
        E 0 80 61 00
        E 120 90 49 64
        E 0 90 61 64
        E 120 80 49 00
        E 0 80 61 00
        <X 120 0
          /wFbZW5kX3BiIHNvbmdfdHJhaW5lcl9wYl80XQ==
        >
        E 0 90 19 67
        E 0 90 31 67
        E 0 90 49 67
        E 0 90 61 67
        E 120 80 19 00
        E 0 80 31 00
        E 0 80 49 00
        E 0 80 61 00
        E 360 90 19 67
        E 0 90 31 67
        E 0 90 49 67
        E 0 90 61 67
        E 120 80 19 00
        E 0 80 31 00
        E 0 80 49 00
        E 0 80 61 00
        E 360 90 19 67
        E 0 90 31 67
        E 0 90 49 67
        E 0 90 61 67
        E 120 80 19 00
        E 0 80 31 00
        E 0 80 49 00
        E 0 80 61 00
        E 360 90 19 67
        E 0 90 31 67
        E 0 90 49 67
        E 0 90 61 67
        E 120 80 19 00
        E 0 80 31 00
        E 0 80 49 00
        E 0 80 61 00
        E 360 90 19 67
        E 0 90 31 67
        E 0 90 49 67
        E 0 90 61 67
        E 120 80 19 00
        E 0 80 31 00
        E 0 80 49 00
        E 0 80 61 00
        E 360 90 19 67
        E 0 90 31 67
        E 0 90 49 67
        E 0 90 61 67
        E 120 80 19 00
        E 0 80 31 00
        E 0 80 49 00
        E 0 80 61 00
        E 360 90 19 67
        E 0 90 31 67
        E 0 90 49 67
        E 0 90 61 67
        E 120 80 19 00
        E 0 80 31 00
        E 0 80 49 00
        E 0 80 61 00
        E 120 90 31 67
        E 0 90 49 67
        E 0 90 61 67
        E 120 80 31 00
        E 0 80 49 00
        E 0 80 61 00
        E 360 90 32 66
        E 0 90 4a 66
        E 0 90 62 66
        E 120 80 32 00
        E 0 80 4a 00
        E 480 80 62 00
        E 120 90 1a 66
        E 0 90 32 66
        E 0 90 4a 66
        E 0 90 62 66
        E 120 80 1a 00
        E 0 80 32 00
        E 0 80 4a 00
        E 0 80 62 00
        E 360 90 1a 66
        E 0 90 32 66
        E 0 90 4a 66
        E 0 90 62 66
        E 120 80 1a 00
        E 0 80 32 00
        E 0 80 4a 00
        E 0 80 62 00
        E 120 90 32 66
        E 0 90 4a 66
        E 0 90 62 66
        E 120 80 32 00
        E 0 80 4a 00
        E 0 80 62 00
        E 120 90 1a 66
        E 0 90 32 66
        E 0 90 4a 66
        E 0 90 62 66
        E 120 80 1a 00
        E 0 80 32 00
        E 0 80 4a 00
        E 0 80 62 00
        E 120 90 32 66
        E 0 90 4a 66
        E 0 90 62 66
        E 120 80 32 00
        E 0 80 4a 00
        E 480 80 62 00
        E 120 90 1a 66
        E 0 90 32 66
        E 0 90 4a 66
        E 0 90 62 66
        E 120 80 1a 00
        E 0 80 32 00
        E 0 80 4a 00
        E 0 80 62 00
        E 120 90 32 66
        E 0 90 4a 66
        E 0 90 62 66
        E 120 80 32 00
        E 0 80 4a 00
        E 0 80 62 00
        E 360 90 32 66
        E 0 90 4a 66
        E 0 90 62 66
        E 120 80 32 00
        E 0 80 4a 00
        E 0 80 62 00
        E 120 90 32 66
        E 0 90 4a 66
        E 0 90 62 66
        E 120 80 32 00
        E 0 80 4a 00
        E 0 80 62 00
        E 120 90 4a 66
        E 0 90 62 66
        E 120 80 4a 00
        E 0 80 62 00
        E 120 90 32 67
        E 0 90 4a 67
        E 0 90 62 67
        E 120 80 32 00
        E 0 80 4a 00
        E 0 80 62 00
        E 360 90 32 67
        E 0 90 4a 67
        E 0 90 62 67
        E 120 80 32 00
        E 0 80 4a 00
        E 0 80 62 00
        E 360 90 32 67
        E 0 90 4a 67
        E 0 90 62 67
        E 120 80 32 00
        E 0 80 4a 00
        E 0 80 62 00
        E 360 90 32 67
        E 0 90 4a 67
        E 0 90 62 67
        E 120 80 32 00
        E 0 80 4a 00
        E 0 80 62 00
        E 360 90 32 67
        E 0 90 4a 67
        E 0 90 62 67
        E 120 80 32 00
        E 0 80 4a 00
        E 0 80 62 00
        E 360 90 32 67
        E 0 90 4a 67
        E 0 90 62 67
        E 120 80 32 00
        E 0 80 4a 00
        E 0 80 62 00
        E 360 90 32 67
        E 0 90 4a 67
        E 0 90 62 67
        E 120 80 32 00
        E 0 80 4a 00
        E 0 80 62 00
        E 120 90 32 67
        E 0 90 4a 67
        E 0 90 62 67
        E 120 80 32 00
        E 0 80 4a 00
        E 0 80 62 00
        E 360 90 4b 64
        E 0 90 63 64
        E 120 80 4b 00
        E 480 80 63 00
        E 120 90 4b 64
        E 0 90 63 64
        E 120 80 4b 00
        E 0 80 63 00
        E 360 90 4b 64
        E 0 90 63 64
        E 120 80 4b 00
        E 0 80 63 00
        E 120 90 4b 64
        E 0 90 63 64
        E 120 80 4b 00
        E 0 80 63 00
        E 120 90 4b 64
        E 0 90 63 64
        E 120 80 4b 00
        E 0 80 63 00
        E 120 90 4b 64
        E 0 90 63 64
        E 120 80 4b 00
        E 480 80 63 00
        E 120 90 4b 64
        E 0 90 63 64
        E 120 80 4b 00
        E 0 80 63 00
        E 120 90 49 64
        E 0 90 61 64
        E 120 80 49 00
        E 0 80 61 00
        E 360 90 31 64
        E 0 90 49 64
        E 0 90 61 64
        E 120 80 31 00
        E 0 80 49 00
        E 0 80 61 00
        E 120 90 31 64
        E 0 90 49 64
        E 0 90 61 64
        E 120 80 31 00
        E 0 80 49 00
        E 0 80 61 00
        E 120 90 49 64
        E 0 90 61 64
        E 120 80 49 00
        E 0 80 61 00
        <X 120 0
          /wFbYmVnaW5fcGIgc29uZ190cmFpbmVyX3BiXzVd
        >
        E 0 90 19 67
        E 0 90 31 67
        E 0 90 49 67
        E 0 90 61 67
        E 120 80 19 00
        E 0 80 31 00
        E 0 80 49 00
        E 0 80 61 00
        E 360 90 19 67
        E 0 90 31 67
        E 0 90 49 67
        E 0 90 61 67
        E 120 80 19 00
        E 0 80 31 00
        E 0 80 49 00
        E 0 80 61 00
        E 360 90 19 67
        E 0 90 31 67
        E 0 90 49 67
        E 0 90 61 67
        E 120 80 19 00
        E 0 80 31 00
        E 0 80 49 00
        E 0 80 61 00
        E 360 90 19 67
        E 0 90 31 67
        E 0 90 49 67
        E 0 90 61 67
        E 120 80 19 00
        E 0 80 31 00
        E 0 80 49 00
        E 0 80 61 00
        E 360 90 19 67
        E 0 90 31 67
        E 0 90 49 67
        E 0 90 61 67
        E 120 80 19 00
        E 0 80 31 00
        E 0 80 49 00
        E 0 80 61 00
        E 360 90 19 67
        E 0 90 31 67
        E 0 90 49 67
        E 0 90 61 67
        E 120 80 19 00
        E 0 80 31 00
        E 0 80 49 00
        E 0 80 61 00
        E 360 90 19 67
        E 0 90 31 67
        E 0 90 49 67
        E 0 90 61 67
        E 120 80 19 00
        E 0 80 31 00
        E 0 80 49 00
        E 0 80 61 00
        E 120 90 31 67
        E 0 90 49 67
        E 0 90 61 67
        E 120 80 31 00
        E 0 80 49 00
        E 0 80 61 00
        E 360 90 4a 66
        E 0 90 62 66
        E 120 80 4a 00
        <X 120 0
          /wFbcGJfbm9ybSBzb25nX3RyYWluZXJfcGJfNV0=
        >
        E 360 80 62 00
        E 120 90 1a 66
        E 0 90 32 66
        E 0 90 4a 66
        E 0 90 62 66
        E 120 80 1a 00
        E 0 80 32 00
        E 0 80 4a 00
        E 0 80 62 00
        E 360 90 1a 66
        E 0 90 32 66
        E 0 90 4a 66
        E 0 90 62 66
        E 120 80 1a 00
        E 0 80 32 00
        E 0 80 4a 00
        E 0 80 62 00
        E 120 90 32 66
        E 0 90 4a 66
        E 0 90 62 66
        E 120 80 32 00
        E 0 80 4a 00
        E 0 80 62 00
        E 120 90 1a 66
        E 0 90 32 66
        E 0 90 4a 66
        E 0 90 62 66
        E 120 80 1a 00
        E 0 80 32 00
        E 0 80 4a 00
        E 0 80 62 00
        E 120 90 32 66
        E 0 90 4a 66
        E 0 90 62 66
        E 120 80 32 00
        E 0 80 4a 00
        E 480 80 62 00
        E 120 90 1a 66
        E 0 90 32 66
        E 0 90 4a 66
        E 0 90 62 66
        E 120 80 1a 00
        E 0 80 32 00
        E 0 80 4a 00
        E 0 80 62 00
        E 120 90 32 66
        E 0 90 4a 66
        E 0 90 62 66
        E 120 80 32 00
        E 0 80 4a 00
        E 0 80 62 00
        E 360 90 32 66
        E 0 90 4a 66
        E 0 90 62 66
        E 120 80 32 00
        E 0 80 4a 00
        E 0 80 62 00
        E 120 90 32 66
        E 0 90 4a 66
        E 0 90 62 66
        E 120 80 32 00
        E 0 80 4a 00
        E 0 80 62 00
        E 120 90 4a 66
        E 0 90 62 66
        E 120 80 4a 00
        E 0 80 62 00
        E 120 90 19 67
        E 0 90 31 67
        E 0 90 49 67
        E 0 90 61 67
        E 120 80 19 00
        E 0 80 31 00
        E 0 80 49 00
        E 0 80 61 00
        E 360 90 19 67
        E 0 90 31 67
        E 0 90 49 67
        E 0 90 61 67
        E 120 80 19 00
        E 0 80 31 00
        E 0 80 49 00
        E 0 80 61 00
        E 360 90 19 67
        E 0 90 31 67
        E 0 90 49 67
        E 0 90 61 67
        E 120 80 19 00
        E 0 80 31 00
        E 0 80 49 00
        E 0 80 61 00
        E 360 90 19 67
        E 0 90 31 67
        E 0 90 49 67
        E 0 90 61 67
        E 120 80 19 00
        E 0 80 31 00
        E 0 80 49 00
        E 0 80 61 00
        E 360 90 19 67
        E 0 90 31 67
        E 0 90 49 67
        E 0 90 61 67
        E 120 80 19 00
        E 0 80 31 00
        E 0 80 49 00
        E 0 80 61 00
        E 360 90 19 67
        E 0 90 31 67
        E 0 90 49 67
        E 0 90 61 67
        E 120 80 19 00
        E 0 80 31 00
        E 0 80 49 00
        E 0 80 61 00
        E 360 90 19 67
        E 0 90 31 67
        E 0 90 49 67
        E 0 90 61 67
        E 120 80 19 00
        E 0 80 31 00
        E 0 80 49 00
        E 0 80 61 00
        E 120 90 31 67
        E 0 90 49 67
        E 0 90 61 67
        E 120 80 31 00
        E 0 80 49 00
        E 0 80 61 00
        E 360 90 4a 66
        E 0 90 62 66
        E 120 80 4a 00
        E 480 80 62 00
        E 120 90 1a 66
        E 0 90 32 66
        E 0 90 4a 66
        E 0 90 62 66
        E 120 80 1a 00
        E 0 80 32 00
        E 0 80 4a 00
        E 0 80 62 00
        E 360 90 1a 66
        E 0 90 32 66
        E 0 90 4a 66
        E 0 90 62 66
        E 120 80 1a 00
        E 0 80 32 00
        E 0 80 4a 00
        E 0 80 62 00
        E 120 90 32 66
        E 0 90 4a 66
        E 0 90 62 66
        E 120 80 32 00
        E 0 80 4a 00
        E 0 80 62 00
        E 120 90 1a 66
        E 0 90 32 66
        E 0 90 4a 66
        E 0 90 62 66
        E 120 80 1a 00
        E 0 80 32 00
        E 0 80 4a 00
        E 0 80 62 00
        E 120 90 32 66
        E 0 90 4a 66
        E 0 90 62 66
        E 120 80 32 00
        E 0 80 4a 00
        E 480 80 62 00
        E 120 90 1a 66
        E 0 90 32 66
        E 0 90 4a 66
        E 0 90 62 66
        E 120 80 1a 00
        E 0 80 32 00
        E 0 80 4a 00
        E 0 80 62 00
        E 120 90 32 66
        E 0 90 4a 66
        E 0 90 62 66
        E 120 80 32 00
        E 0 80 4a 00
        E 0 80 62 00
        E 360 90 32 66
        E 0 90 4a 66
        E 0 90 62 66
        E 120 80 32 00
        E 0 80 4a 00
        E 0 80 62 00
        E 120 90 32 66
        E 0 90 4a 66
        E 0 90 62 66
        E 120 80 32 00
        E 0 80 4a 00
        E 0 80 62 00
        E 120 90 4a 66
        E 0 90 62 66
        E 120 80 4a 00
        E 0 80 62 00
        <X 120 0
          /wFbZW5kX3BiIHNvbmdfdHJhaW5lcl9wYl81XQ==
        >
        E 0 90 19 67
        E 0 90 31 67
        E 0 90 49 67
        E 0 90 61 67
        E 120 80 19 00
        E 0 80 31 00
        E 0 80 49 00
        E 0 80 61 00
        E 360 90 19 67
        E 0 90 31 67
        E 0 90 49 67
        E 0 90 61 67
        E 120 80 19 00
        E 0 80 31 00
        E 0 80 49 00
        E 0 80 61 00
        E 360 90 19 67
        E 0 90 31 67
        E 0 90 49 67
        E 0 90 61 67
        E 120 80 19 00
        E 0 80 31 00
        E 0 80 49 00
        E 0 80 61 00
        E 360 90 19 67
        E 0 90 31 67
        E 0 90 49 67
        E 0 90 61 67
        E 120 80 19 00
        E 0 80 31 00
        E 0 80 49 00
        E 0 80 61 00
        E 360 90 19 67
        E 0 90 31 67
        E 0 90 49 67
        E 0 90 61 67
        E 120 80 19 00
        E 0 80 31 00
        E 0 80 49 00
        E 0 80 61 00
        E 360 90 19 67
        E 0 90 31 67
        E 0 90 49 67
        E 0 90 61 67
        E 120 80 19 00
        E 0 80 31 00
        E 0 80 49 00
        E 0 80 61 00
        E 360 90 19 67
        E 0 90 31 67
        E 0 90 49 67
        E 0 90 61 67
        E 120 80 19 00
        E 0 80 31 00
        E 0 80 49 00
        E 0 80 61 00
        E 120 90 31 67
        E 0 90 49 67
        E 0 90 61 67
        E 120 80 31 00
        E 0 80 49 00
        E 0 80 61 00
        E 360 90 4a 66
        E 0 90 62 66
        E 120 80 4a 00
        E 480 80 62 00
        E 120 90 1a 66
        E 0 90 32 66
        E 0 90 4a 66
        E 0 90 62 66
        E 120 80 1a 00
        E 0 80 32 00
        E 0 80 4a 00
        E 0 80 62 00
        E 360 90 1a 66
        E 0 90 32 66
        E 0 90 4a 66
        E 0 90 62 66
        E 120 80 1a 00
        E 0 80 32 00
        E 0 80 4a 00
        E 0 80 62 00
        E 120 90 32 66
        E 0 90 4a 66
        E 0 90 62 66
        E 120 80 32 00
        E 0 80 4a 00
        E 0 80 62 00
        E 120 90 1a 66
        E 0 90 32 66
        E 0 90 4a 66
        E 0 90 62 66
        E 120 80 1a 00
        E 0 80 32 00
        E 0 80 4a 00
        E 0 80 62 00
        E 120 90 32 66
        E 0 90 4a 66
        E 0 90 62 66
        E 120 80 32 00
        E 0 80 4a 00
        E 480 80 62 00
        E 120 90 1a 66
        E 0 90 32 66
        E 0 90 4a 66
        E 0 90 62 66
        E 120 80 1a 00
        E 0 80 32 00
        E 0 80 4a 00
        E 0 80 62 00
        E 120 90 32 66
        E 0 90 4a 66
        E 0 90 62 66
        E 120 80 32 00
        E 0 80 4a 00
        E 0 80 62 00
        E 360 90 32 66
        E 0 90 4a 66
        E 0 90 62 66
        E 120 80 32 00
        E 0 80 4a 00
        E 0 80 62 00
        E 120 90 32 66
        E 0 90 4a 66
        E 0 90 62 66
        E 120 80 32 00
        E 0 80 4a 00
        E 0 80 62 00
        E 120 90 4a 66
        E 0 90 62 66
        E 120 80 4a 00
        E 0 80 62 00
        E 120 90 19 67
        E 0 90 31 67
        E 0 90 49 67
        E 0 90 61 67
        E 120 80 19 00
        E 0 80 31 00
        E 0 80 49 00
        E 0 80 61 00
        E 360 90 19 67
        E 0 90 31 67
        E 0 90 49 67
        E 0 90 61 67
        E 120 80 19 00
        E 0 80 31 00
        E 0 80 49 00
        E 0 80 61 00
        E 360 90 19 67
        E 0 90 31 67
        E 0 90 49 67
        E 0 90 61 67
        E 120 80 19 00
        E 0 80 31 00
        E 0 80 49 00
        E 0 80 61 00
        E 360 90 19 67
        E 0 90 31 67
        E 0 90 49 67
        E 0 90 61 67
        E 120 80 19 00
        E 0 80 31 00
        E 0 80 49 00
        E 0 80 61 00
        E 360 90 19 67
        E 0 90 31 67
        E 0 90 49 67
        E 0 90 61 67
        E 120 80 19 00
        E 0 80 31 00
        E 0 80 49 00
        E 0 80 61 00
        E 360 90 19 67
        E 0 90 31 67
        E 0 90 49 67
        E 0 90 61 67
        E 120 80 19 00
        E 0 80 31 00
        E 0 80 49 00
        E 0 80 61 00
        E 360 90 19 67
        E 0 90 31 67
        E 0 90 49 67
        E 0 90 61 67
        E 120 80 19 00
        E 0 80 31 00
        E 0 80 49 00
        E 0 80 61 00
        E 120 90 31 67
        E 0 90 49 67
        E 0 90 61 67
        E 120 80 31 00
        E 0 80 49 00
        E 0 80 61 00
        E 360 90 4a 66
        E 0 90 62 66
        E 120 80 4a 00
        E 120 90 74 64
        E 360 80 62 00
        E 120 90 1a 66
        E 0 90 32 66
        E 0 90 4a 66
        E 0 90 62 66
        E 120 80 1a 00
        E 0 80 32 00
        E 0 80 4a 00
        E 0 80 62 00
        E 360 90 1a 66
        E 0 90 32 66
        E 0 90 4a 66
        E 0 90 62 66
        E 120 80 1a 00
        E 0 80 32 00
        E 0 80 4a 00
        E 0 80 62 00
        E 120 90 32 66
        E 0 90 4a 66
        E 0 90 62 66
        E 120 80 32 00
        E 0 80 4a 00
        E 0 80 62 00
        E 120 90 1a 66
        E 0 90 32 66
        E 0 90 4a 66
        E 0 90 62 66
        E 120 80 1a 00
        E 0 80 32 00
        E 0 80 4a 00
        E 0 80 62 00
        E 120 90 32 66
        E 0 90 4a 66
        E 0 90 62 66
        E 120 80 32 00
        E 0 80 4a 00
        E 480 80 62 00
        E 120 90 1a 66
        E 0 90 32 66
        E 0 90 4a 66
        E 0 90 62 66
        E 120 80 1a 00
        E 0 80 32 00
        E 0 80 4a 00
        E 0 80 62 00
        E 120 90 32 66
        E 0 90 4a 66
        E 0 90 62 66
        E 120 80 32 00
        E 0 80 4a 00
        E 0 80 62 00
        E 360 90 32 66
        E 0 90 4a 66
        E 0 90 62 66
        E 120 80 32 00
        E 0 80 4a 00
        E 0 80 62 00
        E 120 90 32 66
        E 0 90 4a 66
        E 0 90 62 66
        E 120 80 32 00
        E 0 80 4a 00
        E 0 80 62 00
        E 120 90 4a 66
        E 0 90 62 66
        E 120 80 4a 00
        E 0 80 62 00
        E 120 90 19 67
        E 0 90 31 67
        E 0 90 49 67
        E 0 90 61 67
        E 120 80 74 00
        E 0 80 19 00
        E 0 80 31 00
        E 0 80 49 00
        E 0 80 61 00
        E 360 90 19 67
        E 0 90 31 67
        E 0 90 49 67
        E 0 90 61 67
        E 120 80 19 00
        E 0 80 31 00
        E 0 80 49 00
        E 0 80 61 00
        E 360 90 19 67
        E 0 90 31 67
        E 0 90 49 67
        E 0 90 61 67
        E 120 80 19 00
        E 0 80 31 00
        E 0 80 49 00
        E 0 80 61 00
        E 360 90 19 67
        E 0 90 31 67
        E 0 90 49 67
        E 0 90 61 67
        E 120 80 19 00
        E 0 80 31 00
        E 0 80 49 00
        E 0 80 61 00
        E 360 90 19 67
        E 0 90 31 67
        E 0 90 49 67
        E 0 90 61 67
        E 120 80 19 00
        E 0 80 31 00
        E 0 80 49 00
        E 0 80 61 00
        E 360 90 19 67
        E 0 90 31 67
        E 0 90 49 67
        E 0 90 61 67
        E 120 80 19 00
        E 0 80 31 00
        E 0 80 49 00
        E 0 80 61 00
        E 360 90 19 67
        E 0 90 31 67
        E 0 90 49 67
        E 0 90 61 67
        E 120 80 19 00
        E 0 80 31 00
        E 0 80 49 00
        E 0 80 61 00
        E 120 90 31 67
        E 0 90 49 67
        E 0 90 61 67
        E 120 80 31 00
        E 0 80 49 00
        E 0 80 61 00
        E 360 90 32 66
        E 0 90 4a 66
        E 0 90 62 66
        E 120 80 32 00
        E 0 80 4a 00
        E 480 80 62 00
        E 120 90 1a 66
        E 0 90 32 66
        E 0 90 4a 66
        E 0 90 62 66
        E 120 80 1a 00
        E 0 80 32 00
        E 0 80 4a 00
        E 0 80 62 00
        E 360 90 1a 66
        E 0 90 32 66
        E 0 90 4a 66
        E 0 90 62 66
        E 120 80 1a 00
        E 0 80 32 00
        E 0 80 4a 00
        E 0 80 62 00
        E 120 90 32 66
        E 0 90 4a 66
        E 0 90 62 66
        E 120 80 32 00
        E 0 80 4a 00
        E 0 80 62 00
        E 120 90 1a 66
        E 0 90 32 66
        E 0 90 4a 66
        E 0 90 62 66
        E 120 80 1a 00
        E 0 80 32 00
        E 0 80 4a 00
        E 0 80 62 00
        E 120 90 32 66
        E 0 90 4a 66
        E 0 90 62 66
        E 120 80 32 00
        E 0 80 4a 00
        E 480 80 62 00
        E 120 90 1a 66
        E 0 90 32 66
        E 0 90 4a 66
        E 0 90 62 66
        E 120 80 1a 00
        E 0 80 32 00
        E 0 80 4a 00
        E 0 80 62 00
        E 120 90 32 66
        E 0 90 4a 66
        E 0 90 62 66
        E 120 80 32 00
        E 0 80 4a 00
        E 0 80 62 00
        E 360 90 32 66
        E 0 90 4a 66
        E 0 90 62 66
        E 120 80 32 00
        E 0 80 4a 00
        E 0 80 62 00
        E 120 90 32 66
        E 0 90 4a 66
        E 0 90 62 66
        E 120 80 32 00
        E 0 80 4a 00
        E 0 80 62 00
        E 120 90 4a 66
        E 0 90 62 66
        E 120 80 4a 00
        E 0 80 62 00
        E 120 90 32 67
        E 0 90 4a 67
        E 0 90 62 67
        E 120 80 32 00
        E 0 80 4a 00
        E 0 80 62 00
        E 360 90 32 67
        E 0 90 4a 67
        E 0 90 62 67
        E 120 80 32 00
        E 0 80 4a 00
        E 0 80 62 00
        E 360 90 32 67
        E 0 90 4a 67
        E 0 90 62 67
        E 120 80 32 00
        E 0 80 4a 00
        E 0 80 62 00
        E 360 90 32 67
        E 0 90 4a 67
        E 0 90 62 67
        E 120 80 32 00
        E 0 80 4a 00
        E 0 80 62 00
        E 360 90 32 67
        E 0 90 4a 67
        E 0 90 62 67
        E 120 80 32 00
        E 0 80 4a 00
        E 0 80 62 00
        E 360 90 32 67
        E 0 90 4a 67
        E 0 90 62 67
        E 120 80 32 00
        E 0 80 4a 00
        E 0 80 62 00
        E 360 90 32 67
        E 0 90 4a 67
        E 0 90 62 67
        E 120 80 32 00
        E 0 80 4a 00
        E 0 80 62 00
        E 120 90 32 67
        E 0 90 4a 67
        E 0 90 62 67
        E 120 80 32 00
        E 0 80 4a 00
        E 0 80 62 00
        E 360 90 4b 64
        E 0 90 63 64
        E 120 80 4b 00
        E 480 80 63 00
        E 120 90 4b 64
        E 0 90 63 64
        E 120 80 4b 00
        E 0 80 63 00
        E 360 90 4b 64
        E 0 90 63 64
        E 120 80 4b 00
        E 0 80 63 00
        E 120 90 4b 64
        E 0 90 63 64
        E 120 80 4b 00
        E 0 80 63 00
        E 120 90 4b 64
        E 0 90 63 64
        E 120 80 4b 00
        E 0 80 63 00
        E 120 90 4b 64
        E 0 90 63 64
        E 120 80 4b 00
        E 480 80 63 00
        E 120 90 4b 64
        E 0 90 63 64
        E 120 80 4b 00
        E 0 80 63 00
        E 120 90 49 64
        E 0 90 61 64
        E 120 80 49 00
        E 0 80 61 00
        E 360 90 31 64
        E 0 90 49 64
        E 0 90 61 64
        E 120 80 31 00
        E 0 80 49 00
        E 0 80 61 00
        E 120 90 31 64
        E 0 90 49 64
        E 0 90 61 64
        E 120 80 31 00
        E 0 80 49 00
        E 0 80 61 00
        E 120 90 49 64
        E 0 90 61 64
        E 120 80 49 00
        E 0 80 61 00
        E 120 90 19 67
        E 0 90 31 67
        E 0 90 49 67
        E 0 90 61 67
        E 120 80 19 00
        E 0 80 31 00
        E 0 80 49 00
        E 0 80 61 00
        E 360 90 19 67
        E 0 90 31 67
        E 0 90 49 67
        E 0 90 61 67
        E 120 80 19 00
        E 0 80 31 00
        E 0 80 49 00
        E 0 80 61 00
        E 360 90 19 67
        E 0 90 31 67
        E 0 90 49 67
        E 0 90 61 67
        E 120 80 19 00
        E 0 80 31 00
        E 0 80 49 00
        E 0 80 61 00
        E 360 90 19 67
        E 0 90 31 67
        E 0 90 49 67
        E 0 90 61 67
        E 120 80 19 00
        E 0 80 31 00
        E 0 80 49 00
        E 0 80 61 00
        E 360 90 19 67
        E 0 90 31 67
        E 0 90 49 67
        E 0 90 61 67
        E 120 80 19 00
        E 0 80 31 00
        E 0 80 49 00
        E 0 80 61 00
        E 360 90 19 67
        E 0 90 31 67
        E 0 90 49 67
        E 0 90 61 67
        E 120 80 19 00
        E 0 80 31 00
        E 0 80 49 00
        E 0 80 61 00
        E 360 90 19 67
        E 0 90 31 67
        E 0 90 49 67
        E 0 90 61 67
        E 120 80 19 00
        E 0 80 31 00
        E 0 80 49 00
        E 0 80 61 00
        E 120 90 31 67
        E 0 90 49 67
        E 0 90 61 67
        E 120 80 31 00
        E 0 80 49 00
        E 0 80 61 00
        E 360 90 32 66
        E 0 90 4a 66
        E 0 90 62 66
        E 120 80 32 00
        E 0 80 4a 00
        E 480 80 62 00
        E 120 90 1a 66
        E 0 90 32 66
        E 0 90 4a 66
        E 0 90 62 66
        E 120 80 1a 00
        E 0 80 32 00
        E 0 80 4a 00
        E 0 80 62 00
        E 360 90 1a 66
        E 0 90 32 66
        E 0 90 4a 66
        E 0 90 62 66
        E 120 80 1a 00
        E 0 80 32 00
        E 0 80 4a 00
        E 0 80 62 00
        E 120 90 32 66
        E 0 90 4a 66
        E 0 90 62 66
        E 120 80 32 00
        E 0 80 4a 00
        E 0 80 62 00
        E 120 90 1a 66
        E 0 90 32 66
        E 0 90 4a 66
        E 0 90 62 66
        E 120 80 1a 00
        E 0 80 32 00
        E 0 80 4a 00
        E 0 80 62 00
        E 120 90 32 66
        E 0 90 4a 66
        E 0 90 62 66
        E 120 80 32 00
        E 0 80 4a 00
        E 480 80 62 00
        E 120 90 1a 66
        E 0 90 32 66
        E 0 90 4a 66
        E 0 90 62 66
        E 120 80 1a 00
        E 0 80 32 00
        E 0 80 4a 00
        E 0 80 62 00
        E 120 90 32 66
        E 0 90 4a 66
        E 0 90 62 66
        E 120 80 32 00
        E 0 80 4a 00
        E 0 80 62 00
        E 360 90 32 66
        E 0 90 4a 66
        E 0 90 62 66
        E 120 80 32 00
        E 0 80 4a 00
        E 0 80 62 00
        E 120 90 32 66
        E 0 90 4a 66
        E 0 90 62 66
        E 120 80 32 00
        E 0 80 4a 00
        E 0 80 62 00
        E 120 90 4a 66
        E 0 90 62 66
        E 120 80 4a 00
        E 0 80 62 00
        E 120 90 32 67
        E 0 90 4a 67
        E 0 90 62 67
        E 120 80 32 00
        E 0 80 4a 00
        E 0 80 62 00
        E 360 90 32 67
        E 0 90 4a 67
        E 0 90 62 67
        E 120 80 32 00
        E 0 80 4a 00
        E 0 80 62 00
        E 360 90 32 67
        E 0 90 4a 67
        E 0 90 62 67
        E 120 80 32 00
        E 0 80 4a 00
        E 0 80 62 00
        E 360 90 32 67
        E 0 90 4a 67
        E 0 90 62 67
        E 120 80 32 00
        E 0 80 4a 00
        E 0 80 62 00
        E 360 90 32 67
        E 0 90 4a 67
        E 0 90 62 67
        E 120 80 32 00
        E 0 80 4a 00
        E 0 80 62 00
        E 360 90 32 67
        E 0 90 4a 67
        E 0 90 62 67
        E 120 80 32 00
        E 0 80 4a 00
        E 0 80 62 00
        E 360 90 32 67
        E 0 90 4a 67
        E 0 90 62 67
        E 120 80 32 00
        E 0 80 4a 00
        E 0 80 62 00
        E 120 90 32 67
        E 0 90 4a 67
        E 0 90 62 67
        E 120 80 32 00
        E 0 80 4a 00
        E 0 80 62 00
        E 360 90 4b 64
        E 0 90 63 64
        E 120 80 4b 00
        E 480 80 63 00
        E 120 90 4b 64
        E 0 90 63 64
        E 120 80 4b 00
        E 0 80 63 00
        E 360 90 4b 64
        E 0 90 63 64
        E 120 80 4b 00
        E 0 80 63 00
        E 120 90 4b 64
        E 0 90 63 64
        E 120 80 4b 00
        E 0 80 63 00
        E 120 90 4b 64
        E 0 90 63 64
        E 120 80 4b 00
        E 0 80 63 00
        E 120 90 4b 64
        E 0 90 63 64
        E 120 80 4b 00
        E 480 80 63 00
        E 120 90 4b 64
        E 0 90 63 64
        E 120 80 4b 00
        E 0 80 63 00
        E 120 90 49 64
        E 0 90 61 64
        E 120 80 49 00
        E 0 80 61 00
        E 360 90 31 64
        E 0 90 49 64
        E 0 90 61 64
        E 120 80 31 00
        E 0 80 49 00
        E 0 80 61 00
        E 120 90 31 64
        E 0 90 49 64
        E 0 90 61 64
        E 120 80 31 00
        E 0 80 49 00
        E 0 80 61 00
        E 120 90 49 64
        E 0 90 61 64
        E 120 80 49 00
        E 0 80 61 00
        E 120 90 49 67
        E 0 90 61 67
        E 0 90 6c 65
        E 120 80 6c 00
        E 3480 80 49 00
        E 120 80 61 00
        E 120 90 31 64
        E 0 90 49 64
        E 0 90 61 64
        E 3480 80 31 00
        E 120 80 49 00
        E 120 80 61 00
        E 120 90 18 65
        E 0 90 30 65
        E 0 90 48 65
        E 0 90 60 65
        E 3360 80 18 00
        E 120 80 30 00
        E 120 80 48 00
        E 120 80 60 00
        E 120 90 18 67
        E 0 90 30 67
        E 0 90 48 67
        E 0 90 60 67
        E 3360 80 18 00
        E 120 80 30 00
        E 120 80 48 00
        E 120 80 60 00
        E 120 90 19 67
        E 0 90 31 67
        E 0 90 49 67
        E 0 90 61 67
        E 0 90 74 64
        E 3360 80 19 00
        E 120 80 31 00
        E 120 80 49 00
        E 120 80 61 00
        E 120 90 19 64
        E 0 90 31 64
        E 0 90 49 64
        E 0 90 61 64
        E 3360 80 19 00
        E 120 80 31 00
        E 120 80 49 00
        E 120 80 61 00
        E 120 80 74 00
        E 0 90 18 65
        E 0 90 30 65
        E 0 90 48 65
        E 0 90 60 65
        E 3360 80 18 00
        E 120 80 30 00
        E 120 80 48 00
        E 120 80 60 00
        E 120 90 18 67
        E 0 90 30 67
        E 0 90 48 67
        E 0 90 60 67
        E 3360 80 18 00
        E 120 80 30 00
        E 120 80 48 00
        E 120 80 60 00
        E 120 90 19 67
        E 0 90 31 67
        E 0 90 49 67
        E 0 90 61 67
        E 0 90 6c 66
        E 120 80 19 00
        E 0 80 31 00
        E 0 80 49 00
        E 0 80 61 00
        E 0 80 6c 00
        E 360 90 19 67
        E 0 90 31 67
        E 0 90 49 67
        E 0 90 61 67
        E 120 80 19 00
        E 0 80 31 00
        E 0 80 49 00
        E 0 80 61 00
        E 360 90 19 67
        E 0 90 31 67
        E 0 90 49 67
        E 0 90 61 67
        E 120 80 19 00
        E 0 80 31 00
        E 0 80 49 00
        E 0 80 61 00
        E 360 90 19 67
        E 0 90 31 67
        E 0 90 49 67
        E 0 90 61 67
        E 120 80 19 00
        E 0 80 31 00
        E 0 80 49 00
        E 0 80 61 00
        E 360 90 19 67
        E 0 90 31 67
        E 0 90 49 67
        E 0 90 61 67
        E 120 80 19 00
        E 0 80 31 00
        E 0 80 49 00
        E 0 80 61 00
        E 360 90 19 67
        E 0 90 31 67
        E 0 90 49 67
        E 0 90 61 67
        E 120 80 19 00
        E 0 80 31 00
        E 0 80 49 00
        E 0 80 61 00
        E 360 90 19 67
        E 0 90 31 67
        E 0 90 49 67
        E 0 90 61 67
        E 120 80 19 00
        E 0 80 31 00
        E 0 80 49 00
        E 0 80 61 00
        E 120 90 31 67
        E 0 90 49 67
        E 0 90 61 67
        E 120 80 31 00
        E 0 80 49 00
        E 0 80 61 00
        E 360 90 32 66
        E 0 90 4a 66
        E 0 90 62 66
        E 120 80 32 00
        E 0 80 4a 00
        E 480 80 62 00
        E 120 90 1a 66
        E 0 90 32 66
        E 0 90 4a 66
        E 0 90 62 66
        E 120 80 1a 00
        E 0 80 32 00
        E 0 80 4a 00
        E 0 80 62 00
        E 360 90 1a 66
        E 0 90 32 66
        E 0 90 4a 66
        E 0 90 62 66
        E 120 80 1a 00
        E 0 80 32 00
        E 0 80 4a 00
        E 0 80 62 00
        E 120 90 32 66
        E 0 90 4a 66
        E 0 90 62 66
        E 120 80 32 00
        E 0 80 4a 00
        E 0 80 62 00
        E 120 90 1a 66
        E 0 90 32 66
        E 0 90 4a 66
        E 0 90 62 66
        E 120 80 1a 00
        E 0 80 32 00
        E 0 80 4a 00
        E 0 80 62 00
        E 120 90 32 66
        E 0 90 4a 66
        E 0 90 62 66
        E 120 80 32 00
        E 0 80 4a 00
        E 480 80 62 00
        E 120 90 1a 66
        E 0 90 32 66
        E 0 90 4a 66
        E 0 90 62 66
        E 120 80 1a 00
        E 0 80 32 00
        E 0 80 4a 00
        E 0 80 62 00
        E 120 90 32 66
        E 0 90 4a 66
        E 0 90 62 66
        E 120 80 32 00
        E 0 80 4a 00
        E 0 80 62 00
        E 360 90 32 66
        E 0 90 4a 66
        E 0 90 62 66
        E 120 80 32 00
        E 0 80 4a 00
        E 0 80 62 00
        E 120 90 32 66
        E 0 90 4a 66
        E 0 90 62 66
        E 120 80 32 00
        E 0 80 4a 00
        E 0 80 62 00
        E 120 90 4a 66
        E 0 90 62 66
        E 120 80 4a 00
        E 0 80 62 00
        E 120 90 32 67
        E 0 90 4a 67
        E 0 90 62 67
        E 120 80 32 00
        E 0 80 4a 00
        E 0 80 62 00
        E 360 90 32 67
        E 0 90 4a 67
        E 0 90 62 67
        E 120 80 32 00
        E 0 80 4a 00
        E 0 80 62 00
        E 360 90 32 67
        E 0 90 4a 67
        E 0 90 62 67
        E 120 80 32 00
        E 0 80 4a 00
        E 0 80 62 00
        E 360 90 32 67
        E 0 90 4a 67
        E 0 90 62 67
        E 120 80 32 00
        E 0 80 4a 00
        E 0 80 62 00
        E 360 90 32 67
        E 0 90 4a 67
        E 0 90 62 67
        E 120 80 32 00
        E 0 80 4a 00
        E 0 80 62 00
        E 360 90 32 67
        E 0 90 4a 67
        E 0 90 62 67
        E 120 80 32 00
        E 0 80 4a 00
        E 0 80 62 00
        E 360 90 32 67
        E 0 90 4a 67
        E 0 90 62 67
        E 120 80 32 00
        E 0 80 4a 00
        E 0 80 62 00
        E 120 90 32 67
        E 0 90 4a 67
        E 0 90 62 67
        E 120 80 32 00
        E 0 80 4a 00
        E 0 80 62 00
        E 360 90 4b 64
        E 0 90 63 64
        E 120 80 4b 00
        E 480 80 63 00
        E 120 90 4b 64
        E 0 90 63 64
        E 120 80 4b 00
        E 0 80 63 00
        E 360 90 4b 64
        E 0 90 63 64
        E 120 80 4b 00
        E 0 80 63 00
        E 120 90 4b 64
        E 0 90 63 64
        E 120 80 4b 00
        E 0 80 63 00
        E 120 90 4b 64
        E 0 90 63 64
        E 120 80 4b 00
        E 0 80 63 00
        E 120 90 4b 64
        E 0 90 63 64
        E 120 80 4b 00
        E 480 80 63 00
        E 120 90 4b 64
        E 0 90 63 64
        E 120 80 4b 00
        E 0 80 63 00
        E 120 90 49 64
        E 0 90 61 64
        E 120 80 49 00
        E 0 80 61 00
        E 360 90 31 64
        E 0 90 49 64
        E 0 90 61 64
        E 120 80 31 00
        E 0 80 49 00
        E 0 80 61 00
        E 120 90 31 64
        E 0 90 49 64
        E 0 90 61 64
        E 120 80 31 00
        E 0 80 49 00
        E 0 80 61 00
        E 120 90 49 64
        E 0 90 61 64
        E 120 80 49 00
        E 0 80 61 00
        E 120 90 19 67
        E 0 90 31 67
        E 0 90 49 67
        E 0 90 61 67
        E 0 90 74 64
        E 120 80 19 00
        E 0 80 31 00
        E 0 80 49 00
        E 0 80 61 00
        E 360 90 19 67
        E 0 90 31 67
        E 0 90 49 67
        E 0 90 61 67
        E 120 80 19 00
        E 0 80 31 00
        E 0 80 49 00
        E 0 80 61 00
        E 360 90 19 67
        E 0 90 31 67
        E 0 90 49 67
        E 0 90 61 67
        E 120 80 19 00
        E 0 80 31 00
        E 0 80 49 00
        E 0 80 61 00
        E 360 90 19 67
        E 0 90 31 67
        E 0 90 49 67
        E 0 90 61 67
        E 120 80 19 00
        E 0 80 31 00
        E 0 80 49 00
        E 0 80 61 00
        E 360 90 19 67
        E 0 90 31 67
        E 0 90 49 67
        E 0 90 61 67
        E 120 80 19 00
        E 0 80 31 00
        E 0 80 49 00
        E 0 80 61 00
        E 360 90 19 67
        E 0 90 31 67
        E 0 90 49 67
        E 0 90 61 67
        E 120 80 19 00
        E 0 80 31 00
        E 0 80 49 00
        E 0 80 61 00
        E 360 90 19 67
        E 0 90 31 67
        E 0 90 49 67
        E 0 90 61 67
        E 120 80 19 00
        E 0 80 31 00
        E 0 80 49 00
        E 0 80 61 00
        E 120 90 31 67
        E 0 90 49 67
        E 0 90 61 67
        E 120 80 31 00
        E 0 80 49 00
        E 0 80 61 00
        E 360 90 32 66
        E 0 90 4a 66
        E 0 90 62 66
        E 120 80 32 00
        E 0 80 4a 00
        E 120 80 74 00
        E 360 80 62 00
        E 120 90 1a 66
        E 0 90 32 66
        E 0 90 4a 66
        E 0 90 62 66
        E 120 80 1a 00
        E 0 80 32 00
        E 0 80 4a 00
        E 0 80 62 00
        E 360 90 1a 66
        E 0 90 32 66
        E 0 90 4a 66
        E 0 90 62 66
        E 120 80 1a 00
        E 0 80 32 00
        E 0 80 4a 00
        E 0 80 62 00
        E 120 90 32 66
        E 0 90 4a 66
        E 0 90 62 66
        E 120 80 32 00
        E 0 80 4a 00
        E 0 80 62 00
        E 120 90 1a 66
        E 0 90 32 66
        E 0 90 4a 66
        E 0 90 62 66
        E 120 80 1a 00
        E 0 80 32 00
        E 0 80 4a 00
        E 0 80 62 00
        E 120 90 32 66
        E 0 90 4a 66
        E 0 90 62 66
        E 120 80 32 00
        E 0 80 4a 00
        E 480 80 62 00
        E 120 90 1a 66
        E 0 90 32 66
        E 0 90 4a 66
        E 0 90 62 66
        E 120 80 1a 00
        E 0 80 32 00
        E 0 80 4a 00
        E 0 80 62 00
        E 120 90 32 66
        E 0 90 4a 66
        E 0 90 62 66
        E 120 80 32 00
        E 0 80 4a 00
        E 0 80 62 00
        E 360 90 32 66
        E 0 90 4a 66
        E 0 90 62 66
        E 120 80 32 00
        E 0 80 4a 00
        E 0 80 62 00
        E 120 90 32 66
        E 0 90 4a 66
        E 0 90 62 66
        E 120 80 32 00
        E 0 80 4a 00
        E 0 80 62 00
        E 120 90 4a 66
        E 0 90 62 66
        E 120 80 4a 00
        E 0 80 62 00
        E 120 90 32 67
        E 0 90 4a 67
        E 0 90 62 67
        E 120 80 32 00
        E 0 80 4a 00
        E 0 80 62 00
        E 360 90 32 67
        E 0 90 4a 67
        E 0 90 62 67
        E 120 80 32 00
        E 0 80 4a 00
        E 0 80 62 00
        E 360 90 32 67
        E 0 90 4a 67
        E 0 90 62 67
        E 120 80 32 00
        E 0 80 4a 00
        E 0 80 62 00
        E 360 90 32 67
        E 0 90 4a 67
        E 0 90 62 67
        E 120 80 32 00
        E 0 80 4a 00
        E 0 80 62 00
        E 360 90 32 67
        E 0 90 4a 67
        E 0 90 62 67
        E 120 80 32 00
        E 0 80 4a 00
        E 0 80 62 00
        E 360 90 32 67
        E 0 90 4a 67
        E 0 90 62 67
        E 120 80 32 00
        E 0 80 4a 00
        E 0 80 62 00
        E 360 90 32 67
        E 0 90 4a 67
        E 0 90 62 67
        E 120 80 32 00
        E 0 80 4a 00
        E 0 80 62 00
        E 120 90 32 67
        E 0 90 4a 67
        E 0 90 62 67
        E 120 80 32 00
        E 0 80 4a 00
        E 0 80 62 00
        E 360 90 4b 64
        E 0 90 63 64
        E 120 80 4b 00
        E 480 80 63 00
        E 120 90 4b 64
        E 0 90 63 64
        E 120 80 4b 00
        E 0 80 63 00
        E 360 90 4b 64
        E 0 90 63 64
        E 120 80 4b 00
        E 0 80 63 00
        E 120 90 4b 64
        E 0 90 63 64
        E 120 80 4b 00
        E 0 80 63 00
        E 120 90 4b 64
        E 0 90 63 64
        E 120 80 4b 00
        E 0 80 63 00
        E 120 90 4b 64
        E 0 90 63 64
        E 1920 80 4b 00
        E 120 80 63 00
        E 120 90 19 67
        E 0 90 31 67
        E 0 90 49 67
        E 0 90 61 67
        E 0 90 6c 65
        E 120 80 19 00
        E 0 80 31 00
        E 0 80 49 00
        E 0 80 61 00
        E 0 80 6c 00
        E 360 90 19 67
        E 0 90 31 67
        E 0 90 49 67
        E 0 90 61 67
        E 120 80 19 00
        E 0 80 31 00
        E 0 80 49 00
        E 0 80 61 00
        E 360 90 19 67
        E 0 90 31 67
        E 0 90 49 67
        E 0 90 61 67
        E 120 80 19 00
        E 0 80 31 00
        E 0 80 49 00
        E 0 80 61 00
        E 360 90 19 67
        E 0 90 31 67
        E 0 90 49 67
        E 0 90 61 67
        E 120 80 19 00
        E 0 80 31 00
        E 0 80 49 00
        E 0 80 61 00
        E 360 90 19 67
        E 0 90 31 67
        E 0 90 49 67
        E 0 90 61 67
        E 120 80 19 00
        E 0 80 31 00
        E 0 80 49 00
        E 0 80 61 00
        E 360 90 31 67
        E 0 90 49 67
        E 0 90 61 67
        E 120 80 31 00
        E 0 80 49 00
        E 0 80 61 00
        E 360 90 18 68
        E 0 90 30 68
        E 0 90 48 68
        E 0 90 60 68
        E 120 80 18 00
        E 0 80 30 00
        E 0 80 48 00
        E 0 80 60 00
        E 120 90 49 65
        E 0 90 61 65
        E 120 80 49 00
        E 0 80 61 00
        E 120 90 31 67
        E 0 90 49 67
        E 0 90 61 67
        E 120 80 31 00
        E 0 80 49 00
        E 0 80 61 00
        E 120 90 4a 66
        E 0 90 62 66
        E 120 80 4a 00
        E 480 80 62 00
        E 120 90 32 66
        E 0 90 4a 66
        E 0 90 62 66
        E 120 80 32 00
        E 0 80 4a 00
        E 0 80 62 00
        E 360 90 32 66
        E 0 90 4a 66
        E 0 90 62 66
        E 120 80 32 00
        E 0 80 4a 00
        E 0 80 62 00
        E 120 90 32 66
        E 0 90 4a 66
        E 0 90 62 66
        E 120 80 32 00
        E 0 80 4a 00
        E 0 80 62 00
        E 120 90 32 66
        E 0 90 4a 66
        E 0 90 62 66
        E 120 80 32 00
        E 0 80 4a 00
        E 0 80 62 00
        E 120 90 4a 64
        E 0 90 62 64
        E 120 80 4a 00
        E 480 80 62 00
        E 120 90 1a 64
        E 0 90 32 64
        E 0 90 4a 64
        E 0 90 62 64
        E 120 80 1a 00
        E 0 80 32 00
        E 0 80 4a 00
        E 0 80 62 00
        E 120 90 4a 66
        E 0 90 62 66
        E 120 80 4a 00
        E 0 80 62 00
        E 360 90 4a 66
        E 0 90 62 66
        E 120 80 4a 00
        E 0 80 62 00
        E 120 90 1a 64
        E 0 90 32 64
        E 0 90 4a 64
        E 0 90 62 64
        E 120 80 1a 00
        E 0 80 32 00
        E 0 80 4a 00
        E 0 80 62 00
        E 120 90 49 65
        E 0 90 61 65
        E 120 80 49 00
        E 0 80 61 00
        E 120 90 19 67
        E 0 90 31 67
        E 0 90 49 67
        E 0 90 61 67
        E 120 80 19 00
        E 0 80 31 00
        E 0 80 49 00
        E 0 80 61 00
        E 360 90 19 67
        E 0 90 31 67
        E 0 90 49 67
        E 0 90 61 67
        E 120 80 19 00
        E 0 80 31 00
        E 0 80 49 00
        E 0 80 61 00
        E 360 90 19 67
        E 0 90 31 67
        E 0 90 49 67
        E 0 90 61 67
        E 120 80 19 00
        E 0 80 31 00
        E 0 80 49 00
        E 0 80 61 00
        E 360 90 19 67
        E 0 90 31 67
        E 0 90 49 67
        E 0 90 61 67
        E 120 80 19 00
        E 0 80 31 00
        E 0 80 49 00
        E 0 80 61 00
        E 360 90 19 67
        E 0 90 31 67
        E 0 90 49 67
        E 0 90 61 67
        E 120 80 19 00
        E 0 80 31 00
        E 0 80 49 00
        E 0 80 61 00
        E 360 90 31 67
        E 0 90 49 67
        E 0 90 61 67
        E 120 80 31 00
        E 0 80 49 00
        E 0 80 61 00
        E 360 90 18 68
        E 0 90 30 68
        E 0 90 48 68
        E 0 90 60 68
        E 120 80 18 00
        E 0 80 30 00
        E 0 80 48 00
        E 0 80 60 00
        E 120 90 49 65
        E 0 90 61 65
        E 120 80 49 00
        E 0 80 61 00
        E 120 90 31 67
        E 0 90 49 67
        E 0 90 61 67
        E 120 80 31 00
        E 0 80 49 00
        E 0 80 61 00
        E 120 90 4a 66
        E 0 90 62 66
        E 120 80 4a 00
        E 480 80 62 00
        E 120 90 32 66
        E 0 90 4a 66
        E 0 90 62 66
        E 120 80 32 00
        E 0 80 4a 00
        E 0 80 62 00
        E 360 90 32 66
        E 0 90 4a 66
        E 0 90 62 66
        E 120 80 32 00
        E 0 80 4a 00
        E 0 80 62 00
        E 120 90 32 66
        E 0 90 4a 66
        E 0 90 62 66
        E 120 80 32 00
        E 0 80 4a 00
        E 0 80 62 00
        E 120 90 32 66
        E 0 90 4a 66
        E 0 90 62 66
        E 120 80 32 00
        E 0 80 4a 00
        E 0 80 62 00
        E 120 90 4b 64
        E 0 90 63 64
        E 120 80 4b 00
        E 480 80 63 00
        E 120 90 4b 64
        E 0 90 63 64
        E 120 80 4b 00
        E 0 80 63 00
        E 120 90 49 65
        E 0 90 61 65
        E 120 80 49 00
        E 0 80 61 00
        E 360 90 31 65
        E 0 90 49 65
        E 0 90 61 65
        E 120 80 31 00
        E 0 80 49 00
        E 0 80 61 00
        E 120 90 31 65
        E 0 90 49 65
        E 0 90 61 65
        E 120 80 31 00
        E 0 80 49 00
        E 0 80 61 00
        E 120 90 49 65
        E 0 90 61 65
        E 120 80 49 00
        E 0 80 61 00
        E 120 90 19 67
        E 0 90 31 67
        E 0 90 49 67
        E 0 90 61 67
        E 120 80 19 00
        E 0 80 31 00
        E 0 80 49 00
        E 0 80 61 00
        E 360 90 19 67
        E 0 90 31 67
        E 0 90 49 67
        E 0 90 61 67
        E 120 80 19 00
        E 0 80 31 00
        E 0 80 49 00
        E 0 80 61 00
        E 360 90 19 67
        E 0 90 31 67
        E 0 90 49 67
        E 0 90 61 67
        E 120 80 19 00
        E 0 80 31 00
        E 0 80 49 00
        E 0 80 61 00
        E 360 90 19 67
        E 0 90 31 67
        E 0 90 49 67
        E 0 90 61 67
        E 120 80 19 00
        E 0 80 31 00
        E 0 80 49 00
        E 0 80 61 00
        E 360 90 19 67
        E 0 90 31 67
        E 0 90 49 67
        E 0 90 61 67
        E 120 80 19 00
        E 0 80 31 00
        E 0 80 49 00
        E 0 80 61 00
        E 360 90 31 67
        E 0 90 49 67
        E 0 90 61 67
        E 120 80 31 00
        E 0 80 49 00
        E 0 80 61 00
        E 360 90 18 68
        E 0 90 30 68
        E 0 90 48 68
        E 0 90 60 68
        E 120 80 18 00
        E 0 80 30 00
        E 0 80 48 00
        E 0 80 60 00
        E 120 90 49 65
        E 0 90 61 65
        E 120 80 49 00
        E 0 80 61 00
        E 120 90 31 67
        E 0 90 49 67
        E 0 90 61 67
        E 120 80 31 00
        E 0 80 49 00
        E 0 80 61 00
        E 120 90 4a 66
        E 0 90 62 66
        E 120 80 4a 00
        E 480 80 62 00
        E 120 90 32 66
        E 0 90 4a 66
        E 0 90 62 66
        E 120 80 32 00
        E 0 80 4a 00
        E 0 80 62 00
        E 360 90 32 66
        E 0 90 4a 66
        E 0 90 62 66
        E 120 80 32 00
        E 0 80 4a 00
        E 0 80 62 00
        E 120 90 32 66
        E 0 90 4a 66
        E 0 90 62 66
        E 120 80 32 00
        E 0 80 4a 00
        E 0 80 62 00
        E 120 90 32 66
        E 0 90 4a 66
        E 0 90 62 66
        E 120 80 32 00
        E 0 80 4a 00
        E 0 80 62 00
        E 120 90 4a 64
        E 0 90 62 64
        E 120 80 4a 00
        E 480 80 62 00
        E 120 90 1a 64
        E 0 90 32 64
        E 0 90 4a 64
        E 0 90 62 64
        E 120 80 1a 00
        E 0 80 32 00
        E 0 80 4a 00
        E 0 80 62 00
        E 120 90 4a 66
        E 0 90 62 66
        E 120 80 4a 00
        E 0 80 62 00
        E 360 90 4a 66
        E 0 90 62 66
        E 120 80 4a 00
        E 0 80 62 00
        E 120 90 1a 64
        E 0 90 32 64
        E 0 90 4a 64
        E 0 90 62 64
        E 120 80 1a 00
        E 0 80 32 00
        E 0 80 4a 00
        E 0 80 62 00
        E 120 90 49 65
        E 0 90 61 65
        E 120 80 49 00
        E 0 80 61 00
        E 120 90 19 67
        E 0 90 31 67
        E 0 90 49 67
        E 0 90 61 67
        E 120 80 19 00
        E 0 80 31 00
        E 0 80 49 00
        E 0 80 61 00
        E 360 90 19 67
        E 0 90 31 67
        E 0 90 49 67
        E 0 90 61 67
        E 120 80 19 00
        E 0 80 31 00
        E 0 80 49 00
        E 0 80 61 00
        E 360 90 19 67
        E 0 90 31 67
        E 0 90 49 67
        E 0 90 61 67
        E 120 80 19 00
        E 0 80 31 00
        E 0 80 49 00
        E 0 80 61 00
        E 360 90 19 67
        E 0 90 31 67
        E 0 90 49 67
        E 0 90 61 67
        E 120 80 19 00
        E 0 80 31 00
        E 0 80 49 00
        E 0 80 61 00
        E 360 90 19 67
        E 0 90 31 67
        E 0 90 49 67
        E 0 90 61 67
        E 120 80 19 00
        E 0 80 31 00
        E 0 80 49 00
        E 0 80 61 00
        E 360 90 31 67
        E 0 90 49 67
        E 0 90 61 67
        E 120 80 31 00
        E 0 80 49 00
        E 0 80 61 00
        E 360 90 18 68
        E 0 90 30 68
        E 0 90 48 68
        E 0 90 60 68
        E 120 80 18 00
        E 0 80 30 00
        E 0 80 48 00
        E 0 80 60 00
        E 120 90 49 65
        E 0 90 61 65
        E 120 80 49 00
        E 0 80 61 00
        E 120 90 31 67
        E 0 90 49 67
        E 0 90 61 67
        E 120 80 31 00
        E 0 80 49 00
        E 0 80 61 00
        E 120 90 4a 66
        E 0 90 62 66
        E 120 80 4a 00
        E 480 80 62 00
        E 120 90 32 66
        E 0 90 4a 66
        E 0 90 62 66
        E 120 80 32 00
        E 0 80 4a 00
        E 0 80 62 00
        E 360 90 32 66
        E 0 90 4a 66
        E 0 90 62 66
        E 120 80 32 00
        E 0 80 4a 00
        E 0 80 62 00
        E 120 90 32 66
        E 0 90 4a 66
        E 0 90 62 66
        E 120 80 32 00
        E 0 80 4a 00
        E 0 80 62 00
        E 120 90 32 66
        E 0 90 4a 66
        E 0 90 62 66
        E 120 80 32 00
        E 0 80 4a 00
        E 0 80 62 00
        E 120 90 4b 64
        E 0 90 63 64
        E 120 80 4b 00
        E 480 80 63 00
        E 120 90 4b 64
        E 0 90 63 64
        E 120 80 4b 00
        E 0 80 63 00
        E 120 90 49 65
        E 0 90 61 65
        E 120 80 49 00
        E 0 80 61 00
        E 360 90 31 65
        E 0 90 49 65
        E 0 90 61 65
        E 120 80 31 00
        E 0 80 49 00
        E 0 80 61 00
        E 120 90 19 65
        E 0 90 31 65
        E 0 90 49 65
        E 0 90 61 65
        E 120 80 19 00
        E 0 80 31 00
        E 0 80 49 00
        E 0 80 61 00
        E 120 90 31 65
        E 0 90 49 65
        E 0 90 61 65
        E 120 80 31 00
        E 0 80 49 00
        E 0 80 61 00
        E 120 90 19 67
        E 0 90 31 67
        E 0 90 49 67
        E 0 90 61 67
        E 3839 80 19 00
        E 0 80 31 00
        E 0 80 49 00
        E 0 80 61 00
        E 9600 b0 7b 00
        GUID {D5F8494A-4EBE-4FE9-92C7-BF9E35266A82}
        IGNTEMPO 0 120.00000000 4 4
        SRCCOLOR 5
        VELLANE 132 71 60
        COLORMAP "C:\Program Files\REAPER (x64)\Data\color_maps\rockband_guitarbass.png"
        CFGEDITVIEW 0.000000 2.818684 7 12 0 0 0
        CFGEDIT 1 1 0 1 1 0 1 1 1 1 1 0.25000000 100 100 1200 800 0 2 2 1 0.00000000 0 1 0 0 0.500000 0 0 1.000000 64
        KEYSNAP 0 6 "102030050700" 0 "Pentatonic"
        EVTFILTER 0 -1 -1 -1 -1 0 1 0 0 -1.00000000 -1.00000000
      >
    >
  >
  <TRACK '{77F10FFE-98B8-45B6-A925-8F89DA3517F4}'
    NAME "PART REAL_GUITAR"
    PEAKCOL 16576
    BEAT -1
    AUTOMODE 0
    VOLPAN 1.00000000000000 0.00000000000000 -1.00000000000000 -1.00000000000000 1.00000000000000
    MUTESOLO 0 0 0
    IPHASE 0
    ISBUS 0 0
    BUSCOMP 0 0
    SHOWINMIX 1 0.666700 0.500000 1 0.500000 -1 -1 -1
    FREEMODE 0
    SEL 0
    REC 0 0 0 0 0 0 0
    VU 2
    TRACKHEIGHT 0 0
    INQ 0 0 0 0.5000000000 100 0 0 100
    NCHAN 2
    FX 0
    TRACKID {77F10FFE-98B8-45B6-A925-8F89DA3517F4}
    PERF 0
    MIDIOUT -1
    <MIDINOTENAMES
      0 127 "Trill Marker"
      0 126 "Tremolo Marker"
      0 125 "BRE"
      0 124 "BRE"
      0 123 "BRE"
      0 122 "BRE"
      0 121 "BRE"
      0 120 "BRE (use all 6)"
      0 119 "-----------"
      0 116 "OVERDRIVE"
      0 115 "Solo Marker"
      0 109 "-----------"
      0 108 "Fret Hand Position"
      0 107 "Force Chord Numbering"
      0 106 "Loose Strumming"
      0 105 "Strum Direction"
      0 104 "Arpeggio Marker"
      0 103 "Slide Marker"
      0 102 "Force HOPO"
      0 101 "EXPERT e String"
      0 100 "EXPERT B String"
      0 99 "EXPERT G String"
      0 98 "EXPERT D String"
      0 97 "EXPERT A String"
      0 96 "EXPERT E String"
      0 95 "-----------"
      0 82 "Loose Strumming"
      0 81 "Strum Direction"
      0 80 "Arpeggio Marker"
      0 79 "Slide Marker"
      0 78 "Force HOPO"
      0 77 "HARD e String"
      0 76 "HARD B String"
      0 75 "HARD G String"
      0 74 "HARD D String"
      0 73 "HARD A String"
      0 72 "HARD E String"
      0 71 "-----------"
      0 58 "Loose Strumming"
      0 56 "Arpeggio Marker"
      0 55 "Slide Marker"
      0 53 "MEDIUM e String"
      0 52 "MEDIUM B String"
      0 51 "MEDIUM G String"
      0 50 "MEDIUM D String"
      0 49 "MEDIUM A String"
      0 48 "MEDIUM E String"
      0 47 "-----------"
      0 32 "Arpeggio Marker"
      0 31 "Slide Marker"
      0 29 "EASY e String"
      0 28 "EASY B String"
      0 27 "EASY G String"
      0 26 "EASY D String"
      0 25 "EASY A String"
      0 24 "EASY E String"
      0 21 "-----------"
      0 18 "Flat/Sharp Swap"
      0 17 "Hide Chord Names"
      0 16 "Slash Chord"
      0 15 "D#"
      0 14 "D"
      0 13 "C#"
      0 12 "C"
      0 11 "B"
      0 10 "A#"
      0 9 "A"
      0 8 "G#"
      0 7 "G"
      0 6 "F#"
      0 5 "F"
      0 4 "E"
    >
    MAINSEND 1 0
    <FXCHAIN
      WNDRECT 0 43 655 467
      SHOW 0
      LASTSEL 1
      DOCKED 0
      BYPASS 0 0
      <JS "c3/progtr" ""
        0.000000 3.000000 0.000000 0.000000 0.000000 0.000000 0.000000 0.000000 0.000000 1.000000 - - - - - - - - - - - - - - - - - - - - - - - - - - - - - - - - - - - - - - - - - - - - - - - - - - - - - - 
      >
      FLOATPOS 0 0 0 0
      FXID {57E105C1-0DDF-4767-8AA9-F73A5CDFB6DF}
      WAK 0
      BYPASS 0 0
      <VST "VSTi: ReaSynth (Cockos)" "reasynth.dll" 0 ""
        eXNlcu9e7f4AAAAAAgAAAAEAAAAAAAAAAgAAAAAAAAA4AAAAAAAAAA==
        AAAQAO++rd4N8K3eppvEO+gJMjyHFlk/AAAAAAAAAADMm4A+4jAEPA==
        AAAAAAAAAD+01hM+j8L1PQAAAD8AABAAAAA=
      >
      FLOATPOS 0 0 0 0
      FXID {DDB0B0D0-844A-4692-ACFB-71B329B49CB3}
      WAK 0
    >
    <ITEM
      POSITION 0.00000000000000
      SNAPOFFS 0.00000000000000
      LENGTH 249.33300000000000
      LOOP 0
      ALLTAKES 0
      SEL 0
      FADEIN 1 0.000000 0.000000 1 0
      FADEOUT 1 0.000000 0.000000 1 0
      MUTE 0
      IGUID {5ED45A03-B160-4AE0-879A-016BAA4004FE}
      IID 5
      NAME "PART REAL_GUITAR"
      VOLPAN 1.000000 0.000000 1.000000 -1.000000
      SOFFS 0.00000000000000 0.00000000000000
      PLAYRATE 1.00000000000000 1 0.00000000000000 -1
      CHANMODE 0
      GUID {BAA1887B-FB6B-4856-8313-623093761CF0}
      <SOURCE MIDI
        HASDATA 1 480 QN
        POOLEDEVTS {CB2EE1A0-3DE7-4A61-9696-76DE944D758A}
        <X 0 0
          /wNQQVJUIFJFQUxfR1VJVEFS
        >
        <X 23040 0
          /wFbYmVnaW5fcGcgc29uZ190cmFpbmVyX3BnXzFd
        >
        E 0 90 1d 6c
        E 0 90 35 6c
        E 0 90 4d 6c
        E 0 90 65 6c
        E 0 90 6c 6c
        E 120 80 6c 00
        E 3240 80 1d 00
        E 120 80 35 00
        E 120 80 4d 00
        E 120 80 65 00
        <X 120 0
          /wFbcGdfbm9ybSBzb25nX3RyYWluZXJfcGdfMV0=
        >
        E 0 90 1c 6e
        E 0 90 34 6e
        E 0 90 4c 6e
        E 0 90 64 6e
        E 3360 80 1c 00
        E 120 80 34 00
        E 120 80 4c 00
        E 120 80 64 00
        E 120 90 1d 6c
        E 0 90 35 6c
        E 0 90 4d 6c
        E 0 90 65 6c
        E 0 90 74 64
        E 2400 80 1d 00
        E 120 80 35 00
        E 120 80 4d 00
        E 120 80 65 00
        E 120 90 1c 6e
        E 0 90 34 6e
        E 0 90 4c 6e
        E 0 90 64 6e
        E 120 80 1c 00
        E 480 80 34 00
        E 120 80 4c 00
        E 120 80 64 00
        E 120 90 1a 6e
        E 0 90 32 6e
        E 0 90 4a 6e
        E 0 90 62 6e
        E 120 80 74 00
        E 3240 80 1a 00
        E 120 80 32 00
        E 120 80 4a 00
        E 120 80 62 00
        <X 120 0
          /wFbZW5kX3BnIHNvbmdfdHJhaW5lcl9wZ18xXQ==
        >
        E 0 90 1d 6c
        E 0 90 35 6c
        E 0 90 4d 6c
        E 0 90 65 6c
        E 3360 80 1d 00
        E 120 80 35 00
        E 120 80 4d 00
        E 120 80 65 00
        E 120 90 1c 6e
        E 0 90 34 6e
        E 0 90 4c 6e
        E 0 90 64 6e
        E 3360 80 1c 00
        E 120 80 34 00
        E 120 80 4c 00
        E 120 80 64 00
        E 120 90 1d 6c
        E 0 90 35 6c
        E 0 90 4d 6c
        E 0 90 65 6c
        E 2400 80 1d 00
        E 120 80 35 00
        E 120 80 4d 00
        E 120 80 65 00
        E 120 90 1c 6e
        E 0 90 34 6e
        E 0 90 4c 6e
        E 0 90 64 6e
        E 120 80 1c 00
        E 480 80 34 00
        E 120 80 4c 00
        E 120 80 64 00
        E 120 90 1a 6e
        E 0 90 32 6e
        E 0 90 4a 6e
        E 0 90 62 6e
        E 5760 80 1a 00
        E 0 80 32 00
        E 0 80 4a 00
        E 0 80 62 00
        <X 1920 0
          /wFbYmVnaW5fcGcgc29uZ190cmFpbmVyX3BnXzJd
        >
        E 0 90 74 64
        E 240 90 4c 6e
        E 0 90 64 6e
        E 0 90 6c 6e
        E 120 80 4c 00
        E 0 80 64 00
        E 0 80 6c 00
        E 120 90 34 70
        E 0 90 4c 70
        E 0 90 64 70
        E 120 80 34 00
        E 0 80 4c 00
        E 0 80 64 00
        E 120 90 4c 6e
        E 0 90 64 6e
        E 120 80 4c 00
        E 0 80 64 00
        E 120 90 1c 71
        E 0 90 34 71
        E 0 90 4c 71
        E 0 90 64 71
        E 120 80 1c 00
        E 0 80 34 00
        E 0 80 4c 00
        E 0 80 64 00
        E 120 90 4c 70
        E 0 90 64 70
        E 120 80 4c 00
        E 0 80 64 00
        E 120 90 34 6e
        E 0 90 4c 6e
        E 0 90 64 6e
        E 120 80 34 00
        E 0 80 4c 00
        E 0 80 64 00
        E 120 90 4b 6d
        E 0 90 63 6d
        E 0 90 6c 6d
        E 120 80 4b 00
        E 0 80 63 00
        E 0 80 6c 00
        E 360 90 4c 6e
        E 0 90 64 6e
        E 0 90 6c 6e
        E 120 80 4c 00
        E 0 80 64 00
        E 0 80 6c 00
        E 120 90 34 70
        E 0 90 4c 70
        E 0 90 64 70
        E 120 80 34 00
        E 0 80 4c 00
        E 0 80 64 00
        E 120 90 4c 6e
        E 0 90 64 6e
        E 120 80 4c 00
        E 0 80 64 00
        E 120 90 1c 71
        E 0 90 34 71
        E 0 90 4c 71
        E 0 90 64 71
        E 120 80 1c 00
        E 0 80 34 00
        E 0 80 4c 00
        E 0 80 64 00
        E 120 90 4c 6e
        E 0 90 64 6e
        E 120 80 4c 00
        E 0 80 64 00
        E 120 90 34 71
        E 0 90 4c 71
        E 0 90 64 71
        E 120 80 34 00
        E 0 80 4c 00
        E 0 80 64 00
        E 120 90 4d 6e
        E 0 90 65 6e
        E 120 80 4d 00
        E 0 80 65 00
        E 120 80 74 00
        E 0 90 1c 6e
        E 0 90 34 6e
        E 0 90 4c 6e
        E 0 90 64 6e
        E 2880 80 1c 00
        E 0 80 34 00
        E 0 80 4c 00
        E 0 80 64 00
        E 1200 90 4c 6e
        E 0 90 64 6e
        E 120 80 4c 00
        E 0 80 64 00
        E 120 90 34 70
        E 0 90 4c 70
        E 0 90 64 70
        E 120 80 34 00
        E 0 80 4c 00
        E 0 80 64 00
        E 120 90 4c 6e
        E 0 90 64 6e
        E 120 80 4c 00
        E 0 80 64 00
        E 120 90 1d 6e
        E 0 90 35 6e
        E 0 90 4d 6e
        E 0 90 65 6e
        E 120 80 1d 00
        E 0 80 35 00
        E 0 80 4d 00
        E 0 80 65 00
        E 120 90 4c 71
        E 0 90 64 71
        E 120 80 4c 00
        E 0 80 64 00
        E 120 90 34 70
        E 0 90 4c 70
        E 0 90 64 70
        E 120 80 34 00
        E 0 80 4c 00
        E 0 80 64 00
        E 120 90 4b 70
        E 0 90 63 70
        E 120 80 4b 00
        E 0 80 63 00
        E 360 90 4c 6e
        E 0 90 64 6e
        E 120 80 4c 00
        E 0 80 64 00
        E 120 90 34 70
        E 0 90 4c 70
        E 0 90 64 70
        E 120 80 34 00
        E 0 80 4c 00
        E 0 80 64 00
        E 120 90 4c 6e
        E 0 90 64 6e
        E 120 80 4c 00
        E 0 80 64 00
        E 120 90 1c 71
        E 0 90 34 71
        E 0 90 4c 71
        E 0 90 64 71
        E 120 80 1c 00
        E 0 80 34 00
        E 0 80 4c 00
        E 0 80 64 00
        E 120 90 4c 6e
        E 0 90 64 6e
        E 120 80 4c 00
        E 0 80 64 00
        E 120 90 1c 71
        E 0 90 34 71
        E 0 90 4c 71
        E 0 90 64 71
        E 120 80 1c 00
        E 0 80 34 00
        E 0 80 4c 00
        E 0 80 64 00
        E 120 90 35 6e
        E 0 90 4d 6e
        E 0 90 65 6e
        <X 3120 0
          /wFbZW5kX3BnIHNvbmdfdHJhaW5lcl9wZ18yXQ==
        >
        E 0 80 35 00
        E 0 80 4d 00
        E 0 80 65 00
        <X 960 0
          /wFbYmVnaW5fcGcgc29uZ190cmFpbmVyX3BnXzNd
        >
        E 240 90 4c 6e
        E 0 90 64 6e
        E 120 80 4c 00
        E 0 80 64 00
        E 120 90 34 70
        E 0 90 4c 70
        E 0 90 64 70
        E 120 80 34 00
        E 0 80 4c 00
        E 0 80 64 00
        E 120 90 4c 6e
        E 0 90 64 6e
        E 120 80 4c 00
        E 0 80 64 00
        E 120 90 1c 71
        E 0 90 34 71
        E 0 90 4c 71
        E 0 90 64 71
        E 120 80 1c 00
        E 0 80 34 00
        E 0 80 4c 00
        E 0 80 64 00
        E 120 90 4c 70
        E 0 90 64 70
        E 120 80 4c 00
        E 0 80 64 00
        E 120 90 34 6e
        E 0 90 4c 6e
        E 0 90 64 6e
        E 120 80 34 00
        E 0 80 4c 00
        E 0 80 64 00
        E 120 90 4b 6d
        E 0 90 63 6d
        E 0 90 6c 6d
        E 120 80 4b 00
        E 0 80 63 00
        E 0 80 6c 00
        E 360 90 4c 6e
        E 0 90 64 6e
        E 0 90 6c 6e
        E 120 80 4c 00
        E 0 80 64 00
        E 0 80 6c 00
        E 120 90 34 70
        E 0 90 4c 70
        E 0 90 64 70
        E 120 80 34 00
        E 0 80 4c 00
        E 0 80 64 00
        E 120 90 4c 6e
        E 0 90 64 6e
        E 120 80 4c 00
        E 0 80 64 00
        E 120 90 1c 71
        E 0 90 34 71
        E 0 90 4c 71
        E 0 90 64 71
        E 120 80 1c 00
        E 0 80 34 00
        E 0 80 4c 00
        E 0 80 64 00
        E 120 90 4c 6e
        E 0 90 64 6e
        E 120 80 4c 00
        E 0 80 64 00
        E 120 90 34 70
        E 0 90 4c 70
        E 0 90 64 70
        E 120 80 34 00
        E 0 80 4c 00
        E 0 80 64 00
        E 120 90 4c 71
        E 0 90 64 71
        E 3120 80 4c 00
        E 0 80 64 00
        E 3360 90 1a 6e
        E 0 90 32 6e
        E 0 90 4a 6e
        E 0 90 62 6e
        E 120 80 1a 00
        E 0 80 32 00
        E 0 80 4a 00
        E 0 80 62 00
        E 120 90 4d 70
        E 0 90 65 70
        E 0 90 6c 70
        E 120 80 4d 00
        E 0 80 65 00
        E 0 80 6c 00
        E 360 90 35 73
        E 0 90 4d 73
        E 0 90 65 73
        E 120 80 35 00
        E 0 80 4d 00
        E 480 80 65 00
        <X 120 0
          /wFbZW5kX3BnIHNvbmdfdHJhaW5lcl9wZ18zXQ==
        >
        <X 0 0
          /wFbYmVnaW5fcGcgc29uZ190cmFpbmVyX3BnXzRd
        >
        E 0 90 1a 6e
        E 0 90 32 6e
        E 0 90 4a 6e
        E 0 90 62 6e
        E 0 90 6c 6d
        E 120 80 6c 00
        E 2280 80 1a 00
        E 120 80 32 00
        E 120 80 4a 00
        E 120 80 62 00
        E 120 90 1a 6d
        E 0 90 32 6d
        E 0 90 4a 6d
        E 0 90 62 6d
        E 120 80 1a 00
        E 480 80 32 00
        E 120 80 4a 00
        E 120 80 62 00
        <X 120 0
          /wFbcGdfbm9ybSBzb25nX3RyYWluZXJfcGdfNF0=
        >
        E 0 90 1a 6e
        E 0 90 32 6e
        E 0 90 4a 6e
        E 0 90 62 6e
        E 2880 80 1a 00
        E 0 80 32 00
        E 0 80 4a 00
        E 0 80 62 00
        E 960 90 1a 6e
        E 0 90 32 6e
        E 0 90 4a 6e
        E 0 90 62 6e
        E 2400 80 1a 00
        E 120 80 32 00
        E 120 80 4a 00
        E 120 80 62 00
        E 120 90 1b 6d
        E 0 90 33 6d
        E 0 90 4b 6d
        E 0 90 63 6d
        E 120 80 1b 00
        E 480 80 33 00
        E 120 80 4b 00
        E 120 80 63 00
        E 120 90 19 70
        E 0 90 31 70
        E 0 90 49 70
        E 0 90 61 70
        E 0 90 74 64
        E 1200 80 19 00
        E 120 80 31 00
        E 120 80 49 00
        E 120 80 61 00
        E 120 90 19 6e
        E 0 90 31 6e
        E 0 90 49 6e
        E 0 90 61 6e
        E 1680 80 19 00
        E 120 80 31 00
        E 120 80 49 00
        E 120 80 61 00
        <X 120 0
          /wFbZW5kX3BnIHNvbmdfdHJhaW5lcl9wZ180XQ==
        >
        E 0 80 74 00
        E 0 90 1d 6c
        E 0 90 35 6c
        E 0 90 4d 6c
        E 0 90 65 6c
        E 0 90 6c 6c
        E 120 80 6c 00
        E 3240 80 1d 00
        E 120 80 35 00
        E 120 80 4d 00
        E 120 80 65 00
        E 120 90 1c 6e
        E 0 90 34 6e
        E 0 90 4c 6e
        E 0 90 64 6e
        E 3360 80 1c 00
        E 120 80 34 00
        E 120 80 4c 00
        E 120 80 64 00
        E 120 90 1d 6c
        E 0 90 35 6c
        E 0 90 4d 6c
        E 0 90 65 6c
        E 2400 80 1d 00
        E 120 80 35 00
        E 120 80 4d 00
        E 120 80 65 00
        E 120 90 1c 6e
        E 0 90 34 6e
        E 0 90 4c 6e
        E 0 90 64 6e
        E 120 80 1c 00
        E 480 80 34 00
        E 120 80 4c 00
        E 120 80 64 00
        E 120 90 1a 6e
        E 0 90 32 6e
        E 0 90 4a 6e
        E 0 90 62 6e
        E 3360 80 1a 00
        E 120 80 32 00
        E 120 80 4a 00
        E 120 80 62 00
        E 120 90 1d 6c
        E 0 90 35 6c
        E 0 90 4d 6c
        E 0 90 65 6c
        E 3360 80 1d 00
        E 120 80 35 00
        E 120 80 4d 00
        E 120 80 65 00
        E 120 90 1c 6e
        E 0 90 34 6e
        E 0 90 4c 6e
        E 0 90 64 6e
        E 3360 80 1c 00
        E 120 80 34 00
        E 120 80 4c 00
        E 120 80 64 00
        E 120 90 1d 6c
        E 0 90 35 6c
        E 0 90 4d 6c
        E 0 90 65 6c
        E 2400 80 1d 00
        E 120 80 35 00
        E 120 80 4d 00
        E 120 80 65 00
        E 120 90 1c 6e
        E 0 90 34 6e
        E 0 90 4c 6e
        E 0 90 64 6e
        E 120 80 1c 00
        E 480 80 34 00
        E 120 80 4c 00
        E 120 80 64 00
        E 120 90 1a 6e
        E 0 90 32 6e
        E 0 90 4a 6e
        E 0 90 62 6e
        E 5760 80 1a 00
        E 0 80 32 00
        E 0 80 4a 00
        E 0 80 62 00
        E 1920 90 74 64
        E 240 90 4c 6e
        E 0 90 64 6e
        E 0 90 6c 6e
        E 120 80 4c 00
        E 0 80 64 00
        E 0 80 6c 00
        E 120 90 34 70
        E 0 90 4c 70
        E 0 90 64 70
        E 120 80 34 00
        E 0 80 4c 00
        E 0 80 64 00
        E 120 90 4c 6e
        E 0 90 64 6e
        E 120 80 4c 00
        E 0 80 64 00
        E 120 90 1c 71
        E 0 90 34 71
        E 0 90 4c 71
        E 0 90 64 71
        E 120 80 1c 00
        E 0 80 34 00
        E 0 80 4c 00
        E 0 80 64 00
        E 120 90 4c 70
        E 0 90 64 70
        E 120 80 4c 00
        E 0 80 64 00
        E 120 90 34 6e
        E 0 90 4c 6e
        E 0 90 64 6e
        E 120 80 34 00
        E 0 80 4c 00
        E 0 80 64 00
        E 120 90 4b 6d
        E 0 90 63 6d
        E 0 90 6c 6d
        E 120 80 4b 00
        E 0 80 63 00
        E 0 80 6c 00
        E 360 90 4c 6e
        E 0 90 64 6e
        E 0 90 6c 6e
        E 120 80 4c 00
        E 0 80 64 00
        E 0 80 6c 00
        E 120 90 34 70
        E 0 90 4c 70
        E 0 90 64 70
        E 120 80 34 00
        E 0 80 4c 00
        E 0 80 64 00
        E 120 90 4c 6e
        E 0 90 64 6e
        E 120 80 4c 00
        E 0 80 64 00
        E 120 90 1c 71
        E 0 90 34 71
        E 0 90 4c 71
        E 0 90 64 71
        E 120 80 1c 00
        E 0 80 34 00
        E 0 80 4c 00
        E 0 80 64 00
        E 120 90 4c 6e
        E 0 90 64 6e
        E 120 80 4c 00
        E 0 80 64 00
        E 120 90 34 71
        E 0 90 4c 71
        E 0 90 64 71
        E 120 80 34 00
        E 0 80 4c 00
        E 0 80 64 00
        E 120 90 4d 6e
        E 0 90 65 6e
        E 120 80 4d 00
        E 0 80 65 00
        E 120 80 74 00
        E 0 90 1c 6e
        E 0 90 34 6e
        E 0 90 4c 6e
        E 0 90 64 6e
        E 2880 80 1c 00
        E 0 80 34 00
        E 0 80 4c 00
        E 0 80 64 00
        E 1200 90 4c 6e
        E 0 90 64 6e
        E 120 80 4c 00
        E 0 80 64 00
        E 120 90 34 70
        E 0 90 4c 70
        E 0 90 64 70
        E 120 80 34 00
        E 0 80 4c 00
        E 0 80 64 00
        E 120 90 4c 6e
        E 0 90 64 6e
        E 120 80 4c 00
        E 0 80 64 00
        E 120 90 1d 6e
        E 0 90 35 6e
        E 0 90 4d 6e
        E 0 90 65 6e
        E 120 80 1d 00
        E 0 80 35 00
        E 0 80 4d 00
        E 0 80 65 00
        E 120 90 4c 71
        E 0 90 64 71
        E 120 80 4c 00
        E 0 80 64 00
        E 120 90 34 70
        E 0 90 4c 70
        E 0 90 64 70
        E 120 80 34 00
        E 0 80 4c 00
        E 0 80 64 00
        E 120 90 4b 70
        E 0 90 63 70
        E 120 80 4b 00
        E 0 80 63 00
        E 360 90 4c 6e
        E 0 90 64 6e
        E 120 80 4c 00
        E 0 80 64 00
        E 120 90 34 70
        E 0 90 4c 70
        E 0 90 64 70
        E 120 80 34 00
        E 0 80 4c 00
        E 0 80 64 00
        E 120 90 4c 6e
        E 0 90 64 6e
        E 120 80 4c 00
        E 0 80 64 00
        E 120 90 1c 71
        E 0 90 34 71
        E 0 90 4c 71
        E 0 90 64 71
        E 120 80 1c 00
        E 0 80 34 00
        E 0 80 4c 00
        E 0 80 64 00
        E 120 90 4c 6e
        E 0 90 64 6e
        E 120 80 4c 00
        E 0 80 64 00
        E 120 90 1c 71
        E 0 90 34 71
        E 0 90 4c 71
        E 0 90 64 71
        E 120 80 1c 00
        E 0 80 34 00
        E 0 80 4c 00
        E 0 80 64 00
        E 120 90 35 6e
        E 0 90 4d 6e
        E 0 90 65 6e
        E 3120 80 35 00
        E 0 80 4d 00
        E 0 80 65 00
        E 1200 90 4c 6e
        E 0 90 64 6e
        E 120 80 4c 00
        E 0 80 64 00
        E 120 90 34 70
        E 0 90 4c 70
        E 0 90 64 70
        E 120 80 34 00
        E 0 80 4c 00
        E 0 80 64 00
        E 120 90 4c 6e
        E 0 90 64 6e
        E 120 80 4c 00
        E 0 80 64 00
        E 120 90 1c 71
        E 0 90 34 71
        E 0 90 4c 71
        E 0 90 64 71
        E 120 80 1c 00
        E 0 80 34 00
        E 0 80 4c 00
        E 0 80 64 00
        E 120 90 4c 70
        E 0 90 64 70
        E 120 80 4c 00
        E 0 80 64 00
        E 120 90 34 6e
        E 0 90 4c 6e
        E 0 90 64 6e
        E 120 80 34 00
        E 0 80 4c 00
        E 0 80 64 00
        E 120 90 4b 6d
        E 0 90 63 6d
        E 0 90 6c 6d
        E 120 80 4b 00
        E 0 80 63 00
        E 0 80 6c 00
        E 360 90 4c 6e
        E 0 90 64 6e
        E 0 90 6c 6e
        E 120 80 4c 00
        E 0 80 64 00
        E 0 80 6c 00
        E 120 90 34 70
        E 0 90 4c 70
        E 0 90 64 70
        E 120 80 34 00
        E 0 80 4c 00
        E 0 80 64 00
        E 120 90 4c 6e
        E 0 90 64 6e
        E 120 80 4c 00
        E 0 80 64 00
        E 120 90 1c 71
        E 0 90 34 71
        E 0 90 4c 71
        E 0 90 64 71
        E 120 80 1c 00
        E 0 80 34 00
        E 0 80 4c 00
        E 0 80 64 00
        E 120 90 4c 6e
        E 0 90 64 6e
        E 120 80 4c 00
        E 0 80 64 00
        E 120 90 34 70
        E 0 90 4c 70
        E 0 90 64 70
        E 120 80 34 00
        E 0 80 4c 00
        E 0 80 64 00
        E 120 90 4c 71
        E 0 90 64 71
        E 3120 80 4c 00
        E 0 80 64 00
        E 3360 90 1a 6e
        E 0 90 32 6e
        E 0 90 4a 6e
        E 0 90 62 6e
        E 120 80 1a 00
        E 0 80 32 00
        E 0 80 4a 00
        E 0 80 62 00
        E 120 90 4d 70
        E 0 90 65 70
        E 120 80 4d 00
        E 0 80 65 00
        E 360 90 35 6e
        E 0 90 4d 6e
        E 0 90 65 6e
        E 3600 80 35 00
        E 0 80 4d 00
        E 0 80 65 00
        E 4800 90 18 69
        E 0 90 30 69
        E 0 90 48 69
        E 0 90 60 69
        E 0 90 6c 66
        E 0 90 74 64
        E 120 80 6c 00
        E 1320 80 18 00
        E 120 80 30 00
        E 120 80 48 00
        E 120 80 60 00
        E 120 90 19 67
        E 0 90 31 67
        E 0 90 49 67
        E 0 90 61 67
        E 1200 80 19 00
        E 120 80 31 00
        E 120 80 49 00
        E 120 80 61 00
        E 120 90 1a 66
        E 0 90 32 66
        E 0 90 4a 66
        E 0 90 62 66
        E 1440 80 1a 00
        E 120 80 32 00
        E 120 80 4a 00
        E 120 80 62 00
        E 120 90 1a 64
        E 0 90 32 64
        E 0 90 4a 64
        E 0 90 62 64
        E 2160 80 74 00
        E 2880 80 1a 00
        E 0 80 32 00
        E 0 80 4a 00
        E 0 80 62 00
        E 3840 90 1b 6d
        E 0 90 33 6d
        E 0 90 4b 6d
        E 0 90 63 6d
        E 0 90 6c 6d
        E 120 80 1b 00
        E 0 80 6c 00
        E 480 80 33 00
        E 120 80 4b 00
        E 120 80 63 00
        E 120 90 1c 6e
        E 0 90 34 6e
        E 0 90 4c 6e
        E 0 90 64 6e
        E 0 90 6c 6e
        E 120 80 6c 00
        E 1320 80 1c 00
        E 120 80 34 00
        E 120 80 4c 00
        E 120 80 64 00
        E 120 90 1c 71
        E 0 90 34 71
        E 0 90 4c 71
        E 0 90 64 71
        E 1200 80 1c 00
        E 120 80 34 00
        E 120 80 4c 00
        E 120 80 64 00
        E 120 90 1d 70
        E 0 90 35 70
        E 0 90 4d 70
        E 0 90 65 70
        E 1440 80 1d 00
        E 120 80 35 00
        E 120 80 4d 00
        E 120 80 65 00
        E 120 90 1d 6e
        E 0 90 35 6e
        E 0 90 4d 6e
        E 0 90 65 6e
        E 1680 80 1d 00
        E 120 80 35 00
        E 120 80 4d 00
        E 120 80 65 00
        <X 120 0
          /wFbYmVnaW5fcGcgc29uZ190cmFpbmVyX3BnXzVd
        >
        E 0 90 1c 71
        E 0 90 34 71
        E 0 90 4c 71
        E 0 90 64 71
        E 3360 80 1c 00
        E 120 80 34 00
        E 120 80 4c 00
        E 120 80 64 00
        <X 120 0
          /wFbcGdfbm9ybSBzb25nX3RyYWluZXJfcGdfNV0=
        >
        E 0 90 1c 6e
        E 0 90 34 6e
        E 0 90 4c 6e
        E 0 90 64 6e
        E 3360 80 1c 00
        E 120 80 34 00
        E 120 80 4c 00
        E 120 80 64 00
        E 120 90 1c 71
        E 0 90 34 71
        E 0 90 4c 71
        E 0 90 64 71
        E 3360 80 1c 00
        E 120 80 34 00
        E 120 80 4c 00
        E 120 80 64 00
        E 120 90 1b 70
        E 0 90 33 70
        E 0 90 4b 70
        E 0 90 63 70
        E 3360 80 1b 00
        E 120 80 33 00
        E 120 80 4b 00
        E 120 80 63 00
        <X 120 0
          /wFbZW5kX3BnIHNvbmdfdHJhaW5lcl9wZ181XQ==
        >
        E 0 90 1c 71
        E 0 90 34 71
        E 0 90 4c 71
        E 0 90 64 71
        E 3360 80 1c 00
        E 120 80 34 00
        E 120 80 4c 00
        E 120 80 64 00
        E 120 90 1c 6e
        E 0 90 34 6e
        E 0 90 4c 6e
        E 0 90 64 6e
        E 3360 80 1c 00
        E 120 80 34 00
        E 120 80 4c 00
        E 120 80 64 00
        E 120 90 1c 71
        E 0 90 34 71
        E 0 90 4c 71
        E 0 90 64 71
        E 0 90 6c 71
        E 120 80 6c 00
        E 3240 80 1c 00
        E 120 80 34 00
        E 120 80 4c 00
        E 120 80 64 00
        E 120 90 1d 73
        E 0 90 35 73
        E 0 90 4d 73
        E 0 90 65 73
        E 0 90 74 64
        E 3360 80 1d 00
        E 120 80 35 00
        E 120 80 4d 00
        E 120 80 65 00
        <X 120 0
          /wFbYmVnaW5fcGcgc29uZ190cmFpbmVyX3BnXzZd
        >
        E 0 90 19 73
        E 0 90 31 73
        E 0 90 49 73
        E 0 90 61 73
        E 0 90 6c 70
        E 120 80 74 00
        E 0 80 19 00
        E 0 80 31 00
        E 0 80 49 00
        E 0 80 61 00
        E 0 80 6c 00
        E 360 90 19 73
        E 0 90 31 73
        E 0 90 49 73
        E 0 90 61 73
        E 720 80 19 00
        E 120 80 31 00
        E 120 80 49 00
        E 120 80 61 00
        E 120 90 19 73
        E 0 90 31 73
        E 0 90 49 73
        E 0 90 61 73
        E 120 80 19 00
        E 0 80 31 00
        E 0 80 49 00
        E 0 80 61 00
        E 360 90 31 73
        E 0 90 49 73
        E 0 90 61 73
        E 120 80 31 00
        E 0 80 49 00
        E 0 80 61 00
        E 120 90 19 73
        E 0 90 31 73
        E 0 90 49 73
        E 0 90 61 73
        E 960 80 19 00
        E 120 80 31 00
        E 120 80 49 00
        E 120 80 61 00
        <X 120 0
          /wFbcGdfbm9ybSBzb25nX3RyYWluZXJfcGdfNl0=
        >
        E 0 90 19 70
        E 0 90 31 70
        E 0 90 49 70
        E 0 90 61 70
        E 120 80 19 00
        E 0 80 31 00
        E 0 80 49 00
        E 0 80 61 00
        E 360 90 19 70
        E 0 90 31 70
        E 0 90 49 70
        E 0 90 61 70
        E 720 80 19 00
        E 120 80 31 00
        E 120 80 49 00
        E 120 80 61 00
        E 120 90 19 70
        E 0 90 31 70
        E 0 90 49 70
        E 0 90 61 70
        E 120 80 19 00
        E 0 80 31 00
        E 0 80 49 00
        E 0 80 61 00
        E 360 90 31 70
        E 0 90 49 70
        E 0 90 61 70
        E 120 80 31 00
        E 0 80 49 00
        E 0 80 61 00
        E 120 90 19 70
        E 0 90 31 70
        E 0 90 49 70
        E 0 90 61 70
        E 960 80 19 00
        E 120 80 31 00
        E 120 80 49 00
        E 120 80 61 00
        E 120 90 18 73
        E 0 90 30 73
        E 0 90 48 73
        E 0 90 60 73
        E 120 80 18 00
        E 0 80 30 00
        E 0 80 48 00
        E 0 80 60 00
        E 360 90 18 73
        E 0 90 30 73
        E 0 90 48 73
        E 0 90 60 73
        E 720 80 18 00
        E 120 80 30 00
        E 120 80 48 00
        E 120 80 60 00
        E 120 90 18 73
        E 0 90 30 73
        E 0 90 48 73
        E 0 90 60 73
        E 120 80 18 00
        E 0 80 30 00
        E 0 80 48 00
        E 0 80 60 00
        E 360 90 30 73
        E 0 90 48 73
        E 0 90 60 73
        E 120 80 30 00
        E 0 80 48 00
        E 0 80 60 00
        E 120 90 18 73
        E 0 90 30 73
        E 0 90 48 73
        E 0 90 60 73
        E 960 80 18 00
        E 120 80 30 00
        E 120 80 48 00
        E 120 80 60 00
        E 120 90 1a 70
        E 0 90 32 70
        E 0 90 4a 70
        E 0 90 62 70
        E 120 80 1a 00
        E 0 80 32 00
        E 0 80 4a 00
        E 0 80 62 00
        E 360 90 1a 70
        E 0 90 32 70
        E 0 90 4a 70
        E 0 90 62 70
        E 720 80 1a 00
        E 120 80 32 00
        E 120 80 4a 00
        E 120 80 62 00
        E 120 90 1a 70
        E 0 90 32 70
        E 0 90 4a 70
        E 0 90 62 70
        E 120 80 1a 00
        E 0 80 32 00
        E 0 80 4a 00
        E 0 80 62 00
        E 360 90 32 70
        E 0 90 4a 70
        E 0 90 62 70
        E 120 80 32 00
        E 0 80 4a 00
        E 0 80 62 00
        E 120 90 1a 70
        E 0 90 32 70
        E 0 90 4a 70
        E 0 90 62 70
        E 960 80 1a 00
        E 120 80 32 00
        E 120 80 4a 00
        E 120 80 62 00
        <X 120 0
          /wFbZW5kX3BnIHNvbmdfdHJhaW5lcl9wZ182XQ==
        >
        <X 0 0
          /wFbYmVnaW5fcGcgc29uZ190cmFpbmVyX3BnXzdd
        >
        E 0 90 19 73
        E 0 90 31 73
        E 0 90 49 73
        E 0 90 61 73
        E 120 80 19 00
        E 0 80 31 00
        E 0 80 49 00
        E 0 80 61 00
        E 360 90 19 73
        E 0 90 31 73
        E 0 90 49 73
        E 0 90 61 73
        E 720 80 19 00
        E 120 80 31 00
        E 120 80 49 00
        E 120 80 61 00
        E 120 90 19 73
        E 0 90 31 73
        E 0 90 49 73
        E 0 90 61 73
        E 120 80 19 00
        E 0 80 31 00
        E 0 80 49 00
        E 0 80 61 00
        E 360 90 31 73
        E 0 90 49 73
        E 0 90 61 73
        E 120 80 31 00
        E 0 80 49 00
        E 0 80 61 00
        E 120 90 19 73
        E 0 90 31 73
        E 0 90 49 73
        E 0 90 61 73
        E 960 80 19 00
        E 120 80 31 00
        E 120 80 49 00
        E 120 80 61 00
        <X 120 0
          /wFbcGdfbm9ybSBzb25nX3RyYWluZXJfcGdfN10=
        >
        E 0 90 19 70
        E 0 90 31 70
        E 0 90 49 70
        E 0 90 61 70
        E 120 80 19 00
        E 0 80 31 00
        E 0 80 49 00
        E 0 80 61 00
        E 360 90 19 70
        E 0 90 31 70
        E 0 90 49 70
        E 0 90 61 70
        E 720 80 19 00
        E 120 80 31 00
        E 120 80 49 00
        E 120 80 61 00
        E 120 90 19 70
        E 0 90 31 70
        E 0 90 49 70
        E 0 90 61 70
        E 120 80 19 00
        E 0 80 31 00
        E 0 80 49 00
        E 0 80 61 00
        E 360 90 31 70
        E 0 90 49 70
        E 0 90 61 70
        E 120 80 31 00
        E 0 80 49 00
        E 0 80 61 00
        E 120 90 19 70
        E 0 90 31 70
        E 0 90 49 70
        E 0 90 61 70
        E 960 80 19 00
        E 120 80 31 00
        E 120 80 49 00
        E 120 80 61 00
        E 120 90 1b 70
        E 0 90 33 70
        E 0 90 4b 70
        E 0 90 63 70
        E 120 80 1b 00
        E 0 80 33 00
        E 0 80 4b 00
        E 0 80 63 00
        E 360 90 1b 70
        E 0 90 33 70
        E 0 90 4b 70
        E 0 90 63 70
        E 720 80 1b 00
        E 120 80 33 00
        E 120 80 4b 00
        E 120 80 63 00
        E 120 90 1b 70
        E 0 90 33 70
        E 0 90 4b 70
        E 0 90 63 70
        E 120 80 1b 00
        E 0 80 33 00
        E 0 80 4b 00
        E 0 80 63 00
        E 360 90 33 70
        E 0 90 4b 70
        E 0 90 63 70
        E 120 80 33 00
        E 0 80 4b 00
        E 0 80 63 00
        E 120 90 1b 70
        E 0 90 33 70
        E 0 90 4b 70
        E 0 90 63 70
        E 960 80 1b 00
        E 120 80 33 00
        E 120 80 4b 00
        E 120 80 63 00
        E 120 90 1a 70
        E 0 90 32 70
        E 0 90 4a 70
        E 0 90 62 70
        E 120 80 1a 00
        E 0 80 32 00
        E 0 80 4a 00
        E 0 80 62 00
        E 360 90 1a 70
        E 0 90 32 70
        E 0 90 4a 70
        E 0 90 62 70
        E 720 80 1a 00
        E 120 80 32 00
        E 120 80 4a 00
        E 120 80 62 00
        E 120 90 1a 70
        E 0 90 32 70
        E 0 90 4a 70
        E 0 90 62 70
        E 120 80 1a 00
        E 0 80 32 00
        E 0 80 4a 00
        E 0 80 62 00
        E 360 90 32 70
        E 0 90 4a 70
        E 0 90 62 70
        E 120 80 32 00
        E 0 80 4a 00
        E 0 80 62 00
        E 120 90 1a 70
        E 0 90 32 70
        E 0 90 4a 70
        E 0 90 62 70
        E 960 80 1a 00
        E 120 80 32 00
        E 120 80 4a 00
        E 120 80 62 00
        <X 120 0
          /wFbZW5kX3BnIHNvbmdfdHJhaW5lcl9wZ183XQ==
        >
        E 0 90 19 73
        E 0 90 31 73
        E 0 90 49 73
        E 0 90 61 73
        E 120 80 19 00
        E 0 80 31 00
        E 0 80 49 00
        E 0 80 61 00
        E 360 90 19 73
        E 0 90 31 73
        E 0 90 49 73
        E 0 90 61 73
        E 720 80 19 00
        E 120 80 31 00
        E 120 80 49 00
        E 120 80 61 00
        E 120 90 19 73
        E 0 90 31 73
        E 0 90 49 73
        E 0 90 61 73
        E 120 80 19 00
        E 0 80 31 00
        E 0 80 49 00
        E 0 80 61 00
        E 360 90 31 73
        E 0 90 49 73
        E 0 90 61 73
        E 120 80 31 00
        E 0 80 49 00
        E 0 80 61 00
        E 120 90 19 73
        E 0 90 31 73
        E 0 90 49 73
        E 0 90 61 73
        E 960 80 19 00
        E 120 80 31 00
        E 120 80 49 00
        E 120 80 61 00
        E 120 90 19 70
        E 0 90 31 70
        E 0 90 49 70
        E 0 90 61 70
        E 120 80 19 00
        E 0 80 31 00
        E 0 80 49 00
        E 0 80 61 00
        E 360 90 19 70
        E 0 90 31 70
        E 0 90 49 70
        E 0 90 61 70
        E 720 80 19 00
        E 120 80 31 00
        E 120 80 49 00
        E 120 80 61 00
        E 120 90 19 70
        E 0 90 31 70
        E 0 90 49 70
        E 0 90 61 70
        E 120 80 19 00
        E 0 80 31 00
        E 0 80 49 00
        E 0 80 61 00
        E 360 90 31 70
        E 0 90 49 70
        E 0 90 61 70
        E 120 80 31 00
        E 0 80 49 00
        E 0 80 61 00
        E 120 90 19 70
        E 0 90 31 70
        E 0 90 49 70
        E 0 90 61 70
        E 960 80 19 00
        E 120 80 31 00
        E 120 80 49 00
        E 120 80 61 00
        E 120 90 18 73
        E 0 90 30 73
        E 0 90 48 73
        E 0 90 60 73
        E 120 80 18 00
        E 0 80 30 00
        E 0 80 48 00
        E 0 80 60 00
        E 360 90 18 73
        E 0 90 30 73
        E 0 90 48 73
        E 0 90 60 73
        E 720 80 18 00
        E 120 80 30 00
        E 120 80 48 00
        E 120 80 60 00
        E 120 90 18 73
        E 0 90 30 73
        E 0 90 48 73
        E 0 90 60 73
        E 120 80 18 00
        E 0 80 30 00
        E 0 80 48 00
        E 0 80 60 00
        E 360 90 30 73
        E 0 90 48 73
        E 0 90 60 73
        E 120 80 30 00
        E 0 80 48 00
        E 0 80 60 00
        E 120 90 18 73
        E 0 90 30 73
        E 0 90 48 73
        E 0 90 60 73
        E 960 80 18 00
        E 120 80 30 00
        E 120 80 48 00
        E 120 80 60 00
        E 120 90 1a 70
        E 0 90 32 70
        E 0 90 4a 70
        E 0 90 62 70
        E 120 80 1a 00
        E 0 80 32 00
        E 0 80 4a 00
        E 0 80 62 00
        E 360 90 1a 70
        E 0 90 32 70
        E 0 90 4a 70
        E 0 90 62 70
        E 720 80 1a 00
        E 120 80 32 00
        E 120 80 4a 00
        E 120 80 62 00
        E 120 90 1a 70
        E 0 90 32 70
        E 0 90 4a 70
        E 0 90 62 70
        E 120 80 1a 00
        E 0 80 32 00
        E 0 80 4a 00
        E 0 80 62 00
        E 360 90 32 70
        E 0 90 4a 70
        E 0 90 62 70
        E 120 80 32 00
        E 0 80 4a 00
        E 0 80 62 00
        E 120 90 1a 70
        E 0 90 32 70
        E 0 90 4a 70
        E 0 90 62 70
        E 960 80 1a 00
        E 120 80 32 00
        E 120 80 4a 00
        E 120 80 62 00
        E 120 90 19 73
        E 0 90 31 73
        E 0 90 49 73
        E 0 90 61 73
        E 120 80 19 00
        E 0 80 31 00
        E 0 80 49 00
        E 0 80 61 00
        E 360 90 19 73
        E 0 90 31 73
        E 0 90 49 73
        E 0 90 61 73
        E 720 80 19 00
        E 120 80 31 00
        E 120 80 49 00
        E 120 80 61 00
        E 120 90 19 73
        E 0 90 31 73
        E 0 90 49 73
        E 0 90 61 73
        E 120 80 19 00
        E 0 80 31 00
        E 0 80 49 00
        E 0 80 61 00
        E 360 90 31 73
        E 0 90 49 73
        E 0 90 61 73
        E 120 80 31 00
        E 0 80 49 00
        E 0 80 61 00
        E 120 90 19 73
        E 0 90 31 73
        E 0 90 49 73
        E 0 90 61 73
        E 960 80 19 00
        E 120 80 31 00
        E 120 80 49 00
        E 120 80 61 00
        E 120 90 19 70
        E 0 90 31 70
        E 0 90 49 70
        E 0 90 61 70
        E 120 80 19 00
        E 0 80 31 00
        E 0 80 49 00
        E 0 80 61 00
        E 360 90 19 70
        E 0 90 31 70
        E 0 90 49 70
        E 0 90 61 70
        E 720 80 19 00
        E 120 80 31 00
        E 120 80 49 00
        E 120 80 61 00
        E 120 90 19 70
        E 0 90 31 70
        E 0 90 49 70
        E 0 90 61 70
        E 120 80 19 00
        E 0 80 31 00
        E 0 80 49 00
        E 0 80 61 00
        E 360 90 31 70
        E 0 90 49 70
        E 0 90 61 70
        E 120 80 31 00
        E 0 80 49 00
        E 0 80 61 00
        E 120 90 19 70
        E 0 90 31 70
        E 0 90 49 70
        E 0 90 61 70
        E 960 80 19 00
        E 120 80 31 00
        E 120 80 49 00
        E 120 80 61 00
        E 120 90 1b 70
        E 0 90 33 70
        E 0 90 4b 70
        E 0 90 63 70
        E 0 90 74 64
        E 120 80 1b 00
        E 0 80 33 00
        E 0 80 4b 00
        E 0 80 63 00
        E 360 90 1b 70
        E 0 90 33 70
        E 0 90 4b 70
        E 0 90 63 70
        E 720 80 1b 00
        E 120 80 33 00
        E 120 80 4b 00
        E 120 80 63 00
        E 120 90 1b 70
        E 0 90 33 70
        E 0 90 4b 70
        E 0 90 63 70
        E 120 80 1b 00
        E 0 80 33 00
        E 0 80 4b 00
        E 0 80 63 00
        E 360 90 33 70
        E 0 90 4b 70
        E 0 90 63 70
        E 120 80 33 00
        E 0 80 4b 00
        E 0 80 63 00
        E 120 90 1b 70
        E 0 90 33 70
        E 0 90 4b 70
        E 0 90 63 70
        E 960 80 1b 00
        E 120 80 33 00
        E 120 80 4b 00
        E 120 80 63 00
        E 120 90 1c 73
        E 0 90 34 73
        E 0 90 4c 73
        E 0 90 64 73
        E 120 80 74 00
        E 0 80 1c 00
        E 0 80 34 00
        E 0 80 4c 00
        E 0 80 64 00
        E 360 90 1c 73
        E 0 90 34 73
        E 0 90 4c 73
        E 0 90 64 73
        E 720 80 1c 00
        E 120 80 34 00
        E 120 80 4c 00
        E 120 80 64 00
        E 120 90 1c 73
        E 0 90 34 73
        E 0 90 4c 73
        E 0 90 64 73
        E 120 80 1c 00
        E 0 80 34 00
        E 0 80 4c 00
        E 0 80 64 00
        E 360 90 34 73
        E 0 90 4c 73
        E 0 90 64 73
        E 120 80 34 00
        E 0 80 4c 00
        E 0 80 64 00
        E 120 90 1c 73
        E 0 90 34 73
        E 0 90 4c 73
        E 0 90 64 73
        E 960 80 1c 00
        E 120 80 34 00
        E 120 80 4c 00
        E 120 80 64 00
        <X 120 0
          /wFbYmVnaW5fcGcgc29uZ190cmFpbmVyX3BnXzhd
        >
        E 0 90 19 73
        E 0 90 31 73
        E 0 90 49 73
        E 0 90 61 73
        E 1440 80 19 00
        E 120 80 31 00
        E 120 80 49 00
        E 120 80 61 00
        E 120 90 1a 70
        E 0 90 32 70
        E 0 90 4a 70
        E 0 90 62 70
        E 1200 80 1a 00
        E 120 80 32 00
        E 120 80 4a 00
        E 120 80 62 00
        E 120 90 18 73
        E 0 90 30 73
        E 0 90 48 73
        E 0 90 60 73
        <X 240 0
          /wFbcGdfbm9ybSBzb25nX3RyYWluZXJfcGdfOF0=
        >
        E 2400 80 18 00
        E 120 80 30 00
        E 120 80 48 00
        E 120 80 60 00
        E 120 90 18 70
        E 0 90 30 70
        E 0 90 48 70
        E 0 90 60 70
        E 120 80 18 00
        E 480 80 30 00
        E 120 80 48 00
        E 120 80 60 00
        E 120 90 19 70
        E 0 90 31 70
        E 0 90 49 70
        E 0 90 61 70
        E 3120 80 19 00
        E 120 80 31 00
        E 120 80 49 00
        E 120 80 61 00
        E 120 90 18 70
        E 0 90 30 70
        E 0 90 48 70
        E 0 90 60 70
        E 1440 80 18 00
        E 120 80 30 00
        E 120 80 48 00
        E 120 80 60 00
        E 120 90 18 6e
        E 0 90 30 6e
        E 0 90 48 6e
        E 0 90 60 6e
        E 0 90 6c 6b
        E 120 80 6c 00
        E 1560 80 18 00
        E 120 80 30 00
        E 120 80 48 00
        E 120 80 60 00
        <X 120 0
          /wFbZW5kX3BnIHNvbmdfdHJhaW5lcl9wZ184XQ==
        >
        <X 0 0
          /wFbYmVnaW5fcGcgc29uZ190cmFpbmVyX3BnXzld
        >
        E 0 90 18 6c
        E 0 90 30 6c
        E 0 90 48 6c
        E 0 90 60 6c
        E 0 90 74 64
        E 1440 80 18 00
        E 120 80 30 00
        E 120 80 48 00
        E 120 80 60 00
        E 120 90 18 6e
        E 0 90 30 6e
        E 0 90 48 6e
        E 0 90 60 6e
        E 1200 80 18 00
        E 120 80 30 00
        E 120 80 48 00
        E 120 80 60 00
        E 120 90 19 6e
        E 0 90 31 6e
        E 0 90 49 6e
        E 0 90 61 6e
        <X 240 0
          /wFbcGdfbm9ybSBzb25nX3RyYWluZXJfcGdfOV0=
        >
        E 0 80 74 00
        E 2400 80 19 00
        E 120 80 31 00
        E 120 80 49 00
        E 120 80 61 00
        E 120 90 1b 6d
        E 0 90 33 6d
        E 0 90 4b 6d
        E 0 90 63 6d
        E 120 80 1b 00
        E 480 80 33 00
        E 120 80 4b 00
        E 120 80 63 00
        E 120 90 1c 6e
        E 0 90 34 6e
        E 0 90 4c 6e
        E 0 90 64 6e
        E 3120 80 1c 00
        E 120 80 34 00
        E 120 80 4c 00
        E 120 80 64 00
        E 120 90 1b 6d
        E 0 90 33 6d
        E 0 90 4b 6d
        E 0 90 63 6d
        E 1440 80 1b 00
        E 120 80 33 00
        E 120 80 4b 00
        E 120 80 63 00
        E 120 90 1b 6b
        E 0 90 33 6b
        E 0 90 4b 6b
        E 0 90 63 6b
        E 1680 80 1b 00
        E 120 80 33 00
        E 120 80 4b 00
        E 120 80 63 00
        <X 120 0
          /wFbZW5kX3BnIHNvbmdfdHJhaW5lcl9wZ185XQ==
        >
        <X 0 0
          /wFbYmVnaW5fcGcgc29uZ190cmFpbmVyX3BnXzEwXQ==
        >
        E 0 90 1a 6e
        E 0 90 32 6e
        E 0 90 4a 6e
        E 0 90 62 6e
        <X 1920 0
          /wFbcGdfbm9ybSBzb25nX3RyYWluZXJfcGdfMTBd
        >
        E 1440 80 1a 00
        E 120 80 32 00
        E 120 80 4a 00
        E 120 80 62 00
        E 120 90 1b 6d
        E 0 90 33 6d
        E 0 90 4b 6d
        E 0 90 63 6d
        E 1200 80 1b 00
        E 120 80 33 00
        E 120 80 4b 00
        E 120 80 63 00
        E 120 90 19 6b
        E 0 90 31 6b
        E 0 90 49 6b
        E 0 90 61 6b
        E 120 80 19 00
        E 0 80 31 00
        E 0 80 49 00
        E 0 80 61 00
        E 360 90 31 6e
        E 0 90 49 6e
        E 0 90 61 6e
        E 120 80 31 00
        E 0 80 49 00
        E 0 80 61 00
        E 360 90 19 6b
        E 0 90 31 6b
        E 0 90 49 6b
        E 0 90 61 6b
        E 120 80 19 00
        E 0 80 31 00
        E 0 80 49 00
        E 0 80 61 00
        E 360 90 30 6e
        E 0 90 48 6e
        E 0 90 60 6e
        E 120 80 30 00
        E 0 80 48 00
        E 0 80 60 00
        <X 600 0
          /wFbZW5kX3BnIHNvbmdfdHJhaW5lcl9wZ18xMF0=
        >
        E 0 90 1a 6e
        E 0 90 32 6e
        E 0 90 4a 6e
        E 0 90 62 6e
        E 3360 80 1a 00
        E 120 80 32 00
        E 120 80 4a 00
        E 120 80 62 00
        E 120 90 1b 6d
        E 0 90 33 6d
        E 0 90 4b 6d
        E 0 90 63 6d
        E 1200 80 1b 00
        E 120 80 33 00
        E 120 80 4b 00
        E 120 80 63 00
        E 120 90 19 6b
        E 0 90 31 6b
        E 0 90 49 6b
        E 0 90 61 6b
        E 120 80 19 00
        E 0 80 31 00
        E 0 80 49 00
        E 0 80 61 00
        E 360 90 31 6e
        E 0 90 49 6e
        E 0 90 61 6e
        E 120 80 31 00
        E 0 80 49 00
        E 0 80 61 00
        E 360 90 19 6b
        E 0 90 31 6b
        E 0 90 49 6b
        E 0 90 61 6b
        E 120 80 19 00
        E 0 80 31 00
        E 0 80 49 00
        E 0 80 61 00
        E 360 90 30 6e
        E 0 90 48 6e
        E 0 90 60 6e
        E 1320 80 30 00
        E 120 80 48 00
        E 120 80 60 00
        <X 120 0
          /wFbYmVnaW5fcGcgc29uZ190cmFpbmVyX3BnXzExXQ==
        >
        E 0 90 1c 73
        E 0 90 34 73
        E 0 90 4c 73
        E 0 90 64 73
        E 0 90 6c 70
        E 120 80 1c 00
        E 0 80 34 00
        E 0 80 4c 00
        E 0 80 64 00
        E 0 80 6c 00
        E 120 90 4c 71
        E 0 90 64 71
        E 120 80 4c 00
        E 0 80 64 00
        E 120 90 1c 73
        E 0 90 34 73
        E 0 90 4c 73
        E 0 90 64 73
        E 120 80 1c 00
        E 0 80 34 00
        E 0 80 4c 00
        E 0 80 64 00
        E 120 90 4d 70
        E 0 90 65 70
        E 120 80 4d 00
        E 0 80 65 00
        E 360 90 4c 73
        E 0 90 64 73
        E 120 80 4c 00
        E 0 80 64 00
        E 120 90 35 70
        E 0 90 4d 70
        E 0 90 65 70
        E 120 80 35 00
        E 0 80 4d 00
        E 0 80 65 00
        E 120 90 4c 73
        E 0 90 64 73
        E 120 80 4c 00
        E 0 80 64 00
        E 120 90 1d 73
        E 0 90 35 73
        E 0 90 4d 73
        E 0 90 65 73
        E 120 80 1d 00
        E 0 80 35 00
        E 0 80 4d 00
        E 0 80 65 00
        E 120 90 4d 70
        E 0 90 65 70
        E 120 80 4d 00
        E 0 80 65 00
        E 120 90 34 73
        E 0 90 4c 73
        E 0 90 64 73
        E 120 80 34 00
        E 0 80 4c 00
        E 0 80 64 00
        E 120 90 4c 71
        E 0 90 64 71
        E 120 80 4c 00
        E 0 80 64 00
        E 360 90 4a 6e
        E 0 90 62 6e
        E 0 90 6c 6d
        E 120 80 4a 00
        E 0 80 62 00
        E 0 80 6c 00
        E 120 90 1a 70
        E 0 90 32 70
        E 0 90 4a 70
        E 0 90 62 70
        E 120 80 1a 00
        E 0 80 32 00
        E 0 80 4a 00
        E 0 80 62 00
        E 120 90 4a 6e
        E 0 90 62 6e
        E 120 80 4a 00
        E 0 80 62 00
        E 120 90 1a 70
        E 0 90 32 70
        E 0 90 4a 70
        E 0 90 62 70
        E 120 80 1a 00
        E 0 80 32 00
        E 0 80 4a 00
        E 0 80 62 00
        E 120 90 4a 6e
        E 0 90 62 6e
        E 120 80 4a 00
        E 0 80 62 00
        E 120 90 1a 70
        E 0 90 32 70
        E 0 90 4a 70
        E 0 90 62 70
        E 120 80 1a 00
        E 0 80 32 00
        E 0 80 4a 00
        E 0 80 62 00
        E 120 90 4b 6d
        E 0 90 63 6d
        E 120 80 4b 00
        E 0 80 63 00
        E 360 90 33 70
        E 0 90 4b 70
        E 0 90 63 70
        E 120 80 33 00
        E 0 80 4b 00
        E 0 80 63 00
        E 360 90 1b 6d
        E 0 90 33 6d
        E 0 90 4b 6d
        E 0 90 63 6d
        E 120 80 1b 00
        E 0 80 33 00
        E 0 80 4b 00
        E 0 80 63 00
        E 360 90 32 70
        E 0 90 4a 70
        E 0 90 62 70
        E 1320 80 32 00
        E 120 80 4a 00
        E 120 80 62 00
        E 120 90 1c 73
        E 0 90 34 73
        E 0 90 4c 73
        E 0 90 64 73
        E 0 90 6c 70
        E 120 80 1c 00
        E 0 80 34 00
        E 0 80 4c 00
        E 0 80 64 00
        E 0 80 6c 00
        E 120 90 4c 71
        E 0 90 64 71
        E 120 80 4c 00
        E 0 80 64 00
        E 120 90 1c 73
        E 0 90 34 73
        E 0 90 4c 73
        E 0 90 64 73
        E 120 80 1c 00
        E 0 80 34 00
        E 0 80 4c 00
        E 0 80 64 00
        E 120 90 4d 70
        E 0 90 65 70
        E 120 80 4d 00
        E 0 80 65 00
        E 360 90 4c 73
        E 0 90 64 73
        E 120 80 4c 00
        E 0 80 64 00
        E 120 90 35 70
        E 0 90 4d 70
        E 0 90 65 70
        E 120 80 35 00
        E 0 80 4d 00
        E 0 80 65 00
        E 120 90 4c 73
        E 0 90 64 73
        E 0 90 6c 73
        E 120 80 4c 00
        E 0 80 64 00
        E 0 80 6c 00
        E 120 90 1d 73
        E 0 90 35 73
        E 0 90 4d 73
        E 0 90 65 73
        E 120 80 1d 00
        E 0 80 35 00
        E 0 80 4d 00
        E 0 80 65 00
        E 120 90 4c 75
        E 0 90 64 75
        E 120 80 4c 00
        E 0 80 64 00
        E 120 90 1d 73
        E 0 90 35 73
        E 0 90 4d 73
        E 0 90 65 73
        E 120 80 1d 00
        E 0 80 35 00
        E 0 80 4d 00
        E 0 80 65 00
        E 120 90 35 75
        E 0 90 4d 75
        E 0 90 65 75
        E 120 80 35 00
        E 0 80 4d 00
        E 0 80 65 00
        E 360 90 4a 6e
        E 0 90 62 6e
        E 0 90 6c 6d
        E 120 80 4a 00
        E 0 80 62 00
        E 0 80 6c 00
        E 120 90 1a 70
        E 0 90 32 70
        E 0 90 4a 70
        E 0 90 62 70
        E 120 80 1a 00
        E 0 80 32 00
        E 0 80 4a 00
        E 0 80 62 00
        E 120 90 4a 6e
        E 0 90 62 6e
        E 120 80 4a 00
        E 0 80 62 00
        E 120 90 1a 70
        E 0 90 32 70
        E 0 90 4a 70
        E 0 90 62 70
        E 120 80 1a 00
        E 0 80 32 00
        E 0 80 4a 00
        E 0 80 62 00
        E 120 90 4a 6e
        E 0 90 62 6e
        E 120 80 4a 00
        E 0 80 62 00
        E 120 90 1a 70
        E 0 90 32 70
        E 0 90 4a 70
        E 0 90 62 70
        E 120 80 1a 00
        E 0 80 32 00
        E 0 80 4a 00
        E 0 80 62 00
        E 120 90 4b 6d
        E 0 90 63 6d
        E 120 80 4b 00
        E 0 80 63 00
        E 360 90 33 70
        E 0 90 4b 70
        E 0 90 63 70
        E 120 80 33 00
        E 0 80 4b 00
        E 0 80 63 00
        E 360 90 1b 6d
        E 0 90 33 6d
        E 0 90 4b 6d
        E 0 90 63 6d
        E 120 80 1b 00
        E 0 80 33 00
        E 0 80 4b 00
        E 0 80 63 00
        E 360 90 32 70
        E 0 90 4a 70
        E 0 90 62 70
        E 120 80 32 00
        E 0 80 4a 00
        E 0 80 62 00
        E 600 90 1c 71
        E 0 90 34 71
        E 0 90 4c 71
        E 0 90 64 71
        E 0 90 6c 71
        E 120 80 6c 00
        E 4200 80 1c 00
        E 0 80 34 00
        E 0 80 4c 00
        E 0 80 64 00
        <X 479 0
          /wFbZW5kX3BnIHNvbmdfdHJhaW5lcl9wZ18xMV0=
        >
        E 8640 b0 7b 00
        GUID {FD683CC0-DFB6-4BE9-BB07-DA685B0272E3}
        IGNTEMPO 0 120.00000000 4 4
        SRCCOLOR 7
        VELLANE 132 71 60
        COLORMAP "C:\Program Files\REAPER (x64)\Data\color_maps\rockband_guitarbass.png"
        CFGEDITVIEW 0.000000 2.810962 7 12 0 0 0
        CFGEDIT 1 1 0 1 1 0 1 1 1 1 1 0.25000000 100 100 1200 800 0 2 2 1 0.00000000 0 1 0 0 0.500000 0 0 1.000000 64
        KEYSNAP 0 6 "102030050700" 0 "Pentatonic"
        EVTFILTER 0 -1 -1 -1 -1 0 1 0 0 -1.00000000 -1.00000000
      >
    >
  >
  <TRACK '{97525C0F-45BE-4AF5-9CA3-449833417B2A}'
    NAME "EVENTS"
    PEAKCOL 16576
    BEAT -1
    AUTOMODE 0
    VOLPAN 1.00000000000000 0.00000000000000 -1.00000000000000 -1.00000000000000 1.00000000000000
    MUTESOLO 0 0 0
    IPHASE 0
    ISBUS 0 0
    BUSCOMP 0 0
    SHOWINMIX 1 0.666700 0.500000 1 0.500000 -1 -1 -1
    FREEMODE 0
    SEL 0
    REC 0 0 0 0 0 0 0
    VU 2
    TRACKHEIGHT 0 0
    INQ 0 0 0 0.5000000000 100 0 0 100
    NCHAN 2
    FX 1
    TRACKID {97525C0F-45BE-4AF5-9CA3-449833417B2A}
    PERF 0
    MIDIOUT -1
    <MIDINOTENAMES
      0 26 "Hi-Hat"
      0 25 "Snare"
      0 24 "Kick"
    >
    MAINSEND 1 0
    <FXCHAIN
      SHOW 0
      LASTSEL 0
      DOCKED 0
    >
    <ITEM
      POSITION 0.00000000000000
      SNAPOFFS 0.00000000000000
      LENGTH 249.33300000000000
      LOOP 0
      ALLTAKES 0
      SEL 0
      FADEIN 1 0.000000 0.000000 1 0
      FADEOUT 1 0.000000 0.000000 1 0
      MUTE 0
      IGUID {D460E55D-B75D-41E5-9D26-CFB11EEED2D4}
      IID 13
      NAME "EVENTS"
      VOLPAN 1.000000 0.000000 1.000000 -1.000000
      SOFFS 0.00000000000000 0.00000000000000
      PLAYRATE 1.00000000000000 1 0.00000000000000 -1
      CHANMODE 0
      GUID {8437FB8F-0AFF-422A-915E-2E385D054417}
      <SOURCE MIDI
        HASDATA 1 480 QN
        POOLEDEVTS {B98074B4-A6AB-4886-976E-CF68F08F8621}
        <X 0 0
          /wNFVkVOVFM=
        >
        E 0 90 1a 60
        E 120 80 1a 00
        E 1800 90 1a 60
        E 120 80 1a 00
        E 1800 90 1a 60
        E 120 80 1a 00
        E 840 90 1a 60
        E 120 80 1a 00
        <X 840 0
          /wFbY3Jvd2Rfbm9ybWFsXQ==
        >
        <X 0 0
          /wFbcHJjX2ludHJvXQ==
        >
        <X 0 0
          /wFbY3Jvd2Rfbm9jbGFwXQ==
        >
        E 0 90 1a 60
        E 120 80 1a 00
        E 360 90 1a 60
        E 120 80 1a 00
        E 360 90 1a 60
        E 120 80 1a 00
        E 360 90 1a 60
        E 120 80 1a 00
        E 360 90 18 60
        E 0 90 1a 60
        E 120 80 18 00
        E 0 80 1a 00
        E 360 90 18 60
        E 0 90 1a 60
        E 120 80 18 00
        E 0 80 1a 00
        E 360 90 18 60
        E 0 90 1a 60
        E 120 80 18 00
        E 0 80 1a 00
        <X 360 0
          /wFbbXVzaWNfc3RhcnRd
        >
        E 0 90 18 60
        E 0 90 1a 60
        E 120 80 18 00
        E 0 80 1a 00
        E 360 90 18 60
        E 0 90 1a 60
        E 120 80 18 00
        E 0 80 1a 00
        E 360 90 18 60
        E 0 90 1a 60
        E 120 80 18 00
        E 0 80 1a 00
        E 360 90 18 60
        E 0 90 1a 60
        E 120 80 18 00
        E 0 80 1a 00
        E 360 90 18 60
        E 0 90 1a 60
        E 120 80 18 00
        E 0 80 1a 00
        E 120 90 18 60
        E 120 80 18 00
        E 120 90 18 60
        E 0 90 1a 60
        E 120 80 18 00
        E 0 80 1a 00
        E 360 90 19 60
        E 0 90 1a 60
        E 120 80 19 00
        E 0 80 1a 00
        E 360 90 18 60
        E 0 90 1a 60
        E 120 80 18 00
        E 0 80 1a 00
        E 120 90 18 60
        E 120 80 18 00
        E 120 90 19 60
        E 0 90 1a 60
        E 120 80 19 00
        E 0 80 1a 00
        E 120 90 18 60
        E 120 80 18 00
        E 120 90 1a 60
        E 120 80 1a 00
        E 120 90 18 60
        E 120 80 18 00
        E 120 90 19 60
        E 0 90 1a 60
        E 120 80 19 00
        E 0 80 1a 00
        E 360 90 18 60
        E 0 90 1a 60
        E 120 80 18 00
        E 0 80 1a 00
        E 120 90 18 60
        E 120 80 18 00
        E 120 90 19 60
        E 0 90 1a 60
        E 120 80 19 00
        E 0 80 1a 00
        E 120 90 19 60
        E 120 80 19 00
        E 120 90 18 60
        E 0 90 1a 60
        E 120 80 18 00
        E 0 80 1a 00
        E 360 90 18 60
        E 0 90 1a 60
        E 120 80 18 00
        E 0 80 1a 00
        E 360 90 18 60
        E 0 90 1a 60
        E 120 80 18 00
        E 0 80 1a 00
        E 360 90 18 60
        E 0 90 1a 60
        E 120 80 18 00
        E 0 80 1a 00
        E 360 90 18 60
        E 0 90 1a 60
        E 120 80 18 00
        E 0 80 1a 00
        E 360 90 18 60
        E 0 90 1a 60
        E 120 80 18 00
        E 0 80 1a 00
        E 360 90 18 60
        E 0 90 1a 60
        E 120 80 18 00
        E 0 80 1a 00
        E 360 90 18 60
        E 0 90 1a 60
        E 120 80 18 00
        E 0 80 1a 00
        E 120 90 18 60
        E 120 80 18 00
        E 120 90 18 60
        E 0 90 1a 60
        E 120 80 18 00
        E 0 80 1a 00
        E 360 90 19 60
        E 0 90 1a 60
        E 120 80 19 00
        E 0 80 1a 00
        E 360 90 18 60
        E 0 90 1a 60
        E 120 80 18 00
        E 0 80 1a 00
        E 120 90 18 60
        E 120 80 18 00
        E 120 90 19 60
        E 0 90 1a 60
        E 120 80 19 00
        E 0 80 1a 00
        E 120 90 18 60
        E 120 80 18 00
        E 120 90 1a 60
        E 120 80 1a 00
        E 120 90 18 60
        E 120 80 18 00
        E 120 90 19 60
        E 0 90 1a 60
        E 120 80 19 00
        E 0 80 1a 00
        E 360 90 18 60
        E 0 90 1a 60
        E 120 80 18 00
        E 0 80 1a 00
        E 120 90 18 60
        E 120 80 18 00
        E 120 90 19 60
        E 120 80 19 00
        E 0 90 19 60
        E 120 80 19 00
        E 0 90 19 60
        E 120 80 19 00
        E 0 90 19 60
        <X 120 0
          /wFbcHJjX3ZlcnNlXzFhXQ==
        >
        <X 0 0
          /wFbY3Jvd2RfaW50ZW5zZV0=
        >
        E 0 80 19 00
        E 0 90 18 60
        E 0 90 1a 60
        E 120 80 18 00
        E 0 80 1a 00
        E 120 90 18 60
        E 120 80 18 00
        E 120 90 19 60
        E 0 90 1a 60
        E 120 80 19 00
        E 0 80 1a 00
        E 360 90 18 60
        E 0 90 1a 60
        E 120 80 18 00
        E 0 80 1a 00
        E 120 90 18 60
        E 120 80 18 00
        E 120 90 19 60
        E 0 90 1a 60
        E 120 80 19 00
        E 0 80 1a 00
        E 120 90 18 60
        E 120 80 18 00
        E 120 90 18 60
        E 0 90 1a 60
        E 120 80 18 00
        E 0 80 1a 00
        E 120 90 18 60
        E 120 80 18 00
        E 120 90 19 60
        E 0 90 1a 60
        E 120 80 19 00
        E 0 80 1a 00
        E 360 90 18 60
        E 0 90 1a 60
        E 120 80 18 00
        E 0 80 1a 00
        E 120 90 18 60
        E 120 80 18 00
        E 120 90 19 60
        E 0 90 1a 60
        E 120 80 19 00
        E 0 80 1a 00
        E 120 90 18 60
        E 120 80 18 00
        E 120 90 18 60
        E 0 90 1a 60
        E 120 80 18 00
        E 0 80 1a 00
        E 360 90 19 60
        E 0 90 1a 60
        E 120 80 19 00
        E 0 80 1a 00
        E 120 90 18 60
        E 120 80 18 00
        E 120 90 18 60
        E 0 90 1a 60
        E 120 80 18 00
        E 0 80 1a 00
        E 120 90 18 60
        E 120 80 18 00
        E 120 90 19 60
        E 0 90 1a 60
        E 120 80 19 00
        E 0 80 1a 00
        E 360 90 18 60
        E 0 90 1a 60
        E 120 80 18 00
        E 0 80 1a 00
        E 120 90 18 60
        E 120 80 18 00
        E 120 90 19 60
        E 0 90 1a 60
        E 120 80 19 00
        E 0 80 1a 00
        E 120 90 18 60
        E 120 80 18 00
        E 120 90 1a 60
        E 120 80 1a 00
        E 120 90 18 60
        E 120 80 18 00
        E 120 90 19 60
        E 120 80 19 00
        E 0 90 19 60
        E 120 80 19 00
        E 0 90 19 60
        E 120 80 19 00
        E 0 90 19 60
        E 120 80 19 00
        E 0 90 18 60
        E 0 90 1a 60
        E 120 80 18 00
        E 0 80 1a 00
        E 120 90 18 60
        E 120 80 18 00
        E 120 90 19 60
        E 0 90 1a 60
        E 120 80 19 00
        E 0 80 1a 00
        E 360 90 18 60
        E 0 90 1a 60
        E 120 80 18 00
        E 0 80 1a 00
        E 120 90 18 60
        E 120 80 18 00
        E 120 90 19 60
        E 0 90 1a 60
        E 120 80 19 00
        E 0 80 1a 00
        E 120 90 18 60
        E 120 80 18 00
        E 120 90 18 60
        E 0 90 1a 60
        E 120 80 18 00
        E 0 80 1a 00
        E 120 90 18 60
        E 120 80 18 00
        E 120 90 19 60
        E 0 90 1a 60
        E 120 80 19 00
        E 0 80 1a 00
        E 360 90 18 60
        E 0 90 1a 60
        E 120 80 18 00
        E 0 80 1a 00
        E 120 90 18 60
        E 120 80 18 00
        E 120 90 19 60
        E 0 90 1a 60
        E 120 80 19 00
        E 0 80 1a 00
        E 120 90 18 60
        E 120 80 18 00
        E 120 90 18 60
        E 0 90 1a 60
        E 120 80 18 00
        E 0 80 1a 00
        E 360 90 19 60
        E 0 90 1a 60
        E 120 80 19 00
        E 0 80 1a 00
        E 120 90 18 60
        E 120 80 18 00
        E 120 90 18 60
        E 0 90 1a 60
        E 120 80 18 00
        E 0 80 1a 00
        E 120 90 18 60
        E 120 80 18 00
        E 120 90 19 60
        E 0 90 1a 60
        E 120 80 19 00
        E 0 80 1a 00
        E 360 90 18 60
        E 0 90 1a 60
        E 120 80 18 00
        E 0 80 1a 00
        E 120 90 18 60
        E 120 80 18 00
        E 120 90 19 60
        E 0 90 1a 60
        E 120 80 19 00
        E 0 80 1a 00
        E 120 90 18 60
        E 120 80 18 00
        E 120 90 1a 60
        E 120 80 1a 00
        E 120 90 18 60
        E 120 80 18 00
        E 120 90 19 60
        E 120 80 19 00
        E 0 90 19 60
        E 120 80 19 00
        E 0 90 19 60
        E 120 80 19 00
        E 0 90 19 60
        E 120 80 19 00
        E 0 90 18 60
        E 0 90 1a 60
        E 120 80 18 00
        E 0 80 1a 00
        E 120 90 18 60
        E 120 80 18 00
        E 120 90 19 60
        E 0 90 1a 60
        E 120 80 19 00
        E 0 80 1a 00
        E 360 90 18 60
        E 0 90 1a 60
        E 120 80 18 00
        E 0 80 1a 00
        E 120 90 18 60
        E 120 80 18 00
        E 120 90 19 60
        E 0 90 1a 60
        E 120 80 19 00
        E 0 80 1a 00
        E 120 90 18 60
        E 120 80 18 00
        E 120 90 18 60
        E 0 90 1a 60
        E 120 80 18 00
        E 0 80 1a 00
        E 120 90 18 60
        E 120 80 18 00
        E 120 90 19 60
        E 0 90 1a 60
        E 120 80 19 00
        E 0 80 1a 00
        E 360 90 18 60
        E 0 90 1a 60
        E 120 80 18 00
        E 0 80 1a 00
        E 120 90 18 60
        E 120 80 18 00
        E 120 90 19 60
        E 0 90 1a 60
        E 120 80 19 00
        E 0 80 1a 00
        E 120 90 18 60
        E 120 80 18 00
        E 120 90 18 60
        E 0 90 1a 60
        E 120 80 18 00
        E 0 80 1a 00
        E 360 90 19 60
        E 0 90 1a 60
        E 120 80 19 00
        E 0 80 1a 00
        E 120 90 18 60
        E 120 80 18 00
        E 120 90 18 60
        E 0 90 1a 60
        E 120 80 18 00
        E 0 80 1a 00
        E 120 90 18 60
        E 120 80 18 00
        E 120 90 19 60
        E 0 90 1a 60
        E 120 80 19 00
        E 0 80 1a 00
        E 360 90 18 60
        E 0 90 1a 60
        E 120 80 18 00
        E 0 80 1a 00
        E 120 90 18 60
        E 120 80 18 00
        E 120 90 19 60
        E 0 90 1a 60
        E 120 80 19 00
        E 0 80 1a 00
        E 120 90 18 60
        E 120 80 18 00
        E 120 90 1a 60
        E 120 80 1a 00
        E 120 90 18 60
        E 120 80 18 00
        E 120 90 19 60
        E 120 80 19 00
        E 0 90 19 60
        E 120 80 19 00
        E 0 90 19 60
        E 120 80 19 00
        E 0 90 19 60
        E 120 80 19 00
        E 0 90 18 60
        E 0 90 1a 60
        E 120 80 18 00
        E 0 80 1a 00
        E 120 90 18 60
        E 120 80 18 00
        E 120 90 19 60
        E 0 90 1a 60
        E 120 80 19 00
        E 0 80 1a 00
        E 360 90 18 60
        E 0 90 1a 60
        E 120 80 18 00
        E 0 80 1a 00
        E 120 90 18 60
        E 120 80 18 00
        E 120 90 19 60
        E 0 90 1a 60
        E 120 80 19 00
        E 0 80 1a 00
        E 120 90 18 60
        E 120 80 18 00
        E 120 90 18 60
        E 0 90 1a 60
        E 120 80 18 00
        E 0 80 1a 00
        E 120 90 18 60
        E 120 80 18 00
        E 120 90 19 60
        E 0 90 1a 60
        E 120 80 19 00
        E 0 80 1a 00
        E 360 90 18 60
        E 0 90 1a 60
        E 120 80 18 00
        E 0 80 1a 00
        E 120 90 18 60
        E 120 80 18 00
        E 120 90 19 60
        E 0 90 1a 60
        E 120 80 19 00
        E 0 80 1a 00
        E 120 90 18 60
        E 120 80 18 00
        E 120 90 18 60
        E 0 90 1a 60
        E 120 80 18 00
        E 0 80 1a 00
        E 360 90 19 60
        E 0 90 1a 60
        E 120 80 19 00
        E 0 80 1a 00
        E 120 90 18 60
        E 120 80 18 00
        E 120 90 18 60
        E 0 90 1a 60
        E 120 80 18 00
        E 0 80 1a 00
        E 120 90 18 60
        E 120 80 18 00
        E 120 90 19 60
        E 0 90 1a 60
        E 120 80 19 00
        E 0 80 1a 00
        E 360 90 18 60
        E 0 90 1a 60
        E 120 80 18 00
        E 0 80 1a 00
        E 120 90 18 60
        E 120 80 18 00
        E 120 90 19 60
        E 0 90 1a 60
        E 120 80 19 00
        E 0 80 1a 00
        E 120 90 18 60
        E 120 80 18 00
        E 120 90 1a 60
        E 120 80 1a 00
        E 120 90 18 60
        E 120 80 18 00
        E 120 90 19 60
        E 120 80 19 00
        E 0 90 19 60
        E 120 80 19 00
        E 0 90 19 60
        E 120 80 19 00
        E 0 90 19 60
        <X 120 0
          /wFbcHJjX3ZlcnNlXzFiXQ==
        >
        <X 0 0
          /wFbY3Jvd2Rfbm9ybWFsXQ==
        >
        E 0 80 19 00
        E 0 90 18 60
        E 0 90 1a 60
        E 120 80 18 00
        E 0 80 1a 00
        E 360 90 19 60
        E 0 90 1a 60
        E 120 80 19 00
        E 0 80 1a 00
        E 360 90 18 60
        E 0 90 1a 60
        E 120 80 18 00
        E 0 80 1a 00
        E 120 90 18 60
        E 120 80 18 00
        E 120 90 19 60
        E 0 90 1a 60
        E 120 80 19 00
        E 0 80 1a 00
        E 360 90 18 60
        E 0 90 1a 60
        E 120 80 18 00
        E 0 80 1a 00
        E 360 90 19 60
        E 0 90 1a 60
        E 120 80 19 00
        E 0 80 1a 00
        E 120 90 18 60
        E 120 80 18 00
        E 120 90 1a 60
        E 120 80 1a 00
        E 120 90 18 60
        E 120 80 18 00
        E 120 90 19 60
        E 0 90 1a 60
        E 120 80 19 00
        E 0 80 1a 00
        E 120 90 18 60
        E 120 80 18 00
        E 120 90 1a 60
        E 120 80 1a 00
        E 120 90 18 60
        E 120 80 18 00
        E 120 90 19 60
        E 0 90 1a 60
        E 120 80 19 00
        E 0 80 1a 00
        E 120 90 18 60
        E 120 80 18 00
        E 120 90 18 60
        E 0 90 1a 60
        E 120 80 18 00
        E 0 80 1a 00
        E 120 90 18 60
        E 120 80 18 00
        E 120 90 19 60
        E 0 90 1a 60
        E 120 80 19 00
        E 0 80 1a 00
        E 360 90 18 60
        E 0 90 1a 60
        E 120 80 18 00
        E 0 80 1a 00
        E 120 90 18 60
        E 120 80 18 00
        E 120 90 19 60
        E 0 90 1a 60
        E 120 80 19 00
        E 0 80 1a 00
        E 120 90 18 60
        E 120 80 18 00
        E 120 90 1a 60
        E 120 80 1a 00
        E 120 90 18 60
        E 120 80 18 00
        E 120 90 19 60
        E 0 90 1a 60
        E 120 80 19 00
        E 0 80 1a 00
        E 120 90 19 60
        E 120 80 19 00
        E 120 90 18 60
        E 0 90 1a 60
        E 120 80 18 00
        E 0 80 1a 00
        E 360 90 19 60
        E 0 90 1a 60
        E 120 80 19 00
        E 0 80 1a 00
        E 360 90 18 60
        E 0 90 1a 60
        E 120 80 18 00
        E 0 80 1a 00
        E 120 90 18 60
        E 120 80 18 00
        E 120 90 19 60
        E 0 90 1a 60
        E 120 80 19 00
        E 0 80 1a 00
        E 360 90 18 60
        E 0 90 1a 60
        E 120 80 18 00
        E 0 80 1a 00
        E 360 90 19 60
        E 0 90 1a 60
        E 120 80 19 00
        E 0 80 1a 00
        E 120 90 18 60
        E 120 80 18 00
        E 120 90 1a 60
        E 120 80 1a 00
        E 120 90 18 60
        E 120 80 18 00
        E 120 90 19 60
        E 0 90 1a 60
        E 120 80 19 00
        E 0 80 1a 00
        E 120 90 18 60
        E 120 80 18 00
        E 120 90 1a 60
        E 120 80 1a 00
        E 120 90 18 60
        E 120 80 18 00
        E 120 90 19 60
        E 0 90 1a 60
        E 120 80 19 00
        E 0 80 1a 00
        E 120 90 18 60
        E 120 80 18 00
        E 120 90 18 60
        E 0 90 1a 60
        E 120 80 18 00
        E 0 80 1a 00
        E 120 90 18 60
        E 120 80 18 00
        E 120 90 19 60
        E 0 90 1a 60
        E 120 80 19 00
        E 0 80 1a 00
        E 360 90 18 60
        E 0 90 1a 60
        E 120 80 18 00
        E 0 80 1a 00
        E 120 90 18 60
        E 120 80 18 00
        E 120 90 19 60
        E 0 90 1a 60
        E 120 80 19 00
        E 0 80 1a 00
        E 120 90 18 60
        E 120 80 18 00
        E 120 90 1a 60
        E 120 80 1a 00
        E 120 90 18 60
        E 120 80 18 00
        E 120 90 19 60
        E 0 90 1a 60
        E 120 80 19 00
        E 0 80 1a 00
        E 120 90 19 60
        E 120 80 19 00
        E 120 90 18 60
        E 0 90 1a 60
        E 120 80 18 00
        E 0 80 1a 00
        E 360 90 19 60
        E 0 90 1a 60
        E 120 80 19 00
        E 0 80 1a 00
        E 360 90 18 60
        E 0 90 1a 60
        E 120 80 18 00
        E 0 80 1a 00
        E 120 90 18 60
        E 120 80 18 00
        E 120 90 19 60
        E 0 90 1a 60
        E 120 80 19 00
        E 0 80 1a 00
        E 360 90 18 60
        E 0 90 1a 60
        E 120 80 18 00
        E 0 80 1a 00
        E 360 90 19 60
        E 0 90 1a 60
        E 120 80 19 00
        E 0 80 1a 00
        E 120 90 18 60
        E 120 80 18 00
        E 120 90 1a 60
        E 120 80 1a 00
        E 120 90 18 60
        E 120 80 18 00
        E 120 90 19 60
        E 0 90 1a 60
        E 120 80 19 00
        E 0 80 1a 00
        E 120 90 18 60
        E 120 80 18 00
        E 120 90 1a 60
        E 120 80 1a 00
        E 120 90 18 60
        E 120 80 18 00
        E 120 90 19 60
        E 0 90 1a 60
        E 120 80 19 00
        E 0 80 1a 00
        E 120 90 18 60
        E 120 80 18 00
        E 120 90 18 60
        E 0 90 1a 60
        E 120 80 18 00
        E 0 80 1a 00
        E 120 90 18 60
        E 120 80 18 00
        E 120 90 19 60
        E 0 90 1a 60
        E 120 80 19 00
        E 0 80 1a 00
        E 360 90 18 60
        E 0 90 1a 60
        E 120 80 18 00
        E 0 80 1a 00
        E 120 90 18 60
        E 120 80 18 00
        E 120 90 19 60
        E 0 90 1a 60
        E 120 80 19 00
        E 0 80 1a 00
        E 120 90 18 60
        E 120 80 18 00
        E 120 90 19 60
        E 0 90 1a 60
        E 120 80 19 00
        E 0 80 1a 00
        E 120 90 18 60
        E 120 80 18 00
        E 120 90 19 60
        E 0 90 1a 60
        E 120 80 19 00
        E 0 80 1a 00
        E 120 90 19 60
        E 120 80 19 00
        E 120 90 18 60
        E 0 90 1a 60
        E 120 80 18 00
        E 0 80 1a 00
        E 120 90 18 60
        E 120 80 18 00
        E 120 90 19 60
        E 0 90 1a 60
        E 120 80 19 00
        E 0 80 1a 00
        E 120 90 18 60
        E 120 80 18 00
        E 120 90 18 60
        E 0 90 1a 60
        E 120 80 18 00
        E 0 80 1a 00
        E 120 90 18 60
        E 120 80 18 00
        E 120 90 19 60
        E 0 90 1a 60
        E 120 80 19 00
        E 0 80 1a 00
        E 120 90 18 60
        E 120 80 18 00
        E 120 90 18 60
        E 0 90 1a 60
        E 120 80 18 00
        E 0 80 1a 00
        E 120 90 18 60
        E 120 80 18 00
        E 120 90 19 60
        E 0 90 1a 60
        E 120 80 19 00
        E 0 80 1a 00
        E 120 90 18 60
        E 120 80 18 00
        E 120 90 18 60
        E 0 90 1a 60
        E 120 80 18 00
        E 0 80 1a 00
        E 120 90 18 60
        E 120 80 18 00
        E 120 90 19 60
        E 0 90 1a 60
        E 120 80 19 00
        E 0 80 1a 00
        E 120 90 18 60
        E 120 80 18 00
        E 120 90 18 60
        E 0 90 1a 60
        E 120 80 18 00
        E 0 80 1a 00
        E 120 90 18 60
        E 120 80 18 00
        E 120 90 19 60
        E 0 90 1a 60
        E 120 80 19 00
        E 0 80 1a 00
        E 120 90 18 60
        E 120 80 18 00
        E 120 90 1a 60
        E 120 80 1a 00
        E 120 90 18 60
        E 120 80 18 00
        E 120 90 19 60
        E 0 90 1a 60
        E 120 80 19 00
        E 0 80 1a 00
        E 120 90 18 60
        E 120 80 18 00
        E 120 90 19 60
        E 0 90 1a 60
        E 120 80 19 00
        E 0 80 1a 00
        E 120 90 18 60
        E 120 80 18 00
        E 120 90 19 60
        E 0 90 1a 60
        E 120 80 19 00
        E 0 80 1a 00
        E 120 90 18 60
        E 120 80 18 00
        E 120 90 19 60
        E 0 90 1a 60
        E 120 80 19 00
        E 0 80 1a 00
        E 120 90 18 60
        E 120 80 18 00
        E 120 90 19 60
        E 120 80 19 00
        E 120 90 19 60
        E 120 80 19 00
        E 0 90 19 60
        <X 120 0
          /wFbcHJjX2JyaWRnZV8xXQ==
        >
        E 0 80 19 00
        E 0 90 18 60
        E 0 90 1a 60
        E 120 80 18 00
        E 0 80 1a 00
        E 120 90 18 60
        E 120 80 18 00
        E 120 90 19 60
        E 0 90 1a 60
        E 120 80 19 00
        E 0 80 1a 00
        E 120 90 18 60
        E 120 80 18 00
        E 120 90 1a 60
        E 120 80 1a 00
        E 120 90 18 60
        E 120 80 18 00
        E 120 90 19 60
        E 0 90 1a 60
        E 120 80 19 00
        E 0 80 1a 00
        E 360 90 18 60
        E 0 90 1a 60
        E 120 80 18 00
        E 0 80 1a 00
        E 120 90 18 60
        E 120 80 18 00
        E 120 90 19 60
        E 0 90 1a 60
        E 120 80 19 00
        E 0 80 1a 00
        E 360 90 18 60
        E 0 90 1a 60
        E 120 80 18 00
        E 0 80 1a 00
        E 120 90 18 60
        E 120 80 18 00
        E 120 90 19 60
        E 0 90 1a 60
        E 120 80 19 00
        E 0 80 1a 00
        E 120 90 18 60
        E 120 80 18 00
        E 120 90 18 60
        E 0 90 1a 60
        E 120 80 18 00
        E 0 80 1a 00
        E 360 90 19 60
        E 0 90 1a 60
        E 120 80 19 00
        E 0 80 1a 00
        E 360 90 18 60
        E 0 90 1a 60
        E 120 80 18 00
        E 0 80 1a 00
        E 120 90 18 60
        E 120 80 18 00
        E 120 90 19 60
        E 0 90 1a 60
        E 120 80 19 00
        E 0 80 1a 00
        E 120 90 18 60
        E 120 80 18 00
        E 120 90 1a 60
        E 120 80 1a 00
        E 120 90 18 60
        E 120 80 18 00
        E 120 90 19 60
        E 0 90 1a 60
        E 120 80 19 00
        E 0 80 1a 00
        E 360 90 18 60
        E 0 90 1a 60
        E 120 80 18 00
        E 0 80 1a 00
        E 120 90 18 60
        E 120 80 18 00
        E 120 90 19 60
        E 0 90 1a 60
        E 120 80 19 00
        E 0 80 1a 00
        E 120 90 19 60
        E 120 80 19 00
        E 120 90 18 60
        E 0 90 1a 60
        E 120 80 18 00
        E 0 80 1a 00
        E 120 90 18 60
        E 120 80 18 00
        E 120 90 19 60
        E 0 90 1a 60
        E 120 80 19 00
        E 0 80 1a 00
        E 120 90 18 60
        E 120 80 18 00
        E 120 90 1a 60
        E 120 80 1a 00
        E 120 90 18 60
        E 120 80 18 00
        E 120 90 19 60
        E 0 90 1a 60
        E 120 80 19 00
        E 0 80 1a 00
        E 360 90 18 60
        E 0 90 1a 60
        E 120 80 18 00
        E 0 80 1a 00
        E 120 90 18 60
        E 120 80 18 00
        E 120 90 19 60
        E 0 90 1a 60
        E 120 80 19 00
        E 0 80 1a 00
        E 360 90 18 60
        E 0 90 1a 60
        E 120 80 18 00
        E 0 80 1a 00
        E 120 90 18 60
        E 120 80 18 00
        E 120 90 19 60
        E 0 90 1a 60
        E 120 80 19 00
        E 0 80 1a 00
        E 120 90 18 60
        E 120 80 18 00
        E 120 90 18 60
        E 0 90 1a 60
        E 120 80 18 00
        E 0 80 1a 00
        E 360 90 19 60
        E 0 90 1a 60
        E 120 80 19 00
        E 0 80 1a 00
        E 360 90 18 60
        E 0 90 1a 60
        E 120 80 18 00
        E 0 80 1a 00
        E 120 90 18 60
        E 120 80 18 00
        E 120 90 19 60
        E 0 90 1a 60
        E 120 80 19 00
        E 0 80 1a 00
        E 120 90 18 60
        E 120 80 18 00
        E 120 90 1a 60
        E 120 80 1a 00
        E 120 90 18 60
        E 120 80 18 00
        E 120 90 19 60
        E 0 90 1a 60
        E 120 80 19 00
        E 0 80 1a 00
        E 360 90 18 60
        E 0 90 1a 60
        E 120 80 18 00
        E 0 80 1a 00
        E 120 90 18 60
        E 120 80 18 00
        E 120 90 19 60
        E 120 80 19 00
        E 0 90 19 60
        E 120 80 19 00
        E 0 90 19 60
        E 120 80 19 00
        E 0 90 19 60
        <X 120 0
          /wFbY3Jvd2RfaW50ZW5zZV0=
        >
        <X 0 0
          /wFbcHJjX3ZlcnNlXzJhXQ==
        >
        E 0 80 19 00
        E 0 90 18 60
        E 0 90 1a 60
        E 120 80 18 00
        E 0 80 1a 00
        E 120 90 18 60
        E 120 80 18 00
        E 120 90 19 60
        E 0 90 1a 60
        E 120 80 19 00
        E 0 80 1a 00
        E 360 90 18 60
        E 0 90 1a 60
        E 120 80 18 00
        E 0 80 1a 00
        E 120 90 18 60
        E 120 80 18 00
        E 120 90 19 60
        E 0 90 1a 60
        E 120 80 19 00
        E 0 80 1a 00
        E 120 90 18 60
        E 120 80 18 00
        E 120 90 18 60
        E 0 90 1a 60
        E 120 80 18 00
        E 0 80 1a 00
        E 120 90 18 60
        E 120 80 18 00
        E 120 90 19 60
        E 0 90 1a 60
        E 120 80 19 00
        E 0 80 1a 00
        E 360 90 18 60
        E 0 90 1a 60
        E 120 80 18 00
        E 0 80 1a 00
        E 120 90 18 60
        E 120 80 18 00
        E 120 90 19 60
        E 0 90 1a 60
        E 120 80 19 00
        E 0 80 1a 00
        E 120 90 18 60
        E 120 80 18 00
        E 120 90 18 60
        E 0 90 1a 60
        E 120 80 18 00
        E 0 80 1a 00
        E 360 90 19 60
        E 0 90 1a 60
        E 120 80 19 00
        E 0 80 1a 00
        E 120 90 18 60
        E 120 80 18 00
        E 120 90 18 60
        E 0 90 1a 60
        E 120 80 18 00
        E 0 80 1a 00
        E 120 90 18 60
        E 120 80 18 00
        E 120 90 19 60
        E 0 90 1a 60
        E 120 80 19 00
        E 0 80 1a 00
        E 360 90 18 60
        E 0 90 1a 60
        E 120 80 18 00
        E 0 80 1a 00
        E 120 90 18 60
        E 120 80 18 00
        E 120 90 19 60
        E 0 90 1a 60
        E 120 80 19 00
        E 0 80 1a 00
        E 120 90 18 60
        E 120 80 18 00
        E 120 90 1a 60
        E 120 80 1a 00
        E 120 90 18 60
        E 120 80 18 00
        E 120 90 19 60
        E 120 80 19 00
        E 0 90 19 60
        E 120 80 19 00
        E 0 90 19 60
        E 120 80 19 00
        E 0 90 19 60
        E 120 80 19 00
        E 0 90 18 60
        E 0 90 1a 60
        E 120 80 18 00
        E 0 80 1a 00
        E 120 90 18 60
        E 120 80 18 00
        E 120 90 19 60
        E 0 90 1a 60
        E 120 80 19 00
        E 0 80 1a 00
        E 360 90 18 60
        E 0 90 1a 60
        E 120 80 18 00
        E 0 80 1a 00
        E 120 90 18 60
        E 120 80 18 00
        E 120 90 19 60
        E 0 90 1a 60
        E 120 80 19 00
        E 0 80 1a 00
        E 120 90 18 60
        E 120 80 18 00
        E 120 90 18 60
        E 0 90 1a 60
        E 120 80 18 00
        E 0 80 1a 00
        E 120 90 18 60
        E 120 80 18 00
        E 120 90 19 60
        E 0 90 1a 60
        E 120 80 19 00
        E 0 80 1a 00
        E 360 90 18 60
        E 0 90 1a 60
        E 120 80 18 00
        E 0 80 1a 00
        E 120 90 18 60
        E 120 80 18 00
        E 120 90 19 60
        E 0 90 1a 60
        E 120 80 19 00
        E 0 80 1a 00
        E 120 90 18 60
        E 120 80 18 00
        E 120 90 18 60
        E 0 90 1a 60
        E 120 80 18 00
        E 0 80 1a 00
        E 360 90 19 60
        E 0 90 1a 60
        E 120 80 19 00
        E 0 80 1a 00
        E 120 90 18 60
        E 120 80 18 00
        E 120 90 18 60
        E 0 90 1a 60
        E 120 80 18 00
        E 0 80 1a 00
        E 120 90 18 60
        E 120 80 18 00
        E 120 90 19 60
        E 0 90 1a 60
        E 120 80 19 00
        E 0 80 1a 00
        E 360 90 18 60
        E 0 90 1a 60
        E 120 80 18 00
        E 0 80 1a 00
        E 120 90 18 60
        E 120 80 18 00
        E 120 90 19 60
        E 0 90 1a 60
        E 120 80 19 00
        E 0 80 1a 00
        E 120 90 18 60
        E 120 80 18 00
        E 120 90 1a 60
        E 120 80 1a 00
        E 120 90 18 60
        E 120 80 18 00
        E 120 90 19 60
        E 120 80 19 00
        E 0 90 19 60
        E 120 80 19 00
        E 0 90 19 60
        E 120 80 19 00
        E 0 90 19 60
        E 120 80 19 00
        E 0 90 18 60
        E 0 90 1a 60
        E 120 80 18 00
        E 0 80 1a 00
        E 120 90 18 60
        E 120 80 18 00
        E 120 90 19 60
        E 0 90 1a 60
        E 120 80 19 00
        E 0 80 1a 00
        E 360 90 18 60
        E 0 90 1a 60
        E 120 80 18 00
        E 0 80 1a 00
        E 120 90 18 60
        E 120 80 18 00
        E 120 90 19 60
        E 0 90 1a 60
        E 120 80 19 00
        E 0 80 1a 00
        E 120 90 18 60
        E 120 80 18 00
        E 120 90 18 60
        E 0 90 1a 60
        E 120 80 18 00
        E 0 80 1a 00
        E 120 90 18 60
        E 120 80 18 00
        E 120 90 19 60
        E 0 90 1a 60
        E 120 80 19 00
        E 0 80 1a 00
        E 360 90 18 60
        E 0 90 1a 60
        E 120 80 18 00
        E 0 80 1a 00
        E 120 90 18 60
        E 120 80 18 00
        E 120 90 19 60
        E 0 90 1a 60
        E 120 80 19 00
        E 0 80 1a 00
        E 120 90 18 60
        E 120 80 18 00
        E 120 90 18 60
        E 0 90 1a 60
        E 120 80 18 00
        E 0 80 1a 00
        E 360 90 19 60
        E 0 90 1a 60
        E 120 80 19 00
        E 0 80 1a 00
        E 120 90 18 60
        E 120 80 18 00
        E 120 90 18 60
        E 0 90 1a 60
        E 120 80 18 00
        E 0 80 1a 00
        E 120 90 18 60
        E 120 80 18 00
        E 120 90 19 60
        E 0 90 1a 60
        E 120 80 19 00
        E 0 80 1a 00
        E 360 90 18 60
        E 0 90 1a 60
        E 120 80 18 00
        E 0 80 1a 00
        E 120 90 18 60
        E 120 80 18 00
        E 120 90 19 60
        E 0 90 1a 60
        E 120 80 19 00
        E 0 80 1a 00
        E 120 90 18 60
        E 120 80 18 00
        E 120 90 1a 60
        E 120 80 1a 00
        E 120 90 18 60
        E 120 80 18 00
        E 120 90 19 60
        E 120 80 19 00
        E 0 90 19 60
        E 120 80 19 00
        E 0 90 19 60
        E 120 80 19 00
        E 0 90 19 60
        E 120 80 19 00
        E 0 90 18 60
        E 0 90 1a 60
        E 120 80 18 00
        E 0 80 1a 00
        E 120 90 18 60
        E 120 80 18 00
        E 120 90 19 60
        E 0 90 1a 60
        E 120 80 19 00
        E 0 80 1a 00
        E 360 90 18 60
        E 0 90 1a 60
        E 120 80 18 00
        E 0 80 1a 00
        E 120 90 18 60
        E 120 80 18 00
        E 120 90 19 60
        E 0 90 1a 60
        E 120 80 19 00
        E 0 80 1a 00
        E 120 90 18 60
        E 120 80 18 00
        E 120 90 18 60
        E 0 90 1a 60
        E 120 80 18 00
        E 0 80 1a 00
        E 120 90 18 60
        E 120 80 18 00
        E 120 90 19 60
        E 0 90 1a 60
        E 120 80 19 00
        E 0 80 1a 00
        E 360 90 18 60
        E 0 90 1a 60
        E 120 80 18 00
        E 0 80 1a 00
        E 120 90 18 60
        E 120 80 18 00
        E 120 90 19 60
        E 0 90 1a 60
        E 120 80 19 00
        E 0 80 1a 00
        E 120 90 18 60
        E 120 80 18 00
        E 120 90 18 60
        E 0 90 1a 60
        E 120 80 18 00
        E 0 80 1a 00
        E 360 90 19 60
        E 0 90 1a 60
        E 120 80 19 00
        E 0 80 1a 00
        E 120 90 18 60
        E 120 80 18 00
        E 120 90 18 60
        E 0 90 1a 60
        E 120 80 18 00
        E 0 80 1a 00
        E 120 90 18 60
        E 120 80 18 00
        E 120 90 19 60
        E 0 90 1a 60
        E 120 80 19 00
        E 0 80 1a 00
        E 360 90 18 60
        E 0 90 1a 60
        E 120 80 18 00
        E 0 80 1a 00
        E 120 90 18 60
        E 120 80 18 00
        E 120 90 19 60
        E 0 90 1a 60
        E 120 80 19 00
        E 0 80 1a 00
        E 120 90 18 60
        E 120 80 18 00
        E 120 90 1a 60
        E 120 80 1a 00
        E 120 90 18 60
        E 120 80 18 00
        E 120 90 19 60
        E 120 80 19 00
        E 0 90 19 60
        E 120 80 19 00
        E 0 90 19 60
        E 120 80 19 00
        E 0 90 19 60
        <X 120 0
          /wFbcHJjX3ZlcnNlXzJiXQ==
        >
        <X 0 0
          /wFbY3Jvd2Rfbm9ybWFsXQ==
        >
        E 0 80 19 00
        E 0 90 18 60
        E 0 90 1a 60
        E 120 80 18 00
        E 0 80 1a 00
        E 360 90 19 60
        E 0 90 1a 60
        E 120 80 19 00
        E 0 80 1a 00
        E 360 90 18 60
        E 0 90 1a 60
        E 120 80 18 00
        E 0 80 1a 00
        E 120 90 18 60
        E 120 80 18 00
        E 120 90 19 60
        E 0 90 1a 60
        E 120 80 19 00
        E 0 80 1a 00
        E 360 90 18 60
        E 0 90 1a 60
        E 120 80 18 00
        E 0 80 1a 00
        E 360 90 19 60
        E 0 90 1a 60
        E 120 80 19 00
        E 0 80 1a 00
        E 120 90 18 60
        E 120 80 18 00
        E 120 90 1a 60
        E 120 80 1a 00
        E 120 90 18 60
        E 120 80 18 00
        E 120 90 19 60
        E 0 90 1a 60
        E 120 80 19 00
        E 0 80 1a 00
        E 120 90 18 60
        E 120 80 18 00
        E 120 90 1a 60
        E 120 80 1a 00
        E 120 90 18 60
        E 120 80 18 00
        E 120 90 19 60
        E 0 90 1a 60
        E 120 80 19 00
        E 0 80 1a 00
        E 120 90 18 60
        E 120 80 18 00
        E 120 90 18 60
        E 0 90 1a 60
        E 120 80 18 00
        E 0 80 1a 00
        E 120 90 18 60
        E 120 80 18 00
        E 120 90 19 60
        E 0 90 1a 60
        E 120 80 19 00
        E 0 80 1a 00
        E 360 90 18 60
        E 0 90 1a 60
        E 120 80 18 00
        E 0 80 1a 00
        E 120 90 18 60
        E 120 80 18 00
        E 120 90 19 60
        E 0 90 1a 60
        E 120 80 19 00
        E 0 80 1a 00
        E 120 90 18 60
        E 120 80 18 00
        E 120 90 1a 60
        E 120 80 1a 00
        E 120 90 18 60
        E 120 80 18 00
        E 120 90 19 60
        E 0 90 1a 60
        E 120 80 19 00
        E 0 80 1a 00
        E 120 90 19 60
        E 120 80 19 00
        E 120 90 18 60
        E 0 90 1a 60
        E 120 80 18 00
        E 0 80 1a 00
        E 360 90 19 60
        E 0 90 1a 60
        E 120 80 19 00
        E 0 80 1a 00
        E 360 90 18 60
        E 0 90 1a 60
        E 120 80 18 00
        E 0 80 1a 00
        E 120 90 18 60
        E 120 80 18 00
        E 120 90 19 60
        E 0 90 1a 60
        E 120 80 19 00
        E 0 80 1a 00
        E 360 90 18 60
        E 0 90 1a 60
        E 120 80 18 00
        E 0 80 1a 00
        E 360 90 19 60
        E 0 90 1a 60
        E 120 80 19 00
        E 0 80 1a 00
        E 120 90 18 60
        E 120 80 18 00
        E 120 90 1a 60
        E 120 80 1a 00
        E 120 90 18 60
        E 120 80 18 00
        E 120 90 19 60
        E 0 90 1a 60
        E 120 80 19 00
        E 0 80 1a 00
        E 120 90 18 60
        E 120 80 18 00
        E 120 90 1a 60
        E 120 80 1a 00
        E 120 90 18 60
        E 120 80 18 00
        E 120 90 19 60
        E 0 90 1a 60
        E 120 80 19 00
        E 0 80 1a 00
        E 120 90 18 60
        E 120 80 18 00
        E 120 90 18 60
        E 0 90 1a 60
        E 120 80 18 00
        E 0 80 1a 00
        E 120 90 18 60
        E 120 80 18 00
        E 120 90 19 60
        E 0 90 1a 60
        E 120 80 19 00
        E 0 80 1a 00
        E 360 90 18 60
        E 0 90 1a 60
        E 120 80 18 00
        E 0 80 1a 00
        E 120 90 18 60
        E 120 80 18 00
        E 120 90 19 60
        E 0 90 1a 60
        E 120 80 19 00
        E 0 80 1a 00
        E 120 90 18 60
        E 120 80 18 00
        E 120 90 1a 60
        E 120 80 1a 00
        E 120 90 18 60
        E 120 80 18 00
        E 120 90 19 60
        E 0 90 1a 60
        E 120 80 19 00
        E 0 80 1a 00
        E 120 90 19 60
        E 120 80 19 00
        E 120 90 18 60
        E 0 90 1a 60
        E 120 80 18 00
        E 0 80 1a 00
        E 360 90 19 60
        E 0 90 1a 60
        E 120 80 19 00
        E 0 80 1a 00
        E 360 90 18 60
        E 0 90 1a 60
        E 120 80 18 00
        E 0 80 1a 00
        E 120 90 18 60
        E 120 80 18 00
        E 120 90 19 60
        E 0 90 1a 60
        E 120 80 19 00
        E 0 80 1a 00
        E 360 90 18 60
        E 0 90 1a 60
        E 120 80 18 00
        E 0 80 1a 00
        E 360 90 19 60
        E 0 90 1a 60
        E 120 80 19 00
        E 0 80 1a 00
        E 120 90 18 60
        E 120 80 18 00
        E 120 90 1a 60
        E 120 80 1a 00
        E 120 90 18 60
        E 120 80 18 00
        E 120 90 19 60
        E 0 90 1a 60
        E 120 80 19 00
        E 0 80 1a 00
        E 120 90 18 60
        E 120 80 18 00
        E 120 90 1a 60
        E 120 80 1a 00
        E 120 90 18 60
        E 120 80 18 00
        E 120 90 19 60
        E 0 90 1a 60
        E 120 80 19 00
        E 0 80 1a 00
        E 120 90 18 60
        E 120 80 18 00
        E 120 90 18 60
        E 0 90 1a 60
        E 120 80 18 00
        E 0 80 1a 00
        E 120 90 18 60
        E 120 80 18 00
        E 120 90 19 60
        E 0 90 1a 60
        E 120 80 19 00
        E 0 80 1a 00
        E 360 90 18 60
        E 0 90 1a 60
        E 120 80 18 00
        E 0 80 1a 00
        E 120 90 18 60
        E 120 80 18 00
        E 120 90 19 60
        E 0 90 1a 60
        E 120 80 19 00
        E 0 80 1a 00
        E 120 90 18 60
        E 120 80 18 00
        E 120 90 19 60
        E 0 90 1a 60
        E 120 80 19 00
        E 0 80 1a 00
        E 120 90 18 60
        E 120 80 18 00
        E 120 90 19 60
        E 0 90 1a 60
        E 120 80 19 00
        E 0 80 1a 00
        E 120 90 19 60
        E 120 80 19 00
        E 120 90 18 60
        E 0 90 1a 60
        E 120 80 18 00
        E 0 80 1a 00
        E 120 90 18 60
        E 120 80 18 00
        E 120 90 19 60
        E 0 90 1a 60
        E 120 80 19 00
        E 0 80 1a 00
        E 120 90 18 60
        E 120 80 18 00
        E 120 90 18 60
        E 0 90 1a 60
        E 120 80 18 00
        E 0 80 1a 00
        E 120 90 18 60
        E 120 80 18 00
        E 120 90 19 60
        E 0 90 1a 60
        E 120 80 19 00
        E 0 80 1a 00
        E 120 90 18 60
        E 120 80 18 00
        E 120 90 18 60
        E 0 90 1a 60
        E 120 80 18 00
        E 0 80 1a 00
        E 120 90 18 60
        E 120 80 18 00
        E 120 90 19 60
        E 0 90 1a 60
        E 120 80 19 00
        E 0 80 1a 00
        E 120 90 18 60
        E 120 80 18 00
        E 120 90 18 60
        E 0 90 1a 60
        E 120 80 18 00
        E 0 80 1a 00
        E 120 90 18 60
        E 120 80 18 00
        E 120 90 19 60
        E 0 90 1a 60
        E 120 80 19 00
        E 0 80 1a 00
        E 120 90 18 60
        E 120 80 18 00
        E 120 90 1a 60
        E 120 80 1a 00
        E 120 90 18 60
        E 120 80 18 00
        E 120 90 18 60
        E 0 90 1a 60
        E 120 80 18 00
        E 0 80 1a 00
        E 360 90 18 60
        E 0 90 1a 60
        E 120 80 18 00
        E 0 80 1a 00
        E 360 90 18 60
        E 0 90 1a 60
        E 120 80 18 00
        E 0 80 1a 00
        E 360 90 18 60
        E 0 90 1a 60
        E 120 80 18 00
        E 0 80 1a 00
        E 120 90 18 60
        E 120 80 18 00
        E 120 90 1a 60
        E 120 80 1a 00
        E 120 90 18 60
        E 120 80 18 00
        E 120 90 1a 60
        E 120 80 1a 00
        E 120 90 18 60
        E 0 90 19 60
        E 120 80 18 00
        E 0 80 19 00
        E 0 90 19 60
        E 120 80 19 00
        E 0 90 19 60
        E 120 80 19 00
        E 120 90 19 60
        E 120 80 19 00
        <X 120 0
          /wFbY3Jvd2RfY2xhcF0g
        >
        <X 0 0
          /wFbcHJjX2Nob3J1c10=
        >
        <X 0 0
          /wFbY3Jvd2RfaW50ZW5zZV0=
        >
        E 0 90 18 60
        E 0 90 1a 60
        E 120 80 18 00
        E 0 80 1a 00
        E 360 90 19 60
        E 0 90 1a 60
        E 120 80 19 00
        E 0 80 1a 00
        E 360 90 18 60
        E 0 90 1a 60
        E 120 80 18 00
        E 0 80 1a 00
        E 120 90 18 60
        E 120 80 18 00
        E 120 90 19 60
        E 0 90 1a 60
        E 120 80 19 00
        E 0 80 1a 00
        E 360 90 18 60
        E 0 90 1a 60
        E 120 80 18 00
        E 0 80 1a 00
        E 360 90 19 60
        E 0 90 1a 60
        E 120 80 19 00
        E 0 80 1a 00
        E 120 90 18 60
        E 120 80 18 00
        E 120 90 1a 60
        E 120 80 1a 00
        E 120 90 18 60
        E 120 80 18 00
        E 120 90 19 60
        E 0 90 1a 60
        E 120 80 19 00
        E 0 80 1a 00
        E 120 90 18 60
        E 120 80 18 00
        E 120 90 1a 60
        E 120 80 1a 00
        E 120 90 18 60
        E 120 80 18 00
        E 120 90 19 60
        E 0 90 1a 60
        E 120 80 19 00
        E 0 80 1a 00
        E 120 90 18 60
        E 120 80 18 00
        E 120 90 18 60
        E 0 90 1a 60
        E 120 80 18 00
        E 0 80 1a 00
        E 120 90 18 60
        E 120 80 18 00
        E 120 90 19 60
        E 0 90 1a 60
        E 120 80 19 00
        E 0 80 1a 00
        E 360 90 18 60
        E 0 90 1a 60
        E 120 80 18 00
        E 0 80 1a 00
        E 120 90 18 60
        E 120 80 18 00
        E 120 90 19 60
        E 0 90 1a 60
        E 120 80 19 00
        E 0 80 1a 00
        E 120 90 18 60
        E 120 80 18 00
        E 120 90 1a 60
        E 120 80 1a 00
        E 120 90 18 60
        E 120 80 18 00
        E 120 90 19 60
        E 0 90 1a 60
        E 120 80 19 00
        E 0 80 1a 00
        E 360 90 18 60
        E 0 90 1a 60
        E 120 80 18 00
        E 0 80 1a 00
        E 360 90 19 60
        E 0 90 1a 60
        E 120 80 19 00
        E 0 80 1a 00
        E 360 90 18 60
        E 0 90 1a 60
        E 120 80 18 00
        E 0 80 1a 00
        E 120 90 18 60
        E 120 80 18 00
        E 120 90 19 60
        E 0 90 1a 60
        E 120 80 19 00
        E 0 80 1a 00
        E 360 90 18 60
        E 0 90 1a 60
        E 120 80 18 00
        E 0 80 1a 00
        E 360 90 19 60
        E 0 90 1a 60
        E 120 80 19 00
        E 0 80 1a 00
        E 120 90 18 60
        E 120 80 18 00
        E 120 90 1a 60
        E 120 80 1a 00
        E 120 90 18 60
        E 120 80 18 00
        E 120 90 19 60
        E 0 90 1a 60
        E 120 80 19 00
        E 0 80 1a 00
        E 120 90 18 60
        E 120 80 18 00
        E 120 90 1a 60
        E 120 80 1a 00
        E 120 90 18 60
        E 120 80 18 00
        E 120 90 19 60
        E 0 90 1a 60
        E 120 80 19 00
        E 0 80 1a 00
        E 120 90 18 60
        E 120 80 18 00
        E 120 90 18 60
        E 0 90 1a 60
        E 120 80 18 00
        E 0 80 1a 00
        E 120 90 18 60
        E 120 80 18 00
        E 120 90 19 60
        E 0 90 1a 60
        E 120 80 19 00
        E 0 80 1a 00
        E 360 90 18 60
        E 0 90 1a 60
        E 120 80 18 00
        E 0 80 1a 00
        E 120 90 18 60
        E 120 80 18 00
        E 120 90 19 60
        E 0 90 1a 60
        E 120 80 19 00
        E 0 80 1a 00
        E 120 90 18 60
        E 120 80 18 00
        E 120 90 19 60
        E 0 90 1a 60
        E 120 80 19 00
        E 0 80 1a 00
        E 120 90 18 60
        E 120 80 18 00
        E 120 90 19 60
        E 0 90 1a 60
        E 120 80 19 00
        E 0 80 1a 00
        E 120 90 19 60
        E 120 80 19 00
        E 120 90 18 60
        E 0 90 1a 60
        E 120 80 18 00
        E 0 80 1a 00
        E 360 90 19 60
        E 0 90 1a 60
        E 120 80 19 00
        E 0 80 1a 00
        E 360 90 18 60
        E 0 90 1a 60
        E 120 80 18 00
        E 0 80 1a 00
        E 120 90 18 60
        E 120 80 18 00
        E 120 90 19 60
        E 0 90 1a 60
        E 120 80 19 00
        E 0 80 1a 00
        E 360 90 18 60
        E 0 90 1a 60
        E 120 80 18 00
        E 0 80 1a 00
        E 360 90 19 60
        E 0 90 1a 60
        E 120 80 19 00
        E 0 80 1a 00
        E 120 90 18 60
        E 120 80 18 00
        E 120 90 1a 60
        E 120 80 1a 00
        E 120 90 18 60
        E 120 80 18 00
        E 120 90 19 60
        E 0 90 1a 60
        E 120 80 19 00
        E 0 80 1a 00
        E 120 90 18 60
        E 120 80 18 00
        E 120 90 1a 60
        E 120 80 1a 00
        E 120 90 18 60
        E 120 80 18 00
        E 120 90 19 60
        E 0 90 1a 60
        E 120 80 19 00
        E 0 80 1a 00
        E 120 90 18 60
        E 120 80 18 00
        E 120 90 18 60
        E 0 90 1a 60
        E 120 80 18 00
        E 0 80 1a 00
        E 120 90 18 60
        E 120 80 18 00
        E 120 90 19 60
        E 0 90 1a 60
        E 120 80 19 00
        E 0 80 1a 00
        E 360 90 18 60
        E 0 90 1a 60
        E 120 80 18 00
        E 0 80 1a 00
        E 120 90 18 60
        E 120 80 18 00
        E 120 90 19 60
        E 0 90 1a 60
        E 120 80 19 00
        E 0 80 1a 00
        E 120 90 18 60
        E 120 80 18 00
        E 120 90 1a 60
        E 120 80 1a 00
        E 120 90 18 60
        E 120 80 18 00
        E 120 90 19 60
        E 0 90 1a 60
        E 120 80 19 00
        E 0 80 1a 00
        E 120 90 19 60
        E 120 80 19 00
        E 0 90 19 60
        E 120 80 19 00
        E 0 90 18 60
        E 0 90 1a 60
        E 120 80 18 00
        E 0 80 1a 00
        E 120 90 18 60
        E 120 80 18 00
        E 120 90 1a 60
        E 120 80 1a 00
        E 120 90 18 60
        E 120 80 18 00
        E 120 90 19 60
        E 0 90 1a 60
        E 120 80 19 00
        E 0 80 1a 00
        E 120 90 18 60
        E 120 80 18 00
        E 120 90 18 60
        E 0 90 1a 60
        E 120 80 18 00
        E 0 80 1a 00
        E 120 90 18 60
        E 120 80 18 00
        E 120 90 1a 60
        E 120 80 1a 00
        E 120 90 18 60
        E 120 80 18 00
        E 120 90 1a 60
        E 120 80 1a 00
        E 120 90 18 60
        E 120 80 18 00
        E 120 90 19 60
        E 0 90 1a 60
        E 120 80 19 00
        E 0 80 1a 00
        E 120 90 18 60
        E 120 80 18 00
        E 120 90 1a 60
        E 120 80 1a 00
        E 120 90 18 60
        E 120 80 18 00
        E 120 90 18 60
        E 0 90 1a 60
        E 120 80 18 00
        E 0 80 1a 00
        E 120 90 18 60
        E 120 80 18 00
        E 120 90 1a 60
        E 120 80 1a 00
        E 120 90 18 60
        E 120 80 18 00
        E 120 90 19 60
        E 0 90 1a 60
        E 120 80 19 00
        E 0 80 1a 00
        E 0 90 19 60
        E 120 80 19 00
        E 0 90 18 60
        E 120 80 18 00
        E 120 90 1a 60
        E 120 80 1a 00
        E 120 90 18 60
        E 0 90 19 60
        E 120 80 18 00
        E 0 80 19 00
        E 120 90 1a 60
        E 120 80 1a 00
        E 360 90 1a 60
        E 120 80 1a 00
        E 360 90 1a 60
        E 120 80 1a 00
        E 360 90 18 60
        E 0 90 19 60
        E 0 90 1a 60
        E 120 80 18 00
        E 0 80 19 00
        E 0 80 1a 00
        E 120 90 18 60
        E 120 80 18 00
        <X 120 0
          /wFbcHJjX2JyaWRnZV8yXQ==
        >
        <X 0 0
          /wFbY3Jvd2Rfbm9jbGFwXQ==
        >
        <X 0 0
          /wFbY3Jvd2Rfbm9ybWFsXQ==
        >
        E 0 90 18 60
        E 0 90 1a 60
        E 120 80 18 00
        E 0 80 1a 00
        E 120 90 18 60
        E 120 80 18 00
        E 120 90 19 60
        E 0 90 1a 60
        E 120 80 19 00
        E 0 80 1a 00
        E 120 90 18 60
        E 120 80 18 00
        E 120 90 1a 60
        E 120 80 1a 00
        E 120 90 18 60
        E 120 80 18 00
        E 120 90 19 60
        E 0 90 1a 60
        E 120 80 19 00
        E 0 80 1a 00
        E 360 90 18 60
        E 0 90 1a 60
        E 120 80 18 00
        E 0 80 1a 00
        E 120 90 18 60
        E 120 80 18 00
        E 120 90 19 60
        E 0 90 1a 60
        E 120 80 19 00
        E 0 80 1a 00
        E 120 90 18 60
        E 120 80 18 00
        E 120 90 1a 60
        E 120 80 1a 00
        E 120 90 18 60
        E 120 80 18 00
        E 120 90 19 60
        E 0 90 1a 60
        E 120 80 19 00
        E 0 80 1a 00
        E 360 90 18 60
        E 0 90 1a 60
        E 120 80 18 00
        E 0 80 1a 00
        E 120 90 18 60
        E 120 80 18 00
        E 120 90 19 60
        E 0 90 1a 60
        E 120 80 19 00
        E 0 80 1a 00
        E 120 90 18 60
        E 120 80 18 00
        E 120 90 1a 60
        E 120 80 1a 00
        E 120 90 18 60
        E 120 80 18 00
        E 120 90 19 60
        E 0 90 1a 60
        E 120 80 19 00
        E 0 80 1a 00
        E 360 90 18 60
        E 0 90 1a 60
        E 120 80 18 00
        E 0 80 1a 00
        E 120 90 18 60
        E 120 80 18 00
        E 120 90 19 60
        E 0 90 1a 60
        E 120 80 19 00
        E 0 80 1a 00
        E 120 90 18 60
        E 120 80 18 00
        E 120 90 1a 60
        E 120 80 1a 00
        E 120 90 18 60
        E 120 80 18 00
        E 120 90 19 60
        E 0 90 1a 60
        E 120 80 19 00
        E 0 80 1a 00
        E 120 90 19 60
        E 120 80 19 00
        E 120 90 18 60
        E 0 90 1a 60
        E 120 80 18 00
        E 0 80 1a 00
        E 120 90 18 60
        E 120 80 18 00
        E 120 90 19 60
        E 0 90 1a 60
        E 120 80 19 00
        E 0 80 1a 00
        E 120 90 18 60
        E 120 80 18 00
        E 120 90 1a 60
        E 120 80 1a 00
        E 120 90 18 60
        E 120 80 18 00
        E 120 90 19 60
        E 0 90 1a 60
        E 120 80 19 00
        E 0 80 1a 00
        E 360 90 18 60
        E 0 90 1a 60
        E 120 80 18 00
        E 0 80 1a 00
        E 120 90 18 60
        E 120 80 18 00
        E 120 90 19 60
        E 0 90 1a 60
        E 120 80 19 00
        E 0 80 1a 00
        E 120 90 18 60
        E 120 80 18 00
        E 120 90 1a 60
        E 120 80 1a 00
        E 120 90 18 60
        E 120 80 18 00
        E 120 90 19 60
        E 0 90 1a 60
        E 120 80 19 00
        E 0 80 1a 00
        E 360 90 18 60
        E 0 90 1a 60
        E 120 80 18 00
        E 0 80 1a 00
        E 120 90 18 60
        E 120 80 18 00
        E 120 90 19 60
        E 0 90 1a 60
        E 120 80 19 00
        E 0 80 1a 00
        E 120 90 18 60
        E 120 80 18 00
        E 120 90 1a 60
        E 120 80 1a 00
        E 120 90 18 60
        E 120 80 18 00
        E 120 90 19 60
        E 0 90 1a 60
        E 120 80 19 00
        E 0 80 1a 00
        E 360 90 18 60
        E 0 90 1a 60
        E 120 80 18 00
        E 0 80 1a 00
        E 120 90 18 60
        E 120 80 18 00
        E 120 90 19 60
        E 0 90 1a 60
        E 120 80 19 00
        E 0 80 1a 00
        E 120 90 18 60
        E 120 80 18 00
        E 120 90 19 60
        E 0 90 1a 60
        E 120 80 19 00
        E 0 80 1a 00
        E 120 90 18 60
        E 120 80 18 00
        E 120 90 19 60
        E 120 80 19 00
        E 0 90 19 60
        E 120 80 19 00
        E 0 90 19 60
        E 120 80 19 00
        E 0 90 19 60
        E 120 80 19 00
        E 0 90 18 60
        E 0 90 1a 60
        E 120 80 18 00
        E 0 80 1a 00
        E 120 90 18 60
        E 120 80 18 00
        E 120 90 19 60
        E 0 90 1a 60
        E 120 80 19 00
        E 0 80 1a 00
        E 120 90 18 60
        E 120 80 18 00
        E 120 90 1a 60
        E 120 80 1a 00
        E 120 90 18 60
        E 120 80 18 00
        E 120 90 19 60
        E 0 90 1a 60
        E 120 80 19 00
        E 0 80 1a 00
        E 360 90 18 60
        E 0 90 1a 60
        E 120 80 18 00
        E 0 80 1a 00
        E 120 90 18 60
        E 120 80 18 00
        E 120 90 19 60
        E 0 90 1a 60
        E 120 80 19 00
        E 0 80 1a 00
        E 120 90 18 60
        E 120 80 18 00
        E 120 90 1a 60
        E 120 80 1a 00
        E 120 90 18 60
        E 120 80 18 00
        E 120 90 19 60
        E 0 90 1a 60
        E 120 80 19 00
        E 0 80 1a 00
        E 360 90 18 60
        E 0 90 1a 60
        E 120 80 18 00
        E 0 80 1a 00
        E 120 90 18 60
        E 120 80 18 00
        E 120 90 19 60
        E 0 90 1a 60
        E 120 80 19 00
        E 0 80 1a 00
        E 120 90 18 60
        E 120 80 18 00
        E 120 90 1a 60
        E 120 80 1a 00
        E 120 90 18 60
        E 120 80 18 00
        E 120 90 19 60
        E 0 90 1a 60
        E 120 80 19 00
        E 0 80 1a 00
        E 360 90 18 60
        E 0 90 1a 60
        E 120 80 18 00
        E 0 80 1a 00
        E 120 90 18 60
        E 120 80 18 00
        E 120 90 19 60
        E 0 90 1a 60
        E 120 80 19 00
        E 0 80 1a 00
        E 120 90 18 60
        E 120 80 18 00
        E 120 90 1a 60
        E 120 80 1a 00
        E 120 90 18 60
        E 120 80 18 00
        E 120 90 19 60
        E 0 90 1a 60
        E 120 80 19 00
        E 0 80 1a 00
        E 120 90 19 60
        E 120 80 19 00
        E 120 90 18 60
        E 0 90 1a 60
        E 120 80 18 00
        E 0 80 1a 00
        E 120 90 18 60
        E 120 80 18 00
        E 120 90 19 60
        E 0 90 1a 60
        E 120 80 19 00
        E 0 80 1a 00
        E 120 90 18 60
        E 120 80 18 00
        E 120 90 1a 60
        E 120 80 1a 00
        E 120 90 18 60
        E 120 80 18 00
        E 120 90 19 60
        E 0 90 1a 60
        E 120 80 19 00
        E 0 80 1a 00
        E 360 90 18 60
        E 0 90 1a 60
        E 120 80 18 00
        E 0 80 1a 00
        E 120 90 18 60
        E 120 80 18 00
        E 120 90 19 60
        E 0 90 1a 60
        E 120 80 19 00
        E 0 80 1a 00
        E 120 90 18 60
        E 120 80 18 00
        E 120 90 1a 60
        E 120 80 1a 00
        E 120 90 18 60
        E 120 80 18 00
        E 120 90 19 60
        E 0 90 1a 60
        E 120 80 19 00
        E 0 80 1a 00
        E 360 90 18 60
        E 0 90 1a 60
        E 120 80 18 00
        E 0 80 1a 00
        E 120 90 18 60
        E 120 80 18 00
        E 120 90 19 60
        E 0 90 1a 60
        E 120 80 19 00
        E 0 80 1a 00
        E 120 90 18 60
        E 120 80 18 00
        E 120 90 1a 60
        E 120 80 1a 00
        E 120 90 18 60
        E 120 80 18 00
        E 120 90 19 60
        E 0 90 1a 60
        E 120 80 19 00
        E 0 80 1a 00
        E 360 90 18 60
        E 0 90 1a 60
        E 120 80 18 00
        E 0 80 1a 00
        E 120 90 18 60
        E 120 80 18 00
        E 120 90 19 60
        E 0 90 1a 60
        E 120 80 19 00
        E 0 80 1a 00
        E 120 90 18 60
        E 120 80 18 00
        E 120 90 18 60
        E 0 90 19 60
        E 120 80 18 00
        E 0 80 19 00
        E 0 90 19 60
        E 120 80 19 00
        E 0 90 19 60
        E 120 80 19 00
        E 0 90 19 60
        E 120 80 19 00
        E 0 90 18 60
        E 0 90 19 60
        E 120 80 18 00
        E 0 80 19 00
        E 0 90 19 60
        E 120 80 19 00
        E 0 90 19 60
        E 120 80 19 00
        E 0 90 19 60
        <X 120 0
          /wFbY3Jvd2RfY2xhcF0g
        >
        <X 0 0
          /wFbcHJjX2JyZWFrX2Fd
        >
        E 0 80 19 00
        E 0 90 18 60
        E 0 90 1a 60
        E 120 80 18 00
        E 0 80 1a 00
        E 360 90 1a 60
        E 120 80 1a 00
        E 360 90 1a 60
        E 120 80 1a 00
        E 360 90 1a 60
        E 120 80 1a 00
        E 360 90 1a 60
        E 120 80 1a 00
        E 360 90 1a 60
        E 120 80 1a 00
        E 360 90 1a 60
        E 120 80 1a 00
        E 360 90 1a 60
        E 120 80 1a 00
        E 360 90 1a 60
        E 120 80 1a 00
        E 360 90 1a 60
        E 120 80 1a 00
        E 360 90 1a 60
        E 120 80 1a 00
        E 360 90 1a 60
        E 120 80 1a 00
        E 360 90 1a 60
        E 120 80 1a 00
        E 360 90 1a 60
        E 120 80 1a 00
        E 360 90 1a 60
        E 120 80 1a 00
        E 360 90 1a 60
        E 120 80 1a 00
        E 360 90 1a 60
        E 120 80 1a 00
        E 360 90 1a 60
        E 120 80 1a 00
        E 360 90 1a 60
        E 120 80 1a 00
        E 360 90 1a 60
        E 120 80 1a 00
        E 360 90 1a 60
        E 120 80 1a 00
        E 360 90 1a 60
        E 120 80 1a 00
        E 360 90 1a 60
        E 120 80 1a 00
        E 360 90 1a 60
        E 120 80 1a 00
        E 360 90 1a 60
        E 120 80 1a 00
        E 360 90 1a 60
        E 120 80 1a 00
        E 360 90 1a 60
        E 120 80 1a 00
        E 360 90 1a 60
        E 120 80 1a 00
        E 360 90 1a 60
        E 120 80 1a 00
        E 360 90 1a 60
        E 120 80 1a 00
        E 360 90 1a 60
        E 120 80 1a 00
        E 360 90 1a 60
        E 120 80 1a 00
        E 360 90 1a 60
        E 120 80 1a 00
        E 360 90 1a 60
        E 120 80 1a 00
        E 360 90 1a 60
        E 120 80 1a 00
        E 360 90 1a 60
        E 120 80 1a 00
        E 360 90 1a 60
        E 120 80 1a 00
        E 360 90 1a 60
        E 120 80 1a 00
        E 360 90 1a 60
        E 120 80 1a 00
        E 360 90 1a 60
        E 120 80 1a 00
        E 360 90 1a 60
        E 120 80 1a 00
        E 360 90 1a 60
        E 120 80 1a 00
        E 360 90 1a 60
        E 120 80 1a 00
        E 360 90 1a 60
        E 120 80 1a 00
        E 360 90 1a 60
        E 120 80 1a 00
        E 360 90 1a 60
        E 120 80 1a 00
        E 360 90 1a 60
        E 120 80 1a 00
        E 360 90 1a 60
        E 120 80 1a 00
        E 360 90 1a 60
        E 120 80 1a 00
        E 360 90 1a 60
        E 120 80 1a 00
        E 360 90 1a 60
        E 120 80 1a 00
        E 360 90 1a 60
        E 120 80 1a 00
        E 360 90 1a 60
        E 120 80 1a 00
        E 360 90 1a 60
        E 120 80 1a 00
        E 360 90 1a 60
        E 120 80 1a 00
        E 360 90 1a 60
        E 120 80 1a 00
        E 360 90 1a 60
        E 120 80 1a 00
        E 360 90 1a 60
        E 120 80 1a 00
        E 360 90 1a 60
        E 120 80 1a 00
        E 360 90 1a 60
        E 120 80 1a 00
        E 360 90 1a 60
        E 120 80 1a 00
        E 360 90 1a 60
        E 120 80 1a 00
        E 360 90 1a 60
        E 120 80 1a 00
        E 360 90 1a 60
        E 120 80 1a 00
        <X 360 0
          /wFbY3Jvd2RfaW50ZW5zZV0=
        >
        <X 0 0
          /wFbcHJjX2JyZWFrX2Jd
        >
        E 0 90 1a 60
        E 120 80 1a 00
        E 360 90 1a 60
        E 120 80 1a 00
        E 360 90 1a 60
        E 120 80 1a 00
        E 360 90 1a 60
        E 120 80 1a 00
        E 360 90 1a 60
        E 120 80 1a 00
        E 360 90 1a 60
        E 120 80 1a 00
        E 360 90 1a 60
        E 120 80 1a 00
        E 360 90 1a 60
        E 120 80 1a 00
        E 360 90 1a 60
        E 120 80 1a 00
        E 360 90 1a 60
        E 120 80 1a 00
        E 360 90 1a 60
        E 120 80 1a 00
        E 360 90 1a 60
        E 120 80 1a 00
        E 360 90 1a 60
        E 120 80 1a 00
        E 360 90 1a 60
        E 120 80 1a 00
        E 360 90 1a 60
        E 120 80 1a 00
        E 360 90 1a 60
        E 120 80 1a 00
        E 360 90 1a 60
        E 120 80 1a 00
        E 360 90 1a 60
        E 120 80 1a 00
        E 360 90 1a 60
        E 120 80 1a 00
        E 360 90 1a 60
        E 120 80 1a 00
        E 360 90 1a 60
        E 120 80 1a 00
        E 360 90 1a 60
        E 120 80 1a 00
        E 360 90 1a 60
        E 120 80 1a 00
        E 360 90 1a 60
        E 120 80 1a 00
        E 360 90 1a 60
        E 120 80 1a 00
        E 360 90 1a 60
        E 120 80 1a 00
        E 360 90 1a 60
        E 120 80 1a 00
        E 360 90 1a 60
        E 120 80 1a 00
        E 360 90 1a 60
        E 120 80 1a 00
        E 360 90 1a 60
        E 120 80 1a 00
        E 360 90 1a 60
        E 120 80 1a 00
        E 360 90 1a 60
        E 120 80 1a 00
        E 360 90 1a 60
        E 120 80 1a 00
        E 360 90 1a 60
        E 120 80 1a 00
        E 360 90 1a 60
        E 120 80 1a 00
        E 360 90 1a 60
        E 120 80 1a 00
        E 360 90 1a 60
        E 120 80 1a 00
        E 360 90 1a 60
        E 120 80 1a 00
        E 360 90 1a 60
        E 120 80 1a 00
        E 360 90 1a 60
        E 120 80 1a 00
        E 360 90 1a 60
        E 120 80 1a 00
        E 360 90 1a 60
        E 120 80 1a 00
        E 360 90 1a 60
        E 120 80 1a 00
        E 360 90 1a 60
        E 120 80 1a 00
        E 360 90 1a 60
        E 120 80 1a 00
        E 360 90 1a 60
        E 120 80 1a 00
        E 360 90 1a 60
        E 120 80 1a 00
        E 360 90 1a 60
        E 120 80 1a 00
        E 360 90 1a 60
        E 120 80 1a 00
        E 360 90 1a 60
        E 120 80 1a 00
        E 360 90 1a 60
        E 120 80 1a 00
        E 360 90 1a 60
        E 120 80 1a 00
        E 360 90 1a 60
        E 120 80 1a 00
        E 360 90 1a 60
        E 120 80 1a 00
        E 360 90 1a 60
        E 120 80 1a 00
        E 360 90 1a 60
        E 120 80 1a 00
        E 360 90 1a 60
        E 120 80 1a 00
        E 360 90 1a 60
        E 120 80 1a 00
        E 360 90 1a 60
        E 120 80 1a 00
        E 360 90 1a 60
        E 120 80 1a 00
        E 360 90 19 60
        E 120 80 19 00
        E 0 90 18 60
        E 120 80 18 00
        E 120 90 18 60
        E 120 80 18 00
        E 0 90 19 60
        E 120 80 19 00
        E 0 90 18 60
        E 120 80 18 00
        E 120 90 18 60
        E 120 80 18 00
        E 0 90 19 60
        E 120 80 19 00
        E 120 90 18 60
        E 120 80 18 00
        E 120 90 19 60
        E 120 80 19 00
        E 0 90 19 60
        E 120 80 19 00
        E 0 90 19 60
        E 120 80 19 00
        E 0 90 19 60
        <X 120 0
          /wFbcHJjX3ZlcnNlXzNhXQ==
        >
        E 0 80 19 00
        E 0 90 18 60
        E 0 90 1a 60
        E 120 80 18 00
        E 0 80 1a 00
        E 360 90 19 60
        E 0 90 1a 60
        E 120 80 19 00
        E 0 80 1a 00
        E 360 90 18 60
        E 0 90 1a 60
        E 120 80 18 00
        E 0 80 1a 00
        E 120 90 18 60
        E 120 80 18 00
        E 120 90 19 60
        E 0 90 1a 60
        E 120 80 19 00
        E 0 80 1a 00
        E 360 90 18 60
        E 0 90 1a 60
        E 120 80 18 00
        E 0 80 1a 00
        E 360 90 19 60
        E 0 90 1a 60
        E 120 80 19 00
        E 0 80 1a 00
        E 120 90 18 60
        E 120 80 18 00
        E 120 90 1a 60
        E 120 80 1a 00
        E 120 90 18 60
        E 120 80 18 00
        E 120 90 19 60
        E 0 90 1a 60
        E 120 80 19 00
        E 0 80 1a 00
        E 120 90 18 60
        E 120 80 18 00
        E 120 90 1a 60
        E 120 80 1a 00
        E 120 90 18 60
        E 120 80 18 00
        E 120 90 19 60
        E 0 90 1a 60
        E 120 80 19 00
        E 0 80 1a 00
        E 120 90 18 60
        E 120 80 18 00
        E 120 90 18 60
        E 0 90 1a 60
        E 120 80 18 00
        E 0 80 1a 00
        E 120 90 18 60
        E 120 80 18 00
        E 120 90 19 60
        E 0 90 1a 60
        E 120 80 19 00
        E 0 80 1a 00
        E 360 90 18 60
        E 0 90 1a 60
        E 120 80 18 00
        E 0 80 1a 00
        E 120 90 18 60
        E 120 80 18 00
        E 120 90 19 60
        E 0 90 1a 60
        E 120 80 19 00
        E 0 80 1a 00
        E 120 90 18 60
        E 120 80 18 00
        E 120 90 1a 60
        E 120 80 1a 00
        E 120 90 18 60
        E 120 80 18 00
        E 120 90 19 60
        E 0 90 1a 60
        E 120 80 19 00
        E 0 80 1a 00
        E 360 90 18 60
        E 0 90 1a 60
        E 120 80 18 00
        E 0 80 1a 00
        E 360 90 19 60
        E 0 90 1a 60
        E 120 80 19 00
        E 0 80 1a 00
        E 360 90 18 60
        E 0 90 1a 60
        E 120 80 18 00
        E 0 80 1a 00
        E 120 90 18 60
        E 120 80 18 00
        E 120 90 19 60
        E 0 90 1a 60
        E 120 80 19 00
        E 0 80 1a 00
        E 360 90 18 60
        E 0 90 1a 60
        E 120 80 18 00
        E 0 80 1a 00
        E 360 90 19 60
        E 0 90 1a 60
        E 120 80 19 00
        E 0 80 1a 00
        E 120 90 18 60
        E 120 80 18 00
        E 120 90 1a 60
        E 120 80 1a 00
        E 120 90 18 60
        E 120 80 18 00
        E 120 90 19 60
        E 0 90 1a 60
        E 120 80 19 00
        E 0 80 1a 00
        E 120 90 18 60
        E 120 80 18 00
        E 120 90 1a 60
        E 120 80 1a 00
        E 120 90 18 60
        E 120 80 18 00
        E 120 90 19 60
        E 0 90 1a 60
        E 120 80 19 00
        E 0 80 1a 00
        E 120 90 18 60
        E 120 80 18 00
        E 120 90 18 60
        E 0 90 1a 60
        E 120 80 18 00
        E 0 80 1a 00
        E 120 90 18 60
        E 120 80 18 00
        E 120 90 19 60
        E 0 90 1a 60
        E 120 80 19 00
        E 0 80 1a 00
        E 360 90 18 60
        E 0 90 1a 60
        E 120 80 18 00
        E 0 80 1a 00
        E 120 90 18 60
        E 120 80 18 00
        E 120 90 19 60
        E 0 90 1a 60
        E 120 80 19 00
        E 0 80 1a 00
        E 120 90 18 60
        E 120 80 18 00
        E 120 90 19 60
        E 0 90 1a 60
        E 120 80 19 00
        E 0 80 1a 00
        E 120 90 18 60
        E 120 80 18 00
        E 120 90 19 60
        E 0 90 1a 60
        E 120 80 19 00
        E 0 80 1a 00
        E 120 90 19 60
        E 120 80 19 00
        E 120 90 18 60
        E 0 90 1a 60
        E 120 80 18 00
        E 0 80 1a 00
        E 360 90 19 60
        E 0 90 1a 60
        E 120 80 19 00
        E 0 80 1a 00
        E 360 90 18 60
        E 0 90 1a 60
        E 120 80 18 00
        E 0 80 1a 00
        E 120 90 18 60
        E 120 80 18 00
        E 120 90 19 60
        E 0 90 1a 60
        E 120 80 19 00
        E 0 80 1a 00
        E 360 90 18 60
        E 0 90 1a 60
        E 120 80 18 00
        E 0 80 1a 00
        E 360 90 19 60
        E 0 90 1a 60
        E 120 80 19 00
        E 0 80 1a 00
        E 120 90 18 60
        E 120 80 18 00
        E 120 90 1a 60
        E 120 80 1a 00
        E 120 90 18 60
        E 120 80 18 00
        E 120 90 19 60
        E 0 90 1a 60
        E 120 80 19 00
        E 0 80 1a 00
        E 120 90 18 60
        E 120 80 18 00
        E 120 90 1a 60
        E 120 80 1a 00
        E 120 90 18 60
        E 120 80 18 00
        E 120 90 19 60
        E 0 90 1a 60
        E 120 80 19 00
        E 0 80 1a 00
        E 120 90 18 60
        E 120 80 18 00
        E 120 90 18 60
        E 0 90 1a 60
        E 120 80 18 00
        E 0 80 1a 00
        E 120 90 18 60
        E 120 80 18 00
        E 120 90 19 60
        E 0 90 1a 60
        E 120 80 19 00
        E 0 80 1a 00
        E 360 90 18 60
        E 0 90 1a 60
        E 120 80 18 00
        E 0 80 1a 00
        E 120 90 18 60
        E 120 80 18 00
        E 120 90 19 60
        E 0 90 1a 60
        E 120 80 19 00
        E 0 80 1a 00
        E 120 90 18 60
        E 120 80 18 00
        E 120 90 1a 60
        E 120 80 1a 00
        E 120 90 18 60
        E 120 80 18 00
        E 120 90 19 60
        E 120 80 19 00
        E 120 90 19 60
        E 120 80 19 00
        E 0 90 19 60
        E 120 80 19 00
        E 0 90 18 60
        E 0 90 1a 60
        E 120 80 18 00
        E 0 80 1a 00
        E 120 90 18 60
        E 120 80 18 00
        E 120 90 1a 60
        E 120 80 1a 00
        E 120 90 18 60
        E 120 80 18 00
        E 120 90 19 60
        E 0 90 1a 60
        E 120 80 19 00
        E 0 80 1a 00
        E 120 90 18 60
        E 120 80 18 00
        E 120 90 18 60
        E 0 90 1a 60
        E 120 80 18 00
        E 0 80 1a 00
        E 120 90 18 60
        E 120 80 18 00
        E 120 90 1a 60
        E 120 80 1a 00
        E 120 90 18 60
        E 120 80 18 00
        E 120 90 1a 60
        E 120 80 1a 00
        E 120 90 18 60
        E 120 80 18 00
        E 120 90 19 60
        E 0 90 1a 60
        E 120 80 19 00
        E 0 80 1a 00
        E 120 90 18 60
        E 120 80 18 00
        E 120 90 1a 60
        E 120 80 1a 00
        E 120 90 18 60
        E 120 80 18 00
        E 120 90 18 60
        E 0 90 1a 60
        E 120 80 18 00
        E 0 80 1a 00
        E 120 90 18 60
        E 120 80 18 00
        E 120 90 1a 60
        E 120 80 1a 00
        E 120 90 18 60
        E 120 80 18 00
        E 120 90 19 60
        E 0 90 1a 60
        E 120 80 19 00
        E 0 80 1a 00
        E 0 90 19 60
        E 120 80 19 00
        E 0 90 18 60
        E 120 80 18 00
        E 120 90 1a 60
        E 120 80 1a 00
        E 120 90 18 60
        E 0 90 19 60
        E 120 80 18 00
        E 0 80 19 00
        E 120 90 1a 60
        E 120 80 1a 00
        E 360 90 1a 60
        E 120 80 1a 00
        E 360 90 1a 60
        E 120 80 1a 00
        E 360 90 18 60
        E 0 90 19 60
        E 0 90 1a 60
        E 120 80 18 00
        E 0 80 19 00
        E 0 80 1a 00
        E 120 90 18 60
        E 120 80 18 00
        <X 120 0
          /wFbY3Jvd2Rfbm9ybWFsXQ==
        >
        <X 0 0
          /wFbcHJjX3ZlcnNlXzNiXQ==
        >
        <X 0 0
          /wFbY3Jvd2Rfbm9jbGFwXQ==
        >
        E 0 90 18 60
        E 0 90 1a 60
        E 120 80 18 00
        E 0 80 1a 00
        E 120 90 18 60
        E 120 80 18 00
        E 120 90 19 60
        E 0 90 1a 60
        E 120 80 19 00
        E 0 80 1a 00
        E 120 90 18 60
        E 120 80 18 00
        E 120 90 18 60
        E 0 90 1a 60
        E 120 80 18 00
        E 0 80 1a 00
        E 120 90 18 60
        E 120 80 18 00
        E 120 90 19 60
        E 0 90 1a 60
        E 120 80 19 00
        E 0 80 1a 00
        E 120 90 18 60
        E 120 80 18 00
        E 120 90 1a 60
        E 120 80 1a 00
        E 120 90 18 60
        E 120 80 18 00
        E 120 90 19 60
        E 0 90 1a 60
        E 120 80 19 00
        E 0 80 1a 00
        E 360 90 18 60
        E 0 90 1a 60
        E 120 80 18 00
        E 0 80 1a 00
        E 120 90 18 60
        E 120 80 18 00
        E 120 90 19 60
        E 0 90 1a 60
        E 120 80 19 00
        E 0 80 1a 00
        E 120 90 18 60
        E 120 80 18 00
        E 120 90 1a 60
        E 120 80 1a 00
        E 120 90 18 60
        E 120 80 18 00
        E 120 90 19 60
        E 0 90 1a 60
        E 120 80 19 00
        E 0 80 1a 00
        E 120 90 18 60
        E 120 80 18 00
        E 120 90 18 60
        E 0 90 1a 60
        E 120 80 18 00
        E 0 80 1a 00
        E 120 90 18 60
        E 120 80 18 00
        E 120 90 19 60
        E 0 90 1a 60
        E 120 80 19 00
        E 0 80 1a 00
        E 120 90 18 60
        E 120 80 18 00
        E 120 90 18 60
        E 0 90 1a 60
        E 120 80 18 00
        E 0 80 1a 00
        E 120 90 18 60
        E 120 80 18 00
        E 120 90 19 60
        E 0 90 1a 60
        E 120 80 19 00
        E 0 80 1a 00
        E 120 90 18 60
        E 120 80 18 00
        E 0 90 18 60
        E 120 80 18 00
        E 0 90 19 60
        E 0 90 1a 60
        E 120 80 19 00
        E 0 80 1a 00
        E 120 90 18 60
        E 120 80 18 00
        E 120 90 19 60
        E 0 90 1a 60
        E 120 80 19 00
        E 0 80 1a 00
        E 120 90 19 60
        E 120 80 19 00
        E 120 90 18 60
        E 0 90 1a 60
        E 120 80 18 00
        E 0 80 1a 00
        E 120 90 18 60
        E 120 80 18 00
        E 120 90 19 60
        E 0 90 1a 60
        E 120 80 19 00
        E 0 80 1a 00
        E 120 90 18 60
        E 120 80 18 00
        E 120 90 18 60
        E 0 90 1a 60
        E 120 80 18 00
        E 0 80 1a 00
        E 120 90 18 60
        E 120 80 18 00
        E 120 90 19 60
        E 0 90 1a 60
        E 120 80 19 00
        E 0 80 1a 00
        E 120 90 18 60
        E 120 80 18 00
        E 120 90 1a 60
        E 120 80 1a 00
        E 120 90 18 60
        E 120 80 18 00
        E 120 90 19 60
        E 0 90 1a 60
        E 120 80 19 00
        E 0 80 1a 00
        E 360 90 18 60
        E 0 90 1a 60
        E 120 80 18 00
        E 0 80 1a 00
        E 120 90 18 60
        E 120 80 18 00
        E 120 90 19 60
        E 0 90 1a 60
        E 120 80 19 00
        E 0 80 1a 00
        E 120 90 18 60
        E 120 80 18 00
        E 120 90 1a 60
        E 120 80 1a 00
        E 120 90 18 60
        E 120 80 18 00
        E 120 90 19 60
        E 0 90 1a 60
        E 120 80 19 00
        E 0 80 1a 00
        E 120 90 18 60
        E 120 80 18 00
        E 120 90 18 60
        E 0 90 1a 60
        E 120 80 18 00
        E 0 80 1a 00
        E 120 90 18 60
        E 120 80 18 00
        E 120 90 19 60
        E 0 90 1a 60
        E 120 80 19 00
        E 0 80 1a 00
        E 120 90 18 60
        E 120 80 18 00
        E 120 90 18 60
        E 0 90 1a 60
        E 120 80 18 00
        E 0 80 1a 00
        E 120 90 18 60
        E 120 80 18 00
        E 120 90 19 60
        E 0 90 1a 60
        E 120 80 19 00
        E 0 80 1a 00
        E 120 90 18 60
        E 120 80 18 00
        E 0 90 18 60
        E 120 80 18 00
        E 0 90 19 60
        E 0 90 1a 60
        E 120 80 19 00
        E 0 80 1a 00
        E 120 90 18 60
        E 120 80 18 00
        E 120 90 19 60
        E 0 90 1a 60
        E 120 80 19 00
        E 0 80 1a 00
        E 120 90 19 60
        E 120 80 19 00
        <X 120 0
          /wFbcHJjX291dHJvXQ==
        >
        E 0 90 18 60
        E 0 90 1a 60
        E 120 80 18 00
        E 0 80 1a 00
        E 120 90 18 60
        E 120 80 18 00
        E 120 90 19 60
        E 0 90 1a 60
        E 120 80 19 00
        E 0 80 1a 00
        E 120 90 18 60
        E 120 80 18 00
        E 120 90 18 60
        E 0 90 1a 60
        E 120 80 18 00
        E 0 80 1a 00
        E 120 90 18 60
        E 120 80 18 00
        E 120 90 19 60
        E 0 90 1a 60
        E 120 80 19 00
        E 0 80 1a 00
        E 120 90 18 60
        E 120 80 18 00
        E 120 90 1a 60
        E 120 80 1a 00
        E 120 90 18 60
        E 120 80 18 00
        E 120 90 19 60
        E 0 90 1a 60
        E 120 80 19 00
        E 0 80 1a 00
        E 360 90 18 60
        E 0 90 1a 60
        E 120 80 18 00
        E 0 80 1a 00
        E 120 90 18 60
        E 120 80 18 00
        E 120 90 19 60
        E 0 90 1a 60
        E 120 80 19 00
        E 0 80 1a 00
        E 120 90 18 60
        E 120 80 18 00
        E 120 90 1a 60
        E 120 80 1a 00
        E 120 90 18 60
        E 120 80 18 00
        E 120 90 19 60
        E 0 90 1a 60
        E 120 80 19 00
        E 0 80 1a 00
        E 120 90 18 60
        E 120 80 18 00
        E 120 90 18 60
        E 0 90 1a 60
        E 120 80 18 00
        E 0 80 1a 00
        E 120 90 18 60
        E 120 80 18 00
        E 120 90 19 60
        E 0 90 1a 60
        E 120 80 19 00
        E 0 80 1a 00
        E 120 90 18 60
        E 120 80 18 00
        E 120 90 18 60
        E 0 90 1a 60
        E 120 80 18 00
        E 0 80 1a 00
        E 120 90 18 60
        E 120 80 18 00
        E 120 90 19 60
        E 0 90 1a 60
        E 120 80 19 00
        E 0 80 1a 00
        E 120 90 18 60
        E 120 80 18 00
        E 0 90 18 60
        E 120 80 18 00
        E 0 90 19 60
        E 0 90 1a 60
        E 120 80 19 00
        E 0 80 1a 00
        E 120 90 18 60
        E 120 80 18 00
        E 120 90 19 60
        E 0 90 1a 60
        E 120 80 19 00
        E 0 80 1a 00
        E 120 90 19 60
        E 120 80 19 00
        E 0 90 19 60
        E 120 80 19 00
        E 0 90 18 60
        E 0 90 1a 60
        E 120 80 18 00
        E 0 80 1a 00
        E 120 90 18 60
        E 120 80 18 00
        E 120 90 19 60
        E 0 90 1a 60
        E 120 80 19 00
        E 0 80 1a 00
        E 120 90 18 60
        E 120 80 18 00
        E 120 90 18 60
        E 0 90 1a 60
        E 120 80 18 00
        E 0 80 1a 00
        E 120 90 18 60
        E 120 80 18 00
        E 120 90 19 60
        E 0 90 1a 60
        E 120 80 19 00
        E 0 80 1a 00
        E 120 90 18 60
        E 120 80 18 00
        E 120 90 1a 60
        E 120 80 1a 00
        E 120 90 18 60
        E 120 80 18 00
        E 120 90 19 60
        E 0 90 1a 60
        E 120 80 19 00
        E 0 80 1a 00
        E 360 90 18 60
        E 0 90 1a 60
        E 120 80 18 00
        E 0 80 1a 00
        E 120 90 18 60
        E 120 80 18 00
        E 120 90 19 60
        E 0 90 1a 60
        E 120 80 19 00
        E 0 80 1a 00
        E 120 90 18 60
        E 0 90 19 60
        E 120 80 18 00
        E 0 80 19 00
        E 120 90 1a 60
        E 120 80 1a 00
        E 120 90 18 60
        E 120 80 18 00
        E 120 90 19 60
        E 0 90 1a 60
        E 120 80 19 00
        E 0 80 1a 00
        E 120 90 18 60
        E 0 90 19 60
        E 120 80 18 00
        E 0 80 19 00
        E 120 90 18 60
        E 0 90 1a 60
        E 120 80 18 00
        E 0 80 1a 00
        E 120 90 18 60
        E 0 90 19 60
        E 120 80 18 00
        E 0 80 19 00
        E 120 90 19 60
        E 0 90 1a 60
        E 120 80 19 00
        E 0 80 1a 00
        E 120 90 18 60
        E 120 80 18 00
        E 120 90 18 60
        E 0 90 1a 60
        E 120 80 18 00
        E 0 80 1a 00
        E 120 90 18 60
        E 120 80 18 00
        E 120 90 19 60
        E 0 90 1a 60
        E 120 80 19 00
        E 0 80 1a 00
        E 120 90 18 60
        E 120 80 18 00
        E 0 90 18 60
        E 120 80 18 00
        E 0 90 19 60
        E 120 80 19 00
        E 0 90 19 60
        E 120 80 19 00
        E 0 90 18 60
        E 0 90 19 60
        E 120 80 18 00
        E 0 80 19 00
        E 0 90 19 60
        E 120 80 19 00
        E 0 90 1a 60
        E 120 80 1a 00
        E 0 90 19 60
        E 120 80 19 00
        E 0 90 19 60
        E 120 80 19 00
        E 0 90 19 60
        <X 120 0
          /wFbY3Jvd2RfcmVhbHRpbWVd
        >
        E 0 80 19 00
        E 0 90 18 60
        E 0 90 1a 60
        E 120 80 18 00
        E 0 80 1a 00
        <X 840 0
          /wFbbXVzaWNfZW5kXQ==
        >
        <X 12475 0
          /wFbZW5kXQ==
        >
        E 5 b0 7b 00
        GUID {C7503C7F-51F0-4890-B112-464A04CC3803}
        IGNTEMPO 0 120.00000000 4 4
        SRCCOLOR 15
        VELLANE 132 71 60
        COLORMAP "C:\Program Files\REAPER (x64)\Data\color_maps\rockband_guitarbass.png"
        CFGEDITVIEW 0.000000 2.743318 0 48 0 0 0
        CFGEDIT 1 1 0 1 1 0 1 1 1 1 1 0.25000000 100 100 1200 800 0 2 2 1 0.00000000 0 1 1 0 0.500000 0 0 1.000000 64
        KEYSNAP 0 6 "102030050700" 0 "Pentatonic"
        EVTFILTER 0 -1 -1 -1 -1 0 1 0 0 -1.00000000 -1.00000000
      >
    >
  >
  <TRACK '{BBA0CDFA-574D-4E90-AAD1-0D701718E5C5}'
    NAME "BEAT"
    PEAKCOL 16576
    BEAT -1
    AUTOMODE 0
    VOLPAN 1.00000000000000 0.00000000000000 -1.00000000000000 -1.00000000000000 1.00000000000000
    MUTESOLO 0 0 0
    IPHASE 0
    ISBUS 0 0
    BUSCOMP 0 0
    SHOWINMIX 1 0.666700 0.500000 1 0.500000 -1 -1 -1
    FREEMODE 0
    SEL 0
    REC 0 0 0 0 0 0 0
    VU 2
    TRACKHEIGHT 0 0
    INQ 0 0 0 0.5000000000 100 0 0 100
    NCHAN 2
    FX 1
    TRACKID {BBA0CDFA-574D-4E90-AAD1-0D701718E5C5}
    PERF 0
    MIDIOUT -1
    <MIDINOTENAMES
      0 13 "Up Beats"
      0 12 "Downbeat"
    >
    MAINSEND 1 0
    <FXCHAIN
      SHOW 0
      LASTSEL 0
      DOCKED 0
    >
    <ITEM
      POSITION 0.00000000000000
      SNAPOFFS 0.00000000000000
      LENGTH 249.33300000000000
      LOOP 0
      ALLTAKES 0
      SEL 0
      FADEIN 1 0.000000 0.000000 1 0
      FADEOUT 1 0.000000 0.000000 1 0
      MUTE 0
      IGUID {DA185D89-471B-4AD5-A0DB-B02F73564F0C}
      IID 14
      NAME "BEAT"
      VOLPAN 1.000000 0.000000 1.000000 -1.000000
      SOFFS 0.00000000000000 0.00000000000000
      PLAYRATE 1.00000000000000 1 0.00000000000000 -1
      CHANMODE 0
      GUID {37312476-894C-4C7A-A6F7-2D103BF5244A}
      <SOURCE MIDI
        HASDATA 1 480 QN
        POOLEDEVTS {69FE17EE-F9E1-464F-A876-9570325BF4C0}
        <X 0 0
          /wNCRUFU
        >
        E 0 90 0c 60
        E 120 80 0c 00
        E 360 90 0d 60
        E 120 80 0d 00
        E 360 90 0d 60
        E 120 80 0d 00
        E 360 90 0d 60
        E 120 80 0d 00
        E 360 90 0c 60
        E 120 80 0c 00
        E 359 90 0d 60
        E 121 80 0d 00
        E 359 90 0d 60
        E 121 80 0d 00
        E 360 90 0d 60
        E 120 80 0d 00
        E 360 90 0c 60
        E 120 80 0c 00
        E 359 90 0d 60
        E 121 80 0d 00
        E 359 90 0d 60
        E 121 80 0d 00
        E 360 90 0d 60
        E 120 80 0d 00
        E 360 90 0c 60
        E 120 80 0c 00
        E 359 90 0d 60
        E 121 80 0d 00
        E 359 90 0d 60
        E 121 80 0d 00
        E 360 90 0d 60
        E 120 80 0d 00
        E 360 90 0c 60
        E 120 80 0c 00
        E 360 90 0d 60
        E 120 80 0d 00
        E 360 90 0d 60
        E 120 80 0d 00
        E 360 90 0d 60
        E 120 80 0d 00
        E 360 90 0c 60
        E 120 80 0c 00
        E 359 90 0d 60
        E 121 80 0d 00
        E 359 90 0d 60
        E 121 80 0d 00
        E 360 90 0d 60
        E 120 80 0d 00
        E 360 90 0c 60
        E 120 80 0c 00
        E 359 90 0d 60
        E 121 80 0d 00
        E 359 90 0d 60
        E 121 80 0d 00
        E 360 90 0d 60
        E 120 80 0d 00
        E 360 90 0c 60
        E 120 80 0c 00
        E 359 90 0d 60
        E 121 80 0d 00
        E 359 90 0d 60
        E 121 80 0d 00
        E 360 90 0d 60
        E 120 80 0d 00
        E 360 90 0c 60
        E 120 80 0c 00
        E 360 90 0d 60
        E 120 80 0d 00
        E 360 90 0d 60
        E 120 80 0d 00
        E 360 90 0d 60
        E 120 80 0d 00
        E 360 90 0c 60
        E 120 80 0c 00
        E 359 90 0d 60
        E 121 80 0d 00
        E 359 90 0d 60
        E 121 80 0d 00
        E 360 90 0d 60
        E 120 80 0d 00
        E 360 90 0c 60
        E 120 80 0c 00
        E 359 90 0d 60
        E 121 80 0d 00
        E 359 90 0d 60
        E 121 80 0d 00
        E 360 90 0d 60
        E 120 80 0d 00
        E 360 90 0c 60
        E 120 80 0c 00
        E 359 90 0d 60
        E 121 80 0d 00
        E 359 90 0d 60
        E 121 80 0d 00
        E 360 90 0d 60
        E 120 80 0d 00
        E 360 90 0c 60
        E 120 80 0c 00
        E 360 90 0d 60
        E 120 80 0d 00
        E 360 90 0d 60
        E 120 80 0d 00
        E 360 90 0d 60
        E 120 80 0d 00
        E 360 90 0c 60
        E 120 80 0c 00
        E 359 90 0d 60
        E 121 80 0d 00
        E 359 90 0d 60
        E 121 80 0d 00
        E 360 90 0d 60
        E 120 80 0d 00
        E 360 90 0c 60
        E 120 80 0c 00
        E 359 90 0d 60
        E 121 80 0d 00
        E 359 90 0d 60
        E 121 80 0d 00
        E 360 90 0d 60
        E 120 80 0d 00
        E 360 90 0c 60
        E 120 80 0c 00
        E 359 90 0d 60
        E 121 80 0d 00
        E 359 90 0d 60
        E 121 80 0d 00
        E 360 90 0d 60
        E 120 80 0d 00
        E 360 90 0c 60
        E 120 80 0c 00
        E 360 90 0d 60
        E 120 80 0d 00
        E 360 90 0d 60
        E 120 80 0d 00
        E 360 90 0d 60
        E 120 80 0d 00
        E 360 90 0c 60
        E 120 80 0c 00
        E 359 90 0d 60
        E 121 80 0d 00
        E 359 90 0d 60
        E 121 80 0d 00
        E 360 90 0d 60
        E 120 80 0d 00
        E 360 90 0c 60
        E 120 80 0c 00
        E 359 90 0d 60
        E 121 80 0d 00
        E 359 90 0d 60
        E 121 80 0d 00
        E 360 90 0d 60
        E 120 80 0d 00
        E 360 90 0c 60
        E 120 80 0c 00
        E 359 90 0d 60
        E 121 80 0d 00
        E 359 90 0d 60
        E 121 80 0d 00
        E 360 90 0d 60
        E 120 80 0d 00
        E 360 90 0c 60
        E 120 80 0c 00
        E 360 90 0d 60
        E 120 80 0d 00
        E 360 90 0d 60
        E 120 80 0d 00
        E 360 90 0d 60
        E 120 80 0d 00
        E 360 90 0c 60
        E 120 80 0c 00
        E 359 90 0d 60
        E 121 80 0d 00
        E 359 90 0d 60
        E 121 80 0d 00
        E 360 90 0d 60
        E 120 80 0d 00
        E 360 90 0c 60
        E 120 80 0c 00
        E 359 90 0d 60
        E 121 80 0d 00
        E 359 90 0d 60
        E 121 80 0d 00
        E 360 90 0d 60
        E 120 80 0d 00
        E 360 90 0c 60
        E 120 80 0c 00
        E 359 90 0d 60
        E 121 80 0d 00
        E 359 90 0d 60
        E 121 80 0d 00
        E 360 90 0d 60
        E 120 80 0d 00
        E 360 90 0c 60
        E 120 80 0c 00
        E 360 90 0d 60
        E 120 80 0d 00
        E 360 90 0d 60
        E 120 80 0d 00
        E 360 90 0d 60
        E 120 80 0d 00
        E 360 90 0c 60
        E 120 80 0c 00
        E 359 90 0d 60
        E 121 80 0d 00
        E 359 90 0d 60
        E 121 80 0d 00
        E 360 90 0d 60
        E 120 80 0d 00
        E 360 90 0c 60
        E 120 80 0c 00
        E 359 90 0d 60
        E 121 80 0d 00
        E 359 90 0d 60
        E 121 80 0d 00
        E 360 90 0d 60
        E 120 80 0d 00
        E 360 90 0c 60
        E 120 80 0c 00
        E 359 90 0d 60
        E 121 80 0d 00
        E 359 90 0d 60
        E 121 80 0d 00
        E 360 90 0d 60
        E 120 80 0d 00
        E 360 90 0c 60
        E 120 80 0c 00
        E 360 90 0d 60
        E 120 80 0d 00
        E 360 90 0d 60
        E 120 80 0d 00
        E 360 90 0d 60
        E 120 80 0d 00
        E 360 90 0c 60
        E 120 80 0c 00
        E 359 90 0d 60
        E 121 80 0d 00
        E 359 90 0d 60
        E 121 80 0d 00
        E 360 90 0d 60
        E 120 80 0d 00
        E 360 90 0c 60
        E 120 80 0c 00
        E 359 90 0d 60
        E 121 80 0d 00
        E 359 90 0d 60
        E 121 80 0d 00
        E 360 90 0d 60
        E 120 80 0d 00
        E 360 90 0c 60
        E 120 80 0c 00
        E 359 90 0d 60
        E 121 80 0d 00
        E 359 90 0d 60
        E 121 80 0d 00
        E 360 90 0d 60
        E 120 80 0d 00
        E 360 90 0c 60
        E 120 80 0c 00
        E 360 90 0d 60
        E 120 80 0d 00
        E 360 90 0d 60
        E 120 80 0d 00
        E 360 90 0d 60
        E 120 80 0d 00
        E 360 90 0c 60
        E 120 80 0c 00
        E 359 90 0d 60
        E 121 80 0d 00
        E 359 90 0d 60
        E 121 80 0d 00
        E 360 90 0d 60
        E 120 80 0d 00
        E 360 90 0c 60
        E 120 80 0c 00
        E 359 90 0d 60
        E 121 80 0d 00
        E 359 90 0d 60
        E 121 80 0d 00
        E 360 90 0d 60
        E 120 80 0d 00
        E 360 90 0c 60
        E 120 80 0c 00
        E 359 90 0d 60
        E 121 80 0d 00
        E 359 90 0d 60
        E 121 80 0d 00
        E 360 90 0d 60
        E 120 80 0d 00
        E 360 90 0c 60
        E 120 80 0c 00
        E 360 90 0d 60
        E 120 80 0d 00
        E 360 90 0d 60
        E 120 80 0d 00
        E 360 90 0d 60
        E 120 80 0d 00
        E 360 90 0c 60
        E 120 80 0c 00
        E 359 90 0d 60
        E 121 80 0d 00
        E 359 90 0d 60
        E 121 80 0d 00
        E 360 90 0d 60
        E 120 80 0d 00
        E 360 90 0c 60
        E 120 80 0c 00
        E 359 90 0d 60
        E 121 80 0d 00
        E 359 90 0d 60
        E 121 80 0d 00
        E 360 90 0d 60
        E 120 80 0d 00
        E 360 90 0c 60
        E 120 80 0c 00
        E 359 90 0d 60
        E 121 80 0d 00
        E 359 90 0d 60
        E 121 80 0d 00
        E 360 90 0d 60
        E 120 80 0d 00
        E 360 90 0c 60
        E 120 80 0c 00
        E 360 90 0d 60
        E 120 80 0d 00
        E 360 90 0d 60
        E 120 80 0d 00
        E 360 90 0d 60
        E 120 80 0d 00
        E 360 90 0c 60
        E 120 80 0c 00
        E 359 90 0d 60
        E 121 80 0d 00
        E 359 90 0d 60
        E 121 80 0d 00
        E 360 90 0d 60
        E 120 80 0d 00
        E 360 90 0c 60
        E 120 80 0c 00
        E 359 90 0d 60
        E 121 80 0d 00
        E 359 90 0d 60
        E 121 80 0d 00
        E 360 90 0d 60
        E 120 80 0d 00
        E 360 90 0c 60
        E 120 80 0c 00
        E 359 90 0d 60
        E 121 80 0d 00
        E 359 90 0d 60
        E 121 80 0d 00
        E 360 90 0d 60
        E 120 80 0d 00
        E 360 90 0c 60
        E 120 80 0c 00
        E 360 90 0d 60
        E 120 80 0d 00
        E 360 90 0d 60
        E 120 80 0d 00
        E 360 90 0d 60
        E 120 80 0d 00
        E 360 90 0c 60
        E 120 80 0c 00
        E 359 90 0d 60
        E 121 80 0d 00
        E 359 90 0d 60
        E 121 80 0d 00
        E 360 90 0d 60
        E 120 80 0d 00
        E 360 90 0c 60
        E 120 80 0c 00
        E 359 90 0d 60
        E 121 80 0d 00
        E 359 90 0d 60
        E 121 80 0d 00
        E 360 90 0d 60
        E 120 80 0d 00
        E 360 90 0c 60
        E 120 80 0c 00
        E 359 90 0d 60
        E 121 80 0d 00
        E 359 90 0d 60
        E 121 80 0d 00
        E 360 90 0d 60
        E 120 80 0d 00
        E 360 90 0c 60
        E 120 80 0c 00
        E 360 90 0d 60
        E 120 80 0d 00
        E 360 90 0d 60
        E 120 80 0d 00
        E 360 90 0d 60
        E 120 80 0d 00
        E 360 90 0c 60
        E 120 80 0c 00
        E 359 90 0d 60
        E 121 80 0d 00
        E 359 90 0d 60
        E 121 80 0d 00
        E 360 90 0d 60
        E 120 80 0d 00
        E 360 90 0c 60
        E 120 80 0c 00
        E 359 90 0d 60
        E 121 80 0d 00
        E 359 90 0d 60
        E 121 80 0d 00
        E 360 90 0d 60
        E 120 80 0d 00
        E 360 90 0c 60
        E 120 80 0c 00
        E 359 90 0d 60
        E 121 80 0d 00
        E 359 90 0d 60
        E 121 80 0d 00
        E 360 90 0d 60
        E 120 80 0d 00
        E 360 90 0c 60
        E 120 80 0c 00
        E 360 90 0d 60
        E 120 80 0d 00
        E 360 90 0d 60
        E 120 80 0d 00
        E 360 90 0d 60
        E 120 80 0d 00
        E 360 90 0c 60
        E 120 80 0c 00
        E 359 90 0d 60
        E 121 80 0d 00
        E 359 90 0d 60
        E 121 80 0d 00
        E 360 90 0d 60
        E 120 80 0d 00
        E 360 90 0c 60
        E 120 80 0c 00
        E 359 90 0d 60
        E 121 80 0d 00
        E 359 90 0d 60
        E 121 80 0d 00
        E 360 90 0d 60
        E 120 80 0d 00
        E 360 90 0c 60
        E 120 80 0c 00
        E 359 90 0d 60
        E 121 80 0d 00
        E 359 90 0d 60
        E 121 80 0d 00
        E 360 90 0d 60
        E 120 80 0d 00
        E 360 90 0c 60
        E 120 80 0c 00
        E 360 90 0d 60
        E 120 80 0d 00
        E 360 90 0d 60
        E 120 80 0d 00
        E 360 90 0d 60
        E 120 80 0d 00
        E 360 90 0c 60
        E 120 80 0c 00
        E 359 90 0d 60
        E 121 80 0d 00
        E 359 90 0d 60
        E 121 80 0d 00
        E 360 90 0d 60
        E 120 80 0d 00
        E 360 90 0c 60
        E 120 80 0c 00
        E 359 90 0d 60
        E 121 80 0d 00
        E 359 90 0d 60
        E 121 80 0d 00
        E 360 90 0d 60
        E 120 80 0d 00
        E 360 90 0c 60
        E 120 80 0c 00
        E 359 90 0d 60
        E 121 80 0d 00
        E 359 90 0d 60
        E 121 80 0d 00
        E 360 90 0d 60
        E 120 80 0d 00
        E 360 90 0c 60
        E 120 80 0c 00
        E 360 90 0d 60
        E 120 80 0d 00
        E 360 90 0d 60
        E 120 80 0d 00
        E 360 90 0d 60
        E 120 80 0d 00
        E 360 90 0c 60
        E 120 80 0c 00
        E 359 90 0d 60
        E 121 80 0d 00
        E 359 90 0d 60
        E 121 80 0d 00
        E 360 90 0d 60
        E 120 80 0d 00
        E 360 90 0c 60
        E 120 80 0c 00
        E 359 90 0d 60
        E 121 80 0d 00
        E 359 90 0d 60
        E 121 80 0d 00
        E 360 90 0d 60
        E 120 80 0d 00
        E 360 90 0c 60
        E 120 80 0c 00
        E 359 90 0d 60
        E 121 80 0d 00
        E 359 90 0d 60
        E 121 80 0d 00
        E 360 90 0d 60
        E 120 80 0d 00
        E 360 90 0c 60
        E 120 80 0c 00
        E 360 90 0d 60
        E 120 80 0d 00
        E 360 90 0d 60
        E 120 80 0d 00
        E 360 90 0d 60
        E 120 80 0d 00
        E 360 90 0c 60
        E 120 80 0c 00
        E 359 90 0d 60
        E 121 80 0d 00
        E 359 90 0d 60
        E 121 80 0d 00
        E 360 90 0d 60
        E 120 80 0d 00
        E 360 90 0c 60
        E 120 80 0c 00
        E 359 90 0d 60
        E 121 80 0d 00
        E 359 90 0d 60
        E 121 80 0d 00
        E 360 90 0d 60
        E 120 80 0d 00
        E 360 90 0c 60
        E 120 80 0c 00
        E 359 90 0d 60
        E 121 80 0d 00
        E 359 90 0d 60
        E 121 80 0d 00
        E 360 90 0d 60
        E 120 80 0d 00
        E 360 90 0c 60
        E 120 80 0c 00
        E 360 90 0d 60
        E 120 80 0d 00
        E 360 90 0d 60
        E 120 80 0d 00
        E 360 90 0d 60
        E 120 80 0d 00
        E 360 90 0c 60
        E 120 80 0c 00
        E 359 90 0d 60
        E 121 80 0d 00
        E 359 90 0d 60
        E 121 80 0d 00
        E 360 90 0d 60
        E 120 80 0d 00
        E 360 90 0c 60
        E 120 80 0c 00
        E 359 90 0d 60
        E 121 80 0d 00
        E 359 90 0d 60
        E 121 80 0d 00
        E 360 90 0d 60
        E 120 80 0d 00
        E 360 90 0c 60
        E 120 80 0c 00
        E 359 90 0d 60
        E 121 80 0d 00
        E 359 90 0d 60
        E 121 80 0d 00
        E 360 90 0d 60
        E 120 80 0d 00
        E 360 90 0c 60
        E 120 80 0c 00
        E 360 90 0d 60
        E 120 80 0d 00
        E 360 90 0d 60
        E 120 80 0d 00
        E 360 90 0d 60
        E 120 80 0d 00
        E 360 90 0c 60
        E 120 80 0c 00
        E 359 90 0d 60
        E 121 80 0d 00
        E 359 90 0d 60
        E 121 80 0d 00
        E 360 90 0d 60
        E 120 80 0d 00
        E 360 90 0c 60
        E 120 80 0c 00
        E 359 90 0d 60
        E 121 80 0d 00
        E 359 90 0d 60
        E 121 80 0d 00
        E 360 90 0d 60
        E 120 80 0d 00
        E 360 90 0c 60
        E 120 80 0c 00
        E 359 90 0d 60
        E 121 80 0d 00
        E 359 90 0d 60
        E 121 80 0d 00
        E 360 90 0d 60
        E 120 80 0d 00
        E 360 90 0c 60
        E 120 80 0c 00
        E 360 90 0d 60
        E 120 80 0d 00
        E 360 90 0d 60
        E 120 80 0d 00
        E 360 90 0d 60
        E 120 80 0d 00
        E 360 90 0c 60
        E 120 80 0c 00
        E 359 90 0d 60
        E 121 80 0d 00
        E 359 90 0d 60
        E 121 80 0d 00
        E 360 90 0d 60
        E 120 80 0d 00
        E 360 90 0c 60
        E 120 80 0c 00
        E 359 90 0d 60
        E 121 80 0d 00
        E 359 90 0d 60
        E 121 80 0d 00
        E 360 90 0d 60
        E 120 80 0d 00
        E 360 90 0c 60
        E 120 80 0c 00
        E 359 90 0d 60
        E 121 80 0d 00
        E 359 90 0d 60
        E 121 80 0d 00
        E 360 90 0d 60
        E 120 80 0d 00
        E 360 90 0c 60
        E 120 80 0c 00
        E 360 90 0d 60
        E 120 80 0d 00
        E 360 90 0d 60
        E 120 80 0d 00
        E 360 90 0d 60
        E 120 80 0d 00
        E 360 90 0c 60
        E 120 80 0c 00
        E 359 90 0d 60
        E 121 80 0d 00
        E 359 90 0d 60
        E 121 80 0d 00
        E 360 90 0d 60
        E 120 80 0d 00
        E 360 90 0c 60
        E 120 80 0c 00
        E 359 90 0d 60
        E 121 80 0d 00
        E 359 90 0d 60
        E 121 80 0d 00
        E 360 90 0d 60
        E 120 80 0d 00
        E 360 90 0c 60
        E 120 80 0c 00
        E 359 90 0d 60
        E 121 80 0d 00
        E 359 90 0d 60
        E 121 80 0d 00
        E 360 90 0d 60
        E 120 80 0d 00
        E 360 90 0c 60
        E 120 80 0c 00
        E 360 90 0d 60
        E 120 80 0d 00
        E 360 90 0d 60
        E 120 80 0d 00
        E 360 90 0d 60
        E 120 80 0d 00
        E 360 90 0c 60
        E 120 80 0c 00
        E 359 90 0d 60
        E 121 80 0d 00
        E 359 90 0d 60
        E 121 80 0d 00
        E 360 90 0d 60
        E 120 80 0d 00
        E 360 90 0c 60
        E 120 80 0c 00
        E 359 90 0d 60
        E 121 80 0d 00
        E 359 90 0d 60
        E 121 80 0d 00
        E 360 90 0d 60
        E 120 80 0d 00
        E 360 90 0c 60
        E 120 80 0c 00
        E 359 90 0d 60
        E 121 80 0d 00
        E 359 90 0d 60
        E 121 80 0d 00
        E 360 90 0d 60
        E 120 80 0d 00
        E 360 90 0c 60
        E 120 80 0c 00
        E 360 90 0d 60
        E 120 80 0d 00
        E 360 90 0d 60
        E 120 80 0d 00
        E 360 90 0d 60
        E 120 80 0d 00
        E 360 90 0c 60
        E 120 80 0c 00
        E 359 90 0d 60
        E 121 80 0d 00
        E 359 90 0d 60
        E 121 80 0d 00
        E 360 90 0d 60
        E 120 80 0d 00
        E 360 90 0c 60
        E 120 80 0c 00
        E 359 90 0d 60
        E 121 80 0d 00
        E 359 90 0d 60
        E 121 80 0d 00
        E 360 90 0d 60
        E 120 80 0d 00
        E 360 90 0c 60
        E 120 80 0c 00
        E 359 90 0d 60
        E 121 80 0d 00
        E 359 90 0d 60
        E 121 80 0d 00
        E 360 90 0d 60
        E 120 80 0d 00
        E 360 90 0c 60
        E 120 80 0c 00
        E 360 90 0d 60
        E 120 80 0d 00
        E 360 90 0d 60
        E 120 80 0d 00
        E 360 90 0d 60
        E 120 80 0d 00
        E 360 90 0c 60
        E 120 80 0c 00
        E 359 90 0d 60
        E 121 80 0d 00
        E 359 90 0d 60
        E 121 80 0d 00
        E 360 90 0d 60
        E 120 80 0d 00
        E 360 90 0c 60
        E 120 80 0c 00
        E 359 90 0d 60
        E 121 80 0d 00
        E 359 90 0d 60
        E 121 80 0d 00
        E 360 90 0d 60
        E 120 80 0d 00
        E 360 90 0c 60
        E 120 80 0c 00
        E 359 90 0d 60
        E 121 80 0d 00
        E 359 90 0d 60
        E 121 80 0d 00
        E 360 90 0d 60
        E 120 80 0d 00
        E 360 90 0c 60
        E 120 80 0c 00
        E 360 90 0d 60
        E 120 80 0d 00
        E 360 90 0d 60
        E 120 80 0d 00
        E 360 90 0d 60
        E 120 80 0d 00
        E 360 90 0c 60
        E 120 80 0c 00
        E 359 90 0d 60
        E 121 80 0d 00
        E 359 90 0d 60
        E 121 80 0d 00
        E 360 90 0d 60
        E 120 80 0d 00
        E 360 90 0c 60
        E 120 80 0c 00
        E 359 90 0d 60
        E 121 80 0d 00
        E 359 90 0d 60
        E 121 80 0d 00
        E 360 90 0d 60
        E 120 80 0d 00
        E 360 90 0c 60
        E 120 80 0c 00
        E 359 90 0d 60
        E 121 80 0d 00
        E 359 90 0d 60
        E 121 80 0d 00
        E 360 90 0d 60
        E 120 80 0d 00
        E 360 90 0c 60
        E 120 80 0c 00
        E 360 90 0d 60
        E 120 80 0d 00
        E 360 90 0d 60
        E 120 80 0d 00
        E 360 90 0d 60
        E 120 80 0d 00
        E 360 90 0c 60
        E 120 80 0c 00
        E 359 90 0d 60
        E 121 80 0d 00
        E 359 90 0d 60
        E 121 80 0d 00
        E 360 90 0d 60
        E 120 80 0d 00
        E 360 90 0c 60
        E 120 80 0c 00
        E 359 90 0d 60
        E 121 80 0d 00
        E 359 90 0d 60
        E 121 80 0d 00
        E 360 90 0d 60
        E 120 80 0d 00
        E 360 90 0c 60
        E 120 80 0c 00
        E 359 90 0d 60
        E 121 80 0d 00
        E 359 90 0d 60
        E 121 80 0d 00
        E 360 90 0d 60
        E 120 80 0d 00
        E 360 90 0c 60
        E 120 80 0c 00
        E 360 90 0d 60
        E 120 80 0d 00
        E 360 90 0d 60
        E 120 80 0d 00
        E 360 90 0d 60
        E 120 80 0d 00
        E 360 90 0c 60
        E 120 80 0c 00
        E 359 90 0d 60
        E 121 80 0d 00
        E 359 90 0d 60
        E 121 80 0d 00
        E 360 90 0d 60
        E 120 80 0d 00
        E 360 90 0c 60
        E 120 80 0c 00
        E 359 90 0d 60
        E 121 80 0d 00
        E 359 90 0d 60
        E 121 80 0d 00
        E 360 90 0d 60
        E 120 80 0d 00
        E 360 90 0c 60
        E 120 80 0c 00
        E 359 90 0d 60
        E 121 80 0d 00
        E 359 90 0d 60
        E 121 80 0d 00
        E 360 90 0d 60
        E 120 80 0d 00
        E 360 90 0c 60
        E 120 80 0c 00
        E 360 90 0d 60
        E 120 80 0d 00
        E 360 90 0d 60
        E 120 80 0d 00
        E 360 90 0d 60
        E 120 80 0d 00
        E 360 90 0c 60
        E 120 80 0c 00
        E 359 90 0d 60
        E 121 80 0d 00
        E 359 90 0d 60
        E 121 80 0d 00
        E 360 90 0d 60
        E 120 80 0d 00
        E 360 90 0c 60
        E 120 80 0c 00
        E 359 90 0d 60
        E 121 80 0d 00
        E 359 90 0d 60
        E 121 80 0d 00
        E 360 90 0d 60
        E 120 80 0d 00
        E 360 90 0c 60
        E 120 80 0c 00
        E 359 90 0d 60
        E 121 80 0d 00
        E 359 90 0d 60
        E 121 80 0d 00
        E 360 90 0d 60
        E 120 80 0d 00
        E 360 90 0c 60
        E 120 80 0c 00
        E 360 90 0d 60
        E 120 80 0d 00
        E 360 90 0d 60
        E 120 80 0d 00
        E 360 90 0d 60
        E 120 80 0d 00
        E 360 90 0c 60
        E 120 80 0c 00
        E 359 90 0d 60
        E 121 80 0d 00
        E 359 90 0d 60
        E 121 80 0d 00
        E 360 90 0d 60
        E 120 80 0d 00
        E 360 90 0c 60
        E 120 80 0c 00
        E 359 90 0d 60
        E 121 80 0d 00
        E 359 90 0d 60
        E 121 80 0d 00
        E 360 90 0d 60
        E 120 80 0d 00
        E 360 90 0c 60
        E 120 80 0c 00
        E 359 90 0d 60
        E 121 80 0d 00
        E 359 90 0d 60
        E 121 80 0d 00
        E 360 90 0d 60
        E 120 80 0d 00
        E 360 90 0c 60
        E 120 80 0c 00
        E 360 90 0d 60
        E 120 80 0d 00
        E 360 90 0d 60
        E 120 80 0d 00
        E 360 90 0d 60
        E 120 80 0d 00
        E 360 90 0c 60
        E 120 80 0c 00
        E 359 90 0d 60
        E 121 80 0d 00
        E 359 90 0d 60
        E 121 80 0d 00
        E 360 90 0d 60
        E 120 80 0d 00
        E 360 90 0c 60
        E 120 80 0c 00
        E 359 90 0d 60
        E 121 80 0d 00
        E 359 90 0d 60
        E 121 80 0d 00
        E 360 90 0d 60
        E 120 80 0d 00
        E 360 90 0c 60
        E 120 80 0c 00
        E 359 90 0d 60
        E 121 80 0d 00
        E 359 90 0d 60
        E 121 80 0d 00
        E 360 90 0d 60
        E 120 80 0d 00
        E 360 90 0c 60
        E 120 80 0c 00
        E 360 90 0d 60
        E 120 80 0d 00
        E 360 90 0d 60
        E 120 80 0d 00
        E 360 90 0d 60
        E 120 80 0d 00
        E 360 90 0c 60
        E 120 80 0c 00
        E 359 90 0d 60
        E 121 80 0d 00
        E 359 90 0d 60
        E 121 80 0d 00
        E 360 90 0d 60
        E 120 80 0d 00
        E 360 90 0c 60
        E 120 80 0c 00
        E 359 90 0d 60
        E 121 80 0d 00
        E 359 90 0d 60
        E 121 80 0d 00
        E 360 90 0d 60
        E 120 80 0d 00
        E 360 90 0c 60
        E 120 80 0c 00
        E 359 90 0d 60
        E 121 80 0d 00
        E 359 90 0d 60
        E 121 80 0d 00
        E 360 90 0d 60
        E 120 80 0d 00
        E 360 90 0c 60
        E 120 80 0c 00
        E 360 90 0d 60
        E 120 80 0d 00
        E 360 90 0d 60
        E 120 80 0d 00
        E 360 90 0d 60
        E 120 80 0d 00
        E 360 90 0c 60
        E 120 80 0c 00
        E 359 90 0d 60
        E 121 80 0d 00
        E 359 90 0d 60
        E 121 80 0d 00
        E 360 90 0d 60
        E 120 80 0d 00
        E 360 90 0c 60
        E 120 80 0c 00
        E 359 90 0d 60
        E 121 80 0d 00
        E 359 90 0d 60
        E 121 80 0d 00
        E 360 90 0d 60
        E 120 80 0d 00
        E 360 90 0c 60
        E 120 80 0c 00
        E 359 90 0d 60
        E 121 80 0d 00
        E 359 90 0d 60
        E 121 80 0d 00
        E 360 90 0d 60
        E 120 80 0d 00
        E 360 90 0c 60
        E 120 80 0c 00
        E 360 90 0d 60
        E 120 80 0d 00
        E 360 90 0d 60
        E 120 80 0d 00
        E 360 90 0d 60
        E 120 80 0d 00
        E 360 90 0c 60
        E 120 80 0c 00
        E 359 90 0d 60
        E 121 80 0d 00
        E 359 90 0d 60
        E 121 80 0d 00
        E 360 90 0d 60
        E 120 80 0d 00
        E 360 90 0c 60
        E 120 80 0c 00
        E 359 90 0d 60
        E 121 80 0d 00
        E 359 90 0d 60
        E 121 80 0d 00
        E 360 90 0d 60
        E 120 80 0d 00
        E 360 90 0c 60
        E 120 80 0c 00
        E 359 90 0d 60
        E 121 80 0d 00
        E 359 90 0d 60
        E 121 80 0d 00
        E 360 90 0d 60
        E 120 80 0d 00
        E 360 90 0c 60
        E 120 80 0c 00
        E 360 90 0d 60
        E 120 80 0d 00
        E 360 90 0d 60
        E 120 80 0d 00
        E 360 90 0d 60
        E 120 80 0d 00
        E 360 90 0c 60
        E 120 80 0c 00
        E 359 90 0d 60
        E 121 80 0d 00
        E 359 90 0d 60
        E 121 80 0d 00
        E 360 90 0d 60
        E 120 80 0d 00
        E 360 90 0c 60
        E 120 80 0c 00
        E 359 90 0d 60
        E 121 80 0d 00
        E 359 90 0d 60
        E 121 80 0d 00
        E 360 90 0d 60
        E 120 80 0d 00
        E 360 90 0c 60
        E 120 80 0c 00
        E 359 90 0d 60
        E 121 80 0d 00
        E 359 90 0d 60
        E 121 80 0d 00
        E 360 90 0d 60
        E 120 80 0d 00
        E 360 90 0c 60
        E 120 80 0c 00
        E 360 90 0d 60
        E 120 80 0d 00
        E 360 90 0d 60
        E 120 80 0d 00
        E 360 90 0d 60
        E 120 80 0d 00
        E 360 90 0c 60
        E 120 80 0c 00
        E 359 90 0d 60
        E 121 80 0d 00
        E 359 90 0d 60
        E 121 80 0d 00
        E 360 90 0d 60
        E 120 80 0d 00
        E 360 90 0c 60
        E 120 80 0c 00
        E 359 90 0d 60
        E 121 80 0d 00
        E 359 90 0d 60
        E 121 80 0d 00
        E 360 90 0d 60
        E 120 80 0d 00
        E 360 90 0c 60
        E 120 80 0c 00
        E 359 90 0d 60
        E 121 80 0d 00
        E 359 90 0d 60
        E 121 80 0d 00
        E 360 90 0d 60
        E 120 80 0d 00
        E 360 90 0c 60
        E 120 80 0c 00
        E 360 90 0d 60
        E 120 80 0d 00
        E 360 90 0d 60
        E 120 80 0d 00
        E 360 90 0d 60
        E 120 80 0d 00
        E 360 90 0c 60
        E 120 80 0c 00
        E 359 90 0d 60
        E 121 80 0d 00
        E 359 90 0d 60
        E 121 80 0d 00
        E 360 90 0d 60
        E 120 80 0d 00
        E 360 90 0c 60
        E 120 80 0c 00
        E 359 90 0d 60
        E 121 80 0d 00
        E 359 90 0d 60
        E 121 80 0d 00
        E 360 90 0d 60
        E 120 80 0d 00
        E 360 90 0c 60
        E 120 80 0c 00
        E 359 90 0d 60
        E 121 80 0d 00
        E 359 90 0d 60
        E 121 80 0d 00
        E 360 90 0d 60
        E 120 80 0d 00
        E 360 90 0c 60
        E 120 80 0c 00
        E 360 90 0d 60
        E 120 80 0d 00
        E 360 90 0d 60
        E 120 80 0d 00
        E 360 90 0d 60
        E 120 80 0d 00
        E 360 90 0c 60
        E 120 80 0c 00
        E 359 90 0d 60
        E 121 80 0d 00
        E 359 90 0d 60
        E 121 80 0d 00
        E 360 90 0d 60
        E 120 80 0d 00
        E 360 90 0c 60
        E 120 80 0c 00
        E 359 90 0d 60
        E 121 80 0d 00
        E 359 90 0d 60
        E 121 80 0d 00
        E 360 90 0d 60
        E 120 80 0d 00
        E 360 90 0c 60
        E 120 80 0c 00
        E 359 90 0d 60
        E 121 80 0d 00
        E 359 90 0d 60
        E 121 80 0d 00
        E 360 90 0d 60
        E 120 80 0d 00
        E 360 90 0c 60
        E 120 80 0c 00
        E 360 90 0d 60
        E 120 80 0d 00
        E 360 90 0d 60
        E 120 80 0d 00
        E 360 90 0d 60
        E 120 80 0d 00
        E 360 90 0c 60
        E 120 80 0c 00
        E 359 90 0d 60
        E 121 80 0d 00
        E 359 90 0d 60
        E 121 80 0d 00
        E 360 90 0d 60
        E 120 80 0d 00
        E 360 90 0c 60
        E 120 80 0c 00
        E 359 90 0d 60
        E 121 80 0d 00
        E 359 90 0d 60
        E 121 80 0d 00
        E 360 90 0d 60
        E 120 80 0d 00
        E 360 90 0c 60
        E 120 80 0c 00
        E 359 90 0d 60
        E 121 80 0d 00
        E 359 90 0d 60
        E 121 80 0d 00
        E 360 90 0d 60
        E 120 80 0d 00
        E 360 90 0c 60
        E 120 80 0c 00
        E 360 90 0d 60
        E 120 80 0d 00
        E 360 90 0d 60
        E 120 80 0d 00
        E 360 90 0d 60
        E 120 80 0d 00
        E 360 90 0c 60
        E 120 80 0c 00
        E 359 90 0d 60
        E 121 80 0d 00
        E 359 90 0d 60
        E 121 80 0d 00
        E 360 90 0d 60
        E 120 80 0d 00
        E 360 90 0c 60
        E 120 80 0c 00
        E 359 90 0d 60
        E 121 80 0d 00
        E 359 90 0d 60
        E 121 80 0d 00
        E 360 90 0d 60
        E 120 80 0d 00
        E 360 90 0c 60
        E 120 80 0c 00
        E 359 90 0d 60
        E 121 80 0d 00
        E 359 90 0d 60
        E 121 80 0d 00
        E 360 90 0d 60
        E 120 80 0d 00
        E 360 90 0c 60
        E 120 80 0c 00
        E 360 90 0d 60
        E 120 80 0d 00
        E 360 90 0d 60
        E 120 80 0d 00
        E 360 90 0d 60
        E 120 80 0d 00
        E 360 90 0c 60
        E 120 80 0c 00
        E 359 90 0d 60
        E 121 80 0d 00
        E 359 90 0d 60
        E 121 80 0d 00
        E 360 90 0d 60
        E 120 80 0d 00
        E 360 90 0c 60
        E 120 80 0c 00
        E 359 90 0d 60
        E 121 80 0d 00
        E 359 90 0d 60
        E 121 80 0d 00
        E 360 90 0d 60
        E 120 80 0d 00
        E 360 90 0c 60
        E 120 80 0c 00
        E 359 90 0d 60
        E 121 80 0d 00
        E 359 90 0d 60
        E 121 80 0d 00
        E 360 90 0d 60
        E 120 80 0d 00
        E 360 90 0c 60
        E 120 80 0c 00
        E 360 90 0d 60
        E 120 80 0d 00
        E 360 90 0d 60
        E 120 80 0d 00
        E 360 90 0d 60
        E 120 80 0d 00
        E 360 90 0c 60
        E 120 80 0c 00
        E 359 90 0d 60
        E 121 80 0d 00
        E 359 90 0d 60
        E 121 80 0d 00
        E 360 90 0d 60
        E 120 80 0d 00
        E 360 90 0c 60
        E 120 80 0c 00
        E 359 90 0d 60
        E 121 80 0d 00
        E 359 90 0d 60
        E 121 80 0d 00
        E 360 90 0d 60
        E 120 80 0d 00
        E 360 90 0c 60
        E 120 80 0c 00
        E 359 90 0d 60
        E 121 80 0d 00
        E 359 90 0d 60
        E 121 80 0d 00
        E 360 90 0d 60
        E 120 80 0d 00
        E 360 90 0c 60
        E 120 80 0c 00
        E 360 90 0d 60
        E 120 80 0d 00
        E 360 90 0d 60
        E 120 80 0d 00
        E 360 90 0d 60
        E 120 80 0d 00
        E 360 90 0c 60
        E 120 80 0c 00
        E 359 90 0d 60
        E 121 80 0d 00
        E 359 90 0d 60
        E 121 80 0d 00
        E 360 90 0d 60
        E 120 80 0d 00
        E 360 90 0c 60
        E 120 80 0c 00
        E 359 90 0d 60
        E 121 80 0d 00
        E 359 90 0d 60
        E 121 80 0d 00
        E 360 90 0d 60
        E 120 80 0d 00
        E 360 90 0c 60
        E 120 80 0c 00
        E 359 90 0d 60
        E 121 80 0d 00
        E 359 90 0d 60
        E 121 80 0d 00
        E 360 90 0d 60
        E 120 80 0d 00
        E 360 90 0c 60
        E 120 80 0c 00
        E 360 90 0d 60
        E 120 80 0d 00
        E 360 90 0d 60
        E 120 80 0d 00
        E 360 90 0d 60
        E 120 80 0d 00
        E 360 90 0c 60
        E 120 80 0c 00
        E 359 90 0d 60
        E 121 80 0d 00
        E 359 90 0d 60
        E 121 80 0d 00
        E 360 90 0d 60
        E 120 80 0d 00
        E 360 90 0c 60
        E 120 80 0c 00
        E 359 90 0d 60
        E 121 80 0d 00
        E 359 90 0d 60
        E 121 80 0d 00
        E 360 90 0d 60
        E 120 80 0d 00
        E 360 90 0c 60
        E 120 80 0c 00
        E 359 90 0d 60
        E 121 80 0d 00
        E 359 90 0d 60
        E 121 80 0d 00
        E 360 90 0d 60
        E 120 80 0d 00
        E 360 90 0c 60
        E 120 80 0c 00
        E 360 90 0d 60
        E 120 80 0d 00
        E 360 90 0d 60
        E 120 80 0d 00
        E 360 90 0d 60
        E 120 80 0d 00
        E 360 90 0c 60
        E 120 80 0c 00
        E 359 90 0d 60
        E 121 80 0d 00
        E 359 90 0d 60
        E 121 80 0d 00
        E 360 90 0d 60
        E 120 80 0d 00
        E 360 90 0c 60
        E 120 80 0c 00
        E 359 90 0d 60
        E 121 80 0d 00
        E 359 90 0d 60
        E 121 80 0d 00
        E 360 90 0d 60
        E 120 80 0d 00
        E 360 90 0c 60
        E 120 80 0c 00
        E 359 90 0d 60
        E 121 80 0d 00
        E 359 90 0d 60
        E 121 80 0d 00
        E 360 90 0d 60
        E 120 80 0d 00
        E 360 90 0c 60
        E 120 80 0c 00
        E 360 90 0d 60
        E 120 80 0d 00
        E 360 90 0d 60
        E 120 80 0d 00
        E 360 90 0d 60
        E 120 80 0d 00
        E 360 90 0c 60
        E 120 80 0c 00
        E 359 90 0d 60
        E 121 80 0d 00
        E 359 90 0d 60
        E 121 80 0d 00
        E 360 90 0d 60
        E 120 80 0d 00
        E 360 90 0c 60
        E 120 80 0c 00
        E 359 90 0d 60
        E 121 80 0d 00
        E 359 90 0d 60
        E 121 80 0d 00
        E 360 90 0d 60
        E 120 80 0d 00
        E 360 90 0c 60
        E 120 80 0c 00
        E 359 90 0d 60
        E 121 80 0d 00
        E 359 90 0d 60
        E 121 80 0d 00
        E 360 90 0d 60
        E 120 80 0d 00
        E 360 90 0c 60
        E 120 80 0c 00
        E 360 90 0d 60
        E 120 80 0d 00
        E 360 90 0d 60
        E 120 80 0d 00
        E 360 90 0d 60
        E 120 80 0d 00
        E 360 90 0c 60
        E 120 80 0c 00
        E 359 90 0d 60
        E 121 80 0d 00
        E 359 90 0d 60
        E 121 80 0d 00
        E 360 90 0d 60
        E 120 80 0d 00
        E 360 90 0c 60
        E 120 80 0c 00
        E 359 90 0d 60
        E 121 80 0d 00
        E 359 90 0d 60
        E 121 80 0d 00
        E 360 90 0d 60
        E 120 80 0d 00
        E 360 90 0c 60
        E 120 80 0c 00
        E 359 90 0d 60
        E 121 80 0d 00
        E 359 90 0d 60
        E 121 80 0d 00
        E 360 90 0d 60
        E 120 80 0d 00
        E 360 90 0c 60
        E 120 80 0c 00
        E 360 90 0d 60
        E 120 80 0d 00
        E 360 90 0d 60
        E 120 80 0d 00
        E 360 90 0d 60
        E 120 80 0d 00
        E 360 90 0c 60
        E 120 80 0c 00
        E 359 90 0d 60
        E 121 80 0d 00
        E 359 90 0d 60
        E 121 80 0d 00
        E 360 90 0d 60
        E 120 80 0d 00
        E 360 90 0c 60
        E 120 80 0c 00
        E 359 90 0d 60
        E 121 80 0d 00
        E 359 90 0d 60
        E 121 80 0d 00
        E 360 90 0d 60
        E 120 80 0d 00
        E 360 b0 7b 00
        GUID {A6AA2669-58C8-4E11-8310-8C0439B45179}
        IGNTEMPO 0 120.00000000 4 4
        SRCCOLOR 16
        VELLANE 132 71 60
        COLORMAP "C:\Program Files\REAPER (x64)\Data\color_maps\rockband_guitarbass.png"
        CFGEDITVIEW -666.489649 86.509552 0 48 0 0 0
        CFGEDIT 1 1 0 1 1 0 1 1 1 1 1 0.25000000 100 100 1200 800 0 2 2 1 0.00000000 0 1 1 0 0.500000 0 0 1.000000 64
        KEYSNAP 0 6 "102030050700" 0 "Pentatonic"
        EVTFILTER 0 -1 -1 -1 -1 0 1 0 0 -1.00000000 -1.00000000
      >
    >
  >
  <TRACK '{C0DBFF9C-2099-4A29-8906-53259F00789B}'
    NAME "backing"
    PEAKCOL 16576
    BEAT -1
    AUTOMODE 0
    VOLPAN 1.00000000000000 0.00000000000000 -1.00000000000000 -1.00000000000000 1.00000000000000
    MUTESOLO 0 0 0
    IPHASE 0
    ISBUS 0 0
    BUSCOMP 0 0
    SHOWINMIX 1 0.666700 0.500000 1 0.500000 -1 -1 -1
    FREEMODE 0
    SEL 0
    REC 0 0 0 0 0 0 0
    VU 2
    TRACKHEIGHT 0 0
    INQ 0 0 0 0.5000000000 100 0 0 100
    NCHAN 2
    FX 1
    TRACKID {C0DBFF9C-2099-4A29-8906-53259F00789B}
    PERF 0
    MIDIOUT -1
    MAINSEND 1 0
    <ITEM
      POSITION 0.00000000000000
      SNAPOFFS 0.00000000000000
      LENGTH 249.33300000000000
      LOOP 0
      ALLTAKES 0
      SEL 0
      FADEIN 1 0.000000 0.000000 1 0
      FADEOUT 1 0.000000 0.000000 1 0
      MUTE 0
      IGUID {1F90915E-A8C1-40CA-8A4D-7080B8D1E637}
      IID 15
      NAME "backing.wav"
      VOLPAN 1.000000 0.000000 1.000000 -1.000000
      SOFFS 0.00000000000000
      PLAYRATE 1.00000000000000 1 0.00000000000000 -1
      CHANMODE 0
      GUID {CA99131C-F7DE-49DB-950B-32A8C6253EF9}
      <SOURCE WAVE
        FILE "wav\backing.wav"
      >
    >
  >
  <EXTENSIONS
  >
>
