<REAPER_PROJECT 0.1 "4.22/x64"
  RIPPLE 0
  GROUPOVERRIDE 0 0 0
  AUTOXFADE 1
  ENVATTACH 1
  MIXERUIFLAGS 11 48
  PEAKGAIN 1.00000000000000
  FEEDBACK 0
  PANLAW 1.00000000000000
  PROJOFFS 0.00000000000000 0
  MAXPROJLEN 0 600.00000000000000
  GRID 3199 8 1.00000000000000 8 1.00000000000000 0
  TIMEMODE 1 0 -1
  PANMODE 3
  CURSOR 13.72079200000000
  ZOOM 7.79850366506061 0 0
  VZOOMEX 6
  USE_REC_CFG 0
  RECMODE 1
  SMPTESYNC 0 23.976024 100 40 1000 300 0 0.000000 1
  LOOP 1
  LOOPGRAN 0 4.00000000000000
  RECORD_PATH "" ""
  <RECORD_CFG
    ZXZhdxAD
  >
  <APPLYFX_CFG
  >
  RENDER_FILE ""
  RENDER_PATTERN ""
  RENDER_FMT 0 2 0
  RENDER_1X 0
  RENDER_RANGE 1 0.00000000000000 0.00000000000000
  RENDER_RESAMPLE 3 0 1
  RENDER_ADDTOPROJ 0
  RENDER_STEMS 0
  RENDER_DITHER 0
  TIMELOCKMODE 0
  ITEMMIX 0
  DEFPITCHMODE 393216
  TAKELANE 1
  SAMPLERATE 44100 0 0
  <RENDER_CFG
  >
  LOCK 1
  <METRONOME 6 2.000000
    VOL 0.250000 0.125000
    FREQ 800 1600 1
    BEATLEN 4
    SAMPLES "" ""
  >
  GLOBAL_AUTO -1
  TEMPO 120.00000000000000 4 4
  PLAYRATE 1.00000000000000 0 0.25000 4.00000
  SELECTION 144.00198399999999 0.00000000000000
  SELECTION2 144.00198399999999 0.00000000000000
  MASTERAUTOMODE 0
  MASTERTRACKHEIGHT 0
  MASTERPEAKCOL 16576
  MASTERMUTESOLO 0
  MASTERTRACKVIEW 0 0.666700 0.500000 0.500000 -1 -1 -1
  MASTERHWOUT 0 0 1.00000000000000 0.00000000000000 0 0 0 -1.00000000000000
  MASTER_NCH 2 2
  MASTER_VOLUME 0.20369801508874 0.00000000000000 -1.00000000000000 -1.00000000000000 1.00000000000000
  MASTER_PANMODE -1
  MASTER_FX 1
  MASTER_SEL 0
  <MASTERPLAYSPEEDENV
    ACT 0
    VIS 0 1 1.000000
    LANEHEIGHT 0 0
    ARM 0
    DEFSHAPE 0 -1 -1
  >
  <TEMPOENVEX
    ACT 1
    VIS 1 0 1.000000
    LANEHEIGHT 0 0
    ARM 0
    DEFSHAPE 1 -1 -1
    PT 0.000000000000 140.0001400001 1
    PT 3.428568000000 139.0923758832 1
    PT 4.291304000000 139.7949673812 1
    PT 8.583304000000 140.1463127505 1
    PT 22.283272000000 140.0001400001 1
    PT 44.568964000000 139.8500341467 1
    PT 60.014080000000 140.4977836475 1
    PT 65.138716000000 139.7949673812 1
    PT 78.873116000000 140.1463127505 1
    PT 89.148092000000 139.7949673812 1
    PT 92.152492000000 140.1463127505 1
    PT 99.430600000000 140.0001400001 1
  >
  <PROJBAY
  >
  <TRACK '{1B9665C0-DFE3-4C8D-919B-FBBFECF8CB61}'
    NAME "PART DRUMS"
    PEAKCOL 16576
    BEAT -1
    AUTOMODE 0
    VOLPAN 1.00000000000000 0.00000000000000 -1.00000000000000 -1.00000000000000 1.00000000000000
    MUTESOLO 0 0 0
    IPHASE 0
    ISBUS 0 0
    BUSCOMP 0 0
    SHOWINMIX 1 0.666700 0.500000 1 0.500000 -1 -1 -1
    FREEMODE 0
    SEL 0
    REC 0 0 0 0 0 0 0
    VU 2
    TRACKHEIGHT 0 0
    INQ 0 0 0 0.5000000000 100 0 0 100
    NCHAN 2
    FX 1
    TRACKID {1B9665C0-DFE3-4C8D-919B-FBBFECF8CB61}
    PERF 0
    MIDIOUT -1
    <MIDINOTENAMES
      0 127 "CYMBAL SWELLS"
      0 126 "DRUM ROLL"
      0 125 "---"
      0 124 "DRUM FILL"
      0 123 "DRUM FILL"
      0 122 "DRUM FILL"
      0 121 "DRUM FILL"
      0 120 "DRUM FILL (use all 5)"
      0 118 "----"
      0 116 "OVERDRIVE"
      0 114 "----"
      0 112 "TOM GEMS PAD 4"
      0 111 "TOM GEMS PAD 3"
      0 110 "TOM GEMS PAD 2"
      0 103 "Solo Marker"
      0 102 "----"
      0 100 "EXPERT Green"
      0 99 "EXPERT Blue"
      0 98 "EXPERT Yellow"
      0 97 "EXPERT Red"
      0 96 "EXPERT Kick"
      0 92 "----"
      0 88 "HARD Green"
      0 87 "HARD Blue"
      0 86 "HARD Yellow"
      0 85 "HARD Red"
      0 84 "HARD Kick"
      0 80 "----"
      0 76 "MEDIUM Green"
      0 75 "MEDIUM Blue"
      0 74 "MEDIUM Yellow"
      0 73 "MEDIUM Red"
      0 72 "MEDIUM Kick"
      0 68 "----"
      0 64 "EASY Green"
      0 63 "EASY Blue"
      0 62 "EASY Yellow"
      0 61 "EASY Red"
      0 60 "EASY Kick"
      0 56 "----"
      0 52 "-- DRUM ANIMATION --"
      0 51 "FLOOR TOM RH"
      0 50 "FLOOR TOM LH"
      0 49 "TOM2 RH"
      0 48 "TOM2 LH"
      0 47 "TOM1 RH"
      0 46 "TOM1 LH"
      0 45 "SOFT CRASH 2 LH"
      0 44 "CRASH 2 LH"
      0 43 "RIDE LH"
      0 42 "RIDE CYM RH"
      0 41 "CRASH2 CHOKE"
      0 40 "CRASH1 CHOKE"
      0 39 "CRASH2 SOFT RH"
      0 38 "CRASH2 HARD RH"
      0 37 "CRASH1 SOFT RH"
      0 36 "CRASH1 HARD RH"
      0 35 "CRASH1 SOFT LH"
      0 34 "CRASH1 HARD LH"
      0 32 "PERCUSSION RH"
      0 31 "HI-HAT RH"
      0 30 "HI-HAT LH"
      0 29 "SOFT SNARE RH"
      0 28 "SOFT SNARE LH"
      0 27 "SNARE RH"
      0 26 "SNARE LH"
      0 25 "HI-HAT OPEN"
      0 24 "KICK RF"
    >
    MAINSEND 1 0
    <FXCHAIN
      WNDRECT 0 43 891 559
      SHOW 0
      LASTSEL 0
      DOCKED 0
      BYPASS 0 0
      <VST "VSTi: RBN Preview (RBN)" "rbprev_vst64.dll" 0 ""
        dnBicu5e7f4AAAAAAgAAAAEAAAAAAAAAAgAAAAAAAAAEAAAAAQAAAA==
        AAAQAAMBqgAAABAAAAA=
      >
      FLOATPOS 0 0 0 0
      FXID {8238D4F5-0E9A-49D0-BC7A-84268EDC1E60}
      WAK 0
    >
    <ITEM
      POSITION 0.00000000000000
      SNAPOFFS 0.00000000000000
      LENGTH 144.00200000000001
      LOOP 0
      ALLTAKES 0
      SEL 0
      FADEIN 1 0.000000 0.000000 1 0
      FADEOUT 1 0.000000 0.000000 1 0
      MUTE 0
      IGUID {A7454492-143C-44F7-82FA-38BA8A096853}
      IID 1
      NAME "PART DRUMS"
      VOLPAN 1.000000 0.000000 1.000000 -1.000000
      SOFFS 0.00000000000000 0.00000000000000
      PLAYRATE 1.00000000000000 1 0.00000000000000 -1
      CHANMODE 0
      GUID {6E158AD4-912B-41FC-875D-190C0BA5886C}
      <SOURCE MIDI
        HASDATA 1 480 QN
        POOLEDEVTS {157EE15E-A6D8-4B3F-AA50-6F9465380C12}
        <X 0 0
          /wNQQVJUIERSVU1T
        >
        E 0 90 19 60
        <X 120 0
          /wFbbWl4IDAgZHJ1bXMwXQ==
        >
        <X 120 0
          /wFbbWl4IDEgZHJ1bXMwXQ==
        >
        <X 120 0
          /wFbbWl4IDIgZHJ1bXMwXQ==
        >
        <X 120 0
          /wFbbWl4IDMgZHJ1bXMwXQ==
        >
        E 480 80 19 00
        E 240 90 19 60
        E 720 80 19 00
        E 1680 90 19 60
        <X 240 0
          /wFbaW50ZW5zZV0=
        >
        E 0 80 19 00
        E 0 90 18 60
        E 0 90 1b 60
        E 0 90 3d 60
        E 0 90 49 60
        E 0 90 54 60
        E 0 90 55 60
        E 0 90 60 60
        E 0 90 61 60
        E 120 80 18 00
        E 0 80 1b 00
        E 0 80 3d 00
        E 0 80 49 00
        E 0 80 54 00
        E 0 80 55 00
        E 0 80 60 00
        E 0 80 61 00
        E 0 90 1a 60
        E 0 90 61 60
        E 120 80 1a 00
        E 0 80 61 00
        E 0 90 19 60
        E 0 90 1b 60
        E 0 90 55 60
        E 0 90 61 60
        E 120 80 1b 00
        E 0 80 55 00
        E 0 80 61 00
        E 0 90 1a 60
        E 0 90 61 60
        E 120 80 19 00
        E 0 80 1a 00
        E 0 80 61 00
        E 0 90 18 60
        E 0 90 1b 60
        E 0 90 3d 60
        E 0 90 49 60
        E 0 90 54 60
        E 0 90 55 60
        E 0 90 60 60
        E 0 90 61 60
        E 120 80 18 00
        E 0 80 1b 00
        E 0 80 3d 00
        E 0 80 49 00
        E 0 80 54 00
        E 0 80 55 00
        E 0 80 60 00
        E 0 80 61 00
        E 0 90 1a 60
        E 0 90 61 60
        E 120 80 1a 00
        E 0 80 61 00
        E 0 90 19 60
        E 0 90 1b 60
        E 0 90 55 60
        E 0 90 61 60
        E 120 80 1b 00
        E 0 80 55 00
        E 0 80 61 00
        E 0 90 1a 60
        E 0 90 61 60
        E 120 80 19 00
        E 0 80 1a 00
        E 0 80 61 00
        E 0 90 18 60
        E 0 90 1b 60
        E 0 90 3d 60
        E 0 90 49 60
        E 0 90 54 60
        E 0 90 55 60
        E 0 90 60 60
        E 0 90 61 60
        E 120 80 18 00
        E 0 80 1b 00
        E 0 80 3d 00
        E 0 80 49 00
        E 0 80 54 00
        E 0 80 55 00
        E 0 80 60 00
        E 0 80 61 00
        E 0 90 1a 60
        E 0 90 61 60
        E 120 80 1a 00
        E 0 80 61 00
        E 0 90 19 60
        E 0 90 1b 60
        E 0 90 55 60
        E 0 90 61 60
        E 120 80 1b 00
        E 0 80 55 00
        E 0 80 61 00
        E 0 90 1a 60
        E 0 90 61 60
        E 120 80 19 00
        E 0 80 1a 00
        E 0 80 61 00
        E 0 90 18 60
        E 0 90 1b 60
        E 0 90 3d 60
        E 0 90 49 60
        E 0 90 54 60
        E 0 90 55 60
        E 0 90 60 60
        E 0 90 61 60
        E 120 80 18 00
        E 0 80 1b 00
        E 0 80 3d 00
        E 0 80 49 00
        E 0 80 54 00
        E 0 80 55 00
        E 0 80 60 00
        E 0 80 61 00
        E 0 90 1a 60
        E 0 90 61 60
        E 120 80 1a 00
        E 0 80 61 00
        E 0 90 19 60
        E 0 90 1b 60
        E 0 90 55 60
        E 0 90 61 60
        E 120 80 1b 00
        E 0 80 55 00
        E 0 80 61 00
        E 0 90 1a 60
        E 0 90 61 60
        E 120 80 19 00
        E 0 80 1a 00
        E 0 80 61 00
        E 0 90 18 60
        E 0 90 24 60
        E 0 90 40 60
        E 0 90 48 60
        E 0 90 4c 60
        E 0 90 54 60
        E 0 90 58 60
        E 0 90 60 60
        E 0 90 64 60
        E 120 80 18 00
        E 0 80 24 00
        E 0 80 40 00
        E 0 80 48 00
        E 0 80 4c 00
        E 0 80 54 00
        E 0 80 58 00
        E 0 80 60 00
        E 0 80 64 00
        E 120 90 18 60
        E 0 90 19 60
        E 0 90 24 60
        E 0 90 54 60
        E 0 90 58 60
        E 0 90 60 60
        E 0 90 64 60
        E 120 80 18 00
        E 0 80 24 00
        E 0 80 54 00
        E 0 80 58 00
        E 0 80 60 00
        E 0 80 64 00
        E 120 80 19 00
        E 0 90 1a 60
        E 0 90 24 60
        E 0 90 3d 60
        E 0 90 40 60
        E 0 90 49 60
        E 0 90 4c 60
        E 0 90 55 60
        E 0 90 58 60
        E 0 90 61 60
        E 0 90 64 60
        E 120 80 1a 00
        E 0 80 24 00
        E 0 80 3d 00
        E 0 80 40 00
        E 0 80 49 00
        E 0 80 4c 00
        E 0 80 55 00
        E 0 80 58 00
        E 0 80 61 00
        E 0 80 64 00
        E 120 90 19 60
        E 0 90 24 60
        E 0 90 58 60
        E 0 90 64 60
        E 120 80 24 00
        E 0 80 58 00
        E 0 80 64 00
        E 120 80 19 00
        E 0 90 18 60
        E 0 90 24 60
        E 0 90 40 60
        E 0 90 48 60
        E 0 90 4c 60
        E 0 90 54 60
        E 0 90 58 60
        E 0 90 60 60
        E 0 90 64 60
        E 120 80 18 00
        E 0 80 24 00
        E 0 80 40 00
        E 0 80 48 00
        E 0 80 4c 00
        E 0 80 54 00
        E 0 80 58 00
        E 0 80 60 00
        E 0 80 64 00
        E 120 90 18 60
        E 0 90 19 60
        E 0 90 24 60
        E 0 90 54 60
        E 0 90 58 60
        E 0 90 60 60
        E 0 90 64 60
        E 120 80 18 00
        E 0 80 24 00
        E 0 80 54 00
        E 0 80 58 00
        E 0 80 60 00
        E 0 80 64 00
        E 120 80 19 00
        E 0 90 1a 60
        E 0 90 24 60
        E 0 90 3d 60
        E 0 90 40 60
        E 0 90 49 60
        E 0 90 4c 60
        E 0 90 55 60
        E 0 90 58 60
        E 0 90 61 60
        E 0 90 64 60
        E 120 80 1a 00
        E 0 80 24 00
        E 0 80 3d 00
        E 0 80 40 00
        E 0 80 49 00
        E 0 80 4c 00
        E 0 80 55 00
        E 0 80 58 00
        E 0 80 61 00
        E 0 80 64 00
        E 120 90 19 60
        E 0 90 24 60
        E 0 90 58 60
        E 0 90 64 60
        E 120 80 24 00
        E 0 80 58 00
        E 0 80 64 00
        E 120 80 19 00
        E 0 90 18 60
        E 0 90 24 60
        E 0 90 40 60
        E 0 90 48 60
        E 0 90 4c 60
        E 0 90 54 60
        E 0 90 58 60
        E 0 90 60 60
        E 0 90 64 60
        E 120 80 18 00
        E 0 80 24 00
        E 0 80 40 00
        E 0 80 48 00
        E 0 80 4c 00
        E 0 80 54 00
        E 0 80 58 00
        E 0 80 60 00
        E 0 80 64 00
        E 120 90 18 60
        E 0 90 19 60
        E 0 90 24 60
        E 0 90 54 60
        E 0 90 58 60
        E 0 90 60 60
        E 0 90 64 60
        E 120 80 18 00
        E 0 80 24 00
        E 0 80 54 00
        E 0 80 58 00
        E 0 80 60 00
        E 0 80 64 00
        E 120 80 19 00
        E 0 90 1a 60
        E 0 90 24 60
        E 0 90 3d 60
        E 0 90 40 60
        E 0 90 49 60
        E 0 90 4c 60
        E 0 90 55 60
        E 0 90 58 60
        E 0 90 61 60
        E 0 90 64 60
        E 120 80 1a 00
        E 0 80 24 00
        E 0 80 3d 00
        E 0 80 40 00
        E 0 80 49 00
        E 0 80 4c 00
        E 0 80 55 00
        E 0 80 58 00
        E 0 80 61 00
        E 0 80 64 00
        E 120 90 19 60
        E 0 90 24 60
        E 0 90 58 60
        E 0 90 64 60
        E 120 80 24 00
        E 0 80 58 00
        E 0 80 64 00
        E 120 80 19 00
        E 0 90 18 60
        E 0 90 24 60
        E 0 90 40 60
        E 0 90 48 60
        E 0 90 4c 60
        E 0 90 54 60
        E 0 90 58 60
        E 0 90 60 60
        E 0 90 64 60
        E 120 80 18 00
        E 0 80 24 00
        E 0 80 40 00
        E 0 80 48 00
        E 0 80 4c 00
        E 0 80 54 00
        E 0 80 58 00
        E 0 80 60 00
        E 0 80 64 00
        E 120 90 18 60
        E 0 90 19 60
        E 0 90 24 60
        E 0 90 54 60
        E 0 90 58 60
        E 0 90 60 60
        E 0 90 64 60
        E 120 80 18 00
        E 0 80 24 00
        E 0 80 54 00
        E 0 80 58 00
        E 0 80 60 00
        E 0 80 64 00
        E 120 80 19 00
        E 0 90 1a 60
        E 0 90 24 60
        E 0 90 3d 60
        E 0 90 40 60
        E 0 90 49 60
        E 0 90 4c 60
        E 0 90 55 60
        E 0 90 58 60
        E 0 90 61 60
        E 0 90 64 60
        E 120 80 1a 00
        E 0 80 24 00
        E 0 80 3d 00
        E 0 80 40 00
        E 0 80 49 00
        E 0 80 4c 00
        E 0 80 55 00
        E 0 80 58 00
        E 0 80 61 00
        E 0 80 64 00
        E 120 90 19 60
        E 0 90 1e 60
        E 0 90 24 60
        E 0 90 56 60
        E 0 90 58 60
        E 0 90 62 60
        E 0 90 64 60
        E 120 80 1e 00
        E 0 80 24 00
        E 0 80 56 00
        E 0 80 58 00
        E 0 80 62 00
        E 0 80 64 00
        E 120 80 19 00
        E 0 90 18 60
        E 0 90 24 60
        E 0 90 40 60
        E 0 90 48 60
        E 0 90 4c 60
        E 0 90 54 60
        E 0 90 58 60
        E 0 90 60 60
        E 0 90 64 60
        E 120 80 18 00
        E 0 80 24 00
        E 0 80 40 00
        E 0 80 48 00
        E 0 80 4c 00
        E 0 80 54 00
        E 0 80 58 00
        E 0 80 60 00
        E 0 80 64 00
        E 120 90 18 60
        E 0 90 19 60
        E 0 90 24 60
        E 0 90 54 60
        E 0 90 58 60
        E 0 90 60 60
        E 0 90 64 60
        E 120 80 18 00
        E 0 80 24 00
        E 0 80 54 00
        E 0 80 58 00
        E 0 80 60 00
        E 0 80 64 00
        E 120 80 19 00
        E 0 90 1a 60
        E 0 90 24 60
        E 0 90 3d 60
        E 0 90 40 60
        E 0 90 49 60
        E 0 90 4c 60
        E 0 90 55 60
        E 0 90 58 60
        E 0 90 61 60
        E 0 90 64 60
        E 120 80 1a 00
        E 0 80 24 00
        E 0 80 3d 00
        E 0 80 40 00
        E 0 80 49 00
        E 0 80 4c 00
        E 0 80 55 00
        E 0 80 58 00
        E 0 80 61 00
        E 0 80 64 00
        E 120 90 19 60
        E 0 90 24 60
        E 0 90 58 60
        E 0 90 64 60
        E 120 80 24 00
        E 0 80 58 00
        E 0 80 64 00
        E 120 80 19 00
        E 0 90 18 60
        E 0 90 24 60
        E 0 90 40 60
        E 0 90 48 60
        E 0 90 4c 60
        E 0 90 54 60
        E 0 90 58 60
        E 0 90 60 60
        E 0 90 64 60
        E 120 80 18 00
        E 0 80 24 00
        E 0 80 40 00
        E 0 80 48 00
        E 0 80 4c 00
        E 0 80 54 00
        E 0 80 58 00
        E 0 80 60 00
        E 0 80 64 00
        E 120 90 18 60
        E 0 90 19 60
        E 0 90 24 60
        E 0 90 54 60
        E 0 90 58 60
        E 0 90 60 60
        E 0 90 64 60
        E 120 80 18 00
        E 0 80 24 00
        E 0 80 54 00
        E 0 80 58 00
        E 0 80 60 00
        E 0 80 64 00
        E 120 80 19 00
        E 0 90 1a 60
        E 0 90 24 60
        E 0 90 3d 60
        E 0 90 40 60
        E 0 90 49 60
        E 0 90 4c 60
        E 0 90 55 60
        E 0 90 58 60
        E 0 90 61 60
        E 0 90 64 60
        E 120 80 1a 00
        E 0 80 24 00
        E 0 80 3d 00
        E 0 80 40 00
        E 0 80 49 00
        E 0 80 4c 00
        E 0 80 55 00
        E 0 80 58 00
        E 0 80 61 00
        E 0 80 64 00
        E 120 90 19 60
        E 0 90 24 60
        E 0 90 58 60
        E 0 90 64 60
        E 120 80 24 00
        E 0 80 58 00
        E 0 80 64 00
        E 120 80 19 00
        E 0 90 18 60
        E 0 90 24 60
        E 0 90 40 60
        E 0 90 48 60
        E 0 90 4c 60
        E 0 90 54 60
        E 0 90 58 60
        E 0 90 60 60
        E 0 90 64 60
        E 0 90 78 60
        E 0 90 79 60
        E 0 90 7a 60
        E 0 90 7b 60
        E 0 90 7c 60
        E 120 80 18 00
        E 0 80 24 00
        E 0 80 40 00
        E 0 80 48 00
        E 0 80 4c 00
        E 0 80 54 00
        E 0 80 58 00
        E 0 80 60 00
        E 0 80 64 00
        E 120 90 18 60
        E 0 90 19 60
        E 0 90 24 60
        E 0 90 54 60
        E 0 90 58 60
        E 0 90 60 60
        E 0 90 64 60
        E 120 80 18 00
        E 0 80 24 00
        E 0 80 54 00
        E 0 80 58 00
        E 0 80 60 00
        E 0 80 64 00
        E 120 80 19 00
        E 0 90 1a 60
        E 0 90 24 60
        E 0 90 3d 60
        E 0 90 40 60
        E 0 90 49 60
        E 0 90 4c 60
        E 0 90 55 60
        E 0 90 58 60
        E 0 90 61 60
        E 0 90 64 60
        E 120 80 1a 00
        E 0 80 24 00
        E 0 80 3d 00
        E 0 80 40 00
        E 0 80 49 00
        E 0 80 4c 00
        E 0 80 55 00
        E 0 80 58 00
        E 0 80 61 00
        E 0 80 64 00
        E 120 90 19 60
        E 0 90 24 60
        E 0 90 58 60
        E 0 90 64 60
        E 120 80 24 00
        E 0 80 58 00
        E 0 80 64 00
        E 120 80 19 00
        E 0 90 18 60
        E 0 90 24 60
        E 0 90 40 60
        E 0 90 48 60
        E 0 90 4c 60
        E 0 90 54 60
        E 0 90 58 60
        E 0 90 60 60
        E 0 90 64 60
        E 120 80 18 00
        E 0 80 24 00
        E 0 80 40 00
        E 0 80 48 00
        E 0 80 4c 00
        E 0 80 54 00
        E 0 80 58 00
        E 0 80 60 00
        E 0 80 64 00
        E 120 90 18 60
        E 0 90 19 60
        E 0 90 24 60
        E 0 90 54 60
        E 0 90 58 60
        E 0 90 60 60
        E 0 90 64 60
        E 120 80 18 00
        E 0 80 24 00
        E 0 80 54 00
        E 0 80 58 00
        E 0 80 60 00
        E 0 80 64 00
        E 120 80 19 00
        E 0 90 1a 60
        E 0 90 24 60
        E 0 90 3d 60
        E 0 90 40 60
        E 0 90 49 60
        E 0 90 4c 60
        E 0 90 55 60
        E 0 90 58 60
        E 0 90 61 60
        E 0 90 64 60
        E 120 80 1a 00
        E 0 80 24 00
        E 0 80 3d 00
        E 0 80 40 00
        E 0 80 49 00
        E 0 80 4c 00
        E 0 80 55 00
        E 0 80 58 00
        E 0 80 61 00
        E 0 80 64 00
        E 120 90 19 60
        E 0 90 1e 60
        E 0 90 24 60
        E 0 90 56 60
        E 0 90 58 60
        E 0 90 62 60
        E 0 90 64 60
        E 120 80 1e 00
        E 0 80 24 00
        E 0 80 56 00
        E 0 80 58 00
        E 0 80 62 00
        E 0 80 64 00
        E 120 80 78 00
        E 0 80 79 00
        E 0 80 7a 00
        E 0 80 7b 00
        E 0 80 7c 00
        E 0 80 19 00
        E 0 90 18 60
        E 0 90 24 60
        E 0 90 40 60
        E 0 90 48 60
        E 0 90 4c 60
        E 0 90 54 60
        E 0 90 58 60
        E 0 90 60 60
        E 0 90 64 60
        E 120 80 18 00
        E 0 80 24 00
        E 0 80 40 00
        E 0 80 48 00
        E 0 80 4c 00
        E 0 80 54 00
        E 0 80 58 00
        E 0 80 60 00
        E 0 80 64 00
        E 120 90 18 60
        E 0 90 19 60
        E 0 90 24 60
        E 0 90 54 60
        E 0 90 58 60
        E 0 90 60 60
        E 0 90 64 60
        E 120 80 18 00
        E 0 80 24 00
        E 0 80 54 00
        E 0 80 58 00
        E 0 80 60 00
        E 0 80 64 00
        E 120 80 19 00
        E 0 90 1a 60
        E 0 90 24 60
        E 0 90 3d 60
        E 0 90 40 60
        E 0 90 49 60
        E 0 90 4c 60
        E 0 90 55 60
        E 0 90 58 60
        E 0 90 61 60
        E 0 90 64 60
        E 120 80 1a 00
        E 0 80 24 00
        E 0 80 3d 00
        E 0 80 40 00
        E 0 80 49 00
        E 0 80 4c 00
        E 0 80 55 00
        E 0 80 58 00
        E 0 80 61 00
        E 0 80 64 00
        E 120 90 19 60
        E 0 90 24 60
        E 0 90 58 60
        E 0 90 64 60
        E 120 80 24 00
        E 0 80 58 00
        E 0 80 64 00
        E 120 80 19 00
        E 0 90 18 60
        E 0 90 24 60
        E 0 90 40 60
        E 0 90 48 60
        E 0 90 4c 60
        E 0 90 54 60
        E 0 90 58 60
        E 0 90 60 60
        E 0 90 64 60
        E 120 80 18 00
        E 0 80 24 00
        E 0 80 40 00
        E 0 80 48 00
        E 0 80 4c 00
        E 0 80 54 00
        E 0 80 58 00
        E 0 80 60 00
        E 0 80 64 00
        E 120 90 18 60
        E 0 90 19 60
        E 0 90 24 60
        E 0 90 54 60
        E 0 90 58 60
        E 0 90 60 60
        E 0 90 64 60
        E 120 80 18 00
        E 0 80 24 00
        E 0 80 54 00
        E 0 80 58 00
        E 0 80 60 00
        E 0 80 64 00
        E 120 80 19 00
        E 0 90 1a 60
        E 0 90 24 60
        E 0 90 3d 60
        E 0 90 40 60
        E 0 90 49 60
        E 0 90 4c 60
        E 0 90 55 60
        E 0 90 58 60
        E 0 90 61 60
        E 0 90 64 60
        E 120 80 1a 00
        E 0 80 24 00
        E 0 80 3d 00
        E 0 80 40 00
        E 0 80 49 00
        E 0 80 4c 00
        E 0 80 55 00
        E 0 80 58 00
        E 0 80 61 00
        E 0 80 64 00
        E 120 90 19 60
        E 0 90 24 60
        E 0 90 58 60
        E 0 90 64 60
        E 120 80 24 00
        E 0 80 58 00
        E 0 80 64 00
        E 120 80 19 00
        E 0 90 18 60
        E 0 90 24 60
        E 0 90 40 60
        E 0 90 48 60
        E 0 90 4c 60
        E 0 90 54 60
        E 0 90 58 60
        E 0 90 60 60
        E 0 90 64 60
        E 120 80 18 00
        E 0 80 24 00
        E 0 80 40 00
        E 0 80 48 00
        E 0 80 4c 00
        E 0 80 54 00
        E 0 80 58 00
        E 0 80 60 00
        E 0 80 64 00
        E 120 90 18 60
        E 0 90 19 60
        E 0 90 24 60
        E 0 90 54 60
        E 0 90 58 60
        E 0 90 60 60
        E 0 90 64 60
        E 120 80 18 00
        E 0 80 24 00
        E 0 80 54 00
        E 0 80 58 00
        E 0 80 60 00
        E 0 80 64 00
        E 120 80 19 00
        E 0 90 1a 60
        E 0 90 24 60
        E 0 90 3d 60
        E 0 90 40 60
        E 0 90 49 60
        E 0 90 4c 60
        E 0 90 55 60
        E 0 90 58 60
        E 0 90 61 60
        E 0 90 64 60
        E 120 80 1a 00
        E 0 80 24 00
        E 0 80 3d 00
        E 0 80 40 00
        E 0 80 49 00
        E 0 80 4c 00
        E 0 80 55 00
        E 0 80 58 00
        E 0 80 61 00
        E 0 80 64 00
        E 120 90 19 60
        E 0 90 24 60
        E 0 90 58 60
        E 0 90 64 60
        E 120 80 24 00
        E 0 80 58 00
        E 0 80 64 00
        E 120 80 19 00
        E 0 90 18 60
        E 0 90 24 60
        E 0 90 40 60
        E 0 90 48 60
        E 0 90 4c 60
        E 0 90 54 60
        E 0 90 58 60
        E 0 90 60 60
        E 0 90 64 60
        E 120 80 18 00
        E 0 80 24 00
        E 0 80 40 00
        E 0 80 48 00
        E 0 80 4c 00
        E 0 80 54 00
        E 0 80 58 00
        E 0 80 60 00
        E 0 80 64 00
        E 120 90 18 60
        E 0 90 19 60
        E 0 90 24 60
        E 0 90 54 60
        E 0 90 58 60
        E 0 90 60 60
        E 0 90 64 60
        E 120 80 18 00
        E 0 80 24 00
        E 0 80 54 00
        E 0 80 58 00
        E 0 80 60 00
        E 0 80 64 00
        E 120 80 19 00
        E 0 90 1a 60
        E 0 90 24 60
        E 0 90 3d 60
        E 0 90 40 60
        E 0 90 49 60
        E 0 90 4c 60
        E 0 90 55 60
        E 0 90 58 60
        E 0 90 61 60
        E 0 90 64 60
        E 120 80 1a 00
        E 0 80 24 00
        E 0 80 3d 00
        E 0 80 40 00
        E 0 80 49 00
        E 0 80 4c 00
        E 0 80 55 00
        E 0 80 58 00
        E 0 80 61 00
        E 0 80 64 00
        E 120 90 19 60
        E 0 90 1e 60
        E 0 90 24 60
        E 0 90 56 60
        E 0 90 58 60
        E 0 90 62 60
        E 0 90 64 60
        E 120 80 1e 00
        E 0 80 24 00
        E 0 80 56 00
        E 0 80 58 00
        E 0 80 62 00
        E 0 80 64 00
        E 120 80 19 00
        E 0 90 18 60
        E 0 90 24 60
        E 0 90 40 60
        E 0 90 48 60
        E 0 90 4c 60
        E 0 90 54 60
        E 0 90 58 60
        E 0 90 60 60
        E 0 90 64 60
        E 0 90 74 60
        E 120 80 18 00
        E 0 80 24 00
        E 0 80 40 00
        E 0 80 48 00
        E 0 80 4c 00
        E 0 80 54 00
        E 0 80 58 00
        E 0 80 60 00
        E 0 80 64 00
        E 120 90 18 60
        E 0 90 19 60
        E 0 90 24 60
        E 0 90 54 60
        E 0 90 58 60
        E 0 90 60 60
        E 0 90 64 60
        E 120 80 18 00
        E 0 80 24 00
        E 0 80 54 00
        E 0 80 58 00
        E 0 80 60 00
        E 0 80 64 00
        E 120 80 19 00
        E 0 90 1a 60
        E 0 90 24 60
        E 0 90 3d 60
        E 0 90 40 60
        E 0 90 49 60
        E 0 90 4c 60
        E 0 90 55 60
        E 0 90 58 60
        E 0 90 61 60
        E 0 90 64 60
        E 120 80 1a 00
        E 0 80 24 00
        E 0 80 3d 00
        E 0 80 40 00
        E 0 80 49 00
        E 0 80 4c 00
        E 0 80 55 00
        E 0 80 58 00
        E 0 80 61 00
        E 0 80 64 00
        E 120 90 19 60
        E 0 90 24 60
        E 0 90 58 60
        E 0 90 64 60
        E 120 80 24 00
        E 0 80 58 00
        E 0 80 64 00
        E 120 80 19 00
        E 0 90 18 60
        E 0 90 24 60
        E 0 90 40 60
        E 0 90 48 60
        E 0 90 4c 60
        E 0 90 54 60
        E 0 90 58 60
        E 0 90 60 60
        E 0 90 64 60
        E 120 80 18 00
        E 0 80 24 00
        E 0 80 40 00
        E 0 80 48 00
        E 0 80 4c 00
        E 0 80 54 00
        E 0 80 58 00
        E 0 80 60 00
        E 0 80 64 00
        E 120 90 18 60
        E 0 90 19 60
        E 0 90 24 60
        E 0 90 54 60
        E 0 90 58 60
        E 0 90 60 60
        E 0 90 64 60
        E 120 80 18 00
        E 0 80 24 00
        E 0 80 54 00
        E 0 80 58 00
        E 0 80 60 00
        E 0 80 64 00
        E 120 80 19 00
        E 0 90 1a 60
        E 0 90 24 60
        E 0 90 3d 60
        E 0 90 40 60
        E 0 90 49 60
        E 0 90 4c 60
        E 0 90 55 60
        E 0 90 58 60
        E 0 90 61 60
        E 0 90 64 60
        E 120 80 1a 00
        E 0 80 24 00
        E 0 80 3d 00
        E 0 80 40 00
        E 0 80 49 00
        E 0 80 4c 00
        E 0 80 55 00
        E 0 80 58 00
        E 0 80 61 00
        E 0 80 64 00
        E 120 90 19 60
        E 0 90 24 60
        E 0 90 58 60
        E 0 90 64 60
        E 120 80 24 00
        E 0 80 58 00
        E 0 80 64 00
        E 120 80 19 00
        E 0 90 18 60
        E 0 90 24 60
        E 0 90 40 60
        E 0 90 48 60
        E 0 90 4c 60
        E 0 90 54 60
        E 0 90 58 60
        E 0 90 60 60
        E 0 90 64 60
        E 120 80 18 00
        E 0 80 24 00
        E 0 80 40 00
        E 0 80 48 00
        E 0 80 4c 00
        E 0 80 54 00
        E 0 80 58 00
        E 0 80 60 00
        E 0 80 64 00
        E 120 90 18 60
        E 0 90 19 60
        E 0 90 24 60
        E 0 90 54 60
        E 0 90 58 60
        E 0 90 60 60
        E 0 90 64 60
        E 120 80 18 00
        E 0 80 24 00
        E 0 80 54 00
        E 0 80 58 00
        E 0 80 60 00
        E 0 80 64 00
        E 120 80 19 00
        E 0 90 1a 60
        E 0 90 24 60
        E 0 90 3d 60
        E 0 90 40 60
        E 0 90 49 60
        E 0 90 4c 60
        E 0 90 55 60
        E 0 90 58 60
        E 0 90 61 60
        E 0 90 64 60
        E 120 80 1a 00
        E 0 80 24 00
        E 0 80 3d 00
        E 0 80 40 00
        E 0 80 49 00
        E 0 80 4c 00
        E 0 80 55 00
        E 0 80 58 00
        E 0 80 61 00
        E 0 80 64 00
        E 120 90 19 60
        E 0 90 24 60
        E 0 90 58 60
        E 0 90 64 60
        E 120 80 24 00
        E 0 80 58 00
        E 0 80 64 00
        E 120 80 19 00
        E 0 90 18 60
        E 0 90 24 60
        E 0 90 40 60
        E 0 90 48 60
        E 0 90 4c 60
        E 0 90 54 60
        E 0 90 58 60
        E 0 90 60 60
        E 0 90 64 60
        E 120 80 18 00
        E 0 80 24 00
        E 0 80 40 00
        E 0 80 48 00
        E 0 80 4c 00
        E 0 80 54 00
        E 0 80 58 00
        E 0 80 60 00
        E 0 80 64 00
        E 120 90 18 60
        E 0 90 19 60
        E 0 90 24 60
        E 0 90 54 60
        E 0 90 58 60
        E 0 90 60 60
        E 0 90 64 60
        E 120 80 18 00
        E 0 80 24 00
        E 0 80 54 00
        E 0 80 58 00
        E 0 80 60 00
        E 0 80 64 00
        E 120 80 19 00
        E 0 90 1b 60
        E 0 90 3d 60
        E 0 90 49 60
        E 0 90 55 60
        E 0 90 61 60
        E 120 80 1b 00
        E 0 80 3d 00
        E 0 80 49 00
        E 0 80 55 00
        E 0 80 61 00
        E 0 90 1a 60
        E 0 90 61 60
        E 120 80 1a 00
        E 0 80 61 00
        E 0 90 19 60
        E 0 90 1b 60
        E 0 90 55 60
        E 0 90 61 60
        E 120 80 1b 00
        E 0 80 55 00
        E 0 80 61 00
        E 0 90 1a 60
        E 0 90 61 60
        <X 120 0
          /wFbcGxheV0=
        >
        E 0 80 74 00
        E 0 80 19 00
        E 0 80 1a 00
        E 0 80 61 00
        E 0 90 18 60
        E 0 90 26 60
        E 0 90 40 60
        E 0 90 48 60
        E 0 90 4c 60
        E 0 90 54 60
        E 0 90 58 60
        E 0 90 60 60
        E 0 90 64 60
        E 120 80 18 00
        E 0 80 26 00
        E 0 80 40 00
        E 0 80 48 00
        E 0 80 4c 00
        E 0 80 54 00
        E 0 80 58 00
        E 0 80 60 00
        E 0 80 64 00
        E 120 90 18 60
        E 0 90 19 60
        E 0 90 54 60
        E 0 90 60 60
        E 120 80 18 00
        E 0 80 54 00
        E 0 80 60 00
        E 120 80 19 00
        E 0 90 1a 60
        E 0 90 33 60
        E 0 90 3d 60
        E 0 90 3f 60
        E 0 90 49 60
        E 0 90 4b 60
        E 0 90 55 60
        E 0 90 57 60
        E 0 90 61 60
        E 0 90 63 60
        E 0 90 6f 60
        E 120 80 1a 00
        E 0 80 33 00
        E 0 80 3d 00
        E 0 80 3f 00
        E 0 80 49 00
        E 0 80 4b 00
        E 0 80 55 00
        E 0 80 57 00
        E 0 80 61 00
        E 0 80 63 00
        E 120 90 19 60
        E 0 90 33 60
        E 0 90 63 60
        E 120 80 33 00
        E 0 80 63 00
        E 120 80 19 00
        E 0 90 18 60
        E 0 90 33 60
        E 0 90 3f 60
        E 0 90 48 60
        E 0 90 4b 60
        E 0 90 54 60
        E 0 90 57 60
        E 0 90 60 60
        E 0 90 63 60
        E 120 80 18 00
        E 0 80 33 00
        E 0 80 3f 00
        E 0 80 48 00
        E 0 80 4b 00
        E 0 80 54 00
        E 0 80 57 00
        E 0 80 60 00
        E 0 80 63 00
        E 120 90 18 60
        E 0 90 19 60
        E 0 90 33 60
        E 0 90 54 60
        E 0 90 60 60
        E 0 90 63 60
        E 120 80 18 00
        E 0 80 33 00
        E 0 80 54 00
        E 0 80 60 00
        E 0 80 63 00
        E 120 80 19 00
        E 0 90 1a 60
        E 0 90 33 60
        E 0 90 3d 60
        E 0 90 3f 60
        E 0 90 49 60
        E 0 90 4b 60
        E 0 90 55 60
        E 0 90 57 60
        E 0 90 61 60
        E 0 90 63 60
        E 120 80 1a 00
        E 0 80 33 00
        E 0 80 3d 00
        E 0 80 3f 00
        E 0 80 49 00
        E 0 80 4b 00
        E 0 80 55 00
        E 0 80 57 00
        E 0 80 61 00
        E 0 80 63 00
        E 120 90 19 60
        E 0 90 33 60
        E 0 90 63 60
        E 120 80 33 00
        E 0 80 63 00
        E 120 80 19 00
        E 0 90 18 60
        E 0 90 33 60
        E 0 90 3f 60
        E 0 90 48 60
        E 0 90 4b 60
        E 0 90 54 60
        E 0 90 57 60
        E 0 90 60 60
        E 0 90 63 60
        E 120 80 18 00
        E 0 80 33 00
        E 0 80 3f 00
        E 0 80 48 00
        E 0 80 4b 00
        E 0 80 54 00
        E 0 80 57 00
        E 0 80 60 00
        E 0 80 63 00
        E 120 90 18 60
        E 0 90 19 60
        E 0 90 33 60
        E 0 90 54 60
        E 0 90 60 60
        E 0 90 63 60
        E 120 80 18 00
        E 0 80 33 00
        E 0 80 54 00
        E 0 80 60 00
        E 0 80 63 00
        E 120 80 19 00
        E 0 90 1a 60
        E 0 90 33 60
        E 0 90 3d 60
        E 0 90 3f 60
        E 0 90 49 60
        E 0 90 4b 60
        E 0 90 55 60
        E 0 90 57 60
        E 0 90 61 60
        E 0 90 63 60
        E 120 80 1a 00
        E 0 80 33 00
        E 0 80 3d 00
        E 0 80 3f 00
        E 0 80 49 00
        E 0 80 4b 00
        E 0 80 55 00
        E 0 80 57 00
        E 0 80 61 00
        E 0 80 63 00
        E 120 90 19 60
        E 0 90 33 60
        E 0 90 63 60
        E 120 80 33 00
        E 0 80 63 00
        E 120 80 19 00
        E 0 90 18 60
        E 0 90 33 60
        E 0 90 3f 60
        E 0 90 48 60
        E 0 90 4b 60
        E 0 90 54 60
        E 0 90 57 60
        E 0 90 60 60
        E 0 90 63 60
        E 120 80 18 00
        E 0 80 33 00
        E 0 80 3f 00
        E 0 80 48 00
        E 0 80 4b 00
        E 0 80 54 00
        E 0 80 57 00
        E 0 80 60 00
        E 0 80 63 00
        E 120 90 18 60
        E 0 90 19 60
        E 0 90 33 60
        E 0 90 54 60
        E 0 90 60 60
        E 0 90 63 60
        E 120 80 18 00
        E 0 80 33 00
        E 0 80 54 00
        E 0 80 60 00
        E 0 80 63 00
        E 120 80 19 00
        E 0 90 1a 60
        E 0 90 33 60
        E 0 90 3d 60
        E 0 90 3f 60
        E 0 90 49 60
        E 0 90 4b 60
        E 0 90 55 60
        E 0 90 57 60
        E 0 90 61 60
        E 0 90 63 60
        E 120 80 1a 00
        E 0 80 33 00
        E 0 80 3d 00
        E 0 80 3f 00
        E 0 80 49 00
        E 0 80 4b 00
        E 0 80 55 00
        E 0 80 57 00
        E 0 80 61 00
        E 0 80 63 00
        E 120 90 19 60
        E 0 90 33 60
        E 0 90 63 60
        E 120 80 33 00
        E 0 80 63 00
        E 120 80 19 00
        E 0 90 18 60
        E 0 90 33 60
        E 0 90 3f 60
        E 0 90 48 60
        E 0 90 4b 60
        E 0 90 54 60
        E 0 90 57 60
        E 0 90 60 60
        E 0 90 63 60
        E 120 80 18 00
        E 0 80 33 00
        E 0 80 3f 00
        E 0 80 48 00
        E 0 80 4b 00
        E 0 80 54 00
        E 0 80 57 00
        E 0 80 60 00
        E 0 80 63 00
        E 120 90 18 60
        E 0 90 19 60
        E 0 90 33 60
        E 0 90 54 60
        E 0 90 60 60
        E 0 90 63 60
        E 120 80 18 00
        E 0 80 33 00
        E 0 80 54 00
        E 0 80 60 00
        E 0 80 63 00
        E 120 80 19 00
        E 0 90 1a 60
        E 0 90 33 60
        E 0 90 3d 60
        E 0 90 3f 60
        E 0 90 49 60
        E 0 90 4b 60
        E 0 90 55 60
        E 0 90 57 60
        E 0 90 61 60
        E 0 90 63 60
        E 120 80 1a 00
        E 0 80 33 00
        E 0 80 3d 00
        E 0 80 3f 00
        E 0 80 49 00
        E 0 80 4b 00
        E 0 80 55 00
        E 0 80 57 00
        E 0 80 61 00
        E 0 80 63 00
        E 120 90 19 60
        E 0 90 33 60
        E 0 90 63 60
        E 120 80 33 00
        E 0 80 63 00
        E 120 80 19 00
        E 0 90 18 60
        E 0 90 33 60
        E 0 90 3f 60
        E 0 90 48 60
        E 0 90 4b 60
        E 0 90 54 60
        E 0 90 57 60
        E 0 90 60 60
        E 0 90 63 60
        E 120 80 18 00
        E 0 80 33 00
        E 0 80 3f 00
        E 0 80 48 00
        E 0 80 4b 00
        E 0 80 54 00
        E 0 80 57 00
        E 0 80 60 00
        E 0 80 63 00
        E 120 90 18 60
        E 0 90 19 60
        E 0 90 33 60
        E 0 90 54 60
        E 0 90 60 60
        E 0 90 63 60
        E 120 80 18 00
        E 0 80 33 00
        E 0 80 54 00
        E 0 80 60 00
        E 0 80 63 00
        E 120 80 19 00
        E 0 90 1a 60
        E 0 90 33 60
        E 0 90 3d 60
        E 0 90 3f 60
        E 0 90 49 60
        E 0 90 4b 60
        E 0 90 55 60
        E 0 90 57 60
        E 0 90 61 60
        E 0 90 63 60
        E 120 80 1a 00
        E 0 80 33 00
        E 0 80 3d 00
        E 0 80 3f 00
        E 0 80 49 00
        E 0 80 4b 00
        E 0 80 55 00
        E 0 80 57 00
        E 0 80 61 00
        E 0 80 63 00
        E 120 90 19 60
        E 0 90 33 60
        E 0 90 63 60
        E 120 80 33 00
        E 0 80 63 00
        E 120 80 19 00
        E 0 90 18 60
        E 0 90 33 60
        E 0 90 3f 60
        E 0 90 48 60
        E 0 90 4b 60
        E 0 90 54 60
        E 0 90 57 60
        E 0 90 60 60
        E 0 90 63 60
        E 0 90 78 60
        E 0 90 79 60
        E 0 90 7a 60
        E 0 90 7b 60
        E 0 90 7c 60
        E 120 80 18 00
        E 0 80 33 00
        E 0 80 3f 00
        E 0 80 48 00
        E 0 80 4b 00
        E 0 80 54 00
        E 0 80 57 00
        E 0 80 60 00
        E 0 80 63 00
        E 120 90 18 60
        E 0 90 19 60
        E 0 90 33 60
        E 0 90 54 60
        E 0 90 60 60
        E 0 90 63 60
        E 120 80 18 00
        E 0 80 33 00
        E 0 80 54 00
        E 0 80 60 00
        E 0 80 63 00
        E 120 80 19 00
        E 0 90 1a 60
        E 0 90 33 60
        E 0 90 3d 60
        E 0 90 3f 60
        E 0 90 49 60
        E 0 90 4b 60
        E 0 90 55 60
        E 0 90 57 60
        E 0 90 61 60
        E 0 90 63 60
        E 120 80 1a 00
        E 0 80 33 00
        E 0 80 3d 00
        E 0 80 3f 00
        E 0 80 49 00
        E 0 80 4b 00
        E 0 80 55 00
        E 0 80 57 00
        E 0 80 61 00
        E 0 80 63 00
        E 120 90 19 60
        E 0 90 33 60
        E 0 90 63 60
        E 120 80 33 00
        E 0 80 63 00
        E 120 80 19 00
        E 0 90 18 60
        E 0 90 33 60
        E 0 90 3f 60
        E 0 90 48 60
        E 0 90 4b 60
        E 0 90 54 60
        E 0 90 57 60
        E 0 90 60 60
        E 0 90 63 60
        E 120 80 18 00
        E 0 80 33 00
        E 0 80 3f 00
        E 0 80 48 00
        E 0 80 4b 00
        E 0 80 54 00
        E 0 80 57 00
        E 0 80 60 00
        E 0 80 63 00
        E 120 90 18 60
        E 0 90 19 60
        E 0 90 33 60
        E 0 90 54 60
        E 0 90 60 60
        E 0 90 63 60
        E 120 80 18 00
        E 0 80 33 00
        E 0 80 54 00
        E 0 80 60 00
        E 0 80 63 00
        E 120 80 19 00
        E 0 90 1a 60
        E 0 90 33 60
        E 0 90 3d 60
        E 0 90 3f 60
        E 0 90 49 60
        E 0 90 4b 60
        E 0 90 55 60
        E 0 90 57 60
        E 0 90 61 60
        E 0 90 63 60
        E 120 80 1a 00
        E 0 80 33 00
        E 0 80 3d 00
        E 0 80 3f 00
        E 0 80 49 00
        E 0 80 4b 00
        E 0 80 55 00
        E 0 80 57 00
        E 0 80 61 00
        E 0 80 63 00
        E 120 90 19 60
        E 0 90 33 60
        E 0 90 63 60
        E 120 80 33 00
        E 0 80 63 00
        E 120 80 78 00
        E 0 80 79 00
        E 0 80 7a 00
        E 0 80 7b 00
        E 0 80 7c 00
        E 0 80 19 00
        E 0 90 18 60
        E 0 90 26 60
        E 0 90 40 60
        E 0 90 48 60
        E 0 90 4c 60
        E 0 90 54 60
        E 0 90 58 60
        E 0 90 60 60
        E 0 90 64 60
        E 120 80 18 00
        E 0 80 26 00
        E 0 80 40 00
        E 0 80 48 00
        E 0 80 4c 00
        E 0 80 54 00
        E 0 80 58 00
        E 0 80 60 00
        E 0 80 64 00
        E 120 90 18 60
        E 0 90 19 60
        E 0 90 33 60
        E 0 90 54 60
        E 0 90 60 60
        E 0 90 63 60
        E 120 80 18 00
        E 0 80 33 00
        E 0 80 54 00
        E 0 80 60 00
        E 0 80 63 00
        E 120 80 19 00
        E 0 90 1a 60
        E 0 90 33 60
        E 0 90 3d 60
        E 0 90 3f 60
        E 0 90 49 60
        E 0 90 4b 60
        E 0 90 55 60
        E 0 90 57 60
        E 0 90 61 60
        E 0 90 63 60
        E 120 80 1a 00
        E 0 80 33 00
        E 0 80 3d 00
        E 0 80 3f 00
        E 0 80 49 00
        E 0 80 4b 00
        E 0 80 55 00
        E 0 80 57 00
        E 0 80 61 00
        E 0 80 63 00
        E 120 90 19 60
        E 0 90 33 60
        E 0 90 63 60
        E 120 80 33 00
        E 0 80 63 00
        E 120 80 19 00
        E 0 90 18 60
        E 0 90 33 60
        E 0 90 3f 60
        E 0 90 48 60
        E 0 90 4b 60
        E 0 90 54 60
        E 0 90 57 60
        E 0 90 60 60
        E 0 90 63 60
        E 120 80 18 00
        E 0 80 33 00
        E 0 80 3f 00
        E 0 80 48 00
        E 0 80 4b 00
        E 0 80 54 00
        E 0 80 57 00
        E 0 80 60 00
        E 0 80 63 00
        E 120 90 18 60
        E 0 90 19 60
        E 0 90 33 60
        E 0 90 54 60
        E 0 90 60 60
        E 0 90 63 60
        E 120 80 18 00
        E 0 80 33 00
        E 0 80 54 00
        E 0 80 60 00
        E 0 80 63 00
        E 120 80 19 00
        E 0 90 1a 60
        E 0 90 33 60
        E 0 90 3d 60
        E 0 90 3f 60
        E 0 90 49 60
        E 0 90 4b 60
        E 0 90 55 60
        E 0 90 57 60
        E 0 90 61 60
        E 0 90 63 60
        E 120 80 1a 00
        E 0 80 33 00
        E 0 80 3d 00
        E 0 80 3f 00
        E 0 80 49 00
        E 0 80 4b 00
        E 0 80 55 00
        E 0 80 57 00
        E 0 80 61 00
        E 0 80 63 00
        E 120 90 19 60
        E 0 90 33 60
        E 0 90 63 60
        E 120 80 33 00
        E 0 80 63 00
        E 120 80 19 00
        E 0 90 18 60
        E 0 90 33 60
        E 0 90 3f 60
        E 0 90 48 60
        E 0 90 4b 60
        E 0 90 54 60
        E 0 90 57 60
        E 0 90 60 60
        E 0 90 63 60
        E 120 80 18 00
        E 0 80 33 00
        E 0 80 3f 00
        E 0 80 48 00
        E 0 80 4b 00
        E 0 80 54 00
        E 0 80 57 00
        E 0 80 60 00
        E 0 80 63 00
        E 120 90 18 60
        E 0 90 19 60
        E 0 90 33 60
        E 0 90 54 60
        E 0 90 60 60
        E 0 90 63 60
        E 120 80 18 00
        E 0 80 33 00
        E 0 80 54 00
        E 0 80 60 00
        E 0 80 63 00
        E 120 80 19 00
        E 0 90 1a 60
        E 0 90 33 60
        E 0 90 3d 60
        E 0 90 3f 60
        E 0 90 49 60
        E 0 90 4b 60
        E 0 90 55 60
        E 0 90 57 60
        E 0 90 61 60
        E 0 90 63 60
        E 120 80 1a 00
        E 0 80 33 00
        E 0 80 3d 00
        E 0 80 3f 00
        E 0 80 49 00
        E 0 80 4b 00
        E 0 80 55 00
        E 0 80 57 00
        E 0 80 61 00
        E 0 80 63 00
        E 120 90 19 60
        E 0 90 33 60
        E 0 90 63 60
        E 120 80 33 00
        E 0 80 63 00
        E 120 80 19 00
        E 0 90 18 60
        E 0 90 33 60
        E 0 90 3f 60
        E 0 90 48 60
        E 0 90 4b 60
        E 0 90 54 60
        E 0 90 57 60
        E 0 90 60 60
        E 0 90 63 60
        E 120 80 18 00
        E 0 80 33 00
        E 0 80 3f 00
        E 0 80 48 00
        E 0 80 4b 00
        E 0 80 54 00
        E 0 80 57 00
        E 0 80 60 00
        E 0 80 63 00
        E 120 90 18 60
        E 0 90 19 60
        E 0 90 33 60
        E 0 90 54 60
        E 0 90 60 60
        E 0 90 63 60
        E 120 80 18 00
        E 0 80 33 00
        E 0 80 54 00
        E 0 80 60 00
        E 0 80 63 00
        E 120 80 19 00
        E 0 90 1a 60
        E 0 90 33 60
        E 0 90 3d 60
        E 0 90 3f 60
        E 0 90 49 60
        E 0 90 4b 60
        E 0 90 55 60
        E 0 90 57 60
        E 0 90 61 60
        E 0 90 63 60
        E 120 80 1a 00
        E 0 80 33 00
        E 0 80 3d 00
        E 0 80 3f 00
        E 0 80 49 00
        E 0 80 4b 00
        E 0 80 55 00
        E 0 80 57 00
        E 0 80 61 00
        E 0 80 63 00
        E 120 90 19 60
        E 0 90 33 60
        E 0 90 63 60
        E 120 80 33 00
        E 0 80 63 00
        E 120 80 19 00
        E 0 90 18 60
        E 0 90 33 60
        E 0 90 3f 60
        E 0 90 48 60
        E 0 90 4b 60
        E 0 90 54 60
        E 0 90 57 60
        E 0 90 60 60
        E 0 90 63 60
        E 120 80 18 00
        E 0 80 33 00
        E 0 80 3f 00
        E 0 80 48 00
        E 0 80 4b 00
        E 0 80 54 00
        E 0 80 57 00
        E 0 80 60 00
        E 0 80 63 00
        E 120 90 18 60
        E 0 90 19 60
        E 0 90 33 60
        E 0 90 54 60
        E 0 90 60 60
        E 0 90 63 60
        E 120 80 18 00
        E 0 80 33 00
        E 0 80 54 00
        E 0 80 60 00
        E 0 80 63 00
        E 120 80 19 00
        E 0 90 1a 60
        E 0 90 33 60
        E 0 90 3d 60
        E 0 90 3f 60
        E 0 90 49 60
        E 0 90 4b 60
        E 0 90 55 60
        E 0 90 57 60
        E 0 90 61 60
        E 0 90 63 60
        E 120 80 1a 00
        E 0 80 33 00
        E 0 80 3d 00
        E 0 80 3f 00
        E 0 80 49 00
        E 0 80 4b 00
        E 0 80 55 00
        E 0 80 57 00
        E 0 80 61 00
        E 0 80 63 00
        E 120 90 19 60
        E 0 90 33 60
        E 0 90 63 60
        E 120 80 33 00
        E 0 80 63 00
        E 120 80 19 00
        E 0 90 18 60
        E 0 90 33 60
        E 0 90 3f 60
        E 0 90 48 60
        E 0 90 4b 60
        E 0 90 54 60
        E 0 90 57 60
        E 0 90 60 60
        E 0 90 63 60
        E 120 80 18 00
        E 0 80 33 00
        E 0 80 3f 00
        E 0 80 48 00
        E 0 80 4b 00
        E 0 80 54 00
        E 0 80 57 00
        E 0 80 60 00
        E 0 80 63 00
        E 120 90 18 60
        E 0 90 19 60
        E 0 90 33 60
        E 0 90 54 60
        E 0 90 60 60
        E 0 90 63 60
        E 120 80 18 00
        E 0 80 33 00
        E 0 80 54 00
        E 0 80 60 00
        E 0 80 63 00
        E 120 80 19 00
        E 0 90 1a 60
        E 0 90 33 60
        E 0 90 3d 60
        E 0 90 3f 60
        E 0 90 49 60
        E 0 90 4b 60
        E 0 90 55 60
        E 0 90 57 60
        E 0 90 61 60
        E 0 90 63 60
        E 120 80 1a 00
        E 0 80 33 00
        E 0 80 3d 00
        E 0 80 3f 00
        E 0 80 49 00
        E 0 80 4b 00
        E 0 80 55 00
        E 0 80 57 00
        E 0 80 61 00
        E 0 80 63 00
        E 120 90 19 60
        E 0 90 33 60
        E 0 90 63 60
        E 120 80 33 00
        E 0 80 63 00
        E 120 80 19 00
        E 0 90 18 60
        E 0 90 33 60
        E 0 90 3f 60
        E 0 90 48 60
        E 0 90 4b 60
        E 0 90 54 60
        E 0 90 57 60
        E 0 90 60 60
        E 0 90 63 60
        E 0 90 78 60
        E 0 90 79 60
        E 0 90 7a 60
        E 0 90 7b 60
        E 0 90 7c 60
        E 120 80 18 00
        E 0 80 33 00
        E 0 80 3f 00
        E 0 80 48 00
        E 0 80 4b 00
        E 0 80 54 00
        E 0 80 57 00
        E 0 80 60 00
        E 0 80 63 00
        E 120 90 18 60
        E 0 90 19 60
        E 0 90 33 60
        E 0 90 54 60
        E 0 90 60 60
        E 0 90 63 60
        E 120 80 18 00
        E 0 80 33 00
        E 0 80 54 00
        E 0 80 60 00
        E 0 80 63 00
        E 120 80 19 00
        E 0 90 1a 60
        E 0 90 33 60
        E 0 90 3d 60
        E 0 90 3f 60
        E 0 90 49 60
        E 0 90 4b 60
        E 0 90 55 60
        E 0 90 57 60
        E 0 90 61 60
        E 0 90 63 60
        E 120 80 1a 00
        E 0 80 33 00
        E 0 80 3d 00
        E 0 80 3f 00
        E 0 80 49 00
        E 0 80 4b 00
        E 0 80 55 00
        E 0 80 57 00
        E 0 80 61 00
        E 0 80 63 00
        E 120 90 19 60
        E 0 90 33 60
        E 0 90 63 60
        E 120 80 33 00
        E 0 80 63 00
        E 120 80 19 00
        E 0 90 18 60
        E 0 90 33 60
        E 0 90 3f 60
        E 0 90 48 60
        E 0 90 4b 60
        E 0 90 54 60
        E 0 90 57 60
        E 0 90 60 60
        E 0 90 63 60
        E 120 80 18 00
        E 0 80 33 00
        E 0 80 3f 00
        E 0 80 48 00
        E 0 80 4b 00
        E 0 80 54 00
        E 0 80 57 00
        E 0 80 60 00
        E 0 80 63 00
        E 120 90 18 60
        E 0 90 19 60
        E 0 90 33 60
        E 0 90 54 60
        E 0 90 60 60
        E 0 90 63 60
        E 120 80 18 00
        E 0 80 33 00
        E 0 80 54 00
        E 0 80 60 00
        E 0 80 63 00
        E 120 80 19 00
        E 0 90 1a 60
        E 0 90 33 60
        E 0 90 3d 60
        E 0 90 3f 60
        E 0 90 49 60
        E 0 90 4b 60
        E 0 90 55 60
        E 0 90 57 60
        E 0 90 61 60
        E 0 90 63 60
        E 120 80 1a 00
        E 0 80 33 00
        E 0 80 3d 00
        E 0 80 3f 00
        E 0 80 49 00
        E 0 80 4b 00
        E 0 80 55 00
        E 0 80 57 00
        E 0 80 61 00
        E 0 80 63 00
        E 120 90 19 60
        E 0 90 1e 60
        E 0 90 33 60
        E 0 90 56 60
        E 0 90 62 60
        E 0 90 63 60
        E 120 80 1e 00
        E 0 80 33 00
        E 0 80 56 00
        E 0 80 62 00
        E 0 80 63 00
        E 120 80 78 00
        E 0 80 79 00
        E 0 80 7a 00
        E 0 80 7b 00
        E 0 80 7c 00
        E 0 80 19 00
        E 0 90 18 60
        E 0 90 33 60
        E 0 90 3f 60
        E 0 90 48 60
        E 0 90 4b 60
        E 0 90 54 60
        E 0 90 57 60
        E 0 90 60 60
        E 0 90 63 60
        E 120 80 18 00
        E 0 80 33 00
        E 0 80 3f 00
        E 0 80 48 00
        E 0 80 4b 00
        E 0 80 54 00
        E 0 80 57 00
        E 0 80 60 00
        E 0 80 63 00
        E 120 90 18 60
        E 0 90 19 60
        E 0 90 33 60
        E 0 90 54 60
        E 0 90 60 60
        E 0 90 63 60
        E 120 80 18 00
        E 0 80 33 00
        E 0 80 54 00
        E 0 80 60 00
        E 0 80 63 00
        E 120 80 19 00
        E 0 90 1a 60
        E 0 90 33 60
        E 0 90 3d 60
        E 0 90 3f 60
        E 0 90 49 60
        E 0 90 4b 60
        E 0 90 55 60
        E 0 90 57 60
        E 0 90 61 60
        E 0 90 63 60
        E 120 80 1a 00
        E 0 80 33 00
        E 0 80 3d 00
        E 0 80 3f 00
        E 0 80 49 00
        E 0 80 4b 00
        E 0 80 55 00
        E 0 80 57 00
        E 0 80 61 00
        E 0 80 63 00
        E 120 90 19 60
        E 0 90 33 60
        E 0 90 63 60
        E 120 80 33 00
        E 0 80 63 00
        E 120 80 19 00
        E 0 90 18 60
        E 0 90 33 60
        E 0 90 3f 60
        E 0 90 48 60
        E 0 90 4b 60
        E 0 90 54 60
        E 0 90 57 60
        E 0 90 60 60
        E 0 90 63 60
        E 120 80 18 00
        E 0 80 33 00
        E 0 80 3f 00
        E 0 80 48 00
        E 0 80 4b 00
        E 0 80 54 00
        E 0 80 57 00
        E 0 80 60 00
        E 0 80 63 00
        E 120 90 18 60
        E 0 90 19 60
        E 0 90 33 60
        E 0 90 54 60
        E 0 90 60 60
        E 0 90 63 60
        E 120 80 18 00
        E 0 80 33 00
        E 0 80 54 00
        E 0 80 60 00
        E 0 80 63 00
        E 120 80 19 00
        E 0 90 1a 60
        E 0 90 33 60
        E 0 90 3d 60
        E 0 90 3f 60
        E 0 90 49 60
        E 0 90 4b 60
        E 0 90 55 60
        E 0 90 57 60
        E 0 90 61 60
        E 0 90 63 60
        E 120 80 1a 00
        E 0 80 33 00
        E 0 80 3d 00
        E 0 80 3f 00
        E 0 80 49 00
        E 0 80 4b 00
        E 0 80 55 00
        E 0 80 57 00
        E 0 80 61 00
        E 0 80 63 00
        E 120 90 19 60
        E 0 90 33 60
        E 0 90 63 60
        E 120 80 33 00
        E 0 80 63 00
        E 120 80 19 00
        E 0 90 18 60
        E 0 90 33 60
        E 0 90 3f 60
        E 0 90 48 60
        E 0 90 4b 60
        E 0 90 54 60
        E 0 90 57 60
        E 0 90 60 60
        E 0 90 63 60
        E 120 80 18 00
        E 0 80 33 00
        E 0 80 3f 00
        E 0 80 48 00
        E 0 80 4b 00
        E 0 80 54 00
        E 0 80 57 00
        E 0 80 60 00
        E 0 80 63 00
        E 120 90 18 60
        E 0 90 19 60
        E 0 90 33 60
        E 0 90 54 60
        E 0 90 60 60
        E 0 90 63 60
        E 120 80 18 00
        E 0 80 33 00
        E 0 80 54 00
        E 0 80 60 00
        E 0 80 63 00
        E 120 80 19 00
        E 0 90 1a 60
        E 0 90 33 60
        E 0 90 3d 60
        E 0 90 3f 60
        E 0 90 49 60
        E 0 90 4b 60
        E 0 90 55 60
        E 0 90 57 60
        E 0 90 61 60
        E 0 90 63 60
        E 120 80 1a 00
        E 0 80 33 00
        E 0 80 3d 00
        E 0 80 3f 00
        E 0 80 49 00
        E 0 80 4b 00
        E 0 80 55 00
        E 0 80 57 00
        E 0 80 61 00
        E 0 80 63 00
        E 120 90 19 60
        E 0 90 33 60
        E 0 90 63 60
        E 120 80 33 00
        E 0 80 63 00
        E 120 80 19 00
        E 0 90 18 60
        E 0 90 33 60
        E 0 90 3f 60
        E 0 90 48 60
        E 0 90 4b 60
        E 0 90 54 60
        E 0 90 57 60
        E 0 90 60 60
        E 0 90 63 60
        E 120 80 18 00
        E 0 80 33 00
        E 0 80 3f 00
        E 0 80 48 00
        E 0 80 4b 00
        E 0 80 54 00
        E 0 80 57 00
        E 0 80 60 00
        E 0 80 63 00
        E 120 90 18 60
        E 0 90 19 60
        E 0 90 33 60
        E 0 90 54 60
        E 0 90 60 60
        E 0 90 63 60
        E 120 80 18 00
        E 0 80 33 00
        E 0 80 54 00
        E 0 80 60 00
        E 0 80 63 00
        E 120 80 19 00
        E 0 90 1a 60
        E 0 90 33 60
        E 0 90 3d 60
        E 0 90 3f 60
        E 0 90 49 60
        E 0 90 4b 60
        E 0 90 55 60
        E 0 90 57 60
        E 0 90 61 60
        E 0 90 63 60
        E 120 80 1a 00
        E 0 80 33 00
        E 0 80 3d 00
        E 0 80 3f 00
        E 0 80 49 00
        E 0 80 4b 00
        E 0 80 55 00
        E 0 80 57 00
        E 0 80 61 00
        E 0 80 63 00
        E 120 90 19 60
        E 0 90 33 60
        E 0 90 63 60
        E 120 80 33 00
        E 0 80 63 00
        E 120 80 19 00
        E 0 90 18 60
        E 0 90 26 60
        E 0 90 40 60
        E 0 90 48 60
        E 0 90 4c 60
        E 0 90 54 60
        E 0 90 58 60
        E 0 90 60 60
        E 0 90 64 60
        E 120 80 18 00
        E 0 80 26 00
        E 0 80 40 00
        E 0 80 48 00
        E 0 80 4c 00
        E 0 80 54 00
        E 0 80 58 00
        E 0 80 60 00
        E 0 80 64 00
        E 120 90 18 60
        E 0 90 19 60
        E 0 90 33 60
        E 0 90 54 60
        E 0 90 60 60
        E 0 90 63 60
        E 120 80 18 00
        E 0 80 33 00
        E 0 80 54 00
        E 0 80 60 00
        E 0 80 63 00
        E 120 80 19 00
        E 0 90 1a 60
        E 0 90 33 60
        E 0 90 3d 60
        E 0 90 3f 60
        E 0 90 49 60
        E 0 90 4b 60
        E 0 90 55 60
        E 0 90 57 60
        E 0 90 61 60
        E 0 90 63 60
        E 120 80 1a 00
        E 0 80 33 00
        E 0 80 3d 00
        E 0 80 3f 00
        E 0 80 49 00
        E 0 80 4b 00
        E 0 80 55 00
        E 0 80 57 00
        E 0 80 61 00
        E 0 80 63 00
        E 120 90 19 60
        E 0 90 33 60
        E 0 90 63 60
        E 120 80 33 00
        E 0 80 63 00
        E 120 80 19 00
        E 0 90 18 60
        E 0 90 33 60
        E 0 90 3f 60
        E 0 90 48 60
        E 0 90 4b 60
        E 0 90 54 60
        E 0 90 57 60
        E 0 90 60 60
        E 0 90 63 60
        E 120 80 18 00
        E 0 80 33 00
        E 0 80 3f 00
        E 0 80 48 00
        E 0 80 4b 00
        E 0 80 54 00
        E 0 80 57 00
        E 0 80 60 00
        E 0 80 63 00
        E 120 90 18 60
        E 0 90 19 60
        E 0 90 33 60
        E 0 90 54 60
        E 0 90 60 60
        E 0 90 63 60
        E 120 80 18 00
        E 0 80 33 00
        E 0 80 54 00
        E 0 80 60 00
        E 0 80 63 00
        E 120 80 19 00
        E 0 90 1a 60
        E 0 90 33 60
        E 0 90 3d 60
        E 0 90 3f 60
        E 0 90 49 60
        E 0 90 4b 60
        E 0 90 55 60
        E 0 90 57 60
        E 0 90 61 60
        E 0 90 63 60
        E 120 80 1a 00
        E 0 80 33 00
        E 0 80 3d 00
        E 0 80 3f 00
        E 0 80 49 00
        E 0 80 4b 00
        E 0 80 55 00
        E 0 80 57 00
        E 0 80 61 00
        E 0 80 63 00
        E 120 90 19 60
        E 0 90 33 60
        E 0 90 63 60
        E 120 80 33 00
        E 0 80 63 00
        E 120 80 19 00
        E 0 90 18 60
        E 0 90 33 60
        E 0 90 3f 60
        E 0 90 48 60
        E 0 90 4b 60
        E 0 90 54 60
        E 0 90 57 60
        E 0 90 60 60
        E 0 90 63 60
        E 0 90 78 60
        E 0 90 79 60
        E 0 90 7a 60
        E 0 90 7b 60
        E 0 90 7c 60
        E 120 80 18 00
        E 0 80 33 00
        E 0 80 3f 00
        E 0 80 48 00
        E 0 80 4b 00
        E 0 80 54 00
        E 0 80 57 00
        E 0 80 60 00
        E 0 80 63 00
        E 120 90 18 60
        E 0 90 19 60
        E 0 90 33 60
        E 0 90 54 60
        E 0 90 60 60
        E 0 90 63 60
        E 120 80 18 00
        E 0 80 33 00
        E 0 80 54 00
        E 0 80 60 00
        E 0 80 63 00
        E 120 80 19 00
        E 0 90 1a 60
        E 0 90 33 60
        E 0 90 3d 60
        E 0 90 3f 60
        E 0 90 49 60
        E 0 90 4b 60
        E 0 90 55 60
        E 0 90 57 60
        E 0 90 61 60
        E 0 90 63 60
        E 120 80 1a 00
        E 0 80 33 00
        E 0 80 3d 00
        E 0 80 3f 00
        E 0 80 49 00
        E 0 80 4b 00
        E 0 80 55 00
        E 0 80 57 00
        E 0 80 61 00
        E 0 80 63 00
        E 120 90 19 60
        E 0 90 33 60
        E 0 90 63 60
        E 120 80 33 00
        E 0 80 63 00
        E 120 80 19 00
        E 0 90 18 60
        E 0 90 33 60
        E 0 90 3f 60
        E 0 90 48 60
        E 0 90 4b 60
        E 0 90 54 60
        E 0 90 57 60
        E 0 90 60 60
        E 0 90 63 60
        E 120 80 18 00
        E 0 80 33 00
        E 0 80 3f 00
        E 0 80 48 00
        E 0 80 4b 00
        E 0 80 54 00
        E 0 80 57 00
        E 0 80 60 00
        E 0 80 63 00
        E 120 90 18 60
        E 0 90 19 60
        E 0 90 33 60
        E 0 90 54 60
        E 0 90 60 60
        E 0 90 63 60
        E 120 80 18 00
        E 0 80 33 00
        E 0 80 54 00
        E 0 80 60 00
        E 0 80 63 00
        E 120 80 19 00
        E 0 90 1a 60
        E 0 90 33 60
        E 0 90 3d 60
        E 0 90 3f 60
        E 0 90 49 60
        E 0 90 4b 60
        E 0 90 55 60
        E 0 90 57 60
        E 0 90 61 60
        E 0 90 63 60
        E 120 80 1a 00
        E 0 80 33 00
        E 0 80 3d 00
        E 0 80 3f 00
        E 0 80 49 00
        E 0 80 4b 00
        E 0 80 55 00
        E 0 80 57 00
        E 0 80 61 00
        E 0 80 63 00
        E 120 90 19 60
        E 0 90 33 60
        E 0 90 63 60
        E 120 80 33 00
        E 0 80 63 00
        E 120 80 78 00
        E 0 80 79 00
        E 0 80 7a 00
        E 0 80 7b 00
        E 0 80 7c 00
        E 0 80 19 00
        E 0 90 18 60
        E 0 90 33 60
        E 0 90 3f 60
        E 0 90 48 60
        E 0 90 4b 60
        E 0 90 54 60
        E 0 90 57 60
        E 0 90 60 60
        E 0 90 63 60
        E 0 90 74 60
        E 120 80 18 00
        E 0 80 33 00
        E 0 80 3f 00
        E 0 80 48 00
        E 0 80 4b 00
        E 0 80 54 00
        E 0 80 57 00
        E 0 80 60 00
        E 0 80 63 00
        E 120 90 18 60
        E 0 90 19 60
        E 0 90 33 60
        E 0 90 54 60
        E 0 90 60 60
        E 0 90 63 60
        E 120 80 18 00
        E 0 80 33 00
        E 0 80 54 00
        E 0 80 60 00
        E 0 80 63 00
        E 120 80 19 00
        E 0 90 1a 60
        E 0 90 33 60
        E 0 90 3d 60
        E 0 90 3f 60
        E 0 90 49 60
        E 0 90 4b 60
        E 0 90 55 60
        E 0 90 57 60
        E 0 90 61 60
        E 0 90 63 60
        E 120 80 1a 00
        E 0 80 33 00
        E 0 80 3d 00
        E 0 80 3f 00
        E 0 80 49 00
        E 0 80 4b 00
        E 0 80 55 00
        E 0 80 57 00
        E 0 80 61 00
        E 0 80 63 00
        E 120 90 19 60
        E 0 90 33 60
        E 0 90 63 60
        E 120 80 33 00
        E 0 80 63 00
        E 120 80 19 00
        E 0 90 18 60
        E 0 90 33 60
        E 0 90 3f 60
        E 0 90 48 60
        E 0 90 4b 60
        E 0 90 54 60
        E 0 90 57 60
        E 0 90 60 60
        E 0 90 63 60
        E 120 80 18 00
        E 0 80 33 00
        E 0 80 3f 00
        E 0 80 48 00
        E 0 80 4b 00
        E 0 80 54 00
        E 0 80 57 00
        E 0 80 60 00
        E 0 80 63 00
        E 120 90 18 60
        E 0 90 19 60
        E 0 90 33 60
        E 0 90 54 60
        E 0 90 60 60
        E 0 90 63 60
        E 120 80 18 00
        E 0 80 33 00
        E 0 80 54 00
        E 0 80 60 00
        E 0 80 63 00
        E 120 80 19 00
        E 0 90 1a 60
        E 0 90 33 60
        E 0 90 3d 60
        E 0 90 3f 60
        E 0 90 49 60
        E 0 90 4b 60
        E 0 90 55 60
        E 0 90 57 60
        E 0 90 61 60
        E 0 90 63 60
        E 120 80 1a 00
        E 0 80 33 00
        E 0 80 3d 00
        E 0 80 3f 00
        E 0 80 49 00
        E 0 80 4b 00
        E 0 80 55 00
        E 0 80 57 00
        E 0 80 61 00
        E 0 80 63 00
        E 120 90 19 60
        E 0 90 33 60
        E 0 90 63 60
        E 120 80 33 00
        E 0 80 63 00
        E 120 80 74 00
        E 0 80 19 00
        E 0 90 18 60
        E 0 90 33 60
        E 0 90 3f 60
        E 0 90 48 60
        E 0 90 4b 60
        E 0 90 54 60
        E 0 90 57 60
        E 0 90 60 60
        E 0 90 63 60
        E 120 80 18 00
        E 0 80 33 00
        E 0 80 3f 00
        E 0 80 48 00
        E 0 80 4b 00
        E 0 80 54 00
        E 0 80 57 00
        E 0 80 60 00
        E 0 80 63 00
        E 120 90 18 60
        E 0 90 19 60
        E 0 90 33 60
        E 0 90 54 60
        E 0 90 60 60
        E 0 90 63 60
        E 120 80 18 00
        E 0 80 33 00
        E 0 80 54 00
        E 0 80 60 00
        E 0 80 63 00
        E 120 80 19 00
        E 0 90 1a 60
        E 0 90 33 60
        E 0 90 3d 60
        E 0 90 3f 60
        E 0 90 49 60
        E 0 90 4b 60
        E 0 90 55 60
        E 0 90 57 60
        E 0 90 61 60
        E 0 90 63 60
        E 120 80 1a 00
        E 0 80 33 00
        E 0 80 3d 00
        E 0 80 3f 00
        E 0 80 49 00
        E 0 80 4b 00
        E 0 80 55 00
        E 0 80 57 00
        E 0 80 61 00
        E 0 80 63 00
        E 120 90 19 60
        E 0 90 33 60
        E 0 90 63 60
        E 120 80 33 00
        E 0 80 63 00
        E 120 80 19 00
        E 0 90 18 60
        E 0 90 33 60
        E 0 90 3f 60
        E 0 90 48 60
        E 0 90 4b 60
        E 0 90 54 60
        E 0 90 57 60
        E 0 90 60 60
        E 0 90 63 60
        E 120 80 18 00
        E 0 80 33 00
        E 0 80 3f 00
        E 0 80 48 00
        E 0 80 4b 00
        E 0 80 54 00
        E 0 80 57 00
        E 0 80 60 00
        E 0 80 63 00
        E 120 90 18 60
        E 0 90 19 60
        E 0 90 33 60
        E 0 90 54 60
        E 0 90 60 60
        E 0 90 63 60
        E 120 80 18 00
        E 0 80 33 00
        E 0 80 54 00
        E 0 80 60 00
        E 0 80 63 00
        E 120 80 19 00
        E 0 90 1a 60
        E 0 90 33 60
        E 0 90 3d 60
        E 0 90 3f 60
        E 0 90 49 60
        E 0 90 4b 60
        E 0 90 55 60
        E 0 90 57 60
        E 0 90 61 60
        E 0 90 63 60
        E 120 80 1a 00
        E 0 80 33 00
        E 0 80 3d 00
        E 0 80 3f 00
        E 0 80 49 00
        E 0 80 4b 00
        E 0 80 55 00
        E 0 80 57 00
        E 0 80 61 00
        E 0 80 63 00
        E 120 90 19 60
        E 0 90 33 60
        E 0 90 63 60
        E 120 80 33 00
        E 0 80 63 00
        E 120 80 19 00
        E 0 90 18 60
        E 0 90 26 60
        E 0 90 40 60
        E 0 90 48 60
        E 0 90 4c 60
        E 0 90 54 60
        E 0 90 58 60
        E 0 90 60 60
        E 0 90 64 60
        E 120 80 18 00
        E 0 80 26 00
        E 0 80 40 00
        E 0 80 48 00
        E 0 80 4c 00
        E 0 80 54 00
        E 0 80 58 00
        E 0 80 60 00
        E 0 80 64 00
        E 120 90 18 60
        E 0 90 19 60
        E 0 90 33 60
        E 0 90 54 60
        E 0 90 60 60
        E 0 90 63 60
        E 120 80 18 00
        E 0 80 33 00
        E 0 80 54 00
        E 0 80 60 00
        E 0 80 63 00
        E 120 80 19 00
        E 0 90 1a 60
        E 0 90 33 60
        E 0 90 3d 60
        E 0 90 3f 60
        E 0 90 49 60
        E 0 90 4b 60
        E 0 90 55 60
        E 0 90 57 60
        E 0 90 61 60
        E 0 90 63 60
        E 120 80 1a 00
        E 0 80 33 00
        E 0 80 3d 00
        E 0 80 3f 00
        E 0 80 49 00
        E 0 80 4b 00
        E 0 80 55 00
        E 0 80 57 00
        E 0 80 61 00
        E 0 80 63 00
        E 120 90 19 60
        E 0 90 33 60
        E 0 90 63 60
        E 120 80 33 00
        E 0 80 63 00
        E 120 80 19 00
        E 0 90 18 60
        E 0 90 33 60
        E 0 90 3f 60
        E 0 90 48 60
        E 0 90 4b 60
        E 0 90 54 60
        E 0 90 57 60
        E 0 90 60 60
        E 0 90 63 60
        E 120 80 18 00
        E 0 80 33 00
        E 0 80 3f 00
        E 0 80 48 00
        E 0 80 4b 00
        E 0 80 54 00
        E 0 80 57 00
        E 0 80 60 00
        E 0 80 63 00
        E 120 90 18 60
        E 0 90 19 60
        E 0 90 33 60
        E 0 90 54 60
        E 0 90 60 60
        E 0 90 63 60
        E 120 80 18 00
        E 0 80 33 00
        E 0 80 54 00
        E 0 80 60 00
        E 0 80 63 00
        E 120 80 19 00
        E 0 90 1a 60
        E 0 90 33 60
        E 0 90 3d 60
        E 0 90 3f 60
        E 0 90 49 60
        E 0 90 4b 60
        E 0 90 55 60
        E 0 90 57 60
        E 0 90 61 60
        E 0 90 63 60
        E 120 80 1a 00
        E 0 80 33 00
        E 0 80 3d 00
        E 0 80 3f 00
        E 0 80 49 00
        E 0 80 4b 00
        E 0 80 55 00
        E 0 80 57 00
        E 0 80 61 00
        E 0 80 63 00
        E 120 90 19 60
        E 0 90 33 60
        E 0 90 63 60
        E 120 80 33 00
        E 0 80 63 00
        E 120 80 6f 00
        E 0 80 19 00
        E 0 90 18 60
        E 0 90 1b 60
        E 0 90 3d 60
        E 0 90 49 60
        E 0 90 54 60
        E 0 90 55 60
        E 0 90 60 60
        E 0 90 61 60
        E 0 90 78 60
        E 0 90 79 60
        E 0 90 7a 60
        E 0 90 7b 60
        E 0 90 7c 60
        E 120 80 18 00
        E 0 80 1b 00
        E 0 80 3d 00
        E 0 80 49 00
        E 0 80 54 00
        E 0 80 55 00
        E 0 80 60 00
        E 0 80 61 00
        E 0 90 1a 60
        E 0 90 61 60
        E 120 80 1a 00
        E 0 80 61 00
        E 0 90 18 60
        E 0 90 19 60
        E 0 90 1b 60
        E 0 90 54 60
        E 0 90 55 60
        E 0 90 60 60
        E 0 90 61 60
        E 120 80 18 00
        E 0 80 1b 00
        E 0 80 54 00
        E 0 80 55 00
        E 0 80 60 00
        E 0 80 61 00
        E 0 90 1a 60
        E 0 90 61 60
        E 120 80 19 00
        E 0 80 1a 00
        E 0 80 61 00
        E 0 90 1b 60
        E 0 90 3d 60
        E 0 90 49 60
        E 0 90 55 60
        E 0 90 61 60
        E 120 80 1b 00
        E 0 80 3d 00
        E 0 80 49 00
        E 0 80 55 00
        E 0 80 61 00
        E 0 90 1a 60
        E 0 90 61 60
        E 120 80 1a 00
        E 0 80 61 00
        E 0 90 19 60
        E 0 90 1b 60
        E 0 90 55 60
        E 0 90 61 60
        E 120 80 1b 00
        E 0 80 55 00
        E 0 80 61 00
        E 0 90 1a 60
        E 0 90 61 60
        E 120 80 19 00
        E 0 80 1a 00
        E 0 80 61 00
        E 0 90 18 60
        E 0 90 1b 60
        E 0 90 3d 60
        E 0 90 49 60
        E 0 90 54 60
        E 0 90 55 60
        E 0 90 60 60
        E 0 90 61 60
        E 120 80 18 00
        E 0 80 1b 00
        E 0 80 3d 00
        E 0 80 49 00
        E 0 80 54 00
        E 0 80 55 00
        E 0 80 60 00
        E 0 80 61 00
        E 0 90 1a 60
        E 0 90 61 60
        E 120 80 1a 00
        E 0 80 61 00
        E 0 90 18 60
        E 0 90 19 60
        E 0 90 1b 60
        E 0 90 54 60
        E 0 90 55 60
        E 0 90 60 60
        E 0 90 61 60
        E 120 80 18 00
        E 0 80 1b 00
        E 0 80 54 00
        E 0 80 55 00
        E 0 80 60 00
        E 0 80 61 00
        E 0 90 1a 60
        E 0 90 61 60
        E 120 80 19 00
        E 0 80 1a 00
        E 0 80 61 00
        E 0 90 1b 60
        E 0 90 3d 60
        E 0 90 49 60
        E 0 90 55 60
        E 0 90 61 60
        E 120 80 1b 00
        E 0 80 3d 00
        E 0 80 49 00
        E 0 80 55 00
        E 0 80 61 00
        E 0 90 1a 60
        E 0 90 61 60
        E 120 80 1a 00
        E 0 80 61 00
        E 0 90 19 60
        E 0 90 1b 60
        E 0 90 55 60
        E 0 90 61 60
        E 120 80 1b 00
        E 0 80 55 00
        E 0 80 61 00
        E 0 90 1a 60
        E 0 90 61 60
        <X 120 0
          /wFbaW50ZW5zZV0=
        >
        E 0 80 78 00
        E 0 80 79 00
        E 0 80 7a 00
        E 0 80 7b 00
        E 0 80 7c 00
        E 0 80 19 00
        E 0 80 1a 00
        E 0 80 61 00
        E 0 90 18 60
        E 0 90 24 60
        E 0 90 40 60
        E 0 90 48 60
        E 0 90 4c 60
        E 0 90 54 60
        E 0 90 58 60
        E 0 90 60 60
        E 0 90 64 60
        E 120 80 18 00
        E 0 80 24 00
        E 0 80 40 00
        E 0 80 48 00
        E 0 80 4c 00
        E 0 80 54 00
        E 0 80 58 00
        E 0 80 60 00
        E 0 80 64 00
        E 120 90 18 60
        E 0 90 19 60
        E 0 90 24 60
        E 0 90 54 60
        E 0 90 58 60
        E 0 90 60 60
        E 0 90 64 60
        E 120 80 18 00
        E 0 80 24 00
        E 0 80 54 00
        E 0 80 58 00
        E 0 80 60 00
        E 0 80 64 00
        E 120 80 19 00
        E 0 90 1a 60
        E 0 90 24 60
        E 0 90 3d 60
        E 0 90 40 60
        E 0 90 49 60
        E 0 90 4c 60
        E 0 90 55 60
        E 0 90 58 60
        E 0 90 61 60
        E 0 90 64 60
        E 120 80 1a 00
        E 0 80 24 00
        E 0 80 3d 00
        E 0 80 40 00
        E 0 80 49 00
        E 0 80 4c 00
        E 0 80 55 00
        E 0 80 58 00
        E 0 80 61 00
        E 0 80 64 00
        E 120 90 19 60
        E 0 90 24 60
        E 0 90 58 60
        E 0 90 64 60
        E 120 80 24 00
        E 0 80 58 00
        E 0 80 64 00
        E 120 80 19 00
        E 0 90 18 60
        E 0 90 24 60
        E 0 90 40 60
        E 0 90 48 60
        E 0 90 4c 60
        E 0 90 54 60
        E 0 90 58 60
        E 0 90 60 60
        E 0 90 64 60
        E 120 80 18 00
        E 0 80 24 00
        E 0 80 40 00
        E 0 80 48 00
        E 0 80 4c 00
        E 0 80 54 00
        E 0 80 58 00
        E 0 80 60 00
        E 0 80 64 00
        E 120 90 18 60
        E 0 90 19 60
        E 0 90 24 60
        E 0 90 54 60
        E 0 90 58 60
        E 0 90 60 60
        E 0 90 64 60
        E 120 80 18 00
        E 0 80 24 00
        E 0 80 54 00
        E 0 80 58 00
        E 0 80 60 00
        E 0 80 64 00
        E 120 80 19 00
        E 0 90 1a 60
        E 0 90 24 60
        E 0 90 3d 60
        E 0 90 40 60
        E 0 90 49 60
        E 0 90 4c 60
        E 0 90 55 60
        E 0 90 58 60
        E 0 90 61 60
        E 0 90 64 60
        E 120 80 1a 00
        E 0 80 24 00
        E 0 80 3d 00
        E 0 80 40 00
        E 0 80 49 00
        E 0 80 4c 00
        E 0 80 55 00
        E 0 80 58 00
        E 0 80 61 00
        E 0 80 64 00
        E 120 90 19 60
        E 0 90 24 60
        E 0 90 58 60
        E 0 90 64 60
        E 120 80 24 00
        E 0 80 58 00
        E 0 80 64 00
        E 120 80 19 00
        E 0 90 18 60
        E 0 90 24 60
        E 0 90 40 60
        E 0 90 48 60
        E 0 90 4c 60
        E 0 90 54 60
        E 0 90 58 60
        E 0 90 60 60
        E 0 90 64 60
        E 120 80 18 00
        E 0 80 24 00
        E 0 80 40 00
        E 0 80 48 00
        E 0 80 4c 00
        E 0 80 54 00
        E 0 80 58 00
        E 0 80 60 00
        E 0 80 64 00
        E 120 90 18 60
        E 0 90 19 60
        E 0 90 24 60
        E 0 90 54 60
        E 0 90 58 60
        E 0 90 60 60
        E 0 90 64 60
        E 120 80 18 00
        E 0 80 24 00
        E 0 80 54 00
        E 0 80 58 00
        E 0 80 60 00
        E 0 80 64 00
        E 120 80 19 00
        E 0 90 1a 60
        E 0 90 24 60
        E 0 90 3d 60
        E 0 90 40 60
        E 0 90 49 60
        E 0 90 4c 60
        E 0 90 55 60
        E 0 90 58 60
        E 0 90 61 60
        E 0 90 64 60
        E 120 80 1a 00
        E 0 80 24 00
        E 0 80 3d 00
        E 0 80 40 00
        E 0 80 49 00
        E 0 80 4c 00
        E 0 80 55 00
        E 0 80 58 00
        E 0 80 61 00
        E 0 80 64 00
        E 120 90 19 60
        E 0 90 24 60
        E 0 90 58 60
        E 0 90 64 60
        E 120 80 24 00
        E 0 80 58 00
        E 0 80 64 00
        E 120 80 19 00
        E 0 90 18 60
        E 0 90 24 60
        E 0 90 40 60
        E 0 90 48 60
        E 0 90 4c 60
        E 0 90 54 60
        E 0 90 58 60
        E 0 90 60 60
        E 0 90 64 60
        E 120 80 18 00
        E 0 80 24 00
        E 0 80 40 00
        E 0 80 48 00
        E 0 80 4c 00
        E 0 80 54 00
        E 0 80 58 00
        E 0 80 60 00
        E 0 80 64 00
        E 120 90 18 60
        E 0 90 19 60
        E 0 90 24 60
        E 0 90 54 60
        E 0 90 58 60
        E 0 90 60 60
        E 0 90 64 60
        E 120 80 18 00
        E 0 80 24 00
        E 0 80 54 00
        E 0 80 58 00
        E 0 80 60 00
        E 0 80 64 00
        E 120 80 19 00
        E 0 90 1a 60
        E 0 90 24 60
        E 0 90 3d 60
        E 0 90 40 60
        E 0 90 49 60
        E 0 90 4c 60
        E 0 90 55 60
        E 0 90 58 60
        E 0 90 61 60
        E 0 90 64 60
        E 120 80 1a 00
        E 0 80 24 00
        E 0 80 3d 00
        E 0 80 40 00
        E 0 80 49 00
        E 0 80 4c 00
        E 0 80 55 00
        E 0 80 58 00
        E 0 80 61 00
        E 0 80 64 00
        E 120 90 19 60
        E 0 90 1e 60
        E 0 90 24 60
        E 0 90 56 60
        E 0 90 58 60
        E 0 90 62 60
        E 0 90 64 60
        E 120 80 1e 00
        E 0 80 24 00
        E 0 80 56 00
        E 0 80 58 00
        E 0 80 62 00
        E 0 80 64 00
        E 120 80 19 00
        E 0 90 18 60
        E 0 90 24 60
        E 0 90 40 60
        E 0 90 48 60
        E 0 90 4c 60
        E 0 90 54 60
        E 0 90 58 60
        E 0 90 60 60
        E 0 90 64 60
        E 120 80 18 00
        E 0 80 24 00
        E 0 80 40 00
        E 0 80 48 00
        E 0 80 4c 00
        E 0 80 54 00
        E 0 80 58 00
        E 0 80 60 00
        E 0 80 64 00
        E 120 90 18 60
        E 0 90 19 60
        E 0 90 24 60
        E 0 90 54 60
        E 0 90 58 60
        E 0 90 60 60
        E 0 90 64 60
        E 120 80 18 00
        E 0 80 24 00
        E 0 80 54 00
        E 0 80 58 00
        E 0 80 60 00
        E 0 80 64 00
        E 120 80 19 00
        E 0 90 1a 60
        E 0 90 24 60
        E 0 90 3d 60
        E 0 90 40 60
        E 0 90 49 60
        E 0 90 4c 60
        E 0 90 55 60
        E 0 90 58 60
        E 0 90 61 60
        E 0 90 64 60
        E 120 80 1a 00
        E 0 80 24 00
        E 0 80 3d 00
        E 0 80 40 00
        E 0 80 49 00
        E 0 80 4c 00
        E 0 80 55 00
        E 0 80 58 00
        E 0 80 61 00
        E 0 80 64 00
        E 120 90 19 60
        E 0 90 24 60
        E 0 90 58 60
        E 0 90 64 60
        E 120 80 24 00
        E 0 80 58 00
        E 0 80 64 00
        E 120 80 19 00
        E 0 90 18 60
        E 0 90 24 60
        E 0 90 40 60
        E 0 90 48 60
        E 0 90 4c 60
        E 0 90 54 60
        E 0 90 58 60
        E 0 90 60 60
        E 0 90 64 60
        E 120 80 18 00
        E 0 80 24 00
        E 0 80 40 00
        E 0 80 48 00
        E 0 80 4c 00
        E 0 80 54 00
        E 0 80 58 00
        E 0 80 60 00
        E 0 80 64 00
        E 120 90 18 60
        E 0 90 19 60
        E 0 90 24 60
        E 0 90 54 60
        E 0 90 58 60
        E 0 90 60 60
        E 0 90 64 60
        E 120 80 18 00
        E 0 80 24 00
        E 0 80 54 00
        E 0 80 58 00
        E 0 80 60 00
        E 0 80 64 00
        E 120 80 19 00
        E 0 90 1a 60
        E 0 90 24 60
        E 0 90 3d 60
        E 0 90 40 60
        E 0 90 49 60
        E 0 90 4c 60
        E 0 90 55 60
        E 0 90 58 60
        E 0 90 61 60
        E 0 90 64 60
        E 120 80 1a 00
        E 0 80 24 00
        E 0 80 3d 00
        E 0 80 40 00
        E 0 80 49 00
        E 0 80 4c 00
        E 0 80 55 00
        E 0 80 58 00
        E 0 80 61 00
        E 0 80 64 00
        E 120 90 19 60
        E 0 90 24 60
        E 0 90 58 60
        E 0 90 64 60
        E 120 80 24 00
        E 0 80 58 00
        E 0 80 64 00
        E 120 80 19 00
        E 0 90 18 60
        E 0 90 24 60
        E 0 90 40 60
        E 0 90 48 60
        E 0 90 4c 60
        E 0 90 54 60
        E 0 90 58 60
        E 0 90 60 60
        E 0 90 64 60
        E 0 90 78 60
        E 0 90 79 60
        E 0 90 7a 60
        E 0 90 7b 60
        E 0 90 7c 60
        E 120 80 18 00
        E 0 80 24 00
        E 0 80 40 00
        E 0 80 48 00
        E 0 80 4c 00
        E 0 80 54 00
        E 0 80 58 00
        E 0 80 60 00
        E 0 80 64 00
        E 120 90 18 60
        E 0 90 19 60
        E 0 90 24 60
        E 0 90 54 60
        E 0 90 58 60
        E 0 90 60 60
        E 0 90 64 60
        E 120 80 18 00
        E 0 80 24 00
        E 0 80 54 00
        E 0 80 58 00
        E 0 80 60 00
        E 0 80 64 00
        E 120 80 19 00
        E 0 90 1a 60
        E 0 90 24 60
        E 0 90 3d 60
        E 0 90 40 60
        E 0 90 49 60
        E 0 90 4c 60
        E 0 90 55 60
        E 0 90 58 60
        E 0 90 61 60
        E 0 90 64 60
        E 120 80 1a 00
        E 0 80 24 00
        E 0 80 3d 00
        E 0 80 40 00
        E 0 80 49 00
        E 0 80 4c 00
        E 0 80 55 00
        E 0 80 58 00
        E 0 80 61 00
        E 0 80 64 00
        E 120 90 19 60
        E 0 90 24 60
        E 0 90 58 60
        E 0 90 64 60
        E 120 80 24 00
        E 0 80 58 00
        E 0 80 64 00
        E 120 80 19 00
        E 0 90 18 60
        E 0 90 24 60
        E 0 90 40 60
        E 0 90 48 60
        E 0 90 4c 60
        E 0 90 54 60
        E 0 90 58 60
        E 0 90 60 60
        E 0 90 64 60
        E 120 80 18 00
        E 0 80 24 00
        E 0 80 40 00
        E 0 80 48 00
        E 0 80 4c 00
        E 0 80 54 00
        E 0 80 58 00
        E 0 80 60 00
        E 0 80 64 00
        E 120 90 18 60
        E 0 90 19 60
        E 0 90 24 60
        E 0 90 54 60
        E 0 90 58 60
        E 0 90 60 60
        E 0 90 64 60
        E 120 80 18 00
        E 0 80 24 00
        E 0 80 54 00
        E 0 80 58 00
        E 0 80 60 00
        E 0 80 64 00
        E 120 80 19 00
        E 0 90 1a 60
        E 0 90 24 60
        E 0 90 3d 60
        E 0 90 40 60
        E 0 90 49 60
        E 0 90 4c 60
        E 0 90 55 60
        E 0 90 58 60
        E 0 90 61 60
        E 0 90 64 60
        E 120 80 1a 00
        E 0 80 24 00
        E 0 80 3d 00
        E 0 80 40 00
        E 0 80 49 00
        E 0 80 4c 00
        E 0 80 55 00
        E 0 80 58 00
        E 0 80 61 00
        E 0 80 64 00
        E 120 90 19 60
        E 0 90 1e 60
        E 0 90 24 60
        E 0 90 56 60
        E 0 90 58 60
        E 0 90 62 60
        E 0 90 64 60
        E 120 80 1e 00
        E 0 80 24 00
        E 0 80 56 00
        E 0 80 58 00
        E 0 80 62 00
        E 0 80 64 00
        E 120 80 78 00
        E 0 80 79 00
        E 0 80 7a 00
        E 0 80 7b 00
        E 0 80 7c 00
        E 0 80 19 00
        E 0 90 18 60
        E 0 90 24 60
        E 0 90 40 60
        E 0 90 48 60
        E 0 90 4c 60
        E 0 90 54 60
        E 0 90 58 60
        E 0 90 60 60
        E 0 90 64 60
        E 120 80 18 00
        E 0 80 24 00
        E 0 80 40 00
        E 0 80 48 00
        E 0 80 4c 00
        E 0 80 54 00
        E 0 80 58 00
        E 0 80 60 00
        E 0 80 64 00
        E 120 90 18 60
        E 0 90 19 60
        E 0 90 24 60
        E 0 90 54 60
        E 0 90 58 60
        E 0 90 60 60
        E 0 90 64 60
        E 120 80 18 00
        E 0 80 24 00
        E 0 80 54 00
        E 0 80 58 00
        E 0 80 60 00
        E 0 80 64 00
        E 120 80 19 00
        E 0 90 1a 60
        E 0 90 24 60
        E 0 90 3d 60
        E 0 90 40 60
        E 0 90 49 60
        E 0 90 4c 60
        E 0 90 55 60
        E 0 90 58 60
        E 0 90 61 60
        E 0 90 64 60
        E 120 80 1a 00
        E 0 80 24 00
        E 0 80 3d 00
        E 0 80 40 00
        E 0 80 49 00
        E 0 80 4c 00
        E 0 80 55 00
        E 0 80 58 00
        E 0 80 61 00
        E 0 80 64 00
        E 120 90 19 60
        E 0 90 24 60
        E 0 90 58 60
        E 0 90 64 60
        E 120 80 24 00
        E 0 80 58 00
        E 0 80 64 00
        E 120 80 19 00
        E 0 90 18 60
        E 0 90 24 60
        E 0 90 40 60
        E 0 90 48 60
        E 0 90 4c 60
        E 0 90 54 60
        E 0 90 58 60
        E 0 90 60 60
        E 0 90 64 60
        E 120 80 18 00
        E 0 80 24 00
        E 0 80 40 00
        E 0 80 48 00
        E 0 80 4c 00
        E 0 80 54 00
        E 0 80 58 00
        E 0 80 60 00
        E 0 80 64 00
        E 120 90 18 60
        E 0 90 19 60
        E 0 90 24 60
        E 0 90 54 60
        E 0 90 58 60
        E 0 90 60 60
        E 0 90 64 60
        E 120 80 18 00
        E 0 80 24 00
        E 0 80 54 00
        E 0 80 58 00
        E 0 80 60 00
        E 0 80 64 00
        E 120 80 19 00
        E 0 90 1a 60
        E 0 90 24 60
        E 0 90 3d 60
        E 0 90 40 60
        E 0 90 49 60
        E 0 90 4c 60
        E 0 90 55 60
        E 0 90 58 60
        E 0 90 61 60
        E 0 90 64 60
        E 120 80 1a 00
        E 0 80 24 00
        E 0 80 3d 00
        E 0 80 40 00
        E 0 80 49 00
        E 0 80 4c 00
        E 0 80 55 00
        E 0 80 58 00
        E 0 80 61 00
        E 0 80 64 00
        E 120 90 19 60
        E 0 90 24 60
        E 0 90 58 60
        E 0 90 64 60
        E 120 80 24 00
        E 0 80 58 00
        E 0 80 64 00
        E 120 80 19 00
        E 0 90 18 60
        E 0 90 24 60
        E 0 90 40 60
        E 0 90 48 60
        E 0 90 4c 60
        E 0 90 54 60
        E 0 90 58 60
        E 0 90 60 60
        E 0 90 64 60
        E 120 80 18 00
        E 0 80 24 00
        E 0 80 40 00
        E 0 80 48 00
        E 0 80 4c 00
        E 0 80 54 00
        E 0 80 58 00
        E 0 80 60 00
        E 0 80 64 00
        E 120 90 18 60
        E 0 90 19 60
        E 0 90 24 60
        E 0 90 54 60
        E 0 90 58 60
        E 0 90 60 60
        E 0 90 64 60
        E 120 80 18 00
        E 0 80 24 00
        E 0 80 54 00
        E 0 80 58 00
        E 0 80 60 00
        E 0 80 64 00
        E 120 80 19 00
        E 0 90 1a 60
        E 0 90 24 60
        E 0 90 3d 60
        E 0 90 40 60
        E 0 90 49 60
        E 0 90 4c 60
        E 0 90 55 60
        E 0 90 58 60
        E 0 90 61 60
        E 0 90 64 60
        E 120 80 1a 00
        E 0 80 24 00
        E 0 80 3d 00
        E 0 80 40 00
        E 0 80 49 00
        E 0 80 4c 00
        E 0 80 55 00
        E 0 80 58 00
        E 0 80 61 00
        E 0 80 64 00
        E 120 90 19 60
        E 0 90 24 60
        E 0 90 58 60
        E 0 90 64 60
        E 120 80 24 00
        E 0 80 58 00
        E 0 80 64 00
        E 120 80 19 00
        E 0 90 18 60
        E 0 90 24 60
        E 0 90 40 60
        E 0 90 48 60
        E 0 90 4c 60
        E 0 90 54 60
        E 0 90 58 60
        E 0 90 60 60
        E 0 90 64 60
        E 120 80 18 00
        E 0 80 24 00
        E 0 80 40 00
        E 0 80 48 00
        E 0 80 4c 00
        E 0 80 54 00
        E 0 80 58 00
        E 0 80 60 00
        E 0 80 64 00
        E 120 90 18 60
        E 0 90 19 60
        E 0 90 24 60
        E 0 90 54 60
        E 0 90 58 60
        E 0 90 60 60
        E 0 90 64 60
        E 120 80 18 00
        E 0 80 24 00
        E 0 80 54 00
        E 0 80 58 00
        E 0 80 60 00
        E 0 80 64 00
        E 120 80 19 00
        E 0 90 1a 60
        E 0 90 24 60
        E 0 90 3d 60
        E 0 90 40 60
        E 0 90 49 60
        E 0 90 4c 60
        E 0 90 55 60
        E 0 90 58 60
        E 0 90 61 60
        E 0 90 64 60
        E 120 80 1a 00
        E 0 80 24 00
        E 0 80 3d 00
        E 0 80 40 00
        E 0 80 49 00
        E 0 80 4c 00
        E 0 80 55 00
        E 0 80 58 00
        E 0 80 61 00
        E 0 80 64 00
        E 120 90 19 60
        E 0 90 1e 60
        E 0 90 24 60
        E 0 90 56 60
        E 0 90 58 60
        E 0 90 62 60
        E 0 90 64 60
        E 120 80 1e 00
        E 0 80 24 00
        E 0 80 56 00
        E 0 80 58 00
        E 0 80 62 00
        E 0 80 64 00
        E 120 80 19 00
        E 0 90 18 60
        E 0 90 24 60
        E 0 90 40 60
        E 0 90 48 60
        E 0 90 4c 60
        E 0 90 54 60
        E 0 90 58 60
        E 0 90 60 60
        E 0 90 64 60
        E 120 80 18 00
        E 0 80 24 00
        E 0 80 40 00
        E 0 80 48 00
        E 0 80 4c 00
        E 0 80 54 00
        E 0 80 58 00
        E 0 80 60 00
        E 0 80 64 00
        E 120 90 18 60
        E 0 90 19 60
        E 0 90 24 60
        E 0 90 54 60
        E 0 90 58 60
        E 0 90 60 60
        E 0 90 64 60
        E 120 80 18 00
        E 0 80 24 00
        E 0 80 54 00
        E 0 80 58 00
        E 0 80 60 00
        E 0 80 64 00
        E 120 80 19 00
        E 0 90 1a 60
        E 0 90 24 60
        E 0 90 3d 60
        E 0 90 40 60
        E 0 90 49 60
        E 0 90 4c 60
        E 0 90 55 60
        E 0 90 58 60
        E 0 90 61 60
        E 0 90 64 60
        E 120 80 1a 00
        E 0 80 24 00
        E 0 80 3d 00
        E 0 80 40 00
        E 0 80 49 00
        E 0 80 4c 00
        E 0 80 55 00
        E 0 80 58 00
        E 0 80 61 00
        E 0 80 64 00
        E 120 90 19 60
        E 0 90 24 60
        E 0 90 58 60
        E 0 90 64 60
        E 120 80 24 00
        E 0 80 58 00
        E 0 80 64 00
        E 120 80 19 00
        E 0 90 18 60
        E 0 90 24 60
        E 0 90 40 60
        E 0 90 48 60
        E 0 90 4c 60
        E 0 90 54 60
        E 0 90 58 60
        E 0 90 60 60
        E 0 90 64 60
        E 120 80 18 00
        E 0 80 24 00
        E 0 80 40 00
        E 0 80 48 00
        E 0 80 4c 00
        E 0 80 54 00
        E 0 80 58 00
        E 0 80 60 00
        E 0 80 64 00
        E 120 90 18 60
        E 0 90 19 60
        E 0 90 24 60
        E 0 90 54 60
        E 0 90 58 60
        E 0 90 60 60
        E 0 90 64 60
        E 120 80 18 00
        E 0 80 24 00
        E 0 80 54 00
        E 0 80 58 00
        E 0 80 60 00
        E 0 80 64 00
        E 120 80 19 00
        E 0 90 1a 60
        E 0 90 24 60
        E 0 90 3d 60
        E 0 90 40 60
        E 0 90 49 60
        E 0 90 4c 60
        E 0 90 55 60
        E 0 90 58 60
        E 0 90 61 60
        E 0 90 64 60
        E 120 80 1a 00
        E 0 80 24 00
        E 0 80 3d 00
        E 0 80 40 00
        E 0 80 49 00
        E 0 80 4c 00
        E 0 80 55 00
        E 0 80 58 00
        E 0 80 61 00
        E 0 80 64 00
        E 120 90 19 60
        E 0 90 24 60
        E 0 90 58 60
        E 0 90 64 60
        E 120 80 24 00
        E 0 80 58 00
        E 0 80 64 00
        E 120 80 19 00
        E 0 90 18 60
        E 0 90 24 60
        E 0 90 40 60
        E 0 90 48 60
        E 0 90 4c 60
        E 0 90 54 60
        E 0 90 58 60
        E 0 90 60 60
        E 0 90 64 60
        E 0 90 78 60
        E 0 90 79 60
        E 0 90 7a 60
        E 0 90 7b 60
        E 0 90 7c 60
        E 120 80 18 00
        E 0 80 24 00
        E 0 80 40 00
        E 0 80 48 00
        E 0 80 4c 00
        E 0 80 54 00
        E 0 80 58 00
        E 0 80 60 00
        E 0 80 64 00
        E 120 90 18 60
        E 0 90 19 60
        E 0 90 24 60
        E 0 90 54 60
        E 0 90 58 60
        E 0 90 60 60
        E 0 90 64 60
        E 120 80 18 00
        E 0 80 24 00
        E 0 80 54 00
        E 0 80 58 00
        E 0 80 60 00
        E 0 80 64 00
        E 120 80 19 00
        E 0 90 1a 60
        E 0 90 24 60
        E 0 90 3d 60
        E 0 90 40 60
        E 0 90 49 60
        E 0 90 4c 60
        E 0 90 55 60
        E 0 90 58 60
        E 0 90 61 60
        E 0 90 64 60
        E 120 80 1a 00
        E 0 80 24 00
        E 0 80 3d 00
        E 0 80 40 00
        E 0 80 49 00
        E 0 80 4c 00
        E 0 80 55 00
        E 0 80 58 00
        E 0 80 61 00
        E 0 80 64 00
        E 120 90 19 60
        E 0 90 24 60
        E 0 90 58 60
        E 0 90 64 60
        E 120 80 24 00
        E 0 80 58 00
        E 0 80 64 00
        E 120 80 19 00
        E 0 90 18 60
        E 0 90 24 60
        E 0 90 40 60
        E 0 90 48 60
        E 0 90 4c 60
        E 0 90 54 60
        E 0 90 58 60
        E 0 90 60 60
        E 0 90 64 60
        E 120 80 18 00
        E 0 80 24 00
        E 0 80 40 00
        E 0 80 48 00
        E 0 80 4c 00
        E 0 80 54 00
        E 0 80 58 00
        E 0 80 60 00
        E 0 80 64 00
        E 120 90 18 60
        E 0 90 19 60
        E 0 90 24 60
        E 0 90 54 60
        E 0 90 58 60
        E 0 90 60 60
        E 0 90 64 60
        E 120 80 18 00
        E 0 80 24 00
        E 0 80 54 00
        E 0 80 58 00
        E 0 80 60 00
        E 0 80 64 00
        E 120 80 19 00
        E 0 90 1b 60
        E 0 90 3d 60
        E 0 90 49 60
        E 0 90 55 60
        E 0 90 61 60
        E 120 80 1b 00
        E 0 80 3d 00
        E 0 80 49 00
        E 0 80 55 00
        E 0 80 61 00
        E 0 90 1a 60
        E 0 90 61 60
        E 120 80 1a 00
        E 0 80 61 00
        E 0 90 19 60
        E 0 90 1b 60
        E 0 90 55 60
        E 0 90 61 60
        E 120 80 1b 00
        E 0 80 55 00
        E 0 80 61 00
        E 0 90 1a 60
        E 0 90 61 60
        <X 120 0
          /wFbcGxheV0=
        >
        E 0 80 78 00
        E 0 80 79 00
        E 0 80 7a 00
        E 0 80 7b 00
        E 0 80 7c 00
        E 0 80 19 00
        E 0 80 1a 00
        E 0 80 61 00
        E 0 90 18 60
        E 0 90 26 60
        E 0 90 40 60
        E 0 90 48 60
        E 0 90 4c 60
        E 0 90 54 60
        E 0 90 58 60
        E 0 90 60 60
        E 0 90 64 60
        E 120 80 18 00
        E 0 80 26 00
        E 0 80 40 00
        E 0 80 48 00
        E 0 80 4c 00
        E 0 80 54 00
        E 0 80 58 00
        E 0 80 60 00
        E 0 80 64 00
        E 120 90 18 60
        E 0 90 19 60
        E 0 90 54 60
        E 0 90 60 60
        E 120 80 18 00
        E 0 80 54 00
        E 0 80 60 00
        E 120 80 19 00
        E 0 90 1a 60
        E 0 90 33 60
        E 0 90 3d 60
        E 0 90 3f 60
        E 0 90 49 60
        E 0 90 4b 60
        E 0 90 55 60
        E 0 90 57 60
        E 0 90 61 60
        E 0 90 63 60
        E 0 90 6f 60
        E 120 80 1a 00
        E 0 80 33 00
        E 0 80 3d 00
        E 0 80 3f 00
        E 0 80 49 00
        E 0 80 4b 00
        E 0 80 55 00
        E 0 80 57 00
        E 0 80 61 00
        E 0 80 63 00
        E 120 90 19 60
        E 0 90 33 60
        E 0 90 63 60
        E 120 80 33 00
        E 0 80 63 00
        E 120 80 19 00
        E 0 90 18 60
        E 0 90 33 60
        E 0 90 3f 60
        E 0 90 48 60
        E 0 90 4b 60
        E 0 90 54 60
        E 0 90 57 60
        E 0 90 60 60
        E 0 90 63 60
        E 120 80 18 00
        E 0 80 33 00
        E 0 80 3f 00
        E 0 80 48 00
        E 0 80 4b 00
        E 0 80 54 00
        E 0 80 57 00
        E 0 80 60 00
        E 0 80 63 00
        E 120 90 18 60
        E 0 90 19 60
        E 0 90 33 60
        E 0 90 54 60
        E 0 90 60 60
        E 0 90 63 60
        E 120 80 18 00
        E 0 80 33 00
        E 0 80 54 00
        E 0 80 60 00
        E 0 80 63 00
        E 120 80 19 00
        E 0 90 1a 60
        E 0 90 33 60
        E 0 90 3d 60
        E 0 90 3f 60
        E 0 90 49 60
        E 0 90 4b 60
        E 0 90 55 60
        E 0 90 57 60
        E 0 90 61 60
        E 0 90 63 60
        E 120 80 1a 00
        E 0 80 33 00
        E 0 80 3d 00
        E 0 80 3f 00
        E 0 80 49 00
        E 0 80 4b 00
        E 0 80 55 00
        E 0 80 57 00
        E 0 80 61 00
        E 0 80 63 00
        E 120 90 19 60
        E 0 90 33 60
        E 0 90 63 60
        E 120 80 33 00
        E 0 80 63 00
        E 120 80 19 00
        E 0 90 18 60
        E 0 90 33 60
        E 0 90 3f 60
        E 0 90 48 60
        E 0 90 4b 60
        E 0 90 54 60
        E 0 90 57 60
        E 0 90 60 60
        E 0 90 63 60
        E 120 80 18 00
        E 0 80 33 00
        E 0 80 3f 00
        E 0 80 48 00
        E 0 80 4b 00
        E 0 80 54 00
        E 0 80 57 00
        E 0 80 60 00
        E 0 80 63 00
        E 120 90 18 60
        E 0 90 19 60
        E 0 90 33 60
        E 0 90 54 60
        E 0 90 60 60
        E 0 90 63 60
        E 120 80 18 00
        E 0 80 33 00
        E 0 80 54 00
        E 0 80 60 00
        E 0 80 63 00
        E 120 80 19 00
        E 0 90 1a 60
        E 0 90 33 60
        E 0 90 3d 60
        E 0 90 3f 60
        E 0 90 49 60
        E 0 90 4b 60
        E 0 90 55 60
        E 0 90 57 60
        E 0 90 61 60
        E 0 90 63 60
        E 120 80 1a 00
        E 0 80 33 00
        E 0 80 3d 00
        E 0 80 3f 00
        E 0 80 49 00
        E 0 80 4b 00
        E 0 80 55 00
        E 0 80 57 00
        E 0 80 61 00
        E 0 80 63 00
        E 120 90 19 60
        E 0 90 33 60
        E 0 90 63 60
        E 120 80 33 00
        E 0 80 63 00
        E 120 80 19 00
        E 0 90 18 60
        E 0 90 33 60
        E 0 90 3f 60
        E 0 90 48 60
        E 0 90 4b 60
        E 0 90 54 60
        E 0 90 57 60
        E 0 90 60 60
        E 0 90 63 60
        E 120 80 18 00
        E 0 80 33 00
        E 0 80 3f 00
        E 0 80 48 00
        E 0 80 4b 00
        E 0 80 54 00
        E 0 80 57 00
        E 0 80 60 00
        E 0 80 63 00
        E 120 90 18 60
        E 0 90 19 60
        E 0 90 33 60
        E 0 90 54 60
        E 0 90 60 60
        E 0 90 63 60
        E 120 80 18 00
        E 0 80 33 00
        E 0 80 54 00
        E 0 80 60 00
        E 0 80 63 00
        E 120 80 19 00
        E 0 90 1a 60
        E 0 90 33 60
        E 0 90 3d 60
        E 0 90 3f 60
        E 0 90 49 60
        E 0 90 4b 60
        E 0 90 55 60
        E 0 90 57 60
        E 0 90 61 60
        E 0 90 63 60
        E 120 80 1a 00
        E 0 80 33 00
        E 0 80 3d 00
        E 0 80 3f 00
        E 0 80 49 00
        E 0 80 4b 00
        E 0 80 55 00
        E 0 80 57 00
        E 0 80 61 00
        E 0 80 63 00
        E 120 90 19 60
        E 0 90 33 60
        E 0 90 63 60
        E 120 80 33 00
        E 0 80 63 00
        E 120 80 19 00
        E 0 90 18 60
        E 0 90 33 60
        E 0 90 3f 60
        E 0 90 48 60
        E 0 90 4b 60
        E 0 90 54 60
        E 0 90 57 60
        E 0 90 60 60
        E 0 90 63 60
        E 120 80 18 00
        E 0 80 33 00
        E 0 80 3f 00
        E 0 80 48 00
        E 0 80 4b 00
        E 0 80 54 00
        E 0 80 57 00
        E 0 80 60 00
        E 0 80 63 00
        E 120 90 18 60
        E 0 90 19 60
        E 0 90 33 60
        E 0 90 54 60
        E 0 90 60 60
        E 0 90 63 60
        E 120 80 18 00
        E 0 80 33 00
        E 0 80 54 00
        E 0 80 60 00
        E 0 80 63 00
        E 120 80 19 00
        E 0 90 1a 60
        E 0 90 33 60
        E 0 90 3d 60
        E 0 90 3f 60
        E 0 90 49 60
        E 0 90 4b 60
        E 0 90 55 60
        E 0 90 57 60
        E 0 90 61 60
        E 0 90 63 60
        E 120 80 1a 00
        E 0 80 33 00
        E 0 80 3d 00
        E 0 80 3f 00
        E 0 80 49 00
        E 0 80 4b 00
        E 0 80 55 00
        E 0 80 57 00
        E 0 80 61 00
        E 0 80 63 00
        E 120 90 19 60
        E 0 90 33 60
        E 0 90 63 60
        E 120 80 33 00
        E 0 80 63 00
        E 120 80 19 00
        E 0 90 18 60
        E 0 90 33 60
        E 0 90 3f 60
        E 0 90 48 60
        E 0 90 4b 60
        E 0 90 54 60
        E 0 90 57 60
        E 0 90 60 60
        E 0 90 63 60
        E 120 80 18 00
        E 0 80 33 00
        E 0 80 3f 00
        E 0 80 48 00
        E 0 80 4b 00
        E 0 80 54 00
        E 0 80 57 00
        E 0 80 60 00
        E 0 80 63 00
        E 120 90 18 60
        E 0 90 19 60
        E 0 90 33 60
        E 0 90 54 60
        E 0 90 60 60
        E 0 90 63 60
        E 120 80 18 00
        E 0 80 33 00
        E 0 80 54 00
        E 0 80 60 00
        E 0 80 63 00
        E 120 80 19 00
        E 0 90 1a 60
        E 0 90 33 60
        E 0 90 3d 60
        E 0 90 3f 60
        E 0 90 49 60
        E 0 90 4b 60
        E 0 90 55 60
        E 0 90 57 60
        E 0 90 61 60
        E 0 90 63 60
        E 120 80 1a 00
        E 0 80 33 00
        E 0 80 3d 00
        E 0 80 3f 00
        E 0 80 49 00
        E 0 80 4b 00
        E 0 80 55 00
        E 0 80 57 00
        E 0 80 61 00
        E 0 80 63 00
        E 120 90 19 60
        E 0 90 33 60
        E 0 90 63 60
        E 120 80 33 00
        E 0 80 63 00
        E 120 80 19 00
        E 0 90 18 60
        E 0 90 33 60
        E 0 90 3f 60
        E 0 90 48 60
        E 0 90 4b 60
        E 0 90 54 60
        E 0 90 57 60
        E 0 90 60 60
        E 0 90 63 60
        E 0 90 78 60
        E 0 90 79 60
        E 0 90 7a 60
        E 0 90 7b 60
        E 0 90 7c 60
        E 120 80 18 00
        E 0 80 33 00
        E 0 80 3f 00
        E 0 80 48 00
        E 0 80 4b 00
        E 0 80 54 00
        E 0 80 57 00
        E 0 80 60 00
        E 0 80 63 00
        E 120 90 18 60
        E 0 90 19 60
        E 0 90 33 60
        E 0 90 54 60
        E 0 90 60 60
        E 0 90 63 60
        E 120 80 18 00
        E 0 80 33 00
        E 0 80 54 00
        E 0 80 60 00
        E 0 80 63 00
        E 120 80 19 00
        E 0 90 1a 60
        E 0 90 33 60
        E 0 90 3d 60
        E 0 90 3f 60
        E 0 90 49 60
        E 0 90 4b 60
        E 0 90 55 60
        E 0 90 57 60
        E 0 90 61 60
        E 0 90 63 60
        E 120 80 1a 00
        E 0 80 33 00
        E 0 80 3d 00
        E 0 80 3f 00
        E 0 80 49 00
        E 0 80 4b 00
        E 0 80 55 00
        E 0 80 57 00
        E 0 80 61 00
        E 0 80 63 00
        E 120 90 19 60
        E 0 90 33 60
        E 0 90 63 60
        E 120 80 33 00
        E 0 80 63 00
        E 120 80 19 00
        E 0 90 18 60
        E 0 90 33 60
        E 0 90 3f 60
        E 0 90 48 60
        E 0 90 4b 60
        E 0 90 54 60
        E 0 90 57 60
        E 0 90 60 60
        E 0 90 63 60
        E 120 80 18 00
        E 0 80 33 00
        E 0 80 3f 00
        E 0 80 48 00
        E 0 80 4b 00
        E 0 80 54 00
        E 0 80 57 00
        E 0 80 60 00
        E 0 80 63 00
        E 120 90 18 60
        E 0 90 19 60
        E 0 90 33 60
        E 0 90 54 60
        E 0 90 60 60
        E 0 90 63 60
        E 120 80 18 00
        E 0 80 33 00
        E 0 80 54 00
        E 0 80 60 00
        E 0 80 63 00
        E 120 80 19 00
        E 0 90 1a 60
        E 0 90 33 60
        E 0 90 3d 60
        E 0 90 3f 60
        E 0 90 49 60
        E 0 90 4b 60
        E 0 90 55 60
        E 0 90 57 60
        E 0 90 61 60
        E 0 90 63 60
        E 120 80 1a 00
        E 0 80 33 00
        E 0 80 3d 00
        E 0 80 3f 00
        E 0 80 49 00
        E 0 80 4b 00
        E 0 80 55 00
        E 0 80 57 00
        E 0 80 61 00
        E 0 80 63 00
        E 120 90 19 60
        E 0 90 33 60
        E 0 90 63 60
        E 120 80 33 00
        E 0 80 63 00
        E 120 80 78 00
        E 0 80 79 00
        E 0 80 7a 00
        E 0 80 7b 00
        E 0 80 7c 00
        E 0 80 19 00
        E 0 90 18 60
        E 0 90 26 60
        E 0 90 40 60
        E 0 90 48 60
        E 0 90 4c 60
        E 0 90 54 60
        E 0 90 58 60
        E 0 90 60 60
        E 0 90 64 60
        E 120 80 18 00
        E 0 80 26 00
        E 0 80 40 00
        E 0 80 48 00
        E 0 80 4c 00
        E 0 80 54 00
        E 0 80 58 00
        E 0 80 60 00
        E 0 80 64 00
        E 120 90 18 60
        E 0 90 19 60
        E 0 90 33 60
        E 0 90 54 60
        E 0 90 60 60
        E 0 90 63 60
        E 120 80 18 00
        E 0 80 33 00
        E 0 80 54 00
        E 0 80 60 00
        E 0 80 63 00
        E 120 80 19 00
        E 0 90 1a 60
        E 0 90 33 60
        E 0 90 3d 60
        E 0 90 3f 60
        E 0 90 49 60
        E 0 90 4b 60
        E 0 90 55 60
        E 0 90 57 60
        E 0 90 61 60
        E 0 90 63 60
        E 120 80 1a 00
        E 0 80 33 00
        E 0 80 3d 00
        E 0 80 3f 00
        E 0 80 49 00
        E 0 80 4b 00
        E 0 80 55 00
        E 0 80 57 00
        E 0 80 61 00
        E 0 80 63 00
        E 120 90 19 60
        E 0 90 33 60
        E 0 90 63 60
        E 120 80 33 00
        E 0 80 63 00
        E 120 80 19 00
        E 0 90 18 60
        E 0 90 33 60
        E 0 90 3f 60
        E 0 90 48 60
        E 0 90 4b 60
        E 0 90 54 60
        E 0 90 57 60
        E 0 90 60 60
        E 0 90 63 60
        E 120 80 18 00
        E 0 80 33 00
        E 0 80 3f 00
        E 0 80 48 00
        E 0 80 4b 00
        E 0 80 54 00
        E 0 80 57 00
        E 0 80 60 00
        E 0 80 63 00
        E 120 90 18 60
        E 0 90 19 60
        E 0 90 33 60
        E 0 90 54 60
        E 0 90 60 60
        E 0 90 63 60
        E 120 80 18 00
        E 0 80 33 00
        E 0 80 54 00
        E 0 80 60 00
        E 0 80 63 00
        E 120 80 19 00
        E 0 90 1a 60
        E 0 90 33 60
        E 0 90 3d 60
        E 0 90 3f 60
        E 0 90 49 60
        E 0 90 4b 60
        E 0 90 55 60
        E 0 90 57 60
        E 0 90 61 60
        E 0 90 63 60
        E 120 80 1a 00
        E 0 80 33 00
        E 0 80 3d 00
        E 0 80 3f 00
        E 0 80 49 00
        E 0 80 4b 00
        E 0 80 55 00
        E 0 80 57 00
        E 0 80 61 00
        E 0 80 63 00
        E 120 90 19 60
        E 0 90 33 60
        E 0 90 63 60
        E 120 80 33 00
        E 0 80 63 00
        E 120 80 19 00
        E 0 90 18 60
        E 0 90 33 60
        E 0 90 3f 60
        E 0 90 48 60
        E 0 90 4b 60
        E 0 90 54 60
        E 0 90 57 60
        E 0 90 60 60
        E 0 90 63 60
        E 120 80 18 00
        E 0 80 33 00
        E 0 80 3f 00
        E 0 80 48 00
        E 0 80 4b 00
        E 0 80 54 00
        E 0 80 57 00
        E 0 80 60 00
        E 0 80 63 00
        E 120 90 18 60
        E 0 90 19 60
        E 0 90 33 60
        E 0 90 54 60
        E 0 90 60 60
        E 0 90 63 60
        E 120 80 18 00
        E 0 80 33 00
        E 0 80 54 00
        E 0 80 60 00
        E 0 80 63 00
        E 120 80 19 00
        E 0 90 1a 60
        E 0 90 33 60
        E 0 90 3d 60
        E 0 90 3f 60
        E 0 90 49 60
        E 0 90 4b 60
        E 0 90 55 60
        E 0 90 57 60
        E 0 90 61 60
        E 0 90 63 60
        E 120 80 1a 00
        E 0 80 33 00
        E 0 80 3d 00
        E 0 80 3f 00
        E 0 80 49 00
        E 0 80 4b 00
        E 0 80 55 00
        E 0 80 57 00
        E 0 80 61 00
        E 0 80 63 00
        E 120 90 19 60
        E 0 90 33 60
        E 0 90 63 60
        E 120 80 33 00
        E 0 80 63 00
        E 120 80 19 00
        E 0 90 18 60
        E 0 90 33 60
        E 0 90 3f 60
        E 0 90 48 60
        E 0 90 4b 60
        E 0 90 54 60
        E 0 90 57 60
        E 0 90 60 60
        E 0 90 63 60
        E 120 80 18 00
        E 0 80 33 00
        E 0 80 3f 00
        E 0 80 48 00
        E 0 80 4b 00
        E 0 80 54 00
        E 0 80 57 00
        E 0 80 60 00
        E 0 80 63 00
        E 120 90 18 60
        E 0 90 19 60
        E 0 90 33 60
        E 0 90 54 60
        E 0 90 60 60
        E 0 90 63 60
        E 120 80 18 00
        E 0 80 33 00
        E 0 80 54 00
        E 0 80 60 00
        E 0 80 63 00
        E 120 80 19 00
        E 0 90 1a 60
        E 0 90 33 60
        E 0 90 3d 60
        E 0 90 3f 60
        E 0 90 49 60
        E 0 90 4b 60
        E 0 90 55 60
        E 0 90 57 60
        E 0 90 61 60
        E 0 90 63 60
        E 120 80 1a 00
        E 0 80 33 00
        E 0 80 3d 00
        E 0 80 3f 00
        E 0 80 49 00
        E 0 80 4b 00
        E 0 80 55 00
        E 0 80 57 00
        E 0 80 61 00
        E 0 80 63 00
        E 120 90 19 60
        E 0 90 33 60
        E 0 90 63 60
        E 120 80 33 00
        E 0 80 63 00
        E 120 80 19 00
        E 0 90 18 60
        E 0 90 33 60
        E 0 90 3f 60
        E 0 90 48 60
        E 0 90 4b 60
        E 0 90 54 60
        E 0 90 57 60
        E 0 90 60 60
        E 0 90 63 60
        E 120 80 18 00
        E 0 80 33 00
        E 0 80 3f 00
        E 0 80 48 00
        E 0 80 4b 00
        E 0 80 54 00
        E 0 80 57 00
        E 0 80 60 00
        E 0 80 63 00
        E 120 90 18 60
        E 0 90 19 60
        E 0 90 33 60
        E 0 90 54 60
        E 0 90 60 60
        E 0 90 63 60
        E 120 80 18 00
        E 0 80 33 00
        E 0 80 54 00
        E 0 80 60 00
        E 0 80 63 00
        E 120 80 19 00
        E 0 90 1a 60
        E 0 90 33 60
        E 0 90 3d 60
        E 0 90 3f 60
        E 0 90 49 60
        E 0 90 4b 60
        E 0 90 55 60
        E 0 90 57 60
        E 0 90 61 60
        E 0 90 63 60
        E 120 80 1a 00
        E 0 80 33 00
        E 0 80 3d 00
        E 0 80 3f 00
        E 0 80 49 00
        E 0 80 4b 00
        E 0 80 55 00
        E 0 80 57 00
        E 0 80 61 00
        E 0 80 63 00
        E 120 90 19 60
        E 0 90 33 60
        E 0 90 63 60
        E 120 80 33 00
        E 0 80 63 00
        E 120 80 19 00
        E 0 90 18 60
        E 0 90 33 60
        E 0 90 3f 60
        E 0 90 48 60
        E 0 90 4b 60
        E 0 90 54 60
        E 0 90 57 60
        E 0 90 60 60
        E 0 90 63 60
        E 120 80 18 00
        E 0 80 33 00
        E 0 80 3f 00
        E 0 80 48 00
        E 0 80 4b 00
        E 0 80 54 00
        E 0 80 57 00
        E 0 80 60 00
        E 0 80 63 00
        E 120 90 18 60
        E 0 90 19 60
        E 0 90 33 60
        E 0 90 54 60
        E 0 90 60 60
        E 0 90 63 60
        E 120 80 18 00
        E 0 80 33 00
        E 0 80 54 00
        E 0 80 60 00
        E 0 80 63 00
        E 120 80 19 00
        E 0 90 1a 60
        E 0 90 33 60
        E 0 90 3d 60
        E 0 90 3f 60
        E 0 90 49 60
        E 0 90 4b 60
        E 0 90 55 60
        E 0 90 57 60
        E 0 90 61 60
        E 0 90 63 60
        E 120 80 1a 00
        E 0 80 33 00
        E 0 80 3d 00
        E 0 80 3f 00
        E 0 80 49 00
        E 0 80 4b 00
        E 0 80 55 00
        E 0 80 57 00
        E 0 80 61 00
        E 0 80 63 00
        E 120 90 19 60
        E 0 90 33 60
        E 0 90 63 60
        E 120 80 33 00
        E 0 80 63 00
        E 120 80 19 00
        E 0 90 18 60
        E 0 90 33 60
        E 0 90 3f 60
        E 0 90 48 60
        E 0 90 4b 60
        E 0 90 54 60
        E 0 90 57 60
        E 0 90 60 60
        E 0 90 63 60
        E 0 90 78 60
        E 0 90 79 60
        E 0 90 7a 60
        E 0 90 7b 60
        E 0 90 7c 60
        E 120 80 18 00
        E 0 80 33 00
        E 0 80 3f 00
        E 0 80 48 00
        E 0 80 4b 00
        E 0 80 54 00
        E 0 80 57 00
        E 0 80 60 00
        E 0 80 63 00
        E 120 90 18 60
        E 0 90 19 60
        E 0 90 33 60
        E 0 90 54 60
        E 0 90 60 60
        E 0 90 63 60
        E 120 80 18 00
        E 0 80 33 00
        E 0 80 54 00
        E 0 80 60 00
        E 0 80 63 00
        E 120 80 19 00
        E 0 90 1a 60
        E 0 90 33 60
        E 0 90 3d 60
        E 0 90 3f 60
        E 0 90 49 60
        E 0 90 4b 60
        E 0 90 55 60
        E 0 90 57 60
        E 0 90 61 60
        E 0 90 63 60
        E 120 80 1a 00
        E 0 80 33 00
        E 0 80 3d 00
        E 0 80 3f 00
        E 0 80 49 00
        E 0 80 4b 00
        E 0 80 55 00
        E 0 80 57 00
        E 0 80 61 00
        E 0 80 63 00
        E 120 90 19 60
        E 0 90 33 60
        E 0 90 63 60
        E 120 80 33 00
        E 0 80 63 00
        E 120 80 19 00
        E 0 90 18 60
        E 0 90 33 60
        E 0 90 3f 60
        E 0 90 48 60
        E 0 90 4b 60
        E 0 90 54 60
        E 0 90 57 60
        E 0 90 60 60
        E 0 90 63 60
        E 120 80 18 00
        E 0 80 33 00
        E 0 80 3f 00
        E 0 80 48 00
        E 0 80 4b 00
        E 0 80 54 00
        E 0 80 57 00
        E 0 80 60 00
        E 0 80 63 00
        E 120 90 18 60
        E 0 90 19 60
        E 0 90 33 60
        E 0 90 54 60
        E 0 90 60 60
        E 0 90 63 60
        E 120 80 18 00
        E 0 80 33 00
        E 0 80 54 00
        E 0 80 60 00
        E 0 80 63 00
        E 120 80 19 00
        E 0 90 1a 60
        E 0 90 33 60
        E 0 90 3d 60
        E 0 90 3f 60
        E 0 90 49 60
        E 0 90 4b 60
        E 0 90 55 60
        E 0 90 57 60
        E 0 90 61 60
        E 0 90 63 60
        E 120 80 1a 00
        E 0 80 33 00
        E 0 80 3d 00
        E 0 80 3f 00
        E 0 80 49 00
        E 0 80 4b 00
        E 0 80 55 00
        E 0 80 57 00
        E 0 80 61 00
        E 0 80 63 00
        E 120 90 19 60
        E 0 90 1f 60
        E 0 90 33 60
        E 0 90 56 60
        E 0 90 62 60
        E 0 90 63 60
        E 120 80 1f 00
        E 0 80 33 00
        E 0 80 56 00
        E 0 80 62 00
        E 0 80 63 00
        E 120 80 78 00
        E 0 80 79 00
        E 0 80 7a 00
        E 0 80 7b 00
        E 0 80 7c 00
        E 0 80 19 00
        E 0 90 18 60
        E 0 90 33 60
        E 0 90 3f 60
        E 0 90 48 60
        E 0 90 4b 60
        E 0 90 54 60
        E 0 90 57 60
        E 0 90 60 60
        E 0 90 63 60
        E 0 90 74 60
        E 120 80 18 00
        E 0 80 33 00
        E 0 80 3f 00
        E 0 80 48 00
        E 0 80 4b 00
        E 0 80 54 00
        E 0 80 57 00
        E 0 80 60 00
        E 0 80 63 00
        E 120 90 18 60
        E 0 90 19 60
        E 0 90 33 60
        E 0 90 54 60
        E 0 90 60 60
        E 0 90 63 60
        E 120 80 18 00
        E 0 80 33 00
        E 0 80 54 00
        E 0 80 60 00
        E 0 80 63 00
        E 120 80 19 00
        E 0 90 1a 60
        E 0 90 33 60
        E 0 90 3d 60
        E 0 90 3f 60
        E 0 90 49 60
        E 0 90 4b 60
        E 0 90 55 60
        E 0 90 57 60
        E 0 90 61 60
        E 0 90 63 60
        E 120 80 1a 00
        E 0 80 33 00
        E 0 80 3d 00
        E 0 80 3f 00
        E 0 80 49 00
        E 0 80 4b 00
        E 0 80 55 00
        E 0 80 57 00
        E 0 80 61 00
        E 0 80 63 00
        E 120 90 19 60
        E 0 90 33 60
        E 0 90 63 60
        E 120 80 33 00
        E 0 80 63 00
        E 120 80 19 00
        E 0 90 18 60
        E 0 90 33 60
        E 0 90 3f 60
        E 0 90 48 60
        E 0 90 4b 60
        E 0 90 54 60
        E 0 90 57 60
        E 0 90 60 60
        E 0 90 63 60
        E 120 80 18 00
        E 0 80 33 00
        E 0 80 3f 00
        E 0 80 48 00
        E 0 80 4b 00
        E 0 80 54 00
        E 0 80 57 00
        E 0 80 60 00
        E 0 80 63 00
        E 120 90 18 60
        E 0 90 19 60
        E 0 90 33 60
        E 0 90 54 60
        E 0 90 60 60
        E 0 90 63 60
        E 120 80 18 00
        E 0 80 33 00
        E 0 80 54 00
        E 0 80 60 00
        E 0 80 63 00
        E 120 80 19 00
        E 0 90 1a 60
        E 0 90 33 60
        E 0 90 3d 60
        E 0 90 3f 60
        E 0 90 49 60
        E 0 90 4b 60
        E 0 90 55 60
        E 0 90 57 60
        E 0 90 61 60
        E 0 90 63 60
        E 120 80 1a 00
        E 0 80 33 00
        E 0 80 3d 00
        E 0 80 3f 00
        E 0 80 49 00
        E 0 80 4b 00
        E 0 80 55 00
        E 0 80 57 00
        E 0 80 61 00
        E 0 80 63 00
        E 120 90 19 60
        E 0 90 33 60
        E 0 90 63 60
        E 120 80 33 00
        E 0 80 63 00
        E 120 80 19 00
        E 0 90 18 60
        E 0 90 33 60
        E 0 90 3f 60
        E 0 90 48 60
        E 0 90 4b 60
        E 0 90 54 60
        E 0 90 57 60
        E 0 90 60 60
        E 0 90 63 60
        E 120 80 18 00
        E 0 80 33 00
        E 0 80 3f 00
        E 0 80 48 00
        E 0 80 4b 00
        E 0 80 54 00
        E 0 80 57 00
        E 0 80 60 00
        E 0 80 63 00
        E 120 90 18 60
        E 0 90 19 60
        E 0 90 33 60
        E 0 90 54 60
        E 0 90 60 60
        E 0 90 63 60
        E 120 80 18 00
        E 0 80 33 00
        E 0 80 54 00
        E 0 80 60 00
        E 0 80 63 00
        E 120 80 19 00
        E 0 90 1a 60
        E 0 90 33 60
        E 0 90 3d 60
        E 0 90 3f 60
        E 0 90 49 60
        E 0 90 4b 60
        E 0 90 55 60
        E 0 90 57 60
        E 0 90 61 60
        E 0 90 63 60
        E 120 80 1a 00
        E 0 80 33 00
        E 0 80 3d 00
        E 0 80 3f 00
        E 0 80 49 00
        E 0 80 4b 00
        E 0 80 55 00
        E 0 80 57 00
        E 0 80 61 00
        E 0 80 63 00
        E 120 90 19 60
        E 0 90 33 60
        E 0 90 63 60
        E 120 80 33 00
        E 0 80 63 00
        E 120 80 19 00
        E 0 90 18 60
        E 0 90 33 60
        E 0 90 3f 60
        E 0 90 48 60
        E 0 90 4b 60
        E 0 90 54 60
        E 0 90 57 60
        E 0 90 60 60
        E 0 90 63 60
        E 120 80 18 00
        E 0 80 33 00
        E 0 80 3f 00
        E 0 80 48 00
        E 0 80 4b 00
        E 0 80 54 00
        E 0 80 57 00
        E 0 80 60 00
        E 0 80 63 00
        E 120 90 18 60
        E 0 90 19 60
        E 0 90 33 60
        E 0 90 54 60
        E 0 90 60 60
        E 0 90 63 60
        E 120 80 18 00
        E 0 80 33 00
        E 0 80 54 00
        E 0 80 60 00
        E 0 80 63 00
        E 120 80 19 00
        E 0 90 1a 60
        E 0 90 33 60
        E 0 90 3d 60
        E 0 90 3f 60
        E 0 90 49 60
        E 0 90 4b 60
        E 0 90 55 60
        E 0 90 57 60
        E 0 90 61 60
        E 0 90 63 60
        E 120 80 1a 00
        E 0 80 33 00
        E 0 80 3d 00
        E 0 80 3f 00
        E 0 80 49 00
        E 0 80 4b 00
        E 0 80 55 00
        E 0 80 57 00
        E 0 80 61 00
        E 0 80 63 00
        E 120 90 19 60
        E 0 90 33 60
        E 0 90 63 60
        E 120 80 33 00
        E 0 80 63 00
        E 120 80 74 00
        E 0 80 19 00
        E 0 90 18 60
        E 0 90 26 60
        E 0 90 40 60
        E 0 90 48 60
        E 0 90 4c 60
        E 0 90 54 60
        E 0 90 58 60
        E 0 90 60 60
        E 0 90 64 60
        E 120 80 18 00
        E 0 80 26 00
        E 0 80 40 00
        E 0 80 48 00
        E 0 80 4c 00
        E 0 80 54 00
        E 0 80 58 00
        E 0 80 60 00
        E 0 80 64 00
        E 120 90 18 60
        E 0 90 19 60
        E 0 90 33 60
        E 0 90 54 60
        E 0 90 60 60
        E 0 90 63 60
        E 120 80 18 00
        E 0 80 33 00
        E 0 80 54 00
        E 0 80 60 00
        E 0 80 63 00
        E 120 80 19 00
        E 0 90 1a 60
        E 0 90 33 60
        E 0 90 3d 60
        E 0 90 3f 60
        E 0 90 49 60
        E 0 90 4b 60
        E 0 90 55 60
        E 0 90 57 60
        E 0 90 61 60
        E 0 90 63 60
        E 120 80 1a 00
        E 0 80 33 00
        E 0 80 3d 00
        E 0 80 3f 00
        E 0 80 49 00
        E 0 80 4b 00
        E 0 80 55 00
        E 0 80 57 00
        E 0 80 61 00
        E 0 80 63 00
        E 120 90 19 60
        E 0 90 33 60
        E 0 90 63 60
        E 120 80 33 00
        E 0 80 63 00
        E 120 80 19 00
        E 0 90 18 60
        E 0 90 33 60
        E 0 90 3f 60
        E 0 90 48 60
        E 0 90 4b 60
        E 0 90 54 60
        E 0 90 57 60
        E 0 90 60 60
        E 0 90 63 60
        E 120 80 18 00
        E 0 80 33 00
        E 0 80 3f 00
        E 0 80 48 00
        E 0 80 4b 00
        E 0 80 54 00
        E 0 80 57 00
        E 0 80 60 00
        E 0 80 63 00
        E 120 90 18 60
        E 0 90 19 60
        E 0 90 33 60
        E 0 90 54 60
        E 0 90 60 60
        E 0 90 63 60
        E 120 80 18 00
        E 0 80 33 00
        E 0 80 54 00
        E 0 80 60 00
        E 0 80 63 00
        E 120 80 19 00
        E 0 90 1a 60
        E 0 90 33 60
        E 0 90 3d 60
        E 0 90 3f 60
        E 0 90 49 60
        E 0 90 4b 60
        E 0 90 55 60
        E 0 90 57 60
        E 0 90 61 60
        E 0 90 63 60
        E 120 80 1a 00
        E 0 80 33 00
        E 0 80 3d 00
        E 0 80 3f 00
        E 0 80 49 00
        E 0 80 4b 00
        E 0 80 55 00
        E 0 80 57 00
        E 0 80 61 00
        E 0 80 63 00
        E 120 90 19 60
        E 0 90 33 60
        E 0 90 63 60
        E 120 80 33 00
        E 0 80 63 00
        E 120 80 19 00
        E 0 90 18 60
        E 0 90 33 60
        E 0 90 3f 60
        E 0 90 48 60
        E 0 90 4b 60
        E 0 90 54 60
        E 0 90 57 60
        E 0 90 60 60
        E 0 90 63 60
        E 0 90 78 60
        E 0 90 79 60
        E 0 90 7a 60
        E 0 90 7b 60
        E 0 90 7c 60
        E 120 80 18 00
        E 0 80 33 00
        E 0 80 3f 00
        E 0 80 48 00
        E 0 80 4b 00
        E 0 80 54 00
        E 0 80 57 00
        E 0 80 60 00
        E 0 80 63 00
        E 120 90 18 60
        E 0 90 19 60
        E 0 90 33 60
        E 0 90 54 60
        E 0 90 60 60
        E 0 90 63 60
        E 120 80 18 00
        E 0 80 33 00
        E 0 80 54 00
        E 0 80 60 00
        E 0 80 63 00
        E 120 80 19 00
        E 0 90 1a 60
        E 0 90 33 60
        E 0 90 3d 60
        E 0 90 3f 60
        E 0 90 49 60
        E 0 90 4b 60
        E 0 90 55 60
        E 0 90 57 60
        E 0 90 61 60
        E 0 90 63 60
        E 120 80 1a 00
        E 0 80 33 00
        E 0 80 3d 00
        E 0 80 3f 00
        E 0 80 49 00
        E 0 80 4b 00
        E 0 80 55 00
        E 0 80 57 00
        E 0 80 61 00
        E 0 80 63 00
        E 120 90 19 60
        E 0 90 33 60
        E 0 90 63 60
        E 120 80 33 00
        E 0 80 63 00
        E 120 80 19 00
        E 0 90 18 60
        E 0 90 33 60
        E 0 90 3f 60
        E 0 90 48 60
        E 0 90 4b 60
        E 0 90 54 60
        E 0 90 57 60
        E 0 90 60 60
        E 0 90 63 60
        E 120 80 18 00
        E 0 80 33 00
        E 0 80 3f 00
        E 0 80 48 00
        E 0 80 4b 00
        E 0 80 54 00
        E 0 80 57 00
        E 0 80 60 00
        E 0 80 63 00
        E 120 90 18 60
        E 0 90 19 60
        E 0 90 33 60
        E 0 90 54 60
        E 0 90 60 60
        E 0 90 63 60
        E 120 80 18 00
        E 0 80 33 00
        E 0 80 54 00
        E 0 80 60 00
        E 0 80 63 00
        E 120 80 19 00
        E 0 90 1a 60
        E 0 90 33 60
        E 0 90 3d 60
        E 0 90 3f 60
        E 0 90 49 60
        E 0 90 4b 60
        E 0 90 55 60
        E 0 90 57 60
        E 0 90 61 60
        E 0 90 63 60
        E 120 80 1a 00
        E 0 80 33 00
        E 0 80 3d 00
        E 0 80 3f 00
        E 0 80 49 00
        E 0 80 4b 00
        E 0 80 55 00
        E 0 80 57 00
        E 0 80 61 00
        E 0 80 63 00
        E 120 90 19 60
        E 0 90 33 60
        E 0 90 63 60
        E 120 80 33 00
        E 0 80 63 00
        E 120 80 78 00
        E 0 80 79 00
        E 0 80 7a 00
        E 0 80 7b 00
        E 0 80 7c 00
        E 0 80 19 00
        E 0 90 18 60
        E 0 90 33 60
        E 0 90 3f 60
        E 0 90 48 60
        E 0 90 4b 60
        E 0 90 54 60
        E 0 90 57 60
        E 0 90 60 60
        E 0 90 63 60
        E 120 80 18 00
        E 0 80 33 00
        E 0 80 3f 00
        E 0 80 48 00
        E 0 80 4b 00
        E 0 80 54 00
        E 0 80 57 00
        E 0 80 60 00
        E 0 80 63 00
        E 120 90 18 60
        E 0 90 19 60
        E 0 90 33 60
        E 0 90 54 60
        E 0 90 60 60
        E 0 90 63 60
        E 120 80 18 00
        E 0 80 33 00
        E 0 80 54 00
        E 0 80 60 00
        E 0 80 63 00
        E 120 80 19 00
        E 0 90 1a 60
        E 0 90 33 60
        E 0 90 3d 60
        E 0 90 3f 60
        E 0 90 49 60
        E 0 90 4b 60
        E 0 90 55 60
        E 0 90 57 60
        E 0 90 61 60
        E 0 90 63 60
        E 120 80 1a 00
        E 0 80 33 00
        E 0 80 3d 00
        E 0 80 3f 00
        E 0 80 49 00
        E 0 80 4b 00
        E 0 80 55 00
        E 0 80 57 00
        E 0 80 61 00
        E 0 80 63 00
        E 120 90 19 60
        E 0 90 33 60
        E 0 90 63 60
        E 120 80 33 00
        E 0 80 63 00
        E 120 80 19 00
        E 0 90 18 60
        E 0 90 33 60
        E 0 90 3f 60
        E 0 90 48 60
        E 0 90 4b 60
        E 0 90 54 60
        E 0 90 57 60
        E 0 90 60 60
        E 0 90 63 60
        E 120 80 18 00
        E 0 80 33 00
        E 0 80 3f 00
        E 0 80 48 00
        E 0 80 4b 00
        E 0 80 54 00
        E 0 80 57 00
        E 0 80 60 00
        E 0 80 63 00
        E 120 90 18 60
        E 0 90 19 60
        E 0 90 33 60
        E 0 90 54 60
        E 0 90 60 60
        E 0 90 63 60
        E 120 80 18 00
        E 0 80 33 00
        E 0 80 54 00
        E 0 80 60 00
        E 0 80 63 00
        E 120 80 19 00
        E 0 90 1a 60
        E 0 90 33 60
        E 0 90 3d 60
        E 0 90 3f 60
        E 0 90 49 60
        E 0 90 4b 60
        E 0 90 55 60
        E 0 90 57 60
        E 0 90 61 60
        E 0 90 63 60
        E 120 80 1a 00
        E 0 80 33 00
        E 0 80 3d 00
        E 0 80 3f 00
        E 0 80 49 00
        E 0 80 4b 00
        E 0 80 55 00
        E 0 80 57 00
        E 0 80 61 00
        E 0 80 63 00
        E 120 90 19 60
        E 0 90 33 60
        E 0 90 63 60
        E 120 80 33 00
        E 0 80 63 00
        E 120 80 19 00
        E 0 90 18 60
        E 0 90 33 60
        E 0 90 3f 60
        E 0 90 48 60
        E 0 90 4b 60
        E 0 90 54 60
        E 0 90 57 60
        E 0 90 60 60
        E 0 90 63 60
        E 120 80 18 00
        E 0 80 33 00
        E 0 80 3f 00
        E 0 80 48 00
        E 0 80 4b 00
        E 0 80 54 00
        E 0 80 57 00
        E 0 80 60 00
        E 0 80 63 00
        E 120 90 18 60
        E 0 90 19 60
        E 0 90 33 60
        E 0 90 54 60
        E 0 90 60 60
        E 0 90 63 60
        E 120 80 18 00
        E 0 80 33 00
        E 0 80 54 00
        E 0 80 60 00
        E 0 80 63 00
        E 120 80 19 00
        E 0 90 1a 60
        E 0 90 33 60
        E 0 90 3d 60
        E 0 90 3f 60
        E 0 90 49 60
        E 0 90 4b 60
        E 0 90 55 60
        E 0 90 57 60
        E 0 90 61 60
        E 0 90 63 60
        E 120 80 1a 00
        E 0 80 33 00
        E 0 80 3d 00
        E 0 80 3f 00
        E 0 80 49 00
        E 0 80 4b 00
        E 0 80 55 00
        E 0 80 57 00
        E 0 80 61 00
        E 0 80 63 00
        E 120 90 19 60
        E 0 90 33 60
        E 0 90 63 60
        E 120 80 33 00
        E 0 80 63 00
        E 120 80 19 00
        E 0 90 18 60
        E 0 90 33 60
        E 0 90 3f 60
        E 0 90 48 60
        E 0 90 4b 60
        E 0 90 54 60
        E 0 90 57 60
        E 0 90 60 60
        E 0 90 63 60
        E 120 80 18 00
        E 0 80 33 00
        E 0 80 3f 00
        E 0 80 48 00
        E 0 80 4b 00
        E 0 80 54 00
        E 0 80 57 00
        E 0 80 60 00
        E 0 80 63 00
        E 120 90 18 60
        E 0 90 19 60
        E 0 90 33 60
        E 0 90 54 60
        E 0 90 60 60
        E 0 90 63 60
        E 120 80 18 00
        E 0 80 33 00
        E 0 80 54 00
        E 0 80 60 00
        E 0 80 63 00
        E 120 80 19 00
        E 0 90 1a 60
        E 0 90 33 60
        E 0 90 3d 60
        E 0 90 3f 60
        E 0 90 49 60
        E 0 90 4b 60
        E 0 90 55 60
        E 0 90 57 60
        E 0 90 61 60
        E 0 90 63 60
        E 120 80 1a 00
        E 0 80 33 00
        E 0 80 3d 00
        E 0 80 3f 00
        E 0 80 49 00
        E 0 80 4b 00
        E 0 80 55 00
        E 0 80 57 00
        E 0 80 61 00
        E 0 80 63 00
        E 120 90 19 60
        E 0 90 33 60
        E 0 90 63 60
        E 120 80 33 00
        E 0 80 63 00
        E 120 80 19 00
        E 0 90 18 60
        E 0 90 26 60
        E 0 90 40 60
        E 0 90 48 60
        E 0 90 4c 60
        E 0 90 54 60
        E 0 90 58 60
        E 0 90 60 60
        E 0 90 64 60
        E 120 80 18 00
        E 0 80 26 00
        E 0 80 40 00
        E 0 80 48 00
        E 0 80 4c 00
        E 0 80 54 00
        E 0 80 58 00
        E 0 80 60 00
        E 0 80 64 00
        E 120 90 18 60
        E 0 90 19 60
        E 0 90 33 60
        E 0 90 54 60
        E 0 90 60 60
        E 0 90 63 60
        E 120 80 18 00
        E 0 80 33 00
        E 0 80 54 00
        E 0 80 60 00
        E 0 80 63 00
        E 120 80 19 00
        E 0 90 1a 60
        E 0 90 33 60
        E 0 90 3d 60
        E 0 90 3f 60
        E 0 90 49 60
        E 0 90 4b 60
        E 0 90 55 60
        E 0 90 57 60
        E 0 90 61 60
        E 0 90 63 60
        E 120 80 1a 00
        E 0 80 33 00
        E 0 80 3d 00
        E 0 80 3f 00
        E 0 80 49 00
        E 0 80 4b 00
        E 0 80 55 00
        E 0 80 57 00
        E 0 80 61 00
        E 0 80 63 00
        E 120 90 19 60
        E 0 90 33 60
        E 0 90 63 60
        E 120 80 33 00
        E 0 80 63 00
        E 120 80 19 00
        E 0 90 18 60
        E 0 90 33 60
        E 0 90 3f 60
        E 0 90 48 60
        E 0 90 4b 60
        E 0 90 54 60
        E 0 90 57 60
        E 0 90 60 60
        E 0 90 63 60
        E 120 80 18 00
        E 0 80 33 00
        E 0 80 3f 00
        E 0 80 48 00
        E 0 80 4b 00
        E 0 80 54 00
        E 0 80 57 00
        E 0 80 60 00
        E 0 80 63 00
        E 120 90 18 60
        E 0 90 19 60
        E 0 90 33 60
        E 0 90 54 60
        E 0 90 60 60
        E 0 90 63 60
        E 120 80 18 00
        E 0 80 33 00
        E 0 80 54 00
        E 0 80 60 00
        E 0 80 63 00
        E 120 80 19 00
        E 0 90 1a 60
        E 0 90 33 60
        E 0 90 3d 60
        E 0 90 3f 60
        E 0 90 49 60
        E 0 90 4b 60
        E 0 90 55 60
        E 0 90 57 60
        E 0 90 61 60
        E 0 90 63 60
        E 120 80 1a 00
        E 0 80 33 00
        E 0 80 3d 00
        E 0 80 3f 00
        E 0 80 49 00
        E 0 80 4b 00
        E 0 80 55 00
        E 0 80 57 00
        E 0 80 61 00
        E 0 80 63 00
        E 120 90 19 60
        E 0 90 33 60
        E 0 90 63 60
        E 120 80 33 00
        E 0 80 63 00
        E 120 80 6f 00
        E 0 80 19 00
        E 0 90 18 60
        E 0 90 1b 60
        E 0 90 3d 60
        E 0 90 49 60
        E 0 90 54 60
        E 0 90 55 60
        E 0 90 60 60
        E 0 90 61 60
        E 0 90 78 60
        E 0 90 79 60
        E 0 90 7a 60
        E 0 90 7b 60
        E 0 90 7c 60
        E 120 80 18 00
        E 0 80 1b 00
        E 0 80 3d 00
        E 0 80 49 00
        E 0 80 54 00
        E 0 80 55 00
        E 0 80 60 00
        E 0 80 61 00
        E 0 90 1a 60
        E 0 90 61 60
        E 120 80 1a 00
        E 0 80 61 00
        E 0 90 19 60
        E 0 90 1b 60
        E 0 90 55 60
        E 0 90 61 60
        E 120 80 1b 00
        E 0 80 55 00
        E 0 80 61 00
        E 0 90 1a 60
        E 0 90 61 60
        E 120 80 19 00
        E 0 80 1a 00
        E 0 80 61 00
        E 0 90 18 60
        E 0 90 1b 60
        E 0 90 3d 60
        E 0 90 49 60
        E 0 90 54 60
        E 0 90 55 60
        E 0 90 60 60
        E 0 90 61 60
        E 120 80 18 00
        E 0 80 1b 00
        E 0 80 3d 00
        E 0 80 49 00
        E 0 80 54 00
        E 0 80 55 00
        E 0 80 60 00
        E 0 80 61 00
        E 0 90 1a 60
        E 0 90 61 60
        E 120 80 1a 00
        E 0 80 61 00
        E 0 90 19 60
        E 0 90 1b 60
        E 0 90 55 60
        E 0 90 61 60
        E 120 80 1b 00
        E 0 80 55 00
        E 0 80 61 00
        E 0 90 1a 60
        E 0 90 61 60
        E 120 80 19 00
        E 0 80 1a 00
        E 0 80 61 00
        E 0 90 18 60
        E 0 90 1b 60
        E 0 90 3d 60
        E 0 90 49 60
        E 0 90 54 60
        E 0 90 55 60
        E 0 90 60 60
        E 0 90 61 60
        E 120 80 18 00
        E 0 80 1b 00
        E 0 80 3d 00
        E 0 80 49 00
        E 0 80 54 00
        E 0 80 55 00
        E 0 80 60 00
        E 0 80 61 00
        E 0 90 1a 60
        E 0 90 61 60
        E 120 80 1a 00
        E 0 80 61 00
        E 0 90 19 60
        E 0 90 1b 60
        E 0 90 55 60
        E 0 90 61 60
        E 120 80 1b 00
        E 0 80 55 00
        E 0 80 61 00
        E 0 90 1a 60
        E 0 90 61 60
        E 120 80 19 00
        E 0 80 1a 00
        E 0 80 61 00
        E 0 90 18 60
        E 0 90 1b 60
        E 0 90 3d 60
        E 0 90 49 60
        E 0 90 54 60
        E 0 90 55 60
        E 0 90 60 60
        E 0 90 61 60
        E 120 80 18 00
        E 0 80 1b 00
        E 0 80 3d 00
        E 0 80 49 00
        E 0 80 54 00
        E 0 80 55 00
        E 0 80 60 00
        E 0 80 61 00
        E 0 90 1a 60
        E 0 90 61 60
        E 120 80 1a 00
        E 0 80 61 00
        E 0 90 19 60
        E 0 90 1b 60
        E 0 90 55 60
        E 0 90 61 60
        E 120 80 1b 00
        E 0 80 55 00
        E 0 80 61 00
        E 0 90 1a 60
        E 0 90 61 60
        <X 120 0
          /wFbaW50ZW5zZV0=
        >
        E 0 80 78 00
        E 0 80 79 00
        E 0 80 7a 00
        E 0 80 7b 00
        E 0 80 7c 00
        E 0 80 19 00
        E 0 80 1a 00
        E 0 80 61 00
        E 0 90 18 60
        E 0 90 24 60
        E 0 90 40 60
        E 0 90 48 60
        E 0 90 4c 60
        E 0 90 54 60
        E 0 90 58 60
        E 0 90 60 60
        E 0 90 64 60
        E 120 80 18 00
        E 0 80 24 00
        E 0 80 40 00
        E 0 80 48 00
        E 0 80 4c 00
        E 0 80 54 00
        E 0 80 58 00
        E 0 80 60 00
        E 0 80 64 00
        E 120 90 18 60
        E 0 90 19 60
        E 0 90 24 60
        E 0 90 54 60
        E 0 90 58 60
        E 0 90 60 60
        E 0 90 64 60
        E 120 80 18 00
        E 0 80 24 00
        E 0 80 54 00
        E 0 80 58 00
        E 0 80 60 00
        E 0 80 64 00
        E 120 80 19 00
        E 0 90 1a 60
        E 0 90 24 60
        E 0 90 3d 60
        E 0 90 40 60
        E 0 90 49 60
        E 0 90 4c 60
        E 0 90 55 60
        E 0 90 58 60
        E 0 90 61 60
        E 0 90 64 60
        E 120 80 1a 00
        E 0 80 24 00
        E 0 80 3d 00
        E 0 80 40 00
        E 0 80 49 00
        E 0 80 4c 00
        E 0 80 55 00
        E 0 80 58 00
        E 0 80 61 00
        E 0 80 64 00
        E 120 90 19 60
        E 0 90 24 60
        E 0 90 58 60
        E 0 90 64 60
        E 120 80 24 00
        E 0 80 58 00
        E 0 80 64 00
        E 120 80 19 00
        E 0 90 18 60
        E 0 90 24 60
        E 0 90 40 60
        E 0 90 48 60
        E 0 90 4c 60
        E 0 90 54 60
        E 0 90 58 60
        E 0 90 60 60
        E 0 90 64 60
        E 120 80 18 00
        E 0 80 24 00
        E 0 80 40 00
        E 0 80 48 00
        E 0 80 4c 00
        E 0 80 54 00
        E 0 80 58 00
        E 0 80 60 00
        E 0 80 64 00
        E 120 90 18 60
        E 0 90 19 60
        E 0 90 24 60
        E 0 90 54 60
        E 0 90 58 60
        E 0 90 60 60
        E 0 90 64 60
        E 120 80 18 00
        E 0 80 24 00
        E 0 80 54 00
        E 0 80 58 00
        E 0 80 60 00
        E 0 80 64 00
        E 120 80 19 00
        E 0 90 1a 60
        E 0 90 24 60
        E 0 90 3d 60
        E 0 90 40 60
        E 0 90 49 60
        E 0 90 4c 60
        E 0 90 55 60
        E 0 90 58 60
        E 0 90 61 60
        E 0 90 64 60
        E 120 80 1a 00
        E 0 80 24 00
        E 0 80 3d 00
        E 0 80 40 00
        E 0 80 49 00
        E 0 80 4c 00
        E 0 80 55 00
        E 0 80 58 00
        E 0 80 61 00
        E 0 80 64 00
        E 120 90 19 60
        E 0 90 24 60
        E 0 90 58 60
        E 0 90 64 60
        E 120 80 24 00
        E 0 80 58 00
        E 0 80 64 00
        E 120 80 19 00
        E 0 90 18 60
        E 0 90 24 60
        E 0 90 40 60
        E 0 90 48 60
        E 0 90 4c 60
        E 0 90 54 60
        E 0 90 58 60
        E 0 90 60 60
        E 0 90 64 60
        E 120 80 18 00
        E 0 80 24 00
        E 0 80 40 00
        E 0 80 48 00
        E 0 80 4c 00
        E 0 80 54 00
        E 0 80 58 00
        E 0 80 60 00
        E 0 80 64 00
        E 120 90 18 60
        E 0 90 19 60
        E 0 90 24 60
        E 0 90 54 60
        E 0 90 58 60
        E 0 90 60 60
        E 0 90 64 60
        E 120 80 18 00
        E 0 80 24 00
        E 0 80 54 00
        E 0 80 58 00
        E 0 80 60 00
        E 0 80 64 00
        E 120 80 19 00
        E 0 90 1a 60
        E 0 90 24 60
        E 0 90 3d 60
        E 0 90 40 60
        E 0 90 49 60
        E 0 90 4c 60
        E 0 90 55 60
        E 0 90 58 60
        E 0 90 61 60
        E 0 90 64 60
        E 120 80 1a 00
        E 0 80 24 00
        E 0 80 3d 00
        E 0 80 40 00
        E 0 80 49 00
        E 0 80 4c 00
        E 0 80 55 00
        E 0 80 58 00
        E 0 80 61 00
        E 0 80 64 00
        E 120 90 19 60
        E 0 90 24 60
        E 0 90 58 60
        E 0 90 64 60
        E 120 80 24 00
        E 0 80 58 00
        E 0 80 64 00
        E 120 80 19 00
        E 0 90 18 60
        E 0 90 24 60
        E 0 90 40 60
        E 0 90 48 60
        E 0 90 4c 60
        E 0 90 54 60
        E 0 90 58 60
        E 0 90 60 60
        E 0 90 64 60
        E 120 80 18 00
        E 0 80 24 00
        E 0 80 40 00
        E 0 80 48 00
        E 0 80 4c 00
        E 0 80 54 00
        E 0 80 58 00
        E 0 80 60 00
        E 0 80 64 00
        E 120 90 18 60
        E 0 90 19 60
        E 0 90 24 60
        E 0 90 54 60
        E 0 90 58 60
        E 0 90 60 60
        E 0 90 64 60
        E 120 80 18 00
        E 0 80 24 00
        E 0 80 54 00
        E 0 80 58 00
        E 0 80 60 00
        E 0 80 64 00
        E 120 80 19 00
        E 0 90 1a 60
        E 0 90 24 60
        E 0 90 3d 60
        E 0 90 40 60
        E 0 90 49 60
        E 0 90 4c 60
        E 0 90 55 60
        E 0 90 58 60
        E 0 90 61 60
        E 0 90 64 60
        E 120 80 1a 00
        E 0 80 24 00
        E 0 80 3d 00
        E 0 80 40 00
        E 0 80 49 00
        E 0 80 4c 00
        E 0 80 55 00
        E 0 80 58 00
        E 0 80 61 00
        E 0 80 64 00
        E 120 90 19 60
        E 0 90 1e 60
        E 0 90 24 60
        E 0 90 56 60
        E 0 90 58 60
        E 0 90 62 60
        E 0 90 64 60
        E 120 80 1e 00
        E 0 80 24 00
        E 0 80 56 00
        E 0 80 58 00
        E 0 80 62 00
        E 0 80 64 00
        E 120 80 19 00
        E 0 90 18 60
        E 0 90 24 60
        E 0 90 40 60
        E 0 90 48 60
        E 0 90 4c 60
        E 0 90 54 60
        E 0 90 58 60
        E 0 90 60 60
        E 0 90 64 60
        E 120 80 18 00
        E 0 80 24 00
        E 0 80 40 00
        E 0 80 48 00
        E 0 80 4c 00
        E 0 80 54 00
        E 0 80 58 00
        E 0 80 60 00
        E 0 80 64 00
        E 120 90 18 60
        E 0 90 19 60
        E 0 90 24 60
        E 0 90 54 60
        E 0 90 58 60
        E 0 90 60 60
        E 0 90 64 60
        E 120 80 18 00
        E 0 80 24 00
        E 0 80 54 00
        E 0 80 58 00
        E 0 80 60 00
        E 0 80 64 00
        E 120 80 19 00
        E 0 90 1a 60
        E 0 90 24 60
        E 0 90 3d 60
        E 0 90 40 60
        E 0 90 49 60
        E 0 90 4c 60
        E 0 90 55 60
        E 0 90 58 60
        E 0 90 61 60
        E 0 90 64 60
        E 120 80 1a 00
        E 0 80 24 00
        E 0 80 3d 00
        E 0 80 40 00
        E 0 80 49 00
        E 0 80 4c 00
        E 0 80 55 00
        E 0 80 58 00
        E 0 80 61 00
        E 0 80 64 00
        E 120 90 19 60
        E 0 90 24 60
        E 0 90 58 60
        E 0 90 64 60
        E 120 80 24 00
        E 0 80 58 00
        E 0 80 64 00
        E 120 80 19 00
        E 0 90 18 60
        E 0 90 24 60
        E 0 90 40 60
        E 0 90 48 60
        E 0 90 4c 60
        E 0 90 54 60
        E 0 90 58 60
        E 0 90 60 60
        E 0 90 64 60
        E 120 80 18 00
        E 0 80 24 00
        E 0 80 40 00
        E 0 80 48 00
        E 0 80 4c 00
        E 0 80 54 00
        E 0 80 58 00
        E 0 80 60 00
        E 0 80 64 00
        E 120 90 18 60
        E 0 90 19 60
        E 0 90 24 60
        E 0 90 54 60
        E 0 90 58 60
        E 0 90 60 60
        E 0 90 64 60
        E 120 80 18 00
        E 0 80 24 00
        E 0 80 54 00
        E 0 80 58 00
        E 0 80 60 00
        E 0 80 64 00
        E 120 80 19 00
        E 0 90 1a 60
        E 0 90 24 60
        E 0 90 3d 60
        E 0 90 40 60
        E 0 90 49 60
        E 0 90 4c 60
        E 0 90 55 60
        E 0 90 58 60
        E 0 90 61 60
        E 0 90 64 60
        E 120 80 1a 00
        E 0 80 24 00
        E 0 80 3d 00
        E 0 80 40 00
        E 0 80 49 00
        E 0 80 4c 00
        E 0 80 55 00
        E 0 80 58 00
        E 0 80 61 00
        E 0 80 64 00
        E 120 90 19 60
        E 0 90 24 60
        E 0 90 58 60
        E 0 90 64 60
        E 120 80 24 00
        E 0 80 58 00
        E 0 80 64 00
        E 120 80 19 00
        E 0 90 18 60
        E 0 90 24 60
        E 0 90 40 60
        E 0 90 48 60
        E 0 90 4c 60
        E 0 90 54 60
        E 0 90 58 60
        E 0 90 60 60
        E 0 90 64 60
        E 0 90 78 60
        E 0 90 79 60
        E 0 90 7a 60
        E 0 90 7b 60
        E 0 90 7c 60
        E 120 80 18 00
        E 0 80 24 00
        E 0 80 40 00
        E 0 80 48 00
        E 0 80 4c 00
        E 0 80 54 00
        E 0 80 58 00
        E 0 80 60 00
        E 0 80 64 00
        E 120 90 18 60
        E 0 90 19 60
        E 0 90 24 60
        E 0 90 54 60
        E 0 90 58 60
        E 0 90 60 60
        E 0 90 64 60
        E 120 80 18 00
        E 0 80 24 00
        E 0 80 54 00
        E 0 80 58 00
        E 0 80 60 00
        E 0 80 64 00
        E 120 80 19 00
        E 0 90 1a 60
        E 0 90 24 60
        E 0 90 3d 60
        E 0 90 40 60
        E 0 90 49 60
        E 0 90 4c 60
        E 0 90 55 60
        E 0 90 58 60
        E 0 90 61 60
        E 0 90 64 60
        E 120 80 1a 00
        E 0 80 24 00
        E 0 80 3d 00
        E 0 80 40 00
        E 0 80 49 00
        E 0 80 4c 00
        E 0 80 55 00
        E 0 80 58 00
        E 0 80 61 00
        E 0 80 64 00
        E 120 90 19 60
        E 0 90 24 60
        E 0 90 58 60
        E 0 90 64 60
        E 120 80 24 00
        E 0 80 58 00
        E 0 80 64 00
        E 120 80 19 00
        E 0 90 18 60
        E 0 90 24 60
        E 0 90 40 60
        E 0 90 48 60
        E 0 90 4c 60
        E 0 90 54 60
        E 0 90 58 60
        E 0 90 60 60
        E 0 90 64 60
        E 120 80 18 00
        E 0 80 24 00
        E 0 80 40 00
        E 0 80 48 00
        E 0 80 4c 00
        E 0 80 54 00
        E 0 80 58 00
        E 0 80 60 00
        E 0 80 64 00
        E 120 90 18 60
        E 0 90 19 60
        E 0 90 24 60
        E 0 90 54 60
        E 0 90 58 60
        E 0 90 60 60
        E 0 90 64 60
        E 120 80 18 00
        E 0 80 24 00
        E 0 80 54 00
        E 0 80 58 00
        E 0 80 60 00
        E 0 80 64 00
        E 120 80 19 00
        E 0 90 1a 60
        E 0 90 24 60
        E 0 90 3d 60
        E 0 90 40 60
        E 0 90 49 60
        E 0 90 4c 60
        E 0 90 55 60
        E 0 90 58 60
        E 0 90 61 60
        E 0 90 64 60
        E 120 80 1a 00
        E 0 80 24 00
        E 0 80 3d 00
        E 0 80 40 00
        E 0 80 49 00
        E 0 80 4c 00
        E 0 80 55 00
        E 0 80 58 00
        E 0 80 61 00
        E 0 80 64 00
        E 120 90 19 60
        E 0 90 1e 60
        E 0 90 24 60
        E 0 90 56 60
        E 0 90 58 60
        E 0 90 62 60
        E 0 90 64 60
        E 120 80 1e 00
        E 0 80 24 00
        E 0 80 56 00
        E 0 80 58 00
        E 0 80 62 00
        E 0 80 64 00
        E 120 80 78 00
        E 0 80 79 00
        E 0 80 7a 00
        E 0 80 7b 00
        E 0 80 7c 00
        E 0 80 19 00
        E 0 90 18 60
        E 0 90 24 60
        E 0 90 40 60
        E 0 90 48 60
        E 0 90 4c 60
        E 0 90 54 60
        E 0 90 58 60
        E 0 90 60 60
        E 0 90 64 60
        E 0 90 74 60
        E 120 80 18 00
        E 0 80 24 00
        E 0 80 40 00
        E 0 80 48 00
        E 0 80 4c 00
        E 0 80 54 00
        E 0 80 58 00
        E 0 80 60 00
        E 0 80 64 00
        E 120 90 18 60
        E 0 90 19 60
        E 0 90 24 60
        E 0 90 54 60
        E 0 90 58 60
        E 0 90 60 60
        E 0 90 64 60
        E 120 80 18 00
        E 0 80 24 00
        E 0 80 54 00
        E 0 80 58 00
        E 0 80 60 00
        E 0 80 64 00
        E 120 80 19 00
        E 0 90 1a 60
        E 0 90 24 60
        E 0 90 3d 60
        E 0 90 40 60
        E 0 90 49 60
        E 0 90 4c 60
        E 0 90 55 60
        E 0 90 58 60
        E 0 90 61 60
        E 0 90 64 60
        E 120 80 1a 00
        E 0 80 24 00
        E 0 80 3d 00
        E 0 80 40 00
        E 0 80 49 00
        E 0 80 4c 00
        E 0 80 55 00
        E 0 80 58 00
        E 0 80 61 00
        E 0 80 64 00
        E 120 90 19 60
        E 0 90 24 60
        E 0 90 58 60
        E 0 90 64 60
        E 120 80 24 00
        E 0 80 58 00
        E 0 80 64 00
        E 120 80 19 00
        E 0 90 18 60
        E 0 90 24 60
        E 0 90 40 60
        E 0 90 48 60
        E 0 90 4c 60
        E 0 90 54 60
        E 0 90 58 60
        E 0 90 60 60
        E 0 90 64 60
        E 120 80 18 00
        E 0 80 24 00
        E 0 80 40 00
        E 0 80 48 00
        E 0 80 4c 00
        E 0 80 54 00
        E 0 80 58 00
        E 0 80 60 00
        E 0 80 64 00
        E 120 90 18 60
        E 0 90 19 60
        E 0 90 24 60
        E 0 90 54 60
        E 0 90 58 60
        E 0 90 60 60
        E 0 90 64 60
        E 120 80 18 00
        E 0 80 24 00
        E 0 80 54 00
        E 0 80 58 00
        E 0 80 60 00
        E 0 80 64 00
        E 120 80 19 00
        E 0 90 1a 60
        E 0 90 24 60
        E 0 90 3d 60
        E 0 90 40 60
        E 0 90 49 60
        E 0 90 4c 60
        E 0 90 55 60
        E 0 90 58 60
        E 0 90 61 60
        E 0 90 64 60
        E 120 80 1a 00
        E 0 80 24 00
        E 0 80 3d 00
        E 0 80 40 00
        E 0 80 49 00
        E 0 80 4c 00
        E 0 80 55 00
        E 0 80 58 00
        E 0 80 61 00
        E 0 80 64 00
        E 120 90 19 60
        E 0 90 24 60
        E 0 90 58 60
        E 0 90 64 60
        E 120 80 24 00
        E 0 80 58 00
        E 0 80 64 00
        E 120 80 19 00
        E 0 90 18 60
        E 0 90 24 60
        E 0 90 40 60
        E 0 90 48 60
        E 0 90 4c 60
        E 0 90 54 60
        E 0 90 58 60
        E 0 90 60 60
        E 0 90 64 60
        E 120 80 18 00
        E 0 80 24 00
        E 0 80 40 00
        E 0 80 48 00
        E 0 80 4c 00
        E 0 80 54 00
        E 0 80 58 00
        E 0 80 60 00
        E 0 80 64 00
        E 120 90 18 60
        E 0 90 19 60
        E 0 90 24 60
        E 0 90 54 60
        E 0 90 58 60
        E 0 90 60 60
        E 0 90 64 60
        E 120 80 18 00
        E 0 80 24 00
        E 0 80 54 00
        E 0 80 58 00
        E 0 80 60 00
        E 0 80 64 00
        E 120 80 19 00
        E 0 90 1a 60
        E 0 90 24 60
        E 0 90 3d 60
        E 0 90 40 60
        E 0 90 49 60
        E 0 90 4c 60
        E 0 90 55 60
        E 0 90 58 60
        E 0 90 61 60
        E 0 90 64 60
        E 120 80 1a 00
        E 0 80 24 00
        E 0 80 3d 00
        E 0 80 40 00
        E 0 80 49 00
        E 0 80 4c 00
        E 0 80 55 00
        E 0 80 58 00
        E 0 80 61 00
        E 0 80 64 00
        E 120 90 19 60
        E 0 90 24 60
        E 0 90 58 60
        E 0 90 64 60
        E 120 80 24 00
        E 0 80 58 00
        E 0 80 64 00
        E 120 80 19 00
        E 0 90 18 60
        E 0 90 24 60
        E 0 90 40 60
        E 0 90 48 60
        E 0 90 4c 60
        E 0 90 54 60
        E 0 90 58 60
        E 0 90 60 60
        E 0 90 64 60
        E 120 80 18 00
        E 0 80 24 00
        E 0 80 40 00
        E 0 80 48 00
        E 0 80 4c 00
        E 0 80 54 00
        E 0 80 58 00
        E 0 80 60 00
        E 0 80 64 00
        E 120 90 18 60
        E 0 90 19 60
        E 0 90 24 60
        E 0 90 54 60
        E 0 90 58 60
        E 0 90 60 60
        E 0 90 64 60
        E 120 80 18 00
        E 0 80 24 00
        E 0 80 54 00
        E 0 80 58 00
        E 0 80 60 00
        E 0 80 64 00
        E 120 80 19 00
        E 0 90 1a 60
        E 0 90 24 60
        E 0 90 3d 60
        E 0 90 40 60
        E 0 90 49 60
        E 0 90 4c 60
        E 0 90 55 60
        E 0 90 58 60
        E 0 90 61 60
        E 0 90 64 60
        E 120 80 1a 00
        E 0 80 24 00
        E 0 80 3d 00
        E 0 80 40 00
        E 0 80 49 00
        E 0 80 4c 00
        E 0 80 55 00
        E 0 80 58 00
        E 0 80 61 00
        E 0 80 64 00
        E 120 90 19 60
        E 0 90 1e 60
        E 0 90 24 60
        E 0 90 56 60
        E 0 90 58 60
        E 0 90 62 60
        E 0 90 64 60
        E 120 80 1e 00
        E 0 80 24 00
        E 0 80 56 00
        E 0 80 58 00
        E 0 80 62 00
        E 0 80 64 00
        E 120 80 74 00
        E 0 80 19 00
        E 0 90 18 60
        E 0 90 24 60
        E 0 90 40 60
        E 0 90 48 60
        E 0 90 4c 60
        E 0 90 54 60
        E 0 90 58 60
        E 0 90 60 60
        E 0 90 64 60
        E 120 80 18 00
        E 0 80 24 00
        E 0 80 40 00
        E 0 80 48 00
        E 0 80 4c 00
        E 0 80 54 00
        E 0 80 58 00
        E 0 80 60 00
        E 0 80 64 00
        E 120 90 18 60
        E 0 90 19 60
        E 0 90 24 60
        E 0 90 54 60
        E 0 90 58 60
        E 0 90 60 60
        E 0 90 64 60
        E 120 80 18 00
        E 0 80 24 00
        E 0 80 54 00
        E 0 80 58 00
        E 0 80 60 00
        E 0 80 64 00
        E 120 80 19 00
        E 0 90 1a 60
        E 0 90 24 60
        E 0 90 3d 60
        E 0 90 40 60
        E 0 90 49 60
        E 0 90 4c 60
        E 0 90 55 60
        E 0 90 58 60
        E 0 90 61 60
        E 0 90 64 60
        E 120 80 1a 00
        E 0 80 24 00
        E 0 80 3d 00
        E 0 80 40 00
        E 0 80 49 00
        E 0 80 4c 00
        E 0 80 55 00
        E 0 80 58 00
        E 0 80 61 00
        E 0 80 64 00
        E 120 90 19 60
        E 0 90 24 60
        E 0 90 58 60
        E 0 90 64 60
        E 120 80 24 00
        E 0 80 58 00
        E 0 80 64 00
        E 120 80 19 00
        E 0 90 18 60
        E 0 90 24 60
        E 0 90 40 60
        E 0 90 48 60
        E 0 90 4c 60
        E 0 90 54 60
        E 0 90 58 60
        E 0 90 60 60
        E 0 90 64 60
        E 120 80 18 00
        E 0 80 24 00
        E 0 80 40 00
        E 0 80 48 00
        E 0 80 4c 00
        E 0 80 54 00
        E 0 80 58 00
        E 0 80 60 00
        E 0 80 64 00
        E 120 90 18 60
        E 0 90 19 60
        E 0 90 24 60
        E 0 90 54 60
        E 0 90 58 60
        E 0 90 60 60
        E 0 90 64 60
        E 120 80 18 00
        E 0 80 24 00
        E 0 80 54 00
        E 0 80 58 00
        E 0 80 60 00
        E 0 80 64 00
        E 120 80 19 00
        E 0 90 1a 60
        E 0 90 24 60
        E 0 90 3d 60
        E 0 90 40 60
        E 0 90 49 60
        E 0 90 4c 60
        E 0 90 55 60
        E 0 90 58 60
        E 0 90 61 60
        E 0 90 64 60
        E 120 80 1a 00
        E 0 80 24 00
        E 0 80 3d 00
        E 0 80 40 00
        E 0 80 49 00
        E 0 80 4c 00
        E 0 80 55 00
        E 0 80 58 00
        E 0 80 61 00
        E 0 80 64 00
        E 120 90 19 60
        E 0 90 24 60
        E 0 90 58 60
        E 0 90 64 60
        E 120 80 24 00
        E 0 80 58 00
        E 0 80 64 00
        E 120 80 19 00
        E 0 90 18 60
        E 0 90 24 60
        E 0 90 40 60
        E 0 90 48 60
        E 0 90 4c 60
        E 0 90 54 60
        E 0 90 58 60
        E 0 90 60 60
        E 0 90 64 60
        E 0 90 78 60
        E 0 90 79 60
        E 0 90 7a 60
        E 0 90 7b 60
        E 0 90 7c 60
        E 120 80 18 00
        E 0 80 24 00
        E 0 80 40 00
        E 0 80 48 00
        E 0 80 4c 00
        E 0 80 54 00
        E 0 80 58 00
        E 0 80 60 00
        E 0 80 64 00
        E 120 90 18 60
        E 0 90 19 60
        E 0 90 24 60
        E 0 90 54 60
        E 0 90 58 60
        E 0 90 60 60
        E 0 90 64 60
        E 120 80 18 00
        E 0 80 24 00
        E 0 80 54 00
        E 0 80 58 00
        E 0 80 60 00
        E 0 80 64 00
        E 120 80 19 00
        E 0 90 1a 60
        E 0 90 24 60
        E 0 90 3d 60
        E 0 90 40 60
        E 0 90 49 60
        E 0 90 4c 60
        E 0 90 55 60
        E 0 90 58 60
        E 0 90 61 60
        E 0 90 64 60
        E 120 80 1a 00
        E 0 80 24 00
        E 0 80 3d 00
        E 0 80 40 00
        E 0 80 49 00
        E 0 80 4c 00
        E 0 80 55 00
        E 0 80 58 00
        E 0 80 61 00
        E 0 80 64 00
        E 120 90 19 60
        E 0 90 24 60
        E 0 90 58 60
        E 0 90 64 60
        E 120 80 24 00
        E 0 80 58 00
        E 0 80 64 00
        E 120 80 19 00
        E 0 90 18 60
        E 0 90 24 60
        E 0 90 40 60
        E 0 90 48 60
        E 0 90 4c 60
        E 0 90 54 60
        E 0 90 58 60
        E 0 90 60 60
        E 0 90 64 60
        E 120 80 18 00
        E 0 80 24 00
        E 0 80 40 00
        E 0 80 48 00
        E 0 80 4c 00
        E 0 80 54 00
        E 0 80 58 00
        E 0 80 60 00
        E 0 80 64 00
        E 120 90 18 60
        E 0 90 19 60
        E 0 90 24 60
        E 0 90 54 60
        E 0 90 58 60
        E 0 90 60 60
        E 0 90 64 60
        E 120 80 18 00
        E 0 80 24 00
        E 0 80 54 00
        E 0 80 58 00
        E 0 80 60 00
        E 0 80 64 00
        E 120 80 19 00
        E 0 90 1b 60
        E 0 90 3d 60
        E 0 90 49 60
        E 0 90 55 60
        E 0 90 61 60
        E 120 80 1b 00
        E 0 80 3d 00
        E 0 80 49 00
        E 0 80 55 00
        E 0 80 61 00
        E 0 90 1a 60
        E 0 90 61 60
        E 120 80 1a 00
        E 0 80 61 00
        E 0 90 19 60
        E 0 90 1b 60
        E 0 90 55 60
        E 0 90 61 60
        E 120 80 1b 00
        E 0 80 55 00
        E 0 80 61 00
        E 0 90 1a 60
        E 0 90 61 60
        <X 120 0
          /wFbcGxheV0=
        >
        E 0 80 78 00
        E 0 80 79 00
        E 0 80 7a 00
        E 0 80 7b 00
        E 0 80 7c 00
        E 0 80 19 00
        E 0 80 1a 00
        E 0 80 61 00
        E 0 90 18 60
        E 0 90 1f 60
        E 0 90 3e 60
        E 0 90 48 60
        E 0 90 4a 60
        E 0 90 54 60
        E 0 90 56 60
        E 0 90 60 60
        E 0 90 62 60
        E 120 80 18 00
        E 0 80 1f 00
        E 0 80 3e 00
        E 0 80 48 00
        E 0 80 4a 00
        E 0 80 54 00
        E 0 80 56 00
        E 0 80 60 00
        E 0 80 62 00
        E 120 90 18 60
        E 0 90 1f 60
        E 0 90 54 60
        E 0 90 56 60
        E 0 90 60 60
        E 0 90 62 60
        E 120 80 18 00
        E 0 80 1f 00
        E 0 80 54 00
        E 0 80 56 00
        E 0 80 60 00
        E 0 80 62 00
        E 120 90 1a 60
        E 0 90 1f 60
        E 0 90 3d 60
        E 0 90 3e 60
        E 0 90 49 60
        E 0 90 4a 60
        E 0 90 55 60
        E 0 90 56 60
        E 0 90 61 60
        E 0 90 62 60
        E 120 80 1a 00
        E 0 80 1f 00
        E 0 80 3d 00
        E 0 80 3e 00
        E 0 80 49 00
        E 0 80 4a 00
        E 0 80 55 00
        E 0 80 56 00
        E 0 80 61 00
        E 0 80 62 00
        E 120 90 1f 60
        E 0 90 56 60
        E 0 90 62 60
        E 120 80 1f 00
        E 0 80 56 00
        E 0 80 62 00
        E 120 90 18 60
        E 0 90 1f 60
        E 0 90 3e 60
        E 0 90 48 60
        E 0 90 4a 60
        E 0 90 54 60
        E 0 90 56 60
        E 0 90 60 60
        E 0 90 62 60
        E 120 80 18 00
        E 0 80 1f 00
        E 0 80 3e 00
        E 0 80 48 00
        E 0 80 4a 00
        E 0 80 54 00
        E 0 80 56 00
        E 0 80 60 00
        E 0 80 62 00
        E 120 90 18 60
        E 0 90 1f 60
        E 0 90 54 60
        E 0 90 56 60
        E 0 90 60 60
        E 0 90 62 60
        E 120 80 18 00
        E 0 80 1f 00
        E 0 80 54 00
        E 0 80 56 00
        E 0 80 60 00
        E 0 80 62 00
        E 120 90 1a 60
        E 0 90 1f 60
        E 0 90 3d 60
        E 0 90 3e 60
        E 0 90 49 60
        E 0 90 4a 60
        E 0 90 55 60
        E 0 90 56 60
        E 0 90 61 60
        E 0 90 62 60
        E 120 80 1a 00
        E 0 80 1f 00
        E 0 80 3d 00
        E 0 80 3e 00
        E 0 80 49 00
        E 0 80 4a 00
        E 0 80 55 00
        E 0 80 56 00
        E 0 80 61 00
        E 0 80 62 00
        E 120 90 1f 60
        E 0 90 56 60
        E 0 90 62 60
        E 120 80 1f 00
        E 0 80 56 00
        E 0 80 62 00
        E 120 90 18 60
        E 0 90 1f 60
        E 0 90 3e 60
        E 0 90 48 60
        E 0 90 4a 60
        E 0 90 54 60
        E 0 90 56 60
        E 0 90 60 60
        E 0 90 62 60
        E 120 80 18 00
        E 0 80 1f 00
        E 0 80 3e 00
        E 0 80 48 00
        E 0 80 4a 00
        E 0 80 54 00
        E 0 80 56 00
        E 0 80 60 00
        E 0 80 62 00
        E 120 90 18 60
        E 0 90 1f 60
        E 0 90 54 60
        E 0 90 56 60
        E 0 90 60 60
        E 0 90 62 60
        E 120 80 18 00
        E 0 80 1f 00
        E 0 80 54 00
        E 0 80 56 00
        E 0 80 60 00
        E 0 80 62 00
        E 120 90 1a 60
        E 0 90 1f 60
        E 0 90 3d 60
        E 0 90 3e 60
        E 0 90 49 60
        E 0 90 4a 60
        E 0 90 55 60
        E 0 90 56 60
        E 0 90 61 60
        E 0 90 62 60
        E 120 80 1a 00
        E 0 80 1f 00
        E 0 80 3d 00
        E 0 80 3e 00
        E 0 80 49 00
        E 0 80 4a 00
        E 0 80 55 00
        E 0 80 56 00
        E 0 80 61 00
        E 0 80 62 00
        E 120 90 1f 60
        E 0 90 56 60
        E 0 90 62 60
        E 120 80 1f 00
        E 0 80 56 00
        E 0 80 62 00
        E 120 90 18 60
        E 0 90 1f 60
        E 0 90 3e 60
        E 0 90 48 60
        E 0 90 4a 60
        E 0 90 54 60
        E 0 90 56 60
        E 0 90 60 60
        E 0 90 62 60
        E 120 80 18 00
        E 0 80 1f 00
        E 0 80 3e 00
        E 0 80 48 00
        E 0 80 4a 00
        E 0 80 54 00
        E 0 80 56 00
        E 0 80 60 00
        E 0 80 62 00
        E 120 90 18 60
        E 0 90 1f 60
        E 0 90 54 60
        E 0 90 56 60
        E 0 90 60 60
        E 0 90 62 60
        E 120 80 18 00
        E 0 80 1f 00
        E 0 80 54 00
        E 0 80 56 00
        E 0 80 60 00
        E 0 80 62 00
        E 120 90 1a 60
        E 0 90 1f 60
        E 0 90 3d 60
        E 0 90 3e 60
        E 0 90 49 60
        E 0 90 4a 60
        E 0 90 55 60
        E 0 90 56 60
        E 0 90 61 60
        E 0 90 62 60
        E 120 80 1a 00
        E 0 80 1f 00
        E 0 80 3d 00
        E 0 80 3e 00
        E 0 80 49 00
        E 0 80 4a 00
        E 0 80 55 00
        E 0 80 56 00
        E 0 80 61 00
        E 0 80 62 00
        E 120 90 19 60
        E 0 90 1f 60
        E 0 90 57 60
        E 0 90 63 60
        E 120 80 1f 00
        E 0 80 57 00
        E 0 80 63 00
        E 120 80 19 00
        E 0 90 18 60
        E 0 90 1f 60
        E 0 90 3e 60
        E 0 90 48 60
        E 0 90 4a 60
        E 0 90 54 60
        E 0 90 56 60
        E 0 90 60 60
        E 0 90 62 60
        E 120 80 18 00
        E 0 80 1f 00
        E 0 80 3e 00
        E 0 80 48 00
        E 0 80 4a 00
        E 0 80 54 00
        E 0 80 56 00
        E 0 80 60 00
        E 0 80 62 00
        E 120 90 18 60
        E 0 90 1f 60
        E 0 90 54 60
        E 0 90 56 60
        E 0 90 60 60
        E 0 90 62 60
        E 120 80 18 00
        E 0 80 1f 00
        E 0 80 54 00
        E 0 80 56 00
        E 0 80 60 00
        E 0 80 62 00
        E 120 90 1a 60
        E 0 90 1f 60
        E 0 90 3d 60
        E 0 90 3e 60
        E 0 90 49 60
        E 0 90 4a 60
        E 0 90 55 60
        E 0 90 56 60
        E 0 90 61 60
        E 0 90 62 60
        E 120 80 1a 00
        E 0 80 1f 00
        E 0 80 3d 00
        E 0 80 3e 00
        E 0 80 49 00
        E 0 80 4a 00
        E 0 80 55 00
        E 0 80 56 00
        E 0 80 61 00
        E 0 80 62 00
        E 120 90 1f 60
        E 0 90 56 60
        E 0 90 62 60
        E 120 80 1f 00
        E 0 80 56 00
        E 0 80 62 00
        E 120 90 18 60
        E 0 90 1f 60
        E 0 90 3e 60
        E 0 90 48 60
        E 0 90 4a 60
        E 0 90 54 60
        E 0 90 56 60
        E 0 90 60 60
        E 0 90 62 60
        E 120 80 18 00
        E 0 80 1f 00
        E 0 80 3e 00
        E 0 80 48 00
        E 0 80 4a 00
        E 0 80 54 00
        E 0 80 56 00
        E 0 80 60 00
        E 0 80 62 00
        E 120 90 18 60
        E 0 90 1f 60
        E 0 90 54 60
        E 0 90 56 60
        E 0 90 60 60
        E 0 90 62 60
        E 120 80 18 00
        E 0 80 1f 00
        E 0 80 54 00
        E 0 80 56 00
        E 0 80 60 00
        E 0 80 62 00
        E 120 90 1a 60
        E 0 90 1f 60
        E 0 90 3d 60
        E 0 90 3e 60
        E 0 90 49 60
        E 0 90 4a 60
        E 0 90 55 60
        E 0 90 56 60
        E 0 90 61 60
        E 0 90 62 60
        E 120 80 1a 00
        E 0 80 1f 00
        E 0 80 3d 00
        E 0 80 3e 00
        E 0 80 49 00
        E 0 80 4a 00
        E 0 80 55 00
        E 0 80 56 00
        E 0 80 61 00
        E 0 80 62 00
        E 120 90 1f 60
        E 0 90 56 60
        E 0 90 62 60
        E 120 80 1f 00
        E 0 80 56 00
        E 0 80 62 00
        E 120 90 18 60
        E 0 90 1f 60
        E 0 90 3e 60
        E 0 90 48 60
        E 0 90 4a 60
        E 0 90 54 60
        E 0 90 56 60
        E 0 90 60 60
        E 0 90 62 60
        E 0 90 78 60
        E 0 90 79 60
        E 0 90 7a 60
        E 0 90 7b 60
        E 0 90 7c 60
        E 120 80 18 00
        E 0 80 1f 00
        E 0 80 3e 00
        E 0 80 48 00
        E 0 80 4a 00
        E 0 80 54 00
        E 0 80 56 00
        E 0 80 60 00
        E 0 80 62 00
        E 120 90 18 60
        E 0 90 1f 60
        E 0 90 54 60
        E 0 90 56 60
        E 0 90 60 60
        E 0 90 62 60
        E 120 80 18 00
        E 0 80 1f 00
        E 0 80 54 00
        E 0 80 56 00
        E 0 80 60 00
        E 0 80 62 00
        E 120 90 1a 60
        E 0 90 1f 60
        E 0 90 3d 60
        E 0 90 3e 60
        E 0 90 49 60
        E 0 90 4a 60
        E 0 90 55 60
        E 0 90 56 60
        E 0 90 61 60
        E 0 90 62 60
        E 120 80 1a 00
        E 0 80 1f 00
        E 0 80 3d 00
        E 0 80 3e 00
        E 0 80 49 00
        E 0 80 4a 00
        E 0 80 55 00
        E 0 80 56 00
        E 0 80 61 00
        E 0 80 62 00
        E 120 90 1f 60
        E 0 90 56 60
        E 0 90 62 60
        E 120 80 1f 00
        E 0 80 56 00
        E 0 80 62 00
        E 120 90 18 60
        E 0 90 1f 60
        E 0 90 3e 60
        E 0 90 48 60
        E 0 90 4a 60
        E 0 90 54 60
        E 0 90 56 60
        E 0 90 60 60
        E 0 90 62 60
        E 120 80 18 00
        E 0 80 1f 00
        E 0 80 3e 00
        E 0 80 48 00
        E 0 80 4a 00
        E 0 80 54 00
        E 0 80 56 00
        E 0 80 60 00
        E 0 80 62 00
        E 120 90 18 60
        E 0 90 1f 60
        E 0 90 54 60
        E 0 90 56 60
        E 0 90 60 60
        E 0 90 62 60
        E 120 80 18 00
        E 0 80 1f 00
        E 0 80 54 00
        E 0 80 56 00
        E 0 80 60 00
        E 0 80 62 00
        E 120 90 1a 60
        E 0 90 1f 60
        E 0 90 3d 60
        E 0 90 3e 60
        E 0 90 49 60
        E 0 90 4a 60
        E 0 90 55 60
        E 0 90 56 60
        E 0 90 61 60
        E 0 90 62 60
        E 120 80 1a 00
        E 0 80 1f 00
        E 0 80 3d 00
        E 0 80 3e 00
        E 0 80 49 00
        E 0 80 4a 00
        E 0 80 55 00
        E 0 80 56 00
        E 0 80 61 00
        E 0 80 62 00
        E 120 90 19 60
        E 0 90 1f 60
        E 0 90 57 60
        E 0 90 63 60
        E 120 80 1f 00
        E 0 80 57 00
        E 0 80 63 00
        E 120 80 78 00
        E 0 80 79 00
        E 0 80 7a 00
        E 0 80 7b 00
        E 0 80 7c 00
        E 0 80 19 00
        E 0 90 18 60
        E 0 90 1f 60
        E 0 90 3e 60
        E 0 90 48 60
        E 0 90 4a 60
        E 0 90 54 60
        E 0 90 56 60
        E 0 90 60 60
        E 0 90 62 60
        E 120 80 18 00
        E 0 80 1f 00
        E 0 80 3e 00
        E 0 80 48 00
        E 0 80 4a 00
        E 0 80 54 00
        E 0 80 56 00
        E 0 80 60 00
        E 0 80 62 00
        E 120 90 18 60
        E 0 90 1f 60
        E 0 90 54 60
        E 0 90 56 60
        E 0 90 60 60
        E 0 90 62 60
        E 120 80 18 00
        E 0 80 1f 00
        E 0 80 54 00
        E 0 80 56 00
        E 0 80 60 00
        E 0 80 62 00
        E 120 90 1a 60
        E 0 90 1f 60
        E 0 90 3d 60
        E 0 90 3e 60
        E 0 90 49 60
        E 0 90 4a 60
        E 0 90 55 60
        E 0 90 56 60
        E 0 90 61 60
        E 0 90 62 60
        E 120 80 1a 00
        E 0 80 1f 00
        E 0 80 3d 00
        E 0 80 3e 00
        E 0 80 49 00
        E 0 80 4a 00
        E 0 80 55 00
        E 0 80 56 00
        E 0 80 61 00
        E 0 80 62 00
        E 120 90 1f 60
        E 0 90 56 60
        E 0 90 62 60
        E 120 80 1f 00
        E 0 80 56 00
        E 0 80 62 00
        E 120 90 18 60
        E 0 90 1f 60
        E 0 90 3e 60
        E 0 90 48 60
        E 0 90 4a 60
        E 0 90 54 60
        E 0 90 56 60
        E 0 90 60 60
        E 0 90 62 60
        E 120 80 18 00
        E 0 80 1f 00
        E 0 80 3e 00
        E 0 80 48 00
        E 0 80 4a 00
        E 0 80 54 00
        E 0 80 56 00
        E 0 80 60 00
        E 0 80 62 00
        E 120 90 18 60
        E 0 90 1f 60
        E 0 90 54 60
        E 0 90 56 60
        E 0 90 60 60
        E 0 90 62 60
        E 120 80 18 00
        E 0 80 1f 00
        E 0 80 54 00
        E 0 80 56 00
        E 0 80 60 00
        E 0 80 62 00
        E 120 90 1a 60
        E 0 90 1f 60
        E 0 90 3d 60
        E 0 90 3e 60
        E 0 90 49 60
        E 0 90 4a 60
        E 0 90 55 60
        E 0 90 56 60
        E 0 90 61 60
        E 0 90 62 60
        E 120 80 1a 00
        E 0 80 1f 00
        E 0 80 3d 00
        E 0 80 3e 00
        E 0 80 49 00
        E 0 80 4a 00
        E 0 80 55 00
        E 0 80 56 00
        E 0 80 61 00
        E 0 80 62 00
        E 120 90 1f 60
        E 0 90 56 60
        E 0 90 62 60
        E 120 80 1f 00
        E 0 80 56 00
        E 0 80 62 00
        E 120 90 18 60
        E 0 90 1f 60
        E 0 90 3e 60
        E 0 90 48 60
        E 0 90 4a 60
        E 0 90 54 60
        E 0 90 56 60
        E 0 90 60 60
        E 0 90 62 60
        E 120 80 18 00
        E 0 80 1f 00
        E 0 80 3e 00
        E 0 80 48 00
        E 0 80 4a 00
        E 0 80 54 00
        E 0 80 56 00
        E 0 80 60 00
        E 0 80 62 00
        E 120 90 18 60
        E 0 90 1f 60
        E 0 90 54 60
        E 0 90 56 60
        E 0 90 60 60
        E 0 90 62 60
        E 120 80 18 00
        E 0 80 1f 00
        E 0 80 54 00
        E 0 80 56 00
        E 0 80 60 00
        E 0 80 62 00
        E 120 90 1a 60
        E 0 90 1f 60
        E 0 90 3d 60
        E 0 90 3e 60
        E 0 90 49 60
        E 0 90 4a 60
        E 0 90 55 60
        E 0 90 56 60
        E 0 90 61 60
        E 0 90 62 60
        E 120 80 1a 00
        E 0 80 1f 00
        E 0 80 3d 00
        E 0 80 3e 00
        E 0 80 49 00
        E 0 80 4a 00
        E 0 80 55 00
        E 0 80 56 00
        E 0 80 61 00
        E 0 80 62 00
        E 120 90 1f 60
        E 0 90 56 60
        E 0 90 62 60
        E 120 80 1f 00
        E 0 80 56 00
        E 0 80 62 00
        E 120 90 18 60
        E 0 90 1f 60
        E 0 90 3e 60
        E 0 90 48 60
        E 0 90 4a 60
        E 0 90 54 60
        E 0 90 56 60
        E 0 90 60 60
        E 0 90 62 60
        E 120 80 18 00
        E 0 80 1f 00
        E 0 80 3e 00
        E 0 80 48 00
        E 0 80 4a 00
        E 0 80 54 00
        E 0 80 56 00
        E 0 80 60 00
        E 0 80 62 00
        E 120 90 18 60
        E 0 90 1f 60
        E 0 90 54 60
        E 0 90 56 60
        E 0 90 60 60
        E 0 90 62 60
        E 120 80 18 00
        E 0 80 1f 00
        E 0 80 54 00
        E 0 80 56 00
        E 0 80 60 00
        E 0 80 62 00
        E 120 90 1a 60
        E 0 90 1f 60
        E 0 90 3d 60
        E 0 90 3e 60
        E 0 90 49 60
        E 0 90 4a 60
        E 0 90 55 60
        E 0 90 56 60
        E 0 90 61 60
        E 0 90 62 60
        E 120 80 1a 00
        E 0 80 1f 00
        E 0 80 3d 00
        E 0 80 3e 00
        E 0 80 49 00
        E 0 80 4a 00
        E 0 80 55 00
        E 0 80 56 00
        E 0 80 61 00
        E 0 80 62 00
        E 120 90 19 60
        E 0 90 1f 60
        E 0 90 57 60
        E 0 90 63 60
        E 120 80 1f 00
        E 0 80 57 00
        E 0 80 63 00
        E 120 80 19 00
        E 0 90 18 60
        E 0 90 1f 60
        E 0 90 3e 60
        E 0 90 48 60
        E 0 90 4a 60
        E 0 90 54 60
        E 0 90 56 60
        E 0 90 60 60
        E 0 90 62 60
        E 120 80 18 00
        E 0 80 1f 00
        E 0 80 3e 00
        E 0 80 48 00
        E 0 80 4a 00
        E 0 80 54 00
        E 0 80 56 00
        E 0 80 60 00
        E 0 80 62 00
        E 120 90 18 60
        E 0 90 1f 60
        E 0 90 54 60
        E 0 90 56 60
        E 0 90 60 60
        E 0 90 62 60
        E 120 80 18 00
        E 0 80 1f 00
        E 0 80 54 00
        E 0 80 56 00
        E 0 80 60 00
        E 0 80 62 00
        E 120 90 1a 60
        E 0 90 1f 60
        E 0 90 3d 60
        E 0 90 3e 60
        E 0 90 49 60
        E 0 90 4a 60
        E 0 90 55 60
        E 0 90 56 60
        E 0 90 61 60
        E 0 90 62 60
        E 120 80 1a 00
        E 0 80 1f 00
        E 0 80 3d 00
        E 0 80 3e 00
        E 0 80 49 00
        E 0 80 4a 00
        E 0 80 55 00
        E 0 80 56 00
        E 0 80 61 00
        E 0 80 62 00
        E 120 90 1f 60
        E 0 90 56 60
        E 0 90 62 60
        E 120 80 1f 00
        E 0 80 56 00
        E 0 80 62 00
        E 120 90 18 60
        E 0 90 1f 60
        E 0 90 3e 60
        E 0 90 48 60
        E 0 90 4a 60
        E 0 90 54 60
        E 0 90 56 60
        E 0 90 60 60
        E 0 90 62 60
        E 120 80 18 00
        E 0 80 1f 00
        E 0 80 3e 00
        E 0 80 48 00
        E 0 80 4a 00
        E 0 80 54 00
        E 0 80 56 00
        E 0 80 60 00
        E 0 80 62 00
        E 120 90 18 60
        E 0 90 1f 60
        E 0 90 54 60
        E 0 90 56 60
        E 0 90 60 60
        E 0 90 62 60
        E 120 80 18 00
        E 0 80 1f 00
        E 0 80 54 00
        E 0 80 56 00
        E 0 80 60 00
        E 0 80 62 00
        E 120 90 1a 60
        E 0 90 1f 60
        E 0 90 3d 60
        E 0 90 3e 60
        E 0 90 49 60
        E 0 90 4a 60
        E 0 90 55 60
        E 0 90 56 60
        E 0 90 61 60
        E 0 90 62 60
        E 120 80 1a 00
        E 0 80 1f 00
        E 0 80 3d 00
        E 0 80 3e 00
        E 0 80 49 00
        E 0 80 4a 00
        E 0 80 55 00
        E 0 80 56 00
        E 0 80 61 00
        E 0 80 62 00
        E 120 90 1f 60
        E 0 90 56 60
        E 0 90 62 60
        E 120 80 1f 00
        E 0 80 56 00
        E 0 80 62 00
        E 120 90 18 60
        E 0 90 1f 60
        E 0 90 3e 60
        E 0 90 48 60
        E 0 90 4a 60
        E 0 90 54 60
        E 0 90 56 60
        E 0 90 60 60
        E 0 90 62 60
        E 0 90 78 60
        E 0 90 79 60
        E 0 90 7a 60
        E 0 90 7b 60
        E 0 90 7c 60
        E 120 80 18 00
        E 0 80 1f 00
        E 0 80 3e 00
        E 0 80 48 00
        E 0 80 4a 00
        E 0 80 54 00
        E 0 80 56 00
        E 0 80 60 00
        E 0 80 62 00
        E 120 90 18 60
        E 0 90 1f 60
        E 0 90 54 60
        E 0 90 56 60
        E 0 90 60 60
        E 0 90 62 60
        E 120 80 18 00
        E 0 80 1f 00
        E 0 80 54 00
        E 0 80 56 00
        E 0 80 60 00
        E 0 80 62 00
        E 120 90 1a 60
        E 0 90 1f 60
        E 0 90 3d 60
        E 0 90 3e 60
        E 0 90 49 60
        E 0 90 4a 60
        E 0 90 55 60
        E 0 90 56 60
        E 0 90 61 60
        E 0 90 62 60
        E 120 80 1a 00
        E 0 80 1f 00
        E 0 80 3d 00
        E 0 80 3e 00
        E 0 80 49 00
        E 0 80 4a 00
        E 0 80 55 00
        E 0 80 56 00
        E 0 80 61 00
        E 0 80 62 00
        E 120 90 1f 60
        E 0 90 56 60
        E 0 90 62 60
        E 120 80 1f 00
        E 0 80 56 00
        E 0 80 62 00
        E 120 90 18 60
        E 0 90 1f 60
        E 0 90 3e 60
        E 0 90 48 60
        E 0 90 4a 60
        E 0 90 54 60
        E 0 90 56 60
        E 0 90 60 60
        E 0 90 62 60
        E 120 80 18 00
        E 0 80 1f 00
        E 0 80 3e 00
        E 0 80 48 00
        E 0 80 4a 00
        E 0 80 54 00
        E 0 80 56 00
        E 0 80 60 00
        E 0 80 62 00
        E 120 90 18 60
        E 0 90 19 60
        E 0 90 1f 60
        E 0 90 54 60
        E 0 90 57 60
        E 0 90 60 60
        E 0 90 63 60
        E 120 80 18 00
        E 0 80 1f 00
        E 0 80 54 00
        E 0 80 57 00
        E 0 80 60 00
        E 0 80 63 00
        E 120 80 19 00
        E 0 90 1a 60
        E 0 90 1f 60
        E 0 90 3d 60
        E 0 90 3e 60
        E 0 90 49 60
        E 0 90 4a 60
        E 0 90 55 60
        E 0 90 56 60
        E 0 90 61 60
        E 0 90 62 60
        E 120 80 1a 00
        E 0 80 1f 00
        E 0 80 3d 00
        E 0 80 3e 00
        E 0 80 49 00
        E 0 80 4a 00
        E 0 80 55 00
        E 0 80 56 00
        E 0 80 61 00
        E 0 80 62 00
        E 120 90 19 60
        E 0 90 1f 60
        E 0 90 57 60
        E 0 90 63 60
        E 120 80 1f 00
        E 0 80 57 00
        E 0 80 63 00
        E 120 80 78 00
        E 0 80 79 00
        E 0 80 7a 00
        E 0 80 7b 00
        E 0 80 7c 00
        E 0 80 19 00
        E 0 90 18 60
        E 0 90 1f 60
        E 0 90 3e 60
        E 0 90 48 60
        E 0 90 4a 60
        E 0 90 54 60
        E 0 90 56 60
        E 0 90 60 60
        E 0 90 62 60
        E 120 80 18 00
        E 0 80 1f 00
        E 0 80 3e 00
        E 0 80 48 00
        E 0 80 4a 00
        E 0 80 54 00
        E 0 80 56 00
        E 0 80 60 00
        E 0 80 62 00
        E 120 90 18 60
        E 0 90 1f 60
        E 0 90 54 60
        E 0 90 56 60
        E 0 90 60 60
        E 0 90 62 60
        E 120 80 18 00
        E 0 80 1f 00
        E 0 80 54 00
        E 0 80 56 00
        E 0 80 60 00
        E 0 80 62 00
        E 120 90 1a 60
        E 0 90 1f 60
        E 0 90 3d 60
        E 0 90 3e 60
        E 0 90 49 60
        E 0 90 4a 60
        E 0 90 55 60
        E 0 90 56 60
        E 0 90 61 60
        E 0 90 62 60
        E 120 80 1a 00
        E 0 80 1f 00
        E 0 80 3d 00
        E 0 80 3e 00
        E 0 80 49 00
        E 0 80 4a 00
        E 0 80 55 00
        E 0 80 56 00
        E 0 80 61 00
        E 0 80 62 00
        E 120 90 1f 60
        E 0 90 56 60
        E 0 90 62 60
        E 120 80 1f 00
        E 0 80 56 00
        E 0 80 62 00
        E 120 90 18 60
        E 0 90 1f 60
        E 0 90 3e 60
        E 0 90 48 60
        E 0 90 4a 60
        E 0 90 54 60
        E 0 90 56 60
        E 0 90 60 60
        E 0 90 62 60
        E 120 80 18 00
        E 0 80 1f 00
        E 0 80 3e 00
        E 0 80 48 00
        E 0 80 4a 00
        E 0 80 54 00
        E 0 80 56 00
        E 0 80 60 00
        E 0 80 62 00
        E 120 90 18 60
        E 0 90 1f 60
        E 0 90 54 60
        E 0 90 56 60
        E 0 90 60 60
        E 0 90 62 60
        E 120 80 18 00
        E 0 80 1f 00
        E 0 80 54 00
        E 0 80 56 00
        E 0 80 60 00
        E 0 80 62 00
        E 120 90 1a 60
        E 0 90 1f 60
        E 0 90 3d 60
        E 0 90 3e 60
        E 0 90 49 60
        E 0 90 4a 60
        E 0 90 55 60
        E 0 90 56 60
        E 0 90 61 60
        E 0 90 62 60
        E 120 80 1a 00
        E 0 80 1f 00
        E 0 80 3d 00
        E 0 80 3e 00
        E 0 80 49 00
        E 0 80 4a 00
        E 0 80 55 00
        E 0 80 56 00
        E 0 80 61 00
        E 0 80 62 00
        E 120 90 1f 60
        E 0 90 56 60
        E 0 90 62 60
        E 120 80 1f 00
        E 0 80 56 00
        E 0 80 62 00
        E 120 90 18 60
        E 0 90 1f 60
        E 0 90 3e 60
        E 0 90 48 60
        E 0 90 4a 60
        E 0 90 54 60
        E 0 90 56 60
        E 0 90 60 60
        E 0 90 62 60
        E 120 80 18 00
        E 0 80 1f 00
        E 0 80 3e 00
        E 0 80 48 00
        E 0 80 4a 00
        E 0 80 54 00
        E 0 80 56 00
        E 0 80 60 00
        E 0 80 62 00
        E 120 90 18 60
        E 0 90 1f 60
        E 0 90 54 60
        E 0 90 56 60
        E 0 90 60 60
        E 0 90 62 60
        E 120 80 18 00
        E 0 80 1f 00
        E 0 80 54 00
        E 0 80 56 00
        E 0 80 60 00
        E 0 80 62 00
        E 120 90 1a 60
        E 0 90 1f 60
        E 0 90 3d 60
        E 0 90 3e 60
        E 0 90 49 60
        E 0 90 4a 60
        E 0 90 55 60
        E 0 90 56 60
        E 0 90 61 60
        E 0 90 62 60
        E 120 80 1a 00
        E 0 80 1f 00
        E 0 80 3d 00
        E 0 80 3e 00
        E 0 80 49 00
        E 0 80 4a 00
        E 0 80 55 00
        E 0 80 56 00
        E 0 80 61 00
        E 0 80 62 00
        E 120 90 1f 60
        E 0 90 56 60
        E 0 90 62 60
        E 120 80 1f 00
        E 0 80 56 00
        E 0 80 62 00
        E 120 90 18 60
        E 0 90 1f 60
        E 0 90 3e 60
        E 0 90 48 60
        E 0 90 4a 60
        E 0 90 54 60
        E 0 90 56 60
        E 0 90 60 60
        E 0 90 62 60
        E 120 80 18 00
        E 0 80 1f 00
        E 0 80 3e 00
        E 0 80 48 00
        E 0 80 4a 00
        E 0 80 54 00
        E 0 80 56 00
        E 0 80 60 00
        E 0 80 62 00
        E 120 90 18 60
        E 0 90 1f 60
        E 0 90 54 60
        E 0 90 56 60
        E 0 90 60 60
        E 0 90 62 60
        E 120 80 18 00
        E 0 80 1f 00
        E 0 80 54 00
        E 0 80 56 00
        E 0 80 60 00
        E 0 80 62 00
        E 120 90 1a 60
        E 0 90 1f 60
        E 0 90 3d 60
        E 0 90 3e 60
        E 0 90 49 60
        E 0 90 4a 60
        E 0 90 55 60
        E 0 90 56 60
        E 0 90 61 60
        E 0 90 62 60
        E 120 80 1a 00
        E 0 80 1f 00
        E 0 80 3d 00
        E 0 80 3e 00
        E 0 80 49 00
        E 0 80 4a 00
        E 0 80 55 00
        E 0 80 56 00
        E 0 80 61 00
        E 0 80 62 00
        E 120 90 19 60
        E 0 90 1f 60
        E 0 90 57 60
        E 0 90 63 60
        E 120 80 1f 00
        E 0 80 57 00
        E 0 80 63 00
        E 120 80 19 00
        E 0 90 18 60
        E 0 90 1f 60
        E 0 90 3e 60
        E 0 90 48 60
        E 0 90 4a 60
        E 0 90 54 60
        E 0 90 56 60
        E 0 90 60 60
        E 0 90 62 60
        E 120 80 18 00
        E 0 80 1f 00
        E 0 80 3e 00
        E 0 80 48 00
        E 0 80 4a 00
        E 0 80 54 00
        E 0 80 56 00
        E 0 80 60 00
        E 0 80 62 00
        E 120 90 18 60
        E 0 90 1f 60
        E 0 90 54 60
        E 0 90 56 60
        E 0 90 60 60
        E 0 90 62 60
        E 120 80 18 00
        E 0 80 1f 00
        E 0 80 54 00
        E 0 80 56 00
        E 0 80 60 00
        E 0 80 62 00
        E 120 90 1a 60
        E 0 90 1f 60
        E 0 90 3d 60
        E 0 90 3e 60
        E 0 90 49 60
        E 0 90 4a 60
        E 0 90 55 60
        E 0 90 56 60
        E 0 90 61 60
        E 0 90 62 60
        E 120 80 1a 00
        E 0 80 1f 00
        E 0 80 3d 00
        E 0 80 3e 00
        E 0 80 49 00
        E 0 80 4a 00
        E 0 80 55 00
        E 0 80 56 00
        E 0 80 61 00
        E 0 80 62 00
        E 120 90 1f 60
        E 0 90 56 60
        E 0 90 62 60
        E 120 80 1f 00
        E 0 80 56 00
        E 0 80 62 00
        E 120 90 18 60
        E 0 90 1f 60
        E 0 90 3e 60
        E 0 90 48 60
        E 0 90 4a 60
        E 0 90 54 60
        E 0 90 56 60
        E 0 90 60 60
        E 0 90 62 60
        E 120 80 18 00
        E 0 80 1f 00
        E 0 80 3e 00
        E 0 80 48 00
        E 0 80 4a 00
        E 0 80 54 00
        E 0 80 56 00
        E 0 80 60 00
        E 0 80 62 00
        E 120 90 18 60
        E 0 90 1f 60
        E 0 90 54 60
        E 0 90 56 60
        E 0 90 60 60
        E 0 90 62 60
        E 120 80 18 00
        E 0 80 1f 00
        E 0 80 54 00
        E 0 80 56 00
        E 0 80 60 00
        E 0 80 62 00
        E 120 90 1a 60
        E 0 90 1f 60
        E 0 90 3d 60
        E 0 90 3e 60
        E 0 90 49 60
        E 0 90 4a 60
        E 0 90 55 60
        E 0 90 56 60
        E 0 90 61 60
        E 0 90 62 60
        E 120 80 1a 00
        E 0 80 1f 00
        E 0 80 3d 00
        E 0 80 3e 00
        E 0 80 49 00
        E 0 80 4a 00
        E 0 80 55 00
        E 0 80 56 00
        E 0 80 61 00
        E 0 80 62 00
        E 120 90 1f 60
        E 0 90 56 60
        E 0 90 62 60
        E 120 80 1f 00
        E 0 80 56 00
        E 0 80 62 00
        E 120 90 18 60
        E 0 90 1f 60
        E 0 90 3e 60
        E 0 90 48 60
        E 0 90 4a 60
        E 0 90 54 60
        E 0 90 56 60
        E 0 90 60 60
        E 0 90 62 60
        E 0 90 78 60
        E 0 90 79 60
        E 0 90 7a 60
        E 0 90 7b 60
        E 0 90 7c 60
        E 120 80 18 00
        E 0 80 1f 00
        E 0 80 3e 00
        E 0 80 48 00
        E 0 80 4a 00
        E 0 80 54 00
        E 0 80 56 00
        E 0 80 60 00
        E 0 80 62 00
        E 120 90 18 60
        E 0 90 1f 60
        E 0 90 54 60
        E 0 90 56 60
        E 0 90 60 60
        E 0 90 62 60
        E 120 80 18 00
        E 0 80 1f 00
        E 0 80 54 00
        E 0 80 56 00
        E 0 80 60 00
        E 0 80 62 00
        E 120 90 1a 60
        E 0 90 1f 60
        E 0 90 3d 60
        E 0 90 3e 60
        E 0 90 49 60
        E 0 90 4a 60
        E 0 90 55 60
        E 0 90 56 60
        E 0 90 61 60
        E 0 90 62 60
        E 120 80 1a 00
        E 0 80 1f 00
        E 0 80 3d 00
        E 0 80 3e 00
        E 0 80 49 00
        E 0 80 4a 00
        E 0 80 55 00
        E 0 80 56 00
        E 0 80 61 00
        E 0 80 62 00
        E 120 90 1f 60
        E 0 90 56 60
        E 0 90 62 60
        E 120 80 1f 00
        E 0 80 56 00
        E 0 80 62 00
        E 120 90 18 60
        E 0 90 1f 60
        E 0 90 3e 60
        E 0 90 48 60
        E 0 90 4a 60
        E 0 90 54 60
        E 0 90 56 60
        E 0 90 60 60
        E 0 90 62 60
        E 120 80 18 00
        E 0 80 1f 00
        E 0 80 3e 00
        E 0 80 48 00
        E 0 80 4a 00
        E 0 80 54 00
        E 0 80 56 00
        E 0 80 60 00
        E 0 80 62 00
        E 120 90 18 60
        E 0 90 1f 60
        E 0 90 54 60
        E 0 90 56 60
        E 0 90 60 60
        E 0 90 62 60
        E 120 80 18 00
        E 0 80 1f 00
        E 0 80 54 00
        E 0 80 56 00
        E 0 80 60 00
        E 0 80 62 00
        E 120 90 1a 60
        E 0 90 1f 60
        E 0 90 3d 60
        E 0 90 3e 60
        E 0 90 49 60
        E 0 90 4a 60
        E 0 90 55 60
        E 0 90 56 60
        E 0 90 61 60
        E 0 90 62 60
        E 120 80 1a 00
        E 0 80 1f 00
        E 0 80 3d 00
        E 0 80 3e 00
        E 0 80 49 00
        E 0 80 4a 00
        E 0 80 55 00
        E 0 80 56 00
        E 0 80 61 00
        E 0 80 62 00
        E 120 90 19 60
        E 0 90 1f 60
        E 0 90 57 60
        E 0 90 63 60
        E 120 80 1f 00
        E 0 80 57 00
        E 0 80 63 00
        E 120 80 78 00
        E 0 80 79 00
        E 0 80 7a 00
        E 0 80 7b 00
        E 0 80 7c 00
        E 0 80 19 00
        E 0 90 18 60
        E 0 90 1f 60
        E 0 90 3e 60
        E 0 90 48 60
        E 0 90 4a 60
        E 0 90 54 60
        E 0 90 56 60
        E 0 90 60 60
        E 0 90 62 60
        E 0 90 74 60
        E 120 80 18 00
        E 0 80 1f 00
        E 0 80 3e 00
        E 0 80 48 00
        E 0 80 4a 00
        E 0 80 54 00
        E 0 80 56 00
        E 0 80 60 00
        E 0 80 62 00
        E 120 90 18 60
        E 0 90 1f 60
        E 0 90 54 60
        E 0 90 56 60
        E 0 90 60 60
        E 0 90 62 60
        E 120 80 18 00
        E 0 80 1f 00
        E 0 80 54 00
        E 0 80 56 00
        E 0 80 60 00
        E 0 80 62 00
        E 120 90 1a 60
        E 0 90 1f 60
        E 0 90 3d 60
        E 0 90 3e 60
        E 0 90 49 60
        E 0 90 4a 60
        E 0 90 55 60
        E 0 90 56 60
        E 0 90 61 60
        E 0 90 62 60
        E 120 80 1a 00
        E 0 80 1f 00
        E 0 80 3d 00
        E 0 80 3e 00
        E 0 80 49 00
        E 0 80 4a 00
        E 0 80 55 00
        E 0 80 56 00
        E 0 80 61 00
        E 0 80 62 00
        E 120 90 1f 60
        E 0 90 56 60
        E 0 90 62 60
        E 120 80 1f 00
        E 0 80 56 00
        E 0 80 62 00
        E 120 90 18 60
        E 0 90 1f 60
        E 0 90 3e 60
        E 0 90 48 60
        E 0 90 4a 60
        E 0 90 54 60
        E 0 90 56 60
        E 0 90 60 60
        E 0 90 62 60
        E 120 80 18 00
        E 0 80 1f 00
        E 0 80 3e 00
        E 0 80 48 00
        E 0 80 4a 00
        E 0 80 54 00
        E 0 80 56 00
        E 0 80 60 00
        E 0 80 62 00
        E 120 90 18 60
        E 0 90 1f 60
        E 0 90 54 60
        E 0 90 56 60
        E 0 90 60 60
        E 0 90 62 60
        E 120 80 18 00
        E 0 80 1f 00
        E 0 80 54 00
        E 0 80 56 00
        E 0 80 60 00
        E 0 80 62 00
        E 120 90 1a 60
        E 0 90 1f 60
        E 0 90 3d 60
        E 0 90 3e 60
        E 0 90 49 60
        E 0 90 4a 60
        E 0 90 55 60
        E 0 90 56 60
        E 0 90 61 60
        E 0 90 62 60
        E 120 80 1a 00
        E 0 80 1f 00
        E 0 80 3d 00
        E 0 80 3e 00
        E 0 80 49 00
        E 0 80 4a 00
        E 0 80 55 00
        E 0 80 56 00
        E 0 80 61 00
        E 0 80 62 00
        E 120 90 1f 60
        E 0 90 56 60
        E 0 90 62 60
        E 120 80 1f 00
        E 0 80 56 00
        E 0 80 62 00
        E 120 90 18 60
        E 0 90 1f 60
        E 0 90 3e 60
        E 0 90 48 60
        E 0 90 4a 60
        E 0 90 54 60
        E 0 90 56 60
        E 0 90 60 60
        E 0 90 62 60
        E 120 80 18 00
        E 0 80 1f 00
        E 0 80 3e 00
        E 0 80 48 00
        E 0 80 4a 00
        E 0 80 54 00
        E 0 80 56 00
        E 0 80 60 00
        E 0 80 62 00
        E 120 90 18 60
        E 0 90 1f 60
        E 0 90 54 60
        E 0 90 56 60
        E 0 90 60 60
        E 0 90 62 60
        E 120 80 18 00
        E 0 80 1f 00
        E 0 80 54 00
        E 0 80 56 00
        E 0 80 60 00
        E 0 80 62 00
        E 120 90 1a 60
        E 0 90 1f 60
        E 0 90 3d 60
        E 0 90 3e 60
        E 0 90 49 60
        E 0 90 4a 60
        E 0 90 55 60
        E 0 90 56 60
        E 0 90 61 60
        E 0 90 62 60
        E 120 80 1a 00
        E 0 80 1f 00
        E 0 80 3d 00
        E 0 80 3e 00
        E 0 80 49 00
        E 0 80 4a 00
        E 0 80 55 00
        E 0 80 56 00
        E 0 80 61 00
        E 0 80 62 00
        E 120 90 1f 60
        E 0 90 56 60
        E 0 90 62 60
        E 120 80 1f 00
        E 0 80 56 00
        E 0 80 62 00
        E 120 90 18 60
        E 0 90 1f 60
        E 0 90 3e 60
        E 0 90 48 60
        E 0 90 4a 60
        E 0 90 54 60
        E 0 90 56 60
        E 0 90 60 60
        E 0 90 62 60
        E 120 80 18 00
        E 0 80 1f 00
        E 0 80 3e 00
        E 0 80 48 00
        E 0 80 4a 00
        E 0 80 54 00
        E 0 80 56 00
        E 0 80 60 00
        E 0 80 62 00
        E 120 90 18 60
        E 0 90 1f 60
        E 0 90 54 60
        E 0 90 56 60
        E 0 90 60 60
        E 0 90 62 60
        E 120 80 18 00
        E 0 80 1f 00
        E 0 80 54 00
        E 0 80 56 00
        E 0 80 60 00
        E 0 80 62 00
        E 120 90 1a 60
        E 0 90 1f 60
        E 0 90 3d 60
        E 0 90 3e 60
        E 0 90 49 60
        E 0 90 4a 60
        E 0 90 55 60
        E 0 90 56 60
        E 0 90 61 60
        E 0 90 62 60
        E 120 80 1a 00
        E 0 80 1f 00
        E 0 80 3d 00
        E 0 80 3e 00
        E 0 80 49 00
        E 0 80 4a 00
        E 0 80 55 00
        E 0 80 56 00
        E 0 80 61 00
        E 0 80 62 00
        E 120 90 19 60
        E 0 90 1f 60
        E 0 90 57 60
        E 0 90 63 60
        E 120 80 1f 00
        E 0 80 57 00
        E 0 80 63 00
        E 120 80 74 00
        E 0 90 18 60
        E 0 90 1f 60
        E 0 90 3e 60
        E 0 90 48 60
        E 0 90 4a 60
        E 0 90 54 60
        E 0 90 56 60
        E 0 90 60 60
        E 0 90 62 60
        E 120 80 18 00
        E 0 80 1f 00
        E 0 80 3e 00
        E 0 80 48 00
        E 0 80 4a 00
        E 0 80 54 00
        E 0 80 56 00
        E 0 80 60 00
        E 0 80 62 00
        E 120 90 18 60
        E 0 90 1f 60
        E 0 90 54 60
        E 0 90 56 60
        E 0 90 60 60
        E 0 90 62 60
        E 120 80 18 00
        E 0 80 1f 00
        E 0 80 54 00
        E 0 80 56 00
        E 0 80 60 00
        E 0 80 62 00
        E 120 90 1a 60
        E 0 90 1f 60
        E 0 90 3d 60
        E 0 90 3e 60
        E 0 90 49 60
        E 0 90 4a 60
        E 0 90 55 60
        E 0 90 56 60
        E 0 90 61 60
        E 0 90 62 60
        E 120 80 1a 00
        E 0 80 1f 00
        E 0 80 3d 00
        E 0 80 3e 00
        E 0 80 49 00
        E 0 80 4a 00
        E 0 80 55 00
        E 0 80 56 00
        E 0 80 61 00
        E 0 80 62 00
        E 120 90 1f 60
        E 0 90 56 60
        E 0 90 62 60
        E 120 80 1f 00
        E 0 80 56 00
        E 0 80 62 00
        E 120 90 18 60
        E 0 90 1f 60
        E 0 90 3e 60
        E 0 90 48 60
        E 0 90 4a 60
        E 0 90 54 60
        E 0 90 56 60
        E 0 90 60 60
        E 0 90 62 60
        E 120 80 18 00
        E 0 80 1f 00
        E 0 80 3e 00
        E 0 80 48 00
        E 0 80 4a 00
        E 0 80 54 00
        E 0 80 56 00
        E 0 80 60 00
        E 0 80 62 00
        E 120 90 18 60
        E 0 90 1f 60
        E 0 90 54 60
        E 0 90 56 60
        E 0 90 60 60
        E 0 90 62 60
        E 120 80 18 00
        E 0 80 1f 00
        E 0 80 54 00
        E 0 80 56 00
        E 0 80 60 00
        E 0 80 62 00
        E 120 90 1a 60
        E 0 90 1f 60
        E 0 90 3d 60
        E 0 90 3e 60
        E 0 90 49 60
        E 0 90 4a 60
        E 0 90 55 60
        E 0 90 56 60
        E 0 90 61 60
        E 0 90 62 60
        E 120 80 1a 00
        E 0 80 1f 00
        E 0 80 3d 00
        E 0 80 3e 00
        E 0 80 49 00
        E 0 80 4a 00
        E 0 80 55 00
        E 0 80 56 00
        E 0 80 61 00
        E 0 80 62 00
        E 120 90 1f 60
        E 0 90 56 60
        E 0 90 62 60
        E 120 80 1f 00
        E 0 80 56 00
        E 0 80 62 00
        E 120 90 18 60
        E 0 90 1f 60
        E 0 90 3e 60
        E 0 90 48 60
        E 0 90 4a 60
        E 0 90 54 60
        E 0 90 56 60
        E 0 90 60 60
        E 0 90 62 60
        E 0 90 78 60
        E 0 90 79 60
        E 0 90 7a 60
        E 0 90 7b 60
        E 0 90 7c 60
        E 120 80 18 00
        E 0 80 1f 00
        E 0 80 3e 00
        E 0 80 48 00
        E 0 80 4a 00
        E 0 80 54 00
        E 0 80 56 00
        E 0 80 60 00
        E 0 80 62 00
        E 120 90 18 60
        E 0 90 1f 60
        E 0 90 54 60
        E 0 90 56 60
        E 0 90 60 60
        E 0 90 62 60
        E 120 80 18 00
        E 0 80 1f 00
        E 0 80 54 00
        E 0 80 56 00
        E 0 80 60 00
        E 0 80 62 00
        E 120 90 1a 60
        E 0 90 1f 60
        E 0 90 3d 60
        E 0 90 3e 60
        E 0 90 49 60
        E 0 90 4a 60
        E 0 90 55 60
        E 0 90 56 60
        E 0 90 61 60
        E 0 90 62 60
        E 120 80 1a 00
        E 0 80 1f 00
        E 0 80 3d 00
        E 0 80 3e 00
        E 0 80 49 00
        E 0 80 4a 00
        E 0 80 55 00
        E 0 80 56 00
        E 0 80 61 00
        E 0 80 62 00
        E 120 90 1f 60
        E 0 90 56 60
        E 0 90 62 60
        E 120 80 1f 00
        E 0 80 56 00
        E 0 80 62 00
        E 120 80 19 00
        E 0 90 18 60
        E 0 90 1f 60
        E 0 90 3e 60
        E 0 90 48 60
        E 0 90 4a 60
        E 0 90 54 60
        E 0 90 56 60
        E 0 90 60 60
        E 0 90 62 60
        E 120 80 18 00
        E 0 80 1f 00
        E 0 80 3e 00
        E 0 80 48 00
        E 0 80 4a 00
        E 0 80 54 00
        E 0 80 56 00
        E 0 80 60 00
        E 0 80 62 00
        E 120 90 19 60
        E 0 90 1b 60
        E 0 90 55 60
        E 0 90 61 60
        E 120 80 1b 00
        E 0 80 55 00
        E 0 80 61 00
        E 0 90 1a 60
        E 0 90 61 60
        E 120 80 19 00
        E 0 80 1a 00
        E 0 80 61 00
        E 0 90 18 60
        E 0 90 1b 60
        E 0 90 3d 60
        E 0 90 49 60
        E 0 90 54 60
        E 0 90 55 60
        E 0 90 60 60
        E 0 90 61 60
        E 120 80 18 00
        E 0 80 1b 00
        E 0 80 3d 00
        E 0 80 49 00
        E 0 80 54 00
        E 0 80 55 00
        E 0 80 60 00
        E 0 80 61 00
        E 0 90 1a 60
        E 0 90 61 60
        E 120 80 1a 00
        E 0 80 61 00
        E 0 90 19 60
        E 0 90 1b 60
        E 0 90 55 60
        E 0 90 61 60
        E 120 80 1b 00
        E 0 80 55 00
        E 0 80 61 00
        E 0 90 1a 60
        E 0 90 61 60
        <X 120 0
          /wFbaW50ZW5zZV0=
        >
        E 0 80 78 00
        E 0 80 79 00
        E 0 80 7a 00
        E 0 80 7b 00
        E 0 80 7c 00
        E 0 80 19 00
        E 0 80 1a 00
        E 0 80 61 00
        E 0 90 18 60
        E 0 90 24 60
        E 0 90 40 60
        E 0 90 48 60
        E 0 90 4c 60
        E 0 90 54 60
        E 0 90 58 60
        E 0 90 60 60
        E 0 90 64 60
        E 120 80 18 00
        E 0 80 24 00
        E 0 80 40 00
        E 0 80 48 00
        E 0 80 4c 00
        E 0 80 54 00
        E 0 80 58 00
        E 0 80 60 00
        E 0 80 64 00
        E 120 90 18 60
        E 0 90 19 60
        E 0 90 24 60
        E 0 90 54 60
        E 0 90 58 60
        E 0 90 60 60
        E 0 90 64 60
        E 120 80 18 00
        E 0 80 24 00
        E 0 80 54 00
        E 0 80 58 00
        E 0 80 60 00
        E 0 80 64 00
        E 120 80 19 00
        E 0 90 1a 60
        E 0 90 24 60
        E 0 90 3d 60
        E 0 90 40 60
        E 0 90 49 60
        E 0 90 4c 60
        E 0 90 55 60
        E 0 90 58 60
        E 0 90 61 60
        E 0 90 64 60
        E 120 80 1a 00
        E 0 80 24 00
        E 0 80 3d 00
        E 0 80 40 00
        E 0 80 49 00
        E 0 80 4c 00
        E 0 80 55 00
        E 0 80 58 00
        E 0 80 61 00
        E 0 80 64 00
        E 120 90 19 60
        E 0 90 24 60
        E 0 90 58 60
        E 0 90 64 60
        E 120 80 24 00
        E 0 80 58 00
        E 0 80 64 00
        E 120 80 19 00
        E 0 90 18 60
        E 0 90 24 60
        E 0 90 40 60
        E 0 90 48 60
        E 0 90 4c 60
        E 0 90 54 60
        E 0 90 58 60
        E 0 90 60 60
        E 0 90 64 60
        E 120 80 18 00
        E 0 80 24 00
        E 0 80 40 00
        E 0 80 48 00
        E 0 80 4c 00
        E 0 80 54 00
        E 0 80 58 00
        E 0 80 60 00
        E 0 80 64 00
        E 120 90 18 60
        E 0 90 19 60
        E 0 90 24 60
        E 0 90 54 60
        E 0 90 58 60
        E 0 90 60 60
        E 0 90 64 60
        E 120 80 18 00
        E 0 80 24 00
        E 0 80 54 00
        E 0 80 58 00
        E 0 80 60 00
        E 0 80 64 00
        E 120 80 19 00
        E 0 90 1a 60
        E 0 90 24 60
        E 0 90 3d 60
        E 0 90 40 60
        E 0 90 49 60
        E 0 90 4c 60
        E 0 90 55 60
        E 0 90 58 60
        E 0 90 61 60
        E 0 90 64 60
        E 120 80 1a 00
        E 0 80 24 00
        E 0 80 3d 00
        E 0 80 40 00
        E 0 80 49 00
        E 0 80 4c 00
        E 0 80 55 00
        E 0 80 58 00
        E 0 80 61 00
        E 0 80 64 00
        E 120 90 19 60
        E 0 90 24 60
        E 0 90 58 60
        E 0 90 64 60
        E 120 80 24 00
        E 0 80 58 00
        E 0 80 64 00
        E 120 80 19 00
        E 0 90 18 60
        E 0 90 24 60
        E 0 90 40 60
        E 0 90 48 60
        E 0 90 4c 60
        E 0 90 54 60
        E 0 90 58 60
        E 0 90 60 60
        E 0 90 64 60
        E 120 80 18 00
        E 0 80 24 00
        E 0 80 40 00
        E 0 80 48 00
        E 0 80 4c 00
        E 0 80 54 00
        E 0 80 58 00
        E 0 80 60 00
        E 0 80 64 00
        E 120 90 18 60
        E 0 90 19 60
        E 0 90 24 60
        E 0 90 54 60
        E 0 90 58 60
        E 0 90 60 60
        E 0 90 64 60
        E 120 80 18 00
        E 0 80 24 00
        E 0 80 54 00
        E 0 80 58 00
        E 0 80 60 00
        E 0 80 64 00
        E 120 80 19 00
        E 0 90 1a 60
        E 0 90 24 60
        E 0 90 3d 60
        E 0 90 40 60
        E 0 90 49 60
        E 0 90 4c 60
        E 0 90 55 60
        E 0 90 58 60
        E 0 90 61 60
        E 0 90 64 60
        E 120 80 1a 00
        E 0 80 24 00
        E 0 80 3d 00
        E 0 80 40 00
        E 0 80 49 00
        E 0 80 4c 00
        E 0 80 55 00
        E 0 80 58 00
        E 0 80 61 00
        E 0 80 64 00
        E 120 90 19 60
        E 0 90 24 60
        E 0 90 58 60
        E 0 90 64 60
        E 120 80 24 00
        E 0 80 58 00
        E 0 80 64 00
        E 120 80 19 00
        E 0 90 18 60
        E 0 90 24 60
        E 0 90 40 60
        E 0 90 48 60
        E 0 90 4c 60
        E 0 90 54 60
        E 0 90 58 60
        E 0 90 60 60
        E 0 90 64 60
        E 120 80 18 00
        E 0 80 24 00
        E 0 80 40 00
        E 0 80 48 00
        E 0 80 4c 00
        E 0 80 54 00
        E 0 80 58 00
        E 0 80 60 00
        E 0 80 64 00
        E 120 90 18 60
        E 0 90 19 60
        E 0 90 24 60
        E 0 90 54 60
        E 0 90 58 60
        E 0 90 60 60
        E 0 90 64 60
        E 120 80 18 00
        E 0 80 24 00
        E 0 80 54 00
        E 0 80 58 00
        E 0 80 60 00
        E 0 80 64 00
        E 120 80 19 00
        E 0 90 1a 60
        E 0 90 24 60
        E 0 90 3d 60
        E 0 90 40 60
        E 0 90 49 60
        E 0 90 4c 60
        E 0 90 55 60
        E 0 90 58 60
        E 0 90 61 60
        E 0 90 64 60
        E 120 80 1a 00
        E 0 80 24 00
        E 0 80 3d 00
        E 0 80 40 00
        E 0 80 49 00
        E 0 80 4c 00
        E 0 80 55 00
        E 0 80 58 00
        E 0 80 61 00
        E 0 80 64 00
        E 120 90 19 60
        E 0 90 1e 60
        E 0 90 24 60
        E 0 90 56 60
        E 0 90 58 60
        E 0 90 62 60
        E 0 90 64 60
        E 120 80 1e 00
        E 0 80 24 00
        E 0 80 56 00
        E 0 80 58 00
        E 0 80 62 00
        E 0 80 64 00
        E 120 80 19 00
        E 0 90 18 60
        E 0 90 24 60
        E 0 90 40 60
        E 0 90 48 60
        E 0 90 4c 60
        E 0 90 54 60
        E 0 90 58 60
        E 0 90 60 60
        E 0 90 64 60
        E 120 80 18 00
        E 0 80 24 00
        E 0 80 40 00
        E 0 80 48 00
        E 0 80 4c 00
        E 0 80 54 00
        E 0 80 58 00
        E 0 80 60 00
        E 0 80 64 00
        E 120 90 18 60
        E 0 90 19 60
        E 0 90 24 60
        E 0 90 54 60
        E 0 90 58 60
        E 0 90 60 60
        E 0 90 64 60
        E 120 80 18 00
        E 0 80 24 00
        E 0 80 54 00
        E 0 80 58 00
        E 0 80 60 00
        E 0 80 64 00
        E 120 80 19 00
        E 0 90 1a 60
        E 0 90 24 60
        E 0 90 3d 60
        E 0 90 40 60
        E 0 90 49 60
        E 0 90 4c 60
        E 0 90 55 60
        E 0 90 58 60
        E 0 90 61 60
        E 0 90 64 60
        E 120 80 1a 00
        E 0 80 24 00
        E 0 80 3d 00
        E 0 80 40 00
        E 0 80 49 00
        E 0 80 4c 00
        E 0 80 55 00
        E 0 80 58 00
        E 0 80 61 00
        E 0 80 64 00
        E 120 90 19 60
        E 0 90 24 60
        E 0 90 58 60
        E 0 90 64 60
        E 120 80 24 00
        E 0 80 58 00
        E 0 80 64 00
        E 120 80 19 00
        E 0 90 18 60
        E 0 90 24 60
        E 0 90 40 60
        E 0 90 48 60
        E 0 90 4c 60
        E 0 90 54 60
        E 0 90 58 60
        E 0 90 60 60
        E 0 90 64 60
        E 120 80 18 00
        E 0 80 24 00
        E 0 80 40 00
        E 0 80 48 00
        E 0 80 4c 00
        E 0 80 54 00
        E 0 80 58 00
        E 0 80 60 00
        E 0 80 64 00
        E 120 90 18 60
        E 0 90 19 60
        E 0 90 24 60
        E 0 90 54 60
        E 0 90 58 60
        E 0 90 60 60
        E 0 90 64 60
        E 120 80 18 00
        E 0 80 24 00
        E 0 80 54 00
        E 0 80 58 00
        E 0 80 60 00
        E 0 80 64 00
        E 120 80 19 00
        E 0 90 1a 60
        E 0 90 24 60
        E 0 90 3d 60
        E 0 90 40 60
        E 0 90 49 60
        E 0 90 4c 60
        E 0 90 55 60
        E 0 90 58 60
        E 0 90 61 60
        E 0 90 64 60
        E 120 80 1a 00
        E 0 80 24 00
        E 0 80 3d 00
        E 0 80 40 00
        E 0 80 49 00
        E 0 80 4c 00
        E 0 80 55 00
        E 0 80 58 00
        E 0 80 61 00
        E 0 80 64 00
        E 120 90 19 60
        E 0 90 24 60
        E 0 90 58 60
        E 0 90 64 60
        E 120 80 24 00
        E 0 80 58 00
        E 0 80 64 00
        E 120 80 19 00
        E 0 90 18 60
        E 0 90 24 60
        E 0 90 40 60
        E 0 90 48 60
        E 0 90 4c 60
        E 0 90 54 60
        E 0 90 58 60
        E 0 90 60 60
        E 0 90 64 60
        E 0 90 78 60
        E 0 90 79 60
        E 0 90 7a 60
        E 0 90 7b 60
        E 0 90 7c 60
        E 120 80 18 00
        E 0 80 24 00
        E 0 80 40 00
        E 0 80 48 00
        E 0 80 4c 00
        E 0 80 54 00
        E 0 80 58 00
        E 0 80 60 00
        E 0 80 64 00
        E 120 90 18 60
        E 0 90 19 60
        E 0 90 24 60
        E 0 90 54 60
        E 0 90 58 60
        E 0 90 60 60
        E 0 90 64 60
        E 120 80 18 00
        E 0 80 24 00
        E 0 80 54 00
        E 0 80 58 00
        E 0 80 60 00
        E 0 80 64 00
        E 120 80 19 00
        E 0 90 1a 60
        E 0 90 24 60
        E 0 90 3d 60
        E 0 90 40 60
        E 0 90 49 60
        E 0 90 4c 60
        E 0 90 55 60
        E 0 90 58 60
        E 0 90 61 60
        E 0 90 64 60
        E 120 80 1a 00
        E 0 80 24 00
        E 0 80 3d 00
        E 0 80 40 00
        E 0 80 49 00
        E 0 80 4c 00
        E 0 80 55 00
        E 0 80 58 00
        E 0 80 61 00
        E 0 80 64 00
        E 120 90 19 60
        E 0 90 24 60
        E 0 90 58 60
        E 0 90 64 60
        E 120 80 24 00
        E 0 80 58 00
        E 0 80 64 00
        E 120 80 19 00
        E 0 90 18 60
        E 0 90 24 60
        E 0 90 40 60
        E 0 90 48 60
        E 0 90 4c 60
        E 0 90 54 60
        E 0 90 58 60
        E 0 90 60 60
        E 0 90 64 60
        E 120 80 18 00
        E 0 80 24 00
        E 0 80 40 00
        E 0 80 48 00
        E 0 80 4c 00
        E 0 80 54 00
        E 0 80 58 00
        E 0 80 60 00
        E 0 80 64 00
        E 120 90 18 60
        E 0 90 19 60
        E 0 90 24 60
        E 0 90 54 60
        E 0 90 58 60
        E 0 90 60 60
        E 0 90 64 60
        E 120 80 18 00
        E 0 80 24 00
        E 0 80 54 00
        E 0 80 58 00
        E 0 80 60 00
        E 0 80 64 00
        E 120 80 19 00
        E 0 90 1a 60
        E 0 90 24 60
        E 0 90 3d 60
        E 0 90 40 60
        E 0 90 49 60
        E 0 90 4c 60
        E 0 90 55 60
        E 0 90 58 60
        E 0 90 61 60
        E 0 90 64 60
        E 120 80 1a 00
        E 0 80 24 00
        E 0 80 3d 00
        E 0 80 40 00
        E 0 80 49 00
        E 0 80 4c 00
        E 0 80 55 00
        E 0 80 58 00
        E 0 80 61 00
        E 0 80 64 00
        E 120 90 19 60
        E 0 90 1e 60
        E 0 90 24 60
        E 0 90 56 60
        E 0 90 58 60
        E 0 90 62 60
        E 0 90 64 60
        E 120 80 1e 00
        E 0 80 24 00
        E 0 80 56 00
        E 0 80 58 00
        E 0 80 62 00
        E 0 80 64 00
        E 120 80 78 00
        E 0 80 79 00
        E 0 80 7a 00
        E 0 80 7b 00
        E 0 80 7c 00
        E 0 80 19 00
        E 0 90 18 60
        E 0 90 24 60
        E 0 90 40 60
        E 0 90 48 60
        E 0 90 4c 60
        E 0 90 54 60
        E 0 90 58 60
        E 0 90 60 60
        E 0 90 64 60
        E 120 80 18 00
        E 0 80 24 00
        E 0 80 40 00
        E 0 80 48 00
        E 0 80 4c 00
        E 0 80 54 00
        E 0 80 58 00
        E 0 80 60 00
        E 0 80 64 00
        E 120 90 18 60
        E 0 90 19 60
        E 0 90 24 60
        E 0 90 54 60
        E 0 90 58 60
        E 0 90 60 60
        E 0 90 64 60
        E 120 80 18 00
        E 0 80 24 00
        E 0 80 54 00
        E 0 80 58 00
        E 0 80 60 00
        E 0 80 64 00
        E 120 80 19 00
        E 0 90 1a 60
        E 0 90 24 60
        E 0 90 3d 60
        E 0 90 40 60
        E 0 90 49 60
        E 0 90 4c 60
        E 0 90 55 60
        E 0 90 58 60
        E 0 90 61 60
        E 0 90 64 60
        E 120 80 1a 00
        E 0 80 24 00
        E 0 80 3d 00
        E 0 80 40 00
        E 0 80 49 00
        E 0 80 4c 00
        E 0 80 55 00
        E 0 80 58 00
        E 0 80 61 00
        E 0 80 64 00
        E 120 90 19 60
        E 0 90 24 60
        E 0 90 58 60
        E 0 90 64 60
        E 120 80 24 00
        E 0 80 58 00
        E 0 80 64 00
        E 120 80 19 00
        E 0 90 18 60
        E 0 90 24 60
        E 0 90 40 60
        E 0 90 48 60
        E 0 90 4c 60
        E 0 90 54 60
        E 0 90 58 60
        E 0 90 60 60
        E 0 90 64 60
        E 120 80 18 00
        E 0 80 24 00
        E 0 80 40 00
        E 0 80 48 00
        E 0 80 4c 00
        E 0 80 54 00
        E 0 80 58 00
        E 0 80 60 00
        E 0 80 64 00
        E 120 90 18 60
        E 0 90 19 60
        E 0 90 24 60
        E 0 90 54 60
        E 0 90 58 60
        E 0 90 60 60
        E 0 90 64 60
        E 120 80 18 00
        E 0 80 24 00
        E 0 80 54 00
        E 0 80 58 00
        E 0 80 60 00
        E 0 80 64 00
        E 120 80 19 00
        E 0 90 1a 60
        E 0 90 24 60
        E 0 90 3d 60
        E 0 90 40 60
        E 0 90 49 60
        E 0 90 4c 60
        E 0 90 55 60
        E 0 90 58 60
        E 0 90 61 60
        E 0 90 64 60
        E 120 80 1a 00
        E 0 80 24 00
        E 0 80 3d 00
        E 0 80 40 00
        E 0 80 49 00
        E 0 80 4c 00
        E 0 80 55 00
        E 0 80 58 00
        E 0 80 61 00
        E 0 80 64 00
        E 120 90 19 60
        E 0 90 24 60
        E 0 90 58 60
        E 0 90 64 60
        E 120 80 24 00
        E 0 80 58 00
        E 0 80 64 00
        E 120 80 19 00
        E 0 90 18 60
        E 0 90 24 60
        E 0 90 40 60
        E 0 90 48 60
        E 0 90 4c 60
        E 0 90 54 60
        E 0 90 58 60
        E 0 90 60 60
        E 0 90 64 60
        E 120 80 18 00
        E 0 80 24 00
        E 0 80 40 00
        E 0 80 48 00
        E 0 80 4c 00
        E 0 80 54 00
        E 0 80 58 00
        E 0 80 60 00
        E 0 80 64 00
        E 120 90 18 60
        E 0 90 19 60
        E 0 90 24 60
        E 0 90 54 60
        E 0 90 58 60
        E 0 90 60 60
        E 0 90 64 60
        E 120 80 18 00
        E 0 80 24 00
        E 0 80 54 00
        E 0 80 58 00
        E 0 80 60 00
        E 0 80 64 00
        E 120 80 19 00
        E 0 90 1a 60
        E 0 90 24 60
        E 0 90 3d 60
        E 0 90 40 60
        E 0 90 49 60
        E 0 90 4c 60
        E 0 90 55 60
        E 0 90 58 60
        E 0 90 61 60
        E 0 90 64 60
        E 120 80 1a 00
        E 0 80 24 00
        E 0 80 3d 00
        E 0 80 40 00
        E 0 80 49 00
        E 0 80 4c 00
        E 0 80 55 00
        E 0 80 58 00
        E 0 80 61 00
        E 0 80 64 00
        E 120 90 19 60
        E 0 90 24 60
        E 0 90 58 60
        E 0 90 64 60
        E 120 80 24 00
        E 0 80 58 00
        E 0 80 64 00
        E 120 80 19 00
        E 0 90 18 60
        E 0 90 24 60
        E 0 90 40 60
        E 0 90 48 60
        E 0 90 4c 60
        E 0 90 54 60
        E 0 90 58 60
        E 0 90 60 60
        E 0 90 64 60
        E 120 80 18 00
        E 0 80 24 00
        E 0 80 40 00
        E 0 80 48 00
        E 0 80 4c 00
        E 0 80 54 00
        E 0 80 58 00
        E 0 80 60 00
        E 0 80 64 00
        E 120 90 18 60
        E 0 90 19 60
        E 0 90 24 60
        E 0 90 54 60
        E 0 90 58 60
        E 0 90 60 60
        E 0 90 64 60
        E 120 80 18 00
        E 0 80 24 00
        E 0 80 54 00
        E 0 80 58 00
        E 0 80 60 00
        E 0 80 64 00
        E 120 80 19 00
        E 0 90 1a 60
        E 0 90 24 60
        E 0 90 3d 60
        E 0 90 40 60
        E 0 90 49 60
        E 0 90 4c 60
        E 0 90 55 60
        E 0 90 58 60
        E 0 90 61 60
        E 0 90 64 60
        E 120 80 1a 00
        E 0 80 24 00
        E 0 80 3d 00
        E 0 80 40 00
        E 0 80 49 00
        E 0 80 4c 00
        E 0 80 55 00
        E 0 80 58 00
        E 0 80 61 00
        E 0 80 64 00
        E 120 90 19 60
        E 0 90 1e 60
        E 0 90 24 60
        E 0 90 56 60
        E 0 90 58 60
        E 0 90 62 60
        E 0 90 64 60
        E 120 80 1e 00
        E 0 80 24 00
        E 0 80 56 00
        E 0 80 58 00
        E 0 80 62 00
        E 0 80 64 00
        E 120 80 19 00
        E 0 90 18 60
        E 0 90 24 60
        E 0 90 40 60
        E 0 90 48 60
        E 0 90 4c 60
        E 0 90 54 60
        E 0 90 58 60
        E 0 90 60 60
        E 0 90 64 60
        E 120 80 18 00
        E 0 80 24 00
        E 0 80 40 00
        E 0 80 48 00
        E 0 80 4c 00
        E 0 80 54 00
        E 0 80 58 00
        E 0 80 60 00
        E 0 80 64 00
        E 120 90 18 60
        E 0 90 19 60
        E 0 90 24 60
        E 0 90 54 60
        E 0 90 58 60
        E 0 90 60 60
        E 0 90 64 60
        E 120 80 18 00
        E 0 80 24 00
        E 0 80 54 00
        E 0 80 58 00
        E 0 80 60 00
        E 0 80 64 00
        E 120 80 19 00
        E 0 90 1a 60
        E 0 90 24 60
        E 0 90 3d 60
        E 0 90 40 60
        E 0 90 49 60
        E 0 90 4c 60
        E 0 90 55 60
        E 0 90 58 60
        E 0 90 61 60
        E 0 90 64 60
        E 120 80 1a 00
        E 0 80 24 00
        E 0 80 3d 00
        E 0 80 40 00
        E 0 80 49 00
        E 0 80 4c 00
        E 0 80 55 00
        E 0 80 58 00
        E 0 80 61 00
        E 0 80 64 00
        E 120 90 19 60
        E 0 90 24 60
        E 0 90 58 60
        E 0 90 64 60
        E 120 80 24 00
        E 0 80 58 00
        E 0 80 64 00
        E 120 80 19 00
        E 0 90 18 60
        E 0 90 24 60
        E 0 90 40 60
        E 0 90 48 60
        E 0 90 4c 60
        E 0 90 54 60
        E 0 90 58 60
        E 0 90 60 60
        E 0 90 64 60
        E 120 80 18 00
        E 0 80 24 00
        E 0 80 40 00
        E 0 80 48 00
        E 0 80 4c 00
        E 0 80 54 00
        E 0 80 58 00
        E 0 80 60 00
        E 0 80 64 00
        E 120 90 18 60
        E 0 90 19 60
        E 0 90 24 60
        E 0 90 54 60
        E 0 90 58 60
        E 0 90 60 60
        E 0 90 64 60
        E 120 80 18 00
        E 0 80 24 00
        E 0 80 54 00
        E 0 80 58 00
        E 0 80 60 00
        E 0 80 64 00
        E 120 80 19 00
        E 0 90 1a 60
        E 0 90 24 60
        E 0 90 3d 60
        E 0 90 40 60
        E 0 90 49 60
        E 0 90 4c 60
        E 0 90 55 60
        E 0 90 58 60
        E 0 90 61 60
        E 0 90 64 60
        E 120 80 1a 00
        E 0 80 24 00
        E 0 80 3d 00
        E 0 80 40 00
        E 0 80 49 00
        E 0 80 4c 00
        E 0 80 55 00
        E 0 80 58 00
        E 0 80 61 00
        E 0 80 64 00
        E 120 90 19 60
        E 0 90 24 60
        E 0 90 58 60
        E 0 90 64 60
        E 120 80 24 00
        E 0 80 58 00
        E 0 80 64 00
        E 120 80 19 00
        E 0 90 18 60
        E 0 90 24 60
        E 0 90 40 60
        E 0 90 48 60
        E 0 90 4c 60
        E 0 90 54 60
        E 0 90 58 60
        E 0 90 60 60
        E 0 90 64 60
        E 120 80 18 00
        E 0 80 24 00
        E 0 80 40 00
        E 0 80 48 00
        E 0 80 4c 00
        E 0 80 54 00
        E 0 80 58 00
        E 0 80 60 00
        E 0 80 64 00
        E 120 90 18 60
        E 0 90 19 60
        E 0 90 24 60
        E 0 90 54 60
        E 0 90 58 60
        E 0 90 60 60
        E 0 90 64 60
        E 120 80 18 00
        E 0 80 24 00
        E 0 80 54 00
        E 0 80 58 00
        E 0 80 60 00
        E 0 80 64 00
        E 120 80 19 00
        E 0 90 1a 60
        E 0 90 24 60
        E 0 90 3d 60
        E 0 90 40 60
        E 0 90 49 60
        E 0 90 4c 60
        E 0 90 55 60
        E 0 90 58 60
        E 0 90 61 60
        E 0 90 64 60
        E 120 80 1a 00
        E 0 80 24 00
        E 0 80 3d 00
        E 0 80 40 00
        E 0 80 49 00
        E 0 80 4c 00
        E 0 80 55 00
        E 0 80 58 00
        E 0 80 61 00
        E 0 80 64 00
        E 120 90 19 60
        E 0 90 24 60
        E 0 90 58 60
        E 0 90 64 60
        E 120 80 24 00
        E 0 80 58 00
        E 0 80 64 00
        E 120 80 19 00
        E 0 90 18 60
        E 0 90 1b 60
        E 0 90 3d 60
        E 0 90 49 60
        E 0 90 54 60
        E 0 90 55 60
        E 0 90 60 60
        E 0 90 61 60
        E 120 80 18 00
        E 0 80 1b 00
        E 0 80 3d 00
        E 0 80 49 00
        E 0 80 54 00
        E 0 80 55 00
        E 0 80 60 00
        E 0 80 61 00
        E 0 90 1a 60
        E 0 90 61 60
        E 120 80 1a 00
        E 0 80 61 00
        E 0 90 18 60
        E 0 90 19 60
        E 0 90 1b 60
        E 0 90 54 60
        E 0 90 55 60
        E 0 90 60 60
        E 0 90 61 60
        E 120 80 18 00
        E 0 80 1b 00
        E 0 80 54 00
        E 0 80 55 00
        E 0 80 60 00
        E 0 80 61 00
        E 0 90 1a 60
        E 0 90 61 60
        E 120 80 19 00
        E 0 80 1a 00
        E 0 80 61 00
        E 0 90 1b 60
        E 0 90 3d 60
        E 0 90 49 60
        E 0 90 55 60
        E 0 90 61 60
        E 120 80 1b 00
        E 0 80 3d 00
        E 0 80 49 00
        E 0 80 55 00
        E 0 80 61 00
        E 0 90 1a 60
        E 0 90 61 60
        E 120 80 1a 00
        E 0 80 61 00
        E 0 90 19 60
        E 0 90 1b 60
        E 0 90 55 60
        E 0 90 61 60
        E 120 80 1b 00
        E 0 80 55 00
        E 0 80 61 00
        E 0 90 1a 60
        E 0 90 61 60
        E 120 80 19 00
        E 0 80 1a 00
        E 0 80 61 00
        <X 479 0
          /wFbaWRsZV9yZWFsdGltZV0=
        >
        E 1441 b0 7b 00
        GUID {83509A52-DAF9-4499-B056-8F04261E2D69}
        IGNTEMPO 0 120.00000000 4 4
        SRCCOLOR 3
        VELLANE 131 128 60
        COLORMAP "C:\Program Files\REAPER (x64)\Data\color_maps\rockband_guitarbass.png"
        CFGEDITVIEW -1170.534793 69.848485 0 12 0 0 0
        CFGEDIT 1 1 0 1 1 0 1 1 1 1 1 0.25000000 -8 -8 1544 872 0 2 1 1 0.00000000 0 1 0 0 0.500000 0 0 1.000000 64
        KEYSNAP 0 6 "102030050700" 0 "Pentatonic"
        EVTFILTER 0 -1 -1 -1 -1 0 1 0 0 -1.00000000 -1.00000000
      >
    >
  >
  <TRACK '{70B3558B-ACF6-48F1-BD9E-BE3DE2D4A86E}'
    NAME "PART BASS"
    PEAKCOL 16576
    BEAT -1
    AUTOMODE 0
    VOLPAN 1.00000000000000 0.00000000000000 -1.00000000000000 -1.00000000000000 1.00000000000000
    MUTESOLO 0 0 0
    IPHASE 0
    ISBUS 0 0
    BUSCOMP 0 0
    SHOWINMIX 1 0.666700 0.500000 1 0.500000 -1 -1 -1
    FREEMODE 0
    SEL 0
    REC 0 0 0 0 0 0 0
    VU 2
    TRACKHEIGHT 0 0
    INQ 0 0 0 0.5000000000 100 0 0 100
    NCHAN 2
    FX 1
    TRACKID {70B3558B-ACF6-48F1-BD9E-BE3DE2D4A86E}
    PERF 0
    MIDIOUT -1
    <MIDINOTENAMES
      0 127 "TRILL MARKER"
      0 126 "TREMOLO MARKER"
      0 125 "---"
      0 124 "BRE"
      0 123 "BRE"
      0 122 "BRE"
      0 121 "BRE"
      0 120 "BRE (use all 5)"
      0 119 "----"
      0 116 "OVERDRIVE"
      0 115 "----"
      0 103 "Solo Marker"
      0 102 "Force HOPO Off"
      0 101 "Force HOPO On"
      0 100 "EXPERT Orange"
      0 99 "EXPERT Blue"
      0 98 "EXPERT Yellow"
      0 97 "EXPERT Red"
      0 96 "EXPERT Green"
      0 95 "----"
      0 90 "Force HOPO Off"
      0 89 "Force HOPO On"
      0 88 "HARD Orange"
      0 87 "HARD Blue"
      0 86 "HARD Yellow"
      0 85 "HARD Red"
      0 84 "HARD Green"
      0 77 "----"
      0 76 "MEDIUM Orange"
      0 75 "MEDIUM Blue"
      0 74 "MEDIUM Yellow"
      0 73 "MEDIUM Red"
      0 72 "MEDIUM Green"
      0 65 "----"
      0 64 "EASY Orange"
      0 63 "EASY Blue"
      0 62 "EASY Yellow"
      0 61 "EASY Red"
      0 60 "EASY Green"
      0 59 "Fret 12"
      0 57 "Fret 11"
      0 56 "Fret 10"
      0 55 "Fret 9"
      0 53 "Fret 8"
      0 52 "Fret 7"
      0 50 "Fret 6"
      0 49 "Fret 5"
      0 47 "Fret 4"
      0 45 "Fret 3"
      0 43 "Fret 2"
      0 40 "Fret 1"
    >
    MAINSEND 1 0
    <FXCHAIN
      WNDRECT 0 43 891 559
      SHOW 0
      LASTSEL 0
      DOCKED 0
      BYPASS 0 0
      <VST "VSTi: RBN Preview (RBN)" "rbprev_vst64.dll" 0 ""
        dnBicu5e7f4AAAAAAgAAAAEAAAAAAAAAAgAAAAAAAAAEAAAAAQAAAA==
        AAAQAAMAqgAAABAAAAA=
      >
      FLOATPOS 0 0 0 0
      FXID {9DA5D407-4E30-43FA-B654-7FE5299F16A4}
      WAK 0
    >
    <ITEM
      POSITION 0.00000000000000
      SNAPOFFS 0.00000000000000
      LENGTH 144.00200000000001
      LOOP 0
      ALLTAKES 0
      SEL 0
      FADEIN 1 0.000000 0.000000 1 0
      FADEOUT 1 0.000000 0.000000 1 0
      MUTE 0
      IGUID {6E55A846-B2A6-42AD-B78F-955EA9A5B85F}
      IID 2
      NAME "PART BASS"
      VOLPAN 1.000000 0.000000 1.000000 -1.000000
      SOFFS 0.00000000000000 0.00000000000000
      PLAYRATE 1.00000000000000 1 0.00000000000000 -1
      CHANMODE 0
      GUID {1087C7CC-0067-46D6-A6E8-068D6884A9D1}
      <SOURCE MIDI
        HASDATA 1 480 QN
        POOLEDEVTS {05B317C1-9829-4C51-B198-1A2499A2D62D}
        <X 0 0
          /wNQQVJUIEJBU1M=
        >
        <X 3840 0
          /wFbaW50ZW5zZV0=
        >
        E 1920 90 2b 60
        E 0 90 64 60
        E 0 90 58 60
        E 0 90 4b 60
        E 0 90 3e 60
        E 120 80 64 00
        E 0 80 58 00
        E 0 80 4b 00
        E 0 80 3e 00
        E 120 90 64 60
        E 0 90 58 60
        E 120 80 64 00
        E 0 80 58 00
        E 120 90 64 60
        E 0 90 58 60
        E 0 90 4b 60
        E 120 80 64 00
        E 0 80 58 00
        E 0 80 4b 00
        E 120 90 64 60
        E 0 90 58 60
        E 120 80 64 00
        E 0 80 58 00
        E 120 90 64 60
        E 0 90 58 60
        E 0 90 4b 60
        E 0 90 3e 60
        E 120 80 64 00
        E 0 80 58 00
        E 0 80 4b 00
        E 0 80 3e 00
        E 120 90 63 60
        E 0 90 57 60
        E 120 80 63 00
        E 0 80 57 00
        E 120 90 63 60
        E 0 90 57 60
        E 0 90 4b 60
        E 120 80 63 00
        E 0 80 57 00
        E 0 80 4b 00
        E 120 90 63 60
        E 0 90 57 60
        E 120 80 63 00
        E 0 80 57 00
        E 120 90 61 60
        E 0 90 55 60
        E 0 90 49 60
        E 0 90 3c 60
        E 120 80 61 00
        E 0 80 55 00
        E 0 80 49 00
        E 0 80 3c 00
        E 120 90 61 60
        E 0 90 55 60
        E 120 80 61 00
        E 0 80 55 00
        E 120 90 62 60
        E 0 90 56 60
        E 0 90 4a 60
        E 120 80 4a 00
        E 240 80 62 00
        E 0 80 56 00
        E 120 90 61 60
        E 0 90 55 60
        E 0 90 49 60
        E 0 90 3c 60
        E 120 80 61 00
        E 0 80 55 00
        E 0 80 49 00
        E 0 80 3c 00
        E 120 90 61 60
        E 0 90 55 60
        E 120 80 61 00
        E 0 80 55 00
        E 120 90 62 60
        E 0 90 56 60
        E 0 90 4a 60
        E 120 80 4a 00
        E 240 80 62 00
        E 0 80 56 00
        E 120 90 64 60
        E 0 90 58 60
        E 0 90 4b 60
        E 0 90 3e 60
        E 120 80 64 00
        E 0 80 58 00
        E 0 80 4b 00
        E 0 80 3e 00
        E 120 90 64 60
        E 0 90 58 60
        E 120 80 64 00
        E 0 80 58 00
        E 120 90 64 60
        E 0 90 58 60
        E 0 90 4b 60
        E 120 80 64 00
        E 0 80 58 00
        E 0 80 4b 00
        E 120 90 64 60
        E 0 90 58 60
        E 120 80 64 00
        E 0 80 58 00
        E 120 90 64 60
        E 0 90 58 60
        E 0 90 4b 60
        E 0 90 3e 60
        E 120 80 64 00
        E 0 80 58 00
        E 0 80 4b 00
        E 0 80 3e 00
        E 120 90 63 60
        E 0 90 57 60
        E 120 80 63 00
        E 0 80 57 00
        E 120 90 63 60
        E 0 90 57 60
        E 0 90 4b 60
        E 120 80 63 00
        E 0 80 57 00
        E 0 80 4b 00
        E 120 90 63 60
        E 0 90 57 60
        E 120 80 63 00
        E 0 80 57 00
        E 120 90 61 60
        E 0 90 55 60
        E 0 90 49 60
        E 0 90 3c 60
        E 120 80 61 00
        E 0 80 55 00
        E 0 80 49 00
        E 0 80 3c 00
        E 120 90 61 60
        E 0 90 55 60
        E 120 80 61 00
        E 0 80 55 00
        E 120 90 62 60
        E 0 90 56 60
        E 0 90 4a 60
        E 120 80 4a 00
        E 240 80 62 00
        E 0 80 56 00
        E 120 90 61 60
        E 0 90 55 60
        E 0 90 49 60
        E 0 90 3c 60
        E 120 80 61 00
        E 0 80 55 00
        E 0 80 49 00
        E 0 80 3c 00
        E 120 90 61 60
        E 0 90 55 60
        E 120 80 61 00
        E 0 80 55 00
        E 120 90 62 60
        E 0 90 56 60
        E 0 90 4a 60
        E 120 80 4a 00
        E 240 80 62 00
        E 0 80 56 00
        E 120 90 64 60
        E 0 90 58 60
        E 0 90 4b 60
        E 0 90 3e 60
        E 120 80 64 00
        E 0 80 58 00
        E 0 80 4b 00
        E 0 80 3e 00
        E 120 90 64 60
        E 0 90 58 60
        E 120 80 64 00
        E 0 80 58 00
        E 120 90 64 60
        E 0 90 58 60
        E 0 90 4b 60
        E 120 80 64 00
        E 0 80 58 00
        E 0 80 4b 00
        E 120 90 64 60
        E 0 90 58 60
        E 120 80 64 00
        E 0 80 58 00
        E 120 90 64 60
        E 0 90 58 60
        E 0 90 4b 60
        E 0 90 3e 60
        E 120 80 64 00
        E 0 80 58 00
        E 0 80 4b 00
        E 0 80 3e 00
        E 120 90 63 60
        E 0 90 57 60
        E 120 80 63 00
        E 0 80 57 00
        E 120 90 63 60
        E 0 90 57 60
        E 0 90 4b 60
        E 120 80 63 00
        E 0 80 57 00
        E 0 80 4b 00
        E 120 90 63 60
        E 0 90 57 60
        E 120 80 63 00
        E 0 80 57 00
        E 120 90 61 60
        E 0 90 55 60
        E 0 90 49 60
        E 0 90 3c 60
        E 120 80 61 00
        E 0 80 55 00
        E 0 80 49 00
        E 0 80 3c 00
        E 120 90 61 60
        E 0 90 55 60
        E 120 80 61 00
        E 0 80 55 00
        E 120 90 62 60
        E 0 90 56 60
        E 0 90 4a 60
        E 120 80 4a 00
        E 240 80 62 00
        E 0 80 56 00
        E 120 90 61 60
        E 0 90 55 60
        E 0 90 49 60
        E 0 90 3c 60
        E 120 80 61 00
        E 0 80 55 00
        E 0 80 49 00
        E 0 80 3c 00
        E 120 90 61 60
        E 0 90 55 60
        E 120 80 61 00
        E 0 80 55 00
        E 120 90 62 60
        E 0 90 56 60
        E 0 90 4a 60
        E 120 80 4a 00
        E 240 80 62 00
        E 0 80 56 00
        E 120 90 64 60
        E 0 90 74 60
        E 0 90 58 60
        E 0 90 4b 60
        E 0 90 3e 60
        E 120 80 64 00
        E 0 80 58 00
        E 0 80 4b 00
        E 0 80 3e 00
        E 120 90 64 60
        E 0 90 58 60
        E 120 80 64 00
        E 0 80 58 00
        E 120 90 64 60
        E 0 90 58 60
        E 0 90 4b 60
        E 120 80 64 00
        E 0 80 58 00
        E 0 80 4b 00
        E 120 90 64 60
        E 0 90 58 60
        E 120 80 64 00
        E 0 80 58 00
        E 120 90 64 60
        E 0 90 58 60
        E 0 90 4b 60
        E 0 90 3e 60
        E 120 80 64 00
        E 0 80 58 00
        E 0 80 4b 00
        E 0 80 3e 00
        E 120 90 63 60
        E 0 90 57 60
        E 120 80 63 00
        E 0 80 57 00
        E 120 90 63 60
        E 0 90 57 60
        E 0 90 4b 60
        E 120 80 63 00
        E 0 80 57 00
        E 0 80 4b 00
        E 120 90 63 60
        E 0 90 57 60
        E 120 80 63 00
        E 0 80 57 00
        E 120 90 61 60
        E 0 90 55 60
        E 0 90 49 60
        E 0 90 3c 60
        E 120 80 61 00
        E 0 80 55 00
        E 0 80 49 00
        E 0 80 3c 00
        E 120 90 61 60
        E 0 90 55 60
        E 120 80 61 00
        E 0 80 55 00
        E 120 90 62 60
        E 0 90 56 60
        E 0 90 4a 60
        E 120 80 4a 00
        E 240 80 62 00
        E 0 80 56 00
        E 120 90 61 60
        E 0 90 55 60
        E 0 90 49 60
        E 0 90 3c 60
        E 120 80 61 00
        E 0 80 55 00
        E 0 80 49 00
        E 0 80 3c 00
        E 120 90 61 60
        E 0 90 55 60
        E 120 80 61 00
        E 0 80 55 00
        E 120 90 62 60
        E 0 90 56 60
        E 0 90 4a 60
        E 120 80 4a 00
        E 240 80 62 00
        E 0 80 56 00
        <X 120 0
          /wFbcGxheV0=
        >
        E 0 80 74 00
        E 0 90 62 60
        E 0 90 56 60
        E 0 90 4a 60
        E 0 90 3d 60
        E 120 80 62 00
        E 0 80 56 00
        E 0 80 4a 00
        E 0 80 3d 00
        E 120 90 62 60
        E 0 90 56 60
        E 120 80 62 00
        E 0 80 56 00
        E 120 90 62 60
        E 0 90 56 60
        E 0 90 4a 60
        E 120 80 62 00
        E 0 80 56 00
        E 0 80 4a 00
        E 120 90 62 60
        E 0 90 56 60
        E 120 80 62 00
        E 0 80 56 00
        E 120 90 62 60
        E 0 90 56 60
        E 0 90 4a 60
        E 0 90 3d 60
        E 120 80 62 00
        E 0 80 56 00
        E 0 80 4a 00
        E 0 80 3d 00
        E 120 90 62 60
        E 0 90 56 60
        E 120 80 62 00
        E 0 80 56 00
        E 120 90 62 60
        E 0 90 56 60
        E 0 90 4a 60
        E 120 80 4a 00
        E 240 80 62 00
        E 0 80 56 00
        E 120 90 60 60
        E 0 90 54 60
        E 0 90 48 60
        E 0 90 3c 60
        E 120 80 60 00
        E 0 80 54 00
        E 0 80 48 00
        E 0 80 3c 00
        E 120 90 60 60
        E 0 90 54 60
        E 120 80 60 00
        E 0 80 54 00
        E 120 90 60 60
        E 0 90 54 60
        E 0 90 48 60
        E 120 80 60 00
        E 0 80 54 00
        E 0 80 48 00
        E 120 90 60 60
        E 0 90 54 60
        E 120 80 60 00
        E 0 80 54 00
        E 120 90 60 60
        E 0 90 54 60
        E 0 90 48 60
        E 0 90 3c 60
        E 120 80 60 00
        E 0 80 54 00
        E 0 80 48 00
        E 0 80 3c 00
        E 120 90 60 60
        E 0 90 54 60
        E 120 80 60 00
        E 0 80 54 00
        E 120 90 60 60
        E 0 90 54 60
        E 0 90 48 60
        E 120 80 60 00
        E 0 80 54 00
        E 0 80 48 00
        E 120 90 60 60
        E 0 90 54 60
        E 120 80 60 00
        E 0 80 54 00
        E 120 90 62 60
        E 0 90 56 60
        E 0 90 4a 60
        E 0 90 3d 60
        E 120 80 62 00
        E 0 80 56 00
        E 0 80 4a 00
        E 0 80 3d 00
        E 120 90 62 60
        E 0 90 56 60
        E 120 80 62 00
        E 0 80 56 00
        E 120 90 62 60
        E 0 90 56 60
        E 0 90 4a 60
        E 120 80 62 00
        E 0 80 56 00
        E 0 80 4a 00
        E 120 90 62 60
        E 0 90 56 60
        E 120 80 62 00
        E 0 80 56 00
        E 120 90 62 60
        E 0 90 56 60
        E 0 90 4a 60
        E 0 90 3d 60
        E 120 80 62 00
        E 0 80 56 00
        E 0 80 4a 00
        E 0 80 3d 00
        E 120 90 62 60
        E 0 90 56 60
        E 120 80 62 00
        E 0 80 56 00
        E 119 90 62 60
        E 0 90 56 60
        E 0 90 4a 60
        E 120 80 4a 00
        E 1 80 62 00
        E 0 80 56 00
        E 120 90 62 60
        E 0 90 56 60
        E 120 80 62 00
        E 0 80 56 00
        E 119 90 60 60
        E 0 90 54 60
        E 0 90 48 60
        E 0 90 3c 60
        E 120 80 60 00
        E 0 80 54 00
        E 0 80 48 00
        E 0 80 3c 00
        E 121 90 60 60
        E 0 90 54 60
        E 120 80 60 00
        E 0 80 54 00
        E 119 90 60 60
        E 0 90 54 60
        E 0 90 48 60
        E 120 80 60 00
        E 0 80 54 00
        E 0 80 48 00
        E 121 90 60 60
        E 0 90 54 60
        E 120 80 60 00
        E 0 80 54 00
        E 120 90 60 60
        E 0 90 54 60
        E 0 90 48 60
        E 0 90 3c 60
        E 120 80 60 00
        E 0 80 54 00
        E 0 80 48 00
        E 0 80 3c 00
        E 120 90 60 60
        E 0 90 54 60
        E 120 80 60 00
        E 0 80 54 00
        E 120 90 60 60
        E 0 90 54 60
        E 0 90 48 60
        E 120 80 60 00
        E 0 80 54 00
        E 0 80 48 00
        E 120 90 60 60
        E 0 90 54 60
        E 120 80 60 00
        E 0 80 54 00
        E 120 90 62 60
        E 0 90 56 60
        E 0 90 4a 60
        E 0 90 3d 60
        E 120 80 62 00
        E 0 80 56 00
        E 0 80 4a 00
        E 0 80 3d 00
        E 120 90 62 60
        E 0 90 56 60
        E 120 80 62 00
        E 0 80 56 00
        E 120 90 62 60
        E 0 90 56 60
        E 0 90 4a 60
        E 120 80 62 00
        E 0 80 56 00
        E 0 80 4a 00
        E 120 90 62 60
        E 0 90 56 60
        E 120 80 62 00
        E 0 80 56 00
        E 120 90 62 60
        E 0 90 56 60
        E 0 90 4a 60
        E 0 90 3d 60
        E 120 80 62 00
        E 0 80 56 00
        E 0 80 4a 00
        E 0 80 3d 00
        E 120 90 62 60
        E 0 90 56 60
        E 120 80 62 00
        E 0 80 56 00
        E 119 90 62 60
        E 0 90 56 60
        E 0 90 4a 60
        E 120 80 4a 00
        E 1 80 62 00
        E 0 80 56 00
        E 120 90 62 60
        E 0 90 56 60
        E 120 80 62 00
        E 0 80 56 00
        E 119 90 60 60
        E 0 90 54 60
        E 0 90 48 60
        E 0 90 3c 60
        E 120 80 60 00
        E 0 80 54 00
        E 0 80 48 00
        E 0 80 3c 00
        E 121 90 60 60
        E 0 90 54 60
        E 120 80 60 00
        E 0 80 54 00
        E 119 90 60 60
        E 0 90 54 60
        E 0 90 48 60
        E 120 80 60 00
        E 0 80 54 00
        E 0 80 48 00
        E 121 90 60 60
        E 0 90 54 60
        E 120 80 60 00
        E 0 80 54 00
        E 120 90 60 60
        E 0 90 54 60
        E 0 90 48 60
        E 0 90 3c 60
        E 120 80 60 00
        E 0 80 54 00
        E 0 80 48 00
        E 0 80 3c 00
        E 120 90 60 60
        E 0 90 54 60
        E 120 80 60 00
        E 0 80 54 00
        E 120 90 60 60
        E 0 90 54 60
        E 0 90 48 60
        E 120 80 60 00
        E 0 80 54 00
        E 0 80 48 00
        E 120 90 60 60
        E 0 90 54 60
        E 120 80 60 00
        E 0 80 54 00
        E 120 90 62 60
        E 0 90 56 60
        E 0 90 4a 60
        E 0 90 3d 60
        E 120 80 62 00
        E 0 80 56 00
        E 0 80 4a 00
        E 0 80 3d 00
        E 120 90 62 60
        E 0 90 56 60
        E 120 80 62 00
        E 0 80 56 00
        E 120 90 62 60
        E 0 90 56 60
        E 0 90 4a 60
        E 120 80 62 00
        E 0 80 56 00
        E 0 80 4a 00
        E 120 90 62 60
        E 0 90 56 60
        E 120 80 62 00
        E 0 80 56 00
        E 120 90 62 60
        E 0 90 56 60
        E 0 90 4a 60
        E 0 90 3d 60
        E 120 80 62 00
        E 0 80 56 00
        E 0 80 4a 00
        E 0 80 3d 00
        E 120 90 62 60
        E 0 90 56 60
        E 120 80 62 00
        E 0 80 56 00
        E 119 90 62 60
        E 0 90 56 60
        E 0 90 4a 60
        E 120 80 4a 00
        E 1 80 62 00
        E 0 80 56 00
        E 120 90 62 60
        E 0 90 56 60
        E 120 80 62 00
        E 0 80 56 00
        E 119 90 60 60
        E 0 90 54 60
        E 0 90 48 60
        E 0 90 3c 60
        E 120 80 60 00
        E 0 80 54 00
        E 0 80 48 00
        E 0 80 3c 00
        E 121 90 60 60
        E 0 90 54 60
        E 120 80 60 00
        E 0 80 54 00
        E 119 90 60 60
        E 0 90 54 60
        E 0 90 48 60
        E 120 80 60 00
        E 0 80 54 00
        E 0 80 48 00
        E 121 90 60 60
        E 0 90 54 60
        E 120 80 60 00
        E 0 80 54 00
        E 120 90 60 60
        E 0 90 54 60
        E 0 90 48 60
        E 0 90 3c 60
        E 120 80 60 00
        E 0 80 54 00
        E 0 80 48 00
        E 0 80 3c 00
        E 120 90 60 60
        E 0 90 54 60
        E 120 80 60 00
        E 0 80 54 00
        E 120 90 60 60
        E 0 90 54 60
        E 0 90 48 60
        E 120 80 60 00
        E 0 80 54 00
        E 0 80 48 00
        E 120 90 60 60
        E 0 90 54 60
        E 120 80 60 00
        E 0 80 54 00
        E 120 90 62 60
        E 0 90 74 60
        E 0 90 56 60
        E 0 90 4a 60
        E 0 90 3d 60
        E 120 80 62 00
        E 0 80 56 00
        E 0 80 4a 00
        E 0 80 3d 00
        E 120 90 62 60
        E 0 90 56 60
        E 120 80 62 00
        E 0 80 56 00
        E 120 90 62 60
        E 0 90 56 60
        E 0 90 4a 60
        E 120 80 62 00
        E 0 80 56 00
        E 0 80 4a 00
        E 120 90 62 60
        E 0 90 56 60
        E 120 80 62 00
        E 0 80 56 00
        E 120 90 62 60
        E 0 90 56 60
        E 0 90 4a 60
        E 0 90 3d 60
        E 120 80 62 00
        E 0 80 56 00
        E 0 80 4a 00
        E 0 80 3d 00
        E 120 90 62 60
        E 0 90 56 60
        E 120 80 62 00
        E 0 80 56 00
        E 119 90 62 60
        E 0 90 56 60
        E 0 90 4a 60
        E 120 80 4a 00
        E 1 80 62 00
        E 0 80 56 00
        E 120 90 62 60
        E 0 90 56 60
        E 120 80 62 00
        E 0 80 56 00
        E 119 90 60 60
        E 0 90 54 60
        E 0 90 48 60
        E 0 90 3c 60
        E 120 80 60 00
        E 0 80 54 00
        E 0 80 48 00
        E 0 80 3c 00
        E 1 80 74 00
        E 120 90 60 60
        E 0 90 54 60
        E 120 80 60 00
        E 0 80 54 00
        E 119 90 60 60
        E 0 90 54 60
        E 0 90 48 60
        E 120 80 60 00
        E 0 80 54 00
        E 0 80 48 00
        E 121 90 60 60
        E 0 90 54 60
        E 120 80 60 00
        E 0 80 54 00
        E 120 90 60 60
        E 0 90 54 60
        E 0 90 48 60
        E 0 90 3c 60
        E 120 80 60 00
        E 0 80 54 00
        E 0 80 48 00
        E 0 80 3c 00
        E 120 90 60 60
        E 0 90 54 60
        E 120 80 60 00
        E 0 80 54 00
        E 120 90 60 60
        E 0 90 54 60
        E 0 90 48 60
        E 120 80 60 00
        E 0 80 54 00
        E 0 80 48 00
        E 120 90 60 60
        E 0 90 54 60
        E 120 80 60 00
        E 0 80 54 00
        E 120 90 62 60
        E 0 90 56 60
        E 0 90 4a 60
        E 0 90 3d 60
        E 120 80 62 00
        E 0 80 56 00
        E 0 80 4a 00
        E 0 80 3d 00
        E 120 90 62 60
        E 0 90 56 60
        E 120 80 62 00
        E 0 80 56 00
        E 120 90 62 60
        E 0 90 56 60
        E 0 90 4a 60
        E 120 80 62 00
        E 0 80 56 00
        E 0 80 4a 00
        E 120 90 62 60
        E 0 90 56 60
        E 120 80 62 00
        E 0 80 56 00
        E 120 90 62 60
        E 0 90 56 60
        E 0 90 4a 60
        E 0 90 3d 60
        E 120 80 62 00
        E 0 80 56 00
        E 0 80 4a 00
        E 0 80 3d 00
        E 120 90 62 60
        E 0 90 56 60
        E 120 80 62 00
        E 0 80 56 00
        E 119 90 62 60
        E 0 90 56 60
        E 0 90 4a 60
        E 120 80 4a 00
        E 1 80 62 00
        E 0 80 56 00
        E 120 90 62 60
        E 0 90 56 60
        E 120 80 62 00
        E 0 80 56 00
        E 119 90 60 60
        E 0 90 54 60
        E 0 90 48 60
        E 0 90 3c 60
        E 120 80 60 00
        E 0 80 54 00
        E 0 80 48 00
        E 0 80 3c 00
        E 121 90 60 60
        E 0 90 54 60
        E 120 80 60 00
        E 0 80 54 00
        E 119 90 60 60
        E 0 90 54 60
        E 0 90 48 60
        E 120 80 60 00
        E 0 80 54 00
        E 0 80 48 00
        E 121 90 60 60
        E 0 90 54 60
        E 120 80 60 00
        E 0 80 54 00
        E 120 90 60 60
        E 0 90 54 60
        E 0 90 48 60
        E 0 90 3c 60
        E 120 80 60 00
        E 0 80 54 00
        E 0 80 48 00
        E 0 80 3c 00
        E 120 90 60 60
        E 0 90 54 60
        E 120 80 60 00
        E 0 80 54 00
        E 120 90 60 60
        E 0 90 54 60
        E 0 90 48 60
        E 120 80 60 00
        E 0 80 54 00
        E 0 80 48 00
        E 120 90 60 60
        E 0 90 54 60
        E 120 80 60 00
        E 0 80 54 00
        E 120 90 62 60
        E 0 90 56 60
        E 0 90 4a 60
        E 0 90 3d 60
        E 120 80 62 00
        E 0 80 56 00
        E 0 80 4a 00
        E 0 80 3d 00
        E 120 90 62 60
        E 0 90 56 60
        E 120 80 62 00
        E 0 80 56 00
        E 120 90 62 60
        E 0 90 56 60
        E 0 90 4a 60
        E 120 80 62 00
        E 0 80 56 00
        E 0 80 4a 00
        E 120 90 62 60
        E 0 90 56 60
        E 120 80 62 00
        E 0 80 56 00
        E 120 90 62 60
        E 0 90 56 60
        E 0 90 4a 60
        E 0 90 3d 60
        E 120 80 62 00
        E 0 80 56 00
        E 0 80 4a 00
        E 0 80 3d 00
        E 120 90 62 60
        E 0 90 56 60
        E 120 80 62 00
        E 0 80 56 00
        E 119 90 62 60
        E 0 90 56 60
        E 0 90 4a 60
        E 120 80 4a 00
        E 1 80 62 00
        E 0 80 56 00
        E 120 90 62 60
        E 0 90 56 60
        E 120 80 62 00
        E 0 80 56 00
        E 119 90 60 60
        E 0 90 54 60
        E 0 90 48 60
        E 0 90 3c 60
        E 120 80 60 00
        E 0 80 54 00
        E 0 80 48 00
        E 0 80 3c 00
        E 121 90 60 60
        E 0 90 54 60
        E 120 80 60 00
        E 0 80 54 00
        E 119 90 60 60
        E 0 90 54 60
        E 0 90 48 60
        E 120 80 60 00
        E 0 80 54 00
        E 0 80 48 00
        E 121 90 60 60
        E 0 90 54 60
        E 120 80 60 00
        E 0 80 54 00
        E 120 90 60 60
        E 0 90 54 60
        E 0 90 48 60
        E 0 90 3c 60
        E 120 80 60 00
        E 0 80 54 00
        E 0 80 48 00
        E 0 80 3c 00
        E 120 90 60 60
        E 0 90 54 60
        E 120 80 60 00
        E 0 80 54 00
        E 120 90 60 60
        E 0 90 54 60
        E 0 90 48 60
        E 120 80 60 00
        E 0 80 54 00
        E 0 80 48 00
        E 120 90 60 60
        E 0 90 54 60
        E 120 80 60 00
        E 0 80 54 00
        E 120 90 62 60
        E 0 90 56 60
        E 0 90 4a 60
        E 0 90 3d 60
        E 120 80 62 00
        E 0 80 56 00
        E 0 80 4a 00
        E 0 80 3d 00
        E 120 90 62 60
        E 0 90 56 60
        E 120 80 62 00
        E 0 80 56 00
        E 120 90 62 60
        E 0 90 56 60
        E 0 90 4a 60
        E 120 80 62 00
        E 0 80 56 00
        E 0 80 4a 00
        E 120 90 62 60
        E 0 90 56 60
        E 120 80 62 00
        E 0 80 56 00
        E 120 90 62 60
        E 0 90 56 60
        E 0 90 4a 60
        E 0 90 3d 60
        E 120 80 62 00
        E 0 80 56 00
        E 0 80 4a 00
        E 0 80 3d 00
        E 120 90 62 60
        E 0 90 56 60
        E 120 80 62 00
        E 0 80 56 00
        E 119 90 62 60
        E 0 90 56 60
        E 0 90 4a 60
        E 120 80 4a 00
        E 1 80 62 00
        E 0 80 56 00
        E 120 90 62 60
        E 0 90 56 60
        E 120 80 62 00
        E 0 80 56 00
        E 119 90 64 60
        E 0 90 58 60
        E 0 90 4b 60
        E 0 90 3e 60
        E 120 80 64 00
        E 0 80 58 00
        E 0 80 4b 00
        E 0 80 3e 00
        E 121 90 64 60
        E 0 90 58 60
        E 120 80 64 00
        E 0 80 58 00
        E 119 90 64 60
        E 0 90 58 60
        E 0 90 4b 60
        E 120 80 64 00
        E 0 80 58 00
        E 0 80 4b 00
        E 121 90 64 60
        E 0 90 58 60
        E 120 80 64 00
        E 0 80 58 00
        E 120 90 64 60
        E 0 90 58 60
        E 0 90 4b 60
        E 0 90 3e 60
        E 120 80 64 00
        E 0 80 58 00
        E 0 80 4b 00
        E 0 80 3e 00
        E 120 90 64 60
        E 0 90 58 60
        E 120 80 64 00
        E 0 80 58 00
        E 120 90 64 60
        E 0 90 58 60
        E 0 90 4b 60
        E 120 80 64 00
        E 0 80 58 00
        E 0 80 4b 00
        E 120 90 64 60
        E 0 90 58 60
        E 120 80 64 00
        E 0 80 58 00
        <X 120 0
          /wFbaW50ZW5zZV0=
        >
        E 0 90 64 60
        E 0 90 58 60
        E 0 90 4b 60
        E 0 90 3e 60
        E 120 80 64 00
        E 0 80 58 00
        E 0 80 4b 00
        E 0 80 3e 00
        E 120 90 64 60
        E 0 90 58 60
        E 120 80 64 00
        E 0 80 58 00
        E 120 90 64 60
        E 0 90 58 60
        E 0 90 4b 60
        E 120 80 64 00
        E 0 80 58 00
        E 0 80 4b 00
        E 120 90 64 60
        E 0 90 58 60
        E 120 80 64 00
        E 0 80 58 00
        E 120 90 64 60
        E 0 90 58 60
        E 0 90 4b 60
        E 0 90 3e 60
        E 120 80 64 00
        E 0 80 58 00
        E 0 80 4b 00
        E 0 80 3e 00
        E 120 90 63 60
        E 0 90 57 60
        E 120 80 63 00
        E 0 80 57 00
        E 120 90 63 60
        E 0 90 57 60
        E 0 90 4b 60
        E 120 80 63 00
        E 0 80 57 00
        E 0 80 4b 00
        E 120 90 63 60
        E 0 90 57 60
        E 120 80 63 00
        E 0 80 57 00
        E 120 90 61 60
        E 0 90 55 60
        E 0 90 49 60
        E 0 90 3c 60
        E 120 80 61 00
        E 0 80 55 00
        E 0 80 49 00
        E 0 80 3c 00
        E 120 90 61 60
        E 0 90 55 60
        E 120 80 61 00
        E 0 80 55 00
        E 120 90 62 60
        E 0 90 56 60
        E 0 90 4a 60
        E 120 80 4a 00
        E 240 80 62 00
        E 0 80 56 00
        E 120 90 61 60
        E 0 90 55 60
        E 0 90 49 60
        E 0 90 3c 60
        E 120 80 61 00
        E 0 80 55 00
        E 0 80 49 00
        E 0 80 3c 00
        E 120 90 61 60
        E 0 90 55 60
        E 120 80 61 00
        E 0 80 55 00
        E 120 90 62 60
        E 0 90 56 60
        E 0 90 4a 60
        E 120 80 4a 00
        E 240 80 62 00
        E 0 80 56 00
        E 120 90 64 60
        E 0 90 58 60
        E 0 90 4b 60
        E 0 90 3e 60
        E 120 80 64 00
        E 0 80 58 00
        E 0 80 4b 00
        E 0 80 3e 00
        E 120 90 64 60
        E 0 90 58 60
        E 120 80 64 00
        E 0 80 58 00
        E 120 90 64 60
        E 0 90 58 60
        E 0 90 4b 60
        E 120 80 64 00
        E 0 80 58 00
        E 0 80 4b 00
        E 120 90 64 60
        E 0 90 58 60
        E 120 80 64 00
        E 0 80 58 00
        E 120 90 64 60
        E 0 90 58 60
        E 0 90 4b 60
        E 0 90 3e 60
        E 120 80 64 00
        E 0 80 58 00
        E 0 80 4b 00
        E 0 80 3e 00
        E 120 90 63 60
        E 0 90 57 60
        E 120 80 63 00
        E 0 80 57 00
        E 120 90 63 60
        E 0 90 57 60
        E 0 90 4b 60
        E 120 80 63 00
        E 0 80 57 00
        E 0 80 4b 00
        E 120 90 63 60
        E 0 90 57 60
        E 120 80 63 00
        E 0 80 57 00
        E 120 90 61 60
        E 0 90 55 60
        E 0 90 49 60
        E 0 90 3c 60
        E 120 80 61 00
        E 0 80 55 00
        E 0 80 49 00
        E 0 80 3c 00
        E 120 90 61 60
        E 0 90 55 60
        E 120 80 61 00
        E 0 80 55 00
        E 120 90 62 60
        E 0 90 56 60
        E 0 90 4a 60
        E 120 80 4a 00
        E 240 80 62 00
        E 0 80 56 00
        E 120 90 61 60
        E 0 90 55 60
        E 0 90 49 60
        E 0 90 3c 60
        E 120 80 61 00
        E 0 80 55 00
        E 0 80 49 00
        E 0 80 3c 00
        E 120 90 61 60
        E 0 90 55 60
        E 120 80 61 00
        E 0 80 55 00
        E 120 90 62 60
        E 0 90 56 60
        E 0 90 4a 60
        E 120 80 4a 00
        E 240 80 62 00
        E 0 80 56 00
        E 120 90 64 60
        E 0 90 74 60
        E 0 90 58 60
        E 0 90 4b 60
        E 0 90 3e 60
        E 120 80 64 00
        E 0 80 58 00
        E 0 80 4b 00
        E 0 80 3e 00
        E 120 90 64 60
        E 0 90 58 60
        E 120 80 64 00
        E 0 80 58 00
        E 120 90 64 60
        E 0 90 58 60
        E 0 90 4b 60
        E 120 80 64 00
        E 0 80 58 00
        E 0 80 4b 00
        E 120 90 64 60
        E 0 90 58 60
        E 120 80 64 00
        E 0 80 58 00
        E 120 90 64 60
        E 0 90 58 60
        E 0 90 4b 60
        E 0 90 3e 60
        E 120 80 64 00
        E 0 80 58 00
        E 0 80 4b 00
        E 0 80 3e 00
        E 120 90 63 60
        E 0 90 57 60
        E 120 80 63 00
        E 0 80 57 00
        E 120 90 63 60
        E 0 90 57 60
        E 0 90 4b 60
        E 120 80 63 00
        E 0 80 57 00
        E 0 80 4b 00
        E 120 90 63 60
        E 0 90 57 60
        E 120 80 63 00
        E 0 80 57 00
        E 120 80 74 00
        E 0 90 61 60
        E 0 90 55 60
        E 0 90 49 60
        E 0 90 3c 60
        E 120 80 61 00
        E 0 80 55 00
        E 0 80 49 00
        E 0 80 3c 00
        E 120 90 61 60
        E 0 90 55 60
        E 120 80 61 00
        E 0 80 55 00
        E 120 90 62 60
        E 0 90 56 60
        E 0 90 4a 60
        E 120 80 4a 00
        E 240 80 62 00
        E 0 80 56 00
        E 120 90 61 60
        E 0 90 55 60
        E 0 90 49 60
        E 0 90 3c 60
        E 120 80 61 00
        E 0 80 55 00
        E 0 80 49 00
        E 0 80 3c 00
        E 120 90 61 60
        E 0 90 55 60
        E 120 80 61 00
        E 0 80 55 00
        E 120 90 62 60
        E 0 90 56 60
        E 0 90 4a 60
        E 120 80 4a 00
        E 240 80 62 00
        E 0 80 56 00
        E 120 90 64 60
        E 0 90 58 60
        E 0 90 4b 60
        E 0 90 3e 60
        E 120 80 64 00
        E 0 80 58 00
        E 0 80 4b 00
        E 0 80 3e 00
        E 120 90 64 60
        E 0 90 58 60
        E 120 80 64 00
        E 0 80 58 00
        E 120 90 64 60
        E 0 90 58 60
        E 0 90 4b 60
        E 120 80 64 00
        E 0 80 58 00
        E 0 80 4b 00
        E 120 90 64 60
        E 0 90 58 60
        E 120 80 64 00
        E 0 80 58 00
        E 120 90 64 60
        E 0 90 58 60
        E 0 90 4b 60
        E 0 90 3e 60
        E 120 80 64 00
        E 0 80 58 00
        E 0 80 4b 00
        E 0 80 3e 00
        E 120 90 63 60
        E 0 90 57 60
        E 120 80 63 00
        E 0 80 57 00
        E 120 90 63 60
        E 0 90 57 60
        E 0 90 4b 60
        E 120 80 63 00
        E 0 80 57 00
        E 0 80 4b 00
        E 120 90 63 60
        E 0 90 57 60
        E 120 80 63 00
        E 0 80 57 00
        E 120 90 61 60
        E 0 90 74 60
        E 0 90 55 60
        E 0 90 49 60
        E 0 90 3c 60
        E 120 80 61 00
        E 0 80 55 00
        E 0 80 49 00
        E 0 80 3c 00
        E 120 90 61 60
        E 0 90 55 60
        E 120 80 61 00
        E 0 80 55 00
        E 120 90 62 60
        E 0 90 56 60
        E 0 90 4a 60
        E 120 80 4a 00
        E 240 80 62 00
        E 0 80 56 00
        E 120 90 61 60
        E 0 90 55 60
        E 0 90 49 60
        E 0 90 3c 60
        E 120 80 61 00
        E 0 80 55 00
        E 0 80 49 00
        E 0 80 3c 00
        E 120 90 61 60
        E 0 90 55 60
        E 120 80 61 00
        E 0 80 55 00
        E 120 90 62 60
        E 0 90 56 60
        E 0 90 4a 60
        E 120 80 4a 00
        E 240 80 62 00
        E 0 80 56 00
        <X 120 0
          /wFbcGxheV0=
        >
        E 0 80 74 00
        E 0 90 62 60
        E 0 90 56 60
        E 0 90 4a 60
        E 0 90 3d 60
        E 120 80 62 00
        E 0 80 56 00
        E 0 80 4a 00
        E 0 80 3d 00
        E 120 90 62 60
        E 0 90 56 60
        E 120 80 62 00
        E 0 80 56 00
        E 120 90 62 60
        E 0 90 56 60
        E 0 90 4a 60
        E 120 80 62 00
        E 0 80 56 00
        E 0 80 4a 00
        E 120 90 62 60
        E 0 90 56 60
        E 120 80 62 00
        E 0 80 56 00
        E 120 90 62 60
        E 0 90 56 60
        E 0 90 4a 60
        E 0 90 3d 60
        E 120 80 62 00
        E 0 80 56 00
        E 0 80 4a 00
        E 0 80 3d 00
        E 120 90 62 60
        E 0 90 56 60
        E 120 80 62 00
        E 0 80 56 00
        E 120 90 62 60
        E 0 90 56 60
        E 0 90 4a 60
        E 120 80 4a 00
        E 240 80 62 00
        E 0 80 56 00
        E 120 90 60 60
        E 0 90 54 60
        E 0 90 48 60
        E 0 90 3c 60
        E 120 80 60 00
        E 0 80 54 00
        E 0 80 48 00
        E 0 80 3c 00
        E 120 90 60 60
        E 0 90 54 60
        E 120 80 60 00
        E 0 80 54 00
        E 120 90 60 60
        E 0 90 54 60
        E 0 90 48 60
        E 120 80 60 00
        E 0 80 54 00
        E 0 80 48 00
        E 120 90 60 60
        E 0 90 54 60
        E 120 80 60 00
        E 0 80 54 00
        E 120 90 60 60
        E 0 90 54 60
        E 0 90 48 60
        E 0 90 3c 60
        E 120 80 60 00
        E 0 80 54 00
        E 0 80 48 00
        E 0 80 3c 00
        E 120 90 60 60
        E 0 90 54 60
        E 120 80 60 00
        E 0 80 54 00
        E 120 90 60 60
        E 0 90 54 60
        E 0 90 48 60
        E 120 80 60 00
        E 0 80 54 00
        E 0 80 48 00
        E 120 90 60 60
        E 0 90 54 60
        E 120 80 60 00
        E 0 80 54 00
        E 120 90 62 60
        E 0 90 56 60
        E 0 90 4a 60
        E 0 90 3d 60
        E 120 80 62 00
        E 0 80 56 00
        E 0 80 4a 00
        E 0 80 3d 00
        E 120 90 62 60
        E 0 90 56 60
        E 120 80 62 00
        E 0 80 56 00
        E 120 90 62 60
        E 0 90 56 60
        E 0 90 4a 60
        E 120 80 62 00
        E 0 80 56 00
        E 0 80 4a 00
        E 120 90 62 60
        E 0 90 56 60
        E 120 80 62 00
        E 0 80 56 00
        E 120 90 62 60
        E 0 90 56 60
        E 0 90 4a 60
        E 0 90 3d 60
        E 120 80 62 00
        E 0 80 56 00
        E 0 80 4a 00
        E 0 80 3d 00
        E 120 90 62 60
        E 0 90 56 60
        E 120 80 62 00
        E 0 80 56 00
        E 119 90 62 60
        E 0 90 56 60
        E 0 90 4a 60
        E 120 80 4a 00
        E 1 80 62 00
        E 0 80 56 00
        E 120 90 62 60
        E 0 90 56 60
        E 120 80 62 00
        E 0 80 56 00
        E 119 90 60 60
        E 0 90 54 60
        E 0 90 48 60
        E 0 90 3c 60
        E 120 80 60 00
        E 0 80 54 00
        E 0 80 48 00
        E 0 80 3c 00
        E 121 90 60 60
        E 0 90 54 60
        E 120 80 60 00
        E 0 80 54 00
        E 119 90 60 60
        E 0 90 54 60
        E 0 90 48 60
        E 120 80 60 00
        E 0 80 54 00
        E 0 80 48 00
        E 121 90 60 60
        E 0 90 54 60
        E 120 80 60 00
        E 0 80 54 00
        E 120 90 60 60
        E 0 90 54 60
        E 0 90 48 60
        E 0 90 3c 60
        E 120 80 60 00
        E 0 80 54 00
        E 0 80 48 00
        E 0 80 3c 00
        E 120 90 60 60
        E 0 90 54 60
        E 120 80 60 00
        E 0 80 54 00
        E 120 90 60 60
        E 0 90 54 60
        E 0 90 48 60
        E 120 80 60 00
        E 0 80 54 00
        E 0 80 48 00
        E 120 90 60 60
        E 0 90 54 60
        E 120 80 60 00
        E 0 80 54 00
        E 120 90 62 60
        E 0 90 56 60
        E 0 90 4a 60
        E 0 90 3d 60
        E 120 80 62 00
        E 0 80 56 00
        E 0 80 4a 00
        E 0 80 3d 00
        E 120 90 62 60
        E 0 90 56 60
        E 120 80 62 00
        E 0 80 56 00
        E 120 90 62 60
        E 0 90 56 60
        E 0 90 4a 60
        E 120 80 62 00
        E 0 80 56 00
        E 0 80 4a 00
        E 120 90 62 60
        E 0 90 56 60
        E 120 80 62 00
        E 0 80 56 00
        E 120 90 62 60
        E 0 90 56 60
        E 0 90 4a 60
        E 0 90 3d 60
        E 120 80 62 00
        E 0 80 56 00
        E 0 80 4a 00
        E 0 80 3d 00
        E 120 90 62 60
        E 0 90 56 60
        E 120 80 62 00
        E 0 80 56 00
        E 119 90 62 60
        E 0 90 56 60
        E 0 90 4a 60
        E 120 80 4a 00
        E 1 80 62 00
        E 0 80 56 00
        E 120 90 62 60
        E 0 90 56 60
        E 120 80 62 00
        E 0 80 56 00
        E 119 90 60 60
        E 0 90 54 60
        E 0 90 48 60
        E 0 90 3c 60
        E 120 80 60 00
        E 0 80 54 00
        E 0 80 48 00
        E 0 80 3c 00
        E 121 90 60 60
        E 0 90 54 60
        E 120 80 60 00
        E 0 80 54 00
        E 119 90 60 60
        E 0 90 54 60
        E 0 90 48 60
        E 120 80 60 00
        E 0 80 54 00
        E 0 80 48 00
        E 121 90 60 60
        E 0 90 54 60
        E 120 80 60 00
        E 0 80 54 00
        E 120 90 60 60
        E 0 90 54 60
        E 0 90 48 60
        E 0 90 3c 60
        E 120 80 60 00
        E 0 80 54 00
        E 0 80 48 00
        E 0 80 3c 00
        E 120 90 60 60
        E 0 90 54 60
        E 120 80 60 00
        E 0 80 54 00
        E 120 90 60 60
        E 0 90 54 60
        E 0 90 48 60
        E 120 80 60 00
        E 0 80 54 00
        E 0 80 48 00
        E 120 90 60 60
        E 0 90 54 60
        E 120 80 60 00
        E 0 80 54 00
        E 120 90 62 60
        E 0 90 74 60
        E 0 90 56 60
        E 0 90 4a 60
        E 0 90 3d 60
        E 120 80 62 00
        E 0 80 56 00
        E 0 80 4a 00
        E 0 80 3d 00
        E 120 90 62 60
        E 0 90 56 60
        E 120 80 62 00
        E 0 80 56 00
        E 120 90 62 60
        E 0 90 56 60
        E 0 90 4a 60
        E 120 80 62 00
        E 0 80 56 00
        E 0 80 4a 00
        E 120 90 62 60
        E 0 90 56 60
        E 120 80 62 00
        E 0 80 56 00
        E 120 90 62 60
        E 0 90 56 60
        E 0 90 4a 60
        E 0 90 3d 60
        E 120 80 62 00
        E 0 80 56 00
        E 0 80 4a 00
        E 0 80 3d 00
        E 120 90 62 60
        E 0 90 56 60
        E 120 80 62 00
        E 0 80 56 00
        E 119 90 62 60
        E 0 90 56 60
        E 0 90 4a 60
        E 120 80 4a 00
        E 1 80 62 00
        E 0 80 56 00
        E 120 90 62 60
        E 0 90 56 60
        E 120 80 62 00
        E 0 80 56 00
        E 119 90 60 60
        E 0 90 54 60
        E 0 90 48 60
        E 0 90 3c 60
        E 120 80 60 00
        E 0 80 54 00
        E 0 80 48 00
        E 0 80 3c 00
        E 121 90 60 60
        E 0 90 54 60
        E 120 80 60 00
        E 0 80 54 00
        E 119 90 60 60
        E 0 90 54 60
        E 0 90 48 60
        E 120 80 60 00
        E 0 80 54 00
        E 0 80 48 00
        E 121 90 60 60
        E 0 90 54 60
        E 120 80 60 00
        E 0 80 54 00
        E 120 90 60 60
        E 0 90 54 60
        E 0 90 48 60
        E 0 90 3c 60
        E 120 80 60 00
        E 0 80 54 00
        E 0 80 48 00
        E 0 80 3c 00
        E 120 90 60 60
        E 0 90 54 60
        E 120 80 60 00
        E 0 80 54 00
        E 120 90 60 60
        E 0 90 54 60
        E 0 90 48 60
        E 120 80 60 00
        E 0 80 54 00
        E 0 80 48 00
        E 120 90 60 60
        E 0 90 54 60
        E 120 80 60 00
        E 0 80 54 00
        E 120 80 74 00
        E 0 90 62 60
        E 0 90 56 60
        E 0 90 4a 60
        E 0 90 3d 60
        E 120 80 62 00
        E 0 80 56 00
        E 0 80 4a 00
        E 0 80 3d 00
        E 120 90 62 60
        E 0 90 56 60
        E 120 80 62 00
        E 0 80 56 00
        E 120 90 62 60
        E 0 90 56 60
        E 0 90 4a 60
        E 120 80 62 00
        E 0 80 56 00
        E 0 80 4a 00
        E 120 90 62 60
        E 0 90 56 60
        E 120 80 62 00
        E 0 80 56 00
        E 120 90 62 60
        E 0 90 56 60
        E 0 90 4a 60
        E 0 90 3d 60
        E 120 80 62 00
        E 0 80 56 00
        E 0 80 4a 00
        E 0 80 3d 00
        E 120 90 62 60
        E 0 90 56 60
        E 120 80 62 00
        E 0 80 56 00
        E 119 90 62 60
        E 0 90 56 60
        E 0 90 4a 60
        E 120 80 4a 00
        E 1 80 62 00
        E 0 80 56 00
        E 120 90 62 60
        E 0 90 56 60
        E 120 80 62 00
        E 0 80 56 00
        E 119 90 60 60
        E 0 90 54 60
        E 0 90 48 60
        E 0 90 3c 60
        E 120 80 60 00
        E 0 80 54 00
        E 0 80 48 00
        E 0 80 3c 00
        E 121 90 60 60
        E 0 90 54 60
        E 120 80 60 00
        E 0 80 54 00
        E 119 90 60 60
        E 0 90 54 60
        E 0 90 48 60
        E 120 80 60 00
        E 0 80 54 00
        E 0 80 48 00
        E 121 90 60 60
        E 0 90 54 60
        E 120 80 60 00
        E 0 80 54 00
        E 120 90 60 60
        E 0 90 54 60
        E 0 90 48 60
        E 0 90 3c 60
        E 120 80 60 00
        E 0 80 54 00
        E 0 80 48 00
        E 0 80 3c 00
        E 120 90 60 60
        E 0 90 54 60
        E 120 80 60 00
        E 0 80 54 00
        E 120 90 60 60
        E 0 90 54 60
        E 0 90 48 60
        E 120 80 60 00
        E 0 80 54 00
        E 0 80 48 00
        E 120 90 60 60
        E 0 90 54 60
        E 120 80 60 00
        E 0 80 54 00
        E 120 90 62 60
        E 0 90 56 60
        E 0 90 4a 60
        E 0 90 3d 60
        E 120 80 62 00
        E 0 80 56 00
        E 0 80 4a 00
        E 0 80 3d 00
        E 120 90 62 60
        E 0 90 56 60
        E 120 80 62 00
        E 0 80 56 00
        E 120 90 62 60
        E 0 90 56 60
        E 0 90 4a 60
        E 120 80 62 00
        E 0 80 56 00
        E 0 80 4a 00
        E 120 90 62 60
        E 0 90 56 60
        E 120 80 62 00
        E 0 80 56 00
        E 120 90 62 60
        E 0 90 56 60
        E 0 90 4a 60
        E 0 90 3d 60
        E 120 80 62 00
        E 0 80 56 00
        E 0 80 4a 00
        E 0 80 3d 00
        E 120 90 62 60
        E 0 90 56 60
        E 120 80 62 00
        E 0 80 56 00
        E 119 90 62 60
        E 0 90 56 60
        E 0 90 4a 60
        E 120 80 4a 00
        E 1 80 62 00
        E 0 80 56 00
        E 120 90 62 60
        E 0 90 56 60
        E 120 80 62 00
        E 0 80 56 00
        E 119 90 60 60
        E 0 90 54 60
        E 0 90 48 60
        E 0 90 3c 60
        E 120 80 60 00
        E 0 80 54 00
        E 0 80 48 00
        E 0 80 3c 00
        E 121 90 60 60
        E 0 90 54 60
        E 120 80 60 00
        E 0 80 54 00
        E 119 90 60 60
        E 0 90 54 60
        E 0 90 48 60
        E 120 80 60 00
        E 0 80 54 00
        E 0 80 48 00
        E 121 90 60 60
        E 0 90 54 60
        E 120 80 60 00
        E 0 80 54 00
        E 120 90 60 60
        E 0 90 54 60
        E 0 90 48 60
        E 0 90 3c 60
        E 120 80 60 00
        E 0 80 54 00
        E 0 80 48 00
        E 0 80 3c 00
        E 120 90 60 60
        E 0 90 54 60
        E 120 80 60 00
        E 0 80 54 00
        E 120 90 60 60
        E 0 90 54 60
        E 0 90 48 60
        E 120 80 60 00
        E 0 80 54 00
        E 0 80 48 00
        E 120 90 60 60
        E 0 90 54 60
        E 120 80 60 00
        E 0 80 54 00
        E 120 90 62 60
        E 0 90 56 60
        E 0 90 4a 60
        E 0 90 3d 60
        E 120 80 62 00
        E 0 80 56 00
        E 0 80 4a 00
        E 0 80 3d 00
        E 120 90 62 60
        E 0 90 56 60
        E 120 80 62 00
        E 0 80 56 00
        E 120 90 62 60
        E 0 90 56 60
        E 0 90 4a 60
        E 120 80 62 00
        E 0 80 56 00
        E 0 80 4a 00
        E 120 90 62 60
        E 0 90 56 60
        E 120 80 62 00
        E 0 80 56 00
        E 120 90 62 60
        E 0 90 56 60
        E 0 90 4a 60
        E 0 90 3d 60
        E 120 80 62 00
        E 0 80 56 00
        E 0 80 4a 00
        E 0 80 3d 00
        E 120 90 62 60
        E 0 90 56 60
        E 120 80 62 00
        E 0 80 56 00
        E 119 90 62 60
        E 0 90 56 60
        E 0 90 4a 60
        E 120 80 4a 00
        E 1 80 62 00
        E 0 80 56 00
        E 120 90 62 60
        E 0 90 56 60
        E 120 80 62 00
        E 0 80 56 00
        E 119 90 60 60
        E 0 90 54 60
        E 0 90 48 60
        E 0 90 3c 60
        E 120 80 60 00
        E 0 80 54 00
        E 0 80 48 00
        E 0 80 3c 00
        E 121 90 60 60
        E 0 90 54 60
        E 120 80 60 00
        E 0 80 54 00
        E 119 90 60 60
        E 0 90 54 60
        E 0 90 48 60
        E 120 80 60 00
        E 0 80 54 00
        E 0 80 48 00
        E 121 90 60 60
        E 0 90 54 60
        E 120 80 60 00
        E 0 80 54 00
        E 120 90 60 60
        E 0 90 54 60
        E 0 90 48 60
        E 0 90 3c 60
        E 120 80 60 00
        E 0 80 54 00
        E 0 80 48 00
        E 0 80 3c 00
        E 120 90 60 60
        E 0 90 54 60
        E 120 80 60 00
        E 0 80 54 00
        E 120 90 60 60
        E 0 90 54 60
        E 0 90 48 60
        E 120 80 60 00
        E 0 80 54 00
        E 0 80 48 00
        E 120 90 60 60
        E 0 90 54 60
        E 120 80 60 00
        E 0 80 54 00
        E 120 90 62 60
        E 0 90 56 60
        E 0 90 4a 60
        E 0 90 3d 60
        E 120 80 62 00
        E 0 80 56 00
        E 0 80 4a 00
        E 0 80 3d 00
        E 120 90 62 60
        E 0 90 56 60
        E 120 80 62 00
        E 0 80 56 00
        E 120 90 62 60
        E 0 90 56 60
        E 0 90 4a 60
        E 120 80 62 00
        E 0 80 56 00
        E 0 80 4a 00
        E 120 90 62 60
        E 0 90 56 60
        E 120 80 62 00
        E 0 80 56 00
        E 120 90 62 60
        E 0 90 56 60
        E 0 90 4a 60
        E 0 90 3d 60
        E 120 80 62 00
        E 0 80 56 00
        E 0 80 4a 00
        E 0 80 3d 00
        E 120 90 62 60
        E 0 90 56 60
        E 120 80 62 00
        E 0 80 56 00
        E 119 90 62 60
        E 0 90 56 60
        E 0 90 4a 60
        E 120 80 4a 00
        E 1 80 62 00
        E 0 80 56 00
        E 120 90 62 60
        E 0 90 56 60
        E 120 80 62 00
        E 0 80 56 00
        E 119 90 64 60
        E 0 90 58 60
        E 0 90 4b 60
        E 0 90 3e 60
        E 120 80 64 00
        E 0 80 58 00
        E 0 80 4b 00
        E 0 80 3e 00
        E 121 90 64 60
        E 0 90 58 60
        E 120 80 64 00
        E 0 80 58 00
        E 119 90 64 60
        E 0 90 58 60
        E 0 90 4b 60
        E 120 80 64 00
        E 0 80 58 00
        E 0 80 4b 00
        E 121 90 64 60
        E 0 90 58 60
        E 120 80 64 00
        E 0 80 58 00
        E 120 90 64 60
        E 0 90 58 60
        E 0 90 4b 60
        E 0 90 3e 60
        E 120 80 64 00
        E 0 80 58 00
        E 0 80 4b 00
        E 0 80 3e 00
        E 120 90 64 60
        E 0 90 58 60
        E 120 80 64 00
        E 0 80 58 00
        E 120 90 64 60
        E 0 90 58 60
        E 0 90 4b 60
        E 120 80 64 00
        E 0 80 58 00
        E 0 80 4b 00
        E 120 90 64 60
        E 0 90 58 60
        E 120 80 64 00
        E 0 80 58 00
        <X 120 0
          /wFbaW50ZW5zZV0=
        >
        E 0 90 64 60
        E 0 90 58 60
        E 0 90 4b 60
        E 0 90 3e 60
        E 120 80 64 00
        E 0 80 58 00
        E 0 80 4b 00
        E 0 80 3e 00
        E 120 90 64 60
        E 0 90 58 60
        E 120 80 64 00
        E 0 80 58 00
        E 120 90 64 60
        E 0 90 58 60
        E 0 90 4b 60
        E 120 80 64 00
        E 0 80 58 00
        E 0 80 4b 00
        E 120 90 64 60
        E 0 90 58 60
        E 120 80 64 00
        E 0 80 58 00
        E 120 90 64 60
        E 0 90 58 60
        E 0 90 4b 60
        E 0 90 3e 60
        E 120 80 64 00
        E 0 80 58 00
        E 0 80 4b 00
        E 0 80 3e 00
        E 120 90 63 60
        E 0 90 57 60
        E 120 80 63 00
        E 0 80 57 00
        E 120 90 63 60
        E 0 90 57 60
        E 0 90 4b 60
        E 120 80 63 00
        E 0 80 57 00
        E 0 80 4b 00
        E 120 90 63 60
        E 0 90 57 60
        E 120 80 63 00
        E 0 80 57 00
        E 120 90 61 60
        E 0 90 55 60
        E 0 90 49 60
        E 0 90 3c 60
        E 120 80 61 00
        E 0 80 55 00
        E 0 80 49 00
        E 0 80 3c 00
        E 120 90 61 60
        E 0 90 55 60
        E 120 80 61 00
        E 0 80 55 00
        E 120 90 62 60
        E 0 90 56 60
        E 0 90 4a 60
        E 120 80 4a 00
        E 240 80 62 00
        E 0 80 56 00
        E 120 90 61 60
        E 0 90 55 60
        E 0 90 49 60
        E 0 90 3c 60
        E 120 80 61 00
        E 0 80 55 00
        E 0 80 49 00
        E 0 80 3c 00
        E 120 90 61 60
        E 0 90 55 60
        E 120 80 61 00
        E 0 80 55 00
        E 120 90 62 60
        E 0 90 56 60
        E 0 90 4a 60
        E 120 80 4a 00
        E 240 80 62 00
        E 0 80 56 00
        E 120 90 64 60
        E 0 90 58 60
        E 0 90 4b 60
        E 0 90 3e 60
        E 120 80 64 00
        E 0 80 58 00
        E 0 80 4b 00
        E 0 80 3e 00
        E 120 90 64 60
        E 0 90 58 60
        E 120 80 64 00
        E 0 80 58 00
        E 120 90 64 60
        E 0 90 58 60
        E 0 90 4b 60
        E 120 80 64 00
        E 0 80 58 00
        E 0 80 4b 00
        E 120 90 64 60
        E 0 90 58 60
        E 120 80 64 00
        E 0 80 58 00
        E 120 90 64 60
        E 0 90 58 60
        E 0 90 4b 60
        E 0 90 3e 60
        E 120 80 64 00
        E 0 80 58 00
        E 0 80 4b 00
        E 0 80 3e 00
        E 120 90 63 60
        E 0 90 57 60
        E 120 80 63 00
        E 0 80 57 00
        E 120 90 63 60
        E 0 90 57 60
        E 0 90 4b 60
        E 120 80 63 00
        E 0 80 57 00
        E 0 80 4b 00
        E 120 90 63 60
        E 0 90 57 60
        E 120 80 63 00
        E 0 80 57 00
        E 120 90 61 60
        E 0 90 55 60
        E 0 90 49 60
        E 0 90 3c 60
        E 120 80 61 00
        E 0 80 55 00
        E 0 80 49 00
        E 0 80 3c 00
        E 120 90 61 60
        E 0 90 55 60
        E 120 80 61 00
        E 0 80 55 00
        E 120 90 62 60
        E 0 90 56 60
        E 0 90 4a 60
        E 120 80 4a 00
        E 240 80 62 00
        E 0 80 56 00
        E 120 90 61 60
        E 0 90 55 60
        E 0 90 49 60
        E 0 90 3c 60
        E 120 80 61 00
        E 0 80 55 00
        E 0 80 49 00
        E 0 80 3c 00
        E 120 90 61 60
        E 0 90 55 60
        E 120 80 61 00
        E 0 80 55 00
        E 120 90 62 60
        E 0 90 56 60
        E 0 90 4a 60
        E 120 80 4a 00
        E 240 80 62 00
        E 0 80 56 00
        E 120 90 64 60
        E 0 90 74 60
        E 0 90 58 60
        E 0 90 4b 60
        E 0 90 3e 60
        E 120 80 64 00
        E 0 80 58 00
        E 0 80 4b 00
        E 0 80 3e 00
        E 120 90 64 60
        E 0 90 58 60
        E 120 80 64 00
        E 0 80 58 00
        E 120 90 64 60
        E 0 90 58 60
        E 0 90 4b 60
        E 120 80 64 00
        E 0 80 58 00
        E 0 80 4b 00
        E 120 90 64 60
        E 0 90 58 60
        E 120 80 64 00
        E 0 80 58 00
        E 120 90 64 60
        E 0 90 58 60
        E 0 90 4b 60
        E 0 90 3e 60
        E 120 80 64 00
        E 0 80 58 00
        E 0 80 4b 00
        E 0 80 3e 00
        E 120 90 63 60
        E 0 90 57 60
        E 120 80 63 00
        E 0 80 57 00
        E 120 90 63 60
        E 0 90 57 60
        E 0 90 4b 60
        E 120 80 63 00
        E 0 80 57 00
        E 0 80 4b 00
        E 120 90 63 60
        E 0 90 57 60
        E 120 80 63 00
        E 0 80 57 00
        E 120 90 61 60
        E 0 90 55 60
        E 0 90 49 60
        E 0 90 3c 60
        E 120 80 61 00
        E 0 80 55 00
        E 0 80 49 00
        E 0 80 3c 00
        E 120 90 61 60
        E 0 90 55 60
        E 120 80 61 00
        E 0 80 55 00
        E 120 90 62 60
        E 0 90 56 60
        E 0 90 4a 60
        E 120 80 4a 00
        E 240 80 62 00
        E 0 80 56 00
        E 120 90 61 60
        E 0 90 55 60
        E 0 90 49 60
        E 0 90 3c 60
        E 120 80 61 00
        E 0 80 55 00
        E 0 80 49 00
        E 0 80 3c 00
        E 120 90 61 60
        E 0 90 55 60
        E 120 80 61 00
        E 0 80 55 00
        E 120 90 62 60
        E 0 90 56 60
        E 0 90 4a 60
        E 120 80 4a 00
        E 240 80 62 00
        E 0 80 56 00
        E 120 80 74 00
        E 0 90 64 60
        E 0 90 58 60
        E 0 90 4b 60
        E 0 90 3e 60
        E 120 80 64 00
        E 0 80 58 00
        E 0 80 4b 00
        E 0 80 3e 00
        E 120 90 64 60
        E 0 90 58 60
        E 120 80 64 00
        E 0 80 58 00
        E 120 90 64 60
        E 0 90 58 60
        E 0 90 4b 60
        E 120 80 64 00
        E 0 80 58 00
        E 0 80 4b 00
        E 120 90 64 60
        E 0 90 58 60
        E 120 80 64 00
        E 0 80 58 00
        E 120 90 64 60
        E 0 90 58 60
        E 0 90 4b 60
        E 0 90 3e 60
        E 120 80 64 00
        E 0 80 58 00
        E 0 80 4b 00
        E 0 80 3e 00
        E 120 90 63 60
        E 0 90 57 60
        E 120 80 63 00
        E 0 80 57 00
        E 120 90 63 60
        E 0 90 57 60
        E 0 90 4b 60
        E 120 80 63 00
        E 0 80 57 00
        E 0 80 4b 00
        E 120 90 63 60
        E 0 90 57 60
        E 120 80 63 00
        E 0 80 57 00
        E 120 90 61 60
        E 0 90 55 60
        E 0 90 49 60
        E 0 90 3c 60
        E 120 80 61 00
        E 0 80 55 00
        E 0 80 49 00
        E 0 80 3c 00
        E 120 90 61 60
        E 0 90 55 60
        E 120 80 61 00
        E 0 80 55 00
        E 120 90 62 60
        E 0 90 56 60
        E 0 90 4a 60
        E 120 80 4a 00
        E 240 80 62 00
        E 0 80 56 00
        E 120 90 61 60
        E 0 90 55 60
        E 0 90 49 60
        E 0 90 3c 60
        E 120 80 61 00
        E 0 80 55 00
        E 0 80 49 00
        E 0 80 3c 00
        E 120 90 61 60
        E 0 90 55 60
        E 120 80 61 00
        E 0 80 55 00
        E 120 90 62 60
        E 0 90 56 60
        E 0 90 4a 60
        E 120 80 4a 00
        E 240 80 62 00
        E 0 80 56 00
        <X 120 0
          /wFbcGxheV0=
        >
        E 0 90 60 60
        E 0 90 54 60
        E 0 90 48 60
        E 0 90 3c 60
        E 120 80 60 00
        E 0 80 54 00
        E 0 80 48 00
        E 0 80 3c 00
        E 120 90 60 60
        E 0 90 54 60
        E 120 80 60 00
        E 0 80 54 00
        E 120 90 60 60
        E 0 90 54 60
        E 0 90 48 60
        E 120 80 60 00
        E 0 80 54 00
        E 0 80 48 00
        E 120 90 60 60
        E 0 90 54 60
        E 120 80 60 00
        E 0 80 54 00
        E 120 90 60 60
        E 0 90 54 60
        E 0 90 48 60
        E 0 90 3c 60
        E 120 80 60 00
        E 0 80 54 00
        E 0 80 48 00
        E 0 80 3c 00
        E 120 90 60 60
        E 0 90 54 60
        E 120 80 60 00
        E 0 80 54 00
        E 120 90 60 60
        E 0 90 54 60
        E 0 90 48 60
        E 120 80 60 00
        E 0 80 54 00
        E 0 80 48 00
        E 120 90 60 60
        E 0 90 54 60
        E 120 80 60 00
        E 0 80 54 00
        E 120 90 61 60
        E 0 90 55 60
        E 0 90 49 60
        E 0 90 3c 60
        E 120 80 61 00
        E 0 80 55 00
        E 0 80 49 00
        E 0 80 3c 00
        E 121 90 61 60
        E 0 90 55 60
        E 120 80 61 00
        E 0 80 55 00
        E 119 90 61 60
        E 0 90 55 60
        E 0 90 49 60
        E 120 80 61 00
        E 0 80 55 00
        E 0 80 49 00
        E 120 90 61 60
        E 0 90 55 60
        E 120 80 61 00
        E 0 80 55 00
        E 120 90 61 60
        E 0 90 55 60
        E 0 90 49 60
        E 0 90 3c 60
        E 120 80 61 00
        E 0 80 55 00
        E 0 80 49 00
        E 0 80 3c 00
        E 120 90 61 60
        E 0 90 55 60
        E 120 80 61 00
        E 0 80 55 00
        E 121 90 61 60
        E 0 90 55 60
        E 0 90 49 60
        E 120 80 61 00
        E 0 80 55 00
        E 0 80 49 00
        E 119 90 61 60
        E 0 90 55 60
        E 120 80 61 00
        E 0 80 55 00
        E 120 90 62 60
        E 0 90 56 60
        E 0 90 4a 60
        E 0 90 3d 60
        E 120 80 62 00
        E 0 80 56 00
        E 0 80 4a 00
        E 0 80 3d 00
        E 121 90 62 60
        E 0 90 56 60
        E 120 80 62 00
        E 0 80 56 00
        E 119 90 62 60
        E 0 90 56 60
        E 0 90 4a 60
        E 120 80 62 00
        E 0 80 56 00
        E 0 80 4a 00
        E 120 90 62 60
        E 0 90 56 60
        E 120 80 62 00
        E 0 80 56 00
        E 120 90 62 60
        E 0 90 56 60
        E 0 90 4a 60
        E 0 90 3d 60
        E 120 80 62 00
        E 0 80 56 00
        E 0 80 4a 00
        E 0 80 3d 00
        E 120 90 62 60
        E 0 90 56 60
        E 120 80 62 00
        E 0 80 56 00
        E 121 90 62 60
        E 0 90 56 60
        E 0 90 4a 60
        E 120 80 62 00
        E 0 80 56 00
        E 0 80 4a 00
        E 119 90 62 60
        E 0 90 56 60
        E 120 80 62 00
        E 0 80 56 00
        E 120 90 63 60
        E 0 90 57 60
        E 0 90 4b 60
        E 0 90 3e 60
        E 120 80 63 00
        E 0 80 57 00
        E 0 80 4b 00
        E 0 80 3e 00
        E 121 90 63 60
        E 0 90 57 60
        E 120 80 63 00
        E 0 80 57 00
        E 119 90 63 60
        E 0 90 57 60
        E 0 90 4b 60
        E 120 80 63 00
        E 0 80 57 00
        E 0 80 4b 00
        E 120 90 63 60
        E 0 90 57 60
        E 120 80 63 00
        E 0 80 57 00
        E 120 90 63 60
        E 0 90 57 60
        E 0 90 4b 60
        E 0 90 3e 60
        E 120 80 63 00
        E 0 80 57 00
        E 0 80 4b 00
        E 0 80 3e 00
        E 120 90 63 60
        E 0 90 57 60
        E 120 80 63 00
        E 0 80 57 00
        E 121 90 63 60
        E 0 90 57 60
        E 0 90 4b 60
        E 120 80 63 00
        E 0 80 57 00
        E 0 80 4b 00
        E 119 90 63 60
        E 0 90 57 60
        E 120 80 63 00
        E 0 80 57 00
        E 120 90 60 60
        E 0 90 54 60
        E 0 90 48 60
        E 0 90 3c 60
        E 120 80 60 00
        E 0 80 54 00
        E 0 80 48 00
        E 0 80 3c 00
        E 120 90 60 60
        E 0 90 54 60
        E 120 80 60 00
        E 0 80 54 00
        E 120 90 60 60
        E 0 90 54 60
        E 0 90 48 60
        E 120 80 60 00
        E 0 80 54 00
        E 0 80 48 00
        E 120 90 60 60
        E 0 90 54 60
        E 120 80 60 00
        E 0 80 54 00
        E 120 90 60 60
        E 0 90 54 60
        E 0 90 48 60
        E 0 90 3c 60
        E 120 80 60 00
        E 0 80 54 00
        E 0 80 48 00
        E 0 80 3c 00
        E 120 90 60 60
        E 0 90 54 60
        E 120 80 60 00
        E 0 80 54 00
        E 120 90 60 60
        E 0 90 54 60
        E 0 90 48 60
        E 120 80 60 00
        E 0 80 54 00
        E 0 80 48 00
        E 120 90 60 60
        E 0 90 54 60
        E 120 80 60 00
        E 0 80 54 00
        E 120 90 61 60
        E 0 90 55 60
        E 0 90 49 60
        E 0 90 3c 60
        E 120 80 61 00
        E 0 80 55 00
        E 0 80 49 00
        E 0 80 3c 00
        E 121 90 61 60
        E 0 90 55 60
        E 120 80 61 00
        E 0 80 55 00
        E 119 90 61 60
        E 0 90 55 60
        E 0 90 49 60
        E 120 80 61 00
        E 0 80 55 00
        E 0 80 49 00
        E 120 90 61 60
        E 0 90 55 60
        E 120 80 61 00
        E 0 80 55 00
        E 120 90 61 60
        E 0 90 55 60
        E 0 90 49 60
        E 0 90 3c 60
        E 120 80 61 00
        E 0 80 55 00
        E 0 80 49 00
        E 0 80 3c 00
        E 120 90 61 60
        E 0 90 55 60
        E 120 80 61 00
        E 0 80 55 00
        E 121 90 61 60
        E 0 90 55 60
        E 0 90 49 60
        E 120 80 61 00
        E 0 80 55 00
        E 0 80 49 00
        E 119 90 61 60
        E 0 90 55 60
        E 120 80 61 00
        E 0 80 55 00
        E 120 90 62 60
        E 0 90 56 60
        E 0 90 4a 60
        E 0 90 3d 60
        E 120 80 62 00
        E 0 80 56 00
        E 0 80 4a 00
        E 0 80 3d 00
        E 121 90 62 60
        E 0 90 56 60
        E 120 80 62 00
        E 0 80 56 00
        E 119 90 62 60
        E 0 90 56 60
        E 0 90 4a 60
        E 120 80 62 00
        E 0 80 56 00
        E 0 80 4a 00
        E 120 90 62 60
        E 0 90 56 60
        E 120 80 62 00
        E 0 80 56 00
        E 120 90 62 60
        E 0 90 56 60
        E 0 90 4a 60
        E 0 90 3d 60
        E 120 80 62 00
        E 0 80 56 00
        E 0 80 4a 00
        E 0 80 3d 00
        E 120 90 62 60
        E 0 90 56 60
        E 120 80 62 00
        E 0 80 56 00
        E 121 90 62 60
        E 0 90 56 60
        E 0 90 4a 60
        E 120 80 62 00
        E 0 80 56 00
        E 0 80 4a 00
        E 119 90 62 60
        E 0 90 56 60
        E 120 80 62 00
        E 0 80 56 00
        E 120 90 63 60
        E 0 90 57 60
        E 0 90 4b 60
        E 0 90 3e 60
        E 120 80 63 00
        E 0 80 57 00
        E 0 80 4b 00
        E 0 80 3e 00
        E 121 90 63 60
        E 0 90 57 60
        E 120 80 63 00
        E 0 80 57 00
        E 119 90 63 60
        E 0 90 57 60
        E 0 90 4b 60
        E 120 80 63 00
        E 0 80 57 00
        E 0 80 4b 00
        E 120 90 63 60
        E 0 90 57 60
        E 120 80 63 00
        E 0 80 57 00
        E 120 90 63 60
        E 0 90 57 60
        E 0 90 4b 60
        E 0 90 3e 60
        E 120 80 63 00
        E 0 80 57 00
        E 0 80 4b 00
        E 0 80 3e 00
        E 120 90 63 60
        E 0 90 57 60
        E 120 80 63 00
        E 0 80 57 00
        E 121 90 63 60
        E 0 90 57 60
        E 0 90 4b 60
        E 120 80 63 00
        E 0 80 57 00
        E 0 80 4b 00
        E 119 90 63 60
        E 0 90 57 60
        E 120 80 63 00
        E 0 80 57 00
        E 120 90 60 60
        E 0 90 54 60
        E 0 90 48 60
        E 0 90 3c 60
        E 120 80 60 00
        E 0 80 54 00
        E 0 80 48 00
        E 0 80 3c 00
        E 120 90 60 60
        E 0 90 54 60
        E 120 80 60 00
        E 0 80 54 00
        E 120 90 60 60
        E 0 90 54 60
        E 0 90 48 60
        E 120 80 60 00
        E 0 80 54 00
        E 0 80 48 00
        E 120 90 60 60
        E 0 90 54 60
        E 120 80 60 00
        E 0 80 54 00
        E 120 90 60 60
        E 0 90 54 60
        E 0 90 48 60
        E 0 90 3c 60
        E 120 80 60 00
        E 0 80 54 00
        E 0 80 48 00
        E 0 80 3c 00
        E 120 90 60 60
        E 0 90 54 60
        E 120 80 60 00
        E 0 80 54 00
        E 120 90 60 60
        E 0 90 54 60
        E 0 90 48 60
        E 120 80 60 00
        E 0 80 54 00
        E 0 80 48 00
        E 120 90 60 60
        E 0 90 54 60
        E 120 80 60 00
        E 0 80 54 00
        E 120 90 61 60
        E 0 90 55 60
        E 0 90 49 60
        E 0 90 3c 60
        E 120 80 61 00
        E 0 80 55 00
        E 0 80 49 00
        E 0 80 3c 00
        E 121 90 61 60
        E 0 90 55 60
        E 120 80 61 00
        E 0 80 55 00
        E 119 90 61 60
        E 0 90 55 60
        E 0 90 49 60
        E 120 80 61 00
        E 0 80 55 00
        E 0 80 49 00
        E 120 90 61 60
        E 0 90 55 60
        E 120 80 61 00
        E 0 80 55 00
        E 120 90 61 60
        E 0 90 55 60
        E 0 90 49 60
        E 0 90 3c 60
        E 120 80 61 00
        E 0 80 55 00
        E 0 80 49 00
        E 0 80 3c 00
        E 120 90 61 60
        E 0 90 55 60
        E 120 80 61 00
        E 0 80 55 00
        E 121 90 61 60
        E 0 90 55 60
        E 0 90 49 60
        E 120 80 61 00
        E 0 80 55 00
        E 0 80 49 00
        E 119 90 61 60
        E 0 90 55 60
        E 120 80 61 00
        E 0 80 55 00
        E 120 90 62 60
        E 0 90 74 60
        E 0 90 56 60
        E 0 90 4a 60
        E 0 90 3d 60
        E 120 80 62 00
        E 0 80 56 00
        E 0 80 4a 00
        E 0 80 3d 00
        E 121 90 62 60
        E 0 90 56 60
        E 120 80 62 00
        E 0 80 56 00
        E 119 90 62 60
        E 0 90 56 60
        E 0 90 4a 60
        E 120 80 62 00
        E 0 80 56 00
        E 0 80 4a 00
        E 120 90 62 60
        E 0 90 56 60
        E 120 80 62 00
        E 0 80 56 00
        E 120 90 62 60
        E 0 90 56 60
        E 0 90 4a 60
        E 0 90 3d 60
        E 120 80 62 00
        E 0 80 56 00
        E 0 80 4a 00
        E 0 80 3d 00
        E 120 90 62 60
        E 0 90 56 60
        E 120 80 62 00
        E 0 80 56 00
        E 121 90 62 60
        E 0 90 56 60
        E 0 90 4a 60
        E 120 80 62 00
        E 0 80 56 00
        E 0 80 4a 00
        E 119 90 62 60
        E 0 90 56 60
        E 120 80 62 00
        E 0 80 56 00
        E 120 90 63 60
        E 0 90 57 60
        E 0 90 4b 60
        E 0 90 3e 60
        E 120 80 63 00
        E 0 80 57 00
        E 0 80 4b 00
        E 0 80 3e 00
        E 121 90 63 60
        E 0 90 57 60
        E 120 80 63 00
        E 0 80 57 00
        E 119 90 63 60
        E 0 90 57 60
        E 0 90 4b 60
        E 120 80 63 00
        E 0 80 57 00
        E 0 80 4b 00
        E 120 90 63 60
        E 0 90 57 60
        E 120 80 63 00
        E 0 80 57 00
        E 120 90 63 60
        E 0 90 57 60
        E 0 90 4b 60
        E 0 90 3e 60
        E 120 80 63 00
        E 0 80 57 00
        E 0 80 4b 00
        E 0 80 3e 00
        E 120 90 63 60
        E 0 90 57 60
        E 120 80 63 00
        E 0 80 57 00
        E 121 90 63 60
        E 0 90 57 60
        E 0 90 4b 60
        E 120 80 63 00
        E 0 80 57 00
        E 0 80 4b 00
        E 119 90 63 60
        E 0 90 57 60
        E 120 80 63 00
        E 0 80 57 00
        E 120 80 74 00
        E 0 90 60 60
        E 0 90 54 60
        E 0 90 48 60
        E 0 90 3c 60
        E 120 80 60 00
        E 0 80 54 00
        E 0 80 48 00
        E 0 80 3c 00
        E 120 90 60 60
        E 0 90 54 60
        E 120 80 60 00
        E 0 80 54 00
        E 120 90 60 60
        E 0 90 54 60
        E 0 90 48 60
        E 120 80 60 00
        E 0 80 54 00
        E 0 80 48 00
        E 120 90 60 60
        E 0 90 54 60
        E 120 80 60 00
        E 0 80 54 00
        E 120 90 60 60
        E 0 90 54 60
        E 0 90 48 60
        E 0 90 3c 60
        E 120 80 60 00
        E 0 80 54 00
        E 0 80 48 00
        E 0 80 3c 00
        E 120 90 60 60
        E 0 90 54 60
        E 120 80 60 00
        E 0 80 54 00
        E 120 90 60 60
        E 0 90 54 60
        E 0 90 48 60
        E 120 80 60 00
        E 0 80 54 00
        E 0 80 48 00
        E 120 90 60 60
        E 0 90 54 60
        E 120 80 60 00
        E 0 80 54 00
        E 120 90 61 60
        E 0 90 55 60
        E 0 90 49 60
        E 0 90 3c 60
        E 120 80 61 00
        E 0 80 55 00
        E 0 80 49 00
        E 0 80 3c 00
        E 121 90 61 60
        E 0 90 55 60
        E 120 80 61 00
        E 0 80 55 00
        E 119 90 61 60
        E 0 90 55 60
        E 0 90 49 60
        E 120 80 61 00
        E 0 80 55 00
        E 0 80 49 00
        E 120 90 61 60
        E 0 90 55 60
        E 120 80 61 00
        E 0 80 55 00
        E 120 90 61 60
        E 0 90 55 60
        E 0 90 49 60
        E 0 90 3c 60
        E 120 80 61 00
        E 0 80 55 00
        E 0 80 49 00
        E 0 80 3c 00
        E 120 90 61 60
        E 0 90 55 60
        E 120 80 61 00
        E 0 80 55 00
        E 121 90 61 60
        E 0 90 55 60
        E 0 90 49 60
        E 120 80 61 00
        E 0 80 55 00
        E 0 80 49 00
        E 119 90 61 60
        E 0 90 55 60
        E 120 80 61 00
        E 0 80 55 00
        E 120 90 62 60
        E 0 90 56 60
        E 0 90 4a 60
        E 0 90 3d 60
        E 120 80 62 00
        E 0 80 56 00
        E 0 80 4a 00
        E 0 80 3d 00
        E 121 90 62 60
        E 0 90 56 60
        E 120 80 62 00
        E 0 80 56 00
        E 119 90 62 60
        E 0 90 56 60
        E 0 90 4a 60
        E 120 80 62 00
        E 0 80 56 00
        E 0 80 4a 00
        E 120 90 62 60
        E 0 90 56 60
        E 120 80 62 00
        E 0 80 56 00
        E 120 90 62 60
        E 0 90 56 60
        E 0 90 4a 60
        E 0 90 3d 60
        E 120 80 62 00
        E 0 80 56 00
        E 0 80 4a 00
        E 0 80 3d 00
        E 120 90 62 60
        E 0 90 56 60
        E 120 80 62 00
        E 0 80 56 00
        E 121 90 62 60
        E 0 90 56 60
        E 0 90 4a 60
        E 120 80 62 00
        E 0 80 56 00
        E 0 80 4a 00
        E 119 90 62 60
        E 0 90 56 60
        E 120 80 62 00
        E 0 80 56 00
        E 120 90 63 60
        E 0 90 57 60
        E 0 90 4b 60
        E 0 90 3e 60
        E 120 80 63 00
        E 0 80 57 00
        E 0 80 4b 00
        E 0 80 3e 00
        E 121 90 63 60
        E 0 90 57 60
        E 120 80 63 00
        E 0 80 57 00
        E 119 90 63 60
        E 0 90 57 60
        E 0 90 4b 60
        E 120 80 63 00
        E 0 80 57 00
        E 0 80 4b 00
        E 120 90 63 60
        E 0 90 57 60
        E 120 80 63 00
        E 0 80 57 00
        E 120 90 63 60
        E 0 90 57 60
        E 0 90 4b 60
        E 0 90 3e 60
        E 120 80 63 00
        E 0 80 57 00
        E 0 80 4b 00
        E 0 80 3e 00
        E 120 90 63 60
        E 0 90 57 60
        E 120 80 63 00
        E 0 80 57 00
        E 121 90 63 60
        E 0 90 57 60
        E 0 90 4b 60
        E 120 80 63 00
        E 0 80 57 00
        E 0 80 4b 00
        E 119 90 63 60
        E 0 90 57 60
        E 120 80 63 00
        E 0 80 57 00
        <X 120 0
          /wFbaW50ZW5zZV0=
        >
        E 0 90 64 60
        E 0 90 58 60
        E 0 90 4b 60
        E 0 90 3e 60
        E 120 80 64 00
        E 0 80 58 00
        E 0 80 4b 00
        E 0 80 3e 00
        E 120 90 64 60
        E 0 90 58 60
        E 120 80 64 00
        E 0 80 58 00
        E 120 90 64 60
        E 0 90 58 60
        E 0 90 4b 60
        E 120 80 64 00
        E 0 80 58 00
        E 0 80 4b 00
        E 120 90 64 60
        E 0 90 58 60
        E 120 80 64 00
        E 0 80 58 00
        E 120 90 64 60
        E 0 90 58 60
        E 0 90 4b 60
        E 0 90 3e 60
        E 120 80 64 00
        E 0 80 58 00
        E 0 80 4b 00
        E 0 80 3e 00
        E 120 90 63 60
        E 0 90 57 60
        E 120 80 63 00
        E 0 80 57 00
        E 120 90 63 60
        E 0 90 57 60
        E 0 90 4b 60
        E 120 80 63 00
        E 0 80 57 00
        E 0 80 4b 00
        E 120 90 63 60
        E 0 90 57 60
        E 120 80 63 00
        E 0 80 57 00
        E 120 90 61 60
        E 0 90 55 60
        E 0 90 49 60
        E 0 90 3c 60
        E 120 80 61 00
        E 0 80 55 00
        E 0 80 49 00
        E 0 80 3c 00
        E 120 90 61 60
        E 0 90 55 60
        E 120 80 61 00
        E 0 80 55 00
        E 120 90 62 60
        E 0 90 56 60
        E 0 90 4a 60
        E 120 80 4a 00
        E 240 80 62 00
        E 0 80 56 00
        E 120 90 61 60
        E 0 90 55 60
        E 0 90 49 60
        E 0 90 3c 60
        E 120 80 61 00
        E 0 80 55 00
        E 0 80 49 00
        E 0 80 3c 00
        E 120 90 61 60
        E 0 90 55 60
        E 120 80 61 00
        E 0 80 55 00
        E 120 90 62 60
        E 0 90 56 60
        E 0 90 4a 60
        E 120 80 4a 00
        E 240 80 62 00
        E 0 80 56 00
        E 120 90 64 60
        E 0 90 58 60
        E 0 90 4b 60
        E 0 90 3e 60
        E 120 80 64 00
        E 0 80 58 00
        E 0 80 4b 00
        E 0 80 3e 00
        E 120 90 64 60
        E 0 90 58 60
        E 120 80 64 00
        E 0 80 58 00
        E 120 90 64 60
        E 0 90 58 60
        E 0 90 4b 60
        E 120 80 64 00
        E 0 80 58 00
        E 0 80 4b 00
        E 120 90 64 60
        E 0 90 58 60
        E 120 80 64 00
        E 0 80 58 00
        E 120 90 64 60
        E 0 90 58 60
        E 0 90 4b 60
        E 0 90 3e 60
        E 120 80 64 00
        E 0 80 58 00
        E 0 80 4b 00
        E 0 80 3e 00
        E 120 90 63 60
        E 0 90 57 60
        E 120 80 63 00
        E 0 80 57 00
        E 120 90 63 60
        E 0 90 57 60
        E 0 90 4b 60
        E 120 80 63 00
        E 0 80 57 00
        E 0 80 4b 00
        E 120 90 63 60
        E 0 90 57 60
        E 120 80 63 00
        E 0 80 57 00
        E 120 90 61 60
        E 0 90 55 60
        E 0 90 49 60
        E 0 90 3c 60
        E 120 80 61 00
        E 0 80 55 00
        E 0 80 49 00
        E 0 80 3c 00
        E 120 90 61 60
        E 0 90 55 60
        E 120 80 61 00
        E 0 80 55 00
        E 120 90 62 60
        E 0 90 56 60
        E 0 90 4a 60
        E 120 80 4a 00
        E 240 80 62 00
        E 0 80 56 00
        E 120 90 61 60
        E 0 90 55 60
        E 0 90 49 60
        E 0 90 3c 60
        E 120 80 61 00
        E 0 80 55 00
        E 0 80 49 00
        E 0 80 3c 00
        E 120 90 61 60
        E 0 90 55 60
        E 120 80 61 00
        E 0 80 55 00
        E 120 90 62 60
        E 0 90 56 60
        E 0 90 4a 60
        E 120 80 4a 00
        E 240 80 62 00
        E 0 80 56 00
        E 120 90 64 60
        E 0 90 58 60
        E 0 90 4b 60
        E 0 90 3e 60
        E 120 80 64 00
        E 0 80 58 00
        E 0 80 4b 00
        E 0 80 3e 00
        E 120 90 64 60
        E 0 90 58 60
        E 120 80 64 00
        E 0 80 58 00
        E 120 90 64 60
        E 0 90 58 60
        E 0 90 4b 60
        E 120 80 64 00
        E 0 80 58 00
        E 0 80 4b 00
        E 120 90 64 60
        E 0 90 58 60
        E 120 80 64 00
        E 0 80 58 00
        E 120 90 64 60
        E 0 90 58 60
        E 0 90 4b 60
        E 0 90 3e 60
        E 120 80 64 00
        E 0 80 58 00
        E 0 80 4b 00
        E 0 80 3e 00
        E 120 90 63 60
        E 0 90 57 60
        E 120 80 63 00
        E 0 80 57 00
        E 120 90 63 60
        E 0 90 57 60
        E 0 90 4b 60
        E 120 80 63 00
        E 0 80 57 00
        E 0 80 4b 00
        E 120 90 63 60
        E 0 90 57 60
        E 120 80 63 00
        E 0 80 57 00
        E 120 90 61 60
        E 0 90 55 60
        E 0 90 49 60
        E 0 90 3c 60
        E 120 80 61 00
        E 0 80 55 00
        E 0 80 49 00
        E 0 80 3c 00
        E 120 90 61 60
        E 0 90 55 60
        E 120 80 61 00
        E 0 80 55 00
        E 120 90 62 60
        E 0 90 56 60
        E 0 90 4a 60
        E 120 80 4a 00
        E 240 80 62 00
        E 0 80 56 00
        E 120 90 61 60
        E 0 90 55 60
        E 0 90 49 60
        E 0 90 3c 60
        E 120 80 61 00
        E 0 80 55 00
        E 0 80 49 00
        E 0 80 3c 00
        E 120 90 61 60
        E 0 90 55 60
        E 120 80 61 00
        E 0 80 55 00
        E 120 90 62 60
        E 0 90 56 60
        E 0 90 4a 60
        E 120 80 4a 00
        E 240 80 62 00
        E 0 80 56 00
        E 120 90 64 60
        E 0 90 58 60
        E 0 90 4b 60
        E 0 90 3e 60
        E 120 80 64 00
        E 0 80 58 00
        E 0 80 4b 00
        E 0 80 3e 00
        E 120 90 64 60
        E 0 90 58 60
        E 120 80 64 00
        E 0 80 58 00
        E 120 90 64 60
        E 0 90 58 60
        E 0 90 4b 60
        E 120 80 64 00
        E 0 80 58 00
        E 0 80 4b 00
        E 120 90 64 60
        E 0 90 58 60
        E 120 80 64 00
        E 0 80 58 00
        E 120 90 64 60
        E 0 90 58 60
        E 0 90 4b 60
        E 0 90 3e 60
        E 120 80 64 00
        E 0 80 58 00
        E 0 80 4b 00
        E 0 80 3e 00
        E 120 90 63 60
        E 0 90 57 60
        E 120 80 63 00
        E 0 80 57 00
        E 120 90 63 60
        E 0 90 57 60
        E 0 90 4b 60
        E 120 80 63 00
        E 0 80 57 00
        E 0 80 4b 00
        E 120 90 63 60
        E 0 90 57 60
        E 120 80 63 00
        E 0 80 57 00
        E 120 90 61 60
        E 0 90 55 60
        E 0 90 49 60
        E 0 90 3c 60
        E 120 80 61 00
        E 0 80 55 00
        E 0 80 49 00
        E 0 80 3c 00
        E 120 90 61 60
        E 0 90 55 60
        E 120 80 61 00
        E 0 80 55 00
        E 120 90 62 60
        E 0 90 56 60
        E 0 90 4a 60
        E 120 80 4a 00
        E 240 80 62 00
        E 0 80 56 00
        E 120 90 61 60
        E 0 90 55 60
        E 0 90 49 60
        E 0 90 3c 60
        E 120 80 61 00
        E 0 80 55 00
        E 0 80 49 00
        E 0 80 3c 00
        E 120 90 61 60
        E 0 90 55 60
        E 120 80 61 00
        E 0 80 55 00
        E 120 90 62 60
        E 0 90 56 60
        E 0 90 4a 60
        E 480 80 2b 00
        E 0 80 62 00
        E 0 80 56 00
        E 0 80 4a 00
        <X 479 0
          /wFbaWRsZV9yZWFsdGltZV0=
        >
        E 1441 b0 7b 00
        GUID {6DFE74C9-4142-4F17-A00E-471644430588}
        IGNTEMPO 0 120.00000000 4 4
        SRCCOLOR 4
        VELLANE 131 128 60
        COLORMAP "C:\Program Files\REAPER (x64)\Data\color_maps\rockband_guitarbass.png"
        CFGEDITVIEW -1170.534793 69.848485 0 12 0 0 0
        CFGEDIT 1 1 0 1 1 0 1 1 1 1 1 0.25000000 -8 -8 1544 872 0 2 1 1 0.00000000 0 1 0 0 0.500000 0 0 1.000000 64
        KEYSNAP 0 6 "102030050700" 0 "Pentatonic"
        EVTFILTER 0 -1 -1 -1 -1 0 1 0 0 -1.00000000 -1.00000000
      >
    >
  >
  <TRACK '{C0CB5C9F-333F-4E97-A72B-3B5E5241AAA6}'
    NAME "PART GUITAR"
    PEAKCOL 16576
    BEAT -1
    AUTOMODE 0
    VOLPAN 1.00000000000000 0.00000000000000 -1.00000000000000 -1.00000000000000 1.00000000000000
    MUTESOLO 0 0 0
    IPHASE 0
    ISBUS 0 0
    BUSCOMP 0 0
    SHOWINMIX 1 0.666700 0.500000 1 0.500000 -1 -1 -1
    FREEMODE 0
    SEL 0
    REC 0 0 0 0 0 0 0
    VU 2
    TRACKHEIGHT 0 0
    INQ 0 0 0 0.5000000000 100 0 0 100
    NCHAN 2
    FX 1
    TRACKID {C0CB5C9F-333F-4E97-A72B-3B5E5241AAA6}
    PERF 0
    MIDIOUT -1
    <MIDINOTENAMES
      0 127 "TRILL MARKER"
      0 126 "TREMOLO MARKER"
      0 125 "---"
      0 124 "BRE"
      0 123 "BRE"
      0 122 "BRE"
      0 121 "BRE"
      0 120 "BRE (use all 5)"
      0 119 "----"
      0 116 "OVERDRIVE"
      0 115 "----"
      0 103 "Solo Marker"
      0 102 "Force HOPO Off"
      0 101 "Force HOPO On"
      0 100 "EXPERT Orange"
      0 99 "EXPERT Blue"
      0 98 "EXPERT Yellow"
      0 97 "EXPERT Red"
      0 96 "EXPERT Green"
      0 95 "----"
      0 90 "Force HOPO Off"
      0 89 "Force HOPO On"
      0 88 "HARD Orange"
      0 87 "HARD Blue"
      0 86 "HARD Yellow"
      0 85 "HARD Red"
      0 84 "HARD Green"
      0 77 "----"
      0 76 "MEDIUM Orange"
      0 75 "MEDIUM Blue"
      0 74 "MEDIUM Yellow"
      0 73 "MEDIUM Red"
      0 72 "MEDIUM Green"
      0 65 "----"
      0 64 "EASY Orange"
      0 63 "EASY Blue"
      0 62 "EASY Yellow"
      0 61 "EASY Red"
      0 60 "EASY Green"
      0 59 "Fret 12"
      0 57 "Fret 11"
      0 56 "Fret 10"
      0 55 "Fret 9"
      0 53 "Fret 8"
      0 52 "Fret 7"
      0 50 "Fret 6"
      0 49 "Fret 5"
      0 47 "Fret 4"
      0 45 "Fret 3"
      0 43 "Fret 2"
      0 40 "Fret 1"
    >
    MAINSEND 1 0
    <FXCHAIN
      WNDRECT 0 43 891 559
      SHOW 0
      LASTSEL 0
      DOCKED 0
      BYPASS 0 0
      <VST "VSTi: RBN Preview (RBN)" "rbprev_vst64.dll" 0 ""
        dnBicu5e7f4AAAAAAgAAAAEAAAAAAAAAAgAAAAAAAAAEAAAAAQAAAA==
        AAAQAAMAqgAAABAAAAA=
      >
      FLOATPOS 0 0 0 0
      FXID {D838C544-3EFC-416E-BF5A-00499EEACE1F}
      WAK 0
    >
    <ITEM
      POSITION 0.00000000000000
      SNAPOFFS 0.00000000000000
      LENGTH 144.00200000000001
      LOOP 0
      ALLTAKES 0
      SEL 0
      FADEIN 1 0.000000 0.000000 1 0
      FADEOUT 1 0.000000 0.000000 1 0
      MUTE 0
      IGUID {6ACE4B8C-B1F3-4974-A9EE-04F2BC26CB83}
      IID 3
      NAME "PART GUITAR"
      VOLPAN 1.000000 0.000000 1.000000 -1.000000
      SOFFS 0.00000000000000 0.00000000000000
      PLAYRATE 1.00000000000000 1 0.00000000000000 -1
      CHANMODE 0
      GUID {6DE69F40-5C48-427F-80D1-AE552E8BB01C}
      <SOURCE MIDI
        HASDATA 1 480 QN
        POOLEDEVTS {B0BC9E69-C268-4902-BC93-5866E2B992FB}
        <X 0 0
          /wNQQVJUIEdVSVRBUg==
        >
        <X 3840 0
          /wFbaW50ZW5zZV0=
        >
        E 1920 90 31 60
        E 0 90 3e 60
        E 0 90 49 60
        E 0 90 4b 60
        E 0 90 55 60
        E 0 90 57 60
        E 0 90 61 60
        E 0 90 62 60
        E 0 90 63 60
        E 120 80 3e 00
        E 0 80 49 00
        E 0 80 4b 00
        E 0 80 55 00
        E 0 80 57 00
        E 0 80 61 00
        E 0 80 62 00
        E 0 80 63 00
        E 120 90 49 60
        E 0 90 4b 60
        E 0 90 55 60
        E 0 90 57 60
        E 0 90 61 60
        E 0 90 62 60
        E 0 90 63 60
        E 120 80 49 00
        E 0 80 4b 00
        E 0 80 55 00
        E 0 80 57 00
        E 0 80 61 00
        E 0 80 62 00
        E 0 80 63 00
        E 120 90 3e 60
        E 0 90 49 60
        E 0 90 4b 60
        E 0 90 55 60
        E 0 90 57 60
        E 0 90 61 60
        E 0 90 62 60
        E 0 90 63 60
        E 120 80 3e 00
        E 0 80 49 00
        E 0 80 4b 00
        E 0 80 55 00
        E 0 80 57 00
        E 0 80 61 00
        E 0 80 62 00
        E 0 80 63 00
        E 120 90 49 60
        E 0 90 4b 60
        E 0 90 55 60
        E 0 90 57 60
        E 0 90 61 60
        E 0 90 62 60
        E 0 90 63 60
        E 120 80 49 00
        E 0 80 4b 00
        E 0 80 55 00
        E 0 80 57 00
        E 0 80 61 00
        E 0 80 62 00
        E 0 80 63 00
        E 120 90 3e 60
        E 0 90 49 60
        E 0 90 4b 60
        E 0 90 55 60
        E 0 90 57 60
        E 0 90 61 60
        E 0 90 62 60
        E 0 90 63 60
        E 120 80 3e 00
        E 0 80 49 00
        E 0 80 4b 00
        E 0 80 55 00
        E 0 80 57 00
        E 0 80 61 00
        E 0 80 62 00
        E 0 80 63 00
        E 1 80 31 00
        E 119 90 34 60
        E 0 90 55 60
        E 0 90 58 60
        E 0 90 61 60
        E 0 90 62 60
        E 0 90 64 60
        E 120 80 55 00
        E 0 80 58 00
        E 0 80 61 00
        E 0 80 62 00
        E 0 80 64 00
        E 120 90 4a 60
        E 0 90 4c 60
        E 0 90 55 60
        E 0 90 58 60
        E 0 90 61 60
        E 0 90 62 60
        E 0 90 64 60
        E 120 80 4a 00
        E 0 80 4c 00
        E 0 80 55 00
        E 0 80 58 00
        E 0 80 61 00
        E 0 80 62 00
        E 0 80 64 00
        E 120 90 55 60
        E 0 90 58 60
        E 0 90 61 60
        E 0 90 62 60
        E 0 90 64 60
        E 120 80 55 00
        E 0 80 58 00
        E 0 80 61 00
        E 0 80 62 00
        E 0 80 64 00
        E 1 80 34 00
        E 119 90 31 60
        E 0 90 3d 60
        E 0 90 48 60
        E 0 90 4a 60
        E 0 90 54 60
        E 0 90 56 60
        E 0 90 60 60
        E 0 90 61 60
        E 0 90 63 60
        E 120 80 3d 00
        E 0 80 48 00
        E 0 80 4a 00
        E 0 80 54 00
        E 0 80 56 00
        E 0 80 60 00
        E 0 80 61 00
        E 0 80 63 00
        E 120 90 54 60
        E 0 90 56 60
        E 0 90 60 60
        E 0 90 61 60
        E 0 90 63 60
        E 120 80 54 00
        E 0 80 56 00
        E 0 80 60 00
        E 0 80 61 00
        E 0 80 63 00
        E 1 80 31 00
        E 119 90 34 60
        E 0 90 4a 60
        E 0 90 4c 60
        E 0 90 55 60
        E 0 90 58 60
        E 0 90 61 60
        E 0 90 62 60
        E 0 90 64 60
        E 120 80 4a 00
        E 0 80 4c 00
        E 240 80 55 00
        E 0 80 58 00
        E 0 80 61 00
        E 0 80 62 00
        E 0 80 64 00
        E 1 80 34 00
        E 119 90 31 60
        E 0 90 3d 60
        E 0 90 48 60
        E 0 90 4a 60
        E 0 90 54 60
        E 0 90 56 60
        E 0 90 60 60
        E 0 90 61 60
        E 0 90 63 60
        E 120 80 3d 00
        E 0 80 48 00
        E 0 80 4a 00
        E 0 80 54 00
        E 0 80 56 00
        E 0 80 60 00
        E 0 80 61 00
        E 0 80 63 00
        E 120 90 54 60
        E 0 90 56 60
        E 0 90 60 60
        E 0 90 61 60
        E 0 90 63 60
        E 120 80 54 00
        E 0 80 56 00
        E 0 80 60 00
        E 0 80 61 00
        E 0 80 63 00
        E 1 80 31 00
        E 119 90 34 60
        E 0 90 4a 60
        E 0 90 4c 60
        E 0 90 55 60
        E 0 90 58 60
        E 0 90 61 60
        E 0 90 62 60
        E 0 90 64 60
        E 120 80 4a 00
        E 0 80 4c 00
        E 240 80 55 00
        E 0 80 58 00
        E 0 80 61 00
        E 0 80 62 00
        E 0 80 64 00
        E 1 80 34 00
        E 119 90 31 60
        E 0 90 3e 60
        E 0 90 49 60
        E 0 90 4b 60
        E 0 90 55 60
        E 0 90 57 60
        E 0 90 61 60
        E 0 90 62 60
        E 0 90 63 60
        E 120 80 3e 00
        E 0 80 49 00
        E 0 80 4b 00
        E 0 80 55 00
        E 0 80 57 00
        E 0 80 61 00
        E 0 80 62 00
        E 0 80 63 00
        E 120 90 49 60
        E 0 90 4b 60
        E 0 90 55 60
        E 0 90 57 60
        E 0 90 61 60
        E 0 90 62 60
        E 0 90 63 60
        E 120 80 49 00
        E 0 80 4b 00
        E 0 80 55 00
        E 0 80 57 00
        E 0 80 61 00
        E 0 80 62 00
        E 0 80 63 00
        E 120 90 3e 60
        E 0 90 49 60
        E 0 90 4b 60
        E 0 90 55 60
        E 0 90 57 60
        E 0 90 61 60
        E 0 90 62 60
        E 0 90 63 60
        E 120 80 3e 00
        E 0 80 49 00
        E 0 80 4b 00
        E 0 80 55 00
        E 0 80 57 00
        E 0 80 61 00
        E 0 80 62 00
        E 0 80 63 00
        E 120 90 49 60
        E 0 90 4b 60
        E 0 90 55 60
        E 0 90 57 60
        E 0 90 61 60
        E 0 90 62 60
        E 0 90 63 60
        E 120 80 49 00
        E 0 80 4b 00
        E 0 80 55 00
        E 0 80 57 00
        E 0 80 61 00
        E 0 80 62 00
        E 0 80 63 00
        E 120 90 3e 60
        E 0 90 49 60
        E 0 90 4b 60
        E 0 90 55 60
        E 0 90 57 60
        E 0 90 61 60
        E 0 90 62 60
        E 0 90 63 60
        E 120 80 3e 00
        E 0 80 49 00
        E 0 80 4b 00
        E 0 80 55 00
        E 0 80 57 00
        E 0 80 61 00
        E 0 80 62 00
        E 0 80 63 00
        E 1 80 31 00
        E 119 90 34 60
        E 0 90 55 60
        E 0 90 58 60
        E 0 90 61 60
        E 0 90 62 60
        E 0 90 64 60
        E 120 80 55 00
        E 0 80 58 00
        E 0 80 61 00
        E 0 80 62 00
        E 0 80 64 00
        E 120 90 4a 60
        E 0 90 4c 60
        E 0 90 55 60
        E 0 90 58 60
        E 0 90 61 60
        E 0 90 62 60
        E 0 90 64 60
        E 120 80 4a 00
        E 0 80 4c 00
        E 0 80 55 00
        E 0 80 58 00
        E 0 80 61 00
        E 0 80 62 00
        E 0 80 64 00
        E 120 90 55 60
        E 0 90 58 60
        E 0 90 61 60
        E 0 90 62 60
        E 0 90 64 60
        E 120 80 55 00
        E 0 80 58 00
        E 0 80 61 00
        E 0 80 62 00
        E 0 80 64 00
        E 1 80 34 00
        E 119 90 31 60
        E 0 90 3d 60
        E 0 90 48 60
        E 0 90 4a 60
        E 0 90 54 60
        E 0 90 56 60
        E 0 90 60 60
        E 0 90 61 60
        E 0 90 63 60
        E 120 80 3d 00
        E 0 80 48 00
        E 0 80 4a 00
        E 0 80 54 00
        E 0 80 56 00
        E 0 80 60 00
        E 0 80 61 00
        E 0 80 63 00
        E 120 90 54 60
        E 0 90 56 60
        E 0 90 60 60
        E 0 90 61 60
        E 0 90 63 60
        E 120 80 54 00
        E 0 80 56 00
        E 0 80 60 00
        E 0 80 61 00
        E 0 80 63 00
        E 1 80 31 00
        E 119 90 34 60
        E 0 90 4a 60
        E 0 90 4c 60
        E 0 90 55 60
        E 0 90 58 60
        E 0 90 61 60
        E 0 90 62 60
        E 0 90 64 60
        E 120 80 4a 00
        E 0 80 4c 00
        E 240 80 55 00
        E 0 80 58 00
        E 0 80 61 00
        E 0 80 62 00
        E 0 80 64 00
        E 1 80 34 00
        E 119 90 31 60
        E 0 90 3d 60
        E 0 90 48 60
        E 0 90 4a 60
        E 0 90 54 60
        E 0 90 56 60
        E 0 90 60 60
        E 0 90 61 60
        E 0 90 63 60
        E 120 80 3d 00
        E 0 80 48 00
        E 0 80 4a 00
        E 0 80 54 00
        E 0 80 56 00
        E 0 80 60 00
        E 0 80 61 00
        E 0 80 63 00
        E 120 90 54 60
        E 0 90 56 60
        E 0 90 60 60
        E 0 90 61 60
        E 0 90 63 60
        E 120 80 54 00
        E 0 80 56 00
        E 0 80 60 00
        E 0 80 61 00
        E 0 80 63 00
        E 1 80 31 00
        E 119 90 34 60
        E 0 90 4a 60
        E 0 90 4c 60
        E 0 90 55 60
        E 0 90 58 60
        E 0 90 61 60
        E 0 90 62 60
        E 0 90 64 60
        E 120 80 4a 00
        E 0 80 4c 00
        E 240 80 55 00
        E 0 80 58 00
        E 0 80 61 00
        E 0 80 62 00
        E 0 80 64 00
        E 1 80 34 00
        E 119 90 31 60
        E 0 90 3e 60
        E 0 90 49 60
        E 0 90 4b 60
        E 0 90 55 60
        E 0 90 57 60
        E 0 90 61 60
        E 0 90 62 60
        E 0 90 63 60
        E 120 80 3e 00
        E 0 80 49 00
        E 0 80 4b 00
        E 0 80 55 00
        E 0 80 57 00
        E 0 80 61 00
        E 0 80 62 00
        E 0 80 63 00
        E 120 90 49 60
        E 0 90 4b 60
        E 0 90 55 60
        E 0 90 57 60
        E 0 90 61 60
        E 0 90 62 60
        E 0 90 63 60
        E 120 80 49 00
        E 0 80 4b 00
        E 0 80 55 00
        E 0 80 57 00
        E 0 80 61 00
        E 0 80 62 00
        E 0 80 63 00
        E 120 90 3e 60
        E 0 90 49 60
        E 0 90 4b 60
        E 0 90 55 60
        E 0 90 57 60
        E 0 90 61 60
        E 0 90 62 60
        E 0 90 63 60
        E 120 80 3e 00
        E 0 80 49 00
        E 0 80 4b 00
        E 0 80 55 00
        E 0 80 57 00
        E 0 80 61 00
        E 0 80 62 00
        E 0 80 63 00
        E 120 90 49 60
        E 0 90 4b 60
        E 0 90 55 60
        E 0 90 57 60
        E 0 90 61 60
        E 0 90 62 60
        E 0 90 63 60
        E 120 80 49 00
        E 0 80 4b 00
        E 0 80 55 00
        E 0 80 57 00
        E 0 80 61 00
        E 0 80 62 00
        E 0 80 63 00
        E 120 90 3e 60
        E 0 90 49 60
        E 0 90 4b 60
        E 0 90 55 60
        E 0 90 57 60
        E 0 90 61 60
        E 0 90 62 60
        E 0 90 63 60
        E 120 80 3e 00
        E 0 80 49 00
        E 0 80 4b 00
        E 0 80 55 00
        E 0 80 57 00
        E 0 80 61 00
        E 0 80 62 00
        E 0 80 63 00
        E 1 80 31 00
        E 119 90 34 60
        E 0 90 55 60
        E 0 90 58 60
        E 0 90 61 60
        E 0 90 62 60
        E 0 90 64 60
        E 120 80 55 00
        E 0 80 58 00
        E 0 80 61 00
        E 0 80 62 00
        E 0 80 64 00
        E 120 90 4a 60
        E 0 90 4c 60
        E 0 90 55 60
        E 0 90 58 60
        E 0 90 61 60
        E 0 90 62 60
        E 0 90 64 60
        E 120 80 4a 00
        E 0 80 4c 00
        E 0 80 55 00
        E 0 80 58 00
        E 0 80 61 00
        E 0 80 62 00
        E 0 80 64 00
        E 120 90 55 60
        E 0 90 58 60
        E 0 90 61 60
        E 0 90 62 60
        E 0 90 64 60
        E 120 80 55 00
        E 0 80 58 00
        E 0 80 61 00
        E 0 80 62 00
        E 0 80 64 00
        E 1 80 34 00
        E 119 90 31 60
        E 0 90 3d 60
        E 0 90 48 60
        E 0 90 4a 60
        E 0 90 54 60
        E 0 90 56 60
        E 0 90 60 60
        E 0 90 61 60
        E 0 90 63 60
        E 120 80 3d 00
        E 0 80 48 00
        E 0 80 4a 00
        E 0 80 54 00
        E 0 80 56 00
        E 0 80 60 00
        E 0 80 61 00
        E 0 80 63 00
        E 120 90 54 60
        E 0 90 56 60
        E 0 90 60 60
        E 0 90 61 60
        E 0 90 63 60
        E 120 80 54 00
        E 0 80 56 00
        E 0 80 60 00
        E 0 80 61 00
        E 0 80 63 00
        E 1 80 31 00
        E 119 90 34 60
        E 0 90 4a 60
        E 0 90 4c 60
        E 0 90 55 60
        E 0 90 58 60
        E 0 90 61 60
        E 0 90 62 60
        E 0 90 64 60
        E 120 80 4a 00
        E 0 80 4c 00
        E 240 80 55 00
        E 0 80 58 00
        E 0 80 61 00
        E 0 80 62 00
        E 0 80 64 00
        E 1 80 34 00
        E 119 90 31 60
        E 0 90 3d 60
        E 0 90 48 60
        E 0 90 4a 60
        E 0 90 54 60
        E 0 90 56 60
        E 0 90 60 60
        E 0 90 61 60
        E 0 90 63 60
        E 120 80 3d 00
        E 0 80 48 00
        E 0 80 4a 00
        E 0 80 54 00
        E 0 80 56 00
        E 0 80 60 00
        E 0 80 61 00
        E 0 80 63 00
        E 120 90 54 60
        E 0 90 56 60
        E 0 90 60 60
        E 0 90 61 60
        E 0 90 63 60
        E 120 80 54 00
        E 0 80 56 00
        E 0 80 60 00
        E 0 80 61 00
        E 0 80 63 00
        E 1 80 31 00
        E 119 90 34 60
        E 0 90 4a 60
        E 0 90 4c 60
        E 0 90 55 60
        E 0 90 58 60
        E 0 90 61 60
        E 0 90 62 60
        E 0 90 64 60
        E 120 80 4a 00
        E 0 80 4c 00
        E 240 80 55 00
        E 0 80 58 00
        E 0 80 61 00
        E 0 80 62 00
        E 0 80 64 00
        E 1 80 34 00
        E 119 90 31 60
        E 0 90 3e 60
        E 0 90 49 60
        E 0 90 4b 60
        E 0 90 55 60
        E 0 90 57 60
        E 0 90 61 60
        E 0 90 62 60
        E 0 90 63 60
        E 0 90 74 60
        E 120 80 3e 00
        E 0 80 49 00
        E 0 80 4b 00
        E 0 80 55 00
        E 0 80 57 00
        E 0 80 61 00
        E 0 80 62 00
        E 0 80 63 00
        E 120 90 49 60
        E 0 90 4b 60
        E 0 90 55 60
        E 0 90 57 60
        E 0 90 61 60
        E 0 90 62 60
        E 0 90 63 60
        E 120 80 49 00
        E 0 80 4b 00
        E 0 80 55 00
        E 0 80 57 00
        E 0 80 61 00
        E 0 80 62 00
        E 0 80 63 00
        E 120 90 3e 60
        E 0 90 49 60
        E 0 90 4b 60
        E 0 90 55 60
        E 0 90 57 60
        E 0 90 61 60
        E 0 90 62 60
        E 0 90 63 60
        E 120 80 3e 00
        E 0 80 49 00
        E 0 80 4b 00
        E 0 80 55 00
        E 0 80 57 00
        E 0 80 61 00
        E 0 80 62 00
        E 0 80 63 00
        E 120 90 49 60
        E 0 90 4b 60
        E 0 90 55 60
        E 0 90 57 60
        E 0 90 61 60
        E 0 90 62 60
        E 0 90 63 60
        E 120 80 49 00
        E 0 80 4b 00
        E 0 80 55 00
        E 0 80 57 00
        E 0 80 61 00
        E 0 80 62 00
        E 0 80 63 00
        E 120 90 3e 60
        E 0 90 49 60
        E 0 90 4b 60
        E 0 90 55 60
        E 0 90 57 60
        E 0 90 61 60
        E 0 90 62 60
        E 0 90 63 60
        E 120 80 3e 00
        E 0 80 49 00
        E 0 80 4b 00
        E 0 80 55 00
        E 0 80 57 00
        E 0 80 61 00
        E 0 80 62 00
        E 0 80 63 00
        E 1 80 31 00
        E 119 90 34 60
        E 0 90 55 60
        E 0 90 58 60
        E 0 90 61 60
        E 0 90 62 60
        E 0 90 64 60
        E 120 80 55 00
        E 0 80 58 00
        E 0 80 61 00
        E 0 80 62 00
        E 0 80 64 00
        E 120 90 4a 60
        E 0 90 4c 60
        E 0 90 55 60
        E 0 90 58 60
        E 0 90 61 60
        E 0 90 62 60
        E 0 90 64 60
        E 120 80 4a 00
        E 0 80 4c 00
        E 0 80 55 00
        E 0 80 58 00
        E 0 80 61 00
        E 0 80 62 00
        E 0 80 64 00
        E 120 90 55 60
        E 0 90 58 60
        E 0 90 61 60
        E 0 90 62 60
        E 0 90 64 60
        E 120 80 55 00
        E 0 80 58 00
        E 0 80 61 00
        E 0 80 62 00
        E 0 80 64 00
        E 1 80 34 00
        E 119 90 31 60
        E 0 90 3d 60
        E 0 90 48 60
        E 0 90 4a 60
        E 0 90 54 60
        E 0 90 56 60
        E 0 90 60 60
        E 0 90 61 60
        E 0 90 63 60
        E 120 80 3d 00
        E 0 80 48 00
        E 0 80 4a 00
        E 0 80 54 00
        E 0 80 56 00
        E 0 80 60 00
        E 0 80 61 00
        E 0 80 63 00
        E 120 90 54 60
        E 0 90 56 60
        E 0 90 60 60
        E 0 90 61 60
        E 0 90 63 60
        E 120 80 54 00
        E 0 80 56 00
        E 0 80 60 00
        E 0 80 61 00
        E 0 80 63 00
        E 1 80 31 00
        E 119 90 34 60
        E 0 90 4a 60
        E 0 90 4c 60
        E 0 90 55 60
        E 0 90 58 60
        E 0 90 61 60
        E 0 90 62 60
        E 0 90 64 60
        E 120 80 4a 00
        E 0 80 4c 00
        E 240 80 55 00
        E 0 80 58 00
        E 0 80 61 00
        E 0 80 62 00
        E 0 80 64 00
        E 1 80 34 00
        E 119 90 31 60
        E 0 90 3d 60
        E 0 90 48 60
        E 0 90 4a 60
        E 0 90 54 60
        E 0 90 56 60
        E 0 90 60 60
        E 0 90 61 60
        E 0 90 63 60
        E 120 80 3d 00
        E 0 80 48 00
        E 0 80 4a 00
        E 0 80 54 00
        E 0 80 56 00
        E 0 80 60 00
        E 0 80 61 00
        E 0 80 63 00
        E 120 90 54 60
        E 0 90 56 60
        E 0 90 60 60
        E 0 90 61 60
        E 0 90 63 60
        E 120 80 54 00
        E 0 80 56 00
        E 0 80 60 00
        E 0 80 61 00
        E 0 80 63 00
        E 1 80 31 00
        E 119 90 34 60
        E 0 90 4a 60
        E 0 90 4c 60
        E 0 90 55 60
        E 0 90 58 60
        E 0 90 61 60
        E 0 90 62 60
        E 0 90 64 60
        E 120 80 4a 00
        E 0 80 4c 00
        E 240 80 55 00
        E 0 80 58 00
        E 0 80 61 00
        E 0 80 62 00
        E 0 80 64 00
        <X 120 0
          /wFbcGxheV0=
        >
        E 0 80 74 00
        E 121 80 34 00
        E 119 90 31 60
        E 0 90 4a 60
        E 0 90 56 60
        E 0 90 62 60
        E 120 80 4a 00
        E 0 80 56 00
        E 0 80 62 00
        E 120 90 3d 60
        E 0 90 4a 60
        E 0 90 56 60
        E 0 90 62 60
        E 120 80 3d 00
        E 0 80 4a 00
        E 0 80 56 00
        E 0 80 62 00
        E 120 90 4a 60
        E 0 90 56 60
        E 0 90 62 60
        E 120 80 4a 00
        E 0 80 56 00
        E 0 80 62 00
        E 120 90 3d 60
        E 0 90 4a 60
        E 0 90 56 60
        E 0 90 62 60
        E 120 80 3d 00
        E 0 80 4a 00
        E 0 80 56 00
        E 0 80 62 00
        E 120 90 55 60
        E 0 90 61 60
        E 120 80 55 00
        E 0 80 61 00
        E 840 90 4a 60
        E 0 90 56 60
        E 0 90 62 60
        E 120 80 4a 00
        E 0 80 56 00
        E 0 80 62 00
        E 120 90 3d 60
        E 0 90 4a 60
        E 0 90 56 60
        E 0 90 62 60
        E 120 80 3d 00
        E 0 80 4a 00
        E 0 80 56 00
        E 0 80 62 00
        E 120 90 4a 60
        E 0 90 56 60
        E 0 90 62 60
        E 120 80 4a 00
        E 0 80 56 00
        E 0 80 62 00
        E 120 90 3d 60
        E 0 90 4a 60
        E 0 90 56 60
        E 0 90 62 60
        E 120 80 3d 00
        E 0 80 4a 00
        E 0 80 56 00
        E 0 80 62 00
        E 120 90 55 60
        E 0 90 61 60
        E 120 80 55 00
        E 0 80 61 00
        E 120 90 4b 60
        E 0 90 57 60
        E 0 90 63 60
        E 120 80 4b 00
        E 0 80 57 00
        E 0 80 63 00
        E 600 90 4a 60
        E 0 90 56 60
        E 0 90 62 60
        E 120 80 4a 00
        E 0 80 56 00
        E 0 80 62 00
        E 120 90 3d 60
        E 0 90 4a 60
        E 0 90 56 60
        E 0 90 62 60
        E 120 80 3d 00
        E 0 80 4a 00
        E 0 80 56 00
        E 0 80 62 00
        E 120 90 4a 60
        E 0 90 56 60
        E 0 90 62 60
        E 120 80 4a 00
        E 0 80 56 00
        E 0 80 62 00
        E 120 90 3d 60
        E 0 90 4a 60
        E 0 90 56 60
        E 0 90 62 60
        E 120 80 3d 00
        E 0 80 4a 00
        E 0 80 56 00
        E 0 80 62 00
        E 120 90 55 60
        E 0 90 61 60
        E 120 80 55 00
        E 0 80 61 00
        E 840 90 4a 60
        E 0 90 56 60
        E 0 90 62 60
        E 120 80 4a 00
        E 0 80 56 00
        E 0 80 62 00
        E 120 90 3d 60
        E 0 90 4a 60
        E 0 90 56 60
        E 0 90 62 60
        E 120 80 3d 00
        E 0 80 4a 00
        E 0 80 56 00
        E 0 80 62 00
        E 120 90 4a 60
        E 0 90 56 60
        E 0 90 62 60
        E 120 80 4a 00
        E 0 80 56 00
        E 0 80 62 00
        E 120 90 3d 60
        E 0 90 4a 60
        E 0 90 56 60
        E 0 90 62 60
        E 120 80 3d 00
        E 0 80 4a 00
        E 0 80 56 00
        E 0 80 62 00
        E 120 90 55 60
        E 0 90 61 60
        E 120 80 55 00
        E 0 80 61 00
        E 120 90 4b 60
        E 0 90 57 60
        E 0 90 63 60
        E 120 80 4b 00
        E 0 80 57 00
        E 0 80 63 00
        E 600 90 4a 60
        E 0 90 56 60
        E 0 90 62 60
        E 120 80 4a 00
        E 0 80 56 00
        E 0 80 62 00
        E 120 90 3d 60
        E 0 90 4a 60
        E 0 90 56 60
        E 0 90 62 60
        E 120 80 3d 00
        E 0 80 4a 00
        E 0 80 56 00
        E 0 80 62 00
        E 120 90 4a 60
        E 0 90 56 60
        E 0 90 62 60
        E 120 80 4a 00
        E 0 80 56 00
        E 0 80 62 00
        E 120 90 3d 60
        E 0 90 4a 60
        E 0 90 56 60
        E 0 90 62 60
        E 120 80 3d 00
        E 0 80 4a 00
        E 0 80 56 00
        E 0 80 62 00
        E 120 90 55 60
        E 0 90 61 60
        E 120 80 55 00
        E 0 80 61 00
        E 840 90 4a 60
        E 0 90 56 60
        E 0 90 62 60
        E 120 80 4a 00
        E 0 80 56 00
        E 0 80 62 00
        E 120 90 3d 60
        E 0 90 4a 60
        E 0 90 56 60
        E 0 90 62 60
        E 120 80 3d 00
        E 0 80 4a 00
        E 0 80 56 00
        E 0 80 62 00
        E 120 90 4a 60
        E 0 90 56 60
        E 0 90 62 60
        E 120 80 4a 00
        E 0 80 56 00
        E 0 80 62 00
        E 120 90 3d 60
        E 0 90 4a 60
        E 0 90 56 60
        E 0 90 62 60
        E 120 80 3d 00
        E 0 80 4a 00
        E 0 80 56 00
        E 0 80 62 00
        E 120 90 55 60
        E 0 90 61 60
        E 120 80 55 00
        E 0 80 61 00
        E 120 90 4b 60
        E 0 90 57 60
        E 0 90 63 60
        E 120 80 4b 00
        E 0 80 57 00
        E 0 80 63 00
        E 600 90 4a 60
        E 0 90 56 60
        E 0 90 62 60
        E 120 80 4a 00
        E 0 80 56 00
        E 0 80 62 00
        E 120 90 3d 60
        E 0 90 4a 60
        E 0 90 56 60
        E 0 90 62 60
        E 120 80 3d 00
        E 0 80 4a 00
        E 0 80 56 00
        E 0 80 62 00
        E 120 90 4a 60
        E 0 90 56 60
        E 0 90 62 60
        E 120 80 4a 00
        E 0 80 56 00
        E 0 80 62 00
        E 120 90 3d 60
        E 0 90 4a 60
        E 0 90 56 60
        E 0 90 62 60
        E 120 80 3d 00
        E 0 80 4a 00
        E 0 80 56 00
        E 0 80 62 00
        E 120 90 55 60
        E 0 90 61 60
        E 120 80 55 00
        E 0 80 61 00
        E 840 90 4a 60
        E 0 90 56 60
        E 0 90 62 60
        E 120 80 4a 00
        E 0 80 56 00
        E 0 80 62 00
        E 120 90 3d 60
        E 0 90 4a 60
        E 0 90 56 60
        E 0 90 62 60
        E 120 80 3d 00
        E 0 80 4a 00
        E 0 80 56 00
        E 0 80 62 00
        E 120 90 4a 60
        E 0 90 56 60
        E 0 90 62 60
        E 120 80 4a 00
        E 0 80 56 00
        E 0 80 62 00
        E 120 90 3d 60
        E 0 90 4a 60
        E 0 90 56 60
        E 0 90 62 60
        E 120 80 3d 00
        E 0 80 4a 00
        E 0 80 56 00
        E 0 80 62 00
        E 120 90 55 60
        E 0 90 61 60
        E 120 80 55 00
        E 0 80 61 00
        E 120 90 4b 60
        E 0 90 57 60
        E 0 90 63 60
        E 120 80 4b 00
        E 0 80 57 00
        E 0 80 63 00
        E 360 90 3e 60
        E 0 90 4b 60
        E 0 90 57 60
        E 0 90 63 60
        E 120 80 3e 00
        E 0 80 4b 00
        E 0 80 57 00
        E 0 80 63 00
        E 360 90 4a 60
        E 0 90 56 60
        E 0 90 62 60
        E 120 80 4a 00
        E 0 80 56 00
        E 0 80 62 00
        E 360 90 3c 60
        E 0 90 49 60
        E 0 90 55 60
        E 0 90 61 60
        E 120 80 3c 00
        E 0 80 49 00
        E 0 80 55 00
        E 0 80 61 00
        E 120 90 49 60
        E 0 90 55 60
        E 0 90 61 60
        E 120 80 49 00
        E 0 80 55 00
        E 0 80 61 00
        E 360 90 4a 60
        E 0 90 56 60
        E 0 90 62 60
        E 120 80 4a 00
        E 0 80 56 00
        E 0 80 62 00
        E 360 90 49 60
        E 0 90 55 60
        E 0 90 61 60
        E 120 80 49 00
        E 0 80 55 00
        E 0 80 61 00
        E 360 90 57 60
        E 0 90 63 60
        E 120 80 57 00
        E 0 80 63 00
        E 120 90 3d 60
        E 0 90 4a 60
        E 0 90 56 60
        E 0 90 62 60
        E 120 80 3d 00
        E 0 80 4a 00
        E 0 80 56 00
        E 0 80 62 00
        E 120 90 55 60
        E 0 90 61 60
        E 120 80 55 00
        E 0 80 61 00
        E 120 90 48 60
        E 0 90 54 60
        E 0 90 60 60
        E 120 80 48 00
        E 0 80 54 00
        E 0 80 60 00
        E 360 90 3e 60
        E 0 90 4b 60
        E 0 90 57 60
        E 0 90 63 60
        E 120 80 3e 00
        E 0 80 4b 00
        E 0 80 57 00
        E 0 80 63 00
        E 360 90 4a 60
        E 0 90 56 60
        E 0 90 62 60
        E 120 80 4a 00
        E 0 80 56 00
        E 0 80 62 00
        E 360 90 3c 60
        E 0 90 49 60
        E 0 90 55 60
        E 0 90 61 60
        E 120 80 3c 00
        E 0 80 49 00
        E 0 80 55 00
        E 0 80 61 00
        E 120 90 49 60
        E 0 90 55 60
        E 0 90 61 60
        E 120 80 49 00
        E 0 80 55 00
        E 0 80 61 00
        E 360 90 4a 60
        E 0 90 56 60
        E 0 90 62 60
        E 120 80 4a 00
        E 0 80 56 00
        E 0 80 62 00
        E 120 90 74 60
        E 240 90 49 60
        E 0 90 55 60
        E 0 90 61 60
        E 120 80 49 00
        E 0 80 55 00
        E 0 80 61 00
        E 360 90 57 60
        E 0 90 63 60
        E 120 80 57 00
        E 0 80 63 00
        E 120 90 3d 60
        E 0 90 4a 60
        E 0 90 56 60
        E 0 90 62 60
        E 120 80 3d 00
        E 0 80 4a 00
        E 0 80 56 00
        E 0 80 62 00
        E 120 90 55 60
        E 0 90 61 60
        E 120 80 55 00
        E 0 80 61 00
        E 120 90 48 60
        E 0 90 54 60
        E 0 90 60 60
        E 120 80 48 00
        E 0 80 54 00
        E 0 80 60 00
        E 360 80 74 00
        E 0 90 3e 60
        E 0 90 4b 60
        E 0 90 57 60
        E 0 90 63 60
        E 120 80 3e 00
        E 0 80 4b 00
        E 0 80 57 00
        E 0 80 63 00
        E 360 90 4a 60
        E 0 90 56 60
        E 0 90 62 60
        E 120 80 4a 00
        E 0 80 56 00
        E 0 80 62 00
        E 360 90 3c 60
        E 0 90 49 60
        E 0 90 55 60
        E 0 90 61 60
        E 120 80 3c 00
        E 0 80 49 00
        E 0 80 55 00
        E 0 80 61 00
        E 120 90 49 60
        E 0 90 55 60
        E 0 90 61 60
        E 120 80 49 00
        E 0 80 55 00
        E 0 80 61 00
        E 360 90 4a 60
        E 0 90 56 60
        E 0 90 62 60
        E 120 80 4a 00
        E 0 80 56 00
        E 0 80 62 00
        E 360 90 49 60
        E 0 90 55 60
        E 0 90 61 60
        E 120 80 49 00
        E 0 80 55 00
        E 0 80 61 00
        E 360 90 57 60
        E 0 90 63 60
        E 120 80 57 00
        E 0 80 63 00
        E 120 90 3d 60
        E 0 90 4a 60
        E 0 90 56 60
        E 0 90 62 60
        E 120 80 3d 00
        E 0 80 4a 00
        E 0 80 56 00
        E 0 80 62 00
        E 120 90 55 60
        E 0 90 61 60
        E 120 80 55 00
        E 0 80 61 00
        E 120 90 48 60
        E 0 90 54 60
        E 0 90 60 60
        E 120 80 48 00
        E 0 80 54 00
        E 0 80 60 00
        E 360 90 3e 60
        E 0 90 4b 60
        E 0 90 57 60
        E 0 90 63 60
        E 120 80 3e 00
        E 0 80 4b 00
        E 0 80 57 00
        E 0 80 63 00
        E 360 90 4a 60
        E 0 90 56 60
        E 0 90 62 60
        E 120 80 4a 00
        E 0 80 56 00
        E 0 80 62 00
        E 360 90 3c 60
        E 0 90 49 60
        E 0 90 55 60
        E 0 90 61 60
        E 120 80 3c 00
        E 0 80 49 00
        E 0 80 55 00
        E 0 80 61 00
        E 120 90 49 60
        E 0 90 55 60
        E 0 90 61 60
        E 120 80 49 00
        E 0 80 55 00
        E 0 80 61 00
        E 241 80 31 00
        E 119 90 32 60
        E 0 90 57 60
        E 0 90 63 60
        E 120 80 57 00
        E 0 80 63 00
        E 0 90 64 60
        E 1 80 32 00
        E 119 80 64 00
        E 0 90 35 60
        E 0 90 40 60
        E 0 90 4c 60
        E 0 90 58 60
        E 0 90 64 60
        E 120 80 40 00
        E 0 80 4c 00
        E 0 80 58 00
        E 0 80 64 00
        E 120 90 4c 60
        E 0 90 58 60
        E 0 90 64 60
        E 120 80 4c 00
        E 0 80 58 00
        E 0 80 64 00
        E 120 90 40 60
        E 0 90 4c 60
        E 0 90 58 60
        E 0 90 64 60
        E 120 80 40 00
        E 0 80 4c 00
        E 0 80 58 00
        E 0 80 64 00
        E 120 90 4c 60
        E 0 90 58 60
        E 0 90 64 60
        E 120 80 4c 00
        E 0 80 58 00
        E 0 80 64 00
        E 120 90 40 60
        E 0 90 4c 60
        E 0 90 58 60
        E 0 90 64 60
        E 120 80 40 00
        E 0 80 4c 00
        E 0 80 58 00
        E 0 80 64 00
        E 120 90 4c 60
        E 0 90 58 60
        E 0 90 64 60
        E 120 80 4c 00
        E 0 80 58 00
        E 0 80 64 00
        E 120 90 4c 60
        E 0 90 58 60
        E 0 90 64 60
        E 120 80 4c 00
        E 240 80 58 00
        E 0 80 64 00
        E 1 80 35 00
        <X 119 0
          /wFbaW50ZW5zZV0=
        >
        E 0 90 31 60
        E 0 90 3e 60
        E 0 90 49 60
        E 0 90 4b 60
        E 0 90 55 60
        E 0 90 57 60
        E 0 90 61 60
        E 0 90 62 60
        E 0 90 63 60
        E 120 80 3e 00
        E 0 80 49 00
        E 0 80 4b 00
        E 0 80 55 00
        E 0 80 57 00
        E 0 80 61 00
        E 0 80 62 00
        E 0 80 63 00
        E 120 90 49 60
        E 0 90 4b 60
        E 0 90 55 60
        E 0 90 57 60
        E 0 90 61 60
        E 0 90 62 60
        E 0 90 63 60
        E 120 80 49 00
        E 0 80 4b 00
        E 0 80 55 00
        E 0 80 57 00
        E 0 80 61 00
        E 0 80 62 00
        E 0 80 63 00
        E 120 90 3e 60
        E 0 90 49 60
        E 0 90 4b 60
        E 0 90 55 60
        E 0 90 57 60
        E 0 90 61 60
        E 0 90 62 60
        E 0 90 63 60
        E 120 80 3e 00
        E 0 80 49 00
        E 0 80 4b 00
        E 0 80 55 00
        E 0 80 57 00
        E 0 80 61 00
        E 0 80 62 00
        E 0 80 63 00
        E 120 90 49 60
        E 0 90 4b 60
        E 0 90 55 60
        E 0 90 57 60
        E 0 90 61 60
        E 0 90 62 60
        E 0 90 63 60
        E 120 80 49 00
        E 0 80 4b 00
        E 0 80 55 00
        E 0 80 57 00
        E 0 80 61 00
        E 0 80 62 00
        E 0 80 63 00
        E 120 90 3e 60
        E 0 90 49 60
        E 0 90 4b 60
        E 0 90 55 60
        E 0 90 57 60
        E 0 90 61 60
        E 0 90 62 60
        E 0 90 63 60
        E 120 80 3e 00
        E 0 80 49 00
        E 0 80 4b 00
        E 0 80 55 00
        E 0 80 57 00
        E 0 80 61 00
        E 0 80 62 00
        E 0 80 63 00
        E 1 80 31 00
        E 119 90 34 60
        E 0 90 55 60
        E 0 90 58 60
        E 0 90 61 60
        E 0 90 62 60
        E 0 90 64 60
        E 120 80 55 00
        E 0 80 58 00
        E 0 80 61 00
        E 0 80 62 00
        E 0 80 64 00
        E 120 90 4a 60
        E 0 90 4c 60
        E 0 90 55 60
        E 0 90 58 60
        E 0 90 61 60
        E 0 90 62 60
        E 0 90 64 60
        E 120 80 4a 00
        E 0 80 4c 00
        E 0 80 55 00
        E 0 80 58 00
        E 0 80 61 00
        E 0 80 62 00
        E 0 80 64 00
        E 120 90 55 60
        E 0 90 58 60
        E 0 90 61 60
        E 0 90 62 60
        E 0 90 64 60
        E 120 80 55 00
        E 0 80 58 00
        E 0 80 61 00
        E 0 80 62 00
        E 0 80 64 00
        E 1 80 34 00
        E 119 90 31 60
        E 0 90 3d 60
        E 0 90 48 60
        E 0 90 4a 60
        E 0 90 54 60
        E 0 90 56 60
        E 0 90 60 60
        E 0 90 61 60
        E 0 90 63 60
        E 120 80 3d 00
        E 0 80 48 00
        E 0 80 4a 00
        E 0 80 54 00
        E 0 80 56 00
        E 0 80 60 00
        E 0 80 61 00
        E 0 80 63 00
        E 120 90 54 60
        E 0 90 56 60
        E 0 90 60 60
        E 0 90 61 60
        E 0 90 63 60
        E 120 80 54 00
        E 0 80 56 00
        E 0 80 60 00
        E 0 80 61 00
        E 0 80 63 00
        E 1 80 31 00
        E 119 90 34 60
        E 0 90 4a 60
        E 0 90 4c 60
        E 0 90 55 60
        E 0 90 58 60
        E 0 90 61 60
        E 0 90 62 60
        E 0 90 64 60
        E 120 80 4a 00
        E 0 80 4c 00
        E 240 80 55 00
        E 0 80 58 00
        E 0 80 61 00
        E 0 80 62 00
        E 0 80 64 00
        E 1 80 34 00
        E 119 90 31 60
        E 0 90 3d 60
        E 0 90 48 60
        E 0 90 4a 60
        E 0 90 54 60
        E 0 90 56 60
        E 0 90 60 60
        E 0 90 61 60
        E 0 90 63 60
        E 120 80 3d 00
        E 0 80 48 00
        E 0 80 4a 00
        E 0 80 54 00
        E 0 80 56 00
        E 0 80 60 00
        E 0 80 61 00
        E 0 80 63 00
        E 120 90 54 60
        E 0 90 56 60
        E 0 90 60 60
        E 0 90 61 60
        E 0 90 63 60
        E 120 80 54 00
        E 0 80 56 00
        E 0 80 60 00
        E 0 80 61 00
        E 0 80 63 00
        E 1 80 31 00
        E 119 90 34 60
        E 0 90 4a 60
        E 0 90 4c 60
        E 0 90 55 60
        E 0 90 58 60
        E 0 90 61 60
        E 0 90 62 60
        E 0 90 64 60
        E 120 80 4a 00
        E 0 80 4c 00
        E 240 80 55 00
        E 0 80 58 00
        E 0 80 61 00
        E 0 80 62 00
        E 0 80 64 00
        E 1 80 34 00
        E 119 90 31 60
        E 0 90 3e 60
        E 0 90 49 60
        E 0 90 4b 60
        E 0 90 55 60
        E 0 90 57 60
        E 0 90 61 60
        E 0 90 62 60
        E 0 90 63 60
        E 120 80 3e 00
        E 0 80 49 00
        E 0 80 4b 00
        E 0 80 55 00
        E 0 80 57 00
        E 0 80 61 00
        E 0 80 62 00
        E 0 80 63 00
        E 120 90 49 60
        E 0 90 4b 60
        E 0 90 55 60
        E 0 90 57 60
        E 0 90 61 60
        E 0 90 62 60
        E 0 90 63 60
        E 120 80 49 00
        E 0 80 4b 00
        E 0 80 55 00
        E 0 80 57 00
        E 0 80 61 00
        E 0 80 62 00
        E 0 80 63 00
        E 120 90 3e 60
        E 0 90 49 60
        E 0 90 4b 60
        E 0 90 55 60
        E 0 90 57 60
        E 0 90 61 60
        E 0 90 62 60
        E 0 90 63 60
        E 120 80 3e 00
        E 0 80 49 00
        E 0 80 4b 00
        E 0 80 55 00
        E 0 80 57 00
        E 0 80 61 00
        E 0 80 62 00
        E 0 80 63 00
        E 120 90 49 60
        E 0 90 4b 60
        E 0 90 55 60
        E 0 90 57 60
        E 0 90 61 60
        E 0 90 62 60
        E 0 90 63 60
        E 120 80 49 00
        E 0 80 4b 00
        E 0 80 55 00
        E 0 80 57 00
        E 0 80 61 00
        E 0 80 62 00
        E 0 80 63 00
        E 120 90 3e 60
        E 0 90 49 60
        E 0 90 4b 60
        E 0 90 55 60
        E 0 90 57 60
        E 0 90 61 60
        E 0 90 62 60
        E 0 90 63 60
        E 120 80 3e 00
        E 0 80 49 00
        E 0 80 4b 00
        E 0 80 55 00
        E 0 80 57 00
        E 0 80 61 00
        E 0 80 62 00
        E 0 80 63 00
        E 1 80 31 00
        E 119 90 34 60
        E 0 90 55 60
        E 0 90 58 60
        E 0 90 61 60
        E 0 90 62 60
        E 0 90 64 60
        E 120 80 55 00
        E 0 80 58 00
        E 0 80 61 00
        E 0 80 62 00
        E 0 80 64 00
        E 120 90 4a 60
        E 0 90 4c 60
        E 0 90 55 60
        E 0 90 58 60
        E 0 90 61 60
        E 0 90 62 60
        E 0 90 64 60
        E 120 80 4a 00
        E 0 80 4c 00
        E 0 80 55 00
        E 0 80 58 00
        E 0 80 61 00
        E 0 80 62 00
        E 0 80 64 00
        E 120 90 55 60
        E 0 90 58 60
        E 0 90 61 60
        E 0 90 62 60
        E 0 90 64 60
        E 120 80 55 00
        E 0 80 58 00
        E 0 80 61 00
        E 0 80 62 00
        E 0 80 64 00
        E 1 80 34 00
        E 119 90 31 60
        E 0 90 3d 60
        E 0 90 48 60
        E 0 90 4a 60
        E 0 90 54 60
        E 0 90 56 60
        E 0 90 60 60
        E 0 90 61 60
        E 0 90 63 60
        E 120 80 3d 00
        E 0 80 48 00
        E 0 80 4a 00
        E 0 80 54 00
        E 0 80 56 00
        E 0 80 60 00
        E 0 80 61 00
        E 0 80 63 00
        E 120 90 54 60
        E 0 90 56 60
        E 0 90 60 60
        E 0 90 61 60
        E 0 90 63 60
        E 120 80 54 00
        E 0 80 56 00
        E 0 80 60 00
        E 0 80 61 00
        E 0 80 63 00
        E 1 80 31 00
        E 119 90 34 60
        E 0 90 4a 60
        E 0 90 4c 60
        E 0 90 55 60
        E 0 90 58 60
        E 0 90 61 60
        E 0 90 62 60
        E 0 90 64 60
        E 120 80 4a 00
        E 0 80 4c 00
        E 240 80 55 00
        E 0 80 58 00
        E 0 80 61 00
        E 0 80 62 00
        E 0 80 64 00
        E 1 80 34 00
        E 119 90 31 60
        E 0 90 3d 60
        E 0 90 48 60
        E 0 90 4a 60
        E 0 90 54 60
        E 0 90 56 60
        E 0 90 60 60
        E 0 90 61 60
        E 0 90 63 60
        E 120 80 3d 00
        E 0 80 48 00
        E 0 80 4a 00
        E 0 80 54 00
        E 0 80 56 00
        E 0 80 60 00
        E 0 80 61 00
        E 0 80 63 00
        E 120 90 54 60
        E 0 90 56 60
        E 0 90 60 60
        E 0 90 61 60
        E 0 90 63 60
        E 120 80 54 00
        E 0 80 56 00
        E 0 80 60 00
        E 0 80 61 00
        E 0 80 63 00
        E 1 80 31 00
        E 119 90 34 60
        E 0 90 4a 60
        E 0 90 4c 60
        E 0 90 55 60
        E 0 90 58 60
        E 0 90 61 60
        E 0 90 62 60
        E 0 90 64 60
        E 120 80 4a 00
        E 0 80 4c 00
        E 240 80 55 00
        E 0 80 58 00
        E 0 80 61 00
        E 0 80 62 00
        E 0 80 64 00
        E 1 80 34 00
        E 119 90 31 60
        E 0 90 3e 60
        E 0 90 49 60
        E 0 90 4b 60
        E 0 90 55 60
        E 0 90 57 60
        E 0 90 61 60
        E 0 90 62 60
        E 0 90 63 60
        E 120 80 3e 00
        E 0 80 49 00
        E 0 80 4b 00
        E 0 80 55 00
        E 0 80 57 00
        E 0 80 61 00
        E 0 80 62 00
        E 0 80 63 00
        E 120 90 49 60
        E 0 90 4b 60
        E 0 90 55 60
        E 0 90 57 60
        E 0 90 61 60
        E 0 90 62 60
        E 0 90 63 60
        E 120 80 49 00
        E 0 80 4b 00
        E 0 80 55 00
        E 0 80 57 00
        E 0 80 61 00
        E 0 80 62 00
        E 0 80 63 00
        E 120 90 3e 60
        E 0 90 49 60
        E 0 90 4b 60
        E 0 90 55 60
        E 0 90 57 60
        E 0 90 61 60
        E 0 90 62 60
        E 0 90 63 60
        E 120 80 3e 00
        E 0 80 49 00
        E 0 80 4b 00
        E 0 80 55 00
        E 0 80 57 00
        E 0 80 61 00
        E 0 80 62 00
        E 0 80 63 00
        E 120 90 49 60
        E 0 90 4b 60
        E 0 90 55 60
        E 0 90 57 60
        E 0 90 61 60
        E 0 90 62 60
        E 0 90 63 60
        E 120 80 49 00
        E 0 80 4b 00
        E 0 80 55 00
        E 0 80 57 00
        E 0 80 61 00
        E 0 80 62 00
        E 0 80 63 00
        E 120 90 3e 60
        E 0 90 49 60
        E 0 90 4b 60
        E 0 90 55 60
        E 0 90 57 60
        E 0 90 61 60
        E 0 90 62 60
        E 0 90 63 60
        E 120 80 3e 00
        E 0 80 49 00
        E 0 80 4b 00
        E 0 80 55 00
        E 0 80 57 00
        E 0 80 61 00
        E 0 80 62 00
        E 0 80 63 00
        E 1 80 31 00
        E 119 90 34 60
        E 0 90 55 60
        E 0 90 58 60
        E 0 90 61 60
        E 0 90 62 60
        E 0 90 64 60
        E 120 80 55 00
        E 0 80 58 00
        E 0 80 61 00
        E 0 80 62 00
        E 0 80 64 00
        E 120 90 4a 60
        E 0 90 4c 60
        E 0 90 55 60
        E 0 90 58 60
        E 0 90 61 60
        E 0 90 62 60
        E 0 90 64 60
        E 120 80 4a 00
        E 0 80 4c 00
        E 0 80 55 00
        E 0 80 58 00
        E 0 80 61 00
        E 0 80 62 00
        E 0 80 64 00
        E 120 90 55 60
        E 0 90 58 60
        E 0 90 61 60
        E 0 90 62 60
        E 0 90 64 60
        E 120 80 55 00
        E 0 80 58 00
        E 0 80 61 00
        E 0 80 62 00
        E 0 80 64 00
        E 1 80 34 00
        E 119 90 31 60
        E 0 90 3d 60
        E 0 90 48 60
        E 0 90 4a 60
        E 0 90 54 60
        E 0 90 56 60
        E 0 90 60 60
        E 0 90 61 60
        E 0 90 63 60
        E 0 90 74 60
        E 120 80 3d 00
        E 0 80 48 00
        E 0 80 4a 00
        E 0 80 54 00
        E 0 80 56 00
        E 0 80 60 00
        E 0 80 61 00
        E 0 80 63 00
        E 120 90 54 60
        E 0 90 56 60
        E 0 90 60 60
        E 0 90 61 60
        E 0 90 63 60
        E 120 80 54 00
        E 0 80 56 00
        E 0 80 60 00
        E 0 80 61 00
        E 0 80 63 00
        E 1 80 31 00
        E 119 90 34 60
        E 0 90 4a 60
        E 0 90 4c 60
        E 0 90 55 60
        E 0 90 58 60
        E 0 90 61 60
        E 0 90 62 60
        E 0 90 64 60
        E 120 80 4a 00
        E 0 80 4c 00
        E 240 80 55 00
        E 0 80 58 00
        E 0 80 61 00
        E 0 80 62 00
        E 0 80 64 00
        E 1 80 34 00
        E 119 90 31 60
        E 0 90 3d 60
        E 0 90 48 60
        E 0 90 4a 60
        E 0 90 54 60
        E 0 90 56 60
        E 0 90 60 60
        E 0 90 61 60
        E 0 90 63 60
        E 120 80 3d 00
        E 0 80 48 00
        E 0 80 4a 00
        E 0 80 54 00
        E 0 80 56 00
        E 0 80 60 00
        E 0 80 61 00
        E 0 80 63 00
        E 120 90 54 60
        E 0 90 56 60
        E 0 90 60 60
        E 0 90 61 60
        E 0 90 63 60
        E 120 80 54 00
        E 0 80 56 00
        E 0 80 60 00
        E 0 80 61 00
        E 0 80 63 00
        E 1 80 31 00
        E 119 90 34 60
        E 0 90 4a 60
        E 0 90 4c 60
        E 0 90 55 60
        E 0 90 58 60
        E 0 90 61 60
        E 0 90 62 60
        E 0 90 64 60
        E 120 80 4a 00
        E 0 80 4c 00
        E 240 80 55 00
        E 0 80 58 00
        E 0 80 61 00
        E 0 80 62 00
        E 0 80 64 00
        E 1 80 34 00
        E 119 80 74 00
        E 0 90 31 60
        E 0 90 3e 60
        E 0 90 49 60
        E 0 90 4b 60
        E 0 90 55 60
        E 0 90 57 60
        E 0 90 61 60
        E 0 90 62 60
        E 0 90 63 60
        E 120 80 3e 00
        E 0 80 49 00
        E 0 80 4b 00
        E 0 80 55 00
        E 0 80 57 00
        E 0 80 61 00
        E 0 80 62 00
        E 0 80 63 00
        E 120 90 49 60
        E 0 90 4b 60
        E 0 90 55 60
        E 0 90 57 60
        E 0 90 61 60
        E 0 90 62 60
        E 0 90 63 60
        E 120 80 49 00
        E 0 80 4b 00
        E 0 80 55 00
        E 0 80 57 00
        E 0 80 61 00
        E 0 80 62 00
        E 0 80 63 00
        E 120 90 3e 60
        E 0 90 49 60
        E 0 90 4b 60
        E 0 90 55 60
        E 0 90 57 60
        E 0 90 61 60
        E 0 90 62 60
        E 0 90 63 60
        E 120 80 3e 00
        E 0 80 49 00
        E 0 80 4b 00
        E 0 80 55 00
        E 0 80 57 00
        E 0 80 61 00
        E 0 80 62 00
        E 0 80 63 00
        E 120 90 49 60
        E 0 90 4b 60
        E 0 90 55 60
        E 0 90 57 60
        E 0 90 61 60
        E 0 90 62 60
        E 0 90 63 60
        E 120 80 49 00
        E 0 80 4b 00
        E 0 80 55 00
        E 0 80 57 00
        E 0 80 61 00
        E 0 80 62 00
        E 0 80 63 00
        E 120 90 3e 60
        E 0 90 49 60
        E 0 90 4b 60
        E 0 90 55 60
        E 0 90 57 60
        E 0 90 61 60
        E 0 90 62 60
        E 0 90 63 60
        E 120 80 3e 00
        E 0 80 49 00
        E 0 80 4b 00
        E 0 80 55 00
        E 0 80 57 00
        E 0 80 61 00
        E 0 80 62 00
        E 0 80 63 00
        E 1 80 31 00
        E 119 90 34 60
        E 0 90 55 60
        E 0 90 58 60
        E 0 90 61 60
        E 0 90 62 60
        E 0 90 64 60
        E 120 80 55 00
        E 0 80 58 00
        E 0 80 61 00
        E 0 80 62 00
        E 0 80 64 00
        E 120 90 4a 60
        E 0 90 4c 60
        E 0 90 55 60
        E 0 90 58 60
        E 0 90 61 60
        E 0 90 62 60
        E 0 90 64 60
        E 120 80 4a 00
        E 0 80 4c 00
        E 0 80 55 00
        E 0 80 58 00
        E 0 80 61 00
        E 0 80 62 00
        E 0 80 64 00
        E 120 90 55 60
        E 0 90 58 60
        E 0 90 61 60
        E 0 90 62 60
        E 0 90 64 60
        E 120 80 55 00
        E 0 80 58 00
        E 0 80 61 00
        E 0 80 62 00
        E 0 80 64 00
        E 1 80 34 00
        E 119 90 31 60
        E 0 90 3d 60
        E 0 90 48 60
        E 0 90 4a 60
        E 0 90 54 60
        E 0 90 56 60
        E 0 90 60 60
        E 0 90 61 60
        E 0 90 63 60
        E 120 80 3d 00
        E 0 80 48 00
        E 0 80 4a 00
        E 0 80 54 00
        E 0 80 56 00
        E 0 80 60 00
        E 0 80 61 00
        E 0 80 63 00
        E 120 90 54 60
        E 0 90 56 60
        E 0 90 60 60
        E 0 90 61 60
        E 0 90 63 60
        E 120 80 54 00
        E 0 80 56 00
        E 0 80 60 00
        E 0 80 61 00
        E 0 80 63 00
        E 1 80 31 00
        E 119 90 34 60
        E 0 90 4a 60
        E 0 90 4c 60
        E 0 90 55 60
        E 0 90 58 60
        E 0 90 61 60
        E 0 90 62 60
        E 0 90 64 60
        E 120 80 4a 00
        E 0 80 4c 00
        E 240 80 55 00
        E 0 80 58 00
        E 0 80 61 00
        E 0 80 62 00
        E 0 80 64 00
        E 1 80 34 00
        E 119 90 31 60
        E 0 90 3d 60
        E 0 90 48 60
        E 0 90 4a 60
        E 0 90 54 60
        E 0 90 56 60
        E 0 90 60 60
        E 0 90 61 60
        E 0 90 63 60
        E 120 80 3d 00
        E 0 80 48 00
        E 0 80 4a 00
        E 0 80 54 00
        E 0 80 56 00
        E 0 80 60 00
        E 0 80 61 00
        E 0 80 63 00
        E 120 90 54 60
        E 0 90 56 60
        E 0 90 60 60
        E 0 90 61 60
        E 0 90 63 60
        E 120 80 54 00
        E 0 80 56 00
        E 0 80 60 00
        E 0 80 61 00
        E 0 80 63 00
        E 1 80 31 00
        E 119 90 34 60
        E 0 90 4a 60
        E 0 90 4c 60
        E 0 90 55 60
        E 0 90 58 60
        E 0 90 61 60
        E 0 90 62 60
        E 0 90 64 60
        E 360 80 4a 00
        E 0 80 4c 00
        E 0 80 55 00
        E 0 80 58 00
        E 0 80 61 00
        E 0 80 62 00
        E 0 80 64 00
        <X 120 0
          /wFbcGxheV0=
        >
        E 601 80 34 00
        E 119 90 31 60
        E 0 90 4a 60
        E 0 90 56 60
        E 0 90 62 60
        E 120 80 4a 00
        E 0 80 56 00
        E 0 80 62 00
        E 120 90 3d 60
        E 0 90 4a 60
        E 0 90 56 60
        E 0 90 62 60
        E 120 80 3d 00
        E 0 80 4a 00
        E 0 80 56 00
        E 0 80 62 00
        E 120 90 55 60
        E 0 90 61 60
        E 120 80 55 00
        E 0 80 61 00
        E 840 90 4a 60
        E 0 90 56 60
        E 0 90 62 60
        E 120 80 4a 00
        E 0 80 56 00
        E 0 80 62 00
        E 120 90 3d 60
        E 0 90 4a 60
        E 0 90 56 60
        E 0 90 62 60
        E 120 80 3d 00
        E 0 80 4a 00
        E 0 80 56 00
        E 0 80 62 00
        E 120 90 4a 60
        E 0 90 56 60
        E 0 90 62 60
        E 120 80 4a 00
        E 0 80 56 00
        E 0 80 62 00
        E 120 90 3d 60
        E 0 90 4a 60
        E 0 90 56 60
        E 0 90 62 60
        E 120 80 3d 00
        E 0 80 4a 00
        E 0 80 56 00
        E 0 80 62 00
        E 120 90 55 60
        E 0 90 61 60
        E 120 80 55 00
        E 0 80 61 00
        E 120 90 4b 60
        E 0 90 57 60
        E 0 90 63 60
        E 120 80 4b 00
        E 0 80 57 00
        E 0 80 63 00
        E 600 90 4a 60
        E 0 90 56 60
        E 0 90 62 60
        E 120 80 4a 00
        E 0 80 56 00
        E 0 80 62 00
        E 120 90 3d 60
        E 0 90 4a 60
        E 0 90 56 60
        E 0 90 62 60
        E 120 80 3d 00
        E 0 80 4a 00
        E 0 80 56 00
        E 0 80 62 00
        E 120 90 4a 60
        E 0 90 56 60
        E 0 90 62 60
        E 120 80 4a 00
        E 0 80 56 00
        E 0 80 62 00
        E 120 90 3d 60
        E 0 90 4a 60
        E 0 90 56 60
        E 0 90 62 60
        E 120 80 3d 00
        E 0 80 4a 00
        E 0 80 56 00
        E 0 80 62 00
        E 120 90 55 60
        E 0 90 61 60
        E 120 80 55 00
        E 0 80 61 00
        E 840 90 4a 60
        E 0 90 56 60
        E 0 90 62 60
        E 120 80 4a 00
        E 0 80 56 00
        E 0 80 62 00
        E 120 90 3d 60
        E 0 90 4a 60
        E 0 90 56 60
        E 0 90 62 60
        E 120 80 3d 00
        E 0 80 4a 00
        E 0 80 56 00
        E 0 80 62 00
        E 120 90 4a 60
        E 0 90 56 60
        E 0 90 62 60
        E 120 80 4a 00
        E 0 80 56 00
        E 0 80 62 00
        E 120 90 3d 60
        E 0 90 4a 60
        E 0 90 56 60
        E 0 90 62 60
        E 120 80 3d 00
        E 0 80 4a 00
        E 0 80 56 00
        E 0 80 62 00
        E 120 90 55 60
        E 0 90 61 60
        E 120 80 55 00
        E 0 80 61 00
        E 120 90 4b 60
        E 0 90 57 60
        E 0 90 63 60
        E 120 80 4b 00
        E 0 80 57 00
        E 0 80 63 00
        E 600 90 4a 60
        E 0 90 56 60
        E 0 90 62 60
        E 120 80 4a 00
        E 0 80 56 00
        E 0 80 62 00
        E 120 90 3d 60
        E 0 90 4a 60
        E 0 90 56 60
        E 0 90 62 60
        E 120 80 3d 00
        E 0 80 4a 00
        E 0 80 56 00
        E 0 80 62 00
        E 120 90 4a 60
        E 0 90 56 60
        E 0 90 62 60
        E 120 80 4a 00
        E 0 80 56 00
        E 0 80 62 00
        E 120 90 3d 60
        E 0 90 4a 60
        E 0 90 56 60
        E 0 90 62 60
        E 120 80 3d 00
        E 0 80 4a 00
        E 0 80 56 00
        E 0 80 62 00
        E 120 90 55 60
        E 0 90 61 60
        E 120 80 55 00
        E 0 80 61 00
        E 840 90 4a 60
        E 0 90 56 60
        E 0 90 62 60
        E 120 80 4a 00
        E 0 80 56 00
        E 0 80 62 00
        E 120 90 3d 60
        E 0 90 4a 60
        E 0 90 56 60
        E 0 90 62 60
        E 120 80 3d 00
        E 0 80 4a 00
        E 0 80 56 00
        E 0 80 62 00
        E 120 90 4a 60
        E 0 90 56 60
        E 0 90 62 60
        E 120 80 4a 00
        E 0 80 56 00
        E 0 80 62 00
        E 120 90 3d 60
        E 0 90 4a 60
        E 0 90 56 60
        E 0 90 62 60
        E 120 80 3d 00
        E 0 80 4a 00
        E 0 80 56 00
        E 0 80 62 00
        E 120 90 55 60
        E 0 90 61 60
        E 120 80 55 00
        E 0 80 61 00
        E 120 90 4b 60
        E 0 90 57 60
        E 0 90 63 60
        E 120 80 4b 00
        E 0 80 57 00
        E 0 80 63 00
        E 600 90 4a 60
        E 0 90 56 60
        E 0 90 62 60
        E 120 80 4a 00
        E 0 80 56 00
        E 0 80 62 00
        E 120 90 3d 60
        E 0 90 4a 60
        E 0 90 56 60
        E 0 90 62 60
        E 120 80 3d 00
        E 0 80 4a 00
        E 0 80 56 00
        E 0 80 62 00
        E 120 90 4a 60
        E 0 90 56 60
        E 0 90 62 60
        E 120 80 4a 00
        E 0 80 56 00
        E 0 80 62 00
        E 120 90 3d 60
        E 0 90 4a 60
        E 0 90 56 60
        E 0 90 62 60
        E 120 80 3d 00
        E 0 80 4a 00
        E 0 80 56 00
        E 0 80 62 00
        E 120 90 55 60
        E 0 90 61 60
        E 120 80 55 00
        E 0 80 61 00
        E 840 90 4a 60
        E 0 90 56 60
        E 0 90 62 60
        E 120 80 4a 00
        E 0 80 56 00
        E 0 80 62 00
        E 120 90 3d 60
        E 0 90 4a 60
        E 0 90 56 60
        E 0 90 62 60
        E 120 80 3d 00
        E 0 80 4a 00
        E 0 80 56 00
        E 0 80 62 00
        E 120 90 4a 60
        E 0 90 56 60
        E 0 90 62 60
        E 120 80 4a 00
        E 0 80 56 00
        E 0 80 62 00
        E 120 90 3d 60
        E 0 90 4a 60
        E 0 90 56 60
        E 0 90 62 60
        E 120 80 3d 00
        E 0 80 4a 00
        E 0 80 56 00
        E 0 80 62 00
        E 120 90 55 60
        E 0 90 61 60
        E 120 80 55 00
        E 0 80 61 00
        E 120 90 4b 60
        E 0 90 57 60
        E 0 90 63 60
        E 120 80 4b 00
        E 0 80 57 00
        E 0 80 63 00
        E 360 90 3e 60
        E 0 90 4b 60
        E 0 90 57 60
        E 0 90 63 60
        E 120 80 3e 00
        E 0 80 4b 00
        E 0 80 57 00
        E 0 80 63 00
        E 360 90 4a 60
        E 0 90 56 60
        E 0 90 62 60
        E 120 80 4a 00
        E 0 80 56 00
        E 0 80 62 00
        E 360 90 3c 60
        E 0 90 49 60
        E 0 90 55 60
        E 0 90 61 60
        E 120 80 3c 00
        E 0 80 49 00
        E 0 80 55 00
        E 0 80 61 00
        E 120 90 49 60
        E 0 90 55 60
        E 0 90 61 60
        E 120 80 49 00
        E 0 80 55 00
        E 0 80 61 00
        E 360 90 4a 60
        E 0 90 56 60
        E 0 90 62 60
        E 120 80 4a 00
        E 0 80 56 00
        E 0 80 62 00
        E 360 90 49 60
        E 0 90 55 60
        E 0 90 61 60
        E 120 80 49 00
        E 0 80 55 00
        E 0 80 61 00
        E 360 90 57 60
        E 0 90 63 60
        E 120 80 57 00
        E 0 80 63 00
        E 120 90 3d 60
        E 0 90 4a 60
        E 0 90 56 60
        E 0 90 62 60
        E 120 80 3d 00
        E 0 80 4a 00
        E 0 80 56 00
        E 0 80 62 00
        E 120 90 55 60
        E 0 90 61 60
        E 120 80 55 00
        E 0 80 61 00
        E 120 90 48 60
        E 0 90 54 60
        E 0 90 60 60
        E 120 80 48 00
        E 0 80 54 00
        E 0 80 60 00
        E 360 90 3e 60
        E 0 90 4b 60
        E 0 90 57 60
        E 0 90 63 60
        E 0 90 74 60
        E 120 80 3e 00
        E 0 80 4b 00
        E 0 80 57 00
        E 0 80 63 00
        E 360 90 4a 60
        E 0 90 56 60
        E 0 90 62 60
        E 120 80 4a 00
        E 0 80 56 00
        E 0 80 62 00
        E 360 90 3c 60
        E 0 90 49 60
        E 0 90 55 60
        E 0 90 61 60
        E 120 80 3c 00
        E 0 80 49 00
        E 0 80 55 00
        E 0 80 61 00
        E 120 90 49 60
        E 0 90 55 60
        E 0 90 61 60
        E 120 80 49 00
        E 0 80 55 00
        E 0 80 61 00
        E 360 90 4a 60
        E 0 90 56 60
        E 0 90 62 60
        E 120 80 4a 00
        E 0 80 56 00
        E 0 80 62 00
        E 360 90 49 60
        E 0 90 55 60
        E 0 90 61 60
        E 120 80 49 00
        E 0 80 55 00
        E 0 80 61 00
        E 360 90 57 60
        E 0 90 63 60
        E 120 80 57 00
        E 0 80 63 00
        E 120 90 3d 60
        E 0 90 4a 60
        E 0 90 56 60
        E 0 90 62 60
        E 120 80 3d 00
        E 0 80 4a 00
        E 0 80 56 00
        E 0 80 62 00
        E 120 90 55 60
        E 0 90 61 60
        E 120 80 55 00
        E 0 80 61 00
        E 120 90 48 60
        E 0 90 54 60
        E 0 90 60 60
        E 120 80 48 00
        E 0 80 54 00
        E 0 80 60 00
        E 360 80 74 00
        E 240 90 57 60
        E 0 90 63 60
        E 120 80 57 00
        E 0 80 63 00
        E 120 90 4a 60
        E 0 90 56 60
        E 0 90 62 60
        E 120 80 4a 00
        E 0 80 56 00
        E 0 80 62 00
        E 360 90 3c 60
        E 0 90 49 60
        E 0 90 55 60
        E 0 90 61 60
        E 120 80 3c 00
        E 0 80 49 00
        E 0 80 55 00
        E 0 80 61 00
        E 120 90 49 60
        E 0 90 55 60
        E 0 90 61 60
        E 120 80 49 00
        E 0 80 55 00
        E 0 80 61 00
        E 360 90 4a 60
        E 0 90 56 60
        E 0 90 62 60
        E 120 80 4a 00
        E 0 80 56 00
        E 0 80 62 00
        E 360 90 49 60
        E 0 90 55 60
        E 0 90 61 60
        E 120 80 49 00
        E 0 80 55 00
        E 0 80 61 00
        E 360 90 4b 60
        E 0 90 57 60
        E 0 90 63 60
        E 120 80 4b 00
        E 0 80 57 00
        E 0 80 63 00
        E 120 90 3e 60
        E 0 90 4b 60
        E 0 90 57 60
        E 0 90 63 60
        E 120 80 3e 00
        E 0 80 4b 00
        E 0 80 57 00
        E 0 80 63 00
        E 120 90 4b 60
        E 0 90 57 60
        E 0 90 63 60
        E 120 80 4b 00
        E 0 80 57 00
        E 0 80 63 00
        E 120 90 3e 60
        E 0 90 4b 60
        E 0 90 57 60
        E 0 90 63 60
        E 120 80 3e 00
        E 0 80 4b 00
        E 0 80 57 00
        E 0 80 63 00
        E 120 90 4b 60
        E 0 90 57 60
        E 0 90 63 60
        E 120 80 4b 00
        E 0 80 57 00
        E 0 80 63 00
        E 120 90 3e 60
        E 0 90 4b 60
        E 0 90 57 60
        E 0 90 63 60
        E 120 80 3e 00
        E 0 80 4b 00
        E 0 80 57 00
        E 0 80 63 00
        E 360 90 4a 60
        E 0 90 56 60
        E 0 90 62 60
        E 120 80 4a 00
        E 0 80 56 00
        E 0 80 62 00
        E 360 90 3c 60
        E 0 90 49 60
        E 0 90 55 60
        E 0 90 61 60
        E 120 80 3c 00
        E 0 80 49 00
        E 0 80 55 00
        E 0 80 61 00
        E 120 90 49 60
        E 0 90 55 60
        E 0 90 61 60
        E 120 80 49 00
        E 0 80 55 00
        E 0 80 61 00
        E 241 80 31 00
        E 119 90 32 60
        E 0 90 57 60
        E 0 90 63 60
        E 120 80 57 00
        E 0 80 63 00
        E 0 90 64 60
        E 1 80 32 00
        E 119 80 64 00
        E 0 90 35 60
        E 0 90 40 60
        E 0 90 4c 60
        E 0 90 58 60
        E 0 90 64 60
        E 120 80 40 00
        E 0 80 4c 00
        E 0 80 58 00
        E 0 80 64 00
        E 120 90 4c 60
        E 0 90 58 60
        E 0 90 64 60
        E 120 80 4c 00
        E 0 80 58 00
        E 0 80 64 00
        E 120 90 40 60
        E 0 90 4c 60
        E 0 90 58 60
        E 0 90 64 60
        E 120 80 40 00
        E 0 80 4c 00
        E 0 80 58 00
        E 0 80 64 00
        E 120 90 4c 60
        E 0 90 58 60
        E 0 90 64 60
        E 120 80 4c 00
        E 0 80 58 00
        E 0 80 64 00
        E 120 90 40 60
        E 0 90 4c 60
        E 0 90 58 60
        E 0 90 64 60
        E 120 80 40 00
        E 0 80 4c 00
        E 0 80 58 00
        E 0 80 64 00
        E 120 90 4c 60
        E 0 90 58 60
        E 0 90 64 60
        E 120 80 4c 00
        E 0 80 58 00
        E 0 80 64 00
        E 120 90 4c 60
        E 0 90 58 60
        E 0 90 64 60
        E 120 80 4c 00
        E 240 80 58 00
        E 0 80 64 00
        E 1 80 35 00
        <X 119 0
          /wFbaW50ZW5zZV0=
        >
        E 0 90 31 60
        E 0 90 3e 60
        E 0 90 49 60
        E 0 90 4b 60
        E 0 90 55 60
        E 0 90 57 60
        E 0 90 61 60
        E 0 90 62 60
        E 0 90 63 60
        E 120 80 3e 00
        E 0 80 49 00
        E 0 80 4b 00
        E 0 80 55 00
        E 0 80 57 00
        E 0 80 61 00
        E 0 80 62 00
        E 0 80 63 00
        E 120 90 49 60
        E 0 90 4b 60
        E 0 90 55 60
        E 0 90 57 60
        E 0 90 61 60
        E 0 90 62 60
        E 0 90 63 60
        E 120 80 49 00
        E 0 80 4b 00
        E 0 80 55 00
        E 0 80 57 00
        E 0 80 61 00
        E 0 80 62 00
        E 0 80 63 00
        E 120 90 3e 60
        E 0 90 49 60
        E 0 90 4b 60
        E 0 90 55 60
        E 0 90 57 60
        E 0 90 61 60
        E 0 90 62 60
        E 0 90 63 60
        E 120 80 3e 00
        E 0 80 49 00
        E 0 80 4b 00
        E 0 80 55 00
        E 0 80 57 00
        E 0 80 61 00
        E 0 80 62 00
        E 0 80 63 00
        E 120 90 49 60
        E 0 90 4b 60
        E 0 90 55 60
        E 0 90 57 60
        E 0 90 61 60
        E 0 90 62 60
        E 0 90 63 60
        E 120 80 49 00
        E 0 80 4b 00
        E 0 80 55 00
        E 0 80 57 00
        E 0 80 61 00
        E 0 80 62 00
        E 0 80 63 00
        E 120 90 3e 60
        E 0 90 49 60
        E 0 90 4b 60
        E 0 90 55 60
        E 0 90 57 60
        E 0 90 61 60
        E 0 90 62 60
        E 0 90 63 60
        E 120 80 3e 00
        E 0 80 49 00
        E 0 80 4b 00
        E 0 80 55 00
        E 0 80 57 00
        E 0 80 61 00
        E 0 80 62 00
        E 0 80 63 00
        E 1 80 31 00
        E 119 90 34 60
        E 0 90 55 60
        E 0 90 58 60
        E 0 90 61 60
        E 0 90 62 60
        E 0 90 64 60
        E 120 80 55 00
        E 0 80 58 00
        E 0 80 61 00
        E 0 80 62 00
        E 0 80 64 00
        E 120 90 4a 60
        E 0 90 4c 60
        E 0 90 55 60
        E 0 90 58 60
        E 0 90 61 60
        E 0 90 62 60
        E 0 90 64 60
        E 120 80 4a 00
        E 0 80 4c 00
        E 0 80 55 00
        E 0 80 58 00
        E 0 80 61 00
        E 0 80 62 00
        E 0 80 64 00
        E 120 90 55 60
        E 0 90 58 60
        E 0 90 61 60
        E 0 90 62 60
        E 0 90 64 60
        E 120 80 55 00
        E 0 80 58 00
        E 0 80 61 00
        E 0 80 62 00
        E 0 80 64 00
        E 1 80 34 00
        E 119 90 31 60
        E 0 90 3d 60
        E 0 90 48 60
        E 0 90 4a 60
        E 0 90 54 60
        E 0 90 56 60
        E 0 90 60 60
        E 0 90 61 60
        E 0 90 63 60
        E 120 80 3d 00
        E 0 80 48 00
        E 0 80 4a 00
        E 0 80 54 00
        E 0 80 56 00
        E 0 80 60 00
        E 0 80 61 00
        E 0 80 63 00
        E 120 90 54 60
        E 0 90 56 60
        E 0 90 60 60
        E 0 90 61 60
        E 0 90 63 60
        E 120 80 54 00
        E 0 80 56 00
        E 0 80 60 00
        E 0 80 61 00
        E 0 80 63 00
        E 1 80 31 00
        E 119 90 34 60
        E 0 90 4a 60
        E 0 90 4c 60
        E 0 90 55 60
        E 0 90 58 60
        E 0 90 61 60
        E 0 90 62 60
        E 0 90 64 60
        E 120 80 4a 00
        E 0 80 4c 00
        E 240 80 55 00
        E 0 80 58 00
        E 0 80 61 00
        E 0 80 62 00
        E 0 80 64 00
        E 1 80 34 00
        E 119 90 31 60
        E 0 90 3d 60
        E 0 90 48 60
        E 0 90 4a 60
        E 0 90 54 60
        E 0 90 56 60
        E 0 90 60 60
        E 0 90 61 60
        E 0 90 63 60
        E 120 80 3d 00
        E 0 80 48 00
        E 0 80 4a 00
        E 0 80 54 00
        E 0 80 56 00
        E 0 80 60 00
        E 0 80 61 00
        E 0 80 63 00
        E 120 90 54 60
        E 0 90 56 60
        E 0 90 60 60
        E 0 90 61 60
        E 0 90 63 60
        E 120 80 54 00
        E 0 80 56 00
        E 0 80 60 00
        E 0 80 61 00
        E 0 80 63 00
        E 1 80 31 00
        E 119 90 34 60
        E 0 90 4a 60
        E 0 90 4c 60
        E 0 90 55 60
        E 0 90 58 60
        E 0 90 61 60
        E 0 90 62 60
        E 0 90 64 60
        E 120 80 4a 00
        E 0 80 4c 00
        E 240 80 55 00
        E 0 80 58 00
        E 0 80 61 00
        E 0 80 62 00
        E 0 80 64 00
        E 1 80 34 00
        E 119 90 31 60
        E 0 90 3e 60
        E 0 90 49 60
        E 0 90 4b 60
        E 0 90 55 60
        E 0 90 57 60
        E 0 90 61 60
        E 0 90 62 60
        E 0 90 63 60
        E 120 80 3e 00
        E 0 80 49 00
        E 0 80 4b 00
        E 0 80 55 00
        E 0 80 57 00
        E 0 80 61 00
        E 0 80 62 00
        E 0 80 63 00
        E 120 90 49 60
        E 0 90 4b 60
        E 0 90 55 60
        E 0 90 57 60
        E 0 90 61 60
        E 0 90 62 60
        E 0 90 63 60
        E 120 80 49 00
        E 0 80 4b 00
        E 0 80 55 00
        E 0 80 57 00
        E 0 80 61 00
        E 0 80 62 00
        E 0 80 63 00
        E 120 90 3e 60
        E 0 90 49 60
        E 0 90 4b 60
        E 0 90 55 60
        E 0 90 57 60
        E 0 90 61 60
        E 0 90 62 60
        E 0 90 63 60
        E 120 80 3e 00
        E 0 80 49 00
        E 0 80 4b 00
        E 0 80 55 00
        E 0 80 57 00
        E 0 80 61 00
        E 0 80 62 00
        E 0 80 63 00
        E 120 90 49 60
        E 0 90 4b 60
        E 0 90 55 60
        E 0 90 57 60
        E 0 90 61 60
        E 0 90 62 60
        E 0 90 63 60
        E 120 80 49 00
        E 0 80 4b 00
        E 0 80 55 00
        E 0 80 57 00
        E 0 80 61 00
        E 0 80 62 00
        E 0 80 63 00
        E 120 90 3e 60
        E 0 90 49 60
        E 0 90 4b 60
        E 0 90 55 60
        E 0 90 57 60
        E 0 90 61 60
        E 0 90 62 60
        E 0 90 63 60
        E 120 80 3e 00
        E 0 80 49 00
        E 0 80 4b 00
        E 0 80 55 00
        E 0 80 57 00
        E 0 80 61 00
        E 0 80 62 00
        E 0 80 63 00
        E 1 80 31 00
        E 119 90 34 60
        E 0 90 55 60
        E 0 90 58 60
        E 0 90 61 60
        E 0 90 62 60
        E 0 90 64 60
        E 120 80 55 00
        E 0 80 58 00
        E 0 80 61 00
        E 0 80 62 00
        E 0 80 64 00
        E 120 90 4a 60
        E 0 90 4c 60
        E 0 90 55 60
        E 0 90 58 60
        E 0 90 61 60
        E 0 90 62 60
        E 0 90 64 60
        E 120 80 4a 00
        E 0 80 4c 00
        E 0 80 55 00
        E 0 80 58 00
        E 0 80 61 00
        E 0 80 62 00
        E 0 80 64 00
        E 120 90 55 60
        E 0 90 58 60
        E 0 90 61 60
        E 0 90 62 60
        E 0 90 64 60
        E 120 80 55 00
        E 0 80 58 00
        E 0 80 61 00
        E 0 80 62 00
        E 0 80 64 00
        E 1 80 34 00
        E 119 90 31 60
        E 0 90 3d 60
        E 0 90 48 60
        E 0 90 4a 60
        E 0 90 54 60
        E 0 90 56 60
        E 0 90 60 60
        E 0 90 61 60
        E 0 90 63 60
        E 120 80 3d 00
        E 0 80 48 00
        E 0 80 4a 00
        E 0 80 54 00
        E 0 80 56 00
        E 0 80 60 00
        E 0 80 61 00
        E 0 80 63 00
        E 120 90 54 60
        E 0 90 56 60
        E 0 90 60 60
        E 0 90 61 60
        E 0 90 63 60
        E 120 80 54 00
        E 0 80 56 00
        E 0 80 60 00
        E 0 80 61 00
        E 0 80 63 00
        E 1 80 31 00
        E 119 90 34 60
        E 0 90 4a 60
        E 0 90 4c 60
        E 0 90 55 60
        E 0 90 58 60
        E 0 90 61 60
        E 0 90 62 60
        E 0 90 64 60
        E 120 80 4a 00
        E 0 80 4c 00
        E 240 80 55 00
        E 0 80 58 00
        E 0 80 61 00
        E 0 80 62 00
        E 0 80 64 00
        E 1 80 34 00
        E 119 90 31 60
        E 0 90 3d 60
        E 0 90 48 60
        E 0 90 4a 60
        E 0 90 54 60
        E 0 90 56 60
        E 0 90 60 60
        E 0 90 61 60
        E 0 90 63 60
        E 120 80 3d 00
        E 0 80 48 00
        E 0 80 4a 00
        E 0 80 54 00
        E 0 80 56 00
        E 0 80 60 00
        E 0 80 61 00
        E 0 80 63 00
        E 120 90 54 60
        E 0 90 56 60
        E 0 90 60 60
        E 0 90 61 60
        E 0 90 63 60
        E 120 80 54 00
        E 0 80 56 00
        E 0 80 60 00
        E 0 80 61 00
        E 0 80 63 00
        E 1 80 31 00
        E 119 90 34 60
        E 0 90 4a 60
        E 0 90 4c 60
        E 0 90 55 60
        E 0 90 58 60
        E 0 90 61 60
        E 0 90 62 60
        E 0 90 64 60
        E 120 80 4a 00
        E 0 80 4c 00
        E 240 80 55 00
        E 0 80 58 00
        E 0 80 61 00
        E 0 80 62 00
        E 0 80 64 00
        E 1 80 34 00
        E 119 90 31 60
        E 0 90 3e 60
        E 0 90 49 60
        E 0 90 4b 60
        E 0 90 55 60
        E 0 90 57 60
        E 0 90 61 60
        E 0 90 62 60
        E 0 90 63 60
        E 0 90 74 60
        E 120 80 3e 00
        E 0 80 49 00
        E 0 80 4b 00
        E 0 80 55 00
        E 0 80 57 00
        E 0 80 61 00
        E 0 80 62 00
        E 0 80 63 00
        E 120 90 49 60
        E 0 90 4b 60
        E 0 90 55 60
        E 0 90 57 60
        E 0 90 61 60
        E 0 90 62 60
        E 0 90 63 60
        E 120 80 49 00
        E 0 80 4b 00
        E 0 80 55 00
        E 0 80 57 00
        E 0 80 61 00
        E 0 80 62 00
        E 0 80 63 00
        E 120 90 3e 60
        E 0 90 49 60
        E 0 90 4b 60
        E 0 90 55 60
        E 0 90 57 60
        E 0 90 61 60
        E 0 90 62 60
        E 0 90 63 60
        E 120 80 3e 00
        E 0 80 49 00
        E 0 80 4b 00
        E 0 80 55 00
        E 0 80 57 00
        E 0 80 61 00
        E 0 80 62 00
        E 0 80 63 00
        E 120 90 49 60
        E 0 90 4b 60
        E 0 90 55 60
        E 0 90 57 60
        E 0 90 61 60
        E 0 90 62 60
        E 0 90 63 60
        E 120 80 49 00
        E 0 80 4b 00
        E 0 80 55 00
        E 0 80 57 00
        E 0 80 61 00
        E 0 80 62 00
        E 0 80 63 00
        E 120 90 3e 60
        E 0 90 49 60
        E 0 90 4b 60
        E 0 90 55 60
        E 0 90 57 60
        E 0 90 61 60
        E 0 90 62 60
        E 0 90 63 60
        E 120 80 3e 00
        E 0 80 49 00
        E 0 80 4b 00
        E 0 80 55 00
        E 0 80 57 00
        E 0 80 61 00
        E 0 80 62 00
        E 0 80 63 00
        E 1 80 31 00
        E 119 90 34 60
        E 0 90 55 60
        E 0 90 58 60
        E 0 90 61 60
        E 0 90 62 60
        E 0 90 64 60
        E 120 80 55 00
        E 0 80 58 00
        E 0 80 61 00
        E 0 80 62 00
        E 0 80 64 00
        E 120 90 4a 60
        E 0 90 4c 60
        E 0 90 55 60
        E 0 90 58 60
        E 0 90 61 60
        E 0 90 62 60
        E 0 90 64 60
        E 120 80 4a 00
        E 0 80 4c 00
        E 0 80 55 00
        E 0 80 58 00
        E 0 80 61 00
        E 0 80 62 00
        E 0 80 64 00
        E 120 90 55 60
        E 0 90 58 60
        E 0 90 61 60
        E 0 90 62 60
        E 0 90 64 60
        E 120 80 55 00
        E 0 80 58 00
        E 0 80 61 00
        E 0 80 62 00
        E 0 80 64 00
        E 1 80 34 00
        E 119 90 31 60
        E 0 90 3d 60
        E 0 90 48 60
        E 0 90 4a 60
        E 0 90 54 60
        E 0 90 56 60
        E 0 90 60 60
        E 0 90 61 60
        E 0 90 63 60
        E 120 80 3d 00
        E 0 80 48 00
        E 0 80 4a 00
        E 0 80 54 00
        E 0 80 56 00
        E 0 80 60 00
        E 0 80 61 00
        E 0 80 63 00
        E 120 90 54 60
        E 0 90 56 60
        E 0 90 60 60
        E 0 90 61 60
        E 0 90 63 60
        E 120 80 54 00
        E 0 80 56 00
        E 0 80 60 00
        E 0 80 61 00
        E 0 80 63 00
        E 1 80 31 00
        E 119 90 34 60
        E 0 90 4a 60
        E 0 90 4c 60
        E 0 90 55 60
        E 0 90 58 60
        E 0 90 61 60
        E 0 90 62 60
        E 0 90 64 60
        E 120 80 4a 00
        E 0 80 4c 00
        E 240 80 55 00
        E 0 80 58 00
        E 0 80 61 00
        E 0 80 62 00
        E 0 80 64 00
        E 1 80 34 00
        E 119 90 31 60
        E 0 90 3d 60
        E 0 90 48 60
        E 0 90 4a 60
        E 0 90 54 60
        E 0 90 56 60
        E 0 90 60 60
        E 0 90 61 60
        E 0 90 63 60
        E 120 80 3d 00
        E 0 80 48 00
        E 0 80 4a 00
        E 0 80 54 00
        E 0 80 56 00
        E 0 80 60 00
        E 0 80 61 00
        E 0 80 63 00
        E 120 90 54 60
        E 0 90 56 60
        E 0 90 60 60
        E 0 90 61 60
        E 0 90 63 60
        E 120 80 54 00
        E 0 80 56 00
        E 0 80 60 00
        E 0 80 61 00
        E 0 80 63 00
        E 1 80 31 00
        E 119 90 34 60
        E 0 90 4a 60
        E 0 90 4c 60
        E 0 90 55 60
        E 0 90 58 60
        E 0 90 61 60
        E 0 90 62 60
        E 0 90 64 60
        E 120 80 4a 00
        E 0 80 4c 00
        E 240 80 55 00
        E 0 80 58 00
        E 0 80 61 00
        E 0 80 62 00
        E 0 80 64 00
        E 1 80 34 00
        E 119 80 74 00
        E 0 90 31 60
        E 0 90 3e 60
        E 0 90 49 60
        E 0 90 4b 60
        E 0 90 55 60
        E 0 90 57 60
        E 0 90 61 60
        E 0 90 62 60
        E 0 90 63 60
        E 120 80 3e 00
        E 0 80 49 00
        E 0 80 4b 00
        E 0 80 55 00
        E 0 80 57 00
        E 0 80 61 00
        E 0 80 62 00
        E 0 80 63 00
        E 120 90 49 60
        E 0 90 4b 60
        E 0 90 55 60
        E 0 90 57 60
        E 0 90 61 60
        E 0 90 62 60
        E 0 90 63 60
        E 120 80 49 00
        E 0 80 4b 00
        E 0 80 55 00
        E 0 80 57 00
        E 0 80 61 00
        E 0 80 62 00
        E 0 80 63 00
        E 120 90 3e 60
        E 0 90 49 60
        E 0 90 4b 60
        E 0 90 55 60
        E 0 90 57 60
        E 0 90 61 60
        E 0 90 62 60
        E 0 90 63 60
        E 120 80 3e 00
        E 0 80 49 00
        E 0 80 4b 00
        E 0 80 55 00
        E 0 80 57 00
        E 0 80 61 00
        E 0 80 62 00
        E 0 80 63 00
        E 120 90 49 60
        E 0 90 4b 60
        E 0 90 55 60
        E 0 90 57 60
        E 0 90 61 60
        E 0 90 62 60
        E 0 90 63 60
        E 120 80 49 00
        E 0 80 4b 00
        E 0 80 55 00
        E 0 80 57 00
        E 0 80 61 00
        E 0 80 62 00
        E 0 80 63 00
        E 120 90 3e 60
        E 0 90 49 60
        E 0 90 4b 60
        E 0 90 55 60
        E 0 90 57 60
        E 0 90 61 60
        E 0 90 62 60
        E 0 90 63 60
        E 120 80 3e 00
        E 0 80 49 00
        E 0 80 4b 00
        E 0 80 55 00
        E 0 80 57 00
        E 0 80 61 00
        E 0 80 62 00
        E 0 80 63 00
        E 1 80 31 00
        E 119 90 34 60
        E 0 90 55 60
        E 0 90 58 60
        E 0 90 61 60
        E 0 90 62 60
        E 0 90 64 60
        E 120 80 55 00
        E 0 80 58 00
        E 0 80 61 00
        E 0 80 62 00
        E 0 80 64 00
        E 120 90 4a 60
        E 0 90 4c 60
        E 0 90 55 60
        E 0 90 58 60
        E 0 90 61 60
        E 0 90 62 60
        E 0 90 64 60
        E 120 80 4a 00
        E 0 80 4c 00
        E 0 80 55 00
        E 0 80 58 00
        E 0 80 61 00
        E 0 80 62 00
        E 0 80 64 00
        E 120 90 55 60
        E 0 90 58 60
        E 0 90 61 60
        E 0 90 62 60
        E 0 90 64 60
        E 120 80 55 00
        E 0 80 58 00
        E 0 80 61 00
        E 0 80 62 00
        E 0 80 64 00
        E 1 80 34 00
        E 119 90 31 60
        E 0 90 3d 60
        E 0 90 48 60
        E 0 90 4a 60
        E 0 90 54 60
        E 0 90 56 60
        E 0 90 60 60
        E 0 90 61 60
        E 0 90 63 60
        E 120 80 3d 00
        E 0 80 48 00
        E 0 80 4a 00
        E 0 80 54 00
        E 0 80 56 00
        E 0 80 60 00
        E 0 80 61 00
        E 0 80 63 00
        E 120 90 54 60
        E 0 90 56 60
        E 0 90 60 60
        E 0 90 61 60
        E 0 90 63 60
        E 120 80 54 00
        E 0 80 56 00
        E 0 80 60 00
        E 0 80 61 00
        E 0 80 63 00
        E 1 80 31 00
        E 119 90 34 60
        E 0 90 4a 60
        E 0 90 4c 60
        E 0 90 55 60
        E 0 90 58 60
        E 0 90 61 60
        E 0 90 62 60
        E 0 90 64 60
        E 120 80 4a 00
        E 0 80 4c 00
        E 240 80 55 00
        E 0 80 58 00
        E 0 80 61 00
        E 0 80 62 00
        E 0 80 64 00
        E 1 80 34 00
        E 119 90 31 60
        E 0 90 3d 60
        E 0 90 48 60
        E 0 90 4a 60
        E 0 90 54 60
        E 0 90 56 60
        E 0 90 60 60
        E 0 90 61 60
        E 0 90 63 60
        E 120 80 3d 00
        E 0 80 48 00
        E 0 80 4a 00
        E 0 80 54 00
        E 0 80 56 00
        E 0 80 60 00
        E 0 80 61 00
        E 0 80 63 00
        E 120 90 54 60
        E 0 90 56 60
        E 0 90 60 60
        E 0 90 61 60
        E 0 90 63 60
        E 120 80 54 00
        E 0 80 56 00
        E 0 80 60 00
        E 0 80 61 00
        E 0 80 63 00
        E 1 80 31 00
        E 119 90 34 60
        E 0 90 4a 60
        E 0 90 4c 60
        E 0 90 55 60
        E 0 90 58 60
        E 0 90 61 60
        E 0 90 62 60
        E 0 90 64 60
        E 120 80 4a 00
        E 0 80 4c 00
        E 240 80 55 00
        E 0 80 58 00
        E 0 80 61 00
        E 0 80 62 00
        E 0 80 64 00
        E 1 80 34 00
        <X 119 0
          /wFbcGxheV0=
        >
        E 0 90 2b 60
        E 0 90 3d 60
        E 0 90 48 60
        E 0 90 4a 60
        E 0 90 54 60
        E 0 90 56 60
        E 0 90 60 60
        E 0 90 62 60
        E 120 80 3d 00
        E 0 80 48 00
        E 0 80 4a 00
        E 0 80 54 00
        E 0 80 56 00
        E 0 80 60 00
        E 0 80 62 00
        E 120 90 48 60
        E 0 90 4a 60
        E 0 90 54 60
        E 0 90 56 60
        E 0 90 60 60
        E 0 90 62 60
        E 120 80 48 00
        E 0 80 4a 00
        E 0 80 54 00
        E 0 80 56 00
        E 0 80 60 00
        E 0 80 62 00
        E 600 90 3d 60
        E 0 90 48 60
        E 0 90 4a 60
        E 0 90 54 60
        E 0 90 56 60
        E 0 90 60 60
        E 0 90 62 60
        E 120 80 3d 00
        E 0 80 48 00
        E 0 80 4a 00
        E 0 80 54 00
        E 0 80 56 00
        E 0 80 60 00
        E 0 80 62 00
        E 120 90 48 60
        E 0 90 4a 60
        E 0 90 54 60
        E 0 90 56 60
        E 0 90 60 60
        E 0 90 62 60
        E 120 80 48 00
        E 0 80 4a 00
        E 0 80 54 00
        E 0 80 56 00
        E 0 80 60 00
        E 0 80 62 00
        E 481 80 2b 00
        E 119 90 2d 60
        E 0 90 3e 60
        E 0 90 49 60
        E 0 90 4a 60
        E 0 90 55 60
        E 0 90 56 60
        E 0 90 61 60
        E 0 90 62 60
        E 120 80 3e 00
        E 0 80 49 00
        E 0 80 4a 00
        E 0 80 55 00
        E 0 80 56 00
        E 0 80 61 00
        E 0 80 62 00
        E 120 90 49 60
        E 0 90 4a 60
        E 0 90 55 60
        E 0 90 56 60
        E 0 90 61 60
        E 0 90 62 60
        E 120 80 49 00
        E 0 80 4a 00
        E 0 80 55 00
        E 0 80 56 00
        E 0 80 61 00
        E 0 80 62 00
        E 600 90 3e 60
        E 0 90 49 60
        E 0 90 4a 60
        E 0 90 55 60
        E 0 90 56 60
        E 0 90 61 60
        E 0 90 62 60
        E 120 80 3e 00
        E 0 80 49 00
        E 0 80 4a 00
        E 0 80 55 00
        E 0 80 56 00
        E 0 80 61 00
        E 0 80 62 00
        E 120 90 49 60
        E 0 90 4a 60
        E 0 90 55 60
        E 0 90 56 60
        E 0 90 61 60
        E 0 90 62 60
        E 120 80 49 00
        E 0 80 4a 00
        E 0 80 55 00
        E 0 80 56 00
        E 0 80 61 00
        E 0 80 62 00
        E 481 80 2d 00
        E 119 90 2b 60
        E 0 90 3e 60
        E 0 90 4a 60
        E 0 90 4b 60
        E 0 90 56 60
        E 0 90 57 60
        E 0 90 62 60
        E 0 90 63 60
        E 120 80 3e 00
        E 0 80 4a 00
        E 0 80 4b 00
        E 0 80 56 00
        E 0 80 57 00
        E 0 80 62 00
        E 0 80 63 00
        E 120 90 4a 60
        E 0 90 4b 60
        E 0 90 56 60
        E 0 90 57 60
        E 0 90 62 60
        E 0 90 63 60
        E 120 80 4a 00
        E 0 80 4b 00
        E 0 80 56 00
        E 0 80 57 00
        E 0 80 62 00
        E 0 80 63 00
        E 600 90 3e 60
        E 0 90 4a 60
        E 0 90 4b 60
        E 0 90 56 60
        E 0 90 57 60
        E 0 90 62 60
        E 0 90 63 60
        E 120 80 3e 00
        E 0 80 4a 00
        E 0 80 4b 00
        E 0 80 56 00
        E 0 80 57 00
        E 0 80 62 00
        E 0 80 63 00
        E 120 90 4a 60
        E 0 90 4b 60
        E 0 90 56 60
        E 0 90 57 60
        E 0 90 62 60
        E 0 90 63 60
        E 120 80 4a 00
        E 0 80 4b 00
        E 0 80 56 00
        E 0 80 57 00
        E 0 80 62 00
        E 0 80 63 00
        E 481 80 2b 00
        E 119 90 2d 60
        E 0 90 3e 60
        E 0 90 4a 60
        E 0 90 4b 60
        E 0 90 56 60
        E 0 90 58 60
        E 0 90 62 60
        E 0 90 64 60
        E 120 80 3e 00
        E 0 80 4a 00
        E 0 80 4b 00
        E 0 80 56 00
        E 0 80 58 00
        E 0 80 62 00
        E 0 80 64 00
        E 120 90 4a 60
        E 0 90 4b 60
        E 0 90 56 60
        E 0 90 58 60
        E 0 90 62 60
        E 0 90 64 60
        E 120 80 4a 00
        E 0 80 4b 00
        E 0 80 56 00
        E 0 80 58 00
        E 0 80 62 00
        E 0 80 64 00
        E 360 90 4a 60
        E 0 90 4b 60
        E 0 90 56 60
        E 0 90 58 60
        E 0 90 62 60
        E 0 90 64 60
        E 120 80 4a 00
        E 0 80 4b 00
        E 240 80 56 00
        E 0 80 58 00
        E 0 80 62 00
        E 0 80 64 00
        E 120 90 56 60
        E 0 90 62 60
        E 120 80 56 00
        E 0 80 62 00
        E 120 90 4a 60
        E 0 90 4b 60
        E 0 90 56 60
        E 0 90 58 60
        E 0 90 62 60
        E 0 90 64 60
        E 120 80 4a 00
        E 0 80 4b 00
        E 0 80 56 00
        E 0 80 58 00
        E 0 80 62 00
        E 0 80 64 00
        E 241 80 2d 00
        E 119 90 2b 60
        E 0 90 3d 60
        E 0 90 48 60
        E 0 90 4a 60
        E 0 90 54 60
        E 0 90 56 60
        E 0 90 60 60
        E 0 90 62 60
        E 120 80 3d 00
        E 0 80 48 00
        E 0 80 4a 00
        E 0 80 54 00
        E 0 80 56 00
        E 0 80 60 00
        E 0 80 62 00
        E 120 90 54 60
        E 0 90 56 60
        E 0 90 60 60
        E 0 90 62 60
        E 120 80 54 00
        E 0 80 56 00
        E 0 80 60 00
        E 0 80 62 00
        E 120 90 48 60
        E 0 90 54 60
        E 0 90 60 60
        E 120 80 48 00
        E 0 80 54 00
        E 0 80 60 00
        E 120 90 48 60
        E 0 90 54 60
        E 0 90 60 60
        E 120 80 48 00
        E 0 80 54 00
        E 0 80 60 00
        E 120 90 3c 60
        E 0 90 48 60
        E 0 90 54 60
        E 0 90 60 60
        E 120 80 3c 00
        E 0 80 48 00
        E 0 80 54 00
        E 0 80 60 00
        E 120 90 48 60
        E 0 90 54 60
        E 0 90 60 60
        E 120 80 48 00
        E 0 80 54 00
        E 0 80 60 00
        E 120 90 48 60
        E 0 90 54 60
        E 0 90 60 60
        E 120 80 48 00
        E 0 80 54 00
        E 0 80 60 00
        E 120 90 54 60
        E 0 90 60 60
        E 120 80 54 00
        E 0 80 60 00
        E 1 80 2b 00
        E 119 90 2d 60
        E 0 90 3e 60
        E 0 90 49 60
        E 0 90 4a 60
        E 0 90 55 60
        E 0 90 56 60
        E 0 90 61 60
        E 0 90 62 60
        E 120 80 3e 00
        E 0 80 49 00
        E 0 80 4a 00
        E 0 80 55 00
        E 0 80 56 00
        E 0 80 61 00
        E 0 80 62 00
        E 120 90 55 60
        E 0 90 56 60
        E 0 90 61 60
        E 0 90 62 60
        E 120 80 55 00
        E 0 80 56 00
        E 0 80 61 00
        E 0 80 62 00
        E 120 90 49 60
        E 0 90 55 60
        E 0 90 61 60
        E 120 80 49 00
        E 0 80 55 00
        E 0 80 61 00
        E 120 90 49 60
        E 0 90 55 60
        E 0 90 61 60
        E 120 80 49 00
        E 0 80 55 00
        E 0 80 61 00
        E 120 90 3c 60
        E 0 90 49 60
        E 0 90 55 60
        E 0 90 61 60
        E 120 80 3c 00
        E 0 80 49 00
        E 0 80 55 00
        E 0 80 61 00
        E 120 90 49 60
        E 0 90 55 60
        E 0 90 61 60
        E 120 80 49 00
        E 0 80 55 00
        E 0 80 61 00
        E 120 90 49 60
        E 0 90 55 60
        E 0 90 61 60
        E 120 80 49 00
        E 0 80 55 00
        E 0 80 61 00
        E 120 90 55 60
        E 0 90 61 60
        E 120 80 55 00
        E 0 80 61 00
        E 1 80 2d 00
        E 119 90 2b 60
        E 0 90 3e 60
        E 0 90 4a 60
        E 0 90 4b 60
        E 0 90 56 60
        E 0 90 57 60
        E 0 90 62 60
        E 0 90 63 60
        E 120 80 3e 00
        E 0 80 4a 00
        E 0 80 4b 00
        E 0 80 56 00
        E 0 80 57 00
        E 0 80 62 00
        E 0 80 63 00
        E 120 90 56 60
        E 0 90 57 60
        E 0 90 62 60
        E 0 90 63 60
        E 120 80 56 00
        E 0 80 57 00
        E 0 80 62 00
        E 0 80 63 00
        E 120 90 4a 60
        E 0 90 56 60
        E 0 90 62 60
        E 120 80 4a 00
        E 0 80 56 00
        E 0 80 62 00
        E 120 90 4a 60
        E 0 90 56 60
        E 0 90 62 60
        E 120 80 4a 00
        E 0 80 56 00
        E 0 80 62 00
        E 120 90 3d 60
        E 0 90 4a 60
        E 0 90 56 60
        E 0 90 62 60
        E 120 80 3d 00
        E 0 80 4a 00
        E 0 80 56 00
        E 0 80 62 00
        E 120 90 4a 60
        E 0 90 56 60
        E 0 90 62 60
        E 120 80 4a 00
        E 0 80 56 00
        E 0 80 62 00
        E 120 90 4a 60
        E 0 90 56 60
        E 0 90 62 60
        E 120 80 4a 00
        E 0 80 56 00
        E 0 80 62 00
        E 120 90 56 60
        E 0 90 62 60
        E 120 80 56 00
        E 0 80 62 00
        E 1 80 2b 00
        E 119 90 2d 60
        E 0 90 3e 60
        E 0 90 4a 60
        E 0 90 4b 60
        E 0 90 56 60
        E 0 90 58 60
        E 0 90 62 60
        E 0 90 64 60
        E 120 80 3e 00
        E 0 80 4a 00
        E 0 80 4b 00
        E 0 80 56 00
        E 0 80 58 00
        E 0 80 62 00
        E 0 80 64 00
        E 120 90 56 60
        E 0 90 58 60
        E 0 90 62 60
        E 0 90 64 60
        E 120 80 56 00
        E 0 80 58 00
        E 0 80 62 00
        E 0 80 64 00
        E 120 90 4a 60
        E 0 90 56 60
        E 0 90 62 60
        E 120 80 4a 00
        E 0 80 56 00
        E 0 80 62 00
        E 120 90 4a 60
        E 0 90 56 60
        E 0 90 62 60
        E 120 80 4a 00
        E 0 80 56 00
        E 0 80 62 00
        E 120 90 3d 60
        E 0 90 4a 60
        E 0 90 56 60
        E 0 90 62 60
        E 120 80 3d 00
        E 0 80 4a 00
        E 0 80 56 00
        E 0 80 62 00
        E 120 90 4a 60
        E 0 90 56 60
        E 0 90 62 60
        E 120 80 4a 00
        E 0 80 56 00
        E 0 80 62 00
        E 120 90 4a 60
        E 0 90 56 60
        E 0 90 62 60
        E 120 80 4a 00
        E 0 80 56 00
        E 0 80 62 00
        E 120 90 56 60
        E 0 90 62 60
        E 120 80 56 00
        E 0 80 62 00
        E 1 80 2d 00
        E 119 90 2b 60
        E 0 90 3d 60
        E 0 90 48 60
        E 0 90 4a 60
        E 0 90 54 60
        E 0 90 56 60
        E 0 90 60 60
        E 0 90 62 60
        E 120 80 3d 00
        E 0 80 48 00
        E 0 80 4a 00
        E 0 80 54 00
        E 0 80 56 00
        E 0 80 60 00
        E 0 80 62 00
        E 120 90 54 60
        E 0 90 56 60
        E 0 90 60 60
        E 0 90 62 60
        E 120 80 54 00
        E 0 80 56 00
        E 0 80 60 00
        E 0 80 62 00
        E 120 90 48 60
        E 0 90 54 60
        E 0 90 60 60
        E 119 80 48 00
        E 0 80 54 00
        E 0 80 60 00
        E 120 90 56 60
        E 0 90 60 60
        E 1 90 62 60
        E 120 80 56 00
        E 0 80 60 00
        E 0 80 62 00
        E 120 90 3d 60
        E 0 90 48 60
        E 0 90 4a 60
        E 0 90 54 60
        E 0 90 56 60
        E 0 90 60 60
        E 0 90 62 60
        E 120 80 3d 00
        E 0 80 48 00
        E 0 80 4a 00
        E 0 80 54 00
        E 0 80 56 00
        E 0 80 60 00
        E 0 80 62 00
        E 120 90 54 60
        E 0 90 56 60
        E 0 90 60 60
        E 0 90 62 60
        E 120 80 54 00
        E 0 80 56 00
        E 0 80 60 00
        E 0 80 62 00
        E 120 90 48 60
        E 0 90 54 60
        E 0 90 60 60
        E 120 80 48 00
        E 0 80 54 00
        E 0 80 60 00
        E 119 90 56 60
        E 0 90 60 60
        E 1 90 62 60
        E 119 80 60 00
        E 1 80 56 00
        E 0 80 62 00
        E 1 80 2b 00
        E 119 90 2d 60
        E 0 90 3e 60
        E 0 90 49 60
        E 0 90 4a 60
        E 0 90 55 60
        E 0 90 56 60
        E 0 90 61 60
        E 0 90 62 60
        E 120 80 3e 00
        E 0 80 49 00
        E 0 80 4a 00
        E 0 80 55 00
        E 0 80 56 00
        E 0 80 61 00
        E 0 80 62 00
        E 120 90 55 60
        E 0 90 56 60
        E 0 90 61 60
        E 0 90 62 60
        E 120 80 55 00
        E 0 80 56 00
        E 0 80 61 00
        E 0 80 62 00
        E 120 90 49 60
        E 0 90 55 60
        E 0 90 61 60
        E 120 80 49 00
        E 0 80 55 00
        E 0 80 61 00
        E 120 90 55 60
        E 0 90 56 60
        E 0 90 61 60
        E 0 90 62 60
        E 120 80 55 00
        E 0 80 56 00
        E 0 80 61 00
        E 0 80 62 00
        E 120 90 3e 60
        E 0 90 49 60
        E 0 90 4a 60
        E 0 90 55 60
        E 0 90 56 60
        E 0 90 61 60
        E 0 90 62 60
        E 120 80 3e 00
        E 0 80 49 00
        E 0 80 4a 00
        E 0 80 55 00
        E 0 80 56 00
        E 0 80 61 00
        E 0 80 62 00
        E 120 90 55 60
        E 0 90 56 60
        E 0 90 61 60
        E 0 90 62 60
        E 120 80 55 00
        E 0 80 56 00
        E 0 80 61 00
        E 0 80 62 00
        E 120 90 49 60
        E 0 90 55 60
        E 0 90 61 60
        E 120 80 49 00
        E 0 80 55 00
        E 0 80 61 00
        E 120 90 55 60
        E 0 90 56 60
        E 0 90 61 60
        E 0 90 62 60
        E 120 80 55 00
        E 0 80 56 00
        E 0 80 61 00
        E 0 80 62 00
        E 1 80 2d 00
        E 119 90 2b 60
        E 0 90 3e 60
        E 0 90 4a 60
        E 0 90 4b 60
        E 0 90 56 60
        E 0 90 57 60
        E 0 90 62 60
        E 0 90 63 60
        E 120 80 3e 00
        E 0 80 4a 00
        E 0 80 4b 00
        E 0 80 56 00
        E 0 80 57 00
        E 0 80 62 00
        E 0 80 63 00
        E 120 90 56 60
        E 0 90 57 60
        E 0 90 62 60
        E 0 90 63 60
        E 120 80 56 00
        E 0 80 57 00
        E 0 80 62 00
        E 0 80 63 00
        E 120 90 4a 60
        E 0 90 56 60
        E 0 90 62 60
        E 120 80 4a 00
        E 0 80 56 00
        E 0 80 62 00
        E 120 90 56 60
        E 0 90 57 60
        E 0 90 62 60
        E 0 90 63 60
        E 120 80 56 00
        E 0 80 57 00
        E 0 80 62 00
        E 0 80 63 00
        E 120 90 3e 60
        E 0 90 4a 60
        E 0 90 4b 60
        E 0 90 56 60
        E 0 90 57 60
        E 0 90 62 60
        E 0 90 63 60
        E 120 80 3e 00
        E 0 80 4a 00
        E 0 80 4b 00
        E 0 80 56 00
        E 0 80 57 00
        E 0 80 62 00
        E 0 80 63 00
        E 120 90 56 60
        E 0 90 57 60
        E 0 90 62 60
        E 0 90 63 60
        E 120 80 56 00
        E 0 80 57 00
        E 0 80 62 00
        E 0 80 63 00
        E 120 90 4a 60
        E 0 90 56 60
        E 0 90 62 60
        E 120 80 4a 00
        E 0 80 56 00
        E 0 80 62 00
        E 120 90 56 60
        E 0 90 57 60
        E 0 90 62 60
        E 0 90 63 60
        E 120 80 56 00
        E 0 80 57 00
        E 0 80 62 00
        E 0 80 63 00
        E 1 80 2b 00
        E 119 90 2d 60
        E 0 90 3e 60
        E 0 90 4a 60
        E 0 90 4b 60
        E 0 90 56 60
        E 0 90 58 60
        E 0 90 62 60
        E 0 90 64 60
        E 120 80 3e 00
        E 0 80 4a 00
        E 0 80 4b 00
        E 0 80 56 00
        E 0 80 58 00
        E 0 80 62 00
        E 0 80 64 00
        E 120 90 56 60
        E 0 90 58 60
        E 0 90 62 60
        E 0 90 64 60
        E 120 80 56 00
        E 0 80 58 00
        E 0 80 62 00
        E 0 80 64 00
        E 120 90 4a 60
        E 0 90 56 60
        E 0 90 62 60
        E 120 80 4a 00
        E 0 80 56 00
        E 0 80 62 00
        E 120 90 56 60
        E 0 90 58 60
        E 0 90 62 60
        E 0 90 64 60
        E 120 80 56 00
        E 0 80 58 00
        E 0 80 62 00
        E 0 80 64 00
        E 120 90 3e 60
        E 0 90 4a 60
        E 0 90 4b 60
        E 0 90 56 60
        E 0 90 58 60
        E 0 90 62 60
        E 0 90 64 60
        E 120 80 3e 00
        E 0 80 4a 00
        E 0 80 4b 00
        E 0 80 56 00
        E 0 80 58 00
        E 0 80 62 00
        E 0 80 64 00
        E 120 90 56 60
        E 0 90 58 60
        E 0 90 62 60
        E 0 90 64 60
        E 120 80 56 00
        E 0 80 58 00
        E 0 80 62 00
        E 0 80 64 00
        E 120 90 4a 60
        E 0 90 56 60
        E 0 90 62 60
        E 120 80 4a 00
        E 0 80 56 00
        E 0 80 62 00
        E 120 90 56 60
        E 0 90 58 60
        E 0 90 62 60
        E 0 90 64 60
        E 120 80 56 00
        E 0 80 58 00
        E 0 80 62 00
        E 0 80 64 00
        E 1 80 2d 00
        E 119 90 2b 60
        E 0 90 3d 60
        E 0 90 48 60
        E 0 90 4a 60
        E 0 90 54 60
        E 0 90 56 60
        E 0 90 60 60
        E 0 90 62 60
        E 120 80 3d 00
        E 0 80 48 00
        E 0 80 4a 00
        E 0 80 54 00
        E 0 80 56 00
        E 0 80 60 00
        E 0 80 62 00
        E 120 90 54 60
        E 0 90 56 60
        E 0 90 60 60
        E 0 90 62 60
        E 120 80 54 00
        E 0 80 56 00
        E 0 80 60 00
        E 0 80 62 00
        E 120 90 48 60
        E 0 90 54 60
        E 0 90 60 60
        E 120 80 48 00
        E 0 80 54 00
        E 0 80 60 00
        E 120 90 54 60
        E 0 90 56 60
        E 0 90 60 60
        E 0 90 62 60
        E 120 80 54 00
        E 0 80 56 00
        E 0 80 60 00
        E 0 80 62 00
        E 120 90 3d 60
        E 0 90 48 60
        E 0 90 4a 60
        E 0 90 54 60
        E 0 90 56 60
        E 0 90 60 60
        E 0 90 62 60
        E 120 80 3d 00
        E 0 80 48 00
        E 0 80 4a 00
        E 0 80 54 00
        E 0 80 56 00
        E 0 80 60 00
        E 0 80 62 00
        E 120 90 54 60
        E 0 90 56 60
        E 0 90 60 60
        E 0 90 62 60
        E 120 80 54 00
        E 0 80 56 00
        E 0 80 60 00
        E 0 80 62 00
        E 120 90 48 60
        E 0 90 54 60
        E 0 90 60 60
        E 120 80 48 00
        E 0 80 54 00
        E 0 80 60 00
        E 120 90 54 60
        E 0 90 56 60
        E 0 90 60 60
        E 0 90 62 60
        E 120 80 54 00
        E 0 80 56 00
        E 0 80 60 00
        E 0 80 62 00
        E 1 80 2b 00
        E 119 90 2d 60
        E 0 90 3e 60
        E 0 90 49 60
        E 0 90 4a 60
        E 0 90 55 60
        E 0 90 56 60
        E 0 90 61 60
        E 0 90 62 60
        E 120 80 3e 00
        E 0 80 49 00
        E 0 80 4a 00
        E 0 80 55 00
        E 0 80 56 00
        E 0 80 61 00
        E 0 80 62 00
        E 120 90 55 60
        E 0 90 56 60
        E 0 90 61 60
        E 0 90 62 60
        E 120 80 55 00
        E 0 80 56 00
        E 0 80 61 00
        E 0 80 62 00
        E 120 90 49 60
        E 0 90 55 60
        E 0 90 61 60
        E 120 80 49 00
        E 0 80 55 00
        E 0 80 61 00
        E 120 90 55 60
        E 0 90 56 60
        E 0 90 61 60
        E 0 90 62 60
        E 120 80 55 00
        E 0 80 56 00
        E 0 80 61 00
        E 0 80 62 00
        E 120 90 3e 60
        E 0 90 49 60
        E 0 90 4a 60
        E 0 90 55 60
        E 0 90 56 60
        E 0 90 61 60
        E 0 90 62 60
        E 120 80 3e 00
        E 0 80 49 00
        E 0 80 4a 00
        E 0 80 55 00
        E 0 80 56 00
        E 0 80 61 00
        E 0 80 62 00
        E 120 90 55 60
        E 0 90 56 60
        E 0 90 61 60
        E 0 90 62 60
        E 120 80 55 00
        E 0 80 56 00
        E 0 80 61 00
        E 0 80 62 00
        E 120 90 49 60
        E 0 90 55 60
        E 0 90 61 60
        E 120 80 49 00
        E 0 80 55 00
        E 0 80 61 00
        E 120 90 55 60
        E 0 90 56 60
        E 0 90 61 60
        E 0 90 62 60
        E 120 80 55 00
        E 0 80 56 00
        E 0 80 61 00
        E 0 80 62 00
        E 1 80 2d 00
        E 119 90 2b 60
        E 0 90 3e 60
        E 0 90 4a 60
        E 0 90 4b 60
        E 0 90 56 60
        E 0 90 57 60
        E 0 90 62 60
        E 0 90 63 60
        E 0 90 74 60
        E 120 80 3e 00
        E 0 80 4a 00
        E 0 80 4b 00
        E 0 80 56 00
        E 0 80 57 00
        E 0 80 62 00
        E 0 80 63 00
        E 120 90 56 60
        E 0 90 57 60
        E 0 90 62 60
        E 0 90 63 60
        E 120 80 56 00
        E 0 80 57 00
        E 0 80 62 00
        E 0 80 63 00
        E 120 90 4a 60
        E 0 90 56 60
        E 0 90 62 60
        E 120 80 4a 00
        E 0 80 56 00
        E 0 80 62 00
        E 120 90 56 60
        E 0 90 57 60
        E 0 90 62 60
        E 0 90 63 60
        E 120 80 56 00
        E 0 80 57 00
        E 0 80 62 00
        E 0 80 63 00
        E 120 90 3e 60
        E 0 90 4a 60
        E 0 90 4b 60
        E 0 90 56 60
        E 0 90 57 60
        E 0 90 62 60
        E 0 90 63 60
        E 120 80 3e 00
        E 0 80 4a 00
        E 0 80 4b 00
        E 0 80 56 00
        E 0 80 57 00
        E 0 80 62 00
        E 0 80 63 00
        E 120 90 56 60
        E 0 90 57 60
        E 0 90 62 60
        E 0 90 63 60
        E 120 80 56 00
        E 0 80 57 00
        E 0 80 62 00
        E 0 80 63 00
        E 120 90 4a 60
        E 0 90 56 60
        E 0 90 62 60
        E 120 80 4a 00
        E 0 80 56 00
        E 0 80 62 00
        E 120 90 56 60
        E 0 90 57 60
        E 0 90 62 60
        E 0 90 63 60
        E 120 80 56 00
        E 0 80 57 00
        E 0 80 62 00
        E 0 80 63 00
        E 1 80 2b 00
        E 119 90 2d 60
        E 0 90 3e 60
        E 0 90 4a 60
        E 0 90 4b 60
        E 0 90 56 60
        E 0 90 58 60
        E 0 90 62 60
        E 0 90 64 60
        E 120 80 3e 00
        E 0 80 4a 00
        E 0 80 4b 00
        E 0 80 56 00
        E 0 80 58 00
        E 0 80 62 00
        E 0 80 64 00
        E 120 90 4a 60
        E 0 90 4b 60
        E 0 90 56 60
        E 0 90 58 60
        E 0 90 62 60
        E 0 90 64 60
        E 120 80 4a 00
        E 0 80 4b 00
        E 0 80 56 00
        E 0 80 58 00
        E 0 80 62 00
        E 0 80 64 00
        E 120 90 3e 60
        E 0 90 4a 60
        E 0 90 4b 60
        E 0 90 56 60
        E 0 90 58 60
        E 0 90 62 60
        E 0 90 64 60
        E 120 80 3e 00
        E 0 80 4a 00
        E 0 80 4b 00
        E 0 80 56 00
        E 0 80 58 00
        E 0 80 62 00
        E 0 80 64 00
        E 120 90 4a 60
        E 0 90 4b 60
        E 0 90 56 60
        E 0 90 58 60
        E 0 90 62 60
        E 0 90 64 60
        E 120 80 4a 00
        E 0 80 4b 00
        E 0 80 56 00
        E 0 80 58 00
        E 0 80 62 00
        E 0 80 64 00
        E 120 90 3e 60
        E 0 90 4a 60
        E 0 90 4b 60
        E 0 90 56 60
        E 0 90 58 60
        E 0 90 62 60
        E 0 90 64 60
        E 120 80 74 00
        E 0 80 3e 00
        E 0 80 4a 00
        E 0 80 4b 00
        E 0 80 56 00
        E 0 80 58 00
        E 0 80 62 00
        E 0 80 64 00
        E 120 90 4a 60
        E 0 90 4b 60
        E 0 90 56 60
        E 0 90 58 60
        E 0 90 62 60
        E 0 90 64 60
        E 120 80 4a 00
        E 0 80 4b 00
        E 0 80 56 00
        E 0 80 58 00
        E 0 80 62 00
        E 0 80 64 00
        E 120 90 4a 60
        E 0 90 4b 60
        E 0 90 56 60
        E 0 90 58 60
        E 0 90 62 60
        E 0 90 64 60
        E 120 80 4a 00
        E 0 80 4b 00
        E 0 80 56 00
        E 0 80 58 00
        E 0 80 62 00
        E 0 80 64 00
        E 120 90 56 60
        E 0 90 58 60
        E 0 90 62 60
        E 0 90 64 60
        E 120 80 56 00
        E 0 80 58 00
        E 0 80 62 00
        E 0 80 64 00
        E 1 80 2d 00
        <X 119 0
          /wFbaW50ZW5zZV0=
        >
        E 0 90 31 60
        E 0 90 3e 60
        E 0 90 49 60
        E 0 90 4b 60
        E 0 90 55 60
        E 0 90 57 60
        E 0 90 61 60
        E 0 90 62 60
        E 0 90 63 60
        E 120 80 3e 00
        E 0 80 49 00
        E 0 80 4b 00
        E 0 80 55 00
        E 0 80 57 00
        E 0 80 61 00
        E 0 80 62 00
        E 0 80 63 00
        E 120 90 49 60
        E 0 90 4b 60
        E 0 90 55 60
        E 0 90 57 60
        E 0 90 61 60
        E 0 90 62 60
        E 0 90 63 60
        E 120 80 49 00
        E 0 80 4b 00
        E 0 80 55 00
        E 0 80 57 00
        E 0 80 61 00
        E 0 80 62 00
        E 0 80 63 00
        E 120 90 3e 60
        E 0 90 49 60
        E 0 90 4b 60
        E 0 90 55 60
        E 0 90 57 60
        E 0 90 61 60
        E 0 90 62 60
        E 0 90 63 60
        E 120 80 3e 00
        E 0 80 49 00
        E 0 80 4b 00
        E 0 80 55 00
        E 0 80 57 00
        E 0 80 61 00
        E 0 80 62 00
        E 0 80 63 00
        E 120 90 49 60
        E 0 90 4b 60
        E 0 90 55 60
        E 0 90 57 60
        E 0 90 61 60
        E 0 90 62 60
        E 0 90 63 60
        E 120 80 49 00
        E 0 80 4b 00
        E 0 80 55 00
        E 0 80 57 00
        E 0 80 61 00
        E 0 80 62 00
        E 0 80 63 00
        E 120 90 3e 60
        E 0 90 49 60
        E 0 90 4b 60
        E 0 90 55 60
        E 0 90 57 60
        E 0 90 61 60
        E 0 90 62 60
        E 0 90 63 60
        E 120 80 3e 00
        E 0 80 49 00
        E 0 80 4b 00
        E 0 80 55 00
        E 0 80 57 00
        E 0 80 61 00
        E 0 80 62 00
        E 0 80 63 00
        E 1 80 31 00
        E 119 90 34 60
        E 0 90 55 60
        E 0 90 58 60
        E 0 90 61 60
        E 0 90 62 60
        E 0 90 64 60
        E 120 80 55 00
        E 0 80 58 00
        E 0 80 61 00
        E 0 80 62 00
        E 0 80 64 00
        E 120 90 4a 60
        E 0 90 4c 60
        E 0 90 55 60
        E 0 90 58 60
        E 0 90 61 60
        E 0 90 62 60
        E 0 90 64 60
        E 120 80 4a 00
        E 0 80 4c 00
        E 0 80 55 00
        E 0 80 58 00
        E 0 80 61 00
        E 0 80 62 00
        E 0 80 64 00
        E 120 90 55 60
        E 0 90 58 60
        E 0 90 61 60
        E 0 90 62 60
        E 0 90 64 60
        E 120 80 55 00
        E 0 80 58 00
        E 0 80 61 00
        E 0 80 62 00
        E 0 80 64 00
        E 1 80 34 00
        E 119 90 31 60
        E 0 90 3d 60
        E 0 90 48 60
        E 0 90 4a 60
        E 0 90 54 60
        E 0 90 56 60
        E 0 90 60 60
        E 0 90 61 60
        E 0 90 63 60
        E 120 80 3d 00
        E 0 80 48 00
        E 0 80 4a 00
        E 0 80 54 00
        E 0 80 56 00
        E 0 80 60 00
        E 0 80 61 00
        E 0 80 63 00
        E 120 90 54 60
        E 0 90 56 60
        E 0 90 60 60
        E 0 90 61 60
        E 0 90 63 60
        E 120 80 54 00
        E 0 80 56 00
        E 0 80 60 00
        E 0 80 61 00
        E 0 80 63 00
        E 1 80 31 00
        E 119 90 34 60
        E 0 90 4a 60
        E 0 90 4c 60
        E 0 90 55 60
        E 0 90 58 60
        E 0 90 61 60
        E 0 90 62 60
        E 0 90 64 60
        E 120 80 4a 00
        E 0 80 4c 00
        E 240 80 55 00
        E 0 80 58 00
        E 0 80 61 00
        E 0 80 62 00
        E 0 80 64 00
        E 1 80 34 00
        E 119 90 31 60
        E 0 90 3d 60
        E 0 90 48 60
        E 0 90 4a 60
        E 0 90 54 60
        E 0 90 56 60
        E 0 90 60 60
        E 0 90 61 60
        E 0 90 63 60
        E 120 80 3d 00
        E 0 80 48 00
        E 0 80 4a 00
        E 0 80 54 00
        E 0 80 56 00
        E 0 80 60 00
        E 0 80 61 00
        E 0 80 63 00
        E 120 90 54 60
        E 0 90 56 60
        E 0 90 60 60
        E 0 90 61 60
        E 0 90 63 60
        E 120 80 54 00
        E 0 80 56 00
        E 0 80 60 00
        E 0 80 61 00
        E 0 80 63 00
        E 1 80 31 00
        E 119 90 34 60
        E 0 90 4a 60
        E 0 90 4c 60
        E 0 90 55 60
        E 0 90 58 60
        E 0 90 61 60
        E 0 90 62 60
        E 0 90 64 60
        E 120 80 4a 00
        E 0 80 4c 00
        E 240 80 55 00
        E 0 80 58 00
        E 0 80 61 00
        E 0 80 62 00
        E 0 80 64 00
        E 1 80 34 00
        E 119 90 31 60
        E 0 90 3e 60
        E 0 90 49 60
        E 0 90 4b 60
        E 0 90 55 60
        E 0 90 57 60
        E 0 90 61 60
        E 0 90 62 60
        E 0 90 63 60
        E 120 80 3e 00
        E 0 80 49 00
        E 0 80 4b 00
        E 0 80 55 00
        E 0 80 57 00
        E 0 80 61 00
        E 0 80 62 00
        E 0 80 63 00
        E 120 90 49 60
        E 0 90 4b 60
        E 0 90 55 60
        E 0 90 57 60
        E 0 90 61 60
        E 0 90 62 60
        E 0 90 63 60
        E 120 80 49 00
        E 0 80 4b 00
        E 0 80 55 00
        E 0 80 57 00
        E 0 80 61 00
        E 0 80 62 00
        E 0 80 63 00
        E 120 90 3e 60
        E 0 90 49 60
        E 0 90 4b 60
        E 0 90 55 60
        E 0 90 57 60
        E 0 90 61 60
        E 0 90 62 60
        E 0 90 63 60
        E 120 80 3e 00
        E 0 80 49 00
        E 0 80 4b 00
        E 0 80 55 00
        E 0 80 57 00
        E 0 80 61 00
        E 0 80 62 00
        E 0 80 63 00
        E 120 90 49 60
        E 0 90 4b 60
        E 0 90 55 60
        E 0 90 57 60
        E 0 90 61 60
        E 0 90 62 60
        E 0 90 63 60
        E 120 80 49 00
        E 0 80 4b 00
        E 0 80 55 00
        E 0 80 57 00
        E 0 80 61 00
        E 0 80 62 00
        E 0 80 63 00
        E 120 90 3e 60
        E 0 90 49 60
        E 0 90 4b 60
        E 0 90 55 60
        E 0 90 57 60
        E 0 90 61 60
        E 0 90 62 60
        E 0 90 63 60
        E 120 80 3e 00
        E 0 80 49 00
        E 0 80 4b 00
        E 0 80 55 00
        E 0 80 57 00
        E 0 80 61 00
        E 0 80 62 00
        E 0 80 63 00
        E 1 80 31 00
        E 119 90 34 60
        E 0 90 55 60
        E 0 90 58 60
        E 0 90 61 60
        E 0 90 62 60
        E 0 90 64 60
        E 120 80 55 00
        E 0 80 58 00
        E 0 80 61 00
        E 0 80 62 00
        E 0 80 64 00
        E 120 90 4a 60
        E 0 90 4c 60
        E 0 90 55 60
        E 0 90 58 60
        E 0 90 61 60
        E 0 90 62 60
        E 0 90 64 60
        E 120 80 4a 00
        E 0 80 4c 00
        E 0 80 55 00
        E 0 80 58 00
        E 0 80 61 00
        E 0 80 62 00
        E 0 80 64 00
        E 120 90 55 60
        E 0 90 58 60
        E 0 90 61 60
        E 0 90 62 60
        E 0 90 64 60
        E 120 80 55 00
        E 0 80 58 00
        E 0 80 61 00
        E 0 80 62 00
        E 0 80 64 00
        E 1 80 34 00
        E 119 90 31 60
        E 0 90 3d 60
        E 0 90 48 60
        E 0 90 4a 60
        E 0 90 54 60
        E 0 90 56 60
        E 0 90 60 60
        E 0 90 61 60
        E 0 90 63 60
        E 120 80 3d 00
        E 0 80 48 00
        E 0 80 4a 00
        E 0 80 54 00
        E 0 80 56 00
        E 0 80 60 00
        E 0 80 61 00
        E 0 80 63 00
        E 120 90 54 60
        E 0 90 56 60
        E 0 90 60 60
        E 0 90 61 60
        E 0 90 63 60
        E 120 80 54 00
        E 0 80 56 00
        E 0 80 60 00
        E 0 80 61 00
        E 0 80 63 00
        E 1 80 31 00
        E 119 90 34 60
        E 0 90 4a 60
        E 0 90 4c 60
        E 0 90 55 60
        E 0 90 58 60
        E 0 90 61 60
        E 0 90 62 60
        E 0 90 64 60
        E 120 80 4a 00
        E 0 80 4c 00
        E 240 80 55 00
        E 0 80 58 00
        E 0 80 61 00
        E 0 80 62 00
        E 0 80 64 00
        E 1 80 34 00
        E 119 90 31 60
        E 0 90 3d 60
        E 0 90 48 60
        E 0 90 4a 60
        E 0 90 54 60
        E 0 90 56 60
        E 0 90 60 60
        E 0 90 61 60
        E 0 90 63 60
        E 120 80 3d 00
        E 0 80 48 00
        E 0 80 4a 00
        E 0 80 54 00
        E 0 80 56 00
        E 0 80 60 00
        E 0 80 61 00
        E 0 80 63 00
        E 120 90 54 60
        E 0 90 56 60
        E 0 90 60 60
        E 0 90 61 60
        E 0 90 63 60
        E 120 80 54 00
        E 0 80 56 00
        E 0 80 60 00
        E 0 80 61 00
        E 0 80 63 00
        E 1 80 31 00
        E 119 90 34 60
        E 0 90 4a 60
        E 0 90 4c 60
        E 0 90 55 60
        E 0 90 58 60
        E 0 90 61 60
        E 0 90 62 60
        E 0 90 64 60
        E 120 80 4a 00
        E 0 80 4c 00
        E 240 80 55 00
        E 0 80 58 00
        E 0 80 61 00
        E 0 80 62 00
        E 0 80 64 00
        E 1 80 34 00
        E 119 90 31 60
        E 0 90 3e 60
        E 0 90 49 60
        E 0 90 4b 60
        E 0 90 55 60
        E 0 90 57 60
        E 0 90 61 60
        E 0 90 62 60
        E 0 90 63 60
        E 120 80 3e 00
        E 0 80 49 00
        E 0 80 4b 00
        E 0 80 55 00
        E 0 80 57 00
        E 0 80 61 00
        E 0 80 62 00
        E 0 80 63 00
        E 120 90 49 60
        E 0 90 4b 60
        E 0 90 55 60
        E 0 90 57 60
        E 0 90 61 60
        E 0 90 62 60
        E 0 90 63 60
        E 120 80 49 00
        E 0 80 4b 00
        E 0 80 55 00
        E 0 80 57 00
        E 0 80 61 00
        E 0 80 62 00
        E 0 80 63 00
        E 120 90 3e 60
        E 0 90 49 60
        E 0 90 4b 60
        E 0 90 55 60
        E 0 90 57 60
        E 0 90 61 60
        E 0 90 62 60
        E 0 90 63 60
        E 120 80 3e 00
        E 0 80 49 00
        E 0 80 4b 00
        E 0 80 55 00
        E 0 80 57 00
        E 0 80 61 00
        E 0 80 62 00
        E 0 80 63 00
        E 120 90 49 60
        E 0 90 4b 60
        E 0 90 55 60
        E 0 90 57 60
        E 0 90 61 60
        E 0 90 62 60
        E 0 90 63 60
        E 120 80 49 00
        E 0 80 4b 00
        E 0 80 55 00
        E 0 80 57 00
        E 0 80 61 00
        E 0 80 62 00
        E 0 80 63 00
        E 120 90 3e 60
        E 0 90 49 60
        E 0 90 4b 60
        E 0 90 55 60
        E 0 90 57 60
        E 0 90 61 60
        E 0 90 62 60
        E 0 90 63 60
        E 120 80 3e 00
        E 0 80 49 00
        E 0 80 4b 00
        E 0 80 55 00
        E 0 80 57 00
        E 0 80 61 00
        E 0 80 62 00
        E 0 80 63 00
        E 1 80 31 00
        E 119 90 34 60
        E 0 90 55 60
        E 0 90 58 60
        E 0 90 61 60
        E 0 90 62 60
        E 0 90 64 60
        E 120 80 55 00
        E 0 80 58 00
        E 0 80 61 00
        E 0 80 62 00
        E 0 80 64 00
        E 120 90 4a 60
        E 0 90 4c 60
        E 0 90 55 60
        E 0 90 58 60
        E 0 90 61 60
        E 0 90 62 60
        E 0 90 64 60
        E 120 80 4a 00
        E 0 80 4c 00
        E 0 80 55 00
        E 0 80 58 00
        E 0 80 61 00
        E 0 80 62 00
        E 0 80 64 00
        E 120 90 55 60
        E 0 90 58 60
        E 0 90 61 60
        E 0 90 62 60
        E 0 90 64 60
        E 120 80 55 00
        E 0 80 58 00
        E 0 80 61 00
        E 0 80 62 00
        E 0 80 64 00
        E 1 80 34 00
        E 119 90 31 60
        E 0 90 3d 60
        E 0 90 48 60
        E 0 90 4a 60
        E 0 90 54 60
        E 0 90 56 60
        E 0 90 60 60
        E 0 90 61 60
        E 0 90 63 60
        E 120 80 3d 00
        E 0 80 48 00
        E 0 80 4a 00
        E 0 80 54 00
        E 0 80 56 00
        E 0 80 60 00
        E 0 80 61 00
        E 0 80 63 00
        E 120 90 54 60
        E 0 90 56 60
        E 0 90 60 60
        E 0 90 61 60
        E 0 90 63 60
        E 120 80 54 00
        E 0 80 56 00
        E 0 80 60 00
        E 0 80 61 00
        E 0 80 63 00
        E 1 80 31 00
        E 119 90 34 60
        E 0 90 4a 60
        E 0 90 4c 60
        E 0 90 55 60
        E 0 90 58 60
        E 0 90 61 60
        E 0 90 62 60
        E 0 90 64 60
        E 120 80 4a 00
        E 0 80 4c 00
        E 240 80 55 00
        E 0 80 58 00
        E 0 80 61 00
        E 0 80 62 00
        E 0 80 64 00
        E 1 80 34 00
        E 119 90 31 60
        E 0 90 3d 60
        E 0 90 48 60
        E 0 90 4a 60
        E 0 90 54 60
        E 0 90 56 60
        E 0 90 60 60
        E 0 90 61 60
        E 0 90 63 60
        E 120 80 3d 00
        E 0 80 48 00
        E 0 80 4a 00
        E 0 80 54 00
        E 0 80 56 00
        E 0 80 60 00
        E 0 80 61 00
        E 0 80 63 00
        E 120 90 54 60
        E 0 90 56 60
        E 0 90 60 60
        E 0 90 61 60
        E 0 90 63 60
        E 120 80 54 00
        E 0 80 56 00
        E 0 80 60 00
        E 0 80 61 00
        E 0 80 63 00
        E 1 80 31 00
        E 119 90 34 60
        E 0 90 4a 60
        E 0 90 4c 60
        E 0 90 55 60
        E 0 90 58 60
        E 0 90 61 60
        E 0 90 62 60
        E 0 90 64 60
        E 120 80 4a 00
        E 0 80 4c 00
        E 240 80 55 00
        E 0 80 58 00
        E 0 80 61 00
        E 0 80 62 00
        E 0 80 64 00
        E 1 80 34 00
        E 119 90 31 60
        E 0 90 3e 60
        E 0 90 49 60
        E 0 90 4b 60
        E 0 90 55 60
        E 0 90 57 60
        E 0 90 61 60
        E 0 90 62 60
        E 0 90 63 60
        E 120 80 3e 00
        E 0 80 49 00
        E 0 80 4b 00
        E 0 80 55 00
        E 0 80 57 00
        E 0 80 61 00
        E 0 80 62 00
        E 0 80 63 00
        E 120 90 49 60
        E 0 90 4b 60
        E 0 90 55 60
        E 0 90 57 60
        E 0 90 61 60
        E 0 90 62 60
        E 0 90 63 60
        E 120 80 49 00
        E 0 80 4b 00
        E 0 80 55 00
        E 0 80 57 00
        E 0 80 61 00
        E 0 80 62 00
        E 0 80 63 00
        E 120 90 3e 60
        E 0 90 49 60
        E 0 90 4b 60
        E 0 90 55 60
        E 0 90 57 60
        E 0 90 61 60
        E 0 90 62 60
        E 0 90 63 60
        E 120 80 3e 00
        E 0 80 49 00
        E 0 80 4b 00
        E 0 80 55 00
        E 0 80 57 00
        E 0 80 61 00
        E 0 80 62 00
        E 0 80 63 00
        E 120 90 49 60
        E 0 90 4b 60
        E 0 90 55 60
        E 0 90 57 60
        E 0 90 61 60
        E 0 90 62 60
        E 0 90 63 60
        E 120 80 49 00
        E 0 80 4b 00
        E 0 80 55 00
        E 0 80 57 00
        E 0 80 61 00
        E 0 80 62 00
        E 0 80 63 00
        E 120 90 3e 60
        E 0 90 49 60
        E 0 90 4b 60
        E 0 90 55 60
        E 0 90 57 60
        E 0 90 61 60
        E 0 90 62 60
        E 0 90 63 60
        E 120 80 3e 00
        E 0 80 49 00
        E 0 80 4b 00
        E 0 80 55 00
        E 0 80 57 00
        E 0 80 61 00
        E 0 80 62 00
        E 0 80 63 00
        E 1 80 31 00
        E 119 90 34 60
        E 0 90 55 60
        E 0 90 58 60
        E 0 90 61 60
        E 0 90 62 60
        E 0 90 64 60
        E 120 80 55 00
        E 0 80 58 00
        E 0 80 61 00
        E 0 80 62 00
        E 0 80 64 00
        E 120 90 4a 60
        E 0 90 4c 60
        E 0 90 55 60
        E 0 90 58 60
        E 0 90 61 60
        E 0 90 62 60
        E 0 90 64 60
        E 120 80 4a 00
        E 0 80 4c 00
        E 0 80 55 00
        E 0 80 58 00
        E 0 80 61 00
        E 0 80 62 00
        E 0 80 64 00
        E 120 90 55 60
        E 0 90 58 60
        E 0 90 61 60
        E 0 90 62 60
        E 0 90 64 60
        E 120 80 55 00
        E 0 80 58 00
        E 0 80 61 00
        E 0 80 62 00
        E 0 80 64 00
        E 1 80 34 00
        E 119 90 31 60
        E 0 90 3d 60
        E 0 90 48 60
        E 0 90 4a 60
        E 0 90 54 60
        E 0 90 56 60
        E 0 90 60 60
        E 0 90 61 60
        E 0 90 63 60
        E 120 80 3d 00
        E 0 80 48 00
        E 0 80 4a 00
        E 0 80 54 00
        E 0 80 56 00
        E 0 80 60 00
        E 0 80 61 00
        E 0 80 63 00
        E 120 90 54 60
        E 0 90 56 60
        E 0 90 60 60
        E 0 90 61 60
        E 0 90 63 60
        E 120 80 54 00
        E 0 80 56 00
        E 0 80 60 00
        E 0 80 61 00
        E 0 80 63 00
        E 1 80 31 00
        E 119 90 34 60
        E 0 90 4a 60
        E 0 90 4c 60
        E 0 90 55 60
        E 0 90 58 60
        E 0 90 61 60
        E 0 90 62 60
        E 0 90 64 60
        E 120 80 4a 00
        E 0 80 4c 00
        E 240 80 55 00
        E 0 80 58 00
        E 0 80 61 00
        E 0 80 62 00
        E 0 80 64 00
        E 1 80 34 00
        E 119 90 31 60
        E 0 90 3d 60
        E 0 90 48 60
        E 0 90 4a 60
        E 0 90 54 60
        E 0 90 56 60
        E 0 90 60 60
        E 0 90 61 60
        E 0 90 63 60
        E 120 80 3d 00
        E 0 80 48 00
        E 0 80 4a 00
        E 0 80 54 00
        E 0 80 56 00
        E 0 80 60 00
        E 0 80 61 00
        E 0 80 63 00
        E 120 90 54 60
        E 0 90 56 60
        E 0 90 60 60
        E 0 90 61 60
        E 0 90 63 60
        E 120 80 54 00
        E 0 80 56 00
        E 0 80 60 00
        E 0 80 61 00
        E 0 80 63 00
        E 1 80 31 00
        E 119 90 34 60
        E 0 90 4a 60
        E 0 90 4c 60
        E 0 90 55 60
        E 0 90 58 60
        E 0 90 61 60
        E 0 90 62 60
        E 0 90 64 60
        E 480 80 34 00
        E 0 80 4a 00
        E 0 80 4c 00
        E 0 80 55 00
        E 0 80 58 00
        E 0 80 61 00
        E 0 80 62 00
        E 0 80 64 00
        <X 479 0
          /wFbaWRsZV9yZWFsdGltZV0=
        >
        E 1441 b0 7b 00
        GUID {B816F6F5-9FCD-43ED-808B-59B19EF73342}
        IGNTEMPO 0 120.00000000 4 4
        SRCCOLOR 5
        VELLANE 131 128 60
        COLORMAP "C:\Program Files\REAPER (x64)\Data\color_maps\rockband_guitarbass.png"
        CFGEDITVIEW -1170.534793 69.848485 0 12 0 0 0
        CFGEDIT 1 1 0 1 1 0 1 1 1 1 1 0.25000000 -8 -8 1544 872 0 2 1 1 0.00000000 0 1 0 0 0.500000 0 0 1.000000 64
        KEYSNAP 0 6 "102030050700" 0 "Pentatonic"
        EVTFILTER 0 -1 -1 -1 -1 0 1 0 0 -1.00000000 -1.00000000
      >
    >
  >
  <TRACK '{222C00F2-58E5-4F03-B433-CFEF7D7BB579}'
    NAME "PART VOCALS"
    PEAKCOL 16576
    BEAT -1
    AUTOMODE 0
    VOLPAN 1.00000000000000 0.00000000000000 -1.00000000000000 -1.00000000000000 1.00000000000000
    MUTESOLO 0 0 0
    IPHASE 0
    ISBUS 1 1
    BUSCOMP 0 0
    SHOWINMIX 1 0.666700 0.500000 1 0.500000 -1 -1 -1
    FREEMODE 0
    SEL 0
    REC 0 0 0 0 0 0 0
    VU 2
    TRACKHEIGHT 0 0
    INQ 0 0 0 0.5000000000 100 0 0 100
    NCHAN 2
    FX 1
    TRACKID {222C00F2-58E5-4F03-B433-CFEF7D7BB579}
    PERF 0
    MIDIOUT -1
    <MIDINOTENAMES
      0 116 "OVERDRIVE"
      0 115 "----"
      0 105 "Phrase Marker"
      0 104 "----"
      0 97 "Non-Displayed Percussion"
      0 96 "Displayed Percussion"
      0 95 "----"
      0 84 "C6 (Unused Highest Note)"
      0 83 "B5"
      0 82 "A#4"
      0 81 "A4"
      0 80 "G#4"
      0 79 "G4"
      0 78 "F#4"
      0 77 "F4"
      0 76 "E4"
      0 75 "D#4"
      0 74 "D4"
      0 73 "C#4"
      0 72 "C4"
      0 71 "B3"
      0 70 "A#3"
      0 69 "A3"
      0 68 "G#3"
      0 67 "G3"
      0 66 "F#3"
      0 65 "F3"
      0 64 "E3"
      0 63 "D#3"
      0 62 "D3"
      0 61 "C#3"
      0 60 "C3"
      0 59 "B2"
      0 58 "A#2"
      0 57 "A2"
      0 56 "G#2"
      0 55 "G2"
      0 54 "F#2"
      0 53 "F2"
      0 52 "E2"
      0 51 "D#2"
      0 50 "D2"
      0 49 "C#2"
      0 48 "C2"
      0 47 "B1"
      0 46 "A#1"
      0 45 "A1"
      0 44 "G#1"
      0 43 "G1"
      0 42 "F#1"
      0 41 "F1"
      0 40 "E1"
      0 39 "D#1"
      0 38 "D1"
      0 37 "C#1"
      0 36 "Lowest Note C1"
      0 2 "---"
      0 1 "Lyric Shift"
      0 0 "Range Shift"
    >
    MAINSEND 1 0
    <FXCHAIN
      SHOW 0
      LASTSEL 0
      DOCKED 0
    >
    <ITEM
      POSITION 0.00000000000000
      SNAPOFFS 0.00000000000000
      LENGTH 144.00200000000001
      LOOP 0
      ALLTAKES 0
      SEL 0
      FADEIN 1 0.000000 0.000000 1 0
      FADEOUT 1 0.000000 0.000000 1 0
      MUTE 0
      IGUID {9CBDAEA1-218B-41CD-A9E0-7449BC470604}
      IID 4
      NAME "PART VOCALS"
      VOLPAN 1.000000 0.000000 1.000000 -1.000000
      SOFFS 0.00000000000000 0.00000000000000
      PLAYRATE 1.00000000000000 1 0.00000000000000 -1
      CHANMODE 0
      GUID {675D4500-7D38-41EE-9C70-971A7F4C8D3C}
      <SOURCE MIDI
        HASDATA 1 480 QN
        POOLEDEVTS {542B56F9-9492-4642-B814-D82A843513F9}
        <X 0 0
          /wNQQVJUIFZPQ0FMUw==
        >
        <X 4320 0
          /wFbaWRsZV9pbnRlbnNlXQ==
        >
        <X 16080 0
          /wFbcGxheV0=
        >
        E 240 90 69 60
        <X 240 0
          /wVZb3Uj
        >
        E 0 90 3e 60
        E 150 80 3e 00
        <X 90 0
          /wVjb21lIw==
        >
        E 0 90 43 60
        E 180 80 43 00
        <X 60 0
          /wVhLSM=
        >
        E 0 90 43 60
        E 150 80 43 00
        <X 90 0
          /wVyb3VuZCM=
        >
        E 0 90 43 60
        E 180 80 43 00
        <X 60 0
          /wVhbmQj
        >
        E 0 90 43 60
        E 150 80 43 00
        <X 90 0
          /wVzYXkj
        >
        E 0 90 43 60
        E 180 80 43 00
        <X 60 0
          /wVoZWwtIw==
        >
        E 0 90 43 60
        E 180 80 43 00
        <X 60 0
          /wVsbyM=
        >
        E 0 90 43 60
        E 180 80 43 00
        E 30 80 69 00
        E 0 90 69 60
        <X 30 0
          /wVBbmQj
        >
        E 0 90 43 60
        E 180 80 43 00
        <X 60 0
          /wVJIw==
        >
        E 0 90 45 60
        E 180 80 45 00
        <X 60 0
          /wVkb24ndCM=
        >
        E 0 90 43 60
        E 150 80 43 00
        <X 90 0
          /wVrbm93Iw==
        >
        E 0 90 45 60
        E 390 80 45 00
        <X 90 0
          /wV3aGF0Iw==
        >
        E 0 90 43 60
        E 180 80 43 00
        <X 60 0
          /wV0byM=
        >
        E 0 90 43 60
        E 150 80 43 00
        <X 90 0
          /wVkbyM=
        >
        E 0 90 43 60
        E 180 80 43 00
        E 30 80 69 00
        E 0 90 69 60
        <X 30 0
          /wVZb3Uj
        >
        E 0 90 43 60
        E 180 80 43 00
        <X 60 0
          /wVsb29rIw==
        >
        E 0 90 43 60
        E 180 80 43 00
        <X 60 0
          /wVhdCM=
        >
        E 0 90 43 60
        E 150 80 43 00
        <X 90 0
          /wVtZSM=
        >
        E 0 90 43 60
        E 120 80 43 00
        <X 120 0
          /wVhbmQj
        >
        E 0 90 43 60
        E 90 80 43 00
        <X 150 0
          /wVzZWUj
        >
        E 0 90 43 60
        E 180 80 43 00
        <X 60 0
          /wVyaWdodCM=
        >
        E 0 90 43 60
        E 150 80 43 00
        <X 90 0
          /wV0aHJvdWdoIw==
        >
        E 0 90 43 60
        E 180 80 43 00
        E 30 80 69 00
        E 240 90 69 60
        E 0 90 74 60
        <X 30 0
          /wVXaG8j
        >
        E 0 90 45 60
        E 180 80 45 00
        <X 60 0
          /wV0aGUj
        >
        E 0 90 45 60
        E 180 80 45 00
        <X 60 0
          /wVoZWxsIw==
        >
        E 0 90 45 60
        E 330 80 45 00
        <X 150 0
          /wVhcmUj
        >
        E 0 90 45 60
        E 180 80 45 00
        <X 30 0
          /wV5b3U/Iw==
        >
        E 0 90 45 60
        E 330 80 45 00
        E 60 80 69 00
        E 0 80 74 00
        E 330 90 69 60
        <X 30 0
          /wVCYS0j
        >
        E 0 90 45 60
        E 180 80 45 00
        <X 60 0
          /wVieSM=
        >
        E 0 90 45 60
        E 150 80 45 00
        <X 90 0
          /wViYS0j
        >
        E 0 90 45 60
        E 150 80 45 00
        <X 90 0
          /wVieSM=
        >
        E 0 90 43 60
        E 150 80 43 00
        <X 90 0
          /wVJIw==
        >
        E 0 90 45 60
        E 180 80 45 00
        <X 60 0
          /wVkb24ndCM=
        >
        E 0 90 45 60
        E 180 80 45 00
        <X 60 0
          /wVrbm93Iw==
        >
        E 0 90 45 60
        E 180 80 45 00
        E 30 90 01 60
        <X 30 0
          /wVidXQj
        >
        E 0 80 01 00
        E 0 90 45 60
        E 120 80 45 00
        <X 120 0
          /wVJIw==
        >
        E 0 90 45 60
        E 630 80 45 00
        <X 90 0
          /wV3YW50Iw==
        >
        E 0 90 45 60
        E 390 80 45 00
        <X 90 0
          /wV5b3Uj
        >
        E 0 90 43 60
        E 420 80 43 00
        E 30 80 69 00
        E 240 90 69 60
        <X 30 0
          /wVCYS0j
        >
        E 0 90 45 60
        E 180 80 45 00
        <X 60 0
          /wVieSM=
        >
        E 0 90 45 60
        E 150 80 45 00
        <X 90 0
          /wViYS0j
        >
        E 0 90 45 60
        E 150 80 45 00
        <X 90 0
          /wVieSM=
        >
        E 0 90 43 60
        E 150 80 43 00
        <X 90 0
          /wVJIw==
        >
        E 0 90 45 60
        E 180 80 45 00
        <X 60 0
          /wVkb24ndCM=
        >
        E 0 90 45 60
        E 180 80 45 00
        <X 60 0
          /wVrbm93LCM=
        >
        E 0 90 45 60
        E 180 80 45 00
        E 30 90 01 60
        <X 30 0
          /wVidXQj
        >
        E 0 80 01 00
        E 0 90 45 60
        E 120 80 45 00
        <X 120 0
          /wVJIw==
        >
        E 0 90 45 60
        E 630 80 45 00
        <X 90 0
          /wV3YW50Iw==
        >
        E 0 90 45 60
        E 390 80 45 00
        <X 90 0
          /wV5b3Uj
        >
        E 0 90 43 60
        E 420 80 43 00
        E 30 80 69 00
        E 240 90 69 60
        <X 30 0
          /wVTZWUj
        >
        E 0 90 45 60
        E 120 80 45 00
        <X 120 0
          /wVpdD8j
        >
        E 0 90 43 60
        E 300 80 43 00
        <X 1380 0
          /wVOZWVkIw==
        >
        E 0 90 45 60
        E 120 80 45 00
        <X 120 0
          /wVpdD8j
        >
        E 0 90 45 60
        E 390 80 45 00
        <X 1290 0
          /wVEcmVhbSM=
        >
        E 0 90 47 60
        E 270 80 47 00
        <X 90 0
          /wVpdD8j
        >
        E 0 90 47 60
        E 420 80 47 00
        E 180 80 69 00
        E 720 90 69 60
        E 0 90 74 60
        <X 240 0
          /wVEbyM=
        >
        E 0 90 48 60
        E 360 80 48 00
        <X 120 0
          /wV5b3Uj
        >
        E 0 90 48 60
        E 150 80 48 00
        <X 90 0
          /wV3YW50Iw==
        >
        E 0 90 48 60
        E 360 80 48 00
        <X 120 0
          /wVpdD8j
        >
        E 0 90 48 60
        E 480 80 48 00
        E 30 80 69 00
        E 0 80 74 00
        E 180 90 69 60
        <X 30 0
          /wVDYWxsIw==
        >
        E 0 90 45 60
        E 180 80 45 00
        <X 60 0
          /wVtZSM=
        >
        E 0 90 45 60
        E 150 80 45 00
        <X 90 0
          /wVhbmQj
        >
        E 0 90 45 60
        E 150 80 45 00
        <X 90 0
          /wV0aGVuIw==
        >
        E 0 90 45 60
        E 180 80 45 00
        <X 60 0
          /wVtZWV0Iw==
        >
        E 0 90 45 60
        E 300 80 45 00
        <X 180 0
          /wVtZSM=
        >
        E 0 90 45 60
        E 480 80 45 00
        E 480 80 69 00
        E 960 90 69 60
        <X 480 0
          /wVDYWxsIw==
        >
        E 0 90 45 60
        E 180 80 45 00
        <X 60 0
          /wVtZSM=
        >
        E 0 90 45 60
        E 150 80 45 00
        <X 90 0
          /wVhbmQj
        >
        E 0 90 45 60
        E 150 80 45 00
        <X 90 0
          /wV0aGVuIw==
        >
        E 0 90 45 60
        E 180 80 45 00
        <X 60 0
          /wVtZWV0Iw==
        >
        E 0 90 45 60
        E 300 80 45 00
        <X 180 0
          /wVtZSM=
        >
        E 0 90 45 60
        E 630 80 45 00
        E 330 80 69 00
        <X 960 0
          /wFbaW50ZW5zZV0=
        >
        E 0 90 69 60
        <X 240 0
          /wVXaGVuLSM=
        >
        E 0 90 43 60
        E 150 80 43 00
        <X 90 0
          /wVldi0j
        >
        E 0 90 45 60
        E 180 80 45 00
        <X 60 0
          /wVlciM=
        >
        E 0 90 43 60
        E 180 80 43 00
        <X 60 0
          /wVJIw==
        >
        E 0 90 45 60
        E 360 80 45 00
        <X 120 0
          /wVsb29rIw==
        >
        E 0 90 43 60
        E 180 80 43 00
        <X 60 0
          /wVhdCM=
        >
        E 0 90 43 60
        E 150 80 43 00
        <X 90 0
          /wV5b3Uj
        >
        E 0 90 43 60
        E 240 80 43 00
        E 120 90 01 60
        E 30 80 01 00
        <X 90 0
          /wVJIw==
        >
        E 0 90 48 60
        E 150 80 48 00
        <X 90 0
          /wVkb24ndCM=
        >
        E 0 90 47 60
        E 150 80 47 00
        <X 90 0
          /wVrbm93Iw==
        >
        E 0 90 48 60
        E 390 80 48 00
        <X 90 0
          /wV3aGF0Iw==
        >
        E 0 90 48 60
        E 150 80 48 00
        <X 90 0
          /wV0byM=
        >
        E 0 90 48 60
        E 150 80 48 00
        <X 90 0
          /wVkbyM=
        >
        E 0 90 45 60
        E 150 80 45 00
        E 30 80 69 00
        E 30 90 69 60
        <X 30 0
          /wVXaGVuLSM=
        >
        E 0 90 43 60
        E 150 80 43 00
        <X 90 0
          /wVldi0j
        >
        E 0 90 45 60
        E 180 80 45 00
        <X 60 0
          /wVlciM=
        >
        E 0 90 43 60
        E 180 80 43 00
        <X 60 0
          /wV5b3Uj
        >
        E 0 90 45 60
        E 180 80 45 00
        <X 120 0
          /wV0YWxrIw==
        >
        E 0 90 48 60
        E 330 80 48 00
        <X 90 0
          /wV0byM=
        >
        E 0 90 43 60
        E 150 80 43 00
        <X 90 0
          /wVtZSM=
        >
        E 0 90 43 60
        E 240 80 43 00
        E 120 90 01 60
        E 30 80 01 00
        <X 90 0
          /wVJIw==
        >
        E 0 90 48 60
        E 150 80 48 00
        <X 90 0
          /wVkb24ndCM=
        >
        E 0 90 47 60
        E 150 80 47 00
        <X 90 0
          /wVrbm93Iw==
        >
        E 0 90 48 60
        E 390 80 48 00
        <X 90 0
          /wV3aGF0Iw==
        >
        E 0 90 48 60
        E 150 80 48 00
        <X 90 0
          /wVpcyM=
        >
        E 0 90 48 60
        E 150 80 48 00
        <X 90 0
          /wV0cnVlIw==
        >
        E 0 90 45 60
        E 150 80 45 00
        E 30 80 69 00
        E 270 90 69 60
        E 0 90 74 60
        <X 30 0
          /wVUZWxsIw==
        >
        E 0 90 48 60
        E 150 80 48 00
        <X 90 0
          /wVtZSM=
        >
        E 0 90 48 60
        E 150 80 48 00
        <X 90 0
          /wV3aGF0Iw==
        >
        E 0 90 48 60
        E 360 80 48 00
        <X 120 0
          /wV0byM=
        >
        E 0 90 43 60
        E 150 80 43 00
        <X 90 0
          /wViZS0j
        >
        E 0 90 43 60
        E 150 80 43 00
        <X 90 0
          /wVsaWV2ZSM=
        >
        E 0 90 43 60
        E 630 80 43 00
        <X 1770 0
          /wV0ZWxsIw==
        >
        E 0 90 48 60
        E 150 80 48 00
        <X 90 0
          /wVtZSM=
        >
        E 0 90 48 60
        E 150 80 48 00
        <X 90 0
          /wV3aGF0Iw==
        >
        E 0 90 48 60
        E 360 80 48 00
        <X 120 0
          /wV0byM=
        >
        E 0 90 43 60
        E 150 80 43 00
        <X 90 0
          /wViZS0j
        >
        E 0 90 43 60
        E 150 80 43 00
        <X 90 0
          /wVsaWV2ZSM=
        >
        E 0 90 43 60
        E 300 80 43 00
        E 180 80 69 00
        E 0 80 74 00
        <X 1920 0
          /wFbcGxheV0=
        >
        E 720 90 69 60
        <X 240 0
          /wVMaXMtIw==
        >
        E 0 90 40 60
        E 150 80 40 00
        <X 90 0
          /wV0ZW4j
        >
        E 0 90 43 60
        E 240 80 43 00
        <X 240 0
          /wViYS0j
        >
        E 0 90 43 60
        E 270 80 43 00
        <X 60 0
          /wVieSM=
        >
        E 0 90 40 60
        E 180 80 40 00
        E 210 90 01 60
        E 30 80 01 00
        <X 240 0
          /wVJIw==
        >
        E 0 90 40 60
        E 180 80 40 00
        <X 30 0
          /wVnb3Qj
        >
        E 0 90 43 60
        E 180 80 43 00
        <X 60 0
          /wVzb21lLSM=
        >
        E 0 90 45 60
        E 210 80 45 00
        <X 30 0
          /wV0aGluZyM=
        >
        E 0 90 47 60
        E 180 80 47 00
        <X 60 0
          /wV0byM=
        >
        E 0 90 45 60
        E 180 80 45 00
        <X 60 0
          /wVzYXkj
        >
        E 0 90 40 60
        E 300 80 40 00
        E 180 80 69 00
        E 240 90 69 60
        E 0 90 74 60
        <X 240 0
          /wVMaXMt
        >
        E 0 90 40 60
        E 150 80 40 00
        <X 90 0
          /wV0ZW4=
        >
        E 0 90 43 60
        E 150 80 43 00
        <X 330 0
          /wVjbG9zZS0=
        >
        E 0 90 4a 60
        E 390 80 4a 00
        <X 90 0
          /wVseQ==
        >
        E 0 90 48 60
        E 210 80 48 00
        <X 30 0
          /wVJ
        >
        E 0 90 47 60
        E 150 80 47 00
        <X 90 0
          /wV3b24ndA==
        >
        E 0 90 43 60
        E 120 80 43 00
        <X 120 0
          /wVzYXk=
        >
        E 0 90 4a 60
        E 180 80 4a 00
        <X 60 0
          /wVpdA==
        >
        E 0 90 48 60
        E 180 80 48 00
        <X 60 0
          /wVhLQ==
        >
        E 0 90 47 60
        E 150 80 47 00
        <X 90 0
          /wVnYWlu
        >
        E 0 90 47 60
        E 450 80 47 00
        <X 510 0
          /wVJ
        >
        E 0 90 40 60
        E 150 80 40 00
        E 30 80 69 00
        E 0 80 74 00
        E 0 90 69 60
        <X 60 0
          /wVnb3Q=
        >
        E 0 90 43 60
        E 180 80 43 00
        <X 60 0
          /wV5b3Vy
        >
        E 0 90 43 60
        E 390 80 43 00
        <X 90 0
          /wVzaGlydCM=
        >
        E 0 90 43 60
        E 390 80 43 00
        <X 330 0
          /wVhbmQj
        >
        E 0 90 43 60
        E 180 80 43 00
        <X 60 0
          /wVJJ20j
        >
        E 0 90 43 60
        E 90 80 43 00
        <X 150 0
          /wVzbyM=
        >
        E 0 90 47 60
        E 150 80 47 00
        <X 90 0
          /wVub3Q=
        >
        E 0 90 43 60
        E 240 80 43 00
        <X 240 0
          /wVzdXJl
        >
        E 0 90 40 60
        E 300 80 40 00
        E 180 80 69 00
        E 0 90 69 60
        <X 240 0
          /wVBcmU=
        >
        E 0 90 40 60
        E 180 80 40 00
        <X 60 0
          /wV5b3U=
        >
        E 0 90 40 60
        E 150 80 40 00
        <X 90 0
          /wVjb20t
        >
        E 0 90 43 60
        E 150 80 43 00
        <X 90 0
          /wVpbmc=
        >
        E 0 90 45 60
        E 210 80 45 00
        <X 270 0
          /wViYWNr
        >
        E 0 90 4a 60
        E 270 80 4a 00
        <X 210 0
          /wVmb3I=
        >
        E 0 90 48 60
        E 120 80 48 00
        <X 120 0
          /wVpdA==
        >
        E 0 90 47 60
        E 180 80 47 00
        E 30 90 01 60
        <X 30 0
          /wVvcg==
        >
        E 0 80 01 00
        E 0 90 45 60
        E 150 80 45 00
        <X 90 0
          /wVzaG91bGQ=
        >
        E 0 90 45 60
        E 210 80 45 00
        <X 30 0
          /wVp
        >
        E 0 90 45 60
        E 180 80 45 00
        <X 60 0
          /wVleC0=
        >
        E 0 90 45 60
        E 120 80 45 00
        <X 360 0
          /wVwZWN0
        >
        E 0 90 4a 60
        E 300 80 4a 00
        <X 180 0
          /wV0aGUj
        >
        E 0 90 48 60
        E 120 80 48 00
        <X 120 0
          /wV3b3JzdD8j
        >
        E 0 90 47 60
        E 720 80 47 00
        E 30 80 69 00
        E 0 90 69 60
        E 0 90 74 60
        <X 210 0
          /wVCdXQj
        >
        E 0 90 43 60
        E 90 80 43 00
        <X 30 0
          /wV5b3Uj
        >
        E 0 90 43 60
        E 210 80 43 00
        <X 60 0
          /wVjYW4j
        >
        E 0 90 43 60
        E 180 80 43 00
        <X 90 0
          /wVrZWVwIw==
        >
        E 0 90 43 60
        E 210 80 43 00
        <X 60 0
          /wVpdCM=
        >
        E 0 90 43 60
        E 210 80 43 00
        E 60 80 69 00
        E 0 80 74 00
        E 480 90 69 60
        <X 240 0
          /wVJJ20j
        >
        E 0 90 43 60
        E 180 80 43 00
        <X 60 0
          /wV0aGluay0j
        >
        E 0 90 43 60
        E 210 80 43 00
        <X 30 0
          /wVpbmcj
        >
        E 0 90 43 60
        E 150 80 43 00
        E 570 90 01 60
        E 30 80 01 00
        <X 690 0
          /wVEb24ndCM=
        >
        E 0 90 43 60
        E 180 80 43 00
        <X 60 0
          /wV0aGluayM=
        >
        E 0 90 43 60
        E 150 80 43 00
        <X 90 0
          /wV0b28j
        >
        E 0 90 43 60
        E 120 80 43 00
        <X 30 0
          /wVtdWNoIw==
        >
        E 0 90 43 60
        E 120 80 43 00
        E 450 80 69 00
        E 720 90 69 60
        <X 240 0
          /wVTaG91bGQj
        >
        E 0 90 43 60
        E 360 80 43 00
        <X 120 0
          /wVJIw==
        >
        E 0 90 43 60
        E 150 80 43 00
        <X 330 0
          /wVjYWxsPyM=
        >
        E 0 90 40 60
        E 540 80 40 00
        E 60 90 01 60
        E 30 80 01 00
        <X 90 0
          /wVZb3UndmUj
        >
        E 0 90 43 60
        E 150 80 43 00
        <X 90 0
          /wVnb3Qj
        >
        E 0 90 43 60
        E 180 80 43 00
        <X 60 0
          /wVteSM=
        >
        E 0 90 43 60
        E 360 80 43 00
        <X 120 0
          /wVudW0tIw==
        >
        E 0 90 43 60
        E 210 80 43 00
        <X 90 0
          /wViZXIj
        >
        E 0 90 43 60
        E 300 80 43 00
        E 120 80 69 00
        E 480 90 69 60
        <X 480 0
          /wVJJ20j
        >
        E 0 90 43 60
        E 210 80 43 00
        <X 270 0
          /wV0aGluay0j
        >
        E 0 90 43 60
        E 120 80 43 00
        <X 120 0
          /wVpbmcj
        >
        E 0 90 43 60
        E 330 80 43 00
        E 390 80 69 00
        <X 1200 0
          /wFbaW50ZW5zZV0=
        >
        E 240 90 69 60
        <X 240 0
          /wVXaGVuLSM=
        >
        E 0 90 43 60
        E 150 80 43 00
        <X 90 0
          /wVldi0j
        >
        E 0 90 45 60
        E 180 80 45 00
        <X 60 0
          /wVlciM=
        >
        E 0 90 43 60
        E 180 80 43 00
        <X 60 0
          /wVJIw==
        >
        E 0 90 45 60
        E 360 80 45 00
        <X 120 0
          /wVsb29rIw==
        >
        E 0 90 43 60
        E 180 80 43 00
        <X 60 0
          /wVhdCM=
        >
        E 0 90 43 60
        E 150 80 43 00
        <X 90 0
          /wV5b3Uj
        >
        E 0 90 43 60
        E 240 80 43 00
        E 120 90 01 60
        E 30 80 01 00
        <X 90 0
          /wVJIw==
        >
        E 0 90 48 60
        E 150 80 48 00
        <X 90 0
          /wVkb24ndCM=
        >
        E 0 90 47 60
        E 150 80 47 00
        <X 90 0
          /wVrbm93Iw==
        >
        E 0 90 48 60
        E 390 80 48 00
        <X 90 0
          /wV3aGF0Iw==
        >
        E 0 90 48 60
        E 150 80 48 00
        <X 90 0
          /wV0byM=
        >
        E 0 90 48 60
        E 150 80 48 00
        <X 90 0
          /wVkbyM=
        >
        E 0 90 45 60
        E 150 80 45 00
        E 30 80 69 00
        E 30 90 69 60
        <X 30 0
          /wVXaGVuLSM=
        >
        E 0 90 43 60
        E 150 80 43 00
        <X 90 0
          /wVldi0j
        >
        E 0 90 45 60
        E 180 80 45 00
        <X 60 0
          /wVlciM=
        >
        E 0 90 43 60
        E 180 80 43 00
        <X 60 0
          /wV5b3Uj
        >
        E 0 90 45 60
        E 180 80 45 00
        <X 120 0
          /wV0YWxrIw==
        >
        E 0 90 48 60
        E 330 80 48 00
        <X 90 0
          /wV0byM=
        >
        E 0 90 43 60
        E 150 80 43 00
        <X 90 0
          /wVtZSM=
        >
        E 0 90 43 60
        E 240 80 43 00
        E 120 90 01 60
        E 30 80 01 00
        <X 90 0
          /wVJIw==
        >
        E 0 90 48 60
        E 150 80 48 00
        <X 90 0
          /wVkb24ndCM=
        >
        E 0 90 47 60
        E 150 80 47 00
        <X 90 0
          /wVrbm93Iw==
        >
        E 0 90 48 60
        E 390 80 48 00
        <X 90 0
          /wV3aGF0Iw==
        >
        E 0 90 48 60
        E 150 80 48 00
        <X 90 0
          /wVpcyM=
        >
        E 0 90 48 60
        E 150 80 48 00
        <X 90 0
          /wV0cnVlIw==
        >
        E 0 90 45 60
        E 150 80 45 00
        E 30 80 69 00
        E 270 90 69 60
        E 0 90 74 60
        <X 30 0
          /wVUZWxsIw==
        >
        E 0 90 48 60
        E 150 80 48 00
        <X 90 0
          /wVtZSM=
        >
        E 0 90 48 60
        E 150 80 48 00
        <X 90 0
          /wV3aGF0Iw==
        >
        E 0 90 48 60
        E 360 80 48 00
        <X 120 0
          /wV0byM=
        >
        E 0 90 43 60
        E 150 80 43 00
        <X 90 0
          /wViZS0j
        >
        E 0 90 43 60
        E 150 80 43 00
        <X 90 0
          /wVsaWV2ZSM=
        >
        E 0 90 43 60
        E 630 80 43 00
        <X 1770 0
          /wV0ZWxsIw==
        >
        E 0 90 48 60
        E 150 80 48 00
        <X 90 0
          /wVtZSM=
        >
        E 0 90 48 60
        E 150 80 48 00
        <X 90 0
          /wV3aGF0Iw==
        >
        E 0 90 48 60
        E 360 80 48 00
        <X 120 0
          /wV0byM=
        >
        E 0 90 43 60
        E 150 80 43 00
        <X 90 0
          /wViZS0j
        >
        E 0 90 43 60
        E 150 80 43 00
        <X 90 0
          /wVsaWV2ZSM=
        >
        E 0 90 43 60
        E 300 80 43 00
        E 180 80 69 00
        E 0 80 74 00
        <X 1920 0
          /wFbcGxheV0=
        >
        E 480 90 69 60
        <X 240 0
          /wVZb3VyIw==
        >
        E 0 90 47 60
        E 150 80 47 00
        <X 90 0
          /wVzaGlydCM=
        >
        E 0 90 47 60
        E 300 80 47 00
        E 660 90 01 60
        E 30 80 01 00
        <X 690 0
          /wVZb3VyIw==
        >
        E 0 90 47 60
        E 180 80 47 00
        <X 60 0
          /wVzaG9lcyM=
        >
        E 0 90 47 60
        E 390 80 47 00
        E 90 80 69 00
        E 960 90 69 60
        <X 240 0
          /wVZb3VyIw==
        >
        E 0 90 47 60
        E 150 80 47 00
        <X 90 0
          /wVza2lydCM=
        >
        E 0 90 47 60
        E 360 80 47 00
        E 600 90 01 60
        E 30 80 01 00
        <X 690 0
          /wVZb3VyIw==
        >
        E 0 90 47 60
        E 180 80 47 00
        <X 60 0
          /wVwYW50cyM=
        >
        E 0 90 47 60
        E 300 80 47 00
        E 180 80 69 00
        E 960 90 69 60
        E 0 90 74 60
        <X 240 0
          /wVNeSM=
        >
        E 0 90 47 60
        E 150 80 47 00
        <X 90 0
          /wVyZS0j
        >
        E 0 90 47 60
        E 180 80 47 00
        <X 60 0
          /wVjb3JkcyM=
        >
        E 0 90 47 60
        E 210 80 47 00
        E 510 90 01 60
        E 30 80 01 00
        <X 690 0
          /wVNeSM=
        >
        E 0 90 47 60
        E 179 80 47 00
        <X 60 0
          /wVoZWFydCM=
        >
        E 0 90 47 60
        E 301 80 47 00
        E 180 80 69 00
        E 0 80 74 00
        E 960 90 69 60
        <X 240 0
          /wVUaGUj
        >
        E 0 90 47 60
        E 150 80 47 00
        <X 90 0
          /wVkb2dzIw==
        >
        E 0 90 47 60
        E 330 80 47 00
        E 630 90 01 60
        E 30 80 01 00
        <X 690 0
          /wVUaGUj
        >
        E 0 90 47 60
        E 179 80 47 00
        <X 60 0
          /wViZWQj
        >
        E 0 90 47 60
        E 301 80 47 00
        E 180 80 69 00
        E 960 90 69 60
        <X 240 0
          /wVUaGUj
        >
        E 0 90 47 60
        E 150 80 47 00
        <X 90 0
          /wVmb29kIw==
        >
        E 0 90 47 60
        E 480 80 47 00
        E 480 90 01 60
        E 30 80 01 00
        <X 690 0
          /wVUaGUj
        >
        E 0 90 47 60
        E 179 80 47 00
        <X 60 0
          /wV5YXJkIw==
        >
        E 0 90 47 60
        E 331 80 47 00
        E 150 80 69 00
        E 960 90 69 60
        E 0 90 74 60
        <X 240 0
          /wVUaGUj
        >
        E 0 90 47 60
        E 150 80 47 00
        <X 90 0
          /wVzaGVldHMj
        >
        E 0 90 47 60
        E 390 80 47 00
        E 570 90 01 60
        E 30 80 01 00
        <X 690 0
          /wVTbyM=
        >
        E 0 90 47 60
        E 210 80 47 00
        <X 180 0
          /wVzb2Z0Iw==
        >
        E 0 90 47 60
        E 360 80 47 00
        E 450 80 69 00
        E 0 80 74 00
        E 480 90 69 60
        <X 240 0
          /wVUaGUj
        >
        E 0 90 47 60
        E 150 80 47 00
        <X 90 0
          /wVnYW1lcyM=
        >
        E 0 90 47 60
        E 420 80 47 00
        E 540 90 01 60
        E 30 80 01 00
        <X 690 0
          /wVXZSM=
        >
        E 0 90 47 60
        E 179 80 47 00
        <X 60 0
          /wVwbGF5Iw==
        >
        E 0 90 47 60
        E 331 80 47 00
        E 150 80 69 00
        E 960 90 69 60
        E 0 90 74 60
        <X 240 0
          /wVBcmUj
        >
        E 0 90 47 60
        E 150 80 47 00
        <X 90 0
          /wVvdi0j
        >
        E 0 90 47 60
        E 240 80 47 00
        <X 60 0
          /wVlciM=
        >
        E 0 90 47 60
        E 210 80 47 00
        E 90 90 01 60
        E 30 80 01 00
        <X 90 0
          /wVBbmQj
        >
        E 0 90 47 60
        E 179 80 47 00
        <X 60 0
          /wVvdi0j
        >
        E 0 90 47 60
        E 211 80 47 00
        <X 30 0
          /wVlciM=
        >
        E 0 90 47 60
        E 150 80 47 00
        <X 330 0
          /wVhLSM=
        >
        E 0 90 47 60
        E 150 80 47 00
        <X 90 0
          /wVnYWluIw==
        >
        E 0 90 47 60
        E 390 80 47 00
        E 30 80 69 00
        E 0 80 74 00
        <X 60 0
          /wFbaW50ZW5zZV0=
        >
        E 0 90 69 60
        <X 240 0
          /wVXaGVuLSM=
        >
        E 0 90 43 60
        E 150 80 43 00
        <X 90 0
          /wVldi0j
        >
        E 0 90 45 60
        E 180 80 45 00
        <X 60 0
          /wVlciM=
        >
        E 0 90 43 60
        E 180 80 43 00
        <X 60 0
          /wVJIw==
        >
        E 0 90 45 60
        E 360 80 45 00
        <X 120 0
          /wVsb29rIw==
        >
        E 0 90 43 60
        E 180 80 43 00
        <X 60 0
          /wVhdCM=
        >
        E 0 90 43 60
        E 150 80 43 00
        <X 90 0
          /wV5b3Uj
        >
        E 0 90 43 60
        E 240 80 43 00
        E 120 90 01 60
        E 30 80 01 00
        <X 90 0
          /wVJIw==
        >
        E 0 90 48 60
        E 150 80 48 00
        <X 90 0
          /wVkb24ndCM=
        >
        E 0 90 47 60
        E 150 80 47 00
        <X 90 0
          /wVrbm93Iw==
        >
        E 0 90 48 60
        E 390 80 48 00
        <X 90 0
          /wV3aGF0Iw==
        >
        E 0 90 48 60
        E 150 80 48 00
        <X 90 0
          /wV0byM=
        >
        E 0 90 48 60
        E 150 80 48 00
        <X 90 0
          /wVkbyM=
        >
        E 0 90 45 60
        E 150 80 45 00
        E 30 80 69 00
        E 30 90 69 60
        <X 30 0
          /wVXaGVuLSM=
        >
        E 0 90 43 60
        E 150 80 43 00
        <X 90 0
          /wVldi0j
        >
        E 0 90 45 60
        E 180 80 45 00
        <X 60 0
          /wVlciM=
        >
        E 0 90 43 60
        E 180 80 43 00
        <X 60 0
          /wV5b3Uj
        >
        E 0 90 45 60
        E 180 80 45 00
        <X 120 0
          /wV0YWxrIw==
        >
        E 0 90 48 60
        E 330 80 48 00
        <X 90 0
          /wV0byM=
        >
        E 0 90 43 60
        E 150 80 43 00
        <X 90 0
          /wVtZSM=
        >
        E 0 90 43 60
        E 240 80 43 00
        E 120 90 01 60
        E 30 80 01 00
        <X 90 0
          /wVJIw==
        >
        E 0 90 48 60
        E 150 80 48 00
        <X 90 0
          /wVkb24ndCM=
        >
        E 0 90 47 60
        E 150 80 47 00
        <X 90 0
          /wVrbm93Iw==
        >
        E 0 90 48 60
        E 390 80 48 00
        <X 90 0
          /wV3aGF0Iw==
        >
        E 0 90 48 60
        E 150 80 48 00
        <X 90 0
          /wVpcyM=
        >
        E 0 90 48 60
        E 150 80 48 00
        <X 90 0
          /wV0cnVlIw==
        >
        E 0 90 45 60
        E 150 80 45 00
        E 30 80 69 00
        E 270 90 69 60
        <X 30 0
          /wVUZWxsIw==
        >
        E 0 90 48 60
        E 150 80 48 00
        <X 90 0
          /wVtZSM=
        >
        E 0 90 48 60
        E 150 80 48 00
        <X 90 0
          /wV3aGF0Iw==
        >
        E 0 90 48 60
        E 360 80 48 00
        <X 120 0
          /wV0byM=
        >
        E 0 90 48 60
        E 150 80 48 00
        <X 90 0
          /wViZS0j
        >
        E 0 90 48 60
        E 150 80 48 00
        <X 90 0
          /wVsaWV2ZSM=
        >
        E 0 90 48 60
        E 420 80 48 00
        E 30 90 01 60
        <X 30 0
          /wV0ZWxsIw==
        >
        E 0 80 01 00
        E 0 90 48 60
        E 150 80 48 00
        <X 90 0
          /wVtZSM=
        >
        E 0 90 48 60
        E 150 80 48 00
        <X 90 0
          /wV3aGF0Iw==
        >
        E 0 90 48 60
        E 360 80 48 00
        <X 120 0
          /wV0byM=
        >
        E 0 90 48 60
        E 150 80 48 00
        <X 90 0
          /wViZS0j
        >
        E 0 90 48 60
        E 150 80 48 00
        <X 90 0
          /wVsaWV2ZSM=
        >
        E 0 90 48 60
        E 419 80 48 00
        E 30 80 69 00
        E 1 90 69 60
        <X 30 0
          /wVUZWxsIw==
        >
        E 0 90 48 60
        E 150 80 48 00
        <X 90 0
          /wVtZSM=
        >
        E 0 90 48 60
        E 150 80 48 00
        <X 90 0
          /wV3aGF0Iw==
        >
        E 0 90 48 60
        E 360 80 48 00
        <X 120 0
          /wV0byM=
        >
        E 0 90 48 60
        E 150 80 48 00
        <X 90 0
          /wViZS0j
        >
        E 0 90 48 60
        E 150 80 48 00
        <X 90 0
          /wVsaWV2ZSM=
        >
        E 0 90 48 60
        E 360 80 48 00
        E 60 90 01 60
        E 30 80 01 00
        <X 30 0
          /wV0ZWxsIw==
        >
        E 0 90 48 60
        E 150 80 48 00
        <X 90 0
          /wVtZSM=
        >
        E 0 90 48 60
        E 150 80 48 00
        <X 90 0
          /wV3aGF0Iw==
        >
        E 0 90 48 60
        E 360 80 48 00
        <X 120 0
          /wV0byM=
        >
        E 0 90 48 60
        E 150 80 48 00
        <X 90 0
          /wViZS0j
        >
        E 0 90 48 60
        E 150 80 48 00
        <X 90 0
          /wVsaWV2ZSEj
        >
        E 0 90 48 60
        E 450 80 48 00
        E 30 80 69 00
        <X 479 0
          /wFbaWRsZV9yZWFsdGltZV0=
        >
        E 1441 b0 7b 00
        GUID {02FD5026-4279-4935-9F8B-5A871EC231A5}
        IGNTEMPO 0 120.00000000 4 4
        SRCCOLOR 6
        VELLANE 131 128 60
        COLORMAP "C:\Program Files\REAPER (x64)\Data\color_maps\rockband_guitarbass.png"
        CFGEDITVIEW -1170.534793 69.848485 0 12 0 0 0
        CFGEDIT 1 1 0 1 1 0 1 1 1 1 1 0.25000000 -8 -8 1544 872 0 2 1 1 0.00000000 0 1 0 0 0.500000 0 0 1.000000 64
        KEYSNAP 0 6 "102030050700" 0 "Pentatonic"
        EVTFILTER 0 -1 -1 -1 -1 0 1 0 0 -1.00000000 -1.00000000
      >
    >
  >
  <TRACK '{1F475D84-2ECC-4F89-884B-90DB49E92592}'
    NAME "HARM1"
    PEAKCOL 16576
    BEAT -1
    AUTOMODE 0
    VOLPAN 1.00000000000000 0.00000000000000 -1.00000000000000 -1.00000000000000 1.00000000000000
    MUTESOLO 0 0 0
    IPHASE 0
    ISBUS 0 0
    BUSCOMP 0 0
    SHOWINMIX 1 0.666700 0.500000 1 0.500000 -1 -1 -1
    FREEMODE 0
    SEL 0
    REC 0 0 0 0 0 0 0
    VU 2
    TRACKHEIGHT 0 0
    INQ 0 0 0 0.5000000000 100 0 0 100
    NCHAN 2
    FX 0
    TRACKID {1F475D84-2ECC-4F89-884B-90DB49E92592}
    PERF 0
    MIDIOUT -1
    <MIDINOTENAMES
      0 116 "OVERDRIVE"
      0 115 "----"
      0 105 "Phrase Marker"
      0 104 "----"
      0 84 "C6 (Unused Highest Note)"
      0 83 "B5"
      0 82 "A#4"
      0 81 "A4"
      0 80 "G#4"
      0 79 "G4"
      0 78 "F#4"
      0 77 "F4"
      0 76 "E4"
      0 75 "D#4"
      0 74 "D4"
      0 73 "C#4"
      0 72 "C4"
      0 71 "B3"
      0 70 "A#3"
      0 69 "A3"
      0 68 "G#3"
      0 67 "G3"
      0 66 "F#3"
      0 65 "F3"
      0 64 "E3"
      0 63 "D#3"
      0 62 "D3"
      0 61 "C#3"
      0 60 "C3"
      0 59 "B2"
      0 58 "A#2"
      0 57 "A2"
      0 56 "G#2"
      0 55 "G2"
      0 54 "F#2"
      0 53 "F2"
      0 52 "E2"
      0 51 "D#2"
      0 50 "D2"
      0 49 "C#2"
      0 48 "C2"
      0 47 "B1"
      0 46 "A#1"
      0 45 "A1"
      0 44 "G#1"
      0 43 "G1"
      0 42 "F#1"
      0 41 "F1"
      0 40 "E1"
      0 39 "D#1"
      0 38 "D1"
      0 37 "C#1"
      0 36 "Lowest Note C1"
      0 2 "---"
      0 1 "Lyric Shift"
      0 0 "Range Shift"
    >
    MAINSEND 1 0
    <FXCHAIN
      WNDRECT 0 43 655 467
      SHOW 0
      LASTSEL 1
      DOCKED 0
      BYPASS 0 0
      <JS "MIDI/midi_note_filter" ""
        36.000000 84.000000 - - - - - - - - - - - - - - - - - - - - - - - - - - - - - - - - - - - - - - - - - - - - - - - - - - - - - - - - - - - - - - 
      >
      FLOATPOS 0 0 0 0
      FXID {E276DE63-CB9F-48E5-9F99-9344A36E844D}
      WAK 0
      BYPASS 0 0
      <VST "VSTi: ReaSynth (Cockos)" "reasynth.dll" 0 ""
        eXNlcu9e7f4AAAAAAgAAAAEAAAAAAAAAAgAAAAAAAAA4AAAAAAAAAA==
        AAAQAO++rd4N8K3eppvEOxe30ToAAIA/AAAAAAAAAADMm4A+6WeIPQ==
        AAAAAAAAAD8AAIA/AACAPwAAAD8AABAAAAA=
      >
      FLOATPOS 0 0 0 0
      FXID {5FEAFA25-341B-42C7-9277-B1E2557D0454}
      WAK 0
    >
    <ITEM
      POSITION 0.00000000000000
      SNAPOFFS 0.00000000000000
      LENGTH 144.00200000000001
      LOOP 0
      ALLTAKES 0
      SEL 0
      FADEIN 1 0.000000 0.000000 1 0
      FADEOUT 1 0.000000 0.000000 1 0
      MUTE 0
      IGUID {DDBDA5C6-82BE-44EA-9FB1-CA4D03D3DFDC}
      IID 5
      NAME "HARM1"
      VOLPAN 1.000000 0.000000 1.000000 -1.000000
      SOFFS 0.00000000000000 0.00000000000000
      PLAYRATE 1.00000000000000 1 0.00000000000000 -1
      CHANMODE 0
      GUID {7E07BA14-E5F7-43F4-A171-D2F6596F8367}
      <SOURCE MIDI
        HASDATA 1 480 QN
        POOLEDEVTS {67A2E28E-C916-451E-8A06-8B31017B10E3}
        <X 0 0
          /wNIQVJNMQ==
        >
        E 20640 90 69 60
        <X 240 0
          /wVZb3Uj
        >
        E 0 90 3e 60
        E 150 80 3e 00
        <X 90 0
          /wVjb21lIw==
        >
        E 0 90 43 60
        E 180 80 43 00
        <X 60 0
          /wVhLSM=
        >
        E 0 90 43 60
        E 150 80 43 00
        <X 90 0
          /wVyb3VuZCM=
        >
        E 0 90 43 60
        E 180 80 43 00
        <X 60 0
          /wVhbmQj
        >
        E 0 90 43 60
        E 150 80 43 00
        <X 90 0
          /wVzYXkj
        >
        E 0 90 43 60
        E 180 80 43 00
        <X 60 0
          /wVoZWwtIw==
        >
        E 0 90 43 60
        E 180 80 43 00
        <X 60 0
          /wVsbyM=
        >
        E 0 90 43 60
        E 180 80 43 00
        E 30 80 69 00
        E 0 90 69 60
        <X 30 0
          /wVBbmQj
        >
        E 0 90 43 60
        E 180 80 43 00
        <X 60 0
          /wVJIw==
        >
        E 0 90 45 60
        E 180 80 45 00
        <X 60 0
          /wVkb24ndCM=
        >
        E 0 90 43 60
        E 150 80 43 00
        <X 90 0
          /wVrbm93Iw==
        >
        E 0 90 45 60
        E 390 80 45 00
        <X 90 0
          /wV3aGF0Iw==
        >
        E 0 90 43 60
        E 180 80 43 00
        <X 60 0
          /wV0byM=
        >
        E 0 90 43 60
        E 150 80 43 00
        <X 90 0
          /wVkbyM=
        >
        E 0 90 43 60
        E 180 80 43 00
        E 30 80 69 00
        E 0 90 69 60
        <X 30 0
          /wVZb3Uj
        >
        E 0 90 43 60
        E 180 80 43 00
        <X 60 0
          /wVsb29rIw==
        >
        E 0 90 43 60
        E 180 80 43 00
        <X 60 0
          /wVhdCM=
        >
        E 0 90 43 60
        E 150 80 43 00
        <X 90 0
          /wVtZSM=
        >
        E 0 90 43 60
        E 120 80 43 00
        <X 120 0
          /wVhbmQj
        >
        E 0 90 43 60
        E 90 80 43 00
        <X 150 0
          /wVzZWUj
        >
        E 0 90 43 60
        E 180 80 43 00
        <X 60 0
          /wVyaWdodCM=
        >
        E 0 90 43 60
        E 150 80 43 00
        <X 90 0
          /wV0aHJvdWdoIw==
        >
        E 0 90 43 60
        E 180 80 43 00
        E 30 80 69 00
        E 240 90 69 60
        E 0 90 74 60
        <X 30 0
          /wVXaG8j
        >
        E 0 90 45 60
        E 180 80 45 00
        <X 60 0
          /wV0aGUj
        >
        E 0 90 45 60
        E 180 80 45 00
        <X 60 0
          /wVoZWxsIw==
        >
        E 0 90 45 60
        E 330 80 45 00
        <X 150 0
          /wVhcmUj
        >
        E 0 90 45 60
        E 180 80 45 00
        <X 30 0
          /wV5b3U/Iw==
        >
        E 0 90 45 60
        E 330 80 45 00
        E 60 80 69 00
        E 0 80 74 00
        E 330 90 69 60
        <X 30 0
          /wVCYS0j
        >
        E 0 90 45 60
        E 180 80 45 00
        <X 60 0
          /wVieSM=
        >
        E 0 90 45 60
        E 150 80 45 00
        <X 90 0
          /wViYS0j
        >
        E 0 90 45 60
        E 150 80 45 00
        <X 90 0
          /wVieSM=
        >
        E 0 90 43 60
        E 150 80 43 00
        <X 90 0
          /wVJIw==
        >
        E 0 90 45 60
        E 180 80 45 00
        <X 60 0
          /wVkb24ndCM=
        >
        E 0 90 45 60
        E 180 80 45 00
        <X 60 0
          /wVrbm93Iw==
        >
        E 0 90 45 60
        E 180 80 45 00
        E 30 90 01 60
        <X 30 0
          /wVidXQj
        >
        E 0 80 01 00
        E 0 90 45 60
        E 120 80 45 00
        <X 120 0
          /wVJIw==
        >
        E 0 90 45 60
        E 630 80 45 00
        <X 90 0
          /wV3YW50Iw==
        >
        E 0 90 45 60
        E 390 80 45 00
        <X 90 0
          /wV5b3Uj
        >
        E 0 90 43 60
        E 420 80 43 00
        E 30 80 69 00
        E 240 90 69 60
        <X 30 0
          /wVCYS0j
        >
        E 0 90 45 60
        E 180 80 45 00
        <X 60 0
          /wVieSM=
        >
        E 0 90 45 60
        E 150 80 45 00
        <X 90 0
          /wViYS0j
        >
        E 0 90 45 60
        E 150 80 45 00
        <X 90 0
          /wVieSM=
        >
        E 0 90 43 60
        E 150 80 43 00
        <X 90 0
          /wVJIw==
        >
        E 0 90 45 60
        E 180 80 45 00
        <X 60 0
          /wVkb24ndCM=
        >
        E 0 90 45 60
        E 180 80 45 00
        <X 60 0
          /wVrbm93LCM=
        >
        E 0 90 45 60
        E 180 80 45 00
        E 30 90 01 60
        <X 30 0
          /wVidXQj
        >
        E 0 80 01 00
        E 0 90 45 60
        E 120 80 45 00
        <X 120 0
          /wVJIw==
        >
        E 0 90 45 60
        E 630 80 45 00
        <X 90 0
          /wV3YW50Iw==
        >
        E 0 90 45 60
        E 390 80 45 00
        <X 90 0
          /wV5b3Uj
        >
        E 0 90 43 60
        E 420 80 43 00
        E 30 80 69 00
        E 240 90 69 60
        <X 30 0
          /wVTZWUj
        >
        E 0 90 45 60
        E 120 80 45 00
        <X 120 0
          /wVpdD8j
        >
        E 0 90 43 60
        E 300 80 43 00
        <X 1380 0
          /wVOZWVkIw==
        >
        E 0 90 45 60
        E 120 80 45 00
        <X 120 0
          /wVpdD8j
        >
        E 0 90 45 60
        E 390 80 45 00
        <X 1290 0
          /wVEcmVhbSM=
        >
        E 0 90 47 60
        E 270 80 47 00
        <X 90 0
          /wVpdD8j
        >
        E 0 90 47 60
        E 420 80 47 00
        E 180 80 69 00
        E 720 90 69 60
        E 0 90 74 60
        <X 240 0
          /wVEbyM=
        >
        E 0 90 48 60
        E 360 80 48 00
        <X 120 0
          /wV5b3Uj
        >
        E 0 90 48 60
        E 150 80 48 00
        <X 90 0
          /wV3YW50Iw==
        >
        E 0 90 48 60
        E 360 80 48 00
        <X 120 0
          /wVpdD8j
        >
        E 0 90 48 60
        E 480 80 48 00
        E 30 80 69 00
        E 0 80 74 00
        E 180 90 69 60
        <X 30 0
          /wVDYWxsIw==
        >
        E 0 90 48 60
        E 180 80 48 00
        <X 60 0
          /wVtZSM=
        >
        E 0 90 48 60
        E 150 80 48 00
        <X 90 0
          /wVhbmQj
        >
        E 0 90 48 60
        E 150 80 48 00
        <X 90 0
          /wV0aGVuIw==
        >
        E 0 90 45 60
        E 180 80 45 00
        <X 60 0
          /wVtZWV0Iw==
        >
        E 0 90 45 60
        E 300 80 45 00
        <X 180 0
          /wVtZSM=
        >
        E 0 90 45 60
        E 480 80 45 00
        E 480 80 69 00
        E 960 90 69 60
        <X 480 0
          /wVDYWxsIw==
        >
        E 0 90 48 60
        E 180 80 48 00
        <X 60 0
          /wVtZSM=
        >
        E 0 90 48 60
        E 150 80 48 00
        <X 90 0
          /wVhbmQj
        >
        E 0 90 48 60
        E 150 80 48 00
        <X 90 0
          /wV0aGVuIw==
        >
        E 0 90 48 60
        E 180 80 48 00
        <X 60 0
          /wVtZWV0Iw==
        >
        E 0 90 45 60
        E 300 80 45 00
        <X 180 0
          /wVtZSM=
        >
        E 0 90 45 60
        E 630 80 45 00
        E 330 80 69 00
        E 960 90 69 60
        <X 240 0
          /wVXaGVuLSM=
        >
        E 0 90 43 60
        E 150 80 43 00
        <X 90 0
          /wVldi0j
        >
        E 0 90 45 60
        E 180 80 45 00
        <X 60 0
          /wVlciM=
        >
        E 0 90 43 60
        E 180 80 43 00
        <X 60 0
          /wVJIw==
        >
        E 0 90 45 60
        E 360 80 45 00
        <X 120 0
          /wVsb29rIw==
        >
        E 0 90 43 60
        E 180 80 43 00
        <X 60 0
          /wVhdCM=
        >
        E 0 90 43 60
        E 150 80 43 00
        <X 90 0
          /wV5b3Uj
        >
        E 0 90 43 60
        E 240 80 43 00
        E 120 90 01 60
        E 30 80 01 00
        <X 90 0
          /wVJIw==
        >
        E 0 90 48 60
        E 150 80 48 00
        <X 90 0
          /wVkb24ndCM=
        >
        E 0 90 47 60
        E 150 80 47 00
        <X 90 0
          /wVrbm93Iw==
        >
        E 0 90 48 60
        E 390 80 48 00
        <X 90 0
          /wV3aGF0Iw==
        >
        E 0 90 48 60
        E 150 80 48 00
        <X 90 0
          /wV0byM=
        >
        E 0 90 48 60
        E 150 80 48 00
        <X 90 0
          /wVkbyM=
        >
        E 0 90 45 60
        E 150 80 45 00
        E 30 80 69 00
        E 30 90 69 60
        <X 30 0
          /wVXaGVuLSM=
        >
        E 0 90 43 60
        E 150 80 43 00
        <X 90 0
          /wVldi0j
        >
        E 0 90 45 60
        E 180 80 45 00
        <X 60 0
          /wVlciM=
        >
        E 0 90 43 60
        E 180 80 43 00
        <X 60 0
          /wV5b3Uj
        >
        E 0 90 45 60
        E 180 80 45 00
        <X 120 0
          /wV0YWxrIw==
        >
        E 0 90 48 60
        E 330 80 48 00
        <X 90 0
          /wV0byM=
        >
        E 0 90 43 60
        E 150 80 43 00
        <X 90 0
          /wVtZSM=
        >
        E 0 90 43 60
        E 240 80 43 00
        E 120 90 01 60
        E 30 80 01 00
        <X 90 0
          /wVJIw==
        >
        E 0 90 48 60
        E 150 80 48 00
        <X 90 0
          /wVkb24ndCM=
        >
        E 0 90 47 60
        E 150 80 47 00
        <X 90 0
          /wVrbm93Iw==
        >
        E 0 90 48 60
        E 390 80 48 00
        <X 90 0
          /wV3aGF0Iw==
        >
        E 0 90 48 60
        E 150 80 48 00
        <X 90 0
          /wVpcyM=
        >
        E 0 90 48 60
        E 150 80 48 00
        <X 90 0
          /wV0cnVlIw==
        >
        E 0 90 45 60
        E 150 80 45 00
        E 30 80 69 00
        E 270 90 69 60
        E 0 90 74 60
        <X 30 0
          /wVUZWxsIw==
        >
        E 0 90 48 60
        E 150 80 48 00
        <X 90 0
          /wVtZSM=
        >
        E 0 90 48 60
        E 150 80 48 00
        <X 90 0
          /wV3aGF0Iw==
        >
        E 0 90 48 60
        E 360 80 48 00
        <X 120 0
          /wV0byM=
        >
        E 0 90 43 60
        E 150 80 43 00
        <X 90 0
          /wViZS0j
        >
        E 0 90 43 60
        E 150 80 43 00
        <X 90 0
          /wVsaWV2ZSM=
        >
        E 0 90 43 60
        E 630 80 43 00
        <X 1770 0
          /wV0ZWxsIw==
        >
        E 0 90 48 60
        E 150 80 48 00
        <X 90 0
          /wVtZSM=
        >
        E 0 90 48 60
        E 150 80 48 00
        <X 90 0
          /wV3aGF0Iw==
        >
        E 0 90 48 60
        E 360 80 48 00
        <X 120 0
          /wV0byM=
        >
        E 0 90 43 60
        E 150 80 43 00
        <X 90 0
          /wViZS0j
        >
        E 0 90 43 60
        E 150 80 43 00
        <X 90 0
          /wVsaWV2ZSM=
        >
        E 0 90 43 60
        E 300 80 43 00
        E 180 80 69 00
        E 0 80 74 00
        E 2640 90 69 60
        <X 1680 0
          /wVXaGF0PyM=
        >
        E 0 90 43 60
        E 450 80 43 00
        E 1470 80 69 00
        E 240 90 69 60
        E 0 90 74 60
        <X 3360 0
          /wVBLSM=
        >
        E 0 90 43 60
        E 150 80 43 00
        <X 90 0
          /wVoYW0j
        >
        E 0 90 43 60
        E 300 80 43 00
        E 120 80 69 00
        E 0 80 74 00
        E 0 90 69 60
        E 3180 80 69 00
        E 0 90 69 60
        E 5070 80 69 00
        E 0 90 69 60
        E 0 90 74 60
        <X 210 0
          /wVCdXQj
        >
        E 0 90 43 60
        E 90 80 43 00
        <X 30 0
          /wV5b3Uj
        >
        E 0 90 43 60
        E 210 80 43 00
        <X 60 0
          /wVjYW4j
        >
        E 0 90 43 60
        E 180 80 43 00
        <X 90 0
          /wVrZWVwIw==
        >
        E 0 90 43 60
        E 210 80 43 00
        <X 60 0
          /wVpdCM=
        >
        E 0 90 43 60
        E 210 80 43 00
        E 60 80 69 00
        E 0 80 74 00
        E 480 90 69 60
        <X 2160 0
          /wVEb24ndCM=
        >
        E 0 90 43 60
        E 180 80 43 00
        <X 60 0
          /wV0aGluayM=
        >
        E 0 90 43 60
        E 150 80 43 00
        <X 90 0
          /wV0b28j
        >
        E 0 90 43 60
        E 120 80 43 00
        <X 30 0
          /wVtdWNoIw==
        >
        E 0 90 43 60
        E 120 80 43 00
        E 450 80 69 00
        E 720 90 69 60
        <X 1920 0
          /wVZb3UndmUj
        >
        E 0 90 43 60
        E 150 80 43 00
        <X 90 0
          /wVnb3Qj
        >
        E 0 90 43 60
        E 180 80 43 00
        <X 60 0
          /wVteSM=
        >
        E 0 90 43 60
        E 360 80 43 00
        <X 120 0
          /wVudW0tIw==
        >
        E 0 90 43 60
        E 210 80 43 00
        <X 90 0
          /wViZXIj
        >
        E 0 90 43 60
        E 300 80 43 00
        E 120 80 69 00
        E 480 90 69 60
        E 1920 80 69 00
        E 1440 90 69 60
        <X 240 0
          /wVXaGVuLSM=
        >
        E 0 90 43 60
        E 150 80 43 00
        <X 90 0
          /wVldi0j
        >
        E 0 90 45 60
        E 180 80 45 00
        <X 60 0
          /wVlciM=
        >
        E 0 90 43 60
        E 180 80 43 00
        <X 60 0
          /wVJIw==
        >
        E 0 90 45 60
        E 360 80 45 00
        <X 120 0
          /wVsb29rIw==
        >
        E 0 90 43 60
        E 180 80 43 00
        <X 60 0
          /wVhdCM=
        >
        E 0 90 43 60
        E 150 80 43 00
        <X 90 0
          /wV5b3Uj
        >
        E 0 90 43 60
        E 240 80 43 00
        E 120 90 01 60
        E 30 80 01 00
        <X 90 0
          /wVJIw==
        >
        E 0 90 48 60
        E 150 80 48 00
        <X 90 0
          /wVkb24ndCM=
        >
        E 0 90 47 60
        E 150 80 47 00
        <X 90 0
          /wVrbm93Iw==
        >
        E 0 90 48 60
        E 390 80 48 00
        <X 90 0
          /wV3aGF0Iw==
        >
        E 0 90 48 60
        E 150 80 48 00
        <X 90 0
          /wV0byM=
        >
        E 0 90 48 60
        E 150 80 48 00
        <X 90 0
          /wVkbyM=
        >
        E 0 90 45 60
        E 150 80 45 00
        E 30 80 69 00
        E 30 90 69 60
        <X 30 0
          /wVXaGVuLSM=
        >
        E 0 90 43 60
        E 150 80 43 00
        <X 90 0
          /wVldi0j
        >
        E 0 90 45 60
        E 180 80 45 00
        <X 60 0
          /wVlciM=
        >
        E 0 90 43 60
        E 180 80 43 00
        <X 60 0
          /wV5b3Uj
        >
        E 0 90 45 60
        E 180 80 45 00
        <X 120 0
          /wV0YWxrIw==
        >
        E 0 90 48 60
        E 330 80 48 00
        <X 90 0
          /wV0byM=
        >
        E 0 90 43 60
        E 150 80 43 00
        <X 90 0
          /wVtZSM=
        >
        E 0 90 43 60
        E 240 80 43 00
        E 120 90 01 60
        E 30 80 01 00
        <X 90 0
          /wVJIw==
        >
        E 0 90 48 60
        E 150 80 48 00
        <X 90 0
          /wVkb24ndCM=
        >
        E 0 90 47 60
        E 150 80 47 00
        <X 90 0
          /wVrbm93Iw==
        >
        E 0 90 48 60
        E 390 80 48 00
        <X 90 0
          /wV3aGF0Iw==
        >
        E 0 90 48 60
        E 150 80 48 00
        <X 90 0
          /wVpcyM=
        >
        E 0 90 48 60
        E 150 80 48 00
        <X 90 0
          /wV0cnVlIw==
        >
        E 0 90 45 60
        E 150 80 45 00
        E 30 80 69 00
        E 270 90 69 60
        E 0 90 74 60
        <X 30 0
          /wVUZWxsIw==
        >
        E 0 90 48 60
        E 150 80 48 00
        <X 90 0
          /wVtZSM=
        >
        E 0 90 48 60
        E 150 80 48 00
        <X 90 0
          /wV3aGF0Iw==
        >
        E 0 90 48 60
        E 360 80 48 00
        <X 120 0
          /wV0byM=
        >
        E 0 90 43 60
        E 150 80 43 00
        <X 90 0
          /wViZS0j
        >
        E 0 90 43 60
        E 150 80 43 00
        <X 90 0
          /wVsaWV2ZSM=
        >
        E 0 90 43 60
        E 630 80 43 00
        <X 1770 0
          /wV0ZWxsIw==
        >
        E 0 90 48 60
        E 150 80 48 00
        <X 90 0
          /wVtZSM=
        >
        E 0 90 48 60
        E 150 80 48 00
        <X 90 0
          /wV3aGF0Iw==
        >
        E 0 90 48 60
        E 360 80 48 00
        <X 120 0
          /wV0byM=
        >
        E 0 90 43 60
        E 150 80 43 00
        <X 90 0
          /wViZS0j
        >
        E 0 90 43 60
        E 150 80 43 00
        <X 90 0
          /wVsaWV2ZSM=
        >
        E 0 90 43 60
        E 300 80 43 00
        E 180 80 69 00
        E 0 80 74 00
        E 2400 90 69 60
        <X 2160 0
          /wVZb3VyIw==
        >
        E 0 90 47 60
        E 180 80 47 00
        <X 60 0
          /wVzaG9lcyM=
        >
        E 0 90 47 60
        E 390 80 47 00
        E 90 80 69 00
        E 960 90 69 60
        <X 2160 0
          /wVZb3VyIw==
        >
        E 0 90 47 60
        E 180 80 47 00
        <X 60 0
          /wVwYW50cyM=
        >
        E 0 90 47 60
        E 300 80 47 00
        E 180 80 69 00
        E 960 90 69 60
        E 0 90 74 60
        <X 2160 0
          /wVNeSM=
        >
        E 0 90 47 60
        E 179 80 47 00
        <X 60 0
          /wVoZWFydCM=
        >
        E 0 90 47 60
        E 301 80 47 00
        E 180 80 69 00
        E 0 80 74 00
        E 960 90 69 60
        <X 2160 0
          /wVUaGUj
        >
        E 0 90 47 60
        E 179 80 47 00
        <X 60 0
          /wViZWQj
        >
        E 0 90 47 60
        E 301 80 47 00
        E 180 80 69 00
        E 960 90 69 60
        <X 2160 0
          /wVUaGUj
        >
        E 0 90 47 60
        E 179 80 47 00
        <X 60 0
          /wV5YXJkIw==
        >
        E 0 90 47 60
        E 331 80 47 00
        E 150 80 69 00
        E 960 90 69 60
        E 0 90 74 60
        <X 2160 0
          /wVTbyM=
        >
        E 0 90 47 60
        E 210 80 47 00
        <X 180 0
          /wVzb2Z0Iw==
        >
        E 0 90 47 60
        E 360 80 47 00
        E 450 80 69 00
        E 0 80 74 00
        E 480 90 69 60
        <X 2160 0
          /wVXZSM=
        >
        E 0 90 47 60
        E 179 80 47 00
        <X 60 0
          /wVwbGF5Iw==
        >
        E 0 90 47 60
        E 331 80 47 00
        E 150 80 69 00
        E 960 90 69 60
        E 0 90 74 60
        <X 1200 0
          /wVBbmQj
        >
        E 0 90 47 60
        E 179 80 47 00
        <X 60 0
          /wVvdi0j
        >
        E 0 90 47 60
        E 211 80 47 00
        <X 30 0
          /wVlciM=
        >
        E 0 90 47 60
        E 150 80 47 00
        <X 330 0
          /wVhLSM=
        >
        E 0 90 47 60
        E 150 80 47 00
        <X 90 0
          /wVnYWluIw==
        >
        E 0 90 47 60
        E 390 80 47 00
        E 30 80 69 00
        E 0 80 74 00
        E 60 90 69 60
        <X 240 0
          /wVXaGVuLSM=
        >
        E 0 90 43 60
        E 150 80 43 00
        <X 90 0
          /wVldi0j
        >
        E 0 90 45 60
        E 180 80 45 00
        <X 60 0
          /wVlciM=
        >
        E 0 90 43 60
        E 180 80 43 00
        <X 60 0
          /wVJIw==
        >
        E 0 90 45 60
        E 360 80 45 00
        <X 120 0
          /wVsb29rIw==
        >
        E 0 90 43 60
        E 180 80 43 00
        <X 60 0
          /wVhdCM=
        >
        E 0 90 43 60
        E 150 80 43 00
        <X 90 0
          /wV5b3Uj
        >
        E 0 90 43 60
        E 240 80 43 00
        E 120 90 01 60
        E 30 80 01 00
        <X 90 0
          /wVJIw==
        >
        E 0 90 48 60
        E 150 80 48 00
        <X 90 0
          /wVkb24ndCM=
        >
        E 0 90 47 60
        E 150 80 47 00
        <X 90 0
          /wVrbm93Iw==
        >
        E 0 90 48 60
        E 390 80 48 00
        <X 90 0
          /wV3aGF0Iw==
        >
        E 0 90 48 60
        E 150 80 48 00
        <X 90 0
          /wV0byM=
        >
        E 0 90 48 60
        E 150 80 48 00
        <X 90 0
          /wVkbyM=
        >
        E 0 90 45 60
        E 150 80 45 00
        E 30 80 69 00
        E 30 90 69 60
        <X 30 0
          /wVXaGVuLSM=
        >
        E 0 90 43 60
        E 150 80 43 00
        <X 90 0
          /wVldi0j
        >
        E 0 90 45 60
        E 180 80 45 00
        <X 60 0
          /wVlciM=
        >
        E 0 90 43 60
        E 180 80 43 00
        <X 60 0
          /wV5b3Uj
        >
        E 0 90 45 60
        E 180 80 45 00
        <X 120 0
          /wV0YWxrIw==
        >
        E 0 90 48 60
        E 330 80 48 00
        <X 90 0
          /wV0byM=
        >
        E 0 90 43 60
        E 150 80 43 00
        <X 90 0
          /wVtZSM=
        >
        E 0 90 43 60
        E 240 80 43 00
        E 120 90 01 60
        E 30 80 01 00
        <X 90 0
          /wVJIw==
        >
        E 0 90 48 60
        E 150 80 48 00
        <X 90 0
          /wVkb24ndCM=
        >
        E 0 90 47 60
        E 150 80 47 00
        <X 90 0
          /wVrbm93Iw==
        >
        E 0 90 48 60
        E 390 80 48 00
        <X 90 0
          /wV3aGF0Iw==
        >
        E 0 90 48 60
        E 150 80 48 00
        <X 90 0
          /wVpcyM=
        >
        E 0 90 48 60
        E 150 80 48 00
        <X 90 0
          /wV0cnVlIw==
        >
        E 0 90 45 60
        E 150 80 45 00
        E 30 80 69 00
        E 270 90 69 60
        <X 30 0
          /wVUZWxsIw==
        >
        E 0 90 48 60
        E 150 80 48 00
        <X 90 0
          /wVtZSM=
        >
        E 0 90 48 60
        E 150 80 48 00
        <X 90 0
          /wV3aGF0Iw==
        >
        E 0 90 48 60
        E 360 80 48 00
        <X 120 0
          /wV0byM=
        >
        E 0 90 48 60
        E 150 80 48 00
        <X 90 0
          /wViZS0j
        >
        E 0 90 48 60
        E 150 80 48 00
        <X 90 0
          /wVsaWV2ZSM=
        >
        E 0 90 48 60
        E 420 80 48 00
        E 30 90 01 60
        <X 30 0
          /wV0ZWxsIw==
        >
        E 0 80 01 00
        E 0 90 48 60
        E 150 80 48 00
        <X 90 0
          /wVtZSM=
        >
        E 0 90 48 60
        E 150 80 48 00
        <X 90 0
          /wV3aGF0Iw==
        >
        E 0 90 48 60
        E 360 80 48 00
        <X 120 0
          /wV0byM=
        >
        E 0 90 48 60
        E 150 80 48 00
        <X 90 0
          /wViZS0j
        >
        E 0 90 48 60
        E 150 80 48 00
        <X 90 0
          /wVsaWV2ZSM=
        >
        E 0 90 48 60
        E 419 80 48 00
        E 30 80 69 00
        E 1 90 69 60
        <X 30 0
          /wVUZWxsIw==
        >
        E 0 90 48 60
        E 150 80 48 00
        <X 90 0
          /wVtZSM=
        >
        E 0 90 48 60
        E 150 80 48 00
        <X 90 0
          /wV3aGF0Iw==
        >
        E 0 90 48 60
        E 360 80 48 00
        <X 120 0
          /wV0byM=
        >
        E 0 90 48 60
        E 150 80 48 00
        <X 90 0
          /wViZS0j
        >
        E 0 90 48 60
        E 150 80 48 00
        <X 90 0
          /wVsaWV2ZSM=
        >
        E 0 90 48 60
        E 360 80 48 00
        E 60 90 01 60
        E 30 80 01 00
        <X 30 0
          /wV0ZWxsIw==
        >
        E 0 90 48 60
        E 150 80 48 00
        <X 90 0
          /wVtZSM=
        >
        E 0 90 48 60
        E 150 80 48 00
        <X 90 0
          /wV3aGF0Iw==
        >
        E 0 90 48 60
        E 360 80 48 00
        <X 120 0
          /wV0byM=
        >
        E 0 90 48 60
        E 150 80 48 00
        <X 90 0
          /wViZS0j
        >
        E 0 90 48 60
        E 150 80 48 00
        <X 90 0
          /wVsaWV2ZSEj
        >
        E 0 90 48 60
        E 450 80 48 00
        E 29 80 69 00
        E 1921 b0 7b 00
        GUID {27F43122-1A37-4730-AB7C-5DD77EC7FFC7}
        IGNTEMPO 0 120.00000000 4 4
        SRCCOLOR 7
        VELLANE 131 128 60
        COLORMAP "C:\Program Files\REAPER (x64)\Data\color_maps\rockband_guitarbass.png"
        CFGEDITVIEW -1170.534793 69.848485 0 12 0 0 0
        CFGEDIT 1 1 0 1 1 0 1 1 1 1 1 0.25000000 -8 -8 1544 872 0 2 1 1 0.00000000 0 1 0 0 0.500000 0 0 1.000000 64
        KEYSNAP 0 6 "102030050700" 0 "Pentatonic"
        EVTFILTER 0 -1 -1 -1 -1 0 1 0 0 -1.00000000 -1.00000000
      >
    >
  >
  <TRACK '{80DE9DA6-E7DB-4BD2-B5F6-FB63B2F57B85}'
    NAME "HARM2"
    PEAKCOL 16576
    BEAT -1
    AUTOMODE 0
    VOLPAN 1.00000000000000 0.00000000000000 -1.00000000000000 -1.00000000000000 1.00000000000000
    MUTESOLO 0 0 0
    IPHASE 0
    ISBUS 2 -1
    BUSCOMP 0 0
    SHOWINMIX 1 0.666700 0.500000 1 0.500000 -1 -1 -1
    FREEMODE 0
    SEL 0
    REC 0 0 0 0 0 0 0
    VU 2
    TRACKHEIGHT 0 0
    INQ 0 0 0 0.5000000000 100 0 0 100
    NCHAN 2
    FX 0
    TRACKID {80DE9DA6-E7DB-4BD2-B5F6-FB63B2F57B85}
    PERF 0
    MIDIOUT -1
    <MIDINOTENAMES
      0 105 "Phrase Marker"
      0 104 "----"
      0 84 "C6 (Unused Highest Note)"
      0 83 "B5"
      0 82 "A#4"
      0 81 "A4"
      0 80 "G#4"
      0 79 "G4"
      0 78 "F#4"
      0 77 "F4"
      0 76 "E4"
      0 75 "D#4"
      0 74 "D4"
      0 73 "C#4"
      0 72 "C4"
      0 71 "B3"
      0 70 "A#3"
      0 69 "A3"
      0 68 "G#3"
      0 67 "G3"
      0 66 "F#3"
      0 65 "F3"
      0 64 "E3"
      0 63 "D#3"
      0 62 "D3"
      0 61 "C#3"
      0 60 "C3"
      0 59 "B2"
      0 58 "A#2"
      0 57 "A2"
      0 56 "G#2"
      0 55 "G2"
      0 54 "F#2"
      0 53 "F2"
      0 52 "E2"
      0 51 "D#2"
      0 50 "D2"
      0 49 "C#2"
      0 48 "C2"
      0 47 "B1"
      0 46 "A#1"
      0 45 "A1"
      0 44 "G#1"
      0 43 "G1"
      0 42 "F#1"
      0 41 "F1"
      0 40 "E1"
      0 39 "D#1"
      0 38 "D1"
      0 37 "C#1"
      0 36 "Lowest Note C1"
    >
    MAINSEND 1 0
    <FXCHAIN
      WNDRECT 0 43 655 467
      SHOW 0
      LASTSEL 1
      DOCKED 0
      BYPASS 0 0
      <JS "MIDI/midi_note_filter" ""
        36.000000 84.000000 - - - - - - - - - - - - - - - - - - - - - - - - - - - - - - - - - - - - - - - - - - - - - - - - - - - - - - - - - - - - - - 
      >
      FLOATPOS 0 0 0 0
      FXID {F35252AD-BF37-4D4D-AFF8-550D5A325483}
      WAK 0
      BYPASS 0 0
      <VST "VSTi: ReaSynth (Cockos)" "reasynth.dll" 0 ""
        eXNlcu9e7f4AAAAAAgAAAAEAAAAAAAAAAgAAAAAAAAA4AAAAAAAAAA==
        AAAQAO++rd4N8K3eppvEOxe30ToAAIA/AAAAAAAAAADMm4A+6WeIPQ==
        AAAAAAAAAD8AAIA/AACAPwAAAD8AABAAAAA=
      >
      FLOATPOS 0 0 0 0
      FXID {2635D95E-F8DE-4D59-9E58-92F7C4DAEBD3}
      WAK 0
    >
    <ITEM
      POSITION 0.00000000000000
      SNAPOFFS 0.00000000000000
      LENGTH 144.00200000000001
      LOOP 0
      ALLTAKES 0
      SEL 0
      FADEIN 1 0.000000 0.000000 1 0
      FADEOUT 1 0.000000 0.000000 1 0
      MUTE 0
      IGUID {0E200C6D-176D-41B1-8305-132C939E2624}
      IID 6
      NAME "HARM2"
      VOLPAN 1.000000 0.000000 1.000000 -1.000000
      SOFFS 0.00000000000000 0.00000000000000
      PLAYRATE 1.00000000000000 1 0.00000000000000 -1
      CHANMODE 0
      GUID {1BB9C88C-6F59-4CAF-A9F3-764FF6946190}
      <SOURCE MIDI
        HASDATA 1 480 QN
        POOLEDEVTS {2DD5D1B7-E2CE-44C0-B9F0-7317EEE6E5BE}
        <X 0 0
          /wNIQVJNMg==
        >
        E 67680 90 69 60
        <X 480 0
          /wVMaXMtIw==
        >
        E 0 90 40 60
        E 150 80 40 00
        <X 90 0
          /wV0ZW4j
        >
        E 0 90 43 60
        E 240 80 43 00
        <X 240 0
          /wViYS0j
        >
        E 0 90 43 60
        E 270 80 43 00
        <X 60 0
          /wVieSM=
        >
        E 0 90 40 60
        E 180 80 40 00
        E 30 80 69 00
        E 180 90 69 60
        <X 270 0
          /wVJIw==
        >
        E 0 90 40 60
        E 180 80 40 00
        <X 30 0
          /wVnb3Qj
        >
        E 0 90 43 60
        E 180 80 43 00
        <X 60 0
          /wVzb21lLSM=
        >
        E 0 90 45 60
        E 210 80 45 00
        <X 30 0
          /wV0aGluZyM=
        >
        E 0 90 47 60
        E 180 80 47 00
        <X 60 0
          /wV0byM=
        >
        E 0 90 45 60
        E 180 80 45 00
        <X 60 0
          /wVzYXkj
        >
        E 0 90 40 60
        E 300 80 40 00
        E 30 80 69 00
        E 150 90 69 60
        <X 480 0
          /wVMaXMt
        >
        E 0 90 40 60
        E 150 80 40 00
        <X 90 0
          /wV0ZW4=
        >
        E 0 90 43 60
        E 150 80 43 00
        <X 330 0
          /wVjbG9zZS0=
        >
        E 0 90 4a 60
        E 390 80 4a 00
        <X 90 0
          /wVseQ==
        >
        E 0 90 48 60
        E 210 80 48 00
        <X 30 0
          /wVJ
        >
        E 0 90 47 60
        E 150 80 47 00
        <X 90 0
          /wV3b24ndA==
        >
        E 0 90 43 60
        E 120 80 43 00
        <X 120 0
          /wVzYXk=
        >
        E 0 90 4a 60
        E 180 80 4a 00
        <X 60 0
          /wVpdA==
        >
        E 0 90 48 60
        E 180 80 48 00
        <X 60 0
          /wVhLQ==
        >
        E 0 90 47 60
        E 150 80 47 00
        <X 90 0
          /wVnYWlu
        >
        E 0 90 47 60
        E 450 80 47 00
        E 30 80 69 00
        E 240 90 69 60
        <X 240 0
          /wVJ
        >
        E 0 90 40 60
        E 150 80 40 00
        <X 90 0
          /wVnb3Q=
        >
        E 0 90 43 60
        E 180 80 43 00
        <X 60 0
          /wV5b3Vy
        >
        E 0 90 43 60
        E 390 80 43 00
        <X 90 0
          /wVzaGlydCM=
        >
        E 0 90 43 60
        E 390 80 43 00
        <X 330 0
          /wVhbmQj
        >
        E 0 90 43 60
        E 180 80 43 00
        <X 60 0
          /wVJJ20j
        >
        E 0 90 43 60
        E 90 80 43 00
        <X 150 0
          /wVzbyM=
        >
        E 0 90 47 60
        E 150 80 47 00
        <X 90 0
          /wVub3Q=
        >
        E 0 90 43 60
        E 240 80 43 00
        <X 240 0
          /wVzdXJl
        >
        E 0 90 40 60
        E 300 80 40 00
        E 30 80 69 00
        E 360 90 69 60
        <X 30 0
          /wVBcmU=
        >
        E 0 90 40 60
        E 180 80 40 00
        <X 60 0
          /wV5b3U=
        >
        E 0 90 40 60
        E 150 80 40 00
        <X 90 0
          /wVjb20t
        >
        E 0 90 43 60
        E 150 80 43 00
        <X 90 0
          /wVpbmc=
        >
        E 0 90 45 60
        E 210 80 45 00
        <X 270 0
          /wViYWNr
        >
        E 0 90 4a 60
        E 270 80 4a 00
        <X 210 0
          /wVmb3I=
        >
        E 0 90 48 60
        E 120 80 48 00
        <X 120 0
          /wVpdA==
        >
        E 0 90 47 60
        E 180 80 47 00
        <X 60 0
          /wVvcg==
        >
        E 0 90 45 60
        E 150 80 45 00
        <X 90 0
          /wVzaG91bGQ=
        >
        E 0 90 45 60
        E 210 80 45 00
        <X 30 0
          /wVp
        >
        E 0 90 45 60
        E 180 80 45 00
        <X 60 0
          /wVleC0=
        >
        E 0 90 45 60
        E 120 80 45 00
        <X 360 0
          /wVwZWN0
        >
        E 0 90 4a 60
        E 300 80 4a 00
        <X 180 0
          /wV0aGUj
        >
        E 0 90 48 60
        E 120 80 48 00
        <X 120 0
          /wV3b3JzdD8j
        >
        E 0 90 47 60
        E 720 80 47 00
        E 480 80 69 00
        E 1440 90 69 60
        <X 240 0
          /wVJJ20j
        >
        E 0 90 43 60
        E 180 80 43 00
        <X 60 0
          /wV0aGluay0j
        >
        E 0 90 43 60
        E 210 80 43 00
        <X 30 0
          /wVpbmcj
        >
        E 0 90 43 60
        E 150 80 43 00
        E 90 80 69 00
        E 2880 90 69 60
        <X 480 0
          /wVTaG91bGQj
        >
        E 0 90 43 60
        E 360 80 43 00
        <X 120 0
          /wVJIw==
        >
        E 0 90 43 60
        E 150 80 43 00
        <X 330 0
          /wVjYWxsPyM=
        >
        E 0 90 40 60
        E 540 80 40 00
        E 420 80 69 00
        E 1920 90 69 60
        <X 480 0
          /wVJJ20j
        >
        E 0 90 43 60
        E 210 80 43 00
        <X 270 0
          /wV0aGluay0j
        >
        E 0 90 43 60
        E 120 80 43 00
        <X 120 0
          /wVpbmcj
        >
        E 0 90 43 60
        E 330 80 43 00
        E 390 80 69 00
        E 17760 90 69 60
        <X 240 0
          /wVZb3VyIw==
        >
        E 0 90 47 60
        E 150 80 47 00
        <X 90 0
          /wVzaGlydCM=
        >
        E 0 90 47 60
        E 300 80 47 00
        E 180 80 69 00
        E 2880 90 69 60
        <X 240 0
          /wVZb3VyIw==
        >
        E 0 90 47 60
        E 150 80 47 00
        <X 90 0
          /wVza2lydCM=
        >
        E 0 90 47 60
        E 360 80 47 00
        E 120 80 69 00
        E 2880 90 69 60
        <X 240 0
          /wVNeSM=
        >
        E 0 90 47 60
        E 150 80 47 00
        <X 90 0
          /wVyZS0j
        >
        E 0 90 47 60
        E 180 80 47 00
        <X 60 0
          /wVjb3JkcyM=
        >
        E 0 90 47 60
        E 210 80 47 00
        E 30 80 69 00
        E 2880 90 69 60
        <X 240 0
          /wVUaGUj
        >
        E 0 90 47 60
        E 150 80 47 00
        <X 90 0
          /wVkb2dzIw==
        >
        E 0 90 47 60
        E 330 80 47 00
        E 150 80 69 00
        E 2880 90 69 60
        <X 240 0
          /wVUaGUj
        >
        E 0 90 47 60
        E 150 80 47 00
        <X 90 0
          /wVmb29kIw==
        >
        E 0 90 47 60
        E 480 80 47 00
        E 480 80 69 00
        E 2400 90 69 60
        <X 240 0
          /wVUaGUj
        >
        E 0 90 47 60
        E 150 80 47 00
        <X 90 0
          /wVzaGVldHMj
        >
        E 0 90 47 60
        E 390 80 47 00
        E 90 80 69 00
        E 2880 90 69 60
        <X 240 0
          /wVUaGUj
        >
        E 0 90 47 60
        E 150 80 47 00
        <X 90 0
          /wVnYW1lcyM=
        >
        E 0 90 47 60
        E 420 80 47 00
        E 60 80 69 00
        E 2880 90 69 60
        <X 240 0
          /wVBcmUj
        >
        E 0 90 47 60
        E 150 80 47 00
        <X 90 0
          /wVvdi0j
        >
        E 0 90 47 60
        E 240 80 47 00
        <X 60 0
          /wVlciM=
        >
        E 0 90 47 60
        E 210 80 47 00
        E 449 80 69 00
        E 19201 b0 7b 00
        GUID {0C9E6B86-5887-4F91-B192-02BFA89AB253}
        IGNTEMPO 0 120.00000000 4 4
        SRCCOLOR 8
        VELLANE 131 128 60
        COLORMAP "C:\Program Files\REAPER (x64)\Data\color_maps\rockband_guitarbass.png"
        CFGEDITVIEW -1170.534793 69.848485 0 12 0 0 0
        CFGEDIT 1 1 0 1 1 0 1 1 1 1 1 0.25000000 -8 -8 1544 872 0 2 1 1 0.00000000 0 1 0 0 0.500000 0 0 1.000000 64
        KEYSNAP 0 6 "102030050700" 0 "Pentatonic"
        EVTFILTER 0 -1 -1 -1 -1 0 1 0 0 -1.00000000 -1.00000000
      >
    >
  >
  <TRACK '{81224CBF-B947-46AC-9391-1BC2988EF68D}'
    NAME "PART REAL_BASS"
    PEAKCOL 16576
    BEAT -1
    AUTOMODE 0
    VOLPAN 1.00000000000000 0.00000000000000 -1.00000000000000 -1.00000000000000 1.00000000000000
    MUTESOLO 0 0 0
    IPHASE 0
    ISBUS 0 0
    BUSCOMP 0 0
    SHOWINMIX 1 0.666700 0.500000 1 0.500000 -1 -1 -1
    FREEMODE 0
    SEL 0
    REC 0 0 0 0 0 0 0
    VU 2
    TRACKHEIGHT 0 0
    INQ 0 0 0 0.5000000000 100 0 0 100
    NCHAN 2
    FX 0
    TRACKID {81224CBF-B947-46AC-9391-1BC2988EF68D}
    PERF 0
    MIDIOUT -1
    <MIDINOTENAMES
      0 127 "Trill Marker"
      0 126 "Tremolo Marker"
      0 125 "BRE"
      0 124 "BRE"
      0 123 "BRE"
      0 122 "BRE"
      0 121 "BRE"
      0 120 "BRE (use all 6)"
      0 119 "-----------"
      0 116 "OVERDRIVE"
      0 115 "Solo Marker"
      0 109 "-----------"
      0 108 "Fret Hand Position"
      0 107 "Force Chord Numbering"
      0 106 "Loose Strumming"
      0 105 "Strum Direction"
      0 104 "Arpeggio Marker"
      0 103 "Slide Marker"
      0 102 "Force HOPO"
      0 101 "EXPERT e String"
      0 100 "EXPERT B String"
      0 99 "EXPERT G String"
      0 98 "EXPERT D String"
      0 97 "EXPERT A String"
      0 96 "EXPERT E String"
      0 95 "-----------"
      0 82 "Loose Strumming"
      0 81 "Strum Direction"
      0 80 "Arpeggio Marker"
      0 79 "Slide Marker"
      0 78 "Force HOPO"
      0 77 "HARD e String"
      0 76 "HARD B String"
      0 75 "HARD G String"
      0 74 "HARD D String"
      0 73 "HARD A String"
      0 72 "HARD E String"
      0 71 "-----------"
      0 58 "Loose Strumming"
      0 56 "Arpeggio Marker"
      0 55 "Slide Marker"
      0 53 "MEDIUM e String"
      0 52 "MEDIUM B String"
      0 51 "MEDIUM G String"
      0 50 "MEDIUM D String"
      0 49 "MEDIUM A String"
      0 48 "MEDIUM E String"
      0 47 "-----------"
      0 32 "Arpeggio Marker"
      0 31 "Slide Marker"
      0 29 "EASY e String"
      0 28 "EASY B String"
      0 27 "EASY G String"
      0 26 "EASY D String"
      0 25 "EASY A String"
      0 24 "EASY E String"
      0 21 "-----------"
      0 18 "Flat/Sharp Swap"
      0 17 "Hide Chord Names"
      0 16 "Slash Chord"
      0 15 "D#"
      0 14 "D"
      0 13 "C#"
      0 12 "C"
      0 11 "B"
      0 10 "A#"
      0 9 "A"
      0 8 "G#"
      0 7 "G"
      0 6 "F#"
      0 5 "F"
      0 4 "E"
    >
    MAINSEND 1 0
    <FXCHAIN
      WNDRECT 0 43 655 467
      SHOW 0
      LASTSEL 2
      DOCKED 0
      BYPASS 0 0
      <JS "c3/progtr" ""
        0.000000 3.000000 0.000000 0.000000 0.000000 0.000000 0.000000 0.000000 0.000000 1.000000 - - - - - - - - - - - - - - - - - - - - - - - - - - - - - - - - - - - - - - - - - - - - - - - - - - - - - - 
      >
      FLOATPOS 0 0 0 0
      FXID {56FF40E7-4C5C-4728-85DD-7F4418A5E404}
      WAK 0
      BYPASS 0 0
      <JS "MIDI/midi_transpose" ""
        -12.000000 1.000000 0.000000 127.000000 - - - - - - - - - - - - - - - - - - - - - - - - - - - - - - - - - - - - - - - - - - - - - - - - - - - - - - - - - - - - 
      >
      FLOATPOS 0 0 0 0
      FXID {2F2DB20A-E004-4AD2-8F37-F7DC020D7A7B}
      WAK 0
      BYPASS 0 0
      <VST "VSTi: ReaSynth (Cockos)" "reasynth.dll" 0 ""
        eXNlcu9e7f4AAAAAAgAAAAEAAAAAAAAAAgAAAAAAAAA4AAAAAAAAAA==
        AAAQAO++rd4N8K3eppvEO+gJMjwAAAAAAAAAAAAAgD8AAIA/4jAEPA==
        AAAAAAAAAD+01hM+j8L1PQAAAD8AABAAAAA=
      >
      FLOATPOS 0 0 0 0
      FXID {F1BB95F3-3F46-4F7A-8227-9646DE2054A3}
      WAK 0
    >
    <ITEM
      POSITION 0.00000000000000
      SNAPOFFS 0.00000000000000
      LENGTH 144.00200000000001
      LOOP 0
      ALLTAKES 0
      SEL 0
      FADEIN 1 0.000000 0.000000 1 0
      FADEOUT 1 0.000000 0.000000 1 0
      MUTE 0
      IGUID {4A999E5A-38AF-4FFF-9B84-83473A2B688D}
      IID 7
      NAME "PART REAL_BASS"
      VOLPAN 1.000000 0.000000 1.000000 -1.000000
      SOFFS 0.00000000000000 0.00000000000000
      PLAYRATE 1.00000000000000 1 0.00000000000000 -1
      CHANMODE 0
      GUID {BF06A847-F026-4883-8F30-72ACA650EE39}
      <SOURCE MIDI
        HASDATA 1 480 QN
        POOLEDEVTS {F4C8D9C5-1EAC-41D2-8048-CD7FFAE165E6}
        <X 0 0
          /wNQQVJUIFJFQUxfQkFTUw==
        >
        <X 5760 0
          /wFbYmVnaW5fcGIgc29uZ190cmFpbmVyX3BiXzFd
        >
        E 0 90 1a 64
        E 0 90 32 64
        E 0 90 4a 64
        E 0 90 62 64
        E 0 90 6c 66
        E 120 80 1a 00
        E 0 80 32 00
        E 0 80 4a 00
        E 0 80 62 00
        E 0 80 6c 00
        E 120 90 32 64
        E 0 90 4a 64
        E 0 90 62 64
        E 120 80 32 00
        E 0 80 4a 00
        E 0 80 62 00
        E 120 90 1a 64
        E 0 90 32 64
        E 0 90 4a 64
        E 0 90 62 64
        E 120 80 1a 00
        E 0 80 32 00
        E 0 80 4a 00
        E 0 80 62 00
        E 120 90 32 64
        E 0 90 4a 64
        E 0 90 62 64
        E 120 80 32 00
        E 0 80 4a 00
        E 0 80 62 00
        E 120 90 1a 64
        E 0 90 32 64
        E 0 90 4a 64
        E 0 90 62 64
        E 120 80 1a 00
        E 0 80 32 00
        E 0 80 4a 00
        E 0 80 62 00
        E 120 90 49 67
        E 0 90 61 67
        E 120 80 49 00
        E 0 80 61 00
        E 120 90 31 67
        E 0 90 49 67
        E 0 90 61 67
        E 120 80 31 00
        E 0 80 49 00
        E 0 80 61 00
        E 120 90 49 67
        E 0 90 61 67
        E 120 80 49 00
        E 0 80 61 00
        <X 120 0
          /wFbcGJfbm9ybSBzb25nX3RyYWluZXJfcGJfMV0=
        >
        E 0 90 19 66
        E 0 90 31 66
        E 0 90 49 66
        E 0 90 61 66
        E 120 80 19 00
        E 0 80 31 00
        E 0 80 49 00
        E 0 80 61 00
        E 120 90 49 66
        E 0 90 61 66
        E 120 80 49 00
        E 0 80 61 00
        E 120 90 31 67
        E 0 90 49 67
        E 0 90 61 67
        E 120 80 31 00
        E 240 80 49 00
        E 0 80 61 00
        E 120 90 19 66
        E 0 90 31 66
        E 0 90 49 66
        E 0 90 61 66
        E 120 80 19 00
        E 0 80 31 00
        E 0 80 49 00
        E 0 80 61 00
        E 120 90 49 66
        E 0 90 61 66
        E 120 80 49 00
        E 0 80 61 00
        E 120 90 31 67
        E 0 90 49 67
        E 0 90 61 67
        E 120 80 31 00
        E 240 80 49 00
        E 0 80 61 00
        E 120 90 1a 64
        E 0 90 32 64
        E 0 90 4a 64
        E 0 90 62 64
        E 120 80 1a 00
        E 0 80 32 00
        E 0 80 4a 00
        E 0 80 62 00
        E 120 90 32 64
        E 0 90 4a 64
        E 0 90 62 64
        E 120 80 32 00
        E 0 80 4a 00
        E 0 80 62 00
        E 120 90 1a 64
        E 0 90 32 64
        E 0 90 4a 64
        E 0 90 62 64
        E 120 80 1a 00
        E 0 80 32 00
        E 0 80 4a 00
        E 0 80 62 00
        E 120 90 32 64
        E 0 90 4a 64
        E 0 90 62 64
        E 120 80 32 00
        E 0 80 4a 00
        E 0 80 62 00
        E 120 90 1a 64
        E 0 90 32 64
        E 0 90 4a 64
        E 0 90 62 64
        E 120 80 1a 00
        E 0 80 32 00
        E 0 80 4a 00
        E 0 80 62 00
        E 120 90 49 67
        E 0 90 61 67
        E 120 80 49 00
        E 0 80 61 00
        E 120 90 31 67
        E 0 90 49 67
        E 0 90 61 67
        E 120 80 31 00
        E 0 80 49 00
        E 0 80 61 00
        E 120 90 49 67
        E 0 90 61 67
        E 120 80 49 00
        E 0 80 61 00
        E 120 90 19 66
        E 0 90 31 66
        E 0 90 49 66
        E 0 90 61 66
        E 120 80 19 00
        E 0 80 31 00
        E 0 80 49 00
        E 0 80 61 00
        E 120 90 49 66
        E 0 90 61 66
        E 120 80 49 00
        E 0 80 61 00
        E 120 90 31 67
        E 0 90 49 67
        E 0 90 61 67
        E 120 80 31 00
        E 240 80 49 00
        E 0 80 61 00
        E 120 90 19 66
        E 0 90 31 66
        E 0 90 49 66
        E 0 90 61 66
        E 120 80 19 00
        E 0 80 31 00
        E 0 80 49 00
        E 0 80 61 00
        E 120 90 49 66
        E 0 90 61 66
        E 120 80 49 00
        E 0 80 61 00
        E 120 90 31 67
        E 0 90 49 67
        E 0 90 61 67
        E 120 80 31 00
        E 240 80 49 00
        E 0 80 61 00
        <X 120 0
          /wFbZW5kX3BiIHNvbmdfdHJhaW5lcl9wYl8xXQ==
        >
        E 0 90 1a 64
        E 0 90 32 64
        E 0 90 4a 64
        E 0 90 62 64
        E 120 80 1a 00
        E 0 80 32 00
        E 0 80 4a 00
        E 0 80 62 00
        E 120 90 32 64
        E 0 90 4a 64
        E 0 90 62 64
        E 120 80 32 00
        E 0 80 4a 00
        E 0 80 62 00
        E 120 90 1a 64
        E 0 90 32 64
        E 0 90 4a 64
        E 0 90 62 64
        E 120 80 1a 00
        E 0 80 32 00
        E 0 80 4a 00
        E 0 80 62 00
        E 120 90 32 64
        E 0 90 4a 64
        E 0 90 62 64
        E 120 80 32 00
        E 0 80 4a 00
        E 0 80 62 00
        E 120 90 1a 64
        E 0 90 32 64
        E 0 90 4a 64
        E 0 90 62 64
        E 120 80 1a 00
        E 0 80 32 00
        E 0 80 4a 00
        E 0 80 62 00
        E 120 90 49 67
        E 0 90 61 67
        E 120 80 49 00
        E 0 80 61 00
        E 120 90 31 67
        E 0 90 49 67
        E 0 90 61 67
        E 120 80 31 00
        E 0 80 49 00
        E 0 80 61 00
        E 120 90 49 67
        E 0 90 61 67
        E 120 80 49 00
        E 0 80 61 00
        E 120 90 19 66
        E 0 90 31 66
        E 0 90 49 66
        E 0 90 61 66
        E 120 80 19 00
        E 0 80 31 00
        E 0 80 49 00
        E 0 80 61 00
        E 120 90 49 66
        E 0 90 61 66
        E 120 80 49 00
        E 0 80 61 00
        E 120 90 31 67
        E 0 90 49 67
        E 0 90 61 67
        E 120 80 31 00
        E 240 80 49 00
        E 0 80 61 00
        E 120 90 19 66
        E 0 90 31 66
        E 0 90 49 66
        E 0 90 61 66
        E 120 80 19 00
        E 0 80 31 00
        E 0 80 49 00
        E 0 80 61 00
        E 120 90 49 66
        E 0 90 61 66
        E 120 80 49 00
        E 0 80 61 00
        E 120 90 31 67
        E 0 90 49 67
        E 0 90 61 67
        E 120 80 31 00
        E 240 80 49 00
        E 0 80 61 00
        E 120 90 1a 64
        E 0 90 32 64
        E 0 90 4a 64
        E 0 90 62 64
        E 0 90 74 64
        E 120 80 1a 00
        E 0 80 32 00
        E 0 80 4a 00
        E 0 80 62 00
        E 120 90 32 64
        E 0 90 4a 64
        E 0 90 62 64
        E 120 80 32 00
        E 0 80 4a 00
        E 0 80 62 00
        E 120 90 1a 64
        E 0 90 32 64
        E 0 90 4a 64
        E 0 90 62 64
        E 120 80 1a 00
        E 0 80 32 00
        E 0 80 4a 00
        E 0 80 62 00
        E 120 90 32 64
        E 0 90 4a 64
        E 0 90 62 64
        E 120 80 32 00
        E 0 80 4a 00
        E 0 80 62 00
        E 120 90 1a 64
        E 0 90 32 64
        E 0 90 4a 64
        E 0 90 62 64
        E 120 80 1a 00
        E 0 80 32 00
        E 0 80 4a 00
        E 0 80 62 00
        E 120 90 49 67
        E 0 90 61 67
        E 120 80 49 00
        E 0 80 61 00
        E 120 90 31 67
        E 0 90 49 67
        E 0 90 61 67
        E 120 80 31 00
        E 0 80 49 00
        E 0 80 61 00
        E 120 90 49 67
        E 0 90 61 67
        E 120 80 49 00
        E 0 80 61 00
        E 120 90 19 66
        E 0 90 31 66
        E 0 90 49 66
        E 0 90 61 66
        E 120 80 19 00
        E 0 80 31 00
        E 0 80 49 00
        E 0 80 61 00
        E 120 90 49 66
        E 0 90 61 66
        E 120 80 49 00
        E 0 80 61 00
        E 120 90 31 67
        E 0 90 49 67
        E 0 90 61 67
        E 120 80 31 00
        E 240 80 49 00
        E 0 80 61 00
        E 120 90 19 66
        E 0 90 31 66
        E 0 90 49 66
        E 0 90 61 66
        E 120 80 19 00
        E 0 80 31 00
        E 0 80 49 00
        E 0 80 61 00
        E 120 90 49 66
        E 0 90 61 66
        E 120 80 49 00
        E 0 80 61 00
        E 120 90 31 67
        E 0 90 49 67
        E 0 90 61 67
        E 120 80 31 00
        E 240 80 49 00
        E 0 80 61 00
        <X 120 0
          /wFbYmVnaW5fcGIgc29uZ190cmFpbmVyX3BiXzJd
        >
        E 0 80 74 00
        E 0 90 19 67
        E 0 90 31 67
        E 0 90 49 67
        E 0 90 61 67
        E 120 80 19 00
        E 0 80 31 00
        E 0 80 49 00
        E 0 80 61 00
        E 120 90 31 67
        E 0 90 49 67
        E 0 90 61 67
        E 120 80 31 00
        E 0 80 49 00
        E 0 80 61 00
        E 120 90 19 67
        E 0 90 31 67
        E 0 90 49 67
        E 0 90 61 67
        E 120 80 19 00
        E 0 80 31 00
        E 0 80 49 00
        E 0 80 61 00
        E 120 90 31 67
        E 0 90 49 67
        E 0 90 61 67
        E 120 80 31 00
        E 0 80 49 00
        E 0 80 61 00
        E 120 90 19 67
        E 0 90 31 67
        E 0 90 49 67
        E 0 90 61 67
        E 120 80 19 00
        E 0 80 31 00
        E 0 80 49 00
        E 0 80 61 00
        E 120 90 31 67
        E 0 90 49 67
        E 0 90 61 67
        E 120 80 31 00
        E 0 80 49 00
        E 0 80 61 00
        E 120 90 31 67
        E 0 90 37 64
        E 0 90 49 67
        E 0 90 4f 64
        E 0 90 61 67
        E 0 90 67 64
        E 120 80 31 00
        E 0 80 37 00
        E 240 80 49 00
        E 0 80 4f 00
        E 60 80 61 00
        E 0 80 67 00
        <X 60 0
          /wFbcGJfbm9ybSBzb25nX3RyYWluZXJfcGJfMl0=
        >
        E 0 90 19 64
        E 0 90 31 64
        E 0 90 49 64
        E 0 90 61 64
        E 120 80 19 00
        E 0 80 31 00
        E 0 80 49 00
        E 0 80 61 00
        E 120 90 31 64
        E 0 90 49 64
        E 0 90 61 64
        E 120 80 31 00
        E 0 80 49 00
        E 0 80 61 00
        E 120 90 19 64
        E 0 90 31 64
        E 0 90 49 64
        E 0 90 61 64
        E 120 80 19 00
        E 0 80 31 00
        E 0 80 49 00
        E 0 80 61 00
        E 120 90 31 64
        E 0 90 49 64
        E 0 90 61 64
        E 120 80 31 00
        E 0 80 49 00
        E 0 80 61 00
        E 120 90 19 64
        E 0 90 31 64
        E 0 90 49 64
        E 0 90 61 64
        E 120 80 19 00
        E 0 80 31 00
        E 0 80 49 00
        E 0 80 61 00
        E 120 90 31 64
        E 0 90 49 64
        E 0 90 61 64
        E 120 80 31 00
        E 0 80 49 00
        E 0 80 61 00
        E 119 90 61 64
        E 1 90 31 64
        E 0 90 49 64
        E 119 80 61 00
        E 1 80 31 00
        E 0 80 49 00
        E 120 90 49 64
        E 0 90 61 64
        E 120 80 49 00
        E 0 80 61 00
        E 120 90 19 67
        E 0 90 31 67
        E 0 90 49 67
        E 0 90 61 67
        E 120 80 19 00
        E 0 80 31 00
        E 0 80 49 00
        E 0 80 61 00
        E 120 90 31 67
        E 0 90 49 67
        E 0 90 61 67
        E 120 80 31 00
        E 0 80 49 00
        E 0 80 61 00
        E 120 90 19 67
        E 0 90 31 67
        E 0 90 49 67
        E 0 90 61 67
        E 120 80 19 00
        E 0 80 31 00
        E 0 80 49 00
        E 0 80 61 00
        E 120 90 31 67
        E 0 90 49 67
        E 0 90 61 67
        E 120 80 31 00
        E 0 80 49 00
        E 0 80 61 00
        E 120 90 19 67
        E 0 90 31 67
        E 0 90 49 67
        E 0 90 61 67
        E 120 80 19 00
        E 0 80 31 00
        E 0 80 49 00
        E 0 80 61 00
        E 120 90 49 67
        E 0 90 61 67
        E 120 80 49 00
        E 0 80 61 00
        E 120 90 31 67
        E 0 90 49 67
        E 0 90 61 67
        E 120 80 31 00
        E 0 80 49 00
        E 0 80 61 00
        E 120 90 49 67
        E 0 90 61 67
        E 120 80 49 00
        E 0 80 61 00
        E 120 90 19 64
        E 0 90 31 64
        E 0 90 49 64
        E 0 90 61 64
        E 120 80 19 00
        E 0 80 31 00
        E 0 80 49 00
        E 0 80 61 00
        E 120 90 49 64
        E 0 90 61 64
        E 120 80 49 00
        E 0 80 61 00
        E 120 90 31 64
        E 0 90 49 64
        E 0 90 61 64
        E 120 80 31 00
        E 0 80 49 00
        E 0 80 61 00
        E 120 90 31 64
        E 0 90 49 64
        E 0 90 61 64
        E 120 80 31 00
        E 0 80 49 00
        E 0 80 61 00
        E 120 90 19 64
        E 0 90 31 64
        E 0 90 49 64
        E 0 90 61 64
        E 120 80 19 00
        E 0 80 31 00
        E 0 80 49 00
        E 0 80 61 00
        E 120 90 31 64
        E 0 90 49 64
        E 0 90 61 64
        E 120 80 31 00
        E 0 80 49 00
        E 0 80 61 00
        E 119 90 61 64
        E 1 90 31 64
        E 0 90 49 64
        E 119 80 61 00
        E 1 80 31 00
        E 0 80 49 00
        E 120 90 49 64
        E 0 90 61 64
        E 120 80 49 00
        E 0 80 61 00
        <X 120 0
          /wFbZW5kX3BiIHNvbmdfdHJhaW5lcl9wYl8yXQ==
        >
        E 0 90 19 67
        E 0 90 31 67
        E 0 90 49 67
        E 0 90 61 67
        E 120 80 19 00
        E 0 80 31 00
        E 0 80 49 00
        E 0 80 61 00
        E 120 90 31 67
        E 0 90 49 67
        E 0 90 61 67
        E 120 80 31 00
        E 0 80 49 00
        E 0 80 61 00
        E 120 90 19 67
        E 0 90 31 67
        E 0 90 49 67
        E 0 90 61 67
        E 120 80 19 00
        E 0 80 31 00
        E 0 80 49 00
        E 0 80 61 00
        E 120 90 31 67
        E 0 90 49 67
        E 0 90 61 67
        E 120 80 31 00
        E 0 80 49 00
        E 0 80 61 00
        E 120 90 19 67
        E 0 90 31 67
        E 0 90 49 67
        E 0 90 61 67
        E 120 80 19 00
        E 0 80 31 00
        E 0 80 49 00
        E 0 80 61 00
        E 120 90 49 67
        E 0 90 61 67
        E 120 80 49 00
        E 0 80 61 00
        E 120 90 31 67
        E 0 90 49 67
        E 0 90 61 67
        E 120 80 31 00
        E 0 80 49 00
        E 0 80 61 00
        E 120 90 49 67
        E 0 90 61 67
        E 120 80 49 00
        E 0 80 61 00
        E 120 90 19 64
        E 0 90 31 64
        E 0 90 49 64
        E 0 90 61 64
        E 120 80 19 00
        E 0 80 31 00
        E 0 80 49 00
        E 0 80 61 00
        E 120 90 49 64
        E 0 90 61 64
        E 120 80 49 00
        E 0 80 61 00
        E 120 90 31 64
        E 0 90 49 64
        E 0 90 61 64
        E 120 80 31 00
        E 0 80 49 00
        E 0 80 61 00
        E 120 90 31 64
        E 0 90 49 64
        E 0 90 61 64
        E 120 80 31 00
        E 0 80 49 00
        E 0 80 61 00
        E 120 90 19 64
        E 0 90 31 64
        E 0 90 49 64
        E 0 90 61 64
        E 120 80 19 00
        E 0 80 31 00
        E 0 80 49 00
        E 0 80 61 00
        E 120 90 31 64
        E 0 90 49 64
        E 0 90 61 64
        E 120 80 31 00
        E 0 80 49 00
        E 0 80 61 00
        E 119 90 61 64
        E 1 90 31 64
        E 0 90 49 64
        E 119 80 61 00
        E 1 80 31 00
        E 0 80 49 00
        E 120 90 49 64
        E 0 90 61 64
        E 120 80 49 00
        E 0 80 61 00
        E 120 90 19 67
        E 0 90 31 67
        E 0 90 49 67
        E 0 90 61 67
        E 120 80 19 00
        E 0 80 31 00
        E 0 80 49 00
        E 0 80 61 00
        E 120 90 31 67
        E 0 90 49 67
        E 0 90 61 67
        E 120 80 31 00
        E 0 80 49 00
        E 0 80 61 00
        E 120 90 19 67
        E 0 90 31 67
        E 0 90 49 67
        E 0 90 61 67
        E 120 80 19 00
        E 0 80 31 00
        E 0 80 49 00
        E 0 80 61 00
        E 120 90 31 67
        E 0 90 49 67
        E 0 90 61 67
        E 120 80 31 00
        E 0 80 49 00
        E 0 80 61 00
        E 120 90 19 67
        E 0 90 31 67
        E 0 90 49 67
        E 0 90 61 67
        E 120 80 19 00
        E 0 80 31 00
        E 0 80 49 00
        E 0 80 61 00
        E 120 90 49 67
        E 0 90 61 67
        E 120 80 49 00
        E 0 80 61 00
        E 120 90 31 67
        E 0 90 49 67
        E 0 90 61 67
        E 120 80 31 00
        E 0 80 49 00
        E 0 80 61 00
        E 120 90 49 67
        E 0 90 61 67
        E 120 80 49 00
        E 0 80 61 00
        E 120 90 19 64
        E 0 90 31 64
        E 0 90 49 64
        E 0 90 61 64
        E 120 80 19 00
        E 0 80 31 00
        E 0 80 49 00
        E 0 80 61 00
        E 120 90 49 64
        E 0 90 61 64
        E 120 80 49 00
        E 0 80 61 00
        E 120 90 31 64
        E 0 90 49 64
        E 0 90 61 64
        E 120 80 31 00
        E 0 80 49 00
        E 0 80 61 00
        E 120 90 31 64
        E 0 90 49 64
        E 0 90 61 64
        E 120 80 31 00
        E 0 80 49 00
        E 0 80 61 00
        E 120 90 19 64
        E 0 90 31 64
        E 0 90 49 64
        E 0 90 61 64
        E 120 80 19 00
        E 0 80 31 00
        E 0 80 49 00
        E 0 80 61 00
        E 120 90 31 64
        E 0 90 49 64
        E 0 90 61 64
        E 120 80 31 00
        E 0 80 49 00
        E 0 80 61 00
        E 119 90 61 64
        E 1 90 31 64
        E 0 90 49 64
        E 119 80 61 00
        E 1 80 31 00
        E 0 80 49 00
        E 120 90 49 64
        E 0 90 61 64
        E 120 80 49 00
        E 0 80 61 00
        E 120 90 19 67
        E 0 90 31 67
        E 0 90 49 67
        E 0 90 61 67
        E 0 90 74 64
        E 120 80 19 00
        E 0 80 31 00
        E 0 80 49 00
        E 0 80 61 00
        E 120 90 31 67
        E 0 90 49 67
        E 0 90 61 67
        E 120 80 31 00
        E 0 80 49 00
        E 0 80 61 00
        E 120 90 19 67
        E 0 90 31 67
        E 0 90 49 67
        E 0 90 61 67
        E 120 80 19 00
        E 0 80 31 00
        E 0 80 49 00
        E 0 80 61 00
        E 120 90 31 67
        E 0 90 49 67
        E 0 90 61 67
        E 120 80 31 00
        E 0 80 49 00
        E 0 80 61 00
        E 120 90 19 67
        E 0 90 31 67
        E 0 90 49 67
        E 0 90 61 67
        E 120 80 19 00
        E 0 80 31 00
        E 0 80 49 00
        E 0 80 61 00
        E 120 90 49 67
        E 0 90 61 67
        E 120 80 49 00
        E 0 80 61 00
        E 120 90 31 67
        E 0 90 49 67
        E 0 90 61 67
        E 120 80 31 00
        E 0 80 49 00
        E 0 80 61 00
        E 120 90 49 67
        E 0 90 61 67
        E 120 80 49 00
        E 0 80 61 00
        E 120 90 19 64
        E 0 90 31 64
        E 0 90 49 64
        E 0 90 61 64
        E 120 80 74 00
        E 0 80 19 00
        E 0 80 31 00
        E 0 80 49 00
        E 0 80 61 00
        E 120 90 49 64
        E 0 90 61 64
        E 120 80 49 00
        E 0 80 61 00
        E 120 90 31 64
        E 0 90 49 64
        E 0 90 61 64
        E 120 80 31 00
        E 0 80 49 00
        E 0 80 61 00
        E 120 90 31 64
        E 0 90 49 64
        E 0 90 61 64
        E 120 80 31 00
        E 0 80 49 00
        E 0 80 61 00
        E 120 90 19 64
        E 0 90 31 64
        E 0 90 49 64
        E 0 90 61 64
        E 120 80 19 00
        E 0 80 31 00
        E 0 80 49 00
        E 0 80 61 00
        E 120 90 31 64
        E 0 90 49 64
        E 0 90 61 64
        E 120 80 31 00
        E 0 80 49 00
        E 0 80 61 00
        E 119 90 61 64
        E 1 90 31 64
        E 0 90 49 64
        E 119 80 61 00
        E 1 80 31 00
        E 0 80 49 00
        E 120 90 49 64
        E 0 90 61 64
        E 120 80 49 00
        E 0 80 61 00
        E 120 90 19 67
        E 0 90 31 67
        E 0 90 49 67
        E 0 90 61 67
        E 120 80 19 00
        E 0 80 31 00
        E 0 80 49 00
        E 0 80 61 00
        E 120 90 31 67
        E 0 90 49 67
        E 0 90 61 67
        E 120 80 31 00
        E 0 80 49 00
        E 0 80 61 00
        E 120 90 19 67
        E 0 90 31 67
        E 0 90 49 67
        E 0 90 61 67
        E 120 80 19 00
        E 0 80 31 00
        E 0 80 49 00
        E 0 80 61 00
        E 120 90 31 67
        E 0 90 49 67
        E 0 90 61 67
        E 120 80 31 00
        E 0 80 49 00
        E 0 80 61 00
        E 120 90 19 67
        E 0 90 31 67
        E 0 90 49 67
        E 0 90 61 67
        E 120 80 19 00
        E 0 80 31 00
        E 0 80 49 00
        E 0 80 61 00
        E 120 90 49 67
        E 0 90 61 67
        E 120 80 49 00
        E 0 80 61 00
        E 120 90 31 67
        E 0 90 49 67
        E 0 90 61 67
        E 120 80 31 00
        E 0 80 49 00
        E 0 80 61 00
        E 120 90 49 67
        E 0 90 61 67
        E 120 80 49 00
        E 0 80 61 00
        E 120 90 19 64
        E 0 90 31 64
        E 0 90 49 64
        E 0 90 61 64
        E 120 80 19 00
        E 0 80 31 00
        E 0 80 49 00
        E 0 80 61 00
        E 120 90 49 64
        E 0 90 61 64
        E 120 80 49 00
        E 0 80 61 00
        E 120 90 31 64
        E 0 90 49 64
        E 0 90 61 64
        E 120 80 31 00
        E 0 80 49 00
        E 0 80 61 00
        E 120 90 31 64
        E 0 90 49 64
        E 0 90 61 64
        E 120 80 31 00
        E 0 80 49 00
        E 0 80 61 00
        E 120 90 19 64
        E 0 90 31 64
        E 0 90 49 64
        E 0 90 61 64
        E 120 80 19 00
        E 0 80 31 00
        E 0 80 49 00
        E 0 80 61 00
        E 120 90 31 64
        E 0 90 49 64
        E 0 90 61 64
        E 120 80 31 00
        E 0 80 49 00
        E 0 80 61 00
        E 119 90 61 64
        E 1 90 31 64
        E 0 90 49 64
        E 119 80 61 00
        E 1 80 31 00
        E 0 80 49 00
        E 120 90 49 64
        E 0 90 61 64
        E 120 80 49 00
        E 0 80 61 00
        E 120 90 19 67
        E 0 90 31 67
        E 0 90 49 67
        E 0 90 61 67
        E 120 80 19 00
        E 0 80 31 00
        E 0 80 49 00
        E 0 80 61 00
        E 120 90 31 67
        E 0 90 49 67
        E 0 90 61 67
        E 120 80 31 00
        E 0 80 49 00
        E 0 80 61 00
        E 120 90 19 67
        E 0 90 31 67
        E 0 90 49 67
        E 0 90 61 67
        E 120 80 19 00
        E 0 80 31 00
        E 0 80 49 00
        E 0 80 61 00
        E 120 90 31 67
        E 0 90 49 67
        E 0 90 61 67
        E 120 80 31 00
        E 0 80 49 00
        E 0 80 61 00
        E 120 90 19 67
        E 0 90 31 67
        E 0 90 49 67
        E 0 90 61 67
        E 120 80 19 00
        E 0 80 31 00
        E 0 80 49 00
        E 0 80 61 00
        E 120 90 49 67
        E 0 90 61 67
        E 120 80 49 00
        E 0 80 61 00
        E 120 90 31 67
        E 0 90 49 67
        E 0 90 61 67
        E 120 80 31 00
        E 0 80 49 00
        E 0 80 61 00
        E 120 90 49 67
        E 0 90 61 67
        E 120 80 49 00
        E 0 80 61 00
        E 120 90 19 64
        E 0 90 31 64
        E 0 90 49 64
        E 0 90 61 64
        E 120 80 19 00
        E 0 80 31 00
        E 0 80 49 00
        E 0 80 61 00
        E 120 90 49 64
        E 0 90 61 64
        E 120 80 49 00
        E 0 80 61 00
        E 120 90 31 64
        E 0 90 49 64
        E 0 90 61 64
        E 120 80 31 00
        E 0 80 49 00
        E 0 80 61 00
        E 120 90 31 64
        E 0 90 49 64
        E 0 90 61 64
        E 120 80 31 00
        E 0 80 49 00
        E 0 80 61 00
        E 120 90 19 64
        E 0 90 31 64
        E 0 90 49 64
        E 0 90 61 64
        E 120 80 19 00
        E 0 80 31 00
        E 0 80 49 00
        E 0 80 61 00
        E 120 90 31 64
        E 0 90 49 64
        E 0 90 61 64
        E 120 80 31 00
        E 0 80 49 00
        E 0 80 61 00
        E 119 90 61 64
        E 1 90 31 64
        E 0 90 49 64
        E 119 80 61 00
        E 1 80 31 00
        E 0 80 49 00
        E 120 90 49 64
        E 0 90 61 64
        E 120 80 49 00
        E 0 80 61 00
        E 120 90 19 67
        E 0 90 31 67
        E 0 90 49 67
        E 0 90 61 67
        E 120 80 19 00
        E 0 80 31 00
        E 0 80 49 00
        E 0 80 61 00
        E 120 90 31 67
        E 0 90 49 67
        E 0 90 61 67
        E 120 80 31 00
        E 0 80 49 00
        E 0 80 61 00
        E 120 90 19 67
        E 0 90 31 67
        E 0 90 49 67
        E 0 90 61 67
        E 120 80 19 00
        E 0 80 31 00
        E 0 80 49 00
        E 0 80 61 00
        E 120 90 31 67
        E 0 90 49 67
        E 0 90 61 67
        E 120 80 31 00
        E 0 80 49 00
        E 0 80 61 00
        E 120 90 19 67
        E 0 90 31 67
        E 0 90 49 67
        E 0 90 61 67
        E 120 80 19 00
        E 0 80 31 00
        E 0 80 49 00
        E 0 80 61 00
        E 120 90 49 67
        E 0 90 61 67
        E 120 80 49 00
        E 0 80 61 00
        E 120 90 31 67
        E 0 90 49 67
        E 0 90 61 67
        E 120 80 31 00
        E 0 80 49 00
        E 0 80 61 00
        E 120 90 49 67
        E 0 90 61 67
        E 120 80 49 00
        E 0 80 61 00
        E 120 90 1a 64
        E 0 90 32 64
        E 0 90 4a 64
        E 0 90 62 64
        E 120 80 1a 00
        E 0 80 32 00
        E 0 80 4a 00
        E 0 80 62 00
        E 120 90 4a 64
        E 0 90 62 64
        E 120 80 4a 00
        E 0 80 62 00
        E 120 90 32 64
        E 0 90 4a 64
        E 0 90 62 64
        E 120 80 32 00
        E 0 80 4a 00
        E 0 80 62 00
        E 120 90 32 64
        E 0 90 4a 64
        E 0 90 62 64
        E 120 80 32 00
        E 0 80 4a 00
        E 0 80 62 00
        E 120 90 1a 64
        E 0 90 32 64
        E 0 90 4a 64
        E 0 90 62 64
        E 120 80 1a 00
        E 0 80 32 00
        E 0 80 4a 00
        E 0 80 62 00
        E 120 90 32 64
        E 0 90 4a 64
        E 0 90 62 64
        E 120 80 32 00
        E 0 80 4a 00
        E 0 80 62 00
        E 119 90 62 64
        E 1 90 1a 64
        E 0 90 32 64
        E 0 90 4a 64
        E 119 80 62 00
        E 1 80 1a 00
        E 0 80 32 00
        E 0 80 4a 00
        E 120 90 32 64
        E 0 90 4a 64
        E 0 90 62 64
        E 120 80 32 00
        E 0 80 4a 00
        E 0 80 62 00
        E 120 90 1a 64
        E 0 90 32 64
        E 0 90 4a 64
        E 0 90 62 64
        E 120 80 1a 00
        E 0 80 32 00
        E 0 80 4a 00
        E 0 80 62 00
        E 120 90 32 64
        E 0 90 4a 64
        E 0 90 62 64
        E 120 80 32 00
        E 0 80 4a 00
        E 0 80 62 00
        E 120 90 1a 64
        E 0 90 32 64
        E 0 90 4a 64
        E 0 90 62 64
        E 120 80 1a 00
        E 0 80 32 00
        E 0 80 4a 00
        E 0 80 62 00
        E 120 90 32 64
        E 0 90 4a 64
        E 0 90 62 64
        E 120 80 32 00
        E 0 80 4a 00
        E 0 80 62 00
        E 120 90 1a 64
        E 0 90 32 64
        E 0 90 4a 64
        E 0 90 62 64
        E 120 80 1a 00
        E 0 80 32 00
        E 0 80 4a 00
        E 0 80 62 00
        E 120 90 49 67
        E 0 90 61 67
        E 120 80 49 00
        E 0 80 61 00
        E 120 90 31 67
        E 0 90 49 67
        E 0 90 61 67
        E 120 80 31 00
        E 0 80 49 00
        E 0 80 61 00
        E 120 90 49 67
        E 0 90 61 67
        E 120 80 49 00
        E 0 80 61 00
        E 120 90 19 66
        E 0 90 31 66
        E 0 90 49 66
        E 0 90 61 66
        E 120 80 19 00
        E 0 80 31 00
        E 0 80 49 00
        E 0 80 61 00
        E 120 90 49 66
        E 0 90 61 66
        E 120 80 49 00
        E 0 80 61 00
        E 120 90 31 67
        E 0 90 49 67
        E 0 90 61 67
        E 120 80 31 00
        E 240 80 49 00
        E 0 80 61 00
        E 120 90 19 66
        E 0 90 31 66
        E 0 90 49 66
        E 0 90 61 66
        E 120 80 19 00
        E 0 80 31 00
        E 0 80 49 00
        E 0 80 61 00
        E 120 90 49 66
        E 0 90 61 66
        E 120 80 49 00
        E 0 80 61 00
        E 120 90 31 67
        E 0 90 49 67
        E 0 90 61 67
        E 120 80 31 00
        E 240 80 49 00
        E 0 80 61 00
        E 120 90 1a 64
        E 0 90 32 64
        E 0 90 4a 64
        E 0 90 62 64
        E 120 80 1a 00
        E 0 80 32 00
        E 0 80 4a 00
        E 0 80 62 00
        E 120 90 32 64
        E 0 90 4a 64
        E 0 90 62 64
        E 120 80 32 00
        E 0 80 4a 00
        E 0 80 62 00
        E 120 90 1a 64
        E 0 90 32 64
        E 0 90 4a 64
        E 0 90 62 64
        E 120 80 1a 00
        E 0 80 32 00
        E 0 80 4a 00
        E 0 80 62 00
        E 120 90 32 64
        E 0 90 4a 64
        E 0 90 62 64
        E 120 80 32 00
        E 0 80 4a 00
        E 0 80 62 00
        E 120 90 1a 64
        E 0 90 32 64
        E 0 90 4a 64
        E 0 90 62 64
        E 120 80 1a 00
        E 0 80 32 00
        E 0 80 4a 00
        E 0 80 62 00
        E 120 90 49 67
        E 0 90 61 67
        E 120 80 49 00
        E 0 80 61 00
        E 120 90 31 67
        E 0 90 49 67
        E 0 90 61 67
        E 120 80 31 00
        E 0 80 49 00
        E 0 80 61 00
        E 120 90 49 67
        E 0 90 61 67
        E 120 80 49 00
        E 0 80 61 00
        E 120 90 19 66
        E 0 90 31 66
        E 0 90 49 66
        E 0 90 61 66
        E 120 80 19 00
        E 0 80 31 00
        E 0 80 49 00
        E 0 80 61 00
        E 120 90 49 66
        E 0 90 61 66
        E 120 80 49 00
        E 0 80 61 00
        E 120 90 31 67
        E 0 90 49 67
        E 0 90 61 67
        E 120 80 31 00
        E 240 80 49 00
        E 0 80 61 00
        E 120 90 19 66
        E 0 90 31 66
        E 0 90 49 66
        E 0 90 61 66
        E 120 80 19 00
        E 0 80 31 00
        E 0 80 49 00
        E 0 80 61 00
        E 120 90 49 66
        E 0 90 61 66
        E 120 80 49 00
        E 0 80 61 00
        E 120 90 31 67
        E 0 90 49 67
        E 0 90 61 67
        E 120 80 31 00
        E 240 80 49 00
        E 0 80 61 00
        E 120 90 1a 64
        E 0 90 32 64
        E 0 90 4a 64
        E 0 90 62 64
        E 0 90 74 64
        E 120 80 1a 00
        E 0 80 32 00
        E 0 80 4a 00
        E 0 80 62 00
        E 120 90 32 64
        E 0 90 4a 64
        E 0 90 62 64
        E 120 80 32 00
        E 0 80 4a 00
        E 0 80 62 00
        E 120 90 1a 64
        E 0 90 32 64
        E 0 90 4a 64
        E 0 90 62 64
        E 120 80 1a 00
        E 0 80 32 00
        E 0 80 4a 00
        E 0 80 62 00
        E 120 90 32 64
        E 0 90 4a 64
        E 0 90 62 64
        E 120 80 32 00
        E 0 80 4a 00
        E 0 80 62 00
        E 120 90 1a 64
        E 0 90 32 64
        E 0 90 4a 64
        E 0 90 62 64
        E 120 80 1a 00
        E 0 80 32 00
        E 0 80 4a 00
        E 0 80 62 00
        E 120 90 49 67
        E 0 90 61 67
        E 120 80 49 00
        E 0 80 61 00
        E 120 90 31 67
        E 0 90 49 67
        E 0 90 61 67
        E 120 80 31 00
        E 0 80 49 00
        E 0 80 61 00
        E 120 90 49 67
        E 0 90 61 67
        E 120 80 49 00
        E 0 80 61 00
        E 120 80 74 00
        E 0 90 19 66
        E 0 90 31 66
        E 0 90 49 66
        E 0 90 61 66
        E 120 80 19 00
        E 0 80 31 00
        E 0 80 49 00
        E 0 80 61 00
        E 120 90 49 66
        E 0 90 61 66
        E 120 80 49 00
        E 0 80 61 00
        E 120 90 31 67
        E 0 90 49 67
        E 0 90 61 67
        E 120 80 31 00
        E 240 80 49 00
        E 0 80 61 00
        E 120 90 19 66
        E 0 90 31 66
        E 0 90 49 66
        E 0 90 61 66
        E 120 80 19 00
        E 0 80 31 00
        E 0 80 49 00
        E 0 80 61 00
        E 120 90 49 66
        E 0 90 61 66
        E 120 80 49 00
        E 0 80 61 00
        E 120 90 31 67
        E 0 90 49 67
        E 0 90 61 67
        E 120 80 31 00
        E 240 80 49 00
        E 0 80 61 00
        E 120 90 1a 64
        E 0 90 32 64
        E 0 90 4a 64
        E 0 90 62 64
        E 120 80 1a 00
        E 0 80 32 00
        E 0 80 4a 00
        E 0 80 62 00
        E 120 90 32 64
        E 0 90 4a 64
        E 0 90 62 64
        E 120 80 32 00
        E 0 80 4a 00
        E 0 80 62 00
        E 120 90 1a 64
        E 0 90 32 64
        E 0 90 4a 64
        E 0 90 62 64
        E 120 80 1a 00
        E 0 80 32 00
        E 0 80 4a 00
        E 0 80 62 00
        E 120 90 32 64
        E 0 90 4a 64
        E 0 90 62 64
        E 120 80 32 00
        E 0 80 4a 00
        E 0 80 62 00
        E 120 90 1a 64
        E 0 90 32 64
        E 0 90 4a 64
        E 0 90 62 64
        E 120 80 1a 00
        E 0 80 32 00
        E 0 80 4a 00
        E 0 80 62 00
        E 120 90 49 67
        E 0 90 61 67
        E 120 80 49 00
        E 0 80 61 00
        E 120 90 31 67
        E 0 90 49 67
        E 0 90 61 67
        E 120 80 31 00
        E 0 80 49 00
        E 0 80 61 00
        E 120 90 49 67
        E 0 90 61 67
        E 120 80 49 00
        E 0 80 61 00
        E 120 90 19 66
        E 0 90 31 66
        E 0 90 49 66
        E 0 90 61 66
        E 0 90 74 64
        E 120 80 19 00
        E 0 80 31 00
        E 0 80 49 00
        E 0 80 61 00
        E 120 90 49 66
        E 0 90 61 66
        E 120 80 49 00
        E 0 80 61 00
        E 120 90 31 67
        E 0 90 49 67
        E 0 90 61 67
        E 120 80 31 00
        E 240 80 49 00
        E 0 80 61 00
        E 120 90 19 66
        E 0 90 31 66
        E 0 90 49 66
        E 0 90 61 66
        E 120 80 19 00
        E 0 80 31 00
        E 0 80 49 00
        E 0 80 61 00
        E 120 90 49 66
        E 0 90 61 66
        E 120 80 49 00
        E 0 80 61 00
        E 120 90 31 67
        E 0 90 49 67
        E 0 90 61 67
        E 120 80 31 00
        E 240 80 49 00
        E 0 80 61 00
        E 120 80 74 00
        E 0 90 19 67
        E 0 90 31 67
        E 0 90 49 67
        E 0 90 61 67
        E 120 80 19 00
        E 0 80 31 00
        E 0 80 49 00
        E 0 80 61 00
        E 120 90 31 67
        E 0 90 49 67
        E 0 90 61 67
        E 120 80 31 00
        E 0 80 49 00
        E 0 80 61 00
        E 120 90 19 67
        E 0 90 31 67
        E 0 90 49 67
        E 0 90 61 67
        E 120 80 19 00
        E 0 80 31 00
        E 0 80 49 00
        E 0 80 61 00
        E 120 90 31 67
        E 0 90 49 67
        E 0 90 61 67
        E 120 80 31 00
        E 0 80 49 00
        E 0 80 61 00
        E 120 90 19 67
        E 0 90 31 67
        E 0 90 49 67
        E 0 90 61 67
        E 120 80 19 00
        E 0 80 31 00
        E 0 80 49 00
        E 0 80 61 00
        E 120 90 31 67
        E 0 90 49 67
        E 0 90 61 67
        E 120 80 31 00
        E 0 80 49 00
        E 0 80 61 00
        E 120 90 31 67
        E 0 90 37 64
        E 0 90 49 67
        E 0 90 4f 64
        E 0 90 61 67
        E 0 90 67 64
        E 420 80 31 00
        E 0 80 37 00
        E 0 80 49 00
        E 0 80 4f 00
        E 0 80 61 00
        E 0 80 67 00
        E 60 90 19 64
        E 0 90 31 64
        E 0 90 49 64
        E 0 90 61 64
        E 120 80 19 00
        E 0 80 31 00
        E 0 80 49 00
        E 0 80 61 00
        E 120 90 31 64
        E 0 90 49 64
        E 0 90 61 64
        E 120 80 31 00
        E 0 80 49 00
        E 0 80 61 00
        E 120 90 19 64
        E 0 90 31 64
        E 0 90 49 64
        E 0 90 61 64
        E 120 80 19 00
        E 0 80 31 00
        E 0 80 49 00
        E 0 80 61 00
        E 120 90 31 64
        E 0 90 49 64
        E 0 90 61 64
        E 120 80 31 00
        E 0 80 49 00
        E 0 80 61 00
        E 120 90 19 64
        E 0 90 31 64
        E 0 90 49 64
        E 0 90 61 64
        E 120 80 19 00
        E 0 80 31 00
        E 0 80 49 00
        E 0 80 61 00
        E 120 90 31 64
        E 0 90 49 64
        E 0 90 61 64
        E 120 80 31 00
        E 0 80 49 00
        E 0 80 61 00
        E 119 90 61 64
        E 1 90 31 64
        E 0 90 49 64
        E 119 80 61 00
        E 1 80 31 00
        E 0 80 49 00
        E 120 90 49 64
        E 0 90 61 64
        E 120 80 49 00
        E 0 80 61 00
        E 120 90 19 67
        E 0 90 31 67
        E 0 90 49 67
        E 0 90 61 67
        E 120 80 19 00
        E 0 80 31 00
        E 0 80 49 00
        E 0 80 61 00
        E 120 90 31 67
        E 0 90 49 67
        E 0 90 61 67
        E 120 80 31 00
        E 0 80 49 00
        E 0 80 61 00
        E 120 90 19 67
        E 0 90 31 67
        E 0 90 49 67
        E 0 90 61 67
        E 120 80 19 00
        E 0 80 31 00
        E 0 80 49 00
        E 0 80 61 00
        E 120 90 31 67
        E 0 90 49 67
        E 0 90 61 67
        E 120 80 31 00
        E 0 80 49 00
        E 0 80 61 00
        E 120 90 19 67
        E 0 90 31 67
        E 0 90 49 67
        E 0 90 61 67
        E 120 80 19 00
        E 0 80 31 00
        E 0 80 49 00
        E 0 80 61 00
        E 120 90 49 67
        E 0 90 61 67
        E 120 80 49 00
        E 0 80 61 00
        E 120 90 31 67
        E 0 90 49 67
        E 0 90 61 67
        E 120 80 31 00
        E 0 80 49 00
        E 0 80 61 00
        E 120 90 49 67
        E 0 90 61 67
        E 120 80 49 00
        E 0 80 61 00
        E 120 90 19 64
        E 0 90 31 64
        E 0 90 49 64
        E 0 90 61 64
        E 120 80 19 00
        E 0 80 31 00
        E 0 80 49 00
        E 0 80 61 00
        E 120 90 49 64
        E 0 90 61 64
        E 120 80 49 00
        E 0 80 61 00
        E 120 90 31 64
        E 0 90 49 64
        E 0 90 61 64
        E 120 80 31 00
        E 0 80 49 00
        E 0 80 61 00
        E 120 90 31 64
        E 0 90 49 64
        E 0 90 61 64
        E 120 80 31 00
        E 0 80 49 00
        E 0 80 61 00
        E 120 90 19 64
        E 0 90 31 64
        E 0 90 49 64
        E 0 90 61 64
        E 120 80 19 00
        E 0 80 31 00
        E 0 80 49 00
        E 0 80 61 00
        E 120 90 31 64
        E 0 90 49 64
        E 0 90 61 64
        E 120 80 31 00
        E 0 80 49 00
        E 0 80 61 00
        E 119 90 61 64
        E 1 90 31 64
        E 0 90 49 64
        E 119 80 61 00
        E 1 80 31 00
        E 0 80 49 00
        E 120 90 49 64
        E 0 90 61 64
        E 120 80 49 00
        E 0 80 61 00
        E 120 90 19 67
        E 0 90 31 67
        E 0 90 49 67
        E 0 90 61 67
        E 120 80 19 00
        E 0 80 31 00
        E 0 80 49 00
        E 0 80 61 00
        E 120 90 31 67
        E 0 90 49 67
        E 0 90 61 67
        E 120 80 31 00
        E 0 80 49 00
        E 0 80 61 00
        E 120 90 19 67
        E 0 90 31 67
        E 0 90 49 67
        E 0 90 61 67
        E 120 80 19 00
        E 0 80 31 00
        E 0 80 49 00
        E 0 80 61 00
        E 120 90 31 67
        E 0 90 49 67
        E 0 90 61 67
        E 120 80 31 00
        E 0 80 49 00
        E 0 80 61 00
        E 120 90 19 67
        E 0 90 31 67
        E 0 90 49 67
        E 0 90 61 67
        E 120 80 19 00
        E 0 80 31 00
        E 0 80 49 00
        E 0 80 61 00
        E 120 90 49 67
        E 0 90 61 67
        E 120 80 49 00
        E 0 80 61 00
        E 120 90 31 67
        E 0 90 49 67
        E 0 90 61 67
        E 120 80 31 00
        E 0 80 49 00
        E 0 80 61 00
        E 120 90 49 67
        E 0 90 61 67
        E 120 80 49 00
        E 0 80 61 00
        E 120 90 19 64
        E 0 90 31 64
        E 0 90 49 64
        E 0 90 61 64
        E 120 80 19 00
        E 0 80 31 00
        E 0 80 49 00
        E 0 80 61 00
        E 120 90 49 64
        E 0 90 61 64
        E 120 80 49 00
        E 0 80 61 00
        E 120 90 31 64
        E 0 90 49 64
        E 0 90 61 64
        E 120 80 31 00
        E 0 80 49 00
        E 0 80 61 00
        E 120 90 31 64
        E 0 90 49 64
        E 0 90 61 64
        E 120 80 31 00
        E 0 80 49 00
        E 0 80 61 00
        E 120 90 19 64
        E 0 90 31 64
        E 0 90 49 64
        E 0 90 61 64
        E 120 80 19 00
        E 0 80 31 00
        E 0 80 49 00
        E 0 80 61 00
        E 120 90 31 64
        E 0 90 49 64
        E 0 90 61 64
        E 120 80 31 00
        E 0 80 49 00
        E 0 80 61 00
        E 119 90 61 64
        E 1 90 31 64
        E 0 90 49 64
        E 119 80 61 00
        E 1 80 31 00
        E 0 80 49 00
        E 120 90 49 64
        E 0 90 61 64
        E 120 80 49 00
        E 0 80 61 00
        E 120 90 19 67
        E 0 90 31 67
        E 0 90 49 67
        E 0 90 61 67
        E 0 90 74 64
        E 120 80 19 00
        E 0 80 31 00
        E 0 80 49 00
        E 0 80 61 00
        E 120 90 31 67
        E 0 90 49 67
        E 0 90 61 67
        E 120 80 31 00
        E 0 80 49 00
        E 0 80 61 00
        E 120 90 19 67
        E 0 90 31 67
        E 0 90 49 67
        E 0 90 61 67
        E 120 80 19 00
        E 0 80 31 00
        E 0 80 49 00
        E 0 80 61 00
        E 120 90 31 67
        E 0 90 49 67
        E 0 90 61 67
        E 120 80 31 00
        E 0 80 49 00
        E 0 80 61 00
        E 120 90 19 67
        E 0 90 31 67
        E 0 90 49 67
        E 0 90 61 67
        E 120 80 19 00
        E 0 80 31 00
        E 0 80 49 00
        E 0 80 61 00
        E 120 90 49 67
        E 0 90 61 67
        E 120 80 49 00
        E 0 80 61 00
        E 120 90 31 67
        E 0 90 49 67
        E 0 90 61 67
        E 120 80 31 00
        E 0 80 49 00
        E 0 80 61 00
        E 120 90 49 67
        E 0 90 61 67
        E 120 80 49 00
        E 0 80 61 00
        E 120 90 19 64
        E 0 90 31 64
        E 0 90 49 64
        E 0 90 61 64
        E 120 80 19 00
        E 0 80 31 00
        E 0 80 49 00
        E 0 80 61 00
        E 120 90 49 64
        E 0 90 61 64
        E 120 80 49 00
        E 0 80 61 00
        E 120 90 31 64
        E 0 90 49 64
        E 0 90 61 64
        E 120 80 31 00
        E 0 80 49 00
        E 0 80 61 00
        E 120 90 31 64
        E 0 90 49 64
        E 0 90 61 64
        E 120 80 31 00
        E 0 80 49 00
        E 0 80 61 00
        E 120 90 19 64
        E 0 90 31 64
        E 0 90 49 64
        E 0 90 61 64
        E 120 80 19 00
        E 0 80 31 00
        E 0 80 49 00
        E 0 80 61 00
        E 120 90 31 64
        E 0 90 49 64
        E 0 90 61 64
        E 120 80 31 00
        E 0 80 49 00
        E 0 80 61 00
        E 119 90 61 64
        E 1 90 31 64
        E 0 90 49 64
        E 119 80 61 00
        E 1 80 31 00
        E 0 80 49 00
        E 120 90 49 64
        E 0 90 61 64
        E 120 80 49 00
        E 0 80 61 00
        E 120 80 74 00
        E 0 90 19 67
        E 0 90 31 67
        E 0 90 49 67
        E 0 90 61 67
        E 120 80 19 00
        E 0 80 31 00
        E 0 80 49 00
        E 0 80 61 00
        E 120 90 31 67
        E 0 90 49 67
        E 0 90 61 67
        E 120 80 31 00
        E 0 80 49 00
        E 0 80 61 00
        E 120 90 19 67
        E 0 90 31 67
        E 0 90 49 67
        E 0 90 61 67
        E 120 80 19 00
        E 0 80 31 00
        E 0 80 49 00
        E 0 80 61 00
        E 120 90 31 67
        E 0 90 49 67
        E 0 90 61 67
        E 120 80 31 00
        E 0 80 49 00
        E 0 80 61 00
        E 120 90 19 67
        E 0 90 31 67
        E 0 90 49 67
        E 0 90 61 67
        E 120 80 19 00
        E 0 80 31 00
        E 0 80 49 00
        E 0 80 61 00
        E 120 90 49 67
        E 0 90 61 67
        E 120 80 49 00
        E 0 80 61 00
        E 120 90 31 67
        E 0 90 49 67
        E 0 90 61 67
        E 120 80 31 00
        E 0 80 49 00
        E 0 80 61 00
        E 120 90 49 67
        E 0 90 61 67
        E 120 80 49 00
        E 0 80 61 00
        E 120 90 19 64
        E 0 90 31 64
        E 0 90 49 64
        E 0 90 61 64
        E 120 80 19 00
        E 0 80 31 00
        E 0 80 49 00
        E 0 80 61 00
        E 120 90 49 64
        E 0 90 61 64
        E 120 80 49 00
        E 0 80 61 00
        E 120 90 31 64
        E 0 90 49 64
        E 0 90 61 64
        E 120 80 31 00
        E 0 80 49 00
        E 0 80 61 00
        E 120 90 31 64
        E 0 90 49 64
        E 0 90 61 64
        E 120 80 31 00
        E 0 80 49 00
        E 0 80 61 00
        E 120 90 19 64
        E 0 90 31 64
        E 0 90 49 64
        E 0 90 61 64
        E 120 80 19 00
        E 0 80 31 00
        E 0 80 49 00
        E 0 80 61 00
        E 120 90 31 64
        E 0 90 49 64
        E 0 90 61 64
        E 120 80 31 00
        E 0 80 49 00
        E 0 80 61 00
        E 119 90 61 64
        E 1 90 31 64
        E 0 90 49 64
        E 119 80 61 00
        E 1 80 31 00
        E 0 80 49 00
        E 120 90 49 64
        E 0 90 61 64
        E 120 80 49 00
        E 0 80 61 00
        E 120 90 19 67
        E 0 90 31 67
        E 0 90 49 67
        E 0 90 61 67
        E 120 80 19 00
        E 0 80 31 00
        E 0 80 49 00
        E 0 80 61 00
        E 120 90 31 67
        E 0 90 49 67
        E 0 90 61 67
        E 120 80 31 00
        E 0 80 49 00
        E 0 80 61 00
        E 120 90 19 67
        E 0 90 31 67
        E 0 90 49 67
        E 0 90 61 67
        E 120 80 19 00
        E 0 80 31 00
        E 0 80 49 00
        E 0 80 61 00
        E 120 90 31 67
        E 0 90 49 67
        E 0 90 61 67
        E 120 80 31 00
        E 0 80 49 00
        E 0 80 61 00
        E 120 90 19 67
        E 0 90 31 67
        E 0 90 49 67
        E 0 90 61 67
        E 120 80 19 00
        E 0 80 31 00
        E 0 80 49 00
        E 0 80 61 00
        E 120 90 49 67
        E 0 90 61 67
        E 120 80 49 00
        E 0 80 61 00
        E 120 90 31 67
        E 0 90 49 67
        E 0 90 61 67
        E 120 80 31 00
        E 0 80 49 00
        E 0 80 61 00
        E 120 90 49 67
        E 0 90 61 67
        E 120 80 49 00
        E 0 80 61 00
        E 120 90 19 64
        E 0 90 31 64
        E 0 90 49 64
        E 0 90 61 64
        E 120 80 19 00
        E 0 80 31 00
        E 0 80 49 00
        E 0 80 61 00
        E 120 90 49 64
        E 0 90 61 64
        E 120 80 49 00
        E 0 80 61 00
        E 120 90 31 64
        E 0 90 49 64
        E 0 90 61 64
        E 120 80 31 00
        E 0 80 49 00
        E 0 80 61 00
        E 120 90 31 64
        E 0 90 49 64
        E 0 90 61 64
        E 120 80 31 00
        E 0 80 49 00
        E 0 80 61 00
        E 120 90 19 64
        E 0 90 31 64
        E 0 90 49 64
        E 0 90 61 64
        E 120 80 19 00
        E 0 80 31 00
        E 0 80 49 00
        E 0 80 61 00
        E 120 90 31 64
        E 0 90 49 64
        E 0 90 61 64
        E 120 80 31 00
        E 0 80 49 00
        E 0 80 61 00
        E 119 90 61 64
        E 1 90 31 64
        E 0 90 49 64
        E 119 80 61 00
        E 1 80 31 00
        E 0 80 49 00
        E 120 90 49 64
        E 0 90 61 64
        E 120 80 49 00
        E 0 80 61 00
        E 120 90 19 67
        E 0 90 31 67
        E 0 90 49 67
        E 0 90 61 67
        E 120 80 19 00
        E 0 80 31 00
        E 0 80 49 00
        E 0 80 61 00
        E 120 90 31 67
        E 0 90 49 67
        E 0 90 61 67
        E 120 80 31 00
        E 0 80 49 00
        E 0 80 61 00
        E 120 90 19 67
        E 0 90 31 67
        E 0 90 49 67
        E 0 90 61 67
        E 120 80 19 00
        E 0 80 31 00
        E 0 80 49 00
        E 0 80 61 00
        E 120 90 31 67
        E 0 90 49 67
        E 0 90 61 67
        E 120 80 31 00
        E 0 80 49 00
        E 0 80 61 00
        E 120 90 19 67
        E 0 90 31 67
        E 0 90 49 67
        E 0 90 61 67
        E 120 80 19 00
        E 0 80 31 00
        E 0 80 49 00
        E 0 80 61 00
        E 120 90 49 67
        E 0 90 61 67
        E 120 80 49 00
        E 0 80 61 00
        E 120 90 31 67
        E 0 90 49 67
        E 0 90 61 67
        E 120 80 31 00
        E 0 80 49 00
        E 0 80 61 00
        E 120 90 49 67
        E 0 90 61 67
        E 120 80 49 00
        E 0 80 61 00
        E 120 90 19 64
        E 0 90 31 64
        E 0 90 49 64
        E 0 90 61 64
        E 120 80 19 00
        E 0 80 31 00
        E 0 80 49 00
        E 0 80 61 00
        E 120 90 49 64
        E 0 90 61 64
        E 120 80 49 00
        E 0 80 61 00
        E 120 90 31 64
        E 0 90 49 64
        E 0 90 61 64
        E 120 80 31 00
        E 0 80 49 00
        E 0 80 61 00
        E 120 90 31 64
        E 0 90 49 64
        E 0 90 61 64
        E 120 80 31 00
        E 0 80 49 00
        E 0 80 61 00
        E 120 90 19 64
        E 0 90 31 64
        E 0 90 49 64
        E 0 90 61 64
        E 120 80 19 00
        E 0 80 31 00
        E 0 80 49 00
        E 0 80 61 00
        E 120 90 31 64
        E 0 90 49 64
        E 0 90 61 64
        E 120 80 31 00
        E 0 80 49 00
        E 0 80 61 00
        E 119 90 61 64
        E 1 90 31 64
        E 0 90 49 64
        E 119 80 61 00
        E 1 80 31 00
        E 0 80 49 00
        E 120 90 49 64
        E 0 90 61 64
        E 120 80 49 00
        E 0 80 61 00
        E 120 90 19 67
        E 0 90 31 67
        E 0 90 49 67
        E 0 90 61 67
        E 120 80 19 00
        E 0 80 31 00
        E 0 80 49 00
        E 0 80 61 00
        E 120 90 31 67
        E 0 90 49 67
        E 0 90 61 67
        E 120 80 31 00
        E 0 80 49 00
        E 0 80 61 00
        E 120 90 19 67
        E 0 90 31 67
        E 0 90 49 67
        E 0 90 61 67
        E 120 80 19 00
        E 0 80 31 00
        E 0 80 49 00
        E 0 80 61 00
        E 120 90 31 67
        E 0 90 49 67
        E 0 90 61 67
        E 120 80 31 00
        E 0 80 49 00
        E 0 80 61 00
        E 120 90 19 67
        E 0 90 31 67
        E 0 90 49 67
        E 0 90 61 67
        E 120 80 19 00
        E 0 80 31 00
        E 0 80 49 00
        E 0 80 61 00
        E 120 90 49 67
        E 0 90 61 67
        E 120 80 49 00
        E 0 80 61 00
        E 120 90 31 67
        E 0 90 49 67
        E 0 90 61 67
        E 120 80 31 00
        E 0 80 49 00
        E 0 80 61 00
        E 120 90 49 67
        E 0 90 61 67
        E 120 80 49 00
        E 0 80 61 00
        E 120 90 1a 64
        E 0 90 32 64
        E 0 90 4a 64
        E 0 90 62 64
        E 120 80 1a 00
        E 0 80 32 00
        E 0 80 4a 00
        E 0 80 62 00
        E 120 90 4a 64
        E 0 90 62 64
        E 120 80 4a 00
        E 0 80 62 00
        E 120 90 32 64
        E 0 90 4a 64
        E 0 90 62 64
        E 120 80 32 00
        E 0 80 4a 00
        E 0 80 62 00
        E 120 90 32 64
        E 0 90 4a 64
        E 0 90 62 64
        E 120 80 32 00
        E 0 80 4a 00
        E 0 80 62 00
        E 120 90 1a 64
        E 0 90 32 64
        E 0 90 4a 64
        E 0 90 62 64
        E 120 80 1a 00
        E 0 80 32 00
        E 0 80 4a 00
        E 0 80 62 00
        E 120 90 32 64
        E 0 90 4a 64
        E 0 90 62 64
        E 120 80 32 00
        E 0 80 4a 00
        E 0 80 62 00
        E 119 90 62 64
        E 1 90 1a 64
        E 0 90 32 64
        E 0 90 4a 64
        E 119 80 62 00
        E 1 80 1a 00
        E 0 80 32 00
        E 0 80 4a 00
        E 120 90 32 64
        E 0 90 4a 64
        E 0 90 62 64
        E 120 80 32 00
        E 0 80 4a 00
        E 0 80 62 00
        E 120 90 1a 64
        E 0 90 32 64
        E 0 90 4a 64
        E 0 90 62 64
        E 120 80 1a 00
        E 0 80 32 00
        E 0 80 4a 00
        E 0 80 62 00
        E 120 90 32 64
        E 0 90 4a 64
        E 0 90 62 64
        E 120 80 32 00
        E 0 80 4a 00
        E 0 80 62 00
        E 120 90 1a 64
        E 0 90 32 64
        E 0 90 4a 64
        E 0 90 62 64
        E 120 80 1a 00
        E 0 80 32 00
        E 0 80 4a 00
        E 0 80 62 00
        E 120 90 32 64
        E 0 90 4a 64
        E 0 90 62 64
        E 120 80 32 00
        E 0 80 4a 00
        E 0 80 62 00
        E 120 90 1a 64
        E 0 90 32 64
        E 0 90 4a 64
        E 0 90 62 64
        E 120 80 1a 00
        E 0 80 32 00
        E 0 80 4a 00
        E 0 80 62 00
        E 120 90 49 67
        E 0 90 61 67
        E 120 80 49 00
        E 0 80 61 00
        E 120 90 31 67
        E 0 90 49 67
        E 0 90 61 67
        E 120 80 31 00
        E 0 80 49 00
        E 0 80 61 00
        E 120 90 49 67
        E 0 90 61 67
        E 120 80 49 00
        E 0 80 61 00
        E 120 90 19 66
        E 0 90 31 66
        E 0 90 49 66
        E 0 90 61 66
        E 120 80 19 00
        E 0 80 31 00
        E 0 80 49 00
        E 0 80 61 00
        E 120 90 49 66
        E 0 90 61 66
        E 120 80 49 00
        E 0 80 61 00
        E 120 90 31 67
        E 0 90 49 67
        E 0 90 61 67
        E 120 80 31 00
        E 240 80 49 00
        E 0 80 61 00
        E 120 90 19 66
        E 0 90 31 66
        E 0 90 49 66
        E 0 90 61 66
        E 120 80 19 00
        E 0 80 31 00
        E 0 80 49 00
        E 0 80 61 00
        E 120 90 49 66
        E 0 90 61 66
        E 120 80 49 00
        E 0 80 61 00
        E 120 90 31 67
        E 0 90 49 67
        E 0 90 61 67
        E 120 80 31 00
        E 240 80 49 00
        E 0 80 61 00
        E 120 90 1a 64
        E 0 90 32 64
        E 0 90 4a 64
        E 0 90 62 64
        E 120 80 1a 00
        E 0 80 32 00
        E 0 80 4a 00
        E 0 80 62 00
        E 120 90 32 64
        E 0 90 4a 64
        E 0 90 62 64
        E 120 80 32 00
        E 0 80 4a 00
        E 0 80 62 00
        E 120 90 1a 64
        E 0 90 32 64
        E 0 90 4a 64
        E 0 90 62 64
        E 120 80 1a 00
        E 0 80 32 00
        E 0 80 4a 00
        E 0 80 62 00
        E 120 90 32 64
        E 0 90 4a 64
        E 0 90 62 64
        E 120 80 32 00
        E 0 80 4a 00
        E 0 80 62 00
        E 120 90 1a 64
        E 0 90 32 64
        E 0 90 4a 64
        E 0 90 62 64
        E 120 80 1a 00
        E 0 80 32 00
        E 0 80 4a 00
        E 0 80 62 00
        E 120 90 49 67
        E 0 90 61 67
        E 120 80 49 00
        E 0 80 61 00
        E 120 90 31 67
        E 0 90 49 67
        E 0 90 61 67
        E 120 80 31 00
        E 0 80 49 00
        E 0 80 61 00
        E 120 90 49 67
        E 0 90 61 67
        E 120 80 49 00
        E 0 80 61 00
        E 120 90 19 66
        E 0 90 31 66
        E 0 90 49 66
        E 0 90 61 66
        E 120 80 19 00
        E 0 80 31 00
        E 0 80 49 00
        E 0 80 61 00
        E 120 90 49 66
        E 0 90 61 66
        E 120 80 49 00
        E 0 80 61 00
        E 120 90 31 67
        E 0 90 49 67
        E 0 90 61 67
        E 120 80 31 00
        E 240 80 49 00
        E 0 80 61 00
        E 120 90 19 66
        E 0 90 31 66
        E 0 90 49 66
        E 0 90 61 66
        E 120 80 19 00
        E 0 80 31 00
        E 0 80 49 00
        E 0 80 61 00
        E 120 90 49 66
        E 0 90 61 66
        E 120 80 49 00
        E 0 80 61 00
        E 120 90 31 67
        E 0 90 49 67
        E 0 90 61 67
        E 120 80 31 00
        E 240 80 49 00
        E 0 80 61 00
        E 120 90 1a 64
        E 0 90 32 64
        E 0 90 4a 64
        E 0 90 62 64
        E 0 90 74 64
        E 120 80 1a 00
        E 0 80 32 00
        E 0 80 4a 00
        E 0 80 62 00
        E 120 90 32 64
        E 0 90 4a 64
        E 0 90 62 64
        E 120 80 32 00
        E 0 80 4a 00
        E 0 80 62 00
        E 120 90 1a 64
        E 0 90 32 64
        E 0 90 4a 64
        E 0 90 62 64
        E 120 80 1a 00
        E 0 80 32 00
        E 0 80 4a 00
        E 0 80 62 00
        E 120 90 32 64
        E 0 90 4a 64
        E 0 90 62 64
        E 120 80 32 00
        E 0 80 4a 00
        E 0 80 62 00
        E 120 90 1a 64
        E 0 90 32 64
        E 0 90 4a 64
        E 0 90 62 64
        E 120 80 1a 00
        E 0 80 32 00
        E 0 80 4a 00
        E 0 80 62 00
        E 120 90 49 67
        E 0 90 61 67
        E 120 80 49 00
        E 0 80 61 00
        E 120 90 31 67
        E 0 90 49 67
        E 0 90 61 67
        E 120 80 31 00
        E 0 80 49 00
        E 0 80 61 00
        E 120 90 49 67
        E 0 90 61 67
        E 120 80 49 00
        E 0 80 61 00
        E 120 90 19 66
        E 0 90 31 66
        E 0 90 49 66
        E 0 90 61 66
        E 120 80 19 00
        E 0 80 31 00
        E 0 80 49 00
        E 0 80 61 00
        E 120 90 49 66
        E 0 90 61 66
        E 120 80 49 00
        E 0 80 61 00
        E 120 90 31 67
        E 0 90 49 67
        E 0 90 61 67
        E 120 80 31 00
        E 240 80 49 00
        E 0 80 61 00
        E 120 90 19 66
        E 0 90 31 66
        E 0 90 49 66
        E 0 90 61 66
        E 120 80 19 00
        E 0 80 31 00
        E 0 80 49 00
        E 0 80 61 00
        E 120 90 49 66
        E 0 90 61 66
        E 120 80 49 00
        E 0 80 61 00
        E 120 90 31 67
        E 0 90 49 67
        E 0 90 61 67
        E 120 80 31 00
        E 240 80 49 00
        E 0 80 61 00
        E 120 80 74 00
        E 0 90 1a 64
        E 0 90 32 64
        E 0 90 4a 64
        E 0 90 62 64
        E 120 80 1a 00
        E 0 80 32 00
        E 0 80 4a 00
        E 0 80 62 00
        E 120 90 32 64
        E 0 90 4a 64
        E 0 90 62 64
        E 120 80 32 00
        E 0 80 4a 00
        E 0 80 62 00
        E 120 90 1a 64
        E 0 90 32 64
        E 0 90 4a 64
        E 0 90 62 64
        E 120 80 1a 00
        E 0 80 32 00
        E 0 80 4a 00
        E 0 80 62 00
        E 120 90 32 64
        E 0 90 4a 64
        E 0 90 62 64
        E 120 80 32 00
        E 0 80 4a 00
        E 0 80 62 00
        E 120 90 1a 64
        E 0 90 32 64
        E 0 90 4a 64
        E 0 90 62 64
        E 120 80 1a 00
        E 0 80 32 00
        E 0 80 4a 00
        E 0 80 62 00
        E 120 90 49 67
        E 0 90 61 67
        E 120 80 49 00
        E 0 80 61 00
        E 120 90 31 67
        E 0 90 49 67
        E 0 90 61 67
        E 120 80 31 00
        E 0 80 49 00
        E 0 80 61 00
        E 120 90 49 67
        E 0 90 61 67
        E 120 80 49 00
        E 0 80 61 00
        E 120 90 19 66
        E 0 90 31 66
        E 0 90 49 66
        E 0 90 61 66
        E 120 80 19 00
        E 0 80 31 00
        E 0 80 49 00
        E 0 80 61 00
        E 120 90 49 66
        E 0 90 61 66
        E 120 80 49 00
        E 0 80 61 00
        E 120 90 31 67
        E 0 90 49 67
        E 0 90 61 67
        E 120 80 31 00
        E 240 80 49 00
        E 0 80 61 00
        E 120 90 19 66
        E 0 90 31 66
        E 0 90 49 66
        E 0 90 61 66
        E 120 80 19 00
        E 0 80 31 00
        E 0 80 49 00
        E 0 80 61 00
        E 120 90 49 66
        E 0 90 61 66
        E 120 80 49 00
        E 0 80 61 00
        E 120 90 31 67
        E 0 90 49 67
        E 0 90 61 67
        E 120 80 31 00
        E 240 80 49 00
        E 0 80 61 00
        <X 120 0
          /wFbYmVnaW5fcGIgc29uZ190cmFpbmVyX3BiXzNd
        >
        E 0 90 18 64
        E 0 90 30 64
        E 0 90 48 64
        E 0 90 60 64
        E 120 80 18 00
        E 0 80 30 00
        E 0 80 48 00
        E 0 80 60 00
        E 120 90 30 64
        E 0 90 48 64
        E 0 90 60 64
        E 120 80 30 00
        E 0 80 48 00
        E 0 80 60 00
        E 120 90 18 64
        E 0 90 30 64
        E 0 90 48 64
        E 0 90 60 64
        E 120 80 18 00
        E 0 80 30 00
        E 0 80 48 00
        E 0 80 60 00
        E 120 90 30 64
        E 0 90 48 64
        E 1 90 60 64
        E 119 80 30 00
        E 0 80 48 00
        E 1 80 60 00
        E 119 90 18 64
        E 0 90 30 64
        E 0 90 48 64
        E 0 90 60 64
        E 120 80 18 00
        E 0 80 30 00
        E 0 80 48 00
        E 0 80 60 00
        E 120 90 30 64
        E 0 90 48 64
        E 1 90 60 64
        E 119 80 30 00
        E 0 80 48 00
        E 1 80 60 00
        E 119 90 30 64
        E 0 90 48 64
        E 0 90 60 64
        E 120 80 30 00
        E 0 80 48 00
        E 0 80 60 00
        E 120 90 48 64
        E 1 90 60 64
        E 119 80 48 00
        E 1 80 60 00
        <X 119 0
          /wFbcGJfbm9ybSBzb25nX3RyYWluZXJfcGJfM10=
        >
        E 0 90 18 67
        E 0 90 30 67
        E 0 90 48 67
        E 0 90 60 67
        E 120 80 18 00
        E 0 80 30 00
        E 0 80 48 00
        E 0 80 60 00
        E 120 90 48 67
        E 0 90 60 67
        E 120 80 48 00
        E 0 80 60 00
        E 120 90 18 67
        E 0 90 30 67
        E 0 90 48 67
        E 0 90 60 67
        E 120 80 18 00
        E 0 80 30 00
        E 0 80 48 00
        E 0 80 60 00
        E 120 90 30 67
        E 0 90 48 67
        E 1 90 60 67
        E 119 80 30 00
        E 0 80 48 00
        E 1 80 60 00
        E 119 90 18 67
        E 0 90 30 67
        E 0 90 48 67
        E 0 90 60 67
        E 120 80 18 00
        E 0 80 30 00
        E 0 80 48 00
        E 0 80 60 00
        E 120 90 30 67
        E 0 90 48 67
        E 1 90 60 67
        E 119 80 30 00
        E 0 80 48 00
        E 1 80 60 00
        E 119 90 30 67
        E 0 90 48 67
        E 0 90 60 67
        E 120 80 30 00
        E 0 80 48 00
        E 0 80 60 00
        E 120 90 48 67
        E 1 90 60 67
        E 119 80 48 00
        E 1 80 60 00
        E 119 90 19 64
        E 0 90 31 64
        E 0 90 49 64
        E 0 90 61 64
        E 120 80 19 00
        E 0 80 31 00
        E 0 80 49 00
        E 0 80 61 00
        E 120 90 49 64
        E 0 90 61 64
        E 120 80 49 00
        E 0 80 61 00
        E 120 90 19 64
        E 0 90 31 64
        E 0 90 49 64
        E 0 90 61 64
        E 120 80 19 00
        E 0 80 31 00
        E 0 80 49 00
        E 0 80 61 00
        E 120 90 31 64
        E 0 90 49 64
        E 1 90 61 64
        E 119 80 31 00
        E 0 80 49 00
        E 1 80 61 00
        E 119 90 19 64
        E 0 90 31 64
        E 0 90 49 64
        E 0 90 61 64
        E 120 80 19 00
        E 0 80 31 00
        E 0 80 49 00
        E 0 80 61 00
        E 120 90 31 64
        E 0 90 49 64
        E 1 90 61 64
        E 119 80 31 00
        E 0 80 49 00
        E 1 80 61 00
        E 119 90 31 64
        E 0 90 49 64
        E 0 90 61 64
        E 120 80 31 00
        E 0 80 49 00
        E 0 80 61 00
        E 120 90 49 64
        E 1 90 61 64
        E 119 80 49 00
        E 1 80 61 00
        E 119 90 19 67
        E 0 90 31 67
        E 0 90 49 67
        E 1 90 61 67
        E 119 80 19 00
        E 0 80 31 00
        E 0 80 49 00
        E 1 80 61 00
        E 119 90 49 67
        E 1 90 61 67
        E 119 80 49 00
        E 1 80 61 00
        E 119 90 19 67
        E 0 90 31 67
        E 0 90 49 67
        E 1 90 61 67
        E 119 80 19 00
        E 0 80 31 00
        E 0 80 49 00
        E 1 80 61 00
        E 119 90 31 67
        E 0 90 49 67
        E 2 90 61 67
        E 118 80 31 00
        E 0 80 49 00
        E 2 80 61 00
        E 118 90 19 67
        E 0 90 31 67
        E 0 90 49 67
        E 1 90 61 67
        E 119 80 19 00
        E 0 80 31 00
        E 0 80 49 00
        E 1 80 61 00
        E 119 90 31 67
        E 0 90 49 67
        E 2 90 61 67
        E 118 80 31 00
        E 0 80 49 00
        E 2 80 61 00
        E 118 90 31 67
        E 0 90 49 67
        E 1 90 61 67
        E 119 80 31 00
        E 0 80 49 00
        E 1 80 61 00
        E 119 90 49 67
        E 2 90 61 67
        E 118 80 49 00
        E 2 80 61 00
        <X 118 0
          /wFbZW5kX3BiIHNvbmdfdHJhaW5lcl9wYl8zXQ==
        >
        E 0 90 18 64
        E 0 90 30 64
        E 0 90 48 64
        E 0 90 60 64
        E 120 80 18 00
        E 0 80 30 00
        E 0 80 48 00
        E 0 80 60 00
        E 120 90 30 64
        E 0 90 48 64
        E 0 90 60 64
        E 120 80 30 00
        E 0 80 48 00
        E 0 80 60 00
        E 120 90 18 64
        E 0 90 30 64
        E 0 90 48 64
        E 0 90 60 64
        E 120 80 18 00
        E 0 80 30 00
        E 0 80 48 00
        E 0 80 60 00
        E 120 90 30 64
        E 0 90 48 64
        E 1 90 60 64
        E 119 80 30 00
        E 0 80 48 00
        E 1 80 60 00
        E 119 90 18 64
        E 0 90 30 64
        E 0 90 48 64
        E 0 90 60 64
        E 120 80 18 00
        E 0 80 30 00
        E 0 80 48 00
        E 0 80 60 00
        E 120 90 30 64
        E 0 90 48 64
        E 1 90 60 64
        E 119 80 30 00
        E 0 80 48 00
        E 1 80 60 00
        E 119 90 30 64
        E 0 90 48 64
        E 0 90 60 64
        E 120 80 30 00
        E 0 80 48 00
        E 0 80 60 00
        E 120 90 48 64
        E 1 90 60 64
        E 119 80 48 00
        E 1 80 60 00
        E 119 90 18 67
        E 0 90 30 67
        E 0 90 48 67
        E 0 90 60 67
        E 120 80 18 00
        E 0 80 30 00
        E 0 80 48 00
        E 0 80 60 00
        E 120 90 48 67
        E 0 90 60 67
        E 120 80 48 00
        E 0 80 60 00
        E 120 90 18 67
        E 0 90 30 67
        E 0 90 48 67
        E 0 90 60 67
        E 120 80 18 00
        E 0 80 30 00
        E 0 80 48 00
        E 0 80 60 00
        E 120 90 30 67
        E 0 90 48 67
        E 1 90 60 67
        E 119 80 30 00
        E 0 80 48 00
        E 1 80 60 00
        E 119 90 18 67
        E 0 90 30 67
        E 0 90 48 67
        E 0 90 60 67
        E 120 80 18 00
        E 0 80 30 00
        E 0 80 48 00
        E 0 80 60 00
        E 120 90 30 67
        E 0 90 48 67
        E 1 90 60 67
        E 119 80 30 00
        E 0 80 48 00
        E 1 80 60 00
        E 119 90 30 67
        E 0 90 48 67
        E 0 90 60 67
        E 120 80 30 00
        E 0 80 48 00
        E 0 80 60 00
        E 120 90 48 67
        E 1 90 60 67
        E 119 80 48 00
        E 1 80 60 00
        E 119 90 19 64
        E 0 90 31 64
        E 0 90 49 64
        E 0 90 61 64
        E 120 80 19 00
        E 0 80 31 00
        E 0 80 49 00
        E 0 80 61 00
        E 120 90 49 64
        E 0 90 61 64
        E 120 80 49 00
        E 0 80 61 00
        E 120 90 19 64
        E 0 90 31 64
        E 0 90 49 64
        E 0 90 61 64
        E 120 80 19 00
        E 0 80 31 00
        E 0 80 49 00
        E 0 80 61 00
        E 120 90 31 64
        E 0 90 49 64
        E 1 90 61 64
        E 119 80 31 00
        E 0 80 49 00
        E 1 80 61 00
        E 119 90 19 64
        E 0 90 31 64
        E 0 90 49 64
        E 0 90 61 64
        E 120 80 19 00
        E 0 80 31 00
        E 0 80 49 00
        E 0 80 61 00
        E 120 90 31 64
        E 0 90 49 64
        E 1 90 61 64
        E 119 80 31 00
        E 0 80 49 00
        E 1 80 61 00
        E 119 90 31 64
        E 0 90 49 64
        E 0 90 61 64
        E 120 80 31 00
        E 0 80 49 00
        E 0 80 61 00
        E 120 90 49 64
        E 1 90 61 64
        E 119 80 49 00
        E 1 80 61 00
        E 119 90 19 67
        E 0 90 31 67
        E 0 90 49 67
        E 1 90 61 67
        E 119 80 19 00
        E 0 80 31 00
        E 0 80 49 00
        E 1 80 61 00
        E 119 90 49 67
        E 1 90 61 67
        E 119 80 49 00
        E 1 80 61 00
        E 119 90 19 67
        E 0 90 31 67
        E 0 90 49 67
        E 1 90 61 67
        E 119 80 19 00
        E 0 80 31 00
        E 0 80 49 00
        E 1 80 61 00
        E 119 90 31 67
        E 0 90 49 67
        E 2 90 61 67
        E 118 80 31 00
        E 0 80 49 00
        E 2 80 61 00
        E 118 90 19 67
        E 0 90 31 67
        E 0 90 49 67
        E 1 90 61 67
        E 119 80 19 00
        E 0 80 31 00
        E 0 80 49 00
        E 1 80 61 00
        E 119 90 31 67
        E 0 90 49 67
        E 2 90 61 67
        E 118 80 31 00
        E 0 80 49 00
        E 2 80 61 00
        E 118 90 31 67
        E 0 90 49 67
        E 1 90 61 67
        E 119 80 31 00
        E 0 80 49 00
        E 1 80 61 00
        E 119 90 49 67
        E 2 90 61 67
        E 118 80 49 00
        E 2 80 61 00
        E 118 90 18 64
        E 0 90 30 64
        E 0 90 48 64
        E 0 90 60 64
        E 120 80 18 00
        E 0 80 30 00
        E 0 80 48 00
        E 0 80 60 00
        E 120 90 30 64
        E 0 90 48 64
        E 0 90 60 64
        E 120 80 30 00
        E 0 80 48 00
        E 0 80 60 00
        E 120 90 18 64
        E 0 90 30 64
        E 0 90 48 64
        E 0 90 60 64
        E 120 80 18 00
        E 0 80 30 00
        E 0 80 48 00
        E 0 80 60 00
        E 120 90 30 64
        E 0 90 48 64
        E 1 90 60 64
        E 119 80 30 00
        E 0 80 48 00
        E 1 80 60 00
        E 119 90 18 64
        E 0 90 30 64
        E 0 90 48 64
        E 0 90 60 64
        E 120 80 18 00
        E 0 80 30 00
        E 0 80 48 00
        E 0 80 60 00
        E 120 90 30 64
        E 0 90 48 64
        E 1 90 60 64
        E 119 80 30 00
        E 0 80 48 00
        E 1 80 60 00
        E 119 90 30 64
        E 0 90 48 64
        E 0 90 60 64
        E 120 80 30 00
        E 0 80 48 00
        E 0 80 60 00
        E 120 90 48 64
        E 1 90 60 64
        E 119 80 48 00
        E 1 80 60 00
        E 119 90 18 67
        E 0 90 30 67
        E 0 90 48 67
        E 0 90 60 67
        E 120 80 18 00
        E 0 80 30 00
        E 0 80 48 00
        E 0 80 60 00
        E 120 90 48 67
        E 0 90 60 67
        E 120 80 48 00
        E 0 80 60 00
        E 120 90 18 67
        E 0 90 30 67
        E 0 90 48 67
        E 0 90 60 67
        E 120 80 18 00
        E 0 80 30 00
        E 0 80 48 00
        E 0 80 60 00
        E 120 90 30 67
        E 0 90 48 67
        E 1 90 60 67
        E 119 80 30 00
        E 0 80 48 00
        E 1 80 60 00
        E 119 90 18 67
        E 0 90 30 67
        E 0 90 48 67
        E 0 90 60 67
        E 120 80 18 00
        E 0 80 30 00
        E 0 80 48 00
        E 0 80 60 00
        E 120 90 30 67
        E 0 90 48 67
        E 1 90 60 67
        E 119 80 30 00
        E 0 80 48 00
        E 1 80 60 00
        E 119 90 30 67
        E 0 90 48 67
        E 0 90 60 67
        E 120 80 30 00
        E 0 80 48 00
        E 0 80 60 00
        E 120 90 48 67
        E 1 90 60 67
        E 119 80 48 00
        E 1 80 60 00
        E 119 90 19 64
        E 0 90 31 64
        E 0 90 49 64
        E 0 90 61 64
        E 0 90 74 64
        E 120 80 19 00
        E 0 80 31 00
        E 0 80 49 00
        E 0 80 61 00
        E 120 90 49 64
        E 0 90 61 64
        E 120 80 49 00
        E 0 80 61 00
        E 120 90 19 64
        E 0 90 31 64
        E 0 90 49 64
        E 0 90 61 64
        E 120 80 19 00
        E 0 80 31 00
        E 0 80 49 00
        E 0 80 61 00
        E 120 90 31 64
        E 0 90 49 64
        E 1 90 61 64
        E 119 80 31 00
        E 0 80 49 00
        E 1 80 61 00
        E 119 90 19 64
        E 0 90 31 64
        E 0 90 49 64
        E 0 90 61 64
        E 120 80 19 00
        E 0 80 31 00
        E 0 80 49 00
        E 0 80 61 00
        E 120 90 31 64
        E 0 90 49 64
        E 1 90 61 64
        E 119 80 31 00
        E 0 80 49 00
        E 1 80 61 00
        E 119 90 31 64
        E 0 90 49 64
        E 0 90 61 64
        E 120 80 31 00
        E 0 80 49 00
        E 0 80 61 00
        E 120 90 49 64
        E 1 90 61 64
        E 119 80 49 00
        E 1 80 61 00
        E 119 90 19 67
        E 0 90 31 67
        E 0 90 49 67
        E 1 90 61 67
        E 119 80 19 00
        E 0 80 31 00
        E 0 80 49 00
        E 1 80 61 00
        E 119 90 49 67
        E 1 90 61 67
        E 119 80 49 00
        E 1 80 61 00
        E 119 90 19 67
        E 0 90 31 67
        E 0 90 49 67
        E 1 90 61 67
        E 119 80 19 00
        E 0 80 31 00
        E 0 80 49 00
        E 1 80 61 00
        E 119 90 31 67
        E 0 90 49 67
        E 2 90 61 67
        E 118 80 31 00
        E 0 80 49 00
        E 2 80 61 00
        E 118 90 19 67
        E 0 90 31 67
        E 0 90 49 67
        E 1 90 61 67
        E 119 80 19 00
        E 0 80 31 00
        E 0 80 49 00
        E 1 80 61 00
        E 119 90 31 67
        E 0 90 49 67
        E 2 90 61 67
        E 118 80 31 00
        E 0 80 49 00
        E 2 80 61 00
        E 118 90 31 67
        E 0 90 49 67
        E 1 90 61 67
        E 119 80 31 00
        E 0 80 49 00
        E 1 80 61 00
        E 119 90 49 67
        E 2 90 61 67
        E 118 80 49 00
        E 2 80 61 00
        E 118 80 74 00
        E 0 90 18 64
        E 0 90 30 64
        E 0 90 48 64
        E 0 90 60 64
        E 120 80 18 00
        E 0 80 30 00
        E 0 80 48 00
        E 0 80 60 00
        E 120 90 30 64
        E 0 90 48 64
        E 0 90 60 64
        E 120 80 30 00
        E 0 80 48 00
        E 0 80 60 00
        E 120 90 18 64
        E 0 90 30 64
        E 0 90 48 64
        E 0 90 60 64
        E 120 80 18 00
        E 0 80 30 00
        E 0 80 48 00
        E 0 80 60 00
        E 120 90 30 64
        E 0 90 48 64
        E 1 90 60 64
        E 119 80 30 00
        E 0 80 48 00
        E 1 80 60 00
        E 119 90 18 64
        E 0 90 30 64
        E 0 90 48 64
        E 0 90 60 64
        E 120 80 18 00
        E 0 80 30 00
        E 0 80 48 00
        E 0 80 60 00
        E 120 90 30 64
        E 0 90 48 64
        E 1 90 60 64
        E 119 80 30 00
        E 0 80 48 00
        E 1 80 60 00
        E 119 90 30 64
        E 0 90 48 64
        E 0 90 60 64
        E 120 80 30 00
        E 0 80 48 00
        E 0 80 60 00
        E 120 90 48 64
        E 1 90 60 64
        E 119 80 48 00
        E 1 80 60 00
        E 119 90 18 67
        E 0 90 30 67
        E 0 90 48 67
        E 0 90 60 67
        E 120 80 18 00
        E 0 80 30 00
        E 0 80 48 00
        E 0 80 60 00
        E 120 90 48 67
        E 0 90 60 67
        E 120 80 48 00
        E 0 80 60 00
        E 120 90 18 67
        E 0 90 30 67
        E 0 90 48 67
        E 0 90 60 67
        E 120 80 18 00
        E 0 80 30 00
        E 0 80 48 00
        E 0 80 60 00
        E 120 90 30 67
        E 0 90 48 67
        E 1 90 60 67
        E 119 80 30 00
        E 0 80 48 00
        E 1 80 60 00
        E 119 90 18 67
        E 0 90 30 67
        E 0 90 48 67
        E 0 90 60 67
        E 120 80 18 00
        E 0 80 30 00
        E 0 80 48 00
        E 0 80 60 00
        E 120 90 30 67
        E 0 90 48 67
        E 1 90 60 67
        E 119 80 30 00
        E 0 80 48 00
        E 1 80 60 00
        E 119 90 30 67
        E 0 90 48 67
        E 0 90 60 67
        E 120 80 30 00
        E 0 80 48 00
        E 0 80 60 00
        E 120 90 48 67
        E 1 90 60 67
        E 119 80 48 00
        E 1 80 60 00
        E 119 90 19 64
        E 0 90 31 64
        E 0 90 49 64
        E 0 90 61 64
        E 120 80 19 00
        E 0 80 31 00
        E 0 80 49 00
        E 0 80 61 00
        E 120 90 49 64
        E 0 90 61 64
        E 120 80 49 00
        E 0 80 61 00
        E 120 90 19 64
        E 0 90 31 64
        E 0 90 49 64
        E 0 90 61 64
        E 120 80 19 00
        E 0 80 31 00
        E 0 80 49 00
        E 0 80 61 00
        E 120 90 31 64
        E 0 90 49 64
        E 1 90 61 64
        E 119 80 31 00
        E 0 80 49 00
        E 1 80 61 00
        E 119 90 19 64
        E 0 90 31 64
        E 0 90 49 64
        E 0 90 61 64
        E 120 80 19 00
        E 0 80 31 00
        E 0 80 49 00
        E 0 80 61 00
        E 120 90 31 64
        E 0 90 49 64
        E 1 90 61 64
        E 119 80 31 00
        E 0 80 49 00
        E 1 80 61 00
        E 119 90 31 64
        E 0 90 49 64
        E 0 90 61 64
        E 120 80 31 00
        E 0 80 49 00
        E 0 80 61 00
        E 120 90 49 64
        E 0 90 4f 64
        E 0 90 67 64
        E 1 90 61 64
        E 119 80 49 00
        E 0 80 4f 00
        E 60 80 67 00
        E 0 80 61 00
        E 60 90 19 67
        E 0 90 31 67
        E 0 90 49 67
        E 1 90 61 67
        E 119 80 19 00
        E 0 80 31 00
        E 0 80 49 00
        E 1 80 61 00
        E 119 90 49 67
        E 1 90 61 67
        E 119 80 49 00
        E 1 80 61 00
        E 119 90 19 67
        E 0 90 31 67
        E 0 90 49 67
        E 1 90 61 67
        E 119 80 19 00
        E 0 80 31 00
        E 0 80 49 00
        E 1 80 61 00
        E 119 90 31 67
        E 0 90 49 67
        E 2 90 61 67
        E 118 80 31 00
        E 0 80 49 00
        E 2 80 61 00
        E 118 90 19 67
        E 0 90 31 67
        E 0 90 49 67
        E 1 90 61 67
        E 119 80 19 00
        E 0 80 31 00
        E 0 80 49 00
        E 1 80 61 00
        E 119 90 31 67
        E 0 90 49 67
        E 2 90 61 67
        E 118 80 31 00
        E 0 80 49 00
        E 2 80 61 00
        E 118 90 31 67
        E 0 90 49 67
        E 1 90 61 67
        E 119 80 31 00
        E 0 80 49 00
        E 1 80 61 00
        E 119 90 49 67
        E 2 90 61 67
        E 118 80 49 00
        E 2 80 61 00
        E 118 90 1a 64
        E 0 90 32 64
        E 0 90 4a 64
        E 0 90 62 64
        E 120 80 1a 00
        E 0 80 32 00
        E 0 80 4a 00
        E 0 80 62 00
        E 120 90 32 64
        E 0 90 4a 64
        E 0 90 62 64
        E 120 80 32 00
        E 0 80 4a 00
        E 0 80 62 00
        E 120 90 1a 64
        E 0 90 32 64
        E 0 90 4a 64
        E 0 90 62 64
        E 120 80 1a 00
        E 0 80 32 00
        E 0 80 4a 00
        E 0 80 62 00
        E 120 90 32 64
        E 0 90 4a 64
        E 0 90 62 64
        E 120 80 32 00
        E 0 80 4a 00
        E 0 80 62 00
        E 120 90 1a 64
        E 0 90 32 64
        E 0 90 4a 64
        E 0 90 62 64
        E 120 80 1a 00
        E 0 80 32 00
        E 0 80 4a 00
        E 0 80 62 00
        E 120 90 49 67
        E 0 90 61 67
        E 120 80 49 00
        E 0 80 61 00
        E 120 90 31 67
        E 0 90 49 67
        E 0 90 61 67
        E 120 80 31 00
        E 0 80 49 00
        E 0 80 61 00
        E 120 90 49 67
        E 0 90 61 67
        E 120 80 49 00
        E 0 80 61 00
        E 120 90 19 66
        E 0 90 31 66
        E 0 90 49 66
        E 0 90 61 66
        E 120 80 19 00
        E 0 80 31 00
        E 0 80 49 00
        E 0 80 61 00
        E 120 90 49 66
        E 0 90 61 66
        E 120 80 49 00
        E 0 80 61 00
        E 120 90 31 67
        E 0 90 49 67
        E 0 90 61 67
        E 120 80 31 00
        E 240 80 49 00
        E 0 80 61 00
        E 120 90 19 66
        E 0 90 31 66
        E 0 90 49 66
        E 0 90 61 66
        E 120 80 19 00
        E 0 80 31 00
        E 0 80 49 00
        E 0 80 61 00
        E 120 90 49 66
        E 0 90 61 66
        E 120 80 49 00
        E 0 80 61 00
        E 120 90 31 67
        E 0 90 49 67
        E 0 90 61 67
        E 120 80 31 00
        E 240 80 49 00
        E 0 80 61 00
        E 120 90 1a 64
        E 0 90 32 64
        E 0 90 4a 64
        E 0 90 62 64
        E 120 80 1a 00
        E 0 80 32 00
        E 0 80 4a 00
        E 0 80 62 00
        E 120 90 32 64
        E 0 90 4a 64
        E 0 90 62 64
        E 120 80 32 00
        E 0 80 4a 00
        E 0 80 62 00
        E 120 90 1a 64
        E 0 90 32 64
        E 0 90 4a 64
        E 0 90 62 64
        E 120 80 1a 00
        E 0 80 32 00
        E 0 80 4a 00
        E 0 80 62 00
        E 120 90 32 64
        E 0 90 4a 64
        E 0 90 62 64
        E 120 80 32 00
        E 0 80 4a 00
        E 0 80 62 00
        E 120 90 1a 64
        E 0 90 32 64
        E 0 90 4a 64
        E 0 90 62 64
        E 120 80 1a 00
        E 0 80 32 00
        E 0 80 4a 00
        E 0 80 62 00
        E 120 90 49 67
        E 0 90 61 67
        E 120 80 49 00
        E 0 80 61 00
        E 120 90 31 67
        E 0 90 49 67
        E 0 90 61 67
        E 120 80 31 00
        E 0 80 49 00
        E 0 80 61 00
        E 120 90 49 67
        E 0 90 61 67
        E 120 80 49 00
        E 0 80 61 00
        E 120 90 19 66
        E 0 90 31 66
        E 0 90 49 66
        E 0 90 61 66
        E 120 80 19 00
        E 0 80 31 00
        E 0 80 49 00
        E 0 80 61 00
        E 120 90 49 66
        E 0 90 61 66
        E 120 80 49 00
        E 0 80 61 00
        E 120 90 31 67
        E 0 90 49 67
        E 0 90 61 67
        E 120 80 31 00
        E 240 80 49 00
        E 0 80 61 00
        E 120 90 19 66
        E 0 90 31 66
        E 0 90 49 66
        E 0 90 61 66
        E 120 80 19 00
        E 0 80 31 00
        E 0 80 49 00
        E 0 80 61 00
        E 120 90 49 66
        E 0 90 61 66
        E 120 80 49 00
        E 0 80 61 00
        E 120 90 31 67
        E 0 90 49 67
        E 0 90 61 67
        E 120 80 31 00
        E 240 80 49 00
        E 0 80 61 00
        E 120 90 1a 64
        E 0 90 32 64
        E 0 90 4a 64
        E 0 90 62 64
        E 120 80 1a 00
        E 0 80 32 00
        E 0 80 4a 00
        E 0 80 62 00
        E 120 90 32 64
        E 0 90 4a 64
        E 0 90 62 64
        E 120 80 32 00
        E 0 80 4a 00
        E 0 80 62 00
        E 120 90 1a 64
        E 0 90 32 64
        E 0 90 4a 64
        E 0 90 62 64
        E 120 80 1a 00
        E 0 80 32 00
        E 0 80 4a 00
        E 0 80 62 00
        E 120 90 32 64
        E 0 90 4a 64
        E 0 90 62 64
        E 120 80 32 00
        E 0 80 4a 00
        E 0 80 62 00
        E 120 90 1a 64
        E 0 90 32 64
        E 0 90 4a 64
        E 0 90 62 64
        E 120 80 1a 00
        E 0 80 32 00
        E 0 80 4a 00
        E 0 80 62 00
        E 120 90 49 67
        E 0 90 61 67
        E 120 80 49 00
        E 0 80 61 00
        E 120 90 31 67
        E 0 90 49 67
        E 0 90 61 67
        E 120 80 31 00
        E 0 80 49 00
        E 0 80 61 00
        E 120 90 49 67
        E 0 90 61 67
        E 120 80 49 00
        E 0 80 61 00
        E 120 90 19 66
        E 0 90 31 66
        E 0 90 49 66
        E 0 90 61 66
        E 120 80 19 00
        E 0 80 31 00
        E 0 80 49 00
        E 0 80 61 00
        E 120 90 49 66
        E 0 90 61 66
        E 120 80 49 00
        E 0 80 61 00
        E 120 90 31 67
        E 0 90 49 67
        E 0 90 61 67
        E 120 80 31 00
        E 240 80 49 00
        E 0 80 61 00
        E 120 90 19 66
        E 0 90 31 66
        E 0 90 49 66
        E 0 90 61 66
        E 120 80 19 00
        E 0 80 31 00
        E 0 80 49 00
        E 0 80 61 00
        E 120 90 49 66
        E 0 90 61 66
        E 120 80 49 00
        E 0 80 61 00
        E 120 90 31 67
        E 0 90 49 67
        E 0 90 61 67
        E 120 80 31 00
        E 240 80 49 00
        E 0 80 61 00
        E 120 90 1a 64
        E 0 90 32 64
        E 0 90 4a 64
        E 0 90 62 64
        E 120 80 1a 00
        E 0 80 32 00
        E 0 80 4a 00
        E 0 80 62 00
        E 120 90 32 64
        E 0 90 4a 64
        E 0 90 62 64
        E 120 80 32 00
        E 0 80 4a 00
        E 0 80 62 00
        E 120 90 1a 64
        E 0 90 32 64
        E 0 90 4a 64
        E 0 90 62 64
        E 120 80 1a 00
        E 0 80 32 00
        E 0 80 4a 00
        E 0 80 62 00
        E 120 90 32 64
        E 0 90 4a 64
        E 0 90 62 64
        E 120 80 32 00
        E 0 80 4a 00
        E 0 80 62 00
        E 120 90 1a 64
        E 0 90 32 64
        E 0 90 4a 64
        E 0 90 62 64
        E 120 80 1a 00
        E 0 80 32 00
        E 0 80 4a 00
        E 0 80 62 00
        E 120 90 49 67
        E 0 90 61 67
        E 120 80 49 00
        E 0 80 61 00
        E 120 90 31 67
        E 0 90 49 67
        E 0 90 61 67
        E 120 80 31 00
        E 0 80 49 00
        E 0 80 61 00
        E 120 90 49 67
        E 0 90 61 67
        E 120 80 49 00
        E 0 80 61 00
        E 120 90 19 66
        E 0 90 31 66
        E 0 90 49 66
        E 0 90 61 66
        E 120 80 19 00
        E 0 80 31 00
        E 0 80 49 00
        E 0 80 61 00
        E 120 90 49 66
        E 0 90 61 66
        E 120 80 49 00
        E 0 80 61 00
        E 120 90 31 67
        E 0 90 49 67
        E 0 90 61 67
        E 120 80 31 00
        E 240 80 49 00
        E 0 80 61 00
        E 120 90 19 66
        E 0 90 31 66
        E 0 90 49 66
        E 0 90 61 66
        E 120 80 19 00
        E 0 80 31 00
        E 0 80 49 00
        E 0 80 61 00
        E 120 90 49 66
        E 0 90 61 66
        E 120 80 49 00
        E 0 80 61 00
        E 120 90 31 67
        E 0 90 49 67
        E 0 90 61 67
        E 479 80 31 00
        E 0 80 49 00
        E 0 80 61 00
        E 1921 b0 7b 00
        GUID {0A6E7D2A-AD8B-46DC-B0A3-586284476170}
        IGNTEMPO 0 120.00000000 4 4
        SRCCOLOR 9
        VELLANE 132 128 60
        COLORMAP "C:\Program Files\REAPER (x64)\Data\color_maps\rockband_guitarbass.png"
        CFGEDITVIEW -10484.073006 7.798504 7 12 0 0 0
        CFGEDIT 1 1 0 1 1 0 1 1 1 1 1 0.25000000 -8 -8 1544 872 0 2 1 1 0.00000000 0 1 0 0 0.500000 0 0 1.000000 64
        KEYSNAP 0 6 "102030050700" 0 "Pentatonic"
        EVTFILTER 0 -1 -1 -1 -1 0 1 0 0 -1.00000000 -1.00000000
      >
    >
  >
  <TRACK '{B733AA8A-5855-42E3-9B09-BA96151B89F1}'
    NAME "PART REAL_GUITAR"
    PEAKCOL 16576
    BEAT -1
    AUTOMODE 0
    VOLPAN 1.00000000000000 0.00000000000000 -1.00000000000000 -1.00000000000000 1.00000000000000
    MUTESOLO 0 0 0
    IPHASE 0
    ISBUS 0 0
    BUSCOMP 0 0
    SHOWINMIX 1 0.666700 0.500000 1 0.500000 -1 -1 -1
    FREEMODE 0
    SEL 0
    REC 0 0 0 0 0 0 0
    VU 2
    TRACKHEIGHT 0 0
    INQ 0 0 0 0.5000000000 100 0 0 100
    NCHAN 2
    FX 0
    TRACKID {B733AA8A-5855-42E3-9B09-BA96151B89F1}
    PERF 0
    MIDIOUT -1
    <MIDINOTENAMES
      0 127 "Trill Marker"
      0 126 "Tremolo Marker"
      0 125 "BRE"
      0 124 "BRE"
      0 123 "BRE"
      0 122 "BRE"
      0 121 "BRE"
      0 120 "BRE (use all 6)"
      0 119 "-----------"
      0 116 "OVERDRIVE"
      0 115 "Solo Marker"
      0 109 "-----------"
      0 108 "Fret Hand Position"
      0 107 "Force Chord Numbering"
      0 106 "Loose Strumming"
      0 105 "Strum Direction"
      0 104 "Arpeggio Marker"
      0 103 "Slide Marker"
      0 102 "Force HOPO"
      0 101 "EXPERT e String"
      0 100 "EXPERT B String"
      0 99 "EXPERT G String"
      0 98 "EXPERT D String"
      0 97 "EXPERT A String"
      0 96 "EXPERT E String"
      0 95 "-----------"
      0 82 "Loose Strumming"
      0 81 "Strum Direction"
      0 80 "Arpeggio Marker"
      0 79 "Slide Marker"
      0 78 "Force HOPO"
      0 77 "HARD e String"
      0 76 "HARD B String"
      0 75 "HARD G String"
      0 74 "HARD D String"
      0 73 "HARD A String"
      0 72 "HARD E String"
      0 71 "-----------"
      0 58 "Loose Strumming"
      0 56 "Arpeggio Marker"
      0 55 "Slide Marker"
      0 53 "MEDIUM e String"
      0 52 "MEDIUM B String"
      0 51 "MEDIUM G String"
      0 50 "MEDIUM D String"
      0 49 "MEDIUM A String"
      0 48 "MEDIUM E String"
      0 47 "-----------"
      0 32 "Arpeggio Marker"
      0 31 "Slide Marker"
      0 29 "EASY e String"
      0 28 "EASY B String"
      0 27 "EASY G String"
      0 26 "EASY D String"
      0 25 "EASY A String"
      0 24 "EASY E String"
      0 21 "-----------"
      0 18 "Flat/Sharp Swap"
      0 17 "Hide Chord Names"
      0 16 "Slash Chord"
      0 15 "D#"
      0 14 "D"
      0 13 "C#"
      0 12 "C"
      0 11 "B"
      0 10 "A#"
      0 9 "A"
      0 8 "G#"
      0 7 "G"
      0 6 "F#"
      0 5 "F"
      0 4 "E"
    >
    MAINSEND 1 0
    <FXCHAIN
      WNDRECT 0 43 655 467
      SHOW 0
      LASTSEL 1
      DOCKED 0
      BYPASS 0 0
      <JS "c3/progtr" ""
        0.000000 3.000000 0.000000 0.000000 0.000000 0.000000 0.000000 0.000000 0.000000 1.000000 - - - - - - - - - - - - - - - - - - - - - - - - - - - - - - - - - - - - - - - - - - - - - - - - - - - - - - 
      >
      FLOATPOS 0 0 0 0
      FXID {1BA22781-1872-4ACF-998C-6C63CCED17A8}
      WAK 0
      BYPASS 0 0
      <VST "VSTi: ReaSynth (Cockos)" "reasynth.dll" 0 ""
        eXNlcu9e7f4AAAAAAgAAAAEAAAAAAAAAAgAAAAAAAAA4AAAAAAAAAA==
        AAAQAO++rd4N8K3eppvEO+gJMjyHFlk/AAAAAAAAAADMm4A+4jAEPA==
        AAAAAAAAAD+01hM+j8L1PQAAAD8AABAAAAA=
      >
      FLOATPOS 0 0 0 0
      FXID {57421BC4-D1C0-4D8A-B383-5C78C01CEC30}
      WAK 0
    >
    <ITEM
      POSITION 0.00000000000000
      SNAPOFFS 0.00000000000000
      LENGTH 144.00200000000001
      LOOP 0
      ALLTAKES 0
      SEL 0
      FADEIN 1 0.000000 0.000000 1 0
      FADEOUT 1 0.000000 0.000000 1 0
      MUTE 0
      IGUID {BF03A4C0-7BD9-4B59-9B23-3E98D734C0F1}
      IID 8
      NAME "PART REAL_GUITAR"
      VOLPAN 1.000000 0.000000 1.000000 -1.000000
      SOFFS 0.00000000000000 0.00000000000000
      PLAYRATE 1.00000000000000 1 0.00000000000000 -1
      CHANMODE 0
      GUID {9F417A5D-F67B-48F5-B23C-5DE9EFE2B68F}
      <SOURCE MIDI
        HASDATA 1 480 QN
        POOLEDEVTS {5E6572A1-E9DE-4075-9322-A7D3E1780B05}
        <X 0 0
          /wNQQVJUIFJFQUxfR1VJVEFS
        >
        <X 5760 0
          /wFbYmVnaW5fcGcgc29uZ190cmFpbmVyX3BnXzFd
        >
        E 0 90 0e 64
        E 0 90 19 69
        E 0 90 31 69
        E 0 90 32 6b
        E 0 90 49 69
        E 0 90 4a 6b
        E 0 90 4b 6b
        E 0 90 4c 6b
        E 0 90 61 69
        E 0 90 62 6b
        E 0 90 63 6b
        E 0 90 64 6b
        E 0 90 6c 69
        E 120 80 0e 00
        E 0 80 19 00
        E 0 80 31 00
        E 0 80 32 00
        E 0 80 49 00
        E 0 80 4a 00
        E 0 80 4b 00
        E 0 80 4c 00
        E 0 80 61 00
        E 0 80 62 00
        E 0 80 63 00
        E 0 80 64 00
        E 0 80 6c 00
        E 120 90 31 69
        E 0 90 32 6b
        E 0 90 49 69
        E 0 90 4a 6b
        E 0 90 4b 6b
        E 0 90 4c 6b
        E 0 90 61 69
        E 0 90 62 6b
        E 0 90 63 6b
        E 0 90 64 6b
        E 120 80 31 00
        E 0 80 32 00
        E 0 80 49 00
        E 0 80 4a 00
        E 0 80 4b 00
        E 0 80 4c 00
        E 0 80 61 00
        E 0 80 62 00
        E 0 80 63 00
        E 0 80 64 00
        E 120 90 19 69
        E 0 90 31 69
        E 0 90 32 6b
        E 0 90 49 69
        E 0 90 4a 6b
        E 0 90 4b 6b
        E 0 90 4c 6b
        E 0 90 61 69
        E 0 90 62 6b
        E 0 90 63 6b
        E 0 90 64 6b
        E 120 80 19 00
        E 0 80 31 00
        E 0 80 32 00
        E 0 80 49 00
        E 0 80 4a 00
        E 0 80 4b 00
        E 0 80 4c 00
        E 0 80 61 00
        E 0 80 62 00
        E 0 80 63 00
        E 0 80 64 00
        E 120 90 31 69
        E 0 90 32 6b
        E 0 90 49 69
        E 0 90 4a 6b
        E 0 90 4b 6b
        E 0 90 4c 6b
        E 0 90 61 69
        E 0 90 62 6b
        E 0 90 63 6b
        E 0 90 64 6b
        E 120 80 31 00
        E 0 80 32 00
        E 0 80 49 00
        E 0 80 4a 00
        E 0 80 4b 00
        E 0 80 4c 00
        E 0 80 61 00
        E 0 80 62 00
        E 0 80 63 00
        E 0 80 64 00
        E 120 90 19 69
        E 0 90 31 69
        E 0 90 32 6b
        E 0 90 49 69
        E 0 90 4a 6b
        E 0 90 4b 6b
        E 0 90 4c 6b
        E 0 90 61 69
        E 0 90 62 6b
        E 0 90 63 6b
        E 0 90 64 6b
        E 120 80 19 00
        E 0 80 31 00
        E 0 80 32 00
        E 0 80 49 00
        E 0 80 4a 00
        E 0 80 4b 00
        E 0 80 4c 00
        E 0 80 61 00
        E 0 80 62 00
        E 0 80 63 00
        E 0 80 64 00
        E 120 90 09 64
        E 0 90 10 64
        E 0 90 49 6b
        E 0 90 4a 6b
        E 0 90 4b 6d
        E 0 90 4c 6e
        E 0 90 61 6b
        E 0 90 62 6b
        E 0 90 63 6d
        E 0 90 64 6e
        E 0 90 6c 6b
        E 120 80 09 00
        E 0 80 49 00
        E 0 80 4a 00
        E 0 80 4b 00
        E 0 80 4c 00
        E 0 80 61 00
        E 0 80 62 00
        E 0 80 63 00
        E 0 80 64 00
        E 0 80 6c 00
        E 120 90 31 6b
        E 0 90 32 6b
        E 0 90 49 6b
        E 0 90 4a 6b
        E 0 90 4b 6d
        E 0 90 4c 6e
        E 0 90 61 6b
        E 0 90 62 6b
        E 0 90 63 6d
        E 0 90 64 6e
        E 120 80 31 00
        E 0 80 32 00
        E 0 80 49 00
        E 0 80 4a 00
        E 0 80 4b 00
        E 0 80 4c 00
        E 0 80 61 00
        E 0 80 62 00
        E 0 80 63 00
        E 0 80 64 00
        E 120 90 49 6b
        E 0 90 4a 6b
        E 0 90 4b 6d
        E 0 90 4c 6e
        E 0 90 61 6b
        E 0 90 62 6b
        E 0 90 63 6d
        E 0 90 64 6e
        E 120 80 49 00
        E 0 80 4a 00
        E 0 80 4b 00
        E 0 80 4c 00
        E 0 80 61 00
        E 0 80 62 00
        E 0 80 63 00
        E 0 80 64 00
        <X 120 0
          /wFbcGdfbm9ybSBzb25nX3RyYWluZXJfcGdfMV0=
        >
        E 0 90 07 64
        E 0 90 19 69
        E 0 90 31 69
        E 0 90 32 69
        E 0 90 49 69
        E 0 90 4a 69
        E 0 90 4b 6b
        E 0 90 4c 6c
        E 0 90 61 69
        E 0 90 62 69
        E 0 90 63 6b
        E 0 90 64 6c
        E 0 90 6c 69
        E 120 80 07 00
        E 0 80 19 00
        E 0 80 31 00
        E 0 80 32 00
        E 0 80 49 00
        E 0 80 4a 00
        E 0 80 4b 00
        E 0 80 4c 00
        E 0 80 61 00
        E 0 80 62 00
        E 0 80 63 00
        E 0 80 64 00
        E 0 80 6c 00
        E 120 90 49 69
        E 0 90 4a 69
        E 0 90 4b 6b
        E 0 90 4c 6c
        E 0 90 61 69
        E 0 90 62 69
        E 0 90 63 6b
        E 0 90 64 6c
        E 120 80 49 00
        E 0 80 4a 00
        E 0 80 4b 00
        E 0 80 4c 00
        E 0 80 61 00
        E 0 80 62 00
        E 0 80 63 00
        E 0 80 64 00
        E 120 90 09 64
        E 0 90 31 6b
        E 0 90 32 6b
        E 0 90 49 6b
        E 0 90 4a 6b
        E 0 90 4b 6d
        E 0 90 4c 6e
        E 0 90 61 6b
        E 0 90 62 6b
        E 0 90 63 6d
        E 0 90 64 6e
        E 0 90 6c 6b
        E 120 80 09 00
        E 0 80 31 00
        E 0 80 32 00
        E 0 80 6c 00
        E 240 80 49 00
        E 0 80 4a 00
        E 0 80 4b 00
        E 0 80 4c 00
        E 0 80 61 00
        E 0 80 62 00
        E 0 80 63 00
        E 0 80 64 00
        E 120 90 07 64
        E 0 90 19 69
        E 0 90 31 69
        E 0 90 32 69
        E 0 90 49 69
        E 0 90 4a 69
        E 0 90 4b 6b
        E 0 90 4c 6c
        E 0 90 61 69
        E 0 90 62 69
        E 0 90 63 6b
        E 0 90 64 6c
        E 0 90 6c 69
        E 120 80 07 00
        E 0 80 19 00
        E 0 80 31 00
        E 0 80 32 00
        E 0 80 49 00
        E 0 80 4a 00
        E 0 80 4b 00
        E 0 80 4c 00
        E 0 80 61 00
        E 0 80 62 00
        E 0 80 63 00
        E 0 80 64 00
        E 0 80 6c 00
        E 120 90 49 69
        E 0 90 4a 69
        E 0 90 4b 6b
        E 0 90 4c 6c
        E 0 90 61 69
        E 0 90 62 69
        E 0 90 63 6b
        E 0 90 64 6c
        E 120 80 49 00
        E 0 80 4a 00
        E 0 80 4b 00
        E 0 80 4c 00
        E 0 80 61 00
        E 0 80 62 00
        E 0 80 63 00
        E 0 80 64 00
        E 120 90 09 64
        E 0 90 31 6b
        E 0 90 32 6b
        E 0 90 49 6b
        E 0 90 4a 6b
        E 0 90 4b 6d
        E 0 90 4c 6e
        E 0 90 61 6b
        E 0 90 62 6b
        E 0 90 63 6d
        E 0 90 64 6e
        E 0 90 6c 6b
        E 120 80 10 00
        E 0 80 09 00
        E 0 80 31 00
        E 0 80 32 00
        E 0 80 6c 00
        E 240 80 49 00
        E 0 80 4a 00
        E 0 80 4b 00
        E 0 80 4c 00
        E 0 80 61 00
        E 0 80 62 00
        E 0 80 63 00
        E 0 80 64 00
        E 120 90 0e 64
        E 0 90 19 69
        E 0 90 31 69
        E 0 90 32 6b
        E 0 90 49 69
        E 0 90 4a 6b
        E 0 90 4b 6b
        E 0 90 4c 6b
        E 0 90 61 69
        E 0 90 62 6b
        E 0 90 63 6b
        E 0 90 64 6b
        E 0 90 6c 69
        E 120 80 0e 00
        E 0 80 19 00
        E 0 80 31 00
        E 0 80 32 00
        E 0 80 49 00
        E 0 80 4a 00
        E 0 80 4b 00
        E 0 80 4c 00
        E 0 80 61 00
        E 0 80 62 00
        E 0 80 63 00
        E 0 80 64 00
        E 0 80 6c 00
        E 120 90 31 69
        E 0 90 32 6b
        E 0 90 49 69
        E 0 90 4a 6b
        E 0 90 4b 6b
        E 0 90 4c 6b
        E 0 90 61 69
        E 0 90 62 6b
        E 0 90 63 6b
        E 0 90 64 6b
        E 120 80 31 00
        E 0 80 32 00
        E 0 80 49 00
        E 0 80 4a 00
        E 0 80 4b 00
        E 0 80 4c 00
        E 0 80 61 00
        E 0 80 62 00
        E 0 80 63 00
        E 0 80 64 00
        E 120 90 19 69
        E 0 90 31 69
        E 0 90 32 6b
        E 0 90 49 69
        E 0 90 4a 6b
        E 0 90 4b 6b
        E 0 90 4c 6b
        E 0 90 61 69
        E 0 90 62 6b
        E 0 90 63 6b
        E 0 90 64 6b
        E 120 80 19 00
        E 0 80 31 00
        E 0 80 32 00
        E 0 80 49 00
        E 0 80 4a 00
        E 0 80 4b 00
        E 0 80 4c 00
        E 0 80 61 00
        E 0 80 62 00
        E 0 80 63 00
        E 0 80 64 00
        E 120 90 31 69
        E 0 90 32 6b
        E 0 90 49 69
        E 0 90 4a 6b
        E 0 90 4b 6b
        E 0 90 4c 6b
        E 0 90 61 69
        E 0 90 62 6b
        E 0 90 63 6b
        E 0 90 64 6b
        E 120 80 31 00
        E 0 80 32 00
        E 0 80 49 00
        E 0 80 4a 00
        E 0 80 4b 00
        E 0 80 4c 00
        E 0 80 61 00
        E 0 80 62 00
        E 0 80 63 00
        E 0 80 64 00
        E 120 90 19 69
        E 0 90 31 69
        E 0 90 32 6b
        E 0 90 49 69
        E 0 90 4a 6b
        E 0 90 4b 6b
        E 0 90 4c 6b
        E 0 90 61 69
        E 0 90 62 6b
        E 0 90 63 6b
        E 0 90 64 6b
        E 120 80 19 00
        E 0 80 31 00
        E 0 80 32 00
        E 0 80 49 00
        E 0 80 4a 00
        E 0 80 4b 00
        E 0 80 4c 00
        E 0 80 61 00
        E 0 80 62 00
        E 0 80 63 00
        E 0 80 64 00
        E 120 90 09 64
        E 0 90 10 64
        E 0 90 49 6b
        E 0 90 4a 6b
        E 0 90 4b 6d
        E 0 90 4c 6e
        E 0 90 61 6b
        E 0 90 62 6b
        E 0 90 63 6d
        E 0 90 64 6e
        E 0 90 6c 6b
        E 120 80 09 00
        E 0 80 49 00
        E 0 80 4a 00
        E 0 80 4b 00
        E 0 80 4c 00
        E 0 80 61 00
        E 0 80 62 00
        E 0 80 63 00
        E 0 80 64 00
        E 0 80 6c 00
        E 120 90 31 6b
        E 0 90 32 6b
        E 0 90 49 6b
        E 0 90 4a 6b
        E 0 90 4b 6d
        E 0 90 4c 6e
        E 0 90 61 6b
        E 0 90 62 6b
        E 0 90 63 6d
        E 0 90 64 6e
        E 120 80 31 00
        E 0 80 32 00
        E 0 80 49 00
        E 0 80 4a 00
        E 0 80 4b 00
        E 0 80 4c 00
        E 0 80 61 00
        E 0 80 62 00
        E 0 80 63 00
        E 0 80 64 00
        E 120 90 49 6b
        E 0 90 4a 6b
        E 0 90 4b 6d
        E 0 90 4c 6e
        E 0 90 61 6b
        E 0 90 62 6b
        E 0 90 63 6d
        E 0 90 64 6e
        E 120 80 49 00
        E 0 80 4a 00
        E 0 80 4b 00
        E 0 80 4c 00
        E 0 80 61 00
        E 0 80 62 00
        E 0 80 63 00
        E 0 80 64 00
        E 120 90 07 64
        E 0 90 19 69
        E 0 90 31 69
        E 0 90 32 69
        E 0 90 49 69
        E 0 90 4a 69
        E 0 90 4b 6b
        E 0 90 4c 6c
        E 0 90 61 69
        E 0 90 62 69
        E 0 90 63 6b
        E 0 90 64 6c
        E 0 90 6c 69
        E 120 80 07 00
        E 0 80 19 00
        E 0 80 31 00
        E 0 80 32 00
        E 0 80 49 00
        E 0 80 4a 00
        E 0 80 4b 00
        E 0 80 4c 00
        E 0 80 61 00
        E 0 80 62 00
        E 0 80 63 00
        E 0 80 64 00
        E 0 80 6c 00
        E 120 90 49 69
        E 0 90 4a 69
        E 0 90 4b 6b
        E 0 90 4c 6c
        E 0 90 61 69
        E 0 90 62 69
        E 0 90 63 6b
        E 0 90 64 6c
        E 120 80 49 00
        E 0 80 4a 00
        E 0 80 4b 00
        E 0 80 4c 00
        E 0 80 61 00
        E 0 80 62 00
        E 0 80 63 00
        E 0 80 64 00
        E 120 90 09 64
        E 0 90 31 6b
        E 0 90 32 6b
        E 0 90 49 6b
        E 0 90 4a 6b
        E 0 90 4b 6d
        E 0 90 4c 6e
        E 0 90 61 6b
        E 0 90 62 6b
        E 0 90 63 6d
        E 0 90 64 6e
        E 0 90 6c 6b
        E 120 80 09 00
        E 0 80 31 00
        E 0 80 32 00
        E 0 80 6c 00
        E 240 80 49 00
        E 0 80 4a 00
        E 0 80 4b 00
        E 0 80 4c 00
        E 0 80 61 00
        E 0 80 62 00
        E 0 80 63 00
        E 0 80 64 00
        E 120 90 07 64
        E 0 90 19 69
        E 0 90 31 69
        E 0 90 32 69
        E 0 90 49 69
        E 0 90 4a 69
        E 0 90 4b 6b
        E 0 90 4c 6c
        E 0 90 61 69
        E 0 90 62 69
        E 0 90 63 6b
        E 0 90 64 6c
        E 0 90 6c 69
        E 120 80 07 00
        E 0 80 19 00
        E 0 80 31 00
        E 0 80 32 00
        E 0 80 49 00
        E 0 80 4a 00
        E 0 80 4b 00
        E 0 80 4c 00
        E 0 80 61 00
        E 0 80 62 00
        E 0 80 63 00
        E 0 80 64 00
        E 0 80 6c 00
        E 120 90 49 69
        E 0 90 4a 69
        E 0 90 4b 6b
        E 0 90 4c 6c
        E 0 90 61 69
        E 0 90 62 69
        E 0 90 63 6b
        E 0 90 64 6c
        E 120 80 49 00
        E 0 80 4a 00
        E 0 80 4b 00
        E 0 80 4c 00
        E 0 80 61 00
        E 0 80 62 00
        E 0 80 63 00
        E 0 80 64 00
        E 120 90 09 64
        E 0 90 31 6b
        E 0 90 32 6b
        E 0 90 49 6b
        E 0 90 4a 6b
        E 0 90 4b 6d
        E 0 90 4c 6e
        E 0 90 61 6b
        E 0 90 62 6b
        E 0 90 63 6d
        E 0 90 64 6e
        E 0 90 6c 6b
        E 120 80 10 00
        E 0 80 09 00
        E 0 80 31 00
        E 0 80 32 00
        E 0 80 6c 00
        E 240 80 49 00
        E 0 80 4a 00
        E 0 80 4b 00
        E 0 80 4c 00
        E 0 80 61 00
        E 0 80 62 00
        E 0 80 63 00
        E 0 80 64 00
        <X 120 0
          /wFbZW5kX3BnIHNvbmdfdHJhaW5lcl9wZ18xXQ==
        >
        E 0 90 0e 64
        E 0 90 19 69
        E 0 90 31 69
        E 0 90 32 6b
        E 0 90 49 69
        E 0 90 4a 6b
        E 0 90 4b 6b
        E 0 90 4c 6b
        E 0 90 61 69
        E 0 90 62 6b
        E 0 90 63 6b
        E 0 90 64 6b
        E 0 90 6c 69
        E 120 80 0e 00
        E 0 80 19 00
        E 0 80 31 00
        E 0 80 32 00
        E 0 80 49 00
        E 0 80 4a 00
        E 0 80 4b 00
        E 0 80 4c 00
        E 0 80 61 00
        E 0 80 62 00
        E 0 80 63 00
        E 0 80 64 00
        E 0 80 6c 00
        E 120 90 31 69
        E 0 90 32 6b
        E 0 90 49 69
        E 0 90 4a 6b
        E 0 90 4b 6b
        E 0 90 4c 6b
        E 0 90 61 69
        E 0 90 62 6b
        E 0 90 63 6b
        E 0 90 64 6b
        E 120 80 31 00
        E 0 80 32 00
        E 0 80 49 00
        E 0 80 4a 00
        E 0 80 4b 00
        E 0 80 4c 00
        E 0 80 61 00
        E 0 80 62 00
        E 0 80 63 00
        E 0 80 64 00
        E 120 90 19 69
        E 0 90 31 69
        E 0 90 32 6b
        E 0 90 49 69
        E 0 90 4a 6b
        E 0 90 4b 6b
        E 0 90 4c 6b
        E 0 90 61 69
        E 0 90 62 6b
        E 0 90 63 6b
        E 0 90 64 6b
        E 120 80 19 00
        E 0 80 31 00
        E 0 80 32 00
        E 0 80 49 00
        E 0 80 4a 00
        E 0 80 4b 00
        E 0 80 4c 00
        E 0 80 61 00
        E 0 80 62 00
        E 0 80 63 00
        E 0 80 64 00
        E 120 90 31 69
        E 0 90 32 6b
        E 0 90 49 69
        E 0 90 4a 6b
        E 0 90 4b 6b
        E 0 90 4c 6b
        E 0 90 61 69
        E 0 90 62 6b
        E 0 90 63 6b
        E 0 90 64 6b
        E 120 80 31 00
        E 0 80 32 00
        E 0 80 49 00
        E 0 80 4a 00
        E 0 80 4b 00
        E 0 80 4c 00
        E 0 80 61 00
        E 0 80 62 00
        E 0 80 63 00
        E 0 80 64 00
        E 120 90 19 69
        E 0 90 31 69
        E 0 90 32 6b
        E 0 90 49 69
        E 0 90 4a 6b
        E 0 90 4b 6b
        E 0 90 4c 6b
        E 0 90 61 69
        E 0 90 62 6b
        E 0 90 63 6b
        E 0 90 64 6b
        E 120 80 19 00
        E 0 80 31 00
        E 0 80 32 00
        E 0 80 49 00
        E 0 80 4a 00
        E 0 80 4b 00
        E 0 80 4c 00
        E 0 80 61 00
        E 0 80 62 00
        E 0 80 63 00
        E 0 80 64 00
        E 120 90 09 64
        E 0 90 10 64
        E 0 90 49 6b
        E 0 90 4a 6b
        E 0 90 4b 6d
        E 0 90 4c 6e
        E 0 90 61 6b
        E 0 90 62 6b
        E 0 90 63 6d
        E 0 90 64 6e
        E 0 90 6c 6b
        E 120 80 09 00
        E 0 80 49 00
        E 0 80 4a 00
        E 0 80 4b 00
        E 0 80 4c 00
        E 0 80 61 00
        E 0 80 62 00
        E 0 80 63 00
        E 0 80 64 00
        E 0 80 6c 00
        E 120 90 31 6b
        E 0 90 32 6b
        E 0 90 49 6b
        E 0 90 4a 6b
        E 0 90 4b 6d
        E 0 90 4c 6e
        E 0 90 61 6b
        E 0 90 62 6b
        E 0 90 63 6d
        E 0 90 64 6e
        E 120 80 31 00
        E 0 80 32 00
        E 0 80 49 00
        E 0 80 4a 00
        E 0 80 4b 00
        E 0 80 4c 00
        E 0 80 61 00
        E 0 80 62 00
        E 0 80 63 00
        E 0 80 64 00
        E 120 90 49 6b
        E 0 90 4a 6b
        E 0 90 4b 6d
        E 0 90 4c 6e
        E 0 90 61 6b
        E 0 90 62 6b
        E 0 90 63 6d
        E 0 90 64 6e
        E 120 80 49 00
        E 0 80 4a 00
        E 0 80 4b 00
        E 0 80 4c 00
        E 0 80 61 00
        E 0 80 62 00
        E 0 80 63 00
        E 0 80 64 00
        E 120 90 07 64
        E 0 90 19 69
        E 0 90 31 69
        E 0 90 32 69
        E 0 90 49 69
        E 0 90 4a 69
        E 0 90 4b 6b
        E 0 90 4c 6c
        E 0 90 61 69
        E 0 90 62 69
        E 0 90 63 6b
        E 0 90 64 6c
        E 0 90 6c 69
        E 120 80 07 00
        E 0 80 19 00
        E 0 80 31 00
        E 0 80 32 00
        E 0 80 49 00
        E 0 80 4a 00
        E 0 80 4b 00
        E 0 80 4c 00
        E 0 80 61 00
        E 0 80 62 00
        E 0 80 63 00
        E 0 80 64 00
        E 0 80 6c 00
        E 120 90 49 69
        E 0 90 4a 69
        E 0 90 4b 6b
        E 0 90 4c 6c
        E 0 90 61 69
        E 0 90 62 69
        E 0 90 63 6b
        E 0 90 64 6c
        E 120 80 49 00
        E 0 80 4a 00
        E 0 80 4b 00
        E 0 80 4c 00
        E 0 80 61 00
        E 0 80 62 00
        E 0 80 63 00
        E 0 80 64 00
        E 120 90 09 64
        E 0 90 31 6b
        E 0 90 32 6b
        E 0 90 49 6b
        E 0 90 4a 6b
        E 0 90 4b 6d
        E 0 90 4c 6e
        E 0 90 61 6b
        E 0 90 62 6b
        E 0 90 63 6d
        E 0 90 64 6e
        E 0 90 6c 6b
        E 120 80 09 00
        E 0 80 31 00
        E 0 80 32 00
        E 0 80 6c 00
        E 240 80 49 00
        E 0 80 4a 00
        E 0 80 4b 00
        E 0 80 4c 00
        E 0 80 61 00
        E 0 80 62 00
        E 0 80 63 00
        E 0 80 64 00
        E 120 90 07 64
        E 0 90 19 69
        E 0 90 31 69
        E 0 90 32 69
        E 0 90 49 69
        E 0 90 4a 69
        E 0 90 4b 6b
        E 0 90 4c 6c
        E 0 90 61 69
        E 0 90 62 69
        E 0 90 63 6b
        E 0 90 64 6c
        E 0 90 6c 69
        E 120 80 07 00
        E 0 80 19 00
        E 0 80 31 00
        E 0 80 32 00
        E 0 80 49 00
        E 0 80 4a 00
        E 0 80 4b 00
        E 0 80 4c 00
        E 0 80 61 00
        E 0 80 62 00
        E 0 80 63 00
        E 0 80 64 00
        E 0 80 6c 00
        E 120 90 49 69
        E 0 90 4a 69
        E 0 90 4b 6b
        E 0 90 4c 6c
        E 0 90 61 69
        E 0 90 62 69
        E 0 90 63 6b
        E 0 90 64 6c
        E 120 80 49 00
        E 0 80 4a 00
        E 0 80 4b 00
        E 0 80 4c 00
        E 0 80 61 00
        E 0 80 62 00
        E 0 80 63 00
        E 0 80 64 00
        E 120 90 09 64
        E 0 90 31 6b
        E 0 90 32 6b
        E 0 90 49 6b
        E 0 90 4a 6b
        E 0 90 4b 6d
        E 0 90 4c 6e
        E 0 90 61 6b
        E 0 90 62 6b
        E 0 90 63 6d
        E 0 90 64 6e
        E 0 90 6c 6b
        E 120 80 10 00
        E 0 80 09 00
        E 0 80 31 00
        E 0 80 32 00
        E 0 80 6c 00
        E 240 80 49 00
        E 0 80 4a 00
        E 0 80 4b 00
        E 0 80 4c 00
        E 0 80 61 00
        E 0 80 62 00
        E 0 80 63 00
        E 0 80 64 00
        E 120 90 0e 64
        E 0 90 19 69
        E 0 90 31 69
        E 0 90 32 6b
        E 0 90 49 69
        E 0 90 4a 6b
        E 0 90 4b 6b
        E 0 90 4c 6b
        E 0 90 61 69
        E 0 90 62 6b
        E 0 90 63 6b
        E 0 90 64 6b
        E 0 90 6c 69
        E 0 90 74 64
        E 120 80 0e 00
        E 0 80 19 00
        E 0 80 31 00
        E 0 80 32 00
        E 0 80 49 00
        E 0 80 4a 00
        E 0 80 4b 00
        E 0 80 4c 00
        E 0 80 61 00
        E 0 80 62 00
        E 0 80 63 00
        E 0 80 64 00
        E 0 80 6c 00
        E 120 90 31 69
        E 0 90 32 6b
        E 0 90 49 69
        E 0 90 4a 6b
        E 0 90 4b 6b
        E 0 90 4c 6b
        E 0 90 61 69
        E 0 90 62 6b
        E 0 90 63 6b
        E 0 90 64 6b
        E 120 80 31 00
        E 0 80 32 00
        E 0 80 49 00
        E 0 80 4a 00
        E 0 80 4b 00
        E 0 80 4c 00
        E 0 80 61 00
        E 0 80 62 00
        E 0 80 63 00
        E 0 80 64 00
        E 120 90 19 69
        E 0 90 31 69
        E 0 90 32 6b
        E 0 90 49 69
        E 0 90 4a 6b
        E 0 90 4b 6b
        E 0 90 4c 6b
        E 0 90 61 69
        E 0 90 62 6b
        E 0 90 63 6b
        E 0 90 64 6b
        E 120 80 19 00
        E 0 80 31 00
        E 0 80 32 00
        E 0 80 49 00
        E 0 80 4a 00
        E 0 80 4b 00
        E 0 80 4c 00
        E 0 80 61 00
        E 0 80 62 00
        E 0 80 63 00
        E 0 80 64 00
        E 120 90 31 69
        E 0 90 32 6b
        E 0 90 49 69
        E 0 90 4a 6b
        E 0 90 4b 6b
        E 0 90 4c 6b
        E 0 90 61 69
        E 0 90 62 6b
        E 0 90 63 6b
        E 0 90 64 6b
        E 120 80 31 00
        E 0 80 32 00
        E 0 80 49 00
        E 0 80 4a 00
        E 0 80 4b 00
        E 0 80 4c 00
        E 0 80 61 00
        E 0 80 62 00
        E 0 80 63 00
        E 0 80 64 00
        E 120 90 19 69
        E 0 90 31 69
        E 0 90 32 6b
        E 0 90 49 69
        E 0 90 4a 6b
        E 0 90 4b 6b
        E 0 90 4c 6b
        E 0 90 61 69
        E 0 90 62 6b
        E 0 90 63 6b
        E 0 90 64 6b
        E 120 80 19 00
        E 0 80 31 00
        E 0 80 32 00
        E 0 80 49 00
        E 0 80 4a 00
        E 0 80 4b 00
        E 0 80 4c 00
        E 0 80 61 00
        E 0 80 62 00
        E 0 80 63 00
        E 0 80 64 00
        E 120 90 09 64
        E 0 90 10 64
        E 0 90 49 6b
        E 0 90 4a 6b
        E 0 90 4b 6d
        E 0 90 4c 6e
        E 0 90 61 6b
        E 0 90 62 6b
        E 0 90 63 6d
        E 0 90 64 6e
        E 0 90 6c 6b
        E 120 80 09 00
        E 0 80 49 00
        E 0 80 4a 00
        E 0 80 4b 00
        E 0 80 4c 00
        E 0 80 61 00
        E 0 80 62 00
        E 0 80 63 00
        E 0 80 64 00
        E 0 80 6c 00
        E 120 90 31 6b
        E 0 90 32 6b
        E 0 90 49 6b
        E 0 90 4a 6b
        E 0 90 4b 6d
        E 0 90 4c 6e
        E 0 90 61 6b
        E 0 90 62 6b
        E 0 90 63 6d
        E 0 90 64 6e
        E 120 80 31 00
        E 0 80 32 00
        E 0 80 49 00
        E 0 80 4a 00
        E 0 80 4b 00
        E 0 80 4c 00
        E 0 80 61 00
        E 0 80 62 00
        E 0 80 63 00
        E 0 80 64 00
        E 120 90 49 6b
        E 0 90 4a 6b
        E 0 90 4b 6d
        E 0 90 4c 6e
        E 0 90 61 6b
        E 0 90 62 6b
        E 0 90 63 6d
        E 0 90 64 6e
        E 120 80 49 00
        E 0 80 4a 00
        E 0 80 4b 00
        E 0 80 4c 00
        E 0 80 61 00
        E 0 80 62 00
        E 0 80 63 00
        E 0 80 64 00
        E 120 90 07 64
        E 0 90 19 69
        E 0 90 31 69
        E 0 90 32 69
        E 0 90 49 69
        E 0 90 4a 69
        E 0 90 4b 6b
        E 0 90 4c 6c
        E 0 90 61 69
        E 0 90 62 69
        E 0 90 63 6b
        E 0 90 64 6c
        E 0 90 6c 69
        E 120 80 07 00
        E 0 80 19 00
        E 0 80 31 00
        E 0 80 32 00
        E 0 80 49 00
        E 0 80 4a 00
        E 0 80 4b 00
        E 0 80 4c 00
        E 0 80 61 00
        E 0 80 62 00
        E 0 80 63 00
        E 0 80 64 00
        E 0 80 6c 00
        E 120 90 49 69
        E 0 90 4a 69
        E 0 90 4b 6b
        E 0 90 4c 6c
        E 0 90 61 69
        E 0 90 62 69
        E 0 90 63 6b
        E 0 90 64 6c
        E 120 80 49 00
        E 0 80 4a 00
        E 0 80 4b 00
        E 0 80 4c 00
        E 0 80 61 00
        E 0 80 62 00
        E 0 80 63 00
        E 0 80 64 00
        E 120 90 09 64
        E 0 90 31 6b
        E 0 90 32 6b
        E 0 90 49 6b
        E 0 90 4a 6b
        E 0 90 4b 6d
        E 0 90 4c 6e
        E 0 90 61 6b
        E 0 90 62 6b
        E 0 90 63 6d
        E 0 90 64 6e
        E 0 90 6c 6b
        E 120 80 09 00
        E 0 80 31 00
        E 0 80 32 00
        E 0 80 6c 00
        E 240 80 49 00
        E 0 80 4a 00
        E 0 80 4b 00
        E 0 80 4c 00
        E 0 80 61 00
        E 0 80 62 00
        E 0 80 63 00
        E 0 80 64 00
        E 120 90 07 64
        E 0 90 19 69
        E 0 90 31 69
        E 0 90 32 69
        E 0 90 49 69
        E 0 90 4a 69
        E 0 90 4b 6b
        E 0 90 4c 6c
        E 0 90 61 69
        E 0 90 62 69
        E 0 90 63 6b
        E 0 90 64 6c
        E 0 90 6c 69
        E 120 80 07 00
        E 0 80 19 00
        E 0 80 31 00
        E 0 80 32 00
        E 0 80 49 00
        E 0 80 4a 00
        E 0 80 4b 00
        E 0 80 4c 00
        E 0 80 61 00
        E 0 80 62 00
        E 0 80 63 00
        E 0 80 64 00
        E 0 80 6c 00
        E 120 90 49 69
        E 0 90 4a 69
        E 0 90 4b 6b
        E 0 90 4c 6c
        E 0 90 61 69
        E 0 90 62 69
        E 0 90 63 6b
        E 0 90 64 6c
        E 120 80 49 00
        E 0 80 4a 00
        E 0 80 4b 00
        E 0 80 4c 00
        E 0 80 61 00
        E 0 80 62 00
        E 0 80 63 00
        E 0 80 64 00
        E 120 90 09 64
        E 0 90 31 6b
        E 0 90 32 6b
        E 0 90 49 6b
        E 0 90 4a 6b
        E 0 90 4b 6d
        E 0 90 4c 6e
        E 0 90 61 6b
        E 0 90 62 6b
        E 0 90 63 6d
        E 0 90 64 6e
        E 0 90 6c 6b
        E 120 80 10 00
        E 0 80 09 00
        E 0 80 31 00
        E 0 80 32 00
        E 0 80 6c 00
        E 240 80 49 00
        E 0 80 4a 00
        E 0 80 4b 00
        E 0 80 4c 00
        E 0 80 61 00
        E 0 80 62 00
        E 0 80 63 00
        E 0 80 64 00
        <X 120 0
          /wFbYmVnaW5fcGcgc29uZ190cmFpbmVyX3BnXzJd
        >
        E 0 80 74 00
        E 240 90 33 6b
        E 0 90 4b 6b
        E 0 90 63 6b
        E 0 90 6c 69
        E 120 80 33 00
        E 0 80 4b 00
        E 0 80 63 00
        E 0 80 6c 00
        E 120 90 1b 6b
        E 0 90 33 6b
        E 0 90 4b 6b
        E 0 90 63 6b
        E 120 80 1b 00
        E 0 80 33 00
        E 0 80 4b 00
        E 0 80 63 00
        E 120 90 33 6b
        E 0 90 4b 6b
        E 0 90 63 6b
        E 120 80 33 00
        E 0 80 4b 00
        E 0 80 63 00
        E 120 90 1b 6b
        E 0 90 33 6b
        E 0 90 4b 6b
        E 0 90 63 6b
        E 120 80 1b 00
        E 0 80 33 00
        E 0 80 4b 00
        E 0 80 63 00
        E 120 90 4b 69
        E 0 90 63 69
        E 120 80 4b 00
        E 0 80 63 00
        <X 600 0
          /wFbcGdfbm9ybSBzb25nX3RyYWluZXJfcGdfMl0=
        >
        E 240 90 33 6b
        E 0 90 4b 6b
        E 0 90 63 6b
        E 120 80 33 00
        E 0 80 4b 00
        E 0 80 63 00
        E 120 90 1b 6b
        E 0 90 33 6b
        E 0 90 4b 6b
        E 0 90 63 6b
        E 120 80 1b 00
        E 0 80 33 00
        E 0 80 4b 00
        E 0 80 63 00
        E 120 90 33 6b
        E 0 90 4b 6b
        E 0 90 63 6b
        E 120 80 33 00
        E 0 80 4b 00
        E 0 80 63 00
        E 120 90 1b 6b
        E 0 90 33 6b
        E 0 90 4b 6b
        E 0 90 63 6b
        E 120 80 1b 00
        E 0 80 33 00
        E 0 80 4b 00
        E 0 80 63 00
        E 120 90 4b 69
        E 0 90 63 69
        E 120 80 4b 00
        E 0 80 63 00
        E 120 90 34 6c
        E 0 90 4c 6c
        E 0 90 64 6c
        E 120 80 34 00
        E 0 80 4c 00
        E 0 80 64 00
        E 600 90 33 6b
        E 0 90 4b 6b
        E 0 90 63 6b
        E 120 80 33 00
        E 0 80 4b 00
        E 0 80 63 00
        E 120 90 1b 6b
        E 0 90 33 6b
        E 0 90 4b 6b
        E 0 90 63 6b
        E 120 80 1b 00
        E 0 80 33 00
        E 0 80 4b 00
        E 0 80 63 00
        E 120 90 33 6b
        E 0 90 4b 6b
        E 0 90 63 6b
        E 120 80 33 00
        E 0 80 4b 00
        E 0 80 63 00
        E 120 90 1b 6b
        E 0 90 33 6b
        E 0 90 4b 6b
        E 0 90 63 6b
        E 120 80 1b 00
        E 0 80 33 00
        E 0 80 4b 00
        E 0 80 63 00
        E 120 90 4b 69
        E 0 90 63 69
        E 120 80 4b 00
        E 0 80 63 00
        E 840 90 33 6b
        E 0 90 4b 6b
        E 0 90 63 6b
        E 120 80 33 00
        E 0 80 4b 00
        E 0 80 63 00
        E 120 90 1b 6b
        E 0 90 33 6b
        E 0 90 4b 6b
        E 0 90 63 6b
        E 120 80 1b 00
        E 0 80 33 00
        E 0 80 4b 00
        E 0 80 63 00
        E 120 90 33 6b
        E 0 90 4b 6b
        E 0 90 63 6b
        E 120 80 33 00
        E 0 80 4b 00
        E 0 80 63 00
        E 120 90 1b 6b
        E 0 90 33 6b
        E 0 90 4b 6b
        E 0 90 63 6b
        E 120 80 1b 00
        E 0 80 33 00
        E 0 80 4b 00
        E 0 80 63 00
        E 120 90 4b 69
        E 0 90 63 69
        E 120 80 4b 00
        E 0 80 63 00
        E 120 90 34 6c
        E 0 90 4c 6c
        E 0 90 64 6c
        E 120 80 34 00
        E 0 80 4c 00
        E 0 80 64 00
        <X 360 0
          /wFbZW5kX3BnIHNvbmdfdHJhaW5lcl9wZ18yXQ==
        >
        E 240 90 33 6b
        E 0 90 4b 6b
        E 0 90 63 6b
        E 120 80 33 00
        E 0 80 4b 00
        E 0 80 63 00
        E 120 90 1b 6b
        E 0 90 33 6b
        E 0 90 4b 6b
        E 0 90 63 6b
        E 120 80 1b 00
        E 0 80 33 00
        E 0 80 4b 00
        E 0 80 63 00
        E 120 90 33 6b
        E 0 90 4b 6b
        E 0 90 63 6b
        E 120 80 33 00
        E 0 80 4b 00
        E 0 80 63 00
        E 120 90 1b 6b
        E 0 90 33 6b
        E 0 90 4b 6b
        E 0 90 63 6b
        E 120 80 1b 00
        E 0 80 33 00
        E 0 80 4b 00
        E 0 80 63 00
        E 120 90 4b 69
        E 0 90 63 69
        E 120 80 4b 00
        E 0 80 63 00
        E 840 90 33 6b
        E 0 90 4b 6b
        E 0 90 63 6b
        E 120 80 33 00
        E 0 80 4b 00
        E 0 80 63 00
        E 120 90 1b 6b
        E 0 90 33 6b
        E 0 90 4b 6b
        E 0 90 63 6b
        E 120 80 1b 00
        E 0 80 33 00
        E 0 80 4b 00
        E 0 80 63 00
        E 120 90 33 6b
        E 0 90 4b 6b
        E 0 90 63 6b
        E 120 80 33 00
        E 0 80 4b 00
        E 0 80 63 00
        E 120 90 1b 6b
        E 0 90 33 6b
        E 0 90 4b 6b
        E 0 90 63 6b
        E 120 80 1b 00
        E 0 80 33 00
        E 0 80 4b 00
        E 0 80 63 00
        E 120 90 4b 69
        E 0 90 63 69
        E 120 80 4b 00
        E 0 80 63 00
        E 120 90 34 6c
        E 0 90 4c 6c
        E 0 90 64 6c
        E 120 80 34 00
        E 0 80 4c 00
        E 0 80 64 00
        E 600 90 33 6b
        E 0 90 4b 6b
        E 0 90 63 6b
        E 120 80 33 00
        E 0 80 4b 00
        E 0 80 63 00
        E 120 90 1b 6b
        E 0 90 33 6b
        E 0 90 4b 6b
        E 0 90 63 6b
        E 120 80 1b 00
        E 0 80 33 00
        E 0 80 4b 00
        E 0 80 63 00
        E 120 90 33 6b
        E 0 90 4b 6b
        E 0 90 63 6b
        E 120 80 33 00
        E 0 80 4b 00
        E 0 80 63 00
        E 120 90 1b 6b
        E 0 90 33 6b
        E 0 90 4b 6b
        E 0 90 63 6b
        E 120 80 1b 00
        E 0 80 33 00
        E 0 80 4b 00
        E 0 80 63 00
        E 120 90 4b 69
        E 0 90 63 69
        E 120 80 4b 00
        E 0 80 63 00
        E 840 90 33 6b
        E 0 90 4b 6b
        E 0 90 63 6b
        E 120 80 33 00
        E 0 80 4b 00
        E 0 80 63 00
        E 120 90 1b 6b
        E 0 90 33 6b
        E 0 90 4b 6b
        E 0 90 63 6b
        E 120 80 1b 00
        E 0 80 33 00
        E 0 80 4b 00
        E 0 80 63 00
        E 120 90 33 6b
        E 0 90 4b 6b
        E 0 90 63 6b
        E 120 80 33 00
        E 0 80 4b 00
        E 0 80 63 00
        E 120 90 1b 6b
        E 0 90 33 6b
        E 0 90 4b 6b
        E 0 90 63 6b
        E 120 80 1b 00
        E 0 80 33 00
        E 0 80 4b 00
        E 0 80 63 00
        E 120 90 4b 69
        E 0 90 63 69
        E 120 80 4b 00
        E 0 80 63 00
        E 120 90 34 6c
        E 0 90 4c 6c
        E 0 90 64 6c
        E 120 80 34 00
        E 0 80 4c 00
        E 0 80 64 00
        E 120 93 64 6c
        E 120 83 64 00
        <X 120 0
          /wFbYmVnaW5fcGcgc29uZ190cmFpbmVyX3BnXzNd
        >
        E 0 90 1c 6c
        E 0 90 34 6c
        E 0 90 4c 6c
        E 0 90 64 6c
        E 120 80 1c 00
        E 0 80 34 00
        E 0 80 4c 00
        E 0 80 64 00
        E 360 90 34 6a
        E 0 90 4c 6a
        E 0 90 64 6a
        E 120 80 34 00
        E 0 80 4c 00
        E 0 80 64 00
        E 360 90 1c 69
        E 0 90 34 69
        E 0 90 4c 69
        E 0 90 64 69
        E 120 80 1c 00
        E 0 80 34 00
        E 0 80 4c 00
        E 0 80 64 00
        E 120 90 34 69
        E 0 90 4c 69
        E 0 90 64 69
        E 120 80 34 00
        E 0 80 4c 00
        E 0 80 64 00
        E 360 90 34 6a
        E 0 90 4c 6a
        E 0 90 64 6a
        E 120 80 34 00
        E 0 80 4c 00
        E 0 80 64 00
        <X 120 0
          /wFbcGdfbm9ybSBzb25nX3RyYWluZXJfcGdfM10=
        >
        E 240 90 34 69
        E 0 90 4c 69
        E 0 90 64 69
        E 120 80 34 00
        E 0 80 4c 00
        E 0 80 64 00
        E 360 90 4c 6c
        E 0 90 64 6c
        E 120 80 4c 00
        E 0 80 64 00
        E 120 90 1c 69
        E 0 90 34 69
        E 0 90 4c 69
        E 0 90 64 69
        E 120 80 1c 00
        E 0 80 34 00
        E 0 80 4c 00
        E 0 80 64 00
        E 120 90 4b 6b
        E 0 90 63 6b
        E 120 80 4b 00
        E 0 80 63 00
        E 120 90 33 69
        E 0 90 4b 69
        E 0 90 63 69
        E 120 80 33 00
        E 0 80 4b 00
        E 0 80 63 00
        E 360 90 1c 6c
        E 0 90 34 6c
        E 0 90 4c 6c
        E 0 90 64 6c
        E 120 80 1c 00
        E 0 80 34 00
        E 0 80 4c 00
        E 0 80 64 00
        E 360 90 34 6a
        E 0 90 4c 6a
        E 0 90 64 6a
        E 120 80 34 00
        E 0 80 4c 00
        E 0 80 64 00
        E 360 90 1c 69
        E 0 90 34 69
        E 0 90 4c 69
        E 0 90 64 69
        E 120 80 1c 00
        E 0 80 34 00
        E 0 80 4c 00
        E 0 80 64 00
        E 120 90 34 69
        E 0 90 4c 69
        E 0 90 64 69
        E 120 80 34 00
        E 0 80 4c 00
        E 0 80 64 00
        E 360 90 34 6a
        E 0 90 4c 6a
        E 0 90 64 6a
        E 120 80 34 00
        E 0 80 4c 00
        E 0 80 64 00
        E 120 90 74 64
        E 240 90 34 69
        E 0 90 4c 69
        E 0 90 64 69
        E 120 80 34 00
        E 0 80 4c 00
        E 0 80 64 00
        E 360 90 4c 6a
        E 0 90 64 6a
        E 120 80 4c 00
        E 0 80 64 00
        E 120 90 1c 69
        E 0 90 34 69
        E 0 90 4c 69
        E 0 90 64 69
        E 120 80 1c 00
        E 0 80 34 00
        E 0 80 4c 00
        E 0 80 64 00
        E 120 90 4b 6b
        E 0 90 63 6b
        E 120 80 4b 00
        E 0 80 63 00
        E 120 90 33 69
        E 0 90 4b 69
        E 0 90 63 69
        E 120 80 33 00
        E 0 80 4b 00
        E 0 80 63 00
        <X 360 0
          /wFbZW5kX3BnIHNvbmdfdHJhaW5lcl9wZ18zXQ==
        >
        E 0 80 74 00
        E 0 90 1c 6c
        E 0 90 34 6c
        E 0 90 4c 6c
        E 0 90 64 6c
        E 120 80 1c 00
        E 0 80 34 00
        E 0 80 4c 00
        E 0 80 64 00
        E 360 90 34 6a
        E 0 90 4c 6a
        E 0 90 64 6a
        E 120 80 34 00
        E 0 80 4c 00
        E 0 80 64 00
        E 360 90 1c 69
        E 0 90 34 69
        E 0 90 4c 69
        E 0 90 64 69
        E 120 80 1c 00
        E 0 80 34 00
        E 0 80 4c 00
        E 0 80 64 00
        E 120 90 34 69
        E 0 90 4c 69
        E 0 90 64 69
        E 120 80 34 00
        E 0 80 4c 00
        E 0 80 64 00
        E 360 90 34 6a
        E 0 90 4c 6a
        E 0 90 64 6a
        E 120 80 34 00
        E 0 80 4c 00
        E 0 80 64 00
        E 360 90 34 69
        E 0 90 4c 69
        E 0 90 64 69
        E 120 80 34 00
        E 0 80 4c 00
        E 0 80 64 00
        E 360 90 4c 6c
        E 0 90 64 6c
        E 120 80 4c 00
        E 0 80 64 00
        E 120 90 1c 69
        E 0 90 34 69
        E 0 90 4c 69
        E 0 90 64 69
        E 120 80 1c 00
        E 0 80 34 00
        E 0 80 4c 00
        E 0 80 64 00
        E 120 90 4b 6b
        E 0 90 63 6b
        E 120 80 4b 00
        E 0 80 63 00
        E 120 90 33 69
        E 0 90 4b 69
        E 0 90 63 69
        E 120 80 33 00
        E 0 80 4b 00
        E 0 80 63 00
        E 360 90 1c 6c
        E 0 90 34 6c
        E 0 90 4c 6c
        E 0 90 64 6c
        E 120 80 1c 00
        E 0 80 34 00
        E 0 80 4c 00
        E 0 80 64 00
        E 360 90 34 6a
        E 0 90 4c 6a
        E 0 90 64 6a
        E 120 80 34 00
        E 0 80 4c 00
        E 0 80 64 00
        E 360 90 1c 69
        E 0 90 34 69
        E 0 90 4c 69
        E 0 90 64 69
        E 120 80 1c 00
        E 0 80 34 00
        E 0 80 4c 00
        E 0 80 64 00
        E 120 90 34 69
        E 0 90 4c 69
        E 0 90 64 69
        E 120 80 34 00
        E 0 80 4c 00
        E 0 80 64 00
        E 360 90 4c 6c
        E 0 90 4f 64
        E 0 90 64 6c
        E 0 90 67 64
        E 0 90 6c 6a
        E 120 80 4c 00
        E 0 80 4f 00
        E 0 80 64 00
        E 0 80 67 00
        E 0 80 6c 00
        E 120 90 4c 6e
        E 0 90 4e 64
        E 0 90 64 6e
        E 0 90 66 64
        E 0 90 6c 6c
        E 120 80 4c 00
        E 0 80 4e 00
        E 0 80 64 00
        E 0 80 66 00
        E 0 80 6c 00
        E 120 90 4c 6e
        E 0 90 64 6e
        E 120 80 4c 00
        E 0 80 64 00
        E 120 90 4c 6e
        E 0 90 64 6e
        E 120 80 4c 00
        E 0 80 64 00
        E 120 90 4c 6e
        E 0 90 64 6e
        E 120 80 4c 00
        E 0 80 64 00
        E 120 90 4c 6e
        E 0 90 64 6e
        E 120 80 4c 00
        E 0 80 64 00
        E 120 90 4c 6e
        E 0 90 64 6e
        E 120 80 4c 00
        E 0 80 64 00
        E 120 90 4c 6e
        E 0 90 4f 64
        E 0 90 64 6e
        E 0 90 67 64
        E 360 80 4c 00
        E 0 80 4f 00
        E 0 80 64 00
        E 0 80 67 00
        E 120 90 0e 64
        E 0 90 19 69
        E 0 90 31 69
        E 0 90 32 6b
        E 0 90 49 69
        E 0 90 4a 6b
        E 0 90 4b 6b
        E 0 90 4c 6b
        E 0 90 61 69
        E 0 90 62 6b
        E 0 90 63 6b
        E 0 90 64 6b
        E 0 90 6c 69
        E 120 80 0e 00
        E 0 80 19 00
        E 0 80 31 00
        E 0 80 32 00
        E 0 80 49 00
        E 0 80 4a 00
        E 0 80 4b 00
        E 0 80 4c 00
        E 0 80 61 00
        E 0 80 62 00
        E 0 80 63 00
        E 0 80 64 00
        E 0 80 6c 00
        E 120 90 31 69
        E 0 90 32 6b
        E 0 90 49 69
        E 0 90 4a 6b
        E 0 90 4b 6b
        E 0 90 4c 6b
        E 0 90 61 69
        E 0 90 62 6b
        E 0 90 63 6b
        E 0 90 64 6b
        E 120 80 31 00
        E 0 80 32 00
        E 0 80 49 00
        E 0 80 4a 00
        E 0 80 4b 00
        E 0 80 4c 00
        E 0 80 61 00
        E 0 80 62 00
        E 0 80 63 00
        E 0 80 64 00
        E 120 90 19 69
        E 0 90 31 69
        E 0 90 32 6b
        E 0 90 49 69
        E 0 90 4a 6b
        E 0 90 4b 6b
        E 0 90 4c 6b
        E 0 90 61 69
        E 0 90 62 6b
        E 0 90 63 6b
        E 0 90 64 6b
        E 120 80 19 00
        E 0 80 31 00
        E 0 80 32 00
        E 0 80 49 00
        E 0 80 4a 00
        E 0 80 4b 00
        E 0 80 4c 00
        E 0 80 61 00
        E 0 80 62 00
        E 0 80 63 00
        E 0 80 64 00
        E 120 90 31 69
        E 0 90 32 6b
        E 0 90 49 69
        E 0 90 4a 6b
        E 0 90 4b 6b
        E 0 90 4c 6b
        E 0 90 61 69
        E 0 90 62 6b
        E 0 90 63 6b
        E 0 90 64 6b
        E 120 80 31 00
        E 0 80 32 00
        E 0 80 49 00
        E 0 80 4a 00
        E 0 80 4b 00
        E 0 80 4c 00
        E 0 80 61 00
        E 0 80 62 00
        E 0 80 63 00
        E 0 80 64 00
        E 120 90 19 69
        E 0 90 31 69
        E 0 90 32 6b
        E 0 90 49 69
        E 0 90 4a 6b
        E 0 90 4b 6b
        E 0 90 4c 6b
        E 0 90 61 69
        E 0 90 62 6b
        E 0 90 63 6b
        E 0 90 64 6b
        E 120 80 19 00
        E 0 80 31 00
        E 0 80 32 00
        E 0 80 49 00
        E 0 80 4a 00
        E 0 80 4b 00
        E 0 80 4c 00
        E 0 80 61 00
        E 0 80 62 00
        E 0 80 63 00
        E 0 80 64 00
        E 120 90 09 64
        E 0 90 10 64
        E 0 90 49 6b
        E 0 90 4a 6b
        E 0 90 4b 6d
        E 0 90 4c 6e
        E 0 90 61 6b
        E 0 90 62 6b
        E 0 90 63 6d
        E 0 90 64 6e
        E 0 90 6c 6b
        E 120 80 09 00
        E 0 80 49 00
        E 0 80 4a 00
        E 0 80 4b 00
        E 0 80 4c 00
        E 0 80 61 00
        E 0 80 62 00
        E 0 80 63 00
        E 0 80 64 00
        E 0 80 6c 00
        E 120 90 31 6b
        E 0 90 32 6b
        E 0 90 49 6b
        E 0 90 4a 6b
        E 0 90 4b 6d
        E 0 90 4c 6e
        E 0 90 61 6b
        E 0 90 62 6b
        E 0 90 63 6d
        E 0 90 64 6e
        E 120 80 31 00
        E 0 80 32 00
        E 0 80 49 00
        E 0 80 4a 00
        E 0 80 4b 00
        E 0 80 4c 00
        E 0 80 61 00
        E 0 80 62 00
        E 0 80 63 00
        E 0 80 64 00
        E 120 90 49 6b
        E 0 90 4a 6b
        E 0 90 4b 6d
        E 0 90 4c 6e
        E 0 90 61 6b
        E 0 90 62 6b
        E 0 90 63 6d
        E 0 90 64 6e
        E 120 80 49 00
        E 0 80 4a 00
        E 0 80 4b 00
        E 0 80 4c 00
        E 0 80 61 00
        E 0 80 62 00
        E 0 80 63 00
        E 0 80 64 00
        E 120 90 07 64
        E 0 90 19 69
        E 0 90 31 69
        E 0 90 32 69
        E 0 90 49 69
        E 0 90 4a 69
        E 0 90 4b 6b
        E 0 90 4c 6c
        E 0 90 61 69
        E 0 90 62 69
        E 0 90 63 6b
        E 0 90 64 6c
        E 0 90 6c 69
        E 120 80 07 00
        E 0 80 19 00
        E 0 80 31 00
        E 0 80 32 00
        E 0 80 49 00
        E 0 80 4a 00
        E 0 80 4b 00
        E 0 80 4c 00
        E 0 80 61 00
        E 0 80 62 00
        E 0 80 63 00
        E 0 80 64 00
        E 0 80 6c 00
        E 120 90 49 69
        E 0 90 4a 69
        E 0 90 4b 6b
        E 0 90 4c 6c
        E 0 90 61 69
        E 0 90 62 69
        E 0 90 63 6b
        E 0 90 64 6c
        E 120 80 49 00
        E 0 80 4a 00
        E 0 80 4b 00
        E 0 80 4c 00
        E 0 80 61 00
        E 0 80 62 00
        E 0 80 63 00
        E 0 80 64 00
        E 120 90 09 64
        E 0 90 31 6b
        E 0 90 32 6b
        E 0 90 49 6b
        E 0 90 4a 6b
        E 0 90 4b 6d
        E 0 90 4c 6e
        E 0 90 61 6b
        E 0 90 62 6b
        E 0 90 63 6d
        E 0 90 64 6e
        E 0 90 6c 6b
        E 120 80 09 00
        E 0 80 31 00
        E 0 80 32 00
        E 0 80 6c 00
        E 240 80 49 00
        E 0 80 4a 00
        E 0 80 4b 00
        E 0 80 4c 00
        E 0 80 61 00
        E 0 80 62 00
        E 0 80 63 00
        E 0 80 64 00
        E 120 90 07 64
        E 0 90 19 69
        E 0 90 31 69
        E 0 90 32 69
        E 0 90 49 69
        E 0 90 4a 69
        E 0 90 4b 6b
        E 0 90 4c 6c
        E 0 90 61 69
        E 0 90 62 69
        E 0 90 63 6b
        E 0 90 64 6c
        E 0 90 6c 69
        E 120 80 07 00
        E 0 80 19 00
        E 0 80 31 00
        E 0 80 32 00
        E 0 80 49 00
        E 0 80 4a 00
        E 0 80 4b 00
        E 0 80 4c 00
        E 0 80 61 00
        E 0 80 62 00
        E 0 80 63 00
        E 0 80 64 00
        E 0 80 6c 00
        E 120 90 49 69
        E 0 90 4a 69
        E 0 90 4b 6b
        E 0 90 4c 6c
        E 0 90 61 69
        E 0 90 62 69
        E 0 90 63 6b
        E 0 90 64 6c
        E 120 80 49 00
        E 0 80 4a 00
        E 0 80 4b 00
        E 0 80 4c 00
        E 0 80 61 00
        E 0 80 62 00
        E 0 80 63 00
        E 0 80 64 00
        E 120 90 09 64
        E 0 90 31 6b
        E 0 90 32 6b
        E 0 90 49 6b
        E 0 90 4a 6b
        E 0 90 4b 6d
        E 0 90 4c 6e
        E 0 90 61 6b
        E 0 90 62 6b
        E 0 90 63 6d
        E 0 90 64 6e
        E 0 90 6c 6b
        E 120 80 10 00
        E 0 80 09 00
        E 0 80 31 00
        E 0 80 32 00
        E 0 80 6c 00
        E 240 80 49 00
        E 0 80 4a 00
        E 0 80 4b 00
        E 0 80 4c 00
        E 0 80 61 00
        E 0 80 62 00
        E 0 80 63 00
        E 0 80 64 00
        E 120 90 0e 64
        E 0 90 19 69
        E 0 90 31 69
        E 0 90 32 6b
        E 0 90 49 69
        E 0 90 4a 6b
        E 0 90 4b 6b
        E 0 90 4c 6b
        E 0 90 61 69
        E 0 90 62 6b
        E 0 90 63 6b
        E 0 90 64 6b
        E 0 90 6c 69
        E 120 80 0e 00
        E 0 80 19 00
        E 0 80 31 00
        E 0 80 32 00
        E 0 80 49 00
        E 0 80 4a 00
        E 0 80 4b 00
        E 0 80 4c 00
        E 0 80 61 00
        E 0 80 62 00
        E 0 80 63 00
        E 0 80 64 00
        E 0 80 6c 00
        E 120 90 31 69
        E 0 90 32 6b
        E 0 90 49 69
        E 0 90 4a 6b
        E 0 90 4b 6b
        E 0 90 4c 6b
        E 0 90 61 69
        E 0 90 62 6b
        E 0 90 63 6b
        E 0 90 64 6b
        E 120 80 31 00
        E 0 80 32 00
        E 0 80 49 00
        E 0 80 4a 00
        E 0 80 4b 00
        E 0 80 4c 00
        E 0 80 61 00
        E 0 80 62 00
        E 0 80 63 00
        E 0 80 64 00
        E 120 90 19 69
        E 0 90 31 69
        E 0 90 32 6b
        E 0 90 49 69
        E 0 90 4a 6b
        E 0 90 4b 6b
        E 0 90 4c 6b
        E 0 90 61 69
        E 0 90 62 6b
        E 0 90 63 6b
        E 0 90 64 6b
        E 120 80 19 00
        E 0 80 31 00
        E 0 80 32 00
        E 0 80 49 00
        E 0 80 4a 00
        E 0 80 4b 00
        E 0 80 4c 00
        E 0 80 61 00
        E 0 80 62 00
        E 0 80 63 00
        E 0 80 64 00
        E 120 90 31 69
        E 0 90 32 6b
        E 0 90 49 69
        E 0 90 4a 6b
        E 0 90 4b 6b
        E 0 90 4c 6b
        E 0 90 61 69
        E 0 90 62 6b
        E 0 90 63 6b
        E 0 90 64 6b
        E 120 80 31 00
        E 0 80 32 00
        E 0 80 49 00
        E 0 80 4a 00
        E 0 80 4b 00
        E 0 80 4c 00
        E 0 80 61 00
        E 0 80 62 00
        E 0 80 63 00
        E 0 80 64 00
        E 120 90 19 69
        E 0 90 31 69
        E 0 90 32 6b
        E 0 90 49 69
        E 0 90 4a 6b
        E 0 90 4b 6b
        E 0 90 4c 6b
        E 0 90 61 69
        E 0 90 62 6b
        E 0 90 63 6b
        E 0 90 64 6b
        E 120 80 19 00
        E 0 80 31 00
        E 0 80 32 00
        E 0 80 49 00
        E 0 80 4a 00
        E 0 80 4b 00
        E 0 80 4c 00
        E 0 80 61 00
        E 0 80 62 00
        E 0 80 63 00
        E 0 80 64 00
        E 120 90 09 64
        E 0 90 10 64
        E 0 90 49 6b
        E 0 90 4a 6b
        E 0 90 4b 6d
        E 0 90 4c 6e
        E 0 90 61 6b
        E 0 90 62 6b
        E 0 90 63 6d
        E 0 90 64 6e
        E 0 90 6c 6b
        E 120 80 09 00
        E 0 80 49 00
        E 0 80 4a 00
        E 0 80 4b 00
        E 0 80 4c 00
        E 0 80 61 00
        E 0 80 62 00
        E 0 80 63 00
        E 0 80 64 00
        E 0 80 6c 00
        E 120 90 31 6b
        E 0 90 32 6b
        E 0 90 49 6b
        E 0 90 4a 6b
        E 0 90 4b 6d
        E 0 90 4c 6e
        E 0 90 61 6b
        E 0 90 62 6b
        E 0 90 63 6d
        E 0 90 64 6e
        E 120 80 31 00
        E 0 80 32 00
        E 0 80 49 00
        E 0 80 4a 00
        E 0 80 4b 00
        E 0 80 4c 00
        E 0 80 61 00
        E 0 80 62 00
        E 0 80 63 00
        E 0 80 64 00
        E 120 90 49 6b
        E 0 90 4a 6b
        E 0 90 4b 6d
        E 0 90 4c 6e
        E 0 90 61 6b
        E 0 90 62 6b
        E 0 90 63 6d
        E 0 90 64 6e
        E 120 80 49 00
        E 0 80 4a 00
        E 0 80 4b 00
        E 0 80 4c 00
        E 0 80 61 00
        E 0 80 62 00
        E 0 80 63 00
        E 0 80 64 00
        E 120 90 07 64
        E 0 90 19 69
        E 0 90 31 69
        E 0 90 32 69
        E 0 90 49 69
        E 0 90 4a 69
        E 0 90 4b 6b
        E 0 90 4c 6c
        E 0 90 61 69
        E 0 90 62 69
        E 0 90 63 6b
        E 0 90 64 6c
        E 0 90 6c 69
        E 120 80 07 00
        E 0 80 19 00
        E 0 80 31 00
        E 0 80 32 00
        E 0 80 49 00
        E 0 80 4a 00
        E 0 80 4b 00
        E 0 80 4c 00
        E 0 80 61 00
        E 0 80 62 00
        E 0 80 63 00
        E 0 80 64 00
        E 0 80 6c 00
        E 120 90 49 69
        E 0 90 4a 69
        E 0 90 4b 6b
        E 0 90 4c 6c
        E 0 90 61 69
        E 0 90 62 69
        E 0 90 63 6b
        E 0 90 64 6c
        E 120 80 49 00
        E 0 80 4a 00
        E 0 80 4b 00
        E 0 80 4c 00
        E 0 80 61 00
        E 0 80 62 00
        E 0 80 63 00
        E 0 80 64 00
        E 120 90 09 64
        E 0 90 31 6b
        E 0 90 32 6b
        E 0 90 49 6b
        E 0 90 4a 6b
        E 0 90 4b 6d
        E 0 90 4c 6e
        E 0 90 61 6b
        E 0 90 62 6b
        E 0 90 63 6d
        E 0 90 64 6e
        E 0 90 6c 6b
        E 120 80 09 00
        E 0 80 31 00
        E 0 80 32 00
        E 0 80 6c 00
        E 240 80 49 00
        E 0 80 4a 00
        E 0 80 4b 00
        E 0 80 4c 00
        E 0 80 61 00
        E 0 80 62 00
        E 0 80 63 00
        E 0 80 64 00
        E 120 90 07 64
        E 0 90 19 69
        E 0 90 31 69
        E 0 90 32 69
        E 0 90 49 69
        E 0 90 4a 69
        E 0 90 4b 6b
        E 0 90 4c 6c
        E 0 90 61 69
        E 0 90 62 69
        E 0 90 63 6b
        E 0 90 64 6c
        E 0 90 6c 69
        E 120 80 07 00
        E 0 80 19 00
        E 0 80 31 00
        E 0 80 32 00
        E 0 80 49 00
        E 0 80 4a 00
        E 0 80 4b 00
        E 0 80 4c 00
        E 0 80 61 00
        E 0 80 62 00
        E 0 80 63 00
        E 0 80 64 00
        E 0 80 6c 00
        E 120 90 49 69
        E 0 90 4a 69
        E 0 90 4b 6b
        E 0 90 4c 6c
        E 0 90 61 69
        E 0 90 62 69
        E 0 90 63 6b
        E 0 90 64 6c
        E 120 80 49 00
        E 0 80 4a 00
        E 0 80 4b 00
        E 0 80 4c 00
        E 0 80 61 00
        E 0 80 62 00
        E 0 80 63 00
        E 0 80 64 00
        E 120 90 09 64
        E 0 90 31 6b
        E 0 90 32 6b
        E 0 90 49 6b
        E 0 90 4a 6b
        E 0 90 4b 6d
        E 0 90 4c 6e
        E 0 90 61 6b
        E 0 90 62 6b
        E 0 90 63 6d
        E 0 90 64 6e
        E 0 90 6c 6b
        E 120 80 10 00
        E 0 80 09 00
        E 0 80 31 00
        E 0 80 32 00
        E 0 80 6c 00
        E 240 80 49 00
        E 0 80 4a 00
        E 0 80 4b 00
        E 0 80 4c 00
        E 0 80 61 00
        E 0 80 62 00
        E 0 80 63 00
        E 0 80 64 00
        E 120 90 0e 64
        E 0 90 19 69
        E 0 90 31 69
        E 0 90 32 6b
        E 0 90 49 69
        E 0 90 4a 6b
        E 0 90 4b 6b
        E 0 90 4c 6b
        E 0 90 61 69
        E 0 90 62 6b
        E 0 90 63 6b
        E 0 90 64 6b
        E 0 90 6c 69
        E 120 80 0e 00
        E 0 80 19 00
        E 0 80 31 00
        E 0 80 32 00
        E 0 80 49 00
        E 0 80 4a 00
        E 0 80 4b 00
        E 0 80 4c 00
        E 0 80 61 00
        E 0 80 62 00
        E 0 80 63 00
        E 0 80 64 00
        E 0 80 6c 00
        E 120 90 31 69
        E 0 90 32 6b
        E 0 90 49 69
        E 0 90 4a 6b
        E 0 90 4b 6b
        E 0 90 4c 6b
        E 0 90 61 69
        E 0 90 62 6b
        E 0 90 63 6b
        E 0 90 64 6b
        E 120 80 31 00
        E 0 80 32 00
        E 0 80 49 00
        E 0 80 4a 00
        E 0 80 4b 00
        E 0 80 4c 00
        E 0 80 61 00
        E 0 80 62 00
        E 0 80 63 00
        E 0 80 64 00
        E 120 90 19 69
        E 0 90 31 69
        E 0 90 32 6b
        E 0 90 49 69
        E 0 90 4a 6b
        E 0 90 4b 6b
        E 0 90 4c 6b
        E 0 90 61 69
        E 0 90 62 6b
        E 0 90 63 6b
        E 0 90 64 6b
        E 120 80 19 00
        E 0 80 31 00
        E 0 80 32 00
        E 0 80 49 00
        E 0 80 4a 00
        E 0 80 4b 00
        E 0 80 4c 00
        E 0 80 61 00
        E 0 80 62 00
        E 0 80 63 00
        E 0 80 64 00
        E 120 90 31 69
        E 0 90 32 6b
        E 0 90 49 69
        E 0 90 4a 6b
        E 0 90 4b 6b
        E 0 90 4c 6b
        E 0 90 61 69
        E 0 90 62 6b
        E 0 90 63 6b
        E 0 90 64 6b
        E 120 80 31 00
        E 0 80 32 00
        E 0 80 49 00
        E 0 80 4a 00
        E 0 80 4b 00
        E 0 80 4c 00
        E 0 80 61 00
        E 0 80 62 00
        E 0 80 63 00
        E 0 80 64 00
        E 120 90 19 69
        E 0 90 31 69
        E 0 90 32 6b
        E 0 90 49 69
        E 0 90 4a 6b
        E 0 90 4b 6b
        E 0 90 4c 6b
        E 0 90 61 69
        E 0 90 62 6b
        E 0 90 63 6b
        E 0 90 64 6b
        E 120 80 19 00
        E 0 80 31 00
        E 0 80 32 00
        E 0 80 49 00
        E 0 80 4a 00
        E 0 80 4b 00
        E 0 80 4c 00
        E 0 80 61 00
        E 0 80 62 00
        E 0 80 63 00
        E 0 80 64 00
        E 120 90 09 64
        E 0 90 10 64
        E 0 90 49 6b
        E 0 90 4a 6b
        E 0 90 4b 6d
        E 0 90 4c 6e
        E 0 90 61 6b
        E 0 90 62 6b
        E 0 90 63 6d
        E 0 90 64 6e
        E 0 90 6c 6b
        E 120 80 09 00
        E 0 80 49 00
        E 0 80 4a 00
        E 0 80 4b 00
        E 0 80 4c 00
        E 0 80 61 00
        E 0 80 62 00
        E 0 80 63 00
        E 0 80 64 00
        E 0 80 6c 00
        E 120 90 31 6b
        E 0 90 32 6b
        E 0 90 49 6b
        E 0 90 4a 6b
        E 0 90 4b 6d
        E 0 90 4c 6e
        E 0 90 61 6b
        E 0 90 62 6b
        E 0 90 63 6d
        E 0 90 64 6e
        E 120 80 31 00
        E 0 80 32 00
        E 0 80 49 00
        E 0 80 4a 00
        E 0 80 4b 00
        E 0 80 4c 00
        E 0 80 61 00
        E 0 80 62 00
        E 0 80 63 00
        E 0 80 64 00
        E 120 90 49 6b
        E 0 90 4a 6b
        E 0 90 4b 6d
        E 0 90 4c 6e
        E 0 90 61 6b
        E 0 90 62 6b
        E 0 90 63 6d
        E 0 90 64 6e
        E 120 80 49 00
        E 0 80 4a 00
        E 0 80 4b 00
        E 0 80 4c 00
        E 0 80 61 00
        E 0 80 62 00
        E 0 80 63 00
        E 0 80 64 00
        E 120 90 07 64
        E 0 90 19 69
        E 0 90 31 69
        E 0 90 32 69
        E 0 90 49 69
        E 0 90 4a 69
        E 0 90 4b 6b
        E 0 90 4c 6c
        E 0 90 61 69
        E 0 90 62 69
        E 0 90 63 6b
        E 0 90 64 6c
        E 0 90 6c 69
        E 0 90 74 64
        E 120 80 07 00
        E 0 80 19 00
        E 0 80 31 00
        E 0 80 32 00
        E 0 80 49 00
        E 0 80 4a 00
        E 0 80 4b 00
        E 0 80 4c 00
        E 0 80 61 00
        E 0 80 62 00
        E 0 80 63 00
        E 0 80 64 00
        E 0 80 6c 00
        E 120 90 49 69
        E 0 90 4a 69
        E 0 90 4b 6b
        E 0 90 4c 6c
        E 0 90 61 69
        E 0 90 62 69
        E 0 90 63 6b
        E 0 90 64 6c
        E 120 80 49 00
        E 0 80 4a 00
        E 0 80 4b 00
        E 0 80 4c 00
        E 0 80 61 00
        E 0 80 62 00
        E 0 80 63 00
        E 0 80 64 00
        E 120 90 09 64
        E 0 90 31 6b
        E 0 90 32 6b
        E 0 90 49 6b
        E 0 90 4a 6b
        E 0 90 4b 6d
        E 0 90 4c 6e
        E 0 90 61 6b
        E 0 90 62 6b
        E 0 90 63 6d
        E 0 90 64 6e
        E 0 90 6c 6b
        E 120 80 09 00
        E 0 80 31 00
        E 0 80 32 00
        E 0 80 6c 00
        E 240 80 49 00
        E 0 80 4a 00
        E 0 80 4b 00
        E 0 80 4c 00
        E 0 80 61 00
        E 0 80 62 00
        E 0 80 63 00
        E 0 80 64 00
        E 120 90 07 64
        E 0 90 19 69
        E 0 90 31 69
        E 0 90 32 69
        E 0 90 49 69
        E 0 90 4a 69
        E 0 90 4b 6b
        E 0 90 4c 6c
        E 0 90 61 69
        E 0 90 62 69
        E 0 90 63 6b
        E 0 90 64 6c
        E 0 90 6c 69
        E 120 80 07 00
        E 0 80 19 00
        E 0 80 31 00
        E 0 80 32 00
        E 0 80 49 00
        E 0 80 4a 00
        E 0 80 4b 00
        E 0 80 4c 00
        E 0 80 61 00
        E 0 80 62 00
        E 0 80 63 00
        E 0 80 64 00
        E 0 80 6c 00
        E 120 90 49 69
        E 0 90 4a 69
        E 0 90 4b 6b
        E 0 90 4c 6c
        E 0 90 61 69
        E 0 90 62 69
        E 0 90 63 6b
        E 0 90 64 6c
        E 120 80 49 00
        E 0 80 4a 00
        E 0 80 4b 00
        E 0 80 4c 00
        E 0 80 61 00
        E 0 80 62 00
        E 0 80 63 00
        E 0 80 64 00
        E 120 90 09 64
        E 0 90 31 6b
        E 0 90 32 6b
        E 0 90 49 6b
        E 0 90 4a 6b
        E 0 90 4b 6d
        E 0 90 4c 6e
        E 0 90 61 6b
        E 0 90 62 6b
        E 0 90 63 6d
        E 0 90 64 6e
        E 0 90 6c 6b
        E 120 80 10 00
        E 0 80 09 00
        E 0 80 31 00
        E 0 80 32 00
        E 0 80 6c 00
        E 240 80 49 00
        E 0 80 4a 00
        E 0 80 4b 00
        E 0 80 4c 00
        E 0 80 61 00
        E 0 80 62 00
        E 0 80 63 00
        E 0 80 64 00
        E 120 80 74 00
        E 0 90 0e 64
        E 0 90 19 69
        E 0 90 31 69
        E 0 90 32 6b
        E 0 90 49 69
        E 0 90 4a 6b
        E 0 90 4b 6b
        E 0 90 4c 6b
        E 0 90 61 69
        E 0 90 62 6b
        E 0 90 63 6b
        E 0 90 64 6b
        E 0 90 6c 69
        E 120 80 0e 00
        E 0 80 19 00
        E 0 80 31 00
        E 0 80 32 00
        E 0 80 49 00
        E 0 80 4a 00
        E 0 80 4b 00
        E 0 80 4c 00
        E 0 80 61 00
        E 0 80 62 00
        E 0 80 63 00
        E 0 80 64 00
        E 0 80 6c 00
        E 120 90 31 69
        E 0 90 32 6b
        E 0 90 49 69
        E 0 90 4a 6b
        E 0 90 4b 6b
        E 0 90 4c 6b
        E 0 90 61 69
        E 0 90 62 6b
        E 0 90 63 6b
        E 0 90 64 6b
        E 120 80 31 00
        E 0 80 32 00
        E 0 80 49 00
        E 0 80 4a 00
        E 0 80 4b 00
        E 0 80 4c 00
        E 0 80 61 00
        E 0 80 62 00
        E 0 80 63 00
        E 0 80 64 00
        E 120 90 19 69
        E 0 90 31 69
        E 0 90 32 6b
        E 0 90 49 69
        E 0 90 4a 6b
        E 0 90 4b 6b
        E 0 90 4c 6b
        E 0 90 61 69
        E 0 90 62 6b
        E 0 90 63 6b
        E 0 90 64 6b
        E 120 80 19 00
        E 0 80 31 00
        E 0 80 32 00
        E 0 80 49 00
        E 0 80 4a 00
        E 0 80 4b 00
        E 0 80 4c 00
        E 0 80 61 00
        E 0 80 62 00
        E 0 80 63 00
        E 0 80 64 00
        E 120 90 31 69
        E 0 90 32 6b
        E 0 90 49 69
        E 0 90 4a 6b
        E 0 90 4b 6b
        E 0 90 4c 6b
        E 0 90 61 69
        E 0 90 62 6b
        E 0 90 63 6b
        E 0 90 64 6b
        E 120 80 31 00
        E 0 80 32 00
        E 0 80 49 00
        E 0 80 4a 00
        E 0 80 4b 00
        E 0 80 4c 00
        E 0 80 61 00
        E 0 80 62 00
        E 0 80 63 00
        E 0 80 64 00
        E 120 90 19 69
        E 0 90 31 69
        E 0 90 32 6b
        E 0 90 49 69
        E 0 90 4a 6b
        E 0 90 4b 6b
        E 0 90 4c 6b
        E 0 90 61 69
        E 0 90 62 6b
        E 0 90 63 6b
        E 0 90 64 6b
        E 120 80 19 00
        E 0 80 31 00
        E 0 80 32 00
        E 0 80 49 00
        E 0 80 4a 00
        E 0 80 4b 00
        E 0 80 4c 00
        E 0 80 61 00
        E 0 80 62 00
        E 0 80 63 00
        E 0 80 64 00
        E 120 90 09 64
        E 0 90 10 64
        E 0 90 49 6b
        E 0 90 4a 6b
        E 0 90 4b 6d
        E 0 90 4c 6e
        E 0 90 61 6b
        E 0 90 62 6b
        E 0 90 63 6d
        E 0 90 64 6e
        E 0 90 6c 6b
        E 120 80 09 00
        E 0 80 49 00
        E 0 80 4a 00
        E 0 80 4b 00
        E 0 80 4c 00
        E 0 80 61 00
        E 0 80 62 00
        E 0 80 63 00
        E 0 80 64 00
        E 0 80 6c 00
        E 120 90 31 6b
        E 0 90 32 6b
        E 0 90 49 6b
        E 0 90 4a 6b
        E 0 90 4b 6d
        E 0 90 4c 6e
        E 0 90 61 6b
        E 0 90 62 6b
        E 0 90 63 6d
        E 0 90 64 6e
        E 120 80 31 00
        E 0 80 32 00
        E 0 80 49 00
        E 0 80 4a 00
        E 0 80 4b 00
        E 0 80 4c 00
        E 0 80 61 00
        E 0 80 62 00
        E 0 80 63 00
        E 0 80 64 00
        E 120 90 49 6b
        E 0 90 4a 6b
        E 0 90 4b 6d
        E 0 90 4c 6e
        E 0 90 61 6b
        E 0 90 62 6b
        E 0 90 63 6d
        E 0 90 64 6e
        E 120 80 49 00
        E 0 80 4a 00
        E 0 80 4b 00
        E 0 80 4c 00
        E 0 80 61 00
        E 0 80 62 00
        E 0 80 63 00
        E 0 80 64 00
        E 120 90 07 64
        E 0 90 19 69
        E 0 90 31 69
        E 0 90 32 69
        E 0 90 49 69
        E 0 90 4a 69
        E 0 90 4b 6b
        E 0 90 4c 6c
        E 0 90 61 69
        E 0 90 62 69
        E 0 90 63 6b
        E 0 90 64 6c
        E 0 90 6c 69
        E 120 80 07 00
        E 0 80 19 00
        E 0 80 31 00
        E 0 80 32 00
        E 0 80 49 00
        E 0 80 4a 00
        E 0 80 4b 00
        E 0 80 4c 00
        E 0 80 61 00
        E 0 80 62 00
        E 0 80 63 00
        E 0 80 64 00
        E 0 80 6c 00
        E 120 90 49 69
        E 0 90 4a 69
        E 0 90 4b 6b
        E 0 90 4c 6c
        E 0 90 61 69
        E 0 90 62 69
        E 0 90 63 6b
        E 0 90 64 6c
        E 120 80 49 00
        E 0 80 4a 00
        E 0 80 4b 00
        E 0 80 4c 00
        E 0 80 61 00
        E 0 80 62 00
        E 0 80 63 00
        E 0 80 64 00
        E 120 90 09 64
        E 0 90 31 6b
        E 0 90 32 6b
        E 0 90 49 6b
        E 0 90 4a 6b
        E 0 90 4b 6d
        E 0 90 4c 6e
        E 0 90 61 6b
        E 0 90 62 6b
        E 0 90 63 6d
        E 0 90 64 6e
        E 0 90 6c 6b
        E 120 80 09 00
        E 0 80 31 00
        E 0 80 32 00
        E 0 80 6c 00
        E 240 80 49 00
        E 0 80 4a 00
        E 0 80 4b 00
        E 0 80 4c 00
        E 0 80 61 00
        E 0 80 62 00
        E 0 80 63 00
        E 0 80 64 00
        E 120 90 07 64
        E 0 90 19 69
        E 0 90 31 69
        E 0 90 32 69
        E 0 90 49 69
        E 0 90 4a 69
        E 0 90 4b 6b
        E 0 90 4c 6c
        E 0 90 61 69
        E 0 90 62 69
        E 0 90 63 6b
        E 0 90 64 6c
        E 0 90 6c 69
        E 120 80 07 00
        E 0 80 19 00
        E 0 80 31 00
        E 0 80 32 00
        E 0 80 49 00
        E 0 80 4a 00
        E 0 80 4b 00
        E 0 80 4c 00
        E 0 80 61 00
        E 0 80 62 00
        E 0 80 63 00
        E 0 80 64 00
        E 0 80 6c 00
        E 120 90 49 69
        E 0 90 4a 69
        E 0 90 4b 6b
        E 0 90 4c 6c
        E 0 90 61 69
        E 0 90 62 69
        E 0 90 63 6b
        E 0 90 64 6c
        E 120 80 49 00
        E 0 80 4a 00
        E 0 80 4b 00
        E 0 80 4c 00
        E 0 80 61 00
        E 0 80 62 00
        E 0 80 63 00
        E 0 80 64 00
        E 120 90 09 64
        E 0 90 31 6b
        E 0 90 32 6b
        E 0 90 49 6b
        E 0 90 4a 6b
        E 0 90 4b 6d
        E 0 90 4c 6e
        E 0 90 61 6b
        E 0 90 62 6b
        E 0 90 63 6d
        E 0 90 64 6e
        E 0 90 6c 6b
        E 120 80 10 00
        E 0 80 09 00
        E 0 80 6c 00
        E 240 80 31 00
        E 0 80 32 00
        E 0 80 49 00
        E 0 80 4a 00
        E 0 80 4b 00
        E 0 80 4c 00
        E 0 80 61 00
        E 0 80 62 00
        E 0 80 63 00
        E 0 80 64 00
        E 840 90 33 6b
        E 0 90 4b 6b
        E 0 90 63 6b
        E 0 90 6c 69
        E 120 80 33 00
        E 0 80 4b 00
        E 0 80 63 00
        E 0 80 6c 00
        E 120 90 1b 6b
        E 0 90 33 6b
        E 0 90 4b 6b
        E 0 90 63 6b
        E 120 80 1b 00
        E 0 80 33 00
        E 0 80 4b 00
        E 0 80 63 00
        E 120 90 4b 69
        E 0 90 63 69
        E 120 80 4b 00
        E 0 80 63 00
        E 840 90 33 6b
        E 0 90 4b 6b
        E 0 90 63 6b
        E 120 80 33 00
        E 0 80 4b 00
        E 0 80 63 00
        E 120 90 1b 6b
        E 0 90 33 6b
        E 0 90 4b 6b
        E 0 90 63 6b
        E 120 80 1b 00
        E 0 80 33 00
        E 0 80 4b 00
        E 0 80 63 00
        E 120 90 33 6b
        E 0 90 4b 6b
        E 0 90 63 6b
        E 120 80 33 00
        E 0 80 4b 00
        E 0 80 63 00
        E 120 90 1b 6b
        E 0 90 33 6b
        E 0 90 4b 6b
        E 0 90 63 6b
        E 120 80 1b 00
        E 0 80 33 00
        E 0 80 4b 00
        E 0 80 63 00
        E 120 90 4b 69
        E 0 90 63 69
        E 120 80 4b 00
        E 0 80 63 00
        E 120 90 34 6c
        E 0 90 4c 6c
        E 0 90 64 6c
        E 120 80 34 00
        E 0 80 4c 00
        E 0 80 64 00
        E 600 90 33 6b
        E 0 90 4b 6b
        E 0 90 63 6b
        E 120 80 33 00
        E 0 80 4b 00
        E 0 80 63 00
        E 120 90 1b 6b
        E 0 90 33 6b
        E 0 90 4b 6b
        E 0 90 63 6b
        E 120 80 1b 00
        E 0 80 33 00
        E 0 80 4b 00
        E 0 80 63 00
        E 120 90 33 6b
        E 0 90 4b 6b
        E 0 90 63 6b
        E 120 80 33 00
        E 0 80 4b 00
        E 0 80 63 00
        E 120 90 1b 6b
        E 0 90 33 6b
        E 0 90 4b 6b
        E 0 90 63 6b
        E 120 80 1b 00
        E 0 80 33 00
        E 0 80 4b 00
        E 0 80 63 00
        E 120 90 4b 69
        E 0 90 63 69
        E 120 80 4b 00
        E 0 80 63 00
        E 840 90 33 6b
        E 0 90 4b 6b
        E 0 90 63 6b
        E 120 80 33 00
        E 0 80 4b 00
        E 0 80 63 00
        E 120 90 1b 6b
        E 0 90 33 6b
        E 0 90 4b 6b
        E 0 90 63 6b
        E 120 80 1b 00
        E 0 80 33 00
        E 0 80 4b 00
        E 0 80 63 00
        E 120 90 33 6b
        E 0 90 4b 6b
        E 0 90 63 6b
        E 120 80 33 00
        E 0 80 4b 00
        E 0 80 63 00
        E 120 90 1b 6b
        E 0 90 33 6b
        E 0 90 4b 6b
        E 0 90 63 6b
        E 120 80 1b 00
        E 0 80 33 00
        E 0 80 4b 00
        E 0 80 63 00
        E 120 90 4b 69
        E 0 90 63 69
        E 120 80 4b 00
        E 0 80 63 00
        E 120 90 34 6c
        E 0 90 4c 6c
        E 0 90 64 6c
        E 120 80 34 00
        E 0 80 4c 00
        E 0 80 64 00
        E 600 90 33 6b
        E 0 90 4b 6b
        E 0 90 63 6b
        E 120 80 33 00
        E 0 80 4b 00
        E 0 80 63 00
        E 120 90 1b 6b
        E 0 90 33 6b
        E 0 90 4b 6b
        E 0 90 63 6b
        E 120 80 1b 00
        E 0 80 33 00
        E 0 80 4b 00
        E 0 80 63 00
        E 120 90 33 6b
        E 0 90 4b 6b
        E 0 90 63 6b
        E 120 80 33 00
        E 0 80 4b 00
        E 0 80 63 00
        E 120 90 1b 6b
        E 0 90 33 6b
        E 0 90 4b 6b
        E 0 90 63 6b
        E 120 80 1b 00
        E 0 80 33 00
        E 0 80 4b 00
        E 0 80 63 00
        E 120 90 4b 69
        E 0 90 63 69
        E 120 80 4b 00
        E 0 80 63 00
        E 840 90 33 6b
        E 0 90 4b 6b
        E 0 90 63 6b
        E 120 80 33 00
        E 0 80 4b 00
        E 0 80 63 00
        E 120 90 1b 6b
        E 0 90 33 6b
        E 0 90 4b 6b
        E 0 90 63 6b
        E 120 80 1b 00
        E 0 80 33 00
        E 0 80 4b 00
        E 0 80 63 00
        E 120 90 33 6b
        E 0 90 4b 6b
        E 0 90 63 6b
        E 120 80 33 00
        E 0 80 4b 00
        E 0 80 63 00
        E 120 90 1b 6b
        E 0 90 33 6b
        E 0 90 4b 6b
        E 0 90 63 6b
        E 120 80 1b 00
        E 0 80 33 00
        E 0 80 4b 00
        E 0 80 63 00
        E 120 90 4b 69
        E 0 90 63 69
        E 120 80 4b 00
        E 0 80 63 00
        E 120 90 34 6c
        E 0 90 4c 6c
        E 0 90 64 6c
        E 120 80 34 00
        E 0 80 4c 00
        E 0 80 64 00
        E 600 90 33 6b
        E 0 90 4b 6b
        E 0 90 63 6b
        E 120 80 33 00
        E 0 80 4b 00
        E 0 80 63 00
        E 120 90 1b 6b
        E 0 90 33 6b
        E 0 90 4b 6b
        E 0 90 63 6b
        E 120 80 1b 00
        E 0 80 33 00
        E 0 80 4b 00
        E 0 80 63 00
        E 120 90 33 6b
        E 0 90 4b 6b
        E 0 90 63 6b
        E 120 80 33 00
        E 0 80 4b 00
        E 0 80 63 00
        E 120 90 1b 6b
        E 0 90 33 6b
        E 0 90 4b 6b
        E 0 90 63 6b
        E 120 80 1b 00
        E 0 80 33 00
        E 0 80 4b 00
        E 0 80 63 00
        E 120 90 4b 69
        E 0 90 63 69
        E 120 80 4b 00
        E 0 80 63 00
        E 840 90 33 6b
        E 0 90 4b 6b
        E 0 90 63 6b
        E 120 80 33 00
        E 0 80 4b 00
        E 0 80 63 00
        E 120 90 1b 6b
        E 0 90 33 6b
        E 0 90 4b 6b
        E 0 90 63 6b
        E 120 80 1b 00
        E 0 80 33 00
        E 0 80 4b 00
        E 0 80 63 00
        E 120 90 33 6b
        E 0 90 4b 6b
        E 0 90 63 6b
        E 120 80 33 00
        E 0 80 4b 00
        E 0 80 63 00
        E 120 90 1b 6b
        E 0 90 33 6b
        E 0 90 4b 6b
        E 0 90 63 6b
        E 120 80 1b 00
        E 0 80 33 00
        E 0 80 4b 00
        E 0 80 63 00
        E 120 90 4b 69
        E 0 90 63 69
        E 120 80 4b 00
        E 0 80 63 00
        E 120 90 34 6c
        E 0 90 4c 6c
        E 0 90 64 6c
        E 120 80 34 00
        E 0 80 4c 00
        E 0 80 64 00
        E 120 93 64 6c
        E 120 83 64 00
        <X 120 0
          /wFbYmVnaW5fcGcgc29uZ190cmFpbmVyX3BnXzRd
        >
        E 0 90 1c 6c
        E 0 90 34 6c
        E 0 90 4c 6c
        E 0 90 64 6c
        E 120 80 1c 00
        E 0 80 34 00
        E 0 80 4c 00
        E 0 80 64 00
        E 120 93 64 6c
        E 120 83 64 00
        E 120 90 34 6a
        E 0 90 4c 6a
        E 0 90 64 6a
        E 120 80 34 00
        E 0 80 4c 00
        E 0 80 64 00
        E 120 93 64 6c
        E 120 83 64 00
        E 120 90 1c 69
        E 0 90 34 69
        E 0 90 4c 69
        E 0 90 64 69
        E 120 80 1c 00
        E 0 80 34 00
        E 0 80 4c 00
        E 0 80 64 00
        E 120 90 34 69
        E 0 90 4c 69
        E 0 90 64 69
        E 120 80 34 00
        E 0 80 4c 00
        E 0 80 64 00
        E 120 93 64 69
        E 120 83 64 00
        E 120 90 34 6a
        E 0 90 4c 6a
        E 0 90 64 6a
        E 120 80 34 00
        E 0 80 4c 00
        E 0 80 64 00
        <X 120 0
          /wFbcGdfbm9ybSBzb25nX3RyYWluZXJfcGdfNF0=
        >
        E 0 93 64 6a
        E 120 83 64 00
        E 120 90 34 69
        E 0 90 4c 69
        E 0 90 64 69
        E 120 80 34 00
        E 0 80 4c 00
        E 0 80 64 00
        E 120 93 64 69
        E 120 83 64 00
        E 120 90 4c 6c
        E 0 90 64 6c
        E 120 80 4c 00
        E 0 80 64 00
        E 120 90 1c 69
        E 0 90 34 69
        E 0 90 4c 69
        E 0 90 64 69
        E 120 80 1c 00
        E 0 80 34 00
        E 0 80 4c 00
        E 0 80 64 00
        E 120 90 4b 6b
        E 0 90 63 6b
        E 120 80 4b 00
        E 0 80 63 00
        E 120 90 33 69
        E 0 90 4b 69
        E 0 90 63 69
        E 120 80 33 00
        E 0 80 4b 00
        E 0 80 63 00
        E 120 93 63 69
        E 120 83 63 00
        E 120 90 1c 6c
        E 0 90 34 6c
        E 0 90 4c 6c
        E 0 90 64 6c
        E 0 90 74 64
        E 120 80 1c 00
        E 0 80 34 00
        E 0 80 4c 00
        E 0 80 64 00
        E 120 93 64 6c
        E 120 83 64 00
        E 120 90 34 6a
        E 0 90 4c 6a
        E 0 90 64 6a
        E 120 80 34 00
        E 0 80 4c 00
        E 0 80 64 00
        E 120 93 64 6c
        E 120 83 64 00
        E 120 90 1c 69
        E 0 90 34 69
        E 0 90 4c 69
        E 0 90 64 69
        E 120 80 1c 00
        E 0 80 34 00
        E 0 80 4c 00
        E 0 80 64 00
        E 120 90 34 69
        E 0 90 4c 69
        E 0 90 64 69
        E 120 80 34 00
        E 0 80 4c 00
        E 0 80 64 00
        E 120 93 64 69
        E 120 83 64 00
        E 120 90 34 6a
        E 0 90 4c 6a
        E 0 90 64 6a
        E 120 80 34 00
        E 0 80 4c 00
        E 0 80 64 00
        E 120 93 64 6a
        E 120 83 64 00
        E 120 90 34 69
        E 0 90 4c 69
        E 0 90 64 69
        E 120 80 34 00
        E 0 80 4c 00
        E 0 80 64 00
        E 120 93 64 69
        E 120 83 64 00
        E 120 90 4c 6c
        E 0 90 64 6c
        E 120 80 4c 00
        E 0 80 64 00
        E 120 90 1c 69
        E 0 90 34 69
        E 0 90 4c 69
        E 0 90 64 69
        E 120 80 1c 00
        E 0 80 34 00
        E 0 80 4c 00
        E 0 80 64 00
        E 120 90 4b 6b
        E 0 90 63 6b
        E 120 80 4b 00
        E 0 80 63 00
        E 120 90 33 69
        E 0 90 4b 69
        E 0 90 63 69
        E 120 80 33 00
        E 0 80 4b 00
        E 0 80 63 00
        E 120 93 63 69
        E 120 83 63 00
        <X 120 0
          /wFbZW5kX3BnIHNvbmdfdHJhaW5lcl9wZ180XQ==
        >
        E 0 80 74 00
        E 240 90 4c 6c
        E 0 90 64 6c
        E 120 80 4c 00
        E 0 80 64 00
        E 120 90 34 6a
        E 0 90 4c 6a
        E 0 90 64 6a
        E 120 80 34 00
        E 0 80 4c 00
        E 0 80 64 00
        E 120 93 64 6c
        E 120 83 64 00
        E 120 90 1c 69
        E 0 90 34 69
        E 0 90 4c 69
        E 0 90 64 69
        E 120 80 1c 00
        E 0 80 34 00
        E 0 80 4c 00
        E 0 80 64 00
        E 120 90 34 69
        E 0 90 4c 69
        E 0 90 64 69
        E 120 80 34 00
        E 0 80 4c 00
        E 0 80 64 00
        E 120 93 64 69
        E 120 83 64 00
        E 120 90 34 6a
        E 0 90 4c 6a
        E 0 90 64 6a
        E 120 80 34 00
        E 0 80 4c 00
        E 0 80 64 00
        E 120 93 64 6a
        E 120 83 64 00
        E 120 90 34 69
        E 0 90 4c 69
        E 0 90 64 69
        E 120 80 34 00
        E 0 80 4c 00
        E 0 80 64 00
        E 120 93 64 69
        E 120 83 64 00
        E 120 90 34 6c
        E 0 90 4c 6c
        E 0 90 64 6c
        E 120 80 34 00
        E 0 80 4c 00
        E 0 80 64 00
        E 120 90 1c 6c
        E 0 90 34 6c
        E 0 90 4c 6c
        E 0 90 64 6c
        E 120 80 1c 00
        E 0 80 34 00
        E 0 80 4c 00
        E 0 80 64 00
        E 120 90 34 6c
        E 0 90 4c 6c
        E 0 90 64 6c
        E 120 80 34 00
        E 0 80 4c 00
        E 0 80 64 00
        E 120 90 1c 6c
        E 0 90 34 6c
        E 0 90 4c 6c
        E 0 90 64 6c
        E 120 80 1c 00
        E 0 80 34 00
        E 0 80 4c 00
        E 0 80 64 00
        E 120 93 34 6c
        E 0 93 4c 6c
        E 0 93 64 6c
        E 120 83 34 00
        E 0 83 4c 00
        E 0 83 64 00
        E 120 90 1c 6c
        E 0 90 34 6c
        E 0 90 4c 6c
        E 0 90 64 6c
        E 120 80 1c 00
        E 0 80 34 00
        E 0 80 4c 00
        E 0 80 64 00
        E 120 93 64 6c
        E 120 83 64 00
        E 120 90 34 6a
        E 0 90 4c 6a
        E 0 90 64 6a
        E 120 80 34 00
        E 0 80 4c 00
        E 0 80 64 00
        E 120 93 64 6a
        E 120 83 64 00
        E 120 90 1c 69
        E 0 90 34 69
        E 0 90 4c 69
        E 0 90 64 69
        E 120 80 1c 00
        E 0 80 34 00
        E 0 80 4c 00
        E 0 80 64 00
        E 120 90 34 69
        E 0 90 4c 69
        E 0 90 64 69
        E 120 80 34 00
        E 0 80 4c 00
        E 0 80 64 00
        E 120 93 64 69
        E 120 83 64 00
        E 120 90 4c 6c
        E 0 90 4f 64
        E 0 90 64 6c
        E 0 90 67 64
        E 0 90 6c 6a
        E 120 80 4c 00
        E 0 80 4f 00
        E 0 80 64 00
        E 0 80 67 00
        E 0 80 6c 00
        E 120 90 4c 6e
        E 0 90 4e 64
        E 0 90 64 6e
        E 0 90 66 64
        E 0 90 6c 6c
        E 120 80 4c 00
        E 0 80 4e 00
        E 0 80 64 00
        E 0 80 66 00
        E 0 80 6c 00
        E 120 90 4c 6e
        E 0 90 64 6e
        E 120 80 4c 00
        E 0 80 64 00
        E 120 90 4c 6e
        E 0 90 64 6e
        E 120 80 4c 00
        E 0 80 64 00
        E 120 90 4c 6e
        E 0 90 64 6e
        E 120 80 4c 00
        E 0 80 64 00
        E 120 90 4c 6e
        E 0 90 64 6e
        E 120 80 4c 00
        E 0 80 64 00
        E 120 90 4c 6e
        E 0 90 64 6e
        E 120 80 4c 00
        E 0 80 64 00
        E 120 90 4c 6e
        E 0 90 4f 64
        E 0 90 64 6e
        E 0 90 67 64
        E 360 80 4c 00
        E 0 80 4f 00
        E 0 80 64 00
        E 0 80 67 00
        E 120 90 0e 64
        E 0 90 19 69
        E 0 90 31 69
        E 0 90 32 6b
        E 0 90 49 69
        E 0 90 4a 6b
        E 0 90 4b 6b
        E 0 90 4c 6b
        E 0 90 61 69
        E 0 90 62 6b
        E 0 90 63 6b
        E 0 90 64 6b
        E 0 90 6c 69
        E 120 80 0e 00
        E 0 80 19 00
        E 0 80 31 00
        E 0 80 32 00
        E 0 80 49 00
        E 0 80 4a 00
        E 0 80 4b 00
        E 0 80 4c 00
        E 0 80 61 00
        E 0 80 62 00
        E 0 80 63 00
        E 0 80 64 00
        E 0 80 6c 00
        E 120 90 31 69
        E 0 90 32 6b
        E 0 90 49 69
        E 0 90 4a 6b
        E 0 90 4b 6b
        E 0 90 4c 6b
        E 0 90 61 69
        E 0 90 62 6b
        E 0 90 63 6b
        E 0 90 64 6b
        E 120 80 31 00
        E 0 80 32 00
        E 0 80 49 00
        E 0 80 4a 00
        E 0 80 4b 00
        E 0 80 4c 00
        E 0 80 61 00
        E 0 80 62 00
        E 0 80 63 00
        E 0 80 64 00
        E 120 90 19 69
        E 0 90 31 69
        E 0 90 32 6b
        E 0 90 49 69
        E 0 90 4a 6b
        E 0 90 4b 6b
        E 0 90 4c 6b
        E 0 90 61 69
        E 0 90 62 6b
        E 0 90 63 6b
        E 0 90 64 6b
        E 120 80 19 00
        E 0 80 31 00
        E 0 80 32 00
        E 0 80 49 00
        E 0 80 4a 00
        E 0 80 4b 00
        E 0 80 4c 00
        E 0 80 61 00
        E 0 80 62 00
        E 0 80 63 00
        E 0 80 64 00
        E 120 90 31 69
        E 0 90 32 6b
        E 0 90 49 69
        E 0 90 4a 6b
        E 0 90 4b 6b
        E 0 90 4c 6b
        E 0 90 61 69
        E 0 90 62 6b
        E 0 90 63 6b
        E 0 90 64 6b
        E 120 80 31 00
        E 0 80 32 00
        E 0 80 49 00
        E 0 80 4a 00
        E 0 80 4b 00
        E 0 80 4c 00
        E 0 80 61 00
        E 0 80 62 00
        E 0 80 63 00
        E 0 80 64 00
        E 120 90 19 69
        E 0 90 31 69
        E 0 90 32 6b
        E 0 90 49 69
        E 0 90 4a 6b
        E 0 90 4b 6b
        E 0 90 4c 6b
        E 0 90 61 69
        E 0 90 62 6b
        E 0 90 63 6b
        E 0 90 64 6b
        E 120 80 19 00
        E 0 80 31 00
        E 0 80 32 00
        E 0 80 49 00
        E 0 80 4a 00
        E 0 80 4b 00
        E 0 80 4c 00
        E 0 80 61 00
        E 0 80 62 00
        E 0 80 63 00
        E 0 80 64 00
        E 120 90 09 64
        E 0 90 10 64
        E 0 90 49 6b
        E 0 90 4a 6b
        E 0 90 4b 6d
        E 0 90 4c 6e
        E 0 90 61 6b
        E 0 90 62 6b
        E 0 90 63 6d
        E 0 90 64 6e
        E 0 90 6c 6b
        E 120 80 09 00
        E 0 80 49 00
        E 0 80 4a 00
        E 0 80 4b 00
        E 0 80 4c 00
        E 0 80 61 00
        E 0 80 62 00
        E 0 80 63 00
        E 0 80 64 00
        E 0 80 6c 00
        E 120 90 31 6b
        E 0 90 32 6b
        E 0 90 49 6b
        E 0 90 4a 6b
        E 0 90 4b 6d
        E 0 90 4c 6e
        E 0 90 61 6b
        E 0 90 62 6b
        E 0 90 63 6d
        E 0 90 64 6e
        E 120 80 31 00
        E 0 80 32 00
        E 0 80 49 00
        E 0 80 4a 00
        E 0 80 4b 00
        E 0 80 4c 00
        E 0 80 61 00
        E 0 80 62 00
        E 0 80 63 00
        E 0 80 64 00
        E 120 90 49 6b
        E 0 90 4a 6b
        E 0 90 4b 6d
        E 0 90 4c 6e
        E 0 90 61 6b
        E 0 90 62 6b
        E 0 90 63 6d
        E 0 90 64 6e
        E 120 80 49 00
        E 0 80 4a 00
        E 0 80 4b 00
        E 0 80 4c 00
        E 0 80 61 00
        E 0 80 62 00
        E 0 80 63 00
        E 0 80 64 00
        E 120 90 07 64
        E 0 90 19 69
        E 0 90 31 69
        E 0 90 32 69
        E 0 90 49 69
        E 0 90 4a 69
        E 0 90 4b 6b
        E 0 90 4c 6c
        E 0 90 61 69
        E 0 90 62 69
        E 0 90 63 6b
        E 0 90 64 6c
        E 0 90 6c 69
        E 120 80 07 00
        E 0 80 19 00
        E 0 80 31 00
        E 0 80 32 00
        E 0 80 49 00
        E 0 80 4a 00
        E 0 80 4b 00
        E 0 80 4c 00
        E 0 80 61 00
        E 0 80 62 00
        E 0 80 63 00
        E 0 80 64 00
        E 0 80 6c 00
        E 120 90 49 69
        E 0 90 4a 69
        E 0 90 4b 6b
        E 0 90 4c 6c
        E 0 90 61 69
        E 0 90 62 69
        E 0 90 63 6b
        E 0 90 64 6c
        E 120 80 49 00
        E 0 80 4a 00
        E 0 80 4b 00
        E 0 80 4c 00
        E 0 80 61 00
        E 0 80 62 00
        E 0 80 63 00
        E 0 80 64 00
        E 120 90 09 64
        E 0 90 31 6b
        E 0 90 32 6b
        E 0 90 49 6b
        E 0 90 4a 6b
        E 0 90 4b 6d
        E 0 90 4c 6e
        E 0 90 61 6b
        E 0 90 62 6b
        E 0 90 63 6d
        E 0 90 64 6e
        E 0 90 6c 6b
        E 120 80 09 00
        E 0 80 31 00
        E 0 80 32 00
        E 0 80 6c 00
        E 240 80 49 00
        E 0 80 4a 00
        E 0 80 4b 00
        E 0 80 4c 00
        E 0 80 61 00
        E 0 80 62 00
        E 0 80 63 00
        E 0 80 64 00
        E 120 90 07 64
        E 0 90 19 69
        E 0 90 31 69
        E 0 90 32 69
        E 0 90 49 69
        E 0 90 4a 69
        E 0 90 4b 6b
        E 0 90 4c 6c
        E 0 90 61 69
        E 0 90 62 69
        E 0 90 63 6b
        E 0 90 64 6c
        E 0 90 6c 69
        E 120 80 07 00
        E 0 80 19 00
        E 0 80 31 00
        E 0 80 32 00
        E 0 80 49 00
        E 0 80 4a 00
        E 0 80 4b 00
        E 0 80 4c 00
        E 0 80 61 00
        E 0 80 62 00
        E 0 80 63 00
        E 0 80 64 00
        E 0 80 6c 00
        E 120 90 49 69
        E 0 90 4a 69
        E 0 90 4b 6b
        E 0 90 4c 6c
        E 0 90 61 69
        E 0 90 62 69
        E 0 90 63 6b
        E 0 90 64 6c
        E 120 80 49 00
        E 0 80 4a 00
        E 0 80 4b 00
        E 0 80 4c 00
        E 0 80 61 00
        E 0 80 62 00
        E 0 80 63 00
        E 0 80 64 00
        E 120 90 09 64
        E 0 90 31 6b
        E 0 90 32 6b
        E 0 90 49 6b
        E 0 90 4a 6b
        E 0 90 4b 6d
        E 0 90 4c 6e
        E 0 90 61 6b
        E 0 90 62 6b
        E 0 90 63 6d
        E 0 90 64 6e
        E 0 90 6c 6b
        E 120 80 10 00
        E 0 80 09 00
        E 0 80 31 00
        E 0 80 32 00
        E 0 80 6c 00
        E 240 80 49 00
        E 0 80 4a 00
        E 0 80 4b 00
        E 0 80 4c 00
        E 0 80 61 00
        E 0 80 62 00
        E 0 80 63 00
        E 0 80 64 00
        E 120 90 0e 64
        E 0 90 19 69
        E 0 90 31 69
        E 0 90 32 6b
        E 0 90 49 69
        E 0 90 4a 6b
        E 0 90 4b 6b
        E 0 90 4c 6b
        E 0 90 61 69
        E 0 90 62 6b
        E 0 90 63 6b
        E 0 90 64 6b
        E 0 90 6c 69
        E 120 80 0e 00
        E 0 80 19 00
        E 0 80 31 00
        E 0 80 32 00
        E 0 80 49 00
        E 0 80 4a 00
        E 0 80 4b 00
        E 0 80 4c 00
        E 0 80 61 00
        E 0 80 62 00
        E 0 80 63 00
        E 0 80 64 00
        E 0 80 6c 00
        E 120 90 31 69
        E 0 90 32 6b
        E 0 90 49 69
        E 0 90 4a 6b
        E 0 90 4b 6b
        E 0 90 4c 6b
        E 0 90 61 69
        E 0 90 62 6b
        E 0 90 63 6b
        E 0 90 64 6b
        E 120 80 31 00
        E 0 80 32 00
        E 0 80 49 00
        E 0 80 4a 00
        E 0 80 4b 00
        E 0 80 4c 00
        E 0 80 61 00
        E 0 80 62 00
        E 0 80 63 00
        E 0 80 64 00
        E 120 90 19 69
        E 0 90 31 69
        E 0 90 32 6b
        E 0 90 49 69
        E 0 90 4a 6b
        E 0 90 4b 6b
        E 0 90 4c 6b
        E 0 90 61 69
        E 0 90 62 6b
        E 0 90 63 6b
        E 0 90 64 6b
        E 120 80 19 00
        E 0 80 31 00
        E 0 80 32 00
        E 0 80 49 00
        E 0 80 4a 00
        E 0 80 4b 00
        E 0 80 4c 00
        E 0 80 61 00
        E 0 80 62 00
        E 0 80 63 00
        E 0 80 64 00
        E 120 90 31 69
        E 0 90 32 6b
        E 0 90 49 69
        E 0 90 4a 6b
        E 0 90 4b 6b
        E 0 90 4c 6b
        E 0 90 61 69
        E 0 90 62 6b
        E 0 90 63 6b
        E 0 90 64 6b
        E 120 80 31 00
        E 0 80 32 00
        E 0 80 49 00
        E 0 80 4a 00
        E 0 80 4b 00
        E 0 80 4c 00
        E 0 80 61 00
        E 0 80 62 00
        E 0 80 63 00
        E 0 80 64 00
        E 120 90 19 69
        E 0 90 31 69
        E 0 90 32 6b
        E 0 90 49 69
        E 0 90 4a 6b
        E 0 90 4b 6b
        E 0 90 4c 6b
        E 0 90 61 69
        E 0 90 62 6b
        E 0 90 63 6b
        E 0 90 64 6b
        E 120 80 19 00
        E 0 80 31 00
        E 0 80 32 00
        E 0 80 49 00
        E 0 80 4a 00
        E 0 80 4b 00
        E 0 80 4c 00
        E 0 80 61 00
        E 0 80 62 00
        E 0 80 63 00
        E 0 80 64 00
        E 120 90 09 64
        E 0 90 10 64
        E 0 90 49 6b
        E 0 90 4a 6b
        E 0 90 4b 6d
        E 0 90 4c 6e
        E 0 90 61 6b
        E 0 90 62 6b
        E 0 90 63 6d
        E 0 90 64 6e
        E 0 90 6c 6b
        E 120 80 09 00
        E 0 80 49 00
        E 0 80 4a 00
        E 0 80 4b 00
        E 0 80 4c 00
        E 0 80 61 00
        E 0 80 62 00
        E 0 80 63 00
        E 0 80 64 00
        E 0 80 6c 00
        E 120 90 31 6b
        E 0 90 32 6b
        E 0 90 49 6b
        E 0 90 4a 6b
        E 0 90 4b 6d
        E 0 90 4c 6e
        E 0 90 61 6b
        E 0 90 62 6b
        E 0 90 63 6d
        E 0 90 64 6e
        E 120 80 31 00
        E 0 80 32 00
        E 0 80 49 00
        E 0 80 4a 00
        E 0 80 4b 00
        E 0 80 4c 00
        E 0 80 61 00
        E 0 80 62 00
        E 0 80 63 00
        E 0 80 64 00
        E 120 90 49 6b
        E 0 90 4a 6b
        E 0 90 4b 6d
        E 0 90 4c 6e
        E 0 90 61 6b
        E 0 90 62 6b
        E 0 90 63 6d
        E 0 90 64 6e
        E 120 80 49 00
        E 0 80 4a 00
        E 0 80 4b 00
        E 0 80 4c 00
        E 0 80 61 00
        E 0 80 62 00
        E 0 80 63 00
        E 0 80 64 00
        E 120 90 07 64
        E 0 90 19 69
        E 0 90 31 69
        E 0 90 32 69
        E 0 90 49 69
        E 0 90 4a 69
        E 0 90 4b 6b
        E 0 90 4c 6c
        E 0 90 61 69
        E 0 90 62 69
        E 0 90 63 6b
        E 0 90 64 6c
        E 0 90 6c 69
        E 120 80 07 00
        E 0 80 19 00
        E 0 80 31 00
        E 0 80 32 00
        E 0 80 49 00
        E 0 80 4a 00
        E 0 80 4b 00
        E 0 80 4c 00
        E 0 80 61 00
        E 0 80 62 00
        E 0 80 63 00
        E 0 80 64 00
        E 0 80 6c 00
        E 120 90 49 69
        E 0 90 4a 69
        E 0 90 4b 6b
        E 0 90 4c 6c
        E 0 90 61 69
        E 0 90 62 69
        E 0 90 63 6b
        E 0 90 64 6c
        E 120 80 49 00
        E 0 80 4a 00
        E 0 80 4b 00
        E 0 80 4c 00
        E 0 80 61 00
        E 0 80 62 00
        E 0 80 63 00
        E 0 80 64 00
        E 120 90 09 64
        E 0 90 31 6b
        E 0 90 32 6b
        E 0 90 49 6b
        E 0 90 4a 6b
        E 0 90 4b 6d
        E 0 90 4c 6e
        E 0 90 61 6b
        E 0 90 62 6b
        E 0 90 63 6d
        E 0 90 64 6e
        E 0 90 6c 6b
        E 120 80 09 00
        E 0 80 31 00
        E 0 80 32 00
        E 0 80 6c 00
        E 240 80 49 00
        E 0 80 4a 00
        E 0 80 4b 00
        E 0 80 4c 00
        E 0 80 61 00
        E 0 80 62 00
        E 0 80 63 00
        E 0 80 64 00
        E 120 90 07 64
        E 0 90 19 69
        E 0 90 31 69
        E 0 90 32 69
        E 0 90 49 69
        E 0 90 4a 69
        E 0 90 4b 6b
        E 0 90 4c 6c
        E 0 90 61 69
        E 0 90 62 69
        E 0 90 63 6b
        E 0 90 64 6c
        E 0 90 6c 69
        E 120 80 07 00
        E 0 80 19 00
        E 0 80 31 00
        E 0 80 32 00
        E 0 80 49 00
        E 0 80 4a 00
        E 0 80 4b 00
        E 0 80 4c 00
        E 0 80 61 00
        E 0 80 62 00
        E 0 80 63 00
        E 0 80 64 00
        E 0 80 6c 00
        E 120 90 49 69
        E 0 90 4a 69
        E 0 90 4b 6b
        E 0 90 4c 6c
        E 0 90 61 69
        E 0 90 62 69
        E 0 90 63 6b
        E 0 90 64 6c
        E 120 80 49 00
        E 0 80 4a 00
        E 0 80 4b 00
        E 0 80 4c 00
        E 0 80 61 00
        E 0 80 62 00
        E 0 80 63 00
        E 0 80 64 00
        E 120 90 09 64
        E 0 90 31 6b
        E 0 90 32 6b
        E 0 90 49 6b
        E 0 90 4a 6b
        E 0 90 4b 6d
        E 0 90 4c 6e
        E 0 90 61 6b
        E 0 90 62 6b
        E 0 90 63 6d
        E 0 90 64 6e
        E 0 90 6c 6b
        E 120 80 10 00
        E 0 80 09 00
        E 0 80 31 00
        E 0 80 32 00
        E 0 80 6c 00
        E 240 80 49 00
        E 0 80 4a 00
        E 0 80 4b 00
        E 0 80 4c 00
        E 0 80 61 00
        E 0 80 62 00
        E 0 80 63 00
        E 0 80 64 00
        E 120 90 0e 64
        E 0 90 19 69
        E 0 90 31 69
        E 0 90 32 6b
        E 0 90 49 69
        E 0 90 4a 6b
        E 0 90 4b 6b
        E 0 90 4c 6b
        E 0 90 61 69
        E 0 90 62 6b
        E 0 90 63 6b
        E 0 90 64 6b
        E 0 90 6c 69
        E 0 90 74 64
        E 120 80 0e 00
        E 0 80 19 00
        E 0 80 31 00
        E 0 80 32 00
        E 0 80 49 00
        E 0 80 4a 00
        E 0 80 4b 00
        E 0 80 4c 00
        E 0 80 61 00
        E 0 80 62 00
        E 0 80 63 00
        E 0 80 64 00
        E 0 80 6c 00
        E 120 90 31 69
        E 0 90 32 6b
        E 0 90 49 69
        E 0 90 4a 6b
        E 0 90 4b 6b
        E 0 90 4c 6b
        E 0 90 61 69
        E 0 90 62 6b
        E 0 90 63 6b
        E 0 90 64 6b
        E 120 80 31 00
        E 0 80 32 00
        E 0 80 49 00
        E 0 80 4a 00
        E 0 80 4b 00
        E 0 80 4c 00
        E 0 80 61 00
        E 0 80 62 00
        E 0 80 63 00
        E 0 80 64 00
        E 120 90 19 69
        E 0 90 31 69
        E 0 90 32 6b
        E 0 90 49 69
        E 0 90 4a 6b
        E 0 90 4b 6b
        E 0 90 4c 6b
        E 0 90 61 69
        E 0 90 62 6b
        E 0 90 63 6b
        E 0 90 64 6b
        E 120 80 19 00
        E 0 80 31 00
        E 0 80 32 00
        E 0 80 49 00
        E 0 80 4a 00
        E 0 80 4b 00
        E 0 80 4c 00
        E 0 80 61 00
        E 0 80 62 00
        E 0 80 63 00
        E 0 80 64 00
        E 120 90 31 69
        E 0 90 32 6b
        E 0 90 49 69
        E 0 90 4a 6b
        E 0 90 4b 6b
        E 0 90 4c 6b
        E 0 90 61 69
        E 0 90 62 6b
        E 0 90 63 6b
        E 0 90 64 6b
        E 120 80 31 00
        E 0 80 32 00
        E 0 80 49 00
        E 0 80 4a 00
        E 0 80 4b 00
        E 0 80 4c 00
        E 0 80 61 00
        E 0 80 62 00
        E 0 80 63 00
        E 0 80 64 00
        E 120 90 19 69
        E 0 90 31 69
        E 0 90 32 6b
        E 0 90 49 69
        E 0 90 4a 6b
        E 0 90 4b 6b
        E 0 90 4c 6b
        E 0 90 61 69
        E 0 90 62 6b
        E 0 90 63 6b
        E 0 90 64 6b
        E 120 80 19 00
        E 0 80 31 00
        E 0 80 32 00
        E 0 80 49 00
        E 0 80 4a 00
        E 0 80 4b 00
        E 0 80 4c 00
        E 0 80 61 00
        E 0 80 62 00
        E 0 80 63 00
        E 0 80 64 00
        E 120 90 09 64
        E 0 90 10 64
        E 0 90 49 6b
        E 0 90 4a 6b
        E 0 90 4b 6d
        E 0 90 4c 6e
        E 0 90 61 6b
        E 0 90 62 6b
        E 0 90 63 6d
        E 0 90 64 6e
        E 0 90 6c 6b
        E 120 80 09 00
        E 0 80 49 00
        E 0 80 4a 00
        E 0 80 4b 00
        E 0 80 4c 00
        E 0 80 61 00
        E 0 80 62 00
        E 0 80 63 00
        E 0 80 64 00
        E 0 80 6c 00
        E 120 90 31 6b
        E 0 90 32 6b
        E 0 90 49 6b
        E 0 90 4a 6b
        E 0 90 4b 6d
        E 0 90 4c 6e
        E 0 90 61 6b
        E 0 90 62 6b
        E 0 90 63 6d
        E 0 90 64 6e
        E 120 80 31 00
        E 0 80 32 00
        E 0 80 49 00
        E 0 80 4a 00
        E 0 80 4b 00
        E 0 80 4c 00
        E 0 80 61 00
        E 0 80 62 00
        E 0 80 63 00
        E 0 80 64 00
        E 120 90 49 6b
        E 0 90 4a 6b
        E 0 90 4b 6d
        E 0 90 4c 6e
        E 0 90 61 6b
        E 0 90 62 6b
        E 0 90 63 6d
        E 0 90 64 6e
        E 120 80 49 00
        E 0 80 4a 00
        E 0 80 4b 00
        E 0 80 4c 00
        E 0 80 61 00
        E 0 80 62 00
        E 0 80 63 00
        E 0 80 64 00
        E 120 90 07 64
        E 0 90 19 69
        E 0 90 31 69
        E 0 90 32 69
        E 0 90 49 69
        E 0 90 4a 69
        E 0 90 4b 6b
        E 0 90 4c 6c
        E 0 90 61 69
        E 0 90 62 69
        E 0 90 63 6b
        E 0 90 64 6c
        E 0 90 6c 69
        E 120 80 07 00
        E 0 80 19 00
        E 0 80 31 00
        E 0 80 32 00
        E 0 80 49 00
        E 0 80 4a 00
        E 0 80 4b 00
        E 0 80 4c 00
        E 0 80 61 00
        E 0 80 62 00
        E 0 80 63 00
        E 0 80 64 00
        E 0 80 6c 00
        E 120 90 49 69
        E 0 90 4a 69
        E 0 90 4b 6b
        E 0 90 4c 6c
        E 0 90 61 69
        E 0 90 62 69
        E 0 90 63 6b
        E 0 90 64 6c
        E 120 80 49 00
        E 0 80 4a 00
        E 0 80 4b 00
        E 0 80 4c 00
        E 0 80 61 00
        E 0 80 62 00
        E 0 80 63 00
        E 0 80 64 00
        E 120 90 09 64
        E 0 90 31 6b
        E 0 90 32 6b
        E 0 90 49 6b
        E 0 90 4a 6b
        E 0 90 4b 6d
        E 0 90 4c 6e
        E 0 90 61 6b
        E 0 90 62 6b
        E 0 90 63 6d
        E 0 90 64 6e
        E 0 90 6c 6b
        E 120 80 09 00
        E 0 80 31 00
        E 0 80 32 00
        E 0 80 6c 00
        E 240 80 49 00
        E 0 80 4a 00
        E 0 80 4b 00
        E 0 80 4c 00
        E 0 80 61 00
        E 0 80 62 00
        E 0 80 63 00
        E 0 80 64 00
        E 120 90 07 64
        E 0 90 19 69
        E 0 90 31 69
        E 0 90 32 69
        E 0 90 49 69
        E 0 90 4a 69
        E 0 90 4b 6b
        E 0 90 4c 6c
        E 0 90 61 69
        E 0 90 62 69
        E 0 90 63 6b
        E 0 90 64 6c
        E 0 90 6c 69
        E 120 80 07 00
        E 0 80 19 00
        E 0 80 31 00
        E 0 80 32 00
        E 0 80 49 00
        E 0 80 4a 00
        E 0 80 4b 00
        E 0 80 4c 00
        E 0 80 61 00
        E 0 80 62 00
        E 0 80 63 00
        E 0 80 64 00
        E 0 80 6c 00
        E 120 90 49 69
        E 0 90 4a 69
        E 0 90 4b 6b
        E 0 90 4c 6c
        E 0 90 61 69
        E 0 90 62 69
        E 0 90 63 6b
        E 0 90 64 6c
        E 120 80 49 00
        E 0 80 4a 00
        E 0 80 4b 00
        E 0 80 4c 00
        E 0 80 61 00
        E 0 80 62 00
        E 0 80 63 00
        E 0 80 64 00
        E 120 90 09 64
        E 0 90 31 6b
        E 0 90 32 6b
        E 0 90 49 6b
        E 0 90 4a 6b
        E 0 90 4b 6d
        E 0 90 4c 6e
        E 0 90 61 6b
        E 0 90 62 6b
        E 0 90 63 6d
        E 0 90 64 6e
        E 0 90 6c 6b
        E 120 80 10 00
        E 0 80 09 00
        E 0 80 31 00
        E 0 80 32 00
        E 0 80 6c 00
        E 240 80 49 00
        E 0 80 4a 00
        E 0 80 4b 00
        E 0 80 4c 00
        E 0 80 61 00
        E 0 80 62 00
        E 0 80 63 00
        E 0 80 64 00
        E 120 80 74 00
        E 0 90 0e 64
        E 0 90 19 69
        E 0 90 31 69
        E 0 90 32 6b
        E 0 90 49 69
        E 0 90 4a 6b
        E 0 90 4b 6b
        E 0 90 4c 6b
        E 0 90 61 69
        E 0 90 62 6b
        E 0 90 63 6b
        E 0 90 64 6b
        E 0 90 6c 69
        E 120 80 0e 00
        E 0 80 19 00
        E 0 80 31 00
        E 0 80 32 00
        E 0 80 49 00
        E 0 80 4a 00
        E 0 80 4b 00
        E 0 80 4c 00
        E 0 80 61 00
        E 0 80 62 00
        E 0 80 63 00
        E 0 80 64 00
        E 0 80 6c 00
        E 120 90 31 69
        E 0 90 32 6b
        E 0 90 49 69
        E 0 90 4a 6b
        E 0 90 4b 6b
        E 0 90 4c 6b
        E 0 90 61 69
        E 0 90 62 6b
        E 0 90 63 6b
        E 0 90 64 6b
        E 120 80 31 00
        E 0 80 32 00
        E 0 80 49 00
        E 0 80 4a 00
        E 0 80 4b 00
        E 0 80 4c 00
        E 0 80 61 00
        E 0 80 62 00
        E 0 80 63 00
        E 0 80 64 00
        E 120 90 19 69
        E 0 90 31 69
        E 0 90 32 6b
        E 0 90 49 69
        E 0 90 4a 6b
        E 0 90 4b 6b
        E 0 90 4c 6b
        E 0 90 61 69
        E 0 90 62 6b
        E 0 90 63 6b
        E 0 90 64 6b
        E 120 80 19 00
        E 0 80 31 00
        E 0 80 32 00
        E 0 80 49 00
        E 0 80 4a 00
        E 0 80 4b 00
        E 0 80 4c 00
        E 0 80 61 00
        E 0 80 62 00
        E 0 80 63 00
        E 0 80 64 00
        E 120 90 31 69
        E 0 90 32 6b
        E 0 90 49 69
        E 0 90 4a 6b
        E 0 90 4b 6b
        E 0 90 4c 6b
        E 0 90 61 69
        E 0 90 62 6b
        E 0 90 63 6b
        E 0 90 64 6b
        E 120 80 31 00
        E 0 80 32 00
        E 0 80 49 00
        E 0 80 4a 00
        E 0 80 4b 00
        E 0 80 4c 00
        E 0 80 61 00
        E 0 80 62 00
        E 0 80 63 00
        E 0 80 64 00
        E 120 90 19 69
        E 0 90 31 69
        E 0 90 32 6b
        E 0 90 49 69
        E 0 90 4a 6b
        E 0 90 4b 6b
        E 0 90 4c 6b
        E 0 90 61 69
        E 0 90 62 6b
        E 0 90 63 6b
        E 0 90 64 6b
        E 120 80 19 00
        E 0 80 31 00
        E 0 80 32 00
        E 0 80 49 00
        E 0 80 4a 00
        E 0 80 4b 00
        E 0 80 4c 00
        E 0 80 61 00
        E 0 80 62 00
        E 0 80 63 00
        E 0 80 64 00
        E 120 90 09 64
        E 0 90 10 64
        E 0 90 49 6b
        E 0 90 4a 6b
        E 0 90 4b 6d
        E 0 90 4c 6e
        E 0 90 61 6b
        E 0 90 62 6b
        E 0 90 63 6d
        E 0 90 64 6e
        E 0 90 6c 6b
        E 120 80 09 00
        E 0 80 49 00
        E 0 80 4a 00
        E 0 80 4b 00
        E 0 80 4c 00
        E 0 80 61 00
        E 0 80 62 00
        E 0 80 63 00
        E 0 80 64 00
        E 0 80 6c 00
        E 120 90 31 6b
        E 0 90 32 6b
        E 0 90 49 6b
        E 0 90 4a 6b
        E 0 90 4b 6d
        E 0 90 4c 6e
        E 0 90 61 6b
        E 0 90 62 6b
        E 0 90 63 6d
        E 0 90 64 6e
        E 120 80 31 00
        E 0 80 32 00
        E 0 80 49 00
        E 0 80 4a 00
        E 0 80 4b 00
        E 0 80 4c 00
        E 0 80 61 00
        E 0 80 62 00
        E 0 80 63 00
        E 0 80 64 00
        E 120 90 49 6b
        E 0 90 4a 6b
        E 0 90 4b 6d
        E 0 90 4c 6e
        E 0 90 61 6b
        E 0 90 62 6b
        E 0 90 63 6d
        E 0 90 64 6e
        E 120 80 49 00
        E 0 80 4a 00
        E 0 80 4b 00
        E 0 80 4c 00
        E 0 80 61 00
        E 0 80 62 00
        E 0 80 63 00
        E 0 80 64 00
        E 120 90 07 64
        E 0 90 19 69
        E 0 90 31 69
        E 0 90 32 69
        E 0 90 49 69
        E 0 90 4a 69
        E 0 90 4b 6b
        E 0 90 4c 6c
        E 0 90 61 69
        E 0 90 62 69
        E 0 90 63 6b
        E 0 90 64 6c
        E 0 90 6c 69
        E 120 80 07 00
        E 0 80 19 00
        E 0 80 31 00
        E 0 80 32 00
        E 0 80 49 00
        E 0 80 4a 00
        E 0 80 4b 00
        E 0 80 4c 00
        E 0 80 61 00
        E 0 80 62 00
        E 0 80 63 00
        E 0 80 64 00
        E 0 80 6c 00
        E 120 90 49 69
        E 0 90 4a 69
        E 0 90 4b 6b
        E 0 90 4c 6c
        E 0 90 61 69
        E 0 90 62 69
        E 0 90 63 6b
        E 0 90 64 6c
        E 120 80 49 00
        E 0 80 4a 00
        E 0 80 4b 00
        E 0 80 4c 00
        E 0 80 61 00
        E 0 80 62 00
        E 0 80 63 00
        E 0 80 64 00
        E 120 90 09 64
        E 0 90 31 6b
        E 0 90 32 6b
        E 0 90 49 6b
        E 0 90 4a 6b
        E 0 90 4b 6d
        E 0 90 4c 6e
        E 0 90 61 6b
        E 0 90 62 6b
        E 0 90 63 6d
        E 0 90 64 6e
        E 0 90 6c 6b
        E 120 80 09 00
        E 0 80 31 00
        E 0 80 32 00
        E 0 80 6c 00
        E 240 80 49 00
        E 0 80 4a 00
        E 0 80 4b 00
        E 0 80 4c 00
        E 0 80 61 00
        E 0 80 62 00
        E 0 80 63 00
        E 0 80 64 00
        E 120 90 07 64
        E 0 90 19 69
        E 0 90 31 69
        E 0 90 32 69
        E 0 90 49 69
        E 0 90 4a 69
        E 0 90 4b 6b
        E 0 90 4c 6c
        E 0 90 61 69
        E 0 90 62 69
        E 0 90 63 6b
        E 0 90 64 6c
        E 0 90 6c 69
        E 120 80 07 00
        E 0 80 19 00
        E 0 80 31 00
        E 0 80 32 00
        E 0 80 49 00
        E 0 80 4a 00
        E 0 80 4b 00
        E 0 80 4c 00
        E 0 80 61 00
        E 0 80 62 00
        E 0 80 63 00
        E 0 80 64 00
        E 0 80 6c 00
        E 120 90 49 69
        E 0 90 4a 69
        E 0 90 4b 6b
        E 0 90 4c 6c
        E 0 90 61 69
        E 0 90 62 69
        E 0 90 63 6b
        E 0 90 64 6c
        E 120 80 49 00
        E 0 80 4a 00
        E 0 80 4b 00
        E 0 80 4c 00
        E 0 80 61 00
        E 0 80 62 00
        E 0 80 63 00
        E 0 80 64 00
        E 120 90 09 64
        E 0 90 31 6b
        E 0 90 32 6b
        E 0 90 49 6b
        E 0 90 4a 6b
        E 0 90 4b 6d
        E 0 90 4c 6e
        E 0 90 61 6b
        E 0 90 62 6b
        E 0 90 63 6d
        E 0 90 64 6e
        E 0 90 6c 6b
        E 120 80 10 00
        E 0 80 09 00
        E 0 80 31 00
        E 0 80 32 00
        E 0 80 6c 00
        E 240 80 49 00
        E 0 80 4a 00
        E 0 80 4b 00
        E 0 80 4c 00
        E 0 80 61 00
        E 0 80 62 00
        E 0 80 63 00
        E 0 80 64 00
        <X 120 0
          /wFbYmVnaW5fcGcgc29uZ190cmFpbmVyX3BnXzVd
        >
        E 0 90 04 64
        E 0 90 19 66
        E 0 90 31 66
        E 0 90 32 66
        E 0 90 48 64
        E 0 90 49 66
        E 0 90 4a 66
        E 0 90 60 64
        E 0 90 61 66
        E 0 90 62 66
        E 0 90 6c 66
        E 120 80 04 00
        E 0 80 19 00
        E 0 80 31 00
        E 0 80 32 00
        E 0 80 48 00
        E 0 80 49 00
        E 0 80 4a 00
        E 0 80 60 00
        E 0 80 61 00
        E 0 80 62 00
        E 0 80 6c 00
        E 120 90 31 66
        E 0 90 32 66
        E 0 90 48 64
        E 0 90 49 66
        E 0 90 4a 66
        E 0 90 60 64
        E 0 90 61 66
        E 0 90 62 66
        E 120 80 31 00
        E 0 80 32 00
        E 0 80 48 00
        E 0 80 49 00
        E 0 80 4a 00
        E 0 80 60 00
        E 0 80 61 00
        E 0 80 62 00
        E 600 90 19 66
        E 0 90 31 66
        E 0 90 32 66
        E 0 90 48 64
        E 0 90 49 66
        E 0 90 4a 66
        E 0 90 60 64
        E 0 90 61 66
        E 0 90 62 66
        E 120 80 19 00
        E 0 80 31 00
        E 0 80 32 00
        E 0 80 48 00
        E 0 80 49 00
        E 0 80 4a 00
        E 0 80 60 00
        E 0 80 61 00
        E 0 80 62 00
        E 120 90 31 66
        E 0 90 32 66
        E 0 90 48 64
        E 0 90 49 66
        E 0 90 4a 66
        E 0 90 60 64
        E 0 90 61 66
        E 0 90 62 66
        E 120 80 31 00
        E 0 80 32 00
        E 0 80 48 00
        E 0 80 49 00
        E 0 80 4a 00
        E 0 80 60 00
        E 0 80 61 00
        E 0 80 62 00
        <X 600 0
          /wFbcGdfbm9ybSBzb25nX3RyYWluZXJfcGdfNV0=
        >
        E 0 90 07 64
        E 0 90 18 67
        E 0 90 30 67
        E 0 90 31 69
        E 0 90 48 67
        E 0 90 49 69
        E 0 90 4a 69
        E 0 90 60 67
        E 0 90 61 69
        E 0 90 62 69
        E 0 90 6c 67
        E 120 80 07 00
        E 0 80 18 00
        E 0 80 30 00
        E 0 80 31 00
        E 0 80 48 00
        E 0 80 49 00
        E 0 80 4a 00
        E 0 80 60 00
        E 0 80 61 00
        E 0 80 62 00
        E 0 80 6c 00
        E 120 90 30 67
        E 0 90 31 69
        E 0 90 48 67
        E 0 90 49 69
        E 0 90 4a 69
        E 0 90 60 67
        E 0 90 61 69
        E 0 90 62 69
        E 120 80 30 00
        E 0 80 31 00
        E 0 80 48 00
        E 0 80 49 00
        E 0 80 4a 00
        E 0 80 60 00
        E 0 80 61 00
        E 0 80 62 00
        E 600 90 18 67
        E 0 90 30 67
        E 0 90 31 69
        E 0 90 48 67
        E 0 90 49 69
        E 0 90 4a 69
        E 0 90 60 67
        E 0 90 61 69
        E 0 90 62 69
        E 120 80 18 00
        E 0 80 30 00
        E 0 80 31 00
        E 0 80 48 00
        E 0 80 49 00
        E 0 80 4a 00
        E 0 80 60 00
        E 0 80 61 00
        E 0 80 62 00
        E 120 90 30 67
        E 0 90 31 69
        E 0 90 48 67
        E 0 90 49 69
        E 0 90 4a 69
        E 0 90 60 67
        E 0 90 61 69
        E 0 90 62 69
        E 120 80 30 00
        E 0 80 31 00
        E 0 80 48 00
        E 0 80 49 00
        E 0 80 4a 00
        E 0 80 60 00
        E 0 80 61 00
        E 0 80 62 00
        E 600 90 09 64
        E 0 90 1a 66
        E 0 90 32 66
        E 0 90 33 66
        E 0 90 49 64
        E 0 90 4a 66
        E 0 90 4b 66
        E 0 90 61 64
        E 0 90 62 66
        E 0 90 63 66
        E 0 90 6c 66
        E 120 80 09 00
        E 0 80 1a 00
        E 0 80 32 00
        E 0 80 33 00
        E 0 80 49 00
        E 0 80 4a 00
        E 0 80 4b 00
        E 0 80 61 00
        E 0 80 62 00
        E 0 80 63 00
        E 0 80 6c 00
        E 120 90 32 66
        E 0 90 33 66
        E 0 90 49 64
        E 0 90 4a 66
        E 0 90 4b 66
        E 0 90 61 64
        E 0 90 62 66
        E 0 90 63 66
        E 120 80 32 00
        E 0 80 33 00
        E 0 80 49 00
        E 0 80 4a 00
        E 0 80 4b 00
        E 0 80 61 00
        E 0 80 62 00
        E 0 80 63 00
        E 600 90 1a 66
        E 0 90 32 66
        E 0 90 33 66
        E 0 90 49 64
        E 0 90 4a 66
        E 0 90 4b 66
        E 0 90 61 64
        E 0 90 62 66
        E 0 90 63 66
        E 120 80 1a 00
        E 0 80 32 00
        E 0 80 33 00
        E 0 80 49 00
        E 0 80 4a 00
        E 0 80 4b 00
        E 0 80 61 00
        E 0 80 62 00
        E 0 80 63 00
        E 120 90 32 66
        E 0 90 33 66
        E 0 90 49 64
        E 0 90 4a 66
        E 0 90 4b 66
        E 0 90 61 64
        E 0 90 62 66
        E 0 90 63 66
        E 120 80 32 00
        E 0 80 33 00
        E 0 80 49 00
        E 0 80 4a 00
        E 0 80 4b 00
        E 0 80 61 00
        E 0 80 62 00
        E 0 80 63 00
        E 600 90 0c 64
        E 0 90 19 67
        E 0 90 31 67
        E 0 90 32 69
        E 0 90 49 67
        E 0 90 4a 69
        E 0 90 4b 69
        E 0 90 61 67
        E 0 90 62 69
        E 0 90 63 69
        E 0 90 6c 67
        E 120 80 0c 00
        E 0 80 19 00
        E 0 80 31 00
        E 0 80 32 00
        E 0 80 49 00
        E 0 80 4a 00
        E 0 80 4b 00
        E 0 80 61 00
        E 0 80 62 00
        E 0 80 63 00
        E 0 80 6c 00
        E 120 90 31 67
        E 0 90 32 69
        E 0 90 49 67
        E 0 90 4a 69
        E 0 90 4b 69
        E 0 90 61 67
        E 0 90 62 69
        E 0 90 63 69
        E 120 80 31 00
        E 0 80 32 00
        E 0 80 49 00
        E 0 80 4a 00
        E 0 80 4b 00
        E 0 80 61 00
        E 0 80 62 00
        E 0 80 63 00
        E 360 90 31 67
        E 0 90 32 69
        E 0 90 49 67
        E 0 90 4a 69
        E 0 90 4b 69
        E 0 90 61 67
        E 0 90 62 69
        E 0 90 63 69
        E 120 80 31 00
        E 0 80 32 00
        E 240 80 49 00
        E 0 80 4a 00
        E 0 80 4b 00
        E 0 80 61 00
        E 0 80 62 00
        E 0 80 63 00
        E 120 93 49 67
        E 0 93 4a 69
        E 0 93 4b 69
        E 0 93 61 67
        E 0 93 62 69
        E 0 93 63 69
        E 120 83 49 00
        E 0 83 4a 00
        E 0 83 4b 00
        E 0 83 61 00
        E 0 83 62 00
        E 0 83 63 00
        E 120 90 31 67
        E 0 90 32 69
        E 0 90 49 67
        E 0 90 4a 69
        E 0 90 4b 69
        E 0 90 61 67
        E 0 90 62 69
        E 0 90 63 69
        E 120 80 31 00
        E 0 80 32 00
        E 0 80 49 00
        E 0 80 4a 00
        E 0 80 4b 00
        E 0 80 61 00
        E 0 80 62 00
        E 0 80 63 00
        <X 360 0
          /wFbZW5kX3BnIHNvbmdfdHJhaW5lcl9wZ181XQ==
        >
        <X 0 0
          /wFbYmVnaW5fcGcgc29uZ190cmFpbmVyX3BnXzZd
        >
        E 0 90 04 64
        E 0 90 19 66
        E 0 90 31 66
        E 0 90 32 66
        E 0 90 48 64
        E 0 90 49 66
        E 0 90 4a 66
        E 0 90 60 64
        E 0 90 61 66
        E 0 90 62 66
        E 0 90 6a 60
        E 0 90 6c 66
        E 120 80 04 00
        E 0 80 19 00
        E 0 80 31 00
        E 0 80 32 00
        E 0 80 48 00
        E 0 80 49 00
        E 0 80 4a 00
        E 0 80 60 00
        E 0 80 61 00
        E 0 80 62 00
        E 0 80 6c 00
        E 120 90 48 64
        E 0 90 49 66
        E 0 90 4a 66
        E 0 90 60 64
        E 0 90 61 66
        E 0 90 62 66
        E 120 80 48 00
        E 0 80 49 00
        E 0 80 4a 00
        E 0 80 60 00
        E 0 80 61 00
        E 0 80 62 00
        E 120 90 30 64
        E 0 90 48 64
        E 0 90 60 64
        E 120 80 30 00
        E 0 80 48 00
        E 0 80 60 00
        E 120 90 30 64
        E 0 90 48 64
        E 0 90 60 64
        E 120 80 30 00
        E 0 80 48 00
        E 0 80 60 00
        E 120 90 18 64
        E 0 90 30 64
        E 0 90 48 64
        E 0 90 60 64
        E 120 80 18 00
        E 0 80 30 00
        E 0 80 48 00
        E 0 80 60 00
        E 120 90 30 64
        E 0 90 48 64
        E 0 90 60 64
        E 120 80 30 00
        E 0 80 48 00
        E 0 80 60 00
        E 120 90 30 64
        E 0 90 48 64
        E 0 90 60 64
        E 120 80 30 00
        E 0 80 48 00
        E 0 80 60 00
        E 120 90 48 64
        E 0 90 60 64
        E 120 80 48 00
        E 0 80 60 00
        <X 120 0
          /wFbcGdfbm9ybSBzb25nX3RyYWluZXJfcGdfNl0=
        >
        E 0 90 07 64
        E 0 90 18 67
        E 0 90 30 67
        E 0 90 31 69
        E 0 90 48 67
        E 0 90 49 69
        E 0 90 4a 69
        E 0 90 60 67
        E 0 90 61 69
        E 0 90 62 69
        E 0 90 6c 67
        E 120 80 07 00
        E 0 80 18 00
        E 0 80 30 00
        E 0 80 31 00
        E 0 80 48 00
        E 0 80 49 00
        E 0 80 4a 00
        E 0 80 60 00
        E 0 80 61 00
        E 0 80 62 00
        E 0 80 6c 00
        E 120 90 48 67
        E 0 90 49 69
        E 0 90 4a 69
        E 0 90 60 67
        E 0 90 61 69
        E 0 90 62 69
        E 120 80 48 00
        E 0 80 49 00
        E 0 80 4a 00
        E 0 80 60 00
        E 0 80 61 00
        E 0 80 62 00
        E 120 90 30 67
        E 0 90 48 67
        E 0 90 60 67
        E 120 80 30 00
        E 0 80 48 00
        E 0 80 60 00
        E 120 90 30 67
        E 0 90 48 67
        E 0 90 60 67
        E 120 80 30 00
        E 0 80 48 00
        E 0 80 60 00
        E 120 90 18 67
        E 0 90 30 67
        E 0 90 48 67
        E 0 90 60 67
        E 120 80 18 00
        E 0 80 30 00
        E 0 80 48 00
        E 0 80 60 00
        E 120 90 30 67
        E 0 90 48 67
        E 0 90 60 67
        E 120 80 30 00
        E 0 80 48 00
        E 0 80 60 00
        E 120 90 30 67
        E 0 90 48 67
        E 0 90 60 67
        E 120 80 30 00
        E 0 80 48 00
        E 0 80 60 00
        E 120 90 48 67
        E 0 90 60 67
        E 120 80 48 00
        E 0 80 60 00
        E 120 90 09 64
        E 0 90 1a 66
        E 0 90 32 66
        E 0 90 33 66
        E 0 90 49 64
        E 0 90 4a 66
        E 0 90 4b 66
        E 0 90 61 64
        E 0 90 62 66
        E 0 90 63 66
        E 0 90 6c 66
        E 120 80 09 00
        E 0 80 1a 00
        E 0 80 32 00
        E 0 80 33 00
        E 0 80 49 00
        E 0 80 4a 00
        E 0 80 4b 00
        E 0 80 61 00
        E 0 80 62 00
        E 0 80 63 00
        E 0 80 6c 00
        E 120 90 49 64
        E 0 90 4a 66
        E 0 90 4b 66
        E 0 90 61 64
        E 0 90 62 66
        E 0 90 63 66
        E 120 80 49 00
        E 0 80 4a 00
        E 0 80 4b 00
        E 0 80 61 00
        E 0 80 62 00
        E 0 80 63 00
        E 120 90 31 64
        E 0 90 49 64
        E 0 90 61 64
        E 120 80 31 00
        E 0 80 49 00
        E 0 80 61 00
        E 120 90 31 64
        E 0 90 49 64
        E 0 90 61 64
        E 120 80 31 00
        E 0 80 49 00
        E 0 80 61 00
        E 120 90 19 64
        E 0 90 31 64
        E 0 90 49 64
        E 0 90 61 64
        E 120 80 19 00
        E 0 80 31 00
        E 0 80 49 00
        E 0 80 61 00
        E 120 90 31 64
        E 0 90 49 64
        E 0 90 61 64
        E 120 80 31 00
        E 0 80 49 00
        E 0 80 61 00
        E 120 90 31 64
        E 0 90 49 64
        E 0 90 61 64
        E 120 80 31 00
        E 0 80 49 00
        E 0 80 61 00
        E 120 90 49 64
        E 0 90 61 64
        E 120 80 49 00
        E 0 80 61 00
        E 120 90 0c 64
        E 0 90 19 67
        E 0 90 31 67
        E 0 90 32 69
        E 0 90 49 67
        E 0 90 4a 69
        E 0 90 4b 69
        E 0 90 61 67
        E 0 90 62 69
        E 0 90 63 69
        E 0 90 6c 67
        E 120 80 0c 00
        E 0 80 19 00
        E 0 80 31 00
        E 0 80 32 00
        E 0 80 49 00
        E 0 80 4a 00
        E 0 80 4b 00
        E 0 80 61 00
        E 0 80 62 00
        E 0 80 63 00
        E 0 80 6c 00
        E 120 90 49 67
        E 0 90 4a 69
        E 0 90 4b 69
        E 0 90 61 67
        E 0 90 62 69
        E 0 90 63 69
        E 120 80 49 00
        E 0 80 4a 00
        E 0 80 4b 00
        E 0 80 61 00
        E 0 80 62 00
        E 0 80 63 00
        E 120 90 31 67
        E 0 90 49 67
        E 0 90 61 67
        E 120 80 31 00
        E 0 80 49 00
        E 0 80 61 00
        E 120 90 31 67
        E 0 90 49 67
        E 0 90 61 67
        E 120 80 31 00
        E 0 80 49 00
        E 0 80 61 00
        E 120 90 19 67
        E 0 90 31 67
        E 0 90 49 67
        E 0 90 61 67
        E 120 80 19 00
        E 0 80 31 00
        E 0 80 49 00
        E 0 80 61 00
        E 120 90 31 67
        E 0 90 49 67
        E 0 90 61 67
        E 120 80 31 00
        E 0 80 49 00
        E 0 80 61 00
        E 120 90 31 67
        E 0 90 49 67
        E 0 90 61 67
        E 120 80 31 00
        E 0 80 49 00
        E 0 80 61 00
        E 120 90 49 67
        E 0 90 61 67
        E 120 80 49 00
        E 0 80 61 00
        <X 120 0
          /wFbZW5kX3BnIHNvbmdfdHJhaW5lcl9wZ182XQ==
        >
        <X 0 0
          /wFbYmVnaW5fcGcgc29uZ190cmFpbmVyX3BnXzdd
        >
        E 0 90 04 64
        E 0 90 19 66
        E 0 90 31 66
        E 0 90 32 66
        E 0 90 48 64
        E 0 90 49 66
        E 0 90 4a 66
        E 0 90 60 64
        E 0 90 61 66
        E 0 90 62 66
        E 0 90 6c 66
        E 120 80 04 00
        E 0 80 19 00
        E 0 80 31 00
        E 0 80 32 00
        E 0 80 48 00
        E 0 80 49 00
        E 0 80 4a 00
        E 0 80 60 00
        E 0 80 61 00
        E 0 80 62 00
        E 0 80 6c 00
        E 120 90 48 64
        E 0 90 49 66
        E 0 90 4a 66
        E 0 90 60 64
        E 0 90 61 66
        E 0 90 62 66
        E 120 80 48 00
        E 0 80 49 00
        E 0 80 4a 00
        E 0 80 60 00
        E 0 80 61 00
        E 0 80 62 00
        E 120 90 30 64
        E 0 90 48 64
        E 0 90 60 64
        E 120 80 30 00
        E 0 80 48 00
        E 0 80 60 00
        E 120 90 48 64
        E 0 90 49 66
        E 0 90 4a 66
        E 0 90 60 64
        E 0 90 61 66
        E 0 90 62 66
        E 120 80 48 00
        E 0 80 49 00
        E 0 80 4a 00
        E 0 80 60 00
        E 0 80 61 00
        E 0 80 62 00
        E 120 90 19 66
        E 0 90 31 66
        E 0 90 32 66
        E 0 90 48 64
        E 0 90 49 66
        E 0 90 4a 66
        E 0 90 60 64
        E 0 90 61 66
        E 0 90 62 66
        E 120 80 19 00
        E 0 80 31 00
        E 0 80 32 00
        E 0 80 48 00
        E 0 80 49 00
        E 0 80 4a 00
        E 0 80 60 00
        E 0 80 61 00
        E 0 80 62 00
        E 120 90 48 64
        E 0 90 49 66
        E 0 90 4a 66
        E 0 90 60 64
        E 0 90 61 66
        E 0 90 62 66
        E 120 80 48 00
        E 0 80 49 00
        E 0 80 4a 00
        E 0 80 60 00
        E 0 80 61 00
        E 0 80 62 00
        E 120 90 30 64
        E 0 90 48 64
        E 0 90 60 64
        E 120 80 30 00
        E 0 80 48 00
        E 0 80 60 00
        E 120 90 48 64
        E 0 90 49 66
        E 0 90 4a 66
        E 0 90 60 64
        E 0 90 61 66
        E 0 90 62 66
        E 120 80 48 00
        E 0 80 49 00
        E 0 80 4a 00
        E 0 80 60 00
        E 0 80 61 00
        E 0 80 62 00
        <X 120 0
          /wFbcGdfbm9ybSBzb25nX3RyYWluZXJfcGdfN10=
        >
        E 0 90 07 64
        E 0 90 18 67
        E 0 90 30 67
        E 0 90 31 69
        E 0 90 48 67
        E 0 90 49 69
        E 0 90 4a 69
        E 0 90 60 67
        E 0 90 61 69
        E 0 90 62 69
        E 0 90 6c 67
        E 120 80 07 00
        E 0 80 18 00
        E 0 80 30 00
        E 0 80 31 00
        E 0 80 48 00
        E 0 80 49 00
        E 0 80 4a 00
        E 0 80 60 00
        E 0 80 61 00
        E 0 80 62 00
        E 0 80 6c 00
        E 120 90 48 67
        E 0 90 49 69
        E 0 90 4a 69
        E 0 90 60 67
        E 0 90 61 69
        E 0 90 62 69
        E 120 80 48 00
        E 0 80 49 00
        E 0 80 4a 00
        E 0 80 60 00
        E 0 80 61 00
        E 0 80 62 00
        E 120 90 30 67
        E 0 90 48 67
        E 0 90 60 67
        E 120 80 30 00
        E 0 80 48 00
        E 0 80 60 00
        E 120 90 48 67
        E 0 90 49 69
        E 0 90 4a 69
        E 0 90 60 67
        E 0 90 61 69
        E 0 90 62 69
        E 120 80 48 00
        E 0 80 49 00
        E 0 80 4a 00
        E 0 80 60 00
        E 0 80 61 00
        E 0 80 62 00
        E 120 90 18 67
        E 0 90 30 67
        E 0 90 31 69
        E 0 90 48 67
        E 0 90 49 69
        E 0 90 4a 69
        E 0 90 60 67
        E 0 90 61 69
        E 0 90 62 69
        E 120 80 18 00
        E 0 80 30 00
        E 0 80 31 00
        E 0 80 48 00
        E 0 80 49 00
        E 0 80 4a 00
        E 0 80 60 00
        E 0 80 61 00
        E 0 80 62 00
        E 120 90 48 67
        E 0 90 49 69
        E 0 90 4a 69
        E 0 90 60 67
        E 0 90 61 69
        E 0 90 62 69
        E 120 80 48 00
        E 0 80 49 00
        E 0 80 4a 00
        E 0 80 60 00
        E 0 80 61 00
        E 0 80 62 00
        E 120 90 30 67
        E 0 90 48 67
        E 0 90 60 67
        E 120 80 30 00
        E 0 80 48 00
        E 0 80 60 00
        E 120 90 48 67
        E 0 90 49 69
        E 0 90 4a 69
        E 0 90 60 67
        E 0 90 61 69
        E 0 90 62 69
        E 120 80 48 00
        E 0 80 49 00
        E 0 80 4a 00
        E 0 80 60 00
        E 0 80 61 00
        E 0 80 62 00
        E 120 90 09 64
        E 0 90 1a 66
        E 0 90 32 66
        E 0 90 33 66
        E 0 90 49 64
        E 0 90 4a 66
        E 0 90 4b 66
        E 0 90 61 64
        E 0 90 62 66
        E 0 90 63 66
        E 0 90 6c 66
        E 120 80 09 00
        E 0 80 1a 00
        E 0 80 32 00
        E 0 80 33 00
        E 0 80 49 00
        E 0 80 4a 00
        E 0 80 4b 00
        E 0 80 61 00
        E 0 80 62 00
        E 0 80 63 00
        E 0 80 6c 00
        E 120 90 49 64
        E 0 90 4a 66
        E 0 90 4b 66
        E 0 90 61 64
        E 0 90 62 66
        E 0 90 63 66
        E 120 80 49 00
        E 0 80 4a 00
        E 0 80 4b 00
        E 0 80 61 00
        E 0 80 62 00
        E 0 80 63 00
        E 120 90 31 64
        E 0 90 49 64
        E 0 90 61 64
        E 120 80 31 00
        E 0 80 49 00
        E 0 80 61 00
        E 120 90 49 64
        E 0 90 4a 66
        E 0 90 4b 66
        E 0 90 61 64
        E 0 90 62 66
        E 0 90 63 66
        E 120 80 49 00
        E 0 80 4a 00
        E 0 80 4b 00
        E 0 80 61 00
        E 0 80 62 00
        E 0 80 63 00
        E 120 90 1a 66
        E 0 90 32 66
        E 0 90 33 66
        E 0 90 49 64
        E 0 90 4a 66
        E 0 90 4b 66
        E 0 90 61 64
        E 0 90 62 66
        E 0 90 63 66
        E 120 80 1a 00
        E 0 80 32 00
        E 0 80 33 00
        E 0 80 49 00
        E 0 80 4a 00
        E 0 80 4b 00
        E 0 80 61 00
        E 0 80 62 00
        E 0 80 63 00
        E 120 90 49 64
        E 0 90 4a 66
        E 0 90 4b 66
        E 0 90 61 64
        E 0 90 62 66
        E 0 90 63 66
        E 120 80 49 00
        E 0 80 4a 00
        E 0 80 4b 00
        E 0 80 61 00
        E 0 80 62 00
        E 0 80 63 00
        E 120 90 31 64
        E 0 90 49 64
        E 0 90 61 64
        E 120 80 31 00
        E 0 80 49 00
        E 0 80 61 00
        E 120 90 49 64
        E 0 90 4a 66
        E 0 90 4b 66
        E 0 90 61 64
        E 0 90 62 66
        E 0 90 63 66
        E 120 80 49 00
        E 0 80 4a 00
        E 0 80 4b 00
        E 0 80 61 00
        E 0 80 62 00
        E 0 80 63 00
        E 120 90 0c 64
        E 0 90 19 67
        E 0 90 31 67
        E 0 90 32 69
        E 0 90 49 67
        E 0 90 4a 69
        E 0 90 4b 69
        E 0 90 61 67
        E 0 90 62 69
        E 0 90 63 69
        E 0 90 6c 67
        E 120 80 0c 00
        E 0 80 19 00
        E 0 80 31 00
        E 0 80 32 00
        E 0 80 49 00
        E 0 80 4a 00
        E 0 80 4b 00
        E 0 80 61 00
        E 0 80 62 00
        E 0 80 63 00
        E 0 80 6c 00
        E 120 90 49 67
        E 0 90 4a 69
        E 0 90 4b 69
        E 0 90 61 67
        E 0 90 62 69
        E 0 90 63 69
        E 120 80 49 00
        E 0 80 4a 00
        E 0 80 4b 00
        E 0 80 61 00
        E 0 80 62 00
        E 0 80 63 00
        E 120 90 31 67
        E 0 90 49 67
        E 0 90 61 67
        E 120 80 31 00
        E 0 80 49 00
        E 0 80 61 00
        E 120 90 49 67
        E 0 90 4a 69
        E 0 90 4b 69
        E 0 90 61 67
        E 0 90 62 69
        E 0 90 63 69
        E 120 80 49 00
        E 0 80 4a 00
        E 0 80 4b 00
        E 0 80 61 00
        E 0 80 62 00
        E 0 80 63 00
        E 120 90 19 67
        E 0 90 31 67
        E 0 90 32 69
        E 0 90 49 67
        E 0 90 4a 69
        E 0 90 4b 69
        E 0 90 61 67
        E 0 90 62 69
        E 0 90 63 69
        E 120 80 19 00
        E 0 80 31 00
        E 0 80 32 00
        E 0 80 49 00
        E 0 80 4a 00
        E 0 80 4b 00
        E 0 80 61 00
        E 0 80 62 00
        E 0 80 63 00
        E 120 90 49 67
        E 0 90 4a 69
        E 0 90 4b 69
        E 0 90 61 67
        E 0 90 62 69
        E 0 90 63 69
        E 120 80 49 00
        E 0 80 4a 00
        E 0 80 4b 00
        E 0 80 61 00
        E 0 80 62 00
        E 0 80 63 00
        E 120 90 31 67
        E 0 90 49 67
        E 0 90 61 67
        E 120 80 31 00
        E 0 80 49 00
        E 0 80 61 00
        E 120 90 49 67
        E 0 90 4a 69
        E 0 90 4b 69
        E 0 90 61 67
        E 0 90 62 69
        E 0 90 63 69
        E 120 80 49 00
        E 0 80 4a 00
        E 0 80 4b 00
        E 0 80 61 00
        E 0 80 62 00
        E 0 80 63 00
        <X 120 0
          /wFbZW5kX3BnIHNvbmdfdHJhaW5lcl9wZ183XQ==
        >
        E 0 90 04 64
        E 0 90 19 66
        E 0 90 31 66
        E 0 90 32 66
        E 0 90 48 64
        E 0 90 49 66
        E 0 90 4a 66
        E 0 90 60 64
        E 0 90 61 66
        E 0 90 62 66
        E 0 90 6c 66
        E 120 80 04 00
        E 0 80 19 00
        E 0 80 31 00
        E 0 80 32 00
        E 0 80 48 00
        E 0 80 49 00
        E 0 80 4a 00
        E 0 80 60 00
        E 0 80 61 00
        E 0 80 62 00
        E 0 80 6c 00
        E 120 90 48 64
        E 0 90 49 66
        E 0 90 4a 66
        E 0 90 60 64
        E 0 90 61 66
        E 0 90 62 66
        E 120 80 48 00
        E 0 80 49 00
        E 0 80 4a 00
        E 0 80 60 00
        E 0 80 61 00
        E 0 80 62 00
        E 120 90 30 64
        E 0 90 48 64
        E 0 90 60 64
        E 120 80 30 00
        E 0 80 48 00
        E 0 80 60 00
        E 120 90 48 64
        E 0 90 49 66
        E 0 90 4a 66
        E 0 90 60 64
        E 0 90 61 66
        E 0 90 62 66
        E 120 80 48 00
        E 0 80 49 00
        E 0 80 4a 00
        E 0 80 60 00
        E 0 80 61 00
        E 0 80 62 00
        E 120 90 19 66
        E 0 90 31 66
        E 0 90 32 66
        E 0 90 48 64
        E 0 90 49 66
        E 0 90 4a 66
        E 0 90 60 64
        E 0 90 61 66
        E 0 90 62 66
        E 120 80 19 00
        E 0 80 31 00
        E 0 80 32 00
        E 0 80 48 00
        E 0 80 49 00
        E 0 80 4a 00
        E 0 80 60 00
        E 0 80 61 00
        E 0 80 62 00
        E 120 90 48 64
        E 0 90 49 66
        E 0 90 4a 66
        E 0 90 60 64
        E 0 90 61 66
        E 0 90 62 66
        E 120 80 48 00
        E 0 80 49 00
        E 0 80 4a 00
        E 0 80 60 00
        E 0 80 61 00
        E 0 80 62 00
        E 120 90 30 64
        E 0 90 48 64
        E 0 90 60 64
        E 120 80 30 00
        E 0 80 48 00
        E 0 80 60 00
        E 120 90 48 64
        E 0 90 49 66
        E 0 90 4a 66
        E 0 90 60 64
        E 0 90 61 66
        E 0 90 62 66
        E 120 80 48 00
        E 0 80 49 00
        E 0 80 4a 00
        E 0 80 60 00
        E 0 80 61 00
        E 0 80 62 00
        E 120 90 07 64
        E 0 90 18 67
        E 0 90 30 67
        E 0 90 31 69
        E 0 90 48 67
        E 0 90 49 69
        E 0 90 4a 69
        E 0 90 60 67
        E 0 90 61 69
        E 0 90 62 69
        E 0 90 6c 67
        E 120 80 07 00
        E 0 80 18 00
        E 0 80 30 00
        E 0 80 31 00
        E 0 80 48 00
        E 0 80 49 00
        E 0 80 4a 00
        E 0 80 60 00
        E 0 80 61 00
        E 0 80 62 00
        E 0 80 6c 00
        E 120 90 48 67
        E 0 90 49 69
        E 0 90 4a 69
        E 0 90 60 67
        E 0 90 61 69
        E 0 90 62 69
        E 120 80 48 00
        E 0 80 49 00
        E 0 80 4a 00
        E 0 80 60 00
        E 0 80 61 00
        E 0 80 62 00
        E 120 90 30 67
        E 0 90 48 67
        E 0 90 60 67
        E 120 80 30 00
        E 0 80 48 00
        E 0 80 60 00
        E 120 90 48 67
        E 0 90 49 69
        E 0 90 4a 69
        E 0 90 60 67
        E 0 90 61 69
        E 0 90 62 69
        E 120 80 48 00
        E 0 80 49 00
        E 0 80 4a 00
        E 0 80 60 00
        E 0 80 61 00
        E 0 80 62 00
        E 120 90 18 67
        E 0 90 30 67
        E 0 90 31 69
        E 0 90 48 67
        E 0 90 49 69
        E 0 90 4a 69
        E 0 90 60 67
        E 0 90 61 69
        E 0 90 62 69
        E 120 80 18 00
        E 0 80 30 00
        E 0 80 31 00
        E 0 80 48 00
        E 0 80 49 00
        E 0 80 4a 00
        E 0 80 60 00
        E 0 80 61 00
        E 0 80 62 00
        E 120 90 48 67
        E 0 90 49 69
        E 0 90 4a 69
        E 0 90 60 67
        E 0 90 61 69
        E 0 90 62 69
        E 120 80 48 00
        E 0 80 49 00
        E 0 80 4a 00
        E 0 80 60 00
        E 0 80 61 00
        E 0 80 62 00
        E 120 90 30 67
        E 0 90 48 67
        E 0 90 60 67
        E 120 80 30 00
        E 0 80 48 00
        E 0 80 60 00
        E 120 90 48 67
        E 0 90 49 69
        E 0 90 4a 69
        E 0 90 60 67
        E 0 90 61 69
        E 0 90 62 69
        E 120 80 48 00
        E 0 80 49 00
        E 0 80 4a 00
        E 0 80 60 00
        E 0 80 61 00
        E 0 80 62 00
        E 120 90 09 64
        E 0 90 1a 66
        E 0 90 32 66
        E 0 90 33 66
        E 0 90 49 64
        E 0 90 4a 66
        E 0 90 4b 66
        E 0 90 61 64
        E 0 90 62 66
        E 0 90 63 66
        E 0 90 6c 66
        E 0 90 74 64
        E 120 80 09 00
        E 0 80 1a 00
        E 0 80 32 00
        E 0 80 33 00
        E 0 80 49 00
        E 0 80 4a 00
        E 0 80 4b 00
        E 0 80 61 00
        E 0 80 62 00
        E 0 80 63 00
        E 0 80 6c 00
        E 120 90 49 64
        E 0 90 4a 66
        E 0 90 4b 66
        E 0 90 61 64
        E 0 90 62 66
        E 0 90 63 66
        E 120 80 49 00
        E 0 80 4a 00
        E 0 80 4b 00
        E 0 80 61 00
        E 0 80 62 00
        E 0 80 63 00
        E 120 90 31 64
        E 0 90 49 64
        E 0 90 61 64
        E 120 80 31 00
        E 0 80 49 00
        E 0 80 61 00
        E 120 90 49 64
        E 0 90 4a 66
        E 0 90 4b 66
        E 0 90 61 64
        E 0 90 62 66
        E 0 90 63 66
        E 120 80 49 00
        E 0 80 4a 00
        E 0 80 4b 00
        E 0 80 61 00
        E 0 80 62 00
        E 0 80 63 00
        E 120 90 1a 66
        E 0 90 32 66
        E 0 90 33 66
        E 0 90 49 64
        E 0 90 4a 66
        E 0 90 4b 66
        E 0 90 61 64
        E 0 90 62 66
        E 0 90 63 66
        E 120 80 1a 00
        E 0 80 32 00
        E 0 80 33 00
        E 0 80 49 00
        E 0 80 4a 00
        E 0 80 4b 00
        E 0 80 61 00
        E 0 80 62 00
        E 0 80 63 00
        E 120 90 49 64
        E 0 90 4a 66
        E 0 90 4b 66
        E 0 90 61 64
        E 0 90 62 66
        E 0 90 63 66
        E 120 80 49 00
        E 0 80 4a 00
        E 0 80 4b 00
        E 0 80 61 00
        E 0 80 62 00
        E 0 80 63 00
        E 120 90 31 64
        E 0 90 49 64
        E 0 90 61 64
        E 120 80 31 00
        E 0 80 49 00
        E 0 80 61 00
        E 120 90 49 64
        E 0 90 4a 66
        E 0 90 4b 66
        E 0 90 61 64
        E 0 90 62 66
        E 0 90 63 66
        E 120 80 49 00
        E 0 80 4a 00
        E 0 80 4b 00
        E 0 80 61 00
        E 0 80 62 00
        E 0 80 63 00
        E 120 90 0c 64
        E 0 90 19 67
        E 0 90 31 67
        E 0 90 32 69
        E 0 90 49 67
        E 0 90 4a 69
        E 0 90 4b 69
        E 0 90 61 67
        E 0 90 62 69
        E 0 90 63 69
        E 0 90 6c 67
        E 120 80 0c 00
        E 0 80 19 00
        E 0 80 31 00
        E 0 80 32 00
        E 0 80 49 00
        E 0 80 4a 00
        E 0 80 4b 00
        E 0 80 61 00
        E 0 80 62 00
        E 0 80 63 00
        E 0 80 6c 00
        E 120 90 31 67
        E 0 90 32 69
        E 0 90 49 67
        E 0 90 4a 69
        E 0 90 4b 69
        E 0 90 61 67
        E 0 90 62 69
        E 0 90 63 69
        E 120 80 31 00
        E 0 80 32 00
        E 0 80 49 00
        E 0 80 4a 00
        E 0 80 4b 00
        E 0 80 61 00
        E 0 80 62 00
        E 0 80 63 00
        E 120 90 19 67
        E 0 90 31 67
        E 0 90 32 69
        E 0 90 49 67
        E 0 90 4a 69
        E 0 90 4b 69
        E 0 90 61 67
        E 0 90 62 69
        E 0 90 63 69
        E 120 80 19 00
        E 0 80 31 00
        E 0 80 32 00
        E 0 80 49 00
        E 0 80 4a 00
        E 0 80 4b 00
        E 0 80 61 00
        E 0 80 62 00
        E 0 80 63 00
        E 120 90 31 67
        E 0 90 32 69
        E 0 90 49 67
        E 0 90 4a 69
        E 0 90 4b 69
        E 0 90 61 67
        E 0 90 62 69
        E 0 90 63 69
        E 120 80 31 00
        E 0 80 32 00
        E 0 80 49 00
        E 0 80 4a 00
        E 0 80 4b 00
        E 0 80 61 00
        E 0 80 62 00
        E 0 80 63 00
        E 120 90 19 67
        E 0 90 31 67
        E 0 90 32 69
        E 0 90 49 67
        E 0 90 4a 69
        E 0 90 4b 69
        E 0 90 61 67
        E 0 90 62 69
        E 0 90 63 69
        E 120 80 74 00
        E 0 80 19 00
        E 0 80 31 00
        E 0 80 32 00
        E 0 80 49 00
        E 0 80 4a 00
        E 0 80 4b 00
        E 0 80 61 00
        E 0 80 62 00
        E 0 80 63 00
        E 120 90 31 67
        E 0 90 32 69
        E 0 90 49 67
        E 0 90 4a 69
        E 0 90 4b 69
        E 0 90 61 67
        E 0 90 62 69
        E 0 90 63 69
        E 120 80 31 00
        E 0 80 32 00
        E 0 80 49 00
        E 0 80 4a 00
        E 0 80 4b 00
        E 0 80 61 00
        E 0 80 62 00
        E 0 80 63 00
        E 120 90 31 67
        E 0 90 32 69
        E 0 90 49 67
        E 0 90 4a 69
        E 0 90 4b 69
        E 0 90 61 67
        E 0 90 62 69
        E 0 90 63 69
        E 120 80 31 00
        E 0 80 32 00
        E 0 80 49 00
        E 0 80 4a 00
        E 0 80 4b 00
        E 0 80 61 00
        E 0 80 62 00
        E 0 80 63 00
        E 120 90 49 67
        E 0 90 4a 69
        E 0 90 4b 69
        E 0 90 61 67
        E 0 90 62 69
        E 0 90 63 69
        E 120 80 6a 00
        E 0 80 49 00
        E 0 80 4a 00
        E 0 80 4b 00
        E 0 80 61 00
        E 0 80 62 00
        E 0 80 63 00
        E 0 90 0e 64
        E 120 80 0e 00
        E 0 90 19 69
        E 0 90 31 69
        E 0 90 32 6b
        E 0 90 49 69
        E 0 90 4a 6b
        E 0 90 4b 6b
        E 0 90 4c 6b
        E 0 90 61 69
        E 0 90 62 6b
        E 0 90 63 6b
        E 0 90 64 6b
        E 0 90 6c 69
        E 120 80 19 00
        E 0 80 31 00
        E 0 80 32 00
        E 0 80 49 00
        E 0 80 4a 00
        E 0 80 4b 00
        E 0 80 4c 00
        E 0 80 61 00
        E 0 80 62 00
        E 0 80 63 00
        E 0 80 64 00
        E 0 80 6c 00
        E 120 90 31 69
        E 0 90 32 6b
        E 0 90 49 69
        E 0 90 4a 6b
        E 0 90 4b 6b
        E 0 90 4c 6b
        E 0 90 61 69
        E 0 90 62 6b
        E 0 90 63 6b
        E 0 90 64 6b
        E 120 80 31 00
        E 0 80 32 00
        E 0 80 49 00
        E 0 80 4a 00
        E 0 80 4b 00
        E 0 80 4c 00
        E 0 80 61 00
        E 0 80 62 00
        E 0 80 63 00
        E 0 80 64 00
        E 120 90 19 69
        E 0 90 31 69
        E 0 90 32 6b
        E 0 90 49 69
        E 0 90 4a 6b
        E 0 90 4b 6b
        E 0 90 4c 6b
        E 0 90 61 69
        E 0 90 62 6b
        E 0 90 63 6b
        E 0 90 64 6b
        E 120 80 19 00
        E 0 80 31 00
        E 0 80 32 00
        E 0 80 49 00
        E 0 80 4a 00
        E 0 80 4b 00
        E 0 80 4c 00
        E 0 80 61 00
        E 0 80 62 00
        E 0 80 63 00
        E 0 80 64 00
        E 120 90 31 69
        E 0 90 32 6b
        E 0 90 49 69
        E 0 90 4a 6b
        E 0 90 4b 6b
        E 0 90 4c 6b
        E 0 90 61 69
        E 0 90 62 6b
        E 0 90 63 6b
        E 0 90 64 6b
        E 120 80 31 00
        E 0 80 32 00
        E 0 80 49 00
        E 0 80 4a 00
        E 0 80 4b 00
        E 0 80 4c 00
        E 0 80 61 00
        E 0 80 62 00
        E 0 80 63 00
        E 0 80 64 00
        E 120 90 19 69
        E 0 90 31 69
        E 0 90 32 6b
        E 0 90 49 69
        E 0 90 4a 6b
        E 0 90 4b 6b
        E 0 90 4c 6b
        E 0 90 61 69
        E 0 90 62 6b
        E 0 90 63 6b
        E 0 90 64 6b
        E 120 80 19 00
        E 0 80 31 00
        E 0 80 32 00
        E 0 80 49 00
        E 0 80 4a 00
        E 0 80 4b 00
        E 0 80 4c 00
        E 0 80 61 00
        E 0 80 62 00
        E 0 80 63 00
        E 0 80 64 00
        E 0 90 09 64
        E 0 90 10 64
        E 120 80 09 00
        E 0 90 49 6b
        E 0 90 4a 6b
        E 0 90 4b 6d
        E 0 90 4c 6e
        E 0 90 61 6b
        E 0 90 62 6b
        E 0 90 63 6d
        E 0 90 64 6e
        E 0 90 6c 6b
        E 120 80 49 00
        E 0 80 4a 00
        E 0 80 4b 00
        E 0 80 4c 00
        E 0 80 61 00
        E 0 80 62 00
        E 0 80 63 00
        E 0 80 64 00
        E 0 80 6c 00
        E 120 90 31 6b
        E 0 90 32 6b
        E 0 90 49 6b
        E 0 90 4a 6b
        E 0 90 4b 6d
        E 0 90 4c 6e
        E 0 90 61 6b
        E 0 90 62 6b
        E 0 90 63 6d
        E 0 90 64 6e
        E 120 80 31 00
        E 0 80 32 00
        E 0 80 49 00
        E 0 80 4a 00
        E 0 80 4b 00
        E 0 80 4c 00
        E 0 80 61 00
        E 0 80 62 00
        E 0 80 63 00
        E 0 80 64 00
        E 120 90 49 6b
        E 0 90 4a 6b
        E 0 90 4b 6d
        E 0 90 4c 6e
        E 0 90 61 6b
        E 0 90 62 6b
        E 0 90 63 6d
        E 0 90 64 6e
        E 120 80 49 00
        E 0 80 4a 00
        E 0 80 4b 00
        E 0 80 4c 00
        E 0 80 61 00
        E 0 80 62 00
        E 0 80 63 00
        E 0 80 64 00
        E 0 90 07 64
        E 120 80 07 00
        E 0 90 19 69
        E 0 90 31 69
        E 0 90 32 69
        E 0 90 49 69
        E 0 90 4a 69
        E 0 90 4b 6b
        E 0 90 4c 6c
        E 0 90 61 69
        E 0 90 62 69
        E 0 90 63 6b
        E 0 90 64 6c
        E 0 90 6c 69
        E 120 80 19 00
        E 0 80 31 00
        E 0 80 32 00
        E 0 80 49 00
        E 0 80 4a 00
        E 0 80 4b 00
        E 0 80 4c 00
        E 0 80 61 00
        E 0 80 62 00
        E 0 80 63 00
        E 0 80 64 00
        E 0 80 6c 00
        E 120 90 49 69
        E 0 90 4a 69
        E 0 90 4b 6b
        E 0 90 4c 6c
        E 0 90 61 69
        E 0 90 62 69
        E 0 90 63 6b
        E 0 90 64 6c
        E 120 80 49 00
        E 0 80 4a 00
        E 0 80 4b 00
        E 0 80 4c 00
        E 0 80 61 00
        E 0 80 62 00
        E 0 80 63 00
        E 0 80 64 00
        E 0 90 09 64
        E 120 80 09 00
        E 0 90 31 6b
        E 0 90 32 6b
        E 0 90 49 6b
        E 0 90 4a 6b
        E 0 90 4b 6d
        E 0 90 4c 6e
        E 0 90 61 6b
        E 0 90 62 6b
        E 0 90 63 6d
        E 0 90 64 6e
        E 0 90 6c 6b
        E 120 80 31 00
        E 0 80 32 00
        E 0 80 6c 00
        E 240 80 49 00
        E 0 80 4a 00
        E 0 80 4b 00
        E 0 80 4c 00
        E 0 80 61 00
        E 0 80 62 00
        E 0 80 63 00
        E 0 80 64 00
        E 0 90 07 64
        E 120 80 07 00
        E 0 90 19 69
        E 0 90 31 69
        E 0 90 32 69
        E 0 90 49 69
        E 0 90 4a 69
        E 0 90 4b 6b
        E 0 90 4c 6c
        E 0 90 61 69
        E 0 90 62 69
        E 0 90 63 6b
        E 0 90 64 6c
        E 0 90 6c 69
        E 120 80 19 00
        E 0 80 31 00
        E 0 80 32 00
        E 0 80 49 00
        E 0 80 4a 00
        E 0 80 4b 00
        E 0 80 4c 00
        E 0 80 61 00
        E 0 80 62 00
        E 0 80 63 00
        E 0 80 64 00
        E 0 80 6c 00
        E 120 90 49 69
        E 0 90 4a 69
        E 0 90 4b 6b
        E 0 90 4c 6c
        E 0 90 61 69
        E 0 90 62 69
        E 0 90 63 6b
        E 0 90 64 6c
        E 120 80 49 00
        E 0 80 4a 00
        E 0 80 4b 00
        E 0 80 4c 00
        E 0 80 61 00
        E 0 80 62 00
        E 0 80 63 00
        E 0 80 64 00
        E 0 90 09 64
        E 120 80 10 00
        E 0 80 09 00
        E 0 90 31 6b
        E 0 90 32 6b
        E 0 90 49 6b
        E 0 90 4a 6b
        E 0 90 4b 6d
        E 0 90 4c 6e
        E 0 90 61 6b
        E 0 90 62 6b
        E 0 90 63 6d
        E 0 90 64 6e
        E 0 90 6c 6b
        E 120 80 31 00
        E 0 80 32 00
        E 0 80 6c 00
        E 240 80 49 00
        E 0 80 4a 00
        E 0 80 4b 00
        E 0 80 4c 00
        E 0 80 61 00
        E 0 80 62 00
        E 0 80 63 00
        E 0 80 64 00
        E 0 90 0e 64
        E 120 80 0e 00
        E 0 90 19 69
        E 0 90 31 69
        E 0 90 32 6b
        E 0 90 49 69
        E 0 90 4a 6b
        E 0 90 4b 6b
        E 0 90 4c 6b
        E 0 90 61 69
        E 0 90 62 6b
        E 0 90 63 6b
        E 0 90 64 6b
        E 0 90 6c 69
        E 120 80 19 00
        E 0 80 31 00
        E 0 80 32 00
        E 0 80 49 00
        E 0 80 4a 00
        E 0 80 4b 00
        E 0 80 4c 00
        E 0 80 61 00
        E 0 80 62 00
        E 0 80 63 00
        E 0 80 64 00
        E 0 80 6c 00
        E 120 90 31 69
        E 0 90 32 6b
        E 0 90 49 69
        E 0 90 4a 6b
        E 0 90 4b 6b
        E 0 90 4c 6b
        E 0 90 61 69
        E 0 90 62 6b
        E 0 90 63 6b
        E 0 90 64 6b
        E 120 80 31 00
        E 0 80 32 00
        E 0 80 49 00
        E 0 80 4a 00
        E 0 80 4b 00
        E 0 80 4c 00
        E 0 80 61 00
        E 0 80 62 00
        E 0 80 63 00
        E 0 80 64 00
        E 120 90 19 69
        E 0 90 31 69
        E 0 90 32 6b
        E 0 90 49 69
        E 0 90 4a 6b
        E 0 90 4b 6b
        E 0 90 4c 6b
        E 0 90 61 69
        E 0 90 62 6b
        E 0 90 63 6b
        E 0 90 64 6b
        E 120 80 19 00
        E 0 80 31 00
        E 0 80 32 00
        E 0 80 49 00
        E 0 80 4a 00
        E 0 80 4b 00
        E 0 80 4c 00
        E 0 80 61 00
        E 0 80 62 00
        E 0 80 63 00
        E 0 80 64 00
        E 120 90 31 69
        E 0 90 32 6b
        E 0 90 49 69
        E 0 90 4a 6b
        E 0 90 4b 6b
        E 0 90 4c 6b
        E 0 90 61 69
        E 0 90 62 6b
        E 0 90 63 6b
        E 0 90 64 6b
        E 120 80 31 00
        E 0 80 32 00
        E 0 80 49 00
        E 0 80 4a 00
        E 0 80 4b 00
        E 0 80 4c 00
        E 0 80 61 00
        E 0 80 62 00
        E 0 80 63 00
        E 0 80 64 00
        E 120 90 19 69
        E 0 90 31 69
        E 0 90 32 6b
        E 0 90 49 69
        E 0 90 4a 6b
        E 0 90 4b 6b
        E 0 90 4c 6b
        E 0 90 61 69
        E 0 90 62 6b
        E 0 90 63 6b
        E 0 90 64 6b
        E 120 80 19 00
        E 0 80 31 00
        E 0 80 32 00
        E 0 80 49 00
        E 0 80 4a 00
        E 0 80 4b 00
        E 0 80 4c 00
        E 0 80 61 00
        E 0 80 62 00
        E 0 80 63 00
        E 0 80 64 00
        E 0 90 09 64
        E 0 90 10 64
        E 120 80 09 00
        E 0 90 49 6b
        E 0 90 4a 6b
        E 0 90 4b 6d
        E 0 90 4c 6e
        E 0 90 61 6b
        E 0 90 62 6b
        E 0 90 63 6d
        E 0 90 64 6e
        E 0 90 6c 6b
        E 120 80 49 00
        E 0 80 4a 00
        E 0 80 4b 00
        E 0 80 4c 00
        E 0 80 61 00
        E 0 80 62 00
        E 0 80 63 00
        E 0 80 64 00
        E 0 80 6c 00
        E 120 90 31 6b
        E 0 90 32 6b
        E 0 90 49 6b
        E 0 90 4a 6b
        E 0 90 4b 6d
        E 0 90 4c 6e
        E 0 90 61 6b
        E 0 90 62 6b
        E 0 90 63 6d
        E 0 90 64 6e
        E 120 80 31 00
        E 0 80 32 00
        E 0 80 49 00
        E 0 80 4a 00
        E 0 80 4b 00
        E 0 80 4c 00
        E 0 80 61 00
        E 0 80 62 00
        E 0 80 63 00
        E 0 80 64 00
        E 120 90 49 6b
        E 0 90 4a 6b
        E 0 90 4b 6d
        E 0 90 4c 6e
        E 0 90 61 6b
        E 0 90 62 6b
        E 0 90 63 6d
        E 0 90 64 6e
        E 120 80 49 00
        E 0 80 4a 00
        E 0 80 4b 00
        E 0 80 4c 00
        E 0 80 61 00
        E 0 80 62 00
        E 0 80 63 00
        E 0 80 64 00
        E 0 90 07 64
        E 120 80 07 00
        E 0 90 19 69
        E 0 90 31 69
        E 0 90 32 69
        E 0 90 49 69
        E 0 90 4a 69
        E 0 90 4b 6b
        E 0 90 4c 6c
        E 0 90 61 69
        E 0 90 62 69
        E 0 90 63 6b
        E 0 90 64 6c
        E 0 90 6c 69
        E 120 80 19 00
        E 0 80 31 00
        E 0 80 32 00
        E 0 80 49 00
        E 0 80 4a 00
        E 0 80 4b 00
        E 0 80 4c 00
        E 0 80 61 00
        E 0 80 62 00
        E 0 80 63 00
        E 0 80 64 00
        E 0 80 6c 00
        E 120 90 49 69
        E 0 90 4a 69
        E 0 90 4b 6b
        E 0 90 4c 6c
        E 0 90 61 69
        E 0 90 62 69
        E 0 90 63 6b
        E 0 90 64 6c
        E 120 80 49 00
        E 0 80 4a 00
        E 0 80 4b 00
        E 0 80 4c 00
        E 0 80 61 00
        E 0 80 62 00
        E 0 80 63 00
        E 0 80 64 00
        E 0 90 09 64
        E 120 80 09 00
        E 0 90 31 6b
        E 0 90 32 6b
        E 0 90 49 6b
        E 0 90 4a 6b
        E 0 90 4b 6d
        E 0 90 4c 6e
        E 0 90 61 6b
        E 0 90 62 6b
        E 0 90 63 6d
        E 0 90 64 6e
        E 0 90 6c 6b
        E 120 80 31 00
        E 0 80 32 00
        E 0 80 6c 00
        E 240 80 49 00
        E 0 80 4a 00
        E 0 80 4b 00
        E 0 80 4c 00
        E 0 80 61 00
        E 0 80 62 00
        E 0 80 63 00
        E 0 80 64 00
        E 0 90 07 64
        E 120 80 07 00
        E 0 90 19 69
        E 0 90 31 69
        E 0 90 32 69
        E 0 90 49 69
        E 0 90 4a 69
        E 0 90 4b 6b
        E 0 90 4c 6c
        E 0 90 61 69
        E 0 90 62 69
        E 0 90 63 6b
        E 0 90 64 6c
        E 0 90 6c 69
        E 120 80 19 00
        E 0 80 31 00
        E 0 80 32 00
        E 0 80 49 00
        E 0 80 4a 00
        E 0 80 4b 00
        E 0 80 4c 00
        E 0 80 61 00
        E 0 80 62 00
        E 0 80 63 00
        E 0 80 64 00
        E 0 80 6c 00
        E 120 90 49 69
        E 0 90 4a 69
        E 0 90 4b 6b
        E 0 90 4c 6c
        E 0 90 61 69
        E 0 90 62 69
        E 0 90 63 6b
        E 0 90 64 6c
        E 120 80 49 00
        E 0 80 4a 00
        E 0 80 4b 00
        E 0 80 4c 00
        E 0 80 61 00
        E 0 80 62 00
        E 0 80 63 00
        E 0 80 64 00
        E 0 90 09 64
        E 120 80 10 00
        E 0 80 09 00
        E 0 90 31 6b
        E 0 90 32 6b
        E 0 90 49 6b
        E 0 90 4a 6b
        E 0 90 4b 6d
        E 0 90 4c 6e
        E 0 90 61 6b
        E 0 90 62 6b
        E 0 90 63 6d
        E 0 90 64 6e
        E 0 90 6c 6b
        E 120 80 31 00
        E 0 80 32 00
        E 0 80 6c 00
        E 240 80 49 00
        E 0 80 4a 00
        E 0 80 4b 00
        E 0 80 4c 00
        E 0 80 61 00
        E 0 80 62 00
        E 0 80 63 00
        E 0 80 64 00
        E 0 90 0e 64
        E 120 80 0e 00
        E 0 90 19 69
        E 0 90 31 69
        E 0 90 32 6b
        E 0 90 49 69
        E 0 90 4a 6b
        E 0 90 4b 6b
        E 0 90 4c 6b
        E 0 90 61 69
        E 0 90 62 6b
        E 0 90 63 6b
        E 0 90 64 6b
        E 0 90 6c 69
        E 120 80 19 00
        E 0 80 31 00
        E 0 80 32 00
        E 0 80 49 00
        E 0 80 4a 00
        E 0 80 4b 00
        E 0 80 4c 00
        E 0 80 61 00
        E 0 80 62 00
        E 0 80 63 00
        E 0 80 64 00
        E 0 80 6c 00
        E 120 90 31 69
        E 0 90 32 6b
        E 0 90 49 69
        E 0 90 4a 6b
        E 0 90 4b 6b
        E 0 90 4c 6b
        E 0 90 61 69
        E 0 90 62 6b
        E 0 90 63 6b
        E 0 90 64 6b
        E 120 80 31 00
        E 0 80 32 00
        E 0 80 49 00
        E 0 80 4a 00
        E 0 80 4b 00
        E 0 80 4c 00
        E 0 80 61 00
        E 0 80 62 00
        E 0 80 63 00
        E 0 80 64 00
        E 120 90 19 69
        E 0 90 31 69
        E 0 90 32 6b
        E 0 90 49 69
        E 0 90 4a 6b
        E 0 90 4b 6b
        E 0 90 4c 6b
        E 0 90 61 69
        E 0 90 62 6b
        E 0 90 63 6b
        E 0 90 64 6b
        E 120 80 19 00
        E 0 80 31 00
        E 0 80 32 00
        E 0 80 49 00
        E 0 80 4a 00
        E 0 80 4b 00
        E 0 80 4c 00
        E 0 80 61 00
        E 0 80 62 00
        E 0 80 63 00
        E 0 80 64 00
        E 120 90 31 69
        E 0 90 32 6b
        E 0 90 49 69
        E 0 90 4a 6b
        E 0 90 4b 6b
        E 0 90 4c 6b
        E 0 90 61 69
        E 0 90 62 6b
        E 0 90 63 6b
        E 0 90 64 6b
        E 120 80 31 00
        E 0 80 32 00
        E 0 80 49 00
        E 0 80 4a 00
        E 0 80 4b 00
        E 0 80 4c 00
        E 0 80 61 00
        E 0 80 62 00
        E 0 80 63 00
        E 0 80 64 00
        E 120 90 19 69
        E 0 90 31 69
        E 0 90 32 6b
        E 0 90 49 69
        E 0 90 4a 6b
        E 0 90 4b 6b
        E 0 90 4c 6b
        E 0 90 61 69
        E 0 90 62 6b
        E 0 90 63 6b
        E 0 90 64 6b
        E 120 80 19 00
        E 0 80 31 00
        E 0 80 32 00
        E 0 80 49 00
        E 0 80 4a 00
        E 0 80 4b 00
        E 0 80 4c 00
        E 0 80 61 00
        E 0 80 62 00
        E 0 80 63 00
        E 0 80 64 00
        E 0 90 09 64
        E 0 90 10 64
        E 120 80 09 00
        E 0 90 49 6b
        E 0 90 4a 6b
        E 0 90 4b 6d
        E 0 90 4c 6e
        E 0 90 61 6b
        E 0 90 62 6b
        E 0 90 63 6d
        E 0 90 64 6e
        E 0 90 6c 6b
        E 120 80 49 00
        E 0 80 4a 00
        E 0 80 4b 00
        E 0 80 4c 00
        E 0 80 61 00
        E 0 80 62 00
        E 0 80 63 00
        E 0 80 64 00
        E 0 80 6c 00
        E 120 90 31 6b
        E 0 90 32 6b
        E 0 90 49 6b
        E 0 90 4a 6b
        E 0 90 4b 6d
        E 0 90 4c 6e
        E 0 90 61 6b
        E 0 90 62 6b
        E 0 90 63 6d
        E 0 90 64 6e
        E 120 80 31 00
        E 0 80 32 00
        E 0 80 49 00
        E 0 80 4a 00
        E 0 80 4b 00
        E 0 80 4c 00
        E 0 80 61 00
        E 0 80 62 00
        E 0 80 63 00
        E 0 80 64 00
        E 120 90 49 6b
        E 0 90 4a 6b
        E 0 90 4b 6d
        E 0 90 4c 6e
        E 0 90 61 6b
        E 0 90 62 6b
        E 0 90 63 6d
        E 0 90 64 6e
        E 120 80 49 00
        E 0 80 4a 00
        E 0 80 4b 00
        E 0 80 4c 00
        E 0 80 61 00
        E 0 80 62 00
        E 0 80 63 00
        E 0 80 64 00
        E 0 90 07 64
        E 120 80 07 00
        E 0 90 19 69
        E 0 90 31 69
        E 0 90 32 69
        E 0 90 49 69
        E 0 90 4a 69
        E 0 90 4b 6b
        E 0 90 4c 6c
        E 0 90 61 69
        E 0 90 62 69
        E 0 90 63 6b
        E 0 90 64 6c
        E 0 90 6c 69
        E 120 80 19 00
        E 0 80 31 00
        E 0 80 32 00
        E 0 80 49 00
        E 0 80 4a 00
        E 0 80 4b 00
        E 0 80 4c 00
        E 0 80 61 00
        E 0 80 62 00
        E 0 80 63 00
        E 0 80 64 00
        E 0 80 6c 00
        E 120 90 49 69
        E 0 90 4a 69
        E 0 90 4b 6b
        E 0 90 4c 6c
        E 0 90 61 69
        E 0 90 62 69
        E 0 90 63 6b
        E 0 90 64 6c
        E 120 80 49 00
        E 0 80 4a 00
        E 0 80 4b 00
        E 0 80 4c 00
        E 0 80 61 00
        E 0 80 62 00
        E 0 80 63 00
        E 0 80 64 00
        E 0 90 09 64
        E 120 80 09 00
        E 0 90 31 6b
        E 0 90 32 6b
        E 0 90 49 6b
        E 0 90 4a 6b
        E 0 90 4b 6d
        E 0 90 4c 6e
        E 0 90 61 6b
        E 0 90 62 6b
        E 0 90 63 6d
        E 0 90 64 6e
        E 0 90 6c 6b
        E 120 80 31 00
        E 0 80 32 00
        E 0 80 6c 00
        E 240 80 49 00
        E 0 80 4a 00
        E 0 80 4b 00
        E 0 80 4c 00
        E 0 80 61 00
        E 0 80 62 00
        E 0 80 63 00
        E 0 80 64 00
        E 0 90 07 64
        E 120 80 07 00
        E 0 90 19 69
        E 0 90 31 69
        E 0 90 32 69
        E 0 90 49 69
        E 0 90 4a 69
        E 0 90 4b 6b
        E 0 90 4c 6c
        E 0 90 61 69
        E 0 90 62 69
        E 0 90 63 6b
        E 0 90 64 6c
        E 0 90 6c 69
        E 120 80 19 00
        E 0 80 31 00
        E 0 80 32 00
        E 0 80 49 00
        E 0 80 4a 00
        E 0 80 4b 00
        E 0 80 4c 00
        E 0 80 61 00
        E 0 80 62 00
        E 0 80 63 00
        E 0 80 64 00
        E 0 80 6c 00
        E 120 90 49 69
        E 0 90 4a 69
        E 0 90 4b 6b
        E 0 90 4c 6c
        E 0 90 61 69
        E 0 90 62 69
        E 0 90 63 6b
        E 0 90 64 6c
        E 120 80 49 00
        E 0 80 4a 00
        E 0 80 4b 00
        E 0 80 4c 00
        E 0 80 61 00
        E 0 80 62 00
        E 0 80 63 00
        E 0 80 64 00
        E 0 90 09 64
        E 120 80 10 00
        E 0 80 09 00
        E 0 90 31 6b
        E 0 90 32 6b
        E 0 90 49 6b
        E 0 90 4a 6b
        E 0 90 4b 6d
        E 0 90 4c 6e
        E 0 90 61 6b
        E 0 90 62 6b
        E 0 90 63 6d
        E 0 90 64 6e
        E 0 90 6c 6b
        E 120 80 31 00
        E 0 80 32 00
        E 0 80 6c 00
        E 240 80 49 00
        E 0 80 4a 00
        E 0 80 4b 00
        E 0 80 4c 00
        E 0 80 61 00
        E 0 80 62 00
        E 0 80 63 00
        E 0 80 64 00
        E 0 90 0e 64
        E 120 80 0e 00
        E 0 90 19 69
        E 0 90 31 69
        E 0 90 32 6b
        E 0 90 49 69
        E 0 90 4a 6b
        E 0 90 4b 6b
        E 0 90 4c 6b
        E 0 90 61 69
        E 0 90 62 6b
        E 0 90 63 6b
        E 0 90 64 6b
        E 0 90 6c 69
        E 120 80 19 00
        E 0 80 31 00
        E 0 80 32 00
        E 0 80 49 00
        E 0 80 4a 00
        E 0 80 4b 00
        E 0 80 4c 00
        E 0 80 61 00
        E 0 80 62 00
        E 0 80 63 00
        E 0 80 64 00
        E 0 80 6c 00
        E 120 90 31 69
        E 0 90 32 6b
        E 0 90 49 69
        E 0 90 4a 6b
        E 0 90 4b 6b
        E 0 90 4c 6b
        E 0 90 61 69
        E 0 90 62 6b
        E 0 90 63 6b
        E 0 90 64 6b
        E 120 80 31 00
        E 0 80 32 00
        E 0 80 49 00
        E 0 80 4a 00
        E 0 80 4b 00
        E 0 80 4c 00
        E 0 80 61 00
        E 0 80 62 00
        E 0 80 63 00
        E 0 80 64 00
        E 120 90 19 69
        E 0 90 31 69
        E 0 90 32 6b
        E 0 90 49 69
        E 0 90 4a 6b
        E 0 90 4b 6b
        E 0 90 4c 6b
        E 0 90 61 69
        E 0 90 62 6b
        E 0 90 63 6b
        E 0 90 64 6b
        E 120 80 19 00
        E 0 80 31 00
        E 0 80 32 00
        E 0 80 49 00
        E 0 80 4a 00
        E 0 80 4b 00
        E 0 80 4c 00
        E 0 80 61 00
        E 0 80 62 00
        E 0 80 63 00
        E 0 80 64 00
        E 120 90 31 69
        E 0 90 32 6b
        E 0 90 49 69
        E 0 90 4a 6b
        E 0 90 4b 6b
        E 0 90 4c 6b
        E 0 90 61 69
        E 0 90 62 6b
        E 0 90 63 6b
        E 0 90 64 6b
        E 120 80 31 00
        E 0 80 32 00
        E 0 80 49 00
        E 0 80 4a 00
        E 0 80 4b 00
        E 0 80 4c 00
        E 0 80 61 00
        E 0 80 62 00
        E 0 80 63 00
        E 0 80 64 00
        E 120 90 19 69
        E 0 90 31 69
        E 0 90 32 6b
        E 0 90 49 69
        E 0 90 4a 6b
        E 0 90 4b 6b
        E 0 90 4c 6b
        E 0 90 61 69
        E 0 90 62 6b
        E 0 90 63 6b
        E 0 90 64 6b
        E 120 80 19 00
        E 0 80 31 00
        E 0 80 32 00
        E 0 80 49 00
        E 0 80 4a 00
        E 0 80 4b 00
        E 0 80 4c 00
        E 0 80 61 00
        E 0 80 62 00
        E 0 80 63 00
        E 0 80 64 00
        E 0 90 09 64
        E 0 90 10 64
        E 120 80 09 00
        E 0 90 49 6b
        E 0 90 4a 6b
        E 0 90 4b 6d
        E 0 90 4c 6e
        E 0 90 61 6b
        E 0 90 62 6b
        E 0 90 63 6d
        E 0 90 64 6e
        E 0 90 6c 6b
        E 120 80 49 00
        E 0 80 4a 00
        E 0 80 4b 00
        E 0 80 4c 00
        E 0 80 61 00
        E 0 80 62 00
        E 0 80 63 00
        E 0 80 64 00
        E 0 80 6c 00
        E 120 90 31 6b
        E 0 90 32 6b
        E 0 90 49 6b
        E 0 90 4a 6b
        E 0 90 4b 6d
        E 0 90 4c 6e
        E 0 90 61 6b
        E 0 90 62 6b
        E 0 90 63 6d
        E 0 90 64 6e
        E 120 80 31 00
        E 0 80 32 00
        E 0 80 49 00
        E 0 80 4a 00
        E 0 80 4b 00
        E 0 80 4c 00
        E 0 80 61 00
        E 0 80 62 00
        E 0 80 63 00
        E 0 80 64 00
        E 120 90 49 6b
        E 0 90 4a 6b
        E 0 90 4b 6d
        E 0 90 4c 6e
        E 0 90 61 6b
        E 0 90 62 6b
        E 0 90 63 6d
        E 0 90 64 6e
        E 120 80 49 00
        E 0 80 4a 00
        E 0 80 4b 00
        E 0 80 4c 00
        E 0 80 61 00
        E 0 80 62 00
        E 0 80 63 00
        E 0 80 64 00
        E 0 90 07 64
        E 120 80 07 00
        E 0 90 19 69
        E 0 90 31 69
        E 0 90 32 69
        E 0 90 49 69
        E 0 90 4a 69
        E 0 90 4b 6b
        E 0 90 4c 6c
        E 0 90 61 69
        E 0 90 62 69
        E 0 90 63 6b
        E 0 90 64 6c
        E 0 90 6c 69
        E 120 80 19 00
        E 0 80 31 00
        E 0 80 32 00
        E 0 80 49 00
        E 0 80 4a 00
        E 0 80 4b 00
        E 0 80 4c 00
        E 0 80 61 00
        E 0 80 62 00
        E 0 80 63 00
        E 0 80 64 00
        E 0 80 6c 00
        E 120 90 49 69
        E 0 90 4a 69
        E 0 90 4b 6b
        E 0 90 4c 6c
        E 0 90 61 69
        E 0 90 62 69
        E 0 90 63 6b
        E 0 90 64 6c
        E 120 80 49 00
        E 0 80 4a 00
        E 0 80 4b 00
        E 0 80 4c 00
        E 0 80 61 00
        E 0 80 62 00
        E 0 80 63 00
        E 0 80 64 00
        E 0 90 09 64
        E 120 80 09 00
        E 0 90 31 6b
        E 0 90 32 6b
        E 0 90 49 6b
        E 0 90 4a 6b
        E 0 90 4b 6d
        E 0 90 4c 6e
        E 0 90 61 6b
        E 0 90 62 6b
        E 0 90 63 6d
        E 0 90 64 6e
        E 0 90 6c 6b
        E 120 80 31 00
        E 0 80 32 00
        E 0 80 6c 00
        E 240 80 49 00
        E 0 80 4a 00
        E 0 80 4b 00
        E 0 80 4c 00
        E 0 80 61 00
        E 0 80 62 00
        E 0 80 63 00
        E 0 80 64 00
        E 0 90 07 64
        E 120 80 07 00
        E 0 90 19 69
        E 0 90 31 69
        E 0 90 32 69
        E 0 90 49 69
        E 0 90 4a 69
        E 0 90 4b 6b
        E 0 90 4c 6c
        E 0 90 61 69
        E 0 90 62 69
        E 0 90 63 6b
        E 0 90 64 6c
        E 0 90 6c 69
        E 120 80 19 00
        E 0 80 31 00
        E 0 80 32 00
        E 0 80 49 00
        E 0 80 4a 00
        E 0 80 4b 00
        E 0 80 4c 00
        E 0 80 61 00
        E 0 80 62 00
        E 0 80 63 00
        E 0 80 64 00
        E 0 80 6c 00
        E 120 90 49 69
        E 0 90 4a 69
        E 0 90 4b 6b
        E 0 90 4c 6c
        E 0 90 61 69
        E 0 90 62 69
        E 0 90 63 6b
        E 0 90 64 6c
        E 120 80 49 00
        E 0 80 4a 00
        E 0 80 4b 00
        E 0 80 4c 00
        E 0 80 61 00
        E 0 80 62 00
        E 0 80 63 00
        E 0 80 64 00
        E 0 90 09 64
        E 120 80 10 00
        E 0 80 09 00
        E 0 90 31 6b
        E 0 90 32 6b
        E 0 90 49 6b
        E 0 90 4a 6b
        E 0 90 4b 6d
        E 0 90 4c 6e
        E 0 90 61 6b
        E 0 90 62 6b
        E 0 90 63 6d
        E 0 90 64 6e
        E 0 90 6c 6b
        E 120 80 6c 00
        E 359 80 31 00
        E 0 80 32 00
        E 0 80 49 00
        E 0 80 4a 00
        E 0 80 4b 00
        E 0 80 4c 00
        E 0 80 61 00
        E 0 80 62 00
        E 0 80 63 00
        E 0 80 64 00
        E 1921 b0 7b 00
        GUID {52B021AD-F29C-46F8-B147-9367808F053D}
        IGNTEMPO 0 120.00000000 4 4
        SRCCOLOR 10
        VELLANE 132 128 60
        COLORMAP "C:\Program Files\REAPER (x64)\Data\color_maps\rockband_guitarbass.png"
        CFGEDITVIEW -10484.073006 7.798504 7 12 0 0 0
        CFGEDIT 1 1 0 1 1 0 1 1 1 1 1 0.25000000 -8 -8 1544 872 0 2 1 1 0.00000000 0 1 0 0 0.500000 0 0 1.000000 64
        KEYSNAP 0 6 "102030050700" 0 "Pentatonic"
        EVTFILTER 0 -1 -1 -1 -1 0 1 0 0 -1.00000000 -1.00000000
      >
    >
  >
  <TRACK '{7FFD73F9-609C-4063-BC0A-F296DBD22D26}'
    NAME "EVENTS"
    PEAKCOL 16576
    BEAT -1
    AUTOMODE 0
    VOLPAN 1.00000000000000 0.00000000000000 -1.00000000000000 -1.00000000000000 1.00000000000000
    MUTESOLO 0 0 0
    IPHASE 0
    ISBUS 0 0
    BUSCOMP 0 0
    SHOWINMIX 1 0.666700 0.500000 1 0.500000 -1 -1 -1
    FREEMODE 0
    SEL 1
    REC 0 0 0 0 0 0 0
    VU 2
    TRACKHEIGHT 0 0
    INQ 0 0 0 0.5000000000 100 0 0 100
    NCHAN 2
    FX 1
    TRACKID {7FFD73F9-609C-4063-BC0A-F296DBD22D26}
    PERF 0
    MIDIOUT -1
    <MIDINOTENAMES
      0 26 "Hi-Hat"
      0 25 "Snare"
      0 24 "Kick"
    >
    MAINSEND 1 0
    <FXCHAIN
      SHOW 0
      LASTSEL 0
      DOCKED 0
    >
    <ITEM
      POSITION 0.00000000000000
      SNAPOFFS 0.00000000000000
      LENGTH 144.00200000000001
      LOOP 0
      ALLTAKES 0
      SEL 1
      FADEIN 1 0.000000 0.000000 1 0
      FADEOUT 1 0.000000 0.000000 1 0
      MUTE 0
      IGUID {52CAD1D8-7D6A-43C4-979C-5D701A27371B}
      IID 9
      NAME "EVENTS"
      VOLPAN 1.000000 0.000000 1.000000 -1.000000
      SOFFS 0.00000000000000 0.00000000000000
      PLAYRATE 1.00000000000000 1 0.00000000000000 -1
      CHANMODE 0
      GUID {29953A24-31E4-4645-A741-D8DD17AD507D}
      <SOURCE MIDI
        HASDATA 1 480 QN
        POOLEDEVTS {CBA2517D-EC87-4DAF-8D71-9986292D1A5E}
        <X 0 0
          /wNFVkVOVFM=
        >
        <X 3840 0
          /wFbcHJjX2ludHJvXQ==
        >
        <X 1920 0
          /wFbY3Jvd2RfaW50ZW5zZV0=
        >
        <X 0 0
          /wFbbXVzaWNfc3RhcnRd
        >
        <X 0 0
          /wFbY3Jvd2Rfbm9jbGFwXQ==
        >
        <X 15360 0
          /wFbcHJjX3ZlcnNlXzFd
        >
        <X 0 0
          /wFbY3Jvd2Rfbm9ybWFsXQ==
        >
        <X 0 0
          /wFbY3Jvd2RfY2xhcF0=
        >
        <X 30720 0
          /wFbY3Jvd2RfaW50ZW5zZV0=
        >
        <X 0 0
          /wFbcHJjX2Nob3J1c18xXQ==
        >
        <X 0 0
          /wFbY3Jvd2Rfbm9jbGFwXQ==
        >
        <X 15360 0
          /wFbY3Jvd2Rfbm9ybWFsXQ==
        >
        <X 0 0
          /wFbcHJjX3ZlcnNlXzJd
        >
        <X 0 0
          /wFbY3Jvd2RfY2xhcF0=
        >
        <X 30720 0
          /wFbcHJjX2Nob3J1c18yXQ==
        >
        <X 0 0
          /wFbY3Jvd2RfaW50ZW5zZV0=
        >
        <X 15360 0
          /wFbY3Jvd2RfY2xhcF0=
        >
        <X 0 0
          /wFbY3Jvd2Rfbm9ybWFsXQ==
        >
        <X 0 0
          /wFbcHJjX2JyaWRnZV0=
        >
        <X 30720 0
          /wFbY3Jvd2RfaW50ZW5zZV0=
        >
        <X 0 0
          /wFbcHJjX291dHJvX2Nob3J1c10=
        >
        <X 15360 0
          /wFbY3Jvd2RfcmVhbHRpbWVd
        >
        <X 0 0
          /wFbbXVzaWNfZW5kXQ==
        >
        <X 1915 0
          /wFbZW5kXQ==
        >
        E 5 b0 7b 00
        GUID {76816DAB-A6A9-4B06-B675-57E830399DD6}
        IGNTEMPO 0 120.00000000 4 4
        SRCCOLOR 11
        VELLANE 132 128 60
        COLORMAP "C:\Program Files\REAPER (x64)\Data\color_maps\rockband_guitarbass.png"
        CFGEDITVIEW -10484.073006 7.798504 0 48 0 0 0
        CFGEDIT 1 1 0 1 1 0 1 1 1 1 1 0.25000000 -8 -8 1544 872 0 2 1 1 0.00000000 0 1 0 0 0.500000 0 0 1.000000 64
        KEYSNAP 0 6 "102030050700" 0 "Pentatonic"
        EVTFILTER 0 -1 -1 -1 -1 0 1 0 0 -1.00000000 -1.00000000
      >
    >
  >
  <TRACK '{C89C807B-FA2F-4A1F-B36F-911828209532}'
    NAME "VENUE"
    PEAKCOL 16576
    BEAT -1
    AUTOMODE 0
    VOLPAN 1.00000000000000 0.00000000000000 -1.00000000000000 -1.00000000000000 1.00000000000000
    MUTESOLO 0 0 0
    IPHASE 0
    ISBUS 1 1
    BUSCOMP 1 0
    SHOWINMIX 1 0.666700 0.500000 1 0.500000 -1 -1 -1
    FREEMODE 0
    SEL 0
    REC 0 0 0 0 0 0 0
    VU 2
    TRACKHEIGHT 0 0
    INQ 0 0 0 0.5000000000 100 0 0 100
    NCHAN 2
    FX 1
    TRACKID {C89C807B-FA2F-4A1F-B36F-911828209532}
    PERF 0
    MIDIOUT -1
    <MIDINOTENAMES
      0 87 "Guitarist Sing Along"
      0 86 "Drummer Sing Along"
      0 85 "Bassist Sing Along"
      0 84 "----"
      0 41 "Spotlight on Keys"
      0 40 "Spotlight on Vocals"
      0 39 "Spotlight on Guitar"
      0 38 "Spotlight on Drums"
      0 37 "Spotlight on Bass"
    >
    MAINSEND 1 0
    <FXCHAIN
      SHOW 0
      LASTSEL 0
      DOCKED 0
    >
    <ITEM
      POSITION 0.00000000000000
      SNAPOFFS 0.00000000000000
      LENGTH 144.00200000000001
      LOOP 0
      ALLTAKES 0
      SEL 0
      FADEIN 1 0.000000 0.000000 1 0
      FADEOUT 1 0.000000 0.000000 1 0
      MUTE 0
      IGUID {E8216DBD-1906-4A33-9E1C-35AEDB387D2E}
      IID 10
      NAME "VENUE"
      VOLPAN 1.000000 0.000000 1.000000 -1.000000
      SOFFS 0.00000000000000 0.00000000000000
      PLAYRATE 1.00000000000000 1 0.00000000000000 -1
      CHANMODE 0
      GUID {3A719724-7101-4EE0-9AE2-0BE14485491B}
      <SOURCE MIDI
        HASDATA 1 480 QN
        POOLEDEVTS {94C89A39-98BD-4AC4-B944-3B465FEE9A61}
        <X 0 0
          /wNWRU5VRQ==
        >
        <X 0 0
          /wFbY29vcF9hbGxfZmFyXQ==
        >
        <X 0 0
          /wFbUHJvRmlsbV9hLnBwXQ==
        >
        <X 3840 0
          /wFbY29vcF9kX25lYXJd
        >
        <X 0 0
          /wFbbGlnaHRpbmcgKGxvb3Bfd2FybSld
        >
        <X 0 0
          /wFbbGlnaHRpbmcgKGZsYXJlX2Zhc3QpXQ==
        >
        <X 120 0
          /wFbbGlnaHRpbmcgKGJsYWNrb3V0X2Zhc3QpXQ==
        >
        <X 120 0
          /wFbbGlnaHRpbmcgKGZsYXJlX2Zhc3QpXQ==
        >
        <X 120 0
          /wFbbGlnaHRpbmcgKGJsYWNrb3V0X2Zhc3QpXQ==
        >
        <X 120 0
          /wFbbGlnaHRpbmcgKGZsYXJlX2Zhc3QpXQ==
        >
        <X 120 0
          /wFbbGlnaHRpbmcgKGJsYWNrb3V0X2Zhc3QpXQ==
        >
        <X 120 0
          /wFbbGlnaHRpbmcgKGZsYXJlX2Zhc3QpXQ==
        >
        <X 120 0
          /wFbbGlnaHRpbmcgKGJsYWNrb3V0X2Zhc3QpXQ==
        >
        <X 120 0
          /wFbbGlnaHRpbmcgKGZsYXJlX2Zhc3QpXQ==
        >
        <X 120 0
          /wFbbGlnaHRpbmcgKGJsYWNrb3V0X2Zhc3QpXQ==
        >
        <X 120 0
          /wFbbGlnaHRpbmcgKGZsYXJlX2Zhc3QpXQ==
        >
        <X 120 0
          /wFbbGlnaHRpbmcgKGJsYWNrb3V0X2Zhc3QpXQ==
        >
        <X 120 0
          /wFbbGlnaHRpbmcgKGZsYXJlX2Zhc3QpXQ==
        >
        <X 120 0
          /wFbbGlnaHRpbmcgKGJsYWNrb3V0X2Zhc3QpXQ==
        >
        <X 120 0
          /wFbbGlnaHRpbmcgKGZsYXJlX2Zhc3QpXQ==
        >
        <X 120 0
          /wFbbGlnaHRpbmcgKGJsYWNrb3V0X2Zhc3QpXQ==
        >
        <X 120 0
          /wFbY29vcF9iZ19uZWFyXQ==
        >
        <X 0 0
          /wFbbGlnaHRpbmcgKGZsYXJlX2Zhc3QpXQ==
        >
        <X 3840 0
          /wFbY29vcF9kX2JlaGluZF0=
        >
        <X 3840 0
          /wFbY29vcF9mcm9udF9uZWFyXQ==
        >
        <X 3840 0
          /wFbY29vcF9nX25lYXJd
        >
        <X 3360 0
          /wFbbGlnaHRpbmcgKGxvb3Bfd2FybSld
        >
        <X 480 0
          /wFbY29vcF92X25lYXJd
        >
        <X 0 0
          /wFbZmlyc3Rd
        >
        <X 0 0
          /wFbbGlnaHRpbmcgKHZlcnNlKV0=
        >
        <X 960 0
          /wFbbmV4dF0=
        >
        <X 960 0
          /wFbbmV4dF0=
        >
        <X 960 0
          /wFbbmV4dF0=
        >
        <X 960 0
          /wFbY29vcF92X25lYXJd
        >
        <X 0 0
          /wFbbmV4dF0=
        >
        <X 960 0
          /wFbbmV4dF0=
        >
        <X 960 0
          /wFbbmV4dF0=
        >
        <X 960 0
          /wFbbmV4dF0=
        >
        <X 960 0
          /wFbY29vcF9iZ19uZWFyXQ==
        >
        <X 0 0
          /wFbbmV4dF0=
        >
        <X 960 0
          /wFbbmV4dF0=
        >
        <X 960 0
          /wFbbmV4dF0=
        >
        <X 960 0
          /wFbbmV4dF0=
        >
        <X 960 0
          /wFbY29vcF92X25lYXJd
        >
        <X 0 0
          /wFbbmV4dF0=
        >
        <X 960 0
          /wFbbmV4dF0=
        >
        <X 960 0
          /wFbY29vcF92X25lYXJd
        >
        <X 0 0
          /wFbbmV4dF0=
        >
        <X 960 0
          /wFbbmV4dF0=
        >
        <X 960 0
          /wFbY29vcF9kX25lYXJd
        >
        <X 0 0
          /wFbbmV4dF0=
        >
        <X 960 0
          /wFbbmV4dF0=
        >
        <X 960 0
          /wFbbmV4dF0=
        >
        <X 960 0
          /wFbbmV4dF0=
        >
        <X 960 0
          /wFbY29vcF9iX25lYXJd
        >
        <X 0 0
          /wFbbmV4dF0=
        >
        <X 960 0
          /wFbbmV4dF0=
        >
        <X 960 0
          /wFbY29vcF92X25lYXJd
        >
        <X 0 0
          /wFbbmV4dF0=
        >
        <X 960 0
          /wFbbmV4dF0=
        >
        <X 960 0
          /wFbZGlyZWN0ZWRfdm9jYWxzX2NhbV9wdF0=
        >
        <X 0 0
          /wFbbmV4dF0=
        >
        <X 960 0
          /wFbbmV4dF0=
        >
        <X 960 0
          /wFbY29vcF9iX2JlaGluZF0=
        >
        <X 0 0
          /wFbbmV4dF0=
        >
        <X 960 0
          /wFbbmV4dF0=
        >
        <X 960 0
          /wFbY29vcF92X25lYXJd
        >
        <X 0 0
          /wFbbmV4dF0=
        >
        <X 960 0
          /wFbbmV4dF0=
        >
        <X 960 0
          /wFbY29vcF9kX25lYXJd
        >
        <X 0 0
          /wFbbmV4dF0=
        >
        <X 0 0
          /wFbbGlnaHRpbmcgKGZsYXJlX2Zhc3QpXQ==
        >
        <X 120 0
          /wFbbGlnaHRpbmcgKGJsYWNrb3V0X2Zhc3QpXQ==
        >
        <X 120 0
          /wFbbGlnaHRpbmcgKGZsYXJlX2Zhc3QpXQ==
        >
        <X 120 0
          /wFbbGlnaHRpbmcgKGJsYWNrb3V0X2Zhc3QpXQ==
        >
        <X 120 0
          /wFbbGlnaHRpbmcgKGZsYXJlX2Zhc3QpXQ==
        >
        <X 120 0
          /wFbbGlnaHRpbmcgKGJsYWNrb3V0X2Zhc3QpXQ==
        >
        <X 120 0
          /wFbbGlnaHRpbmcgKGZsYXJlX2Zhc3QpXQ==
        >
        <X 120 0
          /wFbbGlnaHRpbmcgKGJsYWNrb3V0X2Zhc3QpXQ==
        >
        <X 120 0
          /wFbbmV4dF0=
        >
        <X 0 0
          /wFbbGlnaHRpbmcgKGZsYXJlX2Zhc3QpXQ==
        >
        <X 120 0
          /wFbbGlnaHRpbmcgKGJsYWNrb3V0X2Zhc3QpXQ==
        >
        <X 120 0
          /wFbbGlnaHRpbmcgKGZsYXJlX2Zhc3QpXQ==
        >
        <X 120 0
          /wFbbGlnaHRpbmcgKGJsYWNrb3V0X2Zhc3QpXQ==
        >
        <X 120 0
          /wFbbGlnaHRpbmcgKGZsYXJlX2Zhc3QpXQ==
        >
        <X 120 0
          /wFbbGlnaHRpbmcgKGJsYWNrb3V0X2Zhc3QpXQ==
        >
        <X 120 0
          /wFbbGlnaHRpbmcgKGZsYXJlX2Zhc3QpXQ==
        >
        <X 120 0
          /wFbbGlnaHRpbmcgKGJsYWNrb3V0X2Zhc3QpXQ==
        >
        <X 120 0
          /wFbY29vcF92X25lYXJd
        >
        <X 0 0
          /wFbZmlyc3Rd
        >
        <X 0 0
          /wFbbGlnaHRpbmcgKG1hbnVhbF93YXJtKV0=
        >
        <X 480 0
          /wFbbmV4dF0=
        >
        <X 480 0
          /wFbbmV4dF0=
        >
        <X 480 0
          /wFbbmV4dF0=
        >
        <X 480 0
          /wFbY29vcF92X2Nsb3NldXBd
        >
        <X 0 0
          /wFbbmV4dF0=
        >
        <X 480 0
          /wFbbmV4dF0=
        >
        <X 480 0
          /wFbbmV4dF0=
        >
        <X 480 0
          /wFbbmV4dF0=
        >
        <X 480 0
          /wFbZGlyZWN0ZWRfZHVvX2diXQ==
        >
        <X 0 0
          /wFbbmV4dF0=
        >
        <X 480 0
          /wFbbmV4dF0=
        >
        <X 480 0
          /wFbbmV4dF0=
        >
        <X 480 0
          /wFbbmV4dF0=
        >
        <X 480 0
          /wFbbmV4dF0=
        >
        <X 480 0
          /wFbbmV4dF0=
        >
        <X 480 0
          /wFbbmV4dF0=
        >
        <X 480 0
          /wFbbmV4dF0=
        >
        <X 480 0
          /wFbY29vcF92X2Nsb3NldXBd
        >
        <X 0 0
          /wFbbmV4dF0=
        >
        <X 480 0
          /wFbbmV4dF0=
        >
        <X 480 0
          /wFbbmV4dF0=
        >
        <X 480 0
          /wFbbmV4dF0=
        >
        <X 480 0
          /wFbbmV4dF0=
        >
        <X 480 0
          /wFbbmV4dF0=
        >
        <X 480 0
          /wFbbmV4dF0=
        >
        <X 480 0
          /wFbbmV4dF0=
        >
        <X 480 0
          /wFbbmV4dF0=
        >
        <X 480 0
          /wFbbmV4dF0=
        >
        <X 480 0
          /wFbbmV4dF0=
        >
        <X 480 0
          /wFbbmV4dF0=
        >
        <X 480 0
          /wFbY29vcF9idl9uZWFyXQ==
        >
        <X 0 0
          /wFbbmV4dF0=
        >
        <X 480 0
          /wFbbmV4dF0=
        >
        <X 480 0
          /wFbbmV4dF0=
        >
        <X 480 0
          /wFbbmV4dF0=
        >
        <X 0 0
          /wFbUHJvRmlsbV9hLnBwXQ==
        >
        <X 480 0
          /wFbY29vcF9ndl9uZWFyXQ==
        >
        <X 0 0
          /wFbZmlyc3Rd
        >
        <X 0 0
          /wFbbGlnaHRpbmcgKHZlcnNlKV0=
        >
        <X 0 0
          /wFbdmlkZW9fYncucHBd
        >
        <X 960 0
          /wFbbmV4dF0=
        >
        E 0 90 57 60
        <X 960 0
          /wFbbmV4dF0=
        >
        <X 960 0
          /wFbbmV4dF0=
        >
        <X 960 0
          /wFbbmV4dF0=
        >
        <X 960 0
          /wFbY29vcF9nX2Nsb3NldXBfaGVhZF0=
        >
        <X 0 0
          /wFbbmV4dF0=
        >
        <X 960 0
          /wFbbmV4dF0=
        >
        <X 960 0
          /wFbbmV4dF0=
        >
        <X 960 0
          /wFbY29vcF92X25lYXJd
        >
        <X 0 0
          /wFbbmV4dF0=
        >
        <X 720 0
          /wFbY29vcF9nX2Nsb3NldXBfaGVhZF0=
        >
        <X 240 0
          /wFbbmV4dF0=
        >
        <X 960 0
          /wFbbmV4dF0=
        >
        <X 960 0
          /wFbbmV4dF0=
        >
        <X 960 0
          /wFbY29vcF9nX2Nsb3NldXBfaGVhZF0=
        >
        <X 0 0
          /wFbbmV4dF0=
        >
        <X 960 0
          /wFbbmV4dF0=
        >
        <X 960 0
          /wFbbmV4dF0=
        >
        <X 960 0
          /wFbbmV4dF0=
        >
        <X 960 0
          /wFbY29vcF9iZF9uZWFyXQ==
        >
        <X 0 0
          /wFbbmV4dF0=
        >
        <X 960 0
          /wFbbmV4dF0=
        >
        <X 480 0
          /wFbZGlyZWN0ZWRfdm9jYWxzX2NhbV9wdF0=
        >
        <X 480 0
          /wFbbmV4dF0=
        >
        <X 960 0
          /wFbbmV4dF0=
        >
        <X 720 0
          /wFbY29vcF9nX2Nsb3NldXBfaGVhZF0=
        >
        <X 240 0
          /wFbbmV4dF0=
        >
        <X 960 0
          /wFbbmV4dF0=
        >
        <X 480 0
          /wFbY29vcF92X25lYXJd
        >
        <X 480 0
          /wFbZGlyZWN0ZWRfdm9jYWxzXQ==
        >
        <X 0 0
          /wFbbmV4dF0=
        >
        <X 960 0
          /wFbbmV4dF0=
        >
        <X 960 0
          /wFbY29vcF9nX2Nsb3NldXBfaGVhZF0=
        >
        <X 0 0
          /wFbbmV4dF0=
        >
        <X 960 0
          /wFbbmV4dF0=
        >
        <X 480 0
          /wFbY29vcF92X2Nsb3NldXBd
        >
        <X 480 0
          /wFbbmV4dF0=
        >
        <X 960 0
          /wFbbmV4dF0=
        >
        <X 960 0
          /wFbY29vcF9nX25lYXJd
        >
        <X 0 0
          /wFbbmV4dF0=
        >
        <X 960 0
          /wFbbmV4dF0=
        >
        <X 960 0
          /wFbY29vcF9kX25lYXJd
        >
        <X 0 0
          /wFbbmV4dF0=
        >
        <X 0 0
          /wFbbGlnaHRpbmcgKGZsYXJlX2Zhc3QpXQ==
        >
        E 0 80 57 00
        <X 120 0
          /wFbbGlnaHRpbmcgKGJsYWNrb3V0X2Zhc3QpXQ==
        >
        <X 120 0
          /wFbbGlnaHRpbmcgKGZsYXJlX2Zhc3QpXQ==
        >
        <X 120 0
          /wFbbGlnaHRpbmcgKGJsYWNrb3V0X2Zhc3QpXQ==
        >
        <X 120 0
          /wFbbGlnaHRpbmcgKGZsYXJlX2Zhc3QpXQ==
        >
        <X 120 0
          /wFbbGlnaHRpbmcgKGJsYWNrb3V0X2Zhc3QpXQ==
        >
        <X 120 0
          /wFbbGlnaHRpbmcgKGZsYXJlX2Zhc3QpXQ==
        >
        <X 120 0
          /wFbbGlnaHRpbmcgKGJsYWNrb3V0X2Zhc3QpXQ==
        >
        <X 120 0
          /wFbbmV4dF0=
        >
        <X 0 0
          /wFbbGlnaHRpbmcgKGZsYXJlX2Zhc3QpXQ==
        >
        <X 120 0
          /wFbbGlnaHRpbmcgKGJsYWNrb3V0X2Zhc3QpXQ==
        >
        <X 120 0
          /wFbbGlnaHRpbmcgKGZsYXJlX2Zhc3QpXQ==
        >
        <X 120 0
          /wFbbGlnaHRpbmcgKGJsYWNrb3V0X2Zhc3QpXQ==
        >
        <X 120 0
          /wFbdmlkZW9fYncucHBd
        >
        <X 0 0
          /wFbbGlnaHRpbmcgKGZsYXJlX2Zhc3QpXQ==
        >
        <X 120 0
          /wFbbGlnaHRpbmcgKGJsYWNrb3V0X2Zhc3QpXQ==
        >
        <X 120 0
          /wFbbGlnaHRpbmcgKGZsYXJlX2Zhc3QpXQ==
        >
        <X 120 0
          /wFbbGlnaHRpbmcgKGJsYWNrb3V0X2Zhc3QpXQ==
        >
        <X 120 0
          /wFbY29vcF9mcm9udF9iZWhpbmRd
        >
        <X 0 0
          /wFbZmlyc3Rd
        >
        <X 0 0
          /wFbbGlnaHRpbmcgKG1hbnVhbF93YXJtKV0=
        >
        <X 0 0
          /wFbUHJvRmlsbV9hLnBwXQ==
        >
        <X 480 0
          /wFbbmV4dF0=
        >
        <X 480 0
          /wFbbmV4dF0=
        >
        <X 480 0
          /wFbbmV4dF0=
        >
        <X 480 0
          /wFbbmV4dF0=
        >
        <X 480 0
          /wFbbmV4dF0=
        >
        <X 480 0
          /wFbbmV4dF0=
        >
        <X 480 0
          /wFbbmV4dF0=
        >
        <X 480 0
          /wFbY29vcF92X25lYXJd
        >
        <X 0 0
          /wFbbmV4dF0=
        >
        <X 480 0
          /wFbbmV4dF0=
        >
        <X 480 0
          /wFbbmV4dF0=
        >
        <X 480 0
          /wFbbmV4dF0=
        >
        <X 480 0
          /wFbZGlyZWN0ZWRfZHVvX2diXQ==
        >
        <X 0 0
          /wFbbmV4dF0=
        >
        <X 480 0
          /wFbbmV4dF0=
        >
        <X 480 0
          /wFbbmV4dF0=
        >
        <X 480 0
          /wFbbmV4dF0=
        >
        <X 480 0
          /wFbbmV4dF0=
        >
        <X 480 0
          /wFbbmV4dF0=
        >
        <X 480 0
          /wFbbmV4dF0=
        >
        <X 480 0
          /wFbbmV4dF0=
        >
        <X 480 0
          /wFbZGlyZWN0ZWRfZHJ1bXNd
        >
        <X 0 0
          /wFbbmV4dF0=
        >
        <X 480 0
          /wFbbmV4dF0=
        >
        <X 480 0
          /wFbbmV4dF0=
        >
        <X 480 0
          /wFbbmV4dF0=
        >
        <X 480 0
          /wFbY29vcF92X25lYXJd
        >
        <X 0 0
          /wFbbmV4dF0=
        >
        <X 480 0
          /wFbbmV4dF0=
        >
        <X 480 0
          /wFbbmV4dF0=
        >
        <X 480 0
          /wFbbmV4dF0=
        >
        <X 480 0
          /wFbY29vcF9kX2Nsb3NldXBfaGFuZF0=
        >
        <X 0 0
          /wFbbmV4dF0=
        >
        <X 480 0
          /wFbbmV4dF0=
        >
        <X 480 0
          /wFbbmV4dF0=
        >
        <X 480 0
          /wFbbmV4dF0=
        >
        <X 0 0
          /wFbUHJvRmlsbV9hLnBwXQ==
        >
        <X 480 0
          /wFbY29vcF9nX2Nsb3NldXBfaGFuZF0=
        >
        <X 0 0
          /wFbZmlyc3Rd
        >
        <X 0 0
          /wFbbGlnaHRpbmcgKG1hbnVhbF9jb29sKV0=
        >
        <X 0 0
          /wFbZmlsbV8xNm1tLnBwXQ==
        >
        E 0 90 57 60
        <X 720 0
          /wFbY29vcF9nX2Nsb3NldXBfaGVhZF0=
        >
        <X 240 0
          /wFbbmV4dF0=
        >
        <X 960 0
          /wFbY29vcF9iX2Nsb3NldXBfaGFuZF0=
        >
        <X 0 0
          /wFbbmV4dF0=
        >
        <X 720 0
          /wFbY29vcF92X2Nsb3NldXBd
        >
        <X 240 0
          /wFbbmV4dF0=
        >
        <X 960 0
          /wFbY29vcF9kX2JlaGluZF0=
        >
        <X 0 0
          /wFbbmV4dF0=
        >
        <X 720 0
          /wFbY29vcF9nX2Nsb3NldXBfaGVhZF0=
        >
        <X 240 0
          /wFbbmV4dF0=
        >
        <X 960 0
          /wFbY29vcF9nX25lYXJd
        >
        <X 0 0
          /wFbbmV4dF0=
        >
        <X 720 0
          /wFbY29vcF92X25lYXJd
        >
        <X 240 0
          /wFbbmV4dF0=
        >
        <X 960 0
          /wFbZGlyZWN0ZWRfZHJ1bXNd
        >
        <X 0 0
          /wFbbmV4dF0=
        >
        <X 960 0
          /wFbbmV4dF0=
        >
        <X 960 0
          /wFbbmV4dF0=
        >
        <X 960 0
          /wFbbmV4dF0=
        >
        <X 960 0
          /wFbY29vcF9ndl9uZWFyXQ==
        >
        <X 0 0
          /wFbbmV4dF0=
        >
        <X 960 0
          /wFbbmV4dF0=
        >
        <X 960 0
          /wFbbmV4dF0=
        >
        <X 960 0
          /wFbbmV4dF0=
        >
        <X 960 0
          /wFbZGlyZWN0ZWRfYWxsXQ==
        >
        <X 0 0
          /wFbbmV4dF0=
        >
        <X 960 0
          /wFbbmV4dF0=
        >
        <X 960 0
          /wFbbmV4dF0=
        >
        <X 960 0
          /wFbbmV4dF0=
        >
        <X 960 0
          /wFbY29vcF9ndl9uZWFyXQ==
        >
        <X 0 0
          /wFbbmV4dF0=
        >
        <X 960 0
          /wFbbmV4dF0=
        >
        <X 960 0
          /wFbbmV4dF0=
        >
        <X 960 0
          /wFbbmV4dF0=
        >
        <X 960 0
          /wFbY29vcF9nX25lYXJd
        >
        <X 0 0
          /wFbbmV4dF0=
        >
        <X 960 0
          /wFbbmV4dF0=
        >
        <X 960 0
          /wFbY29vcF92X25lYXJd
        >
        <X 0 0
          /wFbbmV4dF0=
        >
        <X 960 0
          /wFbbmV4dF0=
        >
        <X 960 0
          /wFbY29vcF9nX25lYXJd
        >
        <X 0 0
          /wFbbmV4dF0=
        >
        <X 960 0
          /wFbbmV4dF0=
        >
        <X 720 0
          /wFbY29vcF9kdl9uZWFyXQ==
        >
        <X 240 0
          /wFbbmV4dF0=
        >
        <X 960 0
          /wFbbmV4dF0=
        >
        <X 240 0
          /wFbbGlnaHRpbmcgKGZsYXJlX2Zhc3QpXQ==
        >
        <X 120 0
          /wFbbGlnaHRpbmcgKGJsYWNrb3V0X2Zhc3QpXQ==
        >
        <X 120 0
          /wFbbGlnaHRpbmcgKG1hbnVhbF9jb29sKV0=
        >
        <X 0 0
          /wFbZmlsbV8xNm1tLnBwXQ==
        >
        <X 0 0
          /wFbbGlnaHRpbmcgKGZsYXJlX2Zhc3QpXQ==
        >
        <X 120 0
          /wFbbGlnaHRpbmcgKGJsYWNrb3V0X2Zhc3QpXQ==
        >
        <X 120 0
          /wFbbGlnaHRpbmcgKGZsYXJlX2Zhc3QpXQ==
        >
        <X 120 0
          /wFbbGlnaHRpbmcgKGJsYWNrb3V0X2Zhc3QpXQ==
        >
        <X 120 0
          /wFbY29vcF9hbGxfbmVhcl0=
        >
        <X 0 0
          /wFbZmlyc3Rd
        >
        <X 0 0
          /wFbbGlnaHRpbmcgKG1hbnVhbF93YXJtKV0=
        >
        <X 0 0
          /wFbUHJvRmlsbV9hLnBwXQ==
        >
        E 0 80 57 00
        <X 480 0
          /wFbbmV4dF0=
        >
        <X 480 0
          /wFbbmV4dF0=
        >
        <X 480 0
          /wFbbmV4dF0=
        >
        <X 480 0
          /wFbbmV4dF0=
        >
        <X 480 0
          /wFbbmV4dF0=
        >
        <X 480 0
          /wFbbmV4dF0=
        >
        <X 480 0
          /wFbbmV4dF0=
        >
        <X 480 0
          /wFbY29vcF9mcm9udF9uZWFyXQ==
        >
        <X 0 0
          /wFbbmV4dF0=
        >
        <X 480 0
          /wFbbmV4dF0=
        >
        <X 480 0
          /wFbbmV4dF0=
        >
        <X 480 0
          /wFbbmV4dF0=
        >
        <X 480 0
          /wFbbmV4dF0=
        >
        <X 480 0
          /wFbbmV4dF0=
        >
        <X 480 0
          /wFbbmV4dF0=
        >
        <X 480 0
          /wFbbmV4dF0=
        >
        <X 480 0
          /wFbY29vcF92X2Nsb3NldXBd
        >
        <X 0 0
          /wFbbmV4dF0=
        >
        <X 480 0
          /wFbbmV4dF0=
        >
        <X 480 0
          /wFbY29vcF9kX2JlaGluZF0=
        >
        <X 0 0
          /wFbbmV4dF0=
        >
        <X 480 0
          /wFbbmV4dF0=
        >
        <X 480 0
          /wFbY29vcF92X25lYXJd
        >
        <X 0 0
          /wFbbmV4dF0=
        >
        <X 480 0
          /wFbbmV4dF0=
        >
        <X 480 0
          /wFbY29vcF9iX25lYXJd
        >
        <X 0 0
          /wFbbmV4dF0=
        >
        <X 480 0
          /wFbbmV4dF0=
        >
        <X 480 0
          /wFbY29vcF92X2Nsb3NldXBd
        >
        <X 0 0
          /wFbbmV4dF0=
        >
        <X 480 0
          /wFbbmV4dF0=
        >
        <X 480 0
          /wFbY29vcF9nX25lYXJd
        >
        <X 0 0
          /wFbbmV4dF0=
        >
        <X 480 0
          /wFbbmV4dF0=
        >
        <X 480 0
          /wFbY29vcF92X25lYXJd
        >
        <X 0 0
          /wFbbmV4dF0=
        >
        <X 480 0
          /wFbbmV4dF0=
        >
        <X 480 0
          /wFbbmV4dF0=
        >
        <X 480 0
          /wFbbmV4dF0=
        >
        <X 479 0
          /wFbZGlyZWN0ZWRfYnJlal0=
        >
        <X 0 0
          /wFbUHJvRmlsbV9hLnBwXQ==
        >
        E 1921 b0 7b 00
        GUID {F2A86ED6-16B7-4C4A-9A20-9EDC313DB995}
        IGNTEMPO 0 120.00000000 4 4
        SRCCOLOR 12
        VELLANE 131 128 60
        COLORMAP "C:\Program Files\REAPER (x64)\Data\color_maps\rockband_guitarbass.png"
        CFGEDITVIEW -10484.073006 7.798504 0 48 0 0 0
        CFGEDIT 1 1 0 1 1 0 1 1 1 1 1 0.25000000 -8 -8 1544 872 0 2 1 1 0.00000000 0 1 0 0 0.500000 0 0 1.000000 64
        KEYSNAP 0 6 "102030050700" 0 "Pentatonic"
        EVTFILTER 0 -1 -1 -1 -1 0 1 0 0 -1.00000000 -1.00000000
      >
    >
  >
  <TRACK '{9EC1438D-06E7-49A6-959A-F4CC1EDBEF95}'
    NAME "CAMERA"
    PEAKCOL 16576
    BEAT -1
    AUTOMODE 0
    VOLPAN 1.00000000000000 0.00000000000000 -1.00000000000000 -1.00000000000000 1.00000000000000
    MUTESOLO 1 0 0
    IPHASE 0
    ISBUS 0 0
    BUSCOMP 0 0
    SHOWINMIX 1 0.666700 0.500000 1 0.500000 -1 -1 -1
    FREEMODE 0
    SEL 0
    REC 0 0 0 0 0 0 0
    VU 2
    TRACKHEIGHT 0 1
    INQ 0 0 0 0.5000000000 100 0 0 100
    NCHAN 2
    FX 1
    TRACKID {9EC1438D-06E7-49A6-959A-F4CC1EDBEF95}
    PERF 0
    MIDIOUT -1
    MAINSEND 1 0
    <ITEM
      POSITION 0.00000000000000
      SNAPOFFS 0.00000000000000
      LENGTH 144.00198399999999
      LOOP 0
      ALLTAKES 0
      SEL 0
      FADEIN 1 0.000000 0.000000 1 0
      FADEOUT 1 0.000000 0.000000 1 0
      MUTE 0
      IGUID {705353E4-EB26-49B4-9C26-A5E285F97922}
      IID 13
      NAME "CAMERA"
      VOLPAN 1.000000 0.000000 1.000000 -1.000000
      SOFFS 0.00000000000000 0.00000000000000
      PLAYRATE 1.00000000000000 1 0.00000000000000 -1
      CHANMODE 0
      GUID {DC4FA10E-15A5-4B8F-A60E-AE9F2D5AF98D}
      <SOURCE MIDI
        HASDATA 1 480 QN
        POOLEDEVTS {20609C2B-1A12-4550-BE21-3DFBA46B4F0B}
        E 0 90 63 40
        E 60 80 63 00
        E 3780 90 5c 40
        E 60 80 5c 00
        E 1860 90 3e 40
        E 60 80 3e 00
        E 3780 90 5d 40
        E 60 80 5d 00
        E 3780 90 5f 40
        E 60 80 5f 00
        E 3780 90 56 40
        E 60 80 56 00
        E 3780 90 5a 40
        E 60 80 5a 00
        E 3780 90 5a 40
        E 60 80 5a 00
        E 3780 90 3e 40
        E 60 80 3e 00
        E 3780 90 5a 40
        E 60 80 5a 00
        E 1860 90 5a 40
        E 60 80 5a 00
        E 1860 90 5c 40
        E 60 80 5c 00
        E 3780 90 58 40
        E 60 80 58 00
        E 1860 90 5a 40
        E 60 80 5a 00
        E 1860 90 23 40
        E 60 80 23 00
        E 1860 90 59 40
        E 60 80 59 00
        E 1860 90 5a 40
        E 60 80 5a 00
        E 1860 90 5c 40
        E 60 80 5c 00
        E 1860 90 5a 40
        E 60 80 5a 00
        E 1860 90 50 40
        E 60 80 50 00
        E 1860 90 0d 40
        E 60 80 0d 00
        E 3780 90 50 40
        E 60 80 50 00
        E 5700 90 44 40
        E 60 80 44 00
        E 1860 90 42 40
        E 60 80 42 00
        E 4740 90 4c 40
        E 60 80 4c 00
        E 2820 90 5a 40
        E 60 80 5a 00
        E 660 90 4c 40
        E 60 80 4c 00
        E 3060 90 4c 40
        E 60 80 4c 00
        E 3780 90 47 40
        E 60 80 47 00
        E 1380 90 23 40
        E 60 80 23 00
        E 2100 90 4c 40
        E 60 80 4c 00
        E 1620 90 5a 40
        E 60 80 5a 00
        E 420 90 29 40
        E 60 80 29 00
        E 1860 90 4c 40
        E 60 80 4c 00
        E 1380 90 50 40
        E 60 80 50 00
        E 2340 90 56 40
        E 60 80 56 00
        E 1860 90 5c 40
        E 60 80 5c 00
        E 1860 90 60 40
        E 60 80 60 00
        E 3780 90 5a 40
        E 60 80 5a 00
        E 1860 90 0d 40
        E 60 80 0d 00
        E 3780 90 2b 40
        E 60 80 2b 00
        E 1860 90 5a 40
        E 60 80 5a 00
        E 1860 90 52 40
        E 60 80 52 00
        E 1860 90 4d 40
        E 60 80 4d 00
        E 660 90 4c 40
        E 60 80 4c 00
        E 1140 90 4f 40
        E 60 80 4f 00
        E 660 90 50 40
        E 60 80 50 00
        E 1140 90 5d 40
        E 60 80 5d 00
        E 660 90 4c 40
        E 60 80 4c 00
        E 1140 90 56 40
        E 60 80 56 00
        E 660 90 5a 40
        E 60 80 5a 00
        E 1140 90 2b 40
        E 60 80 2b 00
        E 3780 90 42 40
        E 60 80 42 00
        E 3780 90 38 40
        E 60 80 38 00
        E 3780 90 42 40
        E 60 80 42 00
        E 3780 90 56 40
        E 60 80 56 00
        E 1860 90 5a 40
        E 60 80 5a 00
        E 1860 90 56 40
        E 60 80 56 00
        E 1620 90 48 40
        E 60 80 48 00
        E 2100 90 62 40
        E 60 80 62 00
        E 3780 90 5f 40
        E 60 80 5f 00
        E 3780 90 50 40
        E 60 80 50 00
        E 900 90 5d 40
        E 60 80 5d 00
        E 900 90 5a 40
        E 60 80 5a 00
        E 900 90 58 40
        E 60 80 58 00
        E 900 90 50 40
        E 60 80 50 00
        E 900 90 56 40
        E 60 80 56 00
        E 900 90 5a 40
        E 60 80 5a 00
        E 1859 90 33 40
        E 60 80 33 00
        GUID {2D654FA7-31E8-4548-84F7-71267163F851}
        IGNTEMPO 0 120.00000000 4 4
        SRCCOLOR 14
        VELLANE 131 128 60
        COLORMAP "C:\Program Files\REAPER (x64)\Data\color_maps\rockband_guitarbass.png"
      >
    >
  >
  <TRACK '{AF988523-B55C-46BD-9017-5664FE8C10E6}'
    NAME "LIGHTING"
    PEAKCOL 16576
    BEAT -1
    AUTOMODE 0
    VOLPAN 1.00000000000000 0.00000000000000 -1.00000000000000 -1.00000000000000 1.00000000000000
    MUTESOLO 1 0 0
    IPHASE 0
    ISBUS 2 -1
    BUSCOMP 0 0
    SHOWINMIX 1 0.666700 0.500000 1 0.500000 -1 -1 -1
    FREEMODE 0
    SEL 0
    REC 0 0 0 0 0 0 0
    VU 2
    TRACKHEIGHT 0 1
    INQ 0 0 0 0.5000000000 100 0 0 100
    NCHAN 2
    FX 1
    TRACKID {AF988523-B55C-46BD-9017-5664FE8C10E6}
    PERF 0
    MIDIOUT -1
    MAINSEND 1 0
    <ITEM
      POSITION 0.00000000000000
      SNAPOFFS 0.00000000000000
      LENGTH 144.00198399999999
      LOOP 0
      ALLTAKES 0
      SEL 0
      FADEIN 1 0.000000 0.000000 1 0
      FADEOUT 1 0.000000 0.000000 1 0
      MUTE 0
      IGUID {60ADB8D9-A248-409E-B5B0-A19074DB9E58}
      IID 13
      NAME "LIGHTING"
      VOLPAN 1.000000 0.000000 1.000000 -1.000000
      SOFFS 0.00000000000000 0.00000000000000
      PLAYRATE 1.00000000000000 1 0.00000000000000 -1
      CHANMODE 0
      GUID {BB5B9AD3-DDBE-4411-B146-356720B6C05E}
      <SOURCE MIDI
        HASDATA 1 480 QN
        POOLEDEVTS {DF31BF16-7C12-4AA0-B7B8-A2A0D32B4A03}
        E 0 90 47 40
        E 3840 90 1b 40
        E 0 80 1b 00
        E 0 90 0e 40
        E 120 80 0e 00
        E 0 90 11 40
        E 120 80 11 00
        E 0 90 0e 40
        E 120 80 0e 00
        E 0 90 11 40
        E 120 80 11 00
        E 0 90 0e 40
        E 120 80 0e 00
        E 0 90 11 40
        E 120 80 11 00
        E 0 90 0e 40
        E 120 80 0e 00
        E 0 90 11 40
        E 120 80 11 00
        E 0 90 0e 40
        E 120 80 0e 00
        E 0 90 11 40
        E 120 80 11 00
        E 0 90 0e 40
        E 120 80 0e 00
        E 0 90 11 40
        E 120 80 11 00
        E 0 90 0e 40
        E 120 80 0e 00
        E 0 90 11 40
        E 120 80 11 00
        E 0 90 0e 40
        E 120 80 0e 00
        E 0 90 11 40
        E 120 80 11 00
        E 0 90 0e 40
        E 14880 80 0e 00
        E 0 90 1b 40
        E 480 80 1b 00
        E 0 90 27 40
        E 0 90 20 40
        E 60 80 20 00
        E 900 90 1e 40
        E 60 80 1e 00
        E 900 90 1e 40
        E 60 80 1e 00
        E 900 90 1e 40
        E 60 80 1e 00
        E 900 90 1e 40
        E 60 80 1e 00
        E 900 90 1e 40
        E 60 80 1e 00
        E 900 90 1e 40
        E 60 80 1e 00
        E 900 90 1e 40
        E 60 80 1e 00
        E 900 90 1e 40
        E 60 80 1e 00
        E 900 90 1e 40
        E 60 80 1e 00
        E 900 90 1e 40
        E 60 80 1e 00
        E 900 90 1e 40
        E 60 80 1e 00
        E 900 90 1e 40
        E 60 80 1e 00
        E 900 90 1e 40
        E 60 80 1e 00
        E 900 90 1e 40
        E 60 80 1e 00
        E 900 90 1e 40
        E 60 80 1e 00
        E 900 90 1e 40
        E 60 80 1e 00
        E 900 90 1e 40
        E 60 80 1e 00
        E 900 90 1e 40
        E 60 80 1e 00
        E 900 90 1e 40
        E 60 80 1e 00
        E 900 90 1e 40
        E 60 80 1e 00
        E 900 90 1e 40
        E 60 80 1e 00
        E 900 90 1e 40
        E 60 80 1e 00
        E 900 90 1e 40
        E 60 80 1e 00
        E 900 90 1e 40
        E 60 80 1e 00
        E 900 90 1e 40
        E 60 80 1e 00
        E 900 90 1e 40
        E 60 80 1e 00
        E 900 90 1e 40
        E 60 80 1e 00
        E 900 90 1e 40
        E 60 80 1e 00
        E 900 90 1e 40
        E 60 80 1e 00
        E 900 90 1e 40
        E 0 80 27 00
        E 0 90 0e 40
        E 60 80 1e 00
        E 60 80 0e 00
        E 0 90 11 40
        E 120 80 11 00
        E 0 90 0e 40
        E 120 80 0e 00
        E 0 90 11 40
        E 120 80 11 00
        E 0 90 0e 40
        E 120 80 0e 00
        E 0 90 11 40
        E 120 80 11 00
        E 0 90 0e 40
        E 120 80 0e 00
        E 0 90 11 40
        E 120 90 1e 40
        E 0 80 11 00
        E 0 90 0e 40
        E 60 80 1e 00
        E 60 80 0e 00
        E 0 90 11 40
        E 120 80 11 00
        E 0 90 0e 40
        E 120 80 0e 00
        E 0 90 11 40
        E 120 80 11 00
        E 0 90 0e 40
        E 120 80 0e 00
        E 0 90 11 40
        E 120 80 11 00
        E 0 90 0e 40
        E 120 80 0e 00
        E 0 90 11 40
        E 120 90 20 40
        E 0 80 11 00
        E 0 90 24 40
        E 60 80 20 00
        E 420 90 1e 40
        E 60 80 1e 00
        E 420 90 1e 40
        E 60 80 1e 00
        E 420 90 1e 40
        E 60 80 1e 00
        E 420 90 1e 40
        E 60 80 1e 00
        E 420 90 1e 40
        E 60 80 1e 00
        E 420 90 1e 40
        E 60 80 1e 00
        E 420 90 1e 40
        E 60 80 1e 00
        E 420 90 1e 40
        E 60 80 1e 00
        E 420 90 1e 40
        E 60 80 1e 00
        E 420 90 1e 40
        E 60 80 1e 00
        E 420 90 1e 40
        E 60 80 1e 00
        E 420 90 1e 40
        E 60 80 1e 00
        E 420 90 1e 40
        E 60 80 1e 00
        E 420 90 1e 40
        E 60 80 1e 00
        E 420 90 1e 40
        E 60 80 1e 00
        E 420 90 1e 40
        E 60 80 1e 00
        E 420 90 1e 40
        E 60 80 1e 00
        E 420 90 1e 40
        E 60 80 1e 00
        E 420 90 1e 40
        E 60 80 1e 00
        E 420 90 1e 40
        E 60 80 1e 00
        E 420 90 1e 40
        E 60 80 1e 00
        E 420 90 1e 40
        E 60 80 1e 00
        E 420 90 1e 40
        E 60 80 1e 00
        E 420 90 1e 40
        E 60 80 1e 00
        E 420 90 1e 40
        E 60 80 1e 00
        E 420 90 1e 40
        E 60 80 1e 00
        E 420 90 1e 40
        E 60 80 1e 00
        E 420 90 1e 40
        E 60 80 1e 00
        E 420 90 1e 40
        E 60 80 1e 00
        E 420 90 1e 40
        E 60 80 1e 00
        E 420 90 1e 40
        E 0 80 47 00
        E 60 80 1e 00
        E 420 90 20 40
        E 0 80 24 00
        E 0 90 27 40
        E 0 90 3e 40
        E 60 80 20 00
        E 900 90 1e 40
        E 60 80 1e 00
        E 900 90 1e 40
        E 60 80 1e 00
        E 900 90 1e 40
        E 60 80 1e 00
        E 900 90 1e 40
        E 60 80 1e 00
        E 900 90 1e 40
        E 60 80 1e 00
        E 900 90 1e 40
        E 60 80 1e 00
        E 900 90 1e 40
        E 60 80 1e 00
        E 900 90 1e 40
        E 60 80 1e 00
        E 900 90 1e 40
        E 60 80 1e 00
        E 900 90 1e 40
        E 60 80 1e 00
        E 900 90 1e 40
        E 60 80 1e 00
        E 900 90 1e 40
        E 60 80 1e 00
        E 900 90 1e 40
        E 60 80 1e 00
        E 900 90 1e 40
        E 60 80 1e 00
        E 900 90 1e 40
        E 60 80 1e 00
        E 900 90 1e 40
        E 60 80 1e 00
        E 900 90 1e 40
        E 60 80 1e 00
        E 900 90 1e 40
        E 60 80 1e 00
        E 900 90 1e 40
        E 60 80 1e 00
        E 900 90 1e 40
        E 60 80 1e 00
        E 900 90 1e 40
        E 60 80 1e 00
        E 900 90 1e 40
        E 60 80 1e 00
        E 900 90 1e 40
        E 60 80 1e 00
        E 900 90 1e 40
        E 60 80 1e 00
        E 900 90 1e 40
        E 60 80 1e 00
        E 900 90 1e 40
        E 60 80 1e 00
        E 900 90 1e 40
        E 60 80 1e 00
        E 900 90 1e 40
        E 60 80 1e 00
        E 900 90 1e 40
        E 60 80 1e 00
        E 900 90 1e 40
        E 0 80 27 00
        E 0 90 0e 40
        E 60 80 1e 00
        E 60 80 0e 00
        E 0 90 11 40
        E 120 80 11 00
        E 0 90 0e 40
        E 120 80 0e 00
        E 0 90 11 40
        E 120 80 11 00
        E 0 90 0e 40
        E 120 80 0e 00
        E 0 90 11 40
        E 120 80 11 00
        E 0 90 0e 40
        E 120 80 0e 00
        E 0 90 11 40
        E 120 90 1e 40
        E 0 80 11 00
        E 0 90 0e 40
        E 60 80 1e 00
        E 60 80 0e 00
        E 0 90 11 40
        E 120 80 11 00
        E 0 90 0e 40
        E 120 80 0e 00
        E 0 90 11 40
        E 120 80 11 00
        E 0 90 0e 40
        E 0 80 3e 00
        E 120 80 0e 00
        E 0 90 11 40
        E 120 80 11 00
        E 0 90 0e 40
        E 120 80 0e 00
        E 0 90 11 40
        E 120 90 20 40
        E 0 80 11 00
        E 0 90 24 40
        E 0 90 47 40
        E 60 80 20 00
        E 420 90 1e 40
        E 60 80 1e 00
        E 420 90 1e 40
        E 60 80 1e 00
        E 420 90 1e 40
        E 60 80 1e 00
        E 420 90 1e 40
        E 60 80 1e 00
        E 420 90 1e 40
        E 60 80 1e 00
        E 420 90 1e 40
        E 60 80 1e 00
        E 420 90 1e 40
        E 60 80 1e 00
        E 420 90 1e 40
        E 60 80 1e 00
        E 420 90 1e 40
        E 60 80 1e 00
        E 420 90 1e 40
        E 60 80 1e 00
        E 420 90 1e 40
        E 60 80 1e 00
        E 420 90 1e 40
        E 60 80 1e 00
        E 420 90 1e 40
        E 60 80 1e 00
        E 420 90 1e 40
        E 60 80 1e 00
        E 420 90 1e 40
        E 60 80 1e 00
        E 420 90 1e 40
        E 60 80 1e 00
        E 420 90 1e 40
        E 60 80 1e 00
        E 420 90 1e 40
        E 60 80 1e 00
        E 420 90 1e 40
        E 60 80 1e 00
        E 420 90 1e 40
        E 60 80 1e 00
        E 420 90 1e 40
        E 60 80 1e 00
        E 420 90 1e 40
        E 60 80 1e 00
        E 420 90 1e 40
        E 60 80 1e 00
        E 420 90 1e 40
        E 60 80 1e 00
        E 420 90 1e 40
        E 60 80 1e 00
        E 420 90 1e 40
        E 60 80 1e 00
        E 420 90 1e 40
        E 60 80 1e 00
        E 420 90 1e 40
        E 60 80 1e 00
        E 420 90 1e 40
        E 60 80 1e 00
        E 420 90 1e 40
        E 60 80 1e 00
        E 420 90 1e 40
        E 0 80 47 00
        E 60 80 1e 00
        E 420 90 20 40
        E 0 80 24 00
        E 0 90 25 40
        E 0 90 44 40
        E 60 80 20 00
        E 900 90 1e 40
        E 60 80 1e 00
        E 900 90 1e 40
        E 60 80 1e 00
        E 900 90 1e 40
        E 60 80 1e 00
        E 900 90 1e 40
        E 60 80 1e 00
        E 900 90 1e 40
        E 60 80 1e 00
        E 900 90 1e 40
        E 60 80 1e 00
        E 900 90 1e 40
        E 60 80 1e 00
        E 900 90 1e 40
        E 60 80 1e 00
        E 900 90 1e 40
        E 60 80 1e 00
        E 900 90 1e 40
        E 60 80 1e 00
        E 900 90 1e 40
        E 60 80 1e 00
        E 900 90 1e 40
        E 60 80 1e 00
        E 900 90 1e 40
        E 60 80 1e 00
        E 900 90 1e 40
        E 60 80 1e 00
        E 900 90 1e 40
        E 60 80 1e 00
        E 900 90 1e 40
        E 60 80 1e 00
        E 900 90 1e 40
        E 60 80 1e 00
        E 900 90 1e 40
        E 60 80 1e 00
        E 900 90 1e 40
        E 60 80 1e 00
        E 900 90 1e 40
        E 60 80 1e 00
        E 900 90 1e 40
        E 60 80 1e 00
        E 900 90 1e 40
        E 60 80 1e 00
        E 900 90 1e 40
        E 60 80 1e 00
        E 900 90 1e 40
        E 60 80 1e 00
        E 900 90 1e 40
        E 60 80 1e 00
        E 900 90 1e 40
        E 60 80 1e 00
        E 900 90 1e 40
        E 60 80 1e 00
        E 900 90 1e 40
        E 60 80 1e 00
        E 900 90 1e 40
        E 60 80 1e 00
        E 900 90 1e 40
        E 60 80 1e 00
        E 900 90 1e 40
        E 60 80 1e 00
        E 180 80 25 00
        E 0 90 0e 40
        E 120 80 0e 00
        E 0 90 11 40
        E 120 80 11 00
        E 0 90 25 40
        E 0 80 25 00
        E 0 90 0e 40
        E 0 80 44 00
        E 120 80 0e 00
        E 0 90 11 40
        E 120 80 11 00
        E 0 90 0e 40
        E 120 80 0e 00
        E 0 90 11 40
        E 120 90 20 40
        E 0 80 11 00
        E 0 90 24 40
        E 0 90 47 40
        E 60 80 20 00
        E 0 80 24 00
        E 420 90 1e 40
        E 60 80 1e 00
        E 420 90 1e 40
        E 60 80 1e 00
        E 420 90 1e 40
        E 60 80 1e 00
        E 420 90 1e 40
        E 60 80 1e 00
        E 420 90 1e 40
        E 60 80 1e 00
        E 420 90 1e 40
        E 60 80 1e 00
        E 420 90 1e 40
        E 60 80 1e 00
        E 420 90 1e 40
        E 60 80 1e 00
        E 420 90 1e 40
        E 60 80 1e 00
        E 420 90 1e 40
        E 60 80 1e 00
        E 420 90 1e 40
        E 60 80 1e 00
        E 420 90 1e 40
        E 60 80 1e 00
        E 420 90 1e 40
        E 60 80 1e 00
        E 420 90 1e 40
        E 60 80 1e 00
        E 420 90 1e 40
        E 60 80 1e 00
        E 420 90 1e 40
        E 60 80 1e 00
        E 420 90 1e 40
        E 60 80 1e 00
        E 420 90 1e 40
        E 60 80 1e 00
        E 420 90 1e 40
        E 60 80 1e 00
        E 420 90 1e 40
        E 60 80 1e 00
        E 420 90 1e 40
        E 60 80 1e 00
        E 420 90 1e 40
        E 60 80 1e 00
        E 420 90 1e 40
        E 60 80 1e 00
        E 420 90 1e 40
        E 60 80 1e 00
        E 420 90 1e 40
        E 60 80 1e 00
        E 420 90 1e 40
        E 60 80 1e 00
        E 420 90 1e 40
        E 60 80 1e 00
        E 420 90 1e 40
        E 60 80 1e 00
        E 420 90 1e 40
        E 60 80 1e 00
        E 420 90 1e 40
        E 60 80 1e 00
        E 420 90 1e 40
        E 60 80 1e 00
        E 419 80 47 00
        GUID {2414E3D9-9187-4B38-8990-188DD935561F}
        IGNTEMPO 0 120.00000000 4 4
        SRCCOLOR 15
        VELLANE 131 128 60
        COLORMAP "C:\Program Files\REAPER (x64)\Data\color_maps\rockband_guitarbass.png"
      >
    >
  >
  <TRACK '{51D7BA08-D360-4014-9EBE-0C890F9C5562}'
    NAME "BEAT"
    PEAKCOL 16576
    BEAT -1
    AUTOMODE 0
    VOLPAN 1.00000000000000 0.00000000000000 -1.00000000000000 -1.00000000000000 1.00000000000000
    MUTESOLO 0 0 0
    IPHASE 0
    ISBUS 0 0
    BUSCOMP 0 0
    SHOWINMIX 1 0.666700 0.500000 1 0.500000 -1 -1 -1
    FREEMODE 0
    SEL 0
    REC 0 0 0 0 0 0 0
    VU 2
    TRACKHEIGHT 0 0
    INQ 0 0 0 0.5000000000 100 0 0 100
    NCHAN 2
    FX 1
    TRACKID {51D7BA08-D360-4014-9EBE-0C890F9C5562}
    PERF 0
    MIDIOUT -1
    <MIDINOTENAMES
      0 13 "Up Beats"
      0 12 "Downbeat"
    >
    MAINSEND 1 0
    <FXCHAIN
      SHOW 0
      LASTSEL 0
      DOCKED 0
    >
    <ITEM
      POSITION 0.00000000000000
      SNAPOFFS 0.00000000000000
      LENGTH 144.00200000000001
      LOOP 0
      ALLTAKES 0
      SEL 0
      FADEIN 1 0.000000 0.000000 1 0
      FADEOUT 1 0.000000 0.000000 1 0
      MUTE 0
      IGUID {93EBA251-DCC9-4871-B2FA-E8B1D2F08557}
      IID 11
      NAME "BEAT"
      VOLPAN 1.000000 0.000000 1.000000 -1.000000
      SOFFS 0.00000000000000 0.00000000000000
      PLAYRATE 1.00000000000000 1 0.00000000000000 -1
      CHANMODE 0
      GUID {01494409-C9BD-4C4E-8224-46DDCE32C5BE}
      <SOURCE MIDI
        HASDATA 1 480 QN
        POOLEDEVTS {93E2A4DC-3394-4000-B6E4-7BCDC0FF00DB}
        <X 0 0
          /wNCRUFU
        >
        E 0 96 0c 64
        E 120 86 0c 00
        E 360 96 0d 64
        E 120 86 0d 00
        E 360 96 0d 64
        E 120 86 0d 00
        E 360 96 0d 64
        E 120 86 0d 00
        E 360 96 0c 64
        E 120 86 0c 00
        E 360 96 0d 64
        E 120 86 0d 00
        E 360 96 0d 64
        E 120 86 0d 00
        E 360 96 0d 64
        E 120 86 0d 00
        E 360 96 0c 64
        E 120 86 0c 00
        E 360 96 0d 64
        E 120 86 0d 00
        E 360 96 0d 64
        E 120 86 0d 00
        E 360 96 0d 64
        E 120 86 0d 00
        E 360 96 0c 64
        E 120 86 0c 00
        E 360 96 0d 64
        E 120 86 0d 00
        E 360 96 0d 64
        E 120 86 0d 00
        E 360 96 0d 64
        E 120 86 0d 00
        E 360 96 0c 64
        E 120 86 0c 00
        E 360 96 0d 64
        E 120 86 0d 00
        E 360 96 0d 64
        E 120 86 0d 00
        E 360 96 0d 64
        E 120 86 0d 00
        E 360 96 0c 64
        E 120 86 0c 00
        E 360 96 0d 64
        E 120 86 0d 00
        E 360 96 0d 64
        E 120 86 0d 00
        E 360 96 0d 64
        E 120 86 0d 00
        E 360 96 0c 64
        E 120 86 0c 00
        E 360 96 0d 64
        E 120 86 0d 00
        E 360 96 0d 64
        E 120 86 0d 00
        E 360 96 0d 64
        E 120 86 0d 00
        E 360 96 0c 64
        E 120 86 0c 00
        E 360 96 0d 64
        E 120 86 0d 00
        E 360 96 0d 64
        E 120 86 0d 00
        E 360 96 0d 64
        E 120 86 0d 00
        E 360 96 0c 64
        E 120 86 0c 00
        E 360 96 0d 64
        E 120 86 0d 00
        E 360 96 0d 64
        E 120 86 0d 00
        E 360 96 0d 64
        E 120 86 0d 00
        E 360 96 0c 64
        E 120 86 0c 00
        E 360 96 0d 64
        E 120 86 0d 00
        E 360 96 0d 64
        E 120 86 0d 00
        E 360 96 0d 64
        E 120 86 0d 00
        E 360 96 0c 64
        E 120 86 0c 00
        E 360 96 0d 64
        E 120 86 0d 00
        E 360 96 0d 64
        E 120 86 0d 00
        E 360 96 0d 64
        E 120 86 0d 00
        E 360 96 0c 64
        E 120 86 0c 00
        E 360 96 0d 64
        E 120 86 0d 00
        E 360 96 0d 64
        E 120 86 0d 00
        E 360 96 0d 64
        E 120 86 0d 00
        E 360 96 0c 64
        E 120 86 0c 00
        E 360 96 0d 64
        E 120 86 0d 00
        E 360 96 0d 64
        E 120 86 0d 00
        E 360 96 0d 64
        E 120 86 0d 00
        E 360 96 0c 64
        E 120 86 0c 00
        E 360 96 0d 64
        E 120 86 0d 00
        E 360 96 0d 64
        E 120 86 0d 00
        E 360 96 0d 64
        E 120 86 0d 00
        E 360 96 0c 64
        E 120 86 0c 00
        E 360 96 0d 64
        E 120 86 0d 00
        E 360 96 0d 64
        E 120 86 0d 00
        E 360 96 0d 64
        E 120 86 0d 00
        E 360 96 0c 64
        E 120 86 0c 00
        E 360 96 0d 64
        E 120 86 0d 00
        E 360 96 0d 64
        E 120 86 0d 00
        E 360 96 0d 64
        E 120 86 0d 00
        E 360 96 0c 64
        E 120 86 0c 00
        E 360 96 0d 64
        E 120 86 0d 00
        E 360 96 0d 64
        E 120 86 0d 00
        E 360 96 0d 64
        E 120 86 0d 00
        E 360 96 0c 64
        E 120 86 0c 00
        E 360 96 0d 64
        E 120 86 0d 00
        E 360 96 0d 64
        E 120 86 0d 00
        E 360 96 0d 64
        E 120 86 0d 00
        E 360 96 0c 64
        E 120 86 0c 00
        E 360 96 0d 64
        E 120 86 0d 00
        E 360 96 0d 64
        E 120 86 0d 00
        E 360 96 0d 64
        E 120 86 0d 00
        E 360 96 0c 64
        E 120 86 0c 00
        E 360 96 0d 64
        E 120 86 0d 00
        E 360 96 0d 64
        E 120 86 0d 00
        E 360 96 0d 64
        E 120 86 0d 00
        E 360 96 0c 64
        E 120 86 0c 00
        E 360 96 0d 64
        E 120 86 0d 00
        E 360 96 0d 64
        E 120 86 0d 00
        E 360 96 0d 64
        E 120 86 0d 00
        E 360 96 0c 64
        E 120 86 0c 00
        E 360 96 0d 64
        E 120 86 0d 00
        E 360 96 0d 64
        E 120 86 0d 00
        E 360 96 0d 64
        E 120 86 0d 00
        E 360 96 0c 64
        E 120 86 0c 00
        E 360 96 0d 64
        E 120 86 0d 00
        E 360 96 0d 64
        E 120 86 0d 00
        E 360 96 0d 64
        E 120 86 0d 00
        E 360 96 0c 64
        E 120 86 0c 00
        E 360 96 0d 64
        E 120 86 0d 00
        E 360 96 0d 64
        E 120 86 0d 00
        E 360 96 0d 64
        E 120 86 0d 00
        E 360 96 0c 64
        E 120 86 0c 00
        E 360 96 0d 64
        E 120 86 0d 00
        E 360 96 0d 64
        E 120 86 0d 00
        E 360 96 0d 64
        E 120 86 0d 00
        E 360 96 0c 64
        E 120 86 0c 00
        E 360 96 0d 64
        E 120 86 0d 00
        E 360 96 0d 64
        E 120 86 0d 00
        E 360 96 0d 64
        E 120 86 0d 00
        E 360 96 0c 64
        E 120 86 0c 00
        E 360 96 0d 64
        E 120 86 0d 00
        E 360 96 0d 64
        E 120 86 0d 00
        E 360 96 0d 64
        E 120 86 0d 00
        E 360 96 0c 64
        E 120 86 0c 00
        E 360 96 0d 64
        E 120 86 0d 00
        E 360 96 0d 64
        E 120 86 0d 00
        E 360 96 0d 64
        E 120 86 0d 00
        E 360 96 0c 64
        E 120 86 0c 00
        E 360 96 0d 64
        E 120 86 0d 00
        E 360 96 0d 64
        E 120 86 0d 00
        E 360 96 0d 64
        E 120 86 0d 00
        E 360 96 0c 64
        E 120 86 0c 00
        E 360 96 0d 64
        E 120 86 0d 00
        E 360 96 0d 64
        E 120 86 0d 00
        E 360 96 0d 64
        E 120 86 0d 00
        E 360 96 0c 64
        E 120 86 0c 00
        E 360 96 0d 64
        E 120 86 0d 00
        E 360 96 0d 64
        E 120 86 0d 00
        E 360 96 0d 64
        E 120 86 0d 00
        E 360 96 0c 64
        E 120 86 0c 00
        E 360 96 0d 64
        E 120 86 0d 00
        E 360 96 0d 64
        E 120 86 0d 00
        E 360 96 0d 64
        E 120 86 0d 00
        E 360 96 0c 64
        E 120 86 0c 00
        E 360 96 0d 64
        E 120 86 0d 00
        E 360 96 0d 64
        E 120 86 0d 00
        E 360 96 0d 64
        E 120 86 0d 00
        E 360 96 0c 64
        E 120 86 0c 00
        E 360 96 0d 64
        E 120 86 0d 00
        E 360 96 0d 64
        E 120 86 0d 00
        E 360 96 0d 64
        E 120 86 0d 00
        E 360 96 0c 64
        E 120 86 0c 00
        E 360 96 0d 64
        E 120 86 0d 00
        E 360 96 0d 64
        E 120 86 0d 00
        E 360 96 0d 64
        E 120 86 0d 00
        E 360 96 0c 64
        E 120 86 0c 00
        E 360 96 0d 64
        E 120 86 0d 00
        E 360 96 0d 64
        E 120 86 0d 00
        E 360 96 0d 64
        E 120 86 0d 00
        E 360 96 0c 64
        E 120 86 0c 00
        E 360 96 0d 64
        E 120 86 0d 00
        E 360 96 0d 64
        E 120 86 0d 00
        E 360 96 0d 64
        E 120 86 0d 00
        E 360 96 0c 64
        E 120 86 0c 00
        E 360 96 0d 64
        E 120 86 0d 00
        E 360 96 0d 64
        E 120 86 0d 00
        E 360 96 0d 64
        E 120 86 0d 00
        E 360 96 0c 64
        E 120 86 0c 00
        E 360 96 0d 64
        E 120 86 0d 00
        E 360 96 0d 64
        E 120 86 0d 00
        E 360 96 0d 64
        E 120 86 0d 00
        E 360 96 0c 64
        E 120 86 0c 00
        E 360 96 0d 64
        E 120 86 0d 00
        E 360 96 0d 64
        E 120 86 0d 00
        E 360 96 0d 64
        E 120 86 0d 00
        E 360 96 0c 64
        E 120 86 0c 00
        E 360 96 0d 64
        E 120 86 0d 00
        E 360 96 0d 64
        E 120 86 0d 00
        E 360 96 0d 64
        E 120 86 0d 00
        E 360 96 0c 64
        E 120 86 0c 00
        E 360 96 0d 64
        E 120 86 0d 00
        E 360 96 0d 64
        E 120 86 0d 00
        E 360 96 0d 64
        E 120 86 0d 00
        E 360 96 0c 64
        E 120 86 0c 00
        E 360 96 0d 64
        E 120 86 0d 00
        E 360 96 0d 64
        E 120 86 0d 00
        E 360 96 0d 64
        E 120 86 0d 00
        E 360 96 0c 64
        E 120 86 0c 00
        E 360 96 0d 64
        E 120 86 0d 00
        E 360 96 0d 64
        E 120 86 0d 00
        E 360 96 0d 64
        E 120 86 0d 00
        E 360 96 0c 64
        E 120 86 0c 00
        E 360 96 0d 64
        E 120 86 0d 00
        E 360 96 0d 64
        E 120 86 0d 00
        E 360 96 0d 64
        E 120 86 0d 00
        E 360 96 0c 64
        E 120 86 0c 00
        E 360 96 0d 64
        E 120 86 0d 00
        E 360 96 0d 64
        E 120 86 0d 00
        E 360 96 0d 64
        E 120 86 0d 00
        E 360 96 0c 64
        E 120 86 0c 00
        E 360 96 0d 64
        E 120 86 0d 00
        E 360 96 0d 64
        E 120 86 0d 00
        E 360 96 0d 64
        E 120 86 0d 00
        E 360 96 0c 64
        E 120 86 0c 00
        E 360 96 0d 64
        E 120 86 0d 00
        E 360 96 0d 64
        E 120 86 0d 00
        E 360 96 0d 64
        E 120 86 0d 00
        E 360 96 0c 64
        E 120 86 0c 00
        E 360 96 0d 64
        E 120 86 0d 00
        E 360 96 0d 64
        E 120 86 0d 00
        E 360 96 0d 64
        E 120 86 0d 00
        E 360 96 0c 64
        E 120 86 0c 00
        E 360 96 0d 64
        E 120 86 0d 00
        E 360 96 0d 64
        E 120 86 0d 00
        E 360 96 0d 64
        E 120 86 0d 00
        E 360 96 0c 64
        E 120 86 0c 00
        E 360 96 0d 64
        E 120 86 0d 00
        E 360 96 0d 64
        E 120 86 0d 00
        E 360 96 0d 64
        E 120 86 0d 00
        E 360 96 0c 64
        E 120 86 0c 00
        E 360 96 0d 64
        E 120 86 0d 00
        E 360 96 0d 64
        E 120 86 0d 00
        E 360 96 0d 64
        E 120 86 0d 00
        E 360 96 0c 64
        E 120 86 0c 00
        E 360 96 0d 64
        E 120 86 0d 00
        E 360 96 0d 64
        E 120 86 0d 00
        E 360 96 0d 64
        E 120 86 0d 00
        E 360 96 0c 64
        E 120 86 0c 00
        E 360 96 0d 64
        E 120 86 0d 00
        E 360 96 0d 64
        E 120 86 0d 00
        E 360 96 0d 64
        E 120 86 0d 00
        E 360 96 0c 64
        E 120 86 0c 00
        E 360 96 0d 64
        E 120 86 0d 00
        E 360 96 0d 64
        E 120 86 0d 00
        E 360 96 0d 64
        E 120 86 0d 00
        E 360 96 0c 64
        E 120 86 0c 00
        E 360 96 0d 64
        E 120 86 0d 00
        E 360 96 0d 64
        E 120 86 0d 00
        E 360 96 0d 64
        E 120 86 0d 00
        E 360 96 0c 64
        E 120 86 0c 00
        E 360 96 0d 64
        E 120 86 0d 00
        E 360 96 0d 64
        E 120 86 0d 00
        E 360 96 0d 64
        E 120 86 0d 00
        E 360 96 0c 64
        E 120 86 0c 00
        E 360 96 0d 64
        E 120 86 0d 00
        E 360 96 0d 64
        E 120 86 0d 00
        E 360 96 0d 64
        E 120 86 0d 00
        E 360 96 0c 64
        E 120 86 0c 00
        E 360 96 0d 64
        E 120 86 0d 00
        E 360 96 0d 64
        E 120 86 0d 00
        E 360 96 0d 64
        E 120 86 0d 00
        E 360 96 0c 64
        E 120 86 0c 00
        E 360 96 0d 64
        E 120 86 0d 00
        E 360 96 0d 64
        E 120 86 0d 00
        E 360 96 0d 64
        E 120 86 0d 00
        E 360 96 0c 64
        E 120 86 0c 00
        E 360 96 0d 64
        E 120 86 0d 00
        E 360 96 0d 64
        E 120 86 0d 00
        E 360 96 0d 64
        E 120 86 0d 00
        E 360 96 0c 64
        E 120 86 0c 00
        E 360 96 0d 64
        E 120 86 0d 00
        E 360 96 0d 64
        E 120 86 0d 00
        E 360 96 0d 64
        E 120 86 0d 00
        E 360 96 0c 64
        E 120 86 0c 00
        E 360 96 0d 64
        E 120 86 0d 00
        E 360 96 0d 64
        E 120 86 0d 00
        E 360 96 0d 64
        E 120 86 0d 00
        E 360 96 0c 64
        E 120 86 0c 00
        E 360 96 0d 64
        E 120 86 0d 00
        E 360 96 0d 64
        E 120 86 0d 00
        E 360 96 0d 64
        E 120 86 0d 00
        E 360 96 0c 64
        E 120 86 0c 00
        E 360 96 0d 64
        E 120 86 0d 00
        E 360 96 0d 64
        E 120 86 0d 00
        E 360 96 0d 64
        E 120 86 0d 00
        E 360 96 0c 64
        E 120 86 0c 00
        E 360 96 0d 64
        E 120 86 0d 00
        E 360 96 0d 64
        E 120 86 0d 00
        E 360 96 0d 64
        E 120 86 0d 00
        E 360 96 0c 64
        E 120 86 0c 00
        E 360 96 0d 64
        E 120 86 0d 00
        E 360 96 0d 64
        E 120 86 0d 00
        E 360 96 0d 64
        E 120 86 0d 00
        E 360 96 0c 64
        E 120 86 0c 00
        E 360 96 0d 64
        E 120 86 0d 00
        E 360 96 0d 64
        E 120 86 0d 00
        E 360 96 0d 64
        E 120 86 0d 00
        E 360 96 0c 64
        E 120 86 0c 00
        E 360 96 0d 64
        E 120 86 0d 00
        E 360 96 0d 64
        E 120 86 0d 00
        E 360 96 0d 64
        E 120 86 0d 00
        E 360 96 0c 64
        E 120 86 0c 00
        E 360 96 0d 64
        E 120 86 0d 00
        E 360 96 0d 64
        E 120 86 0d 00
        E 360 96 0d 64
        E 120 86 0d 00
        E 360 96 0c 64
        E 120 86 0c 00
        E 360 96 0d 64
        E 120 86 0d 00
        E 360 96 0d 64
        E 120 86 0d 00
        E 360 96 0d 64
        E 120 86 0d 00
        E 360 96 0c 64
        E 120 86 0c 00
        E 360 96 0d 64
        E 120 86 0d 00
        E 360 96 0d 64
        E 120 86 0d 00
        E 360 96 0d 64
        E 120 86 0d 00
        E 360 96 0c 64
        E 120 86 0c 00
        E 360 96 0d 64
        E 120 86 0d 00
        E 360 96 0d 64
        E 120 86 0d 00
        E 360 96 0d 64
        E 120 86 0d 00
        E 360 96 0c 64
        E 120 86 0c 00
        E 360 96 0d 64
        E 120 86 0d 00
        E 360 96 0d 64
        E 120 86 0d 00
        E 360 96 0d 64
        E 120 86 0d 00
        E 360 96 0c 64
        E 120 86 0c 00
        E 360 96 0d 64
        E 120 86 0d 00
        E 360 96 0d 64
        E 120 86 0d 00
        E 360 96 0d 64
        E 120 86 0d 00
        E 360 96 0c 64
        E 120 86 0c 00
        E 360 96 0d 64
        E 120 86 0d 00
        E 360 96 0d 64
        E 120 86 0d 00
        E 360 96 0d 64
        E 120 86 0d 00
        E 360 96 0c 64
        E 120 86 0c 00
        E 360 96 0d 64
        E 120 86 0d 00
        E 360 96 0d 64
        E 120 86 0d 00
        E 360 96 0d 64
        E 120 86 0d 00
        E 360 96 0c 64
        E 120 86 0c 00
        E 360 96 0d 64
        E 120 86 0d 00
        E 360 96 0d 64
        E 120 86 0d 00
        E 360 96 0d 64
        E 120 86 0d 00
        E 360 96 0c 64
        E 120 86 0c 00
        E 360 96 0d 64
        E 120 86 0d 00
        E 360 96 0d 64
        E 120 86 0d 00
        E 360 96 0d 64
        E 120 86 0d 00
        E 360 96 0c 64
        E 120 86 0c 00
        E 360 96 0d 64
        E 120 86 0d 00
        E 360 96 0d 64
        E 120 86 0d 00
        E 360 96 0d 64
        E 120 86 0d 00
        E 360 96 0c 64
        E 120 86 0c 00
        E 360 96 0d 64
        E 120 86 0d 00
        E 360 96 0d 64
        E 120 86 0d 00
        E 360 96 0d 64
        E 120 86 0d 00
        E 360 96 0c 64
        E 120 86 0c 00
        E 360 96 0d 64
        E 120 86 0d 00
        E 360 96 0d 64
        E 120 86 0d 00
        E 360 96 0d 64
        E 120 86 0d 00
        E 360 96 0c 64
        E 120 86 0c 00
        E 360 96 0d 64
        E 120 86 0d 00
        E 360 96 0d 64
        E 120 86 0d 00
        E 360 96 0d 64
        E 120 86 0d 00
        E 360 96 0c 64
        E 120 86 0c 00
        E 360 96 0d 64
        E 120 86 0d 00
        E 360 96 0d 64
        E 120 86 0d 00
        E 360 96 0d 64
        E 120 86 0d 00
        E 360 b0 7b 00
        GUID {202CFF8E-09BC-461A-87F0-9DA2489BDF39}
        IGNTEMPO 0 120.00000000 4 4
        SRCCOLOR 13
        VELLANE 131 128 60
        COLORMAP "C:\Program Files\REAPER (x64)\Data\color_maps\rockband_guitarbass.png"
        CFGEDITVIEW -1170.534793 69.848485 0 48 0 0 0
        CFGEDIT 1 1 0 1 1 0 1 1 1 1 1 0.25000000 -8 -8 1544 872 0 2 1 1 0.00000000 0 1 0 0 0.500000 0 0 1.000000 64
        KEYSNAP 0 6 "102030050700" 0 "Pentatonic"
        EVTFILTER 0 -1 -1 -1 -1 0 1 0 0 -1.00000000 -1.00000000
      >
    >
  >
  <TRACK '{E6D0276D-E050-4B3F-AADC-8EF107F8E1B0}'
    NAME "backing"
    PEAKCOL 16576
    BEAT -1
    AUTOMODE 0
    VOLPAN 1.00000000000000 0.00000000000000 -1.00000000000000 -1.00000000000000 1.00000000000000
    MUTESOLO 0 0 0
    IPHASE 0
    ISBUS 0 0
    BUSCOMP 0 0
    SHOWINMIX 1 0.666700 0.500000 1 0.500000 -1 -1 -1
    FREEMODE 0
    SEL 0
    REC 0 0 0 0 0 0 0
    VU 2
    TRACKHEIGHT 0 0
    INQ 0 0 0 0.5000000000 100 0 0 100
    NCHAN 2
    FX 1
    TRACKID {E6D0276D-E050-4B3F-AADC-8EF107F8E1B0}
    PERF 0
    MIDIOUT -1
    MAINSEND 1 0
    <ITEM
      POSITION 0.00000000000000
      SNAPOFFS 0.00000000000000
      LENGTH 144.00200000000001
      LOOP 0
      ALLTAKES 0
      SEL 0
      FADEIN 1 0.000000 0.000000 1 0
      FADEOUT 1 0.000000 0.000000 1 0
      MUTE 0
      IGUID {6819E134-942F-4EFB-8BB1-BA253ED1ABF6}
      IID 12
      NAME "backing.wav"
      VOLPAN 1.000000 0.000000 1.000000 -1.000000
      SOFFS 0.00000000000000
      PLAYRATE 1.00000000000000 1 0.00000000000000 -1
      CHANMODE 0
      GUID {10B410C5-5B26-4813-8D01-847F402A95A9}
      <SOURCE WAVE
        FILE "C:\Users\Ruggery\Documents\Visual Studio Code\Projects\ruggy-customs-projects\songs\patins\wav\backing.wav"
      >
    >
  >
  <EXTENSIONS
  >
>
