<REAPER_PROJECT 0.1 "4.22/x64"
  RIPPLE 0
  GROUPOVERRIDE 0 0 0
  AUTOXFADE 1
  ENVATTACH 1
  MIXERUIFLAGS 11 48
  PEAKGAIN 1.00000000000000
  FEEDBACK 0
  PANLAW 1.00000000000000
  PROJOFFS 0.00000000000000 0
  MAXPROJLEN 0 600.00000000000000
  GRID 3199 8 1.00000000000000 8 1.00000000000000 0
  TIMEMODE 1 0 -1
  PANMODE 3
  CURSOR 0.00000000000000
  ZOOM 30.92062667521614 0 0
  VZOOMEX 6
  USE_REC_CFG 0
  RECMODE 1
  SMPTESYNC 0 23.976024 100 40 1000 300 0 0.000000 1
  LOOP 1
  LOOPGRAN 0 4.00000000000000
  RECORD_PATH "" ""
  <RECORD_CFG
    ZXZhdxAD
  >
  <APPLYFX_CFG
  >
  RENDER_FILE ""
  RENDER_PATTERN ""
  RENDER_FMT 0 2 0
  RENDER_1X 0
  RENDER_RANGE 1 0.00000000000000 0.00000000000000
  RENDER_RESAMPLE 3 0 1
  RENDER_ADDTOPROJ 0
  RENDER_STEMS 0
  RENDER_DITHER 0
  TIMELOCKMODE 0
  ITEMMIX 0
  DEFPITCHMODE 393216
  TAKELANE 1
  SAMPLERATE 44100 0 0
  <RENDER_CFG
  >
  LOCK 1
  <METRONOME 6 2.000000
    VOL 0.250000 0.125000
    FREQ 800 1600 1
    BEATLEN 4
    SAMPLES "" ""
  >
  GLOBAL_AUTO -1
  TEMPO 120.00000000000000 4 4
  PLAYRATE 1.00000000000000 0 0.25000 4.00000
  SELECTION 36.31880900000000 0.00000000000000
  SELECTION2 36.31880900000000 0.00000000000000
  MASTERAUTOMODE 0
  MASTERTRACKHEIGHT 0
  MASTERPEAKCOL 16576
  MASTERMUTESOLO 0
  MASTERTRACKVIEW 0 0.666700 0.500000 0.500000 -1 -1 -1
  MASTERHWOUT 0 0 1.00000000000000 0.00000000000000 0 0 0 -1.00000000000000
  MASTER_NCH 2 2
  MASTER_VOLUME 0.31308033777812 0.00000000000000 -1.00000000000000 -1.00000000000000 1.00000000000000
  MASTER_PANMODE -1
  MASTER_FX 1
  MASTER_SEL 0
  <MASTERPLAYSPEEDENV
    ACT 0
    VIS 0 1 1.000000
    LANEHEIGHT 0 0
    ARM 0
    DEFSHAPE 0 -1 -1
  >
  <TEMPOENVEX
    ACT 1
    VIS 1 0 1.000000
    LANEHEIGHT 0 0
    ARM 0
    DEFSHAPE 1 -1 -1
    PT 0.000000000000 148.0001480001 1
    PT 4.864860000000 177.6593382190 1
    PT 5.202585000000 138.8342550385 1
    PT 5.634755000000 147.0011760094 1
    PT 6.042915000000 142.8010424476 1
    PT 6.463080000000 147.0011760094 1
    PT 6.871240000000 156.1885820940 1
    PT 7.255391000000 147.0011760094 1
    PT 7.663551000000 151.4554872323 1
    PT 8.059707000000 138.8342550385 1
    PT 8.491877000000 142.8010424476 1
    PT 9.332207000000 138.8342550385 1
    PT 10.196547000000 142.8010424476 1
    PT 10.616712000000 147.0011760094 1
    PT 11.024872000000 156.1885820940 1
    PT 11.409023000000 135.0818933979 1
    PT 11.853198000000 151.4554872323 1
    PT 12.645510000000 147.0011760094 1
    PT 13.053670000000 142.8010424476 1
    PT 13.894000000000 147.0011760094 1
    PT 14.302160000000 142.8010424476 1
    PT 15.142490000000 151.4554872323 1
    PT 15.538646000000 138.8342550385 1
    PT 15.970816000000 147.0011760094 1
    PT 16.378976000000 151.4554872323 1
    PT 16.775132000000 138.8342550385 1
    PT 17.207302000000 147.0011760094 1
    PT 18.023622000000 142.8010424476 1
    PT 18.443787000000 147.0011760094 1
    PT 18.851947000000 138.8342550385 1
    PT 19.284117000000 147.0011760094 1
    PT 19.692277000000 142.8010424476 1
    PT 20.112442000000 138.8342550385 1
    PT 20.544612000000 147.0011760094 1
    PT 20.952772000000 142.8010424476 1
    PT 21.372937000000 147.0011760094 1
    PT 21.781097000000 156.1885820940 1
    PT 22.165248000000 142.8010424476 1
    PT 23.425743000000 156.1885820940 1
    PT 23.809894000000 135.0818933979 1
    PT 24.254069000000 151.4554872323 1
    PT 24.650225000000 147.0011760094 1
    PT 25.058385000000 138.8342550385 1
    PT 25.490555000000 151.4554872323 1
    PT 25.886711000000 135.0818933979 1
    PT 26.330886000000 156.1885820940 1
    PT 26.715037000000 138.8342550385 1
    PT 27.147207000000 151.4554872323 1
    PT 27.543363000000 142.8010424476 1
    PT 27.963528000000 151.4554872323 1
    PT 28.359684000000 147.0011760094 1
    PT 29.176004000000 138.8342550385 1
    PT 29.608174000000 142.8010424476 1
    PT 30.028339000000 147.0011760094 1
    PT 30.436499000000 142.8010424476 1
  >
  <PROJBAY
  >
  <TRACK '{C0C63085-7A70-4D16-A571-AA28E66254CE}'
    NAME "PART DRUMS"
    PEAKCOL 16576
    BEAT -1
    AUTOMODE 0
    VOLPAN 1.00000000000000 0.00000000000000 -1.00000000000000 -1.00000000000000 1.00000000000000
    MUTESOLO 0 0 0
    IPHASE 0
    ISBUS 0 0
    BUSCOMP 0 0
    SHOWINMIX 1 0.666700 0.500000 1 0.500000 -1 -1 -1
    FREEMODE 0
    SEL 0
    REC 0 0 0 0 0 0 0
    VU 2
    TRACKHEIGHT 0 0
    INQ 0 0 0 0.5000000000 100 0 0 100
    NCHAN 2
    FX 1
    TRACKID {C0C63085-7A70-4D16-A571-AA28E66254CE}
    PERF 0
    MIDIOUT -1
    <MIDINOTENAMES
      0 127 "CYMBAL SWELLS"
      0 126 "DRUM ROLL"
      0 125 "---"
      0 124 "DRUM FILL"
      0 123 "DRUM FILL"
      0 122 "DRUM FILL"
      0 121 "DRUM FILL"
      0 120 "DRUM FILL (use all 5)"
      0 118 "----"
      0 116 "OVERDRIVE"
      0 114 "----"
      0 112 "TOM GEMS PAD 4"
      0 111 "TOM GEMS PAD 3"
      0 110 "TOM GEMS PAD 2"
      0 103 "Solo Marker"
      0 102 "----"
      0 100 "EXPERT Green"
      0 99 "EXPERT Blue"
      0 98 "EXPERT Yellow"
      0 97 "EXPERT Red"
      0 96 "EXPERT Kick"
      0 92 "----"
      0 88 "HARD Green"
      0 87 "HARD Blue"
      0 86 "HARD Yellow"
      0 85 "HARD Red"
      0 84 "HARD Kick"
      0 80 "----"
      0 76 "MEDIUM Green"
      0 75 "MEDIUM Blue"
      0 74 "MEDIUM Yellow"
      0 73 "MEDIUM Red"
      0 72 "MEDIUM Kick"
      0 68 "----"
      0 64 "EASY Green"
      0 63 "EASY Blue"
      0 62 "EASY Yellow"
      0 61 "EASY Red"
      0 60 "EASY Kick"
      0 56 "----"
      0 52 "-- DRUM ANIMATION --"
      0 51 "FLOOR TOM RH"
      0 50 "FLOOR TOM LH"
      0 49 "TOM2 RH"
      0 48 "TOM2 LH"
      0 47 "TOM1 RH"
      0 46 "TOM1 LH"
      0 45 "SOFT CRASH 2 LH"
      0 44 "CRASH 2 LH"
      0 43 "RIDE LH"
      0 42 "RIDE CYM RH"
      0 41 "CRASH2 CHOKE"
      0 40 "CRASH1 CHOKE"
      0 39 "CRASH2 SOFT RH"
      0 38 "CRASH2 HARD RH"
      0 37 "CRASH1 SOFT RH"
      0 36 "CRASH1 HARD RH"
      0 35 "CRASH1 SOFT LH"
      0 34 "CRASH1 HARD LH"
      0 32 "PERCUSSION RH"
      0 31 "HI-HAT RH"
      0 30 "HI-HAT LH"
      0 29 "SOFT SNARE RH"
      0 28 "SOFT SNARE LH"
      0 27 "SNARE RH"
      0 26 "SNARE LH"
      0 25 "HI-HAT OPEN"
      0 24 "KICK RF"
    >
    MAINSEND 1 0
    <FXCHAIN
      WNDRECT 0 43 891 559
      SHOW 0
      LASTSEL 0
      DOCKED 0
      BYPASS 0 0
      <VST "VSTi: RBN Preview (RBN)" "rbprev_vst64.dll" 0 ""
        dnBicu5e7f4AAAAAAgAAAAEAAAAAAAAAAgAAAAAAAAAEAAAAAQAAAA==
        AAAQAAMBqgAAABAAAAA=
      >
      FLOATPOS 0 0 0 0
      FXID {3619B15B-42CC-442B-B775-B074FE286740}
      WAK 0
    >
    <ITEM
      POSITION 0.00000000000000
      SNAPOFFS 0.00000000000000
      LENGTH 36.31800000000000
      LOOP 0
      ALLTAKES 0
      SEL 0
      FADEIN 1 0.000000 0.000000 1 0
      FADEOUT 1 0.000000 0.000000 1 0
      MUTE 0
      IGUID {5FA02A20-C656-4640-92A6-AA5A77E11A60}
      IID 1
      NAME "PART DRUMS"
      VOLPAN 1.000000 0.000000 1.000000 -1.000000
      SOFFS 0.00000000000000 0.00000000000000
      PLAYRATE 1.00000000000000 1 0.00000000000000 -1
      CHANMODE 0
      GUID {94E84F23-3833-4629-96F1-0854409B0FBC}
      <SOURCE MIDI
        HASDATA 1 480 QN
        POOLEDEVTS {4B987C66-1FF3-47E3-B774-5AAC201668A9}
        <X 0 0
          /wNQQVJUIERSVU1T
        >
        <X 120 0
          /wFbbWl4IDAgZHJ1bXMwXQ==
        >
        <X 120 0
          /wFbbWl4IDEgZHJ1bXMwXQ==
        >
        <X 120 0
          /wFbbWl4IDIgZHJ1bXMwXQ==
        >
        <X 120 0
          /wFbbWl4IDMgZHJ1bXMwXQ==
        >
        <X 5040 0
          /wFbcGxheV0=
        >
        E 240 90 18 60
        E 0 90 26 60
        E 0 90 40 60
        E 0 90 48 60
        E 0 90 4c 60
        E 0 90 54 60
        E 0 90 58 60
        E 0 90 60 60
        E 0 90 64 60
        E 80 80 18 00
        E 0 80 26 00
        E 0 80 40 00
        E 0 80 48 00
        E 0 80 4c 00
        E 0 80 54 00
        E 0 80 58 00
        E 0 80 60 00
        E 0 80 64 00
        E 160 90 19 60
        E 0 90 1d 60
        E 0 90 55 60
        E 0 90 61 60
        E 80 80 1d 00
        E 0 80 55 00
        E 0 80 61 00
        E 160 80 19 00
        E 0 90 18 60
        E 0 90 1d 60
        E 0 90 49 60
        E 0 90 54 60
        E 0 90 55 60
        E 0 90 60 60
        E 0 90 61 60
        E 80 80 18 00
        E 0 80 1d 00
        E 0 80 49 00
        E 0 80 54 00
        E 0 80 55 00
        E 0 80 60 00
        E 0 80 61 00
        E 80 90 1c 60
        E 0 90 61 60
        E 80 80 1c 00
        E 0 80 61 00
        E 0 90 19 60
        E 0 90 1d 60
        E 0 90 55 60
        E 0 90 61 60
        E 80 80 1d 00
        E 0 80 55 00
        E 0 80 61 00
        E 80 90 1c 60
        E 0 90 61 60
        E 80 80 19 00
        E 0 80 1c 00
        E 0 80 61 00
        E 0 90 18 60
        E 0 90 1d 60
        E 0 90 3d 60
        E 0 90 49 60
        E 0 90 54 60
        E 0 90 55 60
        E 0 90 60 60
        E 0 90 61 60
        E 80 80 18 00
        E 0 80 1d 00
        E 0 80 3d 00
        E 0 80 49 00
        E 0 80 54 00
        E 0 80 55 00
        E 0 80 60 00
        E 0 80 61 00
        E 160 90 19 60
        E 0 90 1d 60
        E 0 90 55 60
        E 0 90 61 60
        E 80 80 1d 00
        E 0 80 55 00
        E 0 80 61 00
        E 160 80 19 00
        E 0 90 18 60
        E 0 90 1d 60
        E 0 90 49 60
        E 0 90 54 60
        E 0 90 55 60
        E 0 90 60 60
        E 0 90 61 60
        E 80 80 18 00
        E 0 80 1d 00
        E 0 80 49 00
        E 0 80 54 00
        E 0 80 55 00
        E 0 80 60 00
        E 0 80 61 00
        E 80 90 1c 60
        E 0 90 61 60
        E 80 80 1c 00
        E 0 80 61 00
        E 0 90 19 60
        E 0 90 1d 60
        E 0 90 55 60
        E 0 90 61 60
        E 80 80 1d 00
        E 0 80 55 00
        E 0 80 61 00
        E 160 80 19 00
        E 0 90 18 60
        E 0 90 1d 60
        E 0 90 3d 60
        E 0 90 48 60
        E 0 90 49 60
        E 0 90 54 60
        E 0 90 55 60
        E 0 90 60 60
        E 0 90 61 60
        E 0 90 74 60
        E 80 80 18 00
        E 0 80 1d 00
        E 0 80 3d 00
        E 0 80 48 00
        E 0 80 49 00
        E 0 80 54 00
        E 0 80 55 00
        E 0 80 60 00
        E 0 80 61 00
        E 160 90 19 60
        E 0 90 1d 60
        E 0 90 55 60
        E 0 90 61 60
        E 80 80 1d 00
        E 0 80 55 00
        E 0 80 61 00
        E 160 80 19 00
        E 0 90 18 60
        E 0 90 1d 60
        E 0 90 49 60
        E 0 90 54 60
        E 0 90 55 60
        E 0 90 60 60
        E 0 90 61 60
        E 80 80 18 00
        E 0 80 1d 00
        E 0 80 49 00
        E 0 80 54 00
        E 0 80 55 00
        E 0 80 60 00
        E 0 80 61 00
        E 80 90 1c 60
        E 0 90 61 60
        E 80 80 1c 00
        E 0 80 61 00
        E 0 90 19 60
        E 0 90 1d 60
        E 0 90 55 60
        E 0 90 61 60
        E 80 80 1d 00
        E 0 80 55 00
        E 0 80 61 00
        E 80 90 1c 60
        E 0 90 61 60
        E 80 80 19 00
        E 0 80 1c 00
        E 0 80 61 00
        E 0 90 18 60
        E 0 90 1d 60
        E 0 90 3d 60
        E 0 90 49 60
        E 0 90 54 60
        E 0 90 55 60
        E 0 90 60 60
        E 0 90 61 60
        E 80 80 18 00
        E 0 80 1d 00
        E 0 80 3d 00
        E 0 80 49 00
        E 0 80 54 00
        E 0 80 55 00
        E 0 80 60 00
        E 0 80 61 00
        E 80 90 1e 60
        E 0 90 62 60
        E 80 80 1e 00
        E 0 80 62 00
        E 0 90 1f 60
        E 0 90 56 60
        E 0 90 62 60
        E 80 80 1f 00
        E 0 80 56 00
        E 0 80 62 00
        E 80 90 1e 60
        E 0 90 62 60
        E 80 80 1e 00
        E 0 80 62 00
        E 0 90 1f 60
        E 0 90 3e 60
        E 0 90 4a 60
        E 0 90 56 60
        E 0 90 62 60
        E 80 80 1f 00
        E 40 80 3e 00
        E 0 80 4a 00
        E 0 80 56 00
        E 0 80 62 00
        E 120 90 19 60
        E 0 90 1f 60
        E 0 90 57 60
        E 0 90 63 60
        E 80 80 1f 00
        E 0 80 57 00
        E 0 80 63 00
        E 160 80 74 00
        E 0 80 19 00
        E 0 90 18 60
        E 0 90 1d 60
        E 0 90 3d 60
        E 0 90 48 60
        E 0 90 49 60
        E 0 90 54 60
        E 0 90 55 60
        E 0 90 60 60
        E 0 90 61 60
        E 80 80 18 00
        E 0 80 1d 00
        E 0 80 3d 00
        E 0 80 48 00
        E 0 80 49 00
        E 0 80 54 00
        E 0 80 55 00
        E 0 80 60 00
        E 0 80 61 00
        E 160 90 19 60
        E 0 90 1d 60
        E 0 90 55 60
        E 0 90 61 60
        E 80 80 1d 00
        E 0 80 55 00
        E 0 80 61 00
        E 160 80 19 00
        E 0 90 18 60
        E 0 90 1d 60
        E 0 90 49 60
        E 0 90 54 60
        E 0 90 55 60
        E 0 90 60 60
        E 0 90 61 60
        E 80 80 18 00
        E 0 80 1d 00
        E 0 80 49 00
        E 0 80 54 00
        E 0 80 55 00
        E 0 80 60 00
        E 0 80 61 00
        E 80 90 1c 60
        E 0 90 61 60
        E 80 80 1c 00
        E 0 80 61 00
        E 0 90 19 60
        E 0 90 1d 60
        E 0 90 55 60
        E 0 90 61 60
        E 80 80 1d 00
        E 0 80 55 00
        E 0 80 61 00
        E 80 90 1c 60
        E 0 90 61 60
        E 80 80 19 00
        E 0 80 1c 00
        E 0 80 61 00
        E 0 90 18 60
        E 0 90 1d 60
        E 0 90 3d 60
        E 0 90 49 60
        E 0 90 54 60
        E 0 90 55 60
        E 0 90 60 60
        E 0 90 61 60
        E 80 80 18 00
        E 0 80 1d 00
        E 0 80 3d 00
        E 0 80 49 00
        E 0 80 54 00
        E 0 80 55 00
        E 0 80 60 00
        E 0 80 61 00
        E 160 90 19 60
        E 0 90 1d 60
        E 0 90 55 60
        E 0 90 61 60
        E 80 80 1d 00
        E 0 80 55 00
        E 0 80 61 00
        E 160 80 19 00
        E 0 90 18 60
        E 0 90 1d 60
        E 0 90 49 60
        E 0 90 54 60
        E 0 90 55 60
        E 0 90 60 60
        E 0 90 61 60
        E 80 80 18 00
        E 0 80 1d 00
        E 0 80 49 00
        E 0 80 54 00
        E 0 80 55 00
        E 0 80 60 00
        E 0 80 61 00
        E 80 90 1c 60
        E 0 90 61 60
        E 80 80 1c 00
        E 0 80 61 00
        E 0 90 19 60
        E 0 90 1d 60
        E 0 90 55 60
        E 0 90 61 60
        E 80 80 1d 00
        E 0 80 55 00
        E 0 80 61 00
        E 80 90 1c 60
        E 0 90 61 60
        E 80 80 19 00
        E 0 80 1c 00
        E 0 80 61 00
        E 0 90 18 60
        E 0 90 1d 60
        E 0 90 3d 60
        E 0 90 48 60
        E 0 90 49 60
        E 0 90 54 60
        E 0 90 55 60
        E 0 90 60 60
        E 0 90 61 60
        E 80 80 18 00
        E 0 80 1d 00
        E 0 80 3d 00
        E 0 80 48 00
        E 0 80 49 00
        E 0 80 54 00
        E 0 80 55 00
        E 0 80 60 00
        E 0 80 61 00
        E 160 90 19 60
        E 0 90 1d 60
        E 0 90 55 60
        E 0 90 61 60
        E 80 80 1d 00
        E 0 80 55 00
        E 0 80 61 00
        E 160 80 19 00
        E 0 90 18 60
        E 0 90 1d 60
        E 0 90 49 60
        E 0 90 54 60
        E 0 90 55 60
        E 0 90 60 60
        E 0 90 61 60
        E 80 80 18 00
        E 0 80 1d 00
        E 0 80 49 00
        E 0 80 54 00
        E 0 80 55 00
        E 0 80 60 00
        E 0 80 61 00
        E 80 90 1c 60
        E 0 90 61 60
        E 80 80 1c 00
        E 0 80 61 00
        E 0 90 19 60
        E 0 90 1d 60
        E 0 90 55 60
        E 0 90 61 60
        E 80 80 1d 00
        E 0 80 55 00
        E 0 80 61 00
        E 80 90 1c 60
        E 0 90 61 60
        E 80 80 19 00
        E 0 80 1c 00
        E 0 80 61 00
        E 0 90 18 60
        E 0 90 1d 60
        E 0 90 3d 60
        E 0 90 49 60
        E 0 90 54 60
        E 0 90 55 60
        E 0 90 60 60
        E 0 90 61 60
        E 80 80 18 00
        E 0 80 1d 00
        E 0 80 3d 00
        E 0 80 49 00
        E 0 80 54 00
        E 0 80 55 00
        E 0 80 60 00
        E 0 80 61 00
        E 160 90 19 60
        E 0 90 1d 60
        E 0 90 55 60
        E 0 90 61 60
        E 80 80 1d 00
        E 0 80 55 00
        E 0 80 61 00
        E 160 80 19 00
        E 0 90 18 60
        E 0 90 1d 60
        E 0 90 49 60
        E 0 90 54 60
        E 0 90 55 60
        E 0 90 60 60
        E 0 90 61 60
        E 80 80 18 00
        E 0 80 1d 00
        E 0 80 49 00
        E 0 80 54 00
        E 0 80 55 00
        E 0 80 60 00
        E 0 80 61 00
        E 80 90 1c 60
        E 0 90 61 60
        E 80 80 1c 00
        E 0 80 61 00
        E 0 90 19 60
        E 0 90 1d 60
        E 0 90 55 60
        E 0 90 61 60
        E 80 80 1d 00
        E 0 80 55 00
        E 0 80 61 00
        E 40 90 18 60
        E 0 90 60 60
        E 80 80 18 00
        E 0 80 60 00
        E 40 80 19 00
        E 0 90 18 60
        E 0 90 1d 60
        E 0 90 3d 60
        E 0 90 48 60
        E 0 90 49 60
        E 0 90 54 60
        E 0 90 55 60
        E 0 90 60 60
        E 0 90 61 60
        E 80 80 18 00
        E 0 80 1d 00
        E 0 80 3d 00
        E 0 80 48 00
        E 0 80 49 00
        E 0 80 54 00
        E 0 80 55 00
        E 0 80 60 00
        E 0 80 61 00
        E 160 90 19 60
        E 0 90 1d 60
        E 0 90 55 60
        E 0 90 61 60
        E 80 80 1d 00
        E 0 80 55 00
        E 0 80 61 00
        E 160 80 19 00
        E 0 90 18 60
        E 0 90 1d 60
        E 0 90 49 60
        E 0 90 54 60
        E 0 90 55 60
        E 0 90 60 60
        E 0 90 61 60
        E 80 80 18 00
        E 0 80 1d 00
        E 0 80 49 00
        E 0 80 54 00
        E 0 80 55 00
        E 0 80 60 00
        E 0 80 61 00
        E 80 90 1c 60
        E 0 90 61 60
        E 80 80 1c 00
        E 0 80 61 00
        E 0 90 19 60
        E 0 90 1d 60
        E 0 90 55 60
        E 0 90 61 60
        E 80 80 1d 00
        E 0 80 55 00
        E 0 80 61 00
        E 80 90 1c 60
        E 0 90 61 60
        E 80 80 19 00
        E 0 80 1c 00
        E 0 80 61 00
        E 0 90 18 60
        E 0 90 1d 60
        E 0 90 3d 60
        E 0 90 49 60
        E 0 90 54 60
        E 0 90 55 60
        E 0 90 60 60
        E 0 90 61 60
        E 0 90 74 60
        E 80 80 18 00
        E 0 80 1d 00
        E 0 80 3d 00
        E 0 80 49 00
        E 0 80 54 00
        E 0 80 55 00
        E 0 80 60 00
        E 0 80 61 00
        E 160 90 19 60
        E 0 90 1d 60
        E 0 90 55 60
        E 0 90 61 60
        E 80 80 1d 00
        E 0 80 55 00
        E 0 80 61 00
        E 160 80 19 00
        E 0 90 18 60
        E 0 90 1d 60
        E 0 90 49 60
        E 0 90 54 60
        E 0 90 55 60
        E 0 90 60 60
        E 0 90 61 60
        E 80 80 18 00
        E 0 80 1d 00
        E 0 80 49 00
        E 0 80 54 00
        E 0 80 55 00
        E 0 80 60 00
        E 0 80 61 00
        E 80 90 1c 60
        E 0 90 61 60
        E 80 80 1c 00
        E 0 80 61 00
        E 0 90 19 60
        E 0 90 1d 60
        E 0 90 55 60
        E 0 90 61 60
        E 80 80 1d 00
        E 0 80 55 00
        E 0 80 61 00
        E 80 90 1c 60
        E 0 90 61 60
        E 80 80 74 00
        E 0 80 19 00
        E 0 80 1c 00
        E 0 80 61 00
        E 0 90 18 60
        E 0 90 1d 60
        E 0 90 3d 60
        E 0 90 48 60
        E 0 90 49 60
        E 0 90 54 60
        E 0 90 55 60
        E 0 90 60 60
        E 0 90 61 60
        E 80 80 18 00
        E 0 80 1d 00
        E 0 80 3d 00
        E 0 80 48 00
        E 0 80 49 00
        E 0 80 54 00
        E 0 80 55 00
        E 0 80 60 00
        E 0 80 61 00
        E 160 90 19 60
        E 0 90 1d 60
        E 0 90 55 60
        E 0 90 61 60
        E 80 80 1d 00
        E 0 80 55 00
        E 0 80 61 00
        E 160 80 19 00
        E 0 90 18 60
        E 0 90 1d 60
        E 0 90 49 60
        E 0 90 54 60
        E 0 90 55 60
        E 0 90 60 60
        E 0 90 61 60
        E 80 80 18 00
        E 0 80 1d 00
        E 0 80 49 00
        E 0 80 54 00
        E 0 80 55 00
        E 0 80 60 00
        E 0 80 61 00
        E 80 90 1c 60
        E 0 90 61 60
        E 80 80 1c 00
        E 0 80 61 00
        E 0 90 19 60
        E 0 90 1d 60
        E 0 90 55 60
        E 0 90 61 60
        E 80 80 1d 00
        E 0 80 55 00
        E 0 80 61 00
        E 80 90 1c 60
        E 0 90 61 60
        E 80 80 19 00
        E 0 80 1c 00
        E 0 80 61 00
        E 0 90 18 60
        E 0 90 1d 60
        E 0 90 3d 60
        E 0 90 49 60
        E 0 90 54 60
        E 0 90 55 60
        E 0 90 60 60
        E 0 90 61 60
        E 0 90 78 60
        E 0 90 79 60
        E 0 90 7a 60
        E 0 90 7b 60
        E 0 90 7c 60
        E 80 80 18 00
        E 0 80 1d 00
        E 0 80 3d 00
        E 0 80 49 00
        E 0 80 54 00
        E 0 80 55 00
        E 0 80 60 00
        E 0 80 61 00
        E 160 90 19 60
        E 0 90 1d 60
        E 0 90 55 60
        E 0 90 61 60
        E 80 80 1d 00
        E 0 80 55 00
        E 0 80 61 00
        E 160 80 19 00
        E 0 90 18 60
        E 0 90 28 60
        E 0 90 4b 60
        E 0 90 54 60
        E 0 90 57 60
        E 0 90 60 60
        E 0 90 63 60
        E 80 80 18 00
        E 0 80 4b 00
        E 0 80 54 00
        E 0 80 57 00
        E 0 80 60 00
        E 0 80 63 00
        E 80 80 28 00
        E 80 90 18 60
        E 0 90 19 60
        E 0 90 28 60
        E 0 90 57 60
        E 0 90 60 60
        E 0 90 63 60
        E 80 80 18 00
        E 0 80 57 00
        E 0 80 60 00
        E 0 80 63 00
        E 80 80 28 00
        E 80 80 78 00
        E 0 80 79 00
        E 0 80 7a 00
        E 0 80 7b 00
        E 0 80 7c 00
        E 0 80 19 00
        E 0 90 18 60
        E 0 90 26 60
        E 0 90 40 60
        E 0 90 48 60
        E 0 90 4c 60
        E 0 90 54 60
        E 0 90 58 60
        E 0 90 60 60
        E 0 90 64 60
        E 80 80 18 00
        E 0 80 26 00
        E 0 80 40 00
        E 0 80 48 00
        E 0 80 4c 00
        E 0 80 54 00
        E 0 80 58 00
        E 0 80 60 00
        E 0 80 64 00
        E 160 90 19 60
        E 0 90 1d 60
        E 0 90 55 60
        E 0 90 61 60
        E 80 80 1d 00
        E 0 80 55 00
        E 0 80 61 00
        E 160 80 19 00
        E 0 90 18 60
        E 0 90 1d 60
        E 0 90 49 60
        E 0 90 54 60
        E 0 90 55 60
        E 0 90 60 60
        E 0 90 61 60
        E 80 80 18 00
        E 0 80 1d 00
        E 0 80 49 00
        E 0 80 54 00
        E 0 80 55 00
        E 0 80 60 00
        E 0 80 61 00
        E 80 90 1c 60
        E 0 90 61 60
        E 80 80 1c 00
        E 0 80 61 00
        E 0 90 19 60
        E 0 90 1d 60
        E 0 90 55 60
        E 0 90 61 60
        E 80 80 1d 00
        E 0 80 55 00
        E 0 80 61 00
        E 80 90 1c 60
        E 0 90 61 60
        E 80 80 19 00
        E 0 80 1c 00
        E 0 80 61 00
        E 0 90 18 60
        E 0 90 1d 60
        E 0 90 3d 60
        E 0 90 49 60
        E 0 90 54 60
        E 0 90 55 60
        E 0 90 60 60
        E 0 90 61 60
        E 80 80 18 00
        E 0 80 1d 00
        E 0 80 3d 00
        E 0 80 49 00
        E 0 80 54 00
        E 0 80 55 00
        E 0 80 60 00
        E 0 80 61 00
        E 160 90 19 60
        E 0 90 1d 60
        E 0 90 55 60
        E 0 90 61 60
        E 80 80 1d 00
        E 0 80 55 00
        E 0 80 61 00
        E 160 80 19 00
        E 0 90 18 60
        E 0 90 1d 60
        E 0 90 49 60
        E 0 90 54 60
        E 0 90 55 60
        E 0 90 60 60
        E 0 90 61 60
        E 80 80 18 00
        E 0 80 1d 00
        E 0 80 49 00
        E 0 80 54 00
        E 0 80 55 00
        E 0 80 60 00
        E 0 80 61 00
        E 80 90 1c 60
        E 0 90 61 60
        E 80 80 1c 00
        E 0 80 61 00
        E 0 90 19 60
        E 0 90 1d 60
        E 0 90 55 60
        E 0 90 61 60
        E 80 80 1d 00
        E 0 80 55 00
        E 0 80 61 00
        E 80 90 1c 60
        E 0 90 61 60
        E 80 80 19 00
        E 0 80 1c 00
        E 0 80 61 00
        E 0 90 18 60
        E 0 90 1d 60
        E 0 90 3d 60
        E 0 90 48 60
        E 0 90 49 60
        E 0 90 54 60
        E 0 90 55 60
        E 0 90 60 60
        E 0 90 61 60
        E 80 80 18 00
        E 0 80 1d 00
        E 0 80 3d 00
        E 0 80 48 00
        E 0 80 49 00
        E 0 80 54 00
        E 0 80 55 00
        E 0 80 60 00
        E 0 80 61 00
        E 160 90 19 60
        E 0 90 1d 60
        E 0 90 55 60
        E 0 90 61 60
        E 80 80 1d 00
        E 0 80 55 00
        E 0 80 61 00
        E 160 80 19 00
        E 0 90 18 60
        E 0 90 1d 60
        E 0 90 49 60
        E 0 90 54 60
        E 0 90 55 60
        E 0 90 60 60
        E 0 90 61 60
        E 80 80 18 00
        E 0 80 1d 00
        E 0 80 49 00
        E 0 80 54 00
        E 0 80 55 00
        E 0 80 60 00
        E 0 80 61 00
        E 80 90 1c 60
        E 0 90 61 60
        E 80 80 1c 00
        E 0 80 61 00
        E 0 90 19 60
        E 0 90 1d 60
        E 0 90 55 60
        E 0 90 61 60
        E 80 80 1d 00
        E 0 80 55 00
        E 0 80 61 00
        E 80 90 1c 60
        E 0 90 61 60
        E 80 80 19 00
        E 0 80 1c 00
        E 0 80 61 00
        E 0 90 18 60
        E 0 90 1d 60
        E 0 90 3d 60
        E 0 90 49 60
        E 0 90 54 60
        E 0 90 55 60
        E 0 90 60 60
        E 0 90 61 60
        E 80 80 18 00
        E 0 80 1d 00
        E 0 80 3d 00
        E 0 80 49 00
        E 0 80 54 00
        E 0 80 55 00
        E 0 80 60 00
        E 0 80 61 00
        E 160 90 19 60
        E 0 90 1d 60
        E 0 90 55 60
        E 0 90 61 60
        E 80 80 1d 00
        E 0 80 55 00
        E 0 80 61 00
        E 160 80 19 00
        E 0 90 18 60
        E 0 90 1d 60
        E 0 90 49 60
        E 0 90 54 60
        E 0 90 55 60
        E 0 90 60 60
        E 0 90 61 60
        E 80 80 18 00
        E 0 80 1d 00
        E 0 80 49 00
        E 0 80 54 00
        E 0 80 55 00
        E 0 80 60 00
        E 0 80 61 00
        E 80 90 1c 60
        E 0 90 61 60
        E 80 80 1c 00
        E 0 80 61 00
        E 0 90 19 60
        E 0 90 1d 60
        E 0 90 55 60
        E 0 90 61 60
        E 80 80 1d 00
        E 0 80 55 00
        E 0 80 61 00
        E 80 90 1c 60
        E 0 90 61 60
        E 80 80 19 00
        E 0 80 1c 00
        E 0 80 61 00
        E 0 90 18 60
        E 0 90 1d 60
        E 0 90 3d 60
        E 0 90 48 60
        E 0 90 49 60
        E 0 90 54 60
        E 0 90 55 60
        E 0 90 60 60
        E 0 90 61 60
        E 80 80 18 00
        E 0 80 1d 00
        E 0 80 3d 00
        E 0 80 48 00
        E 0 80 49 00
        E 0 80 54 00
        E 0 80 55 00
        E 0 80 60 00
        E 0 80 61 00
        E 160 90 19 60
        E 0 90 1d 60
        E 0 90 55 60
        E 0 90 61 60
        E 80 80 1d 00
        E 0 80 55 00
        E 0 80 61 00
        E 160 80 19 00
        E 0 90 18 60
        E 0 90 1d 60
        E 0 90 49 60
        E 0 90 54 60
        E 0 90 55 60
        E 0 90 60 60
        E 0 90 61 60
        E 80 80 18 00
        E 0 80 1d 00
        E 0 80 49 00
        E 0 80 54 00
        E 0 80 55 00
        E 0 80 60 00
        E 0 80 61 00
        E 80 90 1c 60
        E 0 90 61 60
        E 80 80 1c 00
        E 0 80 61 00
        E 0 90 19 60
        E 0 90 1d 60
        E 0 90 55 60
        E 0 90 61 60
        E 80 80 1d 00
        E 0 80 55 00
        E 0 80 61 00
        E 80 90 1c 60
        E 0 90 61 60
        E 80 80 19 00
        E 0 80 1c 00
        E 0 80 61 00
        E 0 90 18 60
        E 0 90 1d 60
        E 0 90 3d 60
        E 0 90 49 60
        E 0 90 54 60
        E 0 90 55 60
        E 0 90 60 60
        E 0 90 61 60
        E 0 90 74 60
        E 80 80 18 00
        E 0 80 1d 00
        E 0 80 3d 00
        E 0 80 49 00
        E 0 80 54 00
        E 0 80 55 00
        E 0 80 60 00
        E 0 80 61 00
        E 160 90 19 60
        E 0 90 1d 60
        E 0 90 55 60
        E 0 90 61 60
        E 80 80 1d 00
        E 0 80 55 00
        E 0 80 61 00
        E 160 80 19 00
        E 0 90 18 60
        E 0 90 1d 60
        E 0 90 49 60
        E 0 90 54 60
        E 0 90 55 60
        E 0 90 60 60
        E 0 90 61 60
        E 80 80 18 00
        E 0 80 1d 00
        E 0 80 49 00
        E 0 80 54 00
        E 0 80 55 00
        E 0 80 60 00
        E 0 80 61 00
        E 80 90 1c 60
        E 0 90 61 60
        E 80 80 1c 00
        E 0 80 61 00
        E 0 90 19 60
        E 0 90 1d 60
        E 0 90 55 60
        E 0 90 61 60
        E 80 80 1d 00
        E 0 80 55 00
        E 0 80 61 00
        E 80 90 1c 60
        E 0 90 61 60
        E 80 80 74 00
        E 0 80 19 00
        E 0 80 1c 00
        E 0 80 61 00
        E 0 90 18 60
        E 0 90 1d 60
        E 0 90 3d 60
        E 0 90 48 60
        E 0 90 49 60
        E 0 90 54 60
        E 0 90 55 60
        E 0 90 60 60
        E 0 90 61 60
        E 80 80 18 00
        E 0 80 1d 00
        E 0 80 3d 00
        E 0 80 48 00
        E 0 80 49 00
        E 0 80 54 00
        E 0 80 55 00
        E 0 80 60 00
        E 0 80 61 00
        E 160 90 19 60
        E 0 90 1d 60
        E 0 90 55 60
        E 0 90 61 60
        E 80 80 1d 00
        E 0 80 55 00
        E 0 80 61 00
        E 160 80 19 00
        E 0 90 18 60
        E 0 90 1d 60
        E 0 90 49 60
        E 0 90 54 60
        E 0 90 55 60
        E 0 90 60 60
        E 0 90 61 60
        E 80 80 18 00
        E 0 80 1d 00
        E 0 80 49 00
        E 0 80 54 00
        E 0 80 55 00
        E 0 80 60 00
        E 0 80 61 00
        E 80 90 1c 60
        E 0 90 61 60
        E 80 80 1c 00
        E 0 80 61 00
        E 0 90 19 60
        E 0 90 1d 60
        E 0 90 55 60
        E 0 90 61 60
        E 80 80 1d 00
        E 0 80 55 00
        E 0 80 61 00
        E 80 90 1c 60
        E 0 90 61 60
        E 80 80 19 00
        E 0 80 1c 00
        E 0 80 61 00
        E 0 90 18 60
        E 0 90 1d 60
        E 0 90 3d 60
        E 0 90 49 60
        E 0 90 54 60
        E 0 90 55 60
        E 0 90 60 60
        E 0 90 61 60
        E 0 90 78 60
        E 0 90 79 60
        E 0 90 7a 60
        E 0 90 7b 60
        E 0 90 7c 60
        E 80 80 18 00
        E 0 80 1d 00
        E 0 80 3d 00
        E 0 80 49 00
        E 0 80 54 00
        E 0 80 55 00
        E 0 80 60 00
        E 0 80 61 00
        E 160 90 19 60
        E 0 90 1d 60
        E 0 90 55 60
        E 0 90 61 60
        E 80 80 1d 00
        E 0 80 55 00
        E 0 80 61 00
        E 160 80 19 00
        E 0 90 18 60
        E 0 90 1d 60
        E 0 90 49 60
        E 0 90 54 60
        E 0 90 55 60
        E 0 90 60 60
        E 0 90 61 60
        E 80 80 18 00
        E 0 80 1d 00
        E 0 80 49 00
        E 0 80 54 00
        E 0 80 55 00
        E 0 80 60 00
        E 0 80 61 00
        E 160 90 1f 60
        E 0 90 56 60
        E 0 90 62 60
        E 80 80 1f 00
        E 0 80 56 00
        E 0 80 62 00
        E 160 80 78 00
        E 0 80 79 00
        E 0 80 7a 00
        E 0 80 7b 00
        E 0 80 7c 00
        E 0 90 18 60
        E 0 90 1d 60
        E 0 90 3d 60
        E 0 90 48 60
        E 0 90 49 60
        E 0 90 54 60
        E 0 90 55 60
        E 0 90 60 60
        E 0 90 61 60
        E 80 80 18 00
        E 0 80 1d 00
        E 0 80 3d 00
        E 0 80 48 00
        E 0 80 49 00
        E 0 80 54 00
        E 0 80 55 00
        E 0 80 60 00
        E 0 80 61 00
        E 160 90 19 60
        E 0 90 1d 60
        E 0 90 55 60
        E 0 90 61 60
        E 80 80 1d 00
        E 0 80 55 00
        E 0 80 61 00
        E 160 80 19 00
        E 0 90 18 60
        E 0 90 1d 60
        E 0 90 49 60
        E 0 90 54 60
        E 0 90 55 60
        E 0 90 60 60
        E 0 90 61 60
        E 80 80 18 00
        E 0 80 1d 00
        E 0 80 49 00
        E 0 80 54 00
        E 0 80 55 00
        E 0 80 60 00
        E 0 80 61 00
        E 80 90 1c 60
        E 0 90 61 60
        E 80 80 1c 00
        E 0 80 61 00
        E 0 90 19 60
        E 0 90 1d 60
        E 0 90 55 60
        E 0 90 61 60
        E 80 80 1d 00
        E 0 80 55 00
        E 0 80 61 00
        E 80 90 1c 60
        E 0 90 61 60
        E 80 80 19 00
        E 0 80 1c 00
        E 0 80 61 00
        E 0 90 18 60
        E 0 90 1d 60
        E 0 90 3d 60
        E 0 90 49 60
        E 0 90 54 60
        E 0 90 55 60
        E 0 90 60 60
        E 0 90 61 60
        E 80 80 18 00
        E 0 80 1d 00
        E 0 80 3d 00
        E 0 80 49 00
        E 0 80 54 00
        E 0 80 55 00
        E 0 80 60 00
        E 0 80 61 00
        E 160 90 19 60
        E 0 90 1d 60
        E 0 90 55 60
        E 0 90 61 60
        E 80 80 1d 00
        E 0 80 55 00
        E 0 80 61 00
        E 160 80 19 00
        E 0 90 18 60
        E 0 90 1d 60
        E 0 90 49 60
        E 0 90 54 60
        E 0 90 55 60
        E 0 90 60 60
        E 0 90 61 60
        E 80 80 18 00
        E 0 80 1d 00
        E 0 80 49 00
        E 0 80 54 00
        E 0 80 55 00
        E 0 80 60 00
        E 0 80 61 00
        E 80 90 1c 60
        E 0 90 61 60
        E 80 80 1c 00
        E 0 80 61 00
        E 0 90 19 60
        E 0 90 1d 60
        E 0 90 55 60
        E 0 90 61 60
        E 80 80 1d 00
        E 0 80 55 00
        E 0 80 61 00
        E 80 90 1c 60
        E 0 90 61 60
        E 80 80 19 00
        E 0 80 1c 00
        E 0 80 61 00
        E 0 90 18 60
        E 0 90 1d 60
        E 0 90 3d 60
        E 0 90 48 60
        E 0 90 49 60
        E 0 90 54 60
        E 0 90 55 60
        E 0 90 60 60
        E 0 90 61 60
        E 80 80 18 00
        E 0 80 1d 00
        E 0 80 3d 00
        E 0 80 48 00
        E 0 80 49 00
        E 0 80 54 00
        E 0 80 55 00
        E 0 80 60 00
        E 0 80 61 00
        E 160 90 19 60
        E 0 90 1d 60
        E 0 90 55 60
        E 0 90 61 60
        E 80 80 1d 00
        E 0 80 55 00
        E 0 80 61 00
        E 160 80 19 00
        E 0 90 18 60
        E 0 90 1d 60
        E 0 90 49 60
        E 0 90 54 60
        E 0 90 55 60
        E 0 90 60 60
        E 0 90 61 60
        E 80 80 18 00
        E 0 80 1d 00
        E 0 80 49 00
        E 0 80 54 00
        E 0 80 55 00
        E 0 80 60 00
        E 0 80 61 00
        E 80 90 1c 60
        E 0 90 61 60
        E 80 80 1c 00
        E 0 80 61 00
        E 0 90 19 60
        E 0 90 1d 60
        E 0 90 55 60
        E 0 90 61 60
        E 80 80 1d 00
        E 0 80 55 00
        E 0 80 61 00
        E 80 90 1c 60
        E 0 90 61 60
        E 80 80 19 00
        E 0 80 1c 00
        E 0 80 61 00
        E 0 90 18 60
        E 0 90 1d 60
        E 0 90 3d 60
        E 0 90 49 60
        E 0 90 54 60
        E 0 90 55 60
        E 0 90 60 60
        E 0 90 61 60
        E 80 80 18 00
        E 0 80 1d 00
        E 0 80 3d 00
        E 0 80 49 00
        E 0 80 54 00
        E 0 80 55 00
        E 0 80 60 00
        E 0 80 61 00
        E 80 90 1c 60
        E 0 90 61 60
        E 80 80 1c 00
        E 0 80 61 00
        E 0 90 19 60
        E 0 90 1d 60
        E 0 90 55 60
        E 0 90 61 60
        E 80 80 1d 00
        E 0 80 55 00
        E 0 80 61 00
        E 80 90 1c 60
        E 0 90 61 60
        E 80 80 19 00
        E 0 80 1c 00
        E 0 80 61 00
        E 0 90 18 60
        E 0 90 1d 60
        E 0 90 49 60
        E 0 90 54 60
        E 0 90 55 60
        E 0 90 60 60
        E 0 90 61 60
        E 80 80 18 00
        E 0 80 1d 00
        E 0 80 49 00
        E 0 80 54 00
        E 0 80 55 00
        E 0 80 60 00
        E 0 80 61 00
        E 160 90 19 60
        E 0 90 1d 60
        E 0 90 55 60
        E 0 90 61 60
        E 80 80 1d 00
        E 0 80 55 00
        E 0 80 61 00
        E 160 80 19 00
        E 0 90 18 60
        E 0 90 26 60
        E 0 90 40 60
        E 0 90 48 60
        E 0 90 4c 60
        E 0 90 54 60
        E 0 90 58 60
        E 0 90 60 60
        E 0 90 64 60
        E 80 80 18 00
        E 0 80 26 00
        E 0 80 40 00
        E 0 80 48 00
        E 0 80 4c 00
        E 0 80 54 00
        E 0 80 58 00
        E 0 80 60 00
        E 0 80 64 00
        E 160 90 19 60
        E 0 90 1d 60
        E 0 90 55 60
        E 0 90 61 60
        E 80 80 1d 00
        E 0 80 55 00
        E 0 80 61 00
        E 160 80 19 00
        E 0 90 18 60
        E 0 90 1d 60
        E 0 90 49 60
        E 0 90 54 60
        E 0 90 55 60
        E 0 90 60 60
        E 0 90 61 60
        E 80 80 18 00
        E 0 80 1d 00
        E 0 80 49 00
        E 0 80 54 00
        E 0 80 55 00
        E 0 80 60 00
        E 0 80 61 00
        E 80 90 1c 60
        E 0 90 61 60
        E 80 80 1c 00
        E 0 80 61 00
        E 0 90 19 60
        E 0 90 1d 60
        E 0 90 55 60
        E 0 90 61 60
        E 80 80 1d 00
        E 0 80 55 00
        E 0 80 61 00
        E 80 90 1c 60
        E 0 90 61 60
        E 80 80 19 00
        E 0 80 1c 00
        E 0 80 61 00
        E 0 90 18 60
        E 0 90 1d 60
        E 0 90 3d 60
        E 0 90 49 60
        E 0 90 54 60
        E 0 90 55 60
        E 0 90 60 60
        E 0 90 61 60
        E 0 90 74 60
        E 80 80 18 00
        E 0 80 1d 00
        E 0 80 3d 00
        E 0 80 49 00
        E 0 80 54 00
        E 0 80 55 00
        E 0 80 60 00
        E 0 80 61 00
        E 160 90 19 60
        E 0 90 1d 60
        E 0 90 55 60
        E 0 90 61 60
        E 80 80 1d 00
        E 0 80 55 00
        E 0 80 61 00
        E 160 80 19 00
        E 0 90 18 60
        E 0 90 1d 60
        E 0 90 49 60
        E 0 90 54 60
        E 0 90 55 60
        E 0 90 60 60
        E 0 90 61 60
        E 80 80 18 00
        E 0 80 1d 00
        E 0 80 49 00
        E 0 80 54 00
        E 0 80 55 00
        E 0 80 60 00
        E 0 80 61 00
        E 160 90 19 60
        E 0 90 1d 60
        E 0 90 55 60
        E 0 90 61 60
        E 80 80 1d 00
        E 0 80 55 00
        E 0 80 61 00
        E 40 90 18 60
        E 0 90 60 60
        E 80 80 18 00
        E 0 80 60 00
        E 40 80 74 00
        E 0 80 19 00
        E 0 90 18 60
        E 0 90 1d 60
        E 0 90 3d 60
        E 0 90 48 60
        E 0 90 49 60
        E 0 90 54 60
        E 0 90 55 60
        E 0 90 60 60
        E 0 90 61 60
        E 80 80 18 00
        E 0 80 1d 00
        E 0 80 3d 00
        E 0 80 48 00
        E 0 80 49 00
        E 0 80 54 00
        E 0 80 55 00
        E 0 80 60 00
        E 0 80 61 00
        E 160 90 19 60
        E 0 90 1d 60
        E 0 90 55 60
        E 0 90 61 60
        E 80 80 1d 00
        E 0 80 55 00
        E 0 80 61 00
        E 160 80 19 00
        E 0 90 18 60
        E 0 90 1d 60
        E 0 90 49 60
        E 0 90 54 60
        E 0 90 55 60
        E 0 90 60 60
        E 0 90 61 60
        E 80 80 18 00
        E 0 80 1d 00
        E 0 80 49 00
        E 0 80 54 00
        E 0 80 55 00
        E 0 80 60 00
        E 0 80 61 00
        E 80 90 1c 60
        E 0 90 61 60
        E 80 80 1c 00
        E 0 80 61 00
        E 0 90 19 60
        E 0 90 1d 60
        E 0 90 55 60
        E 0 90 61 60
        E 80 80 1d 00
        E 0 80 55 00
        E 0 80 61 00
        E 80 90 1c 60
        E 0 90 61 60
        E 80 80 19 00
        E 0 80 1c 00
        E 0 80 61 00
        E 0 90 18 60
        E 0 90 1d 60
        E 0 90 3d 60
        E 0 90 49 60
        E 0 90 54 60
        E 0 90 55 60
        E 0 90 60 60
        E 0 90 61 60
        E 0 90 78 60
        E 0 90 79 60
        E 0 90 7a 60
        E 0 90 7b 60
        E 0 90 7c 60
        E 80 80 18 00
        E 0 80 1d 00
        E 0 80 3d 00
        E 0 80 49 00
        E 0 80 54 00
        E 0 80 55 00
        E 0 80 60 00
        E 0 80 61 00
        E 160 90 19 60
        E 0 90 1d 60
        E 0 90 55 60
        E 0 90 61 60
        E 80 80 1d 00
        E 0 80 55 00
        E 0 80 61 00
        E 160 80 19 00
        E 0 90 18 60
        E 0 90 1d 60
        E 0 90 49 60
        E 0 90 54 60
        E 0 90 55 60
        E 0 90 60 60
        E 0 90 61 60
        E 80 80 18 00
        E 0 80 1d 00
        E 0 80 49 00
        E 0 80 54 00
        E 0 80 55 00
        E 0 80 60 00
        E 0 80 61 00
        E 160 90 19 60
        E 0 90 1d 60
        E 0 90 55 60
        E 0 90 61 60
        E 80 80 1d 00
        E 0 80 55 00
        E 0 80 61 00
        E 160 80 78 00
        E 0 80 79 00
        E 0 80 7a 00
        E 0 80 7b 00
        E 0 80 7c 00
        E 0 80 19 00
        E 0 90 18 60
        E 0 90 26 60
        E 0 90 40 60
        E 0 90 48 60
        E 0 90 4c 60
        E 0 90 54 60
        E 0 90 58 60
        E 0 90 60 60
        E 0 90 64 60
        E 80 80 18 00
        E 0 80 26 00
        E 0 80 40 00
        E 0 80 48 00
        E 0 80 4c 00
        E 0 80 54 00
        E 0 80 58 00
        E 0 80 60 00
        E 0 80 64 00
        E 160 90 19 60
        E 0 90 1d 60
        E 0 90 55 60
        E 0 90 61 60
        E 80 80 1d 00
        E 0 80 55 00
        E 0 80 61 00
        E 160 80 19 00
        E 0 90 18 60
        E 0 90 1d 60
        E 0 90 49 60
        E 0 90 54 60
        E 0 90 55 60
        E 0 90 60 60
        E 0 90 61 60
        E 80 80 18 00
        E 0 80 1d 00
        E 0 80 49 00
        E 0 80 54 00
        E 0 80 55 00
        E 0 80 60 00
        E 0 80 61 00
        E 80 90 1c 60
        E 0 90 61 60
        E 80 80 1c 00
        E 0 80 61 00
        E 0 90 19 60
        E 0 90 1d 60
        E 0 90 55 60
        E 0 90 61 60
        E 80 80 1d 00
        E 0 80 55 00
        E 0 80 61 00
        E 80 90 1c 60
        E 0 90 61 60
        E 80 80 19 00
        E 0 80 1c 00
        E 0 80 61 00
        E 0 90 18 60
        E 0 90 1d 60
        E 0 90 3d 60
        E 0 90 49 60
        E 0 90 54 60
        E 0 90 55 60
        E 0 90 60 60
        E 0 90 61 60
        E 80 80 18 00
        E 0 80 1d 00
        E 0 80 3d 00
        E 0 80 49 00
        E 0 80 54 00
        E 0 80 55 00
        E 0 80 60 00
        E 0 80 61 00
        E 160 90 19 60
        E 0 90 1d 60
        E 0 90 55 60
        E 0 90 61 60
        E 80 80 1d 00
        E 0 80 55 00
        E 0 80 61 00
        E 160 80 19 00
        E 0 90 18 60
        E 0 90 1d 60
        E 0 90 49 60
        E 0 90 54 60
        E 0 90 55 60
        E 0 90 60 60
        E 0 90 61 60
        E 80 80 18 00
        E 0 80 1d 00
        E 0 80 49 00
        E 0 80 54 00
        E 0 80 55 00
        E 0 80 60 00
        E 0 80 61 00
        E 80 90 1c 60
        E 0 90 61 60
        E 80 80 1c 00
        E 0 80 61 00
        E 0 90 19 60
        E 0 90 1d 60
        E 0 90 55 60
        E 0 90 61 60
        E 80 80 1d 00
        E 0 80 55 00
        E 0 80 61 00
        E 80 90 1c 60
        E 0 90 61 60
        E 80 80 19 00
        E 0 80 1c 00
        E 0 80 61 00
        E 0 90 18 60
        E 0 90 1d 60
        E 0 90 3d 60
        E 0 90 48 60
        E 0 90 49 60
        E 0 90 54 60
        E 0 90 55 60
        E 0 90 60 60
        E 0 90 61 60
        E 80 80 18 00
        E 0 80 1d 00
        E 0 80 3d 00
        E 0 80 48 00
        E 0 80 49 00
        E 0 80 54 00
        E 0 80 55 00
        E 0 80 60 00
        E 0 80 61 00
        E 160 90 19 60
        E 0 90 1d 60
        E 0 90 55 60
        E 0 90 61 60
        E 80 80 1d 00
        E 0 80 55 00
        E 0 80 61 00
        E 160 80 19 00
        E 0 90 18 60
        E 0 90 1d 60
        E 0 90 49 60
        E 0 90 54 60
        E 0 90 55 60
        E 0 90 60 60
        E 0 90 61 60
        E 80 80 18 00
        E 0 80 1d 00
        E 0 80 49 00
        E 0 80 54 00
        E 0 80 55 00
        E 0 80 60 00
        E 0 80 61 00
        E 80 90 1e 60
        E 0 90 62 60
        E 80 80 1e 00
        E 0 80 62 00
        E 0 90 1f 60
        E 0 90 56 60
        E 0 90 62 60
        E 80 80 1f 00
        E 0 80 56 00
        E 0 80 62 00
        E 80 90 1e 60
        E 0 90 62 60
        E 80 80 1e 00
        E 0 80 62 00
        E 0 90 1f 60
        E 0 90 56 60
        E 0 90 62 60
        E 80 80 1f 00
        E 0 80 56 00
        E 0 80 62 00
        E 160 90 18 60
        E 0 90 28 60
        E 0 90 3f 60
        E 0 90 4b 60
        E 0 90 54 60
        E 0 90 57 60
        E 0 90 60 60
        E 0 90 63 60
        E 80 80 18 00
        E 0 80 28 00
        E 0 80 3f 00
        E 0 80 4b 00
        E 0 80 54 00
        E 0 80 57 00
        E 0 80 60 00
        E 0 80 63 00
        <X 159 0
          /wFbaWRsZV9yZWFsdGltZV0=
        >
        E 6240 b0 7b 00
        GUID {96C66689-C478-4E3C-9750-545DBF094072}
        IGNTEMPO 0 120.00000000 4 4
        SRCCOLOR 19
        VELLANE 132 128 60
        COLORMAP "C:\Program Files\REAPER (x64)\Data\color_maps\rockband_guitarbass.png"
        CFGEDITVIEW -2795.288962 30.920627 0 12 0 0 0
        CFGEDIT 1 1 0 1 1 0 1 1 1 1 1 0.25000000 -8 -8 1544 872 0 2 1 1 0.00000000 0 1 0 0 0.500000 0 0 1.000000 64
        KEYSNAP 0 6 "102030050700" 0 "Pentatonic"
        EVTFILTER 0 -1 -1 -1 -1 0 1 0 0 -1.00000000 -1.00000000
      >
    >
  >
  <TRACK '{94D070DF-A4DA-4ECE-9B32-ABFA644A42E8}'
    NAME "PART BASS"
    PEAKCOL 16576
    BEAT -1
    AUTOMODE 0
    VOLPAN 1.00000000000000 0.00000000000000 -1.00000000000000 -1.00000000000000 1.00000000000000
    MUTESOLO 0 0 0
    IPHASE 0
    ISBUS 0 0
    BUSCOMP 0 0
    SHOWINMIX 1 0.666700 0.500000 1 0.500000 -1 -1 -1
    FREEMODE 0
    SEL 0
    REC 0 0 0 0 0 0 0
    VU 2
    TRACKHEIGHT 0 0
    INQ 0 0 0 0.5000000000 100 0 0 100
    NCHAN 2
    FX 1
    TRACKID {94D070DF-A4DA-4ECE-9B32-ABFA644A42E8}
    PERF 0
    MIDIOUT -1
    <MIDINOTENAMES
      0 127 "TRILL MARKER"
      0 126 "TREMOLO MARKER"
      0 125 "---"
      0 124 "BRE"
      0 123 "BRE"
      0 122 "BRE"
      0 121 "BRE"
      0 120 "BRE (use all 5)"
      0 119 "----"
      0 116 "OVERDRIVE"
      0 115 "----"
      0 103 "Solo Marker"
      0 102 "Force HOPO Off"
      0 101 "Force HOPO On"
      0 100 "EXPERT Orange"
      0 99 "EXPERT Blue"
      0 98 "EXPERT Yellow"
      0 97 "EXPERT Red"
      0 96 "EXPERT Green"
      0 95 "----"
      0 90 "Force HOPO Off"
      0 89 "Force HOPO On"
      0 88 "HARD Orange"
      0 87 "HARD Blue"
      0 86 "HARD Yellow"
      0 85 "HARD Red"
      0 84 "HARD Green"
      0 77 "----"
      0 76 "MEDIUM Orange"
      0 75 "MEDIUM Blue"
      0 74 "MEDIUM Yellow"
      0 73 "MEDIUM Red"
      0 72 "MEDIUM Green"
      0 65 "----"
      0 64 "EASY Orange"
      0 63 "EASY Blue"
      0 62 "EASY Yellow"
      0 61 "EASY Red"
      0 60 "EASY Green"
      0 59 "Fret 12"
      0 57 "Fret 11"
      0 56 "Fret 10"
      0 55 "Fret 9"
      0 53 "Fret 8"
      0 52 "Fret 7"
      0 50 "Fret 6"
      0 49 "Fret 5"
      0 47 "Fret 4"
      0 45 "Fret 3"
      0 43 "Fret 2"
      0 40 "Fret 1"
    >
    MAINSEND 1 0
    <FXCHAIN
      WNDRECT 0 43 891 559
      SHOW 0
      LASTSEL 0
      DOCKED 0
      BYPASS 0 0
      <VST "VSTi: RBN Preview (RBN)" "rbprev_vst64.dll" 0 ""
        dnBicu5e7f4AAAAAAgAAAAEAAAAAAAAAAgAAAAAAAAAEAAAAAQAAAA==
        AAAQAAMAqgAAABAAAAA=
      >
      FLOATPOS 0 0 0 0
      FXID {43617FB3-E601-470C-8559-7137C3C12A16}
      WAK 0
    >
    <ITEM
      POSITION 0.00000000000000
      SNAPOFFS 0.00000000000000
      LENGTH 36.31800000000000
      LOOP 0
      ALLTAKES 0
      SEL 0
      FADEIN 1 0.000000 0.000000 1 0
      FADEOUT 1 0.000000 0.000000 1 0
      MUTE 0
      IGUID {53AE1EDA-D6B5-44B3-8AAC-116078684CA3}
      IID 2
      NAME "PART BASS"
      VOLPAN 1.000000 0.000000 1.000000 -1.000000
      SOFFS 0.00000000000000 0.00000000000000
      PLAYRATE 1.00000000000000 1 0.00000000000000 -1
      CHANMODE 0
      GUID {E139C46F-C853-4177-B1CF-991F0B394617}
      <SOURCE MIDI
        HASDATA 1 480 QN
        POOLEDEVTS {A09C2232-AB72-4F45-8EC9-00A4E41A0233}
        <X 0 0
          /wNQQVJUIEJBU1M=
        >
        <X 5760 0
          /wFbcGxheV0=
        >
        E 0 90 35 60
        E 0 90 3d 60
        E 0 90 4b 60
        E 0 90 57 60
        E 0 90 63 60
        E 120 80 35 00
        E 0 80 3d 00
        E 0 80 4b 00
        E 0 80 57 00
        E 0 80 63 00
        E 120 90 33 60
        E 0 90 56 60
        E 0 90 59 60
        E 0 90 62 60
        E 0 90 65 60
        E 120 80 33 00
        E 0 80 56 00
        E 0 80 59 00
        E 0 80 62 00
        E 0 80 65 00
        E 120 90 35 60
        E 0 90 49 60
        E 0 90 55 60
        E 0 90 61 60
        E 120 80 35 00
        E 0 80 49 00
        E 0 80 55 00
        E 0 80 61 00
        E 120 90 33 60
        E 0 90 54 60
        E 0 90 59 60
        E 0 90 60 60
        E 0 90 65 60
        E 120 80 33 00
        E 0 80 54 00
        E 0 80 59 00
        E 0 80 60 00
        E 0 80 65 00
        E 120 90 35 60
        E 0 90 3d 60
        E 0 90 4b 60
        E 0 90 57 60
        E 0 90 63 60
        E 120 80 35 00
        E 0 80 3d 00
        E 0 80 4b 00
        E 0 80 57 00
        E 0 80 63 00
        E 120 90 33 60
        E 0 90 56 60
        E 0 90 59 60
        E 0 90 62 60
        E 0 90 65 60
        E 120 80 33 00
        E 0 80 56 00
        E 0 80 59 00
        E 0 80 62 00
        E 0 80 65 00
        E 120 90 35 60
        E 0 90 49 60
        E 0 90 55 60
        E 0 90 61 60
        E 120 80 35 00
        E 0 80 49 00
        E 0 80 55 00
        E 0 80 61 00
        E 120 90 33 60
        E 0 90 54 60
        E 0 90 59 60
        E 0 90 60 60
        E 0 90 65 60
        E 120 80 33 00
        E 0 80 54 00
        E 0 80 59 00
        E 0 80 60 00
        E 0 80 65 00
        E 120 90 35 60
        E 0 90 3d 60
        E 0 90 4b 60
        E 0 90 57 60
        E 0 90 63 60
        E 0 90 74 60
        E 120 80 35 00
        E 0 80 3d 00
        E 0 80 4b 00
        E 0 80 57 00
        E 0 80 63 00
        E 120 90 33 60
        E 0 90 56 60
        E 0 90 59 60
        E 0 90 62 60
        E 0 90 65 60
        E 120 80 33 00
        E 0 80 56 00
        E 0 80 59 00
        E 0 80 62 00
        E 0 80 65 00
        E 120 90 35 60
        E 0 90 49 60
        E 0 90 55 60
        E 0 90 61 60
        E 120 80 35 00
        E 0 80 49 00
        E 0 80 55 00
        E 0 80 61 00
        E 120 90 33 60
        E 0 90 54 60
        E 0 90 59 60
        E 0 90 60 60
        E 0 90 65 60
        E 120 80 54 00
        E 0 80 59 00
        E 0 80 60 00
        E 0 80 65 00
        E 120 90 3c 60
        E 0 90 4a 60
        E 0 90 56 60
        E 0 90 59 60
        E 0 90 62 60
        E 0 90 65 60
        E 120 80 3c 00
        E 0 80 4a 00
        E 0 80 56 00
        E 0 80 59 00
        E 0 80 62 00
        E 0 80 65 00
        E 720 80 33 00
        E 120 80 74 00
        E 0 90 35 60
        E 0 90 3d 60
        E 0 90 4b 60
        E 0 90 57 60
        E 0 90 63 60
        E 120 80 35 00
        E 0 80 3d 00
        E 0 80 4b 00
        E 0 80 57 00
        E 0 80 63 00
        E 120 90 33 60
        E 0 90 56 60
        E 0 90 59 60
        E 0 90 62 60
        E 0 90 65 60
        E 120 80 33 00
        E 0 80 56 00
        E 0 80 59 00
        E 0 80 62 00
        E 0 80 65 00
        E 120 90 35 60
        E 0 90 49 60
        E 0 90 55 60
        E 0 90 61 60
        E 120 80 35 00
        E 0 80 49 00
        E 0 80 55 00
        E 0 80 61 00
        E 120 90 33 60
        E 0 90 54 60
        E 0 90 59 60
        E 0 90 60 60
        E 0 90 65 60
        E 120 80 33 00
        E 0 80 54 00
        E 0 80 59 00
        E 0 80 60 00
        E 0 80 65 00
        E 120 90 35 60
        E 0 90 3d 60
        E 0 90 4b 60
        E 0 90 57 60
        E 0 90 63 60
        E 120 80 35 00
        E 0 80 3d 00
        E 0 80 4b 00
        E 0 80 57 00
        E 0 80 63 00
        E 120 90 33 60
        E 0 90 56 60
        E 0 90 59 60
        E 0 90 62 60
        E 0 90 65 60
        E 120 80 33 00
        E 0 80 56 00
        E 0 80 59 00
        E 0 80 62 00
        E 0 80 65 00
        E 120 90 35 60
        E 0 90 49 60
        E 0 90 55 60
        E 0 90 61 60
        E 120 80 35 00
        E 0 80 49 00
        E 0 80 55 00
        E 0 80 61 00
        E 120 90 33 60
        E 0 90 54 60
        E 0 90 59 60
        E 0 90 60 60
        E 0 90 65 60
        E 120 80 33 00
        E 0 80 54 00
        E 0 80 59 00
        E 0 80 60 00
        E 0 80 65 00
        E 120 90 35 60
        E 0 90 3d 60
        E 0 90 4b 60
        E 0 90 57 60
        E 0 90 63 60
        E 120 80 35 00
        E 0 80 3d 00
        E 0 80 4b 00
        E 0 80 57 00
        E 0 80 63 00
        E 120 90 33 60
        E 0 90 56 60
        E 0 90 59 60
        E 0 90 62 60
        E 0 90 65 60
        E 120 80 33 00
        E 0 80 56 00
        E 0 80 59 00
        E 0 80 62 00
        E 0 80 65 00
        E 120 90 35 60
        E 0 90 49 60
        E 0 90 55 60
        E 0 90 61 60
        E 120 80 35 00
        E 0 80 49 00
        E 0 80 55 00
        E 0 80 61 00
        E 120 90 33 60
        E 0 90 54 60
        E 0 90 59 60
        E 0 90 60 60
        E 0 90 65 60
        E 120 80 33 00
        E 0 80 54 00
        E 0 80 59 00
        E 0 80 60 00
        E 0 80 65 00
        E 120 90 35 60
        E 0 90 3d 60
        E 0 90 4b 60
        E 0 90 57 60
        E 0 90 63 60
        E 120 80 35 00
        E 0 80 3d 00
        E 0 80 4b 00
        E 0 80 57 00
        E 0 80 63 00
        E 120 90 33 60
        E 0 90 56 60
        E 0 90 59 60
        E 0 90 62 60
        E 0 90 65 60
        E 120 80 33 00
        E 0 80 56 00
        E 0 80 59 00
        E 0 80 62 00
        E 0 80 65 00
        E 120 90 37 60
        E 0 90 4c 60
        E 0 90 58 60
        E 0 90 64 60
        E 120 80 37 00
        E 0 80 4c 00
        E 0 80 58 00
        E 0 80 64 00
        E 120 90 35 60
        E 0 90 57 60
        E 0 90 59 60
        E 0 90 63 60
        E 0 90 65 60
        E 120 80 35 00
        E 0 80 57 00
        E 0 80 59 00
        E 0 80 63 00
        E 0 80 65 00
        E 120 90 37 60
        E 0 90 3e 60
        E 0 90 4a 60
        E 0 90 56 60
        E 0 90 62 60
        E 120 80 3e 00
        E 0 80 4a 00
        E 0 80 56 00
        E 0 80 62 00
        E 120 90 4a 60
        E 0 90 56 60
        E 0 90 62 60
        E 120 80 4a 00
        E 0 80 56 00
        E 0 80 62 00
        E 120 90 4a 60
        E 0 90 56 60
        E 0 90 62 60
        E 120 80 4a 00
        E 0 80 56 00
        E 0 80 62 00
        E 120 90 56 60
        E 0 90 62 60
        E 120 80 37 00
        E 0 80 56 00
        E 0 80 62 00
        E 120 90 38 60
        E 0 90 3f 60
        E 0 90 4b 60
        E 0 90 57 60
        E 0 90 63 60
        E 120 80 3f 00
        E 0 80 4b 00
        E 0 80 57 00
        E 0 80 63 00
        E 0 90 63 60
        E 120 80 63 00
        E 0 90 4b 60
        E 0 90 57 60
        E 0 90 63 60
        E 120 80 4b 00
        E 0 80 57 00
        E 0 80 63 00
        E 120 90 4b 60
        E 0 90 57 60
        E 0 90 63 60
        E 120 80 4b 00
        E 0 80 57 00
        E 0 80 63 00
        E 240 80 38 00
        E 120 90 37 60
        E 0 90 3e 60
        E 0 90 4a 60
        E 0 90 56 60
        E 0 90 62 60
        E 0 90 74 60
        E 120 80 3e 00
        E 0 80 4a 00
        E 0 80 56 00
        E 0 80 62 00
        E 360 90 4a 60
        E 0 90 56 60
        E 0 90 62 60
        E 120 80 4a 00
        E 0 80 56 00
        E 0 80 62 00
        E 240 80 37 00
        E 120 90 38 60
        E 0 90 3f 60
        E 0 90 4b 60
        E 0 90 57 60
        E 0 90 63 60
        E 120 80 3f 00
        E 0 80 4b 00
        E 0 80 57 00
        E 0 80 63 00
        E 0 90 63 60
        E 120 80 63 00
        E 0 90 57 60
        E 0 90 63 60
        E 120 80 57 00
        E 0 80 63 00
        E 0 90 63 60
        E 120 80 38 00
        E 0 80 63 00
        E 0 90 37 60
        E 0 90 49 60
        E 0 90 55 60
        E 0 90 61 60
        E 120 80 37 00
        E 0 80 49 00
        E 0 80 55 00
        E 0 80 61 00
        E 0 90 34 60
        E 120 80 34 00
        E 0 90 30 60
        E 0 90 54 60
        E 0 90 60 60
        E 120 80 30 00
        E 0 80 54 00
        E 0 80 60 00
        E 120 80 74 00
        E 0 90 35 60
        E 0 90 3d 60
        E 0 90 4b 60
        E 0 90 57 60
        E 0 90 63 60
        E 120 80 35 00
        E 0 80 3d 00
        E 0 80 4b 00
        E 0 80 57 00
        E 0 80 63 00
        E 120 90 33 60
        E 0 90 56 60
        E 0 90 59 60
        E 0 90 62 60
        E 0 90 65 60
        E 120 80 33 00
        E 0 80 56 00
        E 0 80 59 00
        E 0 80 62 00
        E 0 80 65 00
        E 120 90 35 60
        E 0 90 49 60
        E 0 90 55 60
        E 0 90 61 60
        E 120 80 35 00
        E 0 80 49 00
        E 0 80 55 00
        E 0 80 61 00
        E 120 90 33 60
        E 0 90 54 60
        E 0 90 59 60
        E 0 90 60 60
        E 0 90 65 60
        E 120 80 33 00
        E 0 80 54 00
        E 0 80 59 00
        E 0 80 60 00
        E 0 80 65 00
        E 120 90 35 60
        E 0 90 3d 60
        E 0 90 4b 60
        E 0 90 57 60
        E 0 90 63 60
        E 120 80 35 00
        E 0 80 3d 00
        E 0 80 4b 00
        E 0 80 57 00
        E 0 80 63 00
        E 120 90 33 60
        E 0 90 56 60
        E 0 90 59 60
        E 0 90 62 60
        E 0 90 65 60
        E 120 80 33 00
        E 0 80 56 00
        E 0 80 59 00
        E 0 80 62 00
        E 0 80 65 00
        E 120 90 35 60
        E 0 90 49 60
        E 0 90 55 60
        E 0 90 61 60
        E 120 80 35 00
        E 0 80 49 00
        E 0 80 55 00
        E 0 80 61 00
        E 120 90 33 60
        E 0 90 54 60
        E 0 90 59 60
        E 0 90 60 60
        E 0 90 65 60
        E 120 80 33 00
        E 0 80 54 00
        E 0 80 59 00
        E 0 80 60 00
        E 0 80 65 00
        E 120 90 35 60
        E 0 90 3d 60
        E 0 90 4b 60
        E 0 90 57 60
        E 0 90 63 60
        E 120 80 35 00
        E 0 80 3d 00
        E 0 80 4b 00
        E 0 80 57 00
        E 0 80 63 00
        E 120 90 33 60
        E 0 90 56 60
        E 0 90 59 60
        E 0 90 62 60
        E 0 90 65 60
        E 120 80 33 00
        E 0 80 56 00
        E 0 80 59 00
        E 0 80 62 00
        E 0 80 65 00
        E 120 90 35 60
        E 0 90 49 60
        E 0 90 55 60
        E 0 90 61 60
        E 120 80 35 00
        E 0 80 49 00
        E 0 80 55 00
        E 0 80 61 00
        E 120 90 33 60
        E 0 90 54 60
        E 0 90 59 60
        E 0 90 60 60
        E 0 90 65 60
        E 120 80 33 00
        E 0 80 54 00
        E 0 80 59 00
        E 0 80 60 00
        E 0 80 65 00
        E 120 90 35 60
        E 0 90 3d 60
        E 0 90 4b 60
        E 0 90 57 60
        E 0 90 63 60
        E 120 80 35 00
        E 0 80 3d 00
        E 0 80 4b 00
        E 0 80 57 00
        E 0 80 63 00
        E 120 90 33 60
        E 0 90 56 60
        E 0 90 59 60
        E 0 90 62 60
        E 0 90 65 60
        E 120 80 33 00
        E 0 80 56 00
        E 0 80 59 00
        E 0 80 62 00
        E 0 80 65 00
        E 120 90 37 60
        E 0 90 4c 60
        E 0 90 58 60
        E 0 90 64 60
        E 120 80 37 00
        E 0 80 4c 00
        E 0 80 58 00
        E 0 80 64 00
        E 120 90 35 60
        E 0 90 57 60
        E 0 90 59 60
        E 0 90 63 60
        E 0 90 65 60
        E 120 80 35 00
        E 0 80 57 00
        E 0 80 59 00
        E 0 80 63 00
        E 0 80 65 00
        E 120 90 37 60
        E 0 90 3e 60
        E 0 90 4a 60
        E 0 90 56 60
        E 0 90 62 60
        E 120 80 3e 00
        E 0 80 4a 00
        E 0 80 56 00
        E 0 80 62 00
        E 120 90 4a 60
        E 0 90 56 60
        E 0 90 62 60
        E 120 80 4a 00
        E 0 80 56 00
        E 0 80 62 00
        E 120 90 4a 60
        E 0 90 56 60
        E 0 90 62 60
        E 120 80 4a 00
        E 0 80 56 00
        E 0 80 62 00
        E 120 90 56 60
        E 0 90 62 60
        E 120 80 37 00
        E 0 80 56 00
        E 0 80 62 00
        E 120 90 38 60
        E 0 90 3f 60
        E 0 90 4b 60
        E 0 90 57 60
        E 0 90 63 60
        E 0 90 74 60
        E 120 80 3f 00
        E 0 80 4b 00
        E 0 80 57 00
        E 0 80 63 00
        E 0 90 63 60
        E 120 80 63 00
        E 0 90 4b 60
        E 0 90 57 60
        E 0 90 63 60
        E 120 80 4b 00
        E 0 80 57 00
        E 0 80 63 00
        E 120 90 4b 60
        E 0 90 57 60
        E 0 90 63 60
        E 120 80 4b 00
        E 0 80 57 00
        E 0 80 63 00
        E 120 90 57 60
        E 0 90 63 60
        E 120 80 38 00
        E 0 80 57 00
        E 0 80 63 00
        E 120 80 74 00
        E 0 90 37 60
        E 0 90 3e 60
        E 0 90 4a 60
        E 0 90 56 60
        E 0 90 62 60
        E 120 80 3e 00
        E 0 80 4a 00
        E 0 80 56 00
        E 0 80 62 00
        E 120 90 4a 60
        E 0 90 56 60
        E 0 90 62 60
        E 120 80 4a 00
        E 0 80 56 00
        E 0 80 62 00
        E 120 90 4a 60
        E 0 90 56 60
        E 0 90 62 60
        E 120 80 4a 00
        E 0 80 56 00
        E 0 80 62 00
        E 0 90 63 60
        E 120 80 63 00
        E 0 90 57 60
        E 0 90 63 60
        E 120 80 37 00
        E 0 80 57 00
        E 0 80 63 00
        E 120 90 35 60
        E 0 90 3f 60
        E 0 90 4a 60
        E 0 90 56 60
        E 0 90 62 60
        E 120 80 3f 00
        E 0 80 4a 00
        E 0 80 56 00
        E 0 80 62 00
        E 120 90 56 60
        E 0 90 62 60
        E 120 80 56 00
        E 0 80 62 00
        E 0 90 62 60
        E 120 80 62 00
        E 0 90 49 60
        E 0 90 55 60
        E 0 90 61 60
        E 120 80 35 00
        E 0 80 49 00
        E 0 80 55 00
        E 0 80 61 00
        E 120 90 30 60
        E 0 90 54 60
        E 0 90 59 60
        E 0 90 60 60
        E 0 90 65 60
        E 120 80 30 00
        E 0 80 54 00
        E 0 80 59 00
        E 0 80 60 00
        E 0 80 65 00
        E 120 90 35 60
        E 0 90 3d 60
        E 0 90 4b 60
        E 0 90 57 60
        E 0 90 63 60
        E 120 80 35 00
        E 0 80 3d 00
        E 0 80 4b 00
        E 0 80 57 00
        E 0 80 63 00
        E 120 90 33 60
        E 0 90 56 60
        E 0 90 59 60
        E 0 90 62 60
        E 0 90 65 60
        E 120 80 33 00
        E 0 80 56 00
        E 0 80 59 00
        E 0 80 62 00
        E 0 80 65 00
        E 120 90 35 60
        E 0 90 49 60
        E 0 90 55 60
        E 0 90 61 60
        E 120 80 35 00
        E 0 80 49 00
        E 0 80 55 00
        E 0 80 61 00
        E 120 90 33 60
        E 0 90 54 60
        E 0 90 59 60
        E 0 90 60 60
        E 0 90 65 60
        E 120 80 33 00
        E 0 80 54 00
        E 0 80 59 00
        E 0 80 60 00
        E 0 80 65 00
        E 120 90 35 60
        E 0 90 3d 60
        E 0 90 4b 60
        E 0 90 57 60
        E 0 90 63 60
        E 120 80 35 00
        E 0 80 3d 00
        E 0 80 4b 00
        E 0 80 57 00
        E 0 80 63 00
        E 120 90 33 60
        E 0 90 56 60
        E 0 90 59 60
        E 0 90 62 60
        E 0 90 65 60
        E 120 80 33 00
        E 0 80 56 00
        E 0 80 59 00
        E 0 80 62 00
        E 0 80 65 00
        E 120 90 35 60
        E 0 90 49 60
        E 0 90 55 60
        E 0 90 61 60
        E 120 80 35 00
        E 0 80 49 00
        E 0 80 55 00
        E 0 80 61 00
        E 120 90 33 60
        E 0 90 54 60
        E 0 90 59 60
        E 0 90 60 60
        E 0 90 65 60
        E 120 80 33 00
        E 0 80 54 00
        E 0 80 59 00
        E 0 80 60 00
        E 0 80 65 00
        E 120 90 35 60
        E 0 90 3d 60
        E 0 90 4b 60
        E 0 90 57 60
        E 0 90 63 60
        E 120 80 35 00
        E 0 80 3d 00
        E 0 80 4b 00
        E 0 80 57 00
        E 0 80 63 00
        E 120 90 33 60
        E 0 90 56 60
        E 0 90 59 60
        E 0 90 62 60
        E 0 90 65 60
        E 120 80 33 00
        E 0 80 56 00
        E 0 80 59 00
        E 0 80 62 00
        E 0 80 65 00
        E 120 90 35 60
        E 0 90 49 60
        E 0 90 55 60
        E 0 90 61 60
        E 120 80 35 00
        E 0 80 49 00
        E 0 80 55 00
        E 0 80 61 00
        E 120 90 33 60
        E 0 90 54 60
        E 0 90 59 60
        E 0 90 60 60
        E 0 90 65 60
        E 120 80 33 00
        E 0 80 54 00
        E 0 80 59 00
        E 0 80 60 00
        E 0 80 65 00
        E 120 90 35 60
        E 0 90 3d 60
        E 0 90 4b 60
        E 0 90 57 60
        E 0 90 63 60
        E 120 80 35 00
        E 0 80 3d 00
        E 0 80 4b 00
        E 0 80 57 00
        E 0 80 63 00
        E 120 90 33 60
        E 0 90 56 60
        E 0 90 59 60
        E 0 90 62 60
        E 0 90 65 60
        E 120 80 33 00
        E 0 80 56 00
        E 0 80 59 00
        E 0 80 62 00
        E 0 80 65 00
        E 120 90 37 60
        E 0 90 4c 60
        E 0 90 58 60
        E 0 90 64 60
        E 120 80 37 00
        E 0 80 4c 00
        E 0 80 58 00
        E 0 80 64 00
        E 120 90 35 60
        E 0 90 57 60
        E 0 90 59 60
        E 0 90 63 60
        E 0 90 65 60
        E 120 80 35 00
        E 0 80 57 00
        E 0 80 59 00
        E 0 80 63 00
        E 0 80 65 00
        E 120 90 39 60
        E 0 90 3e 60
        E 0 90 4a 60
        E 0 90 56 60
        E 0 90 62 60
        E 0 90 74 60
        E 120 80 3e 00
        E 0 80 4a 00
        E 0 80 56 00
        E 0 80 62 00
        E 120 90 4a 60
        E 0 90 56 60
        E 0 90 62 60
        E 120 80 4a 00
        E 0 80 56 00
        E 0 80 62 00
        E 120 90 4a 60
        E 0 90 56 60
        E 0 90 62 60
        E 120 80 4a 00
        E 0 80 56 00
        E 0 80 62 00
        E 120 90 56 60
        E 0 90 62 60
        E 120 80 39 00
        E 0 80 56 00
        E 0 80 62 00
        E 120 80 74 00
        E 0 90 3a 60
        E 0 90 3f 60
        E 0 90 4b 60
        E 0 90 57 60
        E 0 90 63 60
        E 120 80 3f 00
        E 0 80 4b 00
        E 0 80 57 00
        E 0 80 63 00
        E 0 90 63 60
        E 120 80 63 00
        E 0 90 4b 60
        E 0 90 57 60
        E 0 90 63 60
        E 120 80 4b 00
        E 0 80 57 00
        E 0 80 63 00
        E 120 90 4b 60
        E 0 90 57 60
        E 0 90 63 60
        E 120 80 4b 00
        E 0 80 57 00
        E 0 80 63 00
        E 240 80 3a 00
        E 120 90 39 60
        E 0 90 3e 60
        E 0 90 4a 60
        E 0 90 56 60
        E 0 90 62 60
        E 120 80 3e 00
        E 0 80 4a 00
        E 0 80 56 00
        E 0 80 62 00
        E 240 80 39 00
        E 120 90 3a 60
        E 0 90 4b 60
        E 0 90 57 60
        E 0 90 63 60
        E 120 80 4b 00
        E 0 80 57 00
        E 0 80 63 00
        E 0 90 63 60
        E 120 80 63 00
        E 0 90 57 60
        E 0 90 63 60
        E 120 80 3a 00
        E 0 80 57 00
        E 0 80 63 00
        E 0 90 63 60
        E 120 80 63 00
        E 0 90 39 60
        E 0 90 3e 60
        E 0 90 4a 60
        E 0 90 56 60
        E 0 90 62 60
        E 120 80 3e 00
        E 0 80 4a 00
        E 0 80 56 00
        E 0 80 62 00
        E 120 90 57 60
        E 0 90 63 60
        E 120 80 39 00
        E 0 80 57 00
        E 0 80 63 00
        E 120 90 37 60
        E 0 90 4a 60
        E 0 90 56 60
        E 0 90 62 60
        E 120 80 37 00
        E 0 80 4a 00
        E 0 80 56 00
        E 0 80 62 00
        E 120 90 30 60
        E 0 90 55 60
        E 0 90 59 60
        E 0 90 61 60
        E 0 90 65 60
        E 120 80 30 00
        E 0 80 55 00
        E 0 80 59 00
        E 0 80 61 00
        E 0 80 65 00
        E 120 90 35 60
        E 0 90 3d 60
        E 0 90 4b 60
        E 0 90 57 60
        E 0 90 63 60
        E 120 80 35 00
        E 0 80 3d 00
        E 0 80 4b 00
        E 0 80 57 00
        E 0 80 63 00
        E 120 90 33 60
        E 0 90 56 60
        E 0 90 59 60
        E 0 90 62 60
        E 0 90 65 60
        E 120 80 33 00
        E 0 80 56 00
        E 0 80 59 00
        E 0 80 62 00
        E 0 80 65 00
        E 120 90 35 60
        E 0 90 49 60
        E 0 90 55 60
        E 0 90 61 60
        E 120 80 35 00
        E 0 80 49 00
        E 0 80 55 00
        E 0 80 61 00
        E 120 90 33 60
        E 0 90 54 60
        E 0 90 59 60
        E 0 90 60 60
        E 0 90 65 60
        E 120 80 33 00
        E 0 80 54 00
        E 0 80 59 00
        E 0 80 60 00
        E 0 80 65 00
        E 120 90 35 60
        E 0 90 3d 60
        E 0 90 4b 60
        E 0 90 57 60
        E 0 90 63 60
        E 120 80 35 00
        E 0 80 3d 00
        E 0 80 4b 00
        E 0 80 57 00
        E 0 80 63 00
        E 120 90 33 60
        E 0 90 56 60
        E 0 90 59 60
        E 0 90 62 60
        E 0 90 65 60
        E 120 80 33 00
        E 0 80 56 00
        E 0 80 59 00
        E 0 80 62 00
        E 0 80 65 00
        E 120 90 35 60
        E 0 90 49 60
        E 0 90 55 60
        E 0 90 61 60
        E 120 80 35 00
        E 0 80 49 00
        E 0 80 55 00
        E 0 80 61 00
        E 120 90 33 60
        E 0 90 54 60
        E 0 90 59 60
        E 0 90 60 60
        E 0 90 65 60
        E 120 80 33 00
        E 0 80 54 00
        E 0 80 59 00
        E 0 80 60 00
        E 0 80 65 00
        E 120 90 35 60
        E 0 90 3d 60
        E 0 90 4b 60
        E 0 90 57 60
        E 0 90 63 60
        E 120 80 35 00
        E 0 80 3d 00
        E 0 80 4b 00
        E 0 80 57 00
        E 0 80 63 00
        E 120 90 33 60
        E 0 90 56 60
        E 0 90 59 60
        E 0 90 62 60
        E 0 90 65 60
        E 120 80 33 00
        E 0 80 56 00
        E 0 80 59 00
        E 0 80 62 00
        E 0 80 65 00
        E 120 90 35 60
        E 0 90 49 60
        E 0 90 55 60
        E 0 90 61 60
        E 120 80 35 00
        E 0 80 49 00
        E 0 80 55 00
        E 0 80 61 00
        E 120 90 33 60
        E 0 90 56 60
        E 0 90 62 60
        E 120 80 33 00
        E 0 80 56 00
        E 0 80 62 00
        E 120 90 37 60
        E 0 90 3e 60
        E 0 90 4b 60
        E 0 90 57 60
        E 0 90 63 60
        E 120 80 37 00
        E 0 80 3e 00
        E 0 80 4b 00
        E 0 80 57 00
        E 0 80 63 00
        <X 480 0
          /wFbaWRsZV9yZWFsdGltZV0=
        >
        E 6119 b0 7b 00
        GUID {41740975-1C68-41A8-B14B-8EB4EB6A0DAE}
        IGNTEMPO 0 120.00000000 4 4
        SRCCOLOR 20
        VELLANE 132 128 60
        COLORMAP "C:\Program Files\REAPER (x64)\Data\color_maps\rockband_guitarbass.png"
        CFGEDITVIEW -2795.288962 30.920627 0 12 0 0 0
        CFGEDIT 1 1 0 1 1 0 1 1 1 1 1 0.25000000 -8 -8 1544 872 0 2 1 1 0.00000000 0 1 0 0 0.500000 0 0 1.000000 64
        KEYSNAP 0 6 "102030050700" 0 "Pentatonic"
        EVTFILTER 0 -1 -1 -1 -1 0 1 0 0 -1.00000000 -1.00000000
      >
    >
  >
  <TRACK '{B16D9833-176A-46BB-849D-55FEE06434E6}'
    NAME "PART GUITAR"
    PEAKCOL 16576
    BEAT -1
    AUTOMODE 0
    VOLPAN 1.00000000000000 0.00000000000000 -1.00000000000000 -1.00000000000000 1.00000000000000
    MUTESOLO 0 0 0
    IPHASE 0
    ISBUS 0 0
    BUSCOMP 0 0
    SHOWINMIX 1 0.666700 0.500000 1 0.500000 -1 -1 -1
    FREEMODE 0
    SEL 0
    REC 0 0 0 0 0 0 0
    VU 2
    TRACKHEIGHT 0 0
    INQ 0 0 0 0.5000000000 100 0 0 100
    NCHAN 2
    FX 1
    TRACKID {B16D9833-176A-46BB-849D-55FEE06434E6}
    PERF 0
    MIDIOUT -1
    <MIDINOTENAMES
      0 127 "TRILL MARKER"
      0 126 "TREMOLO MARKER"
      0 125 "---"
      0 124 "BRE"
      0 123 "BRE"
      0 122 "BRE"
      0 121 "BRE"
      0 120 "BRE (use all 5)"
      0 119 "----"
      0 116 "OVERDRIVE"
      0 115 "----"
      0 103 "Solo Marker"
      0 102 "Force HOPO Off"
      0 101 "Force HOPO On"
      0 100 "EXPERT Orange"
      0 99 "EXPERT Blue"
      0 98 "EXPERT Yellow"
      0 97 "EXPERT Red"
      0 96 "EXPERT Green"
      0 95 "----"
      0 90 "Force HOPO Off"
      0 89 "Force HOPO On"
      0 88 "HARD Orange"
      0 87 "HARD Blue"
      0 86 "HARD Yellow"
      0 85 "HARD Red"
      0 84 "HARD Green"
      0 77 "----"
      0 76 "MEDIUM Orange"
      0 75 "MEDIUM Blue"
      0 74 "MEDIUM Yellow"
      0 73 "MEDIUM Red"
      0 72 "MEDIUM Green"
      0 65 "----"
      0 64 "EASY Orange"
      0 63 "EASY Blue"
      0 62 "EASY Yellow"
      0 61 "EASY Red"
      0 60 "EASY Green"
      0 59 "Fret 12"
      0 57 "Fret 11"
      0 56 "Fret 10"
      0 55 "Fret 9"
      0 53 "Fret 8"
      0 52 "Fret 7"
      0 50 "Fret 6"
      0 49 "Fret 5"
      0 47 "Fret 4"
      0 45 "Fret 3"
      0 43 "Fret 2"
      0 40 "Fret 1"
    >
    MAINSEND 1 0
    <FXCHAIN
      WNDRECT 0 43 891 559
      SHOW 0
      LASTSEL 0
      DOCKED 0
      BYPASS 0 0
      <VST "VSTi: RBN Preview (RBN)" "rbprev_vst64.dll" 0 ""
        dnBicu5e7f4AAAAAAgAAAAEAAAAAAAAAAgAAAAAAAAAEAAAAAQAAAA==
        AAAQAAMAqgAAABAAAAA=
      >
      FLOATPOS 0 0 0 0
      FXID {110A3047-BAD6-452C-9D25-0A687FCF1ED5}
      WAK 0
    >
    <ITEM
      POSITION 0.00000000000000
      SNAPOFFS 0.00000000000000
      LENGTH 36.31800000000000
      LOOP 0
      ALLTAKES 0
      SEL 0
      FADEIN 1 0.000000 0.000000 1 0
      FADEOUT 1 0.000000 0.000000 1 0
      MUTE 0
      IGUID {D9A7FDC6-316B-41E5-BFDF-1C7BE2ACDC77}
      IID 3
      NAME "PART GUITAR"
      VOLPAN 1.000000 0.000000 1.000000 -1.000000
      SOFFS 0.00000000000000 0.00000000000000
      PLAYRATE 1.00000000000000 1 0.00000000000000 -1
      CHANMODE 0
      GUID {6E872A2A-770C-4033-86FD-0166B9BCC441}
      <SOURCE MIDI
        HASDATA 1 480 QN
        POOLEDEVTS {10F804B6-F4E8-47BC-81E7-57FA255D522B}
        <X 0 0
          /wNQQVJUIEdVSVRBUg==
        >
        <X 5760 0
          /wFbcGxheV0=
        >
        E 0 90 39 60
        E 0 90 3e 60
        E 0 90 49 60
        E 0 90 4b 60
        E 0 90 56 60
        E 0 90 57 60
        E 0 90 62 60
        E 0 90 63 60
        E 120 80 3e 00
        E 0 80 49 00
        E 0 80 4b 00
        E 0 80 56 00
        E 0 80 57 00
        E 0 80 62 00
        E 0 80 63 00
        E 0 90 62 60
        E 120 80 62 00
        E 0 90 56 60
        E 0 90 62 60
        E 120 80 56 00
        E 0 80 62 00
        E 0 90 62 60
        E 120 80 62 00
        E 0 90 49 60
        E 0 90 4b 60
        E 0 90 56 60
        E 0 90 57 60
        E 0 90 62 60
        E 0 90 63 60
        E 120 80 49 00
        E 0 80 4b 00
        E 0 80 56 00
        E 0 80 57 00
        E 0 80 62 00
        E 0 80 63 00
        E 120 90 56 60
        E 0 90 62 60
        E 120 80 56 00
        E 0 80 62 00
        E 0 90 62 60
        E 120 80 62 00
        E 0 90 3d 60
        E 0 90 4a 60
        E 0 90 56 60
        E 0 90 62 60
        E 120 80 3d 00
        E 0 80 4a 00
        E 0 80 56 00
        E 0 80 62 00
        E 0 90 62 60
        E 120 80 62 00
        E 0 90 57 60
        E 0 90 63 60
        E 120 80 39 00
        E 0 80 57 00
        E 0 80 63 00
        E 120 90 35 60
        E 0 90 49 60
        E 0 90 55 60
        E 0 90 61 60
        E 120 80 35 00
        E 0 80 49 00
        E 0 80 55 00
        E 0 80 61 00
        E 120 90 36 60
        E 0 90 57 60
        E 0 90 63 60
        E 120 80 36 00
        E 0 80 57 00
        E 0 80 63 00
        E 120 90 32 60
        E 0 90 3e 60
        E 0 90 49 60
        E 0 90 4b 60
        E 0 90 55 60
        E 0 90 57 60
        E 0 90 61 60
        E 0 90 63 60
        E 0 90 74 60
        E 120 80 3e 00
        E 0 80 49 00
        E 0 80 4b 00
        E 0 80 55 00
        E 0 80 57 00
        E 0 80 61 00
        E 0 80 63 00
        E 0 90 61 60
        E 0 90 63 60
        E 120 80 61 00
        E 0 80 63 00
        E 0 90 55 60
        E 0 90 57 60
        E 0 90 61 60
        E 0 90 63 60
        E 120 80 32 00
        E 0 80 55 00
        E 0 80 57 00
        E 0 80 61 00
        E 0 80 63 00
        E 120 90 31 60
        E 0 90 49 60
        E 0 90 4a 60
        E 0 90 55 60
        E 0 90 56 60
        E 0 90 61 60
        E 0 90 62 60
        E 120 80 49 00
        E 0 80 4a 00
        E 0 80 55 00
        E 0 80 56 00
        E 0 80 61 00
        E 0 80 62 00
        E 0 90 61 60
        E 0 90 62 60
        E 120 80 61 00
        E 0 80 62 00
        E 0 90 55 60
        E 0 90 56 60
        E 0 90 61 60
        E 0 90 62 60
        E 120 80 31 00
        E 0 80 55 00
        E 0 80 56 00
        E 0 80 61 00
        E 0 80 62 00
        E 120 90 2e 60
        E 0 90 3c 60
        E 0 90 48 60
        E 0 90 4a 60
        E 0 90 54 60
        E 0 90 56 60
        E 0 90 60 60
        E 0 90 62 60
        E 120 80 2e 00
        E 0 80 3c 00
        E 0 80 48 00
        E 0 80 4a 00
        E 0 80 54 00
        E 0 80 56 00
        E 0 80 60 00
        E 0 80 62 00
        E 120 90 32 60
        E 0 90 56 60
        E 0 90 57 60
        E 0 90 59 60
        E 0 90 62 60
        E 0 90 63 60
        E 0 90 65 60
        E 120 80 32 00
        E 0 80 56 00
        E 0 80 57 00
        E 0 80 62 00
        E 0 80 63 00
        E 120 90 4d 60
        E 0 90 62 60
        E 0 90 28 60
        E 0 90 48 60
        E 0 90 49 60
        E 0 90 54 60
        E 0 90 55 60
        E 0 90 60 60
        E 0 90 61 60
        E 120 80 4d 00
        E 0 80 48 00
        E 0 80 49 00
        E 360 80 74 00
        E 0 80 59 00
        E 0 80 65 00
        E 0 80 62 00
        E 0 80 28 00
        E 0 80 54 00
        E 0 80 55 00
        E 0 80 60 00
        E 0 80 61 00
        E 240 90 32 60
        E 0 90 3d 60
        E 0 90 48 60
        E 0 90 4a 60
        E 0 90 55 60
        E 0 90 56 60
        E 0 90 61 60
        E 0 90 62 60
        E 120 80 3d 00
        E 0 80 48 00
        E 0 80 4a 00
        E 0 80 55 00
        E 0 80 56 00
        E 0 80 61 00
        E 0 80 62 00
        E 360 90 48 60
        E 0 90 4a 60
        E 0 90 55 60
        E 0 90 56 60
        E 0 90 61 60
        E 0 90 62 60
        E 120 80 48 00
        E 0 80 4a 00
        E 0 80 55 00
        E 0 80 56 00
        E 0 80 61 00
        E 0 80 62 00
        E 360 90 3d 60
        E 0 90 48 60
        E 0 90 4a 60
        E 0 90 55 60
        E 0 90 56 60
        E 0 90 61 60
        E 0 90 62 60
        E 120 80 3d 00
        E 0 80 48 00
        E 0 80 4a 00
        E 0 80 55 00
        E 0 80 56 00
        E 0 80 61 00
        E 0 80 62 00
        E 360 90 55 60
        E 0 90 56 60
        E 0 90 61 60
        E 0 90 62 60
        E 120 80 55 00
        E 0 80 56 00
        E 0 80 61 00
        E 0 80 62 00
        E 120 90 74 60
        E 240 90 3d 60
        E 0 90 48 60
        E 0 90 4a 60
        E 0 90 55 60
        E 0 90 56 60
        E 0 90 61 60
        E 0 90 62 60
        E 120 80 3d 00
        E 0 80 48 00
        E 0 80 4a 00
        E 0 80 55 00
        E 0 80 56 00
        E 0 80 61 00
        E 0 80 62 00
        E 360 90 48 60
        E 0 90 4a 60
        E 0 90 55 60
        E 0 90 56 60
        E 0 90 61 60
        E 0 90 62 60
        E 120 80 48 00
        E 0 80 4a 00
        E 0 80 55 00
        E 0 80 56 00
        E 0 80 61 00
        E 0 80 62 00
        E 360 90 3d 60
        E 0 90 48 60
        E 0 90 4a 60
        E 0 90 55 60
        E 0 90 56 60
        E 0 90 61 60
        E 0 90 62 60
        E 120 80 3d 00
        E 0 80 48 00
        E 0 80 4a 00
        E 0 80 55 00
        E 0 80 56 00
        E 0 80 61 00
        E 0 80 62 00
        E 360 90 55 60
        E 0 90 56 60
        E 0 90 61 60
        E 0 90 62 60
        E 120 80 32 00
        E 0 80 55 00
        E 0 80 56 00
        E 0 80 61 00
        E 0 80 62 00
        E 120 80 74 00
        E 0 90 36 60
        E 0 90 3e 60
        E 0 90 49 60
        E 0 90 4a 60
        E 0 90 4d 60
        E 0 90 56 60
        E 0 90 58 60
        E 0 90 59 60
        E 0 90 62 60
        E 0 90 64 60
        E 0 90 65 60
        E 120 80 3e 00
        E 0 80 49 00
        E 0 80 4a 00
        E 0 80 4d 00
        E 0 80 56 00
        E 0 80 58 00
        E 0 80 59 00
        E 0 80 62 00
        E 0 80 64 00
        E 0 80 65 00
        E 120 90 56 60
        E 0 90 58 60
        E 0 90 62 60
        E 0 90 64 60
        E 120 80 56 00
        E 0 80 58 00
        E 0 80 62 00
        E 0 80 64 00
        E 120 90 49 60
        E 0 90 4a 60
        E 0 90 56 60
        E 0 90 58 60
        E 0 90 62 60
        E 0 90 64 60
        E 120 80 49 00
        E 0 80 4a 00
        E 240 80 36 00
        E 0 80 56 00
        E 0 80 58 00
        E 0 80 62 00
        E 0 80 64 00
        E 120 90 37 60
        E 0 90 3f 60
        E 0 90 4a 60
        E 0 90 4b 60
        E 0 90 4d 60
        E 0 90 57 60
        E 0 90 58 60
        E 0 90 59 60
        E 0 90 63 60
        E 0 90 64 60
        E 0 90 65 60
        E 120 80 3f 00
        E 0 80 4a 00
        E 0 80 4b 00
        E 0 80 4d 00
        E 0 80 57 00
        E 0 80 58 00
        E 0 80 59 00
        E 0 80 63 00
        E 0 80 64 00
        E 0 80 65 00
        E 120 90 57 60
        E 0 90 58 60
        E 0 90 63 60
        E 0 90 64 60
        E 120 80 57 00
        E 0 80 58 00
        E 0 80 63 00
        E 0 80 64 00
        E 120 90 4a 60
        E 0 90 4b 60
        E 0 90 57 60
        E 0 90 58 60
        E 0 90 63 60
        E 0 90 64 60
        E 120 80 4a 00
        E 0 80 4b 00
        E 240 80 37 00
        E 0 80 57 00
        E 0 80 58 00
        E 0 80 63 00
        E 0 80 64 00
        E 120 90 36 60
        E 0 90 3e 60
        E 0 90 49 60
        E 0 90 4a 60
        E 0 90 4d 60
        E 0 90 56 60
        E 0 90 58 60
        E 0 90 59 60
        E 0 90 62 60
        E 0 90 64 60
        E 0 90 65 60
        E 120 80 3e 00
        E 0 80 49 00
        E 0 80 4a 00
        E 0 80 4d 00
        E 0 80 56 00
        E 0 80 58 00
        E 0 80 59 00
        E 0 80 62 00
        E 0 80 64 00
        E 0 80 65 00
        E 120 90 56 60
        E 0 90 58 60
        E 0 90 62 60
        E 0 90 64 60
        E 120 80 56 00
        E 0 80 58 00
        E 0 80 62 00
        E 0 80 64 00
        E 120 90 49 60
        E 0 90 4a 60
        E 0 90 56 60
        E 0 90 58 60
        E 0 90 62 60
        E 0 90 64 60
        E 120 80 49 00
        E 0 80 4a 00
        E 240 80 36 00
        E 0 80 56 00
        E 0 80 58 00
        E 0 80 62 00
        E 0 80 64 00
        E 120 90 37 60
        E 0 90 3f 60
        E 0 90 4a 60
        E 0 90 4b 60
        E 0 90 4d 60
        E 0 90 57 60
        E 0 90 58 60
        E 0 90 59 60
        E 0 90 63 60
        E 0 90 64 60
        E 0 90 65 60
        E 120 80 3f 00
        E 0 80 4a 00
        E 0 80 4b 00
        E 0 80 4d 00
        E 0 80 57 00
        E 0 80 58 00
        E 0 80 59 00
        E 0 80 63 00
        E 0 80 64 00
        E 0 80 65 00
        E 120 90 57 60
        E 0 90 58 60
        E 0 90 63 60
        E 0 90 64 60
        E 120 80 57 00
        E 0 80 58 00
        E 0 80 63 00
        E 0 80 64 00
        E 120 90 4a 60
        E 0 90 4b 60
        E 0 90 57 60
        E 0 90 58 60
        E 0 90 63 60
        E 0 90 64 60
        E 120 80 4a 00
        E 0 80 4b 00
        E 240 80 37 00
        E 0 80 57 00
        E 0 80 58 00
        E 0 80 63 00
        E 0 80 64 00
        E 120 90 32 60
        E 0 90 3d 60
        E 0 90 55 60
        E 0 90 56 60
        E 0 90 59 60
        E 0 90 61 60
        E 0 90 62 60
        E 0 90 65 60
        E 120 80 3d 00
        E 0 80 55 00
        E 0 80 56 00
        E 0 80 59 00
        E 0 80 61 00
        E 0 80 62 00
        E 0 80 65 00
        E 120 90 48 60
        E 0 90 4a 60
        E 0 90 55 60
        E 0 90 56 60
        E 0 90 61 60
        E 0 90 62 60
        E 120 80 48 00
        E 0 80 4a 00
        E 0 80 55 00
        E 0 80 56 00
        E 0 80 61 00
        E 0 80 62 00
        E 360 90 48 60
        E 0 90 4a 60
        E 0 90 55 60
        E 0 90 56 60
        E 0 90 61 60
        E 0 90 62 60
        E 120 80 48 00
        E 0 80 4a 00
        E 0 80 55 00
        E 0 80 56 00
        E 0 80 61 00
        E 0 80 62 00
        E 360 90 3d 60
        E 0 90 48 60
        E 0 90 4a 60
        E 0 90 55 60
        E 0 90 56 60
        E 0 90 61 60
        E 0 90 62 60
        E 120 80 3d 00
        E 0 80 48 00
        E 0 80 4a 00
        E 0 80 55 00
        E 0 80 56 00
        E 0 80 61 00
        E 0 80 62 00
        E 360 90 55 60
        E 0 90 56 60
        E 0 90 61 60
        E 0 90 62 60
        E 120 80 55 00
        E 0 80 56 00
        E 0 80 61 00
        E 0 80 62 00
        E 360 90 3d 60
        E 0 90 48 60
        E 0 90 4a 60
        E 0 90 55 60
        E 0 90 56 60
        E 0 90 61 60
        E 0 90 62 60
        E 120 80 3d 00
        E 0 80 48 00
        E 0 80 4a 00
        E 0 80 55 00
        E 0 80 56 00
        E 0 80 61 00
        E 0 80 62 00
        E 360 90 48 60
        E 0 90 4a 60
        E 0 90 55 60
        E 0 90 56 60
        E 0 90 61 60
        E 0 90 62 60
        E 120 80 48 00
        E 0 80 4a 00
        E 0 80 55 00
        E 0 80 56 00
        E 0 80 61 00
        E 0 80 62 00
        E 360 90 48 60
        E 0 90 4a 60
        E 0 90 55 60
        E 0 90 56 60
        E 0 90 61 60
        E 0 90 62 60
        E 120 80 48 00
        E 0 80 4a 00
        E 0 80 55 00
        E 0 80 56 00
        E 0 80 61 00
        E 0 80 62 00
        E 120 90 3d 60
        E 120 80 32 00
        E 0 80 3d 00
        E 120 90 36 60
        E 0 90 55 60
        E 0 90 56 60
        E 0 90 61 60
        E 0 90 62 60
        E 120 80 55 00
        E 0 80 56 00
        E 0 80 61 00
        E 0 80 62 00
        E 120 90 3e 60
        E 0 90 49 60
        E 0 90 4a 60
        E 0 90 4d 60
        E 0 90 56 60
        E 0 90 58 60
        E 0 90 59 60
        E 0 90 62 60
        E 0 90 64 60
        E 0 90 65 60
        E 120 80 3e 00
        E 0 80 49 00
        E 0 80 4a 00
        E 0 80 4d 00
        E 0 80 56 00
        E 0 80 58 00
        E 0 80 59 00
        E 0 80 62 00
        E 0 80 64 00
        E 0 80 65 00
        E 120 90 56 60
        E 0 90 58 60
        E 0 90 62 60
        E 0 90 64 60
        E 120 80 56 00
        E 0 80 58 00
        E 0 80 62 00
        E 0 80 64 00
        E 120 90 49 60
        E 0 90 4a 60
        E 0 90 56 60
        E 0 90 58 60
        E 0 90 62 60
        E 0 90 64 60
        E 120 80 36 00
        E 0 80 49 00
        E 0 80 4a 00
        E 120 90 37 60
        E 120 80 56 00
        E 0 80 58 00
        E 0 80 62 00
        E 0 80 64 00
        E 120 90 3f 60
        E 0 90 4a 60
        E 0 90 4b 60
        E 0 90 4d 60
        E 0 90 57 60
        E 0 90 58 60
        E 0 90 59 60
        E 0 90 63 60
        E 0 90 64 60
        E 0 90 65 60
        E 0 90 74 60
        E 120 80 3f 00
        E 0 80 4a 00
        E 0 80 4b 00
        E 0 80 4d 00
        E 0 80 57 00
        E 0 80 58 00
        E 0 80 59 00
        E 0 80 63 00
        E 0 80 64 00
        E 0 80 65 00
        E 120 90 57 60
        E 0 90 58 60
        E 0 90 63 60
        E 0 90 64 60
        E 120 80 57 00
        E 0 80 58 00
        E 0 80 63 00
        E 0 80 64 00
        E 120 90 4a 60
        E 0 90 4b 60
        E 0 90 57 60
        E 0 90 58 60
        E 0 90 63 60
        E 0 90 64 60
        E 120 80 37 00
        E 0 80 4a 00
        E 0 80 4b 00
        E 120 90 36 60
        E 120 80 57 00
        E 0 80 58 00
        E 0 80 63 00
        E 0 80 64 00
        E 120 80 74 00
        E 0 90 3e 60
        E 0 90 49 60
        E 0 90 4a 60
        E 0 90 4d 60
        E 0 90 56 60
        E 0 90 58 60
        E 0 90 59 60
        E 0 90 62 60
        E 0 90 64 60
        E 0 90 65 60
        E 120 80 3e 00
        E 0 80 49 00
        E 0 80 4a 00
        E 0 80 4d 00
        E 0 80 56 00
        E 0 80 58 00
        E 0 80 59 00
        E 0 80 62 00
        E 0 80 64 00
        E 0 80 65 00
        E 120 90 56 60
        E 0 90 58 60
        E 0 90 62 60
        E 0 90 64 60
        E 120 80 56 00
        E 0 80 58 00
        E 0 80 62 00
        E 0 80 64 00
        E 120 90 49 60
        E 0 90 4a 60
        E 0 90 56 60
        E 0 90 58 60
        E 0 90 62 60
        E 0 90 64 60
        E 120 80 36 00
        E 0 80 49 00
        E 0 80 4a 00
        E 120 90 37 60
        E 120 80 56 00
        E 0 80 58 00
        E 0 80 62 00
        E 0 80 64 00
        E 120 90 3f 60
        E 0 90 4a 60
        E 0 90 4b 60
        E 0 90 4d 60
        E 0 90 57 60
        E 0 90 58 60
        E 0 90 59 60
        E 0 90 63 60
        E 0 90 64 60
        E 0 90 65 60
        E 120 80 3f 00
        E 0 80 4a 00
        E 0 80 4b 00
        E 0 80 4d 00
        E 0 80 57 00
        E 0 80 58 00
        E 0 80 59 00
        E 0 80 63 00
        E 0 80 64 00
        E 0 80 65 00
        E 120 90 57 60
        E 0 90 58 60
        E 0 90 63 60
        E 0 90 64 60
        E 120 80 57 00
        E 0 80 58 00
        E 0 80 63 00
        E 0 80 64 00
        E 120 90 4a 60
        E 0 90 4b 60
        E 0 90 57 60
        E 0 90 58 60
        E 0 90 63 60
        E 0 90 64 60
        E 120 80 4a 00
        E 0 80 4b 00
        E 240 80 37 00
        E 0 80 57 00
        E 0 80 58 00
        E 0 80 63 00
        E 0 80 64 00
        E 120 90 39 60
        E 0 90 3e 60
        E 0 90 49 60
        E 0 90 4b 60
        E 0 90 56 60
        E 0 90 57 60
        E 0 90 62 60
        E 0 90 63 60
        E 120 80 3e 00
        E 0 80 49 00
        E 0 80 4b 00
        E 0 80 56 00
        E 0 80 57 00
        E 0 80 62 00
        E 0 80 63 00
        E 0 90 62 60
        E 120 80 62 00
        E 0 90 56 60
        E 0 90 62 60
        E 120 80 56 00
        E 0 80 62 00
        E 0 90 62 60
        E 120 80 62 00
        E 0 90 49 60
        E 0 90 4b 60
        E 0 90 56 60
        E 0 90 57 60
        E 0 90 62 60
        E 0 90 63 60
        E 120 80 49 00
        E 0 80 4b 00
        E 0 80 56 00
        E 0 80 57 00
        E 0 80 62 00
        E 0 80 63 00
        E 120 90 56 60
        E 0 90 62 60
        E 120 80 56 00
        E 0 80 62 00
        E 0 90 62 60
        E 120 80 62 00
        E 0 90 3d 60
        E 0 90 4a 60
        E 0 90 56 60
        E 0 90 62 60
        E 120 80 3d 00
        E 0 80 4a 00
        E 0 80 56 00
        E 0 80 62 00
        E 0 90 62 60
        E 120 80 62 00
        E 0 90 56 60
        E 0 90 57 60
        E 0 90 62 60
        E 0 90 63 60
        E 120 80 39 00
        E 0 80 56 00
        E 0 80 57 00
        E 0 80 62 00
        E 0 80 63 00
        E 120 90 35 60
        E 0 90 49 60
        E 0 90 55 60
        E 0 90 61 60
        E 120 80 35 00
        E 0 80 49 00
        E 0 80 55 00
        E 0 80 61 00
        E 120 90 36 60
        E 0 90 57 60
        E 0 90 63 60
        E 120 80 36 00
        E 0 80 57 00
        E 0 80 63 00
        E 120 90 39 60
        E 0 90 3e 60
        E 0 90 49 60
        E 0 90 4b 60
        E 0 90 56 60
        E 0 90 57 60
        E 0 90 62 60
        E 0 90 63 60
        E 0 90 74 60
        E 120 80 3e 00
        E 0 80 49 00
        E 0 80 4b 00
        E 0 80 56 00
        E 0 80 57 00
        E 0 80 62 00
        E 0 80 63 00
        E 0 90 62 60
        E 120 80 62 00
        E 0 90 56 60
        E 0 90 62 60
        E 120 80 56 00
        E 0 80 62 00
        E 0 90 62 60
        E 120 80 62 00
        E 0 90 49 60
        E 0 90 4b 60
        E 0 90 56 60
        E 0 90 57 60
        E 0 90 62 60
        E 0 90 63 60
        E 120 80 49 00
        E 0 80 4b 00
        E 0 80 56 00
        E 0 80 57 00
        E 0 80 62 00
        E 0 80 63 00
        E 120 90 56 60
        E 0 90 62 60
        E 120 80 39 00
        E 0 80 56 00
        E 0 80 62 00
        E 0 90 62 60
        E 120 80 62 00
        E 0 90 3b 60
        E 0 90 3d 60
        E 0 90 4a 60
        E 0 90 56 60
        E 0 90 62 60
        E 120 80 3d 00
        E 0 80 4a 00
        E 0 80 56 00
        E 0 80 62 00
        E 0 90 62 60
        E 120 80 62 00
        E 0 90 57 60
        E 0 90 63 60
        E 120 80 57 00
        E 0 80 63 00
        E 0 90 63 60
        E 120 80 63 00
        E 0 90 4c 60
        E 0 90 58 60
        E 0 90 64 60
        E 120 80 4c 00
        E 0 80 58 00
        E 0 80 64 00
        E 0 90 64 60
        E 120 80 64 00
        E 0 90 57 60
        E 0 90 63 60
        E 120 80 3b 00
        E 0 80 57 00
        E 0 80 63 00
        E 0 90 63 60
        E 120 80 74 00
        E 0 80 63 00
        E 0 90 39 60
        E 0 90 3f 60
        E 0 90 49 60
        E 0 90 4b 60
        E 0 90 4d 60
        E 0 90 56 60
        E 0 90 57 60
        E 0 90 62 60
        E 0 90 63 60
        E 120 80 3f 00
        E 0 80 49 00
        E 0 80 4b 00
        E 0 80 4d 00
        E 0 80 56 00
        E 0 80 57 00
        E 0 80 62 00
        E 0 80 63 00
        E 120 90 56 60
        E 0 90 57 60
        E 0 90 62 60
        E 0 90 63 60
        E 120 80 56 00
        E 0 80 57 00
        E 0 80 62 00
        E 0 80 63 00
        E 120 90 49 60
        E 0 90 4b 60
        E 0 90 56 60
        E 0 90 57 60
        E 0 90 62 60
        E 0 90 63 60
        E 120 80 49 00
        E 0 80 4b 00
        E 240 80 39 00
        E 0 80 56 00
        E 0 80 57 00
        E 0 80 62 00
        E 0 80 63 00
        E 120 90 3a 60
        E 0 90 40 60
        E 0 90 4a 60
        E 0 90 4b 60
        E 0 90 4d 60
        E 0 90 57 60
        E 0 90 58 60
        E 0 90 59 60
        E 0 90 63 60
        E 0 90 64 60
        E 0 90 65 60
        E 120 80 40 00
        E 0 80 4a 00
        E 0 80 4b 00
        E 0 80 4d 00
        E 0 80 57 00
        E 0 80 58 00
        E 0 80 59 00
        E 0 80 63 00
        E 0 80 64 00
        E 0 80 65 00
        E 120 90 57 60
        E 0 90 58 60
        E 0 90 63 60
        E 0 90 64 60
        E 120 80 57 00
        E 0 80 58 00
        E 0 80 63 00
        E 0 80 64 00
        E 120 90 4a 60
        E 0 90 4b 60
        E 0 90 57 60
        E 0 90 58 60
        E 0 90 63 60
        E 0 90 64 60
        E 120 80 4a 00
        E 0 80 4b 00
        E 240 80 3a 00
        E 0 80 57 00
        E 0 80 58 00
        E 0 80 63 00
        E 0 80 64 00
        E 120 90 39 60
        E 0 90 3f 60
        E 0 90 49 60
        E 0 90 4b 60
        E 0 90 4d 60
        E 0 90 56 60
        E 0 90 57 60
        E 0 90 59 60
        E 0 90 62 60
        E 0 90 63 60
        E 0 90 65 60
        E 120 80 3f 00
        E 0 80 49 00
        E 0 80 4b 00
        E 0 80 4d 00
        E 0 80 56 00
        E 0 80 57 00
        E 0 80 59 00
        E 0 80 62 00
        E 0 80 63 00
        E 0 80 65 00
        E 120 90 56 60
        E 0 90 57 60
        E 0 90 62 60
        E 0 90 63 60
        E 120 80 56 00
        E 0 80 57 00
        E 0 80 62 00
        E 0 80 63 00
        E 120 90 49 60
        E 0 90 4b 60
        E 0 90 56 60
        E 0 90 57 60
        E 0 90 62 60
        E 0 90 63 60
        E 120 80 49 00
        E 0 80 4b 00
        E 240 80 39 00
        E 0 80 56 00
        E 0 80 57 00
        E 0 80 62 00
        E 0 80 63 00
        E 120 90 3a 60
        E 0 90 40 60
        E 0 90 4a 60
        E 0 90 4b 60
        E 0 90 4d 60
        E 0 90 57 60
        E 0 90 58 60
        E 0 90 59 60
        E 0 90 63 60
        E 0 90 64 60
        E 0 90 65 60
        E 120 80 40 00
        E 0 80 4a 00
        E 0 80 4b 00
        E 0 80 4d 00
        E 0 80 57 00
        E 0 80 58 00
        E 0 80 59 00
        E 0 80 63 00
        E 0 80 64 00
        E 0 80 65 00
        E 120 90 57 60
        E 0 90 58 60
        E 0 90 63 60
        E 0 90 64 60
        E 120 80 57 00
        E 0 80 58 00
        E 0 80 63 00
        E 0 80 64 00
        E 120 90 4a 60
        E 0 90 4b 60
        E 0 90 57 60
        E 0 90 58 60
        E 0 90 63 60
        E 0 90 64 60
        E 120 80 4a 00
        E 0 80 4b 00
        E 0 80 57 00
        E 0 80 58 00
        E 0 80 63 00
        E 0 80 64 00
        E 120 90 56 60
        E 0 90 57 60
        E 0 90 59 60
        E 0 90 62 60
        E 0 90 63 60
        E 0 90 65 60
        E 120 80 3a 00
        E 0 80 56 00
        E 0 80 57 00
        E 0 80 59 00
        E 0 80 62 00
        E 0 80 63 00
        E 0 80 65 00
        E 120 90 39 60
        E 0 90 3e 60
        E 0 90 49 60
        E 0 90 4b 60
        E 0 90 56 60
        E 0 90 57 60
        E 0 90 62 60
        E 0 90 63 60
        E 120 80 3e 00
        E 0 80 49 00
        E 0 80 4b 00
        E 0 80 56 00
        E 0 80 57 00
        E 0 80 62 00
        E 0 80 63 00
        E 0 90 62 60
        E 120 80 62 00
        E 0 90 56 60
        E 0 90 62 60
        E 120 80 56 00
        E 0 80 62 00
        E 0 90 62 60
        E 120 80 62 00
        E 0 90 49 60
        E 0 90 4b 60
        E 0 90 56 60
        E 0 90 57 60
        E 0 90 62 60
        E 0 90 63 60
        E 120 80 49 00
        E 0 80 4b 00
        E 0 80 56 00
        E 0 80 57 00
        E 0 80 62 00
        E 0 80 63 00
        E 120 90 56 60
        E 0 90 62 60
        E 120 80 56 00
        E 0 80 62 00
        E 0 90 62 60
        E 120 80 62 00
        E 0 90 3d 60
        E 0 90 4a 60
        E 0 90 56 60
        E 0 90 62 60
        E 120 80 3d 00
        E 0 80 4a 00
        E 0 80 56 00
        E 0 80 62 00
        E 0 90 62 60
        E 120 80 62 00
        E 0 90 56 60
        E 0 90 57 60
        E 0 90 62 60
        E 0 90 63 60
        E 120 80 39 00
        E 0 80 56 00
        E 0 80 57 00
        E 0 80 62 00
        E 0 80 63 00
        E 120 90 35 60
        E 0 90 49 60
        E 0 90 55 60
        E 0 90 61 60
        E 120 80 35 00
        E 0 80 49 00
        E 0 80 55 00
        E 0 80 61 00
        E 120 90 36 60
        E 0 90 57 60
        E 0 90 63 60
        E 120 80 36 00
        E 0 80 57 00
        E 0 80 63 00
        E 120 90 39 60
        E 0 90 3e 60
        E 0 90 49 60
        E 0 90 4b 60
        E 0 90 56 60
        E 0 90 57 60
        E 0 90 62 60
        E 0 90 63 60
        E 120 80 3e 00
        E 0 80 49 00
        E 0 80 4b 00
        E 0 80 56 00
        E 0 80 57 00
        E 0 80 62 00
        E 0 80 63 00
        E 0 90 62 60
        E 120 80 62 00
        E 0 90 49 60
        E 0 90 4b 60
        E 0 90 56 60
        E 0 90 57 60
        E 0 90 62 60
        E 0 90 63 60
        E 120 80 49 00
        E 0 80 4b 00
        E 0 80 56 00
        E 0 80 57 00
        E 0 80 62 00
        E 0 80 63 00
        E 120 90 49 60
        E 0 90 4b 60
        E 0 90 56 60
        E 0 90 57 60
        E 0 90 62 60
        E 0 90 63 60
        E 120 80 49 00
        E 0 80 4b 00
        E 0 80 56 00
        E 0 80 57 00
        E 0 80 62 00
        E 0 80 63 00
        E 0 90 62 60
        E 0 90 63 60
        E 120 80 62 00
        E 0 80 63 00
        E 0 90 56 60
        E 0 90 57 60
        E 0 90 62 60
        E 0 90 63 60
        E 120 80 39 00
        E 0 80 56 00
        E 0 80 57 00
        E 0 80 62 00
        E 0 80 63 00
        E 120 90 38 60
        E 0 90 3c 60
        E 0 90 48 60
        E 0 90 4a 60
        E 0 90 55 60
        E 0 90 56 60
        E 0 90 61 60
        E 0 90 62 60
        E 120 80 3c 00
        E 0 80 48 00
        E 0 80 4a 00
        E 0 80 55 00
        E 0 80 56 00
        E 0 80 61 00
        E 0 80 62 00
        E 120 80 38 00
        <X 239 0
          /wFbaWRsZV9yZWFsdGltZV0=
        >
        E 6240 b0 7b 00
        GUID {4DBBD149-736D-418D-BE35-AE4078E786CF}
        IGNTEMPO 0 120.00000000 4 4
        SRCCOLOR 21
        VELLANE 132 128 60
        COLORMAP "C:\Program Files\REAPER (x64)\Data\color_maps\rockband_guitarbass.png"
        CFGEDITVIEW -2795.288962 30.920627 0 12 0 0 0
        CFGEDIT 1 1 0 1 1 0 1 1 1 1 1 0.25000000 -8 -8 1544 872 0 2 1 1 0.00000000 0 1 0 0 0.500000 0 0 1.000000 64
        KEYSNAP 0 6 "102030050700" 0 "Pentatonic"
        EVTFILTER 0 -1 -1 -1 -1 0 1 0 0 -1.00000000 -1.00000000
      >
    >
  >
  <TRACK '{52DFA026-DCE8-4081-9985-067DCC5216C3}'
    NAME "PART VOCALS"
    PEAKCOL 16576
    BEAT -1
    AUTOMODE 0
    VOLPAN 1.00000000000000 0.00000000000000 -1.00000000000000 -1.00000000000000 1.00000000000000
    MUTESOLO 0 0 0
    IPHASE 0
    ISBUS 1 1
    BUSCOMP 0 0
    SHOWINMIX 1 0.666700 0.500000 1 0.500000 -1 -1 -1
    FREEMODE 0
    SEL 0
    REC 0 0 0 0 0 0 0
    VU 2
    TRACKHEIGHT 0 0
    INQ 0 0 0 0.5000000000 100 0 0 100
    NCHAN 2
    FX 1
    TRACKID {52DFA026-DCE8-4081-9985-067DCC5216C3}
    PERF 0
    MIDIOUT -1
    <MIDINOTENAMES
      0 116 "OVERDRIVE"
      0 115 "----"
      0 105 "Phrase Marker"
      0 104 "----"
      0 97 "Non-Displayed Percussion"
      0 96 "Displayed Percussion"
      0 95 "----"
      0 84 "C6 (Unused Highest Note)"
      0 83 "B5"
      0 82 "A#4"
      0 81 "A4"
      0 80 "G#4"
      0 79 "G4"
      0 78 "F#4"
      0 77 "F4"
      0 76 "E4"
      0 75 "D#4"
      0 74 "D4"
      0 73 "C#4"
      0 72 "C4"
      0 71 "B3"
      0 70 "A#3"
      0 69 "A3"
      0 68 "G#3"
      0 67 "G3"
      0 66 "F#3"
      0 65 "F3"
      0 64 "E3"
      0 63 "D#3"
      0 62 "D3"
      0 61 "C#3"
      0 60 "C3"
      0 59 "B2"
      0 58 "A#2"
      0 57 "A2"
      0 56 "G#2"
      0 55 "G2"
      0 54 "F#2"
      0 53 "F2"
      0 52 "E2"
      0 51 "D#2"
      0 50 "D2"
      0 49 "C#2"
      0 48 "C2"
      0 47 "B1"
      0 46 "A#1"
      0 45 "A1"
      0 44 "G#1"
      0 43 "G1"
      0 42 "F#1"
      0 41 "F1"
      0 40 "E1"
      0 39 "D#1"
      0 38 "D1"
      0 37 "C#1"
      0 36 "Lowest Note C1"
      0 2 "---"
      0 1 "Lyric Shift"
      0 0 "Range Shift"
    >
    MAINSEND 1 0
    <FXCHAIN
      SHOW 0
      LASTSEL 0
      DOCKED 0
    >
    <ITEM
      POSITION 0.00000000000000
      SNAPOFFS 0.00000000000000
      LENGTH 36.31800000000000
      LOOP 0
      ALLTAKES 0
      SEL 0
      FADEIN 1 0.000000 0.000000 1 0
      FADEOUT 1 0.000000 0.000000 1 0
      MUTE 0
      IGUID {4EA1EFCB-3432-4863-B695-FBF9C5B35B9D}
      IID 6
      NAME "PART VOCALS"
      VOLPAN 1.000000 0.000000 1.000000 -1.000000
      SOFFS 0.00000000000000 0.00000000000000
      PLAYRATE 1.00000000000000 1 0.00000000000000 -1
      CHANMODE 0
      GUID {E898CAE6-2100-4F90-B0AF-9BCFA169C79E}
      <SOURCE MIDI
        HASDATA 1 480 QN
        POOLEDEVTS {F34D4CA8-BD56-4642-9A3F-937D786DB241}
        <X 0 0
          /wNQQVJUIFZPQ0FMUw==
        >
        E 9120 90 69 60
        <X 150 0
          /wFbcGxheV0=
        >
        <X 120 0
          /wVJJ20j
        >
        E 0 90 42 60
        E 90 80 42 00
        <X 150 0
          /wVnby0j
        >
        E 0 90 42 60
        E 150 80 42 00
        <X 60 0
          /wVpbmcj
        >
        E 0 90 42 60
        E 180 80 42 00
        <X 120 0
          /wVkb3du
        >
        E 0 90 42 60
        E 120 80 42 00
        <X 90 0
          /wV0bw==
        >
        E 0 90 42 60
        E 60 80 42 00
        <X 90 0
          /wVTb3V0aA==
        >
        E 0 90 42 60
        E 210 80 42 00
        <X 90 0
          /wVQYXJr
        >
        E 0 90 42 60
        E 180 80 42 00
        E 30 80 69 00
        E 0 90 69 60
        E 0 90 74 60
        <X 30 0
          /wVHb24t
        >
        E 0 90 42 60
        E 180 80 42 00
        <X 60 0
          /wVuYQ==
        >
        E 0 90 42 60
        E 180 80 42 00
        <X 60 0
          /wVoYXZl
        >
        E 0 90 42 60
        E 180 80 42 00
        <X 60 0
          /wVteS0=
        >
        E 0 90 42 60
        E 150 80 42 00
        <X 90 0
          /wVzZWxm
        >
        E 0 90 42 60
        E 210 80 42 00
        <X 60 0
          /wVh
        >
        E 0 90 42 60
        E 60 80 42 00
        <X 60 0
          /wV0aW1lIw==
        >
        E 0 90 42 60
        E 600 80 42 00
        <X 210 0
          /wFbaWRsZV0=
        >
        E 0 80 69 00
        E 0 80 74 00
        E 120 90 69 60
        <X 120 0
          /wVGcmllbmQt
        >
        E 0 90 42 60
        E 90 80 42 00
        <X 120 0
          /wVseQ==
        >
        E 0 90 42 60
        E 120 80 42 00
        <X 90 0
          /wVmYS0=
        >
        E 0 90 42 60
        E 150 80 42 00
        <X 90 0
          /wVjZXM=
        >
        E 0 90 42 60
        E 180 80 42 00
        <X 90 0
          /wVldmUtIw==
        >
        E 0 90 45 60
        E 150 80 45 00
        <X 120 0
          /wVyeS0j
        >
        E 0 90 45 60
        E 150 80 45 00
        <X 90 0
          /wV3aGVyZSM=
        >
        E 0 90 45 60
        E 210 80 45 00
        E 30 80 69 00
        E 0 90 69 60
        <X 240 0
          /wVIdW0t
        >
        E 0 90 42 60
        E 89 80 42 00
        <X 150 0
          /wVibGU=
        >
        E 0 90 42 60
        E 120 80 42 00
        <X 120 0
          /wVmb2xrcw==
        >
        E 0 90 42 60
        E 150 80 42 00
        <X 90 0
          /wV3aS0j
        >
        E 0 90 42 60
        E 31 80 42 00
        <X 60 0
          /wV0aG91dCM=
        >
        E 0 90 45 60
        E 210 80 45 00
        <X 150 0
          /wV0ZW1wLSM=
        >
        E 0 90 45 60
        E 150 80 45 00
        <X 90 0
          /wV0YS0j
        >
        E 0 90 45 60
        E 150 80 45 00
        <X 86 0
          /wV0aW9uIw==
        >
        E 0 90 45 60
        E 90 80 45 00
        E 64 80 69 00
        E 0 90 69 60
        E 0 90 74 60
        <X 90 0
          /wFbcGxheV0=
        >
        <X 60 0
          /wVHby0j
        >
        E 0 90 42 60
        E 150 80 42 00
        <X 60 0
          /wVpbmcj
        >
        E 0 90 42 60
        E 180 80 42 00
        <X 60 0
          /wVkb3du
        >
        E 0 90 42 60
        E 120 80 42 00
        <X 120 0
          /wV0bw==
        >
        E 0 90 42 60
        E 60 80 42 00
        <X 120 0
          /wVTb3V0aA==
        >
        E 0 90 42 60
        E 210 80 42 00
        <X 90 0
          /wVQYXJr
        >
        E 0 90 42 60
        E 180 80 42 00
        E 30 80 69 00
        E 0 80 74 00
        E 0 90 69 60
        <X 30 0
          /wVHb24t
        >
        E 0 90 42 60
        E 180 80 42 00
        <X 60 0
          /wVuYQ==
        >
        E 0 90 42 60
        E 180 80 42 00
        <X 60 0
          /wVsZWF2ZQ==
        >
        E 0 90 42 60
        E 180 80 42 00
        <X 60 0
          /wVteQ==
        >
        E 0 90 42 60
        E 150 80 42 00
        <X 90 0
          /wV3b2VzIw==
        >
        E 0 90 44 60
        E 300 80 44 00
        <X 90 0
          /wViZS0j
        >
        E 0 90 42 60
        E 30 80 42 00
        <X 60 0
          /wVoaW5kIw==
        >
        E 0 90 42 60
        E 390 80 42 00
        <X 90 0
          /wFbaWRsZV0=
        >
        E 0 80 69 00
        E 240 90 69 60
        <X 240 0
          /wVBbS0=
        >
        E 0 90 42 60
        E 90 80 42 00
        <X 120 0
          /wVwbGU=
        >
        E 0 90 42 60
        E 120 80 42 00
        <X 120 0
          /wVwYXJrLQ==
        >
        E 0 90 42 60
        E 150 80 42 00
        <X 90 0
          /wVpbmc=
        >
        E 0 90 42 60
        E 180 80 42 00
        <X 60 0
          /wVkYXkj
        >
        E 0 90 45 60
        E 150 80 45 00
        <X 120 0
          /wVvciM=
        >
        E 0 90 45 60
        E 120 80 45 00
        <X 120 0
          /wVuaWdodCM=
        >
        E 0 90 45 60
        E 210 80 45 00
        E 30 80 69 00
        E 0 90 69 60
        E 0 90 74 60
        <X 240 0
          /wVQZW8t
        >
        E 0 90 42 60
        E 89 80 42 00
        <X 150 0
          /wVwbGU=
        >
        E 0 90 42 60
        E 120 80 42 00
        <X 120 0
          /wVzcG91dC0=
        >
        E 0 90 42 60
        E 150 80 42 00
        <X 90 0
          /wVpbmc=
        >
        E 0 90 42 60
        E 151 80 42 00
        <X 90 0
          /wVob3ctIw==
        >
        E 0 90 45 60
        E 150 80 45 00
        <X 60 0
          /wVkeSM=
        >
        E 0 90 45 60
        E 150 80 45 00
        <X 120 0
          /wVuZWlnaC0j
        >
        E 0 90 45 60
        E 180 80 45 00
        <X 30 0
          /wVib3IhIw==
        >
        E 0 90 45 60
        E 180 80 45 00
        <X 30 0
          /wFbcGxheV0=
        >
        E 0 80 69 00
        E 0 80 74 00
        E 0 90 69 60
        <X 60 0
          /wVIZWFkLSM=
        >
        E 0 90 42 60
        E 30 80 42 00
        <X 30 0
          /wVpbmcj
        >
        E 0 90 42 60
        E 90 80 42 00
        <X 60 0
          /wVvbiM=
        >
        E 0 90 42 60
        E 150 80 42 00
        <X 89 0
          /wV1cCM=
        >
        E 0 90 42 60
        E 151 80 42 00
        <X 89 0
          /wV0byM=
        >
        E 0 90 42 60
        E 60 80 42 00
        <X 61 0
          /wVTb3V0aA==
        >
        E 0 90 42 60
        E 240 80 42 00
        <X 120 0
          /wVQYXJr
        >
        E 0 90 42 60
        E 180 80 42 00
        E 30 80 69 00
        E 0 90 69 60
        <X 30 0
          /wVHb24t
        >
        E 0 90 42 60
        E 180 80 42 00
        <X 60 0
          /wVuYQ==
        >
        E 0 90 42 60
        E 180 80 42 00
        <X 60 0
          /wVzZWU=
        >
        E 0 90 42 60
        E 90 80 42 00
        <X 60 0
          /wVpZg==
        >
        E 0 90 42 60
        E 30 80 42 00
        <X 60 0
          /wVJ
        >
        E 0 90 42 60
        E 150 80 42 00
        <X 90 0
          /wVjYW4ndA==
        >
        E 0 90 42 60
        E 180 80 42 00
        <X 90 0
          /wV1bi0j
        >
        E 0 90 42 60
        E 180 80 42 00
        <X 90 0
          /wV3aW5kIw==
        >
        E 0 90 42 60
        <X 570 0
          /wFbaWRsZV0=
        >
        E 0 80 42 00
        E 120 80 69 00
        E 0 90 69 60
        E 0 90 74 60
        <X 240 0
          /wVJ
        >
        E 0 90 45 60
        E 120 80 45 00
        <X 120 0
          /wVsaWtl
        >
        E 0 90 45 60
        E 150 80 45 00
        <X 90 0
          /wVnaXJscw==
        >
        E 0 90 45 60
        E 150 80 45 00
        <X 90 0
          /wV3aXRo
        >
        E 0 90 45 60
        E 90 80 45 00
        <X 150 0
          /wViaWcj
        >
        E 0 90 46 60
        E 90 80 46 00
        <X 150 0
          /wVmYXQj
        >
        E 0 90 46 60
        E 90 80 46 00
        <X 150 0
          /wV0aXQtIw==
        >
        E 0 90 46 60
        E 90 80 46 00
        <X 120 0
          /wV0aWVzIw==
        >
        E 0 90 46 60
        E 90 80 46 00
        E 60 80 69 00
        E 0 80 74 00
        E 0 90 69 60
        <X 120 0
          /wVJ
        >
        E 0 90 45 60
        E 120 80 45 00
        <X 120 0
          /wVsaWtl
        >
        E 0 90 45 60
        E 150 80 45 00
        <X 90 0
          /wVnaXJscw==
        >
        E 0 90 45 60
        E 150 80 45 00
        <X 90 0
          /wV3aXRoIw==
        >
        E 0 90 45 60
        E 90 80 45 00
        <X 150 0
          /wVkZWVwIw==
        >
        E 0 90 46 60
        E 90 80 46 00
        <X 150 0
          /wV2YS0j
        >
        E 0 90 46 60
        E 90 80 46 00
        <X 150 0
          /wVnaS0j
        >
        E 0 90 46 60
        E 90 80 46 00
        <X 90 0
          /wFbcGxheV0=
        >
        E 0 80 69 00
        E 0 90 69 60
        <X 60 0
          /wVTbyM=
        >
        E 0 90 42 60
        E 90 80 42 00
        <X 180 0
          /wVjb21l
        >
        E 0 90 42 60
        E 90 80 42 00
        <X 60 0
          /wVvbg==
        >
        E 0 90 42 60
        E 210 80 42 00
        <X 89 0
          /wVkb3du
        >
        E 0 90 42 60
        E 150 80 42 00
        <X 90 0
          /wV0bw==
        >
        E 0 90 42 60
        E 60 80 42 00
        <X 61 0
          /wVTb3V0aA==
        >
        E 0 90 42 60
        E 239 80 42 00
        <X 121 0
          /wVQYXJr
        >
        E 0 90 42 60
        E 180 80 42 00
        <X 60 0
          /wVhbmQ=
        >
        E 0 90 42 60
        E 120 80 42 00
        <X 120 0
          /wUr
        >
        E 0 90 3d 60
        E 60 80 3d 00
        E 60 80 69 00
        E 0 90 69 60
        <X 90 0
          /wVNZWV0Iw==
        >
        E 0 90 42 60
        E 180 80 42 00
        <X 90 0
          /wVzb21lIw==
        >
        E 0 90 3d 60
        E 120 80 3d 00
        <X 120 0
          /wVmcmllbmRzIw==
        >
        E 0 90 44 60
        E 300 80 44 00
        <X 60 0
          /wVvZiM=
        >
        E 0 90 3d 60
        E 30 80 3d 00
        <X 90 0
          /wVtaW5lIw==
        >
        E 0 90 3d 60
        E 240 80 3d 00
        <X 60 0
          /wFbaWRsZV9yZWFsdGltZV0=
        >
        E 659 80 69 00
        E 5760 b0 7b 00
        GUID {BFD565B8-7A6E-44E7-ACE7-23D78BED6B98}
        IGNTEMPO 0 120.00000000 4 4
        SRCCOLOR 24
        VELLANE 132 128 60
        COLORMAP "C:\Program Files\REAPER (x64)\Data\color_maps\rockband_guitarbass.png"
        CFGEDITVIEW -2795.288962 30.920627 0 12 0 0 0
        CFGEDIT 1 1 0 1 1 0 1 1 1 1 1 0.25000000 -8 -8 1544 872 0 2 1 1 0.00000000 0 1 0 0 0.500000 0 0 1.000000 64
        KEYSNAP 0 6 "102030050700" 0 "Pentatonic"
        EVTFILTER 0 -1 -1 -1 -1 0 1 0 0 -1.00000000 -1.00000000
      >
    >
  >
  <TRACK '{571F504E-0E11-45F8-B410-4BB157A2D55E}'
    NAME "HARM1"
    PEAKCOL 16576
    BEAT -1
    AUTOMODE 0
    VOLPAN 1.00000000000000 0.00000000000000 -1.00000000000000 -1.00000000000000 1.00000000000000
    MUTESOLO 0 0 0
    IPHASE 0
    ISBUS 0 0
    BUSCOMP 0 0
    SHOWINMIX 1 0.666700 0.500000 1 0.500000 -1 -1 -1
    FREEMODE 0
    SEL 0
    REC 0 0 0 0 0 0 0
    VU 2
    TRACKHEIGHT 0 0
    INQ 0 0 0 0.5000000000 100 0 0 100
    NCHAN 2
    FX 0
    TRACKID {571F504E-0E11-45F8-B410-4BB157A2D55E}
    PERF 0
    MIDIOUT -1
    <MIDINOTENAMES
      0 116 "OVERDRIVE"
      0 115 "----"
      0 105 "Phrase Marker"
      0 104 "----"
      0 84 "C6 (Unused Highest Note)"
      0 83 "B5"
      0 82 "A#4"
      0 81 "A4"
      0 80 "G#4"
      0 79 "G4"
      0 78 "F#4"
      0 77 "F4"
      0 76 "E4"
      0 75 "D#4"
      0 74 "D4"
      0 73 "C#4"
      0 72 "C4"
      0 71 "B3"
      0 70 "A#3"
      0 69 "A3"
      0 68 "G#3"
      0 67 "G3"
      0 66 "F#3"
      0 65 "F3"
      0 64 "E3"
      0 63 "D#3"
      0 62 "D3"
      0 61 "C#3"
      0 60 "C3"
      0 59 "B2"
      0 58 "A#2"
      0 57 "A2"
      0 56 "G#2"
      0 55 "G2"
      0 54 "F#2"
      0 53 "F2"
      0 52 "E2"
      0 51 "D#2"
      0 50 "D2"
      0 49 "C#2"
      0 48 "C2"
      0 47 "B1"
      0 46 "A#1"
      0 45 "A1"
      0 44 "G#1"
      0 43 "G1"
      0 42 "F#1"
      0 41 "F1"
      0 40 "E1"
      0 39 "D#1"
      0 38 "D1"
      0 37 "C#1"
      0 36 "Lowest Note C1"
      0 2 "---"
      0 1 "Lyric Shift"
      0 0 "Range Shift"
    >
    MAINSEND 1 0
    <FXCHAIN
      WNDRECT 0 43 655 467
      SHOW 0
      LASTSEL 1
      DOCKED 0
      BYPASS 0 0
      <JS "MIDI/midi_note_filter" ""
        36.000000 84.000000 - - - - - - - - - - - - - - - - - - - - - - - - - - - - - - - - - - - - - - - - - - - - - - - - - - - - - - - - - - - - - - 
      >
      FLOATPOS 0 0 0 0
      FXID {B5B437F6-BF62-4F84-AA41-40C15649568B}
      WAK 0
      BYPASS 0 0
      <VST "VSTi: ReaSynth (Cockos)" "reasynth.dll" 0 ""
        eXNlcu9e7f4AAAAAAgAAAAEAAAAAAAAAAgAAAAAAAAA4AAAAAAAAAA==
        AAAQAO++rd4N8K3eppvEOxe30ToAAIA/AAAAAAAAAADMm4A+6WeIPQ==
        AAAAAAAAAD8AAIA/AACAPwAAAD8AABAAAAA=
      >
      FLOATPOS 0 0 0 0
      FXID {5B504452-D675-4FC4-A368-56F8FCE47CA0}
      WAK 0
    >
    <ITEM
      POSITION 0.00000000000000
      SNAPOFFS 0.00000000000000
      LENGTH 36.31800000000000
      LOOP 0
      ALLTAKES 0
      SEL 0
      FADEIN 1 0.000000 0.000000 1 0
      FADEOUT 1 0.000000 0.000000 1 0
      MUTE 0
      IGUID {6515522C-CE92-4A0B-BE67-70AAB30F6F6E}
      IID 7
      NAME "HARM1"
      VOLPAN 1.000000 0.000000 1.000000 -1.000000
      SOFFS 0.00000000000000 0.00000000000000
      PLAYRATE 1.00000000000000 1 0.00000000000000 -1
      CHANMODE 0
      GUID {625CB51A-C884-4176-B847-982907F6525A}
      <SOURCE MIDI
        HASDATA 1 480 QN
        POOLEDEVTS {7A2E463E-E1F3-486E-8D7C-A20FFE0C84EB}
        <X 0 0
          /wNIQVJNMQ==
        >
        E 9120 90 69 60
        <X 150 0
          /wFbcGxheV0=
        >
        <X 120 0
          /wVJJ20j
        >
        E 0 90 42 60
        E 90 80 42 00
        <X 150 0
          /wVnby0j
        >
        E 0 90 42 60
        E 150 80 42 00
        <X 60 0
          /wVpbmcj
        >
        E 0 90 42 60
        E 180 80 42 00
        <X 120 0
          /wVkb3du
        >
        E 0 90 42 60
        E 120 80 42 00
        <X 90 0
          /wV0bw==
        >
        E 0 90 42 60
        E 60 80 42 00
        <X 90 0
          /wVTb3V0aA==
        >
        E 0 90 42 60
        E 210 80 42 00
        <X 90 0
          /wVQYXJr
        >
        E 0 90 42 60
        E 180 80 42 00
        E 30 80 69 00
        E 0 90 69 60
        E 0 90 74 60
        <X 30 0
          /wVHb24t
        >
        E 0 90 42 60
        E 180 80 42 00
        <X 60 0
          /wVuYQ==
        >
        E 0 90 42 60
        E 180 80 42 00
        <X 60 0
          /wVoYXZl
        >
        E 0 90 42 60
        E 180 80 42 00
        <X 60 0
          /wVteS0=
        >
        E 0 90 42 60
        E 150 80 42 00
        <X 90 0
          /wVzZWxm
        >
        E 0 90 42 60
        E 210 80 42 00
        <X 60 0
          /wVh
        >
        E 0 90 42 60
        E 60 80 42 00
        <X 60 0
          /wV0aW1lIw==
        >
        E 0 90 42 60
        E 600 80 42 00
        <X 210 0
          /wFbaWRsZV0=
        >
        E 0 80 69 00
        E 0 80 74 00
        E 120 90 69 60
        E 1800 80 69 00
        E 0 90 69 60
        E 2040 80 69 00
        E 0 90 69 60
        E 0 90 74 60
        <X 90 0
          /wFbcGxheV0=
        >
        <X 60 0
          /wVHby0j
        >
        E 0 90 42 60
        E 150 80 42 00
        <X 60 0
          /wVpbmcj
        >
        E 0 90 42 60
        E 180 80 42 00
        <X 60 0
          /wVkb3du
        >
        E 0 90 42 60
        E 120 80 42 00
        <X 120 0
          /wV0bw==
        >
        E 0 90 42 60
        E 60 80 42 00
        <X 120 0
          /wVTb3V0aA==
        >
        E 0 90 42 60
        E 210 80 42 00
        <X 90 0
          /wVQYXJr
        >
        E 0 90 42 60
        E 180 80 42 00
        E 30 80 69 00
        E 0 80 74 00
        E 0 90 69 60
        <X 30 0
          /wVHb24t
        >
        E 0 90 42 60
        E 180 80 42 00
        <X 60 0
          /wVuYQ==
        >
        E 0 90 42 60
        E 180 80 42 00
        <X 60 0
          /wVsZWF2ZQ==
        >
        E 0 90 42 60
        E 180 80 42 00
        <X 60 0
          /wVteQ==
        >
        E 0 90 42 60
        E 150 80 42 00
        <X 90 0
          /wV3b2VzIw==
        >
        E 0 90 44 60
        E 300 80 44 00
        <X 90 0
          /wViZS0j
        >
        E 0 90 42 60
        E 30 80 42 00
        <X 60 0
          /wVoaW5kIw==
        >
        E 0 90 42 60
        E 390 80 42 00
        <X 90 0
          /wFbaWRsZV0=
        >
        E 0 80 69 00
        E 240 90 69 60
        E 1920 80 69 00
        E 0 90 69 60
        E 0 90 74 60
        <X 2100 0
          /wFbcGxheV0=
        >
        E 0 80 69 00
        E 0 80 74 00
        E 0 90 69 60
        <X 60 0
          /wVIZWFkLSM=
        >
        E 0 90 42 60
        E 30 80 42 00
        <X 30 0
          /wVpbmcj
        >
        E 0 90 42 60
        E 90 80 42 00
        <X 60 0
          /wVvbiM=
        >
        E 0 90 42 60
        E 150 80 42 00
        <X 89 0
          /wV1cCM=
        >
        E 0 90 42 60
        E 151 80 42 00
        <X 89 0
          /wV0byM=
        >
        E 0 90 42 60
        E 60 80 42 00
        <X 61 0
          /wVTb3V0aA==
        >
        E 0 90 42 60
        E 240 80 42 00
        <X 120 0
          /wVQYXJr
        >
        E 0 90 42 60
        E 180 80 42 00
        E 30 80 69 00
        E 0 90 69 60
        <X 30 0
          /wVHb24t
        >
        E 0 90 42 60
        E 180 80 42 00
        <X 60 0
          /wVuYQ==
        >
        E 0 90 42 60
        E 180 80 42 00
        <X 60 0
          /wVzZWU=
        >
        E 0 90 42 60
        E 90 80 42 00
        <X 60 0
          /wVpZg==
        >
        E 0 90 42 60
        E 30 80 42 00
        <X 60 0
          /wVJ
        >
        E 0 90 42 60
        E 150 80 42 00
        <X 90 0
          /wVjYW4ndA==
        >
        E 0 90 42 60
        E 180 80 42 00
        <X 90 0
          /wV1bi0j
        >
        E 0 90 42 60
        E 180 80 42 00
        <X 90 0
          /wV3aW5kIw==
        >
        E 0 90 42 60
        <X 570 0
          /wFbaWRsZV0=
        >
        E 0 80 42 00
        E 120 80 69 00
        E 0 90 69 60
        E 0 90 74 60
        E 2040 80 69 00
        E 0 80 74 00
        E 0 90 69 60
        <X 1740 0
          /wFbcGxheV0=
        >
        E 0 80 69 00
        E 0 90 69 60
        <X 60 0
          /wVTbyM=
        >
        E 0 90 42 60
        E 90 80 42 00
        <X 180 0
          /wVjb21l
        >
        E 0 90 42 60
        E 90 80 42 00
        <X 60 0
          /wVvbg==
        >
        E 0 90 42 60
        E 210 80 42 00
        <X 89 0
          /wVkb3du
        >
        E 0 90 42 60
        E 150 80 42 00
        <X 90 0
          /wV0bw==
        >
        E 0 90 42 60
        E 60 80 42 00
        <X 61 0
          /wVTb3V0aA==
        >
        E 0 90 42 60
        E 239 80 42 00
        <X 121 0
          /wVQYXJr
        >
        E 0 90 42 60
        E 180 80 42 00
        <X 60 0
          /wVhbmQ=
        >
        E 0 90 42 60
        E 120 80 42 00
        <X 120 0
          /wUr
        >
        E 0 90 3d 60
        E 60 80 3d 00
        E 60 80 69 00
        E 0 90 69 60
        <X 90 0
          /wVNZWV0Iw==
        >
        E 0 90 42 60
        E 180 80 42 00
        <X 90 0
          /wVzb21lIw==
        >
        E 0 90 3d 60
        E 120 80 3d 00
        <X 120 0
          /wVmcmllbmRzIw==
        >
        E 0 90 44 60
        E 300 80 44 00
        <X 60 0
          /wVvZiM=
        >
        E 0 90 3d 60
        E 30 80 3d 00
        <X 90 0
          /wVtaW5lIw==
        >
        E 0 90 3d 60
        E 240 80 3d 00
        <X 60 0
          /wFbaWRsZV9yZWFsdGltZV0=
        >
        E 659 80 69 00
        E 5760 b0 7b 00
        GUID {E2291A89-92DF-4A73-9E9A-3A5E1C2A205A}
        IGNTEMPO 0 120.00000000 4 4
        SRCCOLOR 25
        VELLANE 132 128 60
        COLORMAP "C:\Program Files\REAPER (x64)\Data\color_maps\rockband_guitarbass.png"
        CFGEDITVIEW -2795.288962 30.920627 0 12 0 0 0
        CFGEDIT 1 1 0 1 1 0 1 1 1 1 1 0.25000000 -8 -8 1544 872 0 2 1 1 0.00000000 0 1 0 0 0.500000 0 0 1.000000 64
        KEYSNAP 0 6 "102030050700" 0 "Pentatonic"
        EVTFILTER 0 -1 -1 -1 -1 0 1 0 0 -1.00000000 -1.00000000
      >
    >
  >
  <TRACK '{580BAC05-FCF8-4E35-8685-D52CE7FDB713}'
    NAME "HARM2"
    PEAKCOL 16576
    BEAT -1
    AUTOMODE 0
    VOLPAN 1.00000000000000 0.00000000000000 -1.00000000000000 -1.00000000000000 1.00000000000000
    MUTESOLO 0 0 0
    IPHASE 0
    ISBUS 0 0
    BUSCOMP 0 0
    SHOWINMIX 1 0.666700 0.500000 1 0.500000 -1 -1 -1
    FREEMODE 0
    SEL 0
    REC 0 0 0 0 0 0 0
    VU 2
    TRACKHEIGHT 0 0
    INQ 0 0 0 0.5000000000 100 0 0 100
    NCHAN 2
    FX 0
    TRACKID {580BAC05-FCF8-4E35-8685-D52CE7FDB713}
    PERF 0
    MIDIOUT -1
    <MIDINOTENAMES
      0 105 "Phrase Marker"
      0 104 "----"
      0 84 "C6 (Unused Highest Note)"
      0 83 "B5"
      0 82 "A#4"
      0 81 "A4"
      0 80 "G#4"
      0 79 "G4"
      0 78 "F#4"
      0 77 "F4"
      0 76 "E4"
      0 75 "D#4"
      0 74 "D4"
      0 73 "C#4"
      0 72 "C4"
      0 71 "B3"
      0 70 "A#3"
      0 69 "A3"
      0 68 "G#3"
      0 67 "G3"
      0 66 "F#3"
      0 65 "F3"
      0 64 "E3"
      0 63 "D#3"
      0 62 "D3"
      0 61 "C#3"
      0 60 "C3"
      0 59 "B2"
      0 58 "A#2"
      0 57 "A2"
      0 56 "G#2"
      0 55 "G2"
      0 54 "F#2"
      0 53 "F2"
      0 52 "E2"
      0 51 "D#2"
      0 50 "D2"
      0 49 "C#2"
      0 48 "C2"
      0 47 "B1"
      0 46 "A#1"
      0 45 "A1"
      0 44 "G#1"
      0 43 "G1"
      0 42 "F#1"
      0 41 "F1"
      0 40 "E1"
      0 39 "D#1"
      0 38 "D1"
      0 37 "C#1"
      0 36 "Lowest Note C1"
    >
    MAINSEND 1 0
    <FXCHAIN
      WNDRECT 0 43 655 467
      SHOW 0
      LASTSEL 1
      DOCKED 0
      BYPASS 0 0
      <JS "MIDI/midi_note_filter" ""
        36.000000 84.000000 - - - - - - - - - - - - - - - - - - - - - - - - - - - - - - - - - - - - - - - - - - - - - - - - - - - - - - - - - - - - - - 
      >
      FLOATPOS 0 0 0 0
      FXID {15C613E8-EA34-43F8-8EC4-DCCD76B5891C}
      WAK 0
      BYPASS 0 0
      <VST "VSTi: ReaSynth (Cockos)" "reasynth.dll" 0 ""
        eXNlcu9e7f4AAAAAAgAAAAEAAAAAAAAAAgAAAAAAAAA4AAAAAAAAAA==
        AAAQAO++rd4N8K3eppvEOxe30ToAAIA/AAAAAAAAAADMm4A+6WeIPQ==
        AAAAAAAAAD8AAIA/AACAPwAAAD8AABAAAAA=
      >
      FLOATPOS 0 0 0 0
      FXID {AE54D3BF-9B42-4083-9CBA-F44C6AFF725B}
      WAK 0
    >
    <ITEM
      POSITION 0.00000000000000
      SNAPOFFS 0.00000000000000
      LENGTH 36.31800000000000
      LOOP 0
      ALLTAKES 0
      SEL 0
      FADEIN 1 0.000000 0.000000 1 0
      FADEOUT 1 0.000000 0.000000 1 0
      MUTE 0
      IGUID {A538A282-3EB4-44F0-B10A-72107F6E7A30}
      IID 8
      NAME "HARM2"
      VOLPAN 1.000000 0.000000 1.000000 -1.000000
      SOFFS 0.00000000000000 0.00000000000000
      PLAYRATE 1.00000000000000 1 0.00000000000000 -1
      CHANMODE 0
      GUID {95F225C2-BE62-48D8-A229-0AB9ADE04053}
      <SOURCE MIDI
        HASDATA 1 480 QN
        POOLEDEVTS {D1D27BE6-D581-43E6-A920-AB4C45FF9056}
        <X 0 0
          /wNIQVJNMg==
        >
        E 13380 90 69 60
        <X 60 0
          /wVGcmllbmQt
        >
        E 0 90 42 60
        E 90 80 42 00
        <X 120 0
          /wVseQ==
        >
        E 0 90 42 60
        E 120 80 42 00
        <X 90 0
          /wVmYS0=
        >
        E 0 90 42 60
        E 150 80 42 00
        <X 90 0
          /wVjZXM=
        >
        E 0 90 42 60
        E 180 80 42 00
        <X 90 0
          /wVldmUtIw==
        >
        E 0 90 45 60
        E 150 80 45 00
        <X 120 0
          /wVyeS0j
        >
        E 0 90 45 60
        E 150 80 45 00
        <X 90 0
          /wV3aGVyZSM=
        >
        E 0 90 45 60
        E 210 80 45 00
        E 30 80 69 00
        E 0 90 69 60
        <X 240 0
          /wVIdW0t
        >
        E 0 90 42 60
        E 89 80 42 00
        <X 150 0
          /wVibGU=
        >
        E 0 90 42 60
        E 120 80 42 00
        <X 120 0
          /wVmb2xrcw==
        >
        E 0 90 42 60
        E 150 80 42 00
        <X 90 0
          /wV3aS0j
        >
        E 0 90 42 60
        E 31 80 42 00
        <X 60 0
          /wV0aG91dCM=
        >
        E 0 90 45 60
        E 210 80 45 00
        <X 150 0
          /wV0ZW1wLSM=
        >
        E 0 90 45 60
        E 150 80 45 00
        <X 90 0
          /wV0YS0j
        >
        E 0 90 45 60
        E 150 80 45 00
        <X 86 0
          /wV0aW9uIw==
        >
        E 0 90 45 60
        E 90 80 45 00
        E 64 80 69 00
        E 3720 90 69 60
        <X 240 0
          /wVBbS0=
        >
        E 0 90 42 60
        E 90 80 42 00
        <X 120 0
          /wVwbGU=
        >
        E 0 90 42 60
        E 120 80 42 00
        <X 120 0
          /wVwYXJrLQ==
        >
        E 0 90 42 60
        E 150 80 42 00
        <X 90 0
          /wVpbmc=
        >
        E 0 90 42 60
        E 180 80 42 00
        <X 60 0
          /wVkYXkj
        >
        E 0 90 45 60
        E 150 80 45 00
        <X 120 0
          /wVvciM=
        >
        E 0 90 45 60
        E 120 80 45 00
        <X 120 0
          /wVuaWdodCM=
        >
        E 0 90 45 60
        E 210 80 45 00
        E 30 80 69 00
        E 0 90 69 60
        <X 240 0
          /wVQZW8t
        >
        E 0 90 42 60
        E 89 80 42 00
        <X 150 0
          /wVwbGU=
        >
        E 0 90 42 60
        E 120 80 42 00
        <X 120 0
          /wVzcG91dC0=
        >
        E 0 90 42 60
        E 150 80 42 00
        <X 90 0
          /wVpbmc=
        >
        E 0 90 42 60
        E 151 80 42 00
        <X 90 0
          /wVob3ctIw==
        >
        E 0 90 45 60
        E 150 80 45 00
        <X 60 0
          /wVkeSM=
        >
        E 0 90 45 60
        E 150 80 45 00
        <X 120 0
          /wVuZWlnaC0j
        >
        E 0 90 45 60
        E 180 80 45 00
        <X 30 0
          /wVib3IhIw==
        >
        E 0 90 45 60
        E 180 80 45 00
        E 30 80 69 00
        E 3660 90 69 60
        E 2040 80 69 00
        E 0 90 69 60
        E 2040 80 69 00
        E 2880 90 69 60
        <X 240 0
          /wU8RmFydD4j
        >
        E 0 90 36 60
        E 210 80 36 00
        E 509 80 69 00
        E 5760 b0 7b 00
        GUID {83A53F56-94CB-45EA-819E-67B971AAFDB1}
        IGNTEMPO 0 120.00000000 4 4
        SRCCOLOR 26
        VELLANE 132 128 60
        COLORMAP "C:\Program Files\REAPER (x64)\Data\color_maps\rockband_guitarbass.png"
        CFGEDITVIEW -2795.288962 30.920627 0 12 0 0 0
        CFGEDIT 1 1 0 1 1 0 1 1 1 1 1 0.25000000 -8 -8 1544 872 0 2 1 1 0.00000000 0 1 0 0 0.500000 0 0 1.000000 64
        KEYSNAP 0 6 "102030050700" 0 "Pentatonic"
        EVTFILTER 0 -1 -1 -1 -1 0 1 0 0 -1.00000000 -1.00000000
      >
    >
  >
  <TRACK '{C5E8113C-0112-428F-BDF7-B3DCA1CDAEFE}'
    NAME "HARM3"
    PEAKCOL 16576
    BEAT -1
    AUTOMODE 0
    VOLPAN 1.00000000000000 0.00000000000000 -1.00000000000000 -1.00000000000000 1.00000000000000
    MUTESOLO 0 0 0
    IPHASE 0
    ISBUS 2 -1
    BUSCOMP 0 0
    SHOWINMIX 1 0.666700 0.500000 1 0.500000 -1 -1 -1
    FREEMODE 0
    SEL 0
    REC 0 0 0 0 0 0 0
    VU 2
    TRACKHEIGHT 0 0
    INQ 0 0 0 0.5000000000 100 0 0 100
    NCHAN 2
    FX 0
    TRACKID {C5E8113C-0112-428F-BDF7-B3DCA1CDAEFE}
    PERF 0
    MIDIOUT -1
    <MIDINOTENAMES
      0 84 "C6 (Unused Highest Note)"
      0 83 "B5"
      0 82 "A#4"
      0 81 "A4"
      0 80 "G#4"
      0 79 "G4"
      0 78 "F#4"
      0 77 "F4"
      0 76 "E4"
      0 75 "D#4"
      0 74 "D4"
      0 73 "C#4"
      0 72 "C4"
      0 71 "B3"
      0 70 "A#3"
      0 69 "A3"
      0 68 "G#3"
      0 67 "G3"
      0 66 "F#3"
      0 65 "F3"
      0 64 "E3"
      0 63 "D#3"
      0 62 "D3"
      0 61 "C#3"
      0 60 "C3"
      0 59 "B2"
      0 58 "A#2"
      0 57 "A2"
      0 56 "G#2"
      0 55 "G2"
      0 54 "F#2"
      0 53 "F2"
      0 52 "E2"
      0 51 "D#2"
      0 50 "D2"
      0 49 "C#2"
      0 48 "C2"
      0 47 "B1"
      0 46 "A#1"
      0 45 "A1"
      0 44 "G#1"
      0 43 "G1"
      0 42 "F#1"
      0 41 "F1"
      0 40 "E1"
      0 39 "D#1"
      0 38 "D1"
      0 37 "C#1"
      0 36 "Lowest Note C1"
    >
    MAINSEND 1 0
    <FXCHAIN
      WNDRECT 0 43 655 467
      SHOW 0
      LASTSEL 1
      DOCKED 0
      BYPASS 0 0
      <JS "MIDI/midi_note_filter" ""
        36.000000 84.000000 - - - - - - - - - - - - - - - - - - - - - - - - - - - - - - - - - - - - - - - - - - - - - - - - - - - - - - - - - - - - - - 
      >
      FLOATPOS 0 0 0 0
      FXID {B6F821E9-DA17-42AD-9ECE-CFE8CE6907C6}
      WAK 0
      BYPASS 0 0
      <VST "VSTi: ReaSynth (Cockos)" "reasynth.dll" 0 ""
        eXNlcu9e7f4AAAAAAgAAAAEAAAAAAAAAAgAAAAAAAAA4AAAAAAAAAA==
        AAAQAO++rd4N8K3eppvEOxe30ToAAIA/AAAAAAAAAADMm4A+6WeIPQ==
        AAAAAAAAAD8AAIA/AACAPwAAAD8AABAAAAA=
      >
      FLOATPOS 0 0 0 0
      FXID {866557FE-9A8D-4B78-B1BB-8E4F1EE10DBE}
      WAK 0
    >
    <ITEM
      POSITION 0.00000000000000
      SNAPOFFS 0.00000000000000
      LENGTH 36.31800000000000
      LOOP 0
      ALLTAKES 0
      SEL 0
      FADEIN 1 0.000000 0.000000 1 0
      FADEOUT 1 0.000000 0.000000 1 0
      MUTE 0
      IGUID {9CFCA024-5BBE-4844-87D3-30CE3399A8F4}
      IID 9
      NAME "HARM3"
      VOLPAN 1.000000 0.000000 1.000000 -1.000000
      SOFFS 0.00000000000000 0.00000000000000
      PLAYRATE 1.00000000000000 1 0.00000000000000 -1
      CHANMODE 0
      GUID {4161821D-08D9-4F15-8380-950DE5C38854}
      <SOURCE MIDI
        HASDATA 1 480 QN
        POOLEDEVTS {9BA2FDCF-14F9-4C02-840D-CA5CA5689986}
        <X 0 0
          /wNIQVJNMw==
        >
        <X 13440 0
          /wVGcmllbmQt
        >
        E 0 90 42 60
        E 90 80 42 00
        <X 120 0
          /wVseQ==
        >
        E 0 90 42 60
        E 120 80 42 00
        <X 90 0
          /wVmYS0=
        >
        E 0 90 42 60
        E 150 80 42 00
        <X 90 0
          /wVjZXM=
        >
        E 0 90 42 60
        E 180 80 42 00
        <X 90 0
          /wVldmUtIw==
        >
        E 0 90 45 60
        E 150 80 45 00
        <X 120 0
          /wVyeS0j
        >
        E 0 90 45 60
        E 150 80 45 00
        <X 90 0
          /wV3aGVyZSM=
        >
        E 0 90 45 60
        E 210 80 45 00
        <X 270 0
          /wVIdW0t
        >
        E 0 90 42 60
        E 89 80 42 00
        <X 150 0
          /wVibGU=
        >
        E 0 90 42 60
        E 120 80 42 00
        <X 120 0
          /wVmb2xrcw==
        >
        E 0 90 42 60
        E 150 80 42 00
        <X 90 0
          /wV3aS0j
        >
        E 0 90 42 60
        E 31 80 42 00
        <X 60 0
          /wV0aG91dCM=
        >
        E 0 90 45 60
        E 210 80 45 00
        <X 150 0
          /wV0ZW1wLSM=
        >
        E 0 90 45 60
        E 150 80 45 00
        <X 90 0
          /wV0YS0j
        >
        E 0 90 45 60
        E 150 80 45 00
        <X 86 0
          /wV0aW9uIw==
        >
        E 0 90 45 60
        E 90 80 45 00
        <X 11704 0
          /wVJ
        >
        E 0 90 45 60
        E 120 80 45 00
        <X 120 0
          /wVsaWtl
        >
        E 0 90 45 60
        E 150 80 45 00
        <X 90 0
          /wVnaXJscw==
        >
        E 0 90 45 60
        E 150 80 45 00
        <X 90 0
          /wV3aXRo
        >
        E 0 90 45 60
        E 90 80 45 00
        <X 150 0
          /wViaWcj
        >
        E 0 90 46 60
        E 90 80 46 00
        <X 150 0
          /wVmYXQj
        >
        E 0 90 46 60
        E 90 80 46 00
        <X 150 0
          /wV0aXQtIw==
        >
        E 0 90 46 60
        E 90 80 46 00
        <X 120 0
          /wV0aWVzIw==
        >
        E 0 90 46 60
        E 90 80 46 00
        <X 180 0
          /wVJ
        >
        E 0 90 45 60
        E 120 80 45 00
        <X 120 0
          /wVsaWtl
        >
        E 0 90 45 60
        E 150 80 45 00
        <X 90 0
          /wVnaXJscw==
        >
        E 0 90 45 60
        E 150 80 45 00
        <X 90 0
          /wV3aXRoIw==
        >
        E 0 90 45 60
        E 90 80 45 00
        <X 150 0
          /wVkZWVwIw==
        >
        E 0 90 46 60
        E 90 80 46 00
        <X 150 0
          /wV2YS0j
        >
        E 0 90 46 60
        E 90 80 46 00
        <X 150 0
          /wVnaS0j
        >
        E 0 90 46 60
        E 90 80 46 00
        <X 119 0
          /wVuYXMj
        >
        E 0 90 46 60
        E 90 80 46 00
        E 9780 b0 7b 00
        GUID {6DE5911D-D93A-463B-82FD-20F4EF0ECFB9}
        IGNTEMPO 0 120.00000000 4 4
        SRCCOLOR 27
        VELLANE 132 128 60
        COLORMAP "C:\Program Files\REAPER (x64)\Data\color_maps\rockband_guitarbass.png"
        CFGEDITVIEW -2795.288962 30.920627 14 12 0 0 0
        CFGEDIT 1 1 0 1 1 0 1 1 1 1 1 0.25000000 -8 -8 1544 872 0 2 1 1 0.00000000 0 1 0 0 0.500000 0 0 1.000000 64
        KEYSNAP 0 6 "102030050700" 0 "Pentatonic"
        EVTFILTER 0 -1 -1 -1 -1 0 1 0 0 -1.00000000 -1.00000000
      >
    >
  >
  <TRACK '{161775DC-77D5-46D9-8871-CB52D0DA1E34}'
    NAME "PART REAL_BASS"
    PEAKCOL 16576
    BEAT -1
    AUTOMODE 0
    VOLPAN 1.00000000000000 0.00000000000000 -1.00000000000000 -1.00000000000000 1.00000000000000
    MUTESOLO 0 0 0
    IPHASE 0
    ISBUS 0 0
    BUSCOMP 0 0
    SHOWINMIX 1 0.666700 0.500000 1 0.500000 -1 -1 -1
    FREEMODE 0
    SEL 0
    REC 0 0 0 0 0 0 0
    VU 2
    TRACKHEIGHT 0 0
    INQ 0 0 0 0.5000000000 100 0 0 100
    NCHAN 2
    FX 0
    TRACKID {161775DC-77D5-46D9-8871-CB52D0DA1E34}
    PERF 0
    MIDIOUT -1
    <MIDINOTENAMES
      0 127 "Trill Marker"
      0 126 "Tremolo Marker"
      0 125 "BRE"
      0 124 "BRE"
      0 123 "BRE"
      0 122 "BRE"
      0 121 "BRE"
      0 120 "BRE (use all 6)"
      0 119 "-----------"
      0 116 "OVERDRIVE"
      0 115 "Solo Marker"
      0 109 "-----------"
      0 108 "Fret Hand Position"
      0 107 "Force Chord Numbering"
      0 106 "Loose Strumming"
      0 105 "Strum Direction"
      0 104 "Arpeggio Marker"
      0 103 "Slide Marker"
      0 102 "Force HOPO"
      0 101 "EXPERT e String"
      0 100 "EXPERT B String"
      0 99 "EXPERT G String"
      0 98 "EXPERT D String"
      0 97 "EXPERT A String"
      0 96 "EXPERT E String"
      0 95 "-----------"
      0 82 "Loose Strumming"
      0 81 "Strum Direction"
      0 80 "Arpeggio Marker"
      0 79 "Slide Marker"
      0 78 "Force HOPO"
      0 77 "HARD e String"
      0 76 "HARD B String"
      0 75 "HARD G String"
      0 74 "HARD D String"
      0 73 "HARD A String"
      0 72 "HARD E String"
      0 71 "-----------"
      0 58 "Loose Strumming"
      0 56 "Arpeggio Marker"
      0 55 "Slide Marker"
      0 53 "MEDIUM e String"
      0 52 "MEDIUM B String"
      0 51 "MEDIUM G String"
      0 50 "MEDIUM D String"
      0 49 "MEDIUM A String"
      0 48 "MEDIUM E String"
      0 47 "-----------"
      0 32 "Arpeggio Marker"
      0 31 "Slide Marker"
      0 29 "EASY e String"
      0 28 "EASY B String"
      0 27 "EASY G String"
      0 26 "EASY D String"
      0 25 "EASY A String"
      0 24 "EASY E String"
      0 21 "-----------"
      0 18 "Flat/Sharp Swap"
      0 17 "Hide Chord Names"
      0 16 "Slash Chord"
      0 15 "D#"
      0 14 "D"
      0 13 "C#"
      0 12 "C"
      0 11 "B"
      0 10 "A#"
      0 9 "A"
      0 8 "G#"
      0 7 "G"
      0 6 "F#"
      0 5 "F"
      0 4 "E"
    >
    MAINSEND 1 0
    <FXCHAIN
      WNDRECT 0 43 655 467
      SHOW 0
      LASTSEL 2
      DOCKED 0
      BYPASS 0 0
      <JS "c3/progtr" ""
        0.000000 3.000000 0.000000 0.000000 0.000000 0.000000 0.000000 0.000000 0.000000 1.000000 - - - - - - - - - - - - - - - - - - - - - - - - - - - - - - - - - - - - - - - - - - - - - - - - - - - - - - 
      >
      FLOATPOS 0 0 0 0
      FXID {73D92838-D90E-4446-8FD4-C44D7DB1DFCD}
      WAK 0
      BYPASS 0 0
      <JS "MIDI/midi_transpose" ""
        -12.000000 1.000000 0.000000 127.000000 - - - - - - - - - - - - - - - - - - - - - - - - - - - - - - - - - - - - - - - - - - - - - - - - - - - - - - - - - - - - 
      >
      FLOATPOS 0 0 0 0
      FXID {CE1D3C67-EFED-4F4D-B735-4B8D74460E94}
      WAK 0
      BYPASS 0 0
      <VST "VSTi: ReaSynth (Cockos)" "reasynth.dll" 0 ""
        eXNlcu9e7f4AAAAAAgAAAAEAAAAAAAAAAgAAAAAAAAA4AAAAAAAAAA==
        AAAQAO++rd4N8K3eppvEO+gJMjwAAAAAAAAAAAAAgD8AAIA/4jAEPA==
        AAAAAAAAAD+01hM+j8L1PQAAAD8AABAAAAA=
      >
      FLOATPOS 0 0 0 0
      FXID {4B738C6B-C759-4875-B517-555ADCCCE8A1}
      WAK 0
    >
    <ITEM
      POSITION 0.00000000000000
      SNAPOFFS 0.00000000000000
      LENGTH 36.31800000000000
      LOOP 0
      ALLTAKES 0
      SEL 0
      FADEIN 1 0.000000 0.000000 1 0
      FADEOUT 1 0.000000 0.000000 1 0
      MUTE 0
      IGUID {FA6795BA-26A9-4C57-A391-A595DE36DBDB}
      IID 5
      NAME "PART REAL_BASS"
      VOLPAN 1.000000 0.000000 1.000000 -1.000000
      SOFFS 0.00000000000000 0.00000000000000
      PLAYRATE 1.00000000000000 1 0.00000000000000 -1
      CHANMODE 0
      GUID {C524BFB4-0A7E-4219-8EB0-C72CF84162E5}
      <SOURCE MIDI
        HASDATA 1 480 QN
        POOLEDEVTS {4E87C38D-1EF5-4967-A0F0-B905791774BC}
        <X 0 0
          /wNQQVJUIFJFQUxfQkFTUw==
        >
        E 5760 90 19 6c
        E 0 90 31 6c
        E 0 90 49 6c
        E 0 90 61 6c
        E 0 90 6c 6c
        E 0 9b 1f 64
        E 0 9b 37 64
        E 0 9b 4f 64
        E 0 9b 67 64
        E 120 80 6c 00
        E 300 80 19 00
        E 0 80 31 00
        E 0 80 49 00
        E 0 80 61 00
        E 0 8b 1f 00
        E 60 90 48 6c
        E 0 90 60 6c
        E 420 80 48 00
        E 0 80 60 00
        E 60 90 31 6c
        E 0 90 49 6c
        E 0 90 61 6c
        E 420 80 31 00
        E 0 80 49 00
        E 0 80 61 00
        E 60 90 48 6c
        E 0 90 60 6c
        E 420 80 48 00
        E 0 80 60 00
        E 60 90 31 6c
        E 0 90 49 6c
        E 0 90 61 6c
        E 0 90 74 64
        E 420 80 31 00
        E 0 80 49 00
        E 0 80 61 00
        E 0 8b 37 00
        E 60 90 48 6c
        E 0 90 60 6c
        E 420 80 48 00
        E 0 80 60 00
        E 0 8b 4f 00
        E 0 8b 67 00
        E 60 90 18 6e
        E 0 90 30 6e
        E 0 90 48 6e
        E 0 90 60 6e
        E 0 90 6c 6e
        E 120 80 18 00
        E 0 80 30 00
        E 0 80 48 00
        E 0 80 60 00
        E 0 80 6c 00
        <X 840 0
          /wFbYmVnaW5fcGIgc29uZ190cmFpbmVyX3BiXzFd
        >
        E 0 80 74 00
        E 0 90 19 6c
        E 0 90 31 6c
        E 0 90 49 6c
        E 0 90 61 6c
        E 0 90 6c 6c
        E 0 9b 1f 64
        E 0 9b 37 64
        E 0 9b 4f 64
        E 0 9b 67 64
        E 120 80 6c 00
        E 300 80 19 00
        E 0 80 31 00
        E 0 80 49 00
        E 0 80 61 00
        E 60 90 48 6c
        E 0 90 60 6c
        E 420 80 48 00
        E 0 80 60 00
        E 60 90 31 6c
        E 0 90 49 6c
        E 0 90 61 6c
        E 420 80 31 00
        E 0 80 49 00
        E 0 80 61 00
        E 60 90 48 6c
        E 0 90 60 6c
        E 420 80 48 00
        E 0 80 60 00
        <X 60 0
          /wFbcGJfbm9ybSBzb25nX3RyYWluZXJfcGJfMV0=
        >
        E 0 90 19 6c
        E 0 90 31 6c
        E 0 90 49 6c
        E 0 90 61 6c
        E 420 80 19 00
        E 0 80 31 00
        E 0 80 49 00
        E 0 80 61 00
        E 0 8b 1f 00
        E 60 90 48 6c
        E 0 90 60 6c
        E 420 80 48 00
        E 0 80 60 00
        E 0 8b 4f 00
        E 0 8b 67 00
        E 60 90 31 6c
        E 0 90 49 6c
        E 0 90 4f 64
        E 0 90 61 6c
        E 0 90 67 64
        E 420 80 31 00
        E 0 80 49 00
        E 0 80 61 00
        E 0 8b 37 00
        E 60 90 49 6e
        E 0 90 61 6e
        E 0 90 6c 6e
        E 120 80 6c 00
        E 300 80 4f 00
        E 0 80 67 00
        E 0 80 49 00
        E 0 80 61 00
        E 60 90 19 70
        E 0 90 31 70
        E 0 90 49 70
        E 0 90 61 70
        E 0 90 6c 70
        E 120 80 19 00
        E 0 80 31 00
        E 0 80 49 00
        E 0 80 61 00
        E 0 80 6c 00
        E 120 90 49 70
        E 0 90 61 70
        E 120 80 49 00
        E 0 80 61 00
        E 120 90 31 70
        E 0 90 49 70
        E 0 90 61 70
        E 120 80 31 00
        E 0 80 49 00
        E 0 80 61 00
        E 120 90 49 70
        E 0 90 61 70
        E 120 80 49 00
        E 0 80 61 00
        E 120 90 31 73
        E 0 90 49 73
        E 0 90 61 73
        E 120 80 31 00
        E 0 80 49 00
        E 0 80 61 00
        E 0 90 61 73
        E 120 80 61 00
        E 0 90 49 73
        E 0 90 61 73
        E 120 80 49 00
        E 0 80 61 00
        E 120 90 49 73
        E 0 90 61 73
        E 120 80 49 00
        E 0 80 61 00
        E 360 90 19 70
        E 0 90 31 70
        E 0 90 49 70
        E 0 90 61 70
        E 0 90 74 64
        E 120 80 19 00
        E 0 80 31 00
        E 0 80 49 00
        E 0 80 61 00
        E 360 90 31 70
        E 0 90 49 70
        E 0 90 61 70
        E 120 80 31 00
        E 0 80 49 00
        E 0 80 61 00
        E 360 90 31 73
        E 0 90 49 73
        E 0 90 61 73
        E 120 80 31 00
        E 0 80 49 00
        E 0 80 61 00
        E 0 90 61 73
        E 120 80 61 00
        E 0 90 49 73
        E 0 90 61 73
        E 120 80 49 00
        E 0 80 61 00
        E 0 90 61 73
        E 120 80 61 00
        E 0 90 49 70
        E 0 90 61 70
        E 120 80 49 00
        E 0 80 61 00
        E 120 90 49 6f
        E 0 90 61 6f
        E 0 90 6c 6f
        E 120 80 49 00
        E 0 80 61 00
        E 0 80 6c 00
        <X 120 0
          /wFbZW5kX3BiIHNvbmdfdHJhaW5lcl9wYl8xXQ==
        >
        E 0 80 74 00
        E 0 90 19 6c
        E 0 90 31 6c
        E 0 90 49 6c
        E 0 90 61 6c
        E 0 90 6c 6c
        E 0 9b 1f 64
        E 0 9b 37 64
        E 0 9b 4f 64
        E 0 9b 67 64
        E 120 80 6c 00
        E 300 80 19 00
        E 0 80 31 00
        E 0 80 49 00
        E 0 80 61 00
        E 60 90 48 6c
        E 0 90 60 6c
        E 420 80 48 00
        E 0 80 60 00
        E 60 90 31 6c
        E 0 90 49 6c
        E 0 90 61 6c
        E 420 80 31 00
        E 0 80 49 00
        E 0 80 61 00
        E 60 90 48 6c
        E 0 90 60 6c
        E 420 80 48 00
        E 0 80 60 00
        E 60 90 19 6c
        E 0 90 31 6c
        E 0 90 49 6c
        E 0 90 61 6c
        E 420 80 19 00
        E 0 80 31 00
        E 0 80 49 00
        E 0 80 61 00
        E 0 8b 1f 00
        E 0 8b 37 00
        E 60 90 48 6c
        E 0 90 60 6c
        E 420 80 48 00
        E 0 80 60 00
        E 0 8b 4f 00
        E 0 8b 67 00
        E 60 90 31 6c
        E 0 90 37 64
        E 0 90 49 6c
        E 0 90 4f 64
        E 0 90 61 6c
        E 0 90 67 64
        E 420 80 31 00
        E 0 80 37 00
        E 0 80 49 00
        E 0 80 61 00
        E 60 90 49 6e
        E 0 90 61 6e
        E 0 90 6c 6e
        E 120 80 6c 00
        E 300 80 4f 00
        E 0 80 67 00
        E 0 80 49 00
        E 0 80 61 00
        E 60 90 19 70
        E 0 90 31 70
        E 0 90 49 70
        E 0 90 61 70
        E 0 90 6c 70
        E 120 80 19 00
        E 0 80 31 00
        E 0 80 49 00
        E 0 80 61 00
        E 0 80 6c 00
        E 120 90 49 70
        E 0 90 61 70
        E 120 80 49 00
        E 0 80 61 00
        E 120 90 31 70
        E 0 90 49 70
        E 0 90 61 70
        E 120 80 31 00
        E 0 80 49 00
        E 0 80 61 00
        E 120 90 49 70
        E 0 90 61 70
        E 120 80 49 00
        E 0 80 61 00
        E 120 90 19 73
        E 0 90 31 73
        E 0 90 49 73
        E 0 90 61 73
        E 0 90 74 64
        E 120 80 19 00
        E 0 80 31 00
        E 0 80 49 00
        E 0 80 61 00
        E 0 90 61 73
        E 120 80 61 00
        E 0 90 49 73
        E 0 90 61 73
        E 120 80 49 00
        E 0 80 61 00
        E 120 90 49 73
        E 0 90 61 73
        E 120 80 49 00
        E 0 80 61 00
        E 120 90 49 73
        E 0 90 61 73
        E 120 80 49 00
        E 0 80 61 00
        E 120 80 74 00
        E 0 90 19 70
        E 0 90 31 70
        E 0 90 49 70
        E 0 90 61 70
        E 120 80 19 00
        E 0 80 31 00
        E 0 80 49 00
        E 0 80 61 00
        E 120 90 49 70
        E 0 90 61 70
        E 120 80 49 00
        E 0 80 61 00
        E 120 90 31 72
        E 0 90 49 72
        E 0 90 61 72
        E 120 80 31 00
        E 0 80 49 00
        E 0 80 61 00
        E 0 90 61 73
        E 120 80 61 00
        E 0 90 49 73
        E 0 90 61 73
        E 120 80 49 00
        E 0 80 61 00
        E 120 90 31 70
        E 0 90 49 70
        E 0 90 61 70
        E 120 80 31 00
        E 0 80 49 00
        E 0 80 61 00
        E 120 90 49 70
        E 0 90 61 70
        E 120 80 49 00
        E 0 80 61 00
        E 0 90 61 70
        E 120 80 61 00
        E 0 90 49 6f
        E 0 90 4f 64
        E 0 90 61 6f
        E 0 90 67 64
        E 0 90 6c 6f
        E 120 80 6c 00
        E 300 80 49 00
        E 0 80 4f 00
        E 0 80 61 00
        E 0 80 67 00
        E 60 90 19 6c
        E 0 90 31 6c
        E 0 90 49 6c
        E 0 90 61 6c
        E 0 90 6c 6c
        E 0 9b 1f 64
        E 0 9b 37 64
        E 0 9b 4f 64
        E 0 9b 67 64
        E 120 80 6c 00
        E 300 80 19 00
        E 0 80 31 00
        E 0 80 49 00
        E 0 80 61 00
        E 0 8b 4f 00
        E 60 90 48 6c
        E 0 90 60 6c
        E 0 9b 4f 64
        E 420 80 48 00
        E 0 80 60 00
        E 0 8b 4f 00
        E 60 90 31 6c
        E 0 90 49 6c
        E 0 90 61 6c
        E 0 9b 4f 64
        E 420 80 31 00
        E 0 80 49 00
        E 0 80 61 00
        E 0 8b 4f 00
        E 60 90 48 6c
        E 0 90 60 6c
        E 0 9b 4f 64
        E 420 80 48 00
        E 0 80 60 00
        E 0 8b 4f 00
        E 60 90 19 6c
        E 0 90 31 6c
        E 0 90 49 6c
        E 0 90 61 6c
        E 0 9b 4f 64
        E 420 80 19 00
        E 0 80 31 00
        E 0 80 49 00
        E 0 80 61 00
        E 0 8b 1f 00
        E 0 8b 4f 00
        E 60 90 48 6c
        E 0 90 60 6c
        E 0 9b 4f 64
        E 420 80 48 00
        E 0 80 60 00
        E 0 8b 67 00
        E 0 8b 4f 00
        E 60 90 31 6c
        E 0 90 49 6c
        E 0 90 61 6c
        E 0 90 67 64
        E 0 9b 4f 64
        E 420 80 31 00
        E 0 80 49 00
        E 0 80 61 00
        E 0 8b 37 00
        E 0 8b 4f 00
        E 60 90 49 6e
        E 0 90 61 6e
        E 0 90 6c 6e
        E 0 9b 4f 64
        E 120 80 6c 00
        E 300 80 67 00
        E 0 80 49 00
        E 0 80 61 00
        E 0 8b 4f 00
        E 60 90 19 70
        E 0 90 31 70
        E 0 90 49 70
        E 0 90 61 70
        E 0 90 6c 70
        E 0 90 74 64
        E 120 80 19 00
        E 0 80 31 00
        E 0 80 49 00
        E 0 80 61 00
        E 0 80 6c 00
        E 120 90 49 70
        E 0 90 61 70
        E 120 80 49 00
        E 0 80 61 00
        E 120 90 31 70
        E 0 90 49 70
        E 0 90 61 70
        E 120 80 31 00
        E 0 80 49 00
        E 0 80 61 00
        E 120 90 49 70
        E 0 90 61 70
        E 120 80 49 00
        E 0 80 61 00
        E 120 80 74 00
        E 0 90 31 73
        E 0 90 49 73
        E 0 90 61 73
        E 120 80 31 00
        E 0 80 49 00
        E 0 80 61 00
        E 0 90 61 73
        E 120 80 61 00
        E 0 90 49 73
        E 0 90 61 73
        E 120 80 49 00
        E 0 80 61 00
        E 120 90 49 73
        E 0 90 61 73
        E 120 80 49 00
        E 0 80 61 00
        E 360 90 19 70
        E 0 90 31 70
        E 0 90 49 70
        E 0 90 61 70
        E 120 80 19 00
        E 0 80 31 00
        E 0 80 49 00
        E 0 80 61 00
        E 360 90 31 73
        E 0 90 49 73
        E 0 90 61 73
        E 120 80 31 00
        E 0 80 49 00
        E 0 80 61 00
        E 0 90 61 73
        E 120 80 61 00
        E 0 90 49 73
        E 0 90 61 73
        E 120 80 49 00
        E 0 80 61 00
        E 0 90 61 73
        E 120 80 61 00
        E 0 90 19 72
        E 0 90 49 72
        E 0 90 61 72
        E 120 80 19 00
        E 0 80 49 00
        E 0 80 61 00
        E 120 90 49 73
        E 0 90 61 73
        E 120 80 49 00
        E 0 80 61 00
        E 120 90 31 72
        E 0 90 37 64
        E 0 90 49 72
        E 0 90 4f 64
        E 0 90 61 72
        E 0 90 67 64
        E 420 80 31 00
        E 0 80 37 00
        E 0 80 49 00
        E 0 80 4f 00
        E 0 80 61 00
        E 0 80 67 00
        E 60 90 19 6c
        E 0 90 31 6c
        E 0 90 49 6c
        E 0 90 61 6c
        E 0 90 6c 6c
        E 0 9b 1f 64
        E 0 9b 37 64
        E 0 9b 4f 64
        E 0 9b 67 64
        E 120 80 6c 00
        E 300 80 19 00
        E 0 80 31 00
        E 0 80 49 00
        E 0 80 61 00
        E 0 8b 1f 00
        E 0 8b 4f 00
        E 60 90 48 6c
        E 0 90 60 6c
        E 0 9b 4f 64
        E 420 80 48 00
        E 0 80 60 00
        E 0 8b 4f 00
        E 60 90 31 6c
        E 0 90 49 6c
        E 0 90 61 6c
        E 0 9b 4f 64
        E 420 80 31 00
        E 0 80 49 00
        E 0 80 61 00
        E 0 8b 4f 00
        E 60 90 48 6c
        E 0 90 60 6c
        E 0 9b 4f 64
        E 420 80 48 00
        E 0 80 60 00
        E 0 8b 4f 00
        E 60 90 31 6c
        E 0 90 49 6c
        E 0 90 61 6c
        E 0 9b 4f 64
        E 420 80 31 00
        E 0 80 49 00
        E 0 80 61 00
        E 0 8b 37 00
        E 0 8b 67 00
        E 0 8b 4f 00
        E 60 90 30 6c
        E 0 90 48 6c
        E 0 90 60 6c
        E 120 80 30 00
        E 0 80 48 00
        E 0 80 60 00
        E 120 90 48 6e
        E 0 90 60 6e
        E 120 80 48 00
        E 0 80 60 00
        E 120 90 18 6f
        E 0 90 30 6f
        E 0 90 48 6f
        E 0 90 60 6f
        E 120 80 18 00
        E 0 80 30 00
        E 0 80 48 00
        E 0 80 60 00
        E 6599 b0 7b 00
        GUID {01BD7EA3-95AD-4D56-95DD-0DD1E90C8966}
        IGNTEMPO 0 120.00000000 4 4
        SRCCOLOR 23
        VELLANE 132 128 60
        COLORMAP "C:\Program Files\REAPER (x64)\Data\color_maps\rockband_guitarbass.png"
        CFGEDITVIEW -2795.288962 30.920627 7 12 0 0 0
        CFGEDIT 1 1 0 1 1 0 1 1 1 1 1 0.25000000 -8 -8 1544 872 0 2 1 1 0.00000000 0 1 0 0 0.500000 0 0 1.000000 64
        KEYSNAP 0 6 "102030050700" 0 "Pentatonic"
        EVTFILTER 0 -1 -1 -1 -1 0 1 0 0 -1.00000000 -1.00000000
      >
    >
  >
  <TRACK '{94075F21-FE63-4BB5-A944-D4A419D84E76}'
    NAME "PART REAL_GUITAR"
    PEAKCOL 16576
    BEAT -1
    AUTOMODE 0
    VOLPAN 1.00000000000000 0.00000000000000 -1.00000000000000 -1.00000000000000 1.00000000000000
    MUTESOLO 0 0 0
    IPHASE 0
    ISBUS 0 0
    BUSCOMP 0 0
    SHOWINMIX 1 0.666700 0.500000 1 0.500000 -1 -1 -1
    FREEMODE 0
    SEL 0
    REC 0 0 0 0 0 0 0
    VU 2
    TRACKHEIGHT 0 0
    INQ 0 0 0 0.5000000000 100 0 0 100
    NCHAN 2
    FX 0
    TRACKID {94075F21-FE63-4BB5-A944-D4A419D84E76}
    PERF 0
    MIDIOUT -1
    <MIDINOTENAMES
      0 127 "Trill Marker"
      0 126 "Tremolo Marker"
      0 125 "BRE"
      0 124 "BRE"
      0 123 "BRE"
      0 122 "BRE"
      0 121 "BRE"
      0 120 "BRE (use all 6)"
      0 119 "-----------"
      0 116 "OVERDRIVE"
      0 115 "Solo Marker"
      0 109 "-----------"
      0 108 "Fret Hand Position"
      0 107 "Force Chord Numbering"
      0 106 "Loose Strumming"
      0 105 "Strum Direction"
      0 104 "Arpeggio Marker"
      0 103 "Slide Marker"
      0 102 "Force HOPO"
      0 101 "EXPERT e String"
      0 100 "EXPERT B String"
      0 99 "EXPERT G String"
      0 98 "EXPERT D String"
      0 97 "EXPERT A String"
      0 96 "EXPERT E String"
      0 95 "-----------"
      0 82 "Loose Strumming"
      0 81 "Strum Direction"
      0 80 "Arpeggio Marker"
      0 79 "Slide Marker"
      0 78 "Force HOPO"
      0 77 "HARD e String"
      0 76 "HARD B String"
      0 75 "HARD G String"
      0 74 "HARD D String"
      0 73 "HARD A String"
      0 72 "HARD E String"
      0 71 "-----------"
      0 58 "Loose Strumming"
      0 56 "Arpeggio Marker"
      0 55 "Slide Marker"
      0 53 "MEDIUM e String"
      0 52 "MEDIUM B String"
      0 51 "MEDIUM G String"
      0 50 "MEDIUM D String"
      0 49 "MEDIUM A String"
      0 48 "MEDIUM E String"
      0 47 "-----------"
      0 32 "Arpeggio Marker"
      0 31 "Slide Marker"
      0 29 "EASY e String"
      0 28 "EASY B String"
      0 27 "EASY G String"
      0 26 "EASY D String"
      0 25 "EASY A String"
      0 24 "EASY E String"
      0 21 "-----------"
      0 18 "Flat/Sharp Swap"
      0 17 "Hide Chord Names"
      0 16 "Slash Chord"
      0 15 "D#"
      0 14 "D"
      0 13 "C#"
      0 12 "C"
      0 11 "B"
      0 10 "A#"
      0 9 "A"
      0 8 "G#"
      0 7 "G"
      0 6 "F#"
      0 5 "F"
      0 4 "E"
    >
    MAINSEND 1 0
    <FXCHAIN
      WNDRECT 0 43 655 467
      SHOW 0
      LASTSEL 1
      DOCKED 0
      BYPASS 0 0
      <JS "c3/progtr" ""
        0.000000 3.000000 0.000000 0.000000 0.000000 0.000000 0.000000 0.000000 0.000000 1.000000 - - - - - - - - - - - - - - - - - - - - - - - - - - - - - - - - - - - - - - - - - - - - - - - - - - - - - - 
      >
      FLOATPOS 0 0 0 0
      FXID {1804C2B8-69CE-4F49-A3D7-7DFB6CDAEC8E}
      WAK 0
      BYPASS 0 0
      <VST "VSTi: ReaSynth (Cockos)" "reasynth.dll" 0 ""
        eXNlcu9e7f4AAAAAAgAAAAEAAAAAAAAAAgAAAAAAAAA4AAAAAAAAAA==
        AAAQAO++rd4N8K3eppvEO+gJMjyHFlk/AAAAAAAAAADMm4A+4jAEPA==
        AAAAAAAAAD+01hM+j8L1PQAAAD8AABAAAAA=
      >
      FLOATPOS 0 0 0 0
      FXID {5B779C52-1978-4F76-A6D2-88A794A77E36}
      WAK 0
    >
    <ITEM
      POSITION 0.00000000000000
      SNAPOFFS 0.00000000000000
      LENGTH 36.31800000000000
      LOOP 0
      ALLTAKES 0
      SEL 0
      FADEIN 1 0.000000 0.000000 1 0
      FADEOUT 1 0.000000 0.000000 1 0
      MUTE 0
      IGUID {5D480517-A6CF-40DC-A107-18BDF6CE0777}
      IID 4
      NAME "PART REAL_GUITAR"
      VOLPAN 1.000000 0.000000 1.000000 -1.000000
      SOFFS 0.00000000000000 0.00000000000000
      PLAYRATE 1.00000000000000 1 0.00000000000000 -1
      CHANMODE 0
      GUID {2790CB8C-A96B-4B7A-ABFB-359BB3CC9944}
      <SOURCE MIDI
        HASDATA 1 480 QN
        POOLEDEVTS {209E717E-B47E-4903-B0D2-BFC56EAC0CBF}
        <X 0 0
          /wNQQVJUIFJFQUxfR1VJVEFS
        >
        <X 5760 0
          /wFbYmVnaW5fcGcgc29uZ190cmFpbmVyX3BnXzFd
        >
        E 0 90 11 64
        E 0 90 1d 6d
        E 0 90 35 6d
        E 0 90 4c 71
        E 0 90 4d 6d
        E 0 90 64 71
        E 0 90 65 6d
        E 0 90 6c 6d
        E 120 80 1d 00
        E 0 80 35 00
        E 0 80 4c 00
        E 0 80 4d 00
        E 0 80 64 00
        E 0 80 65 00
        E 0 80 6c 00
        E 0 90 64 71
        E 120 80 64 00
        E 0 90 64 71
        E 120 80 64 00
        E 0 90 64 71
        E 120 80 64 00
        E 0 90 4c 71
        E 0 90 4d 6d
        E 0 90 64 71
        E 0 90 65 6d
        E 120 80 4c 00
        E 0 80 4d 00
        E 0 80 64 00
        E 0 80 65 00
        E 120 90 4c 71
        E 0 90 64 71
        E 120 80 4c 00
        E 0 80 64 00
        E 0 90 64 71
        E 120 80 64 00
        E 0 90 4c 71
        E 0 90 64 71
        E 120 80 4c 00
        E 0 80 64 00
        E 0 90 64 71
        E 120 80 64 00
        E 0 90 35 6d
        E 0 90 4d 6d
        E 0 90 65 6d
        E 120 80 35 00
        E 0 80 4d 00
        E 0 80 65 00
        E 120 90 4b 6f
        E 0 90 63 6f
        E 120 80 4b 00
        E 0 80 63 00
        E 120 90 64 6e
        E 120 80 64 00
        E 120 90 1c 6e
        E 0 90 34 6e
        E 0 90 4b 6f
        E 0 90 4c 6e
        E 0 90 63 6f
        E 0 90 64 6e
        E 0 90 6c 6e
        E 0 90 74 64
        E 120 80 1c 00
        E 0 80 34 00
        E 0 80 4b 00
        E 0 80 4c 00
        E 0 80 63 00
        E 0 80 64 00
        E 0 80 6c 00
        E 0 90 63 6f
        E 0 90 64 6e
        E 120 80 63 00
        E 0 80 64 00
        E 0 90 63 6f
        E 0 90 64 6e
        E 120 80 63 00
        E 0 80 64 00
        E 120 90 4b 6d
        E 0 90 4c 6d
        E 0 90 63 6d
        E 0 90 64 6d
        E 0 90 6c 6d
        E 120 80 4b 00
        E 0 80 4c 00
        E 0 80 63 00
        E 0 80 64 00
        E 0 80 6c 00
        E 0 90 63 6d
        E 0 90 64 6d
        E 120 80 63 00
        E 0 80 64 00
        E 0 90 63 6d
        E 0 90 64 6d
        E 120 80 63 00
        E 0 80 64 00
        E 120 90 1c 6b
        E 0 90 34 6b
        E 0 90 4b 6b
        E 0 90 4c 6b
        E 0 90 63 6b
        E 0 90 64 6b
        E 0 90 6c 6b
        E 0 9b 4f 64
        E 0 9b 67 64
        E 120 80 1c 00
        E 0 80 34 00
        E 0 80 6c 00
        E 300 80 4b 00
        E 0 80 4c 00
        E 0 80 63 00
        E 0 80 64 00
        E 0 8b 4f 00
        E 0 8b 67 00
        E 60 90 4b 64
        E 0 90 4c 64
        E 0 90 4d 64
        E 0 90 63 64
        E 0 90 64 64
        E 0 90 65 64
        E 60 80 4b 00
        E 0 80 4c 00
        E 0 80 4d 00
        <X 420 0
          /wFbYmVnaW5fcGcgc29uZ190cmFpbmVyX3BnXzJd
        >
        <X 0 0
          /wFbZW5kX3BnIHNvbmdfdHJhaW5lcl9wZ18xXQ==
        >
        E 0 80 74 00
        E 0 80 63 00
        E 0 80 64 00
        E 0 80 65 00
        E 240 90 1b 6f
        E 0 90 33 6f
        E 0 90 4a 6e
        E 0 90 4b 6f
        E 0 90 62 6e
        E 0 90 63 6f
        E 0 90 6c 6e
        E 120 80 1b 00
        E 0 80 33 00
        E 0 80 4a 00
        E 0 80 4b 00
        E 0 80 62 00
        E 0 80 63 00
        E 0 80 6c 00
        E 360 90 4a 6e
        E 0 90 4b 6f
        E 0 90 62 6e
        E 0 90 63 6f
        E 120 80 4a 00
        E 0 80 4b 00
        E 0 80 62 00
        E 0 80 63 00
        E 360 90 33 6f
        E 0 90 4a 6e
        E 0 90 4b 6f
        E 0 90 62 6e
        E 0 90 63 6f
        E 120 80 33 00
        E 0 80 4a 00
        E 0 80 4b 00
        E 0 80 62 00
        E 0 80 63 00
        E 360 90 62 6e
        E 0 90 63 6f
        E 120 80 62 00
        E 0 80 63 00
        E 120 90 74 64
        <X 240 0
          /wFbcGdfbm9ybSBzb25nX3RyYWluZXJfcGdfMl0=
        >
        E 0 90 1b 6f
        E 0 90 33 6f
        E 0 90 4a 6e
        E 0 90 4b 6f
        E 0 90 62 6e
        E 0 90 63 6f
        E 120 80 1b 00
        E 0 80 33 00
        E 0 80 4a 00
        E 0 80 4b 00
        E 0 80 62 00
        E 0 80 63 00
        E 360 90 4a 6e
        E 0 90 4b 6f
        E 0 90 62 6e
        E 0 90 63 6f
        E 120 80 4a 00
        E 0 80 4b 00
        E 0 80 62 00
        E 0 80 63 00
        E 360 90 33 6f
        E 0 90 4a 6e
        E 0 90 4b 6f
        E 0 90 62 6e
        E 0 90 63 6f
        E 120 80 33 00
        E 0 80 4a 00
        E 0 80 4b 00
        E 0 80 62 00
        E 0 80 63 00
        E 360 90 62 6e
        E 0 90 63 6f
        E 0 90 67 64
        E 120 80 62 00
        E 0 80 63 00
        E 0 80 67 00
        E 120 80 74 00
        E 0 90 1b 72
        E 0 90 33 72
        E 0 90 4a 71
        E 0 90 4b 72
        E 0 90 4e 64
        E 0 90 62 71
        E 0 90 63 72
        E 0 90 66 64
        E 0 90 6c 71
        E 120 80 1b 00
        E 0 80 33 00
        E 0 80 4a 00
        E 0 80 4b 00
        E 0 80 4e 00
        E 0 80 62 00
        E 0 80 63 00
        E 0 80 66 00
        E 0 80 6c 00
        E 120 90 62 71
        E 0 90 63 72
        E 120 80 62 00
        E 0 80 63 00
        E 120 90 4a 71
        E 0 90 4b 72
        E 0 90 4f 64
        E 0 90 62 71
        E 0 90 63 72
        E 0 90 67 64
        E 360 80 4a 00
        E 0 80 4b 00
        E 0 80 4f 00
        E 0 80 62 00
        E 0 80 63 00
        E 0 80 67 00
        E 120 90 1b 75
        E 0 90 33 75
        E 0 90 4a 74
        E 0 90 4b 75
        E 0 90 4e 64
        E 0 90 62 74
        E 0 90 63 75
        E 0 90 66 64
        E 0 90 6c 74
        E 120 80 1b 00
        E 0 80 33 00
        E 0 80 4a 00
        E 0 80 4b 00
        E 0 80 4e 00
        E 0 80 62 00
        E 0 80 63 00
        E 0 80 66 00
        E 0 80 6c 00
        E 120 90 62 74
        E 0 90 63 75
        E 120 80 62 00
        E 0 80 63 00
        E 120 90 4a 74
        E 0 90 4b 75
        E 0 90 4f 64
        E 0 90 62 74
        E 0 90 63 75
        E 0 90 67 64
        E 360 80 4a 00
        E 0 80 4b 00
        E 0 80 4f 00
        E 0 80 62 00
        E 0 80 63 00
        E 0 80 67 00
        E 120 90 1b 72
        E 0 90 33 72
        E 0 90 4a 71
        E 0 90 4b 72
        E 0 90 4e 64
        E 0 90 62 71
        E 0 90 63 72
        E 0 90 66 64
        E 0 90 6c 71
        E 120 80 1b 00
        E 0 80 33 00
        E 0 80 4a 00
        E 0 80 4b 00
        E 0 80 4e 00
        E 0 80 62 00
        E 0 80 63 00
        E 0 80 66 00
        E 0 80 6c 00
        E 120 90 62 71
        E 0 90 63 72
        E 120 80 62 00
        E 0 80 63 00
        E 120 90 4a 71
        E 0 90 4b 72
        E 0 90 4f 64
        E 0 90 62 71
        E 0 90 63 72
        E 0 90 67 64
        E 360 80 4a 00
        E 0 80 4b 00
        E 0 80 4f 00
        E 0 80 62 00
        E 0 80 63 00
        E 0 80 67 00
        E 120 90 1b 75
        E 0 90 33 75
        E 0 90 4a 74
        E 0 90 4b 75
        E 0 90 4e 64
        E 0 90 62 74
        E 0 90 63 75
        E 0 90 66 64
        E 0 90 6c 74
        E 120 80 1b 00
        E 0 80 33 00
        E 0 80 4a 00
        E 0 80 4b 00
        E 0 80 4e 00
        E 0 80 62 00
        E 0 80 63 00
        E 0 80 66 00
        E 0 80 6c 00
        E 120 90 62 74
        E 0 90 63 75
        E 120 80 62 00
        E 0 80 63 00
        E 120 90 4a 74
        E 0 90 4b 75
        E 0 90 4f 64
        E 0 90 62 74
        E 0 90 63 75
        E 0 90 67 64
        E 360 80 4a 00
        E 0 80 4b 00
        E 0 80 4f 00
        E 0 80 62 00
        E 0 80 63 00
        E 0 80 67 00
        <X 120 0
          /wFbZW5kX3BnIHNvbmdfdHJhaW5lcl9wZ18yXQ==
        >
        E 0 90 4a 6e
        E 0 90 4b 6f
        E 0 90 4e 64
        E 0 90 62 6e
        E 0 90 63 6f
        E 0 90 66 64
        E 0 90 6c 6e
        E 120 80 4a 00
        E 0 80 4b 00
        E 0 80 4e 00
        E 0 80 62 00
        E 0 80 63 00
        E 0 80 66 00
        E 0 80 6c 00
        E 120 90 1b 6f
        E 0 90 33 6f
        E 0 90 4a 6e
        E 0 90 4b 6f
        E 0 90 62 6e
        E 0 90 63 6f
        E 120 80 1b 00
        E 0 80 33 00
        E 0 80 4a 00
        E 0 80 4b 00
        E 0 80 62 00
        E 0 80 63 00
        E 360 90 4a 6e
        E 0 90 4b 6f
        E 0 90 62 6e
        E 0 90 63 6f
        E 120 80 4a 00
        E 0 80 4b 00
        E 0 80 62 00
        E 0 80 63 00
        E 360 90 33 6f
        E 0 90 4a 6e
        E 0 90 4b 6f
        E 0 90 62 6e
        E 0 90 63 6f
        E 120 80 33 00
        E 0 80 4a 00
        E 0 80 4b 00
        E 0 80 62 00
        E 0 80 63 00
        E 360 90 62 6e
        E 0 90 63 6f
        E 120 80 62 00
        E 0 80 63 00
        E 360 90 1b 6f
        E 0 90 33 6f
        E 0 90 4a 6e
        E 0 90 4b 6f
        E 0 90 62 6e
        E 0 90 63 6f
        E 120 80 1b 00
        E 0 80 33 00
        E 0 80 4a 00
        E 0 80 4b 00
        E 0 80 62 00
        E 0 80 63 00
        E 360 90 4a 6e
        E 0 90 4b 6f
        E 0 90 62 6e
        E 0 90 63 6f
        E 120 80 4a 00
        E 0 80 4b 00
        E 0 80 62 00
        E 0 80 63 00
        E 360 90 33 6f
        E 0 90 4a 6e
        E 0 90 4b 6f
        E 0 90 62 6e
        E 0 90 63 6f
        E 120 80 33 00
        E 0 80 4a 00
        E 0 80 4b 00
        E 0 80 62 00
        E 0 80 63 00
        E 360 90 62 6e
        E 0 90 63 6f
        E 0 90 67 64
        E 120 80 62 00
        E 0 80 63 00
        E 0 80 67 00
        E 120 90 1b 72
        E 0 90 33 72
        E 0 90 4a 71
        E 0 90 4b 72
        E 0 90 4e 64
        E 0 90 62 71
        E 0 90 63 72
        E 0 90 66 64
        E 0 90 6c 71
        E 120 80 1b 00
        E 0 80 33 00
        E 0 80 4a 00
        E 0 80 4b 00
        E 0 80 4e 00
        E 0 80 62 00
        E 0 80 63 00
        E 0 80 66 00
        E 0 80 6c 00
        E 120 90 62 71
        E 0 90 63 72
        E 120 80 62 00
        E 0 80 63 00
        E 120 90 4a 71
        E 0 90 4b 72
        E 0 90 4f 64
        E 0 90 62 71
        E 0 90 63 72
        E 0 90 67 64
        E 360 80 4a 00
        E 0 80 4b 00
        E 0 80 4f 00
        E 0 80 62 00
        E 0 80 63 00
        E 0 80 67 00
        E 120 90 1b 75
        E 0 90 33 75
        E 0 90 4a 74
        E 0 90 4b 75
        E 0 90 4e 64
        E 0 90 62 74
        E 0 90 63 75
        E 0 90 66 64
        E 0 90 6c 74
        E 0 90 74 64
        E 120 80 1b 00
        E 0 80 33 00
        E 0 80 4a 00
        E 0 80 4b 00
        E 0 80 4e 00
        E 0 80 62 00
        E 0 80 63 00
        E 0 80 66 00
        E 0 80 6c 00
        E 120 90 62 74
        E 0 90 63 75
        E 120 80 62 00
        E 0 80 63 00
        E 120 90 4a 74
        E 0 90 4b 75
        E 0 90 4f 64
        E 0 90 62 74
        E 0 90 63 75
        E 0 90 67 64
        E 360 80 4a 00
        E 0 80 4b 00
        E 0 80 4f 00
        E 0 80 62 00
        E 0 80 63 00
        E 0 80 67 00
        E 120 80 74 00
        E 0 90 1b 72
        E 0 90 33 72
        E 0 90 4a 71
        E 0 90 4b 72
        E 0 90 4e 64
        E 0 90 62 71
        E 0 90 63 72
        E 0 90 66 64
        E 0 90 6c 71
        E 120 80 1b 00
        E 0 80 33 00
        E 0 80 4a 00
        E 0 80 4b 00
        E 0 80 4e 00
        E 0 80 62 00
        E 0 80 63 00
        E 0 80 66 00
        E 0 80 6c 00
        E 120 90 62 71
        E 0 90 63 72
        E 120 80 62 00
        E 0 80 63 00
        E 120 90 4a 71
        E 0 90 4b 72
        E 0 90 4f 64
        E 0 90 62 71
        E 0 90 63 72
        E 0 90 67 64
        E 360 80 4a 00
        E 0 80 4b 00
        E 0 80 4f 00
        E 0 80 62 00
        E 0 80 63 00
        E 0 80 67 00
        E 120 90 33 75
        E 0 90 4a 74
        E 0 90 4b 75
        E 0 90 4e 64
        E 0 90 62 74
        E 0 90 63 75
        E 0 90 66 64
        E 0 90 6c 74
        E 120 80 33 00
        E 0 80 4a 00
        E 0 80 4b 00
        E 0 80 4e 00
        E 0 80 62 00
        E 0 80 63 00
        E 0 80 66 00
        E 0 80 6c 00
        E 120 90 62 74
        E 0 90 63 75
        E 120 80 62 00
        E 0 80 63 00
        E 120 90 4a 74
        E 0 90 4b 75
        E 0 90 62 74
        E 0 90 63 75
        E 360 80 4a 00
        E 0 80 4b 00
        E 0 80 62 00
        E 0 80 63 00
        <X 120 0
          /wFbYmVnaW5fcGcgc29uZ190cmFpbmVyX3BnXzNd
        >
        E 0 90 1d 6d
        E 0 90 35 6d
        E 0 90 4c 71
        E 0 90 4d 6d
        E 0 90 64 71
        E 0 90 65 6d
        E 0 90 6c 6d
        E 120 80 1d 00
        E 0 80 35 00
        E 0 80 4c 00
        E 0 80 4d 00
        E 0 80 64 00
        E 0 80 65 00
        E 0 80 6c 00
        E 0 90 64 71
        E 120 80 64 00
        E 0 90 64 71
        E 120 80 64 00
        E 0 90 64 71
        E 120 80 64 00
        E 0 90 4c 71
        E 0 90 4d 6d
        E 0 90 64 71
        E 0 90 65 6d
        E 120 80 4c 00
        E 0 80 4d 00
        E 0 80 64 00
        E 0 80 65 00
        E 120 90 4c 71
        E 0 90 64 71
        E 120 80 4c 00
        E 0 80 64 00
        E 0 90 64 71
        E 120 80 64 00
        E 0 90 4c 71
        E 0 90 64 71
        E 120 80 4c 00
        E 0 80 64 00
        E 0 90 64 71
        E 120 80 64 00
        E 0 90 35 6d
        E 0 90 4c 71
        E 0 90 4d 6d
        E 0 90 64 71
        E 0 90 65 6d
        E 120 80 35 00
        E 0 80 4c 00
        E 0 80 4d 00
        E 0 80 64 00
        E 0 80 65 00
        E 120 90 4b 6f
        E 0 90 63 6f
        E 120 80 4b 00
        E 0 80 63 00
        E 120 90 64 6e
        E 120 80 64 00
        <X 120 0
          /wFbcGdfbm9ybSBzb25nX3RyYWluZXJfcGdfM10=
        >
        E 0 90 1d 6d
        E 0 90 35 6d
        E 0 90 4c 71
        E 0 90 4d 6d
        E 0 90 64 71
        E 0 90 65 6d
        E 0 90 74 64
        E 120 80 1d 00
        E 0 80 35 00
        E 0 80 4c 00
        E 0 80 4d 00
        E 0 80 64 00
        E 0 80 65 00
        E 0 90 64 71
        E 120 80 64 00
        E 0 90 64 71
        E 120 80 64 00
        E 0 90 64 71
        E 120 80 64 00
        E 0 90 4c 71
        E 0 90 4d 6d
        E 0 90 64 71
        E 0 90 65 6d
        E 120 80 4c 00
        E 0 80 4d 00
        E 0 80 64 00
        E 0 80 65 00
        E 120 90 4c 71
        E 0 90 64 71
        E 120 80 4c 00
        E 0 80 64 00
        E 0 90 64 71
        E 120 80 64 00
        E 0 90 4c 71
        E 0 90 64 71
        E 120 80 4c 00
        E 0 80 64 00
        E 0 90 64 71
        E 120 80 64 00
        E 0 90 1d 70
        E 0 90 35 70
        E 0 90 4d 70
        E 0 90 65 70
        E 0 90 6c 70
        E 120 80 1d 00
        E 0 80 35 00
        E 0 80 4d 00
        E 0 80 65 00
        E 0 80 6c 00
        E 0 90 65 70
        E 120 80 65 00
        E 0 90 4d 71
        E 0 90 65 71
        E 120 80 4d 00
        E 0 80 65 00
        E 0 90 65 71
        E 120 80 65 00
        E 0 90 65 70
        E 120 80 65 00
        E 0 90 65 70
        E 120 80 74 00
        E 0 80 65 00
        E 0 90 1d 6f
        E 0 90 35 6f
        E 0 90 4c 6e
        E 0 90 4d 6f
        E 0 90 64 6e
        E 0 90 65 6f
        E 0 90 6c 6e
        E 120 80 1d 00
        E 0 80 35 00
        E 0 80 4c 00
        E 0 80 4d 00
        E 0 80 64 00
        E 0 80 65 00
        E 0 80 6c 00
        E 120 90 64 6e
        E 0 90 65 6f
        E 120 80 64 00
        E 0 80 65 00
        E 120 90 4c 6e
        E 0 90 4d 6f
        E 0 90 4f 64
        E 0 90 64 6e
        E 0 90 65 6f
        E 0 90 67 64
        E 360 80 4c 00
        E 0 80 4d 00
        E 0 80 4f 00
        E 0 80 64 00
        E 0 80 65 00
        E 0 80 67 00
        E 120 90 1d 72
        E 0 90 35 72
        E 0 90 4c 71
        E 0 90 4d 72
        E 0 90 4e 64
        E 0 90 64 71
        E 0 90 65 72
        E 0 90 66 64
        E 0 90 6c 71
        E 120 80 1d 00
        E 0 80 35 00
        E 0 80 4c 00
        E 0 80 4d 00
        E 0 80 4e 00
        E 0 80 64 00
        E 0 80 65 00
        E 0 80 66 00
        E 0 80 6c 00
        E 120 90 64 71
        E 0 90 65 72
        E 120 80 64 00
        E 0 80 65 00
        E 120 90 4c 71
        E 0 90 4d 72
        E 0 90 4f 64
        E 0 90 64 71
        E 0 90 65 72
        E 0 90 67 64
        E 360 80 4c 00
        E 0 80 4d 00
        E 0 80 4f 00
        E 0 80 64 00
        E 0 80 65 00
        E 0 80 67 00
        E 120 90 1d 6f
        E 0 90 35 6f
        E 0 90 4c 6e
        E 0 90 4d 6f
        E 0 90 4e 64
        E 0 90 64 6e
        E 0 90 65 6f
        E 0 90 66 64
        E 0 90 6c 6e
        E 120 80 1d 00
        E 0 80 35 00
        E 0 80 4c 00
        E 0 80 4d 00
        E 0 80 4e 00
        E 0 80 64 00
        E 0 80 65 00
        E 0 80 66 00
        E 0 80 6c 00
        E 120 90 64 6e
        E 0 90 65 6f
        E 120 80 64 00
        E 0 80 65 00
        E 120 90 4c 6e
        E 0 90 4d 6f
        E 0 90 4f 64
        E 0 90 64 6e
        E 0 90 65 6f
        E 0 90 67 64
        E 360 80 4c 00
        E 0 80 4d 00
        E 0 80 4f 00
        E 0 80 64 00
        E 0 80 65 00
        E 0 80 67 00
        E 120 90 35 72
        E 0 90 4c 71
        E 0 90 4d 72
        E 0 90 4e 64
        E 0 90 64 71
        E 0 90 65 72
        E 0 90 66 64
        E 0 90 6c 71
        E 120 80 35 00
        E 0 80 4c 00
        E 0 80 4d 00
        E 0 80 4e 00
        E 0 80 64 00
        E 0 80 65 00
        E 0 80 66 00
        E 0 80 6c 00
        E 120 90 64 71
        E 0 90 65 72
        E 120 80 64 00
        E 0 80 65 00
        E 120 90 4c 71
        E 0 90 4d 72
        E 0 90 4f 64
        E 0 90 64 71
        E 0 90 65 72
        E 0 90 67 64
        E 360 80 4c 00
        E 0 80 4d 00
        E 0 80 4f 00
        E 60 80 64 00
        E 0 80 65 00
        E 0 80 67 00
        <X 60 0
          /wFbZW5kX3BnIHNvbmdfdHJhaW5lcl9wZ18zXQ==
        >
        E 0 90 1d 6d
        E 0 90 35 6d
        E 0 90 4c 71
        E 0 90 4d 6d
        E 0 90 64 71
        E 0 90 65 6d
        E 0 90 6c 6d
        E 120 80 1d 00
        E 0 80 35 00
        E 0 80 4c 00
        E 0 80 4d 00
        E 0 80 64 00
        E 0 80 65 00
        E 0 80 6c 00
        E 0 90 64 71
        E 120 80 64 00
        E 0 90 64 71
        E 120 80 64 00
        E 0 90 64 71
        E 120 80 64 00
        E 0 90 4c 71
        E 0 90 4d 6d
        E 0 90 64 71
        E 0 90 65 6d
        E 120 80 4c 00
        E 0 80 4d 00
        E 0 80 64 00
        E 0 80 65 00
        E 120 90 4c 71
        E 0 90 64 71
        E 120 80 4c 00
        E 0 80 64 00
        E 0 90 64 71
        E 120 80 64 00
        E 0 90 4c 71
        E 0 90 64 71
        E 120 80 4c 00
        E 0 80 64 00
        E 0 90 64 71
        E 120 80 64 00
        E 0 90 35 6d
        E 0 90 4c 71
        E 0 90 4d 6d
        E 0 90 64 71
        E 0 90 65 6d
        E 120 80 35 00
        E 0 80 4c 00
        E 0 80 4d 00
        E 0 80 64 00
        E 0 80 65 00
        E 120 90 4b 6f
        E 0 90 63 6f
        E 120 80 4b 00
        E 0 80 63 00
        E 120 90 64 6e
        E 120 80 64 00
        E 120 90 1d 6d
        E 0 90 35 6d
        E 0 90 4c 71
        E 0 90 4d 6d
        E 0 90 64 71
        E 0 90 65 6d
        E 120 80 1d 00
        E 0 80 35 00
        E 0 80 4c 00
        E 0 80 4d 00
        E 0 80 64 00
        E 0 80 65 00
        E 0 90 64 71
        E 120 80 64 00
        E 0 90 64 71
        E 0 90 65 6d
        E 120 80 64 00
        E 0 80 65 00
        E 120 90 4c 71
        E 0 90 4d 6d
        E 0 90 64 71
        E 0 90 65 6d
        E 120 80 4c 00
        E 0 80 4d 00
        E 0 80 64 00
        E 0 80 65 00
        E 0 90 64 71
        E 0 90 65 6d
        E 120 80 64 00
        E 0 80 65 00
        E 0 90 64 71
        E 0 90 65 6d
        E 120 80 64 00
        E 0 80 65 00
        E 120 90 1d 6c
        E 0 90 35 6c
        E 0 90 4c 70
        E 0 90 4d 6c
        E 0 90 64 70
        E 0 90 65 6c
        E 0 90 6c 6c
        E 120 80 11 00
        E 0 80 1d 00
        E 0 80 35 00
        E 0 80 4c 00
        E 0 80 4d 00
        E 0 80 64 00
        E 0 80 65 00
        E 0 80 6c 00
        E 6599 b0 7b 00
        GUID {A36C7FBF-99EC-4F27-B745-56BBC53299AA}
        IGNTEMPO 0 120.00000000 4 4
        SRCCOLOR 22
        VELLANE 132 128 60
        COLORMAP "C:\Program Files\REAPER (x64)\Data\color_maps\rockband_guitarbass.png"
        CFGEDITVIEW -2795.288962 30.920627 7 12 0 0 0
        CFGEDIT 1 1 0 1 1 0 1 1 1 1 1 0.25000000 -8 -8 1544 872 0 2 1 1 0.00000000 0 1 0 0 0.500000 0 0 1.000000 64
        KEYSNAP 0 6 "102030050700" 0 "Pentatonic"
        EVTFILTER 0 -1 -1 -1 -1 0 1 0 0 -1.00000000 -1.00000000
      >
    >
  >
  <TRACK '{BC8A6F36-3231-4965-8B7B-3CC4F0FD4DD6}'
    NAME "EVENTS"
    PEAKCOL 16576
    BEAT -1
    AUTOMODE 0
    VOLPAN 1.00000000000000 0.00000000000000 -1.00000000000000 -1.00000000000000 1.00000000000000
    MUTESOLO 0 0 0
    IPHASE 0
    ISBUS 0 0
    BUSCOMP 0 0
    SHOWINMIX 1 0.666700 0.500000 1 0.500000 -1 -1 -1
    FREEMODE 0
    SEL 0
    REC 0 0 0 0 0 0 0
    VU 2
    TRACKHEIGHT 0 0
    INQ 0 0 0 0.5000000000 100 0 0 100
    NCHAN 2
    FX 1
    TRACKID {BC8A6F36-3231-4965-8B7B-3CC4F0FD4DD6}
    PERF 0
    MIDIOUT -1
    <MIDINOTENAMES
      0 26 "Hi-Hat"
      0 25 "Snare"
      0 24 "Kick"
    >
    MAINSEND 1 0
    <FXCHAIN
      SHOW 0
      LASTSEL 0
      DOCKED 0
    >
    <ITEM
      POSITION 0.00000000000000
      SNAPOFFS 0.00000000000000
      LENGTH 36.31800000000000
      LOOP 0
      ALLTAKES 0
      SEL 0
      FADEIN 1 0.000000 0.000000 1 0
      FADEOUT 1 0.000000 0.000000 1 0
      MUTE 0
      IGUID {CC04B702-BDB5-4F25-9B26-0380977C46A0}
      IID 10
      NAME "EVENTS"
      VOLPAN 1.000000 0.000000 1.000000 -1.000000
      SOFFS 0.00000000000000 0.00000000000000
      PLAYRATE 1.00000000000000 1 0.00000000000000 -1
      CHANMODE 0
      GUID {603BE602-B223-4F67-B062-1124A36E84B9}
      <SOURCE MIDI
        HASDATA 1 480 QN
        POOLEDEVTS {04303B68-34B9-4822-A322-1D86700E1AE2}
        <X 0 0
          /wNFVkVOVFM=
        >
        <X 5760 0
          /wFbbXVzaWNfc3RhcnRd
        >
        <X 0 0
          /wFbcHJjX2ludHJvXQ==
        >
        <X 3840 0
          /wFbcHJjX3ZlcnNlXzFd
        >
        <X 7680 0
          /wFbcHJjX3ZlcnNlXzJd
        >
        <X 7680 0
          /wFbcHJjX3ZlcnNlXzNd
        >
        <X 7680 0
          /wFbcHJjX291dHJvXQ==
        >
        <X 3120 0
          /wFbbXVzaWNfZW5kXQ==
        >
        <X 2635 0
          /wFbZW5kXQ==
        >
        E 3844 b0 7b 00
        GUID {D5F9831D-772D-4ABE-98F2-278A880D74AF}
        IGNTEMPO 0 120.00000000 4 4
        SRCCOLOR 28
        VELLANE 132 128 60
        COLORMAP "C:\Program Files\REAPER (x64)\Data\color_maps\rockband_guitarbass.png"
        CFGEDITVIEW -2795.288962 30.920627 0 48 0 0 0
        CFGEDIT 1 1 0 1 1 0 1 1 1 1 1 0.25000000 -8 -8 1544 872 0 2 1 1 0.00000000 0 1 0 0 0.500000 0 0 1.000000 64
        KEYSNAP 0 6 "102030050700" 0 "Pentatonic"
        EVTFILTER 0 -1 -1 -1 -1 0 1 0 0 -1.00000000 -1.00000000
      >
    >
  >
  <TRACK '{73DAB351-8874-4561-8CE2-1B7A84723C2C}'
    NAME "VENUE"
    PEAKCOL 16576
    BEAT -1
    AUTOMODE 0
    VOLPAN 1.00000000000000 0.00000000000000 -1.00000000000000 -1.00000000000000 1.00000000000000
    MUTESOLO 0 0 0
    IPHASE 0
    ISBUS 1 1
    BUSCOMP 1 0
    SHOWINMIX 1 0.666700 0.500000 1 0.500000 -1 -1 -1
    FREEMODE 0
    SEL 0
    REC 0 0 0 0 0 0 0
    VU 2
    TRACKHEIGHT 0 0
    INQ 0 0 0 0.5000000000 100 0 0 100
    NCHAN 2
    FX 1
    TRACKID {73DAB351-8874-4561-8CE2-1B7A84723C2C}
    PERF 0
    MIDIOUT -1
    <MIDINOTENAMES
      0 87 "Guitarist Sing Along"
      0 86 "Drummer Sing Along"
      0 85 "Bassist Sing Along"
      0 84 "----"
      0 41 "Spotlight on Keys"
      0 40 "Spotlight on Vocals"
      0 39 "Spotlight on Guitar"
      0 38 "Spotlight on Drums"
      0 37 "Spotlight on Bass"
    >
    MAINSEND 1 0
    <FXCHAIN
      SHOW 0
      LASTSEL 0
      DOCKED 0
    >
    <ITEM
      POSITION 0.00000000000000
      SNAPOFFS 0.00000000000000
      LENGTH 36.31800000000000
      LOOP 0
      ALLTAKES 0
      SEL 0
      FADEIN 1 0.000000 0.000000 1 0
      FADEOUT 1 0.000000 0.000000 1 0
      MUTE 0
      IGUID {12E595A0-2490-43FB-B411-D10BA7E31D02}
      IID 11
      NAME "VENUE"
      VOLPAN 1.000000 0.000000 1.000000 -1.000000
      SOFFS 0.00000000000000 0.00000000000000
      PLAYRATE 1.00000000000000 1 0.00000000000000 -1
      CHANMODE 0
      GUID {A1E69479-74CB-4422-847B-E8D765B7DE2C}
      <SOURCE MIDI
        HASDATA 1 480 QN
        POOLEDEVTS {14E1F3C1-6790-44C6-B4E6-8A4B0CCED6F1}
        <X 0 0
          /wNWRU5VRQ==
        >
        <X 0 0
          /wFbbGlnaHRpbmcgKGxvb3BfY29vbCld
        >
        <X 0 0
          /wFbY29vcF9hbGxfZmFyXQ==
        >
        <X 5760 0
          /wFbZmlyc3Rd
        >
        <X 0 0
          /wFbbGlnaHRpbmcgKG1hbnVhbF9jb29sKV0=
        >
        <X 0 0
          /wFbY29vcF9iX25lYXJd
        >
        <X 480 0
          /wFbbmV4dF0=
        >
        <X 480 0
          /wFbbmV4dF0=
        >
        <X 480 0
          /wFbbmV4dF0=
        >
        <X 480 0
          /wFbbmV4dF0=
        >
        <X 0 0
          /wFbY29vcF9nX2Nsb3NldXBfaGFuZF0=
        >
        <X 480 0
          /wFbbmV4dF0=
        >
        <X 480 0
          /wFbbGlnaHRpbmcgKGJsYWNrb3V0X2Zhc3QpXQ==
        >
        <X 120 0
          /wFbbGlnaHRpbmcgKGJsYWNrb3V0X2Zhc3QpXQ==
        >
        <X 120 0
          /wFbbGlnaHRpbmcgKHN0cm9iZV9zbG93KV0=
        >
        <X 480 0
          /wFbY29vcF92X25lYXJd
        >
        <X 240 0
          /wFbZmlyc3Rd
        >
        <X 0 0
          /wFbbGlnaHRpbmcgKG1hbnVhbF9jb29sKV0=
        >
        <X 480 0
          /wFbbmV4dF0=
        >
        <X 480 0
          /wFbbmV4dF0=
        >
        <X 480 0
          /wFbbmV4dF0=
        >
        <X 480 0
          /wFbbmV4dF0=
        >
        <X 480 0
          /wFbbmV4dF0=
        >
        <X 480 0
          /wFbbmV4dF0=
        >
        <X 480 0
          /wFbbmV4dF0=
        >
        E 240 90 55 60
        E 0 90 57 60
        <X 240 0
          /wFbbmV4dF0=
        >
        <X 0 0
          /wFbZGlyZWN0ZWRfZHVvX2diXQ==
        >
        <X 480 0
          /wFbbmV4dF0=
        >
        <X 480 0
          /wFbbmV4dF0=
        >
        <X 480 0
          /wFbbmV4dF0=
        >
        <X 480 0
          /wFbbmV4dF0=
        >
        <X 480 0
          /wFbbmV4dF0=
        >
        <X 480 0
          /wFbbmV4dF0=
        >
        <X 480 0
          /wFbbmV4dF0=
        >
        <X 240 0
          /wFbY29vcF92X2JlaGluZF0=
        >
        <X 240 0
          /wFbbmV4dF0=
        >
        <X 480 0
          /wFbbmV4dF0=
        >
        E 0 80 55 00
        E 0 80 57 00
        <X 480 0
          /wFbbmV4dF0=
        >
        <X 480 0
          /wFbbmV4dF0=
        >
        <X 480 0
          /wFbbmV4dF0=
        >
        <X 480 0
          /wFbbmV4dF0=
        >
        <X 480 0
          /wFbbmV4dF0=
        >
        <X 480 0
          /wFbbmV4dF0=
        >
        E 0 90 57 60
        <X 480 0
          /wFbbmV4dF0=
        >
        <X 0 0
          /wFbY29vcF9nX25lYXJd
        >
        <X 480 0
          /wFbbmV4dF0=
        >
        <X 480 0
          /wFbbmV4dF0=
        >
        <X 480 0
          /wFbbmV4dF0=
        >
        <X 480 0
          /wFbbmV4dF0=
        >
        <X 0 0
          /wFbY29vcF9nX2Nsb3NldXBfaGVhZF0=
        >
        <X 480 0
          /wFbbmV4dF0=
        >
        <X 480 0
          /wFbbmV4dF0=
        >
        <X 480 0
          /wFbbmV4dF0=
        >
        <X 480 0
          /wFbbmV4dF0=
        >
        <X 0 0
          /wFbY29vcF9kdl9uZWFyXQ==
        >
        <X 480 0
          /wFbbmV4dF0=
        >
        E 0 80 57 00
        <X 480 0
          /wFbbmV4dF0=
        >
        <X 480 0
          /wFbbmV4dF0=
        >
        <X 480 0
          /wFbbmV4dF0=
        >
        <X 480 0
          /wFbbmV4dF0=
        >
        <X 480 0
          /wFbbmV4dF0=
        >
        <X 480 0
          /wFbbmV4dF0=
        >
        E 0 90 55 60
        <X 480 0
          /wFbbmV4dF0=
        >
        <X 0 0
          /wFbY29vcF9iX2Nsb3NldXBfaGVhZF0=
        >
        <X 480 0
          /wFbbmV4dF0=
        >
        <X 480 0
          /wFbbmV4dF0=
        >
        <X 480 0
          /wFbbmV4dF0=
        >
        <X 480 0
          /wFbbmV4dF0=
        >
        <X 0 0
          /wFbY29vcF9iX25lYXJd
        >
        <X 480 0
          /wFbbmV4dF0=
        >
        <X 480 0
          /wFbbmV4dF0=
        >
        <X 0 0
          /wFbY29vcF9kX25lYXJd
        >
        <X 480 0
          /wFbbmV4dF0=
        >
        <X 240 0
          /wFbY29vcF92X25lYXJd
        >
        <X 240 0
          /wFbbmV4dF0=
        >
        <X 480 0
          /wFbbmV4dF0=
        >
        E 0 80 55 00
        <X 480 0
          /wFbbmV4dF0=
        >
        <X 480 0
          /wFbbmV4dF0=
        >
        <X 480 0
          /wFbbmV4dF0=
        >
        <X 0 0
          /wFbY29vcF9kX25lYXJd
        >
        <X 480 0
          /wFbbmV4dF0=
        >
        <X 480 0
          /wFbbmV4dF0=
        >
        <X 240 0
          /wFbbmV4dF0=
        >
        <X 0 0
          /wFbY29vcF9hbGxfbmVhcl0=
        >
        <X 239 0
          /wFbbGlnaHRpbmcgKGJsYWNrb3V0X2Zhc3QpXQ==
        >
        E 6240 b0 7b 00
        GUID {CB7917D9-3059-44B9-B48C-040FE7F1E91F}
        IGNTEMPO 0 120.00000000 4 4
        SRCCOLOR 29
        VELLANE 132 128 60
        COLORMAP "C:\Program Files\REAPER (x64)\Data\color_maps\rockband_guitarbass.png"
        CFGEDITVIEW -2795.288962 30.920627 0 48 0 0 0
        CFGEDIT 1 1 0 1 1 0 1 1 1 1 1 0.25000000 -8 -8 1544 872 0 2 1 1 0.00000000 0 1 0 0 0.500000 0 0 1.000000 64
        KEYSNAP 0 6 "102030050700" 0 "Pentatonic"
        EVTFILTER 0 -1 -1 -1 -1 0 1 0 0 -1.00000000 -1.00000000
      >
    >
  >
  <TRACK '{4214E3F4-24E7-4AA9-A7CA-E98843171053}'
    NAME "CAMERA"
    PEAKCOL 16576
    BEAT -1
    AUTOMODE 0
    VOLPAN 1.00000000000000 0.00000000000000 -1.00000000000000 -1.00000000000000 1.00000000000000
    MUTESOLO 1 0 0
    IPHASE 0
    ISBUS 0 0
    BUSCOMP 0 0
    SHOWINMIX 1 0.666700 0.500000 1 0.500000 -1 -1 -1
    FREEMODE 0
    SEL 0
    REC 0 0 0 0 0 0 0
    VU 2
    TRACKHEIGHT 0 1
    INQ 0 0 0 0.5000000000 100 0 0 100
    NCHAN 2
    FX 1
    TRACKID {4214E3F4-24E7-4AA9-A7CA-E98843171053}
    PERF 0
    MIDIOUT -1
    MAINSEND 1 0
    <ITEM
      POSITION 0.00000000000000
      SNAPOFFS 0.00000000000000
      LENGTH 36.31880900000000
      LOOP 0
      ALLTAKES 0
      SEL 0
      FADEIN 1 0.000000 0.000000 1 0
      FADEOUT 1 0.000000 0.000000 1 0
      MUTE 0
      IGUID {20CBB0E5-F507-4BC8-A1C8-3183B5F09198}
      IID 14
      NAME "CAMERA"
      VOLPAN 1.000000 0.000000 1.000000 -1.000000
      SOFFS 0.00000000000000 0.00000000000000
      PLAYRATE 1.00000000000000 1 0.00000000000000 -1
      CHANMODE 0
      GUID {E1437422-FA8A-4BA8-903B-950F7440FA0A}
      <SOURCE MIDI
        HASDATA 1 480 QN
        POOLEDEVTS {41F6BE83-FF95-484D-BD3E-18150FAA5A24}
        E 0 90 63 40
        E 60 80 63 00
        E 5700 90 58 40
        E 60 80 58 00
        E 1860 90 4d 40
        E 60 80 4d 00
        E 1620 90 5a 40
        E 60 80 5a 00
        E 4020 90 0d 40
        E 60 80 0d 00
        E 3540 90 5b 40
        E 60 80 5b 00
        E 4020 90 56 40
        E 60 80 56 00
        E 1860 90 4c 40
        E 60 80 4c 00
        E 1860 90 48 40
        E 60 80 48 00
        E 3780 90 4e 40
        E 60 80 4e 00
        E 1860 90 58 40
        E 60 80 58 00
        E 900 90 5c 40
        E 60 80 5c 00
        E 660 90 5a 40
        E 60 80 5a 00
        E 2100 90 5c 40
        E 60 80 5c 00
        E 1140 90 62 40
        E 60 80 62 00
        GUID {FBE42804-8443-4AC1-953B-43A35483B8C1}
        IGNTEMPO 0 120.00000000 4 4
        SRCCOLOR 31
        VELLANE 132 128 60
        COLORMAP "C:\Program Files\REAPER (x64)\Data\color_maps\rockband_guitarbass.png"
      >
    >
  >
  <TRACK '{72459A0B-8896-48C0-A317-77534DA09D88}'
    NAME "LIGHTING"
    PEAKCOL 16576
    BEAT -1
    AUTOMODE 0
    VOLPAN 1.00000000000000 0.00000000000000 -1.00000000000000 -1.00000000000000 1.00000000000000
    MUTESOLO 1 0 0
    IPHASE 0
    ISBUS 2 -1
    BUSCOMP 0 0
    SHOWINMIX 1 0.666700 0.500000 1 0.500000 -1 -1 -1
    FREEMODE 0
    SEL 0
    REC 0 0 0 0 0 0 0
    VU 2
    TRACKHEIGHT 0 1
    INQ 0 0 0 0.5000000000 100 0 0 100
    NCHAN 2
    FX 1
    TRACKID {72459A0B-8896-48C0-A317-77534DA09D88}
    PERF 0
    MIDIOUT -1
    MAINSEND 1 0
    <ITEM
      POSITION 0.00000000000000
      SNAPOFFS 0.00000000000000
      LENGTH 36.31880900000000
      LOOP 0
      ALLTAKES 0
      SEL 0
      FADEIN 1 0.000000 0.000000 1 0
      FADEOUT 1 0.000000 0.000000 1 0
      MUTE 0
      IGUID {CF80C0B3-DFBD-45B3-B446-B8206EA18720}
      IID 14
      NAME "LIGHTING"
      VOLPAN 1.000000 0.000000 1.000000 -1.000000
      SOFFS 0.00000000000000 0.00000000000000
      PLAYRATE 1.00000000000000 1 0.00000000000000 -1
      CHANMODE 0
      GUID {75E2494C-798A-4143-94AA-184395C97A71}
      <SOURCE MIDI
        HASDATA 1 480 QN
        POOLEDEVTS {B11D468C-4FED-40C4-A4E9-16D3B9090046}
        E 0 90 1c 40
        E 5760 80 1c 00
        E 0 90 25 40
        E 0 90 20 40
        E 60 80 20 00
        E 420 90 1e 40
        E 60 80 1e 00
        E 420 90 1e 40
        E 60 80 1e 00
        E 420 90 1e 40
        E 60 80 1e 00
        E 420 90 1e 40
        E 60 80 1e 00
        E 420 90 1e 40
        E 60 80 1e 00
        E 420 80 25 00
        E 0 90 11 40
        E 120 80 11 00
        E 120 90 14 40
        E 720 90 20 40
        E 0 80 14 00
        E 0 90 25 40
        E 60 80 20 00
        E 420 90 1e 40
        E 60 80 1e 00
        E 420 90 1e 40
        E 60 80 1e 00
        E 420 90 1e 40
        E 60 80 1e 00
        E 420 90 1e 40
        E 60 80 1e 00
        E 420 90 1e 40
        E 60 80 1e 00
        E 420 90 1e 40
        E 60 80 1e 00
        E 420 90 1e 40
        E 60 80 1e 00
        E 420 90 1e 40
        E 60 80 1e 00
        E 420 90 1e 40
        E 60 80 1e 00
        E 420 90 1e 40
        E 60 80 1e 00
        E 420 90 1e 40
        E 60 80 1e 00
        E 420 90 1e 40
        E 60 80 1e 00
        E 420 90 1e 40
        E 60 80 1e 00
        E 420 90 1e 40
        E 60 80 1e 00
        E 420 90 1e 40
        E 60 80 1e 00
        E 420 90 1e 40
        E 60 80 1e 00
        E 420 90 1e 40
        E 60 80 1e 00
        E 420 90 1e 40
        E 60 80 1e 00
        E 420 90 1e 40
        E 60 80 1e 00
        E 420 90 1e 40
        E 60 80 1e 00
        E 420 90 1e 40
        E 60 80 1e 00
        E 420 90 1e 40
        E 60 80 1e 00
        E 420 90 1e 40
        E 60 80 1e 00
        E 420 90 1e 40
        E 60 80 1e 00
        E 420 90 1e 40
        E 60 80 1e 00
        E 420 90 1e 40
        E 60 80 1e 00
        E 420 90 1e 40
        E 60 80 1e 00
        E 420 90 1e 40
        E 60 80 1e 00
        E 420 90 1e 40
        E 60 80 1e 00
        E 420 90 1e 40
        E 60 80 1e 00
        E 420 90 1e 40
        E 60 80 1e 00
        E 420 90 1e 40
        E 60 80 1e 00
        E 420 90 1e 40
        E 60 80 1e 00
        E 420 90 1e 40
        E 60 80 1e 00
        E 420 90 1e 40
        E 60 80 1e 00
        E 420 90 1e 40
        E 60 80 1e 00
        E 420 90 1e 40
        E 60 80 1e 00
        E 420 90 1e 40
        E 60 80 1e 00
        E 420 90 1e 40
        E 60 80 1e 00
        E 420 90 1e 40
        E 60 80 1e 00
        E 420 90 1e 40
        E 60 80 1e 00
        E 420 90 1e 40
        E 60 80 1e 00
        E 420 90 1e 40
        E 60 80 1e 00
        E 420 90 1e 40
        E 60 80 1e 00
        E 420 90 1e 40
        E 60 80 1e 00
        E 420 90 1e 40
        E 60 80 1e 00
        E 420 90 1e 40
        E 60 80 1e 00
        E 420 90 1e 40
        E 60 80 1e 00
        E 420 90 1e 40
        E 60 80 1e 00
        E 420 90 1e 40
        E 60 80 1e 00
        E 420 90 1e 40
        E 60 80 1e 00
        E 420 90 1e 40
        E 60 80 1e 00
        E 420 90 1e 40
        E 60 80 1e 00
        E 420 90 1e 40
        E 60 80 1e 00
        E 180 90 1e 40
        E 60 80 1e 00
        E 179 80 25 00
        E 0 90 11 40
        E 60 80 11 00
        GUID {3F64A7AA-3CA4-4FA1-9DF6-4559539628A5}
        IGNTEMPO 0 120.00000000 4 4
        SRCCOLOR 32
        VELLANE 132 128 60
        COLORMAP "C:\Program Files\REAPER (x64)\Data\color_maps\rockband_guitarbass.png"
      >
    >
  >
  <TRACK '{619B10CE-86BD-4E45-A0D8-175ED6AFA4CE}'
    NAME "BEAT"
    PEAKCOL 16576
    BEAT -1
    AUTOMODE 0
    VOLPAN 1.00000000000000 0.00000000000000 -1.00000000000000 -1.00000000000000 1.00000000000000
    MUTESOLO 0 0 0
    IPHASE 0
    ISBUS 0 0
    BUSCOMP 0 0
    SHOWINMIX 1 0.666700 0.500000 1 0.500000 -1 -1 -1
    FREEMODE 0
    SEL 0
    REC 0 0 0 0 0 0 0
    VU 2
    TRACKHEIGHT 0 0
    INQ 0 0 0 0.5000000000 100 0 0 100
    NCHAN 2
    FX 1
    TRACKID {619B10CE-86BD-4E45-A0D8-175ED6AFA4CE}
    PERF 0
    MIDIOUT -1
    <MIDINOTENAMES
      0 13 "Up Beats"
      0 12 "Downbeat"
    >
    MAINSEND 1 0
    <FXCHAIN
      SHOW 0
      LASTSEL 0
      DOCKED 0
    >
    <ITEM
      POSITION 0.00000000000000
      SNAPOFFS 0.00000000000000
      LENGTH 36.31800000000000
      LOOP 0
      ALLTAKES 0
      SEL 0
      FADEIN 1 0.000000 0.000000 1 0
      FADEOUT 1 0.000000 0.000000 1 0
      MUTE 0
      IGUID {B8C0FC5C-9799-4F06-AEB0-AC2DE24BA0E7}
      IID 12
      NAME "BEAT"
      VOLPAN 1.000000 0.000000 1.000000 -1.000000
      SOFFS 0.00000000000000 0.00000000000000
      PLAYRATE 1.00000000000000 1 0.00000000000000 -1
      CHANMODE 0
      GUID {214DF5E8-D8FB-4DC6-8677-3F1773D66378}
      <SOURCE MIDI
        HASDATA 1 480 QN
        POOLEDEVTS {D04D5655-C28F-4DC1-A2DF-D619410628B7}
        <X 0 0
          /wNCRUFU
        >
        E 0 96 0c 64
        E 120 86 0c 00
        E 360 96 0d 64
        E 120 86 0d 00
        E 360 96 0d 64
        E 120 86 0d 00
        E 360 96 0d 64
        E 120 86 0d 00
        E 360 96 0c 64
        E 120 86 0c 00
        E 360 96 0d 64
        E 120 86 0d 00
        E 360 96 0d 64
        E 120 86 0d 00
        E 360 96 0d 64
        E 120 86 0d 00
        E 360 96 0c 64
        E 120 86 0c 00
        E 360 96 0d 64
        E 120 86 0d 00
        E 360 96 0d 64
        E 120 86 0d 00
        E 360 96 0d 64
        E 120 86 0d 00
        E 360 96 0c 64
        E 120 86 0c 00
        E 360 96 0d 64
        E 120 86 0d 00
        E 360 96 0d 64
        E 120 86 0d 00
        E 360 96 0d 64
        E 120 86 0d 00
        E 360 96 0c 64
        E 120 86 0c 00
        E 360 96 0d 64
        E 120 86 0d 00
        E 360 96 0d 64
        E 120 86 0d 00
        E 360 96 0d 64
        E 120 86 0d 00
        E 360 96 0c 64
        E 120 86 0c 00
        E 360 96 0d 64
        E 120 86 0d 00
        E 360 96 0d 64
        E 120 86 0d 00
        E 360 96 0d 64
        E 120 86 0d 00
        E 360 96 0c 64
        E 120 86 0c 00
        E 360 96 0d 64
        E 120 86 0d 00
        E 360 96 0d 64
        E 120 86 0d 00
        E 360 96 0d 64
        E 120 86 0d 00
        E 360 96 0c 64
        E 120 86 0c 00
        E 360 96 0d 64
        E 120 86 0d 00
        E 360 96 0d 64
        E 120 86 0d 00
        E 360 96 0d 64
        E 120 86 0d 00
        E 360 96 0c 64
        E 120 86 0c 00
        E 360 96 0d 64
        E 120 86 0d 00
        E 360 96 0d 64
        E 120 86 0d 00
        E 360 96 0d 64
        E 120 86 0d 00
        E 360 96 0c 64
        E 120 86 0c 00
        E 360 96 0d 64
        E 120 86 0d 00
        E 360 96 0d 64
        E 120 86 0d 00
        E 360 96 0d 64
        E 120 86 0d 00
        E 360 96 0c 64
        E 120 86 0c 00
        E 360 96 0d 64
        E 120 86 0d 00
        E 360 96 0d 64
        E 120 86 0d 00
        E 360 96 0d 64
        E 120 86 0d 00
        E 360 96 0c 64
        E 120 86 0c 00
        E 360 96 0d 64
        E 120 86 0d 00
        E 360 96 0d 64
        E 120 86 0d 00
        E 360 96 0d 64
        E 120 86 0d 00
        E 360 96 0c 64
        E 120 86 0c 00
        E 360 96 0d 64
        E 120 86 0d 00
        E 360 96 0d 64
        E 120 86 0d 00
        E 360 96 0d 64
        E 120 86 0d 00
        E 360 96 0c 64
        E 120 86 0c 00
        E 360 96 0d 64
        E 120 86 0d 00
        E 360 96 0d 64
        E 120 86 0d 00
        E 360 96 0d 64
        E 120 86 0d 00
        E 360 96 0c 64
        E 120 86 0c 00
        E 360 96 0d 64
        E 120 86 0d 00
        E 360 96 0d 64
        E 120 86 0d 00
        E 360 96 0d 64
        E 120 86 0d 00
        E 360 96 0c 64
        E 120 86 0c 00
        E 360 96 0d 64
        E 120 86 0d 00
        E 360 96 0d 64
        E 120 86 0d 00
        E 360 96 0d 64
        E 120 86 0d 00
        E 360 96 0c 64
        E 120 86 0c 00
        E 360 96 0d 64
        E 120 86 0d 00
        E 360 96 0d 64
        E 120 86 0d 00
        E 360 96 0d 64
        E 120 86 0d 00
        E 360 96 0c 64
        E 120 86 0c 00
        E 360 96 0d 64
        E 120 86 0d 00
        E 360 96 0d 64
        E 120 86 0d 00
        E 360 96 0d 64
        E 120 86 0d 00
        E 360 96 0c 64
        E 120 86 0c 00
        E 360 96 0d 64
        E 120 86 0d 00
        E 360 96 0d 64
        E 120 86 0d 00
        E 360 96 0d 64
        E 120 86 0d 00
        E 360 96 0c 64
        E 120 86 0c 00
        E 360 96 0d 64
        E 120 86 0d 00
        E 360 96 0d 64
        E 120 86 0d 00
        E 360 96 0d 64
        E 120 86 0d 00
        E 4199 b0 7b 00
        GUID {119C627A-AEA7-44A5-8D73-376452D68CF2}
        IGNTEMPO 0 120.00000000 4 4
        SRCCOLOR 30
        VELLANE 132 128 60
        COLORMAP "C:\Program Files\REAPER (x64)\Data\color_maps\rockband_guitarbass.png"
        CFGEDITVIEW -2795.288962 30.920627 0 48 0 0 0
        CFGEDIT 1 1 0 1 1 0 1 1 1 1 1 0.25000000 -8 -8 1544 872 0 2 1 1 0.00000000 0 1 0 0 0.500000 0 0 1.000000 64
        KEYSNAP 0 6 "102030050700" 0 "Pentatonic"
        EVTFILTER 0 -1 -1 -1 -1 0 1 0 0 -1.00000000 -1.00000000
      >
    >
  >
  <TRACK '{A26D60BA-7688-4D76-B47E-20A3854E157A}'
    NAME "backing"
    PEAKCOL 16576
    BEAT -1
    AUTOMODE 0
    VOLPAN 1.00000000000000 0.00000000000000 -1.00000000000000 -1.00000000000000 1.00000000000000
    MUTESOLO 0 0 0
    IPHASE 0
    ISBUS 0 0
    BUSCOMP 0 0
    SHOWINMIX 1 0.666700 0.500000 1 0.500000 -1 -1 -1
    FREEMODE 0
    SEL 0
    REC 0 0 0 0 0 0 0
    VU 2
    TRACKHEIGHT 0 0
    INQ 0 0 0 0.5000000000 100 0 0 100
    NCHAN 2
    FX 1
    TRACKID {A26D60BA-7688-4D76-B47E-20A3854E157A}
    PERF 0
    MIDIOUT -1
    MAINSEND 1 0
    <ITEM
      POSITION 0.00000000000000
      SNAPOFFS 0.00000000000000
      LENGTH 36.31800000000000
      LOOP 0
      ALLTAKES 0
      SEL 0
      FADEIN 1 0.000000 0.000000 1 0
      FADEOUT 1 0.000000 0.000000 1 0
      MUTE 0
      IGUID {ECC37B3A-30F3-4AFD-A4BD-50C9E718DA7A}
      IID 13
      NAME "backing.wav"
      VOLPAN 1.000000 0.000000 1.000000 -1.000000
      SOFFS 0.00000000000000
      PLAYRATE 1.00000000000000 1 0.00000000000000 -1
      CHANMODE 0
      GUID {1FA65DC7-B49B-48E9-966A-F206B3C9FA19}
      <SOURCE WAVE
        FILE "C:\Users\Ruggery\Documents\Visual Studio Code\Projects\ruggy-customs-projects\songs\southparktheme\wav\backing.wav"
      >
    >
  >
  <EXTENSIONS
  >
>
