<REAPER_PROJECT 0.1 "4.22/x64"
  RIPPLE 0
  GROUPOVERRIDE 0 0 0
  AUTOXFADE 1
  ENVATTACH 1
  MIXERUIFLAGS 11 48
  PEAKGAIN 1.00000000000000
  FEEDBACK 0
  PANLAW 1.00000000000000
  PROJOFFS 0.00000000000000 0
  MAXPROJLEN 0 600.00000000000000
  GRID 3199 8 1.00000000000000 8 1.00000000000000 0
  TIMEMODE 1 0 -1
  PANMODE 3
  CURSOR 0.00000000000000
  ZOOM 5.66416864260742 0 0
  VZOOMEX 6
  USE_REC_CFG 0
  RECMODE 1
  SMPTESYNC 0 23.976024 100 40 1000 300 0 0.000000 1
  LOOP 0
  LOOPGRAN 0 4.00000000000000
  RECORD_PATH "" ""
  <RECORD_CFG
    ZXZhdxgA
  >
  <APPLYFX_CFG
  >
  RENDER_FILE "C:\Users\Ruggery\Desktop\Rock Band\Customs\014 Breaking Into Cars\HARM1+2.wav"
  RENDER_FMT 0 1 16000
  RENDER_1X 0
  RENDER_RANGE 1 0.00000000000000 0.00000000000000
  RENDER_RESAMPLE 3 0 1
  RENDER_ADDTOPROJ 0
  RENDER_STEMS 0
  RENDER_DITHER 0
  TIMELOCKMODE 0
  ITEMMIX 0
  DEFPITCHMODE 393216
  TAKELANE 1
  SAMPLERATE 44100 0 0
  <RENDER_CFG
    ZXZhdxAA
  >
  LOCK 1
  <METRONOME 6 2.000000
    VOL 0.250000 0.125000
    FREQ 800 1600 1
    BEATLEN 4
    SAMPLES "" ""
  >
  GLOBAL_AUTO -1
  TEMPO 120.00000000000000 4 4
  PLAYRATE 1.00000000000000 0 0.25000 4.00000
  SELECTION 194.42554622498011 0.00000000000000
  SELECTION2 194.42554622498011 0.00000000000000
  MASTERAUTOMODE 0
  MASTERTRACKHEIGHT 0
  MASTERPEAKCOL 16576
  MASTERMUTESOLO 0
  MASTERTRACKVIEW 1 0.666700 0.500000 0.500000 -1 -1 -1
  MASTERHWOUT 0 0 1.00000000000000 0.00000000000000 0 0 0 -1.00000000000000
  MASTER_NCH 2 2
  MASTER_VOLUME 1.00000000000000 0.00000000000000 -1.00000000000000 -1.00000000000000 1.00000000000000
  MASTER_PANMODE -1
  MASTER_FX 1
  MASTER_SEL 0
  <MASTERPLAYSPEEDENV
    ACT 0
    VIS 0 1 1.000000
    LANEHEIGHT 0 0
    ARM 0
    DEFSHAPE 0 -1 -1
  >
  <TEMPOENVEX
    ACT 1
    VIS 1 0 1.000000
    LANEHEIGHT 0 0
    ARM 0
    DEFSHAPE 1 -1 -1
    PT 0.000000000000 134.4998957626 1
    PT 37.472148000000 135.0001350001 1
    PT 44.583252000000 134.4998957626 1
    PT 82.055400000000 135.0001350001 1
    PT 85.610952000000 134.4998957626 1
    PT 112.376772000000 135.0001350001 1
    PT 114.154548000000 134.4998957626 1
    PT 126.641546525000 135.0001350001 1
    PT 130.200802225000 134.4998957626 1
    PT 180.163666225000 135.0001350001 1
    PT 183.719218225000 134.4998957626 1
  >
  <PROJBAY
  >
  <TRACK '{814897E6-7104-48A4-889A-9C2D4C6083AC}'
    NAME "PART DRUMS"
    PEAKCOL 16576
    BEAT -1
    AUTOMODE 0
    VOLPAN 1.00000000000000 0.00000000000000 -1.00000000000000 -1.00000000000000 1.00000000000000
    MUTESOLO 0 0 0
    IPHASE 0
    ISBUS 0 0
    BUSCOMP 0 0
    SHOWINMIX 1 0.666700 0.500000 1 0.500000 -1 -1 -1
    FREEMODE 0
    SEL 0
    REC 0 0 0 0 0 0 0
    VU 2
    TRACKHEIGHT 0 0
    INQ 0 0 0 0.5000000000 100 0 0 100
    NCHAN 2
    FX 1
    TRACKID {814897E6-7104-48A4-889A-9C2D4C6083AC}
    PERF 0
    MIDIOUT -1
    <MIDINOTENAMES
      0 127 "Cymbal Swells"
      0 126 "Drum Roll"
      0 125 "---"
      0 124 "DRUM FILL"
      0 123 "DRUM FILL"
      0 122 "DRUM FILL"
      0 121 "DRUM FILL"
      0 120 "DRUM FILL (use all 5)"
      0 118 "----"
      0 116 "OVERDRIVE"
      0 114 "----"
      0 112 "TOM GEMS PAD 4"
      0 111 "TOM GEMS PAD 3"
      0 110 "TOM GEMS PAD 2"
      0 103 "Solo Marker"
      0 102 "----"
      0 100 "EXPERT Green"
      0 99 "EXPERT Blue"
      0 98 "EXPERT Yellow"
      0 97 "EXPERT Red"
      0 96 "EXPERT Kick"
      0 92 "----"
      0 88 "HARD Green"
      0 87 "HARD Blue"
      0 86 "HARD Yellow"
      0 85 "HARD Red"
      0 84 "HARD Kick"
      0 80 "----"
      0 76 "MEDIUM Green"
      0 75 "MEDIUM Blue"
      0 74 "MEDIUM Yellow"
      0 73 "MEDIUM Red"
      0 72 "MEDIUM Kick"
      0 68 "----"
      0 64 "EASY Green"
      0 63 "EASY Blue"
      0 62 "EASY Yellow"
      0 61 "EASY Red"
      0 60 "EASY Kick"
      0 56 "----"
      0 52 "-- DRUM ANIMATION --"
      0 51 "FLOOR TOM RH"
      0 50 "FLOOR TOM LH"
      0 49 "TOM2 RH"
      0 48 "TOM2 LH"
      0 47 "TOM1 RH"
      0 46 "TOM1 LH"
      0 45 "SOFT CRASH 2 LH"
      0 44 "CRASH 2 LH"
      0 43 "RIDE LH"
      0 42 "RIDE CYM RH"
      0 41 "CRASH2 CHOKE"
      0 40 "CRASH1 CHOKE"
      0 39 "CRASH2 SOFT RH"
      0 38 "CRASH2 HARD RH"
      0 37 "CRASH1 SOFT RH"
      0 36 "CRASH1 HARD RH"
      0 35 "CRASH1 SOFT LH"
      0 34 "CRASH1 HARD LH"
      0 32 "PERCUSSION RH"
      0 31 "HI-HAT RH"
      0 30 "HI-HAT LH"
      0 29 "SOFT SNARE RH"
      0 28 "SOFT SNARE LH"
      0 27 "SNARE RH"
      0 26 "SNARE LH"
      0 25 "HI-HAT OPEN"
      0 24 "KICK RF"
    >
    MAINSEND 1 0
    <FXCHAIN
      WNDRECT 0 43 878 559
      SHOW 0
      LASTSEL 0
      DOCKED 0
      BYPASS 0 0
      <VST "VSTi: RBN Preview (RBN)" "rbprev_vst64.dll" 0 ""
        dnBicu5e7f4AAAAAAgAAAAEAAAAAAAAAAgAAAAAAAAAEAAAAAQAAAA==
        AAAQAAMBqgAAABAAAAA=
      >
      FLOATPOS 0 0 0 0
      FXID {BF73C21D-7732-4E19-B916-A9C0FD94C0DF}
      WAK 0
    >
    <ITEM
      POSITION 0.00000000000000
      SNAPOFFS 0.00000000000000
      LENGTH 194.42554622500001
      LOOP 0
      ALLTAKES 0
      SEL 0
      FADEIN 1 0.000000 0.000000 1 0
      FADEOUT 1 0.000000 0.000000 1 0
      MUTE 0
      IGUID {D4E5D368-C3DB-45AF-A41E-5B81DD8A85E1}
      IID 1
      NAME "PART DRUMS"
      VOLPAN 1.000000 0.000000 1.000000 -1.000000
      SOFFS 0.00000000000000 0.00000000000000
      PLAYRATE 1.00000000000000 1 0.00000000000000 -1
      CHANMODE 0
      GUID {81526137-8A30-47FA-AC0D-DD6C637F6DEC}
      <SOURCE MIDI
        HASDATA 1 480 QN
        POOLEDEVTS {191C736D-B16D-4C93-803C-0DDBE11364D1}
        <X 0 0
          /wNQQVJUIERSVU1T
        >
        <X 240 0
          /wFbbWl4IDEgZHJ1bXMwXQ==
        >
        <X 0 0
          /wFbbWl4IDAgZHJ1bXMwXQ==
        >
        <X 120 0
          /wFbbWl4IDIgZHJ1bXMwXQ==
        >
        <X 120 0
          /wFbbWl4IDMgZHJ1bXMwXQ==
        >
        <X 5280 0
          /wFbcGxheV0=
        >
        E 0 90 18 60
        E 0 90 2a 60
        E 0 90 3f 60
        E 0 90 48 60
        E 0 90 4b 60
        E 0 90 54 60
        E 0 90 57 60
        E 0 90 60 60
        E 0 90 63 60
        E 120 80 18 00
        E 0 80 2a 00
        E 0 80 3f 00
        E 0 80 48 00
        E 0 80 4b 00
        E 0 80 54 00
        E 0 80 57 00
        E 0 80 60 00
        E 0 80 63 00
        E 360 90 1a 60
        E 0 90 3d 60
        E 0 90 49 60
        E 0 90 55 60
        E 0 90 61 60
        E 120 80 1a 00
        E 0 80 3d 00
        E 0 80 49 00
        E 0 80 55 00
        E 0 80 61 00
        E 120 90 18 60
        E 0 90 54 60
        E 0 90 60 60
        E 120 80 18 00
        E 0 80 54 00
        E 0 80 60 00
        E 120 90 18 60
        E 0 90 3c 60
        E 0 90 48 60
        E 0 90 54 60
        E 0 90 60 60
        E 120 80 18 00
        E 0 80 3c 00
        E 0 80 48 00
        E 0 80 54 00
        E 0 80 60 00
        E 360 90 1a 60
        E 0 90 3d 60
        E 0 90 49 60
        E 0 90 55 60
        E 0 90 61 60
        E 120 80 1a 00
        E 0 80 3d 00
        E 0 80 49 00
        E 0 80 55 00
        E 0 80 61 00
        E 360 90 18 60
        E 0 90 3c 60
        E 0 90 48 60
        E 0 90 54 60
        E 0 90 60 60
        E 120 80 18 00
        E 0 80 3c 00
        E 0 80 48 00
        E 0 80 54 00
        E 0 80 60 00
        E 360 90 1a 60
        E 0 90 3d 60
        E 0 90 49 60
        E 0 90 55 60
        E 0 90 61 60
        E 120 80 1a 00
        E 0 80 3d 00
        E 0 80 49 00
        E 0 80 55 00
        E 0 80 61 00
        E 120 90 18 60
        E 0 90 54 60
        E 0 90 60 60
        E 120 80 18 00
        E 0 80 54 00
        E 0 80 60 00
        E 120 90 18 60
        E 0 90 3c 60
        E 0 90 48 60
        E 0 90 54 60
        E 0 90 60 60
        E 120 80 18 00
        E 0 80 3c 00
        E 0 80 48 00
        E 0 80 54 00
        E 0 80 60 00
        E 360 90 1a 60
        E 0 90 3d 60
        E 0 90 49 60
        E 0 90 55 60
        E 0 90 61 60
        E 120 80 1a 00
        E 0 80 3d 00
        E 0 80 49 00
        E 0 80 55 00
        E 0 80 61 00
        E 360 90 18 60
        E 0 90 3c 60
        E 0 90 48 60
        E 0 90 54 60
        E 0 90 60 60
        E 120 80 18 00
        E 0 80 3c 00
        E 0 80 48 00
        E 0 80 54 00
        E 0 80 60 00
        E 360 90 1a 60
        E 0 90 3d 60
        E 0 90 49 60
        E 0 90 55 60
        E 0 90 61 60
        E 120 80 1a 00
        E 0 80 3d 00
        E 0 80 49 00
        E 0 80 55 00
        E 0 80 61 00
        E 120 90 18 60
        E 0 90 54 60
        E 0 90 60 60
        E 120 80 18 00
        E 0 80 54 00
        E 0 80 60 00
        E 120 90 18 60
        E 0 90 3c 60
        E 0 90 48 60
        E 0 90 54 60
        E 0 90 60 60
        E 120 80 18 00
        E 0 80 3c 00
        E 0 80 48 00
        E 0 80 54 00
        E 0 80 60 00
        E 360 90 1a 60
        E 0 90 3d 60
        E 0 90 49 60
        E 0 90 55 60
        E 0 90 61 60
        E 120 80 1a 00
        E 0 80 3d 00
        E 0 80 49 00
        E 0 80 55 00
        E 0 80 61 00
        E 360 90 18 60
        E 0 90 3c 60
        E 0 90 48 60
        E 0 90 54 60
        E 0 90 60 60
        E 120 80 18 00
        E 0 80 3c 00
        E 0 80 48 00
        E 0 80 54 00
        E 0 80 60 00
        E 360 90 1a 60
        E 0 90 3d 60
        E 0 90 49 60
        E 0 90 55 60
        E 0 90 61 60
        E 120 80 1a 00
        E 0 80 3d 00
        E 0 80 49 00
        E 0 80 55 00
        E 0 80 61 00
        E 120 90 18 60
        E 0 90 54 60
        E 0 90 60 60
        E 120 80 18 00
        E 0 80 54 00
        E 0 80 60 00
        E 120 90 18 60
        E 0 90 3c 60
        E 0 90 48 60
        E 0 90 54 60
        E 0 90 60 60
        E 120 80 18 00
        E 0 80 3c 00
        E 0 80 48 00
        E 0 80 54 00
        E 0 80 60 00
        E 120 90 18 60
        E 0 90 19 60
        E 0 90 1e 60
        E 0 90 54 60
        E 0 90 56 60
        E 0 90 60 60
        E 0 90 62 60
        E 120 80 18 00
        E 0 80 1e 00
        E 0 80 54 00
        E 0 80 56 00
        E 0 80 60 00
        E 0 80 62 00
        E 120 80 19 00
        E 0 90 1a 60
        E 0 90 3d 60
        E 0 90 49 60
        E 0 90 55 60
        E 0 90 61 60
        E 120 80 1a 00
        E 0 80 3d 00
        E 0 80 49 00
        E 0 80 55 00
        E 0 80 61 00
        E 120 90 18 60
        E 0 90 54 60
        E 0 90 60 60
        E 120 80 18 00
        E 0 80 54 00
        E 0 80 60 00
        E 120 90 18 60
        E 0 90 3c 60
        E 0 90 48 60
        E 0 90 54 60
        E 0 90 60 60
        E 120 80 18 00
        E 0 80 3c 00
        E 0 80 48 00
        E 0 80 54 00
        E 0 80 60 00
        E 360 90 1a 60
        E 0 90 3d 60
        E 0 90 49 60
        E 0 90 55 60
        E 0 90 61 60
        E 120 80 1a 00
        E 0 80 3d 00
        E 0 80 49 00
        E 0 80 55 00
        E 0 80 61 00
        E 120 90 18 60
        E 0 90 54 60
        E 0 90 60 60
        E 120 80 18 00
        E 0 80 54 00
        E 0 80 60 00
        E 120 90 18 60
        E 0 90 3c 60
        E 0 90 48 60
        E 0 90 54 60
        E 0 90 60 60
        E 120 80 18 00
        E 0 80 3c 00
        E 0 80 48 00
        E 0 80 54 00
        E 0 80 60 00
        E 360 90 1a 60
        E 0 90 3d 60
        E 0 90 49 60
        E 0 90 55 60
        E 0 90 61 60
        E 120 80 1a 00
        E 0 80 3d 00
        E 0 80 49 00
        E 0 80 55 00
        E 0 80 61 00
        E 360 90 18 60
        E 0 90 3c 60
        E 0 90 48 60
        E 0 90 54 60
        E 0 90 60 60
        E 120 80 18 00
        E 0 80 3c 00
        E 0 80 48 00
        E 0 80 54 00
        E 0 80 60 00
        E 360 90 1a 60
        E 0 90 3d 60
        E 0 90 49 60
        E 0 90 55 60
        E 0 90 61 60
        E 120 80 1a 00
        E 0 80 3d 00
        E 0 80 49 00
        E 0 80 55 00
        E 0 80 61 00
        E 120 90 18 60
        E 0 90 54 60
        E 0 90 60 60
        E 120 80 18 00
        E 0 80 54 00
        E 0 80 60 00
        E 120 90 18 60
        E 0 90 3c 60
        E 0 90 48 60
        E 0 90 54 60
        E 0 90 60 60
        E 120 80 18 00
        E 0 80 3c 00
        E 0 80 48 00
        E 0 80 54 00
        E 0 80 60 00
        E 360 90 1a 60
        E 0 90 3d 60
        E 0 90 49 60
        E 0 90 55 60
        E 0 90 61 60
        E 120 80 1a 00
        E 0 80 3d 00
        E 0 80 49 00
        E 0 80 55 00
        E 0 80 61 00
        E 360 90 18 60
        E 0 90 3c 60
        E 0 90 48 60
        E 0 90 54 60
        E 0 90 60 60
        E 120 80 18 00
        E 0 80 3c 00
        E 0 80 48 00
        E 0 80 54 00
        E 0 80 60 00
        E 360 90 1a 60
        E 0 90 3d 60
        E 0 90 49 60
        E 0 90 55 60
        E 0 90 61 60
        E 120 80 1a 00
        E 0 80 3d 00
        E 0 80 49 00
        E 0 80 55 00
        E 0 80 61 00
        E 120 90 18 60
        E 0 90 54 60
        E 0 90 60 60
        E 120 80 18 00
        E 0 80 54 00
        E 0 80 60 00
        E 120 90 18 60
        E 0 90 3c 60
        E 0 90 48 60
        E 0 90 54 60
        E 0 90 60 60
        E 120 80 18 00
        E 0 80 3c 00
        E 0 80 48 00
        E 0 80 54 00
        E 0 80 60 00
        E 360 90 1a 60
        E 0 90 3d 60
        E 0 90 49 60
        E 0 90 55 60
        E 0 90 61 60
        E 120 80 1a 00
        E 0 80 3d 00
        E 0 80 49 00
        E 0 80 55 00
        E 0 80 61 00
        E 360 90 18 60
        E 0 90 3c 60
        E 0 90 48 60
        E 0 90 54 60
        E 0 90 60 60
        E 0 90 74 60
        E 120 80 18 00
        E 0 80 3c 00
        E 0 80 48 00
        E 0 80 54 00
        E 0 80 60 00
        E 360 90 1a 60
        E 0 90 3d 60
        E 0 90 49 60
        E 0 90 55 60
        E 0 90 61 60
        E 120 80 1a 00
        E 0 80 3d 00
        E 0 80 49 00
        E 0 80 55 00
        E 0 80 61 00
        E 120 90 18 60
        E 0 90 54 60
        E 0 90 60 60
        E 120 80 18 00
        E 0 80 54 00
        E 0 80 60 00
        E 120 90 18 60
        E 0 90 3c 60
        E 0 90 48 60
        E 0 90 54 60
        E 0 90 60 60
        E 120 80 18 00
        E 0 80 3c 00
        E 0 80 48 00
        E 0 80 54 00
        E 0 80 60 00
        E 120 90 18 60
        E 0 90 19 60
        E 0 90 1e 60
        E 0 90 54 60
        E 0 90 56 60
        E 0 90 60 60
        E 0 90 62 60
        E 120 80 18 00
        E 0 80 1e 00
        E 0 80 54 00
        E 0 80 56 00
        E 0 80 60 00
        E 0 80 62 00
        E 120 80 19 00
        E 0 90 1a 60
        E 0 90 3d 60
        E 0 90 49 60
        E 0 90 55 60
        E 0 90 61 60
        E 120 80 1a 00
        E 0 80 3d 00
        E 0 80 49 00
        E 0 80 55 00
        E 0 80 61 00
        E 120 90 18 60
        E 0 90 54 60
        E 0 90 60 60
        E 120 80 18 00
        E 0 80 54 00
        E 0 80 60 00
        E 120 90 18 60
        E 0 90 2a 60
        E 0 90 3f 60
        E 0 90 48 60
        E 0 90 4b 60
        E 0 90 54 60
        E 0 90 57 60
        E 0 90 60 60
        E 0 90 63 60
        E 120 80 74 00
        E 0 80 18 00
        E 0 80 2a 00
        E 0 80 3f 00
        E 0 80 48 00
        E 0 80 4b 00
        E 0 80 54 00
        E 0 80 57 00
        E 0 80 60 00
        E 0 80 63 00
        E 360 90 1a 60
        E 0 90 3d 60
        E 0 90 49 60
        E 0 90 55 60
        E 0 90 61 60
        E 120 80 1a 00
        E 0 80 3d 00
        E 0 80 49 00
        E 0 80 55 00
        E 0 80 61 00
        E 120 90 18 60
        E 0 90 54 60
        E 0 90 60 60
        E 120 80 18 00
        E 0 80 54 00
        E 0 80 60 00
        E 120 90 18 60
        E 0 90 3c 60
        E 0 90 48 60
        E 0 90 54 60
        E 0 90 60 60
        E 120 80 18 00
        E 0 80 3c 00
        E 0 80 48 00
        E 0 80 54 00
        E 0 80 60 00
        E 360 90 1a 60
        E 0 90 3d 60
        E 0 90 49 60
        E 0 90 55 60
        E 0 90 61 60
        E 120 80 1a 00
        E 0 80 3d 00
        E 0 80 49 00
        E 0 80 55 00
        E 0 80 61 00
        E 360 90 18 60
        E 0 90 3c 60
        E 0 90 48 60
        E 0 90 54 60
        E 0 90 60 60
        E 120 80 18 00
        E 0 80 3c 00
        E 0 80 48 00
        E 0 80 54 00
        E 0 80 60 00
        E 360 90 1a 60
        E 0 90 3d 60
        E 0 90 49 60
        E 0 90 55 60
        E 0 90 61 60
        E 120 80 1a 00
        E 0 80 3d 00
        E 0 80 49 00
        E 0 80 55 00
        E 0 80 61 00
        E 120 90 18 60
        E 0 90 54 60
        E 0 90 60 60
        E 120 80 18 00
        E 0 80 54 00
        E 0 80 60 00
        E 120 90 18 60
        E 0 90 3c 60
        E 0 90 48 60
        E 0 90 54 60
        E 0 90 60 60
        E 120 80 18 00
        E 0 80 3c 00
        E 0 80 48 00
        E 0 80 54 00
        E 0 80 60 00
        E 360 90 1a 60
        E 0 90 3d 60
        E 0 90 49 60
        E 0 90 55 60
        E 0 90 61 60
        E 120 80 1a 00
        E 0 80 3d 00
        E 0 80 49 00
        E 0 80 55 00
        E 0 80 61 00
        E 360 90 18 60
        E 0 90 3c 60
        E 0 90 48 60
        E 0 90 54 60
        E 0 90 60 60
        E 120 80 18 00
        E 0 80 3c 00
        E 0 80 48 00
        E 0 80 54 00
        E 0 80 60 00
        E 360 90 1a 60
        E 0 90 3d 60
        E 0 90 49 60
        E 0 90 55 60
        E 0 90 61 60
        E 120 80 1a 00
        E 0 80 3d 00
        E 0 80 49 00
        E 0 80 55 00
        E 0 80 61 00
        E 120 90 18 60
        E 0 90 54 60
        E 0 90 60 60
        E 120 80 18 00
        E 0 80 54 00
        E 0 80 60 00
        E 120 90 18 60
        E 0 90 3c 60
        E 0 90 48 60
        E 0 90 54 60
        E 0 90 60 60
        E 120 80 18 00
        E 0 80 3c 00
        E 0 80 48 00
        E 0 80 54 00
        E 0 80 60 00
        E 360 90 1a 60
        E 0 90 3d 60
        E 0 90 49 60
        E 0 90 55 60
        E 0 90 61 60
        E 120 80 1a 00
        E 0 80 3d 00
        E 0 80 49 00
        E 0 80 55 00
        E 0 80 61 00
        E 360 90 18 60
        E 0 90 3c 60
        E 0 90 48 60
        E 0 90 54 60
        E 0 90 60 60
        E 0 90 78 60
        E 0 90 79 60
        E 0 90 7a 60
        E 0 90 7b 60
        E 0 90 7c 60
        E 120 80 18 00
        E 0 80 3c 00
        E 0 80 48 00
        E 0 80 54 00
        E 0 80 60 00
        E 360 90 1a 60
        E 0 90 3d 60
        E 0 90 49 60
        E 0 90 55 60
        E 0 90 61 60
        E 120 80 1a 00
        E 0 80 3d 00
        E 0 80 49 00
        E 0 80 55 00
        E 0 80 61 00
        E 120 90 18 60
        E 0 90 54 60
        E 0 90 60 60
        E 120 80 18 00
        E 0 80 54 00
        E 0 80 60 00
        E 120 90 18 60
        E 0 90 3c 60
        E 0 90 48 60
        E 0 90 54 60
        E 0 90 60 60
        E 120 80 18 00
        E 0 80 3c 00
        E 0 80 48 00
        E 0 80 54 00
        E 0 80 60 00
        E 120 90 18 60
        E 0 90 19 60
        E 0 90 1e 60
        E 0 90 54 60
        E 0 90 56 60
        E 0 90 60 60
        E 0 90 62 60
        E 120 80 18 00
        E 0 80 1e 00
        E 0 80 54 00
        E 0 80 56 00
        E 0 80 60 00
        E 0 80 62 00
        E 120 80 19 00
        E 0 90 1a 60
        E 0 90 3d 60
        E 0 90 49 60
        E 0 90 55 60
        E 0 90 61 60
        E 120 80 1a 00
        E 0 80 3d 00
        E 0 80 49 00
        E 0 80 55 00
        E 0 80 61 00
        E 120 90 18 60
        E 0 90 54 60
        E 0 90 60 60
        E 120 80 18 00
        E 0 80 54 00
        E 0 80 60 00
        E 120 80 78 00
        E 0 80 79 00
        E 0 80 7a 00
        E 0 80 7b 00
        E 0 80 7c 00
        E 0 90 18 60
        E 0 90 3c 60
        E 0 90 48 60
        E 0 90 54 60
        E 0 90 60 60
        E 120 80 18 00
        E 0 80 3c 00
        E 0 80 48 00
        E 0 80 54 00
        E 0 80 60 00
        E 360 90 1a 60
        E 0 90 3d 60
        E 0 90 49 60
        E 0 90 55 60
        E 0 90 61 60
        E 120 80 1a 00
        E 0 80 3d 00
        E 0 80 49 00
        E 0 80 55 00
        E 0 80 61 00
        E 120 90 18 60
        E 0 90 54 60
        E 0 90 60 60
        E 120 80 18 00
        E 0 80 54 00
        E 0 80 60 00
        E 120 90 18 60
        E 0 90 3c 60
        E 0 90 48 60
        E 0 90 54 60
        E 0 90 60 60
        E 120 80 18 00
        E 0 80 3c 00
        E 0 80 48 00
        E 0 80 54 00
        E 0 80 60 00
        E 360 90 1a 60
        E 0 90 3d 60
        E 0 90 49 60
        E 0 90 55 60
        E 0 90 61 60
        E 120 80 1a 00
        E 0 80 3d 00
        E 0 80 49 00
        E 0 80 55 00
        E 0 80 61 00
        E 360 90 18 60
        E 0 90 3c 60
        E 0 90 48 60
        E 0 90 54 60
        E 0 90 60 60
        E 120 80 18 00
        E 0 80 3c 00
        E 0 80 48 00
        E 0 80 54 00
        E 0 80 60 00
        E 360 90 1a 60
        E 0 90 3d 60
        E 0 90 49 60
        E 0 90 55 60
        E 0 90 61 60
        E 120 80 1a 00
        E 0 80 3d 00
        E 0 80 49 00
        E 0 80 55 00
        E 0 80 61 00
        E 120 90 18 60
        E 0 90 54 60
        E 0 90 60 60
        E 120 80 18 00
        E 0 80 54 00
        E 0 80 60 00
        E 120 90 18 60
        E 0 90 3c 60
        E 0 90 48 60
        E 0 90 54 60
        E 0 90 60 60
        E 120 80 18 00
        E 0 80 3c 00
        E 0 80 48 00
        E 0 80 54 00
        E 0 80 60 00
        E 360 90 1a 60
        E 0 90 3d 60
        E 0 90 49 60
        E 0 90 55 60
        E 0 90 61 60
        E 120 80 1a 00
        E 0 80 3d 00
        E 0 80 49 00
        E 0 80 55 00
        E 0 80 61 00
        E 360 90 18 60
        E 0 90 3c 60
        E 0 90 48 60
        E 0 90 54 60
        E 0 90 60 60
        E 120 80 18 00
        E 0 80 3c 00
        E 0 80 48 00
        E 0 80 54 00
        E 0 80 60 00
        E 360 90 1a 60
        E 0 90 3d 60
        E 0 90 49 60
        E 0 90 55 60
        E 0 90 61 60
        E 120 80 1a 00
        E 0 80 3d 00
        E 0 80 49 00
        E 0 80 55 00
        E 0 80 61 00
        E 120 90 18 60
        E 0 90 54 60
        E 0 90 60 60
        E 120 80 18 00
        E 0 80 54 00
        E 0 80 60 00
        E 120 90 18 60
        E 0 90 3c 60
        E 0 90 48 60
        E 0 90 54 60
        E 0 90 60 60
        E 120 80 18 00
        E 0 80 3c 00
        E 0 80 48 00
        E 0 80 54 00
        E 0 80 60 00
        E 360 90 1a 60
        E 0 90 3d 60
        E 0 90 49 60
        E 0 90 55 60
        E 0 90 61 60
        E 120 80 1a 00
        E 0 80 3d 00
        E 0 80 49 00
        E 0 80 55 00
        E 0 80 61 00
        E 360 90 18 60
        E 0 90 3c 60
        E 0 90 48 60
        E 0 90 54 60
        E 0 90 60 60
        E 120 80 18 00
        E 0 80 3c 00
        E 0 80 48 00
        E 0 80 54 00
        E 0 80 60 00
        E 360 90 1a 60
        E 0 90 3d 60
        E 0 90 49 60
        E 0 90 55 60
        E 0 90 61 60
        E 0 90 74 60
        E 120 80 1a 00
        E 0 80 3d 00
        E 0 80 49 00
        E 0 80 55 00
        E 0 80 61 00
        E 120 90 18 60
        E 0 90 54 60
        E 0 90 60 60
        E 120 80 18 00
        E 0 80 54 00
        E 0 80 60 00
        E 120 90 18 60
        E 0 90 3c 60
        E 0 90 48 60
        E 0 90 54 60
        E 0 90 60 60
        E 120 80 18 00
        E 0 80 3c 00
        E 0 80 48 00
        E 0 80 54 00
        E 0 80 60 00
        E 120 90 18 60
        E 0 90 19 60
        E 0 90 1e 60
        E 0 90 54 60
        E 0 90 56 60
        E 0 90 60 60
        E 0 90 62 60
        E 120 80 18 00
        E 0 80 1e 00
        E 0 80 54 00
        E 0 80 56 00
        E 0 80 60 00
        E 0 80 62 00
        E 120 80 19 00
        E 0 90 1a 60
        E 0 90 3d 60
        E 0 90 49 60
        E 0 90 55 60
        E 0 90 61 60
        E 120 80 1a 00
        E 0 80 3d 00
        E 0 80 49 00
        E 0 80 55 00
        E 0 80 61 00
        E 120 90 18 60
        E 0 90 54 60
        E 0 90 60 60
        E 120 80 18 00
        E 0 80 54 00
        E 0 80 60 00
        E 120 90 18 60
        E 0 90 3f 60
        E 0 90 48 60
        E 0 90 4b 60
        E 0 90 54 60
        E 0 90 57 60
        E 0 90 60 60
        E 0 90 63 60
        E 120 80 74 00
        E 0 80 18 00
        E 0 80 3f 00
        E 0 80 48 00
        E 0 80 4b 00
        E 0 80 54 00
        E 0 80 57 00
        E 0 80 60 00
        E 0 80 63 00
        E 3720 90 18 60
        E 0 90 3c 60
        E 0 90 48 60
        E 0 90 54 60
        E 0 90 60 60
        E 120 80 18 00
        E 0 80 3c 00
        E 0 80 48 00
        E 0 80 54 00
        E 0 80 60 00
        E 1800 90 78 60
        E 0 90 79 60
        E 0 90 7a 60
        E 0 90 7b 60
        E 0 90 7c 60
        E 1440 90 1a 60
        E 0 90 3d 60
        E 0 90 49 60
        E 0 90 55 60
        E 0 90 61 60
        E 120 80 1a 00
        E 0 80 3d 00
        E 0 80 49 00
        E 0 80 55 00
        E 0 80 61 00
        <X 360 0
          /wFbaW50ZW5zZV0=
        >
        E 0 80 78 00
        E 0 80 79 00
        E 0 80 7a 00
        E 0 80 7b 00
        E 0 80 7c 00
        E 0 90 18 60
        E 0 90 1f 60
        E 0 90 3e 60
        E 0 90 48 60
        E 0 90 4a 60
        E 0 90 54 60
        E 0 90 56 60
        E 0 90 60 60
        E 0 90 62 60
        E 120 80 18 00
        E 0 80 1f 00
        E 0 80 3e 00
        E 0 80 48 00
        E 0 80 4a 00
        E 0 80 54 00
        E 0 80 56 00
        E 0 80 60 00
        E 0 80 62 00
        E 120 90 1f 60
        E 0 90 56 60
        E 0 90 62 60
        E 120 80 1f 00
        E 0 80 56 00
        E 0 80 62 00
        E 120 90 1a 60
        E 0 90 1f 60
        E 0 90 3d 60
        E 0 90 3e 60
        E 0 90 49 60
        E 0 90 4a 60
        E 0 90 55 60
        E 0 90 56 60
        E 0 90 61 60
        E 0 90 62 60
        E 120 80 1a 00
        E 0 80 1f 00
        E 0 80 3d 00
        E 0 80 3e 00
        E 0 80 49 00
        E 0 80 4a 00
        E 0 80 55 00
        E 0 80 56 00
        E 0 80 61 00
        E 0 80 62 00
        E 120 90 18 60
        E 0 90 1f 60
        E 0 90 54 60
        E 0 90 56 60
        E 0 90 60 60
        E 0 90 62 60
        E 120 80 18 00
        E 0 80 1f 00
        E 0 80 54 00
        E 0 80 56 00
        E 0 80 60 00
        E 0 80 62 00
        E 120 90 18 60
        E 0 90 1f 60
        E 0 90 3e 60
        E 0 90 48 60
        E 0 90 4a 60
        E 0 90 54 60
        E 0 90 56 60
        E 0 90 60 60
        E 0 90 62 60
        E 120 80 18 00
        E 0 80 1f 00
        E 0 80 3e 00
        E 0 80 48 00
        E 0 80 4a 00
        E 0 80 54 00
        E 0 80 56 00
        E 0 80 60 00
        E 0 80 62 00
        E 120 90 1f 60
        E 0 90 56 60
        E 0 90 62 60
        E 120 80 1f 00
        E 0 80 56 00
        E 0 80 62 00
        E 120 90 1a 60
        E 0 90 1f 60
        E 0 90 3d 60
        E 0 90 3e 60
        E 0 90 49 60
        E 0 90 4a 60
        E 0 90 55 60
        E 0 90 56 60
        E 0 90 61 60
        E 0 90 62 60
        E 120 80 1a 00
        E 0 80 1f 00
        E 0 80 3d 00
        E 0 80 3e 00
        E 0 80 49 00
        E 0 80 4a 00
        E 0 80 55 00
        E 0 80 56 00
        E 0 80 61 00
        E 0 80 62 00
        E 120 90 1f 60
        E 0 90 56 60
        E 0 90 62 60
        E 120 80 1f 00
        E 0 80 56 00
        E 0 80 62 00
        E 120 90 18 60
        E 0 90 1f 60
        E 0 90 3e 60
        E 0 90 48 60
        E 0 90 4a 60
        E 0 90 54 60
        E 0 90 56 60
        E 0 90 60 60
        E 0 90 62 60
        E 120 80 18 00
        E 0 80 1f 00
        E 0 80 3e 00
        E 0 80 48 00
        E 0 80 4a 00
        E 0 80 54 00
        E 0 80 56 00
        E 0 80 60 00
        E 0 80 62 00
        E 120 90 1f 60
        E 0 90 56 60
        E 0 90 62 60
        E 120 80 1f 00
        E 0 80 56 00
        E 0 80 62 00
        E 120 90 1a 60
        E 0 90 1f 60
        E 0 90 3d 60
        E 0 90 3e 60
        E 0 90 49 60
        E 0 90 4a 60
        E 0 90 55 60
        E 0 90 56 60
        E 0 90 61 60
        E 0 90 62 60
        E 120 80 1a 00
        E 0 80 1f 00
        E 0 80 3d 00
        E 0 80 3e 00
        E 0 80 49 00
        E 0 80 4a 00
        E 0 80 55 00
        E 0 80 56 00
        E 0 80 61 00
        E 0 80 62 00
        E 120 90 18 60
        E 0 90 1f 60
        E 0 90 54 60
        E 0 90 56 60
        E 0 90 60 60
        E 0 90 62 60
        E 120 80 18 00
        E 0 80 1f 00
        E 0 80 54 00
        E 0 80 56 00
        E 0 80 60 00
        E 0 80 62 00
        E 120 90 18 60
        E 0 90 1f 60
        E 0 90 3e 60
        E 0 90 48 60
        E 0 90 4a 60
        E 0 90 54 60
        E 0 90 56 60
        E 0 90 60 60
        E 0 90 62 60
        E 120 80 18 00
        E 0 80 1f 00
        E 0 80 3e 00
        E 0 80 48 00
        E 0 80 4a 00
        E 0 80 54 00
        E 0 80 56 00
        E 0 80 60 00
        E 0 80 62 00
        E 120 90 1f 60
        E 0 90 56 60
        E 0 90 62 60
        E 120 80 1f 00
        E 0 80 56 00
        E 0 80 62 00
        E 120 90 1a 60
        E 0 90 1f 60
        E 0 90 3d 60
        E 0 90 3e 60
        E 0 90 49 60
        E 0 90 4a 60
        E 0 90 55 60
        E 0 90 56 60
        E 0 90 61 60
        E 0 90 62 60
        E 120 80 1a 00
        E 0 80 1f 00
        E 0 80 3d 00
        E 0 80 3e 00
        E 0 80 49 00
        E 0 80 4a 00
        E 0 80 55 00
        E 0 80 56 00
        E 0 80 61 00
        E 0 80 62 00
        E 120 90 1f 60
        E 0 90 56 60
        E 0 90 62 60
        E 120 80 1f 00
        E 0 80 56 00
        E 0 80 62 00
        E 120 90 18 60
        E 0 90 1f 60
        E 0 90 3e 60
        E 0 90 48 60
        E 0 90 4a 60
        E 0 90 54 60
        E 0 90 56 60
        E 0 90 60 60
        E 0 90 62 60
        E 0 90 74 60
        E 120 80 18 00
        E 0 80 1f 00
        E 0 80 3e 00
        E 0 80 48 00
        E 0 80 4a 00
        E 0 80 54 00
        E 0 80 56 00
        E 0 80 60 00
        E 0 80 62 00
        E 120 90 1f 60
        E 0 90 56 60
        E 0 90 62 60
        E 120 80 1f 00
        E 0 80 56 00
        E 0 80 62 00
        E 120 90 1a 60
        E 0 90 1f 60
        E 0 90 3d 60
        E 0 90 3e 60
        E 0 90 49 60
        E 0 90 4a 60
        E 0 90 55 60
        E 0 90 56 60
        E 0 90 61 60
        E 0 90 62 60
        E 120 80 1a 00
        E 0 80 1f 00
        E 0 80 3d 00
        E 0 80 3e 00
        E 0 80 49 00
        E 0 80 4a 00
        E 0 80 55 00
        E 0 80 56 00
        E 0 80 61 00
        E 0 80 62 00
        E 120 90 18 60
        E 0 90 1f 60
        E 0 90 54 60
        E 0 90 56 60
        E 0 90 60 60
        E 0 90 62 60
        E 120 80 18 00
        E 0 80 1f 00
        E 0 80 54 00
        E 0 80 56 00
        E 0 80 60 00
        E 0 80 62 00
        E 120 90 18 60
        E 0 90 1f 60
        E 0 90 3e 60
        E 0 90 48 60
        E 0 90 4a 60
        E 0 90 54 60
        E 0 90 56 60
        E 0 90 60 60
        E 0 90 62 60
        E 120 80 18 00
        E 0 80 1f 00
        E 0 80 3e 00
        E 0 80 48 00
        E 0 80 4a 00
        E 0 80 54 00
        E 0 80 56 00
        E 0 80 60 00
        E 0 80 62 00
        E 120 90 1f 60
        E 0 90 56 60
        E 0 90 62 60
        E 120 80 1f 00
        E 0 80 56 00
        E 0 80 62 00
        E 120 90 1a 60
        E 0 90 1f 60
        E 0 90 3d 60
        E 0 90 3e 60
        E 0 90 49 60
        E 0 90 4a 60
        E 0 90 55 60
        E 0 90 56 60
        E 0 90 61 60
        E 0 90 62 60
        E 120 80 1a 00
        E 0 80 1f 00
        E 0 80 3d 00
        E 0 80 3e 00
        E 0 80 49 00
        E 0 80 4a 00
        E 0 80 55 00
        E 0 80 56 00
        E 0 80 61 00
        E 0 80 62 00
        E 120 90 1f 60
        E 0 90 56 60
        E 0 90 62 60
        E 120 80 1f 00
        E 0 80 56 00
        E 0 80 62 00
        E 120 90 18 60
        E 0 90 1f 60
        E 0 90 3e 60
        E 0 90 48 60
        E 0 90 4a 60
        E 0 90 54 60
        E 0 90 56 60
        E 0 90 60 60
        E 0 90 62 60
        E 120 80 18 00
        E 0 80 1f 00
        E 0 80 3e 00
        E 0 80 48 00
        E 0 80 4a 00
        E 0 80 54 00
        E 0 80 56 00
        E 0 80 60 00
        E 0 80 62 00
        E 120 90 1f 60
        E 0 90 56 60
        E 0 90 62 60
        E 120 80 1f 00
        E 0 80 56 00
        E 0 80 62 00
        E 120 90 1a 60
        E 0 90 1f 60
        E 0 90 3d 60
        E 0 90 3e 60
        E 0 90 49 60
        E 0 90 4a 60
        E 0 90 55 60
        E 0 90 56 60
        E 0 90 61 60
        E 0 90 62 60
        E 120 80 1a 00
        E 0 80 1f 00
        E 0 80 3d 00
        E 0 80 3e 00
        E 0 80 49 00
        E 0 80 4a 00
        E 0 80 55 00
        E 0 80 56 00
        E 0 80 61 00
        E 0 80 62 00
        E 120 90 18 60
        E 0 90 1f 60
        E 0 90 54 60
        E 0 90 56 60
        E 0 90 60 60
        E 0 90 62 60
        E 120 80 18 00
        E 0 80 1f 00
        E 0 80 54 00
        E 0 80 56 00
        E 0 80 60 00
        E 0 80 62 00
        E 120 90 18 60
        E 0 90 1f 60
        E 0 90 3e 60
        E 0 90 48 60
        E 0 90 4a 60
        E 0 90 54 60
        E 0 90 56 60
        E 0 90 60 60
        E 0 90 62 60
        E 120 80 18 00
        E 0 80 1f 00
        E 0 80 3e 00
        E 0 80 48 00
        E 0 80 4a 00
        E 0 80 54 00
        E 0 80 56 00
        E 0 80 60 00
        E 0 80 62 00
        E 120 90 1f 60
        E 0 90 56 60
        E 0 90 62 60
        E 120 80 1f 00
        E 0 80 56 00
        E 0 80 62 00
        E 120 90 1a 60
        E 0 90 1f 60
        E 0 90 3d 60
        E 0 90 3e 60
        E 0 90 49 60
        E 0 90 4a 60
        E 0 90 55 60
        E 0 90 56 60
        E 0 90 61 60
        E 0 90 62 60
        E 120 80 1a 00
        E 0 80 1f 00
        E 0 80 3d 00
        E 0 80 3e 00
        E 0 80 49 00
        E 0 80 4a 00
        E 0 80 55 00
        E 0 80 56 00
        E 0 80 61 00
        E 0 80 62 00
        E 120 90 1f 60
        E 0 90 56 60
        E 0 90 62 60
        E 120 80 1f 00
        E 0 80 56 00
        E 0 80 62 00
        E 120 80 74 00
        E 0 90 18 60
        E 0 90 1f 60
        E 0 90 3e 60
        E 0 90 48 60
        E 0 90 4a 60
        E 0 90 54 60
        E 0 90 56 60
        E 0 90 60 60
        E 0 90 62 60
        E 120 80 18 00
        E 0 80 1f 00
        E 0 80 3e 00
        E 0 80 48 00
        E 0 80 4a 00
        E 0 80 54 00
        E 0 80 56 00
        E 0 80 60 00
        E 0 80 62 00
        E 120 90 1f 60
        E 0 90 56 60
        E 0 90 62 60
        E 120 80 1f 00
        E 0 80 56 00
        E 0 80 62 00
        E 120 90 1a 60
        E 0 90 1f 60
        E 0 90 3d 60
        E 0 90 3e 60
        E 0 90 49 60
        E 0 90 4a 60
        E 0 90 55 60
        E 0 90 56 60
        E 0 90 61 60
        E 0 90 62 60
        E 120 80 1a 00
        E 0 80 1f 00
        E 0 80 3d 00
        E 0 80 3e 00
        E 0 80 49 00
        E 0 80 4a 00
        E 0 80 55 00
        E 0 80 56 00
        E 0 80 61 00
        E 0 80 62 00
        E 120 90 18 60
        E 0 90 1f 60
        E 0 90 54 60
        E 0 90 56 60
        E 0 90 60 60
        E 0 90 62 60
        E 120 80 18 00
        E 0 80 1f 00
        E 0 80 54 00
        E 0 80 56 00
        E 0 80 60 00
        E 0 80 62 00
        E 120 90 18 60
        E 0 90 1f 60
        E 0 90 3e 60
        E 0 90 48 60
        E 0 90 4a 60
        E 0 90 54 60
        E 0 90 56 60
        E 0 90 60 60
        E 0 90 62 60
        E 120 80 18 00
        E 0 80 1f 00
        E 0 80 3e 00
        E 0 80 48 00
        E 0 80 4a 00
        E 0 80 54 00
        E 0 80 56 00
        E 0 80 60 00
        E 0 80 62 00
        E 120 90 1f 60
        E 0 90 56 60
        E 0 90 62 60
        E 120 80 1f 00
        E 0 80 56 00
        E 0 80 62 00
        E 120 90 1a 60
        E 0 90 1f 60
        E 0 90 3d 60
        E 0 90 3e 60
        E 0 90 49 60
        E 0 90 4a 60
        E 0 90 55 60
        E 0 90 56 60
        E 0 90 61 60
        E 0 90 62 60
        E 120 80 1a 00
        E 0 80 1f 00
        E 0 80 3d 00
        E 0 80 3e 00
        E 0 80 49 00
        E 0 80 4a 00
        E 0 80 55 00
        E 0 80 56 00
        E 0 80 61 00
        E 0 80 62 00
        E 120 90 1f 60
        E 0 90 56 60
        E 0 90 62 60
        E 120 80 1f 00
        E 0 80 56 00
        E 0 80 62 00
        E 120 90 18 60
        E 0 90 1f 60
        E 0 90 3e 60
        E 0 90 48 60
        E 0 90 4a 60
        E 0 90 54 60
        E 0 90 56 60
        E 0 90 60 60
        E 0 90 62 60
        E 120 80 18 00
        E 0 80 1f 00
        E 0 80 3e 00
        E 0 80 48 00
        E 0 80 4a 00
        E 0 80 54 00
        E 0 80 56 00
        E 0 80 60 00
        E 0 80 62 00
        E 120 90 1f 60
        E 0 90 56 60
        E 0 90 62 60
        E 120 80 1f 00
        E 0 80 56 00
        E 0 80 62 00
        E 120 90 1a 60
        E 0 90 1f 60
        E 0 90 3d 60
        E 0 90 3e 60
        E 0 90 49 60
        E 0 90 4a 60
        E 0 90 55 60
        E 0 90 56 60
        E 0 90 61 60
        E 0 90 62 60
        E 120 80 1a 00
        E 0 80 1f 00
        E 0 80 3d 00
        E 0 80 3e 00
        E 0 80 49 00
        E 0 80 4a 00
        E 0 80 55 00
        E 0 80 56 00
        E 0 80 61 00
        E 0 80 62 00
        E 120 90 18 60
        E 0 90 1f 60
        E 0 90 54 60
        E 0 90 56 60
        E 0 90 60 60
        E 0 90 62 60
        E 120 80 18 00
        E 0 80 1f 00
        E 0 80 54 00
        E 0 80 56 00
        E 0 80 60 00
        E 0 80 62 00
        E 120 90 18 60
        E 0 90 1f 60
        E 0 90 3e 60
        E 0 90 48 60
        E 0 90 4a 60
        E 0 90 54 60
        E 0 90 56 60
        E 0 90 60 60
        E 0 90 62 60
        E 120 80 18 00
        E 0 80 1f 00
        E 0 80 3e 00
        E 0 80 48 00
        E 0 80 4a 00
        E 0 80 54 00
        E 0 80 56 00
        E 0 80 60 00
        E 0 80 62 00
        E 120 90 1f 60
        E 0 90 56 60
        E 0 90 62 60
        E 120 80 1f 00
        E 0 80 56 00
        E 0 80 62 00
        E 120 90 1a 60
        E 0 90 1f 60
        E 0 90 3d 60
        E 0 90 3e 60
        E 0 90 49 60
        E 0 90 4a 60
        E 0 90 55 60
        E 0 90 56 60
        E 0 90 61 60
        E 0 90 62 60
        E 120 80 1a 00
        E 0 80 1f 00
        E 0 80 3d 00
        E 0 80 3e 00
        E 0 80 49 00
        E 0 80 4a 00
        E 0 80 55 00
        E 0 80 56 00
        E 0 80 61 00
        E 0 80 62 00
        E 120 90 1f 60
        E 0 90 56 60
        E 0 90 62 60
        E 120 80 1f 00
        E 0 80 56 00
        E 0 80 62 00
        E 120 90 18 60
        E 0 90 1f 60
        E 0 90 3e 60
        E 0 90 48 60
        E 0 90 4a 60
        E 0 90 54 60
        E 0 90 56 60
        E 0 90 60 60
        E 0 90 62 60
        E 120 80 18 00
        E 0 80 1f 00
        E 0 80 3e 00
        E 0 80 48 00
        E 0 80 4a 00
        E 0 80 54 00
        E 0 80 56 00
        E 0 80 60 00
        E 0 80 62 00
        E 120 90 1f 60
        E 0 90 56 60
        E 0 90 62 60
        E 120 80 1f 00
        E 0 80 56 00
        E 0 80 62 00
        E 120 90 1a 60
        E 0 90 1f 60
        E 0 90 3d 60
        E 0 90 3e 60
        E 0 90 49 60
        E 0 90 4a 60
        E 0 90 55 60
        E 0 90 56 60
        E 0 90 61 60
        E 0 90 62 60
        E 120 80 1a 00
        E 0 80 1f 00
        E 0 80 3d 00
        E 0 80 3e 00
        E 0 80 49 00
        E 0 80 4a 00
        E 0 80 55 00
        E 0 80 56 00
        E 0 80 61 00
        E 0 80 62 00
        E 120 90 18 60
        E 0 90 1f 60
        E 0 90 54 60
        E 0 90 56 60
        E 0 90 60 60
        E 0 90 62 60
        E 120 80 18 00
        E 0 80 1f 00
        E 0 80 54 00
        E 0 80 56 00
        E 0 80 60 00
        E 0 80 62 00
        E 120 90 18 60
        E 0 90 1f 60
        E 0 90 3e 60
        E 0 90 48 60
        E 0 90 4a 60
        E 0 90 54 60
        E 0 90 56 60
        E 0 90 60 60
        E 0 90 62 60
        E 120 80 18 00
        E 0 80 1f 00
        E 0 80 3e 00
        E 0 80 48 00
        E 0 80 4a 00
        E 0 80 54 00
        E 0 80 56 00
        E 0 80 60 00
        E 0 80 62 00
        E 120 90 1f 60
        E 0 90 56 60
        E 0 90 62 60
        E 120 80 1f 00
        E 0 80 56 00
        E 0 80 62 00
        E 120 90 1a 60
        E 0 90 1f 60
        E 0 90 3d 60
        E 0 90 3e 60
        E 0 90 49 60
        E 0 90 4a 60
        E 0 90 55 60
        E 0 90 56 60
        E 0 90 61 60
        E 0 90 62 60
        E 120 80 1a 00
        E 0 80 1f 00
        E 0 80 3d 00
        E 0 80 3e 00
        E 0 80 49 00
        E 0 80 4a 00
        E 0 80 55 00
        E 0 80 56 00
        E 0 80 61 00
        E 0 80 62 00
        E 120 90 1f 60
        E 0 90 56 60
        E 0 90 62 60
        E 120 80 1f 00
        E 0 80 56 00
        E 0 80 62 00
        E 120 90 18 60
        E 0 90 1f 60
        E 0 90 3e 60
        E 0 90 48 60
        E 0 90 4a 60
        E 0 90 54 60
        E 0 90 56 60
        E 0 90 60 60
        E 0 90 62 60
        E 0 90 78 60
        E 0 90 79 60
        E 0 90 7a 60
        E 0 90 7b 60
        E 0 90 7c 60
        E 120 80 18 00
        E 0 80 1f 00
        E 0 80 3e 00
        E 0 80 48 00
        E 0 80 4a 00
        E 0 80 54 00
        E 0 80 56 00
        E 0 80 60 00
        E 0 80 62 00
        E 120 90 1f 60
        E 0 90 56 60
        E 0 90 62 60
        E 120 80 1f 00
        E 0 80 56 00
        E 0 80 62 00
        E 120 90 1a 60
        E 0 90 1f 60
        E 0 90 3d 60
        E 0 90 3e 60
        E 0 90 49 60
        E 0 90 4a 60
        E 0 90 55 60
        E 0 90 56 60
        E 0 90 61 60
        E 0 90 62 60
        E 120 80 1a 00
        E 0 80 1f 00
        E 0 80 3d 00
        E 0 80 3e 00
        E 0 80 49 00
        E 0 80 4a 00
        E 0 80 55 00
        E 0 80 56 00
        E 0 80 61 00
        E 0 80 62 00
        E 120 90 18 60
        E 0 90 1f 60
        E 0 90 54 60
        E 0 90 56 60
        E 0 90 60 60
        E 0 90 62 60
        E 120 80 18 00
        E 0 80 1f 00
        E 0 80 54 00
        E 0 80 56 00
        E 0 80 60 00
        E 0 80 62 00
        E 120 90 18 60
        E 0 90 1f 60
        E 0 90 3e 60
        E 0 90 48 60
        E 0 90 4a 60
        E 0 90 54 60
        E 0 90 56 60
        E 0 90 60 60
        E 0 90 62 60
        E 120 80 18 00
        E 0 80 1f 00
        E 0 80 3e 00
        E 0 80 48 00
        E 0 80 4a 00
        E 0 80 54 00
        E 0 80 56 00
        E 0 80 60 00
        E 0 80 62 00
        E 120 90 1f 60
        E 0 90 56 60
        E 0 90 62 60
        E 120 80 1f 00
        E 0 80 56 00
        E 0 80 62 00
        E 120 90 1a 60
        E 0 90 1f 60
        E 0 90 3d 60
        E 0 90 3e 60
        E 0 90 49 60
        E 0 90 4a 60
        E 0 90 55 60
        E 0 90 56 60
        E 0 90 61 60
        E 0 90 62 60
        E 120 80 1a 00
        E 0 80 1f 00
        E 0 80 3d 00
        E 0 80 3e 00
        E 0 80 49 00
        E 0 80 4a 00
        E 0 80 55 00
        E 0 80 56 00
        E 0 80 61 00
        E 0 80 62 00
        E 120 90 19 60
        E 0 90 1f 60
        E 0 90 57 60
        E 0 90 63 60
        E 120 80 1f 00
        E 0 80 57 00
        E 0 80 63 00
        E 120 80 78 00
        E 0 80 79 00
        E 0 80 7a 00
        E 0 80 7b 00
        E 0 80 7c 00
        E 0 90 18 60
        E 0 90 1f 60
        E 0 90 3f 60
        E 0 90 48 60
        E 0 90 4b 60
        E 0 90 54 60
        E 0 90 57 60
        E 0 90 60 60
        E 0 90 63 60
        E 120 80 18 00
        E 0 80 1f 00
        E 0 80 3f 00
        E 0 80 48 00
        E 0 80 4b 00
        E 0 80 54 00
        E 0 80 57 00
        E 0 80 60 00
        E 0 80 63 00
        E 120 80 19 00
        E 0 90 1f 60
        E 0 90 56 60
        E 0 90 62 60
        E 120 80 1f 00
        E 0 80 56 00
        E 0 80 62 00
        E 120 90 1a 60
        E 0 90 1f 60
        E 0 90 3d 60
        E 0 90 3e 60
        E 0 90 49 60
        E 0 90 4a 60
        E 0 90 55 60
        E 0 90 56 60
        E 0 90 61 60
        E 0 90 62 60
        E 120 80 1a 00
        E 0 80 1f 00
        E 0 80 3d 00
        E 0 80 3e 00
        E 0 80 49 00
        E 0 80 4a 00
        E 0 80 55 00
        E 0 80 56 00
        E 0 80 61 00
        E 0 80 62 00
        E 120 90 18 60
        E 0 90 1f 60
        E 0 90 54 60
        E 0 90 56 60
        E 0 90 60 60
        E 0 90 62 60
        E 120 80 18 00
        E 0 80 1f 00
        E 0 80 54 00
        E 0 80 56 00
        E 0 80 60 00
        E 0 80 62 00
        E 120 90 18 60
        E 0 90 1f 60
        E 0 90 3e 60
        E 0 90 48 60
        E 0 90 4a 60
        E 0 90 54 60
        E 0 90 56 60
        E 0 90 60 60
        E 0 90 62 60
        E 120 80 18 00
        E 0 80 1f 00
        E 0 80 3e 00
        E 0 80 48 00
        E 0 80 4a 00
        E 0 80 54 00
        E 0 80 56 00
        E 0 80 60 00
        E 0 80 62 00
        E 120 90 1f 60
        E 0 90 56 60
        E 0 90 62 60
        E 120 80 1f 00
        E 0 80 56 00
        E 0 80 62 00
        E 120 90 1a 60
        E 0 90 1f 60
        E 0 90 3d 60
        E 0 90 3e 60
        E 0 90 49 60
        E 0 90 4a 60
        E 0 90 55 60
        E 0 90 56 60
        E 0 90 61 60
        E 0 90 62 60
        E 120 80 1a 00
        E 0 80 1f 00
        E 0 80 3d 00
        E 0 80 3e 00
        E 0 80 49 00
        E 0 80 4a 00
        E 0 80 55 00
        E 0 80 56 00
        E 0 80 61 00
        E 0 80 62 00
        E 120 90 1f 60
        E 0 90 56 60
        E 0 90 62 60
        E 120 80 1f 00
        E 0 80 56 00
        E 0 80 62 00
        E 120 90 18 60
        E 0 90 1f 60
        E 0 90 3e 60
        E 0 90 48 60
        E 0 90 4a 60
        E 0 90 54 60
        E 0 90 56 60
        E 0 90 60 60
        E 0 90 62 60
        E 120 80 18 00
        E 0 80 1f 00
        E 0 80 3e 00
        E 0 80 48 00
        E 0 80 4a 00
        E 0 80 54 00
        E 0 80 56 00
        E 0 80 60 00
        E 0 80 62 00
        E 120 90 1f 60
        E 0 90 56 60
        E 0 90 62 60
        E 120 80 1f 00
        E 0 80 56 00
        E 0 80 62 00
        E 120 90 1a 60
        E 0 90 1f 60
        E 0 90 3d 60
        E 0 90 3e 60
        E 0 90 49 60
        E 0 90 4a 60
        E 0 90 55 60
        E 0 90 56 60
        E 0 90 61 60
        E 0 90 62 60
        E 120 80 1a 00
        E 0 80 1f 00
        E 0 80 3d 00
        E 0 80 3e 00
        E 0 80 49 00
        E 0 80 4a 00
        E 0 80 55 00
        E 0 80 56 00
        E 0 80 61 00
        E 0 80 62 00
        E 120 90 18 60
        E 0 90 1f 60
        E 0 90 54 60
        E 0 90 56 60
        E 0 90 60 60
        E 0 90 62 60
        E 120 80 18 00
        E 0 80 1f 00
        E 0 80 54 00
        E 0 80 56 00
        E 0 80 60 00
        E 0 80 62 00
        E 120 90 18 60
        E 0 90 1f 60
        E 0 90 3e 60
        E 0 90 48 60
        E 0 90 4a 60
        E 0 90 54 60
        E 0 90 56 60
        E 0 90 60 60
        E 0 90 62 60
        E 120 80 18 00
        E 0 80 1f 00
        E 0 80 3e 00
        E 0 80 48 00
        E 0 80 4a 00
        E 0 80 54 00
        E 0 80 56 00
        E 0 80 60 00
        E 0 80 62 00
        E 120 90 1f 60
        E 0 90 56 60
        E 0 90 62 60
        E 120 80 1f 00
        E 0 80 56 00
        E 0 80 62 00
        E 120 90 1a 60
        E 0 90 1f 60
        E 0 90 3d 60
        E 0 90 3e 60
        E 0 90 49 60
        E 0 90 4a 60
        E 0 90 55 60
        E 0 90 56 60
        E 0 90 61 60
        E 0 90 62 60
        E 120 80 1a 00
        E 0 80 1f 00
        E 0 80 3d 00
        E 0 80 3e 00
        E 0 80 49 00
        E 0 80 4a 00
        E 0 80 55 00
        E 0 80 56 00
        E 0 80 61 00
        E 0 80 62 00
        E 120 90 1f 60
        E 0 90 56 60
        E 0 90 62 60
        E 120 80 1f 00
        E 0 80 56 00
        E 0 80 62 00
        E 120 90 18 60
        E 0 90 1f 60
        E 0 90 3e 60
        E 0 90 48 60
        E 0 90 4a 60
        E 0 90 54 60
        E 0 90 56 60
        E 0 90 60 60
        E 0 90 62 60
        E 0 90 74 60
        E 120 80 18 00
        E 0 80 1f 00
        E 0 80 3e 00
        E 0 80 48 00
        E 0 80 4a 00
        E 0 80 54 00
        E 0 80 56 00
        E 0 80 60 00
        E 0 80 62 00
        E 120 90 1f 60
        E 0 90 56 60
        E 0 90 62 60
        E 120 80 1f 00
        E 0 80 56 00
        E 0 80 62 00
        E 120 90 1a 60
        E 0 90 1f 60
        E 0 90 3d 60
        E 0 90 3e 60
        E 0 90 49 60
        E 0 90 4a 60
        E 0 90 55 60
        E 0 90 56 60
        E 0 90 61 60
        E 0 90 62 60
        E 120 80 1a 00
        E 0 80 1f 00
        E 0 80 3d 00
        E 0 80 3e 00
        E 0 80 49 00
        E 0 80 4a 00
        E 0 80 55 00
        E 0 80 56 00
        E 0 80 61 00
        E 0 80 62 00
        E 120 90 18 60
        E 0 90 1f 60
        E 0 90 54 60
        E 0 90 56 60
        E 0 90 60 60
        E 0 90 62 60
        E 120 80 18 00
        E 0 80 1f 00
        E 0 80 54 00
        E 0 80 56 00
        E 0 80 60 00
        E 0 80 62 00
        E 120 90 18 60
        E 0 90 1f 60
        E 0 90 3e 60
        E 0 90 48 60
        E 0 90 4a 60
        E 0 90 54 60
        E 0 90 56 60
        E 0 90 60 60
        E 0 90 62 60
        E 120 80 18 00
        E 0 80 1f 00
        E 0 80 3e 00
        E 0 80 48 00
        E 0 80 4a 00
        E 0 80 54 00
        E 0 80 56 00
        E 0 80 60 00
        E 0 80 62 00
        E 120 90 1f 60
        E 0 90 56 60
        E 0 90 62 60
        E 120 80 1f 00
        E 0 80 56 00
        E 0 80 62 00
        E 120 90 1a 60
        E 0 90 1f 60
        E 0 90 3d 60
        E 0 90 3e 60
        E 0 90 49 60
        E 0 90 4a 60
        E 0 90 55 60
        E 0 90 56 60
        E 0 90 61 60
        E 0 90 62 60
        E 120 80 1a 00
        E 0 80 1f 00
        E 0 80 3d 00
        E 0 80 3e 00
        E 0 80 49 00
        E 0 80 4a 00
        E 0 80 55 00
        E 0 80 56 00
        E 0 80 61 00
        E 0 80 62 00
        E 120 90 1f 60
        E 0 90 56 60
        E 0 90 62 60
        E 120 80 1f 00
        E 0 80 56 00
        E 0 80 62 00
        E 120 90 18 60
        E 0 90 1f 60
        E 0 90 3e 60
        E 0 90 48 60
        E 0 90 4a 60
        E 0 90 54 60
        E 0 90 56 60
        E 0 90 60 60
        E 0 90 62 60
        E 120 80 18 00
        E 0 80 1f 00
        E 0 80 3e 00
        E 0 80 48 00
        E 0 80 4a 00
        E 0 80 54 00
        E 0 80 56 00
        E 0 80 60 00
        E 0 80 62 00
        E 120 80 74 00
        E 1680 90 78 60
        E 0 90 79 60
        E 0 90 7a 60
        E 0 90 7b 60
        E 0 90 7c 60
        <X 1920 0
          /wFbcGxheV0=
        >
        E 0 80 78 00
        E 0 80 79 00
        E 0 80 7a 00
        E 0 80 7b 00
        E 0 80 7c 00
        E 0 90 18 60
        E 0 90 2a 60
        E 0 90 3f 60
        E 0 90 48 60
        E 0 90 4b 60
        E 0 90 54 60
        E 0 90 57 60
        E 0 90 60 60
        E 0 90 63 60
        E 120 80 18 00
        E 0 80 2a 00
        E 0 80 3f 00
        E 0 80 48 00
        E 0 80 4b 00
        E 0 80 54 00
        E 0 80 57 00
        E 0 80 60 00
        E 0 80 63 00
        E 360 90 1a 60
        E 0 90 3d 60
        E 0 90 49 60
        E 0 90 55 60
        E 0 90 61 60
        E 120 80 1a 00
        E 0 80 3d 00
        E 0 80 49 00
        E 0 80 55 00
        E 0 80 61 00
        E 120 90 18 60
        E 0 90 54 60
        E 0 90 60 60
        E 120 80 18 00
        E 0 80 54 00
        E 0 80 60 00
        E 120 90 18 60
        E 0 90 3c 60
        E 0 90 48 60
        E 0 90 54 60
        E 0 90 60 60
        E 120 80 18 00
        E 0 80 3c 00
        E 0 80 48 00
        E 0 80 54 00
        E 0 80 60 00
        E 360 90 1a 60
        E 0 90 3d 60
        E 0 90 49 60
        E 0 90 55 60
        E 0 90 61 60
        E 120 80 1a 00
        E 0 80 3d 00
        E 0 80 49 00
        E 0 80 55 00
        E 0 80 61 00
        E 360 90 18 60
        E 0 90 3c 60
        E 0 90 48 60
        E 0 90 54 60
        E 0 90 60 60
        E 120 80 18 00
        E 0 80 3c 00
        E 0 80 48 00
        E 0 80 54 00
        E 0 80 60 00
        E 360 90 1a 60
        E 0 90 3d 60
        E 0 90 49 60
        E 0 90 55 60
        E 0 90 61 60
        E 120 80 1a 00
        E 0 80 3d 00
        E 0 80 49 00
        E 0 80 55 00
        E 0 80 61 00
        E 120 90 18 60
        E 0 90 54 60
        E 0 90 60 60
        E 120 80 18 00
        E 0 80 54 00
        E 0 80 60 00
        E 120 90 18 60
        E 0 90 3c 60
        E 0 90 48 60
        E 0 90 54 60
        E 0 90 60 60
        E 120 80 18 00
        E 0 80 3c 00
        E 0 80 48 00
        E 0 80 54 00
        E 0 80 60 00
        E 840 90 18 60
        E 0 90 3c 60
        E 0 90 48 60
        E 0 90 54 60
        E 0 90 60 60
        E 120 80 18 00
        E 0 80 3c 00
        E 0 80 48 00
        E 0 80 54 00
        E 0 80 60 00
        E 360 90 1a 60
        E 0 90 3d 60
        E 0 90 49 60
        E 0 90 55 60
        E 0 90 61 60
        E 120 80 1a 00
        E 0 80 3d 00
        E 0 80 49 00
        E 0 80 55 00
        E 0 80 61 00
        E 120 90 18 60
        E 0 90 54 60
        E 0 90 60 60
        E 120 80 18 00
        E 0 80 54 00
        E 0 80 60 00
        E 120 90 18 60
        E 0 90 3c 60
        E 0 90 48 60
        E 0 90 54 60
        E 0 90 60 60
        E 120 80 18 00
        E 0 80 3c 00
        E 0 80 48 00
        E 0 80 54 00
        E 0 80 60 00
        E 360 90 1a 60
        E 0 90 3d 60
        E 0 90 49 60
        E 0 90 55 60
        E 0 90 61 60
        E 120 80 1a 00
        E 0 80 3d 00
        E 0 80 49 00
        E 0 80 55 00
        E 0 80 61 00
        E 360 90 18 60
        E 0 90 3c 60
        E 0 90 48 60
        E 0 90 54 60
        E 0 90 60 60
        E 0 90 78 60
        E 0 90 79 60
        E 0 90 7a 60
        E 0 90 7b 60
        E 0 90 7c 60
        E 120 80 18 00
        E 0 80 3c 00
        E 0 80 48 00
        E 0 80 54 00
        E 0 80 60 00
        E 360 90 1a 60
        E 0 90 3d 60
        E 0 90 49 60
        E 0 90 55 60
        E 0 90 61 60
        E 120 80 1a 00
        E 0 80 3d 00
        E 0 80 49 00
        E 0 80 55 00
        E 0 80 61 00
        E 120 90 18 60
        E 0 90 54 60
        E 0 90 60 60
        E 120 80 18 00
        E 0 80 54 00
        E 0 80 60 00
        E 120 90 18 60
        E 0 90 3c 60
        E 0 90 48 60
        E 0 90 54 60
        E 0 90 60 60
        E 120 80 18 00
        E 0 80 3c 00
        E 0 80 48 00
        E 0 80 54 00
        E 0 80 60 00
        E 840 80 78 00
        E 0 80 79 00
        E 0 80 7a 00
        E 0 80 7b 00
        E 0 80 7c 00
        E 0 90 18 60
        E 0 90 3c 60
        E 0 90 48 60
        E 0 90 54 60
        E 0 90 60 60
        E 120 80 18 00
        E 0 80 3c 00
        E 0 80 48 00
        E 0 80 54 00
        E 0 80 60 00
        E 360 90 1a 60
        E 0 90 3d 60
        E 0 90 49 60
        E 0 90 55 60
        E 0 90 61 60
        E 120 80 1a 00
        E 0 80 3d 00
        E 0 80 49 00
        E 0 80 55 00
        E 0 80 61 00
        E 120 90 18 60
        E 0 90 54 60
        E 0 90 60 60
        E 120 80 18 00
        E 0 80 54 00
        E 0 80 60 00
        E 120 90 18 60
        E 0 90 3c 60
        E 0 90 48 60
        E 0 90 54 60
        E 0 90 60 60
        E 120 80 18 00
        E 0 80 3c 00
        E 0 80 48 00
        E 0 80 54 00
        E 0 80 60 00
        E 360 90 1a 60
        E 0 90 3d 60
        E 0 90 49 60
        E 0 90 55 60
        E 0 90 61 60
        E 120 80 1a 00
        E 0 80 3d 00
        E 0 80 49 00
        E 0 80 55 00
        E 0 80 61 00
        E 360 90 18 60
        E 0 90 3c 60
        E 0 90 48 60
        E 0 90 54 60
        E 0 90 60 60
        E 120 80 18 00
        E 0 80 3c 00
        E 0 80 48 00
        E 0 80 54 00
        E 0 80 60 00
        E 360 90 1a 60
        E 0 90 3d 60
        E 0 90 49 60
        E 0 90 55 60
        E 0 90 61 60
        E 120 80 1a 00
        E 0 80 3d 00
        E 0 80 49 00
        E 0 80 55 00
        E 0 80 61 00
        E 120 90 18 60
        E 0 90 54 60
        E 0 90 60 60
        E 120 80 18 00
        E 0 80 54 00
        E 0 80 60 00
        E 120 90 18 60
        E 0 90 3c 60
        E 0 90 48 60
        E 0 90 54 60
        E 0 90 60 60
        E 120 80 18 00
        E 0 80 3c 00
        E 0 80 48 00
        E 0 80 54 00
        E 0 80 60 00
        E 840 90 18 60
        E 0 90 3c 60
        E 0 90 48 60
        E 0 90 54 60
        E 0 90 60 60
        E 120 80 18 00
        E 0 80 3c 00
        E 0 80 48 00
        E 0 80 54 00
        E 0 80 60 00
        E 360 90 1a 60
        E 0 90 3d 60
        E 0 90 49 60
        E 0 90 55 60
        E 0 90 61 60
        E 120 80 1a 00
        E 0 80 3d 00
        E 0 80 49 00
        E 0 80 55 00
        E 0 80 61 00
        E 120 90 18 60
        E 0 90 54 60
        E 0 90 60 60
        E 120 80 18 00
        E 0 80 54 00
        E 0 80 60 00
        E 120 90 18 60
        E 0 90 3c 60
        E 0 90 48 60
        E 0 90 54 60
        E 0 90 60 60
        E 120 80 18 00
        E 0 80 3c 00
        E 0 80 48 00
        E 0 80 54 00
        E 0 80 60 00
        E 360 90 1a 60
        E 0 90 3d 60
        E 0 90 49 60
        E 0 90 55 60
        E 0 90 61 60
        E 120 80 1a 00
        E 0 80 3d 00
        E 0 80 49 00
        E 0 80 55 00
        E 0 80 61 00
        E 360 90 18 60
        E 0 90 3c 60
        E 0 90 48 60
        E 0 90 54 60
        E 0 90 60 60
        E 0 90 74 60
        E 120 80 18 00
        E 0 80 3c 00
        E 0 80 48 00
        E 0 80 54 00
        E 0 80 60 00
        E 360 90 1a 60
        E 0 90 3d 60
        E 0 90 49 60
        E 0 90 55 60
        E 0 90 61 60
        E 120 80 1a 00
        E 0 80 3d 00
        E 0 80 49 00
        E 0 80 55 00
        E 0 80 61 00
        E 120 90 18 60
        E 0 90 54 60
        E 0 90 60 60
        E 120 80 18 00
        E 0 80 54 00
        E 0 80 60 00
        E 120 90 18 60
        E 0 90 3c 60
        E 0 90 48 60
        E 0 90 54 60
        E 0 90 60 60
        E 120 80 18 00
        E 0 80 3c 00
        E 0 80 48 00
        E 0 80 54 00
        E 0 80 60 00
        E 840 90 18 60
        E 0 90 2a 60
        E 0 90 3f 60
        E 0 90 48 60
        E 0 90 4b 60
        E 0 90 54 60
        E 0 90 57 60
        E 0 90 60 60
        E 0 90 63 60
        E 120 80 74 00
        E 0 80 18 00
        E 0 80 2a 00
        E 0 80 3f 00
        E 0 80 48 00
        E 0 80 4b 00
        E 0 80 54 00
        E 0 80 57 00
        E 0 80 60 00
        E 0 80 63 00
        E 360 90 1a 60
        E 0 90 3d 60
        E 0 90 49 60
        E 0 90 55 60
        E 0 90 61 60
        E 120 80 1a 00
        E 0 80 3d 00
        E 0 80 49 00
        E 0 80 55 00
        E 0 80 61 00
        E 120 90 18 60
        E 0 90 54 60
        E 0 90 60 60
        E 120 80 18 00
        E 0 80 54 00
        E 0 80 60 00
        E 120 90 18 60
        E 0 90 3c 60
        E 0 90 48 60
        E 0 90 54 60
        E 0 90 60 60
        E 120 80 18 00
        E 0 80 3c 00
        E 0 80 48 00
        E 0 80 54 00
        E 0 80 60 00
        E 360 90 1a 60
        E 0 90 3d 60
        E 0 90 49 60
        E 0 90 55 60
        E 0 90 61 60
        E 120 80 1a 00
        E 0 80 3d 00
        E 0 80 49 00
        E 0 80 55 00
        E 0 80 61 00
        E 360 90 18 60
        E 0 90 3c 60
        E 0 90 48 60
        E 0 90 54 60
        E 0 90 60 60
        E 120 80 18 00
        E 0 80 3c 00
        E 0 80 48 00
        E 0 80 54 00
        E 0 80 60 00
        E 360 90 1a 60
        E 0 90 3d 60
        E 0 90 49 60
        E 0 90 55 60
        E 0 90 61 60
        E 120 80 1a 00
        E 0 80 3d 00
        E 0 80 49 00
        E 0 80 55 00
        E 0 80 61 00
        E 120 90 18 60
        E 0 90 54 60
        E 0 90 60 60
        E 120 80 18 00
        E 0 80 54 00
        E 0 80 60 00
        E 120 90 18 60
        E 0 90 3c 60
        E 0 90 48 60
        E 0 90 54 60
        E 0 90 60 60
        E 120 80 18 00
        E 0 80 3c 00
        E 0 80 48 00
        E 0 80 54 00
        E 0 80 60 00
        E 360 90 1a 60
        E 0 90 3d 60
        E 0 90 49 60
        E 0 90 55 60
        E 0 90 61 60
        E 120 80 1a 00
        E 0 80 3d 00
        E 0 80 49 00
        E 0 80 55 00
        E 0 80 61 00
        E 360 90 18 60
        E 0 90 3c 60
        E 0 90 48 60
        E 0 90 54 60
        E 0 90 60 60
        E 120 80 18 00
        E 0 80 3c 00
        E 0 80 48 00
        E 0 80 54 00
        E 0 80 60 00
        E 360 90 1a 60
        E 0 90 3d 60
        E 0 90 49 60
        E 0 90 55 60
        E 0 90 61 60
        E 120 80 1a 00
        E 0 80 3d 00
        E 0 80 49 00
        E 0 80 55 00
        E 0 80 61 00
        E 120 90 18 60
        E 0 90 54 60
        E 0 90 60 60
        E 120 80 18 00
        E 0 80 54 00
        E 0 80 60 00
        E 120 90 18 60
        E 0 90 3c 60
        E 0 90 48 60
        E 0 90 54 60
        E 0 90 60 60
        E 120 80 18 00
        E 0 80 3c 00
        E 0 80 48 00
        E 0 80 54 00
        E 0 80 60 00
        E 360 90 1a 60
        E 0 90 3d 60
        E 0 90 49 60
        E 0 90 55 60
        E 0 90 61 60
        E 120 80 1a 00
        E 0 80 3d 00
        E 0 80 49 00
        E 0 80 55 00
        E 0 80 61 00
        E 360 90 18 60
        E 0 90 3c 60
        E 0 90 48 60
        E 0 90 54 60
        E 0 90 60 60
        E 0 90 78 60
        E 0 90 79 60
        E 0 90 7a 60
        E 0 90 7b 60
        E 0 90 7c 60
        E 120 80 18 00
        E 0 80 3c 00
        E 0 80 48 00
        E 0 80 54 00
        E 0 80 60 00
        E 360 90 1a 60
        E 0 90 3d 60
        E 0 90 49 60
        E 0 90 55 60
        E 0 90 61 60
        E 120 80 1a 00
        E 0 80 3d 00
        E 0 80 49 00
        E 0 80 55 00
        E 0 80 61 00
        E 120 90 18 60
        E 0 90 54 60
        E 0 90 60 60
        E 120 80 18 00
        E 0 80 54 00
        E 0 80 60 00
        E 120 90 18 60
        E 0 90 3c 60
        E 0 90 48 60
        E 0 90 54 60
        E 0 90 60 60
        E 120 80 18 00
        E 0 80 3c 00
        E 0 80 48 00
        E 0 80 54 00
        E 0 80 60 00
        E 120 90 18 60
        E 0 90 19 60
        E 0 90 1e 60
        E 0 90 54 60
        E 0 90 56 60
        E 0 90 60 60
        E 0 90 62 60
        E 120 80 18 00
        E 0 80 1e 00
        E 0 80 54 00
        E 0 80 56 00
        E 0 80 60 00
        E 0 80 62 00
        E 120 80 19 00
        E 0 90 1a 60
        E 0 90 3d 60
        E 0 90 49 60
        E 0 90 55 60
        E 0 90 61 60
        E 120 80 1a 00
        E 0 80 3d 00
        E 0 80 49 00
        E 0 80 55 00
        E 0 80 61 00
        E 120 90 18 60
        E 0 90 54 60
        E 0 90 60 60
        E 120 80 18 00
        E 0 80 54 00
        E 0 80 60 00
        E 120 80 78 00
        E 0 80 79 00
        E 0 80 7a 00
        E 0 80 7b 00
        E 0 80 7c 00
        E 0 90 18 60
        E 0 90 3c 60
        E 0 90 48 60
        E 0 90 54 60
        E 0 90 60 60
        E 120 80 18 00
        E 0 80 3c 00
        E 0 80 48 00
        E 0 80 54 00
        E 0 80 60 00
        E 360 90 1a 60
        E 0 90 3d 60
        E 0 90 49 60
        E 0 90 55 60
        E 0 90 61 60
        E 120 80 1a 00
        E 0 80 3d 00
        E 0 80 49 00
        E 0 80 55 00
        E 0 80 61 00
        E 120 90 18 60
        E 0 90 54 60
        E 0 90 60 60
        E 120 80 18 00
        E 0 80 54 00
        E 0 80 60 00
        E 120 90 18 60
        E 0 90 3c 60
        E 0 90 48 60
        E 0 90 54 60
        E 0 90 60 60
        E 120 80 18 00
        E 0 80 3c 00
        E 0 80 48 00
        E 0 80 54 00
        E 0 80 60 00
        E 360 90 1a 60
        E 0 90 3d 60
        E 0 90 49 60
        E 0 90 55 60
        E 0 90 61 60
        E 120 80 1a 00
        E 0 80 3d 00
        E 0 80 49 00
        E 0 80 55 00
        E 0 80 61 00
        E 360 90 18 60
        E 0 90 3c 60
        E 0 90 48 60
        E 0 90 54 60
        E 0 90 60 60
        E 120 80 18 00
        E 0 80 3c 00
        E 0 80 48 00
        E 0 80 54 00
        E 0 80 60 00
        E 360 90 1a 60
        E 0 90 3d 60
        E 0 90 49 60
        E 0 90 55 60
        E 0 90 61 60
        E 120 80 1a 00
        E 0 80 3d 00
        E 0 80 49 00
        E 0 80 55 00
        E 0 80 61 00
        E 120 90 18 60
        E 0 90 54 60
        E 0 90 60 60
        E 120 80 18 00
        E 0 80 54 00
        E 0 80 60 00
        E 120 90 18 60
        E 0 90 3c 60
        E 0 90 48 60
        E 0 90 54 60
        E 0 90 60 60
        E 120 80 18 00
        E 0 80 3c 00
        E 0 80 48 00
        E 0 80 54 00
        E 0 80 60 00
        E 360 90 1a 60
        E 0 90 3d 60
        E 0 90 49 60
        E 0 90 55 60
        E 0 90 61 60
        E 120 80 1a 00
        E 0 80 3d 00
        E 0 80 49 00
        E 0 80 55 00
        E 0 80 61 00
        E 360 90 18 60
        E 0 90 3c 60
        E 0 90 48 60
        E 0 90 54 60
        E 0 90 60 60
        E 0 90 74 60
        E 120 80 18 00
        E 0 80 3c 00
        E 0 80 48 00
        E 0 80 54 00
        E 0 80 60 00
        E 360 90 1a 60
        E 0 90 3d 60
        E 0 90 49 60
        E 0 90 55 60
        E 0 90 61 60
        E 120 80 1a 00
        E 0 80 3d 00
        E 0 80 49 00
        E 0 80 55 00
        E 0 80 61 00
        E 120 90 18 60
        E 0 90 54 60
        E 0 90 60 60
        E 120 80 18 00
        E 0 80 54 00
        E 0 80 60 00
        E 120 90 18 60
        E 0 90 3c 60
        E 0 90 48 60
        E 0 90 54 60
        E 0 90 60 60
        E 120 80 18 00
        E 0 80 3c 00
        E 0 80 48 00
        E 0 80 54 00
        E 0 80 60 00
        E 360 90 1a 60
        E 0 90 3d 60
        E 0 90 49 60
        E 0 90 55 60
        E 0 90 61 60
        E 120 80 1a 00
        E 0 80 3d 00
        E 0 80 49 00
        E 0 80 55 00
        E 0 80 61 00
        E 360 90 18 60
        E 0 90 3c 60
        E 0 90 48 60
        E 0 90 54 60
        E 0 90 60 60
        E 120 80 18 00
        E 0 80 3c 00
        E 0 80 48 00
        E 0 80 54 00
        E 0 80 60 00
        E 360 90 1a 60
        E 0 90 3d 60
        E 0 90 49 60
        E 0 90 55 60
        E 0 90 61 60
        E 120 80 1a 00
        E 0 80 3d 00
        E 0 80 49 00
        E 0 80 55 00
        E 0 80 61 00
        E 120 90 18 60
        E 0 90 54 60
        E 0 90 60 60
        E 120 80 18 00
        E 0 80 54 00
        E 0 80 60 00
        E 120 90 18 60
        E 0 90 3c 60
        E 0 90 48 60
        E 0 90 54 60
        E 0 90 60 60
        E 120 80 18 00
        E 0 80 3c 00
        E 0 80 48 00
        E 0 80 54 00
        E 0 80 60 00
        E 120 90 18 60
        E 0 90 19 60
        E 0 90 1e 60
        E 0 90 54 60
        E 0 90 56 60
        E 0 90 60 60
        E 0 90 62 60
        E 120 80 18 00
        E 0 80 1e 00
        E 0 80 54 00
        E 0 80 56 00
        E 0 80 60 00
        E 0 80 62 00
        E 120 80 19 00
        E 0 90 1a 60
        E 0 90 3d 60
        E 0 90 49 60
        E 0 90 55 60
        E 0 90 61 60
        E 120 80 1a 00
        E 0 80 3d 00
        E 0 80 49 00
        E 0 80 55 00
        E 0 80 61 00
        E 120 90 18 60
        E 0 90 54 60
        E 0 90 60 60
        E 120 80 18 00
        E 0 80 54 00
        E 0 80 60 00
        E 120 90 18 60
        E 0 90 2a 60
        E 0 90 3f 60
        E 0 90 48 60
        E 0 90 4b 60
        E 0 90 54 60
        E 0 90 57 60
        E 0 90 60 60
        E 0 90 63 60
        E 120 80 74 00
        E 0 80 18 00
        E 0 80 2a 00
        E 0 80 3f 00
        E 0 80 48 00
        E 0 80 4b 00
        E 0 80 54 00
        E 0 80 57 00
        E 0 80 60 00
        E 0 80 63 00
        E 3720 90 18 60
        E 0 90 3c 60
        E 0 90 48 60
        E 0 90 54 60
        E 0 90 60 60
        E 120 80 18 00
        E 0 80 3c 00
        E 0 80 48 00
        E 0 80 54 00
        E 0 80 60 00
        E 1800 90 78 60
        E 0 90 79 60
        E 0 90 7a 60
        E 0 90 7b 60
        E 0 90 7c 60
        E 1440 90 1a 60
        E 0 90 3d 60
        E 0 90 49 60
        E 0 90 55 60
        E 0 90 61 60
        E 120 80 1a 00
        E 0 80 3d 00
        E 0 80 49 00
        E 0 80 55 00
        E 0 80 61 00
        <X 360 0
          /wFbaW50ZW5zZV0=
        >
        E 0 80 78 00
        E 0 80 79 00
        E 0 80 7a 00
        E 0 80 7b 00
        E 0 80 7c 00
        E 0 90 18 60
        E 0 90 1f 60
        E 0 90 3e 60
        E 0 90 48 60
        E 0 90 4a 60
        E 0 90 54 60
        E 0 90 56 60
        E 0 90 60 60
        E 0 90 62 60
        E 120 80 18 00
        E 0 80 1f 00
        E 0 80 3e 00
        E 0 80 48 00
        E 0 80 4a 00
        E 0 80 54 00
        E 0 80 56 00
        E 0 80 60 00
        E 0 80 62 00
        E 120 90 1f 60
        E 0 90 56 60
        E 0 90 62 60
        E 120 80 1f 00
        E 0 80 56 00
        E 0 80 62 00
        E 120 90 1a 60
        E 0 90 1f 60
        E 0 90 3d 60
        E 0 90 3e 60
        E 0 90 49 60
        E 0 90 4a 60
        E 0 90 55 60
        E 0 90 56 60
        E 0 90 61 60
        E 0 90 62 60
        E 120 80 1a 00
        E 0 80 1f 00
        E 0 80 3d 00
        E 0 80 3e 00
        E 0 80 49 00
        E 0 80 4a 00
        E 0 80 55 00
        E 0 80 56 00
        E 0 80 61 00
        E 0 80 62 00
        E 120 90 18 60
        E 0 90 1f 60
        E 0 90 54 60
        E 0 90 56 60
        E 0 90 60 60
        E 0 90 62 60
        E 120 80 18 00
        E 0 80 1f 00
        E 0 80 54 00
        E 0 80 56 00
        E 0 80 60 00
        E 0 80 62 00
        E 120 90 18 60
        E 0 90 1f 60
        E 0 90 3e 60
        E 0 90 48 60
        E 0 90 4a 60
        E 0 90 54 60
        E 0 90 56 60
        E 0 90 60 60
        E 0 90 62 60
        E 120 80 18 00
        E 0 80 1f 00
        E 0 80 3e 00
        E 0 80 48 00
        E 0 80 4a 00
        E 0 80 54 00
        E 0 80 56 00
        E 0 80 60 00
        E 0 80 62 00
        E 120 90 1f 60
        E 0 90 56 60
        E 0 90 62 60
        E 120 80 1f 00
        E 0 80 56 00
        E 0 80 62 00
        E 120 90 1a 60
        E 0 90 1f 60
        E 0 90 3d 60
        E 0 90 3e 60
        E 0 90 49 60
        E 0 90 4a 60
        E 0 90 55 60
        E 0 90 56 60
        E 0 90 61 60
        E 0 90 62 60
        E 120 80 1a 00
        E 0 80 1f 00
        E 0 80 3d 00
        E 0 80 3e 00
        E 0 80 49 00
        E 0 80 4a 00
        E 0 80 55 00
        E 0 80 56 00
        E 0 80 61 00
        E 0 80 62 00
        E 120 90 1f 60
        E 0 90 56 60
        E 0 90 62 60
        E 120 80 1f 00
        E 0 80 56 00
        E 0 80 62 00
        E 120 90 18 60
        E 0 90 1f 60
        E 0 90 3e 60
        E 0 90 48 60
        E 0 90 4a 60
        E 0 90 54 60
        E 0 90 56 60
        E 0 90 60 60
        E 0 90 62 60
        E 120 80 18 00
        E 0 80 1f 00
        E 0 80 3e 00
        E 0 80 48 00
        E 0 80 4a 00
        E 0 80 54 00
        E 0 80 56 00
        E 0 80 60 00
        E 0 80 62 00
        E 120 90 1f 60
        E 0 90 56 60
        E 0 90 62 60
        E 120 80 1f 00
        E 0 80 56 00
        E 0 80 62 00
        E 120 90 1a 60
        E 0 90 1f 60
        E 0 90 3d 60
        E 0 90 3e 60
        E 0 90 49 60
        E 0 90 4a 60
        E 0 90 55 60
        E 0 90 56 60
        E 0 90 61 60
        E 0 90 62 60
        E 120 80 1a 00
        E 0 80 1f 00
        E 0 80 3d 00
        E 0 80 3e 00
        E 0 80 49 00
        E 0 80 4a 00
        E 0 80 55 00
        E 0 80 56 00
        E 0 80 61 00
        E 0 80 62 00
        E 120 90 18 60
        E 0 90 1f 60
        E 0 90 54 60
        E 0 90 56 60
        E 0 90 60 60
        E 0 90 62 60
        E 120 80 18 00
        E 0 80 1f 00
        E 0 80 54 00
        E 0 80 56 00
        E 0 80 60 00
        E 0 80 62 00
        E 120 90 18 60
        E 0 90 1f 60
        E 0 90 3e 60
        E 0 90 48 60
        E 0 90 4a 60
        E 0 90 54 60
        E 0 90 56 60
        E 0 90 60 60
        E 0 90 62 60
        E 120 80 18 00
        E 0 80 1f 00
        E 0 80 3e 00
        E 0 80 48 00
        E 0 80 4a 00
        E 0 80 54 00
        E 0 80 56 00
        E 0 80 60 00
        E 0 80 62 00
        E 120 90 1f 60
        E 0 90 56 60
        E 0 90 62 60
        E 120 80 1f 00
        E 0 80 56 00
        E 0 80 62 00
        E 120 90 1a 60
        E 0 90 1f 60
        E 0 90 3d 60
        E 0 90 3e 60
        E 0 90 49 60
        E 0 90 4a 60
        E 0 90 55 60
        E 0 90 56 60
        E 0 90 61 60
        E 0 90 62 60
        E 120 80 1a 00
        E 0 80 1f 00
        E 0 80 3d 00
        E 0 80 3e 00
        E 0 80 49 00
        E 0 80 4a 00
        E 0 80 55 00
        E 0 80 56 00
        E 0 80 61 00
        E 0 80 62 00
        E 120 90 1f 60
        E 0 90 56 60
        E 0 90 62 60
        E 120 80 1f 00
        E 0 80 56 00
        E 0 80 62 00
        E 120 90 18 60
        E 0 90 1f 60
        E 0 90 3e 60
        E 0 90 48 60
        E 0 90 4a 60
        E 0 90 54 60
        E 0 90 56 60
        E 0 90 60 60
        E 0 90 62 60
        E 120 80 18 00
        E 0 80 1f 00
        E 0 80 3e 00
        E 0 80 48 00
        E 0 80 4a 00
        E 0 80 54 00
        E 0 80 56 00
        E 0 80 60 00
        E 0 80 62 00
        E 120 90 1f 60
        E 0 90 56 60
        E 0 90 62 60
        E 120 80 1f 00
        E 0 80 56 00
        E 0 80 62 00
        E 120 90 1a 60
        E 0 90 1f 60
        E 0 90 3d 60
        E 0 90 3e 60
        E 0 90 49 60
        E 0 90 4a 60
        E 0 90 55 60
        E 0 90 56 60
        E 0 90 61 60
        E 0 90 62 60
        E 120 80 1a 00
        E 0 80 1f 00
        E 0 80 3d 00
        E 0 80 3e 00
        E 0 80 49 00
        E 0 80 4a 00
        E 0 80 55 00
        E 0 80 56 00
        E 0 80 61 00
        E 0 80 62 00
        E 120 90 18 60
        E 0 90 1f 60
        E 0 90 54 60
        E 0 90 56 60
        E 0 90 60 60
        E 0 90 62 60
        E 120 80 18 00
        E 0 80 1f 00
        E 0 80 54 00
        E 0 80 56 00
        E 0 80 60 00
        E 0 80 62 00
        E 120 90 18 60
        E 0 90 1f 60
        E 0 90 3e 60
        E 0 90 48 60
        E 0 90 4a 60
        E 0 90 54 60
        E 0 90 56 60
        E 0 90 60 60
        E 0 90 62 60
        E 120 80 18 00
        E 0 80 1f 00
        E 0 80 3e 00
        E 0 80 48 00
        E 0 80 4a 00
        E 0 80 54 00
        E 0 80 56 00
        E 0 80 60 00
        E 0 80 62 00
        E 120 90 1f 60
        E 0 90 56 60
        E 0 90 62 60
        E 120 80 1f 00
        E 0 80 56 00
        E 0 80 62 00
        E 120 90 1a 60
        E 0 90 1f 60
        E 0 90 3d 60
        E 0 90 3e 60
        E 0 90 49 60
        E 0 90 4a 60
        E 0 90 55 60
        E 0 90 56 60
        E 0 90 61 60
        E 0 90 62 60
        E 120 80 1a 00
        E 0 80 1f 00
        E 0 80 3d 00
        E 0 80 3e 00
        E 0 80 49 00
        E 0 80 4a 00
        E 0 80 55 00
        E 0 80 56 00
        E 0 80 61 00
        E 0 80 62 00
        E 120 90 1f 60
        E 0 90 56 60
        E 0 90 62 60
        E 120 80 1f 00
        E 0 80 56 00
        E 0 80 62 00
        E 120 90 18 60
        E 0 90 1f 60
        E 0 90 3e 60
        E 0 90 48 60
        E 0 90 4a 60
        E 0 90 54 60
        E 0 90 56 60
        E 0 90 60 60
        E 0 90 62 60
        E 0 90 78 60
        E 0 90 79 60
        E 0 90 7a 60
        E 0 90 7b 60
        E 0 90 7c 60
        E 120 80 18 00
        E 0 80 1f 00
        E 0 80 3e 00
        E 0 80 48 00
        E 0 80 4a 00
        E 0 80 54 00
        E 0 80 56 00
        E 0 80 60 00
        E 0 80 62 00
        E 120 90 1f 60
        E 0 90 56 60
        E 0 90 62 60
        E 120 80 1f 00
        E 0 80 56 00
        E 0 80 62 00
        E 120 90 1a 60
        E 0 90 1f 60
        E 0 90 3d 60
        E 0 90 3e 60
        E 0 90 49 60
        E 0 90 4a 60
        E 0 90 55 60
        E 0 90 56 60
        E 0 90 61 60
        E 0 90 62 60
        E 120 80 1a 00
        E 0 80 1f 00
        E 0 80 3d 00
        E 0 80 3e 00
        E 0 80 49 00
        E 0 80 4a 00
        E 0 80 55 00
        E 0 80 56 00
        E 0 80 61 00
        E 0 80 62 00
        E 120 90 18 60
        E 0 90 1f 60
        E 0 90 54 60
        E 0 90 56 60
        E 0 90 60 60
        E 0 90 62 60
        E 120 80 18 00
        E 0 80 1f 00
        E 0 80 54 00
        E 0 80 56 00
        E 0 80 60 00
        E 0 80 62 00
        E 120 90 18 60
        E 0 90 1f 60
        E 0 90 3e 60
        E 0 90 48 60
        E 0 90 4a 60
        E 0 90 54 60
        E 0 90 56 60
        E 0 90 60 60
        E 0 90 62 60
        E 120 80 18 00
        E 0 80 1f 00
        E 0 80 3e 00
        E 0 80 48 00
        E 0 80 4a 00
        E 0 80 54 00
        E 0 80 56 00
        E 0 80 60 00
        E 0 80 62 00
        E 120 90 1f 60
        E 0 90 56 60
        E 0 90 62 60
        E 120 80 1f 00
        E 0 80 56 00
        E 0 80 62 00
        E 120 90 1a 60
        E 0 90 1f 60
        E 0 90 3d 60
        E 0 90 3e 60
        E 0 90 49 60
        E 0 90 4a 60
        E 0 90 55 60
        E 0 90 56 60
        E 0 90 61 60
        E 0 90 62 60
        E 120 80 1a 00
        E 0 80 1f 00
        E 0 80 3d 00
        E 0 80 3e 00
        E 0 80 49 00
        E 0 80 4a 00
        E 0 80 55 00
        E 0 80 56 00
        E 0 80 61 00
        E 0 80 62 00
        E 120 90 1f 60
        E 0 90 56 60
        E 0 90 62 60
        E 120 80 1f 00
        E 0 80 56 00
        E 0 80 62 00
        E 120 80 78 00
        E 0 80 79 00
        E 0 80 7a 00
        E 0 80 7b 00
        E 0 80 7c 00
        E 0 90 18 60
        E 0 90 1f 60
        E 0 90 3e 60
        E 0 90 48 60
        E 0 90 4a 60
        E 0 90 54 60
        E 0 90 56 60
        E 0 90 60 60
        E 0 90 62 60
        E 120 80 18 00
        E 0 80 1f 00
        E 0 80 3e 00
        E 0 80 48 00
        E 0 80 4a 00
        E 0 80 54 00
        E 0 80 56 00
        E 0 80 60 00
        E 0 80 62 00
        E 120 90 1f 60
        E 0 90 56 60
        E 0 90 62 60
        E 120 80 1f 00
        E 0 80 56 00
        E 0 80 62 00
        E 120 90 1a 60
        E 0 90 1f 60
        E 0 90 3d 60
        E 0 90 3e 60
        E 0 90 49 60
        E 0 90 4a 60
        E 0 90 55 60
        E 0 90 56 60
        E 0 90 61 60
        E 0 90 62 60
        E 120 80 1a 00
        E 0 80 1f 00
        E 0 80 3d 00
        E 0 80 3e 00
        E 0 80 49 00
        E 0 80 4a 00
        E 0 80 55 00
        E 0 80 56 00
        E 0 80 61 00
        E 0 80 62 00
        E 120 90 18 60
        E 0 90 1f 60
        E 0 90 54 60
        E 0 90 56 60
        E 0 90 60 60
        E 0 90 62 60
        E 120 80 18 00
        E 0 80 1f 00
        E 0 80 54 00
        E 0 80 56 00
        E 0 80 60 00
        E 0 80 62 00
        E 120 90 18 60
        E 0 90 1f 60
        E 0 90 3e 60
        E 0 90 48 60
        E 0 90 4a 60
        E 0 90 54 60
        E 0 90 56 60
        E 0 90 60 60
        E 0 90 62 60
        E 120 80 18 00
        E 0 80 1f 00
        E 0 80 3e 00
        E 0 80 48 00
        E 0 80 4a 00
        E 0 80 54 00
        E 0 80 56 00
        E 0 80 60 00
        E 0 80 62 00
        E 120 90 1f 60
        E 0 90 56 60
        E 0 90 62 60
        E 120 80 1f 00
        E 0 80 56 00
        E 0 80 62 00
        E 120 90 1a 60
        E 0 90 1f 60
        E 0 90 3d 60
        E 0 90 3e 60
        E 0 90 49 60
        E 0 90 4a 60
        E 0 90 55 60
        E 0 90 56 60
        E 0 90 61 60
        E 0 90 62 60
        E 120 80 1a 00
        E 0 80 1f 00
        E 0 80 3d 00
        E 0 80 3e 00
        E 0 80 49 00
        E 0 80 4a 00
        E 0 80 55 00
        E 0 80 56 00
        E 0 80 61 00
        E 0 80 62 00
        E 120 90 1f 60
        E 0 90 56 60
        E 0 90 62 60
        E 120 80 1f 00
        E 0 80 56 00
        E 0 80 62 00
        E 120 90 18 60
        E 0 90 1f 60
        E 0 90 3e 60
        E 0 90 48 60
        E 0 90 4a 60
        E 0 90 54 60
        E 0 90 56 60
        E 0 90 60 60
        E 0 90 62 60
        E 120 80 18 00
        E 0 80 1f 00
        E 0 80 3e 00
        E 0 80 48 00
        E 0 80 4a 00
        E 0 80 54 00
        E 0 80 56 00
        E 0 80 60 00
        E 0 80 62 00
        E 120 90 1f 60
        E 0 90 56 60
        E 0 90 62 60
        E 120 80 1f 00
        E 0 80 56 00
        E 0 80 62 00
        E 120 90 1a 60
        E 0 90 1f 60
        E 0 90 3d 60
        E 0 90 3e 60
        E 0 90 49 60
        E 0 90 4a 60
        E 0 90 55 60
        E 0 90 56 60
        E 0 90 61 60
        E 0 90 62 60
        E 120 80 1a 00
        E 0 80 1f 00
        E 0 80 3d 00
        E 0 80 3e 00
        E 0 80 49 00
        E 0 80 4a 00
        E 0 80 55 00
        E 0 80 56 00
        E 0 80 61 00
        E 0 80 62 00
        E 120 90 18 60
        E 0 90 1f 60
        E 0 90 54 60
        E 0 90 56 60
        E 0 90 60 60
        E 0 90 62 60
        E 120 80 18 00
        E 0 80 1f 00
        E 0 80 54 00
        E 0 80 56 00
        E 0 80 60 00
        E 0 80 62 00
        E 120 90 18 60
        E 0 90 1f 60
        E 0 90 3e 60
        E 0 90 48 60
        E 0 90 4a 60
        E 0 90 54 60
        E 0 90 56 60
        E 0 90 60 60
        E 0 90 62 60
        E 120 80 18 00
        E 0 80 1f 00
        E 0 80 3e 00
        E 0 80 48 00
        E 0 80 4a 00
        E 0 80 54 00
        E 0 80 56 00
        E 0 80 60 00
        E 0 80 62 00
        E 120 90 1f 60
        E 0 90 56 60
        E 0 90 62 60
        E 120 80 1f 00
        E 0 80 56 00
        E 0 80 62 00
        E 120 90 1a 60
        E 0 90 1f 60
        E 0 90 3d 60
        E 0 90 3e 60
        E 0 90 49 60
        E 0 90 4a 60
        E 0 90 55 60
        E 0 90 56 60
        E 0 90 61 60
        E 0 90 62 60
        E 120 80 1a 00
        E 0 80 1f 00
        E 0 80 3d 00
        E 0 80 3e 00
        E 0 80 49 00
        E 0 80 4a 00
        E 0 80 55 00
        E 0 80 56 00
        E 0 80 61 00
        E 0 80 62 00
        E 120 90 1f 60
        E 0 90 56 60
        E 0 90 62 60
        E 120 80 1f 00
        E 0 80 56 00
        E 0 80 62 00
        E 120 90 18 60
        E 0 90 1f 60
        E 0 90 3e 60
        E 0 90 48 60
        E 0 90 4a 60
        E 0 90 54 60
        E 0 90 56 60
        E 0 90 60 60
        E 0 90 62 60
        E 120 80 18 00
        E 0 80 1f 00
        E 0 80 3e 00
        E 0 80 48 00
        E 0 80 4a 00
        E 0 80 54 00
        E 0 80 56 00
        E 0 80 60 00
        E 0 80 62 00
        E 120 90 1f 60
        E 0 90 56 60
        E 0 90 62 60
        E 120 80 1f 00
        E 0 80 56 00
        E 0 80 62 00
        E 120 90 1a 60
        E 0 90 1f 60
        E 0 90 3d 60
        E 0 90 3e 60
        E 0 90 49 60
        E 0 90 4a 60
        E 0 90 55 60
        E 0 90 56 60
        E 0 90 61 60
        E 0 90 62 60
        E 120 80 1a 00
        E 0 80 1f 00
        E 0 80 3d 00
        E 0 80 3e 00
        E 0 80 49 00
        E 0 80 4a 00
        E 0 80 55 00
        E 0 80 56 00
        E 0 80 61 00
        E 0 80 62 00
        E 120 90 18 60
        E 0 90 1f 60
        E 0 90 54 60
        E 0 90 56 60
        E 0 90 60 60
        E 0 90 62 60
        E 120 80 18 00
        E 0 80 1f 00
        E 0 80 54 00
        E 0 80 56 00
        E 0 80 60 00
        E 0 80 62 00
        E 120 90 18 60
        E 0 90 1f 60
        E 0 90 3e 60
        E 0 90 48 60
        E 0 90 4a 60
        E 0 90 54 60
        E 0 90 56 60
        E 0 90 60 60
        E 0 90 62 60
        E 120 80 18 00
        E 0 80 1f 00
        E 0 80 3e 00
        E 0 80 48 00
        E 0 80 4a 00
        E 0 80 54 00
        E 0 80 56 00
        E 0 80 60 00
        E 0 80 62 00
        E 120 90 1f 60
        E 0 90 56 60
        E 0 90 62 60
        E 120 80 1f 00
        E 0 80 56 00
        E 0 80 62 00
        E 120 90 1a 60
        E 0 90 1f 60
        E 0 90 3d 60
        E 0 90 3e 60
        E 0 90 49 60
        E 0 90 4a 60
        E 0 90 55 60
        E 0 90 56 60
        E 0 90 61 60
        E 0 90 62 60
        E 120 80 1a 00
        E 0 80 1f 00
        E 0 80 3d 00
        E 0 80 3e 00
        E 0 80 49 00
        E 0 80 4a 00
        E 0 80 55 00
        E 0 80 56 00
        E 0 80 61 00
        E 0 80 62 00
        E 120 90 1f 60
        E 0 90 56 60
        E 0 90 62 60
        E 120 80 1f 00
        E 0 80 56 00
        E 0 80 62 00
        E 120 90 18 60
        E 0 90 1f 60
        E 0 90 3e 60
        E 0 90 48 60
        E 0 90 4a 60
        E 0 90 54 60
        E 0 90 56 60
        E 0 90 60 60
        E 0 90 62 60
        E 0 90 74 60
        E 120 80 18 00
        E 0 80 1f 00
        E 0 80 3e 00
        E 0 80 48 00
        E 0 80 4a 00
        E 0 80 54 00
        E 0 80 56 00
        E 0 80 60 00
        E 0 80 62 00
        E 120 90 1f 60
        E 0 90 56 60
        E 0 90 62 60
        E 120 80 1f 00
        E 0 80 56 00
        E 0 80 62 00
        E 120 90 1a 60
        E 0 90 1f 60
        E 0 90 3d 60
        E 0 90 3e 60
        E 0 90 49 60
        E 0 90 4a 60
        E 0 90 55 60
        E 0 90 56 60
        E 0 90 61 60
        E 0 90 62 60
        E 120 80 1a 00
        E 0 80 1f 00
        E 0 80 3d 00
        E 0 80 3e 00
        E 0 80 49 00
        E 0 80 4a 00
        E 0 80 55 00
        E 0 80 56 00
        E 0 80 61 00
        E 0 80 62 00
        E 120 90 18 60
        E 0 90 1f 60
        E 0 90 54 60
        E 0 90 56 60
        E 0 90 60 60
        E 0 90 62 60
        E 120 80 18 00
        E 0 80 1f 00
        E 0 80 54 00
        E 0 80 56 00
        E 0 80 60 00
        E 0 80 62 00
        E 120 90 18 60
        E 0 90 1f 60
        E 0 90 3e 60
        E 0 90 48 60
        E 0 90 4a 60
        E 0 90 54 60
        E 0 90 56 60
        E 0 90 60 60
        E 0 90 62 60
        E 120 80 18 00
        E 0 80 1f 00
        E 0 80 3e 00
        E 0 80 48 00
        E 0 80 4a 00
        E 0 80 54 00
        E 0 80 56 00
        E 0 80 60 00
        E 0 80 62 00
        E 120 90 1f 60
        E 0 90 56 60
        E 0 90 62 60
        E 120 80 1f 00
        E 0 80 56 00
        E 0 80 62 00
        E 120 90 1a 60
        E 0 90 1f 60
        E 0 90 3d 60
        E 0 90 3e 60
        E 0 90 49 60
        E 0 90 4a 60
        E 0 90 55 60
        E 0 90 56 60
        E 0 90 61 60
        E 0 90 62 60
        E 120 80 1a 00
        E 0 80 1f 00
        E 0 80 3d 00
        E 0 80 3e 00
        E 0 80 49 00
        E 0 80 4a 00
        E 0 80 55 00
        E 0 80 56 00
        E 0 80 61 00
        E 0 80 62 00
        E 120 90 19 60
        E 0 90 1f 60
        E 0 90 57 60
        E 0 90 63 60
        E 120 80 1f 00
        E 0 80 57 00
        E 0 80 63 00
        E 120 80 74 00
        E 0 90 18 60
        E 0 90 1f 60
        E 0 90 3f 60
        E 0 90 48 60
        E 0 90 4b 60
        E 0 90 54 60
        E 0 90 57 60
        E 0 90 60 60
        E 0 90 63 60
        E 120 80 18 00
        E 0 80 1f 00
        E 0 80 3f 00
        E 0 80 48 00
        E 0 80 4b 00
        E 0 80 54 00
        E 0 80 57 00
        E 0 80 60 00
        E 0 80 63 00
        E 120 80 19 00
        E 0 90 1f 60
        E 0 90 56 60
        E 0 90 62 60
        E 120 80 1f 00
        E 0 80 56 00
        E 0 80 62 00
        E 120 90 1a 60
        E 0 90 1f 60
        E 0 90 3d 60
        E 0 90 3e 60
        E 0 90 49 60
        E 0 90 4a 60
        E 0 90 55 60
        E 0 90 56 60
        E 0 90 61 60
        E 0 90 62 60
        E 120 80 1a 00
        E 0 80 1f 00
        E 0 80 3d 00
        E 0 80 3e 00
        E 0 80 49 00
        E 0 80 4a 00
        E 0 80 55 00
        E 0 80 56 00
        E 0 80 61 00
        E 0 80 62 00
        E 120 90 18 60
        E 0 90 1f 60
        E 0 90 54 60
        E 0 90 56 60
        E 0 90 60 60
        E 0 90 62 60
        E 120 80 18 00
        E 0 80 1f 00
        E 0 80 54 00
        E 0 80 56 00
        E 0 80 60 00
        E 0 80 62 00
        E 120 90 18 60
        E 0 90 1f 60
        E 0 90 3e 60
        E 0 90 48 60
        E 0 90 4a 60
        E 0 90 54 60
        E 0 90 56 60
        E 0 90 60 60
        E 0 90 62 60
        E 120 80 18 00
        E 0 80 1f 00
        E 0 80 3e 00
        E 0 80 48 00
        E 0 80 4a 00
        E 0 80 54 00
        E 0 80 56 00
        E 0 80 60 00
        E 0 80 62 00
        E 120 90 1f 60
        E 0 90 56 60
        E 0 90 62 60
        E 120 80 1f 00
        E 0 80 56 00
        E 0 80 62 00
        E 120 90 1a 60
        E 0 90 1f 60
        E 0 90 3d 60
        E 0 90 3e 60
        E 0 90 49 60
        E 0 90 4a 60
        E 0 90 55 60
        E 0 90 56 60
        E 0 90 61 60
        E 0 90 62 60
        E 120 80 1a 00
        E 0 80 1f 00
        E 0 80 3d 00
        E 0 80 3e 00
        E 0 80 49 00
        E 0 80 4a 00
        E 0 80 55 00
        E 0 80 56 00
        E 0 80 61 00
        E 0 80 62 00
        E 120 90 1f 60
        E 0 90 56 60
        E 0 90 62 60
        E 120 80 1f 00
        E 0 80 56 00
        E 0 80 62 00
        E 120 90 18 60
        E 0 90 1f 60
        E 0 90 3e 60
        E 0 90 48 60
        E 0 90 4a 60
        E 0 90 54 60
        E 0 90 56 60
        E 0 90 60 60
        E 0 90 62 60
        E 120 80 18 00
        E 0 80 1f 00
        E 0 80 3e 00
        E 0 80 48 00
        E 0 80 4a 00
        E 0 80 54 00
        E 0 80 56 00
        E 0 80 60 00
        E 0 80 62 00
        E 120 90 1f 60
        E 0 90 56 60
        E 0 90 62 60
        E 120 80 1f 00
        E 0 80 56 00
        E 0 80 62 00
        E 120 90 1a 60
        E 0 90 1f 60
        E 0 90 3d 60
        E 0 90 3e 60
        E 0 90 49 60
        E 0 90 4a 60
        E 0 90 55 60
        E 0 90 56 60
        E 0 90 61 60
        E 0 90 62 60
        E 120 80 1a 00
        E 0 80 1f 00
        E 0 80 3d 00
        E 0 80 3e 00
        E 0 80 49 00
        E 0 80 4a 00
        E 0 80 55 00
        E 0 80 56 00
        E 0 80 61 00
        E 0 80 62 00
        E 120 90 18 60
        E 0 90 1f 60
        E 0 90 54 60
        E 0 90 56 60
        E 0 90 60 60
        E 0 90 62 60
        E 120 80 18 00
        E 0 80 1f 00
        E 0 80 54 00
        E 0 80 56 00
        E 0 80 60 00
        E 0 80 62 00
        E 120 90 18 60
        E 0 90 1f 60
        E 0 90 3e 60
        E 0 90 48 60
        E 0 90 4a 60
        E 0 90 54 60
        E 0 90 56 60
        E 0 90 60 60
        E 0 90 62 60
        E 120 80 18 00
        E 0 80 1f 00
        E 0 80 3e 00
        E 0 80 48 00
        E 0 80 4a 00
        E 0 80 54 00
        E 0 80 56 00
        E 0 80 60 00
        E 0 80 62 00
        E 120 90 1f 60
        E 0 90 56 60
        E 0 90 62 60
        E 120 80 1f 00
        E 0 80 56 00
        E 0 80 62 00
        E 120 90 1a 60
        E 0 90 1f 60
        E 0 90 3d 60
        E 0 90 3e 60
        E 0 90 49 60
        E 0 90 4a 60
        E 0 90 55 60
        E 0 90 56 60
        E 0 90 61 60
        E 0 90 62 60
        E 120 80 1a 00
        E 0 80 1f 00
        E 0 80 3d 00
        E 0 80 3e 00
        E 0 80 49 00
        E 0 80 4a 00
        E 0 80 55 00
        E 0 80 56 00
        E 0 80 61 00
        E 0 80 62 00
        E 120 90 1f 60
        E 0 90 56 60
        E 0 90 62 60
        E 120 80 1f 00
        E 0 80 56 00
        E 0 80 62 00
        E 120 90 18 60
        E 0 90 1f 60
        E 0 90 3e 60
        E 0 90 48 60
        E 0 90 4a 60
        E 0 90 54 60
        E 0 90 56 60
        E 0 90 60 60
        E 0 90 62 60
        E 120 80 18 00
        E 0 80 1f 00
        E 0 80 3e 00
        E 0 80 48 00
        E 0 80 4a 00
        E 0 80 54 00
        E 0 80 56 00
        E 0 80 60 00
        E 0 80 62 00
        E 120 90 1f 60
        E 0 90 56 60
        E 0 90 62 60
        E 120 80 1f 00
        E 0 80 56 00
        E 0 80 62 00
        E 120 90 1a 60
        E 0 90 1f 60
        E 0 90 3d 60
        E 0 90 3e 60
        E 0 90 49 60
        E 0 90 4a 60
        E 0 90 55 60
        E 0 90 56 60
        E 0 90 61 60
        E 0 90 62 60
        E 120 80 1a 00
        E 0 80 1f 00
        E 0 80 3d 00
        E 0 80 3e 00
        E 0 80 49 00
        E 0 80 4a 00
        E 0 80 55 00
        E 0 80 56 00
        E 0 80 61 00
        E 0 80 62 00
        E 120 90 18 60
        E 0 90 1f 60
        E 0 90 54 60
        E 0 90 56 60
        E 0 90 60 60
        E 0 90 62 60
        E 120 80 18 00
        E 0 80 1f 00
        E 0 80 54 00
        E 0 80 56 00
        E 0 80 60 00
        E 0 80 62 00
        E 120 90 18 60
        E 0 90 1f 60
        E 0 90 3e 60
        E 0 90 48 60
        E 0 90 4a 60
        E 0 90 54 60
        E 0 90 56 60
        E 0 90 60 60
        E 0 90 62 60
        E 120 80 18 00
        E 0 80 1f 00
        E 0 80 3e 00
        E 0 80 48 00
        E 0 80 4a 00
        E 0 80 54 00
        E 0 80 56 00
        E 0 80 60 00
        E 0 80 62 00
        E 120 90 1f 60
        E 0 90 56 60
        E 0 90 62 60
        E 120 80 1f 00
        E 0 80 56 00
        E 0 80 62 00
        E 120 90 1a 60
        E 0 90 1f 60
        E 0 90 3d 60
        E 0 90 3e 60
        E 0 90 49 60
        E 0 90 4a 60
        E 0 90 55 60
        E 0 90 56 60
        E 0 90 61 60
        E 0 90 62 60
        E 120 80 1a 00
        E 0 80 1f 00
        E 0 80 3d 00
        E 0 80 3e 00
        E 0 80 49 00
        E 0 80 4a 00
        E 0 80 55 00
        E 0 80 56 00
        E 0 80 61 00
        E 0 80 62 00
        E 120 90 1f 60
        E 0 90 56 60
        E 0 90 62 60
        E 120 80 1f 00
        E 0 80 56 00
        E 0 80 62 00
        E 120 90 18 60
        E 0 90 1f 60
        E 0 90 3e 60
        E 0 90 48 60
        E 0 90 4a 60
        E 0 90 54 60
        E 0 90 56 60
        E 0 90 60 60
        E 0 90 62 60
        E 120 80 18 00
        E 0 80 1f 00
        E 0 80 3e 00
        E 0 80 48 00
        E 0 80 4a 00
        E 0 80 54 00
        E 0 80 56 00
        E 0 80 60 00
        E 0 80 62 00
        <X 360 0
          /wFbbWVsbG93XQ==
        >
        E 1440 90 78 60
        E 0 90 79 60
        E 0 90 7a 60
        E 0 90 7b 60
        E 0 90 7c 60
        E 1920 80 78 00
        E 0 80 79 00
        E 0 80 7a 00
        E 0 80 7b 00
        E 0 80 7c 00
        E 0 90 18 60
        E 0 90 2a 60
        E 0 90 3f 60
        E 0 90 48 60
        E 0 90 4b 60
        E 0 90 54 60
        E 0 90 57 60
        E 0 90 60 60
        E 0 90 63 60
        E 120 80 18 00
        E 0 80 2a 00
        E 0 80 3f 00
        E 0 80 48 00
        E 0 80 4b 00
        E 0 80 54 00
        E 0 80 57 00
        E 0 80 60 00
        E 0 80 63 00
        E 1800 90 18 60
        E 0 90 3c 60
        E 0 90 48 60
        E 0 90 54 60
        E 0 90 60 60
        E 120 80 18 00
        E 0 80 3c 00
        E 0 80 48 00
        E 0 80 54 00
        E 0 80 60 00
        E 1800 90 18 60
        E 0 90 3c 60
        E 0 90 48 60
        E 0 90 54 60
        E 0 90 60 60
        E 120 80 18 00
        E 0 80 3c 00
        E 0 80 48 00
        E 0 80 54 00
        E 0 80 60 00
        E 1800 90 18 60
        E 0 90 3c 60
        E 0 90 48 60
        E 0 90 54 60
        E 0 90 60 60
        E 0 90 78 60
        E 0 90 79 60
        E 0 90 7a 60
        E 0 90 7b 60
        E 0 90 7c 60
        E 120 80 18 00
        E 0 80 3c 00
        E 0 80 48 00
        E 0 80 54 00
        E 0 80 60 00
        E 1800 80 78 00
        E 0 80 79 00
        E 0 80 7a 00
        E 0 80 7b 00
        E 0 80 7c 00
        E 0 90 18 60
        E 0 90 3c 60
        E 0 90 48 60
        E 0 90 54 60
        E 0 90 60 60
        E 0 90 74 60
        E 120 80 18 00
        E 0 80 3c 00
        E 0 80 48 00
        E 0 80 54 00
        E 0 80 60 00
        E 1800 90 18 60
        E 0 90 3c 60
        E 0 90 48 60
        E 0 90 54 60
        E 0 90 60 60
        E 120 80 18 00
        E 0 80 3c 00
        E 0 80 48 00
        E 0 80 54 00
        E 0 80 60 00
        E 120 80 74 00
        E 1680 90 18 60
        E 0 90 3c 60
        E 0 90 48 60
        E 0 90 54 60
        E 0 90 60 60
        E 120 80 18 00
        E 0 80 3c 00
        E 0 80 48 00
        E 0 80 54 00
        E 0 80 60 00
        E 1800 90 18 60
        E 0 90 3c 60
        E 0 90 48 60
        E 0 90 54 60
        E 0 90 60 60
        E 0 90 78 60
        E 0 90 79 60
        E 0 90 7a 60
        E 0 90 7b 60
        E 0 90 7c 60
        E 120 80 18 00
        E 0 80 3c 00
        E 0 80 48 00
        E 0 80 54 00
        E 0 80 60 00
        E 1800 80 78 00
        E 0 80 79 00
        E 0 80 7a 00
        E 0 80 7b 00
        E 0 80 7c 00
        E 0 90 18 60
        E 0 90 2a 60
        E 0 90 3f 60
        E 0 90 48 60
        E 0 90 4b 60
        E 0 90 54 60
        E 0 90 57 60
        E 0 90 60 60
        E 0 90 63 60
        E 120 80 18 00
        E 0 80 2a 00
        E 0 80 3f 00
        E 0 80 48 00
        E 0 80 4b 00
        E 0 80 54 00
        E 0 80 57 00
        E 0 80 60 00
        E 0 80 63 00
        E 360 90 1a 60
        E 0 90 3d 60
        E 0 90 49 60
        E 0 90 55 60
        E 0 90 61 60
        E 120 80 1a 00
        E 0 80 3d 00
        E 0 80 49 00
        E 0 80 55 00
        E 0 80 61 00
        E 360 90 18 60
        E 0 90 3c 60
        E 0 90 48 60
        E 0 90 54 60
        E 0 90 60 60
        E 120 80 18 00
        E 0 80 3c 00
        E 0 80 48 00
        E 0 80 54 00
        E 0 80 60 00
        E 360 90 1a 60
        E 0 90 3d 60
        E 0 90 49 60
        E 0 90 55 60
        E 0 90 61 60
        E 120 80 1a 00
        E 0 80 3d 00
        E 0 80 49 00
        E 0 80 55 00
        E 0 80 61 00
        E 360 90 18 60
        E 0 90 3c 60
        E 0 90 48 60
        E 0 90 54 60
        E 0 90 60 60
        E 120 80 18 00
        E 0 80 3c 00
        E 0 80 48 00
        E 0 80 54 00
        E 0 80 60 00
        E 360 90 1a 60
        E 0 90 3d 60
        E 0 90 49 60
        E 0 90 55 60
        E 0 90 61 60
        E 120 80 1a 00
        E 0 80 3d 00
        E 0 80 49 00
        E 0 80 55 00
        E 0 80 61 00
        E 360 90 18 60
        E 0 90 3c 60
        E 0 90 48 60
        E 0 90 54 60
        E 0 90 60 60
        E 120 80 18 00
        E 0 80 3c 00
        E 0 80 48 00
        E 0 80 54 00
        E 0 80 60 00
        E 360 90 1a 60
        E 0 90 3d 60
        E 0 90 49 60
        E 0 90 55 60
        E 0 90 61 60
        E 120 80 1a 00
        E 0 80 3d 00
        E 0 80 49 00
        E 0 80 55 00
        E 0 80 61 00
        E 360 90 18 60
        E 0 90 2a 60
        E 0 90 3f 60
        E 0 90 48 60
        E 0 90 4b 60
        E 0 90 54 60
        E 0 90 57 60
        E 0 90 60 60
        E 0 90 63 60
        E 120 80 18 00
        E 0 80 2a 00
        E 0 80 3f 00
        E 0 80 48 00
        E 0 80 4b 00
        E 0 80 54 00
        E 0 80 57 00
        E 0 80 60 00
        E 0 80 63 00
        E 360 90 1a 60
        E 0 90 3d 60
        E 0 90 49 60
        E 0 90 55 60
        E 0 90 61 60
        E 120 80 1a 00
        E 0 80 3d 00
        E 0 80 49 00
        E 0 80 55 00
        E 0 80 61 00
        E 360 90 18 60
        E 0 90 3c 60
        E 0 90 48 60
        E 0 90 54 60
        E 0 90 60 60
        E 120 80 18 00
        E 0 80 3c 00
        E 0 80 48 00
        E 0 80 54 00
        E 0 80 60 00
        E 360 90 1a 60
        E 0 90 3d 60
        E 0 90 49 60
        E 0 90 55 60
        E 0 90 61 60
        E 120 80 1a 00
        E 0 80 3d 00
        E 0 80 49 00
        E 0 80 55 00
        E 0 80 61 00
        E 360 90 18 60
        E 0 90 3c 60
        E 0 90 48 60
        E 0 90 54 60
        E 0 90 60 60
        E 0 90 78 60
        E 0 90 79 60
        E 0 90 7a 60
        E 0 90 7b 60
        E 0 90 7c 60
        E 120 80 18 00
        E 0 80 3c 00
        E 0 80 48 00
        E 0 80 54 00
        E 0 80 60 00
        E 360 90 1a 60
        E 0 90 3d 60
        E 0 90 49 60
        E 0 90 55 60
        E 0 90 61 60
        E 120 80 1a 00
        E 0 80 3d 00
        E 0 80 49 00
        E 0 80 55 00
        E 0 80 61 00
        E 360 90 18 60
        E 0 90 3c 60
        E 0 90 48 60
        E 0 90 54 60
        E 0 90 60 60
        E 120 80 18 00
        E 0 80 3c 00
        E 0 80 48 00
        E 0 80 54 00
        E 0 80 60 00
        E 360 90 1a 60
        E 0 90 3d 60
        E 0 90 49 60
        E 0 90 55 60
        E 0 90 61 60
        E 120 80 1a 00
        E 0 80 3d 00
        E 0 80 49 00
        E 0 80 55 00
        E 0 80 61 00
        E 360 80 78 00
        E 0 80 79 00
        E 0 80 7a 00
        E 0 80 7b 00
        E 0 80 7c 00
        E 0 90 18 60
        E 0 90 2a 60
        E 0 90 3f 60
        E 0 90 48 60
        E 0 90 4b 60
        E 0 90 54 60
        E 0 90 57 60
        E 0 90 60 60
        E 0 90 63 60
        E 120 80 18 00
        E 0 80 2a 00
        E 0 80 3f 00
        E 0 80 48 00
        E 0 80 4b 00
        E 0 80 54 00
        E 0 80 57 00
        E 0 80 60 00
        E 0 80 63 00
        E 360 90 1a 60
        E 0 90 3d 60
        E 0 90 49 60
        E 0 90 55 60
        E 0 90 61 60
        E 120 80 1a 00
        E 0 80 3d 00
        E 0 80 49 00
        E 0 80 55 00
        E 0 80 61 00
        E 360 90 18 60
        E 0 90 3c 60
        E 0 90 48 60
        E 0 90 54 60
        E 0 90 60 60
        E 120 80 18 00
        E 0 80 3c 00
        E 0 80 48 00
        E 0 80 54 00
        E 0 80 60 00
        E 360 90 1a 60
        E 0 90 3d 60
        E 0 90 49 60
        E 0 90 55 60
        E 0 90 61 60
        E 120 80 1a 00
        E 0 80 3d 00
        E 0 80 49 00
        E 0 80 55 00
        E 0 80 61 00
        E 360 90 18 60
        E 0 90 3c 60
        E 0 90 48 60
        E 0 90 54 60
        E 0 90 60 60
        E 120 80 18 00
        E 0 80 3c 00
        E 0 80 48 00
        E 0 80 54 00
        E 0 80 60 00
        E 360 90 1a 60
        E 0 90 3d 60
        E 0 90 49 60
        E 0 90 55 60
        E 0 90 61 60
        E 120 80 1a 00
        E 0 80 3d 00
        E 0 80 49 00
        E 0 80 55 00
        E 0 80 61 00
        E 360 90 18 60
        E 0 90 3c 60
        E 0 90 48 60
        E 0 90 54 60
        E 0 90 60 60
        E 120 80 18 00
        E 0 80 3c 00
        E 0 80 48 00
        E 0 80 54 00
        E 0 80 60 00
        E 360 90 1a 60
        E 0 90 3d 60
        E 0 90 49 60
        E 0 90 55 60
        E 0 90 61 60
        E 120 80 1a 00
        E 0 80 3d 00
        E 0 80 49 00
        E 0 80 55 00
        E 0 80 61 00
        E 360 90 18 60
        E 0 90 2a 60
        E 0 90 3f 60
        E 0 90 48 60
        E 0 90 4b 60
        E 0 90 54 60
        E 0 90 57 60
        E 0 90 60 60
        E 0 90 63 60
        E 120 80 18 00
        E 0 80 2a 00
        E 0 80 3f 00
        E 0 80 48 00
        E 0 80 4b 00
        E 0 80 54 00
        E 0 80 57 00
        E 0 80 60 00
        E 0 80 63 00
        E 1800 90 78 60
        E 0 90 79 60
        E 0 90 7a 60
        E 0 90 7b 60
        E 0 90 7c 60
        <X 1920 0
          /wFbcGxheV0=
        >
        E 0 80 78 00
        E 0 80 79 00
        E 0 80 7a 00
        E 0 80 7b 00
        E 0 80 7c 00
        E 0 90 18 60
        E 0 90 26 60
        E 0 90 40 60
        E 0 90 48 60
        E 0 90 4c 60
        E 0 90 54 60
        E 0 90 58 60
        E 0 90 60 60
        E 0 90 64 60
        E 120 80 18 00
        E 0 80 26 00
        E 0 80 40 00
        E 0 80 48 00
        E 0 80 4c 00
        E 0 80 54 00
        E 0 80 58 00
        E 0 80 60 00
        E 0 80 64 00
        E 120 90 1f 60
        E 0 90 56 60
        E 0 90 62 60
        E 120 80 1f 00
        E 0 80 56 00
        E 0 80 62 00
        E 120 90 1a 60
        E 0 90 1f 60
        E 0 90 3d 60
        E 0 90 3e 60
        E 0 90 49 60
        E 0 90 4a 60
        E 0 90 55 60
        E 0 90 56 60
        E 0 90 61 60
        E 0 90 62 60
        E 120 80 1a 00
        E 0 80 1f 00
        E 0 80 3d 00
        E 0 80 3e 00
        E 0 80 49 00
        E 0 80 4a 00
        E 0 80 55 00
        E 0 80 56 00
        E 0 80 61 00
        E 0 80 62 00
        E 120 90 18 60
        E 0 90 1f 60
        E 0 90 54 60
        E 0 90 56 60
        E 0 90 60 60
        E 0 90 62 60
        E 120 80 18 00
        E 0 80 1f 00
        E 0 80 54 00
        E 0 80 56 00
        E 0 80 60 00
        E 0 80 62 00
        E 120 90 18 60
        E 0 90 1f 60
        E 0 90 3e 60
        E 0 90 48 60
        E 0 90 4a 60
        E 0 90 54 60
        E 0 90 56 60
        E 0 90 60 60
        E 0 90 62 60
        E 120 80 18 00
        E 0 80 1f 00
        E 0 80 3e 00
        E 0 80 48 00
        E 0 80 4a 00
        E 0 80 54 00
        E 0 80 56 00
        E 0 80 60 00
        E 0 80 62 00
        E 120 90 1f 60
        E 0 90 56 60
        E 0 90 62 60
        E 120 80 1f 00
        E 0 80 56 00
        E 0 80 62 00
        E 120 90 1a 60
        E 0 90 1f 60
        E 0 90 3d 60
        E 0 90 3e 60
        E 0 90 49 60
        E 0 90 4a 60
        E 0 90 55 60
        E 0 90 56 60
        E 0 90 61 60
        E 0 90 62 60
        E 120 80 1a 00
        E 0 80 1f 00
        E 0 80 3d 00
        E 0 80 3e 00
        E 0 80 49 00
        E 0 80 4a 00
        E 0 80 55 00
        E 0 80 56 00
        E 0 80 61 00
        E 0 80 62 00
        E 120 90 1f 60
        E 0 90 56 60
        E 0 90 62 60
        E 120 80 1f 00
        E 0 80 56 00
        E 0 80 62 00
        E 120 90 18 60
        E 0 90 1f 60
        E 0 90 3e 60
        E 0 90 48 60
        E 0 90 4a 60
        E 0 90 54 60
        E 0 90 56 60
        E 0 90 60 60
        E 0 90 62 60
        E 120 80 18 00
        E 0 80 1f 00
        E 0 80 3e 00
        E 0 80 48 00
        E 0 80 4a 00
        E 0 80 54 00
        E 0 80 56 00
        E 0 80 60 00
        E 0 80 62 00
        E 120 90 1f 60
        E 0 90 56 60
        E 0 90 62 60
        E 120 80 1f 00
        E 0 80 56 00
        E 0 80 62 00
        E 120 90 1a 60
        E 0 90 1f 60
        E 0 90 3d 60
        E 0 90 3e 60
        E 0 90 49 60
        E 0 90 4a 60
        E 0 90 55 60
        E 0 90 56 60
        E 0 90 61 60
        E 0 90 62 60
        E 120 80 1a 00
        E 0 80 1f 00
        E 0 80 3d 00
        E 0 80 3e 00
        E 0 80 49 00
        E 0 80 4a 00
        E 0 80 55 00
        E 0 80 56 00
        E 0 80 61 00
        E 0 80 62 00
        E 120 90 18 60
        E 0 90 1f 60
        E 0 90 54 60
        E 0 90 56 60
        E 0 90 60 60
        E 0 90 62 60
        E 120 80 18 00
        E 0 80 1f 00
        E 0 80 54 00
        E 0 80 56 00
        E 0 80 60 00
        E 0 80 62 00
        E 120 90 18 60
        E 0 90 1f 60
        E 0 90 3e 60
        E 0 90 48 60
        E 0 90 4a 60
        E 0 90 54 60
        E 0 90 56 60
        E 0 90 60 60
        E 0 90 62 60
        E 120 80 18 00
        E 0 80 1f 00
        E 0 80 3e 00
        E 0 80 48 00
        E 0 80 4a 00
        E 0 80 54 00
        E 0 80 56 00
        E 0 80 60 00
        E 0 80 62 00
        E 120 90 1f 60
        E 0 90 56 60
        E 0 90 62 60
        E 120 80 1f 00
        E 0 80 56 00
        E 0 80 62 00
        E 120 90 1a 60
        E 0 90 1f 60
        E 0 90 3d 60
        E 0 90 3e 60
        E 0 90 49 60
        E 0 90 4a 60
        E 0 90 55 60
        E 0 90 56 60
        E 0 90 61 60
        E 0 90 62 60
        E 120 80 1a 00
        E 0 80 1f 00
        E 0 80 3d 00
        E 0 80 3e 00
        E 0 80 49 00
        E 0 80 4a 00
        E 0 80 55 00
        E 0 80 56 00
        E 0 80 61 00
        E 0 80 62 00
        E 120 90 1f 60
        E 0 90 56 60
        E 0 90 62 60
        E 120 80 1f 00
        E 0 80 56 00
        E 0 80 62 00
        E 120 90 18 60
        E 0 90 1f 60
        E 0 90 3e 60
        E 0 90 48 60
        E 0 90 4a 60
        E 0 90 54 60
        E 0 90 56 60
        E 0 90 60 60
        E 0 90 62 60
        E 120 80 18 00
        E 0 80 1f 00
        E 0 80 3e 00
        E 0 80 48 00
        E 0 80 4a 00
        E 0 80 54 00
        E 0 80 56 00
        E 0 80 60 00
        E 0 80 62 00
        E 120 90 1f 60
        E 0 90 56 60
        E 0 90 62 60
        E 120 80 1f 00
        E 0 80 56 00
        E 0 80 62 00
        E 120 90 1a 60
        E 0 90 1f 60
        E 0 90 3d 60
        E 0 90 3e 60
        E 0 90 49 60
        E 0 90 4a 60
        E 0 90 55 60
        E 0 90 56 60
        E 0 90 61 60
        E 0 90 62 60
        E 120 80 1a 00
        E 0 80 1f 00
        E 0 80 3d 00
        E 0 80 3e 00
        E 0 80 49 00
        E 0 80 4a 00
        E 0 80 55 00
        E 0 80 56 00
        E 0 80 61 00
        E 0 80 62 00
        E 120 90 18 60
        E 0 90 1f 60
        E 0 90 54 60
        E 0 90 56 60
        E 0 90 60 60
        E 0 90 62 60
        E 120 80 18 00
        E 0 80 1f 00
        E 0 80 54 00
        E 0 80 56 00
        E 0 80 60 00
        E 0 80 62 00
        E 120 90 18 60
        E 0 90 1f 60
        E 0 90 3e 60
        E 0 90 48 60
        E 0 90 4a 60
        E 0 90 54 60
        E 0 90 56 60
        E 0 90 60 60
        E 0 90 62 60
        E 120 80 18 00
        E 0 80 1f 00
        E 0 80 3e 00
        E 0 80 48 00
        E 0 80 4a 00
        E 0 80 54 00
        E 0 80 56 00
        E 0 80 60 00
        E 0 80 62 00
        E 120 90 1f 60
        E 0 90 56 60
        E 0 90 62 60
        E 120 80 1f 00
        E 0 80 56 00
        E 0 80 62 00
        E 120 90 1a 60
        E 0 90 1f 60
        E 0 90 3d 60
        E 0 90 3e 60
        E 0 90 49 60
        E 0 90 4a 60
        E 0 90 55 60
        E 0 90 56 60
        E 0 90 61 60
        E 0 90 62 60
        E 120 80 1a 00
        E 0 80 1f 00
        E 0 80 3d 00
        E 0 80 3e 00
        E 0 80 49 00
        E 0 80 4a 00
        E 0 80 55 00
        E 0 80 56 00
        E 0 80 61 00
        E 0 80 62 00
        E 120 90 1f 60
        E 0 90 56 60
        E 0 90 62 60
        E 120 80 1f 00
        E 0 80 56 00
        E 0 80 62 00
        E 120 90 18 60
        E 0 90 1f 60
        E 0 90 3e 60
        E 0 90 48 60
        E 0 90 4a 60
        E 0 90 54 60
        E 0 90 56 60
        E 0 90 60 60
        E 0 90 62 60
        E 120 80 18 00
        E 0 80 1f 00
        E 0 80 3e 00
        E 0 80 48 00
        E 0 80 4a 00
        E 0 80 54 00
        E 0 80 56 00
        E 0 80 60 00
        E 0 80 62 00
        E 120 90 1f 60
        E 0 90 56 60
        E 0 90 62 60
        E 120 80 1f 00
        E 0 80 56 00
        E 0 80 62 00
        E 120 90 1a 60
        E 0 90 1f 60
        E 0 90 3d 60
        E 0 90 3e 60
        E 0 90 49 60
        E 0 90 4a 60
        E 0 90 55 60
        E 0 90 56 60
        E 0 90 61 60
        E 0 90 62 60
        E 120 80 1a 00
        E 0 80 1f 00
        E 0 80 3d 00
        E 0 80 3e 00
        E 0 80 49 00
        E 0 80 4a 00
        E 0 80 55 00
        E 0 80 56 00
        E 0 80 61 00
        E 0 80 62 00
        E 120 90 18 60
        E 0 90 1f 60
        E 0 90 54 60
        E 0 90 56 60
        E 0 90 60 60
        E 0 90 62 60
        E 120 80 18 00
        E 0 80 1f 00
        E 0 80 54 00
        E 0 80 56 00
        E 0 80 60 00
        E 0 80 62 00
        E 120 90 18 60
        E 0 90 1f 60
        E 0 90 3e 60
        E 0 90 48 60
        E 0 90 4a 60
        E 0 90 54 60
        E 0 90 56 60
        E 0 90 60 60
        E 0 90 62 60
        E 120 80 18 00
        E 0 80 1f 00
        E 0 80 3e 00
        E 0 80 48 00
        E 0 80 4a 00
        E 0 80 54 00
        E 0 80 56 00
        E 0 80 60 00
        E 0 80 62 00
        E 120 90 1f 60
        E 0 90 56 60
        E 0 90 62 60
        E 120 80 1f 00
        E 0 80 56 00
        E 0 80 62 00
        E 120 90 1a 60
        E 0 90 1f 60
        E 0 90 3d 60
        E 0 90 3e 60
        E 0 90 49 60
        E 0 90 4a 60
        E 0 90 55 60
        E 0 90 56 60
        E 0 90 61 60
        E 0 90 62 60
        E 120 80 1a 00
        E 0 80 1f 00
        E 0 80 3d 00
        E 0 80 3e 00
        E 0 80 49 00
        E 0 80 4a 00
        E 0 80 55 00
        E 0 80 56 00
        E 0 80 61 00
        E 0 80 62 00
        E 120 90 19 60
        E 0 90 1f 60
        E 0 90 57 60
        E 0 90 63 60
        E 120 80 1f 00
        E 0 80 57 00
        E 0 80 63 00
        E 120 80 19 00
        E 0 90 18 60
        E 0 90 1f 60
        E 0 90 3e 60
        E 0 90 48 60
        E 0 90 4a 60
        E 0 90 54 60
        E 0 90 56 60
        E 0 90 60 60
        E 0 90 62 60
        E 120 80 18 00
        E 0 80 1f 00
        E 0 80 3e 00
        E 0 80 48 00
        E 0 80 4a 00
        E 0 80 54 00
        E 0 80 56 00
        E 0 80 60 00
        E 0 80 62 00
        E 120 90 1f 60
        E 0 90 56 60
        E 0 90 62 60
        E 120 80 1f 00
        E 0 80 56 00
        E 0 80 62 00
        E 120 90 1a 60
        E 0 90 1f 60
        E 0 90 3d 60
        E 0 90 3e 60
        E 0 90 49 60
        E 0 90 4a 60
        E 0 90 55 60
        E 0 90 56 60
        E 0 90 61 60
        E 0 90 62 60
        E 120 80 1a 00
        E 0 80 1f 00
        E 0 80 3d 00
        E 0 80 3e 00
        E 0 80 49 00
        E 0 80 4a 00
        E 0 80 55 00
        E 0 80 56 00
        E 0 80 61 00
        E 0 80 62 00
        E 120 90 18 60
        E 0 90 1f 60
        E 0 90 54 60
        E 0 90 56 60
        E 0 90 60 60
        E 0 90 62 60
        E 120 80 18 00
        E 0 80 1f 00
        E 0 80 54 00
        E 0 80 56 00
        E 0 80 60 00
        E 0 80 62 00
        E 120 90 18 60
        E 0 90 1f 60
        E 0 90 3e 60
        E 0 90 48 60
        E 0 90 4a 60
        E 0 90 54 60
        E 0 90 56 60
        E 0 90 60 60
        E 0 90 62 60
        E 120 80 18 00
        E 0 80 1f 00
        E 0 80 3e 00
        E 0 80 48 00
        E 0 80 4a 00
        E 0 80 54 00
        E 0 80 56 00
        E 0 80 60 00
        E 0 80 62 00
        E 120 90 1f 60
        E 0 90 56 60
        E 0 90 62 60
        E 120 80 1f 00
        E 0 80 56 00
        E 0 80 62 00
        E 120 90 1a 60
        E 0 90 1f 60
        E 0 90 3d 60
        E 0 90 3e 60
        E 0 90 49 60
        E 0 90 4a 60
        E 0 90 55 60
        E 0 90 56 60
        E 0 90 61 60
        E 0 90 62 60
        E 120 80 1a 00
        E 0 80 1f 00
        E 0 80 3d 00
        E 0 80 3e 00
        E 0 80 49 00
        E 0 80 4a 00
        E 0 80 55 00
        E 0 80 56 00
        E 0 80 61 00
        E 0 80 62 00
        E 120 90 1f 60
        E 0 90 56 60
        E 0 90 62 60
        E 120 80 1f 00
        E 0 80 56 00
        E 0 80 62 00
        E 120 90 18 60
        E 0 90 1f 60
        E 0 90 3e 60
        E 0 90 48 60
        E 0 90 4a 60
        E 0 90 54 60
        E 0 90 56 60
        E 0 90 60 60
        E 0 90 62 60
        E 120 80 18 00
        E 0 80 1f 00
        E 0 80 3e 00
        E 0 80 48 00
        E 0 80 4a 00
        E 0 80 54 00
        E 0 80 56 00
        E 0 80 60 00
        E 0 80 62 00
        E 120 90 1f 60
        E 0 90 56 60
        E 0 90 62 60
        E 120 80 1f 00
        E 0 80 56 00
        E 0 80 62 00
        E 120 90 1a 60
        E 0 90 1f 60
        E 0 90 3d 60
        E 0 90 3e 60
        E 0 90 49 60
        E 0 90 4a 60
        E 0 90 55 60
        E 0 90 56 60
        E 0 90 61 60
        E 0 90 62 60
        E 120 80 1a 00
        E 0 80 1f 00
        E 0 80 3d 00
        E 0 80 3e 00
        E 0 80 49 00
        E 0 80 4a 00
        E 0 80 55 00
        E 0 80 56 00
        E 0 80 61 00
        E 0 80 62 00
        E 120 90 18 60
        E 0 90 1f 60
        E 0 90 54 60
        E 0 90 56 60
        E 0 90 60 60
        E 0 90 62 60
        E 120 80 18 00
        E 0 80 1f 00
        E 0 80 54 00
        E 0 80 56 00
        E 0 80 60 00
        E 0 80 62 00
        E 120 90 18 60
        E 0 90 1f 60
        E 0 90 3e 60
        E 0 90 48 60
        E 0 90 4a 60
        E 0 90 54 60
        E 0 90 56 60
        E 0 90 60 60
        E 0 90 62 60
        E 120 80 18 00
        E 0 80 1f 00
        E 0 80 3e 00
        E 0 80 48 00
        E 0 80 4a 00
        E 0 80 54 00
        E 0 80 56 00
        E 0 80 60 00
        E 0 80 62 00
        E 120 90 1f 60
        E 0 90 56 60
        E 0 90 62 60
        E 120 80 1f 00
        E 0 80 56 00
        E 0 80 62 00
        E 120 90 1a 60
        E 0 90 1f 60
        E 0 90 3d 60
        E 0 90 3e 60
        E 0 90 49 60
        E 0 90 4a 60
        E 0 90 55 60
        E 0 90 56 60
        E 0 90 61 60
        E 0 90 62 60
        E 120 80 1a 00
        E 0 80 1f 00
        E 0 80 3d 00
        E 0 80 3e 00
        E 0 80 49 00
        E 0 80 4a 00
        E 0 80 55 00
        E 0 80 56 00
        E 0 80 61 00
        E 0 80 62 00
        E 120 90 1f 60
        E 0 90 56 60
        E 0 90 62 60
        E 120 80 1f 00
        E 0 80 56 00
        E 0 80 62 00
        E 120 90 18 60
        E 0 90 3c 60
        E 0 90 48 60
        E 0 90 54 60
        E 0 90 60 60
        E 120 80 18 00
        E 0 80 3c 00
        E 0 80 48 00
        E 0 80 54 00
        E 0 80 60 00
        E 1800 90 78 60
        E 0 90 79 60
        E 0 90 7a 60
        E 0 90 7b 60
        E 0 90 7c 60
        E 1680 90 19 60
        E 0 90 1f 60
        E 0 90 57 60
        E 0 90 63 60
        E 120 80 1f 00
        E 0 80 57 00
        E 0 80 63 00
        <X 120 0
          /wFbaW50ZW5zZV0=
        >
        E 0 80 78 00
        E 0 80 79 00
        E 0 80 7a 00
        E 0 80 7b 00
        E 0 80 7c 00
        E 0 80 19 00
        E 0 90 18 60
        E 0 90 1f 60
        E 0 90 3e 60
        E 0 90 48 60
        E 0 90 4a 60
        E 0 90 54 60
        E 0 90 56 60
        E 0 90 60 60
        E 0 90 62 60
        E 0 90 74 60
        E 120 80 18 00
        E 0 80 1f 00
        E 0 80 3e 00
        E 0 80 48 00
        E 0 80 4a 00
        E 0 80 54 00
        E 0 80 56 00
        E 0 80 60 00
        E 0 80 62 00
        E 120 90 1f 60
        E 0 90 56 60
        E 0 90 62 60
        E 120 80 1f 00
        E 0 80 56 00
        E 0 80 62 00
        E 120 90 1a 60
        E 0 90 1f 60
        E 0 90 3d 60
        E 0 90 3e 60
        E 0 90 49 60
        E 0 90 4a 60
        E 0 90 55 60
        E 0 90 56 60
        E 0 90 61 60
        E 0 90 62 60
        E 120 80 1a 00
        E 0 80 1f 00
        E 0 80 3d 00
        E 0 80 3e 00
        E 0 80 49 00
        E 0 80 4a 00
        E 0 80 55 00
        E 0 80 56 00
        E 0 80 61 00
        E 0 80 62 00
        E 120 90 18 60
        E 0 90 1f 60
        E 0 90 54 60
        E 0 90 56 60
        E 0 90 60 60
        E 0 90 62 60
        E 120 80 18 00
        E 0 80 1f 00
        E 0 80 54 00
        E 0 80 56 00
        E 0 80 60 00
        E 0 80 62 00
        E 120 90 18 60
        E 0 90 1f 60
        E 0 90 3e 60
        E 0 90 48 60
        E 0 90 4a 60
        E 0 90 54 60
        E 0 90 56 60
        E 0 90 60 60
        E 0 90 62 60
        E 120 80 18 00
        E 0 80 1f 00
        E 0 80 3e 00
        E 0 80 48 00
        E 0 80 4a 00
        E 0 80 54 00
        E 0 80 56 00
        E 0 80 60 00
        E 0 80 62 00
        E 120 90 1f 60
        E 0 90 56 60
        E 0 90 62 60
        E 120 80 1f 00
        E 0 80 56 00
        E 0 80 62 00
        E 120 90 1a 60
        E 0 90 1f 60
        E 0 90 3d 60
        E 0 90 3e 60
        E 0 90 49 60
        E 0 90 4a 60
        E 0 90 55 60
        E 0 90 56 60
        E 0 90 61 60
        E 0 90 62 60
        E 120 80 1a 00
        E 0 80 1f 00
        E 0 80 3d 00
        E 0 80 3e 00
        E 0 80 49 00
        E 0 80 4a 00
        E 0 80 55 00
        E 0 80 56 00
        E 0 80 61 00
        E 0 80 62 00
        E 120 90 1f 60
        E 0 90 56 60
        E 0 90 62 60
        E 120 80 1f 00
        E 0 80 56 00
        E 0 80 62 00
        E 120 90 18 60
        E 0 90 1f 60
        E 0 90 3e 60
        E 0 90 48 60
        E 0 90 4a 60
        E 0 90 54 60
        E 0 90 56 60
        E 0 90 60 60
        E 0 90 62 60
        E 120 80 18 00
        E 0 80 1f 00
        E 0 80 3e 00
        E 0 80 48 00
        E 0 80 4a 00
        E 0 80 54 00
        E 0 80 56 00
        E 0 80 60 00
        E 0 80 62 00
        E 120 90 1f 60
        E 0 90 56 60
        E 0 90 62 60
        E 120 80 1f 00
        E 0 80 56 00
        E 0 80 62 00
        E 120 90 1a 60
        E 0 90 1f 60
        E 0 90 3d 60
        E 0 90 3e 60
        E 0 90 49 60
        E 0 90 4a 60
        E 0 90 55 60
        E 0 90 56 60
        E 0 90 61 60
        E 0 90 62 60
        E 120 80 1a 00
        E 0 80 1f 00
        E 0 80 3d 00
        E 0 80 3e 00
        E 0 80 49 00
        E 0 80 4a 00
        E 0 80 55 00
        E 0 80 56 00
        E 0 80 61 00
        E 0 80 62 00
        E 120 90 18 60
        E 0 90 1f 60
        E 0 90 54 60
        E 0 90 56 60
        E 0 90 60 60
        E 0 90 62 60
        E 120 80 18 00
        E 0 80 1f 00
        E 0 80 54 00
        E 0 80 56 00
        E 0 80 60 00
        E 0 80 62 00
        E 120 90 18 60
        E 0 90 1f 60
        E 0 90 3e 60
        E 0 90 48 60
        E 0 90 4a 60
        E 0 90 54 60
        E 0 90 56 60
        E 0 90 60 60
        E 0 90 62 60
        E 120 80 18 00
        E 0 80 1f 00
        E 0 80 3e 00
        E 0 80 48 00
        E 0 80 4a 00
        E 0 80 54 00
        E 0 80 56 00
        E 0 80 60 00
        E 0 80 62 00
        E 120 90 1f 60
        E 0 90 56 60
        E 0 90 62 60
        E 120 80 1f 00
        E 0 80 56 00
        E 0 80 62 00
        E 120 90 1a 60
        E 0 90 1f 60
        E 0 90 3d 60
        E 0 90 3e 60
        E 0 90 49 60
        E 0 90 4a 60
        E 0 90 55 60
        E 0 90 56 60
        E 0 90 61 60
        E 0 90 62 60
        E 120 80 1a 00
        E 0 80 1f 00
        E 0 80 3d 00
        E 0 80 3e 00
        E 0 80 49 00
        E 0 80 4a 00
        E 0 80 55 00
        E 0 80 56 00
        E 0 80 61 00
        E 0 80 62 00
        E 120 90 1f 60
        E 0 90 56 60
        E 0 90 62 60
        E 120 80 1f 00
        E 0 80 56 00
        E 0 80 62 00
        E 120 90 18 60
        E 0 90 1f 60
        E 0 90 3e 60
        E 0 90 48 60
        E 0 90 4a 60
        E 0 90 54 60
        E 0 90 56 60
        E 0 90 60 60
        E 0 90 62 60
        E 120 80 74 00
        E 0 80 18 00
        E 0 80 1f 00
        E 0 80 3e 00
        E 0 80 48 00
        E 0 80 4a 00
        E 0 80 54 00
        E 0 80 56 00
        E 0 80 60 00
        E 0 80 62 00
        E 120 90 1f 60
        E 0 90 56 60
        E 0 90 62 60
        E 120 80 1f 00
        E 0 80 56 00
        E 0 80 62 00
        E 120 90 1a 60
        E 0 90 1f 60
        E 0 90 3d 60
        E 0 90 3e 60
        E 0 90 49 60
        E 0 90 4a 60
        E 0 90 55 60
        E 0 90 56 60
        E 0 90 61 60
        E 0 90 62 60
        E 120 80 1a 00
        E 0 80 1f 00
        E 0 80 3d 00
        E 0 80 3e 00
        E 0 80 49 00
        E 0 80 4a 00
        E 0 80 55 00
        E 0 80 56 00
        E 0 80 61 00
        E 0 80 62 00
        E 120 90 18 60
        E 0 90 1f 60
        E 0 90 54 60
        E 0 90 56 60
        E 0 90 60 60
        E 0 90 62 60
        E 120 80 18 00
        E 0 80 1f 00
        E 0 80 54 00
        E 0 80 56 00
        E 0 80 60 00
        E 0 80 62 00
        E 120 90 18 60
        E 0 90 1f 60
        E 0 90 3e 60
        E 0 90 48 60
        E 0 90 4a 60
        E 0 90 54 60
        E 0 90 56 60
        E 0 90 60 60
        E 0 90 62 60
        E 120 80 18 00
        E 0 80 1f 00
        E 0 80 3e 00
        E 0 80 48 00
        E 0 80 4a 00
        E 0 80 54 00
        E 0 80 56 00
        E 0 80 60 00
        E 0 80 62 00
        E 120 90 1f 60
        E 0 90 56 60
        E 0 90 62 60
        E 120 80 1f 00
        E 0 80 56 00
        E 0 80 62 00
        E 120 90 1a 60
        E 0 90 1f 60
        E 0 90 3d 60
        E 0 90 3e 60
        E 0 90 49 60
        E 0 90 4a 60
        E 0 90 55 60
        E 0 90 56 60
        E 0 90 61 60
        E 0 90 62 60
        E 120 80 1a 00
        E 0 80 1f 00
        E 0 80 3d 00
        E 0 80 3e 00
        E 0 80 49 00
        E 0 80 4a 00
        E 0 80 55 00
        E 0 80 56 00
        E 0 80 61 00
        E 0 80 62 00
        E 120 90 1f 60
        E 0 90 56 60
        E 0 90 62 60
        E 120 80 1f 00
        E 0 80 56 00
        E 0 80 62 00
        E 120 90 18 60
        E 0 90 1f 60
        E 0 90 3e 60
        E 0 90 48 60
        E 0 90 4a 60
        E 0 90 54 60
        E 0 90 56 60
        E 0 90 60 60
        E 0 90 62 60
        E 0 90 78 60
        E 0 90 79 60
        E 0 90 7a 60
        E 0 90 7b 60
        E 0 90 7c 60
        E 120 80 18 00
        E 0 80 1f 00
        E 0 80 3e 00
        E 0 80 48 00
        E 0 80 4a 00
        E 0 80 54 00
        E 0 80 56 00
        E 0 80 60 00
        E 0 80 62 00
        E 120 90 1f 60
        E 0 90 56 60
        E 0 90 62 60
        E 120 80 1f 00
        E 0 80 56 00
        E 0 80 62 00
        E 120 90 1a 60
        E 0 90 1f 60
        E 0 90 3d 60
        E 0 90 3e 60
        E 0 90 49 60
        E 0 90 4a 60
        E 0 90 55 60
        E 0 90 56 60
        E 0 90 61 60
        E 0 90 62 60
        E 120 80 1a 00
        E 0 80 1f 00
        E 0 80 3d 00
        E 0 80 3e 00
        E 0 80 49 00
        E 0 80 4a 00
        E 0 80 55 00
        E 0 80 56 00
        E 0 80 61 00
        E 0 80 62 00
        E 120 90 18 60
        E 0 90 1f 60
        E 0 90 54 60
        E 0 90 56 60
        E 0 90 60 60
        E 0 90 62 60
        E 120 80 18 00
        E 0 80 1f 00
        E 0 80 54 00
        E 0 80 56 00
        E 0 80 60 00
        E 0 80 62 00
        E 120 90 18 60
        E 0 90 1f 60
        E 0 90 3e 60
        E 0 90 48 60
        E 0 90 4a 60
        E 0 90 54 60
        E 0 90 56 60
        E 0 90 60 60
        E 0 90 62 60
        E 120 80 18 00
        E 0 80 1f 00
        E 0 80 3e 00
        E 0 80 48 00
        E 0 80 4a 00
        E 0 80 54 00
        E 0 80 56 00
        E 0 80 60 00
        E 0 80 62 00
        E 120 90 1f 60
        E 0 90 56 60
        E 0 90 62 60
        E 120 80 1f 00
        E 0 80 56 00
        E 0 80 62 00
        E 120 90 1a 60
        E 0 90 1f 60
        E 0 90 3d 60
        E 0 90 3e 60
        E 0 90 49 60
        E 0 90 4a 60
        E 0 90 55 60
        E 0 90 56 60
        E 0 90 61 60
        E 0 90 62 60
        E 120 80 1a 00
        E 0 80 1f 00
        E 0 80 3d 00
        E 0 80 3e 00
        E 0 80 49 00
        E 0 80 4a 00
        E 0 80 55 00
        E 0 80 56 00
        E 0 80 61 00
        E 0 80 62 00
        E 120 90 19 60
        E 0 90 1f 60
        E 0 90 57 60
        E 0 90 63 60
        E 120 80 1f 00
        E 0 80 57 00
        E 0 80 63 00
        E 120 80 78 00
        E 0 80 79 00
        E 0 80 7a 00
        E 0 80 7b 00
        E 0 80 7c 00
        E 0 80 19 00
        E 0 90 18 60
        E 0 90 1f 60
        E 0 90 3e 60
        E 0 90 48 60
        E 0 90 4a 60
        E 0 90 54 60
        E 0 90 56 60
        E 0 90 60 60
        E 0 90 62 60
        E 120 80 18 00
        E 0 80 1f 00
        E 0 80 3e 00
        E 0 80 48 00
        E 0 80 4a 00
        E 0 80 54 00
        E 0 80 56 00
        E 0 80 60 00
        E 0 80 62 00
        E 120 90 1f 60
        E 0 90 56 60
        E 0 90 62 60
        E 120 80 1f 00
        E 0 80 56 00
        E 0 80 62 00
        E 120 90 1a 60
        E 0 90 1f 60
        E 0 90 3d 60
        E 0 90 3e 60
        E 0 90 49 60
        E 0 90 4a 60
        E 0 90 55 60
        E 0 90 56 60
        E 0 90 61 60
        E 0 90 62 60
        E 120 80 1a 00
        E 0 80 1f 00
        E 0 80 3d 00
        E 0 80 3e 00
        E 0 80 49 00
        E 0 80 4a 00
        E 0 80 55 00
        E 0 80 56 00
        E 0 80 61 00
        E 0 80 62 00
        E 120 90 18 60
        E 0 90 1f 60
        E 0 90 54 60
        E 0 90 56 60
        E 0 90 60 60
        E 0 90 62 60
        E 120 80 18 00
        E 0 80 1f 00
        E 0 80 54 00
        E 0 80 56 00
        E 0 80 60 00
        E 0 80 62 00
        E 120 90 18 60
        E 0 90 1f 60
        E 0 90 3e 60
        E 0 90 48 60
        E 0 90 4a 60
        E 0 90 54 60
        E 0 90 56 60
        E 0 90 60 60
        E 0 90 62 60
        E 120 80 18 00
        E 0 80 1f 00
        E 0 80 3e 00
        E 0 80 48 00
        E 0 80 4a 00
        E 0 80 54 00
        E 0 80 56 00
        E 0 80 60 00
        E 0 80 62 00
        E 120 90 1f 60
        E 0 90 56 60
        E 0 90 62 60
        E 120 80 1f 00
        E 0 80 56 00
        E 0 80 62 00
        E 120 90 1a 60
        E 0 90 1f 60
        E 0 90 3d 60
        E 0 90 3e 60
        E 0 90 49 60
        E 0 90 4a 60
        E 0 90 55 60
        E 0 90 56 60
        E 0 90 61 60
        E 0 90 62 60
        E 120 80 1a 00
        E 0 80 1f 00
        E 0 80 3d 00
        E 0 80 3e 00
        E 0 80 49 00
        E 0 80 4a 00
        E 0 80 55 00
        E 0 80 56 00
        E 0 80 61 00
        E 0 80 62 00
        E 120 90 1f 60
        E 0 90 56 60
        E 0 90 62 60
        E 120 80 1f 00
        E 0 80 56 00
        E 0 80 62 00
        E 120 90 18 60
        E 0 90 1f 60
        E 0 90 3e 60
        E 0 90 48 60
        E 0 90 4a 60
        E 0 90 54 60
        E 0 90 56 60
        E 0 90 60 60
        E 0 90 62 60
        E 120 80 18 00
        E 0 80 1f 00
        E 0 80 3e 00
        E 0 80 48 00
        E 0 80 4a 00
        E 0 80 54 00
        E 0 80 56 00
        E 0 80 60 00
        E 0 80 62 00
        E 120 90 1f 60
        E 0 90 56 60
        E 0 90 62 60
        E 120 80 1f 00
        E 0 80 56 00
        E 0 80 62 00
        E 120 90 1a 60
        E 0 90 1f 60
        E 0 90 3d 60
        E 0 90 3e 60
        E 0 90 49 60
        E 0 90 4a 60
        E 0 90 55 60
        E 0 90 56 60
        E 0 90 61 60
        E 0 90 62 60
        E 120 80 1a 00
        E 0 80 1f 00
        E 0 80 3d 00
        E 0 80 3e 00
        E 0 80 49 00
        E 0 80 4a 00
        E 0 80 55 00
        E 0 80 56 00
        E 0 80 61 00
        E 0 80 62 00
        E 120 90 18 60
        E 0 90 1f 60
        E 0 90 54 60
        E 0 90 56 60
        E 0 90 60 60
        E 0 90 62 60
        E 120 80 18 00
        E 0 80 1f 00
        E 0 80 54 00
        E 0 80 56 00
        E 0 80 60 00
        E 0 80 62 00
        E 120 90 18 60
        E 0 90 1f 60
        E 0 90 3e 60
        E 0 90 48 60
        E 0 90 4a 60
        E 0 90 54 60
        E 0 90 56 60
        E 0 90 60 60
        E 0 90 62 60
        E 120 80 18 00
        E 0 80 1f 00
        E 0 80 3e 00
        E 0 80 48 00
        E 0 80 4a 00
        E 0 80 54 00
        E 0 80 56 00
        E 0 80 60 00
        E 0 80 62 00
        E 120 90 1f 60
        E 0 90 56 60
        E 0 90 62 60
        E 120 80 1f 00
        E 0 80 56 00
        E 0 80 62 00
        E 120 90 1a 60
        E 0 90 1f 60
        E 0 90 3d 60
        E 0 90 3e 60
        E 0 90 49 60
        E 0 90 4a 60
        E 0 90 55 60
        E 0 90 56 60
        E 0 90 61 60
        E 0 90 62 60
        E 120 80 1a 00
        E 0 80 1f 00
        E 0 80 3d 00
        E 0 80 3e 00
        E 0 80 49 00
        E 0 80 4a 00
        E 0 80 55 00
        E 0 80 56 00
        E 0 80 61 00
        E 0 80 62 00
        E 120 90 1f 60
        E 0 90 56 60
        E 0 90 62 60
        E 120 80 1f 00
        E 0 80 56 00
        E 0 80 62 00
        E 120 90 18 60
        E 0 90 1f 60
        E 0 90 3e 60
        E 0 90 48 60
        E 0 90 4a 60
        E 0 90 54 60
        E 0 90 56 60
        E 0 90 60 60
        E 0 90 62 60
        E 120 80 18 00
        E 0 80 1f 00
        E 0 80 3e 00
        E 0 80 48 00
        E 0 80 4a 00
        E 0 80 54 00
        E 0 80 56 00
        E 0 80 60 00
        E 0 80 62 00
        E 120 90 1f 60
        E 0 90 56 60
        E 0 90 62 60
        E 120 80 1f 00
        E 0 80 56 00
        E 0 80 62 00
        E 120 90 1a 60
        E 0 90 1f 60
        E 0 90 3d 60
        E 0 90 3e 60
        E 0 90 49 60
        E 0 90 4a 60
        E 0 90 55 60
        E 0 90 56 60
        E 0 90 61 60
        E 0 90 62 60
        E 120 80 1a 00
        E 0 80 1f 00
        E 0 80 3d 00
        E 0 80 3e 00
        E 0 80 49 00
        E 0 80 4a 00
        E 0 80 55 00
        E 0 80 56 00
        E 0 80 61 00
        E 0 80 62 00
        E 120 90 18 60
        E 0 90 1f 60
        E 0 90 54 60
        E 0 90 56 60
        E 0 90 60 60
        E 0 90 62 60
        E 120 80 18 00
        E 0 80 1f 00
        E 0 80 54 00
        E 0 80 56 00
        E 0 80 60 00
        E 0 80 62 00
        E 120 90 18 60
        E 0 90 1f 60
        E 0 90 3e 60
        E 0 90 48 60
        E 0 90 4a 60
        E 0 90 54 60
        E 0 90 56 60
        E 0 90 60 60
        E 0 90 62 60
        E 120 80 18 00
        E 0 80 1f 00
        E 0 80 3e 00
        E 0 80 48 00
        E 0 80 4a 00
        E 0 80 54 00
        E 0 80 56 00
        E 0 80 60 00
        E 0 80 62 00
        E 120 90 1f 60
        E 0 90 56 60
        E 0 90 62 60
        E 120 80 1f 00
        E 0 80 56 00
        E 0 80 62 00
        E 120 90 1a 60
        E 0 90 1f 60
        E 0 90 3d 60
        E 0 90 3e 60
        E 0 90 49 60
        E 0 90 4a 60
        E 0 90 55 60
        E 0 90 56 60
        E 0 90 61 60
        E 0 90 62 60
        E 120 80 1a 00
        E 0 80 1f 00
        E 0 80 3d 00
        E 0 80 3e 00
        E 0 80 49 00
        E 0 80 4a 00
        E 0 80 55 00
        E 0 80 56 00
        E 0 80 61 00
        E 0 80 62 00
        E 120 90 1f 60
        E 0 90 56 60
        E 0 90 62 60
        E 120 80 1f 00
        E 0 80 56 00
        E 0 80 62 00
        E 120 90 18 60
        E 0 90 1f 60
        E 0 90 3e 60
        E 0 90 48 60
        E 0 90 4a 60
        E 0 90 54 60
        E 0 90 56 60
        E 0 90 60 60
        E 0 90 62 60
        E 0 90 78 60
        E 0 90 79 60
        E 0 90 7a 60
        E 0 90 7b 60
        E 0 90 7c 60
        E 120 80 18 00
        E 0 80 1f 00
        E 0 80 3e 00
        E 0 80 48 00
        E 0 80 4a 00
        E 0 80 54 00
        E 0 80 56 00
        E 0 80 60 00
        E 0 80 62 00
        E 120 90 1f 60
        E 0 90 56 60
        E 0 90 62 60
        E 120 80 1f 00
        E 0 80 56 00
        E 0 80 62 00
        E 120 90 1a 60
        E 0 90 1f 60
        E 0 90 3d 60
        E 0 90 3e 60
        E 0 90 49 60
        E 0 90 4a 60
        E 0 90 55 60
        E 0 90 56 60
        E 0 90 61 60
        E 0 90 62 60
        E 120 80 1a 00
        E 0 80 1f 00
        E 0 80 3d 00
        E 0 80 3e 00
        E 0 80 49 00
        E 0 80 4a 00
        E 0 80 55 00
        E 0 80 56 00
        E 0 80 61 00
        E 0 80 62 00
        E 120 90 18 60
        E 0 90 1f 60
        E 0 90 54 60
        E 0 90 56 60
        E 0 90 60 60
        E 0 90 62 60
        E 120 80 18 00
        E 0 80 1f 00
        E 0 80 54 00
        E 0 80 56 00
        E 0 80 60 00
        E 0 80 62 00
        E 120 90 18 60
        E 0 90 1f 60
        E 0 90 3e 60
        E 0 90 48 60
        E 0 90 4a 60
        E 0 90 54 60
        E 0 90 56 60
        E 0 90 60 60
        E 0 90 62 60
        E 120 80 18 00
        E 0 80 1f 00
        E 0 80 3e 00
        E 0 80 48 00
        E 0 80 4a 00
        E 0 80 54 00
        E 0 80 56 00
        E 0 80 60 00
        E 0 80 62 00
        E 120 90 1f 60
        E 0 90 56 60
        E 0 90 62 60
        E 120 80 1f 00
        E 0 80 56 00
        E 0 80 62 00
        E 120 90 1a 60
        E 0 90 1f 60
        E 0 90 3d 60
        E 0 90 3e 60
        E 0 90 49 60
        E 0 90 4a 60
        E 0 90 55 60
        E 0 90 56 60
        E 0 90 61 60
        E 0 90 62 60
        E 120 80 1a 00
        E 0 80 1f 00
        E 0 80 3d 00
        E 0 80 3e 00
        E 0 80 49 00
        E 0 80 4a 00
        E 0 80 55 00
        E 0 80 56 00
        E 0 80 61 00
        E 0 80 62 00
        E 120 90 19 60
        E 0 90 1f 60
        E 0 90 57 60
        E 0 90 63 60
        E 120 80 1f 00
        E 0 80 57 00
        E 0 80 63 00
        E 120 80 78 00
        E 0 80 79 00
        E 0 80 7a 00
        E 0 80 7b 00
        E 0 80 7c 00
        E 0 80 19 00
        E 0 90 18 60
        E 0 90 1f 60
        E 0 90 3e 60
        E 0 90 48 60
        E 0 90 4a 60
        E 0 90 54 60
        E 0 90 56 60
        E 0 90 60 60
        E 0 90 62 60
        E 120 80 18 00
        E 0 80 1f 00
        E 0 80 3e 00
        E 0 80 48 00
        E 0 80 4a 00
        E 0 80 54 00
        E 0 80 56 00
        E 0 80 60 00
        E 0 80 62 00
        E 120 90 1f 60
        E 0 90 56 60
        E 0 90 62 60
        E 120 80 1f 00
        E 0 80 56 00
        E 0 80 62 00
        E 120 90 1a 60
        E 0 90 1f 60
        E 0 90 3d 60
        E 0 90 3e 60
        E 0 90 49 60
        E 0 90 4a 60
        E 0 90 55 60
        E 0 90 56 60
        E 0 90 61 60
        E 0 90 62 60
        E 120 80 1a 00
        E 0 80 1f 00
        E 0 80 3d 00
        E 0 80 3e 00
        E 0 80 49 00
        E 0 80 4a 00
        E 0 80 55 00
        E 0 80 56 00
        E 0 80 61 00
        E 0 80 62 00
        E 120 90 18 60
        E 0 90 1f 60
        E 0 90 54 60
        E 0 90 56 60
        E 0 90 60 60
        E 0 90 62 60
        E 120 80 18 00
        E 0 80 1f 00
        E 0 80 54 00
        E 0 80 56 00
        E 0 80 60 00
        E 0 80 62 00
        E 120 90 18 60
        E 0 90 1f 60
        E 0 90 3e 60
        E 0 90 48 60
        E 0 90 4a 60
        E 0 90 54 60
        E 0 90 56 60
        E 0 90 60 60
        E 0 90 62 60
        E 120 80 18 00
        E 0 80 1f 00
        E 0 80 3e 00
        E 0 80 48 00
        E 0 80 4a 00
        E 0 80 54 00
        E 0 80 56 00
        E 0 80 60 00
        E 0 80 62 00
        E 120 90 1f 60
        E 0 90 56 60
        E 0 90 62 60
        E 120 80 1f 00
        E 0 80 56 00
        E 0 80 62 00
        E 120 90 1a 60
        E 0 90 1f 60
        E 0 90 3d 60
        E 0 90 3e 60
        E 0 90 49 60
        E 0 90 4a 60
        E 0 90 55 60
        E 0 90 56 60
        E 0 90 61 60
        E 0 90 62 60
        E 120 80 1a 00
        E 0 80 1f 00
        E 0 80 3d 00
        E 0 80 3e 00
        E 0 80 49 00
        E 0 80 4a 00
        E 0 80 55 00
        E 0 80 56 00
        E 0 80 61 00
        E 0 80 62 00
        E 120 90 1f 60
        E 0 90 56 60
        E 0 90 62 60
        E 120 80 1f 00
        E 0 80 56 00
        E 0 80 62 00
        E 120 90 18 60
        E 0 90 1f 60
        E 0 90 3e 60
        E 0 90 48 60
        E 0 90 4a 60
        E 0 90 54 60
        E 0 90 56 60
        E 0 90 60 60
        E 0 90 62 60
        E 120 80 18 00
        E 0 80 1f 00
        E 0 80 3e 00
        E 0 80 48 00
        E 0 80 4a 00
        E 0 80 54 00
        E 0 80 56 00
        E 0 80 60 00
        E 0 80 62 00
        E 120 90 1f 60
        E 0 90 56 60
        E 0 90 62 60
        E 120 80 1f 00
        E 0 80 56 00
        E 0 80 62 00
        E 120 90 1a 60
        E 0 90 1f 60
        E 0 90 3d 60
        E 0 90 3e 60
        E 0 90 49 60
        E 0 90 4a 60
        E 0 90 55 60
        E 0 90 56 60
        E 0 90 61 60
        E 0 90 62 60
        E 120 80 1a 00
        E 0 80 1f 00
        E 0 80 3d 00
        E 0 80 3e 00
        E 0 80 49 00
        E 0 80 4a 00
        E 0 80 55 00
        E 0 80 56 00
        E 0 80 61 00
        E 0 80 62 00
        E 120 90 18 60
        E 0 90 1f 60
        E 0 90 54 60
        E 0 90 56 60
        E 0 90 60 60
        E 0 90 62 60
        E 120 80 18 00
        E 0 80 1f 00
        E 0 80 54 00
        E 0 80 56 00
        E 0 80 60 00
        E 0 80 62 00
        E 120 90 18 60
        E 0 90 1f 60
        E 0 90 3e 60
        E 0 90 48 60
        E 0 90 4a 60
        E 0 90 54 60
        E 0 90 56 60
        E 0 90 60 60
        E 0 90 62 60
        E 120 80 18 00
        E 0 80 1f 00
        E 0 80 3e 00
        E 0 80 48 00
        E 0 80 4a 00
        E 0 80 54 00
        E 0 80 56 00
        E 0 80 60 00
        E 0 80 62 00
        E 120 90 1f 60
        E 0 90 56 60
        E 0 90 62 60
        E 120 80 1f 00
        E 0 80 56 00
        E 0 80 62 00
        E 120 90 1a 60
        E 0 90 1f 60
        E 0 90 3d 60
        E 0 90 3e 60
        E 0 90 49 60
        E 0 90 4a 60
        E 0 90 55 60
        E 0 90 56 60
        E 0 90 61 60
        E 0 90 62 60
        E 120 80 1a 00
        E 0 80 1f 00
        E 0 80 3d 00
        E 0 80 3e 00
        E 0 80 49 00
        E 0 80 4a 00
        E 0 80 55 00
        E 0 80 56 00
        E 0 80 61 00
        E 0 80 62 00
        E 120 90 1f 60
        E 0 90 56 60
        E 0 90 62 60
        E 120 80 1f 00
        E 0 80 56 00
        E 0 80 62 00
        E 120 90 18 60
        E 0 90 1f 60
        E 0 90 3e 60
        E 0 90 48 60
        E 0 90 4a 60
        E 0 90 54 60
        E 0 90 56 60
        E 0 90 60 60
        E 0 90 62 60
        E 120 80 18 00
        E 0 80 1f 00
        E 0 80 3e 00
        E 0 80 48 00
        E 0 80 4a 00
        E 0 80 54 00
        E 0 80 56 00
        E 0 80 60 00
        E 0 80 62 00
        E 120 90 1f 60
        E 0 90 56 60
        E 0 90 62 60
        E 120 80 1f 00
        E 0 80 56 00
        E 0 80 62 00
        E 120 90 1a 60
        E 0 90 1f 60
        E 0 90 3d 60
        E 0 90 3e 60
        E 0 90 49 60
        E 0 90 4a 60
        E 0 90 55 60
        E 0 90 56 60
        E 0 90 61 60
        E 0 90 62 60
        E 120 80 1a 00
        E 0 80 1f 00
        E 0 80 3d 00
        E 0 80 3e 00
        E 0 80 49 00
        E 0 80 4a 00
        E 0 80 55 00
        E 0 80 56 00
        E 0 80 61 00
        E 0 80 62 00
        E 120 90 18 60
        E 0 90 1f 60
        E 0 90 54 60
        E 0 90 56 60
        E 0 90 60 60
        E 0 90 62 60
        E 120 80 18 00
        E 0 80 1f 00
        E 0 80 54 00
        E 0 80 56 00
        E 0 80 60 00
        E 0 80 62 00
        E 120 90 18 60
        E 0 90 1f 60
        E 0 90 3e 60
        E 0 90 48 60
        E 0 90 4a 60
        E 0 90 54 60
        E 0 90 56 60
        E 0 90 60 60
        E 0 90 62 60
        E 120 80 18 00
        E 0 80 1f 00
        E 0 80 3e 00
        E 0 80 48 00
        E 0 80 4a 00
        E 0 80 54 00
        E 0 80 56 00
        E 0 80 60 00
        E 0 80 62 00
        E 120 90 1f 60
        E 0 90 56 60
        E 0 90 62 60
        E 120 80 1f 00
        E 0 80 56 00
        E 0 80 62 00
        E 120 90 1a 60
        E 0 90 1f 60
        E 0 90 3d 60
        E 0 90 3e 60
        E 0 90 49 60
        E 0 90 4a 60
        E 0 90 55 60
        E 0 90 56 60
        E 0 90 61 60
        E 0 90 62 60
        E 120 80 1a 00
        E 0 80 1f 00
        E 0 80 3d 00
        E 0 80 3e 00
        E 0 80 49 00
        E 0 80 4a 00
        E 0 80 55 00
        E 0 80 56 00
        E 0 80 61 00
        E 0 80 62 00
        E 120 90 18 60
        E 0 90 1f 60
        E 0 90 54 60
        E 0 90 56 60
        E 0 90 60 60
        E 0 90 62 60
        E 120 80 18 00
        E 0 80 1f 00
        E 0 80 54 00
        E 0 80 56 00
        E 0 80 60 00
        E 0 80 62 00
        E 120 90 18 60
        E 0 90 2a 60
        E 0 90 3f 60
        E 0 90 48 60
        E 0 90 4b 60
        E 0 90 54 60
        E 0 90 57 60
        E 0 90 60 60
        E 0 90 63 60
        E 120 80 18 00
        E 0 80 2a 00
        E 0 80 3f 00
        E 0 80 48 00
        E 0 80 4b 00
        E 0 80 54 00
        E 0 80 57 00
        E 0 80 60 00
        E 0 80 63 00
        <X 120 0
          /wFbaWRsZV9yZWFsdGltZV0=
        >
        E 9360 b0 7b 00
        GUID {E1C36B86-BEDD-4620-AD92-BEA026C6854A}
        IGNTEMPO 0 120.00000000 4 4
        SRCCOLOR 1
        VELLANE 132 71 60
        COLORMAP "C:\Program Files\REAPER\Data\color_maps\rockband_guitarbass.png"
        CFGEDITVIEW 176034.182193 63.727082 0 12 0 0 0
        CFGEDIT 1 1 0 1 1 0 1 1 1 1 1 0.25000000 -4 0 1025 558 0 2 1 1 0.00000000 0 1 0 0 0.500000 0 0 1.000000 64
        KEYSNAP 0 0 "102034050607" 0 "Major"
        EVTFILTER 0 -1 -1 -1 -1 0 1 0 0 -1.00000000 -1.00000000
      >
    >
  >
  <TRACK '{655AA27F-FFB8-47BF-AB1E-702B90E81CCA}'
    NAME "PART GUITAR"
    PEAKCOL 16576
    BEAT -1
    AUTOMODE 0
    VOLPAN 1.00000000000000 0.00000000000000 -1.00000000000000 -1.00000000000000 1.00000000000000
    MUTESOLO 0 0 0
    IPHASE 0
    ISBUS 1 1
    BUSCOMP 0 0
    SHOWINMIX 1 0.666700 0.500000 1 0.500000 -1 -1 -1
    FREEMODE 0
    SEL 1
    REC 0 0 0 0 0 0 0
    VU 2
    TRACKHEIGHT 0 0
    INQ 0 0 0 0.5000000000 100 0 0 100
    NCHAN 2
    FX 1
    TRACKID {655AA27F-FFB8-47BF-AB1E-702B90E81CCA}
    PERF 0
    MIDIOUT -1
    <MIDINOTENAMES
      0 127 "Trill Marker"
      0 126 "Tremolo Marker"
      0 125 "---"
      0 124 "BRE"
      0 123 "BRE"
      0 122 "BRE"
      0 121 "BRE"
      0 120 "BRE (use all 5)"
      0 119 "----"
      0 116 "OVERDRIVE"
      0 111 "----"
      0 103 "Solo Marker"
      0 102 "Force HOPO Off"
      0 101 "Force HOPO On"
      0 100 "EXPERT Orange"
      0 99 "EXPERT Blue"
      0 98 "EXPERT Yellow"
      0 97 "EXPERT Red"
      0 96 "EXPERT Green"
      0 91 "----"
      0 90 "Force HOPO Off"
      0 89 "Force HOPO On"
      0 88 "HARD Orange"
      0 87 "HARD Blue"
      0 86 "HARD Yellow"
      0 85 "HARD Red"
      0 84 "HARD Green"
      0 80 "----"
      0 76 "MEDIUM Orange"
      0 75 "MEDIUM Blue"
      0 74 "MEDIUM Yellow"
      0 73 "MEDIUM Red"
      0 72 "MEDIUM Green"
      0 68 "----"
      0 64 "EASY Orange"
      0 63 "EASY Blue"
      0 62 "EASY Yellow"
      0 61 "EASY Red"
      0 60 "EASY Green"
      0 59 "Left Hand Highest (Fret 12)"
      0 58 "-"
      0 57 "Fret 11"
      0 56 "Fret 10"
      0 55 "Fret 9"
      0 54 "-"
      0 53 "Fret 8"
      0 52 "Fret 7"
      0 51 "-"
      0 50 "Fret 6"
      0 49 "Fret 5"
      0 48 "-"
      0 47 "Fret 4"
      0 46 "-"
      0 45 "Fret 3"
      0 44 "-"
      0 43 "Fret 2"
      0 42 "-"
      0 41 "-"
      0 40 "Left Hand Lowest (Fret 1)"
    >
    MAINSEND 1 0
    <FXCHAIN
      WNDRECT 300 244 878 559
      SHOW 0
      LASTSEL 0
      DOCKED 0
      BYPASS 0 0
      <VST "VSTi: RBN Preview (RBN)" "rbprev_vst64.dll" 0 ""
        dnBicu5e7f4AAAAAAgAAAAEAAAAAAAAAAgAAAAAAAAAEAAAAAQAAAA==
        AAAQAAMAqgAAABAAAAA=
      >
      FLOATPOS 0 0 0 0
      FXID {45155B5B-CE2B-4B03-B6A7-F955C1A6B948}
      WAK 0
    >
    <ITEM
      POSITION 0.00000000000000
      SNAPOFFS 0.00000000000000
      LENGTH 194.42541950113377
      LOOP 0
      ALLTAKES 0
      SEL 0
      FADEIN 1 0.000000 0.000000 1 0
      FADEOUT 1 0.000000 0.000000 1 0
      MUTE 0
      IGUID {2D1CA1D2-F8CF-442A-90D9-1124556CDB07}
      IID 4
      NAME "PART GUITAR"
      VOLPAN 1.000000 0.000000 1.000000 -1.000000
      SOFFS 0.00000000000000 0.00000000000000
      PLAYRATE 1.00000000000000 1 0.00000000000000 -1
      CHANMODE 0
      GUID {222DC142-CD2F-44A6-8832-C2E23A12CC95}
      <SOURCE MIDI
        HASDATA 1 480 QN
        POOLEDEVTS {603909AF-A02A-4F2C-A226-4C15D78A2BE9}
        <X 0 0
          /wNQQVJUIEdVSVRBUg==
        >
        <X 4320 0
          /wFbbWFwIEhhbmRNYXBfQWxsQ2hvcmRzXQ==
        >
        <X 0 0
          /wFbcGxheV0=
        >
        E 240 90 56 60
        E 0 90 57 60
        E 0 90 62 60
        E 0 90 63 60
        E 120 80 56 00
        E 0 80 57 00
        E 0 80 62 00
        E 0 80 63 00
        E 120 90 40 60
        E 0 90 4b 60
        E 0 90 4c 60
        E 0 90 57 60
        E 0 90 58 60
        E 0 90 63 60
        E 0 90 64 60
        E 0 90 65 60
        E 120 80 40 00
        E 0 80 4b 00
        E 0 80 4c 00
        E 0 80 57 00
        E 0 80 58 00
        E 0 80 63 00
        E 0 80 64 00
        E 0 80 65 00
        E 360 90 49 60
        E 0 90 4b 60
        E 0 90 55 60
        E 0 90 57 60
        E 0 90 61 60
        E 0 90 63 60
        E 120 80 49 00
        E 0 80 4b 00
        E 0 80 55 00
        E 0 80 57 00
        E 0 80 61 00
        E 0 80 63 00
        E 360 90 3d 60
        E 0 90 49 60
        E 0 90 4a 60
        E 0 90 55 60
        E 0 90 56 60
        E 0 90 61 60
        E 0 90 62 60
        E 2400 80 3d 00
        E 0 80 49 00
        E 0 80 4a 00
        E 0 80 55 00
        E 0 80 56 00
        E 0 80 61 00
        E 0 80 62 00
        E 240 90 56 60
        E 0 90 57 60
        E 0 90 62 60
        E 0 90 63 60
        E 120 80 56 00
        E 0 80 57 00
        E 0 80 62 00
        E 0 80 63 00
        E 120 90 40 60
        E 0 90 4b 60
        E 0 90 4c 60
        E 0 90 57 60
        E 0 90 58 60
        E 0 90 63 60
        E 0 90 64 60
        E 0 90 65 60
        E 120 80 40 00
        E 0 80 4b 00
        E 0 80 4c 00
        E 0 80 57 00
        E 0 80 58 00
        E 0 80 63 00
        E 0 80 64 00
        E 0 80 65 00
        E 360 90 49 60
        E 0 90 4b 60
        E 0 90 55 60
        E 0 90 57 60
        E 0 90 61 60
        E 0 90 63 60
        E 120 80 49 00
        E 0 80 4b 00
        E 0 80 55 00
        E 0 80 57 00
        E 0 80 61 00
        E 0 80 63 00
        E 360 90 3d 60
        E 0 90 49 60
        E 0 90 4a 60
        E 0 90 55 60
        E 0 90 56 60
        E 0 90 61 60
        E 0 90 62 60
        E 2400 80 3d 00
        E 0 80 49 00
        E 0 80 4a 00
        E 0 80 55 00
        E 0 80 56 00
        E 0 80 61 00
        E 0 80 62 00
        E 240 90 56 60
        E 0 90 57 60
        E 0 90 62 60
        E 0 90 63 60
        E 120 80 56 00
        E 0 80 57 00
        E 0 80 62 00
        E 0 80 63 00
        E 120 90 40 60
        E 0 90 4b 60
        E 0 90 4c 60
        E 0 90 57 60
        E 0 90 58 60
        E 0 90 63 60
        E 0 90 64 60
        E 0 90 65 60
        E 120 80 40 00
        E 0 80 4b 00
        E 0 80 4c 00
        E 0 80 57 00
        E 0 80 58 00
        E 0 80 63 00
        E 0 80 64 00
        E 0 80 65 00
        E 360 90 49 60
        E 0 90 4b 60
        E 0 90 55 60
        E 0 90 57 60
        E 0 90 61 60
        E 0 90 63 60
        E 120 80 49 00
        E 0 80 4b 00
        E 0 80 55 00
        E 0 80 57 00
        E 0 80 61 00
        E 0 80 63 00
        E 360 90 3d 60
        E 0 90 49 60
        E 0 90 4a 60
        E 0 90 55 60
        E 0 90 56 60
        E 0 90 61 60
        E 0 90 62 60
        E 2400 80 3d 00
        E 0 80 49 00
        E 0 80 4a 00
        E 0 80 55 00
        E 0 80 56 00
        E 0 80 61 00
        E 0 80 62 00
        E 240 90 56 60
        E 0 90 57 60
        E 0 90 62 60
        E 0 90 63 60
        E 120 80 56 00
        E 0 80 57 00
        E 0 80 62 00
        E 0 80 63 00
        E 120 90 40 60
        E 0 90 4b 60
        E 0 90 4c 60
        E 0 90 57 60
        E 0 90 58 60
        E 0 90 63 60
        E 0 90 64 60
        E 0 90 65 60
        E 120 80 40 00
        E 0 80 4b 00
        E 0 80 4c 00
        E 0 80 57 00
        E 0 80 58 00
        E 0 80 63 00
        E 0 80 64 00
        E 0 80 65 00
        E 360 90 49 60
        E 0 90 4b 60
        E 0 90 55 60
        E 0 90 57 60
        E 0 90 61 60
        E 0 90 63 60
        E 120 80 49 00
        E 0 80 4b 00
        E 0 80 55 00
        E 0 80 57 00
        E 0 80 61 00
        E 0 80 63 00
        E 360 90 3d 60
        E 0 90 49 60
        E 0 90 4a 60
        E 0 90 55 60
        E 0 90 56 60
        E 0 90 61 60
        E 0 90 62 60
        E 1920 90 74 60
        E 480 80 3d 00
        E 0 80 49 00
        E 0 80 4a 00
        E 0 80 55 00
        E 0 80 56 00
        E 0 80 61 00
        E 0 80 62 00
        E 240 90 56 60
        E 0 90 57 60
        E 0 90 62 60
        E 0 90 63 60
        E 120 80 56 00
        E 0 80 57 00
        E 0 80 62 00
        E 0 80 63 00
        E 120 90 40 60
        E 0 90 4b 60
        E 0 90 4c 60
        E 0 90 57 60
        E 0 90 58 60
        E 0 90 63 60
        E 0 90 64 60
        E 0 90 65 60
        E 120 80 40 00
        E 0 80 4b 00
        E 0 80 4c 00
        E 0 80 57 00
        E 0 80 58 00
        E 0 80 63 00
        E 0 80 64 00
        E 0 80 65 00
        E 360 90 49 60
        E 0 90 4b 60
        E 0 90 55 60
        E 0 90 57 60
        E 0 90 61 60
        E 0 90 63 60
        E 120 80 49 00
        E 0 80 4b 00
        E 0 80 55 00
        E 0 80 57 00
        E 0 80 61 00
        E 0 80 63 00
        E 360 90 3d 60
        E 0 90 49 60
        E 0 90 4a 60
        E 0 90 55 60
        E 0 90 56 60
        E 0 90 61 60
        E 0 90 62 60
        E 120 80 74 00
        E 2280 80 3d 00
        E 0 80 49 00
        E 0 80 4a 00
        E 0 80 55 00
        E 0 80 56 00
        E 0 80 61 00
        E 0 80 62 00
        E 240 90 56 60
        E 0 90 57 60
        E 0 90 62 60
        E 0 90 63 60
        E 120 80 56 00
        E 0 80 57 00
        E 0 80 62 00
        E 0 80 63 00
        E 120 90 40 60
        E 0 90 4b 60
        E 0 90 4c 60
        E 0 90 57 60
        E 0 90 58 60
        E 0 90 63 60
        E 0 90 64 60
        E 0 90 65 60
        E 120 80 40 00
        E 0 80 4b 00
        E 0 80 4c 00
        E 0 80 57 00
        E 0 80 58 00
        E 0 80 63 00
        E 0 80 64 00
        E 0 80 65 00
        E 360 90 49 60
        E 0 90 4b 60
        E 0 90 55 60
        E 0 90 57 60
        E 0 90 61 60
        E 0 90 63 60
        E 120 80 49 00
        E 0 80 4b 00
        E 0 80 55 00
        E 0 80 57 00
        E 0 80 61 00
        E 0 80 63 00
        E 360 90 3d 60
        E 0 90 49 60
        E 0 90 4a 60
        E 0 90 55 60
        E 0 90 56 60
        E 0 90 61 60
        E 0 90 62 60
        E 2400 80 3d 00
        E 0 80 49 00
        E 0 80 4a 00
        E 0 80 55 00
        E 0 80 56 00
        E 0 80 61 00
        E 0 80 62 00
        E 240 90 56 60
        E 0 90 57 60
        E 0 90 62 60
        E 0 90 63 60
        E 120 80 56 00
        E 0 80 57 00
        E 0 80 62 00
        E 0 80 63 00
        E 120 90 40 60
        E 0 90 4b 60
        E 0 90 4c 60
        E 0 90 57 60
        E 0 90 58 60
        E 0 90 63 60
        E 0 90 64 60
        E 0 90 65 60
        E 120 80 40 00
        E 0 80 4b 00
        E 0 80 4c 00
        E 0 80 57 00
        E 0 80 58 00
        E 0 80 63 00
        E 0 80 64 00
        E 0 80 65 00
        E 360 90 49 60
        E 0 90 4b 60
        E 0 90 55 60
        E 0 90 57 60
        E 0 90 61 60
        E 0 90 63 60
        E 120 80 49 00
        E 0 80 4b 00
        E 0 80 55 00
        E 0 80 57 00
        E 0 80 61 00
        E 0 80 63 00
        E 360 90 3d 60
        E 0 90 49 60
        E 0 90 4a 60
        E 0 90 55 60
        E 0 90 56 60
        E 0 90 61 60
        E 0 90 62 60
        E 2400 80 3d 00
        E 0 80 49 00
        E 0 80 4a 00
        E 0 80 55 00
        E 0 80 56 00
        E 0 80 61 00
        E 0 80 62 00
        E 240 90 56 60
        E 0 90 57 60
        E 0 90 62 60
        E 0 90 63 60
        E 120 80 56 00
        E 0 80 57 00
        E 0 80 62 00
        E 0 80 63 00
        E 120 90 40 60
        E 0 90 4b 60
        E 0 90 4c 60
        E 0 90 57 60
        E 0 90 58 60
        E 0 90 63 60
        E 0 90 64 60
        E 0 90 65 60
        E 120 80 40 00
        E 0 80 4b 00
        E 0 80 4c 00
        E 0 80 57 00
        E 0 80 58 00
        E 0 80 63 00
        E 0 80 64 00
        E 0 80 65 00
        E 360 90 49 60
        E 0 90 4b 60
        E 0 90 55 60
        E 0 90 57 60
        E 0 90 61 60
        E 0 90 63 60
        E 120 80 49 00
        E 0 80 4b 00
        E 0 80 55 00
        E 0 80 57 00
        E 0 80 61 00
        E 0 80 63 00
        E 360 90 3d 60
        E 0 90 49 60
        E 0 90 4a 60
        E 0 90 55 60
        E 0 90 56 60
        E 0 90 61 60
        E 0 90 62 60
        E 2400 80 3d 00
        E 0 80 49 00
        E 0 80 4a 00
        E 0 80 55 00
        E 0 80 56 00
        E 0 80 61 00
        E 0 80 62 00
        E 0 90 74 60
        E 240 90 56 60
        E 0 90 57 60
        E 0 90 62 60
        E 0 90 63 60
        E 120 80 56 00
        E 0 80 57 00
        E 0 80 62 00
        E 0 80 63 00
        E 120 90 40 60
        E 0 90 4b 60
        E 0 90 4c 60
        E 0 90 57 60
        E 0 90 58 60
        E 0 90 63 60
        E 0 90 64 60
        E 0 90 65 60
        E 120 80 40 00
        E 0 80 4b 00
        E 0 80 4c 00
        E 0 80 57 00
        E 0 80 58 00
        E 0 80 63 00
        E 0 80 64 00
        E 0 80 65 00
        E 360 90 49 60
        E 0 90 4a 60
        E 0 90 55 60
        E 0 90 56 60
        E 0 90 61 60
        E 0 90 62 60
        E 120 80 49 00
        E 0 80 4a 00
        E 0 80 55 00
        E 0 80 56 00
        E 0 80 61 00
        E 0 80 62 00
        E 360 90 3e 60
        E 0 90 49 60
        E 0 90 4b 60
        E 0 90 55 60
        E 0 90 57 60
        E 0 90 61 60
        E 0 90 63 60
        E 120 80 74 00
        E 2280 80 3e 00
        E 0 80 49 00
        E 0 80 4b 00
        E 0 80 55 00
        E 0 80 57 00
        E 0 80 61 00
        E 0 80 63 00
        E 240 90 56 60
        E 0 90 57 60
        E 0 90 62 60
        E 0 90 63 60
        E 120 80 56 00
        E 0 80 57 00
        E 0 80 62 00
        E 0 80 63 00
        E 120 90 40 60
        E 0 90 4b 60
        E 0 90 4c 60
        E 0 90 57 60
        E 0 90 58 60
        E 0 90 63 60
        E 0 90 64 60
        E 0 90 65 60
        E 120 80 40 00
        E 0 80 4b 00
        E 0 80 4c 00
        E 0 80 57 00
        E 0 80 58 00
        E 0 80 63 00
        E 0 80 64 00
        E 0 80 65 00
        E 360 90 49 60
        E 0 90 4b 60
        E 0 90 55 60
        E 0 90 57 60
        E 0 90 61 60
        E 0 90 63 60
        E 120 80 49 00
        E 0 80 4b 00
        E 0 80 55 00
        E 0 80 57 00
        E 0 80 61 00
        E 0 80 63 00
        E 360 90 3f 60
        E 0 90 4a 60
        E 0 90 4b 60
        E 0 90 56 60
        E 0 90 57 60
        E 0 90 62 60
        E 0 90 63 60
        E 3360 80 3f 00
        E 0 80 4a 00
        E 0 80 4b 00
        E 0 80 56 00
        E 0 80 57 00
        E 0 80 62 00
        E 0 80 63 00
        <X 480 0
          /wFbaW50ZW5zZV0=
        >
        <X 0 0
          /wFbbWFwIEhhbmRNYXBfTm9DaG9yZHNd
        >
        E 0 90 74 60
        E 480 90 4a 60
        E 0 90 56 60
        E 0 90 62 60
        E 120 80 4a 00
        E 0 80 56 00
        E 0 80 62 00
        E 360 90 3c 60
        E 0 90 49 60
        E 0 90 55 60
        E 0 90 61 60
        E 120 80 3c 00
        E 0 80 49 00
        E 0 80 55 00
        E 0 80 61 00
        E 360 90 4a 60
        E 0 90 56 60
        E 0 90 62 60
        E 120 80 4a 00
        E 0 80 56 00
        E 0 80 62 00
        E 120 90 57 60
        E 0 90 63 60
        E 120 80 57 00
        E 0 80 63 00
        E 360 90 4b 60
        E 0 90 57 60
        E 0 90 63 60
        E 120 80 4b 00
        E 0 80 57 00
        E 0 80 63 00
        E 360 90 55 60
        E 0 90 61 60
        E 120 80 55 00
        E 0 80 61 00
        E 120 90 40 60
        E 0 90 4c 60
        E 0 90 58 60
        E 0 90 64 60
        E 120 80 40 00
        E 0 80 4c 00
        E 0 80 58 00
        E 0 80 64 00
        E 120 90 58 60
        E 0 90 64 60
        E 120 80 58 00
        E 0 80 64 00
        E 120 90 49 60
        E 0 90 55 60
        E 0 90 61 60
        E 120 80 49 00
        E 0 80 55 00
        E 0 80 61 00
        E 120 90 49 60
        E 0 90 55 60
        E 0 90 61 60
        E 120 80 49 00
        E 0 80 55 00
        E 0 80 61 00
        E 120 80 74 00
        E 480 90 4a 60
        E 0 90 56 60
        E 0 90 62 60
        E 120 80 4a 00
        E 0 80 56 00
        E 0 80 62 00
        E 360 90 3c 60
        E 0 90 49 60
        E 0 90 55 60
        E 0 90 61 60
        E 120 80 3c 00
        E 0 80 49 00
        E 0 80 55 00
        E 0 80 61 00
        E 360 90 4a 60
        E 0 90 56 60
        E 0 90 62 60
        E 120 80 4a 00
        E 0 80 56 00
        E 0 80 62 00
        E 120 90 57 60
        E 0 90 63 60
        E 120 80 57 00
        E 0 80 63 00
        E 360 90 57 60
        E 0 90 63 60
        E 120 80 57 00
        E 0 80 63 00
        E 120 90 4a 60
        E 0 90 56 60
        E 0 90 62 60
        E 120 80 4a 00
        E 0 80 56 00
        E 0 80 62 00
        E 120 90 56 60
        E 0 90 62 60
        E 120 80 56 00
        E 0 80 62 00
        E 120 90 3c 60
        E 0 90 49 60
        E 0 90 55 60
        E 0 90 61 60
        E 120 80 3c 00
        E 0 80 49 00
        E 0 80 55 00
        E 0 80 61 00
        E 120 90 55 60
        E 0 90 61 60
        E 120 80 55 00
        E 0 80 61 00
        E 120 90 3c 60
        E 0 90 48 60
        E 0 90 54 60
        E 0 90 60 60
        E 120 80 3c 00
        E 0 80 48 00
        E 0 80 54 00
        E 0 80 60 00
        E 120 90 48 60
        E 0 90 54 60
        E 0 90 60 60
        E 120 80 48 00
        E 0 80 54 00
        E 0 80 60 00
        E 600 90 4a 60
        E 0 90 56 60
        E 0 90 62 60
        E 120 80 4a 00
        E 0 80 56 00
        E 0 80 62 00
        E 360 90 3c 60
        E 0 90 49 60
        E 0 90 55 60
        E 0 90 61 60
        E 120 80 3c 00
        E 0 80 49 00
        E 0 80 55 00
        E 0 80 61 00
        E 360 90 4a 60
        E 0 90 56 60
        E 0 90 62 60
        E 120 80 4a 00
        E 0 80 56 00
        E 0 80 62 00
        E 120 90 57 60
        E 0 90 63 60
        E 120 80 57 00
        E 0 80 63 00
        E 360 90 4b 60
        E 0 90 57 60
        E 0 90 63 60
        E 120 80 4b 00
        E 0 80 57 00
        E 0 80 63 00
        E 360 90 55 60
        E 0 90 61 60
        E 120 80 55 00
        E 0 80 61 00
        E 120 90 40 60
        E 0 90 4c 60
        E 0 90 58 60
        E 0 90 64 60
        E 120 80 40 00
        E 0 80 4c 00
        E 0 80 58 00
        E 0 80 64 00
        E 120 90 58 60
        E 0 90 64 60
        E 120 80 58 00
        E 0 80 64 00
        E 120 90 49 60
        E 0 90 55 60
        E 0 90 61 60
        E 120 80 49 00
        E 0 80 55 00
        E 0 80 61 00
        E 120 90 49 60
        E 0 90 55 60
        E 0 90 61 60
        E 120 80 49 00
        E 0 80 55 00
        E 0 80 61 00
        E 600 90 4a 60
        E 0 90 56 60
        E 0 90 62 60
        E 120 80 4a 00
        E 0 80 56 00
        E 0 80 62 00
        E 360 90 3c 60
        E 0 90 49 60
        E 0 90 55 60
        E 0 90 61 60
        E 120 80 3c 00
        E 0 80 49 00
        E 0 80 55 00
        E 0 80 61 00
        E 360 90 4a 60
        E 0 90 56 60
        E 0 90 62 60
        E 120 80 4a 00
        E 0 80 56 00
        E 0 80 62 00
        E 120 90 57 60
        E 0 90 63 60
        E 120 80 57 00
        E 0 80 63 00
        E 360 90 57 60
        E 0 90 63 60
        E 120 80 57 00
        E 0 80 63 00
        E 120 90 4a 60
        E 0 90 56 60
        E 0 90 62 60
        E 120 80 4a 00
        E 0 80 56 00
        E 0 80 62 00
        E 120 90 56 60
        E 0 90 62 60
        E 120 80 56 00
        E 0 80 62 00
        E 120 90 3c 60
        E 0 90 49 60
        E 0 90 55 60
        E 0 90 61 60
        E 120 80 3c 00
        E 0 80 49 00
        E 0 80 55 00
        E 0 80 61 00
        E 120 90 55 60
        E 0 90 61 60
        E 120 80 55 00
        E 0 80 61 00
        E 120 90 4a 60
        E 0 90 56 60
        E 0 90 62 60
        E 120 80 4a 00
        E 0 80 56 00
        E 0 80 62 00
        E 840 90 4a 60
        E 0 90 56 60
        E 0 90 62 60
        E 120 80 4a 00
        E 0 80 56 00
        E 0 80 62 00
        E 360 90 3c 60
        E 0 90 49 60
        E 0 90 55 60
        E 0 90 61 60
        E 120 80 3c 00
        E 0 80 49 00
        E 0 80 55 00
        E 0 80 61 00
        E 360 90 4a 60
        E 0 90 56 60
        E 0 90 62 60
        E 120 80 4a 00
        E 0 80 56 00
        E 0 80 62 00
        E 120 90 57 60
        E 0 90 63 60
        E 120 80 57 00
        E 0 80 63 00
        E 360 90 57 60
        E 0 90 63 60
        E 120 80 57 00
        E 0 80 63 00
        E 120 90 4a 60
        E 0 90 56 60
        E 0 90 62 60
        E 120 80 4a 00
        E 0 80 56 00
        E 0 80 62 00
        E 120 90 56 60
        E 0 90 62 60
        E 120 80 56 00
        E 0 80 62 00
        E 120 90 3c 60
        E 0 90 49 60
        E 0 90 55 60
        E 0 90 61 60
        E 120 80 3c 00
        E 0 80 49 00
        E 0 80 55 00
        E 0 80 61 00
        E 120 90 55 60
        E 0 90 61 60
        E 120 80 55 00
        E 0 80 61 00
        E 120 90 4a 60
        E 0 90 56 60
        E 0 90 62 60
        E 120 80 4a 00
        E 0 80 56 00
        E 0 80 62 00
        E 840 90 4a 60
        E 0 90 56 60
        E 0 90 62 60
        E 120 80 4a 00
        E 0 80 56 00
        E 0 80 62 00
        E 360 90 3c 60
        E 0 90 49 60
        E 0 90 55 60
        E 0 90 61 60
        E 120 80 3c 00
        E 0 80 49 00
        E 0 80 55 00
        E 0 80 61 00
        E 360 90 4a 60
        E 0 90 56 60
        E 0 90 62 60
        E 120 80 4a 00
        E 0 80 56 00
        E 0 80 62 00
        E 120 90 58 60
        E 0 90 64 60
        E 120 80 58 00
        E 0 80 64 00
        E 120 90 40 60
        E 0 90 4c 60
        E 0 90 58 60
        E 0 90 64 60
        E 2400 80 40 00
        E 0 80 4c 00
        E 0 80 58 00
        E 0 80 64 00
        <X 240 0
          /wFbcGxheV0=
        >
        <X 0 0
          /wFbbWFwIEhhbmRNYXBfQWxsQ2hvcmRzXQ==
        >
        E 0 90 56 60
        E 0 90 57 60
        E 0 90 62 60
        E 0 90 63 60
        E 120 80 56 00
        E 0 80 57 00
        E 0 80 62 00
        E 0 80 63 00
        E 120 90 40 60
        E 0 90 4b 60
        E 0 90 4c 60
        E 0 90 57 60
        E 0 90 58 60
        E 0 90 63 60
        E 0 90 64 60
        E 0 90 65 60
        E 120 80 40 00
        E 0 80 4b 00
        E 0 80 4c 00
        E 0 80 57 00
        E 0 80 58 00
        E 0 80 63 00
        E 0 80 64 00
        E 0 80 65 00
        E 360 90 49 60
        E 0 90 4b 60
        E 0 90 55 60
        E 0 90 57 60
        E 0 90 61 60
        E 0 90 63 60
        E 120 80 49 00
        E 0 80 4b 00
        E 0 80 55 00
        E 0 80 57 00
        E 0 80 61 00
        E 0 80 63 00
        E 360 90 3d 60
        E 0 90 49 60
        E 0 90 4a 60
        E 0 90 55 60
        E 0 90 56 60
        E 0 90 61 60
        E 0 90 62 60
        E 2400 80 3d 00
        E 0 80 49 00
        E 0 80 4a 00
        E 0 80 55 00
        E 0 80 56 00
        E 0 80 61 00
        E 0 80 62 00
        E 240 90 56 60
        E 0 90 57 60
        E 0 90 62 60
        E 0 90 63 60
        E 120 80 56 00
        E 0 80 57 00
        E 0 80 62 00
        E 0 80 63 00
        E 120 90 40 60
        E 0 90 4b 60
        E 0 90 4c 60
        E 0 90 57 60
        E 0 90 58 60
        E 0 90 63 60
        E 0 90 64 60
        E 0 90 65 60
        E 120 80 40 00
        E 0 80 4b 00
        E 0 80 4c 00
        E 0 80 57 00
        E 0 80 58 00
        E 0 80 63 00
        E 0 80 64 00
        E 0 80 65 00
        E 360 90 49 60
        E 0 90 4b 60
        E 0 90 55 60
        E 0 90 57 60
        E 0 90 61 60
        E 0 90 63 60
        E 120 80 49 00
        E 0 80 4b 00
        E 0 80 55 00
        E 0 80 57 00
        E 0 80 61 00
        E 0 80 63 00
        E 360 90 3d 60
        E 0 90 49 60
        E 0 90 4a 60
        E 0 90 55 60
        E 0 90 56 60
        E 0 90 61 60
        E 0 90 62 60
        E 2400 80 3d 00
        E 0 80 49 00
        E 0 80 4a 00
        E 0 80 55 00
        E 0 80 56 00
        E 0 80 61 00
        E 0 80 62 00
        E 240 90 56 60
        E 0 90 57 60
        E 0 90 62 60
        E 0 90 63 60
        E 120 80 56 00
        E 0 80 57 00
        E 0 80 62 00
        E 0 80 63 00
        E 120 90 40 60
        E 0 90 4b 60
        E 0 90 4c 60
        E 0 90 57 60
        E 0 90 58 60
        E 0 90 63 60
        E 0 90 64 60
        E 0 90 65 60
        E 120 80 40 00
        E 0 80 4b 00
        E 0 80 4c 00
        E 0 80 57 00
        E 0 80 58 00
        E 0 80 63 00
        E 0 80 64 00
        E 0 80 65 00
        E 360 90 49 60
        E 0 90 4b 60
        E 0 90 55 60
        E 0 90 57 60
        E 0 90 61 60
        E 0 90 63 60
        E 120 80 49 00
        E 0 80 4b 00
        E 0 80 55 00
        E 0 80 57 00
        E 0 80 61 00
        E 0 80 63 00
        E 360 90 3d 60
        E 0 90 49 60
        E 0 90 4a 60
        E 0 90 55 60
        E 0 90 56 60
        E 0 90 61 60
        E 0 90 62 60
        E 2400 80 3d 00
        E 0 80 49 00
        E 0 80 4a 00
        E 0 80 55 00
        E 0 80 56 00
        E 0 80 61 00
        E 0 80 62 00
        E 240 90 56 60
        E 0 90 57 60
        E 0 90 62 60
        E 0 90 63 60
        E 120 80 56 00
        E 0 80 57 00
        E 0 80 62 00
        E 0 80 63 00
        E 120 90 40 60
        E 0 90 4b 60
        E 0 90 4c 60
        E 0 90 57 60
        E 0 90 58 60
        E 0 90 63 60
        E 0 90 64 60
        E 0 90 65 60
        E 120 80 40 00
        E 0 80 4b 00
        E 0 80 4c 00
        E 0 80 57 00
        E 0 80 58 00
        E 0 80 63 00
        E 0 80 64 00
        E 0 80 65 00
        E 360 90 49 60
        E 0 90 4b 60
        E 0 90 55 60
        E 0 90 57 60
        E 0 90 61 60
        E 0 90 63 60
        E 120 80 49 00
        E 0 80 4b 00
        E 0 80 55 00
        E 0 80 57 00
        E 0 80 61 00
        E 0 80 63 00
        E 360 90 3d 60
        E 0 90 49 60
        E 0 90 4a 60
        E 0 90 55 60
        E 0 90 56 60
        E 0 90 61 60
        E 0 90 62 60
        E 1920 90 74 60
        E 480 80 3d 00
        E 0 80 49 00
        E 0 80 4a 00
        E 0 80 55 00
        E 0 80 56 00
        E 0 80 61 00
        E 0 80 62 00
        E 240 90 56 60
        E 0 90 57 60
        E 0 90 62 60
        E 0 90 63 60
        E 120 80 56 00
        E 0 80 57 00
        E 0 80 62 00
        E 0 80 63 00
        E 120 90 40 60
        E 0 90 4b 60
        E 0 90 4c 60
        E 0 90 57 60
        E 0 90 58 60
        E 0 90 63 60
        E 0 90 64 60
        E 0 90 65 60
        E 120 80 40 00
        E 0 80 4b 00
        E 0 80 4c 00
        E 0 80 57 00
        E 0 80 58 00
        E 0 80 63 00
        E 0 80 64 00
        E 0 80 65 00
        E 360 90 49 60
        E 0 90 4b 60
        E 0 90 55 60
        E 0 90 57 60
        E 0 90 61 60
        E 0 90 63 60
        E 120 80 49 00
        E 0 80 4b 00
        E 0 80 55 00
        E 0 80 57 00
        E 0 80 61 00
        E 0 80 63 00
        E 360 90 3d 60
        E 0 90 49 60
        E 0 90 4a 60
        E 0 90 55 60
        E 0 90 56 60
        E 0 90 61 60
        E 0 90 62 60
        E 120 80 74 00
        E 2280 80 3d 00
        E 0 80 49 00
        E 0 80 4a 00
        E 0 80 55 00
        E 0 80 56 00
        E 0 80 61 00
        E 0 80 62 00
        E 240 90 56 60
        E 0 90 57 60
        E 0 90 62 60
        E 0 90 63 60
        E 120 80 56 00
        E 0 80 57 00
        E 0 80 62 00
        E 0 80 63 00
        E 120 90 40 60
        E 0 90 4b 60
        E 0 90 4c 60
        E 0 90 57 60
        E 0 90 58 60
        E 0 90 63 60
        E 0 90 64 60
        E 0 90 65 60
        E 120 80 40 00
        E 0 80 4b 00
        E 0 80 4c 00
        E 0 80 57 00
        E 0 80 58 00
        E 0 80 63 00
        E 0 80 64 00
        E 0 80 65 00
        E 360 90 49 60
        E 0 90 4b 60
        E 0 90 55 60
        E 0 90 57 60
        E 0 90 61 60
        E 0 90 63 60
        E 120 80 49 00
        E 0 80 4b 00
        E 0 80 55 00
        E 0 80 57 00
        E 0 80 61 00
        E 0 80 63 00
        E 360 90 3d 60
        E 0 90 49 60
        E 0 90 4a 60
        E 0 90 55 60
        E 0 90 56 60
        E 0 90 61 60
        E 0 90 62 60
        E 2400 80 3d 00
        E 0 80 49 00
        E 0 80 4a 00
        E 0 80 55 00
        E 0 80 56 00
        E 0 80 61 00
        E 0 80 62 00
        E 240 90 56 60
        E 0 90 57 60
        E 0 90 62 60
        E 0 90 63 60
        E 120 80 56 00
        E 0 80 57 00
        E 0 80 62 00
        E 0 80 63 00
        E 120 90 40 60
        E 0 90 4b 60
        E 0 90 4c 60
        E 0 90 57 60
        E 0 90 58 60
        E 0 90 63 60
        E 0 90 64 60
        E 0 90 65 60
        E 120 80 40 00
        E 0 80 4b 00
        E 0 80 4c 00
        E 0 80 57 00
        E 0 80 58 00
        E 0 80 63 00
        E 0 80 64 00
        E 0 80 65 00
        E 360 90 49 60
        E 0 90 4b 60
        E 0 90 55 60
        E 0 90 57 60
        E 0 90 61 60
        E 0 90 63 60
        E 120 80 49 00
        E 0 80 4b 00
        E 0 80 55 00
        E 0 80 57 00
        E 0 80 61 00
        E 0 80 63 00
        E 360 90 3d 60
        E 0 90 49 60
        E 0 90 4a 60
        E 0 90 55 60
        E 0 90 56 60
        E 0 90 61 60
        E 0 90 62 60
        E 2400 80 3d 00
        E 0 80 49 00
        E 0 80 4a 00
        E 0 80 55 00
        E 0 80 56 00
        E 0 80 61 00
        E 0 80 62 00
        E 240 90 56 60
        E 0 90 57 60
        E 0 90 62 60
        E 0 90 63 60
        E 120 80 56 00
        E 0 80 57 00
        E 0 80 62 00
        E 0 80 63 00
        E 120 90 40 60
        E 0 90 4b 60
        E 0 90 4c 60
        E 0 90 57 60
        E 0 90 58 60
        E 0 90 63 60
        E 0 90 64 60
        E 0 90 65 60
        E 120 80 40 00
        E 0 80 4b 00
        E 0 80 4c 00
        E 0 80 57 00
        E 0 80 58 00
        E 0 80 63 00
        E 0 80 64 00
        E 0 80 65 00
        E 360 90 49 60
        E 0 90 4b 60
        E 0 90 55 60
        E 0 90 57 60
        E 0 90 61 60
        E 0 90 63 60
        E 120 80 49 00
        E 0 80 4b 00
        E 0 80 55 00
        E 0 80 57 00
        E 0 80 61 00
        E 0 80 63 00
        E 360 90 3d 60
        E 0 90 49 60
        E 0 90 4a 60
        E 0 90 55 60
        E 0 90 56 60
        E 0 90 61 60
        E 0 90 62 60
        E 1920 80 3d 00
        E 0 80 49 00
        E 0 80 4a 00
        E 240 80 55 00
        E 0 80 56 00
        E 0 80 61 00
        E 0 80 62 00
        <X 240 0
          /wFbbWFwIEhhbmRNYXBfTm9DaG9yZHNd
        >
        E 0 90 3d 60
        E 0 90 4a 60
        E 0 90 56 60
        E 0 90 62 60
        E 120 80 3d 00
        E 0 80 4a 00
        E 480 80 56 00
        E 0 80 62 00
        E 120 90 4a 60
        E 0 90 56 60
        E 0 90 62 60
        E 120 80 4a 00
        E 240 80 56 00
        E 0 80 62 00
        E 120 90 57 60
        E 0 90 63 60
        E 120 80 57 00
        E 0 80 63 00
        E 120 90 3c 60
        E 0 90 49 60
        E 0 90 55 60
        E 0 90 61 60
        E 480 80 3c 00
        E 0 80 49 00
        E 360 80 55 00
        E 0 80 61 00
        E 120 90 40 60
        E 0 90 4c 60
        E 0 90 58 60
        E 0 90 64 60
        E 480 80 40 00
        E 0 80 4c 00
        E 360 80 58 00
        E 0 80 64 00
        E 120 90 3e 60
        E 0 90 4b 60
        E 0 90 57 60
        E 0 90 63 60
        E 120 80 3e 00
        E 0 80 4b 00
        E 480 80 57 00
        E 0 80 63 00
        E 120 90 4a 60
        E 0 90 56 60
        E 0 90 62 60
        E 720 80 4a 00
        E 360 80 56 00
        E 0 80 62 00
        E 120 90 3c 60
        E 0 90 49 60
        E 0 90 55 60
        E 0 90 61 60
        E 480 80 3c 00
        E 0 80 49 00
        E 360 80 55 00
        E 0 80 61 00
        E 120 90 40 60
        E 0 90 4c 60
        E 0 90 58 60
        E 0 90 64 60
        E 0 90 74 60
        E 480 80 40 00
        E 0 80 4c 00
        E 360 80 58 00
        E 0 80 64 00
        E 120 90 3e 60
        E 0 90 4b 60
        E 0 90 57 60
        E 0 90 63 60
        E 120 80 3e 00
        E 0 80 4b 00
        E 480 80 57 00
        E 0 80 63 00
        E 120 90 4a 60
        E 0 90 56 60
        E 0 90 62 60
        E 720 80 4a 00
        E 360 80 56 00
        E 0 80 62 00
        <X 120 0
          /wFbaW50ZW5zZV0=
        >
        E 0 90 3c 60
        E 0 90 49 60
        E 0 90 55 60
        E 0 90 61 60
        E 120 80 3c 00
        E 0 80 49 00
        E 240 80 55 00
        E 0 80 61 00
        E 120 80 74 00
        E 0 90 4a 60
        E 0 90 56 60
        E 0 90 62 60
        E 120 80 4a 00
        E 0 80 56 00
        E 0 80 62 00
        E 360 90 3c 60
        E 0 90 49 60
        E 0 90 55 60
        E 0 90 61 60
        E 120 80 3c 00
        E 0 80 49 00
        E 0 80 55 00
        E 0 80 61 00
        E 360 90 4a 60
        E 0 90 56 60
        E 0 90 62 60
        E 120 80 4a 00
        E 0 80 56 00
        E 0 80 62 00
        E 120 90 57 60
        E 0 90 63 60
        E 120 80 57 00
        E 0 80 63 00
        E 360 90 4b 60
        E 0 90 57 60
        E 0 90 63 60
        E 120 80 4b 00
        E 0 80 57 00
        E 0 80 63 00
        E 360 90 55 60
        E 0 90 61 60
        E 120 80 55 00
        E 0 80 61 00
        E 120 90 40 60
        E 0 90 4c 60
        E 0 90 58 60
        E 0 90 64 60
        E 120 80 40 00
        E 0 80 4c 00
        E 0 80 58 00
        E 0 80 64 00
        E 120 90 58 60
        E 0 90 64 60
        E 120 80 58 00
        E 0 80 64 00
        E 120 90 49 60
        E 0 90 55 60
        E 0 90 61 60
        E 120 80 49 00
        E 0 80 55 00
        E 0 80 61 00
        E 120 90 55 60
        E 0 90 61 60
        E 120 80 55 00
        E 0 80 61 00
        E 600 90 4a 60
        E 0 90 56 60
        E 0 90 62 60
        E 120 80 4a 00
        E 0 80 56 00
        E 0 80 62 00
        E 360 90 3c 60
        E 0 90 49 60
        E 0 90 55 60
        E 0 90 61 60
        E 120 80 3c 00
        E 0 80 49 00
        E 0 80 55 00
        E 0 80 61 00
        E 360 90 4a 60
        E 0 90 56 60
        E 0 90 62 60
        E 120 80 4a 00
        E 0 80 56 00
        E 0 80 62 00
        E 120 90 57 60
        E 0 90 63 60
        E 120 80 57 00
        E 0 80 63 00
        E 360 90 57 60
        E 0 90 63 60
        E 120 80 57 00
        E 0 80 63 00
        E 120 90 4a 60
        E 0 90 56 60
        E 0 90 62 60
        E 120 80 4a 00
        E 0 80 56 00
        E 0 80 62 00
        E 120 90 56 60
        E 0 90 62 60
        E 120 80 56 00
        E 0 80 62 00
        E 120 90 3c 60
        E 0 90 49 60
        E 0 90 55 60
        E 0 90 61 60
        E 120 80 3c 00
        E 0 80 49 00
        E 0 80 55 00
        E 0 80 61 00
        E 120 90 55 60
        E 0 90 61 60
        E 120 80 55 00
        E 0 80 61 00
        E 120 90 48 60
        E 0 90 54 60
        E 0 90 60 60
        E 120 80 48 00
        E 0 80 54 00
        E 0 80 60 00
        E 120 90 54 60
        E 0 90 60 60
        E 120 80 54 00
        E 0 80 60 00
        E 600 90 4a 60
        E 0 90 56 60
        E 0 90 62 60
        E 120 80 4a 00
        E 0 80 56 00
        E 0 80 62 00
        E 360 90 3c 60
        E 0 90 49 60
        E 0 90 55 60
        E 0 90 61 60
        E 120 80 3c 00
        E 0 80 49 00
        E 0 80 55 00
        E 0 80 61 00
        E 360 90 4a 60
        E 0 90 56 60
        E 0 90 62 60
        E 120 80 4a 00
        E 0 80 56 00
        E 0 80 62 00
        E 120 90 57 60
        E 0 90 63 60
        E 120 80 57 00
        E 0 80 63 00
        E 360 90 4b 60
        E 0 90 57 60
        E 0 90 63 60
        E 120 80 4b 00
        E 0 80 57 00
        E 0 80 63 00
        E 360 90 55 60
        E 0 90 61 60
        E 120 80 55 00
        E 0 80 61 00
        E 120 90 40 60
        E 0 90 4c 60
        E 0 90 58 60
        E 0 90 64 60
        E 120 80 40 00
        E 0 80 4c 00
        E 0 80 58 00
        E 0 80 64 00
        E 120 90 58 60
        E 0 90 64 60
        E 120 80 58 00
        E 0 80 64 00
        E 120 90 49 60
        E 0 90 55 60
        E 0 90 61 60
        E 120 80 49 00
        E 0 80 55 00
        E 0 80 61 00
        E 120 90 55 60
        E 0 90 61 60
        E 120 80 55 00
        E 0 80 61 00
        E 600 90 4a 60
        E 0 90 56 60
        E 0 90 62 60
        E 120 80 4a 00
        E 0 80 56 00
        E 0 80 62 00
        E 360 90 3c 60
        E 0 90 49 60
        E 0 90 55 60
        E 0 90 61 60
        E 120 80 3c 00
        E 0 80 49 00
        E 0 80 55 00
        E 0 80 61 00
        E 360 90 4a 60
        E 0 90 56 60
        E 0 90 62 60
        E 120 80 4a 00
        E 0 80 56 00
        E 0 80 62 00
        E 120 90 57 60
        E 0 90 63 60
        E 120 80 57 00
        E 0 80 63 00
        E 360 90 57 60
        E 0 90 63 60
        E 120 80 57 00
        E 0 80 63 00
        E 120 90 4a 60
        E 0 90 56 60
        E 0 90 62 60
        E 120 80 4a 00
        E 0 80 56 00
        E 0 80 62 00
        E 120 90 56 60
        E 0 90 62 60
        E 120 80 56 00
        E 0 80 62 00
        E 120 90 3c 60
        E 0 90 49 60
        E 0 90 55 60
        E 0 90 61 60
        E 120 80 3c 00
        E 0 80 49 00
        E 0 80 55 00
        E 0 80 61 00
        E 120 90 55 60
        E 0 90 61 60
        E 120 80 55 00
        E 0 80 61 00
        E 120 90 4a 60
        E 0 90 56 60
        E 0 90 62 60
        E 120 80 4a 00
        E 0 80 56 00
        E 0 80 62 00
        E 840 90 4a 60
        E 0 90 56 60
        E 0 90 62 60
        E 120 80 4a 00
        E 0 80 56 00
        E 0 80 62 00
        E 360 90 3c 60
        E 0 90 49 60
        E 0 90 55 60
        E 0 90 61 60
        E 120 80 3c 00
        E 0 80 49 00
        E 0 80 55 00
        E 0 80 61 00
        E 360 90 4a 60
        E 0 90 56 60
        E 0 90 62 60
        E 120 80 4a 00
        E 0 80 56 00
        E 0 80 62 00
        E 120 90 57 60
        E 0 90 63 60
        E 120 80 57 00
        E 0 80 63 00
        E 360 90 57 60
        E 0 90 63 60
        E 120 80 57 00
        E 0 80 63 00
        E 120 90 4a 60
        E 0 90 56 60
        E 0 90 62 60
        E 120 80 4a 00
        E 0 80 56 00
        E 0 80 62 00
        E 120 90 56 60
        E 0 90 62 60
        E 120 80 56 00
        E 0 80 62 00
        E 120 90 3c 60
        E 0 90 49 60
        E 0 90 55 60
        E 0 90 61 60
        E 120 80 3c 00
        E 0 80 49 00
        E 0 80 55 00
        E 0 80 61 00
        E 120 90 55 60
        E 0 90 61 60
        E 120 80 55 00
        E 0 80 61 00
        E 120 90 4a 60
        E 0 90 56 60
        E 0 90 62 60
        E 120 80 4a 00
        E 0 80 56 00
        E 0 80 62 00
        E 840 90 4a 60
        E 0 90 56 60
        E 0 90 62 60
        E 120 80 4a 00
        E 0 80 56 00
        E 0 80 62 00
        E 360 90 3c 60
        E 0 90 49 60
        E 0 90 55 60
        E 0 90 61 60
        E 120 80 3c 00
        E 0 80 49 00
        E 0 80 55 00
        E 0 80 61 00
        E 360 90 4a 60
        E 0 90 56 60
        E 0 90 62 60
        E 120 80 4a 00
        E 0 80 56 00
        E 0 80 62 00
        E 120 90 58 60
        E 0 90 64 60
        E 120 80 58 00
        E 0 80 64 00
        E 120 90 40 60
        E 0 90 4c 60
        E 0 90 58 60
        E 0 90 64 60
        E 3360 80 40 00
        E 0 80 4c 00
        E 240 80 58 00
        E 0 80 64 00
        <X 240 0
          /wFbcGxheV9zb2xvXQ==
        >
        E 0 90 3c 60
        E 0 90 49 60
        E 0 90 55 60
        E 0 90 61 60
        E 0 90 67 60
        E 0 90 74 60
        E 480 80 3c 00
        E 0 80 49 00
        E 120 80 55 00
        E 0 80 61 00
        E 120 90 55 60
        E 0 90 61 60
        E 120 80 55 00
        E 0 80 61 00
        E 120 90 3d 60
        E 0 90 4a 60
        E 0 90 56 60
        E 0 90 62 60
        E 120 80 3d 00
        E 0 80 4a 00
        E 0 80 56 00
        E 0 80 62 00
        E 120 90 56 60
        E 0 90 62 60
        E 120 80 56 00
        E 0 80 62 00
        E 120 90 49 60
        E 0 90 55 60
        E 0 90 61 60
        E 120 80 49 00
        E 0 80 55 00
        E 0 80 61 00
        E 120 90 49 60
        E 0 90 55 60
        E 0 90 61 60
        E 120 80 49 00
        E 0 80 55 00
        E 0 80 61 00
        E 1080 90 3e 60
        E 0 90 4b 60
        E 0 90 57 60
        E 0 90 63 60
        E 120 80 3e 00
        E 0 80 4b 00
        E 0 80 57 00
        E 0 80 63 00
        E 120 90 57 60
        E 0 90 63 60
        E 120 80 57 00
        E 0 80 63 00
        E 120 90 4a 60
        E 0 90 56 60
        E 0 90 62 60
        E 120 80 4a 00
        E 0 80 56 00
        E 0 80 62 00
        E 120 90 55 60
        E 0 90 61 60
        E 120 80 55 00
        E 0 80 61 00
        E 120 90 3c 60
        E 0 90 48 60
        E 0 90 54 60
        E 0 90 60 60
        E 120 80 3c 00
        E 0 80 48 00
        E 0 80 54 00
        E 0 80 60 00
        E 120 90 48 60
        E 0 90 54 60
        E 0 90 60 60
        E 120 80 48 00
        E 0 80 54 00
        E 0 80 60 00
        E 120 80 74 00
        E 240 90 54 60
        E 0 90 60 60
        E 120 80 54 00
        E 0 80 60 00
        E 120 90 3d 60
        E 0 90 4a 60
        E 0 90 56 60
        E 0 90 62 60
        E 120 80 3d 00
        E 0 80 4a 00
        E 0 80 56 00
        E 0 80 62 00
        E 120 90 57 60
        E 0 90 63 60
        E 0 90 65 60
        E 120 80 57 00
        E 0 80 63 00
        E 0 80 65 00
        E 120 90 4b 60
        E 0 90 57 60
        E 0 90 63 60
        E 120 80 4b 00
        E 0 80 57 00
        E 0 80 63 00
        E 120 90 4b 60
        E 0 90 57 60
        E 0 90 63 60
        E 120 80 4b 00
        E 0 80 57 00
        E 0 80 63 00
        E 360 90 3d 60
        E 0 90 4a 60
        E 0 90 56 60
        E 0 90 62 60
        E 120 80 3d 00
        E 0 80 4a 00
        E 0 80 56 00
        E 0 80 62 00
        E 360 90 49 60
        E 0 90 55 60
        E 0 90 61 60
        E 120 80 49 00
        E 0 80 55 00
        E 0 80 61 00
        E 360 90 56 60
        E 0 90 62 60
        E 120 80 56 00
        E 0 80 62 00
        E 120 90 3c 60
        E 0 90 49 60
        E 0 90 55 60
        E 0 90 61 60
        E 120 80 3c 00
        E 0 80 49 00
        E 0 80 55 00
        E 0 80 61 00
        E 120 90 54 60
        E 0 90 60 60
        E 120 80 54 00
        E 0 80 60 00
        E 120 90 3c 60
        E 0 90 49 60
        E 0 90 55 60
        E 0 90 61 60
        E 480 80 3c 00
        E 0 80 49 00
        E 120 80 55 00
        E 0 80 61 00
        E 120 90 55 60
        E 0 90 61 60
        E 120 80 55 00
        E 0 80 61 00
        E 120 90 3d 60
        E 0 90 4a 60
        E 0 90 56 60
        E 0 90 62 60
        E 120 80 3d 00
        E 0 80 4a 00
        E 0 80 56 00
        E 0 80 62 00
        E 120 90 56 60
        E 0 90 62 60
        E 120 80 56 00
        E 0 80 62 00
        E 120 90 49 60
        E 0 90 55 60
        E 0 90 61 60
        E 120 80 49 00
        E 0 80 55 00
        E 0 80 61 00
        E 120 90 49 60
        E 0 90 55 60
        E 0 90 61 60
        E 120 80 49 00
        E 0 80 55 00
        E 0 80 61 00
        E 840 90 56 60
        E 0 90 62 60
        E 120 80 56 00
        E 0 80 62 00
        E 120 90 3e 60
        E 0 90 4b 60
        E 0 90 57 60
        E 0 90 63 60
        E 120 80 3e 00
        E 0 80 4b 00
        E 0 80 57 00
        E 0 80 63 00
        E 120 90 57 60
        E 0 90 63 60
        E 120 80 57 00
        E 0 80 63 00
        E 120 90 4a 60
        E 0 90 56 60
        E 0 90 62 60
        E 120 80 4a 00
        E 0 80 56 00
        E 0 80 62 00
        E 120 90 55 60
        E 0 90 61 60
        E 120 80 55 00
        E 0 80 61 00
        E 120 90 3c 60
        E 0 90 48 60
        E 0 90 54 60
        E 0 90 60 60
        E 120 80 3c 00
        E 0 80 48 00
        E 0 80 54 00
        E 0 80 60 00
        E 120 90 48 60
        E 0 90 54 60
        E 0 90 60 60
        E 120 80 48 00
        E 0 80 54 00
        E 0 80 60 00
        E 360 90 54 60
        E 0 90 60 60
        E 120 80 54 00
        E 0 80 60 00
        E 120 90 3d 60
        E 0 90 4a 60
        E 0 90 56 60
        E 0 90 62 60
        E 120 80 3d 00
        E 0 80 4a 00
        E 0 80 56 00
        E 0 80 62 00
        E 120 90 57 60
        E 0 90 63 60
        E 0 90 65 60
        E 120 80 57 00
        E 0 80 63 00
        E 0 80 65 00
        E 120 90 4b 60
        E 0 90 57 60
        E 0 90 63 60
        E 120 80 4b 00
        E 0 80 57 00
        E 0 80 63 00
        E 120 90 4b 60
        E 0 90 57 60
        E 0 90 63 60
        E 120 80 4b 00
        E 0 80 57 00
        E 0 80 63 00
        E 360 90 3d 60
        E 0 90 4a 60
        E 0 90 56 60
        E 0 90 62 60
        E 120 80 3d 00
        E 0 80 4a 00
        E 0 80 56 00
        E 0 80 62 00
        E 360 90 49 60
        E 0 90 55 60
        E 0 90 61 60
        E 120 80 49 00
        E 0 80 55 00
        E 0 80 61 00
        E 360 90 56 60
        E 0 90 62 60
        E 120 80 56 00
        E 0 80 62 00
        E 120 90 3c 60
        E 0 90 49 60
        E 0 90 55 60
        E 0 90 61 60
        E 120 80 3c 00
        E 0 80 49 00
        E 0 80 55 00
        E 0 80 61 00
        E 120 90 54 60
        E 0 90 60 60
        E 120 80 54 00
        E 0 80 60 00
        E 120 90 3c 60
        E 0 90 49 60
        E 0 90 55 60
        E 0 90 61 60
        E 480 80 3c 00
        E 0 80 49 00
        E 120 80 55 00
        E 0 80 61 00
        E 120 90 55 60
        E 0 90 61 60
        E 120 80 55 00
        E 0 80 61 00
        E 120 90 3d 60
        E 0 90 4a 60
        E 0 90 56 60
        E 0 90 62 60
        E 120 80 3d 00
        E 0 80 4a 00
        E 0 80 56 00
        E 0 80 62 00
        E 120 90 56 60
        E 0 90 62 60
        E 120 80 56 00
        E 0 80 62 00
        E 120 90 49 60
        E 0 90 55 60
        E 0 90 61 60
        E 120 80 49 00
        E 0 80 55 00
        E 0 80 61 00
        E 120 90 49 60
        E 0 90 55 60
        E 0 90 61 60
        E 120 80 49 00
        E 0 80 55 00
        E 0 80 61 00
        E 840 90 56 60
        E 0 90 62 60
        E 120 80 56 00
        E 0 80 62 00
        E 120 90 3e 60
        E 0 90 4b 60
        E 0 90 57 60
        E 0 90 63 60
        E 120 80 3e 00
        E 0 80 4b 00
        E 0 80 57 00
        E 0 80 63 00
        E 120 90 57 60
        E 0 90 63 60
        E 120 80 57 00
        E 0 80 63 00
        E 120 90 4a 60
        E 0 90 56 60
        E 0 90 62 60
        E 120 80 4a 00
        E 0 80 56 00
        E 0 80 62 00
        E 120 90 55 60
        E 0 90 61 60
        E 120 80 55 00
        E 0 80 61 00
        E 120 90 3c 60
        E 0 90 48 60
        E 0 90 54 60
        E 0 90 60 60
        E 0 90 74 60
        E 120 80 3c 00
        E 0 80 48 00
        E 0 80 54 00
        E 0 80 60 00
        E 120 90 48 60
        E 0 90 54 60
        E 0 90 60 60
        E 120 80 48 00
        E 0 80 54 00
        E 0 80 60 00
        E 360 90 54 60
        E 0 90 60 60
        E 120 80 54 00
        E 0 80 60 00
        E 120 90 3d 60
        E 0 90 4a 60
        E 0 90 56 60
        E 0 90 62 60
        E 120 80 3d 00
        E 0 80 4a 00
        E 0 80 56 00
        E 0 80 62 00
        E 120 90 57 60
        E 0 90 63 60
        E 0 90 65 60
        E 120 80 57 00
        E 0 80 63 00
        E 0 80 65 00
        E 120 90 4b 60
        E 0 90 57 60
        E 0 90 63 60
        E 120 80 4b 00
        E 0 80 57 00
        E 0 80 63 00
        E 120 90 4b 60
        E 0 90 57 60
        E 0 90 63 60
        E 120 80 4b 00
        E 0 80 57 00
        E 0 80 63 00
        E 360 90 3d 60
        E 0 90 4a 60
        E 0 90 56 60
        E 0 90 62 60
        E 120 80 3d 00
        E 0 80 4a 00
        E 0 80 56 00
        E 0 80 62 00
        E 360 90 49 60
        E 0 90 55 60
        E 0 90 61 60
        E 120 80 49 00
        E 0 80 55 00
        E 0 80 61 00
        E 360 90 56 60
        E 0 90 62 60
        E 120 80 56 00
        E 0 80 62 00
        E 120 90 3c 60
        E 0 90 49 60
        E 0 90 55 60
        E 0 90 61 60
        E 120 80 3c 00
        E 0 80 49 00
        E 0 80 55 00
        E 0 80 61 00
        E 120 90 54 60
        E 0 90 60 60
        E 120 80 54 00
        E 0 80 60 00
        E 120 90 3c 60
        E 0 90 49 60
        E 0 90 55 60
        E 0 90 61 60
        E 120 80 74 00
        E 360 80 3c 00
        E 0 80 49 00
        E 120 80 55 00
        E 0 80 61 00
        E 120 90 55 60
        E 0 90 61 60
        E 120 80 55 00
        E 0 80 61 00
        E 120 90 3d 60
        E 0 90 4a 60
        E 0 90 56 60
        E 0 90 62 60
        E 120 80 3d 00
        E 0 80 4a 00
        E 0 80 56 00
        E 0 80 62 00
        E 120 90 56 60
        E 0 90 62 60
        E 120 80 56 00
        E 0 80 62 00
        E 120 90 49 60
        E 0 90 55 60
        E 0 90 61 60
        E 120 80 49 00
        E 0 80 55 00
        E 0 80 61 00
        E 120 90 49 60
        E 0 90 55 60
        E 0 90 61 60
        E 120 80 49 00
        E 0 80 55 00
        E 0 80 61 00
        E 840 90 56 60
        E 0 90 62 60
        E 120 80 56 00
        E 0 80 62 00
        E 120 90 3e 60
        E 0 90 4b 60
        E 0 90 57 60
        E 0 90 63 60
        E 120 80 3e 00
        E 0 80 4b 00
        E 0 80 57 00
        E 0 80 63 00
        E 120 90 57 60
        E 0 90 63 60
        E 120 80 57 00
        E 0 80 63 00
        E 120 90 4a 60
        E 0 90 56 60
        E 0 90 62 60
        E 120 80 4a 00
        E 0 80 56 00
        E 0 80 62 00
        E 120 90 55 60
        E 0 90 61 60
        E 120 80 55 00
        E 0 80 61 00
        E 120 90 3c 60
        E 0 90 48 60
        E 0 90 54 60
        E 0 90 60 60
        E 120 80 3c 00
        E 0 80 48 00
        E 0 80 54 00
        E 0 80 60 00
        E 120 90 48 60
        E 0 90 54 60
        E 0 90 60 60
        E 120 80 48 00
        E 0 80 54 00
        E 0 80 60 00
        E 360 90 54 60
        E 0 90 60 60
        E 120 80 54 00
        E 0 80 60 00
        E 120 90 3d 60
        E 0 90 4a 60
        E 0 90 56 60
        E 0 90 62 60
        E 120 80 3d 00
        E 0 80 4a 00
        E 0 80 56 00
        E 0 80 62 00
        E 120 90 57 60
        E 0 90 63 60
        E 0 90 65 60
        E 120 80 57 00
        E 0 80 63 00
        E 0 80 65 00
        E 120 90 4b 60
        E 0 90 57 60
        E 0 90 63 60
        E 120 80 4b 00
        E 0 80 57 00
        E 0 80 63 00
        E 120 90 4b 60
        E 0 90 57 60
        E 0 90 63 60
        E 120 80 4b 00
        E 0 80 57 00
        E 0 80 63 00
        E 360 90 3d 60
        E 0 90 4a 60
        E 0 90 56 60
        E 0 90 62 60
        E 120 80 3d 00
        E 0 80 4a 00
        E 0 80 56 00
        E 0 80 62 00
        E 360 90 49 60
        E 0 90 55 60
        E 0 90 61 60
        E 120 80 49 00
        E 0 80 55 00
        E 0 80 61 00
        E 360 90 56 60
        E 0 90 62 60
        E 120 80 56 00
        E 0 80 62 00
        E 120 90 3c 60
        E 0 90 49 60
        E 0 90 55 60
        E 0 90 61 60
        E 120 80 3c 00
        E 0 80 49 00
        E 0 80 55 00
        E 0 80 61 00
        E 120 90 54 60
        E 0 90 60 60
        E 120 80 54 00
        E 0 80 60 00
        E 600 90 4a 60
        E 0 90 56 60
        E 0 90 62 60
        E 120 80 4a 00
        E 0 80 56 00
        E 0 80 62 00
        E 360 90 3c 60
        E 0 90 49 60
        E 0 90 55 60
        E 0 90 61 60
        E 120 80 3c 00
        E 0 80 49 00
        E 0 80 55 00
        E 0 80 61 00
        E 360 90 4a 60
        E 0 90 56 60
        E 0 90 62 60
        E 120 80 4a 00
        E 0 80 56 00
        E 0 80 62 00
        E 120 90 57 60
        E 0 90 63 60
        E 120 80 57 00
        E 0 80 63 00
        E 360 90 4b 60
        E 0 90 57 60
        E 0 90 63 60
        E 120 80 4b 00
        E 0 80 57 00
        E 0 80 63 00
        E 360 90 57 60
        E 0 90 63 60
        E 120 80 57 00
        E 0 80 63 00
        E 120 90 3d 60
        E 0 90 4a 60
        E 0 90 56 60
        E 0 90 62 60
        E 120 80 3d 00
        E 0 80 4a 00
        E 0 80 56 00
        E 0 80 62 00
        E 120 90 56 60
        E 0 90 62 60
        E 120 80 56 00
        E 0 80 62 00
        E 120 90 49 60
        E 0 90 55 60
        E 0 90 61 60
        E 120 80 49 00
        E 0 80 55 00
        E 0 80 61 00
        E 120 90 54 60
        E 0 90 60 60
        E 120 80 54 00
        E 0 80 60 00
        E 600 90 4a 60
        E 0 90 56 60
        E 0 90 62 60
        E 120 80 4a 00
        E 0 80 56 00
        E 0 80 62 00
        E 360 90 3c 60
        E 0 90 49 60
        E 0 90 55 60
        E 0 90 61 60
        E 120 80 3c 00
        E 0 80 49 00
        E 0 80 55 00
        E 0 80 61 00
        E 360 90 4a 60
        E 0 90 56 60
        E 0 90 62 60
        E 120 80 4a 00
        E 0 80 56 00
        E 0 80 62 00
        E 120 90 57 60
        E 0 90 63 60
        E 120 80 57 00
        E 0 80 63 00
        E 360 90 57 60
        E 0 90 63 60
        E 120 80 57 00
        E 0 80 63 00
        E 120 90 4a 60
        E 0 90 56 60
        E 0 90 62 60
        E 120 80 4a 00
        E 0 80 56 00
        E 0 80 62 00
        E 120 90 56 60
        E 0 90 62 60
        E 120 80 56 00
        E 0 80 62 00
        E 120 90 3c 60
        E 0 90 49 60
        E 0 90 55 60
        E 0 90 61 60
        E 120 80 3c 00
        E 0 80 49 00
        E 0 80 55 00
        E 0 80 61 00
        E 120 90 55 60
        E 0 90 61 60
        E 120 80 55 00
        E 0 80 61 00
        E 120 90 4a 60
        E 0 90 56 60
        E 0 90 62 60
        E 120 80 4a 00
        E 0 80 56 00
        E 0 80 62 00
        E 840 90 4a 60
        E 0 90 56 60
        E 0 90 62 60
        E 120 80 4a 00
        E 0 80 56 00
        E 0 80 62 00
        E 360 90 3c 60
        E 0 90 49 60
        E 0 90 55 60
        E 0 90 61 60
        E 120 80 3c 00
        E 0 80 49 00
        E 0 80 55 00
        E 0 80 61 00
        E 360 90 4a 60
        E 0 90 56 60
        E 0 90 62 60
        E 120 80 4a 00
        E 0 80 56 00
        E 0 80 62 00
        E 120 90 57 60
        E 0 90 63 60
        E 120 80 57 00
        E 0 80 63 00
        E 360 90 4b 60
        E 0 90 57 60
        E 0 90 63 60
        E 120 80 4b 00
        E 0 80 57 00
        E 0 80 63 00
        E 360 90 57 60
        E 0 90 63 60
        E 120 80 57 00
        E 0 80 63 00
        E 120 90 3d 60
        E 0 90 4a 60
        E 0 90 56 60
        E 0 90 62 60
        E 120 80 3d 00
        E 0 80 4a 00
        E 0 80 56 00
        E 0 80 62 00
        E 120 90 56 60
        E 0 90 62 60
        E 120 80 56 00
        E 0 80 62 00
        E 120 90 49 60
        E 0 90 55 60
        E 0 90 61 60
        E 120 80 49 00
        E 0 80 55 00
        E 0 80 61 00
        E 120 90 54 60
        E 0 90 60 60
        E 120 80 54 00
        E 0 80 60 00
        E 600 90 4a 60
        E 0 90 56 60
        E 0 90 62 60
        E 120 80 4a 00
        E 0 80 56 00
        E 0 80 62 00
        E 360 90 3c 60
        E 0 90 49 60
        E 0 90 55 60
        E 0 90 61 60
        E 120 80 3c 00
        E 0 80 49 00
        E 0 80 55 00
        E 0 80 61 00
        E 360 90 4a 60
        E 0 90 56 60
        E 0 90 62 60
        E 120 80 4a 00
        E 0 80 56 00
        E 0 80 62 00
        E 120 90 57 60
        E 0 90 63 60
        E 120 80 57 00
        E 0 80 63 00
        E 360 90 57 60
        E 0 90 63 60
        E 120 80 57 00
        E 0 80 63 00
        E 120 90 4a 60
        E 0 90 56 60
        E 0 90 62 60
        E 120 80 4a 00
        E 0 80 56 00
        E 0 80 62 00
        E 120 90 56 60
        E 0 90 62 60
        E 120 80 56 00
        E 0 80 62 00
        E 120 90 3c 60
        E 0 90 49 60
        E 0 90 55 60
        E 0 90 61 60
        E 120 80 3c 00
        E 0 80 49 00
        E 0 80 55 00
        E 0 80 61 00
        E 120 90 55 60
        E 0 90 61 60
        E 120 80 55 00
        E 0 80 61 00
        E 120 90 4a 60
        E 0 90 56 60
        E 0 90 62 60
        E 120 80 67 00
        E 0 80 4a 00
        E 0 80 56 00
        E 0 80 62 00
        <X 360 0
          /wFbaW50ZW5zZV0=
        >
        E 0 90 74 60
        E 480 90 4a 60
        E 0 90 56 60
        E 0 90 62 60
        E 120 80 4a 00
        E 0 80 56 00
        E 0 80 62 00
        E 360 90 3c 60
        E 0 90 49 60
        E 0 90 55 60
        E 0 90 61 60
        E 120 80 3c 00
        E 0 80 49 00
        E 0 80 55 00
        E 0 80 61 00
        E 360 90 4a 60
        E 0 90 56 60
        E 0 90 62 60
        E 120 80 4a 00
        E 0 80 56 00
        E 0 80 62 00
        E 120 90 57 60
        E 0 90 63 60
        E 120 80 57 00
        E 0 80 63 00
        E 360 90 4b 60
        E 0 90 57 60
        E 0 90 63 60
        E 120 80 4b 00
        E 0 80 57 00
        E 0 80 63 00
        E 360 90 55 60
        E 0 90 61 60
        E 120 80 55 00
        E 0 80 61 00
        E 120 90 40 60
        E 0 90 4c 60
        E 0 90 58 60
        E 0 90 64 60
        E 120 80 40 00
        E 0 80 4c 00
        E 0 80 58 00
        E 0 80 64 00
        E 120 90 58 60
        E 0 90 64 60
        E 120 80 58 00
        E 0 80 64 00
        E 120 90 49 60
        E 0 90 55 60
        E 0 90 61 60
        E 120 80 49 00
        E 0 80 55 00
        E 0 80 61 00
        E 120 90 49 60
        E 0 90 55 60
        E 0 90 61 60
        E 120 80 49 00
        E 0 80 55 00
        E 0 80 61 00
        E 240 80 74 00
        E 360 90 4a 60
        E 0 90 56 60
        E 0 90 62 60
        E 120 80 4a 00
        E 0 80 56 00
        E 0 80 62 00
        E 360 90 3c 60
        E 0 90 49 60
        E 0 90 55 60
        E 0 90 61 60
        E 120 80 3c 00
        E 0 80 49 00
        E 0 80 55 00
        E 0 80 61 00
        E 360 90 4a 60
        E 0 90 56 60
        E 0 90 62 60
        E 120 80 4a 00
        E 0 80 56 00
        E 0 80 62 00
        E 120 90 57 60
        E 0 90 63 60
        E 120 80 57 00
        E 0 80 63 00
        E 360 90 57 60
        E 0 90 63 60
        E 120 80 57 00
        E 0 80 63 00
        E 120 90 4a 60
        E 0 90 56 60
        E 0 90 62 60
        E 120 80 4a 00
        E 0 80 56 00
        E 0 80 62 00
        E 120 90 56 60
        E 0 90 62 60
        E 120 80 56 00
        E 0 80 62 00
        E 120 90 3c 60
        E 0 90 49 60
        E 0 90 55 60
        E 0 90 61 60
        E 120 80 3c 00
        E 0 80 49 00
        E 0 80 55 00
        E 0 80 61 00
        E 120 90 55 60
        E 0 90 61 60
        E 120 80 55 00
        E 0 80 61 00
        E 120 90 3c 60
        E 0 90 48 60
        E 0 90 54 60
        E 0 90 60 60
        E 120 80 3c 00
        E 0 80 48 00
        E 0 80 54 00
        E 0 80 60 00
        E 120 90 48 60
        E 0 90 54 60
        E 0 90 60 60
        E 120 80 48 00
        E 0 80 54 00
        E 0 80 60 00
        E 600 90 4a 60
        E 0 90 56 60
        E 0 90 62 60
        E 120 80 4a 00
        E 0 80 56 00
        E 0 80 62 00
        E 360 90 3c 60
        E 0 90 49 60
        E 0 90 55 60
        E 0 90 61 60
        E 120 80 3c 00
        E 0 80 49 00
        E 0 80 55 00
        E 0 80 61 00
        E 360 90 4a 60
        E 0 90 56 60
        E 0 90 62 60
        E 120 80 4a 00
        E 0 80 56 00
        E 0 80 62 00
        E 120 90 57 60
        E 0 90 63 60
        E 120 80 57 00
        E 0 80 63 00
        E 360 90 4b 60
        E 0 90 57 60
        E 0 90 63 60
        E 120 80 4b 00
        E 0 80 57 00
        E 0 80 63 00
        E 360 90 55 60
        E 0 90 61 60
        E 120 80 55 00
        E 0 80 61 00
        E 120 90 40 60
        E 0 90 4c 60
        E 0 90 58 60
        E 0 90 64 60
        E 120 80 40 00
        E 0 80 4c 00
        E 0 80 58 00
        E 0 80 64 00
        E 120 90 58 60
        E 0 90 64 60
        E 120 80 58 00
        E 0 80 64 00
        E 120 90 49 60
        E 0 90 55 60
        E 0 90 61 60
        E 120 80 49 00
        E 0 80 55 00
        E 0 80 61 00
        E 120 90 49 60
        E 0 90 55 60
        E 0 90 61 60
        E 120 80 49 00
        E 0 80 55 00
        E 0 80 61 00
        E 600 90 4a 60
        E 0 90 56 60
        E 0 90 62 60
        E 120 80 4a 00
        E 0 80 56 00
        E 0 80 62 00
        E 360 90 3c 60
        E 0 90 49 60
        E 0 90 55 60
        E 0 90 61 60
        E 120 80 3c 00
        E 0 80 49 00
        E 0 80 55 00
        E 0 80 61 00
        E 360 90 4a 60
        E 0 90 56 60
        E 0 90 62 60
        E 120 80 4a 00
        E 0 80 56 00
        E 0 80 62 00
        E 120 90 57 60
        E 0 90 63 60
        E 120 80 57 00
        E 0 80 63 00
        E 360 90 57 60
        E 0 90 63 60
        E 120 80 57 00
        E 0 80 63 00
        E 120 90 4a 60
        E 0 90 56 60
        E 0 90 62 60
        E 120 80 4a 00
        E 0 80 56 00
        E 0 80 62 00
        E 120 90 56 60
        E 0 90 62 60
        E 120 80 56 00
        E 0 80 62 00
        E 120 90 3c 60
        E 0 90 49 60
        E 0 90 55 60
        E 0 90 61 60
        E 120 80 3c 00
        E 0 80 49 00
        E 0 80 55 00
        E 0 80 61 00
        E 120 90 55 60
        E 0 90 61 60
        E 120 80 55 00
        E 0 80 61 00
        E 120 90 4a 60
        E 0 90 56 60
        E 0 90 62 60
        E 120 80 4a 00
        E 0 80 56 00
        E 0 80 62 00
        E 840 90 4a 60
        E 0 90 56 60
        E 0 90 62 60
        E 120 80 4a 00
        E 0 80 56 00
        E 0 80 62 00
        E 360 90 3c 60
        E 0 90 49 60
        E 0 90 55 60
        E 0 90 61 60
        E 120 80 3c 00
        E 0 80 49 00
        E 0 80 55 00
        E 0 80 61 00
        E 360 90 4a 60
        E 0 90 56 60
        E 0 90 62 60
        E 120 80 4a 00
        E 0 80 56 00
        E 0 80 62 00
        E 120 90 57 60
        E 0 90 63 60
        E 120 80 57 00
        E 0 80 63 00
        E 360 90 57 60
        E 0 90 63 60
        E 120 80 57 00
        E 0 80 63 00
        E 120 90 4a 60
        E 0 90 56 60
        E 0 90 62 60
        E 120 80 4a 00
        E 0 80 56 00
        E 0 80 62 00
        E 120 90 56 60
        E 0 90 62 60
        E 120 80 56 00
        E 0 80 62 00
        E 120 90 3c 60
        E 0 90 49 60
        E 0 90 55 60
        E 0 90 61 60
        E 120 80 3c 00
        E 0 80 49 00
        E 0 80 55 00
        E 0 80 61 00
        E 120 90 55 60
        E 0 90 61 60
        E 120 80 55 00
        E 0 80 61 00
        E 120 90 4a 60
        E 0 90 56 60
        E 0 90 62 60
        E 120 80 4a 00
        E 0 80 56 00
        E 0 80 62 00
        E 840 90 4a 60
        E 0 90 56 60
        E 0 90 62 60
        E 120 80 4a 00
        E 0 80 56 00
        E 0 80 62 00
        E 360 90 3c 60
        E 0 90 49 60
        E 0 90 55 60
        E 0 90 61 60
        E 120 80 3c 00
        E 0 80 49 00
        E 0 80 55 00
        E 0 80 61 00
        E 360 90 4a 60
        E 0 90 56 60
        E 0 90 62 60
        E 120 80 4a 00
        E 0 80 56 00
        E 0 80 62 00
        E 120 90 57 60
        E 0 90 63 60
        E 120 80 57 00
        E 0 80 63 00
        E 120 90 3e 60
        E 0 90 4b 60
        E 0 90 57 60
        E 0 90 63 60
        E 5760 80 3e 00
        E 0 80 4b 00
        E 0 80 57 00
        E 0 80 63 00
        <X 120 0
          /wFbaWRsZV9yZWFsdGltZV0=
        >
        E 3720 b0 7b 00
        GUID {39496FB7-552E-4CC9-AF90-7458E3D00012}
        IGNTEMPO 0 120.00000000 4 4
        SRCCOLOR 4
        VELLANE 132 71 60
        COLORMAP "C:\Program Files\REAPER\Data\color_maps\rockband_guitarbass.png"
        TEXTSTRINGFILE "C:\Program Files\REAPER\Data\Text_Strings\Text Events List - Instruments.txt"
        CFGEDITVIEW 149576.189064 63.727082 0 12 0 0 0
        CFGEDIT 1 1 0 1 1 0 1 1 1 1 1 0.25000000 -8 -8 1928 1088 0 2 1 1 0.00000000 0 1 0 0 0.500000 0 0 1.000000 64
        KEYSNAP 0 0 "102034050607" 0 "Major"
        EVTFILTER 0 -1 -1 -1 -1 0 1 0 0 -1.00000000 -1.00000000
      >
    >
  >
  <TRACK '{2A35E076-078B-4098-9FD4-2F3BAF3C5039}'
    NAME "PART REAL_GUITAR"
    PEAKCOL 16576
    BEAT -1
    AUTOMODE 0
    VOLPAN 1.00000000000000 0.00000000000000 -1.00000000000000 -1.00000000000000 1.00000000000000
    MUTESOLO 0 0 0
    IPHASE 0
    ISBUS 2 -1
    BUSCOMP 0 0
    SHOWINMIX 1 0.666700 0.500000 1 0.500000 -1 -1 -1
    FREEMODE 0
    SEL 0
    REC 0 0 0 0 0 0 0
    VU 2
    TRACKHEIGHT 0 0
    INQ 0 0 0 0.5000000000 100 0 0 100
    NCHAN 2
    FX 1
    TRACKID {2A35E076-078B-4098-9FD4-2F3BAF3C5039}
    PERF 0
    MIDIOUT -1
    <MIDINOTENAMES
      0 127 "Trill Marker"
      0 126 "Tremolo Marker"
      0 125 "BRE"
      0 124 "BRE"
      0 123 "BRE"
      0 122 "BRE"
      0 121 "BRE"
      0 120 "BRE (use all 6)"
      0 119 "-----------"
      0 116 "OVERDRIVE"
      0 115 "Solo Marker"
      0 109 "-----------"
      0 108 "Left Hand Position"
      0 107 "Force Chord Numbering"
      0 106 "Loose Strumming"
      0 105 "Strum Direction"
      0 104 "Arpeggio Marker"
      0 103 "Slide Marker"
      0 102 "Force HOPO"
      0 101 "EXPERT e String"
      0 100 "EXPERT B String"
      0 99 "EXPERT G String"
      0 98 "EXPERT D String"
      0 97 "EXPERT A String"
      0 96 "EXPERT E String"
      0 95 "-----------"
      0 82 "Loose Strumming"
      0 81 "Strum Direction"
      0 80 "Arpeggio Marker"
      0 79 "Slide Marker"
      0 78 "Force HOPO"
      0 77 "HARD e String"
      0 76 "HARD B String"
      0 75 "HARD G String"
      0 74 "HARD D String"
      0 73 "HARD A String"
      0 72 "HARD E String"
      0 71 "-----------"
      0 58 "Loose Strumming"
      0 56 "Arpeggio Marker"
      0 55 "Slide Marker"
      0 53 "MEDIUM e String"
      0 52 "MEDIUM B String"
      0 51 "MEDIUM G String"
      0 50 "MEDIUM D String"
      0 49 "MEDIUM A String"
      0 48 "MEDIUM E String"
      0 47 "-----------"
      0 32 "Arpeggio Marker"
      0 31 "Slide Marker"
      0 29 "EASY e String"
      0 28 "EASY B String"
      0 27 "EASY G String"
      0 26 "EASY D String"
      0 25 "EASY A String"
      0 24 "EASY E String"
      0 21 "-----------"
      0 18 "Flat/Sharp Swap"
      0 17 "Hide Chord Names"
      0 16 "Slash Chord"
      0 15 "D#"
      0 14 "D"
      0 13 "C#"
      0 12 "C"
      0 11 "B"
      0 10 "A#"
      0 9 "A"
      0 8 "G#"
      0 7 "G"
      0 6 "F#"
      0 5 "F"
      0 4 "E"
    >
    MAINSEND 1 0
    <FXCHAIN
      WNDRECT 0 38 708 451
      SHOW 0
      LASTSEL 2
      DOCKED 0
      BYPASS 0 0
      <JS "c3/progtr" ""
        0.000000 3.000000 0.000000 0.000000 0.000000 0.000000 0.000000 0.000000 0.000000 1.000000 - - - - - - - - - - - - - - - - - - - - - - - - - - - - - - - - - - - - - - - - - - - - - - - - - - - - - - 
      >
      FLOATPOS 0 0 0 0
      FXID {F2B0840D-0190-4358-AF4C-9FFFFC90D7E0}
      WAK 0
      BYPASS 0 0
      <JS "MIDI/midi_transpose" ""
        12.000000 1.000000 0.000000 127.000000 - - - - - - - - - - - - - - - - - - - - - - - - - - - - - - - - - - - - - - - - - - - - - - - - - - - - - - - - - - - - 
      >
      FLOATPOS 0 0 0 0
      FXID {02821235-644E-410E-94E1-5D29FF481D03}
      WAK 0
      BYPASS 0 0
      <VST "VSTi: ReaSynth (Cockos)" "reasynth.dll" 0 ""
        eXNlcu9e7f4AAAAAAgAAAAEAAAAAAAAAAgAAAAAAAAA4AAAAAAAAAA==
        AAAQAO++rd4N8K3eppvEO9grvT2HFlk/AAAAAAAAAAB53rw94jAEPA==
        AAAAAAAAAD+01hM+j8L1PQAAAD8AABAAAAA=
      >
      FLOATPOS 0 0 0 0
      FXID {FFD448F6-333D-48F0-BA77-7498223C3708}
      WAK 0
    >
    <ITEM
      POSITION 0.00000000000000
      SNAPOFFS 0.00000000000000
      LENGTH 194.42554622500001
      LOOP 0
      ALLTAKES 0
      SEL 0
      FADEIN 1 0.000000 0.000000 1 0
      FADEOUT 1 0.000000 0.000000 1 0
      MUTE 0
      IGUID {E870EA06-EBDB-49D0-845B-15AC5C9A3A2A}
      IID 5
      NAME "PART REAL_GUITAR"
      VOLPAN 1.000000 0.000000 1.000000 -1.000000
      SOFFS 0.00000000000000 0.00000000000000
      PLAYRATE 1.00000000000000 1 0.00000000000000 -1
      CHANMODE 0
      GUID {A361B60D-0834-4E7D-A762-57F39B5D3FDD}
      <SOURCE MIDI
        HASDATA 1 480 QN
        POOLEDEVTS {DDFE53CC-1806-4FA8-940A-788DC227D304}
        <X 0 0
          /wNQQVJUIFJFQUxfR1VJVEFS
        >
        <X 4320 0
          /wFbYmVnaW5fcGcgc29uZ190cmFpbmVyX3BnXzFd
        >
        E 240 90 0b 64
        E 0 90 48 6b
        E 0 90 49 6d
        E 0 90 4f 64
        E 0 90 60 6b
        E 0 90 61 6d
        E 0 90 67 64
        E 0 90 6c 6b
        E 120 80 0b 00
        E 0 80 48 00
        E 0 80 49 00
        E 0 80 4f 00
        E 0 80 60 00
        E 0 80 61 00
        E 0 80 67 00
        E 0 80 6c 00
        E 120 90 0d 64
        E 0 90 30 6d
        E 0 90 31 6f
        E 0 90 48 6d
        E 0 90 49 6f
        E 0 90 4e 64
        E 0 90 60 6d
        E 0 90 61 6f
        E 0 90 66 64
        E 0 90 6c 6d
        E 120 80 0d 00
        E 0 80 30 00
        E 0 80 31 00
        E 0 80 48 00
        E 0 80 49 00
        E 0 80 4e 00
        E 0 80 60 00
        E 0 80 61 00
        E 0 80 66 00
        E 0 80 6c 00
        E 360 90 09 64
        E 0 90 30 69
        E 0 90 31 6b
        E 0 90 48 69
        E 0 90 49 6b
        E 0 90 60 69
        E 0 90 61 6b
        E 0 90 6c 69
        E 120 80 09 00
        E 0 80 30 00
        E 0 80 31 00
        E 0 80 48 00
        E 0 80 49 00
        E 0 80 60 00
        E 0 80 61 00
        E 0 80 6c 00
        E 360 90 08 64
        E 0 90 18 68
        E 0 90 30 68
        E 0 90 31 6a
        E 0 90 48 68
        E 0 90 49 6a
        E 0 90 60 68
        E 0 90 61 6a
        E 0 90 6c 68
        E 120 80 08 00
        E 0 80 6c 00
        <X 360 0
          /wFbcGdfbm9ybSBzb25nX3RyYWluZXJfcGdfMV0=
        >
        E 1920 80 18 00
        E 0 80 30 00
        E 0 80 31 00
        E 0 80 48 00
        E 0 80 49 00
        E 0 80 60 00
        E 0 80 61 00
        E 240 90 0b 64
        E 0 90 48 6b
        E 0 90 49 6d
        E 0 90 4f 64
        E 0 90 60 6b
        E 0 90 61 6d
        E 0 90 67 64
        E 0 90 6c 6b
        E 120 80 0b 00
        E 0 80 48 00
        E 0 80 49 00
        E 0 80 4f 00
        E 0 80 60 00
        E 0 80 61 00
        E 0 80 67 00
        E 0 80 6c 00
        E 120 90 0d 64
        E 0 90 30 6d
        E 0 90 31 6f
        E 0 90 48 6d
        E 0 90 49 6f
        E 0 90 4e 64
        E 0 90 60 6d
        E 0 90 61 6f
        E 0 90 66 64
        E 0 90 6c 6d
        E 120 80 0d 00
        E 0 80 30 00
        E 0 80 31 00
        E 0 80 48 00
        E 0 80 49 00
        E 0 80 4e 00
        E 0 80 60 00
        E 0 80 61 00
        E 0 80 66 00
        E 0 80 6c 00
        E 360 90 09 64
        E 0 90 30 69
        E 0 90 31 6b
        E 0 90 48 69
        E 0 90 49 6b
        E 0 90 60 69
        E 0 90 61 6b
        E 0 90 6c 69
        E 120 80 09 00
        E 0 80 30 00
        E 0 80 31 00
        E 0 80 48 00
        E 0 80 49 00
        E 0 80 60 00
        E 0 80 61 00
        E 0 80 6c 00
        E 360 90 08 64
        E 0 90 18 68
        E 0 90 30 68
        E 0 90 31 6a
        E 0 90 48 68
        E 0 90 49 6a
        E 0 90 60 68
        E 0 90 61 6a
        E 0 90 6c 68
        E 120 80 08 00
        E 0 80 6c 00
        <X 2280 0
          /wFbZW5kX3BnIHNvbmdfdHJhaW5lcl9wZ18xXQ==
        >
        E 0 80 18 00
        E 0 80 30 00
        E 0 80 31 00
        E 0 80 48 00
        E 0 80 49 00
        E 0 80 60 00
        E 0 80 61 00
        E 240 90 0b 64
        E 0 90 48 6b
        E 0 90 49 6d
        E 0 90 4f 64
        E 0 90 60 6b
        E 0 90 61 6d
        E 0 90 67 64
        E 0 90 6c 6b
        E 120 80 0b 00
        E 0 80 48 00
        E 0 80 49 00
        E 0 80 4f 00
        E 0 80 60 00
        E 0 80 61 00
        E 0 80 67 00
        E 0 80 6c 00
        E 120 90 0d 64
        E 0 90 30 6d
        E 0 90 31 6f
        E 0 90 48 6d
        E 0 90 49 6f
        E 0 90 4e 64
        E 0 90 60 6d
        E 0 90 61 6f
        E 0 90 66 64
        E 0 90 6c 6d
        E 120 80 0d 00
        E 0 80 30 00
        E 0 80 31 00
        E 0 80 48 00
        E 0 80 49 00
        E 0 80 4e 00
        E 0 80 60 00
        E 0 80 61 00
        E 0 80 66 00
        E 0 80 6c 00
        E 360 90 09 64
        E 0 90 30 69
        E 0 90 31 6b
        E 0 90 48 69
        E 0 90 49 6b
        E 0 90 60 69
        E 0 90 61 6b
        E 0 90 6c 69
        E 120 80 09 00
        E 0 80 30 00
        E 0 80 31 00
        E 0 80 48 00
        E 0 80 49 00
        E 0 80 60 00
        E 0 80 61 00
        E 0 80 6c 00
        E 360 90 08 64
        E 0 90 18 68
        E 0 90 30 68
        E 0 90 31 6a
        E 0 90 48 68
        E 0 90 49 6a
        E 0 90 60 68
        E 0 90 61 6a
        E 0 90 6c 68
        E 120 80 08 00
        E 0 80 6c 00
        E 2280 80 18 00
        E 0 80 30 00
        E 0 80 31 00
        E 0 80 48 00
        E 0 80 49 00
        E 0 80 60 00
        E 0 80 61 00
        E 240 90 0b 64
        E 0 90 48 6b
        E 0 90 49 6d
        E 0 90 4f 64
        E 0 90 60 6b
        E 0 90 61 6d
        E 0 90 67 64
        E 0 90 6c 6b
        E 120 80 0b 00
        E 0 80 48 00
        E 0 80 49 00
        E 0 80 4f 00
        E 0 80 60 00
        E 0 80 61 00
        E 0 80 67 00
        E 0 80 6c 00
        E 120 90 0d 64
        E 0 90 30 6d
        E 0 90 31 6f
        E 0 90 48 6d
        E 0 90 49 6f
        E 0 90 4e 64
        E 0 90 60 6d
        E 0 90 61 6f
        E 0 90 66 64
        E 0 90 6c 6d
        E 120 80 0d 00
        E 0 80 30 00
        E 0 80 31 00
        E 0 80 48 00
        E 0 80 49 00
        E 0 80 4e 00
        E 0 80 60 00
        E 0 80 61 00
        E 0 80 66 00
        E 0 80 6c 00
        E 360 90 09 64
        E 0 90 30 69
        E 0 90 31 6b
        E 0 90 48 69
        E 0 90 49 6b
        E 0 90 60 69
        E 0 90 61 6b
        E 0 90 6c 69
        E 120 80 09 00
        E 0 80 30 00
        E 0 80 31 00
        E 0 80 48 00
        E 0 80 49 00
        E 0 80 60 00
        E 0 80 61 00
        E 0 80 6c 00
        E 360 90 08 64
        E 0 90 18 68
        E 0 90 30 68
        E 0 90 31 6a
        E 0 90 48 68
        E 0 90 49 6a
        E 0 90 60 68
        E 0 90 61 6a
        E 0 90 6c 68
        E 120 80 08 00
        E 0 80 6c 00
        E 1800 90 74 64
        E 480 80 18 00
        E 0 80 30 00
        E 0 80 31 00
        E 0 80 48 00
        E 0 80 49 00
        E 0 80 60 00
        E 0 80 61 00
        E 240 90 0b 64
        E 0 90 48 6b
        E 0 90 49 6d
        E 0 90 4f 64
        E 0 90 60 6b
        E 0 90 61 6d
        E 0 90 67 64
        E 0 90 6c 6b
        E 120 80 0b 00
        E 0 80 48 00
        E 0 80 49 00
        E 0 80 4f 00
        E 0 80 60 00
        E 0 80 61 00
        E 0 80 67 00
        E 0 80 6c 00
        E 120 90 0d 64
        E 0 90 30 6d
        E 0 90 31 6f
        E 0 90 48 6d
        E 0 90 49 6f
        E 0 90 4e 64
        E 0 90 60 6d
        E 0 90 61 6f
        E 0 90 66 64
        E 0 90 6c 6d
        E 120 80 0d 00
        E 0 80 30 00
        E 0 80 31 00
        E 0 80 48 00
        E 0 80 49 00
        E 0 80 4e 00
        E 0 80 60 00
        E 0 80 61 00
        E 0 80 66 00
        E 0 80 6c 00
        E 360 90 09 64
        E 0 90 30 69
        E 0 90 31 6b
        E 0 90 48 69
        E 0 90 49 6b
        E 0 90 60 69
        E 0 90 61 6b
        E 0 90 6c 69
        E 120 80 09 00
        E 0 80 30 00
        E 0 80 31 00
        E 0 80 48 00
        E 0 80 49 00
        E 0 80 60 00
        E 0 80 61 00
        E 0 80 6c 00
        E 360 90 08 64
        E 0 90 18 68
        E 0 90 30 68
        E 0 90 31 6a
        E 0 90 48 68
        E 0 90 49 6a
        E 0 90 60 68
        E 0 90 61 6a
        E 0 90 6c 68
        E 120 80 74 00
        E 0 80 08 00
        E 0 80 6c 00
        E 2280 80 18 00
        E 0 80 30 00
        E 0 80 31 00
        E 0 80 48 00
        E 0 80 49 00
        E 0 80 60 00
        E 0 80 61 00
        E 240 90 0b 64
        E 0 90 48 6b
        E 0 90 49 6d
        E 0 90 4f 64
        E 0 90 60 6b
        E 0 90 61 6d
        E 0 90 67 64
        E 0 90 6c 6b
        E 120 80 0b 00
        E 0 80 48 00
        E 0 80 49 00
        E 0 80 4f 00
        E 0 80 60 00
        E 0 80 61 00
        E 0 80 67 00
        E 0 80 6c 00
        E 120 90 0d 64
        E 0 90 30 6d
        E 0 90 31 6f
        E 0 90 48 6d
        E 0 90 49 6f
        E 0 90 4e 64
        E 0 90 60 6d
        E 0 90 61 6f
        E 0 90 66 64
        E 0 90 6c 6d
        E 120 80 0d 00
        E 0 80 30 00
        E 0 80 31 00
        E 0 80 48 00
        E 0 80 49 00
        E 0 80 4e 00
        E 0 80 60 00
        E 0 80 61 00
        E 0 80 66 00
        E 0 80 6c 00
        E 360 90 09 64
        E 0 90 30 69
        E 0 90 31 6b
        E 0 90 48 69
        E 0 90 49 6b
        E 0 90 60 69
        E 0 90 61 6b
        E 0 90 6c 69
        E 120 80 09 00
        E 0 80 30 00
        E 0 80 31 00
        E 0 80 48 00
        E 0 80 49 00
        E 0 80 60 00
        E 0 80 61 00
        E 0 80 6c 00
        E 360 90 08 64
        E 0 90 18 68
        E 0 90 30 68
        E 0 90 31 6a
        E 0 90 48 68
        E 0 90 49 6a
        E 0 90 60 68
        E 0 90 61 6a
        E 0 90 6c 68
        E 120 80 08 00
        E 0 80 6c 00
        E 2280 80 18 00
        E 0 80 30 00
        E 0 80 31 00
        E 0 80 48 00
        E 0 80 49 00
        E 0 80 60 00
        E 0 80 61 00
        E 240 90 0b 64
        E 0 90 48 6b
        E 0 90 49 6d
        E 0 90 4f 64
        E 0 90 60 6b
        E 0 90 61 6d
        E 0 90 67 64
        E 0 90 6c 6b
        E 120 80 0b 00
        E 0 80 48 00
        E 0 80 49 00
        E 0 80 4f 00
        E 0 80 60 00
        E 0 80 61 00
        E 0 80 67 00
        E 0 80 6c 00
        E 120 90 0d 64
        E 0 90 30 6d
        E 0 90 31 6f
        E 0 90 48 6d
        E 0 90 49 6f
        E 0 90 4e 64
        E 0 90 60 6d
        E 0 90 61 6f
        E 0 90 66 64
        E 0 90 6c 6d
        E 120 80 0d 00
        E 0 80 30 00
        E 0 80 31 00
        E 0 80 48 00
        E 0 80 49 00
        E 0 80 4e 00
        E 0 80 60 00
        E 0 80 61 00
        E 0 80 66 00
        E 0 80 6c 00
        E 360 90 09 64
        E 0 90 30 69
        E 0 90 31 6b
        E 0 90 48 69
        E 0 90 49 6b
        E 0 90 60 69
        E 0 90 61 6b
        E 0 90 6c 69
        E 120 80 09 00
        E 0 80 30 00
        E 0 80 31 00
        E 0 80 48 00
        E 0 80 49 00
        E 0 80 60 00
        E 0 80 61 00
        E 0 80 6c 00
        E 360 90 08 64
        E 0 90 18 68
        E 0 90 30 68
        E 0 90 31 6a
        E 0 90 48 68
        E 0 90 49 6a
        E 0 90 60 68
        E 0 90 61 6a
        E 0 90 6c 68
        E 120 80 08 00
        E 0 80 6c 00
        E 2280 80 18 00
        E 0 80 30 00
        E 0 80 31 00
        E 0 80 48 00
        E 0 80 49 00
        E 0 80 60 00
        E 0 80 61 00
        E 240 90 0b 64
        E 0 90 48 6b
        E 0 90 49 6d
        E 0 90 4f 64
        E 0 90 60 6b
        E 0 90 61 6d
        E 0 90 67 64
        E 0 90 6c 6b
        E 120 80 0b 00
        E 0 80 48 00
        E 0 80 49 00
        E 0 80 4f 00
        E 0 80 60 00
        E 0 80 61 00
        E 0 80 67 00
        E 0 80 6c 00
        E 120 90 0d 64
        E 0 90 30 6d
        E 0 90 31 6f
        E 0 90 48 6d
        E 0 90 49 6f
        E 0 90 4e 64
        E 0 90 60 6d
        E 0 90 61 6f
        E 0 90 66 64
        E 0 90 6c 6d
        E 120 80 0d 00
        E 0 80 30 00
        E 0 80 31 00
        E 0 80 48 00
        E 0 80 49 00
        E 0 80 4e 00
        E 0 80 60 00
        E 0 80 61 00
        E 0 80 66 00
        E 0 80 6c 00
        E 360 90 09 64
        E 0 90 30 69
        E 0 90 31 6b
        E 0 90 48 69
        E 0 90 49 6b
        E 0 90 60 69
        E 0 90 61 6b
        E 0 90 6c 69
        E 120 80 09 00
        E 0 80 30 00
        E 0 80 31 00
        E 0 80 48 00
        E 0 80 49 00
        E 0 80 60 00
        E 0 80 61 00
        E 0 80 6c 00
        E 360 90 08 64
        E 0 90 18 68
        E 0 90 30 68
        E 0 90 31 6a
        E 0 90 48 68
        E 0 90 49 6a
        E 0 90 60 68
        E 0 90 61 6a
        E 0 90 6c 68
        E 120 80 08 00
        E 0 80 6c 00
        <X 2280 0
          /wFbYmVnaW5fcGcgc29uZ190cmFpbmVyX3BnXzJd
        >
        E 0 80 18 00
        E 0 80 30 00
        E 0 80 31 00
        E 0 80 48 00
        E 0 80 49 00
        E 0 80 60 00
        E 0 80 61 00
        E 0 90 74 64
        E 240 90 0b 64
        E 0 90 48 6b
        E 0 90 49 6d
        E 0 90 4f 64
        E 0 90 60 6b
        E 0 90 61 6d
        E 0 90 67 64
        E 0 90 6c 6b
        E 120 80 0b 00
        E 0 80 48 00
        E 0 80 49 00
        E 0 80 4f 00
        E 0 80 60 00
        E 0 80 61 00
        E 0 80 67 00
        E 0 80 6c 00
        E 120 90 0d 64
        E 0 90 30 6d
        E 0 90 31 6f
        E 0 90 48 6d
        E 0 90 49 6f
        E 0 90 4e 64
        E 0 90 60 6d
        E 0 90 61 6f
        E 0 90 66 64
        E 0 90 6c 6d
        E 120 80 0d 00
        E 0 80 30 00
        E 0 80 31 00
        E 0 80 48 00
        E 0 80 49 00
        E 0 80 4e 00
        E 0 80 60 00
        E 0 80 61 00
        E 0 80 66 00
        E 0 80 6c 00
        E 360 90 08 64
        E 0 90 30 68
        E 0 90 31 6a
        E 0 90 48 68
        E 0 90 49 6a
        E 0 90 60 68
        E 0 90 61 6a
        E 0 90 6c 68
        E 120 80 08 00
        E 0 80 30 00
        E 0 80 31 00
        E 0 80 48 00
        E 0 80 49 00
        E 0 80 60 00
        E 0 80 61 00
        E 0 80 6c 00
        E 360 90 09 64
        E 0 90 18 69
        E 0 90 30 69
        E 0 90 31 6b
        E 0 90 48 69
        E 0 90 49 6b
        E 0 90 60 69
        E 0 90 61 6b
        E 0 90 6c 69
        E 120 80 74 00
        E 0 80 09 00
        E 0 80 6c 00
        <X 360 0
          /wFbcGdfbm9ybSBzb25nX3RyYWluZXJfcGdfMl0=
        >
        E 1920 80 18 00
        E 0 80 30 00
        E 0 80 31 00
        E 0 80 48 00
        E 0 80 49 00
        E 0 80 60 00
        E 0 80 61 00
        E 240 90 0b 64
        E 0 90 48 6b
        E 0 90 49 6d
        E 0 90 4f 64
        E 0 90 60 6b
        E 0 90 61 6d
        E 0 90 67 64
        E 0 90 6c 6b
        E 120 80 0b 00
        E 0 80 48 00
        E 0 80 49 00
        E 0 80 4f 00
        E 0 80 60 00
        E 0 80 61 00
        E 0 80 67 00
        E 0 80 6c 00
        E 120 90 0d 64
        E 0 90 30 6d
        E 0 90 31 6f
        E 0 90 48 6d
        E 0 90 49 6f
        E 0 90 4e 64
        E 0 90 60 6d
        E 0 90 61 6f
        E 0 90 66 64
        E 0 90 6c 6d
        E 120 80 0d 00
        E 0 80 30 00
        E 0 80 31 00
        E 0 80 48 00
        E 0 80 49 00
        E 0 80 4e 00
        E 0 80 60 00
        E 0 80 61 00
        E 0 80 66 00
        E 0 80 6c 00
        E 360 90 09 64
        E 0 90 30 69
        E 0 90 31 6b
        E 0 90 48 69
        E 0 90 49 6b
        E 0 90 60 69
        E 0 90 61 6b
        E 0 90 6c 69
        E 120 80 09 00
        E 0 80 30 00
        E 0 80 31 00
        E 0 80 48 00
        E 0 80 49 00
        E 0 80 60 00
        E 0 80 61 00
        E 0 80 6c 00
        E 360 90 0b 64
        E 0 90 18 6b
        E 0 90 30 6b
        E 0 90 31 6d
        E 0 90 48 6b
        E 0 90 49 6d
        E 0 90 60 6b
        E 0 90 61 6d
        E 0 90 6c 6b
        E 120 80 0b 00
        E 0 80 6c 00
        E 2280 80 18 00
        <X 960 0
          /wFbZW5kX3BnIHNvbmdfdHJhaW5lcl9wZ18yXQ==
        >
        E 0 80 30 00
        E 0 80 31 00
        E 0 80 48 00
        E 0 80 49 00
        E 0 80 60 00
        E 0 80 61 00
        <X 480 0
          /wFbYmVnaW5fcGcgc29uZ190cmFpbmVyX3BnXzNd
        >
        E 0 90 74 64
        E 480 90 32 6a
        E 0 90 4a 6a
        E 0 90 62 6a
        E 0 90 6c 68
        E 120 80 32 00
        E 0 80 4a 00
        E 0 80 62 00
        E 0 80 6c 00
        <X 360 0
          /wFbcGdfbm9ybSBzb25nX3RyYWluZXJfcGdfM10=
        >
        E 0 90 1a 68
        E 0 90 32 68
        E 0 90 4a 68
        E 0 90 62 68
        E 120 80 1a 00
        E 0 80 32 00
        E 0 80 4a 00
        E 0 80 62 00
        E 360 90 33 68
        E 0 90 4b 68
        E 0 90 63 68
        E 120 80 33 00
        E 0 80 4b 00
        E 0 80 63 00
        E 120 90 4b 6a
        E 0 90 63 6a
        E 120 80 4b 00
        E 0 80 63 00
        E 360 90 33 6a
        E 0 90 4b 6a
        E 0 90 63 6a
        E 120 80 33 00
        E 0 80 4b 00
        E 0 80 63 00
        E 360 90 4d 6d
        E 0 90 65 6d
        E 0 90 6c 6d
        E 120 80 4d 00
        E 0 80 65 00
        E 0 80 6c 00
        E 120 90 4d 70
        E 0 90 65 70
        E 120 80 4d 00
        E 0 80 65 00
        E 120 90 4d 70
        E 0 90 65 70
        E 120 80 4d 00
        E 0 80 65 00
        E 120 90 35 6d
        E 0 90 4d 6d
        E 0 90 65 6d
        E 120 80 35 00
        E 0 80 4d 00
        E 0 80 65 00
        E 120 90 35 6d
        E 0 90 4d 6d
        E 0 90 65 6d
        E 120 80 35 00
        E 0 80 4d 00
        E 0 80 65 00
        E 120 80 74 00
        E 480 90 32 6a
        E 0 90 4a 6a
        E 0 90 62 6a
        E 0 90 6c 68
        E 120 80 32 00
        E 0 80 4a 00
        E 0 80 62 00
        E 0 80 6c 00
        E 360 90 1a 68
        E 0 90 32 68
        E 0 90 4a 68
        E 0 90 62 68
        E 120 80 1a 00
        E 0 80 32 00
        E 0 80 4a 00
        E 0 80 62 00
        E 360 90 32 6a
        E 0 90 4a 6a
        E 0 90 62 6a
        E 120 80 32 00
        E 0 80 4a 00
        E 0 80 62 00
        E 120 90 4b 68
        E 0 90 63 68
        E 120 80 4b 00
        E 0 80 63 00
        E 360 90 4b 68
        E 0 90 63 68
        E 120 80 4b 00
        E 0 80 63 00
        E 120 90 32 6a
        E 0 90 4a 6a
        E 0 90 62 6a
        E 120 80 32 00
        E 0 80 4a 00
        E 0 80 62 00
        E 120 90 4a 6a
        E 0 90 62 6a
        E 120 80 4a 00
        E 0 80 62 00
        E 120 90 1a 68
        E 0 90 32 68
        E 0 90 4a 68
        E 0 90 62 68
        E 0 90 6c 66
        E 120 80 1a 00
        E 0 80 32 00
        E 0 80 4a 00
        E 0 80 62 00
        E 0 80 6c 00
        E 120 90 4a 68
        E 0 90 62 68
        E 120 80 4a 00
        E 0 80 62 00
        E 120 90 1a 66
        E 0 90 32 66
        E 0 90 4a 66
        E 0 90 62 66
        E 120 80 1a 00
        E 0 80 32 00
        E 0 80 4a 00
        E 0 80 62 00
        E 120 90 32 66
        E 0 90 4a 66
        E 0 90 62 66
        E 120 80 32 00
        E 0 80 4a 00
        E 0 80 62 00
        <X 120 0
          /wFbZW5kX3BnIHNvbmdfdHJhaW5lcl9wZ18zXQ==
        >
        E 480 90 32 6a
        E 0 90 4a 6a
        E 0 90 62 6a
        E 0 90 6c 68
        E 120 80 32 00
        E 0 80 4a 00
        E 0 80 62 00
        E 0 80 6c 00
        E 360 90 1a 68
        E 0 90 32 68
        E 0 90 4a 68
        E 0 90 62 68
        E 120 80 1a 00
        E 0 80 32 00
        E 0 80 4a 00
        E 0 80 62 00
        E 360 90 33 68
        E 0 90 4b 68
        E 0 90 63 68
        E 120 80 33 00
        E 0 80 4b 00
        E 0 80 63 00
        E 120 90 4b 6a
        E 0 90 63 6a
        E 120 80 4b 00
        E 0 80 63 00
        E 360 90 33 6a
        E 0 90 4b 6a
        E 0 90 63 6a
        E 120 80 33 00
        E 0 80 4b 00
        E 0 80 63 00
        E 360 90 4d 6d
        E 0 90 65 6d
        E 0 90 6c 6d
        E 120 80 4d 00
        E 0 80 65 00
        E 0 80 6c 00
        E 120 90 4d 70
        E 0 90 65 70
        E 120 80 4d 00
        E 0 80 65 00
        E 120 90 4d 70
        E 0 90 65 70
        E 120 80 4d 00
        E 0 80 65 00
        E 120 90 35 6d
        E 0 90 4d 6d
        E 0 90 65 6d
        E 120 80 35 00
        E 0 80 4d 00
        E 0 80 65 00
        E 120 90 35 6d
        E 0 90 4d 6d
        E 0 90 65 6d
        E 120 80 35 00
        E 0 80 4d 00
        E 0 80 65 00
        E 600 90 32 6a
        E 0 90 4a 6a
        E 0 90 62 6a
        E 0 90 6c 68
        E 120 80 32 00
        E 0 80 4a 00
        E 0 80 62 00
        E 0 80 6c 00
        E 360 90 1a 68
        E 0 90 32 68
        E 0 90 4a 68
        E 0 90 62 68
        E 120 80 1a 00
        E 0 80 32 00
        E 0 80 4a 00
        E 0 80 62 00
        E 360 90 32 6a
        E 0 90 4a 6a
        E 0 90 62 6a
        E 120 80 32 00
        E 0 80 4a 00
        E 0 80 62 00
        E 120 90 4b 68
        E 0 90 63 68
        E 120 80 4b 00
        E 0 80 63 00
        E 360 90 4b 68
        E 0 90 63 68
        E 120 80 4b 00
        E 0 80 63 00
        E 120 90 32 6a
        E 0 90 4a 6a
        E 0 90 62 6a
        E 120 80 32 00
        E 0 80 4a 00
        E 0 80 62 00
        E 120 90 4a 6a
        E 0 90 62 6a
        E 120 80 4a 00
        E 0 80 62 00
        E 120 90 1a 68
        E 0 90 32 68
        E 0 90 4a 68
        E 0 90 62 68
        E 120 80 1a 00
        E 0 80 32 00
        E 0 80 4a 00
        E 0 80 62 00
        E 120 90 4a 68
        E 0 90 62 68
        E 120 80 4a 00
        E 0 80 62 00
        E 120 90 32 6a
        E 0 90 4a 6a
        E 0 90 62 6a
        E 120 80 32 00
        E 0 80 4a 00
        E 0 80 62 00
        E 840 90 32 6a
        E 0 90 4a 6a
        E 0 90 62 6a
        E 0 90 6c 68
        E 120 80 32 00
        E 0 80 4a 00
        E 0 80 62 00
        E 0 80 6c 00
        E 360 90 1a 68
        E 0 90 32 68
        E 0 90 4a 68
        E 0 90 62 68
        E 120 80 1a 00
        E 0 80 32 00
        E 0 80 4a 00
        E 0 80 62 00
        E 360 90 32 6a
        E 0 90 4a 6a
        E 0 90 62 6a
        E 120 80 32 00
        E 0 80 4a 00
        E 0 80 62 00
        E 120 90 4b 6a
        E 0 90 63 6a
        E 120 80 4b 00
        E 0 80 63 00
        E 360 90 4b 6a
        E 0 90 63 6a
        E 120 80 4b 00
        E 0 80 63 00
        E 120 90 32 6a
        E 0 90 4a 6a
        E 0 90 62 6a
        E 120 80 32 00
        E 0 80 4a 00
        E 0 80 62 00
        E 120 90 4a 6a
        E 0 90 62 6a
        E 120 80 4a 00
        E 0 80 62 00
        E 120 90 1a 68
        E 0 90 32 68
        E 0 90 4a 68
        E 0 90 62 68
        E 120 80 1a 00
        E 0 80 32 00
        E 0 80 4a 00
        E 0 80 62 00
        E 120 90 4a 68
        E 0 90 62 68
        E 120 80 4a 00
        E 0 80 62 00
        E 120 90 32 6a
        E 0 90 4a 6a
        E 0 90 62 6a
        E 120 80 32 00
        E 0 80 4a 00
        E 0 80 62 00
        E 840 90 32 6a
        E 0 90 4a 6a
        E 0 90 62 6a
        E 0 90 6c 68
        E 120 80 32 00
        E 0 80 4a 00
        E 0 80 62 00
        E 0 80 6c 00
        E 360 90 1a 68
        E 0 90 32 68
        E 0 90 4a 68
        E 0 90 62 68
        E 120 80 1a 00
        E 0 80 32 00
        E 0 80 4a 00
        E 0 80 62 00
        E 360 90 32 6a
        E 0 90 4a 6a
        E 0 90 62 6a
        E 0 90 6c 6a
        E 120 80 32 00
        E 0 80 4a 00
        E 0 80 62 00
        E 0 80 6c 00
        E 120 90 4a 6d
        E 0 90 62 6d
        E 120 80 4a 00
        E 0 80 62 00
        E 120 90 4a 6d
        E 0 90 62 6d
        E 2400 80 4a 00
        E 0 80 62 00
        E 240 90 48 6b
        E 0 90 49 6d
        E 0 90 4f 64
        E 0 90 60 6b
        E 0 90 61 6d
        E 0 90 67 64
        E 0 90 6c 6b
        E 120 80 48 00
        E 0 80 49 00
        E 0 80 4f 00
        E 0 80 60 00
        E 0 80 61 00
        E 0 80 67 00
        E 0 80 6c 00
        E 120 90 0d 64
        E 0 90 30 6d
        E 0 90 31 6f
        E 0 90 48 6d
        E 0 90 49 6f
        E 0 90 4e 64
        E 0 90 60 6d
        E 0 90 61 6f
        E 0 90 66 64
        E 0 90 6c 6d
        E 120 80 0d 00
        E 0 80 30 00
        E 0 80 31 00
        E 0 80 48 00
        E 0 80 49 00
        E 0 80 4e 00
        E 0 80 60 00
        E 0 80 61 00
        E 0 80 66 00
        E 0 80 6c 00
        E 360 90 09 64
        E 0 90 30 69
        E 0 90 31 6b
        E 0 90 48 69
        E 0 90 49 6b
        E 0 90 60 69
        E 0 90 61 6b
        E 0 90 6c 69
        E 120 80 09 00
        E 0 80 30 00
        E 0 80 31 00
        E 0 80 48 00
        E 0 80 49 00
        E 0 80 60 00
        E 0 80 61 00
        E 0 80 6c 00
        E 360 90 08 64
        E 0 90 18 68
        E 0 90 30 68
        E 0 90 31 6a
        E 0 90 48 68
        E 0 90 49 6a
        E 0 90 60 68
        E 0 90 61 6a
        E 0 90 6c 68
        E 120 80 08 00
        E 0 80 6c 00
        E 2280 80 18 00
        E 0 80 30 00
        E 0 80 31 00
        E 0 80 48 00
        E 0 80 49 00
        E 0 80 60 00
        E 0 80 61 00
        E 240 90 0b 64
        E 0 90 48 6b
        E 0 90 49 6d
        E 0 90 4f 64
        E 0 90 60 6b
        E 0 90 61 6d
        E 0 90 67 64
        E 0 90 6c 6b
        E 120 80 0b 00
        E 0 80 48 00
        E 0 80 49 00
        E 0 80 4f 00
        E 0 80 60 00
        E 0 80 61 00
        E 0 80 67 00
        E 0 80 6c 00
        E 120 90 0d 64
        E 0 90 30 6d
        E 0 90 31 6f
        E 0 90 48 6d
        E 0 90 49 6f
        E 0 90 4e 64
        E 0 90 60 6d
        E 0 90 61 6f
        E 0 90 66 64
        E 0 90 6c 6d
        E 120 80 0d 00
        E 0 80 30 00
        E 0 80 31 00
        E 0 80 48 00
        E 0 80 49 00
        E 0 80 4e 00
        E 0 80 60 00
        E 0 80 61 00
        E 0 80 66 00
        E 0 80 6c 00
        E 360 90 09 64
        E 0 90 30 69
        E 0 90 31 6b
        E 0 90 48 69
        E 0 90 49 6b
        E 0 90 60 69
        E 0 90 61 6b
        E 0 90 6c 69
        E 120 80 09 00
        E 0 80 30 00
        E 0 80 31 00
        E 0 80 48 00
        E 0 80 49 00
        E 0 80 60 00
        E 0 80 61 00
        E 0 80 6c 00
        E 360 90 08 64
        E 0 90 18 68
        E 0 90 30 68
        E 0 90 31 6a
        E 0 90 48 68
        E 0 90 49 6a
        E 0 90 60 68
        E 0 90 61 6a
        E 0 90 6c 68
        E 120 80 08 00
        E 0 80 6c 00
        E 2280 80 18 00
        E 0 80 30 00
        E 0 80 31 00
        E 0 80 48 00
        E 0 80 49 00
        E 0 80 60 00
        E 0 80 61 00
        E 240 90 0b 64
        E 0 90 48 6b
        E 0 90 49 6d
        E 0 90 4f 64
        E 0 90 60 6b
        E 0 90 61 6d
        E 0 90 67 64
        E 0 90 6c 6b
        E 120 80 0b 00
        E 0 80 48 00
        E 0 80 49 00
        E 0 80 4f 00
        E 0 80 60 00
        E 0 80 61 00
        E 0 80 67 00
        E 0 80 6c 00
        E 120 90 0d 64
        E 0 90 30 6d
        E 0 90 31 6f
        E 0 90 48 6d
        E 0 90 49 6f
        E 0 90 4e 64
        E 0 90 60 6d
        E 0 90 61 6f
        E 0 90 66 64
        E 0 90 6c 6d
        E 120 80 0d 00
        E 0 80 30 00
        E 0 80 31 00
        E 0 80 48 00
        E 0 80 49 00
        E 0 80 4e 00
        E 0 80 60 00
        E 0 80 61 00
        E 0 80 66 00
        E 0 80 6c 00
        E 360 90 09 64
        E 0 90 30 69
        E 0 90 31 6b
        E 0 90 48 69
        E 0 90 49 6b
        E 0 90 60 69
        E 0 90 61 6b
        E 0 90 6c 69
        E 120 80 09 00
        E 0 80 30 00
        E 0 80 31 00
        E 0 80 48 00
        E 0 80 49 00
        E 0 80 60 00
        E 0 80 61 00
        E 0 80 6c 00
        E 360 90 08 64
        E 0 90 18 68
        E 0 90 30 68
        E 0 90 31 6a
        E 0 90 48 68
        E 0 90 49 6a
        E 0 90 60 68
        E 0 90 61 6a
        E 0 90 6c 68
        E 120 80 08 00
        E 0 80 6c 00
        E 2280 80 18 00
        E 0 80 30 00
        E 0 80 31 00
        E 0 80 48 00
        E 0 80 49 00
        E 0 80 60 00
        E 0 80 61 00
        E 240 90 0b 64
        E 0 90 48 6b
        E 0 90 49 6d
        E 0 90 4f 64
        E 0 90 60 6b
        E 0 90 61 6d
        E 0 90 67 64
        E 0 90 6c 6b
        E 120 80 0b 00
        E 0 80 48 00
        E 0 80 49 00
        E 0 80 4f 00
        E 0 80 60 00
        E 0 80 61 00
        E 0 80 67 00
        E 0 80 6c 00
        E 120 90 0d 64
        E 0 90 30 6d
        E 0 90 31 6f
        E 0 90 48 6d
        E 0 90 49 6f
        E 0 90 4e 64
        E 0 90 60 6d
        E 0 90 61 6f
        E 0 90 66 64
        E 0 90 6c 6d
        E 120 80 0d 00
        E 0 80 30 00
        E 0 80 31 00
        E 0 80 48 00
        E 0 80 49 00
        E 0 80 4e 00
        E 0 80 60 00
        E 0 80 61 00
        E 0 80 66 00
        E 0 80 6c 00
        E 360 90 09 64
        E 0 90 30 69
        E 0 90 31 6b
        E 0 90 48 69
        E 0 90 49 6b
        E 0 90 60 69
        E 0 90 61 6b
        E 0 90 6c 69
        E 120 80 09 00
        E 0 80 30 00
        E 0 80 31 00
        E 0 80 48 00
        E 0 80 49 00
        E 0 80 60 00
        E 0 80 61 00
        E 0 80 6c 00
        E 360 90 08 64
        E 0 90 18 68
        E 0 90 30 68
        E 0 90 31 6a
        E 0 90 48 68
        E 0 90 49 6a
        E 0 90 60 68
        E 0 90 61 6a
        E 0 90 6c 68
        E 120 80 08 00
        E 0 80 6c 00
        E 1800 90 74 64
        E 480 80 18 00
        E 0 80 30 00
        E 0 80 31 00
        E 0 80 48 00
        E 0 80 49 00
        E 0 80 60 00
        E 0 80 61 00
        E 240 90 0b 64
        E 0 90 48 6b
        E 0 90 49 6d
        E 0 90 4f 64
        E 0 90 60 6b
        E 0 90 61 6d
        E 0 90 67 64
        E 0 90 6c 6b
        E 120 80 0b 00
        E 0 80 48 00
        E 0 80 49 00
        E 0 80 4f 00
        E 0 80 60 00
        E 0 80 61 00
        E 0 80 67 00
        E 0 80 6c 00
        E 120 90 0d 64
        E 0 90 30 6d
        E 0 90 31 6f
        E 0 90 48 6d
        E 0 90 49 6f
        E 0 90 4e 64
        E 0 90 60 6d
        E 0 90 61 6f
        E 0 90 66 64
        E 0 90 6c 6d
        E 120 80 0d 00
        E 0 80 30 00
        E 0 80 31 00
        E 0 80 48 00
        E 0 80 49 00
        E 0 80 4e 00
        E 0 80 60 00
        E 0 80 61 00
        E 0 80 66 00
        E 0 80 6c 00
        E 360 90 09 64
        E 0 90 30 69
        E 0 90 31 6b
        E 0 90 48 69
        E 0 90 49 6b
        E 0 90 60 69
        E 0 90 61 6b
        E 0 90 6c 69
        E 120 80 09 00
        E 0 80 30 00
        E 0 80 31 00
        E 0 80 48 00
        E 0 80 49 00
        E 0 80 60 00
        E 0 80 61 00
        E 0 80 6c 00
        E 360 90 08 64
        E 0 90 18 68
        E 0 90 30 68
        E 0 90 31 6a
        E 0 90 48 68
        E 0 90 49 6a
        E 0 90 60 68
        E 0 90 61 6a
        E 0 90 6c 68
        E 120 80 74 00
        E 0 80 08 00
        E 0 80 6c 00
        E 2280 80 18 00
        E 0 80 30 00
        E 0 80 31 00
        E 0 80 48 00
        E 0 80 49 00
        E 0 80 60 00
        E 0 80 61 00
        E 240 90 0b 64
        E 0 90 48 6b
        E 0 90 49 6d
        E 0 90 4f 64
        E 0 90 60 6b
        E 0 90 61 6d
        E 0 90 67 64
        E 0 90 6c 6b
        E 120 80 0b 00
        E 0 80 48 00
        E 0 80 49 00
        E 0 80 4f 00
        E 0 80 60 00
        E 0 80 61 00
        E 0 80 67 00
        E 0 80 6c 00
        E 120 90 0d 64
        E 0 90 30 6d
        E 0 90 31 6f
        E 0 90 48 6d
        E 0 90 49 6f
        E 0 90 4e 64
        E 0 90 60 6d
        E 0 90 61 6f
        E 0 90 66 64
        E 0 90 6c 6d
        E 120 80 0d 00
        E 0 80 30 00
        E 0 80 31 00
        E 0 80 48 00
        E 0 80 49 00
        E 0 80 4e 00
        E 0 80 60 00
        E 0 80 61 00
        E 0 80 66 00
        E 0 80 6c 00
        E 360 90 09 64
        E 0 90 30 69
        E 0 90 31 6b
        E 0 90 48 69
        E 0 90 49 6b
        E 0 90 60 69
        E 0 90 61 6b
        E 0 90 6c 69
        E 120 80 09 00
        E 0 80 30 00
        E 0 80 31 00
        E 0 80 48 00
        E 0 80 49 00
        E 0 80 60 00
        E 0 80 61 00
        E 0 80 6c 00
        E 360 90 08 64
        E 0 90 18 68
        E 0 90 30 68
        E 0 90 31 6a
        E 0 90 48 68
        E 0 90 49 6a
        E 0 90 60 68
        E 0 90 61 6a
        E 0 90 6c 68
        E 120 80 08 00
        E 0 80 6c 00
        E 2280 80 18 00
        E 0 80 30 00
        E 0 80 31 00
        E 0 80 48 00
        E 0 80 49 00
        E 0 80 60 00
        E 0 80 61 00
        E 240 90 0b 64
        E 0 90 48 6b
        E 0 90 49 6d
        E 0 90 4f 64
        E 0 90 60 6b
        E 0 90 61 6d
        E 0 90 67 64
        E 0 90 6c 6b
        E 120 80 0b 00
        E 0 80 48 00
        E 0 80 49 00
        E 0 80 4f 00
        E 0 80 60 00
        E 0 80 61 00
        E 0 80 67 00
        E 0 80 6c 00
        E 120 90 0d 64
        E 0 90 30 6d
        E 0 90 31 6f
        E 0 90 48 6d
        E 0 90 49 6f
        E 0 90 4e 64
        E 0 90 60 6d
        E 0 90 61 6f
        E 0 90 66 64
        E 0 90 6c 6d
        E 120 80 0d 00
        E 0 80 30 00
        E 0 80 31 00
        E 0 80 48 00
        E 0 80 49 00
        E 0 80 4e 00
        E 0 80 60 00
        E 0 80 61 00
        E 0 80 66 00
        E 0 80 6c 00
        E 360 90 09 64
        E 0 90 30 69
        E 0 90 31 6b
        E 0 90 48 69
        E 0 90 49 6b
        E 0 90 60 69
        E 0 90 61 6b
        E 0 90 6c 69
        E 120 80 09 00
        E 0 80 30 00
        E 0 80 31 00
        E 0 80 48 00
        E 0 80 49 00
        E 0 80 60 00
        E 0 80 61 00
        E 0 80 6c 00
        E 360 90 08 64
        E 0 90 18 68
        E 0 90 30 68
        E 0 90 31 6a
        E 0 90 48 68
        E 0 90 49 6a
        E 0 90 60 68
        E 0 90 61 6a
        E 0 90 6c 68
        E 120 80 08 00
        E 0 80 6c 00
        E 2280 80 18 00
        E 0 80 30 00
        E 0 80 31 00
        E 0 80 48 00
        E 0 80 49 00
        E 0 80 60 00
        E 0 80 61 00
        E 240 90 0b 64
        E 0 90 48 6b
        E 0 90 49 6d
        E 0 90 4f 64
        E 0 90 60 6b
        E 0 90 61 6d
        E 0 90 67 64
        E 0 90 6c 6b
        E 120 80 0b 00
        E 0 80 48 00
        E 0 80 49 00
        E 0 80 4f 00
        E 0 80 60 00
        E 0 80 61 00
        E 0 80 67 00
        E 0 80 6c 00
        E 120 90 0d 64
        E 0 90 30 6d
        E 0 90 31 6f
        E 0 90 48 6d
        E 0 90 49 6f
        E 0 90 4e 64
        E 0 90 60 6d
        E 0 90 61 6f
        E 0 90 66 64
        E 0 90 6c 6d
        E 120 80 0d 00
        E 0 80 30 00
        E 0 80 31 00
        E 0 80 48 00
        E 0 80 49 00
        E 0 80 4e 00
        E 0 80 60 00
        E 0 80 61 00
        E 0 80 66 00
        E 0 80 6c 00
        E 360 90 09 64
        E 0 90 30 69
        E 0 90 31 6b
        E 0 90 48 69
        E 0 90 49 6b
        E 0 90 60 69
        E 0 90 61 6b
        E 0 90 6c 69
        E 120 80 09 00
        E 0 80 30 00
        E 0 80 31 00
        E 0 80 48 00
        E 0 80 49 00
        E 0 80 60 00
        E 0 80 61 00
        E 0 80 6c 00
        E 360 90 08 64
        E 0 90 18 68
        E 0 90 30 68
        E 0 90 31 6a
        E 0 90 48 68
        E 0 90 49 6a
        E 0 90 60 68
        E 0 90 61 6a
        E 0 90 6c 68
        E 120 80 08 00
        E 0 80 6c 00
        E 1800 80 18 00
        E 0 80 30 00
        E 0 80 31 00
        E 240 80 48 00
        E 0 80 49 00
        E 0 80 60 00
        E 0 80 61 00
        <X 240 0
          /wFbYmVnaW5fcGcgc29uZ190cmFpbmVyX3BnXzRd
        >
        E 0 90 1c 68
        E 0 90 34 68
        E 0 90 4c 68
        E 0 90 64 68
        E 120 80 1c 00
        E 0 80 34 00
        E 480 80 4c 00
        E 0 80 64 00
        E 120 90 34 68
        E 0 90 4c 68
        E 0 90 64 68
        E 120 80 34 00
        E 240 80 4c 00
        E 0 80 64 00
        E 120 90 4c 69
        E 0 90 64 69
        E 120 80 4c 00
        E 0 80 64 00
        E 120 90 1b 6a
        E 0 90 33 6a
        E 0 90 4b 6a
        E 0 90 63 6a
        E 480 80 1b 00
        E 0 80 33 00
        E 360 80 4b 00
        E 0 80 63 00
        E 120 90 4d 68
        E 0 90 65 68
        E 840 80 4d 00
        E 0 80 65 00
        E 120 90 1c 6b
        E 0 90 34 6b
        E 0 90 4c 6b
        E 0 90 64 6b
        E 120 80 1c 00
        E 0 80 34 00
        E 480 80 4c 00
        E 0 80 64 00
        E 120 90 34 69
        E 0 90 4c 69
        E 0 90 64 69
        E 720 80 34 00
        E 360 80 4c 00
        E 0 80 64 00
        E 120 90 1b 6a
        E 0 90 33 6a
        E 0 90 4b 6a
        E 0 90 63 6a
        E 480 80 1b 00
        E 0 80 33 00
        E 360 80 4b 00
        E 0 80 63 00
        E 120 90 4d 68
        E 0 90 65 68
        E 0 90 74 64
        E 840 80 4d 00
        E 0 80 65 00
        E 120 90 1c 6b
        E 0 90 34 6b
        E 0 90 4c 6b
        E 0 90 64 6b
        E 120 80 1c 00
        E 0 80 34 00
        E 480 80 4c 00
        E 0 80 64 00
        E 120 90 34 69
        E 0 90 4c 69
        E 0 90 64 69
        E 720 80 34 00
        E 360 80 4c 00
        E 0 80 64 00
        E 120 90 1b 6a
        E 0 90 33 6a
        E 0 90 4b 6a
        E 0 90 63 6a
        E 120 80 1b 00
        E 0 80 33 00
        E 240 80 4b 00
        E 0 80 63 00
        <X 120 0
          /wFbZW5kX3BnIHNvbmdfdHJhaW5lcl9wZ180XQ==
        >
        E 0 80 74 00
        E 0 90 32 6a
        E 0 90 4a 6a
        E 0 90 62 6a
        E 120 80 32 00
        E 0 80 4a 00
        E 0 80 62 00
        E 360 90 1a 68
        E 0 90 32 68
        E 0 90 4a 68
        E 0 90 62 68
        E 120 80 1a 00
        E 0 80 32 00
        E 0 80 4a 00
        E 0 80 62 00
        E 360 90 33 68
        E 0 90 4b 68
        E 0 90 63 68
        E 120 80 33 00
        E 0 80 4b 00
        E 0 80 63 00
        E 120 90 4b 6a
        E 0 90 63 6a
        E 120 80 4b 00
        E 0 80 63 00
        E 360 90 33 6a
        E 0 90 4b 6a
        E 0 90 63 6a
        E 120 80 33 00
        E 0 80 4b 00
        E 0 80 63 00
        E 360 90 4d 6d
        E 0 90 65 6d
        E 0 90 6c 6d
        E 120 80 4d 00
        E 0 80 65 00
        E 0 80 6c 00
        E 120 90 4d 70
        E 0 90 65 70
        E 120 80 4d 00
        E 0 80 65 00
        E 120 90 4d 70
        E 0 90 65 70
        E 120 80 4d 00
        E 0 80 65 00
        E 120 90 35 6d
        E 0 90 4d 6d
        E 0 90 65 6d
        E 120 80 35 00
        E 0 80 4d 00
        E 0 80 65 00
        E 120 90 4d 6d
        E 0 90 65 6d
        E 120 80 4d 00
        E 0 80 65 00
        E 600 90 32 6a
        E 0 90 4a 6a
        E 0 90 62 6a
        E 0 90 6c 68
        E 120 80 32 00
        E 0 80 4a 00
        E 0 80 62 00
        E 0 80 6c 00
        E 360 90 1a 68
        E 0 90 32 68
        E 0 90 4a 68
        E 0 90 62 68
        E 120 80 1a 00
        E 0 80 32 00
        E 0 80 4a 00
        E 0 80 62 00
        E 360 90 32 6a
        E 0 90 4a 6a
        E 0 90 62 6a
        E 120 80 32 00
        E 0 80 4a 00
        E 0 80 62 00
        E 120 90 4b 68
        E 0 90 63 68
        E 120 80 4b 00
        E 0 80 63 00
        E 360 90 4b 68
        E 0 90 63 68
        E 120 80 4b 00
        E 0 80 63 00
        E 120 90 32 6a
        E 0 90 4a 6a
        E 0 90 62 6a
        E 120 80 32 00
        E 0 80 4a 00
        E 0 80 62 00
        E 120 90 4a 6a
        E 0 90 62 6a
        E 120 80 4a 00
        E 0 80 62 00
        E 120 90 1a 68
        E 0 90 32 68
        E 0 90 4a 68
        E 0 90 62 68
        E 0 90 6c 66
        E 120 80 1a 00
        E 0 80 32 00
        E 0 80 4a 00
        E 0 80 62 00
        E 0 80 6c 00
        E 120 90 4a 68
        E 0 90 62 68
        E 120 80 4a 00
        E 0 80 62 00
        E 120 90 32 66
        E 0 90 4a 66
        E 0 90 62 66
        E 120 80 32 00
        E 0 80 4a 00
        E 0 80 62 00
        E 120 90 4a 66
        E 0 90 62 66
        E 120 80 4a 00
        E 0 80 62 00
        E 600 90 32 6a
        E 0 90 4a 6a
        E 0 90 62 6a
        E 0 90 6c 68
        E 120 80 32 00
        E 0 80 4a 00
        E 0 80 62 00
        E 0 80 6c 00
        E 360 90 1a 68
        E 0 90 32 68
        E 0 90 4a 68
        E 0 90 62 68
        E 120 80 1a 00
        E 0 80 32 00
        E 0 80 4a 00
        E 0 80 62 00
        E 360 90 33 68
        E 0 90 4b 68
        E 0 90 63 68
        E 120 80 33 00
        E 0 80 4b 00
        E 0 80 63 00
        E 120 90 4b 6a
        E 0 90 63 6a
        E 120 80 4b 00
        E 0 80 63 00
        E 360 90 33 6a
        E 0 90 4b 6a
        E 0 90 63 6a
        E 120 80 33 00
        E 0 80 4b 00
        E 0 80 63 00
        E 360 90 4d 6d
        E 0 90 65 6d
        E 0 90 6c 6d
        E 120 80 4d 00
        E 0 80 65 00
        E 0 80 6c 00
        E 120 90 4d 70
        E 0 90 65 70
        E 120 80 4d 00
        E 0 80 65 00
        E 120 90 4d 70
        E 0 90 65 70
        E 120 80 4d 00
        E 0 80 65 00
        E 120 90 35 6d
        E 0 90 4d 6d
        E 0 90 65 6d
        E 120 80 35 00
        E 0 80 4d 00
        E 0 80 65 00
        E 120 90 4d 6d
        E 0 90 65 6d
        E 120 80 4d 00
        E 0 80 65 00
        E 600 90 32 6a
        E 0 90 4a 6a
        E 0 90 62 6a
        E 0 90 6c 68
        E 120 80 32 00
        E 0 80 4a 00
        E 0 80 62 00
        E 0 80 6c 00
        E 360 90 1a 68
        E 0 90 32 68
        E 0 90 4a 68
        E 0 90 62 68
        E 120 80 1a 00
        E 0 80 32 00
        E 0 80 4a 00
        E 0 80 62 00
        E 360 90 32 6a
        E 0 90 4a 6a
        E 0 90 62 6a
        E 120 80 32 00
        E 0 80 4a 00
        E 0 80 62 00
        E 120 90 4b 68
        E 0 90 63 68
        E 120 80 4b 00
        E 0 80 63 00
        E 360 90 4b 68
        E 0 90 63 68
        E 120 80 4b 00
        E 0 80 63 00
        E 120 90 32 6a
        E 0 90 4a 6a
        E 0 90 62 6a
        E 120 80 32 00
        E 0 80 4a 00
        E 0 80 62 00
        E 120 90 4a 6a
        E 0 90 62 6a
        E 120 80 4a 00
        E 0 80 62 00
        E 120 90 1a 68
        E 0 90 32 68
        E 0 90 4a 68
        E 0 90 62 68
        E 120 80 1a 00
        E 0 80 32 00
        E 0 80 4a 00
        E 0 80 62 00
        E 120 90 4a 68
        E 0 90 62 68
        E 120 80 4a 00
        E 0 80 62 00
        E 120 90 32 6a
        E 0 90 4a 6a
        E 0 90 62 6a
        E 120 80 32 00
        E 0 80 4a 00
        E 0 80 62 00
        E 840 90 32 6a
        E 0 90 4a 6a
        E 0 90 62 6a
        E 120 80 32 00
        E 0 80 4a 00
        E 0 80 62 00
        E 360 90 1a 68
        E 0 90 32 68
        E 0 90 4a 68
        E 0 90 62 68
        E 120 80 1a 00
        E 0 80 32 00
        E 0 80 4a 00
        E 0 80 62 00
        E 360 90 32 6a
        E 0 90 4a 6a
        E 0 90 62 6a
        E 120 80 32 00
        E 0 80 4a 00
        E 0 80 62 00
        E 120 90 4b 6a
        E 0 90 63 6a
        E 120 80 4b 00
        E 0 80 63 00
        E 360 90 4b 6a
        E 0 90 63 6a
        E 120 80 4b 00
        E 0 80 63 00
        E 120 90 32 6a
        E 0 90 4a 6a
        E 0 90 62 6a
        E 120 80 32 00
        E 0 80 4a 00
        E 0 80 62 00
        E 120 90 4a 6a
        E 0 90 62 6a
        E 120 80 4a 00
        E 0 80 62 00
        E 120 90 1a 68
        E 0 90 32 68
        E 0 90 4a 68
        E 0 90 62 68
        E 120 80 1a 00
        E 0 80 32 00
        E 0 80 4a 00
        E 0 80 62 00
        E 120 90 4a 68
        E 0 90 62 68
        E 120 80 4a 00
        E 0 80 62 00
        E 120 90 32 6a
        E 0 90 4a 6a
        E 0 90 62 6a
        E 120 80 32 00
        E 0 80 4a 00
        E 0 80 62 00
        E 840 90 32 6a
        E 0 90 4a 6a
        E 0 90 62 6a
        E 120 80 32 00
        E 0 80 4a 00
        E 0 80 62 00
        E 360 90 1a 68
        E 0 90 32 68
        E 0 90 4a 68
        E 0 90 62 68
        E 120 80 1a 00
        E 0 80 32 00
        E 0 80 4a 00
        E 0 80 62 00
        E 360 90 32 6a
        E 0 90 4a 6a
        E 0 90 62 6a
        E 0 90 6c 6a
        E 120 80 32 00
        E 0 80 4a 00
        E 0 80 62 00
        E 0 80 6c 00
        E 120 90 4a 6d
        E 0 90 62 6d
        E 120 80 4a 00
        E 0 80 62 00
        E 120 90 4a 6d
        E 0 90 62 6d
        E 3600 80 4a 00
        E 0 80 62 00
        <X 240 0
          /wFbYmVnaW5fcGcgc29uZ190cmFpbmVyX3BnXzVd
        >
        E 0 90 1b 6a
        E 0 90 33 6a
        E 0 90 4b 6a
        E 0 90 63 6a
        E 0 90 73 64
        E 0 90 74 64
        E 480 80 1b 00
        E 0 80 33 00
        E 120 80 4b 00
        E 0 80 63 00
        E 120 90 4b 6a
        E 0 90 63 6a
        E 120 80 4b 00
        E 0 80 63 00
        E 120 90 1b 6d
        E 0 90 33 6d
        E 0 90 4b 6d
        E 0 90 63 6d
        E 120 80 1b 00
        E 0 80 33 00
        E 0 80 4b 00
        E 0 80 63 00
        E 120 90 4b 6d
        E 0 90 63 6d
        E 120 80 4b 00
        E 0 80 63 00
        E 120 90 33 6a
        E 0 90 4b 6a
        E 0 90 63 6a
        E 120 80 33 00
        E 0 80 4b 00
        E 0 80 63 00
        E 120 90 33 6a
        E 0 90 4b 6a
        E 0 90 63 6a
        E 120 80 33 00
        E 0 80 4b 00
        E 0 80 63 00
        <X 120 0
          /wFbcGdfbm9ybSBzb25nX3RyYWluZXJfcGdfNV0=
        >
        E 960 90 1c 6d
        E 0 90 34 6d
        E 0 90 4c 6d
        E 0 90 64 6d
        E 120 80 1c 00
        E 0 80 34 00
        E 0 80 4c 00
        E 0 80 64 00
        E 120 90 4c 6d
        E 0 90 64 6d
        E 120 80 4c 00
        E 0 80 64 00
        E 120 90 34 6b
        E 0 90 4c 6b
        E 0 90 64 6b
        E 120 80 34 00
        E 0 80 4c 00
        E 0 80 64 00
        E 120 90 4b 6d
        E 0 90 63 6d
        E 120 80 4b 00
        E 0 80 63 00
        E 120 90 1a 6b
        E 0 90 32 6b
        E 0 90 4a 6b
        E 0 90 62 6b
        E 120 80 1a 00
        E 0 80 32 00
        E 0 80 4a 00
        E 0 80 62 00
        E 120 90 32 6b
        E 0 90 4a 6b
        E 0 90 62 6b
        E 120 80 32 00
        E 0 80 4a 00
        E 0 80 62 00
        E 120 80 74 00
        E 240 90 4a 6b
        E 0 90 62 6b
        E 120 80 4a 00
        E 0 80 62 00
        E 120 90 1b 6d
        E 0 90 33 6d
        E 0 90 4b 6d
        E 0 90 4f 64
        E 0 90 63 6d
        E 0 90 67 64
        E 0 90 6c 6d
        E 120 80 1b 00
        E 0 80 33 00
        E 0 80 4b 00
        E 0 80 4f 00
        E 0 80 63 00
        E 0 80 67 00
        E 0 80 6c 00
        E 120 90 4b 6f
        E 0 90 4e 64
        E 0 90 63 6f
        E 0 90 66 64
        E 120 80 4b 00
        E 0 80 4e 00
        E 0 80 63 00
        E 0 80 66 00
        E 120 90 33 6f
        E 0 90 4b 6f
        E 0 90 63 6f
        E 120 80 33 00
        E 0 80 4b 00
        E 0 80 63 00
        E 120 90 33 6f
        E 0 90 4b 6f
        E 0 90 63 6f
        E 120 80 33 00
        E 0 80 4b 00
        E 0 80 63 00
        E 360 90 1b 6d
        E 0 90 33 6d
        E 0 90 4b 6d
        E 0 90 63 6d
        E 0 90 6c 6c
        E 120 80 1b 00
        E 0 80 33 00
        E 0 80 4b 00
        E 0 80 63 00
        E 0 80 6c 00
        E 360 90 33 6c
        E 0 90 4b 6c
        E 0 90 63 6c
        E 120 80 33 00
        E 0 80 4b 00
        E 0 80 63 00
        E 360 90 4b 6d
        E 0 90 63 6d
        E 120 80 4b 00
        E 0 80 63 00
        E 120 90 1b 6c
        E 0 90 33 6c
        E 0 90 4b 6c
        E 0 90 63 6c
        E 120 80 1b 00
        E 0 80 33 00
        E 0 80 4b 00
        E 0 80 63 00
        E 120 90 4a 6d
        E 0 90 62 6d
        E 120 80 4a 00
        E 0 80 62 00
        <X 120 0
          /wFbZW5kX3BnIHNvbmdfdHJhaW5lcl9wZ181XQ==
        >
        E 0 90 1b 6a
        E 0 90 33 6a
        E 0 90 4b 6a
        E 0 90 63 6a
        E 0 90 6c 6a
        E 120 80 6c 00
        E 360 80 1b 00
        E 0 80 33 00
        E 120 80 4b 00
        E 0 80 63 00
        E 120 90 4b 6a
        E 0 90 63 6a
        E 120 80 4b 00
        E 0 80 63 00
        E 120 90 1b 6d
        E 0 90 33 6d
        E 0 90 4b 6d
        E 0 90 63 6d
        E 120 80 1b 00
        E 0 80 33 00
        E 0 80 4b 00
        E 0 80 63 00
        E 120 90 4b 6d
        E 0 90 63 6d
        E 120 80 4b 00
        E 0 80 63 00
        E 120 90 33 6a
        E 0 90 4b 6a
        E 0 90 63 6a
        E 120 80 33 00
        E 0 80 4b 00
        E 0 80 63 00
        E 120 90 33 6a
        E 0 90 4b 6a
        E 0 90 63 6a
        E 120 80 33 00
        E 0 80 4b 00
        E 0 80 63 00
        E 840 90 4c 6b
        E 0 90 64 6b
        E 120 80 4c 00
        E 0 80 64 00
        E 120 90 1c 6d
        E 0 90 34 6d
        E 0 90 4c 6d
        E 0 90 64 6d
        E 120 80 1c 00
        E 0 80 34 00
        E 0 80 4c 00
        E 0 80 64 00
        E 120 90 4c 6d
        E 0 90 64 6d
        E 120 80 4c 00
        E 0 80 64 00
        E 120 90 34 6b
        E 0 90 4c 6b
        E 0 90 64 6b
        E 120 80 34 00
        E 0 80 4c 00
        E 0 80 64 00
        E 120 90 4b 6d
        E 0 90 63 6d
        E 120 80 4b 00
        E 0 80 63 00
        E 120 90 1a 6b
        E 0 90 32 6b
        E 0 90 4a 6b
        E 0 90 62 6b
        E 120 80 1a 00
        E 0 80 32 00
        E 0 80 4a 00
        E 0 80 62 00
        E 600 90 4a 6b
        E 0 90 62 6b
        E 120 80 4a 00
        E 0 80 62 00
        E 120 90 1b 6d
        E 0 90 33 6d
        E 0 90 4b 6d
        E 0 90 4f 64
        E 0 90 63 6d
        E 0 90 67 64
        E 0 90 6c 6d
        E 120 80 1b 00
        E 0 80 33 00
        E 0 80 4b 00
        E 0 80 4f 00
        E 0 80 63 00
        E 0 80 67 00
        E 0 80 6c 00
        E 120 90 4b 6f
        E 0 90 4e 64
        E 0 90 63 6f
        E 0 90 66 64
        E 120 80 4b 00
        E 0 80 4e 00
        E 0 80 63 00
        E 0 80 66 00
        E 120 90 33 6f
        E 0 90 4b 6f
        E 0 90 63 6f
        E 120 80 33 00
        E 0 80 4b 00
        E 0 80 63 00
        E 120 90 33 6f
        E 0 90 4b 6f
        E 0 90 63 6f
        E 120 80 33 00
        E 0 80 4b 00
        E 0 80 63 00
        E 360 90 1b 6d
        E 0 90 33 6d
        E 0 90 4b 6d
        E 0 90 63 6d
        E 0 90 6c 6c
        E 120 80 1b 00
        E 0 80 33 00
        E 0 80 4b 00
        E 0 80 63 00
        E 0 80 6c 00
        E 360 90 33 6c
        E 0 90 4b 6c
        E 0 90 63 6c
        E 120 80 33 00
        E 0 80 4b 00
        E 0 80 63 00
        E 360 90 4b 6d
        E 0 90 63 6d
        E 120 80 4b 00
        E 0 80 63 00
        E 120 90 1b 6c
        E 0 90 33 6c
        E 0 90 4b 6c
        E 0 90 63 6c
        E 120 80 1b 00
        E 0 80 33 00
        E 0 80 4b 00
        E 0 80 63 00
        E 120 90 4a 6d
        E 0 90 62 6d
        E 120 80 4a 00
        E 0 80 62 00
        E 120 90 1b 6a
        E 0 90 33 6a
        E 0 90 4b 6a
        E 0 90 63 6a
        E 0 90 6c 6a
        E 120 80 6c 00
        E 360 80 1b 00
        E 0 80 33 00
        E 120 80 4b 00
        E 0 80 63 00
        E 120 90 4b 6a
        E 0 90 63 6a
        E 120 80 4b 00
        E 0 80 63 00
        E 120 90 1b 6d
        E 0 90 33 6d
        E 0 90 4b 6d
        E 0 90 63 6d
        E 120 80 1b 00
        E 0 80 33 00
        E 0 80 4b 00
        E 0 80 63 00
        E 120 90 4b 6d
        E 0 90 63 6d
        E 120 80 4b 00
        E 0 80 63 00
        E 120 90 33 6a
        E 0 90 4b 6a
        E 0 90 63 6a
        E 120 80 33 00
        E 0 80 4b 00
        E 0 80 63 00
        E 120 90 33 6a
        E 0 90 4b 6a
        E 0 90 63 6a
        E 120 80 33 00
        E 0 80 4b 00
        E 0 80 63 00
        E 840 90 4c 6b
        E 0 90 64 6b
        E 120 80 4c 00
        E 0 80 64 00
        E 120 90 1c 6d
        E 0 90 34 6d
        E 0 90 4c 6d
        E 0 90 64 6d
        E 120 80 1c 00
        E 0 80 34 00
        E 0 80 4c 00
        E 0 80 64 00
        E 120 90 4c 6d
        E 0 90 64 6d
        E 120 80 4c 00
        E 0 80 64 00
        E 120 90 34 6b
        E 0 90 4c 6b
        E 0 90 64 6b
        E 120 80 34 00
        E 0 80 4c 00
        E 0 80 64 00
        E 120 90 4b 6d
        E 0 90 63 6d
        E 120 80 4b 00
        E 0 80 63 00
        E 120 90 1a 6b
        E 0 90 32 6b
        E 0 90 4a 6b
        E 0 90 62 6b
        E 0 90 74 64
        E 120 80 1a 00
        E 0 80 32 00
        E 0 80 4a 00
        E 0 80 62 00
        E 600 90 4a 6b
        E 0 90 62 6b
        E 120 80 4a 00
        E 0 80 62 00
        E 120 90 1b 6d
        E 0 90 33 6d
        E 0 90 4b 6d
        E 0 90 4f 64
        E 0 90 63 6d
        E 0 90 67 64
        E 0 90 6c 6d
        E 120 80 1b 00
        E 0 80 33 00
        E 0 80 4b 00
        E 0 80 4f 00
        E 0 80 63 00
        E 0 80 67 00
        E 0 80 6c 00
        E 120 90 4b 6f
        E 0 90 4e 64
        E 0 90 63 6f
        E 0 90 66 64
        E 120 80 4b 00
        E 0 80 4e 00
        E 0 80 63 00
        E 0 80 66 00
        E 120 90 33 6f
        E 0 90 4b 6f
        E 0 90 63 6f
        E 120 80 33 00
        E 0 80 4b 00
        E 0 80 63 00
        E 120 90 33 6f
        E 0 90 4b 6f
        E 0 90 63 6f
        E 120 80 33 00
        E 0 80 4b 00
        E 0 80 63 00
        E 360 90 1b 6d
        E 0 90 33 6d
        E 0 90 4b 6d
        E 0 90 63 6d
        E 0 90 6c 6c
        E 120 80 1b 00
        E 0 80 33 00
        E 0 80 4b 00
        E 0 80 63 00
        E 0 80 6c 00
        E 360 90 33 6c
        E 0 90 4b 6c
        E 0 90 63 6c
        E 120 80 33 00
        E 0 80 4b 00
        E 0 80 63 00
        E 360 90 4b 6d
        E 0 90 63 6d
        E 120 80 4b 00
        E 0 80 63 00
        E 120 90 1b 6c
        E 0 90 33 6c
        E 0 90 4b 6c
        E 0 90 63 6c
        E 120 80 1b 00
        E 0 80 33 00
        E 0 80 4b 00
        E 0 80 63 00
        E 120 90 4a 6d
        E 0 90 62 6d
        E 120 80 4a 00
        E 0 80 62 00
        E 120 90 1b 6a
        E 0 90 33 6a
        E 0 90 4b 6a
        E 0 90 63 6a
        E 0 90 6c 6a
        E 120 80 74 00
        E 0 80 6c 00
        E 360 80 1b 00
        E 0 80 33 00
        E 120 80 4b 00
        E 0 80 63 00
        E 120 90 4b 6a
        E 0 90 63 6a
        E 120 80 4b 00
        E 0 80 63 00
        E 120 90 1b 6d
        E 0 90 33 6d
        E 0 90 4b 6d
        E 0 90 63 6d
        E 120 80 1b 00
        E 0 80 33 00
        E 0 80 4b 00
        E 0 80 63 00
        E 120 90 4b 6d
        E 0 90 63 6d
        E 120 80 4b 00
        E 0 80 63 00
        E 120 90 33 6a
        E 0 90 4b 6a
        E 0 90 63 6a
        E 120 80 33 00
        E 0 80 4b 00
        E 0 80 63 00
        E 120 90 33 6a
        E 0 90 4b 6a
        E 0 90 63 6a
        E 120 80 33 00
        E 0 80 4b 00
        E 0 80 63 00
        E 840 90 4c 6b
        E 0 90 64 6b
        E 120 80 4c 00
        E 0 80 64 00
        E 120 90 1c 6d
        E 0 90 34 6d
        E 0 90 4c 6d
        E 0 90 64 6d
        E 120 80 1c 00
        E 0 80 34 00
        E 0 80 4c 00
        E 0 80 64 00
        E 120 90 4c 6d
        E 0 90 64 6d
        E 120 80 4c 00
        E 0 80 64 00
        E 120 90 34 6b
        E 0 90 4c 6b
        E 0 90 64 6b
        E 120 80 34 00
        E 0 80 4c 00
        E 0 80 64 00
        E 120 90 4b 6d
        E 0 90 63 6d
        E 120 80 4b 00
        E 0 80 63 00
        E 120 90 1a 6b
        E 0 90 32 6b
        E 0 90 4a 6b
        E 0 90 62 6b
        E 120 80 1a 00
        E 0 80 32 00
        E 0 80 4a 00
        E 0 80 62 00
        E 600 90 4a 6b
        E 0 90 62 6b
        E 120 80 4a 00
        E 0 80 62 00
        E 120 90 1b 6d
        E 0 90 33 6d
        E 0 90 4b 6d
        E 0 90 4f 64
        E 0 90 63 6d
        E 0 90 67 64
        E 0 90 6c 6d
        E 120 80 1b 00
        E 0 80 33 00
        E 0 80 4b 00
        E 0 80 4f 00
        E 0 80 63 00
        E 0 80 67 00
        E 0 80 6c 00
        E 120 90 4b 6f
        E 0 90 4e 64
        E 0 90 63 6f
        E 0 90 66 64
        E 120 80 4b 00
        E 0 80 4e 00
        E 0 80 63 00
        E 0 80 66 00
        E 120 90 33 6f
        E 0 90 4b 6f
        E 0 90 63 6f
        E 120 80 33 00
        E 0 80 4b 00
        E 0 80 63 00
        E 120 90 33 6f
        E 0 90 4b 6f
        E 0 90 63 6f
        E 120 80 33 00
        E 0 80 4b 00
        E 0 80 63 00
        E 360 90 1b 6d
        E 0 90 33 6d
        E 0 90 4b 6d
        E 0 90 63 6d
        E 0 90 6c 6c
        E 120 80 1b 00
        E 0 80 33 00
        E 0 80 4b 00
        E 0 80 63 00
        E 0 80 6c 00
        E 360 90 33 6c
        E 0 90 4b 6c
        E 0 90 63 6c
        E 120 80 33 00
        E 0 80 4b 00
        E 0 80 63 00
        E 360 90 4b 6d
        E 0 90 63 6d
        E 120 80 4b 00
        E 0 80 63 00
        E 120 90 1b 6c
        E 0 90 33 6c
        E 0 90 4b 6c
        E 0 90 63 6c
        E 120 80 1b 00
        E 0 80 33 00
        E 0 80 4b 00
        E 0 80 63 00
        E 120 90 4a 6d
        E 0 90 62 6d
        E 120 80 4a 00
        E 0 80 62 00
        E 600 90 32 6a
        E 0 90 4a 6a
        E 0 90 62 6a
        E 0 90 6c 68
        E 120 80 32 00
        E 0 80 4a 00
        E 0 80 62 00
        E 0 80 6c 00
        E 360 90 1a 68
        E 0 90 32 68
        E 0 90 4a 68
        E 0 90 62 68
        E 120 80 1a 00
        E 0 80 32 00
        E 0 80 4a 00
        E 0 80 62 00
        E 360 90 33 68
        E 0 90 4b 68
        E 0 90 63 68
        E 120 80 33 00
        E 0 80 4b 00
        E 0 80 63 00
        E 120 90 4b 6a
        E 0 90 63 6a
        E 120 80 4b 00
        E 0 80 63 00
        E 360 90 33 6a
        E 0 90 4b 6a
        E 0 90 63 6a
        E 120 80 33 00
        E 0 80 4b 00
        E 0 80 63 00
        E 360 90 4b 6a
        E 0 90 63 6a
        E 120 80 4b 00
        E 0 80 63 00
        E 120 90 1a 6a
        E 0 90 32 6a
        E 0 90 4a 6a
        E 0 90 62 6a
        E 120 80 1a 00
        E 0 80 32 00
        E 0 80 4a 00
        E 0 80 62 00
        E 120 90 4a 6a
        E 0 90 62 6a
        E 120 80 4a 00
        E 0 80 62 00
        E 120 90 32 68
        E 0 90 4a 68
        E 0 90 62 68
        E 120 80 32 00
        E 0 80 4a 00
        E 0 80 62 00
        E 120 90 49 6b
        E 0 90 61 6b
        E 120 80 49 00
        E 0 80 61 00
        E 600 90 32 6a
        E 0 90 4a 6a
        E 0 90 62 6a
        E 120 80 32 00
        E 0 80 4a 00
        E 0 80 62 00
        E 360 90 1a 68
        E 0 90 32 68
        E 0 90 4a 68
        E 0 90 62 68
        E 120 80 1a 00
        E 0 80 32 00
        E 0 80 4a 00
        E 0 80 62 00
        E 360 90 32 6a
        E 0 90 4a 6a
        E 0 90 62 6a
        E 120 80 32 00
        E 0 80 4a 00
        E 0 80 62 00
        E 120 90 4b 68
        E 0 90 63 68
        E 120 80 4b 00
        E 0 80 63 00
        E 360 90 4b 68
        E 0 90 63 68
        E 120 80 4b 00
        E 0 80 63 00
        E 120 90 32 6a
        E 0 90 4a 6a
        E 0 90 62 6a
        E 120 80 32 00
        E 0 80 4a 00
        E 0 80 62 00
        E 120 90 4a 6a
        E 0 90 62 6a
        E 120 80 4a 00
        E 0 80 62 00
        E 120 90 1a 68
        E 0 90 32 68
        E 0 90 4a 68
        E 0 90 62 68
        E 120 80 1a 00
        E 0 80 32 00
        E 0 80 4a 00
        E 0 80 62 00
        E 120 90 4a 68
        E 0 90 62 68
        E 120 80 4a 00
        E 0 80 62 00
        E 120 90 32 6a
        E 0 90 4a 6a
        E 0 90 62 6a
        E 120 80 32 00
        E 0 80 4a 00
        E 0 80 62 00
        E 840 90 32 6a
        E 0 90 4a 6a
        E 0 90 62 6a
        E 120 80 32 00
        E 0 80 4a 00
        E 0 80 62 00
        E 360 90 1a 68
        E 0 90 32 68
        E 0 90 4a 68
        E 0 90 62 68
        E 120 80 1a 00
        E 0 80 32 00
        E 0 80 4a 00
        E 0 80 62 00
        E 360 90 33 68
        E 0 90 4b 68
        E 0 90 63 68
        E 120 80 33 00
        E 0 80 4b 00
        E 0 80 63 00
        E 120 90 4b 6a
        E 0 90 63 6a
        E 120 80 4b 00
        E 0 80 63 00
        E 360 90 33 6a
        E 0 90 4b 6a
        E 0 90 63 6a
        E 120 80 33 00
        E 0 80 4b 00
        E 0 80 63 00
        E 360 90 4b 6a
        E 0 90 63 6a
        E 120 80 4b 00
        E 0 80 63 00
        E 120 90 1a 6a
        E 0 90 32 6a
        E 0 90 4a 6a
        E 0 90 62 6a
        E 120 80 1a 00
        E 0 80 32 00
        E 0 80 4a 00
        E 0 80 62 00
        E 120 90 4a 6a
        E 0 90 62 6a
        E 120 80 4a 00
        E 0 80 62 00
        E 120 90 32 68
        E 0 90 4a 68
        E 0 90 62 68
        E 120 80 32 00
        E 0 80 4a 00
        E 0 80 62 00
        E 120 90 49 6b
        E 0 90 61 6b
        E 120 80 49 00
        E 0 80 61 00
        E 600 90 32 6a
        E 0 90 4a 6a
        E 0 90 62 6a
        E 120 80 32 00
        E 0 80 4a 00
        E 0 80 62 00
        E 360 90 1a 68
        E 0 90 32 68
        E 0 90 4a 68
        E 0 90 62 68
        E 120 80 1a 00
        E 0 80 32 00
        E 0 80 4a 00
        E 0 80 62 00
        E 360 90 32 6a
        E 0 90 4a 6a
        E 0 90 62 6a
        E 120 80 32 00
        E 0 80 4a 00
        E 0 80 62 00
        E 120 90 4b 68
        E 0 90 63 68
        E 120 80 4b 00
        E 0 80 63 00
        E 360 90 4b 68
        E 0 90 63 68
        E 120 80 4b 00
        E 0 80 63 00
        E 120 90 32 6a
        E 0 90 4a 6a
        E 0 90 62 6a
        E 120 80 32 00
        E 0 80 4a 00
        E 0 80 62 00
        E 120 90 4a 6a
        E 0 90 62 6a
        E 120 80 4a 00
        E 0 80 62 00
        E 120 90 1a 68
        E 0 90 32 68
        E 0 90 4a 68
        E 0 90 62 68
        E 120 80 1a 00
        E 0 80 32 00
        E 0 80 4a 00
        E 0 80 62 00
        E 120 90 4a 68
        E 0 90 62 68
        E 120 80 4a 00
        E 0 80 62 00
        E 120 90 32 6a
        E 0 90 4a 6a
        E 0 90 62 6a
        E 120 80 73 00
        E 0 80 32 00
        E 0 80 4a 00
        E 0 80 62 00
        E 360 90 74 64
        E 480 90 32 6a
        E 0 90 4a 6a
        E 0 90 62 6a
        E 120 80 32 00
        E 0 80 4a 00
        E 0 80 62 00
        E 360 90 1a 68
        E 0 90 32 68
        E 0 90 4a 68
        E 0 90 62 68
        E 120 80 1a 00
        E 0 80 32 00
        E 0 80 4a 00
        E 0 80 62 00
        E 360 90 33 68
        E 0 90 4b 68
        E 0 90 63 68
        E 120 80 33 00
        E 0 80 4b 00
        E 0 80 63 00
        E 120 90 4b 6a
        E 0 90 63 6a
        E 120 80 4b 00
        E 0 80 63 00
        E 360 90 33 6a
        E 0 90 4b 6a
        E 0 90 63 6a
        E 120 80 33 00
        E 0 80 4b 00
        E 0 80 63 00
        E 360 90 4d 6d
        E 0 90 65 6d
        E 0 90 6c 6d
        E 120 80 4d 00
        E 0 80 65 00
        E 0 80 6c 00
        E 120 90 4d 70
        E 0 90 65 70
        E 120 80 4d 00
        E 0 80 65 00
        E 120 90 4d 70
        E 0 90 65 70
        E 120 80 4d 00
        E 0 80 65 00
        E 120 90 35 6d
        E 0 90 4d 6d
        E 0 90 65 6d
        E 120 80 35 00
        E 0 80 4d 00
        E 0 80 65 00
        E 120 90 35 6d
        E 0 90 4d 6d
        E 0 90 65 6d
        E 120 80 35 00
        E 0 80 4d 00
        E 0 80 65 00
        E 240 80 74 00
        E 360 90 32 6a
        E 0 90 4a 6a
        E 0 90 62 6a
        E 0 90 6c 68
        E 120 80 32 00
        E 0 80 4a 00
        E 0 80 62 00
        E 0 80 6c 00
        E 360 90 1a 68
        E 0 90 32 68
        E 0 90 4a 68
        E 0 90 62 68
        E 120 80 1a 00
        E 0 80 32 00
        E 0 80 4a 00
        E 0 80 62 00
        E 360 90 32 6a
        E 0 90 4a 6a
        E 0 90 62 6a
        E 120 80 32 00
        E 0 80 4a 00
        E 0 80 62 00
        E 120 90 4b 68
        E 0 90 63 68
        E 120 80 4b 00
        E 0 80 63 00
        E 360 90 4b 68
        E 0 90 63 68
        E 120 80 4b 00
        E 0 80 63 00
        E 120 90 32 6a
        E 0 90 4a 6a
        E 0 90 62 6a
        E 120 80 32 00
        E 0 80 4a 00
        E 0 80 62 00
        E 120 90 4a 6a
        E 0 90 62 6a
        E 120 80 4a 00
        E 0 80 62 00
        E 120 90 1a 68
        E 0 90 32 68
        E 0 90 4a 68
        E 0 90 62 68
        E 120 80 1a 00
        E 0 80 32 00
        E 0 80 4a 00
        E 0 80 62 00
        E 120 90 4a 68
        E 0 90 62 68
        E 120 80 4a 00
        E 0 80 62 00
        E 120 90 1a 6a
        E 0 90 32 6a
        E 0 90 4a 6a
        E 0 90 62 6a
        E 120 80 1a 00
        E 0 80 32 00
        E 0 80 4a 00
        E 0 80 62 00
        E 840 90 32 6a
        E 0 90 4a 6a
        E 0 90 62 6a
        E 120 80 32 00
        E 0 80 4a 00
        E 0 80 62 00
        E 360 90 1a 68
        E 0 90 32 68
        E 0 90 4a 68
        E 0 90 62 68
        E 120 80 1a 00
        E 0 80 32 00
        E 0 80 4a 00
        E 0 80 62 00
        E 360 90 33 68
        E 0 90 4b 68
        E 0 90 63 68
        E 120 80 33 00
        E 0 80 4b 00
        E 0 80 63 00
        E 120 90 4b 6a
        E 0 90 63 6a
        E 120 80 4b 00
        E 0 80 63 00
        E 360 90 33 6a
        E 0 90 4b 6a
        E 0 90 63 6a
        E 120 80 33 00
        E 0 80 4b 00
        E 0 80 63 00
        E 360 90 4d 6d
        E 0 90 65 6d
        E 0 90 6c 6d
        E 120 80 4d 00
        E 0 80 65 00
        E 0 80 6c 00
        E 120 90 4d 70
        E 0 90 65 70
        E 120 80 4d 00
        E 0 80 65 00
        E 120 90 4d 70
        E 0 90 65 70
        E 120 80 4d 00
        E 0 80 65 00
        E 120 90 35 6d
        E 0 90 4d 6d
        E 0 90 65 6d
        E 120 80 35 00
        E 0 80 4d 00
        E 0 80 65 00
        E 120 90 35 6d
        E 0 90 4d 6d
        E 0 90 65 6d
        E 120 80 35 00
        E 0 80 4d 00
        E 0 80 65 00
        E 600 90 32 6a
        E 0 90 4a 6a
        E 0 90 62 6a
        E 0 90 6c 68
        E 120 80 32 00
        E 0 80 4a 00
        E 0 80 62 00
        E 0 80 6c 00
        E 360 90 1a 68
        E 0 90 32 68
        E 0 90 4a 68
        E 0 90 62 68
        E 120 80 1a 00
        E 0 80 32 00
        E 0 80 4a 00
        E 0 80 62 00
        E 360 90 32 6a
        E 0 90 4a 6a
        E 0 90 62 6a
        E 120 80 32 00
        E 0 80 4a 00
        E 0 80 62 00
        E 120 90 4b 68
        E 0 90 63 68
        E 120 80 4b 00
        E 0 80 63 00
        E 360 90 4b 68
        E 0 90 63 68
        E 120 80 4b 00
        E 0 80 63 00
        E 120 90 32 6a
        E 0 90 4a 6a
        E 0 90 62 6a
        E 120 80 32 00
        E 0 80 4a 00
        E 0 80 62 00
        E 120 90 4a 6a
        E 0 90 62 6a
        E 120 80 4a 00
        E 0 80 62 00
        E 120 90 1a 68
        E 0 90 32 68
        E 0 90 4a 68
        E 0 90 62 68
        E 120 80 1a 00
        E 0 80 32 00
        E 0 80 4a 00
        E 0 80 62 00
        E 120 90 4a 68
        E 0 90 62 68
        E 120 80 4a 00
        E 0 80 62 00
        E 120 90 32 6a
        E 0 90 4a 6a
        E 0 90 62 6a
        E 120 80 32 00
        E 0 80 4a 00
        E 0 80 62 00
        E 840 90 32 6a
        E 0 90 4a 6a
        E 0 90 62 6a
        E 120 80 32 00
        E 0 80 4a 00
        E 0 80 62 00
        E 360 90 1a 68
        E 0 90 32 68
        E 0 90 4a 68
        E 0 90 62 68
        E 120 80 1a 00
        E 0 80 32 00
        E 0 80 4a 00
        E 0 80 62 00
        E 360 90 32 6a
        E 0 90 4a 6a
        E 0 90 62 6a
        E 120 80 32 00
        E 0 80 4a 00
        E 0 80 62 00
        E 120 90 4b 6a
        E 0 90 63 6a
        E 120 80 4b 00
        E 0 80 63 00
        E 360 90 4b 6a
        E 0 90 63 6a
        E 120 80 4b 00
        E 0 80 63 00
        E 120 90 32 6a
        E 0 90 4a 6a
        E 0 90 62 6a
        E 120 80 32 00
        E 0 80 4a 00
        E 0 80 62 00
        E 120 90 4a 6a
        E 0 90 62 6a
        E 120 80 4a 00
        E 0 80 62 00
        E 120 90 1a 68
        E 0 90 32 68
        E 0 90 4a 68
        E 0 90 62 68
        E 120 80 1a 00
        E 0 80 32 00
        E 0 80 4a 00
        E 0 80 62 00
        E 120 90 4a 68
        E 0 90 62 68
        E 120 80 4a 00
        E 0 80 62 00
        E 120 90 32 6a
        E 0 90 4a 6a
        E 0 90 62 6a
        E 120 80 32 00
        E 0 80 4a 00
        E 0 80 62 00
        E 840 90 32 6a
        E 0 90 4a 6a
        E 0 90 62 6a
        E 120 80 32 00
        E 0 80 4a 00
        E 0 80 62 00
        E 360 90 1a 68
        E 0 90 32 68
        E 0 90 4a 68
        E 0 90 62 68
        E 120 80 1a 00
        E 0 80 32 00
        E 0 80 4a 00
        E 0 80 62 00
        E 360 90 32 6a
        E 0 90 4a 6a
        E 0 90 62 6a
        E 120 80 32 00
        E 0 80 4a 00
        E 0 80 62 00
        E 120 90 4b 6a
        E 0 90 63 6a
        E 120 80 4b 00
        E 0 80 63 00
        E 120 90 1b 6a
        E 0 90 33 6a
        E 0 90 4b 6a
        E 0 90 63 6a
        E 5759 80 63 00
        E 1 80 1b 00 -1
        E 0 80 33 00 -1
        E 0 80 4b 00 -1
        E 3840 b0 7b 00
        GUID {3F3EEB79-0F3C-4C6D-9C04-3B7AC12A0C39}
        IGNTEMPO 0 120.00000000 4 4
        SRCCOLOR 5
        VELLANE 132 71 60
        COLORMAP "C:\Program Files\REAPER\Data\color_maps\rockband_guitarbass.png"
        TEXTSTRINGFILE "C:\Program Files\REAPER\Data\Text_Strings\Text Events List - Pro Trainers.txt"
        CFGEDITVIEW 103966.712378 63.727082 0 12 0 0 0
        CFGEDIT 1 1 0 1 1 0 1 1 1 1 1 0.25000000 -8 -8 1928 1088 0 2 1 1 0.00000000 0 1 0 0 0.500000 0 0 1.000000 64
        KEYSNAP 0 0 "102034050607" 0 "Major"
        EVTFILTER 0 -1 -1 -1 -1 0 1 0 0 -1.00000000 -1.00000000
      >
    >
  >
  <TRACK '{C7013875-4653-4E99-A5B0-622F8B5DF7E5}'
    NAME "PART BASS"
    PEAKCOL 16576
    BEAT -1
    AUTOMODE 0
    VOLPAN 1.00000000000000 0.00000000000000 -1.00000000000000 -1.00000000000000 1.00000000000000
    MUTESOLO 0 0 0
    IPHASE 0
    ISBUS 1 1
    BUSCOMP 0 0
    SHOWINMIX 1 0.666700 0.500000 1 0.500000 -1 -1 -1
    FREEMODE 0
    SEL 0
    REC 0 0 0 0 0 0 0
    VU 2
    TRACKHEIGHT 0 0
    INQ 0 0 0 0.5000000000 100 0 0 100
    NCHAN 2
    FX 1
    TRACKID {C7013875-4653-4E99-A5B0-622F8B5DF7E5}
    PERF 0
    MIDIOUT -1
    <MIDINOTENAMES
      0 127 "Trill Marker"
      0 126 "Tremolo Marker"
      0 125 "---"
      0 124 "BRE"
      0 123 "BRE"
      0 122 "BRE"
      0 121 "BRE"
      0 120 "BRE (use all 5)"
      0 119 "----"
      0 116 "OVERDRIVE"
      0 111 "----"
      0 103 "Solo Marker"
      0 102 "Force HOPO Off"
      0 101 "Force HOPO On"
      0 100 "EXPERT Orange"
      0 99 "EXPERT Blue"
      0 98 "EXPERT Yellow"
      0 97 "EXPERT Red"
      0 96 "EXPERT Green"
      0 91 "----"
      0 90 "Force HOPO Off"
      0 89 "Force HOPO On"
      0 88 "HARD Orange"
      0 87 "HARD Blue"
      0 86 "HARD Yellow"
      0 85 "HARD Red"
      0 84 "HARD Green"
      0 80 "----"
      0 76 "MEDIUM Orange"
      0 75 "MEDIUM Blue"
      0 74 "MEDIUM Yellow"
      0 73 "MEDIUM Red"
      0 72 "MEDIUM Green"
      0 68 "----"
      0 64 "EASY Orange"
      0 63 "EASY Blue"
      0 62 "EASY Yellow"
      0 61 "EASY Red"
      0 60 "EASY Green"
      0 59 "Left Hand Highest (Fret 12)"
      0 58 "-"
      0 57 "Fret 11"
      0 56 "Fret 10"
      0 55 "Fret 9"
      0 54 "-"
      0 53 "Fret 8"
      0 52 "Fret 7"
      0 51 "-"
      0 50 "Fret 6"
      0 49 "Fret 5"
      0 48 "-"
      0 47 "Fret 4"
      0 46 "-"
      0 45 "Fret 3"
      0 44 "-"
      0 43 "Fret 2"
      0 42 "-"
      0 41 "-"
      0 40 "Left Hand Lowest (Fret 1)"
    >
    MAINSEND 1 0
    <FXCHAIN
      WNDRECT 742 136 878 559
      SHOW 0
      LASTSEL 0
      DOCKED 0
      BYPASS 0 0
      <VST "VSTi: RBN Preview (RBN)" "rbprev_vst64.dll" 0 ""
        dnBicu5e7f4AAAAAAgAAAAEAAAAAAAAAAgAAAAAAAAAEAAAAAQAAAA==
        AAAQAAMAqgAAABAAAAA=
      >
      FLOATPOS 0 0 0 0
      FXID {DD4A5F9F-4A91-4FA8-8F7E-D5A0EBEC8652}
      WAK 0
    >
    <ITEM
      POSITION 0.00000000000000
      SNAPOFFS 0.00000000000000
      LENGTH 194.42541950113377
      LOOP 0
      ALLTAKES 0
      SEL 0
      FADEIN 1 0.000000 0.000000 1 0
      FADEOUT 1 0.000000 0.000000 1 0
      MUTE 0
      IGUID {F07814C3-D8B3-4F62-B956-FFAEB8E0F79F}
      IID 2
      NAME "PART BASS"
      VOLPAN 1.000000 0.000000 1.000000 -1.000000
      SOFFS 0.00000000000000 0.00000000000000
      PLAYRATE 1.00000000000000 1 0.00000000000000 -1
      CHANMODE 0
      GUID {0EA42547-C787-4C85-8FF4-36688F65C64E}
      <SOURCE MIDI
        HASDATA 1 480 QN
        POOLEDEVTS {5314475D-33D3-4CCD-B3FF-1F80DB175431}
        <X 0 0
          /wNQQVJUIEJBU1M=
        >
        <X 4560 0
          /wFbaWRsZV0=
        >
        <X 960 0
          /wFbbWFwIFN0cnVtTWFwX1BpY2td
        >
        <X 0 0
          /wFbcGxheV0=
        >
        E 240 90 61 60
        E 0 90 55 60
        E 0 90 49 60
        E 0 90 3d 60
        E 480 80 49 00
        E 0 80 3d 00
        E 360 80 61 00
        E 0 80 55 00
        E 120 90 61 60
        E 0 90 55 60
        E 0 90 49 60
        E 0 90 3d 60
        E 480 80 49 00
        E 0 80 3d 00
        E 360 80 61 00
        E 0 80 55 00
        E 120 90 61 60
        E 0 90 55 60
        E 0 90 49 60
        E 0 90 3d 60
        E 120 80 49 00
        E 0 80 3d 00
        E 480 80 61 00
        E 0 80 55 00
        E 120 90 63 60
        E 0 90 57 60
        E 0 90 4b 60
        E 120 80 63 00
        E 0 80 57 00
        E 0 80 4b 00
        E 120 90 64 60
        E 0 90 65 60
        E 0 90 58 60
        E 0 90 4b 60
        E 0 90 3e 60
        E 120 80 64 00
        E 0 80 65 00
        E 0 80 58 00
        E 0 80 4b 00
        E 0 80 3e 00
        E 360 90 62 60
        E 0 90 56 60
        E 0 90 4a 60
        E 120 80 62 00
        E 0 80 56 00
        E 0 80 4a 00
        E 360 90 61 60
        E 0 90 55 60
        E 0 90 49 60
        E 0 90 3d 60
        E 480 80 49 00
        E 0 80 3d 00
        E 360 80 61 00
        E 0 80 55 00
        E 120 90 61 60
        E 0 90 55 60
        E 0 90 49 60
        E 0 90 3d 60
        E 480 80 49 00
        E 0 80 3d 00
        E 360 80 61 00
        E 0 80 55 00
        E 120 90 61 60
        E 0 90 55 60
        E 0 90 49 60
        E 0 90 3d 60
        E 120 80 49 00
        E 0 80 3d 00
        E 480 80 61 00
        E 0 80 55 00
        E 120 90 63 60
        E 0 90 57 60
        E 0 90 4b 60
        E 120 80 63 00
        E 0 80 57 00
        E 0 80 4b 00
        E 120 90 64 60
        E 0 90 65 60
        E 0 90 58 60
        E 0 90 4b 60
        E 0 90 3e 60
        E 120 80 64 00
        E 0 80 65 00
        E 0 80 58 00
        E 0 80 4b 00
        E 0 80 3e 00
        E 360 90 62 60
        E 0 90 56 60
        E 0 90 4a 60
        E 120 80 62 00
        E 0 80 56 00
        E 0 80 4a 00
        E 360 90 61 60
        E 0 90 55 60
        E 0 90 49 60
        E 0 90 3d 60
        E 480 80 49 00
        E 0 80 3d 00
        E 360 80 61 00
        E 0 80 55 00
        E 120 90 61 60
        E 0 90 55 60
        E 0 90 49 60
        E 0 90 3d 60
        E 480 80 49 00
        E 0 80 3d 00
        E 360 80 61 00
        E 0 80 55 00
        E 120 90 61 60
        E 0 90 55 60
        E 0 90 49 60
        E 0 90 3d 60
        E 120 80 49 00
        E 0 80 3d 00
        E 480 80 61 00
        E 0 80 55 00
        E 120 90 63 60
        E 0 90 57 60
        E 0 90 4b 60
        E 120 80 63 00
        E 0 80 57 00
        E 0 80 4b 00
        E 120 90 64 60
        E 0 90 65 60
        E 0 90 58 60
        E 0 90 4b 60
        E 0 90 3e 60
        E 120 80 64 00
        E 0 80 65 00
        E 0 80 58 00
        E 0 80 4b 00
        E 0 80 3e 00
        E 360 90 62 60
        E 0 90 56 60
        E 0 90 4a 60
        E 120 80 62 00
        E 0 80 56 00
        E 0 80 4a 00
        E 360 90 61 60
        E 0 90 55 60
        E 0 90 49 60
        E 0 90 3d 60
        E 480 80 49 00
        E 0 80 3d 00
        E 360 80 61 00
        E 0 80 55 00
        E 120 90 61 60
        E 0 90 55 60
        E 0 90 49 60
        E 0 90 3d 60
        E 480 80 49 00
        E 0 80 3d 00
        E 360 80 61 00
        E 0 80 55 00
        E 120 90 61 60
        E 0 90 74 60
        E 0 90 55 60
        E 0 90 49 60
        E 0 90 3d 60
        E 120 80 49 00
        E 0 80 3d 00
        E 480 80 61 00
        E 0 80 55 00
        E 120 90 63 60
        E 0 90 57 60
        E 0 90 4b 60
        E 120 80 63 00
        E 0 80 57 00
        E 0 80 4b 00
        E 120 90 64 60
        E 0 90 65 60
        E 0 90 58 60
        E 0 90 4b 60
        E 0 90 3e 60
        E 120 80 64 00
        E 0 80 65 00
        E 0 80 58 00
        E 0 80 4b 00
        E 0 80 3e 00
        E 360 90 62 60
        E 0 90 56 60
        E 0 90 4a 60
        E 120 80 62 00
        E 0 80 56 00
        E 0 80 4a 00
        E 120 90 60 60
        E 0 90 54 60
        E 120 80 60 00
        E 0 80 54 00
        E 120 90 61 60
        E 0 90 55 60
        E 0 90 49 60
        E 0 90 3d 60
        E 120 80 74 00
        E 360 80 49 00
        E 0 80 3d 00
        E 120 80 61 00
        E 0 80 55 00
        E 120 90 60 60
        E 0 90 54 60
        E 120 80 60 00
        E 0 80 54 00
        E 120 90 61 60
        E 0 90 55 60
        E 0 90 49 60
        E 0 90 3d 60
        E 480 80 49 00
        E 0 80 3d 00
        E 120 80 61 00
        E 0 80 55 00
        E 120 90 60 60
        E 0 90 54 60
        E 120 80 60 00
        E 0 80 54 00
        E 120 90 61 60
        E 0 90 55 60
        E 0 90 49 60
        E 0 90 3d 60
        E 120 80 49 00
        E 0 80 3d 00
        E 480 80 61 00
        E 0 80 55 00
        E 120 90 63 60
        E 0 90 57 60
        E 0 90 4b 60
        E 120 80 63 00
        E 0 80 57 00
        E 0 80 4b 00
        E 120 90 64 60
        E 0 90 65 60
        E 0 90 58 60
        E 0 90 4b 60
        E 0 90 3e 60
        E 120 80 64 00
        E 0 80 65 00
        E 0 80 58 00
        E 0 80 4b 00
        E 0 80 3e 00
        E 360 90 62 60
        E 0 90 56 60
        E 0 90 4a 60
        E 120 80 62 00
        E 0 80 56 00
        E 0 80 4a 00
        E 360 90 61 60
        E 0 90 55 60
        E 0 90 49 60
        E 0 90 3d 60
        E 480 80 49 00
        E 0 80 3d 00
        E 120 80 61 00
        E 0 80 55 00
        E 120 90 60 60
        E 0 90 54 60
        E 120 80 60 00
        E 0 80 54 00
        E 120 90 61 60
        E 0 90 55 60
        E 0 90 49 60
        E 0 90 3d 60
        E 480 80 49 00
        E 0 80 3d 00
        E 120 80 61 00
        E 0 80 55 00
        E 120 90 60 60
        E 0 90 54 60
        E 120 80 60 00
        E 0 80 54 00
        E 120 90 61 60
        E 0 90 55 60
        E 0 90 49 60
        E 0 90 3d 60
        E 120 80 49 00
        E 0 80 3d 00
        E 480 80 61 00
        E 0 80 55 00
        E 120 90 63 60
        E 0 90 57 60
        E 0 90 4b 60
        E 120 80 63 00
        E 0 80 57 00
        E 0 80 4b 00
        E 120 90 64 60
        E 0 90 65 60
        E 0 90 58 60
        E 0 90 4b 60
        E 0 90 3e 60
        E 120 80 64 00
        E 0 80 65 00
        E 0 80 58 00
        E 0 80 4b 00
        E 0 80 3e 00
        E 360 90 62 60
        E 0 90 56 60
        E 0 90 4a 60
        E 120 80 62 00
        E 0 80 56 00
        E 0 80 4a 00
        E 120 90 60 60
        E 0 90 54 60
        E 120 80 60 00
        E 0 80 54 00
        E 120 90 61 60
        E 0 90 55 60
        E 0 90 49 60
        E 0 90 3d 60
        E 480 80 49 00
        E 0 80 3d 00
        E 120 80 61 00
        E 0 80 55 00
        E 120 90 60 60
        E 0 90 54 60
        E 120 80 60 00
        E 0 80 54 00
        E 120 90 61 60
        E 0 90 55 60
        E 0 90 49 60
        E 0 90 3d 60
        E 480 80 49 00
        E 0 80 3d 00
        E 120 80 61 00
        E 0 80 55 00
        E 120 90 60 60
        E 0 90 54 60
        E 120 80 60 00
        E 0 80 54 00
        E 120 90 61 60
        E 0 90 55 60
        E 0 90 49 60
        E 0 90 3d 60
        E 120 80 49 00
        E 0 80 3d 00
        E 480 80 61 00
        E 0 80 55 00
        E 120 90 63 60
        E 0 90 57 60
        E 0 90 4b 60
        E 120 80 63 00
        E 0 80 57 00
        E 0 80 4b 00
        E 120 90 64 60
        E 0 90 65 60
        E 0 90 58 60
        E 0 90 4b 60
        E 0 90 3e 60
        E 120 80 64 00
        E 0 80 65 00
        E 0 80 58 00
        E 0 80 4b 00
        E 0 80 3e 00
        E 360 90 62 60
        E 0 90 56 60
        E 0 90 4a 60
        E 120 80 62 00
        E 0 80 56 00
        E 0 80 4a 00
        E 360 90 61 60
        E 0 90 55 60
        E 0 90 49 60
        E 0 90 3d 60
        E 480 80 49 00
        E 0 80 3d 00
        E 120 80 61 00
        E 0 80 55 00
        E 120 90 60 60
        E 0 90 54 60
        E 120 80 60 00
        E 0 80 54 00
        E 120 90 61 60
        E 0 90 55 60
        E 0 90 49 60
        E 0 90 3d 60
        E 480 80 49 00
        E 0 80 3d 00
        E 120 80 61 00
        E 0 80 55 00
        E 120 90 60 60
        E 0 90 54 60
        E 120 80 60 00
        E 0 80 54 00
        E 120 90 61 60
        E 0 90 55 60
        E 0 90 49 60
        E 0 90 3d 60
        E 120 80 49 00
        E 0 80 3d 00
        E 360 90 74 60
        E 120 80 61 00
        E 0 80 55 00
        E 120 90 63 60
        E 0 90 57 60
        E 0 90 4b 60
        E 120 80 63 00
        E 0 80 57 00
        E 0 80 4b 00
        E 120 90 64 60
        E 0 90 65 60
        E 0 90 58 60
        E 0 90 4b 60
        E 0 90 3e 60
        E 120 80 64 00
        E 0 80 65 00
        E 0 80 58 00
        E 0 80 4b 00
        E 0 80 3e 00
        E 360 90 60 60
        E 0 90 54 60
        E 0 90 48 60
        E 120 80 60 00
        E 0 80 54 00
        E 0 80 48 00
        E 360 90 61 60
        E 0 90 55 60
        E 0 90 49 60
        E 0 90 3d 60
        E 120 80 74 00
        E 2040 80 49 00
        E 0 80 3d 00
        E 240 80 61 00
        E 0 80 55 00
        E 240 90 63 60
        E 0 90 57 60
        E 0 90 4b 60
        E 120 80 63 00
        E 0 80 57 00
        E 0 80 4b 00
        E 120 90 64 60
        E 0 90 65 60
        E 0 90 58 60
        E 0 90 4b 60
        E 0 90 3e 60
        E 120 80 64 00
        E 0 80 65 00
        E 0 80 58 00
        E 0 80 4b 00
        E 0 80 3e 00
        E 360 90 61 60
        E 0 90 55 60
        E 0 90 49 60
        E 120 80 61 00
        E 0 80 55 00
        E 0 80 49 00
        E 360 90 62 60
        E 0 90 56 60
        E 0 90 4a 60
        E 0 90 3e 60
        E 3360 80 62 00
        E 0 80 56 00
        E 0 80 4a 00
        E 0 80 3e 00
        <X 480 0
          /wFbaW50ZW5zZV0=
        >
        E 0 90 63 60
        E 0 90 57 60
        E 0 90 4b 60
        E 0 90 3e 60
        E 120 80 63 00
        E 0 80 57 00
        E 0 80 4b 00
        E 0 80 3e 00
        E 120 90 63 60
        E 0 90 57 60
        E 0 90 4b 60
        E 120 80 63 00
        E 0 80 57 00
        E 0 80 4b 00
        E 120 90 63 60
        E 0 90 57 60
        E 0 90 4b 60
        E 0 90 3e 60
        E 120 80 63 00
        E 0 80 57 00
        E 0 80 4b 00
        E 0 80 3e 00
        E 120 90 63 60
        E 0 90 57 60
        E 0 90 4b 60
        E 120 80 63 00
        E 0 80 57 00
        E 0 80 4b 00
        E 120 90 63 60
        E 0 90 57 60
        E 0 90 4b 60
        E 0 90 3e 60
        E 120 80 63 00
        E 0 80 57 00
        E 0 80 4b 00
        E 0 80 3e 00
        E 120 90 63 60
        E 0 90 57 60
        E 0 90 4b 60
        E 120 80 63 00
        E 0 80 57 00
        E 0 80 4b 00
        E 120 90 63 60
        E 0 90 57 60
        E 0 90 4b 60
        E 0 90 3e 60
        E 120 80 63 00
        E 0 80 57 00
        E 0 80 4b 00
        E 0 80 3e 00
        E 120 90 63 60
        E 0 90 57 60
        E 0 90 4b 60
        E 120 80 63 00
        E 0 80 57 00
        E 0 80 4b 00
        E 120 90 63 60
        E 0 90 57 60
        E 0 90 4b 60
        E 0 90 3e 60
        E 120 80 63 00
        E 0 80 57 00
        E 0 80 4b 00
        E 0 80 3e 00
        E 120 90 63 60
        E 0 90 57 60
        E 0 90 4b 60
        E 120 80 63 00
        E 0 80 57 00
        E 0 80 4b 00
        E 120 90 63 60
        E 0 90 57 60
        E 0 90 4b 60
        E 0 90 3e 60
        E 120 80 63 00
        E 0 80 57 00
        E 0 80 4b 00
        E 0 80 3e 00
        E 120 90 63 60
        E 0 90 57 60
        E 0 90 4b 60
        E 120 80 63 00
        E 0 80 57 00
        E 0 80 4b 00
        E 120 90 63 60
        E 0 90 57 60
        E 0 90 4b 60
        E 0 90 3e 60
        E 120 80 63 00
        E 0 80 57 00
        E 0 80 4b 00
        E 0 80 3e 00
        E 120 90 63 60
        E 0 90 57 60
        E 0 90 4b 60
        E 120 80 63 00
        E 0 80 57 00
        E 0 80 4b 00
        E 120 90 63 60
        E 0 90 57 60
        E 0 90 4b 60
        E 120 80 63 00
        E 0 80 57 00
        E 0 80 4b 00
        E 120 90 63 60
        E 0 90 57 60
        E 120 80 63 00
        E 0 80 57 00
        E 120 90 60 60
        E 0 90 54 60
        E 0 90 48 60
        E 0 90 3c 60
        E 120 80 60 00
        E 0 80 54 00
        E 0 80 48 00
        E 0 80 3c 00
        E 120 90 60 60
        E 0 90 54 60
        E 0 90 48 60
        E 120 80 60 00
        E 0 80 54 00
        E 0 80 48 00
        E 120 90 60 60
        E 0 90 54 60
        E 0 90 48 60
        E 0 90 3c 60
        E 120 80 60 00
        E 0 80 54 00
        E 0 80 48 00
        E 0 80 3c 00
        E 120 90 60 60
        E 0 90 54 60
        E 0 90 48 60
        E 120 80 60 00
        E 0 80 54 00
        E 0 80 48 00
        E 120 90 60 60
        E 0 90 54 60
        E 0 90 48 60
        E 0 90 3c 60
        E 120 80 60 00
        E 0 80 54 00
        E 0 80 48 00
        E 0 80 3c 00
        E 120 90 60 60
        E 0 90 54 60
        E 0 90 48 60
        E 120 80 60 00
        E 0 80 54 00
        E 0 80 48 00
        E 120 90 60 60
        E 0 90 54 60
        E 0 90 48 60
        E 0 90 3c 60
        E 120 80 60 00
        E 0 80 54 00
        E 0 80 48 00
        E 0 80 3c 00
        E 120 90 60 60
        E 0 90 54 60
        E 0 90 48 60
        E 120 80 60 00
        E 0 80 54 00
        E 0 80 48 00
        E 120 90 60 60
        E 0 90 54 60
        E 0 90 48 60
        E 0 90 3c 60
        E 120 80 60 00
        E 0 80 54 00
        E 0 80 48 00
        E 0 80 3c 00
        E 120 90 60 60
        E 0 90 54 60
        E 0 90 48 60
        E 120 80 60 00
        E 0 80 54 00
        E 0 80 48 00
        E 120 90 60 60
        E 0 90 54 60
        E 0 90 48 60
        E 0 90 3c 60
        E 120 80 60 00
        E 0 80 54 00
        E 0 80 48 00
        E 0 80 3c 00
        E 120 90 60 60
        E 0 90 54 60
        E 0 90 48 60
        E 120 80 60 00
        E 0 80 54 00
        E 0 80 48 00
        E 120 90 60 60
        E 0 90 54 60
        E 0 90 48 60
        E 0 90 3c 60
        E 120 80 60 00
        E 0 80 54 00
        E 0 80 48 00
        E 0 80 3c 00
        E 120 90 60 60
        E 0 90 54 60
        E 0 90 48 60
        E 120 80 60 00
        E 0 80 54 00
        E 0 80 48 00
        E 120 90 60 60
        E 0 90 54 60
        E 0 90 48 60
        E 120 80 60 00
        E 0 80 54 00
        E 0 80 48 00
        E 120 90 61 60
        E 0 90 55 60
        E 120 80 61 00
        E 0 80 55 00
        E 0 90 62 60
        E 0 90 65 60
        E 120 80 62 00
        E 0 80 65 00
        E 0 90 63 60
        E 0 90 57 60
        E 0 90 4b 60
        E 0 90 3e 60
        E 120 80 63 00
        E 0 80 57 00
        E 0 80 4b 00
        E 0 80 3e 00
        E 120 90 63 60
        E 0 90 57 60
        E 0 90 4b 60
        E 120 80 63 00
        E 0 80 57 00
        E 0 80 4b 00
        E 120 90 63 60
        E 0 90 57 60
        E 0 90 4b 60
        E 0 90 3e 60
        E 120 80 63 00
        E 0 80 57 00
        E 0 80 4b 00
        E 0 80 3e 00
        E 120 90 63 60
        E 0 90 57 60
        E 0 90 4b 60
        E 120 80 63 00
        E 0 80 57 00
        E 0 80 4b 00
        E 120 90 63 60
        E 0 90 57 60
        E 0 90 4b 60
        E 0 90 3e 60
        E 120 80 63 00
        E 0 80 57 00
        E 0 80 4b 00
        E 0 80 3e 00
        E 120 90 63 60
        E 0 90 57 60
        E 0 90 4b 60
        E 120 80 63 00
        E 0 80 57 00
        E 0 80 4b 00
        E 120 90 63 60
        E 0 90 57 60
        E 0 90 4b 60
        E 0 90 3e 60
        E 120 80 63 00
        E 0 80 57 00
        E 0 80 4b 00
        E 0 80 3e 00
        E 120 90 63 60
        E 0 90 57 60
        E 0 90 4b 60
        E 120 80 63 00
        E 0 80 57 00
        E 0 80 4b 00
        E 120 90 63 60
        E 0 90 74 60
        E 0 90 57 60
        E 0 90 4b 60
        E 0 90 3e 60
        E 120 80 63 00
        E 0 80 57 00
        E 0 80 4b 00
        E 0 80 3e 00
        E 120 90 63 60
        E 0 90 57 60
        E 0 90 4b 60
        E 120 80 63 00
        E 0 80 57 00
        E 0 80 4b 00
        E 120 90 63 60
        E 0 90 57 60
        E 0 90 4b 60
        E 0 90 3e 60
        E 120 80 63 00
        E 0 80 57 00
        E 0 80 4b 00
        E 0 80 3e 00
        E 120 90 63 60
        E 0 90 57 60
        E 0 90 4b 60
        E 120 80 63 00
        E 0 80 57 00
        E 0 80 4b 00
        E 120 90 63 60
        E 0 90 57 60
        E 0 90 4b 60
        E 0 90 3e 60
        E 120 80 63 00
        E 0 80 57 00
        E 0 80 4b 00
        E 0 80 3e 00
        E 120 90 63 60
        E 0 90 57 60
        E 0 90 4b 60
        E 120 80 63 00
        E 0 80 57 00
        E 0 80 4b 00
        E 120 90 63 60
        E 0 90 57 60
        E 0 90 4b 60
        E 120 80 63 00
        E 0 80 57 00
        E 0 80 4b 00
        E 120 90 63 60
        E 0 90 57 60
        E 120 80 63 00
        E 0 80 57 00
        E 0 90 62 60
        E 0 90 65 60
        E 120 80 62 00
        E 0 80 65 00
        E 0 90 60 60
        E 0 90 54 60
        E 0 90 48 60
        E 0 90 3c 60
        E 120 80 74 00
        E 0 80 60 00
        E 0 80 54 00
        E 0 80 48 00
        E 0 80 3c 00
        E 120 90 60 60
        E 0 90 54 60
        E 0 90 48 60
        E 120 80 60 00
        E 0 80 54 00
        E 0 80 48 00
        E 120 90 60 60
        E 0 90 54 60
        E 0 90 48 60
        E 0 90 3c 60
        E 120 80 60 00
        E 0 80 54 00
        E 0 80 48 00
        E 0 80 3c 00
        E 120 90 60 60
        E 0 90 54 60
        E 0 90 48 60
        E 120 80 60 00
        E 0 80 54 00
        E 0 80 48 00
        E 120 90 60 60
        E 0 90 54 60
        E 0 90 48 60
        E 0 90 3c 60
        E 120 80 60 00
        E 0 80 54 00
        E 0 80 48 00
        E 0 80 3c 00
        E 120 90 60 60
        E 0 90 54 60
        E 0 90 48 60
        E 120 80 60 00
        E 0 80 54 00
        E 0 80 48 00
        E 120 90 60 60
        E 0 90 54 60
        E 0 90 48 60
        E 0 90 3c 60
        E 120 80 60 00
        E 0 80 54 00
        E 0 80 48 00
        E 0 80 3c 00
        E 120 90 60 60
        E 0 90 54 60
        E 0 90 48 60
        E 120 80 60 00
        E 0 80 54 00
        E 0 80 48 00
        E 120 90 60 60
        E 0 90 54 60
        E 0 90 48 60
        E 0 90 3c 60
        E 120 80 60 00
        E 0 80 54 00
        E 0 80 48 00
        E 0 80 3c 00
        E 120 90 60 60
        E 0 90 54 60
        E 0 90 48 60
        E 120 80 60 00
        E 0 80 54 00
        E 0 80 48 00
        E 120 90 60 60
        E 0 90 54 60
        E 0 90 48 60
        E 0 90 3c 60
        E 120 80 60 00
        E 0 80 54 00
        E 0 80 48 00
        E 0 80 3c 00
        E 120 90 60 60
        E 0 90 54 60
        E 0 90 48 60
        E 120 80 60 00
        E 0 80 54 00
        E 0 80 48 00
        E 120 90 60 60
        E 0 90 54 60
        E 0 90 48 60
        E 0 90 3c 60
        E 120 80 60 00
        E 0 80 54 00
        E 0 80 48 00
        E 0 80 3c 00
        E 120 90 60 60
        E 0 90 54 60
        E 0 90 48 60
        E 120 80 60 00
        E 0 80 54 00
        E 0 80 48 00
        E 120 90 60 60
        E 0 90 54 60
        E 0 90 48 60
        E 120 80 60 00
        E 0 80 54 00
        E 0 80 48 00
        E 120 90 60 60
        E 0 90 54 60
        E 120 80 60 00
        E 0 80 54 00
        E 120 90 62 60
        E 0 90 56 60
        E 0 90 4a 60
        E 0 90 3e 60
        E 120 80 62 00
        E 0 80 56 00
        E 0 80 4a 00
        E 0 80 3e 00
        E 120 90 62 60
        E 0 90 56 60
        E 0 90 4a 60
        E 120 80 62 00
        E 0 80 56 00
        E 0 80 4a 00
        E 120 90 62 60
        E 0 90 56 60
        E 0 90 4a 60
        E 0 90 3e 60
        E 120 80 62 00
        E 0 80 56 00
        E 0 80 4a 00
        E 0 80 3e 00
        E 120 90 62 60
        E 0 90 56 60
        E 0 90 4a 60
        E 120 80 62 00
        E 0 80 56 00
        E 0 80 4a 00
        E 120 90 62 60
        E 0 90 56 60
        E 0 90 4a 60
        E 0 90 3e 60
        E 120 80 62 00
        E 0 80 56 00
        E 0 80 4a 00
        E 0 80 3e 00
        E 120 90 62 60
        E 0 90 56 60
        E 0 90 4a 60
        E 120 80 62 00
        E 0 80 56 00
        E 0 80 4a 00
        E 120 90 62 60
        E 0 90 56 60
        E 0 90 4a 60
        E 120 80 62 00
        E 0 80 56 00
        E 0 80 4a 00
        E 120 90 62 60
        E 0 90 56 60
        E 120 80 62 00
        E 0 80 56 00
        E 120 90 60 60
        E 0 90 54 60
        E 0 90 48 60
        E 0 90 3c 60
        E 120 80 60 00
        E 0 80 54 00
        E 0 80 48 00
        E 0 80 3c 00
        E 120 90 60 60
        E 0 90 54 60
        E 0 90 48 60
        E 120 80 60 00
        E 0 80 54 00
        E 0 80 48 00
        E 120 90 60 60
        E 0 90 54 60
        E 0 90 48 60
        E 0 90 3c 60
        E 120 80 60 00
        E 0 80 54 00
        E 0 80 48 00
        E 0 80 3c 00
        E 120 90 60 60
        E 0 90 54 60
        E 0 90 48 60
        E 120 80 60 00
        E 0 80 54 00
        E 0 80 48 00
        E 120 90 60 60
        E 0 90 54 60
        E 0 90 48 60
        E 0 90 3c 60
        E 120 80 60 00
        E 0 80 54 00
        E 0 80 48 00
        E 0 80 3c 00
        E 120 90 60 60
        E 0 90 54 60
        E 0 90 48 60
        E 120 80 60 00
        E 0 80 54 00
        E 0 80 48 00
        E 120 90 60 60
        E 0 90 54 60
        E 0 90 48 60
        E 120 80 60 00
        E 0 80 54 00
        E 0 80 48 00
        E 120 90 60 60
        E 0 90 54 60
        E 120 80 60 00
        E 0 80 54 00
        E 120 90 62 60
        E 0 90 56 60
        E 0 90 4a 60
        E 0 90 3e 60
        E 120 80 62 00
        E 0 80 56 00
        E 0 80 4a 00
        E 0 80 3e 00
        E 120 90 62 60
        E 0 90 56 60
        E 0 90 4a 60
        E 120 80 62 00
        E 0 80 56 00
        E 0 80 4a 00
        E 120 90 62 60
        E 0 90 56 60
        E 0 90 4a 60
        E 0 90 3e 60
        E 120 80 62 00
        E 0 80 56 00
        E 0 80 4a 00
        E 0 80 3e 00
        E 120 90 62 60
        E 0 90 56 60
        E 0 90 4a 60
        E 120 80 62 00
        E 0 80 56 00
        E 0 80 4a 00
        E 120 90 62 60
        E 0 90 56 60
        E 0 90 4a 60
        E 0 90 3e 60
        E 120 80 62 00
        E 0 80 56 00
        E 0 80 4a 00
        E 0 80 3e 00
        E 120 90 62 60
        E 0 90 56 60
        E 0 90 4a 60
        E 120 80 62 00
        E 0 80 56 00
        E 0 80 4a 00
        E 120 90 62 60
        E 0 90 56 60
        E 0 90 4a 60
        E 120 80 62 00
        E 0 80 56 00
        E 0 80 4a 00
        E 120 90 62 60
        E 0 90 56 60
        E 120 80 62 00
        E 0 80 56 00
        E 120 90 60 60
        E 0 90 54 60
        E 0 90 48 60
        E 0 90 3c 60
        E 2400 80 60 00
        E 0 80 54 00
        E 0 80 48 00
        E 0 80 3c 00
        <X 1440 0
          /wFbcGxheV0=
        >
        E 0 90 61 60
        E 0 90 55 60
        E 0 90 49 60
        E 0 90 3d 60
        E 480 80 49 00
        E 0 80 3d 00
        E 360 80 61 00
        E 0 80 55 00
        E 120 90 61 60
        E 0 90 55 60
        E 0 90 49 60
        E 0 90 3d 60
        E 480 80 49 00
        E 0 80 3d 00
        E 360 80 61 00
        E 0 80 55 00
        E 120 90 61 60
        E 0 90 55 60
        E 0 90 49 60
        E 0 90 3d 60
        E 120 80 49 00
        E 0 80 3d 00
        E 480 80 61 00
        E 0 80 55 00
        E 120 90 63 60
        E 0 90 57 60
        E 0 90 4b 60
        E 120 80 63 00
        E 0 80 57 00
        E 0 80 4b 00
        E 120 90 64 60
        E 0 90 65 60
        E 0 90 58 60
        E 0 90 4b 60
        E 0 90 3e 60
        E 120 80 64 00
        E 0 80 65 00
        E 0 80 58 00
        E 0 80 4b 00
        E 0 80 3e 00
        E 360 90 62 60
        E 0 90 56 60
        E 0 90 4a 60
        E 120 80 62 00
        E 0 80 56 00
        E 0 80 4a 00
        E 360 90 61 60
        E 0 90 55 60
        E 0 90 49 60
        E 0 90 3d 60
        E 480 80 49 00
        E 0 80 3d 00
        E 360 80 61 00
        E 0 80 55 00
        E 120 90 61 60
        E 0 90 55 60
        E 0 90 49 60
        E 0 90 3d 60
        E 480 80 49 00
        E 0 80 3d 00
        E 360 80 61 00
        E 0 80 55 00
        E 120 90 61 60
        E 0 90 55 60
        E 0 90 49 60
        E 0 90 3d 60
        E 120 80 49 00
        E 0 80 3d 00
        E 480 80 61 00
        E 0 80 55 00
        E 120 90 63 60
        E 0 90 57 60
        E 0 90 4b 60
        E 120 80 63 00
        E 0 80 57 00
        E 0 80 4b 00
        E 120 90 64 60
        E 0 90 65 60
        E 0 90 58 60
        E 0 90 4b 60
        E 0 90 3e 60
        E 120 80 64 00
        E 0 80 65 00
        E 0 80 58 00
        E 0 80 4b 00
        E 0 80 3e 00
        E 360 90 62 60
        E 0 90 56 60
        E 0 90 4a 60
        E 120 80 62 00
        E 0 80 56 00
        E 0 80 4a 00
        E 360 90 61 60
        E 0 90 55 60
        E 0 90 49 60
        E 0 90 3d 60
        E 480 80 49 00
        E 0 80 3d 00
        E 360 80 61 00
        E 0 80 55 00
        E 120 90 61 60
        E 0 90 55 60
        E 0 90 49 60
        E 0 90 3d 60
        E 480 80 49 00
        E 0 80 3d 00
        E 360 80 61 00
        E 0 80 55 00
        E 120 90 61 60
        E 0 90 55 60
        E 0 90 49 60
        E 0 90 3d 60
        E 120 80 49 00
        E 0 80 3d 00
        E 480 80 61 00
        E 0 80 55 00
        E 120 90 63 60
        E 0 90 57 60
        E 0 90 4b 60
        E 120 80 63 00
        E 0 80 57 00
        E 0 80 4b 00
        E 120 90 64 60
        E 0 90 65 60
        E 0 90 58 60
        E 0 90 4b 60
        E 0 90 3e 60
        E 120 80 64 00
        E 0 80 65 00
        E 0 80 58 00
        E 0 80 4b 00
        E 0 80 3e 00
        E 360 90 62 60
        E 0 90 56 60
        E 0 90 4a 60
        E 120 80 62 00
        E 0 80 56 00
        E 0 80 4a 00
        E 360 90 61 60
        E 0 90 55 60
        E 0 90 49 60
        E 0 90 3d 60
        E 480 80 49 00
        E 0 80 3d 00
        E 360 80 61 00
        E 0 80 55 00
        E 120 90 61 60
        E 0 90 55 60
        E 0 90 49 60
        E 0 90 3d 60
        E 480 80 49 00
        E 0 80 3d 00
        E 360 80 61 00
        E 0 80 55 00
        E 120 90 61 60
        E 0 90 74 60
        E 0 90 55 60
        E 0 90 49 60
        E 0 90 3d 60
        E 120 80 49 00
        E 0 80 3d 00
        E 480 80 61 00
        E 0 80 55 00
        E 120 90 63 60
        E 0 90 57 60
        E 0 90 4b 60
        E 120 80 63 00
        E 0 80 57 00
        E 0 80 4b 00
        E 120 90 64 60
        E 0 90 65 60
        E 0 90 58 60
        E 0 90 4b 60
        E 0 90 3e 60
        E 120 80 64 00
        E 0 80 65 00
        E 0 80 58 00
        E 0 80 4b 00
        E 0 80 3e 00
        E 360 90 62 60
        E 0 90 56 60
        E 0 90 4a 60
        E 120 80 62 00
        E 0 80 56 00
        E 0 80 4a 00
        E 120 90 60 60
        E 0 90 54 60
        E 120 80 60 00
        E 0 80 54 00
        E 120 90 61 60
        E 0 90 55 60
        E 0 90 49 60
        E 0 90 3d 60
        E 120 80 74 00
        E 360 80 49 00
        E 0 80 3d 00
        E 120 80 61 00
        E 0 80 55 00
        E 120 90 60 60
        E 0 90 54 60
        E 120 80 60 00
        E 0 80 54 00
        E 120 90 61 60
        E 0 90 55 60
        E 0 90 49 60
        E 0 90 3d 60
        E 480 80 49 00
        E 0 80 3d 00
        E 120 80 61 00
        E 0 80 55 00
        E 120 90 60 60
        E 0 90 54 60
        E 120 80 60 00
        E 0 80 54 00
        E 120 90 61 60
        E 0 90 55 60
        E 0 90 49 60
        E 0 90 3d 60
        E 120 80 49 00
        E 0 80 3d 00
        E 480 80 61 00
        E 0 80 55 00
        E 120 90 63 60
        E 0 90 57 60
        E 0 90 4b 60
        E 120 80 63 00
        E 0 80 57 00
        E 0 80 4b 00
        E 120 90 64 60
        E 0 90 65 60
        E 0 90 58 60
        E 0 90 4b 60
        E 0 90 3e 60
        E 120 80 64 00
        E 0 80 65 00
        E 0 80 58 00
        E 0 80 4b 00
        E 0 80 3e 00
        E 360 90 62 60
        E 0 90 56 60
        E 0 90 4a 60
        E 120 80 62 00
        E 0 80 56 00
        E 0 80 4a 00
        E 360 90 61 60
        E 0 90 55 60
        E 0 90 49 60
        E 0 90 3d 60
        E 480 80 49 00
        E 0 80 3d 00
        E 120 80 61 00
        E 0 80 55 00
        E 120 90 60 60
        E 0 90 54 60
        E 120 80 60 00
        E 0 80 54 00
        E 120 90 61 60
        E 0 90 55 60
        E 0 90 49 60
        E 0 90 3d 60
        E 480 80 49 00
        E 0 80 3d 00
        E 120 80 61 00
        E 0 80 55 00
        E 120 90 60 60
        E 0 90 54 60
        E 120 80 60 00
        E 0 80 54 00
        E 120 90 61 60
        E 0 90 55 60
        E 0 90 49 60
        E 0 90 3d 60
        E 120 80 49 00
        E 0 80 3d 00
        E 480 80 61 00
        E 0 80 55 00
        E 120 90 63 60
        E 0 90 57 60
        E 0 90 4b 60
        E 120 80 63 00
        E 0 80 57 00
        E 0 80 4b 00
        E 120 90 64 60
        E 0 90 65 60
        E 0 90 58 60
        E 0 90 4b 60
        E 0 90 3e 60
        E 120 80 64 00
        E 0 80 65 00
        E 0 80 58 00
        E 0 80 4b 00
        E 0 80 3e 00
        E 360 90 62 60
        E 0 90 56 60
        E 0 90 4a 60
        E 120 80 62 00
        E 0 80 56 00
        E 0 80 4a 00
        E 120 90 60 60
        E 0 90 54 60
        E 120 80 60 00
        E 0 80 54 00
        E 120 90 61 60
        E 0 90 55 60
        E 0 90 49 60
        E 0 90 3d 60
        E 480 80 49 00
        E 0 80 3d 00
        E 120 80 61 00
        E 0 80 55 00
        E 120 90 60 60
        E 0 90 54 60
        E 120 80 60 00
        E 0 80 54 00
        E 120 90 61 60
        E 0 90 55 60
        E 0 90 49 60
        E 0 90 3d 60
        E 480 80 49 00
        E 0 80 3d 00
        E 120 80 61 00
        E 0 80 55 00
        E 120 90 60 60
        E 0 90 54 60
        E 120 80 60 00
        E 0 80 54 00
        E 120 90 61 60
        E 0 90 55 60
        E 0 90 49 60
        E 0 90 3d 60
        E 120 80 49 00
        E 0 80 3d 00
        E 480 80 61 00
        E 0 80 55 00
        E 120 90 63 60
        E 0 90 57 60
        E 0 90 4b 60
        E 120 80 63 00
        E 0 80 57 00
        E 0 80 4b 00
        E 120 90 64 60
        E 0 90 65 60
        E 0 90 58 60
        E 0 90 4b 60
        E 0 90 3e 60
        E 120 80 64 00
        E 0 80 65 00
        E 0 80 58 00
        E 0 80 4b 00
        E 0 80 3e 00
        E 360 90 62 60
        E 0 90 56 60
        E 0 90 4a 60
        E 120 80 62 00
        E 0 80 56 00
        E 0 80 4a 00
        E 120 90 60 60
        E 0 90 54 60
        E 120 80 60 00
        E 0 80 54 00
        E 120 90 61 60
        E 0 90 55 60
        E 0 90 49 60
        E 0 90 3d 60
        E 480 80 49 00
        E 0 80 3d 00
        E 120 80 61 00
        E 0 80 55 00
        E 120 90 60 60
        E 0 90 54 60
        E 120 80 60 00
        E 0 80 54 00
        E 120 90 61 60
        E 0 90 55 60
        E 0 90 49 60
        E 0 90 3d 60
        E 480 80 49 00
        E 0 80 3d 00
        E 120 80 61 00
        E 0 80 55 00
        E 120 90 60 60
        E 0 90 54 60
        E 120 80 60 00
        E 0 80 54 00
        E 120 90 61 60
        E 0 90 55 60
        E 0 90 49 60
        E 0 90 3d 60
        E 120 80 49 00
        E 0 80 3d 00
        E 480 80 61 00
        E 0 80 55 00
        E 120 90 63 60
        E 0 90 57 60
        E 0 90 4b 60
        E 120 80 63 00
        E 0 80 57 00
        E 0 80 4b 00
        E 120 90 64 60
        E 0 90 65 60
        E 0 90 58 60
        E 0 90 4b 60
        E 0 90 3e 60
        E 120 80 64 00
        E 0 80 65 00
        E 0 80 58 00
        E 0 80 4b 00
        E 0 80 3e 00
        E 360 90 60 60
        E 0 90 54 60
        E 0 90 48 60
        E 120 80 60 00
        E 0 80 54 00
        E 0 80 48 00
        E 360 90 61 60
        E 0 90 55 60
        E 0 90 49 60
        E 0 90 3d 60
        E 2160 80 49 00
        E 0 80 3d 00
        E 240 80 61 00
        E 0 80 55 00
        E 240 90 63 60
        E 0 90 74 60
        E 0 90 57 60
        E 0 90 4b 60
        E 120 80 63 00
        E 0 80 57 00
        E 0 80 4b 00
        E 120 90 64 60
        E 0 90 65 60
        E 0 90 58 60
        E 0 90 4b 60
        E 0 90 3e 60
        E 120 80 64 00
        E 0 80 65 00
        E 0 80 58 00
        E 0 80 4b 00
        E 0 80 3e 00
        E 360 90 61 60
        E 0 90 55 60
        E 0 90 49 60
        E 120 80 61 00
        E 0 80 55 00
        E 0 80 49 00
        E 360 90 62 60
        E 0 90 56 60
        E 0 90 4a 60
        E 0 90 3e 60
        E 120 80 74 00
        E 3240 80 62 00
        E 0 80 56 00
        E 0 80 4a 00
        E 0 80 3e 00
        <X 480 0
          /wFbaW50ZW5zZV0=
        >
        E 0 90 63 60
        E 0 90 57 60
        E 0 90 4b 60
        E 0 90 3e 60
        E 120 80 63 00
        E 0 80 57 00
        E 0 80 4b 00
        E 0 80 3e 00
        E 120 90 63 60
        E 0 90 57 60
        E 0 90 4b 60
        E 120 80 63 00
        E 0 80 57 00
        E 0 80 4b 00
        E 120 90 63 60
        E 0 90 57 60
        E 0 90 4b 60
        E 0 90 3e 60
        E 120 80 63 00
        E 0 80 57 00
        E 0 80 4b 00
        E 0 80 3e 00
        E 120 90 63 60
        E 0 90 57 60
        E 0 90 4b 60
        E 120 80 63 00
        E 0 80 57 00
        E 0 80 4b 00
        E 120 90 63 60
        E 0 90 57 60
        E 0 90 4b 60
        E 0 90 3e 60
        E 120 80 63 00
        E 0 80 57 00
        E 0 80 4b 00
        E 0 80 3e 00
        E 120 90 63 60
        E 0 90 57 60
        E 0 90 4b 60
        E 120 80 63 00
        E 0 80 57 00
        E 0 80 4b 00
        E 120 90 63 60
        E 0 90 57 60
        E 0 90 4b 60
        E 0 90 3e 60
        E 120 80 63 00
        E 0 80 57 00
        E 0 80 4b 00
        E 0 80 3e 00
        E 120 90 63 60
        E 0 90 57 60
        E 0 90 4b 60
        E 120 80 63 00
        E 0 80 57 00
        E 0 80 4b 00
        E 120 90 63 60
        E 0 90 57 60
        E 0 90 4b 60
        E 0 90 3e 60
        E 120 80 63 00
        E 0 80 57 00
        E 0 80 4b 00
        E 0 80 3e 00
        E 120 90 63 60
        E 0 90 57 60
        E 0 90 4b 60
        E 120 80 63 00
        E 0 80 57 00
        E 0 80 4b 00
        E 120 90 63 60
        E 0 90 57 60
        E 0 90 4b 60
        E 0 90 3e 60
        E 120 80 63 00
        E 0 80 57 00
        E 0 80 4b 00
        E 0 80 3e 00
        E 120 90 63 60
        E 0 90 57 60
        E 0 90 4b 60
        E 120 80 63 00
        E 0 80 57 00
        E 0 80 4b 00
        E 120 90 63 60
        E 0 90 57 60
        E 0 90 4b 60
        E 0 90 3e 60
        E 120 80 63 00
        E 0 80 57 00
        E 0 80 4b 00
        E 0 80 3e 00
        E 120 90 63 60
        E 0 90 57 60
        E 0 90 4b 60
        E 120 80 63 00
        E 0 80 57 00
        E 0 80 4b 00
        E 120 90 63 60
        E 0 90 57 60
        E 0 90 4b 60
        E 120 80 63 00
        E 0 80 57 00
        E 0 80 4b 00
        E 120 90 63 60
        E 0 90 57 60
        E 120 80 63 00
        E 0 80 57 00
        E 120 90 60 60
        E 0 90 54 60
        E 0 90 48 60
        E 0 90 3c 60
        E 120 80 60 00
        E 0 80 54 00
        E 0 80 48 00
        E 0 80 3c 00
        E 120 90 60 60
        E 0 90 54 60
        E 0 90 48 60
        E 120 80 60 00
        E 0 80 54 00
        E 0 80 48 00
        E 120 90 60 60
        E 0 90 54 60
        E 0 90 48 60
        E 0 90 3c 60
        E 120 80 60 00
        E 0 80 54 00
        E 0 80 48 00
        E 0 80 3c 00
        E 120 90 60 60
        E 0 90 54 60
        E 0 90 48 60
        E 120 80 60 00
        E 0 80 54 00
        E 0 80 48 00
        E 120 90 60 60
        E 0 90 54 60
        E 0 90 48 60
        E 0 90 3c 60
        E 120 80 60 00
        E 0 80 54 00
        E 0 80 48 00
        E 0 80 3c 00
        E 120 90 60 60
        E 0 90 54 60
        E 0 90 48 60
        E 120 80 60 00
        E 0 80 54 00
        E 0 80 48 00
        E 120 90 60 60
        E 0 90 54 60
        E 0 90 48 60
        E 0 90 3c 60
        E 120 80 60 00
        E 0 80 54 00
        E 0 80 48 00
        E 0 80 3c 00
        E 120 90 60 60
        E 0 90 54 60
        E 0 90 48 60
        E 120 80 60 00
        E 0 80 54 00
        E 0 80 48 00
        E 120 90 60 60
        E 0 90 54 60
        E 0 90 48 60
        E 0 90 3c 60
        E 120 80 60 00
        E 0 80 54 00
        E 0 80 48 00
        E 0 80 3c 00
        E 120 90 60 60
        E 0 90 54 60
        E 0 90 48 60
        E 120 80 60 00
        E 0 80 54 00
        E 0 80 48 00
        E 120 90 60 60
        E 0 90 54 60
        E 0 90 48 60
        E 0 90 3c 60
        E 120 80 60 00
        E 0 80 54 00
        E 0 80 48 00
        E 0 80 3c 00
        E 120 90 60 60
        E 0 90 54 60
        E 0 90 48 60
        E 120 80 60 00
        E 0 80 54 00
        E 0 80 48 00
        E 120 90 60 60
        E 0 90 54 60
        E 0 90 48 60
        E 0 90 3c 60
        E 120 80 60 00
        E 0 80 54 00
        E 0 80 48 00
        E 0 80 3c 00
        E 120 90 60 60
        E 0 90 54 60
        E 0 90 48 60
        E 120 80 60 00
        E 0 80 54 00
        E 0 80 48 00
        E 120 90 60 60
        E 0 90 54 60
        E 0 90 48 60
        E 120 80 60 00
        E 0 80 54 00
        E 0 80 48 00
        E 120 90 61 60
        E 0 90 55 60
        E 120 80 61 00
        E 0 80 55 00
        E 120 90 63 60
        E 0 90 57 60
        E 0 90 4b 60
        E 0 90 3e 60
        E 120 80 63 00
        E 0 80 57 00
        E 0 80 4b 00
        E 0 80 3e 00
        E 120 90 63 60
        E 0 90 57 60
        E 0 90 4b 60
        E 120 80 63 00
        E 0 80 57 00
        E 0 80 4b 00
        E 120 90 63 60
        E 0 90 57 60
        E 0 90 4b 60
        E 0 90 3e 60
        E 120 80 63 00
        E 0 80 57 00
        E 0 80 4b 00
        E 0 80 3e 00
        E 120 90 63 60
        E 0 90 57 60
        E 0 90 4b 60
        E 120 80 63 00
        E 0 80 57 00
        E 0 80 4b 00
        E 120 90 63 60
        E 0 90 57 60
        E 0 90 4b 60
        E 0 90 3e 60
        E 120 80 63 00
        E 0 80 57 00
        E 0 80 4b 00
        E 0 80 3e 00
        E 120 90 63 60
        E 0 90 57 60
        E 0 90 4b 60
        E 120 80 63 00
        E 0 80 57 00
        E 0 80 4b 00
        E 120 90 63 60
        E 0 90 57 60
        E 0 90 4b 60
        E 0 90 3e 60
        E 120 80 63 00
        E 0 80 57 00
        E 0 80 4b 00
        E 0 80 3e 00
        E 120 90 63 60
        E 0 90 57 60
        E 0 90 4b 60
        E 120 80 63 00
        E 0 80 57 00
        E 0 80 4b 00
        E 120 90 63 60
        E 0 90 57 60
        E 0 90 4b 60
        E 0 90 3e 60
        E 120 80 63 00
        E 0 80 57 00
        E 0 80 4b 00
        E 0 80 3e 00
        E 120 90 63 60
        E 0 90 57 60
        E 0 90 4b 60
        E 120 80 63 00
        E 0 80 57 00
        E 0 80 4b 00
        E 120 90 63 60
        E 0 90 57 60
        E 0 90 4b 60
        E 0 90 3e 60
        E 120 80 63 00
        E 0 80 57 00
        E 0 80 4b 00
        E 0 80 3e 00
        E 120 90 63 60
        E 0 90 57 60
        E 0 90 4b 60
        E 120 80 63 00
        E 0 80 57 00
        E 0 80 4b 00
        E 120 90 63 60
        E 0 90 57 60
        E 0 90 4b 60
        E 0 90 3e 60
        E 120 80 63 00
        E 0 80 57 00
        E 0 80 4b 00
        E 0 80 3e 00
        E 120 90 63 60
        E 0 90 57 60
        E 0 90 4b 60
        E 120 80 63 00
        E 0 80 57 00
        E 0 80 4b 00
        E 120 90 63 60
        E 0 90 57 60
        E 0 90 4b 60
        E 120 80 63 00
        E 0 80 57 00
        E 0 80 4b 00
        E 120 90 63 60
        E 0 90 57 60
        E 120 80 63 00
        E 0 80 57 00
        E 120 90 60 60
        E 0 90 54 60
        E 0 90 48 60
        E 0 90 3c 60
        E 120 80 60 00
        E 0 80 54 00
        E 0 80 48 00
        E 0 80 3c 00
        E 120 90 60 60
        E 0 90 54 60
        E 0 90 48 60
        E 120 80 60 00
        E 0 80 54 00
        E 0 80 48 00
        E 120 90 60 60
        E 0 90 54 60
        E 0 90 48 60
        E 0 90 3c 60
        E 120 80 60 00
        E 0 80 54 00
        E 0 80 48 00
        E 0 80 3c 00
        E 120 90 60 60
        E 0 90 54 60
        E 0 90 48 60
        E 120 80 60 00
        E 0 80 54 00
        E 0 80 48 00
        E 120 90 60 60
        E 0 90 54 60
        E 0 90 48 60
        E 0 90 3c 60
        E 120 80 60 00
        E 0 80 54 00
        E 0 80 48 00
        E 0 80 3c 00
        E 120 90 60 60
        E 0 90 54 60
        E 0 90 48 60
        E 120 80 60 00
        E 0 80 54 00
        E 0 80 48 00
        E 120 90 60 60
        E 0 90 54 60
        E 0 90 48 60
        E 0 90 3c 60
        E 120 80 60 00
        E 0 80 54 00
        E 0 80 48 00
        E 0 80 3c 00
        E 120 90 60 60
        E 0 90 54 60
        E 0 90 48 60
        E 120 80 60 00
        E 0 80 54 00
        E 0 80 48 00
        E 120 90 60 60
        E 0 90 54 60
        E 0 90 48 60
        E 0 90 3c 60
        E 120 80 60 00
        E 0 80 54 00
        E 0 80 48 00
        E 0 80 3c 00
        E 120 90 60 60
        E 0 90 54 60
        E 0 90 48 60
        E 120 80 60 00
        E 0 80 54 00
        E 0 80 48 00
        E 120 90 60 60
        E 0 90 54 60
        E 0 90 48 60
        E 0 90 3c 60
        E 120 80 60 00
        E 0 80 54 00
        E 0 80 48 00
        E 0 80 3c 00
        E 120 90 60 60
        E 0 90 54 60
        E 0 90 48 60
        E 120 80 60 00
        E 0 80 54 00
        E 0 80 48 00
        E 120 90 60 60
        E 0 90 54 60
        E 0 90 48 60
        E 0 90 3c 60
        E 120 80 60 00
        E 0 80 54 00
        E 0 80 48 00
        E 0 80 3c 00
        E 120 90 60 60
        E 0 90 54 60
        E 0 90 48 60
        E 120 80 60 00
        E 0 80 54 00
        E 0 80 48 00
        E 120 90 60 60
        E 0 90 54 60
        E 0 90 48 60
        E 120 80 60 00
        E 0 80 54 00
        E 0 80 48 00
        E 120 90 60 60
        E 0 90 54 60
        E 120 80 60 00
        E 0 80 54 00
        E 120 90 62 60
        E 0 90 74 60
        E 0 90 56 60
        E 0 90 4a 60
        E 0 90 3e 60
        E 120 80 62 00
        E 0 80 56 00
        E 0 80 4a 00
        E 0 80 3e 00
        E 120 90 62 60
        E 0 90 56 60
        E 0 90 4a 60
        E 120 80 62 00
        E 0 80 56 00
        E 0 80 4a 00
        E 120 90 62 60
        E 0 90 56 60
        E 0 90 4a 60
        E 0 90 3e 60
        E 120 80 62 00
        E 0 80 56 00
        E 0 80 4a 00
        E 0 80 3e 00
        E 120 90 62 60
        E 0 90 56 60
        E 0 90 4a 60
        E 120 80 62 00
        E 0 80 56 00
        E 0 80 4a 00
        E 120 90 62 60
        E 0 90 56 60
        E 0 90 4a 60
        E 0 90 3e 60
        E 120 80 62 00
        E 0 80 56 00
        E 0 80 4a 00
        E 0 80 3e 00
        E 120 90 62 60
        E 0 90 56 60
        E 0 90 4a 60
        E 120 80 62 00
        E 0 80 56 00
        E 0 80 4a 00
        E 120 90 62 60
        E 0 90 56 60
        E 0 90 4a 60
        E 120 80 62 00
        E 0 80 56 00
        E 0 80 4a 00
        E 120 90 62 60
        E 0 90 56 60
        E 120 80 62 00
        E 0 80 56 00
        E 120 90 60 60
        E 0 90 54 60
        E 0 90 48 60
        E 0 90 3c 60
        E 120 80 60 00
        E 0 80 54 00
        E 0 80 48 00
        E 0 80 3c 00
        E 120 90 60 60
        E 0 90 54 60
        E 0 90 48 60
        E 120 80 60 00
        E 0 80 54 00
        E 0 80 48 00
        E 120 90 60 60
        E 0 90 54 60
        E 0 90 48 60
        E 0 90 3c 60
        E 120 80 60 00
        E 0 80 54 00
        E 0 80 48 00
        E 0 80 3c 00
        E 120 90 60 60
        E 0 90 54 60
        E 0 90 48 60
        E 120 80 60 00
        E 0 80 54 00
        E 0 80 48 00
        E 120 90 60 60
        E 0 90 54 60
        E 0 90 48 60
        E 0 90 3c 60
        E 120 80 60 00
        E 0 80 54 00
        E 0 80 48 00
        E 0 80 3c 00
        E 120 90 60 60
        E 0 90 54 60
        E 0 90 48 60
        E 120 80 60 00
        E 0 80 54 00
        E 0 80 48 00
        E 120 90 60 60
        E 0 90 54 60
        E 0 90 48 60
        E 120 80 60 00
        E 0 80 54 00
        E 0 80 48 00
        E 120 90 60 60
        E 0 90 54 60
        E 120 80 60 00
        E 0 80 54 00
        E 120 90 62 60
        E 0 90 56 60
        E 0 90 4a 60
        E 0 90 3e 60
        E 120 80 74 00
        E 0 80 62 00
        E 0 80 56 00
        E 0 80 4a 00
        E 0 80 3e 00
        E 120 90 62 60
        E 0 90 56 60
        E 0 90 4a 60
        E 120 80 62 00
        E 0 80 56 00
        E 0 80 4a 00
        E 120 90 62 60
        E 0 90 56 60
        E 0 90 4a 60
        E 0 90 3e 60
        E 120 80 62 00
        E 0 80 56 00
        E 0 80 4a 00
        E 0 80 3e 00
        E 120 90 62 60
        E 0 90 56 60
        E 0 90 4a 60
        E 120 80 62 00
        E 0 80 56 00
        E 0 80 4a 00
        E 120 90 62 60
        E 0 90 56 60
        E 0 90 4a 60
        E 0 90 3e 60
        E 120 80 62 00
        E 0 80 56 00
        E 0 80 4a 00
        E 0 80 3e 00
        E 120 90 62 60
        E 0 90 56 60
        E 0 90 4a 60
        E 120 80 62 00
        E 0 80 56 00
        E 0 80 4a 00
        E 120 90 62 60
        E 0 90 56 60
        E 0 90 4a 60
        E 120 80 62 00
        E 0 80 56 00
        E 0 80 4a 00
        E 120 90 62 60
        E 0 90 56 60
        E 120 80 62 00
        E 0 80 56 00
        E 120 90 60 60
        E 0 90 54 60
        E 0 90 48 60
        E 0 90 3c 60
        <X 2400 0
          /wFbaWRsZV0=
        >
        E 0 80 60 00
        E 0 80 54 00
        E 0 80 48 00
        E 0 80 3c 00
        <X 16080 0
          /wFbbWVsbG93XQ==
        >
        E 0 90 61 60
        E 0 90 55 60
        E 120 80 61 00
        E 0 80 55 00
        E 120 90 62 60
        E 0 90 56 60
        E 0 90 4a 60
        E 0 90 3e 60
        E 120 80 62 00
        E 0 80 56 00
        E 0 80 4a 00
        E 0 80 3e 00
        E 120 90 63 60
        E 0 90 57 60
        E 120 80 63 00
        E 0 80 57 00
        E 120 90 64 60
        E 0 90 58 60
        E 0 90 4b 60
        E 0 90 3e 60
        E 120 80 64 00
        E 0 80 58 00
        E 0 80 4b 00
        E 0 80 3e 00
        E 120 90 64 60
        E 0 90 58 60
        E 0 90 4b 60
        E 120 80 64 00
        E 0 80 58 00
        E 0 80 4b 00
        E 360 90 64 60
        E 0 90 58 60
        E 0 90 4b 60
        E 120 80 64 00
        E 0 80 58 00
        E 0 80 4b 00
        E 120 90 64 60
        E 0 90 58 60
        E 0 90 4b 60
        E 0 90 3e 60
        E 120 80 64 00
        E 0 80 58 00
        E 0 80 4b 00
        E 0 80 3e 00
        E 120 90 64 60
        E 0 90 58 60
        E 0 90 4b 60
        E 120 80 64 00
        E 0 80 58 00
        E 0 80 4b 00
        E 360 90 64 60
        E 0 90 58 60
        E 0 90 4b 60
        E 120 80 64 00
        E 0 80 58 00
        E 0 80 4b 00
        E 360 90 64 60
        E 0 90 58 60
        E 0 90 4b 60
        E 0 90 3e 60
        E 120 80 64 00
        E 0 80 58 00
        E 0 80 4b 00
        E 0 80 3e 00
        E 360 90 64 60
        E 0 90 58 60
        E 0 90 4b 60
        E 120 80 64 00
        E 0 80 58 00
        E 0 80 4b 00
        E 120 90 64 60
        E 0 90 58 60
        E 0 90 4b 60
        E 0 90 3e 60
        E 120 80 64 00
        E 0 80 58 00
        E 0 80 4b 00
        E 0 80 3e 00
        E 120 90 64 60
        E 0 90 58 60
        E 120 80 64 00
        E 0 80 58 00
        E 120 90 61 60
        E 0 90 55 60
        E 0 90 49 60
        E 120 80 61 00
        E 0 80 55 00
        E 0 80 49 00
        E 120 90 62 60
        E 0 90 56 60
        E 120 80 62 00
        E 0 80 56 00
        E 120 90 63 60
        E 0 90 57 60
        E 0 90 4b 60
        E 0 90 3e 60
        E 120 80 63 00
        E 0 80 57 00
        E 0 80 4b 00
        E 0 80 3e 00
        E 120 90 63 60
        E 0 90 57 60
        E 0 90 4b 60
        E 120 80 63 00
        E 0 80 57 00
        E 0 80 4b 00
        E 360 90 63 60
        E 0 90 57 60
        E 0 90 4b 60
        E 120 80 63 00
        E 0 80 57 00
        E 0 80 4b 00
        E 120 90 63 60
        E 0 90 57 60
        E 0 90 4b 60
        E 0 90 3e 60
        E 120 80 63 00
        E 0 80 57 00
        E 0 80 4b 00
        E 0 80 3e 00
        E 120 90 63 60
        E 0 90 57 60
        E 0 90 4b 60
        E 120 80 63 00
        E 0 80 57 00
        E 0 80 4b 00
        E 360 90 63 60
        E 0 90 57 60
        E 0 90 4b 60
        E 120 80 63 00
        E 0 80 57 00
        E 0 80 4b 00
        E 360 90 63 60
        E 0 90 57 60
        E 0 90 4b 60
        E 0 90 3e 60
        E 120 80 63 00
        E 0 80 57 00
        E 0 80 4b 00
        E 0 80 3e 00
        E 360 90 63 60
        E 0 90 57 60
        E 0 90 4b 60
        E 120 80 63 00
        E 0 80 57 00
        E 0 80 4b 00
        E 120 90 63 60
        E 0 90 57 60
        E 0 90 4b 60
        E 0 90 3e 60
        E 120 80 63 00
        E 0 80 57 00
        E 0 80 4b 00
        E 0 80 3e 00
        E 120 90 63 60
        E 0 90 57 60
        E 120 80 63 00
        E 0 80 57 00
        E 120 90 62 60
        E 0 90 56 60
        E 0 90 4a 60
        E 0 90 3e 60
        E 120 80 62 00
        E 0 80 56 00
        E 0 80 4a 00
        E 0 80 3e 00
        E 120 90 61 60
        E 0 90 55 60
        E 120 80 61 00
        E 0 80 55 00
        E 120 90 64 60
        E 0 90 58 60
        E 0 90 4b 60
        E 0 90 3e 60
        E 120 80 64 00
        E 0 80 58 00
        E 0 80 4b 00
        E 0 80 3e 00
        E 120 90 64 60
        E 0 90 58 60
        E 0 90 4b 60
        E 120 80 64 00
        E 0 80 58 00
        E 0 80 4b 00
        E 360 90 64 60
        E 0 90 58 60
        E 0 90 4b 60
        E 120 80 64 00
        E 0 80 58 00
        E 0 80 4b 00
        E 120 90 64 60
        E 0 90 58 60
        E 0 90 4b 60
        E 0 90 3e 60
        E 120 80 64 00
        E 0 80 58 00
        E 0 80 4b 00
        E 0 80 3e 00
        E 120 90 64 60
        E 0 90 58 60
        E 0 90 4b 60
        E 120 80 64 00
        E 0 80 58 00
        E 0 80 4b 00
        E 360 90 64 60
        E 0 90 58 60
        E 0 90 4b 60
        E 120 80 64 00
        E 0 80 58 00
        E 0 80 4b 00
        E 360 90 64 60
        E 0 90 58 60
        E 0 90 4b 60
        E 0 90 3e 60
        E 120 80 64 00
        E 0 80 58 00
        E 0 80 4b 00
        E 0 80 3e 00
        E 360 90 64 60
        E 0 90 58 60
        E 120 80 64 00
        E 0 80 58 00
        E 120 90 62 60
        E 0 90 56 60
        E 0 90 4a 60
        E 0 90 3e 60
        E 120 80 62 00
        E 0 80 56 00
        E 0 80 4a 00
        E 0 80 3e 00
        E 120 90 64 60
        E 0 90 58 60
        E 120 80 64 00
        E 0 80 58 00
        E 120 90 62 60
        E 0 90 56 60
        E 0 90 4a 60
        E 0 90 3e 60
        E 120 80 62 00
        E 0 80 56 00
        E 0 80 4a 00
        E 0 80 3e 00
        E 120 90 61 60
        E 0 90 55 60
        E 120 80 61 00
        E 0 80 55 00
        E 120 90 63 60
        E 0 90 74 60
        E 0 90 57 60
        E 0 90 4b 60
        E 0 90 3e 60
        E 120 80 63 00
        E 0 80 57 00
        E 0 80 4b 00
        E 0 80 3e 00
        E 120 90 63 60
        E 0 90 57 60
        E 0 90 4b 60
        E 120 80 63 00
        E 0 80 57 00
        E 0 80 4b 00
        E 360 90 63 60
        E 0 90 57 60
        E 0 90 4b 60
        E 120 80 63 00
        E 0 80 57 00
        E 0 80 4b 00
        E 120 90 63 60
        E 0 90 57 60
        E 0 90 4b 60
        E 0 90 3e 60
        E 120 80 63 00
        E 0 80 57 00
        E 0 80 4b 00
        E 0 80 3e 00
        E 120 90 63 60
        E 0 90 57 60
        E 0 90 4b 60
        E 120 80 63 00
        E 0 80 57 00
        E 0 80 4b 00
        E 360 90 63 60
        E 0 90 57 60
        E 0 90 4b 60
        E 120 80 63 00
        E 0 80 57 00
        E 0 80 4b 00
        E 360 90 63 60
        E 0 90 57 60
        E 0 90 4b 60
        E 0 90 3e 60
        E 120 80 63 00
        E 0 80 57 00
        E 0 80 4b 00
        E 0 80 3e 00
        E 360 90 63 60
        E 0 90 57 60
        E 120 80 63 00
        E 0 80 57 00
        E 120 90 62 60
        E 0 90 56 60
        E 0 90 4a 60
        E 0 90 3e 60
        E 120 80 62 00
        E 0 80 56 00
        E 0 80 4a 00
        E 0 80 3e 00
        E 120 90 62 60
        E 0 90 56 60
        E 120 80 62 00
        E 0 80 56 00
        E 120 90 61 60
        E 0 90 55 60
        E 0 90 49 60
        E 120 80 61 00
        E 0 80 55 00
        E 0 80 49 00
        <X 360 0
          /wFbcGxheV0=
        >
        E 0 90 64 60
        E 0 90 58 60
        E 0 90 4b 60
        E 0 90 3e 60
        E 120 80 74 00
        E 0 80 64 00
        E 0 80 58 00
        E 0 80 4b 00
        E 0 80 3e 00
        E 120 90 64 60
        E 0 90 58 60
        E 0 90 4b 60
        E 120 80 64 00
        E 0 80 58 00
        E 0 80 4b 00
        E 360 90 64 60
        E 0 90 58 60
        E 0 90 4b 60
        E 120 80 64 00
        E 0 80 58 00
        E 0 80 4b 00
        E 120 90 64 60
        E 0 90 58 60
        E 0 90 4b 60
        E 0 90 3e 60
        E 120 80 64 00
        E 0 80 58 00
        E 0 80 4b 00
        E 0 80 3e 00
        E 120 90 64 60
        E 0 90 58 60
        E 0 90 4b 60
        E 120 80 64 00
        E 0 80 58 00
        E 0 80 4b 00
        E 360 90 64 60
        E 0 90 58 60
        E 0 90 4b 60
        E 120 80 64 00
        E 0 80 58 00
        E 0 80 4b 00
        E 360 90 64 60
        E 0 90 58 60
        E 0 90 4b 60
        E 0 90 3e 60
        E 120 80 64 00
        E 0 80 58 00
        E 0 80 4b 00
        E 0 80 3e 00
        E 360 90 64 60
        E 0 90 58 60
        E 0 90 4b 60
        E 120 80 64 00
        E 0 80 58 00
        E 0 80 4b 00
        E 120 90 64 60
        E 0 90 58 60
        E 0 90 4b 60
        E 0 90 3e 60
        E 120 80 64 00
        E 0 80 58 00
        E 0 80 4b 00
        E 0 80 3e 00
        E 120 90 64 60
        E 0 90 58 60
        E 0 90 4b 60
        E 120 80 64 00
        E 0 80 58 00
        E 0 80 4b 00
        E 360 90 64 60
        E 0 90 58 60
        E 120 80 64 00
        E 0 80 58 00
        E 120 90 61 60
        E 0 90 55 60
        E 0 90 49 60
        E 0 90 3d 60
        E 120 80 61 00
        E 0 80 55 00
        E 0 80 49 00
        E 0 80 3d 00
        E 120 90 61 60
        E 0 90 55 60
        E 0 90 49 60
        E 120 80 61 00
        E 0 80 55 00
        E 0 80 49 00
        E 360 90 61 60
        E 0 90 55 60
        E 0 90 49 60
        E 120 80 61 00
        E 0 80 55 00
        E 0 80 49 00
        E 120 90 61 60
        E 0 90 55 60
        E 0 90 49 60
        E 0 90 3d 60
        E 120 80 61 00
        E 0 80 55 00
        E 0 80 49 00
        E 0 80 3d 00
        E 120 90 61 60
        E 0 90 55 60
        E 0 90 49 60
        E 120 80 61 00
        E 0 80 55 00
        E 0 80 49 00
        E 360 90 61 60
        E 0 90 55 60
        E 0 90 49 60
        E 120 80 61 00
        E 0 80 55 00
        E 0 80 49 00
        E 360 90 61 60
        E 0 90 55 60
        E 0 90 49 60
        E 0 90 3d 60
        E 120 80 61 00
        E 0 80 55 00
        E 0 80 49 00
        E 0 80 3d 00
        E 360 90 61 60
        E 0 90 55 60
        E 0 90 49 60
        E 120 80 61 00
        E 0 80 55 00
        E 0 80 49 00
        E 120 90 61 60
        E 0 90 55 60
        E 0 90 49 60
        E 0 90 3d 60
        E 120 80 61 00
        E 0 80 55 00
        E 0 80 49 00
        E 0 80 3d 00
        E 120 90 61 60
        E 0 90 55 60
        E 0 90 49 60
        E 120 80 61 00
        E 0 80 55 00
        E 0 80 49 00
        E 360 90 61 60
        E 0 90 55 60
        E 120 80 61 00
        E 0 80 55 00
        E 120 90 64 60
        E 0 90 58 60
        E 0 90 4b 60
        E 0 90 3e 60
        E 120 80 64 00
        E 0 80 58 00
        E 0 80 4b 00
        E 0 80 3e 00
        E 120 90 64 60
        E 0 90 58 60
        E 0 90 4b 60
        E 120 80 64 00
        E 0 80 58 00
        E 0 80 4b 00
        E 360 90 64 60
        E 0 90 58 60
        E 0 90 4b 60
        E 120 80 64 00
        E 0 80 58 00
        E 0 80 4b 00
        E 120 90 64 60
        E 0 90 58 60
        E 0 90 4b 60
        E 0 90 3e 60
        E 120 80 64 00
        E 0 80 58 00
        E 0 80 4b 00
        E 0 80 3e 00
        E 120 90 64 60
        E 0 90 58 60
        E 0 90 4b 60
        E 120 80 64 00
        E 0 80 58 00
        E 0 80 4b 00
        E 360 90 64 60
        E 0 90 58 60
        E 0 90 4b 60
        E 120 80 64 00
        E 0 80 58 00
        E 0 80 4b 00
        E 360 90 64 60
        E 0 90 58 60
        E 0 90 4b 60
        E 0 90 3e 60
        E 120 80 64 00
        E 0 80 58 00
        E 0 80 4b 00
        E 0 80 3e 00
        E 360 90 64 60
        E 0 90 58 60
        E 0 90 4b 60
        E 120 80 64 00
        E 0 80 58 00
        E 0 80 4b 00
        E 120 90 64 60
        E 0 90 58 60
        E 0 90 4b 60
        E 0 90 3e 60
        E 120 80 64 00
        E 0 80 58 00
        E 0 80 4b 00
        E 0 80 3e 00
        E 120 90 64 60
        E 0 90 58 60
        E 0 90 4b 60
        E 120 80 64 00
        E 0 80 58 00
        E 0 80 4b 00
        E 120 90 64 60
        E 0 90 58 60
        E 0 90 4b 60
        E 120 80 64 00
        E 0 80 58 00
        E 0 80 4b 00
        E 120 90 62 60
        E 0 90 65 60
        E 0 90 56 60
        E 120 80 62 00
        E 0 80 65 00
        E 0 80 56 00
        E 120 90 61 60
        E 0 90 55 60
        E 0 90 49 60
        E 0 90 3d 60
        E 3360 80 61 00
        E 0 80 55 00
        E 0 80 49 00
        E 0 80 3d 00
        <X 480 0
          /wFbaW50ZW5zZV0=
        >
        E 0 90 63 60
        E 0 90 74 60
        E 0 90 57 60
        E 0 90 4b 60
        E 0 90 3e 60
        E 120 80 63 00
        E 0 80 57 00
        E 0 80 4b 00
        E 0 80 3e 00
        E 120 90 63 60
        E 0 90 57 60
        E 0 90 4b 60
        E 120 80 63 00
        E 0 80 57 00
        E 0 80 4b 00
        E 120 90 63 60
        E 0 90 57 60
        E 0 90 4b 60
        E 0 90 3e 60
        E 120 80 63 00
        E 0 80 57 00
        E 0 80 4b 00
        E 0 80 3e 00
        E 120 90 63 60
        E 0 90 57 60
        E 0 90 4b 60
        E 120 80 63 00
        E 0 80 57 00
        E 0 80 4b 00
        E 120 90 63 60
        E 0 90 57 60
        E 0 90 4b 60
        E 0 90 3e 60
        E 120 80 63 00
        E 0 80 57 00
        E 0 80 4b 00
        E 0 80 3e 00
        E 120 90 63 60
        E 0 90 57 60
        E 0 90 4b 60
        E 120 80 63 00
        E 0 80 57 00
        E 0 80 4b 00
        E 120 90 63 60
        E 0 90 57 60
        E 0 90 4b 60
        E 0 90 3e 60
        E 120 80 63 00
        E 0 80 57 00
        E 0 80 4b 00
        E 0 80 3e 00
        E 120 90 63 60
        E 0 90 57 60
        E 0 90 4b 60
        E 120 80 63 00
        E 0 80 57 00
        E 0 80 4b 00
        E 120 90 63 60
        E 0 90 57 60
        E 0 90 4b 60
        E 0 90 3e 60
        E 120 80 63 00
        E 0 80 57 00
        E 0 80 4b 00
        E 0 80 3e 00
        E 120 90 63 60
        E 0 90 57 60
        E 0 90 4b 60
        E 120 80 63 00
        E 0 80 57 00
        E 0 80 4b 00
        E 120 90 63 60
        E 0 90 57 60
        E 0 90 4b 60
        E 0 90 3e 60
        E 120 80 63 00
        E 0 80 57 00
        E 0 80 4b 00
        E 0 80 3e 00
        E 120 90 63 60
        E 0 90 57 60
        E 0 90 4b 60
        E 120 80 63 00
        E 0 80 57 00
        E 0 80 4b 00
        E 120 90 63 60
        E 0 90 57 60
        E 0 90 4b 60
        E 0 90 3e 60
        E 120 80 63 00
        E 0 80 57 00
        E 0 80 4b 00
        E 0 80 3e 00
        E 120 90 63 60
        E 0 90 57 60
        E 0 90 4b 60
        E 120 80 63 00
        E 0 80 57 00
        E 0 80 4b 00
        E 120 90 63 60
        E 0 90 57 60
        E 0 90 4b 60
        E 120 80 63 00
        E 0 80 57 00
        E 0 80 4b 00
        E 120 90 63 60
        E 0 90 57 60
        E 120 80 63 00
        E 0 80 57 00
        E 0 90 62 60
        E 0 90 65 60
        E 120 80 62 00
        E 0 80 65 00
        E 0 90 60 60
        E 0 90 54 60
        E 0 90 48 60
        E 0 90 3c 60
        E 120 80 74 00
        E 0 80 60 00
        E 0 80 54 00
        E 0 80 48 00
        E 0 80 3c 00
        E 120 90 60 60
        E 0 90 54 60
        E 0 90 48 60
        E 120 80 60 00
        E 0 80 54 00
        E 0 80 48 00
        E 120 90 60 60
        E 0 90 54 60
        E 0 90 48 60
        E 0 90 3c 60
        E 120 80 60 00
        E 0 80 54 00
        E 0 80 48 00
        E 0 80 3c 00
        E 120 90 60 60
        E 0 90 54 60
        E 0 90 48 60
        E 120 80 60 00
        E 0 80 54 00
        E 0 80 48 00
        E 120 90 60 60
        E 0 90 54 60
        E 0 90 48 60
        E 0 90 3c 60
        E 120 80 60 00
        E 0 80 54 00
        E 0 80 48 00
        E 0 80 3c 00
        E 120 90 60 60
        E 0 90 54 60
        E 0 90 48 60
        E 120 80 60 00
        E 0 80 54 00
        E 0 80 48 00
        E 120 90 60 60
        E 0 90 54 60
        E 0 90 48 60
        E 0 90 3c 60
        E 120 80 60 00
        E 0 80 54 00
        E 0 80 48 00
        E 0 80 3c 00
        E 120 90 60 60
        E 0 90 54 60
        E 0 90 48 60
        E 120 80 60 00
        E 0 80 54 00
        E 0 80 48 00
        E 120 90 60 60
        E 0 90 54 60
        E 0 90 48 60
        E 0 90 3c 60
        E 120 80 60 00
        E 0 80 54 00
        E 0 80 48 00
        E 0 80 3c 00
        E 120 90 60 60
        E 0 90 54 60
        E 0 90 48 60
        E 120 80 60 00
        E 0 80 54 00
        E 0 80 48 00
        E 120 90 60 60
        E 0 90 54 60
        E 0 90 48 60
        E 0 90 3c 60
        E 120 80 60 00
        E 0 80 54 00
        E 0 80 48 00
        E 0 80 3c 00
        E 120 90 60 60
        E 0 90 54 60
        E 0 90 48 60
        E 120 80 60 00
        E 0 80 54 00
        E 0 80 48 00
        E 120 90 60 60
        E 0 90 54 60
        E 0 90 48 60
        E 0 90 3c 60
        E 120 80 60 00
        E 0 80 54 00
        E 0 80 48 00
        E 0 80 3c 00
        E 120 90 60 60
        E 0 90 54 60
        E 0 90 48 60
        E 120 80 60 00
        E 0 80 54 00
        E 0 80 48 00
        E 120 90 60 60
        E 0 90 54 60
        E 0 90 48 60
        E 120 80 60 00
        E 0 80 54 00
        E 0 80 48 00
        E 120 90 60 60
        E 0 90 54 60
        E 120 80 60 00
        E 0 80 54 00
        E 120 90 63 60
        E 0 90 57 60
        E 0 90 4b 60
        E 0 90 3e 60
        E 120 80 63 00
        E 0 80 57 00
        E 0 80 4b 00
        E 0 80 3e 00
        E 120 90 63 60
        E 0 90 57 60
        E 0 90 4b 60
        E 120 80 63 00
        E 0 80 57 00
        E 0 80 4b 00
        E 120 90 63 60
        E 0 90 57 60
        E 0 90 4b 60
        E 0 90 3e 60
        E 120 80 63 00
        E 0 80 57 00
        E 0 80 4b 00
        E 0 80 3e 00
        E 120 90 63 60
        E 0 90 57 60
        E 0 90 4b 60
        E 120 80 63 00
        E 0 80 57 00
        E 0 80 4b 00
        E 120 90 63 60
        E 0 90 57 60
        E 0 90 4b 60
        E 0 90 3e 60
        E 120 80 63 00
        E 0 80 57 00
        E 0 80 4b 00
        E 0 80 3e 00
        E 120 90 63 60
        E 0 90 57 60
        E 0 90 4b 60
        E 120 80 63 00
        E 0 80 57 00
        E 0 80 4b 00
        E 120 90 63 60
        E 0 90 57 60
        E 0 90 4b 60
        E 0 90 3e 60
        E 120 80 63 00
        E 0 80 57 00
        E 0 80 4b 00
        E 0 80 3e 00
        E 120 90 63 60
        E 0 90 57 60
        E 0 90 4b 60
        E 120 80 63 00
        E 0 80 57 00
        E 0 80 4b 00
        E 120 90 63 60
        E 0 90 57 60
        E 0 90 4b 60
        E 0 90 3e 60
        E 120 80 63 00
        E 0 80 57 00
        E 0 80 4b 00
        E 0 80 3e 00
        E 120 90 63 60
        E 0 90 57 60
        E 0 90 4b 60
        E 120 80 63 00
        E 0 80 57 00
        E 0 80 4b 00
        E 120 90 63 60
        E 0 90 57 60
        E 0 90 4b 60
        E 0 90 3e 60
        E 120 80 63 00
        E 0 80 57 00
        E 0 80 4b 00
        E 0 80 3e 00
        E 120 90 63 60
        E 0 90 57 60
        E 0 90 4b 60
        E 120 80 63 00
        E 0 80 57 00
        E 0 80 4b 00
        E 120 90 63 60
        E 0 90 57 60
        E 0 90 4b 60
        E 0 90 3e 60
        E 120 80 63 00
        E 0 80 57 00
        E 0 80 4b 00
        E 0 80 3e 00
        E 120 90 63 60
        E 0 90 57 60
        E 0 90 4b 60
        E 120 80 63 00
        E 0 80 57 00
        E 0 80 4b 00
        E 120 90 63 60
        E 0 90 57 60
        E 0 90 4b 60
        E 120 80 63 00
        E 0 80 57 00
        E 0 80 4b 00
        E 120 90 63 60
        E 0 90 57 60
        E 120 80 63 00
        E 0 80 57 00
        E 0 90 62 60
        E 0 90 65 60
        E 120 80 62 00
        E 0 80 65 00
        E 0 90 60 60
        E 0 90 54 60
        E 0 90 48 60
        E 0 90 3c 60
        E 120 80 60 00
        E 0 80 54 00
        E 0 80 48 00
        E 0 80 3c 00
        E 120 90 60 60
        E 0 90 54 60
        E 0 90 48 60
        E 120 80 60 00
        E 0 80 54 00
        E 0 80 48 00
        E 120 90 60 60
        E 0 90 54 60
        E 0 90 48 60
        E 0 90 3c 60
        E 120 80 60 00
        E 0 80 54 00
        E 0 80 48 00
        E 0 80 3c 00
        E 120 90 60 60
        E 0 90 54 60
        E 0 90 48 60
        E 120 80 60 00
        E 0 80 54 00
        E 0 80 48 00
        E 120 90 60 60
        E 0 90 54 60
        E 0 90 48 60
        E 0 90 3c 60
        E 120 80 60 00
        E 0 80 54 00
        E 0 80 48 00
        E 0 80 3c 00
        E 120 90 60 60
        E 0 90 54 60
        E 0 90 48 60
        E 120 80 60 00
        E 0 80 54 00
        E 0 80 48 00
        E 120 90 60 60
        E 0 90 54 60
        E 0 90 48 60
        E 0 90 3c 60
        E 120 80 60 00
        E 0 80 54 00
        E 0 80 48 00
        E 0 80 3c 00
        E 120 90 60 60
        E 0 90 54 60
        E 0 90 48 60
        E 120 80 60 00
        E 0 80 54 00
        E 0 80 48 00
        E 120 90 60 60
        E 0 90 54 60
        E 0 90 48 60
        E 0 90 3c 60
        E 119 80 60 00
        E 0 80 54 00
        E 0 80 48 00
        E 0 80 3c 00
        E 120 90 60 60
        E 0 90 54 60
        E 121 80 60 00
        E 0 80 54 00
        E 120 90 60 60
        E 0 90 54 60
        E 0 90 48 60
        E 0 90 3c 60
        E 120 80 60 00
        E 0 80 54 00
        E 0 80 48 00
        E 0 80 3c 00
        E 119 90 60 60
        E 0 90 54 60
        E 120 80 60 00
        E 0 80 54 00
        E 121 90 60 60
        E 0 90 54 60
        E 0 90 48 60
        E 0 90 3c 60
        E 120 80 60 00
        E 0 80 54 00
        E 0 80 48 00
        E 0 80 3c 00
        E 119 90 60 60
        E 0 90 54 60
        E 120 80 60 00
        E 0 80 54 00
        E 121 90 60 60
        E 0 90 54 60
        E 0 90 48 60
        E 120 80 60 00
        E 0 80 54 00
        E 0 80 48 00
        E 120 90 60 60
        E 0 90 54 60
        E 119 80 60 00
        E 0 80 54 00
        E 0 90 61 60
        E 120 80 61 00
        E 0 90 62 60
        E 0 90 56 60
        E 0 90 4a 60
        E 0 90 3e 60
        E 120 80 62 00
        E 0 80 56 00
        E 0 80 4a 00
        E 0 80 3e 00
        E 120 90 62 60
        E 0 90 56 60
        E 120 80 62 00
        E 0 80 56 00
        E 121 90 62 60
        E 0 90 56 60
        E 0 90 4a 60
        E 0 90 3e 60
        E 120 80 62 00
        E 0 80 56 00
        E 0 80 4a 00
        E 0 80 3e 00
        E 120 90 62 60
        E 0 90 56 60
        E 0 90 4a 60
        E 120 80 62 00
        E 0 80 56 00
        E 0 80 4a 00
        E 120 90 62 60
        E 0 90 56 60
        E 0 90 4a 60
        E 0 90 3e 60
        E 120 80 62 00
        E 0 80 56 00
        E 0 80 4a 00
        E 0 80 3e 00
        E 120 90 62 60
        E 0 90 56 60
        E 0 90 4a 60
        E 120 80 62 00
        E 0 80 56 00
        E 0 80 4a 00
        E 120 90 62 60
        E 0 90 56 60
        E 0 90 4a 60
        E 119 80 62 00
        E 0 80 56 00
        E 0 80 4a 00
        E 120 90 62 60
        E 0 90 56 60
        E 120 80 62 00
        E 0 80 56 00
        E 120 90 60 60
        E 0 90 54 60
        E 0 90 48 60
        E 0 90 3c 60
        E 120 80 60 00
        E 0 80 54 00
        E 0 80 48 00
        E 0 80 3c 00
        E 120 90 60 60
        E 0 90 54 60
        E 120 80 60 00
        E 0 80 54 00
        E 120 90 60 60
        E 0 90 54 60
        E 0 90 48 60
        E 120 80 60 00
        E 0 80 54 00
        E 0 80 48 00
        E 120 90 60 60
        E 0 90 54 60
        E 120 80 60 00
        E 0 80 54 00
        E 120 90 60 60
        E 0 90 54 60
        E 0 90 48 60
        E 0 90 3c 60
        E 120 80 60 00
        E 0 80 54 00
        E 0 80 48 00
        E 0 80 3c 00
        E 120 90 60 60
        E 0 90 54 60
        E 120 80 60 00
        E 0 80 54 00
        E 121 90 60 60
        E 0 90 54 60
        E 0 90 48 60
        E 120 80 60 00
        E 0 80 54 00
        E 0 80 48 00
        E 120 90 60 60
        E 0 90 54 60
        E 120 80 60 00
        E 0 80 54 00
        E 120 90 62 60
        E 0 90 56 60
        E 0 90 4a 60
        E 0 90 3e 60
        E 120 80 62 00
        E 0 80 56 00
        E 0 80 4a 00
        E 0 80 3e 00
        E 120 90 62 60
        E 0 90 56 60
        E 0 90 4a 60
        E 120 80 62 00
        E 0 80 56 00
        E 0 80 4a 00
        E 120 90 62 60
        E 0 90 56 60
        E 0 90 4a 60
        E 120 80 62 00
        E 0 80 56 00
        E 0 80 4a 00
        E 119 90 62 60
        E 0 90 56 60
        E 120 80 62 00
        E 0 80 56 00
        E 120 90 62 60
        E 0 90 56 60
        E 0 90 4a 60
        E 0 90 3e 60
        E 120 80 62 00
        E 0 80 56 00
        E 0 80 4a 00
        E 0 80 3e 00
        E 120 90 62 60
        E 0 90 56 60
        E 120 80 62 00
        E 0 80 56 00
        E 120 90 62 60
        E 0 90 56 60
        E 0 90 4a 60
        E 120 80 62 00
        E 0 80 56 00
        E 0 80 4a 00
        E 120 90 63 60
        E 0 90 57 60
        E 120 80 63 00
        E 0 80 57 00
        E 120 90 63 60
        E 0 90 57 60
        E 0 90 4b 60
        E 0 90 3e 60
        <X 5760 0
          /wFbaWRsZV9yZWFsdGltZV0=
        >
        E 0 80 63 00
        E 0 80 57 00
        E 0 80 4b 00
        E 0 80 3e 00
        E 3841 b0 7b 00
        GUID {B391B03F-0674-4DD0-9B2F-297B8F7723C2}
        IGNTEMPO 0 120.00000000 4 4
        SRCCOLOR 2
        VELLANE 132 71 60
        COLORMAP "C:\Program Files\REAPER\Data\color_maps\rockband_guitarbass.png"
        TEXTSTRINGFILE "C:\Program Files\REAPER\Data\Text_Strings\Text Events List - Instruments.txt"
        CFGEDITVIEW -20125.722510 4.063255 19 12 0 0 0
        CFGEDIT 1 1 0 1 1 0 1 1 1 1 1 0.12500000 -4 0 1025 558 0 2 1 1 0.00000000 0 1 0 0 0.500000 0 0 1.000000 64
        KEYSNAP 0 0 "102034050607" 0 "Major"
        EVTFILTER 0 -1 -1 -1 -1 0 1 0 0 -1.00000000 -1.00000000
      >
    >
  >
  <TRACK '{AE5B3E9F-478F-4264-B648-F83EB108A0C5}'
    NAME "PART REAL_BASS"
    PEAKCOL 16576
    BEAT -1
    AUTOMODE 0
    VOLPAN 1.00000000000000 0.00000000000000 -1.00000000000000 -1.00000000000000 1.00000000000000
    MUTESOLO 0 0 0
    IPHASE 0
    ISBUS 2 -1
    BUSCOMP 0 0
    SHOWINMIX 1 0.666700 0.500000 1 0.500000 -1 -1 -1
    FREEMODE 0
    SEL 0
    REC 0 0 0 0 0 0 0
    VU 2
    TRACKHEIGHT 0 0
    INQ 0 0 0 0.5000000000 100 0 0 100
    NCHAN 2
    FX 0
    TRACKID {AE5B3E9F-478F-4264-B648-F83EB108A0C5}
    PERF 0
    MIDIOUT -1
    <MIDINOTENAMES
      0 127 "Trill Marker"
      0 126 "Tremolo Marker"
      0 125 "BRE"
      0 124 "BRE"
      0 123 "BRE"
      0 122 "BRE"
      0 121 "BRE"
      0 120 "BRE (use all 6)"
      0 119 "-----------"
      0 116 "OVERDRIVE"
      0 115 "Solo Marker"
      0 109 "-----------"
      0 108 "Left Hand Position"
      0 107 "Force Chord Numbering"
      0 106 "Loose Strumming"
      0 105 "Strum Direction"
      0 104 "Arpeggio Marker"
      0 103 "Slide Marker"
      0 102 "Force HOPO"
      0 101 "EXPERT e String"
      0 100 "EXPERT B String"
      0 99 "EXPERT G String"
      0 98 "EXPERT D String"
      0 97 "EXPERT A String"
      0 96 "EXPERT E String"
      0 95 "-----------"
      0 82 "Loose Strumming"
      0 81 "Strum Direction"
      0 80 "Arpeggio Marker"
      0 79 "Slide Marker"
      0 78 "Force HOPO"
      0 77 "HARD e String"
      0 76 "HARD B String"
      0 75 "HARD G String"
      0 74 "HARD D String"
      0 73 "HARD A String"
      0 72 "HARD E String"
      0 71 "-----------"
      0 58 "Loose Strumming"
      0 56 "Arpeggio Marker"
      0 55 "Slide Marker"
      0 53 "MEDIUM e String"
      0 52 "MEDIUM B String"
      0 51 "MEDIUM G String"
      0 50 "MEDIUM D String"
      0 49 "MEDIUM A String"
      0 48 "MEDIUM E String"
      0 47 "-----------"
      0 32 "Arpeggio Marker"
      0 31 "Slide Marker"
      0 29 "EASY e String"
      0 28 "EASY B String"
      0 27 "EASY G String"
      0 26 "EASY D String"
      0 25 "EASY A String"
      0 24 "EASY E String"
      0 21 "-----------"
      0 18 "Flat/Sharp Swap"
      0 17 "Hide Chord Names"
      0 16 "Slash Chord"
      0 15 "D#"
      0 14 "D"
      0 13 "C#"
      0 12 "C"
      0 11 "B"
      0 10 "A#"
      0 9 "A"
      0 8 "G#"
      0 7 "G"
      0 6 "F#"
      0 5 "F"
      0 4 "E"
    >
    MAINSEND 1 0
    <FXCHAIN
      WNDRECT 0 38 647 451
      SHOW 0
      LASTSEL 1
      DOCKED 0
      BYPASS 0 0
      <JS "c3/progtr" ""
        0.000000 3.000000 0.000000 0.000000 0.000000 0.000000 0.000000 0.000000 0.000000 1.000000 - - - - - - - - - - - - - - - - - - - - - - - - - - - - - - - - - - - - - - - - - - - - - - - - - - - - - - 
      >
      FLOATPOS 0 0 0 0
      FXID {D62F7A3C-A07B-4084-9C8B-358FA356CF91}
      WAK 0
      BYPASS 0 0
      <VST "VSTi: ReaSynth (Cockos)" "reasynth.dll" 0 ""
        eXNlcu9e7f4AAAAAAgAAAAEAAAAAAAAAAgAAAAAAAAA4AAAAAAAAAA==
        AAAQAO++rd4N8K3eppvEO5xoHT6HFlk/AAAAAAAAAABlj8o94jAEPA==
        AAAAAAAAAD+01hM+j8L1PQAAAD8AABAAAAA=
      >
      FLOATPOS 0 0 0 0
      FXID {8D19B68C-5059-4BDF-896C-924CC08EF59E}
      WAK 0
    >
    <ITEM
      POSITION 0.00000000000000
      SNAPOFFS 0.00000000000000
      LENGTH 194.42541950113377
      LOOP 0
      ALLTAKES 0
      SEL 0
      FADEIN 1 0.000000 0.000000 1 0
      FADEOUT 1 0.000000 0.000000 1 0
      MUTE 0
      IGUID {F2DFC4E8-E0B2-4F35-A1E5-4C6A965F7025}
      IID 3
      NAME "PART REAL_BASS"
      VOLPAN 1.000000 0.000000 1.000000 -1.000000
      SOFFS 0.00000000000000 0.00000000000000
      PLAYRATE 1.00000000000000 1 0.00000000000000 -1
      CHANMODE 0
      GUID {659572C5-B05B-4C5C-8162-ECCB4ADC4F86}
      <SOURCE MIDI
        HASDATA 1 480 QN
        POOLEDEVTS {EBB6A447-5C0F-4348-96DA-A8ABB1A2F54F}
        <X 0 0
          /wNQQVJUIFJFQUxfQkFTUw==
        >
        E 5760 90 18 68
        E 0 90 30 68
        E 0 90 48 68
        E 0 90 60 68
        E 0 90 6c 66
        E 120 80 6c 00
        E 360 80 18 00
        E 0 80 30 00
        E 360 80 48 00
        E 0 80 60 00
        E 120 90 18 68
        E 0 90 30 68
        E 0 90 48 68
        E 0 90 60 68
        E 480 80 18 00
        E 0 80 30 00
        E 360 80 48 00
        E 0 80 60 00
        E 120 90 18 68
        E 0 90 30 68
        E 0 90 48 68
        E 0 90 60 68
        E 120 80 18 00
        E 0 80 30 00
        E 480 80 48 00
        E 0 80 60 00
        E 120 90 31 66
        E 0 90 49 66
        E 0 90 4f 64
        E 0 90 61 66
        E 0 90 67 64
        E 120 80 31 00
        E 0 80 49 00
        E 0 80 4f 00
        E 0 80 61 00
        E 0 80 67 00
        E 120 90 19 68
        E 0 90 1e 64
        E 0 90 31 68
        E 0 90 36 64
        E 0 90 49 68
        E 0 90 4e 64
        E 0 90 61 68
        E 0 90 66 64
        E 120 80 19 00
        E 0 80 1e 00
        E 0 80 31 00
        E 0 80 36 00
        E 0 80 49 00
        E 0 80 4e 00
        E 0 80 61 00
        E 0 80 66 00
        E 360 90 30 69
        E 0 90 48 69
        E 0 90 60 69
        E 120 80 30 00
        E 0 80 48 00
        E 0 80 60 00
        E 360 90 18 68
        E 0 90 30 68
        E 0 90 48 68
        E 0 90 60 68
        E 480 80 18 00
        E 0 80 30 00
        E 360 80 48 00
        E 0 80 60 00
        E 120 90 18 68
        E 0 90 30 68
        E 0 90 48 68
        E 0 90 60 68
        E 480 80 18 00
        E 0 80 30 00
        E 360 80 48 00
        E 0 80 60 00
        E 120 90 18 68
        E 0 90 30 68
        E 0 90 48 68
        E 0 90 60 68
        E 120 80 18 00
        E 0 80 30 00
        E 480 80 48 00
        E 0 80 60 00
        <X 120 0
          /wFbYmVnaW5fcGIgc29uZ190cmFpbmVyX3BiXzFd
        >
        E 0 90 31 66
        E 0 90 49 66
        E 0 90 4f 64
        E 0 90 61 66
        E 0 90 67 64
        E 120 80 31 00
        E 0 80 49 00
        E 0 80 4f 00
        E 0 80 61 00
        E 0 80 67 00
        E 120 90 19 68
        E 0 90 1e 64
        E 0 90 31 68
        E 0 90 36 64
        E 0 90 49 68
        E 0 90 4e 64
        E 0 90 61 68
        E 0 90 66 64
        E 120 80 19 00
        E 0 80 1e 00
        E 0 80 31 00
        E 0 80 36 00
        E 0 80 49 00
        E 0 80 4e 00
        E 0 80 61 00
        E 0 80 66 00
        E 360 90 30 69
        E 0 90 48 69
        E 0 90 60 69
        E 120 80 30 00
        E 0 80 48 00
        E 0 80 60 00
        <X 120 0
          /wFbcGJfbm9ybSBzb25nX3RyYWluZXJfcGJfMV0=
        >
        E 240 90 18 68
        E 0 90 30 68
        E 0 90 48 68
        E 0 90 60 68
        E 480 80 18 00
        E 0 80 30 00
        E 360 80 48 00
        E 0 80 60 00
        E 120 90 18 68
        E 0 90 30 68
        E 0 90 48 68
        E 0 90 60 68
        E 480 80 18 00
        E 0 80 30 00
        E 360 80 48 00
        E 0 80 60 00
        E 120 90 18 68
        E 0 90 30 68
        E 0 90 48 68
        E 0 90 60 68
        E 120 80 18 00
        E 0 80 30 00
        E 480 80 48 00
        E 0 80 60 00
        <X 120 0
          /wFbZW5kX3BiIHNvbmdfdHJhaW5lcl9wYl8xXQ==
        >
        E 0 90 31 66
        E 0 90 49 66
        E 0 90 4f 64
        E 0 90 61 66
        E 0 90 67 64
        E 120 80 31 00
        E 0 80 49 00
        E 0 80 4f 00
        E 0 80 61 00
        E 0 80 67 00
        E 120 90 19 68
        E 0 90 1e 64
        E 0 90 31 68
        E 0 90 36 64
        E 0 90 49 68
        E 0 90 4e 64
        E 0 90 61 68
        E 0 90 66 64
        E 120 80 19 00
        E 0 80 1e 00
        E 0 80 31 00
        E 0 80 36 00
        E 0 80 49 00
        E 0 80 4e 00
        E 0 80 61 00
        E 0 80 66 00
        E 360 90 30 69
        E 0 90 48 69
        E 0 90 60 69
        E 120 80 30 00
        E 0 80 48 00
        E 0 80 60 00
        E 360 90 18 68
        E 0 90 30 68
        E 0 90 48 68
        E 0 90 60 68
        E 480 80 18 00
        E 0 80 30 00
        E 360 80 48 00
        E 0 80 60 00
        E 120 90 18 68
        E 0 90 30 68
        E 0 90 48 68
        E 0 90 60 68
        E 480 80 18 00
        E 0 80 30 00
        E 360 80 48 00
        E 0 80 60 00
        E 120 90 18 68
        E 0 90 30 68
        E 0 90 48 68
        E 0 90 60 68
        E 0 90 74 64
        E 120 80 18 00
        E 0 80 30 00
        E 480 80 48 00
        E 0 80 60 00
        E 120 90 31 66
        E 0 90 49 66
        E 0 90 4f 64
        E 0 90 61 66
        E 0 90 67 64
        E 120 80 31 00
        E 0 80 49 00
        E 0 80 4f 00
        E 0 80 61 00
        E 0 80 67 00
        E 120 90 19 68
        E 0 90 1e 64
        E 0 90 31 68
        E 0 90 36 64
        E 0 90 49 68
        E 0 90 4e 64
        E 0 90 61 68
        E 0 90 66 64
        E 120 80 19 00
        E 0 80 1e 00
        E 0 80 31 00
        E 0 80 36 00
        E 0 80 49 00
        E 0 80 4e 00
        E 0 80 61 00
        E 0 80 66 00
        E 360 90 30 69
        E 0 90 48 69
        E 0 90 60 69
        E 120 80 30 00
        E 0 80 48 00
        E 0 80 60 00
        E 120 90 48 66
        E 0 90 60 66
        E 120 80 48 00
        E 0 80 60 00
        E 120 90 18 68
        E 0 90 30 68
        E 0 90 48 68
        E 0 90 60 68
        E 120 80 74 00
        E 360 80 18 00
        E 0 80 30 00
        E 120 80 48 00
        E 0 80 60 00
        E 120 90 48 66
        E 0 90 60 66
        E 120 80 48 00
        E 0 80 60 00
        E 120 90 18 68
        E 0 90 30 68
        E 0 90 48 68
        E 0 90 60 68
        E 480 80 18 00
        E 0 80 30 00
        E 120 80 48 00
        E 0 80 60 00
        E 120 90 48 66
        E 0 90 60 66
        E 120 80 48 00
        E 0 80 60 00
        E 120 90 18 68
        E 0 90 30 68
        E 0 90 48 68
        E 0 90 60 68
        E 120 80 18 00
        E 0 80 30 00
        E 480 80 48 00
        E 0 80 60 00
        E 120 90 31 66
        E 0 90 49 66
        E 0 90 4f 64
        E 0 90 61 66
        E 0 90 67 64
        E 120 80 31 00
        E 0 80 49 00
        E 0 80 4f 00
        E 0 80 61 00
        E 0 80 67 00
        E 120 90 19 68
        E 0 90 1e 64
        E 0 90 31 68
        E 0 90 36 64
        E 0 90 49 68
        E 0 90 4e 64
        E 0 90 61 68
        E 0 90 66 64
        E 120 80 19 00
        E 0 80 1e 00
        E 0 80 31 00
        E 0 80 36 00
        E 0 80 49 00
        E 0 80 4e 00
        E 0 80 61 00
        E 0 80 66 00
        E 360 90 30 69
        E 0 90 48 69
        E 0 90 60 69
        E 120 80 30 00
        E 0 80 48 00
        E 0 80 60 00
        E 360 90 18 68
        E 0 90 30 68
        E 0 90 48 68
        E 0 90 60 68
        E 480 80 18 00
        E 0 80 30 00
        E 120 80 48 00
        E 0 80 60 00
        E 120 90 48 66
        E 0 90 60 66
        E 120 80 48 00
        E 0 80 60 00
        E 120 90 18 68
        E 0 90 30 68
        E 0 90 48 68
        E 0 90 60 68
        E 480 80 18 00
        E 0 80 30 00
        E 120 80 48 00
        E 0 80 60 00
        E 120 90 48 66
        E 0 90 60 66
        E 120 80 48 00
        E 0 80 60 00
        E 120 90 18 68
        E 0 90 30 68
        E 0 90 48 68
        E 0 90 60 68
        E 120 80 18 00
        E 0 80 30 00
        E 480 80 48 00
        E 0 80 60 00
        E 120 90 31 66
        E 0 90 49 66
        E 0 90 4f 64
        E 0 90 61 66
        E 0 90 67 64
        E 120 80 31 00
        E 0 80 49 00
        E 0 80 4f 00
        E 0 80 61 00
        E 0 80 67 00
        E 120 90 19 68
        E 0 90 1e 64
        E 0 90 31 68
        E 0 90 36 64
        E 0 90 49 68
        E 0 90 4e 64
        E 0 90 61 68
        E 0 90 66 64
        E 120 80 19 00
        E 0 80 1e 00
        E 0 80 31 00
        E 0 80 36 00
        E 0 80 49 00
        E 0 80 4e 00
        E 0 80 61 00
        E 0 80 66 00
        E 360 90 30 69
        E 0 90 48 69
        E 0 90 60 69
        E 120 80 30 00
        E 0 80 48 00
        E 0 80 60 00
        E 120 90 48 66
        E 0 90 60 66
        E 120 80 48 00
        E 0 80 60 00
        E 120 90 18 68
        E 0 90 30 68
        E 0 90 48 68
        E 0 90 60 68
        E 480 80 18 00
        E 0 80 30 00
        E 120 80 48 00
        E 0 80 60 00
        E 120 90 48 66
        E 0 90 60 66
        E 120 80 48 00
        E 0 80 60 00
        E 120 90 18 68
        E 0 90 30 68
        E 0 90 48 68
        E 0 90 60 68
        E 480 80 18 00
        E 0 80 30 00
        E 120 80 48 00
        E 0 80 60 00
        E 120 90 48 66
        E 0 90 60 66
        E 120 80 48 00
        E 0 80 60 00
        E 120 90 18 68
        E 0 90 30 68
        E 0 90 48 68
        E 0 90 60 68
        E 120 80 18 00
        E 0 80 30 00
        E 480 80 48 00
        E 0 80 60 00
        E 120 90 31 66
        E 0 90 49 66
        E 0 90 4f 64
        E 0 90 61 66
        E 0 90 67 64
        E 120 80 31 00
        E 0 80 49 00
        E 0 80 4f 00
        E 0 80 61 00
        E 0 80 67 00
        E 120 90 19 68
        E 0 90 1e 64
        E 0 90 31 68
        E 0 90 36 64
        E 0 90 49 68
        E 0 90 4e 64
        E 0 90 61 68
        E 0 90 66 64
        E 120 80 19 00
        E 0 80 1e 00
        E 0 80 31 00
        E 0 80 36 00
        E 0 80 49 00
        E 0 80 4e 00
        E 0 80 61 00
        E 0 80 66 00
        E 360 90 30 69
        E 0 90 48 69
        E 0 90 60 69
        E 120 80 30 00
        E 0 80 48 00
        E 0 80 60 00
        E 360 90 18 68
        E 0 90 30 68
        E 0 90 48 68
        E 0 90 60 68
        E 480 80 18 00
        E 0 80 30 00
        E 120 80 48 00
        E 0 80 60 00
        E 120 90 48 66
        E 0 90 60 66
        E 120 80 48 00
        E 0 80 60 00
        E 120 90 18 68
        E 0 90 30 68
        E 0 90 48 68
        E 0 90 60 68
        E 480 80 18 00
        E 0 80 30 00
        E 120 80 48 00
        E 0 80 60 00
        E 120 90 48 66
        E 0 90 60 66
        E 120 80 48 00
        E 0 80 60 00
        E 120 90 18 68
        E 0 90 30 68
        E 0 90 48 68
        E 0 90 60 68
        E 120 80 18 00
        E 0 80 30 00
        E 360 90 74 64
        E 120 80 48 00
        E 0 80 60 00
        E 120 90 31 66
        E 0 90 49 66
        E 0 90 4f 64
        E 0 90 61 66
        E 0 90 67 64
        E 120 80 31 00
        E 0 80 49 00
        E 0 80 4f 00
        E 0 80 61 00
        E 0 80 67 00
        E 120 90 19 68
        E 0 90 1e 64
        E 0 90 31 68
        E 0 90 36 64
        E 0 90 49 68
        E 0 90 4e 64
        E 0 90 61 68
        E 0 90 66 64
        E 120 80 19 00
        E 0 80 1e 00
        E 0 80 31 00
        E 0 80 36 00
        E 0 80 49 00
        E 0 80 4e 00
        E 0 80 61 00
        E 0 80 66 00
        E 360 90 30 68
        E 0 90 48 68
        E 0 90 60 68
        E 120 80 30 00
        E 0 80 48 00
        E 0 80 60 00
        E 360 90 18 69
        E 0 90 30 69
        E 0 90 48 69
        E 0 90 60 69
        E 120 80 74 00
        E 2040 80 18 00
        E 0 80 30 00
        E 240 80 48 00
        E 0 80 60 00
        E 240 90 31 66
        E 0 90 49 66
        E 0 90 4f 64
        E 0 90 61 66
        E 0 90 67 64
        E 120 80 31 00
        E 0 80 49 00
        E 0 80 4f 00
        E 0 80 61 00
        E 0 80 67 00
        E 120 90 19 68
        E 0 90 1e 64
        E 0 90 31 68
        E 0 90 36 64
        E 0 90 49 68
        E 0 90 4e 64
        E 0 90 61 68
        E 0 90 66 64
        E 120 80 19 00
        E 0 80 1e 00
        E 0 80 31 00
        E 0 80 36 00
        E 0 80 49 00
        E 0 80 4e 00
        E 0 80 61 00
        E 0 80 66 00
        E 360 90 31 64
        E 0 90 49 64
        E 0 90 61 64
        E 120 80 31 00
        E 0 80 49 00
        E 0 80 61 00
        E 360 90 19 66
        E 0 90 31 66
        E 0 90 49 66
        E 0 90 61 66
        E 3360 80 19 00
        E 0 80 31 00
        E 0 80 49 00
        E 0 80 61 00
        <X 480 0
          /wFbYmVnaW5fcGIgc29uZ190cmFpbmVyX3BiXzJd
        >
        E 0 90 19 68
        E 0 90 31 68
        E 0 90 49 68
        E 0 90 61 68
        E 120 80 19 00
        E 0 80 31 00
        E 0 80 49 00
        E 0 80 61 00
        E 120 90 31 68
        E 0 90 49 68
        E 0 90 61 68
        E 120 80 31 00
        E 0 80 49 00
        E 0 80 61 00
        E 120 90 19 68
        E 0 90 31 68
        E 0 90 49 68
        E 0 90 61 68
        E 120 80 19 00
        E 0 80 31 00
        E 0 80 49 00
        E 0 80 61 00
        E 120 90 31 68
        E 0 90 49 68
        E 0 90 61 68
        E 120 80 31 00
        E 0 80 49 00
        E 0 80 61 00
        E 120 90 19 68
        E 0 90 31 68
        E 0 90 49 68
        E 0 90 61 68
        E 120 80 19 00
        E 0 80 31 00
        E 0 80 49 00
        E 0 80 61 00
        E 120 90 31 68
        E 0 90 49 68
        E 0 90 61 68
        E 120 80 31 00
        E 0 80 49 00
        E 0 80 61 00
        E 120 90 19 68
        E 0 90 31 68
        E 0 90 49 68
        E 0 90 61 68
        E 120 80 19 00
        E 0 80 31 00
        E 0 80 49 00
        E 0 80 61 00
        E 120 90 31 68
        E 0 90 49 68
        E 0 90 61 68
        E 120 80 31 00
        E 0 80 49 00
        E 0 80 61 00
        <X 120 0
          /wFbcGJfbm9ybSBzb25nX3RyYWluZXJfcGJfMl0=
        >
        E 0 90 19 68
        E 0 90 31 68
        E 0 90 49 68
        E 0 90 61 68
        E 120 80 19 00
        E 0 80 31 00
        E 0 80 49 00
        E 0 80 61 00
        E 120 90 31 68
        E 0 90 49 68
        E 0 90 61 68
        E 120 80 31 00
        E 0 80 49 00
        E 0 80 61 00
        E 120 90 19 68
        E 0 90 31 68
        E 0 90 49 68
        E 0 90 61 68
        E 120 80 19 00
        E 0 80 31 00
        E 0 80 49 00
        E 0 80 61 00
        E 120 90 31 68
        E 0 90 49 68
        E 0 90 61 68
        E 120 80 31 00
        E 0 80 49 00
        E 0 80 61 00
        E 120 90 61 68
        E 0 90 19 68
        E 0 90 31 68
        E 0 90 49 68
        E 120 80 61 00
        E 0 80 19 00
        E 0 80 31 00
        E 0 80 49 00
        E 120 90 31 68
        E 0 90 49 68
        E 0 90 61 68
        E 120 80 31 00
        E 0 80 49 00
        E 0 80 61 00
        E 120 90 31 68
        E 0 90 49 68
        E 0 90 61 68
        E 120 80 31 00
        E 0 80 49 00
        E 0 80 61 00
        E 120 90 49 68
        E 0 90 61 68
        E 120 80 49 00
        E 0 80 61 00
        E 120 90 61 64
        E 0 90 19 64
        E 0 90 31 64
        E 0 90 49 64
        E 120 80 61 00
        E 0 80 19 00
        E 0 80 31 00
        E 0 80 49 00
        E 120 90 61 64
        E 0 90 31 64
        E 0 90 49 64
        E 120 80 61 00
        E 0 80 31 00
        E 0 80 49 00
        E 120 90 61 64
        E 0 90 19 64
        E 0 90 31 64
        E 0 90 49 64
        E 120 80 61 00
        E 0 80 19 00
        E 0 80 31 00
        E 0 80 49 00
        E 120 90 61 64
        E 0 90 31 64
        E 0 90 49 64
        E 120 80 61 00
        E 0 80 31 00
        E 0 80 49 00
        E 120 90 61 64
        E 0 90 19 64
        E 0 90 31 64
        E 0 90 49 64
        E 120 80 61 00
        E 0 80 19 00
        E 0 80 31 00
        E 0 80 49 00
        E 120 90 61 64
        E 0 90 31 64
        E 0 90 49 64
        E 120 80 61 00
        E 0 80 31 00
        E 0 80 49 00
        E 120 90 19 64
        E 0 90 31 64
        E 0 90 49 64
        E 0 90 61 64
        E 120 80 19 00
        E 0 80 31 00
        E 0 80 49 00
        E 0 80 61 00
        E 120 90 31 64
        E 0 90 49 64
        E 0 90 61 64
        E 120 80 31 00
        E 0 80 49 00
        E 0 80 61 00
        E 120 90 19 64
        E 0 90 31 64
        E 0 90 49 64
        E 0 90 61 64
        E 120 80 19 00
        E 0 80 31 00
        E 0 80 49 00
        E 0 80 61 00
        E 120 90 31 64
        E 0 90 49 64
        E 0 90 61 64
        E 120 80 31 00
        E 0 80 49 00
        E 0 80 61 00
        E 120 90 61 64
        E 0 90 19 64
        E 0 90 31 64
        E 0 90 49 64
        E 120 80 61 00
        E 0 80 19 00
        E 0 80 31 00
        E 0 80 49 00
        E 120 90 61 64
        E 0 90 31 64
        E 0 90 49 64
        E 120 80 61 00
        E 0 80 31 00
        E 0 80 49 00
        E 120 90 61 64
        E 0 90 19 64
        E 0 90 31 64
        E 0 90 49 64
        E 120 80 61 00
        E 0 80 19 00
        E 0 80 31 00
        E 0 80 49 00
        E 120 90 61 64
        E 0 90 31 64
        E 0 90 49 64
        E 120 80 61 00
        E 0 80 31 00
        E 0 80 49 00
        E 120 90 61 64
        E 0 90 31 64
        E 0 90 49 64
        E 120 80 61 00
        E 0 80 31 00
        E 0 80 49 00
        E 120 90 49 66
        E 0 90 4f 64
        E 0 90 61 66
        E 0 90 67 64
        E 120 80 49 00
        E 0 80 4f 00
        E 60 80 61 00
        E 0 80 67 00
        <X 60 0
          /wFbZW5kX3BiIHNvbmdfdHJhaW5lcl9wYl8yXQ==
        >
        E 0 90 19 68
        E 0 90 31 68
        E 0 90 49 68
        E 0 90 61 68
        E 120 80 19 00
        E 0 80 31 00
        E 0 80 49 00
        E 0 80 61 00
        E 120 90 31 68
        E 0 90 49 68
        E 0 90 61 68
        E 120 80 31 00
        E 0 80 49 00
        E 0 80 61 00
        E 120 90 19 68
        E 0 90 31 68
        E 0 90 49 68
        E 0 90 61 68
        E 120 80 19 00
        E 0 80 31 00
        E 0 80 49 00
        E 0 80 61 00
        E 120 90 31 68
        E 0 90 49 68
        E 0 90 61 68
        E 120 80 31 00
        E 0 80 49 00
        E 0 80 61 00
        E 120 90 61 68
        E 0 90 19 68
        E 0 90 31 68
        E 0 90 49 68
        E 120 80 61 00
        E 0 80 19 00
        E 0 80 31 00
        E 0 80 49 00
        E 120 90 61 68
        E 0 90 31 68
        E 0 90 49 68
        E 120 80 61 00
        E 0 80 31 00
        E 0 80 49 00
        E 120 90 61 68
        E 0 90 19 68
        E 0 90 31 68
        E 0 90 49 68
        E 120 80 61 00
        E 0 80 19 00
        E 0 80 31 00
        E 0 80 49 00
        E 120 90 61 68
        E 0 90 31 68
        E 0 90 49 68
        E 120 80 61 00
        E 0 80 31 00
        E 0 80 49 00
        E 120 90 19 68
        E 0 90 31 68
        E 0 90 49 68
        E 0 90 61 68
        E 0 90 74 64
        E 120 80 19 00
        E 0 80 31 00
        E 0 80 49 00
        E 0 80 61 00
        E 120 90 31 68
        E 0 90 49 68
        E 0 90 61 68
        E 120 80 31 00
        E 0 80 49 00
        E 0 80 61 00
        E 120 90 19 68
        E 0 90 31 68
        E 0 90 49 68
        E 0 90 61 68
        E 120 80 19 00
        E 0 80 31 00
        E 0 80 49 00
        E 0 80 61 00
        E 120 90 31 68
        E 0 90 49 68
        E 0 90 61 68
        E 120 80 31 00
        E 0 80 49 00
        E 0 80 61 00
        E 120 90 19 68
        E 0 90 31 68
        E 0 90 49 68
        E 0 90 61 68
        E 120 80 19 00
        E 0 80 31 00
        E 0 80 49 00
        E 0 80 61 00
        E 120 90 61 68
        E 0 90 31 68
        E 0 90 49 68
        E 120 80 61 00
        E 0 80 31 00
        E 0 80 49 00
        E 120 90 61 68
        E 0 90 31 68
        E 0 90 49 68
        E 120 80 61 00
        E 0 80 31 00
        E 0 80 49 00
        E 120 90 61 68
        E 0 90 67 64
        E 0 90 49 68
        E 0 90 4f 64
        E 120 80 49 00
        E 0 80 4f 00
        E 60 80 61 00
        E 0 80 67 00
        E 60 90 61 64
        E 0 90 19 64
        E 0 90 31 64
        E 0 90 49 64
        E 120 80 74 00
        E 0 80 61 00
        E 0 80 19 00
        E 0 80 31 00
        E 0 80 49 00
        E 120 90 31 64
        E 0 90 49 64
        E 0 90 61 64
        E 120 80 31 00
        E 0 80 49 00
        E 0 80 61 00
        E 120 90 19 64
        E 0 90 31 64
        E 0 90 49 64
        E 0 90 61 64
        E 120 80 19 00
        E 0 80 31 00
        E 0 80 49 00
        E 0 80 61 00
        E 120 90 31 64
        E 0 90 49 64
        E 0 90 61 64
        E 120 80 31 00
        E 0 80 49 00
        E 0 80 61 00
        E 120 90 19 64
        E 0 90 31 64
        E 0 90 49 64
        E 0 90 61 64
        E 120 80 19 00
        E 0 80 31 00
        E 0 80 49 00
        E 0 80 61 00
        E 120 90 31 64
        E 0 90 49 64
        E 0 90 61 64
        E 120 80 31 00
        E 0 80 49 00
        E 0 80 61 00
        E 120 90 19 64
        E 0 90 31 64
        E 0 90 49 64
        E 0 90 61 64
        E 120 80 19 00
        E 0 80 31 00
        E 0 80 49 00
        E 0 80 61 00
        E 120 90 61 64
        E 0 90 31 64
        E 0 90 49 64
        E 120 80 61 00
        E 0 80 31 00
        E 0 80 49 00
        E 120 90 61 64
        E 0 90 19 64
        E 0 90 31 64
        E 0 90 49 64
        E 120 80 61 00
        E 0 80 19 00
        E 0 80 31 00
        E 0 80 49 00
        E 120 90 61 64
        E 0 90 31 64
        E 0 90 49 64
        E 120 80 61 00
        E 0 80 31 00
        E 0 80 49 00
        E 120 90 19 64
        E 0 90 31 64
        E 0 90 49 64
        E 0 90 61 64
        E 120 80 19 00
        E 0 80 31 00
        E 0 80 49 00
        E 0 80 61 00
        E 120 90 31 64
        E 0 90 49 64
        E 0 90 61 64
        E 120 80 31 00
        E 0 80 49 00
        E 0 80 61 00
        E 120 90 19 64
        E 0 90 31 64
        E 0 90 49 64
        E 0 90 61 64
        E 120 80 19 00
        E 0 80 31 00
        E 0 80 49 00
        E 0 80 61 00
        E 120 90 31 64
        E 0 90 49 64
        E 0 90 61 64
        E 120 80 31 00
        E 0 80 49 00
        E 0 80 61 00
        E 120 90 31 64
        E 0 90 49 64
        E 0 90 61 64
        E 120 80 31 00
        E 0 80 49 00
        E 0 80 61 00
        E 120 90 49 64
        E 0 90 61 64
        E 120 80 49 00
        E 0 80 61 00
        E 120 90 61 66
        E 0 90 19 66
        E 0 90 31 66
        E 0 90 49 66
        E 120 80 61 00
        E 0 80 19 00
        E 0 80 31 00
        E 0 80 49 00
        E 120 90 61 66
        E 0 90 31 66
        E 0 90 49 66
        E 120 80 61 00
        E 0 80 31 00
        E 0 80 49 00
        E 120 90 61 66
        E 0 90 19 66
        E 0 90 31 66
        E 0 90 49 66
        E 120 80 61 00
        E 0 80 19 00
        E 0 80 31 00
        E 0 80 49 00
        E 120 90 31 66
        E 0 90 49 66
        E 0 90 61 66
        E 120 80 31 00
        E 0 80 49 00
        E 0 80 61 00
        E 120 90 61 66
        E 0 90 19 66
        E 0 90 31 66
        E 0 90 49 66
        E 120 80 61 00
        E 0 80 19 00
        E 0 80 31 00
        E 0 80 49 00
        E 120 90 31 66
        E 0 90 49 66
        E 0 90 61 66
        E 120 80 31 00
        E 0 80 49 00
        E 0 80 61 00
        E 120 90 31 66
        E 0 90 49 66
        E 0 90 61 66
        E 120 80 31 00
        E 0 80 49 00
        E 0 80 61 00
        E 120 90 49 66
        E 0 90 61 66
        E 120 80 49 00
        E 0 80 61 00
        E 120 90 19 64
        E 0 90 31 64
        E 0 90 49 64
        E 0 90 61 64
        E 120 80 19 00
        E 0 80 31 00
        E 0 80 49 00
        E 0 80 61 00
        E 120 90 31 64
        E 0 90 49 64
        E 0 90 61 64
        E 120 80 31 00
        E 0 80 49 00
        E 0 80 61 00
        E 120 90 19 64
        E 0 90 31 64
        E 0 90 49 64
        E 0 90 61 64
        E 120 80 19 00
        E 0 80 31 00
        E 0 80 49 00
        E 0 80 61 00
        E 120 90 31 64
        E 0 90 49 64
        E 0 90 61 64
        E 120 80 31 00
        E 0 80 49 00
        E 0 80 61 00
        E 120 90 19 64
        E 0 90 31 64
        E 0 90 49 64
        E 0 90 61 64
        E 120 80 19 00
        E 0 80 31 00
        E 0 80 49 00
        E 0 80 61 00
        E 120 90 31 64
        E 0 90 49 64
        E 0 90 61 64
        E 120 80 31 00
        E 0 80 49 00
        E 0 80 61 00
        E 120 90 31 64
        E 0 90 49 64
        E 0 90 61 64
        E 120 80 31 00
        E 0 80 49 00
        E 0 80 61 00
        E 120 90 49 64
        E 0 90 61 64
        E 120 80 49 00
        E 0 80 61 00
        E 120 90 19 66
        E 0 90 31 66
        E 0 90 49 66
        E 0 90 61 66
        E 120 80 19 00
        E 0 80 31 00
        E 0 80 49 00
        E 0 80 61 00
        E 120 90 31 66
        E 0 90 49 66
        E 0 90 61 66
        E 120 80 31 00
        E 0 80 49 00
        E 0 80 61 00
        E 120 90 19 66
        E 0 90 31 66
        E 0 90 49 66
        E 0 90 61 66
        E 120 80 19 00
        E 0 80 31 00
        E 0 80 49 00
        E 0 80 61 00
        E 120 90 31 66
        E 0 90 49 66
        E 0 90 61 66
        E 120 80 31 00
        E 0 80 49 00
        E 0 80 61 00
        E 120 90 19 66
        E 0 90 31 66
        E 0 90 49 66
        E 0 90 61 66
        E 120 80 19 00
        E 0 80 31 00
        E 0 80 49 00
        E 0 80 61 00
        E 120 90 31 66
        E 0 90 49 66
        E 0 90 61 66
        E 120 80 31 00
        E 0 80 49 00
        E 0 80 61 00
        E 120 90 31 66
        E 0 90 49 66
        E 0 90 61 66
        E 120 80 31 00
        E 0 80 49 00
        E 0 80 61 00
        E 120 90 49 66
        E 0 90 61 66
        E 120 80 49 00
        E 0 80 61 00
        E 120 90 19 64
        E 0 90 31 64
        E 0 90 49 64
        E 0 90 61 64
        E 2400 80 19 00
        E 0 80 31 00
        E 0 80 49 00
        E 0 80 61 00
        E 1440 90 18 68
        E 0 90 30 68
        E 0 90 48 68
        E 0 90 60 68
        E 480 80 18 00
        E 0 80 30 00
        E 360 80 48 00
        E 0 80 60 00
        E 120 90 60 68
        E 0 90 18 68
        E 0 90 30 68
        E 0 90 48 68
        E 480 80 18 00
        E 0 80 30 00
        E 360 80 60 00
        E 0 80 48 00
        E 120 90 18 68
        E 0 90 30 68
        E 0 90 48 68
        E 0 90 60 68
        E 120 80 18 00
        E 0 80 30 00
        E 480 80 48 00
        E 0 80 60 00
        E 120 90 61 66
        E 0 90 67 64
        E 0 90 31 66
        E 0 90 49 66
        E 0 90 4f 64
        E 120 80 61 00
        E 0 80 67 00
        E 0 80 31 00
        E 0 80 49 00
        E 0 80 4f 00
        E 120 90 19 68
        E 0 90 1e 64
        E 0 90 31 68
        E 0 90 36 64
        E 0 90 49 68
        E 0 90 4e 64
        E 0 90 61 68
        E 0 90 66 64
        E 120 80 19 00
        E 0 80 1e 00
        E 0 80 31 00
        E 0 80 36 00
        E 0 80 49 00
        E 0 80 4e 00
        E 0 80 61 00
        E 0 80 66 00
        E 360 90 30 69
        E 0 90 48 69
        E 0 90 60 69
        E 120 80 30 00
        E 0 80 48 00
        E 0 80 60 00
        E 360 90 18 68
        E 0 90 30 68
        E 0 90 48 68
        E 0 90 60 68
        E 480 80 18 00
        E 0 80 30 00
        E 360 80 48 00
        E 0 80 60 00
        E 120 90 18 68
        E 0 90 30 68
        E 0 90 48 68
        E 0 90 60 68
        E 480 80 18 00
        E 0 80 30 00
        E 360 80 48 00
        E 0 80 60 00
        E 120 90 18 68
        E 0 90 30 68
        E 0 90 48 68
        E 0 90 60 68
        E 120 80 18 00
        E 0 80 30 00
        E 480 80 48 00
        E 0 80 60 00
        E 120 90 31 66
        E 0 90 49 66
        E 0 90 4f 64
        E 0 90 61 66
        E 0 90 67 64
        E 120 80 31 00
        E 0 80 49 00
        E 0 80 4f 00
        E 0 80 61 00
        E 0 80 67 00
        E 120 90 19 68
        E 0 90 1e 64
        E 0 90 31 68
        E 0 90 36 64
        E 0 90 49 68
        E 0 90 4e 64
        E 0 90 61 68
        E 0 90 66 64
        E 120 80 19 00
        E 0 80 1e 00
        E 0 80 31 00
        E 0 80 36 00
        E 0 80 49 00
        E 0 80 4e 00
        E 0 80 61 00
        E 0 80 66 00
        E 360 90 30 69
        E 0 90 48 69
        E 0 90 60 69
        E 120 80 30 00
        E 0 80 48 00
        E 0 80 60 00
        E 360 90 18 68
        E 0 90 30 68
        E 0 90 48 68
        E 0 90 60 68
        E 480 80 18 00
        E 0 80 30 00
        E 360 80 48 00
        E 0 80 60 00
        E 120 90 18 68
        E 0 90 30 68
        E 0 90 48 68
        E 0 90 60 68
        E 480 80 18 00
        E 0 80 30 00
        E 360 80 48 00
        E 0 80 60 00
        E 120 90 60 68
        E 0 90 18 68
        E 0 90 30 68
        E 0 90 48 68
        E 120 80 18 00
        E 0 80 30 00
        E 480 80 60 00
        E 0 80 48 00
        E 120 90 31 66
        E 0 90 49 66
        E 0 90 4f 64
        E 0 90 61 66
        E 0 90 67 64
        E 120 80 31 00
        E 0 80 49 00
        E 0 80 4f 00
        E 0 80 61 00
        E 0 80 67 00
        E 120 90 61 68
        E 0 90 66 64
        E 0 90 19 68
        E 0 90 1e 64
        E 0 90 31 68
        E 0 90 36 64
        E 0 90 49 68
        E 0 90 4e 64
        E 120 80 61 00
        E 0 80 66 00
        E 0 80 19 00
        E 0 80 1e 00
        E 0 80 31 00
        E 0 80 36 00
        E 0 80 49 00
        E 0 80 4e 00
        E 360 90 30 69
        E 0 90 48 69
        E 0 90 60 69
        E 120 80 30 00
        E 0 80 48 00
        E 0 80 60 00
        E 360 90 18 68
        E 0 90 30 68
        E 0 90 48 68
        E 0 90 60 68
        E 480 80 18 00
        E 0 80 30 00
        E 360 80 48 00
        E 0 80 60 00
        E 120 90 18 68
        E 0 90 30 68
        E 0 90 48 68
        E 0 90 60 68
        E 480 80 18 00
        E 0 80 30 00
        E 360 80 48 00
        E 0 80 60 00
        E 120 90 18 68
        E 0 90 30 68
        E 0 90 48 68
        E 0 90 60 68
        E 0 90 74 64
        E 120 80 18 00
        E 0 80 30 00
        E 480 80 48 00
        E 0 80 60 00
        E 120 90 31 66
        E 0 90 49 66
        E 0 90 4f 64
        E 0 90 61 66
        E 0 90 67 64
        E 120 80 31 00
        E 0 80 49 00
        E 0 80 4f 00
        E 0 80 61 00
        E 0 80 67 00
        E 120 90 19 68
        E 0 90 1e 64
        E 0 90 31 68
        E 0 90 36 64
        E 0 90 49 68
        E 0 90 4e 64
        E 0 90 61 68
        E 0 90 66 64
        E 120 80 19 00
        E 0 80 1e 00
        E 0 80 31 00
        E 0 80 36 00
        E 0 80 49 00
        E 0 80 4e 00
        E 0 80 61 00
        E 0 80 66 00
        E 360 90 60 69
        E 0 90 30 69
        E 0 90 48 69
        E 120 80 60 00
        E 0 80 30 00
        E 0 80 48 00
        E 120 90 48 66
        E 0 90 60 66
        E 120 80 48 00
        E 0 80 60 00
        E 120 90 18 68
        E 0 90 30 68
        E 0 90 48 68
        E 0 90 60 68
        E 120 80 74 00
        E 360 80 18 00
        E 0 80 30 00
        E 120 80 48 00
        E 0 80 60 00
        E 120 90 48 66
        E 0 90 60 66
        E 120 80 48 00
        E 0 80 60 00
        E 120 90 18 68
        E 0 90 30 68
        E 0 90 48 68
        E 0 90 60 68
        E 480 80 18 00
        E 0 80 30 00
        E 120 80 48 00
        E 0 80 60 00
        E 120 90 48 66
        E 0 90 60 66
        E 120 80 48 00
        E 0 80 60 00
        E 120 90 18 68
        E 0 90 30 68
        E 0 90 48 68
        E 0 90 60 68
        E 120 80 18 00
        E 0 80 30 00
        E 480 80 48 00
        E 0 80 60 00
        E 120 90 31 66
        E 0 90 49 66
        E 0 90 4f 64
        E 0 90 61 66
        E 0 90 67 64
        E 120 80 31 00
        E 0 80 49 00
        E 0 80 4f 00
        E 0 80 61 00
        E 0 80 67 00
        E 120 90 61 68
        E 0 90 66 64
        E 0 90 19 68
        E 0 90 1e 64
        E 0 90 31 68
        E 0 90 36 64
        E 0 90 49 68
        E 0 90 4e 64
        E 120 80 61 00
        E 0 80 66 00
        E 0 80 19 00
        E 0 80 1e 00
        E 0 80 31 00
        E 0 80 36 00
        E 0 80 49 00
        E 0 80 4e 00
        E 360 90 30 69
        E 0 90 48 69
        E 0 90 60 69
        E 120 80 30 00
        E 0 80 48 00
        E 0 80 60 00
        E 360 90 18 68
        E 0 90 30 68
        E 0 90 48 68
        E 0 90 60 68
        E 480 80 18 00
        E 0 80 30 00
        E 120 80 48 00
        E 0 80 60 00
        E 120 90 60 66
        E 0 90 48 66
        E 120 80 60 00
        E 0 80 48 00
        E 120 90 60 68
        E 0 90 18 68
        E 0 90 30 68
        E 0 90 48 68
        E 480 80 18 00
        E 0 80 30 00
        E 120 80 60 00
        E 0 80 48 00
        E 120 90 60 66
        E 0 90 48 66
        E 120 80 60 00
        E 0 80 48 00
        E 120 90 60 68
        E 0 90 18 68
        E 0 90 30 68
        E 0 90 48 68
        E 120 80 18 00
        E 0 80 30 00
        E 480 80 60 00
        E 0 80 48 00
        E 120 90 61 66
        E 0 90 67 64
        E 0 90 31 66
        E 0 90 49 66
        E 0 90 4f 64
        E 120 80 61 00
        E 0 80 67 00
        E 0 80 31 00
        E 0 80 49 00
        E 0 80 4f 00
        E 120 90 61 68
        E 0 90 66 64
        E 0 90 19 68
        E 0 90 1e 64
        E 0 90 31 68
        E 0 90 36 64
        E 0 90 49 68
        E 0 90 4e 64
        E 120 80 61 00
        E 0 80 66 00
        E 0 80 19 00
        E 0 80 1e 00
        E 0 80 31 00
        E 0 80 36 00
        E 0 80 49 00
        E 0 80 4e 00
        E 360 90 60 69
        E 0 90 30 69
        E 0 90 48 69
        E 120 80 60 00
        E 0 80 30 00
        E 0 80 48 00
        E 120 90 60 66
        E 0 90 48 66
        E 120 80 60 00
        E 0 80 48 00
        E 120 90 60 68
        E 0 90 18 68
        E 0 90 30 68
        E 0 90 48 68
        E 480 80 18 00
        E 0 80 30 00
        E 120 80 60 00
        E 0 80 48 00
        E 120 90 48 66
        E 0 90 60 66
        E 120 80 48 00
        E 0 80 60 00
        E 120 90 60 68
        E 0 90 18 68
        E 0 90 30 68
        E 0 90 48 68
        E 480 80 18 00
        E 0 80 30 00
        E 120 80 60 00
        E 0 80 48 00
        E 120 90 48 66
        E 0 90 60 66
        E 120 80 48 00
        E 0 80 60 00
        E 120 90 60 68
        E 0 90 18 68
        E 0 90 30 68
        E 0 90 48 68
        E 120 80 18 00
        E 0 80 30 00
        E 480 80 60 00
        E 0 80 48 00
        E 120 90 61 66
        E 0 90 67 64
        E 0 90 31 66
        E 0 90 49 66
        E 0 90 4f 64
        E 120 80 61 00
        E 0 80 67 00
        E 0 80 31 00
        E 0 80 49 00
        E 0 80 4f 00
        E 120 90 19 68
        E 0 90 1e 64
        E 0 90 31 68
        E 0 90 36 64
        E 0 90 49 68
        E 0 90 4e 64
        E 0 90 61 68
        E 0 90 66 64
        E 120 80 19 00
        E 0 80 1e 00
        E 0 80 31 00
        E 0 80 36 00
        E 0 80 49 00
        E 0 80 4e 00
        E 0 80 61 00
        E 0 80 66 00
        E 360 90 30 69
        E 0 90 48 69
        E 0 90 60 69
        E 120 80 30 00
        E 0 80 48 00
        E 0 80 60 00
        E 120 90 60 66
        E 0 90 48 66
        E 120 80 60 00
        E 0 80 48 00
        E 120 90 18 68
        E 0 90 30 68
        E 0 90 48 68
        E 0 90 60 68
        E 480 80 18 00
        E 0 80 30 00
        E 120 80 48 00
        E 0 80 60 00
        E 120 90 60 66
        E 0 90 48 66
        E 120 80 60 00
        E 0 80 48 00
        E 120 90 60 68
        E 0 90 18 68
        E 0 90 30 68
        E 0 90 48 68
        E 480 80 18 00
        E 0 80 30 00
        E 120 80 60 00
        E 0 80 48 00
        E 120 90 48 66
        E 0 90 60 66
        E 120 80 48 00
        E 0 80 60 00
        E 120 90 60 68
        E 0 90 18 68
        E 0 90 30 68
        E 0 90 48 68
        E 120 80 18 00
        E 0 80 30 00
        E 480 80 60 00
        E 0 80 48 00
        E 120 90 61 66
        E 0 90 67 64
        E 0 90 31 66
        E 0 90 49 66
        E 0 90 4f 64
        E 120 80 61 00
        E 0 80 67 00
        E 0 80 31 00
        E 0 80 49 00
        E 0 80 4f 00
        E 120 90 19 68
        E 0 90 1e 64
        E 0 90 31 68
        E 0 90 36 64
        E 0 90 49 68
        E 0 90 4e 64
        E 0 90 61 68
        E 0 90 66 64
        E 120 80 19 00
        E 0 80 1e 00
        E 0 80 31 00
        E 0 80 36 00
        E 0 80 49 00
        E 0 80 4e 00
        E 0 80 61 00
        E 0 80 66 00
        E 360 90 30 68
        E 0 90 48 68
        E 0 90 60 68
        E 120 80 30 00
        E 0 80 48 00
        E 0 80 60 00
        E 360 90 18 69
        E 0 90 30 69
        E 0 90 48 69
        E 0 90 60 69
        E 2160 80 18 00
        E 0 80 30 00
        E 240 80 48 00
        E 0 80 60 00
        E 240 90 31 66
        E 0 90 49 66
        E 0 90 4f 64
        E 0 90 61 66
        E 0 90 67 64
        E 0 90 74 64
        E 120 80 31 00
        E 0 80 49 00
        E 0 80 4f 00
        E 0 80 61 00
        E 0 80 67 00
        E 120 90 61 68
        E 0 90 66 64
        E 0 90 19 68
        E 0 90 1e 64
        E 0 90 31 68
        E 0 90 36 64
        E 0 90 49 68
        E 0 90 4e 64
        E 120 80 61 00
        E 0 80 66 00
        E 0 80 19 00
        E 0 80 1e 00
        E 0 80 31 00
        E 0 80 36 00
        E 0 80 49 00
        E 0 80 4e 00
        E 360 90 61 64
        E 0 90 31 64
        E 0 90 49 64
        E 120 80 61 00
        E 0 80 31 00
        E 0 80 49 00
        E 360 90 61 66
        E 0 90 19 66
        E 0 90 31 66
        E 0 90 49 66
        E 120 80 74 00
        E 3240 80 61 00
        E 0 80 19 00
        E 0 80 31 00
        E 0 80 49 00
        E 480 90 61 68
        E 0 90 19 68
        E 0 90 31 68
        E 0 90 49 68
        E 120 80 61 00
        E 0 80 19 00
        E 0 80 31 00
        E 0 80 49 00
        E 120 90 61 68
        E 0 90 31 68
        E 0 90 49 68
        E 120 80 61 00
        E 0 80 31 00
        E 0 80 49 00
        E 120 90 19 68
        E 0 90 31 68
        E 0 90 49 68
        E 0 90 61 68
        E 120 80 19 00
        E 0 80 31 00
        E 0 80 49 00
        E 0 80 61 00
        E 120 90 61 68
        E 0 90 31 68
        E 0 90 49 68
        E 120 80 61 00
        E 0 80 31 00
        E 0 80 49 00
        E 120 90 19 68
        E 0 90 31 68
        E 0 90 49 68
        E 0 90 61 68
        E 120 80 19 00
        E 0 80 31 00
        E 0 80 49 00
        E 0 80 61 00
        E 120 90 61 68
        E 0 90 31 68
        E 0 90 49 68
        E 120 80 61 00
        E 0 80 31 00
        E 0 80 49 00
        E 120 90 19 68
        E 0 90 31 68
        E 0 90 49 68
        E 0 90 61 68
        E 120 80 19 00
        E 0 80 31 00
        E 0 80 49 00
        E 0 80 61 00
        E 120 90 31 68
        E 0 90 49 68
        E 0 90 61 68
        E 120 80 31 00
        E 0 80 49 00
        E 0 80 61 00
        E 120 90 19 68
        E 0 90 31 68
        E 0 90 49 68
        E 0 90 61 68
        E 120 80 19 00
        E 0 80 31 00
        E 0 80 49 00
        E 0 80 61 00
        E 120 90 61 68
        E 0 90 31 68
        E 0 90 49 68
        E 120 80 61 00
        E 0 80 31 00
        E 0 80 49 00
        E 120 90 61 68
        E 0 90 19 68
        E 0 90 31 68
        E 0 90 49 68
        E 120 80 61 00
        E 0 80 19 00
        E 0 80 31 00
        E 0 80 49 00
        E 120 90 31 68
        E 0 90 49 68
        E 0 90 61 68
        E 120 80 31 00
        E 0 80 49 00
        E 0 80 61 00
        E 120 90 61 68
        E 0 90 19 68
        E 0 90 31 68
        E 0 90 49 68
        E 120 80 61 00
        E 0 80 19 00
        E 0 80 31 00
        E 0 80 49 00
        E 120 90 31 68
        E 0 90 49 68
        E 0 90 61 68
        E 120 80 31 00
        E 0 80 49 00
        E 0 80 61 00
        E 120 90 31 68
        E 0 90 49 68
        E 0 90 61 68
        E 120 80 31 00
        E 0 80 49 00
        E 0 80 61 00
        E 120 90 49 68
        E 0 90 61 68
        E 120 80 49 00
        E 0 80 61 00
        E 120 90 61 64
        E 0 90 19 64
        E 0 90 31 64
        E 0 90 49 64
        E 120 80 61 00
        E 0 80 19 00
        E 0 80 31 00
        E 0 80 49 00
        E 120 90 31 64
        E 0 90 49 64
        E 0 90 61 64
        E 120 80 31 00
        E 0 80 49 00
        E 0 80 61 00
        E 120 90 19 64
        E 0 90 31 64
        E 0 90 49 64
        E 0 90 61 64
        E 120 80 19 00
        E 0 80 31 00
        E 0 80 49 00
        E 0 80 61 00
        E 120 90 61 64
        E 0 90 31 64
        E 0 90 49 64
        E 120 80 61 00
        E 0 80 31 00
        E 0 80 49 00
        E 120 90 19 64
        E 0 90 31 64
        E 0 90 49 64
        E 0 90 61 64
        E 120 80 19 00
        E 0 80 31 00
        E 0 80 49 00
        E 0 80 61 00
        E 120 90 61 64
        E 0 90 31 64
        E 0 90 49 64
        E 120 80 61 00
        E 0 80 31 00
        E 0 80 49 00
        E 120 90 19 64
        E 0 90 31 64
        E 0 90 49 64
        E 0 90 61 64
        E 120 80 19 00
        E 0 80 31 00
        E 0 80 49 00
        E 0 80 61 00
        E 120 90 61 64
        E 0 90 31 64
        E 0 90 49 64
        E 120 80 61 00
        E 0 80 31 00
        E 0 80 49 00
        E 120 90 19 64
        E 0 90 31 64
        E 0 90 49 64
        E 0 90 61 64
        E 120 80 19 00
        E 0 80 31 00
        E 0 80 49 00
        E 0 80 61 00
        E 120 90 31 64
        E 0 90 49 64
        E 0 90 61 64
        E 120 80 31 00
        E 0 80 49 00
        E 0 80 61 00
        E 120 90 19 64
        E 0 90 31 64
        E 0 90 49 64
        E 0 90 61 64
        E 120 80 19 00
        E 0 80 31 00
        E 0 80 49 00
        E 0 80 61 00
        E 120 90 61 64
        E 0 90 31 64
        E 0 90 49 64
        E 120 80 61 00
        E 0 80 31 00
        E 0 80 49 00
        E 120 90 61 64
        E 0 90 19 64
        E 0 90 31 64
        E 0 90 49 64
        E 120 80 61 00
        E 0 80 19 00
        E 0 80 31 00
        E 0 80 49 00
        E 120 90 31 64
        E 0 90 49 64
        E 0 90 61 64
        E 120 80 31 00
        E 0 80 49 00
        E 0 80 61 00
        E 120 90 61 64
        E 0 90 31 64
        E 0 90 49 64
        E 120 80 61 00
        E 0 80 31 00
        E 0 80 49 00
        E 120 90 49 66
        E 0 90 4f 64
        E 0 90 61 66
        E 0 90 67 64
        E 120 80 49 00
        E 0 80 4f 00
        E 60 80 61 00
        E 0 80 67 00
        E 60 90 61 68
        E 0 90 19 68
        E 0 90 31 68
        E 0 90 49 68
        E 120 80 61 00
        E 0 80 19 00
        E 0 80 31 00
        E 0 80 49 00
        E 120 90 31 68
        E 0 90 49 68
        E 0 90 61 68
        E 120 80 31 00
        E 0 80 49 00
        E 0 80 61 00
        E 120 90 61 68
        E 0 90 19 68
        E 0 90 31 68
        E 0 90 49 68
        E 120 80 61 00
        E 0 80 19 00
        E 0 80 31 00
        E 0 80 49 00
        E 120 90 31 68
        E 0 90 49 68
        E 0 90 61 68
        E 120 80 31 00
        E 0 80 49 00
        E 0 80 61 00
        E 120 90 19 68
        E 0 90 31 68
        E 0 90 49 68
        E 0 90 61 68
        E 120 80 19 00
        E 0 80 31 00
        E 0 80 49 00
        E 0 80 61 00
        E 120 90 61 68
        E 0 90 31 68
        E 0 90 49 68
        E 120 80 61 00
        E 0 80 31 00
        E 0 80 49 00
        E 120 90 19 68
        E 0 90 31 68
        E 0 90 49 68
        E 0 90 61 68
        E 120 80 19 00
        E 0 80 31 00
        E 0 80 49 00
        E 0 80 61 00
        E 120 90 61 68
        E 0 90 31 68
        E 0 90 49 68
        E 120 80 61 00
        E 0 80 31 00
        E 0 80 49 00
        E 120 90 19 68
        E 0 90 31 68
        E 0 90 49 68
        E 0 90 61 68
        E 120 80 19 00
        E 0 80 31 00
        E 0 80 49 00
        E 0 80 61 00
        E 120 90 61 68
        E 0 90 31 68
        E 0 90 49 68
        E 120 80 61 00
        E 0 80 31 00
        E 0 80 49 00
        E 120 90 19 68
        E 0 90 31 68
        E 0 90 49 68
        E 0 90 61 68
        E 120 80 19 00
        E 0 80 31 00
        E 0 80 49 00
        E 0 80 61 00
        E 120 90 31 68
        E 0 90 49 68
        E 0 90 61 68
        E 120 80 31 00
        E 0 80 49 00
        E 0 80 61 00
        E 120 90 19 68
        E 0 90 31 68
        E 0 90 49 68
        E 0 90 61 68
        E 120 80 19 00
        E 0 80 31 00
        E 0 80 49 00
        E 0 80 61 00
        E 120 90 61 68
        E 0 90 31 68
        E 0 90 49 68
        E 120 80 61 00
        E 0 80 31 00
        E 0 80 49 00
        E 120 90 61 68
        E 0 90 31 68
        E 0 90 49 68
        E 120 80 61 00
        E 0 80 31 00
        E 0 80 49 00
        E 120 90 49 68
        E 0 90 61 68
        E 120 80 49 00
        E 0 80 61 00
        E 120 90 61 64
        E 0 90 19 64
        E 0 90 31 64
        E 0 90 49 64
        E 120 80 61 00
        E 0 80 19 00
        E 0 80 31 00
        E 0 80 49 00
        E 120 90 31 64
        E 0 90 49 64
        E 0 90 61 64
        E 120 80 31 00
        E 0 80 49 00
        E 0 80 61 00
        E 120 90 61 64
        E 0 90 19 64
        E 0 90 31 64
        E 0 90 49 64
        E 120 80 61 00
        E 0 80 19 00
        E 0 80 31 00
        E 0 80 49 00
        E 120 90 31 64
        E 0 90 49 64
        E 0 90 61 64
        E 120 80 31 00
        E 0 80 49 00
        E 0 80 61 00
        E 120 90 61 64
        E 0 90 19 64
        E 0 90 31 64
        E 0 90 49 64
        E 120 80 61 00
        E 0 80 19 00
        E 0 80 31 00
        E 0 80 49 00
        E 120 90 31 64
        E 0 90 49 64
        E 0 90 61 64
        E 120 80 31 00
        E 0 80 49 00
        E 0 80 61 00
        E 120 90 19 64
        E 0 90 31 64
        E 0 90 49 64
        E 0 90 61 64
        E 120 80 19 00
        E 0 80 31 00
        E 0 80 49 00
        E 0 80 61 00
        E 120 90 31 64
        E 0 90 49 64
        E 0 90 61 64
        E 120 80 31 00
        E 0 80 49 00
        E 0 80 61 00
        E 120 90 19 64
        E 0 90 31 64
        E 0 90 49 64
        E 0 90 61 64
        E 120 80 19 00
        E 0 80 31 00
        E 0 80 49 00
        E 0 80 61 00
        E 120 90 31 64
        E 0 90 49 64
        E 0 90 61 64
        E 120 80 31 00
        E 0 80 49 00
        E 0 80 61 00
        E 120 90 19 64
        E 0 90 31 64
        E 0 90 49 64
        E 0 90 61 64
        E 120 80 19 00
        E 0 80 31 00
        E 0 80 49 00
        E 0 80 61 00
        E 120 90 31 64
        E 0 90 49 64
        E 0 90 61 64
        E 120 80 31 00
        E 0 80 49 00
        E 0 80 61 00
        E 120 90 19 64
        E 0 90 31 64
        E 0 90 49 64
        E 0 90 61 64
        E 120 80 19 00
        E 0 80 31 00
        E 0 80 49 00
        E 0 80 61 00
        E 120 90 31 64
        E 0 90 49 64
        E 0 90 61 64
        E 120 80 31 00
        E 0 80 49 00
        E 0 80 61 00
        E 120 90 61 64
        E 0 90 31 64
        E 0 90 49 64
        E 120 80 61 00
        E 0 80 31 00
        E 0 80 49 00
        E 120 90 61 64
        E 0 90 49 64
        E 120 80 61 00
        E 0 80 49 00
        E 120 90 61 66
        E 0 90 74 64
        E 0 90 19 66
        E 0 90 31 66
        E 0 90 49 66
        E 120 80 61 00
        E 0 80 19 00
        E 0 80 31 00
        E 0 80 49 00
        E 120 90 31 66
        E 0 90 49 66
        E 0 90 61 66
        E 120 80 31 00
        E 0 80 49 00
        E 0 80 61 00
        E 120 90 61 66
        E 0 90 19 66
        E 0 90 31 66
        E 0 90 49 66
        E 120 80 61 00
        E 0 80 19 00
        E 0 80 31 00
        E 0 80 49 00
        E 120 90 31 66
        E 0 90 49 66
        E 0 90 61 66
        E 120 80 31 00
        E 0 80 49 00
        E 0 80 61 00
        E 120 90 61 66
        E 0 90 19 66
        E 0 90 31 66
        E 0 90 49 66
        E 120 80 61 00
        E 0 80 19 00
        E 0 80 31 00
        E 0 80 49 00
        E 120 90 31 66
        E 0 90 49 66
        E 0 90 61 66
        E 120 80 31 00
        E 0 80 49 00
        E 0 80 61 00
        E 120 90 61 66
        E 0 90 31 66
        E 0 90 49 66
        E 120 80 61 00
        E 0 80 31 00
        E 0 80 49 00
        E 120 90 49 66
        E 0 90 61 66
        E 120 80 49 00
        E 0 80 61 00
        E 120 90 19 64
        E 0 90 31 64
        E 0 90 49 64
        E 0 90 61 64
        E 120 80 19 00
        E 0 80 31 00
        E 0 80 49 00
        E 0 80 61 00
        E 120 90 31 64
        E 0 90 49 64
        E 0 90 61 64
        E 120 80 31 00
        E 0 80 49 00
        E 0 80 61 00
        E 120 90 19 64
        E 0 90 31 64
        E 0 90 49 64
        E 0 90 61 64
        E 120 80 19 00
        E 0 80 31 00
        E 0 80 49 00
        E 0 80 61 00
        E 120 90 61 64
        E 0 90 31 64
        E 0 90 49 64
        E 120 80 61 00
        E 0 80 31 00
        E 0 80 49 00
        E 120 90 19 64
        E 0 90 31 64
        E 0 90 49 64
        E 0 90 61 64
        E 120 80 19 00
        E 0 80 31 00
        E 0 80 49 00
        E 0 80 61 00
        E 120 90 61 64
        E 0 90 31 64
        E 0 90 49 64
        E 120 80 61 00
        E 0 80 31 00
        E 0 80 49 00
        E 120 90 31 64
        E 0 90 49 64
        E 0 90 61 64
        E 120 80 31 00
        E 0 80 49 00
        E 0 80 61 00
        E 120 90 49 64
        E 0 90 61 64
        E 120 80 49 00
        E 0 80 61 00
        E 120 90 19 66
        E 0 90 31 66
        E 0 90 49 66
        E 0 90 61 66
        E 120 80 74 00
        E 0 80 19 00
        E 0 80 31 00
        E 0 80 49 00
        E 0 80 61 00
        E 120 90 31 66
        E 0 90 49 66
        E 0 90 61 66
        E 120 80 31 00
        E 0 80 49 00
        E 0 80 61 00
        E 120 90 19 66
        E 0 90 31 66
        E 0 90 49 66
        E 0 90 61 66
        E 120 80 19 00
        E 0 80 31 00
        E 0 80 49 00
        E 0 80 61 00
        E 120 90 31 66
        E 0 90 49 66
        E 0 90 61 66
        E 120 80 31 00
        E 0 80 49 00
        E 0 80 61 00
        E 120 90 61 66
        E 0 90 19 66
        E 0 90 31 66
        E 0 90 49 66
        E 120 80 61 00
        E 0 80 19 00
        E 0 80 31 00
        E 0 80 49 00
        E 120 90 31 66
        E 0 90 49 66
        E 0 90 61 66
        E 120 80 31 00
        E 0 80 49 00
        E 0 80 61 00
        E 120 90 61 66
        E 0 90 31 66
        E 0 90 49 66
        E 120 80 61 00
        E 0 80 31 00
        E 0 80 49 00
        E 120 90 49 66
        E 0 90 61 66
        E 120 80 49 00
        E 0 80 61 00
        E 120 90 61 64
        E 0 90 19 64
        E 0 90 31 64
        E 0 90 49 64
        E 2400 80 61 00
        E 0 80 19 00
        E 0 80 31 00
        E 0 80 49 00
        E 16080 90 48 66
        E 0 90 60 66
        E 120 80 48 00
        E 0 80 60 00
        E 120 90 18 68
        E 0 90 30 68
        E 0 90 48 68
        E 0 90 60 68
        E 120 80 18 00
        E 0 80 30 00
        E 0 80 48 00
        E 0 80 60 00
        E 120 90 49 66
        E 0 90 61 66
        E 120 80 49 00
        E 0 80 61 00
        <X 120 0
          /wFbYmVnaW5fcGIgc29uZ190cmFpbmVyX3BiXzNd
        >
        E 0 90 19 68
        E 0 90 31 68
        E 0 90 49 68
        E 0 90 61 68
        E 120 80 19 00
        E 0 80 31 00
        E 0 80 49 00
        E 0 80 61 00
        E 120 90 61 68
        E 0 90 31 68
        E 0 90 49 68
        E 120 80 61 00
        E 0 80 31 00
        E 0 80 49 00
        E 360 90 31 68
        E 0 90 49 68
        E 0 90 61 68
        E 120 80 31 00
        E 0 80 49 00
        E 0 80 61 00
        E 120 90 19 68
        E 0 90 31 68
        E 0 90 49 68
        E 0 90 61 68
        E 120 80 19 00
        E 0 80 31 00
        E 0 80 49 00
        E 0 80 61 00
        E 120 90 31 68
        E 0 90 49 68
        E 0 90 61 68
        E 120 80 31 00
        E 0 80 49 00
        E 0 80 61 00
        E 360 90 31 68
        E 0 90 49 68
        E 0 90 61 68
        E 120 80 31 00
        E 0 80 49 00
        E 0 80 61 00
        <X 120 0
          /wFbcGJfbm9ybSBzb25nX3RyYWluZXJfcGJfM10=
        >
        E 240 90 19 68
        E 0 90 31 68
        E 0 90 49 68
        E 0 90 61 68
        E 120 80 19 00
        E 0 80 31 00
        E 0 80 49 00
        E 0 80 61 00
        E 360 90 31 68
        E 0 90 49 68
        E 0 90 61 68
        E 120 80 31 00
        E 0 80 49 00
        E 0 80 61 00
        E 120 90 61 68
        E 0 90 19 68
        E 0 90 31 68
        E 0 90 49 68
        E 120 80 61 00
        E 0 80 19 00
        E 0 80 31 00
        E 0 80 49 00
        E 120 90 49 68
        E 0 90 61 68
        E 120 80 49 00
        E 0 80 61 00
        E 120 90 30 66
        E 0 90 48 66
        E 0 90 60 66
        E 120 80 30 00
        E 0 80 48 00
        E 0 80 60 00
        E 120 90 48 68
        E 0 90 60 68
        E 120 80 48 00
        E 0 80 60 00
        E 120 90 18 69
        E 0 90 30 69
        E 0 90 48 69
        E 0 90 60 69
        E 120 80 18 00
        E 0 80 30 00
        E 0 80 48 00
        E 0 80 60 00
        E 120 90 30 69
        E 0 90 48 69
        E 0 90 60 69
        E 120 80 30 00
        E 0 80 48 00
        E 0 80 60 00
        E 360 90 60 69
        E 0 90 30 69
        E 0 90 48 69
        E 120 80 60 00
        E 0 80 30 00
        E 0 80 48 00
        E 120 90 18 69
        E 0 90 30 69
        E 0 90 48 69
        E 0 90 60 69
        E 120 80 18 00
        E 0 80 30 00
        E 0 80 48 00
        E 0 80 60 00
        E 120 90 30 69
        E 0 90 48 69
        E 0 90 60 69
        E 120 80 30 00
        E 0 80 48 00
        E 0 80 60 00
        E 360 90 60 69
        E 0 90 30 69
        E 0 90 48 69
        E 120 80 60 00
        E 0 80 30 00
        E 0 80 48 00
        E 360 90 18 69
        E 0 90 30 69
        E 0 90 48 69
        E 0 90 60 69
        E 120 80 18 00
        E 0 80 30 00
        E 0 80 48 00
        E 0 80 60 00
        E 360 90 30 69
        E 0 90 48 69
        E 0 90 60 69
        E 120 80 30 00
        E 0 80 48 00
        E 0 80 60 00
        E 120 90 18 69
        E 0 90 30 69
        E 0 90 48 69
        E 0 90 60 69
        E 120 80 18 00
        E 0 80 30 00
        E 0 80 48 00
        E 0 80 60 00
        E 120 90 48 69
        E 0 90 60 69
        E 120 80 48 00
        E 0 80 60 00
        E 120 90 60 68
        E 0 90 18 68
        E 0 90 30 68
        E 0 90 48 68
        E 120 80 60 00
        E 0 80 18 00
        E 0 80 30 00
        E 0 80 48 00
        E 120 90 48 64
        E 0 90 60 64
        E 120 80 48 00
        E 0 80 60 00
        <X 120 0
          /wFbZW5kX3BiIHNvbmdfdHJhaW5lcl9wYl8zXQ==
        >
        E 0 90 19 68
        E 0 90 31 68
        E 0 90 49 68
        E 0 90 61 68
        E 120 80 19 00
        E 0 80 31 00
        E 0 80 49 00
        E 0 80 61 00
        E 120 90 31 68
        E 0 90 49 68
        E 0 90 61 68
        E 120 80 31 00
        E 0 80 49 00
        E 0 80 61 00
        E 360 90 31 68
        E 0 90 49 68
        E 0 90 61 68
        E 120 80 31 00
        E 0 80 49 00
        E 0 80 61 00
        E 120 90 19 68
        E 0 90 31 68
        E 0 90 49 68
        E 0 90 61 68
        E 120 80 19 00
        E 0 80 31 00
        E 0 80 49 00
        E 0 80 61 00
        E 120 90 61 68
        E 0 90 31 68
        E 0 90 49 68
        E 120 80 61 00
        E 0 80 31 00
        E 0 80 49 00
        E 360 90 31 68
        E 0 90 49 68
        E 0 90 61 68
        E 120 80 31 00
        E 0 80 49 00
        E 0 80 61 00
        E 360 90 19 68
        E 0 90 31 68
        E 0 90 49 68
        E 0 90 61 68
        E 120 80 19 00
        E 0 80 31 00
        E 0 80 49 00
        E 0 80 61 00
        E 360 90 49 68
        E 0 90 61 68
        E 120 80 49 00
        E 0 80 61 00
        E 120 90 19 66
        E 0 90 31 66
        E 0 90 49 66
        E 0 90 61 66
        E 120 80 19 00
        E 0 80 31 00
        E 0 80 49 00
        E 0 80 61 00
        E 120 90 49 68
        E 0 90 61 68
        E 120 80 49 00
        E 0 80 61 00
        E 120 90 19 66
        E 0 90 31 66
        E 0 90 49 66
        E 0 90 61 66
        E 120 80 19 00
        E 0 80 31 00
        E 0 80 49 00
        E 0 80 61 00
        E 120 90 48 68
        E 0 90 60 68
        E 120 80 48 00
        E 0 80 60 00
        E 120 90 60 69
        E 0 90 74 64
        E 0 90 18 69
        E 0 90 30 69
        E 0 90 48 69
        E 120 80 60 00
        E 0 80 18 00
        E 0 80 30 00
        E 0 80 48 00
        E 120 90 30 69
        E 0 90 48 69
        E 0 90 60 69
        E 120 80 30 00
        E 0 80 48 00
        E 0 80 60 00
        E 360 90 30 69
        E 0 90 48 69
        E 0 90 60 69
        E 120 80 30 00
        E 0 80 48 00
        E 0 80 60 00
        E 120 90 18 69
        E 0 90 30 69
        E 0 90 48 69
        E 0 90 60 69
        E 120 80 18 00
        E 0 80 30 00
        E 0 80 48 00
        E 0 80 60 00
        E 120 90 30 69
        E 0 90 48 69
        E 0 90 60 69
        E 120 80 30 00
        E 0 80 48 00
        E 0 80 60 00
        E 360 90 30 69
        E 0 90 48 69
        E 0 90 60 69
        E 120 80 30 00
        E 0 80 48 00
        E 0 80 60 00
        E 360 90 18 69
        E 0 90 30 69
        E 0 90 48 69
        E 0 90 60 69
        E 120 80 18 00
        E 0 80 30 00
        E 0 80 48 00
        E 0 80 60 00
        E 360 90 60 69
        E 0 90 48 69
        E 120 80 60 00
        E 0 80 48 00
        E 120 90 18 68
        E 0 90 30 68
        E 0 90 48 68
        E 0 90 60 68
        E 120 80 18 00
        E 0 80 30 00
        E 0 80 48 00
        E 0 80 60 00
        E 120 90 48 68
        E 0 90 60 68
        E 120 80 48 00
        E 0 80 60 00
        E 120 90 30 66
        E 0 90 48 66
        E 0 90 60 66
        E 120 80 30 00
        E 0 80 48 00
        E 0 80 60 00
        E 360 90 19 68
        E 0 90 31 68
        E 0 90 49 68
        E 0 90 61 68
        E 120 80 74 00
        E 0 80 19 00
        E 0 80 31 00
        E 0 80 49 00
        E 0 80 61 00
        E 120 90 31 68
        E 0 90 49 68
        E 0 90 61 68
        E 120 80 31 00
        E 0 80 49 00
        E 0 80 61 00
        E 360 90 31 68
        E 0 90 49 68
        E 0 90 61 68
        E 120 80 31 00
        E 0 80 49 00
        E 0 80 61 00
        E 120 90 19 68
        E 0 90 31 68
        E 0 90 49 68
        E 0 90 61 68
        E 120 80 19 00
        E 0 80 31 00
        E 0 80 49 00
        E 0 80 61 00
        E 120 90 31 68
        E 0 90 49 68
        E 0 90 61 68
        E 120 80 31 00
        E 0 80 49 00
        E 0 80 61 00
        E 360 90 31 68
        E 0 90 49 68
        E 0 90 61 68
        E 120 80 31 00
        E 0 80 49 00
        E 0 80 61 00
        E 360 90 19 68
        E 0 90 31 68
        E 0 90 49 68
        E 0 90 61 68
        E 120 80 19 00
        E 0 80 31 00
        E 0 80 49 00
        E 0 80 61 00
        E 360 90 31 68
        E 0 90 49 68
        E 0 90 61 68
        E 120 80 31 00
        E 0 80 49 00
        E 0 80 61 00
        E 120 90 19 68
        E 0 90 31 68
        E 0 90 49 68
        E 0 90 61 68
        E 120 80 19 00
        E 0 80 31 00
        E 0 80 49 00
        E 0 80 61 00
        E 120 90 31 68
        E 0 90 49 68
        E 0 90 61 68
        E 120 80 31 00
        E 0 80 49 00
        E 0 80 61 00
        E 360 90 49 68
        E 0 90 61 68
        E 120 80 49 00
        E 0 80 61 00
        E 120 90 19 64
        E 0 90 31 64
        E 0 90 49 64
        E 0 90 61 64
        E 120 80 19 00
        E 0 80 31 00
        E 0 80 49 00
        E 0 80 61 00
        E 120 90 31 64
        E 0 90 49 64
        E 0 90 61 64
        E 120 80 31 00
        E 0 80 49 00
        E 0 80 61 00
        E 360 90 31 64
        E 0 90 49 64
        E 0 90 61 64
        E 120 80 31 00
        E 0 80 49 00
        E 0 80 61 00
        E 120 90 61 64
        E 0 90 19 64
        E 0 90 31 64
        E 0 90 49 64
        E 120 80 61 00
        E 0 80 19 00
        E 0 80 31 00
        E 0 80 49 00
        E 120 90 31 64
        E 0 90 49 64
        E 0 90 61 64
        E 120 80 31 00
        E 0 80 49 00
        E 0 80 61 00
        E 360 90 31 64
        E 0 90 49 64
        E 0 90 61 64
        E 120 80 31 00
        E 0 80 49 00
        E 0 80 61 00
        E 360 90 19 64
        E 0 90 31 64
        E 0 90 49 64
        E 0 90 61 64
        E 120 80 19 00
        E 0 80 31 00
        E 0 80 49 00
        E 0 80 61 00
        E 360 90 31 64
        E 0 90 49 64
        E 0 90 61 64
        E 120 80 31 00
        E 0 80 49 00
        E 0 80 61 00
        E 120 90 19 64
        E 0 90 31 64
        E 0 90 49 64
        E 0 90 61 64
        E 120 80 19 00
        E 0 80 31 00
        E 0 80 49 00
        E 0 80 61 00
        E 120 90 31 64
        E 0 90 49 64
        E 0 90 61 64
        E 120 80 31 00
        E 0 80 49 00
        E 0 80 61 00
        E 360 90 61 66
        E 0 90 49 66
        E 120 80 61 00
        E 0 80 49 00
        E 120 90 19 68
        E 0 90 31 68
        E 0 90 49 68
        E 0 90 61 68
        E 120 80 19 00
        E 0 80 31 00
        E 0 80 49 00
        E 0 80 61 00
        E 120 90 31 68
        E 0 90 49 68
        E 0 90 61 68
        E 120 80 31 00
        E 0 80 49 00
        E 0 80 61 00
        E 360 90 31 68
        E 0 90 49 68
        E 0 90 61 68
        E 120 80 31 00
        E 0 80 49 00
        E 0 80 61 00
        E 120 90 19 68
        E 0 90 31 68
        E 0 90 49 68
        E 0 90 61 68
        E 120 80 19 00
        E 0 80 31 00
        E 0 80 49 00
        E 0 80 61 00
        E 120 90 31 68
        E 0 90 49 68
        E 0 90 61 68
        E 120 80 31 00
        E 0 80 49 00
        E 0 80 61 00
        E 360 90 31 68
        E 0 90 49 68
        E 0 90 61 68
        E 120 80 31 00
        E 0 80 49 00
        E 0 80 61 00
        E 360 90 19 68
        E 0 90 31 68
        E 0 90 49 68
        E 0 90 61 68
        E 120 80 19 00
        E 0 80 31 00
        E 0 80 49 00
        E 0 80 61 00
        E 360 90 31 68
        E 0 90 49 68
        E 0 90 61 68
        E 120 80 31 00
        E 0 80 49 00
        E 0 80 61 00
        E 120 90 19 68
        E 0 90 31 68
        E 0 90 49 68
        E 0 90 61 68
        E 120 80 19 00
        E 0 80 31 00
        E 0 80 49 00
        E 0 80 61 00
        E 120 90 31 68
        E 0 90 49 68
        E 0 90 61 68
        E 120 80 31 00
        E 0 80 49 00
        E 0 80 61 00
        E 120 90 31 68
        E 0 90 49 68
        E 0 90 4f 64
        E 0 90 61 68
        E 0 90 67 64
        E 120 80 31 00
        E 0 80 49 00
        E 0 80 4f 00
        E 120 90 49 68
        E 0 90 4f 64
        E 120 80 49 00
        E 0 80 4f 00
        E 60 80 61 00
        E 0 80 67 00
        E 60 90 19 64
        E 0 90 31 64
        E 0 90 49 64
        E 0 90 61 64
        E 3360 80 19 00
        E 0 80 31 00
        E 0 80 49 00
        E 0 80 61 00
        E 480 90 19 68
        E 0 90 31 68
        E 0 90 49 68
        E 0 90 61 68
        E 0 90 74 64
        E 120 80 19 00
        E 0 80 31 00
        E 0 80 49 00
        E 0 80 61 00
        E 120 90 31 68
        E 0 90 49 68
        E 0 90 61 68
        E 120 80 31 00
        E 0 80 49 00
        E 0 80 61 00
        E 120 90 19 68
        E 0 90 31 68
        E 0 90 49 68
        E 0 90 61 68
        E 120 80 19 00
        E 0 80 31 00
        E 0 80 49 00
        E 0 80 61 00
        E 120 90 31 68
        E 0 90 49 68
        E 0 90 61 68
        E 120 80 31 00
        E 0 80 49 00
        E 0 80 61 00
        E 120 90 19 68
        E 0 90 31 68
        E 0 90 49 68
        E 0 90 61 68
        E 120 80 19 00
        E 0 80 31 00
        E 0 80 49 00
        E 0 80 61 00
        E 120 90 31 68
        E 0 90 49 68
        E 0 90 61 68
        E 120 80 31 00
        E 0 80 49 00
        E 0 80 61 00
        E 120 90 19 68
        E 0 90 31 68
        E 0 90 49 68
        E 0 90 61 68
        E 120 80 19 00
        E 0 80 31 00
        E 0 80 49 00
        E 0 80 61 00
        E 120 90 31 68
        E 0 90 49 68
        E 0 90 61 68
        E 120 80 31 00
        E 0 80 49 00
        E 0 80 61 00
        E 120 90 19 68
        E 0 90 31 68
        E 0 90 49 68
        E 0 90 61 68
        E 120 80 19 00
        E 0 80 31 00
        E 0 80 49 00
        E 0 80 61 00
        E 120 90 31 68
        E 0 90 49 68
        E 0 90 61 68
        E 120 80 31 00
        E 0 80 49 00
        E 0 80 61 00
        E 120 90 19 68
        E 0 90 31 68
        E 0 90 49 68
        E 0 90 61 68
        E 120 80 19 00
        E 0 80 31 00
        E 0 80 49 00
        E 0 80 61 00
        E 120 90 31 68
        E 0 90 49 68
        E 0 90 61 68
        E 120 80 31 00
        E 0 80 49 00
        E 0 80 61 00
        E 120 90 19 68
        E 0 90 31 68
        E 0 90 49 68
        E 0 90 61 68
        E 120 80 19 00
        E 0 80 31 00
        E 0 80 49 00
        E 0 80 61 00
        E 120 90 31 68
        E 0 90 49 68
        E 0 90 61 68
        E 120 80 31 00
        E 0 80 49 00
        E 0 80 61 00
        E 120 90 31 68
        E 0 90 49 68
        E 0 90 61 68
        E 120 80 31 00
        E 0 80 49 00
        E 0 80 61 00
        E 120 90 49 68
        E 0 90 4f 64
        E 0 90 61 68
        E 0 90 67 64
        E 120 80 49 00
        E 0 80 4f 00
        E 60 80 61 00
        E 0 80 67 00
        E 60 90 19 64
        E 0 90 31 64
        E 0 90 49 64
        E 0 90 61 64
        E 120 80 74 00
        E 0 80 19 00
        E 0 80 31 00
        E 0 80 49 00
        E 0 80 61 00
        E 120 90 31 64
        E 0 90 49 64
        E 0 90 61 64
        E 120 80 31 00
        E 0 80 49 00
        E 0 80 61 00
        E 120 90 19 64
        E 0 90 31 64
        E 0 90 49 64
        E 0 90 61 64
        E 120 80 19 00
        E 0 80 31 00
        E 0 80 49 00
        E 0 80 61 00
        E 120 90 31 64
        E 0 90 49 64
        E 0 90 61 64
        E 120 80 31 00
        E 0 80 49 00
        E 0 80 61 00
        E 120 90 19 64
        E 0 90 31 64
        E 0 90 49 64
        E 0 90 61 64
        E 120 80 19 00
        E 0 80 31 00
        E 0 80 49 00
        E 0 80 61 00
        E 120 90 31 64
        E 0 90 49 64
        E 0 90 61 64
        E 120 80 31 00
        E 0 80 49 00
        E 0 80 61 00
        E 120 90 19 64
        E 0 90 31 64
        E 0 90 49 64
        E 0 90 61 64
        E 120 80 19 00
        E 0 80 31 00
        E 0 80 49 00
        E 0 80 61 00
        E 120 90 31 64
        E 0 90 49 64
        E 0 90 61 64
        E 120 80 31 00
        E 0 80 49 00
        E 0 80 61 00
        E 120 90 19 64
        E 0 90 31 64
        E 0 90 49 64
        E 0 90 61 64
        E 120 80 19 00
        E 0 80 31 00
        E 0 80 49 00
        E 0 80 61 00
        E 120 90 31 64
        E 0 90 49 64
        E 0 90 61 64
        E 120 80 31 00
        E 0 80 49 00
        E 0 80 61 00
        E 120 90 19 64
        E 0 90 31 64
        E 0 90 49 64
        E 0 90 61 64
        E 120 80 19 00
        E 0 80 31 00
        E 0 80 49 00
        E 0 80 61 00
        E 120 90 31 64
        E 0 90 49 64
        E 0 90 61 64
        E 120 80 31 00
        E 0 80 49 00
        E 0 80 61 00
        E 120 90 19 64
        E 0 90 31 64
        E 0 90 49 64
        E 0 90 61 64
        E 120 80 19 00
        E 0 80 31 00
        E 0 80 49 00
        E 0 80 61 00
        E 120 90 31 64
        E 0 90 49 64
        E 0 90 61 64
        E 120 80 31 00
        E 0 80 49 00
        E 0 80 61 00
        E 120 90 31 64
        E 0 90 49 64
        E 0 90 61 64
        E 120 80 31 00
        E 0 80 49 00
        E 0 80 61 00
        E 120 90 49 64
        E 0 90 61 64
        E 120 80 49 00
        E 0 80 61 00
        E 120 90 19 68
        E 0 90 31 68
        E 0 90 49 68
        E 0 90 61 68
        E 120 80 19 00
        E 0 80 31 00
        E 0 80 49 00
        E 0 80 61 00
        E 120 90 31 68
        E 0 90 49 68
        E 0 90 61 68
        E 120 80 31 00
        E 0 80 49 00
        E 0 80 61 00
        E 120 90 19 68
        E 0 90 31 68
        E 0 90 49 68
        E 0 90 61 68
        E 120 80 19 00
        E 0 80 31 00
        E 0 80 49 00
        E 0 80 61 00
        E 120 90 31 68
        E 0 90 49 68
        E 0 90 61 68
        E 120 80 31 00
        E 0 80 49 00
        E 0 80 61 00
        E 120 90 61 68
        E 0 90 19 68
        E 0 90 31 68
        E 0 90 49 68
        E 120 80 61 00
        E 0 80 19 00
        E 0 80 31 00
        E 0 80 49 00
        E 120 90 31 68
        E 0 90 49 68
        E 0 90 61 68
        E 120 80 31 00
        E 0 80 49 00
        E 0 80 61 00
        E 120 90 19 68
        E 0 90 31 68
        E 0 90 49 68
        E 0 90 61 68
        E 120 80 19 00
        E 0 80 31 00
        E 0 80 49 00
        E 0 80 61 00
        E 120 90 31 68
        E 0 90 49 68
        E 0 90 61 68
        E 120 80 31 00
        E 0 80 49 00
        E 0 80 61 00
        E 120 90 19 68
        E 0 90 31 68
        E 0 90 49 68
        E 0 90 61 68
        E 120 80 19 00
        E 0 80 31 00
        E 0 80 49 00
        E 0 80 61 00
        E 120 90 31 68
        E 0 90 49 68
        E 0 90 61 68
        E 120 80 31 00
        E 0 80 49 00
        E 0 80 61 00
        E 120 90 19 68
        E 0 90 31 68
        E 0 90 49 68
        E 0 90 61 68
        E 120 80 19 00
        E 0 80 31 00
        E 0 80 49 00
        E 0 80 61 00
        E 120 90 31 68
        E 0 90 49 68
        E 0 90 61 68
        E 120 80 31 00
        E 0 80 49 00
        E 0 80 61 00
        E 120 90 19 68
        E 0 90 31 68
        E 0 90 49 68
        E 0 90 61 68
        E 120 80 19 00
        E 0 80 31 00
        E 0 80 49 00
        E 0 80 61 00
        E 120 90 31 68
        E 0 90 49 68
        E 0 90 61 68
        E 120 80 31 00
        E 0 80 49 00
        E 0 80 61 00
        E 120 90 31 68
        E 0 90 49 68
        E 0 90 61 68
        E 120 80 31 00
        E 0 80 49 00
        E 0 80 61 00
        E 120 90 49 68
        E 0 90 4f 64
        E 0 90 61 68
        E 0 90 67 64
        E 120 80 49 00
        E 0 80 4f 00
        E 60 80 61 00
        E 0 80 67 00
        E 60 90 19 64
        E 0 90 31 64
        E 0 90 49 64
        E 0 90 61 64
        E 120 80 19 00
        E 0 80 31 00
        E 0 80 49 00
        E 0 80 61 00
        E 120 90 31 64
        E 0 90 49 64
        E 0 90 61 64
        E 120 80 31 00
        E 0 80 49 00
        E 0 80 61 00
        E 120 90 19 64
        E 0 90 31 64
        E 0 90 49 64
        E 0 90 61 64
        E 120 80 19 00
        E 0 80 31 00
        E 0 80 49 00
        E 0 80 61 00
        E 120 90 31 64
        E 0 90 49 64
        E 0 90 61 64
        E 120 80 31 00
        E 0 80 49 00
        E 0 80 61 00
        E 120 90 19 64
        E 0 90 31 64
        E 0 90 49 64
        E 0 90 61 64
        E 120 80 19 00
        E 0 80 31 00
        E 0 80 49 00
        E 0 80 61 00
        E 120 90 31 64
        E 0 90 49 64
        E 0 90 61 64
        E 120 80 31 00
        E 0 80 49 00
        E 0 80 61 00
        E 120 90 19 64
        E 0 90 31 64
        E 0 90 49 64
        E 0 90 61 64
        E 120 80 19 00
        E 0 80 31 00
        E 0 80 49 00
        E 0 80 61 00
        E 120 90 31 64
        E 0 90 49 64
        E 0 90 61 64
        E 120 80 31 00
        E 0 80 49 00
        E 0 80 61 00
        E 120 90 19 64
        E 0 90 31 64
        E 0 90 49 64
        E 0 90 61 64
        E 120 80 19 00 -1
        E 0 80 31 00 -1
        E 0 80 49 00 -1
        E 0 80 61 00
        E 120 90 49 64 -1
        E 0 90 61 64
        E 120 80 49 00
        E 0 80 61 00
        E 120 90 19 64
        E 0 90 31 64
        E 0 90 49 64
        E 0 90 61 64
        E 120 80 19 00
        E 0 80 31 00
        E 0 80 49 00
        E 0 80 61 00
        E 120 90 49 64 -1
        E 0 90 61 64
        E 120 80 49 00 -1
        E 0 80 61 00
        E 120 90 19 64
        E 0 90 31 64
        E 0 90 49 64
        E 0 90 61 64
        E 120 80 19 00
        E 0 80 31 00
        E 0 80 49 00
        E 0 80 61 00
        E 120 90 49 64 -1
        E 0 90 61 64
        E 120 80 49 00 -1
        E 0 80 61 00
        E 120 90 31 64
        E 0 90 49 64
        E 0 90 61 64
        E 120 80 31 00
        E 0 80 49 00
        E 0 80 61 00
        E 120 90 49 64
        E 0 90 61 64
        E 120 80 49 00 -1
        E 0 80 61 00
        E 120 90 19 66 -1
        E 0 90 31 66 -1
        E 0 90 49 66 -1
        E 0 90 61 66
        E 120 80 19 00 -1
        E 0 80 31 00 -1
        E 0 80 49 00 -1
        E 0 80 61 00
        E 120 90 49 66 -1
        E 0 90 61 66
        E 120 80 49 00 -1
        E 0 80 61 00
        E 120 90 19 66
        E 0 90 31 66
        E 0 90 49 66
        E 0 90 61 66
        E 120 80 19 00
        E 0 80 31 00
        E 0 80 49 00
        E 0 80 61 00
        E 120 90 31 66
        E 0 90 49 66
        E 0 90 61 66
        E 120 80 31 00
        E 0 80 49 00
        E 0 80 61 00
        E 120 90 19 66
        E 0 90 31 66
        E 0 90 49 66
        E 0 90 61 66
        E 120 80 19 00
        E 0 80 31 00
        E 0 80 49 00
        E 0 80 61 00
        E 120 90 31 66
        E 0 90 49 66
        E 0 90 61 66
        E 120 80 31 00
        E 0 80 49 00
        E 0 80 61 00
        E 120 90 31 66
        E 0 90 49 66
        E 0 90 61 66
        E 120 80 31 00 -1
        E 0 80 49 00 -1
        E 0 80 61 00
        E 120 90 49 66 -1
        E 0 90 61 66
        E 120 80 49 00 -1
        E 0 80 61 00
        E 120 90 19 64 -1
        E 0 90 31 64 -1
        E 0 90 49 64 -1
        E 0 90 61 64
        E 120 80 19 00 -1
        E 0 80 31 00 -1
        E 0 80 49 00 -1
        E 0 80 61 00
        E 120 90 61 64
        E 0 90 49 64 -1
        E 120 80 61 00
        E 0 80 49 00 -1
        E 120 90 31 64 -1
        E 0 90 49 64 -1
        E 0 90 61 64
        E 120 80 31 00 -1
        E 0 80 49 00 -1
        E 0 80 61 00
        E 120 90 49 64 -1
        E 0 90 61 64
        E 120 80 49 00 -1
        E 0 80 61 00
        E 120 90 19 64 -1
        E 0 90 31 64 -1
        E 0 90 49 64 -1
        E 0 90 61 64
        E 120 80 19 00 -1
        E 0 80 31 00 -1
        E 0 80 49 00 -1
        E 0 80 61 00
        E 120 90 49 64 -1
        E 0 90 61 64
        E 120 80 49 00 -1
        E 0 80 61 00
        E 120 90 31 64
        E 0 90 49 64
        E 0 90 61 64
        E 120 80 31 00
        E 0 80 49 00
        E 0 80 61 00
        E 120 90 49 64
        E 0 90 61 64
        E 120 80 49 00
        E 0 80 61 00
        E 120 90 61 66
        E 0 90 19 66
        E 0 90 31 66
        E 0 90 49 66
        E 120 80 61 00
        E 0 80 19 00
        E 0 80 31 00
        E 0 80 49 00
        E 120 90 31 66
        E 0 90 49 66
        E 0 90 61 66
        E 120 80 31 00
        E 0 80 49 00
        E 0 80 61 00
        E 120 90 61 66
        E 0 90 31 66
        E 0 90 49 66
        E 120 80 61 00
        E 0 80 31 00
        E 0 80 49 00
        E 120 90 49 66 -1
        E 0 90 61 66
        E 120 80 49 00 -1
        E 0 80 61 00
        E 120 90 19 66 -1
        E 0 90 31 66 -1
        E 0 90 49 66 -1
        E 0 90 61 66
        E 120 80 19 00 -1
        E 0 80 31 00 -1
        E 0 80 49 00 -1
        E 0 80 61 00
        E 120 90 49 66 -1
        E 0 90 61 66
        E 120 80 49 00 -1
        E 0 80 61 00
        E 120 90 61 66
        E 0 90 31 66 -1
        E 0 90 49 66 -1
        E 120 80 61 00
        E 0 80 31 00 -1
        E 0 80 49 00 -1
        E 120 90 49 66 -1
        E 0 90 4f 64 -1
        E 0 90 61 66
        E 0 90 67 64
        E 120 80 49 00 -1
        E 0 80 4f 00 -1
        E 60 80 61 00
        E 0 80 67 00
        E 60 90 19 68 -1
        E 0 90 31 68 -1
        E 0 90 49 68 -1
        E 0 90 61 68
        E 5759 80 61 00
        E 1 80 19 00 -1
        E 0 80 31 00 -1
        E 0 80 49 00 -1
        E 3840 b0 7b 00
        GUID {D75FF3BD-5AD1-4547-A538-82F081C5F0E2}
        IGNTEMPO 0 120.00000000 4 4
        SRCCOLOR 3
        VELLANE 132 71 60
        COLORMAP "C:\Program Files\REAPER\Data\color_maps\rockband_guitarbass.png"
        CFGEDITVIEW -10463.993182 4.063255 46 12 0 0 0
        CFGEDIT 1 1 0 1 1 0 1 1 1 1 1 0.12500000 -4 0 1025 558 0 2 1 1 0.00000000 0 1 0 0 0.500000 0 0 1.000000 64
        KEYSNAP 0 0 "102034050607" 0 "Major"
        EVTFILTER 0 -1 -1 -1 -1 0 1 0 0 -1.00000000 -1.00000000
      >
    >
  >
  <TRACK '{0766A68F-D0CE-4A32-9B82-991A365D3071}'
    NAME "PART VOCALS"
    PEAKCOL 16576
    BEAT -1
    AUTOMODE 0
    VOLPAN 1.00000000000000 0.00000000000000 -1.00000000000000 -1.00000000000000 1.00000000000000
    MUTESOLO 0 0 0
    IPHASE 0
    ISBUS 0 0
    BUSCOMP 0 0
    SHOWINMIX 1 0.666700 0.500000 1 0.500000 -1 -1 -1
    FREEMODE 0
    SEL 0
    REC 0 0 0 0 0 0 0
    VU 2
    TRACKHEIGHT 0 0
    INQ 0 0 0 0.5000000000 100 0 0 100
    NCHAN 2
    FX 1
    TRACKID {0766A68F-D0CE-4A32-9B82-991A365D3071}
    PERF 0
    MIDIOUT -1
    MAINSEND 1 0
    <ITEM
      POSITION 0.00000000000000
      SNAPOFFS 0.00000000000000
      LENGTH 194.42541950113377
      LOOP 0
      ALLTAKES 0
      SEL 0
      FADEIN 1 0.000000 0.000000 1 0
      FADEOUT 1 0.000000 0.000000 1 0
      MUTE 0
      IGUID {66F9D652-D7E9-4E09-98EC-82DAD9356ADA}
      IID 6
      NAME "PART VOCALS"
      VOLPAN 1.000000 0.000000 1.000000 -1.000000
      SOFFS 0.00000000000000 0.00000000000000
      PLAYRATE 1.00000000000000 1 0.00000000000000 -1
      CHANMODE 0
      GUID {2574C6B3-EAD1-4DB8-8C2C-F0382DABA230}
      <SOURCE MIDI
        HASDATA 1 480 QN
        POOLEDEVTS {F63B6812-C80A-4A9D-B810-F99E8DE40203}
        <X 0 0
          /wNQQVJUIFZPQ0FMUw==
        >
        <X 5760 0
          /wFbcGxheV0=
        >
        E 0 90 69 60
        <X 480 0
          /wVDYW4=
        >
        E 0 90 3f 60
        E 150 80 3f 00
        <X 90 0
          /wVJ
        >
        E 0 90 3f 60
        E 150 80 3f 00
        <X 90 0
          /wViZWF0
        >
        E 0 90 3f 60
        E 180 80 3f 00
        <X 60 0
          /wUnZW0=
        >
        E 0 90 3f 60
        E 390 80 3f 00
        <X 90 0
          /wVub3c=
        >
        E 0 90 3f 60
        E 870 80 3f 00
        E 90 90 01 60
        E 58 80 01 00
        <X 1622 0
          /wVDYW4=
        >
        E 0 90 3f 60
        E 150 80 3f 00
        <X 90 0
          /wVJ
        >
        E 0 90 3f 60
        E 150 80 3f 00
        <X 90 0
          /wVnZXQ=
        >
        E 0 90 3f 60
        E 120 80 3f 00
        <X 120 0
          /wV5b3Vy
        >
        E 0 90 3f 60
        E 390 80 3f 00
        <X 90 0
          /wVsb3Zl
        >
        E 0 90 3f 60
        E 870 80 3f 00
        E 330 80 69 00
        E 960 90 69 60
        E 0 90 74 60
        <X 480 0
          /wVDYW4=
        >
        E 0 90 3f 60
        E 150 80 3f 00
        <X 90 0
          /wVJ
        >
        E 0 90 3f 60
        E 150 80 3f 00
        <X 90 0
          /wViZWF0
        >
        E 0 90 3f 60
        E 180 80 3f 00
        <X 60 0
          /wUnZW0=
        >
        E 0 90 3f 60
        E 390 80 3f 00
        <X 90 0
          /wVub3c=
        >
        E 0 90 3f 60
        E 870 80 3f 00
        E 330 90 01 60
        E 58 80 01 00
        <X 1382 0
          /wVDYW4=
        >
        E 0 90 3f 60
        E 150 80 3f 00
        <X 90 0
          /wVJ
        >
        E 0 90 3f 60
        E 150 80 3f 00
        <X 90 0
          /wVnZXQ=
        >
        E 0 90 3f 60
        E 120 80 3f 00
        <X 120 0
          /wV5b3Vy
        >
        E 0 90 3f 60
        E 390 80 3f 00
        <X 90 0
          /wVsb3Zl
        >
        E 0 90 3f 60
        E 870 80 3f 00
        E 330 80 69 00
        E 0 80 74 00
        E 960 90 69 60
        <X 480 0
          /wVEb24ndA==
        >
        E 0 90 3f 60
        E 150 80 3f 00
        <X 90 0
          /wV5b3U=
        >
        E 0 90 3f 60
        E 150 80 3f 00
        <X 90 0
          /wVyZS0=
        >
        E 0 90 3f 60
        E 180 80 3f 00
        <X 60 0
          /wVhLQ==
        >
        E 0 90 3f 60
        E 240 80 3f 00
        <X 240 0
          /wVsaXpl
        >
        E 0 90 3f 60
        E 870 80 3f 00
        E 90 90 01 60
        E 58 80 01 00
        <X 1382 0
          /wVJ
        >
        E 0 90 3f 60
        E 150 80 3f 00
        <X 90 0
          /wVsb25n
        >
        E 0 90 3f 60
        E 330 80 3f 00
        <X 150 0
          /wVmb3I=
        >
        E 0 90 3f 60
        E 120 80 3f 00
        <X 120 0
          /wV5b3Vy
        >
        E 0 90 3f 60
        E 390 80 3f 00
        <X 90 0
          /wVsaXBz
        >
        E 0 90 3f 60
        E 660 80 3f 00
        E 540 80 69 00
        E 960 90 69 60
        <X 480 0
          /wVEb24ndA==
        >
        E 0 90 3f 60
        E 150 80 3f 00
        <X 90 0
          /wV5b3U=
        >
        E 0 90 3f 60
        E 150 80 3f 00
        <X 90 0
          /wVyZS0=
        >
        E 0 90 3f 60
        E 180 80 3f 00
        <X 60 0
          /wVhLQ==
        >
        E 0 90 3f 60
        E 240 80 3f 00
        <X 240 0
          /wVsaXpl
        >
        E 0 90 3f 60
        E 870 80 3f 00
        E 90 90 01 60
        E 58 80 01 00
        <X 1382 0
          /wVJ
        >
        E 0 90 3f 60
        E 150 80 3f 00
        <X 90 0
          /wVsb25n
        >
        E 0 90 3f 60
        E 330 80 3f 00
        <X 150 0
          /wVmb3I=
        >
        E 0 90 3f 60
        E 120 80 3f 00
        <X 120 0
          /wV5b3Vy
        >
        E 0 90 3f 60
        E 390 80 3f 00
        <X 90 0
          /wVsaXBz
        >
        E 0 90 3f 60
        E 660 80 3f 00
        E 540 80 69 00
        E 960 90 69 60
        E 0 90 74 60
        <X 480 0
          /wVMZXQ=
        >
        E 0 90 3d 60
        E 180 80 3d 00
        <X 60 0
          /wVtZQ==
        >
        E 0 90 3d 60
        E 150 80 3d 00
        <X 90 0
          /wVvdXQ=
        >
        E 0 90 3d 60
        E 360 80 3d 00
        <X 120 0
          /wVvZg==
        >
        E 0 90 3d 60
        E 90 80 3d 00
        <X 150 0
          /wVoZXJl
        >
        E 0 90 40 60
        E 630 80 40 00
        E 90 90 01 60
        E 58 80 01 00
        <X 1862 0
          /wVsZXQ=
        >
        E 0 90 3d 60
        E 180 80 3d 00
        <X 60 0
          /wVtZQ==
        >
        E 0 90 3d 60
        E 150 80 3d 00
        <X 90 0
          /wVvdXQ=
        >
        E 0 90 3d 60
        E 360 80 3d 00
        <X 120 0
          /wVvZg==
        >
        E 0 90 3d 60
        E 90 80 3d 00
        <X 150 0
          /wVoZXJl
        >
        E 0 90 40 60
        E 630 80 40 00
        <X 90 0
          /wFbaW50ZW5zZV0=
        >
        E 0 80 69 00
        E 0 80 74 00
        E 0 90 69 60
        <X 240 0
          /wVZb3U=
        >
        E 0 90 3d 60
        E 120 80 3d 00
        <X 120 0
          /wVkcml2ZQ==
        >
        E 0 90 3d 60
        E 300 80 3d 00
        <X 180 0
          /wVtZQ==
        >
        E 0 90 40 60
        E 330 80 40 00
        <X 150 0
          /wVyb3VuZA==
        >
        E 0 90 42 60
        E 300 80 42 00
        <X 180 0
          /wVhbmQ=
        >
        E 0 90 44 60
        E 180 80 44 00
        <X 60 0
          /wVyb3VuZA==
        >
        E 0 90 42 60
        E 120 80 42 00
        <X 210 0
          /wUr
        >
        E 0 90 40 60
        E 30 80 40 00
        E 30 90 01 60
        E 58 80 01 00
        <X 32 0
          /wV5b3U=
        >
        E 0 90 40 60
        E 90 80 40 00
        <X 150 0
          /wVkcml2ZQ==
        >
        E 0 90 3d 60
        E 90 80 3d 00
        <X 150 0
          /wVtZQ==
        >
        E 0 90 40 60
        E 90 80 40 00
        <X 150 0
          /wVyb3VuZA==
        >
        E 0 90 42 60
        E 300 80 42 00
        <X 180 0
          /wVhbmQ=
        >
        E 0 90 44 60
        E 180 80 44 00
        <X 60 0
          /wVyb3VuZA==
        >
        E 0 90 42 60
        E 120 80 42 00
        <X 210 0
          /wUr
        >
        E 0 90 40 60
        E 30 80 69 00
        E 0 80 40 00
        E 0 90 69 60
        <X 120 0
          /wVVbi0=
        >
        E 0 90 40 60
        E 90 80 40 00
        <X 150 0
          /wV0aWw=
        >
        E 0 90 3d 60
        E 90 80 3d 00
        <X 150 0
          /wVJ
        >
        E 0 90 40 60
        E 90 80 40 00
        <X 150 0
          /wVjcmFzaA==
        >
        E 0 90 42 60
        E 300 80 42 00
        <X 180 0
          /wVpbi0=
        >
        E 0 90 44 60
        E 150 80 44 00
        <X 90 0
          /wV0bw==
        >
        E 0 90 42 60
        E 120 80 42 00
        <X 210 0
          /wUr
        >
        E 0 90 40 60
        E 30 80 40 00
        <X 120 0
          /wV0aGU=
        >
        E 0 90 40 60
        E 60 80 40 00
        <X 180 0
          /wVzdGFycw==
        >
        E 0 90 3d 60
        E 690 80 3d 00
        E 270 80 69 00
        E 0 90 69 60
        <X 240 0
          /wVZb3U=
        >
        E 0 90 3d 60
        E 120 80 3d 00
        <X 120 0
          /wV0YWtl
        >
        E 0 90 3d 60
        E 300 80 3d 00
        <X 180 0
          /wVtZQ==
        >
        E 0 90 40 60
        E 330 80 40 00
        <X 150 0
          /wVmb3I=
        >
        E 0 90 42 60
        E 300 80 42 00
        <X 180 0
          /wVh
        >
        E 0 90 44 60
        E 180 80 44 00
        <X 60 0
          /wVzcGlu
        >
        E 0 90 42 60
        E 120 80 42 00
        <X 210 0
          /wUr
        >
        E 0 90 40 60
        E 30 80 40 00
        E 30 90 01 60
        E 58 80 01 00
        <X 32 0
          /wV5b3U=
        >
        E 0 90 40 60
        E 90 80 40 00
        <X 150 0
          /wV0YWtl
        >
        E 0 90 3d 60
        E 90 80 3d 00
        <X 150 0
          /wVtZQ==
        >
        E 0 90 40 60
        E 90 80 40 00
        <X 150 0
          /wVmb3I=
        >
        E 0 90 42 60
        E 300 80 42 00
        <X 180 0
          /wVh
        >
        E 0 90 44 60
        E 180 80 44 00
        <X 60 0
          /wVzcGlu
        >
        E 0 90 42 60
        E 120 80 42 00
        <X 210 0
          /wUr
        >
        E 0 90 40 60
        E 30 80 69 00
        E 0 80 40 00
        E 0 90 69 60
        <X 120 0
          /wVVbi0=
        >
        E 0 90 40 60
        E 90 80 40 00
        <X 150 0
          /wV0aWw=
        >
        E 0 90 3d 60
        E 90 80 3d 00
        <X 150 0
          /wVJ
        >
        E 0 90 40 60
        E 90 80 40 00
        <X 150 0
          /wVjcmFzaA==
        >
        E 0 90 42 60
        E 300 80 42 00
        <X 180 0
          /wVpbi0=
        >
        E 0 90 44 60
        E 150 80 44 00
        <X 90 0
          /wV0bw==
        >
        E 0 90 42 60
        E 120 80 42 00
        <X 210 0
          /wUr
        >
        E 0 90 40 60
        E 30 80 40 00
        <X 120 0
          /wV0aGU=
        >
        E 0 90 40 60
        E 60 80 40 00
        <X 180 0
          /wVzdGFycw==
        >
        E 0 90 3d 60
        E 690 80 3d 00
        E 750 80 69 00
        E 960 90 69 60
        E 0 90 74 60
        <X 240 0
          /wVJJ20=
        >
        E 0 90 44 60
        E 180 80 44 00
        <X 60 0
          /wVicmVhay0=
        >
        E 0 90 42 60
        E 150 80 42 00
        <X 90 0
          /wVpbmc=
        >
        E 0 90 40 60
        E 150 80 40 00
        <X 90 0
          /wVpbi0=
        >
        E 0 90 42 60
        E 300 80 42 00
        <X 180 0
          /wV0bw==
        >
        E 0 90 44 60
        E 300 80 44 00
        <X 180 0
          /wVjYXJz
        >
        E 0 90 3d 60
        E 990 80 3d 00
        E 210 90 01 60
        E 58 80 01 00
        <X 902 0
          /wVJJ20=
        >
        E 0 90 44 60
        E 180 80 44 00
        <X 60 0
          /wVicmVhay0=
        >
        E 0 90 42 60
        E 150 80 42 00
        <X 90 0
          /wVpbmc=
        >
        E 0 90 40 60
        E 150 80 40 00
        <X 90 0
          /wVpbi0=
        >
        E 0 90 42 60
        E 300 80 42 00
        <X 180 0
          /wV0bw==
        >
        E 0 90 44 60
        E 300 80 44 00
        <X 180 0
          /wVjYXJz
        >
        E 0 90 3d 60
        E 1140 80 3d 00
        <X 300 0
          /wFbcGxheV0=
        >
        E 480 80 69 00
        E 0 80 74 00
        E 1920 90 69 60
        <X 480 0
          /wVDYW4=
        >
        E 0 90 3f 60
        E 150 80 3f 00
        <X 90 0
          /wVJ
        >
        E 0 90 3f 60
        E 150 80 3f 00
        <X 90 0
          /wViZWF0
        >
        E 0 90 3f 60
        E 180 80 3f 00
        <X 60 0
          /wUnZW0=
        >
        E 0 90 3f 60
        E 390 80 3f 00
        <X 90 0
          /wVub3c=
        >
        E 0 90 3f 60
        E 870 80 3f 00
        E 90 90 01 60
        E 58 80 01 00
        <X 1622 0
          /wVDYW4=
        >
        E 0 90 3f 60
        E 150 80 3f 00
        <X 90 0
          /wVJ
        >
        E 0 90 3f 60
        E 150 80 3f 00
        <X 90 0
          /wVnZXQ=
        >
        E 0 90 3f 60
        E 120 80 3f 00
        <X 120 0
          /wV5b3Vy
        >
        E 0 90 3f 60
        E 390 80 3f 00
        <X 90 0
          /wVsb3Zl
        >
        E 0 90 3f 60
        E 870 80 3f 00
        E 330 80 69 00
        E 960 90 69 60
        <X 480 0
          /wVDYW4=
        >
        E 0 90 3f 60
        E 150 80 3f 00
        <X 90 0
          /wVJ
        >
        E 0 90 3f 60
        E 150 80 3f 00
        <X 90 0
          /wViZWF0
        >
        E 0 90 3f 60
        E 180 80 3f 00
        <X 60 0
          /wUnZW0=
        >
        E 0 90 3f 60
        E 390 80 3f 00
        <X 90 0
          /wVub3c=
        >
        E 0 90 3f 60
        E 870 80 3f 00
        E 90 90 01 60
        E 58 80 01 00
        <X 1622 0
          /wVDYW4=
        >
        E 0 90 3f 60
        E 150 80 3f 00
        <X 90 0
          /wVJ
        >
        E 0 90 3f 60
        E 150 80 3f 00
        <X 90 0
          /wVnZXQ=
        >
        E 0 90 3f 60
        E 120 80 3f 00
        <X 120 0
          /wV5b3Vy
        >
        E 0 90 3f 60
        E 390 80 3f 00
        <X 90 0
          /wVsb3Zl
        >
        E 0 90 3f 60
        E 870 80 3f 00
        E 330 80 69 00
        E 960 90 69 60
        E 0 90 74 60
        <X 240 0
          /wVZb3U=
        >
        E 0 90 3f 60
        E 60 80 3f 00
        <X 180 0
          /wVrZWVw
        >
        E 0 90 3f 60
        E 150 80 3f 00
        <X 90 0
          /wVpZy0=
        >
        E 0 90 3f 60
        E 150 80 3f 00
        <X 90 0
          /wVub3It
        >
        E 0 90 3f 60
        E 180 80 3f 00
        <X 60 0
          /wVpbmc=
        >
        E 0 90 3f 60
        E 360 80 3f 00
        <X 120 0
          /wVtZQ==
        >
        E 0 90 3f 60
        E 870 80 3f 00
        E 90 90 01 60
        E 58 80 01 00
        <X 1622 0
          /wVhbmQ=
        >
        E 0 90 3f 60
        E 150 80 3f 00
        <X 90 0
          /wV0aGU=
        >
        E 0 90 3f 60
        E 90 80 3f 00
        <X 150 0
          /wV0ZWFyLQ==
        >
        E 0 90 3f 60
        E 120 80 3f 00
        <X 120 0
          /wVkcm9wcw==
        >
        E 0 90 3f 60
        E 390 80 3f 00
        <X 120 0
          /wVmYWxs
        >
        E 0 90 3f 60
        E 660 80 3f 00
        E 510 80 69 00
        E 0 80 74 00
        E 960 90 69 60
        <X 240 0
          /wVZb3U=
        >
        E 0 90 3f 60
        E 60 80 3f 00
        <X 180 0
          /wVrZWVw
        >
        E 0 90 3f 60
        E 150 80 3f 00
        <X 90 0
          /wVpZy0=
        >
        E 0 90 3f 60
        E 150 80 3f 00
        <X 90 0
          /wVub3It
        >
        E 0 90 3f 60
        E 180 80 3f 00
        <X 60 0
          /wVpbmc=
        >
        E 0 90 3f 60
        E 240 80 3f 00
        <X 240 0
          /wVtZQ==
        >
        E 0 90 3f 60
        E 810 80 3f 00
        E 150 90 01 60
        E 58 80 01 00
        <X 1622 0
          /wVhbmQ=
        >
        E 0 90 3f 60
        E 150 80 3f 00
        <X 90 0
          /wV0aGU=
        >
        E 0 90 3f 60
        E 90 80 3f 00
        <X 150 0
          /wV0ZWFyLQ==
        >
        E 0 90 3f 60
        E 120 80 3f 00
        <X 120 0
          /wVkcm9wcw==
        >
        E 0 90 3f 60
        E 390 80 3f 00
        <X 120 0
          /wVmYWxs
        >
        E 0 90 3f 60
        E 660 80 3f 00
        E 510 80 69 00
        E 960 90 69 60
        <X 480 0
          /wVMZXQ=
        >
        E 0 90 3d 60
        E 180 80 3d 00
        <X 60 0
          /wVtZQ==
        >
        E 0 90 3d 60
        E 150 80 3d 00
        <X 90 0
          /wVvdXQ=
        >
        E 0 90 3d 60
        E 360 80 3d 00
        <X 120 0
          /wVvZg==
        >
        E 0 90 3d 60
        E 90 80 3d 00
        <X 150 0
          /wVoZXJl
        >
        E 0 90 40 60
        E 630 80 40 00
        E 90 90 01 60
        E 58 80 01 00
        <X 1862 0
          /wVsZXQ=
        >
        E 0 90 3d 60
        E 180 80 3d 00
        <X 60 0
          /wVtZQ==
        >
        E 0 90 3d 60
        E 150 80 3d 00
        <X 90 0
          /wVvdXQ=
        >
        E 0 90 3d 60
        E 360 80 3d 00
        <X 120 0
          /wVvZg==
        >
        E 0 90 3d 60
        E 90 80 3d 00
        <X 150 0
          /wVoZXJl
        >
        E 0 90 40 60
        E 630 80 40 00
        <X 90 0
          /wFbaW50ZW5zZV0=
        >
        E 0 80 69 00
        E 0 90 69 60
        <X 240 0
          /wVZb3U=
        >
        E 0 90 3d 60
        E 120 80 3d 00
        <X 120 0
          /wVkcml2ZQ==
        >
        E 0 90 3d 60
        E 300 80 3d 00
        <X 180 0
          /wVtZQ==
        >
        E 0 90 40 60
        E 330 80 40 00
        <X 150 0
          /wVyb3VuZA==
        >
        E 0 90 42 60
        E 300 80 42 00
        <X 180 0
          /wVhbmQ=
        >
        E 0 90 44 60
        E 180 80 44 00
        <X 60 0
          /wVyb3VuZA==
        >
        E 0 90 42 60
        E 120 80 42 00
        <X 210 0
          /wUr
        >
        E 0 90 40 60
        E 30 80 40 00
        E 30 90 01 60
        E 58 80 01 00
        <X 32 0
          /wV5b3U=
        >
        E 0 90 40 60
        E 90 80 40 00
        <X 150 0
          /wVkcml2ZQ==
        >
        E 0 90 3d 60
        E 90 80 3d 00
        <X 150 0
          /wVtZQ==
        >
        E 0 90 40 60
        E 90 80 40 00
        <X 150 0
          /wVyb3VuZA==
        >
        E 0 90 42 60
        E 300 80 42 00
        <X 180 0
          /wVhbmQ=
        >
        E 0 90 44 60
        E 180 80 44 00
        <X 60 0
          /wVyb3VuZA==
        >
        E 0 90 42 60
        E 120 80 42 00
        <X 210 0
          /wUr
        >
        E 0 90 40 60
        E 30 80 40 00
        E 60 80 69 00
        E 0 90 69 60
        E 0 90 74 60
        <X 60 0
          /wVVbi0=
        >
        E 0 90 40 60
        E 90 80 40 00
        <X 150 0
          /wV0aWw=
        >
        E 0 90 3d 60
        E 90 80 3d 00
        <X 150 0
          /wVJ
        >
        E 0 90 40 60
        E 90 80 40 00
        <X 150 0
          /wVjcmFzaA==
        >
        E 0 90 42 60
        E 300 80 42 00
        <X 180 0
          /wVpbi0=
        >
        E 0 90 44 60
        E 150 80 44 00
        <X 90 0
          /wV0bw==
        >
        E 0 90 42 60
        E 120 80 42 00
        <X 210 0
          /wUr
        >
        E 0 90 40 60
        E 30 80 40 00
        <X 120 0
          /wV0aGU=
        >
        E 0 90 40 60
        E 60 80 40 00
        <X 180 0
          /wVzdGFycw==
        >
        E 0 90 3d 60
        E 690 80 3d 00
        E 270 80 69 00
        E 0 80 74 00
        E 0 90 69 60
        <X 240 0
          /wVZb3U=
        >
        E 0 90 3d 60
        E 120 80 3d 00
        <X 120 0
          /wV0YWtl
        >
        E 0 90 3d 60
        E 300 80 3d 00
        <X 180 0
          /wVtZQ==
        >
        E 0 90 40 60
        E 330 80 40 00
        <X 150 0
          /wVmb3I=
        >
        E 0 90 42 60
        E 300 80 42 00
        <X 180 0
          /wVh
        >
        E 0 90 44 60
        E 180 80 44 00
        <X 60 0
          /wVzcGlu
        >
        E 0 90 42 60
        E 120 80 42 00
        <X 210 0
          /wUr
        >
        E 0 90 40 60
        E 30 80 40 00
        E 30 90 01 60
        E 58 80 01 00
        <X 32 0
          /wV5b3U=
        >
        E 0 90 40 60
        E 90 80 40 00
        <X 150 0
          /wV0YWtl
        >
        E 0 90 3d 60
        E 90 80 3d 00
        <X 150 0
          /wVtZQ==
        >
        E 0 90 40 60
        E 90 80 40 00
        <X 150 0
          /wVmb3I=
        >
        E 0 90 42 60
        E 300 80 42 00
        <X 180 0
          /wVh
        >
        E 0 90 44 60
        E 180 80 44 00
        <X 60 0
          /wVzcGlu
        >
        E 0 90 42 60
        E 120 80 42 00
        <X 210 0
          /wUr
        >
        E 0 90 40 60
        E 30 80 69 00
        E 0 80 40 00
        E 0 90 69 60
        <X 120 0
          /wVVbi0=
        >
        E 0 90 40 60
        E 90 80 40 00
        <X 150 0
          /wV0aWw=
        >
        E 0 90 3d 60
        E 90 80 3d 00
        <X 150 0
          /wVJ
        >
        E 0 90 40 60
        E 90 80 40 00
        <X 150 0
          /wVjcmFzaA==
        >
        E 0 90 42 60
        E 300 80 42 00
        <X 180 0
          /wVpbi0=
        >
        E 0 90 44 60
        E 150 80 44 00
        <X 90 0
          /wV0bw==
        >
        E 0 90 42 60
        E 120 80 42 00
        <X 210 0
          /wUr
        >
        E 0 90 40 60
        E 30 80 40 00
        <X 120 0
          /wV0aGU=
        >
        E 0 90 40 60
        E 60 80 40 00
        <X 180 0
          /wVzdGFycw==
        >
        E 0 90 3d 60
        E 690 80 3d 00
        E 750 80 69 00
        E 960 90 69 60
        E 0 90 74 60
        <X 240 0
          /wVJJ20=
        >
        E 0 90 44 60
        E 180 80 44 00
        <X 60 0
          /wVicmVhay0=
        >
        E 0 90 42 60
        E 150 80 42 00
        <X 90 0
          /wVpbmc=
        >
        E 0 90 40 60
        E 150 80 40 00
        <X 90 0
          /wVpbi0=
        >
        E 0 90 42 60
        E 300 80 42 00
        <X 180 0
          /wV0bw==
        >
        E 0 90 44 60
        E 300 80 44 00
        <X 180 0
          /wVjYXJz
        >
        E 0 90 3d 60
        E 990 80 3d 00
        E 90 90 01 60
        E 58 80 01 00
        <X 1022 0
          /wVJJ20=
        >
        E 0 90 44 60
        E 180 80 44 00
        <X 60 0
          /wVicmVhay0=
        >
        E 0 90 42 60
        E 150 80 42 00
        <X 90 0
          /wVpbmc=
        >
        E 0 90 40 60
        E 150 80 40 00
        <X 90 0
          /wVpbi0=
        >
        E 0 90 42 60
        E 300 80 42 00
        <X 180 0
          /wV0bw==
        >
        E 0 90 44 60
        E 300 80 44 00
        <X 180 0
          /wVjYXJz
        >
        E 0 90 3d 60
        E 1140 80 3d 00
        E 780 80 69 00
        E 0 80 74 00
        <X 1440 0
          /wFbbWVsbG93XQ==
        >
        <X 0 0
          /wFbdGFtYm91cmluZV9zdGFydF0=
        >
        E 0 90 69 60
        E 480 90 60 60
        E 120 80 60 00
        E 1800 90 60 60
        E 120 80 60 00
        E 1800 90 60 60
        E 120 80 60 00
        E 1800 90 60 60
        E 120 80 60 00
        E 1320 80 69 00
        E 0 90 69 60
        E 480 90 60 60
        E 120 80 60 00
        E 1800 90 60 60
        E 120 80 60 00
        E 1800 90 60 60
        E 120 80 60 00
        E 1800 90 60 60
        E 120 80 60 00
        <X 1800 0
          /wFbcGxheV0=
        >
        E 0 80 69 00
        E 0 90 69 60
        E 480 90 60 60
        E 120 80 60 00
        E 840 90 60 60
        E 120 80 60 00
        E 840 90 60 60
        E 120 80 60 00
        E 840 90 60 60
        E 120 80 60 00
        E 840 90 60 60
        E 120 80 60 00
        E 840 90 60 60
        E 120 80 60 00
        E 840 90 60 60
        E 120 80 60 00
        E 840 90 60 60
        E 120 80 60 00
        E 360 80 69 00
        E 0 90 69 60
        E 480 90 60 60
        E 120 80 60 00
        E 840 90 60 60
        E 120 80 60 00
        E 840 90 60 60
        E 120 80 60 00
        E 840 90 60 60
        E 120 80 60 00
        E 840 90 60 60
        E 120 80 60 00
        E 840 90 60 60
        E 120 80 60 00
        E 840 90 60 60
        E 120 80 60 00
        E 840 90 60 60
        E 120 80 60 00
        E 360 80 69 00
        E 0 90 61 60
        E 0 90 69 60
        E 120 80 61 00
        E 120 90 61 60
        E 120 80 61 00
        E 120 90 60 60
        E 120 80 60 00
        E 120 90 61 60
        E 120 80 61 00
        E 120 90 61 60
        E 120 80 61 00
        E 120 90 61 60
        E 120 80 61 00
        E 120 90 60 60
        E 120 80 60 00
        E 120 90 61 60
        E 120 80 61 00
        E 120 90 61 60
        E 120 80 61 00
        E 120 90 61 60
        E 120 80 61 00
        E 120 90 60 60
        E 120 80 60 00
        E 120 90 61 60
        E 120 80 61 00
        E 120 90 61 60
        E 120 80 61 00
        E 120 90 61 60
        E 120 80 61 00
        E 120 90 60 60
        E 120 80 60 00
        E 120 90 61 60
        E 120 80 61 00
        E 120 90 61 60
        E 120 80 61 00
        E 120 90 61 60
        E 120 80 61 00
        E 120 90 60 60
        E 240 90 61 60
        E 120 80 61 00
        E 120 90 61 60
        E 120 80 61 00
        E 120 90 61 60
        E 120 80 61 00
        E 120 90 60 00
        E 0 90 60 60
        E 120 80 60 00
        E 120 90 61 60
        E 120 80 61 00
        E 120 90 61 60
        E 120 80 61 00
        E 120 90 61 60
        E 120 80 61 00
        E 120 90 60 60
        E 120 80 60 00
        E 120 90 61 60
        E 120 80 61 00
        E 120 90 61 60
        E 120 80 61 00
        E 120 90 61 60
        E 120 80 61 00
        E 120 90 60 60
        E 120 80 60 00
        E 120 90 61 60
        E 120 80 61 00
        E 120 80 69 00
        E 0 90 61 60
        E 0 90 69 60
        E 120 80 61 00
        E 120 90 61 60
        E 120 80 61 00
        E 120 90 60 60
        E 120 80 60 00
        E 120 90 61 60
        E 120 80 61 00
        E 120 90 61 60
        E 120 80 61 00
        E 120 90 61 60
        E 120 80 61 00
        E 120 90 60 60
        E 120 80 60 00
        E 120 90 61 60
        E 120 80 61 00
        E 120 90 61 60
        E 120 80 61 00
        E 120 90 61 60
        E 120 80 61 00
        E 120 90 60 60
        E 120 80 60 00
        E 120 90 61 60
        E 120 80 61 00
        E 120 90 61 60
        E 120 80 61 00
        E 120 90 61 60
        E 120 80 61 00
        E 120 90 60 60
        E 120 80 60 00
        E 120 90 61 60
        E 120 80 61 00
        E 120 90 60 60
        E 120 80 60 00
        <X 120 0
          /wFbdGFtYm91cmluZV9lbmRd
        >
        E 0 80 69 00
        <X 2160 0
          /wFbaW50ZW5zZV0=
        >
        E 0 90 69 60
        <X 240 0
          /wVZb3U=
        >
        E 0 90 3d 60
        E 120 80 3d 00
        <X 120 0
          /wVkcml2ZQ==
        >
        E 0 90 3d 60
        E 300 80 3d 00
        <X 180 0
          /wVtZQ==
        >
        E 0 90 40 60
        E 330 80 40 00
        <X 150 0
          /wVyb3VuZA==
        >
        E 0 90 42 60
        E 300 80 42 00
        <X 180 0
          /wVhbmQ=
        >
        E 0 90 44 60
        E 180 80 44 00
        <X 60 0
          /wVyb3VuZA==
        >
        E 0 90 42 60
        E 120 80 42 00
        <X 210 0
          /wUr
        >
        E 0 90 40 60
        E 30 80 40 00
        E 30 90 01 60
        E 58 80 01 00
        <X 32 0
          /wV5b3U=
        >
        E 0 90 40 60
        E 90 80 40 00
        <X 150 0
          /wVkcml2ZQ==
        >
        E 0 90 3d 60
        E 90 80 3d 00
        <X 150 0
          /wVtZQ==
        >
        E 0 90 40 60
        E 90 80 40 00
        <X 150 0
          /wVyb3VuZA==
        >
        E 0 90 42 60
        E 300 80 42 00
        <X 180 0
          /wVhbmQ=
        >
        E 0 90 44 60
        E 180 80 44 00
        <X 60 0
          /wVyb3VuZA==
        >
        E 0 90 42 60
        E 120 80 42 00
        <X 210 0
          /wUr
        >
        E 0 90 40 60
        E 30 80 40 00
        E 60 80 69 00
        E 0 90 69 60
        E 0 90 74 60
        <X 60 0
          /wVVbi0=
        >
        E 0 90 40 60
        E 90 80 40 00
        <X 150 0
          /wV0aWw=
        >
        E 0 90 3d 60
        E 90 80 3d 00
        <X 150 0
          /wVJ
        >
        E 0 90 40 60
        E 90 80 40 00
        <X 150 0
          /wVjcmFzaA==
        >
        E 0 90 42 60
        E 300 80 42 00
        <X 180 0
          /wVpbi0=
        >
        E 0 90 44 60
        E 150 80 44 00
        <X 90 0
          /wV0bw==
        >
        E 0 90 42 60
        E 120 80 42 00
        <X 210 0
          /wUr
        >
        E 0 90 40 60
        E 30 80 40 00
        <X 120 0
          /wV0aGU=
        >
        E 0 90 40 60
        E 60 80 40 00
        <X 180 0
          /wVzdGFycw==
        >
        E 0 90 3d 60
        E 690 80 3d 00
        E 270 80 69 00
        E 0 80 74 00
        E 0 90 69 60
        <X 240 0
          /wVZb3U=
        >
        E 0 90 3d 60
        E 120 80 3d 00
        <X 120 0
          /wV0YWtl
        >
        E 0 90 3d 60
        E 300 80 3d 00
        <X 180 0
          /wVtZQ==
        >
        E 0 90 40 60
        E 330 80 40 00
        <X 150 0
          /wVmb3I=
        >
        E 0 90 42 60
        E 300 80 42 00
        <X 180 0
          /wVh
        >
        E 0 90 44 60
        E 180 80 44 00
        <X 60 0
          /wVzcGlu
        >
        E 0 90 42 60
        E 120 80 42 00
        <X 210 0
          /wUr
        >
        E 0 90 40 60
        E 30 80 40 00
        E 30 90 01 60
        E 58 80 01 00
        <X 32 0
          /wV5b3U=
        >
        E 0 90 40 60
        E 90 80 40 00
        <X 150 0
          /wV0YWtl
        >
        E 0 90 3d 60
        E 90 80 3d 00
        <X 150 0
          /wVtZQ==
        >
        E 0 90 40 60
        E 90 80 40 00
        <X 150 0
          /wVmb3I=
        >
        E 0 90 42 60
        E 300 80 42 00
        <X 180 0
          /wVh
        >
        E 0 90 44 60
        E 180 80 44 00
        <X 60 0
          /wVzcGlu
        >
        E 0 90 42 60
        E 120 80 42 00
        <X 210 0
          /wUr
        >
        E 0 90 40 60
        E 30 80 69 00
        E 0 80 40 00
        E 0 90 69 60
        <X 120 0
          /wVVbi0=
        >
        E 0 90 40 60
        E 90 80 40 00
        <X 150 0
          /wV0aWw=
        >
        E 0 90 3d 60
        E 90 80 3d 00
        <X 150 0
          /wVJ
        >
        E 0 90 40 60
        E 90 80 40 00
        <X 150 0
          /wVjcmFzaA==
        >
        E 0 90 42 60
        E 300 80 42 00
        <X 180 0
          /wVpbi0=
        >
        E 0 90 44 60
        E 150 80 44 00
        <X 90 0
          /wV0bw==
        >
        E 0 90 42 60
        E 120 80 42 00
        <X 210 0
          /wUr
        >
        E 0 90 40 60
        E 30 80 40 00
        <X 120 0
          /wV0aGU=
        >
        E 0 90 40 60
        E 60 80 40 00
        <X 180 0
          /wVzdGFycw==
        >
        E 0 90 3d 60
        E 690 80 3d 00
        E 750 80 69 00
        E 960 90 69 60
        <X 240 0
          /wVJJ20=
        >
        E 0 90 44 60
        E 180 80 44 00
        <X 60 0
          /wVicmVhay0=
        >
        E 0 90 42 60
        E 150 80 42 00
        <X 90 0
          /wVpbmc=
        >
        E 0 90 40 60
        E 150 80 40 00
        <X 90 0
          /wVpbi0=
        >
        E 0 90 42 60
        E 300 80 42 00
        <X 180 0
          /wV0bw==
        >
        E 0 90 44 60
        E 300 80 44 00
        <X 180 0
          /wVjYXJz
        >
        E 0 90 3d 60
        E 990 80 3d 00
        E 90 90 01 60
        E 58 80 01 00
        <X 1022 0
          /wVJJ20=
        >
        E 0 90 44 60
        E 180 80 44 00
        <X 60 0
          /wVicmVhay0=
        >
        E 0 90 42 60
        E 150 80 42 00
        <X 90 0
          /wVpbmc=
        >
        E 0 90 40 60
        E 150 80 40 00
        <X 90 0
          /wVpbi0=
        >
        E 0 90 42 60
        E 300 80 42 00
        <X 180 0
          /wV0bw==
        >
        E 0 90 44 60
        E 300 80 44 00
        <X 180 0
          /wVjYXJz
        >
        E 0 90 3d 60
        E 1620 80 3d 00
        <X 180 0
          /wFbaWRsZV9yZWFsdGltZV0=
        >
        E 119 80 69 00
        E 7681 b0 7b 00
        GUID {81AD6F25-9ED2-4E01-85B3-798860479F6F}
        IGNTEMPO 0 120.00000000 4 4
        SRCCOLOR 6
        VELLANE 132 71 60
        COLORMAP "C:\Program Files\REAPER\Data\color_maps\rockband_guitarbass.png"
        CFGEDITVIEW -10592.485532 4.063255 11 12 0 0 0
        CFGEDIT 1 1 0 1 1 0 1 1 1 1 1 0.12500000 -4 0 1025 558 0 0 1 1 0.00000000 0 1 0 0 0.500000 0 0 1.000000 64
        KEYSNAP 0 0 "102034050607" 0 "Major"
        EVTFILTER 0 -1 -1 -1 -1 0 1 0 0 -1.00000000 -1.00000000
      >
    >
  >
  <TRACK '{C6D1B527-C612-41C7-AC57-EC03F063B1BE}'
    NAME "HARM1"
    PEAKCOL 16576
    BEAT -1
    AUTOMODE 0
    VOLPAN 1.00000000000000 0.00000000000000 -1.00000000000000 -1.00000000000000 1.00000000000000
    MUTESOLO 0 0 0
    IPHASE 0
    ISBUS 0 0
    BUSCOMP 0 0
    SHOWINMIX 1 0.666700 0.500000 1 0.500000 -1 -1 -1
    FREEMODE 0
    SEL 0
    REC 0 0 0 0 0 0 0
    VU 2
    TRACKHEIGHT 0 0
    INQ 0 0 0 0.5000000000 100 0 0 100
    NCHAN 2
    FX 0
    TRACKID {C6D1B527-C612-41C7-AC57-EC03F063B1BE}
    PERF 0
    MIDIOUT -1
    MAINSEND 1 0
    <FXCHAIN
      WNDRECT 0 38 647 451
      SHOW 0
      LASTSEL 1
      DOCKED 0
      BYPASS 0 0
      <JS "MIDI/midi_note_filter" ""
        36.000000 84.000000 - - - - - - - - - - - - - - - - - - - - - - - - - - - - - - - - - - - - - - - - - - - - - - - - - - - - - - - - - - - - - - 
      >
      FLOATPOS 0 0 0 0
      FXID {C1F1ECC2-4C3B-4267-9E27-781EAB9FEE8A}
      WAK 0
      BYPASS 0 0
      <VST "VSTi: ReaSynth (Cockos)" "reasynth.dll" 0 ""
        eXNlcu9e7f4AAAAAAgAAAAEAAAAAAAAAAgAAAAAAAAA4AAAAAAAAAA==
        AAAQAO++rd4N8K3eppvEOxe30ToAAIA/AAAAAAAAAABz+vk96WeIPQ==
        AAAAAAAAAD8AAIA/AACAPwAAAD8AABAAAAA=
      >
      FLOATPOS 0 0 0 0
      FXID {55B44FAC-C861-4AE4-A7D2-04DA626B96FC}
      WAK 0
    >
    <ITEM
      POSITION 0.00000000000000
      SNAPOFFS 0.00000000000000
      LENGTH 194.42541950113377
      LOOP 0
      ALLTAKES 0
      SEL 0
      FADEIN 1 0.000000 0.000000 1 0
      FADEOUT 1 0.000000 0.000000 1 0
      MUTE 0
      IGUID {53BE6E97-8ABE-4E95-8EDD-6BA3AFE5D641}
      IID 7
      NAME "HARM1"
      VOLPAN 1.000000 0.000000 1.000000 -1.000000
      SOFFS 0.00000000000000 0.00000000000000
      PLAYRATE 1.00000000000000 1 0.00000000000000 -1
      CHANMODE 0
      GUID {18CDD020-56E2-4FDA-98A4-A1102CFB64B2}
      <SOURCE MIDI
        HASDATA 1 480 QN
        POOLEDEVTS {C8D74030-9757-4C9F-9A19-EABE59058E85}
        <X 0 0
          /wNIQVJNMQ==
        >
        E 5760 90 69 60
        <X 480 0
          /wVDYW4=
        >
        E 0 90 3f 60
        E 150 80 3f 00
        <X 90 0
          /wVJ
        >
        E 0 90 3f 60
        E 150 80 3f 00
        <X 90 0
          /wViZWF0
        >
        E 0 90 3f 60
        E 180 80 3f 00
        <X 60 0
          /wUnZW0=
        >
        E 0 90 3f 60
        E 390 80 3f 00
        <X 90 0
          /wVub3c=
        >
        E 0 90 3f 60
        E 870 80 3f 00
        E 90 90 01 60
        E 60 80 01 00
        <X 1620 0
          /wVDYW4=
        >
        E 0 90 3f 60
        E 150 80 3f 00
        <X 90 0
          /wVJ
        >
        E 0 90 3f 60
        E 150 80 3f 00
        <X 90 0
          /wVnZXQ=
        >
        E 0 90 3f 60
        E 120 80 3f 00
        <X 120 0
          /wV5b3Vy
        >
        E 0 90 3f 60
        E 390 80 3f 00
        <X 90 0
          /wVsb3Zl
        >
        E 0 90 3f 60
        E 870 80 3f 00
        E 330 80 69 00
        E 960 90 69 60
        E 0 90 74 60
        <X 480 0
          /wVDYW4=
        >
        E 0 90 3f 60
        E 150 80 3f 00
        <X 90 0
          /wVJ
        >
        E 0 90 3f 60
        E 150 80 3f 00
        <X 90 0
          /wViZWF0
        >
        E 0 90 3f 60
        E 180 80 3f 00
        <X 60 0
          /wUnZW0=
        >
        E 0 90 3f 60
        E 390 80 3f 00
        <X 90 0
          /wVub3c=
        >
        E 0 90 3f 60
        E 870 80 3f 00
        E 330 90 01 60
        E 60 80 01 00
        <X 1380 0
          /wVDYW4=
        >
        E 0 90 3f 60
        E 150 80 3f 00
        <X 90 0
          /wVJ
        >
        E 0 90 3f 60
        E 150 80 3f 00
        <X 90 0
          /wVnZXQ=
        >
        E 0 90 3f 60
        E 120 80 3f 00
        <X 120 0
          /wV5b3Vy
        >
        E 0 90 3f 60
        E 390 80 3f 00
        <X 90 0
          /wVsb3Zl
        >
        E 0 90 3f 60
        E 870 80 3f 00
        E 330 80 69 00
        E 0 80 74 00
        E 960 90 69 60
        <X 480 0
          /wVEb24ndA==
        >
        E 0 90 3f 60
        E 150 80 3f 00
        <X 90 0
          /wV5b3U=
        >
        E 0 90 3f 60
        E 150 80 3f 00
        <X 90 0
          /wVyZS0=
        >
        E 0 90 3f 60
        E 180 80 3f 00
        <X 60 0
          /wVhLQ==
        >
        E 0 90 3f 60
        E 240 80 3f 00
        <X 240 0
          /wVsaXpl
        >
        E 0 90 3f 60
        E 870 80 3f 00
        E 90 90 01 60
        E 60 80 01 00
        <X 1380 0
          /wVJ
        >
        E 0 90 3f 60
        E 150 80 3f 00
        <X 90 0
          /wVsb25n
        >
        E 0 90 3f 60
        E 330 80 3f 00
        <X 150 0
          /wVmb3I=
        >
        E 0 90 3f 60
        E 120 80 3f 00
        <X 120 0
          /wV5b3Vy
        >
        E 0 90 3f 60
        E 390 80 3f 00
        <X 90 0
          /wVsaXBz
        >
        E 0 90 3f 60
        E 660 80 3f 00
        E 540 80 69 00
        E 960 90 69 60
        <X 480 0
          /wVEb24ndA==
        >
        E 0 90 3f 60
        E 150 80 3f 00
        <X 90 0
          /wV5b3U=
        >
        E 0 90 3f 60
        E 150 80 3f 00
        <X 90 0
          /wVyZS0=
        >
        E 0 90 3f 60
        E 180 80 3f 00
        <X 60 0
          /wVhLQ==
        >
        E 0 90 3f 60
        E 240 80 3f 00
        <X 240 0
          /wVsaXpl
        >
        E 0 90 3f 60
        E 870 80 3f 00
        E 90 90 01 60
        E 60 80 01 00
        <X 1380 0
          /wVJ
        >
        E 0 90 3f 60
        E 150 80 3f 00
        <X 90 0
          /wVsb25n
        >
        E 0 90 3f 60
        E 330 80 3f 00
        <X 150 0
          /wVmb3I=
        >
        E 0 90 3f 60
        E 120 80 3f 00
        <X 120 0
          /wV5b3Vy
        >
        E 0 90 3f 60
        E 390 80 3f 00
        <X 90 0
          /wVsaXBz
        >
        E 0 90 3f 60
        E 660 80 3f 00
        E 540 80 69 00
        E 960 90 69 60
        E 0 90 74 60
        <X 480 0
          /wVMZXQ=
        >
        E 0 90 3d 60
        E 180 80 3d 00
        <X 60 0
          /wVtZQ==
        >
        E 0 90 3d 60
        E 150 80 3d 00
        <X 90 0
          /wVvdXQ=
        >
        E 0 90 3d 60
        E 360 80 3d 00
        <X 120 0
          /wVvZg==
        >
        E 0 90 3d 60
        E 90 80 3d 00
        <X 150 0
          /wVoZXJl
        >
        E 0 90 40 60
        E 630 80 40 00
        E 90 90 01 60
        E 60 80 01 00
        <X 1860 0
          /wVsZXQ=
        >
        E 0 90 3d 60
        E 180 80 3d 00
        <X 60 0
          /wVtZQ==
        >
        E 0 90 3d 60
        E 150 80 3d 00
        <X 90 0
          /wVvdXQ=
        >
        E 0 90 3d 60
        E 360 80 3d 00
        <X 120 0
          /wVvZg==
        >
        E 0 90 3d 60
        E 90 80 3d 00
        <X 150 0
          /wVoZXJl
        >
        E 0 90 40 60
        E 630 80 40 00
        E 90 80 69 00
        E 0 80 74 00
        E 0 90 69 60
        <X 240 0
          /wVZb3U=
        >
        E 0 90 3d 60
        E 120 80 3d 00
        <X 120 0
          /wVkcml2ZQ==
        >
        E 0 90 3d 60
        E 300 80 3d 00
        <X 180 0
          /wVtZQ==
        >
        E 0 90 40 60
        E 330 80 40 00
        <X 150 0
          /wVyb3VuZA==
        >
        E 0 90 42 60
        E 300 80 42 00
        <X 180 0
          /wVhbmQ=
        >
        E 0 90 44 60
        E 180 80 44 00
        <X 60 0
          /wVyb3VuZA==
        >
        E 0 90 42 60
        E 120 80 42 00
        <X 210 0
          /wUr
        >
        E 0 90 40 60
        E 30 80 40 00
        E 30 90 01 60
        E 60 80 01 00
        <X 30 0
          /wV5b3U=
        >
        E 0 90 40 60
        E 90 80 40 00
        <X 150 0
          /wVkcml2ZQ==
        >
        E 0 90 3d 60
        E 90 80 3d 00
        <X 150 0
          /wVtZQ==
        >
        E 0 90 40 60
        E 90 80 40 00
        <X 150 0
          /wVyb3VuZA==
        >
        E 0 90 42 60
        E 300 80 42 00
        <X 180 0
          /wVhbmQ=
        >
        E 0 90 44 60
        E 180 80 44 00
        <X 60 0
          /wVyb3VuZA==
        >
        E 0 90 42 60
        E 120 80 42 00
        <X 210 0
          /wUr
        >
        E 0 90 40 60
        E 30 80 69 00
        E 0 80 40 00
        E 0 90 69 60
        <X 120 0
          /wVVbi0=
        >
        E 0 90 40 60
        E 90 80 40 00
        <X 150 0
          /wV0aWw=
        >
        E 0 90 3d 60
        E 90 80 3d 00
        <X 150 0
          /wVJ
        >
        E 0 90 40 60
        E 90 80 40 00
        <X 150 0
          /wVjcmFzaA==
        >
        E 0 90 42 60
        E 300 80 42 00
        <X 180 0
          /wVpbi0=
        >
        E 0 90 44 60
        E 150 80 44 00
        <X 90 0
          /wV0bw==
        >
        E 0 90 42 60
        E 120 80 42 00
        <X 210 0
          /wUr
        >
        E 0 90 40 60
        E 30 80 40 00
        <X 120 0
          /wV0aGU=
        >
        E 0 90 40 60
        E 60 80 40 00
        <X 180 0
          /wVzdGFycw==
        >
        E 0 90 3d 60
        E 690 80 3d 00
        E 270 80 69 00
        E 0 90 69 60
        <X 240 0
          /wVZb3U=
        >
        E 0 90 3d 60
        E 120 80 3d 00
        <X 120 0
          /wV0YWtl
        >
        E 0 90 3d 60
        E 300 80 3d 00
        <X 180 0
          /wVtZQ==
        >
        E 0 90 40 60
        E 330 80 40 00
        <X 150 0
          /wVmb3I=
        >
        E 0 90 42 60
        E 300 80 42 00
        <X 180 0
          /wVh
        >
        E 0 90 44 60
        E 180 80 44 00
        <X 60 0
          /wVzcGlu
        >
        E 0 90 42 60
        E 120 80 42 00
        <X 210 0
          /wUr
        >
        E 0 90 40 60
        E 30 80 40 00
        E 30 90 01 60
        E 60 80 01 00
        <X 30 0
          /wV5b3U=
        >
        E 0 90 40 60
        E 90 80 40 00
        <X 150 0
          /wV0YWtl
        >
        E 0 90 3d 60
        E 90 80 3d 00
        <X 150 0
          /wVtZQ==
        >
        E 0 90 40 60
        E 90 80 40 00
        <X 150 0
          /wVmb3I=
        >
        E 0 90 42 60
        E 300 80 42 00
        <X 180 0
          /wVh
        >
        E 0 90 44 60
        E 180 80 44 00
        <X 60 0
          /wVzcGlu
        >
        E 0 90 42 60
        E 120 80 42 00
        <X 210 0
          /wUr
        >
        E 0 90 40 60
        E 30 80 69 00
        E 0 80 40 00
        E 0 90 69 60
        <X 120 0
          /wVVbi0=
        >
        E 0 90 40 60
        E 90 80 40 00
        <X 150 0
          /wV0aWw=
        >
        E 0 90 3d 60
        E 90 80 3d 00
        <X 150 0
          /wVJ
        >
        E 0 90 40 60
        E 90 80 40 00
        <X 150 0
          /wVjcmFzaA==
        >
        E 0 90 42 60
        E 300 80 42 00
        <X 180 0
          /wVpbi0=
        >
        E 0 90 44 60
        E 150 80 44 00
        <X 90 0
          /wV0bw==
        >
        E 0 90 42 60
        E 120 80 42 00
        <X 210 0
          /wUr
        >
        E 0 90 40 60
        E 30 80 40 00
        <X 120 0
          /wV0aGU=
        >
        E 0 90 40 60
        E 60 80 40 00
        <X 180 0
          /wVzdGFycw==
        >
        E 0 90 3d 60
        E 690 80 3d 00
        E 750 80 69 00
        E 960 90 69 60
        E 0 90 74 60
        <X 240 0
          /wVJJ20=
        >
        E 0 90 44 60
        E 180 80 44 00
        <X 60 0
          /wVicmVhay0=
        >
        E 0 90 42 60
        E 150 80 42 00
        <X 90 0
          /wVpbmc=
        >
        E 0 90 40 60
        E 150 80 40 00
        <X 90 0
          /wVpbi0=
        >
        E 0 90 42 60
        E 300 80 42 00
        <X 180 0
          /wV0bw==
        >
        E 0 90 44 60
        E 300 80 44 00
        <X 180 0
          /wVjYXJz
        >
        E 0 90 3d 60
        E 990 80 3d 00
        E 210 90 01 60
        E 60 80 01 00
        <X 900 0
          /wVJJ20=
        >
        E 0 90 44 60
        E 180 80 44 00
        <X 60 0
          /wVicmVhay0=
        >
        E 0 90 42 60
        E 150 80 42 00
        <X 90 0
          /wVpbmc=
        >
        E 0 90 40 60
        E 150 80 40 00
        <X 90 0
          /wVpbi0=
        >
        E 0 90 42 60
        E 300 80 42 00
        <X 180 0
          /wV0bw==
        >
        E 0 90 44 60
        E 300 80 44 00
        <X 180 0
          /wVjYXJz
        >
        E 0 90 3d 60
        E 1140 80 3d 00
        E 780 80 69 00
        E 0 80 74 00
        E 1920 90 69 60
        <X 480 0
          /wVDYW4=
        >
        E 0 90 3f 60
        E 150 80 3f 00
        <X 90 0
          /wVJ
        >
        E 0 90 3f 60
        E 150 80 3f 00
        <X 90 0
          /wViZWF0
        >
        E 0 90 3f 60
        E 180 80 3f 00
        <X 60 0
          /wUnZW0=
        >
        E 0 90 3f 60
        E 390 80 3f 00
        <X 90 0
          /wVub3c=
        >
        E 0 90 3f 60
        E 870 80 3f 00
        E 90 90 01 60
        E 60 80 01 00
        <X 1620 0
          /wVDYW4=
        >
        E 0 90 3f 60
        E 150 80 3f 00
        <X 90 0
          /wVJ
        >
        E 0 90 3f 60
        E 150 80 3f 00
        <X 90 0
          /wVnZXQ=
        >
        E 0 90 3f 60
        E 120 80 3f 00
        <X 120 0
          /wV5b3Vy
        >
        E 0 90 3f 60
        E 390 80 3f 00
        <X 90 0
          /wVsb3Zl
        >
        E 0 90 3f 60
        E 870 80 3f 00
        E 330 80 69 00
        E 960 90 69 60
        <X 480 0
          /wVDYW4=
        >
        E 0 90 3f 60
        E 150 80 3f 00
        <X 90 0
          /wVJ
        >
        E 0 90 3f 60
        E 150 80 3f 00
        <X 90 0
          /wViZWF0
        >
        E 0 90 3f 60
        E 180 80 3f 00
        <X 60 0
          /wUnZW0=
        >
        E 0 90 3f 60
        E 390 80 3f 00
        <X 90 0
          /wVub3c=
        >
        E 0 90 3f 60
        E 870 80 3f 00
        E 90 90 01 60
        E 60 80 01 00
        <X 1620 0
          /wVDYW4=
        >
        E 0 90 3f 60
        E 150 80 3f 00
        <X 90 0
          /wVJ
        >
        E 0 90 3f 60
        E 150 80 3f 00
        <X 90 0
          /wVnZXQ=
        >
        E 0 90 3f 60
        E 120 80 3f 00
        <X 120 0
          /wV5b3Vy
        >
        E 0 90 3f 60
        E 390 80 3f 00
        <X 90 0
          /wVsb3Zl
        >
        E 0 90 3f 60
        E 870 80 3f 00
        E 330 80 69 00
        E 960 90 69 60
        E 0 90 74 60
        <X 240 0
          /wVZb3U=
        >
        E 0 90 3f 60
        E 60 80 3f 00
        <X 180 0
          /wVrZWVw
        >
        E 0 90 3f 60
        E 150 80 3f 00
        <X 90 0
          /wVpZy0=
        >
        E 0 90 3f 60
        E 150 80 3f 00
        <X 90 0
          /wVub3It
        >
        E 0 90 3f 60
        E 180 80 3f 00
        <X 60 0
          /wVpbmc=
        >
        E 0 90 3f 60
        E 360 80 3f 00
        <X 120 0
          /wVtZQ==
        >
        E 0 90 3f 60
        E 870 80 3f 00
        E 90 90 01 60
        E 60 80 01 00
        <X 1620 0
          /wVhbmQ=
        >
        E 0 90 3f 60
        E 150 80 3f 00
        <X 90 0
          /wV0aGU=
        >
        E 0 90 3f 60
        E 90 80 3f 00
        <X 150 0
          /wV0ZWFyLQ==
        >
        E 0 90 3f 60
        E 120 80 3f 00
        <X 120 0
          /wVkcm9wcw==
        >
        E 0 90 3f 60
        E 390 80 3f 00
        <X 120 0
          /wVmYWxs
        >
        E 0 90 3f 60
        E 660 80 3f 00
        E 510 80 69 00
        E 0 80 74 00
        E 960 90 69 60
        <X 240 0
          /wVZb3U=
        >
        E 0 90 3f 60
        E 60 80 3f 00
        <X 180 0
          /wVrZWVw
        >
        E 0 90 3f 60
        E 150 80 3f 00
        <X 90 0
          /wVpZy0=
        >
        E 0 90 3f 60
        E 150 80 3f 00
        <X 90 0
          /wVub3It
        >
        E 0 90 3f 60
        E 180 80 3f 00
        <X 60 0
          /wVpbmc=
        >
        E 0 90 3f 60
        E 240 80 3f 00
        <X 240 0
          /wVtZQ==
        >
        E 0 90 3f 60
        E 810 80 3f 00
        E 150 90 01 60
        E 60 80 01 00
        <X 1620 0
          /wVhbmQ=
        >
        E 0 90 3f 60
        E 150 80 3f 00
        <X 90 0
          /wV0aGU=
        >
        E 0 90 3f 60
        E 90 80 3f 00
        <X 150 0
          /wV0ZWFyLQ==
        >
        E 0 90 3f 60
        E 120 80 3f 00
        <X 120 0
          /wVkcm9wcw==
        >
        E 0 90 3f 60
        E 390 80 3f 00
        <X 120 0
          /wVmYWxs
        >
        E 0 90 3f 60
        E 660 80 3f 00
        E 510 80 69 00
        E 960 90 69 60
        <X 480 0
          /wVMZXQ=
        >
        E 0 90 3d 60
        E 180 80 3d 00
        <X 60 0
          /wVtZQ==
        >
        E 0 90 3d 60
        E 150 80 3d 00
        <X 90 0
          /wVvdXQ=
        >
        E 0 90 3d 60
        E 360 80 3d 00
        <X 120 0
          /wVvZg==
        >
        E 0 90 3d 60
        E 90 80 3d 00
        <X 150 0
          /wVoZXJl
        >
        E 0 90 40 60
        E 630 80 40 00
        E 90 90 01 60
        E 60 80 01 00
        <X 1860 0
          /wVsZXQ=
        >
        E 0 90 3d 60
        E 180 80 3d 00
        <X 60 0
          /wVtZQ==
        >
        E 0 90 3d 60
        E 150 80 3d 00
        <X 90 0
          /wVvdXQ=
        >
        E 0 90 3d 60
        E 360 80 3d 00
        <X 120 0
          /wVvZg==
        >
        E 0 90 3d 60
        E 90 80 3d 00
        <X 150 0
          /wVoZXJl
        >
        E 0 90 40 60
        E 630 80 40 00
        E 90 80 69 00
        E 0 90 69 60
        <X 240 0
          /wVZb3U=
        >
        E 0 90 3d 60
        E 120 80 3d 00
        <X 120 0
          /wVkcml2ZQ==
        >
        E 0 90 3d 60
        E 300 80 3d 00
        <X 180 0
          /wVtZQ==
        >
        E 0 90 40 60
        E 330 80 40 00
        <X 150 0
          /wVyb3VuZA==
        >
        E 0 90 42 60
        E 300 80 42 00
        <X 180 0
          /wVhbmQ=
        >
        E 0 90 44 60
        E 180 80 44 00
        <X 60 0
          /wVyb3VuZA==
        >
        E 0 90 42 60
        E 120 80 42 00
        <X 210 0
          /wUr
        >
        E 0 90 40 60
        E 30 80 40 00
        E 30 90 01 60
        E 60 80 01 00
        <X 30 0
          /wV5b3U=
        >
        E 0 90 40 60
        E 90 80 40 00
        <X 150 0
          /wVkcml2ZQ==
        >
        E 0 90 3d 60
        E 90 80 3d 00
        <X 150 0
          /wVtZQ==
        >
        E 0 90 40 60
        E 90 80 40 00
        <X 150 0
          /wVyb3VuZA==
        >
        E 0 90 42 60
        E 300 80 42 00
        <X 180 0
          /wVhbmQ=
        >
        E 0 90 44 60
        E 180 80 44 00
        <X 60 0
          /wVyb3VuZA==
        >
        E 0 90 42 60
        E 120 80 42 00
        <X 210 0
          /wUr
        >
        E 0 90 40 60
        E 30 80 40 00
        E 60 80 69 00
        E 0 90 69 60
        E 0 90 74 60
        <X 60 0
          /wVVbi0=
        >
        E 0 90 40 60
        E 90 80 40 00
        <X 150 0
          /wV0aWw=
        >
        E 0 90 3d 60
        E 90 80 3d 00
        <X 150 0
          /wVJ
        >
        E 0 90 40 60
        E 90 80 40 00
        <X 150 0
          /wVjcmFzaA==
        >
        E 0 90 42 60
        E 300 80 42 00
        <X 180 0
          /wVpbi0=
        >
        E 0 90 44 60
        E 150 80 44 00
        <X 90 0
          /wV0bw==
        >
        E 0 90 42 60
        E 120 80 42 00
        <X 210 0
          /wUr
        >
        E 0 90 40 60
        E 30 80 40 00
        <X 120 0
          /wV0aGU=
        >
        E 0 90 40 60
        E 60 80 40 00
        <X 180 0
          /wVzdGFycw==
        >
        E 0 90 3d 60
        E 690 80 3d 00
        E 270 80 69 00
        E 0 80 74 00
        E 0 90 69 60
        <X 240 0
          /wVZb3U=
        >
        E 0 90 3d 60
        E 120 80 3d 00
        <X 120 0
          /wV0YWtl
        >
        E 0 90 3d 60
        E 300 80 3d 00
        <X 180 0
          /wVtZQ==
        >
        E 0 90 40 60
        E 330 80 40 00
        <X 150 0
          /wVmb3I=
        >
        E 0 90 42 60
        E 300 80 42 00
        <X 180 0
          /wVh
        >
        E 0 90 44 60
        E 180 80 44 00
        <X 60 0
          /wVzcGlu
        >
        E 0 90 42 60
        E 120 80 42 00
        <X 210 0
          /wUr
        >
        E 0 90 40 60
        E 30 80 40 00
        E 30 90 01 60
        E 60 80 01 00
        <X 30 0
          /wV5b3U=
        >
        E 0 90 40 60
        E 90 80 40 00
        <X 150 0
          /wV0YWtl
        >
        E 0 90 3d 60
        E 90 80 3d 00
        <X 150 0
          /wVtZQ==
        >
        E 0 90 40 60
        E 90 80 40 00
        <X 150 0
          /wVmb3I=
        >
        E 0 90 42 60
        E 300 80 42 00
        <X 180 0
          /wVh
        >
        E 0 90 44 60
        E 180 80 44 00
        <X 60 0
          /wVzcGlu
        >
        E 0 90 42 60
        E 120 80 42 00
        <X 210 0
          /wUr
        >
        E 0 90 40 60
        E 30 80 69 00
        E 0 80 40 00
        E 0 90 69 60
        <X 120 0
          /wVVbi0=
        >
        E 0 90 40 60
        E 90 80 40 00
        <X 150 0
          /wV0aWw=
        >
        E 0 90 3d 60
        E 90 80 3d 00
        <X 150 0
          /wVJ
        >
        E 0 90 40 60
        E 90 80 40 00
        <X 150 0
          /wVjcmFzaA==
        >
        E 0 90 42 60
        E 300 80 42 00
        <X 180 0
          /wVpbi0=
        >
        E 0 90 44 60
        E 150 80 44 00
        <X 90 0
          /wV0bw==
        >
        E 0 90 42 60
        E 120 80 42 00
        <X 210 0
          /wUr
        >
        E 0 90 40 60
        E 30 80 40 00
        <X 120 0
          /wV0aGU=
        >
        E 0 90 40 60
        E 60 80 40 00
        <X 180 0
          /wVzdGFycw==
        >
        E 0 90 3d 60
        E 690 80 3d 00
        E 750 80 69 00
        E 960 90 69 60
        E 0 90 74 60
        <X 240 0
          /wVJJ20=
        >
        E 0 90 44 60
        E 180 80 44 00
        <X 60 0
          /wVicmVhay0=
        >
        E 0 90 42 60
        E 150 80 42 00
        <X 90 0
          /wVpbmc=
        >
        E 0 90 40 60
        E 150 80 40 00
        <X 90 0
          /wVpbi0=
        >
        E 0 90 42 60
        E 300 80 42 00
        <X 180 0
          /wV0bw==
        >
        E 0 90 44 60
        E 300 80 44 00
        <X 180 0
          /wVjYXJz
        >
        E 0 90 3d 60
        E 990 80 3d 00
        E 90 90 01 60
        E 60 80 01 00
        <X 1020 0
          /wVJJ20=
        >
        E 0 90 44 60
        E 180 80 44 00
        <X 60 0
          /wVicmVhay0=
        >
        E 0 90 42 60
        E 150 80 42 00
        <X 90 0
          /wVpbmc=
        >
        E 0 90 40 60
        E 150 80 40 00
        <X 90 0
          /wVpbi0=
        >
        E 0 90 42 60
        E 300 80 42 00
        <X 180 0
          /wV0bw==
        >
        E 0 90 44 60
        E 300 80 44 00
        <X 180 0
          /wVjYXJz
        >
        E 0 90 3d 60
        E 1140 80 3d 00
        E 780 80 69 00
        E 0 80 74 00
        E 46560 90 69 60
        <X 240 0
          /wVZb3U=
        >
        E 0 90 3d 60
        E 120 80 3d 00
        <X 120 0
          /wVkcml2ZQ==
        >
        E 0 90 3d 60
        E 300 80 3d 00
        <X 180 0
          /wVtZQ==
        >
        E 0 90 40 60
        E 330 80 40 00
        <X 150 0
          /wVyb3VuZA==
        >
        E 0 90 42 60
        E 300 80 42 00
        <X 180 0
          /wVhbmQ=
        >
        E 0 90 44 60
        E 180 80 44 00
        <X 60 0
          /wVyb3VuZA==
        >
        E 0 90 42 60
        E 120 80 42 00
        <X 210 0
          /wUr
        >
        E 0 90 40 60
        E 30 80 40 00
        E 30 90 01 60
        E 60 80 01 00
        <X 30 0
          /wV5b3U=
        >
        E 0 90 40 60
        E 90 80 40 00
        <X 150 0
          /wVkcml2ZQ==
        >
        E 0 90 3d 60
        E 90 80 3d 00
        <X 150 0
          /wVtZQ==
        >
        E 0 90 40 60
        E 90 80 40 00
        <X 150 0
          /wVyb3VuZA==
        >
        E 0 90 42 60
        E 300 80 42 00
        <X 180 0
          /wVhbmQ=
        >
        E 0 90 44 60
        E 180 80 44 00
        <X 60 0
          /wVyb3VuZA==
        >
        E 0 90 42 60
        E 120 80 42 00
        <X 210 0
          /wUr
        >
        E 0 90 40 60
        E 30 80 40 00
        E 60 80 69 00
        E 0 90 74 60
        E 1 90 69 60
        <X 59 0
          /wVVbi0=
        >
        E 0 90 40 60
        E 90 80 40 00
        <X 150 0
          /wV0aWw=
        >
        E 0 90 3d 60
        E 90 80 3d 00
        <X 150 0
          /wVJ
        >
        E 0 90 40 60
        E 90 80 40 00
        <X 150 0
          /wVjcmFzaA==
        >
        E 0 90 42 60
        E 300 80 42 00
        <X 180 0
          /wVpbi0=
        >
        E 0 90 44 60
        E 150 80 44 00
        <X 90 0
          /wV0bw==
        >
        E 0 90 42 60
        E 120 80 42 00
        <X 210 0
          /wUr
        >
        E 0 90 40 60
        E 30 80 40 00
        <X 120 0
          /wV0aGU=
        >
        E 0 90 40 60
        E 60 80 40 00
        <X 180 0
          /wVzdGFycw==
        >
        E 0 90 3d 60
        E 690 80 3d 00
        E 269 80 74 00
        E 1 80 69 00
        E 0 90 69 60
        <X 240 0
          /wVZb3U=
        >
        E 0 90 3d 60
        E 120 80 3d 00
        <X 120 0
          /wV0YWtl
        >
        E 0 90 3d 60
        E 300 80 3d 00
        <X 180 0
          /wVtZQ==
        >
        E 0 90 40 60
        E 330 80 40 00
        <X 150 0
          /wVmb3I=
        >
        E 0 90 42 60
        E 300 80 42 00
        <X 180 0
          /wVh
        >
        E 0 90 44 60
        E 180 80 44 00
        <X 60 0
          /wVzcGlu
        >
        E 0 90 42 60
        E 120 80 42 00
        <X 210 0
          /wUr
        >
        E 0 90 40 60
        E 30 80 40 00
        E 30 90 01 60
        E 60 80 01 00
        <X 30 0
          /wV5b3U=
        >
        E 0 90 40 60
        E 90 80 40 00
        <X 150 0
          /wV0YWtl
        >
        E 0 90 3d 60
        E 90 80 3d 00
        <X 150 0
          /wVtZQ==
        >
        E 0 90 40 60
        E 90 80 40 00
        <X 150 0
          /wVmb3I=
        >
        E 0 90 42 60
        E 300 80 42 00
        <X 180 0
          /wVh
        >
        E 0 90 44 60
        E 180 80 44 00
        <X 60 0
          /wVzcGlu
        >
        E 0 90 42 60
        E 120 80 42 00
        <X 210 0
          /wUr
        >
        E 0 90 40 60
        E 30 80 69 00
        E 0 80 40 00
        E 0 90 69 60
        <X 120 0
          /wVVbi0=
        >
        E 0 90 40 60
        E 90 80 40 00
        <X 150 0
          /wV0aWw=
        >
        E 0 90 3d 60
        E 90 80 3d 00
        <X 150 0
          /wVJ
        >
        E 0 90 40 60
        E 90 80 40 00
        <X 150 0
          /wVjcmFzaA==
        >
        E 0 90 42 60
        E 300 80 42 00
        <X 180 0
          /wVpbi0=
        >
        E 0 90 44 60
        E 150 80 44 00
        <X 90 0
          /wV0bw==
        >
        E 0 90 42 60
        E 120 80 42 00
        <X 210 0
          /wUr
        >
        E 0 90 40 60
        E 30 80 40 00
        <X 120 0
          /wV0aGU=
        >
        E 0 90 40 60
        E 60 80 40 00
        <X 180 0
          /wVzdGFycw==
        >
        E 0 90 3d 60
        E 690 80 3d 00
        E 750 80 69 00
        E 960 90 69 60
        <X 240 0
          /wVJJ20=
        >
        E 0 90 44 60
        E 180 80 44 00
        <X 60 0
          /wVicmVhay0=
        >
        E 0 90 42 60
        E 150 80 42 00
        <X 90 0
          /wVpbmc=
        >
        E 0 90 40 60
        E 150 80 40 00
        <X 90 0
          /wVpbi0=
        >
        E 0 90 42 60
        E 300 80 42 00
        <X 180 0
          /wV0bw==
        >
        E 0 90 44 60
        E 300 80 44 00
        <X 180 0
          /wVjYXJz
        >
        E 0 90 3d 60
        E 990 80 3d 00
        E 90 90 01 60
        E 60 80 01 00
        <X 1020 0
          /wVJJ20=
        >
        E 0 90 44 60
        E 180 80 44 00
        <X 60 0
          /wVicmVhay0=
        >
        E 0 90 42 60
        E 150 80 42 00
        <X 90 0
          /wVpbmc=
        >
        E 0 90 40 60
        E 150 80 40 00
        <X 90 0
          /wVpbi0=
        >
        E 0 90 42 60
        E 300 80 42 00
        <X 180 0
          /wV0bw==
        >
        E 0 90 44 60
        E 300 80 44 00
        <X 180 0
          /wVjYXJz
        >
        E 0 90 3d 60
        E 1620 80 3d 00
        E 299 80 69 00
        E 7681 b0 7b 00
        GUID {C27B9842-49F2-4DBA-BE46-C47E5488FE2D}
        IGNTEMPO 0 120.00000000 4 4
        SRCCOLOR 7
        VELLANE 132 71 60
        COLORMAP "C:\Program Files\REAPER\Data\color_maps\rockband_guitarbass.png"
        CFGEDITVIEW -10463.993182 4.063255 45 12 0 0 0
        CFGEDIT 1 1 0 1 1 0 1 1 1 1 1 0.12500000 -4 0 1025 558 0 0 1 1 0.00000000 0 1 0 0 0.500000 0 0 1.000000 64
        KEYSNAP 0 0 "102034050607" 0 "Major"
        EVTFILTER 0 -1 -1 -1 -1 0 1 0 0 -1.00000000 -1.00000000
      >
    >
  >
  <TRACK '{AFCAAC24-6EEF-454F-863A-EACC95C9138C}'
    NAME "HARM2"
    PEAKCOL 16576
    BEAT -1
    AUTOMODE 0
    VOLPAN 1.00000000000000 0.00000000000000 -1.00000000000000 -1.00000000000000 1.00000000000000
    MUTESOLO 0 0 0
    IPHASE 0
    ISBUS 0 0
    BUSCOMP 0 0
    SHOWINMIX 1 0.666700 0.500000 1 0.500000 -1 -1 -1
    FREEMODE 0
    SEL 0
    REC 0 0 0 0 0 0 0
    VU 2
    TRACKHEIGHT 0 0
    INQ 0 0 0 0.5000000000 100 0 0 100
    NCHAN 2
    FX 0
    TRACKID {AFCAAC24-6EEF-454F-863A-EACC95C9138C}
    PERF 0
    MIDIOUT -1
    MAINSEND 1 0
    <FXCHAIN
      WNDRECT 0 38 708 451
      SHOW 0
      LASTSEL 1
      DOCKED 0
      BYPASS 0 0
      <JS "MIDI/midi_note_filter" ""
        36.000000 84.000000 - - - - - - - - - - - - - - - - - - - - - - - - - - - - - - - - - - - - - - - - - - - - - - - - - - - - - - - - - - - - - - 
      >
      FLOATPOS 0 0 0 0
      FXID {615C6332-5B9A-4367-880D-A9415B0BC1B8}
      WAK 0
      BYPASS 0 0
      <VST "VSTi: ReaSynth (Cockos)" "reasynth.dll" 0 ""
        eXNlcu9e7f4AAAAAAgAAAAEAAAAAAAAAAgAAAAAAAAA4AAAAAAAAAA==
        AAAQAO++rd4N8K3eppvEOxe30ToAAIA/AAAAAAAAAAAWAY496WeIPQ==
        AAAAAAAAAD8AAIA/AACAPwAAAD8AABAAAAA=
      >
      FLOATPOS 0 0 0 0
      FXID {155AD2A3-A19A-44B9-B88F-B970EF7FF328}
      WAK 0
    >
    <ITEM
      POSITION 0.00000000000000
      SNAPOFFS 0.00000000000000
      LENGTH 194.42541950113377
      LOOP 0
      ALLTAKES 0
      SEL 0
      FADEIN 1 0.000000 0.000000 1 0
      FADEOUT 1 0.000000 0.000000 1 0
      MUTE 0
      IGUID {BAB6EE33-6448-48AA-AF93-89C54927F062}
      IID 8
      NAME "HARM2"
      VOLPAN 1.000000 0.000000 1.000000 -1.000000
      SOFFS 0.00000000000000 0.00000000000000
      PLAYRATE 1.00000000000000 1 0.00000000000000 -1
      CHANMODE 0
      GUID {129B534E-3A06-4251-874E-49528150C855}
      <SOURCE MIDI
        HASDATA 1 480 QN
        POOLEDEVTS {2ABFBDBD-B98D-401E-8FB0-D73D75B574A4}
        <X 0 0
          /wNIQVJNMg==
        >
        E 5760 90 69 60
        <X 480 0
          /wVDYW4=
        >
        E 0 90 44 60
        E 150 80 44 00
        <X 90 0
          /wVJ
        >
        E 0 90 44 60
        E 150 80 44 00
        <X 90 0
          /wViZWF0
        >
        E 0 90 44 60
        E 180 80 44 00
        <X 60 0
          /wUnZW0=
        >
        E 0 90 44 60
        E 390 80 44 00
        <X 90 0
          /wVub3c=
        >
        E 0 90 44 60
        E 870 80 44 00
        E 90 80 69 00
        E 0 90 69 60
        <X 1680 0
          /wVDYW4=
        >
        E 0 90 44 60
        E 150 80 44 00
        <X 90 0
          /wVJ
        >
        E 0 90 44 60
        E 150 80 44 00
        <X 90 0
          /wVnZXQ=
        >
        E 0 90 44 60
        E 120 80 44 00
        <X 120 0
          /wV5b3Vy
        >
        E 0 90 44 60
        E 390 80 44 00
        <X 90 0
          /wVsb3Zl
        >
        E 0 90 44 60
        E 870 80 44 00
        E 330 80 69 00
        E 960 90 69 60
        <X 480 0
          /wVDYW4=
        >
        E 0 90 44 60
        E 150 80 44 00
        <X 90 0
          /wVJ
        >
        E 0 90 44 60
        E 150 80 44 00
        <X 90 0
          /wViZWF0
        >
        E 0 90 44 60
        E 180 80 44 00
        <X 60 0
          /wUnZW0=
        >
        E 0 90 44 60
        E 390 80 44 00
        <X 90 0
          /wVub3c=
        >
        E 0 90 44 60
        E 870 80 44 00
        E 330 80 69 00
        E 0 90 69 60
        <X 1440 0
          /wVDYW4=
        >
        E 0 90 44 60
        E 150 80 44 00
        <X 90 0
          /wVJ
        >
        E 0 90 44 60
        E 150 80 44 00
        <X 90 0
          /wVnZXQ=
        >
        E 0 90 44 60
        E 120 80 44 00
        <X 120 0
          /wV5b3Vy
        >
        E 0 90 44 60
        E 390 80 44 00
        <X 90 0
          /wVsb3Zl
        >
        E 0 90 44 60
        E 870 80 44 00
        E 330 80 69 00
        E 960 90 69 60
        <X 480 0
          /wVEb24ndA==
        >
        E 0 90 44 60
        E 150 80 44 00
        <X 90 0
          /wV5b3U=
        >
        E 0 90 44 60
        E 150 80 44 00
        <X 90 0
          /wVyZS0=
        >
        E 0 90 44 60
        E 180 80 44 00
        <X 60 0
          /wVhLQ==
        >
        E 0 90 44 60
        E 240 80 44 00
        <X 240 0
          /wVsaXpl
        >
        E 0 90 44 60
        E 870 80 44 00
        E 90 80 69 00
        E 0 90 69 60
        <X 1440 0
          /wVJ
        >
        E 0 90 44 60
        E 150 80 44 00
        <X 90 0
          /wVsb25n
        >
        E 0 90 44 60
        E 330 80 44 00
        <X 150 0
          /wVmb3I=
        >
        E 0 90 44 60
        E 120 80 44 00
        <X 120 0
          /wV5b3Vy
        >
        E 0 90 44 60
        E 390 80 44 00
        <X 90 0
          /wVsaXBz
        >
        E 0 90 44 60
        E 660 80 44 00
        E 540 80 69 00
        E 960 90 69 60
        <X 480 0
          /wVEb24ndA==
        >
        E 0 90 44 60
        E 150 80 44 00
        <X 90 0
          /wV5b3U=
        >
        E 0 90 44 60
        E 150 80 44 00
        <X 90 0
          /wVyZS0=
        >
        E 0 90 44 60
        E 180 80 44 00
        <X 60 0
          /wVhLQ==
        >
        E 0 90 44 60
        E 240 80 44 00
        <X 240 0
          /wVsaXpl
        >
        E 0 90 44 60
        E 870 80 44 00
        E 90 80 69 00
        E 0 90 69 60
        <X 1440 0
          /wVJ
        >
        E 0 90 44 60
        E 150 80 44 00
        <X 90 0
          /wVsb25n
        >
        E 0 90 44 60
        E 330 80 44 00
        <X 150 0
          /wVmb3I=
        >
        E 0 90 44 60
        E 120 80 44 00
        <X 120 0
          /wV5b3Vy
        >
        E 0 90 44 60
        E 390 80 44 00
        <X 90 0
          /wVsaXBz
        >
        E 0 90 44 60
        E 660 80 44 00
        E 540 80 69 00
        E 960 90 69 60
        <X 480 0
          /wVMZXQ=
        >
        E 0 90 3d 60
        E 180 80 3d 00
        <X 60 0
          /wVtZQ==
        >
        E 0 90 3d 60
        E 150 80 3d 00
        <X 90 0
          /wVvdXQ=
        >
        E 0 90 3d 60
        E 360 80 3d 00
        <X 120 0
          /wVvZg==
        >
        E 0 90 3d 60
        E 90 80 3d 00
        <X 150 0
          /wVoZXJl
        >
        E 0 90 40 60
        E 630 80 40 00
        E 90 80 69 00
        E 0 90 69 60
        <X 1920 0
          /wVsZXQ=
        >
        E 0 90 3d 60
        E 180 80 3d 00
        <X 60 0
          /wVtZQ==
        >
        E 0 90 3d 60
        E 150 80 3d 00
        <X 90 0
          /wVvdXQ=
        >
        E 0 90 3d 60
        E 360 80 3d 00
        <X 120 0
          /wVvZg==
        >
        E 0 90 3d 60
        E 90 80 3d 00
        <X 150 0
          /wVoZXJl
        >
        E 0 90 40 60
        E 630 80 40 00
        E 90 80 69 00
        E 0 90 69 60
        <X 240 0
          /wVZb3U=
        >
        E 0 90 3d 60
        E 120 80 3d 00
        <X 120 0
          /wVkcml2ZQ==
        >
        E 0 90 3d 60
        E 300 80 3d 00
        <X 180 0
          /wVtZQ==
        >
        E 0 90 40 60
        E 330 80 40 00
        <X 150 0
          /wVyb3VuZA==
        >
        E 0 90 42 60
        E 300 80 42 00
        <X 180 0
          /wVhbmQ=
        >
        E 0 90 44 60
        E 180 80 44 00
        <X 60 0
          /wVyb3VuZA==
        >
        E 0 90 42 60
        E 120 80 42 00
        <X 210 0
          /wUr
        >
        E 0 90 40 60
        E 30 80 40 00
        E 30 80 69 00
        E 0 90 69 60
        <X 90 0
          /wV5b3U=
        >
        E 0 90 40 60
        E 90 80 40 00
        <X 150 0
          /wVkcml2ZQ==
        >
        E 0 90 3d 60
        E 90 80 3d 00
        <X 150 0
          /wVtZQ==
        >
        E 0 90 40 60
        E 90 80 40 00
        <X 150 0
          /wVyb3VuZA==
        >
        E 0 90 42 60
        E 300 80 42 00
        <X 180 0
          /wVhbmQ=
        >
        E 0 90 44 60
        E 180 80 44 00
        <X 60 0
          /wVyb3VuZA==
        >
        E 0 90 42 60
        E 120 80 42 00
        <X 210 0
          /wUr
        >
        E 0 90 40 60
        E 30 80 69 00
        E 0 80 40 00
        E 0 90 69 60
        <X 120 0
          /wVVbi0=
        >
        E 0 90 40 60
        E 90 80 40 00
        <X 150 0
          /wV0aWw=
        >
        E 0 90 3d 60
        E 90 80 3d 00
        <X 150 0
          /wVJ
        >
        E 0 90 40 60
        E 90 80 40 00
        <X 150 0
          /wVjcmFzaA==
        >
        E 0 90 42 60
        E 300 80 42 00
        <X 180 0
          /wVpbi0=
        >
        E 0 90 44 60
        E 150 80 44 00
        <X 90 0
          /wV0bw==
        >
        E 0 90 42 60
        E 120 80 42 00
        <X 210 0
          /wUr
        >
        E 0 90 40 60
        E 30 80 40 00
        <X 120 0
          /wV0aGU=
        >
        E 0 90 40 60
        E 60 80 40 00
        <X 180 0
          /wVzdGFycw==
        >
        E 0 90 3d 60
        E 690 80 3d 00
        E 270 80 69 00
        E 0 90 69 60
        <X 240 0
          /wVZb3U=
        >
        E 0 90 3d 60
        E 120 80 3d 00
        <X 120 0
          /wV0YWtl
        >
        E 0 90 3d 60
        E 300 80 3d 00
        <X 180 0
          /wVtZQ==
        >
        E 0 90 40 60
        E 330 80 40 00
        <X 150 0
          /wVmb3I=
        >
        E 0 90 42 60
        E 300 80 42 00
        <X 180 0
          /wVh
        >
        E 0 90 44 60
        E 180 80 44 00
        <X 60 0
          /wVzcGlu
        >
        E 0 90 42 60
        E 120 80 42 00
        <X 210 0
          /wUr
        >
        E 0 90 40 60
        E 30 80 40 00
        E 30 80 69 00
        E 0 90 69 60
        <X 90 0
          /wV5b3U=
        >
        E 0 90 40 60
        E 90 80 40 00
        <X 150 0
          /wV0YWtl
        >
        E 0 90 3d 60
        E 90 80 3d 00
        <X 150 0
          /wVtZQ==
        >
        E 0 90 40 60
        E 90 80 40 00
        <X 150 0
          /wVmb3I=
        >
        E 0 90 42 60
        E 300 80 42 00
        <X 180 0
          /wVh
        >
        E 0 90 44 60
        E 180 80 44 00
        <X 60 0
          /wVzcGlu
        >
        E 0 90 42 60
        E 120 80 42 00
        <X 210 0
          /wUr
        >
        E 0 90 40 60
        E 30 80 69 00
        E 0 80 40 00
        E 0 90 69 60
        <X 120 0
          /wVVbi0=
        >
        E 0 90 40 60
        E 90 80 40 00
        <X 150 0
          /wV0aWw=
        >
        E 0 90 3d 60
        E 90 80 3d 00
        <X 150 0
          /wVJ
        >
        E 0 90 40 60
        E 90 80 40 00
        <X 150 0
          /wVjcmFzaA==
        >
        E 0 90 42 60
        E 300 80 42 00
        <X 180 0
          /wVpbi0=
        >
        E 0 90 44 60
        E 150 80 44 00
        <X 90 0
          /wV0bw==
        >
        E 0 90 42 60
        E 120 80 42 00
        <X 210 0
          /wUr
        >
        E 0 90 40 60
        E 30 80 40 00
        <X 120 0
          /wV0aGU=
        >
        E 0 90 40 60
        E 60 80 40 00
        <X 180 0
          /wVzdGFycw==
        >
        E 0 90 3d 60
        E 690 80 3d 00
        E 750 80 69 00
        E 960 90 69 60
        <X 240 0
          /wVJJ20=
        >
        E 0 90 44 60
        E 180 80 44 00
        <X 60 0
          /wVicmVhay0=
        >
        E 0 90 42 60
        E 150 80 42 00
        <X 90 0
          /wVpbmc=
        >
        E 0 90 40 60
        E 150 80 40 00
        <X 90 0
          /wVpbi0=
        >
        E 0 90 42 60
        E 300 80 42 00
        <X 180 0
          /wV0bw==
        >
        E 0 90 44 60
        E 300 80 44 00
        <X 180 0
          /wVjYXJz
        >
        E 0 90 3d 60
        E 990 80 3d 00
        E 210 80 69 00
        E 0 90 69 60
        <X 960 0
          /wVJJ20=
        >
        E 0 90 44 60
        E 180 80 44 00
        <X 60 0
          /wVicmVhay0=
        >
        E 0 90 42 60
        E 150 80 42 00
        <X 90 0
          /wVpbmc=
        >
        E 0 90 40 60
        E 150 80 40 00
        <X 90 0
          /wVpbi0=
        >
        E 0 90 42 60
        E 300 80 42 00
        <X 180 0
          /wV0bw==
        >
        E 0 90 44 60
        E 300 80 44 00
        <X 180 0
          /wVjYXJz
        >
        E 0 90 3d 60
        E 1140 80 3d 00
        E 780 80 69 00
        E 1920 90 69 60
        <X 480 0
          /wVDYW4=
        >
        E 0 90 44 60
        E 150 80 44 00
        <X 90 0
          /wVJ
        >
        E 0 90 44 60
        E 150 80 44 00
        <X 90 0
          /wViZWF0
        >
        E 0 90 44 60
        E 180 80 44 00
        <X 60 0
          /wUnZW0=
        >
        E 0 90 44 60
        E 390 80 44 00
        <X 90 0
          /wVub3c=
        >
        E 0 90 44 60
        E 870 80 44 00
        E 90 80 69 00
        E 0 90 69 60
        <X 1680 0
          /wVDYW4=
        >
        E 0 90 44 60
        E 150 80 44 00
        <X 90 0
          /wVJ
        >
        E 0 90 44 60
        E 150 80 44 00
        <X 90 0
          /wVnZXQ=
        >
        E 0 90 44 60
        E 120 80 44 00
        <X 120 0
          /wV5b3Vy
        >
        E 0 90 44 60
        E 390 80 44 00
        <X 90 0
          /wVsb3Zl
        >
        E 0 90 44 60
        E 870 80 44 00
        E 330 80 69 00
        E 960 90 69 60
        <X 480 0
          /wVDYW4=
        >
        E 0 90 44 60
        E 150 80 44 00
        <X 90 0
          /wVJ
        >
        E 0 90 44 60
        E 150 80 44 00
        <X 90 0
          /wViZWF0
        >
        E 0 90 44 60
        E 180 80 44 00
        <X 60 0
          /wUnZW0=
        >
        E 0 90 44 60
        E 390 80 44 00
        <X 90 0
          /wVub3c=
        >
        E 0 90 44 60
        E 870 80 44 00
        E 90 80 69 00
        E 0 90 69 60
        <X 1680 0
          /wVDYW4=
        >
        E 0 90 44 60
        E 150 80 44 00
        <X 90 0
          /wVJ
        >
        E 0 90 44 60
        E 150 80 44 00
        <X 90 0
          /wVnZXQ=
        >
        E 0 90 44 60
        E 120 80 44 00
        <X 120 0
          /wV5b3Vy
        >
        E 0 90 44 60
        E 390 80 44 00
        <X 90 0
          /wVsb3Zl
        >
        E 0 90 44 60
        E 870 80 44 00
        E 330 80 69 00
        E 960 90 69 60
        <X 240 0
          /wVZb3U=
        >
        E 0 90 44 60
        E 60 80 44 00
        <X 180 0
          /wVrZWVw
        >
        E 0 90 44 60
        E 150 80 44 00
        <X 90 0
          /wVpZy0=
        >
        E 0 90 44 60
        E 150 80 44 00
        <X 90 0
          /wVub3It
        >
        E 0 90 44 60
        E 180 80 44 00
        <X 60 0
          /wVpbmc=
        >
        E 0 90 44 60
        E 360 80 44 00
        <X 120 0
          /wVtZQ==
        >
        E 0 90 44 60
        E 870 80 44 00
        E 90 80 69 00
        E 0 90 69 60
        <X 1680 0
          /wVhbmQ=
        >
        E 0 90 44 60
        E 150 80 44 00
        <X 90 0
          /wV0aGU=
        >
        E 0 90 44 60
        E 90 80 44 00
        <X 150 0
          /wV0ZWFyLQ==
        >
        E 0 90 44 60
        E 120 80 44 00
        <X 120 0
          /wVkcm9wcw==
        >
        E 0 90 44 60
        E 390 80 44 00
        <X 120 0
          /wVmYWxs
        >
        E 0 90 44 60
        E 660 80 44 00
        E 510 80 69 00
        E 960 90 69 60
        <X 240 0
          /wVZb3U=
        >
        E 0 90 44 60
        E 60 80 44 00
        <X 180 0
          /wVrZWVw
        >
        E 0 90 44 60
        E 150 80 44 00
        <X 90 0
          /wVpZy0=
        >
        E 0 90 44 60
        E 150 80 44 00
        <X 90 0
          /wVub3It
        >
        E 0 90 44 60
        E 180 80 44 00
        <X 60 0
          /wVpbmc=
        >
        E 0 90 44 60
        E 240 80 44 00
        <X 240 0
          /wVtZQ==
        >
        E 0 90 44 60
        E 810 80 44 00
        E 150 80 69 00
        E 0 90 69 60
        <X 1680 0
          /wVhbmQ=
        >
        E 0 90 44 60
        E 150 80 44 00
        <X 90 0
          /wV0aGU=
        >
        E 0 90 44 60
        E 90 80 44 00
        <X 150 0
          /wV0ZWFyLQ==
        >
        E 0 90 44 60
        E 120 80 44 00
        <X 120 0
          /wVkcm9wcw==
        >
        E 0 90 44 60
        E 390 80 44 00
        <X 120 0
          /wVmYWxs
        >
        E 0 90 44 60
        E 660 80 44 00
        E 510 80 69 00
        E 960 90 69 60
        <X 480 0
          /wVMZXQ=
        >
        E 0 90 3d 60
        E 180 80 3d 00
        <X 60 0
          /wVtZQ==
        >
        E 0 90 3d 60
        E 150 80 3d 00
        <X 90 0
          /wVvdXQ=
        >
        E 0 90 3d 60
        E 360 80 3d 00
        <X 120 0
          /wVvZg==
        >
        E 0 90 3d 60
        E 90 80 3d 00
        <X 150 0
          /wVoZXJl
        >
        E 0 90 40 60
        E 630 80 40 00
        E 90 80 69 00
        E 0 90 69 60
        <X 1920 0
          /wVsZXQ=
        >
        E 0 90 3d 60
        E 180 80 3d 00
        <X 60 0
          /wVtZQ==
        >
        E 0 90 3d 60
        E 150 80 3d 00
        <X 90 0
          /wVvdXQ=
        >
        E 0 90 3d 60
        E 360 80 3d 00
        <X 120 0
          /wVvZg==
        >
        E 0 90 3d 60
        E 90 80 3d 00
        <X 150 0
          /wVoZXJl
        >
        E 0 90 40 60
        E 630 80 40 00
        E 90 80 69 00
        E 0 90 69 60
        <X 240 0
          /wVZb3U=
        >
        E 0 90 3d 60
        E 120 80 3d 00
        <X 120 0
          /wVkcml2ZQ==
        >
        E 0 90 3d 60
        E 300 80 3d 00
        <X 180 0
          /wVtZQ==
        >
        E 0 90 40 60
        E 330 80 40 00
        <X 150 0
          /wVyb3VuZA==
        >
        E 0 90 42 60
        E 300 80 42 00
        <X 180 0
          /wVhbmQ=
        >
        E 0 90 44 60
        E 180 80 44 00
        <X 60 0
          /wVyb3VuZA==
        >
        E 0 90 42 60
        E 120 80 42 00
        <X 210 0
          /wUr
        >
        E 0 90 40 60
        E 30 80 40 00
        E 30 80 69 00
        E 0 90 69 60
        <X 90 0
          /wV5b3U=
        >
        E 0 90 40 60
        E 90 80 40 00
        <X 150 0
          /wVkcml2ZQ==
        >
        E 0 90 3d 60
        E 90 80 3d 00
        <X 150 0
          /wVtZQ==
        >
        E 0 90 40 60
        E 90 80 40 00
        <X 150 0
          /wVyb3VuZA==
        >
        E 0 90 42 60
        E 300 80 42 00
        <X 180 0
          /wVhbmQ=
        >
        E 0 90 44 60
        E 180 80 44 00
        <X 60 0
          /wVyb3VuZA==
        >
        E 0 90 42 60
        E 120 80 42 00
        <X 210 0
          /wUr
        >
        E 0 90 40 60
        E 30 80 40 00
        E 60 80 69 00
        E 0 90 69 60
        <X 60 0
          /wVVbi0=
        >
        E 0 90 40 60
        E 90 80 40 00
        <X 150 0
          /wV0aWw=
        >
        E 0 90 3d 60
        E 90 80 3d 00
        <X 150 0
          /wVJ
        >
        E 0 90 40 60
        E 90 80 40 00
        <X 150 0
          /wVjcmFzaA==
        >
        E 0 90 42 60
        E 300 80 42 00
        <X 180 0
          /wVpbi0=
        >
        E 0 90 44 60
        E 150 80 44 00
        <X 90 0
          /wV0bw==
        >
        E 0 90 42 60
        E 120 80 42 00
        <X 210 0
          /wUr
        >
        E 0 90 40 60
        E 30 80 40 00
        <X 120 0
          /wV0aGU=
        >
        E 0 90 40 60
        E 60 80 40 00
        <X 180 0
          /wVzdGFycw==
        >
        E 0 90 3d 60
        E 690 80 3d 00
        E 270 80 69 00
        E 0 90 69 60
        <X 240 0
          /wVZb3U=
        >
        E 0 90 3d 60
        E 120 80 3d 00
        <X 120 0
          /wV0YWtl
        >
        E 0 90 3d 60
        E 300 80 3d 00
        <X 180 0
          /wVtZQ==
        >
        E 0 90 40 60
        E 330 80 40 00
        <X 150 0
          /wVmb3I=
        >
        E 0 90 42 60
        E 300 80 42 00
        <X 180 0
          /wVh
        >
        E 0 90 44 60
        E 180 80 44 00
        <X 60 0
          /wVzcGlu
        >
        E 0 90 42 60
        E 120 80 42 00
        <X 210 0
          /wUr
        >
        E 0 90 40 60
        E 30 80 40 00
        E 30 80 69 00
        E 0 90 69 60
        <X 90 0
          /wV5b3U=
        >
        E 0 90 40 60
        E 90 80 40 00
        <X 150 0
          /wV0YWtl
        >
        E 0 90 3d 60
        E 90 80 3d 00
        <X 150 0
          /wVtZQ==
        >
        E 0 90 40 60
        E 90 80 40 00
        <X 150 0
          /wVmb3I=
        >
        E 0 90 42 60
        E 300 80 42 00
        <X 180 0
          /wVh
        >
        E 0 90 44 60
        E 180 80 44 00
        <X 60 0
          /wVzcGlu
        >
        E 0 90 42 60
        E 120 80 42 00
        <X 210 0
          /wUr
        >
        E 0 90 40 60
        E 30 80 69 00
        E 0 80 40 00
        E 0 90 69 60
        <X 120 0
          /wVVbi0=
        >
        E 0 90 40 60
        E 90 80 40 00
        <X 150 0
          /wV0aWw=
        >
        E 0 90 3d 60
        E 90 80 3d 00
        <X 150 0
          /wVJ
        >
        E 0 90 40 60
        E 90 80 40 00
        <X 150 0
          /wVjcmFzaA==
        >
        E 0 90 42 60
        E 300 80 42 00
        <X 180 0
          /wVpbi0=
        >
        E 0 90 44 60
        E 150 80 44 00
        <X 90 0
          /wV0bw==
        >
        E 0 90 42 60
        E 120 80 42 00
        <X 210 0
          /wUr
        >
        E 0 90 40 60
        E 30 80 40 00
        <X 120 0
          /wV0aGU=
        >
        E 0 90 40 60
        E 60 80 40 00
        <X 180 0
          /wVzdGFycw==
        >
        E 0 90 3d 60
        E 690 80 3d 00
        E 750 80 69 00
        E 960 90 69 60
        <X 240 0
          /wVJJ20=
        >
        E 0 90 44 60
        E 180 80 44 00
        <X 60 0
          /wVicmVhay0=
        >
        E 0 90 42 60
        E 150 80 42 00
        <X 90 0
          /wVpbmc=
        >
        E 0 90 40 60
        E 150 80 40 00
        <X 90 0
          /wVpbi0=
        >
        E 0 90 42 60
        E 300 80 42 00
        <X 180 0
          /wV0bw==
        >
        E 0 90 44 60
        E 300 80 44 00
        <X 180 0
          /wVjYXJz
        >
        E 0 90 3d 60
        E 990 80 3d 00
        E 90 80 69 00
        E 0 90 69 60
        <X 1080 0
          /wVJJ20=
        >
        E 0 90 44 60
        E 180 80 44 00
        <X 60 0
          /wVicmVhay0=
        >
        E 0 90 42 60
        E 150 80 42 00
        <X 90 0
          /wVpbmc=
        >
        E 0 90 40 60
        E 150 80 40 00
        <X 90 0
          /wVpbi0=
        >
        E 0 90 42 60
        E 300 80 42 00
        <X 180 0
          /wV0bw==
        >
        E 0 90 44 60
        E 300 80 44 00
        <X 180 0
          /wVjYXJz
        >
        E 0 90 3d 60
        E 1140 80 3d 00
        E 780 80 69 00
        E 46560 90 69 60
        <X 240 0
          /wVZb3U=
        >
        E 0 90 3d 60
        E 120 80 3d 00
        <X 120 0
          /wVkcml2ZQ==
        >
        E 0 90 3d 60
        E 300 80 3d 00
        <X 180 0
          /wVtZQ==
        >
        E 0 90 40 60
        E 330 80 40 00
        <X 150 0
          /wVyb3VuZA==
        >
        E 0 90 42 60
        E 300 80 42 00
        <X 180 0
          /wVhbmQ=
        >
        E 0 90 44 60
        E 180 80 44 00
        <X 60 0
          /wVyb3VuZA==
        >
        E 0 90 42 60
        E 120 80 42 00
        <X 210 0
          /wUr
        >
        E 0 90 40 60
        E 30 80 40 00
        E 30 80 69 00
        E 0 90 69 60
        <X 90 0
          /wV5b3U=
        >
        E 0 90 40 60
        E 90 80 40 00
        <X 150 0
          /wVkcml2ZQ==
        >
        E 0 90 3d 60
        E 90 80 3d 00
        <X 150 0
          /wVtZQ==
        >
        E 0 90 40 60
        E 90 80 40 00
        <X 150 0
          /wVyb3VuZA==
        >
        E 0 90 42 60
        E 300 80 42 00
        <X 180 0
          /wVhbmQ=
        >
        E 0 90 44 60
        E 180 80 44 00
        <X 60 0
          /wVyb3VuZA==
        >
        E 0 90 42 60
        E 120 80 42 00
        <X 210 0
          /wUr
        >
        E 0 90 40 60
        E 30 80 40 00
        E 60 80 69 00
        E 0 90 69 60
        <X 60 0
          /wVVbi0=
        >
        E 0 90 40 60
        E 90 80 40 00
        <X 150 0
          /wV0aWw=
        >
        E 0 90 3d 60
        E 90 80 3d 00
        <X 150 0
          /wVJ
        >
        E 0 90 40 60
        E 90 80 40 00
        <X 150 0
          /wVjcmFzaA==
        >
        E 0 90 42 60
        E 300 80 42 00
        <X 180 0
          /wVpbi0=
        >
        E 0 90 44 60
        E 150 80 44 00
        <X 90 0
          /wV0bw==
        >
        E 0 90 42 60
        E 120 80 42 00
        <X 210 0
          /wUr
        >
        E 0 90 40 60
        E 30 80 40 00
        <X 120 0
          /wV0aGU=
        >
        E 0 90 40 60
        E 60 80 40 00
        <X 180 0
          /wVzdGFycw==
        >
        E 0 90 3d 60
        E 690 80 3d 00
        E 270 80 69 00
        E 0 90 69 60
        <X 240 0
          /wVZb3U=
        >
        E 0 90 3d 60
        E 120 80 3d 00
        <X 120 0
          /wV0YWtl
        >
        E 0 90 3d 60
        E 300 80 3d 00
        <X 180 0
          /wVtZQ==
        >
        E 0 90 40 60
        E 330 80 40 00
        <X 150 0
          /wVmb3I=
        >
        E 0 90 42 60
        E 300 80 42 00
        <X 180 0
          /wVh
        >
        E 0 90 44 60
        E 180 80 44 00
        <X 60 0
          /wVzcGlu
        >
        E 0 90 42 60
        E 120 80 42 00
        <X 210 0
          /wUr
        >
        E 0 90 40 60
        E 30 80 40 00
        E 30 80 69 00
        E 0 90 69 60
        <X 90 0
          /wV5b3U=
        >
        E 0 90 40 60
        E 90 80 40 00
        <X 150 0
          /wV0YWtl
        >
        E 0 90 3d 60
        E 90 80 3d 00
        <X 150 0
          /wVtZQ==
        >
        E 0 90 40 60
        E 90 80 40 00
        <X 150 0
          /wVmb3I=
        >
        E 0 90 42 60
        E 300 80 42 00
        <X 180 0
          /wVh
        >
        E 0 90 44 60
        E 180 80 44 00
        <X 60 0
          /wVzcGlu
        >
        E 0 90 42 60
        E 120 80 42 00
        <X 210 0
          /wUr
        >
        E 0 90 40 60
        E 30 80 69 00
        E 0 80 40 00
        E 0 90 69 60
        <X 120 0
          /wVVbi0=
        >
        E 0 90 40 60
        E 90 80 40 00
        <X 150 0
          /wV0aWw=
        >
        E 0 90 3d 60
        E 90 80 3d 00
        <X 150 0
          /wVJ
        >
        E 0 90 40 60
        E 90 80 40 00
        <X 150 0
          /wVjcmFzaA==
        >
        E 0 90 42 60
        E 300 80 42 00
        <X 180 0
          /wVpbi0=
        >
        E 0 90 44 60
        E 150 80 44 00
        <X 90 0
          /wV0bw==
        >
        E 0 90 42 60
        E 120 80 42 00
        <X 210 0
          /wUr
        >
        E 0 90 40 60
        E 30 80 40 00
        <X 120 0
          /wV0aGU=
        >
        E 0 90 40 60
        E 60 80 40 00
        <X 180 0
          /wVzdGFycw==
        >
        E 0 90 3d 60
        E 690 80 3d 00
        E 750 80 69 00
        E 960 90 69 60
        <X 240 0
          /wVJJ20=
        >
        E 0 90 44 60
        E 180 80 44 00
        <X 60 0
          /wVicmVhay0=
        >
        E 0 90 42 60
        E 150 80 42 00
        <X 90 0
          /wVpbmc=
        >
        E 0 90 40 60
        E 150 80 40 00
        <X 90 0
          /wVpbi0=
        >
        E 0 90 42 60
        E 300 80 42 00
        <X 180 0
          /wV0bw==
        >
        E 0 90 44 60
        E 300 80 44 00
        <X 180 0
          /wVjYXJz
        >
        E 0 90 3d 60
        E 990 80 3d 00
        E 90 80 69 00
        E 0 90 69 60
        <X 1080 0
          /wVJJ20=
        >
        E 0 90 44 60
        E 180 80 44 00
        <X 60 0
          /wVicmVhay0=
        >
        E 0 90 42 60
        E 150 80 42 00
        <X 90 0
          /wVpbmc=
        >
        E 0 90 40 60
        E 150 80 40 00
        <X 90 0
          /wVpbi0=
        >
        E 0 90 42 60
        E 300 80 42 00
        <X 180 0
          /wV0bw==
        >
        E 0 90 44 60
        E 300 80 44 00
        <X 180 0
          /wVjYXJz
        >
        E 0 90 3d 60
        E 1620 80 3d 00
        E 299 80 69 00
        E 7681 b0 7b 00
        GUID {FB22D97D-A956-47A9-B68B-0B547AF5FEA6}
        IGNTEMPO 0 120.00000000 4 4
        SRCCOLOR 8
        VELLANE 132 71 60
        COLORMAP "C:\Program Files\REAPER\Data\color_maps\rockband_guitarbass.png"
      >
    >
  >
  <TRACK '{B645EC35-54C9-4107-B7C5-BAC944E991EE}'
    NAME "EVENTS"
    PEAKCOL 16576
    BEAT -1
    AUTOMODE 0
    VOLPAN 1.00000000000000 0.00000000000000 -1.00000000000000 -1.00000000000000 1.00000000000000
    MUTESOLO 0 0 0
    IPHASE 0
    ISBUS 0 0
    BUSCOMP 0 0
    SHOWINMIX 1 0.666700 0.500000 1 0.500000 -1 -1 -1
    FREEMODE 0
    SEL 0
    REC 0 0 0 0 0 0 0
    VU 2
    TRACKHEIGHT 0 0
    INQ 0 0 0 0.5000000000 100 0 0 100
    NCHAN 2
    FX 1
    TRACKID {B645EC35-54C9-4107-B7C5-BAC944E991EE}
    PERF 0
    MIDIOUT -1
    <MIDINOTENAMES
      0 26 "Hi-Hat"
      0 25 "Snare"
      0 24 "Kick"
    >
    MAINSEND 1 0
    <FXCHAIN
      SHOW 0
      LASTSEL 0
      DOCKED 0
    >
    <ITEM
      POSITION 0.00000000000000
      SNAPOFFS 0.00000000000000
      LENGTH 194.42554622500001
      LOOP 0
      ALLTAKES 0
      SEL 0
      FADEIN 1 0.000000 0.000000 1 0
      FADEOUT 1 0.000000 0.000000 1 0
      MUTE 0
      IGUID {B7AD74C2-5C61-4259-9DC6-717AB6E213A9}
      IID 9
      NAME "EVENTS"
      VOLPAN 1.000000 0.000000 1.000000 -1.000000
      SOFFS 0.00000000000000 0.00000000000000
      PLAYRATE 1.00000000000000 1 0.00000000000000 -1
      CHANMODE 0
      GUID {85C0AA95-2BC3-4378-97F4-DBFC8B08EA2F}
      <SOURCE MIDI
        HASDATA 1 480 QN
        POOLEDEVTS {B2C7B99B-AAA9-45FE-BAB2-133F8BCFAFF1}
        <X 0 0
          /wNFVkVOVFM=
        >
        <X 3840 0
          /wFbcHJjX3ZlcnNlXzFd
        >
        <X 1920 0
          /wFbY3Jvd2Rfbm9ybWFsXQ==
        >
        <X 0 0
          /wFbbXVzaWNfc3RhcnRd
        >
        <X 0 0
          /wFbY3Jvd2Rfbm9jbGFwXQ==
        >
        <X 30720 0
          /wFbY3Jvd2RfY2xhcF0=
        >
        <X 7680 0
          /wFbY3Jvd2RfaW50ZW5zZV0=
        >
        <X 0 0
          /wFbcHJjX2Nob3J1c18xXQ==
        >
        <X 21360 0
          /wFbY3Jvd2Rfbm9jbGFwXQ==
        >
        <X 3600 0
          /wFbcHJjX3ZlcnNlXzJd
        >
        <X 0 0
          /wFbY3Jvd2Rfbm9ybWFsXQ==
        >
        <X 30720 0
          /wFbY3Jvd2RfY2xhcF0=
        >
        <X 7680 0
          /wFbcHJjX2Nob3J1c18yXQ==
        >
        <X 0 0
          /wFbY3Jvd2RfaW50ZW5zZV0=
        >
        <X 21360 0
          /wFbY3Jvd2Rfbm9jbGFwXQ==
        >
        <X 240 0
          /wFbY3Jvd2Rfbm9ybWFsXQ==
        >
        <X 3360 0
          /wFbcHJjX2JyZWFrX2Fd
        >
        <X 15360 0
          /wFbcHJjX2JyZWFrX2Jd
        >
        <X 15360 0
          /wFbcHJjX2JyZWFrX2Nd
        >
        <X 0 0
          /wFbY3Jvd2RfY2xhcF0=
        >
        <X 15360 0
          /wFbcHJjX291dHJvX2Nob3J1c10=
        >
        <X 0 0
          /wFbY3Jvd2RfaW50ZW5zZV0=
        >
        <X 21600 0
          /wFbbXVzaWNfZW5kXQ==
        >
        <X 0 0
          /wFbY3Jvd2RfcmVhbHRpbWVd
        >
        <X 9115 0
          /wFbZW5kXQ==
        >
        E 5 b0 7b 00
        GUID {CE05B707-16AB-4CBC-82E5-E66862791FB9}
        IGNTEMPO 0 120.00000000 4 4
        SRCCOLOR 9
        VELLANE 132 71 60
        COLORMAP "C:\Program Files\REAPER\Data\color_maps\rockband_guitarbass.png"
        CFGEDITVIEW -10734.907692 7.317058 0 48 0 0 0
        CFGEDIT 1 1 0 1 1 0 1 1 1 1 1 0.12500000 -4 0 1025 558 0 2 1 1 0.00000000 0 1 1 0 0.500000 0 0 1.000000 64
        KEYSNAP 0 0 "102034050607" 0 "Major"
        EVTFILTER 0 -1 -1 -1 -1 0 1 0 0 -1.00000000 -1.00000000
      >
    >
  >
  <TRACK '{5D7B0C95-CD25-4A6D-A138-F9538C269361}'
    NAME "VENUE"
    PEAKCOL 16576
    BEAT -1
    AUTOMODE 0
    VOLPAN 1.00000000000000 0.00000000000000 -1.00000000000000 -1.00000000000000 1.00000000000000
    MUTESOLO 0 0 0
    IPHASE 0
    ISBUS 1 1
    BUSCOMP 0 0
    SHOWINMIX 1 0.666700 0.500000 1 0.500000 -1 -1 -1
    FREEMODE 0
    SEL 0
    REC 0 0 0 0 0 0 0
    VU 2
    TRACKHEIGHT 0 0
    INQ 0 0 0 0.5000000000 100 0 0 100
    NCHAN 2
    FX 1
    TRACKID {5D7B0C95-CD25-4A6D-A138-F9538C269361}
    PERF 0
    MIDIOUT -1
    <MIDINOTENAMES
      0 87 "Harmony 2 Sing-Along"
      0 86 "Harmony 3 Sing-Along"
      0 85 "Drummer Sing-Along"
      0 84 "---"
      0 41 "Spotlight on Keys"
      0 40 "Spotlight on Vocals"
      0 39 "Spotlight on Guitar"
      0 38 "Spotlight on Bass"
      0 37 "Spotlight on Drums"
    >
    MAINSEND 1 0
    <FXCHAIN
      SHOW 0
      LASTSEL 0
      DOCKED 0
    >
    <ITEM
      POSITION 0.00000000000000
      SNAPOFFS 0.00000000000000
      LENGTH 194.42554622500001
      LOOP 0
      ALLTAKES 0
      SEL 0
      FADEIN 1 0.000000 0.000000 1 0
      FADEOUT 1 0.000000 0.000000 1 0
      MUTE 0
      IGUID {4E6CBDF4-DB7C-4E11-86F7-2B1427ECF080}
      IID 10
      NAME "VENUE"
      VOLPAN 1.000000 0.000000 1.000000 -1.000000
      SOFFS 0.00000000000000 0.00000000000000
      PLAYRATE 1.00000000000000 1 0.00000000000000 -1
      CHANMODE 0
      GUID {DF006990-D4C4-4E93-AF40-AC064EF634DF}
      <SOURCE MIDI
        HASDATA 1 480 QN
        POOLEDEVTS {ADD8A697-068B-481C-B843-BB4E05EC6354}
        <X 0 0
          /wNWRU5VRQ==
        >
        <X 0 0
          /wFbY29vcF9hbGxfZmFyXQ==
        >
        <X 0 0
          /wFbZmlsbV9zaWx2ZXJ0b25lLnBwXQ==
        >
        <X 4560 0
          /wFbY29vcF9nX2Nsb3NldXBfaGFuZF0=
        >
        <X 720 0
          /wFbbGlnaHRpbmcgKGJsYWNrb3V0X2Zhc3QpXQ==
        >
        <X 480 0
          /wFbZmlyc3Rd
        >
        <X 0 0
          /wFbbGlnaHRpbmcgKGZsYXJlX2Zhc3QpXQ==
        >
        <X 0 0
          /wFbbGlnaHRpbmcgKHZlcnNlKV0=
        >
        E 0 90 57 60
        <X 480 0
          /wFbY29vcF9ndl9iZWhpbmRd
        >
        <X 0 0
          /wFbbGlnaHRpbmcgKGZsYXJlX2Zhc3QpXQ==
        >
        <X 480 0
          /wFbbmV4dF0=
        >
        <X 960 0
          /wFbbmV4dF0=
        >
        <X 480 0
          /wFbY29vcF9iX25lYXJd
        >
        <X 480 0
          /wFbbmV4dF0=
        >
        <X 960 0
          /wFbZGlyZWN0ZWRfZHJ1bXNfa2Rd
        >
        <X 0 0
          /wFbbmV4dF0=
        >
        <X 960 0
          /wFbbmV4dF0=
        >
        <X 960 0
          /wFbY29vcF9kX25lYXJd
        >
        <X 0 0
          /wFbbmV4dF0=
        >
        <X 960 0
          /wFbbmV4dF0=
        >
        <X 960 0
          /wFbY29vcF92X2Nsb3NldXBd
        >
        <X 0 0
          /wFbbmV4dF0=
        >
        <X 960 0
          /wFbbmV4dF0=
        >
        <X 960 0
          /wFbbmV4dF0=
        >
        <X 960 0
          /wFbZGlyZWN0ZWRfZHVvX2RydW1zXQ==
        >
        <X 0 0
          /wFbbmV4dF0=
        >
        <X 960 0
          /wFbbmV4dF0=
        >
        <X 960 0
          /wFbbmV4dF0=
        >
        <X 960 0
          /wFbY29vcF9nX2JlaGluZF0=
        >
        <X 0 0
          /wFbbmV4dF0=
        >
        <X 960 0
          /wFbbmV4dF0=
        >
        <X 960 0
          /wFbZGlyZWN0ZWRfZHVvX2diXQ==
        >
        <X 0 0
          /wFbZmlyc3Rd
        >
        <X 960 0
          /wFbbmV4dF0=
        >
        <X 960 0
          /wFbbmV4dF0=
        >
        <X 960 0
          /wFbbmV4dF0=
        >
        <X 960 0
          /wFbZGlyZWN0ZWRfdm9jYWxzX2Nsc10=
        >
        <X 0 0
          /wFbbmV4dF0=
        >
        <X 960 0
          /wFbbmV4dF0=
        >
        <X 960 0
          /wFbbmV4dF0=
        >
        <X 960 0
          /wFbbmV4dF0=
        >
        <X 960 0
          /wFbY29vcF9ndl9uZWFyXQ==
        >
        <X 0 0
          /wFbbmV4dF0=
        >
        <X 960 0
          /wFbbmV4dF0=
        >
        <X 960 0
          /wFbbmV4dF0=
        >
        <X 960 0
          /wFbbmV4dF0=
        >
        <X 960 0
          /wFbbmV4dF0=
        >
        <X 960 0
          /wFbbmV4dF0=
        >
        <X 960 0
          /wFbbmV4dF0=
        >
        <X 480 0
          /wFbY29vcF9nX2Nsb3NldXBfaGFuZF0=
        >
        <X 480 0
          /wFbbmV4dF0=
        >
        <X 480 0
          /wFbbGlnaHRpbmcgKGJsYWNrb3V0X2Zhc3QpXQ==
        >
        <X 480 0
          /wFbY29vcF9hbGxfYmVoaW5kXQ==
        >
        <X 0 0
          /wFbZmlyc3Rd
        >
        <X 0 0
          /wFbbGlnaHRpbmcgKGZsYXJlX2Zhc3QpXQ==
        >
        <X 0 0
          /wFbbGlnaHRpbmcgKG1hbnVhbF93YXJtKV0=
        >
        <X 480 0
          /wFbbGlnaHRpbmcgKGZsYXJlX2Zhc3QpXQ==
        >
        <X 480 0
          /wFbbmV4dF0=
        >
        <X 960 0
          /wFbbmV4dF0=
        >
        <X 960 0
          /wFbbmV4dF0=
        >
        <X 960 0
          /wFbY29vcF9hbGxfZmFyXQ==
        >
        <X 0 0
          /wFbbmV4dF0=
        >
        <X 960 0
          /wFbbmV4dF0=
        >
        <X 960 0
          /wFbbmV4dF0=
        >
        <X 720 0
          /wFbY29vcF9ndl9uZWFyXQ==
        >
        <X 240 0
          /wFbbmV4dF0=
        >
        <X 0 0
          /wFbZmlsbV9zaWx2ZXJ0b25lLnBwXQ==
        >
        <X 480 0
          /wFbbGlnaHRpbmcgKGJsYWNrb3V0X2Zhc3QpXQ==
        >
        <X 479 0
          /wFbbGlnaHRpbmcgKGZsYXJlX2Zhc3QpXQ==
        >
        <X 1 0
          /wFbZmlyc3Rd
        >
        <X 0 0
          /wFbbGlnaHRpbmcgKG1hbnVhbF9jb29sKV0=
        >
        <X 0 0
          /wFbc3BhY2Vfd29vc2gucHBd
        >
        <X 480 0
          /wFbbGlnaHRpbmcgKGZsYXJlX2Zhc3QpXQ==
        >
        <X 480 0
          /wFbbmV4dF0=
        >
        <X 960 0
          /wFbbmV4dF0=
        >
        <X 960 0
          /wFbbmV4dF0=
        >
        <X 960 0
          /wFbY29vcF9kX25lYXJd
        >
        <X 0 0
          /wFbbmV4dF0=
        >
        <X 960 0
          /wFbbmV4dF0=
        >
        <X 960 0
          /wFbbmV4dF0=
        >
        <X 959 0
          /wFbbmV4dF0=
        >
        <X 961 0
          /wFbZGlyZWN0ZWRfdm9jYWxzX2NhbV9wcl0=
        >
        <X 0 0
          /wFbbmV4dF0=
        >
        <X 960 0
          /wFbbmV4dF0=
        >
        <X 960 0
          /wFbbmV4dF0=
        >
        <X 959 0
          /wFbbmV4dF0=
        >
        <X 961 0
          /wFbZGlyZWN0ZWRfdm9jYWxzXQ==
        >
        <X 0 0
          /wFbbmV4dF0=
        >
        <X 960 0
          /wFbbmV4dF0=
        >
        <X 960 0
          /wFbY29vcF9kX25lYXJd
        >
        <X 0 0
          /wFbbmV4dF0=
        >
        <X 959 0
          /wFbbmV4dF0=
        >
        <X 961 0
          /wFbY29vcF9hbGxfbmVhcl0=
        >
        <X 0 0
          /wFbbmV4dF0=
        >
        <X 960 0
          /wFbbmV4dF0=
        >
        <X 960 0
          /wFbbmV4dF0=
        >
        <X 959 0
          /wFbbmV4dF0=
        >
        <X 961 0
          /wFbZGlyZWN0ZWRfYWxsX2NhbV0=
        >
        <X 0 0
          /wFbbmV4dF0=
        >
        <X 960 0
          /wFbbmV4dF0=
        >
        <X 0 0
          /wFbc3BhY2Vfd29vc2gucHBd
        >
        <X 480 0
          /wFbbmV4dF0=
        >
        <X 240 0
          /wFbbGlnaHRpbmcgKGJsYWNrb3V0X2Zhc3QpXQ==
        >
        <X 240 0
          /wFbUHJvRmlsbV9hLnBwXQ==
        >
        <X 1920 0
          /wFbY29vcF9hbGxfYmVoaW5kXQ==
        >
        <X 480 0
          /wFbUHJvRmlsbV9hLnBwXQ==
        >
        <X 240 0
          /wFbZmlsbV9zaWx2ZXJ0b25lLnBwXQ==
        >
        <X 1200 0
          /wFbY29vcF9kX25lYXJd
        >
        <X 0 0
          /wFbZmlyc3Rd
        >
        <X 0 0
          /wFbbGlnaHRpbmcgKGZsYXJlX2Zhc3QpXQ==
        >
        <X 0 0
          /wFbbGlnaHRpbmcgKHZlcnNlKV0=
        >
        <X 480 0
          /wFbbGlnaHRpbmcgKGZsYXJlX2Zhc3QpXQ==
        >
        <X 480 0
          /wFbbmV4dF0=
        >
        <X 960 0
          /wFbbmV4dF0=
        >
        <X 960 0
          /wFbbmV4dF0=
        >
        <X 0 0
          /wFbZmlsbV9zaWx2ZXJ0b25lLnBwXQ==
        >
        <X 960 0
          /wFbZGlyZWN0ZWRfZHJ1bXNfa2Rd
        >
        <X 0 0
          /wFbbmV4dF0=
        >
        <X 960 0
          /wFbbmV4dF0=
        >
        <X 960 0
          /wFbbmV4dF0=
        >
        <X 960 0
          /wFbbmV4dF0=
        >
        <X 960 0
          /wFbY29vcF9ndl9uZWFyXQ==
        >
        <X 0 0
          /wFbbmV4dF0=
        >
        <X 960 0
          /wFbbmV4dF0=
        >
        <X 960 0
          /wFbbmV4dF0=
        >
        <X 720 0
          /wFbY29vcF9iX2Nsb3NldXBfaGFuZF0=
        >
        <X 240 0
          /wFbbmV4dF0=
        >
        <X 960 0
          /wFbbmV4dF0=
        >
        <X 480 0
          /wFbY29vcF9ndl9uZWFyXQ==
        >
        <X 480 0
          /wFbbmV4dF0=
        >
        <X 960 0
          /wFbbmV4dF0=
        >
        <X 480 0
          /wFbY29vcF9nX2Nsb3NldXBfaGFuZF0=
        >
        <X 480 0
          /wFbbmV4dF0=
        >
        <X 960 0
          /wFbZmlyc3Rd
        >
        <X 480 0
          /wFbY29vcF9kX2Nsb3NldXBfaGFuZF0=
        >
        <X 480 0
          /wFbbmV4dF0=
        >
        <X 960 0
          /wFbbmV4dF0=
        >
        <X 960 0
          /wFbbmV4dF0=
        >
        <X 960 0
          /wFbY29vcF9kdl9uZWFyXQ==
        >
        <X 0 0
          /wFbbmV4dF0=
        >
        E 0 90 55 60
        <X 960 0
          /wFbbmV4dF0=
        >
        <X 960 0
          /wFbbmV4dF0=
        >
        <X 960 0
          /wFbbmV4dF0=
        >
        <X 960 0
          /wFbY29vcF9iZ19uZWFyXQ==
        >
        <X 0 0
          /wFbbmV4dF0=
        >
        E 0 80 55 00
        <X 960 0
          /wFbbmV4dF0=
        >
        <X 960 0
          /wFbbmV4dF0=
        >
        <X 960 0
          /wFbbmV4dF0=
        >
        <X 960 0
          /wFbbmV4dF0=
        >
        <X 960 0
          /wFbbmV4dF0=
        >
        <X 960 0
          /wFbbmV4dF0=
        >
        <X 960 0
          /wFbbmV4dF0=
        >
        <X 480 0
          /wFbbGlnaHRpbmcgKGJsYWNrb3V0X2Zhc3QpXQ==
        >
        <X 480 0
          /wFbZGlyZWN0ZWRfZ3VpdGFyXQ==
        >
        <X 0 0
          /wFbZGlyZWN0ZWRfdm9jYWxzXQ==
        >
        <X 0 0
          /wFbZmlyc3Rd
        >
        <X 0 0
          /wFbbGlnaHRpbmcgKGZsYXJlX2Zhc3QpXQ==
        >
        <X 0 0
          /wFbbGlnaHRpbmcgKG1hbnVhbF93YXJtKV0=
        >
        <X 480 0
          /wFbbGlnaHRpbmcgKGZsYXJlX2Zhc3QpXQ==
        >
        <X 480 0
          /wFbbmV4dF0=
        >
        <X 960 0
          /wFbbmV4dF0=
        >
        <X 960 0
          /wFbbmV4dF0=
        >
        <X 960 0
          /wFbZGlyZWN0ZWRfZ3VpdGFyXQ==
        >
        <X 0 0
          /wFbZGlyZWN0ZWRfdm9jYWxzXQ==
        >
        <X 0 0
          /wFbbmV4dF0=
        >
        <X 960 0
          /wFbbmV4dF0=
        >
        <X 960 0
          /wFbbmV4dF0=
        >
        <X 720 0
          /wFbZGlyZWN0ZWRfZHJ1bXNd
        >
        <X 240 0
          /wFbbmV4dF0=
        >
        <X 960 0
          /wFbZGlyZWN0ZWRfYWxsXQ==
        >
        <X 0 0
          /wFbZmlyc3Rd
        >
        <X 0 0
          /wFbbGlnaHRpbmcgKG1hbnVhbF9jb29sKV0=
        >
        <X 0 0
          /wFbc3BhY2Vfd29vc2gucHBd
        >
        <X 960 0
          /wFbbmV4dF0=
        >
        <X 960 0
          /wFbbmV4dF0=
        >
        <X 960 0
          /wFbbmV4dF0=
        >
        <X 960 0
          /wFbZGlyZWN0ZWRfYWxsXQ==
        >
        <X 0 0
          /wFbbmV4dF0=
        >
        <X 960 0
          /wFbbmV4dF0=
        >
        <X 960 0
          /wFbbmV4dF0=
        >
        <X 960 0
          /wFbbmV4dF0=
        >
        <X 960 0
          /wFbY29vcF9iX25lYXJd
        >
        <X 0 0
          /wFbbmV4dF0=
        >
        <X 960 0
          /wFbbmV4dF0=
        >
        <X 960 0
          /wFbbmV4dF0=
        >
        <X 960 0
          /wFbbmV4dF0=
        >
        <X 960 0
          /wFbY29vcF9nX2Nsb3NldXBfaGFuZF0=
        >
        <X 0 0
          /wFbbmV4dF0=
        >
        <X 960 0
          /wFbbmV4dF0=
        >
        <X 960 0
          /wFbbmV4dF0=
        >
        <X 960 0
          /wFbbmV4dF0=
        >
        <X 960 0
          /wFbY29vcF92X25lYXJd
        >
        <X 0 0
          /wFbbmV4dF0=
        >
        <X 960 0
          /wFbbmV4dF0=
        >
        <X 960 0
          /wFbbmV4dF0=
        >
        <X 960 0
          /wFbbmV4dF0=
        >
        <X 960 0
          /wFbY29vcF92X25lYXJd
        >
        <X 0 0
          /wFbbmV4dF0=
        >
        <X 960 0
          /wFbbmV4dF0=
        >
        <X 0 0
          /wFbc3BhY2Vfd29vc2gucHBd
        >
        <X 480 0
          /wFbbmV4dF0=
        >
        <X 240 0
          /wFbbGlnaHRpbmcgKGJsYWNrb3V0X2Zhc3QpXQ==
        >
        <X 240 0
          /wFbY29vcF9hbGxfYmVoaW5kXQ==
        >
        E 3780 90 25 60
        E 0 90 27 60
        <X 60 0
          /wFbZGlyZWN0ZWRfZHJ1bXNfa2Rd
        >
        <X 0 0
          /wFbZmlyc3Rd
        >
        <X 0 0
          /wFbbGlnaHRpbmcgKGRpc2Nob3JkKV0=
        >
        <X 0 0
          /wFbUHJvRmlsbV9hLnBwXQ==
        >
        <X 480 0
          /wFbY29vcF9nX25lYXJd
        >
        E 0 80 25 00
        E 1380 90 25 60
        <X 60 0
          /wFbZGlyZWN0ZWRfZHJ1bXNfa2Rd
        >
        <X 0 0
          /wFbbmV4dF0=
        >
        <X 480 0
          /wFbY29vcF9nX25lYXJd
        >
        E 0 80 25 00
        E 1380 90 25 60
        <X 60 0
          /wFbY29vcF9iZ19iZWhpbmRd
        >
        <X 0 0
          /wFbbmV4dF0=
        >
        E 480 80 25 00
        E 1380 90 25 60
        <X 60 0
          /wFbY29vcF9iZ19uZWFyXQ==
        >
        <X 0 0
          /wFbbmV4dF0=
        >
        E 480 80 25 00
        E 1380 90 25 60
        <X 60 0
          /wFbZGlyZWN0ZWRfZHJ1bXNfa2Rd
        >
        <X 0 0
          /wFbbmV4dF0=
        >
        E 480 80 25 00
        E 1380 90 25 60
        <X 60 0
          /wFbbmV4dF0=
        >
        <X 480 0
          /wFbY29vcF9nX2JlaGluZF0=
        >
        E 0 80 25 00
        E 1380 90 25 60
        <X 60 0
          /wFbY29vcF9nX2Nsb3NldXBfaGFuZF0=
        >
        <X 0 0
          /wFbbmV4dF0=
        >
        E 480 80 25 00
        E 1380 90 25 60
        <X 60 0
          /wFbbmV4dF0=
        >
        E 480 80 25 00
        E 540 90 26 60
        <X 180 0
          /wFbY29vcF9iX25lYXJd
        >
        <X 720 0
          /wFbY29vcF9iX2Nsb3NldXBfaGFuZF0=
        >
        <X 0 0
          /wFbZmlyc3Rd
        >
        <X 0 0
          /wFbbGlnaHRpbmcgKGZsYXJlX2Zhc3QpXQ==
        >
        <X 0 0
          /wFbbGlnaHRpbmcgKHZlcnNlKV0=
        >
        E 0 80 27 00
        E 0 80 26 00
        <X 960 0
          /wFbbmV4dF0=
        >
        <X 960 0
          /wFbbmV4dF0=
        >
        <X 960 0
          /wFbbmV4dF0=
        >
        <X 480 0
          /wFbbGlnaHRpbmcgKGJsYWNrb3V0X2Zhc3QpXQ==
        >
        <X 479 0
          /wFbbGlnaHRpbmcgKGZsYXJlX2Zhc3QpXQ==
        >
        <X 1 0
          /wFbY29vcF9iZ19uZWFyXQ==
        >
        <X 0 0
          /wFbbmV4dF0=
        >
        <X 480 0
          /wFbbGlnaHRpbmcgKGZsYXJlX2Zhc3QpXQ==
        >
        <X 480 0
          /wFbbmV4dF0=
        >
        <X 960 0
          /wFbbmV4dF0=
        >
        <X 960 0
          /wFbbmV4dF0=
        >
        <X 480 0
          /wFbbGlnaHRpbmcgKGJsYWNrb3V0X2Zhc3QpXQ==
        >
        <X 479 0
          /wFbbGlnaHRpbmcgKGZsYXJlX2Zhc3QpXQ==
        >
        <X 1 0
          /wFbZGlyZWN0ZWRfYWxsXQ==
        >
        <X 0 0
          /wFbbmV4dF0=
        >
        <X 480 0
          /wFbbGlnaHRpbmcgKGZsYXJlX2Zhc3QpXQ==
        >
        <X 480 0
          /wFbbmV4dF0=
        >
        <X 960 0
          /wFbbmV4dF0=
        >
        <X 960 0
          /wFbbmV4dF0=
        >
        <X 480 0
          /wFbbGlnaHRpbmcgKGJsYWNrb3V0X2Zhc3QpXQ==
        >
        <X 479 0
          /wFbbGlnaHRpbmcgKGZsYXJlX2Zhc3QpXQ==
        >
        <X 1 0
          /wFbY29vcF9hbGxfZmFyXQ==
        >
        <X 0 0
          /wFbbmV4dF0=
        >
        <X 480 0
          /wFbbGlnaHRpbmcgKGZsYXJlX2Zhc3QpXQ==
        >
        <X 480 0
          /wFbbmV4dF0=
        >
        <X 960 0
          /wFbZGlyZWN0ZWRfYWxsX3llYWhd
        >
        <X 0 0
          /wFbbmV4dF0=
        >
        <X 960 0
          /wFbbmV4dF0=
        >
        <X 480 0
          /wFbbGlnaHRpbmcgKGJsYWNrb3V0X2Zhc3QpXQ==
        >
        <X 479 0
          /wFbbGlnaHRpbmcgKGZsYXJlX2Zhc3QpXQ==
        >
        <X 1 0
          /wFbZmlyc3Rd
        >
        <X 480 0
          /wFbbGlnaHRpbmcgKGZsYXJlX2Zhc3QpXQ==
        >
        <X 480 0
          /wFbY29vcF9kX25lYXJd
        >
        <X 0 0
          /wFbbmV4dF0=
        >
        <X 960 0
          /wFbbmV4dF0=
        >
        <X 960 0
          /wFbbmV4dF0=
        >
        <X 960 0
          /wFbZGlyZWN0ZWRfZHVvX2diXQ==
        >
        <X 0 0
          /wFbbmV4dF0=
        >
        <X 960 0
          /wFbbmV4dF0=
        >
        <X 960 0
          /wFbbmV4dF0=
        >
        <X 960 0
          /wFbbmV4dF0=
        >
        <X 960 0
          /wFbY29vcF92X2Nsb3NldXBd
        >
        <X 0 0
          /wFbbmV4dF0=
        >
        <X 960 0
          /wFbbmV4dF0=
        >
        <X 960 0
          /wFbY29vcF9kX2Nsb3NldXBfaGFuZF0=
        >
        <X 0 0
          /wFbbmV4dF0=
        >
        <X 960 0
          /wFbbmV4dF0=
        >
        <X 480 0
          /wFbbGlnaHRpbmcgKGJsYWNrb3V0X2Zhc3QpXQ==
        >
        E 420 90 27 60
        <X 60 0
          /wFbbGlnaHRpbmcgKHZlcnNlKV0=
        >
        <X 480 0
          /wFbY29vcF9nX2Nsb3NldXBfaGFuZF0=
        >
        <X 1920 0
          /wFbY29vcF9ndl9uZWFyXQ==
        >
        E 180 90 28 60
        <X 1260 0
          /wFbZmlyc3Rd
        >
        <X 0 0
          /wFbbGlnaHRpbmcgKGZsYXJlX2Zhc3QpXQ==
        >
        <X 0 0
          /wFbbGlnaHRpbmcgKG1hbnVhbF93YXJtKV0=
        >
        E 0 80 27 00
        E 0 80 28 00
        <X 480 0
          /wFbbGlnaHRpbmcgKGZsYXJlX2Zhc3QpXQ==
        >
        <X 480 0
          /wFbbmV4dF0=
        >
        <X 960 0
          /wFbbmV4dF0=
        >
        <X 960 0
          /wFbbmV4dF0=
        >
        <X 960 0
          /wFbY29vcF9kX2JlaGluZF0=
        >
        <X 0 0
          /wFbbmV4dF0=
        >
        <X 960 0
          /wFbbmV4dF0=
        >
        <X 960 0
          /wFbbmV4dF0=
        >
        <X 960 0
          /wFbbmV4dF0=
        >
        <X 960 0
          /wFbY29vcF9iX25lYXJd
        >
        <X 0 0
          /wFbbmV4dF0=
        >
        <X 960 0
          /wFbbmV4dF0=
        >
        <X 960 0
          /wFbbmV4dF0=
        >
        <X 960 0
          /wFbbmV4dF0=
        >
        <X 960 0
          /wFbY29vcF9hbGxfYmVoaW5kXQ==
        >
        <X 0 0
          /wFbbmV4dF0=
        >
        <X 960 0
          /wFbbmV4dF0=
        >
        <X 960 0
          /wFbbmV4dF0=
        >
        <X 960 0
          /wFbbmV4dF0=
        >
        <X 960 0
          /wFbY29vcF9ndl9uZWFyXQ==
        >
        <X 0 0
          /wFbbmV4dF0=
        >
        <X 960 0
          /wFbbmV4dF0=
        >
        <X 960 0
          /wFbbmV4dF0=
        >
        <X 960 0
          /wFbbmV4dF0=
        >
        <X 960 0
          /wFbbmV4dF0=
        >
        <X 960 0
          /wFbbmV4dF0=
        >
        <X 720 0
          /wFbbGlnaHRpbmcgKGJsYWNrb3V0X3Nsb3cpXQ==
        >
        <X 240 0
          /wFbY29vcF9hbGxfZmFyXQ==
        >
        E 3840 80 57 00
        E 5760 b0 7b 00
        GUID {E5E7AE81-ECB4-41C5-9705-5CE25323684C}
        IGNTEMPO 0 120.00000000 4 4
        SRCCOLOR 10
        VELLANE 132 71 60
        COLORMAP "C:\Program Files\REAPER\Data\color_maps\rockband_guitarbass.png"
        CFGEDITVIEW -10633.792786 8.094942 0 48 0 0 0
        CFGEDIT 1 1 0 1 1 0 1 1 1 1 1 0.12500000 -4 0 1025 558 0 2 1 1 0.00000000 0 1 1 0 0.500000 0 0 1.000000 64
        KEYSNAP 0 2 "102034050607" 0 "Major"
        EVTFILTER 0 -1 -1 -1 -1 0 1 0 0 -1.00000000 -1.00000000
      >
    >
  >
  <TRACK '{47E9E9FD-5D3B-446F-A7C1-C32B1F80CC7C}'
    NAME "CAMERA"
    PEAKCOL 16576
    BEAT -1
    AUTOMODE 0
    VOLPAN 1.00000000000000 0.00000000000000 -1.00000000000000 -1.00000000000000 1.00000000000000
    MUTESOLO 1 0 0
    IPHASE 0
    ISBUS 0 0
    BUSCOMP 0 0
    SHOWINMIX 1 0.666700 0.500000 1 0.500000 -1 -1 -1
    FREEMODE 0
    SEL 0
    REC 0 0 0 0 0 0 0
    VU 2
    TRACKHEIGHT 24 0
    INQ 0 0 0 0.5000000000 100 0 0 100
    NCHAN 2
    FX 1
    TRACKID {47E9E9FD-5D3B-446F-A7C1-C32B1F80CC7C}
    PERF 0
    MIDIOUT -1
    <MIDINOTENAMES
      0 102 "RANDOM"
      0 100 "All_Behind"
      0 99 "All_Far"
      0 98 "All_Near"
      0 96 "Front_Behind"
      0 95 "Front_Near"
      0 93 "D_Behind"
      0 92 "D_Near"
      0 91 "V_Behind"
      0 90 "V_Near"
      0 89 "B_Behind"
      0 88 "B_Near"
      0 87 "G_Behind"
      0 86 "G_Near"
      0 85 "K_Behind"
      0 84 "K_Near"
      0 82 "D_Hand"
      0 81 "D_Head"
      0 80 "V_Closeup"
      0 79 "B_Hand"
      0 78 "B_Head"
      0 77 "G_Hand"
      0 76 "G_Head"
      0 75 "K_Hand"
      0 74 "K_Head"
      0 72 "DV_Near"
      0 71 "BD_Near"
      0 70 "DG_Near"
      0 69 "BV_Behind"
      0 68 "BV_Near"
      0 67 "GV_Behind"
      0 66 "GV_Near"
      0 65 "KV_Behind"
      0 64 "KV_Near"
      0 63 "BG_Behind"
      0 62 "BG_Near"
      0 61 "BK_Behind"
      0 60 "BK_Near"
      0 59 "GK_Behind"
      0 58 "GK_Near"
      0 56 "D_All"
      0 55 "D_All_Cam"
      0 54 "D_All_LT*"
      0 53 "D_All_Yeah"
      0 52 "D_BRE"
      0 51 "D_BRE_Jump"
      0 49 "D_Drums_NP"
      0 48 "D_Bass_NP"
      0 47 "D_Gtr_NP"
      0 46 "D_Vox_NP"
      0 45 "D_Keys_NP"
      0 43 "D_Drums"
      0 42 "D_Drums_LT*"
      0 41 "D_Vocals"
      0 40 "D_Bass"
      0 39 "D_Gtr"
      0 38 "D_Keys"
      0 36 "D_Vox_Cam_PR"
      0 35 "D_Vox_Cam_PT"
      0 34 "D_Gtr_Cam_PR"
      0 33 "D_Gtr_Cam_PT"
      0 32 "D_Keys_Cam"
      0 31 "D_Bass_Cam"
      0 29 "D_Stagedive"
      0 28 "D_Crowdsurf"
      0 26 "D_Vox_CLS"
      0 25 "D_Bass_CLS*"
      0 24 "D_Gtr_CLS*"
      0 23 "D_Drums_KD*"
      0 21 "D_Drums_Point"
      0 20 "D_Crowd_Gtr"
      0 19 "D_Crowd_Bass"
      0 17 "D_Duo_Drums"
      0 16 "D_Duo_Gtr"
      0 15 "D_Duo_Bass"
      0 14 "D_Duo_KV"
      0 13 "D_Duo_GB"
      0 12 "D_Duo_KB"
      0 11 "D_Duo_KG"
      0 10 "D_Crowd*"
    >
    MAINSEND 1 0
    <FXCHAIN
      SHOW 0
      LASTSEL 0
      DOCKED 0
    >
    <ITEM
      POSITION 0.00000000000000
      SNAPOFFS 0.00000000000000
      LENGTH 194.42541950113377
      LOOP 0
      ALLTAKES 0
      SEL 0
      FADEIN 1 0.000000 0.000000 1 0
      FADEOUT 1 0.000000 0.000000 1 0
      MUTE 0
      IGUID {F561AA29-A4C5-4EE1-B8EC-95599D861D12}
      IID 15
      NAME "CAMERA"
      VOLPAN 1.000000 0.000000 1.000000 -1.000000
      SOFFS 0.00000000000000 0.00000000000000
      PLAYRATE 1.00000000000000 1 0.00000000000000 -1
      CHANMODE 0
      GUID {A0DAEFD0-ADB2-46ED-AEE3-0CEF3D09ED3E}
      <SOURCE MIDI
        HASDATA 1 480 QN
        POOLEDEVTS {0C00D6E7-A9E9-461E-9B5D-7393E7B79324}
        <X 0 0
          /wFbY29vcF9hbGxfZmFyXQ==
        >
        E 0 90 63 60
        <X 4560 0
          /wFbY29vcF9nX2Nsb3NldXBfaGFuZF0=
        >
        E 0 80 63 00
        E 0 90 4d 60
        <X 1680 0
          /wFbY29vcF9ndl9iZWhpbmRd
        >
        E 0 80 4d 00
        E 0 90 43 60
        <X 1920 0
          /wFbY29vcF9iX25lYXJd
        >
        E 0 80 43 00
        E 0 90 58 60
        <X 1440 0
          /wFbZGlyZWN0ZWRfZHJ1bXNfa2Rd
        >
        E 0 80 58 00
        E 0 90 17 60
        <X 1920 0
          /wFbY29vcF9kX25lYXJd
        >
        E 0 80 17 00
        E 0 90 5c 60
        <X 1920 0
          /wFbY29vcF92X2Nsb3NldXBd
        >
        E 0 80 5c 00
        E 0 90 50 60
        <X 2880 0
          /wFbZGlyZWN0ZWRfZHVvX2RydW1zXQ==
        >
        E 0 80 50 00
        E 0 90 11 60
        <X 2880 0
          /wFbY29vcF9nX2JlaGluZF0=
        >
        E 0 80 11 00
        E 0 90 57 60
        <X 1920 0
          /wFbZGlyZWN0ZWRfZHVvX2diXQ==
        >
        E 0 80 57 00
        E 0 90 0d 60
        <X 3840 0
          /wFbZGlyZWN0ZWRfdm9jYWxzX2Nsc10=
        >
        E 0 80 0d 00
        E 0 90 1a 60
        <X 3840 0
          /wFbY29vcF9ndl9uZWFyXQ==
        >
        E 0 80 1a 00
        E 0 90 42 60
        <X 6240 0
          /wFbY29vcF9nX2Nsb3NldXBfaGFuZF0=
        >
        E 0 80 42 00
        E 0 90 4d 60
        <X 1440 0
          /wFbY29vcF9hbGxfYmVoaW5kXQ==
        >
        E 0 80 4d 00
        E 0 90 64 60
        <X 3840 0
          /wFbY29vcF9hbGxfZmFyXQ==
        >
        E 0 80 64 00
        E 0 90 63 60
        <X 2640 0
          /wFbY29vcF9ndl9uZWFyXQ==
        >
        E 0 80 63 00
        E 0 90 42 60
        <X 5040 0
          /wFbY29vcF9kX25lYXJd
        >
        E 0 80 42 00
        E 0 90 5c 60
        <X 3840 0
          /wFbZGlyZWN0ZWRfdm9jYWxzX2NhbV9wcl0=
        >
        E 0 80 5c 00
        E 0 90 24 60
        <X 3840 0
          /wFbZGlyZWN0ZWRfdm9jYWxzXQ==
        >
        E 0 80 24 00
        E 0 90 29 60
        <X 1920 0
          /wFbY29vcF9kX25lYXJd
        >
        E 0 80 29 00
        E 0 90 5c 60
        <X 1920 0
          /wFbY29vcF9hbGxfbmVhcl0=
        >
        E 0 80 5c 00
        E 0 90 62 60
        <X 3840 0
          /wFbZGlyZWN0ZWRfYWxsX2NhbV0=
        >
        E 0 80 62 00
        E 0 90 37 60
        <X 3840 0
          /wFbY29vcF9hbGxfYmVoaW5kXQ==
        >
        E 0 80 37 00
        E 0 90 64 60
        <X 1920 0
          /wFbY29vcF9kX25lYXJd
        >
        E 0 80 64 00
        E 0 90 5c 60
        <X 3840 0
          /wFbZGlyZWN0ZWRfZHJ1bXNfa2Rd
        >
        E 0 80 5c 00
        E 0 90 17 60
        <X 3840 0
          /wFbY29vcF9ndl9uZWFyXQ==
        >
        E 0 80 17 00
        E 0 90 42 60
        <X 2640 0
          /wFbY29vcF9iX2Nsb3NldXBfaGFuZF0=
        >
        E 0 80 42 00
        E 0 90 4f 60
        <X 1680 0
          /wFbY29vcF9ndl9uZWFyXQ==
        >
        E 0 80 4f 00
        E 0 90 42 60
        <X 1920 0
          /wFbY29vcF9nX2Nsb3NldXBfaGFuZF0=
        >
        E 0 80 42 00
        E 0 90 4d 60
        <X 1920 0
          /wFbY29vcF9kX2Nsb3NldXBfaGFuZF0=
        >
        E 0 80 4d 00
        E 0 90 52 60
        <X 3360 0
          /wFbY29vcF9kdl9uZWFyXQ==
        >
        E 0 80 52 00
        E 0 90 48 60
        <X 3840 0
          /wFbY29vcF9iZ19uZWFyXQ==
        >
        E 0 80 48 00
        E 0 90 3e 60
        E 3840 80 3e 00
        <X 3840 0
          /wFbZGlyZWN0ZWRfZ3VpdGFyXQ==
        >
        <X 0 0
          /wFbZGlyZWN0ZWRfdm9jYWxzXQ==
        >
        E 0 90 27 60
        E 0 90 29 60
        <X 3840 0
          /wFbZGlyZWN0ZWRfZ3VpdGFyXQ==
        >
        <X 0 0
          /wFbZGlyZWN0ZWRfdm9jYWxzXQ==
        >
        E 0 80 27 00
        E 0 80 29 00
        E 0 90 27 60
        E 0 90 29 60
        <X 2640 0
          /wFbZGlyZWN0ZWRfZHJ1bXNd
        >
        E 0 80 27 00
        E 0 80 29 00
        E 0 90 2b 60
        <X 1200 0
          /wFbZGlyZWN0ZWRfYWxsXQ==
        >
        E 0 80 2b 00
        E 0 90 38 60
        <X 3840 0
          /wFbZGlyZWN0ZWRfYWxsXQ==
        >
        E 0 80 38 00
        E 0 90 38 60
        <X 3840 0
          /wFbY29vcF9iX25lYXJd
        >
        E 0 80 38 00
        E 0 90 58 60
        <X 3840 0
          /wFbY29vcF9nX2Nsb3NldXBfaGFuZF0=
        >
        E 0 80 58 00
        E 0 90 4d 60
        <X 3840 0
          /wFbY29vcF92X25lYXJd
        >
        E 0 80 4d 00
        E 0 90 5a 60
        <X 3840 0
          /wFbY29vcF92X25lYXJd
        >
        E 0 80 5a 00
        E 0 90 5a 60
        <X 1920 0
          /wFbY29vcF9hbGxfYmVoaW5kXQ==
        >
        E 0 80 5a 00
        E 0 90 64 60
        <X 3840 0
          /wFbZGlyZWN0ZWRfZHJ1bXNfa2Rd
        >
        E 0 80 64 00
        E 0 90 17 60
        <X 480 0
          /wFbY29vcF9nX25lYXJd
        >
        E 0 80 17 00
        E 0 90 56 60
        <X 1440 0
          /wFbZGlyZWN0ZWRfZHJ1bXNfa2Rd
        >
        E 0 80 56 00
        E 0 90 17 60
        <X 480 0
          /wFbY29vcF9nX25lYXJd
        >
        E 0 80 17 00
        E 0 90 56 60
        <X 1440 0
          /wFbY29vcF9iZ19iZWhpbmRd
        >
        E 0 80 56 00
        E 0 90 3f 60
        <X 1920 0
          /wFbY29vcF9iZ19uZWFyXQ==
        >
        E 0 80 3f 00
        E 0 90 3e 60
        <X 1920 0
          /wFbZGlyZWN0ZWRfZHJ1bXNfa2Rd
        >
        E 0 80 3e 00
        E 0 90 17 60
        <X 2400 0
          /wFbY29vcF9nX2JlaGluZF0=
        >
        E 0 80 17 00
        E 0 90 57 60
        <X 1440 0
          /wFbY29vcF9nX2Nsb3NldXBfaGFuZF0=
        >
        E 0 80 57 00
        E 0 90 4d 60
        <X 3120 0
          /wFbY29vcF9iX25lYXJd
        >
        E 0 80 4d 00
        E 0 90 58 60
        <X 720 0
          /wFbY29vcF9iX2Nsb3NldXBfaGFuZF0=
        >
        E 0 80 58 00
        E 0 90 4f 60
        <X 3840 0
          /wFbY29vcF9iZ19uZWFyXQ==
        >
        E 0 80 4f 00
        E 0 90 3e 60
        <X 3840 0
          /wFbZGlyZWN0ZWRfYWxsXQ==
        >
        E 0 80 3e 00
        E 0 90 38 60
        <X 3840 0
          /wFbY29vcF9hbGxfZmFyXQ==
        >
        E 0 80 38 00
        E 0 90 63 60
        <X 1920 0
          /wFbZGlyZWN0ZWRfYWxsX3llYWhd
        >
        E 0 80 63 00
        E 0 90 35 60
        E 1920 80 35 00
        <X 960 0
          /wFbY29vcF9kX25lYXJd
        >
        E 0 90 5c 60
        <X 2880 0
          /wFbZGlyZWN0ZWRfZHVvX2diXQ==
        >
        E 0 80 5c 00
        E 0 90 0d 60
        <X 3840 0
          /wFbY29vcF92X2Nsb3NldXBd
        >
        E 0 80 0d 00
        E 0 90 50 60
        <X 1920 0
          /wFbY29vcF9kX2Nsb3NldXBfaGFuZF0=
        >
        E 0 80 50 00
        E 0 90 52 60
        <X 2400 0
          /wFbY29vcF9nX2Nsb3NldXBfaGFuZF0=
        >
        E 0 80 52 00
        E 0 90 4d 60
        <X 1920 0
          /wFbY29vcF9ndl9uZWFyXQ==
        >
        E 0 80 4d 00
        E 0 90 42 60
        <X 5280 0
          /wFbY29vcF9kX2JlaGluZF0=
        >
        E 0 80 42 00
        E 0 90 5d 60
        <X 3840 0
          /wFbY29vcF9iX25lYXJd
        >
        E 0 80 5d 00
        E 0 90 58 60
        <X 3840 0
          /wFbY29vcF9hbGxfYmVoaW5kXQ==
        >
        E 0 80 58 00
        E 0 90 64 60
        <X 3840 0
          /wFbY29vcF9ndl9uZWFyXQ==
        >
        E 0 80 64 00
        E 0 90 42 60
        <X 5760 0
          /wFbY29vcF9hbGxfZmFyXQ==
        >
        E 0 80 42 00
        E 0 90 63 60
        E 9600 80 63 00
        E 0 b0 7b 00
        GUID {53E5D339-0EDA-4D12-A9EE-83ECD6CE2918}
        IGNTEMPO 0 120.00000000 4 4
        SRCCOLOR 73
        VELLANE 132 71 60
        COLORMAP "C:\Program Files (x86)\REAPER\Data\color_maps\rockband_guitarbass.png"
        CFGEDITVIEW -10633.792786 8.094942 0 12 0 0 0
        CFGEDIT 1 1 0 1 1 0 1 1 1 1 1 0.25000000 -4 0 1025 558 0 2 1 1 0.00000000 0 1 1 0 0.500000 0 0 1.000000 64
        KEYSNAP 0 2 "102034050607" 0 "Major"
        EVTFILTER 0 -1 -1 -1 -1 0 1 0 0 -1.00000000 -1.00000000
      >
    >
  >
  <TRACK '{D10E87B8-FB4E-4851-9A79-2F60CC8F6592}'
    NAME "LIGHTING"
    PEAKCOL 16576
    BEAT -1
    AUTOMODE 0
    VOLPAN 1.00000000000000 0.00000000000000 -1.00000000000000 -1.00000000000000 1.00000000000000
    MUTESOLO 1 0 0
    IPHASE 0
    ISBUS 2 -1
    BUSCOMP 0 0
    SHOWINMIX 1 0.666700 0.500000 1 0.500000 -1 -1 -1
    FREEMODE 0
    SEL 0
    REC 0 0 0 0 0 0 0
    VU 2
    TRACKHEIGHT 24 0
    INQ 0 0 0 0.5000000000 100 0 0 100
    NCHAN 2
    FX 1
    TRACKID {D10E87B8-FB4E-4851-9A79-2F60CC8F6592}
    PERF 0
    MIDIOUT -1
    <MIDINOTENAMES
      0 71 "Default"
      0 70 "Color_Muted"
      0 69 "Video_Grainy"
      0 68 "16mm Film"
      0 67 "Shitty_TV"
      0 66 "Bloom"
      0 65 "Sepia_Ink"
      0 64 "Silvertone"
      0 63 "Film_BW"
      0 62 "Video_BW"
      0 61 "Contrast BW"
      0 60 "Photocopy"
      0 59 "Blue_Filter"
      0 58 "Desat_Blue"
      0 57 "Video_Security"
      0 55 "Bright"
      0 54 "Posterize"
      0 53 "Clean_Trails"
      0 52 "Video_Trails"
      0 51 "Flicker_Trails"
      0 50 "Desat_Posterize"
      0 49 "Film_Contrast"
      0 48 "Film_Contrast_Blue"
      0 47 "Film_Contrast_Green"
      0 46 "Film_Contrast_Red"
      0 45 "Horror_Movie"
      0 44 "Photo_Negative"
      0 43 "Mirror"
      0 42 "Psych_Blue_Red"
      0 41 "Space_Woosh"
      0 39 "Verse"
      0 38 "Chorus"
      0 37 "Manual_Cool"
      0 36 "Manual_Warm"
      0 35 "Dischord"
      0 34 "Stomp"
      0 32 "first"
      0 31 "prev"
      0 30 "next"
      0 28 "Loop_Cool"
      0 27 "Loop_Warm"
      0 26 "Harmony"
      0 25 "Frenzy"
      0 24 "Silhouettes"
      0 23 "Silhouettes_Spot"
      0 22 "Searchlights"
      0 21 "Sweep"
      0 20 "Strobe_Slow"
      0 19 "Strobe_Fast"
      0 18 "Blackout_Slow"
      0 17 "Blackout_Fast"
      0 16 "Blackout_Spot"
      0 15 "Flare_Slow"
      0 14 "Flare_Fast"
      0 13 "BRE"
      0 11 "BONUSFX"
      0 10 "BONUSFX_Opt"
      0 8 "STROBE"
    >
    MAINSEND 1 0
    <FXCHAIN
      SHOW 0
      LASTSEL 0
      DOCKED 0
    >
    <ITEM
      POSITION 0.00000000000000
      SNAPOFFS 0.00000000000000
      LENGTH 198.44041922497954
      LOOP 0
      ALLTAKES 0
      SEL 0
      FADEIN 1 0.000000 0.000000 1 0
      FADEOUT 1 0.000000 0.000000 1 0
      MUTE 0
      IGUID {C8119DB6-969F-4195-9840-6A9DB1DB9A5F}
      IID 16
      NAME "LIGHTING"
      VOLPAN 1.000000 0.000000 1.000000 -1.000000
      SOFFS 0.00000000000000 0.00000000000000
      PLAYRATE 1.00000000000000 1 0.00000000000000 -1
      CHANMODE 0
      GUID {CCA7C5AD-251E-4585-AEFB-2C199F1003DE}
      <SOURCE MIDI
        HASDATA 1 480 QN
        POOLEDEVTS {C2B4E1F7-76D1-4629-B72B-C8C6CA328F31}
        <X 0 0
          /wFbZmlsbV9zaWx2ZXJ0b25lLnBwXQ==
        >
        E 0 90 40 60
        <X 5280 0
          /wFbbGlnaHRpbmcgKGJsYWNrb3V0X2Zhc3QpXQ==
        >
        E 0 90 11 60
        <X 480 0
          /wFbZmlyc3Rd
        >
        <X 0 0
          /wFbbGlnaHRpbmcgKGZsYXJlX2Zhc3QpXQ==
        >
        <X 0 0
          /wFbbGlnaHRpbmcgKHZlcnNlKV0=
        >
        E 0 80 11 00
        E 0 90 0e 60
        E 0 90 20 60
        E 0 90 27 60
        E 120 80 20 00
        <X 360 0
          /wFbbGlnaHRpbmcgKGZsYXJlX2Zhc3QpXQ==
        >
        E 0 80 0e 00
        <X 480 0
          /wFbbmV4dF0=
        >
        E 0 90 1e 60
        E 120 80 1e 00
        <X 840 0
          /wFbbmV4dF0=
        >
        E 0 90 1e 60
        E 120 80 1e 00
        <X 840 0
          /wFbbmV4dF0=
        >
        E 0 90 1e 60
        E 120 80 1e 00
        <X 840 0
          /wFbbmV4dF0=
        >
        E 0 90 1e 60
        E 120 80 1e 00
        <X 840 0
          /wFbbmV4dF0=
        >
        E 0 90 1e 60
        E 120 80 1e 00
        <X 840 0
          /wFbbmV4dF0=
        >
        E 0 90 1e 60
        E 120 80 1e 00
        <X 840 0
          /wFbbmV4dF0=
        >
        E 0 90 1e 60
        E 120 80 1e 00
        <X 840 0
          /wFbbmV4dF0=
        >
        E 0 90 1e 60
        E 120 80 1e 00
        <X 840 0
          /wFbbmV4dF0=
        >
        E 0 90 1e 60
        E 120 80 1e 00
        <X 840 0
          /wFbbmV4dF0=
        >
        E 0 90 1e 60
        E 120 80 1e 00
        <X 840 0
          /wFbbmV4dF0=
        >
        E 0 90 1e 60
        E 120 80 1e 00
        <X 840 0
          /wFbbmV4dF0=
        >
        E 0 90 1e 60
        E 120 80 1e 00
        <X 840 0
          /wFbbmV4dF0=
        >
        E 0 90 1e 60
        E 120 80 1e 00
        <X 840 0
          /wFbbmV4dF0=
        >
        E 0 90 1e 60
        E 120 80 1e 00
        <X 840 0
          /wFbbmV4dF0=
        >
        E 0 90 1e 60
        E 120 80 1e 00
        <X 840 0
          /wFbZmlyc3Rd
        >
        E 0 90 20 60
        E 120 80 20 00
        <X 840 0
          /wFbbmV4dF0=
        >
        E 0 90 1e 60
        E 120 80 1e 00
        <X 840 0
          /wFbbmV4dF0=
        >
        E 0 90 1e 60
        E 120 80 1e 00
        <X 840 0
          /wFbbmV4dF0=
        >
        E 0 90 1e 60
        E 120 80 1e 00
        <X 840 0
          /wFbbmV4dF0=
        >
        E 0 90 1e 60
        E 120 80 1e 00
        <X 840 0
          /wFbbmV4dF0=
        >
        E 0 90 1e 60
        E 120 80 1e 00
        <X 840 0
          /wFbbmV4dF0=
        >
        E 0 90 1e 60
        E 120 80 1e 00
        <X 840 0
          /wFbbmV4dF0=
        >
        E 0 90 1e 60
        E 120 80 1e 00
        <X 840 0
          /wFbbmV4dF0=
        >
        E 0 90 1e 60
        E 120 80 1e 00
        <X 840 0
          /wFbbmV4dF0=
        >
        E 0 90 1e 60
        E 120 80 1e 00
        <X 840 0
          /wFbbmV4dF0=
        >
        E 0 90 1e 60
        E 120 80 1e 00
        <X 840 0
          /wFbbmV4dF0=
        >
        E 0 90 1e 60
        E 120 80 1e 00
        <X 840 0
          /wFbbmV4dF0=
        >
        E 0 90 1e 60
        E 120 80 1e 00
        <X 840 0
          /wFbbmV4dF0=
        >
        E 0 90 1e 60
        E 120 80 1e 00
        <X 840 0
          /wFbbmV4dF0=
        >
        E 0 90 1e 60
        E 120 80 1e 00
        <X 840 0
          /wFbbmV4dF0=
        >
        E 0 90 1e 60
        E 120 80 1e 00
        <X 360 0
          /wFbbGlnaHRpbmcgKGJsYWNrb3V0X2Zhc3QpXQ==
        >
        E 0 90 11 60
        <X 480 0
          /wFbZmlyc3Rd
        >
        <X 0 0
          /wFbbGlnaHRpbmcgKGZsYXJlX2Zhc3QpXQ==
        >
        <X 0 0
          /wFbbGlnaHRpbmcgKG1hbnVhbF93YXJtKV0=
        >
        E 0 80 27 00
        E 0 80 11 00
        E 0 90 0e 60
        E 0 90 20 60
        E 0 90 24 60
        E 120 80 20 00
        <X 360 0
          /wFbbGlnaHRpbmcgKGZsYXJlX2Zhc3QpXQ==
        >
        E 0 80 0e 00
        <X 480 0
          /wFbbmV4dF0=
        >
        E 0 90 1e 60
        E 120 80 1e 00
        <X 840 0
          /wFbbmV4dF0=
        >
        E 0 90 1e 60
        E 120 80 1e 00
        <X 840 0
          /wFbbmV4dF0=
        >
        E 0 90 1e 60
        E 120 80 1e 00
        <X 840 0
          /wFbbmV4dF0=
        >
        E 0 90 1e 60
        E 120 80 1e 00
        <X 840 0
          /wFbbmV4dF0=
        >
        E 0 90 1e 60
        E 120 80 1e 00
        <X 840 0
          /wFbbmV4dF0=
        >
        E 0 90 1e 60
        E 120 80 1e 00
        <X 840 0
          /wFbbmV4dF0=
        >
        <X 0 0
          /wFbZmlsbV9zaWx2ZXJ0b25lLnBwXQ==
        >
        E 0 80 40 00
        E 0 90 1e 60
        E 120 80 1e 00
        <X 360 0
          /wFbbGlnaHRpbmcgKGJsYWNrb3V0X2Zhc3QpXQ==
        >
        E 0 90 11 60
        <X 479 0
          /wFbbGlnaHRpbmcgKGZsYXJlX2Zhc3QpXQ==
        >
        E 0 90 0e 60
        <X 1 0
          /wFbZmlyc3Rd
        >
        <X 0 0
          /wFbbGlnaHRpbmcgKG1hbnVhbF9jb29sKV0=
        >
        <X 0 0
          /wFbc3BhY2Vfd29vc2gucHBd
        >
        E 0 80 24 00
        E 0 80 11 00
        E 0 90 20 60
        E 0 90 25 60
        E 0 90 29 60
        E 120 80 20 00
        <X 360 0
          /wFbbGlnaHRpbmcgKGZsYXJlX2Zhc3QpXQ==
        >
        E 0 80 0e 00
        <X 480 0
          /wFbbmV4dF0=
        >
        E 0 90 1e 60
        E 120 80 1e 00
        <X 840 0
          /wFbbmV4dF0=
        >
        E 0 90 1e 60
        E 120 80 1e 00
        <X 840 0
          /wFbbmV4dF0=
        >
        E 0 90 1e 60
        E 120 80 1e 00
        <X 840 0
          /wFbbmV4dF0=
        >
        E 0 90 1e 60
        E 120 80 1e 00
        <X 840 0
          /wFbbmV4dF0=
        >
        E 0 90 1e 60
        E 120 80 1e 00
        <X 840 0
          /wFbbmV4dF0=
        >
        E 0 90 1e 60
        E 120 80 1e 00
        <X 839 0
          /wFbbmV4dF0=
        >
        E 0 90 1e 60
        E 120 80 1e 00
        <X 841 0
          /wFbbmV4dF0=
        >
        E 0 90 1e 60
        E 120 80 1e 00
        <X 840 0
          /wFbbmV4dF0=
        >
        E 0 90 1e 60
        E 120 80 1e 00
        <X 840 0
          /wFbbmV4dF0=
        >
        E 0 90 1e 60
        E 120 80 1e 00
        <X 839 0
          /wFbbmV4dF0=
        >
        E 0 90 1e 60
        E 120 80 1e 00
        <X 841 0
          /wFbbmV4dF0=
        >
        E 0 90 1e 60
        E 120 80 1e 00
        <X 840 0
          /wFbbmV4dF0=
        >
        E 0 90 1e 60
        E 120 80 1e 00
        <X 840 0
          /wFbbmV4dF0=
        >
        E 0 90 1e 60
        E 120 80 1e 00
        <X 839 0
          /wFbbmV4dF0=
        >
        E 0 90 1e 60
        E 120 80 1e 00
        <X 841 0
          /wFbbmV4dF0=
        >
        E 0 90 1e 60
        E 120 80 1e 00
        <X 840 0
          /wFbbmV4dF0=
        >
        E 0 90 1e 60
        E 120 80 1e 00
        <X 840 0
          /wFbbmV4dF0=
        >
        E 0 90 1e 60
        E 120 80 1e 00
        <X 839 0
          /wFbbmV4dF0=
        >
        E 0 90 1e 60
        E 120 80 1e 00
        <X 841 0
          /wFbbmV4dF0=
        >
        E 0 90 1e 60
        E 120 80 1e 00
        <X 840 0
          /wFbbmV4dF0=
        >
        <X 0 0
          /wFbc3BhY2Vfd29vc2gucHBd
        >
        E 0 80 29 00
        E 0 90 1e 60
        E 120 80 1e 00
        <X 360 0
          /wFbbmV4dF0=
        >
        E 0 90 1e 60
        E 120 80 1e 00
        <X 120 0
          /wFbbGlnaHRpbmcgKGJsYWNrb3V0X2Zhc3QpXQ==
        >
        E 0 90 11 60
        <X 240 0
          /wFbUHJvRmlsbV9hLnBwXQ==
        >
        E 0 90 47 60
        <X 2400 0
          /wFbUHJvRmlsbV9hLnBwXQ==
        >
        E 0 80 47 00
        <X 240 0
          /wFbZmlsbV9zaWx2ZXJ0b25lLnBwXQ==
        >
        E 0 90 40 60
        <X 1200 0
          /wFbZmlyc3Rd
        >
        <X 0 0
          /wFbbGlnaHRpbmcgKGZsYXJlX2Zhc3QpXQ==
        >
        <X 0 0
          /wFbbGlnaHRpbmcgKHZlcnNlKV0=
        >
        E 0 80 25 00
        E 0 80 11 00
        E 0 90 0e 60
        E 0 90 20 60
        E 0 90 27 60
        E 120 80 20 00
        <X 360 0
          /wFbbGlnaHRpbmcgKGZsYXJlX2Zhc3QpXQ==
        >
        E 0 80 0e 00
        <X 480 0
          /wFbbmV4dF0=
        >
        E 0 90 1e 60
        E 120 80 1e 00
        <X 840 0
          /wFbbmV4dF0=
        >
        E 0 90 1e 60
        E 120 80 1e 00
        <X 840 0
          /wFbbmV4dF0=
        >
        <X 0 0
          /wFbZmlsbV9zaWx2ZXJ0b25lLnBwXQ==
        >
        E 0 80 40 00
        E 0 90 1e 60
        E 120 80 1e 00
        <X 840 0
          /wFbbmV4dF0=
        >
        E 0 90 1e 60
        E 120 80 1e 00
        <X 840 0
          /wFbbmV4dF0=
        >
        E 0 90 1e 60
        E 120 80 1e 00
        <X 840 0
          /wFbbmV4dF0=
        >
        E 0 90 1e 60
        E 120 80 1e 00
        <X 840 0
          /wFbbmV4dF0=
        >
        E 0 90 1e 60
        E 120 80 1e 00
        <X 840 0
          /wFbbmV4dF0=
        >
        E 0 90 1e 60
        E 120 80 1e 00
        <X 840 0
          /wFbbmV4dF0=
        >
        E 0 90 1e 60
        E 120 80 1e 00
        <X 840 0
          /wFbbmV4dF0=
        >
        E 0 90 1e 60
        E 120 80 1e 00
        <X 840 0
          /wFbbmV4dF0=
        >
        E 0 90 1e 60
        E 120 80 1e 00
        <X 840 0
          /wFbbmV4dF0=
        >
        E 0 90 1e 60
        E 120 80 1e 00
        <X 840 0
          /wFbbmV4dF0=
        >
        E 0 90 1e 60
        E 120 80 1e 00
        <X 840 0
          /wFbbmV4dF0=
        >
        E 0 90 1e 60
        E 120 80 1e 00
        <X 840 0
          /wFbbmV4dF0=
        >
        E 0 90 1e 60
        E 120 80 1e 00
        <X 840 0
          /wFbZmlyc3Rd
        >
        E 0 90 20 60
        E 120 80 20 00
        <X 840 0
          /wFbbmV4dF0=
        >
        E 0 90 1e 60
        E 120 80 1e 00
        <X 840 0
          /wFbbmV4dF0=
        >
        E 0 90 1e 60
        E 120 80 1e 00
        <X 840 0
          /wFbbmV4dF0=
        >
        E 0 90 1e 60
        E 120 80 1e 00
        <X 840 0
          /wFbbmV4dF0=
        >
        E 0 90 1e 60
        E 120 80 1e 00
        <X 840 0
          /wFbbmV4dF0=
        >
        E 0 90 1e 60
        E 120 80 1e 00
        <X 840 0
          /wFbbmV4dF0=
        >
        E 0 90 1e 60
        E 120 80 1e 00
        <X 840 0
          /wFbbmV4dF0=
        >
        E 0 90 1e 60
        E 120 80 1e 00
        <X 840 0
          /wFbbmV4dF0=
        >
        E 0 90 1e 60
        E 120 80 1e 00
        <X 840 0
          /wFbbmV4dF0=
        >
        E 0 90 1e 60
        E 120 80 1e 00
        <X 840 0
          /wFbbmV4dF0=
        >
        E 0 90 1e 60
        E 120 80 1e 00
        <X 840 0
          /wFbbmV4dF0=
        >
        E 0 90 1e 60
        E 120 80 1e 00
        <X 840 0
          /wFbbmV4dF0=
        >
        E 0 90 1e 60
        E 120 80 1e 00
        <X 840 0
          /wFbbmV4dF0=
        >
        E 0 90 1e 60
        E 120 80 1e 00
        <X 840 0
          /wFbbmV4dF0=
        >
        E 0 90 1e 60
        E 120 80 1e 00
        <X 840 0
          /wFbbmV4dF0=
        >
        E 0 90 1e 60
        E 120 80 1e 00
        <X 360 0
          /wFbbGlnaHRpbmcgKGJsYWNrb3V0X2Zhc3QpXQ==
        >
        E 0 90 11 60
        <X 480 0
          /wFbZmlyc3Rd
        >
        <X 0 0
          /wFbbGlnaHRpbmcgKGZsYXJlX2Zhc3QpXQ==
        >
        <X 0 0
          /wFbbGlnaHRpbmcgKG1hbnVhbF93YXJtKV0=
        >
        E 0 80 27 00
        E 0 80 11 00
        E 0 90 0e 60
        E 0 90 20 60
        E 0 90 24 60
        E 120 80 20 00
        <X 360 0
          /wFbbGlnaHRpbmcgKGZsYXJlX2Zhc3QpXQ==
        >
        E 0 80 0e 00
        <X 480 0
          /wFbbmV4dF0=
        >
        E 0 90 1e 60
        E 120 80 1e 00
        <X 840 0
          /wFbbmV4dF0=
        >
        E 0 90 1e 60
        E 120 80 1e 00
        <X 840 0
          /wFbbmV4dF0=
        >
        E 0 90 1e 60
        E 120 80 1e 00
        <X 840 0
          /wFbbmV4dF0=
        >
        E 0 90 1e 60
        E 120 80 1e 00
        <X 840 0
          /wFbbmV4dF0=
        >
        E 0 90 1e 60
        E 120 80 1e 00
        <X 840 0
          /wFbbmV4dF0=
        >
        E 0 90 1e 60
        E 120 80 1e 00
        <X 840 0
          /wFbbmV4dF0=
        >
        E 0 90 1e 60
        E 120 80 1e 00
        <X 840 0
          /wFbZmlyc3Rd
        >
        <X 0 0
          /wFbbGlnaHRpbmcgKG1hbnVhbF9jb29sKV0=
        >
        <X 0 0
          /wFbc3BhY2Vfd29vc2gucHBd
        >
        E 0 80 24 00
        E 0 90 20 60
        E 0 90 25 60
        E 0 90 29 60
        E 120 80 20 00
        <X 840 0
          /wFbbmV4dF0=
        >
        E 0 90 1e 60
        E 120 80 1e 00
        <X 840 0
          /wFbbmV4dF0=
        >
        E 0 90 1e 60
        E 120 80 1e 00
        <X 840 0
          /wFbbmV4dF0=
        >
        E 0 90 1e 60
        E 120 80 1e 00
        <X 840 0
          /wFbbmV4dF0=
        >
        E 0 90 1e 60
        E 120 80 1e 00
        <X 840 0
          /wFbbmV4dF0=
        >
        E 0 90 1e 60
        E 120 80 1e 00
        <X 840 0
          /wFbbmV4dF0=
        >
        E 0 90 1e 60
        E 120 80 1e 00
        <X 840 0
          /wFbbmV4dF0=
        >
        E 0 90 1e 60
        E 120 80 1e 00
        <X 840 0
          /wFbbmV4dF0=
        >
        E 0 90 1e 60
        E 120 80 1e 00
        <X 840 0
          /wFbbmV4dF0=
        >
        E 0 90 1e 60
        E 120 80 1e 00
        <X 840 0
          /wFbbmV4dF0=
        >
        E 0 90 1e 60
        E 120 80 1e 00
        <X 840 0
          /wFbbmV4dF0=
        >
        E 0 90 1e 60
        E 120 80 1e 00
        <X 840 0
          /wFbbmV4dF0=
        >
        E 0 90 1e 60
        E 120 80 1e 00
        <X 840 0
          /wFbbmV4dF0=
        >
        E 0 90 1e 60
        E 120 80 1e 00
        <X 840 0
          /wFbbmV4dF0=
        >
        E 0 90 1e 60
        E 120 80 1e 00
        <X 840 0
          /wFbbmV4dF0=
        >
        E 0 90 1e 60
        E 120 80 1e 00
        <X 840 0
          /wFbbmV4dF0=
        >
        E 0 90 1e 60
        E 120 80 1e 00
        <X 840 0
          /wFbbmV4dF0=
        >
        E 0 90 1e 60
        E 120 80 1e 00
        <X 840 0
          /wFbbmV4dF0=
        >
        E 0 90 1e 60
        E 120 80 1e 00
        <X 840 0
          /wFbbmV4dF0=
        >
        E 0 90 1e 60
        E 120 80 1e 00
        <X 840 0
          /wFbbmV4dF0=
        >
        E 0 90 1e 60
        E 120 80 1e 00
        <X 840 0
          /wFbbmV4dF0=
        >
        <X 0 0
          /wFbc3BhY2Vfd29vc2gucHBd
        >
        E 0 80 29 00
        E 0 90 1e 60
        E 120 80 1e 00
        <X 360 0
          /wFbbmV4dF0=
        >
        E 0 90 1e 60
        E 120 80 1e 00
        <X 120 0
          /wFbbGlnaHRpbmcgKGJsYWNrb3V0X2Zhc3QpXQ==
        >
        E 0 90 11 60
        <X 4080 0
          /wFbZmlyc3Rd
        >
        <X 0 0
          /wFbbGlnaHRpbmcgKGRpc2Nob3JkKV0=
        >
        <X 0 0
          /wFbUHJvRmlsbV9hLnBwXQ==
        >
        E 0 80 25 00
        E 0 90 20 60
        E 0 90 23 60
        E 0 90 47 60
        E 120 80 20 00
        <X 1800 0
          /wFbbmV4dF0=
        >
        E 0 90 1e 60
        E 120 80 1e 00
        <X 1800 0
          /wFbbmV4dF0=
        >
        E 0 90 1e 60
        E 120 80 1e 00
        <X 1800 0
          /wFbbmV4dF0=
        >
        E 0 90 1e 60
        E 120 80 1e 00
        <X 1800 0
          /wFbbmV4dF0=
        >
        E 0 90 1e 60
        E 120 80 1e 00
        <X 1800 0
          /wFbbmV4dF0=
        >
        E 0 90 1e 60
        E 120 80 1e 00
        <X 1800 0
          /wFbbmV4dF0=
        >
        E 0 90 1e 60
        E 120 80 1e 00
        <X 1800 0
          /wFbbmV4dF0=
        >
        E 0 90 1e 60
        E 120 80 1e 00
        <X 1800 0
          /wFbZmlyc3Rd
        >
        <X 0 0
          /wFbbGlnaHRpbmcgKGZsYXJlX2Zhc3QpXQ==
        >
        <X 0 0
          /wFbbGlnaHRpbmcgKHZlcnNlKV0=
        >
        E 0 80 11 00
        E 0 80 23 00
        E 0 90 0e 60
        E 0 90 20 60
        E 0 90 27 60
        E 120 80 20 00
        <X 840 0
          /wFbbmV4dF0=
        >
        E 0 90 1e 60
        E 120 80 1e 00
        <X 840 0
          /wFbbmV4dF0=
        >
        E 0 90 1e 60
        E 120 80 1e 00
        <X 840 0
          /wFbbmV4dF0=
        >
        E 0 90 1e 60
        E 120 80 1e 00
        <X 360 0
          /wFbbGlnaHRpbmcgKGJsYWNrb3V0X2Zhc3QpXQ==
        >
        E 0 80 0e 00
        E 0 90 11 60
        <X 479 0
          /wFbbGlnaHRpbmcgKGZsYXJlX2Zhc3QpXQ==
        >
        E 0 90 0e 60
        <X 1 0
          /wFbbmV4dF0=
        >
        E 0 80 11 00
        E 0 90 1e 60
        E 120 80 1e 00
        <X 360 0
          /wFbbGlnaHRpbmcgKGZsYXJlX2Zhc3QpXQ==
        >
        E 0 80 0e 00
        E 240 80 47 00
        <X 240 0
          /wFbbmV4dF0=
        >
        E 0 90 1e 60
        E 120 80 1e 00
        <X 840 0
          /wFbbmV4dF0=
        >
        E 0 90 1e 60
        E 120 80 1e 00
        <X 840 0
          /wFbbmV4dF0=
        >
        E 0 90 1e 60
        E 120 80 1e 00
        <X 360 0
          /wFbbGlnaHRpbmcgKGJsYWNrb3V0X2Zhc3QpXQ==
        >
        E 0 90 11 60
        <X 479 0
          /wFbbGlnaHRpbmcgKGZsYXJlX2Zhc3QpXQ==
        >
        E 0 90 0e 60
        <X 1 0
          /wFbbmV4dF0=
        >
        E 0 80 11 00
        E 0 90 1e 60
        E 120 80 1e 00
        <X 360 0
          /wFbbGlnaHRpbmcgKGZsYXJlX2Zhc3QpXQ==
        >
        E 0 80 0e 00
        <X 480 0
          /wFbbmV4dF0=
        >
        E 0 90 1e 60
        E 120 80 1e 00
        <X 840 0
          /wFbbmV4dF0=
        >
        E 0 90 1e 60
        E 120 80 1e 00
        <X 840 0
          /wFbbmV4dF0=
        >
        E 0 90 1e 60
        E 120 80 1e 00
        <X 360 0
          /wFbbGlnaHRpbmcgKGJsYWNrb3V0X2Zhc3QpXQ==
        >
        E 0 90 11 60
        <X 479 0
          /wFbbGlnaHRpbmcgKGZsYXJlX2Zhc3QpXQ==
        >
        E 0 90 0e 60
        <X 1 0
          /wFbbmV4dF0=
        >
        E 0 80 11 00
        E 0 90 1e 60
        E 120 80 1e 00
        <X 360 0
          /wFbbGlnaHRpbmcgKGZsYXJlX2Zhc3QpXQ==
        >
        E 0 80 0e 00
        <X 480 0
          /wFbbmV4dF0=
        >
        E 0 90 1e 60
        E 120 80 1e 00
        <X 840 0
          /wFbbmV4dF0=
        >
        E 0 90 1e 60
        E 120 80 1e 00
        <X 840 0
          /wFbbmV4dF0=
        >
        E 0 90 1e 60
        E 120 80 1e 00
        <X 360 0
          /wFbbGlnaHRpbmcgKGJsYWNrb3V0X2Zhc3QpXQ==
        >
        E 0 90 11 60
        <X 479 0
          /wFbbGlnaHRpbmcgKGZsYXJlX2Zhc3QpXQ==
        >
        E 0 90 0e 60
        <X 1 0
          /wFbZmlyc3Rd
        >
        E 0 80 11 00
        E 0 90 20 60
        E 120 80 20 00
        <X 360 0
          /wFbbGlnaHRpbmcgKGZsYXJlX2Zhc3QpXQ==
        >
        E 0 80 0e 00
        <X 480 0
          /wFbbmV4dF0=
        >
        E 0 90 1e 60
        E 120 80 1e 00
        <X 840 0
          /wFbbmV4dF0=
        >
        E 0 90 1e 60
        E 120 80 1e 00
        <X 840 0
          /wFbbmV4dF0=
        >
        E 0 90 1e 60
        E 120 80 1e 00
        <X 840 0
          /wFbbmV4dF0=
        >
        E 0 90 1e 60
        E 120 80 1e 00
        <X 840 0
          /wFbbmV4dF0=
        >
        E 0 90 1e 60
        E 120 80 1e 00
        <X 840 0
          /wFbbmV4dF0=
        >
        E 0 90 1e 60
        E 120 80 1e 00
        <X 840 0
          /wFbbmV4dF0=
        >
        E 0 90 1e 60
        E 120 80 1e 00
        <X 840 0
          /wFbbmV4dF0=
        >
        E 0 90 1e 60
        E 120 80 1e 00
        <X 840 0
          /wFbbmV4dF0=
        >
        E 0 90 1e 60
        E 120 80 1e 00
        <X 840 0
          /wFbbmV4dF0=
        >
        E 0 90 1e 60
        E 120 80 1e 00
        <X 840 0
          /wFbbmV4dF0=
        >
        E 0 90 1e 60
        E 120 80 1e 00
        <X 360 0
          /wFbbGlnaHRpbmcgKGJsYWNrb3V0X2Zhc3QpXQ==
        >
        E 0 90 11 60
        <X 480 0
          /wFbbGlnaHRpbmcgKHZlcnNlKV0=
        >
        E 0 80 27 00
        <X 3840 0
          /wFbZmlyc3Rd
        >
        <X 0 0
          /wFbbGlnaHRpbmcgKGZsYXJlX2Zhc3QpXQ==
        >
        <X 0 0
          /wFbbGlnaHRpbmcgKG1hbnVhbF93YXJtKV0=
        >
        E 0 80 11 00
        E 0 90 0e 60
        E 0 90 20 60
        E 0 90 24 60
        E 120 80 20 00
        <X 360 0
          /wFbbGlnaHRpbmcgKGZsYXJlX2Zhc3QpXQ==
        >
        E 0 80 0e 00
        <X 480 0
          /wFbbmV4dF0=
        >
        E 0 90 1e 60
        E 120 80 1e 00
        <X 840 0
          /wFbbmV4dF0=
        >
        E 0 90 1e 60
        E 120 80 1e 00
        <X 840 0
          /wFbbmV4dF0=
        >
        E 0 90 1e 60
        E 120 80 1e 00
        <X 840 0
          /wFbbmV4dF0=
        >
        E 0 90 1e 60
        E 120 80 1e 00
        <X 840 0
          /wFbbmV4dF0=
        >
        E 0 90 1e 60
        E 120 80 1e 00
        <X 840 0
          /wFbbmV4dF0=
        >
        E 0 90 1e 60
        E 120 80 1e 00
        <X 840 0
          /wFbbmV4dF0=
        >
        E 0 90 1e 60
        E 120 80 1e 00
        <X 840 0
          /wFbbmV4dF0=
        >
        E 0 90 1e 60
        E 120 80 1e 00
        <X 840 0
          /wFbbmV4dF0=
        >
        E 0 90 1e 60
        E 120 80 1e 00
        <X 840 0
          /wFbbmV4dF0=
        >
        E 0 90 1e 60
        E 120 80 1e 00
        <X 840 0
          /wFbbmV4dF0=
        >
        E 0 90 1e 60
        E 120 80 1e 00
        <X 840 0
          /wFbbmV4dF0=
        >
        E 0 90 1e 60
        E 120 80 1e 00
        <X 840 0
          /wFbbmV4dF0=
        >
        E 0 90 1e 60
        E 120 80 1e 00
        <X 840 0
          /wFbbmV4dF0=
        >
        E 0 90 1e 60
        E 120 80 1e 00
        <X 840 0
          /wFbbmV4dF0=
        >
        E 0 90 1e 60
        E 120 80 1e 00
        <X 840 0
          /wFbbmV4dF0=
        >
        E 0 90 1e 60
        E 120 80 1e 00
        <X 840 0
          /wFbbmV4dF0=
        >
        E 0 90 1e 60
        E 120 80 1e 00
        <X 840 0
          /wFbbmV4dF0=
        >
        E 0 90 1e 60
        E 120 80 1e 00
        <X 840 0
          /wFbbmV4dF0=
        >
        E 0 90 1e 60
        E 120 80 1e 00
        <X 840 0
          /wFbbmV4dF0=
        >
        E 0 90 1e 60
        E 120 80 1e 00
        <X 840 0
          /wFbbmV4dF0=
        >
        E 0 90 1e 60
        E 120 80 1e 00
        <X 600 0
          /wFbbGlnaHRpbmcgKGJsYWNrb3V0X3Nsb3cpXQ==
        >
        E 0 90 12 60
        E 9840 80 24 00
        E 0 80 12 00
        E 4320 b0 7b 00
        GUID {831BD71B-0B8B-48ED-9976-1EF8F9F426AE}
        IGNTEMPO 0 120.00000000 4 4
        SRCCOLOR 74
        VELLANE 132 71 60
        COLORMAP "C:\Program Files (x86)\REAPER\Data\color_maps\rockband_guitarbass.png"
        CFGEDITVIEW -10633.792786 8.094942 0 14 0 0 0
        CFGEDIT 1 1 0 1 1 0 1 1 1 1 1 0.25000000 -4 0 1025 558 0 2 1 1 0.00000000 0 1 1 0 0.500000 0 0 1.000000 64
        KEYSNAP 0 2 "102034050607" 0 "Major"
        EVTFILTER 0 -1 -1 -1 -1 0 1 0 0 -1.00000000 -1.00000000
      >
    >
  >
  <TRACK '{1A1E9BA9-C3FD-4276-8253-0DCE848088C7}'
    NAME "BEAT"
    PEAKCOL 16576
    BEAT -1
    AUTOMODE 0
    VOLPAN 1.00000000000000 0.00000000000000 -1.00000000000000 -1.00000000000000 1.00000000000000
    MUTESOLO 0 0 0
    IPHASE 0
    ISBUS 0 0
    BUSCOMP 0 0
    SHOWINMIX 1 0.666700 0.500000 1 0.500000 -1 -1 -1
    FREEMODE 0
    SEL 0
    REC 0 0 0 0 0 0 0
    VU 2
    TRACKHEIGHT 0 0
    INQ 0 0 0 0.5000000000 100 0 0 100
    NCHAN 2
    FX 1
    TRACKID {1A1E9BA9-C3FD-4276-8253-0DCE848088C7}
    PERF 0
    MIDIOUT -1
    MAINSEND 1 0
    <ITEM
      POSITION 0.00000000000000
      SNAPOFFS 0.00000000000000
      LENGTH 194.42554622500001
      LOOP 0
      ALLTAKES 0
      SEL 0
      FADEIN 1 0.000000 0.000000 1 0
      FADEOUT 1 0.000000 0.000000 1 0
      MUTE 0
      IGUID {6447C90A-A58C-41DB-878C-796C1F86AE3B}
      IID 11
      NAME "BEAT"
      VOLPAN 1.000000 0.000000 1.000000 -1.000000
      SOFFS 0.00000000000000 0.00000000000000
      PLAYRATE 1.00000000000000 1 0.00000000000000 -1
      CHANMODE 0
      GUID {E834FE48-0EC8-40A4-8F0B-AE3606FC3A35}
      <SOURCE MIDI
        HASDATA 1 480 QN
        POOLEDEVTS {FC543E62-F9ED-48D4-A91A-2534797C3359}
        <X 0 0
          /wNCRUFU
        >
        E 0 96 0c 64
        E 120 86 0c 00
        E 360 96 0d 64
        E 120 86 0d 00
        E 360 96 0d 64
        E 120 86 0d 00
        E 360 96 0d 64
        E 120 86 0d 00
        E 360 96 0c 64
        E 120 86 0c 00
        E 360 96 0d 64
        E 120 86 0d 00
        E 360 96 0d 64
        E 120 86 0d 00
        E 360 96 0d 64
        E 120 86 0d 00
        E 360 96 0c 64
        E 120 86 0c 00
        E 360 96 0d 64
        E 120 86 0d 00
        E 360 96 0d 64
        E 120 86 0d 00
        E 360 96 0d 64
        E 120 86 0d 00
        E 360 96 0c 64
        E 120 86 0c 00
        E 360 96 0d 64
        E 120 86 0d 00
        E 360 96 0d 64
        E 120 86 0d 00
        E 360 96 0d 64
        E 120 86 0d 00
        E 360 96 0c 64
        E 120 86 0c 00
        E 360 96 0d 64
        E 120 86 0d 00
        E 360 96 0d 64
        E 120 86 0d 00
        E 360 96 0d 64
        E 120 86 0d 00
        E 360 96 0c 64
        E 120 86 0c 00
        E 360 96 0d 64
        E 120 86 0d 00
        E 360 96 0d 64
        E 120 86 0d 00
        E 360 96 0d 64
        E 120 86 0d 00
        E 360 96 0c 64
        E 120 86 0c 00
        E 360 96 0d 64
        E 120 86 0d 00
        E 360 96 0d 64
        E 120 86 0d 00
        E 360 96 0d 64
        E 120 86 0d 00
        E 360 96 0c 64
        E 120 86 0c 00
        E 360 96 0d 64
        E 120 86 0d 00
        E 360 96 0d 64
        E 120 86 0d 00
        E 360 96 0d 64
        E 120 86 0d 00
        E 360 96 0c 64
        E 120 86 0c 00
        E 360 96 0d 64
        E 120 86 0d 00
        E 360 96 0d 64
        E 120 86 0d 00
        E 360 96 0d 64
        E 120 86 0d 00
        E 360 96 0c 64
        E 120 86 0c 00
        E 360 96 0d 64
        E 120 86 0d 00
        E 360 96 0d 64
        E 120 86 0d 00
        E 360 96 0d 64
        E 120 86 0d 00
        E 360 96 0c 64
        E 120 86 0c 00
        E 360 96 0d 64
        E 120 86 0d 00
        E 360 96 0d 64
        E 120 86 0d 00
        E 360 96 0d 64
        E 120 86 0d 00
        E 360 96 0c 64
        E 120 86 0c 00
        E 360 96 0d 64
        E 120 86 0d 00
        E 360 96 0d 64
        E 120 86 0d 00
        E 360 96 0d 64
        E 120 86 0d 00
        E 360 96 0c 64
        E 120 86 0c 00
        E 360 96 0d 64
        E 120 86 0d 00
        E 360 96 0d 64
        E 120 86 0d 00
        E 360 96 0d 64
        E 120 86 0d 00
        E 360 96 0c 64
        E 120 86 0c 00
        E 360 96 0d 64
        E 120 86 0d 00
        E 360 96 0d 64
        E 120 86 0d 00
        E 360 96 0d 64
        E 120 86 0d 00
        E 360 96 0c 64
        E 120 86 0c 00
        E 360 96 0d 64
        E 120 86 0d 00
        E 360 96 0d 64
        E 120 86 0d 00
        E 360 96 0d 64
        E 120 86 0d 00
        E 360 96 0c 64
        E 120 86 0c 00
        E 360 96 0d 64
        E 120 86 0d 00
        E 360 96 0d 64
        E 120 86 0d 00
        E 360 96 0d 64
        E 120 86 0d 00
        E 360 96 0c 64
        E 120 86 0c 00
        E 360 96 0d 64
        E 120 86 0d 00
        E 360 96 0d 64
        E 120 86 0d 00
        E 360 96 0d 64
        E 120 86 0d 00
        E 360 96 0c 64
        E 120 86 0c 00
        E 360 96 0d 64
        E 120 86 0d 00
        E 360 96 0d 64
        E 120 86 0d 00
        E 360 96 0d 64
        E 120 86 0d 00
        E 360 96 0c 64
        E 120 86 0c 00
        E 360 96 0d 64
        E 120 86 0d 00
        E 360 96 0d 64
        E 120 86 0d 00
        E 360 96 0d 64
        E 120 86 0d 00
        E 360 96 0c 64
        E 120 86 0c 00
        E 360 96 0d 64
        E 120 86 0d 00
        E 360 96 0d 64
        E 120 86 0d 00
        E 360 96 0d 64
        E 120 86 0d 00
        E 360 96 0c 64
        E 120 86 0c 00
        E 360 96 0d 64
        E 120 86 0d 00
        E 360 96 0d 64
        E 120 86 0d 00
        E 360 96 0d 64
        E 120 86 0d 00
        E 360 96 0c 64
        E 120 86 0c 00
        E 360 96 0d 64
        E 120 86 0d 00
        E 360 96 0d 64
        E 120 86 0d 00
        E 360 96 0d 64
        E 120 86 0d 00
        E 360 96 0c 64
        E 120 86 0c 00
        E 360 96 0d 64
        E 120 86 0d 00
        E 360 96 0d 64
        E 120 86 0d 00
        E 360 96 0d 64
        E 120 86 0d 00
        E 360 96 0c 64
        E 120 86 0c 00
        E 360 96 0d 64
        E 120 86 0d 00
        E 360 96 0d 64
        E 120 86 0d 00
        E 360 96 0d 64
        E 120 86 0d 00
        E 360 96 0c 64
        E 120 86 0c 00
        E 360 96 0d 64
        E 120 86 0d 00
        E 360 96 0d 64
        E 120 86 0d 00
        E 360 96 0d 64
        E 120 86 0d 00
        E 360 96 0c 64
        E 120 86 0c 00
        E 360 96 0d 64
        E 120 86 0d 00
        E 360 96 0d 64
        E 120 86 0d 00
        E 360 96 0d 64
        E 120 86 0d 00
        E 360 96 0c 64
        E 120 86 0c 00
        E 360 96 0d 64
        E 120 86 0d 00
        E 360 96 0d 64
        E 120 86 0d 00
        E 360 96 0d 64
        E 120 86 0d 00
        E 360 96 0c 64
        E 120 86 0c 00
        E 360 96 0d 64
        E 120 86 0d 00
        E 360 96 0d 64
        E 120 86 0d 00
        E 360 96 0d 64
        E 120 86 0d 00
        E 360 96 0c 64
        E 120 86 0c 00
        E 360 96 0d 64
        E 120 86 0d 00
        E 360 96 0d 64
        E 120 86 0d 00
        E 360 96 0d 64
        E 120 86 0d 00
        E 360 96 0c 64
        E 120 86 0c 00
        E 360 96 0d 64
        E 120 86 0d 00
        E 360 96 0d 64
        E 120 86 0d 00
        E 360 96 0d 64
        E 120 86 0d 00
        E 360 96 0c 64
        E 120 86 0c 00
        E 360 96 0d 64
        E 120 86 0d 00
        E 360 96 0d 64
        E 120 86 0d 00
        E 360 96 0d 64
        E 120 86 0d 00
        E 360 96 0c 64
        E 120 86 0c 00
        E 360 96 0d 64
        E 120 86 0d 00
        E 360 96 0d 64
        E 120 86 0d 00
        E 360 96 0d 64
        E 120 86 0d 00
        E 360 96 0c 64
        E 120 86 0c 00
        E 360 96 0d 64
        E 120 86 0d 00
        E 360 96 0d 64
        E 120 86 0d 00
        E 360 96 0d 64
        E 120 86 0d 00
        E 360 96 0c 64
        E 120 86 0c 00
        E 360 96 0d 64
        E 120 86 0d 00
        E 360 96 0d 64
        E 120 86 0d 00
        E 360 96 0d 64
        E 120 86 0d 00
        E 360 96 0c 64
        E 120 86 0c 00
        E 360 96 0d 64
        E 120 86 0d 00
        E 360 96 0d 64
        E 120 86 0d 00
        E 360 96 0d 64
        E 120 86 0d 00
        E 360 96 0c 64
        E 120 86 0c 00
        E 360 96 0d 64
        E 120 86 0d 00
        E 360 96 0d 64
        E 120 86 0d 00
        E 360 96 0d 64
        E 120 86 0d 00
        E 360 96 0c 64
        E 120 86 0c 00
        E 360 96 0d 64
        E 120 86 0d 00
        E 360 96 0d 64
        E 120 86 0d 00
        E 360 96 0d 64
        E 120 86 0d 00
        E 360 96 0c 64
        E 120 86 0c 00
        E 360 96 0d 64
        E 120 86 0d 00
        E 360 96 0d 64
        E 120 86 0d 00
        E 360 96 0d 64
        E 120 86 0d 00
        E 360 96 0c 64
        E 120 86 0c 00
        E 360 96 0d 64
        E 120 86 0d 00
        E 360 96 0d 64
        E 120 86 0d 00
        E 360 96 0d 64
        E 120 86 0d 00
        E 360 96 0c 64
        E 120 86 0c 00
        E 360 96 0d 64
        E 120 86 0d 00
        E 360 96 0d 64
        E 120 86 0d 00
        E 360 96 0d 64
        E 120 86 0d 00
        E 360 96 0c 64
        E 120 86 0c 00
        E 360 96 0d 64
        E 120 86 0d 00
        E 360 96 0d 64
        E 120 86 0d 00
        E 360 96 0d 64
        E 120 86 0d 00
        E 360 96 0c 64
        E 120 86 0c 00
        E 360 96 0d 64
        E 120 86 0d 00
        E 360 96 0d 64
        E 120 86 0d 00
        E 360 96 0d 64
        E 120 86 0d 00
        E 360 96 0c 64
        E 120 86 0c 00
        E 360 96 0d 64
        E 120 86 0d 00
        E 360 96 0d 64
        E 120 86 0d 00
        E 360 96 0d 64
        E 120 86 0d 00
        E 360 96 0c 64
        E 120 86 0c 00
        E 360 96 0d 64
        E 120 86 0d 00
        E 360 96 0d 64
        E 120 86 0d 00
        E 360 96 0d 64
        E 120 86 0d 00
        E 360 96 0c 64
        E 120 86 0c 00
        E 360 96 0d 64
        E 120 86 0d 00
        E 360 96 0d 64
        E 120 86 0d 00
        E 360 96 0d 64
        E 120 86 0d 00
        E 360 96 0c 64
        E 120 86 0c 00
        E 360 96 0d 64
        E 120 86 0d 00
        E 360 96 0d 64
        E 120 86 0d 00
        E 360 96 0d 64
        E 120 86 0d 00
        E 360 96 0c 64
        E 120 86 0c 00
        E 360 96 0d 64
        E 120 86 0d 00
        E 360 96 0d 64
        E 120 86 0d 00
        E 360 96 0d 64
        E 120 86 0d 00
        E 360 96 0c 64
        E 120 86 0c 00
        E 360 96 0d 64
        E 120 86 0d 00
        E 360 96 0d 64
        E 120 86 0d 00
        E 360 96 0d 64
        E 120 86 0d 00
        E 360 96 0c 64
        E 120 86 0c 00
        E 360 96 0d 64
        E 120 86 0d 00
        E 360 96 0d 64
        E 120 86 0d 00
        E 360 96 0d 64
        E 120 86 0d 00
        E 360 96 0c 64
        E 120 86 0c 00
        E 360 96 0d 64
        E 120 86 0d 00
        E 360 96 0d 64
        E 120 86 0d 00
        E 360 96 0d 64
        E 120 86 0d 00
        E 360 96 0c 64
        E 120 86 0c 00
        E 360 96 0d 64
        E 120 86 0d 00
        E 360 96 0d 64
        E 120 86 0d 00
        E 360 96 0d 64
        E 120 86 0d 00
        E 360 96 0c 64
        E 120 86 0c 00
        E 360 96 0d 64
        E 120 86 0d 00
        E 360 96 0d 64
        E 120 86 0d 00
        E 360 96 0d 64
        E 120 86 0d 00
        E 360 96 0c 64
        E 120 86 0c 00
        E 360 96 0d 64
        E 120 86 0d 00
        E 360 96 0d 64
        E 120 86 0d 00
        E 360 96 0d 64
        E 120 86 0d 00
        E 360 96 0c 64
        E 120 86 0c 00
        E 360 96 0d 64
        E 120 86 0d 00
        E 360 96 0d 64
        E 120 86 0d 00
        E 360 96 0d 64
        E 120 86 0d 00
        E 360 96 0c 64
        E 120 86 0c 00
        E 360 96 0d 64
        E 120 86 0d 00
        E 360 96 0d 64
        E 120 86 0d 00
        E 360 96 0d 64
        E 120 86 0d 00
        E 360 96 0c 64
        E 120 86 0c 00
        E 360 96 0d 64
        E 120 86 0d 00
        E 360 96 0d 64
        E 120 86 0d 00
        E 360 96 0d 64
        E 120 86 0d 00
        E 360 96 0c 64
        E 120 86 0c 00
        E 360 96 0d 64
        E 120 86 0d 00
        E 360 96 0d 64
        E 120 86 0d 00
        E 360 96 0d 64
        E 120 86 0d 00
        E 360 96 0c 64
        E 120 86 0c 00
        E 360 96 0d 64
        E 120 86 0d 00
        E 360 96 0d 64
        E 120 86 0d 00
        E 360 96 0d 64
        E 120 86 0d 00
        E 360 96 0c 64
        E 120 86 0c 00
        E 360 96 0d 64
        E 120 86 0d 00
        E 360 96 0d 64
        E 120 86 0d 00
        E 360 96 0d 64
        E 120 86 0d 00
        E 360 96 0c 64
        E 120 86 0c 00
        E 360 96 0d 64
        E 120 86 0d 00
        E 360 96 0d 64
        E 120 86 0d 00
        E 360 96 0d 64
        E 120 86 0d 00
        E 360 96 0c 64
        E 120 86 0c 00
        E 360 96 0d 64
        E 120 86 0d 00
        E 360 96 0d 64
        E 120 86 0d 00
        E 360 96 0d 64
        E 120 86 0d 00
        E 360 96 0c 64
        E 120 86 0c 00
        E 360 96 0d 64
        E 120 86 0d 00
        E 360 96 0d 64
        E 120 86 0d 00
        E 360 96 0d 64
        E 120 86 0d 00
        E 360 96 0c 64
        E 120 86 0c 00
        E 360 96 0d 64
        E 120 86 0d 00
        E 360 96 0d 64
        E 120 86 0d 00
        E 360 96 0d 64
        E 120 86 0d 00
        E 360 96 0c 64
        E 120 86 0c 00
        E 360 96 0d 64
        E 120 86 0d 00
        E 360 96 0d 64
        E 120 86 0d 00
        E 360 96 0d 64
        E 120 86 0d 00
        E 360 96 0c 64
        E 120 86 0c 00
        E 360 96 0d 64
        E 120 86 0d 00
        E 360 96 0d 64
        E 120 86 0d 00
        E 360 96 0d 64
        E 120 86 0d 00
        E 360 96 0c 64
        E 120 86 0c 00
        E 360 96 0d 64
        E 120 86 0d 00
        E 360 96 0d 64
        E 120 86 0d 00
        E 360 96 0d 64
        E 120 86 0d 00
        E 360 96 0c 64
        E 120 86 0c 00
        E 360 96 0d 64
        E 120 86 0d 00
        E 360 96 0d 64
        E 120 86 0d 00
        E 360 96 0d 64
        E 120 86 0d 00
        E 360 96 0c 64
        E 120 86 0c 00
        E 360 96 0d 64
        E 120 86 0d 00
        E 360 96 0d 64
        E 120 86 0d 00
        E 360 96 0d 64
        E 120 86 0d 00
        E 360 96 0c 64
        E 120 86 0c 00
        E 360 96 0d 64
        E 120 86 0d 00
        E 360 96 0d 64
        E 120 86 0d 00
        E 360 96 0d 64
        E 120 86 0d 00
        E 360 96 0c 64
        E 120 86 0c 00
        E 360 96 0d 64
        E 120 86 0d 00
        E 360 96 0d 64
        E 120 86 0d 00
        E 360 96 0d 64
        E 120 86 0d 00
        E 360 96 0c 64
        E 120 86 0c 00
        E 360 96 0d 64
        E 120 86 0d 00
        E 360 96 0d 64
        E 120 86 0d 00
        E 360 96 0d 64
        E 120 86 0d 00
        E 360 96 0c 64
        E 120 86 0c 00
        E 360 96 0d 64
        E 120 86 0d 00
        E 360 96 0d 64
        E 120 86 0d 00
        E 360 96 0d 64
        E 120 86 0d 00
        E 360 96 0c 64
        E 120 86 0c 00
        E 360 96 0d 64
        E 120 86 0d 00
        E 360 96 0d 64
        E 120 86 0d 00
        E 360 96 0d 64
        E 120 86 0d 00
        E 360 96 0c 64
        E 120 86 0c 00
        E 360 96 0d 64
        E 120 86 0d 00
        E 360 96 0d 64
        E 120 86 0d 00
        E 360 96 0d 64
        E 120 86 0d 00
        E 360 96 0c 64
        E 120 86 0c 00
        E 360 96 0d 64
        E 120 86 0d 00
        E 360 96 0d 64
        E 120 86 0d 00
        E 360 96 0d 64
        E 120 86 0d 00
        E 360 96 0c 64
        E 120 86 0c 00
        E 360 96 0d 64
        E 120 86 0d 00
        E 360 96 0d 64
        E 120 86 0d 00
        E 360 96 0d 64
        E 120 86 0d 00
        E 360 96 0c 64
        E 120 86 0c 00
        E 360 96 0d 64
        E 120 86 0d 00
        E 360 96 0d 64
        E 120 86 0d 00
        E 360 96 0d 64
        E 120 86 0d 00
        E 360 96 0c 64
        E 120 86 0c 00
        E 360 96 0d 64
        E 120 86 0d 00
        E 360 96 0d 64
        E 120 86 0d 00
        E 360 96 0d 64
        E 120 86 0d 00
        E 360 96 0c 64
        E 120 86 0c 00
        E 360 96 0d 64
        E 120 86 0d 00
        E 360 96 0d 64
        E 120 86 0d 00
        E 360 96 0d 64
        E 120 86 0d 00
        E 360 96 0c 64
        E 120 86 0c 00
        E 360 96 0d 64
        E 120 86 0d 00
        E 360 96 0d 64
        E 120 86 0d 00
        E 360 96 0d 64
        E 120 86 0d 00
        E 360 96 0c 64
        E 120 86 0c 00
        E 360 96 0d 64
        E 120 86 0d 00
        E 360 96 0d 64
        E 120 86 0d 00
        E 360 96 0d 64
        E 120 86 0d 00
        E 360 96 0c 64
        E 120 86 0c 00
        E 360 96 0d 64
        E 120 86 0d 00
        E 360 96 0d 64
        E 120 86 0d 00
        E 360 96 0d 64
        E 120 86 0d 00
        E 360 96 0c 64
        E 120 86 0c 00
        E 360 96 0d 64
        E 120 86 0d 00
        E 360 96 0d 64
        E 120 86 0d 00
        E 360 96 0d 64
        E 120 86 0d 00
        E 360 96 0c 64
        E 120 86 0c 00
        E 360 96 0d 64
        E 120 86 0d 00
        E 360 96 0d 64
        E 120 86 0d 00
        E 360 96 0d 64
        E 120 86 0d 00
        E 360 96 0c 64
        E 120 86 0c 00
        E 360 96 0d 64
        E 120 86 0d 00
        E 360 96 0d 64
        E 120 86 0d 00
        E 360 96 0d 64
        E 120 86 0d 00
        E 360 96 0c 64
        E 120 86 0c 00
        E 360 96 0d 64
        E 120 86 0d 00
        E 360 96 0d 64
        E 120 86 0d 00
        E 360 96 0d 64
        E 120 86 0d 00
        E 360 96 0c 64
        E 120 86 0c 00
        E 360 96 0d 64
        E 120 86 0d 00
        E 360 96 0d 64
        E 120 86 0d 00
        E 360 96 0d 64
        E 120 86 0d 00
        E 360 96 0c 64
        E 120 86 0c 00
        E 360 96 0d 64
        E 120 86 0d 00
        E 360 96 0d 64
        E 120 86 0d 00
        E 360 96 0d 64
        E 120 86 0d 00
        E 360 96 0c 64
        E 120 86 0c 00
        E 360 96 0d 64
        E 120 86 0d 00
        E 360 96 0d 64
        E 120 86 0d 00
        E 360 96 0d 64
        E 120 86 0d 00
        E 360 96 0c 64
        E 120 86 0c 00
        E 360 96 0d 64
        E 120 86 0d 00
        E 360 96 0d 64
        E 120 86 0d 00
        E 360 96 0d 64
        E 120 86 0d 00
        E 360 96 0c 64
        E 120 86 0c 00
        E 360 96 0d 64
        E 120 86 0d 00
        E 360 96 0d 64
        E 120 86 0d 00
        E 360 96 0d 64
        E 120 86 0d 00
        E 360 96 0c 64
        E 120 86 0c 00
        E 360 96 0d 64
        E 120 86 0d 00
        E 360 96 0d 64
        E 120 86 0d 00
        E 360 96 0d 64
        E 120 86 0d 00
        E 360 96 0c 64
        E 120 86 0c 00
        E 360 96 0d 64
        E 120 86 0d 00
        E 360 96 0d 64
        E 120 86 0d 00
        E 360 96 0d 64
        E 120 86 0d 00
        E 360 96 0c 64
        E 120 86 0c 00
        E 360 96 0d 64
        E 120 86 0d 00
        E 360 96 0d 64
        E 120 86 0d 00
        E 360 96 0d 64
        E 120 86 0d 00
        E 360 96 0c 64
        E 120 86 0c 00
        E 360 96 0d 64
        E 120 86 0d 00
        E 360 96 0d 64
        E 120 86 0d 00
        E 360 96 0d 64
        E 120 86 0d 00
        E 360 96 0c 64
        E 120 86 0c 00
        E 360 96 0d 64
        E 120 86 0d 00
        E 360 96 0d 64
        E 120 86 0d 00
        E 360 96 0d 64
        E 120 86 0d 00
        E 360 96 0c 64
        E 120 86 0c 00
        E 360 96 0d 64
        E 120 86 0d 00
        E 360 96 0d 64
        E 120 86 0d 00
        E 360 96 0d 64
        E 120 86 0d 00
        E 360 96 0c 64
        E 120 86 0c 00
        E 360 96 0d 64
        E 120 86 0d 00
        E 360 96 0d 64
        E 120 86 0d 00
        E 360 96 0d 64
        E 120 86 0d 00
        E 360 96 0c 64
        E 120 86 0c 00
        E 360 96 0d 64
        E 120 86 0d 00
        E 360 96 0d 64
        E 120 86 0d 00
        E 360 96 0d 64
        E 120 86 0d 00
        E 360 96 0c 64
        E 120 86 0c 00
        E 360 96 0d 64
        E 120 86 0d 00
        E 360 96 0d 64
        E 120 86 0d 00
        E 360 96 0d 64
        E 120 86 0d 00
        E 360 96 0c 64
        E 120 86 0c 00
        E 360 96 0d 64
        E 120 86 0d 00
        E 360 96 0d 64
        E 120 86 0d 00
        E 360 96 0d 64
        E 120 86 0d 00
        E 360 96 0c 64
        E 120 86 0c 00
        E 360 96 0d 64
        E 120 86 0d 00
        E 360 96 0d 64
        E 120 86 0d 00
        E 360 96 0d 64
        E 120 86 0d 00
        E 360 96 0c 64
        E 120 86 0c 00
        E 360 96 0d 64
        E 120 86 0d 00
        E 360 96 0d 64
        E 120 86 0d 00
        E 360 96 0d 64
        E 120 86 0d 00
        E 360 96 0c 64
        E 120 86 0c 00
        E 360 96 0d 64
        E 120 86 0d 00
        E 360 96 0d 64
        E 120 86 0d 00
        E 360 96 0d 64
        E 120 86 0d 00
        E 360 96 0c 64
        E 120 86 0c 00
        E 360 96 0d 64
        E 120 86 0d 00
        E 360 96 0d 64
        E 120 86 0d 00
        E 360 96 0d 64
        E 120 86 0d 00
        E 360 96 0c 64
        E 120 86 0c 00
        E 360 96 0d 64
        E 120 86 0d 00
        E 360 96 0d 64
        E 120 86 0d 00
        E 360 96 0d 64
        E 120 86 0d 00
        E 360 96 0c 64
        E 120 86 0c 00
        E 360 96 0d 64
        E 120 86 0d 00
        E 360 96 0d 64
        E 120 86 0d 00
        E 360 96 0d 64
        E 120 86 0d 00
        E 360 96 0c 64
        E 120 86 0c 00
        E 360 96 0d 64
        E 120 86 0d 00
        E 360 96 0d 64
        E 120 86 0d 00
        E 360 96 0d 64
        E 120 86 0d 00
        E 360 96 0c 64
        E 120 86 0c 00
        E 360 96 0d 64
        E 120 86 0d 00
        E 360 96 0d 64
        E 120 86 0d 00
        E 360 96 0d 64
        E 120 86 0d 00
        E 360 b0 7b 00
        GUID {84DD9B90-6671-4D8E-923F-BC6651472B2E}
        IGNTEMPO 0 120.00000000 4 4
        SRCCOLOR 11
        VELLANE 132 71 60
        COLORMAP "C:\Program Files\REAPER\Data\color_maps\rockband_guitarbass.png"
      >
    >
  >
  <TRACK '{8333AC1B-35ED-444F-8650-CEFA956E46F6}'
    NAME "backing"
    PEAKCOL 16576
    BEAT -1
    AUTOMODE 0
    VOLPAN 1.00000000000000 0.00000000000000 -1.00000000000000 -1.00000000000000 1.00000000000000
    MUTESOLO 0 0 0
    IPHASE 0
    ISBUS 0 0
    BUSCOMP 0 0
    SHOWINMIX 1 0.666700 0.500000 1 0.500000 -1 -1 -1
    FREEMODE 0
    SEL 0
    REC 0 0 0 0 0 0 0
    VU 2
    TRACKHEIGHT 0 0
    INQ 0 0 0 0.5000000000 100 0 0 100
    NCHAN 2
    FX 1
    TRACKID {8333AC1B-35ED-444F-8650-CEFA956E46F6}
    PERF 0
    MIDIOUT -1
    MAINSEND 1 0
    <ITEM
      POSITION 0.00000000000000
      SNAPOFFS 0.00000000000000
      LENGTH 194.42541950113377
      LOOP 0
      ALLTAKES 0
      SEL 0
      FADEIN 1 0.000000 0.000000 1 0
      FADEOUT 1 0.000000 0.000000 1 0
      MUTE 0
      IGUID {BFBE8752-993E-4805-94CD-D3CA3F888AA0}
      IID 19
      NAME "backing.wav"
      VOLPAN 1.000000 0.000000 1.000000 -1.000000
      SOFFS 0.00000000000000
      PLAYRATE 1.00000000000000 1 0.00000000000000 -1
      CHANMODE 0
      GUID {2E0A1719-4F5D-4EBE-93E1-E537EEE51D76}
      <SOURCE WAVE
        FILE "wav\backing.wav"
      >
    >
  >
  <EXTENSIONS
  >
>
