<REAPER_PROJECT 0.1 "4.22/x64"
  RIPPLE 0
  GROUPOVERRIDE 0 0 0
  AUTOXFADE 1
  ENVATTACH 1
  MIXERUIFLAGS 11 48
  PEAKGAIN 1.00000000000000
  FEEDBACK 0
  PANLAW 1.00000000000000
  PROJOFFS 0.00000000000000 0
  MAXPROJLEN 0 600.00000000000000
  GRID 3199 8 1.00000000000000 8 1.00000000000000 0
  TIMEMODE 1 0 3
  PANMODE 3
  CURSOR 14.20189358581144
  ZOOM 11.72672659430122 10 0
  VZOOMEX 6
  USE_REC_CFG 0
  RECMODE 1
  SMPTESYNC 0 23.976024 100 40 1000 300 0 0.000000 1
  LOOP 1
  LOOPGRAN 0 4.00000000000000
  RECORD_PATH "" ""
  <RECORD_CFG
    ZXZhdxgD
  >
  <APPLYFX_CFG
  >
  RENDER_FILE "C:\Users\Ruggery\Desktop\backing.wav"
  RENDER_FMT 0 1 44100
  RENDER_1X 0
  RENDER_RANGE 2 0.00000000000000 0.00000000000000
  RENDER_RESAMPLE 3 0 1
  RENDER_ADDTOPROJ 0
  RENDER_STEMS 0
  RENDER_DITHER 0
  TIMELOCKMODE 0
  ITEMMIX 0
  DEFPITCHMODE 393216
  TAKELANE 1
  SAMPLERATE 44100 0 0
  <RENDER_CFG
    ZXZhdxAD
  >
  LOCK 1
  <METRONOME 6 2.000000
    VOL 0.250000 0.125000
    FREQ 800 1600 1
    BEATLEN 4
    SAMPLES "" ""
  >
  GLOBAL_AUTO -1
  TEMPO 149.97999999999999 4 4
  PLAYRATE 1.00000000000000 0 0.25000 4.00000
  SELECTION 107.21429523936526 0.00000000000000
  SELECTION2 107.21429523936526 0.00000000000000
  MASTERAUTOMODE 0
  MASTERTRACKHEIGHT 0
  MASTERPEAKCOL 16576
  MASTERMUTESOLO 0
  MASTERTRACKVIEW 0 0.666700 0.500000 0.500000 -1 -1 -1
  MASTERHWOUT 0 0 1.00000000000000 0.00000000000000 0 0 0 -1.00000000000000
  MASTER_NCH 2 2
  MASTER_VOLUME 1.00000000000000 0.00000000000000 -1.00000000000000 -1.00000000000000 1.00000000000000
  MASTER_PANMODE -1
  MASTER_FX 1
  MASTER_SEL 0
  <MASTERFXLIST
    WNDRECT 0 43 1337 584
    SHOW 0
    LASTSEL 0
    DOCKED 0
  >
  <MASTERPLAYSPEEDENV
    ACT 0
    VIS 0 1 1.000000
    LANEHEIGHT 0 0
    ARM 0
    DEFSHAPE 0 -1 -1
  >
  <TEMPOENVEX
    ACT 0
    VIS 1 0 1.000000
    LANEHEIGHT 0 0
    ARM 0
    DEFSHAPE 1 -1 -1
    PT 0.000000000000 149.9800000000 1
  >
  <PROJBAY
  >
  <TRACK '{B491286D-CD42-41CE-8BDF-BA47770A012B}'
    NAME "PART DRUMS"
    PEAKCOL 16576
    BEAT -1
    AUTOMODE 0
    VOLPAN 1.00000000000000 0.00000000000000 -1.00000000000000 -1.00000000000000 1.00000000000000
    MUTESOLO 0 0 0
    IPHASE 0
    ISBUS 1 1
    BUSCOMP 0 0
    SHOWINMIX 1 0.666700 0.500000 1 0.500000 -1 -1 -1
    FREEMODE 0
    SEL 0
    REC 0 0 0 0 0 0 0
    VU 2
    TRACKHEIGHT 0 0
    INQ 0 0 0 0.5000000000 100 0 0 100
    NCHAN 2
    FX 1
    TRACKID {B491286D-CD42-41CE-8BDF-BA47770A012B}
    PERF 0
    MIDIOUT -1
    <MIDINOTENAMES
      0 127 "CYMBAL SWELLS"
      0 126 "DRUM ROLL"
      0 125 "---"
      0 124 "DRUM FILL"
      0 123 "DRUM FILL"
      0 122 "DRUM FILL"
      0 121 "DRUM FILL"
      0 120 "DRUM FILL (use all 5)"
      0 118 "----"
      0 116 "OVERDRIVE"
      0 114 "----"
      0 112 "TOM GEMS PAD 4"
      0 111 "TOM GEMS PAD 3"
      0 110 "TOM GEMS PAD 2"
      0 103 "Solo Marker"
      0 102 "----"
      0 100 "EXPERT Green"
      0 99 "EXPERT Blue"
      0 98 "EXPERT Yellow"
      0 97 "EXPERT Red"
      0 96 "EXPERT Kick"
      0 92 "----"
      0 88 "HARD Green"
      0 87 "HARD Blue"
      0 86 "HARD Yellow"
      0 85 "HARD Red"
      0 84 "HARD Kick"
      0 80 "----"
      0 76 "MEDIUM Green"
      0 75 "MEDIUM Blue"
      0 74 "MEDIUM Yellow"
      0 73 "MEDIUM Red"
      0 72 "MEDIUM Kick"
      0 68 "----"
      0 64 "EASY Green"
      0 63 "EASY Blue"
      0 62 "EASY Yellow"
      0 61 "EASY Red"
      0 60 "EASY Kick"
      0 56 "----"
      0 52 "-- DRUM ANIMATION --"
      0 51 "FLOOR TOM RH"
      0 50 "FLOOR TOM LH"
      0 49 "TOM2 RH"
      0 48 "TOM2 LH"
      0 47 "TOM1 RH"
      0 46 "TOM1 LH"
      0 45 "SOFT CRASH 2 LH"
      0 44 "CRASH 2 LH"
      0 43 "RIDE LH"
      0 42 "RIDE CYM RH"
      0 41 "CRASH2 CHOKE"
      0 40 "CRASH1 CHOKE"
      0 39 "CRASH2 SOFT RH"
      0 38 "CRASH2 HARD RH"
      0 37 "CRASH1 SOFT RH"
      0 36 "CRASH1 HARD RH"
      0 35 "CRASH1 SOFT LH"
      0 34 "CRASH1 HARD LH"
      0 32 "PERCUSSION RH"
      0 31 "HI-HAT RH"
      0 30 "HI-HAT LH"
      0 29 "SOFT SNARE RH"
      0 28 "SOFT SNARE LH"
      0 27 "SNARE RH"
      0 26 "SNARE LH"
      0 25 "HI-HAT OPEN"
      0 24 "KICK RF"
    >
    MAINSEND 1 0
    <FXCHAIN
      WNDRECT 0 43 857 559
      SHOW 0
      LASTSEL 0
      DOCKED 0
      BYPASS 0 0
      <VST "VSTi: RBN Preview (RBN)" "rbprev_vst64.dll" 0 ""
        dnBicu5e7f4AAAAAAgAAAAEAAAAAAAAAAgAAAAAAAAAEAAAAAQAAAA==
        AAAQAAMBqgAAABAAAAA=
      >
      FLOATPOS 0 0 0 0
      FXID {95F27139-4171-425B-98D2-D468096C6564}
      WAK 0
    >
    <ITEM
      POSITION 0.00000000000000
      SNAPOFFS 0.00000000000000
      LENGTH 107.21429523936526
      LOOP 0
      ALLTAKES 0
      SEL 0
      FADEIN 1 0.000000 0.000000 1 0
      FADEOUT 1 0.000000 0.000000 1 0
      MUTE 0
      IGUID {BFEBEC06-5916-48C3-8DC8-0BD31E550CC5}
      IID 17
      NAME "PART DRUMS"
      VOLPAN 1.000000 0.000000 1.000000 -1.000000
      SOFFS 0.00000000000000 0.00000000000000
      PLAYRATE 1.00000000000000 1 0.00000000000000 -1
      CHANMODE 0
      GUID {86E7D80E-E606-4E14-B4D9-F24A6568C914}
      <SOURCE MIDI
        HASDATA 1 480 QN
        POOLEDEVTS {E706E376-BD83-4E29-B811-488E33AE6365}
        <X 0 0
          /wNQQVJUIERSVU1T
        >
        E 0 90 19 60
        <X 240 0
          /wFbbWl4IDEgZHJ1bXMxXQ==
        >
        <X 0 0
          /wFbbWl4IDAgZHJ1bXMxXQ==
        >
        <X 120 0
          /wFbbWl4IDIgZHJ1bXMxXQ==
        >
        <X 120 0
          /wFbbWl4IDMgZHJ1bXMxXQ==
        >
        E 480 80 19 00
        E 480 90 19 60
        E 480 80 19 00
        <X 1920 0
          /wFbbWVsbG93XQ==
        >
        E 0 90 18 60
        E 0 90 1f 60
        E 0 90 3c 60
        E 0 90 48 60
        E 0 90 54 60
        E 0 90 56 60
        e 0 90 60 60
        e 0 90 62 60
        E 80 80 18 00
        E 0 80 1f 00
        E 0 80 3c 00
        E 0 80 48 00
        E 0 80 54 00
        E 0 80 56 00
        e 0 80 60 00
        e 0 80 62 00
        E 400 90 1a 60
        E 0 90 1f 60
        E 0 90 3d 60
        E 0 90 49 60
        E 0 90 55 60
        E 0 90 56 60
        e 0 90 61 60
        e 0 90 62 60
        E 80 80 1a 00
        E 0 80 1f 00
        E 0 80 3d 00
        E 0 80 49 00
        E 0 80 55 00
        E 0 80 56 00
        e 0 80 61 00
        e 0 80 62 00
        E 240 90 1f 60
        e 0 90 62 60
        E 80 80 1f 00
        e 0 80 62 00
        E 80 90 18 60
        E 0 90 1f 60
        E 0 90 48 60
        E 0 90 54 60
        E 0 90 56 60
        e 0 90 60 60
        e 0 90 62 60
        E 80 80 18 00
        E 0 80 1f 00
        E 0 80 48 00
        E 0 80 54 00
        E 0 80 56 00
        e 0 80 60 00
        e 0 80 62 00
        E 400 90 1a 60
        E 0 90 1f 60
        E 0 90 3d 60
        E 0 90 49 60
        E 0 90 55 60
        E 0 90 56 60
        e 0 90 61 60
        e 0 90 62 60
        E 80 80 1a 00
        E 0 80 1f 00
        E 0 80 3d 00
        E 0 80 49 00
        E 0 80 55 00
        E 0 80 56 00
        e 0 80 61 00
        e 0 80 62 00
        E 240 90 1f 60
        e 0 90 62 60
        E 80 80 1f 00
        e 0 80 62 00
        E 80 90 18 60
        E 0 90 1f 60
        E 0 90 3c 60
        E 0 90 48 60
        E 0 90 54 60
        E 0 90 56 60
        e 0 90 60 60
        e 0 90 62 60
        E 80 80 18 00
        E 0 80 1f 00
        E 0 80 3c 00
        E 0 80 48 00
        E 0 80 54 00
        E 0 80 56 00
        e 0 80 60 00
        e 0 80 62 00
        E 400 90 1a 60
        E 0 90 1f 60
        E 0 90 3d 60
        E 0 90 49 60
        E 0 90 55 60
        E 0 90 56 60
        e 0 90 61 60
        e 0 90 62 60
        E 80 80 1a 00
        E 0 80 1f 00
        E 0 80 3d 00
        E 0 80 49 00
        E 0 80 55 00
        E 0 80 56 00
        e 0 80 61 00
        e 0 80 62 00
        E 240 90 1f 60
        e 0 90 62 60
        E 80 80 1f 00
        e 0 80 62 00
        E 80 90 18 60
        E 0 90 1f 60
        E 0 90 48 60
        E 0 90 54 60
        E 0 90 56 60
        e 0 90 60 60
        e 0 90 62 60
        E 80 80 18 00
        E 0 80 1f 00
        E 0 80 48 00
        E 0 80 54 00
        E 0 80 56 00
        e 0 80 60 00
        e 0 80 62 00
        E 400 90 1a 60
        E 0 90 1f 60
        E 0 90 3d 60
        E 0 90 49 60
        E 0 90 55 60
        E 0 90 56 60
        e 0 90 61 60
        e 0 90 62 60
        E 80 80 1a 00
        E 0 80 1f 00
        E 0 80 3d 00
        E 0 80 49 00
        E 0 80 55 00
        E 0 80 56 00
        e 0 80 61 00
        e 0 80 62 00
        E 240 90 1f 60
        e 0 90 62 60
        E 80 80 1f 00
        e 0 80 62 00
        E 80 90 18 60
        E 0 90 1f 60
        E 0 90 3c 60
        E 0 90 48 60
        E 0 90 54 60
        E 0 90 56 60
        e 0 90 60 60
        e 0 90 62 60
        E 80 80 18 00
        E 0 80 1f 00
        E 0 80 3c 00
        E 0 80 48 00
        E 0 80 54 00
        E 0 80 56 00
        e 0 80 60 00
        e 0 80 62 00
        E 400 90 1a 60
        E 0 90 1f 60
        E 0 90 3d 60
        E 0 90 49 60
        E 0 90 55 60
        E 0 90 56 60
        e 0 90 61 60
        e 0 90 62 60
        E 80 80 1a 00
        E 0 80 1f 00
        E 0 80 3d 00
        E 0 80 49 00
        E 0 80 55 00
        E 0 80 56 00
        e 0 80 61 00
        e 0 80 62 00
        E 240 90 1f 60
        e 0 90 62 60
        E 80 80 1f 00
        e 0 80 62 00
        E 80 90 18 60
        E 0 90 1f 60
        E 0 90 48 60
        E 0 90 54 60
        E 0 90 56 60
        e 0 90 60 60
        e 0 90 62 60
        E 80 80 18 00
        E 0 80 1f 00
        E 0 80 48 00
        E 0 80 54 00
        E 0 80 56 00
        e 0 80 60 00
        e 0 80 62 00
        E 400 90 1a 60
        E 0 90 1f 60
        E 0 90 3d 60
        E 0 90 49 60
        E 0 90 55 60
        E 0 90 56 60
        e 0 90 61 60
        e 0 90 62 60
        E 80 80 1a 00
        E 0 80 1f 00
        E 0 80 3d 00
        E 0 80 49 00
        E 0 80 55 00
        E 0 80 56 00
        e 0 80 61 00
        e 0 80 62 00
        E 240 90 1f 60
        e 0 90 62 60
        E 80 80 1f 00
        e 0 80 62 00
        E 80 90 18 60
        E 0 90 1f 60
        E 0 90 3c 60
        E 0 90 48 60
        E 0 90 54 60
        E 0 90 56 60
        e 0 90 60 60
        e 0 90 62 60
        E 0 90 78 60
        E 0 90 79 60
        E 0 90 7a 60
        E 0 90 7b 60
        E 0 90 7c 60
        E 80 80 18 00
        E 0 80 1f 00
        E 0 80 3c 00
        E 0 80 48 00
        E 0 80 54 00
        E 0 80 56 00
        e 0 80 60 00
        e 0 80 62 00
        E 400 90 1a 60
        E 0 90 1f 60
        E 0 90 3d 60
        E 0 90 49 60
        E 0 90 55 60
        E 0 90 56 60
        e 0 90 61 60
        e 0 90 62 60
        E 80 80 1a 00
        E 0 80 1f 00
        E 0 80 3d 00
        E 0 80 49 00
        E 0 80 55 00
        E 0 80 56 00
        e 0 80 61 00
        e 0 80 62 00
        E 240 90 1f 60
        e 0 90 62 60
        E 80 80 1f 00
        e 0 80 62 00
        E 80 90 18 60
        E 0 90 1f 60
        E 0 90 48 60
        E 0 90 54 60
        E 0 90 56 60
        e 0 90 60 60
        e 0 90 62 60
        E 80 80 18 00
        E 0 80 1f 00
        E 0 80 48 00
        E 0 80 54 00
        E 0 80 56 00
        e 0 80 60 00
        e 0 80 62 00
        E 400 90 1a 60
        E 0 90 1f 60
        E 0 90 3d 60
        E 0 90 49 60
        E 0 90 55 60
        E 0 90 56 60
        e 0 90 61 60
        e 0 90 62 60
        E 80 80 1a 00
        E 0 80 1f 00
        E 0 80 3d 00
        E 0 80 49 00
        E 0 80 55 00
        E 0 80 56 00
        e 0 80 61 00
        e 0 80 62 00
        E 240 90 1f 60
        e 0 90 62 60
        E 80 80 1f 00
        e 0 80 62 00
        E 80 80 78 00
        E 0 80 79 00
        E 0 80 7a 00
        E 0 80 7b 00
        E 0 80 7c 00
        E 0 90 18 60
        E 0 90 1f 60
        E 0 90 3c 60
        E 0 90 48 60
        E 0 90 54 60
        E 0 90 56 60
        e 0 90 60 60
        e 0 90 62 60
        E 0 90 74 60
        E 80 80 18 00
        E 0 80 1f 00
        E 0 80 3c 00
        E 0 80 48 00
        E 0 80 54 00
        E 0 80 56 00
        e 0 80 60 00
        e 0 80 62 00
        E 400 90 1a 60
        E 0 90 1f 60
        E 0 90 3d 60
        E 0 90 49 60
        E 0 90 55 60
        E 0 90 56 60
        e 0 90 61 60
        e 0 90 62 60
        E 80 80 1a 00
        E 0 80 1f 00
        E 0 80 3d 00
        E 0 80 49 00
        E 0 80 55 00
        E 0 80 56 00
        e 0 80 61 00
        e 0 80 62 00
        E 240 90 1f 60
        e 0 90 62 60
        E 80 80 1f 00
        e 0 80 62 00
        E 80 90 18 60
        E 0 90 1f 60
        E 0 90 48 60
        E 0 90 54 60
        E 0 90 56 60
        e 0 90 60 60
        e 0 90 62 60
        E 80 80 18 00
        E 0 80 1f 00
        E 0 80 48 00
        E 0 80 54 00
        E 0 80 56 00
        e 0 80 60 00
        e 0 80 62 00
        E 400 90 1a 60
        E 0 90 1f 60
        E 0 90 3d 60
        E 0 90 49 60
        E 0 90 55 60
        E 0 90 56 60
        e 0 90 61 60
        e 0 90 62 60
        E 80 80 1a 00
        E 0 80 1f 00
        E 0 80 3d 00
        E 0 80 49 00
        E 0 80 55 00
        E 0 80 56 00
        e 0 80 61 00
        e 0 80 62 00
        E 240 90 1f 60
        e 0 90 62 60
        E 80 80 1f 00
        e 0 80 62 00
        E 80 80 74 00
        E 0 90 18 60
        E 0 90 1f 60
        E 0 90 3c 60
        E 0 90 48 60
        E 0 90 54 60
        E 0 90 56 60
        e 0 90 60 60
        e 0 90 62 60
        E 80 80 18 00
        E 0 80 1f 00
        E 0 80 3c 00
        E 0 80 48 00
        E 0 80 54 00
        E 0 80 56 00
        e 0 80 60 00
        e 0 80 62 00
        E 400 90 1a 60
        E 0 90 1f 60
        E 0 90 3d 60
        E 0 90 49 60
        E 0 90 55 60
        E 0 90 56 60
        e 0 90 61 60
        e 0 90 62 60
        E 80 80 1a 00
        E 0 80 1f 00
        E 0 80 3d 00
        E 0 80 49 00
        E 0 80 55 00
        E 0 80 56 00
        e 0 80 61 00
        e 0 80 62 00
        E 240 90 1f 60
        e 0 90 62 60
        E 80 80 1f 00
        e 0 80 62 00
        E 80 90 18 60
        E 0 90 1f 60
        E 0 90 48 60
        E 0 90 54 60
        E 0 90 56 60
        e 0 90 60 60
        e 0 90 62 60
        E 80 80 18 00
        E 0 80 1f 00
        E 0 80 48 00
        E 0 80 54 00
        E 0 80 56 00
        e 0 80 60 00
        e 0 80 62 00
        E 400 90 1a 60
        E 0 90 1f 60
        E 0 90 3d 60
        E 0 90 49 60
        E 0 90 55 60
        E 0 90 56 60
        e 0 90 61 60
        e 0 90 62 60
        E 80 80 1a 00
        E 0 80 1f 00
        E 0 80 3d 00
        E 0 80 49 00
        E 0 80 55 00
        E 0 80 56 00
        e 0 80 61 00
        e 0 80 62 00
        E 240 90 1f 60
        e 0 90 62 60
        E 80 80 1f 00
        e 0 80 62 00
        E 80 90 18 60
        E 0 90 1f 60
        E 0 90 3c 60
        E 0 90 48 60
        E 0 90 54 60
        E 0 90 56 60
        e 0 90 60 60
        e 0 90 62 60
        E 80 80 18 00
        E 0 80 1f 00
        E 0 80 3c 00
        E 0 80 48 00
        E 0 80 54 00
        E 0 80 56 00
        e 0 80 60 00
        e 0 80 62 00
        E 1840 90 78 60
        E 0 90 79 60
        E 0 90 7a 60
        E 0 90 7b 60
        E 0 90 7c 60
        E 1920 80 78 00
        E 0 80 79 00
        E 0 80 7a 00
        E 0 80 7b 00
        E 0 80 7c 00
        E 0 90 18 60
        E 0 90 1f 60
        E 0 90 3c 60
        E 0 90 48 60
        E 0 90 54 60
        E 0 90 56 60
        e 0 90 60 60
        e 0 90 62 60
        E 80 80 18 00
        E 0 80 1f 00
        E 0 80 3c 00
        E 0 80 48 00
        E 0 80 54 00
        E 0 80 56 00
        e 0 80 60 00
        e 0 80 62 00
        E 400 90 1a 60
        E 0 90 1f 60
        E 0 90 3d 60
        E 0 90 49 60
        E 0 90 55 60
        E 0 90 56 60
        e 0 90 61 60
        e 0 90 62 60
        E 80 80 1a 00
        E 0 80 1f 00
        E 0 80 3d 00
        E 0 80 49 00
        E 0 80 55 00
        E 0 80 56 00
        e 0 80 61 00
        e 0 80 62 00
        E 240 90 1f 60
        e 0 90 62 60
        E 80 80 1f 00
        e 0 80 62 00
        E 80 90 18 60
        E 0 90 1f 60
        E 0 90 48 60
        E 0 90 54 60
        E 0 90 56 60
        e 0 90 60 60
        e 0 90 62 60
        E 80 80 18 00
        E 0 80 1f 00
        E 0 80 48 00
        E 0 80 54 00
        E 0 80 56 00
        e 0 80 60 00
        e 0 80 62 00
        E 400 90 1a 60
        E 0 90 1f 60
        E 0 90 3d 60
        E 0 90 49 60
        E 0 90 55 60
        E 0 90 56 60
        e 0 90 61 60
        e 0 90 62 60
        E 80 80 1a 00
        E 0 80 1f 00
        E 0 80 3d 00
        E 0 80 49 00
        E 0 80 55 00
        E 0 80 56 00
        e 0 80 61 00
        e 0 80 62 00
        E 240 90 1f 60
        e 0 90 62 60
        E 80 80 1f 00
        e 0 80 62 00
        E 80 90 18 60
        E 0 90 1f 60
        E 0 90 3c 60
        E 0 90 48 60
        E 0 90 54 60
        E 0 90 56 60
        e 0 90 60 60
        e 0 90 62 60
        E 80 80 18 00
        E 0 80 1f 00
        E 0 80 3c 00
        E 0 80 48 00
        E 0 80 54 00
        E 0 80 56 00
        e 0 80 60 00
        e 0 80 62 00
        E 400 90 1a 60
        E 0 90 1f 60
        E 0 90 3d 60
        E 0 90 49 60
        E 0 90 55 60
        E 0 90 56 60
        e 0 90 61 60
        e 0 90 62 60
        E 80 80 1a 00
        E 0 80 1f 00
        E 0 80 3d 00
        E 0 80 49 00
        E 0 80 55 00
        E 0 80 56 00
        e 0 80 61 00
        e 0 80 62 00
        E 240 90 1f 60
        e 0 90 62 60
        E 80 80 1f 00
        e 0 80 62 00
        E 80 90 18 60
        E 0 90 1f 60
        E 0 90 48 60
        E 0 90 54 60
        E 0 90 56 60
        e 0 90 60 60
        e 0 90 62 60
        E 80 80 18 00
        E 0 80 1f 00
        E 0 80 48 00
        E 0 80 54 00
        E 0 80 56 00
        e 0 80 60 00
        e 0 80 62 00
        E 400 90 1a 60
        E 0 90 1f 60
        E 0 90 3d 60
        E 0 90 49 60
        E 0 90 55 60
        E 0 90 56 60
        e 0 90 61 60
        e 0 90 62 60
        E 80 80 1a 00
        E 0 80 1f 00
        E 0 80 3d 00
        E 0 80 49 00
        E 0 80 55 00
        E 0 80 56 00
        e 0 80 61 00
        e 0 80 62 00
        E 240 90 1f 60
        e 0 90 62 60
        E 80 80 1f 00
        e 0 80 62 00
        E 80 90 18 60
        E 0 90 1f 60
        E 0 90 3c 60
        E 0 90 48 60
        E 0 90 54 60
        E 0 90 56 60
        e 0 90 60 60
        e 0 90 62 60
        E 0 90 74 60
        E 80 80 18 00
        E 0 80 1f 00
        E 0 80 3c 00
        E 0 80 48 00
        E 0 80 54 00
        E 0 80 56 00
        e 0 80 60 00
        e 0 80 62 00
        E 400 90 1a 60
        E 0 90 1f 60
        E 0 90 3d 60
        E 0 90 49 60
        E 0 90 55 60
        E 0 90 56 60
        e 0 90 61 60
        e 0 90 62 60
        E 80 80 1a 00
        E 0 80 1f 00
        E 0 80 3d 00
        E 0 80 49 00
        E 0 80 55 00
        E 0 80 56 00
        e 0 80 61 00
        e 0 80 62 00
        E 240 90 1f 60
        e 0 90 62 60
        E 80 80 1f 00
        e 0 80 62 00
        E 80 90 18 60
        E 0 90 1f 60
        E 0 90 48 60
        E 0 90 54 60
        E 0 90 56 60
        e 0 90 60 60
        e 0 90 62 60
        E 80 80 18 00
        E 0 80 1f 00
        E 0 80 48 00
        E 0 80 54 00
        E 0 80 56 00
        e 0 80 60 00
        e 0 80 62 00
        E 400 90 1a 60
        E 0 90 1f 60
        E 0 90 3d 60
        E 0 90 49 60
        E 0 90 55 60
        E 0 90 56 60
        e 0 90 61 60
        e 0 90 62 60
        E 80 80 1a 00
        E 0 80 1f 00
        E 0 80 3d 00
        E 0 80 49 00
        E 0 80 55 00
        E 0 80 56 00
        e 0 80 61 00
        e 0 80 62 00
        E 40 80 74 00
        E 200 90 1f 60
        e 0 90 62 60
        E 80 80 1f 00
        e 0 80 62 00
        E 80 90 18 60
        E 0 90 1f 60
        E 0 90 3c 60
        E 0 90 48 60
        E 0 90 54 60
        E 0 90 56 60
        e 0 90 60 60
        e 0 90 62 60
        E 0 90 78 60
        E 0 90 79 60
        E 0 90 7a 60
        E 0 90 7b 60
        E 0 90 7c 60
        E 80 80 18 00
        E 0 80 1f 00
        E 0 80 3c 00
        E 0 80 48 00
        E 0 80 54 00
        E 0 80 56 00
        e 0 80 60 00
        e 0 80 62 00
        E 400 90 1a 60
        E 0 90 1f 60
        E 0 90 3d 60
        E 0 90 49 60
        E 0 90 55 60
        E 0 90 56 60
        e 0 90 61 60
        e 0 90 62 60
        E 80 80 1a 00
        E 0 80 1f 00
        E 0 80 3d 00
        E 0 80 49 00
        E 0 80 55 00
        E 0 80 56 00
        e 0 80 61 00
        e 0 80 62 00
        E 240 90 1f 60
        e 0 90 62 60
        E 80 80 1f 00
        e 0 80 62 00
        E 80 90 18 60
        E 0 90 1f 60
        E 0 90 48 60
        E 0 90 54 60
        E 0 90 56 60
        e 0 90 60 60
        e 0 90 62 60
        E 80 80 18 00
        E 0 80 1f 00
        E 0 80 48 00
        E 0 80 54 00
        E 0 80 56 00
        e 0 80 60 00
        e 0 80 62 00
        E 400 90 1a 60
        E 0 90 1f 60
        E 0 90 3d 60
        E 0 90 49 60
        E 0 90 55 60
        E 0 90 56 60
        e 0 90 61 60
        e 0 90 62 60
        E 80 80 1a 00
        E 0 80 1f 00
        E 0 80 3d 00
        E 0 80 49 00
        E 0 80 55 00
        E 0 80 56 00
        e 0 80 61 00
        e 0 80 62 00
        E 240 90 1f 60
        e 0 90 62 60
        E 80 80 1f 00
        e 0 80 62 00
        E 80 80 78 00
        E 0 80 79 00
        E 0 80 7a 00
        E 0 80 7b 00
        E 0 80 7c 00
        E 0 90 18 60
        E 0 90 1f 60
        E 0 90 3c 60
        E 0 90 48 60
        E 0 90 54 60
        E 0 90 56 60
        e 0 90 60 60
        e 0 90 62 60
        E 80 80 18 00
        E 0 80 1f 00
        E 0 80 3c 00
        E 0 80 48 00
        E 0 80 54 00
        E 0 80 56 00
        e 0 80 60 00
        e 0 80 62 00
        E 400 90 1a 60
        E 0 90 1f 60
        E 0 90 3d 60
        E 0 90 49 60
        E 0 90 55 60
        E 0 90 56 60
        e 0 90 61 60
        e 0 90 62 60
        E 80 80 1a 00
        E 0 80 1f 00
        E 0 80 3d 00
        E 0 80 49 00
        E 0 80 55 00
        E 0 80 56 00
        e 0 80 61 00
        e 0 80 62 00
        E 240 90 1f 60
        e 0 90 62 60
        E 80 80 1f 00
        e 0 80 62 00
        E 80 90 18 60
        E 0 90 1f 60
        E 0 90 48 60
        E 0 90 54 60
        E 0 90 56 60
        e 0 90 60 60
        e 0 90 62 60
        E 80 80 18 00
        E 0 80 1f 00
        E 0 80 48 00
        E 0 80 54 00
        E 0 80 56 00
        e 0 80 60 00
        e 0 80 62 00
        E 240 90 1f 60
        e 0 90 62 60
        E 80 80 1f 00
        e 0 80 62 00
        E 80 90 1a 60
        E 0 90 1f 60
        E 0 90 3d 60
        E 0 90 49 60
        E 0 90 55 60
        E 0 90 56 60
        e 0 90 61 60
        e 0 90 62 60
        E 80 80 1a 00
        E 0 80 1f 00
        E 0 80 3d 00
        E 0 80 49 00
        E 0 80 55 00
        E 0 80 56 00
        e 0 80 61 00
        e 0 80 62 00
        E 240 90 1f 60
        e 0 90 62 60
        E 80 80 1f 00
        e 0 80 62 00
        E 80 90 18 60
        E 0 90 1f 60
        E 0 90 3c 60
        E 0 90 48 60
        E 0 90 54 60
        E 0 90 56 60
        e 0 90 60 60
        e 0 90 62 60
        E 80 80 18 00
        E 0 80 1f 00
        E 0 80 3c 00
        E 0 80 48 00
        E 0 80 54 00
        E 0 80 56 00
        e 0 80 60 00
        e 0 80 62 00
        E 400 90 1a 60
        E 0 90 1f 60
        E 0 90 3d 60
        E 0 90 49 60
        E 0 90 55 60
        E 0 90 56 60
        e 0 90 61 60
        e 0 90 62 60
        E 80 80 1a 00
        E 0 80 1f 00
        E 0 80 3d 00
        E 0 80 49 00
        E 0 80 55 00
        E 0 80 56 00
        e 0 80 61 00
        e 0 80 62 00
        E 240 90 1f 60
        e 0 90 62 60
        E 80 80 1f 00
        e 0 80 62 00
        E 80 90 18 60
        E 0 90 1f 60
        E 0 90 48 60
        E 0 90 54 60
        E 0 90 56 60
        e 0 90 60 60
        e 0 90 62 60
        E 80 80 18 00
        E 0 80 1f 00
        E 0 80 48 00
        E 0 80 54 00
        E 0 80 56 00
        e 0 80 60 00
        e 0 80 62 00
        E 240 90 1f 60
        e 0 90 62 60
        E 80 80 1f 00
        e 0 80 62 00
        E 80 90 1a 60
        E 0 90 1f 60
        E 0 90 3d 60
        E 0 90 49 60
        E 0 90 55 60
        E 0 90 56 60
        e 0 90 61 60
        e 0 90 62 60
        E 80 80 1a 00
        E 0 80 1f 00
        E 0 80 3d 00
        E 0 80 49 00
        E 0 80 55 00
        E 0 80 56 00
        e 0 80 61 00
        e 0 80 62 00
        E 240 90 1f 60
        e 0 90 62 60
        E 80 80 1f 00
        e 0 80 62 00
        E 80 90 18 60
        E 0 90 1f 60
        E 0 90 3c 60
        E 0 90 48 60
        E 0 90 54 60
        E 0 90 56 60
        e 0 90 60 60
        e 0 90 62 60
        E 80 80 18 00
        E 0 80 1f 00
        E 0 80 3c 00
        E 0 80 48 00
        E 0 80 54 00
        E 0 80 56 00
        e 0 80 60 00
        e 0 80 62 00
        E 400 90 1a 60
        E 0 90 1f 60
        E 0 90 3d 60
        E 0 90 49 60
        E 0 90 55 60
        E 0 90 56 60
        e 0 90 61 60
        e 0 90 62 60
        E 80 80 1a 00
        E 0 80 1f 00
        E 0 80 3d 00
        E 0 80 49 00
        E 0 80 55 00
        E 0 80 56 00
        e 0 80 61 00
        e 0 80 62 00
        E 240 90 1f 60
        e 0 90 62 60
        E 80 80 1f 00
        e 0 80 62 00
        E 80 90 18 60
        E 0 90 1f 60
        E 0 90 48 60
        E 0 90 54 60
        E 0 90 56 60
        e 0 90 60 60
        e 0 90 62 60
        E 80 80 18 00
        E 0 80 1f 00
        E 0 80 48 00
        E 0 80 54 00
        E 0 80 56 00
        e 0 80 60 00
        e 0 80 62 00
        E 240 90 1f 60
        e 0 90 62 60
        E 80 80 1f 00
        e 0 80 62 00
        E 80 90 1a 60
        E 0 90 1f 60
        E 0 90 3d 60
        E 0 90 49 60
        E 0 90 55 60
        E 0 90 56 60
        e 0 90 61 60
        e 0 90 62 60
        E 80 80 1a 00
        E 0 80 1f 00
        E 0 80 3d 00
        E 0 80 49 00
        E 0 80 55 00
        E 0 80 56 00
        e 0 80 61 00
        e 0 80 62 00
        E 240 90 1f 60
        e 0 90 62 60
        E 80 80 1f 00
        e 0 80 62 00
        E 80 90 18 60
        E 0 90 1f 60
        E 0 90 3c 60
        E 0 90 48 60
        E 0 90 54 60
        E 0 90 56 60
        e 0 90 60 60
        e 0 90 62 60
        E 0 90 78 60
        E 0 90 79 60
        E 0 90 7a 60
        E 0 90 7b 60
        E 0 90 7c 60
        E 80 80 18 00
        E 0 80 1f 00
        E 0 80 3c 00
        E 0 80 48 00
        E 0 80 54 00
        E 0 80 56 00
        e 0 80 60 00
        e 0 80 62 00
        E 400 90 18 60
        E 0 90 1f 60
        E 0 90 48 60
        E 0 90 54 60
        E 0 90 56 60
        e 0 90 60 60
        e 0 90 62 60
        E 80 80 18 00
        E 0 80 1f 00
        E 0 80 48 00
        E 0 80 54 00
        E 0 80 56 00
        e 0 80 60 00
        e 0 80 62 00
        E 400 90 18 60
        E 0 90 1f 60
        E 0 90 3c 60
        E 0 90 48 60
        E 0 90 54 60
        E 0 90 56 60
        e 0 90 60 60
        e 0 90 62 60
        E 80 80 18 00
        E 0 80 1f 00
        E 0 80 3c 00
        E 0 80 48 00
        E 0 80 54 00
        E 0 80 56 00
        e 0 80 60 00
        e 0 80 62 00
        E 880 80 78 00
        E 0 80 79 00
        E 0 80 7a 00
        E 0 80 7b 00
        E 0 80 7c 00
        E 0 90 18 60
        E 0 90 1f 60
        E 0 90 3c 60
        E 0 90 48 60
        E 0 90 54 60
        E 0 90 56 60
        e 0 90 60 60
        e 0 90 62 60
        E 80 80 18 00
        E 0 80 1f 00
        E 0 80 3c 00
        E 0 80 48 00
        E 0 80 54 00
        E 0 80 56 00
        e 0 80 60 00
        e 0 80 62 00
        E 400 90 1a 60
        E 0 90 1f 60
        E 0 90 3d 60
        E 0 90 49 60
        E 0 90 55 60
        E 0 90 56 60
        e 0 90 61 60
        e 0 90 62 60
        E 80 80 1a 00
        E 0 80 1f 00
        E 0 80 3d 00
        E 0 80 49 00
        E 0 80 55 00
        E 0 80 56 00
        e 0 80 61 00
        e 0 80 62 00
        E 240 90 1f 60
        e 0 90 62 60
        E 80 80 1f 00
        e 0 80 62 00
        E 80 90 18 60
        E 0 90 1f 60
        E 0 90 48 60
        E 0 90 54 60
        E 0 90 56 60
        e 0 90 60 60
        e 0 90 62 60
        E 80 80 18 00
        E 0 80 1f 00
        E 0 80 48 00
        E 0 80 54 00
        E 0 80 56 00
        e 0 80 60 00
        e 0 80 62 00
        E 400 90 1a 60
        E 0 90 1f 60
        E 0 90 3d 60
        E 0 90 49 60
        E 0 90 55 60
        E 0 90 56 60
        e 0 90 61 60
        e 0 90 62 60
        E 80 80 1a 00
        E 0 80 1f 00
        E 0 80 3d 00
        E 0 80 49 00
        E 0 80 55 00
        E 0 80 56 00
        e 0 80 61 00
        e 0 80 62 00
        E 240 90 1f 60
        e 0 90 62 60
        E 80 80 1f 00
        e 0 80 62 00
        E 80 90 18 60
        E 0 90 1f 60
        E 0 90 3c 60
        E 0 90 48 60
        E 0 90 54 60
        E 0 90 56 60
        e 0 90 60 60
        e 0 90 62 60
        E 80 80 18 00
        E 0 80 1f 00
        E 0 80 3c 00
        E 0 80 48 00
        E 0 80 54 00
        E 0 80 56 00
        e 0 80 60 00
        e 0 80 62 00
        E 400 90 1a 60
        E 0 90 1f 60
        E 0 90 3d 60
        E 0 90 49 60
        E 0 90 55 60
        E 0 90 56 60
        e 0 90 61 60
        e 0 90 62 60
        E 80 80 1a 00
        E 0 80 1f 00
        E 0 80 3d 00
        E 0 80 49 00
        E 0 80 55 00
        E 0 80 56 00
        e 0 80 61 00
        e 0 80 62 00
        E 240 90 1f 60
        e 0 90 62 60
        E 80 80 1f 00
        e 0 80 62 00
        E 80 90 18 60
        E 0 90 1f 60
        E 0 90 48 60
        E 0 90 54 60
        E 0 90 56 60
        e 0 90 60 60
        e 0 90 62 60
        E 80 80 18 00
        E 0 80 1f 00
        E 0 80 48 00
        E 0 80 54 00
        E 0 80 56 00
        e 0 80 60 00
        e 0 80 62 00
        E 400 90 1a 60
        E 0 90 1f 60
        E 0 90 3d 60
        E 0 90 49 60
        E 0 90 55 60
        E 0 90 56 60
        e 0 90 61 60
        e 0 90 62 60
        E 80 80 1a 00
        E 0 80 1f 00
        E 0 80 3d 00
        E 0 80 49 00
        E 0 80 55 00
        E 0 80 56 00
        e 0 80 61 00
        e 0 80 62 00
        E 240 90 1f 60
        e 0 90 62 60
        E 80 80 1f 00
        e 0 80 62 00
        E 80 90 18 60
        E 0 90 1f 60
        E 0 90 3c 60
        E 0 90 48 60
        E 0 90 54 60
        E 0 90 56 60
        e 0 90 60 60
        e 0 90 62 60
        E 80 80 18 00
        E 0 80 1f 00
        E 0 80 3c 00
        E 0 80 48 00
        E 0 80 54 00
        E 0 80 56 00
        e 0 80 60 00
        e 0 80 62 00
        E 400 90 1a 60
        E 0 90 1f 60
        E 0 90 3d 60
        E 0 90 49 60
        E 0 90 55 60
        E 0 90 56 60
        e 0 90 61 60
        e 0 90 62 60
        E 80 80 1a 00
        E 0 80 1f 00
        E 0 80 3d 00
        E 0 80 49 00
        E 0 80 55 00
        E 0 80 56 00
        e 0 80 61 00
        e 0 80 62 00
        E 240 90 1f 60
        e 0 90 62 60
        E 80 80 1f 00
        e 0 80 62 00
        E 80 90 18 60
        E 0 90 1f 60
        E 0 90 48 60
        E 0 90 54 60
        E 0 90 56 60
        e 0 90 60 60
        e 0 90 62 60
        E 80 80 18 00
        E 0 80 1f 00
        E 0 80 48 00
        E 0 80 54 00
        E 0 80 56 00
        e 0 80 60 00
        e 0 80 62 00
        E 400 90 1a 60
        E 0 90 1f 60
        E 0 90 3d 60
        E 0 90 49 60
        E 0 90 55 60
        E 0 90 56 60
        e 0 90 61 60
        e 0 90 62 60
        E 80 80 1a 00
        E 0 80 1f 00
        E 0 80 3d 00
        E 0 80 49 00
        E 0 80 55 00
        E 0 80 56 00
        e 0 80 61 00
        e 0 80 62 00
        E 240 90 1f 60
        e 0 90 62 60
        E 80 80 1f 00
        e 0 80 62 00
        E 80 90 18 60
        E 0 90 1f 60
        E 0 90 3c 60
        E 0 90 48 60
        E 0 90 54 60
        E 0 90 56 60
        e 0 90 60 60
        e 0 90 62 60
        E 0 90 78 60
        E 0 90 79 60
        E 0 90 7a 60
        E 0 90 7b 60
        E 0 90 7c 60
        E 80 80 18 00
        E 0 80 1f 00
        E 0 80 3c 00
        E 0 80 48 00
        E 0 80 54 00
        E 0 80 56 00
        e 0 80 60 00
        e 0 80 62 00
        E 400 90 1a 60
        E 0 90 1f 60
        E 0 90 3d 60
        E 0 90 49 60
        E 0 90 55 60
        E 0 90 56 60
        e 0 90 61 60
        e 0 90 62 60
        E 80 80 1a 00
        E 0 80 1f 00
        E 0 80 3d 00
        E 0 80 49 00
        E 0 80 55 00
        E 0 80 56 00
        e 0 80 61 00
        e 0 80 62 00
        E 240 90 1f 60
        e 0 90 62 60
        E 80 80 1f 00
        e 0 80 62 00
        E 80 90 18 60
        E 0 90 1f 60
        E 0 90 48 60
        E 0 90 54 60
        E 0 90 56 60
        e 0 90 60 60
        e 0 90 62 60
        E 80 80 18 00
        E 0 80 1f 00
        E 0 80 48 00
        E 0 80 54 00
        E 0 80 56 00
        e 0 80 60 00
        e 0 80 62 00
        E 400 90 1a 60
        E 0 90 1f 60
        E 0 90 3d 60
        E 0 90 49 60
        E 0 90 55 60
        E 0 90 56 60
        e 0 90 61 60
        e 0 90 62 60
        E 80 80 1a 00
        E 0 80 1f 00
        E 0 80 3d 00
        E 0 80 49 00
        E 0 80 55 00
        E 0 80 56 00
        e 0 80 61 00
        e 0 80 62 00
        E 240 90 1f 60
        e 0 90 62 60
        E 80 80 1f 00
        e 0 80 62 00
        E 80 80 78 00
        E 0 80 79 00
        E 0 80 7a 00
        E 0 80 7b 00
        E 0 80 7c 00
        E 0 90 18 60
        E 0 90 1f 60
        E 0 90 3c 60
        E 0 90 48 60
        E 0 90 54 60
        E 0 90 56 60
        e 0 90 60 60
        e 0 90 62 60
        E 0 90 74 60
        E 80 80 18 00
        E 0 80 1f 00
        E 0 80 3c 00
        E 0 80 48 00
        E 0 80 54 00
        E 0 80 56 00
        e 0 80 60 00
        e 0 80 62 00
        E 400 90 1a 60
        E 0 90 1f 60
        E 0 90 3d 60
        E 0 90 49 60
        E 0 90 55 60
        E 0 90 56 60
        e 0 90 61 60
        e 0 90 62 60
        E 80 80 1a 00
        E 0 80 1f 00
        E 0 80 3d 00
        E 0 80 49 00
        E 0 80 55 00
        E 0 80 56 00
        e 0 80 61 00
        e 0 80 62 00
        E 240 90 1f 60
        e 0 90 62 60
        E 80 80 1f 00
        e 0 80 62 00
        E 80 90 18 60
        E 0 90 1f 60
        E 0 90 48 60
        E 0 90 54 60
        E 0 90 56 60
        e 0 90 60 60
        e 0 90 62 60
        E 80 80 18 00
        E 0 80 1f 00
        E 0 80 48 00
        E 0 80 54 00
        E 0 80 56 00
        e 0 80 60 00
        e 0 80 62 00
        E 400 90 1a 60
        E 0 90 1f 60
        E 0 90 3d 60
        E 0 90 49 60
        E 0 90 55 60
        E 0 90 56 60
        e 0 90 61 60
        e 0 90 62 60
        E 80 80 1a 00
        E 0 80 1f 00
        E 0 80 3d 00
        E 0 80 49 00
        E 0 80 55 00
        E 0 80 56 00
        e 0 80 61 00
        e 0 80 62 00
        E 240 90 1f 60
        e 0 90 62 60
        E 80 80 1f 00
        e 0 80 62 00
        E 80 90 18 60
        E 0 90 1f 60
        E 0 90 3c 60
        E 0 90 48 60
        E 0 90 54 60
        E 0 90 56 60
        e 0 90 60 60
        e 0 90 62 60
        E 80 80 18 00
        E 0 80 1f 00
        E 0 80 3c 00
        E 0 80 48 00
        E 0 80 54 00
        E 0 80 56 00
        e 0 80 60 00
        e 0 80 62 00
        E 400 90 1a 60
        E 0 90 1f 60
        E 0 90 3d 60
        E 0 90 49 60
        E 0 90 55 60
        E 0 90 56 60
        e 0 90 61 60
        e 0 90 62 60
        E 80 80 1a 00
        E 0 80 1f 00
        E 0 80 3d 00
        E 0 80 49 00
        E 0 80 55 00
        E 0 80 56 00
        e 0 80 61 00
        e 0 80 62 00
        E 240 90 1f 60
        e 0 90 62 60
        E 80 80 1f 00
        e 0 80 62 00
        E 80 90 18 60
        E 0 90 1f 60
        E 0 90 48 60
        E 0 90 54 60
        E 0 90 56 60
        e 0 90 60 60
        e 0 90 62 60
        E 80 80 18 00
        E 0 80 1f 00
        E 0 80 48 00
        E 0 80 54 00
        E 0 80 56 00
        e 0 80 60 00
        e 0 80 62 00
        E 400 90 1a 60
        E 0 90 1f 60
        E 0 90 3d 60
        E 0 90 49 60
        E 0 90 55 60
        E 0 90 56 60
        e 0 90 61 60
        e 0 90 62 60
        E 80 80 1a 00
        E 0 80 1f 00
        E 0 80 3d 00
        E 0 80 49 00
        E 0 80 55 00
        E 0 80 56 00
        e 0 80 61 00
        e 0 80 62 00
        E 240 90 1f 60
        e 0 90 62 60
        E 80 80 1f 00
        e 0 80 62 00
        E 80 90 18 60
        E 0 90 1f 60
        E 0 90 3c 60
        E 0 90 48 60
        E 0 90 54 60
        E 0 90 56 60
        e 0 90 60 60
        e 0 90 62 60
        E 80 80 18 00
        E 0 80 1f 00
        E 0 80 3c 00
        E 0 80 48 00
        E 0 80 54 00
        E 0 80 56 00
        e 0 80 60 00
        e 0 80 62 00
        E 40 80 74 00
        E 1800 90 78 60
        E 0 90 79 60
        E 0 90 7a 60
        E 0 90 7b 60
        E 0 90 7c 60
        E 1920 80 78 00
        E 0 80 79 00
        E 0 80 7a 00
        E 0 80 7b 00
        E 0 80 7c 00
        E 0 90 18 60
        E 0 90 1f 60
        E 0 90 3c 60
        E 0 90 48 60
        E 0 90 54 60
        E 0 90 56 60
        e 0 90 60 60
        e 0 90 62 60
        E 80 80 18 00
        E 0 80 1f 00
        E 0 80 3c 00
        E 0 80 48 00
        E 0 80 54 00
        E 0 80 56 00
        e 0 80 60 00
        e 0 80 62 00
        E 400 90 1a 60
        E 0 90 1f 60
        E 0 90 3d 60
        E 0 90 49 60
        E 0 90 55 60
        E 0 90 56 60
        e 0 90 61 60
        e 0 90 62 60
        E 80 80 1a 00
        E 0 80 1f 00
        E 0 80 3d 00
        E 0 80 49 00
        E 0 80 55 00
        E 0 80 56 00
        e 0 80 61 00
        e 0 80 62 00
        E 240 90 1f 60
        e 0 90 62 60
        E 80 80 1f 00
        e 0 80 62 00
        E 80 90 18 60
        E 0 90 1f 60
        E 0 90 48 60
        E 0 90 54 60
        E 0 90 56 60
        e 0 90 60 60
        e 0 90 62 60
        E 80 80 18 00
        E 0 80 1f 00
        E 0 80 48 00
        E 0 80 54 00
        E 0 80 56 00
        e 0 80 60 00
        e 0 80 62 00
        E 400 90 1a 60
        E 0 90 1f 60
        E 0 90 3d 60
        E 0 90 49 60
        E 0 90 55 60
        E 0 90 56 60
        e 0 90 61 60
        e 0 90 62 60
        E 80 80 1a 00
        E 0 80 1f 00
        E 0 80 3d 00
        E 0 80 49 00
        E 0 80 55 00
        E 0 80 56 00
        e 0 80 61 00
        e 0 80 62 00
        E 240 90 1f 60
        e 0 90 62 60
        E 80 80 1f 00
        e 0 80 62 00
        E 80 90 18 60
        E 0 90 1f 60
        E 0 90 3c 60
        E 0 90 48 60
        E 0 90 54 60
        E 0 90 56 60
        e 0 90 60 60
        e 0 90 62 60
        E 80 80 18 00
        E 0 80 1f 00
        E 0 80 3c 00
        E 0 80 48 00
        E 0 80 54 00
        E 0 80 56 00
        e 0 80 60 00
        e 0 80 62 00
        E 400 90 1a 60
        E 0 90 1f 60
        E 0 90 3d 60
        E 0 90 49 60
        E 0 90 55 60
        E 0 90 56 60
        e 0 90 61 60
        e 0 90 62 60
        E 80 80 1a 00
        E 0 80 1f 00
        E 0 80 3d 00
        E 0 80 49 00
        E 0 80 55 00
        E 0 80 56 00
        e 0 80 61 00
        e 0 80 62 00
        E 240 90 1f 60
        e 0 90 62 60
        E 80 80 1f 00
        e 0 80 62 00
        E 80 90 18 60
        E 0 90 1f 60
        E 0 90 48 60
        E 0 90 54 60
        E 0 90 56 60
        e 0 90 60 60
        e 0 90 62 60
        E 80 80 18 00
        E 0 80 1f 00
        E 0 80 48 00
        E 0 80 54 00
        E 0 80 56 00
        e 0 80 60 00
        e 0 80 62 00
        E 400 90 1a 60
        E 0 90 1f 60
        E 0 90 3d 60
        E 0 90 49 60
        E 0 90 55 60
        E 0 90 56 60
        e 0 90 61 60
        e 0 90 62 60
        E 80 80 1a 00
        E 0 80 1f 00
        E 0 80 3d 00
        E 0 80 49 00
        E 0 80 55 00
        E 0 80 56 00
        e 0 80 61 00
        e 0 80 62 00
        E 240 90 1f 60
        e 0 90 62 60
        E 80 80 1f 00
        e 0 80 62 00
        E 80 90 18 60
        E 0 90 1f 60
        E 0 90 3c 60
        E 0 90 48 60
        E 0 90 54 60
        E 0 90 56 60
        e 0 90 60 60
        e 0 90 62 60
        E 80 80 18 00
        E 0 80 1f 00
        E 0 80 3c 00
        E 0 80 48 00
        E 0 80 54 00
        E 0 80 56 00
        e 0 80 60 00
        e 0 80 62 00
        E 400 90 1a 60
        E 0 90 1f 60
        E 0 90 3d 60
        E 0 90 49 60
        E 0 90 55 60
        E 0 90 56 60
        e 0 90 61 60
        e 0 90 62 60
        E 80 80 1a 00
        E 0 80 1f 00
        E 0 80 3d 00
        E 0 80 49 00
        E 0 80 55 00
        E 0 80 56 00
        e 0 80 61 00
        e 0 80 62 00
        E 240 90 1f 60
        e 0 90 62 60
        E 80 80 1f 00
        e 0 80 62 00
        E 80 90 18 60
        E 0 90 1f 60
        E 0 90 48 60
        E 0 90 54 60
        E 0 90 56 60
        e 0 90 60 60
        e 0 90 62 60
        E 80 80 18 00
        E 0 80 1f 00
        E 0 80 48 00
        E 0 80 54 00
        E 0 80 56 00
        e 0 80 60 00
        e 0 80 62 00
        E 400 90 1a 60
        E 0 90 1f 60
        E 0 90 3d 60
        E 0 90 49 60
        E 0 90 55 60
        E 0 90 56 60
        e 0 90 61 60
        e 0 90 62 60
        E 80 80 1a 00
        E 0 80 1f 00
        E 0 80 3d 00
        E 0 80 49 00
        E 0 80 55 00
        E 0 80 56 00
        e 0 80 61 00
        e 0 80 62 00
        E 240 90 1f 60
        e 0 90 62 60
        E 80 80 1f 00
        e 0 80 62 00
        E 80 90 18 60
        E 0 90 1f 60
        E 0 90 3c 60
        E 0 90 48 60
        E 0 90 54 60
        E 0 90 56 60
        e 0 90 60 60
        e 0 90 62 60
        E 0 90 78 60
        E 0 90 79 60
        E 0 90 7a 60
        E 0 90 7b 60
        E 0 90 7c 60
        E 80 80 18 00
        E 0 80 1f 00
        E 0 80 3c 00
        E 0 80 48 00
        E 0 80 54 00
        E 0 80 56 00
        e 0 80 60 00
        e 0 80 62 00
        E 400 90 1a 60
        E 0 90 1f 60
        E 0 90 3d 60
        E 0 90 49 60
        E 0 90 55 60
        E 0 90 56 60
        e 0 90 61 60
        e 0 90 62 60
        E 80 80 1a 00
        E 0 80 1f 00
        E 0 80 3d 00
        E 0 80 49 00
        E 0 80 55 00
        E 0 80 56 00
        e 0 80 61 00
        e 0 80 62 00
        E 240 90 1f 60
        e 0 90 62 60
        E 80 80 1f 00
        e 0 80 62 00
        E 80 90 18 60
        E 0 90 1f 60
        E 0 90 48 60
        E 0 90 54 60
        E 0 90 56 60
        e 0 90 60 60
        e 0 90 62 60
        E 80 80 18 00
        E 0 80 1f 00
        E 0 80 48 00
        E 0 80 54 00
        E 0 80 56 00
        e 0 80 60 00
        e 0 80 62 00
        E 400 90 1a 60
        E 0 90 1f 60
        E 0 90 3d 60
        E 0 90 49 60
        E 0 90 55 60
        E 0 90 56 60
        e 0 90 61 60
        e 0 90 62 60
        E 80 80 1a 00
        E 0 80 1f 00
        E 0 80 3d 00
        E 0 80 49 00
        E 0 80 55 00
        E 0 80 56 00
        e 0 80 61 00
        e 0 80 62 00
        E 240 90 1f 60
        e 0 90 62 60
        E 80 80 1f 00
        e 0 80 62 00
        E 80 80 78 00
        E 0 80 79 00
        E 0 80 7a 00
        E 0 80 7b 00
        E 0 80 7c 00
        E 0 90 18 60
        E 0 90 1f 60
        E 0 90 3c 60
        E 0 90 48 60
        E 0 90 54 60
        E 0 90 56 60
        e 0 90 60 60
        e 0 90 62 60
        E 0 90 74 60
        E 80 80 18 00
        E 0 80 1f 00
        E 0 80 3c 00
        E 0 80 48 00
        E 0 80 54 00
        E 0 80 56 00
        e 0 80 60 00
        e 0 80 62 00
        E 400 90 1a 60
        E 0 90 1f 60
        E 0 90 3d 60
        E 0 90 49 60
        E 0 90 55 60
        E 0 90 56 60
        e 0 90 61 60
        e 0 90 62 60
        E 80 80 1a 00
        E 0 80 1f 00
        E 0 80 3d 00
        E 0 80 49 00
        E 0 80 55 00
        E 0 80 56 00
        e 0 80 61 00
        e 0 80 62 00
        E 240 90 1f 60
        e 0 90 62 60
        E 80 80 1f 00
        e 0 80 62 00
        E 80 90 18 60
        E 0 90 1f 60
        E 0 90 48 60
        E 0 90 54 60
        E 0 90 56 60
        e 0 90 60 60
        e 0 90 62 60
        E 80 80 18 00
        E 0 80 1f 00
        E 0 80 48 00
        E 0 80 54 00
        E 0 80 56 00
        e 0 80 60 00
        e 0 80 62 00
        E 240 90 1f 60
        e 0 90 62 60
        E 80 80 1f 00
        e 0 80 62 00
        E 80 90 1a 60
        E 0 90 1f 60
        E 0 90 3d 60
        E 0 90 49 60
        E 0 90 55 60
        E 0 90 56 60
        e 0 90 61 60
        e 0 90 62 60
        E 80 80 1a 00
        E 0 80 1f 00
        E 0 80 3d 00
        E 0 80 49 00
        E 0 80 55 00
        E 0 80 56 00
        e 0 80 61 00
        e 0 80 62 00
        E 240 90 1f 60
        e 0 90 62 60
        E 80 80 1f 00
        e 0 80 62 00
        E 80 90 18 60
        E 0 90 1f 60
        E 0 90 3c 60
        E 0 90 48 60
        E 0 90 54 60
        E 0 90 56 60
        e 0 90 60 60
        e 0 90 62 60
        E 80 80 18 00
        E 0 80 1f 00
        E 0 80 3c 00
        E 0 80 48 00
        E 0 80 54 00
        E 0 80 56 00
        e 0 80 60 00
        e 0 80 62 00
        E 40 80 74 00
        E 360 90 1a 60
        E 0 90 1f 60
        E 0 90 3d 60
        E 0 90 49 60
        E 0 90 55 60
        E 0 90 56 60
        e 0 90 61 60
        e 0 90 62 60
        E 80 80 1a 00
        E 0 80 1f 00
        E 0 80 3d 00
        E 0 80 49 00
        E 0 80 55 00
        E 0 80 56 00
        e 0 80 61 00
        e 0 80 62 00
        E 240 90 1f 60
        e 0 90 62 60
        E 80 80 1f 00
        e 0 80 62 00
        E 80 90 18 60
        E 0 90 1f 60
        E 0 90 48 60
        E 0 90 54 60
        E 0 90 56 60
        e 0 90 60 60
        e 0 90 62 60
        E 80 80 18 00
        E 0 80 1f 00
        E 0 80 48 00
        E 0 80 54 00
        E 0 80 56 00
        e 0 80 60 00
        e 0 80 62 00
        E 240 90 1f 60
        e 0 90 62 60
        E 80 80 1f 00
        e 0 80 62 00
        E 80 90 1a 60
        E 0 90 1f 60
        E 0 90 3d 60
        E 0 90 49 60
        E 0 90 55 60
        E 0 90 56 60
        e 0 90 61 60
        e 0 90 62 60
        E 80 80 1a 00
        E 0 80 1f 00
        E 0 80 3d 00
        E 0 80 49 00
        E 0 80 55 00
        E 0 80 56 00
        e 0 80 61 00
        e 0 80 62 00
        E 240 90 1f 60
        e 0 90 62 60
        E 80 80 1f 00
        e 0 80 62 00
        E 80 90 18 60
        E 0 90 1f 60
        E 0 90 3c 60
        E 0 90 48 60
        E 0 90 54 60
        E 0 90 56 60
        e 0 90 60 60
        e 0 90 62 60
        E 80 80 18 00
        E 0 80 1f 00
        E 0 80 3c 00
        E 0 80 48 00
        E 0 80 54 00
        E 0 80 56 00
        e 0 80 60 00
        e 0 80 62 00
        E 400 90 1a 60
        E 0 90 1f 60
        E 0 90 3d 60
        E 0 90 49 60
        E 0 90 55 60
        E 0 90 56 60
        e 0 90 61 60
        e 0 90 62 60
        E 80 80 1a 00
        E 0 80 1f 00
        E 0 80 3d 00
        E 0 80 49 00
        E 0 80 55 00
        E 0 80 56 00
        e 0 80 61 00
        e 0 80 62 00
        E 240 90 1f 60
        e 0 90 62 60
        E 80 80 1f 00
        e 0 80 62 00
        E 80 90 18 60
        E 0 90 1f 60
        E 0 90 48 60
        E 0 90 54 60
        E 0 90 56 60
        e 0 90 60 60
        e 0 90 62 60
        E 80 80 18 00
        E 0 80 1f 00
        E 0 80 48 00
        E 0 80 54 00
        E 0 80 56 00
        e 0 80 60 00
        e 0 80 62 00
        E 240 90 1f 60
        e 0 90 62 60
        E 80 80 1f 00
        e 0 80 62 00
        E 80 90 1a 60
        E 0 90 1f 60
        E 0 90 3d 60
        E 0 90 49 60
        E 0 90 55 60
        E 0 90 56 60
        e 0 90 61 60
        e 0 90 62 60
        E 80 80 1a 00
        E 0 80 1f 00
        E 0 80 3d 00
        E 0 80 49 00
        E 0 80 55 00
        E 0 80 56 00
        e 0 80 61 00
        e 0 80 62 00
        E 240 90 1f 60
        e 0 90 62 60
        E 80 80 1f 00
        e 0 80 62 00
        E 80 90 18 60
        E 0 90 1f 60
        E 0 90 3c 60
        E 0 90 48 60
        E 0 90 54 60
        E 0 90 56 60
        e 0 90 60 60
        e 0 90 62 60
        E 0 90 78 60
        E 0 90 79 60
        E 0 90 7a 60
        E 0 90 7b 60
        E 0 90 7c 60
        E 80 80 18 00
        E 0 80 1f 00
        E 0 80 3c 00
        E 0 80 48 00
        E 0 80 54 00
        E 0 80 56 00
        e 0 80 60 00
        e 0 80 62 00
        E 400 90 18 60
        E 0 90 1f 60
        E 0 90 48 60
        E 0 90 54 60
        E 0 90 56 60
        e 0 90 60 60
        e 0 90 62 60
        E 80 80 18 00
        E 0 80 1f 00
        E 0 80 48 00
        E 0 80 54 00
        E 0 80 56 00
        e 0 80 60 00
        e 0 80 62 00
        E 400 90 18 60
        E 0 90 1f 60
        E 0 90 3c 60
        E 0 90 48 60
        E 0 90 54 60
        E 0 90 56 60
        e 0 90 60 60
        e 0 90 62 60
        E 80 80 18 00
        E 0 80 1f 00
        E 0 80 3c 00
        E 0 80 48 00
        E 0 80 54 00
        E 0 80 56 00
        e 0 80 60 00
        e 0 80 62 00
        E 880 80 78 00
        E 0 80 79 00
        E 0 80 7a 00
        E 0 80 7b 00
        E 0 80 7c 00
        E 0 90 18 60
        E 0 90 1f 60
        E 0 90 3c 60
        E 0 90 48 60
        E 0 90 54 60
        E 0 90 56 60
        e 0 90 60 60
        e 0 90 62 60
        E 80 80 18 00
        E 0 80 1f 00
        E 0 80 3c 00
        E 0 80 48 00
        E 0 80 54 00
        E 0 80 56 00
        e 0 80 60 00
        e 0 80 62 00
        E 400 90 1a 60
        E 0 90 1f 60
        E 0 90 3d 60
        E 0 90 49 60
        E 0 90 55 60
        E 0 90 56 60
        e 0 90 61 60
        e 0 90 62 60
        E 80 80 1a 00
        E 0 80 1f 00
        E 0 80 3d 00
        E 0 80 49 00
        E 0 80 55 00
        E 0 80 56 00
        e 0 80 61 00
        e 0 80 62 00
        E 240 90 1f 60
        e 0 90 62 60
        E 80 80 1f 00
        e 0 80 62 00
        E 80 90 18 60
        E 0 90 1f 60
        E 0 90 48 60
        E 0 90 54 60
        E 0 90 56 60
        e 0 90 60 60
        e 0 90 62 60
        E 80 80 18 00
        E 0 80 1f 00
        E 0 80 48 00
        E 0 80 54 00
        E 0 80 56 00
        e 0 80 60 00
        e 0 80 62 00
        E 400 90 1a 60
        E 0 90 1f 60
        E 0 90 3d 60
        E 0 90 49 60
        E 0 90 55 60
        E 0 90 56 60
        e 0 90 61 60
        e 0 90 62 60
        E 80 80 1a 00
        E 0 80 1f 00
        E 0 80 3d 00
        E 0 80 49 00
        E 0 80 55 00
        E 0 80 56 00
        e 0 80 61 00
        e 0 80 62 00
        E 240 90 1f 60
        e 0 90 62 60
        E 80 80 1f 00
        e 0 80 62 00
        E 80 90 18 60
        E 0 90 1f 60
        E 0 90 3c 60
        E 0 90 48 60
        E 0 90 54 60
        E 0 90 56 60
        e 0 90 60 60
        e 0 90 62 60
        E 80 80 18 00
        E 0 80 1f 00
        E 0 80 3c 00
        E 0 80 48 00
        E 0 80 54 00
        E 0 80 56 00
        e 0 80 60 00
        e 0 80 62 00
        E 400 90 1a 60
        E 0 90 1f 60
        E 0 90 3d 60
        E 0 90 49 60
        E 0 90 55 60
        E 0 90 56 60
        e 0 90 61 60
        e 0 90 62 60
        E 80 80 1a 00
        E 0 80 1f 00
        E 0 80 3d 00
        E 0 80 49 00
        E 0 80 55 00
        E 0 80 56 00
        e 0 80 61 00
        e 0 80 62 00
        E 240 90 1f 60
        e 0 90 62 60
        E 80 80 1f 00
        e 0 80 62 00
        E 80 90 18 60
        E 0 90 1f 60
        E 0 90 48 60
        E 0 90 54 60
        E 0 90 56 60
        e 0 90 60 60
        e 0 90 62 60
        E 80 80 18 00
        E 0 80 1f 00
        E 0 80 48 00
        E 0 80 54 00
        E 0 80 56 00
        e 0 80 60 00
        e 0 80 62 00
        E 400 90 1a 60
        E 0 90 1f 60
        E 0 90 3d 60
        E 0 90 49 60
        E 0 90 55 60
        E 0 90 56 60
        e 0 90 61 60
        e 0 90 62 60
        E 80 80 1a 00
        E 0 80 1f 00
        E 0 80 3d 00
        E 0 80 49 00
        E 0 80 55 00
        E 0 80 56 00
        e 0 80 61 00
        e 0 80 62 00
        E 240 90 1f 60
        e 0 90 62 60
        E 80 80 1f 00
        e 0 80 62 00
        E 80 90 18 60
        E 0 90 1f 60
        E 0 90 3c 60
        E 0 90 48 60
        E 0 90 54 60
        E 0 90 56 60
        e 0 90 60 60
        e 0 90 62 60
        E 80 80 18 00
        E 0 80 1f 00
        E 0 80 3c 00
        E 0 80 48 00
        E 0 80 54 00
        E 0 80 56 00
        e 0 80 60 00
        e 0 80 62 00
        E 400 90 1a 60
        E 0 90 1f 60
        E 0 90 3d 60
        E 0 90 49 60
        E 0 90 55 60
        E 0 90 56 60
        e 0 90 61 60
        e 0 90 62 60
        E 80 80 1a 00
        E 0 80 1f 00
        E 0 80 3d 00
        E 0 80 49 00
        E 0 80 55 00
        E 0 80 56 00
        e 0 80 61 00
        e 0 80 62 00
        E 240 90 1f 60
        e 0 90 62 60
        E 80 80 1f 00
        e 0 80 62 00
        E 80 90 18 60
        E 0 90 1f 60
        E 0 90 48 60
        E 0 90 54 60
        E 0 90 56 60
        e 0 90 60 60
        e 0 90 62 60
        E 80 80 18 00
        E 0 80 1f 00
        E 0 80 48 00
        E 0 80 54 00
        E 0 80 56 00
        e 0 80 60 00
        e 0 80 62 00
        E 400 90 1a 60
        E 0 90 1f 60
        E 0 90 3d 60
        E 0 90 49 60
        E 0 90 55 60
        E 0 90 56 60
        e 0 90 61 60
        e 0 90 62 60
        E 80 80 1a 00
        E 0 80 1f 00
        E 0 80 3d 00
        E 0 80 49 00
        E 0 80 55 00
        E 0 80 56 00
        e 0 80 61 00
        e 0 80 62 00
        E 240 90 1f 60
        e 0 90 62 60
        E 80 80 1f 00
        e 0 80 62 00
        E 80 90 18 60
        E 0 90 1f 60
        E 0 90 3c 60
        E 0 90 48 60
        E 0 90 54 60
        E 0 90 56 60
        e 0 90 60 60
        e 0 90 62 60
        E 0 90 78 60
        E 0 90 79 60
        E 0 90 7a 60
        E 0 90 7b 60
        E 0 90 7c 60
        E 80 80 18 00
        E 0 80 1f 00
        E 0 80 3c 00
        E 0 80 48 00
        E 0 80 54 00
        E 0 80 56 00
        e 0 80 60 00
        e 0 80 62 00
        E 400 90 1a 60
        E 0 90 1f 60
        E 0 90 3d 60
        E 0 90 49 60
        E 0 90 55 60
        E 0 90 56 60
        e 0 90 61 60
        e 0 90 62 60
        E 80 80 1a 00
        E 0 80 1f 00
        E 0 80 3d 00
        E 0 80 49 00
        E 0 80 55 00
        E 0 80 56 00
        e 0 80 61 00
        e 0 80 62 00
        E 240 90 1f 60
        e 0 90 62 60
        E 80 80 1f 00
        e 0 80 62 00
        E 80 90 18 60
        E 0 90 1f 60
        E 0 90 48 60
        E 0 90 54 60
        E 0 90 56 60
        e 0 90 60 60
        e 0 90 62 60
        E 80 80 18 00
        E 0 80 1f 00
        E 0 80 48 00
        E 0 80 54 00
        E 0 80 56 00
        e 0 80 60 00
        e 0 80 62 00
        E 400 90 1a 60
        E 0 90 1f 60
        E 0 90 3d 60
        E 0 90 49 60
        E 0 90 55 60
        E 0 90 56 60
        e 0 90 61 60
        e 0 90 62 60
        E 80 80 1a 00
        E 0 80 1f 00
        E 0 80 3d 00
        E 0 80 49 00
        E 0 80 55 00
        E 0 80 56 00
        e 0 80 61 00
        e 0 80 62 00
        E 240 90 1f 60
        e 0 90 62 60
        E 80 80 1f 00
        e 0 80 62 00
        E 80 80 78 00
        E 0 80 79 00
        E 0 80 7a 00
        E 0 80 7b 00
        E 0 80 7c 00
        E 0 90 18 60
        E 0 90 1f 60
        E 0 90 3c 60
        E 0 90 48 60
        E 0 90 54 60
        E 0 90 56 60
        e 0 90 60 60
        e 0 90 62 60
        E 80 80 18 00
        E 0 80 1f 00
        E 0 80 3c 00
        E 0 80 48 00
        E 0 80 54 00
        E 0 80 56 00
        e 0 80 60 00
        e 0 80 62 00
        E 400 90 1a 60
        E 0 90 1f 60
        E 0 90 3d 60
        E 0 90 49 60
        E 0 90 55 60
        E 0 90 56 60
        e 0 90 61 60
        e 0 90 62 60
        E 80 80 1a 00
        E 0 80 1f 00
        E 0 80 3d 00
        E 0 80 49 00
        E 0 80 55 00
        E 0 80 56 00
        e 0 80 61 00
        e 0 80 62 00
        E 240 90 1f 60
        e 0 90 62 60
        E 80 80 1f 00
        e 0 80 62 00
        E 80 90 18 60
        E 0 90 1f 60
        E 0 90 48 60
        E 0 90 54 60
        E 0 90 56 60
        e 0 90 60 60
        e 0 90 62 60
        E 80 80 18 00
        E 0 80 1f 00
        E 0 80 48 00
        E 0 80 54 00
        E 0 80 56 00
        e 0 80 60 00
        e 0 80 62 00
        E 400 90 1a 60
        E 0 90 1f 60
        E 0 90 3d 60
        E 0 90 49 60
        E 0 90 55 60
        E 0 90 56 60
        e 0 90 61 60
        e 0 90 62 60
        E 80 80 1a 00
        E 0 80 1f 00
        E 0 80 3d 00
        E 0 80 49 00
        E 0 80 55 00
        E 0 80 56 00
        e 0 80 61 00
        e 0 80 62 00
        E 240 90 1f 60
        e 0 90 62 60
        E 80 80 1f 00
        e 0 80 62 00
        E 80 90 18 60
        E 0 90 1f 60
        E 0 90 3c 60
        E 0 90 48 60
        E 0 90 54 60
        E 0 90 56 60
        e 0 90 60 60
        e 0 90 62 60
        E 80 80 18 00
        E 0 80 1f 00
        E 0 80 3c 00
        E 0 80 48 00
        E 0 80 54 00
        E 0 80 56 00
        e 0 80 60 00
        e 0 80 62 00
        E 400 90 1a 60
        E 0 90 1f 60
        E 0 90 3d 60
        E 0 90 49 60
        E 0 90 55 60
        E 0 90 56 60
        e 0 90 61 60
        e 0 90 62 60
        E 80 80 1a 00
        E 0 80 1f 00
        E 0 80 3d 00
        E 0 80 49 00
        E 0 80 55 00
        E 0 80 56 00
        e 0 80 61 00
        e 0 80 62 00
        E 240 90 1f 60
        e 0 90 62 60
        E 80 80 1f 00
        e 0 80 62 00
        E 80 90 18 60
        E 0 90 1f 60
        E 0 90 48 60
        E 0 90 54 60
        E 0 90 56 60
        e 0 90 60 60
        e 0 90 62 60
        E 80 80 18 00
        E 0 80 1f 00
        E 0 80 48 00
        E 0 80 54 00
        E 0 80 56 00
        e 0 80 60 00
        e 0 80 62 00
        E 400 90 1a 60
        E 0 90 1f 60
        E 0 90 3d 60
        E 0 90 49 60
        E 0 90 55 60
        E 0 90 56 60
        e 0 90 61 60
        e 0 90 62 60
        E 80 80 1a 00
        E 0 80 1f 00
        E 0 80 3d 00
        E 0 80 49 00
        E 0 80 55 00
        E 0 80 56 00
        e 0 80 61 00
        e 0 80 62 00
        E 240 90 1f 60
        e 0 90 62 60
        E 80 80 1f 00
        e 0 80 62 00
        E 80 90 18 60
        E 0 90 1f 60
        E 0 90 3c 60
        E 0 90 48 60
        E 0 90 54 60
        E 0 90 56 60
        e 0 90 60 60
        e 0 90 62 60
        E 80 80 18 00
        E 0 80 1f 00
        E 0 80 3c 00
        E 0 80 48 00
        E 0 80 54 00
        E 0 80 56 00
        e 0 80 60 00
        e 0 80 62 00
        E 1840 90 78 60
        E 0 90 79 60
        E 0 90 7a 60
        E 0 90 7b 60
        E 0 90 7c 60
        E 1920 80 78 00
        E 0 80 79 00
        E 0 80 7a 00
        E 0 80 7b 00
        E 0 80 7c 00
        E 0 90 18 60
        E 0 90 1f 60
        E 0 90 3c 60
        E 0 90 48 60
        E 0 90 54 60
        E 0 90 56 60
        e 0 90 60 60
        e 0 90 62 60
        E 0 90 74 60
        E 80 80 18 00
        E 0 80 1f 00
        E 0 80 3c 00
        E 0 80 48 00
        E 0 80 54 00
        E 0 80 56 00
        e 0 80 60 00
        e 0 80 62 00
        E 400 90 1a 60
        E 0 90 1f 60
        E 0 90 3d 60
        E 0 90 49 60
        E 0 90 55 60
        E 0 90 56 60
        e 0 90 61 60
        e 0 90 62 60
        E 80 80 1a 00
        E 0 80 1f 00
        E 0 80 3d 00
        E 0 80 49 00
        E 0 80 55 00
        E 0 80 56 00
        e 0 80 61 00
        e 0 80 62 00
        E 240 90 1f 60
        e 0 90 62 60
        E 80 80 1f 00
        e 0 80 62 00
        E 80 90 18 60
        E 0 90 1f 60
        E 0 90 48 60
        E 0 90 54 60
        E 0 90 56 60
        e 0 90 60 60
        e 0 90 62 60
        E 80 80 18 00
        E 0 80 1f 00
        E 0 80 48 00
        E 0 80 54 00
        E 0 80 56 00
        e 0 80 60 00
        e 0 80 62 00
        E 400 90 1a 60
        E 0 90 1f 60
        E 0 90 3d 60
        E 0 90 49 60
        E 0 90 55 60
        E 0 90 56 60
        e 0 90 61 60
        e 0 90 62 60
        E 80 80 1a 00
        E 0 80 1f 00
        E 0 80 3d 00
        E 0 80 49 00
        E 0 80 55 00
        E 0 80 56 00
        e 0 80 61 00
        e 0 80 62 00
        E 240 90 1f 60
        e 0 90 62 60
        E 80 80 1f 00
        e 0 80 62 00
        E 80 90 18 60
        E 0 90 1f 60
        E 0 90 3c 60
        E 0 90 48 60
        E 0 90 54 60
        E 0 90 56 60
        e 0 90 60 60
        e 0 90 62 60
        E 80 80 18 00
        E 0 80 1f 00
        E 0 80 3c 00
        E 0 80 48 00
        E 0 80 54 00
        E 0 80 56 00
        e 0 80 60 00
        e 0 80 62 00
        E 400 90 1a 60
        E 0 90 1f 60
        E 0 90 3d 60
        E 0 90 49 60
        E 0 90 55 60
        E 0 90 56 60
        e 0 90 61 60
        e 0 90 62 60
        E 80 80 1a 00
        E 0 80 1f 00
        E 0 80 3d 00
        E 0 80 49 00
        E 0 80 55 00
        E 0 80 56 00
        e 0 80 61 00
        e 0 80 62 00
        E 240 90 1f 60
        e 0 90 62 60
        E 80 80 1f 00
        e 0 80 62 00
        E 80 90 18 60
        E 0 90 1f 60
        E 0 90 48 60
        E 0 90 54 60
        E 0 90 56 60
        e 0 90 60 60
        e 0 90 62 60
        E 80 80 18 00
        E 0 80 1f 00
        E 0 80 48 00
        E 0 80 54 00
        E 0 80 56 00
        e 0 80 60 00
        e 0 80 62 00
        E 400 90 1a 60
        E 0 90 1f 60
        E 0 90 3d 60
        E 0 90 49 60
        E 0 90 55 60
        E 0 90 56 60
        e 0 90 61 60
        e 0 90 62 60
        E 80 80 1a 00
        E 0 80 1f 00
        E 0 80 3d 00
        E 0 80 49 00
        E 0 80 55 00
        E 0 80 56 00
        e 0 80 61 00
        e 0 80 62 00
        E 240 90 1f 60
        e 0 90 62 60
        E 80 80 1f 00
        e 0 80 62 00
        E 80 90 18 60
        E 0 90 1f 60
        E 0 90 3c 60
        E 0 90 48 60
        E 0 90 54 60
        E 0 90 56 60
        e 0 90 60 60
        e 0 90 62 60
        E 80 80 18 00
        E 0 80 1f 00
        E 0 80 3c 00
        E 0 80 48 00
        E 0 80 54 00
        E 0 80 56 00
        e 0 80 60 00
        e 0 80 62 00
        E 40 80 74 00
        E 360 90 1a 60
        E 0 90 1f 60
        E 0 90 3d 60
        E 0 90 49 60
        E 0 90 55 60
        E 0 90 56 60
        e 0 90 61 60
        e 0 90 62 60
        E 80 80 1a 00
        E 0 80 1f 00
        E 0 80 3d 00
        E 0 80 49 00
        E 0 80 55 00
        E 0 80 56 00
        e 0 80 61 00
        e 0 80 62 00
        E 240 90 1f 60
        e 0 90 62 60
        E 80 80 1f 00
        e 0 80 62 00
        E 80 90 18 60
        E 0 90 1f 60
        E 0 90 48 60
        E 0 90 54 60
        E 0 90 56 60
        e 0 90 60 60
        e 0 90 62 60
        E 80 80 18 00
        E 0 80 1f 00
        E 0 80 48 00
        E 0 80 54 00
        E 0 80 56 00
        e 0 80 60 00
        e 0 80 62 00
        E 400 90 1a 60
        E 0 90 1f 60
        E 0 90 3d 60
        E 0 90 49 60
        E 0 90 55 60
        E 0 90 56 60
        e 0 90 61 60
        e 0 90 62 60
        E 80 80 1a 00
        E 0 80 1f 00
        E 0 80 3d 00
        E 0 80 49 00
        E 0 80 55 00
        E 0 80 56 00
        e 0 80 61 00
        e 0 80 62 00
        E 240 90 1f 60
        e 0 90 62 60
        E 80 80 1f 00
        e 0 80 62 00
        E 80 90 18 60
        E 0 90 1f 60
        E 0 90 3c 60
        E 0 90 48 60
        E 0 90 54 60
        E 0 90 56 60
        e 0 90 60 60
        e 0 90 62 60
        E 0 90 78 60
        E 0 90 79 60
        E 0 90 7a 60
        E 0 90 7b 60
        E 0 90 7c 60
        E 80 80 18 00
        E 0 80 1f 00
        E 0 80 3c 00
        E 0 80 48 00
        E 0 80 54 00
        E 0 80 56 00
        e 0 80 60 00
        e 0 80 62 00
        E 400 90 1a 60
        E 0 90 1f 60
        E 0 90 3d 60
        E 0 90 49 60
        E 0 90 55 60
        E 0 90 56 60
        e 0 90 61 60
        e 0 90 62 60
        E 80 80 1a 00
        E 0 80 1f 00
        E 0 80 3d 00
        E 0 80 49 00
        E 0 80 55 00
        E 0 80 56 00
        e 0 80 61 00
        e 0 80 62 00
        E 240 90 1f 60
        e 0 90 62 60
        E 80 80 1f 00
        e 0 80 62 00
        E 80 90 18 60
        E 0 90 1f 60
        E 0 90 48 60
        E 0 90 54 60
        E 0 90 56 60
        e 0 90 60 60
        e 0 90 62 60
        E 80 80 18 00
        E 0 80 1f 00
        E 0 80 48 00
        E 0 80 54 00
        E 0 80 56 00
        e 0 80 60 00
        e 0 80 62 00
        E 400 90 1a 60
        E 0 90 1f 60
        E 0 90 3d 60
        E 0 90 49 60
        E 0 90 55 60
        E 0 90 56 60
        e 0 90 61 60
        e 0 90 62 60
        E 80 80 1a 00
        E 0 80 1f 00
        E 0 80 3d 00
        E 0 80 49 00
        E 0 80 55 00
        E 0 80 56 00
        e 0 80 61 00
        e 0 80 62 00
        E 240 90 1f 60
        e 0 90 62 60
        E 80 80 1f 00
        e 0 80 62 00
        E 80 80 78 00
        E 0 80 79 00
        E 0 80 7a 00
        E 0 80 7b 00
        E 0 80 7c 00
        E 0 90 18 60
        E 0 90 1f 60
        E 0 90 3c 60
        E 0 90 48 60
        E 0 90 54 60
        E 0 90 56 60
        e 0 90 60 60
        e 0 90 62 60
        E 80 80 18 00
        E 0 80 1f 00
        E 0 80 3c 00
        E 0 80 48 00
        E 0 80 54 00
        E 0 80 56 00
        e 0 80 60 00
        e 0 80 62 00
        E 400 90 1a 60
        E 0 90 1f 60
        E 0 90 3d 60
        E 0 90 49 60
        E 0 90 55 60
        E 0 90 56 60
        e 0 90 61 60
        e 0 90 62 60
        E 80 80 1a 00
        E 0 80 1f 00
        E 0 80 3d 00
        E 0 80 49 00
        E 0 80 55 00
        E 0 80 56 00
        e 0 80 61 00
        e 0 80 62 00
        E 240 90 1f 60
        e 0 90 62 60
        E 80 80 1f 00
        e 0 80 62 00
        E 80 90 18 60
        E 0 90 1f 60
        E 0 90 48 60
        E 0 90 54 60
        E 0 90 56 60
        e 0 90 60 60
        e 0 90 62 60
        E 80 80 18 00
        E 0 80 1f 00
        E 0 80 48 00
        E 0 80 54 00
        E 0 80 56 00
        e 0 80 60 00
        e 0 80 62 00
        E 240 90 1f 60
        e 0 90 62 60
        E 80 80 1f 00
        e 0 80 62 00
        E 80 90 1a 60
        E 0 90 1f 60
        E 0 90 3d 60
        E 0 90 49 60
        E 0 90 55 60
        E 0 90 56 60
        e 0 90 61 60
        e 0 90 62 60
        E 80 80 1a 00
        E 0 80 1f 00
        E 0 80 3d 00
        E 0 80 49 00
        E 0 80 55 00
        E 0 80 56 00
        e 0 80 61 00
        e 0 80 62 00
        E 240 90 1f 60
        e 0 90 62 60
        E 80 80 1f 00
        e 0 80 62 00
        E 80 90 18 60
        E 0 90 1f 60
        E 0 90 3c 60
        E 0 90 48 60
        E 0 90 54 60
        E 0 90 56 60
        e 0 90 60 60
        e 0 90 62 60
        E 80 80 18 00
        E 0 80 1f 00
        E 0 80 3c 00
        E 0 80 48 00
        E 0 80 54 00
        E 0 80 56 00
        e 0 80 60 00
        e 0 80 62 00
        E 400 90 1a 60
        E 0 90 1f 60
        E 0 90 3d 60
        E 0 90 49 60
        E 0 90 55 60
        E 0 90 56 60
        e 0 90 61 60
        e 0 90 62 60
        E 80 80 1a 00
        E 0 80 1f 00
        E 0 80 3d 00
        E 0 80 49 00
        E 0 80 55 00
        E 0 80 56 00
        e 0 80 61 00
        e 0 80 62 00
        E 240 90 1f 60
        e 0 90 62 60
        E 80 80 1f 00
        e 0 80 62 00
        E 80 90 18 60
        E 0 90 1f 60
        E 0 90 48 60
        E 0 90 54 60
        E 0 90 56 60
        e 0 90 60 60
        e 0 90 62 60
        E 80 80 18 00
        E 0 80 1f 00
        E 0 80 48 00
        E 0 80 54 00
        E 0 80 56 00
        e 0 80 60 00
        e 0 80 62 00
        E 240 90 1f 60
        e 0 90 62 60
        E 80 80 1f 00
        e 0 80 62 00
        E 80 90 1a 60
        E 0 90 1f 60
        E 0 90 3d 60
        E 0 90 49 60
        E 0 90 55 60
        E 0 90 56 60
        e 0 90 61 60
        e 0 90 62 60
        E 80 80 1a 00
        E 0 80 1f 00
        E 0 80 3d 00
        E 0 80 49 00
        E 0 80 55 00
        E 0 80 56 00
        e 0 80 61 00
        e 0 80 62 00
        E 240 90 1f 60
        e 0 90 62 60
        E 80 80 1f 00
        e 0 80 62 00
        E 80 90 18 60
        E 0 90 1f 60
        E 0 90 3c 60
        E 0 90 48 60
        E 0 90 54 60
        E 0 90 56 60
        e 0 90 60 60
        e 0 90 62 60
        E 80 80 18 00
        E 0 80 1f 00
        E 0 80 3c 00
        E 0 80 48 00
        E 0 80 54 00
        E 0 80 56 00
        e 0 80 60 00
        e 0 80 62 00
        E 400 90 1a 60
        E 0 90 1f 60
        E 0 90 3d 60
        E 0 90 49 60
        E 0 90 55 60
        E 0 90 56 60
        e 0 90 61 60
        e 0 90 62 60
        E 80 80 1a 00
        E 0 80 1f 00
        E 0 80 3d 00
        E 0 80 49 00
        E 0 80 55 00
        E 0 80 56 00
        e 0 80 61 00
        e 0 80 62 00
        E 240 90 1f 60
        e 0 90 62 60
        E 80 80 1f 00
        e 0 80 62 00
        E 80 90 18 60
        E 0 90 1f 60
        E 0 90 48 60
        E 0 90 54 60
        E 0 90 56 60
        e 0 90 60 60
        e 0 90 62 60
        E 80 80 18 00
        E 0 80 1f 00
        E 0 80 48 00
        E 0 80 54 00
        E 0 80 56 00
        e 0 80 60 00
        e 0 80 62 00
        E 240 90 1f 60
        e 0 90 62 60
        E 80 80 1f 00
        e 0 80 62 00
        E 80 90 1a 60
        E 0 90 1f 60
        E 0 90 3d 60
        E 0 90 49 60
        E 0 90 55 60
        E 0 90 56 60
        e 0 90 61 60
        e 0 90 62 60
        E 80 80 1a 00
        E 0 80 1f 00
        E 0 80 3d 00
        E 0 80 49 00
        E 0 80 55 00
        E 0 80 56 00
        e 0 80 61 00
        e 0 80 62 00
        E 240 90 1f 60
        e 0 90 62 60
        E 80 80 1f 00
        e 0 80 62 00
        E 80 90 18 60
        E 0 90 1f 60
        E 0 90 3c 60
        E 0 90 48 60
        E 0 90 54 60
        E 0 90 56 60
        e 0 90 60 60
        e 0 90 62 60
        E 0 90 78 60
        E 0 90 79 60
        E 0 90 7a 60
        E 0 90 7b 60
        E 0 90 7c 60
        E 80 80 18 00
        E 0 80 1f 00
        E 0 80 3c 00
        E 0 80 48 00
        E 0 80 54 00
        E 0 80 56 00
        e 0 80 60 00
        e 0 80 62 00
        E 400 90 18 60
        E 0 90 1f 60
        E 0 90 48 60
        E 0 90 54 60
        E 0 90 56 60
        e 0 90 60 60
        e 0 90 62 60
        E 80 80 18 00
        E 0 80 1f 00
        E 0 80 48 00
        E 0 80 54 00
        E 0 80 56 00
        e 0 80 60 00
        e 0 80 62 00
        E 400 90 18 60
        E 0 90 1f 60
        E 0 90 3c 60
        E 0 90 48 60
        E 0 90 54 60
        E 0 90 56 60
        e 0 90 60 60
        e 0 90 62 60
        E 80 80 18 00
        E 0 80 1f 00
        E 0 80 3c 00
        E 0 80 48 00
        E 0 80 54 00
        E 0 80 56 00
        e 0 80 60 00
        e 0 80 62 00
        E 880 80 78 00
        E 0 80 79 00
        E 0 80 7a 00
        E 0 80 7b 00
        E 0 80 7c 00
        E 0 90 18 60
        E 0 90 1f 60
        E 0 90 3c 60
        E 0 90 48 60
        E 0 90 54 60
        E 0 90 56 60
        e 0 90 60 60
        e 0 90 62 60
        E 80 80 18 00
        E 0 80 1f 00
        E 0 80 3c 00
        E 0 80 48 00
        E 0 80 54 00
        E 0 80 56 00
        e 0 80 60 00
        e 0 80 62 00
        E 400 90 1a 60
        E 0 90 1f 60
        E 0 90 3d 60
        E 0 90 49 60
        E 0 90 55 60
        E 0 90 56 60
        e 0 90 61 60
        e 0 90 62 60
        E 80 80 1a 00
        E 0 80 1f 00
        E 0 80 3d 00
        E 0 80 49 00
        E 0 80 55 00
        E 0 80 56 00
        e 0 80 61 00
        e 0 80 62 00
        E 240 90 1f 60
        e 0 90 62 60
        E 80 80 1f 00
        e 0 80 62 00
        E 80 90 18 60
        E 0 90 1f 60
        E 0 90 48 60
        E 0 90 54 60
        E 0 90 56 60
        e 0 90 60 60
        e 0 90 62 60
        E 80 80 18 00
        E 0 80 1f 00
        E 0 80 48 00
        E 0 80 54 00
        E 0 80 56 00
        e 0 80 60 00
        e 0 80 62 00
        E 400 90 1a 60
        E 0 90 1f 60
        E 0 90 3d 60
        E 0 90 49 60
        E 0 90 55 60
        E 0 90 56 60
        e 0 90 61 60
        e 0 90 62 60
        E 80 80 1a 00
        E 0 80 1f 00
        E 0 80 3d 00
        E 0 80 49 00
        E 0 80 55 00
        E 0 80 56 00
        e 0 80 61 00
        e 0 80 62 00
        E 240 90 1f 60
        e 0 90 62 60
        E 80 80 1f 00
        e 0 80 62 00
        E 80 90 18 60
        E 0 90 1f 60
        E 0 90 3c 60
        E 0 90 48 60
        E 0 90 54 60
        E 0 90 56 60
        e 0 90 60 60
        e 0 90 62 60
        E 80 80 18 00
        E 0 80 1f 00
        E 0 80 3c 00
        E 0 80 48 00
        E 0 80 54 00
        E 0 80 56 00
        e 0 80 60 00
        e 0 80 62 00
        E 400 90 1a 60
        E 0 90 1f 60
        E 0 90 3d 60
        E 0 90 49 60
        E 0 90 55 60
        E 0 90 56 60
        e 0 90 61 60
        e 0 90 62 60
        E 80 80 1a 00
        E 0 80 1f 00
        E 0 80 3d 00
        E 0 80 49 00
        E 0 80 55 00
        E 0 80 56 00
        e 0 80 61 00
        e 0 80 62 00
        E 240 90 1f 60
        e 0 90 62 60
        E 80 80 1f 00
        e 0 80 62 00
        E 80 90 18 60
        E 0 90 1f 60
        E 0 90 48 60
        E 0 90 54 60
        E 0 90 56 60
        e 0 90 60 60
        e 0 90 62 60
        E 80 80 18 00
        E 0 80 1f 00
        E 0 80 48 00
        E 0 80 54 00
        E 0 80 56 00
        e 0 80 60 00
        e 0 80 62 00
        E 400 90 1a 60
        E 0 90 1f 60
        E 0 90 3d 60
        E 0 90 49 60
        E 0 90 55 60
        E 0 90 56 60
        e 0 90 61 60
        e 0 90 62 60
        E 80 80 1a 00
        E 0 80 1f 00
        E 0 80 3d 00
        E 0 80 49 00
        E 0 80 55 00
        E 0 80 56 00
        e 0 80 61 00
        e 0 80 62 00
        E 240 90 1f 60
        e 0 90 62 60
        E 80 80 1f 00
        e 0 80 62 00
        E 80 90 18 60
        E 0 90 1f 60
        E 0 90 3c 60
        E 0 90 48 60
        E 0 90 54 60
        E 0 90 56 60
        e 0 90 60 60
        e 0 90 62 60
        E 80 80 18 00
        E 0 80 1f 00
        E 0 80 3c 00
        E 0 80 48 00
        E 0 80 54 00
        E 0 80 56 00
        e 0 80 60 00
        e 0 80 62 00
        E 400 90 1a 60
        E 0 90 1f 60
        E 0 90 3d 60
        E 0 90 49 60
        E 0 90 55 60
        E 0 90 56 60
        e 0 90 61 60
        e 0 90 62 60
        E 80 80 1a 00
        E 0 80 1f 00
        E 0 80 3d 00
        E 0 80 49 00
        E 0 80 55 00
        E 0 80 56 00
        e 0 80 61 00
        e 0 80 62 00
        E 240 90 1f 60
        e 0 90 62 60
        E 80 80 1f 00
        e 0 80 62 00
        E 80 90 18 60
        E 0 90 1f 60
        E 0 90 48 60
        E 0 90 54 60
        E 0 90 56 60
        e 0 90 60 60
        e 0 90 62 60
        E 80 80 18 00
        E 0 80 1f 00
        E 0 80 48 00
        E 0 80 54 00
        E 0 80 56 00
        e 0 80 60 00
        e 0 80 62 00
        E 400 90 1a 60
        E 0 90 1f 60
        E 0 90 3d 60
        E 0 90 49 60
        E 0 90 55 60
        E 0 90 56 60
        e 0 90 61 60
        e 0 90 62 60
        E 80 80 1a 00
        E 0 80 1f 00
        E 0 80 3d 00
        E 0 80 49 00
        E 0 80 55 00
        E 0 80 56 00
        e 0 80 61 00
        e 0 80 62 00
        E 240 90 1f 60
        e 0 90 62 60
        E 80 80 1f 00
        e 0 80 62 00
        E 80 90 18 60
        E 0 90 1f 60
        E 0 90 3c 60
        E 0 90 48 60
        E 0 90 54 60
        E 0 90 56 60
        e 0 90 60 60
        e 0 90 62 60
        E 0 90 78 60
        E 0 90 79 60
        E 0 90 7a 60
        E 0 90 7b 60
        E 0 90 7c 60
        E 80 80 18 00
        E 0 80 1f 00
        E 0 80 3c 00
        E 0 80 48 00
        E 0 80 54 00
        E 0 80 56 00
        e 0 80 60 00
        e 0 80 62 00
        E 400 90 1a 60
        E 0 90 1f 60
        E 0 90 3d 60
        E 0 90 49 60
        E 0 90 55 60
        E 0 90 56 60
        e 0 90 61 60
        e 0 90 62 60
        E 80 80 1a 00
        E 0 80 1f 00
        E 0 80 3d 00
        E 0 80 49 00
        E 0 80 55 00
        E 0 80 56 00
        e 0 80 61 00
        e 0 80 62 00
        E 240 90 1f 60
        e 0 90 62 60
        E 80 80 1f 00
        e 0 80 62 00
        E 80 90 18 60
        E 0 90 1f 60
        E 0 90 48 60
        E 0 90 54 60
        E 0 90 56 60
        e 0 90 60 60
        e 0 90 62 60
        E 80 80 18 00
        E 0 80 1f 00
        E 0 80 48 00
        E 0 80 54 00
        E 0 80 56 00
        e 0 80 60 00
        e 0 80 62 00
        E 400 90 1a 60
        E 0 90 1f 60
        E 0 90 3d 60
        E 0 90 49 60
        E 0 90 55 60
        E 0 90 56 60
        e 0 90 61 60
        e 0 90 62 60
        E 80 80 1a 00
        E 0 80 1f 00
        E 0 80 3d 00
        E 0 80 49 00
        E 0 80 55 00
        E 0 80 56 00
        e 0 80 61 00
        e 0 80 62 00
        E 240 90 1f 60
        e 0 90 62 60
        E 80 80 1f 00
        e 0 80 62 00
        E 80 80 78 00
        E 0 80 79 00
        E 0 80 7a 00
        E 0 80 7b 00
        E 0 80 7c 00
        E 0 90 18 60
        E 0 90 1f 60
        E 0 90 3c 60
        E 0 90 48 60
        E 0 90 54 60
        E 0 90 56 60
        e 0 90 60 60
        e 0 90 62 60
        E 80 80 18 00
        E 0 80 1f 00
        E 0 80 3c 00
        E 0 80 48 00
        E 0 80 54 00
        E 0 80 56 00
        e 0 80 60 00
        e 0 80 62 00
        E 400 90 1a 60
        E 0 90 1f 60
        E 0 90 3d 60
        E 0 90 49 60
        E 0 90 55 60
        E 0 90 56 60
        e 0 90 61 60
        e 0 90 62 60
        E 80 80 1a 00
        E 0 80 1f 00
        E 0 80 3d 00
        E 0 80 49 00
        E 0 80 55 00
        E 0 80 56 00
        e 0 80 61 00
        e 0 80 62 00
        E 240 90 1f 60
        e 0 90 62 60
        E 80 80 1f 00
        e 0 80 62 00
        E 80 90 18 60
        E 0 90 1f 60
        E 0 90 48 60
        E 0 90 54 60
        E 0 90 56 60
        e 0 90 60 60
        e 0 90 62 60
        E 80 80 18 00
        E 0 80 1f 00
        E 0 80 48 00
        E 0 80 54 00
        E 0 80 56 00
        e 0 80 60 00
        e 0 80 62 00
        E 400 90 1a 60
        E 0 90 1f 60
        E 0 90 3d 60
        E 0 90 49 60
        E 0 90 55 60
        E 0 90 56 60
        e 0 90 61 60
        e 0 90 62 60
        E 80 80 1a 00
        E 0 80 1f 00
        E 0 80 3d 00
        E 0 80 49 00
        E 0 80 55 00
        E 0 80 56 00
        e 0 80 61 00
        e 0 80 62 00
        E 240 90 1f 60
        e 0 90 62 60
        E 80 80 1f 00
        e 0 80 62 00
        E 80 90 18 60
        E 0 90 1f 60
        E 0 90 3c 60
        E 0 90 48 60
        E 0 90 54 60
        E 0 90 56 60
        e 0 90 60 60
        e 0 90 62 60
        E 80 80 18 00
        E 0 80 1f 00
        E 0 80 3c 00
        E 0 80 48 00
        E 0 80 54 00
        E 0 80 56 00
        e 0 80 60 00
        e 0 80 62 00
        E 400 90 1a 60
        E 0 90 1f 60
        E 0 90 3d 60
        E 0 90 49 60
        E 0 90 55 60
        E 0 90 56 60
        e 0 90 61 60
        e 0 90 62 60
        E 80 80 1a 00
        E 0 80 1f 00
        E 0 80 3d 00
        E 0 80 49 00
        E 0 80 55 00
        E 0 80 56 00
        e 0 80 61 00
        e 0 80 62 00
        E 240 90 1f 60
        e 0 90 62 60
        E 80 80 1f 00
        e 0 80 62 00
        E 80 90 18 60
        E 0 90 1f 60
        E 0 90 48 60
        E 0 90 54 60
        E 0 90 56 60
        e 0 90 60 60
        e 0 90 62 60
        E 0 90 74 60
        E 80 80 18 00
        E 0 80 1f 00
        E 0 80 48 00
        E 0 80 54 00
        E 0 80 56 00
        e 0 80 60 00
        e 0 80 62 00
        E 400 90 1a 60
        E 0 90 1f 60
        E 0 90 3d 60
        E 0 90 49 60
        E 0 90 55 60
        E 0 90 56 60
        e 0 90 61 60
        e 0 90 62 60
        E 80 80 1a 00
        E 0 80 1f 00
        E 0 80 3d 00
        E 0 80 49 00
        E 0 80 55 00
        E 0 80 56 00
        e 0 80 61 00
        e 0 80 62 00
        E 240 90 1f 60
        e 0 90 62 60
        E 80 80 1f 00
        e 0 80 62 00
        E 80 90 18 60
        E 0 90 1f 60
        E 0 90 3c 60
        E 0 90 48 60
        E 0 90 54 60
        E 0 90 56 60
        e 0 90 60 60
        e 0 90 62 60
        E 80 80 18 00
        E 0 80 1f 00
        E 0 80 3c 00
        E 0 80 48 00
        E 0 80 54 00
        E 0 80 56 00
        e 0 80 60 00
        e 0 80 62 00
        E 40 80 74 00
        E 1800 90 78 60
        E 0 90 79 60
        E 0 90 7a 60
        E 0 90 7b 60
        E 0 90 7c 60
        E 1920 80 78 00
        E 0 80 79 00
        E 0 80 7a 00
        E 0 80 7b 00
        E 0 80 7c 00
        E 0 90 18 60
        E 0 90 1f 60
        E 0 90 3c 60
        E 0 90 48 60
        E 0 90 54 60
        E 0 90 56 60
        e 0 90 60 60
        e 0 90 62 60
        E 80 80 18 00
        E 0 80 1f 00
        E 0 80 3c 00
        E 0 80 48 00
        E 0 80 54 00
        E 0 80 56 00
        e 0 80 60 00
        e 0 80 62 00
        E 400 90 1a 60
        E 0 90 1f 60
        E 0 90 3d 60
        E 0 90 49 60
        E 0 90 55 60
        E 0 90 56 60
        e 0 90 61 60
        e 0 90 62 60
        E 80 80 1a 00
        E 0 80 1f 00
        E 0 80 3d 00
        E 0 80 49 00
        E 0 80 55 00
        E 0 80 56 00
        e 0 80 61 00
        e 0 80 62 00
        E 240 90 1f 60
        e 0 90 62 60
        E 80 80 1f 00
        e 0 80 62 00
        E 80 90 18 60
        E 0 90 1f 60
        E 0 90 48 60
        E 0 90 54 60
        E 0 90 56 60
        e 0 90 60 60
        e 0 90 62 60
        E 80 80 18 00
        E 0 80 1f 00
        E 0 80 48 00
        E 0 80 54 00
        E 0 80 56 00
        e 0 80 60 00
        e 0 80 62 00
        E 400 90 1a 60
        E 0 90 1f 60
        E 0 90 3d 60
        E 0 90 49 60
        E 0 90 55 60
        E 0 90 56 60
        e 0 90 61 60
        e 0 90 62 60
        E 80 80 1a 00
        E 0 80 1f 00
        E 0 80 3d 00
        E 0 80 49 00
        E 0 80 55 00
        E 0 80 56 00
        e 0 80 61 00
        e 0 80 62 00
        E 240 90 1f 60
        e 0 90 62 60
        E 80 80 1f 00
        e 0 80 62 00
        E 80 90 18 60
        E 0 90 1f 60
        E 0 90 3c 60
        E 0 90 48 60
        E 0 90 54 60
        E 0 90 56 60
        e 0 90 60 60
        e 0 90 62 60
        E 80 80 18 00
        E 0 80 1f 00
        E 0 80 3c 00
        E 0 80 48 00
        E 0 80 54 00
        E 0 80 56 00
        e 0 80 60 00
        e 0 80 62 00
        E 400 90 1a 60
        E 0 90 1f 60
        E 0 90 3d 60
        E 0 90 49 60
        E 0 90 55 60
        E 0 90 56 60
        e 0 90 61 60
        e 0 90 62 60
        E 80 80 1a 00
        E 0 80 1f 00
        E 0 80 3d 00
        E 0 80 49 00
        E 0 80 55 00
        E 0 80 56 00
        e 0 80 61 00
        e 0 80 62 00
        E 240 90 1f 60
        e 0 90 62 60
        E 80 80 1f 00
        e 0 80 62 00
        E 80 90 18 60
        E 0 90 1f 60
        E 0 90 48 60
        E 0 90 54 60
        E 0 90 56 60
        e 0 90 60 60
        e 0 90 62 60
        E 80 80 18 00
        E 0 80 1f 00
        E 0 80 48 00
        E 0 80 54 00
        E 0 80 56 00
        e 0 80 60 00
        e 0 80 62 00
        E 400 90 1a 60
        E 0 90 1f 60
        E 0 90 3d 60
        E 0 90 49 60
        E 0 90 55 60
        E 0 90 56 60
        e 0 90 61 60
        e 0 90 62 60
        E 80 80 1a 00
        E 0 80 1f 00
        E 0 80 3d 00
        E 0 80 49 00
        E 0 80 55 00
        E 0 80 56 00
        e 0 80 61 00
        e 0 80 62 00
        E 240 90 1f 60
        e 0 90 62 60
        E 80 80 1f 00
        e 0 80 62 00
        E 80 90 18 60
        E 0 90 1f 60
        E 0 90 3c 60
        E 0 90 48 60
        E 0 90 54 60
        E 0 90 56 60
        e 0 90 60 60
        e 0 90 62 60
        E 80 80 18 00
        E 0 80 1f 00
        E 0 80 3c 00
        E 0 80 48 00
        E 0 80 54 00
        E 0 80 56 00
        e 0 80 60 00
        e 0 80 62 00
        E 400 90 1a 60
        E 0 90 1f 60
        E 0 90 3d 60
        E 0 90 49 60
        E 0 90 55 60
        E 0 90 56 60
        e 0 90 61 60
        e 0 90 62 60
        E 80 80 1a 00
        E 0 80 1f 00
        E 0 80 3d 00
        E 0 80 49 00
        E 0 80 55 00
        E 0 80 56 00
        e 0 80 61 00
        e 0 80 62 00
        E 240 90 1f 60
        e 0 90 62 60
        E 80 80 1f 00
        e 0 80 62 00
        E 80 90 18 60
        E 0 90 1f 60
        E 0 90 48 60
        E 0 90 54 60
        E 0 90 56 60
        e 0 90 60 60
        e 0 90 62 60
        E 80 80 18 00
        E 0 80 1f 00
        E 0 80 48 00
        E 0 80 54 00
        E 0 80 56 00
        e 0 80 60 00
        e 0 80 62 00
        E 400 90 1a 60
        E 0 90 1f 60
        E 0 90 3d 60
        E 0 90 49 60
        E 0 90 55 60
        E 0 90 56 60
        e 0 90 61 60
        e 0 90 62 60
        E 80 80 1a 00
        E 0 80 1f 00
        E 0 80 3d 00
        E 0 80 49 00
        E 0 80 55 00
        E 0 80 56 00
        e 0 80 61 00
        e 0 80 62 00
        E 240 90 1f 60
        e 0 90 62 60
        E 80 80 1f 00
        e 0 80 62 00
        E 80 90 18 60
        E 0 90 1f 60
        E 0 90 3c 60
        E 0 90 48 60
        E 0 90 54 60
        E 0 90 56 60
        e 0 90 60 60
        e 0 90 62 60
        E 0 90 78 60
        E 0 90 79 60
        E 0 90 7a 60
        E 0 90 7b 60
        E 0 90 7c 60
        E 80 80 18 00
        E 0 80 1f 00
        E 0 80 3c 00
        E 0 80 48 00
        E 0 80 54 00
        E 0 80 56 00
        e 0 80 60 00
        e 0 80 62 00
        E 400 90 1a 60
        E 0 90 1f 60
        E 0 90 3d 60
        E 0 90 49 60
        E 0 90 55 60
        E 0 90 56 60
        e 0 90 61 60
        e 0 90 62 60
        E 80 80 1a 00
        E 0 80 1f 00
        E 0 80 3d 00
        E 0 80 49 00
        E 0 80 55 00
        E 0 80 56 00
        e 0 80 61 00
        e 0 80 62 00
        E 240 90 1f 60
        e 0 90 62 60
        E 80 80 1f 00
        e 0 80 62 00
        E 80 90 18 60
        E 0 90 1f 60
        E 0 90 48 60
        E 0 90 54 60
        E 0 90 56 60
        e 0 90 60 60
        e 0 90 62 60
        E 80 80 18 00
        E 0 80 1f 00
        E 0 80 48 00
        E 0 80 54 00
        E 0 80 56 00
        e 0 80 60 00
        e 0 80 62 00
        E 400 90 1a 60
        E 0 90 1f 60
        E 0 90 3d 60
        E 0 90 49 60
        E 0 90 55 60
        E 0 90 56 60
        e 0 90 61 60
        e 0 90 62 60
        E 80 80 1a 00
        E 0 80 1f 00
        E 0 80 3d 00
        E 0 80 49 00
        E 0 80 55 00
        E 0 80 56 00
        e 0 80 61 00
        e 0 80 62 00
        E 240 90 1f 60
        e 0 90 62 60
        E 80 80 1f 00
        e 0 80 62 00
        E 80 80 78 00
        E 0 80 79 00
        E 0 80 7a 00
        E 0 80 7b 00
        E 0 80 7c 00
        E 0 90 18 60
        E 0 90 1f 60
        E 0 90 3c 60
        E 0 90 48 60
        E 0 90 54 60
        E 0 90 56 60
        e 0 90 60 60
        e 0 90 62 60
        E 80 80 18 00
        E 0 80 1f 00
        E 0 80 3c 00
        E 0 80 48 00
        E 0 80 54 00
        E 0 80 56 00
        e 0 80 60 00
        e 0 80 62 00
        E 400 90 1a 60
        E 0 90 1f 60
        E 0 90 3d 60
        E 0 90 49 60
        E 0 90 55 60
        E 0 90 56 60
        e 0 90 61 60
        e 0 90 62 60
        E 80 80 1a 00
        E 0 80 1f 00
        E 0 80 3d 00
        E 0 80 49 00
        E 0 80 55 00
        E 0 80 56 00
        e 0 80 61 00
        e 0 80 62 00
        E 240 90 1f 60
        e 0 90 62 60
        E 80 80 1f 00
        e 0 80 62 00
        E 80 90 18 60
        E 0 90 1f 60
        E 0 90 48 60
        E 0 90 54 60
        E 0 90 56 60
        e 0 90 60 60
        e 0 90 62 60
        E 80 80 18 00
        E 0 80 1f 00
        E 0 80 48 00
        E 0 80 54 00
        E 0 80 56 00
        e 0 80 60 00
        e 0 80 62 00
        E 240 90 1f 60
        e 0 90 62 60
        E 80 80 1f 00
        e 0 80 62 00
        E 80 90 1a 60
        E 0 90 1f 60
        E 0 90 3d 60
        E 0 90 49 60
        E 0 90 55 60
        E 0 90 56 60
        e 0 90 61 60
        e 0 90 62 60
        E 80 80 1a 00
        E 0 80 1f 00
        E 0 80 3d 00
        E 0 80 49 00
        E 0 80 55 00
        E 0 80 56 00
        e 0 80 61 00
        e 0 80 62 00
        E 240 90 1f 60
        e 0 90 62 60
        E 80 80 1f 00
        e 0 80 62 00
        E 80 90 18 60
        E 0 90 1f 60
        E 0 90 3c 60
        E 0 90 48 60
        E 0 90 54 60
        E 0 90 56 60
        e 0 90 60 60
        e 0 90 62 60
        E 80 80 18 00
        E 0 80 1f 00
        E 0 80 3c 00
        E 0 80 48 00
        E 0 80 54 00
        E 0 80 56 00
        e 0 80 60 00
        e 0 80 62 00
        E 400 90 1a 60
        E 0 90 1f 60
        E 0 90 3d 60
        E 0 90 49 60
        E 0 90 55 60
        E 0 90 56 60
        e 0 90 61 60
        e 0 90 62 60
        E 80 80 1a 00
        E 0 80 1f 00
        E 0 80 3d 00
        E 0 80 49 00
        E 0 80 55 00
        E 0 80 56 00
        e 0 80 61 00
        e 0 80 62 00
        E 240 90 1f 60
        e 0 90 62 60
        E 80 80 1f 00
        e 0 80 62 00
        E 80 90 18 60
        E 0 90 1f 60
        E 0 90 48 60
        E 0 90 54 60
        E 0 90 56 60
        e 0 90 60 60
        e 0 90 62 60
        E 80 80 18 00
        E 0 80 1f 00
        E 0 80 48 00
        E 0 80 54 00
        E 0 80 56 00
        e 0 80 60 00
        e 0 80 62 00
        E 240 90 1f 60
        e 0 90 62 60
        E 80 80 1f 00
        e 0 80 62 00
        E 80 90 1a 60
        E 0 90 1f 60
        E 0 90 3d 60
        E 0 90 49 60
        E 0 90 55 60
        E 0 90 56 60
        e 0 90 61 60
        e 0 90 62 60
        E 80 80 1a 00
        E 0 80 1f 00
        E 0 80 3d 00
        E 0 80 49 00
        E 0 80 55 00
        E 0 80 56 00
        e 0 80 61 00
        e 0 80 62 00
        E 240 90 1f 60
        e 0 90 62 60
        E 80 80 1f 00
        e 0 80 62 00
        E 80 90 18 60
        E 0 90 1f 60
        E 0 90 3c 60
        E 0 90 48 60
        E 0 90 54 60
        E 0 90 56 60
        e 0 90 60 60
        e 0 90 62 60
        E 80 80 18 00
        E 0 80 1f 00
        E 0 80 3c 00
        E 0 80 48 00
        E 0 80 54 00
        E 0 80 56 00
        e 0 80 60 00
        e 0 80 62 00
        E 400 90 1a 60
        E 0 90 1f 60
        E 0 90 3d 60
        E 0 90 49 60
        E 0 90 55 60
        E 0 90 56 60
        e 0 90 61 60
        e 0 90 62 60
        E 80 80 1a 00
        E 0 80 1f 00
        E 0 80 3d 00
        E 0 80 49 00
        E 0 80 55 00
        E 0 80 56 00
        e 0 80 61 00
        e 0 80 62 00
        E 240 90 1f 60
        e 0 90 62 60
        E 80 80 1f 00
        e 0 80 62 00
        E 80 90 18 60
        E 0 90 1f 60
        E 0 90 48 60
        E 0 90 54 60
        E 0 90 56 60
        e 0 90 60 60
        e 0 90 62 60
        E 80 80 18 00
        E 0 80 1f 00
        E 0 80 48 00
        E 0 80 54 00
        E 0 80 56 00
        e 0 80 60 00
        e 0 80 62 00
        E 240 90 1f 60
        e 0 90 62 60
        E 80 80 1f 00
        e 0 80 62 00
        E 80 90 1a 60
        E 0 90 1f 60
        E 0 90 3d 60
        E 0 90 49 60
        E 0 90 55 60
        E 0 90 56 60
        e 0 90 61 60
        e 0 90 62 60
        E 80 80 1a 00
        E 0 80 1f 00
        E 0 80 3d 00
        E 0 80 49 00
        E 0 80 55 00
        E 0 80 56 00
        e 0 80 61 00
        e 0 80 62 00
        E 240 90 1f 60
        e 0 90 62 60
        E 80 80 1f 00
        e 0 80 62 00
        E 80 90 18 60
        E 0 90 1f 60
        E 0 90 3c 60
        E 0 90 48 60
        E 0 90 54 60
        E 0 90 56 60
        e 0 90 60 60
        e 0 90 62 60
        E 80 80 18 00
        E 0 80 1f 00
        E 0 80 3c 00
        E 0 80 48 00
        E 0 80 54 00
        E 0 80 56 00
        e 0 80 60 00
        e 0 80 62 00
        E 400 90 18 60
        E 0 90 1f 60
        E 0 90 48 60
        E 0 90 54 60
        E 0 90 56 60
        e 0 90 60 60
        e 0 90 62 60
        E 80 80 18 00
        E 0 80 1f 00
        E 0 80 48 00
        E 0 80 54 00
        E 0 80 56 00
        e 0 80 60 00
        e 0 80 62 00
        E 400 90 18 60
        E 0 90 1f 60
        E 0 90 3c 60
        E 0 90 48 60
        E 0 90 54 60
        E 0 90 56 60
        e 0 90 60 60
        e 0 90 62 60
        E 80 80 18 00
        E 0 80 1f 00
        E 0 80 3c 00
        E 0 80 48 00
        E 0 80 54 00
        E 0 80 56 00
        e 0 80 60 00
        e 0 80 62 00
        <X 400 0
          /wFbaWRsZV9yZWFsdGltZV0=
        >
        E 2400 b0 7b 00
        GUID {B8FC7787-17C2-431D-BB01-AB05FBF1A843}
        IGNTEMPO 0 120.00000000 4 4
        SRCCOLOR 0
        VELLANE 132 128 60
        COLORMAP "C:\Program Files\REAPER (x64)\Data\color_maps\rockband_guitarbass.png"
        TEXTSTRINGFILE "C:\Program Files\REAPER (x64)\Data\Text_Strings\Text Events List - Instruments.txt"
        CFGEDITVIEW 116669.607460 73.109551 4 14 0 0 0
        CFGEDIT 1 1 0 1 1 0 1 1 1 1 1 0.25000000 -8 -8 1544 872 0 2 1 1 0.00000000 0 1 0 0 0.500000 0 0 1.000000 64
        KEYSNAP 0 3 "102034050607" 0 "Major"
        EVTFILTER 0 -1 -1 -1 -1 0 1 0 0 -1.00000000 -1.00000000
      >
    >
  >
  <TRACK '{20CB6E89-1BE3-4FB8-BBE2-E78046952272}'
    NAME "kick"
    PEAKCOL 16576
    BEAT -1
    AUTOMODE 0
    VOLPAN 1.00000000000000 0.00000000000000 -1.00000000000000 -1.00000000000000 1.00000000000000
    MUTESOLO 0 0 0
    IPHASE 0
    ISBUS 0 0
    BUSCOMP 0 0
    SHOWINMIX 1 0.666700 0.500000 1 0.500000 -1 -1 -1
    FREEMODE 0
    SEL 0
    REC 0 0 0 0 0 0 0
    VU 2
    TRACKHEIGHT 0 0
    INQ 0 0 0 0.5000000000 100 0 0 100
    NCHAN 2
    FX 1
    TRACKID {20CB6E89-1BE3-4FB8-BBE2-E78046952272}
    PERF 0
    MIDIOUT -1
    MAINSEND 1 0
    <ITEM
      POSITION 0.00000000000000
      SNAPOFFS 0.00000000000000
      LENGTH 107.21428571428571
      LOOP 0
      ALLTAKES 0
      SEL 0
      FADEIN 1 0.000000 0.000000 1 0
      FADEOUT 1 0.000000 0.000000 1 0
      MUTE 0
      IGUID {797F391F-6FB8-4E34-8AA9-4D9C623D3D93}
      IID 63
      NAME "kick.wav"
      VOLPAN 1.000000 0.000000 1.000000 -1.000000
      SOFFS 0.00000000000000
      PLAYRATE 1.00000000000000 1 0.00000000000000 -1
      CHANMODE 0
      GUID {24E00CC7-F273-4DD9-9F29-5871CD159A72}
      <SOURCE WAVE
        FILE "wav\kick.wav"
      >
    >
  >
  <TRACK '{18FBB60B-4A21-43CD-8F01-7CC441F1D410}'
    NAME "snare"
    PEAKCOL 16576
    BEAT -1
    AUTOMODE 0
    VOLPAN 1.00000000000000 0.00000000000000 -1.00000000000000 -1.00000000000000 1.00000000000000
    MUTESOLO 0 0 0
    IPHASE 0
    ISBUS 0 0
    BUSCOMP 0 0
    SHOWINMIX 1 0.666700 0.500000 1 0.500000 -1 -1 -1
    FREEMODE 0
    SEL 0
    REC 0 0 0 0 0 0 0
    VU 2
    TRACKHEIGHT 0 0
    INQ 0 0 0 0.5000000000 100 0 0 100
    NCHAN 2
    FX 1
    TRACKID {18FBB60B-4A21-43CD-8F01-7CC441F1D410}
    PERF 0
    MIDIOUT -1
    MAINSEND 1 0
    <ITEM
      POSITION 0.00000000000000
      SNAPOFFS 0.00000000000000
      LENGTH 107.21428571428571
      LOOP 0
      ALLTAKES 0
      SEL 0
      FADEIN 1 0.000000 0.000000 1 0
      FADEOUT 1 0.000000 0.000000 1 0
      MUTE 0
      IGUID {AF8C0D69-5A6E-4286-B013-17ADB109CF70}
      IID 65
      NAME "snare.wav"
      VOLPAN 1.000000 0.000000 1.000000 -1.000000
      SOFFS 0.00000000000000
      PLAYRATE 1.00000000000000 1 0.00000000000000 -1
      CHANMODE 0
      GUID {68B45D7E-0CD7-4121-84AF-BDFD94F2A4E3}
      <SOURCE WAVE
        FILE "wav\snare.wav"
      >
    >
  >
  <TRACK '{2F6D3336-BEA0-450F-8FA4-1379964FED31}'
    NAME "kit"
    PEAKCOL 16576
    BEAT -1
    AUTOMODE 0
    VOLPAN 1.00000000000000 0.00000000000000 -1.00000000000000 -1.00000000000000 1.00000000000000
    MUTESOLO 0 0 0
    IPHASE 0
    ISBUS 2 -1
    BUSCOMP 0 0
    SHOWINMIX 1 0.666700 0.500000 1 0.500000 -1 -1 -1
    FREEMODE 0
    SEL 0
    REC 0 0 0 0 0 0 0
    VU 2
    TRACKHEIGHT 0 0
    INQ 0 0 0 0.5000000000 100 0 0 100
    NCHAN 2
    FX 1
    TRACKID {2F6D3336-BEA0-450F-8FA4-1379964FED31}
    PERF 0
    MIDIOUT -1
    MAINSEND 1 0
    <ITEM
      POSITION 0.00000000000000
      SNAPOFFS 0.00000000000000
      LENGTH 107.21428571428571
      LOOP 0
      ALLTAKES 0
      SEL 0
      FADEIN 1 0.000000 0.000000 1 0
      FADEOUT 1 0.000000 0.000000 1 0
      MUTE 0
      IGUID {71CBAF81-3E3B-479E-A354-F140F8A58FDC}
      IID 64
      NAME "kit.wav"
      VOLPAN 1.000000 0.000000 1.000000 -1.000000
      SOFFS 0.00000000000000
      PLAYRATE 1.00000000000000 1 0.00000000000000 -1
      CHANMODE 0
      GUID {E78D6F6F-FF21-4383-AABB-96D3AFCD9E94}
      <SOURCE WAVE
        FILE "wav\kit.wav"
      >
    >
  >
  <TRACK '{55B6D12E-07CA-4EC8-B4B4-AD330A3409E2}'
    NAME "PART BASS"
    PEAKCOL 16576
    BEAT -1
    AUTOMODE 0
    VOLPAN 1.00000000000000 0.00000000000000 -1.00000000000000 -1.00000000000000 1.00000000000000
    MUTESOLO 0 0 0
    IPHASE 0
    ISBUS 1 1
    BUSCOMP 0 0
    SHOWINMIX 1 0.666700 0.500000 1 0.500000 -1 -1 -1
    FREEMODE 0
    SEL 1
    REC 0 0 0 0 0 0 0
    VU 2
    TRACKHEIGHT 0 0
    INQ 0 0 0 0.5000000000 100 0 0 100
    NCHAN 2
    FX 1
    TRACKID {55B6D12E-07CA-4EC8-B4B4-AD330A3409E2}
    PERF 0
    MIDIOUT -1
    <MIDINOTENAMES
      0 127 "TRILL MARKER"
      0 126 "TREMOLO MARKER"
      0 125 "---"
      0 124 "BRE"
      0 123 "BRE"
      0 122 "BRE"
      0 121 "BRE"
      0 120 "BRE (use all 5)"
      0 119 "----"
      0 116 "OVERDRIVE"
      0 115 "----"
      0 103 "Solo Marker"
      0 102 "Force HOPO Off"
      0 101 "Force HOPO On"
      0 100 "EXPERT Orange"
      0 99 "EXPERT Blue"
      0 98 "EXPERT Yellow"
      0 97 "EXPERT Red"
      0 96 "EXPERT Green"
      0 95 "----"
      0 90 "Force HOPO Off"
      0 89 "Force HOPO On"
      0 88 "HARD Orange"
      0 87 "HARD Blue"
      0 86 "HARD Yellow"
      0 85 "HARD Red"
      0 84 "HARD Green"
      0 77 "----"
      0 76 "MEDIUM Orange"
      0 75 "MEDIUM Blue"
      0 74 "MEDIUM Yellow"
      0 73 "MEDIUM Red"
      0 72 "MEDIUM Green"
      0 65 "----"
      0 64 "EASY Orange"
      0 63 "EASY Blue"
      0 62 "EASY Yellow"
      0 61 "EASY Red"
      0 60 "EASY Green"
      0 59 "Fret 12"
      0 57 "Fret 11"
      0 56 "Fret 10"
      0 55 "Fret 9"
      0 53 "Fret 8"
      0 52 "Fret 7"
      0 50 "Fret 6"
      0 49 "Fret 5"
      0 47 "Fret 4"
      0 45 "Fret 3"
      0 43 "Fret 2"
      0 40 "Fret 1"
    >
    MAINSEND 1 0
    <FXCHAIN
      WNDRECT 368 129 857 559
      SHOW 0
      LASTSEL 0
      DOCKED 0
      BYPASS 0 0
      <VST "VSTi: RBN Preview (RBN)" "rbprev_vst64.dll" 0 ""
        dnBicu5e7f4AAAAAAgAAAAEAAAAAAAAAAgAAAAAAAAAEAAAAAQAAAA==
        AAAQAAAAqgAAABAAAAA=
      >
      FLOATPOS 0 0 0 0
      FXID {3BE472CE-53BA-4EF8-92F5-5A4026554374}
      WAK 0
    >
    <ITEM
      POSITION 0.00000000000000
      SNAPOFFS 0.00000000000000
      LENGTH 107.21429523936526
      LOOP 0
      ALLTAKES 0
      SEL 1
      FADEIN 1 0.000000 0.000000 1 0
      FADEOUT 1 0.000000 0.000000 1 0
      MUTE 0
      IGUID {976C6DD0-D996-4867-8ECF-BC7895399013}
      IID 40
      NAME "PART BASS"
      VOLPAN 1.000000 0.000000 1.000000 -1.000000
      SOFFS 0.00000000000000 0.00000000000000
      PLAYRATE 1.00000000000000 1 0.00000000000000 -1
      CHANMODE 0
      GUID {F5B0E712-C4E0-416E-838B-6C5E1EC2290D}
      <SOURCE MIDI
        HASDATA 1 480 QN
        POOLEDEVTS {46D0E8A0-4799-4A26-A44C-248379498CAF}
        <X 0 0
          /wNQQVJUIEJBU1M=
        >
        <X 3840 0
          /wFbbWVsbG93XQ==
        >
        E 0 90 2d 60
        E 0 90 3c 60
        E 0 90 48 60
        E 0 90 54 60
        E 0 90 60 60
        E 120 80 3c 00
        E 0 80 48 00
        E 0 80 54 00
        E 0 80 60 00
        E 360 80 2d 00
        E 240 90 31 60
        E 240 90 3e 60
        E 0 90 4b 60
        E 0 90 58 60
        E 0 90 64 60
        E 120 80 3e 00
        E 0 80 4b 00
        E 0 80 58 00
        E 0 80 64 00
        E 360 80 31 00
        E 240 90 2d 60
        E 240 90 3c 60
        E 0 90 48 60
        E 0 90 54 60
        E 0 90 60 60
        E 120 80 3c 00
        E 0 80 48 00
        E 0 80 54 00
        E 0 80 60 00
        E 360 90 48 60
        E 0 90 54 60
        E 0 90 60 60
        E 120 80 48 00
        E 0 80 54 00
        E 0 80 60 00
        E 360 90 3d 60
        E 0 90 49 60
        E 0 90 55 60
        E 0 90 61 60
        E 120 80 3d 00
        E 0 80 49 00
        E 0 80 55 00
        E 0 80 61 00
        E 360 90 56 60
        E 0 90 62 60
        E 120 80 56 00
        E 0 80 62 00
        E 360 90 3e 60
        E 0 90 4b 60
        E 0 90 57 60
        E 0 90 63 60
        E 120 80 3e 00
        E 0 80 4b 00
        E 0 80 57 00
        E 0 80 63 00
        E 840 90 3c 60
        E 0 90 48 60
        E 0 90 54 60
        E 0 90 60 60
        E 120 80 3c 00
        E 0 80 48 00
        E 0 80 54 00
        E 0 80 60 00
        E 840 90 3e 60
        E 0 90 4b 60
        E 0 90 57 60
        E 0 90 63 60
        E 120 80 3e 00
        E 0 80 4b 00
        E 0 80 57 00
        E 0 80 63 00
        E 360 90 4b 60
        E 0 90 57 60
        E 0 90 63 60
        E 120 80 4b 00
        E 0 80 57 00
        E 0 80 63 00
        E 360 90 3d 60
        E 0 90 4a 60
        E 0 90 56 60
        E 0 90 62 60
        E 120 80 3d 00
        E 0 80 4a 00
        E 0 80 56 00
        E 0 80 62 00
        E 360 90 55 60
        E 0 90 61 60
        E 120 80 55 00
        E 0 80 61 00
        E 360 90 3c 60
        E 0 90 48 60
        E 0 90 54 60
        E 0 90 60 60
        E 120 80 3c 00
        E 0 80 48 00
        E 0 80 54 00
        E 0 80 60 00
        E 360 80 2d 00
        E 240 90 31 60
        E 240 90 3e 60
        E 0 90 4b 60
        E 0 90 58 60
        E 0 90 64 60
        E 120 80 3e 00
        E 0 80 4b 00
        E 0 80 58 00
        E 0 80 64 00
        E 360 80 31 00
        E 240 90 2d 60
        E 240 90 3c 60
        E 0 90 48 60
        E 0 90 54 60
        E 0 90 60 60
        E 0 90 74 60
        E 120 80 3c 00
        E 0 80 48 00
        E 0 80 54 00
        E 0 80 60 00
        E 360 80 2d 00
        E 240 90 31 60
        E 240 90 3e 60
        E 0 90 4b 60
        E 0 90 58 60
        E 0 90 64 60
        E 120 80 3e 00
        E 0 80 4b 00
        E 0 80 58 00
        E 0 80 64 00
        E 360 80 31 00
        E 240 90 2d 60
        E 240 90 3d 60
        E 0 90 4a 60
        E 0 90 57 60
        E 0 90 63 60
        E 120 80 74 00
        E 0 80 3d 00
        E 0 80 4a 00
        E 0 80 57 00
        E 0 80 63 00
        E 3720 90 3c 60
        E 0 90 48 60
        E 0 90 54 60
        E 0 90 60 60
        E 120 80 3c 00
        E 0 80 48 00
        E 0 80 54 00
        E 0 80 60 00
        E 360 80 2d 00
        E 240 90 31 60
        E 240 90 3e 60
        E 0 90 4b 60
        E 0 90 58 60
        E 0 90 64 60
        E 120 80 3e 00
        E 0 80 4b 00
        E 0 80 58 00
        E 0 80 64 00
        E 360 80 31 00
        E 240 90 2d 60
        E 240 90 3c 60
        E 0 90 48 60
        E 0 90 54 60
        E 0 90 60 60
        E 120 80 3c 00
        E 0 80 48 00
        E 0 80 54 00
        E 0 80 60 00
        E 360 80 2d 00
        E 240 90 31 60
        E 240 90 3e 60
        E 0 90 4b 60
        E 0 90 58 60
        E 0 90 64 60
        E 120 80 3e 00
        E 0 80 4b 00
        E 0 80 58 00
        E 0 80 64 00
        E 360 80 31 00
        E 240 90 2d 60
        E 240 90 3d 60
        E 0 90 4a 60
        E 0 90 57 60
        E 0 90 63 60
        E 120 80 3d 00
        E 0 80 4a 00
        E 0 80 57 00
        E 0 80 63 00
        E 840 90 3c 60
        E 0 90 48 60
        E 0 90 54 60
        E 0 90 60 60
        E 120 80 3c 00
        E 0 80 48 00
        E 0 80 54 00
        E 0 80 60 00
        E 840 90 3d 60
        E 0 90 4a 60
        E 0 90 57 60
        E 0 90 63 60
        E 120 80 3d 00
        E 0 80 4a 00
        E 0 80 57 00
        E 0 80 63 00
        E 840 90 3c 60
        E 0 90 48 60
        E 0 90 54 60
        E 0 90 60 60
        E 120 80 3c 00
        E 0 80 48 00
        E 0 80 54 00
        E 0 80 60 00
        E 840 90 3d 60
        E 0 90 49 60
        E 0 90 55 60
        E 0 90 61 60
        E 120 80 3d 00
        E 0 80 49 00
        E 0 80 55 00
        E 0 80 61 00
        E 360 90 49 60
        E 0 90 55 60
        E 0 90 61 60
        E 120 80 49 00
        E 0 80 55 00
        E 0 80 61 00
        E 360 80 2d 00
        E 0 90 2f 60
        E 0 90 3e 60
        E 0 90 4a 60
        E 0 90 56 60
        E 0 90 62 60
        E 120 80 3e 00
        E 0 80 4a 00
        E 0 80 56 00
        E 0 80 62 00
        E 360 90 56 60
        E 0 90 62 60
        E 120 80 56 00
        E 0 80 62 00
        E 360 80 2f 00
        E 0 90 31 60
        E 0 90 3c 60
        E 0 90 4b 60
        E 0 90 57 60
        E 0 90 63 60
        E 120 80 3c 00
        E 0 80 4b 00
        E 0 80 57 00
        E 0 80 63 00
        E 360 90 4b 60
        E 0 90 57 60
        E 0 90 63 60
        E 120 80 4b 00
        E 0 80 57 00
        E 0 80 63 00
        E 360 80 31 00
        E 0 90 2b 60
        E 0 90 3e 60
        E 0 90 49 60
        E 0 90 58 60
        E 0 90 64 60
        E 120 80 3e 00
        E 0 80 49 00
        E 0 80 58 00
        E 0 80 64 00
        E 360 90 58 60
        E 0 90 64 60
        E 120 80 58 00
        E 0 80 64 00
        E 360 80 2b 00
        E 0 90 31 60
        E 0 90 3d 60
        E 0 90 4a 60
        E 0 90 57 60
        E 0 90 63 60
        E 0 90 74 60
        E 120 80 3d 00
        E 0 80 4a 00
        E 0 80 57 00
        E 0 80 63 00
        E 360 90 4a 60
        E 0 90 57 60
        E 0 90 63 60
        E 120 80 4a 00
        E 0 80 57 00
        E 0 80 63 00
        E 360 80 31 00
        E 0 90 2d 60
        E 0 90 3c 60
        E 0 90 48 60
        E 0 90 54 60
        E 0 90 60 60
        E 120 80 3c 00
        E 0 80 48 00
        E 0 80 54 00
        E 0 80 60 00
        E 360 90 54 60
        E 0 90 60 60
        E 120 80 54 00
        E 0 80 60 00
        E 360 90 3d 60
        E 0 90 4a 60
        E 0 90 56 60
        E 0 90 62 60
        E 120 80 3d 00
        E 0 80 4a 00
        E 0 80 56 00
        E 0 80 62 00
        E 360 90 48 60
        E 0 90 54 60
        E 0 90 60 60
        E 120 80 48 00
        E 0 80 54 00
        E 0 80 60 00
        E 360 90 3d 60
        E 0 90 4a 60
        E 0 90 56 60
        E 0 90 62 60
        E 120 80 74 00
        E 0 80 3d 00
        E 0 80 4a 00
        E 0 80 56 00
        E 0 80 62 00
        E 840 90 3c 60
        E 0 90 48 60
        E 0 90 54 60
        E 0 90 60 60
        E 120 80 3c 00
        E 0 80 48 00
        E 0 80 54 00
        E 0 80 60 00
        E 360 80 2d 00
        E 240 90 31 60
        E 240 90 3e 60
        E 0 90 4b 60
        E 0 90 58 60
        E 0 90 64 60
        E 120 80 3e 00
        E 0 80 4b 00
        E 0 80 58 00
        E 0 80 64 00
        E 360 80 31 00
        E 240 90 2d 60
        E 240 90 3c 60
        E 0 90 48 60
        E 0 90 54 60
        E 0 90 60 60
        E 120 80 3c 00
        E 0 80 48 00
        E 0 80 54 00
        E 0 80 60 00
        E 360 90 48 60
        E 0 90 54 60
        E 0 90 60 60
        E 120 80 48 00
        E 0 80 54 00
        E 0 80 60 00
        E 360 90 3d 60
        E 0 90 49 60
        E 0 90 55 60
        E 0 90 61 60
        E 120 80 3d 00
        E 0 80 49 00
        E 0 80 55 00
        E 0 80 61 00
        E 360 90 56 60
        E 0 90 62 60
        E 120 80 56 00
        E 0 80 62 00
        E 360 90 3e 60
        E 0 90 4b 60
        E 0 90 57 60
        E 0 90 63 60
        E 120 80 3e 00
        E 0 80 4b 00
        E 0 80 57 00
        E 0 80 63 00
        E 840 90 3c 60
        E 0 90 48 60
        E 0 90 54 60
        E 0 90 60 60
        E 120 80 3c 00
        E 0 80 48 00
        E 0 80 54 00
        E 0 80 60 00
        E 840 90 3e 60
        E 0 90 4b 60
        E 0 90 57 60
        E 0 90 63 60
        E 120 80 3e 00
        E 0 80 4b 00
        E 0 80 57 00
        E 0 80 63 00
        E 360 90 4b 60
        E 0 90 57 60
        E 0 90 63 60
        E 120 80 4b 00
        E 0 80 57 00
        E 0 80 63 00
        E 360 90 3d 60
        E 0 90 4a 60
        E 0 90 56 60
        E 0 90 62 60
        E 120 80 3d 00
        E 0 80 4a 00
        E 0 80 56 00
        E 0 80 62 00
        E 360 90 55 60
        E 0 90 61 60
        E 120 80 55 00
        E 0 80 61 00
        E 360 90 3c 60
        E 0 90 48 60
        E 0 90 54 60
        E 0 90 60 60
        E 0 90 74 60
        E 120 80 3c 00
        E 0 80 48 00
        E 0 80 54 00
        E 0 80 60 00
        E 360 80 2d 00
        E 240 90 31 60
        E 240 90 3e 60
        E 0 90 4b 60
        E 0 90 58 60
        E 0 90 64 60
        E 120 80 3e 00
        E 0 80 4b 00
        E 0 80 58 00
        E 0 80 64 00
        E 360 80 31 00
        E 240 90 2d 60
        E 240 90 3c 60
        E 0 90 48 60
        E 0 90 54 60
        E 0 90 60 60
        E 120 80 3c 00
        E 0 80 48 00
        E 0 80 54 00
        E 0 80 60 00
        E 360 80 2d 00
        E 240 90 31 60
        E 240 90 3e 60
        E 0 90 4b 60
        E 0 90 58 60
        E 0 90 64 60
        E 120 80 3e 00
        E 0 80 4b 00
        E 0 80 58 00
        E 0 80 64 00
        E 360 80 31 00
        E 240 90 2d 60
        E 240 90 3d 60
        E 0 90 4a 60
        E 0 90 57 60
        E 0 90 63 60
        E 120 80 74 00
        E 0 80 3d 00
        E 0 80 4a 00
        E 0 80 57 00
        E 0 80 63 00
        E 3720 90 3c 60
        E 0 90 48 60
        E 0 90 54 60
        E 0 90 60 60
        E 120 80 3c 00
        E 0 80 48 00
        E 0 80 54 00
        E 0 80 60 00
        E 360 80 2d 00
        E 240 90 31 60
        E 240 90 3e 60
        E 0 90 4b 60
        E 0 90 58 60
        E 0 90 64 60
        E 120 80 3e 00
        E 0 80 4b 00
        E 0 80 58 00
        E 0 80 64 00
        E 360 80 31 00
        E 240 90 2d 60
        E 240 90 3c 60
        E 0 90 48 60
        E 0 90 54 60
        E 0 90 60 60
        E 120 80 3c 00
        E 0 80 48 00
        E 0 80 54 00
        E 0 80 60 00
        E 360 80 2d 00
        E 240 90 31 60
        E 240 90 3e 60
        E 0 90 4b 60
        E 0 90 58 60
        E 0 90 64 60
        E 120 80 3e 00
        E 0 80 4b 00
        E 0 80 58 00
        E 0 80 64 00
        E 360 80 31 00
        E 240 90 2d 60
        E 240 90 3d 60
        E 0 90 4a 60
        E 0 90 57 60
        E 0 90 63 60
        E 120 80 3d 00
        E 0 80 4a 00
        E 0 80 57 00
        E 0 80 63 00
        E 840 90 3c 60
        E 0 90 48 60
        E 0 90 54 60
        E 0 90 60 60
        E 120 80 3c 00
        E 0 80 48 00
        E 0 80 54 00
        E 0 80 60 00
        E 840 90 3d 60
        E 0 90 4a 60
        E 0 90 57 60
        E 0 90 63 60
        E 120 80 3d 00
        E 0 80 4a 00
        E 0 80 57 00
        E 0 80 63 00
        E 840 90 3c 60
        E 0 90 48 60
        E 0 90 54 60
        E 0 90 60 60
        E 120 80 3c 00
        E 0 80 48 00
        E 0 80 54 00
        E 0 80 60 00
        E 840 90 3d 60
        E 0 90 49 60
        E 0 90 55 60
        E 0 90 61 60
        E 120 80 3d 00
        E 0 80 49 00
        E 0 80 55 00
        E 0 80 61 00
        E 360 90 49 60
        E 0 90 55 60
        E 0 90 61 60
        E 120 80 49 00
        E 0 80 55 00
        E 0 80 61 00
        E 359 80 2d 00
        E 0 90 2f 60
        E 1 90 3e 60
        E 0 90 4a 60
        E 0 90 56 60
        E 0 90 62 60
        E 120 80 3e 00
        E 0 80 4a 00
        E 0 80 56 00
        E 0 80 62 00
        E 360 90 56 60
        E 0 90 62 60
        E 120 80 56 00
        E 0 80 62 00
        E 360 80 2f 00
        E 0 90 31 60
        E 0 90 3c 60
        E 0 90 4b 60
        E 0 90 57 60
        E 0 90 63 60
        E 120 80 3c 00
        E 0 80 4b 00
        E 0 80 57 00
        E 0 80 63 00
        E 360 90 4b 60
        E 0 90 57 60
        E 0 90 63 60
        E 120 80 4b 00
        E 0 80 57 00
        E 0 80 63 00
        E 360 80 31 00
        E 0 90 2b 60
        E 0 90 3e 60
        E 0 90 49 60
        E 0 90 58 60
        E 0 90 64 60
        E 120 80 3e 00
        E 0 80 49 00
        E 0 80 58 00
        E 0 80 64 00
        E 360 90 58 60
        E 0 90 64 60
        E 120 80 58 00
        E 0 80 64 00
        E 360 80 2b 00
        E 0 90 31 60
        E 0 90 3d 60
        E 0 90 4a 60
        E 0 90 57 60
        E 0 90 63 60
        E 0 90 74 60
        E 120 80 3d 00
        E 0 80 4a 00
        E 0 80 57 00
        E 0 80 63 00
        E 360 90 4a 60
        E 0 90 57 60
        E 0 90 63 60
        E 120 80 4a 00
        E 0 80 57 00
        E 0 80 63 00
        E 360 80 31 00
        E 0 90 2d 60
        E 0 90 3c 60
        E 0 90 48 60
        E 0 90 54 60
        E 0 90 60 60
        E 120 80 3c 00
        E 0 80 48 00
        E 0 80 54 00
        E 0 80 60 00
        E 360 90 54 60
        E 0 90 60 60
        E 120 80 54 00
        E 0 80 60 00
        E 360 90 3d 60
        E 0 90 4a 60
        E 0 90 56 60
        E 0 90 62 60
        E 120 80 3d 00
        E 0 80 4a 00
        E 0 80 56 00
        E 0 80 62 00
        E 360 90 48 60
        E 0 90 54 60
        E 0 90 60 60
        E 120 80 48 00
        E 0 80 54 00
        E 0 80 60 00
        E 360 90 3d 60
        E 0 90 4a 60
        E 0 90 56 60
        E 0 90 62 60
        E 120 80 74 00
        E 0 80 3d 00
        E 0 80 4a 00
        E 0 80 56 00
        E 0 80 62 00
        E 840 90 3c 60
        E 0 90 48 60
        E 0 90 54 60
        E 0 90 60 60
        E 120 80 3c 00
        E 0 80 48 00
        E 0 80 54 00
        E 0 80 60 00
        E 360 80 2d 00
        E 240 90 31 60
        E 240 90 3e 60
        E 0 90 4b 60
        E 0 90 58 60
        E 0 90 64 60
        E 120 80 3e 00
        E 0 80 4b 00
        E 0 80 58 00
        E 0 80 64 00
        E 360 80 31 00
        E 240 90 2d 60
        E 240 90 3c 60
        E 0 90 48 60
        E 0 90 54 60
        E 0 90 60 60
        E 120 80 3c 00
        E 0 80 48 00
        E 0 80 54 00
        E 0 80 60 00
        E 360 90 48 60
        E 0 90 54 60
        E 0 90 60 60
        E 120 80 48 00
        E 0 80 54 00
        E 0 80 60 00
        E 360 90 3d 60
        E 0 90 49 60
        E 0 90 55 60
        E 0 90 61 60
        E 120 80 3d 00
        E 0 80 49 00
        E 0 80 55 00
        E 0 80 61 00
        E 360 90 56 60
        E 0 90 62 60
        E 120 80 56 00
        E 0 80 62 00
        E 360 90 3e 60
        E 0 90 4b 60
        E 0 90 57 60
        E 0 90 63 60
        E 120 80 3e 00
        E 0 80 4b 00
        E 0 80 57 00
        E 0 80 63 00
        E 840 90 3c 60
        E 0 90 48 60
        E 0 90 54 60
        E 0 90 60 60
        E 120 80 3c 00
        E 0 80 48 00
        E 0 80 54 00
        E 0 80 60 00
        E 840 90 3e 60
        E 0 90 4b 60
        E 0 90 57 60
        E 0 90 63 60
        E 120 80 3e 00
        E 0 80 4b 00
        E 0 80 57 00
        E 0 80 63 00
        E 360 90 4b 60
        E 0 90 57 60
        E 0 90 63 60
        E 120 80 4b 00
        E 0 80 57 00
        E 0 80 63 00
        E 360 90 3d 60
        E 0 90 4a 60
        E 0 90 56 60
        E 0 90 62 60
        E 120 80 3d 00
        E 0 80 4a 00
        E 0 80 56 00
        E 0 80 62 00
        E 360 90 55 60
        E 0 90 61 60
        E 120 80 55 00
        E 0 80 61 00
        E 360 90 3c 60
        E 0 90 48 60
        E 0 90 54 60
        E 0 90 60 60
        E 120 80 3c 00
        E 0 80 48 00
        E 0 80 54 00
        E 0 80 60 00
        E 360 80 2d 00
        E 240 90 31 60
        E 240 90 3e 60
        E 0 90 4b 60
        E 0 90 58 60
        E 0 90 64 60
        E 120 80 3e 00
        E 0 80 4b 00
        E 0 80 58 00
        E 0 80 64 00
        E 360 80 31 00
        E 240 90 2d 60
        E 240 90 3c 60
        E 0 90 48 60
        E 0 90 54 60
        E 0 90 60 60
        E 120 80 3c 00
        E 0 80 48 00
        E 0 80 54 00
        E 0 80 60 00
        E 360 80 2d 00
        E 240 90 31 60
        E 240 90 3e 60
        E 0 90 4b 60
        E 0 90 58 60
        E 0 90 64 60
        E 120 80 3e 00
        E 0 80 4b 00
        E 0 80 58 00
        E 0 80 64 00
        E 360 80 31 00
        E 240 90 2d 60
        E 240 90 3d 60
        E 0 90 4a 60
        E 0 90 57 60
        E 0 90 63 60
        E 120 80 3d 00
        E 0 80 4a 00
        E 0 80 57 00
        E 0 80 63 00
        E 3720 90 3c 60
        E 0 90 48 60
        E 0 90 54 60
        E 0 90 60 60
        E 120 80 3c 00
        E 0 80 48 00
        E 0 80 54 00
        E 0 80 60 00
        E 360 80 2d 00
        E 240 90 31 60
        E 240 90 3e 60
        E 0 90 4b 60
        E 0 90 58 60
        E 0 90 64 60
        E 120 80 3e 00
        E 0 80 4b 00
        E 0 80 58 00
        E 0 80 64 00
        E 360 80 31 00
        E 240 90 2d 60
        E 240 90 3c 60
        E 0 90 48 60
        E 0 90 54 60
        E 0 90 60 60
        E 120 80 3c 00
        E 0 80 48 00
        E 0 80 54 00
        E 0 80 60 00
        E 360 80 2d 00
        E 240 90 31 60
        E 240 90 3e 60
        E 0 90 4b 60
        E 0 90 58 60
        E 0 90 64 60
        E 120 80 3e 00
        E 0 80 4b 00
        E 0 80 58 00
        E 0 80 64 00
        E 360 80 31 00
        E 240 90 2d 60
        E 240 90 3d 60
        E 0 90 4a 60
        E 0 90 57 60
        E 0 90 63 60
        E 120 80 3d 00
        E 0 80 4a 00
        E 0 80 57 00
        E 0 80 63 00
        E 840 90 3c 60
        E 0 90 48 60
        E 0 90 54 60
        E 0 90 60 60
        E 120 80 3c 00
        E 0 80 48 00
        E 0 80 54 00
        E 0 80 60 00
        E 840 90 3d 60
        E 0 90 4a 60
        E 0 90 57 60
        E 0 90 63 60
        E 120 80 3d 00
        E 0 80 4a 00
        E 0 80 57 00
        E 0 80 63 00
        E 840 90 3c 60
        E 0 90 48 60
        E 0 90 54 60
        E 0 90 60 60
        E 120 80 3c 00
        E 0 80 48 00
        E 0 80 54 00
        E 0 80 60 00
        E 840 90 3d 60
        E 0 90 49 60
        E 0 90 55 60
        E 0 90 61 60
        E 0 90 74 60
        E 120 80 3d 00
        E 0 80 49 00
        E 0 80 55 00
        E 0 80 61 00
        E 360 90 49 60
        E 0 90 55 60
        E 0 90 61 60
        E 120 80 49 00
        E 0 80 55 00
        E 0 80 61 00
        E 359 80 2d 00
        E 0 90 2f 60
        E 1 90 3e 60
        E 0 90 4a 60
        E 0 90 56 60
        E 0 90 62 60
        E 120 80 3e 00
        E 0 80 4a 00
        E 0 80 56 00
        E 0 80 62 00
        E 360 90 56 60
        E 0 90 62 60
        E 120 80 56 00
        E 0 80 62 00
        E 360 80 2f 00
        E 0 90 31 60
        E 0 90 3c 60
        E 0 90 4b 60
        E 0 90 57 60
        E 0 90 63 60
        E 120 80 3c 00
        E 0 80 4b 00
        E 0 80 57 00
        E 0 80 63 00
        E 360 90 4b 60
        E 0 90 57 60
        E 0 90 63 60
        E 120 80 4b 00
        E 0 80 57 00
        E 0 80 63 00
        E 360 80 31 00
        E 0 90 2b 60
        E 0 90 3e 60
        E 0 90 49 60
        E 0 90 58 60
        E 0 90 64 60
        E 120 80 3e 00
        E 0 80 49 00
        E 0 80 58 00
        E 0 80 64 00
        E 360 90 58 60
        E 0 90 64 60
        E 120 80 58 00
        E 0 80 64 00
        E 360 80 74 00
        E 0 80 2b 00
        E 0 90 31 60
        E 0 90 3d 60
        E 0 90 4a 60
        E 0 90 57 60
        E 0 90 63 60
        E 120 80 3d 00
        E 0 80 4a 00
        E 0 80 57 00
        E 0 80 63 00
        E 360 90 4a 60
        E 0 90 57 60
        E 0 90 63 60
        E 120 80 4a 00
        E 0 80 57 00
        E 0 80 63 00
        E 360 80 31 00
        E 0 90 2d 60
        E 0 90 3c 60
        E 0 90 48 60
        E 0 90 54 60
        E 0 90 60 60
        E 120 80 3c 00
        E 0 80 48 00
        E 0 80 54 00
        E 0 80 60 00
        E 360 90 54 60
        E 0 90 60 60
        E 120 80 54 00
        E 0 80 60 00
        E 360 90 3d 60
        E 0 90 4a 60
        E 0 90 56 60
        E 0 90 62 60
        E 120 80 3d 00
        E 0 80 4a 00
        E 0 80 56 00
        E 0 80 62 00
        E 360 90 48 60
        E 0 90 54 60
        E 0 90 60 60
        E 120 80 48 00
        E 0 80 54 00
        E 0 80 60 00
        E 360 90 3d 60
        E 0 90 4a 60
        E 0 90 56 60
        E 0 90 62 60
        E 120 80 3d 00
        E 0 80 4a 00
        E 0 80 56 00
        E 0 80 62 00
        E 840 90 3c 60
        E 0 90 48 60
        E 0 90 54 60
        E 0 90 60 60
        E 120 80 3c 00
        E 0 80 48 00
        E 0 80 54 00
        E 0 80 60 00
        E 360 80 2d 00
        E 240 90 31 60
        E 240 90 3e 60
        E 0 90 4b 60
        E 0 90 58 60
        E 0 90 64 60
        E 120 80 3e 00
        E 0 80 4b 00
        E 0 80 58 00
        E 0 80 64 00
        E 360 80 31 00
        E 240 90 2d 60
        E 240 90 3c 60
        E 0 90 48 60
        E 0 90 54 60
        E 0 90 60 60
        E 120 80 3c 00
        E 0 80 48 00
        E 0 80 54 00
        E 0 80 60 00
        E 360 90 48 60
        E 0 90 54 60
        E 0 90 60 60
        E 120 80 48 00
        E 0 80 54 00
        E 0 80 60 00
        E 360 90 3d 60
        E 0 90 49 60
        E 0 90 55 60
        E 0 90 61 60
        E 120 80 3d 00
        E 0 80 49 00
        E 0 80 55 00
        E 0 80 61 00
        E 360 90 56 60
        E 0 90 62 60
        E 120 80 56 00
        E 0 80 62 00
        E 360 90 3e 60
        E 0 90 4b 60
        E 0 90 57 60
        E 0 90 63 60
        E 120 80 3e 00
        E 0 80 4b 00
        E 0 80 57 00
        E 0 80 63 00
        E 840 90 3c 60
        E 0 90 48 60
        E 0 90 54 60
        E 0 90 60 60
        E 120 80 3c 00
        E 0 80 48 00
        E 0 80 54 00
        E 0 80 60 00
        E 840 90 3e 60
        E 0 90 4b 60
        E 0 90 57 60
        E 0 90 63 60
        E 0 90 74 60
        E 120 80 3e 00
        E 0 80 4b 00
        E 0 80 57 00
        E 0 80 63 00
        E 360 90 4b 60
        E 0 90 57 60
        E 0 90 63 60
        E 120 80 4b 00
        E 0 80 57 00
        E 0 80 63 00
        E 360 90 3d 60
        E 0 90 4a 60
        E 0 90 56 60
        E 0 90 62 60
        E 120 80 3d 00
        E 0 80 4a 00
        E 0 80 56 00
        E 0 80 62 00
        E 360 90 55 60
        E 0 90 61 60
        E 120 80 55 00
        E 0 80 61 00
        E 360 90 3c 60
        E 0 90 48 60
        E 0 90 54 60
        E 0 90 60 60
        E 120 80 74 00
        E 0 80 3c 00
        E 0 80 48 00
        E 0 80 54 00
        E 0 80 60 00
        E 360 80 2d 00
        E 240 90 31 60
        E 240 90 3e 60
        E 0 90 4b 60
        E 0 90 58 60
        E 0 90 64 60
        E 120 80 3e 00
        E 0 80 4b 00
        E 0 80 58 00
        E 0 80 64 00
        E 360 80 31 00
        E 240 90 2d 60
        E 240 90 3c 60
        E 0 90 48 60
        E 0 90 54 60
        E 0 90 60 60
        E 120 80 3c 00
        E 0 80 48 00
        E 0 80 54 00
        E 0 80 60 00
        E 360 80 2d 00
        E 240 90 31 60
        E 240 90 3e 60
        E 0 90 4b 60
        E 0 90 58 60
        E 0 90 64 60
        E 120 80 3e 00
        E 0 80 4b 00
        E 0 80 58 00
        E 0 80 64 00
        E 360 80 31 00
        E 240 90 2d 60
        E 240 90 3d 60
        E 0 90 4a 60
        E 0 90 57 60
        E 0 90 63 60
        E 120 80 3d 00
        E 0 80 4a 00
        E 0 80 57 00
        E 0 80 63 00
        E 3720 90 3c 60
        E 0 90 48 60
        E 0 90 54 60
        E 0 90 60 60
        E 120 80 3c 00
        E 0 80 48 00
        E 0 80 54 00
        E 0 80 60 00
        E 360 80 2d 00
        E 240 90 31 60
        E 240 90 3e 60
        E 0 90 4b 60
        E 0 90 58 60
        E 0 90 64 60
        E 120 80 3e 00
        E 0 80 4b 00
        E 0 80 58 00
        E 0 80 64 00
        E 360 80 31 00
        E 240 90 2d 60
        E 240 90 3c 60
        E 0 90 48 60
        E 0 90 54 60
        E 0 90 60 60
        E 120 80 3c 00
        E 0 80 48 00
        E 0 80 54 00
        E 0 80 60 00
        E 360 80 2d 00
        E 240 90 31 60
        E 240 90 3e 60
        E 0 90 4b 60
        E 0 90 58 60
        E 0 90 64 60
        E 120 80 3e 00
        E 0 80 4b 00
        E 0 80 58 00
        E 0 80 64 00
        E 360 80 31 00
        E 240 90 2d 60
        E 240 90 3d 60
        E 0 90 4a 60
        E 0 90 57 60
        E 0 90 63 60
        E 120 80 3d 00
        E 0 80 4a 00
        E 0 80 57 00
        E 0 80 63 00
        E 840 90 3c 60
        E 0 90 48 60
        E 0 90 54 60
        E 0 90 60 60
        E 120 80 3c 00
        E 0 80 48 00
        E 0 80 54 00
        E 0 80 60 00
        E 840 90 3d 60
        E 0 90 4a 60
        E 0 90 57 60
        E 0 90 63 60
        E 120 80 3d 00
        E 0 80 4a 00
        E 0 80 57 00
        E 0 80 63 00
        E 840 90 3c 60
        E 0 90 48 60
        E 0 90 54 60
        E 0 90 60 60
        E 120 80 3c 00
        E 0 80 48 00
        E 0 80 54 00
        E 0 80 60 00
        E 840 90 3d 60
        E 0 90 49 60
        E 0 90 55 60
        E 0 90 61 60
        E 120 80 3d 00
        E 0 80 49 00
        E 0 80 55 00
        E 0 80 61 00
        E 360 90 49 60
        E 0 90 55 60
        E 0 90 61 60
        E 120 80 49 00
        E 0 80 55 00
        E 0 80 61 00
        E 359 80 2d 00
        E 0 90 2f 60
        E 1 90 3e 60
        E 0 90 4a 60
        E 0 90 56 60
        E 0 90 62 60
        E 120 80 3e 00
        E 0 80 4a 00
        E 0 80 56 00
        E 0 80 62 00
        E 360 90 56 60
        E 0 90 62 60
        E 120 80 56 00
        E 0 80 62 00
        E 360 80 2f 00
        E 0 90 31 60
        E 0 90 3c 60
        E 0 90 4b 60
        E 0 90 57 60
        E 0 90 63 60
        E 120 80 3c 00
        E 0 80 4b 00
        E 0 80 57 00
        E 0 80 63 00
        E 360 90 4b 60
        E 0 90 57 60
        E 0 90 63 60
        E 120 80 4b 00
        E 0 80 57 00
        E 0 80 63 00
        E 360 80 31 00
        E 0 90 2b 60
        E 0 90 3e 60
        E 0 90 49 60
        E 0 90 58 60
        E 0 90 64 60
        E 120 80 3e 00
        E 0 80 49 00
        E 0 80 58 00
        E 0 80 64 00
        E 360 90 58 60
        E 0 90 64 60
        E 120 80 58 00
        E 0 80 64 00
        E 360 80 2b 00
        E 0 90 31 60
        E 0 90 3d 60
        E 0 90 4a 60
        E 0 90 57 60
        E 0 90 63 60
        E 120 80 3d 00
        E 0 80 4a 00
        E 0 80 57 00
        E 0 80 63 00
        E 360 90 4a 60
        E 0 90 57 60
        E 0 90 63 60
        E 120 80 4a 00
        E 0 80 57 00
        E 0 80 63 00
        E 360 80 31 00
        E 0 90 2d 60
        E 0 90 3c 60
        E 0 90 48 60
        E 0 90 54 60
        E 0 90 60 60
        E 120 80 3c 00
        E 0 80 48 00
        E 0 80 54 00
        E 0 80 60 00
        E 360 90 54 60
        E 0 90 60 60
        E 120 80 54 00
        E 0 80 60 00
        E 360 90 3d 60
        E 0 90 4a 60
        E 0 90 56 60
        E 0 90 62 60
        E 120 80 3d 00
        E 0 80 4a 00
        E 0 80 56 00
        E 0 80 62 00
        E 360 90 48 60
        E 0 90 54 60
        E 0 90 60 60
        E 120 80 48 00
        E 0 80 54 00
        E 0 80 60 00
        E 360 90 3d 60
        E 0 90 4a 60
        E 0 90 56 60
        E 0 90 62 60
        E 120 80 3d 00
        E 0 80 4a 00
        E 0 80 56 00
        E 0 80 62 00
        E 360 80 2d 00
        <X 120 0
          /wFbaWRsZV9yZWFsdGltZV0=
        >
        E 2280 b0 7b 00
        GUID {251F979F-2D04-40DE-AA1F-72B53D2CB007}
        IGNTEMPO 0 120.00000000 4 4
        SRCCOLOR 5
        VELLANE 132 128 60
        COLORMAP "C:\Program Files\REAPER (x64)\Data\color_maps\rockband_guitarbass.png"
        CFGEDITVIEW -6432.000000 11.726727 4 12 0 0 0
        CFGEDIT 1 1 0 1 1 0 1 1 1 1 1 0.25000000 -8 -8 1544 872 0 2 1 1 0.00000000 0 1 0 0 0.500000 0 0 1.000000 64
        KEYSNAP 0 3 "102034050607" 0 "Major"
        EVTFILTER 0 -1 -1 -1 -1 0 1 0 0 -1.00000000 -1.00000000
      >
    >
  >
  <TRACK '{75A08CF8-CC90-45A4-BF6F-404C3EE3EC34}'
    NAME "bass"
    PEAKCOL 16576
    BEAT -1
    AUTOMODE 0
    VOLPAN 1.00000000000000 0.00000000000000 -1.00000000000000 -1.00000000000000 1.00000000000000
    MUTESOLO 0 0 0
    IPHASE 0
    ISBUS 2 -1
    BUSCOMP 0 0
    SHOWINMIX 1 0.666700 0.500000 1 0.500000 -1 -1 -1
    FREEMODE 0
    SEL 0
    REC 0 0 0 0 0 0 0
    VU 2
    TRACKHEIGHT 0 0
    INQ 0 0 0 0.5000000000 100 0 0 100
    NCHAN 2
    FX 1
    TRACKID {75A08CF8-CC90-45A4-BF6F-404C3EE3EC34}
    PERF 0
    MIDIOUT -1
    MAINSEND 1 0
    <ITEM
      POSITION 0.00000000000000
      SNAPOFFS 0.00000000000000
      LENGTH 107.21428571428571
      LOOP 0
      ALLTAKES 0
      SEL 0
      FADEIN 1 0.000000 0.000000 1 0
      FADEOUT 1 0.000000 0.000000 1 0
      MUTE 0
      IGUID {9E400FD7-43C6-4BBE-ADFB-3AA0D3209B3E}
      IID 61
      NAME "bass.wav"
      VOLPAN 1.000000 0.000000 1.000000 -1.000000
      SOFFS 0.00000000000000
      PLAYRATE 1.00000000000000 1 0.00000000000000 -1
      CHANMODE 0
      GUID {9B49C2F6-91D2-4C4A-A943-0449A0918B0D}
      <SOURCE WAVE
        FILE "wav\bass.wav"
      >
    >
  >
  <TRACK '{8A808671-AF03-4D76-9F54-7FE1109F65E0}'
    NAME "PART KEYS"
    PEAKCOL 16576
    BEAT -1
    AUTOMODE 0
    VOLPAN 1.00000000000000 0.00000000000000 -1.00000000000000 -1.00000000000000 1.00000000000000
    MUTESOLO 0 0 0
    IPHASE 0
    ISBUS 1 1
    BUSCOMP 0 0
    SHOWINMIX 1 0.666700 0.500000 1 0.500000 -1 -1 -1
    FREEMODE 0
    SEL 0
    REC 0 0 0 0 0 0 0
    VU 2
    TRACKHEIGHT 0 0
    INQ 0 0 0 0.5000000000 100 0 0 100
    NCHAN 2
    FX 1
    TRACKID {8A808671-AF03-4D76-9F54-7FE1109F65E0}
    PERF 0
    MIDIOUT -1
    <MIDINOTENAMES
      0 127 "TRILL MARKER"
      0 125 "---"
      0 124 "BRE"
      0 123 "BRE"
      0 122 "BRE"
      0 121 "BRE"
      0 120 "BRE (use all 5)"
      0 119 "----"
      0 116 "OVERDRIVE"
      0 115 "----"
      0 103 "Solo Marker"
      0 102 "Force HOPO Off"
      0 101 "Force HOPO On"
      0 100 "EXPERT Orange"
      0 99 "EXPERT Blue"
      0 98 "EXPERT Yellow"
      0 97 "EXPERT Red"
      0 96 "EXPERT Green"
      0 95 "----"
      0 90 "Force HOPO Off"
      0 89 "Force HOPO On"
      0 88 "HARD Orange"
      0 87 "HARD Blue"
      0 86 "HARD Yellow"
      0 85 "HARD Red"
      0 84 "HARD Green"
      0 77 "----"
      0 76 "MEDIUM Orange"
      0 75 "MEDIUM Blue"
      0 74 "MEDIUM Yellow"
      0 73 "MEDIUM Red"
      0 72 "MEDIUM Green"
      0 65 "----"
      0 64 "EASY Orange"
      0 63 "EASY Blue"
      0 62 "EASY Yellow"
      0 61 "EASY Red"
      0 60 "EASY Green"
    >
    MAINSEND 1 0
    <FXCHAIN
      WNDRECT 0 43 857 559
      SHOW 0
      LASTSEL 0
      DOCKED 0
      BYPASS 0 0
      <VST "VSTi: RBN Preview (RBN)" "rbprev_vst64.dll" 0 ""
        dnBicu5e7f4AAAAAAgAAAAEAAAAAAAAAAgAAAAAAAAAEAAAAAQAAAA==
        AAAQAAEAqgAAABAAAAA=
      >
      FLOATPOS 0 0 0 0
      FXID {466AFE3D-7AC7-49D9-BD7F-F5F8F6D0A060}
      WAK 0
    >
    <ITEM
      POSITION 0.00000000000000
      SNAPOFFS 0.00000000000000
      LENGTH 107.21429523936526
      LOOP 0
      ALLTAKES 0
      SEL 0
      FADEIN 1 0.000000 0.000000 1 0
      FADEOUT 1 0.000000 0.000000 1 0
      MUTE 0
      IGUID {52EE605A-FED7-4443-ADAB-4B66F2630402}
      IID 41
      NAME "PART KEYS"
      VOLPAN 1.000000 0.000000 1.000000 -1.000000
      SOFFS 0.00000000000000 0.00000000000000
      PLAYRATE 1.00000000000000 1 0.00000000000000 -1
      CHANMODE 0
      GUID {E1BB943B-4EBB-4E61-B8BD-4C96B86D7BC7}
      <SOURCE MIDI
        HASDATA 1 480 QN
        POOLEDEVTS {E7E17626-CD5C-4E4A-B806-65FC27668D95}
        <X 0 0
          /wNQQVJUIEtFWVM=
        >
        <X 3840 0
          /wFbbWVsbG93XQ==
        >
        E 0 90 3c 60
        E 0 90 48 60
        E 0 90 54 60
        E 0 90 60 60
        E 80 80 3c 00
        E 0 80 48 00
        E 0 80 54 00
        E 0 80 60 00
        E 240 90 61 60
        E 80 80 61 00
        E 80 90 3e 60
        E 0 90 4b 60
        E 0 90 58 60
        E 0 90 64 60
        E 80 80 3e 00
        E 0 80 4b 00
        E 0 80 58 00
        E 0 80 64 00
        E 240 90 60 60
        E 80 80 60 00
        E 80 90 55 60
        E 0 90 61 60
        E 80 80 55 00
        E 0 80 61 00
        E 240 90 3e 60
        E 0 90 4b 60
        E 0 90 58 60
        E 0 90 64 60
        E 80 80 3e 00
        E 0 80 4b 00
        E 0 80 58 00
        E 0 80 64 00
        E 80 90 60 60
        E 80 80 60 00
        E 240 90 61 60
        E 80 80 61 00
        E 80 90 3e 60
        E 0 90 4b 60
        E 0 90 58 60
        E 0 90 64 60
        E 80 80 3e 00
        E 0 80 4b 00
        E 0 80 58 00
        E 0 80 64 00
        E 240 90 60 60
        E 80 80 60 00
        E 80 90 49 60
        E 0 90 55 60
        E 0 90 61 60
        E 80 80 49 00
        E 0 80 55 00
        E 0 80 61 00
        E 240 90 64 60
        E 80 80 64 00
        E 80 90 3d 60
        E 0 90 4b 60
        E 0 90 57 60
        E 0 90 63 60
        E 80 80 3d 00
        E 0 80 4b 00
        E 0 80 57 00
        E 0 80 63 00
        E 240 90 63 60
        E 80 80 63 00
        E 80 90 55 60
        E 0 90 61 60
        E 80 80 55 00
        E 0 80 61 00
        E 240 90 62 60
        E 80 80 62 00
        E 80 90 3c 60
        E 0 90 48 60
        E 0 90 54 60
        E 0 90 60 60
        E 80 80 3c 00
        E 0 80 48 00
        E 0 80 54 00
        E 0 80 60 00
        E 400 90 54 60
        E 0 90 60 60
        E 80 80 54 00
        E 0 80 60 00
        E 240 90 61 60
        E 80 80 61 00
        E 80 90 3d 60
        E 0 90 4a 60
        E 0 90 56 60
        E 0 90 62 60
        E 80 80 3d 00
        E 0 80 4a 00
        E 0 80 56 00
        E 0 80 62 00
        E 240 90 63 60
        E 80 80 63 00
        E 80 90 3e 60
        E 0 90 4b 60
        E 0 90 58 60
        E 0 90 64 60
        E 0 90 74 60
        E 80 80 3e 00
        E 0 80 4b 00
        E 0 80 58 00
        E 0 80 64 00
        E 400 90 4a 60
        E 0 90 57 60
        E 0 90 63 60
        E 80 80 4a 00
        E 0 80 57 00
        E 0 80 63 00
        E 400 90 56 60
        E 0 90 62 60
        E 80 80 56 00
        E 0 80 62 00
        E 400 90 3c 60
        E 0 90 49 60
        E 0 90 55 60
        E 0 90 61 60
        E 80 80 3c 00
        E 0 80 49 00
        E 0 80 55 00
        E 0 80 61 00
        E 240 90 62 60
        E 80 80 62 00
        E 80 90 48 60
        E 0 90 54 60
        E 0 90 60 60
        E 80 80 48 00
        E 0 80 54 00
        E 0 80 60 00
        E 160 80 74 00
        E 560 90 64 60
        E 80 80 64 00
        E 80 90 3e 60
        E 0 90 4b 60
        E 0 90 57 60
        E 0 90 63 60
        E 80 80 3e 00
        E 0 80 4b 00
        E 0 80 57 00
        E 0 80 63 00
        E 240 90 64 60
        E 80 80 64 00
        E 80 90 3d 60
        E 0 90 4a 60
        E 0 90 56 60
        E 0 90 62 60
        E 80 80 3d 00
        E 0 80 4a 00
        E 0 80 56 00
        E 0 80 62 00
        E 240 90 55 60
        E 0 90 61 60
        E 80 80 55 00
        E 0 80 61 00
        E 400 90 64 60
        E 80 80 64 00
        E 80 90 3e 60
        E 0 90 4b 60
        E 0 90 57 60
        E 0 90 63 60
        E 80 80 3e 00
        E 0 80 4b 00
        E 0 80 57 00
        E 0 80 63 00
        E 240 90 64 60
        E 80 80 64 00
        E 80 90 4a 60
        E 0 90 56 60
        E 0 90 62 60
        E 80 80 4a 00
        E 0 80 56 00
        E 0 80 62 00
        E 240 90 3d 60
        E 0 90 55 60
        E 0 90 61 60
        E 80 80 3d 00
        E 0 80 55 00
        E 0 80 61 00
        E 400 90 60 60
        E 80 80 60 00
        E 80 90 49 60
        E 0 90 55 60
        E 0 90 61 60
        E 80 80 49 00
        E 0 80 55 00
        E 0 80 61 00
        E 240 90 62 60
        E 80 80 62 00
        E 80 90 3e 60
        E 0 90 4a 60
        E 0 90 57 60
        E 0 90 63 60
        E 80 80 3e 00
        E 0 80 4a 00
        E 0 80 57 00
        E 0 80 63 00
        E 400 90 4b 60
        E 0 90 58 60
        E 0 90 64 60
        E 80 80 4b 00
        E 0 80 58 00
        E 0 80 64 00
        E 400 90 3c 60
        E 0 90 49 60
        E 0 90 56 60
        E 0 90 62 60
        E 80 80 3c 00
        E 0 80 49 00
        E 0 80 56 00
        E 0 80 62 00
        E 400 90 4a 60
        E 0 90 57 60
        E 0 90 63 60
        E 80 80 4a 00
        E 0 80 57 00
        E 0 80 63 00
        E 400 90 3d 60
        E 0 90 49 60
        E 0 90 55 60
        E 0 90 61 60
        E 80 80 3d 00
        E 0 80 49 00
        E 0 80 55 00
        E 0 80 61 00
        E 240 90 62 60
        E 80 80 62 00
        E 80 90 49 60
        E 0 90 55 60
        E 0 90 61 60
        E 80 80 49 00
        E 0 80 55 00
        E 0 80 61 00
        E 240 90 62 60
        E 80 80 62 00
        E 80 90 3c 60
        E 0 90 48 60
        E 0 90 54 60
        E 0 90 60 60
        E 80 80 3c 00
        E 0 80 48 00
        E 280 80 54 00
        E 0 80 60 00
        E 120 90 49 60
        E 0 90 55 60
        E 0 90 61 60
        E 80 80 49 00
        E 280 80 55 00
        E 0 80 61 00
        E 120 90 3c 60
        E 0 90 48 60
        E 0 90 55 60
        E 0 90 61 60
        E 80 80 3c 00
        E 0 80 48 00
        E 0 80 55 00
        E 0 80 61 00
        E 240 90 60 60
        E 80 80 60 00
        E 80 90 49 60
        E 0 90 55 60
        E 0 90 61 60
        E 80 80 49 00
        E 0 80 55 00
        E 0 80 61 00
        E 240 90 60 60
        E 80 80 60 00
        E 80 90 3d 60
        E 0 90 56 60
        E 0 90 62 60
        E 80 80 3d 00
        E 0 80 56 00
        E 0 80 62 00
        E 240 90 60 60
        E 80 80 60 00
        E 80 90 3e 60
        E 0 90 4b 60
        E 0 90 58 60
        E 0 90 64 60
        E 80 80 3e 00
        E 0 80 4b 00
        E 0 80 58 00
        E 0 80 64 00
        E 400 90 4a 60
        E 0 90 57 60
        E 0 90 63 60
        E 80 80 4a 00
        E 0 80 57 00
        E 0 80 63 00
        E 240 90 60 60
        E 80 80 60 00
        E 80 90 56 60
        E 0 90 62 60
        E 80 80 56 00
        E 0 80 62 00
        E 240 90 60 60
        E 80 80 60 00
        E 80 90 3c 60
        E 0 90 49 60
        E 0 90 55 60
        E 0 90 61 60
        E 80 80 3c 00
        E 0 80 49 00
        E 0 80 55 00
        E 0 80 61 00
        E 240 90 62 60
        E 80 80 62 00
        E 80 90 4b 60
        E 0 90 57 60
        E 0 90 63 60
        E 80 80 4b 00
        E 0 80 57 00
        E 0 80 63 00
        E 240 90 60 60
        E 80 80 60 00
        E 80 90 3c 60
        E 0 90 49 60
        E 0 90 55 60
        E 0 90 61 60
        E 80 80 3c 00
        E 0 80 49 00
        E 0 80 55 00
        E 0 80 61 00
        E 400 90 55 60
        E 0 90 61 60
        E 80 80 55 00
        E 0 80 61 00
        E 240 90 60 60
        E 80 80 60 00
        E 80 90 3d 60
        E 0 90 4a 60
        E 0 90 56 60
        E 0 90 62 60
        E 80 80 3d 00
        E 0 80 4a 00
        E 0 80 56 00
        E 0 80 62 00
        E 240 90 61 60
        E 80 80 61 00
        E 80 90 3e 60
        E 0 90 4b 60
        E 0 90 58 60
        E 0 90 64 60
        E 80 80 3e 00
        E 0 80 4b 00
        E 0 80 58 00
        E 0 80 64 00
        E 400 90 3d 60
        E 0 90 4a 60
        E 0 90 57 60
        E 0 90 63 60
        E 80 80 3d 00
        E 0 80 4a 00
        E 0 80 57 00
        E 0 80 63 00
        E 400 90 56 60
        E 0 90 62 60
        E 80 80 56 00
        E 0 80 62 00
        E 400 90 3c 60
        E 0 90 49 60
        E 0 90 55 60
        E 0 90 61 60
        E 80 80 3c 00
        E 0 80 49 00
        E 0 80 55 00
        E 0 80 61 00
        E 400 90 48 60
        E 0 90 54 60
        E 0 90 60 60
        E 80 80 48 00
        E 0 80 54 00
        E 0 80 60 00
        E 400 90 3d 60
        E 0 90 4a 60
        E 0 90 56 60
        E 0 90 62 60
        E 0 90 74 60
        E 80 80 4a 00
        E 40 80 3d 00
        E 240 80 56 00
        E 0 80 62 00
        E 120 90 4a 60
        E 0 90 56 60
        E 0 90 62 60
        E 80 80 4a 00
        E 280 80 56 00
        E 0 80 62 00
        E 120 90 3e 60
        E 0 90 4b 60
        E 0 90 57 60
        E 0 90 63 60
        E 80 80 4b 00
        E 40 80 3e 00
        E 240 80 57 00
        E 0 80 63 00
        E 120 90 4a 60
        E 0 90 56 60
        E 0 90 62 60
        E 80 80 4a 00
        E 280 80 56 00
        E 0 80 62 00
        E 120 80 74 00
        E 0 90 3c 60
        E 0 90 49 60
        E 0 90 55 60
        E 0 90 61 60
        E 80 80 3c 00
        E 0 80 49 00
        E 0 80 55 00
        E 0 80 61 00
        E 240 90 60 60
        E 80 80 60 00
        E 80 90 49 60
        E 0 90 55 60
        E 0 90 61 60
        E 80 80 49 00
        E 0 80 55 00
        E 0 80 61 00
        E 240 90 3e 60
        E 0 90 4a 60
        E 0 90 57 60
        E 0 90 63 60
        E 80 80 3e 00
        E 0 80 4a 00
        E 0 80 57 00
        E 0 80 63 00
        E 400 90 62 60
        E 80 80 62 00
        E 80 90 49 60
        E 0 90 55 60
        E 0 90 61 60
        E 80 80 49 00
        E 0 80 55 00
        E 0 80 61 00
        E 400 90 3c 60
        E 0 90 48 60
        E 0 90 54 60
        E 0 90 60 60
        E 80 80 3c 00
        E 0 80 48 00
        E 0 80 54 00
        E 0 80 60 00
        E 400 90 48 60
        E 0 90 54 60
        E 0 90 60 60
        E 80 80 48 00
        E 0 80 54 00
        E 0 80 60 00
        E 400 90 3d 60
        E 0 90 4b 60
        E 0 90 58 60
        E 0 90 64 60
        E 80 80 3d 00
        E 0 80 4b 00
        E 0 80 58 00
        E 0 80 64 00
        E 240 90 63 60
        E 80 80 63 00
        E 80 90 56 60
        E 0 90 62 60
        E 80 80 56 00
        E 0 80 62 00
        E 400 90 3c 60
        E 0 90 49 60
        E 0 90 55 60
        E 0 90 61 60
        E 80 80 3c 00
        E 0 80 49 00
        E 0 80 55 00
        E 0 80 61 00
        E 400 90 48 60
        E 0 90 54 60
        E 0 90 60 60
        E 80 80 48 00
        E 0 80 54 00
        E 0 80 60 00
        E 400 90 3c 60
        E 0 90 49 60
        E 0 90 55 60
        E 0 90 61 60
        E 80 80 3c 00
        E 0 80 49 00
        E 0 80 55 00
        E 0 80 61 00
        E 880 90 3c 60
        E 0 90 48 60
        E 0 90 54 60
        E 0 90 60 60
        E 80 80 3c 00
        E 0 80 48 00
        E 0 80 54 00
        E 0 80 60 00
        E 240 90 61 60
        E 80 80 61 00
        E 80 90 3e 60
        E 0 90 4b 60
        E 0 90 58 60
        E 0 90 64 60
        E 80 80 3e 00
        E 0 80 4b 00
        E 0 80 58 00
        E 0 80 64 00
        E 240 90 60 60
        E 80 80 60 00
        E 80 90 55 60
        E 0 90 61 60
        E 80 80 55 00
        E 0 80 61 00
        E 240 90 3e 60
        E 0 90 4b 60
        E 0 90 58 60
        E 0 90 64 60
        E 80 80 3e 00
        E 0 80 4b 00
        E 0 80 58 00
        E 0 80 64 00
        E 80 90 60 60
        E 80 80 60 00
        E 240 90 61 60
        E 80 80 61 00
        E 80 90 3e 60
        E 0 90 4b 60
        E 0 90 58 60
        E 0 90 64 60
        E 80 80 3e 00
        E 0 80 4b 00
        E 0 80 58 00
        E 0 80 64 00
        E 240 90 60 60
        E 80 80 60 00
        E 80 90 49 60
        E 0 90 55 60
        E 0 90 61 60
        E 80 80 49 00
        E 0 80 55 00
        E 0 80 61 00
        E 240 90 64 60
        E 80 80 64 00
        E 80 90 3d 60
        E 0 90 4b 60
        E 0 90 57 60
        E 0 90 63 60
        E 80 80 3d 00
        E 0 80 4b 00
        E 0 80 57 00
        E 0 80 63 00
        E 240 90 63 60
        E 80 80 63 00
        E 80 90 55 60
        E 0 90 61 60
        E 80 80 55 00
        E 0 80 61 00
        E 240 90 62 60
        E 80 80 62 00
        E 80 90 3c 60
        E 0 90 48 60
        E 0 90 54 60
        E 0 90 60 60
        E 80 80 3c 00
        E 0 80 48 00
        E 0 80 54 00
        E 0 80 60 00
        E 400 90 54 60
        E 0 90 60 60
        E 80 80 54 00
        E 0 80 60 00
        E 240 90 61 60
        E 80 80 61 00
        E 80 90 3d 60
        E 0 90 4a 60
        E 0 90 56 60
        E 0 90 62 60
        E 80 80 3d 00
        E 0 80 4a 00
        E 0 80 56 00
        E 0 80 62 00
        E 240 90 63 60
        E 80 80 63 00
        E 80 90 3e 60
        E 0 90 4b 60
        E 0 90 58 60
        E 0 90 64 60
        E 80 80 3e 00
        E 0 80 4b 00
        E 0 80 58 00
        E 0 80 64 00
        E 400 90 4a 60
        E 0 90 57 60
        E 0 90 63 60
        E 80 80 4a 00
        E 0 80 57 00
        E 0 80 63 00
        E 400 90 56 60
        E 0 90 62 60
        E 80 80 56 00
        E 0 80 62 00
        E 400 90 3c 60
        E 0 90 49 60
        E 0 90 55 60
        E 0 90 61 60
        E 80 80 3c 00
        E 0 80 49 00
        E 0 80 55 00
        E 0 80 61 00
        E 240 90 62 60
        E 80 80 62 00
        E 80 90 48 60
        E 0 90 54 60
        E 0 90 60 60
        E 80 80 48 00
        E 0 80 54 00
        E 0 80 60 00
        E 400 90 74 60
        E 320 90 64 60
        E 80 80 64 00
        E 80 90 3e 60
        E 0 90 4b 60
        E 0 90 57 60
        E 0 90 63 60
        E 80 80 3e 00
        E 0 80 4b 00
        E 0 80 57 00
        E 0 80 63 00
        E 240 90 64 60
        E 80 80 64 00
        E 80 90 3d 60
        E 0 90 4a 60
        E 0 90 56 60
        E 0 90 62 60
        E 80 80 3d 00
        E 0 80 4a 00
        E 0 80 56 00
        E 0 80 62 00
        E 240 90 55 60
        E 0 90 61 60
        E 80 80 55 00
        E 0 80 61 00
        E 400 90 64 60
        E 80 80 64 00
        E 80 90 3e 60
        E 0 90 4b 60
        E 0 90 57 60
        E 0 90 63 60
        E 80 80 3e 00
        E 0 80 4b 00
        E 0 80 57 00
        E 0 80 63 00
        E 240 90 64 60
        E 80 80 64 00
        E 80 90 4a 60
        E 0 90 56 60
        E 0 90 62 60
        E 80 80 4a 00
        E 0 80 56 00
        E 0 80 62 00
        E 240 90 3d 60
        E 0 90 55 60
        E 0 90 61 60
        E 80 80 3d 00
        E 0 80 55 00
        E 0 80 61 00
        E 400 90 60 60
        E 80 80 60 00
        E 80 90 49 60
        E 0 90 55 60
        E 0 90 61 60
        E 80 80 49 00
        E 0 80 55 00
        E 0 80 61 00
        E 240 90 62 60
        E 80 80 62 00
        E 80 90 3e 60
        E 0 90 4a 60
        E 0 90 57 60
        E 0 90 63 60
        E 80 80 3e 00
        E 0 80 4a 00
        E 0 80 57 00
        E 0 80 63 00
        E 40 80 74 00
        E 360 90 4b 60
        E 0 90 58 60
        E 0 90 64 60
        E 80 80 4b 00
        E 0 80 58 00
        E 0 80 64 00
        E 400 90 3c 60
        E 0 90 49 60
        E 0 90 56 60
        E 0 90 62 60
        E 80 80 3c 00
        E 0 80 49 00
        E 0 80 56 00
        E 0 80 62 00
        E 400 90 4a 60
        E 0 90 57 60
        E 0 90 63 60
        E 80 80 4a 00
        E 0 80 57 00
        E 0 80 63 00
        E 400 90 3d 60
        E 0 90 49 60
        E 0 90 55 60
        E 0 90 61 60
        E 80 80 3d 00
        E 0 80 49 00
        E 0 80 55 00
        E 0 80 61 00
        E 240 90 62 60
        E 80 80 62 00
        E 80 90 49 60
        E 0 90 55 60
        E 0 90 61 60
        E 80 80 49 00
        E 0 80 55 00
        E 0 80 61 00
        E 240 90 62 60
        E 80 80 62 00
        E 80 90 3c 60
        E 0 90 48 60
        E 0 90 54 60
        E 0 90 60 60
        E 80 80 3c 00
        E 0 80 48 00
        E 280 80 54 00
        E 0 80 60 00
        E 120 90 49 60
        E 0 90 55 60
        E 0 90 61 60
        E 80 80 49 00
        E 280 80 55 00
        E 0 80 61 00
        E 120 90 3c 60
        E 0 90 48 60
        E 0 90 55 60
        E 0 90 61 60
        E 80 80 3c 00
        E 0 80 48 00
        E 0 80 55 00
        E 0 80 61 00
        E 240 90 60 60
        E 80 80 60 00
        E 80 90 49 60
        E 0 90 55 60
        E 0 90 61 60
        E 80 80 49 00
        E 0 80 55 00
        E 0 80 61 00
        E 240 90 60 60
        E 80 80 60 00
        E 80 90 3d 60
        E 0 90 56 60
        E 0 90 62 60
        E 80 80 3d 00
        E 0 80 56 00
        E 0 80 62 00
        E 240 90 60 60
        E 80 80 60 00
        E 80 90 3e 60
        E 0 90 4b 60
        E 0 90 58 60
        E 0 90 64 60
        E 80 80 3e 00
        E 0 80 4b 00
        E 0 80 58 00
        E 0 80 64 00
        E 400 90 4a 60
        E 0 90 57 60
        E 0 90 63 60
        E 0 90 74 60
        E 80 80 4a 00
        E 0 80 57 00
        E 0 80 63 00
        E 240 90 60 60
        E 80 80 60 00
        E 80 90 56 60
        E 0 90 62 60
        E 80 80 56 00
        E 0 80 62 00
        E 240 90 60 60
        E 80 80 60 00
        E 80 90 3c 60
        E 0 90 49 60
        E 0 90 55 60
        E 0 90 61 60
        E 80 80 3c 00
        E 0 80 49 00
        E 0 80 55 00
        E 0 80 61 00
        E 240 90 62 60
        E 80 80 62 00
        E 80 90 4b 60
        E 0 90 57 60
        E 0 90 63 60
        E 80 80 4b 00
        E 0 80 57 00
        E 0 80 63 00
        E 240 90 60 60
        E 80 80 60 00
        E 80 80 74 00
        E 0 90 3c 60
        E 0 90 49 60
        E 0 90 55 60
        E 0 90 61 60
        E 80 80 3c 00
        E 0 80 49 00
        E 0 80 55 00
        E 0 80 61 00
        E 400 90 55 60
        E 0 90 61 60
        E 80 80 55 00
        E 0 80 61 00
        E 240 90 60 60
        E 80 80 60 00
        E 80 90 3d 60
        E 0 90 4a 60
        E 0 90 56 60
        E 0 90 62 60
        E 80 80 3d 00
        E 0 80 4a 00
        E 0 80 56 00
        E 0 80 62 00
        E 240 90 61 60
        E 80 80 61 00
        E 80 90 3e 60
        E 0 90 4b 60
        E 0 90 58 60
        E 0 90 64 60
        E 80 80 3e 00
        E 0 80 4b 00
        E 0 80 58 00
        E 0 80 64 00
        E 400 90 3d 60
        E 0 90 4a 60
        E 0 90 57 60
        E 0 90 63 60
        E 80 80 3d 00
        E 0 80 4a 00
        E 0 80 57 00
        E 0 80 63 00
        E 400 90 56 60
        E 0 90 62 60
        E 80 80 56 00
        E 0 80 62 00
        E 400 90 3c 60
        E 0 90 49 60
        E 0 90 55 60
        E 0 90 61 60
        E 80 80 3c 00
        E 0 80 49 00
        E 0 80 55 00
        E 0 80 61 00
        E 400 90 48 60
        E 0 90 54 60
        E 0 90 60 60
        E 80 80 48 00
        E 0 80 54 00
        E 0 80 60 00
        E 400 90 3d 60
        E 0 90 4a 60
        E 0 90 56 60
        E 0 90 62 60
        E 80 80 4a 00
        E 40 80 3d 00
        E 240 80 56 00
        E 0 80 62 00
        E 120 90 4a 60
        E 0 90 56 60
        E 0 90 62 60
        E 80 80 4a 00
        E 280 80 56 00
        E 0 80 62 00
        E 120 90 3e 60
        E 0 90 4b 60
        E 0 90 57 60
        E 0 90 63 60
        E 80 80 4b 00
        E 40 80 3e 00
        E 240 80 57 00
        E 0 80 63 00
        E 120 90 4a 60
        E 0 90 56 60
        E 0 90 62 60
        E 80 80 4a 00
        E 280 80 56 00
        E 0 80 62 00
        E 120 90 3c 60
        E 0 90 49 60
        E 0 90 55 60
        E 0 90 61 60
        E 80 80 3c 00
        E 0 80 49 00
        E 0 80 55 00
        E 0 80 61 00
        E 240 90 60 60
        E 80 80 60 00
        E 80 90 49 60
        E 0 90 55 60
        E 0 90 61 60
        E 80 80 49 00
        E 0 80 55 00
        E 0 80 61 00
        E 240 90 3e 60
        E 0 90 4a 60
        E 0 90 57 60
        E 0 90 63 60
        E 80 80 3e 00
        E 0 80 4a 00
        E 0 80 57 00
        E 0 80 63 00
        E 400 90 62 60
        E 80 80 62 00
        E 80 90 49 60
        E 0 90 55 60
        E 0 90 61 60
        E 80 80 49 00
        E 0 80 55 00
        E 0 80 61 00
        E 400 90 3c 60
        E 0 90 48 60
        E 0 90 54 60
        E 0 90 60 60
        E 80 80 3c 00
        E 0 80 48 00
        E 0 80 54 00
        E 0 80 60 00
        E 400 90 48 60
        E 0 90 54 60
        E 0 90 60 60
        E 80 80 48 00
        E 0 80 54 00
        E 0 80 60 00
        E 400 90 3d 60
        E 0 90 4b 60
        E 0 90 58 60
        E 0 90 64 60
        E 80 80 3d 00
        E 0 80 4b 00
        E 0 80 58 00
        E 0 80 64 00
        E 240 90 63 60
        E 80 80 63 00
        E 80 90 56 60
        E 0 90 62 60
        E 80 80 56 00
        E 0 80 62 00
        E 400 90 3c 60
        E 0 90 49 60
        E 0 90 55 60
        E 0 90 61 60
        E 80 80 3c 00
        E 0 80 49 00
        E 0 80 55 00
        E 0 80 61 00
        E 400 90 48 60
        E 0 90 54 60
        E 0 90 60 60
        E 80 80 48 00
        E 0 80 54 00
        E 0 80 60 00
        E 400 90 3c 60
        E 0 90 49 60
        E 0 90 55 60
        E 0 90 61 60
        E 80 80 3c 00
        E 0 80 49 00
        E 0 80 55 00
        E 0 80 61 00
        E 880 90 3c 60
        E 0 90 48 60
        E 0 90 54 60
        E 0 90 60 60
        E 80 80 3c 00
        E 0 80 48 00
        E 0 80 54 00
        E 0 80 60 00
        E 240 90 61 60
        E 80 80 61 00
        E 80 90 3e 60
        E 0 90 4b 60
        E 0 90 58 60
        E 0 90 64 60
        E 80 80 3e 00
        E 0 80 4b 00
        E 0 80 58 00
        E 0 80 64 00
        E 240 90 60 60
        E 80 80 60 00
        E 80 90 55 60
        E 0 90 61 60
        E 80 80 55 00
        E 0 80 61 00
        E 240 90 3e 60
        E 0 90 4b 60
        E 0 90 58 60
        E 0 90 64 60
        E 80 80 3e 00
        E 0 80 4b 00
        E 0 80 58 00
        E 0 80 64 00
        E 80 90 60 60
        E 80 80 60 00
        E 240 90 61 60
        E 80 80 61 00
        E 80 90 3e 60
        E 0 90 4b 60
        E 0 90 58 60
        E 0 90 64 60
        E 80 80 3e 00
        E 0 80 4b 00
        E 0 80 58 00
        E 0 80 64 00
        E 240 90 60 60
        E 80 80 60 00
        E 80 90 49 60
        E 0 90 55 60
        E 0 90 61 60
        E 80 80 49 00
        E 0 80 55 00
        E 0 80 61 00
        E 240 90 64 60
        E 80 80 64 00
        E 80 90 3d 60
        E 0 90 4b 60
        E 0 90 57 60
        E 0 90 63 60
        E 80 80 3d 00
        E 0 80 4b 00
        E 0 80 57 00
        E 0 80 63 00
        E 240 90 63 60
        E 80 80 63 00
        E 80 90 55 60
        E 0 90 61 60
        E 80 80 55 00
        E 0 80 61 00
        E 240 90 62 60
        E 80 80 62 00
        E 80 90 3c 60
        E 0 90 48 60
        E 0 90 54 60
        E 0 90 60 60
        E 80 80 3c 00
        E 0 80 48 00
        E 0 80 54 00
        E 0 80 60 00
        E 400 90 54 60
        E 0 90 60 60
        E 80 80 54 00
        E 0 80 60 00
        E 240 90 61 60
        E 80 80 61 00
        E 80 90 3d 60
        E 0 90 4a 60
        E 0 90 56 60
        E 0 90 62 60
        E 80 80 3d 00
        E 0 80 4a 00
        E 0 80 56 00
        E 0 80 62 00
        E 240 90 63 60
        E 80 80 63 00
        E 80 90 3e 60
        E 0 90 4b 60
        E 0 90 58 60
        E 0 90 64 60
        E 80 80 3e 00
        E 0 80 4b 00
        E 0 80 58 00
        E 0 80 64 00
        E 400 90 4a 60
        E 0 90 57 60
        E 0 90 63 60
        E 80 80 4a 00
        E 0 80 57 00
        E 0 80 63 00
        E 400 90 56 60
        E 0 90 62 60
        E 80 80 56 00
        E 0 80 62 00
        E 400 90 3c 60
        E 0 90 49 60
        E 0 90 55 60
        E 0 90 61 60
        E 80 80 3c 00
        E 0 80 49 00
        E 0 80 55 00
        E 0 80 61 00
        E 240 90 62 60
        E 80 80 62 00
        E 80 90 48 60
        E 0 90 54 60
        E 0 90 60 60
        E 80 80 48 00
        E 0 80 54 00
        E 0 80 60 00
        E 720 90 64 60
        E 80 80 64 00
        E 80 90 3e 60
        E 0 90 4b 60
        E 0 90 57 60
        E 0 90 63 60
        E 80 80 3e 00
        E 0 80 4b 00
        E 0 80 57 00
        E 0 80 63 00
        E 240 90 64 60
        E 80 80 64 00
        E 80 90 3d 60
        E 0 90 4a 60
        E 0 90 56 60
        E 0 90 62 60
        E 80 80 3d 00
        E 0 80 4a 00
        E 0 80 56 00
        E 0 80 62 00
        E 240 90 55 60
        E 0 90 61 60
        E 80 80 55 00
        E 0 80 61 00
        E 400 90 64 60
        E 80 80 64 00
        E 80 90 3e 60
        E 0 90 4b 60
        E 0 90 57 60
        E 0 90 63 60
        E 80 80 3e 00
        E 0 80 4b 00
        E 0 80 57 00
        E 0 80 63 00
        E 240 90 64 60
        E 80 80 64 00
        E 80 90 4a 60
        E 0 90 56 60
        E 0 90 62 60
        E 80 80 4a 00
        E 0 80 56 00
        E 0 80 62 00
        E 240 90 3d 60
        E 0 90 55 60
        E 0 90 61 60
        E 80 80 3d 00
        E 0 80 55 00
        E 0 80 61 00
        E 400 90 60 60
        E 80 80 60 00
        E 80 90 49 60
        E 0 90 55 60
        E 0 90 61 60
        E 80 80 49 00
        E 0 80 55 00
        E 0 80 61 00
        E 240 90 62 60
        E 80 80 62 00
        E 80 90 3e 60
        E 0 90 4a 60
        E 0 90 57 60
        E 0 90 63 60
        E 0 90 74 60
        E 80 80 3e 00
        E 0 80 4a 00
        E 0 80 57 00
        E 0 80 63 00
        E 400 90 4b 60
        E 0 90 58 60
        E 0 90 64 60
        E 80 80 4b 00
        E 0 80 58 00
        E 0 80 64 00
        E 400 90 3c 60
        E 0 90 49 60
        E 0 90 56 60
        E 0 90 62 60
        E 80 80 3c 00
        E 0 80 49 00
        E 0 80 56 00
        E 0 80 62 00
        E 400 90 4a 60
        E 0 90 57 60
        E 0 90 63 60
        E 80 80 4a 00
        E 0 80 57 00
        E 0 80 63 00
        E 400 90 3d 60
        E 0 90 49 60
        E 0 90 55 60
        E 0 90 61 60
        E 80 80 3d 00
        E 0 80 49 00
        E 0 80 55 00
        E 0 80 61 00
        E 240 90 62 60
        E 80 80 62 00
        E 80 90 49 60
        E 0 90 55 60
        E 0 90 61 60
        E 80 80 49 00
        E 0 80 55 00
        E 0 80 61 00
        E 240 90 62 60
        E 80 80 62 00
        E 80 90 3c 60
        E 0 90 48 60
        E 0 90 54 60
        E 0 90 60 60
        E 80 80 3c 00
        E 0 80 48 00
        E 280 80 54 00
        E 0 80 60 00
        E 120 90 49 60
        E 0 90 55 60
        E 0 90 61 60
        E 80 80 49 00
        E 280 80 55 00
        E 0 80 61 00
        E 120 80 74 00
        E 0 90 3c 60
        E 0 90 48 60
        E 0 90 55 60
        E 0 90 61 60
        E 80 80 3c 00
        E 0 80 48 00
        E 0 80 55 00
        E 0 80 61 00
        E 240 90 60 60
        E 80 80 60 00
        E 80 90 49 60
        E 0 90 55 60
        E 0 90 61 60
        E 80 80 49 00
        E 0 80 55 00
        E 0 80 61 00
        E 240 90 60 60
        E 80 80 60 00
        E 80 90 3d 60
        E 0 90 56 60
        E 0 90 62 60
        E 80 80 3d 00
        E 0 80 56 00
        E 0 80 62 00
        E 240 90 60 60
        E 80 80 60 00
        E 80 90 3e 60
        E 0 90 4b 60
        E 0 90 58 60
        E 0 90 64 60
        E 80 80 3e 00
        E 0 80 4b 00
        E 0 80 58 00
        E 0 80 64 00
        E 400 90 4a 60
        E 0 90 57 60
        E 0 90 63 60
        E 80 80 4a 00
        E 0 80 57 00
        E 0 80 63 00
        E 240 90 60 60
        E 80 80 60 00
        E 80 90 56 60
        E 0 90 62 60
        E 80 80 56 00
        E 0 80 62 00
        E 240 90 60 60
        E 80 80 60 00
        E 80 90 3c 60
        E 0 90 49 60
        E 0 90 55 60
        E 0 90 61 60
        E 80 80 3c 00
        E 0 80 49 00
        E 0 80 55 00
        E 0 80 61 00
        E 240 90 62 60
        E 80 80 62 00
        E 80 90 4b 60
        E 0 90 57 60
        E 0 90 63 60
        E 80 80 4b 00
        E 0 80 57 00
        E 0 80 63 00
        E 240 90 60 60
        E 80 80 60 00
        E 80 90 3c 60
        E 0 90 49 60
        E 0 90 55 60
        E 0 90 61 60
        E 80 80 3c 00
        E 0 80 49 00
        E 0 80 55 00
        E 0 80 61 00
        E 400 90 55 60
        E 0 90 61 60
        E 80 80 55 00
        E 0 80 61 00
        E 240 90 60 60
        E 80 80 60 00
        E 80 90 3d 60
        E 0 90 4a 60
        E 0 90 56 60
        E 0 90 62 60
        E 80 80 3d 00
        E 0 80 4a 00
        E 0 80 56 00
        E 0 80 62 00
        E 240 90 61 60
        E 80 80 61 00
        E 80 90 3e 60
        E 0 90 4b 60
        E 0 90 58 60
        E 0 90 64 60
        E 80 80 3e 00
        E 0 80 4b 00
        E 0 80 58 00
        E 0 80 64 00
        E 400 90 3d 60
        E 0 90 4a 60
        E 0 90 57 60
        E 0 90 63 60
        E 80 80 3d 00
        E 0 80 4a 00
        E 0 80 57 00
        E 0 80 63 00
        E 400 90 56 60
        E 0 90 62 60
        E 80 80 56 00
        E 0 80 62 00
        E 400 90 3c 60
        E 0 90 49 60
        E 0 90 55 60
        E 0 90 61 60
        E 80 80 3c 00
        E 0 80 49 00
        E 0 80 55 00
        E 0 80 61 00
        E 400 90 48 60
        E 0 90 54 60
        E 0 90 60 60
        E 80 80 48 00
        E 0 80 54 00
        E 0 80 60 00
        E 400 90 3d 60
        E 0 90 4a 60
        E 0 90 56 60
        E 0 90 62 60
        E 80 80 4a 00
        E 40 80 3d 00
        E 240 80 56 00
        E 0 80 62 00
        E 120 90 4a 60
        E 0 90 56 60
        E 0 90 62 60
        E 80 80 4a 00
        E 280 80 56 00
        E 0 80 62 00
        E 120 90 3e 60
        E 0 90 4b 60
        E 0 90 57 60
        E 0 90 63 60
        E 80 80 4b 00
        E 40 80 3e 00
        E 240 80 57 00
        E 0 80 63 00
        E 120 90 4a 60
        E 0 90 56 60
        E 0 90 62 60
        E 80 80 4a 00
        E 280 80 56 00
        E 0 80 62 00
        E 120 90 3c 60
        E 0 90 49 60
        E 0 90 55 60
        E 0 90 61 60
        E 80 80 3c 00
        E 0 80 49 00
        E 0 80 55 00
        E 0 80 61 00
        E 240 90 60 60
        E 80 80 60 00
        E 80 90 49 60
        E 0 90 55 60
        E 0 90 61 60
        E 80 80 49 00
        E 0 80 55 00
        E 0 80 61 00
        E 240 90 3e 60
        E 0 90 4a 60
        E 0 90 57 60
        E 0 90 63 60
        E 80 80 3e 00
        E 0 80 4a 00
        E 0 80 57 00
        E 0 80 63 00
        E 400 90 62 60
        E 80 80 62 00
        E 80 90 49 60
        E 0 90 55 60
        E 0 90 61 60
        E 80 80 49 00
        E 0 80 55 00
        E 0 80 61 00
        E 400 90 3c 60
        E 0 90 48 60
        E 0 90 54 60
        E 0 90 60 60
        E 80 80 3c 00
        E 0 80 48 00
        E 0 80 54 00
        E 0 80 60 00
        E 400 90 48 60
        E 0 90 54 60
        E 0 90 60 60
        E 80 80 48 00
        E 0 80 54 00
        E 0 80 60 00
        E 400 90 3d 60
        E 0 90 4b 60
        E 0 90 58 60
        E 0 90 64 60
        E 80 80 3d 00
        E 0 80 4b 00
        E 0 80 58 00
        E 0 80 64 00
        E 240 90 63 60
        E 80 80 63 00
        E 80 90 56 60
        E 0 90 62 60
        E 80 80 56 00
        E 0 80 62 00
        E 400 90 3c 60
        E 0 90 49 60
        E 0 90 55 60
        E 0 90 61 60
        E 80 80 3c 00
        E 0 80 49 00
        E 0 80 55 00
        E 0 80 61 00
        E 400 90 48 60
        E 0 90 54 60
        E 0 90 60 60
        E 80 80 48 00
        E 0 80 54 00
        E 0 80 60 00
        E 400 90 3c 60
        E 0 90 49 60
        E 0 90 55 60
        E 0 90 61 60
        E 80 80 3c 00
        E 0 80 49 00
        E 0 80 55 00
        E 0 80 61 00
        E 880 90 3c 60
        E 0 90 48 60
        E 0 90 54 60
        E 0 90 60 60
        E 80 80 3c 00
        E 0 80 48 00
        E 0 80 54 00
        E 0 80 60 00
        E 240 90 61 60
        E 80 80 61 00
        E 80 90 3e 60
        E 0 90 4b 60
        E 0 90 58 60
        E 0 90 64 60
        E 80 80 3e 00
        E 0 80 4b 00
        E 0 80 58 00
        E 0 80 64 00
        E 240 90 60 60
        E 80 80 60 00
        E 80 90 55 60
        E 0 90 61 60
        E 80 80 55 00
        E 0 80 61 00
        E 240 90 3e 60
        E 0 90 4b 60
        E 0 90 58 60
        E 0 90 64 60
        E 80 80 3e 00
        E 0 80 4b 00
        E 0 80 58 00
        E 0 80 64 00
        E 80 90 60 60
        E 80 80 60 00
        E 240 90 61 60
        E 80 80 61 00
        E 80 90 3e 60
        E 0 90 4b 60
        E 0 90 58 60
        E 0 90 64 60
        E 80 80 3e 00
        E 0 80 4b 00
        E 0 80 58 00
        E 0 80 64 00
        E 240 90 60 60
        E 80 80 60 00
        E 80 90 49 60
        E 0 90 55 60
        E 0 90 61 60
        E 80 80 49 00
        E 0 80 55 00
        E 0 80 61 00
        E 240 90 64 60
        E 80 80 64 00
        E 80 90 3d 60
        E 0 90 4b 60
        E 0 90 57 60
        E 0 90 63 60
        E 80 80 3d 00
        E 0 80 4b 00
        E 0 80 57 00
        E 0 80 63 00
        E 240 90 63 60
        E 80 80 63 00
        E 80 90 55 60
        E 0 90 61 60
        E 80 80 55 00
        E 0 80 61 00
        E 240 90 62 60
        E 80 80 62 00
        E 80 90 3c 60
        E 0 90 48 60
        E 0 90 54 60
        E 0 90 60 60
        E 80 80 3c 00
        E 0 80 48 00
        E 0 80 54 00
        E 0 80 60 00
        E 400 90 54 60
        E 0 90 60 60
        E 80 80 54 00
        E 0 80 60 00
        E 240 90 61 60
        E 80 80 61 00
        E 80 90 3d 60
        E 0 90 4a 60
        E 0 90 56 60
        E 0 90 62 60
        E 80 80 3d 00
        E 0 80 4a 00
        E 0 80 56 00
        E 0 80 62 00
        E 240 90 63 60
        E 80 80 63 00
        E 80 90 3e 60
        E 0 90 4b 60
        E 0 90 58 60
        E 0 90 64 60
        E 80 80 3e 00
        E 0 80 4b 00
        E 0 80 58 00
        E 0 80 64 00
        E 400 90 4a 60
        E 0 90 57 60
        E 0 90 63 60
        E 80 80 4a 00
        E 0 80 57 00
        E 0 80 63 00
        E 400 90 56 60
        E 0 90 62 60
        E 80 80 56 00
        E 0 80 62 00
        E 400 90 3c 60
        E 0 90 49 60
        E 0 90 55 60
        E 0 90 61 60
        E 80 80 3c 00
        E 0 80 49 00
        E 0 80 55 00
        E 0 80 61 00
        E 240 90 62 60
        E 80 80 62 00
        E 80 90 48 60
        E 0 90 54 60
        E 0 90 60 60
        E 80 80 48 00
        E 0 80 54 00
        E 0 80 60 00
        E 640 90 74 60
        E 80 90 64 60
        E 80 80 64 00
        E 80 90 3e 60
        E 0 90 4b 60
        E 0 90 57 60
        E 0 90 63 60
        E 80 80 3e 00
        E 0 80 4b 00
        E 0 80 57 00
        E 0 80 63 00
        E 240 90 64 60
        E 80 80 64 00
        E 80 90 3d 60
        E 0 90 4a 60
        E 0 90 56 60
        E 0 90 62 60
        E 80 80 3d 00
        E 0 80 4a 00
        E 0 80 56 00
        E 0 80 62 00
        E 240 90 55 60
        E 0 90 61 60
        E 80 80 55 00
        E 0 80 61 00
        E 400 90 64 60
        E 80 80 64 00
        E 80 90 3e 60
        E 0 90 4b 60
        E 0 90 57 60
        E 0 90 63 60
        E 80 80 3e 00
        E 0 80 4b 00
        E 0 80 57 00
        E 0 80 63 00
        E 240 90 64 60
        E 80 80 64 00
        E 80 90 4a 60
        E 0 90 56 60
        E 0 90 62 60
        E 80 80 4a 00
        E 0 80 56 00
        E 0 80 62 00
        E 240 90 3d 60
        E 0 90 55 60
        E 0 90 61 60
        E 80 80 3d 00
        E 0 80 55 00
        E 0 80 61 00
        E 80 80 74 00
        E 320 90 60 60
        E 80 80 60 00
        E 80 90 49 60
        E 0 90 55 60
        E 0 90 61 60
        E 80 80 49 00
        E 0 80 55 00
        E 0 80 61 00
        E 240 90 62 60
        E 80 80 62 00
        E 80 90 3e 60
        E 0 90 4a 60
        E 0 90 57 60
        E 0 90 63 60
        E 80 80 3e 00
        E 0 80 4a 00
        E 0 80 57 00
        E 0 80 63 00
        E 400 90 4b 60
        E 0 90 58 60
        E 0 90 64 60
        E 80 80 4b 00
        E 0 80 58 00
        E 0 80 64 00
        E 400 90 3c 60
        E 0 90 49 60
        E 0 90 56 60
        E 0 90 62 60
        E 80 80 3c 00
        E 0 80 49 00
        E 0 80 56 00
        E 0 80 62 00
        E 400 90 4a 60
        E 0 90 57 60
        E 0 90 63 60
        E 80 80 4a 00
        E 0 80 57 00
        E 0 80 63 00
        E 400 90 3d 60
        E 0 90 49 60
        E 0 90 55 60
        E 0 90 61 60
        E 80 80 3d 00
        E 0 80 49 00
        E 0 80 55 00
        E 0 80 61 00
        E 240 90 62 60
        E 80 80 62 00
        E 80 90 49 60
        E 0 90 55 60
        E 0 90 61 60
        E 80 80 49 00
        E 0 80 55 00
        E 0 80 61 00
        E 240 90 62 60
        E 80 80 62 00
        E 80 90 3c 60
        E 0 90 48 60
        E 0 90 54 60
        E 0 90 60 60
        E 80 80 3c 00
        E 0 80 48 00
        E 280 80 54 00
        E 0 80 60 00
        E 120 90 49 60
        E 0 90 55 60
        E 0 90 61 60
        E 80 80 49 00
        E 280 80 55 00
        E 0 80 61 00
        E 120 90 3c 60
        E 0 90 48 60
        E 0 90 55 60
        E 0 90 61 60
        E 80 80 3c 00
        E 0 80 48 00
        E 0 80 55 00
        E 0 80 61 00
        E 240 90 60 60
        E 80 80 60 00
        E 80 90 49 60
        E 0 90 55 60
        E 0 90 61 60
        E 80 80 49 00
        E 0 80 55 00
        E 0 80 61 00
        E 240 90 60 60
        E 80 80 60 00
        E 80 90 3d 60
        E 0 90 56 60
        E 0 90 62 60
        E 80 80 3d 00
        E 0 80 56 00
        E 0 80 62 00
        E 240 90 60 60
        E 80 80 60 00
        E 80 90 3e 60
        E 0 90 4b 60
        E 0 90 58 60
        E 0 90 64 60
        E 80 80 3e 00
        E 0 80 4b 00
        E 0 80 58 00
        E 0 80 64 00
        E 400 90 4a 60
        E 0 90 57 60
        E 0 90 63 60
        E 80 80 4a 00
        E 0 80 57 00
        E 0 80 63 00
        E 240 90 60 60
        E 80 80 60 00
        E 80 90 56 60
        E 0 90 62 60
        E 80 80 56 00
        E 0 80 62 00
        E 240 90 60 60
        E 80 80 60 00
        E 80 90 3c 60
        E 0 90 49 60
        E 0 90 55 60
        E 0 90 61 60
        E 80 80 3c 00
        E 0 80 49 00
        E 0 80 55 00
        E 0 80 61 00
        E 240 90 62 60
        E 80 80 62 00
        E 80 90 4b 60
        E 0 90 57 60
        E 0 90 63 60
        E 80 80 4b 00
        E 0 80 57 00
        E 0 80 63 00
        E 240 90 60 60
        E 80 80 60 00
        E 80 90 3c 60
        E 0 90 49 60
        E 0 90 55 60
        E 0 90 61 60
        E 80 80 3c 00
        E 0 80 49 00
        E 0 80 55 00
        E 0 80 61 00
        E 400 90 55 60
        E 0 90 61 60
        E 80 80 55 00
        E 0 80 61 00
        E 240 90 60 60
        E 80 80 60 00
        E 80 90 3d 60
        E 0 90 4a 60
        E 0 90 56 60
        E 0 90 62 60
        E 80 80 3d 00
        E 0 80 4a 00
        E 0 80 56 00
        E 0 80 62 00
        E 240 90 61 60
        E 80 80 61 00
        E 80 90 3e 60
        E 0 90 4b 60
        E 0 90 58 60
        E 0 90 64 60
        E 80 80 3e 00
        E 0 80 4b 00
        E 0 80 58 00
        E 0 80 64 00
        E 400 90 3d 60
        E 0 90 4a 60
        E 0 90 57 60
        E 0 90 63 60
        E 80 80 3d 00
        E 0 80 4a 00
        E 0 80 57 00
        E 0 80 63 00
        E 400 90 56 60
        E 0 90 62 60
        E 80 80 56 00
        E 0 80 62 00
        E 400 90 3c 60
        E 0 90 49 60
        E 0 90 55 60
        E 0 90 61 60
        E 80 80 3c 00
        E 0 80 49 00
        E 0 80 55 00
        E 0 80 61 00
        E 400 90 48 60
        E 0 90 54 60
        E 0 90 60 60
        E 80 80 48 00
        E 0 80 54 00
        E 0 80 60 00
        E 400 90 3d 60
        E 0 90 4a 60
        E 0 90 56 60
        E 0 90 62 60
        E 80 80 4a 00
        E 40 80 3d 00
        E 240 80 56 00
        E 0 80 62 00
        E 120 90 4a 60
        E 0 90 56 60
        E 0 90 62 60
        E 80 80 4a 00
        E 280 80 56 00
        E 0 80 62 00
        E 120 90 3e 60
        E 0 90 4b 60
        E 0 90 57 60
        E 0 90 63 60
        E 80 80 4b 00
        E 40 80 3e 00
        E 240 80 57 00
        E 0 80 63 00
        E 120 90 4a 60
        E 0 90 56 60
        E 0 90 62 60
        E 80 80 4a 00
        E 280 80 56 00
        E 0 80 62 00
        E 120 90 3c 60
        E 0 90 49 60
        E 0 90 55 60
        E 0 90 61 60
        E 80 80 3c 00
        E 0 80 49 00
        E 0 80 55 00
        E 0 80 61 00
        E 240 90 60 60
        E 80 80 60 00
        E 80 90 49 60
        E 0 90 55 60
        E 0 90 61 60
        E 80 80 49 00
        E 0 80 55 00
        E 0 80 61 00
        E 240 90 3e 60
        E 0 90 4a 60
        E 0 90 57 60
        E 0 90 63 60
        E 80 80 3e 00
        E 0 80 4a 00
        E 0 80 57 00
        E 0 80 63 00
        E 400 90 62 60
        E 80 80 62 00
        E 80 90 49 60
        E 0 90 55 60
        E 0 90 61 60
        E 80 80 49 00
        E 0 80 55 00
        E 0 80 61 00
        E 400 90 3c 60
        E 0 90 48 60
        E 0 90 54 60
        E 0 90 60 60
        E 80 80 3c 00
        E 0 80 48 00
        E 0 80 54 00
        E 0 80 60 00
        E 400 90 48 60
        E 0 90 54 60
        E 0 90 60 60
        E 80 80 48 00
        E 0 80 54 00
        E 0 80 60 00
        E 400 90 3d 60
        E 0 90 4b 60
        E 0 90 58 60
        E 0 90 64 60
        E 80 80 3d 00
        E 0 80 4b 00
        E 0 80 58 00
        E 0 80 64 00
        E 240 90 63 60
        E 80 80 63 00
        E 80 90 56 60
        E 0 90 62 60
        E 80 80 56 00
        E 0 80 62 00
        E 400 90 3c 60
        E 0 90 49 60
        E 0 90 55 60
        E 0 90 61 60
        E 80 80 3c 00
        E 0 80 49 00
        E 0 80 55 00
        E 0 80 61 00
        E 400 90 48 60
        E 0 90 54 60
        E 0 90 60 60
        E 80 80 48 00
        E 0 80 54 00
        E 0 80 60 00
        E 400 90 3c 60
        E 0 90 49 60
        E 0 90 55 60
        E 0 90 61 60
        E 80 80 3c 00
        E 0 80 49 00
        E 0 80 55 00
        E 0 80 61 00
        <X 480 0
          /wFbaWRsZV9yZWFsdGltZV0=
        >
        E 2320 b0 7b 00
        GUID {AB15F982-3C2E-4FCF-A79F-E5B1E271FA76}
        IGNTEMPO 0 120.00000000 4 4
        SRCCOLOR 6
        VELLANE 132 128 60
        COLORMAP "C:\Program Files\REAPER (x64)\Data\color_maps\rockband_guitarbass.png"
        CFGEDITVIEW -8362.172752 10.474350 0 14 0 0 0
        CFGEDIT 1 1 0 1 1 0 1 1 1 1 1 0.16666667 -8 -8 1544 872 0 2 1 1 0.00000000 0 1 0 0 0.500000 0 0 1.000000 64
        KEYSNAP 0 3 "102034050607" 0 "Major"
        EVTFILTER 0 -1 -1 -1 -1 0 1 0 0 -1.00000000 -1.00000000
      >
    >
  >
  <TRACK '{C7C8C7D0-321F-4EF0-A00C-95C96AC13CBA}'
    NAME "PART REAL_KEYS_X"
    PEAKCOL 16576
    BEAT -1
    AUTOMODE 0
    VOLPAN 1.00000000000000 0.00000000000000 -1.00000000000000 -1.00000000000000 1.00000000000000
    MUTESOLO 0 0 0
    IPHASE 0
    ISBUS 0 0
    BUSCOMP 0 0
    SHOWINMIX 1 0.666700 0.500000 1 0.500000 -1 -1 -1
    FREEMODE 0
    SEL 0
    REC 0 0 0 0 0 0 0
    VU 2
    TRACKHEIGHT 0 0
    INQ 0 0 0 0.5000000000 100 0 0 100
    NCHAN 2
    FX 0
    TRACKID {C7C8C7D0-321F-4EF0-A00C-95C96AC13CBA}
    PERF 0
    MIDIOUT -1
    <MIDINOTENAMES
      0 127 "TRILL MARKER"
      0 126 "GLISSANDO MARKER"
      0 125 "---"
      0 116 "OVERDRIVE"
      0 115 "SOLO"
      0 114 "---"
      0 72 "Highest playable note B#3"
      0 71 "B3"
      0 70 "A#3"
      0 69 "A3"
      0 68 "G#3"
      0 67 "G3"
      0 66 "F#3"
      0 65 "F3"
      0 64 "E3"
      0 63 "D#3"
      0 62 "D3"
      0 61 "C#3"
      0 60 "C3"
      0 59 "B2"
      0 58 "A#2"
      0 57 "A2"
      0 56 "G#2"
      0 55 "G2"
      0 54 "F#2"
      0 53 "F2"
      0 52 "E2"
      0 51 "D#2"
      0 50 "D2"
      0 49 "C#2"
      0 48 "Lowest playable note C2"
      0 10 "---"
      0 9 "Range A2-C4"
      0 8 "Range"
      0 7 "Range"
      0 6 "Range"
      0 5 "Range F2-A3"
      0 4 "Range"
      0 3 "Range"
      0 2 "Range"
      0 1 "Range"
      0 0 "Range C2-E3"
    >
    MAINSEND 1 0
    <FXCHAIN
      WNDRECT 0 43 655 467
      SHOW 0
      LASTSEL 1
      DOCKED 0
      BYPASS 0 0
      <JS "MIDI/midi_note_filter" ""
        48.000000 72.000000 - - - - - - - - - - - - - - - - - - - - - - - - - - - - - - - - - - - - - - - - - - - - - - - - - - - - - - - - - - - - - - 
      >
      FLOATPOS 0 0 0 0
      FXID {9C5162A6-5A41-4FB4-92F2-D74D6CC8D9F9}
      WAK 0
      BYPASS 0 0
      <VST "VSTi: ReaSynth (Cockos)" "reasynth.dll" 0 ""
        eXNlcu9e7f4AAAAAAgAAAAEAAAAAAAAAAgAAAAAAAAA4AAAAAAAAAA==
        AAAQAO++rd4N8K3eppvEO0QvRj0AAIA/AAAAAAAAAADMm4A+6WeIPQ==
        AAAAAAAAAD8AAIA/AACAPwAAAD8AABAAAAA=
      >
      FLOATPOS 0 0 0 0
      FXID {302CBF47-9A43-40D5-9AE5-D520DE7485B2}
      WAK 0
    >
    <ITEM
      POSITION 0.00000000000000
      SNAPOFFS 0.00000000000000
      LENGTH 107.21429523936526
      LOOP 0
      ALLTAKES 0
      SEL 0
      FADEIN 1 0.000000 0.000000 1 0
      FADEOUT 1 0.000000 0.000000 1 0
      MUTE 0
      IGUID {D1F85650-4788-4374-9EAC-66EBC1AF760A}
      IID 19
      NAME "PART REAL_KEYS_X"
      VOLPAN 1.000000 0.000000 1.000000 -1.000000
      SOFFS 0.00000000000000 0.00000000000000
      PLAYRATE 1.00000000000000 1 0.00000000000000 -1
      CHANMODE 0
      GUID {2A4913C6-9049-4E01-9F0E-E9CED352C484}
      <SOURCE MIDI
        HASDATA 1 480 QN
        POOLEDEVTS {60694A51-1578-45B6-AF3D-FF1CEF56F022}
        <X 0 0
          /wNQQVJUIFJFQUxfS0VZU19Y
        >
        E 0 90 09 60
        E 120 80 09 00
        <X 3720 0
          /wFbYmVnaW5fa2V5IHNvbmdfdHJhaW5lcl9rZXlfMV0=
        >
        E 0 90 3a 60
        E 80 80 3a 00
        E 240 90 3b 60
        E 80 80 3b 00
        E 80 90 43 60
        E 80 80 43 00
        E 240 90 3a 60
        E 80 80 3a 00
        E 80 90 3b 60
        E 80 80 3b 00
        E 240 90 43 60
        E 80 80 43 00
        E 80 90 3a 60
        E 80 80 3a 00
        E 240 90 3b 60
        E 80 80 3b 00
        <X 80 0
          /wFba2V5X25vcm0gc29uZ190cmFpbmVyX2tleV8xXQ==
        >
        E 0 90 43 60
        E 80 80 43 00
        E 240 90 3a 60
        E 80 80 3a 00
        E 80 90 3b 60
        E 80 80 3b 00
        E 240 90 43 60
        E 80 80 43 00
        E 80 90 41 60
        E 80 80 41 00
        E 240 90 40 60
        E 80 80 40 00
        E 80 90 3f 60
        E 80 80 3f 00
        E 240 90 3e 60
        E 80 80 3e 00
        E 80 90 3c 60
        E 80 80 3c 00
        E 400 90 3c 60
        E 80 80 3c 00
        E 240 90 3e 60
        E 80 80 3e 00
        E 80 90 3f 60
        E 80 80 3f 00
        E 240 90 40 60
        E 80 80 40 00
        E 80 90 48 60
        E 0 90 74 60
        E 80 80 48 00
        E 400 90 46 60
        E 80 80 46 00
        E 400 90 45 60
        E 80 80 45 00
        E 400 90 3f 60
        E 80 80 3f 00
        E 240 90 40 60
        E 80 80 40 00
        E 80 90 3c 60
        E 80 80 3c 00
        E 160 80 74 00
        <X 240 0
          /wFbZW5kX2tleSBzb25nX3RyYWluZXJfa2V5XzFd
        >
        <X 0 0
          /wFbYmVnaW5fa2V5IHNvbmdfdHJhaW5lcl9rZXlfMl0=
        >
        E 320 90 47 60
        E 80 80 47 00
        E 80 90 46 60
        E 80 80 46 00
        E 240 90 47 60
        E 80 80 47 00
        E 80 90 45 60
        E 80 80 45 00
        E 240 90 43 60
        E 80 80 43 00
        E 400 90 47 60
        E 80 80 47 00
        <X 80 0
          /wFba2V5X25vcm0gc29uZ190cmFpbmVyX2tleV8yXQ==
        >
        E 0 90 46 60
        E 80 80 46 00
        E 240 90 47 60
        E 80 80 47 00
        E 80 90 45 60
        E 80 80 45 00
        E 240 90 43 60
        E 80 80 43 00
        E 400 90 45 60
        E 80 80 45 00
        E 80 90 43 60
        E 80 80 43 00
        E 240 90 45 60
        E 80 80 45 00
        E 80 90 47 60
        E 80 80 47 00
        E 400 90 48 60
        E 80 80 48 00
        e 400 90 05 60
        E 0 90 42 60
        e 80 80 05 00
        E 0 80 42 00
        E 400 90 43 60
        E 80 80 43 00
        E 400 90 3f 60
        E 80 80 3f 00
        E 240 90 40 60
        E 80 80 40 00
        E 80 90 3f 60
        E 80 80 3f 00
        E 240 90 40 60
        E 80 80 40 00
        E 80 90 3b 60
        E 360 80 3b 00
        E 120 90 3c 60
        E 360 80 3c 00
        <X 120 0
          /wFbZW5kX2tleSBzb25nX3RyYWluZXJfa2V5XzJd
        >
        <X 0 0
          /wFbYmVnaW5fa2V5IHNvbmdfdHJhaW5lcl9rZXlfM10=
        >
        E 0 90 37 60
        E 80 80 37 00
        E 240 90 36 60
        E 80 80 36 00
        E 80 90 3a 60
        E 80 80 3a 00
        E 240 90 3b 60
        E 80 80 3b 00
        E 80 90 3e 60
        E 80 80 3e 00
        E 240 90 3b 60
        E 80 80 3b 00
        E 80 90 43 60
        E 80 80 43 00
        <X 400 0
          /wFba2V5X25vcm0gc29uZ190cmFpbmVyX2tleV8zXQ==
        >
        E 0 90 41 60
        E 80 80 41 00
        E 240 90 37 60
        E 80 80 37 00
        E 80 90 40 60
        E 80 80 40 00
        E 240 90 37 60
        E 80 80 37 00
        E 80 90 3e 60
        E 80 80 3e 00
        E 240 90 3f 60
        E 80 80 3f 00
        E 80 90 40 60
        E 80 80 40 00
        E 240 90 37 60
        E 80 80 37 00
        e 80 90 09 60
        E 0 90 3c 60
        e 80 80 09 00
        E 0 80 3c 00
        E 400 90 3c 60
        E 80 80 3c 00
        E 240 90 3e 60
        E 80 80 3e 00
        E 80 90 3f 60
        E 80 80 3f 00
        E 240 90 40 60
        E 80 80 40 00
        E 80 90 48 60
        E 80 80 48 00
        E 400 90 46 60
        E 80 80 46 00
        E 400 90 45 60
        E 80 80 45 00
        E 400 90 43 60
        E 80 80 43 00
        E 400 90 40 60
        E 80 80 40 00
        <X 400 0
          /wFbZW5kX2tleSBzb25nX3RyYWluZXJfa2V5XzNd
        >
        <X 0 0
          /wFbYmVnaW5fa2V5IHNvbmdfdHJhaW5lcl9rZXlfNF0=
        >
        E 0 90 45 60
        E 0 90 74 60
        E 360 80 45 00
        E 120 90 45 60
        E 360 80 45 00
        E 120 90 47 60
        E 360 80 47 00
        E 120 90 45 60
        E 360 80 45 00
        <X 120 0
          /wFba2V5X25vcm0gc29uZ190cmFpbmVyX2tleV80XQ==
        >
        E 0 80 74 00
        E 0 90 43 60
        E 80 80 43 00
        E 240 90 42 60
        E 80 80 42 00
        E 80 90 43 60
        E 80 80 43 00
        E 240 90 45 60
        E 80 80 45 00
        e 80 90 05 60
        e 80 80 05 00
        E 240 90 43 60
        E 80 80 43 00
        E 80 90 40 60
        E 80 80 40 00
        E 400 90 3e 60
        E 80 80 3e 00
        E 400 90 3e 60
        E 80 80 3e 00
        E 400 90 43 60
        E 80 80 43 00
        E 240 90 3f 60
        E 80 80 3f 00
        E 80 90 3e 60
        E 80 80 3e 00
        E 400 90 3c 60
        E 80 80 3c 00
        E 400 90 37 60
        E 80 80 37 00
        e 400 90 09 60
        E 0 90 3c 60
        e 80 80 09 00
        E 0 80 3c 00
        <X 880 0
          /wFbZW5kX2tleSBzb25nX3RyYWluZXJfa2V5XzRd
        >
        E 0 90 3a 60
        E 80 80 3a 00
        E 240 90 3b 60
        E 80 80 3b 00
        E 80 90 43 60
        E 80 80 43 00
        E 240 90 3a 60
        E 80 80 3a 00
        E 80 90 3b 60
        E 80 80 3b 00
        E 240 90 43 60
        E 80 80 43 00
        E 80 90 3a 60
        E 80 80 3a 00
        E 240 90 3b 60
        E 80 80 3b 00
        E 80 90 43 60
        E 80 80 43 00
        E 240 90 3a 60
        E 80 80 3a 00
        E 80 90 3b 60
        E 80 80 3b 00
        E 240 90 43 60
        E 80 80 43 00
        E 80 90 41 60
        E 80 80 41 00
        E 240 90 40 60
        E 80 80 40 00
        E 80 90 3f 60
        E 80 80 3f 00
        E 240 90 3e 60
        E 80 80 3e 00
        E 80 90 3c 60
        E 80 80 3c 00
        E 400 90 3c 60
        E 80 80 3c 00
        E 240 90 3e 60
        E 80 80 3e 00
        E 80 90 3f 60
        E 80 80 3f 00
        E 240 90 40 60
        E 80 80 40 00
        E 80 90 48 60
        E 80 80 48 00
        E 400 90 46 60
        E 80 80 46 00
        E 400 90 45 60
        E 80 80 45 00
        E 400 90 3f 60
        E 80 80 3f 00
        E 240 90 40 60
        E 80 80 40 00
        E 80 90 3c 60
        E 80 80 3c 00
        E 400 90 74 60
        E 320 90 47 60
        E 80 80 47 00
        E 80 90 46 60
        E 80 80 46 00
        E 240 90 47 60
        E 80 80 47 00
        E 80 90 45 60
        E 80 80 45 00
        E 240 90 43 60
        E 80 80 43 00
        E 400 90 47 60
        E 80 80 47 00
        E 80 90 46 60
        E 80 80 46 00
        E 240 90 47 60
        E 80 80 47 00
        E 80 90 45 60
        E 80 80 45 00
        E 240 90 43 60
        E 80 80 43 00
        E 400 90 45 60
        E 80 80 45 00
        E 80 90 43 60
        E 80 80 43 00
        E 240 90 45 60
        E 80 80 45 00
        E 80 90 47 60
        E 80 80 47 00
        E 40 80 74 00
        E 360 90 48 60
        E 80 80 48 00
        e 400 90 05 60
        E 0 90 42 60
        e 80 80 05 00
        E 0 80 42 00
        E 400 90 43 60
        E 80 80 43 00
        E 400 90 3f 60
        E 80 80 3f 00
        E 240 90 40 60
        E 80 80 40 00
        E 80 90 3f 60
        E 80 80 3f 00
        E 240 90 40 60
        E 80 80 40 00
        E 80 90 3b 60
        E 360 80 3b 00
        E 120 90 3c 60
        E 360 80 3c 00
        E 120 90 37 60
        E 80 80 37 00
        E 240 90 36 60
        E 80 80 36 00
        E 80 90 3a 60
        E 80 80 3a 00
        E 240 90 3b 60
        E 80 80 3b 00
        E 80 90 3e 60
        E 80 80 3e 00
        E 240 90 3b 60
        E 80 80 3b 00
        E 80 90 43 60
        E 80 80 43 00
        E 400 90 41 60
        E 0 90 74 60
        E 80 80 41 00
        E 240 90 37 60
        E 80 80 37 00
        E 80 90 40 60
        E 80 80 40 00
        E 240 90 37 60
        E 80 80 37 00
        E 80 90 3e 60
        E 80 80 3e 00
        E 240 90 3f 60
        E 80 80 3f 00
        E 80 90 40 60
        E 80 80 40 00
        E 240 90 37 60
        E 80 80 37 00
        E 80 80 74 00
        e 0 90 09 60
        E 0 90 3c 60
        e 80 80 09 00
        E 0 80 3c 00
        E 400 90 3c 60
        E 80 80 3c 00
        E 240 90 3e 60
        E 80 80 3e 00
        E 80 90 3f 60
        E 80 80 3f 00
        E 240 90 40 60
        E 80 80 40 00
        E 80 90 48 60
        E 80 80 48 00
        E 400 90 46 60
        E 80 80 46 00
        E 400 90 45 60
        E 80 80 45 00
        E 400 90 43 60
        E 80 80 43 00
        E 400 90 40 60
        E 80 80 40 00
        E 400 90 45 60
        E 360 80 45 00
        E 120 90 45 60
        E 360 80 45 00
        E 120 90 47 60
        E 360 80 47 00
        E 120 90 45 60
        E 360 80 45 00
        E 120 90 43 60
        E 80 80 43 00
        E 240 90 42 60
        E 80 80 42 00
        E 80 90 43 60
        E 80 80 43 00
        E 240 90 45 60
        E 80 80 45 00
        e 80 90 05 60
        e 80 80 05 00
        E 240 90 43 60
        E 80 80 43 00
        E 80 90 40 60
        E 80 80 40 00
        E 400 90 3e 60
        E 80 80 3e 00
        E 400 90 3e 60
        E 80 80 3e 00
        E 400 90 43 60
        E 80 80 43 00
        E 240 90 3f 60
        E 80 80 3f 00
        E 80 90 3e 60
        E 80 80 3e 00
        E 400 90 3c 60
        E 80 80 3c 00
        E 400 90 37 60
        E 80 80 37 00
        e 400 90 09 60
        E 0 90 3c 60
        e 80 80 09 00
        E 0 80 3c 00
        E 880 90 3a 60
        E 80 80 3a 00
        E 240 90 3b 60
        E 80 80 3b 00
        E 80 90 43 60
        E 80 80 43 00
        E 240 90 3a 60
        E 80 80 3a 00
        E 80 90 3b 60
        E 80 80 3b 00
        E 240 90 43 60
        E 80 80 43 00
        E 80 90 3a 60
        E 80 80 3a 00
        E 240 90 3b 60
        E 80 80 3b 00
        E 80 90 43 60
        E 80 80 43 00
        E 240 90 3a 60
        E 80 80 3a 00
        E 80 90 3b 60
        E 80 80 3b 00
        E 240 90 43 60
        E 80 80 43 00
        E 80 90 41 60
        E 80 80 41 00
        E 240 90 40 60
        E 80 80 40 00
        E 80 90 3f 60
        E 80 80 3f 00
        E 240 90 3e 60
        E 80 80 3e 00
        E 80 90 3c 60
        E 80 80 3c 00
        E 400 90 3c 60
        E 80 80 3c 00
        E 240 90 3e 60
        E 80 80 3e 00
        E 80 90 3f 60
        E 80 80 3f 00
        E 240 90 40 60
        E 80 80 40 00
        E 80 90 48 60
        E 80 80 48 00
        E 400 90 46 60
        E 80 80 46 00
        E 400 90 45 60
        E 80 80 45 00
        E 400 90 3f 60
        E 80 80 3f 00
        E 240 90 40 60
        E 80 80 40 00
        E 80 90 3c 60
        E 80 80 3c 00
        E 720 90 47 60
        E 80 80 47 00
        E 80 90 46 60
        E 80 80 46 00
        E 240 90 47 60
        E 80 80 47 00
        E 80 90 45 60
        E 80 80 45 00
        E 240 90 43 60
        E 80 80 43 00
        E 400 90 47 60
        E 80 80 47 00
        E 80 90 46 60
        E 80 80 46 00
        E 240 90 47 60
        E 80 80 47 00
        E 80 90 45 60
        E 80 80 45 00
        E 240 90 43 60
        E 80 80 43 00
        E 400 90 45 60
        E 80 80 45 00
        E 80 90 43 60
        E 80 80 43 00
        E 240 90 45 60
        E 80 80 45 00
        E 80 90 47 60
        E 0 90 74 60
        E 80 80 47 00
        E 400 90 48 60
        E 80 80 48 00
        e 400 90 05 60
        E 0 90 42 60
        e 80 80 05 00
        E 0 80 42 00
        E 400 90 43 60
        E 80 80 43 00
        E 400 90 3f 60
        E 80 80 3f 00
        E 240 90 40 60
        E 80 80 40 00
        E 80 90 3f 60
        E 80 80 3f 00
        E 240 90 40 60
        E 80 80 40 00
        E 80 90 3b 60
        E 360 80 3b 00
        E 120 90 3c 60
        E 360 80 3c 00
        E 120 80 74 00
        E 0 90 37 60
        E 80 80 37 00
        E 240 90 36 60
        E 80 80 36 00
        E 80 90 3a 60
        E 80 80 3a 00
        E 240 90 3b 60
        E 80 80 3b 00
        E 80 90 3e 60
        E 80 80 3e 00
        E 240 90 3b 60
        E 80 80 3b 00
        E 80 90 43 60
        E 80 80 43 00
        E 400 90 41 60
        E 80 80 41 00
        E 240 90 37 60
        E 80 80 37 00
        E 80 90 40 60
        E 80 80 40 00
        E 240 90 37 60
        E 80 80 37 00
        E 80 90 3e 60
        E 80 80 3e 00
        E 240 90 3f 60
        E 80 80 3f 00
        E 80 90 40 60
        E 80 80 40 00
        E 240 90 37 60
        E 80 80 37 00
        e 80 90 09 60
        E 0 90 3c 60
        e 80 80 09 00
        E 0 80 3c 00
        E 400 90 3c 60
        E 80 80 3c 00
        E 240 90 3e 60
        E 80 80 3e 00
        E 80 90 3f 60
        E 80 80 3f 00
        E 240 90 40 60
        E 80 80 40 00
        E 80 90 48 60
        E 80 80 48 00
        E 400 90 46 60
        E 80 80 46 00
        E 400 90 45 60
        E 80 80 45 00
        E 400 90 43 60
        E 80 80 43 00
        E 400 90 40 60
        E 80 80 40 00
        E 400 90 45 60
        E 360 80 45 00
        E 120 90 45 60
        E 360 80 45 00
        E 120 90 47 60
        E 360 80 47 00
        E 120 90 45 60
        E 360 80 45 00
        E 120 90 43 60
        E 80 80 43 00
        E 240 90 42 60
        E 80 80 42 00
        E 80 90 43 60
        E 80 80 43 00
        E 240 90 45 60
        E 80 80 45 00
        e 80 90 05 60
        e 80 80 05 00
        E 240 90 43 60
        E 80 80 43 00
        E 80 90 40 60
        E 80 80 40 00
        E 400 90 3e 60
        E 80 80 3e 00
        E 400 90 3e 60
        E 80 80 3e 00
        E 400 90 43 60
        E 80 80 43 00
        E 240 90 3f 60
        E 80 80 3f 00
        E 80 90 3e 60
        E 80 80 3e 00
        E 400 90 3c 60
        E 80 80 3c 00
        E 400 90 37 60
        E 80 80 37 00
        e 400 90 09 60
        E 0 90 3c 60
        e 80 80 09 00
        E 0 80 3c 00
        E 880 90 3a 60
        E 80 80 3a 00
        E 240 90 3b 60
        E 80 80 3b 00
        E 80 90 43 60
        E 80 80 43 00
        E 240 90 3a 60
        E 80 80 3a 00
        E 80 90 3b 60
        E 80 80 3b 00
        E 240 90 43 60
        E 80 80 43 00
        E 80 90 3a 60
        E 80 80 3a 00
        E 240 90 3b 60
        E 80 80 3b 00
        E 80 90 43 60
        E 80 80 43 00
        E 240 90 3a 60
        E 80 80 3a 00
        E 80 90 3b 60
        E 80 80 3b 00
        E 240 90 43 60
        E 80 80 43 00
        E 80 90 41 60
        E 80 80 41 00
        E 240 90 40 60
        E 80 80 40 00
        E 80 90 3f 60
        E 80 80 3f 00
        E 240 90 3e 60
        E 80 80 3e 00
        E 80 90 3c 60
        E 80 80 3c 00
        E 400 90 3c 60
        E 80 80 3c 00
        E 240 90 3e 60
        E 80 80 3e 00
        E 80 90 3f 60
        E 80 80 3f 00
        E 240 90 40 60
        E 80 80 40 00
        E 80 90 48 60
        E 80 80 48 00
        E 400 90 46 60
        E 80 80 46 00
        E 400 90 45 60
        E 80 80 45 00
        E 400 90 3f 60
        E 80 80 3f 00
        E 240 90 40 60
        E 80 80 40 00
        E 80 90 3c 60
        E 80 80 3c 00
        E 640 90 74 60
        E 80 90 47 60
        E 80 80 47 00
        E 80 90 46 60
        E 80 80 46 00
        E 240 90 47 60
        E 80 80 47 00
        E 80 90 45 60
        E 80 80 45 00
        E 240 90 43 60
        E 80 80 43 00
        E 400 90 47 60
        E 80 80 47 00
        E 80 90 46 60
        E 80 80 46 00
        E 240 90 47 60
        E 80 80 47 00
        E 80 90 45 60
        E 80 80 45 00
        E 240 90 43 60
        E 80 80 43 00
        E 80 80 74 00
        E 320 90 45 60
        E 80 80 45 00
        E 80 90 43 60
        E 80 80 43 00
        E 240 90 45 60
        E 80 80 45 00
        E 80 90 47 60
        E 80 80 47 00
        E 400 90 48 60
        E 80 80 48 00
        e 400 90 05 60
        E 0 90 42 60
        e 80 80 05 00
        E 0 80 42 00
        E 400 90 43 60
        E 80 80 43 00
        E 400 90 3f 60
        E 80 80 3f 00
        E 240 90 40 60
        E 80 80 40 00
        E 80 90 3f 60
        E 80 80 3f 00
        E 240 90 40 60
        E 80 80 40 00
        E 80 90 3b 60
        E 360 80 3b 00
        E 120 90 3c 60
        E 360 80 3c 00
        E 120 90 37 60
        E 80 80 37 00
        E 240 90 36 60
        E 80 80 36 00
        E 80 90 3a 60
        E 80 80 3a 00
        E 240 90 3b 60
        E 80 80 3b 00
        E 80 90 3e 60
        E 80 80 3e 00
        E 240 90 3b 60
        E 80 80 3b 00
        E 80 90 43 60
        E 80 80 43 00
        E 400 90 41 60
        E 80 80 41 00
        E 240 90 37 60
        E 80 80 37 00
        E 80 90 40 60
        E 80 80 40 00
        E 240 90 37 60
        E 80 80 37 00
        E 80 90 3e 60
        E 80 80 3e 00
        E 240 90 3f 60
        E 80 80 3f 00
        E 80 90 40 60
        E 80 80 40 00
        E 240 90 37 60
        E 80 80 37 00
        e 80 90 09 60
        E 0 90 3c 60
        e 80 80 09 00
        E 0 80 3c 00
        E 400 90 3c 60
        E 80 80 3c 00
        E 240 90 3e 60
        E 80 80 3e 00
        E 80 90 3f 60
        E 80 80 3f 00
        E 240 90 40 60
        E 80 80 40 00
        E 80 90 48 60
        E 80 80 48 00
        E 400 90 46 60
        E 80 80 46 00
        E 400 90 45 60
        E 80 80 45 00
        E 400 90 43 60
        E 80 80 43 00
        E 400 90 40 60
        E 80 80 40 00
        E 400 90 45 60
        E 360 80 45 00
        E 120 90 45 60
        E 360 80 45 00
        E 120 90 47 60
        E 360 80 47 00
        E 120 90 45 60
        E 360 80 45 00
        E 120 90 43 60
        E 80 80 43 00
        E 240 90 42 60
        E 80 80 42 00
        E 80 90 43 60
        E 80 80 43 00
        E 240 90 45 60
        E 80 80 45 00
        e 80 90 05 60
        e 80 80 05 00
        E 240 90 43 60
        E 80 80 43 00
        E 80 90 40 60
        E 80 80 40 00
        E 400 90 3e 60
        E 80 80 3e 00
        E 400 90 3e 60
        E 80 80 3e 00
        E 400 90 43 60
        E 80 80 43 00
        E 240 90 3f 60
        E 80 80 3f 00
        E 80 90 3e 60
        E 80 80 3e 00
        E 400 90 3c 60
        E 80 80 3c 00
        E 400 90 37 60
        E 80 80 37 00
        E 400 90 3c 60
        E 80 80 3c 00
        E 2800 b0 7b 00
        GUID {0E65AB77-66A2-4C27-AEC5-6F952351CA7F}
        IGNTEMPO 0 120.00000000 4 4
        SRCCOLOR 2
        VELLANE 132 128 60
        COLORMAP "C:\Program Files\REAPER (x64)\Data\color_maps\rockband_guitarbass.png"
        TEXTSTRINGFILE "C:\Program Files\REAPER (x64)\Data\Text_Strings\Text Events List - PRO Trainers.txt"
        CFGEDITVIEW 98708.723790 29.209328 0 13 0 0 0
        CFGEDIT 1 1 0 1 1 0 1 1 1 1 1 0.16666667 -8 -8 1370 736 0 2 1 1 0.00000000 0 1 1 0 0.500000 0 0 1.000000 64
        KEYSNAP 0 3 "102034050607" 0 "Major"
        EVTFILTER 0 -1 -1 -1 -1 0 1 0 0 -1.00000000 -1.00000000
      >
    >
  >
  <TRACK '{7FB465EC-C73B-4BF1-8807-01A4C80083C5}'
    NAME "PART REAL_KEYS_H"
    PEAKCOL 16576
    BEAT -1
    AUTOMODE 0
    VOLPAN 1.00000000000000 0.00000000000000 -1.00000000000000 -1.00000000000000 1.00000000000000
    MUTESOLO 0 0 0
    IPHASE 0
    ISBUS 0 0
    BUSCOMP 0 0
    SHOWINMIX 1 0.666700 0.500000 1 0.500000 -1 -1 -1
    FREEMODE 0
    SEL 0
    REC 0 0 0 0 0 0 0
    VU 2
    TRACKHEIGHT 0 0
    INQ 0 0 0 0.5000000000 100 0 0 100
    NCHAN 2
    FX 0
    TRACKID {7FB465EC-C73B-4BF1-8807-01A4C80083C5}
    PERF 0
    MIDIOUT -1
    <MIDINOTENAMES
      0 127 "TRILL MARKER"
      0 126 "GLISSANDO MARKER"
      0 125 "---"
      0 116 "OVERDRIVE"
      0 115 "SOLO"
      0 114 "---"
      0 72 "Highest playable note B#3"
      0 71 "B3"
      0 70 "A#3"
      0 69 "A3"
      0 68 "G#3"
      0 67 "G3"
      0 66 "F#3"
      0 65 "F3"
      0 64 "E3"
      0 63 "D#3"
      0 62 "D3"
      0 61 "C#3"
      0 60 "C3"
      0 59 "B2"
      0 58 "A#2"
      0 57 "A2"
      0 56 "G#2"
      0 55 "G2"
      0 54 "F#2"
      0 53 "F2"
      0 52 "E2"
      0 51 "D#2"
      0 50 "D2"
      0 49 "C#2"
      0 48 "Lowest playable note C2"
      0 10 "---"
      0 9 "Range A2-C4"
      0 8 "Range"
      0 7 "Range"
      0 6 "Range"
      0 5 "Range F2-A3"
      0 4 "Range"
      0 3 "Range"
      0 2 "Range"
      0 1 "Range"
      0 0 "Range C2-E3"
    >
    MAINSEND 1 0
    <FXCHAIN
      WNDRECT 0 43 695 467
      SHOW 0
      LASTSEL 0
      DOCKED 0
    >
    <ITEM
      POSITION 0.00000000000000
      SNAPOFFS 0.00000000000000
      LENGTH 107.21429523936526
      LOOP 0
      ALLTAKES 0
      SEL 0
      FADEIN 1 0.000000 0.000000 1 0
      FADEOUT 1 0.000000 0.000000 1 0
      MUTE 0
      IGUID {D1F85650-4788-4374-9EAC-66EBC1AF760A}
      IID 19
      NAME "PART REAL_KEYS_H"
      VOLPAN 1.000000 0.000000 1.000000 -1.000000
      SOFFS 0.00000000000000 0.00000000000000
      PLAYRATE 1.00000000000000 1 0.00000000000000 -1
      CHANMODE 0
      GUID {2A4913C6-9049-4E01-9F0E-E9CED352C484}
      <SOURCE MIDI
        HASDATA 1 480 QN
        POOLEDEVTS {1E44FFFB-09AA-4316-A099-75FC7DC13B6D}
        <X 0 0
          /wNQQVJUIFJFQUxfS0VZU19I
        >
        e 0 90 09 60
        e 80 80 09 00
        E 3760 90 3a 60
        E 80 80 3a 00
        E 400 90 43 60
        E 80 80 43 00
        E 400 90 3b 60
        E 80 80 3b 00
        E 240 90 43 60
        E 80 80 43 00
        E 560 90 43 60
        E 80 80 43 00
        E 400 90 3b 60
        E 80 80 3b 00
        E 400 90 41 60
        E 80 80 41 00
        E 400 90 3f 60
        E 80 80 3f 00
        E 400 90 3c 60
        E 80 80 3c 00
        E 400 90 3c 60
        E 80 80 3c 00
        E 400 90 3f 60
        E 80 80 3f 00
        E 400 90 48 60
        E 80 80 48 00
        E 400 90 46 60
        E 80 80 46 00
        E 400 90 45 60
        E 80 80 45 00
        E 400 90 3f 60
        E 80 80 3f 00
        E 400 90 3c 60
        E 80 80 3c 00
        E 880 90 46 60
        E 80 80 46 00
        E 400 90 45 60
        E 80 80 45 00
        E 240 90 43 60
        E 80 80 43 00
        E 560 90 46 60
        E 80 80 46 00
        E 400 90 45 60
        E 80 80 45 00
        E 240 90 43 60
        E 80 80 43 00
        E 560 90 43 60
        E 80 80 43 00
        E 400 90 47 60
        E 80 80 47 00
        E 400 90 48 60
        E 80 80 48 00
        e 400 90 05 60
        E 0 90 42 60
        e 80 80 05 00
        E 0 80 42 00
        E 400 90 43 60
        E 80 80 43 00
        E 400 90 3f 60
        E 80 80 3f 00
        E 400 90 3f 60
        E 80 80 3f 00
        E 400 90 3b 60
        E 360 80 3b 00
        E 120 90 3c 60
        E 360 80 3c 00
        E 120 90 37 60
        E 80 80 37 00
        E 400 90 3a 60
        E 80 80 3a 00
        E 400 90 3e 60
        E 80 80 3e 00
        E 400 90 43 60
        E 80 80 43 00
        E 400 90 41 60
        E 80 80 41 00
        E 400 90 40 60
        E 80 80 40 00
        E 400 90 3e 60
        E 80 80 3e 00
        E 400 90 40 60
        E 80 80 40 00
        e 400 90 09 60
        E 0 90 3c 60
        e 80 80 09 00
        E 0 80 3c 00
        E 400 90 3c 60
        E 80 80 3c 00
        E 400 90 3f 60
        E 80 80 3f 00
        E 400 90 48 60
        E 80 80 48 00
        E 400 90 46 60
        E 80 80 46 00
        E 400 90 45 60
        E 80 80 45 00
        E 400 90 43 60
        E 80 80 43 00
        E 400 90 40 60
        E 80 80 40 00
        E 400 90 45 60
        E 360 80 45 00
        E 120 90 45 60
        E 360 80 45 00
        E 120 90 47 60
        E 360 80 47 00
        E 120 90 45 60
        E 360 80 45 00
        E 120 90 43 60
        E 80 80 43 00
        E 400 90 43 60
        E 80 80 43 00
        E 240 90 45 60
        E 80 80 45 00
        e 80 90 05 60
        e 80 80 05 00
        E 400 90 40 60
        E 80 80 40 00
        E 400 90 3e 60
        E 80 80 3e 00
        E 400 90 3e 60
        E 80 80 3e 00
        E 400 90 43 60
        E 80 80 43 00
        E 400 90 3e 60
        E 80 80 3e 00
        E 400 90 3c 60
        E 80 80 3c 00
        E 400 90 37 60
        E 80 80 37 00
        e 400 90 09 60
        E 0 90 3c 60
        e 80 80 09 00
        E 0 80 3c 00
        E 880 90 3a 60
        E 80 80 3a 00
        E 400 90 43 60
        E 80 80 43 00
        E 400 90 3b 60
        E 80 80 3b 00
        E 240 90 43 60
        E 80 80 43 00
        E 560 90 43 60
        E 80 80 43 00
        E 400 90 3b 60
        E 80 80 3b 00
        E 400 90 41 60
        E 80 80 41 00
        E 400 90 3f 60
        E 80 80 3f 00
        E 400 90 3c 60
        E 80 80 3c 00
        E 400 90 3c 60
        E 80 80 3c 00
        E 400 90 3f 60
        E 80 80 3f 00
        E 400 90 48 60
        E 80 80 48 00
        E 400 90 46 60
        E 80 80 46 00
        E 400 90 45 60
        E 80 80 45 00
        E 400 90 3f 60
        E 80 80 3f 00
        E 400 90 3c 60
        E 80 80 3c 00
        E 880 90 46 60
        E 80 80 46 00
        E 400 90 45 60
        E 80 80 45 00
        E 240 90 43 60
        E 80 80 43 00
        E 560 90 46 60
        E 80 80 46 00
        E 400 90 45 60
        E 80 80 45 00
        E 240 90 43 60
        E 80 80 43 00
        E 560 90 43 60
        E 80 80 43 00
        E 400 90 47 60
        E 80 80 47 00
        E 400 90 48 60
        E 80 80 48 00
        e 400 90 05 60
        E 0 90 42 60
        e 80 80 05 00
        E 0 80 42 00
        E 400 90 43 60
        E 80 80 43 00
        E 400 90 3f 60
        E 80 80 3f 00
        E 400 90 3f 60
        E 80 80 3f 00
        E 400 90 3b 60
        E 360 80 3b 00
        E 120 90 3c 60
        E 360 80 3c 00
        E 120 90 37 60
        E 80 80 37 00
        E 400 90 3a 60
        E 80 80 3a 00
        E 400 90 3e 60
        E 80 80 3e 00
        E 400 90 43 60
        E 80 80 43 00
        E 400 90 41 60
        E 80 80 41 00
        E 400 90 40 60
        E 80 80 40 00
        E 400 90 3e 60
        E 80 80 3e 00
        E 400 90 40 60
        E 80 80 40 00
        e 400 90 09 60
        E 0 90 3c 60
        e 80 80 09 00
        E 0 80 3c 00
        E 400 90 3c 60
        E 80 80 3c 00
        E 400 90 3f 60
        E 80 80 3f 00
        E 400 90 48 60
        E 80 80 48 00
        E 400 90 46 60
        E 80 80 46 00
        E 400 90 45 60
        E 80 80 45 00
        E 400 90 43 60
        E 80 80 43 00
        E 400 90 40 60
        E 80 80 40 00
        E 400 90 45 60
        E 360 80 45 00
        E 120 90 45 60
        E 360 80 45 00
        E 120 90 47 60
        E 360 80 47 00
        E 120 90 45 60
        E 360 80 45 00
        E 120 90 43 60
        E 80 80 43 00
        E 400 90 43 60
        E 80 80 43 00
        E 240 90 45 60
        E 80 80 45 00
        e 80 90 05 60
        e 80 80 05 00
        E 400 90 40 60
        E 80 80 40 00
        E 400 90 3e 60
        E 80 80 3e 00
        E 400 90 3e 60
        E 80 80 3e 00
        E 400 90 43 60
        E 80 80 43 00
        E 400 90 3e 60
        E 80 80 3e 00
        E 400 90 3c 60
        E 80 80 3c 00
        E 400 90 37 60
        E 80 80 37 00
        e 400 90 09 60
        E 0 90 3c 60
        e 80 80 09 00
        E 0 80 3c 00
        E 880 90 3a 60
        E 80 80 3a 00
        E 400 90 43 60
        E 80 80 43 00
        E 400 90 3b 60
        E 80 80 3b 00
        E 240 90 43 60
        E 80 80 43 00
        E 560 90 43 60
        E 80 80 43 00
        E 400 90 3b 60
        E 80 80 3b 00
        E 400 90 41 60
        E 80 80 41 00
        E 400 90 3f 60
        E 80 80 3f 00
        E 400 90 3c 60
        E 80 80 3c 00
        E 400 90 3c 60
        E 80 80 3c 00
        E 400 90 3f 60
        E 80 80 3f 00
        E 400 90 48 60
        E 80 80 48 00
        E 400 90 46 60
        E 80 80 46 00
        E 400 90 45 60
        E 80 80 45 00
        E 400 90 3f 60
        E 80 80 3f 00
        E 400 90 3c 60
        E 80 80 3c 00
        E 880 90 46 60
        E 80 80 46 00
        E 400 90 45 60
        E 80 80 45 00
        E 240 90 43 60
        E 80 80 43 00
        E 560 90 46 60
        E 80 80 46 00
        E 400 90 45 60
        E 80 80 45 00
        E 240 90 43 60
        E 80 80 43 00
        E 560 90 43 60
        E 80 80 43 00
        E 400 90 47 60
        E 80 80 47 00
        E 400 90 48 60
        E 80 80 48 00
        e 400 90 05 60
        E 0 90 42 60
        e 80 80 05 00
        E 0 80 42 00
        E 400 90 43 60
        E 80 80 43 00
        E 400 90 3f 60
        E 80 80 3f 00
        E 400 90 3f 60
        E 80 80 3f 00
        E 400 90 3b 60
        E 360 80 3b 00
        E 120 90 3c 60
        E 360 80 3c 00
        E 120 90 37 60
        E 80 80 37 00
        E 400 90 3a 60
        E 80 80 3a 00
        E 400 90 3e 60
        E 80 80 3e 00
        E 400 90 43 60
        E 80 80 43 00
        E 400 90 41 60
        E 80 80 41 00
        E 400 90 40 60
        E 80 80 40 00
        E 400 90 3e 60
        E 80 80 3e 00
        E 400 90 40 60
        E 80 80 40 00
        e 400 90 09 60
        E 0 90 3c 60
        e 80 80 09 00
        E 0 80 3c 00
        E 400 90 3c 60
        E 80 80 3c 00
        E 400 90 3f 60
        E 80 80 3f 00
        E 400 90 48 60
        E 80 80 48 00
        E 400 90 46 60
        E 80 80 46 00
        E 400 90 45 60
        E 80 80 45 00
        E 400 90 43 60
        E 80 80 43 00
        E 400 90 40 60
        E 80 80 40 00
        E 400 90 45 60
        E 360 80 45 00
        E 120 90 45 60
        E 360 80 45 00
        E 120 90 47 60
        E 360 80 47 00
        E 120 90 45 60
        E 360 80 45 00
        E 120 90 43 60
        E 80 80 43 00
        E 400 90 43 60
        E 80 80 43 00
        E 240 90 45 60
        E 80 80 45 00
        e 80 90 05 60
        e 80 80 05 00
        E 400 90 40 60
        E 80 80 40 00
        E 400 90 3e 60
        E 80 80 3e 00
        E 400 90 3e 60
        E 80 80 3e 00
        E 400 90 43 60
        E 80 80 43 00
        E 400 90 3e 60
        E 80 80 3e 00
        E 400 90 3c 60
        E 80 80 3c 00
        E 400 90 37 60
        E 80 80 37 00
        e 400 90 09 60
        E 0 90 3c 60
        e 80 80 09 00
        E 0 80 3c 00
        E 880 90 3a 60
        E 80 80 3a 00
        E 400 90 43 60
        E 80 80 43 00
        E 400 90 3b 60
        E 80 80 3b 00
        E 240 90 43 60
        E 80 80 43 00
        E 560 90 43 60
        E 80 80 43 00
        E 400 90 3b 60
        E 80 80 3b 00
        E 400 90 41 60
        E 80 80 41 00
        E 400 90 3f 60
        E 80 80 3f 00
        E 400 90 3c 60
        E 80 80 3c 00
        E 400 90 3c 60
        E 80 80 3c 00
        E 400 90 3f 60
        E 80 80 3f 00
        E 400 90 48 60
        E 80 80 48 00
        E 400 90 46 60
        E 80 80 46 00
        E 400 90 45 60
        E 80 80 45 00
        E 400 90 3f 60
        E 80 80 3f 00
        E 400 90 3c 60
        E 80 80 3c 00
        E 880 90 46 60
        E 80 80 46 00
        E 400 90 45 60
        E 80 80 45 00
        E 240 90 43 60
        E 80 80 43 00
        E 560 90 46 60
        E 80 80 46 00
        E 400 90 45 60
        E 80 80 45 00
        E 240 90 43 60
        E 80 80 43 00
        E 560 90 43 60
        E 80 80 43 00
        E 400 90 47 60
        E 80 80 47 00
        E 400 90 48 60
        E 80 80 48 00
        e 400 90 05 60
        E 0 90 42 60
        e 80 80 05 00
        E 0 80 42 00
        E 400 90 43 60
        E 80 80 43 00
        E 400 90 3f 60
        E 80 80 3f 00
        E 400 90 3f 60
        E 80 80 3f 00
        E 400 90 3b 60
        E 360 80 3b 00
        E 120 90 3c 60
        E 360 80 3c 00
        E 120 90 37 60
        E 80 80 37 00
        E 400 90 3a 60
        E 80 80 3a 00
        E 400 90 3e 60
        E 80 80 3e 00
        E 400 90 43 60
        E 80 80 43 00
        E 400 90 41 60
        E 80 80 41 00
        E 400 90 40 60
        E 80 80 40 00
        E 400 90 3e 60
        E 80 80 3e 00
        E 400 90 40 60
        E 80 80 40 00
        E 400 90 3c 60
        e 0 90 09 60
        E 80 80 3c 00
        e 0 80 09 00
        E 400 90 3c 60
        E 80 80 3c 00
        E 400 90 3f 60
        E 80 80 3f 00
        E 400 90 48 60
        E 80 80 48 00
        E 400 90 46 60
        E 80 80 46 00
        E 400 90 45 60
        E 80 80 45 00
        E 400 90 43 60
        E 80 80 43 00
        E 400 90 40 60
        E 80 80 40 00
        E 400 90 45 60
        E 360 80 45 00
        E 120 90 45 60
        E 360 80 45 00
        E 120 90 47 60
        E 360 80 47 00
        E 120 90 45 60
        E 360 80 45 00
        E 120 90 43 60
        E 80 80 43 00
        E 400 90 43 60
        E 80 80 43 00
        E 240 90 45 60
        E 80 80 45 00
        e 80 90 05 60
        e 80 80 05 00
        E 400 90 40 60
        E 80 80 40 00
        E 400 90 3e 60
        E 80 80 3e 00
        E 400 90 3e 60
        E 80 80 3e 00
        E 400 90 43 60
        E 80 80 43 00
        E 400 90 3e 60
        E 80 80 3e 00
        E 400 90 3c 60
        E 80 80 3c 00
        E 400 90 37 60
        E 80 80 37 00
        E 400 90 3c 60
        E 80 80 3c 00
        E 2800 b0 7b 00
        GUID {0E65AB77-66A2-4C27-AEC5-6F952351CA7F}
        IGNTEMPO 0 120.00000000 4 4
        SRCCOLOR 2
        VELLANE 132 128 60
        COLORMAP "C:\Program Files\REAPER (x64)\Data\color_maps\rockband_guitarbass.png"
        TEXTSTRINGFILE "C:\Program Files\REAPER (x64)\Data\Text_Strings\Text Events List - PRO Trainers.txt"
        CFGEDITVIEW -6432.000000 11.726727 0 13 0 0 0
        CFGEDIT 1 1 0 1 1 0 1 1 1 1 1 0.16666667 -8 -8 1544 872 0 2 1 1 0.00000000 0 1 0 0 0.500000 0 0 1.000000 64
        KEYSNAP 0 3 "102034050607" 0 "Major"
        EVTFILTER 0 -1 -1 -1 -1 0 1 0 0 -1.00000000 -1.00000000
      >
    >
  >
  <TRACK '{C93AD6A1-CDD5-42D2-A5B7-92F3875A45BE}'
    NAME "PART REAL_KEYS_M"
    PEAKCOL 16576
    BEAT -1
    AUTOMODE 0
    VOLPAN 1.00000000000000 0.00000000000000 -1.00000000000000 -1.00000000000000 1.00000000000000
    MUTESOLO 0 0 0
    IPHASE 0
    ISBUS 0 0
    BUSCOMP 0 0
    SHOWINMIX 1 0.666700 0.500000 1 0.500000 -1 -1 -1
    FREEMODE 0
    SEL 0
    REC 0 0 0 0 0 0 0
    VU 2
    TRACKHEIGHT 0 0
    INQ 0 0 0 0.5000000000 100 0 0 100
    NCHAN 2
    FX 0
    TRACKID {C93AD6A1-CDD5-42D2-A5B7-92F3875A45BE}
    PERF 0
    MIDIOUT -1
    <MIDINOTENAMES
      0 127 "TRILL MARKER"
      0 126 "GLISSANDO MARKER"
      0 125 "---"
      0 116 "OVERDRIVE"
      0 115 "SOLO"
      0 114 "---"
      0 72 "Highest playable note B#3"
      0 71 "B3"
      0 70 "A#3"
      0 69 "A3"
      0 68 "G#3"
      0 67 "G3"
      0 66 "F#3"
      0 65 "F3"
      0 64 "E3"
      0 63 "D#3"
      0 62 "D3"
      0 61 "C#3"
      0 60 "C3"
      0 59 "B2"
      0 58 "A#2"
      0 57 "A2"
      0 56 "G#2"
      0 55 "G2"
      0 54 "F#2"
      0 53 "F2"
      0 52 "E2"
      0 51 "D#2"
      0 50 "D2"
      0 49 "C#2"
      0 48 "Lowest playable note C2"
      0 10 "---"
      0 9 "Range A2-C4"
      0 8 "Range"
      0 7 "Range"
      0 6 "Range"
      0 5 "Range F2-A3"
      0 4 "Range"
      0 3 "Range"
      0 2 "Range"
      0 1 "Range"
      0 0 "Range C2-E3"
    >
    MAINSEND 1 0
    <FXCHAIN
      WNDRECT 0 43 695 467
      SHOW 0
      LASTSEL 0
      DOCKED 0
    >
    <ITEM
      POSITION 0.00000000000000
      SNAPOFFS 0.00000000000000
      LENGTH 107.21429523936526
      LOOP 0
      ALLTAKES 0
      SEL 0
      FADEIN 1 0.000000 0.000000 1 0
      FADEOUT 1 0.000000 0.000000 1 0
      MUTE 0
      IGUID {D1F85650-4788-4374-9EAC-66EBC1AF760A}
      IID 19
      NAME "PART REAL_KEYS_M"
      VOLPAN 1.000000 0.000000 1.000000 -1.000000
      SOFFS 0.00000000000000 0.00000000000000
      PLAYRATE 1.00000000000000 1 0.00000000000000 -1
      CHANMODE 0
      GUID {2A4913C6-9049-4E01-9F0E-E9CED352C484}
      <SOURCE MIDI
        HASDATA 1 480 QN
        POOLEDEVTS {547D3B4E-BEE1-4DA5-A6A1-D4DFD86E8FCD}
        <X 0 0
          /wNQQVJUIFJFQUxfS0VZU19N
        >
        e 0 90 09 60
        e 160 80 09 00 -40
        e 4160 90 43 60
        e 80 80 43 00
        e 720 90 43 60
        e 80 80 43 00
        e 560 90 43 60
        e 80 80 43 00
        e 880 90 41 60
        e 80 80 41 00
        e 880 90 3c 60
        e 80 80 3c 00
        e 1360 90 48 60
        e 80 80 48 00
        e 1360 90 3f 60
        e 80 80 3f 00
        e 1360 90 46 60
        e 80 80 46 00
        e 400 90 45 60
        e 80 80 45 00
        e 880 90 46 60
        e 80 80 46 00
        e 400 90 45 60
        e 80 80 45 00
        e 1360 90 47 60
        e 80 80 47 00
        e 880 90 42 60
        e 80 80 42 00
        e 880 90 3f 60
        e 80 80 3f 00
        e 880 90 3b 60
        e 80 80 3b 00
        e 1360 90 3a 60
        e 80 80 3a 00
        e 880 90 43 60
        e 80 80 43 00
        e 1360 90 3e 60
        e 80 80 3e 00
        e 880 90 3c 60
        e 80 80 3c 00
        e 1360 90 48 60
        e 80 80 48 00
        e 400 90 46 60
        e 80 80 46 00
        e 880 90 43 60
        e 80 80 43 00
        e 880 90 45 60
        e 80 80 45 00
        e 880 90 47 60
        e 80 80 47 00
        e 400 90 45 60
        e 80 80 45 00
        e 400 90 43 60
        e 80 80 43 00
        e 1840 90 3e 60
        e 80 80 3e 00
        e 1840 90 3c 60
        e 80 80 3c 00
        e 880 90 3c 60
        e 80 80 3c 00
        e 1360 90 43 60
        e 80 80 43 00
        e 720 90 43 60
        e 80 80 43 00
        e 560 90 43 60
        e 80 80 43 00
        e 880 90 41 60
        e 80 80 41 00
        e 880 90 3c 60
        e 80 80 3c 00
        e 1360 90 48 60
        e 80 80 48 00
        e 1360 90 3f 60
        e 80 80 3f 00
        e 1360 90 46 60
        e 80 80 46 00
        e 400 90 45 60
        e 80 80 45 00
        e 880 90 46 60
        e 80 80 46 00
        e 400 90 45 60
        e 80 80 45 00
        e 1360 90 47 60
        e 80 80 47 00
        e 880 90 42 60
        e 80 80 42 00
        e 880 90 3f 60
        e 80 80 3f 00
        e 880 90 3b 60
        e 80 80 3b 00
        e 1360 90 3a 60
        e 80 80 3a 00
        e 880 90 43 60
        e 80 80 43 00
        e 1360 90 3e 60
        e 80 80 3e 00
        e 880 90 3c 60
        e 80 80 3c 00
        e 1360 90 48 60
        e 80 80 48 00
        e 400 90 46 60
        e 80 80 46 00
        e 880 90 43 60
        e 80 80 43 00
        e 880 90 45 60
        e 80 80 45 00
        e 880 90 47 60
        e 80 80 47 00
        e 400 90 45 60
        e 80 80 45 00
        e 400 90 43 60
        e 80 80 43 00
        e 1840 90 3e 60
        e 80 80 3e 00
        e 1840 90 3c 60
        e 80 80 3c 00
        e 880 90 3c 60
        e 80 80 3c 00
        e 1360 90 43 60
        e 80 80 43 00
        e 720 90 43 60
        e 80 80 43 00
        e 560 90 43 60
        e 80 80 43 00
        e 880 90 41 60
        e 80 80 41 00
        e 880 90 3c 60
        e 80 80 3c 00
        e 1360 90 48 60
        e 80 80 48 00
        e 1360 90 3f 60
        e 80 80 3f 00
        e 1360 90 46 60
        e 80 80 46 00
        e 400 90 45 60
        e 80 80 45 00
        e 880 90 46 60
        e 80 80 46 00
        e 400 90 45 60
        e 80 80 45 00
        e 1360 90 47 60
        e 80 80 47 00
        e 880 90 42 60
        e 80 80 42 00
        e 880 90 3f 60
        e 80 80 3f 00
        e 880 90 3b 60
        e 80 80 3b 00
        e 1360 90 3a 60
        e 80 80 3a 00
        e 880 90 43 60
        e 80 80 43 00
        e 1360 90 3e 60
        e 80 80 3e 00
        e 880 90 3c 60
        e 80 80 3c 00
        e 1360 90 48 60
        e 80 80 48 00
        e 400 90 46 60
        e 80 80 46 00
        e 880 90 43 60
        e 80 80 43 00
        e 880 90 45 60
        e 80 80 45 00
        e 880 90 47 60
        e 80 80 47 00
        e 400 90 45 60
        e 80 80 45 00
        e 400 90 43 60
        e 80 80 43 00
        e 1840 90 3e 60
        e 80 80 3e 00
        e 1840 90 3c 60
        e 80 80 3c 00
        e 880 90 3c 60
        e 80 80 3c 00
        e 1360 90 43 60
        e 80 80 43 00
        e 720 90 43 60
        e 80 80 43 00
        e 560 90 43 60
        e 80 80 43 00
        e 880 90 41 60
        e 80 80 41 00
        e 880 90 3c 60
        e 80 80 3c 00
        e 1360 90 48 60
        e 80 80 48 00
        e 1360 90 3f 60
        e 80 80 3f 00
        e 1360 90 46 60
        e 80 80 46 00
        e 400 90 45 60
        e 80 80 45 00
        e 880 90 46 60
        e 80 80 46 00
        e 400 90 45 60
        e 80 80 45 00
        e 1360 90 47 60
        e 80 80 47 00
        e 880 90 42 60
        e 80 80 42 00
        e 880 90 3f 60
        e 80 80 3f 00
        e 880 90 3b 60
        e 80 80 3b 00
        e 1360 90 3a 60
        e 80 80 3a 00
        e 880 90 43 60
        e 80 80 43 00
        e 1360 90 3e 60
        e 80 80 3e 00
        e 880 90 3c 60
        e 80 80 3c 00
        e 1360 90 48 60
        e 80 80 48 00
        e 400 90 46 60
        e 80 80 46 00
        e 880 90 43 60
        e 80 80 43 00
        e 880 90 45 60
        e 80 80 45 00
        e 880 90 47 60
        e 80 80 47 00
        e 400 90 45 60
        e 80 80 45 00
        e 400 90 43 60
        e 80 80 43 00
        e 1840 90 3e 60
        e 80 80 3e 00
        e 1840 90 3c 60
        e 80 80 3c 00
        e 880 90 3c 60
        e 80 80 3c 00
        E 2800 b0 7b 00
        GUID {0E65AB77-66A2-4C27-AEC5-6F952351CA7F}
        IGNTEMPO 0 120.00000000 4 4
        SRCCOLOR 2
        VELLANE 132 128 60
        COLORMAP "C:\Program Files\REAPER (x64)\Data\color_maps\rockband_guitarbass.png"
        TEXTSTRINGFILE "C:\Program Files\REAPER (x64)\Data\Text_Strings\Text Events List - PRO Trainers.txt"
        CFGEDITVIEW -8362.172752 10.474350 0 13 0 0 0
        CFGEDIT 1 1 0 1 1 0 1 1 1 1 1 0.16666667 -8 -8 1370 736 0 2 1 1 0.00000000 0 1 1 0 0.500000 0 0 1.000000 64
        KEYSNAP 0 3 "102034050607" 0 "Major"
        EVTFILTER 0 -1 -1 -1 -1 0 1 0 0 -1.00000000 -1.00000000
      >
    >
  >
  <TRACK '{40DF3D4B-6B90-484D-9F86-F354BEAF93A2}'
    NAME "PART REAL_KEYS_E"
    PEAKCOL 16576
    BEAT -1
    AUTOMODE 0
    VOLPAN 1.00000000000000 0.00000000000000 -1.00000000000000 -1.00000000000000 1.00000000000000
    MUTESOLO 0 0 0
    IPHASE 0
    ISBUS 0 0
    BUSCOMP 0 0
    SHOWINMIX 1 0.666700 0.500000 1 0.500000 -1 -1 -1
    FREEMODE 0
    SEL 0
    REC 0 0 0 0 0 0 0
    VU 2
    TRACKHEIGHT 0 0
    INQ 0 0 0 0.5000000000 100 0 0 100
    NCHAN 2
    FX 0
    TRACKID {40DF3D4B-6B90-484D-9F86-F354BEAF93A2}
    PERF 0
    MIDIOUT -1
    <MIDINOTENAMES
      0 127 "TRILL MARKER"
      0 126 "GLISSANDO MARKER"
      0 125 "---"
      0 116 "OVERDRIVE"
      0 115 "SOLO"
      0 114 "---"
      0 72 "Highest playable note B#3"
      0 71 "B3"
      0 70 "A#3"
      0 69 "A3"
      0 68 "G#3"
      0 67 "G3"
      0 66 "F#3"
      0 65 "F3"
      0 64 "E3"
      0 63 "D#3"
      0 62 "D3"
      0 61 "C#3"
      0 60 "C3"
      0 59 "B2"
      0 58 "A#2"
      0 57 "A2"
      0 56 "G#2"
      0 55 "G2"
      0 54 "F#2"
      0 53 "F2"
      0 52 "E2"
      0 51 "D#2"
      0 50 "D2"
      0 49 "C#2"
      0 48 "Lowest playable note C2"
      0 10 "---"
      0 9 "Range A2-C4"
      0 8 "Range"
      0 7 "Range"
      0 6 "Range"
      0 5 "Range F2-A3"
      0 4 "Range"
      0 3 "Range"
      0 2 "Range"
      0 1 "Range"
      0 0 "Range C2-E3"
    >
    MAINSEND 1 0
    <FXCHAIN
      WNDRECT 0 43 695 467
      SHOW 0
      LASTSEL 0
      DOCKED 0
    >
    <ITEM
      POSITION 0.00000000000000
      SNAPOFFS 0.00000000000000
      LENGTH 107.21429523936526
      LOOP 0
      ALLTAKES 0
      SEL 0
      FADEIN 1 0.000000 0.000000 1 0
      FADEOUT 1 0.000000 0.000000 1 0
      MUTE 0
      IGUID {D1F85650-4788-4374-9EAC-66EBC1AF760A}
      IID 19
      NAME "PART REAL_KEYS_E"
      VOLPAN 1.000000 0.000000 1.000000 -1.000000
      SOFFS 0.00000000000000 0.00000000000000
      PLAYRATE 1.00000000000000 1 0.00000000000000 -1
      CHANMODE 0
      GUID {2A4913C6-9049-4E01-9F0E-E9CED352C484}
      <SOURCE MIDI
        HASDATA 1 480 QN
        POOLEDEVTS {6C7C6AED-890A-4233-8032-5BBDDEAFC12B}
        <X 0 0
          /wNQQVJUIFJFQUxfS0VZU19F
        >
        e 0 90 09 60
        e 160 80 09 00 -40
        e 4160 90 43 60
        e 80 80 43 00
        e 720 90 43 60
        e 80 80 43 00
        e 560 90 43 60
        e 80 80 43 00
        e 880 90 41 60
        e 80 80 41 00
        e 880 90 3c 60
        e 80 80 3c 00
        e 1360 90 48 60
        e 80 80 48 00
        e 1360 90 3f 60
        e 80 80 3f 00
        e 1360 90 46 60
        e 80 80 46 00
        e 400 90 45 60
        e 80 80 45 00
        e 880 90 46 60
        e 80 80 46 00
        e 720 90 45 60
        e 80 80 45 00
        e 1040 90 47 60
        e 80 80 47 00
        e 1840 90 3f 60
        e 80 80 3f 00
        e 880 90 3b 60
        e 80 80 3b 00
        e 2320 90 43 60
        e 80 80 43 00
        e 1360 90 3e 60
        e 80 80 3e 00
        e 880 90 3c 60
        e 80 80 3c 00
        e 1360 90 48 60
        e 80 80 48 00
        e 1360 90 43 60
        e 80 80 43 00
        e 880 90 45 60
        e 80 80 45 00
        e 880 90 47 60
        e 80 80 47 00
        e 880 90 43 60
        e 80 80 43 00
        e 1840 90 3e 60
        e 80 80 3e 00
        e 1840 90 3c 60
        e 80 80 3c 00
        e 880 90 3c 60
        e 80 80 3c 00
        e 1360 90 43 60
        e 80 80 43 00
        e 720 90 43 60
        e 80 80 43 00
        e 560 90 43 60
        e 80 80 43 00
        e 880 90 41 60
        e 80 80 41 00
        e 880 90 3c 60
        e 80 80 3c 00
        e 1360 90 48 60
        e 80 80 48 00
        e 1360 90 3f 60
        e 80 80 3f 00
        e 1360 90 46 60
        e 80 80 46 00
        e 400 90 45 60
        e 80 80 45 00
        e 880 90 46 60
        e 80 80 46 00
        e 720 90 45 60
        e 80 80 45 00
        e 1040 90 47 60
        e 80 80 47 00
        e 1840 90 3f 60
        e 80 80 3f 00
        e 880 90 3b 60
        e 80 80 3b 00
        e 2320 90 43 60
        e 80 80 43 00
        e 1360 90 3e 60
        e 80 80 3e 00
        e 880 90 3c 60
        e 80 80 3c 00
        e 1360 90 48 60
        e 80 80 48 00
        e 1360 90 43 60
        e 80 80 43 00
        e 880 90 45 60
        e 80 80 45 00
        e 880 90 47 60
        e 80 80 47 00
        e 880 90 43 60
        e 80 80 43 00
        e 1840 90 3e 60
        e 80 80 3e 00
        e 1840 90 3c 60
        e 80 80 3c 00
        e 880 90 3c 60
        e 80 80 3c 00
        e 1360 90 43 60
        e 80 80 43 00
        e 720 90 43 60
        e 80 80 43 00
        e 560 90 43 60
        e 80 80 43 00
        e 880 90 41 60
        e 80 80 41 00
        e 880 90 3c 60
        e 80 80 3c 00
        e 1360 90 48 60
        e 80 80 48 00
        e 1360 90 3f 60
        e 80 80 3f 00
        e 1360 90 46 60
        e 80 80 46 00
        e 400 90 45 60
        e 80 80 45 00
        e 880 90 46 60
        e 80 80 46 00
        e 720 90 45 60
        e 80 80 45 00
        e 1040 90 47 60
        e 80 80 47 00
        e 1840 90 3f 60
        e 80 80 3f 00
        e 880 90 3b 60
        e 80 80 3b 00
        e 2320 90 43 60
        e 80 80 43 00
        e 1360 90 3e 60
        e 80 80 3e 00
        e 880 90 3c 60
        e 80 80 3c 00
        e 1360 90 48 60
        e 80 80 48 00
        e 1360 90 43 60
        e 80 80 43 00
        e 880 90 45 60
        e 80 80 45 00
        e 880 90 47 60
        e 80 80 47 00
        e 880 90 43 60
        e 80 80 43 00
        e 1840 90 3e 60
        e 80 80 3e 00
        e 1840 90 3c 60
        e 80 80 3c 00
        e 880 90 3c 60
        e 80 80 3c 00
        e 1360 90 43 60
        e 80 80 43 00
        e 720 90 43 60
        e 80 80 43 00
        e 560 90 43 60
        e 80 80 43 00
        e 880 90 41 60
        e 80 80 41 00
        e 880 90 3c 60
        e 80 80 3c 00
        e 1360 90 48 60
        e 80 80 48 00
        e 1360 90 3f 60
        e 80 80 3f 00
        e 1360 90 46 60
        e 80 80 46 00
        e 400 90 45 60
        e 80 80 45 00
        e 880 90 46 60
        e 80 80 46 00
        e 720 90 45 60
        e 80 80 45 00
        e 1040 90 47 60
        e 80 80 47 00
        e 1840 90 3f 60
        e 80 80 3f 00
        e 880 90 3b 60
        e 80 80 3b 00
        e 2320 90 43 60
        e 80 80 43 00
        e 1360 90 3e 60
        e 80 80 3e 00
        e 880 90 3c 60
        e 80 80 3c 00
        e 1360 90 48 60
        e 80 80 48 00
        e 1360 90 43 60
        e 80 80 43 00
        e 880 90 45 60
        e 80 80 45 00
        e 880 90 47 60
        e 80 80 47 00
        e 880 90 43 60
        e 80 80 43 00
        e 1840 90 3e 60
        e 80 80 3e 00
        e 1840 90 3c 60
        e 80 80 3c 00
        e 880 90 3c 60
        e 80 80 3c 00
        E 2800 b0 7b 00
        GUID {0E65AB77-66A2-4C27-AEC5-6F952351CA7F}
        IGNTEMPO 0 120.00000000 4 4
        SRCCOLOR 2
        VELLANE 132 128 60
        COLORMAP "C:\Program Files\REAPER (x64)\Data\color_maps\rockband_guitarbass.png"
        TEXTSTRINGFILE "C:\Program Files\REAPER (x64)\Data\Text_Strings\Text Events List - PRO Trainers.txt"
        CFGEDITVIEW -8362.172752 10.474350 0 13 0 0 0
        CFGEDIT 1 1 0 1 1 0 1 1 1 1 1 0.16666667 -8 -8 1370 736 0 2 1 1 0.00000000 0 1 1 0 0.500000 0 0 1.000000 64
        KEYSNAP 0 3 "102034050607" 0 "Major"
        EVTFILTER 0 -1 -1 -1 -1 0 1 0 0 -1.00000000 -1.00000000
      >
    >
  >
  <TRACK '{DDD8EFBD-EEB1-421B-8EA5-FD076C782815}'
    NAME "PART KEYS_ANIM_RH"
    PEAKCOL 16576
    BEAT -1
    AUTOMODE 0
    VOLPAN 1.00000000000000 0.00000000000000 -1.00000000000000 -1.00000000000000 1.00000000000000
    MUTESOLO 0 0 0
    IPHASE 0
    ISBUS 0 0
    BUSCOMP 0 0
    SHOWINMIX 1 0.666700 0.500000 1 0.500000 -1 -1 -1
    FREEMODE 0
    SEL 0
    REC 0 0 0 0 0 0 0
    VU 2
    TRACKHEIGHT 0 0
    INQ 0 0 0 0.5000000000 100 0 0 100
    NCHAN 2
    FX 0
    TRACKID {DDD8EFBD-EEB1-421B-8EA5-FD076C782815}
    PERF 0
    MIDIOUT -1
    <MIDINOTENAMES
      0 72 "Highest playable note B#3"
      0 71 "B3"
      0 70 "A#3"
      0 69 "A3"
      0 68 "G#3"
      0 67 "G3"
      0 66 "F#3"
      0 65 "F3"
      0 64 "E3"
      0 63 "D#3"
      0 62 "D3"
      0 61 "C#3"
      0 60 "C3"
      0 59 "B2"
      0 58 "A#2"
      0 57 "A2"
      0 56 "G#2"
      0 55 "G2"
      0 54 "F#2"
      0 53 "F2"
      0 52 "E2"
      0 51 "D#2"
      0 50 "D2"
      0 49 "C#2"
      0 48 "Lowest playable note C2"
    >
    MAINSEND 1 0
    <FXCHAIN
      WNDRECT 0 43 695 467
      SHOW 0
      LASTSEL 0
      DOCKED 0
    >
    <ITEM
      POSITION 0.00000000000000
      SNAPOFFS 0.00000000000000
      LENGTH 107.21429523936526
      LOOP 0
      ALLTAKES 0
      SEL 0
      FADEIN 1 0.000000 0.000000 1 0
      FADEOUT 1 0.000000 0.000000 1 0
      MUTE 0
      IGUID {D1F85650-4788-4374-9EAC-66EBC1AF760A}
      IID 19
      NAME "PART KEYS_ANIM_RH"
      VOLPAN 1.000000 0.000000 1.000000 -1.000000
      SOFFS 0.00000000000000 0.00000000000000
      PLAYRATE 1.00000000000000 1 0.00000000000000 -1
      CHANMODE 0
      GUID {2A4913C6-9049-4E01-9F0E-E9CED352C484}
      <SOURCE MIDI
        HASDATA 1 480 QN
        POOLEDEVTS {300203D0-4BCF-4FD7-A978-98A27B29EBF6}
        <X 0 0
          /wNQQVJUIEtFWVNfQU5JTV9SSA==
        >
        E 3840 90 3a 60
        E 80 80 3a 00
        E 240 90 3b 60
        E 80 80 3b 00
        E 80 90 43 60
        E 80 80 43 00
        E 240 90 3a 60
        E 80 80 3a 00
        E 80 90 3b 60
        E 80 80 3b 00
        E 240 90 43 60
        E 80 80 43 00
        E 80 90 3a 60
        E 80 80 3a 00
        E 240 90 3b 60
        E 80 80 3b 00
        E 80 90 43 60
        E 80 80 43 00
        E 240 90 3a 60
        E 80 80 3a 00
        E 80 90 3b 60
        E 80 80 3b 00
        E 240 90 43 60
        E 80 80 43 00
        E 80 90 41 60
        E 80 80 41 00
        E 240 90 40 60
        E 80 80 40 00
        E 80 90 3f 60
        E 80 80 3f 00
        E 240 90 3e 60
        E 80 80 3e 00
        E 80 90 3c 60
        E 80 80 3c 00
        E 400 90 3c 60
        E 80 80 3c 00
        E 240 90 3e 60
        E 80 80 3e 00
        E 80 90 3f 60
        E 80 80 3f 00
        E 240 90 40 60
        E 80 80 40 00
        E 80 90 48 60
        E 80 80 48 00
        E 400 90 46 60
        E 80 80 46 00
        E 400 90 45 60
        E 80 80 45 00
        E 400 90 3f 60
        E 80 80 3f 00
        E 240 90 40 60
        E 80 80 40 00
        E 80 90 3c 60
        E 80 80 3c 00
        E 720 90 47 60
        E 80 80 47 00
        E 80 90 46 60
        E 80 80 46 00
        E 240 90 47 60
        E 80 80 47 00
        E 80 90 45 60
        E 80 80 45 00
        E 240 90 43 60
        E 80 80 43 00
        E 400 90 47 60
        E 80 80 47 00
        E 80 90 46 60
        E 80 80 46 00
        E 240 90 47 60
        E 80 80 47 00
        E 80 90 45 60
        E 80 80 45 00
        E 240 90 43 60
        E 80 80 43 00
        E 400 90 45 60
        E 80 80 45 00
        E 80 90 43 60
        E 80 80 43 00
        E 240 90 45 60
        E 80 80 45 00
        E 80 90 47 60
        E 80 80 47 00
        E 400 90 48 60
        E 80 80 48 00
        E 400 90 42 60
        E 80 80 42 00
        E 400 90 43 60
        E 80 80 43 00
        E 400 90 3f 60
        E 80 80 3f 00
        E 240 90 40 60
        E 80 80 40 00
        E 80 90 3f 60
        E 80 80 3f 00
        E 240 90 40 60
        E 80 80 40 00
        E 80 90 3b 60
        E 360 80 3b 00
        E 120 90 3c 60
        E 360 80 3c 00
        E 120 90 37 60
        E 80 80 37 00
        E 240 90 36 60
        E 80 80 36 00
        E 80 90 3a 60
        E 80 80 3a 00
        E 240 90 3b 60
        E 80 80 3b 00
        E 80 90 3e 60
        E 80 80 3e 00
        E 240 90 3b 60
        E 80 80 3b 00
        E 80 90 43 60
        E 80 80 43 00
        E 400 90 41 60
        E 80 80 41 00
        E 240 90 37 60
        E 80 80 37 00
        E 80 90 40 60
        E 80 80 40 00
        E 240 90 37 60
        E 80 80 37 00
        E 80 90 3e 60
        E 80 80 3e 00
        E 240 90 3f 60
        E 80 80 3f 00
        E 80 90 40 60
        E 80 80 40 00
        E 240 90 37 60
        E 80 80 37 00
        E 80 90 3c 60
        E 80 80 3c 00
        E 400 90 3c 60
        E 80 80 3c 00
        E 240 90 3e 60
        E 80 80 3e 00
        E 80 90 3f 60
        E 80 80 3f 00
        E 240 90 40 60
        E 80 80 40 00
        E 80 90 48 60
        E 80 80 48 00
        E 400 90 46 60
        E 80 80 46 00
        E 400 90 45 60
        E 80 80 45 00
        E 400 90 43 60
        E 80 80 43 00
        E 400 90 40 60
        E 80 80 40 00
        E 400 90 45 60
        E 360 80 45 00
        E 120 90 45 60
        E 360 80 45 00
        E 120 90 47 60
        E 360 80 47 00
        E 120 90 45 60
        E 360 80 45 00
        E 120 90 43 60
        E 80 80 43 00
        E 240 90 42 60
        E 80 80 42 00
        E 80 90 43 60
        E 80 80 43 00
        E 240 90 45 60
        E 80 80 45 00
        E 400 90 43 60
        E 80 80 43 00
        E 80 90 40 60
        E 80 80 40 00
        E 400 90 3e 60
        E 80 80 3e 00
        E 400 90 3e 60
        E 80 80 3e 00
        E 400 90 43 60
        E 80 80 43 00
        E 240 90 3f 60
        E 80 80 3f 00
        E 80 90 3e 60
        E 80 80 3e 00
        E 400 90 3c 60
        E 80 80 3c 00
        E 400 90 37 60
        E 80 80 37 00
        E 400 90 3c 60
        E 80 80 3c 00
        E 880 90 3a 60
        E 80 80 3a 00
        E 240 90 3b 60
        E 80 80 3b 00
        E 80 90 43 60
        E 80 80 43 00
        E 240 90 3a 60
        E 80 80 3a 00
        E 80 90 3b 60
        E 80 80 3b 00
        E 240 90 43 60
        E 80 80 43 00
        E 80 90 3a 60
        E 80 80 3a 00
        E 240 90 3b 60
        E 80 80 3b 00
        E 80 90 43 60
        E 80 80 43 00
        E 240 90 3a 60
        E 80 80 3a 00
        E 80 90 3b 60
        E 80 80 3b 00
        E 240 90 43 60
        E 80 80 43 00
        E 80 90 41 60
        E 80 80 41 00
        E 240 90 40 60
        E 80 80 40 00
        E 80 90 3f 60
        E 80 80 3f 00
        E 240 90 3e 60
        E 80 80 3e 00
        E 80 90 3c 60
        E 80 80 3c 00
        E 400 90 3c 60
        E 80 80 3c 00
        E 240 90 3e 60
        E 80 80 3e 00
        E 80 90 3f 60
        E 80 80 3f 00
        E 240 90 40 60
        E 80 80 40 00
        E 80 90 48 60
        E 80 80 48 00
        E 400 90 46 60
        E 80 80 46 00
        E 400 90 45 60
        E 80 80 45 00
        E 400 90 3f 60
        E 80 80 3f 00
        E 240 90 40 60
        E 80 80 40 00
        E 80 90 3c 60
        E 80 80 3c 00
        E 720 90 47 60
        E 80 80 47 00
        E 80 90 46 60
        E 80 80 46 00
        E 240 90 47 60
        E 80 80 47 00
        E 80 90 45 60
        E 80 80 45 00
        E 240 90 43 60
        E 80 80 43 00
        E 400 90 47 60
        E 80 80 47 00
        E 80 90 46 60
        E 80 80 46 00
        E 240 90 47 60
        E 80 80 47 00
        E 80 90 45 60
        E 80 80 45 00
        E 240 90 43 60
        E 80 80 43 00
        E 400 90 45 60
        E 80 80 45 00
        E 80 90 43 60
        E 80 80 43 00
        E 240 90 45 60
        E 80 80 45 00
        E 80 90 47 60
        E 80 80 47 00
        E 400 90 48 60
        E 80 80 48 00
        E 400 90 42 60
        E 80 80 42 00
        E 400 90 43 60
        E 80 80 43 00
        E 400 90 3f 60
        E 80 80 3f 00
        E 240 90 40 60
        E 80 80 40 00
        E 80 90 3f 60
        E 80 80 3f 00
        E 240 90 40 60
        E 80 80 40 00
        E 80 90 3b 60
        E 360 80 3b 00
        E 120 90 3c 60
        E 360 80 3c 00
        E 120 90 37 60
        E 80 80 37 00
        E 240 90 36 60
        E 80 80 36 00
        E 80 90 3a 60
        E 80 80 3a 00
        E 240 90 3b 60
        E 80 80 3b 00
        E 80 90 3e 60
        E 80 80 3e 00
        E 240 90 3b 60
        E 80 80 3b 00
        E 80 90 43 60
        E 80 80 43 00
        E 400 90 41 60
        E 80 80 41 00
        E 240 90 37 60
        E 80 80 37 00
        E 80 90 40 60
        E 80 80 40 00
        E 240 90 37 60
        E 80 80 37 00
        E 80 90 3e 60
        E 80 80 3e 00
        E 240 90 3f 60
        E 80 80 3f 00
        E 80 90 40 60
        E 80 80 40 00
        E 240 90 37 60
        E 80 80 37 00
        E 80 90 3c 60
        E 80 80 3c 00
        E 400 90 3c 60
        E 80 80 3c 00
        E 240 90 3e 60
        E 80 80 3e 00
        E 80 90 3f 60
        E 80 80 3f 00
        E 240 90 40 60
        E 80 80 40 00
        E 80 90 48 60
        E 80 80 48 00
        E 400 90 46 60
        E 80 80 46 00
        E 400 90 45 60
        E 80 80 45 00
        E 400 90 43 60
        E 80 80 43 00
        E 400 90 40 60
        E 80 80 40 00
        E 400 90 45 60
        E 360 80 45 00
        E 120 90 45 60
        E 360 80 45 00
        E 120 90 47 60
        E 360 80 47 00
        E 120 90 45 60
        E 360 80 45 00
        E 120 90 43 60
        E 80 80 43 00
        E 240 90 42 60
        E 80 80 42 00
        E 80 90 43 60
        E 80 80 43 00
        E 240 90 45 60
        E 80 80 45 00
        E 400 90 43 60
        E 80 80 43 00
        E 80 90 40 60
        E 80 80 40 00
        E 400 90 3e 60
        E 80 80 3e 00
        E 400 90 3e 60
        E 80 80 3e 00
        E 400 90 43 60
        E 80 80 43 00
        E 240 90 3f 60
        E 80 80 3f 00
        E 80 90 3e 60
        E 80 80 3e 00
        E 400 90 3c 60
        E 80 80 3c 00
        E 400 90 37 60
        E 80 80 37 00
        E 400 90 3c 60
        E 80 80 3c 00
        E 880 90 3a 60
        E 80 80 3a 00
        E 240 90 3b 60
        E 80 80 3b 00
        E 80 90 43 60
        E 80 80 43 00
        E 240 90 3a 60
        E 80 80 3a 00
        E 80 90 3b 60
        E 80 80 3b 00
        E 240 90 43 60
        E 80 80 43 00
        E 80 90 3a 60
        E 80 80 3a 00
        E 240 90 3b 60
        E 80 80 3b 00
        E 80 90 43 60
        E 80 80 43 00
        E 240 90 3a 60
        E 80 80 3a 00
        E 80 90 3b 60
        E 80 80 3b 00
        E 240 90 43 60
        E 80 80 43 00
        E 80 90 41 60
        E 80 80 41 00
        E 240 90 40 60
        E 80 80 40 00
        E 80 90 3f 60
        E 80 80 3f 00
        E 240 90 3e 60
        E 80 80 3e 00
        E 80 90 3c 60
        E 80 80 3c 00
        E 400 90 3c 60
        E 80 80 3c 00
        E 240 90 3e 60
        E 80 80 3e 00
        E 80 90 3f 60
        E 80 80 3f 00
        E 240 90 40 60
        E 80 80 40 00
        E 80 90 48 60
        E 80 80 48 00
        E 400 90 46 60
        E 80 80 46 00
        E 400 90 45 60
        E 80 80 45 00
        E 400 90 3f 60
        E 80 80 3f 00
        E 240 90 40 60
        E 80 80 40 00
        E 80 90 3c 60
        E 80 80 3c 00
        E 720 90 47 60
        E 80 80 47 00
        E 80 90 46 60
        E 80 80 46 00
        E 240 90 47 60
        E 80 80 47 00
        E 80 90 45 60
        E 80 80 45 00
        E 240 90 43 60
        E 80 80 43 00
        E 400 90 47 60
        E 80 80 47 00
        E 80 90 46 60
        E 80 80 46 00
        E 240 90 47 60
        E 80 80 47 00
        E 80 90 45 60
        E 80 80 45 00
        E 240 90 43 60
        E 80 80 43 00
        E 400 90 45 60
        E 80 80 45 00
        E 80 90 43 60
        E 80 80 43 00
        E 240 90 45 60
        E 80 80 45 00
        E 80 90 47 60
        E 80 80 47 00
        E 400 90 48 60
        E 80 80 48 00
        E 400 90 42 60
        E 80 80 42 00
        E 400 90 43 60
        E 80 80 43 00
        E 400 90 3f 60
        E 80 80 3f 00
        E 240 90 40 60
        E 80 80 40 00
        E 80 90 3f 60
        E 80 80 3f 00
        E 240 90 40 60
        E 80 80 40 00
        E 80 90 3b 60
        E 360 80 3b 00
        E 120 90 3c 60
        E 360 80 3c 00
        E 120 90 37 60
        E 80 80 37 00
        E 240 90 36 60
        E 80 80 36 00
        E 80 90 3a 60
        E 80 80 3a 00
        E 240 90 3b 60
        E 80 80 3b 00
        E 80 90 3e 60
        E 80 80 3e 00
        E 240 90 3b 60
        E 80 80 3b 00
        E 80 90 43 60
        E 80 80 43 00
        E 400 90 41 60
        E 80 80 41 00
        E 240 90 37 60
        E 80 80 37 00
        E 80 90 40 60
        E 80 80 40 00
        E 240 90 37 60
        E 80 80 37 00
        E 80 90 3e 60
        E 80 80 3e 00
        E 240 90 3f 60
        E 80 80 3f 00
        E 80 90 40 60
        E 80 80 40 00
        E 240 90 37 60
        E 80 80 37 00
        E 80 90 3c 60
        E 80 80 3c 00
        E 400 90 3c 60
        E 80 80 3c 00
        E 240 90 3e 60
        E 80 80 3e 00
        E 80 90 3f 60
        E 80 80 3f 00
        E 240 90 40 60
        E 80 80 40 00
        E 80 90 48 60
        E 80 80 48 00
        E 400 90 46 60
        E 80 80 46 00
        E 400 90 45 60
        E 80 80 45 00
        E 400 90 43 60
        E 80 80 43 00
        E 400 90 40 60
        E 80 80 40 00
        E 400 90 45 60
        E 360 80 45 00
        E 120 90 45 60
        E 360 80 45 00
        E 120 90 47 60
        E 360 80 47 00
        E 120 90 45 60
        E 360 80 45 00
        E 120 90 43 60
        E 80 80 43 00
        E 240 90 42 60
        E 80 80 42 00
        E 80 90 43 60
        E 80 80 43 00
        E 240 90 45 60
        E 80 80 45 00
        E 400 90 43 60
        E 80 80 43 00
        E 80 90 40 60
        E 80 80 40 00
        E 400 90 3e 60
        E 80 80 3e 00
        E 400 90 3e 60
        E 80 80 3e 00
        E 400 90 43 60
        E 80 80 43 00
        E 240 90 3f 60
        E 80 80 3f 00
        E 80 90 3e 60
        E 80 80 3e 00
        E 400 90 3c 60
        E 80 80 3c 00
        E 400 90 37 60
        E 80 80 37 00
        E 400 90 3c 60
        E 80 80 3c 00
        E 880 90 3a 60
        E 80 80 3a 00
        E 240 90 3b 60
        E 80 80 3b 00
        E 80 90 43 60
        E 80 80 43 00
        E 240 90 3a 60
        E 80 80 3a 00
        E 80 90 3b 60
        E 80 80 3b 00
        E 240 90 43 60
        E 80 80 43 00
        E 80 90 3a 60
        E 80 80 3a 00
        E 240 90 3b 60
        E 80 80 3b 00
        E 80 90 43 60
        E 80 80 43 00
        E 240 90 3a 60
        E 80 80 3a 00
        E 80 90 3b 60
        E 80 80 3b 00
        E 240 90 43 60
        E 80 80 43 00
        E 80 90 41 60
        E 80 80 41 00
        E 240 90 40 60
        E 80 80 40 00
        E 80 90 3f 60
        E 80 80 3f 00
        E 240 90 3e 60
        E 80 80 3e 00
        E 80 90 3c 60
        E 80 80 3c 00
        E 400 90 3c 60
        E 80 80 3c 00
        E 240 90 3e 60
        E 80 80 3e 00
        E 80 90 3f 60
        E 80 80 3f 00
        E 240 90 40 60
        E 80 80 40 00
        E 80 90 48 60
        E 80 80 48 00
        E 400 90 46 60
        E 80 80 46 00
        E 400 90 45 60
        E 80 80 45 00
        E 400 90 3f 60
        E 80 80 3f 00
        E 240 90 40 60
        E 80 80 40 00
        E 80 90 3c 60
        E 80 80 3c 00
        E 720 90 47 60
        E 80 80 47 00
        E 80 90 46 60
        E 80 80 46 00
        E 240 90 47 60
        E 80 80 47 00
        E 80 90 45 60
        E 80 80 45 00
        E 240 90 43 60
        E 80 80 43 00
        E 400 90 47 60
        E 80 80 47 00
        E 80 90 46 60
        E 80 80 46 00
        E 240 90 47 60
        E 80 80 47 00
        E 80 90 45 60
        E 80 80 45 00
        E 240 90 43 60
        E 80 80 43 00
        E 400 90 45 60
        E 80 80 45 00
        E 80 90 43 60
        E 80 80 43 00
        E 240 90 45 60
        E 80 80 45 00
        E 80 90 47 60
        E 80 80 47 00
        E 400 90 48 60
        E 80 80 48 00
        E 400 90 42 60
        E 80 80 42 00
        E 400 90 43 60
        E 80 80 43 00
        E 400 90 3f 60
        E 80 80 3f 00
        E 240 90 40 60
        E 80 80 40 00
        E 80 90 3f 60
        E 80 80 3f 00
        E 240 90 40 60
        E 80 80 40 00
        E 80 90 3b 60
        E 360 80 3b 00
        E 120 90 3c 60
        E 360 80 3c 00
        E 120 90 37 60
        E 80 80 37 00
        E 240 90 36 60
        E 80 80 36 00
        E 80 90 3a 60
        E 80 80 3a 00
        E 240 90 3b 60
        E 80 80 3b 00
        E 80 90 3e 60
        E 80 80 3e 00
        E 240 90 3b 60
        E 80 80 3b 00
        E 80 90 43 60
        E 80 80 43 00
        E 400 90 41 60
        E 80 80 41 00
        E 240 90 37 60
        E 80 80 37 00
        E 80 90 40 60
        E 80 80 40 00
        E 240 90 37 60
        E 80 80 37 00
        E 80 90 3e 60
        E 80 80 3e 00
        E 240 90 3f 60
        E 80 80 3f 00
        E 80 90 40 60
        E 80 80 40 00
        E 240 90 37 60
        E 80 80 37 00
        E 80 90 3c 60
        E 80 80 3c 00
        E 400 90 3c 60
        E 80 80 3c 00
        E 240 90 3e 60
        E 80 80 3e 00
        E 80 90 3f 60
        E 80 80 3f 00
        E 240 90 40 60
        E 80 80 40 00
        E 80 90 48 60
        E 80 80 48 00
        E 400 90 46 60
        E 80 80 46 00
        E 400 90 45 60
        E 80 80 45 00
        E 400 90 43 60
        E 80 80 43 00
        E 400 90 40 60
        E 80 80 40 00
        E 400 90 45 60
        E 360 80 45 00
        E 120 90 45 60
        E 360 80 45 00
        E 120 90 47 60
        E 360 80 47 00
        E 120 90 45 60
        E 360 80 45 00
        E 120 90 43 60
        E 80 80 43 00
        E 240 90 42 60
        E 80 80 42 00
        E 80 90 43 60
        E 80 80 43 00
        E 240 90 45 60
        E 80 80 45 00
        E 400 90 43 60
        E 80 80 43 00
        E 80 90 40 60
        E 80 80 40 00
        E 400 90 3e 60
        E 80 80 3e 00
        E 400 90 3e 60
        E 80 80 3e 00
        E 400 90 43 60
        E 80 80 43 00
        E 240 90 3f 60
        E 80 80 3f 00
        E 80 90 3e 60
        E 80 80 3e 00
        E 400 90 3c 60
        E 80 80 3c 00
        E 400 90 37 60
        E 80 80 37 00
        E 400 90 3c 60
        E 80 80 3c 00
        E 2800 b0 7b 00
        GUID {0E65AB77-66A2-4C27-AEC5-6F952351CA7F}
        IGNTEMPO 0 120.00000000 4 4
        SRCCOLOR 2
        VELLANE 132 128 60
        COLORMAP "C:\Program Files\REAPER (x64)\Data\color_maps\rockband_guitarbass.png"
        TEXTSTRINGFILE "C:\Program Files\REAPER (x64)\Data\Text_Strings\Text Events List - PRO Trainers.txt"
        CFGEDITVIEW -8362.172752 10.474350 0 22 0 0 0
        CFGEDIT 1 1 0 1 1 0 1 1 1 1 1 0.16666667 -8 -8 1370 736 0 2 1 1 0.00000000 0 1 1 0 0.500000 0 0 1.000000 64
        KEYSNAP 0 3 "102034050607" 0 "Major"
        EVTFILTER 0 -1 -1 -1 -1 0 1 0 0 -1.00000000 -1.00000000
      >
    >
  >
  <TRACK '{D126655D-7AD2-4F88-9393-37F53DF569FD}'
    NAME "PART KEYS_ANIM_LH"
    PEAKCOL 16576
    BEAT -1
    AUTOMODE 0
    VOLPAN 1.00000000000000 0.00000000000000 -1.00000000000000 -1.00000000000000 1.00000000000000
    MUTESOLO 0 0 0
    IPHASE 0
    ISBUS 0 0
    BUSCOMP 0 0
    SHOWINMIX 1 0.666700 0.500000 1 0.500000 -1 -1 -1
    FREEMODE 0
    SEL 0
    REC 0 0 0 0 0 0 0
    VU 2
    TRACKHEIGHT 0 0
    INQ 0 0 0 0.5000000000 100 0 0 100
    NCHAN 2
    FX 0
    TRACKID {D126655D-7AD2-4F88-9393-37F53DF569FD}
    PERF 0
    MIDIOUT -1
    <MIDINOTENAMES
      0 72 "Highest playable note B#3"
      0 71 "B3"
      0 70 "A#3"
      0 69 "A3"
      0 68 "G#3"
      0 67 "G3"
      0 66 "F#3"
      0 65 "F3"
      0 64 "E3"
      0 63 "D#3"
      0 62 "D3"
      0 61 "C#3"
      0 60 "C3"
      0 59 "B2"
      0 58 "A#2"
      0 57 "A2"
      0 56 "G#2"
      0 55 "G2"
      0 54 "F#2"
      0 53 "F2"
      0 52 "E2"
      0 51 "D#2"
      0 50 "D2"
      0 49 "C#2"
      0 48 "Lowest playable note C2"
    >
    MAINSEND 1 0
    <FXCHAIN
      WNDRECT 0 43 695 467
      SHOW 0
      LASTSEL 0
      DOCKED 0
    >
    <ITEM
      POSITION 0.00000000000000
      SNAPOFFS 0.00000000000000
      LENGTH 107.21429523936526
      LOOP 0
      ALLTAKES 0
      SEL 0
      FADEIN 1 0.000000 0.000000 1 0
      FADEOUT 1 0.000000 0.000000 1 0
      MUTE 0
      IGUID {D1F85650-4788-4374-9EAC-66EBC1AF760A}
      IID 19
      NAME "PART KEYS_ANIM_LH"
      VOLPAN 1.000000 0.000000 1.000000 -1.000000
      SOFFS 0.00000000000000 0.00000000000000
      PLAYRATE 1.00000000000000 1 0.00000000000000 -1
      CHANMODE 0
      GUID {2A4913C6-9049-4E01-9F0E-E9CED352C484}
      <SOURCE MIDI
        HASDATA 1 480 QN
        POOLEDEVTS {33E4CBCE-E71E-411C-A67E-5C26A2E981A4}
        <X 0 0
          /wNQQVJUIEtFWVNfQU5JTV9MSA==
        >
        E 128640 b0 7b 00
        GUID {0E65AB77-66A2-4C27-AEC5-6F952351CA7F}
        IGNTEMPO 0 120.00000000 4 4
        SRCCOLOR 2
        VELLANE 132 128 60
        COLORMAP "C:\Program Files\REAPER (x64)\Data\color_maps\rockband_guitarbass.png"
        TEXTSTRINGFILE "C:\Program Files\REAPER (x64)\Data\Text_Strings\Text Events List - PRO Trainers.txt"
        CFGEDITVIEW -289.962738 161.378529 0 22 0 0 0
        CFGEDIT 1 1 0 1 1 0 1 1 1 1 1 0.16666667 -8 -8 1370 736 0 2 1 1 0.00000000 0 1 1 0 0.500000 0 0 1.000000 64
        KEYSNAP 0 3 "102034050607" 0 "Major"
        EVTFILTER 0 -1 -1 -1 -1 0 1 0 0 -1.00000000 -1.00000000
      >
    >
  >
  <TRACK '{9E629951-87EC-4B3E-96CB-7CAC8F5C2F5D}'
    NAME "keys"
    PEAKCOL 16576
    BEAT -1
    AUTOMODE 0
    VOLPAN 1.00000000000000 0.00000000000000 -1.00000000000000 -1.00000000000000 1.00000000000000
    MUTESOLO 0 0 0
    IPHASE 0
    ISBUS 2 -1
    BUSCOMP 0 0
    SHOWINMIX 1 0.666700 0.500000 1 0.500000 -1 -1 -1
    FREEMODE 0
    SEL 0
    REC 0 0 0 0 0 0 0
    VU 2
    TRACKHEIGHT 0 0
    INQ 0 0 0 0.5000000000 100 0 0 100
    NCHAN 2
    FX 1
    TRACKID {9E629951-87EC-4B3E-96CB-7CAC8F5C2F5D}
    PERF 0
    MIDIOUT -1
    MAINSEND 1 0
    <ITEM
      POSITION 0.00000000000000
      SNAPOFFS 0.00000000000000
      LENGTH 107.21428571428571
      LOOP 0
      ALLTAKES 0
      SEL 0
      FADEIN 1 0.000000 0.000000 1 0
      FADEOUT 1 0.000000 0.000000 1 0
      MUTE 0
      IGUID {4E3C733C-3473-495F-9C8B-6C5508AD0020}
      IID 62
      NAME "keys.wav"
      VOLPAN 1.000000 0.000000 1.000000 -1.000000
      SOFFS 0.00000000000000
      PLAYRATE 1.00000000000000 1 0.00000000000000 -1
      CHANMODE 0
      GUID {5AB8865C-9F66-4B8F-BAC3-E2EB61EF495D}
      <SOURCE WAVE
        FILE "wav\keys.wav"
      >
    >
  >
  <TRACK '{585FD415-E56A-45FE-B3DF-74D1CEB9F21C}'
    NAME "PART REAL_BASS"
    PEAKCOL 16576
    BEAT -1
    AUTOMODE 0
    VOLPAN 1.00000000000000 0.00000000000000 -1.00000000000000 -1.00000000000000 1.00000000000000
    MUTESOLO 0 0 0
    IPHASE 0
    ISBUS 0 0
    BUSCOMP 0 0
    SHOWINMIX 1 0.666700 0.500000 1 0.500000 -1 -1 -1
    FREEMODE 0
    SEL 0
    REC 0 0 0 0 0 0 0
    VU 2
    TRACKHEIGHT 0 0
    INQ 0 0 0 0.5000000000 100 0 0 100
    NCHAN 2
    FX 0
    TRACKID {585FD415-E56A-45FE-B3DF-74D1CEB9F21C}
    PERF 0
    MIDIOUT -1
    <MIDINOTENAMES
      0 127 "Trill Marker"
      0 126 "Tremolo Marker"
      0 125 "BRE"
      0 124 "BRE"
      0 123 "BRE"
      0 122 "BRE"
      0 121 "BRE"
      0 120 "BRE (use all 6)"
      0 119 "-----------"
      0 116 "OVERDRIVE"
      0 115 "Solo Marker"
      0 109 "-----------"
      0 108 "Fret Hand Position"
      0 107 "Force Chord Numbering"
      0 106 "Loose Strumming"
      0 105 "Strum Direction"
      0 104 "Arpeggio Marker"
      0 103 "Slide Marker"
      0 102 "Force HOPO"
      0 101 "EXPERT e String"
      0 100 "EXPERT B String"
      0 99 "EXPERT G String"
      0 98 "EXPERT D String"
      0 97 "EXPERT A String"
      0 96 "EXPERT E String"
      0 95 "-----------"
      0 82 "Loose Strumming"
      0 81 "Strum Direction"
      0 80 "Arpeggio Marker"
      0 79 "Slide Marker"
      0 78 "Force HOPO"
      0 77 "HARD e String"
      0 76 "HARD B String"
      0 75 "HARD G String"
      0 74 "HARD D String"
      0 73 "HARD A String"
      0 72 "HARD E String"
      0 71 "-----------"
      0 58 "Loose Strumming"
      0 56 "Arpeggio Marker"
      0 55 "Slide Marker"
      0 53 "MEDIUM e String"
      0 52 "MEDIUM B String"
      0 51 "MEDIUM G String"
      0 50 "MEDIUM D String"
      0 49 "MEDIUM A String"
      0 48 "MEDIUM E String"
      0 47 "-----------"
      0 32 "Arpeggio Marker"
      0 31 "Slide Marker"
      0 29 "EASY e String"
      0 28 "EASY B String"
      0 27 "EASY G String"
      0 26 "EASY D String"
      0 25 "EASY A String"
      0 24 "EASY E String"
      0 21 "-----------"
      0 18 "Flat/Sharp Swap"
      0 17 "Hide Chord Names"
      0 16 "Slash Chord"
      0 15 "D#"
      0 14 "D"
      0 13 "C#"
      0 12 "C"
      0 11 "B"
      0 10 "A#"
      0 9 "A"
      0 8 "G#"
      0 7 "G"
      0 6 "F#"
      0 5 "F"
      0 4 "E"
    >
    MAINSEND 1 0
    <FXCHAIN
      WNDRECT 0 43 655 467
      SHOW 0
      LASTSEL 1
      DOCKED 0
      BYPASS 0 0
      <JS "c3/progtr" ""
        0.000000 3.000000 0.000000 0.000000 0.000000 0.000000 0.000000 0.000000 0.000000 1.000000 - - - - - - - - - - - - - - - - - - - - - - - - - - - - - - - - - - - - - - - - - - - - - - - - - - - - - - 
      >
      FLOATPOS 0 0 0 0
      FXID {810E3F57-E8DB-4845-989B-6A5265384254}
      WAK 0
      BYPASS 0 0
      <VST "VSTi: ReaSynth (Cockos)" "reasynth.dll" 0 ""
        eXNlcu9e7f4AAAAAAgAAAAEAAAAAAAAAAgAAAAAAAAA4AAAAAAAAAA==
        AAAQAO++rd4N8K3eppvEO0sKoT2HFlk/AAAAAAAAAADMm4A+4jAEPA==
        AAAAAAAAAD+01hM+j8L1PQAAAD8AABAAAAA=
      >
      FLOATPOS 0 0 0 0
      FXID {E184CD56-115B-437E-8045-363EA2E1E748}
      WAK 0
    >
    <ITEM
      POSITION 0.00000000000000
      SNAPOFFS 0.00000000000000
      LENGTH 107.21429523936526
      LOOP 0
      ALLTAKES 0
      SEL 0
      FADEIN 1 0.000000 0.000000 1 0
      FADEOUT 1 0.000000 0.000000 1 0
      MUTE 0
      IGUID {D66A543E-DE39-4A3D-9F5C-6D331F97E9F3}
      IID 18
      NAME "PART REAL_BASS"
      VOLPAN 1.000000 0.000000 1.000000 -1.000000
      SOFFS 0.00000000000000 0.00000000000000
      PLAYRATE 1.00000000000000 1 0.00000000000000 -1
      CHANMODE 0
      GUID {E368E1F5-CFE8-4E5E-8C7E-224D4841A141}
      <SOURCE MIDI
        HASDATA 1 480 QN
        POOLEDEVTS {6E3BC25A-345E-495D-9402-172AC6DAA155}
        <X 0 0
          /wNQQVJUIFJFQUxfQkFTUw==
        >
        <X 3840 0
          /wFbYmVnaW5fcGIgc29uZ190cmFpbmVyX3BiXzFd
        >
        E 0 90 18 67
        E 0 90 30 67
        E 0 90 48 67
        E 0 90 60 67
        E 0 90 6c 67
        E 120 80 18 00
        E 0 80 30 00
        E 0 80 48 00
        E 0 80 60 00
        E 0 80 6c 00
        E 840 90 31 69
        E 0 90 49 69
        E 0 90 61 69
        E 120 80 31 00
        E 0 80 49 00
        E 0 80 61 00
        E 840 90 18 67
        E 0 90 30 67
        E 0 90 48 67
        E 0 90 60 67
        E 0 90 6c 66
        E 120 80 18 00
        E 0 80 30 00
        E 0 80 48 00
        E 0 80 60 00
        E 0 80 6c 00
        E 360 90 48 67
        E 0 90 60 67
        E 120 80 48 00
        E 0 80 60 00
        E 360 90 31 64
        E 0 90 49 64
        E 0 90 61 64
        E 120 80 31 00
        E 0 80 49 00
        E 0 80 61 00
        E 360 90 61 66
        E 120 80 61 00
        <X 360 0
          /wFbcGJfbm9ybSBzb25nX3RyYWluZXJfcGJfMV0=
        >
        E 0 90 19 67
        E 0 90 31 67
        E 0 90 49 67
        E 0 90 61 67
        E 0 90 6c 67
        E 120 80 19 00
        E 0 80 31 00
        E 0 80 49 00
        E 0 80 61 00
        E 0 80 6c 00
        E 840 90 30 67
        E 0 90 48 67
        E 0 90 60 67
        E 120 80 30 00
        E 0 80 48 00
        E 0 80 60 00
        E 840 90 19 67
        E 0 90 31 67
        E 0 90 49 67
        E 0 90 61 67
        E 0 90 6c 66
        E 120 80 19 00
        E 0 80 31 00
        E 0 80 49 00
        E 0 80 61 00
        E 0 80 6c 00
        E 360 90 49 67
        E 0 90 61 67
        E 120 80 49 00
        E 0 80 61 00
        E 360 90 31 66
        E 0 90 49 66
        E 0 90 61 66
        E 120 80 31 00
        E 0 80 49 00
        E 0 80 61 00
        E 360 90 61 64
        E 120 80 61 00
        E 360 90 18 67
        E 0 90 30 67
        E 0 90 48 67
        E 0 90 60 67
        E 0 90 6c 67
        E 120 80 18 00
        E 0 80 30 00
        E 0 80 48 00
        E 0 80 60 00
        E 0 80 6c 00
        E 840 90 31 69
        E 0 90 49 69
        E 0 90 61 69
        E 120 80 31 00
        E 0 80 49 00
        E 0 80 61 00
        E 840 90 18 67
        E 0 90 30 67
        E 0 90 48 67
        E 0 90 60 67
        E 0 90 74 64
        E 120 80 18 00
        E 0 80 30 00
        E 0 80 48 00
        E 0 80 60 00
        E 840 90 31 69
        E 0 90 49 69
        E 0 90 61 69
        E 120 80 31 00
        E 0 80 49 00
        E 0 80 61 00
        E 840 90 19 67
        E 0 90 31 67
        E 0 90 49 67
        E 0 90 61 67
        E 120 80 74 00
        E 0 80 19 00
        E 0 80 31 00
        E 0 80 49 00
        E 0 80 61 00
        <X 3720 0
          /wFbZW5kX3BiIHNvbmdfdHJhaW5lcl9wYl8xXQ==
        >
        E 0 90 18 67
        E 0 90 30 67
        E 0 90 48 67
        E 0 90 60 67
        E 120 80 18 00
        E 0 80 30 00
        E 0 80 48 00
        E 0 80 60 00
        E 840 90 31 69
        E 0 90 49 69
        E 0 90 61 69
        E 120 80 31 00
        E 0 80 49 00
        E 0 80 61 00
        E 840 90 18 67
        E 0 90 30 67
        E 0 90 48 67
        E 0 90 60 67
        E 120 80 18 00
        E 0 80 30 00
        E 0 80 48 00
        E 0 80 60 00
        E 840 90 31 69
        E 0 90 49 69
        E 0 90 61 69
        E 120 80 31 00
        E 0 80 49 00
        E 0 80 61 00
        E 840 90 19 67
        E 0 90 31 67
        E 0 90 49 67
        E 0 90 61 67
        E 120 80 19 00
        E 0 80 31 00
        E 0 80 49 00
        E 0 80 61 00
        E 840 90 30 67
        E 0 90 48 67
        E 0 90 60 67
        E 120 80 30 00
        E 0 80 48 00
        E 0 80 60 00
        E 840 90 19 67
        E 0 90 31 67
        E 0 90 49 67
        E 0 90 61 67
        E 120 80 19 00
        E 0 80 31 00
        E 0 80 49 00
        E 0 80 61 00
        E 840 90 30 67
        E 0 90 48 67
        E 0 90 60 67
        E 120 80 30 00
        E 0 80 48 00
        E 0 80 60 00
        <X 840 0
          /wFbYmVnaW5fcGIgc29uZ190cmFpbmVyX3BiXzJd
        >
        E 0 90 1a 67
        E 0 90 32 67
        E 0 90 4a 67
        E 0 90 62 67
        E 120 80 1a 00
        E 0 80 32 00
        E 0 80 4a 00
        E 0 80 62 00
        E 360 90 62 67
        E 120 80 62 00
        E 360 90 32 68
        E 0 90 4a 68
        E 0 90 62 68
        E 120 80 32 00
        E 0 80 4a 00
        E 0 80 62 00
        E 360 90 62 68
        E 120 80 62 00
        <X 360 0
          /wFbcGJfbm9ybSBzb25nX3RyYWluZXJfcGJfMl0=
        >
        E 0 90 1a 69
        E 0 90 32 69
        E 0 90 4a 69
        E 0 90 62 69
        E 120 80 1a 00
        E 0 80 32 00
        E 0 80 4a 00
        E 0 80 62 00
        E 360 90 62 69
        E 120 80 62 00
        E 360 90 33 66
        E 0 90 4b 66
        E 0 90 63 66
        E 0 90 6c 66
        E 120 80 33 00
        E 0 80 4b 00
        E 0 80 63 00
        E 0 80 6c 00
        E 360 90 63 66
        E 120 80 63 00
        E 360 90 1a 64
        E 0 90 32 64
        E 0 90 4a 64
        E 0 90 62 64
        E 0 90 74 64
        E 120 80 1a 00
        E 0 80 32 00
        E 0 80 4a 00
        E 0 80 62 00
        E 360 90 62 64
        E 120 80 62 00
        E 360 90 30 67
        E 0 90 48 67
        E 0 90 60 67
        E 120 80 30 00
        E 0 80 48 00
        E 0 80 60 00
        E 360 90 60 67
        E 120 80 60 00
        E 360 90 19 67
        E 0 90 31 67
        E 0 90 49 67
        E 0 90 61 67
        E 120 80 19 00
        E 0 80 31 00
        E 0 80 49 00
        E 0 80 61 00
        E 360 90 48 67
        E 0 90 60 67
        E 120 80 48 00
        E 0 80 60 00
        E 360 90 19 67
        E 0 90 31 67
        E 0 90 49 67
        E 0 90 61 67
        E 120 80 74 00
        E 0 80 19 00
        E 0 80 31 00
        E 0 80 49 00
        E 0 80 61 00
        <X 840 0
          /wFbZW5kX3BiIHNvbmdfdHJhaW5lcl9wYl8yXQ==
        >
        E 0 90 18 67
        E 0 90 30 67
        E 0 90 48 67
        E 0 90 60 67
        E 0 90 6c 67
        E 120 80 18 00
        E 0 80 30 00
        E 0 80 48 00
        E 0 80 60 00
        E 0 80 6c 00
        E 840 90 31 69
        E 0 90 49 69
        E 0 90 61 69
        E 120 80 31 00
        E 0 80 49 00
        E 0 80 61 00
        E 840 90 18 67
        E 0 90 30 67
        E 0 90 48 67
        E 0 90 60 67
        E 0 90 6c 66
        E 120 80 18 00
        E 0 80 30 00
        E 0 80 48 00
        E 0 80 60 00
        E 0 80 6c 00
        E 360 90 48 67
        E 0 90 60 67
        E 120 80 48 00
        E 0 80 60 00
        E 360 90 31 64
        E 0 90 49 64
        E 0 90 61 64
        E 120 80 31 00
        E 0 80 49 00
        E 0 80 61 00
        E 360 90 61 66
        E 120 80 61 00
        E 360 90 19 67
        E 0 90 31 67
        E 0 90 49 67
        E 0 90 61 67
        E 0 90 6c 67
        E 120 80 19 00
        E 0 80 31 00
        E 0 80 49 00
        E 0 80 61 00
        E 0 80 6c 00
        E 840 90 30 67
        E 0 90 48 67
        E 0 90 60 67
        E 120 80 30 00
        E 0 80 48 00
        E 0 80 60 00
        E 840 90 19 67
        E 0 90 31 67
        E 0 90 49 67
        E 0 90 61 67
        E 0 90 6c 66
        E 120 80 19 00
        E 0 80 31 00
        E 0 80 49 00
        E 0 80 61 00
        E 0 80 6c 00
        E 360 90 49 67
        E 0 90 61 67
        E 120 80 49 00
        E 0 80 61 00
        E 360 90 31 66
        E 0 90 49 66
        E 0 90 61 66
        E 120 80 31 00
        E 0 80 49 00
        E 0 80 61 00
        E 360 90 61 64
        E 120 80 61 00
        E 360 90 18 67
        E 0 90 30 67
        E 0 90 48 67
        E 0 90 60 67
        E 0 90 6c 67
        E 0 90 74 64
        E 120 80 18 00
        E 0 80 30 00
        E 0 80 48 00
        E 0 80 60 00
        E 0 80 6c 00
        E 840 90 31 69
        E 0 90 49 69
        E 0 90 61 69
        E 120 80 31 00
        E 0 80 49 00
        E 0 80 61 00
        E 840 90 18 67
        E 0 90 30 67
        E 0 90 48 67
        E 0 90 60 67
        E 120 80 18 00
        E 0 80 30 00
        E 0 80 48 00
        E 0 80 60 00
        E 840 90 31 69
        E 0 90 49 69
        E 0 90 61 69
        E 120 80 31 00
        E 0 80 49 00
        E 0 80 61 00
        E 840 90 19 67
        E 0 90 31 67
        E 0 90 49 67
        E 0 90 61 67
        E 120 80 74 00
        E 0 80 19 00
        E 0 80 31 00
        E 0 80 49 00
        E 0 80 61 00
        E 3720 90 18 67
        E 0 90 30 67
        E 0 90 48 67
        E 0 90 60 67
        E 120 80 18 00
        E 0 80 30 00
        E 0 80 48 00
        E 0 80 60 00
        E 840 90 31 69
        E 0 90 49 69
        E 0 90 61 69
        E 120 80 31 00
        E 0 80 49 00
        E 0 80 61 00
        E 840 90 18 67
        E 0 90 30 67
        E 0 90 48 67
        E 0 90 60 67
        E 120 80 18 00
        E 0 80 30 00
        E 0 80 48 00
        E 0 80 60 00
        E 840 90 31 69
        E 0 90 49 69
        E 0 90 61 69
        E 120 80 31 00
        E 0 80 49 00
        E 0 80 61 00
        E 840 90 19 67
        E 0 90 31 67
        E 0 90 49 67
        E 0 90 61 67
        E 120 80 19 00
        E 0 80 31 00
        E 0 80 49 00
        E 0 80 61 00
        E 840 90 30 67
        E 0 90 48 67
        E 0 90 60 67
        E 120 80 30 00
        E 0 80 48 00
        E 0 80 60 00
        E 840 90 19 67
        E 0 90 31 67
        E 0 90 49 67
        E 0 90 61 67
        E 120 80 19 00
        E 0 80 31 00
        E 0 80 49 00
        E 0 80 61 00
        E 840 90 30 67
        E 0 90 48 67
        E 0 90 60 67
        E 120 80 30 00
        E 0 80 48 00
        E 0 80 60 00
        E 840 90 1a 67
        E 0 90 32 67
        E 0 90 4a 67
        E 0 90 62 67
        E 120 80 1a 00
        E 0 80 32 00
        E 0 80 4a 00
        E 0 80 62 00
        E 360 90 62 67
        E 120 80 62 00
        E 360 90 32 68
        E 0 90 4a 68
        E 0 90 62 68
        E 120 80 32 00
        E 0 80 4a 00
        E 0 80 62 00
        E 360 90 62 68
        E 120 80 62 00
        E 360 90 1a 69
        E 0 90 32 69
        E 0 90 4a 69
        E 0 90 62 69
        E 120 80 1a 00
        E 0 80 32 00
        E 0 80 4a 00
        E 0 80 62 00
        E 360 90 62 69
        E 120 80 62 00
        E 360 90 33 66
        E 0 90 4b 66
        E 0 90 63 66
        E 0 90 6c 66
        E 120 80 33 00
        E 0 80 4b 00
        E 0 80 63 00
        E 0 80 6c 00
        E 360 90 63 66
        E 120 80 63 00
        E 360 90 1a 64
        E 0 90 32 64
        E 0 90 4a 64
        E 0 90 62 64
        E 0 90 74 64
        E 120 80 1a 00
        E 0 80 32 00
        E 0 80 4a 00
        E 0 80 62 00
        E 360 90 62 64
        E 120 80 62 00
        E 360 90 30 67
        E 0 90 48 67
        E 0 90 60 67
        E 120 80 30 00
        E 0 80 48 00
        E 0 80 60 00
        E 360 90 60 67
        E 120 80 60 00
        E 360 90 19 67
        E 0 90 31 67
        E 0 90 49 67
        E 0 90 61 67
        E 120 80 19 00
        E 0 80 31 00
        E 0 80 49 00
        E 0 80 61 00
        E 360 90 48 67
        E 0 90 60 67
        E 120 80 48 00
        E 0 80 60 00
        E 360 90 19 67
        E 0 90 31 67
        E 0 90 49 67
        E 0 90 61 67
        E 120 80 74 00
        E 0 80 19 00
        E 0 80 31 00
        E 0 80 49 00
        E 0 80 61 00
        E 840 90 18 67
        E 0 90 30 67
        E 0 90 48 67
        E 0 90 60 67
        E 0 90 6c 67
        E 120 80 18 00
        E 0 80 30 00
        E 0 80 48 00
        E 0 80 60 00
        E 0 80 6c 00
        E 840 90 31 69
        E 0 90 49 69
        E 0 90 61 69
        E 120 80 31 00
        E 0 80 49 00
        E 0 80 61 00
        E 840 90 18 67
        E 0 90 30 67
        E 0 90 48 67
        E 0 90 60 67
        E 0 90 6c 66
        E 120 80 18 00
        E 0 80 30 00
        E 0 80 48 00
        E 0 80 60 00
        E 0 80 6c 00
        E 360 90 48 67
        E 0 90 60 67
        E 120 80 48 00
        E 0 80 60 00
        E 360 90 31 64
        E 0 90 49 64
        E 0 90 61 64
        E 120 80 31 00
        E 0 80 49 00
        E 0 80 61 00
        E 360 90 61 66
        E 120 80 61 00
        E 360 90 19 67
        E 0 90 31 67
        E 0 90 49 67
        E 0 90 61 67
        E 0 90 6c 67
        E 120 80 19 00
        E 0 80 31 00
        E 0 80 49 00
        E 0 80 61 00
        E 0 80 6c 00
        E 840 90 30 67
        E 0 90 48 67
        E 0 90 60 67
        E 120 80 30 00
        E 0 80 48 00
        E 0 80 60 00
        E 840 90 19 67
        E 0 90 31 67
        E 0 90 49 67
        E 0 90 61 67
        E 0 90 6c 66
        E 120 80 19 00
        E 0 80 31 00
        E 0 80 49 00
        E 0 80 61 00
        E 0 80 6c 00
        E 360 90 49 67
        E 0 90 61 67
        E 120 80 49 00
        E 0 80 61 00
        E 360 90 31 66
        E 0 90 49 66
        E 0 90 61 66
        E 120 80 31 00
        E 0 80 49 00
        E 0 80 61 00
        E 360 90 61 64
        E 120 80 61 00
        E 360 90 18 67
        E 0 90 30 67
        E 0 90 48 67
        E 0 90 60 67
        E 0 90 6c 67
        E 120 80 18 00
        E 0 80 30 00
        E 0 80 48 00
        E 0 80 60 00
        E 0 80 6c 00
        E 840 90 31 69
        E 0 90 49 69
        E 0 90 61 69
        E 120 80 31 00
        E 0 80 49 00
        E 0 80 61 00
        E 840 90 18 67
        E 0 90 30 67
        E 0 90 48 67
        E 0 90 60 67
        E 120 80 18 00
        E 0 80 30 00
        E 0 80 48 00
        E 0 80 60 00
        E 840 90 31 69
        E 0 90 49 69
        E 0 90 61 69
        E 120 80 31 00
        E 0 80 49 00
        E 0 80 61 00
        E 840 90 19 67
        E 0 90 31 67
        E 0 90 49 67
        E 0 90 61 67
        E 120 80 19 00
        E 0 80 31 00
        E 0 80 49 00
        E 0 80 61 00
        E 3720 90 18 67
        E 0 90 30 67
        E 0 90 48 67
        E 0 90 60 67
        E 120 80 18 00
        E 0 80 30 00
        E 0 80 48 00
        E 0 80 60 00
        E 840 90 31 69
        E 0 90 49 69
        E 0 90 61 69
        E 120 80 31 00
        E 0 80 49 00
        E 0 80 61 00
        E 840 90 18 67
        E 0 90 30 67
        E 0 90 48 67
        E 0 90 60 67
        E 120 80 18 00
        E 0 80 30 00
        E 0 80 48 00
        E 0 80 60 00
        E 840 90 31 69
        E 0 90 49 69
        E 0 90 61 69
        E 120 80 31 00
        E 0 80 49 00
        E 0 80 61 00
        E 840 90 19 67
        E 0 90 31 67
        E 0 90 49 67
        E 0 90 61 67
        E 120 80 19 00
        E 0 80 31 00
        E 0 80 49 00
        E 0 80 61 00
        E 840 90 30 67
        E 0 90 48 67
        E 0 90 60 67
        E 120 80 30 00
        E 0 80 48 00
        E 0 80 60 00
        E 840 90 19 67
        E 0 90 31 67
        E 0 90 49 67
        E 0 90 61 67
        E 120 80 19 00
        E 0 80 31 00
        E 0 80 49 00
        E 0 80 61 00
        E 840 90 30 67
        E 0 90 48 67
        E 0 90 60 67
        E 120 80 30 00
        E 0 80 48 00
        E 0 80 60 00
        E 840 90 1a 67
        E 0 90 32 67
        E 0 90 4a 67
        E 0 90 62 67
        E 0 90 74 64
        E 120 80 1a 00
        E 0 80 32 00
        E 0 80 4a 00
        E 0 80 62 00
        E 360 90 62 67
        E 120 80 62 00
        E 360 90 32 68
        E 0 90 4a 68
        E 0 90 62 68
        E 120 80 32 00
        E 0 80 4a 00
        E 0 80 62 00
        E 360 90 62 68
        E 120 80 62 00
        E 360 90 1a 69
        E 0 90 32 69
        E 0 90 4a 69
        E 0 90 62 69
        E 120 80 1a 00
        E 0 80 32 00
        E 0 80 4a 00
        E 0 80 62 00
        E 360 90 62 69
        E 120 80 62 00
        E 360 90 33 66
        E 0 90 4b 66
        E 0 90 63 66
        E 0 90 6c 66
        E 120 80 33 00
        E 0 80 4b 00
        E 0 80 63 00
        E 0 80 6c 00
        E 360 90 63 66
        E 120 80 63 00
        E 360 80 74 00
        E 0 90 1a 64
        E 0 90 32 64
        E 0 90 4a 64
        E 0 90 62 64
        E 120 80 1a 00
        E 0 80 32 00
        E 0 80 4a 00
        E 0 80 62 00
        E 360 90 62 64
        E 120 80 62 00
        E 360 90 30 67
        E 0 90 48 67
        E 0 90 60 67
        E 120 80 30 00
        E 0 80 48 00
        E 0 80 60 00
        E 360 90 60 67
        E 120 80 60 00
        E 360 90 19 67
        E 0 90 31 67
        E 0 90 49 67
        E 0 90 61 67
        E 120 80 19 00
        E 0 80 31 00
        E 0 80 49 00
        E 0 80 61 00
        E 360 90 48 67
        E 0 90 60 67
        E 120 80 48 00
        E 0 80 60 00
        E 360 90 19 67
        E 0 90 31 67
        E 0 90 49 67
        E 0 90 61 67
        E 120 80 19 00
        E 0 80 31 00
        E 0 80 49 00
        E 0 80 61 00
        E 840 90 18 67
        E 0 90 30 67
        E 0 90 48 67
        E 0 90 60 67
        E 0 90 6c 67
        E 120 80 18 00
        E 0 80 30 00
        E 0 80 48 00
        E 0 80 60 00
        E 0 80 6c 00
        E 840 90 31 69
        E 0 90 49 69
        E 0 90 61 69
        E 120 80 31 00
        E 0 80 49 00
        E 0 80 61 00
        E 840 90 18 67
        E 0 90 30 67
        E 0 90 48 67
        E 0 90 60 67
        E 0 90 6c 66
        E 120 80 18 00
        E 0 80 30 00
        E 0 80 48 00
        E 0 80 60 00
        E 0 80 6c 00
        E 360 90 48 67
        E 0 90 60 67
        E 120 80 48 00
        E 0 80 60 00
        E 360 90 31 64
        E 0 90 49 64
        E 0 90 61 64
        E 120 80 31 00
        E 0 80 49 00
        E 0 80 61 00
        E 360 90 61 66
        E 120 80 61 00
        E 360 90 19 67
        E 0 90 31 67
        E 0 90 49 67
        E 0 90 61 67
        E 0 90 6c 67
        E 120 80 19 00
        E 0 80 31 00
        E 0 80 49 00
        E 0 80 61 00
        E 0 80 6c 00
        E 840 90 30 67
        E 0 90 48 67
        E 0 90 60 67
        E 120 80 30 00
        E 0 80 48 00
        E 0 80 60 00
        E 840 90 19 67
        E 0 90 31 67
        E 0 90 49 67
        E 0 90 61 67
        E 0 90 6c 66
        E 0 90 74 64
        E 120 80 19 00
        E 0 80 31 00
        E 0 80 49 00
        E 0 80 61 00
        E 0 80 6c 00
        E 360 90 49 67
        E 0 90 61 67
        E 120 80 49 00
        E 0 80 61 00
        E 360 90 31 66
        E 0 90 49 66
        E 0 90 61 66
        E 120 80 31 00
        E 0 80 49 00
        E 0 80 61 00
        E 360 90 61 64
        E 120 80 61 00
        E 360 90 18 67
        E 0 90 30 67
        E 0 90 48 67
        E 0 90 60 67
        E 0 90 6c 67
        E 120 80 74 00
        E 0 80 18 00
        E 0 80 30 00
        E 0 80 48 00
        E 0 80 60 00
        E 0 80 6c 00
        E 840 90 31 69
        E 0 90 49 69
        E 0 90 61 69
        E 120 80 31 00
        E 0 80 49 00
        E 0 80 61 00
        E 840 90 18 67
        E 0 90 30 67
        E 0 90 48 67
        E 0 90 60 67
        E 120 80 18 00
        E 0 80 30 00
        E 0 80 48 00
        E 0 80 60 00
        E 840 90 31 69
        E 0 90 49 69
        E 0 90 61 69
        E 120 80 31 00
        E 0 80 49 00
        E 0 80 61 00
        E 840 90 19 67
        E 0 90 31 67
        E 0 90 49 67
        E 0 90 61 67
        E 120 80 19 00
        E 0 80 31 00
        E 0 80 49 00
        E 0 80 61 00
        E 3720 90 18 67
        E 0 90 30 67
        E 0 90 48 67
        E 0 90 60 67
        E 120 80 18 00
        E 0 80 30 00
        E 0 80 48 00
        E 0 80 60 00
        E 840 90 31 69
        E 0 90 49 69
        E 0 90 61 69
        E 120 80 31 00
        E 0 80 49 00
        E 0 80 61 00
        E 840 90 18 67
        E 0 90 30 67
        E 0 90 48 67
        E 0 90 60 67
        E 120 80 18 00
        E 0 80 30 00
        E 0 80 48 00
        E 0 80 60 00
        E 840 90 31 69
        E 0 90 49 69
        E 0 90 61 69
        E 120 80 31 00
        E 0 80 49 00
        E 0 80 61 00
        E 840 90 19 67
        E 0 90 31 67
        E 0 90 49 67
        E 0 90 61 67
        E 120 80 19 00
        E 0 80 31 00
        E 0 80 49 00
        E 0 80 61 00
        E 840 90 30 67
        E 0 90 48 67
        E 0 90 60 67
        E 120 80 30 00
        E 0 80 48 00
        E 0 80 60 00
        E 840 90 19 67
        E 0 90 31 67
        E 0 90 49 67
        E 0 90 61 67
        E 120 80 19 00
        E 0 80 31 00
        E 0 80 49 00
        E 0 80 61 00
        E 840 90 30 67
        E 0 90 48 67
        E 0 90 60 67
        E 120 80 30 00
        E 0 80 48 00
        E 0 80 60 00
        E 840 90 1a 67
        E 0 90 32 67
        E 0 90 4a 67
        E 0 90 62 67
        E 120 80 1a 00
        E 0 80 32 00
        E 0 80 4a 00
        E 0 80 62 00
        E 360 90 62 67
        E 120 80 62 00
        E 360 90 32 68
        E 0 90 4a 68
        E 0 90 62 68
        E 120 80 32 00
        E 0 80 4a 00
        E 0 80 62 00
        E 360 90 62 68
        E 120 80 62 00
        E 360 90 1a 69
        E 0 90 32 69
        E 0 90 4a 69
        E 0 90 62 69
        E 120 80 1a 00
        E 0 80 32 00
        E 0 80 4a 00
        E 0 80 62 00
        E 360 90 62 69
        E 120 80 62 00
        E 360 90 33 66
        E 0 90 4b 66
        E 0 90 63 66
        E 0 90 6c 66
        E 120 80 33 00
        E 0 80 4b 00
        E 0 80 63 00
        E 0 80 6c 00
        E 360 90 63 66
        E 120 80 63 00
        E 360 90 1a 64
        E 0 90 32 64
        E 0 90 4a 64
        E 0 90 62 64
        E 120 80 1a 00
        E 0 80 32 00
        E 0 80 4a 00
        E 0 80 62 00
        E 360 90 62 64
        E 120 80 62 00
        E 360 90 30 67
        E 0 90 48 67
        E 0 90 60 67
        E 120 80 30 00
        E 0 80 48 00
        E 0 80 60 00
        E 360 90 60 67
        E 120 80 60 00
        E 360 90 19 67
        E 0 90 31 67
        E 0 90 49 67
        E 0 90 61 67
        E 120 80 19 00
        E 0 80 31 00
        E 0 80 49 00
        E 0 80 61 00
        E 360 90 48 67
        E 0 90 60 67
        E 120 80 48 00
        E 0 80 60 00
        E 360 90 19 67
        E 0 90 31 67
        E 0 90 49 67
        E 0 90 61 67
        E 120 80 19 00
        E 0 80 31 00
        E 0 80 49 00
        E 0 80 61 00
        E 2760 b0 7b 00
        GUID {E280B4D1-91CF-4658-BE86-D00E7F2D785A}
        IGNTEMPO 0 120.00000000 4 4
        SRCCOLOR 1
        VELLANE 132 128 60
        COLORMAP "C:\Program Files\REAPER (x64)\Data\color_maps\rockband_guitarbass.png"
        TEXTSTRINGFILE "C:\Program Files\REAPER (x64)\Data\Text_Strings\Text Events List - PRO Trainers.txt"
        CFGEDITVIEW 20019.261323 64.788956 0 12 0 0 0
        CFGEDIT 1 1 0 1 1 0 1 1 1 1 1 0.25000000 -8 -8 1370 736 0 2 1 1 0.00000000 0 1 1 0 0.500000 0 0 1.000000 64
        KEYSNAP 0 3 "102034050607" 0 "Major"
        EVTFILTER 0 -1 -1 -1 -1 0 1 0 0 -1.00000000 -1.00000000
      >
    >
  >
  <TRACK '{E19FDAD1-9001-4F0B-BDA2-C26682286B41}'
    NAME "EVENTS"
    PEAKCOL 16576
    BEAT -1
    AUTOMODE 0
    VOLPAN 1.00000000000000 0.00000000000000 -1.00000000000000 -1.00000000000000 1.00000000000000
    MUTESOLO 0 0 0
    IPHASE 0
    ISBUS 0 0
    BUSCOMP 0 0
    SHOWINMIX 1 0.666700 0.500000 1 0.500000 -1 -1 -1
    FREEMODE 0
    SEL 0
    REC 0 0 0 0 0 0 0
    VU 2
    TRACKHEIGHT 0 0
    INQ 0 0 0 0.5000000000 100 0 0 100
    NCHAN 2
    FX 1
    TRACKID {E19FDAD1-9001-4F0B-BDA2-C26682286B41}
    PERF 0
    MIDIOUT -1
    <MIDINOTENAMES
      0 26 "Hi-Hat"
      0 25 "Snare"
      0 24 "Kick"
    >
    MAINSEND 1 0
    <FXCHAIN
      SHOW 0
      LASTSEL 0
      DOCKED 0
    >
    <ITEM
      POSITION 0.00000000000000
      SNAPOFFS 0.00000000000000
      LENGTH 107.21429523936526
      LOOP 0
      ALLTAKES 0
      SEL 0
      FADEIN 1 0.000000 0.000000 1 0
      FADEOUT 1 0.000000 0.000000 1 0
      MUTE 0
      IGUID {3485FA6A-8A43-4D45-8560-B4C67F4EA5F4}
      IID 32
      NAME "EVENTS"
      VOLPAN 1.000000 0.000000 1.000000 -1.000000
      SOFFS 0.00000000000000 0.00000000000000
      PLAYRATE 1.00000000000000 1 0.00000000000000 -1
      CHANMODE 0
      GUID {AD8F313E-BE52-4B82-B4EF-3B0C39620C80}
      <SOURCE MIDI
        HASDATA 1 480 QN
        POOLEDEVTS {B2CEBDA9-72AE-42F0-9C44-12AC4203C138}
        <X 0 0
          /wNFVkVOVFM=
        >
        <X 3840 0
          /wFbcHJjX2phbV8xYV0=
        >
        E 0 90 18 60
        E 0 90 1a 60
        E 80 80 18 00
        E 0 80 1a 00
        E 400 90 19 60
        E 0 90 1a 60
        E 80 80 19 00
        E 0 80 1a 00
        E 240 90 1a 60
        E 80 80 1a 00
        <X 80 0
          /wFbY3Jvd2RfbWVsbG93XQ==
        >
        E 0 90 18 60
        E 0 90 1a 60
        E 80 80 18 00
        E 0 80 1a 00
        <X 400 0
          /wFbbXVzaWNfc3RhcnRd
        >
        E 0 90 19 60
        E 0 90 1a 60
        E 80 80 19 00
        E 0 80 1a 00
        E 240 90 1a 60
        E 80 80 1a 00
        E 80 90 18 60
        E 0 90 1a 60
        E 80 80 18 00
        E 0 80 1a 00
        E 400 90 19 60
        E 0 90 1a 60
        E 80 80 19 00
        E 0 80 1a 00
        E 240 90 1a 60
        E 80 80 1a 00
        E 80 90 18 60
        E 0 90 1a 60
        E 80 80 18 00
        E 0 80 1a 00
        E 400 90 19 60
        E 0 90 1a 60
        E 80 80 19 00
        E 0 80 1a 00
        E 240 90 1a 60
        E 80 80 1a 00
        E 80 90 18 60
        E 0 90 1a 60
        E 80 80 18 00
        E 0 80 1a 00
        E 400 90 19 60
        E 0 90 1a 60
        E 80 80 19 00
        E 0 80 1a 00
        E 240 90 1a 60
        E 80 80 1a 00
        E 80 90 18 60
        E 0 90 1a 60
        E 80 80 18 00
        E 0 80 1a 00
        E 400 90 19 60
        E 0 90 1a 60
        E 80 80 19 00
        E 0 80 1a 00
        E 240 90 1a 60
        E 80 80 1a 00
        E 80 90 18 60
        E 0 90 1a 60
        E 80 80 18 00
        E 0 80 1a 00
        E 400 90 19 60
        E 0 90 1a 60
        E 80 80 19 00
        E 0 80 1a 00
        E 240 90 1a 60
        E 80 80 1a 00
        E 80 90 18 60
        E 0 90 1a 60
        E 80 80 18 00
        E 0 80 1a 00
        E 400 90 19 60
        E 0 90 1a 60
        E 80 80 19 00
        E 0 80 1a 00
        E 240 90 1a 60
        E 80 80 1a 00
        E 80 90 18 60
        E 0 90 1a 60
        E 80 80 18 00
        E 0 80 1a 00
        E 400 90 19 60
        E 0 90 1a 60
        E 80 80 19 00
        E 0 80 1a 00
        E 240 90 1a 60
        E 80 80 1a 00
        E 80 90 18 60
        E 0 90 1a 60
        E 80 80 18 00
        E 0 80 1a 00
        E 400 90 19 60
        E 0 90 1a 60
        E 80 80 19 00
        E 0 80 1a 00
        E 240 90 1a 60
        E 80 80 1a 00
        E 80 90 18 60
        E 0 90 1a 60
        E 80 80 18 00
        E 0 80 1a 00
        E 400 90 19 60
        E 0 90 1a 60
        E 80 80 19 00
        E 0 80 1a 00
        E 240 90 1a 60
        E 80 80 1a 00
        E 80 90 18 60
        E 0 90 1a 60
        E 80 80 18 00
        E 0 80 1a 00
        E 400 90 19 60
        E 0 90 1a 60
        E 80 80 19 00
        E 0 80 1a 00
        E 240 90 1a 60
        E 80 80 1a 00
        E 80 90 18 60
        E 0 90 1a 60
        E 80 80 18 00
        E 0 80 1a 00
        <X 3280 0
          /wFbcHJjX2phbV8xYl0=
        >
        E 480 90 18 60
        E 0 90 1a 60
        E 80 80 18 00
        E 0 80 1a 00
        E 400 90 19 60
        E 0 90 1a 60
        E 80 80 19 00
        E 0 80 1a 00
        E 240 90 1a 60
        E 80 80 1a 00
        E 80 90 18 60
        E 0 90 1a 60
        E 80 80 18 00
        E 0 80 1a 00
        E 400 90 19 60
        E 0 90 1a 60
        E 80 80 19 00
        E 0 80 1a 00
        E 240 90 1a 60
        E 80 80 1a 00
        E 80 90 18 60
        E 0 90 1a 60
        E 80 80 18 00
        E 0 80 1a 00
        E 400 90 19 60
        E 0 90 1a 60
        E 80 80 19 00
        E 0 80 1a 00
        E 240 90 1a 60
        E 80 80 1a 00
        E 80 90 18 60
        E 0 90 1a 60
        E 80 80 18 00
        E 0 80 1a 00
        E 400 90 19 60
        E 0 90 1a 60
        E 80 80 19 00
        E 0 80 1a 00
        E 240 90 1a 60
        E 80 80 1a 00
        E 80 90 18 60
        E 0 90 1a 60
        E 80 80 18 00
        E 0 80 1a 00
        E 400 90 19 60
        E 0 90 1a 60
        E 80 80 19 00
        E 0 80 1a 00
        E 240 90 1a 60
        E 80 80 1a 00
        E 80 90 18 60
        E 0 90 1a 60
        E 80 80 18 00
        E 0 80 1a 00
        E 400 90 19 60
        E 0 90 1a 60
        E 80 80 19 00
        E 0 80 1a 00
        E 240 90 1a 60
        E 80 80 1a 00
        E 80 90 18 60
        E 0 90 1a 60
        E 80 80 18 00
        E 0 80 1a 00
        E 400 90 19 60
        E 0 90 1a 60
        E 80 80 19 00
        E 0 80 1a 00
        E 240 90 1a 60
        E 80 80 1a 00
        E 80 90 18 60
        E 0 90 1a 60
        E 80 80 18 00
        E 0 80 1a 00
        E 400 90 19 60
        E 0 90 1a 60
        E 80 80 19 00
        E 0 80 1a 00
        E 240 90 1a 60
        E 80 80 1a 00
        E 80 90 18 60
        E 0 90 1a 60
        E 80 80 18 00
        E 0 80 1a 00
        E 400 90 19 60
        E 0 90 1a 60
        E 80 80 19 00
        E 0 80 1a 00
        E 240 90 1a 60
        E 80 80 1a 00
        E 80 90 18 60
        E 0 90 1a 60
        E 80 80 18 00
        E 0 80 1a 00
        E 240 90 1a 60
        E 80 80 1a 00
        E 80 90 19 60
        E 0 90 1a 60
        E 80 80 19 00
        E 0 80 1a 00
        E 240 90 1a 60
        E 80 80 1a 00
        E 80 90 18 60
        E 0 90 1a 60
        E 80 80 18 00
        E 0 80 1a 00
        E 400 90 19 60
        E 0 90 1a 60
        E 80 80 19 00
        E 0 80 1a 00
        E 240 90 1a 60
        E 80 80 1a 00
        E 80 90 18 60
        E 0 90 1a 60
        E 80 80 18 00
        E 0 80 1a 00
        E 240 90 1a 60
        E 80 80 1a 00
        E 80 90 19 60
        E 0 90 1a 60
        E 80 80 19 00
        E 0 80 1a 00
        E 240 90 1a 60
        E 80 80 1a 00
        E 80 90 18 60
        E 0 90 1a 60
        E 80 80 18 00
        E 0 80 1a 00
        E 400 90 19 60
        E 0 90 1a 60
        E 80 80 19 00
        E 0 80 1a 00
        E 240 90 1a 60
        E 80 80 1a 00
        E 80 90 18 60
        E 0 90 1a 60
        E 80 80 18 00
        E 0 80 1a 00
        E 240 90 1a 60
        E 80 80 1a 00
        E 80 90 19 60
        E 0 90 1a 60
        E 80 80 19 00
        E 0 80 1a 00
        E 240 90 1a 60
        E 80 80 1a 00
        E 80 90 18 60
        E 0 90 1a 60
        E 80 80 18 00
        E 0 80 1a 00
        E 400 90 18 60
        E 0 90 1a 60
        E 80 80 18 00
        E 0 80 1a 00
        E 400 90 18 60
        E 0 90 1a 60
        E 80 80 18 00
        E 0 80 1a 00
        <X 880 0
          /wFbcHJjX2phbV8yYV0=
        >
        E 0 90 18 60
        E 0 90 1a 60
        E 80 80 18 00
        E 0 80 1a 00
        E 400 90 19 60
        E 0 90 1a 60
        E 80 80 19 00
        E 0 80 1a 00
        E 240 90 1a 60
        E 80 80 1a 00
        E 80 90 18 60
        E 0 90 1a 60
        E 80 80 18 00
        E 0 80 1a 00
        E 400 90 19 60
        E 0 90 1a 60
        E 80 80 19 00
        E 0 80 1a 00
        E 240 90 1a 60
        E 80 80 1a 00
        E 80 90 18 60
        E 0 90 1a 60
        E 80 80 18 00
        E 0 80 1a 00
        E 400 90 19 60
        E 0 90 1a 60
        E 80 80 19 00
        E 0 80 1a 00
        E 240 90 1a 60
        E 80 80 1a 00
        E 80 90 18 60
        E 0 90 1a 60
        E 80 80 18 00
        E 0 80 1a 00
        E 400 90 19 60
        E 0 90 1a 60
        E 80 80 19 00
        E 0 80 1a 00
        E 240 90 1a 60
        E 80 80 1a 00
        E 80 90 18 60
        E 0 90 1a 60
        E 80 80 18 00
        E 0 80 1a 00
        E 400 90 19 60
        E 0 90 1a 60
        E 80 80 19 00
        E 0 80 1a 00
        E 240 90 1a 60
        E 80 80 1a 00
        E 80 90 18 60
        E 0 90 1a 60
        E 80 80 18 00
        E 0 80 1a 00
        E 400 90 19 60
        E 0 90 1a 60
        E 80 80 19 00
        E 0 80 1a 00
        E 240 90 1a 60
        E 80 80 1a 00
        E 80 90 18 60
        E 0 90 1a 60
        E 80 80 18 00
        E 0 80 1a 00
        E 400 90 19 60
        E 0 90 1a 60
        E 80 80 19 00
        E 0 80 1a 00
        E 240 90 1a 60
        E 80 80 1a 00
        E 80 90 18 60
        E 0 90 1a 60
        E 80 80 18 00
        E 0 80 1a 00
        E 400 90 19 60
        E 0 90 1a 60
        E 80 80 19 00
        E 0 80 1a 00
        E 240 90 1a 60
        E 80 80 1a 00
        E 80 90 18 60
        E 0 90 1a 60
        E 80 80 18 00
        E 0 80 1a 00
        E 400 90 19 60
        E 0 90 1a 60
        E 80 80 19 00
        E 0 80 1a 00
        E 240 90 1a 60
        E 80 80 1a 00
        E 80 90 18 60
        E 0 90 1a 60
        E 80 80 18 00
        E 0 80 1a 00
        E 400 90 19 60
        E 0 90 1a 60
        E 80 80 19 00
        E 0 80 1a 00
        E 240 90 1a 60
        E 80 80 1a 00
        E 80 90 18 60
        E 0 90 1a 60
        E 80 80 18 00
        E 0 80 1a 00
        E 400 90 19 60
        E 0 90 1a 60
        E 80 80 19 00
        E 0 80 1a 00
        E 240 90 1a 60
        E 80 80 1a 00
        E 80 90 18 60
        E 0 90 1a 60
        E 80 80 18 00
        E 0 80 1a 00
        E 400 90 19 60
        E 0 90 1a 60
        E 80 80 19 00
        E 0 80 1a 00
        E 240 90 1a 60
        E 80 80 1a 00
        E 80 90 18 60
        E 0 90 1a 60
        E 80 80 18 00
        E 0 80 1a 00
        <X 3280 0
          /wFbcHJjX2phbV8yYl0=
        >
        E 480 90 18 60
        E 0 90 1a 60
        E 80 80 18 00
        E 0 80 1a 00
        E 400 90 19 60
        E 0 90 1a 60
        E 80 80 19 00
        E 0 80 1a 00
        E 240 90 1a 60
        E 80 80 1a 00
        E 80 90 18 60
        E 0 90 1a 60
        E 80 80 18 00
        E 0 80 1a 00
        E 400 90 19 60
        E 0 90 1a 60
        E 80 80 19 00
        E 0 80 1a 00
        E 240 90 1a 60
        E 80 80 1a 00
        E 80 90 18 60
        E 0 90 1a 60
        E 80 80 18 00
        E 0 80 1a 00
        E 400 90 19 60
        E 0 90 1a 60
        E 80 80 19 00
        E 0 80 1a 00
        E 240 90 1a 60
        E 80 80 1a 00
        E 80 90 18 60
        E 0 90 1a 60
        E 80 80 18 00
        E 0 80 1a 00
        E 400 90 19 60
        E 0 90 1a 60
        E 80 80 19 00
        E 0 80 1a 00
        E 240 90 1a 60
        E 80 80 1a 00
        E 80 90 18 60
        E 0 90 1a 60
        E 80 80 18 00
        E 0 80 1a 00
        E 400 90 19 60
        E 0 90 1a 60
        E 80 80 19 00
        E 0 80 1a 00
        E 240 90 1a 60
        E 80 80 1a 00
        E 80 90 18 60
        E 0 90 1a 60
        E 80 80 18 00
        E 0 80 1a 00
        E 400 90 19 60
        E 0 90 1a 60
        E 80 80 19 00
        E 0 80 1a 00
        E 240 90 1a 60
        E 80 80 1a 00
        E 80 90 18 60
        E 0 90 1a 60
        E 80 80 18 00
        E 0 80 1a 00
        E 400 90 19 60
        E 0 90 1a 60
        E 80 80 19 00
        E 0 80 1a 00
        E 240 90 1a 60
        E 80 80 1a 00
        E 80 90 18 60
        E 0 90 1a 60
        E 80 80 18 00
        E 0 80 1a 00
        E 400 90 19 60
        E 0 90 1a 60
        E 80 80 19 00
        E 0 80 1a 00
        E 240 90 1a 60
        E 80 80 1a 00
        E 80 90 18 60
        E 0 90 1a 60
        E 80 80 18 00
        E 0 80 1a 00
        E 400 90 19 60
        E 0 90 1a 60
        E 80 80 19 00
        E 0 80 1a 00
        E 240 90 1a 60
        E 80 80 1a 00
        E 80 90 18 60
        E 0 90 1a 60
        E 80 80 18 00
        E 0 80 1a 00
        E 240 90 1a 60
        E 80 80 1a 00
        E 80 90 19 60
        E 0 90 1a 60
        E 80 80 19 00
        E 0 80 1a 00
        E 240 90 1a 60
        E 80 80 1a 00
        E 80 90 18 60
        E 0 90 1a 60
        E 80 80 18 00
        E 0 80 1a 00
        E 400 90 19 60
        E 0 90 1a 60
        E 80 80 19 00
        E 0 80 1a 00
        E 240 90 1a 60
        E 80 80 1a 00
        E 80 90 18 60
        E 0 90 1a 60
        E 80 80 18 00
        E 0 80 1a 00
        E 240 90 1a 60
        E 80 80 1a 00
        E 80 90 19 60
        E 0 90 1a 60
        E 80 80 19 00
        E 0 80 1a 00
        E 240 90 1a 60
        E 80 80 1a 00
        E 80 90 18 60
        E 0 90 1a 60
        E 80 80 18 00
        E 0 80 1a 00
        E 400 90 19 60
        E 0 90 1a 60
        E 80 80 19 00
        E 0 80 1a 00
        E 240 90 1a 60
        E 80 80 1a 00
        E 80 90 18 60
        E 0 90 1a 60
        E 80 80 18 00
        E 0 80 1a 00
        E 240 90 1a 60
        E 80 80 1a 00
        E 80 90 19 60
        E 0 90 1a 60
        E 80 80 19 00
        E 0 80 1a 00
        E 240 90 1a 60
        E 80 80 1a 00
        E 80 90 18 60
        E 0 90 1a 60
        E 80 80 18 00
        E 0 80 1a 00
        E 400 90 18 60
        E 0 90 1a 60
        E 80 80 18 00
        E 0 80 1a 00
        E 400 90 18 60
        E 0 90 1a 60
        E 80 80 18 00
        E 0 80 1a 00
        <X 880 0
          /wFbcHJjX2phbV8zYV0=
        >
        E 0 90 18 60
        E 0 90 1a 60
        E 80 80 18 00
        E 0 80 1a 00
        E 400 90 19 60
        E 0 90 1a 60
        E 80 80 19 00
        E 0 80 1a 00
        E 240 90 1a 60
        E 80 80 1a 00
        E 80 90 18 60
        E 0 90 1a 60
        E 80 80 18 00
        E 0 80 1a 00
        E 400 90 19 60
        E 0 90 1a 60
        E 80 80 19 00
        E 0 80 1a 00
        E 240 90 1a 60
        E 80 80 1a 00
        E 80 90 18 60
        E 0 90 1a 60
        E 80 80 18 00
        E 0 80 1a 00
        E 400 90 19 60
        E 0 90 1a 60
        E 80 80 19 00
        E 0 80 1a 00
        E 240 90 1a 60
        E 80 80 1a 00
        E 80 90 18 60
        E 0 90 1a 60
        E 80 80 18 00
        E 0 80 1a 00
        E 400 90 19 60
        E 0 90 1a 60
        E 80 80 19 00
        E 0 80 1a 00
        E 240 90 1a 60
        E 80 80 1a 00
        E 80 90 18 60
        E 0 90 1a 60
        E 80 80 18 00
        E 0 80 1a 00
        E 400 90 19 60
        E 0 90 1a 60
        E 80 80 19 00
        E 0 80 1a 00
        E 240 90 1a 60
        E 80 80 1a 00
        E 80 90 18 60
        E 0 90 1a 60
        E 80 80 18 00
        E 0 80 1a 00
        E 400 90 19 60
        E 0 90 1a 60
        E 80 80 19 00
        E 0 80 1a 00
        E 240 90 1a 60
        E 80 80 1a 00
        E 80 90 18 60
        E 0 90 1a 60
        E 80 80 18 00
        E 0 80 1a 00
        E 400 90 19 60
        E 0 90 1a 60
        E 80 80 19 00
        E 0 80 1a 00
        E 240 90 1a 60
        E 80 80 1a 00
        E 80 90 18 60
        E 0 90 1a 60
        E 80 80 18 00
        E 0 80 1a 00
        E 400 90 19 60
        E 0 90 1a 60
        E 80 80 19 00
        E 0 80 1a 00
        E 240 90 1a 60
        E 80 80 1a 00
        E 80 90 18 60
        E 0 90 1a 60
        E 80 80 18 00
        E 0 80 1a 00
        E 400 90 19 60
        E 0 90 1a 60
        E 80 80 19 00
        E 0 80 1a 00
        E 240 90 1a 60
        E 80 80 1a 00
        E 80 90 18 60
        E 0 90 1a 60
        E 80 80 18 00
        E 0 80 1a 00
        E 400 90 19 60
        E 0 90 1a 60
        E 80 80 19 00
        E 0 80 1a 00
        E 240 90 1a 60
        E 80 80 1a 00
        E 80 90 18 60
        E 0 90 1a 60
        E 80 80 18 00
        E 0 80 1a 00
        E 400 90 19 60
        E 0 90 1a 60
        E 80 80 19 00
        E 0 80 1a 00
        E 240 90 1a 60
        E 80 80 1a 00
        E 80 90 18 60
        E 0 90 1a 60
        E 80 80 18 00
        E 0 80 1a 00
        E 400 90 19 60
        E 0 90 1a 60
        E 80 80 19 00
        E 0 80 1a 00
        E 240 90 1a 60
        E 80 80 1a 00
        E 80 90 18 60
        E 0 90 1a 60
        E 80 80 18 00
        E 0 80 1a 00
        <X 3280 0
          /wFbcHJjX2phbV8zYl0=
        >
        E 480 90 18 60
        E 0 90 1a 60
        E 80 80 18 00
        E 0 80 1a 00
        E 400 90 19 60
        E 0 90 1a 60
        E 80 80 19 00
        E 0 80 1a 00
        E 240 90 1a 60
        E 80 80 1a 00
        E 80 90 18 60
        E 0 90 1a 60
        E 80 80 18 00
        E 0 80 1a 00
        E 400 90 19 60
        E 0 90 1a 60
        E 80 80 19 00
        E 0 80 1a 00
        E 240 90 1a 60
        E 80 80 1a 00
        E 80 90 18 60
        E 0 90 1a 60
        E 80 80 18 00
        E 0 80 1a 00
        E 400 90 19 60
        E 0 90 1a 60
        E 80 80 19 00
        E 0 80 1a 00
        E 240 90 1a 60
        E 80 80 1a 00
        E 80 90 18 60
        E 0 90 1a 60
        E 80 80 18 00
        E 0 80 1a 00
        E 400 90 19 60
        E 0 90 1a 60
        E 80 80 19 00
        E 0 80 1a 00
        E 240 90 1a 60
        E 80 80 1a 00
        E 80 90 18 60
        E 0 90 1a 60
        E 80 80 18 00
        E 0 80 1a 00
        E 400 90 19 60
        E 0 90 1a 60
        E 80 80 19 00
        E 0 80 1a 00
        E 240 90 1a 60
        E 80 80 1a 00
        E 80 90 18 60
        E 0 90 1a 60
        E 80 80 18 00
        E 0 80 1a 00
        E 400 90 19 60
        E 0 90 1a 60
        E 80 80 19 00
        E 0 80 1a 00
        E 240 90 1a 60
        E 80 80 1a 00
        E 80 90 18 60
        E 0 90 1a 60
        E 80 80 18 00
        E 0 80 1a 00
        E 400 90 19 60
        E 0 90 1a 60
        E 80 80 19 00
        E 0 80 1a 00
        E 240 90 1a 60
        E 80 80 1a 00
        E 80 90 18 60
        E 0 90 1a 60
        E 80 80 18 00
        E 0 80 1a 00
        E 400 90 19 60
        E 0 90 1a 60
        E 80 80 19 00
        E 0 80 1a 00
        E 240 90 1a 60
        E 80 80 1a 00
        E 80 90 18 60
        E 0 90 1a 60
        E 80 80 18 00
        E 0 80 1a 00
        E 400 90 19 60
        E 0 90 1a 60
        E 80 80 19 00
        E 0 80 1a 00
        E 240 90 1a 60
        E 80 80 1a 00
        E 80 90 18 60
        E 0 90 1a 60
        E 80 80 18 00
        E 0 80 1a 00
        E 240 90 1a 60
        E 80 80 1a 00
        E 80 90 19 60
        E 0 90 1a 60
        E 80 80 19 00
        E 0 80 1a 00
        E 240 90 1a 60
        E 80 80 1a 00
        E 80 90 18 60
        E 0 90 1a 60
        E 80 80 18 00
        E 0 80 1a 00
        E 400 90 19 60
        E 0 90 1a 60
        E 80 80 19 00
        E 0 80 1a 00
        E 240 90 1a 60
        E 80 80 1a 00
        E 80 90 18 60
        E 0 90 1a 60
        E 80 80 18 00
        E 0 80 1a 00
        E 240 90 1a 60
        E 80 80 1a 00
        E 80 90 19 60
        E 0 90 1a 60
        E 80 80 19 00
        E 0 80 1a 00
        E 240 90 1a 60
        E 80 80 1a 00
        E 80 90 18 60
        E 0 90 1a 60
        E 80 80 18 00
        E 0 80 1a 00
        E 400 90 19 60
        E 0 90 1a 60
        E 80 80 19 00
        E 0 80 1a 00
        E 240 90 1a 60
        E 80 80 1a 00
        E 80 90 18 60
        E 0 90 1a 60
        E 80 80 18 00
        E 0 80 1a 00
        E 240 90 1a 60
        E 80 80 1a 00
        E 80 90 19 60
        E 0 90 1a 60
        E 80 80 19 00
        E 0 80 1a 00
        E 240 90 1a 60
        E 80 80 1a 00
        E 80 90 18 60
        E 0 90 1a 60
        E 80 80 18 00
        E 0 80 1a 00
        E 400 90 18 60
        E 0 90 1a 60
        E 80 80 18 00
        E 0 80 1a 00
        E 400 90 18 60
        E 0 90 1a 60
        E 80 80 18 00
        E 0 80 1a 00
        <X 880 0
          /wFbcHJjX2phbV80YV0=
        >
        E 0 90 18 60
        E 0 90 1a 60
        E 80 80 18 00
        E 0 80 1a 00
        E 400 90 19 60
        E 0 90 1a 60
        E 80 80 19 00
        E 0 80 1a 00
        E 240 90 1a 60
        E 80 80 1a 00
        E 80 90 18 60
        E 0 90 1a 60
        E 80 80 18 00
        E 0 80 1a 00
        E 400 90 19 60
        E 0 90 1a 60
        E 80 80 19 00
        E 0 80 1a 00
        E 240 90 1a 60
        E 80 80 1a 00
        E 80 90 18 60
        E 0 90 1a 60
        E 80 80 18 00
        E 0 80 1a 00
        E 400 90 19 60
        E 0 90 1a 60
        E 80 80 19 00
        E 0 80 1a 00
        E 240 90 1a 60
        E 80 80 1a 00
        E 80 90 18 60
        E 0 90 1a 60
        E 80 80 18 00
        E 0 80 1a 00
        E 400 90 19 60
        E 0 90 1a 60
        E 80 80 19 00
        E 0 80 1a 00
        E 240 90 1a 60
        E 80 80 1a 00
        E 80 90 18 60
        E 0 90 1a 60
        E 80 80 18 00
        E 0 80 1a 00
        E 400 90 19 60
        E 0 90 1a 60
        E 80 80 19 00
        E 0 80 1a 00
        E 240 90 1a 60
        E 80 80 1a 00
        E 80 90 18 60
        E 0 90 1a 60
        E 80 80 18 00
        E 0 80 1a 00
        E 400 90 19 60
        E 0 90 1a 60
        E 80 80 19 00
        E 0 80 1a 00
        E 240 90 1a 60
        E 80 80 1a 00
        E 80 90 18 60
        E 0 90 1a 60
        E 80 80 18 00
        E 0 80 1a 00
        E 400 90 19 60
        E 0 90 1a 60
        E 80 80 19 00
        E 0 80 1a 00
        E 240 90 1a 60
        E 80 80 1a 00
        E 80 90 18 60
        E 0 90 1a 60
        E 80 80 18 00
        E 0 80 1a 00
        E 400 90 19 60
        E 0 90 1a 60
        E 80 80 19 00
        E 0 80 1a 00
        E 240 90 1a 60
        E 80 80 1a 00
        E 80 90 18 60
        E 0 90 1a 60
        E 80 80 18 00
        E 0 80 1a 00
        E 400 90 19 60
        E 0 90 1a 60
        E 80 80 19 00
        E 0 80 1a 00
        E 240 90 1a 60
        E 80 80 1a 00
        E 80 90 18 60
        E 0 90 1a 60
        E 80 80 18 00
        E 0 80 1a 00
        E 400 90 19 60
        E 0 90 1a 60
        E 80 80 19 00
        E 0 80 1a 00
        E 240 90 1a 60
        E 80 80 1a 00
        E 80 90 18 60
        E 0 90 1a 60
        E 80 80 18 00
        E 0 80 1a 00
        E 400 90 19 60
        E 0 90 1a 60
        E 80 80 19 00
        E 0 80 1a 00
        E 240 90 1a 60
        E 80 80 1a 00
        E 80 90 18 60
        E 0 90 1a 60
        E 80 80 18 00
        E 0 80 1a 00
        E 400 90 19 60
        E 0 90 1a 60
        E 80 80 19 00
        E 0 80 1a 00
        E 240 90 1a 60
        E 80 80 1a 00
        E 80 90 18 60
        E 0 90 1a 60
        E 80 80 18 00
        E 0 80 1a 00
        <X 3280 0
          /wFbcHJjX2phbV80Yl0=
        >
        E 480 90 18 60
        E 0 90 1a 60
        E 80 80 18 00
        E 0 80 1a 00
        E 400 90 19 60
        E 0 90 1a 60
        E 80 80 19 00
        E 0 80 1a 00
        E 240 90 1a 60
        E 80 80 1a 00
        E 80 90 18 60
        E 0 90 1a 60
        E 80 80 18 00
        E 0 80 1a 00
        E 400 90 19 60
        E 0 90 1a 60
        E 80 80 19 00
        E 0 80 1a 00
        E 240 90 1a 60
        E 80 80 1a 00
        E 80 90 18 60
        E 0 90 1a 60
        E 80 80 18 00
        E 0 80 1a 00
        E 400 90 19 60
        E 0 90 1a 60
        E 80 80 19 00
        E 0 80 1a 00
        E 240 90 1a 60
        E 80 80 1a 00
        E 80 90 18 60
        E 0 90 1a 60
        E 80 80 18 00
        E 0 80 1a 00
        E 400 90 19 60
        E 0 90 1a 60
        E 80 80 19 00
        E 0 80 1a 00
        E 240 90 1a 60
        E 80 80 1a 00
        E 80 90 18 60
        E 0 90 1a 60
        E 80 80 18 00
        E 0 80 1a 00
        E 400 90 19 60
        E 0 90 1a 60
        E 80 80 19 00
        E 0 80 1a 00
        E 240 90 1a 60
        E 80 80 1a 00
        E 80 90 18 60
        E 0 90 1a 60
        E 80 80 18 00
        E 0 80 1a 00
        E 400 90 19 60
        E 0 90 1a 60
        E 80 80 19 00
        E 0 80 1a 00
        E 240 90 1a 60
        E 80 80 1a 00
        E 80 90 18 60
        E 0 90 1a 60
        E 80 80 18 00
        E 0 80 1a 00
        E 400 90 19 60
        E 0 90 1a 60
        E 80 80 19 00
        E 0 80 1a 00
        E 240 90 1a 60
        E 80 80 1a 00
        E 80 90 18 60
        E 0 90 1a 60
        E 80 80 18 00
        E 0 80 1a 00
        E 400 90 19 60
        E 0 90 1a 60
        E 80 80 19 00
        E 0 80 1a 00
        E 240 90 1a 60
        E 80 80 1a 00
        E 80 90 18 60
        E 0 90 1a 60
        E 80 80 18 00
        E 0 80 1a 00
        E 400 90 19 60
        E 0 90 1a 60
        E 80 80 19 00
        E 0 80 1a 00
        E 240 90 1a 60
        E 80 80 1a 00
        E 80 90 18 60
        E 0 90 1a 60
        E 80 80 18 00
        E 0 80 1a 00
        E 240 90 1a 60
        E 80 80 1a 00
        E 80 90 19 60
        E 0 90 1a 60
        E 80 80 19 00
        E 0 80 1a 00
        E 240 90 1a 60
        E 80 80 1a 00
        E 80 90 18 60
        E 0 90 1a 60
        E 80 80 18 00
        E 0 80 1a 00
        E 400 90 19 60
        E 0 90 1a 60
        E 80 80 19 00
        E 0 80 1a 00
        E 240 90 1a 60
        E 80 80 1a 00
        E 80 90 18 60
        E 0 90 1a 60
        E 80 80 18 00
        E 0 80 1a 00
        E 240 90 1a 60
        E 80 80 1a 00
        E 80 90 19 60
        E 0 90 1a 60
        E 80 80 19 00
        E 0 80 1a 00
        E 240 90 1a 60
        E 80 80 1a 00
        E 80 90 18 60
        E 0 90 1a 60
        E 80 80 18 00
        E 0 80 1a 00
        E 400 90 19 60
        E 0 90 1a 60
        E 80 80 19 00
        E 0 80 1a 00
        E 240 90 1a 60
        E 80 80 1a 00
        E 80 90 18 60
        E 0 90 1a 60
        E 80 80 18 00
        E 0 80 1a 00
        E 240 90 1a 60
        E 80 80 1a 00
        E 80 90 19 60
        E 0 90 1a 60
        E 80 80 19 00
        E 0 80 1a 00
        E 240 90 1a 60
        E 80 80 1a 00
        E 80 90 18 60
        E 0 90 1a 60
        E 80 80 18 00
        E 0 80 1a 00
        E 400 90 18 60
        E 0 90 1a 60
        E 80 80 18 00
        E 0 80 1a 00
        E 400 90 18 60
        E 0 90 1a 60
        E 80 80 18 00
        E 0 80 1a 00
        <X 880 0
          /wFbbXVzaWNfZW5kXQ==
        >
        <X 1915 0
          /wFbZW5kXQ==
        >
        E 5 b0 7b 00
        GUID {CBF0763F-8024-4B34-982F-23C1A2C51454}
        IGNTEMPO 0 120.00000000 4 4
        SRCCOLOR 3
        VELLANE 132 128 60
        COLORMAP "C:\Program Files\REAPER (x64)\Data\color_maps\rockband_guitarbass.png"
        TEXTSTRINGFILE "C:\Program Files\REAPER (x64)\Data\Text_Strings\Text Events List - Events.txt"
        CFGEDITVIEW -6432.000000 11.726727 66 12 0 0 0
        CFGEDIT 1 1 0 1 1 0 1 1 1 1 1 0.16666667 -8 -8 1544 872 0 0 1 1 0.00000000 0 1 0 0 0.500000 0 0 1.000000 64
        KEYSNAP 0 3 "102034050607" 0 "Major"
        EVTFILTER 0 -1 -1 -1 -1 0 1 0 0 -1.00000000 -1.00000000
      >
    >
  >
  <TRACK '{8017D4F2-2186-4C80-B00E-220F678AB4BF}'
    NAME "BEAT"
    PEAKCOL 16576
    BEAT -1
    AUTOMODE 0
    VOLPAN 1.00000000000000 0.00000000000000 -1.00000000000000 -1.00000000000000 1.00000000000000
    MUTESOLO 0 0 0
    IPHASE 0
    ISBUS 0 0
    BUSCOMP 0 0
    SHOWINMIX 1 0.666700 0.500000 1 0.500000 -1 -1 -1
    FREEMODE 0
    SEL 0
    REC 0 0 0 0 0 0 0
    VU 2
    TRACKHEIGHT 0 0
    INQ 0 0 0 0.5000000000 100 0 0 100
    NCHAN 2
    FX 1
    TRACKID {8017D4F2-2186-4C80-B00E-220F678AB4BF}
    PERF 0
    MIDIOUT -1
    MAINSEND 1 0
    <ITEM
      POSITION 0.00000000000000
      SNAPOFFS 0.00000000000000
      LENGTH 107.21429523936526
      LOOP 0
      ALLTAKES 0
      SEL 0
      FADEIN 1 0.000000 0.000000 1 0
      FADEOUT 1 0.000000 0.000000 1 0
      MUTE 0
      IGUID {B668FC2C-BFEA-42B1-9681-3082135BD9EC}
      IID 33
      NAME "BEAT"
      VOLPAN 1.000000 0.000000 1.000000 -1.000000
      SOFFS 0.00000000000000 0.00000000000000
      PLAYRATE 1.00000000000000 1 0.00000000000000 -1
      CHANMODE 0
      GUID {7E9E9746-22BB-47FF-B1DB-2C03622D4F98}
      <SOURCE MIDI
        HASDATA 1 480 QN
        POOLEDEVTS {D6EB1085-CAF5-481A-B2ED-A3CD6C1BE532}
        <X 0 0
          /wNCRUFU
        >
        e 0 96 0c 64
        e 120 86 0c 00
        e 360 96 0d 64
        e 120 86 0d 00
        e 360 96 0d 64
        e 120 86 0d 00
        e 360 96 0d 64
        e 120 86 0d 00
        e 360 96 0c 64
        e 120 86 0c 00
        e 360 96 0d 64
        e 120 86 0d 00
        e 360 96 0d 64
        e 120 86 0d 00
        e 360 96 0d 64
        e 120 86 0d 00
        e 360 96 0c 64
        e 120 86 0c 00
        e 360 96 0d 64
        e 120 86 0d 00
        e 360 96 0d 64
        e 120 86 0d 00
        e 360 96 0d 64
        e 120 86 0d 00
        e 360 96 0c 64
        e 120 86 0c 00
        e 360 96 0d 64
        e 120 86 0d 00
        e 360 96 0d 64
        e 120 86 0d 00
        e 360 96 0d 64
        e 120 86 0d 00
        e 360 96 0c 64
        e 120 86 0c 00
        e 360 96 0d 64
        e 120 86 0d 00
        e 360 96 0d 64
        e 120 86 0d 00
        e 360 96 0d 64
        e 120 86 0d 00
        e 360 96 0c 64
        e 120 86 0c 00
        e 360 96 0d 64
        e 120 86 0d 00
        e 360 96 0d 64
        e 120 86 0d 00
        e 360 96 0d 64
        e 120 86 0d 00
        e 360 96 0c 64
        e 120 86 0c 00
        e 360 96 0d 64
        e 120 86 0d 00
        e 360 96 0d 64
        e 120 86 0d 00
        e 360 96 0d 64
        e 120 86 0d 00
        e 360 96 0c 64
        e 120 86 0c 00
        e 360 96 0d 64
        e 120 86 0d 00
        e 360 96 0d 64
        e 120 86 0d 00
        e 360 96 0d 64
        e 120 86 0d 00
        e 360 96 0c 64
        e 120 86 0c 00
        e 360 96 0d 64
        e 120 86 0d 00
        e 360 96 0d 64
        e 120 86 0d 00
        e 360 96 0d 64
        e 120 86 0d 00
        e 360 96 0c 64
        e 120 86 0c 00
        e 360 96 0d 64
        e 120 86 0d 00
        e 360 96 0d 64
        e 120 86 0d 00
        e 360 96 0d 64
        e 120 86 0d 00
        e 360 96 0c 64
        e 120 86 0c 00
        e 360 96 0d 64
        e 120 86 0d 00
        e 360 96 0d 64
        e 120 86 0d 00
        e 360 96 0d 64
        e 120 86 0d 00
        e 360 96 0c 64
        e 120 86 0c 00
        e 360 96 0d 64
        e 120 86 0d 00
        e 360 96 0d 64
        e 120 86 0d 00
        e 360 96 0d 64
        e 120 86 0d 00
        e 360 96 0c 64
        e 120 86 0c 00
        e 360 96 0d 64
        e 120 86 0d 00
        e 360 96 0d 64
        e 120 86 0d 00
        e 360 96 0d 64
        e 120 86 0d 00
        e 360 96 0c 64
        e 120 86 0c 00
        e 360 96 0d 64
        e 120 86 0d 00
        e 360 96 0d 64
        e 120 86 0d 00
        e 360 96 0d 64
        e 120 86 0d 00
        e 360 96 0c 64
        e 120 86 0c 00
        e 360 96 0d 64
        e 120 86 0d 00
        e 360 96 0d 64
        e 120 86 0d 00
        e 360 96 0d 64
        e 120 86 0d 00
        e 360 96 0c 64
        e 120 86 0c 00
        e 360 96 0d 64
        e 120 86 0d 00
        e 360 96 0d 64
        e 120 86 0d 00
        e 360 96 0d 64
        e 120 86 0d 00
        e 360 96 0c 64
        e 120 86 0c 00
        e 360 96 0d 64
        e 120 86 0d 00
        e 360 96 0d 64
        e 120 86 0d 00
        e 360 96 0d 64
        e 120 86 0d 00
        e 360 96 0c 64
        e 120 86 0c 00
        e 360 96 0d 64
        e 120 86 0d 00
        e 360 96 0d 64
        e 120 86 0d 00
        e 360 96 0d 64
        e 120 86 0d 00
        e 360 96 0c 64
        e 120 86 0c 00
        e 360 96 0d 64
        e 120 86 0d 00
        e 360 96 0d 64
        e 120 86 0d 00
        e 360 96 0d 64
        e 120 86 0d 00
        e 360 96 0c 64
        e 120 86 0c 00
        e 360 96 0d 64
        e 120 86 0d 00
        e 360 96 0d 64
        e 120 86 0d 00
        e 360 96 0d 64
        e 120 86 0d 00
        e 360 96 0c 64
        e 120 86 0c 00
        e 360 96 0d 64
        e 120 86 0d 00
        e 360 96 0d 64
        e 120 86 0d 00
        e 360 96 0d 64
        e 120 86 0d 00
        e 360 96 0c 64
        e 120 86 0c 00
        e 360 96 0d 64
        e 120 86 0d 00
        e 360 96 0d 64
        e 120 86 0d 00
        e 360 96 0d 64
        e 120 86 0d 00
        e 360 96 0c 64
        e 120 86 0c 00
        e 360 96 0d 64
        e 120 86 0d 00
        e 360 96 0d 64
        e 120 86 0d 00
        e 360 96 0d 64
        e 120 86 0d 00
        e 360 96 0c 64
        e 120 86 0c 00
        e 360 96 0d 64
        e 120 86 0d 00
        e 360 96 0d 64
        e 120 86 0d 00
        e 360 96 0d 64
        e 120 86 0d 00
        e 360 96 0c 64
        e 120 86 0c 00
        e 360 96 0d 64
        e 120 86 0d 00
        e 360 96 0d 64
        e 120 86 0d 00
        e 360 96 0d 64
        e 120 86 0d 00
        e 360 96 0c 64
        e 120 86 0c 00
        e 360 96 0d 64
        e 120 86 0d 00
        e 360 96 0d 64
        e 120 86 0d 00
        e 360 96 0d 64
        e 120 86 0d 00
        e 360 96 0c 64
        e 120 86 0c 00
        e 360 96 0d 64
        e 120 86 0d 00
        e 360 96 0d 64
        e 120 86 0d 00
        e 360 96 0d 64
        e 120 86 0d 00
        e 360 96 0c 64
        e 120 86 0c 00
        e 360 96 0d 64
        e 120 86 0d 00
        e 360 96 0d 64
        e 120 86 0d 00
        e 360 96 0d 64
        e 120 86 0d 00
        e 360 96 0c 64
        e 120 86 0c 00
        e 360 96 0d 64
        e 120 86 0d 00
        e 360 96 0d 64
        e 120 86 0d 00
        e 360 96 0d 64
        e 120 86 0d 00
        e 360 96 0c 64
        e 120 86 0c 00
        e 360 96 0d 64
        e 120 86 0d 00
        e 360 96 0d 64
        e 120 86 0d 00
        e 360 96 0d 64
        e 120 86 0d 00
        e 360 96 0c 64
        e 120 86 0c 00
        e 360 96 0d 64
        e 120 86 0d 00
        e 360 96 0d 64
        e 120 86 0d 00
        e 360 96 0d 64
        e 120 86 0d 00
        e 360 96 0c 64
        e 120 86 0c 00
        e 360 96 0d 64
        e 120 86 0d 00
        e 360 96 0d 64
        e 120 86 0d 00
        e 360 96 0d 64
        e 120 86 0d 00
        e 360 96 0c 64
        e 120 86 0c 00
        e 360 96 0d 64
        e 120 86 0d 00
        e 360 96 0d 64
        e 120 86 0d 00
        e 360 96 0d 64
        e 120 86 0d 00
        e 360 96 0c 64
        e 120 86 0c 00
        e 360 96 0d 64
        e 120 86 0d 00
        e 360 96 0d 64
        e 120 86 0d 00
        e 360 96 0d 64
        e 120 86 0d 00
        e 360 96 0c 64
        e 120 86 0c 00
        e 360 96 0d 64
        e 120 86 0d 00
        e 360 96 0d 64
        e 120 86 0d 00
        e 360 96 0d 64
        e 120 86 0d 00
        e 360 96 0c 64
        e 120 86 0c 00
        e 360 96 0d 64
        e 120 86 0d 00
        e 360 96 0d 64
        e 120 86 0d 00
        e 360 96 0d 64
        e 120 86 0d 00
        e 360 96 0c 64
        e 120 86 0c 00
        e 360 96 0d 64
        e 120 86 0d 00
        e 360 96 0d 64
        e 120 86 0d 00
        e 360 96 0d 64
        e 120 86 0d 00
        e 360 96 0c 64
        e 120 86 0c 00
        e 360 96 0d 64
        e 120 86 0d 00
        e 360 96 0d 64
        e 120 86 0d 00
        e 360 96 0d 64
        e 120 86 0d 00
        e 360 96 0c 64
        e 120 86 0c 00
        e 360 96 0d 64
        e 120 86 0d 00
        e 360 96 0d 64
        e 120 86 0d 00
        e 360 96 0d 64
        e 120 86 0d 00
        e 360 96 0c 64
        e 120 86 0c 00
        e 360 96 0d 64
        e 120 86 0d 00
        e 360 96 0d 64
        e 120 86 0d 00
        e 360 96 0d 64
        e 120 86 0d 00
        e 360 96 0c 64
        e 120 86 0c 00
        e 360 96 0d 64
        e 120 86 0d 00
        e 360 96 0d 64
        e 120 86 0d 00
        e 360 96 0d 64
        e 120 86 0d 00
        e 360 96 0c 64
        e 120 86 0c 00
        e 360 96 0d 64
        e 120 86 0d 00
        e 360 96 0d 64
        e 120 86 0d 00
        e 360 96 0d 64
        e 120 86 0d 00
        e 360 96 0c 64
        e 120 86 0c 00
        e 360 96 0d 64
        e 120 86 0d 00
        e 360 96 0d 64
        e 120 86 0d 00
        e 360 96 0d 64
        e 120 86 0d 00
        e 360 96 0c 64
        e 120 86 0c 00
        e 360 96 0d 64
        e 120 86 0d 00
        e 360 96 0d 64
        e 120 86 0d 00
        e 360 96 0d 64
        e 120 86 0d 00
        e 360 96 0c 64
        e 120 86 0c 00
        e 360 96 0d 64
        e 120 86 0d 00
        e 360 96 0d 64
        e 120 86 0d 00
        e 360 96 0d 64
        e 120 86 0d 00
        e 360 96 0c 64
        e 120 86 0c 00
        e 360 96 0d 64
        e 120 86 0d 00
        e 360 96 0d 64
        e 120 86 0d 00
        e 360 96 0d 64
        e 120 86 0d 00
        e 360 96 0c 64
        e 120 86 0c 00
        e 360 96 0d 64
        e 120 86 0d 00
        e 360 96 0d 64
        e 120 86 0d 00
        e 360 96 0d 64
        e 120 86 0d 00
        e 360 96 0c 64
        e 120 86 0c 00
        e 360 96 0d 64
        e 120 86 0d 00
        e 360 96 0d 64
        e 120 86 0d 00
        e 360 96 0d 64
        e 120 86 0d 00
        e 360 96 0c 64
        e 120 86 0c 00
        e 360 96 0d 64
        e 120 86 0d 00
        e 360 96 0d 64
        e 120 86 0d 00
        e 360 96 0d 64
        e 120 86 0d 00
        e 360 96 0c 64
        e 120 86 0c 00
        e 360 96 0d 64
        e 120 86 0d 00
        e 360 96 0d 64
        e 120 86 0d 00
        e 360 96 0d 64
        e 120 86 0d 00
        e 360 96 0c 64
        e 120 86 0c 00
        e 360 96 0d 64
        e 120 86 0d 00
        e 360 96 0d 64
        e 120 86 0d 00
        e 360 96 0d 64
        e 120 86 0d 00
        e 360 96 0c 64
        e 120 86 0c 00
        e 360 96 0d 64
        e 120 86 0d 00
        e 360 96 0d 64
        e 120 86 0d 00
        e 360 96 0d 64
        e 120 86 0d 00
        e 360 96 0c 64
        e 120 86 0c 00
        e 360 96 0d 64
        e 120 86 0d 00
        e 360 96 0d 64
        e 120 86 0d 00
        e 360 96 0d 64
        e 120 86 0d 00
        e 360 96 0c 64
        e 120 86 0c 00
        e 360 96 0d 64
        e 120 86 0d 00
        e 360 96 0d 64
        e 120 86 0d 00
        e 360 96 0d 64
        e 120 86 0d 00
        e 360 96 0c 64
        e 120 86 0c 00
        e 360 96 0d 64
        e 120 86 0d 00
        e 360 96 0d 64
        e 120 86 0d 00
        e 360 96 0d 64
        e 120 86 0d 00
        e 360 96 0c 64
        e 120 86 0c 00
        e 360 96 0d 64
        e 120 86 0d 00
        e 360 96 0d 64
        e 120 86 0d 00
        e 360 96 0d 64
        e 120 86 0d 00
        e 360 96 0c 64
        e 120 86 0c 00
        e 360 96 0d 64
        e 120 86 0d 00
        e 360 96 0d 64
        e 120 86 0d 00
        e 360 96 0d 64
        e 120 86 0d 00
        e 360 96 0c 64
        e 120 86 0c 00
        e 360 96 0d 64
        e 120 86 0d 00
        e 360 96 0d 64
        e 120 86 0d 00
        e 360 96 0d 64
        e 120 86 0d 00
        e 360 96 0c 64
        e 120 86 0c 00
        e 360 96 0d 64
        e 120 86 0d 00
        e 360 96 0d 64
        e 120 86 0d 00
        e 360 96 0d 64
        e 120 86 0d 00
        e 360 96 0c 64
        e 120 86 0c 00
        e 360 96 0d 64
        e 120 86 0d 00
        e 360 96 0d 64
        e 120 86 0d 00
        e 360 96 0d 64
        e 120 86 0d 00
        e 360 96 0c 64
        e 120 86 0c 00
        e 360 96 0d 64
        e 120 86 0d 00
        e 360 96 0d 64
        e 120 86 0d 00
        e 360 96 0d 64
        e 120 86 0d 00
        e 360 96 0c 64
        e 120 86 0c 00
        e 360 96 0d 64
        e 120 86 0d 00
        e 360 96 0d 64
        e 120 86 0d 00
        e 360 96 0d 64
        e 120 86 0d 00
        e 360 96 0c 64
        e 120 86 0c 00
        e 360 96 0d 64
        e 120 86 0d 00
        e 360 96 0d 64
        e 120 86 0d 00
        e 360 96 0d 64
        e 120 86 0d 00
        e 360 96 0c 64
        e 120 86 0c 00
        e 360 96 0d 64
        e 120 86 0d 00
        e 360 96 0d 64
        e 120 86 0d 00
        e 360 96 0d 64
        e 120 86 0d 00
        e 360 96 0c 64
        e 120 86 0c 00
        e 360 96 0d 64
        e 120 86 0d 00
        e 360 96 0d 64
        e 120 86 0d 00
        e 360 96 0d 64
        e 120 86 0d 00
        e 360 96 0c 64
        e 120 86 0c 00
        e 360 96 0d 64
        e 120 86 0d 00
        e 360 96 0d 64
        e 120 86 0d 00
        e 360 96 0d 64
        e 120 86 0d 00
        e 360 96 0c 64
        e 120 86 0c 00
        e 360 96 0d 64
        e 120 86 0d 00
        e 360 96 0d 64
        e 120 86 0d 00
        e 360 96 0d 64
        e 120 86 0d 00
        E 360 b0 7b 00
        GUID {6A77CB30-3E51-4DCA-861A-D2290448A2A8}
        IGNTEMPO 0 120.00000000 4 4
        SRCCOLOR 4
        VELLANE 132 128 60
        COLORMAP "C:\Program Files\REAPER (x64)\Data\color_maps\rockband_guitarbass.png"
        CFGEDITVIEW -7469.119306 11.726727 61 12 0 0 0
        CFGEDIT 1 1 0 1 1 0 1 1 1 1 1 0.16666667 -8 -8 1370 736 0 0 1 1 0.00000000 0 1 1 0 0.500000 0 0 1.000000 64
        KEYSNAP 0 3 "102034050607" 0 "Major"
        EVTFILTER 0 -1 -1 -1 -1 0 1 0 0 -1.00000000 -1.00000000
      >
    >
  >
  <TRACK '{256A94CC-5236-46D6-8910-638443C193C9}'
    NAME "backing"
    PEAKCOL 16576
    BEAT -1
    AUTOMODE 0
    VOLPAN 1.00000000000000 0.00000000000000 -1.00000000000000 -1.00000000000000 1.00000000000000
    MUTESOLO 0 0 0
    IPHASE 0
    ISBUS 0 0
    BUSCOMP 0 0
    SHOWINMIX 1 0.666700 0.500000 1 0.500000 -1 -1 -1
    FREEMODE 0
    SEL 0
    REC 0 0 0 0 0 0 0
    VU 2
    TRACKHEIGHT 0 0
    INQ 0 0 0 0.5000000000 100 0 0 100
    NCHAN 2
    FX 1
    TRACKID {256A94CC-5236-46D6-8910-638443C193C9}
    PERF 0
    MIDIOUT -1
    MAINSEND 1 0
    <ITEM
      POSITION 0.00000000000000
      SNAPOFFS 0.00000000000000
      LENGTH 107.21428571428571
      LOOP 0
      ALLTAKES 0
      SEL 0
      FADEIN 1 0.000000 0.000000 1 0
      FADEOUT 1 0.000000 0.000000 1 0
      MUTE 0
      IGUID {64E7A9EC-3487-460B-9CAA-1C36D4D531A1}
      IID 60
      NAME "backing.wav"
      VOLPAN 1.000000 0.000000 1.000000 -1.000000
      SOFFS 0.00000000000000
      PLAYRATE 1.00000000000000 1 0.00000000000000 -1
      CHANMODE 0
      GUID {DD001077-5063-45AE-8B0D-79F0BCFE74A3}
      <SOURCE WAVE
        FILE "wav\backing.wav"
      >
    >
  >
  <EXTENSIONS
  >
>
