<REAPER_PROJECT 0.1 "4.22/x64"
  RIPPLE 0
  GROUPOVERRIDE 0 0 0
  AUTOXFADE 1
  ENVATTACH 1
  MIXERUIFLAGS 11 48
  PEAKGAIN 1.00000000000000
  FEEDBACK 0
  PANLAW 1.00000000000000
  PROJOFFS 0.00000000000000 0
  MAXPROJLEN 0 600.00000000000000
  GRID 3199 8 1.00000000000000 8 1.00000000000000 0
  TIMEMODE 1 0 -1
  PANMODE 3
  CURSOR 0.00000000000000
  ZOOM 6.07130915331112 0 0
  VZOOMEX 5
  USE_REC_CFG 0
  RECMODE 1
  SMPTESYNC 0 23.976024 100 40 1000 300 0 0.000000 1
  LOOP 1
  LOOPGRAN 0 4.00000000000000
  RECORD_PATH "" ""
  <RECORD_CFG
    ZXZhdxAD
  >
  <APPLYFX_CFG
  >
  RENDER_FILE ""
  RENDER_PATTERN ""
  RENDER_FMT 0 2 0
  RENDER_1X 0
  RENDER_RANGE 1 0.00000000000000 0.00000000000000
  RENDER_RESAMPLE 3 0 1
  RENDER_ADDTOPROJ 0
  RENDER_STEMS 0
  RENDER_DITHER 0
  TIMELOCKMODE 0
  ITEMMIX 0
  DEFPITCHMODE 393216
  TAKELANE 1
  SAMPLERATE 44100 0 0
  <RENDER_CFG
  >
  LOCK 1
  <METRONOME 6 2.000000
    VOL 0.250000 0.125000
    FREQ 800 1600 1
    BEATLEN 4
    SAMPLES "" ""
  >
  GLOBAL_AUTO -1
  TEMPO 120.00000000000000 4 4
  PLAYRATE 1.00000000000000 0 0.25000 4.00000
  SELECTION 184.96834400000000 0.00000000000000
  SELECTION2 184.96834400000000 0.00000000000000
  MASTERAUTOMODE 0
  MASTERTRACKHEIGHT 0
  MASTERPEAKCOL 16576
  MASTERMUTESOLO 0
  MASTERTRACKVIEW 0 0.666700 0.500000 0.500000 -1 -1 -1
  MASTERHWOUT 0 0 1.00000000000000 0.00000000000000 0 0 0 -1.00000000000000
  MASTER_NCH 2 2
  MASTER_VOLUME 1.00000000000000 0.00000000000000 -1.00000000000000 -1.00000000000000 1.00000000000000
  MASTER_PANMODE -1
  MASTER_FX 1
  MASTER_SEL 0
  <MASTERPLAYSPEEDENV
    ACT 0
    VIS 0 1 1.000000
    LANEHEIGHT 0 0
    ARM 0
    DEFSHAPE 0 -1 -1
  >
  <TEMPOENVEX
    ACT 1
    VIS 1 0 1.000000
    LANEHEIGHT 0 0
    ARM 0
    DEFSHAPE 1 -1 -1
    PT 0.000000000000 156.9998377668 1
  >
  <PROJBAY
  >
  <TRACK '{21521868-F06C-4E5E-9F8B-EF087C246D83}'
    NAME "PART DRUMS"
    PEAKCOL 16576
    BEAT -1
    AUTOMODE 0
    VOLPAN 1.00000000000000 0.00000000000000 -1.00000000000000 -1.00000000000000 1.00000000000000
    MUTESOLO 0 0 0
    IPHASE 0
    ISBUS 0 0
    BUSCOMP 0 0
    SHOWINMIX 1 0.666700 0.500000 1 0.500000 -1 -1 -1
    FREEMODE 0
    SEL 0
    REC 0 0 0 0 0 0 0
    VU 2
    TRACKHEIGHT 0 0
    INQ 0 0 0 0.5000000000 100 0 0 100
    NCHAN 2
    FX 1
    TRACKID {21521868-F06C-4E5E-9F8B-EF087C246D83}
    PERF 0
    MIDIOUT -1
    <MIDINOTENAMES
      0 127 "CYMBAL SWELLS"
      0 126 "DRUM ROLL"
      0 125 "---"
      0 124 "DRUM FILL"
      0 123 "DRUM FILL"
      0 122 "DRUM FILL"
      0 121 "DRUM FILL"
      0 120 "DRUM FILL (use all 5)"
      0 118 "----"
      0 116 "OVERDRIVE"
      0 114 "----"
      0 112 "TOM GEMS PAD 4"
      0 111 "TOM GEMS PAD 3"
      0 110 "TOM GEMS PAD 2"
      0 103 "Solo Marker"
      0 102 "----"
      0 100 "EXPERT Green"
      0 99 "EXPERT Blue"
      0 98 "EXPERT Yellow"
      0 97 "EXPERT Red"
      0 96 "EXPERT Kick"
      0 92 "----"
      0 88 "HARD Green"
      0 87 "HARD Blue"
      0 86 "HARD Yellow"
      0 85 "HARD Red"
      0 84 "HARD Kick"
      0 80 "----"
      0 76 "MEDIUM Green"
      0 75 "MEDIUM Blue"
      0 74 "MEDIUM Yellow"
      0 73 "MEDIUM Red"
      0 72 "MEDIUM Kick"
      0 68 "----"
      0 64 "EASY Green"
      0 63 "EASY Blue"
      0 62 "EASY Yellow"
      0 61 "EASY Red"
      0 60 "EASY Kick"
      0 56 "----"
      0 52 "-- DRUM ANIMATION --"
      0 51 "FLOOR TOM RH"
      0 50 "FLOOR TOM LH"
      0 49 "TOM2 RH"
      0 48 "TOM2 LH"
      0 47 "TOM1 RH"
      0 46 "TOM1 LH"
      0 45 "SOFT CRASH 2 LH"
      0 44 "CRASH 2 LH"
      0 43 "RIDE LH"
      0 42 "RIDE CYM RH"
      0 41 "CRASH2 CHOKE"
      0 40 "CRASH1 CHOKE"
      0 39 "CRASH2 SOFT RH"
      0 38 "CRASH2 HARD RH"
      0 37 "CRASH1 SOFT RH"
      0 36 "CRASH1 HARD RH"
      0 35 "CRASH1 SOFT LH"
      0 34 "CRASH1 HARD LH"
      0 32 "PERCUSSION RH"
      0 31 "HI-HAT RH"
      0 30 "HI-HAT LH"
      0 29 "SOFT SNARE RH"
      0 28 "SOFT SNARE LH"
      0 27 "SNARE RH"
      0 26 "SNARE LH"
      0 25 "HI-HAT OPEN"
      0 24 "KICK RF"
    >
    MAINSEND 1 0
    <FXCHAIN
      WNDRECT 0 43 891 559
      SHOW 0
      LASTSEL 0
      DOCKED 0
      BYPASS 0 0
      <VST "VSTi: RBN Preview (RBN)" "rbprev_vst64.dll" 0 ""
        dnBicu5e7f4AAAAAAgAAAAEAAAAAAAAAAgAAAAAAAAAEAAAAAQAAAA==
        AAAQAAMBqgAAABAAAAA=
      >
      FLOATPOS 0 0 0 0
      FXID {9222DEA8-9036-4BEE-9DE1-E9B38C2029E5}
      WAK 0
    >
    <ITEM
      POSITION 0.00000000000000
      SNAPOFFS 0.00000000000000
      LENGTH 184.96816326530612
      LOOP 0
      ALLTAKES 0
      SEL 0
      FADEIN 1 0.000000 0.000000 1 0
      FADEOUT 1 0.000000 0.000000 1 0
      MUTE 0
      IGUID {64E5F74B-50A6-443C-9971-DC1148931D9D}
      IID 1
      NAME "PART DRUMS"
      VOLPAN 1.000000 0.000000 1.000000 -1.000000
      SOFFS 0.00000000000000 0.00000000000000
      PLAYRATE 1.00000000000000 1 0.00000000000000 -1
      CHANMODE 0
      GUID {DD003950-27A7-4D1E-B4A6-61EB5EDF70E3}
      <SOURCE MIDI
        HASDATA 1 480 QN
        POOLEDEVTS {F7C3FFB7-C8AE-4F62-A04B-0FCFF545A6FB}
        <X 0 0
          /wNQQVJUIERSVU1T
        >
        <X 240 0
          /wFbbWl4IDEgZHJ1bXMwXQ==
        >
        <X 0 0
          /wFbbWl4IDAgZHJ1bXMwXQ==
        >
        <X 120 0
          /wFbbWl4IDIgZHJ1bXMwXQ==
        >
        <X 120 0
          /wFbbWl4IDMgZHJ1bXMwXQ==
        >
        <X 7200 0
          /wFbaWRsZV0=
        >
        <X 37440 0
          /wFbcGxheV0=
        >
        E 0 90 1f 60
        E 0 90 62 60
        E 0 90 56 60
        E 0 90 4a 60
        E 0 90 3e 60
        E 120 80 1f 00
        E 0 80 62 00
        E 0 80 56 00
        E 0 80 4a 00
        E 0 80 3e 00
        E 120 90 18 60
        E 0 90 60 60
        E 0 90 54 60
        E 120 80 18 00
        E 0 80 60 00
        E 0 80 54 00
        E 120 90 1a 60
        E 0 90 61 60
        E 0 90 55 60
        E 0 90 49 60
        E 0 90 3d 60
        E 120 80 1a 00
        E 0 80 61 00
        E 0 80 55 00
        E 0 80 49 00
        E 0 80 3d 00
        E 120 90 19 60
        E 0 90 1f 60
        E 0 90 63 60
        E 0 90 57 60
        E 120 80 1f 00
        E 0 80 63 00
        E 0 80 57 00
        E 120 80 19 00
        E 0 90 18 60
        E 0 90 24 60
        E 0 90 60 60
        E 0 90 64 60
        E 0 90 74 60
        E 0 90 54 60
        E 0 90 58 60
        E 0 90 48 60
        E 0 90 4c 60
        E 0 90 40 60
        E 120 80 18 00
        E 0 80 24 00
        E 0 80 60 00
        E 0 80 64 00
        E 0 80 54 00
        E 0 80 58 00
        E 0 80 48 00
        E 0 80 4c 00
        E 0 80 40 00
        E 360 90 1a 60
        E 0 90 1f 60
        E 0 90 61 60
        E 0 90 62 60
        E 0 90 55 60
        E 0 90 56 60
        E 0 90 49 60
        E 0 90 4a 60
        E 0 90 3d 60
        E 0 90 3e 60
        E 120 80 1a 00
        E 0 80 1f 00
        E 0 80 61 00
        E 0 80 62 00
        E 0 80 55 00
        E 0 80 56 00
        E 0 80 49 00
        E 0 80 4a 00
        E 0 80 3d 00
        E 0 80 3e 00
        E 120 90 18 60
        E 0 90 1f 60
        E 0 90 60 60
        E 0 90 62 60
        E 0 90 54 60
        E 0 90 56 60
        E 120 80 18 00
        E 0 80 1f 00
        E 0 80 60 00
        E 0 80 62 00
        E 0 80 54 00
        E 0 80 56 00
        E 120 90 1f 60
        E 0 90 62 60
        E 0 90 56 60
        E 0 90 4a 60
        E 0 90 3e 60
        E 120 80 1f 00
        E 0 80 62 00
        E 0 80 56 00
        E 0 80 4a 00
        E 0 80 3e 00
        E 120 90 1f 60
        E 0 90 62 60
        E 0 90 56 60
        E 120 80 1f 00
        E 0 80 62 00
        E 0 80 56 00
        E 120 90 1a 60
        E 0 90 1f 60
        E 0 90 61 60
        E 0 90 62 60
        E 0 90 55 60
        E 0 90 56 60
        E 0 90 49 60
        E 0 90 4a 60
        E 0 90 3d 60
        E 0 90 3e 60
        E 120 80 1a 00
        E 0 80 1f 00
        E 0 80 61 00
        E 0 80 62 00
        E 0 80 55 00
        E 0 80 56 00
        E 0 80 49 00
        E 0 80 4a 00
        E 0 80 3d 00
        E 0 80 3e 00
        E 120 90 1f 60
        E 0 90 62 60
        E 0 90 56 60
        E 120 80 1f 00
        E 0 80 62 00
        E 0 80 56 00
        E 120 90 1f 60
        E 0 90 62 60
        E 0 90 56 60
        E 0 90 4a 60
        E 0 90 3e 60
        E 120 80 1f 00
        E 0 80 62 00
        E 0 80 56 00
        E 0 80 4a 00
        E 0 80 3e 00
        E 120 90 18 60
        E 0 90 1f 60
        E 0 90 60 60
        E 0 90 62 60
        E 0 90 54 60
        E 0 90 56 60
        E 120 80 18 00
        E 0 80 1f 00
        E 0 80 60 00
        E 0 80 62 00
        E 0 80 54 00
        E 0 80 56 00
        E 120 90 1a 60
        E 0 90 1f 60
        E 0 90 61 60
        E 0 90 62 60
        E 0 90 55 60
        E 0 90 56 60
        E 0 90 49 60
        E 0 90 4a 60
        E 0 90 3d 60
        E 0 90 3e 60
        E 120 80 1a 00
        E 0 80 1f 00
        E 0 80 61 00
        E 0 80 62 00
        E 0 80 55 00
        E 0 80 56 00
        E 0 80 49 00
        E 0 80 4a 00
        E 0 80 3d 00
        E 0 80 3e 00
        E 120 90 1f 60
        E 0 90 62 60
        E 0 90 56 60
        E 120 80 1f 00
        E 0 80 62 00
        E 0 80 56 00
        E 120 90 1f 60
        E 0 90 62 60
        E 0 90 56 60
        E 0 90 4a 60
        E 0 90 3e 60
        E 120 80 1f 00
        E 0 80 62 00
        E 0 80 56 00
        E 0 80 4a 00
        E 0 80 3e 00
        E 120 90 18 60
        E 0 90 1f 60
        E 0 90 60 60
        E 0 90 62 60
        E 0 90 54 60
        E 0 90 56 60
        E 120 80 18 00
        E 0 80 1f 00
        E 0 80 60 00
        E 0 80 62 00
        E 0 80 54 00
        E 0 80 56 00
        E 120 90 1a 60
        E 0 90 1f 60
        E 0 90 61 60
        E 0 90 62 60
        E 0 90 55 60
        E 0 90 56 60
        E 0 90 49 60
        E 0 90 4a 60
        E 0 90 3d 60
        E 0 90 3e 60
        E 120 80 1a 00
        E 0 80 1f 00
        E 0 80 61 00
        E 0 80 62 00
        E 0 80 55 00
        E 0 80 56 00
        E 0 80 49 00
        E 0 80 4a 00
        E 0 80 3d 00
        E 0 80 3e 00
        E 120 90 1f 60
        E 0 90 62 60
        E 0 90 56 60
        E 120 80 1f 00
        E 0 80 62 00
        E 0 80 56 00
        E 120 80 74 00
        E 0 90 18 60
        E 0 90 1f 60
        E 0 90 60 60
        E 0 90 62 60
        E 0 90 54 60
        E 0 90 56 60
        E 0 90 48 60
        E 0 90 4a 60
        E 0 90 3e 60
        E 120 80 18 00
        E 0 80 1f 00
        E 0 80 60 00
        E 0 80 62 00
        E 0 80 54 00
        E 0 80 56 00
        E 0 80 48 00
        E 0 80 4a 00
        E 0 80 3e 00
        E 120 90 1f 60
        E 0 90 62 60
        E 0 90 56 60
        E 120 80 1f 00
        E 0 80 62 00
        E 0 80 56 00
        E 120 90 1a 60
        E 0 90 1f 60
        E 0 90 61 60
        E 0 90 62 60
        E 0 90 55 60
        E 0 90 56 60
        E 0 90 49 60
        E 0 90 4a 60
        E 0 90 3d 60
        E 0 90 3e 60
        E 120 80 1a 00
        E 0 80 1f 00
        E 0 80 61 00
        E 0 80 62 00
        E 0 80 55 00
        E 0 80 56 00
        E 0 80 49 00
        E 0 80 4a 00
        E 0 80 3d 00
        E 0 80 3e 00
        E 120 90 18 60
        E 0 90 1f 60
        E 0 90 60 60
        E 0 90 62 60
        E 0 90 54 60
        E 0 90 56 60
        E 120 80 18 00
        E 0 80 1f 00
        E 0 80 60 00
        E 0 80 62 00
        E 0 80 54 00
        E 0 80 56 00
        E 120 90 1f 60
        E 0 90 62 60
        E 0 90 56 60
        E 0 90 4a 60
        E 0 90 3e 60
        E 120 80 1f 00
        E 0 80 62 00
        E 0 80 56 00
        E 0 80 4a 00
        E 0 80 3e 00
        E 120 90 1f 60
        E 0 90 62 60
        E 0 90 56 60
        E 120 80 1f 00
        E 0 80 62 00
        E 0 80 56 00
        E 120 90 1a 60
        E 0 90 1f 60
        E 0 90 61 60
        E 0 90 62 60
        E 0 90 55 60
        E 0 90 56 60
        E 0 90 49 60
        E 0 90 4a 60
        E 0 90 3d 60
        E 0 90 3e 60
        E 120 80 1a 00
        E 0 80 1f 00
        E 0 80 61 00
        E 0 80 62 00
        E 0 80 55 00
        E 0 80 56 00
        E 0 80 49 00
        E 0 80 4a 00
        E 0 80 3d 00
        E 0 80 3e 00
        E 120 90 1f 60
        E 0 90 62 60
        E 0 90 56 60
        E 120 80 1f 00
        E 0 80 62 00
        E 0 80 56 00
        E 120 90 1f 60
        E 0 90 62 60
        E 0 90 78 60
        E 0 90 79 60
        E 0 90 7a 60
        E 0 90 7b 60
        E 0 90 7c 60
        E 0 90 56 60
        E 0 90 4a 60
        E 0 90 3e 60
        E 120 80 1f 00
        E 0 80 62 00
        E 0 80 56 00
        E 0 80 4a 00
        E 0 80 3e 00
        E 120 90 18 60
        E 0 90 1f 60
        E 0 90 60 60
        E 0 90 62 60
        E 0 90 54 60
        E 0 90 56 60
        E 120 80 18 00
        E 0 80 1f 00
        E 0 80 60 00
        E 0 80 62 00
        E 0 80 54 00
        E 0 80 56 00
        E 120 90 1a 60
        E 0 90 1f 60
        E 0 90 61 60
        E 0 90 62 60
        E 0 90 55 60
        E 0 90 56 60
        E 0 90 49 60
        E 0 90 4a 60
        E 0 90 3d 60
        E 0 90 3e 60
        E 120 80 1a 00
        E 0 80 1f 00
        E 0 80 61 00
        E 0 80 62 00
        E 0 80 55 00
        E 0 80 56 00
        E 0 80 49 00
        E 0 80 4a 00
        E 0 80 3d 00
        E 0 80 3e 00
        E 120 90 1f 60
        E 0 90 62 60
        E 0 90 56 60
        E 120 80 1f 00
        E 0 80 62 00
        E 0 80 56 00
        E 120 90 1f 60
        E 0 90 62 60
        E 0 90 56 60
        E 0 90 4a 60
        E 0 90 3e 60
        E 120 80 1f 00
        E 0 80 62 00
        E 0 80 56 00
        E 0 80 4a 00
        E 0 80 3e 00
        E 120 90 18 60
        E 0 90 1f 60
        E 0 90 60 60
        E 0 90 62 60
        E 0 90 54 60
        E 0 90 56 60
        E 120 80 18 00
        E 0 80 1f 00
        E 0 80 60 00
        E 0 80 62 00
        E 0 80 54 00
        E 0 80 56 00
        E 120 90 1a 60
        E 0 90 1f 60
        E 0 90 61 60
        E 0 90 62 60
        E 0 90 55 60
        E 0 90 56 60
        E 0 90 49 60
        E 0 90 4a 60
        E 0 90 3d 60
        E 0 90 3e 60
        E 120 80 1a 00
        E 0 80 1f 00
        E 0 80 61 00
        E 0 80 62 00
        E 0 80 55 00
        E 0 80 56 00
        E 0 80 49 00
        E 0 80 4a 00
        E 0 80 3d 00
        E 0 80 3e 00
        E 120 90 19 60
        E 0 90 1f 60
        E 0 90 63 60
        E 0 90 57 60
        E 120 80 1f 00
        E 0 80 63 00
        E 0 80 57 00
        E 120 80 78 00
        E 0 80 79 00
        E 0 80 7a 00
        E 0 80 7b 00
        E 0 80 7c 00
        E 0 80 19 00
        E 0 90 18 60
        E 0 90 1f 60
        E 0 90 60 60
        E 0 90 62 60
        E 0 90 54 60
        E 0 90 56 60
        E 0 90 48 60
        E 0 90 4a 60
        E 0 90 3e 60
        E 120 80 18 00
        E 0 80 1f 00
        E 0 80 60 00
        E 0 80 62 00
        E 0 80 54 00
        E 0 80 56 00
        E 0 80 48 00
        E 0 80 4a 00
        E 0 80 3e 00
        E 120 90 1f 60
        E 0 90 62 60
        E 0 90 56 60
        E 120 80 1f 00
        E 0 80 62 00
        E 0 80 56 00
        E 120 90 1a 60
        E 0 90 1f 60
        E 0 90 61 60
        E 0 90 62 60
        E 0 90 55 60
        E 0 90 56 60
        E 0 90 49 60
        E 0 90 4a 60
        E 0 90 3d 60
        E 0 90 3e 60
        E 120 80 1a 00
        E 0 80 1f 00
        E 0 80 61 00
        E 0 80 62 00
        E 0 80 55 00
        E 0 80 56 00
        E 0 80 49 00
        E 0 80 4a 00
        E 0 80 3d 00
        E 0 80 3e 00
        E 120 90 18 60
        E 0 90 1f 60
        E 0 90 60 60
        E 0 90 62 60
        E 0 90 54 60
        E 0 90 56 60
        E 120 80 18 00
        E 0 80 1f 00
        E 0 80 60 00
        E 0 80 62 00
        E 0 80 54 00
        E 0 80 56 00
        E 120 90 1f 60
        E 0 90 62 60
        E 0 90 56 60
        E 0 90 4a 60
        E 0 90 3e 60
        E 120 80 1f 00
        E 0 80 62 00
        E 0 80 56 00
        E 0 80 4a 00
        E 0 80 3e 00
        E 120 90 1f 60
        E 0 90 62 60
        E 0 90 56 60
        E 120 80 1f 00
        E 0 80 62 00
        E 0 80 56 00
        E 120 90 1a 60
        E 0 90 1f 60
        E 0 90 61 60
        E 0 90 62 60
        E 0 90 55 60
        E 0 90 56 60
        E 0 90 49 60
        E 0 90 4a 60
        E 0 90 3d 60
        E 0 90 3e 60
        E 120 80 1a 00
        E 0 80 1f 00
        E 0 80 61 00
        E 0 80 62 00
        E 0 80 55 00
        E 0 80 56 00
        E 0 80 49 00
        E 0 80 4a 00
        E 0 80 3d 00
        E 0 80 3e 00
        E 120 90 1f 60
        E 0 90 62 60
        E 0 90 56 60
        E 120 80 1f 00
        E 0 80 62 00
        E 0 80 56 00
        E 120 90 1f 60
        E 0 90 62 60
        E 0 90 56 60
        E 0 90 4a 60
        E 0 90 3e 60
        E 120 80 1f 00
        E 0 80 62 00
        E 0 80 56 00
        E 0 80 4a 00
        E 0 80 3e 00
        E 120 90 18 60
        E 0 90 1f 60
        E 0 90 60 60
        E 0 90 62 60
        E 0 90 54 60
        E 0 90 56 60
        E 120 80 18 00
        E 0 80 1f 00
        E 0 80 60 00
        E 0 80 62 00
        E 0 80 54 00
        E 0 80 56 00
        E 120 90 1a 60
        E 0 90 1f 60
        E 0 90 61 60
        E 0 90 62 60
        E 0 90 55 60
        E 0 90 56 60
        E 0 90 49 60
        E 0 90 4a 60
        E 0 90 3d 60
        E 0 90 3e 60
        E 120 80 1a 00
        E 0 80 1f 00
        E 0 80 61 00
        E 0 80 62 00
        E 0 80 55 00
        E 0 80 56 00
        E 0 80 49 00
        E 0 80 4a 00
        E 0 80 3d 00
        E 0 80 3e 00
        E 120 90 1f 60
        E 0 90 62 60
        E 0 90 56 60
        E 120 80 1f 00
        E 0 80 62 00
        E 0 80 56 00
        E 120 90 1f 60
        E 0 90 62 60
        E 0 90 56 60
        E 0 90 4a 60
        E 0 90 3e 60
        E 120 80 1f 00
        E 0 80 62 00
        E 0 80 56 00
        E 0 80 4a 00
        E 0 80 3e 00
        E 120 90 18 60
        E 0 90 1f 60
        E 0 90 60 60
        E 0 90 62 60
        E 0 90 54 60
        E 0 90 56 60
        E 120 80 18 00
        E 0 80 1f 00
        E 0 80 60 00
        E 0 80 62 00
        E 0 80 54 00
        E 0 80 56 00
        E 120 90 1a 60
        E 0 90 1f 60
        E 0 90 61 60
        E 0 90 62 60
        E 0 90 55 60
        E 0 90 56 60
        E 0 90 49 60
        E 0 90 4a 60
        E 0 90 3d 60
        E 0 90 3e 60
        E 120 80 1a 00
        E 0 80 1f 00
        E 0 80 61 00
        E 0 80 62 00
        E 0 80 55 00
        E 0 80 56 00
        E 0 80 49 00
        E 0 80 4a 00
        E 0 80 3d 00
        E 0 80 3e 00
        E 120 90 1f 60
        E 0 90 62 60
        E 0 90 56 60
        E 120 80 1f 00
        E 0 80 62 00
        E 0 80 56 00
        E 120 90 18 60
        E 0 90 1f 60
        E 0 90 60 60
        E 0 90 62 60
        E 0 90 54 60
        E 0 90 56 60
        E 0 90 48 60
        E 0 90 4a 60
        E 0 90 3e 60
        E 120 80 18 00
        E 0 80 1f 00
        E 0 80 60 00
        E 0 80 62 00
        E 0 80 54 00
        E 0 80 56 00
        E 0 80 48 00
        E 0 80 4a 00
        E 0 80 3e 00
        E 120 90 1f 60
        E 0 90 62 60
        E 0 90 56 60
        E 120 80 1f 00
        E 0 80 62 00
        E 0 80 56 00
        E 120 90 1a 60
        E 0 90 1f 60
        E 0 90 61 60
        E 0 90 62 60
        E 0 90 55 60
        E 0 90 56 60
        E 0 90 49 60
        E 0 90 4a 60
        E 0 90 3d 60
        E 0 90 3e 60
        E 120 80 1a 00
        E 0 80 1f 00
        E 0 80 61 00
        E 0 80 62 00
        E 0 80 55 00
        E 0 80 56 00
        E 0 80 49 00
        E 0 80 4a 00
        E 0 80 3d 00
        E 0 80 3e 00
        E 120 90 18 60
        E 0 90 1f 60
        E 0 90 60 60
        E 0 90 62 60
        E 0 90 54 60
        E 0 90 56 60
        E 120 80 18 00
        E 0 80 1f 00
        E 0 80 60 00
        E 0 80 62 00
        E 0 80 54 00
        E 0 80 56 00
        E 120 90 1f 60
        E 0 90 62 60
        E 0 90 56 60
        E 0 90 4a 60
        E 0 90 3e 60
        E 120 80 1f 00
        E 0 80 62 00
        E 0 80 56 00
        E 0 80 4a 00
        E 0 80 3e 00
        E 120 90 1f 60
        E 0 90 62 60
        E 0 90 56 60
        E 120 80 1f 00
        E 0 80 62 00
        E 0 80 56 00
        E 120 90 1a 60
        E 0 90 1f 60
        E 0 90 61 60
        E 0 90 62 60
        E 0 90 55 60
        E 0 90 56 60
        E 0 90 49 60
        E 0 90 4a 60
        E 0 90 3d 60
        E 0 90 3e 60
        E 120 80 1a 00
        E 0 80 1f 00
        E 0 80 61 00
        E 0 80 62 00
        E 0 80 55 00
        E 0 80 56 00
        E 0 80 49 00
        E 0 80 4a 00
        E 0 80 3d 00
        E 0 80 3e 00
        E 120 90 1f 60
        E 0 90 62 60
        E 0 90 56 60
        E 120 80 1f 00
        E 0 80 62 00
        E 0 80 56 00
        E 120 90 1f 60
        E 0 90 62 60
        E 0 90 78 60
        E 0 90 79 60
        E 0 90 7a 60
        E 0 90 7b 60
        E 0 90 7c 60
        E 0 90 56 60
        E 0 90 4a 60
        E 0 90 3e 60
        E 120 80 1f 00
        E 0 80 62 00
        E 0 80 56 00
        E 0 80 4a 00
        E 0 80 3e 00
        E 120 90 18 60
        E 0 90 1f 60
        E 0 90 60 60
        E 0 90 62 60
        E 0 90 54 60
        E 0 90 56 60
        E 120 80 18 00
        E 0 80 1f 00
        E 0 80 60 00
        E 0 80 62 00
        E 0 80 54 00
        E 0 80 56 00
        E 120 90 1a 60
        E 0 90 1f 60
        E 0 90 61 60
        E 0 90 62 60
        E 0 90 55 60
        E 0 90 56 60
        E 0 90 49 60
        E 0 90 4a 60
        E 0 90 3d 60
        E 0 90 3e 60
        E 120 80 1a 00
        E 0 80 1f 00
        E 0 80 61 00
        E 0 80 62 00
        E 0 80 55 00
        E 0 80 56 00
        E 0 80 49 00
        E 0 80 4a 00
        E 0 80 3d 00
        E 0 80 3e 00
        E 120 90 1f 60
        E 0 90 62 60
        E 0 90 56 60
        E 120 80 1f 00
        E 0 80 62 00
        E 0 80 56 00
        E 120 90 1f 60
        E 0 90 62 60
        E 0 90 56 60
        E 0 90 4a 60
        E 0 90 3e 60
        E 120 80 1f 00
        E 0 80 62 00
        E 0 80 56 00
        E 0 80 4a 00
        E 0 80 3e 00
        E 120 90 18 60
        E 0 90 1f 60
        E 0 90 60 60
        E 0 90 62 60
        E 0 90 54 60
        E 0 90 56 60
        E 120 80 18 00
        E 0 80 1f 00
        E 0 80 60 00
        E 0 80 62 00
        E 0 80 54 00
        E 0 80 56 00
        E 120 90 1a 60
        E 0 90 1f 60
        E 0 90 61 60
        E 0 90 62 60
        E 0 90 55 60
        E 0 90 56 60
        E 0 90 49 60
        E 0 90 4a 60
        E 0 90 3d 60
        E 0 90 3e 60
        E 120 80 1a 00
        E 0 80 1f 00
        E 0 80 61 00
        E 0 80 62 00
        E 0 80 55 00
        E 0 80 56 00
        E 0 80 49 00
        E 0 80 4a 00
        E 0 80 3d 00
        E 0 80 3e 00
        E 120 90 19 60
        E 0 90 1f 60
        E 0 90 63 60
        E 0 90 57 60
        E 120 80 1f 00
        E 0 80 63 00
        E 0 80 57 00
        E 120 80 78 00
        E 0 80 79 00
        E 0 80 7a 00
        E 0 80 7b 00
        E 0 80 7c 00
        E 0 80 19 00
        E 0 90 18 60
        E 0 90 24 60
        E 0 90 60 60
        E 0 90 64 60
        E 0 90 54 60
        E 0 90 58 60
        E 0 90 48 60
        E 0 90 4c 60
        E 0 90 40 60
        E 120 80 18 00
        E 0 80 24 00
        E 0 80 60 00
        E 0 80 64 00
        E 0 80 54 00
        E 0 80 58 00
        E 0 80 48 00
        E 0 80 4c 00
        E 0 80 40 00
        E 120 90 1f 60
        E 0 90 62 60
        E 0 90 56 60
        E 120 80 1f 00
        E 0 80 62 00
        E 0 80 56 00
        E 120 90 1a 60
        E 0 90 1f 60
        E 0 90 61 60
        E 0 90 62 60
        E 0 90 55 60
        E 0 90 56 60
        E 0 90 49 60
        E 0 90 4a 60
        E 0 90 3d 60
        E 0 90 3e 60
        E 120 80 1a 00
        E 0 80 1f 00
        E 0 80 61 00
        E 0 80 62 00
        E 0 80 55 00
        E 0 80 56 00
        E 0 80 49 00
        E 0 80 4a 00
        E 0 80 3d 00
        E 0 80 3e 00
        E 120 90 18 60
        E 0 90 1f 60
        E 0 90 60 60
        E 0 90 62 60
        E 0 90 54 60
        E 0 90 56 60
        E 120 80 18 00
        E 0 80 1f 00
        E 0 80 60 00
        E 0 80 62 00
        E 0 80 54 00
        E 0 80 56 00
        E 120 90 1f 60
        E 0 90 62 60
        E 0 90 56 60
        E 0 90 4a 60
        E 0 90 3e 60
        E 120 80 1f 00
        E 0 80 62 00
        E 0 80 56 00
        E 0 80 4a 00
        E 0 80 3e 00
        E 120 90 1f 60
        E 0 90 62 60
        E 0 90 56 60
        E 120 80 1f 00
        E 0 80 62 00
        E 0 80 56 00
        E 120 90 1a 60
        E 0 90 1f 60
        E 0 90 61 60
        E 0 90 62 60
        E 0 90 55 60
        E 0 90 56 60
        E 0 90 49 60
        E 0 90 4a 60
        E 0 90 3d 60
        E 0 90 3e 60
        E 120 80 1a 00
        E 0 80 1f 00
        E 0 80 61 00
        E 0 80 62 00
        E 0 80 55 00
        E 0 80 56 00
        E 0 80 49 00
        E 0 80 4a 00
        E 0 80 3d 00
        E 0 80 3e 00
        E 120 90 1f 60
        E 0 90 62 60
        E 0 90 56 60
        E 120 80 1f 00
        E 0 80 62 00
        E 0 80 56 00
        E 120 90 1f 60
        E 0 90 62 60
        E 0 90 56 60
        E 0 90 4a 60
        E 0 90 3e 60
        E 120 80 1f 00
        E 0 80 62 00
        E 0 80 56 00
        E 0 80 4a 00
        E 0 80 3e 00
        E 120 90 18 60
        E 0 90 1f 60
        E 0 90 60 60
        E 0 90 62 60
        E 0 90 54 60
        E 0 90 56 60
        E 120 80 18 00
        E 0 80 1f 00
        E 0 80 60 00
        E 0 80 62 00
        E 0 80 54 00
        E 0 80 56 00
        E 120 90 1a 60
        E 0 90 1f 60
        E 0 90 61 60
        E 0 90 62 60
        E 0 90 55 60
        E 0 90 56 60
        E 0 90 49 60
        E 0 90 4a 60
        E 0 90 3d 60
        E 0 90 3e 60
        E 120 80 1a 00
        E 0 80 1f 00
        E 0 80 61 00
        E 0 80 62 00
        E 0 80 55 00
        E 0 80 56 00
        E 0 80 49 00
        E 0 80 4a 00
        E 0 80 3d 00
        E 0 80 3e 00
        E 120 90 1f 60
        E 0 90 62 60
        E 0 90 56 60
        E 120 80 1f 00
        E 0 80 62 00
        E 0 80 56 00
        E 120 90 1f 60
        E 0 90 62 60
        E 0 90 56 60
        E 0 90 4a 60
        E 0 90 3e 60
        E 120 80 1f 00
        E 0 80 62 00
        E 0 80 56 00
        E 0 80 4a 00
        E 0 80 3e 00
        E 120 90 18 60
        E 0 90 1f 60
        E 0 90 60 60
        E 0 90 62 60
        E 0 90 54 60
        E 0 90 56 60
        E 120 80 18 00
        E 0 80 1f 00
        E 0 80 60 00
        E 0 80 62 00
        E 0 80 54 00
        E 0 80 56 00
        E 120 90 1a 60
        E 0 90 1f 60
        E 0 90 61 60
        E 0 90 62 60
        E 0 90 55 60
        E 0 90 56 60
        E 0 90 49 60
        E 0 90 4a 60
        E 0 90 3d 60
        E 0 90 3e 60
        E 120 80 1a 00
        E 0 80 1f 00
        E 0 80 61 00
        E 0 80 62 00
        E 0 80 55 00
        E 0 80 56 00
        E 0 80 49 00
        E 0 80 4a 00
        E 0 80 3d 00
        E 0 80 3e 00
        E 120 90 1f 60
        E 0 90 62 60
        E 0 90 56 60
        E 120 80 1f 00
        E 0 80 62 00
        E 0 80 56 00
        E 120 90 18 60
        E 0 90 1f 60
        E 0 90 60 60
        E 0 90 62 60
        E 0 90 74 60
        E 0 90 54 60
        E 0 90 56 60
        E 0 90 48 60
        E 0 90 4a 60
        E 0 90 3e 60
        E 120 80 18 00
        E 0 80 1f 00
        E 0 80 60 00
        E 0 80 62 00
        E 0 80 54 00
        E 0 80 56 00
        E 0 80 48 00
        E 0 80 4a 00
        E 0 80 3e 00
        E 120 90 1f 60
        E 0 90 62 60
        E 0 90 56 60
        E 120 80 1f 00
        E 0 80 62 00
        E 0 80 56 00
        E 120 90 1a 60
        E 0 90 1f 60
        E 0 90 61 60
        E 0 90 62 60
        E 0 90 55 60
        E 0 90 56 60
        E 0 90 49 60
        E 0 90 4a 60
        E 0 90 3d 60
        E 0 90 3e 60
        E 120 80 1a 00
        E 0 80 1f 00
        E 0 80 61 00
        E 0 80 62 00
        E 0 80 55 00
        E 0 80 56 00
        E 0 80 49 00
        E 0 80 4a 00
        E 0 80 3d 00
        E 0 80 3e 00
        E 120 90 18 60
        E 0 90 1f 60
        E 0 90 60 60
        E 0 90 62 60
        E 0 90 54 60
        E 0 90 56 60
        E 120 80 18 00
        E 0 80 1f 00
        E 0 80 60 00
        E 0 80 62 00
        E 0 80 54 00
        E 0 80 56 00
        E 120 90 1f 60
        E 0 90 62 60
        E 0 90 56 60
        E 0 90 4a 60
        E 0 90 3e 60
        E 120 80 1f 00
        E 0 80 62 00
        E 0 80 56 00
        E 0 80 4a 00
        E 0 80 3e 00
        E 120 90 1f 60
        E 0 90 62 60
        E 0 90 56 60
        E 120 80 1f 00
        E 0 80 62 00
        E 0 80 56 00
        E 120 90 1a 60
        E 0 90 1f 60
        E 0 90 61 60
        E 0 90 62 60
        E 0 90 55 60
        E 0 90 56 60
        E 0 90 49 60
        E 0 90 4a 60
        E 0 90 3d 60
        E 0 90 3e 60
        E 120 80 1a 00
        E 0 80 1f 00
        E 0 80 61 00
        E 0 80 62 00
        E 0 80 55 00
        E 0 80 56 00
        E 0 80 49 00
        E 0 80 4a 00
        E 0 80 3d 00
        E 0 80 3e 00
        E 120 90 1f 60
        E 0 90 62 60
        E 0 90 56 60
        E 120 80 1f 00
        E 0 80 62 00
        E 0 80 56 00
        E 120 80 74 00
        E 0 90 1f 60
        E 0 90 62 60
        E 0 90 78 60
        E 0 90 79 60
        E 0 90 7a 60
        E 0 90 7b 60
        E 0 90 7c 60
        E 0 90 56 60
        E 0 90 4a 60
        E 0 90 3e 60
        E 120 80 1f 00
        E 0 80 62 00
        E 0 80 56 00
        E 0 80 4a 00
        E 0 80 3e 00
        E 120 90 18 60
        E 0 90 1f 60
        E 0 90 60 60
        E 0 90 62 60
        E 0 90 54 60
        E 0 90 56 60
        E 120 80 18 00
        E 0 80 1f 00
        E 0 80 60 00
        E 0 80 62 00
        E 0 80 54 00
        E 0 80 56 00
        E 120 90 1a 60
        E 0 90 1f 60
        E 0 90 61 60
        E 0 90 62 60
        E 0 90 55 60
        E 0 90 56 60
        E 0 90 49 60
        E 0 90 4a 60
        E 0 90 3d 60
        E 0 90 3e 60
        E 120 80 1a 00
        E 0 80 1f 00
        E 0 80 61 00
        E 0 80 62 00
        E 0 80 55 00
        E 0 80 56 00
        E 0 80 49 00
        E 0 80 4a 00
        E 0 80 3d 00
        E 0 80 3e 00
        E 120 90 1f 60
        E 0 90 62 60
        E 0 90 56 60
        E 120 80 1f 00
        E 0 80 62 00
        E 0 80 56 00
        E 120 90 1f 60
        E 0 90 62 60
        E 0 90 56 60
        E 0 90 4a 60
        E 0 90 3e 60
        E 120 80 1f 00
        E 0 80 62 00
        E 0 80 56 00
        E 0 80 4a 00
        E 0 80 3e 00
        E 120 90 18 60
        E 0 90 1f 60
        E 0 90 60 60
        E 0 90 62 60
        E 0 90 54 60
        E 0 90 56 60
        E 120 80 18 00
        E 0 80 1f 00
        E 0 80 60 00
        E 0 80 62 00
        E 0 80 54 00
        E 0 80 56 00
        E 120 90 1a 60
        E 0 90 1f 60
        E 0 90 61 60
        E 0 90 62 60
        E 0 90 55 60
        E 0 90 56 60
        E 0 90 49 60
        E 0 90 4a 60
        E 0 90 3d 60
        E 0 90 3e 60
        E 120 80 1a 00
        E 0 80 1f 00
        E 0 80 61 00
        E 0 80 62 00
        E 0 80 55 00
        E 0 80 56 00
        E 0 80 49 00
        E 0 80 4a 00
        E 0 80 3d 00
        E 0 80 3e 00
        E 120 90 19 60
        E 0 90 1f 60
        E 0 90 63 60
        E 0 90 57 60
        E 120 80 1f 00
        E 0 80 63 00
        E 0 80 57 00
        E 120 80 78 00
        E 0 80 79 00
        E 0 80 7a 00
        E 0 80 7b 00
        E 0 80 7c 00
        E 0 80 19 00
        E 0 90 18 60
        E 0 90 1f 60
        E 0 90 60 60
        E 0 90 62 60
        E 0 90 54 60
        E 0 90 56 60
        E 0 90 48 60
        E 0 90 4a 60
        E 0 90 3e 60
        E 120 80 18 00
        E 0 80 1f 00
        E 0 80 60 00
        E 0 80 62 00
        E 0 80 54 00
        E 0 80 56 00
        E 0 80 48 00
        E 0 80 4a 00
        E 0 80 3e 00
        E 120 90 1f 60
        E 0 90 62 60
        E 0 90 56 60
        E 120 80 1f 00
        E 0 80 62 00
        E 0 80 56 00
        E 120 90 1a 60
        E 0 90 1f 60
        E 0 90 61 60
        E 0 90 62 60
        E 0 90 55 60
        E 0 90 56 60
        E 0 90 49 60
        E 0 90 4a 60
        E 0 90 3d 60
        E 0 90 3e 60
        E 120 80 1a 00
        E 0 80 1f 00
        E 0 80 61 00
        E 0 80 62 00
        E 0 80 55 00
        E 0 80 56 00
        E 0 80 49 00
        E 0 80 4a 00
        E 0 80 3d 00
        E 0 80 3e 00
        E 120 90 18 60
        E 0 90 1f 60
        E 0 90 60 60
        E 0 90 62 60
        E 0 90 54 60
        E 0 90 56 60
        E 120 80 18 00
        E 0 80 1f 00
        E 0 80 60 00
        E 0 80 62 00
        E 0 80 54 00
        E 0 80 56 00
        E 120 90 1f 60
        E 0 90 62 60
        E 0 90 56 60
        E 0 90 4a 60
        E 0 90 3e 60
        E 120 80 1f 00
        E 0 80 62 00
        E 0 80 56 00
        E 0 80 4a 00
        E 0 80 3e 00
        E 120 90 1f 60
        E 0 90 62 60
        E 0 90 56 60
        E 120 80 1f 00
        E 0 80 62 00
        E 0 80 56 00
        E 120 90 1a 60
        E 0 90 1f 60
        E 0 90 61 60
        E 0 90 62 60
        E 0 90 55 60
        E 0 90 56 60
        E 0 90 49 60
        E 0 90 4a 60
        E 0 90 3d 60
        E 0 90 3e 60
        E 120 80 1a 00
        E 0 80 1f 00
        E 0 80 61 00
        E 0 80 62 00
        E 0 80 55 00
        E 0 80 56 00
        E 0 80 49 00
        E 0 80 4a 00
        E 0 80 3d 00
        E 0 80 3e 00
        E 120 90 1f 60
        E 0 90 62 60
        E 0 90 56 60
        E 120 80 1f 00
        E 0 80 62 00
        E 0 80 56 00
        E 120 90 1f 60
        E 0 90 62 60
        E 0 90 56 60
        E 0 90 4a 60
        E 0 90 3e 60
        E 120 80 1f 00
        E 0 80 62 00
        E 0 80 56 00
        E 0 80 4a 00
        E 0 80 3e 00
        E 120 90 18 60
        E 0 90 1f 60
        E 0 90 60 60
        E 0 90 62 60
        E 0 90 54 60
        E 0 90 56 60
        E 120 80 18 00
        E 0 80 1f 00
        E 0 80 60 00
        E 0 80 62 00
        E 0 80 54 00
        E 0 80 56 00
        E 120 90 1a 60
        E 0 90 1f 60
        E 0 90 61 60
        E 0 90 62 60
        E 0 90 55 60
        E 0 90 56 60
        E 0 90 49 60
        E 0 90 4a 60
        E 0 90 3d 60
        E 0 90 3e 60
        E 120 80 1a 00
        E 0 80 1f 00
        E 0 80 61 00
        E 0 80 62 00
        E 0 80 55 00
        E 0 80 56 00
        E 0 80 49 00
        E 0 80 4a 00
        E 0 80 3d 00
        E 0 80 3e 00
        E 120 90 1f 60
        E 0 90 62 60
        E 0 90 56 60
        E 120 80 1f 00
        E 0 80 62 00
        E 0 80 56 00
        E 120 90 1f 60
        E 0 90 62 60
        E 0 90 56 60
        E 0 90 4a 60
        E 0 90 3e 60
        E 120 80 1f 00
        E 0 80 62 00
        E 0 80 56 00
        E 0 80 4a 00
        E 0 80 3e 00
        E 120 90 18 60
        E 0 90 1f 60
        E 0 90 60 60
        E 0 90 62 60
        E 0 90 54 60
        E 0 90 56 60
        E 120 80 18 00
        E 0 80 1f 00
        E 0 80 60 00
        E 0 80 62 00
        E 0 80 54 00
        E 0 80 56 00
        E 120 90 1a 60
        E 0 90 1f 60
        E 0 90 61 60
        E 0 90 62 60
        E 0 90 55 60
        E 0 90 56 60
        E 0 90 49 60
        E 0 90 4a 60
        E 0 90 3d 60
        E 0 90 3e 60
        E 120 80 1a 00
        E 0 80 1f 00
        E 0 80 61 00
        E 0 80 62 00
        E 0 80 55 00
        E 0 80 56 00
        E 0 80 49 00
        E 0 80 4a 00
        E 0 80 3d 00
        E 0 80 3e 00
        E 120 90 1f 60
        E 0 90 62 60
        E 0 90 56 60
        E 120 80 1f 00
        E 0 80 62 00
        E 0 80 56 00
        E 120 90 18 60
        E 0 90 1f 60
        E 0 90 60 60
        E 0 90 62 60
        E 0 90 54 60
        E 0 90 56 60
        E 0 90 48 60
        E 0 90 4a 60
        E 0 90 3e 60
        E 120 80 18 00
        E 0 80 1f 00
        E 0 80 60 00
        E 0 80 62 00
        E 0 80 54 00
        E 0 80 56 00
        E 0 80 48 00
        E 0 80 4a 00
        E 0 80 3e 00
        E 120 90 1f 60
        E 0 90 62 60
        E 0 90 56 60
        E 120 80 1f 00
        E 0 80 62 00
        E 0 80 56 00
        E 120 90 1a 60
        E 0 90 1f 60
        E 0 90 61 60
        E 0 90 62 60
        E 0 90 55 60
        E 0 90 56 60
        E 0 90 49 60
        E 0 90 4a 60
        E 0 90 3d 60
        E 0 90 3e 60
        E 120 80 1a 00
        E 0 80 1f 00
        E 0 80 61 00
        E 0 80 62 00
        E 0 80 55 00
        E 0 80 56 00
        E 0 80 49 00
        E 0 80 4a 00
        E 0 80 3d 00
        E 0 80 3e 00
        E 120 90 18 60
        E 0 90 1f 60
        E 0 90 60 60
        E 0 90 62 60
        E 0 90 54 60
        E 0 90 56 60
        E 120 80 18 00
        E 0 80 1f 00
        E 0 80 60 00
        E 0 80 62 00
        E 0 80 54 00
        E 0 80 56 00
        E 120 90 1f 60
        E 0 90 62 60
        E 0 90 56 60
        E 0 90 4a 60
        E 0 90 3e 60
        E 120 80 1f 00
        E 0 80 62 00
        E 0 80 56 00
        E 0 80 4a 00
        E 0 80 3e 00
        E 120 90 1f 60
        E 0 90 62 60
        E 0 90 56 60
        E 120 80 1f 00
        E 0 80 62 00
        E 0 80 56 00
        E 120 90 1a 60
        E 0 90 1f 60
        E 0 90 61 60
        E 0 90 62 60
        E 0 90 55 60
        E 0 90 56 60
        E 0 90 49 60
        E 0 90 4a 60
        E 0 90 3d 60
        E 0 90 3e 60
        E 120 80 1a 00
        E 0 80 1f 00
        E 0 80 61 00
        E 0 80 62 00
        E 0 80 55 00
        E 0 80 56 00
        E 0 80 49 00
        E 0 80 4a 00
        E 0 80 3d 00
        E 0 80 3e 00
        E 120 90 1f 60
        E 0 90 62 60
        E 0 90 56 60
        E 120 80 1f 00
        E 0 80 62 00
        E 0 80 56 00
        E 120 90 1f 60
        E 0 90 62 60
        E 0 90 78 60
        E 0 90 79 60
        E 0 90 7a 60
        E 0 90 7b 60
        E 0 90 7c 60
        E 0 90 56 60
        E 0 90 4a 60
        E 0 90 3e 60
        E 120 80 1f 00
        E 0 80 62 00
        E 0 80 56 00
        E 0 80 4a 00
        E 0 80 3e 00
        E 120 90 18 60
        E 0 90 1f 60
        E 0 90 60 60
        E 0 90 62 60
        E 0 90 54 60
        E 0 90 56 60
        E 120 80 18 00
        E 0 80 1f 00
        E 0 80 60 00
        E 0 80 62 00
        E 0 80 54 00
        E 0 80 56 00
        E 120 90 1a 60
        E 0 90 1f 60
        E 0 90 61 60
        E 0 90 62 60
        E 0 90 55 60
        E 0 90 56 60
        E 0 90 49 60
        E 0 90 4a 60
        E 0 90 3d 60
        E 0 90 3e 60
        E 120 80 1a 00
        E 0 80 1f 00
        E 0 80 61 00
        E 0 80 62 00
        E 0 80 55 00
        E 0 80 56 00
        E 0 80 49 00
        E 0 80 4a 00
        E 0 80 3d 00
        E 0 80 3e 00
        E 120 90 1f 60
        E 0 90 62 60
        E 0 90 56 60
        E 120 80 1f 00
        E 0 80 62 00
        E 0 80 56 00
        E 120 90 1f 60
        E 0 90 62 60
        E 0 90 56 60
        E 0 90 4a 60
        E 0 90 3e 60
        E 120 80 1f 00
        E 0 80 62 00
        E 0 80 56 00
        E 0 80 4a 00
        E 0 80 3e 00
        E 120 90 18 60
        E 0 90 1f 60
        E 0 90 60 60
        E 0 90 62 60
        E 0 90 54 60
        E 0 90 56 60
        E 120 80 18 00
        E 0 80 1f 00
        E 0 80 60 00
        E 0 80 62 00
        E 0 80 54 00
        E 0 80 56 00
        E 120 90 1a 60
        E 0 90 1f 60
        E 0 90 61 60
        E 0 90 62 60
        E 0 90 55 60
        E 0 90 56 60
        E 0 90 49 60
        E 0 90 4a 60
        E 0 90 3d 60
        E 0 90 3e 60
        E 120 80 1a 00
        E 0 80 1f 00
        E 0 80 61 00
        E 0 80 62 00
        E 0 80 55 00
        E 0 80 56 00
        E 0 80 49 00
        E 0 80 4a 00
        E 0 80 3d 00
        E 0 80 3e 00
        E 120 90 19 60
        E 0 90 1f 60
        E 0 90 63 60
        E 0 90 57 60
        E 120 80 1f 00
        E 0 80 63 00
        E 0 80 57 00
        E 120 80 78 00
        E 0 80 79 00
        E 0 80 7a 00
        E 0 80 7b 00
        E 0 80 7c 00
        E 0 80 19 00
        E 0 90 18 60
        E 0 90 24 60
        E 0 90 60 60
        E 0 90 64 60
        E 0 90 54 60
        E 0 90 58 60
        E 0 90 48 60
        E 0 90 4c 60
        E 0 90 40 60
        E 120 80 18 00
        E 0 80 24 00
        E 0 80 60 00
        E 0 80 64 00
        E 0 80 54 00
        E 0 80 58 00
        E 0 80 48 00
        E 0 80 4c 00
        E 0 80 40 00
        E 120 90 1f 60
        E 0 90 62 60
        E 0 90 56 60
        E 120 80 1f 00
        E 0 80 62 00
        E 0 80 56 00
        E 120 90 1a 60
        E 0 90 1f 60
        E 0 90 61 60
        E 0 90 62 60
        E 0 90 55 60
        E 0 90 56 60
        E 0 90 49 60
        E 0 90 4a 60
        E 0 90 3d 60
        E 0 90 3e 60
        E 120 80 1a 00
        E 0 80 1f 00
        E 0 80 61 00
        E 0 80 62 00
        E 0 80 55 00
        E 0 80 56 00
        E 0 80 49 00
        E 0 80 4a 00
        E 0 80 3d 00
        E 0 80 3e 00
        E 120 90 18 60
        E 0 90 1f 60
        E 0 90 60 60
        E 0 90 62 60
        E 0 90 54 60
        E 0 90 56 60
        E 120 80 18 00
        E 0 80 1f 00
        E 0 80 60 00
        E 0 80 62 00
        E 0 80 54 00
        E 0 80 56 00
        E 120 90 1f 60
        E 0 90 62 60
        E 0 90 56 60
        E 0 90 4a 60
        E 0 90 3e 60
        E 120 80 1f 00
        E 0 80 62 00
        E 0 80 56 00
        E 0 80 4a 00
        E 0 80 3e 00
        E 120 90 1f 60
        E 0 90 62 60
        E 0 90 56 60
        E 120 80 1f 00
        E 0 80 62 00
        E 0 80 56 00
        E 120 90 1a 60
        E 0 90 1f 60
        E 0 90 61 60
        E 0 90 62 60
        E 0 90 55 60
        E 0 90 56 60
        E 0 90 49 60
        E 0 90 4a 60
        E 0 90 3d 60
        E 0 90 3e 60
        E 120 80 1a 00
        E 0 80 1f 00
        E 0 80 61 00
        E 0 80 62 00
        E 0 80 55 00
        E 0 80 56 00
        E 0 80 49 00
        E 0 80 4a 00
        E 0 80 3d 00
        E 0 80 3e 00
        E 120 90 1f 60
        E 0 90 62 60
        E 0 90 56 60
        E 120 80 1f 00
        E 0 80 62 00
        E 0 80 56 00
        E 120 90 1f 60
        E 0 90 62 60
        E 0 90 56 60
        E 0 90 4a 60
        E 0 90 3e 60
        E 120 80 1f 00
        E 0 80 62 00
        E 0 80 56 00
        E 0 80 4a 00
        E 0 80 3e 00
        E 120 90 18 60
        E 0 90 1f 60
        E 0 90 60 60
        E 0 90 62 60
        E 0 90 54 60
        E 0 90 56 60
        E 120 80 18 00
        E 0 80 1f 00
        E 0 80 60 00
        E 0 80 62 00
        E 0 80 54 00
        E 0 80 56 00
        E 120 90 1a 60
        E 0 90 1f 60
        E 0 90 61 60
        E 0 90 62 60
        E 0 90 55 60
        E 0 90 56 60
        E 0 90 49 60
        E 0 90 4a 60
        E 0 90 3d 60
        E 0 90 3e 60
        E 120 80 1a 00
        E 0 80 1f 00
        E 0 80 61 00
        E 0 80 62 00
        E 0 80 55 00
        E 0 80 56 00
        E 0 80 49 00
        E 0 80 4a 00
        E 0 80 3d 00
        E 0 80 3e 00
        E 120 90 1f 60
        E 0 90 62 60
        E 0 90 56 60
        E 120 80 1f 00
        E 0 80 62 00
        E 0 80 56 00
        E 120 90 1f 60
        E 0 90 62 60
        E 0 90 56 60
        E 0 90 4a 60
        E 0 90 3e 60
        E 120 80 1f 00
        E 0 80 62 00
        E 0 80 56 00
        E 0 80 4a 00
        E 0 80 3e 00
        E 120 90 18 60
        E 0 90 1f 60
        E 0 90 60 60
        E 0 90 62 60
        E 0 90 54 60
        E 0 90 56 60
        E 120 80 18 00
        E 0 80 1f 00
        E 0 80 60 00
        E 0 80 62 00
        E 0 80 54 00
        E 0 80 56 00
        E 120 90 1a 60
        E 0 90 1f 60
        E 0 90 61 60
        E 0 90 62 60
        E 0 90 55 60
        E 0 90 56 60
        E 0 90 49 60
        E 0 90 4a 60
        E 0 90 3d 60
        E 0 90 3e 60
        E 120 80 1a 00
        E 0 80 1f 00
        E 0 80 61 00
        E 0 80 62 00
        E 0 80 55 00
        E 0 80 56 00
        E 0 80 49 00
        E 0 80 4a 00
        E 0 80 3d 00
        E 0 80 3e 00
        E 120 90 1f 60
        E 0 90 62 60
        E 0 90 56 60
        E 120 80 1f 00
        E 0 80 62 00
        E 0 80 56 00
        E 120 90 18 60
        E 0 90 1f 60
        E 0 90 60 60
        E 0 90 62 60
        E 0 90 54 60
        E 0 90 56 60
        E 0 90 48 60
        E 0 90 4a 60
        E 0 90 3e 60
        E 120 80 18 00
        E 0 80 1f 00
        E 0 80 60 00
        E 0 80 62 00
        E 0 80 54 00
        E 0 80 56 00
        E 0 80 48 00
        E 0 80 4a 00
        E 0 80 3e 00
        E 120 90 1f 60
        E 0 90 62 60
        E 0 90 56 60
        E 120 80 1f 00
        E 0 80 62 00
        E 0 80 56 00
        E 120 90 1a 60
        E 0 90 1f 60
        E 0 90 61 60
        E 0 90 62 60
        E 0 90 55 60
        E 0 90 56 60
        E 0 90 49 60
        E 0 90 4a 60
        E 0 90 3d 60
        E 0 90 3e 60
        E 120 80 1a 00
        E 0 80 1f 00
        E 0 80 61 00
        E 0 80 62 00
        E 0 80 55 00
        E 0 80 56 00
        E 0 80 49 00
        E 0 80 4a 00
        E 0 80 3d 00
        E 0 80 3e 00
        E 120 90 18 60
        E 0 90 1f 60
        E 0 90 60 60
        E 0 90 62 60
        E 0 90 54 60
        E 0 90 56 60
        E 120 80 18 00
        E 0 80 1f 00
        E 0 80 60 00
        E 0 80 62 00
        E 0 80 54 00
        E 0 80 56 00
        E 120 90 1f 60
        E 0 90 62 60
        E 0 90 56 60
        E 0 90 4a 60
        E 0 90 3e 60
        E 120 80 1f 00
        E 0 80 62 00
        E 0 80 56 00
        E 0 80 4a 00
        E 0 80 3e 00
        E 120 90 1f 60
        E 0 90 62 60
        E 0 90 56 60
        E 120 80 1f 00
        E 0 80 62 00
        E 0 80 56 00
        E 120 90 1a 60
        E 0 90 1f 60
        E 0 90 61 60
        E 0 90 62 60
        E 0 90 55 60
        E 0 90 56 60
        E 0 90 49 60
        E 0 90 4a 60
        E 0 90 3d 60
        E 0 90 3e 60
        E 120 80 1a 00
        E 0 80 1f 00
        E 0 80 61 00
        E 0 80 62 00
        E 0 80 55 00
        E 0 80 56 00
        E 0 80 49 00
        E 0 80 4a 00
        E 0 80 3d 00
        E 0 80 3e 00
        E 120 90 1f 60
        E 0 90 62 60
        E 0 90 56 60
        E 120 80 1f 00
        E 0 80 62 00
        E 0 80 56 00
        E 120 90 1f 60
        E 0 90 62 60
        E 0 90 74 60
        E 0 90 56 60
        E 0 90 4a 60
        E 0 90 3e 60
        E 120 80 1f 00
        E 0 80 62 00
        E 0 80 56 00
        E 0 80 4a 00
        E 0 80 3e 00
        E 120 90 18 60
        E 0 90 1f 60
        E 0 90 60 60
        E 0 90 62 60
        E 0 90 54 60
        E 0 90 56 60
        E 120 80 18 00
        E 0 80 1f 00
        E 0 80 60 00
        E 0 80 62 00
        E 0 80 54 00
        E 0 80 56 00
        E 120 90 1a 60
        E 0 90 1f 60
        E 0 90 61 60
        E 0 90 62 60
        E 0 90 55 60
        E 0 90 56 60
        E 0 90 49 60
        E 0 90 4a 60
        E 0 90 3d 60
        E 0 90 3e 60
        E 120 80 1a 00
        E 0 80 1f 00
        E 0 80 61 00
        E 0 80 62 00
        E 0 80 55 00
        E 0 80 56 00
        E 0 80 49 00
        E 0 80 4a 00
        E 0 80 3d 00
        E 0 80 3e 00
        E 120 90 1f 60
        E 0 90 62 60
        E 0 90 56 60
        E 120 80 1f 00
        E 0 80 62 00
        E 0 80 56 00
        E 120 90 1f 60
        E 0 90 62 60
        E 0 90 56 60
        E 0 90 4a 60
        E 0 90 3e 60
        E 120 80 1f 00
        E 0 80 62 00
        E 0 80 56 00
        E 0 80 4a 00
        E 0 80 3e 00
        E 120 90 18 60
        E 0 90 1f 60
        E 0 90 60 60
        E 0 90 62 60
        E 0 90 54 60
        E 0 90 56 60
        E 120 80 18 00
        E 0 80 1f 00
        E 0 80 60 00
        E 0 80 62 00
        E 0 80 54 00
        E 0 80 56 00
        E 120 90 1a 60
        E 0 90 1f 60
        E 0 90 61 60
        E 0 90 62 60
        E 0 90 55 60
        E 0 90 56 60
        E 0 90 49 60
        E 0 90 4a 60
        E 0 90 3d 60
        E 0 90 3e 60
        E 120 80 1a 00
        E 0 80 1f 00
        E 0 80 61 00
        E 0 80 62 00
        E 0 80 55 00
        E 0 80 56 00
        E 0 80 49 00
        E 0 80 4a 00
        E 0 80 3d 00
        E 0 80 3e 00
        E 120 90 19 60
        E 0 90 1f 60
        E 0 90 63 60
        E 0 90 57 60
        E 120 80 1f 00
        E 0 80 63 00
        E 0 80 57 00
        E 120 80 74 00
        E 0 80 19 00
        E 0 90 18 60
        E 0 90 1f 60
        E 0 90 60 60
        E 0 90 62 60
        E 0 90 54 60
        E 0 90 56 60
        E 0 90 48 60
        E 0 90 4a 60
        E 0 90 3e 60
        E 120 80 18 00
        E 0 80 1f 00
        E 0 80 60 00
        E 0 80 62 00
        E 0 80 54 00
        E 0 80 56 00
        E 0 80 48 00
        E 0 80 4a 00
        E 0 80 3e 00
        E 120 90 1f 60
        E 0 90 62 60
        E 0 90 56 60
        E 120 80 1f 00
        E 0 80 62 00
        E 0 80 56 00
        E 120 90 1a 60
        E 0 90 1f 60
        E 0 90 61 60
        E 0 90 62 60
        E 0 90 55 60
        E 0 90 56 60
        E 0 90 49 60
        E 0 90 4a 60
        E 0 90 3d 60
        E 0 90 3e 60
        E 120 80 1a 00
        E 0 80 1f 00
        E 0 80 61 00
        E 0 80 62 00
        E 0 80 55 00
        E 0 80 56 00
        E 0 80 49 00
        E 0 80 4a 00
        E 0 80 3d 00
        E 0 80 3e 00
        E 120 90 18 60
        E 0 90 1f 60
        E 0 90 60 60
        E 0 90 62 60
        E 0 90 54 60
        E 0 90 56 60
        E 120 80 18 00
        E 0 80 1f 00
        E 0 80 60 00
        E 0 80 62 00
        E 0 80 54 00
        E 0 80 56 00
        E 120 90 1f 60
        E 0 90 62 60
        E 0 90 56 60
        E 0 90 4a 60
        E 0 90 3e 60
        E 120 80 1f 00
        E 0 80 62 00
        E 0 80 56 00
        E 0 80 4a 00
        E 0 80 3e 00
        E 120 90 1f 60
        E 0 90 62 60
        E 0 90 56 60
        E 120 80 1f 00
        E 0 80 62 00
        E 0 80 56 00
        E 120 90 1a 60
        E 0 90 1f 60
        E 0 90 61 60
        E 0 90 62 60
        E 0 90 55 60
        E 0 90 56 60
        E 0 90 49 60
        E 0 90 4a 60
        E 0 90 3d 60
        E 0 90 3e 60
        E 120 80 1a 00
        E 0 80 1f 00
        E 0 80 61 00
        E 0 80 62 00
        E 0 80 55 00
        E 0 80 56 00
        E 0 80 49 00
        E 0 80 4a 00
        E 0 80 3d 00
        E 0 80 3e 00
        E 120 90 1f 60
        E 0 90 62 60
        E 0 90 56 60
        E 120 80 1f 00
        E 0 80 62 00
        E 0 80 56 00
        E 120 90 1f 60
        E 0 90 62 60
        E 0 90 56 60
        E 0 90 4a 60
        E 0 90 3e 60
        E 120 80 1f 00
        E 0 80 62 00
        E 0 80 56 00
        E 0 80 4a 00
        E 0 80 3e 00
        E 120 90 18 60
        E 0 90 1f 60
        E 0 90 60 60
        E 0 90 62 60
        E 0 90 54 60
        E 0 90 56 60
        E 120 80 18 00
        E 0 80 1f 00
        E 0 80 60 00
        E 0 80 62 00
        E 0 80 54 00
        E 0 80 56 00
        E 120 90 1a 60
        E 0 90 1f 60
        E 0 90 61 60
        E 0 90 62 60
        E 0 90 55 60
        E 0 90 56 60
        E 0 90 49 60
        E 0 90 4a 60
        E 0 90 3d 60
        E 0 90 3e 60
        E 120 80 1a 00
        E 0 80 1f 00
        E 0 80 61 00
        E 0 80 62 00
        E 0 80 55 00
        E 0 80 56 00
        E 0 80 49 00
        E 0 80 4a 00
        E 0 80 3d 00
        E 0 80 3e 00
        E 120 90 1f 60
        E 0 90 62 60
        E 0 90 56 60
        E 120 80 1f 00
        E 0 80 62 00
        E 0 80 56 00
        E 120 90 1f 60
        E 0 90 62 60
        E 0 90 56 60
        E 0 90 4a 60
        E 0 90 3e 60
        E 120 80 1f 00
        E 0 80 62 00
        E 0 80 56 00
        E 0 80 4a 00
        E 0 80 3e 00
        E 120 90 18 60
        E 0 90 1f 60
        E 0 90 60 60
        E 0 90 62 60
        E 0 90 54 60
        E 0 90 56 60
        E 120 80 18 00
        E 0 80 1f 00
        E 0 80 60 00
        E 0 80 62 00
        E 0 80 54 00
        E 0 80 56 00
        E 120 90 1a 60
        E 0 90 1f 60
        E 0 90 61 60
        E 0 90 62 60
        E 0 90 55 60
        E 0 90 56 60
        E 0 90 49 60
        E 0 90 4a 60
        E 0 90 3d 60
        E 0 90 3e 60
        E 120 80 1a 00
        E 0 80 1f 00
        E 0 80 61 00
        E 0 80 62 00
        E 0 80 55 00
        E 0 80 56 00
        E 0 80 49 00
        E 0 80 4a 00
        E 0 80 3d 00
        E 0 80 3e 00
        E 120 90 1f 60
        E 0 90 62 60
        E 0 90 56 60
        E 120 80 1f 00
        E 0 80 62 00
        E 0 80 56 00
        E 120 90 18 60
        E 0 90 1f 60
        E 0 90 60 60
        E 0 90 62 60
        E 0 90 54 60
        E 0 90 56 60
        E 0 90 48 60
        E 0 90 4a 60
        E 0 90 3e 60
        E 120 80 18 00
        E 0 80 1f 00
        E 0 80 60 00
        E 0 80 62 00
        E 0 80 54 00
        E 0 80 56 00
        E 0 80 48 00
        E 0 80 4a 00
        E 0 80 3e 00
        E 120 90 1f 60
        E 0 90 62 60
        E 0 90 56 60
        E 120 80 1f 00
        E 0 80 62 00
        E 0 80 56 00
        E 120 90 1a 60
        E 0 90 1f 60
        E 0 90 61 60
        E 0 90 62 60
        E 0 90 55 60
        E 0 90 56 60
        E 0 90 49 60
        E 0 90 4a 60
        E 0 90 3d 60
        E 0 90 3e 60
        E 120 80 1a 00
        E 0 80 1f 00
        E 0 80 61 00
        E 0 80 62 00
        E 0 80 55 00
        E 0 80 56 00
        E 0 80 49 00
        E 0 80 4a 00
        E 0 80 3d 00
        E 0 80 3e 00
        E 120 90 18 60
        E 0 90 1f 60
        E 0 90 60 60
        E 0 90 62 60
        E 0 90 54 60
        E 0 90 56 60
        E 120 80 18 00
        E 0 80 1f 00
        E 0 80 60 00
        E 0 80 62 00
        E 0 80 54 00
        E 0 80 56 00
        E 120 90 1f 60
        E 0 90 62 60
        E 0 90 56 60
        E 0 90 4a 60
        E 0 90 3e 60
        E 120 80 1f 00
        E 0 80 62 00
        E 0 80 56 00
        E 0 80 4a 00
        E 0 80 3e 00
        E 120 90 1f 60
        E 0 90 62 60
        E 0 90 56 60
        E 120 80 1f 00
        E 0 80 62 00
        E 0 80 56 00
        E 120 90 1a 60
        E 0 90 1f 60
        E 0 90 61 60
        E 0 90 62 60
        E 0 90 55 60
        E 0 90 56 60
        E 0 90 49 60
        E 0 90 4a 60
        E 0 90 3d 60
        E 0 90 3e 60
        E 120 80 1a 00
        E 0 80 1f 00
        E 0 80 61 00
        E 0 80 62 00
        E 0 80 55 00
        E 0 80 56 00
        E 0 80 49 00
        E 0 80 4a 00
        E 0 80 3d 00
        E 0 80 3e 00
        E 120 90 1f 60
        E 0 90 62 60
        E 0 90 56 60
        E 120 80 1f 00
        E 0 80 62 00
        E 0 80 56 00
        E 120 90 1f 60
        E 0 90 62 60
        E 0 90 78 60
        E 0 90 79 60
        E 0 90 7a 60
        E 0 90 7b 60
        E 0 90 7c 60
        E 0 90 56 60
        E 0 90 4a 60
        E 0 90 3e 60
        E 120 80 1f 00
        E 0 80 62 00
        E 0 80 56 00
        E 0 80 4a 00
        E 0 80 3e 00
        E 120 90 18 60
        E 0 90 1f 60
        E 0 90 60 60
        E 0 90 62 60
        E 0 90 54 60
        E 0 90 56 60
        E 120 80 18 00
        E 0 80 1f 00
        E 0 80 60 00
        E 0 80 62 00
        E 0 80 54 00
        E 0 80 56 00
        E 120 90 1a 60
        E 0 90 1f 60
        E 0 90 61 60
        E 0 90 62 60
        E 0 90 55 60
        E 0 90 56 60
        E 0 90 49 60
        E 0 90 4a 60
        E 0 90 3d 60
        E 0 90 3e 60
        E 120 80 1a 00
        E 0 80 1f 00
        E 0 80 61 00
        E 0 80 62 00
        E 0 80 55 00
        E 0 80 56 00
        E 0 80 49 00
        E 0 80 4a 00
        E 0 80 3d 00
        E 0 80 3e 00
        E 120 90 1f 60
        E 0 90 62 60
        E 0 90 56 60
        E 120 80 1f 00
        E 0 80 62 00
        E 0 80 56 00
        E 120 90 1f 60
        E 0 90 62 60
        E 0 90 56 60
        E 0 90 4a 60
        E 0 90 3e 60
        E 120 80 1f 00
        E 0 80 62 00
        E 0 80 56 00
        E 0 80 4a 00
        E 0 80 3e 00
        E 120 90 18 60
        E 0 90 1f 60
        E 0 90 60 60
        E 0 90 62 60
        E 0 90 54 60
        E 0 90 56 60
        E 120 80 18 00
        E 0 80 1f 00
        E 0 80 60 00
        E 0 80 62 00
        E 0 80 54 00
        E 0 80 56 00
        E 120 90 1a 60
        E 0 90 1f 60
        E 0 90 61 60
        E 0 90 62 60
        E 0 90 55 60
        E 0 90 56 60
        E 0 90 49 60
        E 0 90 4a 60
        E 0 90 3d 60
        E 0 90 3e 60
        E 120 80 1a 00
        E 0 80 1f 00
        E 0 80 61 00
        E 0 80 62 00
        E 0 80 55 00
        E 0 80 56 00
        E 0 80 49 00
        E 0 80 4a 00
        E 0 80 3d 00
        E 0 80 3e 00
        E 120 90 19 60
        E 0 90 1f 60
        E 0 90 63 60
        E 0 90 57 60
        E 120 80 1f 00
        E 0 80 63 00
        E 0 80 57 00
        E 120 80 78 00
        E 0 80 79 00
        E 0 80 7a 00
        E 0 80 7b 00
        E 0 80 7c 00
        E 0 80 19 00
        E 0 90 18 60
        E 0 90 24 60
        E 0 90 60 60
        E 0 90 64 60
        E 0 90 54 60
        E 0 90 58 60
        E 0 90 48 60
        E 0 90 4c 60
        E 0 90 40 60
        E 120 80 18 00
        E 0 80 24 00
        E 0 80 60 00
        E 0 80 64 00
        E 0 80 54 00
        E 0 80 58 00
        E 0 80 48 00
        E 0 80 4c 00
        E 0 80 40 00
        E 120 90 1f 60
        E 0 90 62 60
        E 0 90 56 60
        E 120 80 1f 00
        E 0 80 62 00
        E 0 80 56 00
        E 120 90 1a 60
        E 0 90 1f 60
        E 0 90 61 60
        E 0 90 62 60
        E 0 90 55 60
        E 0 90 56 60
        E 0 90 49 60
        E 0 90 4a 60
        E 0 90 3d 60
        E 0 90 3e 60
        E 120 80 1a 00
        E 0 80 1f 00
        E 0 80 61 00
        E 0 80 62 00
        E 0 80 55 00
        E 0 80 56 00
        E 0 80 49 00
        E 0 80 4a 00
        E 0 80 3d 00
        E 0 80 3e 00
        E 120 90 18 60
        E 0 90 1f 60
        E 0 90 60 60
        E 0 90 62 60
        E 0 90 54 60
        E 0 90 56 60
        E 120 80 18 00
        E 0 80 1f 00
        E 0 80 60 00
        E 0 80 62 00
        E 0 80 54 00
        E 0 80 56 00
        E 120 90 1f 60
        E 0 90 62 60
        E 0 90 56 60
        E 0 90 4a 60
        E 0 90 3e 60
        E 120 80 1f 00
        E 0 80 62 00
        E 0 80 56 00
        E 0 80 4a 00
        E 0 80 3e 00
        E 120 90 1f 60
        E 0 90 62 60
        E 0 90 56 60
        E 120 80 1f 00
        E 0 80 62 00
        E 0 80 56 00
        E 120 90 1a 60
        E 0 90 1f 60
        E 0 90 61 60
        E 0 90 62 60
        E 0 90 55 60
        E 0 90 56 60
        E 0 90 49 60
        E 0 90 4a 60
        E 0 90 3d 60
        E 0 90 3e 60
        E 120 80 1a 00
        E 0 80 1f 00
        E 0 80 61 00
        E 0 80 62 00
        E 0 80 55 00
        E 0 80 56 00
        E 0 80 49 00
        E 0 80 4a 00
        E 0 80 3d 00
        E 0 80 3e 00
        E 120 90 1f 60
        E 0 90 62 60
        E 0 90 56 60
        E 120 80 1f 00
        E 0 80 62 00
        E 0 80 56 00
        E 120 90 1f 60
        E 0 90 62 60
        E 0 90 56 60
        E 0 90 4a 60
        E 0 90 3e 60
        E 120 80 1f 00
        E 0 80 62 00
        E 0 80 56 00
        E 0 80 4a 00
        E 0 80 3e 00
        E 120 90 18 60
        E 0 90 1f 60
        E 0 90 60 60
        E 0 90 62 60
        E 0 90 54 60
        E 0 90 56 60
        E 120 80 18 00
        E 0 80 1f 00
        E 0 80 60 00
        E 0 80 62 00
        E 0 80 54 00
        E 0 80 56 00
        E 120 90 1a 60
        E 0 90 1f 60
        E 0 90 61 60
        E 0 90 62 60
        E 0 90 55 60
        E 0 90 56 60
        E 0 90 49 60
        E 0 90 4a 60
        E 0 90 3d 60
        E 0 90 3e 60
        E 120 80 1a 00
        E 0 80 1f 00
        E 0 80 61 00
        E 0 80 62 00
        E 0 80 55 00
        E 0 80 56 00
        E 0 80 49 00
        E 0 80 4a 00
        E 0 80 3d 00
        E 0 80 3e 00
        E 120 90 1f 60
        E 0 90 62 60
        E 0 90 56 60
        E 120 80 1f 00
        E 0 80 62 00
        E 0 80 56 00
        E 120 90 1f 60
        E 0 90 62 60
        E 0 90 56 60
        E 0 90 4a 60
        E 0 90 3e 60
        E 120 80 1f 00
        E 0 80 62 00
        E 0 80 56 00
        E 0 80 4a 00
        E 0 80 3e 00
        E 120 90 18 60
        E 0 90 1f 60
        E 0 90 60 60
        E 0 90 62 60
        E 0 90 54 60
        E 0 90 56 60
        E 120 80 18 00
        E 0 80 1f 00
        E 0 80 60 00
        E 0 80 62 00
        E 0 80 54 00
        E 0 80 56 00
        E 120 90 1a 60
        E 0 90 1f 60
        E 0 90 61 60
        E 0 90 62 60
        E 0 90 55 60
        E 0 90 56 60
        E 0 90 49 60
        E 0 90 4a 60
        E 0 90 3d 60
        E 0 90 3e 60
        E 120 80 1a 00
        E 0 80 1f 00
        E 0 80 61 00
        E 0 80 62 00
        E 0 80 55 00
        E 0 80 56 00
        E 0 80 49 00
        E 0 80 4a 00
        E 0 80 3d 00
        E 0 80 3e 00
        E 120 90 1f 60
        E 0 90 62 60
        E 0 90 56 60
        E 120 80 1f 00
        E 0 80 62 00
        E 0 80 56 00
        E 120 90 18 60
        E 0 90 1f 60
        E 0 90 60 60
        E 0 90 62 60
        E 0 90 54 60
        E 0 90 56 60
        E 0 90 48 60
        E 0 90 4a 60
        E 0 90 3e 60
        E 120 80 18 00
        E 0 80 1f 00
        E 0 80 60 00
        E 0 80 62 00
        E 0 80 54 00
        E 0 80 56 00
        E 0 80 48 00
        E 0 80 4a 00
        E 0 80 3e 00
        E 120 90 1f 60
        E 0 90 62 60
        E 0 90 56 60
        E 120 80 1f 00
        E 0 80 62 00
        E 0 80 56 00
        E 120 90 1a 60
        E 0 90 1f 60
        E 0 90 61 60
        E 0 90 62 60
        E 0 90 55 60
        E 0 90 56 60
        E 0 90 49 60
        E 0 90 4a 60
        E 0 90 3d 60
        E 0 90 3e 60
        E 120 80 1a 00
        E 0 80 1f 00
        E 0 80 61 00
        E 0 80 62 00
        E 0 80 55 00
        E 0 80 56 00
        E 0 80 49 00
        E 0 80 4a 00
        E 0 80 3d 00
        E 0 80 3e 00
        E 120 90 18 60
        E 0 90 1f 60
        E 0 90 60 60
        E 0 90 62 60
        E 0 90 54 60
        E 0 90 56 60
        E 120 80 18 00
        E 0 80 1f 00
        E 0 80 60 00
        E 0 80 62 00
        E 0 80 54 00
        E 0 80 56 00
        E 120 90 1f 60
        E 0 90 62 60
        E 0 90 56 60
        E 0 90 4a 60
        E 0 90 3e 60
        E 120 80 1f 00
        E 0 80 62 00
        E 0 80 56 00
        E 0 80 4a 00
        E 0 80 3e 00
        E 120 90 1f 60
        E 0 90 62 60
        E 0 90 56 60
        E 120 80 1f 00
        E 0 80 62 00
        E 0 80 56 00
        E 120 90 1a 60
        E 0 90 1f 60
        E 0 90 61 60
        E 0 90 62 60
        E 0 90 55 60
        E 0 90 56 60
        E 0 90 49 60
        E 0 90 4a 60
        E 0 90 3d 60
        E 0 90 3e 60
        E 120 80 1a 00
        E 0 80 1f 00
        E 0 80 61 00
        E 0 80 62 00
        E 0 80 55 00
        E 0 80 56 00
        E 0 80 49 00
        E 0 80 4a 00
        E 0 80 3d 00
        E 0 80 3e 00
        E 120 90 1f 60
        E 0 90 62 60
        E 0 90 56 60
        E 120 80 1f 00
        E 0 80 62 00
        E 0 80 56 00
        E 120 90 1f 60
        E 0 90 62 60
        E 0 90 78 60
        E 0 90 79 60
        E 0 90 7a 60
        E 0 90 7b 60
        E 0 90 7c 60
        E 0 90 56 60
        E 0 90 4a 60
        E 0 90 3e 60
        E 120 80 1f 00
        E 0 80 62 00
        E 0 80 56 00
        E 0 80 4a 00
        E 0 80 3e 00
        E 120 90 18 60
        E 0 90 1f 60
        E 0 90 60 60
        E 0 90 62 60
        E 0 90 54 60
        E 0 90 56 60
        E 120 80 18 00
        E 0 80 1f 00
        E 0 80 60 00
        E 0 80 62 00
        E 0 80 54 00
        E 0 80 56 00
        E 120 90 1a 60
        E 0 90 1f 60
        E 0 90 61 60
        E 0 90 62 60
        E 0 90 55 60
        E 0 90 56 60
        E 0 90 49 60
        E 0 90 4a 60
        E 0 90 3d 60
        E 0 90 3e 60
        E 120 80 1a 00
        E 0 80 1f 00
        E 0 80 61 00
        E 0 80 62 00
        E 0 80 55 00
        E 0 80 56 00
        E 0 80 49 00
        E 0 80 4a 00
        E 0 80 3d 00
        E 0 80 3e 00
        E 120 90 1f 60
        E 0 90 62 60
        E 0 90 56 60
        E 120 80 1f 00
        E 0 80 62 00
        E 0 80 56 00
        E 120 90 1f 60
        E 0 90 62 60
        E 0 90 56 60
        E 0 90 4a 60
        E 0 90 3e 60
        E 120 80 1f 00
        E 0 80 62 00
        E 0 80 56 00
        E 0 80 4a 00
        E 0 80 3e 00
        E 120 90 18 60
        E 0 90 1f 60
        E 0 90 60 60
        E 0 90 62 60
        E 0 90 54 60
        E 0 90 56 60
        E 120 80 18 00
        E 0 80 1f 00
        E 0 80 60 00
        E 0 80 62 00
        E 0 80 54 00
        E 0 80 56 00
        E 120 90 1a 60
        E 0 90 1f 60
        E 0 90 61 60
        E 0 90 62 60
        E 0 90 55 60
        E 0 90 56 60
        E 0 90 49 60
        E 0 90 4a 60
        E 0 90 3d 60
        E 0 90 3e 60
        E 120 80 1a 00
        E 0 80 1f 00
        E 0 80 61 00
        E 0 80 62 00
        E 0 80 55 00
        E 0 80 56 00
        E 0 80 49 00
        E 0 80 4a 00
        E 0 80 3d 00
        E 0 80 3e 00
        E 120 90 19 60
        E 0 90 1f 60
        E 0 90 63 60
        E 0 90 57 60
        E 120 80 1f 00
        E 0 80 63 00
        E 0 80 57 00
        E 120 80 78 00
        E 0 80 79 00
        E 0 80 7a 00
        E 0 80 7b 00
        E 0 80 7c 00
        E 0 80 19 00
        E 0 90 18 60
        E 0 90 1f 60
        E 0 90 60 60
        E 0 90 62 60
        E 0 90 54 60
        E 0 90 56 60
        E 0 90 48 60
        E 0 90 4a 60
        E 0 90 3e 60
        E 120 80 18 00
        E 0 80 1f 00
        E 0 80 60 00
        E 0 80 62 00
        E 0 80 54 00
        E 0 80 56 00
        E 0 80 48 00
        E 0 80 4a 00
        E 0 80 3e 00
        E 120 90 1f 60
        E 0 90 62 60
        E 0 90 56 60
        E 120 80 1f 00
        E 0 80 62 00
        E 0 80 56 00
        E 120 90 1a 60
        E 0 90 1f 60
        E 0 90 61 60
        E 0 90 62 60
        E 0 90 55 60
        E 0 90 56 60
        E 0 90 49 60
        E 0 90 4a 60
        E 0 90 3d 60
        E 0 90 3e 60
        E 120 80 1a 00
        E 0 80 1f 00
        E 0 80 61 00
        E 0 80 62 00
        E 0 80 55 00
        E 0 80 56 00
        E 0 80 49 00
        E 0 80 4a 00
        E 0 80 3d 00
        E 0 80 3e 00
        E 120 90 18 60
        E 0 90 1f 60
        E 0 90 60 60
        E 0 90 62 60
        E 0 90 54 60
        E 0 90 56 60
        E 120 80 18 00
        E 0 80 1f 00
        E 0 80 60 00
        E 0 80 62 00
        E 0 80 54 00
        E 0 80 56 00
        E 120 90 1f 60
        E 0 90 62 60
        E 0 90 56 60
        E 0 90 4a 60
        E 0 90 3e 60
        E 120 80 1f 00
        E 0 80 62 00
        E 0 80 56 00
        E 0 80 4a 00
        E 0 80 3e 00
        E 120 90 1f 60
        E 0 90 62 60
        E 0 90 56 60
        E 120 80 1f 00
        E 0 80 62 00
        E 0 80 56 00
        E 120 90 1a 60
        E 0 90 1f 60
        E 0 90 61 60
        E 0 90 62 60
        E 0 90 55 60
        E 0 90 56 60
        E 0 90 49 60
        E 0 90 4a 60
        E 0 90 3d 60
        E 0 90 3e 60
        E 120 80 1a 00
        E 0 80 1f 00
        E 0 80 61 00
        E 0 80 62 00
        E 0 80 55 00
        E 0 80 56 00
        E 0 80 49 00
        E 0 80 4a 00
        E 0 80 3d 00
        E 0 80 3e 00
        E 120 90 1f 60
        E 0 90 62 60
        E 0 90 56 60
        E 120 80 1f 00
        E 0 80 62 00
        E 0 80 56 00
        E 120 90 1f 60
        E 0 90 62 60
        E 0 90 56 60
        E 0 90 4a 60
        E 0 90 3e 60
        E 120 80 1f 00
        E 0 80 62 00
        E 0 80 56 00
        E 0 80 4a 00
        E 0 80 3e 00
        E 120 90 18 60
        E 0 90 1f 60
        E 0 90 60 60
        E 0 90 62 60
        E 0 90 54 60
        E 0 90 56 60
        E 120 80 18 00
        E 0 80 1f 00
        E 0 80 60 00
        E 0 80 62 00
        E 0 80 54 00
        E 0 80 56 00
        E 120 90 1a 60
        E 0 90 1f 60
        E 0 90 61 60
        E 0 90 62 60
        E 0 90 55 60
        E 0 90 56 60
        E 0 90 49 60
        E 0 90 4a 60
        E 0 90 3d 60
        E 0 90 3e 60
        E 120 80 1a 00
        E 0 80 1f 00
        E 0 80 61 00
        E 0 80 62 00
        E 0 80 55 00
        E 0 80 56 00
        E 0 80 49 00
        E 0 80 4a 00
        E 0 80 3d 00
        E 0 80 3e 00
        E 120 90 1f 60
        E 0 90 62 60
        E 0 90 56 60
        E 120 80 1f 00
        E 0 80 62 00
        E 0 80 56 00
        E 120 90 1f 60
        E 0 90 62 60
        E 0 90 56 60
        E 0 90 4a 60
        E 0 90 3e 60
        E 120 80 1f 00
        E 0 80 62 00
        E 0 80 56 00
        E 0 80 4a 00
        E 0 80 3e 00
        E 120 90 18 60
        E 0 90 1f 60
        E 0 90 60 60
        E 0 90 62 60
        E 0 90 54 60
        E 0 90 56 60
        E 120 80 18 00
        E 0 80 1f 00
        E 0 80 60 00
        E 0 80 62 00
        E 0 80 54 00
        E 0 80 56 00
        E 120 90 1a 60
        E 0 90 1f 60
        E 0 90 61 60
        E 0 90 62 60
        E 0 90 55 60
        E 0 90 56 60
        E 0 90 49 60
        E 0 90 4a 60
        E 0 90 3d 60
        E 0 90 3e 60
        E 120 80 1a 00
        E 0 80 1f 00
        E 0 80 61 00
        E 0 80 62 00
        E 0 80 55 00
        E 0 80 56 00
        E 0 80 49 00
        E 0 80 4a 00
        E 0 80 3d 00
        E 0 80 3e 00
        E 120 90 1f 60
        E 0 90 62 60
        E 0 90 56 60
        E 120 80 1f 00
        E 0 80 62 00
        E 0 80 56 00
        E 120 90 18 60
        E 0 90 1f 60
        E 0 90 60 60
        E 0 90 62 60
        E 0 90 74 60
        E 0 90 54 60
        E 0 90 56 60
        E 0 90 48 60
        E 0 90 4a 60
        E 0 90 3e 60
        E 120 80 18 00
        E 0 80 1f 00
        E 0 80 60 00
        E 0 80 62 00
        E 0 80 54 00
        E 0 80 56 00
        E 0 80 48 00
        E 0 80 4a 00
        E 0 80 3e 00
        E 120 90 1f 60
        E 0 90 62 60
        E 0 90 56 60
        E 120 80 1f 00
        E 0 80 62 00
        E 0 80 56 00
        E 120 90 1a 60
        E 0 90 1f 60
        E 0 90 61 60
        E 0 90 62 60
        E 0 90 55 60
        E 0 90 56 60
        E 0 90 49 60
        E 0 90 4a 60
        E 0 90 3d 60
        E 0 90 3e 60
        E 120 80 1a 00
        E 0 80 1f 00
        E 0 80 61 00
        E 0 80 62 00
        E 0 80 55 00
        E 0 80 56 00
        E 0 80 49 00
        E 0 80 4a 00
        E 0 80 3d 00
        E 0 80 3e 00
        E 120 90 18 60
        E 0 90 1f 60
        E 0 90 60 60
        E 0 90 62 60
        E 0 90 54 60
        E 0 90 56 60
        E 120 80 18 00
        E 0 80 1f 00
        E 0 80 60 00
        E 0 80 62 00
        E 0 80 54 00
        E 0 80 56 00
        E 120 90 1f 60
        E 0 90 62 60
        E 0 90 56 60
        E 0 90 4a 60
        E 0 90 3e 60
        E 120 80 1f 00
        E 0 80 62 00
        E 0 80 56 00
        E 0 80 4a 00
        E 0 80 3e 00
        E 120 90 1f 60
        E 0 90 62 60
        E 0 90 56 60
        E 120 80 1f 00
        E 0 80 62 00
        E 0 80 56 00
        E 120 90 1a 60
        E 0 90 1f 60
        E 0 90 61 60
        E 0 90 62 60
        E 0 90 55 60
        E 0 90 56 60
        E 0 90 49 60
        E 0 90 4a 60
        E 0 90 3d 60
        E 0 90 3e 60
        E 120 80 1a 00
        E 0 80 1f 00
        E 0 80 61 00
        E 0 80 62 00
        E 0 80 55 00
        E 0 80 56 00
        E 0 80 49 00
        E 0 80 4a 00
        E 0 80 3d 00
        E 0 80 3e 00
        E 120 90 1f 60
        E 0 90 62 60
        E 0 90 56 60
        E 120 80 1f 00
        E 0 80 62 00
        E 0 80 56 00
        E 120 90 1f 60
        E 0 90 62 60
        E 0 90 56 60
        E 0 90 4a 60
        E 0 90 3e 60
        E 120 80 1f 00
        E 0 80 62 00
        E 0 80 56 00
        E 0 80 4a 00
        E 0 80 3e 00
        E 120 90 18 60
        E 0 90 1f 60
        E 0 90 60 60
        E 0 90 62 60
        E 0 90 54 60
        E 0 90 56 60
        E 120 80 18 00
        E 0 80 1f 00
        E 0 80 60 00
        E 0 80 62 00
        E 0 80 54 00
        E 0 80 56 00
        E 120 90 1a 60
        E 0 90 1f 60
        E 0 90 61 60
        E 0 90 62 60
        E 0 90 55 60
        E 0 90 56 60
        E 0 90 49 60
        E 0 90 4a 60
        E 0 90 3d 60
        E 0 90 3e 60
        E 120 80 1a 00
        E 0 80 1f 00
        E 0 80 61 00
        E 0 80 62 00
        E 0 80 55 00
        E 0 80 56 00
        E 0 80 49 00
        E 0 80 4a 00
        E 0 80 3d 00
        E 0 80 3e 00
        E 120 90 1f 60
        E 0 90 62 60
        E 0 90 56 60
        E 120 80 1f 00
        E 0 80 62 00
        E 0 80 56 00
        E 120 90 1f 60
        E 0 90 62 60
        E 0 90 56 60
        E 0 90 4a 60
        E 0 90 3e 60
        E 120 80 1f 00
        E 0 80 62 00
        E 0 80 56 00
        E 0 80 4a 00
        E 0 80 3e 00
        E 120 90 18 60
        E 0 90 1f 60
        E 0 90 60 60
        E 0 90 62 60
        E 0 90 54 60
        E 0 90 56 60
        E 120 80 18 00
        E 0 80 1f 00
        E 0 80 60 00
        E 0 80 62 00
        E 0 80 54 00
        E 0 80 56 00
        E 120 90 1a 60
        E 0 90 1f 60
        E 0 90 61 60
        E 0 90 62 60
        E 0 90 55 60
        E 0 90 56 60
        E 0 90 49 60
        E 0 90 4a 60
        E 0 90 3d 60
        E 0 90 3e 60
        E 120 80 1a 00
        E 0 80 1f 00
        E 0 80 61 00
        E 0 80 62 00
        E 0 80 55 00
        E 0 80 56 00
        E 0 80 49 00
        E 0 80 4a 00
        E 0 80 3d 00
        E 0 80 3e 00
        E 120 90 19 60
        E 0 90 1f 60
        E 0 90 63 60
        E 0 90 57 60
        E 120 80 1f 00
        E 0 80 63 00
        E 0 80 57 00
        E 120 80 19 00
        E 0 90 18 60
        E 0 90 24 60
        E 0 90 60 60
        E 0 90 64 60
        E 0 90 54 60
        E 0 90 58 60
        E 0 90 48 60
        E 0 90 4c 60
        E 0 90 40 60
        E 120 80 74 00
        E 0 80 18 00
        E 0 80 24 00
        E 0 80 60 00
        E 0 80 64 00
        E 0 80 54 00
        E 0 80 58 00
        E 0 80 48 00
        E 0 80 4c 00
        E 0 80 40 00
        <X 120 0
          /wFbaWRsZV0=
        >
        <X 5520 0
          /wFbcGxheV0=
        >
        E 0 90 1f 60
        E 0 90 62 60
        E 0 90 78 60
        E 0 90 79 60
        E 0 90 7a 60
        E 0 90 7b 60
        E 0 90 7c 60
        E 0 90 56 60
        E 0 90 4a 60
        E 0 90 3e 60
        E 120 80 1f 00
        E 0 80 62 00
        E 0 80 56 00
        E 0 80 4a 00
        E 0 80 3e 00
        E 360 90 1f 60
        E 0 90 62 60
        E 0 90 56 60
        E 0 90 4a 60
        E 0 90 3e 60
        E 120 80 1f 00
        E 0 80 62 00
        E 0 80 56 00
        E 0 80 4a 00
        E 0 80 3e 00
        E 360 90 19 60
        E 0 90 1f 60
        E 0 90 62 60
        E 0 90 56 60
        E 0 90 4a 60
        E 0 90 3e 60
        E 120 80 1f 00
        E 0 80 62 00
        E 0 80 56 00
        E 0 80 4a 00
        E 0 80 3e 00
        E 360 90 1f 60
        E 0 90 62 60
        E 0 90 56 60
        E 0 90 4a 60
        E 0 90 3e 60
        E 120 80 1f 00
        E 0 80 62 00
        E 0 80 56 00
        E 0 80 4a 00
        E 0 80 3e 00
        E 120 90 18 60
        E 0 90 60 60
        E 0 90 54 60
        E 120 80 18 00
        E 0 80 60 00
        E 0 80 54 00
        E 120 80 78 00
        E 0 80 79 00
        E 0 80 7a 00
        E 0 80 7b 00
        E 0 80 7c 00
        E 0 80 19 00
        E 0 90 18 60
        E 0 90 1a 60
        E 0 90 26 60
        E 0 90 60 60
        E 0 90 61 60
        E 0 90 64 60
        E 0 90 54 60
        E 0 90 55 60
        E 0 90 58 60
        E 0 90 49 60
        E 0 90 4c 60
        E 0 90 3d 60
        E 0 90 40 60
        E 120 80 18 00
        E 0 80 1a 00
        E 0 80 26 00
        E 0 80 60 00
        E 0 80 61 00
        E 0 80 64 00
        E 0 80 54 00
        E 0 80 55 00
        E 0 80 58 00
        E 0 80 49 00
        E 0 80 4c 00
        E 0 80 3d 00
        E 0 80 40 00
        E 120 90 19 60
        E 240 80 19 00
        E 0 90 18 60
        E 0 90 1d 60
        E 0 90 60 60
        E 0 90 61 60
        E 0 90 54 60
        E 0 90 55 60
        E 0 90 49 60
        E 0 90 3d 60
        E 120 80 18 00
        E 0 80 1d 00
        E 0 80 60 00
        E 0 80 61 00
        E 0 80 54 00
        E 0 80 55 00
        E 0 80 49 00
        E 0 90 1c 60
        E 0 90 61 60
        E 0 80 3d 00
        E 120 80 1c 00
        E 0 80 61 00
        E 0 90 19 60
        E 0 90 1d 60
        E 0 90 61 60
        E 0 90 55 60
        E 120 80 1d 00
        E 0 80 61 00
        E 0 80 55 00
        E 0 90 1c 60
        E 0 90 61 60
        E 120 80 19 00
        E 0 80 1c 00
        E 0 80 61 00
        E 0 90 18 60
        E 0 90 1d 60
        E 0 90 60 60
        E 0 90 61 60
        E 0 90 54 60
        E 0 90 55 60
        E 0 90 49 60
        E 0 90 3d 60
        E 120 80 18 00
        E 0 80 1d 00
        E 0 80 60 00
        E 0 80 61 00
        E 0 80 54 00
        E 0 80 55 00
        E 0 80 49 00
        E 0 90 1c 60
        E 0 90 61 60
        E 0 80 3d 00
        E 120 80 1c 00
        E 0 80 61 00
        E 0 90 19 60
        E 0 90 1d 60
        E 0 90 61 60
        E 0 90 55 60
        E 120 80 1d 00
        E 0 80 61 00
        E 0 80 55 00
        E 0 90 1c 60
        E 0 90 61 60
        E 120 80 19 00
        E 0 80 1c 00
        E 0 80 61 00
        E 0 90 18 60
        E 0 90 1d 60
        E 0 90 60 60
        E 0 90 61 60
        E 0 90 54 60
        E 0 90 55 60
        E 0 90 49 60
        E 0 90 3d 60
        E 120 80 18 00
        E 0 80 1d 00
        E 0 80 60 00
        E 0 80 61 00
        E 0 80 54 00
        E 0 80 55 00
        E 0 80 49 00
        E 0 90 1c 60
        E 0 90 61 60
        E 0 80 3d 00
        E 120 80 1c 00
        E 0 80 61 00
        E 0 90 1d 60
        E 0 90 61 60
        E 0 90 19 60
        E 0 90 55 60
        E 120 80 1d 00
        E 0 80 61 00
        E 0 80 55 00
        E 0 90 1c 60
        E 0 90 61 60
        E 120 80 19 00
        E 0 80 1c 00
        E 0 80 61 00
        E 0 90 18 60
        E 0 90 1d 60
        E 0 90 60 60
        E 0 90 61 60
        E 0 90 54 60
        E 0 90 55 60
        E 0 90 49 60
        E 0 90 3d 60
        E 120 80 18 00
        E 0 80 1d 00
        E 0 80 60 00
        E 0 80 61 00
        E 0 80 54 00
        E 0 80 55 00
        E 0 80 49 00
        E 0 90 1c 60
        E 0 90 61 60
        E 0 80 3d 00
        E 120 80 1c 00
        E 0 80 61 00
        E 0 90 19 60
        E 0 90 1d 60
        E 0 90 61 60
        E 0 90 55 60
        E 120 80 1d 00
        E 0 80 61 00
        E 0 80 55 00
        E 0 90 1c 60
        E 0 90 61 60
        E 120 80 19 00
        E 0 80 1c 00
        E 0 80 61 00
        E 0 90 18 60
        E 0 90 1d 60
        E 0 90 60 60
        E 0 90 61 60
        E 0 90 54 60
        E 0 90 55 60
        E 0 90 49 60
        E 0 90 3d 60
        E 120 80 18 00
        E 0 80 1d 00
        E 0 80 60 00
        E 0 80 61 00
        E 0 80 54 00
        E 0 80 55 00
        E 0 80 49 00
        E 0 90 1c 60
        E 0 90 61 60
        E 0 80 3d 00
        E 120 80 1c 00
        E 0 80 61 00
        E 0 90 19 60
        E 0 90 1d 60
        E 0 90 61 60
        E 0 90 55 60
        E 120 80 1d 00
        E 0 80 61 00
        E 0 80 55 00
        E 0 90 1c 60
        E 0 90 61 60
        E 120 80 19 00
        E 0 80 1c 00
        E 0 80 61 00
        E 0 90 18 60
        E 0 90 1d 60
        E 0 90 60 60
        E 0 90 61 60
        E 0 90 54 60
        E 0 90 55 60
        E 0 90 49 60
        E 0 90 3d 60
        E 120 80 18 00
        E 0 80 1d 00
        E 0 80 60 00
        E 0 80 61 00
        E 0 80 54 00
        E 0 80 55 00
        E 0 80 49 00
        E 0 90 1c 60
        E 0 90 61 60
        E 0 80 3d 00
        E 120 80 1c 00
        E 0 80 61 00
        E 0 90 1d 60
        E 0 90 61 60
        E 0 90 19 60
        E 0 90 55 60
        E 120 80 1d 00
        E 0 80 61 00
        E 0 80 55 00
        E 0 90 1c 60
        E 0 90 61 60
        E 120 80 19 00
        E 0 80 1c 00
        E 0 80 61 00
        E 0 90 18 60
        E 0 90 1d 60
        E 0 90 60 60
        E 0 90 61 60
        E 0 90 54 60
        E 0 90 55 60
        E 0 90 49 60
        E 0 90 3d 60
        E 120 80 18 00
        E 0 80 1d 00
        E 0 80 60 00
        E 0 80 61 00
        E 0 80 54 00
        E 0 80 55 00
        E 0 80 49 00
        E 0 90 1c 60
        E 0 90 61 60
        E 0 80 3d 00
        E 120 80 1c 00
        E 0 80 61 00
        E 0 90 19 60
        E 0 90 1d 60
        E 0 90 61 60
        E 0 90 55 60
        E 120 80 1d 00
        E 0 80 61 00
        E 0 80 55 00
        E 0 90 1c 60
        E 0 90 61 60
        E 120 80 19 00
        E 0 80 1c 00
        E 0 80 61 00
        E 0 90 18 60
        E 0 90 1b 60
        E 0 90 60 60
        E 0 90 61 60
        E 0 90 54 60
        E 0 90 55 60
        E 0 90 49 60
        E 0 90 3d 60
        E 120 80 18 00
        E 0 80 1b 00
        E 0 80 60 00
        E 0 80 61 00
        E 0 80 54 00
        E 0 80 55 00
        E 0 80 49 00
        E 0 90 1c 60
        E 0 90 61 60
        E 0 80 3d 00
        E 120 80 1c 00
        E 0 80 61 00
        E 0 90 19 60
        E 0 90 1d 60
        E 0 90 61 60
        E 0 90 55 60
        E 120 80 1d 00
        E 0 80 61 00
        E 0 80 55 00
        E 0 90 1c 60
        E 0 90 61 60
        E 120 80 19 00
        E 0 80 1c 00
        E 0 80 61 00
        E 0 90 18 60
        E 0 90 1d 60
        E 0 90 60 60
        E 0 90 61 60
        E 0 90 54 60
        E 0 90 55 60
        E 0 90 49 60
        E 0 90 3d 60
        E 120 80 18 00
        E 0 80 1d 00
        E 0 80 60 00
        E 0 80 61 00
        E 0 80 54 00
        E 0 80 55 00
        E 0 80 49 00
        E 0 90 1c 60
        E 0 90 61 60
        E 0 80 3d 00
        E 120 80 1c 00
        E 0 80 61 00
        E 0 90 19 60
        E 0 90 1d 60
        E 0 90 61 60
        E 0 90 55 60
        E 120 80 1d 00
        E 0 80 61 00
        E 0 80 55 00
        E 0 90 1c 60
        E 0 90 61 60
        E 120 80 19 00
        E 0 80 1c 00
        E 0 80 61 00
        E 0 90 18 60
        E 0 90 1d 60
        E 0 90 60 60
        E 0 90 61 60
        E 0 90 54 60
        E 0 90 55 60
        E 0 90 49 60
        E 0 90 3d 60
        E 120 80 18 00
        E 0 80 1d 00
        E 0 80 60 00
        E 0 80 61 00
        E 0 80 54 00
        E 0 80 55 00
        E 0 80 49 00
        E 0 90 1c 60
        E 0 90 61 60
        E 0 80 3d 00
        E 120 80 1c 00
        E 0 80 61 00
        E 0 90 19 60
        E 0 90 1d 60
        E 0 90 61 60
        E 0 90 55 60
        E 120 80 1d 00
        E 0 80 61 00
        E 0 80 55 00
        E 0 90 1c 60
        E 0 90 61 60
        E 120 80 19 00
        E 0 80 1c 00
        E 0 80 61 00
        E 0 90 18 60
        E 0 90 1d 60
        E 0 90 60 60
        E 0 90 61 60
        E 0 90 54 60
        E 0 90 55 60
        E 0 90 49 60
        E 0 90 3d 60
        E 120 80 18 00
        E 0 80 1d 00
        E 0 80 60 00
        E 0 80 61 00
        E 0 80 54 00
        E 0 80 55 00
        E 0 80 49 00
        E 0 90 1c 60
        E 0 90 61 60
        E 0 80 3d 00
        E 120 80 1c 00
        E 0 80 61 00
        E 0 90 19 60
        E 0 90 1d 60
        E 0 90 61 60
        E 0 90 55 60
        E 120 80 1d 00
        E 0 80 61 00
        E 0 80 55 00
        E 0 90 1c 60
        E 0 90 61 60
        E 120 80 19 00
        E 0 80 1c 00
        E 0 80 61 00
        E 0 90 18 60
        E 0 90 1b 60
        E 0 90 60 60
        E 0 90 61 60
        E 0 90 78 60
        E 0 90 79 60
        E 0 90 7a 60
        E 0 90 7b 60
        E 0 90 7c 60
        E 0 90 54 60
        E 0 90 55 60
        E 0 90 49 60
        E 0 90 3d 60
        E 120 80 18 00
        E 0 80 1b 00
        E 0 80 60 00
        E 0 80 61 00
        E 0 80 54 00
        E 0 80 55 00
        E 0 80 49 00
        E 0 90 1c 60
        E 0 90 61 60
        E 0 80 3d 00
        E 120 80 1c 00
        E 0 80 61 00
        E 0 90 19 60
        E 0 90 1d 60
        E 0 90 61 60
        E 0 90 55 60
        E 120 80 1d 00
        E 0 80 61 00
        E 0 80 55 00
        E 0 90 1c 60
        E 0 90 61 60
        E 120 80 19 00
        E 0 80 1c 00
        E 0 80 61 00
        E 0 90 18 60
        E 0 90 1d 60
        E 0 90 60 60
        E 0 90 61 60
        E 0 90 54 60
        E 0 90 55 60
        E 0 90 49 60
        E 0 90 3d 60
        E 120 80 18 00
        E 0 80 1d 00
        E 0 80 60 00
        E 0 80 61 00
        E 0 80 54 00
        E 0 80 55 00
        E 0 80 49 00
        E 0 90 1c 60
        E 0 90 61 60
        E 0 80 3d 00
        E 120 80 1c 00
        E 0 80 61 00
        E 0 90 19 60
        E 0 90 1d 60
        E 0 90 61 60
        E 0 90 55 60
        E 120 80 1d 00
        E 0 80 61 00
        E 0 80 55 00
        E 0 90 1c 60
        E 0 90 61 60
        E 120 80 19 00
        E 0 80 1c 00
        E 0 80 61 00
        E 0 90 18 60
        E 0 90 1b 60
        E 0 90 60 60
        E 0 90 61 60
        E 0 90 54 60
        E 0 90 55 60
        E 0 90 49 60
        E 0 90 3d 60
        E 120 80 18 00
        E 0 80 1b 00
        E 0 80 60 00
        E 0 80 61 00
        E 0 80 54 00
        E 0 80 55 00
        E 0 80 49 00
        E 0 90 1c 60
        E 0 90 61 60
        E 0 80 3d 00
        E 120 80 1c 00
        E 0 80 61 00
        E 0 90 19 60
        E 0 90 1d 60
        E 0 90 61 60
        E 0 90 55 60
        E 120 80 1d 00
        E 0 80 61 00
        E 0 80 55 00
        E 0 90 1c 60
        E 0 90 61 60
        E 120 80 19 00
        E 0 80 1c 00
        E 0 80 61 00
        E 0 90 18 60
        E 0 90 1b 60
        E 0 90 60 60
        E 0 90 61 60
        E 0 90 54 60
        E 0 90 55 60
        E 0 90 49 60
        E 0 90 3d 60
        E 120 80 18 00
        E 0 80 1b 00
        E 0 80 60 00
        E 0 80 61 00
        E 0 80 54 00
        E 0 80 55 00
        E 0 80 49 00
        E 0 90 1c 60
        E 0 90 61 60
        E 0 80 3d 00
        E 120 80 1c 00
        E 0 80 61 00
        E 0 90 19 60
        E 0 90 1d 60
        E 0 90 61 60
        E 0 90 55 60
        E 120 80 1d 00
        E 0 80 61 00
        E 0 80 55 00
        E 0 90 1c 60
        E 0 90 61 60
        E 120 80 78 00
        E 0 80 79 00
        E 0 80 7a 00
        E 0 80 7b 00
        E 0 80 7c 00
        E 0 80 19 00
        E 0 80 1c 00
        E 0 80 61 00
        E 0 90 18 60
        E 0 90 1b 60
        E 0 90 60 60
        E 0 90 61 60
        E 0 90 54 60
        E 0 90 55 60
        E 0 90 49 60
        E 0 90 3d 60
        E 120 80 18 00
        E 0 80 1b 00
        E 0 80 60 00
        E 0 80 61 00
        E 0 80 54 00
        E 0 80 55 00
        E 0 80 49 00
        E 0 90 1c 60
        E 0 90 61 60
        E 0 80 3d 00
        E 120 80 1c 00
        E 0 80 61 00
        E 0 90 19 60
        E 0 90 1d 60
        E 0 90 61 60
        E 0 90 55 60
        E 120 80 1d 00
        E 0 80 61 00
        E 0 80 55 00
        E 0 90 1c 60
        E 0 90 61 60
        E 120 80 19 00
        E 0 80 1c 00
        E 0 80 61 00
        E 0 90 18 60
        E 0 90 1d 60
        E 0 90 60 60
        E 0 90 61 60
        E 0 90 54 60
        E 0 90 55 60
        E 0 90 49 60
        E 0 90 3d 60
        E 120 80 18 00
        E 0 80 1d 00
        E 0 80 60 00
        E 0 80 61 00
        E 0 80 54 00
        E 0 80 55 00
        E 0 80 49 00
        E 0 90 1c 60
        E 0 90 61 60
        E 0 80 3d 00
        E 120 80 1c 00
        E 0 80 61 00
        E 0 90 19 60
        E 0 90 1d 60
        E 0 90 61 60
        E 0 90 55 60
        E 120 80 1d 00
        E 0 80 61 00
        E 0 80 55 00
        E 0 90 1c 60
        E 0 90 61 60
        E 120 80 19 00
        E 0 80 1c 00
        E 0 80 61 00
        E 0 90 18 60
        E 0 90 1d 60
        E 0 90 60 60
        E 0 90 61 60
        E 0 90 54 60
        E 0 90 55 60
        E 0 90 49 60
        E 0 90 3d 60
        E 120 80 18 00
        E 0 80 1d 00
        E 0 80 60 00
        E 0 80 61 00
        E 0 80 54 00
        E 0 80 55 00
        E 0 80 49 00
        E 0 90 1c 60
        E 0 90 61 60
        E 0 80 3d 00
        E 120 80 1c 00
        E 0 80 61 00
        E 0 90 19 60
        E 0 90 1d 60
        E 0 90 61 60
        E 0 90 55 60
        E 120 80 1d 00
        E 0 80 61 00
        E 0 80 55 00
        E 0 90 1c 60
        E 0 90 61 60
        E 120 80 19 00
        E 0 80 1c 00
        E 0 80 61 00
        E 0 90 18 60
        E 0 90 1d 60
        E 0 90 60 60
        E 0 90 61 60
        E 0 90 54 60
        E 0 90 55 60
        E 0 90 49 60
        E 0 90 3d 60
        E 120 80 18 00
        E 0 80 1d 00
        E 0 80 60 00
        E 0 80 61 00
        E 0 80 54 00
        E 0 80 55 00
        E 0 80 49 00
        E 0 90 1c 60
        E 0 90 61 60
        E 0 80 3d 00
        E 120 80 1c 00
        E 0 80 61 00
        E 0 90 19 60
        E 0 90 1d 60
        E 0 90 61 60
        E 0 90 55 60
        E 120 80 1d 00
        E 0 80 61 00
        E 0 80 55 00
        E 0 90 1c 60
        E 0 90 61 60
        E 120 80 19 00
        E 0 80 1c 00
        E 0 80 61 00
        E 0 90 18 60
        E 0 90 1b 60
        E 0 90 60 60
        E 0 90 61 60
        E 0 90 54 60
        E 0 90 55 60
        E 0 90 49 60
        E 0 90 3d 60
        E 120 80 18 00
        E 0 80 1b 00
        E 0 80 60 00
        E 0 80 61 00
        E 0 80 54 00
        E 0 80 55 00
        E 0 80 49 00
        E 0 90 1c 60
        E 0 90 61 60
        E 0 80 3d 00
        E 120 80 1c 00
        E 0 80 61 00
        E 0 90 19 60
        E 0 90 1d 60
        E 0 90 61 60
        E 0 90 55 60
        E 120 80 1d 00
        E 0 80 61 00
        E 0 80 55 00
        E 0 90 1c 60
        E 0 90 61 60
        E 120 80 19 00
        E 0 80 1c 00
        E 0 80 61 00
        E 0 90 18 60
        E 0 90 1d 60
        E 0 90 60 60
        E 0 90 61 60
        E 0 90 54 60
        E 0 90 55 60
        E 0 90 49 60
        E 0 90 3d 60
        E 120 80 18 00
        E 0 80 1d 00
        E 0 80 60 00
        E 0 80 61 00
        E 0 80 54 00
        E 0 80 55 00
        E 0 80 49 00
        E 0 90 1c 60
        E 0 90 61 60
        E 0 80 3d 00
        E 120 80 1c 00
        E 0 80 61 00
        E 0 90 19 60
        E 0 90 1d 60
        E 0 90 61 60
        E 0 90 55 60
        E 120 80 1d 00
        E 0 80 61 00
        E 0 80 55 00
        E 0 90 1c 60
        E 0 90 61 60
        E 120 80 19 00
        E 0 80 1c 00
        E 0 80 61 00
        E 0 90 18 60
        E 0 90 1d 60
        E 0 90 60 60
        E 0 90 61 60
        E 0 90 54 60
        E 0 90 55 60
        E 0 90 49 60
        E 0 90 3d 60
        E 120 80 18 00
        E 0 80 1d 00
        E 0 80 60 00
        E 0 80 61 00
        E 0 80 54 00
        E 0 80 55 00
        E 0 80 49 00
        E 0 90 1c 60
        E 0 90 61 60
        E 0 80 3d 00
        E 120 80 1c 00
        E 0 80 61 00
        E 0 90 19 60
        E 0 90 1d 60
        E 0 90 61 60
        E 0 90 55 60
        E 120 80 1d 00
        E 0 80 61 00
        E 0 80 55 00
        E 0 90 1c 60
        E 0 90 61 60
        E 120 80 19 00
        E 0 80 1c 00
        E 0 80 61 00
        E 0 90 18 60
        E 0 90 1d 60
        E 0 90 60 60
        E 0 90 61 60
        E 0 90 54 60
        E 0 90 55 60
        E 0 90 49 60
        E 0 90 3d 60
        E 120 80 18 00
        E 0 80 1d 00
        E 0 80 60 00
        E 0 80 61 00
        E 0 80 54 00
        E 0 80 55 00
        E 0 80 49 00
        E 0 90 1c 60
        E 0 90 61 60
        E 0 80 3d 00
        E 120 80 1c 00
        E 0 80 61 00
        E 0 90 19 60
        E 0 90 1d 60
        E 0 90 61 60
        E 0 90 55 60
        E 120 80 1d 00
        E 0 80 61 00
        E 0 80 55 00
        E 0 90 1c 60
        E 0 90 61 60
        E 120 80 19 00
        E 0 80 1c 00
        E 0 80 61 00
        E 0 90 18 60
        E 0 90 1b 60
        E 0 90 60 60
        E 0 90 61 60
        E 0 90 54 60
        E 0 90 55 60
        E 0 90 49 60
        E 0 90 3d 60
        E 120 80 18 00
        E 0 80 1b 00
        E 0 80 60 00
        E 0 80 61 00
        E 0 80 54 00
        E 0 80 55 00
        E 0 80 49 00
        E 0 90 1c 60
        E 0 90 61 60
        E 0 80 3d 00
        E 120 80 1c 00
        E 0 80 61 00
        E 0 90 19 60
        E 0 90 1d 60
        E 0 90 61 60
        E 0 90 55 60
        E 120 80 1d 00
        E 0 80 61 00
        E 0 80 55 00
        E 0 90 1c 60
        E 0 90 61 60
        E 120 80 19 00
        E 0 80 1c 00
        E 0 80 61 00
        E 0 90 18 60
        E 0 90 1d 60
        E 0 90 60 60
        E 0 90 61 60
        E 0 90 54 60
        E 0 90 55 60
        E 0 90 49 60
        E 0 90 3d 60
        E 120 80 18 00
        E 0 80 1d 00
        E 0 80 60 00
        E 0 80 61 00
        E 0 80 54 00
        E 0 80 55 00
        E 0 80 49 00
        E 0 90 1c 60
        E 0 90 61 60
        E 0 80 3d 00
        E 120 80 1c 00
        E 0 80 61 00
        E 0 90 1d 60
        E 0 90 61 60
        E 0 90 19 60
        E 0 90 55 60
        E 120 80 1d 00
        E 0 80 61 00
        E 0 80 55 00
        E 0 90 1c 60
        E 0 90 61 60
        E 120 80 19 00
        E 0 80 1c 00
        E 0 80 61 00
        E 0 90 18 60
        E 0 90 1d 60
        E 0 90 60 60
        E 0 90 61 60
        E 0 90 54 60
        E 0 90 55 60
        E 0 90 49 60
        E 0 90 3d 60
        E 120 80 18 00
        E 0 80 1d 00
        E 0 80 60 00
        E 0 80 61 00
        E 0 80 54 00
        E 0 80 55 00
        E 0 80 49 00
        E 0 90 1c 60
        E 0 90 61 60
        E 0 80 3d 00
        E 120 80 1c 00
        E 0 80 61 00
        E 0 90 19 60
        E 0 90 1d 60
        E 0 90 61 60
        E 0 90 55 60
        E 120 80 1d 00
        E 0 80 61 00
        E 0 80 55 00
        E 0 90 1c 60
        E 0 90 61 60
        E 120 80 19 00
        E 0 80 1c 00
        E 0 80 61 00
        E 0 90 18 60
        E 0 90 1d 60
        E 0 90 60 60
        E 0 90 61 60
        E 0 90 54 60
        E 0 90 55 60
        E 0 90 49 60
        E 0 90 3d 60
        E 120 80 18 00
        E 0 80 1d 00
        E 0 80 60 00
        E 0 80 61 00
        E 0 80 54 00
        E 0 80 55 00
        E 0 80 49 00
        E 0 90 1c 60
        E 0 90 61 60
        E 0 80 3d 00
        E 120 80 1c 00
        E 0 80 61 00
        E 0 90 19 60
        E 0 90 1d 60
        E 0 90 61 60
        E 0 90 55 60
        E 120 80 1d 00
        E 0 80 61 00
        E 0 80 55 00
        E 0 90 1c 60
        E 0 90 61 60
        E 120 80 19 00
        E 0 80 1c 00
        E 0 80 61 00
        E 0 90 18 60
        E 0 90 1b 60
        E 0 90 60 60
        E 0 90 61 60
        E 0 90 74 60
        E 0 90 54 60
        E 0 90 55 60
        E 0 90 49 60
        E 0 90 3d 60
        E 120 80 18 00
        E 0 80 1b 00
        E 0 80 60 00
        E 0 80 61 00
        E 0 80 54 00
        E 0 80 55 00
        E 0 80 49 00
        E 0 90 1c 60
        E 0 90 61 60
        E 0 80 3d 00
        E 120 80 1c 00
        E 0 80 61 00
        E 0 90 1d 60
        E 0 90 61 60
        E 0 90 19 60
        E 0 90 55 60
        E 120 80 1d 00
        E 0 80 61 00
        E 0 80 55 00
        E 0 90 1c 60
        E 0 90 61 60
        E 120 80 19 00
        E 0 80 1c 00
        E 0 80 61 00
        E 0 90 18 60
        E 0 90 1d 60
        E 0 90 60 60
        E 0 90 61 60
        E 0 90 54 60
        E 0 90 55 60
        E 0 90 49 60
        E 0 90 3d 60
        E 120 80 18 00
        E 0 80 1d 00
        E 0 80 60 00
        E 0 80 61 00
        E 0 80 54 00
        E 0 80 55 00
        E 0 80 49 00
        E 0 90 1c 60
        E 0 90 61 60
        E 0 80 3d 00
        E 120 80 1c 00
        E 0 80 61 00
        E 0 90 19 60
        E 0 90 1d 60
        E 0 90 61 60
        E 0 90 55 60
        E 120 80 1d 00
        E 0 80 61 00
        E 0 80 55 00
        E 0 90 1c 60
        E 0 90 61 60
        E 120 80 19 00
        E 0 80 1c 00
        E 0 80 61 00
        E 0 90 18 60
        E 0 90 1b 60
        E 0 90 60 60
        E 0 90 61 60
        E 0 90 54 60
        E 0 90 55 60
        E 0 90 49 60
        E 0 90 3d 60
        E 120 80 18 00
        E 0 80 1b 00
        E 0 80 60 00
        E 0 80 61 00
        E 0 80 54 00
        E 0 80 55 00
        E 0 80 49 00
        E 0 90 1c 60
        E 0 90 61 60
        E 0 80 3d 00
        E 120 80 1c 00
        E 0 80 61 00
        E 0 90 19 60
        E 0 90 1d 60
        E 0 90 61 60
        E 0 90 55 60
        E 120 80 1d 00
        E 0 80 61 00
        E 0 80 55 00
        E 0 90 1c 60
        E 0 90 61 60
        E 120 80 19 00
        E 0 80 1c 00
        E 0 80 61 00
        E 0 90 18 60
        E 0 90 1b 60
        E 0 90 60 60
        E 0 90 61 60
        E 0 90 54 60
        E 0 90 55 60
        E 0 90 49 60
        E 0 90 3d 60
        E 120 80 18 00
        E 0 80 1b 00
        E 0 80 60 00
        E 0 80 61 00
        E 0 80 54 00
        E 0 80 55 00
        E 0 80 49 00
        E 0 90 1c 60
        E 0 90 61 60
        E 0 80 3d 00
        E 120 80 1c 00
        E 0 80 61 00
        E 0 90 19 60
        E 0 90 1d 60
        E 0 90 61 60
        E 0 90 55 60
        E 120 80 1d 00
        E 0 80 61 00
        E 0 80 55 00
        E 0 90 1c 60
        E 0 90 61 60
        E 120 80 74 00
        E 0 80 19 00
        E 0 80 1c 00
        E 0 80 61 00
        E 0 90 18 60
        E 0 90 1b 60
        E 0 90 60 60
        E 0 90 61 60
        E 0 90 54 60
        E 0 90 55 60
        E 0 90 49 60
        E 0 90 3d 60
        E 120 80 18 00
        E 0 80 1b 00
        E 0 80 60 00
        E 0 80 61 00
        E 0 80 54 00
        E 0 80 55 00
        E 0 80 49 00
        E 0 90 1c 60
        E 0 90 61 60
        E 0 80 3d 00
        E 120 80 1c 00
        E 0 80 61 00
        E 0 90 19 60
        E 0 90 1d 60
        E 0 90 61 60
        E 0 90 55 60
        E 120 80 1d 00
        E 0 80 61 00
        E 0 80 55 00
        E 0 90 1c 60
        E 0 90 61 60
        E 120 80 19 00
        E 0 80 1c 00
        E 0 80 61 00
        E 0 90 18 60
        E 0 90 1d 60
        E 0 90 60 60
        E 0 90 61 60
        E 0 90 54 60
        E 0 90 55 60
        E 0 90 49 60
        E 0 90 3d 60
        E 120 80 18 00
        E 0 80 1d 00
        E 0 80 60 00
        E 0 80 61 00
        E 0 80 54 00
        E 0 80 55 00
        E 0 80 49 00
        E 0 90 1c 60
        E 0 90 61 60
        E 0 80 3d 00
        E 120 80 1c 00
        E 0 80 61 00
        E 0 90 19 60
        E 0 90 1d 60
        E 0 90 61 60
        E 0 90 55 60
        E 120 80 1d 00
        E 0 80 61 00
        E 0 80 55 00
        E 0 90 1c 60
        E 0 90 61 60
        E 120 80 19 00
        E 0 80 1c 00
        E 0 80 61 00
        E 0 90 18 60
        E 0 90 1d 60
        E 0 90 60 60
        E 0 90 61 60
        E 0 90 54 60
        E 0 90 55 60
        E 0 90 49 60
        E 0 90 3d 60
        E 120 80 18 00
        E 0 80 1d 00
        E 0 80 60 00
        E 0 80 61 00
        E 0 80 54 00
        E 0 80 55 00
        E 0 80 49 00
        E 0 90 1c 60
        E 0 90 61 60
        E 0 80 3d 00
        E 120 80 1c 00
        E 0 80 61 00
        E 0 90 19 60
        E 0 90 1d 60
        E 0 90 61 60
        E 0 90 55 60
        E 120 80 1d 00
        E 0 80 61 00
        E 0 80 55 00
        E 0 90 1c 60
        E 0 90 61 60
        E 120 80 19 00
        E 0 80 1c 00
        E 0 80 61 00
        E 0 90 18 60
        E 0 90 1d 60
        E 0 90 60 60
        E 0 90 61 60
        E 0 90 54 60
        E 0 90 55 60
        E 0 90 49 60
        E 0 90 3d 60
        E 120 80 18 00
        E 0 80 1d 00
        E 0 80 60 00
        E 0 80 61 00
        E 0 80 54 00
        E 0 80 55 00
        E 0 80 49 00
        E 0 90 1c 60
        E 0 90 61 60
        E 0 80 3d 00
        E 120 80 1c 00
        E 0 80 61 00
        E 0 90 19 60
        E 0 90 1d 60
        E 0 90 61 60
        E 0 90 55 60
        E 120 80 1d 00
        E 0 80 61 00
        E 0 80 55 00
        E 0 90 1c 60
        E 0 90 61 60
        E 120 80 19 00
        E 0 80 1c 00
        E 0 80 61 00
        E 0 90 18 60
        E 0 90 1d 60
        E 0 90 60 60
        E 0 90 61 60
        E 0 90 54 60
        E 0 90 55 60
        E 0 90 49 60
        E 0 90 3d 60
        E 120 80 18 00
        E 0 80 1d 00
        E 0 80 60 00
        E 0 80 61 00
        E 0 80 54 00
        E 0 80 55 00
        E 0 80 49 00
        E 0 90 1c 60
        E 0 90 61 60
        E 0 80 3d 00
        E 120 80 1c 00
        E 0 80 61 00
        E 0 90 19 60
        E 0 90 1d 60
        E 0 90 61 60
        E 0 90 55 60
        E 120 80 1d 00
        E 0 80 61 00
        E 0 80 55 00
        E 0 90 1c 60
        E 0 90 61 60
        E 120 80 19 00
        E 0 80 1c 00
        E 0 80 61 00
        E 0 90 18 60
        E 0 90 1d 60
        E 0 90 60 60
        E 0 90 61 60
        E 0 90 54 60
        E 0 90 55 60
        E 0 90 49 60
        E 0 90 3d 60
        E 120 80 18 00
        E 0 80 1d 00
        E 0 80 60 00
        E 0 80 61 00
        E 0 80 54 00
        E 0 80 55 00
        E 0 80 49 00
        E 0 90 1c 60
        E 0 90 61 60
        E 0 80 3d 00
        E 120 80 1c 00
        E 0 80 61 00
        E 0 90 19 60
        E 0 90 1d 60
        E 0 90 61 60
        E 0 90 55 60
        E 120 80 1d 00
        E 0 80 61 00
        E 0 80 55 00
        E 0 90 1c 60
        E 0 90 61 60
        E 120 80 19 00
        E 0 80 1c 00
        E 0 80 61 00
        E 0 90 18 60
        E 0 90 1d 60
        E 0 90 60 60
        E 0 90 61 60
        E 0 90 54 60
        E 0 90 55 60
        E 0 90 49 60
        E 0 90 3d 60
        E 120 80 18 00
        E 0 80 1d 00
        E 0 80 60 00
        E 0 80 61 00
        E 0 80 54 00
        E 0 80 55 00
        E 0 80 49 00
        E 0 90 1c 60
        E 0 90 61 60
        E 0 80 3d 00
        E 120 80 1c 00
        E 0 80 61 00
        E 0 90 19 60
        E 0 90 1d 60
        E 0 90 61 60
        E 0 90 55 60
        E 120 80 1d 00
        E 0 80 61 00
        E 0 80 55 00
        E 0 90 1c 60
        E 0 90 61 60
        E 120 80 19 00
        E 0 80 1c 00
        E 0 80 61 00
        E 0 90 18 60
        E 0 90 1d 60
        E 0 90 60 60
        E 0 90 61 60
        E 0 90 54 60
        E 0 90 55 60
        E 0 90 49 60
        E 0 90 3d 60
        E 120 80 18 00
        E 0 80 1d 00
        E 0 80 60 00
        E 0 80 61 00
        E 0 80 54 00
        E 0 80 55 00
        E 0 80 49 00
        E 0 90 1c 60
        E 0 90 61 60
        E 0 80 3d 00
        E 120 80 1c 00
        E 0 80 61 00
        E 0 90 19 60
        E 0 90 1d 60
        E 0 90 61 60
        E 0 90 55 60
        E 120 80 1d 00
        E 0 80 61 00
        E 0 80 55 00
        E 0 90 1c 60
        E 0 90 61 60
        E 120 80 19 00
        E 0 80 1c 00
        E 0 80 61 00
        E 0 90 18 60
        E 0 90 1b 60
        E 0 90 60 60
        E 0 90 61 60
        E 0 90 54 60
        E 0 90 55 60
        E 0 90 49 60
        E 0 90 3d 60
        E 120 80 18 00
        E 0 80 1b 00
        E 0 80 60 00
        E 0 80 61 00
        E 0 80 54 00
        E 0 80 55 00
        E 0 80 49 00
        E 0 90 1c 60
        E 0 90 61 60
        E 0 80 3d 00
        E 120 80 1c 00
        E 0 80 61 00
        E 0 90 19 60
        E 0 90 1d 60
        E 0 90 61 60
        E 0 90 55 60
        E 120 80 1d 00
        E 0 80 61 00
        E 0 80 55 00
        E 0 90 1c 60
        E 0 90 61 60
        E 120 80 19 00
        E 0 80 1c 00
        E 0 80 61 00
        E 0 90 18 60
        E 0 90 1d 60
        E 0 90 60 60
        E 0 90 61 60
        E 0 90 54 60
        E 0 90 55 60
        E 0 90 49 60
        E 0 90 3d 60
        E 120 80 18 00
        E 0 80 1d 00
        E 0 80 60 00
        E 0 80 61 00
        E 0 80 54 00
        E 0 80 55 00
        E 0 80 49 00
        E 0 90 1c 60
        E 0 90 61 60
        E 0 80 3d 00
        E 120 80 1c 00
        E 0 80 61 00
        E 0 90 19 60
        E 0 90 1b 60
        E 0 90 61 60
        E 0 90 55 60
        E 120 80 1b 00
        E 0 80 61 00
        E 0 80 55 00
        E 0 90 1c 60
        E 0 90 61 60
        E 120 80 19 00
        E 0 80 1c 00
        E 0 80 61 00
        E 0 90 18 60
        E 0 90 1d 60
        E 0 90 60 60
        E 0 90 61 60
        E 0 90 54 60
        E 0 90 55 60
        E 0 90 49 60
        E 0 90 3d 60
        E 120 80 18 00
        E 0 80 1d 00
        E 0 80 60 00
        E 0 80 61 00
        E 0 80 54 00
        E 0 80 55 00
        E 0 80 49 00
        E 0 90 1c 60
        E 0 90 61 60
        E 0 80 3d 00
        E 120 80 1c 00
        E 0 80 61 00
        E 0 90 19 60
        E 0 90 1d 60
        E 0 90 61 60
        E 0 90 55 60
        E 120 80 1d 00
        E 0 80 61 00
        E 0 80 55 00
        E 0 90 1c 60
        E 0 90 61 60
        E 120 80 19 00
        E 0 80 1c 00
        E 0 80 61 00
        E 0 90 18 60
        E 0 90 1b 60
        E 0 90 60 60
        E 0 90 61 60
        E 0 90 54 60
        E 0 90 55 60
        E 0 90 49 60
        E 0 90 3d 60
        E 120 80 18 00
        E 0 80 1b 00
        E 0 80 60 00
        E 0 80 61 00
        E 0 80 54 00
        E 0 80 55 00
        E 0 80 49 00
        E 0 90 1c 60
        E 0 90 61 60
        E 0 80 3d 00
        E 120 80 1c 00
        E 0 80 61 00
        E 0 90 19 60
        E 0 90 1d 60
        E 0 90 61 60
        E 0 90 55 60
        E 120 80 1d 00
        E 0 80 61 00
        E 0 80 55 00
        E 0 90 1c 60
        E 0 90 61 60
        E 120 80 19 00
        E 0 80 1c 00
        E 0 80 61 00
        E 0 90 18 60
        E 0 90 1b 60
        E 0 90 60 60
        E 0 90 61 60
        E 0 90 78 60
        E 0 90 79 60
        E 0 90 7a 60
        E 0 90 7b 60
        E 0 90 7c 60
        E 0 90 54 60
        E 0 90 55 60
        E 0 90 49 60
        E 0 90 3d 60
        E 120 80 18 00
        E 0 80 1b 00
        E 0 80 60 00
        E 0 80 61 00
        E 0 80 54 00
        E 0 80 55 00
        E 0 80 49 00
        E 0 90 1c 60
        E 0 90 61 60
        E 0 80 3d 00
        E 120 80 1c 00
        E 0 80 61 00
        E 0 90 19 60
        E 0 90 1d 60
        E 0 90 61 60
        E 0 90 55 60
        E 120 80 1d 00
        E 0 80 61 00
        E 0 80 55 00
        E 0 90 1c 60
        E 0 90 61 60
        E 120 80 19 00
        E 0 80 1c 00
        E 0 80 61 00
        E 0 90 18 60
        E 0 90 1b 60
        E 0 90 60 60
        E 0 90 61 60
        E 0 90 54 60
        E 0 90 55 60
        E 0 90 49 60
        E 0 90 3d 60
        E 120 80 18 00
        E 0 80 1b 00
        E 0 80 60 00
        E 0 80 61 00
        E 0 80 54 00
        E 0 80 55 00
        E 0 80 49 00
        E 0 90 1c 60
        E 0 90 61 60
        E 0 80 3d 00
        E 120 80 1c 00
        E 0 80 61 00
        E 0 90 19 60
        E 0 90 1d 60
        E 0 90 61 60
        E 0 90 55 60
        E 120 80 1d 00
        E 0 80 61 00
        E 0 80 55 00
        E 0 90 1c 60
        E 0 90 61 60
        E 120 80 19 00
        E 0 80 1c 00
        E 0 80 61 00
        E 0 90 18 60
        E 0 90 1b 60
        E 0 90 60 60
        E 0 90 61 60
        E 0 90 54 60
        E 0 90 55 60
        E 0 90 49 60
        E 0 90 3d 60
        E 120 80 18 00
        E 0 80 1b 00
        E 0 80 60 00
        E 0 80 61 00
        E 0 80 54 00
        E 0 80 55 00
        E 0 80 49 00
        E 0 90 1a 60
        E 0 90 61 60
        E 0 80 3d 00
        E 120 80 1a 00
        E 0 80 61 00
        E 0 90 19 60
        E 0 90 1b 60
        E 0 90 61 60
        E 0 90 55 60
        E 120 80 1b 00
        E 0 80 61 00
        E 0 80 55 00
        E 0 90 1a 60
        E 0 90 61 60
        E 120 80 19 00
        E 0 80 1a 00
        E 0 80 61 00
        E 0 90 18 60
        E 0 90 1b 60
        E 0 90 60 60
        E 0 90 61 60
        E 0 90 54 60
        E 0 90 55 60
        E 0 90 49 60
        E 0 90 3d 60
        E 120 80 18 00
        E 0 80 1b 00
        E 0 80 60 00
        E 0 80 61 00
        E 0 80 54 00
        E 0 80 55 00
        E 0 80 49 00
        E 0 90 2e 60
        E 0 90 62 60
        E 0 90 6e 60
        E 0 80 3d 00
        E 120 80 2e 00
        E 0 80 62 00
        E 0 80 6e 00
        E 0 90 19 60
        E 0 90 31 60
        E 0 90 63 60
        E 0 90 57 60
        E 0 90 6f 60
        E 120 80 31 00
        E 0 80 63 00
        E 0 80 57 00
        E 0 80 6f 00
        E 0 90 30 60
        E 0 90 63 60
        E 0 90 6f 60
        E 120 80 78 00
        E 0 80 79 00
        E 0 80 7a 00
        E 0 80 7b 00
        E 0 80 7c 00
        E 0 80 19 00
        E 0 80 30 00
        E 0 80 63 00
        E 0 80 6f 00
        E 0 90 18 60
        E 0 90 26 60
        E 0 90 60 60
        E 0 90 64 60
        E 0 90 54 60
        E 0 90 58 60
        E 0 90 48 60
        E 0 90 4c 60
        E 0 90 40 60
        <X 120 0
          /wFbaWRsZV0=
        >
        E 0 80 18 00
        E 0 80 26 00
        E 0 80 60 00
        E 0 80 64 00
        E 0 80 54 00
        E 0 80 58 00
        E 0 80 48 00
        E 0 80 4c 00
        E 0 80 40 00
        E 5640 90 78 60
        E 0 90 79 60
        E 0 90 7a 60
        E 0 90 7b 60
        E 0 90 7c 60
        E 1920 80 78 00
        E 0 80 79 00
        E 0 80 7a 00
        E 0 80 7b 00
        E 0 80 7c 00
        E 5760 90 78 60
        E 0 90 79 60
        E 0 90 7a 60
        E 0 90 7b 60
        E 0 90 7c 60
        E 1680 90 19 60
        <X 240 0
          /wFbcGxheV0=
        >
        E 0 80 78 00
        E 0 80 79 00
        E 0 80 7a 00
        E 0 80 7b 00
        E 0 80 7c 00
        E 0 80 19 00
        E 0 90 18 60
        E 0 90 2a 60
        E 0 90 60 60
        E 0 90 63 60
        E 0 90 54 60
        E 0 90 57 60
        E 0 90 48 60
        E 0 90 4b 60
        E 0 90 3f 60
        E 120 80 18 00
        E 0 80 2a 00
        E 0 80 60 00
        E 0 80 63 00
        E 0 80 54 00
        E 0 80 57 00
        E 0 80 48 00
        E 0 80 4b 00
        E 0 80 3f 00
        E 120 90 19 60
        E 240 80 19 00
        E 0 90 2a 60
        E 0 90 63 60
        E 0 90 57 60
        E 0 90 4b 60
        E 0 90 3f 60
        E 120 80 2a 00
        E 0 80 63 00
        E 0 80 57 00
        E 0 80 4b 00
        E 0 80 3f 00
        E 120 90 19 60
        E 240 80 19 00
        E 0 90 18 60
        E 0 90 2a 60
        E 0 90 60 60
        E 0 90 63 60
        E 0 90 54 60
        E 0 90 57 60
        E 0 90 48 60
        E 0 90 4b 60
        E 0 90 3f 60
        E 120 80 18 00
        E 0 80 2a 00
        E 0 80 60 00
        E 0 80 63 00
        E 0 80 54 00
        E 0 80 57 00
        E 0 80 48 00
        E 0 80 4b 00
        E 0 80 3f 00
        E 120 90 19 60
        E 240 80 19 00
        E 0 90 2a 60
        E 0 90 63 60
        E 0 90 57 60
        E 0 90 4b 60
        E 0 90 3f 60
        E 120 80 2a 00
        E 0 80 63 00
        E 0 80 57 00
        E 0 80 4b 00
        E 0 80 3f 00
        E 120 90 19 60
        E 240 80 19 00
        E 0 90 18 60
        E 0 90 2a 60
        E 0 90 60 60
        E 0 90 63 60
        E 0 90 54 60
        E 0 90 57 60
        E 0 90 48 60
        E 0 90 4b 60
        E 0 90 3f 60
        E 120 80 18 00
        E 0 80 2a 00
        E 0 80 60 00
        E 0 80 63 00
        E 0 80 54 00
        E 0 80 57 00
        E 0 80 48 00
        E 0 80 4b 00
        E 0 80 3f 00
        E 120 90 19 60
        E 240 80 19 00
        E 0 90 2a 60
        E 0 90 63 60
        E 0 90 57 60
        E 0 90 4b 60
        E 0 90 3f 60
        E 120 80 2a 00
        E 0 80 63 00
        E 0 80 57 00
        E 0 80 4b 00
        E 0 80 3f 00
        E 120 90 19 60
        E 240 80 19 00
        E 0 90 18 60
        E 0 90 2a 60
        E 0 90 60 60
        E 0 90 63 60
        E 0 90 54 60
        E 0 90 57 60
        E 0 90 48 60
        E 0 90 4b 60
        E 0 90 3f 60
        E 120 80 18 00
        E 0 80 2a 00
        E 0 80 60 00
        E 0 80 63 00
        E 0 80 54 00
        E 0 80 57 00
        E 0 80 48 00
        E 0 80 4b 00
        E 0 80 3f 00
        E 120 90 19 60
        E 240 80 19 00
        E 0 90 2a 60
        E 0 90 63 60
        E 0 90 57 60
        E 0 90 4b 60
        E 0 90 3f 60
        E 120 80 2a 00
        E 0 80 63 00
        E 0 80 57 00
        E 0 80 4b 00
        E 0 80 3f 00
        E 120 90 19 60
        E 240 80 19 00
        E 0 90 18 60
        E 0 90 2a 60
        E 0 90 60 60
        E 0 90 63 60
        E 0 90 54 60
        E 0 90 57 60
        E 0 90 48 60
        E 0 90 4b 60
        E 0 90 3f 60
        E 120 80 18 00
        E 0 80 2a 00
        E 0 80 60 00
        E 0 80 63 00
        E 0 80 54 00
        E 0 80 57 00
        E 0 80 48 00
        E 0 80 4b 00
        E 0 80 3f 00
        E 120 90 19 60
        E 240 80 19 00
        E 0 90 2a 60
        E 0 90 63 60
        E 0 90 57 60
        E 0 90 4b 60
        E 0 90 3f 60
        E 120 80 2a 00
        E 0 80 63 00
        E 0 80 57 00
        E 0 80 4b 00
        E 0 80 3f 00
        E 120 90 19 60
        E 240 80 19 00
        E 0 90 18 60
        E 0 90 2a 60
        E 0 90 60 60
        E 0 90 63 60
        E 0 90 54 60
        E 0 90 57 60
        E 0 90 48 60
        E 0 90 4b 60
        E 0 90 3f 60
        E 120 80 18 00
        E 0 80 2a 00
        E 0 80 60 00
        E 0 80 63 00
        E 0 80 54 00
        E 0 80 57 00
        E 0 80 48 00
        E 0 80 4b 00
        E 0 80 3f 00
        E 120 90 19 60
        E 240 80 19 00
        E 0 90 2a 60
        E 0 90 63 60
        E 0 90 57 60
        E 0 90 4b 60
        E 0 90 3f 60
        E 120 80 2a 00
        E 0 80 63 00
        E 0 80 57 00
        E 0 80 4b 00
        E 0 80 3f 00
        E 120 90 19 60
        E 240 80 19 00
        E 0 90 18 60
        E 0 90 2a 60
        E 0 90 60 60
        E 0 90 63 60
        E 0 90 74 60
        E 0 90 54 60
        E 0 90 57 60
        E 0 90 48 60
        E 0 90 4b 60
        E 0 90 3f 60
        E 120 80 18 00
        E 0 80 2a 00
        E 0 80 60 00
        E 0 80 63 00
        E 0 80 54 00
        E 0 80 57 00
        E 0 80 48 00
        E 0 80 4b 00
        E 0 80 3f 00
        E 120 90 19 60
        E 240 80 19 00
        E 0 90 2a 60
        E 0 90 63 60
        E 0 90 57 60
        E 0 90 4b 60
        E 0 90 3f 60
        E 120 80 2a 00
        E 0 80 63 00
        E 0 80 57 00
        E 0 80 4b 00
        E 0 80 3f 00
        E 120 90 19 60
        E 240 80 19 00
        E 0 90 18 60
        E 0 90 2a 60
        E 0 90 60 60
        E 0 90 63 60
        E 0 90 54 60
        E 0 90 57 60
        E 0 90 48 60
        E 0 90 4b 60
        E 0 90 3f 60
        E 120 80 18 00
        E 0 80 2a 00
        E 0 80 60 00
        E 0 80 63 00
        E 0 80 54 00
        E 0 80 57 00
        E 0 80 48 00
        E 0 80 4b 00
        E 0 80 3f 00
        E 120 90 19 60
        E 240 90 1a 60
        E 0 90 1f 60
        E 0 90 61 60
        E 0 90 62 60
        E 0 90 55 60
        E 0 90 56 60
        E 0 90 49 60
        E 0 90 4a 60
        E 0 90 3d 60
        E 0 90 3e 60
        E 120 80 1a 00
        E 0 80 1f 00
        E 0 80 61 00
        E 0 80 62 00
        E 0 80 55 00
        E 0 80 56 00
        E 0 80 49 00
        E 0 80 4a 00
        E 0 80 3d 00
        E 0 80 3e 00
        E 120 90 18 60
        E 0 90 60 60
        E 0 90 54 60
        E 120 80 18 00
        E 0 80 60 00
        E 0 80 54 00
        E 120 80 19 00
        E 0 90 18 60
        E 0 90 2a 60
        E 0 90 60 60
        E 0 90 63 60
        E 0 90 54 60
        E 0 90 57 60
        E 0 90 48 60
        E 0 90 4b 60
        E 0 90 3f 60
        E 120 80 74 00
        E 0 80 18 00
        E 0 80 2a 00
        E 0 80 60 00
        E 0 80 63 00
        E 0 80 54 00
        E 0 80 57 00
        E 0 80 48 00
        E 0 80 4b 00
        E 0 80 3f 00
        E 120 90 19 60
        E 240 80 19 00
        E 0 90 2a 60
        E 0 90 63 60
        E 0 90 57 60
        E 0 90 4b 60
        E 0 90 3f 60
        E 120 80 2a 00
        E 0 80 63 00
        E 0 80 57 00
        E 0 80 4b 00
        E 0 80 3f 00
        E 120 90 19 60
        E 240 80 19 00
        E 0 90 18 60
        E 0 90 2a 60
        E 0 90 60 60
        E 0 90 63 60
        E 0 90 54 60
        E 0 90 57 60
        E 0 90 48 60
        E 0 90 4b 60
        E 0 90 3f 60
        E 120 80 18 00
        E 0 80 2a 00
        E 0 80 60 00
        E 0 80 63 00
        E 0 80 54 00
        E 0 80 57 00
        E 0 80 48 00
        E 0 80 4b 00
        E 0 80 3f 00
        E 120 90 19 60
        E 240 80 19 00
        E 0 90 2a 60
        E 0 90 63 60
        E 0 90 57 60
        E 0 90 4b 60
        E 0 90 3f 60
        E 120 80 2a 00
        E 0 80 63 00
        E 0 80 57 00
        E 0 80 4b 00
        E 0 80 3f 00
        E 120 90 19 60
        E 240 80 19 00
        E 0 90 18 60
        E 0 90 2a 60
        E 0 90 60 60
        E 0 90 63 60
        E 0 90 54 60
        E 0 90 57 60
        E 0 90 48 60
        E 0 90 4b 60
        E 0 90 3f 60
        E 120 80 18 00
        E 0 80 2a 00
        E 0 80 60 00
        E 0 80 63 00
        E 0 80 54 00
        E 0 80 57 00
        E 0 80 48 00
        E 0 80 4b 00
        E 0 80 3f 00
        E 120 90 19 60
        E 240 80 19 00
        E 0 90 2a 60
        E 0 90 63 60
        E 0 90 57 60
        E 0 90 4b 60
        E 0 90 3f 60
        E 120 80 2a 00
        E 0 80 63 00
        E 0 80 57 00
        E 0 80 4b 00
        E 0 80 3f 00
        E 120 90 19 60
        E 240 80 19 00
        E 0 90 18 60
        E 0 90 2a 60
        E 0 90 60 60
        E 0 90 63 60
        E 0 90 54 60
        E 0 90 57 60
        E 0 90 48 60
        E 0 90 4b 60
        E 0 90 3f 60
        E 120 80 18 00
        E 0 80 2a 00
        E 0 80 60 00
        E 0 80 63 00
        E 0 80 54 00
        E 0 80 57 00
        E 0 80 48 00
        E 0 80 4b 00
        E 0 80 3f 00
        E 120 90 19 60
        E 240 80 19 00
        E 0 90 2a 60
        E 0 90 63 60
        E 0 90 57 60
        E 0 90 4b 60
        E 0 90 3f 60
        E 120 80 2a 00
        E 0 80 63 00
        E 0 80 57 00
        E 0 80 4b 00
        E 0 80 3f 00
        E 120 90 19 60
        E 240 80 19 00
        E 0 90 18 60
        E 0 90 2a 60
        E 0 90 60 60
        E 0 90 63 60
        E 0 90 54 60
        E 0 90 57 60
        E 0 90 48 60
        E 0 90 4b 60
        E 0 90 3f 60
        E 120 80 18 00
        E 0 80 2a 00
        E 0 80 60 00
        E 0 80 63 00
        E 0 80 54 00
        E 0 80 57 00
        E 0 80 48 00
        E 0 80 4b 00
        E 0 80 3f 00
        E 120 90 19 60
        E 240 80 19 00
        E 0 90 2a 60
        E 0 90 63 60
        E 0 90 57 60
        E 0 90 4b 60
        E 0 90 3f 60
        E 120 80 2a 00
        E 0 80 63 00
        E 0 80 57 00
        E 0 80 4b 00
        E 0 80 3f 00
        E 120 90 19 60
        E 240 80 19 00
        E 0 90 18 60
        E 0 90 2a 60
        E 0 90 60 60
        E 0 90 63 60
        E 0 90 54 60
        E 0 90 57 60
        E 0 90 48 60
        E 0 90 4b 60
        E 0 90 3f 60
        E 120 80 18 00
        E 0 80 2a 00
        E 0 80 60 00
        E 0 80 63 00
        E 0 80 54 00
        E 0 80 57 00
        E 0 80 48 00
        E 0 80 4b 00
        E 0 80 3f 00
        E 120 90 19 60
        E 240 80 19 00
        E 0 90 2a 60
        E 0 90 63 60
        E 0 90 57 60
        E 0 90 4b 60
        E 0 90 3f 60
        E 120 80 2a 00
        E 0 80 63 00
        E 0 80 57 00
        E 0 80 4b 00
        E 0 80 3f 00
        E 120 90 19 60
        E 240 80 19 00
        E 0 90 18 60
        E 0 90 2a 60
        E 0 90 60 60
        E 0 90 63 60
        E 0 90 78 60
        E 0 90 79 60
        E 0 90 7a 60
        E 0 90 7b 60
        E 0 90 7c 60
        E 0 90 54 60
        E 0 90 57 60
        E 0 90 48 60
        E 0 90 4b 60
        E 0 90 3f 60
        E 120 80 18 00
        E 0 80 2a 00
        E 0 80 60 00
        E 0 80 63 00
        E 0 80 54 00
        E 0 80 57 00
        E 0 80 48 00
        E 0 80 4b 00
        E 0 80 3f 00
        E 120 90 19 60
        E 0 90 1a 60
        E 0 90 61 60
        E 0 90 55 60
        E 120 80 1a 00
        E 0 80 61 00
        E 0 80 55 00
        E 120 80 19 00
        E 0 90 18 60
        E 0 90 2a 60
        E 0 90 60 60
        E 0 90 63 60
        E 0 90 54 60
        E 0 90 57 60
        E 0 90 48 60
        E 0 90 4b 60
        E 0 90 3f 60
        E 120 80 18 00
        E 0 80 2a 00
        E 0 80 60 00
        E 0 80 63 00
        E 0 80 54 00
        E 0 80 57 00
        E 0 80 48 00
        E 0 80 4b 00
        E 0 80 3f 00
        E 120 90 18 60
        E 0 90 19 60
        E 0 90 60 60
        E 0 90 54 60
        E 120 80 18 00
        E 0 80 60 00
        E 0 80 54 00
        E 120 80 19 00
        E 0 90 1a 60
        E 0 90 1b 60
        E 0 90 61 60
        E 0 90 62 60
        E 0 90 55 60
        E 0 90 56 60
        E 0 90 49 60
        E 0 90 4a 60
        E 0 90 6e 60
        E 0 90 3d 60
        E 0 90 3e 60
        E 120 80 1a 00
        E 0 80 1b 00
        E 0 80 61 00
        E 0 80 62 00
        E 0 80 55 00
        E 0 80 56 00
        E 0 80 49 00
        E 0 80 4a 00
        E 0 80 6e 00
        E 0 80 3d 00
        E 0 80 3e 00
        E 120 90 18 60
        E 0 90 19 60
        E 0 90 60 60
        E 0 90 54 60
        E 120 80 18 00
        E 0 80 60 00
        E 0 80 54 00
        E 120 90 1a 60
        E 0 90 1f 60
        E 0 90 61 60
        E 0 90 63 60
        E 0 90 55 60
        E 0 90 57 60
        E 0 90 49 60
        E 0 90 4b 60
        E 0 90 3d 60
        E 0 90 3f 60
        E 120 80 1a 00
        E 0 80 1f 00
        E 0 80 61 00
        E 0 80 63 00
        E 0 80 55 00
        E 0 80 57 00
        E 0 80 49 00
        E 0 80 4b 00
        E 0 80 3d 00
        E 0 80 3f 00
        E 120 90 18 60
        E 0 90 60 60
        E 0 90 54 60
        E 120 80 18 00
        E 0 80 60 00
        E 0 80 54 00
        <X 120 0
          /wFbaW50ZW5zZV0=
        >
        E 0 80 78 00
        E 0 80 79 00
        E 0 80 7a 00
        E 0 80 7b 00
        E 0 80 7c 00
        E 0 80 19 00
        E 0 90 18 60
        E 0 90 24 60
        E 0 90 60 60
        E 0 90 64 60
        E 0 90 54 60
        E 0 90 58 60
        E 0 90 48 60
        E 0 90 4c 60
        E 0 90 40 60
        E 120 80 18 00
        E 0 80 24 00
        E 0 80 60 00
        E 0 80 64 00
        E 0 80 54 00
        E 0 80 58 00
        E 0 80 48 00
        E 0 80 4c 00
        E 0 80 40 00
        E 120 90 19 60
        E 240 80 19 00
        E 0 90 18 60
        E 0 90 2a 60
        E 0 90 60 60
        E 0 90 63 60
        E 0 90 54 60
        E 0 90 57 60
        E 0 90 48 60
        E 0 90 4b 60
        E 0 90 3f 60
        E 120 80 18 00
        E 0 80 2a 00
        E 0 80 60 00
        E 0 80 63 00
        E 0 80 54 00
        E 0 80 57 00
        E 0 80 48 00
        E 0 80 4b 00
        E 0 80 3f 00
        E 120 90 19 60
        E 0 90 1a 60
        E 0 90 61 60
        E 0 90 55 60
        E 120 80 1a 00
        E 0 80 61 00
        E 0 80 55 00
        E 120 80 19 00
        E 0 90 2a 60
        E 0 90 63 60
        E 0 90 57 60
        E 0 90 4b 60
        E 0 90 3f 60
        E 120 80 2a 00
        E 0 80 63 00
        E 0 80 57 00
        E 0 80 4b 00
        E 0 80 3f 00
        E 120 90 18 60
        E 0 90 19 60
        E 0 90 60 60
        E 0 90 54 60
        E 120 80 18 00
        E 0 80 60 00
        E 0 80 54 00
        E 120 80 19 00
        E 0 90 1a 60
        E 0 90 2a 60
        E 0 90 61 60
        E 0 90 63 60
        E 0 90 55 60
        E 0 90 57 60
        E 0 90 49 60
        E 0 90 4b 60
        E 0 90 3d 60
        E 0 90 3f 60
        E 120 80 1a 00
        E 0 80 2a 00
        E 0 80 61 00
        E 0 80 63 00
        E 0 80 55 00
        E 0 80 57 00
        E 0 80 49 00
        E 0 80 4b 00
        E 0 80 3d 00
        E 0 80 3f 00
        E 120 90 19 60
        E 240 80 19 00
        E 0 90 18 60
        E 0 90 2a 60
        E 0 90 60 60
        E 0 90 63 60
        E 0 90 54 60
        E 0 90 57 60
        E 0 90 48 60
        E 0 90 4b 60
        E 0 90 3f 60
        E 120 80 18 00
        E 0 80 2a 00
        E 0 80 60 00
        E 0 80 63 00
        E 0 80 54 00
        E 0 80 57 00
        E 0 80 48 00
        E 0 80 4b 00
        E 0 80 3f 00
        E 120 90 19 60
        E 0 90 1a 60
        E 0 90 61 60
        E 0 90 55 60
        E 120 80 1a 00
        E 0 80 61 00
        E 0 80 55 00
        E 120 80 19 00
        E 0 90 2a 60
        E 0 90 63 60
        E 0 90 57 60
        E 0 90 4b 60
        E 0 90 3f 60
        E 120 80 2a 00
        E 0 80 63 00
        E 0 80 57 00
        E 0 80 4b 00
        E 0 80 3f 00
        E 120 90 18 60
        E 0 90 19 60
        E 0 90 60 60
        E 0 90 54 60
        E 120 80 18 00
        E 0 80 60 00
        E 0 80 54 00
        E 120 80 19 00
        E 0 90 1a 60
        E 0 90 2a 60
        E 0 90 61 60
        E 0 90 63 60
        E 0 90 55 60
        E 0 90 57 60
        E 0 90 49 60
        E 0 90 4b 60
        E 0 90 3d 60
        E 0 90 3f 60
        E 120 80 1a 00
        E 0 80 2a 00
        E 0 80 61 00
        E 0 80 63 00
        E 0 80 55 00
        E 0 80 57 00
        E 0 80 49 00
        E 0 80 4b 00
        E 0 80 3d 00
        E 0 80 3f 00
        E 120 90 19 60
        E 240 80 19 00
        E 0 90 1a 60
        E 0 90 2a 60
        E 0 90 61 60
        E 0 90 63 60
        E 0 90 55 60
        E 0 90 57 60
        E 0 90 49 60
        E 0 90 4b 60
        E 0 90 3d 60
        E 0 90 3f 60
        E 120 80 1a 00
        E 0 80 2a 00
        E 0 80 61 00
        E 0 80 63 00
        E 0 80 55 00
        E 0 80 57 00
        E 0 80 49 00
        E 0 80 4b 00
        E 0 80 3d 00
        E 0 80 3f 00
        E 120 90 18 60
        E 0 90 19 60
        E 0 90 60 60
        E 0 90 54 60
        E 120 80 18 00
        E 0 80 60 00
        E 0 80 54 00
        E 120 80 19 00
        E 0 90 18 60
        E 0 90 27 60
        E 0 90 60 60
        E 0 90 64 60
        E 0 90 54 60
        E 0 90 58 60
        E 0 90 48 60
        E 0 90 4c 60
        E 0 90 40 60
        E 120 80 18 00
        E 0 80 27 00
        E 0 80 60 00
        E 0 80 64 00
        E 0 80 54 00
        E 0 80 58 00
        E 0 80 48 00
        E 0 80 4c 00
        E 0 80 40 00
        E 120 90 19 60
        E 240 80 19 00
        E 0 90 18 60
        E 0 90 2a 60
        E 0 90 60 60
        E 0 90 63 60
        E 0 90 54 60
        E 0 90 57 60
        E 0 90 48 60
        E 0 90 4b 60
        E 0 90 3f 60
        E 120 80 18 00
        E 0 80 2a 00
        E 0 80 60 00
        E 0 80 63 00
        E 0 80 54 00
        E 0 80 57 00
        E 0 80 48 00
        E 0 80 4b 00
        E 0 80 3f 00
        E 120 90 19 60
        E 0 90 1a 60
        E 0 90 61 60
        E 0 90 55 60
        E 120 80 1a 00
        E 0 80 61 00
        E 0 80 55 00
        E 120 80 19 00
        E 0 90 2a 60
        E 0 90 63 60
        E 0 90 57 60
        E 0 90 4b 60
        E 0 90 3f 60
        E 120 80 2a 00
        E 0 80 63 00
        E 0 80 57 00
        E 0 80 4b 00
        E 0 80 3f 00
        E 120 90 18 60
        E 0 90 19 60
        E 0 90 60 60
        E 0 90 54 60
        E 120 80 18 00
        E 0 80 60 00
        E 0 80 54 00
        E 120 80 19 00
        E 0 90 1a 60
        E 0 90 2a 60
        E 0 90 61 60
        E 0 90 63 60
        E 0 90 55 60
        E 0 90 57 60
        E 0 90 49 60
        E 0 90 4b 60
        E 0 90 3d 60
        E 0 90 3f 60
        E 120 80 1a 00
        E 0 80 2a 00
        E 0 80 61 00
        E 0 80 63 00
        E 0 80 55 00
        E 0 80 57 00
        E 0 80 49 00
        E 0 80 4b 00
        E 0 80 3d 00
        E 0 80 3f 00
        E 120 90 19 60
        E 240 80 19 00
        E 0 90 18 60
        E 0 90 2a 60
        E 0 90 60 60
        E 0 90 63 60
        E 0 90 78 60
        E 0 90 79 60
        E 0 90 7a 60
        E 0 90 7b 60
        E 0 90 7c 60
        E 0 90 54 60
        E 0 90 57 60
        E 0 90 48 60
        E 0 90 4b 60
        E 0 90 3f 60
        E 120 80 18 00
        E 0 80 2a 00
        E 0 80 60 00
        E 0 80 63 00
        E 0 80 54 00
        E 0 80 57 00
        E 0 80 48 00
        E 0 80 4b 00
        E 0 80 3f 00
        E 120 90 19 60
        E 0 90 1a 60
        E 0 90 61 60
        E 0 90 55 60
        E 120 80 1a 00
        E 0 80 61 00
        E 0 80 55 00
        E 120 80 19 00
        E 0 90 2a 60
        E 0 90 63 60
        E 0 90 57 60
        E 0 90 4b 60
        E 0 90 3f 60
        E 120 80 2a 00
        E 0 80 63 00
        E 0 80 57 00
        E 0 80 4b 00
        E 0 80 3f 00
        E 120 90 18 60
        E 0 90 19 60
        E 0 90 60 60
        E 0 90 54 60
        E 120 80 18 00
        E 0 80 60 00
        E 0 80 54 00
        E 120 80 19 00
        E 0 90 1a 60
        E 0 90 2a 60
        E 0 90 61 60
        E 0 90 63 60
        E 0 90 55 60
        E 0 90 57 60
        E 0 90 49 60
        E 0 90 4b 60
        E 0 90 3d 60
        E 0 90 3f 60
        E 120 80 1a 00
        E 0 80 2a 00
        E 0 80 61 00
        E 0 80 63 00
        E 0 80 55 00
        E 0 80 57 00
        E 0 80 49 00
        E 0 80 4b 00
        E 0 80 3d 00
        E 0 80 3f 00
        E 120 90 19 60
        E 240 80 19 00
        E 0 90 1a 60
        E 0 90 2a 60
        E 0 90 61 60
        E 0 90 63 60
        E 0 90 55 60
        E 0 90 57 60
        E 0 90 49 60
        E 0 90 4b 60
        E 0 90 3d 60
        E 0 90 3f 60
        E 120 80 1a 00
        E 0 80 2a 00
        E 0 80 61 00
        E 0 80 63 00
        E 0 80 55 00
        E 0 80 57 00
        E 0 80 49 00
        E 0 80 4b 00
        E 0 80 3d 00
        E 0 80 3f 00
        E 120 90 19 60
        E 0 90 1a 60
        E 0 90 61 60
        E 0 90 55 60
        E 120 80 1a 00
        E 0 80 61 00
        E 0 80 55 00
        E 120 80 78 00
        E 0 80 79 00
        E 0 80 7a 00
        E 0 80 7b 00
        E 0 80 7c 00
        E 0 80 19 00
        E 0 90 18 60
        E 0 90 27 60
        E 0 90 60 60
        E 0 90 64 60
        E 0 90 54 60
        E 0 90 58 60
        E 0 90 48 60
        E 0 90 4c 60
        E 0 90 40 60
        E 120 80 18 00
        E 0 80 27 00
        E 0 80 60 00
        E 0 80 64 00
        E 0 80 54 00
        E 0 80 58 00
        E 0 80 48 00
        E 0 80 4c 00
        E 0 80 40 00
        E 120 90 19 60
        E 240 80 19 00
        E 0 90 18 60
        E 0 90 2a 60
        E 0 90 60 60
        E 0 90 63 60
        E 0 90 54 60
        E 0 90 57 60
        E 0 90 48 60
        E 0 90 4b 60
        E 0 90 3f 60
        E 120 80 18 00
        E 0 80 2a 00
        E 0 80 60 00
        E 0 80 63 00
        E 0 80 54 00
        E 0 80 57 00
        E 0 80 48 00
        E 0 80 4b 00
        E 0 80 3f 00
        E 120 90 19 60
        E 0 90 1a 60
        E 0 90 61 60
        E 0 90 55 60
        E 120 80 1a 00
        E 0 80 61 00
        E 0 80 55 00
        E 120 80 19 00
        E 0 90 2a 60
        E 0 90 63 60
        E 0 90 57 60
        E 0 90 4b 60
        E 0 90 3f 60
        E 120 80 2a 00
        E 0 80 63 00
        E 0 80 57 00
        E 0 80 4b 00
        E 0 80 3f 00
        E 120 90 18 60
        E 0 90 19 60
        E 0 90 60 60
        E 0 90 54 60
        E 120 80 18 00
        E 0 80 60 00
        E 0 80 54 00
        E 120 80 19 00
        E 0 90 1a 60
        E 0 90 2a 60
        E 0 90 61 60
        E 0 90 63 60
        E 0 90 55 60
        E 0 90 57 60
        E 0 90 49 60
        E 0 90 4b 60
        E 0 90 3d 60
        E 0 90 3f 60
        E 120 80 1a 00
        E 0 80 2a 00
        E 0 80 61 00
        E 0 80 63 00
        E 0 80 55 00
        E 0 80 57 00
        E 0 80 49 00
        E 0 80 4b 00
        E 0 80 3d 00
        E 0 80 3f 00
        E 120 90 19 60
        E 240 80 19 00
        E 0 90 18 60
        E 0 90 2a 60
        E 0 90 60 60
        E 0 90 63 60
        E 0 90 54 60
        E 0 90 57 60
        E 0 90 48 60
        E 0 90 4b 60
        E 0 90 3f 60
        E 120 80 18 00
        E 0 80 2a 00
        E 0 80 60 00
        E 0 80 63 00
        E 0 80 54 00
        E 0 80 57 00
        E 0 80 48 00
        E 0 80 4b 00
        E 0 80 3f 00
        E 120 90 19 60
        E 0 90 1a 60
        E 0 90 61 60
        E 0 90 55 60
        E 120 80 1a 00
        E 0 80 61 00
        E 0 80 55 00
        E 120 80 19 00
        E 0 90 2a 60
        E 0 90 63 60
        E 0 90 57 60
        E 0 90 4b 60
        E 0 90 3f 60
        E 120 80 2a 00
        E 0 80 63 00
        E 0 80 57 00
        E 0 80 4b 00
        E 0 80 3f 00
        E 120 90 18 60
        E 0 90 19 60
        E 0 90 60 60
        E 0 90 54 60
        E 120 80 18 00
        E 0 80 60 00
        E 0 80 54 00
        E 120 80 19 00
        E 0 90 1a 60
        E 0 90 2a 60
        E 0 90 61 60
        E 0 90 63 60
        E 0 90 55 60
        E 0 90 57 60
        E 0 90 49 60
        E 0 90 4b 60
        E 0 90 3d 60
        E 0 90 3f 60
        E 120 80 1a 00
        E 0 80 2a 00
        E 0 80 61 00
        E 0 80 63 00
        E 0 80 55 00
        E 0 80 57 00
        E 0 80 49 00
        E 0 80 4b 00
        E 0 80 3d 00
        E 0 80 3f 00
        E 120 90 19 60
        E 240 80 19 00
        E 0 90 1a 60
        E 0 90 2a 60
        E 0 90 61 60
        E 0 90 63 60
        E 0 90 55 60
        E 0 90 57 60
        E 0 90 49 60
        E 0 90 4b 60
        E 0 90 3d 60
        E 0 90 3f 60
        E 120 80 1a 00
        E 0 80 2a 00
        E 0 80 61 00
        E 0 80 63 00
        E 0 80 55 00
        E 0 80 57 00
        E 0 80 49 00
        E 0 80 4b 00
        E 0 80 3d 00
        E 0 80 3f 00
        E 120 90 18 60
        E 0 90 19 60
        E 0 90 60 60
        E 0 90 54 60
        E 120 80 18 00
        E 0 80 60 00
        E 0 80 54 00
        E 120 80 19 00
        E 0 90 18 60
        E 0 90 27 60
        E 0 90 60 60
        E 0 90 64 60
        E 0 90 74 60
        E 0 90 54 60
        E 0 90 58 60
        E 0 90 48 60
        E 0 90 4c 60
        E 0 90 40 60
        E 120 80 18 00
        E 0 80 27 00
        E 0 80 60 00
        E 0 80 64 00
        E 0 80 54 00
        E 0 80 58 00
        E 0 80 48 00
        E 0 80 4c 00
        E 0 80 40 00
        E 120 90 19 60
        E 240 80 19 00
        E 0 90 18 60
        E 0 90 2a 60
        E 0 90 60 60
        E 0 90 63 60
        E 0 90 54 60
        E 0 90 57 60
        E 0 90 48 60
        E 0 90 4b 60
        E 0 90 3f 60
        E 120 80 18 00
        E 0 80 2a 00
        E 0 80 60 00
        E 0 80 63 00
        E 0 80 54 00
        E 0 80 57 00
        E 0 80 48 00
        E 0 80 4b 00
        E 0 80 3f 00
        E 120 90 19 60
        E 0 90 1a 60
        E 0 90 61 60
        E 0 90 55 60
        E 120 80 1a 00
        E 0 80 61 00
        E 0 80 55 00
        E 120 80 19 00
        E 0 90 2a 60
        E 0 90 63 60
        E 0 90 57 60
        E 0 90 4b 60
        E 0 90 3f 60
        E 120 80 2a 00
        E 0 80 63 00
        E 0 80 57 00
        E 0 80 4b 00
        E 0 80 3f 00
        E 120 90 18 60
        E 0 90 19 60
        E 0 90 60 60
        E 0 90 54 60
        E 120 80 18 00
        E 0 80 60 00
        E 0 80 54 00
        E 120 80 19 00
        E 0 90 1a 60
        E 0 90 2a 60
        E 0 90 61 60
        E 0 90 63 60
        E 0 90 55 60
        E 0 90 57 60
        E 0 90 49 60
        E 0 90 4b 60
        E 0 90 3d 60
        E 0 90 3f 60
        E 120 80 1a 00
        E 0 80 2a 00
        E 0 80 61 00
        E 0 80 63 00
        E 0 80 55 00
        E 0 80 57 00
        E 0 80 49 00
        E 0 80 4b 00
        E 0 80 3d 00
        E 0 80 3f 00
        E 120 90 19 60
        E 240 80 19 00
        E 0 90 18 60
        E 0 90 2a 60
        E 0 90 60 60
        E 0 90 63 60
        E 0 90 54 60
        E 0 90 57 60
        E 0 90 48 60
        E 0 90 4b 60
        E 0 90 3f 60
        E 120 80 18 00
        E 0 80 2a 00
        E 0 80 60 00
        E 0 80 63 00
        E 0 80 54 00
        E 0 80 57 00
        E 0 80 48 00
        E 0 80 4b 00
        E 0 80 3f 00
        E 120 90 19 60
        E 0 90 1a 60
        E 0 90 61 60
        E 0 90 55 60
        E 120 80 1a 00
        E 0 80 61 00
        E 0 80 55 00
        E 120 80 19 00
        E 0 90 2a 60
        E 0 90 63 60
        E 0 90 57 60
        E 0 90 4b 60
        E 0 90 3f 60
        E 120 80 2a 00
        E 0 80 63 00
        E 0 80 57 00
        E 0 80 4b 00
        E 0 80 3f 00
        E 120 90 18 60
        E 0 90 19 60
        E 0 90 60 60
        E 0 90 54 60
        E 120 80 18 00
        E 0 80 60 00
        E 0 80 54 00
        E 120 80 19 00
        E 0 90 1a 60
        E 0 90 1b 60
        E 0 90 61 60
        E 0 90 62 60
        E 0 90 55 60
        E 0 90 56 60
        E 0 90 49 60
        E 0 90 4a 60
        E 0 90 6e 60
        E 0 90 3d 60
        E 0 90 3e 60
        E 120 80 1a 00
        E 0 80 1b 00
        E 0 80 61 00
        E 0 80 62 00
        E 0 80 55 00
        E 0 80 56 00
        E 0 80 49 00
        E 0 80 4a 00
        E 0 80 6e 00
        E 0 80 3d 00
        E 0 80 3e 00
        E 120 90 18 60
        E 0 90 19 60
        E 0 90 26 60
        E 0 90 60 60
        E 0 90 64 60
        E 0 90 54 60
        E 0 90 58 60
        E 120 80 18 00
        E 0 80 26 00
        E 0 80 60 00
        E 0 80 64 00
        E 0 80 54 00
        E 0 80 58 00
        E 120 80 19 00
        E 240 90 18 60
        E 0 90 19 60
        E 0 90 60 60
        E 0 90 54 60
        E 120 80 18 00
        E 0 80 60 00
        E 0 80 54 00
        E 120 80 74 00
        E 0 80 19 00
        E 0 90 18 60
        E 0 90 26 60
        E 0 90 60 60
        E 0 90 64 60
        E 0 90 54 60
        E 0 90 58 60
        E 0 90 48 60
        E 0 90 4c 60
        E 0 90 40 60
        E 120 80 18 00
        E 0 80 26 00
        E 0 80 60 00
        E 0 80 64 00
        E 0 80 54 00
        E 0 80 58 00
        E 0 80 48 00
        E 0 80 4c 00
        E 0 80 40 00
        E 120 90 19 60
        E 240 80 19 00
        E 0 90 1a 60
        E 0 90 2a 60
        E 0 90 61 60
        E 0 90 63 60
        E 0 90 55 60
        E 0 90 57 60
        E 0 90 49 60
        E 0 90 4b 60
        E 0 90 3d 60
        E 0 90 3f 60
        E 120 80 1a 00
        E 0 80 2a 00
        E 0 80 61 00
        E 0 80 63 00
        E 0 80 55 00
        E 0 80 57 00
        E 0 80 49 00
        E 0 80 4b 00
        E 0 80 3d 00
        E 0 80 3f 00
        E 120 90 18 60
        E 0 90 19 60
        E 0 90 60 60
        E 0 90 54 60
        E 120 80 18 00
        E 0 80 60 00
        E 0 80 54 00
        E 120 80 19 00
        E 0 90 18 60
        E 0 90 60 60
        E 0 90 54 60
        E 0 90 48 60
        E 0 90 3c 60
        E 120 80 18 00
        E 0 80 60 00
        E 0 80 54 00
        E 0 80 48 00
        E 0 80 3c 00
        E 120 90 18 60
        E 0 90 19 60
        E 0 90 60 60
        E 0 90 54 60
        E 120 80 18 00
        E 0 80 60 00
        E 0 80 54 00
        E 120 80 19 00
        E 0 90 1a 60
        E 0 90 2a 60
        E 0 90 61 60
        E 0 90 63 60
        E 0 90 55 60
        E 0 90 57 60
        E 0 90 49 60
        E 0 90 4b 60
        E 0 90 3d 60
        E 0 90 3f 60
        E 120 80 1a 00
        E 0 80 2a 00
        E 0 80 61 00
        E 0 80 63 00
        E 0 80 55 00
        E 0 80 57 00
        E 0 80 49 00
        E 0 80 4b 00
        E 0 80 3d 00
        E 0 80 3f 00
        E 120 90 18 60
        E 0 90 19 60
        E 0 90 60 60
        E 0 90 54 60
        E 120 80 18 00
        E 0 80 60 00
        E 0 80 54 00
        E 120 80 19 00
        E 0 90 18 60
        E 0 90 60 60
        E 0 90 54 60
        E 0 90 48 60
        E 0 90 3c 60
        E 120 80 18 00
        E 0 80 60 00
        E 0 80 54 00
        E 0 80 48 00
        E 0 80 3c 00
        E 120 90 18 60
        E 0 90 19 60
        E 0 90 60 60
        E 0 90 54 60
        E 120 80 18 00
        E 0 80 60 00
        E 0 80 54 00
        E 120 80 19 00
        E 0 90 1a 60
        E 0 90 2a 60
        E 0 90 61 60
        E 0 90 63 60
        E 0 90 55 60
        E 0 90 57 60
        E 0 90 49 60
        E 0 90 4b 60
        E 0 90 3d 60
        E 0 90 3f 60
        E 120 80 1a 00
        E 0 80 2a 00
        E 0 80 61 00
        E 0 80 63 00
        E 0 80 55 00
        E 0 80 57 00
        E 0 80 49 00
        E 0 80 4b 00
        E 0 80 3d 00
        E 0 80 3f 00
        E 120 90 18 60
        E 0 90 19 60
        E 0 90 60 60
        E 0 90 54 60
        E 120 80 18 00
        E 0 80 60 00
        E 0 80 54 00
        E 120 80 19 00
        E 0 90 18 60
        E 0 90 60 60
        E 0 90 54 60
        E 0 90 48 60
        E 0 90 3c 60
        E 120 80 18 00
        E 0 80 60 00
        E 0 80 54 00
        E 0 80 48 00
        E 0 80 3c 00
        E 120 90 18 60
        E 0 90 19 60
        E 0 90 60 60
        E 0 90 54 60
        E 120 80 18 00
        E 0 80 60 00
        E 0 80 54 00
        E 120 80 19 00
        E 0 90 1a 60
        E 0 90 2a 60
        E 0 90 61 60
        E 0 90 63 60
        E 0 90 55 60
        E 0 90 57 60
        E 0 90 49 60
        E 0 90 4b 60
        E 0 90 3d 60
        E 0 90 3f 60
        E 120 80 1a 00
        E 0 80 2a 00
        E 0 80 61 00
        E 0 80 63 00
        E 0 80 55 00
        E 0 80 57 00
        E 0 80 49 00
        E 0 80 4b 00
        E 0 80 3d 00
        E 0 80 3f 00
        E 120 90 18 60
        E 0 90 19 60
        E 0 90 60 60
        E 0 90 54 60
        E 120 80 18 00
        E 0 80 60 00
        E 0 80 54 00
        E 120 80 19 00
        E 0 90 18 60
        E 0 90 60 60
        E 0 90 54 60
        E 0 90 48 60
        E 0 90 3c 60
        E 120 80 18 00
        E 0 80 60 00
        E 0 80 54 00
        E 0 80 48 00
        E 0 80 3c 00
        E 120 90 18 60
        E 0 90 19 60
        E 0 90 60 60
        E 0 90 54 60
        E 120 80 18 00
        E 0 80 60 00
        E 0 80 54 00
        E 120 80 19 00
        E 0 90 1a 60
        E 0 90 2a 60
        E 0 90 61 60
        E 0 90 63 60
        E 0 90 55 60
        E 0 90 57 60
        E 0 90 49 60
        E 0 90 4b 60
        E 0 90 3d 60
        E 0 90 3f 60
        E 120 80 1a 00
        E 0 80 2a 00
        E 0 80 61 00
        E 0 80 63 00
        E 0 80 55 00
        E 0 80 57 00
        E 0 80 49 00
        E 0 80 4b 00
        E 0 80 3d 00
        E 0 80 3f 00
        E 120 90 18 60
        E 0 90 19 60
        E 0 90 60 60
        E 0 90 54 60
        E 120 80 18 00
        E 0 80 60 00
        E 0 80 54 00
        E 120 80 19 00
        E 0 90 18 60
        E 0 90 60 60
        E 0 90 54 60
        E 0 90 48 60
        E 0 90 3c 60
        E 120 80 18 00
        E 0 80 60 00
        E 0 80 54 00
        E 0 80 48 00
        E 0 80 3c 00
        E 120 90 18 60
        E 0 90 19 60
        E 0 90 60 60
        E 0 90 54 60
        E 120 80 18 00
        E 0 80 60 00
        E 0 80 54 00
        E 120 80 19 00
        E 0 90 1a 60
        E 0 90 2a 60
        E 0 90 61 60
        E 0 90 63 60
        E 0 90 55 60
        E 0 90 57 60
        E 0 90 49 60
        E 0 90 4b 60
        E 0 90 3d 60
        E 0 90 3f 60
        E 120 80 1a 00
        E 0 80 2a 00
        E 0 80 61 00
        E 0 80 63 00
        E 0 80 55 00
        E 0 80 57 00
        E 0 80 49 00
        E 0 80 4b 00
        E 0 80 3d 00
        E 0 80 3f 00
        E 120 90 18 60
        E 0 90 19 60
        E 0 90 60 60
        E 0 90 54 60
        E 120 80 18 00
        E 0 80 60 00
        E 0 80 54 00
        E 120 80 19 00
        E 0 90 18 60
        E 0 90 60 60
        E 0 90 78 60
        E 0 90 79 60
        E 0 90 7a 60
        E 0 90 7b 60
        E 0 90 7c 60
        E 0 90 54 60
        E 0 90 48 60
        E 0 90 3c 60
        E 120 80 18 00
        E 0 80 60 00
        E 0 80 54 00
        E 0 80 48 00
        E 0 80 3c 00
        E 120 90 18 60
        E 0 90 19 60
        E 0 90 60 60
        E 0 90 54 60
        E 120 80 18 00
        E 0 80 60 00
        E 0 80 54 00
        E 120 80 19 00
        E 0 90 1a 60
        E 0 90 2a 60
        E 0 90 61 60
        E 0 90 63 60
        E 0 90 55 60
        E 0 90 57 60
        E 0 90 49 60
        E 0 90 4b 60
        E 0 90 3d 60
        E 0 90 3f 60
        E 120 80 1a 00
        E 0 80 2a 00
        E 0 80 61 00
        E 0 80 63 00
        E 0 80 55 00
        E 0 80 57 00
        E 0 80 49 00
        E 0 80 4b 00
        E 0 80 3d 00
        E 0 80 3f 00
        E 120 90 18 60
        E 0 90 19 60
        E 0 90 60 60
        E 0 90 54 60
        E 120 80 18 00
        E 0 80 60 00
        E 0 80 54 00
        E 120 80 19 00
        E 0 90 1a 60
        E 0 90 1b 60
        E 0 90 61 60
        E 0 90 62 60
        E 0 90 55 60
        E 0 90 56 60
        E 0 90 49 60
        E 0 90 4a 60
        E 0 90 6e 60
        E 0 90 3d 60
        E 0 90 3e 60
        E 120 80 1a 00
        E 0 80 1b 00
        E 0 80 61 00
        E 0 80 62 00
        E 0 80 55 00
        E 0 80 56 00
        E 0 80 49 00
        E 0 80 4a 00
        E 0 80 6e 00
        E 0 80 3d 00
        E 0 80 3e 00
        E 120 90 18 60
        E 0 90 19 60
        E 0 90 24 60
        E 0 90 60 60
        E 0 90 64 60
        E 0 90 54 60
        E 0 90 58 60
        E 120 80 18 00
        E 0 80 24 00
        E 0 80 60 00
        E 0 80 64 00
        E 0 80 54 00
        E 0 80 58 00
        E 120 80 19 00
        E 240 90 18 60
        E 0 90 19 60
        E 0 90 60 60
        E 0 90 54 60
        E 120 80 18 00
        E 0 80 60 00
        E 0 80 54 00
        E 120 80 78 00
        E 0 80 79 00
        E 0 80 7a 00
        E 0 80 7b 00
        E 0 80 7c 00
        E 0 80 19 00
        E 0 90 18 60
        E 0 90 26 60
        E 0 90 60 60
        E 0 90 64 60
        E 0 90 74 60
        E 0 90 54 60
        E 0 90 58 60
        E 0 90 48 60
        E 0 90 4c 60
        E 0 90 40 60
        E 120 80 18 00
        E 0 80 26 00
        E 0 80 60 00
        E 0 80 64 00
        E 0 80 54 00
        E 0 80 58 00
        E 0 80 48 00
        E 0 80 4c 00
        E 0 80 40 00
        E 120 90 19 60
        E 240 80 19 00
        E 0 90 1a 60
        E 0 90 2a 60
        E 0 90 61 60
        E 0 90 63 60
        E 0 90 55 60
        E 0 90 57 60
        E 0 90 49 60
        E 0 90 4b 60
        E 0 90 3d 60
        E 0 90 3f 60
        E 120 80 1a 00
        E 0 80 2a 00
        E 0 80 61 00
        E 0 80 63 00
        E 0 80 55 00
        E 0 80 57 00
        E 0 80 49 00
        E 0 80 4b 00
        E 0 80 3d 00
        E 0 80 3f 00
        E 120 90 18 60
        E 0 90 19 60
        E 0 90 60 60
        E 0 90 54 60
        E 120 80 18 00
        E 0 80 60 00
        E 0 80 54 00
        E 120 80 19 00
        E 0 90 18 60
        E 0 90 60 60
        E 0 90 54 60
        E 0 90 48 60
        E 0 90 3c 60
        E 120 80 18 00
        E 0 80 60 00
        E 0 80 54 00
        E 0 80 48 00
        E 0 80 3c 00
        E 120 90 18 60
        E 0 90 19 60
        E 0 90 60 60
        E 0 90 54 60
        E 120 80 18 00
        E 0 80 60 00
        E 0 80 54 00
        E 120 80 19 00
        E 0 90 1a 60
        E 0 90 2a 60
        E 0 90 61 60
        E 0 90 63 60
        E 0 90 55 60
        E 0 90 57 60
        E 0 90 49 60
        E 0 90 4b 60
        E 0 90 3d 60
        E 0 90 3f 60
        E 120 80 1a 00
        E 0 80 2a 00
        E 0 80 61 00
        E 0 80 63 00
        E 0 80 55 00
        E 0 80 57 00
        E 0 80 49 00
        E 0 80 4b 00
        E 0 80 3d 00
        E 0 80 3f 00
        E 120 90 18 60
        E 0 90 19 60
        E 0 90 60 60
        E 0 90 54 60
        E 120 80 18 00
        E 0 80 60 00
        E 0 80 54 00
        E 120 80 74 00
        E 0 80 19 00
        E 0 90 18 60
        E 0 90 60 60
        E 0 90 54 60
        E 0 90 48 60
        E 0 90 3c 60
        E 120 80 18 00
        E 0 80 60 00
        E 0 80 54 00
        E 0 80 48 00
        E 0 80 3c 00
        E 120 90 18 60
        E 0 90 19 60
        E 0 90 60 60
        E 0 90 54 60
        E 120 80 18 00
        E 0 80 60 00
        E 0 80 54 00
        E 120 80 19 00
        E 0 90 1a 60
        E 0 90 2a 60
        E 0 90 61 60
        E 0 90 63 60
        E 0 90 55 60
        E 0 90 57 60
        E 0 90 49 60
        E 0 90 4b 60
        E 0 90 3d 60
        E 0 90 3f 60
        E 120 80 1a 00
        E 0 80 2a 00
        E 0 80 61 00
        E 0 80 63 00
        E 0 80 55 00
        E 0 80 57 00
        E 0 80 49 00
        E 0 80 4b 00
        E 0 80 3d 00
        E 0 80 3f 00
        E 120 90 18 60
        E 0 90 19 60
        E 0 90 60 60
        E 0 90 54 60
        E 120 80 18 00
        E 0 80 60 00
        E 0 80 54 00
        E 120 80 19 00
        E 0 90 18 60
        E 0 90 60 60
        E 0 90 54 60
        E 0 90 48 60
        E 0 90 3c 60
        E 120 80 18 00
        E 0 80 60 00
        E 0 80 54 00
        E 0 80 48 00
        E 0 80 3c 00
        E 120 90 18 60
        E 0 90 19 60
        E 0 90 60 60
        E 0 90 54 60
        E 120 80 18 00
        E 0 80 60 00
        E 0 80 54 00
        E 120 80 19 00
        E 0 90 1a 60
        E 0 90 2a 60
        E 0 90 61 60
        E 0 90 63 60
        E 0 90 55 60
        E 0 90 57 60
        E 0 90 49 60
        E 0 90 4b 60
        E 0 90 3d 60
        E 0 90 3f 60
        E 120 80 1a 00
        E 0 80 2a 00
        E 0 80 61 00
        E 0 80 63 00
        E 0 80 55 00
        E 0 80 57 00
        E 0 80 49 00
        E 0 80 4b 00
        E 0 80 3d 00
        E 0 80 3f 00
        E 120 90 18 60
        E 0 90 19 60
        E 0 90 60 60
        E 0 90 54 60
        E 120 80 18 00
        E 0 80 60 00
        E 0 80 54 00
        E 120 80 19 00
        E 0 90 18 60
        E 0 90 60 60
        E 0 90 54 60
        E 0 90 48 60
        E 0 90 3c 60
        E 120 80 18 00
        E 0 80 60 00
        E 0 80 54 00
        E 0 80 48 00
        E 0 80 3c 00
        E 120 90 18 60
        E 0 90 19 60
        E 0 90 60 60
        E 0 90 54 60
        E 120 80 18 00
        E 0 80 60 00
        E 0 80 54 00
        E 120 80 19 00
        E 0 90 1a 60
        E 0 90 2a 60
        E 0 90 61 60
        E 0 90 63 60
        E 0 90 55 60
        E 0 90 57 60
        E 0 90 49 60
        E 0 90 4b 60
        E 0 90 3d 60
        E 0 90 3f 60
        E 120 80 1a 00
        E 0 80 2a 00
        E 0 80 61 00
        E 0 80 63 00
        E 0 80 55 00
        E 0 80 57 00
        E 0 80 49 00
        E 0 80 4b 00
        E 0 80 3d 00
        E 0 80 3f 00
        E 120 90 18 60
        E 0 90 19 60
        E 0 90 60 60
        E 0 90 54 60
        E 120 80 18 00
        E 0 80 60 00
        E 0 80 54 00
        E 120 80 19 00
        E 0 90 18 60
        E 0 90 60 60
        E 0 90 54 60
        E 0 90 48 60
        E 0 90 3c 60
        E 120 80 18 00
        E 0 80 60 00
        E 0 80 54 00
        E 0 80 48 00
        E 0 80 3c 00
        E 120 90 18 60
        E 0 90 19 60
        E 0 90 60 60
        E 0 90 54 60
        E 120 80 18 00
        E 0 80 60 00
        E 0 80 54 00
        E 120 80 19 00
        E 0 90 1a 60
        E 0 90 2a 60
        E 0 90 61 60
        E 0 90 63 60
        E 0 90 55 60
        E 0 90 57 60
        E 0 90 49 60
        E 0 90 4b 60
        E 0 90 3d 60
        E 0 90 3f 60
        E 120 80 1a 00
        E 0 80 2a 00
        E 0 80 61 00
        E 0 80 63 00
        E 0 80 55 00
        E 0 80 57 00
        E 0 80 49 00
        E 0 80 4b 00
        E 0 80 3d 00
        E 0 80 3f 00
        E 120 90 18 60
        E 0 90 19 60
        E 0 90 60 60
        E 0 90 54 60
        E 120 80 18 00
        E 0 80 60 00
        E 0 80 54 00
        E 120 80 19 00
        E 0 90 18 60
        E 0 90 60 60
        E 0 90 78 60
        E 0 90 79 60
        E 0 90 7a 60
        E 0 90 7b 60
        E 0 90 7c 60
        E 0 90 54 60
        E 0 90 48 60
        E 0 90 3c 60
        E 120 80 18 00
        E 0 80 60 00
        E 0 80 54 00
        E 0 80 48 00
        E 0 80 3c 00
        E 120 90 18 60
        E 0 90 19 60
        E 0 90 60 60
        E 0 90 54 60
        E 120 80 18 00
        E 0 80 60 00
        E 0 80 54 00
        E 120 80 19 00
        E 0 90 1a 60
        E 0 90 24 60
        E 0 90 61 60
        E 0 90 64 60
        E 0 90 55 60
        E 0 90 58 60
        E 0 90 49 60
        E 0 90 4c 60
        E 0 90 3d 60
        E 0 90 40 60
        E 120 80 1a 00
        E 0 80 24 00
        E 0 80 61 00
        E 0 80 64 00
        E 0 80 55 00
        E 0 80 58 00
        E 0 80 49 00
        E 0 80 4c 00
        E 0 80 3d 00
        E 0 80 40 00
        E 120 90 18 60
        E 0 90 19 60
        E 0 90 60 60
        E 0 90 54 60
        E 120 80 18 00
        E 0 80 60 00
        E 0 80 54 00
        E 120 80 19 00
        E 0 90 18 60
        E 0 90 2a 60
        E 0 90 60 60
        E 0 90 63 60
        E 0 90 54 60
        E 0 90 57 60
        E 0 90 48 60
        E 0 90 4b 60
        E 0 90 3f 60
        E 120 80 18 00
        E 0 80 2a 00
        E 0 80 60 00
        E 0 80 63 00
        E 0 80 54 00
        E 0 80 57 00
        E 0 80 48 00
        E 0 80 4b 00
        E 0 80 3f 00
        E 120 90 18 60
        E 0 90 19 60
        E 0 90 60 60
        E 0 90 54 60
        E 120 80 18 00
        E 0 80 60 00
        E 0 80 54 00
        E 120 80 19 00
        E 0 90 1a 60
        E 0 90 26 60
        E 0 90 61 60
        E 0 90 64 60
        E 0 90 55 60
        E 0 90 58 60
        E 0 90 49 60
        E 0 90 4c 60
        E 0 90 3d 60
        E 0 90 40 60
        E 120 80 1a 00
        E 0 80 26 00
        E 0 80 61 00
        E 0 80 64 00
        E 0 80 55 00
        E 0 80 58 00
        E 0 80 49 00
        E 0 80 4c 00
        E 0 80 3d 00
        E 0 80 40 00
        E 120 90 18 60
        E 0 90 19 60
        E 0 90 60 60
        E 0 90 54 60
        E 120 80 18 00
        E 0 80 60 00
        E 0 80 54 00
        E 120 80 78 00
        E 0 80 79 00
        E 0 80 7a 00
        E 0 80 7b 00
        E 0 80 7c 00
        E 0 80 19 00
        E 0 90 18 60
        E 0 90 26 60
        E 0 90 60 60
        E 0 90 64 60
        E 0 90 54 60
        E 0 90 58 60
        E 0 90 48 60
        E 0 90 4c 60
        E 0 90 40 60
        E 120 80 18 00
        E 0 80 26 00
        E 0 80 60 00
        E 0 80 64 00
        E 0 80 54 00
        E 0 80 58 00
        E 0 80 48 00
        E 0 80 4c 00
        E 0 80 40 00
        E 120 90 18 60
        E 0 90 19 60
        E 0 90 60 60
        E 0 90 54 60
        E 120 80 18 00
        E 0 80 60 00
        E 0 80 54 00
        E 120 80 19 00
        E 0 90 1a 60
        E 0 90 2a 60
        E 0 90 61 60
        E 0 90 63 60
        E 0 90 55 60
        E 0 90 57 60
        E 0 90 49 60
        E 0 90 4b 60
        E 0 90 3d 60
        E 0 90 3f 60
        E 120 80 1a 00
        E 0 80 2a 00
        E 0 80 61 00
        E 0 80 63 00
        E 0 80 55 00
        E 0 80 57 00
        E 0 80 49 00
        E 0 80 4b 00
        E 0 80 3d 00
        E 0 80 3f 00
        E 120 90 18 60
        E 0 90 19 60
        E 0 90 60 60
        E 0 90 54 60
        E 120 80 18 00
        E 0 80 60 00
        E 0 80 54 00
        E 120 80 19 00
        E 0 90 18 60
        E 0 90 60 60
        E 0 90 54 60
        E 0 90 48 60
        E 0 90 3c 60
        E 120 80 18 00
        E 0 80 60 00
        E 0 80 54 00
        E 0 80 48 00
        E 0 80 3c 00
        E 120 90 18 60
        E 0 90 19 60
        E 0 90 60 60
        E 0 90 54 60
        E 120 80 18 00
        E 0 80 60 00
        E 0 80 54 00
        E 120 80 19 00
        E 0 90 1a 60
        E 0 90 2a 60
        E 0 90 61 60
        E 0 90 63 60
        E 0 90 55 60
        E 0 90 57 60
        E 0 90 49 60
        E 0 90 4b 60
        E 0 90 3d 60
        E 0 90 3f 60
        E 120 80 1a 00
        E 0 80 2a 00
        E 0 80 61 00
        E 0 80 63 00
        E 0 80 55 00
        E 0 80 57 00
        E 0 80 49 00
        E 0 80 4b 00
        E 0 80 3d 00
        E 0 80 3f 00
        E 120 90 18 60
        E 0 90 19 60
        E 0 90 60 60
        E 0 90 54 60
        E 120 80 18 00
        E 0 80 60 00
        E 0 80 54 00
        E 120 80 19 00
        E 0 90 18 60
        E 0 90 60 60
        E 0 90 54 60
        E 0 90 48 60
        E 0 90 3c 60
        E 120 80 18 00
        E 0 80 60 00
        E 0 80 54 00
        E 0 80 48 00
        E 0 80 3c 00
        E 120 90 18 60
        E 0 90 19 60
        E 0 90 60 60
        E 0 90 54 60
        E 120 80 18 00
        E 0 80 60 00
        E 0 80 54 00
        E 120 80 19 00
        E 0 90 1a 60
        E 0 90 2a 60
        E 0 90 61 60
        E 0 90 63 60
        E 0 90 55 60
        E 0 90 57 60
        E 0 90 49 60
        E 0 90 4b 60
        E 0 90 3d 60
        E 0 90 3f 60
        E 120 80 1a 00
        E 0 80 2a 00
        E 0 80 61 00
        E 0 80 63 00
        E 0 80 55 00
        E 0 80 57 00
        E 0 80 49 00
        E 0 80 4b 00
        E 0 80 3d 00
        E 0 80 3f 00
        E 120 90 18 60
        E 0 90 19 60
        E 0 90 60 60
        E 0 90 54 60
        E 120 80 18 00
        E 0 80 60 00
        E 0 80 54 00
        E 120 80 19 00
        E 0 90 18 60
        E 0 90 60 60
        E 0 90 54 60
        E 0 90 48 60
        E 0 90 3c 60
        E 120 80 18 00
        E 0 80 60 00
        E 0 80 54 00
        E 0 80 48 00
        E 0 80 3c 00
        E 120 90 18 60
        E 0 90 19 60
        E 0 90 60 60
        E 0 90 54 60
        E 120 80 18 00
        E 0 80 60 00
        E 0 80 54 00
        E 120 80 19 00
        E 0 90 1a 60
        E 0 90 2a 60
        E 0 90 61 60
        E 0 90 63 60
        E 0 90 55 60
        E 0 90 57 60
        E 0 90 49 60
        E 0 90 4b 60
        E 0 90 3d 60
        E 0 90 3f 60
        E 120 80 1a 00
        E 0 80 2a 00
        E 0 80 61 00
        E 0 80 63 00
        E 0 80 55 00
        E 0 80 57 00
        E 0 80 49 00
        E 0 80 4b 00
        E 0 80 3d 00
        E 0 80 3f 00
        E 120 90 18 60
        E 0 90 19 60
        E 0 90 60 60
        E 0 90 54 60
        E 120 80 18 00
        E 0 80 60 00
        E 0 80 54 00
        E 120 80 19 00
        E 0 90 18 60
        E 0 90 60 60
        E 0 90 54 60
        E 0 90 48 60
        E 0 90 3c 60
        E 120 80 18 00
        E 0 80 60 00
        E 0 80 54 00
        E 0 80 48 00
        E 0 80 3c 00
        E 120 90 18 60
        E 0 90 19 60
        E 0 90 60 60
        E 0 90 54 60
        E 120 80 18 00
        E 0 80 60 00
        E 0 80 54 00
        E 120 80 19 00
        E 0 90 1a 60
        E 0 90 2a 60
        E 0 90 61 60
        E 0 90 63 60
        E 0 90 55 60
        E 0 90 57 60
        E 0 90 49 60
        E 0 90 4b 60
        E 0 90 3d 60
        E 0 90 3f 60
        E 120 80 1a 00
        E 0 80 2a 00
        E 0 80 61 00
        E 0 80 63 00
        E 0 80 55 00
        E 0 80 57 00
        E 0 80 49 00
        E 0 80 4b 00
        E 0 80 3d 00
        E 0 80 3f 00
        E 120 90 18 60
        E 0 90 19 60
        E 0 90 60 60
        E 0 90 54 60
        E 120 80 18 00
        E 0 80 60 00
        E 0 80 54 00
        E 120 80 19 00
        E 0 90 18 60
        E 0 90 60 60
        E 0 90 54 60
        E 0 90 48 60
        E 0 90 3c 60
        E 120 80 18 00
        E 0 80 60 00
        E 0 80 54 00
        E 0 80 48 00
        E 0 80 3c 00
        E 120 90 18 60
        E 0 90 19 60
        E 0 90 60 60
        E 0 90 54 60
        E 120 80 18 00
        E 0 80 60 00
        E 0 80 54 00
        E 120 80 19 00
        E 0 90 1a 60
        E 0 90 2a 60
        E 0 90 61 60
        E 0 90 63 60
        E 0 90 55 60
        E 0 90 57 60
        E 0 90 49 60
        E 0 90 4b 60
        E 0 90 3d 60
        E 0 90 3f 60
        E 120 80 1a 00
        E 0 80 2a 00
        E 0 80 61 00
        E 0 80 63 00
        E 0 80 55 00
        E 0 80 57 00
        E 0 80 49 00
        E 0 80 4b 00
        E 0 80 3d 00
        E 0 80 3f 00
        E 120 90 18 60
        E 0 90 19 60
        E 0 90 60 60
        E 0 90 54 60
        E 120 80 18 00
        E 0 80 60 00
        E 0 80 54 00
        E 120 80 19 00
        E 0 90 18 60
        E 0 90 2a 60
        E 0 90 60 60
        E 0 90 63 60
        E 0 90 78 60
        E 0 90 79 60
        E 0 90 7a 60
        E 0 90 7b 60
        E 0 90 7c 60
        E 0 90 54 60
        E 0 90 57 60
        E 0 90 48 60
        E 0 90 4b 60
        E 0 90 3f 60
        E 120 80 18 00
        E 0 80 2a 00
        E 0 80 60 00
        E 0 80 63 00
        E 0 80 54 00
        E 0 80 57 00
        E 0 80 48 00
        E 0 80 4b 00
        E 0 80 3f 00
        E 120 90 18 60
        E 0 90 19 60
        E 0 90 60 60
        E 0 90 54 60
        E 120 80 18 00
        E 0 80 60 00
        E 0 80 54 00
        E 120 80 19 00
        E 0 90 1a 60
        E 0 90 2a 60
        E 0 90 61 60
        E 0 90 63 60
        E 0 90 55 60
        E 0 90 57 60
        E 0 90 49 60
        E 0 90 4b 60
        E 0 90 3d 60
        E 0 90 3f 60
        E 120 80 1a 00
        E 0 80 2a 00
        E 0 80 61 00
        E 0 80 63 00
        E 0 80 55 00
        E 0 80 57 00
        E 0 80 49 00
        E 0 80 4b 00
        E 0 80 3d 00
        E 0 80 3f 00
        E 120 90 18 60
        E 0 90 19 60
        E 0 90 60 60
        E 0 90 54 60
        E 120 80 18 00
        E 0 80 60 00
        E 0 80 54 00
        E 120 80 19 00
        E 0 90 1a 60
        E 0 90 1b 60
        E 0 90 61 60
        E 0 90 62 60
        E 0 90 55 60
        E 0 90 56 60
        E 0 90 49 60
        E 0 90 4a 60
        E 0 90 6e 60
        E 0 90 3d 60
        E 0 90 3e 60
        E 120 80 1a 00
        E 0 80 1b 00
        E 0 80 61 00
        E 0 80 62 00
        E 0 80 55 00
        E 0 80 56 00
        E 0 80 49 00
        E 0 80 4a 00
        E 0 80 6e 00
        E 0 80 3d 00
        E 0 80 3e 00
        E 120 90 18 60
        E 0 90 19 60
        E 0 90 24 60
        E 0 90 60 60
        E 0 90 64 60
        E 0 90 54 60
        E 0 90 58 60
        E 120 80 18 00
        E 0 80 24 00
        E 0 80 60 00
        E 0 80 64 00
        E 0 80 54 00
        E 0 80 58 00
        E 120 80 19 00
        E 240 90 18 60
        E 0 90 19 60
        E 0 90 60 60
        E 0 90 54 60
        E 120 80 18 00
        E 0 80 60 00
        E 0 80 54 00
        E 120 80 78 00
        E 0 80 79 00
        E 0 80 7a 00
        E 0 80 7b 00
        E 0 80 7c 00
        E 0 80 19 00
        E 0 90 18 60
        E 0 90 24 60
        E 0 90 60 60
        E 0 90 64 60
        E 0 90 54 60
        E 0 90 58 60
        E 0 90 48 60
        E 0 90 4c 60
        E 0 90 40 60
        E 120 80 18 00
        E 0 80 24 00
        E 0 80 60 00
        E 0 80 64 00
        E 0 80 54 00
        E 0 80 58 00
        E 0 80 48 00
        E 0 80 4c 00
        E 0 80 40 00
        E 120 90 19 60
        E 240 80 19 00
        E 0 90 18 60
        E 0 90 2a 60
        E 0 90 60 60
        E 0 90 63 60
        E 0 90 54 60
        E 0 90 57 60
        E 0 90 48 60
        E 0 90 4b 60
        E 0 90 3f 60
        E 120 80 18 00
        E 0 80 2a 00
        E 0 80 60 00
        E 0 80 63 00
        E 0 80 54 00
        E 0 80 57 00
        E 0 80 48 00
        E 0 80 4b 00
        E 0 80 3f 00
        E 120 90 19 60
        E 0 90 1a 60
        E 0 90 61 60
        E 0 90 55 60
        E 120 80 1a 00
        E 0 80 61 00
        E 0 80 55 00
        E 120 80 19 00
        E 0 90 2a 60
        E 0 90 63 60
        E 0 90 57 60
        E 0 90 4b 60
        E 0 90 3f 60
        E 120 80 2a 00
        E 0 80 63 00
        E 0 80 57 00
        E 0 80 4b 00
        E 0 80 3f 00
        E 120 90 18 60
        E 0 90 19 60
        E 0 90 60 60
        E 0 90 54 60
        E 120 80 18 00
        E 0 80 60 00
        E 0 80 54 00
        E 120 80 19 00
        E 0 90 1a 60
        E 0 90 2a 60
        E 0 90 61 60
        E 0 90 63 60
        E 0 90 55 60
        E 0 90 57 60
        E 0 90 49 60
        E 0 90 4b 60
        E 0 90 3d 60
        E 0 90 3f 60
        E 120 80 1a 00
        E 0 80 2a 00
        E 0 80 61 00
        E 0 80 63 00
        E 0 80 55 00
        E 0 80 57 00
        E 0 80 49 00
        E 0 80 4b 00
        E 0 80 3d 00
        E 0 80 3f 00
        E 120 90 19 60
        E 240 80 19 00
        E 0 90 18 60
        E 0 90 2a 60
        E 0 90 60 60
        E 0 90 63 60
        E 0 90 54 60
        E 0 90 57 60
        E 0 90 48 60
        E 0 90 4b 60
        E 0 90 3f 60
        E 120 80 18 00
        E 0 80 2a 00
        E 0 80 60 00
        E 0 80 63 00
        E 0 80 54 00
        E 0 80 57 00
        E 0 80 48 00
        E 0 80 4b 00
        E 0 80 3f 00
        E 120 90 19 60
        E 0 90 1a 60
        E 0 90 61 60
        E 0 90 55 60
        E 120 80 1a 00
        E 0 80 61 00
        E 0 80 55 00
        E 120 80 19 00
        E 0 90 2a 60
        E 0 90 63 60
        E 0 90 57 60
        E 0 90 4b 60
        E 0 90 3f 60
        E 120 80 2a 00
        E 0 80 63 00
        E 0 80 57 00
        E 0 80 4b 00
        E 0 80 3f 00
        E 120 90 18 60
        E 0 90 19 60
        E 0 90 60 60
        E 0 90 54 60
        E 120 80 18 00
        E 0 80 60 00
        E 0 80 54 00
        E 120 80 19 00
        E 0 90 1a 60
        E 0 90 2a 60
        E 0 90 61 60
        E 0 90 63 60
        E 0 90 55 60
        E 0 90 57 60
        E 0 90 49 60
        E 0 90 4b 60
        E 0 90 3d 60
        E 0 90 3f 60
        E 120 80 1a 00
        E 0 80 2a 00
        E 0 80 61 00
        E 0 80 63 00
        E 0 80 55 00
        E 0 80 57 00
        E 0 80 49 00
        E 0 80 4b 00
        E 0 80 3d 00
        E 0 80 3f 00
        E 120 90 19 60
        E 240 80 19 00
        E 0 90 1a 60
        E 0 90 2a 60
        E 0 90 61 60
        E 0 90 63 60
        E 0 90 55 60
        E 0 90 57 60
        E 0 90 49 60
        E 0 90 4b 60
        E 0 90 3d 60
        E 0 90 3f 60
        E 120 80 1a 00
        E 0 80 2a 00
        E 0 80 61 00
        E 0 80 63 00
        E 0 80 55 00
        E 0 80 57 00
        E 0 80 49 00
        E 0 80 4b 00
        E 0 80 3d 00
        E 0 80 3f 00
        E 120 90 18 60
        E 0 90 19 60
        E 0 90 60 60
        E 0 90 54 60
        E 120 80 18 00
        E 0 80 60 00
        E 0 80 54 00
        E 120 80 19 00
        E 0 90 18 60
        E 0 90 24 60
        E 0 90 60 60
        E 0 90 64 60
        E 0 90 54 60
        E 0 90 58 60
        E 0 90 48 60
        E 0 90 4c 60
        E 0 90 40 60
        E 120 80 18 00
        E 0 80 24 00
        E 0 80 60 00
        E 0 80 64 00
        E 0 80 54 00
        E 0 80 58 00
        E 0 80 48 00
        E 0 80 4c 00
        E 0 80 40 00
        E 120 90 19 60
        E 240 80 19 00
        E 0 90 18 60
        E 0 90 2a 60
        E 0 90 60 60
        E 0 90 63 60
        E 0 90 54 60
        E 0 90 57 60
        E 0 90 48 60
        E 0 90 4b 60
        E 0 90 3f 60
        E 120 80 18 00
        E 0 80 2a 00
        E 0 80 60 00
        E 0 80 63 00
        E 0 80 54 00
        E 0 80 57 00
        E 0 80 48 00
        E 0 80 4b 00
        E 0 80 3f 00
        E 120 90 19 60
        E 0 90 1a 60
        E 0 90 61 60
        E 0 90 55 60
        E 120 80 1a 00
        E 0 80 61 00
        E 0 80 55 00
        E 120 80 19 00
        E 0 90 2a 60
        E 0 90 63 60
        E 0 90 57 60
        E 0 90 4b 60
        E 0 90 3f 60
        E 120 80 2a 00
        E 0 80 63 00
        E 0 80 57 00
        E 0 80 4b 00
        E 0 80 3f 00
        E 120 90 18 60
        E 0 90 19 60
        E 0 90 60 60
        E 0 90 54 60
        E 120 80 18 00
        E 0 80 60 00
        E 0 80 54 00
        E 120 80 19 00
        E 0 90 1a 60
        E 0 90 2a 60
        E 0 90 61 60
        E 0 90 63 60
        E 0 90 55 60
        E 0 90 57 60
        E 0 90 49 60
        E 0 90 4b 60
        E 0 90 3d 60
        E 0 90 3f 60
        E 120 80 1a 00
        E 0 80 2a 00
        E 0 80 61 00
        E 0 80 63 00
        E 0 80 55 00
        E 0 80 57 00
        E 0 80 49 00
        E 0 80 4b 00
        E 0 80 3d 00
        E 0 80 3f 00
        E 120 90 19 60
        E 240 80 19 00
        E 0 90 18 60
        E 0 90 2a 60
        E 0 90 60 60
        E 0 90 63 60
        E 0 90 54 60
        E 0 90 57 60
        E 0 90 48 60
        E 0 90 4b 60
        E 0 90 3f 60
        E 120 80 18 00
        E 0 80 2a 00
        E 0 80 60 00
        E 0 80 63 00
        E 0 80 54 00
        E 0 80 57 00
        E 0 80 48 00
        E 0 80 4b 00
        E 0 80 3f 00
        E 120 90 19 60
        E 0 90 1a 60
        E 0 90 61 60
        E 0 90 55 60
        E 120 80 1a 00
        E 0 80 61 00
        E 0 80 55 00
        E 120 80 19 00
        E 0 90 2a 60
        E 0 90 63 60
        E 0 90 57 60
        E 0 90 4b 60
        E 0 90 3f 60
        E 120 80 2a 00
        E 0 80 63 00
        E 0 80 57 00
        E 0 80 4b 00
        E 0 80 3f 00
        E 120 90 18 60
        E 0 90 19 60
        E 0 90 60 60
        E 0 90 54 60
        E 120 80 18 00
        E 0 80 60 00
        E 0 80 54 00
        E 120 80 19 00
        E 0 90 1a 60
        E 0 90 1b 60
        E 0 90 61 60
        E 0 90 62 60
        E 0 90 55 60
        E 0 90 56 60
        E 0 90 49 60
        E 0 90 4a 60
        E 0 90 6e 60
        E 0 90 3d 60
        E 0 90 3e 60
        E 120 80 1a 00
        E 0 80 1b 00
        E 0 80 61 00
        E 0 80 62 00
        E 0 80 55 00
        E 0 80 56 00
        E 0 80 49 00
        E 0 80 4a 00
        E 0 80 6e 00
        E 0 80 3d 00
        E 0 80 3e 00
        E 120 90 18 60
        E 0 90 19 60
        E 0 90 60 60
        E 0 90 54 60
        E 120 80 18 00
        E 0 80 60 00
        E 0 80 54 00
        E 120 90 1a 60
        E 0 90 1e 60
        E 0 90 61 60
        E 0 90 63 60
        E 0 90 55 60
        E 0 90 57 60
        E 0 90 49 60
        E 0 90 4b 60
        E 0 90 3d 60
        E 0 90 3f 60
        E 120 80 1a 00
        E 0 80 1e 00
        E 0 80 61 00
        E 0 80 63 00
        E 0 80 55 00
        E 0 80 57 00
        E 0 80 49 00
        E 0 80 4b 00
        E 0 80 3d 00
        E 0 80 3f 00
        E 120 90 18 60
        E 0 90 60 60
        E 0 90 54 60
        E 120 80 18 00
        E 0 80 60 00
        E 0 80 54 00
        E 120 80 19 00
        E 0 90 18 60
        E 0 90 26 60
        E 0 90 60 60
        E 0 90 64 60
        E 0 90 54 60
        E 0 90 58 60
        E 0 90 48 60
        E 0 90 4c 60
        E 0 90 40 60
        E 120 80 18 00
        E 0 80 26 00
        E 0 80 60 00
        E 0 80 64 00
        E 0 80 54 00
        E 0 80 58 00
        E 0 80 48 00
        E 0 80 4c 00
        E 0 80 40 00
        <X 120 0
          /wFbaWRsZV0=
        >
        <X 7439 0
          /wFbaWRsZV9yZWFsdGltZV0=
        >
        E 9600 b0 7b 00
        GUID {8FC003E8-D139-4A6B-8C96-2705CAFE4E25}
        IGNTEMPO 0 120.00000000 4 4
        SRCCOLOR 3
        VELLANE 132 128 60
        COLORMAP "C:\Program Files\REAPER (x64)\Data\color_maps\rockband_guitarbass.png"
        CFGEDITVIEW -15101.834372 6.071309 0 12 0 0 0
        CFGEDIT 1 1 0 1 1 0 1 1 1 1 1 0.12500000 53 44 1253 718 0 2 1 1 0.00000000 0 1 1 0 0.500000 0 0 1.000000 64
        KEYSNAP 0 7 "102030050700" 0 "Pentatonic"
        EVTFILTER 0 -1 -1 -1 -1 0 1 0 0 -1.00000000 -1.00000000
      >
    >
  >
  <TRACK '{2FDD5591-59C7-4B97-B399-82CE2BF0E698}'
    NAME "PART BASS"
    PEAKCOL 16576
    BEAT -1
    AUTOMODE 0
    VOLPAN 1.00000000000000 0.00000000000000 -1.00000000000000 -1.00000000000000 1.00000000000000
    MUTESOLO 0 0 0
    IPHASE 0
    ISBUS 0 0
    BUSCOMP 0 0
    SHOWINMIX 1 0.666700 0.500000 1 0.500000 -1 -1 -1
    FREEMODE 0
    SEL 0
    REC 0 0 0 0 0 0 0
    VU 2
    TRACKHEIGHT 0 0
    INQ 0 0 0 0.5000000000 100 0 0 100
    NCHAN 2
    FX 1
    TRACKID {2FDD5591-59C7-4B97-B399-82CE2BF0E698}
    PERF 0
    MIDIOUT -1
    <MIDINOTENAMES
      0 127 "TRILL MARKER"
      0 126 "TREMOLO MARKER"
      0 125 "---"
      0 124 "BRE"
      0 123 "BRE"
      0 122 "BRE"
      0 121 "BRE"
      0 120 "BRE (use all 5)"
      0 119 "----"
      0 116 "OVERDRIVE"
      0 115 "----"
      0 103 "Solo Marker"
      0 102 "Force HOPO Off"
      0 101 "Force HOPO On"
      0 100 "EXPERT Orange"
      0 99 "EXPERT Blue"
      0 98 "EXPERT Yellow"
      0 97 "EXPERT Red"
      0 96 "EXPERT Green"
      0 95 "----"
      0 90 "Force HOPO Off"
      0 89 "Force HOPO On"
      0 88 "HARD Orange"
      0 87 "HARD Blue"
      0 86 "HARD Yellow"
      0 85 "HARD Red"
      0 84 "HARD Green"
      0 77 "----"
      0 76 "MEDIUM Orange"
      0 75 "MEDIUM Blue"
      0 74 "MEDIUM Yellow"
      0 73 "MEDIUM Red"
      0 72 "MEDIUM Green"
      0 65 "----"
      0 64 "EASY Orange"
      0 63 "EASY Blue"
      0 62 "EASY Yellow"
      0 61 "EASY Red"
      0 60 "EASY Green"
      0 59 "Fret 12"
      0 57 "Fret 11"
      0 56 "Fret 10"
      0 55 "Fret 9"
      0 53 "Fret 8"
      0 52 "Fret 7"
      0 50 "Fret 6"
      0 49 "Fret 5"
      0 47 "Fret 4"
      0 45 "Fret 3"
      0 43 "Fret 2"
      0 40 "Fret 1"
    >
    MAINSEND 1 0
    <FXCHAIN
      WNDRECT 0 43 891 559
      SHOW 0
      LASTSEL 0
      DOCKED 0
      BYPASS 0 0
      <VST "VSTi: RBN Preview (RBN)" "rbprev_vst64.dll" 0 ""
        dnBicu5e7f4AAAAAAgAAAAEAAAAAAAAAAgAAAAAAAAAEAAAAAQAAAA==
        AAAQAAMAqgAAABAAAAA=
      >
      FLOATPOS 0 0 0 0
      FXID {92FDE35B-0CE4-4725-87B9-3BEE9A9C5DFB}
      WAK 0
    >
    <ITEM
      POSITION 0.00000000000000
      SNAPOFFS 0.00000000000000
      LENGTH 184.96834400000000
      LOOP 0
      ALLTAKES 0
      SEL 0
      FADEIN 1 0.000000 0.000000 1 0
      FADEOUT 1 0.000000 0.000000 1 0
      MUTE 0
      IGUID {07572117-5867-4BCC-A2D1-7DECB0BBBDAB}
      IID 3
      NAME "PART BASS"
      VOLPAN 1.000000 0.000000 1.000000 -1.000000
      SOFFS 0.00000000000000 0.00000000000000
      PLAYRATE 1.00000000000000 1 0.00000000000000 -1
      CHANMODE 0
      GUID {D1D23DB1-882F-47D7-BBF6-A64AEAA8B28B}
      <SOURCE MIDI
        HASDATA 1 480 QN
        POOLEDEVTS {E1B961A1-0FE9-4145-9D8C-EC94C49B1EA1}
        <X 0 0
          /wNQQVJUIEJBU1M=
        >
        <X 7680 0
          /wFbaWRsZV0=
        >
        <X 38400 0
          /wFbcGxheV0=
        >
        E 0 90 2d 67
        E 0 90 3e 60
        E 0 90 4b 60
        E 0 90 58 60
        E 0 90 64 60
        E 0 90 74 60
        E 120 80 3e 00
        E 0 80 4b 00
        E 0 80 58 00
        E 0 80 64 00
        E 120 90 4b 60
        E 0 90 58 60
        E 0 90 64 60
        E 120 80 4b 00
        E 0 80 58 00
        E 0 80 64 00
        E 120 90 3e 60
        E 0 90 4b 60
        E 0 90 58 60
        E 0 90 64 60
        E 120 80 3e 00
        E 0 80 4b 00
        E 0 80 58 00
        E 0 80 64 00
        E 120 90 4b 60
        E 0 90 58 60
        E 0 90 64 60
        E 120 80 4b 00
        E 0 80 58 00
        E 0 80 64 00
        E 120 90 3e 60
        E 0 90 4b 60
        E 0 90 58 60
        E 0 90 64 60
        E 120 80 3e 00
        E 0 80 4b 00
        E 0 80 58 00
        E 0 80 64 00
        E 120 90 4b 60
        E 0 90 58 60
        E 0 90 64 60
        E 120 80 4b 00
        E 0 80 58 00
        E 0 80 64 00
        E 120 90 3e 60
        E 0 90 4b 60
        E 0 90 58 60
        E 0 90 64 60
        E 120 80 3e 00
        E 0 80 4b 00
        E 0 80 58 00
        E 0 80 64 00
        E 120 90 56 60
        E 0 90 62 60
        E 360 80 56 00
        E 0 80 62 00
        E 120 90 49 60
        E 0 90 56 60
        E 0 90 62 60
        E 120 80 49 00
        E 0 80 56 00
        E 0 80 62 00
        E 120 90 3c 60
        E 0 90 49 60
        E 0 90 56 60
        E 0 90 62 60
        E 120 80 3c 00
        E 0 80 49 00
        E 0 80 56 00
        E 0 80 62 00
        E 120 90 49 60
        E 0 90 56 60
        E 0 90 62 60
        E 120 80 49 00
        E 0 80 56 00
        E 0 80 62 00
        E 120 90 3c 60
        E 0 90 49 60
        E 0 90 56 60
        E 0 90 62 60
        E 120 80 3c 00
        E 0 80 49 00
        E 0 80 56 00
        E 0 80 62 00
        E 120 90 49 60
        E 0 90 56 60
        E 0 90 62 60
        E 120 80 49 00
        E 0 80 56 00
        E 0 80 62 00
        E 120 90 3c 60
        E 0 90 49 60
        E 0 90 56 60
        E 0 90 62 60
        E 120 80 3c 00
        E 0 80 49 00
        E 0 80 56 00
        E 0 80 62 00
        E 120 90 49 60
        E 0 90 56 60
        E 0 90 62 60
        E 120 80 49 00
        E 0 80 56 00
        E 0 80 62 00
        E 120 80 74 00
        E 0 90 3c 60
        E 0 90 49 60
        E 0 90 55 60
        E 0 90 61 60
        E 120 80 3c 00
        E 0 80 49 00
        E 0 80 55 00
        E 0 80 61 00
        E 120 90 49 60
        E 0 90 55 60
        E 0 90 61 60
        E 120 80 49 00
        E 0 80 55 00
        E 0 80 61 00
        E 120 90 3c 60
        E 0 90 49 60
        E 0 90 55 60
        E 0 90 61 60
        E 120 80 3c 00
        E 0 80 49 00
        E 0 80 55 00
        E 0 80 61 00
        E 120 90 49 60
        E 0 90 55 60
        E 0 90 61 60
        E 120 80 49 00
        E 0 80 55 00
        E 0 80 61 00
        E 120 90 3c 60
        E 0 90 49 60
        E 0 90 55 60
        E 0 90 61 60
        E 120 80 3c 00
        E 0 80 49 00
        E 0 80 55 00
        E 0 80 61 00
        E 120 90 55 60
        E 0 90 61 60
        E 120 80 55 00
        E 0 80 61 00
        E 120 90 3c 60
        E 0 90 48 60
        E 0 90 54 60
        E 0 90 60 60
        E 120 80 3c 00
        E 0 80 48 00
        E 240 80 2d 00
        E 120 90 28 65
        E 120 80 54 00
        E 0 80 60 00
        E 120 90 48 60
        E 0 90 54 60
        E 0 90 60 60
        E 120 80 48 00
        E 0 80 54 00
        E 0 80 60 00
        E 120 90 3c 60
        E 0 90 48 60
        E 0 90 54 60
        E 0 90 60 60
        E 120 80 3c 00
        E 0 80 48 00
        E 0 80 54 00
        E 0 80 60 00
        E 120 90 48 60
        E 0 90 54 60
        E 0 90 60 60
        E 120 80 48 00
        E 0 80 54 00
        E 0 80 60 00
        E 120 90 3c 60
        E 0 90 48 60
        E 0 90 54 60
        E 0 90 60 60
        E 120 80 3c 00
        E 0 80 48 00
        E 0 80 54 00
        E 0 80 60 00
        E 120 90 48 60
        E 0 90 54 60
        E 0 90 60 60
        E 120 80 48 00
        E 0 80 54 00
        E 0 80 60 00
        E 120 90 48 60
        E 0 90 54 60
        E 0 90 60 60
        E 120 80 48 00
        E 0 80 54 00
        E 0 80 60 00
        E 120 90 54 60
        E 0 90 60 60
        E 120 80 28 00
        E 0 80 54 00
        E 0 80 60 00
        E 120 90 2d 67
        E 0 90 3e 60
        E 0 90 4b 60
        E 0 90 58 60
        E 0 90 64 60
        E 120 80 3e 00
        E 0 80 4b 00
        E 0 80 58 00
        E 0 80 64 00
        E 120 90 4b 60
        E 0 90 58 60
        E 0 90 64 60
        E 120 80 4b 00
        E 0 80 58 00
        E 0 80 64 00
        E 120 90 3e 60
        E 0 90 4b 60
        E 0 90 58 60
        E 0 90 64 60
        E 120 80 3e 00
        E 0 80 4b 00
        E 0 80 58 00
        E 0 80 64 00
        E 120 90 4b 60
        E 0 90 58 60
        E 0 90 64 60
        E 120 80 4b 00
        E 0 80 58 00
        E 0 80 64 00
        E 120 90 3e 60
        E 0 90 4b 60
        E 0 90 58 60
        E 0 90 64 60
        E 120 80 3e 00
        E 0 80 4b 00
        E 0 80 58 00
        E 0 80 64 00
        E 120 90 4b 60
        E 0 90 58 60
        E 0 90 64 60
        E 120 80 4b 00
        E 0 80 58 00
        E 0 80 64 00
        E 120 90 3e 60
        E 0 90 4b 60
        E 0 90 58 60
        E 0 90 64 60
        E 120 80 3e 00
        E 0 80 4b 00
        E 0 80 58 00
        E 0 80 64 00
        E 120 90 56 60
        E 0 90 62 60
        E 360 80 56 00
        E 0 80 62 00
        E 120 90 49 60
        E 0 90 56 60
        E 0 90 62 60
        E 120 80 49 00
        E 0 80 56 00
        E 0 80 62 00
        E 120 90 3c 60
        E 0 90 49 60
        E 0 90 56 60
        E 0 90 62 60
        E 120 80 3c 00
        E 0 80 49 00
        E 0 80 56 00
        E 0 80 62 00
        E 120 90 49 60
        E 0 90 56 60
        E 0 90 62 60
        E 120 80 49 00
        E 0 80 56 00
        E 0 80 62 00
        E 120 90 3c 60
        E 0 90 49 60
        E 0 90 56 60
        E 0 90 62 60
        E 120 80 3c 00
        E 0 80 49 00
        E 0 80 56 00
        E 0 80 62 00
        E 120 90 49 60
        E 0 90 56 60
        E 0 90 62 60
        E 120 80 49 00
        E 0 80 56 00
        E 0 80 62 00
        E 120 90 49 60
        E 0 90 56 60
        E 0 90 62 60
        E 120 80 49 00
        E 0 80 56 00
        E 0 80 62 00
        E 120 90 56 60
        E 0 90 62 60
        E 120 80 56 00
        E 0 80 62 00
        E 120 90 3d 60
        E 0 90 4a 60
        E 0 90 57 60
        E 0 90 63 60
        E 120 80 3d 00
        E 0 80 4a 00
        E 0 80 57 00
        E 0 80 63 00
        E 120 90 4a 60
        E 0 90 57 60
        E 0 90 63 60
        E 120 80 4a 00
        E 0 80 57 00
        E 0 80 63 00
        E 120 90 3d 60
        E 0 90 4a 60
        E 0 90 57 60
        E 0 90 63 60
        E 120 80 3d 00
        E 0 80 4a 00
        E 0 80 57 00
        E 0 80 63 00
        E 120 90 4a 60
        E 0 90 57 60
        E 0 90 63 60
        E 120 80 4a 00
        E 0 80 57 00
        E 0 80 63 00
        E 120 90 3d 60
        E 0 90 4a 60
        E 0 90 57 60
        E 0 90 63 60
        E 120 80 3d 00
        E 0 80 4a 00
        E 0 80 57 00
        E 0 80 63 00
        E 120 90 4a 60
        E 0 90 57 60
        E 0 90 63 60
        E 120 80 4a 00
        E 0 80 57 00
        E 0 80 63 00
        E 120 90 3d 60
        E 0 90 4a 60
        E 0 90 57 60
        E 0 90 63 60
        E 120 80 3d 00
        E 0 80 4a 00
        E 0 80 57 00
        E 0 80 63 00
        E 120 90 4a 60
        E 0 90 57 60
        E 0 90 63 60
        E 120 80 4a 00
        E 0 80 57 00
        E 0 80 63 00
        E 120 90 3d 60
        E 0 90 4a 60
        E 0 90 57 60
        E 0 90 63 60
        E 120 80 3d 00
        E 0 80 4a 00
        E 0 80 57 00
        E 0 80 63 00
        E 120 90 4a 60
        E 0 90 57 60
        E 0 90 63 60
        E 120 80 4a 00
        E 0 80 57 00
        E 0 80 63 00
        E 120 90 3d 60
        E 0 90 4a 60
        E 0 90 57 60
        E 0 90 63 60
        E 120 80 3d 00
        E 0 80 4a 00
        E 0 80 57 00
        E 0 80 63 00
        E 120 90 4a 60
        E 0 90 57 60
        E 0 90 63 60
        E 120 80 4a 00
        E 0 80 57 00
        E 0 80 63 00
        E 120 90 3d 60
        E 0 90 4a 60
        E 0 90 57 60
        E 0 90 63 60
        E 120 80 3d 00
        E 0 80 4a 00
        E 0 80 57 00
        E 0 80 63 00
        E 120 90 4a 60
        E 0 90 57 60
        E 0 90 63 60
        E 120 80 4a 00
        E 0 80 57 00
        E 0 80 63 00
        E 120 90 4a 60
        E 0 90 57 60
        E 0 90 63 60
        E 120 80 4a 00
        E 0 80 57 00
        E 0 80 63 00
        E 120 90 57 60
        E 0 90 63 60
        E 120 80 57 00
        E 0 80 63 00
        E 120 90 3e 60
        E 0 90 4b 60
        E 0 90 58 60
        E 0 90 64 60
        E 120 80 3e 00
        E 0 80 4b 00
        E 0 80 58 00
        E 0 80 64 00
        E 120 90 4b 60
        E 0 90 58 60
        E 0 90 64 60
        E 120 80 4b 00
        E 0 80 58 00
        E 0 80 64 00
        E 120 90 3e 60
        E 0 90 4b 60
        E 0 90 58 60
        E 0 90 64 60
        E 120 80 3e 00
        E 0 80 4b 00
        E 0 80 58 00
        E 0 80 64 00
        E 120 90 4b 60
        E 0 90 58 60
        E 0 90 64 60
        E 120 80 4b 00
        E 0 80 58 00
        E 0 80 64 00
        E 120 90 3e 60
        E 0 90 4b 60
        E 0 90 58 60
        E 0 90 64 60
        E 120 80 3e 00
        E 0 80 4b 00
        E 0 80 58 00
        E 0 80 64 00
        E 120 90 4b 60
        E 0 90 58 60
        E 0 90 64 60
        E 120 80 4b 00
        E 0 80 58 00
        E 0 80 64 00
        E 120 90 3e 60
        E 0 90 4b 60
        E 0 90 58 60
        E 0 90 64 60
        E 120 80 3e 00
        E 0 80 4b 00
        E 0 80 58 00
        E 0 80 64 00
        E 120 90 56 60
        E 0 90 62 60
        E 360 80 56 00
        E 0 80 62 00
        E 120 90 49 60
        E 0 90 56 60
        E 0 90 62 60
        E 120 80 49 00
        E 0 80 56 00
        E 0 80 62 00
        E 120 90 3c 60
        E 0 90 49 60
        E 0 90 56 60
        E 0 90 62 60
        E 120 80 3c 00
        E 0 80 49 00
        E 0 80 56 00
        E 0 80 62 00
        E 120 90 49 60
        E 0 90 56 60
        E 0 90 62 60
        E 120 80 49 00
        E 0 80 56 00
        E 0 80 62 00
        E 120 90 3c 60
        E 0 90 49 60
        E 0 90 56 60
        E 0 90 62 60
        E 120 80 3c 00
        E 0 80 49 00
        E 0 80 56 00
        E 0 80 62 00
        E 120 90 49 60
        E 0 90 56 60
        E 0 90 62 60
        E 120 80 49 00
        E 0 80 56 00
        E 0 80 62 00
        E 120 90 3c 60
        E 0 90 49 60
        E 0 90 56 60
        E 0 90 62 60
        E 120 80 3c 00
        E 0 80 49 00
        E 0 80 56 00
        E 0 80 62 00
        E 120 90 49 60
        E 0 90 56 60
        E 0 90 62 60
        E 120 80 49 00
        E 0 80 56 00
        E 0 80 62 00
        E 120 90 3c 60
        E 0 90 49 60
        E 0 90 55 60
        E 0 90 61 60
        E 120 80 3c 00
        E 0 80 49 00
        E 0 80 55 00
        E 0 80 61 00
        E 120 90 49 60
        E 0 90 55 60
        E 0 90 61 60
        E 120 80 49 00
        E 0 80 55 00
        E 0 80 61 00
        E 120 90 3c 60
        E 0 90 49 60
        E 0 90 55 60
        E 0 90 61 60
        E 120 80 3c 00
        E 0 80 49 00
        E 0 80 55 00
        E 0 80 61 00
        E 120 90 49 60
        E 0 90 55 60
        E 0 90 61 60
        E 120 80 49 00
        E 0 80 55 00
        E 0 80 61 00
        E 120 90 3c 60
        E 0 90 49 60
        E 0 90 55 60
        E 0 90 61 60
        E 120 80 3c 00
        E 0 80 49 00
        E 0 80 55 00
        E 0 80 61 00
        E 120 90 55 60
        E 0 90 61 60
        E 120 80 55 00
        E 0 80 61 00
        E 120 90 3c 60
        E 0 90 48 60
        E 0 90 54 60
        E 0 90 60 60
        E 120 80 2d 00
        E 0 80 3c 00
        E 0 80 48 00
        E 0 80 54 00
        E 0 80 60 00
        E 120 90 28 65
        E 0 90 48 60
        E 0 90 54 60
        E 0 90 60 60
        E 120 80 48 00
        E 240 80 54 00
        E 0 80 60 00
        E 120 90 48 60
        E 0 90 54 60
        E 0 90 60 60
        E 120 80 48 00
        E 0 80 54 00
        E 0 80 60 00
        E 120 90 3c 60
        E 0 90 48 60
        E 0 90 54 60
        E 0 90 60 60
        E 120 80 3c 00
        E 0 80 48 00
        E 0 80 54 00
        E 0 80 60 00
        E 120 90 48 60
        E 0 90 54 60
        E 0 90 60 60
        E 120 80 48 00
        E 0 80 54 00
        E 0 80 60 00
        E 120 90 3c 60
        E 0 90 48 60
        E 0 90 54 60
        E 0 90 60 60
        E 120 80 3c 00
        E 0 80 48 00
        E 0 80 54 00
        E 0 80 60 00
        E 120 90 48 60
        E 0 90 54 60
        E 0 90 60 60
        E 120 80 48 00
        E 0 80 54 00
        E 0 80 60 00
        E 120 90 48 60
        E 0 90 54 60
        E 0 90 60 60
        E 120 80 48 00
        E 0 80 54 00
        E 0 80 60 00
        E 120 90 54 60
        E 0 90 60 60
        E 120 80 28 00
        E 0 80 54 00
        E 0 80 60 00
        E 120 90 2d 67
        E 0 90 3e 60
        E 0 90 4b 60
        E 0 90 58 60
        E 0 90 64 60
        E 0 90 74 60
        E 120 80 3e 00
        E 0 80 4b 00
        E 0 80 58 00
        E 0 80 64 00
        E 120 90 4b 60
        E 0 90 58 60
        E 0 90 64 60
        E 120 80 4b 00
        E 0 80 58 00
        E 0 80 64 00
        E 120 90 3e 60
        E 0 90 4b 60
        E 0 90 58 60
        E 0 90 64 60
        E 120 80 3e 00
        E 0 80 4b 00
        E 0 80 58 00
        E 0 80 64 00
        E 120 90 4b 60
        E 0 90 58 60
        E 0 90 64 60
        E 120 80 4b 00
        E 0 80 58 00
        E 0 80 64 00
        E 120 90 3e 60
        E 0 90 4b 60
        E 0 90 58 60
        E 0 90 64 60
        E 120 80 3e 00
        E 0 80 4b 00
        E 0 80 58 00
        E 0 80 64 00
        E 120 90 4b 60
        E 0 90 58 60
        E 0 90 64 60
        E 120 80 4b 00
        E 0 80 58 00
        E 0 80 64 00
        E 120 90 3e 60
        E 0 90 4b 60
        E 0 90 58 60
        E 0 90 64 60
        E 120 80 3e 00
        E 0 80 4b 00
        E 0 80 58 00
        E 0 80 64 00
        E 120 90 56 60
        E 0 90 62 60
        E 360 80 74 00
        E 0 80 56 00
        E 0 80 62 00
        E 120 90 49 60
        E 0 90 56 60
        E 0 90 62 60
        E 120 80 49 00
        E 0 80 56 00
        E 0 80 62 00
        E 120 90 3c 60
        E 0 90 49 60
        E 0 90 56 60
        E 0 90 62 60
        E 120 80 3c 00
        E 0 80 49 00
        E 0 80 56 00
        E 0 80 62 00
        E 120 90 49 60
        E 0 90 56 60
        E 0 90 62 60
        E 120 80 49 00
        E 0 80 56 00
        E 0 80 62 00
        E 120 90 3c 60
        E 0 90 49 60
        E 0 90 56 60
        E 0 90 62 60
        E 120 80 3c 00
        E 0 80 49 00
        E 0 80 56 00
        E 0 80 62 00
        E 120 90 49 60
        E 0 90 56 60
        E 0 90 62 60
        E 120 80 49 00
        E 0 80 56 00
        E 0 80 62 00
        E 120 90 49 60
        E 0 90 56 60
        E 0 90 62 60
        E 120 80 49 00
        E 0 80 56 00
        E 0 80 62 00
        E 120 90 56 60
        E 0 90 62 60
        E 120 80 56 00
        E 0 80 62 00
        E 120 90 3d 60
        E 0 90 4a 60
        E 0 90 57 60
        E 0 90 63 60
        E 120 80 3d 00
        E 0 80 4a 00
        E 0 80 57 00
        E 0 80 63 00
        E 120 90 4a 60
        E 0 90 57 60
        E 0 90 63 60
        E 120 80 4a 00
        E 0 80 57 00
        E 0 80 63 00
        E 120 90 3d 60
        E 0 90 4a 60
        E 0 90 57 60
        E 0 90 63 60
        E 120 80 3d 00
        E 0 80 4a 00
        E 0 80 57 00
        E 0 80 63 00
        E 120 90 4a 60
        E 0 90 57 60
        E 0 90 63 60
        E 120 80 4a 00
        E 0 80 57 00
        E 0 80 63 00
        E 120 90 3d 60
        E 0 90 4a 60
        E 0 90 57 60
        E 0 90 63 60
        E 120 80 3d 00
        E 0 80 4a 00
        E 0 80 57 00
        E 0 80 63 00
        E 120 90 4a 60
        E 0 90 57 60
        E 0 90 63 60
        E 120 80 4a 00
        E 0 80 57 00
        E 0 80 63 00
        E 120 90 3d 60
        E 0 90 4a 60
        E 0 90 57 60
        E 0 90 63 60
        E 120 80 3d 00
        E 0 80 4a 00
        E 0 80 57 00
        E 0 80 63 00
        E 120 90 4a 60
        E 0 90 57 60
        E 0 90 63 60
        E 120 80 4a 00
        E 0 80 57 00
        E 0 80 63 00
        E 120 90 3d 60
        E 0 90 4a 60
        E 0 90 57 60
        E 0 90 63 60
        E 120 80 3d 00
        E 0 80 4a 00
        E 0 80 57 00
        E 0 80 63 00
        E 120 90 4a 60
        E 0 90 57 60
        E 0 90 63 60
        E 120 80 4a 00
        E 0 80 57 00
        E 0 80 63 00
        E 120 90 3d 60
        E 0 90 4a 60
        E 0 90 57 60
        E 0 90 63 60
        E 120 80 3d 00
        E 0 80 4a 00
        E 0 80 57 00
        E 0 80 63 00
        E 120 90 4a 60
        E 0 90 57 60
        E 0 90 63 60
        E 120 80 4a 00
        E 0 80 57 00
        E 0 80 63 00
        E 120 90 3d 60
        E 0 90 4a 60
        E 0 90 57 60
        E 0 90 63 60
        E 120 80 3d 00
        E 0 80 4a 00
        E 0 80 57 00
        E 0 80 63 00
        E 120 90 4a 60
        E 0 90 57 60
        E 0 90 63 60
        E 120 80 4a 00
        E 0 80 57 00
        E 0 80 63 00
        E 120 90 4a 60
        E 0 90 57 60
        E 0 90 63 60
        E 120 80 4a 00
        E 0 80 57 00
        E 0 80 63 00
        E 120 90 57 60
        E 0 90 63 60
        E 120 80 57 00
        E 0 80 63 00
        E 120 90 3e 60
        E 0 90 4b 60
        E 0 90 58 60
        E 0 90 64 60
        E 120 80 3e 00
        E 0 80 4b 00
        E 0 80 58 00
        E 0 80 64 00
        E 120 90 4b 60
        E 0 90 58 60
        E 0 90 64 60
        E 120 80 4b 00
        E 0 80 58 00
        E 0 80 64 00
        E 120 90 3e 60
        E 0 90 4b 60
        E 0 90 58 60
        E 0 90 64 60
        E 120 80 3e 00
        E 0 80 4b 00
        E 0 80 58 00
        E 0 80 64 00
        E 120 90 4b 60
        E 0 90 58 60
        E 0 90 64 60
        E 120 80 4b 00
        E 0 80 58 00
        E 0 80 64 00
        E 120 90 3e 60
        E 0 90 4b 60
        E 0 90 58 60
        E 0 90 64 60
        E 120 80 3e 00
        E 0 80 4b 00
        E 0 80 58 00
        E 0 80 64 00
        E 120 90 4b 60
        E 0 90 58 60
        E 0 90 64 60
        E 120 80 4b 00
        E 0 80 58 00
        E 0 80 64 00
        E 120 90 3e 60
        E 0 90 4b 60
        E 0 90 58 60
        E 0 90 64 60
        E 120 80 3e 00
        E 0 80 4b 00
        E 0 80 58 00
        E 0 80 64 00
        E 120 90 56 60
        E 0 90 62 60
        E 360 80 56 00
        E 0 80 62 00
        E 120 90 49 60
        E 0 90 56 60
        E 0 90 62 60
        E 120 80 49 00
        E 0 80 56 00
        E 0 80 62 00
        E 120 90 3c 60
        E 0 90 49 60
        E 0 90 56 60
        E 0 90 62 60
        E 120 80 3c 00
        E 0 80 49 00
        E 0 80 56 00
        E 0 80 62 00
        E 120 90 49 60
        E 0 90 56 60
        E 0 90 62 60
        E 120 80 49 00
        E 0 80 56 00
        E 0 80 62 00
        E 120 90 3c 60
        E 0 90 49 60
        E 0 90 56 60
        E 0 90 62 60
        E 120 80 3c 00
        E 0 80 49 00
        E 0 80 56 00
        E 0 80 62 00
        E 120 90 49 60
        E 0 90 56 60
        E 0 90 62 60
        E 120 80 49 00
        E 0 80 56 00
        E 0 80 62 00
        E 120 90 3c 60
        E 0 90 49 60
        E 0 90 56 60
        E 0 90 62 60
        E 120 80 3c 00
        E 0 80 49 00
        E 0 80 56 00
        E 0 80 62 00
        E 120 90 49 60
        E 0 90 56 60
        E 0 90 62 60
        E 120 80 49 00
        E 0 80 56 00
        E 0 80 62 00
        E 120 90 3c 60
        E 0 90 49 60
        E 0 90 55 60
        E 0 90 61 60
        E 120 80 3c 00
        E 0 80 49 00
        E 0 80 55 00
        E 0 80 61 00
        E 120 90 49 60
        E 0 90 55 60
        E 0 90 61 60
        E 120 80 49 00
        E 0 80 55 00
        E 0 80 61 00
        E 120 90 3c 60
        E 0 90 49 60
        E 0 90 55 60
        E 0 90 61 60
        E 120 80 3c 00
        E 0 80 49 00
        E 0 80 55 00
        E 0 80 61 00
        E 120 90 49 60
        E 0 90 55 60
        E 0 90 61 60
        E 120 80 49 00
        E 0 80 55 00
        E 0 80 61 00
        E 120 90 3c 60
        E 0 90 49 60
        E 0 90 55 60
        E 0 90 61 60
        E 120 80 3c 00
        E 0 80 49 00
        E 0 80 55 00
        E 0 80 61 00
        E 120 90 55 60
        E 0 90 61 60
        E 120 80 55 00
        E 0 80 61 00
        E 120 90 3c 60
        E 0 90 48 60
        E 0 90 54 60
        E 0 90 60 60
        E 120 80 2d 00
        E 0 80 3c 00
        E 0 80 48 00
        E 0 80 54 00
        E 0 80 60 00
        E 120 90 28 65
        E 0 90 48 60
        E 0 90 54 60
        E 0 90 60 60
        E 120 80 48 00
        E 240 80 54 00
        E 0 80 60 00
        E 120 90 48 60
        E 0 90 54 60
        E 0 90 60 60
        E 120 80 48 00
        E 0 80 54 00
        E 0 80 60 00
        E 120 90 3c 60
        E 0 90 48 60
        E 0 90 54 60
        E 0 90 60 60
        E 120 80 3c 00
        E 0 80 48 00
        E 0 80 54 00
        E 0 80 60 00
        E 120 90 48 60
        E 0 90 54 60
        E 0 90 60 60
        E 120 80 48 00
        E 0 80 54 00
        E 0 80 60 00
        E 120 90 3c 60
        E 0 90 48 60
        E 0 90 54 60
        E 0 90 60 60
        E 120 80 3c 00
        E 0 80 48 00
        E 0 80 54 00
        E 0 80 60 00
        E 120 90 48 60
        E 0 90 54 60
        E 0 90 60 60
        E 120 80 48 00
        E 0 80 54 00
        E 0 80 60 00
        E 120 90 48 60
        E 0 90 54 60
        E 0 90 60 60
        E 120 80 48 00
        E 0 80 54 00
        E 0 80 60 00
        E 120 90 54 60
        E 0 90 60 60
        E 120 80 28 00
        E 0 80 54 00
        E 0 80 60 00
        E 120 90 2d 67
        E 0 90 3e 60
        E 0 90 4b 60
        E 0 90 58 60
        E 0 90 64 60
        E 120 80 3e 00
        E 0 80 4b 00
        E 0 80 58 00
        E 0 80 64 00
        E 120 90 4b 60
        E 0 90 58 60
        E 0 90 64 60
        E 120 80 4b 00
        E 0 80 58 00
        E 0 80 64 00
        E 120 90 3e 60
        E 0 90 4b 60
        E 0 90 58 60
        E 0 90 64 60
        E 120 80 3e 00
        E 0 80 4b 00
        E 0 80 58 00
        E 0 80 64 00
        E 120 90 4b 60
        E 0 90 58 60
        E 0 90 64 60
        E 120 80 4b 00
        E 0 80 58 00
        E 0 80 64 00
        E 120 90 3e 60
        E 0 90 4b 60
        E 0 90 58 60
        E 0 90 64 60
        E 120 80 3e 00
        E 0 80 4b 00
        E 0 80 58 00
        E 0 80 64 00
        E 120 90 4b 60
        E 0 90 58 60
        E 0 90 64 60
        E 120 80 4b 00
        E 0 80 58 00
        E 0 80 64 00
        E 120 90 3e 60
        E 0 90 4b 60
        E 0 90 58 60
        E 0 90 64 60
        E 120 80 3e 00
        E 0 80 4b 00
        E 0 80 58 00
        E 0 80 64 00
        E 120 90 56 60
        E 0 90 62 60
        E 360 80 56 00
        E 0 80 62 00
        E 120 90 49 60
        E 0 90 56 60
        E 0 90 62 60
        E 0 90 74 60
        E 120 80 49 00
        E 0 80 56 00
        E 0 80 62 00
        E 120 90 3c 60
        E 0 90 49 60
        E 0 90 56 60
        E 0 90 62 60
        E 120 80 3c 00
        E 0 80 49 00
        E 0 80 56 00
        E 0 80 62 00
        E 120 90 49 60
        E 0 90 56 60
        E 0 90 62 60
        E 120 80 49 00
        E 0 80 56 00
        E 0 80 62 00
        E 120 90 3c 60
        E 0 90 49 60
        E 0 90 56 60
        E 0 90 62 60
        E 120 80 3c 00
        E 0 80 49 00
        E 0 80 56 00
        E 0 80 62 00
        E 120 90 49 60
        E 0 90 56 60
        E 0 90 62 60
        E 120 80 49 00
        E 0 80 56 00
        E 0 80 62 00
        E 120 90 49 60
        E 0 90 56 60
        E 0 90 62 60
        E 120 80 49 00
        E 0 80 56 00
        E 0 80 62 00
        E 120 90 56 60
        E 0 90 62 60
        E 120 80 56 00
        E 0 80 62 00
        E 120 90 3d 60
        E 0 90 4a 60
        E 0 90 57 60
        E 0 90 63 60
        E 120 80 74 00
        E 0 80 3d 00
        E 0 80 4a 00
        E 0 80 57 00
        E 0 80 63 00
        E 120 90 4a 60
        E 0 90 57 60
        E 0 90 63 60
        E 120 80 4a 00
        E 0 80 57 00
        E 0 80 63 00
        E 120 90 3d 60
        E 0 90 4a 60
        E 0 90 57 60
        E 0 90 63 60
        E 120 80 3d 00
        E 0 80 4a 00
        E 0 80 57 00
        E 0 80 63 00
        E 120 90 4a 60
        E 0 90 57 60
        E 0 90 63 60
        E 120 80 4a 00
        E 0 80 57 00
        E 0 80 63 00
        E 120 90 3d 60
        E 0 90 4a 60
        E 0 90 57 60
        E 0 90 63 60
        E 120 80 3d 00
        E 0 80 4a 00
        E 0 80 57 00
        E 0 80 63 00
        E 120 90 4a 60
        E 0 90 57 60
        E 0 90 63 60
        E 120 80 4a 00
        E 0 80 57 00
        E 0 80 63 00
        E 120 90 3d 60
        E 0 90 4a 60
        E 0 90 57 60
        E 0 90 63 60
        E 120 80 3d 00
        E 0 80 4a 00
        E 0 80 57 00
        E 0 80 63 00
        E 120 90 4a 60
        E 0 90 57 60
        E 0 90 63 60
        E 120 80 4a 00
        E 0 80 57 00
        E 0 80 63 00
        E 120 90 3d 60
        E 0 90 4a 60
        E 0 90 57 60
        E 0 90 63 60
        E 120 80 3d 00
        E 0 80 4a 00
        E 0 80 57 00
        E 0 80 63 00
        E 120 90 4a 60
        E 0 90 57 60
        E 0 90 63 60
        E 120 80 4a 00
        E 0 80 57 00
        E 0 80 63 00
        E 120 90 3d 60
        E 0 90 4a 60
        E 0 90 57 60
        E 0 90 63 60
        E 120 80 3d 00
        E 0 80 4a 00
        E 0 80 57 00
        E 0 80 63 00
        E 120 90 4a 60
        E 0 90 57 60
        E 0 90 63 60
        E 120 80 4a 00
        E 0 80 57 00
        E 0 80 63 00
        E 120 90 3d 60
        E 0 90 4a 60
        E 0 90 57 60
        E 0 90 63 60
        E 120 80 3d 00
        E 0 80 4a 00
        E 0 80 57 00
        E 0 80 63 00
        E 120 90 4a 60
        E 0 90 57 60
        E 0 90 63 60
        E 120 80 4a 00
        E 0 80 57 00
        E 0 80 63 00
        E 120 90 4a 60
        E 0 90 57 60
        E 0 90 63 60
        E 120 80 4a 00
        E 0 80 57 00
        E 0 80 63 00
        E 120 90 57 60
        E 0 90 63 60
        E 120 80 57 00
        E 0 80 63 00
        E 120 90 3e 60
        E 0 90 4b 60
        E 0 90 58 60
        E 0 90 64 60
        E 120 80 3e 00
        E 0 80 4b 00
        E 0 80 58 00
        E 0 80 64 00
        E 120 90 4b 60
        E 0 90 58 60
        E 0 90 64 60
        E 120 80 4b 00
        E 0 80 58 00
        E 0 80 64 00
        E 120 90 3e 60
        E 0 90 4b 60
        E 0 90 58 60
        E 0 90 64 60
        E 120 80 3e 00
        E 0 80 4b 00
        E 0 80 58 00
        E 0 80 64 00
        E 120 90 4b 60
        E 0 90 58 60
        E 0 90 64 60
        E 120 80 4b 00
        E 0 80 58 00
        E 0 80 64 00
        E 120 90 3e 60
        E 0 90 4b 60
        E 0 90 58 60
        E 0 90 64 60
        E 120 80 3e 00
        E 0 80 4b 00
        E 0 80 58 00
        E 0 80 64 00
        E 120 90 4b 60
        E 0 90 58 60
        E 0 90 64 60
        E 120 80 4b 00
        E 0 80 58 00
        E 0 80 64 00
        E 120 90 3e 60
        E 0 90 4b 60
        E 0 90 58 60
        E 0 90 64 60
        E 120 80 3e 00
        E 0 80 4b 00
        E 0 80 58 00
        E 0 80 64 00
        E 120 90 56 60
        E 0 90 62 60
        E 360 80 56 00
        E 0 80 62 00
        E 120 90 49 60
        E 0 90 56 60
        E 0 90 62 60
        E 120 80 49 00
        E 0 80 56 00
        E 0 80 62 00
        E 120 90 3c 60
        E 0 90 49 60
        E 0 90 56 60
        E 0 90 62 60
        E 120 80 3c 00
        E 0 80 49 00
        E 0 80 56 00
        E 0 80 62 00
        E 120 90 49 60
        E 0 90 56 60
        E 0 90 62 60
        E 120 80 49 00
        E 0 80 56 00
        E 0 80 62 00
        E 120 90 3c 60
        E 0 90 49 60
        E 0 90 56 60
        E 0 90 62 60
        E 120 80 3c 00
        E 0 80 49 00
        E 0 80 56 00
        E 0 80 62 00
        E 120 90 49 60
        E 0 90 56 60
        E 0 90 62 60
        E 120 80 49 00
        E 0 80 56 00
        E 0 80 62 00
        E 120 90 3c 60
        E 0 90 49 60
        E 0 90 56 60
        E 0 90 62 60
        E 120 80 3c 00
        E 0 80 49 00
        E 0 80 56 00
        E 0 80 62 00
        E 120 90 49 60
        E 0 90 56 60
        E 0 90 62 60
        E 120 80 49 00
        E 0 80 56 00
        E 0 80 62 00
        E 120 90 3c 60
        E 0 90 49 60
        E 0 90 55 60
        E 0 90 61 60
        E 120 80 3c 00
        E 0 80 49 00
        E 0 80 55 00
        E 0 80 61 00
        E 120 90 49 60
        E 0 90 55 60
        E 0 90 61 60
        E 120 80 49 00
        E 0 80 55 00
        E 0 80 61 00
        E 120 90 3c 60
        E 0 90 49 60
        E 0 90 55 60
        E 0 90 61 60
        E 120 80 3c 00
        E 0 80 49 00
        E 0 80 55 00
        E 0 80 61 00
        E 120 90 49 60
        E 0 90 55 60
        E 0 90 61 60
        E 120 80 49 00
        E 0 80 55 00
        E 0 80 61 00
        E 120 90 3c 60
        E 0 90 49 60
        E 0 90 55 60
        E 0 90 61 60
        E 120 80 3c 00
        E 0 80 49 00
        E 0 80 55 00
        E 0 80 61 00
        E 120 90 55 60
        E 0 90 61 60
        E 120 80 55 00
        E 0 80 61 00
        E 120 90 3c 60
        E 0 90 48 60
        E 0 90 54 60
        E 0 90 60 60
        E 120 80 2d 00
        E 0 80 3c 00
        E 0 80 48 00
        E 0 80 54 00
        E 0 80 60 00
        E 120 90 28 65
        E 0 90 48 60
        E 0 90 54 60
        E 0 90 60 60
        E 120 80 48 00
        E 240 80 54 00
        E 0 80 60 00
        E 120 90 48 60
        E 0 90 54 60
        E 0 90 60 60
        E 120 80 48 00
        E 0 80 54 00
        E 0 80 60 00
        E 120 90 3c 60
        E 0 90 48 60
        E 0 90 54 60
        E 0 90 60 60
        E 120 80 3c 00
        E 0 80 48 00
        E 0 80 54 00
        E 0 80 60 00
        E 120 90 48 60
        E 0 90 54 60
        E 0 90 60 60
        E 120 80 48 00
        E 0 80 54 00
        E 0 80 60 00
        E 120 90 3c 60
        E 0 90 48 60
        E 0 90 54 60
        E 0 90 60 60
        E 120 80 3c 00
        E 0 80 48 00
        E 0 80 54 00
        E 0 80 60 00
        E 120 90 48 60
        E 0 90 54 60
        E 0 90 60 60
        E 120 80 48 00
        E 0 80 54 00
        E 0 80 60 00
        E 120 90 48 60
        E 0 90 54 60
        E 0 90 60 60
        E 120 80 48 00
        E 0 80 54 00
        E 0 80 60 00
        E 120 90 54 60
        E 0 90 60 60
        E 120 80 28 00
        E 0 80 54 00
        E 0 80 60 00
        E 120 90 2d 67
        E 0 90 3e 60
        E 0 90 4b 60
        E 0 90 58 60
        E 0 90 64 60
        E 120 80 3e 00
        E 0 80 4b 00
        E 0 80 58 00
        E 0 80 64 00
        E 120 90 4b 60
        E 0 90 58 60
        E 0 90 64 60
        E 120 80 4b 00
        E 0 80 58 00
        E 0 80 64 00
        E 120 90 3e 60
        E 0 90 4b 60
        E 0 90 58 60
        E 0 90 64 60
        E 120 80 3e 00
        E 0 80 4b 00
        E 0 80 58 00
        E 0 80 64 00
        E 120 90 4b 60
        E 0 90 58 60
        E 0 90 64 60
        E 120 80 4b 00
        E 0 80 58 00
        E 0 80 64 00
        E 120 90 3e 60
        E 0 90 4b 60
        E 0 90 58 60
        E 0 90 64 60
        E 120 80 3e 00
        E 0 80 4b 00
        E 0 80 58 00
        E 0 80 64 00
        E 120 90 4b 60
        E 0 90 58 60
        E 0 90 64 60
        E 120 80 4b 00
        E 0 80 58 00
        E 0 80 64 00
        E 120 90 3e 60
        E 0 90 4b 60
        E 0 90 58 60
        E 0 90 64 60
        E 120 80 3e 00
        E 0 80 4b 00
        E 0 80 58 00
        E 0 80 64 00
        E 120 90 56 60
        E 0 90 62 60
        E 360 80 56 00
        E 0 80 62 00
        E 120 90 49 60
        E 0 90 56 60
        E 0 90 62 60
        E 120 80 49 00
        E 0 80 56 00
        E 0 80 62 00
        E 120 90 3c 60
        E 0 90 49 60
        E 0 90 56 60
        E 0 90 62 60
        E 120 80 3c 00
        E 0 80 49 00
        E 0 80 56 00
        E 0 80 62 00
        E 120 90 49 60
        E 0 90 56 60
        E 0 90 62 60
        E 120 80 49 00
        E 0 80 56 00
        E 0 80 62 00
        E 120 90 3c 60
        E 0 90 49 60
        E 0 90 56 60
        E 0 90 62 60
        E 120 80 3c 00
        E 0 80 49 00
        E 0 80 56 00
        E 0 80 62 00
        E 120 90 49 60
        E 0 90 56 60
        E 0 90 62 60
        E 120 80 49 00
        E 0 80 56 00
        E 0 80 62 00
        E 120 90 49 60
        E 0 90 56 60
        E 0 90 62 60
        E 120 80 49 00
        E 0 80 56 00
        E 0 80 62 00
        E 120 90 56 60
        E 0 90 62 60
        E 120 80 56 00
        E 0 80 62 00
        E 120 90 3d 60
        E 0 90 4a 60
        E 0 90 57 60
        E 0 90 63 60
        E 0 90 74 60
        E 120 80 3d 00
        E 0 80 4a 00
        E 0 80 57 00
        E 0 80 63 00
        E 120 90 4a 60
        E 0 90 57 60
        E 0 90 63 60
        E 120 80 4a 00
        E 0 80 57 00
        E 0 80 63 00
        E 120 90 3d 60
        E 0 90 4a 60
        E 0 90 57 60
        E 0 90 63 60
        E 120 80 3d 00
        E 0 80 4a 00
        E 0 80 57 00
        E 0 80 63 00
        E 120 90 4a 60
        E 0 90 57 60
        E 0 90 63 60
        E 120 80 4a 00
        E 0 80 57 00
        E 0 80 63 00
        E 120 90 3d 60
        E 0 90 4a 60
        E 0 90 57 60
        E 0 90 63 60
        E 120 80 3d 00
        E 0 80 4a 00
        E 0 80 57 00
        E 0 80 63 00
        E 120 90 4a 60
        E 0 90 57 60
        E 0 90 63 60
        E 120 80 4a 00
        E 0 80 57 00
        E 0 80 63 00
        E 120 90 3d 60
        E 0 90 4a 60
        E 0 90 57 60
        E 0 90 63 60
        E 120 80 3d 00
        E 0 80 4a 00
        E 0 80 57 00
        E 0 80 63 00
        E 120 90 4a 60
        E 0 90 57 60
        E 0 90 63 60
        E 120 80 4a 00
        E 0 80 57 00
        E 0 80 63 00
        E 120 90 3d 60
        E 0 90 4a 60
        E 0 90 57 60
        E 0 90 63 60
        E 120 80 3d 00
        E 0 80 4a 00
        E 0 80 57 00
        E 0 80 63 00
        E 120 90 4a 60
        E 0 90 57 60
        E 0 90 63 60
        E 120 80 4a 00
        E 0 80 57 00
        E 0 80 63 00
        E 120 90 3d 60
        E 0 90 4a 60
        E 0 90 57 60
        E 0 90 63 60
        E 120 80 3d 00
        E 0 80 4a 00
        E 0 80 57 00
        E 0 80 63 00
        E 120 90 4a 60
        E 0 90 57 60
        E 0 90 63 60
        E 120 80 4a 00
        E 0 80 57 00
        E 0 80 63 00
        E 120 90 3d 60
        E 0 90 4a 60
        E 0 90 57 60
        E 0 90 63 60
        E 120 80 3d 00
        E 0 80 4a 00
        E 0 80 57 00
        E 0 80 63 00
        E 120 90 4a 60
        E 0 90 57 60
        E 0 90 63 60
        E 120 80 4a 00
        E 0 80 57 00
        E 0 80 63 00
        E 120 90 3d 60
        E 0 90 4a 60
        E 0 90 57 60
        E 0 90 63 60
        E 120 80 3d 00
        E 0 80 4a 00
        E 0 80 57 00
        E 0 80 63 00
        E 120 90 4a 60
        E 0 90 57 60
        E 0 90 63 60
        E 120 80 4a 00
        E 0 80 57 00
        E 0 80 63 00
        <X 120 0
          /wFbbWVsbG93XQ==
        >
        E 0 90 3d 60
        E 0 90 4a 60
        E 0 90 57 60
        E 0 90 63 60
        E 120 80 74 00
        <X 3720 0
          /wFbaWRsZV0=
        >
        E 0 80 3d 00
        E 0 80 4a 00
        E 0 80 57 00
        E 0 80 63 00
        <X 3840 0
          /wFbcGxheV0=
        >
        E 0 90 3c 60
        E 0 90 48 60
        E 0 90 54 60
        E 0 90 60 60
        E 120 80 3c 00
        E 0 80 48 00
        E 0 80 54 00
        E 0 80 60 00
        E 120 90 48 60
        E 0 90 54 60
        E 0 90 60 60
        E 120 80 48 00
        E 0 80 54 00
        E 0 80 60 00
        E 120 90 3c 60
        E 0 90 48 60
        E 0 90 54 60
        E 0 90 60 60
        E 120 80 3c 00
        E 0 80 48 00
        E 0 80 54 00
        E 0 80 60 00
        E 120 90 48 60
        E 0 90 54 60
        E 0 90 60 60
        E 120 80 48 00
        E 0 80 54 00
        E 0 80 60 00
        E 120 90 3c 60
        E 0 90 48 60
        E 0 90 54 60
        E 0 90 60 60
        E 120 80 3c 00
        E 0 80 48 00
        E 0 80 54 00
        E 0 80 60 00
        E 120 90 48 60
        E 0 90 54 60
        E 0 90 60 60
        E 120 80 48 00
        E 0 80 54 00
        E 0 80 60 00
        E 120 90 3c 60
        E 0 90 48 60
        E 0 90 54 60
        E 0 90 60 60
        E 120 80 3c 00
        E 0 80 48 00
        E 0 80 54 00
        E 0 80 60 00
        E 120 90 54 60
        E 0 90 60 60
        E 120 80 54 00
        E 0 80 60 00
        E 120 90 3c 60
        E 0 90 49 60
        E 0 90 55 60
        E 0 90 61 60
        E 120 80 3c 00
        E 0 80 49 00
        E 0 80 55 00
        E 0 80 61 00
        E 120 90 49 60
        E 0 90 55 60
        E 0 90 61 60
        E 120 80 49 00
        E 0 80 55 00
        E 0 80 61 00
        E 120 90 3c 60
        E 0 90 49 60
        E 0 90 55 60
        E 0 90 61 60
        E 120 80 3c 00
        E 0 80 49 00
        E 0 80 55 00
        E 0 80 61 00
        E 120 90 49 60
        E 0 90 55 60
        E 0 90 61 60
        E 120 80 49 00
        E 0 80 55 00
        E 0 80 61 00
        E 120 90 3c 60
        E 0 90 49 60
        E 0 90 55 60
        E 0 90 61 60
        E 120 80 3c 00
        E 0 80 49 00
        E 0 80 55 00
        E 0 80 61 00
        E 120 90 49 60
        E 0 90 55 60
        E 0 90 61 60
        E 120 80 49 00
        E 0 80 55 00
        E 0 80 61 00
        E 120 90 3c 60
        E 0 90 49 60
        E 0 90 55 60
        E 0 90 61 60
        E 120 80 3c 00
        E 0 80 49 00
        E 0 80 55 00
        E 0 80 61 00
        E 120 90 49 60
        E 0 90 55 60
        E 0 90 61 60
        E 120 80 49 00
        E 0 80 55 00
        E 0 80 61 00
        E 120 90 3c 60
        E 0 90 49 60
        E 0 90 56 60
        E 0 90 62 60
        E 120 80 3c 00
        E 0 80 49 00
        E 0 80 56 00
        E 0 80 62 00
        E 120 90 49 60
        E 0 90 56 60
        E 0 90 62 60
        E 120 80 49 00
        E 0 80 56 00
        E 0 80 62 00
        E 120 90 3c 60
        E 0 90 49 60
        E 0 90 56 60
        E 0 90 62 60
        E 120 80 3c 00
        E 0 80 49 00
        E 0 80 56 00
        E 0 80 62 00
        E 120 90 49 60
        E 0 90 56 60
        E 0 90 62 60
        E 120 80 49 00
        E 0 80 56 00
        E 0 80 62 00
        E 120 90 3c 60
        E 0 90 49 60
        E 0 90 56 60
        E 0 90 62 60
        E 120 80 3c 00
        E 0 80 49 00
        E 0 80 56 00
        E 0 80 62 00
        E 120 90 49 60
        E 0 90 56 60
        E 0 90 62 60
        E 120 80 49 00
        E 0 80 56 00
        E 0 80 62 00
        E 120 90 3c 60
        E 0 90 49 60
        E 0 90 56 60
        E 0 90 62 60
        E 120 80 3c 00
        E 0 80 49 00
        E 0 80 56 00
        E 0 80 62 00
        E 120 90 49 60
        E 0 90 56 60
        E 0 90 62 60
        E 120 80 49 00
        E 0 80 56 00
        E 0 80 62 00
        E 120 90 3c 60
        E 0 90 49 60
        E 0 90 56 60
        E 0 90 62 60
        E 120 80 3c 00
        E 0 80 49 00
        E 0 80 56 00
        E 0 80 62 00
        E 120 90 49 60
        E 0 90 56 60
        E 0 90 62 60
        E 120 80 49 00
        E 0 80 56 00
        E 0 80 62 00
        E 120 90 3c 60
        E 0 90 49 60
        E 0 90 56 60
        E 0 90 62 60
        E 120 80 3c 00
        E 0 80 49 00
        E 0 80 56 00
        E 0 80 62 00
        E 120 90 49 60
        E 0 90 56 60
        E 0 90 62 60
        E 120 80 49 00
        E 0 80 56 00
        E 0 80 62 00
        E 120 90 3c 60
        E 0 90 49 60
        E 0 90 56 60
        E 0 90 62 60
        E 120 80 3c 00
        E 0 80 49 00
        E 0 80 56 00
        E 0 80 62 00
        E 120 90 49 60
        E 0 90 56 60
        E 0 90 62 60
        E 120 80 49 00
        E 0 80 56 00
        E 0 80 62 00
        E 120 90 49 60
        E 0 90 56 60
        E 0 90 62 60
        E 120 80 49 00
        E 0 80 56 00
        E 0 80 62 00
        E 120 90 56 60
        E 0 90 62 60
        E 120 80 2d 00
        E 0 80 56 00
        E 0 80 62 00
        E 120 90 2b 66
        E 0 90 3e 60
        E 0 90 4b 60
        E 0 90 58 60
        E 0 90 64 60
        E 120 80 3e 00
        E 0 80 4b 00
        E 0 80 58 00
        E 0 80 64 00
        E 120 90 4b 60
        E 0 90 58 60
        E 0 90 64 60
        E 120 80 4b 00
        E 0 80 58 00
        E 0 80 64 00
        E 120 90 3e 60
        E 0 90 4b 60
        E 0 90 58 60
        E 0 90 64 60
        E 120 80 3e 00
        E 0 80 4b 00
        E 0 80 58 00
        E 0 80 64 00
        E 120 90 4b 60
        E 0 90 58 60
        E 0 90 64 60
        E 120 80 4b 00
        E 0 80 58 00
        E 0 80 64 00
        E 120 90 3e 60
        E 0 90 4b 60
        E 0 90 58 60
        E 0 90 64 60
        E 120 80 3e 00
        E 0 80 4b 00
        E 0 80 58 00
        E 0 80 64 00
        E 120 90 4b 60
        E 0 90 58 60
        E 0 90 64 60
        E 120 80 4b 00
        E 0 80 58 00
        E 0 80 64 00
        E 120 90 3e 60
        E 0 90 4b 60
        E 0 90 58 60
        E 0 90 64 60
        E 120 80 3e 00
        E 0 80 4b 00
        E 0 80 58 00
        E 0 80 64 00
        E 120 90 4b 60
        E 0 90 58 60
        E 0 90 64 60
        E 120 80 4b 00
        E 0 80 58 00
        E 0 80 64 00
        E 120 90 3e 60
        E 0 90 4b 60
        E 0 90 58 60
        E 0 90 64 60
        E 0 90 74 60
        E 120 80 3e 00
        E 0 80 4b 00
        E 0 80 58 00
        E 0 80 64 00
        E 120 90 4b 60
        E 0 90 58 60
        E 0 90 64 60
        E 120 80 4b 00
        E 0 80 58 00
        E 0 80 64 00
        E 120 90 3e 60
        E 0 90 4b 60
        E 0 90 58 60
        E 0 90 64 60
        E 120 80 3e 00
        E 0 80 4b 00
        E 0 80 58 00
        E 0 80 64 00
        E 120 90 4b 60
        E 0 90 58 60
        E 0 90 64 60
        E 120 80 4b 00
        E 0 80 58 00
        E 0 80 64 00
        E 120 90 3e 60
        E 0 90 4b 60
        E 0 90 58 60
        E 0 90 64 60
        E 120 80 3e 00
        E 0 80 4b 00
        E 0 80 58 00
        E 0 80 64 00
        E 120 90 4b 60
        E 0 90 58 60
        E 0 90 64 60
        E 120 80 4b 00
        E 0 80 58 00
        E 0 80 64 00
        E 120 90 4b 60
        E 0 90 58 60
        E 0 90 64 60
        E 120 80 4b 00
        E 0 80 58 00
        E 0 80 64 00
        E 120 90 58 60
        E 0 90 64 60
        E 120 80 58 00
        E 0 80 64 00
        E 120 80 74 00
        E 0 90 3d 60
        E 0 90 4a 60
        E 0 90 57 60
        E 0 90 63 60
        E 120 80 3d 00
        E 0 80 4a 00
        E 0 80 57 00
        E 0 80 63 00
        E 120 90 4a 60
        E 0 90 57 60
        E 0 90 63 60
        E 120 80 4a 00
        E 0 80 57 00
        E 0 80 63 00
        E 120 90 3d 60
        E 0 90 4a 60
        E 0 90 57 60
        E 0 90 63 60
        E 120 80 3d 00
        E 0 80 4a 00
        E 0 80 57 00
        E 0 80 63 00
        E 120 90 4a 60
        E 0 90 57 60
        E 0 90 63 60
        E 120 80 4a 00
        E 0 80 57 00
        E 0 80 63 00
        E 120 90 3d 60
        E 0 90 4a 60
        E 0 90 57 60
        E 0 90 63 60
        E 120 80 3d 00
        E 0 80 4a 00
        E 0 80 57 00
        E 0 80 63 00
        E 120 90 4a 60
        E 0 90 57 60
        E 0 90 63 60
        E 120 80 4a 00
        E 0 80 57 00
        E 0 80 63 00
        E 120 90 4a 60
        E 0 90 57 60
        E 0 90 63 60
        E 120 80 4a 00
        E 0 80 57 00
        E 0 80 63 00
        E 120 90 57 60
        E 0 90 63 60
        E 120 80 2b 00
        E 0 80 57 00
        E 0 80 63 00
        E 120 90 2d 67
        E 0 90 3c 60
        E 0 90 49 60
        E 0 90 56 60
        E 0 90 62 60
        E 120 80 3c 00
        E 0 80 49 00
        E 0 80 56 00
        E 0 80 62 00
        E 120 90 49 60
        E 0 90 56 60
        E 0 90 62 60
        E 120 80 49 00
        E 0 80 56 00
        E 0 80 62 00
        E 120 90 3c 60
        E 0 90 49 60
        E 0 90 56 60
        E 0 90 62 60
        E 120 80 3c 00
        E 0 80 49 00
        E 0 80 56 00
        E 0 80 62 00
        E 120 90 49 60
        E 0 90 56 60
        E 0 90 62 60
        E 120 80 49 00
        E 0 80 56 00
        E 0 80 62 00
        E 120 90 3c 60
        E 0 90 49 60
        E 0 90 56 60
        E 0 90 62 60
        E 120 80 3c 00
        E 0 80 49 00
        E 0 80 56 00
        E 0 80 62 00
        E 120 90 49 60
        E 0 90 56 60
        E 0 90 62 60
        E 120 80 49 00
        E 0 80 56 00
        E 0 80 62 00
        E 120 90 3c 60
        E 0 90 49 60
        E 0 90 56 60
        E 0 90 62 60
        E 120 80 3c 00
        E 0 80 49 00
        E 0 80 56 00
        E 0 80 62 00
        E 120 90 56 60
        E 0 90 62 60
        E 120 80 56 00
        E 0 80 62 00
        E 120 90 3c 60
        E 0 90 48 60
        E 0 90 54 60
        E 0 90 60 60
        E 120 80 3c 00
        E 0 80 48 00
        E 0 80 54 00
        E 0 80 60 00
        E 120 90 48 60
        E 0 90 54 60
        E 0 90 60 60
        E 120 80 48 00
        E 0 80 54 00
        E 0 80 60 00
        E 120 90 3c 60
        E 0 90 48 60
        E 0 90 54 60
        E 0 90 60 60
        E 120 80 3c 00
        E 0 80 48 00
        E 0 80 54 00
        E 0 80 60 00
        E 120 90 48 60
        E 0 90 54 60
        E 0 90 60 60
        E 120 80 48 00
        E 0 80 54 00
        E 0 80 60 00
        E 120 90 3c 60
        E 0 90 48 60
        E 0 90 54 60
        E 0 90 60 60
        E 120 80 3c 00
        E 0 80 48 00
        E 0 80 54 00
        E 0 80 60 00
        E 120 90 48 60
        E 0 90 54 60
        E 0 90 60 60
        E 120 80 48 00
        E 0 80 54 00
        E 0 80 60 00
        E 120 90 3c 60
        E 0 90 48 60
        E 0 90 54 60
        E 0 90 60 60
        E 120 80 3c 00
        E 0 80 48 00
        E 0 80 54 00
        E 0 80 60 00
        E 120 90 54 60
        E 0 90 60 60
        E 120 80 54 00
        E 0 80 60 00
        E 120 90 3c 60
        E 0 90 49 60
        E 0 90 55 60
        E 0 90 61 60
        E 120 80 3c 00
        E 0 80 49 00
        E 0 80 55 00
        E 0 80 61 00
        E 120 90 49 60
        E 0 90 55 60
        E 0 90 61 60
        E 120 80 49 00
        E 0 80 55 00
        E 0 80 61 00
        E 120 90 3c 60
        E 0 90 49 60
        E 0 90 55 60
        E 0 90 61 60
        E 120 80 3c 00
        E 0 80 49 00
        E 0 80 55 00
        E 0 80 61 00
        E 120 90 49 60
        E 0 90 55 60
        E 0 90 61 60
        E 120 80 49 00
        E 0 80 55 00
        E 0 80 61 00
        E 120 90 3c 60
        E 0 90 49 60
        E 0 90 55 60
        E 0 90 61 60
        E 120 80 3c 00
        E 0 80 49 00
        E 0 80 55 00
        E 0 80 61 00
        E 120 90 49 60
        E 0 90 55 60
        E 0 90 61 60
        E 120 80 49 00
        E 0 80 55 00
        E 0 80 61 00
        E 120 90 3c 60
        E 0 90 49 60
        E 0 90 55 60
        E 0 90 61 60
        E 120 80 3c 00
        E 0 80 49 00
        E 0 80 55 00
        E 0 80 61 00
        E 120 90 49 60
        E 0 90 55 60
        E 0 90 61 60
        E 120 80 49 00
        E 0 80 55 00
        E 0 80 61 00
        E 120 90 3c 60
        E 0 90 49 60
        E 0 90 56 60
        E 0 90 62 60
        E 120 80 3c 00
        E 0 80 49 00
        E 0 80 56 00
        E 0 80 62 00
        E 120 90 49 60
        E 0 90 56 60
        E 0 90 62 60
        E 120 80 49 00
        E 0 80 56 00
        E 0 80 62 00
        E 120 90 3c 60
        E 0 90 49 60
        E 0 90 56 60
        E 0 90 62 60
        E 120 80 3c 00
        E 0 80 49 00
        E 0 80 56 00
        E 0 80 62 00
        E 120 90 49 60
        E 0 90 56 60
        E 0 90 62 60
        E 120 80 49 00
        E 0 80 56 00
        E 0 80 62 00
        E 120 90 3c 60
        E 0 90 49 60
        E 0 90 56 60
        E 0 90 62 60
        E 120 80 3c 00
        E 0 80 49 00
        E 0 80 56 00
        E 0 80 62 00
        E 120 90 49 60
        E 0 90 56 60
        E 0 90 62 60
        E 120 80 49 00
        E 0 80 56 00
        E 0 80 62 00
        E 120 90 3c 60
        E 0 90 49 60
        E 0 90 56 60
        E 0 90 62 60
        E 120 80 3c 00
        E 0 80 49 00
        E 0 80 56 00
        E 0 80 62 00
        E 120 90 49 60
        E 0 90 56 60
        E 0 90 62 60
        E 120 80 49 00
        E 0 80 56 00
        E 0 80 62 00
        E 120 90 3c 60
        E 0 90 49 60
        E 0 90 56 60
        E 0 90 62 60
        E 120 80 3c 00
        E 0 80 49 00
        E 0 80 56 00
        E 0 80 62 00
        E 120 90 49 60
        E 0 90 56 60
        E 0 90 62 60
        E 120 80 49 00
        E 0 80 56 00
        E 0 80 62 00
        E 120 90 3c 60
        E 0 90 49 60
        E 0 90 56 60
        E 0 90 62 60
        E 120 80 3c 00
        E 0 80 49 00
        E 0 80 56 00
        E 0 80 62 00
        E 120 90 49 60
        E 0 90 56 60
        E 0 90 62 60
        E 120 80 49 00
        E 0 80 56 00
        E 0 80 62 00
        E 120 90 3c 60
        E 0 90 49 60
        E 0 90 56 60
        E 0 90 62 60
        E 120 80 3c 00
        E 0 80 49 00
        E 0 80 56 00
        E 0 80 62 00
        E 120 90 49 60
        E 0 90 56 60
        E 0 90 62 60
        E 120 80 49 00
        E 0 80 56 00
        E 0 80 62 00
        E 120 90 3c 60
        E 0 90 49 60
        E 0 90 56 60
        E 0 90 62 60
        E 120 80 3c 00
        E 0 80 49 00
        E 0 80 56 00
        E 0 80 62 00
        E 120 90 49 60
        E 0 90 56 60
        E 0 90 62 60
        E 120 80 2d 00
        E 0 80 49 00
        E 0 80 56 00
        E 0 80 62 00
        <X 120 0
          /wFbaWRsZV0=
        >
        <X 15360 0
          /wFbaW50ZW5zZV0=
        >
        E 0 90 2b 66
        E 0 90 3e 60
        E 0 90 4b 60
        E 0 90 58 60
        E 0 90 64 60
        E 0 90 74 60
        E 120 80 3e 00
        E 0 80 4b 00
        E 0 80 58 00
        E 0 80 64 00
        E 120 90 4b 60
        E 0 90 58 60
        E 0 90 64 60
        E 120 80 4b 00
        E 0 80 58 00
        E 0 80 64 00
        E 120 90 3e 60
        E 0 90 4b 60
        E 0 90 58 60
        E 0 90 64 60
        E 120 80 3e 00
        E 0 80 4b 00
        E 0 80 58 00
        E 0 80 64 00
        E 120 90 4b 60
        E 0 90 58 60
        E 0 90 64 60
        E 120 80 4b 00
        E 0 80 58 00
        E 0 80 64 00
        E 120 90 3e 60
        E 0 90 4b 60
        E 0 90 58 60
        E 0 90 64 60
        E 120 80 3e 00
        E 0 80 4b 00
        E 0 80 58 00
        E 0 80 64 00
        E 120 90 4b 60
        E 0 90 58 60
        E 0 90 64 60
        E 120 80 4b 00
        E 0 80 58 00
        E 0 80 64 00
        E 120 90 3e 60
        E 0 90 4b 60
        E 0 90 58 60
        E 0 90 64 60
        E 120 80 3e 00
        E 0 80 4b 00
        E 0 80 58 00
        E 0 80 64 00
        E 120 90 4b 60
        E 0 90 58 60
        E 0 90 64 60
        E 120 80 4b 00
        E 0 80 58 00
        E 0 80 64 00
        E 120 90 3e 60
        E 0 90 4b 60
        E 0 90 58 60
        E 0 90 64 60
        E 120 80 3e 00
        E 0 80 4b 00
        E 0 80 58 00
        E 0 80 64 00
        E 120 90 4b 60
        E 0 90 58 60
        E 0 90 64 60
        E 120 80 4b 00
        E 0 80 58 00
        E 0 80 64 00
        E 120 90 3e 60
        E 0 90 4b 60
        E 0 90 58 60
        E 0 90 64 60
        E 120 80 3e 00
        E 0 80 4b 00
        E 0 80 58 00
        E 0 80 64 00
        E 120 90 4b 60
        E 0 90 58 60
        E 0 90 64 60
        E 120 80 4b 00
        E 0 80 58 00
        E 0 80 64 00
        E 120 90 3e 60
        E 0 90 4b 60
        E 0 90 58 60
        E 0 90 64 60
        E 120 80 3e 00
        E 0 80 4b 00
        E 0 80 58 00
        E 0 80 64 00
        E 120 90 4b 60
        E 0 90 58 60
        E 0 90 64 60
        E 120 80 4b 00
        E 0 80 58 00
        E 0 80 64 00
        E 120 90 4b 60
        E 0 90 58 60
        E 0 90 64 60
        E 120 80 4b 00
        E 0 80 58 00
        E 0 80 64 00
        E 120 90 58 60
        E 0 90 64 60
        E 120 80 58 00
        E 0 80 64 00
        E 120 80 74 00
        E 0 90 3d 60
        E 0 90 4a 60
        E 0 90 57 60
        E 0 90 63 60
        E 120 80 3d 00
        E 0 80 4a 00
        E 0 80 57 00
        E 0 80 63 00
        E 120 90 4a 60
        E 0 90 57 60
        E 0 90 63 60
        E 120 80 4a 00
        E 0 80 57 00
        E 0 80 63 00
        E 120 90 3d 60
        E 0 90 4a 60
        E 0 90 57 60
        E 0 90 63 60
        E 120 80 3d 00
        E 0 80 4a 00
        E 0 80 57 00
        E 0 80 63 00
        E 120 90 4a 60
        E 0 90 57 60
        E 0 90 63 60
        E 120 80 4a 00
        E 0 80 57 00
        E 0 80 63 00
        E 120 90 3d 60
        E 0 90 4a 60
        E 0 90 57 60
        E 0 90 63 60
        E 120 80 3d 00
        E 0 80 4a 00
        E 0 80 57 00
        E 0 80 63 00
        E 120 90 4a 60
        E 0 90 57 60
        E 0 90 63 60
        E 120 80 4a 00
        E 0 80 57 00
        E 0 80 63 00
        E 120 90 4a 60
        E 0 90 57 60
        E 0 90 63 60
        E 120 80 4a 00
        E 0 80 57 00
        E 0 80 63 00
        E 120 90 57 60
        E 0 90 63 60
        E 120 80 57 00
        E 0 80 63 00
        E 120 90 3c 60
        E 0 90 49 60
        E 0 90 56 60
        E 0 90 62 60
        E 120 80 3c 00
        E 0 80 49 00
        E 0 80 56 00
        E 0 80 62 00
        E 120 90 49 60
        E 0 90 56 60
        E 0 90 62 60
        E 120 80 49 00
        E 0 80 56 00
        E 0 80 62 00
        E 120 90 3c 60
        E 0 90 49 60
        E 0 90 56 60
        E 0 90 62 60
        E 120 80 3c 00
        E 0 80 49 00
        E 0 80 56 00
        E 0 80 62 00
        E 120 90 49 60
        E 0 90 56 60
        E 0 90 62 60
        E 120 80 49 00
        E 0 80 56 00
        E 0 80 62 00
        E 120 90 3c 60
        E 0 90 49 60
        E 0 90 56 60
        E 0 90 62 60
        E 120 80 3c 00
        E 0 80 49 00
        E 0 80 56 00
        E 0 80 62 00
        E 120 90 49 60
        E 0 90 56 60
        E 0 90 62 60
        E 120 80 49 00
        E 0 80 56 00
        E 0 80 62 00
        E 120 90 49 60
        E 0 90 56 60
        E 0 90 62 60
        E 120 80 49 00
        E 0 80 56 00
        E 0 80 62 00
        E 120 90 56 60
        E 0 90 62 60
        E 120 80 56 00
        E 0 80 62 00
        E 0 90 63 60
        E 0 90 65 60
        E 120 80 63 00
        E 0 90 3e 60
        E 0 90 4b 60
        E 0 90 58 60
        E 0 90 64 60
        E 120 80 65 00
        E 0 80 3e 00
        E 0 80 4b 00
        E 0 80 58 00
        E 0 80 64 00
        E 120 90 4b 60
        E 0 90 58 60
        E 0 90 64 60
        E 120 80 4b 00
        E 0 80 58 00
        E 0 80 64 00
        E 120 90 3e 60
        E 0 90 4b 60
        E 0 90 58 60
        E 0 90 64 60
        E 120 80 3e 00
        E 0 80 4b 00
        E 0 80 58 00
        E 0 80 64 00
        E 120 90 4b 60
        E 0 90 58 60
        E 0 90 64 60
        E 120 80 4b 00
        E 0 80 58 00
        E 0 80 64 00
        E 120 90 3e 60
        E 0 90 4b 60
        E 0 90 58 60
        E 0 90 64 60
        E 120 80 3e 00
        E 0 80 4b 00
        E 0 80 58 00
        E 0 80 64 00
        E 120 90 4b 60
        E 0 90 58 60
        E 0 90 64 60
        E 120 80 4b 00
        E 0 80 58 00
        E 0 80 64 00
        E 120 90 3e 60
        E 0 90 4b 60
        E 0 90 58 60
        E 0 90 64 60
        E 120 80 3e 00
        E 0 80 4b 00
        E 0 80 58 00
        E 0 80 64 00
        E 120 90 4b 60
        E 0 90 58 60
        E 0 90 64 60
        E 120 80 4b 00
        E 0 80 58 00
        E 0 80 64 00
        E 120 90 3e 60
        E 0 90 4b 60
        E 0 90 58 60
        E 0 90 64 60
        E 120 80 3e 00
        E 0 80 4b 00
        E 0 80 58 00
        E 0 80 64 00
        E 120 90 4b 60
        E 0 90 58 60
        E 0 90 64 60
        E 120 80 4b 00
        E 0 80 58 00
        E 0 80 64 00
        E 120 90 3e 60
        E 0 90 4b 60
        E 0 90 58 60
        E 0 90 64 60
        E 120 80 3e 00
        E 0 80 4b 00
        E 0 80 58 00
        E 0 80 64 00
        E 120 90 4b 60
        E 0 90 58 60
        E 0 90 64 60
        E 120 80 4b 00
        E 0 80 58 00
        E 0 80 64 00
        E 120 90 3e 60
        E 0 90 4b 60
        E 0 90 58 60
        E 0 90 64 60
        E 120 80 3e 00
        E 0 80 4b 00
        E 0 80 58 00
        E 0 80 64 00
        E 120 90 4b 60
        E 0 90 58 60
        E 0 90 64 60
        E 120 80 4b 00
        E 0 80 58 00
        E 0 80 64 00
        E 120 90 4b 60
        E 0 90 58 60
        E 0 90 64 60
        E 120 80 4b 00
        E 0 80 58 00
        E 0 80 64 00
        E 120 90 58 60
        E 0 90 64 60
        E 120 80 58 00
        E 0 80 64 00
        E 120 90 3d 60
        E 0 90 4a 60
        E 0 90 57 60
        E 0 90 63 60
        E 120 80 3d 00
        E 0 80 4a 00
        E 0 80 57 00
        E 0 80 63 00
        E 120 90 4a 60
        E 0 90 57 60
        E 0 90 63 60
        E 120 80 4a 00
        E 0 80 57 00
        E 0 80 63 00
        E 120 90 3d 60
        E 0 90 4a 60
        E 0 90 57 60
        E 0 90 63 60
        E 120 80 3d 00
        E 0 80 4a 00
        E 0 80 57 00
        E 0 80 63 00
        E 120 90 4a 60
        E 0 90 57 60
        E 0 90 63 60
        E 120 80 4a 00
        E 0 80 57 00
        E 0 80 63 00
        E 120 90 3d 60
        E 0 90 4a 60
        E 0 90 57 60
        E 0 90 63 60
        E 120 80 3d 00
        E 0 80 4a 00
        E 0 80 57 00
        E 0 80 63 00
        E 120 90 4a 60
        E 0 90 57 60
        E 0 90 63 60
        E 120 80 4a 00
        E 0 80 57 00
        E 0 80 63 00
        E 120 90 4a 60
        E 0 90 57 60
        E 0 90 63 60
        E 120 80 4a 00
        E 0 80 57 00
        E 0 80 63 00
        E 120 90 57 60
        E 0 90 63 60
        E 120 80 57 00
        E 0 80 63 00
        E 120 90 3c 60
        E 0 90 49 60
        E 0 90 56 60
        E 0 90 62 60
        E 120 80 3c 00
        E 0 80 49 00
        E 0 80 56 00
        E 0 80 62 00
        E 120 90 49 60
        E 0 90 56 60
        E 0 90 62 60
        E 120 80 49 00
        E 0 80 56 00
        E 0 80 62 00
        E 120 90 3c 60
        E 0 90 49 60
        E 0 90 56 60
        E 0 90 62 60
        E 120 80 3c 00
        E 0 80 49 00
        E 0 80 56 00
        E 0 80 62 00
        E 120 90 49 60
        E 0 90 56 60
        E 0 90 62 60
        E 120 80 49 00
        E 0 80 56 00
        E 0 80 62 00
        E 120 90 3c 60
        E 0 90 49 60
        E 0 90 56 60
        E 0 90 62 60
        E 120 80 3c 00
        E 0 80 49 00
        E 0 80 56 00
        E 0 80 62 00
        E 120 90 49 60
        E 0 90 56 60
        E 0 90 62 60
        E 120 80 49 00
        E 0 80 56 00
        E 0 80 62 00
        E 120 90 49 60
        E 0 90 56 60
        E 0 90 62 60
        E 120 80 49 00
        E 0 80 56 00
        E 0 80 62 00
        E 120 90 56 60
        E 0 90 62 60
        E 120 80 56 00
        E 0 80 62 00
        E 0 90 63 60
        E 0 90 65 60
        E 120 80 63 00
        E 0 90 3e 60
        E 0 90 4b 60
        E 0 90 58 60
        E 0 90 64 60
        E 120 80 65 00
        E 0 80 3e 00
        E 0 80 4b 00
        E 0 80 58 00
        E 0 80 64 00
        E 120 90 4b 60
        E 0 90 58 60
        E 0 90 64 60
        E 120 80 4b 00
        E 0 80 58 00
        E 0 80 64 00
        E 120 90 3e 60
        E 0 90 4b 60
        E 0 90 58 60
        E 0 90 64 60
        E 120 80 3e 00
        E 0 80 4b 00
        E 0 80 58 00
        E 0 80 64 00
        E 120 90 4b 60
        E 0 90 58 60
        E 0 90 64 60
        E 120 80 4b 00
        E 0 80 58 00
        E 0 80 64 00
        E 120 90 3e 60
        E 0 90 4b 60
        E 0 90 58 60
        E 0 90 64 60
        E 120 80 3e 00
        E 0 80 4b 00
        E 0 80 58 00
        E 0 80 64 00
        E 120 90 4b 60
        E 0 90 58 60
        E 0 90 64 60
        E 120 80 4b 00
        E 0 80 58 00
        E 0 80 64 00
        E 120 90 3e 60
        E 0 90 4b 60
        E 0 90 58 60
        E 0 90 64 60
        E 120 80 3e 00
        E 0 80 4b 00
        E 0 80 58 00
        E 0 80 64 00
        E 120 90 4b 60
        E 0 90 58 60
        E 0 90 64 60
        E 120 80 4b 00
        E 0 80 58 00
        E 0 80 64 00
        E 120 90 3e 60
        E 0 90 4b 60
        E 0 90 58 60
        E 0 90 64 60
        E 120 80 3e 00
        E 0 80 4b 00
        E 0 80 58 00
        E 0 80 64 00
        E 120 90 4b 60
        E 0 90 58 60
        E 0 90 64 60
        E 120 80 4b 00
        E 0 80 58 00
        E 0 80 64 00
        E 120 90 3e 60
        E 0 90 4b 60
        E 0 90 58 60
        E 0 90 64 60
        E 120 80 3e 00
        E 0 80 4b 00
        E 0 80 58 00
        E 0 80 64 00
        E 120 90 4b 60
        E 0 90 58 60
        E 0 90 64 60
        E 120 80 4b 00
        E 0 80 58 00
        E 0 80 64 00
        E 120 90 3e 60
        E 0 90 4b 60
        E 0 90 58 60
        E 0 90 64 60
        E 120 80 3e 00
        E 0 80 4b 00
        E 0 80 58 00
        E 0 80 64 00
        E 120 90 4b 60
        E 0 90 58 60
        E 0 90 64 60
        E 120 80 4b 00
        E 0 80 58 00
        E 0 80 64 00
        E 120 90 4b 60
        E 0 90 58 60
        E 0 90 64 60
        E 120 80 4b 00
        E 0 80 58 00
        E 0 80 64 00
        E 120 90 58 60
        E 0 90 64 60
        E 120 80 58 00
        E 0 80 64 00
        E 120 90 3d 60
        E 0 90 4a 60
        E 0 90 57 60
        E 0 90 63 60
        E 120 80 3d 00
        E 0 80 4a 00
        E 0 80 57 00
        E 0 80 63 00
        E 120 90 4a 60
        E 0 90 57 60
        E 0 90 63 60
        E 120 80 4a 00
        E 0 80 57 00
        E 0 80 63 00
        E 120 90 3d 60
        E 0 90 4a 60
        E 0 90 57 60
        E 0 90 63 60
        E 120 80 3d 00
        E 0 80 4a 00
        E 0 80 57 00
        E 0 80 63 00
        E 120 90 4a 60
        E 0 90 57 60
        E 0 90 63 60
        E 120 80 4a 00
        E 0 80 57 00
        E 0 80 63 00
        E 120 90 3d 60
        E 0 90 4a 60
        E 0 90 57 60
        E 0 90 63 60
        E 120 80 3d 00
        E 0 80 4a 00
        E 0 80 57 00
        E 0 80 63 00
        E 120 90 4a 60
        E 0 90 57 60
        E 0 90 63 60
        E 120 80 4a 00
        E 0 80 57 00
        E 0 80 63 00
        E 120 90 4a 60
        E 0 90 57 60
        E 0 90 63 60
        E 120 80 4a 00
        E 0 80 57 00
        E 0 80 63 00
        E 120 90 57 60
        E 0 90 63 60
        E 120 80 57 00
        E 0 80 63 00
        E 120 90 3c 60
        E 0 90 49 60
        E 0 90 56 60
        E 0 90 62 60
        E 120 80 3c 00
        E 0 80 49 00
        E 0 80 56 00
        E 0 80 62 00
        E 120 90 49 60
        E 0 90 56 60
        E 0 90 62 60
        E 120 80 49 00
        E 0 80 56 00
        E 0 80 62 00
        E 120 90 3c 60
        E 0 90 49 60
        E 0 90 56 60
        E 0 90 62 60
        E 120 80 3c 00
        E 0 80 49 00
        E 0 80 56 00
        E 0 80 62 00
        E 120 90 49 60
        E 0 90 56 60
        E 0 90 62 60
        E 120 80 49 00
        E 0 80 56 00
        E 0 80 62 00
        E 120 90 3c 60
        E 0 90 49 60
        E 0 90 56 60
        E 0 90 62 60
        E 120 80 3c 00
        E 0 80 49 00
        E 0 80 56 00
        E 0 80 62 00
        E 120 90 49 60
        E 0 90 56 60
        E 0 90 62 60
        E 120 80 49 00
        E 0 80 56 00
        E 0 80 62 00
        E 120 90 49 60
        E 0 90 56 60
        E 0 90 62 60
        E 120 80 49 00
        E 0 80 56 00
        E 0 80 62 00
        E 120 90 56 60
        E 0 90 62 60
        E 120 80 56 00
        E 0 80 62 00
        E 0 90 63 60
        E 0 90 65 60
        E 120 80 63 00
        E 0 90 3e 60
        E 0 90 4b 60
        E 0 90 58 60
        E 0 90 64 60
        E 120 80 65 00
        E 0 80 3e 00
        E 0 80 4b 00
        E 0 80 58 00
        E 0 80 64 00
        E 120 90 4b 60
        E 0 90 58 60
        E 0 90 64 60
        E 120 80 4b 00
        E 0 80 58 00
        E 0 80 64 00
        E 120 90 3e 60
        E 0 90 4b 60
        E 0 90 58 60
        E 0 90 64 60
        E 120 80 3e 00
        E 0 80 4b 00
        E 0 80 58 00
        E 0 80 64 00
        E 120 90 4b 60
        E 0 90 58 60
        E 0 90 64 60
        E 120 80 4b 00
        E 0 80 58 00
        E 0 80 64 00
        E 120 90 3e 60
        E 0 90 4b 60
        E 0 90 58 60
        E 0 90 64 60
        E 120 80 3e 00
        E 0 80 4b 00
        E 0 80 58 00
        E 0 80 64 00
        E 120 90 4b 60
        E 0 90 58 60
        E 0 90 64 60
        E 120 80 4b 00
        E 0 80 58 00
        E 0 80 64 00
        E 120 90 3e 60
        E 0 90 4b 60
        E 0 90 58 60
        E 0 90 64 60
        E 120 80 3e 00
        E 0 80 4b 00
        E 0 80 58 00
        E 0 80 64 00
        E 120 90 4b 60
        E 0 90 58 60
        E 0 90 64 60
        E 120 80 4b 00
        E 0 80 58 00
        E 0 80 64 00
        E 120 90 3e 60
        E 0 90 4b 60
        E 0 90 58 60
        E 0 90 64 60
        E 120 80 3e 00
        E 0 80 4b 00
        E 0 80 58 00
        E 0 80 64 00
        E 120 90 4b 60
        E 0 90 58 60
        E 0 90 64 60
        E 120 80 4b 00
        E 0 80 58 00
        E 0 80 64 00
        E 120 90 3e 60
        E 0 90 4b 60
        E 0 90 58 60
        E 0 90 64 60
        E 120 80 3e 00
        E 0 80 4b 00
        E 0 80 58 00
        E 0 80 64 00
        E 120 90 4b 60
        E 0 90 58 60
        E 0 90 64 60
        E 120 80 4b 00
        E 0 80 58 00
        E 0 80 64 00
        E 120 90 3e 60
        E 0 90 4b 60
        E 0 90 58 60
        E 0 90 64 60
        E 120 80 3e 00
        E 0 80 4b 00
        E 0 80 58 00
        E 0 80 64 00
        E 120 90 4b 60
        E 0 90 58 60
        E 0 90 64 60
        E 120 80 4b 00
        E 0 80 58 00
        E 0 80 64 00
        E 120 90 4b 60
        E 0 90 58 60
        E 0 90 64 60
        E 120 80 4b 00
        E 0 80 58 00
        E 0 80 64 00
        E 120 90 58 60
        E 0 90 64 60
        E 120 80 58 00
        E 0 80 64 00
        E 120 90 3d 60
        E 0 90 4a 60
        E 0 90 57 60
        E 0 90 63 60
        E 0 90 74 60
        E 120 80 3d 00
        E 0 80 4a 00
        E 0 80 57 00
        E 0 80 63 00
        E 120 90 4a 60
        E 0 90 57 60
        E 0 90 63 60
        E 120 80 4a 00
        E 0 80 57 00
        E 0 80 63 00
        E 120 90 3d 60
        E 0 90 4a 60
        E 0 90 57 60
        E 0 90 63 60
        E 120 80 3d 00
        E 0 80 4a 00
        E 0 80 57 00
        E 0 80 63 00
        E 120 90 4a 60
        E 0 90 57 60
        E 0 90 63 60
        E 120 80 4a 00
        E 0 80 57 00
        E 0 80 63 00
        E 120 90 3d 60
        E 0 90 4a 60
        E 0 90 57 60
        E 0 90 63 60
        E 120 80 3d 00
        E 0 80 4a 00
        E 0 80 57 00
        E 0 80 63 00
        E 120 90 4a 60
        E 0 90 57 60
        E 0 90 63 60
        E 120 80 4a 00
        E 0 80 57 00
        E 0 80 63 00
        E 120 90 4a 60
        E 0 90 57 60
        E 0 90 63 60
        E 120 80 4a 00
        E 0 80 57 00
        E 0 80 63 00
        E 120 90 57 60
        E 0 90 63 60
        E 120 80 57 00
        E 0 80 63 00
        E 120 90 3c 60
        E 0 90 49 60
        E 0 90 56 60
        E 0 90 62 60
        E 120 80 3c 00
        E 0 80 49 00
        E 0 80 56 00
        E 0 80 62 00
        E 120 90 49 60
        E 0 90 56 60
        E 0 90 62 60
        E 120 80 49 00
        E 0 80 56 00
        E 0 80 62 00
        E 120 90 3c 60
        E 0 90 49 60
        E 0 90 56 60
        E 0 90 62 60
        E 120 80 3c 00
        E 0 80 49 00
        E 0 80 56 00
        E 0 80 62 00
        E 120 90 49 60
        E 0 90 56 60
        E 0 90 62 60
        E 120 80 49 00
        E 0 80 56 00
        E 0 80 62 00
        E 120 90 3c 60
        E 0 90 49 60
        E 0 90 56 60
        E 0 90 62 60
        E 120 80 3c 00
        E 0 80 49 00
        E 0 80 56 00
        E 0 80 62 00
        E 120 90 49 60
        E 0 90 56 60
        E 0 90 62 60
        E 360 80 49 00
        E 0 80 56 00
        E 0 80 62 00
        E 120 90 56 60
        E 0 90 62 60
        E 120 80 56 00
        E 0 80 62 00
        E 120 80 74 00
        E 0 90 3e 60
        E 0 90 4b 60
        E 0 90 58 60
        E 0 90 64 60
        E 120 80 3e 00
        E 0 80 4b 00
        E 0 80 58 00
        E 0 80 64 00
        E 120 90 4b 60
        E 0 90 58 60
        E 0 90 64 60
        E 120 80 4b 00
        E 0 80 58 00
        E 0 80 64 00
        E 120 90 3e 60
        E 0 90 4b 60
        E 0 90 58 60
        E 0 90 64 60
        E 120 80 3e 00
        E 0 80 4b 00
        E 0 80 58 00
        E 0 80 64 00
        E 120 90 4b 60
        E 0 90 58 60
        E 0 90 64 60
        E 120 80 4b 00
        E 0 80 58 00
        E 0 80 64 00
        E 120 90 3e 60
        E 0 90 4b 60
        E 0 90 58 60
        E 0 90 64 60
        E 120 80 3e 00
        E 0 80 4b 00
        E 0 80 58 00
        E 0 80 64 00
        E 120 90 4b 60
        E 0 90 58 60
        E 0 90 64 60
        E 120 80 4b 00
        E 0 80 58 00
        E 0 80 64 00
        E 120 90 3e 60
        E 0 90 4b 60
        E 0 90 58 60
        E 0 90 64 60
        E 120 80 3e 00
        E 0 80 4b 00
        E 0 80 58 00
        E 0 80 64 00
        E 120 90 4b 60
        E 0 90 58 60
        E 0 90 64 60
        E 120 80 4b 00
        E 0 80 58 00
        E 0 80 64 00
        E 120 90 3e 60
        E 0 90 4b 60
        E 0 90 58 60
        E 0 90 64 60
        E 120 80 3e 00
        E 0 80 4b 00
        E 0 80 58 00
        E 0 80 64 00
        E 120 90 4b 60
        E 0 90 58 60
        E 0 90 64 60
        E 120 80 4b 00
        E 0 80 58 00
        E 0 80 64 00
        E 120 90 3e 60
        E 0 90 4b 60
        E 0 90 58 60
        E 0 90 64 60
        E 120 80 3e 00
        E 0 80 4b 00
        E 0 80 58 00
        E 0 80 64 00
        E 120 90 4b 60
        E 0 90 58 60
        E 0 90 64 60
        E 120 80 4b 00
        E 0 80 58 00
        E 0 80 64 00
        E 120 90 3e 60
        E 0 90 4b 60
        E 0 90 58 60
        E 0 90 64 60
        E 120 80 3e 00
        E 0 80 4b 00
        E 0 80 58 00
        E 0 80 64 00
        E 120 90 4b 60
        E 0 90 58 60
        E 0 90 64 60
        E 120 80 4b 00
        E 0 80 58 00
        E 0 80 64 00
        E 120 90 4b 60
        E 0 90 58 60
        E 0 90 64 60
        E 120 80 4b 00
        E 0 80 58 00
        E 0 80 64 00
        E 120 90 58 60
        E 0 90 64 60
        E 120 80 58 00
        E 0 80 64 00
        E 120 90 3d 60
        E 0 90 4a 60
        E 0 90 57 60
        E 0 90 63 60
        E 120 80 3d 00
        E 0 80 4a 00
        E 0 80 57 00
        E 0 80 63 00
        E 120 90 4a 60
        E 0 90 57 60
        E 0 90 63 60
        E 120 80 4a 00
        E 0 80 57 00
        E 0 80 63 00
        E 120 90 3d 60
        E 0 90 4a 60
        E 0 90 57 60
        E 0 90 63 60
        E 120 80 3d 00
        E 0 80 4a 00
        E 0 80 57 00
        E 0 80 63 00
        E 120 90 4a 60
        E 0 90 57 60
        E 0 90 63 60
        E 120 80 4a 00
        E 0 80 57 00
        E 0 80 63 00
        E 120 90 3d 60
        E 0 90 4a 60
        E 0 90 57 60
        E 0 90 63 60
        E 120 80 3d 00
        E 0 80 4a 00
        E 0 80 57 00
        E 0 80 63 00
        E 120 90 4a 60
        E 0 90 57 60
        E 0 90 63 60
        E 120 80 4a 00
        E 0 80 57 00
        E 0 80 63 00
        E 120 90 4a 60
        E 0 90 57 60
        E 0 90 63 60
        E 120 80 4a 00
        E 0 80 57 00
        E 0 80 63 00
        E 120 90 57 60
        E 0 90 63 60
        E 120 80 57 00
        E 0 80 63 00
        E 120 90 3c 60
        E 0 90 49 60
        E 0 90 56 60
        E 0 90 62 60
        E 120 80 3c 00
        E 0 80 49 00
        E 0 80 56 00
        E 0 80 62 00
        E 120 90 49 60
        E 0 90 56 60
        E 0 90 62 60
        E 120 80 49 00
        E 0 80 56 00
        E 0 80 62 00
        E 120 90 3c 60
        E 0 90 49 60
        E 0 90 56 60
        E 0 90 62 60
        E 120 80 3c 00
        E 0 80 49 00
        E 0 80 56 00
        E 0 80 62 00
        E 120 90 49 60
        E 0 90 56 60
        E 0 90 62 60
        E 120 80 49 00
        E 0 80 56 00
        E 0 80 62 00
        E 120 90 3c 60
        E 0 90 49 60
        E 0 90 56 60
        E 0 90 62 60
        E 120 80 3c 00
        E 0 80 49 00
        E 0 80 56 00
        E 0 80 62 00
        E 120 90 49 60
        E 0 90 56 60
        E 0 90 62 60
        E 360 80 49 00
        E 0 80 56 00
        E 0 80 62 00
        E 120 90 56 60
        E 0 90 62 60
        E 120 80 56 00
        E 0 80 62 00
        E 120 90 3e 60
        E 0 90 4b 60
        E 0 90 58 60
        E 0 90 64 60
        E 120 80 3e 00
        E 0 80 4b 00
        E 0 80 58 00
        E 0 80 64 00
        E 120 90 4b 60
        E 0 90 58 60
        E 0 90 64 60
        E 120 80 4b 00
        E 0 80 58 00
        E 0 80 64 00
        E 120 90 3e 60
        E 0 90 4b 60
        E 0 90 58 60
        E 0 90 64 60
        E 120 80 3e 00
        E 0 80 4b 00
        E 0 80 58 00
        E 0 80 64 00
        E 120 90 4b 60
        E 0 90 58 60
        E 0 90 64 60
        E 120 80 4b 00
        E 0 80 58 00
        E 0 80 64 00
        E 120 90 3e 60
        E 0 90 4b 60
        E 0 90 58 60
        E 0 90 64 60
        E 120 80 3e 00
        E 0 80 4b 00
        E 0 80 58 00
        E 0 80 64 00
        E 120 90 4b 60
        E 0 90 58 60
        E 0 90 64 60
        E 120 80 4b 00
        E 0 80 58 00
        E 0 80 64 00
        E 120 90 3e 60
        E 0 90 4b 60
        E 0 90 58 60
        E 0 90 64 60
        E 120 80 3e 00
        E 0 80 4b 00
        E 0 80 58 00
        E 0 80 64 00
        E 120 90 4b 60
        E 0 90 58 60
        E 0 90 64 60
        E 120 80 4b 00
        E 0 80 58 00
        E 0 80 64 00
        E 120 90 3e 60
        E 0 90 4b 60
        E 0 90 58 60
        E 0 90 64 60
        E 0 90 74 60
        E 120 80 3e 00
        E 0 80 4b 00
        E 0 80 58 00
        E 0 80 64 00
        E 120 90 4b 60
        E 0 90 58 60
        E 0 90 64 60
        E 120 80 4b 00
        E 0 80 58 00
        E 0 80 64 00
        E 120 90 3e 60
        E 0 90 4b 60
        E 0 90 58 60
        E 0 90 64 60
        E 120 80 3e 00
        E 0 80 4b 00
        E 0 80 58 00
        E 0 80 64 00
        E 120 90 4b 60
        E 0 90 58 60
        E 0 90 64 60
        E 120 80 4b 00
        E 0 80 58 00
        E 0 80 64 00
        E 120 90 3e 60
        E 0 90 4b 60
        E 0 90 58 60
        E 0 90 64 60
        E 120 80 3e 00
        E 0 80 4b 00
        E 0 80 58 00
        E 0 80 64 00
        E 120 90 4b 60
        E 0 90 58 60
        E 0 90 64 60
        E 120 80 4b 00
        E 0 80 58 00
        E 0 80 64 00
        E 120 90 4b 60
        E 0 90 58 60
        E 0 90 64 60
        E 120 80 4b 00
        E 0 80 58 00
        E 0 80 64 00
        E 120 90 58 60
        E 0 90 64 60
        E 120 80 58 00
        E 0 80 64 00
        E 120 80 74 00
        E 0 90 3d 60
        E 0 90 4a 60
        E 0 90 57 60
        E 0 90 63 60
        E 120 80 3d 00
        E 0 80 4a 00
        E 0 80 57 00
        E 0 80 63 00
        E 120 90 4a 60
        E 0 90 57 60
        E 0 90 63 60
        E 120 80 4a 00
        E 0 80 57 00
        E 0 80 63 00
        E 120 90 3d 60
        E 0 90 4a 60
        E 0 90 57 60
        E 0 90 63 60
        E 120 80 3d 00
        E 0 80 4a 00
        E 0 80 57 00
        E 0 80 63 00
        E 120 90 4a 60
        E 0 90 57 60
        E 0 90 63 60
        E 120 80 4a 00
        E 0 80 57 00
        E 0 80 63 00
        E 120 90 3d 60
        E 0 90 4a 60
        E 0 90 57 60
        E 0 90 63 60
        E 120 80 3d 00
        E 0 80 4a 00
        E 0 80 57 00
        E 0 80 63 00
        E 120 90 4a 60
        E 0 90 57 60
        E 0 90 63 60
        E 120 80 4a 00
        E 0 80 57 00
        E 0 80 63 00
        E 120 90 4a 60
        E 0 90 57 60
        E 0 90 63 60
        E 120 80 4a 00
        E 0 80 57 00
        E 0 80 63 00
        E 120 90 57 60
        E 0 90 63 60
        E 120 80 57 00
        E 0 80 63 00
        E 120 90 3c 60
        E 0 90 49 60
        E 0 90 56 60
        E 0 90 62 60
        E 120 80 3c 00
        E 0 80 49 00
        E 0 80 56 00
        E 0 80 62 00
        E 120 90 49 60
        E 0 90 56 60
        E 0 90 62 60
        E 120 80 49 00
        E 0 80 56 00
        E 0 80 62 00
        E 120 90 3c 60
        E 0 90 49 60
        E 0 90 56 60
        E 0 90 62 60
        E 120 80 3c 00
        E 0 80 49 00
        E 0 80 56 00
        E 0 80 62 00
        E 120 90 49 60
        E 0 90 56 60
        E 0 90 62 60
        E 120 80 49 00
        E 0 80 56 00
        E 0 80 62 00
        E 120 90 3c 60
        E 0 90 49 60
        E 0 90 56 60
        E 0 90 62 60
        E 120 80 3c 00
        E 0 80 49 00
        E 0 80 56 00
        E 0 80 62 00
        E 120 90 49 60
        E 0 90 56 60
        E 0 90 62 60
        E 120 80 49 00
        E 0 80 56 00
        E 0 80 62 00
        E 120 90 49 60
        E 0 90 56 60
        E 0 90 62 60
        E 120 80 49 00
        E 0 80 56 00
        E 0 80 62 00
        E 120 90 56 60
        E 0 90 62 60
        E 120 80 56 00
        E 0 80 62 00
        E 0 90 63 60
        E 0 90 65 60
        E 120 80 63 00
        E 0 90 3e 60
        E 0 90 4b 60
        E 0 90 58 60
        E 0 90 64 60
        E 120 80 65 00
        E 0 80 3e 00
        E 0 80 4b 00
        E 0 80 58 00
        E 0 80 64 00
        E 120 90 4b 60
        E 0 90 58 60
        E 0 90 64 60
        E 120 80 4b 00
        E 0 80 58 00
        E 0 80 64 00
        E 120 90 3e 60
        E 0 90 4b 60
        E 0 90 58 60
        E 0 90 64 60
        E 120 80 3e 00
        E 0 80 4b 00
        E 0 80 58 00
        E 0 80 64 00
        E 120 90 4b 60
        E 0 90 58 60
        E 0 90 64 60
        E 120 80 4b 00
        E 0 80 58 00
        E 0 80 64 00
        E 120 90 3e 60
        E 0 90 4b 60
        E 0 90 58 60
        E 0 90 64 60
        E 120 80 3e 00
        E 0 80 4b 00
        E 0 80 58 00
        E 0 80 64 00
        E 120 90 4b 60
        E 0 90 58 60
        E 0 90 64 60
        E 120 80 4b 00
        E 0 80 58 00
        E 0 80 64 00
        E 120 90 3e 60
        E 0 90 4b 60
        E 0 90 58 60
        E 0 90 64 60
        E 120 80 3e 00
        E 0 80 4b 00
        E 0 80 58 00
        E 0 80 64 00
        E 120 90 4b 60
        E 0 90 58 60
        E 0 90 64 60
        E 120 80 4b 00
        E 0 80 58 00
        E 0 80 64 00
        E 120 90 3e 60
        E 0 90 4b 60
        E 0 90 58 60
        E 0 90 64 60
        E 120 80 3e 00
        E 0 80 4b 00
        E 0 80 58 00
        E 0 80 64 00
        E 120 90 4b 60
        E 0 90 58 60
        E 0 90 64 60
        E 120 80 4b 00
        E 0 80 58 00
        E 0 80 64 00
        E 120 90 3e 60
        E 0 90 4b 60
        E 0 90 58 60
        E 0 90 64 60
        E 120 80 3e 00
        E 0 80 4b 00
        E 0 80 58 00
        E 0 80 64 00
        E 120 90 4b 60
        E 0 90 58 60
        E 0 90 64 60
        E 120 80 4b 00
        E 0 80 58 00
        E 0 80 64 00
        E 120 90 3e 60
        E 0 90 4b 60
        E 0 90 58 60
        E 0 90 64 60
        E 120 80 3e 00
        E 0 80 4b 00
        E 0 80 58 00
        E 0 80 64 00
        E 120 90 4b 60
        E 0 90 58 60
        E 0 90 64 60
        E 120 80 4b 00
        E 0 80 58 00
        E 0 80 64 00
        E 120 90 4b 60
        E 0 90 58 60
        E 0 90 64 60
        E 120 80 4b 00
        E 0 80 58 00
        E 0 80 64 00
        E 120 90 58 60
        E 0 90 64 60
        E 120 80 58 00
        E 0 80 64 00
        E 120 90 3d 60
        E 0 90 4a 60
        E 0 90 57 60
        E 0 90 63 60
        E 120 80 3d 00
        E 0 80 4a 00
        E 0 80 57 00
        E 0 80 63 00
        E 120 90 4a 60
        E 0 90 57 60
        E 0 90 63 60
        E 120 80 4a 00
        E 0 80 57 00
        E 0 80 63 00
        E 120 90 3d 60
        E 0 90 4a 60
        E 0 90 57 60
        E 0 90 63 60
        E 120 80 3d 00
        E 0 80 4a 00
        E 0 80 57 00
        E 0 80 63 00
        E 120 90 4a 60
        E 0 90 57 60
        E 0 90 63 60
        E 120 80 4a 00
        E 0 80 57 00
        E 0 80 63 00
        E 120 90 3d 60
        E 0 90 4a 60
        E 0 90 57 60
        E 0 90 63 60
        E 120 80 3d 00
        E 0 80 4a 00
        E 0 80 57 00
        E 0 80 63 00
        E 120 90 4a 60
        E 0 90 57 60
        E 0 90 63 60
        E 120 80 4a 00
        E 0 80 57 00
        E 0 80 63 00
        E 120 90 4a 60
        E 0 90 57 60
        E 0 90 63 60
        E 120 80 4a 00
        E 0 80 57 00
        E 0 80 63 00
        E 120 90 57 60
        E 0 90 63 60
        E 120 80 57 00
        E 0 80 63 00
        E 120 90 3c 60
        E 0 90 49 60
        E 0 90 56 60
        E 0 90 62 60
        E 120 80 3c 00
        E 0 80 49 00
        E 0 80 56 00
        E 0 80 62 00
        E 120 90 49 60
        E 0 90 56 60
        E 0 90 62 60
        E 120 80 49 00
        E 0 80 56 00
        E 0 80 62 00
        E 120 90 3c 60
        E 0 90 49 60
        E 0 90 56 60
        E 0 90 62 60
        E 120 80 3c 00
        E 0 80 49 00
        E 0 80 56 00
        E 0 80 62 00
        E 120 90 49 60
        E 0 90 56 60
        E 0 90 62 60
        E 120 80 49 00
        E 0 80 56 00
        E 0 80 62 00
        E 120 90 3c 60
        E 0 90 49 60
        E 0 90 56 60
        E 0 90 62 60
        E 120 80 3c 00
        E 0 80 49 00
        E 0 80 56 00
        E 0 80 62 00
        E 120 90 49 60
        E 0 90 56 60
        E 0 90 62 60
        E 360 80 49 00
        E 0 80 56 00
        E 0 80 62 00
        E 120 90 56 60
        E 0 90 62 60
        E 120 80 56 00
        E 0 80 62 00
        E 120 90 3e 60
        E 0 90 4b 60
        E 0 90 58 60
        E 0 90 64 60
        E 120 80 3e 00
        E 0 80 4b 00
        E 0 80 58 00
        E 0 80 64 00
        E 120 90 4b 60
        E 0 90 58 60
        E 0 90 64 60
        E 120 80 4b 00
        E 0 80 58 00
        E 0 80 64 00
        E 120 90 3e 60
        E 0 90 4b 60
        E 0 90 58 60
        E 0 90 64 60
        E 120 80 3e 00
        E 0 80 4b 00
        E 0 80 58 00
        E 0 80 64 00
        E 120 90 4b 60
        E 0 90 58 60
        E 0 90 64 60
        E 120 80 4b 00
        E 0 80 58 00
        E 0 80 64 00
        E 120 90 3e 60
        E 0 90 4b 60
        E 0 90 58 60
        E 0 90 64 60
        E 120 80 3e 00
        E 0 80 4b 00
        E 0 80 58 00
        E 0 80 64 00
        E 120 90 4b 60
        E 0 90 58 60
        E 0 90 64 60
        E 120 80 4b 00
        E 0 80 58 00
        E 0 80 64 00
        E 120 90 3e 60
        E 0 90 4b 60
        E 0 90 58 60
        E 0 90 64 60
        E 120 80 3e 00
        E 0 80 4b 00
        E 0 80 58 00
        E 0 80 64 00
        E 120 90 4b 60
        E 0 90 58 60
        E 0 90 64 60
        E 120 80 4b 00
        E 0 80 58 00
        E 0 80 64 00
        E 120 90 3e 60
        E 0 90 4b 60
        E 0 90 58 60
        E 0 90 64 60
        E 120 80 3e 00
        E 0 80 4b 00
        E 0 80 58 00
        E 0 80 64 00
        E 120 90 4b 60
        E 0 90 58 60
        E 0 90 64 60
        E 120 80 4b 00
        E 0 80 58 00
        E 0 80 64 00
        E 120 90 3e 60
        E 0 90 4b 60
        E 0 90 58 60
        E 0 90 64 60
        E 120 80 3e 00
        E 0 80 4b 00
        E 0 80 58 00
        E 0 80 64 00
        E 120 90 4b 60
        E 0 90 58 60
        E 0 90 64 60
        E 120 80 4b 00
        E 0 80 58 00
        E 0 80 64 00
        E 120 90 3e 60
        E 0 90 4b 60
        E 0 90 58 60
        E 0 90 64 60
        E 120 80 3e 00
        E 0 80 4b 00
        E 0 80 58 00
        E 0 80 64 00
        E 120 90 4b 60
        E 0 90 58 60
        E 0 90 64 60
        E 120 80 4b 00
        E 0 80 58 00
        E 0 80 64 00
        E 120 90 4b 60
        E 0 90 58 60
        E 0 90 64 60
        E 120 80 4b 00
        E 0 80 58 00
        E 0 80 64 00
        E 120 90 58 60
        E 0 90 64 60
        E 120 80 58 00
        E 0 80 64 00
        E 120 90 3d 60
        E 0 90 4a 60
        E 0 90 57 60
        E 0 90 63 60
        E 120 80 3d 00
        E 0 80 4a 00
        E 0 80 57 00
        E 0 80 63 00
        E 120 90 4a 60
        E 0 90 57 60
        E 0 90 63 60
        E 120 80 4a 00
        E 0 80 57 00
        E 0 80 63 00
        E 120 90 3d 60
        E 0 90 4a 60
        E 0 90 57 60
        E 0 90 63 60
        E 120 80 3d 00
        E 0 80 4a 00
        E 0 80 57 00
        E 0 80 63 00
        E 120 90 4a 60
        E 0 90 57 60
        E 0 90 63 60
        E 120 80 4a 00
        E 0 80 57 00
        E 0 80 63 00
        E 120 90 3d 60
        E 0 90 4a 60
        E 0 90 57 60
        E 0 90 63 60
        E 120 80 3d 00
        E 0 80 4a 00
        E 0 80 57 00
        E 0 80 63 00
        E 120 90 4a 60
        E 0 90 57 60
        E 0 90 63 60
        E 120 80 4a 00
        E 0 80 57 00
        E 0 80 63 00
        E 120 90 4a 60
        E 0 90 57 60
        E 0 90 63 60
        E 120 80 4a 00
        E 0 80 57 00
        E 0 80 63 00
        E 120 90 57 60
        E 0 90 63 60
        E 120 80 57 00
        E 0 80 63 00
        E 0 90 62 64
        E 0 90 65 64
        E 120 80 62 00
        E 0 80 65 00
        E 0 90 3c 60
        E 0 90 49 60
        E 0 90 56 60
        E 0 90 62 60
        E 120 80 3c 00
        E 0 80 49 00
        E 0 80 56 00
        E 0 80 62 00
        E 120 90 49 60
        E 0 90 56 60
        E 0 90 62 60
        E 120 80 49 00
        E 0 80 56 00
        E 0 80 62 00
        E 120 90 3c 60
        E 0 90 49 60
        E 0 90 56 60
        E 0 90 62 60
        E 120 80 3c 00
        E 0 80 49 00
        E 0 80 56 00
        E 0 80 62 00
        E 120 90 49 60
        E 0 90 56 60
        E 0 90 62 60
        E 120 80 49 00
        E 0 80 56 00
        E 0 80 62 00
        E 120 90 3c 60
        E 0 90 49 60
        E 0 90 56 60
        E 0 90 62 60
        E 120 80 3c 00
        E 0 80 49 00
        E 0 80 56 00
        E 0 80 62 00
        E 120 90 49 60
        E 0 90 56 60
        E 0 90 62 60
        E 120 80 49 00
        E 0 80 56 00
        E 0 80 62 00
        E 120 90 49 60
        E 0 90 56 60
        E 0 90 62 60
        E 120 80 49 00
        E 0 80 56 00
        E 0 80 62 00
        E 120 90 56 60
        E 0 90 62 60
        E 120 80 56 00
        E 0 80 62 00
        E 120 90 3e 60
        E 0 90 4b 60
        E 0 90 58 60
        E 0 90 64 60
        <X 9599 0
          /wFbaWRsZV9yZWFsdGltZV0=
        >
        E 0 80 2b 00
        E 0 80 3e 00
        E 0 80 4b 00
        E 0 80 58 00
        E 0 80 64 00
        E 7681 b0 7b 00
        GUID {422F213F-D589-4719-9056-7452391A3901}
        IGNTEMPO 0 120.00000000 4 4
        SRCCOLOR 5
        VELLANE 132 128 60
        COLORMAP "C:\Program Files\REAPER (x64)\Data\color_maps\rockband_guitarbass.png"
        CFGEDITVIEW -15101.834372 6.071309 0 12 0 0 0
        CFGEDIT 1 1 0 1 1 0 1 1 1 1 1 0.12500000 53 44 1253 718 0 2 1 1 0.00000000 0 1 1 0 0.500000 0 0 1.000000 64
        KEYSNAP 0 7 "102030050700" 0 "Pentatonic"
        EVTFILTER 0 -1 -1 -1 -1 0 1 0 0 -1.00000000 -1.00000000
      >
    >
  >
  <TRACK '{CEA5DFBF-F279-4071-926F-B0C3284F2E1C}'
    NAME "PART GUITAR"
    PEAKCOL 16576
    BEAT -1
    AUTOMODE 0
    VOLPAN 1.00000000000000 0.00000000000000 -1.00000000000000 -1.00000000000000 1.00000000000000
    MUTESOLO 0 0 0
    IPHASE 0
    ISBUS 0 0
    BUSCOMP 0 0
    SHOWINMIX 1 0.666700 0.500000 1 0.500000 -1 -1 -1
    FREEMODE 0
    SEL 0
    REC 0 0 0 0 0 0 0
    VU 2
    TRACKHEIGHT 0 0
    INQ 0 0 0 0.5000000000 100 0 0 100
    NCHAN 2
    FX 1
    TRACKID {CEA5DFBF-F279-4071-926F-B0C3284F2E1C}
    PERF 0
    MIDIOUT -1
    <MIDINOTENAMES
      0 127 "TRILL MARKER"
      0 126 "TREMOLO MARKER"
      0 125 "---"
      0 124 "BRE"
      0 123 "BRE"
      0 122 "BRE"
      0 121 "BRE"
      0 120 "BRE (use all 5)"
      0 119 "----"
      0 116 "OVERDRIVE"
      0 115 "----"
      0 103 "Solo Marker"
      0 102 "Force HOPO Off"
      0 101 "Force HOPO On"
      0 100 "EXPERT Orange"
      0 99 "EXPERT Blue"
      0 98 "EXPERT Yellow"
      0 97 "EXPERT Red"
      0 96 "EXPERT Green"
      0 95 "----"
      0 90 "Force HOPO Off"
      0 89 "Force HOPO On"
      0 88 "HARD Orange"
      0 87 "HARD Blue"
      0 86 "HARD Yellow"
      0 85 "HARD Red"
      0 84 "HARD Green"
      0 77 "----"
      0 76 "MEDIUM Orange"
      0 75 "MEDIUM Blue"
      0 74 "MEDIUM Yellow"
      0 73 "MEDIUM Red"
      0 72 "MEDIUM Green"
      0 65 "----"
      0 64 "EASY Orange"
      0 63 "EASY Blue"
      0 62 "EASY Yellow"
      0 61 "EASY Red"
      0 60 "EASY Green"
      0 59 "Fret 12"
      0 57 "Fret 11"
      0 56 "Fret 10"
      0 55 "Fret 9"
      0 53 "Fret 8"
      0 52 "Fret 7"
      0 50 "Fret 6"
      0 49 "Fret 5"
      0 47 "Fret 4"
      0 45 "Fret 3"
      0 43 "Fret 2"
      0 40 "Fret 1"
    >
    MAINSEND 1 0
    <FXCHAIN
      WNDRECT 0 43 891 559
      SHOW 0
      LASTSEL 0
      DOCKED 0
      BYPASS 0 0
      <VST "VSTi: RBN Preview (RBN)" "rbprev_vst64.dll" 0 ""
        dnBicu5e7f4AAAAAAgAAAAEAAAAAAAAAAgAAAAAAAAAEAAAAAQAAAA==
        AAAQAAMAqgAAABAAAAA=
      >
      FLOATPOS 0 0 0 0
      FXID {CE091935-E726-495F-9740-41028897592B}
      WAK 0
    >
    <ITEM
      POSITION 0.00000000000000
      SNAPOFFS 0.00000000000000
      LENGTH 184.96816326530612
      LOOP 0
      ALLTAKES 0
      SEL 0
      FADEIN 1 0.000000 0.000000 1 0
      FADEOUT 1 0.000000 0.000000 1 0
      MUTE 0
      IGUID {A8DB804F-5EC5-4B38-8BA0-C2C50DE7E904}
      IID 2
      NAME "PART GUITAR"
      VOLPAN 1.000000 0.000000 1.000000 -1.000000
      SOFFS 0.00000000000000 0.00000000000000
      PLAYRATE 1.00000000000000 1 0.00000000000000 -1
      CHANMODE 0
      GUID {8A68DAF4-1B45-4DDB-8EB9-4539D56A2CEF}
      <SOURCE MIDI
        HASDATA 1 480 QN
        POOLEDEVTS {542C73F2-7190-4EEF-BEEC-517A7E2EB82F}
        <X 0 0
          /wNQQVJUIEdVSVRBUg==
        >
        <X 7680 0
          /wFbbWVsbG93XQ==
        >
        E 0 90 28 60
        E 0 90 60 60
        E 0 90 54 60
        E 0 90 48 60
        E 0 90 3c 60
        E 120 80 60 00
        E 0 80 54 00
        E 0 80 48 00
        E 0 80 3c 00
        E 120 90 60 60
        E 0 90 54 60
        E 120 80 60 00
        E 0 80 54 00
        E 120 90 62 60
        E 0 90 56 60
        E 0 90 4a 60
        E 120 80 62 00
        E 0 80 56 00
        E 0 80 4a 00
        E 120 90 60 60
        E 0 90 54 60
        E 120 80 60 00
        E 0 80 54 00
        E 120 90 63 60
        E 0 90 57 60
        E 0 90 4b 60
        E 0 90 3e 60
        E 120 80 63 00
        E 0 80 57 00
        E 0 80 4b 00
        E 0 80 3e 00
        E 120 90 60 60
        E 0 90 54 60
        E 120 80 60 00
        E 0 80 54 00
        E 120 90 60 60
        E 0 90 54 60
        E 0 90 48 60
        E 120 80 60 00
        E 0 80 54 00
        E 0 80 48 00
        E 120 90 62 60
        E 0 90 56 60
        E 120 80 62 00
        E 0 80 56 00
        E 120 90 60 60
        E 0 90 54 60
        E 0 90 48 60
        E 0 90 3c 60
        E 120 80 60 00
        E 0 80 54 00
        E 0 80 48 00
        E 0 80 3c 00
        E 120 90 63 60
        E 0 90 57 60
        E 120 80 63 00
        E 0 80 57 00
        E 120 90 60 60
        E 0 90 54 60
        E 0 90 48 60
        E 120 80 60 00
        E 0 80 54 00
        E 0 80 48 00
        E 120 90 60 60
        E 0 90 54 60
        E 120 80 60 00
        E 0 80 54 00
        E 120 90 62 60
        E 0 90 56 60
        E 0 90 4a 60
        E 0 90 3d 60
        E 120 80 62 00
        E 0 80 56 00
        E 0 80 4a 00
        E 0 80 3d 00
        E 120 90 60 60
        E 0 90 54 60
        E 120 80 60 00
        E 0 80 54 00
        E 120 90 63 60
        E 0 90 57 60
        E 0 90 4b 60
        E 120 80 4b 00
        E 240 80 63 00
        E 0 80 57 00
        E 120 90 60 60
        E 0 90 54 60
        E 0 90 48 60
        E 0 90 3c 60
        E 120 80 60 00
        E 0 80 54 00
        E 0 80 48 00
        E 0 80 3c 00
        E 120 90 60 60
        E 0 90 54 60
        E 120 80 60 00
        E 0 80 54 00
        E 120 90 62 60
        E 0 90 56 60
        E 0 90 4a 60
        E 120 80 62 00
        E 0 80 56 00
        E 0 80 4a 00
        E 120 90 60 60
        E 0 90 54 60
        E 120 80 60 00
        E 0 80 54 00
        E 120 90 63 60
        E 0 90 57 60
        E 0 90 4b 60
        E 0 90 3e 60
        E 120 80 63 00
        E 0 80 57 00
        E 0 80 4b 00
        E 0 80 3e 00
        E 120 90 60 60
        E 0 90 54 60
        E 120 80 60 00
        E 0 80 54 00
        E 120 90 60 60
        E 0 90 54 60
        E 0 90 48 60
        E 120 80 60 00
        E 0 80 54 00
        E 0 80 48 00
        E 120 90 62 60
        E 0 90 56 60
        E 120 80 62 00
        E 0 80 56 00
        E 120 90 60 60
        E 0 90 54 60
        E 0 90 48 60
        E 0 90 3c 60
        E 120 80 60 00
        E 0 80 54 00
        E 0 80 48 00
        E 0 80 3c 00
        E 120 90 63 60
        E 0 90 57 60
        E 120 80 63 00
        E 0 80 57 00
        E 120 90 60 60
        E 0 90 54 60
        E 0 90 48 60
        E 120 80 60 00
        E 0 80 54 00
        E 0 80 48 00
        E 120 90 60 60
        E 0 90 54 60
        E 120 80 60 00
        E 0 80 54 00
        E 120 90 62 60
        E 0 90 56 60
        E 0 90 4a 60
        E 0 90 3d 60
        E 120 80 62 00
        E 0 80 56 00
        E 0 80 4a 00
        E 0 80 3d 00
        E 120 90 60 60
        E 0 90 54 60
        E 120 80 60 00
        E 0 80 54 00
        E 120 90 63 60
        E 0 90 57 60
        E 0 90 4b 60
        E 120 80 4b 00
        E 240 80 63 00
        E 0 80 57 00
        E 120 90 60 60
        E 0 90 54 60
        E 0 90 48 60
        E 0 90 3c 60
        E 120 80 60 00
        E 0 80 54 00
        E 0 80 48 00
        E 0 80 3c 00
        E 120 90 60 60
        E 0 90 54 60
        E 120 80 60 00
        E 0 80 54 00
        E 120 90 62 60
        E 0 90 56 60
        E 0 90 4a 60
        E 120 80 62 00
        E 0 80 56 00
        E 0 80 4a 00
        E 120 90 60 60
        E 0 90 54 60
        E 120 80 60 00
        E 0 80 54 00
        E 120 90 63 60
        E 0 90 57 60
        E 0 90 4b 60
        E 0 90 3e 60
        E 120 80 63 00
        E 0 80 57 00
        E 0 80 4b 00
        E 0 80 3e 00
        E 120 90 60 60
        E 0 90 54 60
        E 120 80 60 00
        E 0 80 54 00
        E 120 90 60 60
        E 0 90 54 60
        E 0 90 48 60
        E 120 80 60 00
        E 0 80 54 00
        E 0 80 48 00
        E 120 90 62 60
        E 0 90 56 60
        E 120 80 62 00
        E 0 80 56 00
        E 120 90 60 60
        E 0 90 54 60
        E 0 90 48 60
        E 0 90 3c 60
        E 120 80 60 00
        E 0 80 54 00
        E 0 80 48 00
        E 0 80 3c 00
        E 120 90 63 60
        E 0 90 57 60
        E 120 80 63 00
        E 0 80 57 00
        E 120 90 60 60
        E 0 90 54 60
        E 0 90 48 60
        E 120 80 60 00
        E 0 80 54 00
        E 0 80 48 00
        E 120 90 60 60
        E 0 90 54 60
        E 120 80 60 00
        E 0 80 54 00
        E 120 90 62 60
        E 0 90 56 60
        E 0 90 4a 60
        E 0 90 3d 60
        E 120 80 62 00
        E 0 80 56 00
        E 0 80 4a 00
        E 0 80 3d 00
        E 120 90 60 60
        E 0 90 54 60
        E 120 80 60 00
        E 0 80 54 00
        E 120 90 63 60
        E 0 90 57 60
        E 0 90 4b 60
        E 120 80 4b 00
        E 240 80 63 00
        E 0 80 57 00
        E 120 90 60 60
        E 0 90 54 60
        E 0 90 48 60
        E 0 90 3c 60
        E 120 80 60 00
        E 0 80 54 00
        E 0 80 48 00
        E 0 80 3c 00
        E 120 90 60 60
        E 0 90 54 60
        E 120 80 60 00
        E 0 80 54 00
        E 120 90 62 60
        E 0 90 56 60
        E 0 90 4a 60
        E 120 80 62 00
        E 0 80 56 00
        E 0 80 4a 00
        E 120 90 60 60
        E 0 90 54 60
        E 120 80 60 00
        E 0 80 54 00
        E 120 90 63 60
        E 0 90 57 60
        E 0 90 4b 60
        E 0 90 3e 60
        E 120 80 63 00
        E 0 80 57 00
        E 0 80 4b 00
        E 0 80 3e 00
        E 120 90 60 60
        E 0 90 54 60
        E 120 80 60 00
        E 0 80 54 00
        E 120 90 60 60
        E 0 90 54 60
        E 0 90 48 60
        E 120 80 60 00
        E 0 80 54 00
        E 0 80 48 00
        E 120 90 62 60
        E 0 90 56 60
        E 120 80 62 00
        E 0 80 56 00
        E 120 90 60 60
        E 0 90 54 60
        E 0 90 48 60
        E 0 90 3c 60
        E 120 80 60 00
        E 0 80 54 00
        E 0 80 48 00
        E 0 80 3c 00
        E 120 90 63 60
        E 0 90 57 60
        E 120 80 63 00
        E 0 80 57 00
        E 120 90 60 60
        E 0 90 54 60
        E 0 90 48 60
        E 120 80 60 00
        E 0 80 54 00
        E 0 80 48 00
        E 120 90 60 60
        E 0 90 54 60
        E 120 80 60 00
        E 0 80 54 00
        E 120 90 62 60
        E 0 90 56 60
        E 0 90 4a 60
        E 0 90 3d 60
        E 120 80 62 00
        E 0 80 56 00
        E 0 80 4a 00
        E 0 80 3d 00
        E 120 90 60 60
        E 0 90 54 60
        E 120 80 60 00
        E 0 80 54 00
        E 120 90 63 60
        E 0 90 57 60
        E 0 90 4b 60
        E 120 80 4b 00
        E 240 80 63 00
        E 0 80 57 00
        E 120 90 60 60
        E 0 90 54 60
        E 0 90 48 60
        E 0 90 3c 60
        E 120 80 60 00
        E 0 80 54 00
        E 0 80 48 00
        E 0 80 3c 00
        E 120 90 60 60
        E 0 90 54 60
        E 120 80 60 00
        E 0 80 54 00
        E 120 90 62 60
        E 0 90 56 60
        E 0 90 4a 60
        E 120 80 62 00
        E 0 80 56 00
        E 0 80 4a 00
        E 120 90 60 60
        E 0 90 54 60
        E 120 80 60 00
        E 0 80 54 00
        E 120 90 63 60
        E 0 90 57 60
        E 0 90 4b 60
        E 0 90 3e 60
        E 120 80 63 00
        E 0 80 57 00
        E 0 80 4b 00
        E 0 80 3e 00
        E 120 90 60 60
        E 0 90 54 60
        E 120 80 60 00
        E 0 80 54 00
        E 120 90 60 60
        E 0 90 54 60
        E 0 90 48 60
        E 120 80 60 00
        E 0 80 54 00
        E 0 80 48 00
        E 120 90 62 60
        E 0 90 56 60
        E 120 80 62 00
        E 0 80 56 00
        E 120 90 60 60
        E 0 90 54 60
        E 0 90 48 60
        E 0 90 3c 60
        E 120 80 60 00
        E 0 80 54 00
        E 0 80 48 00
        E 0 80 3c 00
        E 120 90 63 60
        E 0 90 57 60
        E 120 80 63 00
        E 0 80 57 00
        E 120 90 60 60
        E 0 90 54 60
        E 0 90 48 60
        E 120 80 60 00
        E 0 80 54 00
        E 0 80 48 00
        E 120 90 60 60
        E 0 90 54 60
        E 120 80 60 00
        E 0 80 54 00
        E 120 90 62 60
        E 0 90 56 60
        E 0 90 4a 60
        E 0 90 3d 60
        E 120 80 62 00
        E 0 80 56 00
        E 0 80 4a 00
        E 0 80 3d 00
        E 120 90 60 60
        E 0 90 54 60
        E 120 80 60 00
        E 0 80 54 00
        E 120 90 63 60
        E 0 90 57 60
        E 0 90 4b 60
        E 120 80 4b 00
        E 240 80 63 00
        E 0 80 57 00
        E 120 90 60 60
        E 0 90 54 60
        E 0 90 48 60
        E 0 90 3c 60
        E 120 80 60 00
        E 0 80 54 00
        E 0 80 48 00
        E 0 80 3c 00
        E 120 90 60 60
        E 0 90 54 60
        E 120 80 60 00
        E 0 80 54 00
        E 120 90 62 60
        E 0 90 56 60
        E 0 90 4a 60
        E 120 80 62 00
        E 0 80 56 00
        E 0 80 4a 00
        E 120 90 60 60
        E 0 90 54 60
        E 120 80 60 00
        E 0 80 54 00
        E 120 90 63 60
        E 0 90 57 60
        E 0 90 4b 60
        E 0 90 3e 60
        E 120 80 63 00
        E 0 80 57 00
        E 0 80 4b 00
        E 0 80 3e 00
        E 120 90 60 60
        E 0 90 54 60
        E 120 80 60 00
        E 0 80 54 00
        E 120 90 60 60
        E 0 90 54 60
        E 0 90 48 60
        E 120 80 60 00
        E 0 80 54 00
        E 0 80 48 00
        E 120 90 62 60
        E 0 90 56 60
        E 120 80 62 00
        E 0 80 56 00
        E 120 90 60 60
        E 0 90 54 60
        E 0 90 48 60
        E 0 90 3c 60
        E 120 80 60 00
        E 0 80 54 00
        E 0 80 48 00
        E 0 80 3c 00
        E 120 90 63 60
        E 0 90 57 60
        E 120 80 63 00
        E 0 80 57 00
        E 120 90 60 60
        E 0 90 54 60
        E 0 90 48 60
        E 120 80 60 00
        E 0 80 54 00
        E 0 80 48 00
        E 120 90 60 60
        E 0 90 54 60
        E 120 80 60 00
        E 0 80 54 00
        E 120 90 62 60
        E 0 90 56 60
        E 0 90 4a 60
        E 0 90 3d 60
        E 120 80 62 00
        E 0 80 56 00
        E 0 80 4a 00
        E 0 80 3d 00
        E 120 90 60 60
        E 0 90 54 60
        E 120 80 60 00
        E 0 80 54 00
        E 120 90 63 60
        E 0 90 57 60
        E 0 90 4b 60
        E 120 80 4b 00
        E 240 80 63 00
        E 0 80 57 00
        E 120 90 60 60
        E 0 90 54 60
        E 0 90 48 60
        E 0 90 3c 60
        E 120 80 60 00
        E 0 80 54 00
        E 0 80 48 00
        E 0 80 3c 00
        E 120 90 60 60
        E 0 90 54 60
        E 120 80 60 00
        E 0 80 54 00
        E 120 90 62 60
        E 0 90 56 60
        E 0 90 4a 60
        E 120 80 62 00
        E 0 80 56 00
        E 0 80 4a 00
        E 120 90 60 60
        E 0 90 54 60
        E 120 80 60 00
        E 0 80 54 00
        E 120 90 63 60
        E 0 90 57 60
        E 0 90 4b 60
        E 0 90 3e 60
        E 120 80 63 00
        E 0 80 57 00
        E 0 80 4b 00
        E 0 80 3e 00
        E 120 90 60 60
        E 0 90 54 60
        E 120 80 60 00
        E 0 80 54 00
        E 120 90 60 60
        E 0 90 54 60
        E 0 90 48 60
        E 120 80 60 00
        E 0 80 54 00
        E 0 80 48 00
        E 120 90 62 60
        E 0 90 56 60
        E 120 80 62 00
        E 0 80 56 00
        E 120 90 60 60
        E 0 90 54 60
        E 0 90 48 60
        E 0 90 3c 60
        E 120 80 60 00
        E 0 80 54 00
        E 0 80 48 00
        E 0 80 3c 00
        E 120 90 63 60
        E 0 90 57 60
        E 120 80 63 00
        E 0 80 57 00
        E 120 90 60 60
        E 0 90 54 60
        E 0 90 48 60
        E 120 80 60 00
        E 0 80 54 00
        E 0 80 48 00
        E 120 90 60 60
        E 0 90 54 60
        E 120 80 60 00
        E 0 80 54 00
        E 120 90 62 60
        E 0 90 56 60
        E 0 90 4a 60
        E 0 90 3d 60
        E 120 80 62 00
        E 0 80 56 00
        E 0 80 4a 00
        E 0 80 3d 00
        E 120 90 60 60
        E 0 90 54 60
        E 120 80 60 00
        E 0 80 54 00
        E 120 90 63 60
        E 0 90 57 60
        E 0 90 4b 60
        E 120 80 4b 00
        E 240 80 63 00
        E 0 80 57 00
        E 120 90 60 60
        E 0 90 54 60
        E 0 90 48 60
        E 0 90 3c 60
        E 120 80 60 00
        E 0 80 54 00
        E 0 80 48 00
        E 0 80 3c 00
        E 120 90 60 60
        E 0 90 54 60
        E 120 80 60 00
        E 0 80 54 00
        E 120 90 62 60
        E 0 90 56 60
        E 0 90 4a 60
        E 120 80 62 00
        E 0 80 56 00
        E 0 80 4a 00
        E 120 90 60 60
        E 0 90 54 60
        E 120 80 60 00
        E 0 80 54 00
        E 120 90 63 60
        E 0 90 57 60
        E 0 90 4b 60
        E 0 90 3e 60
        E 120 80 63 00
        E 0 80 57 00
        E 0 80 4b 00
        E 0 80 3e 00
        E 120 90 60 60
        E 0 90 54 60
        E 120 80 60 00
        E 0 80 54 00
        E 120 90 60 60
        E 0 90 54 60
        E 0 90 48 60
        E 120 80 60 00
        E 0 80 54 00
        E 0 80 48 00
        E 120 90 62 60
        E 0 90 56 60
        E 120 80 62 00
        E 0 80 56 00
        E 120 90 60 60
        E 0 90 54 60
        E 0 90 48 60
        E 0 90 3c 60
        E 120 80 60 00
        E 0 80 54 00
        E 0 80 48 00
        E 0 80 3c 00
        E 120 90 63 60
        E 0 90 57 60
        E 120 80 63 00
        E 0 80 57 00
        E 120 90 60 60
        E 0 90 54 60
        E 0 90 48 60
        E 120 80 60 00
        E 0 80 54 00
        E 0 80 48 00
        E 120 90 60 60
        E 0 90 54 60
        E 120 80 60 00
        E 0 80 54 00
        E 120 90 62 60
        E 0 90 56 60
        E 0 90 4a 60
        E 0 90 3d 60
        E 120 80 62 00
        E 0 80 56 00
        E 0 80 4a 00
        E 0 80 3d 00
        E 120 90 60 60
        E 0 90 54 60
        E 120 80 60 00
        E 0 80 54 00
        E 120 90 63 60
        E 0 90 57 60
        E 0 90 4b 60
        E 120 80 4b 00
        E 240 80 63 00
        E 0 80 57 00
        E 120 90 60 60
        E 0 90 54 60
        E 0 90 48 60
        E 0 90 3c 60
        E 120 80 60 00
        E 0 80 54 00
        E 0 80 48 00
        E 0 80 3c 00
        E 120 90 60 60
        E 0 90 54 60
        E 120 80 60 00
        E 0 80 54 00
        E 120 90 62 60
        E 0 90 56 60
        E 0 90 4a 60
        E 120 80 62 00
        E 0 80 56 00
        E 0 80 4a 00
        E 120 90 60 60
        E 0 90 54 60
        E 120 80 60 00
        E 0 80 54 00
        E 120 90 63 60
        E 0 90 57 60
        E 0 90 4b 60
        E 0 90 3e 60
        E 120 80 63 00
        E 0 80 57 00
        E 0 80 4b 00
        E 0 80 3e 00
        E 120 90 60 60
        E 0 90 54 60
        E 120 80 60 00
        E 0 80 54 00
        E 120 90 60 60
        E 0 90 54 60
        E 0 90 48 60
        E 120 80 60 00
        E 0 80 54 00
        E 0 80 48 00
        E 120 90 62 60
        E 0 90 56 60
        E 120 80 62 00
        E 0 80 56 00
        E 120 90 60 60
        E 0 90 54 60
        E 0 90 48 60
        E 0 90 3c 60
        E 120 80 60 00
        E 0 80 54 00
        E 0 80 48 00
        E 0 80 3c 00
        E 120 90 63 60
        E 0 90 57 60
        E 120 80 63 00
        E 0 80 57 00
        E 120 90 60 60
        E 0 90 54 60
        E 0 90 48 60
        E 120 80 60 00
        E 0 80 54 00
        E 0 80 48 00
        E 120 90 60 60
        E 0 90 54 60
        E 120 80 60 00
        E 0 80 54 00
        E 120 90 62 60
        E 0 90 56 60
        E 0 90 4a 60
        E 0 90 3d 60
        E 120 80 62 00
        E 0 80 56 00
        E 0 80 4a 00
        E 0 80 3d 00
        E 120 90 60 60
        E 0 90 54 60
        E 120 80 60 00
        E 0 80 54 00
        E 120 90 63 60
        E 0 90 57 60
        E 0 90 4b 60
        E 120 80 4b 00
        E 240 80 63 00
        E 0 80 57 00
        E 120 90 60 60
        E 0 90 54 60
        E 0 90 48 60
        E 0 90 3c 60
        E 120 80 60 00
        E 0 80 54 00
        E 0 80 48 00
        E 0 80 3c 00
        E 120 90 60 60
        E 0 90 54 60
        E 120 80 60 00
        E 0 80 54 00
        E 120 90 62 60
        E 0 90 56 60
        E 0 90 4a 60
        E 120 80 62 00
        E 0 80 56 00
        E 0 80 4a 00
        E 120 90 60 60
        E 0 90 54 60
        E 120 80 60 00
        E 0 80 54 00
        E 120 90 63 60
        E 0 90 57 60
        E 0 90 4b 60
        E 0 90 3e 60
        E 120 80 63 00
        E 0 80 57 00
        E 0 80 4b 00
        E 0 80 3e 00
        E 120 90 60 60
        E 0 90 54 60
        E 120 80 60 00
        E 0 80 54 00
        E 120 90 60 60
        E 0 90 54 60
        E 0 90 48 60
        E 120 80 60 00
        E 0 80 54 00
        E 0 80 48 00
        E 120 90 62 60
        E 0 90 56 60
        E 120 80 62 00
        E 0 80 56 00
        E 120 90 60 60
        E 0 90 54 60
        E 0 90 48 60
        E 0 90 3c 60
        E 120 80 60 00
        E 0 80 54 00
        E 0 80 48 00
        E 0 80 3c 00
        E 120 90 63 60
        E 0 90 57 60
        E 120 80 63 00
        E 0 80 57 00
        E 120 90 60 60
        E 0 90 54 60
        E 0 90 48 60
        E 120 80 60 00
        E 0 80 54 00
        E 0 80 48 00
        E 120 90 60 60
        E 0 90 54 60
        E 120 80 60 00
        E 0 80 54 00
        E 120 90 62 60
        E 0 90 56 60
        E 0 90 4a 60
        E 0 90 3d 60
        E 120 80 62 00
        E 0 80 56 00
        E 0 80 4a 00
        E 0 80 3d 00
        E 120 90 60 60
        E 0 90 54 60
        E 120 80 60 00
        E 0 80 54 00
        E 120 90 63 60
        E 0 90 57 60
        E 0 90 4b 60
        E 120 80 4b 00
        E 240 80 28 00
        E 0 80 63 00
        E 0 80 57 00
        <X 120 0
          /wFbcGxheV0=
        >
        E 0 90 3b 60
        E 0 90 60 60
        E 0 90 74 60
        E 0 90 54 60
        E 0 90 48 60
        E 0 90 3c 60
        E 120 80 60 00
        E 0 80 54 00
        E 0 80 48 00
        E 0 80 3c 00
        E 120 90 60 60
        E 0 90 54 60
        E 120 80 60 00
        E 0 80 54 00
        E 120 90 62 60
        E 0 90 56 60
        E 0 90 4a 60
        E 120 80 62 00
        E 0 80 56 00
        E 0 80 4a 00
        E 120 90 60 60
        E 0 90 54 60
        E 120 80 3b 00
        E 0 80 60 00
        E 0 80 54 00
        E 120 90 37 60
        E 0 90 63 60
        E 0 90 57 60
        E 0 90 4b 60
        E 0 90 3e 60
        E 120 80 63 00
        E 0 80 57 00
        E 0 80 4b 00
        E 0 80 3e 00
        E 120 90 62 60
        E 0 90 65 71
        E 0 90 56 60
        E 120 80 37 00
        E 0 80 62 00
        E 0 80 65 00
        E 0 80 56 00
        E 120 90 3b 60
        E 0 90 60 60
        E 0 90 54 60
        E 0 90 48 60
        E 120 80 60 00
        E 0 80 54 00
        E 0 80 48 00
        E 120 90 64 60
        E 0 90 58 60
        E 360 80 64 00
        E 0 80 58 00
        E 120 90 63 60
        E 0 90 57 60
        E 0 90 4b 60
        E 0 90 3e 60
        E 120 80 4b 00
        E 0 80 3e 00
        E 240 80 63 00
        E 0 80 57 00
        E 120 90 60 60
        E 0 90 54 60
        E 120 80 3b 00
        E 0 80 60 00
        E 0 80 54 00
        E 120 90 37 60
        E 0 90 63 60
        E 0 90 57 60
        E 0 90 4b 60
        E 0 90 3e 60
        E 120 80 63 00
        E 0 80 57 00
        E 0 80 4b 00
        E 0 80 3e 00
        E 120 90 62 60
        E 0 90 65 70
        E 0 90 56 60
        E 120 80 37 00
        E 0 80 62 00
        E 0 80 65 00
        E 0 80 56 00
        E 120 90 3b 60
        E 0 90 60 60
        E 0 90 54 60
        E 0 90 48 60
        E 120 80 60 00
        E 0 80 54 00
        E 0 80 48 00
        E 120 90 62 60
        E 0 90 56 60
        E 240 80 74 00
        E 120 80 62 00
        E 0 80 56 00
        E 120 90 60 60
        E 0 90 54 60
        E 120 80 60 00
        E 0 80 54 00
        E 120 90 62 60
        E 0 90 56 60
        E 0 90 4a 60
        E 120 80 62 00
        E 0 80 56 00
        E 0 80 4a 00
        E 120 90 60 60
        E 0 90 54 60
        E 120 80 3b 00
        E 0 80 60 00
        E 0 80 54 00
        E 120 90 37 60
        E 0 90 63 60
        E 0 90 57 60
        E 0 90 4b 60
        E 0 90 3e 60
        E 120 80 63 00
        E 0 80 57 00
        E 0 80 4b 00
        E 0 80 3e 00
        E 120 90 60 60
        E 0 90 54 60
        E 120 80 37 00
        E 0 80 60 00
        E 0 80 54 00
        E 120 90 3b 60
        E 0 90 60 60
        E 0 90 54 60
        E 0 90 48 60
        E 120 80 60 00
        E 0 80 54 00
        E 0 80 48 00
        E 120 90 64 60
        E 0 90 58 60
        E 360 80 64 00
        E 0 80 58 00
        E 120 90 63 60
        E 0 90 57 60
        E 120 80 63 00
        E 0 80 57 00
        E 120 90 60 60
        E 0 90 54 60
        E 0 90 48 60
        E 0 90 3c 60
        E 120 80 60 00
        E 0 80 54 00
        E 0 80 48 00
        E 0 80 3c 00
        E 120 90 63 60
        E 0 90 57 60
        E 120 80 63 00
        E 0 80 57 00
        E 120 90 60 60
        E 0 90 54 60
        E 0 90 48 60
        E 0 90 3c 60
        E 120 80 60 00
        E 0 80 54 00
        E 0 80 48 00
        E 0 80 3c 00
        E 120 90 61 60
        E 0 90 65 60
        E 0 90 55 60
        E 120 80 61 00
        E 0 80 65 00
        E 0 80 55 00
        E 120 90 63 60
        E 0 90 57 60
        E 0 90 4b 60
        E 120 80 4b 00
        E 240 80 63 00
        E 0 80 57 00
        E 120 90 60 60
        E 0 90 54 60
        E 0 90 48 60
        E 0 90 3c 60
        E 120 80 60 00
        E 0 80 54 00
        E 0 80 48 00
        E 0 80 3c 00
        E 120 90 60 60
        E 0 90 54 60
        E 120 80 60 00
        E 0 80 54 00
        E 120 90 62 60
        E 0 90 56 60
        E 0 90 4a 60
        E 120 80 62 00
        E 0 80 56 00
        E 0 80 4a 00
        E 120 90 60 60
        E 0 90 54 60
        E 120 80 3b 00
        E 0 80 60 00
        E 0 80 54 00
        E 120 90 37 60
        E 0 90 63 60
        E 0 90 57 60
        E 0 90 4b 60
        E 0 90 3e 60
        E 120 80 63 00
        E 0 80 57 00
        E 0 80 4b 00
        E 0 80 3e 00
        E 120 90 62 60
        E 0 90 65 71
        E 0 90 56 60
        E 120 80 37 00
        E 0 80 62 00
        E 0 80 65 00
        E 0 80 56 00
        E 120 90 3b 60
        E 0 90 60 60
        E 0 90 54 60
        E 0 90 48 60
        E 120 80 60 00
        E 0 80 54 00
        E 0 80 48 00
        E 120 90 64 60
        E 0 90 58 60
        E 360 80 64 00
        E 0 80 58 00
        E 120 90 63 60
        E 0 90 57 60
        E 0 90 4b 60
        E 0 90 3e 60
        E 120 80 4b 00
        E 0 80 3e 00
        E 240 80 63 00
        E 0 80 57 00
        E 120 90 60 60
        E 0 90 54 60
        E 120 80 3b 00
        E 0 80 60 00
        E 0 80 54 00
        E 120 90 37 60
        E 0 90 63 60
        E 0 90 57 60
        E 0 90 4b 60
        E 0 90 3e 60
        E 120 80 63 00
        E 0 80 57 00
        E 0 80 4b 00
        E 0 80 3e 00
        E 120 90 62 60
        E 0 90 65 70
        E 0 90 56 60
        E 120 80 37 00
        E 0 80 62 00
        E 0 80 65 00
        E 0 80 56 00
        E 120 90 3b 60
        E 0 90 60 60
        E 0 90 54 60
        E 0 90 48 60
        E 120 80 60 00
        E 0 80 54 00
        E 0 80 48 00
        E 120 90 62 60
        E 0 90 56 60
        E 360 80 62 00
        E 0 80 56 00
        E 120 90 60 60
        E 0 90 54 60
        E 120 80 60 00
        E 0 80 54 00
        E 120 90 62 60
        E 0 90 56 60
        E 0 90 4a 60
        E 120 80 62 00
        E 0 80 56 00
        E 0 80 4a 00
        E 120 90 60 60
        E 0 90 54 60
        E 120 80 3b 00
        E 0 80 60 00
        E 0 80 54 00
        E 120 90 37 60
        E 0 90 63 60
        E 0 90 57 60
        E 0 90 4b 60
        E 0 90 3e 60
        E 120 80 63 00
        E 0 80 57 00
        E 0 80 4b 00
        E 0 80 3e 00
        E 120 90 60 60
        E 0 90 54 60
        E 120 80 37 00
        E 0 80 60 00
        E 0 80 54 00
        E 120 90 3b 60
        E 0 90 60 60
        E 0 90 54 60
        E 0 90 48 60
        E 120 80 60 00
        E 0 80 54 00
        E 0 80 48 00
        E 120 90 64 60
        E 0 90 58 60
        E 360 80 64 00
        E 0 80 58 00
        E 120 90 63 60
        E 0 90 57 60
        E 120 80 63 00
        E 0 80 57 00
        E 120 90 60 60
        E 0 90 54 60
        E 0 90 48 60
        E 0 90 3c 60
        E 120 80 60 00
        E 0 80 54 00
        E 0 80 48 00
        E 0 80 3c 00
        E 120 90 63 60
        E 0 90 57 60
        E 120 80 63 00
        E 0 80 57 00
        E 120 90 60 60
        E 0 90 54 60
        E 0 90 48 60
        E 0 90 3c 60
        E 120 80 60 00
        E 0 80 54 00
        E 0 80 48 00
        E 0 80 3c 00
        E 120 90 61 60
        E 0 90 65 60
        E 0 90 55 60
        E 120 80 61 00
        E 0 80 65 00
        E 0 80 55 00
        E 120 90 63 60
        E 0 90 57 60
        E 0 90 4b 60
        E 120 80 4b 00
        E 240 80 3b 00
        E 0 80 63 00
        E 0 80 57 00
        E 120 90 28 60
        E 0 90 60 60
        E 0 90 74 60
        E 0 90 54 60
        E 0 90 48 60
        E 0 90 3c 60
        E 120 80 60 00
        E 0 80 54 00
        E 0 80 48 00
        E 0 80 3c 00
        E 120 90 60 60
        E 0 90 54 60
        E 120 80 60 00
        E 0 80 54 00
        E 120 90 62 60
        E 0 90 56 60
        E 0 90 4a 60
        E 120 80 62 00
        E 0 80 56 00
        E 0 80 4a 00
        E 120 90 60 60
        E 0 90 54 60
        E 120 80 60 00
        E 0 80 54 00
        E 120 90 63 60
        E 0 90 57 60
        E 0 90 4b 60
        E 0 90 3e 60
        E 120 80 63 00
        E 0 80 57 00
        E 0 80 4b 00
        E 0 80 3e 00
        E 120 90 60 60
        E 0 90 54 60
        E 120 80 60 00
        E 0 80 54 00
        E 120 90 60 60
        E 0 90 54 60
        E 0 90 48 60
        E 120 80 60 00
        E 0 80 54 00
        E 0 80 48 00
        E 120 90 62 60
        E 0 90 56 60
        E 120 80 62 00
        E 0 80 56 00
        E 120 90 60 60
        E 0 90 54 60
        E 0 90 48 60
        E 0 90 3c 60
        E 120 80 60 00
        E 0 80 54 00
        E 0 80 48 00
        E 0 80 3c 00
        E 120 90 63 60
        E 0 90 57 60
        E 120 80 63 00
        E 0 80 57 00
        E 120 90 60 60
        E 0 90 54 60
        E 0 90 48 60
        E 120 80 60 00
        E 0 80 54 00
        E 0 80 48 00
        E 120 90 60 60
        E 0 90 54 60
        E 120 80 60 00
        E 0 80 54 00
        E 120 90 62 60
        E 0 90 56 60
        E 0 90 4a 60
        E 0 90 3d 60
        E 120 80 62 00
        E 0 80 56 00
        E 0 80 4a 00
        E 0 80 3d 00
        E 120 90 60 60
        E 0 90 54 60
        E 120 80 60 00
        E 0 80 54 00
        E 120 90 63 60
        E 0 90 57 60
        E 0 90 4b 60
        E 120 80 4b 00
        E 240 80 63 00
        E 0 80 57 00
        E 120 80 74 00
        E 0 90 60 60
        E 0 90 54 60
        E 0 90 48 60
        E 0 90 3c 60
        E 120 80 60 00
        E 0 80 54 00
        E 0 80 48 00
        E 0 80 3c 00
        E 120 90 60 60
        E 0 90 54 60
        E 120 80 60 00
        E 0 80 54 00
        E 120 90 62 60
        E 0 90 56 60
        E 0 90 4a 60
        E 120 80 62 00
        E 0 80 56 00
        E 0 80 4a 00
        E 120 90 60 60
        E 0 90 54 60
        E 120 80 60 00
        E 0 80 54 00
        E 120 90 63 60
        E 0 90 57 60
        E 0 90 4b 60
        E 0 90 3e 60
        E 120 80 63 00
        E 0 80 57 00
        E 0 80 4b 00
        E 0 80 3e 00
        E 120 90 60 60
        E 0 90 54 60
        E 120 80 60 00
        E 0 80 54 00
        E 120 90 60 60
        E 0 90 54 60
        E 0 90 48 60
        E 120 80 60 00
        E 0 80 54 00
        E 0 80 48 00
        E 120 90 62 60
        E 0 90 56 60
        E 120 80 62 00
        E 0 80 56 00
        E 120 90 60 60
        E 0 90 54 60
        E 0 90 48 60
        E 0 90 3c 60
        E 120 80 60 00
        E 0 80 54 00
        E 0 80 48 00
        E 0 80 3c 00
        E 120 90 63 60
        E 0 90 57 60
        E 120 80 63 00
        E 0 80 57 00
        E 120 90 60 60
        E 0 90 54 60
        E 0 90 48 60
        E 120 80 60 00
        E 0 80 54 00
        E 0 80 48 00
        E 120 90 60 60
        E 0 90 54 60
        E 120 80 60 00
        E 0 80 54 00
        E 120 90 62 60
        E 0 90 56 60
        E 0 90 4a 60
        E 0 90 3d 60
        E 120 80 62 00
        E 0 80 56 00
        E 0 80 4a 00
        E 0 80 3d 00
        E 120 90 60 60
        E 0 90 54 60
        E 120 80 60 00
        E 0 80 54 00
        E 120 90 63 60
        E 0 90 57 60
        E 0 90 4b 60
        E 120 80 4b 00
        E 240 80 63 00
        E 0 80 57 00
        E 120 90 60 60
        E 0 90 54 60
        E 0 90 48 60
        E 0 90 3c 60
        E 120 80 60 00
        E 0 80 54 00
        E 0 80 48 00
        E 0 80 3c 00
        E 120 90 60 60
        E 0 90 54 60
        E 120 80 60 00
        E 0 80 54 00
        E 120 90 62 60
        E 0 90 56 60
        E 0 90 4a 60
        E 120 80 62 00
        E 0 80 56 00
        E 0 80 4a 00
        E 120 90 60 60
        E 0 90 54 60
        E 120 80 60 00
        E 0 80 54 00
        E 120 90 63 60
        E 0 90 57 60
        E 0 90 4b 60
        E 0 90 3e 60
        E 120 80 63 00
        E 0 80 57 00
        E 0 80 4b 00
        E 0 80 3e 00
        E 120 90 60 60
        E 0 90 54 60
        E 120 80 60 00
        E 0 80 54 00
        E 120 90 60 60
        E 0 90 54 60
        E 0 90 48 60
        E 120 80 60 00
        E 0 80 54 00
        E 0 80 48 00
        E 120 90 62 60
        E 0 90 56 60
        E 120 80 62 00
        E 0 80 56 00
        E 120 90 60 60
        E 0 90 54 60
        E 0 90 48 60
        E 0 90 3c 60
        E 120 80 60 00
        E 0 80 54 00
        E 0 80 48 00
        E 0 80 3c 00
        E 120 90 63 60
        E 0 90 57 60
        E 120 80 63 00
        E 0 80 57 00
        E 120 90 60 60
        E 0 90 54 60
        E 0 90 48 60
        E 120 80 60 00
        E 0 80 54 00
        E 0 80 48 00
        E 120 90 60 60
        E 0 90 54 60
        E 120 80 60 00
        E 0 80 54 00
        E 120 90 62 60
        E 0 90 56 60
        E 0 90 4a 60
        E 0 90 3d 60
        E 120 80 62 00
        E 0 80 56 00
        E 0 80 4a 00
        E 0 80 3d 00
        E 120 90 60 60
        E 0 90 54 60
        E 120 80 60 00
        E 0 80 54 00
        E 120 90 63 60
        E 0 90 57 60
        E 0 90 4b 60
        E 120 80 4b 00
        E 240 80 63 00
        E 0 80 57 00
        E 120 90 60 60
        E 0 90 54 60
        E 0 90 48 60
        E 0 90 3c 60
        E 120 80 60 00
        E 0 80 54 00
        E 0 80 48 00
        E 0 80 3c 00
        E 120 90 60 60
        E 0 90 54 60
        E 120 80 60 00
        E 0 80 54 00
        E 120 90 62 60
        E 0 90 56 60
        E 0 90 4a 60
        E 120 80 62 00
        E 0 80 56 00
        E 0 80 4a 00
        E 120 90 60 60
        E 0 90 54 60
        E 120 80 60 00
        E 0 80 54 00
        E 120 90 63 60
        E 0 90 57 60
        E 0 90 4b 60
        E 0 90 3e 60
        E 120 80 63 00
        E 0 80 57 00
        E 0 80 4b 00
        E 0 80 3e 00
        E 120 90 60 60
        E 0 90 54 60
        E 120 80 60 00
        E 0 80 54 00
        E 120 90 60 60
        E 0 90 54 60
        E 0 90 48 60
        E 120 80 60 00
        E 0 80 54 00
        E 0 80 48 00
        E 120 90 62 60
        E 0 90 56 60
        E 120 80 62 00
        E 0 80 56 00
        E 120 90 60 60
        E 0 90 54 60
        E 0 90 48 60
        E 0 90 3c 60
        E 120 80 60 00
        E 0 80 54 00
        E 0 80 48 00
        E 0 80 3c 00
        E 120 90 63 60
        E 0 90 57 60
        E 120 80 63 00
        E 0 80 57 00
        E 120 90 60 60
        E 0 90 54 60
        E 0 90 48 60
        E 120 80 60 00
        E 0 80 54 00
        E 0 80 48 00
        E 120 90 60 60
        E 0 90 54 60
        E 120 80 60 00
        E 0 80 54 00
        E 120 90 62 60
        E 0 90 56 60
        E 0 90 4a 60
        E 0 90 3d 60
        E 120 80 62 00
        E 0 80 56 00
        E 0 80 4a 00
        E 0 80 3d 00
        E 120 90 60 60
        E 0 90 54 60
        E 120 80 60 00
        E 0 80 54 00
        E 120 90 63 60
        E 0 90 57 60
        E 0 90 4b 60
        E 120 80 4b 00
        E 240 80 63 00
        E 0 80 57 00
        E 120 90 60 60
        E 0 90 54 60
        E 0 90 48 60
        E 0 90 3c 60
        E 120 80 60 00
        E 0 80 54 00
        E 0 80 48 00
        E 0 80 3c 00
        E 120 90 60 60
        E 0 90 54 60
        E 120 80 60 00
        E 0 80 54 00
        E 120 90 62 60
        E 0 90 56 60
        E 0 90 4a 60
        E 120 80 62 00
        E 0 80 56 00
        E 0 80 4a 00
        E 120 90 60 60
        E 0 90 54 60
        E 120 80 60 00
        E 0 80 54 00
        E 120 90 63 60
        E 0 90 57 60
        E 0 90 4b 60
        E 0 90 3e 60
        E 120 80 63 00
        E 0 80 57 00
        E 0 80 4b 00
        E 0 80 3e 00
        E 120 90 60 60
        E 0 90 54 60
        E 120 80 60 00
        E 0 80 54 00
        E 120 90 60 60
        E 0 90 54 60
        E 0 90 48 60
        E 120 80 60 00
        E 0 80 54 00
        E 0 80 48 00
        E 120 90 62 60
        E 0 90 56 60
        E 120 80 62 00
        E 0 80 56 00
        E 120 90 60 60
        E 0 90 54 60
        E 0 90 48 60
        E 0 90 3c 60
        E 120 80 60 00
        E 0 80 54 00
        E 0 80 48 00
        E 0 80 3c 00
        E 120 90 63 60
        E 0 90 57 60
        E 120 80 63 00
        E 0 80 57 00
        E 120 90 60 60
        E 0 90 54 60
        E 0 90 48 60
        E 120 80 60 00
        E 0 80 54 00
        E 0 80 48 00
        E 120 90 60 60
        E 0 90 54 60
        E 120 80 60 00
        E 0 80 54 00
        E 120 90 62 60
        E 0 90 56 60
        E 0 90 4a 60
        E 0 90 3d 60
        E 120 80 62 00
        E 0 80 56 00
        E 0 80 4a 00
        E 0 80 3d 00
        E 120 90 60 60
        E 0 90 54 60
        E 120 80 60 00
        E 0 80 54 00
        E 120 90 63 60
        E 0 90 57 60
        E 0 90 4b 60
        E 120 80 4b 00
        E 240 80 63 00
        E 0 80 57 00
        E 120 90 60 60
        E 0 90 54 60
        E 0 90 48 60
        E 0 90 3c 60
        E 120 80 60 00
        E 0 80 54 00
        E 0 80 48 00
        E 0 80 3c 00
        E 120 90 60 60
        E 0 90 54 60
        E 120 80 60 00
        E 0 80 54 00
        E 120 90 62 60
        E 0 90 56 60
        E 0 90 4a 60
        E 120 80 62 00
        E 0 80 56 00
        E 0 80 4a 00
        E 120 90 60 60
        E 0 90 54 60
        E 120 80 60 00
        E 0 80 54 00
        E 120 90 63 60
        E 0 90 57 60
        E 0 90 4b 60
        E 0 90 3e 60
        E 120 80 63 00
        E 0 80 57 00
        E 0 80 4b 00
        E 0 80 3e 00
        E 120 90 60 60
        E 0 90 54 60
        E 120 80 60 00
        E 0 80 54 00
        E 120 90 60 60
        E 0 90 54 60
        E 0 90 48 60
        E 120 80 60 00
        E 0 80 54 00
        E 0 80 48 00
        E 120 90 62 60
        E 0 90 56 60
        E 120 80 62 00
        E 0 80 56 00
        E 120 90 60 60
        E 0 90 54 60
        E 0 90 48 60
        E 0 90 3c 60
        E 120 80 60 00
        E 0 80 54 00
        E 0 80 48 00
        E 0 80 3c 00
        E 120 90 63 60
        E 0 90 57 60
        E 120 80 63 00
        E 0 80 57 00
        E 120 90 60 60
        E 0 90 54 60
        E 0 90 48 60
        E 120 80 60 00
        E 0 80 54 00
        E 0 80 48 00
        E 120 90 60 60
        E 0 90 54 60
        E 120 80 60 00
        E 0 80 54 00
        E 120 90 62 60
        E 0 90 56 60
        E 0 90 4a 60
        E 0 90 3d 60
        E 120 80 62 00
        E 0 80 56 00
        E 0 80 4a 00
        E 0 80 3d 00
        E 120 90 60 60
        E 0 90 54 60
        E 120 80 60 00
        E 0 80 54 00
        E 120 90 63 60
        E 0 90 57 60
        E 0 90 4b 60
        E 120 80 4b 00
        E 240 80 63 00
        E 0 80 57 00
        E 120 90 60 60
        E 0 90 74 60
        E 0 90 54 60
        E 0 90 48 60
        E 0 90 3c 60
        E 120 80 60 00
        E 0 80 54 00
        E 0 80 48 00
        E 0 80 3c 00
        E 120 90 60 60
        E 0 90 54 60
        E 120 80 60 00
        E 0 80 54 00
        E 120 90 62 60
        E 0 90 56 60
        E 0 90 4a 60
        E 120 80 62 00
        E 0 80 56 00
        E 0 80 4a 00
        E 120 90 60 60
        E 0 90 54 60
        E 120 80 60 00
        E 0 80 54 00
        E 120 90 63 60
        E 0 90 57 60
        E 0 90 4b 60
        E 0 90 3e 60
        E 120 80 63 00
        E 0 80 57 00
        E 0 80 4b 00
        E 0 80 3e 00
        E 120 90 60 60
        E 0 90 54 60
        E 120 80 60 00
        E 0 80 54 00
        E 120 90 60 60
        E 0 90 54 60
        E 0 90 48 60
        E 120 80 60 00
        E 0 80 54 00
        E 0 80 48 00
        E 120 90 62 60
        E 0 90 56 60
        E 120 80 62 00
        E 0 80 56 00
        E 120 80 74 00
        E 0 90 60 60
        E 0 90 54 60
        E 0 90 48 60
        E 0 90 3c 60
        E 120 80 60 00
        E 0 80 54 00
        E 0 80 48 00
        E 0 80 3c 00
        E 120 90 63 60
        E 0 90 57 60
        E 120 80 63 00
        E 0 80 57 00
        E 120 90 60 60
        E 0 90 54 60
        E 0 90 48 60
        E 120 80 60 00
        E 0 80 54 00
        E 0 80 48 00
        E 120 90 60 60
        E 0 90 54 60
        E 120 80 60 00
        E 0 80 54 00
        E 120 90 62 60
        E 0 90 56 60
        E 0 90 4a 60
        E 0 90 3d 60
        E 120 80 62 00
        E 0 80 56 00
        E 0 80 4a 00
        E 0 80 3d 00
        E 120 90 60 60
        E 0 90 54 60
        E 120 80 60 00
        E 0 80 54 00
        E 120 90 63 60
        E 0 90 57 60
        E 0 90 4b 60
        E 120 80 4b 00
        E 240 80 63 00
        E 0 80 57 00
        E 120 90 60 60
        E 0 90 54 60
        E 0 90 48 60
        E 0 90 3c 60
        E 120 80 60 00
        E 0 80 54 00
        E 0 80 48 00
        E 0 80 3c 00
        E 120 90 60 60
        E 0 90 54 60
        E 120 80 60 00
        E 0 80 54 00
        E 120 90 62 60
        E 0 90 56 60
        E 0 90 4a 60
        E 120 80 62 00
        E 0 80 56 00
        E 0 80 4a 00
        E 120 90 60 60
        E 0 90 54 60
        E 120 80 60 00
        E 0 80 54 00
        E 120 90 63 60
        E 0 90 57 60
        E 0 90 4b 60
        E 0 90 3e 60
        E 120 80 63 00
        E 0 80 57 00
        E 0 80 4b 00
        E 0 80 3e 00
        E 120 90 60 60
        E 0 90 54 60
        E 120 80 60 00
        E 0 80 54 00
        E 120 90 60 60
        E 0 90 54 60
        E 0 90 48 60
        E 120 80 60 00
        E 0 80 54 00
        E 0 80 48 00
        E 120 90 62 60
        E 0 90 56 60
        E 120 80 62 00
        E 0 80 56 00
        E 120 90 60 60
        E 0 90 54 60
        E 0 90 48 60
        E 0 90 3c 60
        E 120 80 60 00
        E 0 80 54 00
        E 0 80 48 00
        E 0 80 3c 00
        E 120 90 63 60
        E 0 90 57 60
        E 120 80 63 00
        E 0 80 57 00
        E 120 90 60 60
        E 0 90 54 60
        E 0 90 48 60
        E 120 80 60 00
        E 0 80 54 00
        E 0 80 48 00
        E 120 90 60 60
        E 0 90 54 60
        E 120 80 60 00
        E 0 80 54 00
        E 120 90 62 60
        E 0 90 56 60
        E 0 90 4a 60
        E 0 90 3d 60
        E 120 80 62 00
        E 0 80 56 00
        E 0 80 4a 00
        E 0 80 3d 00
        E 120 90 60 60
        E 0 90 54 60
        E 120 80 60 00
        E 0 80 54 00
        E 120 90 63 60
        E 0 90 57 60
        E 0 90 4b 60
        E 120 80 4b 00
        E 240 80 28 00
        E 0 80 63 00
        E 0 80 57 00
        E 120 90 3b 60
        E 0 90 60 60
        E 0 90 54 60
        E 0 90 48 60
        E 0 90 3c 60
        E 120 80 60 00
        E 0 80 54 00
        E 0 80 48 00
        E 0 80 3c 00
        E 120 90 60 60
        E 0 90 54 60
        E 120 80 60 00
        E 0 80 54 00
        E 120 90 62 60
        E 0 90 56 60
        E 0 90 4a 60
        E 120 80 62 00
        E 0 80 56 00
        E 0 80 4a 00
        E 120 90 60 60
        E 0 90 54 60
        E 120 80 3b 00
        E 0 80 60 00
        E 0 80 54 00
        E 120 90 37 60
        E 0 90 63 60
        E 0 90 57 60
        E 0 90 4b 60
        E 0 90 3e 60
        E 120 80 63 00
        E 0 80 57 00
        E 0 80 4b 00
        E 0 80 3e 00
        E 120 90 62 60
        E 0 90 65 71
        E 0 90 56 60
        E 120 80 37 00
        E 0 80 62 00
        E 0 80 65 00
        E 0 80 56 00
        E 120 90 3b 60
        E 0 90 60 60
        E 0 90 54 60
        E 0 90 48 60
        E 120 80 60 00
        E 0 80 54 00
        E 0 80 48 00
        E 120 90 64 60
        E 0 90 58 60
        E 360 80 64 00
        E 0 80 58 00
        E 120 90 63 60
        E 0 90 57 60
        E 0 90 4b 60
        E 0 90 3e 60
        E 120 80 4b 00
        E 0 80 3e 00
        E 240 80 63 00
        E 0 80 57 00
        E 120 90 60 60
        E 0 90 54 60
        E 120 80 3b 00
        E 0 80 60 00
        E 0 80 54 00
        E 120 90 37 60
        E 0 90 63 60
        E 0 90 57 60
        E 0 90 4b 60
        E 0 90 3e 60
        E 120 80 63 00
        E 0 80 57 00
        E 0 80 4b 00
        E 0 80 3e 00
        E 120 90 62 60
        E 0 90 65 70
        E 0 90 56 60
        E 120 80 37 00
        E 0 80 62 00
        E 0 80 65 00
        E 0 80 56 00
        E 120 90 3b 60
        E 0 90 60 60
        E 0 90 54 60
        E 0 90 48 60
        E 120 80 60 00
        E 0 80 54 00
        E 0 80 48 00
        E 120 90 62 60
        E 0 90 56 60
        E 360 80 62 00
        E 0 80 56 00
        E 120 90 60 60
        E 0 90 54 60
        E 120 80 60 00
        E 0 80 54 00
        E 120 90 62 60
        E 0 90 56 60
        E 0 90 4a 60
        E 120 80 62 00
        E 0 80 56 00
        E 0 80 4a 00
        E 120 90 60 60
        E 0 90 54 60
        E 120 80 3b 00
        E 0 80 60 00
        E 0 80 54 00
        E 120 90 37 60
        E 0 90 63 60
        E 0 90 57 60
        E 0 90 4b 60
        E 0 90 3e 60
        E 120 80 63 00
        E 0 80 57 00
        E 0 80 4b 00
        E 0 80 3e 00
        E 120 90 60 60
        E 0 90 54 60
        E 120 80 37 00
        E 0 80 60 00
        E 0 80 54 00
        E 120 90 3b 60
        E 0 90 60 60
        E 0 90 54 60
        E 0 90 48 60
        E 120 80 60 00
        E 0 80 54 00
        E 0 80 48 00
        E 120 90 64 60
        E 0 90 58 60
        E 360 80 64 00
        E 0 80 58 00
        E 120 90 63 60
        E 0 90 57 60
        E 120 80 63 00
        E 0 80 57 00
        E 120 90 60 60
        E 0 90 54 60
        E 0 90 48 60
        E 0 90 3c 60
        E 120 80 60 00
        E 0 80 54 00
        E 0 80 48 00
        E 0 80 3c 00
        E 120 90 63 60
        E 0 90 57 60
        E 120 80 63 00
        E 0 80 57 00
        E 120 90 60 60
        E 0 90 54 60
        E 0 90 48 60
        E 0 90 3c 60
        E 120 80 60 00
        E 0 80 54 00
        E 0 80 48 00
        E 0 80 3c 00
        E 120 90 61 60
        E 0 90 65 60
        E 0 90 55 60
        E 120 80 61 00
        E 0 80 65 00
        E 0 80 55 00
        E 120 90 63 60
        E 0 90 57 60
        E 0 90 4b 60
        E 120 80 4b 00
        E 240 80 63 00
        E 0 80 57 00
        E 120 90 60 60
        E 0 90 54 60
        E 0 90 48 60
        E 0 90 3c 60
        E 120 80 60 00
        E 0 80 54 00
        E 0 80 48 00
        E 0 80 3c 00
        E 120 90 60 60
        E 0 90 54 60
        E 120 80 60 00
        E 0 80 54 00
        E 120 90 62 60
        E 0 90 56 60
        E 0 90 4a 60
        E 120 80 62 00
        E 0 80 56 00
        E 0 80 4a 00
        E 120 90 60 60
        E 0 90 54 60
        E 120 80 3b 00
        E 0 80 60 00
        E 0 80 54 00
        E 120 90 37 60
        E 0 90 63 60
        E 0 90 57 60
        E 0 90 4b 60
        E 0 90 3e 60
        E 120 80 63 00
        E 0 80 57 00
        E 0 80 4b 00
        E 0 80 3e 00
        E 120 90 62 60
        E 0 90 65 71
        E 0 90 56 60
        E 120 80 37 00
        E 0 80 62 00
        E 0 80 65 00
        E 0 80 56 00
        E 120 90 3b 60
        E 0 90 60 60
        E 0 90 54 60
        E 0 90 48 60
        E 120 80 60 00
        E 0 80 54 00
        E 0 80 48 00
        E 120 90 64 60
        E 0 90 58 60
        E 360 80 64 00
        E 0 80 58 00
        E 120 90 63 60
        E 0 90 57 60
        E 0 90 4b 60
        E 0 90 3e 60
        E 120 80 4b 00
        E 0 80 3e 00
        E 240 80 63 00
        E 0 80 57 00
        E 120 90 60 60
        E 0 90 54 60
        E 120 80 3b 00
        E 0 80 60 00
        E 0 80 54 00
        E 120 90 37 60
        E 0 90 63 60
        E 0 90 57 60
        E 0 90 4b 60
        E 0 90 3e 60
        E 120 80 63 00
        E 0 80 57 00
        E 0 80 4b 00
        E 0 80 3e 00
        E 120 90 62 60
        E 0 90 65 70
        E 0 90 56 60
        E 120 80 37 00
        E 0 80 62 00
        E 0 80 65 00
        E 0 80 56 00
        E 120 90 3b 60
        E 0 90 60 60
        E 0 90 54 60
        E 0 90 48 60
        E 120 80 60 00
        E 0 80 54 00
        E 0 80 48 00
        E 120 90 62 60
        E 0 90 56 60
        E 240 90 74 60
        E 120 80 62 00
        E 0 80 56 00
        E 120 90 60 60
        E 0 90 54 60
        E 120 80 60 00
        E 0 80 54 00
        E 120 90 62 60
        E 0 90 56 60
        E 0 90 4a 60
        E 120 80 62 00
        E 0 80 56 00
        E 0 80 4a 00
        E 120 90 60 60
        E 0 90 54 60
        E 120 80 3b 00
        E 0 80 60 00
        E 0 80 54 00
        E 120 90 37 60
        E 0 90 63 60
        E 0 90 57 60
        E 0 90 4b 60
        E 0 90 3e 60
        E 120 80 63 00
        E 0 80 57 00
        E 0 80 4b 00
        E 0 80 3e 00
        E 120 90 60 60
        E 0 90 54 60
        E 120 80 37 00
        E 0 80 60 00
        E 0 80 54 00
        E 120 90 3b 60
        E 0 90 60 60
        E 0 90 54 60
        E 0 90 48 60
        E 120 80 60 00
        E 0 80 54 00
        E 0 80 48 00
        E 120 90 64 60
        E 0 90 58 60
        E 360 80 64 00
        E 0 80 58 00
        E 120 90 63 60
        E 0 90 57 60
        E 120 80 63 00
        E 0 80 57 00
        E 120 90 60 60
        E 0 90 54 60
        E 0 90 48 60
        E 0 90 3c 60
        E 120 80 60 00
        E 0 80 54 00
        E 0 80 48 00
        E 0 80 3c 00
        E 120 90 63 60
        E 0 90 57 60
        E 120 80 63 00
        E 0 80 57 00
        E 120 90 60 60
        E 0 90 54 60
        E 0 90 48 60
        E 0 90 3c 60
        E 120 80 60 00
        E 0 80 54 00
        E 0 80 48 00
        E 0 80 3c 00
        E 120 90 61 60
        E 0 90 65 60
        E 0 90 55 60
        E 120 80 61 00
        E 0 80 65 00
        E 0 80 55 00
        E 120 90 63 60
        E 0 90 57 60
        E 0 90 4b 60
        E 120 80 4b 00
        E 240 80 3b 00
        E 0 80 63 00
        E 0 80 57 00
        <X 120 0
          /wFbbWVsbG93XQ==
        >
        E 0 90 28 60
        E 0 90 62 60
        E 0 90 63 60
        E 0 90 64 60
        E 0 90 57 60
        E 0 90 58 60
        E 0 90 4b 60
        E 0 90 4c 60
        E 0 90 3e 60
        E 120 80 74 00
        E 0 80 4b 00
        E 0 80 4c 00
        E 0 80 3e 00
        E 240 80 62 00
        E 0 80 63 00
        E 0 80 64 00
        E 0 80 57 00
        E 0 80 58 00
        E 120 90 62 60
        E 0 90 63 60
        E 0 90 64 60
        E 0 90 57 60
        E 0 90 58 60
        E 0 90 4b 60
        E 0 90 4c 60
        E 0 90 3e 60
        E 120 80 4b 00
        E 0 80 4c 00
        E 0 80 3e 00
        E 240 80 62 00
        E 0 80 63 00
        E 0 80 64 00
        E 0 80 57 00
        E 0 80 58 00
        E 120 90 62 60
        E 0 90 63 60
        E 0 90 64 60
        E 0 90 57 60
        E 0 90 58 60
        E 0 90 4b 60
        E 0 90 4c 60
        E 0 90 3e 60
        E 120 80 62 00
        E 0 80 63 00
        E 0 80 64 00
        E 0 80 57 00
        E 0 80 58 00
        E 0 80 4b 00
        E 0 80 4c 00
        E 0 80 3e 00
        E 120 90 62 60
        E 0 90 63 60
        E 0 90 64 60
        E 0 90 57 60
        E 0 90 58 60
        E 120 80 62 00
        E 0 80 63 00
        E 0 80 64 00
        E 0 80 57 00
        E 0 80 58 00
        E 120 90 62 60
        E 0 90 63 60
        E 0 90 56 60
        E 0 90 57 60
        E 0 90 4a 60
        E 0 90 4b 60
        E 0 90 3e 60
        E 120 80 62 00
        E 0 80 63 00
        E 0 80 56 00
        E 0 80 57 00
        E 0 80 4a 00
        E 0 80 4b 00
        E 0 80 3e 00
        E 120 90 62 60
        E 0 90 63 60
        E 0 90 64 60
        E 0 90 57 60
        E 0 90 58 60
        E 360 80 62 00
        E 0 80 63 00
        E 0 80 64 00
        E 0 80 57 00
        E 0 80 58 00
        E 120 90 62 60
        E 0 90 63 60
        E 0 90 56 60
        E 0 90 57 60
        E 120 80 62 00
        E 0 80 63 00
        E 0 80 56 00
        E 0 80 57 00
        E 120 90 62 60
        E 0 90 63 60
        E 0 90 64 60
        E 0 90 57 60
        E 0 90 58 60
        E 0 90 4b 60
        E 0 90 4c 60
        E 0 90 3e 60
        E 120 80 4b 00
        E 0 80 4c 00
        E 0 80 3e 00
        E 240 80 62 00
        E 0 80 63 00
        E 0 80 64 00
        E 0 80 57 00
        E 0 80 58 00
        E 120 90 62 60
        E 0 90 63 60
        E 0 90 64 60
        E 0 90 57 60
        E 0 90 58 60
        E 0 90 4b 60
        E 0 90 4c 60
        E 0 90 3e 60
        E 120 80 62 00
        E 0 80 63 00
        E 0 80 64 00
        E 0 80 57 00
        E 0 80 58 00
        E 0 80 4b 00
        E 0 80 4c 00
        E 0 80 3e 00
        E 120 90 62 60
        E 0 90 63 60
        E 0 90 64 60
        E 0 90 57 60
        E 0 90 58 60
        E 0 90 4b 60
        E 0 90 4c 60
        E 120 80 62 00
        E 0 80 63 00
        E 0 80 64 00
        E 0 80 57 00
        E 0 80 58 00
        E 0 80 4b 00
        E 0 80 4c 00
        E 120 90 62 60
        E 0 90 63 60
        E 0 90 64 60
        E 0 90 57 60
        E 0 90 58 60
        E 0 90 4b 60
        E 0 90 4c 60
        E 0 90 3e 60
        E 120 80 62 00
        E 0 80 63 00
        E 0 80 64 00
        E 0 80 57 00
        E 0 80 58 00
        E 0 80 4b 00
        E 0 80 4c 00
        E 0 80 3e 00
        E 120 90 62 60
        E 0 90 56 60
        E 120 80 62 00
        E 0 80 56 00
        E 120 90 61 60
        E 0 90 62 60
        E 0 90 63 60
        E 0 90 55 60
        E 0 90 57 60
        E 0 90 49 60
        E 0 90 4b 60
        E 0 90 3e 60
        E 120 80 49 00
        E 0 80 4b 00
        E 0 80 3e 00
        E 240 80 61 00
        E 0 80 62 00
        E 0 80 63 00
        E 0 80 55 00
        E 0 80 57 00
        E 120 90 61 60
        E 0 90 62 60
        E 0 90 63 60
        E 0 90 55 60
        E 0 90 57 60
        E 0 90 49 60
        E 0 90 4b 60
        E 0 90 3e 60
        E 120 80 49 00
        E 0 80 4b 00
        E 0 80 3e 00
        E 240 80 61 00
        E 0 80 62 00
        E 0 80 63 00
        E 0 80 55 00
        E 0 80 57 00
        E 120 90 61 60
        E 0 90 62 60
        E 0 90 63 60
        E 0 90 55 60
        E 0 90 57 60
        E 0 90 49 60
        E 0 90 4b 60
        E 0 90 3e 60
        E 120 80 61 00
        E 0 80 62 00
        E 0 80 63 00
        E 0 80 55 00
        E 0 80 57 00
        E 0 80 49 00
        E 0 80 4b 00
        E 0 80 3e 00
        E 120 90 61 60
        E 0 90 62 60
        E 0 90 55 60
        E 0 90 56 60
        E 120 80 61 00
        E 0 80 62 00
        E 0 80 55 00
        E 0 80 56 00
        E 120 90 61 60
        E 0 90 62 60
        E 0 90 63 60
        E 0 90 55 60
        E 0 90 57 60
        E 0 90 49 60
        E 0 90 4b 60
        E 0 90 3e 60
        E 120 80 61 00
        E 0 80 62 00
        E 0 80 63 00
        E 0 80 55 00
        E 0 80 57 00
        E 0 80 49 00
        E 0 80 4b 00
        E 0 80 3e 00
        E 120 90 60 60
        E 0 90 62 60
        E 0 90 63 60
        E 0 90 54 60
        E 0 90 57 60
        E 360 80 60 00
        E 0 80 62 00
        E 0 80 63 00
        E 0 80 54 00
        E 0 80 57 00
        E 120 90 60 60
        E 0 90 62 60
        E 0 90 54 60
        E 0 90 56 60
        E 0 90 48 60
        E 0 90 4a 60
        E 120 80 60 00
        E 0 80 62 00
        E 0 80 54 00
        E 0 80 56 00
        E 0 80 48 00
        E 0 80 4a 00
        E 120 90 60 60
        E 0 90 62 60
        E 0 90 63 60
        E 0 90 54 60
        E 0 90 57 60
        E 0 90 48 60
        E 0 90 4a 60
        E 0 90 3d 60
        E 120 80 60 00
        E 0 80 62 00
        E 0 80 63 00
        E 0 80 54 00
        E 0 80 57 00
        E 0 80 48 00
        E 0 80 4a 00
        E 0 80 3d 00
        E 120 90 60 60
        E 0 90 62 60
        E 0 90 54 60
        E 0 90 56 60
        E 0 90 48 60
        E 0 90 4a 60
        E 120 80 60 00
        E 0 80 62 00
        E 0 80 54 00
        E 0 80 56 00
        E 0 80 48 00
        E 0 80 4a 00
        E 120 90 60 60
        E 0 90 62 60
        E 0 90 63 60
        E 0 90 54 60
        E 0 90 57 60
        E 0 90 48 60
        E 0 90 4a 60
        E 0 90 3d 60
        E 120 80 60 00
        E 0 80 62 00
        E 0 80 63 00
        E 0 80 54 00
        E 0 80 57 00
        E 0 80 48 00
        E 0 80 4a 00
        E 0 80 3d 00
        E 120 90 60 60
        E 0 90 62 60
        E 0 90 54 60
        E 0 90 56 60
        E 0 90 48 60
        E 0 90 4a 60
        E 120 80 60 00
        E 0 80 62 00
        E 0 80 54 00
        E 0 80 56 00
        E 0 80 48 00
        E 0 80 4a 00
        E 120 90 60 60
        E 0 90 62 60
        E 0 90 63 60
        E 0 90 54 60
        E 0 90 57 60
        E 0 90 48 60
        E 0 90 4a 60
        E 0 90 3d 60
        E 120 80 48 00
        E 0 80 4a 00
        E 0 80 3d 00
        E 240 80 28 00
        E 0 80 60 00
        E 0 80 62 00
        E 0 80 63 00
        E 0 80 54 00
        E 0 80 57 00
        <X 120 0
          /wFbcGxheV0=
        >
        E 0 90 2d 60
        E 0 90 62 60
        E 0 90 67 60
        E 0 90 56 60
        E 0 90 4a 60
        E 0 90 3d 60
        E 120 80 62 00
        E 0 80 56 00
        E 0 80 4a 00
        E 0 80 3d 00
        E 120 90 62 60
        E 0 90 56 60
        E 0 90 4a 60
        E 120 80 62 00
        E 0 80 56 00
        E 0 80 4a 00
        E 120 90 62 60
        E 0 90 56 60
        E 0 90 4a 60
        E 0 90 3d 60
        E 120 80 62 00
        E 0 80 56 00
        E 0 80 4a 00
        E 0 80 3d 00
        E 120 90 62 60
        E 0 90 56 60
        E 0 90 4a 60
        E 120 80 62 00
        E 0 80 56 00
        E 0 80 4a 00
        E 120 90 62 60
        E 0 90 56 60
        E 0 90 4a 60
        E 0 90 3d 60
        E 120 80 62 00
        E 0 80 56 00
        E 0 80 4a 00
        E 0 80 3d 00
        E 120 90 62 60
        E 0 90 56 60
        E 0 90 4a 60
        E 120 80 62 00
        E 0 80 56 00
        E 0 80 4a 00
        E 120 90 62 60
        E 0 90 56 60
        E 0 90 4a 60
        E 0 90 3d 60
        E 120 80 62 00
        E 0 80 56 00
        E 0 80 4a 00
        E 0 80 3d 00
        E 120 90 62 60
        E 0 90 56 60
        E 0 90 4a 60
        E 120 80 62 00
        E 0 80 56 00
        E 0 80 4a 00
        E 120 90 62 60
        E 0 90 56 60
        E 0 90 4a 60
        E 0 90 3d 60
        E 120 80 62 00
        E 0 80 56 00
        E 0 80 4a 00
        E 0 80 3d 00
        E 121 90 62 60
        E 0 90 56 60
        E 0 90 4a 60
        E 120 80 62 00
        E 0 80 56 00
        E 0 80 4a 00
        E 120 90 62 60
        E 0 90 56 60
        E 0 90 4a 60
        E 0 90 3d 60
        E 120 80 62 00
        E 0 80 56 00
        E 0 80 4a 00
        E 0 80 3d 00
        E 120 90 62 60
        E 0 90 56 60
        E 0 90 4a 60
        E 120 80 62 00
        E 0 80 56 00
        E 0 80 4a 00
        E 120 90 62 60
        E 0 90 56 60
        E 0 90 4a 60
        E 0 90 3d 60
        E 120 80 62 00
        E 0 80 56 00
        E 0 80 4a 00
        E 0 80 3d 00
        E 120 90 62 60
        E 0 90 56 60
        E 0 90 4a 60
        E 120 80 62 00
        E 0 80 56 00
        E 0 80 4a 00
        E 120 90 62 60
        E 0 90 56 60
        E 0 90 4a 60
        E 120 80 62 00
        E 0 80 56 00
        E 0 80 4a 00
        E 120 90 62 60
        E 0 90 56 60
        E 120 80 62 00
        E 0 80 56 00
        E 119 90 62 60
        E 0 90 56 60
        E 0 90 4a 60
        E 0 90 3d 60
        E 120 80 62 00
        E 0 80 56 00
        E 0 80 4a 00
        E 0 80 3d 00
        E 121 90 62 60
        E 0 90 56 60
        E 0 90 4a 60
        E 120 80 62 00
        E 0 80 56 00
        E 0 80 4a 00
        E 120 90 62 60
        E 0 90 56 60
        E 0 90 4a 60
        E 0 90 3d 60
        E 120 80 62 00
        E 0 80 56 00
        E 0 80 4a 00
        E 0 80 3d 00
        E 120 90 62 60
        E 0 90 56 60
        E 0 90 4a 60
        E 120 80 62 00
        E 0 80 56 00
        E 0 80 4a 00
        E 120 90 62 60
        E 0 90 56 60
        E 0 90 4a 60
        E 0 90 3d 60
        E 120 80 62 00
        E 0 80 56 00
        E 0 80 4a 00
        E 0 80 3d 00
        E 120 90 62 60
        E 0 90 56 60
        E 0 90 4a 60
        E 120 80 62 00
        E 0 80 56 00
        E 0 80 4a 00
        E 120 90 62 60
        E 0 90 56 60
        E 0 90 4a 60
        E 120 80 62 00
        E 0 80 56 00
        E 0 80 4a 00
        E 120 90 62 60
        E 0 90 56 60
        E 120 80 62 00
        E 0 80 56 00
        E 119 90 64 60
        E 0 90 74 60
        E 0 90 58 60
        E 0 90 4c 60
        E 0 90 40 60
        E 120 80 64 00
        E 0 80 58 00
        E 0 80 4c 00
        E 0 80 40 00
        E 121 90 64 60
        E 0 90 58 60
        E 0 90 4c 60
        E 120 80 64 00
        E 0 80 58 00
        E 0 80 4c 00
        E 120 90 64 60
        E 0 90 58 60
        E 0 90 4c 60
        E 120 80 64 00
        E 0 80 58 00
        E 0 80 4c 00
        E 120 90 64 60
        E 0 90 58 60
        E 120 80 64 00
        E 0 80 58 00
        E 120 90 62 60
        E 0 90 56 60
        E 0 90 4a 60
        E 0 90 3d 60
        E 120 80 62 00
        E 0 80 56 00
        E 0 80 4a 00
        E 0 80 3d 00
        E 120 90 62 60
        E 0 90 56 60
        E 0 90 4a 60
        E 120 80 62 00
        E 0 80 56 00
        E 0 80 4a 00
        E 120 90 62 60
        E 0 90 56 60
        E 0 90 4a 60
        E 120 80 62 00
        E 0 80 56 00
        E 0 80 4a 00
        E 120 90 62 60
        E 0 90 56 60
        E 119 80 2d 00
        E 1 80 62 00
        E 0 80 56 00
        E 119 90 28 60
        E 0 90 61 60
        E 0 90 55 60
        E 0 90 49 60
        E 0 90 3d 60
        E 120 80 74 00
        E 0 80 61 00
        E 0 80 55 00
        E 0 80 49 00
        E 0 80 3d 00
        E 121 90 61 60
        E 0 90 55 60
        E 0 90 49 60
        E 120 80 61 00
        E 0 80 55 00
        E 0 80 49 00
        E 120 90 61 60
        E 0 90 55 60
        E 0 90 49 60
        E 0 90 3d 60
        E 120 80 61 00
        E 0 80 55 00
        E 0 80 49 00
        E 0 80 3d 00
        E 120 90 61 60
        E 0 90 55 60
        E 0 90 49 60
        E 120 80 61 00
        E 0 80 55 00
        E 0 80 49 00
        E 120 90 61 60
        E 0 90 55 60
        E 0 90 49 60
        E 0 90 3d 60
        E 120 80 61 00
        E 0 80 55 00
        E 0 80 49 00
        E 0 80 3d 00
        E 120 90 61 60
        E 0 90 55 60
        E 0 90 49 60
        E 120 80 61 00
        E 0 80 55 00
        E 0 80 49 00
        E 120 90 61 60
        E 0 90 55 60
        E 0 90 49 60
        E 120 80 61 00
        E 0 80 55 00
        E 0 80 49 00
        E 120 90 61 60
        E 0 90 55 60
        E 120 80 61 00
        E 0 80 55 00
        E 119 90 61 60
        E 0 90 55 60
        E 0 90 49 60
        E 0 90 3d 60
        E 120 80 61 00
        E 0 80 55 00
        E 0 80 49 00
        E 0 80 3d 00
        E 121 90 61 60
        E 0 90 55 60
        E 0 90 49 60
        E 120 80 61 00
        E 0 80 55 00
        E 0 80 49 00
        E 120 90 61 60
        E 0 90 55 60
        E 0 90 49 60
        E 0 90 3d 60
        E 120 80 61 00
        E 0 80 55 00
        E 0 80 49 00
        E 0 80 3d 00
        E 120 90 61 60
        E 0 90 55 60
        E 0 90 49 60
        E 120 80 61 00
        E 0 80 55 00
        E 0 80 49 00
        E 120 90 61 60
        E 0 90 55 60
        E 0 90 49 60
        E 0 90 3d 60
        E 120 80 61 00
        E 0 80 55 00
        E 0 80 49 00
        E 0 80 3d 00
        E 120 90 61 60
        E 0 90 55 60
        E 0 90 49 60
        E 120 80 61 00
        E 0 80 55 00
        E 0 80 49 00
        E 120 90 61 60
        E 0 90 55 60
        E 0 90 49 60
        E 120 80 61 00
        E 0 80 55 00
        E 0 80 49 00
        E 120 90 61 60
        E 0 90 55 60
        E 120 80 61 00
        E 0 80 55 00
        E 119 90 60 60
        E 0 90 54 60
        E 0 90 48 60
        E 0 90 3c 60
        E 120 80 60 00
        E 0 80 54 00
        E 0 80 48 00
        E 0 80 3c 00
        E 121 90 60 60
        E 0 90 54 60
        E 0 90 48 60
        E 120 80 60 00
        E 0 80 54 00
        E 0 80 48 00
        E 120 90 60 60
        E 0 90 54 60
        E 0 90 48 60
        E 0 90 3c 60
        E 120 80 60 00
        E 0 80 54 00
        E 0 80 48 00
        E 0 80 3c 00
        E 120 90 60 60
        E 0 90 54 60
        E 0 90 48 60
        E 120 80 60 00
        E 0 80 54 00
        E 0 80 48 00
        E 120 90 60 60
        E 0 90 54 60
        E 0 90 48 60
        E 0 90 3c 60
        E 120 80 60 00
        E 0 80 54 00
        E 0 80 48 00
        E 0 80 3c 00
        E 120 90 60 60
        E 0 90 54 60
        E 0 90 48 60
        E 120 80 60 00
        E 0 80 54 00
        E 0 80 48 00
        E 120 90 60 60
        E 0 90 54 60
        E 0 90 48 60
        E 120 80 60 00
        E 0 80 54 00
        E 0 80 48 00
        E 120 90 60 60
        E 0 90 54 60
        E 120 80 60 00
        E 0 80 54 00
        E 119 90 62 60
        E 0 90 56 60
        E 0 90 4a 60
        E 0 90 3d 60
        E 120 80 62 00
        E 0 80 56 00
        E 0 80 4a 00
        E 0 80 3d 00
        E 121 90 62 60
        E 0 90 56 60
        E 0 90 4a 60
        E 120 80 62 00
        E 0 80 56 00
        E 0 80 4a 00
        E 120 90 62 60
        E 0 90 56 60
        E 0 90 4a 60
        E 0 90 3d 60
        E 120 80 62 00
        E 0 80 56 00
        E 0 80 4a 00
        E 0 80 3d 00
        E 120 90 62 60
        E 0 90 56 60
        E 120 80 62 00
        E 0 80 56 00
        E 120 90 61 60
        E 0 90 55 60
        E 0 90 49 60
        E 0 90 3d 60
        E 120 80 61 00
        E 0 80 55 00
        E 0 80 49 00
        E 0 80 3d 00
        E 120 90 61 60
        E 0 90 55 60
        E 0 90 49 60
        E 120 80 61 00
        E 0 80 55 00
        E 0 80 49 00
        E 120 90 61 60
        E 0 90 55 60
        E 0 90 49 60
        E 120 80 61 00
        E 0 80 55 00
        E 0 80 49 00
        E 120 90 61 60
        E 0 90 55 60
        E 120 80 61 00
        E 0 80 55 00
        E 119 90 60 60
        E 0 90 54 60
        E 0 90 48 60
        E 0 90 3c 60
        E 120 80 60 00
        E 0 80 54 00
        E 0 80 48 00
        E 0 80 3c 00
        E 121 90 60 60
        E 0 90 54 60
        E 0 90 48 60
        E 120 80 60 00
        E 0 80 54 00
        E 0 80 48 00
        E 120 90 60 60
        E 0 90 54 60
        E 0 90 48 60
        E 0 90 3c 60
        E 120 80 60 00
        E 0 80 54 00
        E 0 80 48 00
        E 0 80 3c 00
        E 120 90 60 60
        E 0 90 54 60
        E 0 90 48 60
        E 120 80 60 00
        E 0 80 54 00
        E 0 80 48 00
        E 120 90 60 60
        E 0 90 54 60
        E 0 90 48 60
        E 0 90 3c 60
        E 120 80 60 00
        E 0 80 54 00
        E 0 80 48 00
        E 0 80 3c 00
        E 120 90 60 60
        E 0 90 54 60
        E 0 90 48 60
        E 120 80 60 00
        E 0 80 54 00
        E 0 80 48 00
        E 120 90 60 60
        E 0 90 54 60
        E 0 90 48 60
        E 120 80 60 00
        E 0 80 54 00
        E 0 80 48 00
        E 120 90 60 60
        E 0 90 54 60
        E 120 80 60 00
        E 0 80 54 00
        E 119 90 60 60
        E 0 90 54 60
        E 0 90 48 60
        E 0 90 3c 60
        E 120 80 60 00
        E 0 80 54 00
        E 0 80 48 00
        E 0 80 3c 00
        E 121 90 60 60
        E 0 90 54 60
        E 0 90 48 60
        E 120 80 60 00
        E 0 80 54 00
        E 0 80 48 00
        E 120 90 60 60
        E 0 90 54 60
        E 0 90 48 60
        E 0 90 3c 60
        E 120 80 60 00
        E 0 80 54 00
        E 0 80 48 00
        E 0 80 3c 00
        E 120 90 60 60
        E 0 90 54 60
        E 0 90 48 60
        E 120 80 60 00
        E 0 80 54 00
        E 0 80 48 00
        E 120 90 60 60
        E 0 90 54 60
        E 0 90 48 60
        E 0 90 3c 60
        E 120 80 60 00
        E 0 80 54 00
        E 0 80 48 00
        E 0 80 3c 00
        E 120 90 60 60
        E 0 90 54 60
        E 0 90 48 60
        E 120 80 60 00
        E 0 80 54 00
        E 0 80 48 00
        E 120 90 60 60
        E 0 90 54 60
        E 0 90 48 60
        E 120 80 60 00
        E 0 80 54 00
        E 0 80 48 00
        E 120 90 60 60
        E 0 90 54 60
        E 120 80 60 00
        E 0 80 54 00
        E 119 90 61 60
        E 0 90 55 60
        E 0 90 49 60
        E 0 90 3d 60
        E 120 80 61 00
        E 0 80 55 00
        E 0 80 49 00
        E 0 80 3d 00
        E 121 90 61 60
        E 0 90 55 60
        E 0 90 49 60
        E 120 80 61 00
        E 0 80 55 00
        E 0 80 49 00
        E 120 90 61 60
        E 0 90 55 60
        E 0 90 49 60
        E 0 90 3d 60
        E 120 80 61 00
        E 0 80 55 00
        E 0 80 49 00
        E 0 80 3d 00
        E 120 90 61 60
        E 0 90 55 60
        E 0 90 49 60
        E 120 80 61 00
        E 0 80 55 00
        E 0 80 49 00
        E 120 90 61 60
        E 0 90 55 60
        E 0 90 49 60
        E 0 90 3d 60
        E 120 80 61 00
        E 0 80 55 00
        E 0 80 49 00
        E 0 80 3d 00
        E 120 90 61 60
        E 0 90 55 60
        E 0 90 49 60
        E 120 80 61 00
        E 0 80 55 00
        E 0 80 49 00
        E 120 90 61 60
        E 0 90 55 60
        E 0 90 49 60
        E 120 80 61 00
        E 0 80 55 00
        E 0 80 49 00
        E 120 90 61 60
        E 0 90 55 60
        E 120 80 61 00
        E 0 80 55 00
        E 119 90 64 60
        E 0 90 58 60
        E 0 90 4c 60
        E 0 90 40 60
        E 120 80 64 00
        E 0 80 58 00
        E 0 80 4c 00
        E 0 80 40 00
        E 121 90 64 60
        E 0 90 58 60
        E 0 90 4c 60
        E 120 80 64 00
        E 0 80 58 00
        E 0 80 4c 00
        E 120 90 64 60
        E 0 90 58 60
        E 0 90 4c 60
        E 120 80 64 00
        E 0 80 58 00
        E 0 80 4c 00
        E 120 90 64 60
        E 0 90 58 60
        E 120 80 64 00
        E 0 80 58 00
        E 120 90 62 60
        E 0 90 56 60
        E 0 90 4a 60
        E 0 90 3d 60
        E 120 80 62 00
        E 0 80 56 00
        E 0 80 4a 00
        E 0 80 3d 00
        E 120 90 62 60
        E 0 90 56 60
        E 0 90 4a 60
        E 120 80 62 00
        E 0 80 56 00
        E 0 80 4a 00
        E 120 90 62 60
        E 0 90 56 60
        E 0 90 4a 60
        E 120 80 62 00
        E 0 80 56 00
        E 0 80 4a 00
        E 120 90 62 60
        E 0 90 56 60
        E 120 80 62 00
        E 0 80 56 00
        E 119 90 61 60
        E 0 90 55 60
        E 0 90 49 60
        E 0 90 3d 60
        E 3360 80 49 00
        E 0 80 3d 00
        E 360 80 67 00
        E 0 80 61 00
        E 0 80 55 00
        <X 120 0
          /wFbbWVsbG93XQ==
        >
        E 0 90 61 60
        E 0 90 62 60
        E 0 90 63 60
        E 0 90 55 60
        E 0 90 57 60
        E 0 90 49 60
        E 0 90 4b 60
        E 0 90 3e 60
        E 120 80 61 00
        E 0 80 62 00
        E 0 80 63 00
        E 0 80 55 00
        E 0 80 57 00
        E 0 80 49 00
        E 0 80 4b 00
        E 0 80 3e 00
        E 360 90 61 60
        E 0 90 62 60
        E 0 90 63 60
        E 0 90 55 60
        E 0 90 57 60
        E 0 90 49 60
        E 0 90 4b 60
        E 0 90 3e 60
        E 120 80 61 00
        E 0 80 62 00
        E 0 80 63 00
        E 0 80 55 00
        E 0 80 57 00
        E 0 80 49 00
        E 0 80 4b 00
        E 0 80 3e 00
        E 360 90 61 60
        E 0 90 62 60
        E 0 90 63 60
        E 0 90 55 60
        E 0 90 57 60
        E 0 90 49 60
        E 0 90 4b 60
        E 0 90 3e 60
        E 120 80 61 00
        E 0 80 62 00
        E 0 80 63 00
        E 0 80 55 00
        E 0 80 57 00
        E 0 80 49 00
        E 0 80 4b 00
        E 0 80 3e 00
        E 120 90 61 60
        E 0 90 62 60
        E 0 90 55 60
        E 0 90 56 60
        E 120 80 61 00
        E 0 80 62 00
        E 0 80 55 00
        E 0 80 56 00
        E 120 90 61 60
        E 0 90 62 60
        E 0 90 63 60
        E 0 90 55 60
        E 0 90 57 60
        E 0 90 49 60
        E 0 90 4b 60
        E 0 90 3e 60
        E 120 80 61 00
        E 0 80 62 00
        E 0 80 63 00
        E 0 80 55 00
        E 0 80 57 00
        E 0 80 49 00
        E 0 80 4b 00
        E 0 80 3e 00
        E 120 90 60 60
        E 0 90 62 60
        E 0 90 63 60
        E 0 90 54 60
        E 0 90 57 60
        E 120 80 60 00
        E 0 80 62 00
        E 0 80 63 00
        E 0 80 54 00
        E 0 80 57 00
        E 360 90 62 60
        E 0 90 63 60
        E 0 90 56 60
        E 0 90 57 60
        E 0 90 4a 60
        E 0 90 4b 60
        E 120 80 62 00
        E 0 80 63 00
        E 0 80 56 00
        E 0 80 57 00
        E 0 80 4a 00
        E 0 80 4b 00
        E 360 90 62 60
        E 0 90 63 60
        E 0 90 56 60
        E 0 90 57 60
        E 120 80 62 00
        E 0 80 63 00
        E 0 80 56 00
        E 0 80 57 00
        E 120 90 60 60
        E 0 90 62 60
        E 0 90 63 60
        E 0 90 54 60
        E 0 90 57 60
        E 0 90 48 60
        E 0 90 4a 60
        E 0 90 3d 60
        E 120 80 60 00
        E 0 80 62 00
        E 0 80 63 00
        E 0 80 54 00
        E 0 80 57 00
        E 0 80 48 00
        E 0 80 4a 00
        E 0 80 3d 00
        E 120 90 60 60
        E 0 90 62 60
        E 0 90 54 60
        E 0 90 56 60
        E 0 90 48 60
        E 0 90 4a 60
        E 120 80 60 00
        E 0 80 62 00
        E 0 80 54 00
        E 0 80 56 00
        E 0 80 48 00
        E 0 80 4a 00
        E 120 90 60 60
        E 0 90 62 60
        E 0 90 63 60
        E 0 90 54 60
        E 0 90 57 60
        E 0 90 48 60
        E 0 90 4a 60
        E 120 80 60 00
        E 0 80 62 00
        E 0 80 63 00
        E 0 80 54 00
        E 0 80 57 00
        E 0 80 48 00
        E 0 80 4a 00
        E 120 90 62 60
        E 0 90 56 60
        E 120 80 62 00
        E 0 80 56 00
        E 120 90 62 60
        E 0 90 63 60
        E 0 90 64 60
        E 0 90 57 60
        E 0 90 58 60
        E 0 90 4b 60
        E 0 90 4c 60
        E 0 90 3e 60
        E 120 80 62 00
        E 0 80 63 00
        E 0 80 64 00
        E 0 80 57 00
        E 0 80 58 00
        E 0 80 4b 00
        E 0 80 4c 00
        E 0 80 3e 00
        E 360 90 62 60
        E 0 90 63 60
        E 0 90 64 60
        E 0 90 57 60
        E 0 90 58 60
        E 0 90 4b 60
        E 0 90 4c 60
        E 0 90 3e 60
        E 120 80 62 00
        E 0 80 63 00
        E 0 80 64 00
        E 0 80 57 00
        E 0 80 58 00
        E 0 80 4b 00
        E 0 80 4c 00
        E 0 80 3e 00
        E 360 90 62 60
        E 0 90 63 60
        E 0 90 64 60
        E 0 90 57 60
        E 0 90 58 60
        E 0 90 4b 60
        E 0 90 4c 60
        E 0 90 3e 60
        E 120 80 62 00
        E 0 80 63 00
        E 0 80 64 00
        E 0 80 57 00
        E 0 80 58 00
        E 0 80 4b 00
        E 0 80 4c 00
        E 0 80 3e 00
        E 120 90 62 60
        E 0 90 63 60
        E 0 90 56 60
        E 0 90 57 60
        E 120 80 62 00
        E 0 80 63 00
        E 0 80 56 00
        E 0 80 57 00
        E 120 90 62 60
        E 0 90 63 60
        E 0 90 56 60
        E 0 90 57 60
        E 0 90 4a 60
        E 0 90 4b 60
        E 0 90 3e 60
        E 120 80 62 00
        E 0 80 63 00
        E 0 80 56 00
        E 0 80 57 00
        E 0 80 4a 00
        E 0 80 4b 00
        E 0 80 3e 00
        E 120 90 62 60
        E 0 90 63 60
        E 0 90 64 60
        E 0 90 57 60
        E 0 90 58 60
        E 120 80 62 00
        E 0 80 63 00
        E 0 80 64 00
        E 0 80 57 00
        E 0 80 58 00
        E 360 90 62 60
        E 0 90 63 60
        E 0 90 64 60
        E 0 90 57 60
        E 0 90 58 60
        E 0 90 4b 60
        E 0 90 4c 60
        E 120 80 62 00
        E 0 80 63 00
        E 0 80 64 00
        E 0 80 57 00
        E 0 80 58 00
        E 0 80 4b 00
        E 0 80 4c 00
        E 360 90 62 60
        E 0 90 63 60
        E 0 90 64 60
        E 0 90 57 60
        E 0 90 58 60
        E 0 90 4b 60
        E 0 90 4c 60
        E 120 80 62 00
        E 0 80 63 00
        E 0 80 64 00
        E 0 80 57 00
        E 0 80 58 00
        E 0 80 4b 00
        E 0 80 4c 00
        E 120 90 62 60
        E 0 90 63 60
        E 0 90 64 60
        E 0 90 57 60
        E 0 90 58 60
        E 0 90 4b 60
        E 0 90 4c 60
        E 0 90 3e 60
        E 120 80 62 00
        E 0 80 63 00
        E 0 80 64 00
        E 0 80 57 00
        E 0 80 58 00
        E 0 80 4b 00
        E 0 80 4c 00
        E 0 80 3e 00
        E 120 90 62 60
        E 0 90 63 60
        E 0 90 56 60
        E 0 90 57 60
        E 120 80 62 00
        E 0 80 63 00
        E 0 80 56 00
        E 0 80 57 00
        E 120 90 62 60
        E 0 90 63 60
        E 0 90 64 60
        E 0 90 57 60
        E 0 90 58 60
        E 0 90 4b 60
        E 0 90 4c 60
        E 0 90 3e 60
        E 120 80 62 00
        E 0 80 63 00
        E 0 80 64 00
        E 0 80 57 00
        E 0 80 58 00
        E 0 80 4b 00
        E 0 80 4c 00
        E 0 80 3e 00
        E 120 90 61 60
        E 0 90 55 60
        E 120 80 61 00
        E 0 80 55 00
        E 120 90 61 60
        E 0 90 62 60
        E 0 90 63 60
        E 0 90 55 60
        E 0 90 57 60
        E 0 90 49 60
        E 0 90 4b 60
        E 0 90 3e 60
        E 120 80 61 00
        E 0 80 62 00
        E 0 80 63 00
        E 0 80 55 00
        E 0 80 57 00
        E 0 80 49 00
        E 0 80 4b 00
        E 0 80 3e 00
        E 360 90 61 60
        E 0 90 62 60
        E 0 90 63 60
        E 0 90 55 60
        E 0 90 57 60
        E 0 90 49 60
        E 0 90 4b 60
        E 0 90 3e 60
        E 120 80 61 00
        E 0 80 62 00
        E 0 80 63 00
        E 0 80 55 00
        E 0 80 57 00
        E 0 80 49 00
        E 0 80 4b 00
        E 0 80 3e 00
        E 360 90 61 60
        E 0 90 62 60
        E 0 90 63 60
        E 0 90 55 60
        E 0 90 57 60
        E 0 90 49 60
        E 0 90 4b 60
        E 0 90 3e 60
        E 120 80 61 00
        E 0 80 62 00
        E 0 80 63 00
        E 0 80 55 00
        E 0 80 57 00
        E 0 80 49 00
        E 0 80 4b 00
        E 0 80 3e 00
        E 120 90 61 60
        E 0 90 62 60
        E 0 90 55 60
        E 0 90 56 60
        E 120 80 61 00
        E 0 80 62 00
        E 0 80 55 00
        E 0 80 56 00
        E 120 90 61 60
        E 0 90 62 60
        E 0 90 63 60
        E 0 90 55 60
        E 0 90 57 60
        E 0 90 49 60
        E 0 90 4b 60
        E 0 90 3e 60
        E 120 80 61 00
        E 0 80 62 00
        E 0 80 63 00
        E 0 80 55 00
        E 0 80 57 00
        E 0 80 49 00
        E 0 80 4b 00
        E 0 80 3e 00
        E 120 90 60 60
        E 0 90 62 60
        E 0 90 63 60
        E 0 90 54 60
        E 0 90 57 60
        E 120 80 60 00
        E 0 80 62 00
        E 0 80 63 00
        E 0 80 54 00
        E 0 80 57 00
        E 360 90 62 60
        E 0 90 63 60
        E 0 90 56 60
        E 0 90 57 60
        E 0 90 4a 60
        E 0 90 4b 60
        E 120 80 62 00
        E 0 80 63 00
        E 0 80 56 00
        E 0 80 57 00
        E 0 80 4a 00
        E 0 80 4b 00
        E 360 90 62 60
        E 0 90 63 60
        E 0 90 56 60
        E 0 90 57 60
        E 120 80 62 00
        E 0 80 63 00
        E 0 80 56 00
        E 0 80 57 00
        E 120 90 60 60
        E 0 90 62 60
        E 0 90 63 60
        E 0 90 54 60
        E 0 90 57 60
        E 0 90 48 60
        E 0 90 4a 60
        E 0 90 3d 60
        E 120 80 60 00
        E 0 80 62 00
        E 0 80 63 00
        E 0 80 54 00
        E 0 80 57 00
        E 0 80 48 00
        E 0 80 4a 00
        E 0 80 3d 00
        E 120 90 60 60
        E 0 90 62 60
        E 0 90 54 60
        E 0 90 56 60
        E 0 90 48 60
        E 0 90 4a 60
        E 120 80 60 00
        E 0 80 62 00
        E 0 80 54 00
        E 0 80 56 00
        E 0 80 48 00
        E 0 80 4a 00
        E 120 90 60 60
        E 0 90 62 60
        E 0 90 63 60
        E 0 90 54 60
        E 0 90 57 60
        E 0 90 48 60
        E 0 90 4a 60
        E 120 80 60 00
        E 0 80 62 00
        E 0 80 63 00
        E 0 80 54 00
        E 0 80 57 00
        E 0 80 48 00
        E 0 80 4a 00
        E 120 90 62 60
        E 0 90 56 60
        E 120 80 62 00
        E 0 80 56 00
        <X 120 0
          /wFbcGxheV0=
        >
        E 0 90 62 60
        E 0 90 63 60
        E 0 90 64 60
        E 0 90 57 60
        E 0 90 58 60
        E 0 90 4b 60
        E 0 90 4c 60
        E 0 90 3e 60
        E 120 80 62 00
        E 0 80 63 00
        E 0 80 64 00
        E 0 80 57 00
        E 0 80 58 00
        E 0 80 4b 00
        E 0 80 4c 00
        E 0 80 3e 00
        E 360 90 62 60
        E 0 90 63 60
        E 0 90 64 60
        E 0 90 57 60
        E 0 90 58 60
        E 0 90 4b 60
        E 0 90 4c 60
        E 0 90 3e 60
        E 120 80 62 00
        E 0 80 63 00
        E 0 80 64 00
        E 0 80 57 00
        E 0 80 58 00
        E 0 80 4b 00
        E 0 80 4c 00
        E 0 80 3e 00
        E 360 90 62 60
        E 0 90 63 60
        E 0 90 64 60
        E 0 90 57 60
        E 0 90 58 60
        E 0 90 4b 60
        E 0 90 4c 60
        E 0 90 3e 60
        E 120 80 62 00
        E 0 80 63 00
        E 0 80 64 00
        E 0 80 57 00
        E 0 80 58 00
        E 0 80 4b 00
        E 0 80 4c 00
        E 0 80 3e 00
        E 120 90 62 60
        E 0 90 63 60
        E 0 90 56 60
        E 0 90 57 60
        E 120 80 62 00
        E 0 80 63 00
        E 0 80 56 00
        E 0 80 57 00
        E 120 90 62 60
        E 0 90 63 60
        E 0 90 56 60
        E 0 90 57 60
        E 0 90 4a 60
        E 0 90 4b 60
        E 0 90 3e 60
        E 120 80 62 00
        E 0 80 63 00
        E 0 80 56 00
        E 0 80 57 00
        E 0 80 4a 00
        E 0 80 4b 00
        E 0 80 3e 00
        E 120 90 62 60
        E 0 90 63 60
        E 0 90 64 60
        E 0 90 57 60
        E 0 90 58 60
        E 120 80 62 00
        E 0 80 63 00
        E 0 80 64 00
        E 0 80 57 00
        E 0 80 58 00
        E 360 90 62 60
        E 0 90 63 60
        E 0 90 64 60
        E 0 90 57 60
        E 0 90 58 60
        E 0 90 4b 60
        E 0 90 4c 60
        E 120 80 62 00
        E 0 80 63 00
        E 0 80 64 00
        E 0 80 57 00
        E 0 80 58 00
        E 0 80 4b 00
        E 0 80 4c 00
        E 360 90 62 60
        E 0 90 63 60
        E 0 90 64 60
        E 0 90 57 60
        E 0 90 58 60
        E 0 90 4b 60
        E 0 90 4c 60
        E 120 80 62 00
        E 0 80 63 00
        E 0 80 64 00
        E 0 80 57 00
        E 0 80 58 00
        E 0 80 4b 00
        E 0 80 4c 00
        E 120 90 62 60
        E 0 90 63 60
        E 0 90 64 60
        E 0 90 57 60
        E 0 90 58 60
        E 0 90 4b 60
        E 0 90 4c 60
        E 0 90 3e 60
        E 120 80 62 00
        E 0 80 63 00
        E 0 80 64 00
        E 0 80 57 00
        E 0 80 58 00
        E 0 80 4b 00
        E 0 80 4c 00
        E 0 80 3e 00
        E 120 90 62 60
        E 0 90 63 60
        E 0 90 56 60
        E 0 90 57 60
        E 120 80 62 00
        E 0 80 63 00
        E 0 80 56 00
        E 0 80 57 00
        E 120 90 62 60
        E 0 90 63 60
        E 0 90 64 60
        E 0 90 57 60
        E 0 90 58 60
        E 0 90 4b 60
        E 0 90 4c 60
        E 0 90 3e 60
        E 120 80 62 00
        E 0 80 63 00
        E 0 80 64 00
        E 0 80 57 00
        E 0 80 58 00
        E 0 80 4b 00
        E 0 80 4c 00
        E 0 80 3e 00
        E 120 90 61 60
        E 0 90 55 60
        E 120 80 61 00
        E 0 80 55 00
        E 120 90 61 60
        E 0 90 62 60
        E 0 90 63 60
        E 0 90 55 60
        E 0 90 57 60
        E 0 90 49 60
        E 0 90 4b 60
        E 0 90 3e 60
        E 120 80 61 00
        E 0 80 62 00
        E 0 80 63 00
        E 0 80 55 00
        E 0 80 57 00
        E 0 80 49 00
        E 0 80 4b 00
        E 0 80 3e 00
        E 360 90 61 60
        E 0 90 62 60
        E 0 90 63 60
        E 0 90 55 60
        E 0 90 57 60
        E 0 90 49 60
        E 0 90 4b 60
        E 0 90 3e 60
        E 120 80 61 00
        E 0 80 62 00
        E 0 80 63 00
        E 0 80 55 00
        E 0 80 57 00
        E 0 80 49 00
        E 0 80 4b 00
        E 0 80 3e 00
        E 360 90 61 60
        E 0 90 62 60
        E 0 90 63 60
        E 0 90 55 60
        E 0 90 57 60
        E 0 90 49 60
        E 0 90 4b 60
        E 0 90 3e 60
        E 120 80 61 00
        E 0 80 62 00
        E 0 80 63 00
        E 0 80 55 00
        E 0 80 57 00
        E 0 80 49 00
        E 0 80 4b 00
        E 0 80 3e 00
        E 120 90 61 60
        E 0 90 62 60
        E 0 90 55 60
        E 0 90 56 60
        E 120 80 61 00
        E 0 80 62 00
        E 0 80 55 00
        E 0 80 56 00
        E 120 90 61 60
        E 0 90 62 60
        E 0 90 63 60
        E 0 90 55 60
        E 0 90 57 60
        E 0 90 49 60
        E 0 90 4b 60
        E 0 90 3e 60
        E 120 80 61 00
        E 0 80 62 00
        E 0 80 63 00
        E 0 80 55 00
        E 0 80 57 00
        E 0 80 49 00
        E 0 80 4b 00
        E 0 80 3e 00
        E 120 90 60 60
        E 0 90 62 60
        E 0 90 63 60
        E 0 90 54 60
        E 0 90 57 60
        E 120 80 60 00
        E 0 80 62 00
        E 0 80 63 00
        E 0 80 54 00
        E 0 80 57 00
        E 360 90 62 60
        E 0 90 63 60
        E 0 90 56 60
        E 0 90 57 60
        E 0 90 4a 60
        E 0 90 4b 60
        E 120 80 62 00
        E 0 80 63 00
        E 0 80 56 00
        E 0 80 57 00
        E 0 80 4a 00
        E 0 80 4b 00
        E 360 90 62 60
        E 0 90 63 60
        E 0 90 56 60
        E 0 90 57 60
        E 120 80 62 00
        E 0 80 63 00
        E 0 80 56 00
        E 0 80 57 00
        E 120 90 60 60
        E 0 90 62 60
        E 0 90 63 60
        E 0 90 54 60
        E 0 90 57 60
        E 0 90 48 60
        E 0 90 4a 60
        E 0 90 3d 60
        E 120 80 60 00
        E 0 80 62 00
        E 0 80 63 00
        E 0 80 54 00
        E 0 80 57 00
        E 0 80 48 00
        E 0 80 4a 00
        E 0 80 3d 00
        E 120 90 60 60
        E 0 90 62 60
        E 0 90 54 60
        E 0 90 56 60
        E 0 90 48 60
        E 0 90 4a 60
        E 120 80 60 00
        E 0 80 62 00
        E 0 80 54 00
        E 0 80 56 00
        E 0 80 48 00
        E 0 80 4a 00
        E 120 90 60 60
        E 0 90 62 60
        E 0 90 63 60
        E 0 90 54 60
        E 0 90 57 60
        E 0 90 48 60
        E 0 90 4a 60
        E 120 80 60 00
        E 0 80 62 00
        E 0 80 63 00
        E 0 80 54 00
        E 0 80 57 00
        E 0 80 48 00
        E 0 80 4a 00
        E 120 90 62 60
        E 0 90 56 60
        E 120 80 62 00
        E 0 80 56 00
        E 120 90 62 60
        E 0 90 63 60
        E 0 90 64 60
        E 0 90 57 60
        E 0 90 58 60
        E 0 90 4b 60
        E 0 90 4c 60
        E 0 90 3e 60
        E 120 80 62 00
        E 0 80 63 00
        E 0 80 64 00
        E 0 80 57 00
        E 0 80 58 00
        E 0 80 4b 00
        E 0 80 4c 00
        E 0 80 3e 00
        E 360 90 62 60
        E 0 90 63 60
        E 0 90 64 60
        E 0 90 57 60
        E 0 90 58 60
        E 0 90 4b 60
        E 0 90 4c 60
        E 0 90 3e 60
        E 120 80 62 00
        E 0 80 63 00
        E 0 80 64 00
        E 0 80 57 00
        E 0 80 58 00
        E 0 80 4b 00
        E 0 80 4c 00
        E 0 80 3e 00
        E 360 90 62 60
        E 0 90 63 60
        E 0 90 64 60
        E 0 90 57 60
        E 0 90 58 60
        E 0 90 4b 60
        E 0 90 4c 60
        E 0 90 3e 60
        E 120 80 62 00
        E 0 80 63 00
        E 0 80 64 00
        E 0 80 57 00
        E 0 80 58 00
        E 0 80 4b 00
        E 0 80 4c 00
        E 0 80 3e 00
        E 120 90 62 60
        E 0 90 63 60
        E 0 90 56 60
        E 0 90 57 60
        E 120 80 62 00
        E 0 80 63 00
        E 0 80 56 00
        E 0 80 57 00
        E 120 90 62 60
        E 0 90 63 60
        E 0 90 56 60
        E 0 90 57 60
        E 0 90 4a 60
        E 0 90 4b 60
        E 0 90 3e 60
        E 120 80 62 00
        E 0 80 63 00
        E 0 80 56 00
        E 0 80 57 00
        E 0 80 4a 00
        E 0 80 4b 00
        E 0 80 3e 00
        E 120 90 62 60
        E 0 90 63 60
        E 0 90 64 60
        E 0 90 57 60
        E 0 90 58 60
        E 120 80 62 00
        E 0 80 63 00
        E 0 80 64 00
        E 0 80 57 00
        E 0 80 58 00
        E 120 90 74 60
        E 240 90 62 60
        E 0 90 63 60
        E 0 90 64 60
        E 0 90 57 60
        E 0 90 58 60
        E 0 90 4b 60
        E 0 90 4c 60
        E 120 80 62 00
        E 0 80 63 00
        E 0 80 64 00
        E 0 80 57 00
        E 0 80 58 00
        E 0 80 4b 00
        E 0 80 4c 00
        E 360 90 62 60
        E 0 90 63 60
        E 0 90 64 60
        E 0 90 57 60
        E 0 90 58 60
        E 0 90 4b 60
        E 0 90 4c 60
        E 120 80 62 00
        E 0 80 63 00
        E 0 80 64 00
        E 0 80 57 00
        E 0 80 58 00
        E 0 80 4b 00
        E 0 80 4c 00
        E 120 90 62 60
        E 0 90 63 60
        E 0 90 64 60
        E 0 90 57 60
        E 0 90 58 60
        E 0 90 4b 60
        E 0 90 4c 60
        E 0 90 3e 60
        E 120 80 62 00
        E 0 80 63 00
        E 0 80 64 00
        E 0 80 57 00
        E 0 80 58 00
        E 0 80 4b 00
        E 0 80 4c 00
        E 0 80 3e 00
        E 120 90 62 60
        E 0 90 63 60
        E 0 90 56 60
        E 0 90 57 60
        E 120 80 62 00
        E 0 80 63 00
        E 0 80 56 00
        E 0 80 57 00
        E 120 90 62 60
        E 0 90 63 60
        E 0 90 64 60
        E 0 90 57 60
        E 0 90 58 60
        E 0 90 4b 60
        E 0 90 4c 60
        E 0 90 3e 60
        E 120 80 62 00
        E 0 80 63 00
        E 0 80 64 00
        E 0 80 57 00
        E 0 80 58 00
        E 0 80 4b 00
        E 0 80 4c 00
        E 0 80 3e 00
        E 120 90 61 60
        E 0 90 55 60
        E 120 80 61 00
        E 0 80 55 00
        E 120 90 61 60
        E 0 90 62 60
        E 0 90 63 60
        E 0 90 55 60
        E 0 90 57 60
        E 0 90 49 60
        E 0 90 4b 60
        E 0 90 3e 60
        E 120 80 74 00
        E 0 80 61 00
        E 0 80 62 00
        E 0 80 63 00
        E 0 80 55 00
        E 0 80 57 00
        E 0 80 49 00
        E 0 80 4b 00
        E 0 80 3e 00
        E 360 90 61 60
        E 0 90 62 60
        E 0 90 63 60
        E 0 90 55 60
        E 0 90 57 60
        E 0 90 49 60
        E 0 90 4b 60
        E 0 90 3e 60
        E 120 80 61 00
        E 0 80 62 00
        E 0 80 63 00
        E 0 80 55 00
        E 0 80 57 00
        E 0 80 49 00
        E 0 80 4b 00
        E 0 80 3e 00
        E 360 90 61 60
        E 0 90 62 60
        E 0 90 63 60
        E 0 90 55 60
        E 0 90 57 60
        E 0 90 49 60
        E 0 90 4b 60
        E 0 90 3e 60
        E 120 80 61 00
        E 0 80 62 00
        E 0 80 63 00
        E 0 80 55 00
        E 0 80 57 00
        E 0 80 49 00
        E 0 80 4b 00
        E 0 80 3e 00
        E 120 90 61 60
        E 0 90 62 60
        E 0 90 55 60
        E 0 90 56 60
        E 120 80 61 00
        E 0 80 62 00
        E 0 80 55 00
        E 0 80 56 00
        E 120 90 61 60
        E 0 90 62 60
        E 0 90 63 60
        E 0 90 55 60
        E 0 90 57 60
        E 0 90 49 60
        E 0 90 4b 60
        E 0 90 3e 60
        E 120 80 61 00
        E 0 80 62 00
        E 0 80 63 00
        E 0 80 55 00
        E 0 80 57 00
        E 0 80 49 00
        E 0 80 4b 00
        E 0 80 3e 00
        E 120 90 60 60
        E 0 90 62 60
        E 0 90 63 60
        E 0 90 54 60
        E 0 90 57 60
        E 120 80 60 00
        E 0 80 62 00
        E 0 80 63 00
        E 0 80 54 00
        E 0 80 57 00
        E 360 90 62 60
        E 0 90 63 60
        E 0 90 56 60
        E 0 90 57 60
        E 0 90 4a 60
        E 0 90 4b 60
        E 120 80 62 00
        E 0 80 63 00
        E 0 80 56 00
        E 0 80 57 00
        E 0 80 4a 00
        E 0 80 4b 00
        E 360 90 62 60
        E 0 90 63 60
        E 0 90 56 60
        E 0 90 57 60
        E 120 80 62 00
        E 0 80 63 00
        E 0 80 56 00
        E 0 80 57 00
        E 120 90 60 60
        E 0 90 62 60
        E 0 90 63 60
        E 0 90 54 60
        E 0 90 57 60
        E 0 90 48 60
        E 0 90 4a 60
        E 0 90 3d 60
        E 120 80 60 00
        E 0 80 62 00
        E 0 80 63 00
        E 0 80 54 00
        E 0 80 57 00
        E 0 80 48 00
        E 0 80 4a 00
        E 0 80 3d 00
        E 120 90 60 60
        E 0 90 62 60
        E 0 90 54 60
        E 0 90 56 60
        E 0 90 48 60
        E 0 90 4a 60
        E 120 80 60 00
        E 0 80 62 00
        E 0 80 54 00
        E 0 80 56 00
        E 0 80 48 00
        E 0 80 4a 00
        E 120 90 60 60
        E 0 90 62 60
        E 0 90 63 60
        E 0 90 54 60
        E 0 90 57 60
        E 0 90 48 60
        E 0 90 4a 60
        E 120 80 60 00
        E 0 80 62 00
        E 0 80 63 00
        E 0 80 54 00
        E 0 80 57 00
        E 0 80 48 00
        E 0 80 4a 00
        E 120 90 62 60
        E 0 90 56 60
        E 120 80 62 00
        E 0 80 56 00
        <X 120 0
          /wFbaW50ZW5zZV0=
        >
        E 0 90 62 60
        E 0 90 63 60
        E 0 90 64 60
        E 0 90 57 60
        E 0 90 58 60
        E 0 90 4b 60
        E 0 90 4c 60
        E 0 90 3e 60
        E 120 80 62 00
        E 0 80 63 00
        E 0 80 64 00
        E 0 80 57 00
        E 0 80 58 00
        E 0 80 4b 00
        E 0 80 4c 00
        E 0 80 3e 00
        E 360 90 62 60
        E 0 90 63 60
        E 0 90 64 60
        E 0 90 57 60
        E 0 90 58 60
        E 0 90 4b 60
        E 0 90 4c 60
        E 0 90 3e 60
        E 120 80 62 00
        E 0 80 63 00
        E 0 80 64 00
        E 0 80 57 00
        E 0 80 58 00
        E 0 80 4b 00
        E 0 80 4c 00
        E 0 80 3e 00
        E 360 90 62 60
        E 0 90 63 60
        E 0 90 64 60
        E 0 90 57 60
        E 0 90 58 60
        E 0 90 4b 60
        E 0 90 4c 60
        E 0 90 3e 60
        E 120 80 62 00
        E 0 80 63 00
        E 0 80 64 00
        E 0 80 57 00
        E 0 80 58 00
        E 0 80 4b 00
        E 0 80 4c 00
        E 0 80 3e 00
        E 120 90 62 60
        E 0 90 63 60
        E 0 90 56 60
        E 0 90 57 60
        E 120 80 62 00
        E 0 80 63 00
        E 0 80 56 00
        E 0 80 57 00
        E 120 90 62 60
        E 0 90 63 60
        E 0 90 56 60
        E 0 90 57 60
        E 0 90 4a 60
        E 0 90 4b 60
        E 0 90 3e 60
        E 120 80 62 00
        E 0 80 63 00
        E 0 80 56 00
        E 0 80 57 00
        E 0 80 4a 00
        E 0 80 4b 00
        E 0 80 3e 00
        E 120 90 62 60
        E 0 90 63 60
        E 0 90 64 60
        E 0 90 57 60
        E 0 90 58 60
        E 120 80 62 00
        E 0 80 63 00
        E 0 80 64 00
        E 0 80 57 00
        E 0 80 58 00
        E 360 90 62 60
        E 0 90 63 60
        E 0 90 64 60
        E 0 90 57 60
        E 0 90 58 60
        E 0 90 4b 60
        E 0 90 4c 60
        E 120 80 62 00
        E 0 80 63 00
        E 0 80 64 00
        E 0 80 57 00
        E 0 80 58 00
        E 0 80 4b 00
        E 0 80 4c 00
        E 360 90 62 60
        E 0 90 63 60
        E 0 90 64 60
        E 0 90 57 60
        E 0 90 58 60
        E 0 90 4b 60
        E 0 90 4c 60
        E 120 80 62 00
        E 0 80 63 00
        E 0 80 64 00
        E 0 80 57 00
        E 0 80 58 00
        E 0 80 4b 00
        E 0 80 4c 00
        E 120 90 62 60
        E 0 90 63 60
        E 0 90 64 60
        E 0 90 57 60
        E 0 90 58 60
        E 0 90 4b 60
        E 0 90 4c 60
        E 0 90 3e 60
        E 120 80 62 00
        E 0 80 63 00
        E 0 80 64 00
        E 0 80 57 00
        E 0 80 58 00
        E 0 80 4b 00
        E 0 80 4c 00
        E 0 80 3e 00
        E 120 90 62 60
        E 0 90 63 60
        E 0 90 56 60
        E 0 90 57 60
        E 120 80 62 00
        E 0 80 63 00
        E 0 80 56 00
        E 0 80 57 00
        E 120 90 62 60
        E 0 90 63 60
        E 0 90 64 60
        E 0 90 57 60
        E 0 90 58 60
        E 0 90 4b 60
        E 0 90 4c 60
        E 0 90 3e 60
        E 120 80 62 00
        E 0 80 63 00
        E 0 80 64 00
        E 0 80 57 00
        E 0 80 58 00
        E 0 80 4b 00
        E 0 80 4c 00
        E 0 80 3e 00
        E 120 90 61 60
        E 0 90 55 60
        E 120 80 61 00
        E 0 80 55 00
        E 120 90 61 60
        E 0 90 62 60
        E 0 90 63 60
        E 0 90 55 60
        E 0 90 57 60
        E 0 90 49 60
        E 0 90 4b 60
        E 0 90 3e 60
        E 120 80 61 00
        E 0 80 62 00
        E 0 80 63 00
        E 0 80 55 00
        E 0 80 57 00
        E 0 80 49 00
        E 0 80 4b 00
        E 0 80 3e 00
        E 360 90 61 60
        E 0 90 62 60
        E 0 90 63 60
        E 0 90 55 60
        E 0 90 57 60
        E 0 90 49 60
        E 0 90 4b 60
        E 0 90 3e 60
        E 120 80 61 00
        E 0 80 62 00
        E 0 80 63 00
        E 0 80 55 00
        E 0 80 57 00
        E 0 80 49 00
        E 0 80 4b 00
        E 0 80 3e 00
        E 360 90 61 60
        E 0 90 62 60
        E 0 90 63 60
        E 0 90 55 60
        E 0 90 57 60
        E 0 90 49 60
        E 0 90 4b 60
        E 0 90 3e 60
        E 120 80 61 00
        E 0 80 62 00
        E 0 80 63 00
        E 0 80 55 00
        E 0 80 57 00
        E 0 80 49 00
        E 0 80 4b 00
        E 0 80 3e 00
        E 120 90 61 60
        E 0 90 62 60
        E 0 90 55 60
        E 0 90 56 60
        E 120 80 61 00
        E 0 80 62 00
        E 0 80 55 00
        E 0 80 56 00
        E 120 90 61 60
        E 0 90 62 60
        E 0 90 63 60
        E 0 90 55 60
        E 0 90 57 60
        E 0 90 49 60
        E 0 90 4b 60
        E 0 90 3e 60
        E 120 80 61 00
        E 0 80 62 00
        E 0 80 63 00
        E 0 80 55 00
        E 0 80 57 00
        E 0 80 49 00
        E 0 80 4b 00
        E 0 80 3e 00
        E 120 90 60 60
        E 0 90 62 60
        E 0 90 63 60
        E 0 90 54 60
        E 0 90 57 60
        E 120 80 60 00
        E 0 80 62 00
        E 0 80 63 00
        E 0 80 54 00
        E 0 80 57 00
        E 360 90 62 60
        E 0 90 63 60
        E 0 90 56 60
        E 0 90 57 60
        E 0 90 4a 60
        E 0 90 4b 60
        E 120 80 62 00
        E 0 80 63 00
        E 0 80 56 00
        E 0 80 57 00
        E 0 80 4a 00
        E 0 80 4b 00
        E 360 90 62 60
        E 0 90 63 60
        E 0 90 56 60
        E 0 90 57 60
        E 120 80 62 00
        E 0 80 63 00
        E 0 80 56 00
        E 0 80 57 00
        E 120 90 60 60
        E 0 90 62 60
        E 0 90 63 60
        E 0 90 54 60
        E 0 90 57 60
        E 0 90 48 60
        E 0 90 4a 60
        E 0 90 3d 60
        E 120 80 60 00
        E 0 80 62 00
        E 0 80 63 00
        E 0 80 54 00
        E 0 80 57 00
        E 0 80 48 00
        E 0 80 4a 00
        E 0 80 3d 00
        E 120 90 60 60
        E 0 90 62 60
        E 0 90 54 60
        E 0 90 56 60
        E 0 90 48 60
        E 0 90 4a 60
        E 120 80 60 00
        E 0 80 62 00
        E 0 80 54 00
        E 0 80 56 00
        E 0 80 48 00
        E 0 80 4a 00
        E 120 90 60 60
        E 0 90 62 60
        E 0 90 63 60
        E 0 90 54 60
        E 0 90 57 60
        E 0 90 48 60
        E 0 90 4a 60
        E 120 80 60 00
        E 0 80 62 00
        E 0 80 63 00
        E 0 80 54 00
        E 0 80 57 00
        E 0 80 48 00
        E 0 80 4a 00
        E 120 90 62 60
        E 0 90 56 60
        E 120 80 62 00
        E 0 80 56 00
        E 120 90 62 60
        E 0 90 63 60
        E 0 90 64 60
        E 0 90 57 60
        E 0 90 58 60
        E 0 90 4b 60
        E 0 90 4c 60
        E 0 90 3e 60
        E 120 80 62 00
        E 0 80 63 00
        E 0 80 64 00
        E 0 80 57 00
        E 0 80 58 00
        E 0 80 4b 00
        E 0 80 4c 00
        E 0 80 3e 00
        E 360 90 62 60
        E 0 90 63 60
        E 0 90 64 60
        E 0 90 57 60
        E 0 90 58 60
        E 0 90 4b 60
        E 0 90 4c 60
        E 0 90 3e 60
        E 120 80 62 00
        E 0 80 63 00
        E 0 80 64 00
        E 0 80 57 00
        E 0 80 58 00
        E 0 80 4b 00
        E 0 80 4c 00
        E 0 80 3e 00
        E 360 90 62 60
        E 0 90 63 60
        E 0 90 64 60
        E 0 90 57 60
        E 0 90 58 60
        E 0 90 4b 60
        E 0 90 4c 60
        E 0 90 3e 60
        E 120 80 62 00
        E 0 80 63 00
        E 0 80 64 00
        E 0 80 57 00
        E 0 80 58 00
        E 0 80 4b 00
        E 0 80 4c 00
        E 0 80 3e 00
        E 120 90 62 60
        E 0 90 63 60
        E 0 90 56 60
        E 0 90 57 60
        E 120 80 62 00
        E 0 80 63 00
        E 0 80 56 00
        E 0 80 57 00
        E 120 90 62 60
        E 0 90 63 60
        E 0 90 56 60
        E 0 90 57 60
        E 0 90 4a 60
        E 0 90 4b 60
        E 0 90 3e 60
        E 120 80 62 00
        E 0 80 63 00
        E 0 80 56 00
        E 0 80 57 00
        E 0 80 4a 00
        E 0 80 4b 00
        E 0 80 3e 00
        E 120 90 62 60
        E 0 90 63 60
        E 0 90 64 60
        E 0 90 57 60
        E 0 90 58 60
        E 120 80 62 00
        E 0 80 63 00
        E 0 80 64 00
        E 0 80 57 00
        E 0 80 58 00
        E 360 90 62 60
        E 0 90 63 60
        E 0 90 64 60
        E 0 90 57 60
        E 0 90 58 60
        E 0 90 4b 60
        E 0 90 4c 60
        E 120 80 62 00
        E 0 80 63 00
        E 0 80 64 00
        E 0 80 57 00
        E 0 80 58 00
        E 0 80 4b 00
        E 0 80 4c 00
        E 360 90 62 60
        E 0 90 63 60
        E 0 90 64 60
        E 0 90 57 60
        E 0 90 58 60
        E 0 90 4b 60
        E 0 90 4c 60
        E 120 80 62 00
        E 0 80 63 00
        E 0 80 64 00
        E 0 80 57 00
        E 0 80 58 00
        E 0 80 4b 00
        E 0 80 4c 00
        E 120 90 62 60
        E 0 90 63 60
        E 0 90 64 60
        E 0 90 57 60
        E 0 90 58 60
        E 0 90 4b 60
        E 0 90 4c 60
        E 0 90 3e 60
        E 120 80 62 00
        E 0 80 63 00
        E 0 80 64 00
        E 0 80 57 00
        E 0 80 58 00
        E 0 80 4b 00
        E 0 80 4c 00
        E 0 80 3e 00
        E 120 90 62 60
        E 0 90 63 60
        E 0 90 56 60
        E 0 90 57 60
        E 120 80 62 00
        E 0 80 63 00
        E 0 80 56 00
        E 0 80 57 00
        E 120 90 62 60
        E 0 90 63 60
        E 0 90 64 60
        E 0 90 57 60
        E 0 90 58 60
        E 0 90 4b 60
        E 0 90 4c 60
        E 0 90 3e 60
        E 120 80 62 00
        E 0 80 63 00
        E 0 80 64 00
        E 0 80 57 00
        E 0 80 58 00
        E 0 80 4b 00
        E 0 80 4c 00
        E 0 80 3e 00
        E 120 90 61 60
        E 0 90 55 60
        E 120 80 61 00
        E 0 80 55 00
        E 120 90 61 60
        E 0 90 62 60
        E 0 90 63 60
        E 0 90 74 60
        E 0 90 55 60
        E 0 90 57 60
        E 0 90 49 60
        E 0 90 4b 60
        E 0 90 3e 60
        E 120 80 61 00
        E 0 80 62 00
        E 0 80 63 00
        E 0 80 55 00
        E 0 80 57 00
        E 0 80 49 00
        E 0 80 4b 00
        E 0 80 3e 00
        E 360 90 61 60
        E 0 90 62 60
        E 0 90 63 60
        E 0 90 55 60
        E 0 90 57 60
        E 0 90 49 60
        E 0 90 4b 60
        E 0 90 3e 60
        E 120 80 61 00
        E 0 80 62 00
        E 0 80 63 00
        E 0 80 55 00
        E 0 80 57 00
        E 0 80 49 00
        E 0 80 4b 00
        E 0 80 3e 00
        E 360 90 61 60
        E 0 90 62 60
        E 0 90 63 60
        E 0 90 55 60
        E 0 90 57 60
        E 0 90 49 60
        E 0 90 4b 60
        E 0 90 3e 60
        E 120 80 61 00
        E 0 80 62 00
        E 0 80 63 00
        E 0 80 55 00
        E 0 80 57 00
        E 0 80 49 00
        E 0 80 4b 00
        E 0 80 3e 00
        E 120 90 61 60
        E 0 90 62 60
        E 0 90 55 60
        E 0 90 56 60
        E 120 80 61 00
        E 0 80 62 00
        E 0 80 55 00
        E 0 80 56 00
        E 120 90 61 60
        E 0 90 62 60
        E 0 90 63 60
        E 0 90 55 60
        E 0 90 57 60
        E 0 90 49 60
        E 0 90 4b 60
        E 0 90 3e 60
        E 120 80 61 00
        E 0 80 62 00
        E 0 80 63 00
        E 0 80 55 00
        E 0 80 57 00
        E 0 80 49 00
        E 0 80 4b 00
        E 0 80 3e 00
        E 120 90 60 60
        E 0 90 62 60
        E 0 90 63 60
        E 0 90 54 60
        E 0 90 57 60
        E 120 80 60 00
        E 0 80 62 00
        E 0 80 63 00
        E 0 80 54 00
        E 0 80 57 00
        E 360 90 62 60
        E 0 90 63 60
        E 0 90 56 60
        E 0 90 57 60
        E 0 90 4a 60
        E 0 90 4b 60
        E 120 80 62 00
        E 0 80 63 00
        E 0 80 56 00
        E 0 80 57 00
        E 0 80 4a 00
        E 0 80 4b 00
        E 360 90 62 60
        E 0 90 63 60
        E 0 90 56 60
        E 0 90 57 60
        E 120 80 62 00
        E 0 80 63 00
        E 0 80 56 00
        E 0 80 57 00
        E 120 90 60 60
        E 0 90 62 60
        E 0 90 63 60
        E 0 90 54 60
        E 0 90 57 60
        E 0 90 48 60
        E 0 90 4a 60
        E 0 90 3d 60
        E 120 80 60 00
        E 0 80 62 00
        E 0 80 63 00
        E 0 80 54 00
        E 0 80 57 00
        E 0 80 48 00
        E 0 80 4a 00
        E 0 80 3d 00
        E 120 90 60 60
        E 0 90 62 60
        E 0 90 63 60
        E 0 90 54 60
        E 0 90 57 60
        E 0 90 48 60
        E 0 90 4a 60
        E 120 80 48 00
        E 0 80 4a 00
        E 360 80 60 00
        E 0 80 62 00
        E 0 80 63 00
        E 0 80 54 00
        E 0 80 57 00
        E 240 80 74 00
        E 0 90 61 60
        E 0 90 55 60
        E 0 90 49 60
        E 0 90 3d 60
        E 120 80 61 00
        E 0 80 55 00
        E 0 80 49 00
        E 0 80 3d 00
        E 120 90 61 60
        E 0 90 55 60
        E 0 90 49 60
        E 120 80 61 00
        E 0 80 55 00
        E 0 80 49 00
        E 120 90 61 60
        E 0 90 55 60
        E 0 90 49 60
        E 0 90 3d 60
        E 120 80 61 00
        E 0 80 55 00
        E 0 80 49 00
        E 0 80 3d 00
        E 120 90 61 60
        E 0 90 55 60
        E 0 90 49 60
        E 120 80 61 00
        E 0 80 55 00
        E 0 80 49 00
        E 120 90 61 60
        E 0 90 55 60
        E 0 90 49 60
        E 0 90 3d 60
        E 120 80 61 00
        E 0 80 55 00
        E 0 80 49 00
        E 0 80 3d 00
        E 120 90 61 60
        E 0 90 55 60
        E 0 90 49 60
        E 120 80 61 00
        E 0 80 55 00
        E 0 80 49 00
        E 120 90 61 60
        E 0 90 55 60
        E 0 90 49 60
        E 120 80 61 00
        E 0 80 55 00
        E 0 80 49 00
        E 120 90 61 60
        E 0 90 55 60
        E 120 80 61 00
        E 0 80 55 00
        E 120 90 64 60
        E 0 90 58 60
        E 0 90 4c 60
        E 0 90 40 60
        E 120 80 64 00
        E 0 80 58 00
        E 0 80 4c 00
        E 0 80 40 00
        E 120 90 64 60
        E 0 90 58 60
        E 0 90 4c 60
        E 120 80 64 00
        E 0 80 58 00
        E 0 80 4c 00
        E 120 90 64 60
        E 0 90 58 60
        E 0 90 4c 60
        E 120 80 64 00
        E 0 80 58 00
        E 0 80 4c 00
        E 120 90 64 60
        E 0 90 58 60
        E 120 80 64 00
        E 0 80 58 00
        E 120 90 63 60
        E 0 90 57 60
        E 0 90 4b 60
        E 0 90 3e 60
        E 120 80 63 00
        E 0 80 57 00
        E 0 80 4b 00
        E 0 80 3e 00
        E 120 90 63 60
        E 0 90 57 60
        E 0 90 4b 60
        E 120 80 63 00
        E 0 80 57 00
        E 0 80 4b 00
        E 120 90 63 60
        E 0 90 57 60
        E 0 90 4b 60
        E 120 80 63 00
        E 0 80 57 00
        E 0 80 4b 00
        E 120 90 63 60
        E 0 90 57 60
        E 120 80 63 00
        E 0 80 57 00
        E 120 90 62 60
        E 0 90 56 60
        E 0 90 4a 60
        E 0 90 3d 60
        E 120 80 62 00
        E 0 80 56 00
        E 0 80 4a 00
        E 0 80 3d 00
        E 120 90 62 60
        E 0 90 56 60
        E 0 90 4a 60
        E 120 80 62 00
        E 0 80 56 00
        E 0 80 4a 00
        E 120 90 62 60
        E 0 90 56 60
        E 0 90 4a 60
        E 0 90 3d 60
        E 120 80 62 00
        E 0 80 56 00
        E 0 80 4a 00
        E 0 80 3d 00
        E 120 90 62 60
        E 0 90 56 60
        E 0 90 4a 60
        E 120 80 62 00
        E 0 80 56 00
        E 0 80 4a 00
        E 120 90 62 60
        E 0 90 56 60
        E 0 90 4a 60
        E 0 90 3d 60
        E 120 80 62 00
        E 0 80 56 00
        E 0 80 4a 00
        E 0 80 3d 00
        E 120 90 62 60
        E 0 90 56 60
        E 0 90 4a 60
        E 120 80 62 00
        E 0 80 56 00
        E 0 80 4a 00
        E 120 90 62 60
        E 0 90 56 60
        E 0 90 4a 60
        E 0 90 3d 60
        E 120 80 62 00
        E 0 80 56 00
        E 0 80 4a 00
        E 0 80 3d 00
        E 120 90 62 60
        E 0 90 56 60
        E 120 80 62 00
        E 0 80 56 00
        E 120 90 61 60
        E 0 90 74 60
        E 0 90 55 60
        E 0 90 49 60
        E 0 90 3d 60
        E 120 80 61 00
        E 0 80 55 00
        E 0 80 49 00
        E 0 80 3d 00
        E 120 90 61 60
        E 0 90 55 60
        E 0 90 49 60
        E 120 80 61 00
        E 0 80 55 00
        E 0 80 49 00
        E 120 90 61 60
        E 0 90 55 60
        E 0 90 49 60
        E 0 90 3d 60
        E 120 80 61 00
        E 0 80 55 00
        E 0 80 49 00
        E 0 80 3d 00
        E 120 90 61 60
        E 0 90 55 60
        E 0 90 49 60
        E 120 80 61 00
        E 0 80 55 00
        E 0 80 49 00
        E 120 90 61 60
        E 0 90 55 60
        E 0 90 49 60
        E 0 90 3d 60
        E 120 80 61 00
        E 0 80 55 00
        E 0 80 49 00
        E 0 80 3d 00
        E 120 90 62 60
        E 0 90 56 60
        E 360 80 62 00
        E 0 80 56 00
        E 120 90 62 60
        E 0 90 56 60
        E 120 80 62 00
        E 0 80 56 00
        E 120 80 74 00
        E 0 90 61 60
        E 0 90 55 60
        E 0 90 49 60
        E 0 90 3d 60
        E 120 80 61 00
        E 0 80 55 00
        E 0 80 49 00
        E 0 80 3d 00
        E 120 90 61 60
        E 0 90 55 60
        E 0 90 49 60
        E 120 80 61 00
        E 0 80 55 00
        E 0 80 49 00
        E 120 90 61 60
        E 0 90 55 60
        E 0 90 49 60
        E 0 90 3d 60
        E 120 80 61 00
        E 0 80 55 00
        E 0 80 49 00
        E 0 80 3d 00
        E 120 90 61 60
        E 0 90 55 60
        E 0 90 49 60
        E 120 80 61 00
        E 0 80 55 00
        E 0 80 49 00
        E 120 90 61 60
        E 0 90 55 60
        E 0 90 49 60
        E 0 90 3d 60
        E 120 80 61 00
        E 0 80 55 00
        E 0 80 49 00
        E 0 80 3d 00
        E 120 90 61 60
        E 0 90 55 60
        E 0 90 49 60
        E 120 80 61 00
        E 0 80 55 00
        E 0 80 49 00
        E 120 90 61 60
        E 0 90 55 60
        E 0 90 49 60
        E 120 80 61 00
        E 0 80 55 00
        E 0 80 49 00
        E 120 90 61 60
        E 0 90 55 60
        E 120 80 61 00
        E 0 80 55 00
        E 120 90 64 60
        E 0 90 58 60
        E 0 90 4c 60
        E 0 90 40 60
        E 120 80 64 00
        E 0 80 58 00
        E 0 80 4c 00
        E 0 80 40 00
        E 120 90 64 60
        E 0 90 58 60
        E 0 90 4c 60
        E 120 80 64 00
        E 0 80 58 00
        E 0 80 4c 00
        E 120 90 64 60
        E 0 90 58 60
        E 0 90 4c 60
        E 120 80 64 00
        E 0 80 58 00
        E 0 80 4c 00
        E 120 90 64 60
        E 0 90 58 60
        E 120 80 64 00
        E 0 80 58 00
        E 120 90 63 60
        E 0 90 57 60
        E 0 90 4b 60
        E 0 90 3e 60
        E 120 80 63 00
        E 0 80 57 00
        E 0 80 4b 00
        E 0 80 3e 00
        E 120 90 63 60
        E 0 90 57 60
        E 0 90 4b 60
        E 120 80 63 00
        E 0 80 57 00
        E 0 80 4b 00
        E 120 90 63 60
        E 0 90 57 60
        E 0 90 4b 60
        E 120 80 63 00
        E 0 80 57 00
        E 0 80 4b 00
        E 120 90 63 60
        E 0 90 57 60
        E 120 80 63 00
        E 0 80 57 00
        E 120 90 62 60
        E 0 90 56 60
        E 0 90 4a 60
        E 0 90 3d 60
        E 120 80 62 00
        E 0 80 56 00
        E 0 80 4a 00
        E 0 80 3d 00
        E 120 90 62 60
        E 0 90 56 60
        E 0 90 4a 60
        E 120 80 62 00
        E 0 80 56 00
        E 0 80 4a 00
        E 120 90 62 60
        E 0 90 56 60
        E 0 90 4a 60
        E 0 90 3d 60
        E 120 80 62 00
        E 0 80 56 00
        E 0 80 4a 00
        E 0 80 3d 00
        E 120 90 62 60
        E 0 90 56 60
        E 0 90 4a 60
        E 120 80 62 00
        E 0 80 56 00
        E 0 80 4a 00
        E 120 90 62 60
        E 0 90 56 60
        E 0 90 4a 60
        E 0 90 3d 60
        E 120 80 62 00
        E 0 80 56 00
        E 0 80 4a 00
        E 0 80 3d 00
        E 120 90 62 60
        E 0 90 56 60
        E 0 90 4a 60
        E 120 80 62 00
        E 0 80 56 00
        E 0 80 4a 00
        E 120 90 62 60
        E 0 90 56 60
        E 0 90 4a 60
        E 0 90 3d 60
        E 120 80 62 00
        E 0 80 56 00
        E 0 80 4a 00
        E 0 80 3d 00
        E 120 90 62 60
        E 0 90 56 60
        E 120 80 62 00
        E 0 80 56 00
        E 120 90 61 60
        E 0 90 55 60
        E 0 90 49 60
        E 0 90 3d 60
        E 120 80 61 00
        E 0 80 55 00
        E 0 80 49 00
        E 0 80 3d 00
        E 120 90 61 60
        E 0 90 55 60
        E 0 90 49 60
        E 120 80 61 00
        E 0 80 55 00
        E 0 80 49 00
        E 120 90 61 60
        E 0 90 55 60
        E 0 90 49 60
        E 0 90 3d 60
        E 120 80 61 00
        E 0 80 55 00
        E 0 80 49 00
        E 0 80 3d 00
        E 120 90 61 60
        E 0 90 55 60
        E 0 90 49 60
        E 120 80 61 00
        E 0 80 55 00
        E 0 80 49 00
        E 120 90 61 60
        E 0 90 55 60
        E 0 90 49 60
        E 0 90 3d 60
        E 120 80 61 00
        E 0 80 55 00
        E 0 80 49 00
        E 0 80 3d 00
        E 120 90 62 60
        E 0 90 56 60
        E 360 80 62 00
        E 0 80 56 00
        E 120 90 62 60
        E 0 90 56 60
        E 120 80 62 00
        E 0 80 56 00
        E 120 90 63 60
        E 0 90 67 60
        E 0 90 57 60
        E 0 90 4b 60
        E 0 90 3e 60
        E 120 80 63 00
        E 0 80 57 00
        E 0 80 4b 00
        E 0 80 3e 00
        E 120 90 63 60
        E 0 90 57 60
        E 0 90 4b 60
        E 120 80 63 00
        E 0 80 57 00
        E 0 80 4b 00
        E 120 90 63 60
        E 0 90 57 60
        E 0 90 4b 60
        E 0 90 3e 60
        E 120 80 63 00
        E 0 80 57 00
        E 0 80 4b 00
        E 0 80 3e 00
        E 120 90 63 60
        E 0 90 57 60
        E 0 90 4b 60
        E 120 80 63 00
        E 0 80 57 00
        E 0 80 4b 00
        E 120 90 63 60
        E 0 90 57 60
        E 0 90 4b 60
        E 0 90 3e 60
        E 120 80 63 00
        E 0 80 57 00
        E 0 80 4b 00
        E 0 80 3e 00
        E 120 90 63 60
        E 0 90 57 60
        E 0 90 4b 60
        E 120 80 63 00
        E 0 80 57 00
        E 0 80 4b 00
        E 120 90 63 60
        E 0 90 57 60
        E 0 90 4b 60
        E 120 80 63 00
        E 0 80 57 00
        E 0 80 4b 00
        E 120 90 63 60
        E 0 90 57 60
        E 120 80 63 00
        E 0 80 57 00
        E 120 90 64 60
        E 0 90 58 60
        E 0 90 4c 60
        E 0 90 40 60
        E 120 80 64 00
        E 0 80 58 00
        E 0 80 4c 00
        E 0 80 40 00
        E 120 90 64 60
        E 0 90 58 60
        E 0 90 4c 60
        E 120 80 64 00
        E 0 80 58 00
        E 0 80 4c 00
        E 120 90 64 60
        E 0 90 58 60
        E 0 90 4c 60
        E 120 80 64 00
        E 0 80 58 00
        E 0 80 4c 00
        E 120 90 64 60
        E 0 90 58 60
        E 120 80 64 00
        E 0 80 58 00
        E 120 90 63 60
        E 0 90 57 60
        E 0 90 4b 60
        E 0 90 3e 60
        E 120 80 63 00
        E 0 80 57 00
        E 0 80 4b 00
        E 0 80 3e 00
        E 120 90 63 60
        E 0 90 57 60
        E 0 90 4b 60
        E 120 80 63 00
        E 0 80 57 00
        E 0 80 4b 00
        E 120 90 63 60
        E 0 90 57 60
        E 0 90 4b 60
        E 120 80 63 00
        E 0 80 57 00
        E 0 80 4b 00
        E 120 90 63 60
        E 0 90 57 60
        E 120 80 63 00
        E 0 80 57 00
        E 120 90 62 60
        E 0 90 56 60
        E 0 90 4a 60
        E 0 90 3d 60
        E 120 80 62 00
        E 0 80 56 00
        E 0 80 4a 00
        E 0 80 3d 00
        E 120 90 62 60
        E 0 90 56 60
        E 0 90 4a 60
        E 120 80 62 00
        E 0 80 56 00
        E 0 80 4a 00
        E 120 90 62 60
        E 0 90 56 60
        E 0 90 4a 60
        E 0 90 3d 60
        E 120 80 62 00
        E 0 80 56 00
        E 0 80 4a 00
        E 0 80 3d 00
        E 120 90 62 60
        E 0 90 56 60
        E 0 90 4a 60
        E 120 80 62 00
        E 0 80 56 00
        E 0 80 4a 00
        E 120 90 62 60
        E 0 90 56 60
        E 0 90 4a 60
        E 0 90 3d 60
        E 120 80 62 00
        E 0 80 56 00
        E 0 80 4a 00
        E 0 80 3d 00
        E 120 90 62 60
        E 0 90 56 60
        E 0 90 4a 60
        E 120 80 62 00
        E 0 80 56 00
        E 0 80 4a 00
        E 120 90 62 60
        E 0 90 56 60
        E 0 90 4a 60
        E 0 90 3d 60
        E 120 80 62 00
        E 0 80 56 00
        E 0 80 4a 00
        E 0 80 3d 00
        E 120 90 62 60
        E 0 90 56 60
        E 120 80 62 00
        E 0 80 56 00
        E 120 90 61 60
        E 0 90 55 60
        E 0 90 49 60
        E 0 90 3d 60
        E 120 80 61 00
        E 0 80 55 00
        E 0 80 49 00
        E 0 80 3d 00
        E 120 90 61 60
        E 0 90 55 60
        E 0 90 49 60
        E 120 80 61 00
        E 0 80 55 00
        E 0 80 49 00
        E 120 90 61 60
        E 0 90 55 60
        E 0 90 49 60
        E 0 90 3d 60
        E 120 80 61 00
        E 0 80 55 00
        E 0 80 49 00
        E 0 80 3d 00
        E 120 90 61 60
        E 0 90 55 60
        E 0 90 49 60
        E 120 80 61 00
        E 0 80 55 00
        E 0 80 49 00
        E 120 90 61 60
        E 0 90 55 60
        E 0 90 49 60
        E 0 90 3d 60
        E 120 80 61 00
        E 0 80 55 00
        E 0 80 49 00
        E 0 80 3d 00
        E 120 90 61 60
        E 0 90 55 60
        E 0 90 49 60
        E 120 80 61 00
        E 0 80 55 00
        E 0 80 49 00
        E 120 90 61 60
        E 0 90 55 60
        E 0 90 49 60
        E 120 80 61 00
        E 0 80 55 00
        E 0 80 49 00
        E 120 90 61 60
        E 0 90 55 60
        E 120 80 61 00
        E 0 80 55 00
        E 120 90 60 60
        E 0 90 54 60
        E 0 90 48 60
        E 0 90 3c 60
        E 120 80 60 00
        E 0 80 54 00
        E 0 80 48 00
        E 0 80 3c 00
        E 120 90 60 60
        E 0 90 54 60
        E 0 90 48 60
        E 120 80 60 00
        E 0 80 54 00
        E 0 80 48 00
        E 120 90 60 60
        E 0 90 54 60
        E 0 90 48 60
        E 0 90 3c 60
        E 120 80 60 00
        E 0 80 54 00
        E 0 80 48 00
        E 0 80 3c 00
        E 120 90 60 60
        E 0 90 54 60
        E 0 90 48 60
        E 120 80 60 00
        E 0 80 54 00
        E 0 80 48 00
        E 120 90 60 60
        E 0 90 54 60
        E 0 90 48 60
        E 0 90 3c 60
        E 120 80 60 00
        E 0 80 54 00
        E 0 80 48 00
        E 0 80 3c 00
        E 120 90 60 60
        E 0 90 54 60
        E 0 90 48 60
        E 120 80 60 00
        E 0 80 54 00
        E 0 80 48 00
        E 120 90 60 60
        E 0 90 54 60
        E 0 90 48 60
        E 120 80 60 00
        E 0 80 54 00
        E 0 80 48 00
        E 120 90 60 60
        E 0 90 54 60
        E 120 80 60 00
        E 0 80 54 00
        E 120 90 63 60
        E 0 90 57 60
        E 0 90 4b 60
        E 0 90 3e 60
        E 120 80 63 00
        E 0 80 57 00
        E 0 80 4b 00
        E 0 80 3e 00
        E 120 90 63 60
        E 0 90 57 60
        E 0 90 4b 60
        E 120 80 63 00
        E 0 80 57 00
        E 0 80 4b 00
        E 120 90 63 60
        E 0 90 57 60
        E 0 90 4b 60
        E 120 80 63 00
        E 0 80 57 00
        E 0 80 4b 00
        E 120 90 63 60
        E 0 90 57 60
        E 120 80 63 00
        E 0 80 57 00
        E 120 90 62 60
        E 0 90 56 60
        E 0 90 4a 60
        E 0 90 3d 60
        E 120 80 62 00
        E 0 80 56 00
        E 0 80 4a 00
        E 0 80 3d 00
        E 120 90 62 60
        E 0 90 56 60
        E 0 90 4a 60
        E 120 80 62 00
        E 0 80 56 00
        E 0 80 4a 00
        E 120 90 62 60
        E 0 90 56 60
        E 0 90 4a 60
        E 0 90 3d 60
        E 120 80 62 00
        E 0 80 56 00
        E 0 80 4a 00
        E 0 80 3d 00
        E 120 90 62 60
        E 0 90 56 60
        E 120 80 62 00
        E 0 80 56 00
        E 120 90 61 60
        E 0 90 55 60
        E 0 90 49 60
        E 0 90 3d 60
        E 120 80 61 00
        E 0 80 55 00
        E 0 80 49 00
        E 0 80 3d 00
        E 120 90 61 60
        E 0 90 55 60
        E 0 90 49 60
        E 120 80 61 00
        E 0 80 55 00
        E 0 80 49 00
        E 120 90 61 60
        E 0 90 55 60
        E 0 90 49 60
        E 0 90 3d 60
        E 120 80 61 00
        E 0 80 55 00
        E 0 80 49 00
        E 0 80 3d 00
        E 120 90 61 60
        E 0 90 55 60
        E 0 90 49 60
        E 120 80 61 00
        E 0 80 55 00
        E 0 80 49 00
        E 120 90 61 60
        E 0 90 55 60
        E 0 90 49 60
        E 0 90 3d 60
        E 120 80 61 00
        E 0 80 55 00
        E 0 80 49 00
        E 0 80 3d 00
        E 120 90 61 60
        E 0 90 55 60
        E 0 90 49 60
        E 120 80 61 00
        E 0 80 55 00
        E 0 80 49 00
        E 120 90 61 60
        E 0 90 55 60
        E 0 90 49 60
        E 120 80 61 00
        E 0 80 55 00
        E 0 80 49 00
        E 120 90 61 60
        E 0 90 55 60
        E 120 80 61 00
        E 0 80 55 00
        E 120 90 60 60
        E 0 90 54 60
        E 0 90 48 60
        E 0 90 3c 60
        E 120 80 60 00
        E 0 80 54 00
        E 0 80 48 00
        E 0 80 3c 00
        E 120 90 60 60
        E 0 90 54 60
        E 0 90 48 60
        E 120 80 60 00
        E 0 80 54 00
        E 0 80 48 00
        E 120 90 60 60
        E 0 90 54 60
        E 0 90 48 60
        E 0 90 3c 60
        E 120 80 60 00
        E 0 80 54 00
        E 0 80 48 00
        E 0 80 3c 00
        E 120 90 60 60
        E 0 90 54 60
        E 0 90 48 60
        E 120 80 60 00
        E 0 80 54 00
        E 0 80 48 00
        E 120 90 60 60
        E 0 90 54 60
        E 0 90 48 60
        E 0 90 3c 60
        E 120 80 60 00
        E 0 80 54 00
        E 0 80 48 00
        E 0 80 3c 00
        E 120 90 60 60
        E 0 90 54 60
        E 120 80 60 00
        E 0 80 54 00
        E 120 90 62 60
        E 0 90 56 60
        E 0 90 4a 60
        E 120 80 4a 00
        E 240 80 62 00
        E 0 80 56 00
        E 120 90 60 60
        E 0 90 54 60
        E 0 90 48 60
        E 0 90 3c 60
        E 3360 80 48 00
        E 0 80 3c 00
        E 360 80 67 00
        E 0 80 60 00
        E 0 80 54 00
        <X 120 0
          /wFbbWVsbG93XQ==
        >
        E 0 90 60 60
        E 0 90 54 60
        E 0 90 48 60
        E 0 90 3c 60
        E 120 80 60 00
        E 0 80 54 00
        E 0 80 48 00
        E 0 80 3c 00
        E 120 90 60 60
        E 0 90 54 60
        E 120 80 60 00
        E 0 80 54 00
        E 120 90 62 60
        E 0 90 56 60
        E 0 90 4a 60
        E 120 80 62 00
        E 0 80 56 00
        E 0 80 4a 00
        E 120 90 60 60
        E 0 90 54 60
        E 120 80 60 00
        E 0 80 54 00
        E 120 90 63 60
        E 0 90 57 60
        E 0 90 4b 60
        E 0 90 3e 60
        E 120 80 63 00
        E 0 80 57 00
        E 0 80 4b 00
        E 0 80 3e 00
        E 120 90 60 60
        E 0 90 54 60
        E 120 80 60 00
        E 0 80 54 00
        E 120 90 60 60
        E 0 90 54 60
        E 0 90 48 60
        E 120 80 60 00
        E 0 80 54 00
        E 0 80 48 00
        E 120 90 62 60
        E 0 90 63 60
        E 0 90 56 60
        E 0 90 57 60
        <X 2159 0
          /wFbaWRsZV9yZWFsdGltZV0=
        >
        E 0 80 28 00
        E 0 80 62 00
        E 0 80 63 00
        E 0 80 56 00
        E 0 80 57 00
        E 9600 b0 7b 00
        GUID {8566B3B8-7E0C-4AC6-B63A-FB2D724DDCF6}
        IGNTEMPO 0 120.00000000 4 4
        SRCCOLOR 4
        VELLANE 132 128 60
        COLORMAP "C:\Program Files\REAPER (x64)\Data\color_maps\rockband_guitarbass.png"
        CFGEDITVIEW -15101.834372 6.071309 0 12 0 0 0
        CFGEDIT 1 1 0 1 1 0 1 1 1 1 1 0.12500000 53 44 1253 718 0 2 1 1 0.00000000 0 1 1 0 0.500000 0 0 1.000000 64
        KEYSNAP 0 7 "102030050700" 0 "Pentatonic"
        EVTFILTER 0 -1 -1 -1 -1 0 1 0 0 -1.00000000 -1.00000000
      >
    >
  >
  <TRACK '{9CE6613B-3AEA-445A-8A01-2AABDA92F7F9}'
    NAME "PART VOCALS"
    PEAKCOL 16576
    BEAT -1
    AUTOMODE 0
    VOLPAN 1.00000000000000 0.00000000000000 -1.00000000000000 -1.00000000000000 1.00000000000000
    MUTESOLO 0 0 0
    IPHASE 0
    ISBUS 0 0
    BUSCOMP 0 0
    SHOWINMIX 1 0.666700 0.500000 1 0.500000 -1 -1 -1
    FREEMODE 0
    SEL 0
    REC 0 0 0 0 0 0 0
    VU 2
    TRACKHEIGHT 0 0
    INQ 0 0 0 0.5000000000 100 0 0 100
    NCHAN 2
    FX 1
    TRACKID {9CE6613B-3AEA-445A-8A01-2AABDA92F7F9}
    PERF 0
    MIDIOUT -1
    <MIDINOTENAMES
      0 116 "OVERDRIVE"
      0 115 "----"
      0 105 "Phrase Marker"
      0 104 "----"
      0 97 "Non-Displayed Percussion"
      0 96 "Displayed Percussion"
      0 95 "----"
      0 84 "C6 (Unused Highest Note)"
      0 83 "B5"
      0 82 "A#4"
      0 81 "A4"
      0 80 "G#4"
      0 79 "G4"
      0 78 "F#4"
      0 77 "F4"
      0 76 "E4"
      0 75 "D#4"
      0 74 "D4"
      0 73 "C#4"
      0 72 "C4"
      0 71 "B3"
      0 70 "A#3"
      0 69 "A3"
      0 68 "G#3"
      0 67 "G3"
      0 66 "F#3"
      0 65 "F3"
      0 64 "E3"
      0 63 "D#3"
      0 62 "D3"
      0 61 "C#3"
      0 60 "C3"
      0 59 "B2"
      0 58 "A#2"
      0 57 "A2"
      0 56 "G#2"
      0 55 "G2"
      0 54 "F#2"
      0 53 "F2"
      0 52 "E2"
      0 51 "D#2"
      0 50 "D2"
      0 49 "C#2"
      0 48 "C2"
      0 47 "B1"
      0 46 "A#1"
      0 45 "A1"
      0 44 "G#1"
      0 43 "G1"
      0 42 "F#1"
      0 41 "F1"
      0 40 "E1"
      0 39 "D#1"
      0 38 "D1"
      0 37 "C#1"
      0 36 "Lowest Note C1"
      0 2 "---"
      0 1 "Lyric Shift"
      0 0 "Range Shift"
    >
    MAINSEND 1 0
    <FXCHAIN
      SHOW 0
      LASTSEL 0
      DOCKED 0
    >
    <ITEM
      POSITION 0.00000000000000
      SNAPOFFS 0.00000000000000
      LENGTH 184.96834400000000
      LOOP 0
      ALLTAKES 0
      SEL 0
      FADEIN 1 0.000000 0.000000 1 0
      FADEOUT 1 0.000000 0.000000 1 0
      MUTE 0
      IGUID {144C4010-3E08-48D8-8F6C-29E50C0D64E4}
      IID 4
      NAME "PART VOCALS"
      VOLPAN 1.000000 0.000000 1.000000 -1.000000
      SOFFS 0.00000000000000 0.00000000000000
      PLAYRATE 1.00000000000000 1 0.00000000000000 -1
      CHANMODE 0
      GUID {51040EB5-6D94-435C-84AA-C517B811C325}
      <SOURCE MIDI
        HASDATA 1 480 QN
        POOLEDEVTS {9D0018F8-EE44-4B56-9C45-1AE17C570FB6}
        <X 0 0
          /wNQQVJUIFZPQ0FMUw==
        >
        <X 7680 0
          /wFbaWRsZV0=
        >
        E 7680 90 69 60
        <X 480 0
          /wFbbWVsbG93XQ==
        >
        <X 240 0
          /wVJ
        >
        E 0 90 29 60
        E 120 80 29 00
        <X 120 0
          /wVmb3VuZA==
        >
        E 0 90 32 60
        E 300 80 32 00
        <X 180 0
          /wVh
        >
        E 0 90 32 60
        E 120 80 32 00
        <X 120 0
          /wVwaWMt
        >
        E 0 90 32 60
        E 240 80 32 00
        <X 240 0
          /wV0dXJl
        >
        E 0 90 30 60
        E 540 80 30 00
        <X 180 0
          /wV0aGF0
        >
        E 0 90 2d 60
        E 120 80 2d 00
        <X 120 0
          /wV3ZQ==
        >
        E 0 90 30 60
        E 480 80 30 00
        <X 240 0
          /wV0b29r
        >
        E 0 90 34 60
        E 240 90 01 60
        E 60 80 01 00
        E 60 80 34 00
        <X 120 0
          /wVhbmQ=
        >
        E 0 90 34 60
        E 120 80 34 00
        <X 120 0
          /wV3ZQ==
        >
        E 0 90 34 60
        E 360 80 34 00
        <X 120 0
          /wVicm91Z2h0
        >
        E 0 90 35 60
        E 300 80 35 00
        <X 180 0
          /wVpbg==
        >
        E 0 90 34 60
        E 540 80 34 00
        <X 180 0
          /wV0aGU=
        >
        E 0 90 30 60
        E 120 80 30 00
        <X 120 0
          /wVuZXc=
        >
        E 0 90 2d 60
        E 360 80 2d 00
        <X 120 0
          /wV5ZWFy
        >
        E 0 90 30 60
        E 720 80 30 00
        E 30 80 69 00
        E 450 90 69 60
        E 0 90 74 60
        <X 240 0
          /wVJdCdz
        >
        E 0 90 29 60
        E 60 80 29 00
        <X 180 0
          /wVoYXJk
        >
        E 0 90 32 60
        E 300 80 32 00
        <X 180 0
          /wV0bw==
        >
        E 0 90 32 60
        E 120 80 32 00
        <X 120 0
          /wVzZWU=
        >
        E 0 90 32 60
        E 360 80 32 00
        <X 120 0
          /wVidXQ=
        >
        E 0 90 30 60
        E 600 80 30 00
        <X 120 0
          /wVJ
        >
        E 0 90 2d 60
        E 360 80 2d 00
        <X 120 0
          /wVyZS0=
        >
        E 0 90 2d 60
        E 120 80 2d 00
        <X 120 0
          /wVtZW0t
        >
        E 0 90 2d 60
        E 360 80 2d 00
        <X 120 0
          /wViZXI=
        >
        E 0 90 2b 60
        E 1080 80 2b 00
        <X 120 0
          /wFbaWRsZV0=
        >
        E 0 80 69 00
        E 0 80 74 00
        <X 2880 0
          /wFbbWVsbG93XQ==
        >
        E 0 90 69 60
        <X 240 0
          /wVZb3U=
        >
        E 0 90 29 60
        E 120 80 29 00
        <X 120 0
          /wV3b3Jl
        >
        E 0 90 32 60
        E 180 80 32 00
        <X 60 0
          /wVh
        >
        E 0 90 32 60
        E 240 80 32 00
        <X 240 0
          /wVjb2NrLQ==
        >
        E 0 90 32 60
        E 300 80 32 00
        <X 180 0
          /wV0YWls
        >
        E 0 90 30 60
        E 540 80 30 00
        <X 180 0
          /wVkcmVzcw==
        >
        E 0 90 2d 60
        E 480 80 2d 00
        E 30 80 69 00
        E 0 90 69 60
        <X 210 0
          /wVJZy0=
        >
        E 0 90 2b 60
        E 120 80 2b 00
        <X 120 0
          /wVub3JlZA==
        >
        E 0 90 34 60
        E 360 80 34 00
        <X 120 0
          /wV0aGU=
        >
        E 0 90 34 60
        E 120 80 34 00
        <X 120 0
          /wVnb29zZQ==
        >
        E 0 90 34 60
        E 360 80 34 00
        <X 120 0
          /wVidW1wcw==
        >
        E 0 90 35 60
        E 300 80 35 00
        <X 179 0
          /wVvbg==
        >
        E 0 90 34 60
        E 361 80 34 00
        <X 120 0
          /wV5b3Vy
        >
        E 0 90 30 60
        E 240 80 30 00
        <X 240 0
          /wVuZWNr
        >
        E 0 90 2d 60
        E 360 80 2d 00
        E 90 80 69 00
        E 0 90 69 60
        E 0 90 74 60
        <X 30 0
          /wVUaGU=
        >
        E 0 90 30 60
        E 600 80 30 00
        <X 120 0
          /wVuYW1l
        >
        E 0 90 32 60
        E 420 80 32 00
        <X 60 0
          /wVzYWtl
        >
        E 0 90 32 60
        E 360 80 32 00
        <X 120 0
          /wVvZg==
        >
        E 0 90 32 60
        E 299 80 32 00
        <X 181 0
          /wV5b3U=
        >
        E 0 90 30 60
        E 120 80 30 00
        <X 120 0
          /wVvdXQt
        >
        E 0 90 34 60
        E 360 80 34 00
        <X 120 0
          /wVmaXQ=
        >
        E 0 90 32 60
        E 360 80 32 00
        <X 120 0
          /wV0bw==
        >
        E 0 90 30 60
        E 120 80 30 00
        <X 119 0
          /wVrZWVw
        >
        E 0 90 32 60
        E 361 80 32 00
        <X 120 0
          /wV5b3U=
        >
        E 0 90 30 60
        E 120 80 30 00
        <X 120 0
          /wV3YXJt
        >
        E 0 90 30 60
        E 1080 80 30 00
        <X 120 0
          /wFbaWRsZV0=
        >
        E 0 80 69 00
        E 0 80 74 00
        E 960 90 00 60
        E 960 80 00 00
        <X 960 0
          /wFbdGFtYm91cmluZV9zdGFydF0=
        >
        <X 0 0
          /wFbcGxheV0=
        >
        E 0 90 61 60
        E 0 90 69 60
        E 120 80 61 00
        E 120 90 61 60
        E 120 80 61 00
        E 120 90 60 60
        E 120 80 60 00
        E 120 90 61 60
        E 120 80 61 00
        E 120 90 61 60
        E 120 80 61 00
        E 120 90 61 60
        E 120 80 61 00
        E 120 90 60 60
        E 120 80 60 00
        E 120 90 61 60
        E 120 80 61 00
        E 120 90 61 60
        E 120 80 61 00
        E 120 90 61 60
        E 120 80 61 00
        E 120 90 60 60
        E 120 80 60 00
        E 120 90 61 60
        E 120 80 61 00
        E 120 90 61 60
        E 120 80 61 00
        E 120 90 61 60
        E 120 80 61 00
        E 120 90 60 60
        E 120 80 60 00
        E 120 90 61 60
        E 120 80 61 00
        E 120 90 61 60
        E 120 80 61 00
        E 120 90 61 60
        E 120 80 61 00
        E 120 90 60 60
        E 120 80 60 00
        E 120 90 61 60
        E 120 80 61 00
        E 120 90 61 60
        E 120 80 61 00
        E 120 90 61 60
        E 120 80 61 00
        E 120 90 60 60
        E 120 80 60 00
        E 120 90 61 60
        E 120 80 61 00
        E 120 90 61 60
        E 120 80 61 00
        E 120 90 61 60
        E 120 80 61 00
        E 120 90 60 60
        E 120 80 60 00
        E 120 90 61 60
        E 120 80 61 00
        E 120 90 61 60
        E 120 80 61 00
        E 120 90 61 60
        E 120 80 61 00
        E 120 90 60 60
        E 120 80 60 00
        E 120 90 61 60
        E 120 80 61 00
        E 120 80 69 00
        E 0 90 61 60
        E 0 90 69 60
        E 120 80 61 00
        E 120 90 61 60
        E 120 80 61 00
        E 120 90 60 60
        E 120 80 60 00
        E 120 90 61 60
        E 120 80 61 00
        E 120 90 61 60
        E 120 80 61 00
        E 120 90 61 60
        E 120 80 61 00
        E 120 90 60 60
        E 120 80 60 00
        E 120 90 61 60
        E 120 80 61 00
        E 120 90 61 60
        E 120 80 61 00
        E 120 90 61 60
        E 120 80 61 00
        E 120 90 60 60
        E 120 80 60 00
        E 120 90 61 60
        E 120 80 61 00
        E 120 90 61 60
        E 120 80 61 00
        E 120 90 61 60
        E 120 80 61 00
        E 120 90 60 60
        E 120 80 60 00
        E 120 90 61 60
        E 120 80 61 00
        E 120 90 61 60
        E 120 80 61 00
        E 120 90 61 60
        E 120 80 61 00
        E 120 90 60 60
        E 120 80 60 00
        E 120 90 61 60
        E 120 80 61 00
        E 120 90 61 60
        E 120 80 61 00
        E 120 90 61 60
        E 120 80 61 00
        E 120 90 60 60
        E 120 80 60 00
        E 120 90 61 60
        E 120 80 61 00
        <X 120 0
          /wFbdGFtYm91cmluZV9lbmRd
        >
        <X 0 0
          /wFbaWRsZV0=
        >
        E 0 80 69 00
        E 1920 90 69 60
        E 0 90 74 60
        <X 480 0
          /wFbcGxheV0=
        >
        <X 240 0
          /wVZb3U=
        >
        E 0 90 39 60
        E 180 80 39 00
        <X 60 0
          /wVhbC0=
        >
        E 0 90 3c 60
        E 180 80 3c 00
        <X 60 0
          /wV3YXlz
        >
        E 0 90 3e 60
        E 240 80 3e 00
        <X 240 0
          /wVzYWlk
        >
        E 0 90 3e 60
        E 240 80 3e 00
        <X 240 0
          /wV0aGF0
        >
        E 0 90 3c 60
        E 480 90 01 60
        E 60 80 01 00
        E 120 80 3c 00
        <X 60 0
          /wVldi0=
        >
        E 0 90 39 60
        E 120 80 39 00
        <X 120 0
          /wVlcnk=
        >
        E 0 90 3c 60
        E 420 80 3c 00
        <X 300 0
          /wV0aG91Z2h0
        >
        E 0 90 40 60
        E 360 80 40 00
        <X 120 0
          /wVJ
        >
        E 0 90 40 60
        E 120 80 40 00
        <X 120 0
          /wVoYWQ=
        >
        E 0 90 40 60
        E 600 80 40 00
        <X 120 0
          /wV3YXM=
        >
        E 0 90 41 60
        E 180 80 41 00
        <X 60 0
          /wVnZS0=
        >
        E 0 90 40 60
        E 600 80 40 00
        <X 120 0
          /wVvLQ==
        >
        E 0 90 39 60
        E 180 80 39 00
        <X 60 0
          /wVtZS0=
        >
        E 0 90 39 60
        E 420 80 39 00
        <X 60 0
          /wV0cmlj
        >
        E 0 90 3c 60
        E 660 80 3c 00
        E 60 80 69 00
        E 0 80 74 00
        E 480 90 69 60
        <X 240 0
          /wVJ
        >
        E 0 90 37 60
        E 60 80 37 00
        <X 180 0
          /wVjb3VsZC0=
        >
        E 0 90 3c 60
        E 180 80 3c 00
        <X 60 0
          /wVuJ3Q=
        >
        E 0 90 3e 60
        E 180 80 3e 00
        <X 300 0
          /wV0aGluaw==
        >
        E 0 90 3e 60
        E 300 80 3e 00
        <X 180 0
          /wVvdXQt
        >
        E 0 90 3c 60
        E 420 80 3c 00
        <X 300 0
          /wVzaWRl
        >
        E 0 90 39 60
        E 300 80 39 00
        <X 180 0
          /wVteQ==
        >
        E 0 90 39 60
        E 180 80 39 00
        <X 60 0
          /wVvd24=
        >
        E 0 90 39 60
        E 360 80 39 00
        <X 120 0
          /wVsaW5lcw==
        >
        E 0 90 37 60
        E 1080 80 37 00
        <X 600 0
          /wFbaWRsZV0=
        >
        E 0 80 69 00
        <X 2160 0
          /wFbcGxheV0=
        >
        E 240 90 69 60
        <X 240 0
          /wVJ
        >
        E 0 90 39 60
        E 180 80 39 00
        <X 60 0
          /wVob3Bl
        >
        E 0 90 3c 60
        E 180 80 3c 00
        <X 60 0
          /wV5b3UncmU=
        >
        E 0 90 3e 60
        E 420 80 3e 00
        <X 60 0
          /wVhbC0=
        >
        E 0 90 3e 60
        E 360 80 3e 00
        <X 120 0
          /wVyaWdodA==
        >
        E 0 90 3c 60
        E 480 90 01 60
        E 60 80 01 00
        E 120 80 3c 00
        <X 60 0
          /wVhbmQ=
        >
        E 0 90 39 60
        E 120 80 39 00
        <X 120 0
          /wVJJ20=
        >
        E 0 90 3c 60
        E 420 80 3c 00
        <X 300 0
          /wVzb3It
        >
        E 0 90 40 60
        E 360 80 40 00
        <X 120 0
          /wVyeQ==
        >
        E 0 90 40 60
        E 120 80 40 00
        <X 120 0
          /wV0aGF0
        >
        E 0 90 40 60
        E 600 80 40 00
        <X 120 0
          /wVJ
        >
        E 0 90 40 60
        E 180 80 40 00
        <X 60 0
          /wV3YXMt
        >
        E 0 90 40 60
        E 420 80 40 00
        <X 60 0
          /wV0ZWQ=
        >
        E 0 90 43 60
        E 360 80 43 00
        <X 120 0
          /wV5b3Vy
        >
        E 0 90 43 60
        E 300 80 43 00
        <X 120 0
          /wV0aW1l
        >
        E 0 90 40 60
        E 660 80 40 00
        E 90 80 69 00
        E 0 90 69 60
        E 0 90 74 60
        <X 30 0
          /wVOZS0=
        >
        E 0 90 3e 60
        E 180 80 3e 00
        <X 60 0
          /wV2ZXI=
        >
        E 0 90 3e 60
        E 180 80 3e 00
        <X 60 0
          /wVoYWQ=
        >
        E 0 90 3e 60
        E 300 80 3e 00
        <X 180 0
          /wV0aGU=
        >
        E 0 90 3e 60
        E 360 80 3e 00
        <X 120 0
          /wVpbi0=
        >
        E 0 90 3c 60
        E 180 80 3c 00
        <X 60 0
          /wV0ZW4t
        >
        E 0 90 40 60
        E 300 80 40 00
        <X 180 0
          /wV0aW9u
        >
        E 0 90 3e 60
        E 420 80 3e 00
        <X 60 0
          /wV0bw==
        >
        E 0 90 3c 60
        E 120 80 3c 00
        <X 120 0
          /wVtYWtl
        >
        E 0 90 3e 60
        E 360 80 3e 00
        <X 120 0
          /wV5b3U=
        >
        E 0 90 3c 60
        E 120 80 3c 00
        <X 120 0
          /wVnbw==
        >
        E 0 90 3c 60
        E 720 80 3c 00
        E 0 90 01 60
        E 60 80 01 00
        <X 660 0
          /wVvaD0=
        >
        E 0 90 37 60
        E 120 80 37 00
        <X 90 0
          /wUr
        >
        E 0 90 40 60
        E 180 80 40 00
        <X 90 0
          /wUr
        >
        E 0 90 3e 60
        E 300 80 3e 00
        <X 180 0
          /wVobw==
        >
        E 0 90 3c 60
        E 720 80 3c 00
        <X 240 0
          /wFbaWRsZV0=
        >
        E 240 80 69 00
        E 0 80 74 00
        <X 480 0
          /wFbcGxheV0=
        >
        <X 0 0
          /wFbdGFtYm91cmluZV9zdGFydF0=
        >
        E 0 90 61 60
        E 0 90 69 60
        E 120 80 61 00
        E 120 90 61 60
        E 120 80 61 00
        E 120 90 60 60
        E 120 80 60 00
        E 120 90 61 60
        E 120 80 61 00
        E 120 90 61 60
        E 120 80 61 00
        E 119 90 61 60
        E 120 80 61 00
        E 121 90 60 60
        E 120 80 60 00
        E 120 90 61 60
        E 120 80 61 00
        E 120 90 61 60
        E 120 80 61 00
        E 120 90 61 60
        E 120 80 61 00
        E 120 90 60 60
        E 120 80 60 00
        E 120 90 61 60
        E 120 80 61 00
        E 120 90 61 60
        E 120 80 61 00
        E 119 90 61 60
        E 120 80 61 00
        E 121 90 60 60
        E 120 80 60 00
        E 120 90 61 60
        E 120 80 61 00
        E 120 90 61 60
        E 120 80 61 00
        E 120 90 61 60
        E 120 80 61 00
        E 120 90 60 60
        E 120 80 60 00
        E 120 90 61 60
        E 120 80 61 00
        E 120 90 61 60
        E 120 80 61 00
        E 119 90 61 60
        E 120 80 61 00
        E 121 90 60 60
        E 120 80 60 00
        E 120 90 61 60
        E 120 80 61 00
        E 120 90 61 60
        E 120 80 61 00
        E 120 90 61 60
        E 120 80 61 00
        E 120 90 60 60
        E 120 80 60 00
        E 120 90 61 60
        E 120 80 61 00
        E 120 90 61 60
        E 120 80 61 00
        E 119 90 61 60
        E 120 80 61 00
        E 121 90 60 60
        E 120 80 60 00
        E 120 90 61 60
        E 120 80 61 00
        E 120 80 69 00
        E 0 90 61 60
        E 0 90 69 60
        E 120 80 61 00
        E 120 90 61 60
        E 120 80 61 00
        E 120 90 60 60
        E 120 80 60 00
        E 120 90 61 60
        E 120 80 61 00
        E 120 90 61 60
        E 120 80 61 00
        E 119 90 61 60
        E 120 80 61 00
        E 121 90 60 60
        E 120 80 60 00
        E 120 90 61 60
        E 120 80 61 00
        E 120 90 61 60
        E 120 80 61 00
        E 120 90 61 60
        E 120 80 61 00
        E 120 90 60 60
        E 120 80 60 00
        E 120 90 61 60
        E 120 80 61 00
        E 120 90 61 60
        E 120 80 61 00
        E 119 90 61 60
        E 120 80 61 00
        E 121 90 60 60
        E 120 80 60 00
        E 120 90 61 60
        E 120 80 61 00
        E 120 90 61 60
        E 120 80 61 00
        E 120 90 61 60
        E 120 80 61 00
        E 120 90 60 60
        E 120 80 60 00
        E 120 90 61 60
        E 120 80 61 00
        E 120 90 61 60
        E 120 80 61 00
        E 119 90 61 60
        E 120 80 61 00
        E 121 90 60 60
        E 120 80 60 00
        E 120 90 61 60
        E 120 80 61 00
        E 120 90 61 60
        E 120 80 61 00
        E 120 90 61 60
        E 120 80 61 00
        E 120 90 60 60
        E 120 80 60 00
        E 120 90 61 60
        E 120 80 61 00
        E 120 90 61 60
        E 120 80 61 00
        E 119 90 61 60
        E 120 80 61 00
        E 121 90 60 60
        E 120 80 60 00
        E 120 90 61 60
        E 120 80 61 00
        <X 120 0
          /wFbaWRsZV0=
        >
        E 0 80 69 00
        <X 7680 0
          /wFbaW50ZW5zZV0=
        >
        E 0 90 60 60
        E 0 90 69 60
        E 120 80 60 00
        E 120 90 61 60
        E 120 80 61 00
        E 120 90 60 60
        E 120 80 60 00
        E 120 90 61 60
        E 120 80 61 00
        E 120 90 60 60
        E 120 80 60 00
        E 120 90 61 60
        E 120 80 61 00
        E 120 90 60 60
        E 120 80 60 00
        E 120 90 61 60
        E 120 80 61 00
        E 120 90 60 60
        E 120 80 60 00
        E 121 90 61 60
        E 120 80 61 00
        E 120 90 60 60
        E 120 80 60 00
        E 120 90 61 60
        E 120 80 61 00
        E 120 90 60 60
        E 120 80 60 00
        E 120 90 61 60
        E 120 80 61 00
        E 120 90 60 60
        E 120 80 60 00
        E 120 90 61 60
        E 120 80 61 00
        E 119 90 60 60
        E 120 80 60 00
        E 120 90 61 60
        E 120 80 61 00
        E 120 90 60 60
        E 120 80 60 00
        E 120 90 61 60
        E 120 80 61 00
        E 120 90 60 60
        E 120 80 60 00
        E 120 90 61 60
        E 120 80 61 00
        E 120 90 60 60
        E 120 80 60 00
        E 120 90 61 60
        E 120 80 61 00
        E 120 90 60 60
        E 120 80 60 00
        E 121 90 61 60
        E 120 80 61 00
        E 120 90 60 60
        E 120 80 60 00
        E 120 90 61 60
        E 120 80 61 00
        E 120 90 60 60
        E 120 80 60 00
        E 120 90 61 60
        E 120 80 61 00
        E 120 90 60 60
        E 120 80 60 00
        E 120 90 61 60
        E 120 80 61 00
        E 119 80 69 00
        E 0 90 60 60
        E 0 90 69 60
        E 120 80 60 00
        E 120 90 61 60
        E 120 80 61 00
        E 120 90 60 60
        E 120 80 60 00
        E 120 90 61 60
        E 120 80 61 00
        E 120 90 60 60
        E 120 80 60 00
        E 120 90 61 60
        E 120 80 61 00
        E 120 90 60 60
        E 120 80 60 00
        E 120 90 61 60
        E 120 80 61 00
        E 120 90 60 60
        E 120 80 60 00
        E 121 90 61 60
        E 120 80 61 00
        E 120 90 60 60
        E 120 80 60 00
        E 120 90 61 60
        E 120 80 61 00
        E 120 90 60 60
        E 120 80 60 00
        E 120 90 61 60
        E 120 80 61 00
        E 120 90 60 60
        E 120 80 60 00
        E 120 90 61 60
        E 120 80 61 00
        E 119 90 60 60
        E 120 80 60 00
        E 120 90 61 60
        E 120 80 61 00
        E 120 90 60 60
        E 120 80 60 00
        E 120 90 61 60
        E 120 80 61 00
        E 120 90 60 60
        E 120 80 60 00
        E 120 90 61 60
        E 120 80 61 00
        E 120 90 60 60
        E 120 80 60 00
        E 120 90 61 60
        E 120 80 61 00
        E 120 90 60 60
        E 120 80 60 00
        E 121 90 61 60
        E 120 80 61 00
        E 120 90 60 60
        E 120 80 60 00
        E 120 90 61 60
        E 120 80 61 00
        E 120 90 60 60
        E 120 80 60 00
        E 120 90 61 60
        E 120 80 61 00
        E 120 90 60 60
        E 120 80 60 00
        E 120 90 61 60
        E 120 80 61 00
        E 119 80 69 00
        E 0 90 60 60
        E 0 90 69 60
        E 120 80 60 00
        E 120 90 61 60
        E 120 80 61 00
        E 120 90 60 60
        E 120 80 60 00
        E 120 90 61 60
        E 120 80 61 00
        E 120 90 60 60
        E 120 80 60 00
        E 120 90 61 60
        E 120 80 61 00
        E 120 90 60 60
        E 120 80 60 00
        E 120 90 61 60
        E 120 80 61 00
        E 120 90 60 60
        E 120 80 60 00
        E 121 90 61 60
        E 120 80 61 00
        E 120 90 60 60
        E 120 80 60 00
        E 120 90 61 60
        E 120 80 61 00
        E 120 90 60 60
        E 120 80 60 00
        E 120 90 61 60
        E 120 80 61 00
        E 120 90 60 60
        E 120 80 60 00
        E 120 90 61 60
        E 120 80 61 00
        E 119 90 60 60
        E 120 80 60 00
        E 120 90 61 60
        E 120 80 61 00
        E 120 90 60 60
        E 120 80 60 00
        E 120 90 61 60
        E 120 80 61 00
        E 120 90 60 60
        E 120 80 60 00
        E 120 90 61 60
        E 120 80 61 00
        E 120 90 60 60
        E 120 80 60 00
        E 120 90 61 60
        E 120 80 61 00
        E 120 90 60 60
        E 120 80 60 00
        E 121 90 61 60
        E 120 80 61 00
        E 120 90 60 60
        E 120 80 60 00
        E 120 90 61 60
        E 120 80 61 00
        E 120 90 60 60
        E 120 80 60 00
        E 120 90 61 60
        E 120 80 61 00
        E 120 90 60 60
        E 120 80 60 00
        E 120 90 61 60
        E 120 80 61 00
        E 119 90 60 60
        E 120 80 60 00
        <X 360 0
          /wFbdGFtYm91cmluZV9lbmRd
        >
        <X 0 0
          /wFbaWRsZV0=
        >
        E 0 80 69 00
        <X 5640 0
          /wFbbWVsbG93XQ==
        >
        E 120 90 69 60
        E 0 90 74 60
        <X 240 0
          /wVUbw==
        >
        E 0 90 3c 60
        E 120 80 3c 00
        <X 120 0
          /wVtYWtl
        >
        E 0 90 40 60
        E 180 80 40 00
        <X 60 0
          /wV5b3U=
        >
        E 0 90 3e 60
        E 360 80 3e 00
        <X 120 0
          /wVnbz0=
        >
        E 0 90 3e 60
        E 420 80 3e 00
        <X 60 0
          /wVobw==
        >
        E 0 90 3c 60
        E 540 80 3c 00
        <X 180 0
          /wFbaWRsZV0=
        >
        E 480 80 69 00
        E 0 80 74 00
        <X 4560 0
          /wFbaW50ZW5zZV0=
        >
        E 240 90 69 60
        <X 240 0
          /wVUbw==
        >
        E 0 90 40 60
        E 120 80 40 00
        <X 120 0
          /wVtYWtl
        >
        E 0 90 43 60
        E 240 80 43 00
        <X 60 0
          /wV5b3U=
        >
        E 0 90 40 60
        E 300 80 40 00
        <X 180 0
          /wVnbw==
        >
        E 0 90 43 60
        E 540 80 43 00
        <X 120 0
          /wV0bw==
        >
        E 0 90 43 60
        E 180 80 43 00
        <X 60 0
          /wVtYWtl
        >
        E 0 90 43 60
        E 240 80 43 00
        <X 240 0
          /wV5b3U=
        >
        E 0 90 40 60
        E 180 80 40 00
        <X 300 0
          /wVnbw==
        >
        E 0 90 43 60
        E 480 80 43 00
        E 240 80 69 00
        E 0 90 69 60
        E 0 90 74 60
        <X 240 0
          /wVJ
        >
        E 0 90 3c 60
        E 180 80 3c 00
        <X 60 0
          /wVuZS0=
        >
        E 0 90 3c 60
        E 120 80 3c 00
        <X 120 0
          /wV2ZXI=
        >
        E 0 90 3c 60
        E 300 80 3c 00
        <X 180 0
          /wV3YW50LQ==
        >
        E 0 90 43 60
        E 420 80 43 00
        <X 60 0
          /wVlZA==
        >
        E 0 90 43 60
        E 180 80 43 00
        <X 60 0
          /wV0bw==
        >
        E 0 90 43 60
        E 120 80 43 00
        <X 120 0
          /wVtYWtl
        >
        E 0 90 43 60
        E 420 80 43 00
        <X 60 0
          /wV5b3U=
        >
        E 0 90 40 60
        E 300 80 40 00
        <X 180 0
          /wVnbw==
        >
        E 0 90 40 60
        E 480 80 40 00
        E 240 80 69 00
        E 0 80 74 00
        E 0 90 69 60
        <X 240 0
          /wVBbmQ=
        >
        E 0 90 3c 60
        E 180 80 3c 00
        <X 60 0
          /wV5b3U=
        >
        E 0 90 3c 60
        E 180 80 3c 00
        <X 60 0
          /wVtaWdodA==
        >
        E 0 90 3c 60
        E 300 80 3c 00
        <X 180 0
          /wViZQ==
        >
        E 0 90 43 60
        E 420 80 43 00
        <X 60 0
          /wVh
        >
        E 0 90 43 60
        E 180 80 43 00
        <X 300 0
          /wVzdHJhbmct
        >
        E 0 90 43 60
        E 420 80 43 00
        <X 60 0
          /wVlcg==
        >
        E 0 90 40 60
        E 180 80 40 00
        <X 300 0
          /wVub3c=
        >
        E 0 90 43 60
        E 480 80 43 00
        E 240 80 69 00
        E 0 90 69 60
        <X 240 0
          /wVBbmQ=
        >
        E 0 90 3c 60
        E 120 80 3c 00
        <X 120 0
          /wVJ
        >
        E 0 90 3c 60
        E 120 80 3c 00
        <X 120 0
          /wVqdXN0
        >
        E 0 90 3c 60
        E 120 80 3c 00
        <X 360 0
          /wV3YW50LQ==
        >
        E 0 90 43 60
        E 360 80 43 00
        <X 120 0
          /wVlZA==
        >
        E 0 90 43 60
        E 180 80 43 00
        <X 60 0
          /wV0bw==
        >
        E 0 90 43 60
        E 180 80 43 00
        <X 60 0
          /wVsZXQ=
        >
        E 0 90 43 60
        E 180 80 43 00
        <X 300 0
          /wV5b3U=
        >
        E 0 90 40 60
        E 360 80 40 00
        <X 120 0
          /wVrbm93
        >
        E 0 90 40 60
        E 540 80 40 00
        E 150 80 69 00
        E 0 90 69 60
        <X 30 0
          /wVUaGF0
        >
        E 0 90 3c 60
        E 120 80 3c 00
        <X 120 0
          /wVJ
        >
        E 0 90 3c 60
        E 120 80 3c 00
        <X 120 0
          /wVtZWFudA==
        >
        E 0 90 40 60
        E 300 80 40 00
        <X 180 0
          /wV3aGF0
        >
        E 0 90 3e 60
        E 120 80 3e 00
        <X 120 0
          /wVJ
        >
        E 0 90 3e 60
        E 420 80 3e 00
        <X 300 0
          /wVzYWlk
        >
        E 0 90 3c 60
        E 660 80 3c 00
        E 300 80 69 00
        E 960 90 69 60
        E 0 90 74 60
        <X 240 0
          /wVBbmQ=
        >
        E 0 90 3c 60
        E 120 80 3c 00
        <X 120 0
          /wVldi0=
        >
        E 0 90 3c 60
        E 120 80 3c 00
        <X 120 0
          /wVlcnk=
        >
        E 0 90 3c 60
        E 240 80 3c 00
        <X 240 0
          /wVkcmVhbQ==
        >
        E 0 90 45 60
        E 420 80 45 00
        <X 60 0
          /wVJJ3Zl
        >
        E 0 90 43 60
        E 360 80 43 00
        <X 120 0
          /wVldi0=
        >
        E 0 90 43 60
        E 360 80 43 00
        <X 120 0
          /wVlcg==
        >
        E 0 90 40 60
        E 360 80 40 00
        <X 120 0
          /wVoYWQncw==
        >
        E 0 90 40 60
        E 550 80 40 00
        <X 170 0
          /wViZWVu
        >
        E 0 90 41 60
        E 120 80 41 00
        <X 120 0
          /wVvZg==
        >
        E 0 90 40 60
        E 360 80 40 00
        <X 120 0
          /wVteS0=
        >
        E 0 90 3e 60
        E 240 80 3e 00
        <X 240 0
          /wVzZWxm
        >
        E 0 90 3c 60
        E 540 80 3c 00
        E 180 80 69 00
        E 0 80 74 00
        E 1920 90 69 60
        <X 240 0
          /wVBbmQ=
        >
        E 0 90 3c 60
        E 121 80 3c 00
        <X 120 0
          /wVldi0=
        >
        E 0 90 3c 60
        E 120 80 3c 00
        <X 120 0
          /wVlcnk=
        >
        E 0 90 3c 60
        E 240 80 3c 00
        <X 240 0
          /wVkcmVhbQ==
        >
        E 0 90 45 60
        E 359 80 45 00
        <X 121 0
          /wVJJ3Zl
        >
        E 0 90 43 60
        E 360 80 43 00
        <X 120 0
          /wVldi0=
        >
        E 0 90 43 60
        E 360 80 43 00
        <X 120 0
          /wVlcg==
        >
        E 0 90 40 60
        E 360 80 40 00
        <X 120 0
          /wVoYWQncw==
        >
        E 0 90 40 60
        E 600 80 40 00
        <X 120 0
          /wViZWVu
        >
        E 0 90 41 60
        E 120 80 41 00
        <X 120 0
          /wVvZg==
        >
        E 0 90 40 60
        E 360 80 40 00
        <X 120 0
          /wVh
        >
        E 0 90 3e 60
        E 539 80 3e 00
        E 150 80 69 00
        E 0 90 69 60
        <X 30 0
          /wVCZXQt
        >
        E 0 90 3e 60
        E 180 80 3e 00
        <X 60 0
          /wV0ZXI=
        >
        E 0 90 40 60
        E 360 80 40 00
        <X 120 0
          /wV2aWV3
        >
        E 0 90 40 60
        E 360 80 40 00
        <X 120 0
          /wV3aXRo
        >
        E 0 90 3c 60
        E 120 80 3c 00
        <X 120 0
          /wVh
        >
        E 0 90 3c 60
        E 120 80 3c 00
        <X 120 0
          /wV0ZW4=
        >
        E 0 90 3e 60
        E 360 80 3e 00
        <X 120 0
          /wVtb250aA==
        >
        E 0 90 40 60
        E 600 80 40 00
        <X 120 0
          /wVzdW0t
        >
        E 0 90 40 60
        E 120 80 40 00
        <X 120 0
          /wVtZXI=
        >
        E 0 90 3c 60
        E 240 80 3c 00
        E 240 80 69 00
        E 0 90 69 60
        <X 240 0
          /wVMb3Mt
        >
        E 0 90 3e 60
        E 120 80 3e 00
        <X 120 0
          /wVpbmc=
        >
        E 0 90 40 60
        E 360 80 40 00
        <X 120 0
          /wV5b3U=
        >
        E 0 90 40 60
        E 360 80 40 00
        <X 120 0
          /wVpcw==
        >
        E 0 90 3c 60
        E 180 80 3c 00
        <X 60 0
          /wVsaWtl
        >
        E 0 90 3c 60
        E 120 80 3c 00
        <X 360 0
          /wVjdXQt
        >
        E 0 90 3e 60
        E 180 80 3e 00
        <X 60 0
          /wV0aW5n
        >
        E 0 90 3e 60
        E 180 80 3e 00
        <X 60 0
          /wVteQ==
        >
        E 0 90 40 60
        E 420 80 40 00
        <X 60 0
          /wVmaW5nLQ==
        >
        E 0 90 40 60
        E 180 80 40 00
        <X 60 0
          /wVlcnM=
        >
        E 0 90 3e 60
        E 360 80 3e 00
        <X 120 0
          /wVvZmY=
        >
        E 0 90 3c 60
        E 600 80 3c 00
        E 120 80 69 00
        E 0 90 69 60
        <X 240 0
          /wVBbmQ=
        >
        E 0 90 3c 60
        E 120 80 3c 00
        <X 120 0
          /wVldi0=
        >
        E 0 90 3e 60
        E 120 80 3e 00
        <X 120 0
          /wVlbg==
        >
        E 0 90 40 60
        E 300 80 40 00
        <X 180 0
          /wV3aXRo
        >
        E 0 90 40 60
        E 240 80 40 00
        <X 240 0
          /wV0aGF0
        >
        E 0 90 40 60
        E 420 80 40 00
        <X 300 0
          /wVzdW0t
        >
        E 0 90 40 60
        E 120 80 40 00
        <X 120 0
          /wVtZXI=
        >
        E 0 90 3c 60
        E 360 80 3c 00
        E 90 80 69 00
        E 0 90 69 60
        <X 30 0
          /wVXaXRoLQ==
        >
        E 0 90 3c 60
        E 120 80 3c 00
        <X 120 0
          /wVvdXQ=
        >
        E 0 90 3e 60
        E 300 80 3e 00
        <X 180 0
          /wV5b3U=
        >
        E 0 90 40 60
        E 180 80 40 00
        <X 60 0
          /wVJJ2Q=
        >
        E 0 90 40 60
        E 60 80 40 00
        <X 180 0
          /wVyYXRoLQ==
        >
        E 0 90 40 60
        E 120 80 40 00
        <X 120 0
          /wVlcg==
        >
        E 0 90 3c 60
        E 300 80 3c 00
        <X 180 0
          /wVjdXQ=
        >
        E 0 90 3e 60
        E 420 80 3e 00
        <X 300 0
          /wVteQ==
        >
        E 0 90 40 60
        E 240 80 40 00
        <X 240 0
          /wVmaW4t
        >
        E 0 90 40 60
        E 180 80 40 00
        <X 60 0
          /wVnZXJz
        >
        E 0 90 3e 60
        E 240 80 3e 00
        <X 240 0
          /wVvZmY=
        >
        E 0 90 3c 60
        E 60 80 3c 00
        <X 60 0
          /wUr
        >
        E 0 90 3e 60
        E 240 80 3e 00
        <X 120 0
          /wUr
        >
        E 0 90 3c 60
        E 600 80 3c 00
        E 119 80 69 00
        E 31681 b0 7b 00
        GUID {9C9B2D53-1C6C-4DD3-AC5D-EF7485A30EEB}
        IGNTEMPO 0 120.00000000 4 4
        SRCCOLOR 6
        VELLANE 132 128 60
        COLORMAP "C:\Program Files\REAPER (x64)\Data\color_maps\rockband_guitarbass.png"
        CFGEDITVIEW -15101.834372 6.071309 0 12 0 0 0
        CFGEDIT 1 1 0 1 1 0 1 1 1 1 1 0.12500000 53 44 1253 718 0 2 1 1 0.00000000 0 1 1 0 0.500000 0 0 1.000000 64
        KEYSNAP 0 7 "102030050700" 0 "Pentatonic"
        EVTFILTER 0 -1 -1 -1 -1 0 1 0 0 -1.00000000 -1.00000000
      >
    >
  >
  <TRACK '{1E215D23-6546-43D1-B24E-0610411D5FDD}'
    NAME "PART REAL_BASS"
    PEAKCOL 16576
    BEAT -1
    AUTOMODE 0
    VOLPAN 1.00000000000000 0.00000000000000 -1.00000000000000 -1.00000000000000 1.00000000000000
    MUTESOLO 0 0 0
    IPHASE 0
    ISBUS 0 0
    BUSCOMP 0 0
    SHOWINMIX 1 0.666700 0.500000 1 0.500000 -1 -1 -1
    FREEMODE 0
    SEL 0
    REC 0 0 0 0 0 0 0
    VU 2
    TRACKHEIGHT 0 0
    INQ 0 0 0 0.5000000000 100 0 0 100
    NCHAN 2
    FX 1
    TRACKID {1E215D23-6546-43D1-B24E-0610411D5FDD}
    PERF 0
    MIDIOUT -1
    <MIDINOTENAMES
      0 127 "Trill Marker"
      0 126 "Tremolo Marker"
      0 125 "BRE"
      0 124 "BRE"
      0 123 "BRE"
      0 122 "BRE"
      0 121 "BRE"
      0 120 "BRE (use all 6)"
      0 119 "-----------"
      0 116 "OVERDRIVE"
      0 115 "Solo Marker"
      0 109 "-----------"
      0 108 "Fret Hand Position"
      0 107 "Force Chord Numbering"
      0 106 "Loose Strumming"
      0 105 "Strum Direction"
      0 104 "Arpeggio Marker"
      0 103 "Slide Marker"
      0 102 "Force HOPO"
      0 101 "EXPERT e String"
      0 100 "EXPERT B String"
      0 99 "EXPERT G String"
      0 98 "EXPERT D String"
      0 97 "EXPERT A String"
      0 96 "EXPERT E String"
      0 95 "-----------"
      0 82 "Loose Strumming"
      0 81 "Strum Direction"
      0 80 "Arpeggio Marker"
      0 79 "Slide Marker"
      0 78 "Force HOPO"
      0 77 "HARD e String"
      0 76 "HARD B String"
      0 75 "HARD G String"
      0 74 "HARD D String"
      0 73 "HARD A String"
      0 72 "HARD E String"
      0 71 "-----------"
      0 58 "Loose Strumming"
      0 56 "Arpeggio Marker"
      0 55 "Slide Marker"
      0 53 "MEDIUM e String"
      0 52 "MEDIUM B String"
      0 51 "MEDIUM G String"
      0 50 "MEDIUM D String"
      0 49 "MEDIUM A String"
      0 48 "MEDIUM E String"
      0 47 "-----------"
      0 32 "Arpeggio Marker"
      0 31 "Slide Marker"
      0 29 "EASY e String"
      0 28 "EASY B String"
      0 27 "EASY G String"
      0 26 "EASY D String"
      0 25 "EASY A String"
      0 24 "EASY E String"
      0 21 "-----------"
      0 18 "Flat/Sharp Swap"
      0 17 "Hide Chord Names"
      0 16 "Slash Chord"
      0 15 "D#"
      0 14 "D"
      0 13 "C#"
      0 12 "C"
      0 11 "B"
      0 10 "A#"
      0 9 "A"
      0 8 "G#"
      0 7 "G"
      0 6 "F#"
      0 5 "F"
      0 4 "E"
    >
    MAINSEND 1 0
    <FXCHAIN
      SHOW 0
      LASTSEL 0
      DOCKED 0
    >
    <ITEM
      POSITION 0.00000000000000
      SNAPOFFS 0.00000000000000
      LENGTH 184.96816326530612
      LOOP 0
      ALLTAKES 0
      SEL 0
      FADEIN 1 0.000000 0.000000 1 0
      FADEOUT 1 0.000000 0.000000 1 0
      MUTE 0
      IGUID {2C69CBB7-3B00-4649-B425-3ACDA1363B75}
      IID 5
      NAME "PART REAL_BASS"
      VOLPAN 1.000000 0.000000 1.000000 -1.000000
      SOFFS 0.00000000000000 0.00000000000000
      PLAYRATE 1.00000000000000 1 0.00000000000000 -1
      CHANMODE 0
      GUID {977EBE2F-9EED-455F-95F5-53ABAE50A35E}
      <SOURCE MIDI
        HASDATA 1 480 QN
        POOLEDEVTS {C7AC8F68-CD28-4D8C-8437-10F5EC84CF48}
        <X 0 0
          /wNQQVJUIFJFQUxfQkFTUw==
        >
        E 46080 90 19 69
        E 0 90 31 69
        E 0 90 49 69
        E 0 90 61 69
        E 0 90 6c 67
        E 0 90 74 64
        E 120 80 19 00
        E 0 80 31 00
        E 0 80 49 00
        E 0 80 61 00
        E 0 80 6c 00
        E 120 90 31 69
        E 0 90 49 69
        E 0 90 61 69
        E 120 80 31 00
        E 0 80 49 00
        E 0 80 61 00
        E 120 90 19 69
        E 0 90 31 69
        E 0 90 49 69
        E 0 90 61 69
        E 120 80 19 00
        E 0 80 31 00
        E 0 80 49 00
        E 0 80 61 00
        E 120 90 31 69
        E 0 90 49 69
        E 0 90 61 69
        E 120 80 31 00
        E 0 80 49 00
        E 0 80 61 00
        E 120 90 19 69
        E 0 90 31 69
        E 0 90 49 69
        E 0 90 61 69
        E 120 80 19 00
        E 0 80 31 00
        E 0 80 49 00
        E 0 80 61 00
        E 120 90 31 69
        E 0 90 49 69
        E 0 90 61 69
        E 120 80 31 00
        E 0 80 49 00
        E 0 80 61 00
        E 120 90 19 69
        E 0 90 31 69
        E 0 90 49 69
        E 0 90 61 69
        E 120 80 19 00
        E 0 80 31 00
        E 0 80 49 00
        E 0 80 61 00
        E 120 90 48 69
        E 0 90 60 69
        E 360 80 48 00
        E 0 80 60 00
        E 120 90 30 69
        E 0 90 48 69
        E 0 90 60 69
        E 120 80 30 00
        E 0 80 48 00
        E 0 80 60 00
        E 120 90 18 69
        E 0 90 30 69
        E 0 90 48 69
        E 0 90 60 69
        E 120 80 18 00
        E 0 80 30 00
        E 0 80 48 00
        E 0 80 60 00
        E 120 90 30 69
        E 0 90 48 69
        E 0 90 60 69
        E 120 80 30 00
        E 0 80 48 00
        E 0 80 60 00
        E 120 90 18 69
        E 0 90 30 69
        E 0 90 48 69
        E 0 90 60 69
        E 120 80 18 00
        E 0 80 30 00
        E 0 80 48 00
        E 0 80 60 00
        E 120 90 30 69
        E 0 90 48 69
        E 0 90 60 69
        E 120 80 30 00
        E 0 80 48 00
        E 0 80 60 00
        E 120 90 18 69
        E 0 90 30 69
        E 0 90 48 69
        E 0 90 60 69
        E 120 80 18 00
        E 0 80 30 00
        E 0 80 48 00
        E 0 80 60 00
        E 120 90 30 69
        E 0 90 48 69
        E 0 90 60 69
        E 120 80 30 00
        E 0 80 48 00
        E 0 80 60 00
        E 120 80 74 00
        E 0 90 18 67
        E 0 90 30 67
        E 0 90 48 67
        E 0 90 60 67
        E 120 80 18 00
        E 0 80 30 00
        E 0 80 48 00
        E 0 80 60 00
        E 120 90 30 67
        E 0 90 48 67
        E 0 90 60 67
        E 120 80 30 00
        E 0 80 48 00
        E 0 80 60 00
        E 120 90 18 67
        E 0 90 30 67
        E 0 90 48 67
        E 0 90 60 67
        E 120 80 18 00
        E 0 80 30 00
        E 0 80 48 00
        E 0 80 60 00
        E 120 90 30 67
        E 0 90 48 67
        E 0 90 60 67
        E 120 80 30 00
        E 0 80 48 00
        E 0 80 60 00
        E 120 90 18 67
        E 0 90 30 67
        E 0 90 48 67
        E 0 90 60 67
        E 120 80 18 00
        E 0 80 30 00
        E 0 80 48 00
        E 0 80 60 00
        E 120 90 48 67
        E 0 90 60 67
        E 120 80 48 00
        E 0 80 60 00
        E 120 90 18 67
        E 0 90 30 67
        E 0 90 48 67
        E 0 90 60 67
        E 120 80 18 00
        E 0 80 30 00
        E 360 90 6c 65
        E 120 80 48 00
        E 0 80 60 00
        E 0 80 6c 00
        E 120 90 30 65
        E 0 90 48 65
        E 0 90 60 65
        E 120 80 30 00
        E 0 80 48 00
        E 0 80 60 00
        E 120 90 18 65
        E 0 90 30 65
        E 0 90 48 65
        E 0 90 60 65
        E 120 80 18 00
        E 0 80 30 00
        E 0 80 48 00
        E 0 80 60 00
        E 120 90 30 65
        E 0 90 48 65
        E 0 90 60 65
        E 120 80 30 00
        E 0 80 48 00
        E 0 80 60 00
        E 120 90 18 65
        E 0 90 30 65
        E 0 90 48 65
        E 0 90 60 65
        E 120 80 18 00
        E 0 80 30 00
        E 0 80 48 00
        E 0 80 60 00
        E 120 90 30 65
        E 0 90 48 65
        E 0 90 60 65
        E 120 80 30 00
        E 0 80 48 00
        E 0 80 60 00
        E 120 90 30 65
        E 0 90 48 65
        E 0 90 60 65
        E 120 80 30 00
        E 0 80 48 00
        E 0 80 60 00
        E 120 90 48 65
        E 0 90 60 65
        E 120 80 48 00
        E 0 80 60 00
        E 120 90 19 69
        E 0 90 31 69
        E 0 90 49 69
        E 0 90 61 69
        E 0 90 6c 67
        E 120 80 19 00
        E 0 80 31 00
        E 0 80 49 00
        E 0 80 61 00
        E 0 80 6c 00
        E 120 90 31 69
        E 0 90 49 69
        E 0 90 61 69
        E 120 80 31 00
        E 0 80 49 00
        E 0 80 61 00
        E 120 90 19 69
        E 0 90 31 69
        E 0 90 49 69
        E 0 90 61 69
        E 120 80 19 00
        E 0 80 31 00
        E 0 80 49 00
        E 0 80 61 00
        E 120 90 31 69
        E 0 90 49 69
        E 0 90 61 69
        E 120 80 31 00
        E 0 80 49 00
        E 0 80 61 00
        E 120 90 19 69
        E 0 90 31 69
        E 0 90 49 69
        E 0 90 61 69
        E 120 80 19 00
        E 0 80 31 00
        E 0 80 49 00
        E 0 80 61 00
        E 120 90 31 69
        E 0 90 49 69
        E 0 90 61 69
        E 120 80 31 00
        E 0 80 49 00
        E 0 80 61 00
        E 120 90 19 69
        E 0 90 31 69
        E 0 90 49 69
        E 0 90 61 69
        E 120 80 19 00
        E 0 80 31 00
        E 0 80 49 00
        E 0 80 61 00
        E 120 90 48 69
        E 0 90 60 69
        E 360 80 48 00
        E 0 80 60 00
        E 120 90 30 69
        E 0 90 48 69
        E 0 90 60 69
        E 120 80 30 00
        E 0 80 48 00
        E 0 80 60 00
        E 120 90 18 69
        E 0 90 30 69
        E 0 90 48 69
        E 0 90 60 69
        E 120 80 18 00
        E 0 80 30 00
        E 0 80 48 00
        E 0 80 60 00
        E 120 90 30 69
        E 0 90 48 69
        E 0 90 60 69
        E 120 80 30 00
        E 0 80 48 00
        E 0 80 60 00
        E 120 90 18 69
        E 0 90 30 69
        E 0 90 48 69
        E 0 90 60 69
        E 120 80 18 00
        E 0 80 30 00
        E 0 80 48 00
        E 0 80 60 00
        E 120 90 30 69
        E 0 90 48 69
        E 0 90 60 69
        E 120 80 30 00
        E 0 80 48 00
        E 0 80 60 00
        E 120 90 30 69
        E 0 90 48 69
        E 0 90 60 69
        E 120 80 30 00
        E 0 80 48 00
        E 0 80 60 00
        E 120 90 48 69
        E 0 90 60 69
        E 120 80 48 00
        E 0 80 60 00
        E 120 90 19 67
        E 0 90 31 67
        E 0 90 49 67
        E 0 90 61 67
        E 120 80 19 00
        E 0 80 31 00
        E 0 80 49 00
        E 0 80 61 00
        E 120 90 31 67
        E 0 90 49 67
        E 0 90 61 67
        E 120 80 31 00
        E 0 80 49 00
        E 0 80 61 00
        E 120 90 19 67
        E 0 90 31 67
        E 0 90 49 67
        E 0 90 61 67
        E 120 80 19 00
        E 0 80 31 00
        E 0 80 49 00
        E 0 80 61 00
        E 120 90 31 67
        E 0 90 49 67
        E 0 90 61 67
        E 120 80 31 00
        E 0 80 49 00
        E 0 80 61 00
        E 120 90 19 67
        E 0 90 31 67
        E 0 90 49 67
        E 0 90 61 67
        E 120 80 19 00
        E 0 80 31 00
        E 0 80 49 00
        E 0 80 61 00
        E 120 90 31 67
        E 0 90 49 67
        E 0 90 61 67
        E 120 80 31 00
        E 0 80 49 00
        E 0 80 61 00
        E 120 90 19 67
        E 0 90 31 67
        E 0 90 49 67
        E 0 90 61 67
        E 120 80 19 00
        E 0 80 31 00
        E 0 80 49 00
        E 0 80 61 00
        E 120 90 31 67
        E 0 90 49 67
        E 0 90 61 67
        E 120 80 31 00
        E 0 80 49 00
        E 0 80 61 00
        E 120 90 19 67
        E 0 90 31 67
        E 0 90 49 67
        E 0 90 61 67
        E 120 80 19 00
        E 0 80 31 00
        E 0 80 49 00
        E 0 80 61 00
        E 120 90 31 67
        E 0 90 49 67
        E 0 90 61 67
        E 120 80 31 00
        E 0 80 49 00
        E 0 80 61 00
        E 120 90 19 67
        E 0 90 31 67
        E 0 90 49 67
        E 0 90 61 67
        E 120 80 19 00
        E 0 80 31 00
        E 0 80 49 00
        E 0 80 61 00
        E 120 90 31 67
        E 0 90 49 67
        E 0 90 61 67
        E 120 80 31 00
        E 0 80 49 00
        E 0 80 61 00
        E 120 90 19 67
        E 0 90 31 67
        E 0 90 49 67
        E 0 90 61 67
        E 120 80 19 00
        E 0 80 31 00
        E 0 80 49 00
        E 0 80 61 00
        E 120 90 31 67
        E 0 90 49 67
        E 0 90 61 67
        E 120 80 31 00
        E 0 80 49 00
        E 0 80 61 00
        E 120 90 31 67
        E 0 90 49 67
        E 0 90 61 67
        E 120 80 31 00
        E 0 80 49 00
        E 0 80 61 00
        E 120 90 49 67
        E 0 90 61 67
        E 120 80 49 00
        E 0 80 61 00
        <X 120 0
          /wFbYmVnaW5fcGIgc29uZ190cmFpbmVyX3BiXzFd
        >
        E 0 90 19 69
        E 0 90 31 69
        E 0 90 49 69
        E 0 90 61 69
        E 120 80 19 00
        E 0 80 31 00
        E 0 80 49 00
        E 0 80 61 00
        E 120 90 31 69
        E 0 90 49 69
        E 0 90 61 69
        E 120 80 31 00
        E 0 80 49 00
        E 0 80 61 00
        E 120 90 19 69
        E 0 90 31 69
        E 0 90 49 69
        E 0 90 61 69
        E 120 80 19 00
        E 0 80 31 00
        E 0 80 49 00
        E 0 80 61 00
        E 120 90 31 69
        E 0 90 49 69
        E 0 90 61 69
        E 120 80 31 00
        E 0 80 49 00
        E 0 80 61 00
        E 120 90 19 69
        E 0 90 31 69
        E 0 90 49 69
        E 0 90 61 69
        E 120 80 19 00
        E 0 80 31 00
        E 0 80 49 00
        E 0 80 61 00
        E 120 90 31 69
        E 0 90 49 69
        E 0 90 61 69
        E 120 80 31 00
        E 0 80 49 00
        E 0 80 61 00
        E 120 90 19 69
        E 0 90 31 69
        E 0 90 49 69
        E 0 90 61 69
        E 120 80 19 00
        E 0 80 31 00
        E 0 80 49 00
        E 0 80 61 00
        E 120 90 48 69
        E 0 90 60 69
        <X 240 0
          /wFbcGJfbm9ybSBzb25nX3RyYWluZXJfcGJfMV0=
        >
        E 120 80 48 00
        E 0 80 60 00
        E 120 90 30 69
        E 0 90 48 69
        E 0 90 60 69
        E 120 80 30 00
        E 0 80 48 00
        E 0 80 60 00
        E 120 90 18 69
        E 0 90 30 69
        E 0 90 48 69
        E 0 90 60 69
        E 120 80 18 00
        E 0 80 30 00
        E 0 80 48 00
        E 0 80 60 00
        E 120 90 30 69
        E 0 90 48 69
        E 0 90 60 69
        E 120 80 30 00
        E 0 80 48 00
        E 0 80 60 00
        E 120 90 18 69
        E 0 90 30 69
        E 0 90 48 69
        E 0 90 60 69
        E 120 80 18 00
        E 0 80 30 00
        E 0 80 48 00
        E 0 80 60 00
        E 120 90 30 69
        E 0 90 48 69
        E 0 90 60 69
        E 120 80 30 00
        E 0 80 48 00
        E 0 80 60 00
        E 120 90 18 69
        E 0 90 30 69
        E 0 90 48 69
        E 0 90 60 69
        E 120 80 18 00
        E 0 80 30 00
        E 0 80 48 00
        E 0 80 60 00
        E 120 90 30 69
        E 0 90 48 69
        E 0 90 60 69
        E 120 80 30 00
        E 0 80 48 00
        E 0 80 60 00
        E 120 90 18 67
        E 0 90 30 67
        E 0 90 48 67
        E 0 90 60 67
        E 120 80 18 00
        E 0 80 30 00
        E 0 80 48 00
        E 0 80 60 00
        E 120 90 30 67
        E 0 90 48 67
        E 0 90 60 67
        E 120 80 30 00
        E 0 80 48 00
        E 0 80 60 00
        E 120 90 18 67
        E 0 90 30 67
        E 0 90 48 67
        E 0 90 60 67
        E 120 80 18 00
        E 0 80 30 00
        E 0 80 48 00
        E 0 80 60 00
        E 120 90 30 67
        E 0 90 48 67
        E 0 90 60 67
        E 120 80 30 00
        E 0 80 48 00
        E 0 80 60 00
        E 120 90 18 67
        E 0 90 30 67
        E 0 90 48 67
        E 0 90 60 67
        E 120 80 18 00
        E 0 80 30 00
        E 0 80 48 00
        E 0 80 60 00
        E 120 90 48 67
        E 0 90 60 67
        E 120 80 48 00
        E 0 80 60 00
        E 120 90 18 67
        E 0 90 30 67
        E 0 90 48 67
        E 0 90 60 67
        E 120 80 18 00
        E 0 80 30 00
        E 0 80 48 00
        E 0 80 60 00
        E 120 90 30 65
        E 0 90 48 65
        E 0 90 60 65
        E 0 90 6c 65
        E 120 80 30 00
        E 0 80 6c 00
        E 240 80 48 00
        E 0 80 60 00
        E 120 90 30 65
        E 0 90 48 65
        E 0 90 60 65
        E 120 80 30 00
        E 0 80 48 00
        E 0 80 60 00
        E 120 90 18 65
        E 0 90 30 65
        E 0 90 48 65
        E 0 90 60 65
        E 120 80 18 00
        E 0 80 30 00
        E 0 80 48 00
        E 0 80 60 00
        E 120 90 30 65
        E 0 90 48 65
        E 0 90 60 65
        E 120 80 30 00
        E 0 80 48 00
        E 0 80 60 00
        E 120 90 18 65
        E 0 90 30 65
        E 0 90 48 65
        E 0 90 60 65
        E 120 80 18 00
        E 0 80 30 00
        E 0 80 48 00
        E 0 80 60 00
        E 120 90 30 65
        E 0 90 48 65
        E 0 90 60 65
        E 120 80 30 00
        E 0 80 48 00
        E 0 80 60 00
        E 120 90 30 65
        E 0 90 48 65
        E 0 90 60 65
        E 120 80 30 00
        E 0 80 48 00
        E 0 80 60 00
        E 120 90 48 65
        E 0 90 60 65
        E 120 80 48 00
        E 0 80 60 00
        E 120 90 19 69
        E 0 90 31 69
        E 0 90 49 69
        E 0 90 61 69
        E 0 90 6c 67
        E 0 90 74 64
        E 120 80 19 00
        E 0 80 31 00
        E 0 80 49 00
        E 0 80 61 00
        E 0 80 6c 00
        E 120 90 31 69
        E 0 90 49 69
        E 0 90 61 69
        E 120 80 31 00
        E 0 80 49 00
        E 0 80 61 00
        E 120 90 19 69
        E 0 90 31 69
        E 0 90 49 69
        E 0 90 61 69
        E 120 80 19 00
        E 0 80 31 00
        E 0 80 49 00
        E 0 80 61 00
        E 120 90 31 69
        E 0 90 49 69
        E 0 90 61 69
        E 120 80 31 00
        E 0 80 49 00
        E 0 80 61 00
        E 120 90 19 69
        E 0 90 31 69
        E 0 90 49 69
        E 0 90 61 69
        E 120 80 19 00
        E 0 80 31 00
        E 0 80 49 00
        E 0 80 61 00
        E 120 90 31 69
        E 0 90 49 69
        E 0 90 61 69
        E 120 80 31 00
        E 0 80 49 00
        E 0 80 61 00
        E 120 90 19 69
        E 0 90 31 69
        E 0 90 49 69
        E 0 90 61 69
        E 120 80 19 00
        E 0 80 31 00
        E 0 80 49 00
        E 0 80 61 00
        E 120 90 48 69
        E 0 90 60 69
        E 360 80 74 00
        E 0 80 48 00
        E 0 80 60 00
        E 120 90 30 69
        E 0 90 48 69
        E 0 90 60 69
        E 120 80 30 00
        E 0 80 48 00
        E 0 80 60 00
        E 120 90 18 69
        E 0 90 30 69
        E 0 90 48 69
        E 0 90 60 69
        E 120 80 18 00
        E 0 80 30 00
        E 0 80 48 00
        E 0 80 60 00
        E 120 90 30 69
        E 0 90 48 69
        E 0 90 60 69
        E 120 80 30 00
        E 0 80 48 00
        E 0 80 60 00
        E 120 90 18 69
        E 0 90 30 69
        E 0 90 48 69
        E 0 90 60 69
        E 120 80 18 00
        E 0 80 30 00
        E 0 80 48 00
        E 0 80 60 00
        E 120 90 30 69
        E 0 90 48 69
        E 0 90 60 69
        E 120 80 30 00
        E 0 80 48 00
        E 0 80 60 00
        E 120 90 30 69
        E 0 90 48 69
        E 0 90 60 69
        E 120 80 30 00
        E 0 80 48 00
        E 0 80 60 00
        E 120 90 48 69
        E 0 90 60 69
        E 120 80 48 00
        E 0 80 60 00
        E 120 90 19 67
        E 0 90 31 67
        E 0 90 49 67
        E 0 90 61 67
        E 120 80 19 00
        E 0 80 31 00
        E 0 80 49 00
        E 0 80 61 00
        E 120 90 31 67
        E 0 90 49 67
        E 0 90 61 67
        E 120 80 31 00
        E 0 80 49 00
        E 0 80 61 00
        E 120 90 19 67
        E 0 90 31 67
        E 0 90 49 67
        E 0 90 61 67
        E 120 80 19 00
        E 0 80 31 00
        E 0 80 49 00
        E 0 80 61 00
        E 120 90 31 67
        E 0 90 49 67
        E 0 90 61 67
        E 120 80 31 00
        E 0 80 49 00
        E 0 80 61 00
        E 120 90 19 67
        E 0 90 31 67
        E 0 90 49 67
        E 0 90 61 67
        E 120 80 19 00
        E 0 80 31 00
        E 0 80 49 00
        E 0 80 61 00
        E 120 90 31 67
        E 0 90 49 67
        E 0 90 61 67
        E 120 80 31 00
        E 0 80 49 00
        E 0 80 61 00
        E 120 90 19 67
        E 0 90 31 67
        E 0 90 49 67
        E 0 90 61 67
        E 120 80 19 00
        E 0 80 31 00
        E 0 80 49 00
        E 0 80 61 00
        E 120 90 31 67
        E 0 90 49 67
        E 0 90 61 67
        E 120 80 31 00
        E 0 80 49 00
        E 0 80 61 00
        E 120 90 19 67
        E 0 90 31 67
        E 0 90 49 67
        E 0 90 61 67
        E 120 80 19 00
        E 0 80 31 00
        E 0 80 49 00
        E 0 80 61 00
        E 120 90 31 67
        E 0 90 49 67
        E 0 90 61 67
        E 120 80 31 00
        E 0 80 49 00
        E 0 80 61 00
        E 120 90 19 67
        E 0 90 31 67
        E 0 90 49 67
        E 0 90 61 67
        E 120 80 19 00
        E 0 80 31 00
        E 0 80 49 00
        E 0 80 61 00
        E 120 90 31 67
        E 0 90 49 67
        E 0 90 61 67
        E 120 80 31 00
        E 0 80 49 00
        E 0 80 61 00
        E 120 90 19 67
        E 0 90 31 67
        E 0 90 49 67
        E 0 90 61 67
        E 120 80 19 00
        E 0 80 31 00
        E 0 80 49 00
        E 0 80 61 00
        E 120 90 31 67
        E 0 90 49 67
        E 0 90 61 67
        E 120 80 31 00
        E 0 80 49 00
        E 0 80 61 00
        E 120 90 31 67
        E 0 90 49 67
        E 0 90 61 67
        E 120 80 31 00
        E 0 80 49 00
        E 0 80 61 00
        E 120 90 49 67
        E 0 90 61 67
        E 120 80 49 00
        E 0 80 61 00
        <X 120 0
          /wFbZW5kX3BiIHNvbmdfdHJhaW5lcl9wYl8xXQ==
        >
        E 0 90 19 69
        E 0 90 31 69
        E 0 90 49 69
        E 0 90 61 69
        E 120 80 19 00
        E 0 80 31 00
        E 0 80 49 00
        E 0 80 61 00
        E 120 90 31 69
        E 0 90 49 69
        E 0 90 61 69
        E 120 80 31 00
        E 0 80 49 00
        E 0 80 61 00
        E 120 90 19 69
        E 0 90 31 69
        E 0 90 49 69
        E 0 90 61 69
        E 120 80 19 00
        E 0 80 31 00
        E 0 80 49 00
        E 0 80 61 00
        E 120 90 31 69
        E 0 90 49 69
        E 0 90 61 69
        E 120 80 31 00
        E 0 80 49 00
        E 0 80 61 00
        E 120 90 19 69
        E 0 90 31 69
        E 0 90 49 69
        E 0 90 61 69
        E 120 80 19 00
        E 0 80 31 00
        E 0 80 49 00
        E 0 80 61 00
        E 120 90 31 69
        E 0 90 49 69
        E 0 90 61 69
        E 120 80 31 00
        E 0 80 49 00
        E 0 80 61 00
        E 120 90 19 69
        E 0 90 31 69
        E 0 90 49 69
        E 0 90 61 69
        E 120 80 19 00
        E 0 80 31 00
        E 0 80 49 00
        E 0 80 61 00
        E 120 90 48 69
        E 0 90 60 69
        E 360 80 48 00
        E 0 80 60 00
        E 120 90 30 69
        E 0 90 48 69
        E 0 90 60 69
        E 120 80 30 00
        E 0 80 48 00
        E 0 80 60 00
        E 120 90 18 69
        E 0 90 30 69
        E 0 90 48 69
        E 0 90 60 69
        E 120 80 18 00
        E 0 80 30 00
        E 0 80 48 00
        E 0 80 60 00
        E 120 90 30 69
        E 0 90 48 69
        E 0 90 60 69
        E 120 80 30 00
        E 0 80 48 00
        E 0 80 60 00
        E 120 90 18 69
        E 0 90 30 69
        E 0 90 48 69
        E 0 90 60 69
        E 120 80 18 00
        E 0 80 30 00
        E 0 80 48 00
        E 0 80 60 00
        E 120 90 30 69
        E 0 90 48 69
        E 0 90 60 69
        E 120 80 30 00
        E 0 80 48 00
        E 0 80 60 00
        E 120 90 18 69
        E 0 90 30 69
        E 0 90 48 69
        E 0 90 60 69
        E 120 80 18 00
        E 0 80 30 00
        E 0 80 48 00
        E 0 80 60 00
        E 120 90 30 69
        E 0 90 48 69
        E 0 90 60 69
        E 120 80 30 00
        E 0 80 48 00
        E 0 80 60 00
        E 120 90 18 67
        E 0 90 30 67
        E 0 90 48 67
        E 0 90 60 67
        E 120 80 18 00
        E 0 80 30 00
        E 0 80 48 00
        E 0 80 60 00
        E 120 90 30 67
        E 0 90 48 67
        E 0 90 60 67
        E 120 80 30 00
        E 0 80 48 00
        E 0 80 60 00
        E 120 90 18 67
        E 0 90 30 67
        E 0 90 48 67
        E 0 90 60 67
        E 120 80 18 00
        E 0 80 30 00
        E 0 80 48 00
        E 0 80 60 00
        E 120 90 30 67
        E 0 90 48 67
        E 0 90 60 67
        E 120 80 30 00
        E 0 80 48 00
        E 0 80 60 00
        E 120 90 18 67
        E 0 90 30 67
        E 0 90 48 67
        E 0 90 60 67
        E 120 80 18 00
        E 0 80 30 00
        E 0 80 48 00
        E 0 80 60 00
        E 120 90 48 67
        E 0 90 60 67
        E 120 80 48 00
        E 0 80 60 00
        E 120 90 18 67
        E 0 90 30 67
        E 0 90 48 67
        E 0 90 60 67
        E 120 80 18 00
        E 0 80 30 00
        E 0 80 48 00
        E 0 80 60 00
        E 120 90 30 65
        E 0 90 48 65
        E 0 90 60 65
        E 0 90 6c 65
        E 120 80 30 00
        E 0 80 6c 00
        E 240 80 48 00
        E 0 80 60 00
        E 120 90 30 65
        E 0 90 48 65
        E 0 90 60 65
        E 120 80 30 00
        E 0 80 48 00
        E 0 80 60 00
        E 120 90 18 65
        E 0 90 30 65
        E 0 90 48 65
        E 0 90 60 65
        E 120 80 18 00
        E 0 80 30 00
        E 0 80 48 00
        E 0 80 60 00
        E 120 90 30 65
        E 0 90 48 65
        E 0 90 60 65
        E 120 80 30 00
        E 0 80 48 00
        E 0 80 60 00
        E 120 90 18 65
        E 0 90 30 65
        E 0 90 48 65
        E 0 90 60 65
        E 120 80 18 00
        E 0 80 30 00
        E 0 80 48 00
        E 0 80 60 00
        E 120 90 30 65
        E 0 90 48 65
        E 0 90 60 65
        E 120 80 30 00
        E 0 80 48 00
        E 0 80 60 00
        E 120 90 30 65
        E 0 90 48 65
        E 0 90 60 65
        E 120 80 30 00
        E 0 80 48 00
        E 0 80 60 00
        E 120 90 48 65
        E 0 90 60 65
        E 120 80 48 00
        E 0 80 60 00
        E 120 90 19 69
        E 0 90 31 69
        E 0 90 49 69
        E 0 90 61 69
        E 0 90 6c 67
        E 120 80 19 00
        E 0 80 31 00
        E 0 80 49 00
        E 0 80 61 00
        E 0 80 6c 00
        E 120 90 31 69
        E 0 90 49 69
        E 0 90 61 69
        E 120 80 31 00
        E 0 80 49 00
        E 0 80 61 00
        E 120 90 19 69
        E 0 90 31 69
        E 0 90 49 69
        E 0 90 61 69
        E 120 80 19 00
        E 0 80 31 00
        E 0 80 49 00
        E 0 80 61 00
        E 120 90 31 69
        E 0 90 49 69
        E 0 90 61 69
        E 120 80 31 00
        E 0 80 49 00
        E 0 80 61 00
        E 120 90 19 69
        E 0 90 31 69
        E 0 90 49 69
        E 0 90 61 69
        E 120 80 19 00
        E 0 80 31 00
        E 0 80 49 00
        E 0 80 61 00
        E 120 90 31 69
        E 0 90 49 69
        E 0 90 61 69
        E 120 80 31 00
        E 0 80 49 00
        E 0 80 61 00
        E 120 90 19 69
        E 0 90 31 69
        E 0 90 49 69
        E 0 90 61 69
        E 120 80 19 00
        E 0 80 31 00
        E 0 80 49 00
        E 0 80 61 00
        E 120 90 48 69
        E 0 90 60 69
        E 360 80 48 00
        E 0 80 60 00
        E 120 90 30 69
        E 0 90 48 69
        E 0 90 60 69
        E 0 90 74 64
        E 120 80 30 00
        E 0 80 48 00
        E 0 80 60 00
        E 120 90 18 69
        E 0 90 30 69
        E 0 90 48 69
        E 0 90 60 69
        E 120 80 18 00
        E 0 80 30 00
        E 0 80 48 00
        E 0 80 60 00
        E 120 90 30 69
        E 0 90 48 69
        E 0 90 60 69
        E 120 80 30 00
        E 0 80 48 00
        E 0 80 60 00
        E 120 90 18 69
        E 0 90 30 69
        E 0 90 48 69
        E 0 90 60 69
        E 120 80 18 00
        E 0 80 30 00
        E 0 80 48 00
        E 0 80 60 00
        E 120 90 30 69
        E 0 90 48 69
        E 0 90 60 69
        E 120 80 30 00
        E 0 80 48 00
        E 0 80 60 00
        E 120 90 30 69
        E 0 90 48 69
        E 0 90 60 69
        E 120 80 30 00
        E 0 80 48 00
        E 0 80 60 00
        E 120 90 48 69
        E 0 90 60 69
        E 120 80 48 00
        E 0 80 60 00
        E 120 90 19 67
        E 0 90 31 67
        E 0 90 49 67
        E 0 90 61 67
        E 120 80 74 00
        E 0 80 19 00
        E 0 80 31 00
        E 0 80 49 00
        E 0 80 61 00
        E 120 90 31 67
        E 0 90 49 67
        E 0 90 61 67
        E 120 80 31 00
        E 0 80 49 00
        E 0 80 61 00
        E 120 90 19 67
        E 0 90 31 67
        E 0 90 49 67
        E 0 90 61 67
        E 120 80 19 00
        E 0 80 31 00
        E 0 80 49 00
        E 0 80 61 00
        E 120 90 31 67
        E 0 90 49 67
        E 0 90 61 67
        E 120 80 31 00
        E 0 80 49 00
        E 0 80 61 00
        E 120 90 19 67
        E 0 90 31 67
        E 0 90 49 67
        E 0 90 61 67
        E 120 80 19 00
        E 0 80 31 00
        E 0 80 49 00
        E 0 80 61 00
        E 120 90 31 67
        E 0 90 49 67
        E 0 90 61 67
        E 120 80 31 00
        E 0 80 49 00
        E 0 80 61 00
        E 120 90 19 67
        E 0 90 31 67
        E 0 90 49 67
        E 0 90 61 67
        E 120 80 19 00
        E 0 80 31 00
        E 0 80 49 00
        E 0 80 61 00
        E 120 90 31 67
        E 0 90 49 67
        E 0 90 61 67
        E 120 80 31 00
        E 0 80 49 00
        E 0 80 61 00
        E 120 90 19 67
        E 0 90 31 67
        E 0 90 49 67
        E 0 90 61 67
        E 120 80 19 00
        E 0 80 31 00
        E 0 80 49 00
        E 0 80 61 00
        E 120 90 31 67
        E 0 90 49 67
        E 0 90 61 67
        E 120 80 31 00
        E 0 80 49 00
        E 0 80 61 00
        E 120 90 19 67
        E 0 90 31 67
        E 0 90 49 67
        E 0 90 61 67
        E 120 80 19 00
        E 0 80 31 00
        E 0 80 49 00
        E 0 80 61 00
        E 120 90 31 67
        E 0 90 49 67
        E 0 90 61 67
        E 120 80 31 00
        E 0 80 49 00
        E 0 80 61 00
        E 120 90 19 67
        E 0 90 31 67
        E 0 90 49 67
        E 0 90 61 67
        E 120 80 19 00
        E 0 80 31 00
        E 0 80 49 00
        E 0 80 61 00
        E 120 90 31 67
        E 0 90 49 67
        E 0 90 61 67
        E 120 80 31 00
        E 0 80 49 00
        E 0 80 61 00
        E 120 90 31 67
        E 0 90 49 67
        E 0 90 61 67
        E 120 80 31 00
        E 0 80 49 00
        E 0 80 61 00
        E 120 90 49 67
        E 0 90 61 67
        E 120 80 49 00
        E 0 80 61 00
        E 120 90 19 69
        E 0 90 31 69
        E 0 90 49 69
        E 0 90 61 69
        E 120 80 19 00
        E 0 80 31 00
        E 0 80 49 00
        E 0 80 61 00
        E 120 90 31 69
        E 0 90 49 69
        E 0 90 61 69
        E 120 80 31 00
        E 0 80 49 00
        E 0 80 61 00
        E 120 90 19 69
        E 0 90 31 69
        E 0 90 49 69
        E 0 90 61 69
        E 120 80 19 00
        E 0 80 31 00
        E 0 80 49 00
        E 0 80 61 00
        E 120 90 31 69
        E 0 90 49 69
        E 0 90 61 69
        E 120 80 31 00
        E 0 80 49 00
        E 0 80 61 00
        E 120 90 19 69
        E 0 90 31 69
        E 0 90 49 69
        E 0 90 61 69
        E 120 80 19 00
        E 0 80 31 00
        E 0 80 49 00
        E 0 80 61 00
        E 120 90 31 69
        E 0 90 49 69
        E 0 90 61 69
        E 120 80 31 00
        E 0 80 49 00
        E 0 80 61 00
        E 120 90 19 69
        E 0 90 31 69
        E 0 90 49 69
        E 0 90 61 69
        E 120 80 19 00
        E 0 80 31 00
        E 0 80 49 00
        E 0 80 61 00
        E 120 90 48 69
        E 0 90 60 69
        E 360 80 48 00
        E 0 80 60 00
        E 120 90 30 69
        E 0 90 48 69
        E 0 90 60 69
        E 120 80 30 00
        E 0 80 48 00
        E 0 80 60 00
        E 120 90 18 69
        E 0 90 30 69
        E 0 90 48 69
        E 0 90 60 69
        E 120 80 18 00
        E 0 80 30 00
        E 0 80 48 00
        E 0 80 60 00
        E 360 90 18 69
        E 0 90 30 69
        E 0 90 48 69
        E 0 90 60 69
        E 120 80 18 00
        E 0 80 30 00
        E 0 80 48 00
        E 0 80 60 00
        E 120 90 30 69
        E 0 90 48 69
        E 0 90 60 69
        E 120 80 30 00
        E 0 80 48 00
        E 0 80 60 00
        E 120 90 18 69
        E 0 90 30 69
        E 0 90 48 69
        E 0 90 60 69
        E 120 80 18 00
        E 0 80 30 00
        E 0 80 48 00
        E 0 80 60 00
        E 120 90 30 69
        E 0 90 48 69
        E 0 90 60 69
        E 120 80 30 00
        E 0 80 48 00
        E 0 80 60 00
        E 120 90 18 67
        E 0 90 30 67
        E 0 90 48 67
        E 0 90 60 67
        E 120 80 18 00
        E 0 80 30 00
        E 0 80 48 00
        E 0 80 60 00
        E 360 90 18 67
        E 0 90 30 67
        E 0 90 48 67
        E 0 90 60 67
        E 120 80 18 00
        E 0 80 30 00
        E 0 80 48 00
        E 0 80 60 00
        E 120 90 30 67
        E 0 90 48 67
        E 0 90 60 67
        E 120 80 30 00
        E 0 80 48 00
        E 0 80 60 00
        E 120 90 18 67
        E 0 90 30 67
        E 0 90 48 67
        E 0 90 60 67
        E 120 80 18 00
        E 0 80 30 00
        E 0 80 48 00
        E 0 80 60 00
        E 120 90 48 67
        E 0 90 60 67
        E 120 80 48 00
        E 0 80 60 00
        E 360 90 30 65
        E 0 90 48 65
        E 0 90 60 65
        E 0 90 6c 65
        E 120 80 30 00
        E 0 80 6c 00
        E 240 80 48 00
        E 0 80 60 00
        E 120 90 30 65
        E 0 90 48 65
        E 0 90 60 65
        E 120 80 30 00
        E 0 80 48 00
        E 0 80 60 00
        E 120 90 18 65
        E 0 90 30 65
        E 0 90 48 65
        E 0 90 60 65
        E 120 80 18 00
        E 0 80 30 00
        E 0 80 48 00
        E 0 80 60 00
        E 120 90 30 65
        E 0 90 48 65
        E 0 90 60 65
        E 120 80 30 00
        E 0 80 48 00
        E 0 80 60 00
        E 120 90 18 65
        E 0 90 30 65
        E 0 90 48 65
        E 0 90 60 65
        E 120 80 18 00
        E 0 80 30 00
        E 0 80 48 00
        E 0 80 60 00
        E 120 90 30 65
        E 0 90 48 65
        E 0 90 60 65
        E 120 80 30 00
        E 0 80 48 00
        E 0 80 60 00
        E 120 90 30 65
        E 0 90 48 65
        E 0 90 60 65
        E 120 80 30 00
        E 0 80 48 00
        E 0 80 60 00
        E 120 90 48 65
        E 0 90 60 65
        E 120 80 48 00
        E 0 80 60 00
        E 120 90 19 69
        E 0 90 31 69
        E 0 90 49 69
        E 0 90 61 69
        E 0 90 6c 67
        E 120 80 19 00
        E 0 80 31 00
        E 0 80 49 00
        E 0 80 61 00
        E 0 80 6c 00
        E 120 90 31 69
        E 0 90 49 69
        E 0 90 61 69
        E 120 80 31 00
        E 0 80 49 00
        E 0 80 61 00
        E 120 90 19 69
        E 0 90 31 69
        E 0 90 49 69
        E 0 90 61 69
        E 120 80 19 00
        E 0 80 31 00
        E 0 80 49 00
        E 0 80 61 00
        E 120 90 31 69
        E 0 90 49 69
        E 0 90 61 69
        E 120 80 31 00
        E 0 80 49 00
        E 0 80 61 00
        E 120 90 19 69
        E 0 90 31 69
        E 0 90 49 69
        E 0 90 61 69
        E 120 80 19 00
        E 0 80 31 00
        E 0 80 49 00
        E 0 80 61 00
        E 120 90 31 69
        E 0 90 49 69
        E 0 90 61 69
        E 120 80 31 00
        E 0 80 49 00
        E 0 80 61 00
        E 120 90 19 69
        E 0 90 31 69
        E 0 90 49 69
        E 0 90 61 69
        E 120 80 19 00
        E 0 80 31 00
        E 0 80 49 00
        E 0 80 61 00
        E 120 90 48 69
        E 0 90 60 69
        E 360 80 48 00
        E 0 80 60 00
        E 120 90 30 69
        E 0 90 48 69
        E 0 90 60 69
        E 120 80 30 00
        E 0 80 48 00
        E 0 80 60 00
        E 120 90 18 69
        E 0 90 30 69
        E 0 90 48 69
        E 0 90 60 69
        E 120 80 18 00
        E 0 80 30 00
        E 0 80 48 00
        E 0 80 60 00
        E 120 90 30 69
        E 0 90 48 69
        E 0 90 60 69
        E 120 80 30 00
        E 0 80 48 00
        E 0 80 60 00
        E 120 90 18 69
        E 0 90 30 69
        E 0 90 48 69
        E 0 90 60 69
        E 120 80 18 00
        E 0 80 30 00
        E 0 80 48 00
        E 0 80 60 00
        E 120 90 30 69
        E 0 90 48 69
        E 0 90 60 69
        E 120 80 30 00
        E 0 80 48 00
        E 0 80 60 00
        E 120 90 30 69
        E 0 90 48 69
        E 0 90 60 69
        E 120 80 30 00
        E 0 80 48 00
        E 0 80 60 00
        E 120 90 48 69
        E 0 90 60 69
        E 120 80 48 00
        E 0 80 60 00
        E 120 90 19 67
        E 0 90 31 67
        E 0 90 49 67
        E 0 90 61 67
        E 0 90 74 64
        E 120 80 19 00
        E 0 80 31 00
        E 0 80 49 00
        E 0 80 61 00
        E 120 90 31 67
        E 0 90 49 67
        E 0 90 61 67
        E 120 80 31 00
        E 0 80 49 00
        E 0 80 61 00
        E 120 90 19 67
        E 0 90 31 67
        E 0 90 49 67
        E 0 90 61 67
        E 120 80 19 00
        E 0 80 31 00
        E 0 80 49 00
        E 0 80 61 00
        E 120 90 31 67
        E 0 90 49 67
        E 0 90 61 67
        E 120 80 31 00
        E 0 80 49 00
        E 0 80 61 00
        E 120 90 19 67
        E 0 90 31 67
        E 0 90 49 67
        E 0 90 61 67
        E 120 80 19 00
        E 0 80 31 00
        E 0 80 49 00
        E 0 80 61 00
        E 120 90 31 67
        E 0 90 49 67
        E 0 90 61 67
        E 120 80 31 00
        E 0 80 49 00
        E 0 80 61 00
        E 120 90 19 67
        E 0 90 31 67
        E 0 90 49 67
        E 0 90 61 67
        E 120 80 19 00
        E 0 80 31 00
        E 0 80 49 00
        E 0 80 61 00
        E 120 90 31 67
        E 0 90 49 67
        E 0 90 61 67
        E 120 80 31 00
        E 0 80 49 00
        E 0 80 61 00
        E 120 90 19 67
        E 0 90 31 67
        E 0 90 49 67
        E 0 90 61 67
        E 120 80 19 00
        E 0 80 31 00
        E 0 80 49 00
        E 0 80 61 00
        E 120 90 31 67
        E 0 90 49 67
        E 0 90 61 67
        E 120 80 31 00
        E 0 80 49 00
        E 0 80 61 00
        E 120 90 19 67
        E 0 90 31 67
        E 0 90 49 67
        E 0 90 61 67
        E 120 80 19 00
        E 0 80 31 00
        E 0 80 49 00
        E 0 80 61 00
        E 120 90 31 67
        E 0 90 49 67
        E 0 90 61 67
        E 120 80 31 00
        E 0 80 49 00
        E 0 80 61 00
        E 120 90 19 67
        E 0 90 31 67
        E 0 90 49 67
        E 0 90 61 67
        E 120 80 19 00
        E 0 80 31 00
        E 0 80 49 00
        E 0 80 61 00
        E 120 90 31 67
        E 0 90 49 67
        E 0 90 61 67
        E 120 80 31 00
        E 0 80 49 00
        E 0 80 61 00
        E 120 90 19 67
        E 0 90 31 67
        E 0 90 49 67
        E 0 90 61 67
        E 120 80 19 00
        E 0 80 31 00
        E 0 80 49 00
        E 0 80 61 00
        E 120 90 31 67
        E 0 90 49 67
        E 0 90 61 67
        E 120 80 31 00
        E 0 80 49 00
        E 0 80 61 00
        E 120 90 19 67
        E 0 90 31 67
        E 0 90 49 67
        E 0 90 61 67
        E 120 80 74 00
        E 3720 80 19 00
        E 0 80 31 00
        E 0 80 49 00
        E 0 80 61 00
        <X 3840 0
          /wFbYmVnaW5fcGIgc29uZ190cmFpbmVyX3BiXzJd
        >
        E 0 90 18 69
        E 0 90 30 69
        E 0 90 48 69
        E 0 90 60 69
        E 120 80 18 00
        E 0 80 30 00
        E 0 80 48 00
        E 0 80 60 00
        E 120 90 30 69
        E 0 90 48 69
        E 0 90 60 69
        E 120 80 30 00
        E 0 80 48 00
        E 0 80 60 00
        E 120 90 18 69
        E 0 90 30 69
        E 0 90 48 69
        E 0 90 60 69
        E 120 80 18 00
        E 0 80 30 00
        E 0 80 48 00
        E 0 80 60 00
        E 120 90 30 69
        E 0 90 48 69
        E 0 90 60 69
        E 120 80 30 00
        E 0 80 48 00
        E 0 80 60 00
        E 120 90 18 69
        E 0 90 30 69
        E 0 90 48 69
        E 0 90 60 69
        E 120 80 18 00
        E 0 80 30 00
        E 0 80 48 00
        E 0 80 60 00
        E 120 90 30 69
        E 0 90 48 69
        E 0 90 60 69
        E 120 80 30 00
        E 0 80 48 00
        E 0 80 60 00
        E 120 90 18 69
        E 0 90 30 69
        E 0 90 48 69
        E 0 90 60 69
        E 120 80 18 00
        E 0 80 30 00
        E 0 80 48 00
        E 0 80 60 00
        E 120 90 48 69
        E 0 90 60 69
        E 120 80 48 00
        E 0 80 60 00
        <X 120 0
          /wFbcGJfbm9ybSBzb25nX3RyYWluZXJfcGJfMl0=
        >
        E 0 90 19 67
        E 0 90 31 67
        E 0 90 49 67
        E 0 90 61 67
        E 120 80 19 00
        E 0 80 31 00
        E 0 80 49 00
        E 0 80 61 00
        E 120 90 31 67
        E 0 90 49 67
        E 0 90 61 67
        E 120 80 31 00
        E 0 80 49 00
        E 0 80 61 00
        E 120 90 19 67
        E 0 90 31 67
        E 0 90 49 67
        E 0 90 61 67
        E 120 80 19 00
        E 0 80 31 00
        E 0 80 49 00
        E 0 80 61 00
        E 120 90 31 67
        E 0 90 49 67
        E 0 90 61 67
        E 120 80 31 00
        E 0 80 49 00
        E 0 80 61 00
        E 120 90 19 67
        E 0 90 31 67
        E 0 90 49 67
        E 0 90 61 67
        E 120 80 19 00
        E 0 80 31 00
        E 0 80 49 00
        E 0 80 61 00
        E 120 90 31 67
        E 0 90 49 67
        E 0 90 61 67
        E 120 80 31 00
        E 0 80 49 00
        E 0 80 61 00
        E 120 90 19 67
        E 0 90 31 67
        E 0 90 49 67
        E 0 90 61 67
        E 120 80 19 00
        E 0 80 31 00
        E 0 80 49 00
        E 0 80 61 00
        E 120 90 31 67
        E 0 90 49 67
        E 0 90 61 67
        E 120 80 31 00
        E 0 80 49 00
        E 0 80 61 00
        E 120 90 19 69
        E 0 90 31 69
        E 0 90 49 69
        E 0 90 61 69
        E 120 80 19 00
        E 0 80 31 00
        E 0 80 49 00
        E 0 80 61 00
        E 120 90 31 69
        E 0 90 49 69
        E 0 90 61 69
        E 120 80 31 00
        E 0 80 49 00
        E 0 80 61 00
        E 120 90 19 69
        E 0 90 31 69
        E 0 90 49 69
        E 0 90 61 69
        E 120 80 19 00
        E 0 80 31 00
        E 0 80 49 00
        E 0 80 61 00
        E 120 90 31 69
        E 0 90 49 69
        E 0 90 61 69
        E 120 80 31 00
        E 0 80 49 00
        E 0 80 61 00
        E 120 90 19 69
        E 0 90 31 69
        E 0 90 49 69
        E 0 90 61 69
        E 120 80 19 00
        E 0 80 31 00
        E 0 80 49 00
        E 0 80 61 00
        E 120 90 31 69
        E 0 90 49 69
        E 0 90 61 69
        E 120 80 31 00
        E 0 80 49 00
        E 0 80 61 00
        E 120 90 19 69
        E 0 90 31 69
        E 0 90 49 69
        E 0 90 61 69
        E 120 80 19 00
        E 0 80 31 00
        E 0 80 49 00
        E 0 80 61 00
        E 120 90 31 69
        E 0 90 49 69
        E 0 90 61 69
        E 120 80 31 00
        E 0 80 49 00
        E 0 80 61 00
        E 120 90 19 69
        E 0 90 31 69
        E 0 90 49 69
        E 0 90 61 69
        E 120 80 19 00
        E 0 80 31 00
        E 0 80 49 00
        E 0 80 61 00
        E 120 90 31 69
        E 0 90 49 69
        E 0 90 61 69
        E 120 80 31 00
        E 0 80 49 00
        E 0 80 61 00
        E 120 90 19 69
        E 0 90 31 69
        E 0 90 49 69
        E 0 90 61 69
        E 120 80 19 00
        E 0 80 31 00
        E 0 80 49 00
        E 0 80 61 00
        E 120 90 31 69
        E 0 90 49 69
        E 0 90 61 69
        E 120 80 31 00
        E 0 80 49 00
        E 0 80 61 00
        E 120 90 19 69
        E 0 90 31 69
        E 0 90 49 69
        E 0 90 61 69
        E 120 80 19 00
        E 0 80 31 00
        E 0 80 49 00
        E 0 80 61 00
        E 120 90 31 69
        E 0 90 49 69
        E 0 90 61 69
        E 120 80 31 00
        E 0 80 49 00
        E 0 80 61 00
        E 120 90 31 69
        E 0 90 49 69
        E 0 90 61 69
        E 120 80 31 00
        E 0 80 49 00
        E 0 80 61 00
        E 120 90 49 69
        E 0 90 61 69
        E 120 80 49 00
        E 0 80 61 00
        E 120 90 1a 67
        E 0 90 32 67
        E 0 90 4a 67
        E 0 90 62 67
        E 0 90 6c 66
        E 120 80 1a 00
        E 0 80 32 00
        E 0 80 4a 00
        E 0 80 62 00
        E 0 80 6c 00
        E 120 90 32 67
        E 0 90 4a 67
        E 0 90 62 67
        E 120 80 32 00
        E 0 80 4a 00
        E 0 80 62 00
        E 120 90 1a 67
        E 0 90 32 67
        E 0 90 4a 67
        E 0 90 62 67
        E 120 80 1a 00
        E 0 80 32 00
        E 0 80 4a 00
        E 0 80 62 00
        E 120 90 32 67
        E 0 90 4a 67
        E 0 90 62 67
        E 120 80 32 00
        E 0 80 4a 00
        E 0 80 62 00
        E 120 90 1a 67
        E 0 90 32 67
        E 0 90 4a 67
        E 0 90 62 67
        E 120 80 1a 00
        E 0 80 32 00
        E 0 80 4a 00
        E 0 80 62 00
        E 120 90 32 67
        E 0 90 4a 67
        E 0 90 62 67
        E 120 80 32 00
        E 0 80 4a 00
        E 0 80 62 00
        E 120 90 1a 67
        E 0 90 32 67
        E 0 90 4a 67
        E 0 90 62 67
        E 120 80 1a 00
        E 0 80 32 00
        E 0 80 4a 00
        E 0 80 62 00
        E 120 90 32 67
        E 0 90 4a 67
        E 0 90 62 67
        E 120 80 32 00
        E 0 80 4a 00
        E 0 80 62 00
        E 120 90 1a 67
        E 0 90 32 67
        E 0 90 4a 67
        E 0 90 62 67
        E 0 90 74 64
        E 120 80 1a 00
        E 0 80 32 00
        E 0 80 4a 00
        E 0 80 62 00
        E 120 90 32 67
        E 0 90 4a 67
        E 0 90 62 67
        E 120 80 32 00
        E 0 80 4a 00
        E 0 80 62 00
        E 120 90 1a 67
        E 0 90 32 67
        E 0 90 4a 67
        E 0 90 62 67
        E 120 80 1a 00
        E 0 80 32 00
        E 0 80 4a 00
        E 0 80 62 00
        E 120 90 32 67
        E 0 90 4a 67
        E 0 90 62 67
        E 120 80 32 00
        E 0 80 4a 00
        E 0 80 62 00
        E 120 90 1a 67
        E 0 90 32 67
        E 0 90 4a 67
        E 0 90 62 67
        E 120 80 1a 00
        E 0 80 32 00
        E 0 80 4a 00
        E 0 80 62 00
        E 120 90 32 67
        E 0 90 4a 67
        E 0 90 62 67
        E 120 80 32 00
        E 0 80 4a 00
        E 0 80 62 00
        E 120 90 32 67
        E 0 90 4a 67
        E 0 90 62 67
        E 120 80 32 00
        E 0 80 4a 00
        E 0 80 62 00
        E 120 90 4a 67
        E 0 90 62 67
        E 120 80 4a 00
        E 0 80 62 00
        E 120 80 74 00
        E 0 90 1a 66
        E 0 90 32 66
        E 0 90 4a 66
        E 0 90 62 66
        E 120 80 1a 00
        E 0 80 32 00
        E 0 80 4a 00
        E 0 80 62 00
        E 120 90 32 66
        E 0 90 4a 66
        E 0 90 62 66
        E 120 80 32 00
        E 0 80 4a 00
        E 0 80 62 00
        E 120 90 1a 66
        E 0 90 32 66
        E 0 90 4a 66
        E 0 90 62 66
        E 120 80 1a 00
        E 0 80 32 00
        E 0 80 4a 00
        E 0 80 62 00
        E 120 90 32 66
        E 0 90 4a 66
        E 0 90 62 66
        E 120 80 32 00
        E 0 80 4a 00
        E 0 80 62 00
        E 120 90 1a 66
        E 0 90 32 66
        E 0 90 4a 66
        E 0 90 62 66
        E 120 80 1a 00
        E 0 80 32 00
        E 0 80 4a 00
        E 0 80 62 00
        E 120 90 32 66
        E 0 90 4a 66
        E 0 90 62 66
        E 120 80 32 00
        E 0 80 4a 00
        E 0 80 62 00
        E 120 90 32 66
        E 0 90 4a 66
        E 0 90 62 66
        E 120 80 32 00
        E 0 80 4a 00
        E 0 80 62 00
        E 120 90 4a 66
        E 0 90 62 66
        E 120 80 4a 00
        E 0 80 62 00
        E 120 90 19 69
        E 0 90 31 69
        E 0 90 49 69
        E 0 90 61 69
        E 0 90 6c 67
        E 120 80 19 00
        E 0 80 31 00
        E 0 80 49 00
        E 0 80 61 00
        E 0 80 6c 00
        E 120 90 31 69
        E 0 90 49 69
        E 0 90 61 69
        E 120 80 31 00
        E 0 80 49 00
        E 0 80 61 00
        E 120 90 19 69
        E 0 90 31 69
        E 0 90 49 69
        E 0 90 61 69
        E 120 80 19 00
        E 0 80 31 00
        E 0 80 49 00
        E 0 80 61 00
        E 120 90 31 69
        E 0 90 49 69
        E 0 90 61 69
        E 120 80 31 00
        E 0 80 49 00
        E 0 80 61 00
        E 120 90 19 69
        E 0 90 31 69
        E 0 90 49 69
        E 0 90 61 69
        E 120 80 19 00
        E 0 80 31 00
        E 0 80 49 00
        E 0 80 61 00
        E 120 90 31 69
        E 0 90 49 69
        E 0 90 61 69
        E 120 80 31 00
        E 0 80 49 00
        E 0 80 61 00
        E 120 90 19 69
        E 0 90 31 69
        E 0 90 49 69
        E 0 90 61 69
        E 120 80 19 00
        E 0 80 31 00
        E 0 80 49 00
        E 0 80 61 00
        E 120 90 49 69
        E 0 90 61 69
        E 120 80 49 00
        E 0 80 61 00
        <X 120 0
          /wFbZW5kX3BiIHNvbmdfdHJhaW5lcl9wYl8yXQ==
        >
        E 0 90 18 69
        E 0 90 30 69
        E 0 90 48 69
        E 0 90 60 69
        E 120 80 18 00
        E 0 80 30 00
        E 0 80 48 00
        E 0 80 60 00
        E 120 90 30 69
        E 0 90 48 69
        E 0 90 60 69
        E 120 80 30 00
        E 0 80 48 00
        E 0 80 60 00
        E 120 90 18 69
        E 0 90 30 69
        E 0 90 48 69
        E 0 90 60 69
        E 120 80 18 00
        E 0 80 30 00
        E 0 80 48 00
        E 0 80 60 00
        E 120 90 30 69
        E 0 90 48 69
        E 0 90 60 69
        E 120 80 30 00
        E 0 80 48 00
        E 0 80 60 00
        E 120 90 18 69
        E 0 90 30 69
        E 0 90 48 69
        E 0 90 60 69
        E 120 80 18 00
        E 0 80 30 00
        E 0 80 48 00
        E 0 80 60 00
        E 120 90 30 69
        E 0 90 48 69
        E 0 90 60 69
        E 120 80 30 00
        E 0 80 48 00
        E 0 80 60 00
        E 120 90 18 69
        E 0 90 30 69
        E 0 90 48 69
        E 0 90 60 69
        E 120 80 18 00
        E 0 80 30 00
        E 0 80 48 00
        E 0 80 60 00
        E 120 90 48 69
        E 0 90 60 69
        E 120 80 48 00
        E 0 80 60 00
        E 120 90 19 67
        E 0 90 31 67
        E 0 90 49 67
        E 0 90 61 67
        E 120 80 19 00
        E 0 80 31 00
        E 0 80 49 00
        E 0 80 61 00
        E 120 90 31 67
        E 0 90 49 67
        E 0 90 61 67
        E 120 80 31 00
        E 0 80 49 00
        E 0 80 61 00
        E 120 90 19 67
        E 0 90 31 67
        E 0 90 49 67
        E 0 90 61 67
        E 120 80 19 00
        E 0 80 31 00
        E 0 80 49 00
        E 0 80 61 00
        E 120 90 31 67
        E 0 90 49 67
        E 0 90 61 67
        E 120 80 31 00
        E 0 80 49 00
        E 0 80 61 00
        E 120 90 19 67
        E 0 90 31 67
        E 0 90 49 67
        E 0 90 61 67
        E 120 80 19 00
        E 0 80 31 00
        E 0 80 49 00
        E 0 80 61 00
        E 120 90 31 67
        E 0 90 49 67
        E 0 90 61 67
        E 120 80 31 00
        E 0 80 49 00
        E 0 80 61 00
        E 120 90 19 67
        E 0 90 31 67
        E 0 90 49 67
        E 0 90 61 67
        E 120 80 19 00
        E 0 80 31 00
        E 0 80 49 00
        E 0 80 61 00
        E 120 90 31 67
        E 0 90 49 67
        E 0 90 61 67
        E 120 80 31 00
        E 0 80 49 00
        E 0 80 61 00
        E 120 90 19 69
        E 0 90 31 69
        E 0 90 49 69
        E 0 90 61 69
        E 120 80 19 00
        E 0 80 31 00
        E 0 80 49 00
        E 0 80 61 00
        E 120 90 31 69
        E 0 90 49 69
        E 0 90 61 69
        E 120 80 31 00
        E 0 80 49 00
        E 0 80 61 00
        E 120 90 19 69
        E 0 90 31 69
        E 0 90 49 69
        E 0 90 61 69
        E 120 80 19 00
        E 0 80 31 00
        E 0 80 49 00
        E 0 80 61 00
        E 120 90 31 69
        E 0 90 49 69
        E 0 90 61 69
        E 120 80 31 00
        E 0 80 49 00
        E 0 80 61 00
        E 120 90 19 69
        E 0 90 31 69
        E 0 90 49 69
        E 0 90 61 69
        E 120 80 19 00
        E 0 80 31 00
        E 0 80 49 00
        E 0 80 61 00
        E 120 90 31 69
        E 0 90 49 69
        E 0 90 61 69
        E 120 80 31 00
        E 0 80 49 00
        E 0 80 61 00
        E 120 90 19 69
        E 0 90 31 69
        E 0 90 49 69
        E 0 90 61 69
        E 120 80 19 00
        E 0 80 31 00
        E 0 80 49 00
        E 0 80 61 00
        E 120 90 31 69
        E 0 90 49 69
        E 0 90 61 69
        E 120 80 31 00
        E 0 80 49 00
        E 0 80 61 00
        E 120 90 19 69
        E 0 90 31 69
        E 0 90 49 69
        E 0 90 61 69
        E 120 80 19 00
        E 0 80 31 00
        E 0 80 49 00
        E 0 80 61 00
        E 120 90 31 69
        E 0 90 49 69
        E 0 90 61 69
        E 120 80 31 00
        E 0 80 49 00
        E 0 80 61 00
        E 120 90 19 69
        E 0 90 31 69
        E 0 90 49 69
        E 0 90 61 69
        E 120 80 19 00
        E 0 80 31 00
        E 0 80 49 00
        E 0 80 61 00
        E 120 90 31 69
        E 0 90 49 69
        E 0 90 61 69
        E 120 80 31 00
        E 0 80 49 00
        E 0 80 61 00
        E 120 90 19 69
        E 0 90 31 69
        E 0 90 49 69
        E 0 90 61 69
        E 120 80 19 00
        E 0 80 31 00
        E 0 80 49 00
        E 0 80 61 00
        E 120 90 31 69
        E 0 90 49 69
        E 0 90 61 69
        E 120 80 31 00
        E 0 80 49 00
        E 0 80 61 00
        E 120 90 19 69
        E 0 90 31 69
        E 0 90 49 69
        E 0 90 61 69
        E 120 80 19 00
        E 0 80 31 00
        E 0 80 49 00
        E 0 80 61 00
        E 120 90 31 69
        E 0 90 49 69
        E 0 90 61 69
        E 120 80 31 00
        E 0 80 49 00
        E 0 80 61 00
        E 15480 90 1a 67
        E 0 90 32 67
        E 0 90 4a 67
        E 0 90 62 67
        E 0 90 6c 66
        E 0 90 74 64
        E 120 80 1a 00
        E 0 80 32 00
        E 0 80 4a 00
        E 0 80 62 00
        E 0 80 6c 00
        E 120 90 32 67
        E 0 90 4a 67
        E 0 90 62 67
        E 120 80 32 00
        E 0 80 4a 00
        E 0 80 62 00
        E 120 90 1a 67
        E 0 90 32 67
        E 0 90 4a 67
        E 0 90 62 67
        E 120 80 1a 00
        E 0 80 32 00
        E 0 80 4a 00
        E 0 80 62 00
        E 120 90 32 67
        E 0 90 4a 67
        E 0 90 62 67
        E 120 80 32 00
        E 0 80 4a 00
        E 0 80 62 00
        E 120 90 1a 67
        E 0 90 32 67
        E 0 90 4a 67
        E 0 90 62 67
        E 120 80 1a 00
        E 0 80 32 00
        E 0 80 4a 00
        E 0 80 62 00
        E 120 90 32 67
        E 0 90 4a 67
        E 0 90 62 67
        E 120 80 32 00
        E 0 80 4a 00
        E 0 80 62 00
        E 120 90 1a 67
        E 0 90 32 67
        E 0 90 4a 67
        E 0 90 62 67
        E 120 80 1a 00
        E 0 80 32 00
        E 0 80 4a 00
        E 0 80 62 00
        E 120 90 32 67
        E 0 90 4a 67
        E 0 90 62 67
        E 120 80 32 00
        E 0 80 4a 00
        E 0 80 62 00
        E 120 90 1a 67
        E 0 90 32 67
        E 0 90 4a 67
        E 0 90 62 67
        E 120 80 1a 00
        E 0 80 32 00
        E 0 80 4a 00
        E 0 80 62 00
        E 120 90 32 67
        E 0 90 4a 67
        E 0 90 62 67
        E 120 80 32 00
        E 0 80 4a 00
        E 0 80 62 00
        E 120 90 1a 67
        E 0 90 32 67
        E 0 90 4a 67
        E 0 90 62 67
        E 120 80 1a 00
        E 0 80 32 00
        E 0 80 4a 00
        E 0 80 62 00
        E 120 90 32 67
        E 0 90 4a 67
        E 0 90 62 67
        E 120 80 32 00
        E 0 80 4a 00
        E 0 80 62 00
        E 120 90 1a 67
        E 0 90 32 67
        E 0 90 4a 67
        E 0 90 62 67
        E 120 80 1a 00
        E 0 80 32 00
        E 0 80 4a 00
        E 0 80 62 00
        E 120 90 32 67
        E 0 90 4a 67
        E 0 90 62 67
        E 120 80 32 00
        E 0 80 4a 00
        E 0 80 62 00
        E 120 90 32 67
        E 0 90 4a 67
        E 0 90 62 67
        E 120 80 32 00
        E 0 80 4a 00
        E 0 80 62 00
        E 120 90 4a 67
        E 0 90 62 67
        E 120 80 4a 00
        E 0 80 62 00
        E 120 80 74 00
        E 0 90 1a 66
        E 0 90 32 66
        E 0 90 4a 66
        E 0 90 62 66
        E 120 80 1a 00
        E 0 80 32 00
        E 0 80 4a 00
        E 0 80 62 00
        E 120 90 32 66
        E 0 90 4a 66
        E 0 90 62 66
        E 120 80 32 00
        E 0 80 4a 00
        E 0 80 62 00
        E 120 90 1a 66
        E 0 90 32 66
        E 0 90 4a 66
        E 0 90 62 66
        E 120 80 1a 00
        E 0 80 32 00
        E 0 80 4a 00
        E 0 80 62 00
        E 120 90 32 66
        E 0 90 4a 66
        E 0 90 62 66
        E 120 80 32 00
        E 0 80 4a 00
        E 0 80 62 00
        E 120 90 1a 66
        E 0 90 32 66
        E 0 90 4a 66
        E 0 90 62 66
        E 120 80 1a 00
        E 0 80 32 00
        E 0 80 4a 00
        E 0 80 62 00
        E 120 90 32 66
        E 0 90 4a 66
        E 0 90 62 66
        E 120 80 32 00
        E 0 80 4a 00
        E 0 80 62 00
        E 120 90 32 66
        E 0 90 4a 66
        E 0 90 62 66
        E 120 80 32 00
        E 0 80 4a 00
        E 0 80 62 00
        E 120 90 4a 66
        E 0 90 62 66
        E 120 80 4a 00
        E 0 80 62 00
        E 120 90 1a 64
        E 0 90 32 64
        E 0 90 4a 64
        E 0 90 62 64
        E 120 80 1a 00
        E 0 80 32 00
        E 0 80 4a 00
        E 0 80 62 00
        E 120 90 32 64
        E 0 90 4a 64
        E 0 90 62 64
        E 120 80 32 00
        E 0 80 4a 00
        E 0 80 62 00
        E 120 90 1a 64
        E 0 90 32 64
        E 0 90 4a 64
        E 0 90 62 64
        E 120 80 1a 00
        E 0 80 32 00
        E 0 80 4a 00
        E 0 80 62 00
        E 120 90 32 64
        E 0 90 4a 64
        E 0 90 62 64
        E 120 80 32 00
        E 0 80 4a 00
        E 0 80 62 00
        E 120 90 1a 64
        E 0 90 32 64
        E 0 90 4a 64
        E 0 90 62 64
        E 120 80 1a 00
        E 0 80 32 00
        E 0 80 4a 00
        E 0 80 62 00
        E 120 90 32 64
        E 0 90 4a 64
        E 0 90 62 64
        E 120 80 32 00
        E 0 80 4a 00
        E 0 80 62 00
        E 120 90 32 64
        E 0 90 4a 64
        E 0 90 62 64
        E 120 80 32 00
        E 0 80 4a 00
        E 0 80 62 00
        E 120 90 4a 64
        E 0 90 4f 64
        E 0 90 62 64
        E 0 90 67 64
        E 120 80 4a 00
        E 0 80 4f 00
        E 0 80 62 00
        E 0 80 67 00
        E 120 90 1a 67
        E 0 90 32 67
        E 0 90 4a 67
        E 0 90 4e 64
        E 0 90 62 67
        E 0 90 66 64
        E 120 80 1a 00
        E 0 80 32 00
        E 0 80 4a 00
        E 0 80 4e 00
        E 0 80 62 00
        E 0 80 66 00
        E 120 90 32 67
        E 0 90 4a 67
        E 0 90 62 67
        E 120 80 32 00
        E 0 80 4a 00
        E 0 80 62 00
        E 120 90 1a 67
        E 0 90 32 67
        E 0 90 4a 67
        E 0 90 62 67
        E 120 80 1a 00
        E 0 80 32 00
        E 0 80 4a 00
        E 0 80 62 00
        E 120 90 32 67
        E 0 90 4a 67
        E 0 90 62 67
        E 120 80 32 00
        E 0 80 4a 00
        E 0 80 62 00
        E 120 90 1a 67
        E 0 90 32 67
        E 0 90 4a 67
        E 0 90 62 67
        E 120 80 1a 00
        E 0 80 32 00
        E 0 80 4a 00
        E 0 80 62 00
        E 120 90 32 67
        E 0 90 4a 67
        E 0 90 62 67
        E 120 80 32 00
        E 0 80 4a 00
        E 0 80 62 00
        E 120 90 1a 67
        E 0 90 32 67
        E 0 90 4a 67
        E 0 90 62 67
        E 120 80 1a 00
        E 0 80 32 00
        E 0 80 4a 00
        E 0 80 62 00
        E 120 90 32 67
        E 0 90 4a 67
        E 0 90 62 67
        E 120 80 32 00
        E 0 80 4a 00
        E 0 80 62 00
        E 120 90 1a 67
        E 0 90 32 67
        E 0 90 4a 67
        E 0 90 62 67
        E 120 80 1a 00
        E 0 80 32 00
        E 0 80 4a 00
        E 0 80 62 00
        E 120 90 32 67
        E 0 90 4a 67
        E 0 90 62 67
        E 120 80 32 00
        E 0 80 4a 00
        E 0 80 62 00
        E 120 90 1a 67
        E 0 90 32 67
        E 0 90 4a 67
        E 0 90 62 67
        E 120 80 1a 00
        E 0 80 32 00
        E 0 80 4a 00
        E 0 80 62 00
        E 120 90 32 67
        E 0 90 4a 67
        E 0 90 62 67
        E 120 80 32 00
        E 0 80 4a 00
        E 0 80 62 00
        E 120 90 1a 67
        E 0 90 32 67
        E 0 90 4a 67
        E 0 90 62 67
        E 120 80 1a 00
        E 0 80 32 00
        E 0 80 4a 00
        E 0 80 62 00
        E 120 90 32 67
        E 0 90 4a 67
        E 0 90 62 67
        E 120 80 32 00
        E 0 80 4a 00
        E 0 80 62 00
        E 120 90 32 67
        E 0 90 4a 67
        E 0 90 62 67
        E 120 80 32 00
        E 0 80 4a 00
        E 0 80 62 00
        E 120 90 4a 67
        E 0 90 62 67
        E 120 80 4a 00
        E 0 80 62 00
        E 120 90 1a 66
        E 0 90 32 66
        E 0 90 4a 66
        E 0 90 62 66
        E 120 80 1a 00
        E 0 80 32 00
        E 0 80 4a 00
        E 0 80 62 00
        E 120 90 32 66
        E 0 90 4a 66
        E 0 90 62 66
        E 120 80 32 00
        E 0 80 4a 00
        E 0 80 62 00
        E 120 90 1a 66
        E 0 90 32 66
        E 0 90 4a 66
        E 0 90 62 66
        E 120 80 1a 00
        E 0 80 32 00
        E 0 80 4a 00
        E 0 80 62 00
        E 120 90 32 66
        E 0 90 4a 66
        E 0 90 62 66
        E 120 80 32 00
        E 0 80 4a 00
        E 0 80 62 00
        E 120 90 1a 66
        E 0 90 32 66
        E 0 90 4a 66
        E 0 90 62 66
        E 120 80 1a 00
        E 0 80 32 00
        E 0 80 4a 00
        E 0 80 62 00
        E 120 90 32 66
        E 0 90 4a 66
        E 0 90 62 66
        E 120 80 32 00
        E 0 80 4a 00
        E 0 80 62 00
        E 120 90 32 66
        E 0 90 4a 66
        E 0 90 62 66
        E 120 80 32 00
        E 0 80 4a 00
        E 0 80 62 00
        E 120 90 4a 66
        E 0 90 62 66
        E 120 80 4a 00
        E 0 80 62 00
        E 120 90 1a 64
        E 0 90 32 64
        E 0 90 4a 64
        E 0 90 62 64
        E 120 80 1a 00
        E 0 80 32 00
        E 0 80 4a 00
        E 0 80 62 00
        E 120 90 32 64
        E 0 90 4a 64
        E 0 90 62 64
        E 120 80 32 00
        E 0 80 4a 00
        E 0 80 62 00
        E 120 90 1a 64
        E 0 90 32 64
        E 0 90 4a 64
        E 0 90 62 64
        E 120 80 1a 00
        E 0 80 32 00
        E 0 80 4a 00
        E 0 80 62 00
        E 120 90 32 64
        E 0 90 4a 64
        E 0 90 62 64
        E 120 80 32 00
        E 0 80 4a 00
        E 0 80 62 00
        E 120 90 1a 64
        E 0 90 32 64
        E 0 90 4a 64
        E 0 90 62 64
        E 120 80 1a 00
        E 0 80 32 00
        E 0 80 4a 00
        E 0 80 62 00
        E 120 90 32 64
        E 0 90 4a 64
        E 0 90 62 64
        E 120 80 32 00
        E 0 80 4a 00
        E 0 80 62 00
        E 120 90 32 64
        E 0 90 4a 64
        E 0 90 62 64
        E 120 80 32 00
        E 0 80 4a 00
        E 0 80 62 00
        E 120 90 4a 64
        E 0 90 4f 64
        E 0 90 62 64
        E 0 90 67 64
        E 120 80 4a 00
        E 0 80 4f 00
        E 0 80 62 00
        E 0 80 67 00
        <X 120 0
          /wFbYmVnaW5fcGIgc29uZ190cmFpbmVyX3BiXzNd
        >
        E 0 90 1a 67
        E 0 90 32 67
        E 0 90 4a 67
        E 0 90 4e 64
        E 0 90 62 67
        E 0 90 66 64
        E 120 80 1a 00
        E 0 80 32 00
        E 0 80 4a 00
        E 0 80 4e 00
        E 0 80 62 00
        E 0 80 66 00
        E 120 90 32 67
        E 0 90 4a 67
        E 0 90 62 67
        E 120 80 32 00
        E 0 80 4a 00
        E 0 80 62 00
        E 120 90 1a 67
        E 0 90 32 67
        E 0 90 4a 67
        E 0 90 62 67
        E 120 80 1a 00
        E 0 80 32 00
        E 0 80 4a 00
        E 0 80 62 00
        E 120 90 32 67
        E 0 90 4a 67
        E 0 90 62 67
        E 120 80 32 00
        E 0 80 4a 00
        E 0 80 62 00
        <X 120 0
          /wFbcGJfbm9ybSBzb25nX3RyYWluZXJfcGJfM10=
        >
        E 0 90 1a 67
        E 0 90 32 67
        E 0 90 4a 67
        E 0 90 62 67
        E 120 80 1a 00
        E 0 80 32 00
        E 0 80 4a 00
        E 0 80 62 00
        E 120 90 32 67
        E 0 90 4a 67
        E 0 90 62 67
        E 120 80 32 00
        E 0 80 4a 00
        E 0 80 62 00
        E 120 90 1a 67
        E 0 90 32 67
        E 0 90 4a 67
        E 0 90 62 67
        E 120 80 1a 00
        E 0 80 32 00
        E 0 80 4a 00
        E 0 80 62 00
        E 120 90 32 67
        E 0 90 4a 67
        E 0 90 62 67
        E 120 80 32 00
        E 0 80 4a 00
        E 0 80 62 00
        E 120 90 1a 67
        E 0 90 32 67
        E 0 90 4a 67
        E 0 90 62 67
        E 120 80 1a 00
        E 0 80 32 00
        E 0 80 4a 00
        E 0 80 62 00
        E 120 90 32 67
        E 0 90 4a 67
        E 0 90 62 67
        E 120 80 32 00
        E 0 80 4a 00
        E 0 80 62 00
        E 120 90 1a 67
        E 0 90 32 67
        E 0 90 4a 67
        E 0 90 62 67
        E 120 80 1a 00
        E 0 80 32 00
        E 0 80 4a 00
        E 0 80 62 00
        E 120 90 32 67
        E 0 90 4a 67
        E 0 90 62 67
        E 120 80 32 00
        E 0 80 4a 00
        E 0 80 62 00
        E 120 90 1a 67
        E 0 90 32 67
        E 0 90 4a 67
        E 0 90 62 67
        E 120 80 1a 00
        E 0 80 32 00
        E 0 80 4a 00
        E 0 80 62 00
        E 120 90 32 67
        E 0 90 4a 67
        E 0 90 62 67
        E 120 80 32 00
        E 0 80 4a 00
        E 0 80 62 00
        E 120 90 32 67
        E 0 90 4a 67
        E 0 90 62 67
        E 120 80 32 00
        E 0 80 4a 00
        E 0 80 62 00
        E 120 90 4a 67
        E 0 90 62 67
        E 120 80 4a 00
        E 0 80 62 00
        E 120 90 1a 66
        E 0 90 32 66
        E 0 90 4a 66
        E 0 90 62 66
        E 120 80 1a 00
        E 0 80 32 00
        E 0 80 4a 00
        E 0 80 62 00
        E 120 90 32 66
        E 0 90 4a 66
        E 0 90 62 66
        E 120 80 32 00
        E 0 80 4a 00
        E 0 80 62 00
        E 120 90 1a 66
        E 0 90 32 66
        E 0 90 4a 66
        E 0 90 62 66
        E 120 80 1a 00
        E 0 80 32 00
        E 0 80 4a 00
        E 0 80 62 00
        E 120 90 32 66
        E 0 90 4a 66
        E 0 90 62 66
        E 120 80 32 00
        E 0 80 4a 00
        E 0 80 62 00
        E 120 90 1a 66
        E 0 90 32 66
        E 0 90 4a 66
        E 0 90 62 66
        E 120 80 1a 00
        E 0 80 32 00
        E 0 80 4a 00
        E 0 80 62 00
        E 120 90 32 66
        E 0 90 4a 66
        E 0 90 62 66
        E 120 80 32 00
        E 0 80 4a 00
        E 0 80 62 00
        E 120 90 32 66
        E 0 90 4a 66
        E 0 90 62 66
        E 120 80 32 00
        E 0 80 4a 00
        E 0 80 62 00
        E 120 90 4a 66
        E 0 90 62 66
        E 120 80 4a 00
        E 0 80 62 00
        E 120 90 1a 64
        E 0 90 32 64
        E 0 90 4a 64
        E 0 90 62 64
        E 120 80 1a 00
        E 0 80 32 00
        E 0 80 4a 00
        E 0 80 62 00
        E 120 90 32 64
        E 0 90 4a 64
        E 0 90 62 64
        E 120 80 32 00
        E 0 80 4a 00
        E 0 80 62 00
        E 120 90 1a 64
        E 0 90 32 64
        E 0 90 4a 64
        E 0 90 62 64
        E 120 80 1a 00
        E 0 80 32 00
        E 0 80 4a 00
        E 0 80 62 00
        E 120 90 32 64
        E 0 90 4a 64
        E 0 90 62 64
        E 120 80 32 00
        E 0 80 4a 00
        E 0 80 62 00
        E 120 90 1a 64
        E 0 90 32 64
        E 0 90 4a 64
        E 0 90 62 64
        E 120 80 1a 00
        E 0 80 32 00
        E 0 80 4a 00
        E 0 80 62 00
        E 120 90 32 64
        E 0 90 4a 64
        E 0 90 62 64
        E 120 80 32 00
        E 0 80 4a 00
        E 0 80 62 00
        E 120 90 32 64
        E 0 90 4a 64
        E 0 90 62 64
        E 120 80 32 00
        E 0 80 4a 00
        E 0 80 62 00
        E 120 90 4a 64
        E 0 90 4f 64
        E 0 90 62 64
        E 0 90 67 64
        E 120 80 4a 00
        E 0 80 4f 00
        E 0 80 62 00
        E 0 80 67 00
        <X 120 0
          /wFbZW5kX3BiIHNvbmdfdHJhaW5lcl9wYl8zXQ==
        >
        E 0 90 1a 67
        E 0 90 32 67
        E 0 90 4a 67
        E 0 90 4e 64
        E 0 90 62 67
        E 0 90 66 64
        E 120 80 1a 00
        E 0 80 32 00
        E 0 80 4a 00
        E 0 80 4e 00
        E 0 80 62 00
        E 0 80 66 00
        E 120 90 32 67
        E 0 90 4a 67
        E 0 90 62 67
        E 120 80 32 00
        E 0 80 4a 00
        E 0 80 62 00
        E 120 90 1a 67
        E 0 90 32 67
        E 0 90 4a 67
        E 0 90 62 67
        E 120 80 1a 00
        E 0 80 32 00
        E 0 80 4a 00
        E 0 80 62 00
        E 120 90 32 67
        E 0 90 4a 67
        E 0 90 62 67
        E 120 80 32 00
        E 0 80 4a 00
        E 0 80 62 00
        E 120 90 1a 67
        E 0 90 32 67
        E 0 90 4a 67
        E 0 90 62 67
        E 120 80 1a 00
        E 0 80 32 00
        E 0 80 4a 00
        E 0 80 62 00
        E 120 90 32 67
        E 0 90 4a 67
        E 0 90 62 67
        E 120 80 32 00
        E 0 80 4a 00
        E 0 80 62 00
        E 120 90 1a 67
        E 0 90 32 67
        E 0 90 4a 67
        E 0 90 62 67
        E 120 80 1a 00
        E 0 80 32 00
        E 0 80 4a 00
        E 0 80 62 00
        E 120 90 32 67
        E 0 90 4a 67
        E 0 90 62 67
        E 120 80 32 00
        E 0 80 4a 00
        E 0 80 62 00
        E 120 90 1a 67
        E 0 90 32 67
        E 0 90 4a 67
        E 0 90 62 67
        E 120 80 1a 00
        E 0 80 32 00
        E 0 80 4a 00
        E 0 80 62 00
        E 120 90 32 67
        E 0 90 4a 67
        E 0 90 62 67
        E 120 80 32 00
        E 0 80 4a 00
        E 0 80 62 00
        E 120 90 1a 67
        E 0 90 32 67
        E 0 90 4a 67
        E 0 90 62 67
        E 120 80 1a 00
        E 0 80 32 00
        E 0 80 4a 00
        E 0 80 62 00
        E 120 90 32 67
        E 0 90 4a 67
        E 0 90 62 67
        E 120 80 32 00
        E 0 80 4a 00
        E 0 80 62 00
        E 120 90 1a 67
        E 0 90 32 67
        E 0 90 4a 67
        E 0 90 62 67
        E 120 80 1a 00
        E 0 80 32 00
        E 0 80 4a 00
        E 0 80 62 00
        E 120 90 32 67
        E 0 90 4a 67
        E 0 90 62 67
        E 120 80 32 00
        E 0 80 4a 00
        E 0 80 62 00
        E 120 90 32 67
        E 0 90 4a 67
        E 0 90 62 67
        E 120 80 32 00
        E 0 80 4a 00
        E 0 80 62 00
        E 120 90 4a 67
        E 0 90 62 67
        E 120 80 4a 00
        E 0 80 62 00
        E 120 90 1a 66
        E 0 90 32 66
        E 0 90 4a 66
        E 0 90 62 66
        E 0 90 74 64
        E 120 80 1a 00
        E 0 80 32 00
        E 0 80 4a 00
        E 0 80 62 00
        E 120 90 32 66
        E 0 90 4a 66
        E 0 90 62 66
        E 120 80 32 00
        E 0 80 4a 00
        E 0 80 62 00
        E 120 90 1a 66
        E 0 90 32 66
        E 0 90 4a 66
        E 0 90 62 66
        E 120 80 1a 00
        E 0 80 32 00
        E 0 80 4a 00
        E 0 80 62 00
        E 120 90 32 66
        E 0 90 4a 66
        E 0 90 62 66
        E 120 80 32 00
        E 0 80 4a 00
        E 0 80 62 00
        E 120 90 1a 66
        E 0 90 32 66
        E 0 90 4a 66
        E 0 90 62 66
        E 120 80 1a 00
        E 0 80 32 00
        E 0 80 4a 00
        E 0 80 62 00
        E 120 90 32 66
        E 0 90 4a 66
        E 0 90 62 66
        E 120 80 32 00
        E 0 80 4a 00
        E 0 80 62 00
        E 120 90 32 66
        E 0 90 4a 66
        E 0 90 62 66
        E 120 80 32 00
        E 0 80 4a 00
        E 0 80 62 00
        E 120 90 4a 66
        E 0 90 62 66
        E 120 80 4a 00
        E 0 80 62 00
        E 120 90 1a 64
        E 0 90 32 64
        E 0 90 4a 64
        E 0 90 62 64
        E 120 80 1a 00
        E 0 80 32 00
        E 0 80 4a 00
        E 0 80 62 00
        E 120 90 32 64
        E 0 90 4a 64
        E 0 90 62 64
        E 120 80 32 00
        E 0 80 4a 00
        E 0 80 62 00
        E 120 90 1a 64
        E 0 90 32 64
        E 0 90 4a 64
        E 0 90 62 64
        E 120 80 1a 00
        E 0 80 32 00
        E 0 80 4a 00
        E 0 80 62 00
        E 120 90 32 64
        E 0 90 4a 64
        E 0 90 62 64
        E 120 80 32 00
        E 0 80 4a 00
        E 0 80 62 00
        E 120 90 1a 64
        E 0 90 32 64
        E 0 90 4a 64
        E 0 90 62 64
        E 120 80 1a 00
        E 0 80 32 00
        E 0 80 4a 00
        E 0 80 62 00
        E 120 90 32 64
        E 0 90 4a 64
        E 0 90 62 64
        E 360 80 32 00
        E 0 80 4a 00
        E 0 80 62 00
        E 120 90 4a 64
        E 0 90 62 64
        E 120 80 4a 00
        E 0 80 62 00
        E 120 80 74 00
        E 0 90 1a 67
        E 0 90 32 67
        E 0 90 4a 67
        E 0 90 62 67
        E 120 80 1a 00
        E 0 80 32 00
        E 0 80 4a 00
        E 0 80 62 00
        E 120 90 32 67
        E 0 90 4a 67
        E 0 90 62 67
        E 120 80 32 00
        E 0 80 4a 00
        E 0 80 62 00
        E 120 90 1a 67
        E 0 90 32 67
        E 0 90 4a 67
        E 0 90 62 67
        E 120 80 1a 00
        E 0 80 32 00
        E 0 80 4a 00
        E 0 80 62 00
        E 120 90 32 67
        E 0 90 4a 67
        E 0 90 62 67
        E 120 80 32 00
        E 0 80 4a 00
        E 0 80 62 00
        E 120 90 1a 67
        E 0 90 32 67
        E 0 90 4a 67
        E 0 90 62 67
        E 120 80 1a 00
        E 0 80 32 00
        E 0 80 4a 00
        E 0 80 62 00
        E 120 90 32 67
        E 0 90 4a 67
        E 0 90 62 67
        E 120 80 32 00
        E 0 80 4a 00
        E 0 80 62 00
        E 120 90 1a 67
        E 0 90 32 67
        E 0 90 4a 67
        E 0 90 62 67
        E 120 80 1a 00
        E 0 80 32 00
        E 0 80 4a 00
        E 0 80 62 00
        E 120 90 32 67
        E 0 90 4a 67
        E 0 90 62 67
        E 120 80 32 00
        E 0 80 4a 00
        E 0 80 62 00
        E 120 90 1a 67
        E 0 90 32 67
        E 0 90 4a 67
        E 0 90 62 67
        E 120 80 1a 00
        E 0 80 32 00
        E 0 80 4a 00
        E 0 80 62 00
        E 120 90 32 67
        E 0 90 4a 67
        E 0 90 62 67
        E 120 80 32 00
        E 0 80 4a 00
        E 0 80 62 00
        E 120 90 1a 67
        E 0 90 32 67
        E 0 90 4a 67
        E 0 90 62 67
        E 120 80 1a 00
        E 0 80 32 00
        E 0 80 4a 00
        E 0 80 62 00
        E 120 90 32 67
        E 0 90 4a 67
        E 0 90 62 67
        E 120 80 32 00
        E 0 80 4a 00
        E 0 80 62 00
        E 120 90 1a 67
        E 0 90 32 67
        E 0 90 4a 67
        E 0 90 62 67
        E 120 80 1a 00
        E 0 80 32 00
        E 0 80 4a 00
        E 0 80 62 00
        E 120 90 32 67
        E 0 90 4a 67
        E 0 90 62 67
        E 120 80 32 00
        E 0 80 4a 00
        E 0 80 62 00
        E 120 90 32 67
        E 0 90 4a 67
        E 0 90 62 67
        E 120 80 32 00
        E 0 80 4a 00
        E 0 80 62 00
        E 120 90 4a 67
        E 0 90 62 67
        E 120 80 4a 00
        E 0 80 62 00
        E 120 90 1a 66
        E 0 90 32 66
        E 0 90 4a 66
        E 0 90 62 66
        E 120 80 1a 00
        E 0 80 32 00
        E 0 80 4a 00
        E 0 80 62 00
        E 120 90 32 66
        E 0 90 4a 66
        E 0 90 62 66
        E 120 80 32 00
        E 0 80 4a 00
        E 0 80 62 00
        E 120 90 1a 66
        E 0 90 32 66
        E 0 90 4a 66
        E 0 90 62 66
        E 120 80 1a 00
        E 0 80 32 00
        E 0 80 4a 00
        E 0 80 62 00
        E 120 90 32 66
        E 0 90 4a 66
        E 0 90 62 66
        E 120 80 32 00
        E 0 80 4a 00
        E 0 80 62 00
        E 120 90 1a 66
        E 0 90 32 66
        E 0 90 4a 66
        E 0 90 62 66
        E 120 80 1a 00
        E 0 80 32 00
        E 0 80 4a 00
        E 0 80 62 00
        E 120 90 32 66
        E 0 90 4a 66
        E 0 90 62 66
        E 120 80 32 00
        E 0 80 4a 00
        E 0 80 62 00
        E 120 90 32 66
        E 0 90 4a 66
        E 0 90 62 66
        E 120 80 32 00
        E 0 80 4a 00
        E 0 80 62 00
        E 120 90 4a 66
        E 0 90 62 66
        E 120 80 4a 00
        E 0 80 62 00
        E 120 90 1a 64
        E 0 90 32 64
        E 0 90 4a 64
        E 0 90 62 64
        E 120 80 1a 00
        E 0 80 32 00
        E 0 80 4a 00
        E 0 80 62 00
        E 120 90 32 64
        E 0 90 4a 64
        E 0 90 62 64
        E 120 80 32 00
        E 0 80 4a 00
        E 0 80 62 00
        E 120 90 1a 64
        E 0 90 32 64
        E 0 90 4a 64
        E 0 90 62 64
        E 120 80 1a 00
        E 0 80 32 00
        E 0 80 4a 00
        E 0 80 62 00
        E 120 90 32 64
        E 0 90 4a 64
        E 0 90 62 64
        E 120 80 32 00
        E 0 80 4a 00
        E 0 80 62 00
        E 120 90 1a 64
        E 0 90 32 64
        E 0 90 4a 64
        E 0 90 62 64
        E 120 80 1a 00
        E 0 80 32 00
        E 0 80 4a 00
        E 0 80 62 00
        E 120 90 32 64
        E 0 90 4a 64
        E 0 90 62 64
        E 360 80 32 00
        E 0 80 4a 00
        E 0 80 62 00
        E 120 90 4a 64
        E 0 90 62 64
        E 120 80 4a 00
        E 0 80 62 00
        E 120 90 1a 67
        E 0 90 32 67
        E 0 90 4a 67
        E 0 90 62 67
        E 120 80 1a 00
        E 0 80 32 00
        E 0 80 4a 00
        E 0 80 62 00
        E 120 90 32 67
        E 0 90 4a 67
        E 0 90 62 67
        E 120 80 32 00
        E 0 80 4a 00
        E 0 80 62 00
        E 120 90 1a 67
        E 0 90 32 67
        E 0 90 4a 67
        E 0 90 62 67
        E 120 80 1a 00
        E 0 80 32 00
        E 0 80 4a 00
        E 0 80 62 00
        E 120 90 32 67
        E 0 90 4a 67
        E 0 90 62 67
        E 120 80 32 00
        E 0 80 4a 00
        E 0 80 62 00
        E 120 90 1a 67
        E 0 90 32 67
        E 0 90 4a 67
        E 0 90 62 67
        E 120 80 1a 00
        E 0 80 32 00
        E 0 80 4a 00
        E 0 80 62 00
        E 120 90 32 67
        E 0 90 4a 67
        E 0 90 62 67
        E 120 80 32 00
        E 0 80 4a 00
        E 0 80 62 00
        E 120 90 1a 67
        E 0 90 32 67
        E 0 90 4a 67
        E 0 90 62 67
        E 120 80 1a 00
        E 0 80 32 00
        E 0 80 4a 00
        E 0 80 62 00
        E 120 90 32 67
        E 0 90 4a 67
        E 0 90 62 67
        E 120 80 32 00
        E 0 80 4a 00
        E 0 80 62 00
        E 120 90 1a 67
        E 0 90 32 67
        E 0 90 4a 67
        E 0 90 62 67
        E 0 90 74 64
        E 120 80 1a 00
        E 0 80 32 00
        E 0 80 4a 00
        E 0 80 62 00
        E 120 90 32 67
        E 0 90 4a 67
        E 0 90 62 67
        E 120 80 32 00
        E 0 80 4a 00
        E 0 80 62 00
        E 120 90 1a 67
        E 0 90 32 67
        E 0 90 4a 67
        E 0 90 62 67
        E 120 80 1a 00
        E 0 80 32 00
        E 0 80 4a 00
        E 0 80 62 00
        E 120 90 32 67
        E 0 90 4a 67
        E 0 90 62 67
        E 120 80 32 00
        E 0 80 4a 00
        E 0 80 62 00
        E 120 90 1a 67
        E 0 90 32 67
        E 0 90 4a 67
        E 0 90 62 67
        E 120 80 1a 00
        E 0 80 32 00
        E 0 80 4a 00
        E 0 80 62 00
        E 120 90 32 67
        E 0 90 4a 67
        E 0 90 62 67
        E 120 80 32 00
        E 0 80 4a 00
        E 0 80 62 00
        E 120 90 32 67
        E 0 90 4a 67
        E 0 90 62 67
        E 120 80 32 00
        E 0 80 4a 00
        E 0 80 62 00
        E 120 90 4a 67
        E 0 90 62 67
        E 120 80 4a 00
        E 0 80 62 00
        E 120 80 74 00
        E 0 90 1a 66
        E 0 90 32 66
        E 0 90 4a 66
        E 0 90 62 66
        E 120 80 1a 00
        E 0 80 32 00
        E 0 80 4a 00
        E 0 80 62 00
        E 120 90 32 66
        E 0 90 4a 66
        E 0 90 62 66
        E 120 80 32 00
        E 0 80 4a 00
        E 0 80 62 00
        E 120 90 1a 66
        E 0 90 32 66
        E 0 90 4a 66
        E 0 90 62 66
        E 120 80 1a 00
        E 0 80 32 00
        E 0 80 4a 00
        E 0 80 62 00
        E 120 90 32 66
        E 0 90 4a 66
        E 0 90 62 66
        E 120 80 32 00
        E 0 80 4a 00
        E 0 80 62 00
        E 120 90 1a 66
        E 0 90 32 66
        E 0 90 4a 66
        E 0 90 62 66
        E 120 80 1a 00
        E 0 80 32 00
        E 0 80 4a 00
        E 0 80 62 00
        E 120 90 32 66
        E 0 90 4a 66
        E 0 90 62 66
        E 120 80 32 00
        E 0 80 4a 00
        E 0 80 62 00
        E 120 90 32 66
        E 0 90 4a 66
        E 0 90 62 66
        E 120 80 32 00
        E 0 80 4a 00
        E 0 80 62 00
        E 120 90 4a 66
        E 0 90 62 66
        E 120 80 4a 00
        E 0 80 62 00
        E 120 90 1a 64
        E 0 90 32 64
        E 0 90 4a 64
        E 0 90 62 64
        E 120 80 1a 00
        E 0 80 32 00
        E 0 80 4a 00
        E 0 80 62 00
        E 120 90 32 64
        E 0 90 4a 64
        E 0 90 62 64
        E 120 80 32 00
        E 0 80 4a 00
        E 0 80 62 00
        E 120 90 1a 64
        E 0 90 32 64
        E 0 90 4a 64
        E 0 90 62 64
        E 120 80 1a 00
        E 0 80 32 00
        E 0 80 4a 00
        E 0 80 62 00
        E 120 90 32 64
        E 0 90 4a 64
        E 0 90 62 64
        E 120 80 32 00
        E 0 80 4a 00
        E 0 80 62 00
        E 120 90 1a 64
        E 0 90 32 64
        E 0 90 4a 64
        E 0 90 62 64
        E 120 80 1a 00
        E 0 80 32 00
        E 0 80 4a 00
        E 0 80 62 00
        E 120 90 32 64
        E 0 90 4a 64
        E 0 90 62 64
        E 120 80 32 00
        E 0 80 4a 00
        E 0 80 62 00
        E 120 90 32 64
        E 0 90 4a 64
        E 0 90 62 64
        E 120 80 32 00
        E 0 80 4a 00
        E 0 80 62 00
        E 120 90 4a 64
        E 0 90 4f 64
        E 0 90 62 64
        E 0 90 67 64
        E 120 80 4a 00
        E 0 80 4f 00
        E 0 80 62 00
        E 0 80 67 00
        E 120 90 1a 67
        E 0 90 32 67
        E 0 90 4a 67
        E 0 90 4e 64
        E 0 90 62 67
        E 0 90 66 66
        E 120 80 1a 00
        E 0 80 32 00
        E 0 80 4a 00
        E 0 80 4e 00
        E 0 80 62 00
        E 0 80 66 00
        E 120 90 32 67
        E 0 90 4a 67
        E 0 90 62 67
        E 120 80 32 00
        E 0 80 4a 00
        E 0 80 62 00
        E 120 90 1a 67
        E 0 90 32 67
        E 0 90 4a 67
        E 0 90 62 67
        E 120 80 1a 00
        E 0 80 32 00
        E 0 80 4a 00
        E 0 80 62 00
        E 120 90 32 67
        E 0 90 4a 67
        E 0 90 62 67
        E 120 80 32 00
        E 0 80 4a 00
        E 0 80 62 00
        E 120 90 1a 67
        E 0 90 32 67
        E 0 90 4a 67
        E 0 90 62 67
        E 120 80 1a 00
        E 0 80 32 00
        E 0 80 4a 00
        E 0 80 62 00
        E 120 90 32 67
        E 0 90 4a 67
        E 0 90 62 67
        E 120 80 32 00
        E 0 80 4a 00
        E 0 80 62 00
        E 120 90 1a 67
        E 0 90 32 67
        E 0 90 4a 67
        E 0 90 62 67
        E 120 80 1a 00
        E 0 80 32 00
        E 0 80 4a 00
        E 0 80 62 00
        E 120 90 32 67
        E 0 90 4a 67
        E 0 90 62 67
        E 120 80 32 00
        E 0 80 4a 00
        E 0 80 62 00
        E 120 90 1a 67
        E 0 90 32 67
        E 0 90 4a 67
        E 0 90 62 67
        E 120 80 1a 00
        E 0 80 32 00
        E 0 80 4a 00
        E 0 80 62 00
        E 120 90 32 67
        E 0 90 4a 67
        E 0 90 62 67
        E 120 80 32 00
        E 0 80 4a 00
        E 0 80 62 00
        E 120 90 1a 67
        E 0 90 32 67
        E 0 90 4a 67
        E 0 90 62 67
        E 120 80 1a 00
        E 0 80 32 00
        E 0 80 4a 00
        E 0 80 62 00
        E 120 90 32 67
        E 0 90 4a 67
        E 0 90 62 67
        E 120 80 32 00
        E 0 80 4a 00
        E 0 80 62 00
        E 120 90 1a 67
        E 0 90 32 67
        E 0 90 4a 67
        E 0 90 62 67
        E 120 80 1a 00
        E 0 80 32 00
        E 0 80 4a 00
        E 0 80 62 00
        E 120 90 32 67
        E 0 90 4a 67
        E 0 90 62 67
        E 120 80 32 00
        E 0 80 4a 00
        E 0 80 62 00
        E 120 90 32 67
        E 0 90 4a 67
        E 0 90 62 67
        E 120 80 32 00
        E 0 80 4a 00
        E 0 80 62 00
        E 120 90 4a 67
        E 0 90 62 67
        E 120 80 4a 00
        E 0 80 62 00
        E 120 90 1a 66
        E 0 90 32 66
        E 0 90 4a 66
        E 0 90 62 66
        E 120 80 1a 00
        E 0 80 32 00
        E 0 80 4a 00
        E 0 80 62 00
        E 120 90 32 66
        E 0 90 4a 66
        E 0 90 62 66
        E 120 80 32 00
        E 0 80 4a 00
        E 0 80 62 00
        E 120 90 1a 66
        E 0 90 32 66
        E 0 90 4a 66
        E 0 90 62 66
        E 120 80 1a 00
        E 0 80 32 00
        E 0 80 4a 00
        E 0 80 62 00
        E 120 90 32 66
        E 0 90 4a 66
        E 0 90 62 66
        E 120 80 32 00
        E 0 80 4a 00
        E 0 80 62 00
        E 120 90 1a 66
        E 0 90 32 66
        E 0 90 4a 66
        E 0 90 62 66
        E 120 80 1a 00
        E 0 80 32 00
        E 0 80 4a 00
        E 0 80 62 00
        E 120 90 32 66
        E 0 90 4a 66
        E 0 90 62 66
        E 120 80 32 00
        E 0 80 4a 00
        E 0 80 62 00
        E 120 90 32 66
        E 0 90 4a 66
        E 0 90 62 66
        E 120 80 32 00
        E 0 80 4a 00
        E 0 80 62 00
        E 120 90 4a 66
        E 0 90 62 66
        E 120 80 4a 00
        E 0 80 62 00
        E 120 90 1a 64
        E 0 90 32 64
        E 0 90 4a 64
        E 0 90 62 64
        E 120 80 1a 00
        E 0 80 32 00
        E 0 80 4a 00
        E 0 80 62 00
        E 120 90 32 64
        E 0 90 4a 64
        E 0 90 62 64
        E 120 80 32 00
        E 0 80 4a 00
        E 0 80 62 00
        E 120 90 1a 64
        E 0 90 32 64
        E 0 90 4a 64
        E 0 90 62 64
        E 120 80 1a 00
        E 0 80 32 00
        E 0 80 4a 00
        E 0 80 62 00
        E 120 90 32 64
        E 0 90 4a 64
        E 0 90 62 64
        E 120 80 32 00
        E 0 80 4a 00
        E 0 80 62 00
        E 120 90 1a 64
        E 0 90 32 64
        E 0 90 4a 64
        E 0 90 62 64
        E 120 80 1a 00
        E 0 80 32 00
        E 0 80 4a 00
        E 0 80 62 00
        E 120 90 32 64
        E 0 90 4a 64
        E 0 90 62 64
        E 360 80 32 00
        E 0 80 4a 00
        E 0 80 62 00
        E 120 90 4a 64
        E 0 90 62 64
        E 120 80 4a 00
        E 0 80 62 00
        E 120 90 1a 67
        E 0 90 32 67
        E 0 90 4a 67
        E 0 90 62 67
        E 120 80 1a 00
        E 0 80 32 00
        E 0 80 4a 00
        E 0 80 62 00
        E 120 90 32 67
        E 0 90 4a 67
        E 0 90 62 67
        E 120 80 32 00
        E 0 80 4a 00
        E 0 80 62 00
        E 120 90 1a 67
        E 0 90 32 67
        E 0 90 4a 67
        E 0 90 62 67
        E 120 80 1a 00
        E 0 80 32 00
        E 0 80 4a 00
        E 0 80 62 00
        E 120 90 32 67
        E 0 90 4a 67
        E 0 90 62 67
        E 120 80 32 00
        E 0 80 4a 00
        E 0 80 62 00
        E 120 90 1a 67
        E 0 90 32 67
        E 0 90 4a 67
        E 0 90 62 67
        E 120 80 1a 00
        E 0 80 32 00
        E 0 80 4a 00
        E 0 80 62 00
        E 120 90 32 67
        E 0 90 4a 67
        E 0 90 62 67
        E 120 80 32 00
        E 0 80 4a 00
        E 0 80 62 00
        E 120 90 1a 67
        E 0 90 32 67
        E 0 90 4a 67
        E 0 90 62 67
        E 120 80 1a 00
        E 0 80 32 00
        E 0 80 4a 00
        E 0 80 62 00
        E 120 90 32 67
        E 0 90 4a 67
        E 0 90 62 67
        E 120 80 32 00
        E 0 80 4a 00
        E 0 80 62 00
        E 120 90 1a 67
        E 0 90 32 67
        E 0 90 4a 67
        E 0 90 62 67
        E 120 80 1a 00
        E 0 80 32 00
        E 0 80 4a 00
        E 0 80 62 00
        E 120 90 32 67
        E 0 90 4a 67
        E 0 90 62 67
        E 120 80 32 00
        E 0 80 4a 00
        E 0 80 62 00
        E 120 90 1a 67
        E 0 90 32 67
        E 0 90 4a 67
        E 0 90 62 67
        E 120 80 1a 00
        E 0 80 32 00
        E 0 80 4a 00
        E 0 80 62 00
        E 120 90 32 67
        E 0 90 4a 67
        E 0 90 62 67
        E 120 80 32 00
        E 0 80 4a 00
        E 0 80 62 00
        E 120 90 1a 67
        E 0 90 32 67
        E 0 90 4a 67
        E 0 90 62 67
        E 120 80 1a 00
        E 0 80 32 00
        E 0 80 4a 00
        E 0 80 62 00
        E 120 90 32 67
        E 0 90 4a 67
        E 0 90 62 67
        E 120 80 32 00
        E 0 80 4a 00
        E 0 80 62 00
        E 120 90 32 67
        E 0 90 4a 67
        E 0 90 62 67
        E 120 80 32 00
        E 0 80 4a 00
        E 0 80 62 00
        E 120 90 4a 67
        E 0 90 62 67
        E 120 80 4a 00
        E 0 80 62 00
        E 120 90 1a 66
        E 0 90 32 66
        E 0 90 4a 66
        E 0 90 62 66
        E 120 80 1a 00
        E 0 80 32 00
        E 0 80 4a 00
        E 0 80 62 00
        E 120 90 32 66
        E 0 90 4a 66
        E 0 90 62 66
        E 120 80 32 00
        E 0 80 4a 00
        E 0 80 62 00
        E 120 90 1a 66
        E 0 90 32 66
        E 0 90 4a 66
        E 0 90 62 66
        E 120 80 1a 00
        E 0 80 32 00
        E 0 80 4a 00
        E 0 80 62 00
        E 120 90 32 66
        E 0 90 4a 66
        E 0 90 62 66
        E 120 80 32 00
        E 0 80 4a 00
        E 0 80 62 00
        E 120 90 1a 66
        E 0 90 32 66
        E 0 90 4a 66
        E 0 90 62 66
        E 120 80 1a 00
        E 0 80 32 00
        E 0 80 4a 00
        E 0 80 62 00
        E 120 90 32 66
        E 0 90 4a 66
        E 0 90 62 66
        E 120 80 32 00
        E 0 80 4a 00
        E 0 80 62 00
        E 120 90 32 66
        E 0 90 4a 66
        E 0 90 62 66
        E 120 80 32 00
        E 0 80 4a 00
        E 0 80 62 00
        E 120 90 4a 66
        E 0 90 4f 64
        E 0 90 62 66
        E 0 90 67 64
        E 120 80 4a 00
        E 0 80 4f 00
        E 0 80 62 00
        E 0 80 67 00
        E 120 90 1a 64
        E 0 90 32 64
        E 0 90 4a 64
        E 0 90 4e 64
        E 0 90 62 64
        E 0 90 66 64
        E 120 80 1a 00
        E 0 80 32 00
        E 0 80 4a 00
        E 0 80 4e 00
        E 0 80 62 00
        E 0 80 66 00
        E 120 90 32 64
        E 0 90 4a 64
        E 0 90 62 64
        E 120 80 32 00
        E 0 80 4a 00
        E 0 80 62 00
        E 120 90 1a 64
        E 0 90 32 64
        E 0 90 4a 64
        E 0 90 62 64
        E 120 80 1a 00
        E 0 80 32 00
        E 0 80 4a 00
        E 0 80 62 00
        E 120 90 32 64
        E 0 90 4a 64
        E 0 90 62 64
        E 120 80 32 00
        E 0 80 4a 00
        E 0 80 62 00
        E 120 90 1a 64
        E 0 90 32 64
        E 0 90 4a 64
        E 0 90 62 64
        E 120 80 1a 00
        E 0 80 32 00
        E 0 80 4a 00
        E 0 80 62 00
        E 120 90 32 64
        E 0 90 4a 64
        E 0 90 62 64
        E 120 80 32 00
        E 0 80 4a 00
        E 0 80 62 00
        E 120 90 32 64
        E 0 90 4a 64
        E 0 90 62 64
        E 120 80 32 00
        E 0 80 4a 00
        E 0 80 62 00
        E 120 90 4a 64
        E 0 90 62 64
        E 120 80 4a 00
        E 0 80 62 00
        E 120 90 1a 67
        E 0 90 32 67
        E 0 90 4a 67
        E 0 90 62 67
        E 9599 80 1a 00
        E 0 80 32 00
        E 0 80 4a 00
        E 0 80 62 00
        E 7680 b0 7b 00
        GUID {40312597-C218-46E9-BA49-B7D1D04EE8A1}
        IGNTEMPO 0 120.00000000 4 4
        SRCCOLOR 7
        VELLANE 132 128 60
        COLORMAP "C:\Program Files\REAPER (x64)\Data\color_maps\rockband_guitarbass.png"
        CFGEDITVIEW 158208.688472 66.456307 16 12 0 0 0
        CFGEDIT 1 1 0 1 1 0 1 1 1 1 1 0.12500000 53 44 1253 718 0 2 1 1 0.00000000 0 1 1 0 0.500000 0 0 1.000000 64
        KEYSNAP 0 7 "102030050700" 0 "Pentatonic"
        EVTFILTER 0 -1 -1 -1 -1 0 1 0 0 -1.00000000 -1.00000000
      >
    >
  >
  <TRACK '{3ADB72DA-CECA-4460-A45A-FDB4A42634D7}'
    NAME "PART REAL_GUITAR"
    PEAKCOL 16576
    BEAT -1
    AUTOMODE 0
    VOLPAN 1.00000000000000 0.00000000000000 -1.00000000000000 -1.00000000000000 1.00000000000000
    MUTESOLO 0 0 0
    IPHASE 0
    ISBUS 0 0
    BUSCOMP 0 0
    SHOWINMIX 1 0.666700 0.500000 1 0.500000 -1 -1 -1
    FREEMODE 0
    SEL 0
    REC 0 0 0 0 0 0 0
    VU 2
    TRACKHEIGHT 0 0
    INQ 0 0 0 0.5000000000 100 0 0 100
    NCHAN 2
    FX 1
    TRACKID {3ADB72DA-CECA-4460-A45A-FDB4A42634D7}
    PERF 0
    MIDIOUT -1
    <MIDINOTENAMES
      0 127 "Trill Marker"
      0 126 "Tremolo Marker"
      0 125 "BRE"
      0 124 "BRE"
      0 123 "BRE"
      0 122 "BRE"
      0 121 "BRE"
      0 120 "BRE (use all 6)"
      0 119 "-----------"
      0 116 "OVERDRIVE"
      0 115 "Solo Marker"
      0 109 "-----------"
      0 108 "Fret Hand Position"
      0 107 "Force Chord Numbering"
      0 106 "Loose Strumming"
      0 105 "Strum Direction"
      0 104 "Arpeggio Marker"
      0 103 "Slide Marker"
      0 102 "Force HOPO"
      0 101 "EXPERT e String"
      0 100 "EXPERT B String"
      0 99 "EXPERT G String"
      0 98 "EXPERT D String"
      0 97 "EXPERT A String"
      0 96 "EXPERT E String"
      0 95 "-----------"
      0 82 "Loose Strumming"
      0 81 "Strum Direction"
      0 80 "Arpeggio Marker"
      0 79 "Slide Marker"
      0 78 "Force HOPO"
      0 77 "HARD e String"
      0 76 "HARD B String"
      0 75 "HARD G String"
      0 74 "HARD D String"
      0 73 "HARD A String"
      0 72 "HARD E String"
      0 71 "-----------"
      0 58 "Loose Strumming"
      0 56 "Arpeggio Marker"
      0 55 "Slide Marker"
      0 53 "MEDIUM e String"
      0 52 "MEDIUM B String"
      0 51 "MEDIUM G String"
      0 50 "MEDIUM D String"
      0 49 "MEDIUM A String"
      0 48 "MEDIUM E String"
      0 47 "-----------"
      0 32 "Arpeggio Marker"
      0 31 "Slide Marker"
      0 29 "EASY e String"
      0 28 "EASY B String"
      0 27 "EASY G String"
      0 26 "EASY D String"
      0 25 "EASY A String"
      0 24 "EASY E String"
      0 21 "-----------"
      0 18 "Flat/Sharp Swap"
      0 17 "Hide Chord Names"
      0 16 "Slash Chord"
      0 15 "D#"
      0 14 "D"
      0 13 "C#"
      0 12 "C"
      0 11 "B"
      0 10 "A#"
      0 9 "A"
      0 8 "G#"
      0 7 "G"
      0 6 "F#"
      0 5 "F"
      0 4 "E"
    >
    MAINSEND 1 0
    <FXCHAIN
      SHOW 0
      LASTSEL 0
      DOCKED 0
    >
    <ITEM
      POSITION 0.00000000000000
      SNAPOFFS 0.00000000000000
      LENGTH 184.96834400000000
      LOOP 0
      ALLTAKES 0
      SEL 0
      FADEIN 1 0.000000 0.000000 1 0
      FADEOUT 1 0.000000 0.000000 1 0
      MUTE 0
      IGUID {222D32B9-3B68-4797-B0C4-1D876989D6E2}
      IID 6
      NAME "PART REAL_GUITAR"
      VOLPAN 1.000000 0.000000 1.000000 -1.000000
      SOFFS 0.00000000000000 0.00000000000000
      PLAYRATE 1.00000000000000 1 0.00000000000000 -1
      CHANMODE 0
      GUID {BC89D767-3241-4ED1-91CE-077DA5C25A51}
      <SOURCE MIDI
        HASDATA 1 480 QN
        POOLEDEVTS {23CA6E0E-5500-45F4-9B33-2FAD1A943DD3}
        <X 0 0
          /wNQQVJUIFJFQUxfR1VJVEFS
        >
        <X 7680 0
          /wFbYmVnaW5fcGcgc29uZ190cmFpbmVyX3BnXzFd
        >
        E 0 90 1a 67
        E 0 90 32 67
        E 0 90 4a 67
        E 0 90 62 67
        E 0 90 6c 65
        E 120 80 1a 00
        E 0 80 32 00
        E 0 80 4a 00
        E 0 80 62 00
        E 0 80 6c 00
        E 120 90 4a 67
        E 0 90 62 67
        E 120 80 4a 00
        E 0 80 62 00
        <X 120 0
          /wFbcGdfbm9ybSBzb25nX3RyYWluZXJfcGdfMV0=
        >
        E 0 90 33 64
        E 0 90 4b 64
        E 0 90 63 64
        E 120 80 33 00
        E 0 80 4b 00
        E 0 80 63 00
        E 120 90 4a 67
        E 0 90 62 67
        E 120 80 4a 00
        E 0 80 62 00
        E 120 90 1c 65
        E 0 90 34 65
        E 0 90 4c 65
        E 0 90 64 65
        E 120 80 1c 00
        E 0 80 34 00
        E 0 80 4c 00
        E 0 80 64 00
        E 120 90 4a 67
        E 0 90 62 67
        E 120 80 4a 00
        E 0 80 62 00
        E 120 90 32 67
        E 0 90 4a 67
        E 0 90 62 67
        E 120 80 32 00
        E 0 80 4a 00
        E 0 80 62 00
        E 120 90 4b 64
        E 0 90 63 64
        E 120 80 4b 00
        E 0 80 63 00
        E 120 90 1a 67
        E 0 90 32 67
        E 0 90 4a 67
        E 0 90 62 67
        E 120 80 1a 00
        E 0 80 32 00
        E 0 80 4a 00
        E 0 80 62 00
        E 120 90 4c 65
        E 0 90 64 65
        E 120 80 4c 00
        E 0 80 64 00
        E 120 90 32 67
        E 0 90 4a 67
        E 0 90 62 67
        E 120 80 32 00
        E 0 80 4a 00
        E 0 80 62 00
        E 120 90 4a 67
        E 0 90 62 67
        E 120 80 4a 00
        E 0 80 62 00
        E 120 90 1b 64
        E 0 90 33 64
        E 0 90 4b 64
        E 0 90 63 64
        E 120 80 1b 00
        E 0 80 33 00
        E 0 80 4b 00
        E 0 80 63 00
        E 120 90 4a 67
        E 0 90 62 67
        E 120 80 4a 00
        E 0 80 62 00
        E 120 90 34 65
        E 0 90 4c 65
        E 0 90 64 65
        E 120 80 34 00
        E 240 80 4c 00
        E 0 80 64 00
        <X 120 0
          /wFbZW5kX3BnIHNvbmdfdHJhaW5lcl9wZ18xXQ==
        >
        E 0 90 1a 67
        E 0 90 32 67
        E 0 90 4a 67
        E 0 90 62 67
        E 120 80 1a 00
        E 0 80 32 00
        E 0 80 4a 00
        E 0 80 62 00
        E 120 90 4a 67
        E 0 90 62 67
        E 120 80 4a 00
        E 0 80 62 00
        E 120 90 33 64
        E 0 90 4b 64
        E 0 90 63 64
        E 120 80 33 00
        E 0 80 4b 00
        E 0 80 63 00
        E 120 90 4a 67
        E 0 90 62 67
        E 120 80 4a 00
        E 0 80 62 00
        E 120 90 1c 65
        E 0 90 34 65
        E 0 90 4c 65
        E 0 90 64 65
        E 120 80 1c 00
        E 0 80 34 00
        E 0 80 4c 00
        E 0 80 64 00
        E 120 90 4a 67
        E 0 90 62 67
        E 120 80 4a 00
        E 0 80 62 00
        E 120 90 32 67
        E 0 90 4a 67
        E 0 90 62 67
        E 120 80 32 00
        E 0 80 4a 00
        E 0 80 62 00
        E 120 90 4b 64
        E 0 90 63 64
        E 120 80 4b 00
        E 0 80 63 00
        E 120 90 1a 67
        E 0 90 32 67
        E 0 90 4a 67
        E 0 90 62 67
        E 120 80 1a 00
        E 0 80 32 00
        E 0 80 4a 00
        E 0 80 62 00
        E 120 90 4c 65
        E 0 90 64 65
        E 120 80 4c 00
        E 0 80 64 00
        E 120 90 32 67
        E 0 90 4a 67
        E 0 90 62 67
        E 120 80 32 00
        E 0 80 4a 00
        E 0 80 62 00
        E 120 90 4a 67
        E 0 90 62 67
        E 120 80 4a 00
        E 0 80 62 00
        E 120 90 1b 64
        E 0 90 33 64
        E 0 90 4b 64
        E 0 90 63 64
        E 120 80 1b 00
        E 0 80 33 00
        E 0 80 4b 00
        E 0 80 63 00
        E 120 90 4a 67
        E 0 90 62 67
        E 120 80 4a 00
        E 0 80 62 00
        E 120 90 34 65
        E 0 90 4c 65
        E 0 90 64 65
        E 120 80 34 00
        E 240 80 4c 00
        E 0 80 64 00
        E 120 90 1a 67
        E 0 90 32 67
        E 0 90 4a 67
        E 0 90 62 67
        E 120 80 1a 00
        E 0 80 32 00
        E 0 80 4a 00
        E 0 80 62 00
        E 120 90 4a 67
        E 0 90 62 67
        E 120 80 4a 00
        E 0 80 62 00
        E 120 90 33 64
        E 0 90 4b 64
        E 0 90 63 64
        E 120 80 33 00
        E 0 80 4b 00
        E 0 80 63 00
        E 120 90 4a 67
        E 0 90 62 67
        E 120 80 4a 00
        E 0 80 62 00
        E 120 90 1c 65
        E 0 90 34 65
        E 0 90 4c 65
        E 0 90 64 65
        E 120 80 1c 00
        E 0 80 34 00
        E 0 80 4c 00
        E 0 80 64 00
        E 120 90 4a 67
        E 0 90 62 67
        E 120 80 4a 00
        E 0 80 62 00
        E 120 90 32 67
        E 0 90 4a 67
        E 0 90 62 67
        E 120 80 32 00
        E 0 80 4a 00
        E 0 80 62 00
        E 120 90 4b 64
        E 0 90 63 64
        E 120 80 4b 00
        E 0 80 63 00
        E 120 90 1a 67
        E 0 90 32 67
        E 0 90 4a 67
        E 0 90 62 67
        E 120 80 1a 00
        E 0 80 32 00
        E 0 80 4a 00
        E 0 80 62 00
        E 120 90 4c 65
        E 0 90 64 65
        E 120 80 4c 00
        E 0 80 64 00
        E 120 90 32 67
        E 0 90 4a 67
        E 0 90 62 67
        E 120 80 32 00
        E 0 80 4a 00
        E 0 80 62 00
        E 120 90 4a 67
        E 0 90 62 67
        E 120 80 4a 00
        E 0 80 62 00
        E 120 90 1b 64
        E 0 90 33 64
        E 0 90 4b 64
        E 0 90 63 64
        E 120 80 1b 00
        E 0 80 33 00
        E 0 80 4b 00
        E 0 80 63 00
        E 120 90 4a 67
        E 0 90 62 67
        E 120 80 4a 00
        E 0 80 62 00
        E 120 90 34 65
        E 0 90 4c 65
        E 0 90 64 65
        E 120 80 34 00
        E 240 80 4c 00
        E 0 80 64 00
        E 120 90 1a 67
        E 0 90 32 67
        E 0 90 4a 67
        E 0 90 62 67
        E 120 80 1a 00
        E 0 80 32 00
        E 0 80 4a 00
        E 0 80 62 00
        E 120 90 4a 67
        E 0 90 62 67
        E 120 80 4a 00
        E 0 80 62 00
        E 120 90 33 64
        E 0 90 4b 64
        E 0 90 63 64
        E 120 80 33 00
        E 0 80 4b 00
        E 0 80 63 00
        E 120 90 4a 67
        E 0 90 62 67
        E 120 80 4a 00
        E 0 80 62 00
        E 120 90 1c 65
        E 0 90 34 65
        E 0 90 4c 65
        E 0 90 64 65
        E 120 80 1c 00
        E 0 80 34 00
        E 0 80 4c 00
        E 0 80 64 00
        E 120 90 4a 67
        E 0 90 62 67
        E 120 80 4a 00
        E 0 80 62 00
        E 120 90 32 67
        E 0 90 4a 67
        E 0 90 62 67
        E 120 80 32 00
        E 0 80 4a 00
        E 0 80 62 00
        E 120 90 4b 64
        E 0 90 63 64
        E 120 80 4b 00
        E 0 80 63 00
        E 120 90 1a 67
        E 0 90 32 67
        E 0 90 4a 67
        E 0 90 62 67
        E 120 80 1a 00
        E 0 80 32 00
        E 0 80 4a 00
        E 0 80 62 00
        E 120 90 4c 65
        E 0 90 64 65
        E 120 80 4c 00
        E 0 80 64 00
        E 120 90 32 67
        E 0 90 4a 67
        E 0 90 62 67
        E 120 80 32 00
        E 0 80 4a 00
        E 0 80 62 00
        E 120 90 4a 67
        E 0 90 62 67
        E 120 80 4a 00
        E 0 80 62 00
        E 120 90 1b 64
        E 0 90 33 64
        E 0 90 4b 64
        E 0 90 63 64
        E 120 80 1b 00
        E 0 80 33 00
        E 0 80 4b 00
        E 0 80 63 00
        E 120 90 4a 67
        E 0 90 62 67
        E 120 80 4a 00
        E 0 80 62 00
        E 120 90 34 65
        E 0 90 4c 65
        E 0 90 64 65
        E 120 80 34 00
        E 240 80 4c 00
        E 0 80 64 00
        E 120 90 1a 67
        E 0 90 32 67
        E 0 90 4a 67
        E 0 90 62 67
        E 120 80 1a 00
        E 0 80 32 00
        E 0 80 4a 00
        E 0 80 62 00
        E 120 90 4a 67
        E 0 90 62 67
        E 120 80 4a 00
        E 0 80 62 00
        E 120 90 33 64
        E 0 90 4b 64
        E 0 90 63 64
        E 120 80 33 00
        E 0 80 4b 00
        E 0 80 63 00
        E 120 90 4a 67
        E 0 90 62 67
        E 120 80 4a 00
        E 0 80 62 00
        E 120 90 1c 65
        E 0 90 34 65
        E 0 90 4c 65
        E 0 90 64 65
        E 120 80 1c 00
        E 0 80 34 00
        E 0 80 4c 00
        E 0 80 64 00
        E 120 90 4a 67
        E 0 90 62 67
        E 120 80 4a 00
        E 0 80 62 00
        E 120 90 32 67
        E 0 90 4a 67
        E 0 90 62 67
        E 120 80 32 00
        E 0 80 4a 00
        E 0 80 62 00
        E 120 90 4b 64
        E 0 90 63 64
        E 120 80 4b 00
        E 0 80 63 00
        E 120 90 1a 67
        E 0 90 32 67
        E 0 90 4a 67
        E 0 90 62 67
        E 120 80 1a 00
        E 0 80 32 00
        E 0 80 4a 00
        E 0 80 62 00
        E 120 90 4c 65
        E 0 90 64 65
        E 120 80 4c 00
        E 0 80 64 00
        E 120 90 32 67
        E 0 90 4a 67
        E 0 90 62 67
        E 120 80 32 00
        E 0 80 4a 00
        E 0 80 62 00
        E 120 90 4a 67
        E 0 90 62 67
        E 120 80 4a 00
        E 0 80 62 00
        E 120 90 1b 64
        E 0 90 33 64
        E 0 90 4b 64
        E 0 90 63 64
        E 120 80 1b 00
        E 0 80 33 00
        E 0 80 4b 00
        E 0 80 63 00
        E 120 90 4a 67
        E 0 90 62 67
        E 120 80 4a 00
        E 0 80 62 00
        E 120 90 34 65
        E 0 90 4c 65
        E 0 90 64 65
        E 120 80 34 00
        E 240 80 4c 00
        E 0 80 64 00
        E 120 90 1a 67
        E 0 90 32 67
        E 0 90 4a 67
        E 0 90 62 67
        E 120 80 1a 00
        E 0 80 32 00
        E 0 80 4a 00
        E 0 80 62 00
        E 120 90 4a 67
        E 0 90 62 67
        E 120 80 4a 00
        E 0 80 62 00
        E 120 90 33 64
        E 0 90 4b 64
        E 0 90 63 64
        E 120 80 33 00
        E 0 80 4b 00
        E 0 80 63 00
        E 120 90 4a 67
        E 0 90 62 67
        E 120 80 4a 00
        E 0 80 62 00
        E 120 90 1c 65
        E 0 90 34 65
        E 0 90 4c 65
        E 0 90 64 65
        E 120 80 1c 00
        E 0 80 34 00
        E 0 80 4c 00
        E 0 80 64 00
        E 120 90 4a 67
        E 0 90 62 67
        E 120 80 4a 00
        E 0 80 62 00
        E 120 90 32 67
        E 0 90 4a 67
        E 0 90 62 67
        E 120 80 32 00
        E 0 80 4a 00
        E 0 80 62 00
        E 120 90 4b 64
        E 0 90 63 64
        E 120 80 4b 00
        E 0 80 63 00
        E 120 90 1a 67
        E 0 90 32 67
        E 0 90 4a 67
        E 0 90 62 67
        E 120 80 1a 00
        E 0 80 32 00
        E 0 80 4a 00
        E 0 80 62 00
        E 120 90 4c 65
        E 0 90 64 65
        E 120 80 4c 00
        E 0 80 64 00
        E 120 90 32 67
        E 0 90 4a 67
        E 0 90 62 67
        E 120 80 32 00
        E 0 80 4a 00
        E 0 80 62 00
        E 120 90 4a 67
        E 0 90 62 67
        E 120 80 4a 00
        E 0 80 62 00
        E 120 90 1b 64
        E 0 90 33 64
        E 0 90 4b 64
        E 0 90 63 64
        E 120 80 1b 00
        E 0 80 33 00
        E 0 80 4b 00
        E 0 80 63 00
        E 120 90 4a 67
        E 0 90 62 67
        E 120 80 4a 00
        E 0 80 62 00
        E 120 90 34 65
        E 0 90 4c 65
        E 0 90 64 65
        E 120 80 34 00
        E 240 80 4c 00
        E 0 80 64 00
        E 120 90 1a 67
        E 0 90 32 67
        E 0 90 4a 67
        E 0 90 62 67
        E 120 80 1a 00
        E 0 80 32 00
        E 0 80 4a 00
        E 0 80 62 00
        E 120 90 4a 67
        E 0 90 62 67
        E 120 80 4a 00
        E 0 80 62 00
        E 120 90 33 64
        E 0 90 4b 64
        E 0 90 63 64
        E 120 80 33 00
        E 0 80 4b 00
        E 0 80 63 00
        E 120 90 4a 67
        E 0 90 62 67
        E 120 80 4a 00
        E 0 80 62 00
        E 120 90 1c 65
        E 0 90 34 65
        E 0 90 4c 65
        E 0 90 64 65
        E 120 80 1c 00
        E 0 80 34 00
        E 0 80 4c 00
        E 0 80 64 00
        E 120 90 4a 67
        E 0 90 62 67
        E 120 80 4a 00
        E 0 80 62 00
        E 120 90 32 67
        E 0 90 4a 67
        E 0 90 62 67
        E 120 80 32 00
        E 0 80 4a 00
        E 0 80 62 00
        E 120 90 4b 64
        E 0 90 63 64
        E 120 80 4b 00
        E 0 80 63 00
        E 120 90 1a 67
        E 0 90 32 67
        E 0 90 4a 67
        E 0 90 62 67
        E 120 80 1a 00
        E 0 80 32 00
        E 0 80 4a 00
        E 0 80 62 00
        E 120 90 4c 65
        E 0 90 64 65
        E 120 80 4c 00
        E 0 80 64 00
        E 120 90 32 67
        E 0 90 4a 67
        E 0 90 62 67
        E 120 80 32 00
        E 0 80 4a 00
        E 0 80 62 00
        E 120 90 4a 67
        E 0 90 62 67
        E 120 80 4a 00
        E 0 80 62 00
        E 120 90 1b 64
        E 0 90 33 64
        E 0 90 4b 64
        E 0 90 63 64
        E 120 80 1b 00
        E 0 80 33 00
        E 0 80 4b 00
        E 0 80 63 00
        E 120 90 4a 67
        E 0 90 62 67
        E 120 80 4a 00
        E 0 80 62 00
        E 120 90 34 65
        E 0 90 4c 65
        E 0 90 64 65
        E 120 80 34 00
        E 240 80 4c 00
        E 0 80 64 00
        E 120 90 1a 67
        E 0 90 32 67
        E 0 90 4a 67
        E 0 90 62 67
        E 120 80 1a 00
        E 0 80 32 00
        E 0 80 4a 00
        E 0 80 62 00
        E 120 90 4a 67
        E 0 90 62 67
        E 120 80 4a 00
        E 0 80 62 00
        E 120 90 33 64
        E 0 90 4b 64
        E 0 90 63 64
        E 120 80 33 00
        E 0 80 4b 00
        E 0 80 63 00
        E 120 90 4a 67
        E 0 90 62 67
        E 120 80 4a 00
        E 0 80 62 00
        E 120 90 1c 65
        E 0 90 34 65
        E 0 90 4c 65
        E 0 90 64 65
        E 120 80 1c 00
        E 0 80 34 00
        E 0 80 4c 00
        E 0 80 64 00
        E 120 90 4a 67
        E 0 90 62 67
        E 120 80 4a 00
        E 0 80 62 00
        E 120 90 32 67
        E 0 90 4a 67
        E 0 90 62 67
        E 120 80 32 00
        E 0 80 4a 00
        E 0 80 62 00
        E 120 90 4b 64
        E 0 90 63 64
        E 120 80 4b 00
        E 0 80 63 00
        E 120 90 1a 67
        E 0 90 32 67
        E 0 90 4a 67
        E 0 90 62 67
        E 120 80 1a 00
        E 0 80 32 00
        E 0 80 4a 00
        E 0 80 62 00
        E 120 90 4c 65
        E 0 90 64 65
        E 120 80 4c 00
        E 0 80 64 00
        E 120 90 32 67
        E 0 90 4a 67
        E 0 90 62 67
        E 120 80 32 00
        E 0 80 4a 00
        E 0 80 62 00
        E 120 90 4a 67
        E 0 90 62 67
        E 120 80 4a 00
        E 0 80 62 00
        E 120 90 1b 64
        E 0 90 33 64
        E 0 90 4b 64
        E 0 90 63 64
        E 120 80 1b 00
        E 0 80 33 00
        E 0 80 4b 00
        E 0 80 63 00
        E 120 90 4a 67
        E 0 90 62 67
        E 120 80 4a 00
        E 0 80 62 00
        E 120 90 34 65
        E 0 90 4c 65
        E 0 90 64 65
        E 120 80 34 00
        E 240 80 4c 00
        E 0 80 64 00
        E 120 90 1a 67
        E 0 90 32 67
        E 0 90 4a 67
        E 0 90 62 67
        E 120 80 1a 00
        E 0 80 32 00
        E 0 80 4a 00
        E 0 80 62 00
        E 120 90 4a 67
        E 0 90 62 67
        E 120 80 4a 00
        E 0 80 62 00
        E 120 90 33 64
        E 0 90 4b 64
        E 0 90 63 64
        E 120 80 33 00
        E 0 80 4b 00
        E 0 80 63 00
        E 120 90 4a 67
        E 0 90 62 67
        E 120 80 4a 00
        E 0 80 62 00
        E 120 90 1c 65
        E 0 90 34 65
        E 0 90 4c 65
        E 0 90 64 65
        E 120 80 1c 00
        E 0 80 34 00
        E 0 80 4c 00
        E 0 80 64 00
        E 120 90 4a 67
        E 0 90 62 67
        E 120 80 4a 00
        E 0 80 62 00
        E 120 90 32 67
        E 0 90 4a 67
        E 0 90 62 67
        E 120 80 32 00
        E 0 80 4a 00
        E 0 80 62 00
        E 120 90 4b 64
        E 0 90 63 64
        E 120 80 4b 00
        E 0 80 63 00
        E 120 90 1a 67
        E 0 90 32 67
        E 0 90 4a 67
        E 0 90 62 67
        E 120 80 1a 00
        E 0 80 32 00
        E 0 80 4a 00
        E 0 80 62 00
        E 120 90 4c 65
        E 0 90 64 65
        E 120 80 4c 00
        E 0 80 64 00
        E 120 90 32 67
        E 0 90 4a 67
        E 0 90 62 67
        E 120 80 32 00
        E 0 80 4a 00
        E 0 80 62 00
        E 120 90 4a 67
        E 0 90 62 67
        E 120 80 4a 00
        E 0 80 62 00
        E 120 90 1b 64
        E 0 90 33 64
        E 0 90 4b 64
        E 0 90 63 64
        E 120 80 1b 00
        E 0 80 33 00
        E 0 80 4b 00
        E 0 80 63 00
        E 120 90 4a 67
        E 0 90 62 67
        E 120 80 4a 00
        E 0 80 62 00
        E 120 90 34 65
        E 0 90 4c 65
        E 0 90 64 65
        E 120 80 34 00
        E 240 80 4c 00
        E 0 80 64 00
        E 120 90 1a 67
        E 0 90 32 67
        E 0 90 4a 67
        E 0 90 62 67
        E 120 80 1a 00
        E 0 80 32 00
        E 0 80 4a 00
        E 0 80 62 00
        E 120 90 4a 67
        E 0 90 62 67
        E 120 80 4a 00
        E 0 80 62 00
        E 120 90 33 64
        E 0 90 4b 64
        E 0 90 63 64
        E 120 80 33 00
        E 0 80 4b 00
        E 0 80 63 00
        E 120 90 4a 67
        E 0 90 62 67
        E 120 80 4a 00
        E 0 80 62 00
        E 120 90 1c 65
        E 0 90 34 65
        E 0 90 4c 65
        E 0 90 64 65
        E 120 80 1c 00
        E 0 80 34 00
        E 0 80 4c 00
        E 0 80 64 00
        E 120 90 4a 67
        E 0 90 62 67
        E 120 80 4a 00
        E 0 80 62 00
        E 120 90 32 67
        E 0 90 4a 67
        E 0 90 62 67
        E 120 80 32 00
        E 0 80 4a 00
        E 0 80 62 00
        E 120 90 4b 64
        E 0 90 63 64
        E 120 80 4b 00
        E 0 80 63 00
        E 120 90 1a 67
        E 0 90 32 67
        E 0 90 4a 67
        E 0 90 62 67
        E 120 80 1a 00
        E 0 80 32 00
        E 0 80 4a 00
        E 0 80 62 00
        E 120 90 4c 65
        E 0 90 64 65
        E 120 80 4c 00
        E 0 80 64 00
        E 120 90 32 67
        E 0 90 4a 67
        E 0 90 62 67
        E 120 80 32 00
        E 0 80 4a 00
        E 0 80 62 00
        E 120 90 4a 67
        E 0 90 62 67
        E 120 80 4a 00
        E 0 80 62 00
        E 120 90 1b 64
        E 0 90 33 64
        E 0 90 4b 64
        E 0 90 63 64
        E 120 80 1b 00
        E 0 80 33 00
        E 0 80 4b 00
        E 0 80 63 00
        E 120 90 4a 67
        E 0 90 62 67
        E 120 80 4a 00
        E 0 80 62 00
        E 120 90 34 65
        E 0 90 4c 65
        E 0 90 64 65
        E 120 80 34 00
        E 240 80 4c 00
        E 0 80 64 00
        <X 120 0
          /wFbYmVnaW5fcGcgc29uZ190cmFpbmVyX3BnXzJd
        >
        E 0 90 1b 70
        E 0 90 33 70
        E 0 90 4b 70
        E 0 90 63 70
        E 0 90 6c 70
        E 0 90 74 64
        E 120 80 1b 00
        E 0 80 33 00
        E 0 80 4b 00
        E 0 80 63 00
        E 0 80 6c 00
        E 120 90 4b 70
        E 0 90 63 70
        E 120 80 4b 00
        E 0 80 63 00
        E 120 90 34 71
        E 0 90 4c 71
        E 0 90 64 71
        E 120 80 34 00
        E 0 80 4c 00
        E 0 80 64 00
        E 120 90 4b 70
        E 0 90 63 70
        E 120 80 4b 00
        E 0 80 63 00
        <X 120 0
          /wFbcGdfbm9ybSBzb25nX3RyYWluZXJfcGdfMl0=
        >
        E 0 90 1c 73
        E 0 90 34 73
        E 0 90 4c 73
        E 0 90 64 73
        E 0 90 6c 71
        E 120 80 1c 00
        E 0 80 34 00
        E 0 80 4c 00
        E 0 80 64 00
        E 0 80 6c 00
        E 120 90 4c 71
        E 0 90 4e 64
        E 0 90 64 71
        E 0 90 66 64
        E 120 80 4c 00
        E 0 80 4e 00
        E 0 80 64 00
        E 0 80 66 00
        E 120 90 33 70
        E 0 90 4b 70
        E 0 90 63 70
        E 0 90 6c 70
        E 120 80 33 00
        E 0 80 4b 00
        E 0 80 63 00
        E 0 80 6c 00
        E 120 90 4d 70
        E 0 90 65 70
        E 360 80 4d 00
        E 0 80 65 00
        E 120 90 1c 71
        E 0 90 34 71
        E 0 90 4c 71
        E 0 90 64 71
        E 120 80 1c 00
        E 0 80 34 00
        E 240 80 4c 00
        E 0 80 64 00
        E 120 90 4b 70
        E 0 90 63 70
        E 120 80 4b 00
        E 0 80 63 00
        E 120 90 1c 73
        E 0 90 34 73
        E 0 90 4c 73
        E 0 90 64 73
        E 0 90 6c 71
        E 120 80 1c 00
        E 0 80 34 00
        E 0 80 4c 00
        E 0 80 64 00
        E 0 80 6c 00
        E 120 90 4c 71
        E 0 90 4e 64
        E 0 90 64 71
        E 0 90 66 64
        E 120 80 4c 00
        E 0 80 4e 00
        E 0 80 64 00
        E 0 80 66 00
        E 120 90 33 70
        E 0 90 4b 70
        E 0 90 63 70
        E 0 90 6c 70
        E 120 80 33 00
        E 0 80 4b 00
        E 0 80 63 00
        E 0 80 6c 00
        E 120 90 4c 71
        E 0 90 64 71
        E 240 80 74 00
        E 120 80 4c 00
        E 0 80 64 00
        E 120 90 4b 70
        E 0 90 63 70
        E 120 80 4b 00
        E 0 80 63 00
        E 120 90 34 71
        E 0 90 4c 71
        E 0 90 64 71
        E 120 80 34 00
        E 0 80 4c 00
        E 0 80 64 00
        E 120 90 4b 70
        E 0 90 63 70
        E 120 80 4b 00
        E 0 80 63 00
        E 120 90 1c 73
        E 0 90 34 73
        E 0 90 4c 73
        E 0 90 64 73
        E 0 90 6c 71
        E 120 80 1c 00
        E 0 80 34 00
        E 0 80 4c 00
        E 0 80 64 00
        E 0 80 6c 00
        E 120 90 4c 71
        E 0 90 4e 64
        E 0 90 64 71
        E 0 90 66 64
        E 120 80 4c 00
        E 0 80 4e 00
        E 0 80 64 00
        E 0 80 66 00
        E 120 90 33 70
        E 0 90 4b 70
        E 0 90 63 70
        E 0 90 6c 70
        E 120 80 33 00
        E 0 80 4b 00
        E 0 80 63 00
        E 0 80 6c 00
        E 120 90 4d 70
        E 0 90 65 70
        E 360 80 4d 00
        E 0 80 65 00
        E 120 90 4c 71
        E 0 90 64 71
        E 120 80 4c 00
        E 0 80 64 00
        E 120 90 1b 70
        E 0 90 33 70
        E 0 90 4b 70
        E 0 90 63 70
        E 120 80 1b 00
        E 0 80 33 00
        E 0 80 4b 00
        E 0 80 63 00
        E 120 90 4c 71
        E 0 90 64 71
        E 120 80 4c 00
        E 0 80 64 00
        E 120 90 1b 70
        E 0 90 33 70
        E 0 90 4b 70
        E 0 90 63 70
        E 120 80 1b 00
        E 0 80 33 00
        E 0 80 4b 00
        E 0 80 63 00
        E 120 90 4b 72
        E 0 90 4e 64
        E 0 90 63 72
        E 0 90 66 64
        E 120 80 4b 00
        E 0 80 4e 00
        E 0 80 63 00
        E 0 80 66 00
        E 120 90 34 71
        E 0 90 4c 71
        E 0 90 64 71
        E 120 80 34 00
        E 240 80 4c 00
        E 0 80 64 00
        <X 120 0
          /wFbZW5kX3BnIHNvbmdfdHJhaW5lcl9wZ18yXQ==
        >
        E 0 90 1b 70
        E 0 90 33 70
        E 0 90 4b 70
        E 0 90 63 70
        E 120 80 1b 00
        E 0 80 33 00
        E 0 80 4b 00
        E 0 80 63 00
        E 120 90 4b 70
        E 0 90 63 70
        E 120 80 4b 00
        E 0 80 63 00
        E 120 90 34 71
        E 0 90 4c 71
        E 0 90 64 71
        E 120 80 34 00
        E 0 80 4c 00
        E 0 80 64 00
        E 120 90 4b 70
        E 0 90 63 70
        E 120 80 4b 00
        E 0 80 63 00
        E 120 90 1c 73
        E 0 90 34 73
        E 0 90 4c 73
        E 0 90 64 73
        E 0 90 6c 71
        E 120 80 1c 00
        E 0 80 34 00
        E 0 80 4c 00
        E 0 80 64 00
        E 0 80 6c 00
        E 120 90 4c 71
        E 0 90 4e 64
        E 0 90 64 71
        E 0 90 66 64
        E 120 80 4c 00
        E 0 80 4e 00
        E 0 80 64 00
        E 0 80 66 00
        E 120 90 33 70
        E 0 90 4b 70
        E 0 90 63 70
        E 0 90 6c 70
        E 120 80 33 00
        E 0 80 4b 00
        E 0 80 63 00
        E 0 80 6c 00
        E 120 90 4d 70
        E 0 90 65 70
        E 360 80 4d 00
        E 0 80 65 00
        E 120 90 1c 71
        E 0 90 34 71
        E 0 90 4c 71
        E 0 90 64 71
        E 120 80 1c 00
        E 0 80 34 00
        E 240 80 4c 00
        E 0 80 64 00
        E 120 90 4b 70
        E 0 90 63 70
        E 120 80 4b 00
        E 0 80 63 00
        E 120 90 1c 73
        E 0 90 34 73
        E 0 90 4c 73
        E 0 90 64 73
        E 0 90 6c 71
        E 120 80 1c 00
        E 0 80 34 00
        E 0 80 4c 00
        E 0 80 64 00
        E 0 80 6c 00
        E 120 90 4c 71
        E 0 90 4e 64
        E 0 90 64 71
        E 0 90 66 64
        E 120 80 4c 00
        E 0 80 4e 00
        E 0 80 64 00
        E 0 80 66 00
        E 120 90 33 70
        E 0 90 4b 70
        E 0 90 63 70
        E 0 90 6c 70
        E 120 80 33 00
        E 0 80 4b 00
        E 0 80 63 00
        E 0 80 6c 00
        E 120 90 4c 71
        E 0 90 64 71
        E 360 80 4c 00
        E 0 80 64 00
        E 120 90 4b 70
        E 0 90 63 70
        E 120 80 4b 00
        E 0 80 63 00
        E 120 90 34 71
        E 0 90 4c 71
        E 0 90 64 71
        E 120 80 34 00
        E 0 80 4c 00
        E 0 80 64 00
        E 120 90 4b 70
        E 0 90 63 70
        E 120 80 4b 00
        E 0 80 63 00
        E 120 90 1c 73
        E 0 90 34 73
        E 0 90 4c 73
        E 0 90 64 73
        E 0 90 6c 71
        E 120 80 1c 00
        E 0 80 34 00
        E 0 80 4c 00
        E 0 80 64 00
        E 0 80 6c 00
        E 120 90 4c 71
        E 0 90 4e 64
        E 0 90 64 71
        E 0 90 66 64
        E 120 80 4c 00
        E 0 80 4e 00
        E 0 80 64 00
        E 0 80 66 00
        E 120 90 33 70
        E 0 90 4b 70
        E 0 90 63 70
        E 0 90 6c 70
        E 120 80 33 00
        E 0 80 4b 00
        E 0 80 63 00
        E 0 80 6c 00
        E 120 90 4d 70
        E 0 90 65 70
        E 360 80 4d 00
        E 0 80 65 00
        E 120 90 4c 71
        E 0 90 64 71
        E 120 80 4c 00
        E 0 80 64 00
        E 120 90 1b 70
        E 0 90 33 70
        E 0 90 4b 70
        E 0 90 63 70
        E 120 80 1b 00
        E 0 80 33 00
        E 0 80 4b 00
        E 0 80 63 00
        E 120 90 4c 71
        E 0 90 64 71
        E 120 80 4c 00
        E 0 80 64 00
        E 120 90 1b 70
        E 0 90 33 70
        E 0 90 4b 70
        E 0 90 63 70
        E 120 80 1b 00
        E 0 80 33 00
        E 0 80 4b 00
        E 0 80 63 00
        E 120 90 4b 72
        E 0 90 4e 64
        E 0 90 63 72
        E 0 90 66 64
        E 120 80 4b 00
        E 0 80 4e 00
        E 0 80 63 00
        E 0 80 66 00
        E 120 90 34 71
        E 0 90 4c 71
        E 0 90 64 71
        E 120 80 34 00
        E 240 80 4c 00
        E 0 80 64 00
        E 120 90 1a 67
        E 0 90 32 67
        E 0 90 4a 67
        E 0 90 62 67
        E 0 90 6c 65
        E 0 90 74 64
        E 120 80 1a 00
        E 0 80 32 00
        E 0 80 4a 00
        E 0 80 62 00
        E 0 80 6c 00
        E 120 90 4a 67
        E 0 90 62 67
        E 120 80 4a 00
        E 0 80 62 00
        E 120 90 33 64
        E 0 90 4b 64
        E 0 90 63 64
        E 120 80 33 00
        E 0 80 4b 00
        E 0 80 63 00
        E 120 90 4a 67
        E 0 90 62 67
        E 120 80 4a 00
        E 0 80 62 00
        E 120 90 1c 65
        E 0 90 34 65
        E 0 90 4c 65
        E 0 90 64 65
        E 120 80 1c 00
        E 0 80 34 00
        E 0 80 4c 00
        E 0 80 64 00
        E 120 90 4a 67
        E 0 90 62 67
        E 120 80 4a 00
        E 0 80 62 00
        E 120 90 32 67
        E 0 90 4a 67
        E 0 90 62 67
        E 120 80 32 00
        E 0 80 4a 00
        E 0 80 62 00
        E 120 90 4b 64
        E 0 90 63 64
        E 120 80 4b 00
        E 0 80 63 00
        E 120 90 1a 67
        E 0 90 32 67
        E 0 90 4a 67
        E 0 90 62 67
        E 120 80 1a 00
        E 0 80 32 00
        E 0 80 4a 00
        E 0 80 62 00
        E 120 90 4c 65
        E 0 90 64 65
        E 120 80 4c 00
        E 0 80 64 00
        E 120 90 32 67
        E 0 90 4a 67
        E 0 90 62 67
        E 120 80 32 00
        E 0 80 4a 00
        E 0 80 62 00
        E 120 90 4a 67
        E 0 90 62 67
        E 120 80 4a 00
        E 0 80 62 00
        E 120 90 1b 64
        E 0 90 33 64
        E 0 90 4b 64
        E 0 90 63 64
        E 120 80 1b 00
        E 0 80 33 00
        E 0 80 4b 00
        E 0 80 63 00
        E 120 90 4a 67
        E 0 90 62 67
        E 120 80 4a 00
        E 0 80 62 00
        E 120 90 34 65
        E 0 90 4c 65
        E 0 90 64 65
        E 120 80 34 00
        E 240 80 4c 00
        E 0 80 64 00
        E 120 80 74 00
        E 0 90 1a 67
        E 0 90 32 67
        E 0 90 4a 67
        E 0 90 62 67
        E 120 80 1a 00
        E 0 80 32 00
        E 0 80 4a 00
        E 0 80 62 00
        E 120 90 4a 67
        E 0 90 62 67
        E 120 80 4a 00
        E 0 80 62 00
        E 120 90 33 64
        E 0 90 4b 64
        E 0 90 63 64
        E 120 80 33 00
        E 0 80 4b 00
        E 0 80 63 00
        E 120 90 4a 67
        E 0 90 62 67
        E 120 80 4a 00
        E 0 80 62 00
        E 120 90 1c 65
        E 0 90 34 65
        E 0 90 4c 65
        E 0 90 64 65
        E 120 80 1c 00
        E 0 80 34 00
        E 0 80 4c 00
        E 0 80 64 00
        E 120 90 4a 67
        E 0 90 62 67
        E 120 80 4a 00
        E 0 80 62 00
        E 120 90 32 67
        E 0 90 4a 67
        E 0 90 62 67
        E 120 80 32 00
        E 0 80 4a 00
        E 0 80 62 00
        E 120 90 4b 64
        E 0 90 63 64
        E 120 80 4b 00
        E 0 80 63 00
        E 120 90 1a 67
        E 0 90 32 67
        E 0 90 4a 67
        E 0 90 62 67
        E 120 80 1a 00
        E 0 80 32 00
        E 0 80 4a 00
        E 0 80 62 00
        E 120 90 4c 65
        E 0 90 64 65
        E 120 80 4c 00
        E 0 80 64 00
        E 120 90 32 67
        E 0 90 4a 67
        E 0 90 62 67
        E 120 80 32 00
        E 0 80 4a 00
        E 0 80 62 00
        E 120 90 4a 67
        E 0 90 62 67
        E 120 80 4a 00
        E 0 80 62 00
        E 120 90 1b 64
        E 0 90 33 64
        E 0 90 4b 64
        E 0 90 63 64
        E 120 80 1b 00
        E 0 80 33 00
        E 0 80 4b 00
        E 0 80 63 00
        E 120 90 4a 67
        E 0 90 62 67
        E 120 80 4a 00
        E 0 80 62 00
        E 120 90 34 65
        E 0 90 4c 65
        E 0 90 64 65
        E 120 80 34 00
        E 240 80 4c 00
        E 0 80 64 00
        E 120 90 1a 67
        E 0 90 32 67
        E 0 90 4a 67
        E 0 90 62 67
        E 120 80 1a 00
        E 0 80 32 00
        E 0 80 4a 00
        E 0 80 62 00
        E 120 90 4a 67
        E 0 90 62 67
        E 120 80 4a 00
        E 0 80 62 00
        E 120 90 33 64
        E 0 90 4b 64
        E 0 90 63 64
        E 120 80 33 00
        E 0 80 4b 00
        E 0 80 63 00
        E 120 90 4a 67
        E 0 90 62 67
        E 120 80 4a 00
        E 0 80 62 00
        E 120 90 1c 65
        E 0 90 34 65
        E 0 90 4c 65
        E 0 90 64 65
        E 120 80 1c 00
        E 0 80 34 00
        E 0 80 4c 00
        E 0 80 64 00
        E 120 90 4a 67
        E 0 90 62 67
        E 120 80 4a 00
        E 0 80 62 00
        E 120 90 32 67
        E 0 90 4a 67
        E 0 90 62 67
        E 120 80 32 00
        E 0 80 4a 00
        E 0 80 62 00
        E 120 90 4b 64
        E 0 90 63 64
        E 120 80 4b 00
        E 0 80 63 00
        E 120 90 1a 67
        E 0 90 32 67
        E 0 90 4a 67
        E 0 90 62 67
        E 120 80 1a 00
        E 0 80 32 00
        E 0 80 4a 00
        E 0 80 62 00
        E 120 90 4c 65
        E 0 90 64 65
        E 120 80 4c 00
        E 0 80 64 00
        E 120 90 32 67
        E 0 90 4a 67
        E 0 90 62 67
        E 120 80 32 00
        E 0 80 4a 00
        E 0 80 62 00
        E 120 90 4a 67
        E 0 90 62 67
        E 120 80 4a 00
        E 0 80 62 00
        E 120 90 1b 64
        E 0 90 33 64
        E 0 90 4b 64
        E 0 90 63 64
        E 120 80 1b 00
        E 0 80 33 00
        E 0 80 4b 00
        E 0 80 63 00
        E 120 90 4a 67
        E 0 90 62 67
        E 120 80 4a 00
        E 0 80 62 00
        E 120 90 34 65
        E 0 90 4c 65
        E 0 90 64 65
        E 120 80 34 00
        E 240 80 4c 00
        E 0 80 64 00
        E 120 90 1a 67
        E 0 90 32 67
        E 0 90 4a 67
        E 0 90 62 67
        E 120 80 1a 00
        E 0 80 32 00
        E 0 80 4a 00
        E 0 80 62 00
        E 120 90 4a 67
        E 0 90 62 67
        E 120 80 4a 00
        E 0 80 62 00
        E 120 90 33 64
        E 0 90 4b 64
        E 0 90 63 64
        E 120 80 33 00
        E 0 80 4b 00
        E 0 80 63 00
        E 120 90 4a 67
        E 0 90 62 67
        E 120 80 4a 00
        E 0 80 62 00
        E 120 90 1c 65
        E 0 90 34 65
        E 0 90 4c 65
        E 0 90 64 65
        E 120 80 1c 00
        E 0 80 34 00
        E 0 80 4c 00
        E 0 80 64 00
        E 120 90 4a 67
        E 0 90 62 67
        E 120 80 4a 00
        E 0 80 62 00
        E 120 90 32 67
        E 0 90 4a 67
        E 0 90 62 67
        E 120 80 32 00
        E 0 80 4a 00
        E 0 80 62 00
        E 120 90 4b 64
        E 0 90 63 64
        E 120 80 4b 00
        E 0 80 63 00
        E 120 90 1a 67
        E 0 90 32 67
        E 0 90 4a 67
        E 0 90 62 67
        E 120 80 1a 00
        E 0 80 32 00
        E 0 80 4a 00
        E 0 80 62 00
        E 120 90 4c 65
        E 0 90 64 65
        E 120 80 4c 00
        E 0 80 64 00
        E 120 90 32 67
        E 0 90 4a 67
        E 0 90 62 67
        E 120 80 32 00
        E 0 80 4a 00
        E 0 80 62 00
        E 120 90 4a 67
        E 0 90 62 67
        E 120 80 4a 00
        E 0 80 62 00
        E 120 90 1b 64
        E 0 90 33 64
        E 0 90 4b 64
        E 0 90 63 64
        E 120 80 1b 00
        E 0 80 33 00
        E 0 80 4b 00
        E 0 80 63 00
        E 120 90 4a 67
        E 0 90 62 67
        E 120 80 4a 00
        E 0 80 62 00
        E 120 90 34 65
        E 0 90 4c 65
        E 0 90 64 65
        E 120 80 34 00
        E 240 80 4c 00
        E 0 80 64 00
        E 120 90 1a 67
        E 0 90 32 67
        E 0 90 4a 67
        E 0 90 62 67
        E 120 80 1a 00
        E 0 80 32 00
        E 0 80 4a 00
        E 0 80 62 00
        E 120 90 4a 67
        E 0 90 62 67
        E 120 80 4a 00
        E 0 80 62 00
        E 120 90 33 64
        E 0 90 4b 64
        E 0 90 63 64
        E 120 80 33 00
        E 0 80 4b 00
        E 0 80 63 00
        E 120 90 4a 67
        E 0 90 62 67
        E 120 80 4a 00
        E 0 80 62 00
        E 120 90 1c 65
        E 0 90 34 65
        E 0 90 4c 65
        E 0 90 64 65
        E 120 80 1c 00
        E 0 80 34 00
        E 0 80 4c 00
        E 0 80 64 00
        E 120 90 4a 67
        E 0 90 62 67
        E 120 80 4a 00
        E 0 80 62 00
        E 120 90 32 67
        E 0 90 4a 67
        E 0 90 62 67
        E 120 80 32 00
        E 0 80 4a 00
        E 0 80 62 00
        E 120 90 4b 64
        E 0 90 63 64
        E 120 80 4b 00
        E 0 80 63 00
        E 120 90 1a 67
        E 0 90 32 67
        E 0 90 4a 67
        E 0 90 62 67
        E 120 80 1a 00
        E 0 80 32 00
        E 0 80 4a 00
        E 0 80 62 00
        E 120 90 4c 65
        E 0 90 64 65
        E 120 80 4c 00
        E 0 80 64 00
        E 120 90 32 67
        E 0 90 4a 67
        E 0 90 62 67
        E 120 80 32 00
        E 0 80 4a 00
        E 0 80 62 00
        E 120 90 4a 67
        E 0 90 62 67
        E 120 80 4a 00
        E 0 80 62 00
        E 120 90 1b 64
        E 0 90 33 64
        E 0 90 4b 64
        E 0 90 63 64
        E 120 80 1b 00
        E 0 80 33 00
        E 0 80 4b 00
        E 0 80 63 00
        E 120 90 4a 67
        E 0 90 62 67
        E 120 80 4a 00
        E 0 80 62 00
        E 120 90 34 65
        E 0 90 4c 65
        E 0 90 64 65
        E 120 80 34 00
        E 240 80 4c 00
        E 0 80 64 00
        E 120 90 1a 67
        E 0 90 32 67
        E 0 90 4a 67
        E 0 90 62 67
        E 120 80 1a 00
        E 0 80 32 00
        E 0 80 4a 00
        E 0 80 62 00
        E 120 90 4a 67
        E 0 90 62 67
        E 120 80 4a 00
        E 0 80 62 00
        E 120 90 33 64
        E 0 90 4b 64
        E 0 90 63 64
        E 120 80 33 00
        E 0 80 4b 00
        E 0 80 63 00
        E 120 90 4a 67
        E 0 90 62 67
        E 120 80 4a 00
        E 0 80 62 00
        E 120 90 1c 65
        E 0 90 34 65
        E 0 90 4c 65
        E 0 90 64 65
        E 120 80 1c 00
        E 0 80 34 00
        E 0 80 4c 00
        E 0 80 64 00
        E 120 90 4a 67
        E 0 90 62 67
        E 120 80 4a 00
        E 0 80 62 00
        E 120 90 32 67
        E 0 90 4a 67
        E 0 90 62 67
        E 120 80 32 00
        E 0 80 4a 00
        E 0 80 62 00
        E 120 90 4b 64
        E 0 90 63 64
        E 120 80 4b 00
        E 0 80 63 00
        E 120 90 1a 67
        E 0 90 32 67
        E 0 90 4a 67
        E 0 90 62 67
        E 120 80 1a 00
        E 0 80 32 00
        E 0 80 4a 00
        E 0 80 62 00
        E 120 90 4c 65
        E 0 90 64 65
        E 120 80 4c 00
        E 0 80 64 00
        E 120 90 32 67
        E 0 90 4a 67
        E 0 90 62 67
        E 120 80 32 00
        E 0 80 4a 00
        E 0 80 62 00
        E 120 90 4a 67
        E 0 90 62 67
        E 120 80 4a 00
        E 0 80 62 00
        E 120 90 1b 64
        E 0 90 33 64
        E 0 90 4b 64
        E 0 90 63 64
        E 120 80 1b 00
        E 0 80 33 00
        E 0 80 4b 00
        E 0 80 63 00
        E 120 90 4a 67
        E 0 90 62 67
        E 120 80 4a 00
        E 0 80 62 00
        E 120 90 34 65
        E 0 90 4c 65
        E 0 90 64 65
        E 120 80 34 00
        E 240 80 4c 00
        E 0 80 64 00
        E 120 90 1a 67
        E 0 90 32 67
        E 0 90 4a 67
        E 0 90 62 67
        E 0 90 74 64
        E 120 80 1a 00
        E 0 80 32 00
        E 0 80 4a 00
        E 0 80 62 00
        E 120 90 4a 67
        E 0 90 62 67
        E 120 80 4a 00
        E 0 80 62 00
        E 120 90 33 64
        E 0 90 4b 64
        E 0 90 63 64
        E 120 80 33 00
        E 0 80 4b 00
        E 0 80 63 00
        E 120 90 4a 67
        E 0 90 62 67
        E 120 80 4a 00
        E 0 80 62 00
        E 120 90 1c 65
        E 0 90 34 65
        E 0 90 4c 65
        E 0 90 64 65
        E 120 80 1c 00
        E 0 80 34 00
        E 0 80 4c 00
        E 0 80 64 00
        E 120 90 4a 67
        E 0 90 62 67
        E 120 80 4a 00
        E 0 80 62 00
        E 120 90 32 67
        E 0 90 4a 67
        E 0 90 62 67
        E 120 80 32 00
        E 0 80 4a 00
        E 0 80 62 00
        E 120 90 4b 64
        E 0 90 63 64
        E 120 80 4b 00
        E 0 80 63 00
        E 120 80 74 00
        E 0 90 1a 67
        E 0 90 32 67
        E 0 90 4a 67
        E 0 90 62 67
        E 120 80 1a 00
        E 0 80 32 00
        E 0 80 4a 00
        E 0 80 62 00
        E 120 90 4c 65
        E 0 90 64 65
        E 120 80 4c 00
        E 0 80 64 00
        E 120 90 32 67
        E 0 90 4a 67
        E 0 90 62 67
        E 120 80 32 00
        E 0 80 4a 00
        E 0 80 62 00
        E 120 90 4a 67
        E 0 90 62 67
        E 120 80 4a 00
        E 0 80 62 00
        E 120 90 1b 64
        E 0 90 33 64
        E 0 90 4b 64
        E 0 90 63 64
        E 120 80 1b 00
        E 0 80 33 00
        E 0 80 4b 00
        E 0 80 63 00
        E 120 90 4a 67
        E 0 90 62 67
        E 120 80 4a 00
        E 0 80 62 00
        E 120 90 34 65
        E 0 90 4c 65
        E 0 90 64 65
        E 120 80 34 00
        E 240 80 4c 00
        E 0 80 64 00
        E 120 90 1a 67
        E 0 90 32 67
        E 0 90 4a 67
        E 0 90 62 67
        E 120 80 1a 00
        E 0 80 32 00
        E 0 80 4a 00
        E 0 80 62 00
        E 120 90 4a 67
        E 0 90 62 67
        E 120 80 4a 00
        E 0 80 62 00
        E 120 90 33 64
        E 0 90 4b 64
        E 0 90 63 64
        E 120 80 33 00
        E 0 80 4b 00
        E 0 80 63 00
        E 120 90 4a 67
        E 0 90 62 67
        E 120 80 4a 00
        E 0 80 62 00
        E 120 90 1c 65
        E 0 90 34 65
        E 0 90 4c 65
        E 0 90 64 65
        E 120 80 1c 00
        E 0 80 34 00
        E 0 80 4c 00
        E 0 80 64 00
        E 120 90 4a 67
        E 0 90 62 67
        E 120 80 4a 00
        E 0 80 62 00
        E 120 90 32 67
        E 0 90 4a 67
        E 0 90 62 67
        E 120 80 32 00
        E 0 80 4a 00
        E 0 80 62 00
        E 120 90 4b 64
        E 0 90 63 64
        E 120 80 4b 00
        E 0 80 63 00
        E 120 90 1a 67
        E 0 90 32 67
        E 0 90 4a 67
        E 0 90 62 67
        E 120 80 1a 00
        E 0 80 32 00
        E 0 80 4a 00
        E 0 80 62 00
        E 120 90 4c 65
        E 0 90 64 65
        E 120 80 4c 00
        E 0 80 64 00
        E 120 90 32 67
        E 0 90 4a 67
        E 0 90 62 67
        E 120 80 32 00
        E 0 80 4a 00
        E 0 80 62 00
        E 120 90 4a 67
        E 0 90 62 67
        E 120 80 4a 00
        E 0 80 62 00
        E 120 90 1b 64
        E 0 90 33 64
        E 0 90 4b 64
        E 0 90 63 64
        E 120 80 1b 00
        E 0 80 33 00
        E 0 80 4b 00
        E 0 80 63 00
        E 120 90 4a 67
        E 0 90 62 67
        E 120 80 4a 00
        E 0 80 62 00
        E 120 90 34 65
        E 0 90 4c 65
        E 0 90 64 65
        E 120 80 34 00
        E 240 80 4c 00
        E 0 80 64 00
        E 120 90 1b 70
        E 0 90 33 70
        E 0 90 4b 70
        E 0 90 63 70
        E 0 90 6c 70
        E 120 80 1b 00
        E 0 80 33 00
        E 0 80 4b 00
        E 0 80 63 00
        E 0 80 6c 00
        E 120 90 4b 70
        E 0 90 63 70
        E 120 80 4b 00
        E 0 80 63 00
        E 120 90 34 71
        E 0 90 4c 71
        E 0 90 64 71
        E 120 80 34 00
        E 0 80 4c 00
        E 0 80 64 00
        E 120 90 4b 70
        E 0 90 63 70
        E 120 80 4b 00
        E 0 80 63 00
        E 120 90 1c 73
        E 0 90 34 73
        E 0 90 4c 73
        E 0 90 64 73
        E 0 90 6c 71
        E 120 80 1c 00
        E 0 80 34 00
        E 0 80 4c 00
        E 0 80 64 00
        E 0 80 6c 00
        E 120 90 4c 71
        E 0 90 4e 64
        E 0 90 64 71
        E 0 90 66 64
        E 120 80 4c 00
        E 0 80 4e 00
        E 0 80 64 00
        E 0 80 66 00
        E 120 90 33 70
        E 0 90 4b 70
        E 0 90 63 70
        E 0 90 6c 70
        E 120 80 33 00
        E 0 80 4b 00
        E 0 80 63 00
        E 0 80 6c 00
        E 120 90 4d 70
        E 0 90 65 70
        E 360 80 4d 00
        E 0 80 65 00
        E 120 90 1c 71
        E 0 90 34 71
        E 0 90 4c 71
        E 0 90 64 71
        E 120 80 1c 00
        E 0 80 34 00
        E 240 80 4c 00
        E 0 80 64 00
        E 120 90 4b 70
        E 0 90 63 70
        E 120 80 4b 00
        E 0 80 63 00
        E 120 90 1c 73
        E 0 90 34 73
        E 0 90 4c 73
        E 0 90 64 73
        E 0 90 6c 71
        E 120 80 1c 00
        E 0 80 34 00
        E 0 80 4c 00
        E 0 80 64 00
        E 0 80 6c 00
        E 120 90 4c 71
        E 0 90 4e 64
        E 0 90 64 71
        E 0 90 66 64
        E 120 80 4c 00
        E 0 80 4e 00
        E 0 80 64 00
        E 0 80 66 00
        E 120 90 33 70
        E 0 90 4b 70
        E 0 90 63 70
        E 0 90 6c 70
        E 120 80 33 00
        E 0 80 4b 00
        E 0 80 63 00
        E 0 80 6c 00
        E 120 90 4c 71
        E 0 90 64 71
        E 360 80 4c 00
        E 0 80 64 00
        E 120 90 4b 70
        E 0 90 63 70
        E 120 80 4b 00
        E 0 80 63 00
        E 120 90 34 71
        E 0 90 4c 71
        E 0 90 64 71
        E 120 80 34 00
        E 0 80 4c 00
        E 0 80 64 00
        E 120 90 4b 70
        E 0 90 63 70
        E 120 80 4b 00
        E 0 80 63 00
        E 120 90 1c 73
        E 0 90 34 73
        E 0 90 4c 73
        E 0 90 64 73
        E 0 90 6c 71
        E 120 80 1c 00
        E 0 80 34 00
        E 0 80 4c 00
        E 0 80 64 00
        E 0 80 6c 00
        E 120 90 4c 71
        E 0 90 4e 64
        E 0 90 64 71
        E 0 90 66 64
        E 120 80 4c 00
        E 0 80 4e 00
        E 0 80 64 00
        E 0 80 66 00
        E 120 90 33 70
        E 0 90 4b 70
        E 0 90 63 70
        E 0 90 6c 70
        E 120 80 33 00
        E 0 80 4b 00
        E 0 80 63 00
        E 0 80 6c 00
        E 120 90 4d 70
        E 0 90 65 70
        E 360 80 4d 00
        E 0 80 65 00
        E 120 90 4c 71
        E 0 90 64 71
        E 120 80 4c 00
        E 0 80 64 00
        E 120 90 1b 70
        E 0 90 33 70
        E 0 90 4b 70
        E 0 90 63 70
        E 120 80 1b 00
        E 0 80 33 00
        E 0 80 4b 00
        E 0 80 63 00
        E 120 90 4c 71
        E 0 90 64 71
        E 120 80 4c 00
        E 0 80 64 00
        E 120 90 1b 70
        E 0 90 33 70
        E 0 90 4b 70
        E 0 90 63 70
        E 120 80 1b 00
        E 0 80 33 00
        E 0 80 4b 00
        E 0 80 63 00
        E 120 90 4b 72
        E 0 90 4e 64
        E 0 90 63 72
        E 0 90 66 64
        E 120 80 4b 00
        E 0 80 4e 00
        E 0 80 63 00
        E 0 80 66 00
        E 120 90 34 71
        E 0 90 4c 71
        E 0 90 64 71
        E 120 80 34 00
        E 240 80 4c 00
        E 0 80 64 00
        E 120 90 1b 70
        E 0 90 33 70
        E 0 90 4b 70
        E 0 90 63 70
        E 120 80 1b 00
        E 0 80 33 00
        E 0 80 4b 00
        E 0 80 63 00
        E 120 90 4b 70
        E 0 90 63 70
        E 120 80 4b 00
        E 0 80 63 00
        E 120 90 34 71
        E 0 90 4c 71
        E 0 90 64 71
        E 120 80 34 00
        E 0 80 4c 00
        E 0 80 64 00
        E 120 90 4b 70
        E 0 90 63 70
        E 120 80 4b 00
        E 0 80 63 00
        E 120 90 1c 73
        E 0 90 34 73
        E 0 90 4c 73
        E 0 90 64 73
        E 0 90 6c 71
        E 120 80 1c 00
        E 0 80 34 00
        E 0 80 4c 00
        E 0 80 64 00
        E 0 80 6c 00
        E 120 90 4c 71
        E 0 90 4e 64
        E 0 90 64 71
        E 0 90 66 64
        E 120 80 4c 00
        E 0 80 4e 00
        E 0 80 64 00
        E 0 80 66 00
        E 120 90 33 70
        E 0 90 4b 70
        E 0 90 63 70
        E 0 90 6c 70
        E 120 80 33 00
        E 0 80 4b 00
        E 0 80 63 00
        E 0 80 6c 00
        E 120 90 4d 70
        E 0 90 65 70
        E 360 80 4d 00
        E 0 80 65 00
        E 120 90 1c 71
        E 0 90 34 71
        E 0 90 4c 71
        E 0 90 64 71
        E 120 80 1c 00
        E 0 80 34 00
        E 240 80 4c 00
        E 0 80 64 00
        E 120 90 4b 70
        E 0 90 63 70
        E 120 80 4b 00
        E 0 80 63 00
        E 120 90 1c 73
        E 0 90 34 73
        E 0 90 4c 73
        E 0 90 64 73
        E 0 90 6c 71
        E 120 80 1c 00
        E 0 80 34 00
        E 0 80 4c 00
        E 0 80 64 00
        E 0 80 6c 00
        E 120 90 4c 71
        E 0 90 4e 64
        E 0 90 64 71
        E 0 90 66 64
        E 120 80 4c 00
        E 0 80 4e 00
        E 0 80 64 00
        E 0 80 66 00
        E 120 90 33 70
        E 0 90 4b 70
        E 0 90 63 70
        E 0 90 6c 70
        E 120 80 33 00
        E 0 80 4b 00
        E 0 80 63 00
        E 0 80 6c 00
        E 120 90 4c 71
        E 0 90 64 71
        E 240 90 74 64
        E 120 80 4c 00
        E 0 80 64 00
        E 120 90 4b 70
        E 0 90 63 70
        E 120 80 4b 00
        E 0 80 63 00
        E 120 90 34 71
        E 0 90 4c 71
        E 0 90 64 71
        E 120 80 34 00
        E 0 80 4c 00
        E 0 80 64 00
        E 120 90 4b 70
        E 0 90 63 70
        E 120 80 4b 00
        E 0 80 63 00
        E 120 90 1c 73
        E 0 90 34 73
        E 0 90 4c 73
        E 0 90 64 73
        E 0 90 6c 71
        E 120 80 1c 00
        E 0 80 34 00
        E 0 80 4c 00
        E 0 80 64 00
        E 0 80 6c 00
        E 120 90 4c 71
        E 0 90 4e 64
        E 0 90 64 71
        E 0 90 66 64
        E 120 80 4c 00
        E 0 80 4e 00
        E 0 80 64 00
        E 0 80 66 00
        E 120 90 33 70
        E 0 90 4b 70
        E 0 90 63 70
        E 0 90 6c 70
        E 120 80 33 00
        E 0 80 4b 00
        E 0 80 63 00
        E 0 80 6c 00
        E 120 90 4d 70
        E 0 90 65 70
        E 360 80 4d 00
        E 0 80 65 00
        E 120 90 4c 71
        E 0 90 64 71
        E 120 80 4c 00
        E 0 80 64 00
        E 120 90 1b 70
        E 0 90 33 70
        E 0 90 4b 70
        E 0 90 63 70
        E 120 80 1b 00
        E 0 80 33 00
        E 0 80 4b 00
        E 0 80 63 00
        E 120 90 4c 71
        E 0 90 64 71
        E 120 80 4c 00
        E 0 80 64 00
        E 120 90 1b 70
        E 0 90 33 70
        E 0 90 4b 70
        E 0 90 63 70
        E 120 80 1b 00
        E 0 80 33 00
        E 0 80 4b 00
        E 0 80 63 00
        E 120 90 4b 72
        E 0 90 4e 64
        E 0 90 63 72
        E 0 90 66 64
        E 120 80 4b 00
        E 0 80 4e 00
        E 0 80 63 00
        E 0 80 66 00
        E 120 90 34 71
        E 0 90 4c 71
        E 0 90 64 71
        E 120 80 34 00
        E 240 80 4c 00
        E 0 80 64 00
        E 120 90 0c 64
        E 0 90 10 64
        E 0 90 1b 66
        E 0 90 33 66
        E 0 90 34 65
        E 0 90 4b 66
        E 0 90 4c 65
        E 0 90 4d 67
        E 0 90 63 66
        E 0 90 64 65
        E 0 90 65 67
        E 0 90 6c 65
        E 120 80 74 00
        E 0 80 0c 00
        E 0 80 10 00
        E 0 80 1b 00
        E 0 80 33 00
        E 0 80 34 00
        E 0 80 6c 00
        E 240 80 4b 00
        E 0 80 4c 00
        E 0 80 4d 00
        E 0 80 63 00
        E 0 80 64 00
        E 0 80 65 00
        E 120 90 1b 66
        E 0 90 33 66
        E 0 90 34 65
        E 0 90 4b 66
        E 0 90 4c 65
        E 0 90 4d 67
        E 0 90 63 66
        E 0 90 64 65
        E 0 90 65 67
        E 120 80 1b 00
        E 0 80 33 00
        E 0 80 34 00
        E 240 80 4b 00
        E 0 80 4c 00
        E 0 80 4d 00
        E 0 80 63 00
        E 0 80 64 00
        E 0 80 65 00
        E 120 90 1b 66
        E 0 90 33 66
        E 0 90 34 65
        E 0 90 4b 66
        E 0 90 4c 65
        E 0 90 4d 67
        E 0 90 63 66
        E 0 90 64 65
        E 0 90 65 67
        E 120 80 1b 00
        E 0 80 33 00
        E 0 80 34 00
        E 0 80 4b 00
        E 0 80 4c 00
        E 0 80 4d 00
        E 0 80 63 00
        E 0 80 64 00
        E 0 80 65 00
        E 120 90 4b 66
        E 0 90 4c 65
        E 0 90 4d 67
        E 0 90 63 66
        E 0 90 64 65
        E 0 90 65 67
        E 120 80 4b 00
        E 0 80 4c 00
        E 0 80 4d 00
        E 0 80 63 00
        E 0 80 64 00
        E 0 80 65 00
        E 120 90 1b 66
        E 0 90 33 66
        E 0 90 34 65
        E 0 90 4b 66
        E 0 90 4c 65
        E 0 90 4d 67
        E 0 90 63 66
        E 0 90 64 65
        E 0 90 65 67
        E 120 80 1b 00
        E 0 80 33 00
        E 0 80 34 00
        E 0 80 4b 00
        E 0 80 4c 00
        E 0 80 4d 00
        E 0 80 63 00
        E 0 80 64 00
        E 0 80 65 00
        E 120 90 4b 66
        E 0 90 4c 65
        E 0 90 4d 67
        E 0 90 63 66
        E 0 90 64 65
        E 0 90 65 67
        E 360 80 4b 00
        E 0 80 4c 00
        E 0 80 4d 00
        E 0 80 63 00
        E 0 80 64 00
        E 0 80 65 00
        E 120 90 4b 66
        E 0 90 4c 65
        E 0 90 4d 67
        E 0 90 63 66
        E 0 90 64 65
        E 0 90 65 67
        E 120 80 4b 00
        E 0 80 4c 00
        E 0 80 4d 00
        E 0 80 63 00
        E 0 80 64 00
        E 0 80 65 00
        E 120 90 1b 66
        E 0 90 33 66
        E 0 90 34 65
        E 0 90 4b 66
        E 0 90 4c 65
        E 0 90 4d 67
        E 0 90 63 66
        E 0 90 64 65
        E 0 90 65 67
        E 120 80 1b 00
        E 0 80 33 00
        E 0 80 34 00
        E 240 80 4b 00
        E 0 80 4c 00
        E 0 80 4d 00
        E 0 80 63 00
        E 0 80 64 00
        E 0 80 65 00
        E 120 90 1b 66
        E 0 90 33 66
        E 0 90 34 65
        E 0 90 4b 66
        E 0 90 4c 65
        E 0 90 4d 67
        E 0 90 63 66
        E 0 90 64 65
        E 0 90 65 67
        E 120 80 1b 00
        E 0 80 33 00
        E 0 80 34 00
        E 0 80 4b 00
        E 0 80 4c 00
        E 0 80 4d 00
        E 0 80 63 00
        E 0 80 64 00
        E 0 80 65 00
        E 120 90 33 66
        E 0 90 34 65
        E 0 90 4b 66
        E 0 90 4c 65
        E 0 90 4d 67
        E 0 90 63 66
        E 0 90 64 65
        E 0 90 65 67
        E 120 80 33 00
        E 0 80 34 00
        E 0 80 4b 00
        E 0 80 4c 00
        E 0 80 4d 00
        E 0 80 63 00
        E 0 80 64 00
        E 0 80 65 00
        E 120 90 1b 66
        E 0 90 33 66
        E 0 90 34 65
        E 0 90 4b 66
        E 0 90 4c 65
        E 0 90 4d 67
        E 0 90 63 66
        E 0 90 64 65
        E 0 90 65 67
        E 120 80 1b 00
        E 0 80 33 00
        E 0 80 34 00
        E 0 80 4b 00
        E 0 80 4c 00
        E 0 80 4d 00
        E 0 80 63 00
        E 0 80 64 00
        E 0 80 65 00
        E 120 93 4a 66
        E 0 93 4b 66
        E 0 93 4c 65
        E 0 93 4d 67
        E 0 93 62 66
        E 0 93 63 66
        E 0 93 64 65
        E 0 93 65 67
        E 120 83 4a 00
        E 0 83 4b 00
        E 0 83 4c 00
        E 0 83 4d 00
        E 0 83 62 00
        E 0 83 63 00
        E 0 83 64 00
        E 0 83 65 00
        E 120 90 0c 64
        E 0 90 10 64
        E 0 90 1a 66
        E 0 90 32 66
        E 0 90 34 65
        E 0 90 4a 66
        E 0 90 4b 64
        E 0 90 4c 65
        E 0 90 4d 67
        E 0 90 62 66
        E 0 90 63 64
        E 0 90 64 65
        E 0 90 65 67
        E 120 80 0c 00
        E 0 80 10 00
        E 0 80 1a 00
        E 0 80 32 00
        E 0 80 34 00
        E 240 80 4a 00
        E 0 80 4b 00
        E 0 80 4c 00
        E 0 80 4d 00
        E 0 80 62 00
        E 0 80 63 00
        E 0 80 64 00
        E 0 80 65 00
        E 120 90 1a 66
        E 0 90 32 66
        E 0 90 34 65
        E 0 90 4a 66
        E 0 90 4b 64
        E 0 90 4c 65
        E 0 90 4d 67
        E 0 90 62 66
        E 0 90 63 64
        E 0 90 64 65
        E 0 90 65 67
        E 120 80 1a 00
        E 0 80 32 00
        E 0 80 34 00
        E 240 80 4a 00
        E 0 80 4b 00
        E 0 80 4c 00
        E 0 80 4d 00
        E 0 80 62 00
        E 0 80 63 00
        E 0 80 64 00
        E 0 80 65 00
        E 120 90 1a 66
        E 0 90 32 66
        E 0 90 34 65
        E 0 90 4a 66
        E 0 90 4b 64
        E 0 90 4c 65
        E 0 90 4d 67
        E 0 90 62 66
        E 0 90 63 64
        E 0 90 64 65
        E 0 90 65 67
        E 120 80 1a 00
        E 0 80 32 00
        E 0 80 34 00
        E 0 80 4a 00
        E 0 80 4b 00
        E 0 80 4c 00
        E 0 80 4d 00
        E 0 80 62 00
        E 0 80 63 00
        E 0 80 64 00
        E 0 80 65 00
        E 120 90 4a 66
        E 0 90 4b 64
        E 0 90 4c 65
        E 0 90 4d 67
        E 0 90 62 66
        E 0 90 63 64
        E 0 90 64 65
        E 0 90 65 67
        E 120 80 4a 00
        E 0 80 4b 00
        E 0 80 4c 00
        E 0 80 4d 00
        E 0 80 62 00
        E 0 80 63 00
        E 0 80 64 00
        E 0 80 65 00
        E 120 90 1a 66
        E 0 90 32 66
        E 0 90 34 65
        E 0 90 4a 66
        E 0 90 4b 64
        E 0 90 4c 65
        E 0 90 4d 67
        E 0 90 62 66
        E 0 90 63 64
        E 0 90 64 65
        E 0 90 65 67
        E 120 80 1a 00
        E 0 80 32 00
        E 0 80 34 00
        E 0 80 4a 00
        E 0 80 4b 00
        E 0 80 4c 00
        E 0 80 4d 00
        E 0 80 62 00
        E 0 80 63 00
        E 0 80 64 00
        E 0 80 65 00
        E 120 90 0c 64
        E 0 90 10 64
        E 0 90 4a 64
        E 0 90 4b 64
        E 0 90 4c 65
        E 0 90 4d 67
        E 0 90 62 64
        E 0 90 63 64
        E 0 90 64 65
        E 0 90 65 67
        E 120 80 0c 00
        E 0 80 10 00
        E 240 80 4a 00
        E 0 80 4b 00
        E 0 80 4c 00
        E 0 80 4d 00
        E 0 80 62 00
        E 0 80 63 00
        E 0 80 64 00
        E 0 80 65 00
        E 120 90 34 65
        E 0 90 35 67
        E 0 90 4a 64
        E 0 90 4b 64
        E 0 90 4c 65
        E 0 90 4d 67
        E 0 90 62 64
        E 0 90 63 64
        E 0 90 64 65
        E 0 90 65 67
        E 120 80 34 00
        E 0 80 35 00
        E 0 80 4a 00
        E 0 80 4b 00
        E 0 80 4c 00
        E 0 80 4d 00
        E 0 80 62 00
        E 0 80 63 00
        E 0 80 64 00
        E 0 80 65 00
        E 120 90 1c 65
        E 0 90 34 65
        E 0 90 35 67
        E 0 90 4a 64
        E 0 90 4b 64
        E 0 90 4c 65
        E 0 90 4d 67
        E 0 90 62 64
        E 0 90 63 64
        E 0 90 64 65
        E 0 90 65 67
        E 120 80 1c 00
        E 0 80 34 00
        E 0 80 35 00
        E 0 80 4a 00
        E 0 80 4b 00
        E 0 80 4c 00
        E 0 80 4d 00
        E 0 80 62 00
        E 0 80 63 00
        E 0 80 64 00
        E 0 80 65 00
        E 120 90 34 65
        E 0 90 35 67
        E 0 90 4a 64
        E 0 90 4b 64
        E 0 90 4c 65
        E 0 90 4d 67
        E 0 90 62 64
        E 0 90 63 64
        E 0 90 64 65
        E 0 90 65 67
        E 120 80 34 00
        E 0 80 35 00
        E 0 80 4a 00
        E 0 80 4b 00
        E 0 80 4c 00
        E 0 80 4d 00
        E 0 80 62 00
        E 0 80 63 00
        E 0 80 64 00
        E 0 80 65 00
        E 120 90 1c 65
        E 0 90 34 65
        E 0 90 35 67
        E 0 90 4a 64
        E 0 90 4b 64
        E 0 90 4c 65
        E 0 90 4d 67
        E 0 90 62 64
        E 0 90 63 64
        E 0 90 64 65
        E 0 90 65 67
        E 120 80 1c 00
        E 0 80 34 00
        E 0 80 35 00
        E 0 80 4a 00
        E 0 80 4b 00
        E 0 80 4c 00
        E 0 80 4d 00
        E 0 80 62 00
        E 0 80 63 00
        E 0 80 64 00
        E 0 80 65 00
        E 120 90 34 65
        E 0 90 35 67
        E 0 90 4a 64
        E 0 90 4b 64
        E 0 90 4c 65
        E 0 90 4d 67
        E 0 90 62 64
        E 0 90 63 64
        E 0 90 64 65
        E 0 90 65 67
        E 120 80 34 00
        E 0 80 35 00
        E 0 80 4a 00
        E 0 80 4b 00
        E 0 80 4c 00
        E 0 80 4d 00
        E 0 80 62 00
        E 0 80 63 00
        E 0 80 64 00
        E 0 80 65 00
        E 120 90 1c 65
        E 0 90 34 65
        E 0 90 35 67
        E 0 90 4a 64
        E 0 90 4b 64
        E 0 90 4c 65
        E 0 90 4d 67
        E 0 90 62 64
        E 0 90 63 64
        E 0 90 64 65
        E 0 90 65 67
        E 120 80 1c 00
        E 0 80 34 00
        E 0 80 35 00
        E 240 80 4a 00
        E 0 80 4b 00
        E 0 80 4c 00
        E 0 80 4d 00
        E 0 80 62 00
        E 0 80 63 00
        E 0 80 64 00
        E 0 80 65 00
        <X 120 0
          /wFbYmVnaW5fcGcgc29uZ190cmFpbmVyX3BnXzNd
        >
        E 0 90 1d 67
        E 0 90 35 67
        E 0 90 4d 67
        E 0 90 65 67
        E 0 90 6c 67
        E 0 90 73 64
        E 120 80 1d 00
        E 0 80 35 00
        E 0 80 4d 00
        E 0 80 65 00
        E 0 80 6c 00
        E 120 90 35 67
        E 0 90 4d 67
        E 0 90 65 67
        E 120 80 35 00
        E 0 80 4d 00
        E 0 80 65 00
        E 120 90 1d 67
        E 0 90 35 67
        E 0 90 4d 67
        E 0 90 65 67
        E 120 80 1d 00
        E 0 80 35 00
        E 0 80 4d 00
        E 0 80 65 00
        E 120 90 35 67
        E 0 90 4d 67
        E 0 90 65 67
        E 120 80 35 00
        E 0 80 4d 00
        E 0 80 65 00
        <X 120 0
          /wFbcGdfbm9ybSBzb25nX3RyYWluZXJfcGdfM10=
        >
        E 0 90 1d 67
        E 0 90 35 67
        E 0 90 4d 67
        E 0 90 65 67
        E 120 80 1d 00
        E 0 80 35 00
        E 0 80 4d 00
        E 0 80 65 00
        E 120 90 35 67
        E 0 90 4d 67
        E 0 90 65 67
        E 120 80 35 00
        E 0 80 4d 00
        E 0 80 65 00
        E 120 90 1d 67
        E 0 90 35 67
        E 0 90 4d 67
        E 0 90 65 67
        E 120 80 1d 00
        E 0 80 35 00
        E 0 80 4d 00
        E 0 80 65 00
        E 120 90 35 67
        E 0 90 4d 67
        E 0 90 65 67
        E 120 80 35 00
        E 0 80 4d 00
        E 0 80 65 00
        E 120 90 1d 67
        E 0 90 35 67
        E 0 90 4d 67
        E 0 90 65 67
        E 120 80 1d 00
        E 0 80 35 00
        E 0 80 4d 00
        E 0 80 65 00
        E 120 90 65 67
        E 1 90 35 67
        E 0 90 4d 67
        E 119 80 65 00
        E 1 80 35 00
        E 0 80 4d 00
        E 119 90 65 67
        E 1 90 1d 67
        E 0 90 35 67
        E 0 90 4d 67
        E 119 80 65 00
        E 1 80 1d 00
        E 0 80 35 00
        E 0 80 4d 00
        E 119 90 65 67
        E 1 90 35 67
        E 0 90 4d 67
        E 119 80 65 00
        E 1 80 35 00
        E 0 80 4d 00
        E 119 90 65 67
        E 1 90 1d 67
        E 0 90 35 67
        E 0 90 4d 67
        E 119 80 65 00
        E 1 80 1d 00
        E 0 80 35 00
        E 0 80 4d 00
        E 119 90 65 67
        E 1 90 35 67
        E 0 90 4d 67
        E 119 80 65 00
        E 1 80 35 00
        E 0 80 4d 00
        E 119 90 65 67
        E 1 90 35 67
        E 0 90 4d 67
        E 119 80 65 00
        E 1 80 35 00
        E 0 80 4d 00
        E 119 90 65 67
        E 1 90 4d 67
        E 119 80 65 00
        E 1 80 4d 00
        E 119 90 1d 67
        E 0 90 35 67
        E 0 90 4d 67
        E 0 90 65 67
        E 120 80 1d 00
        E 0 80 35 00
        E 0 80 4d 00
        E 0 80 65 00
        E 120 90 65 67
        E 1 90 35 67
        E 0 90 4d 67
        E 119 80 65 00
        E 1 80 35 00
        E 0 80 4d 00
        E 119 90 65 67
        E 1 90 1d 67
        E 0 90 35 67
        E 0 90 4d 67
        E 119 80 65 00
        E 1 80 1d 00
        E 0 80 35 00
        E 0 80 4d 00
        E 119 90 65 67
        E 1 90 35 67
        E 0 90 4d 67
        E 119 80 65 00
        E 1 80 35 00
        E 0 80 4d 00
        E 119 90 65 67
        E 1 90 1d 67
        E 0 90 35 67
        E 0 90 4d 67
        E 119 80 65 00
        E 1 80 1d 00
        E 0 80 35 00
        E 0 80 4d 00
        E 119 90 65 67
        E 1 90 35 67
        E 0 90 4d 67
        E 119 80 65 00
        E 1 80 35 00
        E 0 80 4d 00
        E 119 90 65 67
        E 1 90 35 67
        E 0 90 4d 67
        E 119 80 65 00
        E 1 80 35 00
        E 0 80 4d 00
        E 119 90 65 67
        E 1 90 4d 67
        E 119 80 65 00
        E 1 80 4d 00
        E 119 90 4d 69
        E 0 90 65 69
        E 0 90 74 64
        E 120 80 4d 00
        E 0 80 65 00
        E 120 90 65 69
        E 1 90 4d 69
        E 119 80 65 00
        E 1 80 4d 00
        E 119 90 65 69
        E 1 90 4d 69
        E 119 80 65 00
        E 1 80 4d 00
        E 119 90 65 69
        E 1 90 4d 69
        E 119 80 65 00
        E 1 80 4d 00
        E 119 90 65 67
        E 1 90 1d 67
        E 0 90 35 67
        E 0 90 4d 67
        E 119 80 65 00
        E 1 80 1d 00
        E 0 80 35 00
        E 0 80 4d 00
        E 119 90 65 67
        E 1 90 35 67
        E 0 90 4d 67
        E 119 80 65 00
        E 1 80 35 00
        E 0 80 4d 00
        E 119 90 65 67
        E 1 90 35 67
        E 0 90 4d 67
        E 119 80 65 00
        E 1 80 35 00
        E 0 80 4d 00
        E 119 90 65 67
        E 1 90 4d 67
        E 119 80 65 00
        E 1 80 4d 00
        <X 119 0
          /wFbZW5kX3BnIHNvbmdfdHJhaW5lcl9wZ18zXQ==
        >
        <X 0 0
          /wFbYmVnaW5fcGcgc29uZ190cmFpbmVyX3BnXzRd
        >
        E 0 90 1d 64
        E 0 90 35 64
        E 0 90 4d 64
        E 0 90 65 64
        E 0 90 6c 65
        E 120 80 74 00
        E 0 80 1d 00
        E 0 80 35 00
        E 0 80 4d 00
        E 0 80 65 00
        E 0 80 6c 00
        E 120 90 65 64
        E 1 90 35 64
        E 0 90 4d 64
        E 119 80 65 00
        E 1 80 35 00
        E 0 80 4d 00
        E 119 90 65 64
        E 1 90 1d 64
        E 0 90 35 64
        E 0 90 4d 64
        E 119 80 65 00
        E 1 80 1d 00
        E 0 80 35 00
        E 0 80 4d 00
        E 119 90 65 64
        E 1 90 35 64
        E 0 90 4d 64
        E 119 80 65 00
        E 1 80 35 00
        E 0 80 4d 00
        <X 119 0
          /wFbcGdfbm9ybSBzb25nX3RyYWluZXJfcGdfNF0=
        >
        E 0 90 65 64
        E 1 90 1d 64
        E 0 90 35 64
        E 0 90 4d 64
        E 119 80 65 00
        E 1 80 1d 00
        E 0 80 35 00
        E 0 80 4d 00
        E 119 90 65 64
        E 1 90 35 64
        E 0 90 4d 64
        E 119 80 65 00
        E 1 80 35 00
        E 0 80 4d 00
        E 119 90 65 64
        E 1 90 35 64
        E 0 90 4d 64
        E 119 80 65 00
        E 1 80 35 00
        E 0 80 4d 00
        E 119 90 65 64
        E 1 90 4d 64
        E 119 80 65 00
        E 1 80 4d 00
        E 119 90 1d 64
        E 0 90 35 64
        E 0 90 4d 64
        E 0 90 65 64
        E 120 80 1d 00
        E 0 80 35 00
        E 0 80 4d 00
        E 0 80 65 00
        E 120 90 65 64
        E 1 90 35 64
        E 0 90 4d 64
        E 119 80 65 00
        E 1 80 35 00
        E 0 80 4d 00
        E 119 90 65 64
        E 1 90 1d 64
        E 0 90 35 64
        E 0 90 4d 64
        E 119 80 65 00
        E 1 80 1d 00
        E 0 80 35 00
        E 0 80 4d 00
        E 119 90 65 64
        E 1 90 35 64
        E 0 90 4d 64
        E 119 80 65 00
        E 1 80 35 00
        E 0 80 4d 00
        E 119 90 65 64
        E 1 90 1d 64
        E 0 90 35 64
        E 0 90 4d 64
        E 119 80 65 00
        E 1 80 1d 00
        E 0 80 35 00
        E 0 80 4d 00
        E 119 90 65 64
        E 1 90 35 64
        E 0 90 4d 64
        E 119 80 65 00
        E 1 80 35 00
        E 0 80 4d 00
        E 119 90 65 64
        E 1 90 35 64
        E 0 90 4d 64
        E 119 80 65 00
        E 1 80 35 00
        E 0 80 4d 00
        E 119 90 65 64
        E 1 90 4d 64
        E 119 80 65 00
        E 1 80 4d 00
        E 119 90 1c 67
        E 0 90 34 67
        E 0 90 4c 67
        E 0 90 64 67
        E 120 80 1c 00
        E 0 80 34 00
        E 0 80 4c 00
        E 0 80 64 00
        E 120 90 64 67
        E 1 90 34 67
        E 0 90 4c 67
        E 119 80 64 00
        E 1 80 34 00
        E 0 80 4c 00
        E 119 90 64 67
        E 1 90 1c 67
        E 0 90 34 67
        E 0 90 4c 67
        E 119 80 64 00
        E 1 80 1c 00
        E 0 80 34 00
        E 0 80 4c 00
        E 119 90 64 67
        E 1 90 34 67
        E 0 90 4c 67
        E 119 80 64 00
        E 1 80 34 00
        E 0 80 4c 00
        E 119 90 64 67
        E 1 90 1c 67
        E 0 90 34 67
        E 0 90 4c 67
        E 119 80 64 00
        E 1 80 1c 00
        E 0 80 34 00
        E 0 80 4c 00
        E 119 90 64 67
        E 1 90 34 67
        E 0 90 4c 67
        E 119 80 64 00
        E 1 80 34 00
        E 0 80 4c 00
        E 119 90 64 67
        E 1 90 34 67
        E 0 90 4c 67
        E 119 80 64 00
        E 1 80 34 00
        E 0 80 4c 00
        E 119 90 64 67
        E 1 90 4c 67
        E 119 80 64 00
        E 1 80 4c 00
        E 119 90 1d 65
        E 0 90 35 65
        E 0 90 4d 65
        E 0 90 65 65
        E 120 80 1d 00
        E 0 80 35 00
        E 0 80 4d 00
        E 0 80 65 00
        E 120 90 65 65
        E 1 90 35 65
        E 0 90 4d 65
        E 119 80 65 00
        E 1 80 35 00
        E 0 80 4d 00
        E 119 90 65 65
        E 1 90 1d 65
        E 0 90 35 65
        E 0 90 4d 65
        E 119 80 65 00
        E 1 80 1d 00
        E 0 80 35 00
        E 0 80 4d 00
        E 119 90 65 65
        E 1 90 4d 65
        E 119 80 65 00
        E 1 80 4d 00
        E 119 90 65 64
        E 1 90 1d 64
        E 0 90 35 64
        E 0 90 4d 64
        E 119 80 65 00
        E 1 80 1d 00
        E 0 80 35 00
        E 0 80 4d 00
        E 119 90 65 64
        E 1 90 35 64
        E 0 90 4d 64
        E 119 80 65 00
        E 1 80 35 00
        E 0 80 4d 00
        E 119 90 65 64
        E 1 90 35 64
        E 0 90 4d 64
        E 119 80 65 00
        E 1 80 35 00
        E 0 80 4d 00
        E 119 90 65 64
        E 1 90 4d 64
        E 119 80 65 00
        E 1 80 4d 00
        <X 119 0
          /wFbZW5kX3BnIHNvbmdfdHJhaW5lcl9wZ180XQ==
        >
        <X 0 0
          /wFbYmVnaW5fcGcgc29uZ190cmFpbmVyX3BnXzVd
        >
        E 0 90 1c 65
        E 0 90 34 65
        E 0 90 4c 65
        E 0 90 64 65
        E 120 80 1c 00
        E 0 80 34 00
        E 0 80 4c 00
        E 0 80 64 00
        E 120 90 64 65
        E 1 90 34 65
        E 0 90 4c 65
        E 119 80 64 00
        E 1 80 34 00
        E 0 80 4c 00
        E 119 90 64 65
        E 1 90 1c 65
        E 0 90 34 65
        E 0 90 4c 65
        E 119 80 64 00
        E 1 80 1c 00
        E 0 80 34 00
        E 0 80 4c 00
        E 119 90 64 65
        E 1 90 34 65
        E 0 90 4c 65
        E 119 80 64 00
        E 1 80 34 00
        E 0 80 4c 00
        E 119 90 64 65
        E 1 90 1c 65
        E 0 90 34 65
        E 0 90 4c 65
        E 119 80 64 00
        E 1 80 1c 00
        E 0 80 34 00
        E 0 80 4c 00
        E 119 90 64 65
        E 1 90 34 65
        E 0 90 4c 65
        <X 119 0
          /wFbcGdfbm9ybSBzb25nX3RyYWluZXJfcGdfNV0=
        >
        E 0 80 64 00
        E 1 80 34 00
        E 0 80 4c 00
        E 119 90 64 65
        E 1 90 34 65
        E 0 90 4c 65
        E 119 80 64 00
        E 1 80 34 00
        E 0 80 4c 00
        E 119 90 64 65
        E 1 90 4c 65
        E 119 80 64 00
        E 1 80 4c 00
        E 119 90 1c 65
        E 0 90 34 65
        E 0 90 4c 65
        E 0 90 64 65
        E 120 80 1c 00
        E 0 80 34 00
        E 0 80 4c 00
        E 0 80 64 00
        E 120 90 64 65
        E 1 90 34 65
        E 0 90 4c 65
        E 119 80 64 00
        E 1 80 34 00
        E 0 80 4c 00
        E 119 90 64 65
        E 1 90 1c 65
        E 0 90 34 65
        E 0 90 4c 65
        E 119 80 64 00
        E 1 80 1c 00
        E 0 80 34 00
        E 0 80 4c 00
        E 119 90 64 65
        E 1 90 34 65
        E 0 90 4c 65
        E 119 80 64 00
        E 1 80 34 00
        E 0 80 4c 00
        E 119 90 64 65
        E 1 90 1c 65
        E 0 90 34 65
        E 0 90 4c 65
        E 119 80 64 00
        E 1 80 1c 00
        E 0 80 34 00
        E 0 80 4c 00
        E 119 90 64 65
        E 1 90 34 65
        E 0 90 4c 65
        E 119 80 64 00
        E 1 80 34 00
        E 0 80 4c 00
        E 119 90 64 65
        E 1 90 34 65
        E 0 90 4c 65
        E 119 80 64 00
        E 1 80 34 00
        E 0 80 4c 00
        E 119 90 64 65
        E 1 90 4c 65
        E 119 80 64 00
        E 1 80 4c 00
        E 119 90 1c 67
        E 0 90 34 67
        E 0 90 4c 67
        E 0 90 64 67
        E 120 80 1c 00
        E 0 80 34 00
        E 0 80 4c 00
        E 0 80 64 00
        E 120 90 64 67
        E 1 90 34 67
        E 0 90 4c 67
        E 119 80 64 00
        E 1 80 34 00
        E 0 80 4c 00
        E 119 90 64 67
        E 1 90 1c 67
        E 0 90 34 67
        E 0 90 4c 67
        E 119 80 64 00
        E 1 80 1c 00
        E 0 80 34 00
        E 0 80 4c 00
        E 119 90 64 67
        E 1 90 34 67
        E 0 90 4c 67
        E 119 80 64 00
        E 1 80 34 00
        E 0 80 4c 00
        E 119 90 64 67
        E 1 90 1c 67
        E 0 90 34 67
        E 0 90 4c 67
        E 119 80 64 00
        E 1 80 1c 00
        E 0 80 34 00
        E 0 80 4c 00
        E 119 90 64 67
        E 1 90 34 67
        E 0 90 4c 67
        E 119 80 64 00
        E 1 80 34 00
        E 0 80 4c 00
        E 119 90 64 67
        E 1 90 34 67
        E 0 90 4c 67
        E 119 80 64 00
        E 1 80 34 00
        E 0 80 4c 00
        E 119 90 64 67
        E 1 90 4c 67
        E 119 80 64 00
        E 1 80 4c 00
        E 119 90 4d 67
        E 0 90 65 67
        E 120 80 4d 00
        E 0 80 65 00
        E 120 90 65 67
        E 1 90 4d 67
        E 119 80 65 00
        E 1 80 4d 00
        E 119 90 65 67
        E 1 90 4d 67
        E 119 80 65 00
        E 1 80 4d 00
        E 119 90 65 67
        E 1 90 4d 67
        E 119 80 65 00
        E 1 80 4d 00
        E 119 90 65 64
        E 1 90 1d 64
        E 0 90 35 64
        E 0 90 4d 64
        E 119 80 65 00
        E 1 80 1d 00
        E 0 80 35 00
        E 0 80 4d 00
        E 119 90 65 64
        E 1 90 35 64
        E 0 90 4d 64
        E 119 80 65 00
        E 1 80 35 00
        E 0 80 4d 00
        E 119 90 65 64
        E 1 90 35 64
        E 0 90 4d 64
        E 119 80 65 00
        E 1 80 35 00
        E 0 80 4d 00
        E 119 90 65 64
        E 1 90 4d 64
        E 119 80 65 00
        E 1 80 4d 00
        E 119 90 1c 65
        E 0 90 34 65
        E 0 90 4c 65
        E 0 90 64 65
        E 3360 80 1c 00
        E 0 80 34 00
        E 360 80 73 00
        E 0 80 4c 00
        E 0 80 64 00
        <X 120 0
          /wFbZW5kX3BnIHNvbmdfdHJhaW5lcl9wZ181XQ==
        >
        E 0 90 0c 64
        E 0 90 10 64
        E 0 90 1a 66
        E 0 90 32 66
        E 0 90 34 65
        E 0 90 4a 66
        E 0 90 4b 64
        E 0 90 4c 65
        E 0 90 4d 67
        E 0 90 62 66
        E 0 90 63 64
        E 0 90 64 65
        E 0 90 65 67
        E 120 80 0c 00
        E 0 80 10 00
        E 0 80 1a 00
        E 0 80 32 00
        E 0 80 34 00
        E 0 80 4a 00
        E 0 80 4b 00
        E 0 80 4c 00
        E 0 80 4d 00
        E 0 80 62 00
        E 0 80 63 00
        E 0 80 64 00
        E 0 80 65 00
        E 360 90 1a 66
        E 0 90 32 66
        E 0 90 34 65
        E 0 90 4a 66
        E 0 90 4b 64
        E 0 90 4c 65
        E 0 90 4d 67
        E 0 90 62 66
        E 0 90 63 64
        E 0 90 64 65
        E 0 90 65 67
        E 120 80 1a 00
        E 0 80 32 00
        E 0 80 34 00
        E 0 80 4a 00
        E 0 80 4b 00
        E 0 80 4c 00
        E 0 80 4d 00
        E 0 80 62 00
        E 0 80 63 00
        E 0 80 64 00
        E 0 80 65 00
        E 360 90 1a 66
        E 0 90 32 66
        E 0 90 34 65
        E 0 90 4a 66
        E 0 90 4b 64
        E 0 90 4c 65
        E 0 90 4d 67
        E 0 90 62 66
        E 0 90 63 64
        E 0 90 64 65
        E 0 90 65 67
        E 120 80 1a 00
        E 0 80 32 00
        E 0 80 34 00
        E 0 80 4a 00
        E 0 80 4b 00
        E 0 80 4c 00
        E 0 80 4d 00
        E 0 80 62 00
        E 0 80 63 00
        E 0 80 64 00
        E 0 80 65 00
        E 120 90 4a 66
        E 0 90 4b 64
        E 0 90 4c 65
        E 0 90 4d 67
        E 0 90 62 66
        E 0 90 63 64
        E 0 90 64 65
        E 0 90 65 67
        E 120 80 4a 00
        E 0 80 4b 00
        E 0 80 4c 00
        E 0 80 4d 00
        E 0 80 62 00
        E 0 80 63 00
        E 0 80 64 00
        E 0 80 65 00
        E 120 90 1a 66
        E 0 90 32 66
        E 0 90 34 65
        E 0 90 4a 66
        E 0 90 4b 64
        E 0 90 4c 65
        E 0 90 4d 67
        E 0 90 62 66
        E 0 90 63 64
        E 0 90 64 65
        E 0 90 65 67
        E 120 80 1a 00
        E 0 80 32 00
        E 0 80 34 00
        E 0 80 4a 00
        E 0 80 4b 00
        E 0 80 4c 00
        E 0 80 4d 00
        E 0 80 62 00
        E 0 80 63 00
        E 0 80 64 00
        E 0 80 65 00
        E 120 90 0c 64
        E 0 90 10 64
        E 0 90 4a 64
        E 0 90 4b 64
        E 0 90 4c 65
        E 0 90 4d 67
        E 0 90 62 64
        E 0 90 63 64
        E 0 90 64 65
        E 0 90 65 67
        E 120 80 0c 00
        E 0 80 10 00
        E 0 80 4a 00
        E 0 80 4b 00
        E 0 80 4c 00
        E 0 80 4d 00
        E 0 80 62 00
        E 0 80 63 00
        E 0 80 64 00
        E 0 80 65 00
        E 360 90 34 65
        E 0 90 35 67
        E 0 90 4a 64
        E 0 90 4b 64
        E 0 90 4c 65
        E 0 90 4d 67
        E 0 90 62 64
        E 0 90 63 64
        E 0 90 64 65
        E 0 90 65 67
        E 0 9d 69 64
        E 120 80 34 00
        E 0 80 35 00
        E 0 80 4a 00
        E 0 80 4b 00
        E 0 80 4c 00
        E 0 80 4d 00
        E 0 80 62 00
        E 0 80 63 00
        E 0 80 64 00
        E 0 80 65 00
        E 0 8d 69 00
        E 360 90 4a 64
        E 0 90 4b 64
        E 0 90 4c 65
        E 0 90 4d 67
        E 0 90 62 64
        E 0 90 63 64
        E 0 90 64 65
        E 0 90 65 67
        E 0 9d 69 64
        E 120 80 4a 00
        E 0 80 4b 00
        E 0 80 4c 00
        E 0 80 4d 00
        E 0 80 62 00
        E 0 80 63 00
        E 0 80 64 00
        E 0 80 65 00
        E 0 8d 69 00
        E 120 90 1c 65
        E 0 90 34 65
        E 0 90 35 67
        E 0 90 4a 64
        E 0 90 4b 64
        E 0 90 4c 65
        E 0 90 4d 67
        E 0 90 62 64
        E 0 90 63 64
        E 0 90 64 65
        E 0 90 65 67
        E 0 9f 69 64
        E 120 80 1c 00
        E 0 80 34 00
        E 0 80 35 00
        E 0 80 4a 00
        E 0 80 4b 00
        E 0 80 4c 00
        E 0 80 4d 00
        E 0 80 62 00
        E 0 80 63 00
        E 0 80 64 00
        E 0 80 65 00
        E 0 8f 69 00
        E 120 90 34 65
        E 0 90 35 67
        E 0 90 4a 64
        E 0 90 4b 64
        E 0 90 4c 65
        E 0 90 4d 67
        E 0 90 62 64
        E 0 90 63 64
        E 0 90 64 65
        E 0 90 65 67
        E 0 9f 69 64
        E 120 80 34 00
        E 0 80 35 00
        E 0 80 4a 00
        E 0 80 4b 00
        E 0 80 4c 00
        E 0 80 4d 00
        E 0 80 62 00
        E 0 80 63 00
        E 0 80 64 00
        E 0 80 65 00
        E 0 8f 69 00
        E 120 90 34 65
        E 0 90 35 67
        E 0 90 4a 64
        E 0 90 4b 64
        E 0 90 4c 65
        E 0 90 4d 67
        E 0 90 62 64
        E 0 90 63 64
        E 0 90 64 65
        E 0 90 65 67
        E 0 9f 69 64
        E 120 80 34 00
        E 0 80 35 00
        E 0 80 4a 00
        E 0 80 4b 00
        E 0 80 4c 00
        E 0 80 4d 00
        E 0 80 62 00
        E 0 80 63 00
        E 0 80 64 00
        E 0 80 65 00
        E 0 8f 69 00
        E 120 93 4b 66
        E 0 93 4c 65
        E 0 93 4d 67
        E 0 93 63 66
        E 0 93 64 65
        E 0 93 65 67
        E 120 83 4b 00
        E 0 83 4c 00
        E 0 83 4d 00
        E 0 83 63 00
        E 0 83 64 00
        E 0 83 65 00
        <X 120 0
          /wFbYmVnaW5fcGcgc29uZ190cmFpbmVyX3BnXzZd
        >
        E 0 90 0c 64
        E 0 90 10 64
        E 0 90 1b 66
        E 0 90 33 66
        E 0 90 34 65
        E 0 90 4b 66
        E 0 90 4c 65
        E 0 90 4d 67
        E 0 90 63 66
        E 0 90 64 65
        E 0 90 65 67
        E 120 80 0c 00
        E 0 80 10 00
        E 0 80 1b 00
        E 0 80 33 00
        E 0 80 34 00
        E 0 80 4b 00
        E 0 80 4c 00
        E 0 80 4d 00
        E 0 80 63 00
        E 0 80 64 00
        E 0 80 65 00
        E 360 90 1b 66
        E 0 90 33 66
        E 0 90 34 65
        E 0 90 4b 66
        E 0 90 4c 65
        E 0 90 4d 67
        E 0 90 63 66
        E 0 90 64 65
        E 0 90 65 67
        E 120 80 1b 00
        E 0 80 33 00
        E 0 80 34 00
        E 0 80 4b 00
        E 0 80 4c 00
        E 0 80 4d 00
        E 0 80 63 00
        E 0 80 64 00
        E 0 80 65 00
        <X 360 0
          /wFbcGdfbm9ybSBzb25nX3RyYWluZXJfcGdfNl0=
        >
        E 0 90 1b 66
        E 0 90 33 66
        E 0 90 34 65
        E 0 90 4b 66
        E 0 90 4c 65
        E 0 90 4d 67
        E 0 90 63 66
        E 0 90 64 65
        E 0 90 65 67
        E 120 80 1b 00
        E 0 80 33 00
        E 0 80 34 00
        E 0 80 4b 00
        E 0 80 4c 00
        E 0 80 4d 00
        E 0 80 63 00
        E 0 80 64 00
        E 0 80 65 00
        E 120 90 4b 66
        E 0 90 4c 65
        E 0 90 4d 67
        E 0 90 63 66
        E 0 90 64 65
        E 0 90 65 67
        E 120 80 4b 00
        E 0 80 4c 00
        E 0 80 4d 00
        E 0 80 63 00
        E 0 80 64 00
        E 0 80 65 00
        E 120 90 1b 66
        E 0 90 33 66
        E 0 90 34 65
        E 0 90 4b 66
        E 0 90 4c 65
        E 0 90 4d 67
        E 0 90 63 66
        E 0 90 64 65
        E 0 90 65 67
        E 120 80 1b 00
        E 0 80 33 00
        E 0 80 34 00
        E 0 80 4b 00
        E 0 80 4c 00
        E 0 80 4d 00
        E 0 80 63 00
        E 0 80 64 00
        E 0 80 65 00
        E 120 90 4b 66
        E 0 90 4c 65
        E 0 90 4d 67
        E 0 90 63 66
        E 0 90 64 65
        E 0 90 65 67
        E 120 80 4b 00
        E 0 80 4c 00
        E 0 80 4d 00
        E 0 80 63 00
        E 0 80 64 00
        E 0 80 65 00
        E 360 90 33 66
        E 0 90 34 65
        E 0 90 4b 66
        E 0 90 4c 65
        E 0 90 4d 67
        E 0 90 63 66
        E 0 90 64 65
        E 0 90 65 67
        E 120 80 33 00
        E 0 80 34 00
        E 0 80 4b 00
        E 0 80 4c 00
        E 0 80 4d 00
        E 0 80 63 00
        E 0 80 64 00
        E 0 80 65 00
        E 360 90 33 66
        E 0 90 34 65
        E 0 90 4b 66
        E 0 90 4c 65
        E 0 90 4d 67
        E 0 90 63 66
        E 0 90 64 65
        E 0 90 65 67
        E 120 80 33 00
        E 0 80 34 00
        E 0 80 4b 00
        E 0 80 4c 00
        E 0 80 4d 00
        E 0 80 63 00
        E 0 80 64 00
        E 0 80 65 00
        E 120 90 1b 66
        E 0 90 33 66
        E 0 90 34 65
        E 0 90 4b 66
        E 0 90 4c 65
        E 0 90 4d 67
        E 0 90 63 66
        E 0 90 64 65
        E 0 90 65 67
        E 120 80 1b 00
        E 0 80 33 00
        E 0 80 34 00
        E 0 80 4b 00
        E 0 80 4c 00
        E 0 80 4d 00
        E 0 80 63 00
        E 0 80 64 00
        E 0 80 65 00
        E 120 90 4b 66
        E 0 90 4c 65
        E 0 90 4d 67
        E 0 90 63 66
        E 0 90 64 65
        E 0 90 65 67
        E 120 80 4b 00
        E 0 80 4c 00
        E 0 80 4d 00
        E 0 80 63 00
        E 0 80 64 00
        E 0 80 65 00
        E 120 90 1b 66
        E 0 90 33 66
        E 0 90 34 65
        E 0 90 4b 66
        E 0 90 4c 65
        E 0 90 4d 67
        E 0 90 63 66
        E 0 90 64 65
        E 0 90 65 67
        E 120 80 1b 00
        E 0 80 33 00
        E 0 80 34 00
        E 0 80 4b 00
        E 0 80 4c 00
        E 0 80 4d 00
        E 0 80 63 00
        E 0 80 64 00
        E 0 80 65 00
        E 120 93 4a 66
        E 0 93 4b 66
        E 0 93 4c 65
        E 0 93 4d 67
        E 0 93 62 66
        E 0 93 63 66
        E 0 93 64 65
        E 0 93 65 67
        E 120 83 4a 00
        E 0 83 4b 00
        E 0 83 4c 00
        E 0 83 4d 00
        E 0 83 62 00
        E 0 83 63 00
        E 0 83 64 00
        E 0 83 65 00
        E 120 90 0c 64
        E 0 90 10 64
        E 0 90 1a 66
        E 0 90 32 66
        E 0 90 34 65
        E 0 90 4a 66
        E 0 90 4b 64
        E 0 90 4c 65
        E 0 90 4d 67
        E 0 90 62 66
        E 0 90 63 64
        E 0 90 64 65
        E 0 90 65 67
        E 120 80 0c 00
        E 0 80 10 00
        E 0 80 1a 00
        E 0 80 32 00
        E 0 80 34 00
        E 0 80 4a 00
        E 0 80 4b 00
        E 0 80 4c 00
        E 0 80 4d 00
        E 0 80 62 00
        E 0 80 63 00
        E 0 80 64 00
        E 0 80 65 00
        E 360 90 1a 66
        E 0 90 32 66
        E 0 90 34 65
        E 0 90 4a 66
        E 0 90 4b 64
        E 0 90 4c 65
        E 0 90 4d 67
        E 0 90 62 66
        E 0 90 63 64
        E 0 90 64 65
        E 0 90 65 67
        E 120 80 1a 00
        E 0 80 32 00
        E 0 80 34 00
        E 0 80 4a 00
        E 0 80 4b 00
        E 0 80 4c 00
        E 0 80 4d 00
        E 0 80 62 00
        E 0 80 63 00
        E 0 80 64 00
        E 0 80 65 00
        E 360 90 1a 66
        E 0 90 32 66
        E 0 90 34 65
        E 0 90 4a 66
        E 0 90 4b 64
        E 0 90 4c 65
        E 0 90 4d 67
        E 0 90 62 66
        E 0 90 63 64
        E 0 90 64 65
        E 0 90 65 67
        E 120 80 1a 00
        E 0 80 32 00
        E 0 80 34 00
        E 0 80 4a 00
        E 0 80 4b 00
        E 0 80 4c 00
        E 0 80 4d 00
        E 0 80 62 00
        E 0 80 63 00
        E 0 80 64 00
        E 0 80 65 00
        E 120 90 4a 66
        E 0 90 4b 64
        E 0 90 4c 65
        E 0 90 4d 67
        E 0 90 62 66
        E 0 90 63 64
        E 0 90 64 65
        E 0 90 65 67
        E 120 80 4a 00
        E 0 80 4b 00
        E 0 80 4c 00
        E 0 80 4d 00
        E 0 80 62 00
        E 0 80 63 00
        E 0 80 64 00
        E 0 80 65 00
        E 120 90 1a 66
        E 0 90 32 66
        E 0 90 34 65
        E 0 90 4a 66
        E 0 90 4b 64
        E 0 90 4c 65
        E 0 90 4d 67
        E 0 90 62 66
        E 0 90 63 64
        E 0 90 64 65
        E 0 90 65 67
        E 120 80 1a 00
        E 0 80 32 00
        E 0 80 34 00
        E 0 80 4a 00
        E 0 80 4b 00
        E 0 80 4c 00
        E 0 80 4d 00
        E 0 80 62 00
        E 0 80 63 00
        E 0 80 64 00
        E 0 80 65 00
        E 120 90 0c 64
        E 0 90 10 64
        E 0 90 4a 64
        E 0 90 4b 64
        E 0 90 4c 65
        E 0 90 4d 67
        E 0 90 62 64
        E 0 90 63 64
        E 0 90 64 65
        E 0 90 65 67
        E 120 80 0c 00
        E 0 80 10 00
        E 0 80 4a 00
        E 0 80 4b 00
        E 0 80 4c 00
        E 0 80 4d 00
        E 0 80 62 00
        E 0 80 63 00
        E 0 80 64 00
        E 0 80 65 00
        E 360 90 34 65
        E 0 90 35 67
        E 0 90 4a 64
        E 0 90 4b 64
        E 0 90 4c 65
        E 0 90 4d 67
        E 0 90 62 64
        E 0 90 63 64
        E 0 90 64 65
        E 0 90 65 67
        E 0 9d 69 64
        E 120 80 34 00
        E 0 80 35 00
        E 0 80 4a 00
        E 0 80 4b 00
        E 0 80 4c 00
        E 0 80 4d 00
        E 0 80 62 00
        E 0 80 63 00
        E 0 80 64 00
        E 0 80 65 00
        E 0 8d 69 00
        E 360 90 4a 64
        E 0 90 4b 64
        E 0 90 4c 65
        E 0 90 4d 67
        E 0 90 62 64
        E 0 90 63 64
        E 0 90 64 65
        E 0 90 65 67
        E 0 9d 69 64
        E 120 80 4a 00
        E 0 80 4b 00
        E 0 80 4c 00
        E 0 80 4d 00
        E 0 80 62 00
        E 0 80 63 00
        E 0 80 64 00
        E 0 80 65 00
        E 0 8d 69 00
        E 120 90 1c 65
        E 0 90 34 65
        E 0 90 35 67
        E 0 90 4a 64
        E 0 90 4b 64
        E 0 90 4c 65
        E 0 90 4d 67
        E 0 90 62 64
        E 0 90 63 64
        E 0 90 64 65
        E 0 90 65 67
        E 0 9f 69 64
        E 120 80 1c 00
        E 0 80 34 00
        E 0 80 35 00
        E 0 80 4a 00
        E 0 80 4b 00
        E 0 80 4c 00
        E 0 80 4d 00
        E 0 80 62 00
        E 0 80 63 00
        E 0 80 64 00
        E 0 80 65 00
        E 0 8f 69 00
        E 120 90 34 65
        E 0 90 35 67
        E 0 90 4a 64
        E 0 90 4b 64
        E 0 90 4c 65
        E 0 90 4d 67
        E 0 90 62 64
        E 0 90 63 64
        E 0 90 64 65
        E 0 90 65 67
        E 0 9f 69 64
        E 120 80 34 00
        E 0 80 35 00
        E 0 80 4a 00
        E 0 80 4b 00
        E 0 80 4c 00
        E 0 80 4d 00
        E 0 80 62 00
        E 0 80 63 00
        E 0 80 64 00
        E 0 80 65 00
        E 0 8f 69 00
        E 120 90 34 65
        E 0 90 35 67
        E 0 90 4a 64
        E 0 90 4b 64
        E 0 90 4c 65
        E 0 90 4d 67
        E 0 90 62 64
        E 0 90 63 64
        E 0 90 64 65
        E 0 90 65 67
        E 0 9f 69 64
        E 120 80 34 00
        E 0 80 35 00
        E 0 80 4a 00
        E 0 80 4b 00
        E 0 80 4c 00
        E 0 80 4d 00
        E 0 80 62 00
        E 0 80 63 00
        E 0 80 64 00
        E 0 80 65 00
        E 0 8f 69 00
        E 120 93 4b 66
        E 0 93 4c 65
        E 0 93 4d 67
        E 0 93 63 66
        E 0 93 64 65
        E 0 93 65 67
        E 120 83 4b 00
        E 0 83 4c 00
        E 0 83 4d 00
        E 0 83 63 00
        E 0 83 64 00
        E 0 83 65 00
        <X 120 0
          /wFbZW5kX3BnIHNvbmdfdHJhaW5lcl9wZ182XQ==
        >
        E 0 90 0c 64
        E 0 90 10 64
        E 0 90 1b 66
        E 0 90 33 66
        E 0 90 34 65
        E 0 90 4b 66
        E 0 90 4c 65
        E 0 90 4d 67
        E 0 90 63 66
        E 0 90 64 65
        E 0 90 65 67
        E 120 80 0c 00
        E 0 80 10 00
        E 0 80 1b 00
        E 0 80 33 00
        E 0 80 34 00
        E 0 80 4b 00
        E 0 80 4c 00
        E 0 80 4d 00
        E 0 80 63 00
        E 0 80 64 00
        E 0 80 65 00
        E 360 90 1b 66
        E 0 90 33 66
        E 0 90 34 65
        E 0 90 4b 66
        E 0 90 4c 65
        E 0 90 4d 67
        E 0 90 63 66
        E 0 90 64 65
        E 0 90 65 67
        E 120 80 1b 00
        E 0 80 33 00
        E 0 80 34 00
        E 0 80 4b 00
        E 0 80 4c 00
        E 0 80 4d 00
        E 0 80 63 00
        E 0 80 64 00
        E 0 80 65 00
        E 360 90 1b 66
        E 0 90 33 66
        E 0 90 34 65
        E 0 90 4b 66
        E 0 90 4c 65
        E 0 90 4d 67
        E 0 90 63 66
        E 0 90 64 65
        E 0 90 65 67
        E 120 80 1b 00
        E 0 80 33 00
        E 0 80 34 00
        E 0 80 4b 00
        E 0 80 4c 00
        E 0 80 4d 00
        E 0 80 63 00
        E 0 80 64 00
        E 0 80 65 00
        E 120 90 4b 66
        E 0 90 4c 65
        E 0 90 4d 67
        E 0 90 63 66
        E 0 90 64 65
        E 0 90 65 67
        E 120 80 4b 00
        E 0 80 4c 00
        E 0 80 4d 00
        E 0 80 63 00
        E 0 80 64 00
        E 0 80 65 00
        E 120 90 1b 66
        E 0 90 33 66
        E 0 90 34 65
        E 0 90 4b 66
        E 0 90 4c 65
        E 0 90 4d 67
        E 0 90 63 66
        E 0 90 64 65
        E 0 90 65 67
        E 120 80 1b 00
        E 0 80 33 00
        E 0 80 34 00
        E 0 80 4b 00
        E 0 80 4c 00
        E 0 80 4d 00
        E 0 80 63 00
        E 0 80 64 00
        E 0 80 65 00
        E 120 90 4b 66
        E 0 90 4c 65
        E 0 90 4d 67
        E 0 90 63 66
        E 0 90 64 65
        E 0 90 65 67
        E 120 80 4b 00
        E 0 80 4c 00
        E 0 80 4d 00
        E 0 80 63 00
        E 0 80 64 00
        E 0 80 65 00
        E 360 90 33 66
        E 0 90 34 65
        E 0 90 4b 66
        E 0 90 4c 65
        E 0 90 4d 67
        E 0 90 63 66
        E 0 90 64 65
        E 0 90 65 67
        E 120 80 33 00
        E 0 80 34 00
        E 0 80 4b 00
        E 0 80 4c 00
        E 0 80 4d 00
        E 0 80 63 00
        E 0 80 64 00
        E 0 80 65 00
        E 360 90 33 66
        E 0 90 34 65
        E 0 90 4b 66
        E 0 90 4c 65
        E 0 90 4d 67
        E 0 90 63 66
        E 0 90 64 65
        E 0 90 65 67
        E 120 80 33 00
        E 0 80 34 00
        E 0 80 4b 00
        E 0 80 4c 00
        E 0 80 4d 00
        E 0 80 63 00
        E 0 80 64 00
        E 0 80 65 00
        E 120 90 1b 66
        E 0 90 33 66
        E 0 90 34 65
        E 0 90 4b 66
        E 0 90 4c 65
        E 0 90 4d 67
        E 0 90 63 66
        E 0 90 64 65
        E 0 90 65 67
        E 120 80 1b 00
        E 0 80 33 00
        E 0 80 34 00
        E 0 80 4b 00
        E 0 80 4c 00
        E 0 80 4d 00
        E 0 80 63 00
        E 0 80 64 00
        E 0 80 65 00
        E 120 90 4b 66
        E 0 90 4c 65
        E 0 90 4d 67
        E 0 90 63 66
        E 0 90 64 65
        E 0 90 65 67
        E 120 80 4b 00
        E 0 80 4c 00
        E 0 80 4d 00
        E 0 80 63 00
        E 0 80 64 00
        E 0 80 65 00
        E 120 90 1b 66
        E 0 90 33 66
        E 0 90 34 65
        E 0 90 4b 66
        E 0 90 4c 65
        E 0 90 4d 67
        E 0 90 63 66
        E 0 90 64 65
        E 0 90 65 67
        E 120 80 1b 00
        E 0 80 33 00
        E 0 80 34 00
        E 0 80 4b 00
        E 0 80 4c 00
        E 0 80 4d 00
        E 0 80 63 00
        E 0 80 64 00
        E 0 80 65 00
        E 120 93 4a 66
        E 0 93 4b 66
        E 0 93 4c 65
        E 0 93 4d 67
        E 0 93 62 66
        E 0 93 63 66
        E 0 93 64 65
        E 0 93 65 67
        E 120 83 4a 00
        E 0 83 4b 00
        E 0 83 4c 00
        E 0 83 4d 00
        E 0 83 62 00
        E 0 83 63 00
        E 0 83 64 00
        E 0 83 65 00
        E 120 90 0c 64
        E 0 90 10 64
        E 0 90 1a 66
        E 0 90 32 66
        E 0 90 34 65
        E 0 90 4a 66
        E 0 90 4b 64
        E 0 90 4c 65
        E 0 90 4d 67
        E 0 90 62 66
        E 0 90 63 64
        E 0 90 64 65
        E 0 90 65 67
        E 120 80 0c 00
        E 0 80 10 00
        E 0 80 1a 00
        E 0 80 32 00
        E 0 80 34 00
        E 0 80 4a 00
        E 0 80 4b 00
        E 0 80 4c 00
        E 0 80 4d 00
        E 0 80 62 00
        E 0 80 63 00
        E 0 80 64 00
        E 0 80 65 00
        E 360 90 1a 66
        E 0 90 32 66
        E 0 90 34 65
        E 0 90 4a 66
        E 0 90 4b 64
        E 0 90 4c 65
        E 0 90 4d 67
        E 0 90 62 66
        E 0 90 63 64
        E 0 90 64 65
        E 0 90 65 67
        E 120 80 1a 00
        E 0 80 32 00
        E 0 80 34 00
        E 0 80 4a 00
        E 0 80 4b 00
        E 0 80 4c 00
        E 0 80 4d 00
        E 0 80 62 00
        E 0 80 63 00
        E 0 80 64 00
        E 0 80 65 00
        E 360 90 1a 66
        E 0 90 32 66
        E 0 90 34 65
        E 0 90 4a 66
        E 0 90 4b 64
        E 0 90 4c 65
        E 0 90 4d 67
        E 0 90 62 66
        E 0 90 63 64
        E 0 90 64 65
        E 0 90 65 67
        E 120 80 1a 00
        E 0 80 32 00
        E 0 80 34 00
        E 0 80 4a 00
        E 0 80 4b 00
        E 0 80 4c 00
        E 0 80 4d 00
        E 0 80 62 00
        E 0 80 63 00
        E 0 80 64 00
        E 0 80 65 00
        E 120 90 4a 66
        E 0 90 4b 64
        E 0 90 4c 65
        E 0 90 4d 67
        E 0 90 62 66
        E 0 90 63 64
        E 0 90 64 65
        E 0 90 65 67
        E 120 80 4a 00
        E 0 80 4b 00
        E 0 80 4c 00
        E 0 80 4d 00
        E 0 80 62 00
        E 0 80 63 00
        E 0 80 64 00
        E 0 80 65 00
        E 120 90 1a 66
        E 0 90 32 66
        E 0 90 34 65
        E 0 90 4a 66
        E 0 90 4b 64
        E 0 90 4c 65
        E 0 90 4d 67
        E 0 90 62 66
        E 0 90 63 64
        E 0 90 64 65
        E 0 90 65 67
        E 120 80 1a 00
        E 0 80 32 00
        E 0 80 34 00
        E 0 80 4a 00
        E 0 80 4b 00
        E 0 80 4c 00
        E 0 80 4d 00
        E 0 80 62 00
        E 0 80 63 00
        E 0 80 64 00
        E 0 80 65 00
        E 120 90 0c 64
        E 0 90 10 64
        E 0 90 4a 64
        E 0 90 4b 64
        E 0 90 4c 65
        E 0 90 4d 67
        E 0 90 62 64
        E 0 90 63 64
        E 0 90 64 65
        E 0 90 65 67
        E 120 80 0c 00
        E 0 80 10 00
        E 0 80 4a 00
        E 0 80 4b 00
        E 0 80 4c 00
        E 0 80 4d 00
        E 0 80 62 00
        E 0 80 63 00
        E 0 80 64 00
        E 0 80 65 00
        E 360 90 34 65
        E 0 90 35 67
        E 0 90 4a 64
        E 0 90 4b 64
        E 0 90 4c 65
        E 0 90 4d 67
        E 0 90 62 64
        E 0 90 63 64
        E 0 90 64 65
        E 0 90 65 67
        E 0 9d 69 64
        E 120 80 34 00
        E 0 80 35 00
        E 0 80 4a 00
        E 0 80 4b 00
        E 0 80 4c 00
        E 0 80 4d 00
        E 0 80 62 00
        E 0 80 63 00
        E 0 80 64 00
        E 0 80 65 00
        E 0 8d 69 00
        E 360 90 4a 64
        E 0 90 4b 64
        E 0 90 4c 65
        E 0 90 4d 67
        E 0 90 62 64
        E 0 90 63 64
        E 0 90 64 65
        E 0 90 65 67
        E 0 9d 69 64
        E 120 80 4a 00
        E 0 80 4b 00
        E 0 80 4c 00
        E 0 80 4d 00
        E 0 80 62 00
        E 0 80 63 00
        E 0 80 64 00
        E 0 80 65 00
        E 0 8d 69 00
        E 120 90 1c 65
        E 0 90 34 65
        E 0 90 35 67
        E 0 90 4a 64
        E 0 90 4b 64
        E 0 90 4c 65
        E 0 90 4d 67
        E 0 90 62 64
        E 0 90 63 64
        E 0 90 64 65
        E 0 90 65 67
        E 0 9f 69 64
        E 120 80 1c 00
        E 0 80 34 00
        E 0 80 35 00
        E 0 80 4a 00
        E 0 80 4b 00
        E 0 80 4c 00
        E 0 80 4d 00
        E 0 80 62 00
        E 0 80 63 00
        E 0 80 64 00
        E 0 80 65 00
        E 0 8f 69 00
        E 120 90 34 65
        E 0 90 35 67
        E 0 90 4a 64
        E 0 90 4b 64
        E 0 90 4c 65
        E 0 90 4d 67
        E 0 90 62 64
        E 0 90 63 64
        E 0 90 64 65
        E 0 90 65 67
        E 0 9f 69 64
        E 120 80 34 00
        E 0 80 35 00
        E 0 80 4a 00
        E 0 80 4b 00
        E 0 80 4c 00
        E 0 80 4d 00
        E 0 80 62 00
        E 0 80 63 00
        E 0 80 64 00
        E 0 80 65 00
        E 0 8f 69 00
        E 120 90 34 65
        E 0 90 35 67
        E 0 90 4a 64
        E 0 90 4b 64
        E 0 90 4c 65
        E 0 90 4d 67
        E 0 90 62 64
        E 0 90 63 64
        E 0 90 64 65
        E 0 90 65 67
        E 0 9f 69 64
        E 120 80 34 00
        E 0 80 35 00
        E 0 80 4a 00
        E 0 80 4b 00
        E 0 80 4c 00
        E 0 80 4d 00
        E 0 80 62 00
        E 0 80 63 00
        E 0 80 64 00
        E 0 80 65 00
        E 0 8f 69 00
        E 120 93 4b 66
        E 0 93 4c 65
        E 0 93 4d 67
        E 0 93 63 66
        E 0 93 64 65
        E 0 93 65 67
        E 120 83 4b 00
        E 0 83 4c 00
        E 0 83 4d 00
        E 0 83 63 00
        E 0 83 64 00
        E 0 83 65 00
        E 120 90 0c 64
        E 0 90 10 64
        E 0 90 1b 66
        E 0 90 33 66
        E 0 90 34 65
        E 0 90 4b 66
        E 0 90 4c 65
        E 0 90 4d 67
        E 0 90 63 66
        E 0 90 64 65
        E 0 90 65 67
        E 120 80 0c 00
        E 0 80 10 00
        E 0 80 1b 00
        E 0 80 33 00
        E 0 80 34 00
        E 0 80 4b 00
        E 0 80 4c 00
        E 0 80 4d 00
        E 0 80 63 00
        E 0 80 64 00
        E 0 80 65 00
        E 360 90 1b 66
        E 0 90 33 66
        E 0 90 34 65
        E 0 90 4b 66
        E 0 90 4c 65
        E 0 90 4d 67
        E 0 90 63 66
        E 0 90 64 65
        E 0 90 65 67
        E 120 80 1b 00
        E 0 80 33 00
        E 0 80 34 00
        E 0 80 4b 00
        E 0 80 4c 00
        E 0 80 4d 00
        E 0 80 63 00
        E 0 80 64 00
        E 0 80 65 00
        E 360 90 1b 66
        E 0 90 33 66
        E 0 90 34 65
        E 0 90 4b 66
        E 0 90 4c 65
        E 0 90 4d 67
        E 0 90 63 66
        E 0 90 64 65
        E 0 90 65 67
        E 120 80 1b 00
        E 0 80 33 00
        E 0 80 34 00
        E 0 80 4b 00
        E 0 80 4c 00
        E 0 80 4d 00
        E 0 80 63 00
        E 0 80 64 00
        E 0 80 65 00
        E 120 90 4b 66
        E 0 90 4c 65
        E 0 90 4d 67
        E 0 90 63 66
        E 0 90 64 65
        E 0 90 65 67
        E 120 80 4b 00
        E 0 80 4c 00
        E 0 80 4d 00
        E 0 80 63 00
        E 0 80 64 00
        E 0 80 65 00
        E 120 90 1b 66
        E 0 90 33 66
        E 0 90 34 65
        E 0 90 4b 66
        E 0 90 4c 65
        E 0 90 4d 67
        E 0 90 63 66
        E 0 90 64 65
        E 0 90 65 67
        E 120 80 1b 00
        E 0 80 33 00
        E 0 80 34 00
        E 0 80 4b 00
        E 0 80 4c 00
        E 0 80 4d 00
        E 0 80 63 00
        E 0 80 64 00
        E 0 80 65 00
        E 120 90 4b 66
        E 0 90 4c 65
        E 0 90 4d 67
        E 0 90 63 66
        E 0 90 64 65
        E 0 90 65 67
        E 120 80 4b 00
        E 0 80 4c 00
        E 0 80 4d 00
        E 0 80 63 00
        E 0 80 64 00
        E 0 80 65 00
        E 120 90 74 64
        E 240 90 33 66
        E 0 90 34 65
        E 0 90 4b 66
        E 0 90 4c 65
        E 0 90 4d 67
        E 0 90 63 66
        E 0 90 64 65
        E 0 90 65 67
        E 120 80 33 00
        E 0 80 34 00
        E 0 80 4b 00
        E 0 80 4c 00
        E 0 80 4d 00
        E 0 80 63 00
        E 0 80 64 00
        E 0 80 65 00
        E 360 90 33 66
        E 0 90 34 65
        E 0 90 4b 66
        E 0 90 4c 65
        E 0 90 4d 67
        E 0 90 63 66
        E 0 90 64 65
        E 0 90 65 67
        E 120 80 33 00
        E 0 80 34 00
        E 0 80 4b 00
        E 0 80 4c 00
        E 0 80 4d 00
        E 0 80 63 00
        E 0 80 64 00
        E 0 80 65 00
        E 120 90 1b 66
        E 0 90 33 66
        E 0 90 34 65
        E 0 90 4b 66
        E 0 90 4c 65
        E 0 90 4d 67
        E 0 90 63 66
        E 0 90 64 65
        E 0 90 65 67
        E 120 80 1b 00
        E 0 80 33 00
        E 0 80 34 00
        E 0 80 4b 00
        E 0 80 4c 00
        E 0 80 4d 00
        E 0 80 63 00
        E 0 80 64 00
        E 0 80 65 00
        E 120 90 4b 66
        E 0 90 4c 65
        E 0 90 4d 67
        E 0 90 63 66
        E 0 90 64 65
        E 0 90 65 67
        E 120 80 4b 00
        E 0 80 4c 00
        E 0 80 4d 00
        E 0 80 63 00
        E 0 80 64 00
        E 0 80 65 00
        E 120 90 1b 66
        E 0 90 33 66
        E 0 90 34 65
        E 0 90 4b 66
        E 0 90 4c 65
        E 0 90 4d 67
        E 0 90 63 66
        E 0 90 64 65
        E 0 90 65 67
        E 120 80 1b 00
        E 0 80 33 00
        E 0 80 34 00
        E 0 80 4b 00
        E 0 80 4c 00
        E 0 80 4d 00
        E 0 80 63 00
        E 0 80 64 00
        E 0 80 65 00
        E 120 93 4a 66
        E 0 93 4b 66
        E 0 93 4c 65
        E 0 93 4d 67
        E 0 93 62 66
        E 0 93 63 66
        E 0 93 64 65
        E 0 93 65 67
        E 120 83 4a 00
        E 0 83 4b 00
        E 0 83 4c 00
        E 0 83 4d 00
        E 0 83 62 00
        E 0 83 63 00
        E 0 83 64 00
        E 0 83 65 00
        E 120 90 0c 64
        E 0 90 10 64
        E 0 90 1a 66
        E 0 90 32 66
        E 0 90 34 65
        E 0 90 4a 66
        E 0 90 4b 64
        E 0 90 4c 65
        E 0 90 4d 67
        E 0 90 62 66
        E 0 90 63 64
        E 0 90 64 65
        E 0 90 65 67
        E 120 80 74 00
        E 0 80 0c 00
        E 0 80 10 00
        E 0 80 1a 00
        E 0 80 32 00
        E 0 80 34 00
        E 0 80 4a 00
        E 0 80 4b 00
        E 0 80 4c 00
        E 0 80 4d 00
        E 0 80 62 00
        E 0 80 63 00
        E 0 80 64 00
        E 0 80 65 00
        E 360 90 1a 66
        E 0 90 32 66
        E 0 90 34 65
        E 0 90 4a 66
        E 0 90 4b 64
        E 0 90 4c 65
        E 0 90 4d 67
        E 0 90 62 66
        E 0 90 63 64
        E 0 90 64 65
        E 0 90 65 67
        E 120 80 1a 00
        E 0 80 32 00
        E 0 80 34 00
        E 0 80 4a 00
        E 0 80 4b 00
        E 0 80 4c 00
        E 0 80 4d 00
        E 0 80 62 00
        E 0 80 63 00
        E 0 80 64 00
        E 0 80 65 00
        E 360 90 1a 66
        E 0 90 32 66
        E 0 90 34 65
        E 0 90 4a 66
        E 0 90 4b 64
        E 0 90 4c 65
        E 0 90 4d 67
        E 0 90 62 66
        E 0 90 63 64
        E 0 90 64 65
        E 0 90 65 67
        E 120 80 1a 00
        E 0 80 32 00
        E 0 80 34 00
        E 0 80 4a 00
        E 0 80 4b 00
        E 0 80 4c 00
        E 0 80 4d 00
        E 0 80 62 00
        E 0 80 63 00
        E 0 80 64 00
        E 0 80 65 00
        E 120 90 4a 66
        E 0 90 4b 64
        E 0 90 4c 65
        E 0 90 4d 67
        E 0 90 62 66
        E 0 90 63 64
        E 0 90 64 65
        E 0 90 65 67
        E 120 80 4a 00
        E 0 80 4b 00
        E 0 80 4c 00
        E 0 80 4d 00
        E 0 80 62 00
        E 0 80 63 00
        E 0 80 64 00
        E 0 80 65 00
        E 120 90 1a 66
        E 0 90 32 66
        E 0 90 34 65
        E 0 90 4a 66
        E 0 90 4b 64
        E 0 90 4c 65
        E 0 90 4d 67
        E 0 90 62 66
        E 0 90 63 64
        E 0 90 64 65
        E 0 90 65 67
        E 120 80 1a 00
        E 0 80 32 00
        E 0 80 34 00
        E 0 80 4a 00
        E 0 80 4b 00
        E 0 80 4c 00
        E 0 80 4d 00
        E 0 80 62 00
        E 0 80 63 00
        E 0 80 64 00
        E 0 80 65 00
        E 120 90 0c 64
        E 0 90 10 64
        E 0 90 4a 64
        E 0 90 4b 64
        E 0 90 4c 65
        E 0 90 4d 67
        E 0 90 62 64
        E 0 90 63 64
        E 0 90 64 65
        E 0 90 65 67
        E 120 80 0c 00
        E 0 80 10 00
        E 0 80 4a 00
        E 0 80 4b 00
        E 0 80 4c 00
        E 0 80 4d 00
        E 0 80 62 00
        E 0 80 63 00
        E 0 80 64 00
        E 0 80 65 00
        E 360 90 34 65
        E 0 90 35 67
        E 0 90 4a 64
        E 0 90 4b 64
        E 0 90 4c 65
        E 0 90 4d 67
        E 0 90 62 64
        E 0 90 63 64
        E 0 90 64 65
        E 0 90 65 67
        E 0 9d 69 64
        E 120 80 34 00
        E 0 80 35 00
        E 0 80 4a 00
        E 0 80 4b 00
        E 0 80 4c 00
        E 0 80 4d 00
        E 0 80 62 00
        E 0 80 63 00
        E 0 80 64 00
        E 0 80 65 00
        E 0 8d 69 00
        E 360 90 4a 64
        E 0 90 4b 64
        E 0 90 4c 65
        E 0 90 4d 67
        E 0 90 62 64
        E 0 90 63 64
        E 0 90 64 65
        E 0 90 65 67
        E 0 9d 69 64
        E 120 80 4a 00
        E 0 80 4b 00
        E 0 80 4c 00
        E 0 80 4d 00
        E 0 80 62 00
        E 0 80 63 00
        E 0 80 64 00
        E 0 80 65 00
        E 0 8d 69 00
        E 120 90 1c 65
        E 0 90 34 65
        E 0 90 35 67
        E 0 90 4a 64
        E 0 90 4b 64
        E 0 90 4c 65
        E 0 90 4d 67
        E 0 90 62 64
        E 0 90 63 64
        E 0 90 64 65
        E 0 90 65 67
        E 0 9f 69 64
        E 120 80 1c 00
        E 0 80 34 00
        E 0 80 35 00
        E 0 80 4a 00
        E 0 80 4b 00
        E 0 80 4c 00
        E 0 80 4d 00
        E 0 80 62 00
        E 0 80 63 00
        E 0 80 64 00
        E 0 80 65 00
        E 0 8f 69 00
        E 120 90 34 65
        E 0 90 35 67
        E 0 90 4a 64
        E 0 90 4b 64
        E 0 90 4c 65
        E 0 90 4d 67
        E 0 90 62 64
        E 0 90 63 64
        E 0 90 64 65
        E 0 90 65 67
        E 0 9f 69 64
        E 120 80 34 00
        E 0 80 35 00
        E 0 80 4a 00
        E 0 80 4b 00
        E 0 80 4c 00
        E 0 80 4d 00
        E 0 80 62 00
        E 0 80 63 00
        E 0 80 64 00
        E 0 80 65 00
        E 0 8f 69 00
        E 120 90 34 65
        E 0 90 35 67
        E 0 90 4a 64
        E 0 90 4b 64
        E 0 90 4c 65
        E 0 90 4d 67
        E 0 90 62 64
        E 0 90 63 64
        E 0 90 64 65
        E 0 90 65 67
        E 0 9f 69 64
        E 120 80 34 00
        E 0 80 35 00
        E 0 80 4a 00
        E 0 80 4b 00
        E 0 80 4c 00
        E 0 80 4d 00
        E 0 80 62 00
        E 0 80 63 00
        E 0 80 64 00
        E 0 80 65 00
        E 0 8f 69 00
        E 120 93 4b 66
        E 0 93 4c 65
        E 0 93 4d 67
        E 0 93 63 66
        E 0 93 64 65
        E 0 93 65 67
        E 120 83 4b 00
        E 0 83 4c 00
        E 0 83 4d 00
        E 0 83 63 00
        E 0 83 64 00
        E 0 83 65 00
        E 120 90 0c 64
        E 0 90 10 64
        E 0 90 1b 66
        E 0 90 33 66
        E 0 90 34 65
        E 0 90 4b 66
        E 0 90 4c 65
        E 0 90 4d 67
        E 0 90 63 66
        E 0 90 64 65
        E 0 90 65 67
        E 120 80 0c 00
        E 0 80 10 00
        E 0 80 1b 00
        E 0 80 33 00
        E 0 80 34 00
        E 0 80 4b 00
        E 0 80 4c 00
        E 0 80 4d 00
        E 0 80 63 00
        E 0 80 64 00
        E 0 80 65 00
        E 360 90 1b 66
        E 0 90 33 66
        E 0 90 34 65
        E 0 90 4b 66
        E 0 90 4c 65
        E 0 90 4d 67
        E 0 90 63 66
        E 0 90 64 65
        E 0 90 65 67
        E 120 80 1b 00
        E 0 80 33 00
        E 0 80 34 00
        E 0 80 4b 00
        E 0 80 4c 00
        E 0 80 4d 00
        E 0 80 63 00
        E 0 80 64 00
        E 0 80 65 00
        E 360 90 1b 66
        E 0 90 33 66
        E 0 90 34 65
        E 0 90 4b 66
        E 0 90 4c 65
        E 0 90 4d 67
        E 0 90 63 66
        E 0 90 64 65
        E 0 90 65 67
        E 120 80 1b 00
        E 0 80 33 00
        E 0 80 34 00
        E 0 80 4b 00
        E 0 80 4c 00
        E 0 80 4d 00
        E 0 80 63 00
        E 0 80 64 00
        E 0 80 65 00
        E 120 90 4b 66
        E 0 90 4c 65
        E 0 90 4d 67
        E 0 90 63 66
        E 0 90 64 65
        E 0 90 65 67
        E 120 80 4b 00
        E 0 80 4c 00
        E 0 80 4d 00
        E 0 80 63 00
        E 0 80 64 00
        E 0 80 65 00
        E 120 90 1b 66
        E 0 90 33 66
        E 0 90 34 65
        E 0 90 4b 66
        E 0 90 4c 65
        E 0 90 4d 67
        E 0 90 63 66
        E 0 90 64 65
        E 0 90 65 67
        E 120 80 1b 00
        E 0 80 33 00
        E 0 80 34 00
        E 0 80 4b 00
        E 0 80 4c 00
        E 0 80 4d 00
        E 0 80 63 00
        E 0 80 64 00
        E 0 80 65 00
        E 120 90 4b 66
        E 0 90 4c 65
        E 0 90 4d 67
        E 0 90 63 66
        E 0 90 64 65
        E 0 90 65 67
        E 120 80 4b 00
        E 0 80 4c 00
        E 0 80 4d 00
        E 0 80 63 00
        E 0 80 64 00
        E 0 80 65 00
        E 360 90 33 66
        E 0 90 34 65
        E 0 90 4b 66
        E 0 90 4c 65
        E 0 90 4d 67
        E 0 90 63 66
        E 0 90 64 65
        E 0 90 65 67
        E 120 80 33 00
        E 0 80 34 00
        E 0 80 4b 00
        E 0 80 4c 00
        E 0 80 4d 00
        E 0 80 63 00
        E 0 80 64 00
        E 0 80 65 00
        E 360 90 33 66
        E 0 90 34 65
        E 0 90 4b 66
        E 0 90 4c 65
        E 0 90 4d 67
        E 0 90 63 66
        E 0 90 64 65
        E 0 90 65 67
        E 120 80 33 00
        E 0 80 34 00
        E 0 80 4b 00
        E 0 80 4c 00
        E 0 80 4d 00
        E 0 80 63 00
        E 0 80 64 00
        E 0 80 65 00
        E 120 90 1b 66
        E 0 90 33 66
        E 0 90 34 65
        E 0 90 4b 66
        E 0 90 4c 65
        E 0 90 4d 67
        E 0 90 63 66
        E 0 90 64 65
        E 0 90 65 67
        E 120 80 1b 00
        E 0 80 33 00
        E 0 80 34 00
        E 0 80 4b 00
        E 0 80 4c 00
        E 0 80 4d 00
        E 0 80 63 00
        E 0 80 64 00
        E 0 80 65 00
        E 120 90 4b 66
        E 0 90 4c 65
        E 0 90 4d 67
        E 0 90 63 66
        E 0 90 64 65
        E 0 90 65 67
        E 120 80 4b 00
        E 0 80 4c 00
        E 0 80 4d 00
        E 0 80 63 00
        E 0 80 64 00
        E 0 80 65 00
        E 120 90 1b 66
        E 0 90 33 66
        E 0 90 34 65
        E 0 90 4b 66
        E 0 90 4c 65
        E 0 90 4d 67
        E 0 90 63 66
        E 0 90 64 65
        E 0 90 65 67
        E 120 80 1b 00
        E 0 80 33 00
        E 0 80 34 00
        E 0 80 4b 00
        E 0 80 4c 00
        E 0 80 4d 00
        E 0 80 63 00
        E 0 80 64 00
        E 0 80 65 00
        E 120 93 4a 66
        E 0 93 4b 66
        E 0 93 4c 65
        E 0 93 4d 67
        E 0 93 62 66
        E 0 93 63 66
        E 0 93 64 65
        E 0 93 65 67
        E 120 83 4a 00
        E 0 83 4b 00
        E 0 83 4c 00
        E 0 83 4d 00
        E 0 83 62 00
        E 0 83 63 00
        E 0 83 64 00
        E 0 83 65 00
        E 120 90 0c 64
        E 0 90 10 64
        E 0 90 1a 66
        E 0 90 32 66
        E 0 90 34 65
        E 0 90 4a 66
        E 0 90 4b 64
        E 0 90 4c 65
        E 0 90 4d 67
        E 0 90 62 66
        E 0 90 63 64
        E 0 90 64 65
        E 0 90 65 67
        E 120 80 0c 00
        E 0 80 10 00
        E 0 80 1a 00
        E 0 80 32 00
        E 0 80 34 00
        E 0 80 4a 00
        E 0 80 4b 00
        E 0 80 4c 00
        E 0 80 4d 00
        E 0 80 62 00
        E 0 80 63 00
        E 0 80 64 00
        E 0 80 65 00
        E 360 90 1a 66
        E 0 90 32 66
        E 0 90 34 65
        E 0 90 4a 66
        E 0 90 4b 64
        E 0 90 4c 65
        E 0 90 4d 67
        E 0 90 62 66
        E 0 90 63 64
        E 0 90 64 65
        E 0 90 65 67
        E 120 80 1a 00
        E 0 80 32 00
        E 0 80 34 00
        E 0 80 4a 00
        E 0 80 4b 00
        E 0 80 4c 00
        E 0 80 4d 00
        E 0 80 62 00
        E 0 80 63 00
        E 0 80 64 00
        E 0 80 65 00
        E 360 90 1a 66
        E 0 90 32 66
        E 0 90 34 65
        E 0 90 4a 66
        E 0 90 4b 64
        E 0 90 4c 65
        E 0 90 4d 67
        E 0 90 62 66
        E 0 90 63 64
        E 0 90 64 65
        E 0 90 65 67
        E 120 80 1a 00
        E 0 80 32 00
        E 0 80 34 00
        E 0 80 4a 00
        E 0 80 4b 00
        E 0 80 4c 00
        E 0 80 4d 00
        E 0 80 62 00
        E 0 80 63 00
        E 0 80 64 00
        E 0 80 65 00
        E 120 90 4a 66
        E 0 90 4b 64
        E 0 90 4c 65
        E 0 90 4d 67
        E 0 90 62 66
        E 0 90 63 64
        E 0 90 64 65
        E 0 90 65 67
        E 120 80 4a 00
        E 0 80 4b 00
        E 0 80 4c 00
        E 0 80 4d 00
        E 0 80 62 00
        E 0 80 63 00
        E 0 80 64 00
        E 0 80 65 00
        E 120 90 1a 66
        E 0 90 32 66
        E 0 90 34 65
        E 0 90 4a 66
        E 0 90 4b 64
        E 0 90 4c 65
        E 0 90 4d 67
        E 0 90 62 66
        E 0 90 63 64
        E 0 90 64 65
        E 0 90 65 67
        E 120 80 1a 00
        E 0 80 32 00
        E 0 80 34 00
        E 0 80 4a 00
        E 0 80 4b 00
        E 0 80 4c 00
        E 0 80 4d 00
        E 0 80 62 00
        E 0 80 63 00
        E 0 80 64 00
        E 0 80 65 00
        E 120 90 0c 64
        E 0 90 10 64
        E 0 90 4a 64
        E 0 90 4b 64
        E 0 90 4c 65
        E 0 90 4d 67
        E 0 90 62 64
        E 0 90 63 64
        E 0 90 64 65
        E 0 90 65 67
        E 120 80 0c 00
        E 0 80 10 00
        E 0 80 4a 00
        E 0 80 4b 00
        E 0 80 4c 00
        E 0 80 4d 00
        E 0 80 62 00
        E 0 80 63 00
        E 0 80 64 00
        E 0 80 65 00
        E 360 90 34 65
        E 0 90 35 67
        E 0 90 4a 64
        E 0 90 4b 64
        E 0 90 4c 65
        E 0 90 4d 67
        E 0 90 62 64
        E 0 90 63 64
        E 0 90 64 65
        E 0 90 65 67
        E 0 9d 69 64
        E 120 80 34 00
        E 0 80 35 00
        E 0 80 4a 00
        E 0 80 4b 00
        E 0 80 4c 00
        E 0 80 4d 00
        E 0 80 62 00
        E 0 80 63 00
        E 0 80 64 00
        E 0 80 65 00
        E 0 8d 69 00
        E 360 90 4a 64
        E 0 90 4b 64
        E 0 90 4c 65
        E 0 90 4d 67
        E 0 90 62 64
        E 0 90 63 64
        E 0 90 64 65
        E 0 90 65 67
        E 0 9d 69 64
        E 120 80 4a 00
        E 0 80 4b 00
        E 0 80 4c 00
        E 0 80 4d 00
        E 0 80 62 00
        E 0 80 63 00
        E 0 80 64 00
        E 0 80 65 00
        E 0 8d 69 00
        E 120 90 1c 65
        E 0 90 34 65
        E 0 90 35 67
        E 0 90 4a 64
        E 0 90 4b 64
        E 0 90 4c 65
        E 0 90 4d 67
        E 0 90 62 64
        E 0 90 63 64
        E 0 90 64 65
        E 0 90 65 67
        E 0 9f 69 64
        E 120 80 1c 00
        E 0 80 34 00
        E 0 80 35 00
        E 0 80 4a 00
        E 0 80 4b 00
        E 0 80 4c 00
        E 0 80 4d 00
        E 0 80 62 00
        E 0 80 63 00
        E 0 80 64 00
        E 0 80 65 00
        E 0 8f 69 00
        E 120 90 34 65
        E 0 90 35 67
        E 0 90 4a 64
        E 0 90 4b 64
        E 0 90 4c 65
        E 0 90 4d 67
        E 0 90 62 64
        E 0 90 63 64
        E 0 90 64 65
        E 0 90 65 67
        E 0 9f 69 64
        E 120 80 34 00
        E 0 80 35 00
        E 0 80 4a 00
        E 0 80 4b 00
        E 0 80 4c 00
        E 0 80 4d 00
        E 0 80 62 00
        E 0 80 63 00
        E 0 80 64 00
        E 0 80 65 00
        E 0 8f 69 00
        E 120 90 34 65
        E 0 90 35 67
        E 0 90 4a 64
        E 0 90 4b 64
        E 0 90 4c 65
        E 0 90 4d 67
        E 0 90 62 64
        E 0 90 63 64
        E 0 90 64 65
        E 0 90 65 67
        E 0 9f 69 64
        E 120 80 34 00
        E 0 80 35 00
        E 0 80 4a 00
        E 0 80 4b 00
        E 0 80 4c 00
        E 0 80 4d 00
        E 0 80 62 00
        E 0 80 63 00
        E 0 80 64 00
        E 0 80 65 00
        E 0 8f 69 00
        E 120 93 4b 66
        E 0 93 4c 65
        E 0 93 4d 67
        E 0 93 63 66
        E 0 93 64 65
        E 0 93 65 67
        E 120 83 4b 00
        E 0 83 4c 00
        E 0 83 4d 00
        E 0 83 63 00
        E 0 83 64 00
        E 0 83 65 00
        E 120 90 0c 64
        E 0 90 10 64
        E 0 90 1b 66
        E 0 90 33 66
        E 0 90 34 65
        E 0 90 4b 66
        E 0 90 4c 65
        E 0 90 4d 67
        E 0 90 63 66
        E 0 90 64 65
        E 0 90 65 67
        E 120 80 0c 00
        E 0 80 10 00
        E 0 80 1b 00
        E 0 80 33 00
        E 0 80 34 00
        E 0 80 4b 00
        E 0 80 4c 00
        E 0 80 4d 00
        E 0 80 63 00
        E 0 80 64 00
        E 0 80 65 00
        E 360 90 1b 66
        E 0 90 33 66
        E 0 90 34 65
        E 0 90 4b 66
        E 0 90 4c 65
        E 0 90 4d 67
        E 0 90 63 66
        E 0 90 64 65
        E 0 90 65 67
        E 120 80 1b 00
        E 0 80 33 00
        E 0 80 34 00
        E 0 80 4b 00
        E 0 80 4c 00
        E 0 80 4d 00
        E 0 80 63 00
        E 0 80 64 00
        E 0 80 65 00
        E 360 90 1b 66
        E 0 90 33 66
        E 0 90 34 65
        E 0 90 4b 66
        E 0 90 4c 65
        E 0 90 4d 67
        E 0 90 63 66
        E 0 90 64 65
        E 0 90 65 67
        E 120 80 1b 00
        E 0 80 33 00
        E 0 80 34 00
        E 0 80 4b 00
        E 0 80 4c 00
        E 0 80 4d 00
        E 0 80 63 00
        E 0 80 64 00
        E 0 80 65 00
        E 120 90 4b 66
        E 0 90 4c 65
        E 0 90 4d 67
        E 0 90 63 66
        E 0 90 64 65
        E 0 90 65 67
        E 120 80 4b 00
        E 0 80 4c 00
        E 0 80 4d 00
        E 0 80 63 00
        E 0 80 64 00
        E 0 80 65 00
        E 120 90 1b 66
        E 0 90 33 66
        E 0 90 34 65
        E 0 90 4b 66
        E 0 90 4c 65
        E 0 90 4d 67
        E 0 90 63 66
        E 0 90 64 65
        E 0 90 65 67
        E 120 80 1b 00
        E 0 80 33 00
        E 0 80 34 00
        E 0 80 4b 00
        E 0 80 4c 00
        E 0 80 4d 00
        E 0 80 63 00
        E 0 80 64 00
        E 0 80 65 00
        E 120 90 4b 66
        E 0 90 4c 65
        E 0 90 4d 67
        E 0 90 63 66
        E 0 90 64 65
        E 0 90 65 67
        E 120 80 4b 00
        E 0 80 4c 00
        E 0 80 4d 00
        E 0 80 63 00
        E 0 80 64 00
        E 0 80 65 00
        E 360 90 33 66
        E 0 90 34 65
        E 0 90 4b 66
        E 0 90 4c 65
        E 0 90 4d 67
        E 0 90 63 66
        E 0 90 64 65
        E 0 90 65 67
        E 120 80 33 00
        E 0 80 34 00
        E 0 80 4b 00
        E 0 80 4c 00
        E 0 80 4d 00
        E 0 80 63 00
        E 0 80 64 00
        E 0 80 65 00
        E 360 90 33 66
        E 0 90 34 65
        E 0 90 4b 66
        E 0 90 4c 65
        E 0 90 4d 67
        E 0 90 63 66
        E 0 90 64 65
        E 0 90 65 67
        E 120 80 33 00
        E 0 80 34 00
        E 0 80 4b 00
        E 0 80 4c 00
        E 0 80 4d 00
        E 0 80 63 00
        E 0 80 64 00
        E 0 80 65 00
        E 120 90 1b 66
        E 0 90 33 66
        E 0 90 34 65
        E 0 90 4b 66
        E 0 90 4c 65
        E 0 90 4d 67
        E 0 90 63 66
        E 0 90 64 65
        E 0 90 65 67
        E 120 80 1b 00
        E 0 80 33 00
        E 0 80 34 00
        E 0 80 4b 00
        E 0 80 4c 00
        E 0 80 4d 00
        E 0 80 63 00
        E 0 80 64 00
        E 0 80 65 00
        E 120 90 4b 66
        E 0 90 4c 65
        E 0 90 4d 67
        E 0 90 63 66
        E 0 90 64 65
        E 0 90 65 67
        E 120 80 4b 00
        E 0 80 4c 00
        E 0 80 4d 00
        E 0 80 63 00
        E 0 80 64 00
        E 0 80 65 00
        E 120 90 1b 66
        E 0 90 33 66
        E 0 90 34 65
        E 0 90 4b 66
        E 0 90 4c 65
        E 0 90 4d 67
        E 0 90 63 66
        E 0 90 64 65
        E 0 90 65 67
        E 120 80 1b 00
        E 0 80 33 00
        E 0 80 34 00
        E 0 80 4b 00
        E 0 80 4c 00
        E 0 80 4d 00
        E 0 80 63 00
        E 0 80 64 00
        E 0 80 65 00
        E 120 93 4a 66
        E 0 93 4b 66
        E 0 93 4c 65
        E 0 93 4d 67
        E 0 93 62 66
        E 0 93 63 66
        E 0 93 64 65
        E 0 93 65 67
        E 120 83 4a 00
        E 0 83 4b 00
        E 0 83 4c 00
        E 0 83 4d 00
        E 0 83 62 00
        E 0 83 63 00
        E 0 83 64 00
        E 0 83 65 00
        E 120 90 0c 64
        E 0 90 10 64
        E 0 90 1a 66
        E 0 90 32 66
        E 0 90 34 65
        E 0 90 4a 66
        E 0 90 4b 64
        E 0 90 4c 65
        E 0 90 4d 67
        E 0 90 62 66
        E 0 90 63 64
        E 0 90 64 65
        E 0 90 65 67
        E 0 90 74 64
        E 120 80 0c 00
        E 0 80 10 00
        E 0 80 1a 00
        E 0 80 32 00
        E 0 80 34 00
        E 0 80 4a 00
        E 0 80 4b 00
        E 0 80 4c 00
        E 0 80 4d 00
        E 0 80 62 00
        E 0 80 63 00
        E 0 80 64 00
        E 0 80 65 00
        E 360 90 1a 66
        E 0 90 32 66
        E 0 90 34 65
        E 0 90 4a 66
        E 0 90 4b 64
        E 0 90 4c 65
        E 0 90 4d 67
        E 0 90 62 66
        E 0 90 63 64
        E 0 90 64 65
        E 0 90 65 67
        E 120 80 1a 00
        E 0 80 32 00
        E 0 80 34 00
        E 0 80 4a 00
        E 0 80 4b 00
        E 0 80 4c 00
        E 0 80 4d 00
        E 0 80 62 00
        E 0 80 63 00
        E 0 80 64 00
        E 0 80 65 00
        E 360 90 1a 66
        E 0 90 32 66
        E 0 90 34 65
        E 0 90 4a 66
        E 0 90 4b 64
        E 0 90 4c 65
        E 0 90 4d 67
        E 0 90 62 66
        E 0 90 63 64
        E 0 90 64 65
        E 0 90 65 67
        E 120 80 1a 00
        E 0 80 32 00
        E 0 80 34 00
        E 0 80 4a 00
        E 0 80 4b 00
        E 0 80 4c 00
        E 0 80 4d 00
        E 0 80 62 00
        E 0 80 63 00
        E 0 80 64 00
        E 0 80 65 00
        E 120 90 4a 66
        E 0 90 4b 64
        E 0 90 4c 65
        E 0 90 4d 67
        E 0 90 62 66
        E 0 90 63 64
        E 0 90 64 65
        E 0 90 65 67
        E 120 80 4a 00
        E 0 80 4b 00
        E 0 80 4c 00
        E 0 80 4d 00
        E 0 80 62 00
        E 0 80 63 00
        E 0 80 64 00
        E 0 80 65 00
        E 120 90 1a 66
        E 0 90 32 66
        E 0 90 34 65
        E 0 90 4a 66
        E 0 90 4b 64
        E 0 90 4c 65
        E 0 90 4d 67
        E 0 90 62 66
        E 0 90 63 64
        E 0 90 64 65
        E 0 90 65 67
        E 120 80 1a 00
        E 0 80 32 00
        E 0 80 34 00
        E 0 80 4a 00
        E 0 80 4b 00
        E 0 80 4c 00
        E 0 80 4d 00
        E 0 80 62 00
        E 0 80 63 00
        E 0 80 64 00
        E 0 80 65 00
        E 120 90 0c 64
        E 0 90 10 64
        E 0 90 4a 64
        E 0 90 4b 64
        E 0 90 4c 65
        E 0 90 4d 67
        E 0 90 62 64
        E 0 90 63 64
        E 0 90 64 65
        E 0 90 65 67
        E 120 80 0c 00
        E 0 80 10 00
        E 0 80 4a 00
        E 0 80 4b 00
        E 0 80 4c 00
        E 0 80 4d 00
        E 0 80 62 00
        E 0 80 63 00
        E 0 80 64 00
        E 0 80 65 00
        E 360 90 34 65
        E 0 90 35 67
        E 0 90 4a 64
        E 0 90 4b 64
        E 0 90 4c 65
        E 0 90 4d 67
        E 0 90 62 64
        E 0 90 63 64
        E 0 90 64 65
        E 0 90 65 67
        E 0 9d 69 64
        E 120 80 34 00
        E 0 80 35 00
        E 0 80 4a 00
        E 0 80 4b 00
        E 0 80 4c 00
        E 0 80 4d 00
        E 0 80 62 00
        E 0 80 63 00
        E 0 80 64 00
        E 0 80 65 00
        E 0 8d 69 00
        E 360 90 4a 64
        E 0 90 4b 64
        E 0 90 4c 65
        E 0 90 4d 67
        E 0 90 62 64
        E 0 90 63 64
        E 0 90 64 65
        E 0 90 65 67
        E 0 9d 69 64
        E 120 80 4a 00
        E 0 80 4b 00
        E 0 80 4c 00
        E 0 80 4d 00
        E 0 80 62 00
        E 0 80 63 00
        E 0 80 64 00
        E 0 80 65 00
        E 0 8d 69 00
        E 120 90 1c 65
        E 0 90 34 65
        E 0 90 35 67
        E 0 90 4a 64
        E 0 90 4b 64
        E 0 90 4c 65
        E 0 90 4d 67
        E 0 90 62 64
        E 0 90 63 64
        E 0 90 64 65
        E 0 90 65 67
        E 0 9f 69 64
        E 120 80 1c 00
        E 0 80 34 00
        E 0 80 35 00
        E 0 80 4a 00
        E 0 80 4b 00
        E 0 80 4c 00
        E 0 80 4d 00
        E 0 80 62 00
        E 0 80 63 00
        E 0 80 64 00
        E 0 80 65 00
        E 0 8f 69 00
        E 120 90 34 65
        E 0 90 35 67
        E 0 90 4a 64
        E 0 90 4b 64
        E 0 90 4c 65
        E 0 90 4d 67
        E 0 90 62 64
        E 0 90 63 64
        E 0 90 64 65
        E 0 90 65 67
        E 0 9f 69 64
        E 120 80 34 00
        E 0 80 35 00
        E 360 80 4a 00
        E 0 80 4b 00
        E 0 80 4c 00
        E 0 80 4d 00
        E 0 80 62 00
        E 0 80 63 00
        E 0 80 64 00
        E 0 80 65 00
        E 0 8f 69 00
        <X 240 0
          /wFbYmVnaW5fcGcgc29uZ190cmFpbmVyX3BnXzdd
        >
        E 0 80 74 00
        E 0 90 1c 65
        E 0 90 34 65
        E 0 90 4c 65
        E 0 90 64 65
        E 120 80 1c 00
        E 0 80 34 00
        E 0 80 4c 00
        E 0 80 64 00
        E 120 90 34 65
        E 0 90 4c 65
        E 0 90 64 65
        E 120 80 34 00
        E 0 80 4c 00
        E 0 80 64 00
        E 120 90 1c 65
        E 0 90 34 65
        E 0 90 4c 65
        E 0 90 64 65
        E 120 80 1c 00
        E 0 80 34 00
        E 0 80 4c 00
        E 0 80 64 00
        E 120 90 34 65
        E 0 90 4c 65
        E 0 90 64 65
        E 120 80 34 00
        E 0 80 4c 00
        E 0 80 64 00
        <X 120 0
          /wFbcGdfbm9ybSBzb25nX3RyYWluZXJfcGdfN10=
        >
        E 0 90 1c 65
        E 0 90 34 65
        E 0 90 4c 65
        E 0 90 64 65
        E 120 80 1c 00
        E 0 80 34 00
        E 0 80 4c 00
        E 0 80 64 00
        E 120 90 34 65
        E 0 90 4c 65
        E 0 90 64 65
        E 120 80 34 00
        E 0 80 4c 00
        E 0 80 64 00
        E 120 90 34 65
        E 0 90 4c 65
        E 0 90 64 65
        E 120 80 34 00
        E 0 80 4c 00
        E 0 80 64 00
        E 120 90 4c 65
        E 0 90 64 65
        E 120 80 4c 00
        E 0 80 64 00
        E 120 90 4d 67
        E 0 90 65 67
        E 120 80 4d 00
        E 0 80 65 00
        E 120 90 4d 67
        E 0 90 65 67
        E 120 80 4d 00
        E 0 80 65 00
        E 120 90 4d 67
        E 0 90 65 67
        E 120 80 4d 00
        E 0 80 65 00
        E 120 90 4d 67
        E 0 90 65 67
        E 120 80 4d 00
        E 0 80 65 00
        E 120 90 1d 64
        E 0 90 35 64
        E 0 90 4d 64
        E 0 90 65 64
        E 120 80 1d 00
        E 0 80 35 00
        E 0 80 4d 00
        E 0 80 65 00
        E 120 90 35 64
        E 0 90 4d 64
        E 0 90 65 64
        E 120 80 35 00
        E 0 80 4d 00
        E 0 80 65 00
        E 120 90 35 64
        E 0 90 4d 64
        E 0 90 65 64
        E 120 80 35 00
        E 0 80 4d 00
        E 0 80 65 00
        E 120 90 4d 64
        E 0 90 65 64
        E 120 80 4d 00
        E 0 80 65 00
        E 120 90 1c 67
        E 0 90 34 67
        E 0 90 4c 67
        E 0 90 64 67
        E 120 80 1c 00
        E 0 80 34 00
        E 0 80 4c 00
        E 0 80 64 00
        E 120 90 34 67
        E 0 90 4c 67
        E 0 90 64 67
        E 120 80 34 00
        E 0 80 4c 00
        E 0 80 64 00
        E 120 90 1c 67
        E 0 90 34 67
        E 0 90 4c 67
        E 0 90 64 67
        E 120 80 1c 00
        E 0 80 34 00
        E 0 80 4c 00
        E 0 80 64 00
        E 120 90 34 67
        E 0 90 4c 67
        E 0 90 64 67
        E 120 80 34 00
        E 0 80 4c 00
        E 0 80 64 00
        E 120 90 1c 67
        E 0 90 34 67
        E 0 90 4c 67
        E 0 90 64 67
        E 120 80 1c 00
        E 0 80 34 00
        E 0 80 4c 00
        E 0 80 64 00
        E 120 90 34 67
        E 0 90 4c 67
        E 0 90 64 67
        E 120 80 34 00
        E 0 80 4c 00
        E 0 80 64 00
        E 120 90 1c 67
        E 0 90 34 67
        E 0 90 4c 67
        E 0 90 64 67
        E 120 80 1c 00
        E 0 80 34 00
        E 0 80 4c 00
        E 0 80 64 00
        E 120 90 4c 67
        E 0 90 64 67
        E 120 80 4c 00
        E 0 80 64 00
        E 120 90 1c 65
        E 0 90 34 65
        E 0 90 4c 65
        E 0 90 64 65
        E 0 90 74 64
        E 120 80 1c 00
        E 0 80 34 00
        E 0 80 4c 00
        E 0 80 64 00
        E 120 90 34 65
        E 0 90 4c 65
        E 0 90 64 65
        E 120 80 34 00
        E 0 80 4c 00
        E 0 80 64 00
        E 120 90 1c 65
        E 0 90 34 65
        E 0 90 4c 65
        E 0 90 64 65
        E 120 80 1c 00
        E 0 80 34 00
        E 0 80 4c 00
        E 0 80 64 00
        E 120 90 34 65
        E 0 90 4c 65
        E 0 90 64 65
        E 120 80 34 00
        E 0 80 4c 00
        E 0 80 64 00
        E 120 90 1c 65
        E 0 90 34 65
        E 0 90 4c 65
        E 0 90 64 65
        E 120 80 1c 00
        E 0 80 34 00
        E 0 80 4c 00
        E 0 80 64 00
        E 120 90 4d 64
        E 0 90 65 64
        E 360 80 4d 00
        E 0 80 65 00
        E 120 90 4d 64
        E 0 90 65 64
        E 120 80 4d 00
        E 0 80 65 00
        <X 120 0
          /wFbZW5kX3BnIHNvbmdfdHJhaW5lcl9wZ183XQ==
        >
        E 0 80 74 00
        E 0 90 1c 65
        E 0 90 34 65
        E 0 90 4c 65
        E 0 90 64 65
        E 120 80 1c 00
        E 0 80 34 00
        E 0 80 4c 00
        E 0 80 64 00
        E 120 90 34 65
        E 0 90 4c 65
        E 0 90 64 65
        E 120 80 34 00
        E 0 80 4c 00
        E 0 80 64 00
        E 120 90 1c 65
        E 0 90 34 65
        E 0 90 4c 65
        E 0 90 64 65
        E 120 80 1c 00
        E 0 80 34 00
        E 0 80 4c 00
        E 0 80 64 00
        E 120 90 34 65
        E 0 90 4c 65
        E 0 90 64 65
        E 120 80 34 00
        E 0 80 4c 00
        E 0 80 64 00
        E 120 90 1c 65
        E 0 90 34 65
        E 0 90 4c 65
        E 0 90 64 65
        E 120 80 1c 00
        E 0 80 34 00
        E 0 80 4c 00
        E 0 80 64 00
        E 120 90 34 65
        E 0 90 4c 65
        E 0 90 64 65
        E 120 80 34 00
        E 0 80 4c 00
        E 0 80 64 00
        E 120 90 34 65
        E 0 90 4c 65
        E 0 90 64 65
        E 120 80 34 00
        E 0 80 4c 00
        E 0 80 64 00
        E 120 90 4c 65
        E 0 90 64 65
        E 120 80 4c 00
        E 0 80 64 00
        E 120 90 4d 67
        E 0 90 65 67
        E 120 80 4d 00
        E 0 80 65 00
        E 120 90 4d 67
        E 0 90 65 67
        E 120 80 4d 00
        E 0 80 65 00
        E 120 90 4d 67
        E 0 90 65 67
        E 120 80 4d 00
        E 0 80 65 00
        E 120 90 4d 67
        E 0 90 65 67
        E 120 80 4d 00
        E 0 80 65 00
        E 120 90 1d 64
        E 0 90 35 64
        E 0 90 4d 64
        E 0 90 65 64
        E 120 80 1d 00
        E 0 80 35 00
        E 0 80 4d 00
        E 0 80 65 00
        E 120 90 35 64
        E 0 90 4d 64
        E 0 90 65 64
        E 120 80 35 00
        E 0 80 4d 00
        E 0 80 65 00
        E 120 90 35 64
        E 0 90 4d 64
        E 0 90 65 64
        E 120 80 35 00
        E 0 80 4d 00
        E 0 80 65 00
        E 120 90 4d 64
        E 0 90 65 64
        E 120 80 4d 00
        E 0 80 65 00
        E 120 90 1c 67
        E 0 90 34 67
        E 0 90 4c 67
        E 0 90 64 67
        E 120 80 1c 00
        E 0 80 34 00
        E 0 80 4c 00
        E 0 80 64 00
        E 120 90 34 67
        E 0 90 4c 67
        E 0 90 64 67
        E 120 80 34 00
        E 0 80 4c 00
        E 0 80 64 00
        E 120 90 1c 67
        E 0 90 34 67
        E 0 90 4c 67
        E 0 90 64 67
        E 120 80 1c 00
        E 0 80 34 00
        E 0 80 4c 00
        E 0 80 64 00
        E 120 90 34 67
        E 0 90 4c 67
        E 0 90 64 67
        E 120 80 34 00
        E 0 80 4c 00
        E 0 80 64 00
        E 120 90 1c 67
        E 0 90 34 67
        E 0 90 4c 67
        E 0 90 64 67
        E 120 80 1c 00
        E 0 80 34 00
        E 0 80 4c 00
        E 0 80 64 00
        E 120 90 34 67
        E 0 90 4c 67
        E 0 90 64 67
        E 120 80 34 00
        E 0 80 4c 00
        E 0 80 64 00
        E 120 90 1c 67
        E 0 90 34 67
        E 0 90 4c 67
        E 0 90 64 67
        E 120 80 1c 00
        E 0 80 34 00
        E 0 80 4c 00
        E 0 80 64 00
        E 120 90 4c 67
        E 0 90 64 67
        E 120 80 4c 00
        E 0 80 64 00
        E 120 90 1c 65
        E 0 90 34 65
        E 0 90 4c 65
        E 0 90 64 65
        E 120 80 1c 00
        E 0 80 34 00
        E 0 80 4c 00
        E 0 80 64 00
        E 120 90 34 65
        E 0 90 4c 65
        E 0 90 64 65
        E 120 80 34 00
        E 0 80 4c 00
        E 0 80 64 00
        E 120 90 1c 65
        E 0 90 34 65
        E 0 90 4c 65
        E 0 90 64 65
        E 120 80 1c 00
        E 0 80 34 00
        E 0 80 4c 00
        E 0 80 64 00
        E 120 90 34 65
        E 0 90 4c 65
        E 0 90 64 65
        E 120 80 34 00
        E 0 80 4c 00
        E 0 80 64 00
        E 120 90 1c 65
        E 0 90 34 65
        E 0 90 4c 65
        E 0 90 64 65
        E 120 80 1c 00
        E 0 80 34 00
        E 0 80 4c 00
        E 0 80 64 00
        E 120 90 4d 64
        E 0 90 65 64
        E 360 80 4d 00
        E 0 80 65 00
        E 120 90 4d 64
        E 0 90 65 64
        E 120 80 4d 00
        E 0 80 65 00
        <X 120 0
          /wFbYmVnaW5fcGcgc29uZ190cmFpbmVyX3BnXzhd
        >
        E 0 90 1d 67
        E 0 90 35 67
        E 0 90 4d 67
        E 0 90 65 67
        E 0 90 73 64
        E 120 80 1d 00
        E 0 80 35 00
        E 0 80 4d 00
        E 0 80 65 00
        E 120 90 35 67
        E 0 90 4d 67
        E 0 90 65 67
        E 120 80 35 00
        E 0 80 4d 00
        E 0 80 65 00
        E 120 90 1d 67
        E 0 90 35 67
        E 0 90 4d 67
        E 0 90 65 67
        E 120 80 1d 00
        E 0 80 35 00
        E 0 80 4d 00
        E 0 80 65 00
        E 120 90 35 67
        E 0 90 4d 67
        E 0 90 65 67
        E 120 80 35 00
        E 0 80 4d 00
        E 0 80 65 00
        <X 120 0
          /wFbcGdfbm9ybSBzb25nX3RyYWluZXJfcGdfOF0=
        >
        E 0 90 1d 67
        E 0 90 35 67
        E 0 90 4d 67
        E 0 90 65 67
        E 120 80 1d 00
        E 0 80 35 00
        E 0 80 4d 00
        E 0 80 65 00
        E 120 90 35 67
        E 0 90 4d 67
        E 0 90 65 67
        E 120 80 35 00
        E 0 80 4d 00
        E 0 80 65 00
        E 120 90 35 67
        E 0 90 4d 67
        E 0 90 65 67
        E 120 80 35 00
        E 0 80 4d 00
        E 0 80 65 00
        E 120 90 4d 67
        E 0 90 65 67
        E 120 80 4d 00
        E 0 80 65 00
        E 120 90 4d 69
        E 0 90 65 69
        E 120 80 4d 00
        E 0 80 65 00
        E 120 90 4d 69
        E 0 90 65 69
        E 120 80 4d 00
        E 0 80 65 00
        E 120 90 4d 69
        E 0 90 65 69
        E 120 80 4d 00
        E 0 80 65 00
        E 120 90 4d 69
        E 0 90 65 69
        E 120 80 4d 00
        E 0 80 65 00
        E 120 90 1d 67
        E 0 90 35 67
        E 0 90 4d 67
        E 0 90 65 67
        E 120 80 1d 00
        E 0 80 35 00
        E 0 80 4d 00
        E 0 80 65 00
        E 120 90 35 67
        E 0 90 4d 67
        E 0 90 65 67
        E 120 80 35 00
        E 0 80 4d 00
        E 0 80 65 00
        E 120 90 35 67
        E 0 90 4d 67
        E 0 90 65 67
        E 120 80 35 00
        E 0 80 4d 00
        E 0 80 65 00
        E 120 90 4d 67
        E 0 90 65 67
        E 120 80 4d 00
        E 0 80 65 00
        E 120 90 1d 64
        E 0 90 35 64
        E 0 90 4d 64
        E 0 90 65 64
        E 120 80 1d 00
        E 0 80 35 00
        E 0 80 4d 00
        E 0 80 65 00
        E 120 90 35 64
        E 0 90 4d 64
        E 0 90 65 64
        E 120 80 35 00
        E 0 80 4d 00
        E 0 80 65 00
        E 120 90 1d 64
        E 0 90 35 64
        E 0 90 4d 64
        E 0 90 65 64
        E 120 80 1d 00
        E 0 80 35 00
        E 0 80 4d 00
        E 0 80 65 00
        E 120 90 35 64
        E 0 90 4d 64
        E 0 90 65 64
        E 120 80 35 00
        E 0 80 4d 00
        E 0 80 65 00
        E 120 90 1d 64
        E 0 90 35 64
        E 0 90 4d 64
        E 0 90 65 64
        E 120 80 1d 00
        E 0 80 35 00
        E 0 80 4d 00
        E 0 80 65 00
        E 120 90 35 64
        E 0 90 4d 64
        E 0 90 65 64
        E 120 80 35 00
        E 0 80 4d 00
        E 0 80 65 00
        E 120 90 1d 64
        E 0 90 35 64
        E 0 90 4d 64
        E 0 90 65 64
        E 120 80 1d 00
        E 0 80 35 00
        E 0 80 4d 00
        E 0 80 65 00
        E 120 90 4d 64
        E 0 90 65 64
        E 120 80 4d 00
        E 0 80 65 00
        E 120 90 1c 67
        E 0 90 34 67
        E 0 90 4c 67
        E 0 90 64 67
        E 120 80 1c 00
        E 0 80 34 00
        E 0 80 4c 00
        E 0 80 64 00
        E 120 90 34 67
        E 0 90 4c 67
        E 0 90 64 67
        E 120 80 34 00
        E 0 80 4c 00
        E 0 80 64 00
        E 120 90 1c 67
        E 0 90 34 67
        E 0 90 4c 67
        E 0 90 64 67
        E 120 80 1c 00
        E 0 80 34 00
        E 0 80 4c 00
        E 0 80 64 00
        E 120 90 34 67
        E 0 90 4c 67
        E 0 90 64 67
        E 120 80 34 00
        E 0 80 4c 00
        E 0 80 64 00
        E 120 90 1c 67
        E 0 90 34 67
        E 0 90 4c 67
        E 0 90 64 67
        E 120 80 1c 00
        E 0 80 34 00
        E 0 80 4c 00
        E 0 80 64 00
        E 120 90 34 67
        E 0 90 4c 67
        E 0 90 64 67
        E 120 80 34 00
        E 0 80 4c 00
        E 0 80 64 00
        E 120 90 34 67
        E 0 90 4c 67
        E 0 90 64 67
        E 120 80 34 00
        E 0 80 4c 00
        E 0 80 64 00
        E 120 90 4c 67
        E 0 90 64 67
        E 120 80 4c 00
        E 0 80 64 00
        <X 120 0
          /wFbYmVnaW5fcGcgc29uZ190cmFpbmVyX3BnXzld
        >
        <X 0 0
          /wFbZW5kX3BnIHNvbmdfdHJhaW5lcl9wZ184XQ==
        >
        E 0 90 1c 65
        E 0 90 34 65
        E 0 90 4c 65
        E 0 90 64 65
        E 120 80 1c 00
        E 0 80 34 00
        E 0 80 4c 00
        E 0 80 64 00
        E 120 90 34 65
        E 0 90 4c 65
        E 0 90 64 65
        E 120 80 34 00
        E 0 80 4c 00
        E 0 80 64 00
        E 120 90 1c 65
        E 0 90 34 65
        E 0 90 4c 65
        E 0 90 64 65
        E 120 80 1c 00
        E 0 80 34 00
        E 0 80 4c 00
        E 0 80 64 00
        E 120 90 34 65
        E 0 90 4c 65
        E 0 90 64 65
        E 120 80 34 00
        E 0 80 4c 00
        E 0 80 64 00
        E 120 90 1c 65
        E 0 90 34 65
        E 0 90 4c 65
        E 0 90 64 65
        E 120 80 1c 00
        E 0 80 34 00
        E 0 80 4c 00
        E 0 80 64 00
        E 120 90 34 65
        E 0 90 4c 65
        E 0 90 64 65
        E 120 80 34 00
        E 0 80 4c 00
        E 0 80 64 00
        <X 120 0
          /wFbcGdfbm9ybSBzb25nX3RyYWluZXJfcGdfOV0=
        >
        E 0 90 34 65
        E 0 90 4c 65
        E 0 90 64 65
        E 120 80 34 00
        E 0 80 4c 00
        E 0 80 64 00
        E 120 90 4c 65
        E 0 90 64 65
        E 120 80 4c 00
        E 0 80 64 00
        E 120 90 1d 67
        E 0 90 35 67
        E 0 90 4d 67
        E 0 90 65 67
        E 120 80 1d 00
        E 0 80 35 00
        E 0 80 4d 00
        E 0 80 65 00
        E 120 90 35 67
        E 0 90 4d 67
        E 0 90 65 67
        E 120 80 35 00
        E 0 80 4d 00
        E 0 80 65 00
        E 120 90 35 67
        E 0 90 4d 67
        E 0 90 65 67
        E 120 80 35 00
        E 0 80 4d 00
        E 0 80 65 00
        E 120 90 4d 67
        E 0 90 65 67
        E 120 80 4d 00
        E 0 80 65 00
        E 120 90 1d 64
        E 0 90 35 64
        E 0 90 4d 64
        E 0 90 65 64
        E 120 80 1d 00
        E 0 80 35 00
        E 0 80 4d 00
        E 0 80 65 00
        E 120 90 35 64
        E 0 90 4d 64
        E 0 90 65 64
        E 120 80 35 00
        E 0 80 4d 00
        E 0 80 65 00
        E 120 90 1d 64
        E 0 90 35 64
        E 0 90 4d 64
        E 0 90 65 64
        E 120 80 1d 00
        E 0 80 35 00
        E 0 80 4d 00
        E 0 80 65 00
        E 120 90 4d 64
        E 0 90 65 64
        E 120 80 4d 00
        E 0 80 65 00
        E 120 90 1c 67
        E 0 90 34 67
        E 0 90 4c 67
        E 0 90 64 67
        E 120 80 1c 00
        E 0 80 34 00
        E 0 80 4c 00
        E 0 80 64 00
        E 120 90 34 67
        E 0 90 4c 67
        E 0 90 64 67
        E 120 80 34 00
        E 0 80 4c 00
        E 0 80 64 00
        E 120 90 1c 67
        E 0 90 34 67
        E 0 90 4c 67
        E 0 90 64 67
        E 120 80 1c 00
        E 0 80 34 00
        E 0 80 4c 00
        E 0 80 64 00
        E 120 90 34 67
        E 0 90 4c 67
        E 0 90 64 67
        E 120 80 34 00
        E 0 80 4c 00
        E 0 80 64 00
        E 120 90 1c 67
        E 0 90 34 67
        E 0 90 4c 67
        E 0 90 64 67
        E 120 80 1c 00
        E 0 80 34 00
        E 0 80 4c 00
        E 0 80 64 00
        E 120 90 34 67
        E 0 90 4c 67
        E 0 90 64 67
        E 120 80 34 00
        E 0 80 4c 00
        E 0 80 64 00
        E 120 90 34 67
        E 0 90 4c 67
        E 0 90 64 67
        E 120 80 34 00
        E 0 80 4c 00
        E 0 80 64 00
        E 120 90 4c 67
        E 0 90 64 67
        E 120 80 4c 00
        E 0 80 64 00
        E 120 90 1c 65
        E 0 90 34 65
        E 0 90 4c 65
        E 0 90 64 65
        E 120 80 1c 00
        E 0 80 34 00
        E 0 80 4c 00
        E 0 80 64 00
        E 120 90 34 65
        E 0 90 4c 65
        E 0 90 64 65
        E 120 80 34 00
        E 0 80 4c 00
        E 0 80 64 00
        E 120 90 1c 65
        E 0 90 34 65
        E 0 90 4c 65
        E 0 90 64 65
        E 120 80 1c 00
        E 0 80 34 00
        E 0 80 4c 00
        E 0 80 64 00
        E 120 90 34 65
        E 0 90 4c 65
        E 0 90 64 65
        E 120 80 34 00
        E 0 80 4c 00
        E 0 80 64 00
        E 120 90 1c 65
        E 0 90 34 65
        E 0 90 4c 65
        E 0 90 64 65
        E 120 80 1c 00
        E 0 80 34 00
        E 0 80 4c 00
        E 0 80 64 00
        E 120 90 4c 65
        E 0 90 64 65
        E 120 80 4c 00
        E 0 80 64 00
        E 120 90 35 64
        E 0 90 4d 64
        E 0 90 65 64
        E 120 80 35 00
        E 240 80 4d 00
        E 0 80 65 00
        E 120 90 1c 65
        E 0 90 34 65
        E 0 90 4c 65
        E 0 90 64 65
        E 3360 80 1c 00
        E 0 80 34 00
        E 360 80 73 00
        E 0 80 4c 00
        E 0 80 64 00
        <X 120 0
          /wFbZW5kX3BnIHNvbmdfdHJhaW5lcl9wZ185XQ==
        >
        E 0 90 1a 67
        E 0 90 32 67
        E 0 90 4a 67
        E 0 90 62 67
        E 120 80 1a 00
        E 0 80 32 00
        E 0 80 4a 00
        E 0 80 62 00
        E 120 90 4a 67
        E 0 90 62 67
        E 120 80 4a 00
        E 0 80 62 00
        E 120 90 33 64
        E 0 90 4b 64
        E 0 90 63 64
        E 120 80 33 00
        E 0 80 4b 00
        E 0 80 63 00
        E 120 90 4a 67
        E 0 90 62 67
        E 120 80 4a 00
        E 0 80 62 00
        E 120 90 1c 65
        E 0 90 34 65
        E 0 90 4c 65
        E 0 90 64 65
        E 120 80 1c 00
        E 0 80 34 00
        E 0 80 4c 00
        E 0 80 64 00
        E 120 90 4a 67
        E 0 90 62 67
        E 120 80 4a 00
        E 0 80 62 00
        E 120 90 32 67
        E 0 90 4a 67
        E 0 90 62 67
        E 120 80 32 00
        E 0 80 4a 00
        E 0 80 62 00
        E 120 90 0c 64
        E 0 90 4b 64
        E 0 90 4c 65
        E 0 90 63 64
        E 0 90 64 65
        E 120 80 0c 00
        E 2039 80 4b 00
        E 0 80 4c 00
        E 0 80 63 00
        E 0 80 64 00
        E 9601 b0 7b 00
        GUID {0BE962C6-FECF-455F-97B4-7B2FDA855FE4}
        IGNTEMPO 0 120.00000000 4 4
        SRCCOLOR 8
        VELLANE 132 128 60
        COLORMAP "C:\Program Files\REAPER (x64)\Data\color_maps\rockband_guitarbass.png"
        CFGEDITVIEW 158208.688472 66.456307 7 12 0 0 0
        CFGEDIT 1 1 0 1 1 0 1 1 1 1 1 0.12500000 53 44 1253 718 0 2 1 1 0.00000000 0 1 1 0 0.500000 0 0 1.000000 64
        KEYSNAP 0 7 "102030050700" 0 "Pentatonic"
        EVTFILTER 0 -1 -1 -1 -1 0 1 0 0 -1.00000000 -1.00000000
      >
    >
  >
  <TRACK '{88CE16DB-956C-4F3F-9175-AE614D9DC259}'
    NAME "EVENTS"
    PEAKCOL 16576
    BEAT -1
    AUTOMODE 0
    VOLPAN 1.00000000000000 0.00000000000000 -1.00000000000000 -1.00000000000000 1.00000000000000
    MUTESOLO 0 0 0
    IPHASE 0
    ISBUS 0 0
    BUSCOMP 0 0
    SHOWINMIX 1 0.666700 0.500000 1 0.500000 -1 -1 -1
    FREEMODE 0
    SEL 0
    REC 0 0 0 0 0 0 0
    VU 2
    TRACKHEIGHT 0 0
    INQ 0 0 0 0.5000000000 100 0 0 100
    NCHAN 2
    FX 1
    TRACKID {88CE16DB-956C-4F3F-9175-AE614D9DC259}
    PERF 0
    MIDIOUT -1
    <MIDINOTENAMES
      0 26 "Hi-Hat"
      0 25 "Snare"
      0 24 "Kick"
    >
    MAINSEND 1 0
    <FXCHAIN
      SHOW 0
      LASTSEL 0
      DOCKED 0
    >
    <ITEM
      POSITION 0.00000000000000
      SNAPOFFS 0.00000000000000
      LENGTH 184.96834400000000
      LOOP 0
      ALLTAKES 0
      SEL 0
      FADEIN 1 0.000000 0.000000 1 0
      FADEOUT 1 0.000000 0.000000 1 0
      MUTE 0
      IGUID {A0CA4ADB-0FDD-4798-9469-700A8AFF57D7}
      IID 7
      NAME "EVENTS"
      VOLPAN 1.000000 0.000000 1.000000 -1.000000
      SOFFS 0.00000000000000 0.00000000000000
      PLAYRATE 1.00000000000000 1 0.00000000000000 -1
      CHANMODE 0
      GUID {281C5061-1988-439D-A972-88E893E31825}
      <SOURCE MIDI
        HASDATA 1 480 QN
        POOLEDEVTS {734FD7DB-FE84-4740-A4A4-CF8C66C08C65}
        <X 0 0
          /wNFVkVOVFM=
        >
        <X 7680 0
          /wFbcHJjX2ludHJvXQ==
        >
        <X 0 0
          /wFbY3Jvd2RfbWVsbG93XQ==
        >
        <X 960 0
          /wFbbXVzaWNfc3RhcnRd
        >
        <X 6720 0
          /wFbcHJjX2ludHJvX3ZlcnNlX2Fd
        >
        <X 15360 0
          /wFbcHJjX2ludHJvX3ZlcnNlX2Jd
        >
        <X 15360 0
          /wFbcHJjX2d0cl9tZWxvZHlfMV0=
        >
        <X 0 0
          /wFbY3Jvd2Rfbm9ybWFsXQ==
        >
        <X 15360 0
          /wFbcHJjX3ZlcnNlXzFhXQ==
        >
        <X 0 0
          /wFbY3Jvd2Rfbm9jbGFwXQ==
        >
        <X 15360 0
          /wFbcHJjX3ZlcnNlXzFiXQ==
        >
        <X 15360 0
          /wFbY3Jvd2RfY2xhcF0=
        >
        <X 0 0
          /wFbcHJjX2d0cl9tZWxvZHlfMl0=
        >
        <X 15360 0
          /wFbcHJjX2JyZWFrX2Fd
        >
        <X 7680 0
          /wFbY3Jvd2RfaW50ZW5zZV0=
        >
        <X 0 0
          /wFbcHJjX2JyZWFrX2Jd
        >
        <X 15360 0
          /wFbcHJjX2JyZWFrX2Nd
        >
        <X 7680 0
          /wFbcHJjX2JyaWRnZV0=
        >
        <X 0 0
          /wFbY3Jvd2Rfbm9ybWFsXQ==
        >
        <X 15360 0
          /wFbcHJjX3ZlcnNlXzJhXQ==
        >
        <X 0 0
          /wFbY3Jvd2RfaW50ZW5zZV0=
        >
        <X 15360 0
          /wFbcHJjX3ZlcnNlXzJiXQ==
        >
        <X 0 0
          /wFbY3Jvd2Rfbm9jbGFwXQ==
        >
        <X 15360 0
          /wFbcHJjX291dHJvXQ==
        >
        <X 15360 0
          /wFbcHJjX291dHJvX3NvbG9d
        >
        <X 0 0
          /wFbY3Jvd2RfY2xhcF0=
        >
        <X 15360 0
          /wFbY3Jvd2Rfbm9ybWFsXQ==
        >
        <X 6720 0
          /wFbbXVzaWNfZW5kXQ==
        >
        <X 0 0
          /wFbY3Jvd2RfcmVhbHRpbWVd
        >
        <X 10555 0
          /wFbZW5kXQ==
        >
        E 5 b0 7b 00
        GUID {3A6D7782-8B20-4236-ADC6-E178607A3CB1}
        IGNTEMPO 0 120.00000000 4 4
        SRCCOLOR 9
        VELLANE 132 128 60
        COLORMAP "C:\Program Files\REAPER (x64)\Data\color_maps\rockband_guitarbass.png"
        CFGEDITVIEW 158208.688472 66.456307 0 48 0 0 0
        CFGEDIT 1 1 0 1 1 0 1 1 1 1 1 0.12500000 53 44 1253 718 0 2 1 1 0.00000000 0 1 1 0 0.500000 0 0 1.000000 64
        KEYSNAP 0 7 "102030050700" 0 "Pentatonic"
        EVTFILTER 0 -1 -1 -1 -1 0 1 0 0 -1.00000000 -1.00000000
      >
    >
  >
  <TRACK '{025DCE78-4925-4AC5-9553-81B47EF2BC6B}'
    NAME "BEAT"
    PEAKCOL 16576
    BEAT -1
    AUTOMODE 0
    VOLPAN 1.00000000000000 0.00000000000000 -1.00000000000000 -1.00000000000000 1.00000000000000
    MUTESOLO 0 0 0
    IPHASE 0
    ISBUS 0 0
    BUSCOMP 0 0
    SHOWINMIX 1 0.666700 0.500000 1 0.500000 -1 -1 -1
    FREEMODE 0
    SEL 0
    REC 0 0 0 0 0 0 0
    VU 2
    TRACKHEIGHT 0 0
    INQ 0 0 0 0.5000000000 100 0 0 100
    NCHAN 2
    FX 1
    TRACKID {025DCE78-4925-4AC5-9553-81B47EF2BC6B}
    PERF 0
    MIDIOUT -1
    <MIDINOTENAMES
      0 13 "Up Beats"
      0 12 "Downbeat"
    >
    MAINSEND 1 0
    <FXCHAIN
      SHOW 0
      LASTSEL 0
      DOCKED 0
    >
    <ITEM
      POSITION 0.00000000000000
      SNAPOFFS 0.00000000000000
      LENGTH 184.96834400000000
      LOOP 0
      ALLTAKES 0
      SEL 0
      FADEIN 1 0.000000 0.000000 1 0
      FADEOUT 1 0.000000 0.000000 1 0
      MUTE 0
      IGUID {CFB12B77-091C-47BF-9556-25875F76F6CD}
      IID 8
      NAME "BEAT"
      VOLPAN 1.000000 0.000000 1.000000 -1.000000
      SOFFS 0.00000000000000 0.00000000000000
      PLAYRATE 1.00000000000000 1 0.00000000000000 -1
      CHANMODE 0
      GUID {F917BD43-B316-4D45-BEF2-EB554A4E9DD8}
      <SOURCE MIDI
        HASDATA 1 480 QN
        POOLEDEVTS {4A1741B8-E4EA-4A20-9F41-DB06FFBB9B6E}
        <X 0 0
          /wNCRUFU
        >
        E 0 96 0c 64
        E 120 86 0c 00
        E 360 96 0d 64
        E 120 86 0d 00
        E 360 96 0d 64
        E 120 86 0d 00
        E 360 96 0d 64
        E 120 86 0d 00
        E 360 96 0c 64
        E 120 86 0c 00
        E 360 96 0d 64
        E 120 86 0d 00
        E 360 96 0d 64
        E 120 86 0d 00
        E 360 96 0d 64
        E 120 86 0d 00
        E 360 96 0c 64
        E 120 86 0c 00
        E 360 96 0d 64
        E 120 86 0d 00
        E 360 96 0d 64
        E 120 86 0d 00
        E 360 96 0d 64
        E 120 86 0d 00
        E 360 96 0c 64
        E 120 86 0c 00
        E 360 96 0d 64
        E 120 86 0d 00
        E 360 96 0d 64
        E 120 86 0d 00
        E 360 96 0d 64
        E 120 86 0d 00
        E 360 96 0c 64
        E 120 86 0c 00
        E 360 96 0d 64
        E 120 86 0d 00
        E 360 96 0d 64
        E 120 86 0d 00
        E 360 96 0d 64
        E 120 86 0d 00
        E 360 96 0c 64
        E 120 86 0c 00
        E 360 96 0d 64
        E 120 86 0d 00
        E 360 96 0d 64
        E 120 86 0d 00
        E 360 96 0d 64
        E 120 86 0d 00
        E 360 96 0c 64
        E 120 86 0c 00
        E 360 96 0d 64
        E 120 86 0d 00
        E 360 96 0d 64
        E 120 86 0d 00
        E 360 96 0d 64
        E 120 86 0d 00
        E 360 96 0c 64
        E 120 86 0c 00
        E 360 96 0d 64
        E 120 86 0d 00
        E 360 96 0d 64
        E 120 86 0d 00
        E 360 96 0d 64
        E 120 86 0d 00
        E 360 96 0c 64
        E 120 86 0c 00
        E 360 96 0d 64
        E 120 86 0d 00
        E 360 96 0d 64
        E 120 86 0d 00
        E 360 96 0d 64
        E 120 86 0d 00
        E 360 96 0c 64
        E 120 86 0c 00
        E 360 96 0d 64
        E 120 86 0d 00
        E 360 96 0d 64
        E 120 86 0d 00
        E 360 96 0d 64
        E 120 86 0d 00
        E 360 96 0c 64
        E 120 86 0c 00
        E 360 96 0d 64
        E 120 86 0d 00
        E 360 96 0d 64
        E 120 86 0d 00
        E 360 96 0d 64
        E 120 86 0d 00
        E 360 96 0c 64
        E 120 86 0c 00
        E 360 96 0d 64
        E 120 86 0d 00
        E 360 96 0d 64
        E 120 86 0d 00
        E 360 96 0d 64
        E 120 86 0d 00
        E 360 96 0c 64
        E 120 86 0c 00
        E 360 96 0d 64
        E 120 86 0d 00
        E 360 96 0d 64
        E 120 86 0d 00
        E 360 96 0d 64
        E 120 86 0d 00
        E 360 96 0c 64
        E 120 86 0c 00
        E 360 96 0d 64
        E 120 86 0d 00
        E 360 96 0d 64
        E 120 86 0d 00
        E 360 96 0d 64
        E 120 86 0d 00
        E 360 96 0c 64
        E 120 86 0c 00
        E 360 96 0d 64
        E 120 86 0d 00
        E 360 96 0d 64
        E 120 86 0d 00
        E 360 96 0d 64
        E 120 86 0d 00
        E 360 96 0c 64
        E 120 86 0c 00
        E 360 96 0d 64
        E 120 86 0d 00
        E 360 96 0d 64
        E 120 86 0d 00
        E 360 96 0d 64
        E 120 86 0d 00
        E 360 96 0c 64
        E 120 86 0c 00
        E 360 96 0d 64
        E 120 86 0d 00
        E 360 96 0d 64
        E 120 86 0d 00
        E 360 96 0d 64
        E 120 86 0d 00
        E 360 96 0c 64
        E 120 86 0c 00
        E 360 96 0d 64
        E 120 86 0d 00
        E 360 96 0d 64
        E 120 86 0d 00
        E 360 96 0d 64
        E 120 86 0d 00
        E 360 96 0c 64
        E 120 86 0c 00
        E 360 96 0d 64
        E 120 86 0d 00
        E 360 96 0d 64
        E 120 86 0d 00
        E 360 96 0d 64
        E 120 86 0d 00
        E 360 96 0c 64
        E 120 86 0c 00
        E 360 96 0d 64
        E 120 86 0d 00
        E 360 96 0d 64
        E 120 86 0d 00
        E 360 96 0d 64
        E 120 86 0d 00
        E 360 96 0c 64
        E 120 86 0c 00
        E 360 96 0d 64
        E 120 86 0d 00
        E 360 96 0d 64
        E 120 86 0d 00
        E 360 96 0d 64
        E 120 86 0d 00
        E 360 96 0c 64
        E 120 86 0c 00
        E 360 96 0d 64
        E 120 86 0d 00
        E 360 96 0d 64
        E 120 86 0d 00
        E 360 96 0d 64
        E 120 86 0d 00
        E 360 96 0c 64
        E 120 86 0c 00
        E 360 96 0d 64
        E 120 86 0d 00
        E 360 96 0d 64
        E 120 86 0d 00
        E 360 96 0d 64
        E 120 86 0d 00
        E 360 96 0c 64
        E 120 86 0c 00
        E 360 96 0d 64
        E 120 86 0d 00
        E 360 96 0d 64
        E 120 86 0d 00
        E 360 96 0d 64
        E 120 86 0d 00
        E 360 96 0c 64
        E 120 86 0c 00
        E 360 96 0d 64
        E 120 86 0d 00
        E 360 96 0d 64
        E 120 86 0d 00
        E 360 96 0d 64
        E 120 86 0d 00
        E 360 96 0c 64
        E 120 86 0c 00
        E 360 96 0d 64
        E 120 86 0d 00
        E 360 96 0d 64
        E 120 86 0d 00
        E 360 96 0d 64
        E 120 86 0d 00
        E 360 96 0c 64
        E 120 86 0c 00
        E 360 96 0d 64
        E 120 86 0d 00
        E 360 96 0d 64
        E 120 86 0d 00
        E 360 96 0d 64
        E 120 86 0d 00
        E 360 96 0c 64
        E 120 86 0c 00
        E 360 96 0d 64
        E 120 86 0d 00
        E 360 96 0d 64
        E 120 86 0d 00
        E 360 96 0d 64
        E 120 86 0d 00
        E 360 96 0c 64
        E 120 86 0c 00
        E 360 96 0d 64
        E 120 86 0d 00
        E 360 96 0d 64
        E 120 86 0d 00
        E 360 96 0d 64
        E 120 86 0d 00
        E 360 96 0c 64
        E 120 86 0c 00
        E 360 96 0d 64
        E 120 86 0d 00
        E 360 96 0d 64
        E 120 86 0d 00
        E 360 96 0d 64
        E 120 86 0d 00
        E 360 96 0c 64
        E 120 86 0c 00
        E 360 96 0d 64
        E 120 86 0d 00
        E 360 96 0d 64
        E 120 86 0d 00
        E 360 96 0d 64
        E 120 86 0d 00
        E 360 96 0c 64
        E 120 86 0c 00
        E 360 96 0d 64
        E 120 86 0d 00
        E 360 96 0d 64
        E 120 86 0d 00
        E 360 96 0d 64
        E 120 86 0d 00
        E 360 96 0c 64
        E 120 86 0c 00
        E 360 96 0d 64
        E 120 86 0d 00
        E 360 96 0d 64
        E 120 86 0d 00
        E 360 96 0d 64
        E 120 86 0d 00
        E 360 96 0c 64
        E 120 86 0c 00
        E 360 96 0d 64
        E 120 86 0d 00
        E 360 96 0d 64
        E 120 86 0d 00
        E 360 96 0d 64
        E 120 86 0d 00
        E 360 96 0c 64
        E 120 86 0c 00
        E 360 96 0d 64
        E 120 86 0d 00
        E 360 96 0d 64
        E 120 86 0d 00
        E 360 96 0d 64
        E 120 86 0d 00
        E 360 96 0c 64
        E 120 86 0c 00
        E 360 96 0d 64
        E 120 86 0d 00
        E 360 96 0d 64
        E 120 86 0d 00
        E 360 96 0d 64
        E 120 86 0d 00
        E 360 96 0c 64
        E 120 86 0c 00
        E 360 96 0d 64
        E 120 86 0d 00
        E 360 96 0d 64
        E 120 86 0d 00
        E 360 96 0d 64
        E 120 86 0d 00
        E 360 96 0c 64
        E 120 86 0c 00
        E 360 96 0d 64
        E 120 86 0d 00
        E 360 96 0d 64
        E 120 86 0d 00
        E 360 96 0d 64
        E 120 86 0d 00
        E 360 96 0c 64
        E 120 86 0c 00
        E 360 96 0d 64
        E 120 86 0d 00
        E 360 96 0d 64
        E 120 86 0d 00
        E 360 96 0d 64
        E 120 86 0d 00
        E 360 96 0c 64
        E 120 86 0c 00
        E 360 96 0d 64
        E 120 86 0d 00
        E 360 96 0d 64
        E 120 86 0d 00
        E 360 96 0d 64
        E 120 86 0d 00
        E 360 96 0c 64
        E 120 86 0c 00
        E 360 96 0d 64
        E 120 86 0d 00
        E 360 96 0d 64
        E 120 86 0d 00
        E 360 96 0d 64
        E 120 86 0d 00
        E 360 96 0c 64
        E 120 86 0c 00
        E 360 96 0d 64
        E 120 86 0d 00
        E 360 96 0d 64
        E 120 86 0d 00
        E 360 96 0d 64
        E 120 86 0d 00
        E 360 96 0c 64
        E 120 86 0c 00
        E 360 96 0d 64
        E 120 86 0d 00
        E 360 96 0d 64
        E 120 86 0d 00
        E 360 96 0d 64
        E 120 86 0d 00
        E 360 96 0c 64
        E 120 86 0c 00
        E 360 96 0d 64
        E 120 86 0d 00
        E 360 96 0d 64
        E 120 86 0d 00
        E 360 96 0d 64
        E 120 86 0d 00
        E 360 96 0c 64
        E 120 86 0c 00
        E 360 96 0d 64
        E 120 86 0d 00
        E 360 96 0d 64
        E 120 86 0d 00
        E 360 96 0d 64
        E 120 86 0d 00
        E 360 96 0c 64
        E 120 86 0c 00
        E 360 96 0d 64
        E 120 86 0d 00
        E 360 96 0d 64
        E 120 86 0d 00
        E 360 96 0d 64
        E 120 86 0d 00
        E 360 96 0c 64
        E 120 86 0c 00
        E 360 96 0d 64
        E 120 86 0d 00
        E 360 96 0d 64
        E 120 86 0d 00
        E 360 96 0d 64
        E 120 86 0d 00
        E 360 96 0c 64
        E 120 86 0c 00
        E 360 96 0d 64
        E 120 86 0d 00
        E 360 96 0d 64
        E 120 86 0d 00
        E 360 96 0d 64
        E 120 86 0d 00
        E 360 96 0c 64
        E 120 86 0c 00
        E 360 96 0d 64
        E 120 86 0d 00
        E 360 96 0d 64
        E 120 86 0d 00
        E 360 96 0d 64
        E 120 86 0d 00
        E 360 96 0c 64
        E 120 86 0c 00
        E 360 96 0d 64
        E 120 86 0d 00
        E 360 96 0d 64
        E 120 86 0d 00
        E 360 96 0d 64
        E 120 86 0d 00
        E 360 96 0c 64
        E 120 86 0c 00
        E 360 96 0d 64
        E 120 86 0d 00
        E 360 96 0d 64
        E 120 86 0d 00
        E 360 96 0d 64
        E 120 86 0d 00
        E 360 96 0c 64
        E 120 86 0c 00
        E 360 96 0d 64
        E 120 86 0d 00
        E 360 96 0d 64
        E 120 86 0d 00
        E 360 96 0d 64
        E 120 86 0d 00
        E 360 96 0c 64
        E 120 86 0c 00
        E 360 96 0d 64
        E 120 86 0d 00
        E 360 96 0d 64
        E 120 86 0d 00
        E 360 96 0d 64
        E 120 86 0d 00
        E 360 96 0c 64
        E 120 86 0c 00
        E 360 96 0d 64
        E 120 86 0d 00
        E 360 96 0d 64
        E 120 86 0d 00
        E 360 96 0d 64
        E 120 86 0d 00
        E 360 96 0c 64
        E 120 86 0c 00
        E 360 96 0d 64
        E 120 86 0d 00
        E 360 96 0d 64
        E 120 86 0d 00
        E 360 96 0d 64
        E 120 86 0d 00
        E 360 96 0c 64
        E 120 86 0c 00
        E 360 96 0d 64
        E 120 86 0d 00
        E 360 96 0d 64
        E 120 86 0d 00
        E 360 96 0d 64
        E 120 86 0d 00
        E 360 96 0c 64
        E 120 86 0c 00
        E 360 96 0d 64
        E 120 86 0d 00
        E 360 96 0d 64
        E 120 86 0d 00
        E 360 96 0d 64
        E 120 86 0d 00
        E 360 96 0c 64
        E 120 86 0c 00
        E 360 96 0d 64
        E 120 86 0d 00
        E 360 96 0d 64
        E 120 86 0d 00
        E 360 96 0d 64
        E 120 86 0d 00
        E 360 96 0c 64
        E 120 86 0c 00
        E 360 96 0d 64
        E 120 86 0d 00
        E 360 96 0d 64
        E 120 86 0d 00
        E 360 96 0d 64
        E 120 86 0d 00
        E 360 96 0c 64
        E 120 86 0c 00
        E 360 96 0d 64
        E 120 86 0d 00
        E 360 96 0d 64
        E 120 86 0d 00
        E 360 96 0d 64
        E 120 86 0d 00
        E 360 96 0c 64
        E 120 86 0c 00
        E 360 96 0d 64
        E 120 86 0d 00
        E 360 96 0d 64
        E 120 86 0d 00
        E 360 96 0d 64
        E 120 86 0d 00
        E 360 96 0c 64
        E 120 86 0c 00
        E 360 96 0d 64
        E 120 86 0d 00
        E 360 96 0d 64
        E 120 86 0d 00
        E 360 96 0d 64
        E 120 86 0d 00
        E 360 96 0c 64
        E 120 86 0c 00
        E 360 96 0d 64
        E 120 86 0d 00
        E 360 96 0d 64
        E 120 86 0d 00
        E 360 96 0d 64
        E 120 86 0d 00
        E 360 96 0c 64
        E 120 86 0c 00
        E 360 96 0d 64
        E 120 86 0d 00
        E 360 96 0d 64
        E 120 86 0d 00
        E 360 96 0d 64
        E 120 86 0d 00
        E 360 96 0c 64
        E 120 86 0c 00
        E 360 96 0d 64
        E 120 86 0d 00
        E 360 96 0d 64
        E 120 86 0d 00
        E 360 96 0d 64
        E 120 86 0d 00
        E 360 96 0c 64
        E 120 86 0c 00
        E 360 96 0d 64
        E 120 86 0d 00
        E 360 96 0d 64
        E 120 86 0d 00
        E 360 96 0d 64
        E 120 86 0d 00
        E 360 96 0c 64
        E 120 86 0c 00
        E 360 96 0d 64
        E 120 86 0d 00
        E 360 96 0d 64
        E 120 86 0d 00
        E 360 96 0d 64
        E 120 86 0d 00
        E 360 96 0c 64
        E 120 86 0c 00
        E 360 96 0d 64
        E 120 86 0d 00
        E 360 96 0d 64
        E 120 86 0d 00
        E 360 96 0d 64
        E 120 86 0d 00
        E 360 96 0c 64
        E 120 86 0c 00
        E 360 96 0d 64
        E 120 86 0d 00
        E 360 96 0d 64
        E 120 86 0d 00
        E 360 96 0d 64
        E 120 86 0d 00
        E 360 96 0c 64
        E 120 86 0c 00
        E 360 96 0d 64
        E 120 86 0d 00
        E 360 96 0d 64
        E 120 86 0d 00
        E 360 96 0d 64
        E 120 86 0d 00
        E 360 96 0c 64
        E 120 86 0c 00
        E 360 96 0d 64
        E 120 86 0d 00
        E 360 96 0d 64
        E 120 86 0d 00
        E 360 96 0d 64
        E 120 86 0d 00
        E 360 96 0c 64
        E 120 86 0c 00
        E 360 96 0d 64
        E 120 86 0d 00
        E 360 96 0d 64
        E 120 86 0d 00
        E 360 96 0d 64
        E 120 86 0d 00
        E 360 96 0c 64
        E 120 86 0c 00
        E 360 96 0d 64
        E 120 86 0d 00
        E 360 96 0d 64
        E 120 86 0d 00
        E 360 96 0d 64
        E 120 86 0d 00
        E 360 96 0c 64
        E 120 86 0c 00
        E 360 96 0d 64
        E 120 86 0d 00
        E 360 96 0d 64
        E 120 86 0d 00
        E 360 96 0d 64
        E 120 86 0d 00
        E 360 96 0c 64
        E 120 86 0c 00
        E 360 96 0d 64
        E 120 86 0d 00
        E 360 96 0d 64
        E 120 86 0d 00
        E 360 96 0d 64
        E 120 86 0d 00
        E 360 96 0c 64
        E 120 86 0c 00
        E 360 96 0d 64
        E 120 86 0d 00
        E 360 96 0d 64
        E 120 86 0d 00
        E 360 96 0d 64
        E 120 86 0d 00
        E 360 96 0c 64
        E 120 86 0c 00
        E 360 96 0d 64
        E 120 86 0d 00
        E 360 96 0d 64
        E 120 86 0d 00
        E 360 96 0d 64
        E 120 86 0d 00
        E 360 96 0c 64
        E 120 86 0c 00
        E 360 96 0d 64
        E 120 86 0d 00
        E 360 96 0d 64
        E 120 86 0d 00
        E 360 96 0d 64
        E 120 86 0d 00
        E 360 96 0c 64
        E 120 86 0c 00
        E 360 96 0d 64
        E 120 86 0d 00
        E 360 96 0d 64
        E 120 86 0d 00
        E 360 96 0d 64
        E 120 86 0d 00
        E 360 96 0c 64
        E 120 86 0c 00
        E 360 96 0d 64
        E 120 86 0d 00
        E 360 96 0d 64
        E 120 86 0d 00
        E 360 96 0d 64
        E 120 86 0d 00
        E 360 96 0c 64
        E 120 86 0c 00
        E 360 96 0d 64
        E 120 86 0d 00
        E 360 96 0d 64
        E 120 86 0d 00
        E 360 96 0d 64
        E 120 86 0d 00
        E 360 96 0c 64
        E 120 86 0c 00
        E 360 96 0d 64
        E 120 86 0d 00
        E 360 96 0d 64
        E 120 86 0d 00
        E 360 96 0d 64
        E 120 86 0d 00
        E 360 96 0c 64
        E 120 86 0c 00
        E 360 96 0d 64
        E 120 86 0d 00
        E 360 96 0d 64
        E 120 86 0d 00
        E 360 96 0d 64
        E 120 86 0d 00
        E 360 96 0c 64
        E 120 86 0c 00
        E 360 96 0d 64
        E 120 86 0d 00
        E 360 96 0d 64
        E 120 86 0d 00
        E 360 96 0d 64
        E 120 86 0d 00
        E 360 96 0c 64
        E 120 86 0c 00
        E 360 96 0d 64
        E 120 86 0d 00
        E 360 96 0d 64
        E 120 86 0d 00
        E 360 96 0d 64
        E 120 86 0d 00
        E 360 96 0c 64
        E 120 86 0c 00
        E 360 96 0d 64
        E 120 86 0d 00
        E 360 96 0d 64
        E 120 86 0d 00
        E 360 96 0d 64
        E 120 86 0d 00
        E 360 96 0c 64
        E 120 86 0c 00
        E 360 96 0d 64
        E 120 86 0d 00
        E 360 96 0d 64
        E 120 86 0d 00
        E 360 96 0d 64
        E 120 86 0d 00
        E 360 96 0c 64
        E 120 86 0c 00
        E 360 96 0d 64
        E 120 86 0d 00
        E 360 96 0d 64
        E 120 86 0d 00
        E 360 96 0d 64
        E 120 86 0d 00
        E 360 96 0c 64
        E 120 86 0c 00
        E 360 96 0d 64
        E 120 86 0d 00
        E 360 96 0d 64
        E 120 86 0d 00
        E 360 96 0d 64
        E 120 86 0d 00
        E 360 96 0c 64
        E 120 86 0c 00
        E 360 96 0d 64
        E 120 86 0d 00
        E 360 96 0d 64
        E 120 86 0d 00
        E 360 96 0d 64
        E 120 86 0d 00
        E 360 96 0c 64
        E 120 86 0c 00
        E 360 96 0d 64
        E 120 86 0d 00
        E 360 96 0d 64
        E 120 86 0d 00
        E 360 96 0d 64
        E 120 86 0d 00
        E 360 96 0c 64
        E 120 86 0c 00
        E 360 96 0d 64
        E 120 86 0d 00
        E 360 96 0d 64
        E 120 86 0d 00
        E 360 96 0d 64
        E 120 86 0d 00
        E 360 96 0c 64
        E 120 86 0c 00
        E 360 96 0d 64
        E 120 86 0d 00
        E 360 96 0d 64
        E 120 86 0d 00
        E 360 96 0d 64
        E 120 86 0d 00
        E 360 96 0c 64
        E 120 86 0c 00
        E 360 96 0d 64
        E 120 86 0d 00
        E 360 96 0d 64
        E 120 86 0d 00
        E 360 96 0d 64
        E 120 86 0d 00
        E 360 96 0c 64
        E 120 86 0c 00
        E 360 96 0d 64
        E 120 86 0d 00
        E 360 96 0d 64
        E 120 86 0d 00
        E 360 96 0d 64
        E 120 86 0d 00
        E 360 96 0c 64
        E 120 86 0c 00
        E 360 96 0d 64
        E 120 86 0d 00
        E 360 96 0d 64
        E 120 86 0d 00
        E 360 96 0d 64
        E 120 86 0d 00
        E 360 96 0c 64
        E 120 86 0c 00
        E 360 96 0d 64
        E 120 86 0d 00
        E 360 96 0d 64
        E 120 86 0d 00
        E 360 96 0d 64
        E 120 86 0d 00
        E 360 96 0c 64
        E 120 86 0c 00
        E 360 96 0d 64
        E 120 86 0d 00
        E 360 96 0d 64
        E 120 86 0d 00
        E 360 96 0d 64
        E 120 86 0d 00
        E 360 96 0c 64
        E 120 86 0c 00
        E 360 96 0d 64
        E 120 86 0d 00
        E 360 96 0d 64
        E 120 86 0d 00
        E 360 96 0d 64
        E 120 86 0d 00
        E 360 96 0c 64
        E 120 86 0c 00
        E 360 96 0d 64
        E 120 86 0d 00
        E 360 96 0d 64
        E 120 86 0d 00
        E 360 96 0d 64
        E 120 86 0d 00
        E 360 96 0c 64
        E 120 86 0c 00
        E 360 96 0d 64
        E 120 86 0d 00
        E 360 96 0d 64
        E 120 86 0d 00
        E 360 96 0d 64
        E 120 86 0d 00
        E 360 96 0c 64
        E 120 86 0c 00
        E 360 96 0d 64
        E 120 86 0d 00
        E 360 96 0d 64
        E 120 86 0d 00
        E 360 96 0d 64
        E 120 86 0d 00
        E 360 96 0c 64
        E 120 86 0c 00
        E 360 96 0d 64
        E 120 86 0d 00
        E 360 96 0d 64
        E 120 86 0d 00
        E 360 96 0d 64
        E 120 86 0d 00
        E 360 96 0c 64
        E 120 86 0c 00
        E 360 96 0d 64
        E 120 86 0d 00
        E 360 96 0d 64
        E 120 86 0d 00
        E 360 96 0d 64
        E 120 86 0d 00
        E 360 96 0c 64
        E 120 86 0c 00
        E 360 96 0d 64
        E 120 86 0d 00
        E 360 96 0d 64
        E 120 86 0d 00
        E 360 96 0d 64
        E 120 86 0d 00
        E 360 96 0c 64
        E 120 86 0c 00
        E 360 96 0d 64
        E 120 86 0d 00
        E 360 96 0d 64
        E 120 86 0d 00
        E 360 96 0d 64
        E 120 86 0d 00
        E 360 96 0c 64
        E 120 86 0c 00
        E 360 96 0d 64
        E 120 86 0d 00
        E 360 96 0d 64
        E 120 86 0d 00
        E 360 96 0d 64
        E 120 86 0d 00
        E 360 96 0c 64
        E 120 86 0c 00
        E 360 96 0d 64
        E 120 86 0d 00
        E 360 96 0d 64
        E 120 86 0d 00
        E 360 96 0d 64
        E 120 86 0d 00
        E 360 96 0c 64
        E 120 86 0c 00
        E 360 96 0d 64
        E 120 86 0d 00
        E 360 96 0d 64
        E 120 86 0d 00
        E 360 96 0d 64
        E 120 86 0d 00
        E 360 96 0c 64
        E 120 86 0c 00
        E 360 96 0d 64
        E 120 86 0d 00
        E 360 96 0d 64
        E 120 86 0d 00
        E 360 96 0d 64
        E 120 86 0d 00
        E 360 96 0c 64
        E 120 86 0c 00
        E 360 96 0d 64
        E 120 86 0d 00
        E 360 96 0d 64
        E 120 86 0d 00
        E 360 96 0d 64
        E 120 86 0d 00
        E 360 96 0c 64
        E 120 86 0c 00
        E 360 96 0d 64
        E 120 86 0d 00
        E 360 96 0d 64
        E 120 86 0d 00
        E 360 96 0d 64
        E 120 86 0d 00
        E 360 96 0c 64
        E 120 86 0c 00
        E 360 96 0d 64
        E 120 86 0d 00
        E 360 96 0d 64
        E 120 86 0d 00
        E 360 96 0d 64
        E 120 86 0d 00
        E 360 96 0c 64
        E 120 86 0c 00
        E 360 96 0d 64
        E 120 86 0d 00
        E 360 96 0d 64
        E 120 86 0d 00
        E 360 96 0d 64
        E 120 86 0d 00
        E 360 96 0c 64
        E 120 86 0c 00
        E 360 96 0d 64
        E 120 86 0d 00
        E 360 96 0d 64
        E 120 86 0d 00
        E 360 96 0d 64
        E 120 86 0d 00
        E 360 96 0c 64
        E 120 86 0c 00
        E 360 96 0d 64
        E 120 86 0d 00
        E 360 96 0d 64
        E 120 86 0d 00
        E 360 96 0d 64
        E 120 86 0d 00
        E 360 96 0c 64
        E 120 86 0c 00
        E 360 96 0d 64
        E 120 86 0d 00
        E 360 96 0d 64
        E 120 86 0d 00
        E 360 96 0d 64
        E 120 86 0d 00
        E 360 96 0c 64
        E 120 86 0c 00
        E 360 96 0d 64
        E 120 86 0d 00
        E 360 96 0d 64
        E 120 86 0d 00
        E 360 96 0d 64
        E 120 86 0d 00
        E 360 96 0c 64
        E 120 86 0c 00
        E 360 96 0d 64
        E 120 86 0d 00
        E 360 96 0d 64
        E 120 86 0d 00
        E 360 96 0d 64
        E 120 86 0d 00
        E 360 96 0c 64
        E 120 86 0c 00
        E 360 96 0d 64
        E 120 86 0d 00
        E 360 96 0d 64
        E 120 86 0d 00
        E 360 96 0d 64
        E 120 86 0d 00
        E 360 96 0c 64
        E 120 86 0c 00
        E 360 96 0d 64
        E 120 86 0d 00
        E 360 96 0d 64
        E 120 86 0d 00
        E 360 96 0d 64
        E 120 86 0d 00
        E 360 b0 7b 00
        GUID {3006E191-9A9A-4CAA-9F58-486530F6C970}
        IGNTEMPO 0 120.00000000 4 4
        SRCCOLOR 10
        VELLANE 132 128 60
        COLORMAP "C:\Program Files\REAPER (x64)\Data\color_maps\rockband_guitarbass.png"
        CFGEDITVIEW 158208.688472 66.456307 0 48 0 0 0
        CFGEDIT 1 1 0 1 1 0 1 1 1 1 1 0.12500000 53 44 1253 718 0 2 1 1 0.00000000 0 1 1 0 0.500000 0 0 1.000000 64
        KEYSNAP 0 7 "102030050700" 0 "Pentatonic"
        EVTFILTER 0 -1 -1 -1 -1 0 1 0 0 -1.00000000 -1.00000000
      >
    >
  >
  <TRACK '{2269CD90-0131-4C68-98DE-BEF6C3500821}'
    NAME "backing"
    PEAKCOL 16576
    BEAT -1
    AUTOMODE 0
    VOLPAN 1.00000000000000 0.00000000000000 -1.00000000000000 -1.00000000000000 1.00000000000000
    MUTESOLO 0 0 0
    IPHASE 0
    ISBUS 0 0
    BUSCOMP 0 0
    SHOWINMIX 1 0.666700 0.500000 1 0.500000 -1 -1 -1
    FREEMODE 0
    SEL 0
    REC 0 0 0 0 0 0 0
    VU 2
    TRACKHEIGHT 0 0
    INQ 0 0 0 0.5000000000 100 0 0 100
    NCHAN 2
    FX 1
    TRACKID {2269CD90-0131-4C68-98DE-BEF6C3500821}
    PERF 0
    MIDIOUT -1
    MAINSEND 1 0
    <ITEM
      POSITION 0.00000000000000
      SNAPOFFS 0.00000000000000
      LENGTH 184.96816326530612
      LOOP 0
      ALLTAKES 0
      SEL 0
      FADEIN 1 0.000000 0.000000 1 0
      FADEOUT 1 0.000000 0.000000 1 0
      MUTE 0
      IGUID {C2732BC4-1B85-49EC-B8B1-2581A4ECDEC3}
      IID 9
      NAME "backing.wav"
      VOLPAN 1.000000 0.000000 1.000000 -1.000000
      SOFFS 0.00000000000000
      PLAYRATE 1.00000000000000 1 0.00000000000000 -1
      CHANMODE 0
      GUID {39695A16-4114-49FF-A7D1-C57D7D7A76C4}
      <SOURCE WAVE
        FILE "wav\backing.wav"
      >
    >
  >
  <EXTENSIONS
  >
>
