<REAPER_PROJECT 0.1 "4.22/x64"
  RIPPLE 0
  GROUPOVERRIDE 0 0 0
  AUTOXFADE 1
  ENVATTACH 1
  MIXERUIFLAGS 11 48
  PEAKGAIN 1.00000000000000
  FEEDBACK 0
  PANLAW 1.00000000000000
  PROJOFFS 0.00000000000000 0
  MAXPROJLEN 0 600.00000000000000
  GRID 3199 8 1.00000000000000 8 1.00000000000000 0
  TIMEMODE 1 0 -1
  PANMODE 3
  CURSOR 0.00000000000000
  ZOOM 5.04385839231474 0 0
  VZOOMEX 6
  USE_REC_CFG 0
  RECMODE 1
  SMPTESYNC 0 23.976024 100 40 1000 300 0 0.000000 1
  LOOP 1
  LOOPGRAN 0 4.00000000000000
  RECORD_PATH "" ""
  <RECORD_CFG
    ZXZhdxAD
  >
  <APPLYFX_CFG
  >
  RENDER_FILE ""
  RENDER_PATTERN ""
  RENDER_FMT 0 2 0
  RENDER_1X 0
  RENDER_RANGE 1 0.00000000000000 0.00000000000000
  RENDER_RESAMPLE 3 0 1
  RENDER_ADDTOPROJ 0
  RENDER_STEMS 0
  RENDER_DITHER 0
  TIMELOCKMODE 0
  ITEMMIX 0
  DEFPITCHMODE 393216
  TAKELANE 1
  SAMPLERATE 44100 0 0
  <RENDER_CFG
  >
  LOCK 1
  <METRONOME 6 2.000000
    VOL 0.250000 0.125000
    FREQ 800 1600 1
    BEATLEN 4
    SAMPLES "" ""
  >
  GLOBAL_AUTO -1
  TEMPO 120.00000000000000 4 4
  PLAYRATE 1.00000000000000 0 0.25000 4.00000
  SELECTION 0.00000000000000 222.64701199999999
  SELECTION2 0.00000000000000 222.64701199999999
  MASTERAUTOMODE 0
  MASTERTRACKHEIGHT 0
  MASTERPEAKCOL 16576
  MASTERMUTESOLO 0
  MASTERTRACKVIEW 0 0.666700 0.500000 0.500000 -1 -1 -1
  MASTERHWOUT 0 0 1.00000000000000 0.00000000000000 0 0 0 -1.00000000000000
  MASTER_NCH 2 2
  MASTER_VOLUME 1.00000000000000 0.00000000000000 -1.00000000000000 -1.00000000000000 1.00000000000000
  MASTER_PANMODE -1
  MASTER_FX 1
  MASTER_SEL 0
  <MASTERPLAYSPEEDENV
    ACT 0
    VIS 0 1 1.000000
    LANEHEIGHT 0 0
    ARM 0
    DEFSHAPE 0 -1 -1
  >
  <TEMPOENVEX
    ACT 1
    VIS 1 0 1.000000
    LANEHEIGHT 0 0
    ARM 0
    DEFSHAPE 1 -1 -1
    PT 0.000000000000 55.0000045833 1
    PT 209.454528000000 54.0000054000 1
    PT 211.676750000000 53.5000156042 1
    PT 213.919740000000 55.0000045833 1
  >
  <PROJBAY
  >
  <TRACK '{C56CD717-6BDE-4636-B141-1D9005131CCE}'
    NAME "PART VOCALS"
    PEAKCOL 16576
    BEAT -1
    AUTOMODE 0
    VOLPAN 1.00000000000000 0.00000000000000 -1.00000000000000 -1.00000000000000 1.00000000000000
    MUTESOLO 0 0 0
    IPHASE 0
    ISBUS 1 1
    BUSCOMP 0 0
    SHOWINMIX 1 0.666700 0.500000 1 0.500000 -1 -1 -1
    FREEMODE 0
    SEL 0
    REC 0 0 0 0 0 0 0
    VU 2
    TRACKHEIGHT 0 0
    INQ 0 0 0 0.5000000000 100 0 0 100
    NCHAN 2
    FX 0
    TRACKID {C56CD717-6BDE-4636-B141-1D9005131CCE}
    PERF 0
    MIDIOUT -1
    <MIDINOTENAMES
      0 116 "OVERDRIVE"
      0 115 "----"
      0 105 "Phrase Marker"
      0 104 "----"
      0 97 "Non-Displayed Percussion"
      0 96 "Displayed Percussion"
      0 95 "----"
      0 84 "C6 (Unused Highest Note)"
      0 83 "B5"
      0 82 "A#4"
      0 81 "A4"
      0 80 "G#4"
      0 79 "G4"
      0 78 "F#4"
      0 77 "F4"
      0 76 "E4"
      0 75 "D#4"
      0 74 "D4"
      0 73 "C#4"
      0 72 "C4"
      0 71 "B3"
      0 70 "A#3"
      0 69 "A3"
      0 68 "G#3"
      0 67 "G3"
      0 66 "F#3"
      0 65 "F3"
      0 64 "E3"
      0 63 "D#3"
      0 62 "D3"
      0 61 "C#3"
      0 60 "C3"
      0 59 "B2"
      0 58 "A#2"
      0 57 "A2"
      0 56 "G#2"
      0 55 "G2"
      0 54 "F#2"
      0 53 "F2"
      0 52 "E2"
      0 51 "D#2"
      0 50 "D2"
      0 49 "C#2"
      0 48 "C2"
      0 47 "B1"
      0 46 "A#1"
      0 45 "A1"
      0 44 "G#1"
      0 43 "G1"
      0 42 "F#1"
      0 41 "F1"
      0 40 "E1"
      0 39 "D#1"
      0 38 "D1"
      0 37 "C#1"
      0 36 "Lowest Note C1"
      0 2 "---"
      0 1 "Lyric Shift"
      0 0 "Range Shift"
    >
    MAINSEND 1 0
    <FXCHAIN
      WNDRECT 0 43 655 467
      SHOW 0
      LASTSEL 1
      DOCKED 0
      BYPASS 0 0
      <JS "MIDI/midi_note_filter" ""
        36.000000 84.000000 - - - - - - - - - - - - - - - - - - - - - - - - - - - - - - - - - - - - - - - - - - - - - - - - - - - - - - - - - - - - - - 
      >
      FLOATPOS 0 0 0 0
      FXID {D5FD7631-1313-4B88-A9AC-248D8F684DD5}
      WAK 0
      BYPASS 0 0
      <VST "VSTi: ReaSynth (Cockos)" "reasynth.dll" 0 ""
        eXNlcu9e7f4AAAAAAgAAAAEAAAAAAAAAAgAAAAAAAAA4AAAAAAAAAA==
        AAAQAO++rd4N8K3eppvEOxe30ToAAIA/AAAAAAAAAADMm4A+6WeIPQ==
        AAAAAAAAAD8AAIA/AACAPwAAAD8AABAAAAA=
      >
      FLOATPOS 0 0 0 0
      FXID {B462A9C3-CEE7-471B-9A48-69FE04C69AE2}
      WAK 0
    >
    <ITEM
      POSITION 0.00000000000000
      SNAPOFFS 0.00000000000000
      LENGTH 222.64699999999999
      LOOP 0
      ALLTAKES 0
      SEL 0
      FADEIN 1 0.000000 0.000000 1 0
      FADEOUT 1 0.000000 0.000000 1 0
      MUTE 0
      IGUID {26911AB4-8792-4E53-ABCD-4EA81CD83572}
      IID 1
      NAME "PART VOCALS"
      VOLPAN 1.000000 0.000000 1.000000 -1.000000
      SOFFS 0.00000000000000 0.00000000000000
      PLAYRATE 1.00000000000000 1 0.00000000000000 -1
      CHANMODE 0
      GUID {515B44D4-0244-4A34-AD50-2260B90B02E5}
      <SOURCE MIDI
        HASDATA 1 480 QN
        POOLEDEVTS {60F28AB0-77E9-4718-BB8A-8F463C536C24}
        <X 0 0
          /wNQQVJUIFZPQ0FMUw==
        >
        <X 1920 0
          /wFbaWRsZV0=
        >
        E 480 90 69 60
        <X 270 0
          /wFbbWVsbG93XQ==
        >
        <X 210 0
          /wVTaGUncw==
        >
        E 0 90 3c 60
        E 330 80 3c 00
        <X 90 0
          /wVtb3N0LQ==
        >
        E 0 90 3a 60
        E 150 80 3a 00
        <X 60 0
          /wVseQ==
        >
        E 0 90 38 60
        E 60 80 38 00
        <X 60 0
          /wVnb25l
        >
        E 0 90 3a 60
        E 390 80 3a 00
        E 300 80 69 00
        E 960 90 69 60
        <X 390 0
          /wVTb21l
        >
        E 0 90 35 60
        E 60 80 35 00
        <X 30 0
          /wVvdGgt
        >
        E 0 90 39 60
        E 90 80 39 00
        <X 30 0
          /wVlcg==
        >
        E 0 90 3a 60
        E 60 80 3a 00
        <X 60 0
          /wVwbGFjZQ==
        >
        E 0 90 3c 60
        E 420 80 3c 00
        <X 300 0
          /wFbaWRsZV0=
        >
        E 0 80 69 00
        E 3360 90 69 60
        <X 240 0
          /wFbbWVsbG93XQ==
        >
        <X 270 0
          /wVJJ20=
        >
        E 0 90 3a 60
        E 60 80 3a 00
        <X 30 0
          /wUr
        >
        E 0 90 3c 60
        E 240 80 3c 00
        <X 60 0
          /wVnZXQt
        >
        E 0 90 3a 60
        E 150 80 3a 00
        <X 60 0
          /wV0aW5n
        >
        E 0 90 38 60
        E 60 80 38 00
        <X 90 0
          /wVieQ==
        >
        E 0 90 3a 60
        E 600 80 3a 00
        E 60 80 69 00
        E 960 90 69 60
        E 0 90 74 60
        <X 360 0
          /wVJbg==
        >
        E 0 90 35 60
        E 60 80 35 00
        <X 60 0
          /wVvdGgt
        >
        E 0 90 39 60
        E 60 80 39 00
        <X 60 0
          /wVlcg==
        >
        E 0 90 3a 60
        E 90 80 3a 00
        <X 30 0
          /wV3YXlz
        >
        E 0 90 3c 60
        E 600 80 3c 00
        <X 120 0
          /wFbaWRsZV0=
        >
        E 0 80 69 00
        E 0 80 74 00
        E 3360 90 69 60
        <X 255 0
          /wFbbWVsbG93XQ==
        >
        <X 255 0
          /wVFdi0=
        >
        E 0 90 3c 60
        E 180 80 3c 00
        <X 60 0
          /wVlcnkt
        >
        E 0 90 3c 60
        E 60 80 3c 00
        <X 60 0
          /wV0aGluZw==
        >
        E 0 90 3f 60
        E 210 80 3f 00
        <X 60 0
          /wV0aGV5
        >
        E 0 90 3f 60
        E 60 80 3f 00
        <X 30 0
          /wUr
        >
        E 0 90 41 60
        E 180 80 41 00
        <X 60 0
          /wV3aGlzLQ==
        >
        E 0 90 3a 60
        E 120 80 3a 00
        <X 120 0
          /wVwZXJlZA==
        >
        E 0 90 38 60
        E 180 80 38 00
        <X 60 0
          /wVpbg==
        >
        E 0 90 38 60
        E 90 80 38 00
        <X 30 0
          /wVvdXI=
        >
        E 0 90 3a 60
        E 90 80 3a 00
        <X 30 0
          /wVlYXI=
        >
        E 0 90 38 60
        E 390 80 38 00
        E 30 80 69 00
        E 270 90 69 60
        <X 390 0
          /wVJcw==
        >
        E 0 90 35 60
        E 60 80 35 00
        <X 60 0
          /wVjb20t
        >
        E 0 90 39 60
        E 90 80 39 00
        <X 30 0
          /wVpbmc=
        >
        E 0 90 3a 60
        E 90 80 3a 00
        <X 30 0
          /wV0cnVl
        >
        E 0 90 3c 60
        E 510 80 3c 00
        E 180 80 69 00
        <X 30 0
          /wFbaWRsZV0=
        >
        E 3330 90 69 60
        E 0 90 74 60
        <X 240 0
          /wFbbWVsbG93XQ==
        >
        <X 240 0
          /wVUcnk=
        >
        E 0 90 3c 60
        E 180 80 3c 00
        <X 60 0
          /wV0bw==
        >
        E 0 90 3c 60
        E 90 80 3c 00
        <X 60 0
          /wVqdXMt
        >
        E 0 90 3f 60
        E 210 80 3f 00
        <X 30 0
          /wV0aS0=
        >
        E 0 90 41 60
        E 60 80 41 00
        <X 60 0
          /wVmeQ==
        >
        E 0 90 3a 60
        E 780 80 3a 00
        <X 60 0
          /wV0aGU=
        >
        E 0 90 38 60
        E 60 80 38 00
        <X 60 0
          /wV0aGluZ3M=
        >
        E 0 90 38 60
        E 300 80 38 00
        E 390 90 01 60
        E 15 80 01 00
        <X 375 0
          /wVJ
        >
        E 0 90 35 60
        E 60 80 35 00
        <X 60 0
          /wV1c2Vk
        >
        E 0 90 39 60
        E 90 80 39 00
        <X 30 0
          /wV0bw==
        >
        E 0 90 3a 60
        E 90 80 3a 00
        <X 30 0
          /wVkbw==
        >
        E 0 90 3c 60
        E 330 80 3c 00
        E 360 80 69 00
        E 0 80 74 00
        E 480 90 69 60
        <X 360 0
          /wVCZS0=
        >
        E 0 90 35 60
        E 60 80 35 00
        <X 60 0
          /wVsaWV2ZQ==
        >
        E 0 90 38 60
        E 90 80 38 00
        <X 30 0
          /wVpbg==
        >
        E 0 90 3a 60
        E 60 80 3a 00
        <X 60 0
          /wV5b3U=
        >
        E 0 90 3a 60
        E 60 80 3a 00
        <X 60 0
          /wUr
        >
        E 0 90 3c 60
        E 300 80 3c 00
        <X 300 0
          /wFbaWRsZV0=
        >
        E 0 80 69 00
        E 1440 90 69 60
        <X 255 0
          /wFbbWVsbG93XQ==
        >
        <X 255 0
          /wVXYXRjaC0=
        >
        E 0 90 3f 60
        E 30 80 3f 00
        <X 30 0
          /wUr
        >
        E 0 90 41 60
        E 120 80 41 00
        <X 60 0
          /wVpbmc=
        >
        E 0 90 3f 60
        E 150 80 3f 00
        <X 90 0
          /wV5b3U=
        >
        E 0 90 3c 60
        E 150 80 3c 00
        <X 90 0
          /wVkcm93bg==
        >
        E 0 90 3a 60
        E 60 80 3a 00
        <X 60 0
          /wUr
        >
        E 0 90 38 60
        E 270 80 38 00
        E 300 80 69 00
        E 0 90 69 60
        <X 240 0
          /wVJJ2xsXg==
        >
        E 0 90 35 60
        E 120 80 35 00
        <X 120 0
          /wVmb2wt
        >
        E 0 90 41 60
        E 180 80 41 00
        <X 60 0
          /wVsb3c=
        >
        E 0 90 3f 60
        E 180 80 3f 00
        <X 60 0
          /wV5b3U=
        >
        E 0 90 3c 60
        E 180 80 3c 00
        <X 90 0
          /wVkb3du
        >
        E 0 90 3a 60
        E 60 80 3a 00
        <X 60 0
          /wUr
        >
        E 0 90 38 60
        E 360 80 38 00
        E 210 80 69 00
        E 240 90 69 60
        E 0 90 74 60
        <X 240 0
          /wVJXg==
        >
        E 0 90 41 60
        E 90 80 41 00
        <X 150 0
          /wVhbQ==
        >
        E 0 90 3f 60
        E 150 80 3f 00
        <X 90 0
          /wVoZXJl
        >
        E 0 90 3c 60
        E 420 80 3c 00
        <X 60 0
          /wVyaWdodA==
        >
        E 0 90 41 60
        E 240 80 41 00
        <X 240 0
          /wViZS0=
        >
        E 0 90 41 60
        E 180 80 41 00
        <X 330 0
          /wVzaWRl
        >
        E 0 90 3f 60
        E 30 80 3f 00
        <X 30 0
          /wUr
        >
        E 0 90 41 60
        E 150 80 41 00
        <X 270 0
          /wV5b3U=
        >
        E 0 90 41 60
        E 240 80 41 00
        E 210 80 69 00
        E 0 80 74 00
        <X 480 0
          /wFbbWVsbG93XQ==
        >
        E 0 90 69 60
        <X 240 0
          /wVUaGU=
        >
        E 0 90 35 60
        E 180 80 35 00
        <X 90 0
          /wVsaWdodHM=
        >
        E 0 90 41 60
        E 180 80 41 00
        <X 60 0
          /wVpbg==
        >
        E 0 90 3f 60
        E 180 80 3f 00
        <X 60 0
          /wV0aGU=
        >
        E 0 90 3c 60
        E 150 80 3c 00
        <X 60 0
          /wVza3k=
        >
        E 0 90 3a 60
        E 60 80 3a 00
        <X 60 0
          /wUr
        >
        E 0 90 38 60
        E 480 80 38 00
        E 30 80 69 00
        E 90 90 69 60
        <X 240 0
          /wVIYXZl
        >
        E 0 90 35 60
        E 150 80 35 00
        <X 90 0
          /wVmaS0=
        >
        E 0 90 3f 60
        E 30 80 3f 00
        <X 30 0
          /wUr
        >
        E 0 90 41 60
        E 150 80 41 00
        <X 30 0
          /wVuYWwt
        >
        E 0 90 3f 60
        E 45 80 3f 00
        <X 15 0
          /wVseQ==
        >
        E 0 90 3f 60
        E 180 80 3f 00
        <X 60 0
          /wVhci0=
        >
        E 0 90 3c 60
        E 150 80 3c 00
        <X 60 0
          /wVyaXZlZA==
        >
        E 0 90 3c 60
        E 480 80 3c 00
        E 30 80 69 00
        E 180 90 69 60
        E 0 90 74 60
        <X 510 0
          /wVJ
        >
        E 0 90 41 60
        E 150 80 41 00
        <X 90 0
          /wVhbQ==
        >
        E 0 90 3f 60
        E 150 80 3f 00
        <X 90 0
          /wVzdGF5LQ==
        >
        E 0 90 3a 60
        E 30 80 3a 00
        <X 30 0
          /wUr
        >
        E 0 90 3c 60
        E 120 80 3c 00
        <X 60 0
          /wVpbmc=
        >
        E 0 90 38 60
        E 120 80 38 00
        <X 120 0
          /wVyaWdodA==
        >
        E 0 90 3f 60
        E 30 80 3f 00
        <X 30 0
          /wUr
        >
        E 0 90 41 60
        E 150 80 41 00
        <X 240 0
          /wViZS0=
        >
        E 0 90 41 60
        E 150 80 41 00
        <X 360 0
          /wVzaWRl
        >
        E 0 90 41 60
        E 120 80 41 00
        <X 330 0
          /wV5b3Uj
        >
        E 0 90 41 60
        E 120 80 41 00
        <X 345 0
          /wFbaWRsZV0=
        >
        E 15 80 69 00
        E 0 80 74 00
        E 480 90 69 60
        <X 225 0
          /wFbbWVsbG93XQ==
        >
        <X 165 0
          /wVJXg==
        >
        E 0 90 3a 60
        E 60 80 3a 00
        <X 60 0
          /wV0cmllZA==
        >
        E 0 90 3c 60
        E 180 80 3c 00
        <X 60 0
          /wV0bw==
        >
        E 0 90 3c 60
        E 60 80 3c 00
        <X 60 0
          /wVzdGF5
        >
        E 0 90 3f 60
        E 150 80 3f 00
        <X 90 0
          /wVhLQ==
        >
        E 0 90 41 60
        E 60 80 41 00
        <X 60 0
          /wV3YXk=
        >
        E 0 90 3a 60
        E 480 80 3a 00
        E 210 80 69 00
        E 960 90 69 60
        <X 480 0
          /wVKdXN0
        >
        E 0 90 39 60
        E 90 80 39 00
        <X 30 0
          /wVpbg==
        >
        E 0 90 3a 60
        E 90 80 3a 00
        <X 30 0
          /wVjYXNl
        >
        E 0 90 3c 60
        E 390 80 3c 00
        <X 315 0
          /wFbaWRsZV0=
        >
        E 15 80 69 00
        E 3360 90 69 60
        <X 120 0
          /wFbbWVsbG93XQ==
        >
        <X 240 0
          /wVJJ3Zl
        >
        E 0 90 3a 60
        E 60 80 3a 00
        <X 60 0
          /wVjb21l
        >
        E 0 90 3c 60
        E 210 80 3c 00
        <X 60 0
          /wV0bw==
        >
        E 0 90 3c 60
        E 60 80 3c 00
        <X 60 0
          /wVyZS0=
        >
        E 0 90 3f 60
        E 180 80 3f 00
        <X 60 0
          /wVhbC0=
        >
        E 0 90 41 60
        E 60 80 41 00
        <X 60 0
          /wVpemU=
        >
        E 0 90 3a 60
        E 660 80 3a 00
        E 30 80 69 00
        E 960 90 69 60
        E 0 90 74 60
        <X 150 0
          /wVXZQ==
        >
        E 0 90 35 60
        E 90 80 35 00
        <X 60 0
          /wVhbGw=
        >
        E 0 90 35 60
        E 180 80 35 00
        <X 60 0
          /wVoYXZl
        >
        E 0 90 39 60
        E 60 80 39 00
        <X 60 0
          /wVvdXI=
        >
        E 0 90 3a 60
        E 60 80 3a 00
        <X 60 0
          /wVwbGFjZQ==
        >
        E 0 90 3c 60
        E 390 80 3c 00
        E 270 80 69 00
        E 0 80 74 00
        <X 255 0
          /wFbaWRsZV0=
        >
        E 2145 90 69 60
        <X 240 0
          /wFbbWVsbG93XQ==
        >
        <X 240 0
          /wVUaW1l
        >
        E 0 90 3c 60
        E 480 80 3c 00
        E 120 90 01 60
        E 15 80 01 00
        <X 375 0
          /wV0aW1l
        >
        E 0 90 3c 60
        E 270 80 3c 00
        <X 60 0
          /wVoYXM=
        >
        E 0 90 3f 60
        E 180 80 3f 00
        <X 60 0
          /wVh
        >
        E 0 90 41 60
        E 60 80 41 00
        <X 90 0
          /wV3YXk=
        >
        E 0 90 3a 60
        E 630 80 3a 00
        <X 210 0
          /wV5b3U=
        >
        E 0 90 3c 60
        E 60 80 3c 00
        <X 60 0
          /wVrbm93
        >
        E 0 90 38 60
        E 270 80 38 00
        E 30 80 69 00
        E 390 90 69 60
        <X 360 0
          /wVUbw==
        >
        E 0 90 35 60
        E 90 80 35 00
        <X 30 0
          /wVtYWtl
        >
        E 0 90 39 60
        E 90 80 39 00
        <X 30 0
          /wVpdA==
        >
        E 0 90 3a 60
        E 60 80 3a 00
        <X 60 0
          /wVjbGVhcg==
        >
        E 0 90 3c 60
        E 330 80 3c 00
        <X 390 0
          /wFbaWRsZV0=
        >
        E 0 80 69 00
        <X 3360 0
          /wFbbWVsbG93XQ==
        >
        E 0 90 69 60
        <X 360 0
          /wVBbmQ=
        >
        E 0 90 35 60
        E 60 80 35 00
        <X 60 0
          /wVJ
        >
        E 0 90 3c 60
        E 330 80 3c 00
        <X 90 0
          /wVoYXZl
        >
        E 0 90 3f 60
        E 120 80 3f 00
        <X 90 0
          /wVteQ==
        >
        E 0 90 3f 60
        E 60 80 3f 00
        <X 30 0
          /wUr
        >
        E 0 90 41 60
        E 180 80 41 00
        <X 60 0
          /wVyb2xl
        >
        E 0 90 3a 60
        E 420 80 3a 00
        <X 210 0
          /wVpbg==
        >
        E 0 90 38 60
        E 90 80 38 00
        <X 30 0
          /wV0aGlz
        >
        E 0 90 38 60
        E 180 80 38 00
        E 30 80 69 00
        E 480 90 69 60
        E 0 90 74 60
        <X 150 0
          /wVJ
        >
        E 0 90 35 60
        E 60 80 35 00
        <X 60 0
          /wVjYW4ndA==
        >
        E 0 90 35 60
        E 90 80 35 00
        <X 150 0
          /wVkaXMt
        >
        E 0 90 39 60
        E 90 80 39 00
        <X 30 0
          /wVhcC0=
        >
        E 0 90 3a 60
        E 60 80 3a 00
        <X 60 0
          /wVwZWFy
        >
        E 0 90 3c 60
        E 360 80 3c 00
        E 330 90 01 60
        E 15 80 01 00
        <X 825 0
          /wVvcg==
        >
        E 0 90 35 60
        E 90 80 35 00
        <X 30 0
          /wVsZWF2ZQ==
        >
        E 0 90 38 60
        E 90 80 38 00
        <X 30 0
          /wV5b3U=
        >
        E 0 90 3a 60
        E 90 80 3a 00
        <X 60 0
          /wVoZXJl
        >
        E 0 90 3c 60
        E 495 80 3c 00
        <X 195 0
          /wFbaWRsZV0=
        >
        E 0 80 69 00
        E 0 80 74 00
        E 1440 90 69 60
        <X 225 0
          /wFbbWVsbG93XQ==
        >
        <X 285 0
          /wVXYXRjaC0=
        >
        E 0 90 3f 60
        E 30 80 3f 00
        <X 30 0
          /wUr
        >
        E 0 90 41 60
        E 120 80 41 00
        <X 60 0
          /wVpbmc=
        >
        E 0 90 3f 60
        E 180 80 3f 00
        <X 60 0
          /wV5b3U=
        >
        E 0 90 3c 60
        E 210 80 3c 00
        <X 30 0
          /wVkcm93bg==
        >
        E 0 90 3a 60
        E 60 80 3a 00
        <X 60 0
          /wUr
        >
        E 0 90 38 60
        E 360 80 38 00
        E 210 80 69 00
        E 0 90 69 60
        <X 270 0
          /wVJJ2xs
        >
        E 0 90 35 60
        E 135 80 35 00
        <X 90 0
          /wVmb2wt
        >
        E 0 90 41 60
        E 180 80 41 00
        <X 60 0
          /wVsb3c=
        >
        E 0 90 3f 60
        E 180 80 3f 00
        <X 60 0
          /wV5b3U=
        >
        E 0 90 3c 60
        E 180 80 3c 00
        <X 45 0
          /wVkb3du
        >
        E 0 90 3a 60
        E 60 80 3a 00
        <X 60 0
          /wUr
        >
        E 0 90 38 60
        E 390 80 38 00
        E 210 80 69 00
        E 0 90 69 60
        E 0 90 74 60
        <X 240 0
          /wVBbmQ=
        >
        E 0 90 35 60
        E 90 80 35 00
        <X 150 0
          /wVJ
        >
        E 0 90 41 60
        E 150 80 41 00
        <X 90 0
          /wVhbQ==
        >
        E 0 90 3f 60
        E 150 80 3f 00
        <X 90 0
          /wVoZXJl
        >
        E 0 90 3c 60
        E 420 80 3c 00
        <X 60 0
          /wVyaWdodA==
        >
        E 0 90 41 60
        E 240 80 41 00
        <X 270 0
          /wViZS0=
        >
        E 0 90 41 60
        E 180 80 41 00
        <X 315 0
          /wVzaWRl
        >
        E 0 90 41 60
        E 210 80 41 00
        <X 285 0
          /wV5b3U=
        >
        E 0 90 41 60
        E 240 80 41 00
        E 180 80 69 00
        E 0 80 74 00
        E 480 90 69 60
        <X 270 0
          /wVUaGU=
        >
        E 0 90 35 60
        E 180 80 35 00
        <X 60 0
          /wVsaWdodHM=
        >
        E 0 90 41 60
        E 180 80 41 00
        <X 60 0
          /wVpbg==
        >
        E 0 90 3f 60
        E 180 80 3f 00
        <X 60 0
          /wV0aGU=
        >
        E 0 90 3c 60
        E 180 80 3c 00
        <X 60 0
          /wVza3k=
        >
        E 0 90 3a 60
        E 60 80 3a 00
        <X 60 0
          /wUr
        >
        E 0 90 38 60
        E 420 80 38 00
        E 150 80 69 00
        E 240 90 69 60
        <X 30 0
          /wVBcmU=
        >
        E 0 90 35 60
        E 150 80 35 00
        <X 90 0
          /wV3YXYt
        >
        E 0 90 3f 60
        E 30 80 3f 00
        <X 30 0
          /wUr
        >
        E 0 90 41 60
        E 150 80 41 00
        <X 30 0
          /wVpbmc=
        >
        E 0 90 3f 60
        E 180 80 3f 00
        <X 60 0
          /wVnb29kLQ==
        >
        E 0 90 3c 60
        E 150 80 3c 00
        <X 60 0
          /wVieWU=
        >
        E 0 90 3a 60
        E 30 80 3a 00
        <X 30 0
          /wUr
        >
        E 0 90 3c 60
        E 450 80 3c 00
        E 210 80 69 00
        E 0 90 69 60
        <X 240 0
          /wVBbmQ=
        >
        E 0 90 35 60
        E 90 80 35 00
        <X 195 0
          /wVJ
        >
        E 0 90 41 60
        E 180 80 41 00
        <X 60 0
          /wVhbQ==
        >
        E 0 90 3f 60
        E 150 80 3f 00
        <X 105 0
          /wVzdGF5LQ==
        >
        E 0 90 3a 60
        E 30 80 3a 00
        <X 30 0
          /wUr
        >
        E 0 90 3c 60
        E 120 80 3c 00
        <X 60 0
          /wVpbmc=
        >
        E 0 90 38 60
        E 165 80 38 00
        <X 75 0
          /wVyaWdodA==
        >
        E 0 90 3f 60
        E 30 80 3f 00
        <X 30 0
          /wUr
        >
        E 0 90 41 60
        E 150 80 41 00
        <X 240 0
          /wViZS0=
        >
        E 0 90 41 60
        E 150 80 41 00
        <X 330 0
          /wVzaWRl
        >
        E 0 90 41 60
        E 120 80 41 00
        <X 360 0
          /wV5b3U=
        >
        E 0 90 41 60
        E 120 80 41 00
        E 330 80 69 00
        <X 150 0
          /wFbaWRsZV9yZWFsdGltZV0=
        >
        E 3689 b0 7b 00
        GUID {9C14E549-82E5-445A-ACDE-E977FBA7192B}
        IGNTEMPO 0 120.00000000 4 4
        SRCCOLOR 3
        VELLANE 132 128 60
        COLORMAP "C:\Program Files\REAPER (x64)\Data\color_maps\rockband_guitarbass.png"
        CFGEDITVIEW -6368.141248 5.043858 0 12 0 0 0
        CFGEDIT 1 1 0 1 1 0 1 1 1 1 1 0.25000000 -8 -8 1544 872 0 2 1 1 0.00000000 0 1 1 0 0.500000 0 0 1.000000 64
        KEYSNAP 0 7 "102030050700" 0 "Pentatonic"
        EVTFILTER 0 -1 -1 -1 -1 0 1 0 0 -1.00000000 -1.00000000
      >
    >
  >
  <TRACK '{21C2511E-0959-462E-BC5C-B2B7561AA352}'
    NAME "vocals"
    PEAKCOL 16576
    BEAT -1
    AUTOMODE 0
    VOLPAN 1.00000000000000 0.00000000000000 -1.00000000000000 -1.00000000000000 1.00000000000000
    MUTESOLO 0 0 0
    IPHASE 0
    ISBUS 2 -1
    BUSCOMP 0 0
    SHOWINMIX 1 0.666700 0.500000 1 0.500000 -1 -1 -1
    FREEMODE 0
    SEL 0
    REC 0 0 0 0 0 0 0
    VU 2
    TRACKHEIGHT 0 0
    INQ 0 0 0 0.5000000000 100 0 0 100
    NCHAN 2
    FX 1
    TRACKID {21C2511E-0959-462E-BC5C-B2B7561AA352}
    PERF 0
    MIDIOUT -1
    MAINSEND 1 0
    <ITEM
      POSITION 0.00000000000000
      SNAPOFFS 0.00000000000000
      LENGTH 222.64699999999999
      LOOP 0
      ALLTAKES 0
      SEL 0
      FADEIN 1 0.000000 0.000000 1 0
      FADEOUT 1 0.000000 0.000000 1 0
      MUTE 0
      IGUID {47F0973B-8D5D-4E47-B76E-F20C04CD9F87}
      IID 14
      NAME "vocals.wav"
      VOLPAN 1.000000 0.000000 1.000000 -1.000000
      SOFFS 0.00000000000000
      PLAYRATE 1.00000000000000 1 0.00000000000000 -1
      CHANMODE 0
      GUID {27692D1E-089F-41A1-99F5-858F8F09D421}
      <SOURCE WAVE
        FILE "wav\vocals.wav"
      >
    >
  >
  <TRACK '{84DAE2AD-7991-425B-BBC0-E9F40BA077A2}'
    NAME "PART KEYS"
    PEAKCOL 16576
    BEAT -1
    AUTOMODE 0
    VOLPAN 1.00000000000000 0.00000000000000 -1.00000000000000 -1.00000000000000 1.00000000000000
    MUTESOLO 0 0 0
    IPHASE 0
    ISBUS 1 1
    BUSCOMP 0 0
    SHOWINMIX 1 0.666700 0.500000 1 0.500000 -1 -1 -1
    FREEMODE 0
    SEL 0
    REC 0 0 0 0 0 0 0
    VU 2
    TRACKHEIGHT 0 0
    INQ 0 0 0 0.5000000000 100 0 0 100
    NCHAN 2
    FX 1
    TRACKID {84DAE2AD-7991-425B-BBC0-E9F40BA077A2}
    PERF 0
    MIDIOUT -1
    <MIDINOTENAMES
      0 127 "TRILL MARKER"
      0 125 "---"
      0 124 "BRE"
      0 123 "BRE"
      0 122 "BRE"
      0 121 "BRE"
      0 120 "BRE (use all 5)"
      0 119 "----"
      0 116 "OVERDRIVE"
      0 115 "----"
      0 103 "Solo Marker"
      0 102 "Force HOPO Off"
      0 101 "Force HOPO On"
      0 100 "EXPERT Orange"
      0 99 "EXPERT Blue"
      0 98 "EXPERT Yellow"
      0 97 "EXPERT Red"
      0 96 "EXPERT Green"
      0 95 "----"
      0 90 "Force HOPO Off"
      0 89 "Force HOPO On"
      0 88 "HARD Orange"
      0 87 "HARD Blue"
      0 86 "HARD Yellow"
      0 85 "HARD Red"
      0 84 "HARD Green"
      0 77 "----"
      0 76 "MEDIUM Orange"
      0 75 "MEDIUM Blue"
      0 74 "MEDIUM Yellow"
      0 73 "MEDIUM Red"
      0 72 "MEDIUM Green"
      0 65 "----"
      0 64 "EASY Orange"
      0 63 "EASY Blue"
      0 62 "EASY Yellow"
      0 61 "EASY Red"
      0 60 "EASY Green"
    >
    MAINSEND 1 0
    <FXCHAIN
      WNDRECT 0 43 891 559
      SHOW 0
      LASTSEL 0
      DOCKED 0
      BYPASS 0 0
      <VST "VSTi: RBN Preview (RBN)" "rbprev_vst64.dll" 0 ""
        dnBicu5e7f4AAAAAAgAAAAEAAAAAAAAAAgAAAAAAAAAEAAAAAQAAAA==
        AAAQAAMAqgAAABAAAAA=
      >
      FLOATPOS 0 0 0 0
      FXID {618602B1-1382-461E-9815-631A9230C6D1}
      WAK 0
    >
    <ITEM
      POSITION 0.00000000000000
      SNAPOFFS 0.00000000000000
      LENGTH 222.64699999999999
      LOOP 0
      ALLTAKES 0
      SEL 0
      FADEIN 1 0.000000 0.000000 1 0
      FADEOUT 1 0.000000 0.000000 1 0
      MUTE 0
      IGUID {F10642DE-CE3E-41A2-B5FF-99689E26A410}
      IID 2
      NAME "PART KEYS"
      VOLPAN 1.000000 0.000000 1.000000 -1.000000
      SOFFS 0.00000000000000 0.00000000000000
      PLAYRATE 1.00000000000000 1 0.00000000000000 -1
      CHANMODE 0
      GUID {DF3BF530-439A-4F19-B956-07B6CD9E6B3A}
      <SOURCE MIDI
        HASDATA 1 480 QN
        POOLEDEVTS {03748596-A7B0-4560-874B-B4FC31B5375D}
        <X 0 0
          /wNQQVJUIEtFWVM=
        >
        <X 1920 0
          /wFbbWVsbG93XQ==
        >
        E 0 90 3e 60
        E 0 90 4a 60
        E 0 90 4b 60
        E 0 90 55 60
        E 0 90 58 60
        E 0 90 61 60
        E 0 90 64 60
        E 120 80 3e 00
        E 0 80 4a 00
        E 0 80 4b 00
        E 0 80 55 00
        E 0 80 58 00
        E 0 80 61 00
        E 0 80 64 00
        E 360 90 3e 60
        E 0 90 4a 60
        E 0 90 4b 60
        E 0 90 55 60
        E 0 90 58 60
        E 0 90 61 60
        E 0 90 64 60
        E 120 80 3e 00
        E 0 80 4a 00
        E 0 80 4b 00
        E 0 80 55 00
        E 0 80 58 00
        E 0 80 61 00
        E 0 80 64 00
        E 360 90 3e 60
        E 0 90 4a 60
        E 0 90 4b 60
        E 0 90 55 60
        E 0 90 58 60
        E 0 90 61 60
        E 0 90 64 60
        E 120 80 3e 00
        E 0 80 4a 00
        E 0 80 4b 00
        E 0 80 55 00
        E 0 80 58 00
        E 0 80 61 00
        E 0 80 64 00
        E 360 90 3e 60
        E 0 90 4a 60
        E 0 90 4b 60
        E 0 90 55 60
        E 0 90 58 60
        E 0 90 61 60
        E 0 90 64 60
        E 120 80 3e 00
        E 0 80 4a 00
        E 0 80 4b 00
        E 0 80 55 00
        E 0 80 58 00
        E 0 80 61 00
        E 0 80 64 00
        E 360 90 3e 60
        E 0 90 4a 60
        E 0 90 4b 60
        E 0 90 56 60
        E 0 90 58 60
        E 0 90 62 60
        E 0 90 64 60
        E 120 80 3e 00
        E 0 80 4a 00
        E 0 80 4b 00
        E 0 80 56 00
        E 0 80 58 00
        E 0 80 62 00
        E 0 80 64 00
        E 360 90 3e 60
        E 0 90 4a 60
        E 0 90 4b 60
        E 0 90 56 60
        E 0 90 58 60
        E 0 90 62 60
        E 0 90 64 60
        E 120 80 3e 00
        E 0 80 4a 00
        E 0 80 4b 00
        E 0 80 56 00
        E 0 80 58 00
        E 0 80 62 00
        E 0 80 64 00
        E 360 90 3e 60
        E 0 90 4a 60
        E 0 90 4b 60
        E 0 90 56 60
        E 0 90 58 60
        E 0 90 62 60
        E 0 90 64 60
        E 120 80 3e 00
        E 0 80 4a 00
        E 0 80 4b 00
        E 0 80 56 00
        E 0 80 58 00
        E 0 80 62 00
        E 0 80 64 00
        E 360 90 3e 60
        E 0 90 4a 60
        E 0 90 4b 60
        E 0 90 56 60
        E 0 90 58 60
        E 0 90 62 60
        E 0 90 64 60
        E 120 80 3e 00
        E 0 80 4a 00
        E 0 80 4b 00
        E 0 80 56 00
        E 0 80 58 00
        E 0 80 62 00
        E 0 80 64 00
        E 360 90 3e 60
        E 0 90 49 60
        E 0 90 4a 60
        E 0 90 55 60
        E 0 90 56 60
        E 0 90 61 60
        E 0 90 62 60
        E 0 90 74 60
        E 120 80 3e 00
        E 0 80 49 00
        E 0 80 4a 00
        E 0 80 55 00
        E 0 80 56 00
        E 0 80 61 00
        E 0 80 62 00
        E 360 90 49 60
        E 0 90 4a 60
        E 0 90 55 60
        E 0 90 56 60
        E 0 90 61 60
        E 0 90 62 60
        E 120 80 49 00
        E 0 80 4a 00
        E 0 80 55 00
        E 0 80 56 00
        E 0 80 61 00
        E 0 80 62 00
        E 360 90 3d 60
        E 0 90 48 60
        E 0 90 4a 60
        E 0 90 54 60
        E 0 90 56 60
        E 0 90 60 60
        E 0 90 62 60
        E 120 80 3d 00
        E 0 80 48 00
        E 0 80 4a 00
        E 0 80 54 00
        E 0 80 56 00
        E 0 80 60 00
        E 0 80 62 00
        E 360 90 48 60
        E 0 90 4a 60
        E 0 90 54 60
        E 0 90 56 60
        E 0 90 60 60
        E 0 90 62 60
        E 120 80 48 00
        E 0 80 4a 00
        E 0 80 54 00
        E 0 80 56 00
        E 0 80 60 00
        E 0 80 62 00
        E 360 80 74 00
        E 0 90 3e 60
        E 0 90 4a 60
        E 0 90 4b 60
        E 0 90 56 60
        E 0 90 57 60
        E 0 90 62 60
        E 0 90 63 60
        E 120 80 3e 00
        E 0 80 4a 00
        E 0 80 4b 00
        E 0 80 56 00
        E 0 80 57 00
        E 0 80 62 00
        E 0 80 63 00
        E 360 90 3e 60
        E 0 90 4a 60
        E 0 90 4b 60
        E 0 90 56 60
        E 0 90 57 60
        E 0 90 62 60
        E 0 90 63 60
        E 120 80 3e 00
        E 0 80 4a 00
        E 0 80 4b 00
        E 0 80 56 00
        E 0 80 57 00
        E 0 80 62 00
        E 0 80 63 00
        E 360 90 3e 60
        E 0 90 49 60
        E 0 90 4b 60
        E 0 90 55 60
        E 0 90 57 60
        E 0 90 61 60
        E 0 90 63 60
        E 120 80 3e 00
        E 0 80 49 00
        E 0 80 4b 00
        E 0 80 55 00
        E 0 80 57 00
        E 0 80 61 00
        E 0 80 63 00
        E 360 90 3e 60
        E 0 90 49 60
        E 0 90 4b 60
        E 0 90 55 60
        E 0 90 57 60
        E 0 90 61 60
        E 0 90 63 60
        E 120 80 3e 00
        E 0 80 49 00
        E 0 80 4b 00
        E 0 80 55 00
        E 0 80 57 00
        E 0 80 61 00
        E 0 80 63 00
        E 360 90 3e 60
        E 0 90 4a 60
        E 0 90 4b 60
        E 0 90 55 60
        E 0 90 58 60
        E 0 90 61 60
        E 0 90 64 60
        E 120 80 3e 00
        E 0 80 4a 00
        E 0 80 4b 00
        E 0 80 55 00
        E 0 80 58 00
        E 0 80 61 00
        E 0 80 64 00
        E 360 90 3e 60
        E 0 90 4a 60
        E 0 90 4b 60
        E 0 90 55 60
        E 0 90 58 60
        E 0 90 61 60
        E 0 90 64 60
        E 120 80 3e 00
        E 0 80 4a 00
        E 0 80 4b 00
        E 0 80 55 00
        E 0 80 58 00
        E 0 80 61 00
        E 0 80 64 00
        E 360 90 3e 60
        E 0 90 4a 60
        E 0 90 4b 60
        E 0 90 55 60
        E 0 90 58 60
        E 0 90 61 60
        E 0 90 64 60
        E 120 80 3e 00
        E 0 80 4a 00
        E 0 80 4b 00
        E 0 80 55 00
        E 0 80 58 00
        E 0 80 61 00
        E 0 80 64 00
        E 360 90 3e 60
        E 0 90 4a 60
        E 0 90 4b 60
        E 0 90 55 60
        E 0 90 58 60
        E 0 90 61 60
        E 0 90 64 60
        E 120 80 3e 00
        E 0 80 4a 00
        E 0 80 4b 00
        E 0 80 55 00
        E 0 80 58 00
        E 0 80 61 00
        E 0 80 64 00
        E 360 90 3e 60
        E 0 90 4a 60
        E 0 90 4b 60
        E 0 90 56 60
        E 0 90 58 60
        E 0 90 62 60
        E 0 90 64 60
        E 120 80 3e 00
        E 0 80 4a 00
        E 0 80 4b 00
        E 0 80 56 00
        E 0 80 58 00
        E 0 80 62 00
        E 0 80 64 00
        E 360 90 3e 60
        E 0 90 4a 60
        E 0 90 4b 60
        E 0 90 56 60
        E 0 90 58 60
        E 0 90 62 60
        E 0 90 64 60
        E 120 80 3e 00
        E 0 80 4a 00
        E 0 80 4b 00
        E 0 80 56 00
        E 0 80 58 00
        E 0 80 62 00
        E 0 80 64 00
        E 360 90 3e 60
        E 0 90 4a 60
        E 0 90 4b 60
        E 0 90 56 60
        E 0 90 58 60
        E 0 90 62 60
        E 0 90 64 60
        E 120 80 3e 00
        E 0 80 4a 00
        E 0 80 4b 00
        E 0 80 56 00
        E 0 80 58 00
        E 0 80 62 00
        E 0 80 64 00
        E 360 90 3e 60
        E 0 90 4a 60
        E 0 90 4b 60
        E 0 90 56 60
        E 0 90 58 60
        E 0 90 62 60
        E 0 90 64 60
        E 120 80 3e 00
        E 0 80 4a 00
        E 0 80 4b 00
        E 0 80 56 00
        E 0 80 58 00
        E 0 80 62 00
        E 0 80 64 00
        E 360 90 3e 60
        E 0 90 49 60
        E 0 90 4a 60
        E 0 90 55 60
        E 0 90 56 60
        E 0 90 61 60
        E 0 90 62 60
        E 120 80 3e 00
        E 0 80 49 00
        E 0 80 4a 00
        E 0 80 55 00
        E 0 80 56 00
        E 0 80 61 00
        E 0 80 62 00
        E 360 90 49 60
        E 0 90 4a 60
        E 0 90 55 60
        E 0 90 56 60
        E 0 90 61 60
        E 0 90 62 60
        E 120 80 49 00
        E 0 80 4a 00
        E 0 80 55 00
        E 0 80 56 00
        E 0 80 61 00
        E 0 80 62 00
        E 360 90 3d 60
        E 0 90 48 60
        E 0 90 4a 60
        E 0 90 54 60
        E 0 90 56 60
        E 0 90 60 60
        E 0 90 62 60
        E 120 80 3d 00
        E 0 80 48 00
        E 0 80 4a 00
        E 0 80 54 00
        E 0 80 56 00
        E 0 80 60 00
        E 0 80 62 00
        E 360 90 48 60
        E 0 90 4a 60
        E 0 90 54 60
        E 0 90 56 60
        E 0 90 60 60
        E 0 90 62 60
        E 120 80 48 00
        E 0 80 4a 00
        E 0 80 54 00
        E 0 80 56 00
        E 0 80 60 00
        E 0 80 62 00
        E 360 90 3e 60
        E 0 90 4a 60
        E 0 90 4b 60
        E 0 90 56 60
        E 0 90 57 60
        E 0 90 62 60
        E 0 90 63 60
        E 120 80 3e 00
        E 0 80 4a 00
        E 0 80 4b 00
        E 0 80 56 00
        E 0 80 57 00
        E 0 80 62 00
        E 0 80 63 00
        E 360 90 3e 60
        E 0 90 4a 60
        E 0 90 4b 60
        E 0 90 56 60
        E 0 90 57 60
        E 0 90 62 60
        E 0 90 63 60
        E 120 80 3e 00
        E 0 80 4a 00
        E 0 80 4b 00
        E 0 80 56 00
        E 0 80 57 00
        E 0 80 62 00
        E 0 80 63 00
        E 360 90 3e 60
        E 0 90 49 60
        E 0 90 4b 60
        E 0 90 55 60
        E 0 90 57 60
        E 0 90 61 60
        E 0 90 63 60
        E 120 80 3e 00
        E 0 80 49 00
        E 0 80 4b 00
        E 0 80 55 00
        E 0 80 57 00
        E 0 80 61 00
        E 0 80 63 00
        E 360 90 3e 60
        E 0 90 49 60
        E 0 90 4b 60
        E 0 90 55 60
        E 0 90 57 60
        E 0 90 61 60
        E 0 90 63 60
        E 120 80 3e 00
        E 0 80 49 00
        E 0 80 4b 00
        E 0 80 55 00
        E 0 80 57 00
        E 0 80 61 00
        E 0 80 63 00
        E 360 90 3e 60
        E 0 90 4a 60
        E 0 90 4b 60
        E 0 90 55 60
        E 0 90 58 60
        E 0 90 61 60
        E 0 90 64 60
        E 0 90 74 60
        E 120 80 3e 00
        E 0 80 4a 00
        E 0 80 4b 00
        E 0 80 55 00
        E 0 80 58 00
        E 0 80 61 00
        E 0 80 64 00
        E 360 90 3e 60
        E 0 90 4a 60
        E 0 90 4b 60
        E 0 90 55 60
        E 0 90 58 60
        E 0 90 61 60
        E 0 90 64 60
        E 120 80 3e 00
        E 0 80 4a 00
        E 0 80 4b 00
        E 0 80 55 00
        E 0 80 58 00
        E 0 80 61 00
        E 0 80 64 00
        E 360 90 3e 60
        E 0 90 4a 60
        E 0 90 4b 60
        E 0 90 55 60
        E 0 90 58 60
        E 0 90 61 60
        E 0 90 64 60
        E 120 80 3e 00
        E 0 80 4a 00
        E 0 80 4b 00
        E 0 80 55 00
        E 0 80 58 00
        E 0 80 61 00
        E 0 80 64 00
        E 360 90 3e 60
        E 0 90 4a 60
        E 0 90 4b 60
        E 0 90 55 60
        E 0 90 58 60
        E 0 90 61 60
        E 0 90 64 60
        E 120 80 3e 00
        E 0 80 4a 00
        E 0 80 4b 00
        E 0 80 55 00
        E 0 80 58 00
        E 0 80 61 00
        E 0 80 64 00
        E 360 90 3e 60
        E 0 90 4a 60
        E 0 90 4b 60
        E 0 90 56 60
        E 0 90 58 60
        E 0 90 62 60
        E 0 90 64 60
        E 120 80 74 00
        E 0 80 3e 00
        E 0 80 4a 00
        E 0 80 4b 00
        E 0 80 56 00
        E 0 80 58 00
        E 0 80 62 00
        E 0 80 64 00
        E 360 90 3e 60
        E 0 90 4a 60
        E 0 90 4b 60
        E 0 90 56 60
        E 0 90 58 60
        E 0 90 62 60
        E 0 90 64 60
        E 120 80 3e 00
        E 0 80 4a 00
        E 0 80 4b 00
        E 0 80 56 00
        E 0 80 58 00
        E 0 80 62 00
        E 0 80 64 00
        E 360 90 3e 60
        E 0 90 4a 60
        E 0 90 4b 60
        E 0 90 56 60
        E 0 90 58 60
        E 0 90 62 60
        E 0 90 64 60
        E 120 80 3e 00
        E 0 80 4a 00
        E 0 80 4b 00
        E 0 80 56 00
        E 0 80 58 00
        E 0 80 62 00
        E 0 80 64 00
        E 360 90 3e 60
        E 0 90 4a 60
        E 0 90 4b 60
        E 0 90 56 60
        E 0 90 58 60
        E 0 90 62 60
        E 0 90 64 60
        E 120 80 3e 00
        E 0 80 4a 00
        E 0 80 4b 00
        E 0 80 56 00
        E 0 80 58 00
        E 0 80 62 00
        E 0 80 64 00
        E 360 90 3e 60
        E 0 90 49 60
        E 0 90 4a 60
        E 0 90 55 60
        E 0 90 56 60
        E 0 90 61 60
        E 0 90 62 60
        E 120 80 3e 00
        E 0 80 49 00
        E 0 80 4a 00
        E 0 80 55 00
        E 0 80 56 00
        E 0 80 61 00
        E 0 80 62 00
        E 360 90 49 60
        E 0 90 4a 60
        E 0 90 55 60
        E 0 90 56 60
        E 0 90 61 60
        E 0 90 62 60
        E 120 80 49 00
        E 0 80 4a 00
        E 0 80 55 00
        E 0 80 56 00
        E 0 80 61 00
        E 0 80 62 00
        E 360 90 3d 60
        E 0 90 48 60
        E 0 90 4a 60
        E 0 90 54 60
        E 0 90 56 60
        E 0 90 60 60
        E 0 90 62 60
        E 120 80 3d 00
        E 0 80 48 00
        E 0 80 4a 00
        E 0 80 54 00
        E 0 80 56 00
        E 0 80 60 00
        E 0 80 62 00
        E 360 90 48 60
        E 0 90 4a 60
        E 0 90 54 60
        E 0 90 56 60
        E 0 90 60 60
        E 0 90 62 60
        E 120 80 48 00
        E 0 80 4a 00
        E 0 80 54 00
        E 0 80 56 00
        E 0 80 60 00
        E 0 80 62 00
        E 360 90 3e 60
        E 0 90 4a 60
        E 0 90 4b 60
        E 0 90 56 60
        E 0 90 57 60
        E 0 90 62 60
        E 0 90 63 60
        E 120 80 3e 00
        E 0 80 4a 00
        E 0 80 4b 00
        E 0 80 56 00
        E 0 80 57 00
        E 0 80 62 00
        E 0 80 63 00
        E 360 90 3e 60
        E 0 90 4a 60
        E 0 90 4b 60
        E 0 90 56 60
        E 0 90 57 60
        E 0 90 62 60
        E 0 90 63 60
        E 120 80 3e 00
        E 0 80 4a 00
        E 0 80 4b 00
        E 0 80 56 00
        E 0 80 57 00
        E 0 80 62 00
        E 0 80 63 00
        E 360 90 3e 60
        E 0 90 49 60
        E 0 90 4b 60
        E 0 90 55 60
        E 0 90 57 60
        E 0 90 61 60
        E 0 90 63 60
        E 120 80 3e 00
        E 0 80 49 00
        E 0 80 4b 00
        E 0 80 55 00
        E 0 80 57 00
        E 0 80 61 00
        E 0 80 63 00
        E 360 90 3e 60
        E 0 90 49 60
        E 0 90 4b 60
        E 0 90 55 60
        E 0 90 57 60
        E 0 90 61 60
        E 0 90 63 60
        E 120 80 3e 00
        E 0 80 49 00
        E 0 80 4b 00
        E 0 80 55 00
        E 0 80 57 00
        E 0 80 61 00
        E 0 80 63 00
        E 360 90 3e 60
        E 0 90 4a 60
        E 0 90 4b 60
        E 0 90 55 60
        E 0 90 58 60
        E 0 90 61 60
        E 0 90 64 60
        E 120 80 3e 00
        E 0 80 4a 00
        E 0 80 4b 00
        E 0 80 55 00
        E 0 80 58 00
        E 0 80 61 00
        E 0 80 64 00
        E 360 90 3e 60
        E 0 90 4a 60
        E 0 90 4b 60
        E 0 90 55 60
        E 0 90 58 60
        E 0 90 61 60
        E 0 90 64 60
        E 120 80 3e 00
        E 0 80 4a 00
        E 0 80 4b 00
        E 0 80 55 00
        E 0 80 58 00
        E 0 80 61 00
        E 0 80 64 00
        E 360 90 3e 60
        E 0 90 4a 60
        E 0 90 4b 60
        E 0 90 55 60
        E 0 90 58 60
        E 0 90 61 60
        E 0 90 64 60
        E 120 80 3e 00
        E 0 80 4a 00
        E 0 80 4b 00
        E 0 80 55 00
        E 0 80 58 00
        E 0 80 61 00
        E 0 80 64 00
        E 360 90 3e 60
        E 0 90 4a 60
        E 0 90 4b 60
        E 0 90 55 60
        E 0 90 58 60
        E 0 90 61 60
        E 0 90 64 60
        E 120 80 3e 00
        E 0 80 4a 00
        E 0 80 4b 00
        E 0 80 55 00
        E 0 80 58 00
        E 0 80 61 00
        E 0 80 64 00
        E 360 90 3e 60
        E 0 90 4a 60
        E 0 90 4b 60
        E 0 90 56 60
        E 0 90 58 60
        E 0 90 62 60
        E 0 90 64 60
        E 120 80 3e 00
        E 0 80 4a 00
        E 0 80 4b 00
        E 0 80 56 00
        E 0 80 58 00
        E 0 80 62 00
        E 0 80 64 00
        E 360 90 3e 60
        E 0 90 4a 60
        E 0 90 4b 60
        E 0 90 56 60
        E 0 90 58 60
        E 0 90 62 60
        E 0 90 64 60
        E 120 80 3e 00
        E 0 80 4a 00
        E 0 80 4b 00
        E 0 80 56 00
        E 0 80 58 00
        E 0 80 62 00
        E 0 80 64 00
        E 360 90 3e 60
        E 0 90 4a 60
        E 0 90 4b 60
        E 0 90 56 60
        E 0 90 58 60
        E 0 90 62 60
        E 0 90 64 60
        E 120 80 3e 00
        E 0 80 4a 00
        E 0 80 4b 00
        E 0 80 56 00
        E 0 80 58 00
        E 0 80 62 00
        E 0 80 64 00
        E 360 90 3e 60
        E 0 90 4a 60
        E 0 90 4b 60
        E 0 90 56 60
        E 0 90 58 60
        E 0 90 62 60
        E 0 90 64 60
        E 120 80 3e 00
        E 0 80 4a 00
        E 0 80 4b 00
        E 0 80 56 00
        E 0 80 58 00
        E 0 80 62 00
        E 0 80 64 00
        E 360 90 3e 60
        E 0 90 49 60
        E 0 90 4a 60
        E 0 90 55 60
        E 0 90 56 60
        E 0 90 61 60
        E 0 90 62 60
        E 120 80 3e 00
        E 0 80 49 00
        E 0 80 4a 00
        E 0 80 55 00
        E 0 80 56 00
        E 0 80 61 00
        E 0 80 62 00
        E 360 90 49 60
        E 0 90 4a 60
        E 0 90 55 60
        E 0 90 56 60
        E 0 90 61 60
        E 0 90 62 60
        E 120 80 49 00
        E 0 80 4a 00
        E 0 80 55 00
        E 0 80 56 00
        E 0 80 61 00
        E 0 80 62 00
        E 360 90 3d 60
        E 0 90 48 60
        E 0 90 4a 60
        E 0 90 54 60
        E 0 90 56 60
        E 0 90 60 60
        E 0 90 62 60
        E 120 80 3d 00
        E 0 80 48 00
        E 0 80 4a 00
        E 0 80 54 00
        E 0 80 56 00
        E 0 80 60 00
        E 0 80 62 00
        E 360 90 48 60
        E 0 90 4a 60
        E 0 90 54 60
        E 0 90 56 60
        E 0 90 60 60
        E 0 90 62 60
        E 120 80 48 00
        E 0 80 4a 00
        E 0 80 54 00
        E 0 80 56 00
        E 0 80 60 00
        E 0 80 62 00
        E 360 90 3e 60
        E 0 90 49 60
        E 0 90 4a 60
        E 0 90 54 60
        E 0 90 57 60
        E 0 90 60 60
        E 0 90 63 60
        E 120 80 3e 00
        E 0 80 49 00
        E 0 80 4a 00
        E 0 80 54 00
        E 0 80 57 00
        E 0 80 60 00
        E 0 80 63 00
        E 360 90 3e 60
        E 0 90 49 60
        E 0 90 4a 60
        E 0 90 54 60
        E 0 90 57 60
        E 0 90 60 60
        E 0 90 63 60
        E 120 80 3e 00
        E 0 80 49 00
        E 0 80 4a 00
        E 0 80 54 00
        E 0 80 57 00
        E 0 80 60 00
        E 0 80 63 00
        E 360 90 3e 60
        E 0 90 49 60
        E 0 90 4a 60
        E 0 90 54 60
        E 0 90 57 60
        E 0 90 60 60
        E 0 90 63 60
        E 120 80 3e 00
        E 0 80 49 00
        E 0 80 4a 00
        E 0 80 54 00
        E 0 80 57 00
        E 0 80 60 00
        E 0 80 63 00
        E 360 90 49 60
        E 0 90 4a 60
        E 0 90 54 60
        E 0 90 57 60
        E 0 90 60 60
        E 0 90 63 60
        E 120 80 49 00
        E 0 80 4a 00
        E 0 80 54 00
        E 0 80 57 00
        E 0 80 60 00
        E 0 80 63 00
        E 360 90 3d 60
        E 0 90 49 60
        E 0 90 55 60
        E 0 90 61 60
        E 120 80 3d 00
        E 0 80 49 00
        E 0 80 55 00
        E 0 80 61 00
        E 360 90 4b 60
        E 0 90 58 60
        E 0 90 64 60
        E 120 80 4b 00
        E 0 80 58 00
        E 0 80 64 00
        E 120 90 57 60
        E 0 90 63 60
        E 120 80 57 00
        E 0 80 63 00
        E 120 90 3d 60
        E 0 90 49 60
        E 0 90 55 60
        E 0 90 61 60
        E 120 80 3d 00
        E 0 80 49 00
        E 0 80 55 00
        E 0 80 61 00
        E 360 90 49 60
        E 0 90 55 60
        E 0 90 61 60
        E 120 80 49 00
        E 0 80 55 00
        E 0 80 61 00
        E 360 90 3c 60
        E 0 90 48 60
        E 0 90 54 60
        E 0 90 60 60
        E 0 90 74 60
        E 120 80 3c 00
        E 0 80 48 00
        E 0 80 54 00
        E 0 80 60 00
        E 120 90 55 60
        E 0 90 61 60
        E 120 80 55 00
        E 0 80 61 00
        E 120 90 4b 60
        E 0 90 58 60
        E 0 90 64 60
        E 120 80 4b 00
        E 0 80 58 00
        E 0 80 64 00
        E 120 90 57 60
        E 0 90 63 60
        E 120 80 57 00
        E 0 80 63 00
        E 120 90 3c 60
        E 0 90 48 60
        E 0 90 54 60
        E 0 90 60 60
        E 120 80 3c 00
        E 0 80 48 00
        E 0 80 54 00
        E 0 80 60 00
        E 360 90 48 60
        E 0 90 54 60
        E 0 90 60 60
        E 120 80 48 00
        E 0 80 54 00
        E 0 80 60 00
        E 360 80 74 00
        E 0 90 3d 60
        E 0 90 4a 60
        E 0 90 56 60
        E 0 90 62 60
        E 120 80 3d 00
        E 0 80 4a 00
        E 0 80 56 00
        E 0 80 62 00
        E 360 90 4b 60
        E 0 90 58 60
        E 0 90 64 60
        E 120 80 4b 00
        E 0 80 58 00
        E 0 80 64 00
        E 120 90 57 60
        E 0 90 63 60
        E 120 80 57 00
        E 0 80 63 00
        E 120 90 3d 60
        E 0 90 4a 60
        E 0 90 56 60
        E 0 90 62 60
        E 120 80 3d 00
        E 0 80 4a 00
        E 0 80 56 00
        E 0 80 62 00
        E 360 90 4a 60
        E 0 90 56 60
        E 0 90 62 60
        E 120 80 4a 00
        E 0 80 56 00
        E 0 80 62 00
        E 360 90 3e 60
        E 0 90 49 60
        E 0 90 4a 60
        E 0 90 55 60
        E 0 90 56 60
        E 0 90 61 60
        E 0 90 62 60
        E 120 80 3e 00
        E 0 80 49 00
        E 0 80 4a 00
        E 0 80 55 00
        E 0 80 56 00
        E 0 80 61 00
        E 0 80 62 00
        E 360 90 3e 60
        E 0 90 49 60
        E 0 90 4b 60
        E 0 90 55 60
        E 0 90 57 60
        E 0 90 61 60
        E 0 90 62 60
        E 0 90 63 60
        E 120 80 3e 00
        E 0 80 49 00
        E 0 80 4b 00
        E 0 80 55 00
        E 0 80 57 00
        E 0 80 61 00
        E 0 80 62 00
        E 0 80 63 00
        E 360 90 3e 60
        E 0 90 49 60
        E 0 90 4a 60
        E 0 90 54 60
        E 0 90 57 60
        E 0 90 60 60
        E 0 90 62 60
        E 0 90 63 60
        E 120 80 3e 00
        E 0 80 49 00
        E 0 80 4a 00
        E 0 80 54 00
        E 0 80 57 00
        E 0 80 60 00
        E 0 80 62 00
        E 0 80 63 00
        E 360 90 3e 60
        E 0 90 49 60
        E 0 90 4a 60
        E 0 90 54 60
        E 0 90 57 60
        E 0 90 60 60
        E 0 90 62 60
        E 0 90 63 60
        E 120 80 3e 00
        E 0 80 49 00
        E 0 80 4a 00
        E 0 80 54 00
        E 0 80 57 00
        E 0 80 60 00
        E 0 80 62 00
        E 0 80 63 00
        E 360 90 3e 60
        E 0 90 4b 60
        E 0 90 58 60
        E 0 90 64 60
        E 120 80 3e 00
        E 0 80 4b 00
        E 0 80 58 00
        E 0 80 64 00
        E 120 90 55 60
        E 0 90 61 60
        E 120 80 55 00
        E 0 80 61 00
        E 120 90 4b 60
        E 0 90 58 60
        E 0 90 64 60
        E 120 80 4b 00
        E 0 80 58 00
        E 0 80 64 00
        E 120 90 57 60
        E 0 90 63 60
        E 120 80 57 00
        E 0 80 63 00
        E 120 90 3d 60
        E 0 90 49 60
        E 0 90 55 60
        E 0 90 61 60
        E 120 80 3d 00
        E 0 80 49 00
        E 0 80 55 00
        E 0 80 61 00
        E 360 90 49 60
        E 0 90 55 60
        E 0 90 61 60
        E 120 80 49 00
        E 0 80 55 00
        E 0 80 61 00
        E 360 90 3c 60
        E 0 90 48 60
        E 0 90 54 60
        E 0 90 60 60
        E 120 80 3c 00
        E 0 80 48 00
        E 0 80 54 00
        E 0 80 60 00
        E 120 90 55 60
        E 0 90 61 60
        E 120 80 55 00
        E 0 80 61 00
        E 120 90 4b 60
        E 0 90 58 60
        E 0 90 64 60
        E 120 80 4b 00
        E 0 80 58 00
        E 0 80 64 00
        E 120 90 57 60
        E 0 90 63 60
        E 120 80 57 00
        E 0 80 63 00
        E 120 90 3c 60
        E 0 90 48 60
        E 0 90 54 60
        E 0 90 60 60
        E 120 80 3c 00
        E 0 80 48 00
        E 0 80 54 00
        E 0 80 60 00
        E 120 90 55 60
        E 0 90 61 60
        E 120 80 55 00
        E 0 80 61 00
        E 120 90 4a 60
        E 0 90 56 60
        E 0 90 62 60
        E 120 80 4a 00
        E 0 80 56 00
        E 0 80 62 00
        E 120 90 57 60
        E 0 90 63 60
        E 120 80 57 00
        E 0 80 63 00
        E 120 90 3d 60
        E 0 90 4a 60
        E 0 90 56 60
        E 0 90 62 60
        E 120 80 3d 00
        E 0 80 4a 00
        E 0 80 56 00
        E 0 80 62 00
        E 360 90 4a 60
        E 0 90 4b 60
        E 0 90 55 60
        E 0 90 58 60
        E 0 90 61 60
        E 0 90 64 60
        E 120 80 4a 00
        E 0 80 4b 00
        E 0 80 55 00
        E 0 80 58 00
        E 0 80 61 00
        E 0 80 64 00
        E 120 90 54 60
        E 0 90 57 60
        E 0 90 60 60
        E 0 90 63 60
        E 120 80 54 00
        E 0 80 57 00
        E 0 80 60 00
        E 0 80 63 00
        E 120 90 3d 60
        E 0 90 4a 60
        E 0 90 56 60
        E 0 90 62 60
        E 120 80 3d 00
        E 0 80 4a 00
        E 0 80 56 00
        E 0 80 62 00
        E 360 90 4a 60
        E 0 90 56 60
        E 0 90 62 60
        E 120 80 4a 00
        E 0 80 56 00
        E 0 80 62 00
        E 360 90 3e 60
        E 0 90 49 60
        E 0 90 4a 60
        E 0 90 55 60
        E 0 90 56 60
        E 0 90 61 60
        E 0 90 62 60
        E 0 90 74 60
        E 120 80 3e 00
        E 0 80 49 00
        E 0 80 4a 00
        E 0 80 55 00
        E 0 80 56 00
        E 0 80 61 00
        E 0 80 62 00
        E 360 90 3e 60
        E 0 90 49 60
        E 0 90 4b 60
        E 0 90 55 60
        E 0 90 57 60
        E 0 90 61 60
        E 0 90 62 60
        E 0 90 63 60
        E 120 80 3e 00
        E 0 80 49 00
        E 0 80 4b 00
        E 0 80 55 00
        E 0 80 57 00
        E 0 80 61 00
        E 0 80 62 00
        E 0 80 63 00
        E 360 90 3e 60
        E 0 90 49 60
        E 0 90 4a 60
        E 0 90 54 60
        E 0 90 57 60
        E 0 90 60 60
        E 0 90 62 60
        E 0 90 63 60
        E 120 80 3e 00
        E 0 80 49 00
        E 0 80 4a 00
        E 0 80 54 00
        E 0 80 57 00
        E 0 80 60 00
        E 0 80 62 00
        E 0 80 63 00
        E 360 90 3e 60
        E 0 90 49 60
        E 0 90 4a 60
        E 0 90 54 60
        E 0 90 57 60
        E 0 90 60 60
        E 0 90 62 60
        E 0 90 63 60
        E 120 80 3e 00
        E 0 80 49 00
        E 0 80 4a 00
        E 0 80 54 00
        E 0 80 57 00
        E 0 80 60 00
        E 0 80 62 00
        E 0 80 63 00
        E 360 80 74 00
        E 0 90 3e 60
        E 0 90 4a 60
        E 0 90 4b 60
        E 0 90 55 60
        E 0 90 58 60
        E 0 90 61 60
        E 0 90 64 60
        E 120 80 3e 00
        E 0 80 4a 00
        E 0 80 4b 00
        E 0 80 55 00
        E 0 80 58 00
        E 0 80 61 00
        E 0 80 64 00
        E 360 90 3e 60
        E 0 90 4a 60
        E 0 90 4b 60
        E 0 90 55 60
        E 0 90 58 60
        E 0 90 61 60
        E 0 90 64 60
        E 120 80 3e 00
        E 0 80 4a 00
        E 0 80 4b 00
        E 0 80 55 00
        E 0 80 58 00
        E 0 80 61 00
        E 0 80 64 00
        E 360 90 3e 60
        E 0 90 4a 60
        E 0 90 4b 60
        E 0 90 55 60
        E 0 90 58 60
        E 0 90 61 60
        E 0 90 64 60
        E 120 80 3e 00
        E 0 80 4a 00
        E 0 80 4b 00
        E 0 80 55 00
        E 0 80 58 00
        E 0 80 61 00
        E 0 80 64 00
        E 360 90 3e 60
        E 0 90 4a 60
        E 0 90 4b 60
        E 0 90 55 60
        E 0 90 58 60
        E 0 90 61 60
        E 0 90 64 60
        E 120 80 3e 00
        E 0 80 4a 00
        E 0 80 4b 00
        E 0 80 55 00
        E 0 80 58 00
        E 0 80 61 00
        E 0 80 64 00
        E 360 90 3e 60
        E 0 90 4a 60
        E 0 90 4b 60
        E 0 90 56 60
        E 0 90 58 60
        E 0 90 62 60
        E 0 90 64 60
        E 120 80 3e 00
        E 0 80 4a 00
        E 0 80 4b 00
        E 0 80 56 00
        E 0 80 58 00
        E 0 80 62 00
        E 0 80 64 00
        E 360 90 3e 60
        E 0 90 4a 60
        E 0 90 4b 60
        E 0 90 56 60
        E 0 90 58 60
        E 0 90 62 60
        E 0 90 64 60
        E 120 80 3e 00
        E 0 80 4a 00
        E 0 80 4b 00
        E 0 80 56 00
        E 0 80 58 00
        E 0 80 62 00
        E 0 80 64 00
        E 360 90 3e 60
        E 0 90 4a 60
        E 0 90 4b 60
        E 0 90 56 60
        E 0 90 58 60
        E 0 90 62 60
        E 0 90 64 60
        E 120 80 3e 00
        E 0 80 4a 00
        E 0 80 4b 00
        E 0 80 56 00
        E 0 80 58 00
        E 0 80 62 00
        E 0 80 64 00
        E 360 90 3e 60
        E 0 90 4a 60
        E 0 90 4b 60
        E 0 90 56 60
        E 0 90 58 60
        E 0 90 62 60
        E 0 90 64 60
        E 120 80 3e 00
        E 0 80 4a 00
        E 0 80 4b 00
        E 0 80 56 00
        E 0 80 58 00
        E 0 80 62 00
        E 0 80 64 00
        E 360 90 3e 60
        E 0 90 49 60
        E 0 90 4a 60
        E 0 90 55 60
        E 0 90 56 60
        E 0 90 61 60
        E 0 90 62 60
        E 120 80 3e 00
        E 0 80 49 00
        E 0 80 4a 00
        E 0 80 55 00
        E 0 80 56 00
        E 0 80 61 00
        E 0 80 62 00
        E 360 90 49 60
        E 0 90 4a 60
        E 0 90 55 60
        E 0 90 56 60
        E 0 90 61 60
        E 0 90 62 60
        E 120 80 49 00
        E 0 80 4a 00
        E 0 80 55 00
        E 0 80 56 00
        E 0 80 61 00
        E 0 80 62 00
        E 360 90 3d 60
        E 0 90 48 60
        E 0 90 4a 60
        E 0 90 54 60
        E 0 90 56 60
        E 0 90 60 60
        E 0 90 62 60
        E 120 80 3d 00
        E 0 80 48 00
        E 0 80 4a 00
        E 0 80 54 00
        E 0 80 56 00
        E 0 80 60 00
        E 0 80 62 00
        E 360 90 48 60
        E 0 90 4a 60
        E 0 90 54 60
        E 0 90 56 60
        E 0 90 60 60
        E 0 90 62 60
        E 120 80 48 00
        E 0 80 4a 00
        E 0 80 54 00
        E 0 80 56 00
        E 0 80 60 00
        E 0 80 62 00
        E 360 90 3e 60
        E 0 90 4a 60
        E 0 90 4b 60
        E 0 90 56 60
        E 0 90 57 60
        E 0 90 62 60
        E 0 90 63 60
        E 120 80 3e 00
        E 0 80 4a 00
        E 0 80 4b 00
        E 0 80 56 00
        E 0 80 57 00
        E 0 80 62 00
        E 0 80 63 00
        E 360 90 3e 60
        E 0 90 4a 60
        E 0 90 4b 60
        E 0 90 56 60
        E 0 90 57 60
        E 0 90 62 60
        E 0 90 63 60
        E 120 80 3e 00
        E 0 80 4a 00
        E 0 80 4b 00
        E 0 80 56 00
        E 0 80 57 00
        E 0 80 62 00
        E 0 80 63 00
        E 360 90 3e 60
        E 0 90 49 60
        E 0 90 4b 60
        E 0 90 55 60
        E 0 90 57 60
        E 0 90 61 60
        E 0 90 63 60
        E 120 80 3e 00
        E 0 80 49 00
        E 0 80 4b 00
        E 0 80 55 00
        E 0 80 57 00
        E 0 80 61 00
        E 0 80 63 00
        E 360 90 3e 60
        E 0 90 49 60
        E 0 90 4b 60
        E 0 90 55 60
        E 0 90 57 60
        E 0 90 61 60
        E 0 90 63 60
        E 120 80 3e 00
        E 0 80 49 00
        E 0 80 4b 00
        E 0 80 55 00
        E 0 80 57 00
        E 0 80 61 00
        E 0 80 63 00
        E 120 90 58 60
        E 0 90 64 60
        E 120 80 58 00
        E 0 80 64 00
        E 120 90 3e 60
        E 0 90 4a 60
        E 0 90 4b 60
        E 0 90 55 60
        E 0 90 58 60
        E 0 90 61 60
        E 0 90 64 60
        E 120 80 3e 00
        E 0 80 4a 00
        E 0 80 4b 00
        E 0 80 55 00
        E 0 80 58 00
        E 0 80 61 00
        E 0 80 64 00
        E 360 90 3e 60
        E 0 90 4a 60
        E 0 90 4b 60
        E 0 90 55 60
        E 0 90 58 60
        E 0 90 61 60
        E 0 90 64 60
        E 120 80 3e 00
        E 0 80 4a 00
        E 0 80 4b 00
        E 0 80 55 00
        E 0 80 58 00
        E 0 80 61 00
        E 0 80 64 00
        E 360 90 3e 60
        E 0 90 4a 60
        E 0 90 4b 60
        E 0 90 55 60
        E 0 90 58 60
        E 0 90 61 60
        E 0 90 64 60
        E 120 80 3e 00
        E 0 80 4a 00
        E 0 80 4b 00
        E 0 80 55 00
        E 0 80 58 00
        E 0 80 61 00
        E 0 80 64 00
        E 360 90 3e 60
        E 0 90 4a 60
        E 0 90 4b 60
        E 0 90 55 60
        E 0 90 58 60
        E 0 90 61 60
        E 0 90 64 60
        E 120 80 3e 00
        E 0 80 4a 00
        E 0 80 4b 00
        E 0 80 55 00
        E 0 80 58 00
        E 0 80 61 00
        E 0 80 64 00
        E 360 90 3e 60
        E 0 90 4a 60
        E 0 90 4b 60
        E 0 90 56 60
        E 0 90 58 60
        E 0 90 62 60
        E 0 90 64 60
        E 120 80 3e 00
        E 0 80 4a 00
        E 0 80 4b 00
        E 0 80 56 00
        E 0 80 58 00
        E 0 80 62 00
        E 0 80 64 00
        E 360 90 3e 60
        E 0 90 4a 60
        E 0 90 4b 60
        E 0 90 56 60
        E 0 90 58 60
        E 0 90 62 60
        E 0 90 64 60
        E 120 80 3e 00
        E 0 80 4a 00
        E 0 80 4b 00
        E 0 80 56 00
        E 0 80 58 00
        E 0 80 62 00
        E 0 80 64 00
        E 360 90 3e 60
        E 0 90 4a 60
        E 0 90 4b 60
        E 0 90 56 60
        E 0 90 58 60
        E 0 90 62 60
        E 0 90 64 60
        E 120 80 3e 00
        E 0 80 4a 00
        E 0 80 4b 00
        E 0 80 56 00
        E 0 80 58 00
        E 0 80 62 00
        E 0 80 64 00
        E 360 90 3e 60
        E 0 90 4a 60
        E 0 90 4b 60
        E 0 90 56 60
        E 0 90 58 60
        E 0 90 62 60
        E 0 90 64 60
        E 120 80 3e 00
        E 0 80 4a 00
        E 0 80 4b 00
        E 0 80 56 00
        E 0 80 58 00
        E 0 80 62 00
        E 0 80 64 00
        E 360 90 3e 60
        E 0 90 49 60
        E 0 90 4a 60
        E 0 90 55 60
        E 0 90 56 60
        E 0 90 61 60
        E 0 90 62 60
        E 120 80 3e 00
        E 0 80 49 00
        E 0 80 4a 00
        E 0 80 55 00
        E 0 80 56 00
        E 0 80 61 00
        E 0 80 62 00
        E 360 90 49 60
        E 0 90 4a 60
        E 0 90 55 60
        E 0 90 56 60
        E 0 90 61 60
        E 0 90 62 60
        E 120 80 49 00
        E 0 80 4a 00
        E 0 80 55 00
        E 0 80 56 00
        E 0 80 61 00
        E 0 80 62 00
        E 360 90 3d 60
        E 0 90 48 60
        E 0 90 4a 60
        E 0 90 54 60
        E 0 90 56 60
        E 0 90 60 60
        E 0 90 62 60
        E 120 80 3d 00
        E 0 80 48 00
        E 0 80 4a 00
        E 0 80 54 00
        E 0 80 56 00
        E 0 80 60 00
        E 0 80 62 00
        E 360 90 48 60
        E 0 90 4a 60
        E 0 90 54 60
        E 0 90 56 60
        E 0 90 60 60
        E 0 90 62 60
        E 120 80 48 00
        E 0 80 4a 00
        E 0 80 54 00
        E 0 80 56 00
        E 0 80 60 00
        E 0 80 62 00
        E 360 90 3e 60
        E 0 90 4a 60
        E 0 90 4b 60
        E 0 90 56 60
        E 0 90 57 60
        E 0 90 62 60
        E 0 90 63 60
        E 0 90 74 60
        E 120 80 3e 00
        E 0 80 4a 00
        E 0 80 4b 00
        E 0 80 56 00
        E 0 80 57 00
        E 0 80 62 00
        E 0 80 63 00
        E 360 90 3e 60
        E 0 90 4a 60
        E 0 90 4b 60
        E 0 90 56 60
        E 0 90 57 60
        E 0 90 62 60
        E 0 90 63 60
        E 120 80 3e 00
        E 0 80 4a 00
        E 0 80 4b 00
        E 0 80 56 00
        E 0 80 57 00
        E 0 80 62 00
        E 0 80 63 00
        E 360 90 3e 60
        E 0 90 49 60
        E 0 90 4b 60
        E 0 90 55 60
        E 0 90 57 60
        E 0 90 61 60
        E 0 90 63 60
        E 120 80 3e 00
        E 0 80 49 00
        E 0 80 4b 00
        E 0 80 55 00
        E 0 80 57 00
        E 0 80 61 00
        E 0 80 63 00
        E 360 90 3e 60
        E 0 90 49 60
        E 0 90 4b 60
        E 0 90 55 60
        E 0 90 57 60
        E 0 90 61 60
        E 0 90 63 60
        E 120 80 3e 00
        E 0 80 49 00
        E 0 80 4b 00
        E 0 80 55 00
        E 0 80 57 00
        E 0 80 61 00
        E 0 80 63 00
        E 120 90 58 60
        E 0 90 64 60
        E 120 80 58 00
        E 0 80 64 00
        E 120 80 74 00
        E 0 90 3e 60
        E 0 90 4a 60
        E 0 90 4b 60
        E 0 90 55 60
        E 0 90 58 60
        E 0 90 61 60
        E 0 90 64 60
        E 120 80 3e 00
        E 0 80 4a 00
        E 0 80 4b 00
        E 0 80 55 00
        E 0 80 58 00
        E 0 80 61 00
        E 0 80 64 00
        E 360 90 3e 60
        E 0 90 4a 60
        E 0 90 4b 60
        E 0 90 55 60
        E 0 90 58 60
        E 0 90 61 60
        E 0 90 64 60
        E 120 80 3e 00
        E 0 80 4a 00
        E 0 80 4b 00
        E 0 80 55 00
        E 0 80 58 00
        E 0 80 61 00
        E 0 80 64 00
        E 360 90 3e 60
        E 0 90 4a 60
        E 0 90 4b 60
        E 0 90 55 60
        E 0 90 58 60
        E 0 90 61 60
        E 0 90 64 60
        E 120 80 3e 00
        E 0 80 4a 00
        E 0 80 4b 00
        E 0 80 55 00
        E 0 80 58 00
        E 0 80 61 00
        E 0 80 64 00
        E 360 90 3e 60
        E 0 90 4a 60
        E 0 90 4b 60
        E 0 90 55 60
        E 0 90 58 60
        E 0 90 61 60
        E 0 90 64 60
        E 120 80 3e 00
        E 0 80 4a 00
        E 0 80 4b 00
        E 0 80 55 00
        E 0 80 58 00
        E 0 80 61 00
        E 0 80 64 00
        E 360 90 3e 60
        E 0 90 4a 60
        E 0 90 4b 60
        E 0 90 56 60
        E 0 90 58 60
        E 0 90 62 60
        E 0 90 64 60
        E 120 80 3e 00
        E 0 80 4a 00
        E 0 80 4b 00
        E 0 80 56 00
        E 0 80 58 00
        E 0 80 62 00
        E 0 80 64 00
        E 360 90 3e 60
        E 0 90 4a 60
        E 0 90 4b 60
        E 0 90 56 60
        E 0 90 58 60
        E 0 90 62 60
        E 0 90 64 60
        E 120 80 3e 00
        E 0 80 4a 00
        E 0 80 4b 00
        E 0 80 56 00
        E 0 80 58 00
        E 0 80 62 00
        E 0 80 64 00
        E 360 90 3e 60
        E 0 90 4a 60
        E 0 90 4b 60
        E 0 90 56 60
        E 0 90 58 60
        E 0 90 62 60
        E 0 90 64 60
        E 120 80 3e 00
        E 0 80 4a 00
        E 0 80 4b 00
        E 0 80 56 00
        E 0 80 58 00
        E 0 80 62 00
        E 0 80 64 00
        E 360 90 3e 60
        E 0 90 4a 60
        E 0 90 4b 60
        E 0 90 56 60
        E 0 90 58 60
        E 0 90 62 60
        E 0 90 64 60
        E 120 80 3e 00
        E 0 80 4a 00
        E 0 80 4b 00
        E 0 80 56 00
        E 0 80 58 00
        E 0 80 62 00
        E 0 80 64 00
        E 360 90 3e 60
        E 0 90 49 60
        E 0 90 4a 60
        E 0 90 55 60
        E 0 90 56 60
        E 0 90 61 60
        E 0 90 62 60
        E 120 80 3e 00
        E 0 80 49 00
        E 0 80 4a 00
        E 0 80 55 00
        E 0 80 56 00
        E 0 80 61 00
        E 0 80 62 00
        E 360 90 49 60
        E 0 90 4a 60
        E 0 90 55 60
        E 0 90 56 60
        E 0 90 61 60
        E 0 90 62 60
        E 120 80 49 00
        E 0 80 4a 00
        E 0 80 55 00
        E 0 80 56 00
        E 0 80 61 00
        E 0 80 62 00
        E 360 90 3d 60
        E 0 90 48 60
        E 0 90 4a 60
        E 0 90 54 60
        E 0 90 56 60
        E 0 90 60 60
        E 0 90 62 60
        E 120 80 3d 00
        E 0 80 48 00
        E 0 80 4a 00
        E 0 80 54 00
        E 0 80 56 00
        E 0 80 60 00
        E 0 80 62 00
        E 360 90 48 60
        E 0 90 4a 60
        E 0 90 54 60
        E 0 90 56 60
        E 0 90 60 60
        E 0 90 62 60
        E 120 80 48 00
        E 0 80 4a 00
        E 0 80 54 00
        E 0 80 56 00
        E 0 80 60 00
        E 0 80 62 00
        E 360 90 3e 60
        E 0 90 4a 60
        E 0 90 4b 60
        E 0 90 56 60
        E 0 90 57 60
        E 0 90 62 60
        E 0 90 63 60
        E 120 80 3e 00
        E 0 80 4a 00
        E 0 80 4b 00
        E 0 80 56 00
        E 0 80 57 00
        E 0 80 62 00
        E 0 80 63 00
        E 360 90 3e 60
        E 0 90 4a 60
        E 0 90 4b 60
        E 0 90 56 60
        E 0 90 57 60
        E 0 90 62 60
        E 0 90 63 60
        E 120 80 3e 00
        E 0 80 4a 00
        E 0 80 4b 00
        E 0 80 56 00
        E 0 80 57 00
        E 0 80 62 00
        E 0 80 63 00
        E 360 90 3e 60
        E 0 90 49 60
        E 0 90 4b 60
        E 0 90 55 60
        E 0 90 57 60
        E 0 90 61 60
        E 0 90 63 60
        E 120 80 3e 00
        E 0 80 49 00
        E 0 80 4b 00
        E 0 80 55 00
        E 0 80 57 00
        E 0 80 61 00
        E 0 80 63 00
        E 360 90 3e 60
        E 0 90 49 60
        E 0 90 4b 60
        E 0 90 55 60
        E 0 90 57 60
        E 0 90 61 60
        E 0 90 63 60
        E 120 80 3e 00
        E 0 80 49 00
        E 0 80 4b 00
        E 0 80 55 00
        E 0 80 57 00
        E 0 80 61 00
        E 0 80 63 00
        E 120 90 58 60
        E 0 90 64 60
        E 120 80 58 00
        E 0 80 64 00
        E 120 90 3e 60
        E 0 90 4a 60
        E 0 90 4b 60
        E 0 90 55 60
        E 0 90 58 60
        E 0 90 61 60
        E 0 90 64 60
        E 120 80 3e 00
        E 0 80 4a 00
        E 0 80 4b 00
        E 0 80 55 00
        E 0 80 58 00
        E 0 80 61 00
        E 0 80 64 00
        E 360 90 3e 60
        E 0 90 4a 60
        E 0 90 4b 60
        E 0 90 55 60
        E 0 90 58 60
        E 0 90 61 60
        E 0 90 64 60
        E 120 80 3e 00
        E 0 80 4a 00
        E 0 80 4b 00
        E 0 80 55 00
        E 0 80 58 00
        E 0 80 61 00
        E 0 80 64 00
        E 360 90 3e 60
        E 0 90 4a 60
        E 0 90 4b 60
        E 0 90 55 60
        E 0 90 58 60
        E 0 90 61 60
        E 0 90 64 60
        E 120 80 3e 00
        E 0 80 4a 00
        E 0 80 4b 00
        E 0 80 55 00
        E 0 80 58 00
        E 0 80 61 00
        E 0 80 64 00
        E 360 90 3e 60
        E 0 90 4a 60
        E 0 90 4b 60
        E 0 90 55 60
        E 0 90 58 60
        E 0 90 61 60
        E 0 90 64 60
        E 120 80 3e 00
        E 0 80 4a 00
        E 0 80 4b 00
        E 0 80 55 00
        E 0 80 58 00
        E 0 80 61 00
        E 0 80 64 00
        E 360 90 3e 60
        E 0 90 4a 60
        E 0 90 4b 60
        E 0 90 56 60
        E 0 90 58 60
        E 0 90 62 60
        E 0 90 64 60
        E 120 80 3e 00
        E 0 80 4a 00
        E 0 80 4b 00
        E 0 80 56 00
        E 0 80 58 00
        E 0 80 62 00
        E 0 80 64 00
        E 360 90 3e 60
        E 0 90 4a 60
        E 0 90 4b 60
        E 0 90 56 60
        E 0 90 58 60
        E 0 90 62 60
        E 0 90 64 60
        E 120 80 3e 00
        E 0 80 4a 00
        E 0 80 4b 00
        E 0 80 56 00
        E 0 80 58 00
        E 0 80 62 00
        E 0 80 64 00
        E 360 90 3e 60
        E 0 90 4a 60
        E 0 90 4b 60
        E 0 90 56 60
        E 0 90 58 60
        E 0 90 62 60
        E 0 90 64 60
        E 120 80 3e 00
        E 0 80 4a 00
        E 0 80 4b 00
        E 0 80 56 00
        E 0 80 58 00
        E 0 80 62 00
        E 0 80 64 00
        E 360 90 3e 60
        E 0 90 4a 60
        E 0 90 4b 60
        E 0 90 56 60
        E 0 90 58 60
        E 0 90 62 60
        E 0 90 64 60
        E 120 80 3e 00
        E 0 80 4a 00
        E 0 80 4b 00
        E 0 80 56 00
        E 0 80 58 00
        E 0 80 62 00
        E 0 80 64 00
        E 360 90 3e 60
        E 0 90 49 60
        E 0 90 4a 60
        E 0 90 55 60
        E 0 90 56 60
        E 0 90 61 60
        E 0 90 62 60
        E 120 80 3e 00
        E 0 80 49 00
        E 0 80 4a 00
        E 0 80 55 00
        E 0 80 56 00
        E 0 80 61 00
        E 0 80 62 00
        E 360 90 49 60
        E 0 90 4a 60
        E 0 90 55 60
        E 0 90 56 60
        E 0 90 61 60
        E 0 90 62 60
        E 120 80 49 00
        E 0 80 4a 00
        E 0 80 55 00
        E 0 80 56 00
        E 0 80 61 00
        E 0 80 62 00
        E 360 90 3d 60
        E 0 90 48 60
        E 0 90 4a 60
        E 0 90 54 60
        E 0 90 56 60
        E 0 90 60 60
        E 0 90 62 60
        E 120 80 3d 00
        E 0 80 48 00
        E 0 80 4a 00
        E 0 80 54 00
        E 0 80 56 00
        E 0 80 60 00
        E 0 80 62 00
        E 360 90 48 60
        E 0 90 4a 60
        E 0 90 54 60
        E 0 90 56 60
        E 0 90 60 60
        E 0 90 62 60
        E 120 80 48 00
        E 0 80 4a 00
        E 0 80 54 00
        E 0 80 56 00
        E 0 80 60 00
        E 0 80 62 00
        E 360 90 3e 60
        E 0 90 49 60
        E 0 90 4a 60
        E 0 90 54 60
        E 0 90 57 60
        E 0 90 60 60
        E 0 90 63 60
        E 120 80 3e 00
        E 0 80 49 00
        E 0 80 4a 00
        E 0 80 54 00
        E 0 80 57 00
        E 0 80 60 00
        E 0 80 63 00
        E 360 90 3e 60
        E 0 90 49 60
        E 0 90 4a 60
        E 0 90 54 60
        E 0 90 57 60
        E 0 90 60 60
        E 0 90 63 60
        E 120 80 3e 00
        E 0 80 49 00
        E 0 80 4a 00
        E 0 80 54 00
        E 0 80 57 00
        E 0 80 60 00
        E 0 80 63 00
        E 360 90 3e 60
        E 0 90 49 60
        E 0 90 4a 60
        E 0 90 54 60
        E 0 90 57 60
        E 0 90 60 60
        E 0 90 63 60
        E 120 80 3e 00
        E 0 80 49 00
        E 0 80 4a 00
        E 0 80 54 00
        E 0 80 57 00
        E 0 80 60 00
        E 0 80 63 00
        E 360 90 49 60
        E 0 90 4a 60
        E 0 90 54 60
        E 0 90 57 60
        E 0 90 60 60
        E 0 90 63 60
        E 120 80 49 00
        E 0 80 4a 00
        E 0 80 54 00
        E 0 80 57 00
        E 0 80 60 00
        E 0 80 63 00
        E 360 90 3d 60
        E 0 90 49 60
        E 0 90 55 60
        E 0 90 61 60
        E 0 90 74 60
        E 120 80 3d 00
        E 0 80 49 00
        E 0 80 55 00
        E 0 80 61 00
        E 360 90 4b 60
        E 0 90 58 60
        E 0 90 64 60
        E 120 80 4b 00
        E 0 80 58 00
        E 0 80 64 00
        E 120 90 57 60
        E 0 90 63 60
        E 120 80 57 00
        E 0 80 63 00
        E 120 90 3d 60
        E 0 90 49 60
        E 0 90 55 60
        E 0 90 61 60
        E 120 80 3d 00
        E 0 80 49 00
        E 0 80 55 00
        E 0 80 61 00
        E 360 90 49 60
        E 0 90 55 60
        E 0 90 61 60
        E 120 80 49 00
        E 0 80 55 00
        E 0 80 61 00
        E 360 90 3c 60
        E 0 90 48 60
        E 0 90 54 60
        E 0 90 60 60
        E 120 80 74 00
        E 0 80 3c 00
        E 0 80 48 00
        E 0 80 54 00
        E 0 80 60 00
        E 120 90 55 60
        E 0 90 61 60
        E 120 80 55 00
        E 0 80 61 00
        E 120 90 4b 60
        E 0 90 58 60
        E 0 90 64 60
        E 120 80 4b 00
        E 0 80 58 00
        E 0 80 64 00
        E 120 90 57 60
        E 0 90 63 60
        E 120 80 57 00
        E 0 80 63 00
        E 120 90 3c 60
        E 0 90 48 60
        E 0 90 54 60
        E 0 90 60 60
        E 120 80 3c 00
        E 0 80 48 00
        E 0 80 54 00
        E 0 80 60 00
        E 360 90 48 60
        E 0 90 54 60
        E 0 90 60 60
        E 120 80 48 00
        E 0 80 54 00
        E 0 80 60 00
        E 360 90 3d 60
        E 0 90 4a 60
        E 0 90 56 60
        E 0 90 62 60
        E 120 80 3d 00
        E 0 80 4a 00
        E 0 80 56 00
        E 0 80 62 00
        E 360 90 4b 60
        E 0 90 58 60
        E 0 90 64 60
        E 120 80 4b 00
        E 0 80 58 00
        E 0 80 64 00
        E 120 90 57 60
        E 0 90 63 60
        E 120 80 57 00
        E 0 80 63 00
        E 120 90 3d 60
        E 0 90 4a 60
        E 0 90 56 60
        E 0 90 62 60
        E 120 80 3d 00
        E 0 80 4a 00
        E 0 80 56 00
        E 0 80 62 00
        E 360 90 4a 60
        E 0 90 56 60
        E 0 90 62 60
        E 120 80 4a 00
        E 0 80 56 00
        E 0 80 62 00
        E 360 90 3e 60
        E 0 90 49 60
        E 0 90 4a 60
        E 0 90 55 60
        E 0 90 56 60
        E 0 90 61 60
        E 0 90 62 60
        E 120 80 3e 00
        E 0 80 49 00
        E 0 80 4a 00
        E 0 80 55 00
        E 0 80 56 00
        E 0 80 61 00
        E 0 80 62 00
        E 360 90 3e 60
        E 0 90 49 60
        E 0 90 4b 60
        E 0 90 55 60
        E 0 90 57 60
        E 0 90 61 60
        E 0 90 62 60
        E 0 90 63 60
        E 120 80 3e 00
        E 0 80 49 00
        E 0 80 4b 00
        E 0 80 55 00
        E 0 80 57 00
        E 0 80 61 00
        E 0 80 62 00
        E 0 80 63 00
        E 360 90 3e 60
        E 0 90 49 60
        E 0 90 4a 60
        E 0 90 54 60
        E 0 90 57 60
        E 0 90 60 60
        E 0 90 62 60
        E 0 90 63 60
        E 120 80 3e 00
        E 0 80 49 00
        E 0 80 4a 00
        E 0 80 54 00
        E 0 80 57 00
        E 0 80 60 00
        E 0 80 62 00
        E 0 80 63 00
        E 360 90 3e 60
        E 0 90 49 60
        E 0 90 4a 60
        E 0 90 54 60
        E 0 90 57 60
        E 0 90 60 60
        E 0 90 62 60
        E 0 90 63 60
        E 120 80 3e 00
        E 0 80 49 00
        E 0 80 4a 00
        E 0 80 54 00
        E 0 80 57 00
        E 0 80 60 00
        E 0 80 62 00
        E 0 80 63 00
        E 360 90 3e 60
        E 0 90 4b 60
        E 0 90 58 60
        E 0 90 64 60
        E 120 80 3e 00
        E 0 80 4b 00
        E 0 80 58 00
        E 0 80 64 00
        E 120 90 55 60
        E 0 90 61 60
        E 120 80 55 00
        E 0 80 61 00
        E 120 90 4b 60
        E 0 90 58 60
        E 0 90 64 60
        E 120 80 4b 00
        E 0 80 58 00
        E 0 80 64 00
        E 120 90 57 60
        E 0 90 63 60
        E 120 80 57 00
        E 0 80 63 00
        E 120 90 3d 60
        E 0 90 49 60
        E 0 90 55 60
        E 0 90 61 60
        E 120 80 3d 00
        E 0 80 49 00
        E 0 80 55 00
        E 0 80 61 00
        E 120 90 56 60
        E 0 90 62 60
        E 120 80 56 00
        E 0 80 62 00
        E 120 90 4b 60
        E 0 90 57 60
        E 0 90 63 60
        E 120 80 4b 00
        E 0 80 57 00
        E 0 80 63 00
        E 120 90 56 60
        E 0 90 62 60
        E 120 80 56 00
        E 0 80 62 00
        E 120 90 3c 60
        E 0 90 48 60
        E 0 90 54 60
        E 0 90 60 60
        E 120 80 3c 00
        E 0 80 48 00
        E 0 80 54 00
        E 0 80 60 00
        E 120 90 55 60
        E 0 90 61 60
        E 120 80 55 00
        E 0 80 61 00
        E 120 90 4b 60
        E 0 90 58 60
        E 0 90 64 60
        E 120 80 4b 00
        E 0 80 58 00
        E 0 80 64 00
        E 120 90 57 60
        E 0 90 63 60
        E 120 80 57 00
        E 0 80 63 00
        E 120 90 3c 60
        E 0 90 48 60
        E 0 90 54 60
        E 0 90 60 60
        E 120 80 3c 00
        E 0 80 48 00
        E 0 80 54 00
        E 0 80 60 00
        E 120 90 55 60
        E 0 90 61 60
        E 120 80 55 00
        E 0 80 61 00
        E 120 90 4a 60
        E 0 90 56 60
        E 0 90 62 60
        E 120 80 4a 00
        E 0 80 56 00
        E 0 80 62 00
        E 120 90 57 60
        E 0 90 64 60
        E 120 80 57 00
        E 0 80 64 00
        E 120 90 3d 60
        E 0 90 4a 60
        E 0 90 56 60
        E 0 90 62 60
        E 120 80 3d 00
        E 0 80 4a 00
        E 0 80 56 00
        E 0 80 62 00
        E 360 90 4a 60
        E 0 90 4b 60
        E 0 90 55 60
        E 0 90 58 60
        E 0 90 61 60
        E 0 90 64 60
        E 120 80 4a 00
        E 0 80 4b 00
        E 0 80 55 00
        E 0 80 58 00
        E 0 80 61 00
        E 0 80 64 00
        E 120 90 54 60
        E 0 90 57 60
        E 0 90 60 60
        E 0 90 63 60
        E 120 80 54 00
        E 0 80 57 00
        E 0 80 60 00
        E 0 80 63 00
        E 120 90 3d 60
        E 0 90 4a 60
        E 0 90 56 60
        E 0 90 60 60
        E 120 80 3d 00
        E 0 80 4a 00
        E 0 80 56 00
        E 0 80 60 00
        E 120 90 61 60
        E 120 80 61 00
        E 120 90 4a 60
        E 0 90 56 60
        E 0 90 62 60
        E 120 80 4a 00
        E 0 80 56 00
        E 0 80 62 00
        E 120 90 64 60
        E 120 80 64 00
        E 120 90 3e 60
        E 0 90 49 60
        E 0 90 4a 60
        E 0 90 55 60
        E 0 90 56 60
        E 0 90 61 60
        E 0 90 62 60
        E 120 80 3e 00
        E 0 80 49 00
        E 0 80 4a 00
        E 0 80 55 00
        E 0 80 56 00
        E 0 80 61 00
        E 0 80 62 00
        E 360 90 3e 60
        E 0 90 49 60
        E 0 90 4b 60
        E 0 90 55 60
        E 0 90 57 60
        E 0 90 61 60
        E 0 90 62 60
        E 0 90 63 60
        E 120 80 3e 00
        E 0 80 49 00
        E 0 80 4b 00
        E 0 80 55 00
        E 0 80 57 00
        E 0 80 61 00
        E 0 80 62 00
        E 0 80 63 00
        E 360 90 3e 60
        E 0 90 49 60
        E 0 90 4a 60
        E 0 90 54 60
        E 0 90 57 60
        E 0 90 60 60
        E 0 90 62 60
        E 0 90 63 60
        E 120 80 3e 00
        E 0 80 49 00
        E 0 80 4a 00
        E 0 80 54 00
        E 0 80 57 00
        E 0 80 60 00
        E 0 80 62 00
        E 0 80 63 00
        E 360 90 3e 60
        E 0 90 49 60
        E 0 90 4a 60
        E 0 90 54 60
        E 0 90 57 60
        E 0 90 60 60
        E 0 90 62 60
        E 0 90 63 60
        E 120 80 3e 00
        E 0 80 49 00
        E 0 80 4a 00
        E 0 80 54 00
        E 0 80 57 00
        E 0 80 60 00
        E 0 80 62 00
        E 0 80 63 00
        E 360 90 3e 60
        E 0 90 4a 60
        E 0 90 4b 60
        E 0 90 55 60
        E 0 90 58 60
        E 0 90 61 60
        E 0 90 64 60
        <X 1919 0
          /wFbaWRsZV9yZWFsdGltZV0=
        >
        E 0 80 3e 00
        E 0 80 4a 00
        E 0 80 4b 00
        E 0 80 55 00
        E 0 80 58 00
        E 0 80 61 00
        E 0 80 64 00
        E 1920 b0 7b 00
        GUID {E4A973A3-BF64-4699-9EFD-99B3000DACFB}
        IGNTEMPO 0 120.00000000 4 4
        SRCCOLOR 4
        VELLANE 132 128 60
        COLORMAP "C:\Program Files\REAPER (x64)\Data\color_maps\rockband_guitarbass.png"
        CFGEDITVIEW -6368.141248 5.043858 0 14 0 0 0
        CFGEDIT 1 1 0 1 1 0 1 1 1 1 1 0.25000000 -8 -8 1544 872 0 2 1 1 0.00000000 0 1 1 0 0.500000 0 0 1.000000 64
        KEYSNAP 0 7 "102030050700" 0 "Pentatonic"
        EVTFILTER 0 -1 -1 -1 -1 0 1 0 0 -1.00000000 -1.00000000
      >
    >
  >
  <TRACK '{B98FA4FA-8B54-4738-80FF-B1780941F036}'
    NAME "PART REAL_KEYS_X"
    PEAKCOL 16576
    BEAT -1
    AUTOMODE 0
    VOLPAN 1.00000000000000 0.00000000000000 -1.00000000000000 -1.00000000000000 1.00000000000000
    MUTESOLO 0 0 0
    IPHASE 0
    ISBUS 0 0
    BUSCOMP 0 0
    SHOWINMIX 1 0.666700 0.500000 1 0.500000 -1 -1 -1
    FREEMODE 0
    SEL 0
    REC 0 0 0 0 0 0 0
    VU 2
    TRACKHEIGHT 0 0
    INQ 0 0 0 0.5000000000 100 0 0 100
    NCHAN 2
    FX 0
    TRACKID {B98FA4FA-8B54-4738-80FF-B1780941F036}
    PERF 0
    MIDIOUT -1
    <MIDINOTENAMES
      0 127 "TRILL MARKER"
      0 126 "GLISSANDO MARKER"
      0 125 "---"
      0 116 "OVERDRIVE"
      0 115 "SOLO"
      0 114 "---"
      0 72 "Highest playable note B#3"
      0 71 "B3"
      0 70 "A#3"
      0 69 "A3"
      0 68 "G#3"
      0 67 "G3"
      0 66 "F#3"
      0 65 "F3"
      0 64 "E3"
      0 63 "D#3"
      0 62 "D3"
      0 61 "C#3"
      0 60 "C3"
      0 59 "B2"
      0 58 "A#2"
      0 57 "A2"
      0 56 "G#2"
      0 55 "G2"
      0 54 "F#2"
      0 53 "F2"
      0 52 "E2"
      0 51 "D#2"
      0 50 "D2"
      0 49 "C#2"
      0 48 "Lowest playable note C2"
      0 10 "---"
      0 9 "Range A2-C4"
      0 8 "Range"
      0 7 "Range"
      0 6 "Range"
      0 5 "Range F2-A3"
      0 4 "Range"
      0 3 "Range"
      0 2 "Range"
      0 1 "Range"
      0 0 "Range C2-E3"
    >
    MAINSEND 1 0
    <FXCHAIN
      WNDRECT 0 43 655 467
      SHOW 0
      LASTSEL 1
      DOCKED 0
      BYPASS 0 0
      <JS "MIDI/midi_note_filter" ""
        48.000000 72.000000 - - - - - - - - - - - - - - - - - - - - - - - - - - - - - - - - - - - - - - - - - - - - - - - - - - - - - - - - - - - - - - 
      >
      FLOATPOS 0 0 0 0
      FXID {78329141-9DA1-4095-9FC6-D7EEF2537B1C}
      WAK 0
      BYPASS 0 0
      <VST "VSTi: ReaSynth (Cockos)" "reasynth.dll" 0 ""
        eXNlcu9e7f4AAAAAAgAAAAEAAAAAAAAAAgAAAAAAAAA4AAAAAAAAAA==
        AAAQAO++rd4N8K3eppvEO9xmcT0AAIA/AAAAAAAAAADMm4A+6WeIPQ==
        AAAAAAAAAD8AAIA/AACAPwAAAD8AABAAAAA=
      >
      FLOATPOS 0 0 0 0
      FXID {3B1E3A89-6D2E-4757-BB2A-B8D071DBB15E}
      WAK 0
    >
    <ITEM
      POSITION 0.00000000000000
      SNAPOFFS 0.00000000000000
      LENGTH 222.64699999999999
      LOOP 0
      ALLTAKES 0
      SEL 0
      FADEIN 1 0.000000 0.000000 1 0
      FADEOUT 1 0.000000 0.000000 1 0
      MUTE 0
      IGUID {5ABE966A-22B4-4007-A3EB-0835C6C072BD}
      IID 3
      NAME "PART REAL_KEYS_X"
      VOLPAN 1.000000 0.000000 1.000000 -1.000000
      SOFFS 0.00000000000000 0.00000000000000
      PLAYRATE 1.00000000000000 1 0.00000000000000 -1
      CHANMODE 0
      GUID {40C1106B-1617-4089-9FAE-FF2CF52EE24B}
      <SOURCE MIDI
        HASDATA 1 480 QN
        POOLEDEVTS {489CAA7F-3387-4CB4-9182-02874B255ACA}
        <X 0 0
          /wNQQVJUIFJFQUxfS0VZU19Y
        >
        E 0 90 00 60
        E 120 80 00 00
        <X 1800 0
          /wFbYmVnaW5fa2V5IHNvbmdfdHJhaW5lcl9rZXlfMV0=
        >
        E 0 91 30 60
        E 0 91 35 60
        E 0 91 37 60
        E 120 81 30 00
        E 0 81 35 00
        E 0 81 37 00
        E 360 91 30 60
        E 0 91 35 60
        E 0 91 37 60
        E 120 81 30 00
        E 0 81 35 00
        E 0 81 37 00
        E 360 91 30 60
        E 0 91 35 60
        E 0 91 37 60
        E 120 81 30 00
        E 0 81 35 00
        E 0 81 37 00
        E 360 91 30 60
        E 0 91 35 60
        E 0 91 37 60
        E 120 81 30 00
        E 0 81 35 00
        E 0 81 37 00
        <X 360 0
          /wFba2V5X25vcm0gc29uZ190cmFpbmVyX2tleV8xXQ==
        >
        E 0 91 31 60
        E 0 91 35 60
        E 0 91 38 60
        E 120 81 31 00
        E 0 81 35 00
        E 0 81 38 00
        E 360 91 31 60
        E 0 91 35 60
        E 0 91 38 60
        E 120 81 31 00
        E 0 81 35 00
        E 0 81 38 00
        E 360 91 31 60
        E 0 91 35 60
        E 0 91 38 60
        E 120 81 31 00
        E 0 81 35 00
        E 0 81 38 00
        E 360 91 31 60
        E 0 91 35 60
        E 0 91 38 60
        E 120 81 31 00
        E 0 81 35 00
        E 0 81 38 00
        E 360 90 74 60
        E 0 91 35 60
        E 0 91 39 60
        E 0 91 3c 60
        E 120 81 35 00
        E 0 81 39 00
        E 0 81 3c 00
        E 360 91 35 60
        E 0 91 39 60
        E 0 91 3c 60
        E 120 81 35 00
        E 0 81 39 00
        E 0 81 3c 00
        E 360 91 34 60
        E 0 91 39 60
        E 0 91 3c 60
        E 120 81 34 00
        E 0 81 39 00
        E 0 81 3c 00
        E 360 91 34 60
        E 0 91 39 60
        E 0 91 3c 60
        E 120 81 34 00
        E 0 81 39 00
        E 0 81 3c 00
        E 360 80 74 00
        E 0 90 3c 60
        E 0 91 37 60
        E 0 91 3a 60
        E 120 80 3c 00
        E 0 81 37 00
        E 0 81 3a 00
        E 360 90 3c 60
        E 0 91 37 60
        E 0 91 3a 60
        E 120 80 3c 00
        E 0 81 37 00
        E 0 81 3a 00
        E 360 90 3c 60
        E 0 91 35 60
        E 0 91 3a 60
        E 120 80 3c 00
        E 0 81 35 00
        E 0 81 3a 00
        E 360 90 3c 60
        E 0 91 35 60
        E 0 91 3a 60
        E 120 80 3c 00
        E 0 81 35 00
        E 0 81 3a 00
        <X 360 0
          /wFbZW5kX2tleSBzb25nX3RyYWluZXJfa2V5XzFd
        >
        E 0 91 30 60
        E 0 91 35 60
        E 0 91 37 60
        E 120 81 30 00
        E 0 81 35 00
        E 0 81 37 00
        E 360 91 30 60
        E 0 91 35 60
        E 0 91 37 60
        E 120 81 30 00
        E 0 81 35 00
        E 0 81 37 00
        E 360 91 30 60
        E 0 91 35 60
        E 0 91 37 60
        E 120 81 30 00
        E 0 81 35 00
        E 0 81 37 00
        E 360 91 30 60
        E 0 91 35 60
        E 0 91 37 60
        E 120 81 30 00
        E 0 81 35 00
        E 0 81 37 00
        E 360 91 31 60
        E 0 91 35 60
        E 0 91 38 60
        E 120 81 31 00
        E 0 81 35 00
        E 0 81 38 00
        E 360 91 31 60
        E 0 91 35 60
        E 0 91 38 60
        E 120 81 31 00
        E 0 81 35 00
        E 0 81 38 00
        E 360 91 31 60
        E 0 91 35 60
        E 0 91 38 60
        E 120 81 31 00
        E 0 81 35 00
        E 0 81 38 00
        E 360 91 31 60
        E 0 91 35 60
        E 0 91 38 60
        E 120 81 31 00
        E 0 81 35 00
        E 0 81 38 00
        E 360 91 35 60
        E 0 91 39 60
        E 0 91 3c 60
        E 120 81 35 00
        E 0 81 39 00
        E 0 81 3c 00
        E 360 91 35 60
        E 0 91 39 60
        E 0 91 3c 60
        E 120 81 35 00
        E 0 81 39 00
        E 0 81 3c 00
        E 360 91 34 60
        E 0 91 39 60
        E 0 91 3c 60
        E 120 81 34 00
        E 0 81 39 00
        E 0 81 3c 00
        E 360 91 34 60
        E 0 91 39 60
        E 0 91 3c 60
        E 120 81 34 00
        E 0 81 39 00
        E 0 81 3c 00
        E 360 90 3c 60
        E 0 91 37 60
        E 0 91 3a 60
        E 120 80 3c 00
        E 0 81 37 00
        E 0 81 3a 00
        E 360 90 3c 60
        E 0 91 37 60
        E 0 91 3a 60
        E 120 80 3c 00
        E 0 81 37 00
        E 0 81 3a 00
        E 360 90 3c 60
        E 0 91 35 60
        E 0 91 3a 60
        E 120 80 3c 00
        E 0 81 35 00
        E 0 81 3a 00
        E 360 90 3c 60
        E 0 91 35 60
        E 0 91 3a 60
        E 120 80 3c 00
        E 0 81 35 00
        E 0 81 3a 00
        E 360 90 74 60
        E 0 91 30 60
        E 0 91 35 60
        E 0 91 37 60
        E 120 81 30 00
        E 0 81 35 00
        E 0 81 37 00
        E 360 91 30 60
        E 0 91 35 60
        E 0 91 37 60
        E 120 81 30 00
        E 0 81 35 00
        E 0 81 37 00
        E 360 91 30 60
        E 0 91 35 60
        E 0 91 37 60
        E 120 81 30 00
        E 0 81 35 00
        E 0 81 37 00
        E 360 91 30 60
        E 0 91 35 60
        E 0 91 37 60
        E 120 81 30 00
        E 0 81 35 00
        E 0 81 37 00
        E 360 91 31 60
        E 0 91 35 60
        E 0 91 38 60
        E 120 80 74 00
        E 0 81 31 00
        E 0 81 35 00
        E 0 81 38 00
        E 360 91 31 60
        E 0 91 35 60
        E 0 91 38 60
        E 120 81 31 00
        E 0 81 35 00
        E 0 81 38 00
        E 360 91 31 60
        E 0 91 35 60
        E 0 91 38 60
        E 120 81 31 00
        E 0 81 35 00
        E 0 81 38 00
        E 360 91 31 60
        E 0 91 35 60
        E 0 91 38 60
        E 120 81 31 00
        E 0 81 35 00
        E 0 81 38 00
        E 360 91 35 60
        E 0 91 39 60
        E 0 91 3c 60
        E 120 81 35 00
        E 0 81 39 00
        E 0 81 3c 00
        E 360 91 35 60
        E 0 91 39 60
        E 0 91 3c 60
        E 120 81 35 00
        E 0 81 39 00
        E 0 81 3c 00
        E 360 91 34 60
        E 0 91 39 60
        E 0 91 3c 60
        E 120 81 34 00
        E 0 81 39 00
        E 0 81 3c 00
        E 360 91 34 60
        E 0 91 39 60
        E 0 91 3c 60
        E 120 81 34 00
        E 0 81 39 00
        E 0 81 3c 00
        E 360 90 3c 60
        E 0 91 37 60
        E 0 91 3a 60
        E 120 80 3c 00
        E 0 81 37 00
        E 0 81 3a 00
        E 360 90 3c 60
        E 0 91 37 60
        E 0 91 3a 60
        E 120 80 3c 00
        E 0 81 37 00
        E 0 81 3a 00
        E 360 90 3c 60
        E 0 91 35 60
        E 0 91 3a 60
        E 120 80 3c 00
        E 0 81 35 00
        E 0 81 3a 00
        E 360 90 3c 60
        E 0 91 35 60
        E 0 91 3a 60
        E 120 80 3c 00
        E 0 81 35 00
        E 0 81 3a 00
        <X 360 0
          /wFbYmVnaW5fa2V5IHNvbmdfdHJhaW5lcl9rZXlfMl0=
        >
        E 0 91 30 60
        E 0 91 35 60
        E 0 91 37 60
        E 120 81 30 00
        E 0 81 35 00
        E 0 81 37 00
        E 360 91 30 60
        E 0 91 35 60
        E 0 91 37 60
        E 120 81 30 00
        E 0 81 35 00
        E 0 81 37 00
        E 360 91 30 60
        E 0 91 35 60
        E 0 91 37 60
        E 120 81 30 00
        E 0 81 35 00
        E 0 81 37 00
        E 360 91 30 60
        E 0 91 35 60
        E 0 91 37 60
        E 120 81 30 00
        E 0 81 35 00
        E 0 81 37 00
        <X 360 0
          /wFba2V5X25vcm0gc29uZ190cmFpbmVyX2tleV8yXQ==
        >
        E 0 91 31 60
        E 0 91 35 60
        E 0 91 38 60
        E 120 81 31 00
        E 0 81 35 00
        E 0 81 38 00
        E 360 91 31 60
        E 0 91 35 60
        E 0 91 38 60
        E 120 81 31 00
        E 0 81 35 00
        E 0 81 38 00
        E 360 91 31 60
        E 0 91 35 60
        E 0 91 38 60
        E 120 81 31 00
        E 0 81 35 00
        E 0 81 38 00
        E 360 91 31 60
        E 0 91 35 60
        E 0 91 38 60
        E 120 81 31 00
        E 0 81 35 00
        E 0 81 38 00
        E 360 91 35 60
        E 0 91 39 60
        E 0 91 3c 60
        E 120 81 35 00
        E 0 81 39 00
        E 0 81 3c 00
        E 360 91 35 60
        E 0 91 39 60
        E 0 91 3c 60
        E 120 81 35 00
        E 0 81 39 00
        E 0 81 3c 00
        E 360 91 34 60
        E 0 91 39 60
        E 0 91 3c 60
        E 120 81 34 00
        E 0 81 39 00
        E 0 81 3c 00
        E 360 91 34 60
        E 0 91 39 60
        E 0 91 3c 60
        E 120 81 34 00
        E 0 81 39 00
        E 0 81 3c 00
        E 360 90 04 60
        E 0 91 35 60
        E 0 91 38 60
        E 0 91 3c 60
        E 120 80 04 00
        E 0 81 35 00
        E 0 81 38 00
        E 0 81 3c 00
        E 360 91 35 60
        E 0 91 38 60
        E 0 91 3c 60
        E 120 81 35 00
        E 0 81 38 00
        E 0 81 3c 00
        E 360 91 35 60
        E 0 91 38 60
        E 0 91 3c 60
        E 120 81 35 00
        E 0 81 38 00
        E 0 81 3c 00
        E 360 91 35 60
        E 0 91 38 60
        E 0 91 3c 60
        E 120 81 35 00
        E 0 81 38 00
        E 0 81 3c 00
        <X 360 0
          /wFbZW5kX2tleSBzb25nX3RyYWluZXJfa2V5XzJd
        >
        <X 0 0
          /wFbYmVnaW5fa2V5IHNvbmdfdHJhaW5lcl9rZXlfM10=
        >
        E 0 91 35 60
        E 120 81 35 00
        E 360 90 35 60
        E 0 91 41 60
        E 120 80 35 00
        E 0 81 41 00
        E 120 91 40 60
        E 120 81 40 00
        E 120 91 35 60
        E 120 81 35 00
        E 360 91 35 60
        E 120 81 35 00
        <X 360 0
          /wFba2V5X25vcm0gc29uZ190cmFpbmVyX2tleV8zXQ==
        >
        E 0 90 74 60
        E 0 91 34 60
        E 120 81 34 00
        E 120 91 35 60
        E 120 81 35 00
        E 120 90 34 60
        E 0 91 41 60
        E 120 80 34 00
        E 0 81 41 00
        E 120 91 40 60
        E 120 81 40 00
        E 120 91 34 60
        E 120 81 34 00
        E 360 91 34 60
        E 120 81 34 00
        E 360 80 74 00
        E 0 91 38 60
        E 120 81 38 00
        E 360 90 38 60
        E 0 91 41 60
        E 120 80 38 00
        E 0 81 41 00
        E 120 91 40 60
        E 120 81 40 00
        E 120 91 38 60
        E 120 81 38 00
        E 360 91 38 60
        E 120 81 38 00
        E 360 91 37 60
        E 0 91 3b 60
        E 120 81 37 00
        E 0 81 3b 00
        E 360 91 37 60
        E 0 91 3b 60
        E 0 91 41 60
        E 120 81 37 00
        E 0 81 3b 00
        E 0 81 41 00
        E 360 91 36 60
        E 0 91 3a 60
        E 0 91 41 60
        E 120 81 36 00
        E 0 81 3a 00
        E 0 81 41 00
        E 360 91 36 60
        E 0 91 3a 60
        E 0 91 41 60
        E 120 81 36 00
        E 0 81 3a 00
        E 0 81 41 00
        <X 360 0
          /wFbZW5kX2tleSBzb25nX3RyYWluZXJfa2V5XzNd
        >
        <X 0 0
          /wFbYmVnaW5fa2V5IHNvbmdfdHJhaW5lcl9rZXlfNF0=
        >
        E 0 90 35 60
        E 0 91 41 60
        E 120 80 35 00
        E 0 81 41 00
        E 120 91 35 60
        E 120 81 35 00
        E 120 90 35 60
        E 0 91 41 60
        E 120 80 35 00
        E 0 81 41 00
        E 120 91 40 60
        E 120 81 40 00
        E 120 91 35 60
        E 120 81 35 00
        E 360 91 35 60
        E 120 81 35 00
        <X 360 0
          /wFba2V5X25vcm0gc29uZ190cmFpbmVyX2tleV80XQ==
        >
        E 0 91 34 60
        E 120 81 34 00
        E 120 91 34 60
        E 120 81 34 00
        E 120 90 34 60
        E 0 91 41 60
        E 120 80 34 00
        E 0 81 41 00
        E 120 91 40 60
        E 120 81 40 00
        E 120 91 34 60
        E 120 81 34 00
        E 120 91 37 60
        E 120 81 37 00
        E 120 90 34 60
        E 0 91 38 60
        E 120 80 34 00
        E 0 81 38 00
        E 120 91 3c 60
        E 120 81 3c 00
        E 120 91 38 60
        E 120 81 38 00
        E 360 91 35 60
        E 0 91 41 60
        E 120 81 35 00
        E 0 81 41 00
        E 120 91 34 60
        E 0 91 40 60
        E 120 81 34 00
        E 0 81 40 00
        E 120 91 38 60
        E 120 81 38 00
        E 360 91 38 60
        E 120 81 38 00
        E 360 90 74 60
        E 0 91 37 60
        E 0 91 3b 60
        E 120 81 37 00
        E 0 81 3b 00
        E 360 91 37 60
        E 0 91 3b 60
        E 0 91 41 60
        E 120 81 37 00
        E 0 81 3b 00
        E 0 81 41 00
        E 360 91 36 60
        E 0 91 3a 60
        E 0 91 41 60
        E 120 81 36 00
        E 0 81 3a 00
        E 0 81 41 00
        E 360 91 36 60
        E 0 91 3a 60
        E 0 91 41 60
        E 120 81 36 00
        E 0 81 3a 00
        E 0 81 41 00
        <X 360 0
          /wFbZW5kX2tleSBzb25nX3RyYWluZXJfa2V5XzRd
        >
        E 0 80 74 00
        E 0 90 00 60
        E 0 91 35 60
        E 0 91 37 60
        E 0 91 3c 60
        E 120 80 00 00
        E 0 81 35 00
        E 0 81 37 00
        E 0 81 3c 00
        E 360 91 35 60
        E 0 91 37 60
        E 0 91 3c 60
        E 120 81 35 00
        E 0 81 37 00
        E 0 81 3c 00
        E 360 91 35 60
        E 0 91 37 60
        E 0 91 3c 60
        E 120 81 35 00
        E 0 81 37 00
        E 0 81 3c 00
        E 360 91 35 60
        E 0 91 37 60
        E 0 91 3c 60
        E 120 81 35 00
        E 0 81 37 00
        E 0 81 3c 00
        E 360 91 31 60
        E 0 91 35 60
        E 0 91 38 60
        E 120 81 31 00
        E 0 81 35 00
        E 0 81 38 00
        E 360 91 31 60
        E 0 91 35 60
        E 0 91 38 60
        E 120 81 31 00
        E 0 81 35 00
        E 0 81 38 00
        E 360 91 31 60
        E 0 91 35 60
        E 0 91 38 60
        E 120 81 31 00
        E 0 81 35 00
        E 0 81 38 00
        E 360 91 31 60
        E 0 91 35 60
        E 0 91 38 60
        E 120 81 31 00
        E 0 81 35 00
        E 0 81 38 00
        E 360 91 30 60
        E 0 91 35 60
        E 0 91 39 60
        E 120 81 30 00
        E 0 81 35 00
        E 0 81 39 00
        E 360 91 30 60
        E 0 91 35 60
        E 0 91 39 60
        E 120 81 30 00
        E 0 81 35 00
        E 0 81 39 00
        E 360 91 30 60
        E 0 91 34 60
        E 0 91 39 60
        E 120 81 30 00
        E 0 81 34 00
        E 0 81 39 00
        E 360 91 30 60
        E 0 91 34 60
        E 0 91 39 60
        E 120 81 30 00
        E 0 81 34 00
        E 0 81 39 00
        E 360 90 30 60
        E 0 91 37 60
        E 0 91 3a 60
        E 120 80 30 00
        E 0 81 37 00
        E 0 81 3a 00
        E 360 90 30 60
        E 0 91 37 60
        E 0 91 3a 60
        E 120 80 30 00
        E 0 81 37 00
        E 0 81 3a 00
        E 360 90 30 60
        E 0 91 35 60
        E 0 91 3a 60
        E 120 80 30 00
        E 0 81 35 00
        E 0 81 3a 00
        E 360 90 30 60
        E 0 91 35 60
        E 0 91 3a 60
        E 120 80 30 00
        E 0 81 35 00
        E 0 81 3a 00
        E 120 90 3c 60
        E 120 80 3c 00
        E 120 91 30 60
        E 0 91 35 60
        E 0 91 37 60
        E 120 81 30 00
        E 0 81 35 00
        E 0 81 37 00
        E 360 91 30 60
        E 0 91 35 60
        E 0 91 37 60
        E 120 81 30 00
        E 0 81 35 00
        E 0 81 37 00
        E 360 91 30 60
        E 0 91 35 60
        E 0 91 37 60
        E 120 81 30 00
        E 0 81 35 00
        E 0 81 37 00
        E 360 91 30 60
        E 0 91 35 60
        E 0 91 37 60
        E 120 81 30 00
        E 0 81 35 00
        E 0 81 37 00
        E 360 91 31 60
        E 0 91 35 60
        E 0 91 38 60
        E 120 81 31 00
        E 0 81 35 00
        E 0 81 38 00
        E 360 91 31 60
        E 0 91 35 60
        E 0 91 38 60
        E 120 81 31 00
        E 0 81 35 00
        E 0 81 38 00
        E 360 91 31 60
        E 0 91 35 60
        E 0 91 38 60
        E 120 81 31 00
        E 0 81 35 00
        E 0 81 38 00
        E 360 91 31 60
        E 0 91 35 60
        E 0 91 38 60
        E 120 81 31 00
        E 0 81 35 00
        E 0 81 38 00
        E 360 91 30 60
        E 0 91 35 60
        E 0 91 39 60
        E 120 81 30 00
        E 0 81 35 00
        E 0 81 39 00
        E 360 91 30 60
        E 0 91 35 60
        E 0 91 39 60
        E 120 81 30 00
        E 0 81 35 00
        E 0 81 39 00
        E 360 91 30 60
        E 0 91 34 60
        E 0 91 39 60
        E 120 81 30 00
        E 0 81 34 00
        E 0 81 39 00
        E 360 91 30 60
        E 0 91 34 60
        E 0 91 39 60
        E 120 81 30 00
        E 0 81 34 00
        E 0 81 39 00
        E 360 90 30 60
        E 0 90 74 60
        E 0 91 37 60
        E 0 91 3a 60
        E 120 80 30 00
        E 0 81 37 00
        E 0 81 3a 00
        E 360 90 30 60
        E 0 91 37 60
        E 0 91 3a 60
        E 120 80 30 00
        E 0 81 37 00
        E 0 81 3a 00
        E 360 90 30 60
        E 0 91 35 60
        E 0 91 3a 60
        E 120 80 30 00
        E 0 81 35 00
        E 0 81 3a 00
        E 360 90 30 60
        E 0 91 35 60
        E 0 91 3a 60
        E 120 80 30 00
        E 0 81 35 00
        E 0 81 3a 00
        E 120 90 3c 60
        E 120 80 3c 00
        E 120 80 74 00
        E 0 91 30 60
        E 0 91 35 60
        E 0 91 37 60
        E 120 81 30 00
        E 0 81 35 00
        E 0 81 37 00
        E 360 91 30 60
        E 0 91 35 60
        E 0 91 37 60
        E 120 81 30 00
        E 0 81 35 00
        E 0 81 37 00
        E 360 91 30 60
        E 0 91 35 60
        E 0 91 37 60
        E 120 81 30 00
        E 0 81 35 00
        E 0 81 37 00
        E 360 91 30 60
        E 0 91 35 60
        E 0 91 37 60
        E 120 81 30 00
        E 0 81 35 00
        E 0 81 37 00
        E 360 91 31 60
        E 0 91 35 60
        E 0 91 38 60
        E 120 81 31 00
        E 0 81 35 00
        E 0 81 38 00
        E 360 91 31 60
        E 0 91 35 60
        E 0 91 38 60
        E 120 81 31 00
        E 0 81 35 00
        E 0 81 38 00
        E 360 91 31 60
        E 0 91 35 60
        E 0 91 38 60
        E 120 81 31 00
        E 0 81 35 00
        E 0 81 38 00
        E 360 91 31 60
        E 0 91 35 60
        E 0 91 38 60
        E 120 81 31 00
        E 0 81 35 00
        E 0 81 38 00
        E 360 91 30 60
        E 0 91 35 60
        E 0 91 39 60
        E 120 81 30 00
        E 0 81 35 00
        E 0 81 39 00
        E 360 91 30 60
        E 0 91 35 60
        E 0 91 39 60
        E 120 81 30 00
        E 0 81 35 00
        E 0 81 39 00
        E 360 91 30 60
        E 0 91 34 60
        E 0 91 39 60
        E 120 81 30 00
        E 0 81 34 00
        E 0 81 39 00
        E 360 91 30 60
        E 0 91 34 60
        E 0 91 39 60
        E 120 81 30 00
        E 0 81 34 00
        E 0 81 39 00
        E 360 90 30 60
        E 0 91 37 60
        E 0 91 3a 60
        E 120 80 30 00
        E 0 81 37 00
        E 0 81 3a 00
        E 360 90 30 60
        E 0 91 37 60
        E 0 91 3a 60
        E 120 80 30 00
        E 0 81 37 00
        E 0 81 3a 00
        E 360 90 30 60
        E 0 91 35 60
        E 0 91 3a 60
        E 120 80 30 00
        E 0 81 35 00
        E 0 81 3a 00
        E 360 90 30 60
        E 0 91 35 60
        E 0 91 3a 60
        E 120 80 30 00
        E 0 81 35 00
        E 0 81 3a 00
        E 120 90 3c 60
        E 120 80 3c 00
        E 120 91 30 60
        E 0 91 35 60
        E 0 91 37 60
        E 120 81 30 00
        E 0 81 35 00
        E 0 81 37 00
        E 360 91 30 60
        E 0 91 35 60
        E 0 91 37 60
        E 120 81 30 00
        E 0 81 35 00
        E 0 81 37 00
        E 360 91 30 60
        E 0 91 35 60
        E 0 91 37 60
        E 120 81 30 00
        E 0 81 35 00
        E 0 81 37 00
        E 360 91 30 60
        E 0 91 35 60
        E 0 91 37 60
        E 120 81 30 00
        E 0 81 35 00
        E 0 81 37 00
        E 360 91 31 60
        E 0 91 35 60
        E 0 91 38 60
        E 120 81 31 00
        E 0 81 35 00
        E 0 81 38 00
        E 360 91 31 60
        E 0 91 35 60
        E 0 91 38 60
        E 120 81 31 00
        E 0 81 35 00
        E 0 81 38 00
        E 360 91 31 60
        E 0 91 35 60
        E 0 91 38 60
        E 120 81 31 00
        E 0 81 35 00
        E 0 81 38 00
        E 360 91 31 60
        E 0 91 35 60
        E 0 91 38 60
        E 120 81 31 00
        E 0 81 35 00
        E 0 81 38 00
        E 360 91 35 60
        E 0 91 39 60
        E 0 91 3c 60
        E 120 81 35 00
        E 0 81 39 00
        E 0 81 3c 00
        E 360 91 35 60
        E 0 91 39 60
        E 0 91 3c 60
        E 120 81 35 00
        E 0 81 39 00
        E 0 81 3c 00
        E 360 91 34 60
        E 0 91 39 60
        E 0 91 3c 60
        E 120 81 34 00
        E 0 81 39 00
        E 0 81 3c 00
        E 360 91 34 60
        E 0 91 39 60
        E 0 91 3c 60
        E 120 81 34 00
        E 0 81 39 00
        E 0 81 3c 00
        E 360 90 04 60
        E 0 91 35 60
        E 0 91 38 60
        E 0 91 3c 60
        E 120 80 04 00
        E 0 81 35 00
        E 0 81 38 00
        E 0 81 3c 00
        E 360 91 35 60
        E 0 91 38 60
        E 0 91 3c 60
        E 120 81 35 00
        E 0 81 38 00
        E 0 81 3c 00
        E 360 91 35 60
        E 0 91 38 60
        E 0 91 3c 60
        E 120 81 35 00
        E 0 81 38 00
        E 0 81 3c 00
        E 360 91 35 60
        E 0 91 38 60
        E 0 91 3c 60
        E 120 81 35 00
        E 0 81 38 00
        E 0 81 3c 00
        E 360 90 74 60
        E 0 91 35 60
        E 120 81 35 00
        E 360 90 35 60
        E 0 91 41 60
        E 120 80 35 00
        E 0 81 41 00
        E 120 91 40 60
        E 120 81 40 00
        E 120 91 35 60
        E 120 81 35 00
        E 360 91 35 60
        E 120 81 35 00
        E 360 91 34 60
        E 120 80 74 00
        E 0 81 34 00
        E 120 91 35 60
        E 120 81 35 00
        E 120 90 34 60
        E 0 91 41 60
        E 120 80 34 00
        E 0 81 41 00
        E 120 91 40 60
        E 120 81 40 00
        E 120 91 34 60
        E 120 81 34 00
        E 360 91 34 60
        E 120 81 34 00
        E 360 91 38 60
        E 120 81 38 00
        E 360 90 38 60
        E 0 91 41 60
        E 120 80 38 00
        E 0 81 41 00
        E 120 91 40 60
        E 120 81 40 00
        E 120 91 38 60
        E 120 81 38 00
        E 360 91 38 60
        E 120 81 38 00
        E 360 91 37 60
        E 0 91 3b 60
        E 120 81 37 00
        E 0 81 3b 00
        E 360 91 37 60
        E 0 91 3b 60
        E 0 91 41 60
        E 120 81 37 00
        E 0 81 3b 00
        E 0 81 41 00
        E 360 91 36 60
        E 0 91 3a 60
        E 0 91 41 60
        E 120 81 36 00
        E 0 81 3a 00
        E 0 81 41 00
        E 360 91 36 60
        E 0 91 3a 60
        E 0 91 41 60
        E 120 81 36 00
        E 0 81 3a 00
        E 0 81 41 00
        <X 360 0
          /wFbYmVnaW5fa2V5IHNvbmdfdHJhaW5lcl9rZXlfNV0=
        >
        E 0 90 35 60
        E 0 91 41 60
        E 120 80 35 00
        E 0 81 41 00
        E 120 91 35 60
        E 120 81 35 00
        E 120 90 35 60
        E 0 91 41 60
        E 120 80 35 00
        E 0 81 41 00
        E 120 91 40 60
        E 120 81 40 00
        E 120 91 35 60
        E 120 81 35 00
        E 120 90 37 60
        E 120 80 37 00
        E 120 90 35 60
        E 0 90 38 60
        E 120 80 35 00
        E 0 80 38 00
        E 120 90 37 60
        E 120 80 37 00
        <X 120 0
          /wFba2V5X25vcm0gc29uZ190cmFpbmVyX2tleV81XQ==
        >
        E 0 91 34 60
        E 120 81 34 00
        E 120 91 34 60
        E 120 81 34 00
        E 120 90 34 60
        E 0 91 41 60
        E 120 80 34 00
        E 0 81 41 00
        E 120 91 40 60
        E 120 81 40 00
        E 120 91 34 60
        E 120 81 34 00
        E 120 91 37 60
        E 120 81 37 00
        E 120 90 34 60
        E 0 91 38 60
        E 120 80 34 00
        E 0 81 38 00
        E 120 91 3c 60
        E 120 81 3c 00
        E 120 91 38 60
        E 120 81 38 00
        E 360 91 35 60
        E 0 91 41 60
        E 120 81 35 00
        E 0 81 41 00
        E 120 91 34 60
        E 0 91 40 60
        E 120 81 34 00
        E 0 81 40 00
        E 120 90 35 60
        E 0 90 38 60
        E 120 80 35 00
        E 0 80 38 00
        E 120 90 37 60
        E 120 80 37 00
        E 120 90 38 60
        E 120 80 38 00
        E 120 90 3e 60
        E 120 80 3e 00
        E 120 91 37 60
        E 0 91 3b 60
        E 120 81 37 00
        E 0 81 3b 00
        E 360 91 37 60
        E 0 91 3b 60
        E 0 91 41 60
        E 120 81 37 00
        E 0 81 3b 00
        E 0 81 41 00
        E 360 91 36 60
        E 0 91 3a 60
        E 0 91 41 60
        E 120 81 36 00
        E 0 81 3a 00
        E 0 81 41 00
        E 360 91 36 60
        E 0 91 3a 60
        E 0 91 41 60
        E 120 81 36 00
        E 0 81 3a 00
        E 0 81 41 00
        <X 360 0
          /wFbZW5kX2tleSBzb25nX3RyYWluZXJfa2V5XzVd
        >
        E 0 91 35 60
        E 0 91 3c 60
        E 1919 81 35 00
        E 0 81 3c 00
        E 1920 b0 7b 00
        GUID {276A7C6A-42EC-46B6-80AB-42A71B04EA52}
        IGNTEMPO 0 120.00000000 4 4
        SRCCOLOR 5
        VELLANE 132 128 60
        COLORMAP "C:\Program Files\REAPER (x64)\Data\color_maps\rockband_guitarbass.png"
        CFGEDITVIEW -6368.141248 5.043858 0 13 0 0 0
        CFGEDIT 1 1 0 1 1 0 1 1 1 1 1 0.25000000 -8 -8 1544 872 0 2 1 1 0.00000000 0 1 1 0 0.500000 0 0 1.000000 64
        KEYSNAP 0 7 "102030050700" 0 "Pentatonic"
        EVTFILTER 0 -1 -1 -1 -1 0 1 0 0 -1.00000000 -1.00000000
      >
    >
  >
  <TRACK '{6FFCC9AF-24E3-4AA6-ABDE-1125BE012210}'
    NAME "PART REAL_KEYS_H"
    PEAKCOL 16576
    BEAT -1
    AUTOMODE 0
    VOLPAN 1.00000000000000 0.00000000000000 -1.00000000000000 -1.00000000000000 1.00000000000000
    MUTESOLO 0 0 0
    IPHASE 0
    ISBUS 0 0
    BUSCOMP 0 0
    SHOWINMIX 1 0.666700 0.500000 1 0.500000 -1 -1 -1
    FREEMODE 0
    SEL 0
    REC 0 0 0 0 0 0 0
    VU 2
    TRACKHEIGHT 0 0
    INQ 0 0 0 0.5000000000 100 0 0 100
    NCHAN 2
    FX 1
    TRACKID {6FFCC9AF-24E3-4AA6-ABDE-1125BE012210}
    PERF 0
    MIDIOUT -1
    <MIDINOTENAMES
      0 72 "Highest playable note B#3"
      0 71 "B3"
      0 70 "A#3"
      0 69 "A3"
      0 68 "G#3"
      0 67 "G3"
      0 66 "F#3"
      0 65 "F3"
      0 64 "E3"
      0 63 "D#3"
      0 62 "D3"
      0 61 "C#3"
      0 60 "C3"
      0 59 "B2"
      0 58 "A#2"
      0 57 "A2"
      0 56 "G#2"
      0 55 "G2"
      0 54 "F#2"
      0 53 "F2"
      0 52 "E2"
      0 51 "D#2"
      0 50 "D2"
      0 49 "C#2"
      0 48 "Lowest playable note C2"
      0 10 "---"
      0 9 "Range A2-C4"
      0 8 "Range"
      0 7 "Range"
      0 6 "Range"
      0 5 "Range F2-A3"
      0 4 "Range"
      0 3 "Range"
      0 2 "Range"
      0 1 "Range"
      0 0 "Range C2-E3"
    >
    MAINSEND 1 0
    <FXCHAIN
      SHOW 0
      LASTSEL 0
      DOCKED 0
    >
    <ITEM
      POSITION 0.00000000000000
      SNAPOFFS 0.00000000000000
      LENGTH 222.64699999999999
      LOOP 0
      ALLTAKES 0
      SEL 0
      FADEIN 1 0.000000 0.000000 1 0
      FADEOUT 1 0.000000 0.000000 1 0
      MUTE 0
      IGUID {3DFF9B1A-7A5D-4B19-8FC3-4B9B74C20F54}
      IID 4
      NAME "PART REAL_KEYS_H"
      VOLPAN 1.000000 0.000000 1.000000 -1.000000
      SOFFS 0.00000000000000 0.00000000000000
      PLAYRATE 1.00000000000000 1 0.00000000000000 -1
      CHANMODE 0
      GUID {D5373D70-73CF-488C-AB51-0D51B2507C51}
      <SOURCE MIDI
        HASDATA 1 480 QN
        POOLEDEVTS {022FAD48-5E96-4555-96D8-58F67021CF1C}
        <X 0 0
          /wNQQVJUIFJFQUxfS0VZU19I
        >
        E 0 90 00 60
        E 120 80 00 00
        E 1800 91 30 60
        E 0 91 37 60
        E 120 81 30 00
        E 0 81 37 00
        E 360 91 30 60
        E 0 91 37 60
        E 120 81 30 00
        E 0 81 37 00
        E 360 91 30 60
        E 0 91 37 60
        E 120 81 30 00
        E 0 81 37 00
        E 360 91 30 60
        E 0 91 37 60
        E 120 81 30 00
        E 0 81 37 00
        E 360 91 31 60
        E 0 91 38 60
        E 120 81 31 00
        E 0 81 38 00
        E 360 91 31 60
        E 0 91 38 60
        E 120 81 31 00
        E 0 81 38 00
        E 360 91 31 60
        E 0 91 38 60
        E 120 81 31 00
        E 0 81 38 00
        E 360 91 31 60
        E 0 91 38 60
        E 120 81 31 00
        E 0 81 38 00
        E 360 91 35 60
        E 0 91 3c 60
        E 120 81 35 00
        E 0 81 3c 00
        E 360 91 35 60
        E 0 91 3c 60
        E 120 81 35 00
        E 0 81 3c 00
        E 360 91 34 60
        E 0 91 3c 60
        E 120 81 34 00
        E 0 81 3c 00
        E 360 91 34 60
        E 0 91 3c 60
        E 120 81 34 00
        E 0 81 3c 00
        E 360 90 3c 60
        E 0 91 37 60
        E 120 80 3c 00
        E 0 81 37 00
        E 360 90 3c 60
        E 0 91 37 60
        E 120 80 3c 00
        E 0 81 37 00
        E 360 90 3c 60
        E 0 91 35 60
        E 120 80 3c 00
        E 0 81 35 00
        E 360 90 3c 60
        E 0 91 35 60
        E 120 80 3c 00
        E 0 81 35 00
        E 360 91 30 60
        E 0 91 37 60
        E 120 81 30 00
        E 0 81 37 00
        E 360 91 30 60
        E 0 91 37 60
        E 120 81 30 00
        E 0 81 37 00
        E 360 91 30 60
        E 0 91 37 60
        E 120 81 30 00
        E 0 81 37 00
        E 360 91 30 60
        E 0 91 37 60
        E 120 81 30 00
        E 0 81 37 00
        E 360 91 31 60
        E 0 91 38 60
        E 120 81 31 00
        E 0 81 38 00
        E 360 91 31 60
        E 0 91 38 60
        E 120 81 31 00
        E 0 81 38 00
        E 360 91 31 60
        E 0 91 38 60
        E 120 81 31 00
        E 0 81 38 00
        E 360 91 31 60
        E 0 91 38 60
        E 120 81 31 00
        E 0 81 38 00
        E 360 91 35 60
        E 0 91 3c 60
        E 120 81 35 00
        E 0 81 3c 00
        E 360 91 35 60
        E 0 91 3c 60
        E 120 81 35 00
        E 0 81 3c 00
        E 360 91 34 60
        E 0 91 3c 60
        E 120 81 34 00
        E 0 81 3c 00
        E 360 91 34 60
        E 0 91 3c 60
        E 120 81 34 00
        E 0 81 3c 00
        E 360 90 3c 60
        E 0 91 37 60
        E 120 80 3c 00
        E 0 81 37 00
        E 360 90 3c 60
        E 0 91 37 60
        E 120 80 3c 00
        E 0 81 37 00
        E 360 90 3c 60
        E 0 91 35 60
        E 120 80 3c 00
        E 0 81 35 00
        E 360 90 3c 60
        E 0 91 35 60
        E 120 80 3c 00
        E 0 81 35 00
        E 360 91 30 60
        E 0 91 37 60
        E 120 81 30 00
        E 0 81 37 00
        E 360 91 30 60
        E 0 91 37 60
        E 120 81 30 00
        E 0 81 37 00
        E 360 91 30 60
        E 0 91 37 60
        E 120 81 30 00
        E 0 81 37 00
        E 360 91 30 60
        E 0 91 37 60
        E 120 81 30 00
        E 0 81 37 00
        E 360 91 31 60
        E 0 91 38 60
        E 120 81 31 00
        E 0 81 38 00
        E 360 91 31 60
        E 0 91 38 60
        E 120 81 31 00
        E 0 81 38 00
        E 360 91 31 60
        E 0 91 38 60
        E 120 81 31 00
        E 0 81 38 00
        E 360 91 31 60
        E 0 91 38 60
        E 120 81 31 00
        E 0 81 38 00
        E 360 91 35 60
        E 0 91 3c 60
        E 120 81 35 00
        E 0 81 3c 00
        E 360 91 35 60
        E 0 91 3c 60
        E 120 81 35 00
        E 0 81 3c 00
        E 360 91 34 60
        E 0 91 3c 60
        E 120 81 34 00
        E 0 81 3c 00
        E 360 91 34 60
        E 0 91 3c 60
        E 120 81 34 00
        E 0 81 3c 00
        E 360 90 3c 60
        E 0 91 37 60
        E 120 80 3c 00
        E 0 81 37 00
        E 360 90 3c 60
        E 0 91 37 60
        E 120 80 3c 00
        E 0 81 37 00
        E 360 90 3c 60
        E 0 91 35 60
        E 120 80 3c 00
        E 0 81 35 00
        E 360 90 3c 60
        E 0 91 35 60
        E 120 80 3c 00
        E 0 81 35 00
        E 360 91 30 60
        E 0 91 37 60
        E 120 81 30 00
        E 0 81 37 00
        E 360 91 30 60
        E 0 91 37 60
        E 120 81 30 00
        E 0 81 37 00
        E 360 91 30 60
        E 0 91 37 60
        E 120 81 30 00
        E 0 81 37 00
        E 360 91 30 60
        E 0 91 37 60
        E 120 81 30 00
        E 0 81 37 00
        E 360 91 31 60
        E 0 91 38 60
        E 120 81 31 00
        E 0 81 38 00
        E 360 91 31 60
        E 0 91 38 60
        E 120 81 31 00
        E 0 81 38 00
        E 360 91 31 60
        E 0 91 38 60
        E 120 81 31 00
        E 0 81 38 00
        E 360 91 31 60
        E 0 91 38 60
        E 120 81 31 00
        E 0 81 38 00
        E 360 91 35 60
        E 0 91 3c 60
        E 120 81 35 00
        E 0 81 3c 00
        E 360 91 35 60
        E 0 91 3c 60
        E 120 81 35 00
        E 0 81 3c 00
        E 360 91 34 60
        E 0 91 3c 60
        E 120 81 34 00
        E 0 81 3c 00
        E 360 91 34 60
        E 0 91 3c 60
        E 120 81 34 00
        E 0 81 3c 00
        E 360 90 04 60
        E 0 91 35 60
        E 0 91 3c 60
        E 120 80 04 00
        E 0 81 35 00
        E 0 81 3c 00
        E 360 91 35 60
        E 0 91 3c 60
        E 120 81 35 00
        E 0 81 3c 00
        E 360 91 35 60
        E 0 91 3c 60
        E 120 81 35 00
        E 0 81 3c 00
        E 360 91 35 60
        E 0 91 3c 60
        E 120 81 35 00
        E 0 81 3c 00
        E 360 91 35 60
        E 120 81 35 00
        E 360 91 41 60
        E 120 81 41 00
        E 120 91 40 60
        E 120 81 40 00
        E 120 91 35 60
        E 120 81 35 00
        E 360 91 35 60
        E 120 81 35 00
        E 360 91 34 60
        E 120 81 34 00
        E 360 91 41 60
        E 120 81 41 00
        E 120 91 40 60
        E 120 81 40 00
        E 120 91 34 60
        E 120 81 34 00
        E 360 91 34 60
        E 120 81 34 00
        E 360 91 38 60
        E 120 81 38 00
        E 360 91 41 60
        E 120 81 41 00
        E 120 91 40 60
        E 120 81 40 00
        E 120 91 38 60
        E 120 81 38 00
        E 360 91 38 60
        E 120 81 38 00
        E 360 91 37 60
        E 0 91 3b 60
        E 120 81 37 00
        E 0 81 3b 00
        E 360 91 37 60
        E 0 91 3b 60
        E 120 81 37 00
        E 0 81 3b 00
        E 360 91 36 60
        E 0 91 3a 60
        E 120 81 36 00
        E 0 81 3a 00
        E 360 91 36 60
        E 0 91 3a 60
        E 120 81 36 00
        E 0 81 3a 00
        E 360 91 41 60
        E 120 81 41 00
        E 360 91 41 60
        E 120 81 41 00
        E 120 91 40 60
        E 120 81 40 00
        E 120 91 35 60
        E 120 81 35 00
        E 360 91 35 60
        E 120 81 35 00
        E 360 91 34 60
        E 120 81 34 00
        E 360 91 41 60
        E 120 81 41 00
        E 120 91 40 60
        E 120 81 40 00
        E 120 91 34 60
        E 120 81 34 00
        E 120 91 37 60
        E 120 81 37 00
        E 120 91 38 60
        E 120 81 38 00
        E 120 91 3c 60
        E 120 81 3c 00
        E 120 91 38 60
        E 120 81 38 00
        E 360 91 35 60
        E 0 91 41 60
        E 120 81 35 00
        E 0 81 41 00
        E 120 91 34 60
        E 0 91 40 60
        E 120 81 34 00
        E 0 81 40 00
        E 120 91 38 60
        E 120 81 38 00
        E 360 91 38 60
        E 120 81 38 00
        E 360 91 37 60
        E 0 91 3b 60
        E 120 81 37 00
        E 0 81 3b 00
        E 360 91 37 60
        E 0 91 3b 60
        E 120 81 37 00
        E 0 81 3b 00
        E 360 91 36 60
        E 0 91 3a 60
        E 120 81 36 00
        E 0 81 3a 00
        E 360 91 36 60
        E 0 91 3a 60
        E 120 81 36 00
        E 0 81 3a 00
        E 360 90 00 60
        E 0 91 37 60
        E 0 91 3c 60
        E 120 80 00 00
        E 0 81 37 00
        E 0 81 3c 00
        E 360 91 37 60
        E 0 91 3c 60
        E 120 81 37 00
        E 0 81 3c 00
        E 360 91 37 60
        E 0 91 3c 60
        E 120 81 37 00
        E 0 81 3c 00
        E 360 91 37 60
        E 0 91 3c 60
        E 120 81 37 00
        E 0 81 3c 00
        E 360 91 31 60
        E 0 91 38 60
        E 120 81 31 00
        E 0 81 38 00
        E 360 91 31 60
        E 0 91 38 60
        E 120 81 31 00
        E 0 81 38 00
        E 360 91 31 60
        E 0 91 38 60
        E 120 81 31 00
        E 0 81 38 00
        E 360 91 31 60
        E 0 91 38 60
        E 120 81 31 00
        E 0 81 38 00
        E 360 91 30 60
        E 0 91 35 60
        E 120 81 30 00
        E 0 81 35 00
        E 360 91 30 60
        E 0 91 35 60
        E 120 81 30 00
        E 0 81 35 00
        E 360 91 30 60
        E 0 91 34 60
        E 120 81 30 00
        E 0 81 34 00
        E 360 91 30 60
        E 0 91 34 60
        E 120 81 30 00
        E 0 81 34 00
        E 360 90 30 60
        E 0 91 37 60
        E 120 80 30 00
        E 0 81 37 00
        E 360 90 30 60
        E 0 91 37 60
        E 120 80 30 00
        E 0 81 37 00
        E 360 90 30 60
        E 0 91 35 60
        E 120 80 30 00
        E 0 81 35 00
        E 360 90 30 60
        E 0 91 35 60
        E 120 80 30 00
        E 0 81 35 00
        E 120 90 3c 60
        E 120 80 3c 00
        E 120 91 30 60
        E 0 91 37 60
        E 120 81 30 00
        E 0 81 37 00
        E 360 91 30 60
        E 0 91 37 60
        E 120 81 30 00
        E 0 81 37 00
        E 360 91 30 60
        E 0 91 37 60
        E 120 81 30 00
        E 0 81 37 00
        E 360 91 30 60
        E 0 91 37 60
        E 120 81 30 00
        E 0 81 37 00
        E 360 91 31 60
        E 0 91 38 60
        E 120 81 31 00
        E 0 81 38 00
        E 360 91 31 60
        E 0 91 38 60
        E 120 81 31 00
        E 0 81 38 00
        E 360 91 31 60
        E 0 91 38 60
        E 120 81 31 00
        E 0 81 38 00
        E 360 91 31 60
        E 0 91 38 60
        E 120 81 31 00
        E 0 81 38 00
        E 360 91 30 60
        E 0 91 35 60
        E 120 81 30 00
        E 0 81 35 00
        E 360 91 30 60
        E 0 91 35 60
        E 120 81 30 00
        E 0 81 35 00
        E 360 91 30 60
        E 0 91 34 60
        E 120 81 30 00
        E 0 81 34 00
        E 360 91 30 60
        E 0 91 34 60
        E 120 81 30 00
        E 0 81 34 00
        E 360 90 30 60
        E 0 91 37 60
        E 120 80 30 00
        E 0 81 37 00
        E 360 90 30 60
        E 0 91 37 60
        E 120 80 30 00
        E 0 81 37 00
        E 360 90 30 60
        E 0 91 35 60
        E 120 80 30 00
        E 0 81 35 00
        E 360 90 30 60
        E 0 91 35 60
        E 120 80 30 00
        E 0 81 35 00
        E 120 90 3c 60
        E 120 80 3c 00
        E 120 91 30 60
        E 0 91 37 60
        E 120 81 30 00
        E 0 81 37 00
        E 360 91 30 60
        E 0 91 37 60
        E 120 81 30 00
        E 0 81 37 00
        E 360 91 30 60
        E 0 91 37 60
        E 120 81 30 00
        E 0 81 37 00
        E 360 91 30 60
        E 0 91 37 60
        E 120 81 30 00
        E 0 81 37 00
        E 360 91 31 60
        E 0 91 38 60
        E 120 81 31 00
        E 0 81 38 00
        E 360 91 31 60
        E 0 91 38 60
        E 120 81 31 00
        E 0 81 38 00
        E 360 91 31 60
        E 0 91 38 60
        E 120 81 31 00
        E 0 81 38 00
        E 360 91 31 60
        E 0 91 38 60
        E 120 81 31 00
        E 0 81 38 00
        E 360 91 30 60
        E 0 91 35 60
        E 120 81 30 00
        E 0 81 35 00
        E 360 91 30 60
        E 0 91 35 60
        E 120 81 30 00
        E 0 81 35 00
        E 360 91 30 60
        E 0 91 34 60
        E 120 81 30 00
        E 0 81 34 00
        E 360 91 30 60
        E 0 91 34 60
        E 120 81 30 00
        E 0 81 34 00
        E 360 90 30 60
        E 0 91 37 60
        E 120 80 30 00
        E 0 81 37 00
        E 360 90 30 60
        E 0 91 37 60
        E 120 80 30 00
        E 0 81 37 00
        E 360 90 30 60
        E 0 91 35 60
        E 120 80 30 00
        E 0 81 35 00
        E 360 90 30 60
        E 0 91 35 60
        E 120 80 30 00
        E 0 81 35 00
        E 120 90 3c 60
        E 120 80 3c 00
        E 120 91 30 60
        E 0 91 37 60
        E 120 81 30 00
        E 0 81 37 00
        E 360 91 30 60
        E 0 91 37 60
        E 120 81 30 00
        E 0 81 37 00
        E 360 91 30 60
        E 0 91 37 60
        E 120 81 30 00
        E 0 81 37 00
        E 360 91 30 60
        E 0 91 37 60
        E 120 81 30 00
        E 0 81 37 00
        E 360 91 31 60
        E 0 91 38 60
        E 120 81 31 00
        E 0 81 38 00
        E 360 91 31 60
        E 0 91 38 60
        E 120 81 31 00
        E 0 81 38 00
        E 360 91 31 60
        E 0 91 38 60
        E 120 81 31 00
        E 0 81 38 00
        E 360 91 31 60
        E 0 91 38 60
        E 120 81 31 00
        E 0 81 38 00
        E 360 91 35 60
        E 0 91 39 60
        E 120 81 35 00
        E 0 81 39 00
        E 360 91 35 60
        E 0 91 39 60
        E 120 81 35 00
        E 0 81 39 00
        E 360 91 34 60
        E 0 91 39 60
        E 120 81 34 00
        E 0 81 39 00
        E 360 91 34 60
        E 0 91 39 60
        E 120 81 34 00
        E 0 81 39 00
        E 360 90 04 60
        E 0 91 35 60
        E 0 91 38 60
        E 120 80 04 00
        E 0 81 35 00
        E 0 81 38 00
        E 360 91 35 60
        E 0 91 38 60
        E 120 81 35 00
        E 0 81 38 00
        E 360 91 35 60
        E 0 91 38 60
        E 120 81 35 00
        E 0 81 38 00
        E 360 91 35 60
        E 0 91 38 60
        E 120 81 35 00
        E 0 81 38 00
        E 360 91 35 60
        E 120 81 35 00
        E 360 91 41 60
        E 120 81 41 00
        E 120 91 40 60
        E 120 81 40 00
        E 120 91 35 60
        E 120 81 35 00
        E 360 91 35 60
        E 120 81 35 00
        E 360 91 34 60
        E 120 81 34 00
        E 360 91 41 60
        E 120 81 41 00
        E 120 91 40 60
        E 120 81 40 00
        E 120 91 34 60
        E 120 81 34 00
        E 360 91 34 60
        E 120 81 34 00
        E 360 91 38 60
        E 120 81 38 00
        E 360 91 41 60
        E 120 81 41 00
        E 120 91 40 60
        E 120 81 40 00
        E 120 91 38 60
        E 120 81 38 00
        E 360 91 38 60
        E 120 81 38 00
        E 360 91 3b 60
        E 120 81 3b 00
        E 360 91 3b 60
        E 0 91 41 60
        E 120 81 3b 00
        E 0 81 41 00
        E 360 91 3a 60
        E 0 91 41 60
        E 120 81 3a 00
        E 0 81 41 00
        E 360 91 3a 60
        E 0 91 41 60
        E 120 81 3a 00
        E 0 81 41 00
        E 360 91 41 60
        E 120 81 41 00
        E 360 91 41 60
        E 120 81 41 00
        E 120 91 40 60
        E 120 81 40 00
        E 120 91 35 60
        E 120 81 35 00
        E 120 90 37 60
        E 120 80 37 00
        E 120 90 38 60
        E 120 80 38 00
        E 120 90 37 60
        E 120 80 37 00
        E 120 91 34 60
        E 120 81 34 00
        E 360 91 41 60
        E 120 81 41 00
        E 120 91 40 60
        E 120 81 40 00
        E 120 91 34 60
        E 120 81 34 00
        E 120 91 37 60
        E 120 81 37 00
        E 120 91 38 60
        E 120 81 38 00
        E 120 91 3c 60
        E 120 81 3c 00
        E 120 91 38 60
        E 120 81 38 00
        E 360 91 35 60
        E 0 91 41 60
        E 120 81 35 00
        E 0 81 41 00
        E 120 91 34 60
        E 0 91 40 60
        E 120 81 34 00
        E 0 81 40 00
        E 120 90 35 60
        E 120 80 35 00
        E 120 90 37 60
        E 120 80 37 00
        E 120 90 38 60
        E 120 80 38 00
        E 120 90 3e 60
        E 120 80 3e 00
        E 120 91 3b 60
        E 120 81 3b 00
        E 360 91 3b 60
        E 0 91 41 60
        E 120 81 3b 00
        E 0 81 41 00
        E 360 91 3a 60
        E 0 91 41 60
        E 120 81 3a 00
        E 0 81 41 00
        E 360 91 3a 60
        E 0 91 41 60
        E 120 81 3a 00
        E 0 81 41 00
        E 360 91 35 60
        E 0 91 3c 60
        E 1919 81 35 00
        E 0 81 3c 00
        E 1920 b0 7b 00
        GUID {A0F3584E-F772-42CF-9489-4B726F098C3C}
        IGNTEMPO 0 120.00000000 4 4
        SRCCOLOR 6
        VELLANE 132 128 60
        COLORMAP "C:\Program Files\REAPER (x64)\Data\color_maps\rockband_guitarbass.png"
        CFGEDITVIEW -6368.141248 5.043858 0 15 0 0 0
        CFGEDIT 1 1 0 1 1 0 1 1 1 1 1 0.25000000 -8 -8 1544 872 0 2 1 1 0.00000000 0 1 1 0 0.500000 0 0 1.000000 64
        KEYSNAP 0 7 "102030050700" 0 "Pentatonic"
        EVTFILTER 0 -1 -1 -1 -1 0 1 0 0 -1.00000000 -1.00000000
      >
    >
  >
  <TRACK '{1987A5F4-5290-4D55-8F90-69D31EF08BDD}'
    NAME "PART REAL_KEYS_M"
    PEAKCOL 16576
    BEAT -1
    AUTOMODE 0
    VOLPAN 1.00000000000000 0.00000000000000 -1.00000000000000 -1.00000000000000 1.00000000000000
    MUTESOLO 0 0 0
    IPHASE 0
    ISBUS 0 0
    BUSCOMP 0 0
    SHOWINMIX 1 0.666700 0.500000 1 0.500000 -1 -1 -1
    FREEMODE 0
    SEL 0
    REC 0 0 0 0 0 0 0
    VU 2
    TRACKHEIGHT 0 0
    INQ 0 0 0 0.5000000000 100 0 0 100
    NCHAN 2
    FX 1
    TRACKID {1987A5F4-5290-4D55-8F90-69D31EF08BDD}
    PERF 0
    MIDIOUT -1
    <MIDINOTENAMES
      0 72 "Highest playable note B#3"
      0 71 "B3"
      0 70 "A#3"
      0 69 "A3"
      0 68 "G#3"
      0 67 "G3"
      0 66 "F#3"
      0 65 "F3"
      0 64 "E3"
      0 63 "D#3"
      0 62 "D3"
      0 61 "C#3"
      0 60 "C3"
      0 59 "B2"
      0 58 "A#2"
      0 57 "A2"
      0 56 "G#2"
      0 55 "G2"
      0 54 "F#2"
      0 53 "F2"
      0 52 "E2"
      0 51 "D#2"
      0 50 "D2"
      0 49 "C#2"
      0 48 "Lowest playable note C2"
      0 10 "---"
      0 9 "Range A2-C4"
      0 8 "Range"
      0 7 "Range"
      0 6 "Range"
      0 5 "Range F2-A3"
      0 4 "Range"
      0 3 "Range"
      0 2 "Range"
      0 1 "Range"
      0 0 "Range C2-E3"
    >
    MAINSEND 1 0
    <FXCHAIN
      SHOW 0
      LASTSEL 0
      DOCKED 0
    >
    <ITEM
      POSITION 0.00000000000000
      SNAPOFFS 0.00000000000000
      LENGTH 222.64699999999999
      LOOP 0
      ALLTAKES 0
      SEL 0
      FADEIN 1 0.000000 0.000000 1 0
      FADEOUT 1 0.000000 0.000000 1 0
      MUTE 0
      IGUID {787A5AF6-345E-4435-82F0-9D721D1F79AE}
      IID 5
      NAME "PART REAL_KEYS_M"
      VOLPAN 1.000000 0.000000 1.000000 -1.000000
      SOFFS 0.00000000000000 0.00000000000000
      PLAYRATE 1.00000000000000 1 0.00000000000000 -1
      CHANMODE 0
      GUID {735DBE86-FEFD-45D6-829C-0BED8E687320}
      <SOURCE MIDI
        HASDATA 1 480 QN
        POOLEDEVTS {439731F5-EDA8-4BAA-990E-55FE8A46EB40}
        <X 0 0
          /wNQQVJUIFJFQUxfS0VZU19N
        >
        E 0 90 00 60
        E 120 80 00 00
        E 1800 91 30 60
        E 0 91 37 60
        E 120 81 30 00
        E 0 81 37 00
        E 840 91 30 60
        E 0 91 37 60
        E 120 81 30 00
        E 0 81 37 00
        E 840 91 31 60
        E 0 91 38 60
        E 120 81 31 00
        E 0 81 38 00
        E 840 91 31 60
        E 0 91 38 60
        E 120 81 31 00
        E 0 81 38 00
        E 840 91 35 60
        E 120 81 35 00
        E 360 91 35 60
        E 120 81 35 00
        E 360 91 34 60
        E 120 81 34 00
        E 360 91 34 60
        E 120 81 34 00
        E 360 91 37 60
        E 120 81 37 00
        E 360 91 37 60
        E 120 81 37 00
        E 360 91 35 60
        E 120 81 35 00
        E 360 91 35 60
        E 120 81 35 00
        E 360 91 30 60
        E 0 91 37 60
        E 120 81 30 00
        E 0 81 37 00
        E 840 91 30 60
        E 0 91 37 60
        E 120 81 30 00
        E 0 81 37 00
        E 840 91 31 60
        E 0 91 38 60
        E 120 81 31 00
        E 0 81 38 00
        E 840 91 31 60
        E 0 91 38 60
        E 120 81 31 00
        E 0 81 38 00
        E 840 91 35 60
        E 120 81 35 00
        E 360 91 35 60
        E 120 81 35 00
        E 360 91 34 60
        E 120 81 34 00
        E 360 91 34 60
        E 120 81 34 00
        E 360 91 37 60
        E 120 81 37 00
        E 360 91 37 60
        E 120 81 37 00
        E 360 91 35 60
        E 120 81 35 00
        E 360 91 35 60
        E 120 81 35 00
        E 360 91 30 60
        E 0 91 37 60
        E 120 81 30 00
        E 0 81 37 00
        E 840 91 30 60
        E 0 91 37 60
        E 120 81 30 00
        E 0 81 37 00
        E 840 91 31 60
        E 0 91 38 60
        E 120 81 31 00
        E 0 81 38 00
        E 840 91 31 60
        E 0 91 38 60
        E 120 81 31 00
        E 0 81 38 00
        E 840 91 35 60
        E 120 81 35 00
        E 360 91 35 60
        E 120 81 35 00
        E 360 91 34 60
        E 120 81 34 00
        E 360 91 34 60
        E 120 81 34 00
        E 360 91 37 60
        E 120 81 37 00
        E 360 91 37 60
        E 120 81 37 00
        E 360 91 35 60
        E 120 81 35 00
        E 360 91 35 60
        E 120 81 35 00
        E 360 91 30 60
        E 0 91 37 60
        E 120 81 30 00
        E 0 81 37 00
        E 840 91 30 60
        E 0 91 37 60
        E 120 81 30 00
        E 0 81 37 00
        E 840 91 31 60
        E 0 91 38 60
        E 120 81 31 00
        E 0 81 38 00
        E 840 91 31 60
        E 0 91 38 60
        E 120 81 31 00
        E 0 81 38 00
        E 840 91 35 60
        E 120 81 35 00
        E 360 91 35 60
        E 120 81 35 00
        E 360 91 34 60
        E 120 81 34 00
        E 360 91 34 60
        E 120 81 34 00
        E 360 91 35 60
        E 0 91 3c 60
        E 120 81 35 00
        E 0 81 3c 00
        E 360 91 35 60
        E 0 91 3c 60
        E 120 81 35 00
        E 0 81 3c 00
        E 360 91 35 60
        E 0 91 3c 60
        E 120 81 35 00
        E 0 81 3c 00
        E 360 91 35 60
        E 0 91 3c 60
        E 120 81 35 00
        E 0 81 3c 00
        E 840 91 35 60
        E 120 81 35 00
        E 120 91 34 60
        E 120 81 34 00
        E 1560 91 35 60
        E 120 81 35 00
        E 120 91 34 60
        E 120 81 34 00
        E 1560 91 35 60
        E 120 81 35 00
        E 120 91 34 60
        E 120 81 34 00
        E 1080 91 37 60
        E 0 91 3b 60
        E 120 81 37 00
        E 0 81 3b 00
        E 840 91 36 60
        E 0 91 3a 60
        E 120 81 36 00
        E 0 81 3a 00
        E 840 91 35 60
        E 120 81 35 00
        E 360 91 35 60
        E 120 81 35 00
        E 120 91 34 60
        E 120 81 34 00
        E 1080 91 34 60
        E 120 81 34 00
        E 360 91 35 60
        E 120 81 35 00
        E 120 91 34 60
        E 120 81 34 00
        E 120 91 34 60
        E 120 81 34 00
        E 360 91 38 60
        E 120 81 38 00
        E 120 91 3c 60
        E 120 81 3c 00
        E 120 91 38 60
        E 120 81 38 00
        E 360 91 35 60
        E 120 81 35 00
        E 120 91 34 60
        E 120 81 34 00
        E 1080 91 37 60
        E 0 91 3b 60
        E 120 81 37 00
        E 0 81 3b 00
        E 840 91 36 60
        E 0 91 3a 60
        E 120 81 36 00
        E 0 81 3a 00
        E 840 91 30 60
        E 0 91 37 60
        E 120 81 30 00
        E 0 81 37 00
        E 840 91 30 60
        E 0 91 37 60
        E 120 81 30 00
        E 0 81 37 00
        E 840 91 31 60
        E 0 91 38 60
        E 120 81 31 00
        E 0 81 38 00
        E 840 91 31 60
        E 0 91 38 60
        E 120 81 31 00
        E 0 81 38 00
        E 840 91 35 60
        E 120 81 35 00
        E 360 91 35 60
        E 120 81 35 00
        E 360 91 34 60
        E 120 81 34 00
        E 360 91 34 60
        E 120 81 34 00
        E 360 91 37 60
        E 120 81 37 00
        E 360 91 37 60
        E 120 81 37 00
        E 360 91 35 60
        E 120 81 35 00
        E 360 91 35 60
        E 120 81 35 00
        E 120 90 3c 60
        E 120 80 3c 00
        E 120 91 30 60
        E 0 91 37 60
        E 120 81 30 00
        E 0 81 37 00
        E 840 91 30 60
        E 0 91 37 60
        E 120 81 30 00
        E 0 81 37 00
        E 840 91 31 60
        E 0 91 38 60
        E 120 81 31 00
        E 0 81 38 00
        E 840 91 31 60
        E 0 91 38 60
        E 120 81 31 00
        E 0 81 38 00
        E 840 91 35 60
        E 120 81 35 00
        E 360 91 35 60
        E 120 81 35 00
        E 360 91 34 60
        E 120 81 34 00
        E 360 91 34 60
        E 120 81 34 00
        E 360 91 37 60
        E 120 81 37 00
        E 360 91 37 60
        E 120 81 37 00
        E 360 91 35 60
        E 120 81 35 00
        E 600 90 3c 60
        E 120 80 3c 00
        E 120 91 30 60
        E 0 91 37 60
        E 120 81 30 00
        E 0 81 37 00
        E 840 91 30 60
        E 0 91 37 60
        E 120 81 30 00
        E 0 81 37 00
        E 840 91 31 60
        E 0 91 38 60
        E 120 81 31 00
        E 0 81 38 00
        E 840 91 31 60
        E 0 91 38 60
        E 120 81 31 00
        E 0 81 38 00
        E 840 91 35 60
        E 120 81 35 00
        E 360 91 35 60
        E 120 81 35 00
        E 360 91 34 60
        E 120 81 34 00
        E 360 91 34 60
        E 120 81 34 00
        E 360 91 37 60
        E 120 81 37 00
        E 360 91 37 60
        E 120 81 37 00
        E 360 91 35 60
        E 120 81 35 00
        E 360 91 35 60
        E 120 81 35 00
        E 120 90 3c 60
        E 120 80 3c 00
        E 120 91 30 60
        E 0 91 37 60
        E 120 81 30 00
        E 0 81 37 00
        E 840 91 30 60
        E 0 91 37 60
        E 120 81 30 00
        E 0 81 37 00
        E 840 91 31 60
        E 0 91 38 60
        E 120 81 31 00
        E 0 81 38 00
        E 840 91 31 60
        E 0 91 38 60
        E 120 81 31 00
        E 0 81 38 00
        E 840 91 35 60
        E 120 81 35 00
        E 360 91 35 60
        E 120 81 35 00
        E 360 91 34 60
        E 120 81 34 00
        E 360 91 34 60
        E 120 81 34 00
        E 360 91 35 60
        E 0 91 3c 60
        E 120 81 35 00
        E 0 81 3c 00
        E 360 91 35 60
        E 0 91 3c 60
        E 120 81 35 00
        E 0 81 3c 00
        E 360 91 35 60
        E 0 91 3c 60
        E 120 81 35 00
        E 0 81 3c 00
        E 360 91 35 60
        E 0 91 3c 60
        E 120 81 35 00
        E 0 81 3c 00
        E 840 91 35 60
        E 120 81 35 00
        E 120 91 34 60
        E 120 81 34 00
        E 1560 91 35 60
        E 120 81 35 00
        E 120 91 34 60
        E 120 81 34 00
        E 1560 91 35 60
        E 120 81 35 00
        E 120 91 34 60
        E 120 81 34 00
        E 1560 91 35 60
        E 120 81 35 00
        E 360 91 35 60
        E 120 81 35 00
        E 360 91 35 60
        E 120 81 35 00
        E 360 91 35 60
        E 120 81 35 00
        E 360 91 35 60
        E 120 81 35 00
        E 120 91 34 60
        E 120 81 34 00
        E 120 91 35 60
        E 120 81 35 00
        E 360 90 38 60
        E 120 80 38 00
        E 120 90 37 60
        E 120 80 37 00
        E 600 91 35 60
        E 120 81 35 00
        E 120 91 34 60
        E 120 81 34 00
        E 120 91 34 60
        E 120 81 34 00
        E 360 91 38 60
        E 120 81 38 00
        E 120 91 3c 60
        E 120 81 3c 00
        E 120 91 38 60
        E 120 81 38 00
        E 360 91 35 60
        E 120 81 35 00
        E 120 91 34 60
        E 120 81 34 00
        E 120 90 35 60
        E 120 80 35 00
        E 360 90 38 60
        E 120 80 38 00
        E 120 90 3e 60
        E 120 80 3e 00
        E 120 91 3b 60
        E 120 81 3b 00
        E 360 91 35 60
        E 120 81 35 00
        E 360 91 35 60
        E 120 81 35 00
        E 360 91 35 60
        E 120 81 35 00
        E 360 91 35 60
        E 0 91 3c 60
        E 1919 81 35 00
        E 0 81 3c 00
        E 1920 b0 7b 00
        GUID {DFAFF34D-4CCF-45D5-B027-5D7EE11B47BA}
        IGNTEMPO 0 120.00000000 4 4
        SRCCOLOR 7
        VELLANE 132 128 60
        COLORMAP "C:\Program Files\REAPER (x64)\Data\color_maps\rockband_guitarbass.png"
        CFGEDITVIEW -6368.141248 5.043858 0 15 0 0 0
        CFGEDIT 1 1 0 1 1 0 1 1 1 1 1 0.25000000 -8 -8 1544 872 0 2 1 1 0.00000000 0 1 1 0 0.500000 0 0 1.000000 64
        KEYSNAP 0 7 "102030050700" 0 "Pentatonic"
        EVTFILTER 0 -1 -1 -1 -1 0 1 0 0 -1.00000000 -1.00000000
      >
    >
  >
  <TRACK '{68A5EE60-5345-4CF0-9BCD-8172571F65CD}'
    NAME "PART REAL_KEYS_E"
    PEAKCOL 16576
    BEAT -1
    AUTOMODE 0
    VOLPAN 1.00000000000000 0.00000000000000 -1.00000000000000 -1.00000000000000 1.00000000000000
    MUTESOLO 0 0 0
    IPHASE 0
    ISBUS 0 0
    BUSCOMP 0 0
    SHOWINMIX 1 0.666700 0.500000 1 0.500000 -1 -1 -1
    FREEMODE 0
    SEL 0
    REC 0 0 0 0 0 0 0
    VU 2
    TRACKHEIGHT 0 0
    INQ 0 0 0 0.5000000000 100 0 0 100
    NCHAN 2
    FX 1
    TRACKID {68A5EE60-5345-4CF0-9BCD-8172571F65CD}
    PERF 0
    MIDIOUT -1
    <MIDINOTENAMES
      0 72 "Highest playable note B#3"
      0 71 "B3"
      0 70 "A#3"
      0 69 "A3"
      0 68 "G#3"
      0 67 "G3"
      0 66 "F#3"
      0 65 "F3"
      0 64 "E3"
      0 63 "D#3"
      0 62 "D3"
      0 61 "C#3"
      0 60 "C3"
      0 59 "B2"
      0 58 "A#2"
      0 57 "A2"
      0 56 "G#2"
      0 55 "G2"
      0 54 "F#2"
      0 53 "F2"
      0 52 "E2"
      0 51 "D#2"
      0 50 "D2"
      0 49 "C#2"
      0 48 "Lowest playable note C2"
      0 10 "---"
      0 9 "Range A2-C4"
      0 8 "Range"
      0 7 "Range"
      0 6 "Range"
      0 5 "Range F2-A3"
      0 4 "Range"
      0 3 "Range"
      0 2 "Range"
      0 1 "Range"
      0 0 "Range C2-E3"
    >
    MAINSEND 1 0
    <FXCHAIN
      SHOW 0
      LASTSEL 0
      DOCKED 0
    >
    <ITEM
      POSITION 0.00000000000000
      SNAPOFFS 0.00000000000000
      LENGTH 222.64699999999999
      LOOP 0
      ALLTAKES 0
      SEL 0
      FADEIN 1 0.000000 0.000000 1 0
      FADEOUT 1 0.000000 0.000000 1 0
      MUTE 0
      IGUID {457E29BE-BA06-452A-9A29-3DC9C8BEFA51}
      IID 6
      NAME "PART REAL_KEYS_E"
      VOLPAN 1.000000 0.000000 1.000000 -1.000000
      SOFFS 0.00000000000000 0.00000000000000
      PLAYRATE 1.00000000000000 1 0.00000000000000 -1
      CHANMODE 0
      GUID {6967EDD4-59F1-4CEE-A12E-BC4DA3300069}
      <SOURCE MIDI
        HASDATA 1 480 QN
        POOLEDEVTS {E819985B-DB8F-4494-85F1-C36993456F13}
        <X 0 0
          /wNQQVJUIFJFQUxfS0VZU19F
        >
        E 0 90 00 60
        E 120 80 00 00
        E 1800 91 30 60
        E 120 81 30 00
        E 840 91 30 60
        E 120 81 30 00
        E 840 91 31 60
        E 120 81 31 00
        E 840 91 31 60
        E 120 81 31 00
        E 840 91 35 60
        E 120 81 35 00
        E 840 91 34 60
        E 120 81 34 00
        E 840 91 37 60
        E 120 81 37 00
        E 840 91 35 60
        E 120 81 35 00
        E 840 91 30 60
        E 120 81 30 00
        E 840 91 30 60
        E 120 81 30 00
        E 840 91 31 60
        E 120 81 31 00
        E 840 91 31 60
        E 120 81 31 00
        E 840 91 35 60
        E 120 81 35 00
        E 840 91 34 60
        E 120 81 34 00
        E 840 91 37 60
        E 120 81 37 00
        E 840 91 35 60
        E 120 81 35 00
        E 840 91 30 60
        E 120 81 30 00
        E 840 91 30 60
        E 120 81 30 00
        E 840 91 31 60
        E 120 81 31 00
        E 840 91 31 60
        E 120 81 31 00
        E 840 91 35 60
        E 120 81 35 00
        E 840 91 34 60
        E 120 81 34 00
        E 840 91 37 60
        E 120 81 37 00
        E 840 91 35 60
        E 120 81 35 00
        E 840 91 30 60
        E 120 81 30 00
        E 840 91 30 60
        E 120 81 30 00
        E 840 91 31 60
        E 120 81 31 00
        E 840 91 31 60
        E 120 81 31 00
        E 840 91 35 60
        E 120 81 35 00
        E 840 91 34 60
        E 120 81 34 00
        E 840 91 3c 60
        E 120 81 3c 00
        E 360 91 3c 60
        E 120 81 3c 00
        E 360 91 3c 60
        E 120 81 3c 00
        E 360 91 3c 60
        E 120 81 3c 00
        E 840 91 35 60
        E 120 81 35 00
        E 120 91 34 60
        E 120 81 34 00
        E 1560 91 35 60
        E 120 81 35 00
        E 120 91 34 60
        E 120 81 34 00
        E 1560 91 35 60
        E 120 81 35 00
        E 120 91 34 60
        E 120 81 34 00
        E 1080 91 37 60
        E 120 81 37 00
        E 840 91 36 60
        E 120 81 36 00
        E 1320 91 35 60
        E 120 81 35 00
        E 120 91 34 60
        E 120 81 34 00
        E 1560 91 35 60
        E 120 81 35 00
        E 120 91 34 60
        E 120 81 34 00
        E 600 91 38 60
        E 120 81 38 00
        E 120 90 3c 60
        E 120 80 3c 00
        E 600 91 35 60
        E 120 81 35 00
        E 120 91 34 60
        E 120 81 34 00
        E 1080 91 37 60
        E 120 81 37 00
        E 840 91 36 60
        E 120 81 36 00
        E 840 91 30 60
        E 120 81 30 00
        E 840 91 30 60
        E 120 81 30 00
        E 840 91 31 60
        E 120 81 31 00
        E 840 91 31 60
        E 120 81 31 00
        E 840 91 35 60
        E 120 81 35 00
        E 840 91 34 60
        E 120 81 34 00
        E 840 91 37 60
        E 120 81 37 00
        E 840 91 35 60
        E 120 81 35 00
        E 840 91 30 60
        E 120 81 30 00
        E 840 91 30 60
        E 120 81 30 00
        E 840 91 31 60
        E 120 81 31 00
        E 840 91 31 60
        E 120 81 31 00
        E 840 91 35 60
        E 120 81 35 00
        E 840 91 34 60
        E 120 81 34 00
        E 840 91 37 60
        E 120 81 37 00
        E 840 91 35 60
        E 120 81 35 00
        E 840 91 30 60
        E 120 81 30 00
        E 840 91 30 60
        E 120 81 30 00
        E 840 91 31 60
        E 120 81 31 00
        E 840 91 31 60
        E 120 81 31 00
        E 840 91 35 60
        E 120 81 35 00
        E 840 91 34 60
        E 120 81 34 00
        E 840 91 37 60
        E 120 81 37 00
        E 840 91 35 60
        E 120 81 35 00
        E 840 91 30 60
        E 120 81 30 00
        E 840 91 30 60
        E 120 81 30 00
        E 840 91 31 60
        E 120 81 31 00
        E 840 91 31 60
        E 120 81 31 00
        E 840 91 35 60
        E 120 81 35 00
        E 840 91 34 60
        E 120 81 34 00
        E 840 91 3c 60
        E 120 81 3c 00
        E 360 91 3c 60
        E 120 81 3c 00
        E 360 91 3c 60
        E 120 81 3c 00
        E 360 91 3c 60
        E 120 81 3c 00
        E 840 91 35 60
        E 120 81 35 00
        E 120 91 34 60
        E 120 81 34 00
        E 1560 91 35 60
        E 120 81 35 00
        E 120 91 34 60
        E 120 81 34 00
        E 1560 91 35 60
        E 120 81 35 00
        E 120 91 34 60
        E 120 81 34 00
        E 1560 91 35 60
        E 120 81 35 00
        E 360 91 35 60
        E 120 81 35 00
        E 360 91 35 60
        E 120 81 35 00
        E 360 91 35 60
        E 120 81 35 00
        E 360 91 35 60
        E 120 81 35 00
        E 120 91 34 60
        E 120 81 34 00
        E 600 90 38 60
        E 120 80 38 00
        E 120 90 37 60
        E 120 80 37 00
        E 600 91 35 60
        E 120 81 35 00
        E 120 91 34 60
        E 120 81 34 00
        E 600 91 38 60
        E 120 81 38 00
        E 120 91 3c 60
        E 120 81 3c 00
        E 600 91 35 60
        E 120 81 35 00
        E 120 91 34 60
        E 120 81 34 00
        E 600 90 38 60
        E 120 80 38 00
        E 120 90 3e 60
        E 120 80 3e 00
        E 600 91 35 60
        E 120 81 35 00
        E 360 91 35 60
        E 120 81 35 00
        E 360 91 35 60
        E 120 81 35 00
        E 360 91 3c 60
        E 1919 81 3c 00
        E 1920 b0 7b 00
        GUID {EA2EBB74-6930-4B08-B1E6-ACC43BF2A268}
        IGNTEMPO 0 120.00000000 4 4
        SRCCOLOR 8
        VELLANE 132 128 60
        COLORMAP "C:\Program Files\REAPER (x64)\Data\color_maps\rockband_guitarbass.png"
        CFGEDITVIEW -6368.141248 5.043858 10 15 0 0 0
        CFGEDIT 1 1 0 1 1 0 1 1 1 1 1 0.25000000 -8 -8 1544 872 0 2 1 1 0.00000000 0 1 1 0 0.500000 0 0 1.000000 64
        KEYSNAP 0 7 "102030050700" 0 "Pentatonic"
        EVTFILTER 0 -1 -1 -1 -1 0 1 0 0 -1.00000000 -1.00000000
      >
    >
  >
  <TRACK '{11A485C8-5F1B-46A4-8831-3FCD6D0CC14D}'
    NAME "PART KEYS_ANIM_RH"
    PEAKCOL 16576
    BEAT -1
    AUTOMODE 0
    VOLPAN 1.00000000000000 0.00000000000000 -1.00000000000000 -1.00000000000000 1.00000000000000
    MUTESOLO 0 0 0
    IPHASE 0
    ISBUS 0 0
    BUSCOMP 0 0
    SHOWINMIX 1 0.666700 0.500000 1 0.500000 -1 -1 -1
    FREEMODE 0
    SEL 0
    REC 0 0 0 0 0 0 0
    VU 2
    TRACKHEIGHT 0 0
    INQ 0 0 0 0.5000000000 100 0 0 100
    NCHAN 2
    FX 1
    TRACKID {11A485C8-5F1B-46A4-8831-3FCD6D0CC14D}
    PERF 0
    MIDIOUT -1
    <MIDINOTENAMES
      0 72 "Highest playable note B#3"
      0 71 "B3"
      0 70 "A#3"
      0 69 "A3"
      0 68 "G#3"
      0 67 "G3"
      0 66 "F#3"
      0 65 "F3"
      0 64 "E3"
      0 63 "D#3"
      0 62 "D3"
      0 61 "C#3"
      0 60 "C3"
      0 59 "B2"
      0 58 "A#2"
      0 57 "A2"
      0 56 "G#2"
      0 55 "G2"
      0 54 "F#2"
      0 53 "F2"
      0 52 "E2"
      0 51 "D#2"
      0 50 "D2"
      0 49 "C#2"
      0 48 "Lowest playable note C2"
    >
    MAINSEND 1 0
    <FXCHAIN
      SHOW 0
      LASTSEL 0
      DOCKED 0
    >
    <ITEM
      POSITION 0.00000000000000
      SNAPOFFS 0.00000000000000
      LENGTH 222.64699999999999
      LOOP 0
      ALLTAKES 0
      SEL 0
      FADEIN 1 0.000000 0.000000 1 0
      FADEOUT 1 0.000000 0.000000 1 0
      MUTE 0
      IGUID {BF0162E6-DED7-4F63-9DE7-1A74D3A156EF}
      IID 7
      NAME "PART KEYS_ANIM_RH"
      VOLPAN 1.000000 0.000000 1.000000 -1.000000
      SOFFS 0.00000000000000 0.00000000000000
      PLAYRATE 1.00000000000000 1 0.00000000000000 -1
      CHANMODE 0
      GUID {8197384B-1FF8-4453-8B21-BB68622828E3}
      <SOURCE MIDI
        HASDATA 1 480 QN
        POOLEDEVTS {19C15D31-6F75-4990-A37C-33E71C1BD900}
        <X 0 0
          /wNQQVJUIEtFWVNfQU5JTV9SSA==
        >
        E 1920 90 35 60
        E 120 80 35 00
        E 360 90 35 60
        E 120 80 35 00
        E 360 90 35 60
        E 120 80 35 00
        E 360 90 35 60
        E 120 80 35 00
        E 360 90 35 60
        E 120 80 35 00
        E 360 90 35 60
        E 120 80 35 00
        E 360 90 35 60
        E 120 80 35 00
        E 360 90 35 60
        E 120 80 35 00
        E 360 90 35 60
        E 120 80 35 00
        E 360 90 35 60
        E 120 80 35 00
        E 360 90 34 60
        E 120 80 34 00
        E 360 90 34 60
        E 120 80 34 00
        E 360 90 37 60
        E 120 80 37 00
        E 360 90 37 60
        E 120 80 37 00
        E 360 90 35 60
        E 120 80 35 00
        E 360 90 35 60
        E 120 80 35 00
        E 360 90 35 60
        E 120 80 35 00
        E 360 90 35 60
        E 120 80 35 00
        E 360 90 35 60
        E 120 80 35 00
        E 360 90 35 60
        E 120 80 35 00
        E 360 90 35 60
        E 120 80 35 00
        E 360 90 35 60
        E 120 80 35 00
        E 360 90 35 60
        E 120 80 35 00
        E 360 90 35 60
        E 120 80 35 00
        E 360 90 35 60
        E 120 80 35 00
        E 360 90 35 60
        E 120 80 35 00
        E 360 90 34 60
        E 120 80 34 00
        E 360 90 34 60
        E 120 80 34 00
        E 360 90 37 60
        E 120 80 37 00
        E 360 90 37 60
        E 120 80 37 00
        E 360 90 35 60
        E 120 80 35 00
        E 360 90 35 60
        E 120 80 35 00
        E 360 90 35 60
        E 120 80 35 00
        E 360 90 35 60
        E 120 80 35 00
        E 360 90 35 60
        E 120 80 35 00
        E 360 90 35 60
        E 120 80 35 00
        E 360 90 35 60
        E 120 80 35 00
        E 360 90 35 60
        E 120 80 35 00
        E 360 90 35 60
        E 120 80 35 00
        E 360 90 35 60
        E 120 80 35 00
        E 360 90 35 60
        E 120 80 35 00
        E 360 90 35 60
        E 120 80 35 00
        E 360 90 34 60
        E 120 80 34 00
        E 360 90 34 60
        E 120 80 34 00
        E 360 90 37 60
        E 120 80 37 00
        E 360 90 37 60
        E 120 80 37 00
        E 360 90 35 60
        E 120 80 35 00
        E 360 90 35 60
        E 120 80 35 00
        E 360 90 35 60
        E 120 80 35 00
        E 360 90 35 60
        E 120 80 35 00
        E 360 90 35 60
        E 120 80 35 00
        E 360 90 35 60
        E 120 80 35 00
        E 360 90 35 60
        E 120 80 35 00
        E 360 90 35 60
        E 120 80 35 00
        E 360 90 35 60
        E 120 80 35 00
        E 360 90 35 60
        E 120 80 35 00
        E 360 90 35 60
        E 120 80 35 00
        E 360 90 35 60
        E 120 80 35 00
        E 360 90 34 60
        E 120 80 34 00
        E 360 90 34 60
        E 120 80 34 00
        E 360 90 35 60
        E 120 80 35 00
        E 360 90 35 60
        E 120 80 35 00
        E 360 90 35 60
        E 120 80 35 00
        E 360 90 35 60
        E 120 80 35 00
        E 840 90 35 60
        E 120 80 35 00
        E 120 90 34 60
        E 120 80 34 00
        E 1560 90 35 60
        E 120 80 35 00
        E 120 90 34 60
        E 120 80 34 00
        E 1560 90 35 60
        E 120 80 35 00
        E 120 90 34 60
        E 120 80 34 00
        E 1560 90 35 60
        E 120 80 35 00
        E 360 90 35 60
        E 120 80 35 00
        E 360 90 35 60
        E 120 80 35 00
        E 360 90 35 60
        E 120 80 35 00
        E 360 90 35 60
        E 120 80 35 00
        E 120 90 34 60
        E 120 80 34 00
        E 1560 90 35 60
        E 120 80 35 00
        E 120 90 34 60
        E 120 80 34 00
        E 840 90 30 60
        E 120 80 30 00
        E 600 90 35 60
        E 120 80 35 00
        E 120 90 34 60
        E 120 80 34 00
        E 1560 90 35 60
        E 120 80 35 00
        E 360 90 35 60
        E 120 80 35 00
        E 360 90 35 60
        E 120 80 35 00
        E 360 90 35 60
        E 120 80 35 00
        E 360 90 35 60
        E 120 80 35 00
        E 360 90 35 60
        E 120 80 35 00
        E 360 90 35 60
        E 120 80 35 00
        E 360 90 35 60
        E 120 80 35 00
        E 360 90 35 60
        E 120 80 35 00
        E 360 90 35 60
        E 120 80 35 00
        E 360 90 35 60
        E 120 80 35 00
        E 360 90 35 60
        E 120 80 35 00
        E 360 90 35 60
        E 120 80 35 00
        E 360 90 34 60
        E 120 80 34 00
        E 360 90 34 60
        E 120 80 34 00
        E 360 90 37 60
        E 120 80 37 00
        E 360 90 37 60
        E 120 80 37 00
        E 360 90 35 60
        E 120 80 35 00
        E 360 90 35 60
        E 120 80 35 00
        E 120 90 3c 60
        E 120 80 3c 00
        E 120 90 35 60
        E 120 80 35 00
        E 360 90 35 60
        E 120 80 35 00
        E 360 90 35 60
        E 120 80 35 00
        E 360 90 35 60
        E 120 80 35 00
        E 360 90 35 60
        E 120 80 35 00
        E 360 90 35 60
        E 120 80 35 00
        E 360 90 35 60
        E 120 80 35 00
        E 360 90 35 60
        E 120 80 35 00
        E 360 90 35 60
        E 120 80 35 00
        E 360 90 35 60
        E 120 80 35 00
        E 360 90 34 60
        E 120 80 34 00
        E 360 90 34 60
        E 120 80 34 00
        E 360 90 37 60
        E 120 80 37 00
        E 360 90 37 60
        E 120 80 37 00
        E 360 90 35 60
        E 120 80 35 00
        E 360 90 35 60
        E 120 80 35 00
        E 120 90 3c 60
        E 120 80 3c 00
        E 120 90 35 60
        E 120 80 35 00
        E 360 90 35 60
        E 120 80 35 00
        E 360 90 35 60
        E 120 80 35 00
        E 360 90 35 60
        E 120 80 35 00
        E 360 90 35 60
        E 120 80 35 00
        E 360 90 35 60
        E 120 80 35 00
        E 360 90 35 60
        E 120 80 35 00
        E 360 90 35 60
        E 120 80 35 00
        E 360 90 35 60
        E 120 80 35 00
        E 360 90 35 60
        E 120 80 35 00
        E 360 90 34 60
        E 120 80 34 00
        E 360 90 34 60
        E 120 80 34 00
        E 360 90 37 60
        E 120 80 37 00
        E 360 90 37 60
        E 120 80 37 00
        E 360 90 35 60
        E 120 80 35 00
        E 360 90 35 60
        E 120 80 35 00
        E 120 90 3c 60
        E 120 80 3c 00
        E 120 90 35 60
        E 120 80 35 00
        E 360 90 35 60
        E 120 80 35 00
        E 360 90 35 60
        E 120 80 35 00
        E 360 90 35 60
        E 120 80 35 00
        E 360 90 35 60
        E 120 80 35 00
        E 360 90 35 60
        E 120 80 35 00
        E 360 90 35 60
        E 120 80 35 00
        E 360 90 35 60
        E 120 80 35 00
        E 360 90 35 60
        E 120 80 35 00
        E 360 90 35 60
        E 120 80 35 00
        E 360 90 34 60
        E 120 80 34 00
        E 360 90 34 60
        E 120 80 34 00
        E 360 90 35 60
        E 120 80 35 00
        E 360 90 35 60
        E 120 80 35 00
        E 360 90 35 60
        E 120 80 35 00
        E 360 90 35 60
        E 120 80 35 00
        E 840 90 35 60
        E 120 80 35 00
        E 120 90 34 60
        E 120 80 34 00
        E 1560 90 35 60
        E 120 80 35 00
        E 120 90 34 60
        E 120 80 34 00
        E 1560 90 35 60
        E 120 80 35 00
        E 120 90 34 60
        E 120 80 34 00
        E 1560 90 35 60
        E 120 80 35 00
        E 360 90 35 60
        E 120 80 35 00
        E 360 90 35 60
        E 120 80 35 00
        E 360 90 35 60
        E 120 80 35 00
        E 360 90 35 60
        E 120 80 35 00
        E 120 90 34 60
        E 120 80 34 00
        E 1560 90 35 60
        E 120 80 35 00
        E 120 90 34 60
        E 120 80 34 00
        E 840 90 30 60
        E 120 80 30 00
        E 600 90 35 60
        E 120 80 35 00
        E 120 90 34 60
        E 120 80 34 00
        E 840 90 32 60
        E 120 80 32 00
        E 600 90 35 60
        E 120 80 35 00
        E 360 90 35 60
        E 120 80 35 00
        E 360 90 35 60
        E 120 80 35 00
        E 4199 b0 7b 00
        GUID {5843D04A-F6C8-4CCD-BFFE-69A630DF4615}
        IGNTEMPO 0 120.00000000 4 4
        SRCCOLOR 9
        VELLANE 132 128 60
        COLORMAP "C:\Program Files\REAPER (x64)\Data\color_maps\rockband_guitarbass.png"
        CFGEDITVIEW -6368.141248 5.043858 12 22 0 0 0
        CFGEDIT 1 1 0 1 1 0 1 1 1 1 1 0.25000000 -8 -8 1544 872 0 2 1 1 0.00000000 0 1 1 0 0.500000 0 0 1.000000 64
        KEYSNAP 0 7 "102030050700" 0 "Pentatonic"
        EVTFILTER 0 -1 -1 -1 -1 0 1 0 0 -1.00000000 -1.00000000
      >
    >
  >
  <TRACK '{4E1B37E9-0225-4FD1-AB51-5FF697004272}'
    NAME "PART KEYS_ANIM_LH"
    PEAKCOL 16576
    BEAT -1
    AUTOMODE 0
    VOLPAN 1.00000000000000 0.00000000000000 -1.00000000000000 -1.00000000000000 1.00000000000000
    MUTESOLO 0 0 0
    IPHASE 0
    ISBUS 0 0
    BUSCOMP 0 0
    SHOWINMIX 1 0.666700 0.500000 1 0.500000 -1 -1 -1
    FREEMODE 0
    SEL 0
    REC 0 0 0 0 0 0 0
    VU 2
    TRACKHEIGHT 0 0
    INQ 0 0 0 0.5000000000 100 0 0 100
    NCHAN 2
    FX 1
    TRACKID {4E1B37E9-0225-4FD1-AB51-5FF697004272}
    PERF 0
    MIDIOUT -1
    <MIDINOTENAMES
      0 72 "Highest playable note B#3"
      0 71 "B3"
      0 70 "A#3"
      0 69 "A3"
      0 68 "G#3"
      0 67 "G3"
      0 66 "F#3"
      0 65 "F3"
      0 64 "E3"
      0 63 "D#3"
      0 62 "D3"
      0 61 "C#3"
      0 60 "C3"
      0 59 "B2"
      0 58 "A#2"
      0 57 "A2"
      0 56 "G#2"
      0 55 "G2"
      0 54 "F#2"
      0 53 "F2"
      0 52 "E2"
      0 51 "D#2"
      0 50 "D2"
      0 49 "C#2"
      0 48 "Lowest playable note C2"
    >
    MAINSEND 1 0
    <FXCHAIN
      SHOW 0
      LASTSEL 0
      DOCKED 0
    >
    <ITEM
      POSITION 0.00000000000000
      SNAPOFFS 0.00000000000000
      LENGTH 222.64699999999999
      LOOP 0
      ALLTAKES 0
      SEL 0
      FADEIN 1 0.000000 0.000000 1 0
      FADEOUT 1 0.000000 0.000000 1 0
      MUTE 0
      IGUID {E3D16F92-3EA0-4162-9095-E31CABF809F1}
      IID 8
      NAME "PART KEYS_ANIM_LH"
      VOLPAN 1.000000 0.000000 1.000000 -1.000000
      SOFFS 0.00000000000000 0.00000000000000
      PLAYRATE 1.00000000000000 1 0.00000000000000 -1
      CHANMODE 0
      GUID {78B8ED49-5B52-4820-A740-93768CC812FA}
      <SOURCE MIDI
        HASDATA 1 480 QN
        POOLEDEVTS {63F680D5-EB1D-479F-A6BF-7E938FD9D77D}
        <X 0 0
          /wNQQVJUIEtFWVNfQU5JTV9MSA==
        >
        E 1920 91 30 60
        E 0 91 37 60
        E 120 81 30 00
        E 0 81 37 00
        E 360 91 30 60
        E 0 91 37 60
        E 120 81 30 00
        E 0 81 37 00
        E 360 91 30 60
        E 0 91 37 60
        E 120 81 30 00
        E 0 81 37 00
        E 360 91 30 60
        E 0 91 37 60
        E 120 81 30 00
        E 0 81 37 00
        E 360 91 31 60
        E 0 91 38 60
        E 120 81 31 00
        E 0 81 38 00
        E 360 91 31 60
        E 0 91 38 60
        E 120 81 31 00
        E 0 81 38 00
        E 360 91 31 60
        E 0 91 38 60
        E 120 81 31 00
        E 0 81 38 00
        E 360 91 31 60
        E 0 91 38 60
        E 120 81 31 00
        E 0 81 38 00
        E 360 91 39 60
        E 120 81 39 00
        E 360 91 39 60
        E 120 81 39 00
        E 360 91 39 60
        E 120 81 39 00
        E 360 91 39 60
        E 120 81 39 00
        E 360 91 3a 60
        E 120 81 3a 00
        E 360 91 3a 60
        E 120 81 3a 00
        E 360 91 3a 60
        E 120 81 3a 00
        E 360 91 3a 60
        E 120 81 3a 00
        E 360 91 30 60
        E 0 91 37 60
        E 120 81 30 00
        E 0 81 37 00
        E 360 91 30 60
        E 0 91 37 60
        E 120 81 30 00
        E 0 81 37 00
        E 360 91 30 60
        E 0 91 37 60
        E 120 81 30 00
        E 0 81 37 00
        E 360 91 30 60
        E 0 91 37 60
        E 120 81 30 00
        E 0 81 37 00
        E 360 91 31 60
        E 0 91 38 60
        E 120 81 31 00
        E 0 81 38 00
        E 360 91 31 60
        E 0 91 38 60
        E 120 81 31 00
        E 0 81 38 00
        E 360 91 31 60
        E 0 91 38 60
        E 120 81 31 00
        E 0 81 38 00
        E 360 91 31 60
        E 0 91 38 60
        E 120 81 31 00
        E 0 81 38 00
        E 360 91 39 60
        E 120 81 39 00
        E 360 91 39 60
        E 120 81 39 00
        E 360 91 39 60
        E 120 81 39 00
        E 360 91 39 60
        E 120 81 39 00
        E 360 91 3a 60
        E 120 81 3a 00
        E 360 91 3a 60
        E 120 81 3a 00
        E 360 91 3a 60
        E 120 81 3a 00
        E 360 91 3a 60
        E 120 81 3a 00
        E 360 91 30 60
        E 0 91 37 60
        E 120 81 30 00
        E 0 81 37 00
        E 360 91 30 60
        E 0 91 37 60
        E 120 81 30 00
        E 0 81 37 00
        E 360 91 30 60
        E 0 91 37 60
        E 120 81 30 00
        E 0 81 37 00
        E 360 91 30 60
        E 0 91 37 60
        E 120 81 30 00
        E 0 81 37 00
        E 360 91 31 60
        E 0 91 38 60
        E 120 81 31 00
        E 0 81 38 00
        E 360 91 31 60
        E 0 91 38 60
        E 120 81 31 00
        E 0 81 38 00
        E 360 91 31 60
        E 0 91 38 60
        E 120 81 31 00
        E 0 81 38 00
        E 360 91 31 60
        E 0 91 38 60
        E 120 81 31 00
        E 0 81 38 00
        E 360 91 39 60
        E 120 81 39 00
        E 360 91 39 60
        E 120 81 39 00
        E 360 91 39 60
        E 120 81 39 00
        E 360 91 39 60
        E 120 81 39 00
        E 360 91 3a 60
        E 120 81 3a 00
        E 360 91 3a 60
        E 120 81 3a 00
        E 360 91 3a 60
        E 120 81 3a 00
        E 360 91 3a 60
        E 120 81 3a 00
        E 360 91 30 60
        E 0 91 37 60
        E 120 81 30 00
        E 0 81 37 00
        E 360 91 30 60
        E 0 91 37 60
        E 120 81 30 00
        E 0 81 37 00
        E 360 91 30 60
        E 0 91 37 60
        E 120 81 30 00
        E 0 81 37 00
        E 360 91 30 60
        E 0 91 37 60
        E 120 81 30 00
        E 0 81 37 00
        E 360 91 31 60
        E 0 91 38 60
        E 120 81 31 00
        E 0 81 38 00
        E 360 91 31 60
        E 0 91 38 60
        E 120 81 31 00
        E 0 81 38 00
        E 360 91 31 60
        E 0 91 38 60
        E 120 81 31 00
        E 0 81 38 00
        E 360 91 31 60
        E 0 91 38 60
        E 120 81 31 00
        E 0 81 38 00
        E 360 91 39 60
        E 120 81 39 00
        E 360 91 39 60
        E 120 81 39 00
        E 360 91 39 60
        E 120 81 39 00
        E 360 91 39 60
        E 120 81 39 00
        E 360 91 38 60
        E 120 81 38 00
        E 360 91 38 60
        E 120 81 38 00
        E 360 91 38 60
        E 120 81 38 00
        E 360 91 38 60
        E 120 81 38 00
        E 360 91 35 60
        E 120 81 35 00
        E 360 91 35 60
        E 120 81 35 00
        E 360 91 35 60
        E 120 81 35 00
        E 360 91 35 60
        E 120 81 35 00
        E 360 91 34 60
        E 120 81 34 00
        E 120 90 35 60
        E 120 80 35 00
        E 120 91 34 60
        E 120 81 34 00
        E 360 91 34 60
        E 120 81 34 00
        E 360 91 34 60
        E 120 81 34 00
        E 360 91 38 60
        E 120 81 38 00
        E 360 91 38 60
        E 120 81 38 00
        E 360 91 38 60
        E 120 81 38 00
        E 360 91 38 60
        E 120 81 38 00
        E 360 90 3b 60
        E 0 91 37 60
        E 120 80 3b 00
        E 0 81 37 00
        E 360 90 3b 60
        E 0 91 37 60
        E 120 80 3b 00
        E 0 81 37 00
        E 360 90 3a 60
        E 0 91 36 60
        E 120 80 3a 00
        E 0 81 36 00
        E 360 90 3a 60
        E 0 91 36 60
        E 120 80 3a 00
        E 0 81 36 00
        E 360 91 35 60
        E 120 81 35 00
        E 120 90 35 60
        E 120 80 35 00
        E 120 91 35 60
        E 120 81 35 00
        E 360 91 35 60
        E 120 81 35 00
        E 360 91 35 60
        E 120 81 35 00
        E 360 91 34 60
        E 120 81 34 00
        E 120 90 35 60
        E 120 80 35 00
        E 120 91 34 60
        E 120 81 34 00
        E 360 91 34 60
        E 120 81 34 00
        E 120 90 37 60
        E 120 80 37 00
        E 120 90 38 60
        E 0 91 34 60
        E 120 80 38 00
        E 0 81 34 00
        E 360 91 38 60
        E 120 81 38 00
        E 360 90 35 60
        E 0 91 38 60
        E 120 80 35 00
        E 0 81 38 00
        E 120 90 34 60
        E 120 80 34 00
        E 120 91 38 60
        E 120 81 38 00
        E 360 91 38 60
        E 120 81 38 00
        E 360 90 3b 60
        E 0 91 37 60
        E 120 80 3b 00
        E 0 81 37 00
        E 360 90 3b 60
        E 0 91 37 60
        E 120 80 3b 00
        E 0 81 37 00
        E 360 90 3a 60
        E 0 91 36 60
        E 120 80 3a 00
        E 0 81 36 00
        E 360 90 3a 60
        E 0 91 36 60
        E 120 80 3a 00
        E 0 81 36 00
        E 360 91 30 60
        E 0 91 37 60
        E 120 81 30 00
        E 0 81 37 00
        E 360 91 30 60
        E 0 91 37 60
        E 120 81 30 00
        E 0 81 37 00
        E 360 91 30 60
        E 0 91 37 60
        E 120 81 30 00
        E 0 81 37 00
        E 360 91 30 60
        E 0 91 37 60
        E 120 81 30 00
        E 0 81 37 00
        E 360 91 31 60
        E 0 91 38 60
        E 120 81 31 00
        E 0 81 38 00
        E 360 91 31 60
        E 0 91 38 60
        E 120 81 31 00
        E 0 81 38 00
        E 360 91 31 60
        E 0 91 38 60
        E 120 81 31 00
        E 0 81 38 00
        E 360 91 31 60
        E 0 91 38 60
        E 120 81 31 00
        E 0 81 38 00
        E 360 91 39 60
        E 120 81 39 00
        E 360 91 39 60
        E 120 81 39 00
        E 360 91 39 60
        E 120 81 39 00
        E 360 91 39 60
        E 120 81 39 00
        E 360 91 3a 60
        E 120 81 3a 00
        E 360 91 3a 60
        E 120 81 3a 00
        E 360 91 3a 60
        E 120 81 3a 00
        E 360 91 3a 60
        E 120 81 3a 00
        E 360 91 30 60
        E 0 91 37 60
        E 120 81 30 00
        E 0 81 37 00
        E 360 91 30 60
        E 0 91 37 60
        E 120 81 30 00
        E 0 81 37 00
        E 360 91 30 60
        E 0 91 37 60
        E 120 81 30 00
        E 0 81 37 00
        E 360 91 30 60
        E 0 91 37 60
        E 120 81 30 00
        E 0 81 37 00
        E 360 91 31 60
        E 0 91 38 60
        E 120 81 31 00
        E 0 81 38 00
        E 360 91 31 60
        E 0 91 38 60
        E 120 81 31 00
        E 0 81 38 00
        E 360 91 31 60
        E 0 91 38 60
        E 120 81 31 00
        E 0 81 38 00
        E 360 91 31 60
        E 0 91 38 60
        E 120 81 31 00
        E 0 81 38 00
        E 360 91 39 60
        E 120 81 39 00
        E 360 91 39 60
        E 120 81 39 00
        E 360 91 39 60
        E 120 81 39 00
        E 360 91 39 60
        E 120 81 39 00
        E 360 91 3a 60
        E 120 81 3a 00
        E 360 91 3a 60
        E 120 81 3a 00
        E 360 91 3a 60
        E 120 81 3a 00
        E 360 91 3a 60
        E 120 81 3a 00
        E 360 91 30 60
        E 0 91 37 60
        E 120 81 30 00
        E 0 81 37 00
        E 360 91 30 60
        E 0 91 37 60
        E 120 81 30 00
        E 0 81 37 00
        E 360 91 30 60
        E 0 91 37 60
        E 120 81 30 00
        E 0 81 37 00
        E 360 91 30 60
        E 0 91 37 60
        E 120 81 30 00
        E 0 81 37 00
        E 360 91 31 60
        E 0 91 38 60
        E 120 81 31 00
        E 0 81 38 00
        E 360 91 31 60
        E 0 91 38 60
        E 120 81 31 00
        E 0 81 38 00
        E 360 91 31 60
        E 0 91 38 60
        E 120 81 31 00
        E 0 81 38 00
        E 360 91 31 60
        E 0 91 38 60
        E 120 81 31 00
        E 0 81 38 00
        E 360 91 39 60
        E 120 81 39 00
        E 360 91 39 60
        E 120 81 39 00
        E 360 91 39 60
        E 120 81 39 00
        E 360 91 39 60
        E 120 81 39 00
        E 360 91 3a 60
        E 120 81 3a 00
        E 360 91 3a 60
        E 120 81 3a 00
        E 360 91 3a 60
        E 120 81 3a 00
        E 360 91 3a 60
        E 120 81 3a 00
        E 360 91 30 60
        E 0 91 37 60
        E 120 81 30 00
        E 0 81 37 00
        E 360 91 30 60
        E 0 91 37 60
        E 120 81 30 00
        E 0 81 37 00
        E 360 91 30 60
        E 0 91 37 60
        E 120 81 30 00
        E 0 81 37 00
        E 360 91 30 60
        E 0 91 37 60
        E 120 81 30 00
        E 0 81 37 00
        E 360 91 31 60
        E 0 91 38 60
        E 120 81 31 00
        E 0 81 38 00
        E 360 91 31 60
        E 0 91 38 60
        E 120 81 31 00
        E 0 81 38 00
        E 360 91 31 60
        E 0 91 38 60
        E 120 81 31 00
        E 0 81 38 00
        E 360 91 31 60
        E 0 91 38 60
        E 120 81 31 00
        E 0 81 38 00
        E 360 91 39 60
        E 120 81 39 00
        E 360 91 39 60
        E 120 81 39 00
        E 360 91 39 60
        E 120 81 39 00
        E 360 91 39 60
        E 120 81 39 00
        E 360 91 38 60
        E 120 81 38 00
        E 360 91 38 60
        E 120 81 38 00
        E 360 91 38 60
        E 120 81 38 00
        E 360 91 38 60
        E 120 81 38 00
        E 360 91 35 60
        E 120 81 35 00
        E 360 91 35 60
        E 120 81 35 00
        E 360 91 35 60
        E 120 81 35 00
        E 360 91 35 60
        E 120 81 35 00
        E 360 91 34 60
        E 120 81 34 00
        E 120 90 35 60
        E 120 80 35 00
        E 120 91 34 60
        E 120 81 34 00
        E 360 91 34 60
        E 120 81 34 00
        E 360 91 34 60
        E 120 81 34 00
        E 360 91 38 60
        E 120 81 38 00
        E 360 91 38 60
        E 120 81 38 00
        E 360 91 38 60
        E 120 81 38 00
        E 360 91 38 60
        E 120 81 38 00
        E 360 90 3b 60
        E 0 91 37 60
        E 120 80 3b 00
        E 0 81 37 00
        E 360 90 3b 60
        E 0 91 37 60
        E 120 80 3b 00
        E 0 81 37 00
        E 360 90 3a 60
        E 0 91 36 60
        E 120 80 3a 00
        E 0 81 36 00
        E 360 90 3a 60
        E 0 91 36 60
        E 120 80 3a 00
        E 0 81 36 00
        E 360 91 35 60
        E 120 81 35 00
        E 120 90 35 60
        E 120 80 35 00
        E 120 91 35 60
        E 120 81 35 00
        E 360 91 35 60
        E 120 81 35 00
        E 120 90 37 60
        E 120 80 37 00
        E 120 90 38 60
        E 0 91 35 60
        E 120 80 38 00
        E 0 81 35 00
        E 120 90 37 60
        E 120 80 37 00
        E 120 91 34 60
        E 120 81 34 00
        E 120 90 35 60
        E 120 80 35 00
        E 120 91 34 60
        E 120 81 34 00
        E 360 91 34 60
        E 120 81 34 00
        E 120 90 37 60
        E 120 80 37 00
        E 120 90 38 60
        E 0 91 34 60
        E 120 80 38 00
        E 0 81 34 00
        E 360 91 38 60
        E 120 81 38 00
        E 360 90 35 60
        E 0 91 38 60
        E 120 80 35 00
        E 0 81 38 00
        E 120 90 34 60
        E 120 80 34 00
        E 120 91 38 60
        E 120 81 38 00
        E 120 90 37 60
        E 120 80 37 00
        E 120 91 38 60
        E 120 81 38 00
        E 360 90 3b 60
        E 0 91 37 60
        E 120 80 3b 00
        E 0 81 37 00
        E 360 90 3b 60
        E 0 91 37 60
        E 120 80 3b 00
        E 0 81 37 00
        E 360 90 3a 60
        E 0 91 36 60
        E 120 80 3a 00
        E 0 81 36 00
        E 360 90 3a 60
        E 0 91 36 60
        E 120 80 3a 00
        E 0 81 36 00
        E 4199 b0 7b 00
        GUID {83605DB8-240D-4A84-BD1A-FA5BB55F7C03}
        IGNTEMPO 0 120.00000000 4 4
        SRCCOLOR 10
        VELLANE 132 128 60
        COLORMAP "C:\Program Files\REAPER (x64)\Data\color_maps\rockband_guitarbass.png"
        CFGEDITVIEW -6368.141248 5.043858 13 22 0 0 0
        CFGEDIT 1 1 0 1 1 0 1 1 1 1 1 0.25000000 -8 -8 1544 872 0 2 1 1 0.00000000 0 1 1 0 0.500000 0 0 1.000000 64
        KEYSNAP 0 7 "102030050700" 0 "Pentatonic"
        EVTFILTER 0 -1 -1 -1 -1 0 1 0 0 -1.00000000 -1.00000000
      >
    >
  >
  <TRACK '{4C9FE411-C411-41D3-A3F2-3FAD550D65A5}'
    NAME "keys"
    PEAKCOL 16576
    BEAT -1
    AUTOMODE 0
    VOLPAN 1.00000000000000 0.00000000000000 -1.00000000000000 -1.00000000000000 1.00000000000000
    MUTESOLO 0 0 0
    IPHASE 0
    ISBUS 2 -1
    BUSCOMP 0 0
    SHOWINMIX 1 0.666700 0.500000 1 0.500000 -1 -1 -1
    FREEMODE 0
    SEL 0
    REC 0 0 0 0 0 0 0
    VU 2
    TRACKHEIGHT 0 0
    INQ 0 0 0 0.5000000000 100 0 0 100
    NCHAN 2
    FX 1
    TRACKID {4C9FE411-C411-41D3-A3F2-3FAD550D65A5}
    PERF 0
    MIDIOUT -1
    MAINSEND 1 0
    <ITEM
      POSITION 0.00000000000000
      SNAPOFFS 0.00000000000000
      LENGTH 222.64699999999999
      LOOP 0
      ALLTAKES 0
      SEL 0
      FADEIN 1 0.000000 0.000000 1 0
      FADEOUT 1 0.000000 0.000000 1 0
      MUTE 0
      IGUID {AF9F917C-99FF-4E22-B16D-36DFEBBFF87D}
      IID 13
      NAME "keys.wav"
      VOLPAN 1.000000 0.000000 1.000000 -1.000000
      SOFFS 0.00000000000000
      PLAYRATE 1.00000000000000 1 0.00000000000000 -1
      CHANMODE 0
      GUID {AE6016DF-C84D-46D2-81D3-9C20FC11BE62}
      <SOURCE WAVE
        FILE "wav\keys.wav"
      >
    >
  >
  <TRACK '{24A57105-2FAF-46E5-B30F-EF9F2E8F0BF7}'
    NAME "EVENTS"
    PEAKCOL 16576
    BEAT -1
    AUTOMODE 0
    VOLPAN 1.00000000000000 0.00000000000000 -1.00000000000000 -1.00000000000000 1.00000000000000
    MUTESOLO 0 0 0
    IPHASE 0
    ISBUS 0 0
    BUSCOMP 0 0
    SHOWINMIX 1 0.666700 0.500000 1 0.500000 -1 -1 -1
    FREEMODE 0
    SEL 0
    REC 0 0 0 0 0 0 0
    VU 2
    TRACKHEIGHT 0 0
    INQ 0 0 0 0.5000000000 100 0 0 100
    NCHAN 2
    FX 1
    TRACKID {24A57105-2FAF-46E5-B30F-EF9F2E8F0BF7}
    PERF 0
    MIDIOUT -1
    <MIDINOTENAMES
      0 26 "Hi-Hat"
      0 25 "Snare"
      0 24 "Kick"
    >
    MAINSEND 1 0
    <FXCHAIN
      SHOW 0
      LASTSEL 0
      DOCKED 0
    >
    <ITEM
      POSITION 0.00000000000000
      SNAPOFFS 0.00000000000000
      LENGTH 222.64699999999999
      LOOP 0
      ALLTAKES 0
      SEL 0
      FADEIN 1 0.000000 0.000000 1 0
      FADEOUT 1 0.000000 0.000000 1 0
      MUTE 0
      IGUID {38A6F69C-F79B-4C5B-83F5-A036C09CD1AC}
      IID 9
      NAME "EVENTS"
      VOLPAN 1.000000 0.000000 1.000000 -1.000000
      SOFFS 0.00000000000000 0.00000000000000
      PLAYRATE 1.00000000000000 1 0.00000000000000 -1
      CHANMODE 0
      GUID {6D1E4E2A-3DF0-4DB1-8E83-AE4050C716F4}
      <SOURCE MIDI
        HASDATA 1 480 QN
        POOLEDEVTS {A53F5F2C-14F1-4B29-9B74-999B13E34280}
        <X 0 0
          /wNFVkVOVFM=
        >
        E 0 90 1a 60
        E 120 80 1a 00
        E 360 90 1a 60
        E 120 80 1a 00
        E 360 90 1a 60
        E 120 80 1a 00
        E 120 90 1a 60
        E 120 80 1a 00
        E 120 90 1a 60
        E 120 80 1a 00
        E 120 90 1a 60
        E 120 80 1a 00
        <X 120 0
          /wFbcHJjX3ZlcnNlXzFhXQ==
        >
        <X 0 0
          /wFbY3Jvd2RfbWVsbG93XQ==
        >
        <X 0 0
          /wFbY3Jvd2Rfbm9jbGFwXQ==
        >
        E 0 90 1a 60
        E 120 80 1a 00
        <X 360 0
          /wFbbXVzaWNfc3RhcnRd
        >
        E 0 90 1a 60
        E 120 80 1a 00
        E 360 90 1a 60
        E 120 80 1a 00
        E 360 90 1a 60
        E 120 80 1a 00
        E 360 90 1a 60
        E 120 80 1a 00
        E 360 90 1a 60
        E 120 80 1a 00
        E 360 90 1a 60
        E 120 80 1a 00
        E 360 90 1a 60
        E 120 80 1a 00
        E 360 90 1a 60
        E 120 80 1a 00
        E 360 90 1a 60
        E 120 80 1a 00
        E 360 90 1a 60
        E 120 80 1a 00
        E 360 90 1a 60
        E 120 80 1a 00
        E 360 90 1a 60
        E 120 80 1a 00
        E 360 90 1a 60
        E 120 80 1a 00
        E 360 90 1a 60
        E 120 80 1a 00
        E 360 90 1a 60
        E 120 80 1a 00
        E 360 90 1a 60
        E 120 80 1a 00
        E 360 90 1a 60
        E 120 80 1a 00
        E 360 90 1a 60
        E 120 80 1a 00
        E 360 90 1a 60
        E 120 80 1a 00
        E 360 90 1a 60
        E 120 80 1a 00
        E 360 90 1a 60
        E 120 80 1a 00
        E 360 90 1a 60
        E 120 80 1a 00
        E 360 90 1a 60
        E 120 80 1a 00
        E 360 90 1a 60
        E 120 80 1a 00
        E 360 90 1a 60
        E 120 80 1a 00
        E 360 90 1a 60
        E 120 80 1a 00
        E 360 90 1a 60
        E 120 80 1a 00
        E 360 90 1a 60
        E 120 80 1a 00
        E 360 90 1a 60
        E 120 80 1a 00
        E 360 90 1a 60
        E 120 80 1a 00
        E 360 90 1a 60
        E 120 80 1a 00
        <X 360 0
          /wFbcHJjX3ZlcnNlXzFiXQ==
        >
        E 0 90 1a 60
        E 120 80 1a 00
        E 360 90 1a 60
        E 120 80 1a 00
        E 360 90 1a 60
        E 120 80 1a 00
        E 360 90 1a 60
        E 120 80 1a 00
        E 360 90 1a 60
        E 120 80 1a 00
        E 360 90 1a 60
        E 120 80 1a 00
        E 360 90 1a 60
        E 120 80 1a 00
        E 360 90 1a 60
        E 120 80 1a 00
        E 360 90 1a 60
        E 120 80 1a 00
        E 360 90 1a 60
        E 120 80 1a 00
        E 360 90 1a 60
        E 120 80 1a 00
        E 360 90 1a 60
        E 120 80 1a 00
        E 360 90 1a 60
        E 120 80 1a 00
        E 360 90 1a 60
        E 120 80 1a 00
        E 360 90 1a 60
        E 120 80 1a 00
        E 360 90 1a 60
        E 120 80 1a 00
        E 360 90 1a 60
        E 120 80 1a 00
        E 360 90 1a 60
        E 120 80 1a 00
        E 360 90 1a 60
        E 120 80 1a 00
        E 360 90 1a 60
        E 120 80 1a 00
        E 360 90 1a 60
        E 120 80 1a 00
        E 360 90 1a 60
        E 120 80 1a 00
        E 360 90 1a 60
        E 120 80 1a 00
        E 360 90 1a 60
        E 120 80 1a 00
        E 360 90 1a 60
        E 120 80 1a 00
        E 360 90 1a 60
        E 120 80 1a 00
        E 360 90 1a 60
        E 120 80 1a 00
        E 360 90 1a 60
        E 120 80 1a 00
        E 360 90 1a 60
        E 120 80 1a 00
        E 360 90 1a 60
        E 120 80 1a 00
        E 360 90 1a 60
        E 120 80 1a 00
        E 360 90 1a 60
        E 120 80 1a 00
        <X 360 0
          /wFbcHJjX2Nob3J1c18xXQ==
        >
        E 0 90 1a 60
        E 120 80 1a 00
        E 360 90 1a 60
        E 120 80 1a 00
        E 360 90 1a 60
        E 120 80 1a 00
        E 360 90 1a 60
        E 120 80 1a 00
        E 360 90 1a 60
        E 120 80 1a 00
        E 360 90 1a 60
        E 120 80 1a 00
        E 360 90 1a 60
        E 120 80 1a 00
        E 360 90 1a 60
        E 120 80 1a 00
        E 360 90 1a 60
        E 120 80 1a 00
        E 360 90 1a 60
        E 120 80 1a 00
        E 360 90 1a 60
        E 120 80 1a 00
        E 360 90 1a 60
        E 120 80 1a 00
        E 360 90 1a 60
        E 120 80 1a 00
        E 360 90 1a 60
        E 120 80 1a 00
        E 360 90 1a 60
        E 120 80 1a 00
        E 360 90 1a 60
        E 120 80 1a 00
        E 360 90 1a 60
        E 120 80 1a 00
        E 360 90 1a 60
        E 120 80 1a 00
        E 360 90 1a 60
        E 120 80 1a 00
        E 360 90 1a 60
        E 120 80 1a 00
        E 360 90 1a 60
        E 120 80 1a 00
        E 360 90 1a 60
        E 120 80 1a 00
        E 360 90 1a 60
        E 120 80 1a 00
        E 360 90 1a 60
        E 120 80 1a 00
        E 360 90 1a 60
        E 120 80 1a 00
        E 360 90 1a 60
        E 120 80 1a 00
        E 360 90 1a 60
        E 120 80 1a 00
        E 360 90 1a 60
        E 120 80 1a 00
        E 360 90 1a 60
        E 120 80 1a 00
        E 360 90 1a 60
        E 120 80 1a 00
        E 360 90 1a 60
        E 120 80 1a 00
        E 360 90 1a 60
        E 120 80 1a 00
        <X 360 0
          /wFbcHJjX3ZlcnNlXzJhXQ==
        >
        E 0 90 1a 60
        E 120 80 1a 00
        E 360 90 1a 60
        E 120 80 1a 00
        E 360 90 1a 60
        E 120 80 1a 00
        E 360 90 1a 60
        E 120 80 1a 00
        E 360 90 1a 60
        E 120 80 1a 00
        E 360 90 1a 60
        E 120 80 1a 00
        E 360 90 1a 60
        E 120 80 1a 00
        E 360 90 1a 60
        E 120 80 1a 00
        E 360 90 1a 60
        E 120 80 1a 00
        E 360 90 1a 60
        E 120 80 1a 00
        E 360 90 1a 60
        E 120 80 1a 00
        E 360 90 1a 60
        E 120 80 1a 00
        E 360 90 1a 60
        E 120 80 1a 00
        E 360 90 1a 60
        E 120 80 1a 00
        E 360 90 1a 60
        E 120 80 1a 00
        E 360 90 1a 60
        E 120 80 1a 00
        E 360 90 1a 60
        E 120 80 1a 00
        E 360 90 1a 60
        E 120 80 1a 00
        E 360 90 1a 60
        E 120 80 1a 00
        E 360 90 1a 60
        E 120 80 1a 00
        E 360 90 1a 60
        E 120 80 1a 00
        E 360 90 1a 60
        E 120 80 1a 00
        E 360 90 1a 60
        E 120 80 1a 00
        E 360 90 1a 60
        E 120 80 1a 00
        E 360 90 1a 60
        E 120 80 1a 00
        E 360 90 1a 60
        E 120 80 1a 00
        E 360 90 1a 60
        E 120 80 1a 00
        E 360 90 1a 60
        E 120 80 1a 00
        E 360 90 1a 60
        E 120 80 1a 00
        E 360 90 1a 60
        E 120 80 1a 00
        E 360 90 1a 60
        E 120 80 1a 00
        E 360 90 1a 60
        E 120 80 1a 00
        <X 360 0
          /wFbcHJjX3ZlcnNlXzJiXQ==
        >
        E 0 90 1a 60
        E 120 80 1a 00
        E 360 90 1a 60
        E 120 80 1a 00
        E 360 90 1a 60
        E 120 80 1a 00
        E 360 90 1a 60
        E 120 80 1a 00
        E 360 90 1a 60
        E 120 80 1a 00
        E 360 90 1a 60
        E 120 80 1a 00
        E 360 90 1a 60
        E 120 80 1a 00
        E 360 90 1a 60
        E 120 80 1a 00
        E 360 90 1a 60
        E 120 80 1a 00
        E 360 90 1a 60
        E 120 80 1a 00
        E 360 90 1a 60
        E 120 80 1a 00
        E 360 90 1a 60
        E 120 80 1a 00
        E 360 90 1a 60
        E 120 80 1a 00
        E 360 90 1a 60
        E 120 80 1a 00
        E 360 90 1a 60
        E 120 80 1a 00
        E 360 90 1a 60
        E 120 80 1a 00
        E 360 90 1a 60
        E 120 80 1a 00
        E 360 90 1a 60
        E 120 80 1a 00
        E 360 90 1a 60
        E 120 80 1a 00
        E 360 90 1a 60
        E 120 80 1a 00
        E 360 90 1a 60
        E 120 80 1a 00
        E 360 90 1a 60
        E 120 80 1a 00
        E 360 90 1a 60
        E 120 80 1a 00
        E 360 90 1a 60
        E 120 80 1a 00
        E 360 90 1a 60
        E 120 80 1a 00
        E 360 90 1a 60
        E 120 80 1a 00
        E 360 90 1a 60
        E 120 80 1a 00
        E 360 90 1a 60
        E 120 80 1a 00
        E 360 90 1a 60
        E 120 80 1a 00
        E 360 90 1a 60
        E 120 80 1a 00
        E 360 90 1a 60
        E 120 80 1a 00
        E 360 90 1a 60
        E 120 80 1a 00
        <X 360 0
          /wFbcHJjX291dHJvX2Nob3J1c10=
        >
        E 0 90 1a 60
        E 120 80 1a 00
        E 360 90 1a 60
        E 120 80 1a 00
        E 360 90 1a 60
        E 120 80 1a 00
        E 360 90 1a 60
        E 120 80 1a 00
        E 360 90 1a 60
        E 120 80 1a 00
        E 360 90 1a 60
        E 120 80 1a 00
        E 360 90 1a 60
        E 120 80 1a 00
        E 360 90 1a 60
        E 120 80 1a 00
        E 360 90 1a 60
        E 120 80 1a 00
        E 360 90 1a 60
        E 120 80 1a 00
        E 360 90 1a 60
        E 120 80 1a 00
        E 360 90 1a 60
        E 120 80 1a 00
        E 360 90 1a 60
        E 120 80 1a 00
        E 360 90 1a 60
        E 120 80 1a 00
        E 360 90 1a 60
        E 120 80 1a 00
        E 360 90 1a 60
        E 120 80 1a 00
        E 360 90 1a 60
        E 120 80 1a 00
        E 360 90 1a 60
        E 120 80 1a 00
        E 360 90 1a 60
        E 120 80 1a 00
        E 360 90 1a 60
        E 120 80 1a 00
        E 360 90 1a 60
        E 120 80 1a 00
        E 360 90 1a 60
        E 120 80 1a 00
        E 360 90 1a 60
        E 120 80 1a 00
        E 360 90 1a 60
        E 120 80 1a 00
        E 360 90 1a 60
        E 120 80 1a 00
        E 360 90 1a 60
        E 120 80 1a 00
        E 360 90 1a 60
        E 120 80 1a 00
        E 360 90 1a 60
        E 120 80 1a 00
        E 360 90 1a 60
        E 120 80 1a 00
        E 360 90 1a 60
        E 120 80 1a 00
        E 360 90 1a 60
        E 120 80 1a 00
        E 360 90 1a 60
        E 120 80 1a 00
        <X 840 0
          /wFbY3Jvd2RfcmVhbHRpbWVd
        >
        <X 0 0
          /wFbbXVzaWNfZW5kXQ==
        >
        <X 3355 0
          /wFbZW5kXQ==
        >
        E 5 b0 7b 00
        GUID {943ACCBC-2268-42BC-83A7-B42833B92B35}
        IGNTEMPO 0 120.00000000 4 4
        SRCCOLOR 11
        VELLANE 132 128 60
        COLORMAP "C:\Program Files\REAPER (x64)\Data\color_maps\rockband_guitarbass.png"
        CFGEDITVIEW -6368.141248 5.043858 0 48 0 0 0
        CFGEDIT 1 1 0 1 1 0 1 1 1 1 1 0.25000000 -8 -8 1544 872 0 2 1 1 0.00000000 0 1 1 0 0.500000 0 0 1.000000 64
        KEYSNAP 0 7 "102030050700" 0 "Pentatonic"
        EVTFILTER 0 -1 -1 -1 -1 0 1 0 0 -1.00000000 -1.00000000
      >
    >
  >
  <TRACK '{23C841C4-0666-48B6-AF08-90A5C7A97F1C}'
    NAME "VENUE"
    PEAKCOL 16576
    BEAT -1
    AUTOMODE 0
    VOLPAN 1.00000000000000 0.00000000000000 -1.00000000000000 -1.00000000000000 1.00000000000000
    MUTESOLO 0 0 0
    IPHASE 0
    ISBUS 1 1
    BUSCOMP 1 0
    SHOWINMIX 1 0.666700 0.500000 1 0.500000 -1 -1 -1
    FREEMODE 0
    SEL 0
    REC 0 0 0 0 0 0 0
    VU 2
    TRACKHEIGHT 0 0
    INQ 0 0 0 0.5000000000 100 0 0 100
    NCHAN 2
    FX 1
    TRACKID {23C841C4-0666-48B6-AF08-90A5C7A97F1C}
    PERF 0
    MIDIOUT -1
    <MIDINOTENAMES
      0 87 "Guitarist Sing Along"
      0 86 "Drummer Sing Along"
      0 85 "Bassist Sing Along"
      0 84 "----"
      0 41 "Spotlight on Keys"
      0 40 "Spotlight on Vocals"
      0 39 "Spotlight on Guitar"
      0 38 "Spotlight on Drums"
      0 37 "Spotlight on Bass"
    >
    MAINSEND 1 0
    <FXCHAIN
      SHOW 0
      LASTSEL 0
      DOCKED 0
    >
    <ITEM
      POSITION 0.00000000000000
      SNAPOFFS 0.00000000000000
      LENGTH 222.64699999999999
      LOOP 0
      ALLTAKES 0
      SEL 0
      FADEIN 1 0.000000 0.000000 1 0
      FADEOUT 1 0.000000 0.000000 1 0
      MUTE 0
      IGUID {5B65896A-8311-442A-B9E9-D1B643C0EBDF}
      IID 10
      NAME "VENUE"
      VOLPAN 1.000000 0.000000 1.000000 -1.000000
      SOFFS 0.00000000000000 0.00000000000000
      PLAYRATE 1.00000000000000 1 0.00000000000000 -1
      CHANMODE 0
      GUID {D4BDB657-2AAB-4FE9-B0B8-59F8DFDE8226}
      <SOURCE MIDI
        HASDATA 1 480 QN
        POOLEDEVTS {C917BD54-1438-402F-8070-E9FF1822E487}
        <X 0 0
          /wNWRU5VRQ==
        >
        <X 0 0
          /wFbY29vcF9hbGxfZmFyXQ==
        >
        <X 0 0
          /wFbbGlnaHRpbmcgKHNpbGhvdWV0dGVzKV0=
        >
        <X 0 0
          /wFbY29udHJhc3RfYS5wcF0=
        >
        E 2400 90 28 60
        E 0 90 29 60
        <X 480 0
          /wFbY29vcF92X25lYXJd
        >
        <X 3840 0
          /wFbY29vcF9rX25lYXJd
        >
        E 0 80 28 00
        <X 960 0
          /wFbY29vcF9rX2JlaGluZF0=
        >
        <X 1920 0
          /wFbY29vcF9hbGxfZmFyXQ==
        >
        E 480 90 28 60
        <X 1440 0
          /wFbY29vcF9hbGxfZmFyXQ==
        >
        <X 1680 0
          /wFbY29vcF92X25lYXJd
        >
        <X 1200 0
          /wFbY29vcF9rX2Nsb3NldXBfaGFuZF0=
        >
        E 480 80 28 00
        E 2880 90 28 60
        <X 480 0
          /wFbY29vcF92X25lYXJd
        >
        <X 2640 0
          /wFbY29vcF92X25lYXJd
        >
        <X 1200 0
          /wFbY29vcF9rX2Nsb3NldXBfaGFuZF0=
        >
        E 0 80 28 00
        <X 2880 0
          /wFbY29vcF9mcm9udF9uZWFyXQ==
        >
        E 480 90 28 60
        <X 3120 0
          /wFbY29vcF92X2JlaGluZF0=
        >
        <X 1920 0
          /wFbY29vcF92X25lYXJd
        >
        <X 720 0
          /wFbY29vcF9rX2Nsb3NldXBfaGFuZF0=
        >
        E 480 80 28 00
        <X 960 0
          /wFbY29vcF9mcm9udF9uZWFyXQ==
        >
        E 480 90 28 60
        <X 480 0
          /wFbY29vcF92X25lYXJd
        >
        <X 2880 0
          /wFbY29vcF9rX2JlaGluZF0=
        >
        <X 960 0
          /wFbY29vcF92X25lYXJd
        >
        <X 960 0
          /wFbY29vcF92X25lYXJd
        >
        <X 1920 0
          /wFbY29vcF9rX2JlaGluZF0=
        >
        <X 1920 0
          /wFbY29vcF9hbGxfZmFyXQ==
        >
        <X 1920 0
          /wFbY29vcF9hbGxfYmVoaW5kXQ==
        >
        <X 960 0
          /wFbY29vcF92X25lYXJd
        >
        <X 960 0
          /wFbY29vcF92X25lYXJd
        >
        <X 1920 0
          /wFbY29vcF9hbGxfYmVoaW5kXQ==
        >
        E 0 80 28 00
        E 720 90 28 60
        <X 3120 0
          /wFbY29vcF92X2Nsb3NldXBd
        >
        E 960 80 28 00
        <X 960 0
          /wFbY29vcF9rX2JlaGluZF0=
        >
        <X 960 0
          /wFbY29vcF9rX2Nsb3NldXBfaGFuZF0=
        >
        <X 960 0
          /wFbY29vcF9rX2Nsb3NldXBfaGVhZF0=
        >
        E 480 90 28 60
        <X 1440 0
          /wFbY29vcF9hbGxfYmVoaW5kXQ==
        >
        <X 1680 0
          /wFbY29vcF92X2Nsb3NldXBd
        >
        E 1200 80 28 00
        <X 960 0
          /wFbY29vcF9rX2Nsb3NldXBfaGVhZF0=
        >
        <X 1440 0
          /wFbY29vcF9rX2Nsb3NldXBfaGFuZF0=
        >
        E 240 90 28 60
        <X 240 0
          /wFbY29vcF9mcm9udF9iZWhpbmRd
        >
        <X 1920 0
          /wFbY29vcF9rX2Nsb3NldXBfaGVhZF0=
        >
        <X 1680 0
          /wFbY29vcF92X2Nsb3NldXBd
        >
        E 1200 80 28 00
        <X 960 0
          /wFbY29vcF9rX2Nsb3NldXBfaGVhZF0=
        >
        <X 1680 0
          /wFbY29vcF9rX2Nsb3NldXBfaGFuZF0=
        >
        <X 240 0
          /wFbY29vcF9hbGxfZmFyXQ==
        >
        E 480 90 28 60
        <X 240 0
          /wFbY29vcF92X25lYXJd
        >
        <X 6000 0
          /wFbY29vcF9rX2Nsb3NldXBfaGFuZF0=
        >
        <X 960 0
          /wFbY29vcF92X25lYXJd
        >
        <X 3840 0
          /wFbY29vcF92X25lYXJd
        >
        <X 1920 0
          /wFbY29vcF92X25lYXJd
        >
        <X 1920 0
          /wFbY29vcF9rX2Nsb3NldXBfaGFuZF0=
        >
        <X 1920 0
          /wFbY29vcF9rX2Nsb3NldXBfaGFuZF0=
        >
        <X 1920 0
          /wFbY29vcF9hbGxfZmFyXQ==
        >
        <X 1920 0
          /wFbY29vcF92X25lYXJd
        >
        <X 480 0
          /wFbY29vcF92X25lYXJd
        >
        <X 480 0
          /wFbY29vcF92X25lYXJd
        >
        <X 480 0
          /wFbY29vcF92X25lYXJd
        >
        E 240 80 29 00
        E 0 80 28 00
        <X 239 0
          /wFbY29vcF9hbGxfYmVoaW5kXQ==
        >
        E 3840 b0 7b 00
        GUID {B15D10B0-746F-4760-8C4D-A74349AA9BA2}
        IGNTEMPO 0 120.00000000 4 4
        SRCCOLOR 12
        VELLANE 132 128 60
        COLORMAP "C:\Program Files\REAPER (x64)\Data\color_maps\rockband_guitarbass.png"
        CFGEDITVIEW -6368.141248 5.043858 0 48 0 0 0
        CFGEDIT 1 1 0 1 1 0 1 1 1 1 1 0.25000000 -8 -8 1544 872 0 2 1 1 0.00000000 0 1 1 0 0.500000 0 0 1.000000 64
        KEYSNAP 0 7 "102030050700" 0 "Pentatonic"
        EVTFILTER 0 -1 -1 -1 -1 0 1 0 0 -1.00000000 -1.00000000
      >
    >
  >
  <TRACK '{E46F6B4F-6D1C-4C59-B475-2623256EED9F}'
    NAME "CAMERA"
    PEAKCOL 16576
    BEAT -1
    AUTOMODE 0
    VOLPAN 1.00000000000000 0.00000000000000 -1.00000000000000 -1.00000000000000 1.00000000000000
    MUTESOLO 1 0 0
    IPHASE 0
    ISBUS 0 0
    BUSCOMP 0 0
    SHOWINMIX 1 0.666700 0.500000 1 0.500000 -1 -1 -1
    FREEMODE 0
    SEL 0
    REC 0 0 0 0 0 0 0
    VU 2
    TRACKHEIGHT 0 1
    INQ 0 0 0 0.5000000000 100 0 0 100
    NCHAN 2
    FX 1
    TRACKID {E46F6B4F-6D1C-4C59-B475-2623256EED9F}
    PERF 0
    MIDIOUT -1
    <MIDINOTENAMES
      0 102 "RANDOM"
      0 100 "All_Behind"
      0 99 "All_Far"
      0 98 "All_Near"
      0 96 "Front_Behind"
      0 95 "Front_Near"
      0 93 "D_Behind"
      0 92 "D_Near"
      0 91 "V_Behind"
      0 90 "V_Near"
      0 89 "B_Behind"
      0 88 "B_Near"
      0 87 "G_Behind"
      0 86 "G_Near"
      0 85 "K_Behind"
      0 84 "K_Near"
      0 82 "D_Hand"
      0 81 "D_Head"
      0 80 "V_Closeup"
      0 79 "B_Hand"
      0 78 "B_Head"
      0 77 "G_Hand"
      0 76 "G_Head"
      0 75 "K_Hand"
      0 74 "K_Head"
      0 72 "DV_Near"
      0 71 "BD_Near"
      0 70 "DG_Near"
      0 69 "BV_Behind"
      0 68 "BV_Near"
      0 67 "GV_Behind"
      0 66 "GV_Near"
      0 65 "KV_Behind"
      0 64 "KV_Near"
      0 63 "BG_Behind"
      0 62 "BG_Near"
      0 61 "BK_Behind"
      0 60 "BK_Near"
      0 59 "GK_Behind"
      0 58 "GK_Near"
      0 56 "D_All"
      0 55 "D_All_Cam"
      0 54 "D_All_LT*"
      0 53 "D_All_Yeah"
      0 52 "D_BRE"
      0 51 "D_BRE_Jump"
      0 49 "D_Drums_NP"
      0 48 "D_Bass_NP"
      0 47 "D_Gtr_NP"
      0 46 "D_Vox_NP"
      0 45 "D_Keys_NP"
      0 43 "D_Drums"
      0 42 "D_Drums_LT*"
      0 41 "D_Vocals"
      0 40 "D_Bass"
      0 39 "D_Gtr"
      0 38 "D_Keys"
      0 36 "D_Vox_Cam_PR"
      0 35 "D_Vox_Cam_PT"
      0 34 "D_Gtr_Cam_PR"
      0 33 "D_Gtr_Cam_PT"
      0 32 "D_Keys_Cam"
      0 31 "D_Bass_Cam"
      0 29 "D_Stagedive"
      0 28 "D_Crowdsurf"
      0 26 "D_Vox_CLS"
      0 25 "D_Bass_CLS*"
      0 24 "D_Gtr_CLS*"
      0 23 "D_Drums_KD*"
      0 21 "D_Drums_Point"
      0 20 "D_Crowd_Gtr"
      0 19 "D_Crowd_Bass"
      0 17 "D_Duo_Drums"
      0 16 "D_Duo_Gtr"
      0 15 "D_Duo_Bass"
      0 14 "D_Duo_KV"
      0 13 "D_Duo_GB"
      0 12 "D_Duo_KB"
      0 11 "D_Duo_KG"
      0 10 "D_Crowd*"
    >
    MAINSEND 1 0
    <FXCHAIN
      SHOW 0
      LASTSEL 0
      DOCKED 0
    >
    <ITEM
      POSITION 0.00000000000000
      SNAPOFFS 0.00000000000000
      LENGTH 222.64701199999999
      LOOP 0
      ALLTAKES 0
      SEL 0
      FADEIN 1 0.000000 0.000000 1 0
      FADEOUT 1 0.000000 0.000000 1 0
      MUTE 0
      IGUID {48BDB317-ABF4-46BF-82BE-9976F929B8CD}
      IID 15
      NAME "CAMERA"
      VOLPAN 1.000000 0.000000 1.000000 -1.000000
      SOFFS 0.00000000000000 0.00000000000000
      PLAYRATE 1.00000000000000 1 0.00000000000000 -1
      CHANMODE 0
      GUID {89143865-EBB2-432F-AEFA-7A2B888CE742}
      <SOURCE MIDI
        HASDATA 1 480 QN
        POOLEDEVTS {B27F681A-F4C1-44A4-9BDD-35EE598FC62F}
        E 0 90 63 40
        E 60 80 63 00
        E 2820 90 5a 40
        E 60 80 5a 00
        E 3780 90 54 40
        E 60 80 54 00
        E 900 90 55 40
        E 60 80 55 00
        E 1860 90 63 40
        E 60 80 63 00
        E 1860 90 63 40
        E 60 80 63 00
        E 1620 90 5a 40
        E 60 80 5a 00
        E 1140 90 4b 40
        E 60 80 4b 00
        E 3780 90 5a 40
        E 60 80 5a 00
        E 2580 90 5a 40
        E 60 80 5a 00
        E 1140 90 4b 40
        E 60 80 4b 00
        E 2820 90 5f 40
        E 60 80 5f 00
        E 3540 90 5b 40
        E 60 80 5b 00
        E 1860 90 5a 40
        E 60 80 5a 00
        E 660 90 4b 40
        E 60 80 4b 00
        E 1380 90 5f 40
        E 60 80 5f 00
        E 900 90 5a 40
        E 60 80 5a 00
        E 2820 90 55 40
        E 60 80 55 00
        E 900 90 5a 40
        E 60 80 5a 00
        E 900 90 5a 40
        E 60 80 5a 00
        E 1860 90 55 40
        E 60 80 55 00
        E 1860 90 63 40
        E 60 80 63 00
        E 1860 90 64 40
        E 60 80 64 00
        E 900 90 5a 40
        E 60 80 5a 00
        E 900 90 5a 40
        E 60 80 5a 00
        E 1860 90 64 40
        E 60 80 64 00
        E 3780 90 50 40
        E 60 80 50 00
        E 1860 90 55 40
        E 60 80 55 00
        E 900 90 4b 40
        E 60 80 4b 00
        E 900 90 4a 40
        E 60 80 4a 00
        E 1860 90 64 40
        E 60 80 64 00
        E 1620 90 50 40
        E 60 80 50 00
        E 2100 90 4a 40
        E 60 80 4a 00
        E 1380 90 4b 40
        E 60 80 4b 00
        E 420 90 60 40
        E 60 80 60 00
        E 1860 90 4a 40
        E 60 80 4a 00
        E 1620 90 50 40
        E 60 80 50 00
        E 2100 90 4a 40
        E 60 80 4a 00
        E 1620 90 4b 40
        E 60 80 4b 00
        E 180 90 63 40
        E 60 80 63 00
        E 660 90 5a 40
        E 60 80 5a 00
        E 5940 90 4b 40
        E 60 80 4b 00
        E 900 90 5a 40
        E 60 80 5a 00
        E 3780 90 5a 40
        E 60 80 5a 00
        E 1860 90 5a 40
        E 60 80 5a 00
        E 1860 90 4b 40
        E 60 80 4b 00
        E 1860 90 4b 40
        E 60 80 4b 00
        E 1860 90 63 40
        E 60 80 63 00
        E 1860 90 5a 40
        E 60 80 5a 00
        E 420 90 5a 40
        E 60 80 5a 00
        E 420 90 5a 40
        E 60 80 5a 00
        E 420 90 5a 40
        E 60 80 5a 00
        E 419 90 64 40
        E 60 80 64 00
        GUID {F0C8AB88-5C71-44E2-88BA-E32360433E8E}
        IGNTEMPO 0 120.00000000 4 4
        SRCCOLOR 14
        VELLANE 132 128 60
        COLORMAP "C:\Program Files\REAPER (x64)\Data\color_maps\rockband_guitarbass.png"
        CFGEDITVIEW -6368.141248 5.043858 31 12 0 0 0
        CFGEDIT 1 1 0 1 1 0 1 1 1 1 1 0.25000000 -8 -8 1544 872 0 2 1 1 0.00000000 0 1 1 0 0.500000 0 0 1.000000 64
        KEYSNAP 0 7 "102030050700" 0 "Pentatonic"
        EVTFILTER 0 -1 -1 -1 -1 0 1 0 0 -1.00000000 -1.00000000
      >
    >
  >
  <TRACK '{9C14D092-49F2-4E06-B87C-76408B25D69C}'
    NAME "LIGHTING"
    PEAKCOL 16576
    BEAT -1
    AUTOMODE 0
    VOLPAN 1.00000000000000 0.00000000000000 -1.00000000000000 -1.00000000000000 1.00000000000000
    MUTESOLO 1 0 0
    IPHASE 0
    ISBUS 2 -1
    BUSCOMP 0 0
    SHOWINMIX 1 0.666700 0.500000 1 0.500000 -1 -1 -1
    FREEMODE 0
    SEL 0
    REC 0 0 0 0 0 0 0
    VU 2
    TRACKHEIGHT 0 1
    INQ 0 0 0 0.5000000000 100 0 0 100
    NCHAN 2
    FX 1
    TRACKID {9C14D092-49F2-4E06-B87C-76408B25D69C}
    PERF 0
    MIDIOUT -1
    <MIDINOTENAMES
      0 71 "Default"
      0 70 "Color_Muted"
      0 69 "Video_Grainy"
      0 68 "16mm Film"
      0 67 "Shitty_TV"
      0 66 "Bloom"
      0 65 "Sepia_Ink"
      0 64 "Silvertone"
      0 63 "Film_BW"
      0 62 "Video_BW"
      0 61 "Contrast BW"
      0 60 "Photocopy"
      0 59 "Blue_Filter"
      0 58 "Desat_Blue"
      0 57 "Video_Security"
      0 55 "Bright"
      0 54 "Posterize"
      0 53 "Clean_Trails"
      0 52 "Video_Trails"
      0 51 "Flicker_Trails"
      0 50 "Desat_Posterize"
      0 49 "Film_Contrast"
      0 48 "Film_Contrast_Blue"
      0 47 "Film_Contrast_Green"
      0 46 "Film_Contrast_Red"
      0 45 "Horror_Movie"
      0 44 "Photo_Negative"
      0 43 "Mirror"
      0 42 "Psych_Blue_Red"
      0 41 "Space_Woosh"
      0 39 "Verse"
      0 38 "Chorus"
      0 37 "Manual_Cool"
      0 36 "Manual_Warm"
      0 35 "Dischord"
      0 34 "Stomp"
      0 32 "first"
      0 31 "prev"
      0 30 "next"
      0 28 "Loop_Cool"
      0 27 "Loop_Warm"
      0 26 "Harmony"
      0 25 "Frenzy"
      0 24 "Silhouettes"
      0 23 "Silhouettes_Spot"
      0 22 "Searchlights"
      0 21 "Sweep"
      0 20 "Strobe_Slow"
      0 19 "Strobe_Fast"
      0 18 "Blackout_Slow"
      0 17 "Blackout_Fast"
      0 16 "Blackout_Spot"
      0 15 "Flare_Slow"
      0 14 "Flare_Fast"
      0 13 "BRE"
      0 11 "BONUSFX"
      0 10 "BONUSFX_Opt"
      0 8 "STROBE"
    >
    MAINSEND 1 0
    <FXCHAIN
      SHOW 0
      LASTSEL 0
      DOCKED 0
    >
    <ITEM
      POSITION 0.00000000000000
      SNAPOFFS 0.00000000000000
      LENGTH 222.64701199999999
      LOOP 0
      ALLTAKES 0
      SEL 0
      FADEIN 1 0.000000 0.000000 1 0
      FADEOUT 1 0.000000 0.000000 1 0
      MUTE 0
      IGUID {8D8CF358-B768-409F-AFAE-43E95E5514BD}
      IID 16
      NAME "LIGHTING"
      VOLPAN 1.000000 0.000000 1.000000 -1.000000
      SOFFS 0.00000000000000 0.00000000000000
      PLAYRATE 1.00000000000000 1 0.00000000000000 -1
      CHANMODE 0
      GUID {99056A67-B24D-47CF-A486-FA597F17F008}
      <SOURCE MIDI
        HASDATA 1 480 QN
        POOLEDEVTS {FEE41344-586B-439E-A3EA-E20EDD56B745}
        E 0 90 3d 40
        E 0 90 18 40
        GUID {1269F7B6-ECC7-4E4E-BF9D-2E6BAA25B243}
        IGNTEMPO 0 120.00000000 4 4
        SRCCOLOR 15
        VELLANE 132 128 60
        COLORMAP "C:\Program Files\REAPER (x64)\Data\color_maps\rockband_guitarbass.png"
        CFGEDITVIEW -6368.141248 5.043858 0 12 0 0 0
        CFGEDIT 1 1 0 1 1 0 1 1 1 1 1 0.25000000 -8 -8 1544 872 0 2 1 1 0.00000000 0 1 1 0 0.500000 0 0 1.000000 64
        KEYSNAP 0 7 "102030050700" 0 "Pentatonic"
        EVTFILTER 0 -1 -1 -1 -1 0 1 0 0 -1.00000000 -1.00000000
      >
    >
  >
  <TRACK '{62199DE5-601F-4B73-802C-85F487C782A8}'
    NAME "BEAT"
    PEAKCOL 16576
    BEAT -1
    AUTOMODE 0
    VOLPAN 1.00000000000000 0.00000000000000 -1.00000000000000 -1.00000000000000 1.00000000000000
    MUTESOLO 0 0 0
    IPHASE 0
    ISBUS 0 0
    BUSCOMP 0 0
    SHOWINMIX 1 0.666700 0.500000 1 0.500000 -1 -1 -1
    FREEMODE 0
    SEL 0
    REC 0 0 0 0 0 0 0
    VU 2
    TRACKHEIGHT 0 0
    INQ 0 0 0 0.5000000000 100 0 0 100
    NCHAN 2
    FX 1
    TRACKID {62199DE5-601F-4B73-802C-85F487C782A8}
    PERF 0
    MIDIOUT -1
    <MIDINOTENAMES
      0 13 "Up Beats"
      0 12 "Downbeat"
    >
    MAINSEND 1 0
    <FXCHAIN
      SHOW 0
      LASTSEL 0
      DOCKED 0
    >
    <ITEM
      POSITION 0.00000000000000
      SNAPOFFS 0.00000000000000
      LENGTH 222.64699999999999
      LOOP 0
      ALLTAKES 0
      SEL 0
      FADEIN 1 0.000000 0.000000 1 0
      FADEOUT 1 0.000000 0.000000 1 0
      MUTE 0
      IGUID {103E798D-78F7-4101-9706-40688A8D958F}
      IID 11
      NAME "BEAT"
      VOLPAN 1.000000 0.000000 1.000000 -1.000000
      SOFFS 0.00000000000000 0.00000000000000
      PLAYRATE 1.00000000000000 1 0.00000000000000 -1
      CHANMODE 0
      GUID {A25BDB4C-62CA-4876-A90C-886883CA739E}
      <SOURCE MIDI
        HASDATA 1 480 QN
        POOLEDEVTS {E51586AC-6AFE-442E-93B1-002B2B3F62AB}
        <X 0 0
          /wNCRUFU
        >
        E 0 96 0c 64
        E 120 86 0c 00
        E 360 96 0d 64
        E 120 86 0d 00
        E 360 96 0d 64
        E 120 86 0d 00
        E 360 96 0d 64
        E 120 86 0d 00
        E 360 96 0c 64
        E 120 86 0c 00
        E 360 96 0d 64
        E 120 86 0d 00
        E 360 96 0d 64
        E 120 86 0d 00
        E 360 96 0d 64
        E 120 86 0d 00
        E 360 96 0c 64
        E 120 86 0c 00
        E 360 96 0d 64
        E 120 86 0d 00
        E 360 96 0d 64
        E 120 86 0d 00
        E 360 96 0d 64
        E 120 86 0d 00
        E 360 96 0c 64
        E 120 86 0c 00
        E 360 96 0d 64
        E 120 86 0d 00
        E 360 96 0d 64
        E 120 86 0d 00
        E 360 96 0d 64
        E 120 86 0d 00
        E 360 96 0c 64
        E 120 86 0c 00
        E 360 96 0d 64
        E 120 86 0d 00
        E 360 96 0d 64
        E 120 86 0d 00
        E 360 96 0d 64
        E 120 86 0d 00
        E 360 96 0c 64
        E 120 86 0c 00
        E 360 96 0d 64
        E 120 86 0d 00
        E 360 96 0d 64
        E 120 86 0d 00
        E 360 96 0d 64
        E 120 86 0d 00
        E 360 96 0c 64
        E 120 86 0c 00
        E 360 96 0d 64
        E 120 86 0d 00
        E 360 96 0d 64
        E 120 86 0d 00
        E 360 96 0d 64
        E 120 86 0d 00
        E 360 96 0c 64
        E 120 86 0c 00
        E 360 96 0d 64
        E 120 86 0d 00
        E 360 96 0d 64
        E 120 86 0d 00
        E 360 96 0d 64
        E 120 86 0d 00
        E 360 96 0c 64
        E 120 86 0c 00
        E 360 96 0d 64
        E 120 86 0d 00
        E 360 96 0d 64
        E 120 86 0d 00
        E 360 96 0d 64
        E 120 86 0d 00
        E 360 96 0c 64
        E 120 86 0c 00
        E 360 96 0d 64
        E 120 86 0d 00
        E 360 96 0d 64
        E 120 86 0d 00
        E 360 96 0d 64
        E 120 86 0d 00
        E 360 96 0c 64
        E 120 86 0c 00
        E 360 96 0d 64
        E 120 86 0d 00
        E 360 96 0d 64
        E 120 86 0d 00
        E 360 96 0d 64
        E 120 86 0d 00
        E 360 96 0c 64
        E 120 86 0c 00
        E 360 96 0d 64
        E 120 86 0d 00
        E 360 96 0d 64
        E 120 86 0d 00
        E 360 96 0d 64
        E 120 86 0d 00
        E 360 96 0c 64
        E 120 86 0c 00
        E 360 96 0d 64
        E 120 86 0d 00
        E 360 96 0d 64
        E 120 86 0d 00
        E 360 96 0d 64
        E 120 86 0d 00
        E 360 96 0c 64
        E 120 86 0c 00
        E 360 96 0d 64
        E 120 86 0d 00
        E 360 96 0d 64
        E 120 86 0d 00
        E 360 96 0d 64
        E 120 86 0d 00
        E 360 96 0c 64
        E 120 86 0c 00
        E 360 96 0d 64
        E 120 86 0d 00
        E 360 96 0d 64
        E 120 86 0d 00
        E 360 96 0d 64
        E 120 86 0d 00
        E 360 96 0c 64
        E 120 86 0c 00
        E 360 96 0d 64
        E 120 86 0d 00
        E 360 96 0d 64
        E 120 86 0d 00
        E 360 96 0d 64
        E 120 86 0d 00
        E 360 96 0c 64
        E 120 86 0c 00
        E 360 96 0d 64
        E 120 86 0d 00
        E 360 96 0d 64
        E 120 86 0d 00
        E 360 96 0d 64
        E 120 86 0d 00
        E 360 96 0c 64
        E 120 86 0c 00
        E 360 96 0d 64
        E 120 86 0d 00
        E 360 96 0d 64
        E 120 86 0d 00
        E 360 96 0d 64
        E 120 86 0d 00
        E 360 96 0c 64
        E 120 86 0c 00
        E 360 96 0d 64
        E 120 86 0d 00
        E 360 96 0d 64
        E 120 86 0d 00
        E 360 96 0d 64
        E 120 86 0d 00
        E 360 96 0c 64
        E 120 86 0c 00
        E 360 96 0d 64
        E 120 86 0d 00
        E 360 96 0d 64
        E 120 86 0d 00
        E 360 96 0d 64
        E 120 86 0d 00
        E 360 96 0c 64
        E 120 86 0c 00
        E 360 96 0d 64
        E 120 86 0d 00
        E 360 96 0d 64
        E 120 86 0d 00
        E 360 96 0d 64
        E 120 86 0d 00
        E 360 96 0c 64
        E 120 86 0c 00
        E 360 96 0d 64
        E 120 86 0d 00
        E 360 96 0d 64
        E 120 86 0d 00
        E 360 96 0d 64
        E 120 86 0d 00
        E 360 96 0c 64
        E 120 86 0c 00
        E 360 96 0d 64
        E 120 86 0d 00
        E 360 96 0d 64
        E 120 86 0d 00
        E 360 96 0d 64
        E 120 86 0d 00
        E 360 96 0c 64
        E 120 86 0c 00
        E 360 96 0d 64
        E 120 86 0d 00
        E 360 96 0d 64
        E 120 86 0d 00
        E 360 96 0d 64
        E 120 86 0d 00
        E 360 96 0c 64
        E 120 86 0c 00
        E 360 96 0d 64
        E 120 86 0d 00
        E 360 96 0d 64
        E 120 86 0d 00
        E 360 96 0d 64
        E 120 86 0d 00
        E 360 96 0c 64
        E 120 86 0c 00
        E 360 96 0d 64
        E 120 86 0d 00
        E 360 96 0d 64
        E 120 86 0d 00
        E 360 96 0d 64
        E 120 86 0d 00
        E 360 96 0c 64
        E 120 86 0c 00
        E 360 96 0d 64
        E 120 86 0d 00
        E 360 96 0d 64
        E 120 86 0d 00
        E 360 96 0d 64
        E 120 86 0d 00
        E 360 96 0c 64
        E 120 86 0c 00
        E 360 96 0d 64
        E 120 86 0d 00
        E 360 96 0d 64
        E 120 86 0d 00
        E 360 96 0d 64
        E 120 86 0d 00
        E 360 96 0c 64
        E 120 86 0c 00
        E 360 96 0d 64
        E 120 86 0d 00
        E 360 96 0d 64
        E 120 86 0d 00
        E 360 96 0d 64
        E 120 86 0d 00
        E 360 96 0c 64
        E 120 86 0c 00
        E 360 96 0d 64
        E 120 86 0d 00
        E 360 96 0d 64
        E 120 86 0d 00
        E 360 96 0d 64
        E 120 86 0d 00
        E 360 96 0c 64
        E 120 86 0c 00
        E 360 96 0d 64
        E 120 86 0d 00
        E 360 96 0d 64
        E 120 86 0d 00
        E 360 96 0d 64
        E 120 86 0d 00
        E 360 96 0c 64
        E 120 86 0c 00
        E 360 96 0d 64
        E 120 86 0d 00
        E 360 96 0d 64
        E 120 86 0d 00
        E 360 96 0d 64
        E 120 86 0d 00
        E 360 96 0c 64
        E 120 86 0c 00
        E 360 96 0d 64
        E 120 86 0d 00
        E 360 96 0d 64
        E 120 86 0d 00
        E 360 96 0d 64
        E 120 86 0d 00
        E 360 96 0c 64
        E 120 86 0c 00
        E 360 96 0d 64
        E 120 86 0d 00
        E 360 96 0d 64
        E 120 86 0d 00
        E 360 96 0d 64
        E 120 86 0d 00
        E 360 96 0c 64
        E 120 86 0c 00
        E 360 96 0d 64
        E 120 86 0d 00
        E 360 96 0d 64
        E 120 86 0d 00
        E 360 96 0d 64
        E 120 86 0d 00
        E 360 96 0c 64
        E 120 86 0c 00
        E 360 96 0d 64
        E 120 86 0d 00
        E 360 96 0d 64
        E 120 86 0d 00
        E 360 96 0d 64
        E 120 86 0d 00
        E 360 96 0c 64
        E 120 86 0c 00
        E 360 96 0d 64
        E 120 86 0d 00
        E 360 96 0d 64
        E 120 86 0d 00
        E 360 96 0d 64
        E 120 86 0d 00
        E 360 96 0c 64
        E 120 86 0c 00
        E 360 96 0d 64
        E 120 86 0d 00
        E 360 96 0d 64
        E 120 86 0d 00
        E 360 96 0d 64
        E 120 86 0d 00
        E 360 96 0c 64
        E 120 86 0c 00
        E 360 96 0d 64
        E 120 86 0d 00
        E 360 96 0d 64
        E 120 86 0d 00
        E 360 96 0d 64
        E 120 86 0d 00
        E 360 96 0c 64
        E 120 86 0c 00
        E 360 96 0d 64
        E 120 86 0d 00
        E 360 96 0d 64
        E 120 86 0d 00
        E 360 96 0d 64
        E 120 86 0d 00
        E 360 96 0c 64
        E 120 86 0c 00
        E 360 96 0d 64
        E 120 86 0d 00
        E 360 96 0d 64
        E 120 86 0d 00
        E 360 96 0d 64
        E 120 86 0d 00
        E 360 96 0c 64
        E 120 86 0c 00
        E 360 96 0d 64
        E 120 86 0d 00
        E 360 96 0d 64
        E 120 86 0d 00
        E 360 96 0d 64
        E 120 86 0d 00
        E 360 96 0c 64
        E 120 86 0c 00
        E 360 96 0d 64
        E 120 86 0d 00
        E 360 96 0d 64
        E 120 86 0d 00
        E 360 96 0d 64
        E 120 86 0d 00
        E 360 96 0c 64
        E 120 86 0c 00
        E 360 96 0d 64
        E 120 86 0d 00
        E 360 96 0d 64
        E 120 86 0d 00
        E 360 96 0d 64
        E 120 86 0d 00
        E 360 96 0c 64
        E 120 86 0c 00
        E 360 96 0d 64
        E 120 86 0d 00
        E 360 96 0d 64
        E 120 86 0d 00
        E 360 96 0d 64
        E 120 86 0d 00
        E 360 96 0c 64
        E 120 86 0c 00
        E 360 96 0d 64
        E 120 86 0d 00
        E 360 96 0d 64
        E 120 86 0d 00
        E 360 96 0d 64
        E 120 86 0d 00
        E 360 96 0c 64
        E 120 86 0c 00
        E 360 96 0d 64
        E 120 86 0d 00
        E 360 96 0d 64
        E 120 86 0d 00
        E 360 96 0d 64
        E 120 86 0d 00
        E 360 96 0c 64
        E 120 86 0c 00
        E 360 96 0d 64
        E 120 86 0d 00
        E 360 96 0d 64
        E 120 86 0d 00
        E 360 96 0d 64
        E 120 86 0d 00
        E 360 96 0c 64
        E 120 86 0c 00
        E 360 96 0d 64
        E 120 86 0d 00
        E 360 96 0d 64
        E 120 86 0d 00
        E 360 96 0d 64
        E 120 86 0d 00
        E 360 96 0c 64
        E 120 86 0c 00
        E 360 96 0d 64
        E 120 86 0d 00
        E 360 96 0d 64
        E 120 86 0d 00
        E 360 96 0d 64
        E 120 86 0d 00
        E 360 96 0c 64
        E 120 86 0c 00
        E 360 96 0d 64
        E 120 86 0d 00
        E 360 96 0d 64
        E 120 86 0d 00
        E 360 96 0d 64
        E 120 86 0d 00
        E 360 b0 7b 00
        GUID {6F998FE8-0A6E-4A08-9E14-0E8564C6B57D}
        IGNTEMPO 0 120.00000000 4 4
        SRCCOLOR 13
        VELLANE 132 128 60
        COLORMAP "C:\Program Files\REAPER (x64)\Data\color_maps\rockband_guitarbass.png"
        CFGEDITVIEW -6368.141248 5.043858 0 48 0 0 0
        CFGEDIT 1 1 0 1 1 0 1 1 1 1 1 0.25000000 -8 -8 1544 872 0 2 1 1 0.00000000 0 1 1 0 0.500000 0 0 1.000000 64
        KEYSNAP 0 7 "102030050700" 0 "Pentatonic"
        EVTFILTER 0 -1 -1 -1 -1 0 1 0 0 -1.00000000 -1.00000000
      >
    >
  >
  <TRACK '{5EB49191-44F4-4CDB-9BEE-B31A79CDB5BC}'
    NAME "backing"
    PEAKCOL 16576
    BEAT -1
    AUTOMODE 0
    VOLPAN 1.00000000000000 0.00000000000000 -1.00000000000000 -1.00000000000000 1.00000000000000
    MUTESOLO 0 0 0
    IPHASE 0
    ISBUS 0 0
    BUSCOMP 0 0
    SHOWINMIX 1 0.666700 0.500000 1 0.500000 -1 -1 -1
    FREEMODE 0
    SEL 0
    REC 0 0 0 0 0 0 0
    VU 2
    TRACKHEIGHT 0 0
    INQ 0 0 0 0.5000000000 100 0 0 100
    NCHAN 2
    FX 1
    TRACKID {5EB49191-44F4-4CDB-9BEE-B31A79CDB5BC}
    PERF 0
    MIDIOUT -1
    MAINSEND 1 0
    <ITEM
      POSITION 0.00000000000000
      SNAPOFFS 0.00000000000000
      LENGTH 222.64699999999999
      LOOP 0
      ALLTAKES 0
      SEL 0
      FADEIN 1 0.000000 0.000000 1 0
      FADEOUT 1 0.000000 0.000000 1 0
      MUTE 0
      IGUID {50CF0CFA-9323-4A01-AC28-0523BCA5D800}
      IID 12
      NAME "backing.wav"
      VOLPAN 1.000000 0.000000 1.000000 -1.000000
      SOFFS 0.00000000000000
      PLAYRATE 1.00000000000000 1 0.00000000000000 -1
      CHANMODE 0
      GUID {BAA8C4D0-5D36-4653-8500-15903C7786A9}
      <SOURCE WAVE
        FILE "wav\backing.wav"
      >
    >
  >
  <EXTENSIONS
  >
>
