<REAPER_PROJECT 0.1 "4.22/x64"
  RIPPLE 0
  GROUPOVERRIDE 0 0 0
  AUTOXFADE 1
  ENVATTACH 1
  MIXERUIFLAGS 11 48
  PEAKGAIN 1.00000000000000
  FEEDBACK 0
  PANLAW 1.00000000000000
  PROJOFFS 0.00000000000000 0
  MAXPROJLEN 0 600.00000000000000
  GRID 3199 8 1.00000000000000 8 1.00000000000000 0
  TIMEMODE 1 0 -1
  PANMODE 3
  CURSOR 0.00000000000000
  ZOOM 3.74333333333333 0 0
  VZOOMEX 6
  USE_REC_CFG 0
  RECMODE 1
  SMPTESYNC 0 23.976024 100 40 1000 300 0 0.000000 1
  LOOP 1
  LOOPGRAN 0 4.00000000000000
  RECORD_PATH "" ""
  <RECORD_CFG
    ZXZhdxAD
  >
  <APPLYFX_CFG
  >
  RENDER_FILE ""
  RENDER_PATTERN ""
  RENDER_FMT 0 2 0
  RENDER_1X 0
  RENDER_RANGE 1 0.00000000000000 0.00000000000000
  RENDER_RESAMPLE 3 0 1
  RENDER_ADDTOPROJ 0
  RENDER_STEMS 0
  RENDER_DITHER 0
  TIMELOCKMODE 0
  ITEMMIX 0
  DEFPITCHMODE 393216
  TAKELANE 1
  SAMPLERATE 44100 0 0
  <RENDER_CFG
  >
  LOCK 1
  <METRONOME 6 2.000000
    VOL 0.250000 0.125000
    FREQ 800 1600 1
    BEATLEN 4
    SAMPLES "" ""
  >
  GLOBAL_AUTO -1
  TEMPO 120.00000000000000 4 4
  PLAYRATE 1.00000000000000 0 0.25000 4.00000
  SELECTION 300.00000000000000 0.00000000000000
  SELECTION2 300.00000000000000 0.00000000000000
  MASTERAUTOMODE 0
  MASTERTRACKHEIGHT 0
  MASTERPEAKCOL 16576
  MASTERMUTESOLO 0
  MASTERTRACKVIEW 0 0.666700 0.500000 0.500000 -1 -1 -1
  MASTERHWOUT 0 0 1.00000000000000 0.00000000000000 0 0 0 -1.00000000000000
  MASTER_NCH 2 2
  MASTER_VOLUME 1.00000000000000 0.00000000000000 -1.00000000000000 -1.00000000000000 1.00000000000000
  MASTER_PANMODE -1
  MASTER_FX 1
  MASTER_SEL 0
  <MASTERPLAYSPEEDENV
    ACT 0
    VIS 0 1 1.000000
    LANEHEIGHT 0 0
    ARM 0
    DEFSHAPE 0 -1 -1
  >
  <TEMPOENVEX
    ACT 1
    VIS 1 0 1.000000
    LANEHEIGHT 0 0
    ARM 0
    DEFSHAPE 1 -1 -1
    PT 0.000000000000 120.0000000000 1
  >
  <PROJBAY
  >
  <TRACK '{0402B861-9895-434A-B103-70B14C692FB6}'
    NAME "PART DRUMS"
    PEAKCOL 16576
    BEAT -1
    AUTOMODE 0
    VOLPAN 1.00000000000000 0.00000000000000 -1.00000000000000 -1.00000000000000 1.00000000000000
    MUTESOLO 0 0 0
    IPHASE 0
    ISBUS 0 0
    BUSCOMP 0 0
    SHOWINMIX 1 0.666700 0.500000 1 0.500000 -1 -1 -1
    FREEMODE 0
    SEL 0
    REC 0 0 0 0 0 0 0
    VU 2
    TRACKHEIGHT 0 0
    INQ 0 0 0 0.5000000000 100 0 0 100
    NCHAN 2
    FX 1
    TRACKID {0402B861-9895-434A-B103-70B14C692FB6}
    PERF 0
    MIDIOUT -1
    <MIDINOTENAMES
      0 127 "CYMBAL SWELLS"
      0 126 "DRUM ROLL"
      0 125 "---"
      0 124 "DRUM FILL"
      0 123 "DRUM FILL"
      0 122 "DRUM FILL"
      0 121 "DRUM FILL"
      0 120 "DRUM FILL (use all 5)"
      0 118 "----"
      0 116 "OVERDRIVE"
      0 114 "----"
      0 112 "TOM GEMS PAD 4"
      0 111 "TOM GEMS PAD 3"
      0 110 "TOM GEMS PAD 2"
      0 103 "Solo Marker"
      0 102 "----"
      0 100 "EXPERT Green"
      0 99 "EXPERT Blue"
      0 98 "EXPERT Yellow"
      0 97 "EXPERT Red"
      0 96 "EXPERT Kick"
      0 92 "----"
      0 88 "HARD Green"
      0 87 "HARD Blue"
      0 86 "HARD Yellow"
      0 85 "HARD Red"
      0 84 "HARD Kick"
      0 80 "----"
      0 76 "MEDIUM Green"
      0 75 "MEDIUM Blue"
      0 74 "MEDIUM Yellow"
      0 73 "MEDIUM Red"
      0 72 "MEDIUM Kick"
      0 68 "----"
      0 64 "EASY Green"
      0 63 "EASY Blue"
      0 62 "EASY Yellow"
      0 61 "EASY Red"
      0 60 "EASY Kick"
      0 56 "----"
      0 52 "-- DRUM ANIMATION --"
      0 51 "FLOOR TOM RH"
      0 50 "FLOOR TOM LH"
      0 49 "TOM2 RH"
      0 48 "TOM2 LH"
      0 47 "TOM1 RH"
      0 46 "TOM1 LH"
      0 45 "SOFT CRASH 2 LH"
      0 44 "CRASH 2 LH"
      0 43 "RIDE LH"
      0 42 "RIDE CYM RH"
      0 41 "CRASH2 CHOKE"
      0 40 "CRASH1 CHOKE"
      0 39 "CRASH2 SOFT RH"
      0 38 "CRASH2 HARD RH"
      0 37 "CRASH1 SOFT RH"
      0 36 "CRASH1 HARD RH"
      0 35 "CRASH1 SOFT LH"
      0 34 "CRASH1 HARD LH"
      0 32 "PERCUSSION RH"
      0 31 "HI-HAT RH"
      0 30 "HI-HAT LH"
      0 29 "SOFT SNARE RH"
      0 28 "SOFT SNARE LH"
      0 27 "SNARE RH"
      0 26 "SNARE LH"
      0 25 "HI-HAT OPEN"
      0 24 "KICK RF"
    >
    MAINSEND 1 0
    <FXCHAIN
      WNDRECT 0 43 891 559
      SHOW 0
      LASTSEL 0
      DOCKED 0
      BYPASS 0 0
      <VST "VSTi: RBN Preview (RBN)" "rbprev_vst64.dll" 0 ""
        dnBicu5e7f4AAAAAAgAAAAEAAAAAAAAAAgAAAAAAAAAEAAAAAQAAAA==
        AAAQAAMBqgAAABAAAAA=
      >
      FLOATPOS 0 0 0 0
      FXID {7E59E011-A55D-41E8-A64B-743159DE3188}
      WAK 0
    >
    <ITEM
      POSITION 0.00000000000000
      SNAPOFFS 0.00000000000000
      LENGTH 300.00000000000000
      LOOP 0
      ALLTAKES 0
      SEL 0
      FADEIN 1 0.000000 0.000000 1 0
      FADEOUT 1 0.000000 0.000000 1 0
      MUTE 0
      IGUID {D12D3335-92AD-4865-99E2-22A5EC7B0913}
      IID 1
      NAME "PART DRUMS"
      VOLPAN 1.000000 0.000000 1.000000 -1.000000
      SOFFS 0.00000000000000 0.00000000000000
      PLAYRATE 1.00000000000000 1 0.00000000000000 -1
      CHANMODE 0
      GUID {F99A69F4-D730-4AC9-81AE-C1E08A847097}
      <SOURCE MIDI
        HASDATA 1 480 QN
        POOLEDEVTS {69BA2597-ABD3-4F36-A564-76B0B1425FC3}
        <X 0 0
          /wNQQVJUIERSVU1T
        >
        E 0 90 19 60
        <X 120 0
          /wFbbWl4IDAgZHJ1bXMwXQ==
        >
        <X 120 0
          /wFbbWl4IDEgZHJ1bXMwXQ==
        >
        <X 120 0
          /wFbbWl4IDIgZHJ1bXMwXQ==
        >
        <X 120 0
          /wFbbWl4IDMgZHJ1bXMwXQ==
        >
        E 2040 80 19 00
        E 480 90 19 60
        E 3000 80 19 00
        <X 1680 0
          /wFbcGxheV0=
        >
        <X 0 0
          /wFbbWl4IDMgZHJ1bXMwZF0=
        >
        E 0 90 18 60
        E 0 90 1f 60
        E 0 90 3e 60
        E 0 90 48 60
        E 0 90 4a 60
        E 0 90 54 60
        E 0 90 56 60
        E 0 90 60 60
        E 0 90 61 60
        E 0 90 6f 60
        E 0 90 70 60
        E 120 80 18 00
        E 0 80 1f 00
        E 0 80 3e 00
        E 0 80 48 00
        E 0 80 4a 00
        E 0 80 54 00
        E 0 80 56 00
        E 0 80 60 00
        E 0 80 61 00
        E 0 90 1e 60
        E 0 90 61 60
        E 120 80 1e 00
        E 0 80 61 00
        E 0 90 1f 60
        E 0 90 56 60
        E 0 90 61 60
        E 120 80 1f 00
        E 0 80 56 00
        E 0 80 61 00
        E 0 90 1e 60
        E 0 90 61 60
        E 120 80 1e 00
        E 0 80 61 00
        E 0 90 18 60
        E 0 90 1b 60
        E 0 90 3d 60
        E 0 90 3e 60
        E 0 90 49 60
        E 0 90 4a 60
        E 0 90 54 60
        E 0 90 55 60
        E 0 90 56 60
        E 0 90 60 60
        E 0 90 62 60
        E 120 80 18 00
        E 0 80 1b 00
        E 0 80 3d 00
        E 0 80 3e 00
        E 0 80 49 00
        E 0 80 4a 00
        E 0 80 54 00
        E 0 80 55 00
        E 0 80 56 00
        E 0 80 60 00
        E 0 80 62 00
        E 0 90 1e 60
        E 0 90 61 60
        E 120 80 1e 00
        E 0 80 61 00
        E 0 90 1f 60
        E 0 90 56 60
        E 0 90 61 60
        E 120 80 1f 00
        E 0 80 56 00
        E 0 80 61 00
        E 0 90 1e 60
        E 0 90 61 60
        E 120 80 1e 00
        E 0 80 61 00
        E 0 90 18 60
        E 0 90 1f 60
        E 0 90 3e 60
        E 0 90 48 60
        E 0 90 4a 60
        E 0 90 54 60
        E 0 90 56 60
        E 0 90 60 60
        E 0 90 61 60
        E 120 80 18 00
        E 0 80 1f 00
        E 0 80 3e 00
        E 0 80 48 00
        E 0 80 4a 00
        E 0 80 54 00
        E 0 80 56 00
        E 0 80 60 00
        E 0 80 61 00
        E 0 90 1e 60
        E 0 90 61 60
        E 120 80 1e 00
        E 0 80 61 00
        E 0 90 1b 60
        E 0 90 55 60
        E 0 90 56 60
        E 0 90 62 60
        E 120 80 1b 00
        E 0 80 55 00
        E 0 80 56 00
        E 0 80 62 00
        E 0 90 1a 60
        E 0 90 62 60
        E 120 80 1a 00
        E 0 80 62 00
        E 0 90 18 60
        E 0 90 1b 60
        E 0 90 3d 60
        E 0 90 3e 60
        E 0 90 49 60
        E 0 90 4a 60
        E 0 90 54 60
        E 0 90 55 60
        E 0 90 56 60
        E 0 90 60 60
        E 0 90 62 60
        E 120 80 18 00
        E 0 80 1b 00
        E 0 80 3d 00
        E 0 80 3e 00
        E 0 80 49 00
        E 0 80 4a 00
        E 0 80 54 00
        E 0 80 55 00
        E 0 80 56 00
        E 0 80 60 00
        E 0 80 62 00
        E 0 90 1a 60
        E 0 90 62 60
        E 120 80 1a 00
        E 0 80 62 00
        E 0 90 1b 60
        E 0 90 55 60
        E 0 90 56 60
        E 0 90 62 60
        E 120 80 1b 00
        E 0 80 55 00
        E 0 80 56 00
        E 0 80 62 00
        E 0 90 1a 60
        E 0 90 62 60
        E 120 80 1a 00
        E 0 80 62 00
        E 0 90 18 60
        E 0 90 1f 60
        E 0 90 3e 60
        E 0 90 48 60
        E 0 90 4a 60
        E 0 90 54 60
        E 0 90 56 60
        E 0 90 60 60
        E 0 90 61 60
        E 120 80 18 00
        E 0 80 1f 00
        E 0 80 3e 00
        E 0 80 48 00
        E 0 80 4a 00
        E 0 80 54 00
        E 0 80 56 00
        E 0 80 60 00
        E 0 80 61 00
        E 0 90 1e 60
        E 0 90 61 60
        E 120 80 1e 00
        E 0 80 61 00
        E 0 90 1f 60
        E 0 90 56 60
        E 0 90 61 60
        E 120 80 1f 00
        E 0 80 56 00
        E 0 80 61 00
        E 0 90 1e 60
        E 0 90 61 60
        E 120 80 1e 00
        E 0 80 61 00
        E 0 90 18 60
        E 0 90 1b 60
        E 0 90 3d 60
        E 0 90 3e 60
        E 0 90 49 60
        E 0 90 4a 60
        E 0 90 54 60
        E 0 90 55 60
        E 0 90 56 60
        E 0 90 60 60
        E 0 90 62 60
        E 120 80 18 00
        E 0 80 1b 00
        E 0 80 3d 00
        E 0 80 3e 00
        E 0 80 49 00
        E 0 80 4a 00
        E 0 80 54 00
        E 0 80 55 00
        E 0 80 56 00
        E 0 80 60 00
        E 0 80 62 00
        E 0 90 1e 60
        E 0 90 61 60
        E 120 80 1e 00
        E 0 80 61 00
        E 0 90 1f 60
        E 0 90 56 60
        E 0 90 61 60
        E 120 80 1f 00
        E 0 80 56 00
        E 0 80 61 00
        E 0 90 1e 60
        E 0 90 61 60
        E 120 80 1e 00
        E 0 80 61 00
        E 0 90 18 60
        E 0 90 1f 60
        E 0 90 3e 60
        E 0 90 48 60
        E 0 90 4a 60
        E 0 90 54 60
        E 0 90 56 60
        E 0 90 60 60
        E 0 90 61 60
        E 120 80 18 00
        E 0 80 1f 00
        E 0 80 3e 00
        E 0 80 48 00
        E 0 80 4a 00
        E 0 80 54 00
        E 0 80 56 00
        E 0 80 60 00
        E 0 80 61 00
        E 0 90 1e 60
        E 0 90 61 60
        E 120 80 1e 00
        E 0 80 61 00
        E 0 90 1b 60
        E 0 90 55 60
        E 0 90 56 60
        E 0 90 62 60
        E 120 80 1b 00
        E 0 80 55 00
        E 0 80 56 00
        E 0 80 62 00
        E 0 90 1a 60
        E 0 90 62 60
        E 120 80 1a 00
        E 0 80 62 00
        E 0 90 18 60
        E 0 90 31 60
        E 0 90 3f 60
        E 0 90 4b 60
        E 0 90 54 60
        E 0 90 57 60
        E 0 90 60 60
        E 0 90 63 60
        E 120 80 18 00
        E 0 80 31 00
        E 0 80 3f 00
        E 0 80 4b 00
        E 0 80 54 00
        E 0 80 57 00
        E 0 80 60 00
        E 0 80 63 00
        E 0 90 30 60
        E 0 90 63 60
        E 120 80 30 00
        E 0 80 63 00
        E 0 90 33 60
        E 0 90 58 60
        E 0 90 64 60
        E 120 80 33 00
        E 0 80 58 00
        E 0 80 64 00
        E 0 90 32 60
        E 0 90 64 60
        E 120 80 32 00
        E 0 80 64 00
        E 0 90 18 60
        E 0 90 1f 60
        E 0 90 3e 60
        E 0 90 48 60
        E 0 90 4a 60
        E 0 90 54 60
        E 0 90 56 60
        E 0 90 60 60
        E 0 90 61 60
        E 120 80 18 00
        E 0 80 1f 00
        E 0 80 3e 00
        E 0 80 48 00
        E 0 80 4a 00
        E 0 80 54 00
        E 0 80 56 00
        E 0 80 60 00
        E 0 80 61 00
        E 0 90 1e 60
        E 0 90 61 60
        E 120 80 1e 00
        E 0 80 61 00
        E 0 90 1f 60
        E 0 90 56 60
        E 0 90 61 60
        E 120 80 1f 00
        E 0 80 56 00
        E 0 80 61 00
        E 0 90 1e 60
        E 0 90 61 60
        E 120 80 1e 00
        E 0 80 61 00
        E 0 90 18 60
        E 0 90 1b 60
        E 0 90 3d 60
        E 0 90 3e 60
        E 0 90 49 60
        E 0 90 4a 60
        E 0 90 54 60
        E 0 90 55 60
        E 0 90 56 60
        E 0 90 60 60
        E 0 90 62 60
        E 120 80 18 00
        E 0 80 1b 00
        E 0 80 3d 00
        E 0 80 3e 00
        E 0 80 49 00
        E 0 80 4a 00
        E 0 80 54 00
        E 0 80 55 00
        E 0 80 56 00
        E 0 80 60 00
        E 0 80 62 00
        E 0 90 1e 60
        E 0 90 61 60
        E 120 80 1e 00
        E 0 80 61 00
        E 0 90 1f 60
        E 0 90 56 60
        E 0 90 61 60
        E 120 80 1f 00
        E 0 80 56 00
        E 0 80 61 00
        E 0 90 1e 60
        E 0 90 61 60
        E 120 80 1e 00
        E 0 80 61 00
        E 0 90 18 60
        E 0 90 1f 60
        E 0 90 3e 60
        E 0 90 48 60
        E 0 90 4a 60
        E 0 90 54 60
        E 0 90 56 60
        E 0 90 60 60
        E 0 90 61 60
        E 120 80 18 00
        E 0 80 1f 00
        E 0 80 3e 00
        E 0 80 48 00
        E 0 80 4a 00
        E 0 80 54 00
        E 0 80 56 00
        E 0 80 60 00
        E 0 80 61 00
        E 0 90 1e 60
        E 0 90 61 60
        E 120 80 1e 00
        E 0 80 61 00
        E 0 90 1b 60
        E 0 90 55 60
        E 0 90 56 60
        E 0 90 62 60
        E 120 80 1b 00
        E 0 80 55 00
        E 0 80 56 00
        E 0 80 62 00
        E 0 90 1a 60
        E 0 90 62 60
        E 120 80 1a 00
        E 0 80 62 00
        E 0 90 18 60
        E 0 90 1b 60
        E 0 90 3d 60
        E 0 90 3e 60
        E 0 90 49 60
        E 0 90 4a 60
        E 0 90 54 60
        E 0 90 55 60
        E 0 90 56 60
        E 0 90 60 60
        E 0 90 62 60
        E 120 80 18 00
        E 0 80 1b 00
        E 0 80 3d 00
        E 0 80 3e 00
        E 0 80 49 00
        E 0 80 4a 00
        E 0 80 54 00
        E 0 80 55 00
        E 0 80 56 00
        E 0 80 60 00
        E 0 80 62 00
        E 0 90 1a 60
        E 0 90 62 60
        E 120 80 1a 00
        E 0 80 62 00
        E 0 90 1b 60
        E 0 90 55 60
        E 0 90 56 60
        E 0 90 62 60
        E 120 80 1b 00
        E 0 80 55 00
        E 0 80 56 00
        E 0 80 62 00
        E 0 90 1a 60
        E 0 90 62 60
        E 120 80 1a 00
        E 0 80 62 00
        E 0 90 18 60
        E 0 90 1f 60
        E 0 90 3e 60
        E 0 90 48 60
        E 0 90 4a 60
        E 0 90 54 60
        E 0 90 56 60
        E 0 90 60 60
        E 0 90 61 60
        E 120 80 18 00
        E 0 80 1f 00
        E 0 80 3e 00
        E 0 80 48 00
        E 0 80 4a 00
        E 0 80 54 00
        E 0 80 56 00
        E 0 80 60 00
        E 0 80 61 00
        E 0 90 1e 60
        E 0 90 61 60
        E 120 80 1e 00
        E 0 80 61 00
        E 0 90 1f 60
        E 0 90 56 60
        E 0 90 61 60
        E 120 80 1f 00
        E 0 80 56 00
        E 0 80 61 00
        E 0 90 1e 60
        E 0 90 61 60
        E 120 80 1e 00
        E 0 80 61 00
        E 0 90 18 60
        E 0 90 1b 60
        E 0 90 3d 60
        E 0 90 3e 60
        E 0 90 49 60
        E 0 90 4a 60
        E 0 90 54 60
        E 0 90 55 60
        E 0 90 56 60
        E 0 90 60 60
        E 0 90 62 60
        E 120 80 18 00
        E 0 80 1b 00
        E 0 80 3d 00
        E 0 80 3e 00
        E 0 80 49 00
        E 0 80 4a 00
        E 0 80 54 00
        E 0 80 55 00
        E 0 80 56 00
        E 0 80 60 00
        E 0 80 62 00
        E 0 90 1e 60
        E 0 90 61 60
        E 120 80 1e 00
        E 0 80 61 00
        E 0 90 1f 60
        E 0 90 56 60
        E 0 90 61 60
        E 120 80 1f 00
        E 0 80 56 00
        E 0 80 61 00
        E 0 90 1e 60
        E 0 90 61 60
        E 120 80 1e 00
        E 0 80 61 00
        E 0 90 18 60
        E 0 90 1b 60
        E 0 90 3d 60
        E 0 90 3e 60
        E 0 90 49 60
        E 0 90 4a 60
        E 0 90 54 60
        E 0 90 55 60
        E 0 90 56 60
        E 0 90 60 60
        E 0 90 62 60
        E 0 90 78 60
        E 0 90 79 60
        E 0 90 7a 60
        E 0 90 7b 60
        E 0 90 7c 60
        E 120 80 18 00
        E 0 80 1b 00
        E 0 80 3d 00
        E 0 80 3e 00
        E 0 80 49 00
        E 0 80 4a 00
        E 0 80 54 00
        E 0 80 55 00
        E 0 80 56 00
        E 0 80 60 00
        E 0 80 62 00
        E 0 90 1a 60
        E 0 90 62 60
        E 120 80 1a 00
        E 0 80 62 00
        E 0 90 1b 60
        E 0 90 55 60
        E 0 90 56 60
        E 0 90 62 60
        E 120 80 1b 00
        E 0 80 55 00
        E 0 80 56 00
        E 0 80 62 00
        E 0 90 1a 60
        E 0 90 62 60
        E 120 80 1a 00
        E 0 80 62 00
        E 0 90 18 60
        E 0 90 31 60
        E 0 90 3f 60
        E 0 90 4b 60
        E 0 90 54 60
        E 0 90 57 60
        E 0 90 60 60
        E 0 90 63 60
        E 120 80 18 00
        E 0 80 31 00
        E 0 80 3f 00
        E 0 80 4b 00
        E 0 80 54 00
        E 0 80 57 00
        E 0 80 60 00
        E 0 80 63 00
        E 0 90 30 60
        E 0 90 63 60
        E 120 80 30 00
        E 0 80 63 00
        E 0 90 33 60
        E 0 90 58 60
        E 0 90 64 60
        E 120 80 33 00
        E 0 80 58 00
        E 0 80 64 00
        E 0 90 32 60
        E 0 90 64 60
        E 120 80 78 00
        E 0 80 79 00
        E 0 80 7a 00
        E 0 80 7b 00
        E 0 80 7c 00
        E 0 80 32 00
        E 0 80 64 00
        E 0 90 18 60
        E 0 90 1f 60
        E 0 90 3e 60
        E 0 90 48 60
        E 0 90 4a 60
        E 0 90 54 60
        E 0 90 56 60
        E 0 90 60 60
        E 0 90 61 60
        E 0 90 74 60
        E 120 80 18 00
        E 0 80 1f 00
        E 0 80 3e 00
        E 0 80 48 00
        E 0 80 4a 00
        E 0 80 54 00
        E 0 80 56 00
        E 0 80 60 00
        E 0 80 61 00
        E 0 90 1e 60
        E 0 90 61 60
        E 120 80 1e 00
        E 0 80 61 00
        E 0 90 1f 60
        E 0 90 56 60
        E 0 90 61 60
        E 120 80 1f 00
        E 0 80 56 00
        E 0 80 61 00
        E 0 90 1e 60
        E 0 90 61 60
        E 120 80 1e 00
        E 0 80 61 00
        E 0 90 18 60
        E 0 90 1b 60
        E 0 90 3d 60
        E 0 90 3e 60
        E 0 90 49 60
        E 0 90 4a 60
        E 0 90 54 60
        E 0 90 55 60
        E 0 90 56 60
        E 0 90 60 60
        E 0 90 62 60
        E 120 80 18 00
        E 0 80 1b 00
        E 0 80 3d 00
        E 0 80 3e 00
        E 0 80 49 00
        E 0 80 4a 00
        E 0 80 54 00
        E 0 80 55 00
        E 0 80 56 00
        E 0 80 60 00
        E 0 80 62 00
        E 0 90 1e 60
        E 0 90 61 60
        E 120 80 1e 00
        E 0 80 61 00
        E 0 90 1f 60
        E 0 90 56 60
        E 0 90 61 60
        E 120 80 1f 00
        E 0 80 56 00
        E 0 80 61 00
        E 0 90 1e 60
        E 0 90 61 60
        E 120 80 1e 00
        E 0 80 61 00
        E 0 90 18 60
        E 0 90 1f 60
        E 0 90 3e 60
        E 0 90 48 60
        E 0 90 4a 60
        E 0 90 54 60
        E 0 90 56 60
        E 0 90 60 60
        E 0 90 61 60
        E 120 80 18 00
        E 0 80 1f 00
        E 0 80 3e 00
        E 0 80 48 00
        E 0 80 4a 00
        E 0 80 54 00
        E 0 80 56 00
        E 0 80 60 00
        E 0 80 61 00
        E 0 90 1e 60
        E 0 90 61 60
        E 120 80 1e 00
        E 0 80 61 00
        E 0 90 1b 60
        E 0 90 55 60
        E 0 90 56 60
        E 0 90 62 60
        E 120 80 1b 00
        E 0 80 55 00
        E 0 80 56 00
        E 0 80 62 00
        E 0 90 1a 60
        E 0 90 62 60
        E 120 80 1a 00
        E 0 80 62 00
        E 0 90 18 60
        E 0 90 1b 60
        E 0 90 3d 60
        E 0 90 3e 60
        E 0 90 49 60
        E 0 90 4a 60
        E 0 90 54 60
        E 0 90 55 60
        E 0 90 56 60
        E 0 90 60 60
        E 0 90 62 60
        E 120 80 18 00
        E 0 80 1b 00
        E 0 80 3d 00
        E 0 80 3e 00
        E 0 80 49 00
        E 0 80 4a 00
        E 0 80 54 00
        E 0 80 55 00
        E 0 80 56 00
        E 0 80 60 00
        E 0 80 62 00
        E 0 90 1a 60
        E 0 90 62 60
        E 120 80 1a 00
        E 0 80 62 00
        E 0 90 1b 60
        E 0 90 55 60
        E 0 90 56 60
        E 0 90 62 60
        E 120 80 1b 00
        E 0 80 55 00
        E 0 80 56 00
        E 0 80 62 00
        E 0 90 1a 60
        E 0 90 62 60
        E 120 80 1a 00
        E 0 80 62 00
        E 0 90 18 60
        E 0 90 1f 60
        E 0 90 3e 60
        E 0 90 48 60
        E 0 90 4a 60
        E 0 90 54 60
        E 0 90 56 60
        E 0 90 60 60
        E 0 90 61 60
        E 120 80 18 00
        E 0 80 1f 00
        E 0 80 3e 00
        E 0 80 48 00
        E 0 80 4a 00
        E 0 80 54 00
        E 0 80 56 00
        E 0 80 60 00
        E 0 80 61 00
        E 0 90 1e 60
        E 0 90 61 60
        E 120 80 1e 00
        E 0 80 61 00
        E 0 90 1f 60
        E 0 90 56 60
        E 0 90 61 60
        E 120 80 1f 00
        E 0 80 56 00
        E 0 80 61 00
        E 0 90 1e 60
        E 0 90 61 60
        E 120 80 1e 00
        E 0 80 61 00
        E 0 90 18 60
        E 0 90 1b 60
        E 0 90 3d 60
        E 0 90 3e 60
        E 0 90 49 60
        E 0 90 4a 60
        E 0 90 54 60
        E 0 90 55 60
        E 0 90 56 60
        E 0 90 60 60
        E 0 90 62 60
        E 120 80 18 00
        E 0 80 1b 00
        E 0 80 3d 00
        E 0 80 3e 00
        E 0 80 49 00
        E 0 80 4a 00
        E 0 80 54 00
        E 0 80 55 00
        E 0 80 56 00
        E 0 80 60 00
        E 0 80 62 00
        E 0 90 1e 60
        E 0 90 61 60
        E 120 80 1e 00
        E 0 80 61 00
        E 0 90 1f 60
        E 0 90 56 60
        E 0 90 61 60
        E 120 80 1f 00
        E 0 80 56 00
        E 0 80 61 00
        E 0 90 1e 60
        E 0 90 61 60
        E 120 80 1e 00
        E 0 80 61 00
        E 0 90 18 60
        E 0 90 1f 60
        E 0 90 3e 60
        E 0 90 48 60
        E 0 90 4a 60
        E 0 90 54 60
        E 0 90 56 60
        E 0 90 60 60
        E 0 90 61 60
        E 120 80 18 00
        E 0 80 1f 00
        E 0 80 3e 00
        E 0 80 48 00
        E 0 80 4a 00
        E 0 80 54 00
        E 0 80 56 00
        E 0 80 60 00
        E 0 80 61 00
        E 0 90 1e 60
        E 0 90 61 60
        E 120 80 1e 00
        E 0 80 61 00
        E 0 90 1b 60
        E 0 90 55 60
        E 0 90 56 60
        E 0 90 62 60
        E 120 80 1b 00
        E 0 80 55 00
        E 0 80 56 00
        E 0 80 62 00
        E 0 90 1a 60
        E 0 90 62 60
        E 120 80 1a 00
        E 0 80 62 00
        E 0 90 18 60
        E 0 90 31 60
        E 0 90 3f 60
        E 0 90 4b 60
        E 0 90 54 60
        E 0 90 57 60
        E 0 90 60 60
        E 0 90 63 60
        E 120 80 18 00
        E 0 80 31 00
        E 0 80 3f 00
        E 0 80 4b 00
        E 0 80 54 00
        E 0 80 57 00
        E 0 80 60 00
        E 0 80 63 00
        E 0 90 30 60
        E 0 90 63 60
        E 120 80 30 00
        E 0 80 63 00
        E 0 90 33 60
        E 0 90 58 60
        E 0 90 64 60
        E 120 80 33 00
        E 0 80 58 00
        E 0 80 64 00
        E 0 90 32 60
        E 0 90 64 60
        E 120 80 74 00
        E 0 80 32 00
        E 0 80 64 00
        E 0 90 18 60
        E 0 90 1f 60
        E 0 90 3e 60
        E 0 90 48 60
        E 0 90 4a 60
        E 0 90 54 60
        E 0 90 56 60
        E 0 90 60 60
        E 0 90 61 60
        E 120 80 18 00
        E 0 80 1f 00
        E 0 80 3e 00
        E 0 80 48 00
        E 0 80 4a 00
        E 0 80 54 00
        E 0 80 56 00
        E 0 80 60 00
        E 0 80 61 00
        E 0 90 1e 60
        E 0 90 61 60
        E 120 80 1e 00
        E 0 80 61 00
        E 0 90 1f 60
        E 0 90 56 60
        E 0 90 61 60
        E 120 80 1f 00
        E 0 80 56 00
        E 0 80 61 00
        E 0 90 1e 60
        E 0 90 61 60
        E 120 80 1e 00
        E 0 80 61 00
        E 0 90 18 60
        E 0 90 1b 60
        E 0 90 3d 60
        E 0 90 3e 60
        E 0 90 49 60
        E 0 90 4a 60
        E 0 90 54 60
        E 0 90 55 60
        E 0 90 56 60
        E 0 90 60 60
        E 0 90 62 60
        E 120 80 18 00
        E 0 80 1b 00
        E 0 80 3d 00
        E 0 80 3e 00
        E 0 80 49 00
        E 0 80 4a 00
        E 0 80 54 00
        E 0 80 55 00
        E 0 80 56 00
        E 0 80 60 00
        E 0 80 62 00
        E 0 90 1e 60
        E 0 90 61 60
        E 120 80 1e 00
        E 0 80 61 00
        E 0 90 1f 60
        E 0 90 56 60
        E 0 90 61 60
        E 120 80 1f 00
        E 0 80 56 00
        E 0 80 61 00
        E 0 90 1e 60
        E 0 90 61 60
        E 120 80 1e 00
        E 0 80 61 00
        E 0 90 18 60
        E 0 90 1f 60
        E 0 90 3e 60
        E 0 90 48 60
        E 0 90 4a 60
        E 0 90 54 60
        E 0 90 56 60
        E 0 90 60 60
        E 0 90 61 60
        E 120 80 18 00
        E 0 80 1f 00
        E 0 80 3e 00
        E 0 80 48 00
        E 0 80 4a 00
        E 0 80 54 00
        E 0 80 56 00
        E 0 80 60 00
        E 0 80 61 00
        E 0 90 1e 60
        E 0 90 61 60
        E 120 80 1e 00
        E 0 80 61 00
        E 0 90 1b 60
        E 0 90 55 60
        E 0 90 56 60
        E 0 90 62 60
        E 120 80 1b 00
        E 0 80 55 00
        E 0 80 56 00
        E 0 80 62 00
        E 0 90 1a 60
        E 0 90 62 60
        E 120 80 1a 00
        E 0 80 62 00
        E 0 90 18 60
        E 0 90 1b 60
        E 0 90 3d 60
        E 0 90 3e 60
        E 0 90 49 60
        E 0 90 4a 60
        E 0 90 54 60
        E 0 90 55 60
        E 0 90 56 60
        E 0 90 60 60
        E 0 90 62 60
        E 120 80 18 00
        E 0 80 1b 00
        E 0 80 3d 00
        E 0 80 3e 00
        E 0 80 49 00
        E 0 80 4a 00
        E 0 80 54 00
        E 0 80 55 00
        E 0 80 56 00
        E 0 80 60 00
        E 0 80 62 00
        E 0 90 1a 60
        E 0 90 62 60
        E 120 80 1a 00
        E 0 80 62 00
        E 0 90 1b 60
        E 0 90 55 60
        E 0 90 56 60
        E 0 90 62 60
        E 120 80 1b 00
        E 0 80 55 00
        E 0 80 56 00
        E 0 80 62 00
        E 0 90 1a 60
        E 0 90 62 60
        E 120 80 1a 00
        E 0 80 62 00
        E 0 90 18 60
        E 0 90 1f 60
        E 0 90 3e 60
        E 0 90 48 60
        E 0 90 4a 60
        E 0 90 54 60
        E 0 90 56 60
        E 0 90 60 60
        E 0 90 61 60
        E 120 80 18 00
        E 0 80 1f 00
        E 0 80 3e 00
        E 0 80 48 00
        E 0 80 4a 00
        E 0 80 54 00
        E 0 80 56 00
        E 0 80 60 00
        E 0 80 61 00
        E 0 90 1e 60
        E 0 90 61 60
        E 120 80 1e 00
        E 0 80 61 00
        E 0 90 1f 60
        E 0 90 56 60
        E 0 90 61 60
        E 120 80 1f 00
        E 0 80 56 00
        E 0 80 61 00
        E 0 90 1e 60
        E 0 90 61 60
        E 120 80 1e 00
        E 0 80 61 00
        E 0 90 18 60
        E 0 90 1b 60
        E 0 90 3d 60
        E 0 90 3e 60
        E 0 90 49 60
        E 0 90 4a 60
        E 0 90 54 60
        E 0 90 55 60
        E 0 90 56 60
        E 0 90 60 60
        E 0 90 62 60
        E 120 80 18 00
        E 0 80 1b 00
        E 0 80 3d 00
        E 0 80 3e 00
        E 0 80 49 00
        E 0 80 4a 00
        E 0 80 54 00
        E 0 80 55 00
        E 0 80 56 00
        E 0 80 60 00
        E 0 80 62 00
        E 0 90 1e 60
        E 0 90 61 60
        E 120 80 1e 00
        E 0 80 61 00
        E 0 90 1f 60
        E 0 90 56 60
        E 0 90 61 60
        E 120 80 1f 00
        E 0 80 56 00
        E 0 80 61 00
        E 0 90 1e 60
        E 0 90 61 60
        E 120 80 1e 00
        E 0 80 61 00
        E 0 90 18 60
        E 0 90 1b 60
        E 0 90 3d 60
        E 0 90 3e 60
        E 0 90 49 60
        E 0 90 4a 60
        E 0 90 54 60
        E 0 90 55 60
        E 0 90 56 60
        E 0 90 60 60
        E 0 90 62 60
        E 0 90 78 60
        E 0 90 79 60
        E 0 90 7a 60
        E 0 90 7b 60
        E 0 90 7c 60
        E 120 80 18 00
        E 0 80 1b 00
        E 0 80 3d 00
        E 0 80 3e 00
        E 0 80 49 00
        E 0 80 4a 00
        E 0 80 54 00
        E 0 80 55 00
        E 0 80 56 00
        E 0 80 60 00
        E 0 80 62 00
        E 0 90 1a 60
        E 0 90 62 60
        E 120 80 1a 00
        E 0 80 62 00
        E 0 90 1b 60
        E 0 90 55 60
        E 0 90 56 60
        E 0 90 62 60
        E 120 80 1b 00
        E 0 80 55 00
        E 0 80 56 00
        E 0 80 62 00
        E 0 90 1a 60
        E 0 90 62 60
        E 120 80 1a 00
        E 0 80 62 00
        E 0 90 18 60
        E 0 90 31 60
        E 0 90 3f 60
        E 0 90 4b 60
        E 0 90 54 60
        E 0 90 57 60
        E 0 90 60 60
        E 0 90 63 60
        E 120 80 18 00
        E 0 80 31 00
        E 0 80 3f 00
        E 0 80 4b 00
        E 0 80 54 00
        E 0 80 57 00
        E 0 80 60 00
        E 0 80 63 00
        E 0 90 30 60
        E 0 90 63 60
        E 120 80 30 00
        E 0 80 63 00
        E 0 90 33 60
        E 0 90 58 60
        E 0 90 64 60
        E 120 80 33 00
        E 0 80 58 00
        E 0 80 64 00
        E 0 90 32 60
        E 0 90 64 60
        E 120 80 78 00
        E 0 80 79 00
        E 0 80 7a 00
        E 0 80 7b 00
        E 0 80 7c 00
        E 0 80 32 00
        E 0 80 64 00
        E 0 90 18 60
        E 0 90 1f 60
        E 0 90 3e 60
        E 0 90 48 60
        E 0 90 4a 60
        E 0 90 54 60
        E 0 90 56 60
        E 0 90 60 60
        E 0 90 61 60
        E 120 80 18 00
        E 0 80 1f 00
        E 0 80 3e 00
        E 0 80 48 00
        E 0 80 4a 00
        E 0 80 54 00
        E 0 80 56 00
        E 0 80 60 00
        E 0 80 61 00
        E 0 90 1e 60
        E 0 90 61 60
        E 120 80 1e 00
        E 0 80 61 00
        E 0 90 1f 60
        E 0 90 56 60
        E 0 90 61 60
        E 120 80 1f 00
        E 0 80 56 00
        E 0 80 61 00
        E 0 90 1e 60
        E 0 90 61 60
        E 120 80 1e 00
        E 0 80 61 00
        E 0 90 18 60
        E 0 90 1b 60
        E 0 90 3d 60
        E 0 90 3e 60
        E 0 90 49 60
        E 0 90 4a 60
        E 0 90 54 60
        E 0 90 55 60
        E 0 90 56 60
        E 0 90 60 60
        E 0 90 62 60
        E 120 80 18 00
        E 0 80 1b 00
        E 0 80 3d 00
        E 0 80 3e 00
        E 0 80 49 00
        E 0 80 4a 00
        E 0 80 54 00
        E 0 80 55 00
        E 0 80 56 00
        E 0 80 60 00
        E 0 80 62 00
        E 0 90 1e 60
        E 0 90 61 60
        E 120 80 1e 00
        E 0 80 61 00
        E 0 90 1f 60
        E 0 90 56 60
        E 0 90 61 60
        E 120 80 1f 00
        E 0 80 56 00
        E 0 80 61 00
        E 0 90 1e 60
        E 0 90 61 60
        E 120 80 1e 00
        E 0 80 61 00
        E 0 90 18 60
        E 0 90 1f 60
        E 0 90 3e 60
        E 0 90 48 60
        E 0 90 4a 60
        E 0 90 54 60
        E 0 90 56 60
        E 0 90 60 60
        E 0 90 61 60
        E 120 80 18 00
        E 0 80 1f 00
        E 0 80 3e 00
        E 0 80 48 00
        E 0 80 4a 00
        E 0 80 54 00
        E 0 80 56 00
        E 0 80 60 00
        E 0 80 61 00
        E 0 90 1e 60
        E 0 90 61 60
        E 120 80 1e 00
        E 0 80 61 00
        E 0 90 1b 60
        E 0 90 55 60
        E 0 90 56 60
        E 0 90 62 60
        E 120 80 1b 00
        E 0 80 55 00
        E 0 80 56 00
        E 0 80 62 00
        E 0 90 1a 60
        E 0 90 62 60
        E 120 80 1a 00
        E 0 80 62 00
        E 0 90 18 60
        E 0 90 1b 60
        E 0 90 3d 60
        E 0 90 3e 60
        E 0 90 49 60
        E 0 90 4a 60
        E 0 90 54 60
        E 0 90 55 60
        E 0 90 56 60
        E 0 90 60 60
        E 0 90 62 60
        E 120 80 18 00
        E 0 80 1b 00
        E 0 80 3d 00
        E 0 80 3e 00
        E 0 80 49 00
        E 0 80 4a 00
        E 0 80 54 00
        E 0 80 55 00
        E 0 80 56 00
        E 0 80 60 00
        E 0 80 62 00
        E 0 90 1a 60
        E 0 90 62 60
        E 120 80 1a 00
        E 0 80 62 00
        E 0 90 1b 60
        E 0 90 55 60
        E 0 90 56 60
        E 0 90 62 60
        E 120 80 1b 00
        E 0 80 55 00
        E 0 80 56 00
        E 0 80 62 00
        E 0 90 1a 60
        E 0 90 62 60
        E 120 80 1a 00
        E 0 80 62 00
        E 0 90 18 60
        E 0 90 1f 60
        E 0 90 3e 60
        E 0 90 48 60
        E 0 90 4a 60
        E 0 90 54 60
        E 0 90 56 60
        E 0 90 60 60
        E 0 90 61 60
        E 120 80 18 00
        E 0 80 1f 00
        E 0 80 3e 00
        E 0 80 48 00
        E 0 80 4a 00
        E 0 80 54 00
        E 0 80 56 00
        E 0 80 60 00
        E 0 80 61 00
        E 0 90 1e 60
        E 0 90 61 60
        E 120 80 1e 00
        E 0 80 61 00
        E 0 90 1f 60
        E 0 90 56 60
        E 0 90 61 60
        E 120 80 1f 00
        E 0 80 56 00
        E 0 80 61 00
        E 0 90 1e 60
        E 0 90 61 60
        E 120 80 1e 00
        E 0 80 61 00
        E 0 90 18 60
        E 0 90 1b 60
        E 0 90 3d 60
        E 0 90 3e 60
        E 0 90 49 60
        E 0 90 4a 60
        E 0 90 54 60
        E 0 90 55 60
        E 0 90 56 60
        E 0 90 60 60
        E 0 90 62 60
        E 120 80 18 00
        E 0 80 1b 00
        E 0 80 3d 00
        E 0 80 3e 00
        E 0 80 49 00
        E 0 80 4a 00
        E 0 80 54 00
        E 0 80 55 00
        E 0 80 56 00
        E 0 80 60 00
        E 0 80 62 00
        E 0 90 1e 60
        E 0 90 61 60
        E 120 80 1e 00
        E 0 80 61 00
        E 0 90 1f 60
        E 0 90 56 60
        E 0 90 61 60
        E 120 80 1f 00
        E 0 80 56 00
        E 0 80 61 00
        E 0 90 1e 60
        E 0 90 61 60
        E 120 80 1e 00
        E 0 80 61 00
        E 0 90 18 60
        E 0 90 1f 60
        E 0 90 3e 60
        E 0 90 48 60
        E 0 90 4a 60
        E 0 90 54 60
        E 0 90 56 60
        E 0 90 60 60
        E 0 90 61 60
        E 120 80 18 00
        E 0 80 1f 00
        E 0 80 3e 00
        E 0 80 48 00
        E 0 80 4a 00
        E 0 80 54 00
        E 0 80 56 00
        E 0 80 60 00
        E 0 80 61 00
        E 0 90 1e 60
        E 0 90 61 60
        E 120 80 1e 00
        E 0 80 61 00
        E 0 90 1b 60
        E 0 90 55 60
        E 0 90 56 60
        E 0 90 62 60
        E 120 80 1b 00
        E 0 80 55 00
        E 0 80 56 00
        E 0 80 62 00
        E 0 90 1a 60
        E 0 90 62 60
        E 120 80 1a 00
        E 0 80 62 00
        E 0 90 18 60
        E 0 90 31 60
        E 0 90 3f 60
        E 0 90 4b 60
        E 0 90 54 60
        E 0 90 57 60
        E 0 90 60 60
        E 0 90 63 60
        E 120 80 18 00
        E 0 80 31 00
        E 0 80 3f 00
        E 0 80 4b 00
        E 0 80 54 00
        E 0 80 57 00
        E 0 80 60 00
        E 0 80 63 00
        E 0 90 30 60
        E 0 90 63 60
        E 120 80 30 00
        E 0 80 63 00
        E 0 90 33 60
        E 0 90 58 60
        E 0 90 64 60
        E 120 80 33 00
        E 0 80 58 00
        E 0 80 64 00
        E 0 90 32 60
        E 0 90 64 60
        E 120 80 32 00
        E 0 80 64 00
        E 0 90 18 60
        E 0 90 1f 60
        E 0 90 3e 60
        E 0 90 48 60
        E 0 90 4a 60
        E 0 90 54 60
        E 0 90 56 60
        E 0 90 60 60
        E 0 90 61 60
        E 120 80 18 00
        E 0 80 1f 00
        E 0 80 3e 00
        E 0 80 48 00
        E 0 80 4a 00
        E 0 80 54 00
        E 0 80 56 00
        E 0 80 60 00
        E 0 80 61 00
        E 0 90 1e 60
        E 0 90 61 60
        E 120 80 1e 00
        E 0 80 61 00
        E 0 90 1f 60
        E 0 90 56 60
        E 0 90 61 60
        E 120 80 1f 00
        E 0 80 56 00
        E 0 80 61 00
        E 0 90 1e 60
        E 0 90 61 60
        E 120 80 1e 00
        E 0 80 61 00
        E 0 90 18 60
        E 0 90 1b 60
        E 0 90 3d 60
        E 0 90 3e 60
        E 0 90 49 60
        E 0 90 4a 60
        E 0 90 54 60
        E 0 90 55 60
        E 0 90 56 60
        E 0 90 60 60
        E 0 90 62 60
        E 120 80 18 00
        E 0 80 1b 00
        E 0 80 3d 00
        E 0 80 3e 00
        E 0 80 49 00
        E 0 80 4a 00
        E 0 80 54 00
        E 0 80 55 00
        E 0 80 56 00
        E 0 80 60 00
        E 0 80 62 00
        E 0 90 1e 60
        E 0 90 61 60
        E 120 80 1e 00
        E 0 80 61 00
        E 0 90 1f 60
        E 0 90 56 60
        E 0 90 61 60
        E 120 80 1f 00
        E 0 80 56 00
        E 0 80 61 00
        E 0 90 1e 60
        E 0 90 61 60
        E 120 80 1e 00
        E 0 80 61 00
        E 0 90 18 60
        E 0 90 1f 60
        E 0 90 3e 60
        E 0 90 48 60
        E 0 90 4a 60
        E 0 90 54 60
        E 0 90 56 60
        E 0 90 60 60
        E 0 90 61 60
        E 120 80 18 00
        E 0 80 1f 00
        E 0 80 3e 00
        E 0 80 48 00
        E 0 80 4a 00
        E 0 80 54 00
        E 0 80 56 00
        E 0 80 60 00
        E 0 80 61 00
        E 0 90 1e 60
        E 0 90 61 60
        E 120 80 1e 00
        E 0 80 61 00
        E 0 90 1b 60
        E 0 90 55 60
        E 0 90 56 60
        E 0 90 62 60
        E 120 80 1b 00
        E 0 80 55 00
        E 0 80 56 00
        E 0 80 62 00
        E 0 90 1a 60
        E 0 90 62 60
        E 120 80 1a 00
        E 0 80 62 00
        E 0 90 18 60
        E 0 90 1b 60
        E 0 90 3d 60
        E 0 90 3e 60
        E 0 90 49 60
        E 0 90 4a 60
        E 0 90 54 60
        E 0 90 55 60
        E 0 90 56 60
        E 0 90 60 60
        E 0 90 62 60
        E 120 80 18 00
        E 0 80 1b 00
        E 0 80 3d 00
        E 0 80 3e 00
        E 0 80 49 00
        E 0 80 4a 00
        E 0 80 54 00
        E 0 80 55 00
        E 0 80 56 00
        E 0 80 60 00
        E 0 80 62 00
        E 0 90 1a 60
        E 0 90 62 60
        E 120 80 1a 00
        E 0 80 62 00
        E 0 90 1b 60
        E 0 90 55 60
        E 0 90 56 60
        E 0 90 62 60
        E 120 80 1b 00
        E 0 80 55 00
        E 0 80 56 00
        E 0 80 62 00
        E 0 90 1a 60
        E 0 90 62 60
        E 120 80 1a 00
        E 0 80 62 00
        E 0 90 18 60
        E 0 90 1f 60
        E 0 90 3e 60
        E 0 90 48 60
        E 0 90 4a 60
        E 0 90 54 60
        E 0 90 56 60
        E 0 90 60 60
        E 0 90 61 60
        E 120 80 18 00
        E 0 80 1f 00
        E 0 80 3e 00
        E 0 80 48 00
        E 0 80 4a 00
        E 0 80 54 00
        E 0 80 56 00
        E 0 80 60 00
        E 0 80 61 00
        E 0 90 1e 60
        E 0 90 61 60
        E 120 80 1e 00
        E 0 80 61 00
        E 0 90 1f 60
        E 0 90 56 60
        E 0 90 61 60
        E 120 80 1f 00
        E 0 80 56 00
        E 0 80 61 00
        E 0 90 1e 60
        E 0 90 61 60
        E 120 80 1e 00
        E 0 80 61 00
        E 0 90 18 60
        E 0 90 1b 60
        E 0 90 3d 60
        E 0 90 3e 60
        E 0 90 49 60
        E 0 90 4a 60
        E 0 90 54 60
        E 0 90 55 60
        E 0 90 56 60
        E 0 90 60 60
        E 0 90 62 60
        E 120 80 18 00
        E 0 80 1b 00
        E 0 80 3d 00
        E 0 80 3e 00
        E 0 80 49 00
        E 0 80 4a 00
        E 0 80 54 00
        E 0 80 55 00
        E 0 80 56 00
        E 0 80 60 00
        E 0 80 62 00
        E 0 90 1e 60
        E 0 90 61 60
        E 120 80 1e 00
        E 0 80 61 00
        E 0 90 1f 60
        E 0 90 56 60
        E 0 90 61 60
        E 120 80 1f 00
        E 0 80 56 00
        E 0 80 61 00
        E 0 90 1e 60
        E 0 90 61 60
        E 120 80 1e 00
        E 0 80 61 00
        E 0 90 18 60
        E 0 90 1b 60
        E 0 90 3d 60
        E 0 90 3e 60
        E 0 90 49 60
        E 0 90 4a 60
        E 0 90 54 60
        E 0 90 55 60
        E 0 90 56 60
        E 0 90 60 60
        E 0 90 62 60
        E 0 90 78 60
        E 0 90 79 60
        E 0 90 7a 60
        E 0 90 7b 60
        E 0 90 7c 60
        E 120 80 18 00
        E 0 80 1b 00
        E 0 80 3d 00
        E 0 80 3e 00
        E 0 80 49 00
        E 0 80 4a 00
        E 0 80 54 00
        E 0 80 55 00
        E 0 80 56 00
        E 0 80 60 00
        E 0 80 62 00
        E 0 90 1a 60
        E 0 90 62 60
        E 120 80 1a 00
        E 0 80 62 00
        E 0 90 1b 60
        E 0 90 55 60
        E 0 90 56 60
        E 0 90 62 60
        E 120 80 1b 00
        E 0 80 55 00
        E 0 80 56 00
        E 0 80 62 00
        E 0 90 1a 60
        E 0 90 62 60
        E 120 80 1a 00
        E 0 80 62 00
        E 0 90 18 60
        E 0 90 31 60
        E 0 90 3f 60
        E 0 90 4b 60
        E 0 90 54 60
        E 0 90 57 60
        E 0 90 60 60
        E 0 90 63 60
        E 120 80 18 00
        E 0 80 31 00
        E 0 80 3f 00
        E 0 80 4b 00
        E 0 80 54 00
        E 0 80 57 00
        E 0 80 60 00
        E 0 80 63 00
        E 0 90 30 60
        E 0 90 63 60
        E 120 80 30 00
        E 0 80 63 00
        E 0 90 33 60
        E 0 90 58 60
        E 0 90 64 60
        E 120 80 33 00
        E 0 80 58 00
        E 0 80 64 00
        E 0 90 32 60
        E 0 90 64 60
        E 120 80 78 00
        E 0 80 79 00
        E 0 80 7a 00
        E 0 80 7b 00
        E 0 80 7c 00
        E 0 80 32 00
        E 0 80 64 00
        E 0 90 18 60
        E 0 90 1f 60
        E 0 90 3e 60
        E 0 90 48 60
        E 0 90 4a 60
        E 0 90 54 60
        E 0 90 56 60
        E 0 90 60 60
        E 0 90 61 60
        E 120 80 18 00
        E 0 80 1f 00
        E 0 80 3e 00
        E 0 80 48 00
        E 0 80 4a 00
        E 0 80 54 00
        E 0 80 56 00
        E 0 80 60 00
        E 0 80 61 00
        E 0 90 1e 60
        E 0 90 61 60
        E 120 80 1e 00
        E 0 80 61 00
        E 0 90 1f 60
        E 0 90 56 60
        E 0 90 61 60
        E 120 80 1f 00
        E 0 80 56 00
        E 0 80 61 00
        E 0 90 1e 60
        E 0 90 61 60
        E 120 80 1e 00
        E 0 80 61 00
        E 0 90 18 60
        E 0 90 1b 60
        E 0 90 3d 60
        E 0 90 3e 60
        E 0 90 49 60
        E 0 90 4a 60
        E 0 90 54 60
        E 0 90 55 60
        E 0 90 56 60
        E 0 90 60 60
        E 0 90 62 60
        E 120 80 18 00
        E 0 80 1b 00
        E 0 80 3d 00
        E 0 80 3e 00
        E 0 80 49 00
        E 0 80 4a 00
        E 0 80 54 00
        E 0 80 55 00
        E 0 80 56 00
        E 0 80 60 00
        E 0 80 62 00
        E 0 90 1e 60
        E 0 90 61 60
        E 120 80 1e 00
        E 0 80 61 00
        E 0 90 1f 60
        E 0 90 56 60
        E 0 90 61 60
        E 120 80 1f 00
        E 0 80 56 00
        E 0 80 61 00
        E 0 90 1e 60
        E 0 90 61 60
        E 120 80 1e 00
        E 0 80 61 00
        E 0 90 18 60
        E 0 90 1f 60
        E 0 90 3e 60
        E 0 90 48 60
        E 0 90 4a 60
        E 0 90 54 60
        E 0 90 56 60
        E 0 90 60 60
        E 0 90 61 60
        E 120 80 18 00
        E 0 80 1f 00
        E 0 80 3e 00
        E 0 80 48 00
        E 0 80 4a 00
        E 0 80 54 00
        E 0 80 56 00
        E 0 80 60 00
        E 0 80 61 00
        E 0 90 1e 60
        E 0 90 61 60
        E 120 80 1e 00
        E 0 80 61 00
        E 0 90 1b 60
        E 0 90 55 60
        E 0 90 56 60
        E 0 90 62 60
        E 120 80 1b 00
        E 0 80 55 00
        E 0 80 56 00
        E 0 80 62 00
        E 0 90 1a 60
        E 0 90 62 60
        E 120 80 1a 00
        E 0 80 62 00
        E 0 90 18 60
        E 0 90 1b 60
        E 0 90 3d 60
        E 0 90 3e 60
        E 0 90 49 60
        E 0 90 4a 60
        E 0 90 54 60
        E 0 90 55 60
        E 0 90 56 60
        E 0 90 60 60
        E 0 90 62 60
        E 120 80 18 00
        E 0 80 1b 00
        E 0 80 3d 00
        E 0 80 3e 00
        E 0 80 49 00
        E 0 80 4a 00
        E 0 80 54 00
        E 0 80 55 00
        E 0 80 56 00
        E 0 80 60 00
        E 0 80 62 00
        E 0 90 1a 60
        E 0 90 62 60
        E 120 80 1a 00
        E 0 80 62 00
        E 0 90 1b 60
        E 0 90 55 60
        E 0 90 56 60
        E 0 90 62 60
        E 120 80 1b 00
        E 0 80 55 00
        E 0 80 56 00
        E 0 80 62 00
        E 0 90 1a 60
        E 0 90 62 60
        E 120 80 1a 00
        E 0 80 62 00
        E 0 90 18 60
        E 0 90 1f 60
        E 0 90 3e 60
        E 0 90 48 60
        E 0 90 4a 60
        E 0 90 54 60
        E 0 90 56 60
        E 0 90 60 60
        E 0 90 61 60
        E 0 90 74 60
        E 120 80 18 00
        E 0 80 1f 00
        E 0 80 3e 00
        E 0 80 48 00
        E 0 80 4a 00
        E 0 80 54 00
        E 0 80 56 00
        E 0 80 60 00
        E 0 80 61 00
        E 0 90 1e 60
        E 0 90 61 60
        E 120 80 1e 00
        E 0 80 61 00
        E 0 90 1f 60
        E 0 90 56 60
        E 0 90 61 60
        E 120 80 1f 00
        E 0 80 56 00
        E 0 80 61 00
        E 0 90 1e 60
        E 0 90 61 60
        E 120 80 1e 00
        E 0 80 61 00
        E 0 90 18 60
        E 0 90 1b 60
        E 0 90 3d 60
        E 0 90 3e 60
        E 0 90 49 60
        E 0 90 4a 60
        E 0 90 54 60
        E 0 90 55 60
        E 0 90 56 60
        E 0 90 60 60
        E 0 90 62 60
        E 120 80 18 00
        E 0 80 1b 00
        E 0 80 3d 00
        E 0 80 3e 00
        E 0 80 49 00
        E 0 80 4a 00
        E 0 80 54 00
        E 0 80 55 00
        E 0 80 56 00
        E 0 80 60 00
        E 0 80 62 00
        E 0 90 1e 60
        E 0 90 61 60
        E 120 80 1e 00
        E 0 80 61 00
        E 0 90 1f 60
        E 0 90 56 60
        E 0 90 61 60
        E 120 80 1f 00
        E 0 80 56 00
        E 0 80 61 00
        E 0 90 1e 60
        E 0 90 61 60
        E 120 80 1e 00
        E 0 80 61 00
        E 0 90 18 60
        E 0 90 1f 60
        E 0 90 3e 60
        E 0 90 48 60
        E 0 90 4a 60
        E 0 90 54 60
        E 0 90 56 60
        E 0 90 60 60
        E 0 90 61 60
        E 120 80 18 00
        E 0 80 1f 00
        E 0 80 3e 00
        E 0 80 48 00
        E 0 80 4a 00
        E 0 80 54 00
        E 0 80 56 00
        E 0 80 60 00
        E 0 80 61 00
        E 0 90 1e 60
        E 0 90 61 60
        E 120 80 1e 00
        E 0 80 61 00
        E 0 90 1b 60
        E 0 90 55 60
        E 0 90 56 60
        E 0 90 62 60
        E 120 80 1b 00
        E 0 80 55 00
        E 0 80 56 00
        E 0 80 62 00
        E 0 90 1a 60
        E 0 90 62 60
        E 120 80 1a 00
        E 0 80 62 00
        E 0 90 18 60
        E 0 90 31 60
        E 0 90 3f 60
        E 0 90 4b 60
        E 0 90 54 60
        E 0 90 57 60
        E 0 90 60 60
        E 0 90 63 60
        E 120 80 18 00
        E 0 80 31 00
        E 0 80 3f 00
        E 0 80 4b 00
        E 0 80 54 00
        E 0 80 57 00
        E 0 80 60 00
        E 0 80 63 00
        E 0 90 30 60
        E 0 90 63 60
        E 120 80 30 00
        E 0 80 63 00
        E 0 90 33 60
        E 0 90 58 60
        E 0 90 64 60
        E 120 80 33 00
        E 0 80 58 00
        E 0 80 64 00
        E 0 90 32 60
        E 0 90 64 60
        E 120 80 74 00
        E 0 80 32 00
        E 0 80 64 00
        E 0 90 18 60
        E 0 90 1f 60
        E 0 90 3e 60
        E 0 90 48 60
        E 0 90 4a 60
        E 0 90 54 60
        E 0 90 56 60
        E 0 90 60 60
        E 0 90 61 60
        E 120 80 18 00
        E 0 80 1f 00
        E 0 80 3e 00
        E 0 80 48 00
        E 0 80 4a 00
        E 0 80 54 00
        E 0 80 56 00
        E 0 80 60 00
        E 0 80 61 00
        E 0 90 1e 60
        E 0 90 61 60
        E 120 80 1e 00
        E 0 80 61 00
        E 0 90 1f 60
        E 0 90 56 60
        E 0 90 61 60
        E 120 80 1f 00
        E 0 80 56 00
        E 0 80 61 00
        E 0 90 1e 60
        E 0 90 61 60
        E 120 80 1e 00
        E 0 80 61 00
        E 0 90 18 60
        E 0 90 1b 60
        E 0 90 3d 60
        E 0 90 3e 60
        E 0 90 49 60
        E 0 90 4a 60
        E 0 90 54 60
        E 0 90 55 60
        E 0 90 56 60
        E 0 90 60 60
        E 0 90 62 60
        E 120 80 18 00
        E 0 80 1b 00
        E 0 80 3d 00
        E 0 80 3e 00
        E 0 80 49 00
        E 0 80 4a 00
        E 0 80 54 00
        E 0 80 55 00
        E 0 80 56 00
        E 0 80 60 00
        E 0 80 62 00
        E 0 90 1e 60
        E 0 90 61 60
        E 120 80 1e 00
        E 0 80 61 00
        E 0 90 1f 60
        E 0 90 56 60
        E 0 90 61 60
        E 120 80 1f 00
        E 0 80 56 00
        E 0 80 61 00
        E 0 90 1e 60
        E 0 90 61 60
        E 120 80 1e 00
        E 0 80 61 00
        E 0 90 18 60
        E 0 90 1f 60
        E 0 90 3e 60
        E 0 90 48 60
        E 0 90 4a 60
        E 0 90 54 60
        E 0 90 56 60
        E 0 90 60 60
        E 0 90 61 60
        E 120 80 18 00
        E 0 80 1f 00
        E 0 80 3e 00
        E 0 80 48 00
        E 0 80 4a 00
        E 0 80 54 00
        E 0 80 56 00
        E 0 80 60 00
        E 0 80 61 00
        E 0 90 1e 60
        E 0 90 61 60
        E 120 80 1e 00
        E 0 80 61 00
        E 0 90 1b 60
        E 0 90 55 60
        E 0 90 56 60
        E 0 90 62 60
        E 120 80 1b 00
        E 0 80 55 00
        E 0 80 56 00
        E 0 80 62 00
        E 0 90 1a 60
        E 0 90 62 60
        E 120 80 1a 00
        E 0 80 62 00
        E 0 90 18 60
        E 0 90 1b 60
        E 0 90 3d 60
        E 0 90 3e 60
        E 0 90 49 60
        E 0 90 4a 60
        E 0 90 54 60
        E 0 90 55 60
        E 0 90 56 60
        E 0 90 60 60
        E 0 90 62 60
        E 120 80 18 00
        E 0 80 1b 00
        E 0 80 3d 00
        E 0 80 3e 00
        E 0 80 49 00
        E 0 80 4a 00
        E 0 80 54 00
        E 0 80 55 00
        E 0 80 56 00
        E 0 80 60 00
        E 0 80 62 00
        E 0 90 1a 60
        E 0 90 62 60
        E 120 80 1a 00
        E 0 80 62 00
        E 0 90 1b 60
        E 0 90 55 60
        E 0 90 56 60
        E 0 90 62 60
        E 120 80 1b 00
        E 0 80 55 00
        E 0 80 56 00
        E 0 80 62 00
        E 0 90 1a 60
        E 0 90 62 60
        E 120 80 1a 00
        E 0 80 62 00
        E 0 90 18 60
        E 0 90 1f 60
        E 0 90 3e 60
        E 0 90 48 60
        E 0 90 4a 60
        E 0 90 54 60
        E 0 90 56 60
        E 0 90 60 60
        E 0 90 61 60
        E 120 80 18 00
        E 0 80 1f 00
        E 0 80 3e 00
        E 0 80 48 00
        E 0 80 4a 00
        E 0 80 54 00
        E 0 80 56 00
        E 0 80 60 00
        E 0 80 61 00
        E 0 90 1e 60
        E 0 90 61 60
        E 120 80 1e 00
        E 0 80 61 00
        E 0 90 1f 60
        E 0 90 56 60
        E 0 90 61 60
        E 120 80 1f 00
        E 0 80 56 00
        E 0 80 61 00
        E 0 90 1e 60
        E 0 90 61 60
        E 120 80 1e 00
        E 0 80 61 00
        E 0 90 18 60
        E 0 90 1b 60
        E 0 90 3d 60
        E 0 90 3e 60
        E 0 90 49 60
        E 0 90 4a 60
        E 0 90 54 60
        E 0 90 55 60
        E 0 90 56 60
        E 0 90 60 60
        E 0 90 62 60
        E 120 80 18 00
        E 0 80 1b 00
        E 0 80 3d 00
        E 0 80 3e 00
        E 0 80 49 00
        E 0 80 4a 00
        E 0 80 54 00
        E 0 80 55 00
        E 0 80 56 00
        E 0 80 60 00
        E 0 80 62 00
        E 0 90 1e 60
        E 0 90 61 60
        E 120 80 1e 00
        E 0 80 61 00
        E 0 90 1f 60
        E 0 90 56 60
        E 0 90 61 60
        E 120 80 1f 00
        E 0 80 56 00
        E 0 80 61 00
        E 0 90 1e 60
        E 0 90 61 60
        E 120 80 1e 00
        E 0 80 61 00
        E 0 90 18 60
        E 0 90 1f 60
        E 0 90 3e 60
        E 0 90 48 60
        E 0 90 4a 60
        E 0 90 54 60
        E 0 90 56 60
        E 0 90 60 60
        E 0 90 61 60
        E 0 90 78 60
        E 0 90 79 60
        E 0 90 7a 60
        E 0 90 7b 60
        E 0 90 7c 60
        E 120 80 18 00
        E 0 80 1f 00
        E 0 80 3e 00
        E 0 80 48 00
        E 0 80 4a 00
        E 0 80 54 00
        E 0 80 56 00
        E 0 80 60 00
        E 0 80 61 00
        E 0 90 1e 60
        E 0 90 61 60
        E 120 80 1e 00
        E 0 80 61 00
        E 0 90 1b 60
        E 0 90 55 60
        E 0 90 56 60
        E 0 90 62 60
        E 120 80 1b 00
        E 0 80 55 00
        E 0 80 56 00
        E 0 80 62 00
        E 0 90 1a 60
        E 0 90 62 60
        E 120 80 1a 00
        E 0 80 62 00
        E 0 90 18 60
        E 0 90 31 60
        E 0 90 3f 60
        E 0 90 4b 60
        E 0 90 54 60
        E 0 90 57 60
        E 0 90 60 60
        E 0 90 63 60
        E 120 80 18 00
        E 0 80 31 00
        E 0 80 3f 00
        E 0 80 4b 00
        E 0 80 54 00
        E 0 80 57 00
        E 0 80 60 00
        E 0 80 63 00
        E 0 90 30 60
        E 0 90 63 60
        E 120 80 30 00
        E 0 80 63 00
        E 0 90 33 60
        E 0 90 58 60
        E 0 90 64 60
        E 120 80 33 00
        E 0 80 58 00
        E 0 80 64 00
        E 0 90 32 60
        E 0 90 64 60
        E 120 80 78 00
        E 0 80 79 00
        E 0 80 7a 00
        E 0 80 7b 00
        E 0 80 7c 00
        E 0 80 32 00
        E 0 80 64 00
        E 0 90 18 60
        E 0 90 1f 60
        E 0 90 3e 60
        E 0 90 48 60
        E 0 90 4a 60
        E 0 90 54 60
        E 0 90 56 60
        E 0 90 60 60
        E 0 90 61 60
        E 120 80 18 00
        E 0 80 1f 00
        E 0 80 3e 00
        E 0 80 48 00
        E 0 80 4a 00
        E 0 80 54 00
        E 0 80 56 00
        E 0 80 60 00
        E 0 80 61 00
        E 0 90 1e 60
        E 0 90 61 60
        E 120 80 1e 00
        E 0 80 61 00
        E 0 90 1f 60
        E 0 90 56 60
        E 0 90 61 60
        E 120 80 1f 00
        E 0 80 56 00
        E 0 80 61 00
        E 0 90 1e 60
        E 0 90 61 60
        E 120 80 1e 00
        E 0 80 61 00
        E 0 90 18 60
        E 0 90 1b 60
        E 0 90 3d 60
        E 0 90 3e 60
        E 0 90 49 60
        E 0 90 4a 60
        E 0 90 54 60
        E 0 90 55 60
        E 0 90 56 60
        E 0 90 60 60
        E 0 90 62 60
        E 120 80 18 00
        E 0 80 1b 00
        E 0 80 3d 00
        E 0 80 3e 00
        E 0 80 49 00
        E 0 80 4a 00
        E 0 80 54 00
        E 0 80 55 00
        E 0 80 56 00
        E 0 80 60 00
        E 0 80 62 00
        E 0 90 1e 60
        E 0 90 61 60
        E 120 80 1e 00
        E 0 80 61 00
        E 0 90 1f 60
        E 0 90 56 60
        E 0 90 61 60
        E 120 80 1f 00
        E 0 80 56 00
        E 0 80 61 00
        E 0 90 1e 60
        E 0 90 61 60
        E 120 80 1e 00
        E 0 80 61 00
        E 0 90 18 60
        E 0 90 1f 60
        E 0 90 3e 60
        E 0 90 48 60
        E 0 90 4a 60
        E 0 90 54 60
        E 0 90 56 60
        E 0 90 60 60
        E 0 90 61 60
        E 120 80 18 00
        E 0 80 1f 00
        E 0 80 3e 00
        E 0 80 48 00
        E 0 80 4a 00
        E 0 80 54 00
        E 0 80 56 00
        E 0 80 60 00
        E 0 80 61 00
        E 0 90 1e 60
        E 0 90 61 60
        E 120 80 1e 00
        E 0 80 61 00
        E 0 90 1b 60
        E 0 90 55 60
        E 0 90 56 60
        E 0 90 62 60
        E 120 80 1b 00
        E 0 80 55 00
        E 0 80 56 00
        E 0 80 62 00
        E 0 90 1a 60
        E 0 90 62 60
        E 120 80 1a 00
        E 0 80 62 00
        E 0 90 18 60
        E 0 90 1b 60
        E 0 90 3d 60
        E 0 90 3e 60
        E 0 90 49 60
        E 0 90 4a 60
        E 0 90 54 60
        E 0 90 55 60
        E 0 90 56 60
        E 0 90 60 60
        E 0 90 62 60
        E 120 80 18 00
        E 0 80 1b 00
        E 0 80 3d 00
        E 0 80 3e 00
        E 0 80 49 00
        E 0 80 4a 00
        E 0 80 54 00
        E 0 80 55 00
        E 0 80 56 00
        E 0 80 60 00
        E 0 80 62 00
        E 0 90 1a 60
        E 0 90 62 60
        E 120 80 1a 00
        E 0 80 62 00
        E 0 90 1b 60
        E 0 90 55 60
        E 0 90 56 60
        E 0 90 62 60
        E 120 80 1b 00
        E 0 80 55 00
        E 0 80 56 00
        E 0 80 62 00
        E 0 90 1a 60
        E 0 90 62 60
        E 120 80 1a 00
        E 0 80 62 00
        E 0 90 18 60
        E 0 90 1f 60
        E 0 90 3e 60
        E 0 90 48 60
        E 0 90 4a 60
        E 0 90 54 60
        E 0 90 56 60
        E 0 90 60 60
        E 0 90 61 60
        E 120 80 18 00
        E 0 80 1f 00
        E 0 80 3e 00
        E 0 80 48 00
        E 0 80 4a 00
        E 0 80 54 00
        E 0 80 56 00
        E 0 80 60 00
        E 0 80 61 00
        E 0 90 1e 60
        E 0 90 61 60
        E 120 80 1e 00
        E 0 80 61 00
        E 0 90 1f 60
        E 0 90 56 60
        E 0 90 61 60
        E 120 80 1f 00
        E 0 80 56 00
        E 0 80 61 00
        E 0 90 1e 60
        E 0 90 61 60
        E 120 80 1e 00
        E 0 80 61 00
        E 0 90 18 60
        E 0 90 1b 60
        E 0 90 3d 60
        E 0 90 3e 60
        E 0 90 49 60
        E 0 90 4a 60
        E 0 90 54 60
        E 0 90 55 60
        E 0 90 56 60
        E 0 90 60 60
        E 0 90 62 60
        E 120 80 18 00
        E 0 80 1b 00
        E 0 80 3d 00
        E 0 80 3e 00
        E 0 80 49 00
        E 0 80 4a 00
        E 0 80 54 00
        E 0 80 55 00
        E 0 80 56 00
        E 0 80 60 00
        E 0 80 62 00
        E 0 90 1e 60
        E 0 90 61 60
        E 120 80 1e 00
        E 0 80 61 00
        E 0 90 1f 60
        E 0 90 56 60
        E 0 90 61 60
        E 120 80 1f 00
        E 0 80 56 00
        E 0 80 61 00
        E 0 90 1e 60
        E 0 90 61 60
        E 120 80 1e 00
        E 0 80 61 00
        E 0 90 18 60
        E 0 90 1f 60
        E 0 90 3e 60
        E 0 90 48 60
        E 0 90 4a 60
        E 0 90 54 60
        E 0 90 56 60
        E 0 90 60 60
        E 0 90 61 60
        E 120 80 18 00
        E 0 80 1f 00
        E 0 80 3e 00
        E 0 80 48 00
        E 0 80 4a 00
        E 0 80 54 00
        E 0 80 56 00
        E 0 80 60 00
        E 0 80 61 00
        E 0 90 1e 60
        E 0 90 61 60
        E 120 80 1e 00
        E 0 80 61 00
        E 0 90 1b 60
        E 0 90 55 60
        E 0 90 56 60
        E 0 90 62 60
        E 120 80 1b 00
        E 0 80 55 00
        E 0 80 56 00
        E 0 80 62 00
        E 0 90 1a 60
        E 0 90 62 60
        E 120 80 1a 00
        E 0 80 62 00
        E 0 90 18 60
        E 0 90 31 60
        E 0 90 3f 60
        E 0 90 4b 60
        E 0 90 54 60
        E 0 90 57 60
        E 0 90 60 60
        E 0 90 63 60
        E 120 80 18 00
        E 0 80 31 00
        E 0 80 3f 00
        E 0 80 4b 00
        E 0 80 54 00
        E 0 80 57 00
        E 0 80 60 00
        E 0 80 63 00
        E 0 90 30 60
        E 0 90 63 60
        E 120 80 30 00
        E 0 80 63 00
        E 0 90 33 60
        E 0 90 58 60
        E 0 90 64 60
        E 120 80 33 00
        E 0 80 58 00
        E 0 80 64 00
        E 0 90 32 60
        E 0 90 64 60
        E 120 80 32 00
        E 0 80 64 00
        E 0 90 18 60
        E 0 90 1f 60
        E 0 90 3e 60
        E 0 90 48 60
        E 0 90 4a 60
        E 0 90 54 60
        E 0 90 56 60
        E 0 90 60 60
        E 0 90 61 60
        E 120 80 18 00
        E 0 80 1f 00
        E 0 80 3e 00
        E 0 80 48 00
        E 0 80 4a 00
        E 0 80 54 00
        E 0 80 56 00
        E 0 80 60 00
        E 0 80 61 00
        E 0 90 1e 60
        E 0 90 61 60
        E 120 80 1e 00
        E 0 80 61 00
        E 0 90 1f 60
        E 0 90 56 60
        E 0 90 61 60
        E 120 80 1f 00
        E 0 80 56 00
        E 0 80 61 00
        E 0 90 1e 60
        E 0 90 61 60
        E 120 80 1e 00
        E 0 80 61 00
        E 0 90 18 60
        E 0 90 1b 60
        E 0 90 3d 60
        E 0 90 3e 60
        E 0 90 49 60
        E 0 90 4a 60
        E 0 90 54 60
        E 0 90 55 60
        E 0 90 56 60
        E 0 90 60 60
        E 0 90 62 60
        E 120 80 18 00
        E 0 80 1b 00
        E 0 80 3d 00
        E 0 80 3e 00
        E 0 80 49 00
        E 0 80 4a 00
        E 0 80 54 00
        E 0 80 55 00
        E 0 80 56 00
        E 0 80 60 00
        E 0 80 62 00
        E 0 90 1e 60
        E 0 90 61 60
        E 120 80 1e 00
        E 0 80 61 00
        E 0 90 1f 60
        E 0 90 56 60
        E 0 90 61 60
        E 120 80 1f 00
        E 0 80 56 00
        E 0 80 61 00
        E 0 90 1e 60
        E 0 90 61 60
        E 120 80 1e 00
        E 0 80 61 00
        E 0 90 18 60
        E 0 90 1f 60
        E 0 90 3e 60
        E 0 90 48 60
        E 0 90 4a 60
        E 0 90 54 60
        E 0 90 56 60
        E 0 90 60 60
        E 0 90 61 60
        E 120 80 18 00
        E 0 80 1f 00
        E 0 80 3e 00
        E 0 80 48 00
        E 0 80 4a 00
        E 0 80 54 00
        E 0 80 56 00
        E 0 80 60 00
        E 0 80 61 00
        E 0 90 1e 60
        E 0 90 61 60
        E 120 80 1e 00
        E 0 80 61 00
        E 0 90 1b 60
        E 0 90 55 60
        E 0 90 56 60
        E 0 90 62 60
        E 120 80 1b 00
        E 0 80 55 00
        E 0 80 56 00
        E 0 80 62 00
        E 0 90 1a 60
        E 0 90 62 60
        E 120 80 1a 00
        E 0 80 62 00
        E 0 90 18 60
        E 0 90 1b 60
        E 0 90 3d 60
        E 0 90 3e 60
        E 0 90 49 60
        E 0 90 4a 60
        E 0 90 54 60
        E 0 90 55 60
        E 0 90 56 60
        E 0 90 60 60
        E 0 90 62 60
        E 120 80 18 00
        E 0 80 1b 00
        E 0 80 3d 00
        E 0 80 3e 00
        E 0 80 49 00
        E 0 80 4a 00
        E 0 80 54 00
        E 0 80 55 00
        E 0 80 56 00
        E 0 80 60 00
        E 0 80 62 00
        E 0 90 1a 60
        E 0 90 62 60
        E 120 80 1a 00
        E 0 80 62 00
        E 0 90 1b 60
        E 0 90 55 60
        E 0 90 56 60
        E 0 90 62 60
        E 120 80 1b 00
        E 0 80 55 00
        E 0 80 56 00
        E 0 80 62 00
        E 0 90 1a 60
        E 0 90 62 60
        E 120 80 1a 00
        E 0 80 62 00
        E 0 90 18 60
        E 0 90 1f 60
        E 0 90 3e 60
        E 0 90 48 60
        E 0 90 4a 60
        E 0 90 54 60
        E 0 90 56 60
        E 0 90 60 60
        E 0 90 61 60
        E 120 80 18 00
        E 0 80 1f 00
        E 0 80 3e 00
        E 0 80 48 00
        E 0 80 4a 00
        E 0 80 54 00
        E 0 80 56 00
        E 0 80 60 00
        E 0 80 61 00
        E 0 90 1e 60
        E 0 90 61 60
        E 120 80 1e 00
        E 0 80 61 00
        E 0 90 1f 60
        E 0 90 56 60
        E 0 90 61 60
        E 120 80 1f 00
        E 0 80 56 00
        E 0 80 61 00
        E 0 90 1e 60
        E 0 90 61 60
        E 120 80 1e 00
        E 0 80 61 00
        E 0 90 18 60
        E 0 90 1b 60
        E 0 90 3d 60
        E 0 90 3e 60
        E 0 90 49 60
        E 0 90 4a 60
        E 0 90 54 60
        E 0 90 55 60
        E 0 90 56 60
        E 0 90 60 60
        E 0 90 62 60
        E 120 80 18 00
        E 0 80 1b 00
        E 0 80 3d 00
        E 0 80 3e 00
        E 0 80 49 00
        E 0 80 4a 00
        E 0 80 54 00
        E 0 80 55 00
        E 0 80 56 00
        E 0 80 60 00
        E 0 80 62 00
        E 0 90 1e 60
        E 0 90 61 60
        E 120 80 1e 00
        E 0 80 61 00
        E 0 90 1f 60
        E 0 90 56 60
        E 0 90 61 60
        E 120 80 1f 00
        E 0 80 56 00
        E 0 80 61 00
        E 0 90 1e 60
        E 0 90 61 60
        E 120 80 1e 00
        E 0 80 61 00
        E 0 90 18 60
        E 0 90 1f 60
        E 0 90 3e 60
        E 0 90 48 60
        E 0 90 4a 60
        E 0 90 54 60
        E 0 90 56 60
        E 0 90 60 60
        E 0 90 61 60
        E 0 90 78 60
        E 0 90 79 60
        E 0 90 7a 60
        E 0 90 7b 60
        E 0 90 7c 60
        E 120 80 18 00
        E 0 80 1f 00
        E 0 80 3e 00
        E 0 80 48 00
        E 0 80 4a 00
        E 0 80 54 00
        E 0 80 56 00
        E 0 80 60 00
        E 0 80 61 00
        E 0 90 1e 60
        E 0 90 61 60
        E 120 80 1e 00
        E 0 80 61 00
        E 0 90 1b 60
        E 0 90 55 60
        E 0 90 56 60
        E 0 90 62 60
        E 120 80 1b 00
        E 0 80 55 00
        E 0 80 56 00
        E 0 80 62 00
        E 0 90 1a 60
        E 0 90 62 60
        E 120 80 1a 00
        E 0 80 62 00
        E 0 90 18 60
        E 0 90 31 60
        E 0 90 3f 60
        E 0 90 4b 60
        E 0 90 54 60
        E 0 90 57 60
        E 0 90 60 60
        E 0 90 63 60
        E 120 80 18 00
        E 0 80 31 00
        E 0 80 3f 00
        E 0 80 4b 00
        E 0 80 54 00
        E 0 80 57 00
        E 0 80 60 00
        E 0 80 63 00
        E 0 90 30 60
        E 0 90 63 60
        E 120 80 30 00
        E 0 80 63 00
        E 0 90 33 60
        E 0 90 58 60
        E 0 90 64 60
        E 120 80 33 00
        E 0 80 58 00
        E 0 80 64 00
        E 0 90 32 60
        E 0 90 64 60
        E 120 80 78 00
        E 0 80 79 00
        E 0 80 7a 00
        E 0 80 7b 00
        E 0 80 7c 00
        E 0 80 32 00
        E 0 80 64 00
        E 0 90 18 60
        E 0 90 1f 60
        E 0 90 3e 60
        E 0 90 48 60
        E 0 90 4a 60
        E 0 90 54 60
        E 0 90 56 60
        E 0 90 60 60
        E 0 90 61 60
        E 120 80 18 00
        E 0 80 1f 00
        E 0 80 3e 00
        E 0 80 48 00
        E 0 80 4a 00
        E 0 80 54 00
        E 0 80 56 00
        E 0 80 60 00
        E 0 80 61 00
        E 0 90 1e 60
        E 0 90 61 60
        E 120 80 1e 00
        E 0 80 61 00
        E 0 90 1f 60
        E 0 90 56 60
        E 0 90 61 60
        E 120 80 1f 00
        E 0 80 56 00
        E 0 80 61 00
        E 0 90 1e 60
        E 0 90 61 60
        E 120 80 1e 00
        E 0 80 61 00
        E 0 90 18 60
        E 0 90 1b 60
        E 0 90 3d 60
        E 0 90 3e 60
        E 0 90 49 60
        E 0 90 4a 60
        E 0 90 54 60
        E 0 90 55 60
        E 0 90 56 60
        E 0 90 60 60
        E 0 90 62 60
        E 120 80 18 00
        E 0 80 1b 00
        E 0 80 3d 00
        E 0 80 3e 00
        E 0 80 49 00
        E 0 80 4a 00
        E 0 80 54 00
        E 0 80 55 00
        E 0 80 56 00
        E 0 80 60 00
        E 0 80 62 00
        E 0 90 1e 60
        E 0 90 61 60
        E 120 80 1e 00
        E 0 80 61 00
        E 0 90 1f 60
        E 0 90 56 60
        E 0 90 61 60
        E 120 80 1f 00
        E 0 80 56 00
        E 0 80 61 00
        E 0 90 1e 60
        E 0 90 61 60
        E 120 80 1e 00
        E 0 80 61 00
        E 0 90 18 60
        E 0 90 1f 60
        E 0 90 3e 60
        E 0 90 48 60
        E 0 90 4a 60
        E 0 90 54 60
        E 0 90 56 60
        E 0 90 60 60
        E 0 90 61 60
        E 120 80 18 00
        E 0 80 1f 00
        E 0 80 3e 00
        E 0 80 48 00
        E 0 80 4a 00
        E 0 80 54 00
        E 0 80 56 00
        E 0 80 60 00
        E 0 80 61 00
        E 0 90 1e 60
        E 0 90 61 60
        E 120 80 1e 00
        E 0 80 61 00
        E 0 90 1b 60
        E 0 90 55 60
        E 0 90 56 60
        E 0 90 62 60
        E 120 80 1b 00
        E 0 80 55 00
        E 0 80 56 00
        E 0 80 62 00
        E 0 90 1a 60
        E 0 90 62 60
        E 120 80 1a 00
        E 0 80 62 00
        E 0 90 18 60
        E 0 90 1b 60
        E 0 90 3d 60
        E 0 90 3e 60
        E 0 90 49 60
        E 0 90 4a 60
        E 0 90 54 60
        E 0 90 55 60
        E 0 90 56 60
        E 0 90 60 60
        E 0 90 62 60
        E 120 80 18 00
        E 0 80 1b 00
        E 0 80 3d 00
        E 0 80 3e 00
        E 0 80 49 00
        E 0 80 4a 00
        E 0 80 54 00
        E 0 80 55 00
        E 0 80 56 00
        E 0 80 60 00
        E 0 80 62 00
        E 0 90 1a 60
        E 0 90 62 60
        E 120 80 1a 00
        E 0 80 62 00
        E 0 90 1b 60
        E 0 90 55 60
        E 0 90 56 60
        E 0 90 62 60
        E 120 80 1b 00
        E 0 80 55 00
        E 0 80 56 00
        E 0 80 62 00
        E 0 90 1a 60
        E 0 90 62 60
        E 120 80 1a 00
        E 0 80 62 00
        E 0 90 18 60
        E 0 90 1f 60
        E 0 90 3e 60
        E 0 90 48 60
        E 0 90 4a 60
        E 0 90 54 60
        E 0 90 56 60
        E 0 90 60 60
        E 0 90 61 60
        E 120 80 18 00
        E 0 80 1f 00
        E 0 80 3e 00
        E 0 80 48 00
        E 0 80 4a 00
        E 0 80 54 00
        E 0 80 56 00
        E 0 80 60 00
        E 0 80 61 00
        E 0 90 1e 60
        E 0 90 61 60
        E 120 80 1e 00
        E 0 80 61 00
        E 0 90 1f 60
        E 0 90 56 60
        E 0 90 61 60
        E 120 80 1f 00
        E 0 80 56 00
        E 0 80 61 00
        E 0 90 1e 60
        E 0 90 61 60
        E 120 80 1e 00
        E 0 80 61 00
        E 0 90 18 60
        E 0 90 1b 60
        E 0 90 3d 60
        E 0 90 3e 60
        E 0 90 49 60
        E 0 90 4a 60
        E 0 90 54 60
        E 0 90 55 60
        E 0 90 56 60
        E 0 90 60 60
        E 0 90 62 60
        E 120 80 18 00
        E 0 80 1b 00
        E 0 80 3d 00
        E 0 80 3e 00
        E 0 80 49 00
        E 0 80 4a 00
        E 0 80 54 00
        E 0 80 55 00
        E 0 80 56 00
        E 0 80 60 00
        E 0 80 62 00
        E 0 90 1e 60
        E 0 90 61 60
        E 120 80 1e 00
        E 0 80 61 00
        E 0 90 1f 60
        E 0 90 56 60
        E 0 90 61 60
        E 120 80 1f 00
        E 0 80 56 00
        E 0 80 61 00
        E 0 90 1e 60
        E 0 90 61 60
        E 120 80 1e 00
        E 0 80 61 00
        E 0 90 18 60
        E 0 90 1f 60
        E 0 90 3e 60
        E 0 90 48 60
        E 0 90 4a 60
        E 0 90 54 60
        E 0 90 56 60
        E 0 90 60 60
        E 0 90 61 60
        E 120 80 18 00
        E 0 80 1f 00
        E 0 80 3e 00
        E 0 80 48 00
        E 0 80 4a 00
        E 0 80 54 00
        E 0 80 56 00
        E 0 80 60 00
        E 0 80 61 00
        E 0 90 1e 60
        E 0 90 61 60
        E 120 80 1e 00
        E 0 80 61 00
        E 0 90 1b 60
        E 0 90 55 60
        E 0 90 56 60
        E 0 90 62 60
        E 120 80 1b 00
        E 0 80 55 00
        E 0 80 56 00
        E 0 80 62 00
        E 0 90 1a 60
        E 0 90 62 60
        E 120 80 1a 00
        E 0 80 62 00
        E 0 90 18 60
        E 0 90 31 60
        E 0 90 3f 60
        E 0 90 4b 60
        E 0 90 54 60
        E 0 90 57 60
        E 0 90 60 60
        E 0 90 63 60
        E 120 80 18 00
        E 0 80 31 00
        E 0 80 3f 00
        E 0 80 4b 00
        E 0 80 54 00
        E 0 80 57 00
        E 0 80 60 00
        E 0 80 63 00
        E 0 90 30 60
        E 0 90 63 60
        E 120 80 30 00
        E 0 80 63 00
        E 0 90 33 60
        E 0 90 58 60
        E 0 90 64 60
        E 120 80 33 00
        E 0 80 58 00
        E 0 80 64 00
        E 0 90 32 60
        E 0 90 64 60
        E 120 80 32 00
        E 0 80 64 00
        E 0 90 18 60
        E 0 90 1f 60
        E 0 90 3e 60
        E 0 90 48 60
        E 0 90 4a 60
        E 0 90 54 60
        E 0 90 56 60
        E 0 90 60 60
        E 0 90 61 60
        E 0 90 74 60
        E 120 80 18 00
        E 0 80 1f 00
        E 0 80 3e 00
        E 0 80 48 00
        E 0 80 4a 00
        E 0 80 54 00
        E 0 80 56 00
        E 0 80 60 00
        E 0 80 61 00
        E 0 90 1e 60
        E 0 90 61 60
        E 120 80 1e 00
        E 0 80 61 00
        E 0 90 1f 60
        E 0 90 56 60
        E 0 90 61 60
        E 120 80 1f 00
        E 0 80 56 00
        E 0 80 61 00
        E 0 90 1e 60
        E 0 90 61 60
        E 120 80 1e 00
        E 0 80 61 00
        E 0 90 18 60
        E 0 90 1b 60
        E 0 90 3d 60
        E 0 90 3e 60
        E 0 90 49 60
        E 0 90 4a 60
        E 0 90 54 60
        E 0 90 55 60
        E 0 90 56 60
        E 0 90 60 60
        E 0 90 62 60
        E 120 80 18 00
        E 0 80 1b 00
        E 0 80 3d 00
        E 0 80 3e 00
        E 0 80 49 00
        E 0 80 4a 00
        E 0 80 54 00
        E 0 80 55 00
        E 0 80 56 00
        E 0 80 60 00
        E 0 80 62 00
        E 0 90 1e 60
        E 0 90 61 60
        E 120 80 1e 00
        E 0 80 61 00
        E 0 90 1f 60
        E 0 90 56 60
        E 0 90 61 60
        E 120 80 1f 00
        E 0 80 56 00
        E 0 80 61 00
        E 0 90 1e 60
        E 0 90 61 60
        E 120 80 1e 00
        E 0 80 61 00
        E 0 90 18 60
        E 0 90 1f 60
        E 0 90 3e 60
        E 0 90 48 60
        E 0 90 4a 60
        E 0 90 54 60
        E 0 90 56 60
        E 0 90 60 60
        E 0 90 61 60
        E 120 80 18 00
        E 0 80 1f 00
        E 0 80 3e 00
        E 0 80 48 00
        E 0 80 4a 00
        E 0 80 54 00
        E 0 80 56 00
        E 0 80 60 00
        E 0 80 61 00
        E 0 90 1e 60
        E 0 90 61 60
        E 120 80 1e 00
        E 0 80 61 00
        E 0 90 1b 60
        E 0 90 55 60
        E 0 90 56 60
        E 0 90 62 60
        E 120 80 1b 00
        E 0 80 55 00
        E 0 80 56 00
        E 0 80 62 00
        E 0 90 1a 60
        E 0 90 62 60
        E 120 80 1a 00
        E 0 80 62 00
        E 0 90 18 60
        E 0 90 1b 60
        E 0 90 3d 60
        E 0 90 3e 60
        E 0 90 49 60
        E 0 90 4a 60
        E 0 90 54 60
        E 0 90 55 60
        E 0 90 56 60
        E 0 90 60 60
        E 0 90 62 60
        E 120 80 18 00
        E 0 80 1b 00
        E 0 80 3d 00
        E 0 80 3e 00
        E 0 80 49 00
        E 0 80 4a 00
        E 0 80 54 00
        E 0 80 55 00
        E 0 80 56 00
        E 0 80 60 00
        E 0 80 62 00
        E 0 90 1a 60
        E 0 90 62 60
        E 120 80 1a 00
        E 0 80 62 00
        E 0 90 1b 60
        E 0 90 55 60
        E 0 90 56 60
        E 0 90 62 60
        E 120 80 1b 00
        E 0 80 55 00
        E 0 80 56 00
        E 0 80 62 00
        E 0 90 1a 60
        E 0 90 62 60
        E 120 80 74 00
        E 0 80 1a 00
        E 0 80 62 00
        E 0 90 18 60
        E 0 90 1f 60
        E 0 90 3e 60
        E 0 90 48 60
        E 0 90 4a 60
        E 0 90 54 60
        E 0 90 56 60
        E 0 90 60 60
        E 0 90 61 60
        E 120 80 18 00
        E 0 80 1f 00
        E 0 80 3e 00
        E 0 80 48 00
        E 0 80 4a 00
        E 0 80 54 00
        E 0 80 56 00
        E 0 80 60 00
        E 0 80 61 00
        E 0 90 1e 60
        E 0 90 61 60
        E 120 80 1e 00
        E 0 80 61 00
        E 0 90 1f 60
        E 0 90 56 60
        E 0 90 61 60
        E 120 80 1f 00
        E 0 80 56 00
        E 0 80 61 00
        E 0 90 1e 60
        E 0 90 61 60
        E 120 80 1e 00
        E 0 80 61 00
        E 0 90 18 60
        E 0 90 1b 60
        E 0 90 3d 60
        E 0 90 3e 60
        E 0 90 49 60
        E 0 90 4a 60
        E 0 90 54 60
        E 0 90 55 60
        E 0 90 56 60
        E 0 90 60 60
        E 0 90 62 60
        E 120 80 18 00
        E 0 80 1b 00
        E 0 80 3d 00
        E 0 80 3e 00
        E 0 80 49 00
        E 0 80 4a 00
        E 0 80 54 00
        E 0 80 55 00
        E 0 80 56 00
        E 0 80 60 00
        E 0 80 62 00
        E 0 90 1e 60
        E 0 90 61 60
        E 120 80 1e 00
        E 0 80 61 00
        E 0 90 1f 60
        E 0 90 56 60
        E 0 90 61 60
        E 120 80 1f 00
        E 0 80 56 00
        E 0 80 61 00
        E 0 90 1e 60
        E 0 90 61 60
        E 120 80 1e 00
        E 0 80 61 00
        E 0 90 18 60
        E 0 90 1f 60
        E 0 90 3e 60
        E 0 90 48 60
        E 0 90 4a 60
        E 0 90 54 60
        E 0 90 56 60
        E 0 90 60 60
        E 0 90 61 60
        E 0 90 78 60
        E 0 90 79 60
        E 0 90 7a 60
        E 0 90 7b 60
        E 0 90 7c 60
        E 120 80 18 00
        E 0 80 1f 00
        E 0 80 3e 00
        E 0 80 48 00
        E 0 80 4a 00
        E 0 80 54 00
        E 0 80 56 00
        E 0 80 60 00
        E 0 80 61 00
        E 0 90 1e 60
        E 0 90 61 60
        E 120 80 1e 00
        E 0 80 61 00
        E 0 90 1b 60
        E 0 90 55 60
        E 0 90 56 60
        E 0 90 62 60
        E 120 80 1b 00
        E 0 80 55 00
        E 0 80 56 00
        E 0 80 62 00
        E 0 90 1a 60
        E 0 90 62 60
        E 120 80 1a 00
        E 0 80 62 00
        E 0 90 18 60
        E 0 90 31 60
        E 0 90 3f 60
        E 0 90 4b 60
        E 0 90 54 60
        E 0 90 57 60
        E 0 90 60 60
        E 0 90 63 60
        E 120 80 18 00
        E 0 80 31 00
        E 0 80 3f 00
        E 0 80 4b 00
        E 0 80 54 00
        E 0 80 57 00
        E 0 80 60 00
        E 0 80 63 00
        E 0 90 30 60
        E 0 90 63 60
        E 120 80 30 00
        E 0 80 63 00
        E 0 90 33 60
        E 0 90 58 60
        E 0 90 64 60
        E 120 80 33 00
        E 0 80 58 00
        E 0 80 64 00
        E 0 90 32 60
        E 0 90 64 60
        E 120 80 78 00
        E 0 80 79 00
        E 0 80 7a 00
        E 0 80 7b 00
        E 0 80 7c 00
        E 0 80 32 00
        E 0 80 64 00
        E 0 90 18 60
        E 0 90 1f 60
        E 0 90 3e 60
        E 0 90 48 60
        E 0 90 4a 60
        E 0 90 54 60
        E 0 90 56 60
        E 0 90 60 60
        E 0 90 61 60
        E 120 80 18 00
        E 0 80 1f 00
        E 0 80 3e 00
        E 0 80 48 00
        E 0 80 4a 00
        E 0 80 54 00
        E 0 80 56 00
        E 0 80 60 00
        E 0 80 61 00
        E 0 90 1e 60
        E 0 90 61 60
        E 120 80 1e 00
        E 0 80 61 00
        E 0 90 1f 60
        E 0 90 56 60
        E 0 90 61 60
        E 120 80 1f 00
        E 0 80 56 00
        E 0 80 61 00
        E 0 90 1e 60
        E 0 90 61 60
        E 120 80 1e 00
        E 0 80 61 00
        E 0 90 18 60
        E 0 90 1b 60
        E 0 90 3d 60
        E 0 90 3e 60
        E 0 90 49 60
        E 0 90 4a 60
        E 0 90 54 60
        E 0 90 55 60
        E 0 90 56 60
        E 0 90 60 60
        E 0 90 62 60
        E 120 80 18 00
        E 0 80 1b 00
        E 0 80 3d 00
        E 0 80 3e 00
        E 0 80 49 00
        E 0 80 4a 00
        E 0 80 54 00
        E 0 80 55 00
        E 0 80 56 00
        E 0 80 60 00
        E 0 80 62 00
        E 0 90 1e 60
        E 0 90 61 60
        E 120 80 1e 00
        E 0 80 61 00
        E 0 90 1f 60
        E 0 90 56 60
        E 0 90 61 60
        E 120 80 1f 00
        E 0 80 56 00
        E 0 80 61 00
        E 0 90 1e 60
        E 0 90 61 60
        E 120 80 1e 00
        E 0 80 61 00
        E 0 90 18 60
        E 0 90 1f 60
        E 0 90 3e 60
        E 0 90 48 60
        E 0 90 4a 60
        E 0 90 54 60
        E 0 90 56 60
        E 0 90 60 60
        E 0 90 61 60
        E 120 80 18 00
        E 0 80 1f 00
        E 0 80 3e 00
        E 0 80 48 00
        E 0 80 4a 00
        E 0 80 54 00
        E 0 80 56 00
        E 0 80 60 00
        E 0 80 61 00
        E 0 90 1e 60
        E 0 90 61 60
        E 120 80 1e 00
        E 0 80 61 00
        E 0 90 1b 60
        E 0 90 55 60
        E 0 90 56 60
        E 0 90 62 60
        E 120 80 1b 00
        E 0 80 55 00
        E 0 80 56 00
        E 0 80 62 00
        E 0 90 1a 60
        E 0 90 62 60
        E 120 80 1a 00
        E 0 80 62 00
        E 0 90 18 60
        E 0 90 1b 60
        E 0 90 3d 60
        E 0 90 3e 60
        E 0 90 49 60
        E 0 90 4a 60
        E 0 90 54 60
        E 0 90 55 60
        E 0 90 56 60
        E 0 90 60 60
        E 0 90 62 60
        E 120 80 18 00
        E 0 80 1b 00
        E 0 80 3d 00
        E 0 80 3e 00
        E 0 80 49 00
        E 0 80 4a 00
        E 0 80 54 00
        E 0 80 55 00
        E 0 80 56 00
        E 0 80 60 00
        E 0 80 62 00
        E 0 90 1a 60
        E 0 90 62 60
        E 120 80 1a 00
        E 0 80 62 00
        E 0 90 1b 60
        E 0 90 55 60
        E 0 90 56 60
        E 0 90 62 60
        E 120 80 1b 00
        E 0 80 55 00
        E 0 80 56 00
        E 0 80 62 00
        E 0 90 1a 60
        E 0 90 62 60
        E 120 80 1a 00
        E 0 80 62 00
        E 0 90 18 60
        E 0 90 1f 60
        E 0 90 3e 60
        E 0 90 48 60
        E 0 90 4a 60
        E 0 90 54 60
        E 0 90 56 60
        E 0 90 60 60
        E 0 90 61 60
        E 120 80 18 00
        E 0 80 1f 00
        E 0 80 3e 00
        E 0 80 48 00
        E 0 80 4a 00
        E 0 80 54 00
        E 0 80 56 00
        E 0 80 60 00
        E 0 80 61 00
        E 0 90 1e 60
        E 0 90 61 60
        E 120 80 1e 00
        E 0 80 61 00
        E 0 90 1f 60
        E 0 90 56 60
        E 0 90 61 60
        E 120 80 1f 00
        E 0 80 56 00
        E 0 80 61 00
        E 0 90 1e 60
        E 0 90 61 60
        E 120 80 1e 00
        E 0 80 61 00
        E 0 90 18 60
        E 0 90 1b 60
        E 0 90 3d 60
        E 0 90 3e 60
        E 0 90 49 60
        E 0 90 4a 60
        E 0 90 54 60
        E 0 90 55 60
        E 0 90 56 60
        E 0 90 60 60
        E 0 90 62 60
        E 120 80 18 00
        E 0 80 1b 00
        E 0 80 3d 00
        E 0 80 3e 00
        E 0 80 49 00
        E 0 80 4a 00
        E 0 80 54 00
        E 0 80 55 00
        E 0 80 56 00
        E 0 80 60 00
        E 0 80 62 00
        E 0 90 1e 60
        E 0 90 61 60
        E 120 80 1e 00
        E 0 80 61 00
        E 0 90 1f 60
        E 0 90 56 60
        E 0 90 61 60
        E 120 80 1f 00
        E 0 80 56 00
        E 0 80 61 00
        E 0 90 1e 60
        E 0 90 61 60
        E 120 80 1e 00
        E 0 80 61 00
        E 0 90 18 60
        E 0 90 1f 60
        E 0 90 3e 60
        E 0 90 48 60
        E 0 90 4a 60
        E 0 90 54 60
        E 0 90 56 60
        E 0 90 60 60
        E 0 90 61 60
        E 120 80 18 00
        E 0 80 1f 00
        E 0 80 3e 00
        E 0 80 48 00
        E 0 80 4a 00
        E 0 80 54 00
        E 0 80 56 00
        E 0 80 60 00
        E 0 80 61 00
        E 0 90 1e 60
        E 0 90 61 60
        E 120 80 1e 00
        E 0 80 61 00
        E 0 90 1b 60
        E 0 90 55 60
        E 0 90 56 60
        E 0 90 62 60
        E 120 80 1b 00
        E 0 80 55 00
        E 0 80 56 00
        E 0 80 62 00
        E 0 90 1a 60
        E 0 90 62 60
        E 120 80 1a 00
        E 0 80 62 00
        E 0 90 18 60
        E 0 90 31 60
        E 0 90 3f 60
        E 0 90 4b 60
        E 0 90 54 60
        E 0 90 57 60
        E 0 90 60 60
        E 0 90 63 60
        E 120 80 18 00
        E 0 80 31 00
        E 0 80 3f 00
        E 0 80 4b 00
        E 0 80 54 00
        E 0 80 57 00
        E 0 80 60 00
        E 0 80 63 00
        E 0 90 30 60
        E 0 90 63 60
        E 120 80 30 00
        E 0 80 63 00
        E 0 90 33 60
        E 0 90 58 60
        E 0 90 64 60
        E 120 80 33 00
        E 0 80 58 00
        E 0 80 64 00
        E 0 90 32 60
        E 0 90 64 60
        E 120 80 32 00
        E 0 80 64 00
        E 0 90 18 60
        E 0 90 1f 60
        E 0 90 3e 60
        E 0 90 48 60
        E 0 90 4a 60
        E 0 90 54 60
        E 0 90 56 60
        E 0 90 60 60
        E 0 90 61 60
        E 120 80 18 00
        E 0 80 1f 00
        E 0 80 3e 00
        E 0 80 48 00
        E 0 80 4a 00
        E 0 80 54 00
        E 0 80 56 00
        E 0 80 60 00
        E 0 80 61 00
        E 0 90 1e 60
        E 0 90 61 60
        E 120 80 1e 00
        E 0 80 61 00
        E 0 90 1f 60
        E 0 90 56 60
        E 0 90 61 60
        E 120 80 1f 00
        E 0 80 56 00
        E 0 80 61 00
        E 0 90 1e 60
        E 0 90 61 60
        E 120 80 1e 00
        E 0 80 61 00
        E 0 90 18 60
        E 0 90 1b 60
        E 0 90 3d 60
        E 0 90 3e 60
        E 0 90 49 60
        E 0 90 4a 60
        E 0 90 54 60
        E 0 90 55 60
        E 0 90 56 60
        E 0 90 60 60
        E 0 90 62 60
        E 120 80 18 00
        E 0 80 1b 00
        E 0 80 3d 00
        E 0 80 3e 00
        E 0 80 49 00
        E 0 80 4a 00
        E 0 80 54 00
        E 0 80 55 00
        E 0 80 56 00
        E 0 80 60 00
        E 0 80 62 00
        E 0 90 1e 60
        E 0 90 61 60
        E 120 80 1e 00
        E 0 80 61 00
        E 0 90 1f 60
        E 0 90 56 60
        E 0 90 61 60
        E 120 80 1f 00
        E 0 80 56 00
        E 0 80 61 00
        E 0 90 1e 60
        E 0 90 61 60
        E 120 80 1e 00
        E 0 80 61 00
        E 0 90 18 60
        E 0 90 1f 60
        E 0 90 3e 60
        E 0 90 48 60
        E 0 90 4a 60
        E 0 90 54 60
        E 0 90 56 60
        E 0 90 60 60
        E 0 90 61 60
        E 120 80 18 00
        E 0 80 1f 00
        E 0 80 3e 00
        E 0 80 48 00
        E 0 80 4a 00
        E 0 80 54 00
        E 0 80 56 00
        E 0 80 60 00
        E 0 80 61 00
        E 0 90 1e 60
        E 0 90 61 60
        E 120 80 1e 00
        E 0 80 61 00
        E 0 90 1b 60
        E 0 90 55 60
        E 0 90 56 60
        E 0 90 62 60
        E 120 80 1b 00
        E 0 80 55 00
        E 0 80 56 00
        E 0 80 62 00
        E 0 90 1a 60
        E 0 90 62 60
        E 120 80 1a 00
        E 0 80 62 00
        E 0 90 18 60
        E 0 90 1b 60
        E 0 90 3d 60
        E 0 90 3e 60
        E 0 90 49 60
        E 0 90 4a 60
        E 0 90 54 60
        E 0 90 55 60
        E 0 90 56 60
        E 0 90 60 60
        E 0 90 62 60
        E 120 80 18 00
        E 0 80 1b 00
        E 0 80 3d 00
        E 0 80 3e 00
        E 0 80 49 00
        E 0 80 4a 00
        E 0 80 54 00
        E 0 80 55 00
        E 0 80 56 00
        E 0 80 60 00
        E 0 80 62 00
        E 0 90 1a 60
        E 0 90 62 60
        E 120 80 1a 00
        E 0 80 62 00
        E 0 90 1b 60
        E 0 90 55 60
        E 0 90 56 60
        E 0 90 62 60
        E 120 80 1b 00
        E 0 80 55 00
        E 0 80 56 00
        E 0 80 62 00
        E 0 90 1a 60
        E 0 90 62 60
        E 120 80 1a 00
        E 0 80 62 00
        E 0 90 18 60
        E 0 90 1f 60
        E 0 90 3e 60
        E 0 90 48 60
        E 0 90 4a 60
        E 0 90 54 60
        E 0 90 56 60
        E 0 90 60 60
        E 0 90 61 60
        E 120 80 18 00
        E 0 80 1f 00
        E 0 80 3e 00
        E 0 80 48 00
        E 0 80 4a 00
        E 0 80 54 00
        E 0 80 56 00
        E 0 80 60 00
        E 0 80 61 00
        E 0 90 1e 60
        E 0 90 61 60
        E 120 80 1e 00
        E 0 80 61 00
        E 0 90 1f 60
        E 0 90 56 60
        E 0 90 61 60
        E 120 80 1f 00
        E 0 80 56 00
        E 0 80 61 00
        E 0 90 1e 60
        E 0 90 61 60
        E 120 80 1e 00
        E 0 80 61 00
        E 0 90 18 60
        E 0 90 1b 60
        E 0 90 3d 60
        E 0 90 3e 60
        E 0 90 49 60
        E 0 90 4a 60
        E 0 90 54 60
        E 0 90 55 60
        E 0 90 56 60
        E 0 90 60 60
        E 0 90 62 60
        E 120 80 18 00
        E 0 80 1b 00
        E 0 80 3d 00
        E 0 80 3e 00
        E 0 80 49 00
        E 0 80 4a 00
        E 0 80 54 00
        E 0 80 55 00
        E 0 80 56 00
        E 0 80 60 00
        E 0 80 62 00
        E 0 90 1e 60
        E 0 90 61 60
        E 120 80 1e 00
        E 0 80 61 00
        E 0 90 1f 60
        E 0 90 56 60
        E 0 90 61 60
        E 120 80 1f 00
        E 0 80 56 00
        E 0 80 61 00
        E 0 90 1e 60
        E 0 90 61 60
        E 120 80 1e 00
        E 0 80 61 00
        E 0 90 18 60
        E 0 90 1b 60
        E 0 90 3d 60
        E 0 90 3e 60
        E 0 90 49 60
        E 0 90 4a 60
        E 0 90 54 60
        E 0 90 55 60
        E 0 90 56 60
        E 0 90 60 60
        E 0 90 62 60
        E 0 90 78 60
        E 0 90 79 60
        E 0 90 7a 60
        E 0 90 7b 60
        E 0 90 7c 60
        E 120 80 18 00
        E 0 80 1b 00
        E 0 80 3d 00
        E 0 80 3e 00
        E 0 80 49 00
        E 0 80 4a 00
        E 0 80 54 00
        E 0 80 55 00
        E 0 80 56 00
        E 0 80 60 00
        E 0 80 62 00
        E 0 90 1a 60
        E 0 90 62 60
        E 120 80 1a 00
        E 0 80 62 00
        E 0 90 1b 60
        E 0 90 55 60
        E 0 90 56 60
        E 0 90 62 60
        E 120 80 1b 00
        E 0 80 55 00
        E 0 80 56 00
        E 0 80 62 00
        E 0 90 1a 60
        E 0 90 62 60
        E 120 80 1a 00
        E 0 80 62 00
        E 0 90 18 60
        E 0 90 31 60
        E 0 90 3f 60
        E 0 90 4b 60
        E 0 90 54 60
        E 0 90 57 60
        E 0 90 60 60
        E 0 90 63 60
        E 120 80 18 00
        E 0 80 31 00
        E 0 80 3f 00
        E 0 80 4b 00
        E 0 80 54 00
        E 0 80 57 00
        E 0 80 60 00
        E 0 80 63 00
        E 0 90 30 60
        E 0 90 63 60
        E 120 80 6f 00
        E 0 80 30 00
        E 0 80 63 00
        E 0 90 33 60
        E 0 90 58 60
        E 0 90 64 60
        E 120 80 33 00
        E 0 80 58 00
        E 0 80 64 00
        E 0 90 32 60
        E 0 90 64 60
        <X 120 0
          /wFbbWl4IDMgZHJ1bXMwXQ==
        >
        E 0 80 78 00
        E 0 80 79 00
        E 0 80 7a 00
        E 0 80 7b 00
        E 0 80 7c 00
        E 0 80 32 00
        E 0 80 64 00
        E 0 90 18 60
        E 0 90 26 60
        E 0 90 3f 60
        E 0 90 48 60
        E 0 90 4b 60
        E 0 90 54 60
        E 0 90 57 60
        E 0 90 60 60
        E 0 90 63 60
        E 120 80 18 00
        E 0 80 26 00
        E 0 80 3f 00
        E 0 80 48 00
        E 0 80 4b 00
        E 0 80 54 00
        E 0 80 57 00
        E 0 80 60 00
        E 0 80 63 00
        E 360 90 18 60
        E 0 90 1a 60
        E 0 90 33 60
        E 0 90 3d 60
        E 0 90 40 60
        E 0 90 49 60
        E 0 90 4c 60
        E 0 90 54 60
        E 0 90 55 60
        E 0 90 58 60
        E 0 90 60 60
        E 0 90 61 60
        E 0 90 64 60
        E 120 80 18 00
        E 0 80 1a 00
        E 0 80 33 00
        E 0 80 3d 00
        E 0 80 40 00
        E 0 80 49 00
        E 0 80 4c 00
        E 0 80 54 00
        E 0 80 55 00
        E 0 80 58 00
        E 0 80 60 00
        E 0 80 61 00
        E 0 80 64 00
        E 360 90 18 60
        E 0 90 3c 60
        E 0 90 48 60
        E 0 90 54 60
        E 0 90 60 60
        E 120 80 18 00
        E 0 80 3c 00
        E 0 80 48 00
        E 0 80 54 00
        E 0 80 60 00
        E 120 90 1a 60
        E 0 90 33 60
        E 0 90 55 60
        E 0 90 58 60
        E 0 90 61 60
        E 0 90 64 60
        E 120 80 1a 00
        E 0 80 33 00
        E 0 80 55 00
        E 0 80 58 00
        E 0 80 61 00
        E 0 80 64 00
        E 120 90 18 60
        E 0 90 3c 60
        E 0 90 48 60
        E 0 90 54 60
        E 0 90 60 60
        E 120 80 18 00
        E 0 80 3c 00
        E 0 80 48 00
        E 0 80 54 00
        E 0 80 60 00
        E 360 90 18 60
        E 0 90 3c 60
        E 0 90 48 60
        E 0 90 54 60
        E 0 90 60 60
        E 120 80 18 00
        E 0 80 3c 00
        E 0 80 48 00
        E 0 80 54 00
        E 0 80 60 00
        E 360 90 18 60
        E 0 90 1a 60
        E 0 90 33 60
        E 0 90 3d 60
        E 0 90 40 60
        E 0 90 49 60
        E 0 90 4c 60
        E 0 90 54 60
        E 0 90 55 60
        E 0 90 58 60
        E 0 90 60 60
        E 0 90 61 60
        E 0 90 64 60
        E 120 80 18 00
        E 0 80 1a 00
        E 0 80 33 00
        E 0 80 3d 00
        E 0 80 40 00
        E 0 80 49 00
        E 0 80 4c 00
        E 0 80 54 00
        E 0 80 55 00
        E 0 80 58 00
        E 0 80 60 00
        E 0 80 61 00
        E 0 80 64 00
        E 360 90 18 60
        E 0 90 3c 60
        E 0 90 48 60
        E 0 90 54 60
        E 0 90 60 60
        E 120 80 18 00
        E 0 80 3c 00
        E 0 80 48 00
        E 0 80 54 00
        E 0 80 60 00
        E 120 90 1a 60
        E 0 90 33 60
        E 0 90 55 60
        E 0 90 58 60
        E 0 90 61 60
        E 0 90 64 60
        E 120 80 1a 00
        E 0 80 33 00
        E 0 80 55 00
        E 0 80 58 00
        E 0 80 61 00
        E 0 80 64 00
        E 120 90 18 60
        E 0 90 3c 60
        E 0 90 48 60
        E 0 90 54 60
        E 0 90 60 60
        E 120 80 18 00
        E 0 80 3c 00
        E 0 80 48 00
        E 0 80 54 00
        E 0 80 60 00
        E 360 90 18 60
        E 0 90 3c 60
        E 0 90 48 60
        E 0 90 54 60
        E 0 90 60 60
        E 120 80 18 00
        E 0 80 3c 00
        E 0 80 48 00
        E 0 80 54 00
        E 0 80 60 00
        E 360 90 18 60
        E 0 90 1a 60
        E 0 90 33 60
        E 0 90 3d 60
        E 0 90 40 60
        E 0 90 49 60
        E 0 90 4c 60
        E 0 90 54 60
        E 0 90 55 60
        E 0 90 58 60
        E 0 90 60 60
        E 0 90 61 60
        E 0 90 64 60
        E 120 80 18 00
        E 0 80 1a 00
        E 0 80 33 00
        E 0 80 3d 00
        E 0 80 40 00
        E 0 80 49 00
        E 0 80 4c 00
        E 0 80 54 00
        E 0 80 55 00
        E 0 80 58 00
        E 0 80 60 00
        E 0 80 61 00
        E 0 80 64 00
        E 360 90 18 60
        E 0 90 3c 60
        E 0 90 48 60
        E 0 90 54 60
        E 0 90 60 60
        E 120 80 18 00
        E 0 80 3c 00
        E 0 80 48 00
        E 0 80 54 00
        E 0 80 60 00
        E 120 90 1a 60
        E 0 90 33 60
        E 0 90 55 60
        E 0 90 58 60
        E 0 90 61 60
        E 0 90 64 60
        E 120 80 1a 00
        E 0 80 33 00
        E 0 80 55 00
        E 0 80 58 00
        E 0 80 61 00
        E 0 80 64 00
        E 120 90 18 60
        E 0 90 3c 60
        E 0 90 48 60
        E 0 90 54 60
        E 0 90 60 60
        E 120 80 18 00
        E 0 80 3c 00
        E 0 80 48 00
        E 0 80 54 00
        E 0 80 60 00
        E 120 90 1f 60
        E 0 90 56 60
        E 0 90 62 60
        E 120 80 1f 00
        E 0 80 56 00
        E 0 80 62 00
        E 0 90 1e 60
        E 0 90 62 60
        E 120 80 1e 00
        E 0 80 62 00
        E 0 90 18 60
        E 0 90 1f 60
        E 0 90 3e 60
        E 0 90 48 60
        E 0 90 4a 60
        E 0 90 54 60
        E 0 90 56 60
        E 0 90 60 60
        E 0 90 62 60
        E 120 80 18 00
        E 0 80 1f 00
        E 0 80 3e 00
        E 0 80 48 00
        E 0 80 4a 00
        E 0 80 54 00
        E 0 80 56 00
        E 0 80 60 00
        E 0 80 62 00
        E 0 90 1e 60
        E 0 90 62 60
        E 120 80 1e 00
        E 0 80 62 00
        E 0 90 1f 60
        E 0 90 56 60
        E 0 90 62 60
        E 120 80 1f 00
        E 0 80 56 00
        E 0 80 62 00
        E 0 90 1e 60
        E 0 90 62 60
        E 120 80 1e 00
        E 0 80 62 00
        E 0 90 18 60
        E 0 90 1a 60
        E 0 90 33 60
        E 0 90 3d 60
        E 0 90 40 60
        E 0 90 49 60
        E 0 90 4c 60
        E 0 90 54 60
        E 0 90 55 60
        E 0 90 58 60
        E 0 90 60 60
        E 0 90 61 60
        E 0 90 64 60
        E 120 80 18 00
        E 0 80 1a 00
        E 0 80 33 00
        E 0 80 3d 00
        E 0 80 40 00
        E 0 80 49 00
        E 0 80 4c 00
        E 0 80 54 00
        E 0 80 55 00
        E 0 80 58 00
        E 0 80 60 00
        E 0 80 61 00
        E 0 80 64 00
        E 360 90 18 60
        E 0 90 3c 60
        E 0 90 48 60
        E 0 90 54 60
        E 0 90 60 60
        E 0 90 78 60
        E 0 90 79 60
        E 0 90 7a 60
        E 0 90 7b 60
        E 0 90 7c 60
        E 120 80 18 00
        E 0 80 3c 00
        E 0 80 48 00
        E 0 80 54 00
        E 0 80 60 00
        E 120 90 1a 60
        E 0 90 26 60
        E 0 90 55 60
        E 0 90 57 60
        E 0 90 61 60
        E 0 90 63 60
        E 120 80 1a 00
        E 0 80 26 00
        E 0 80 55 00
        E 0 80 57 00
        E 0 80 61 00
        E 0 80 63 00
        E 120 90 18 60
        E 0 90 26 60
        E 0 90 3f 60
        E 0 90 48 60
        E 0 90 4b 60
        E 0 90 54 60
        E 0 90 57 60
        E 0 90 60 60
        E 0 90 63 60
        E 120 80 18 00
        E 0 80 26 00
        E 0 80 3f 00
        E 0 80 48 00
        E 0 80 4b 00
        E 0 80 54 00
        E 0 80 57 00
        E 0 80 60 00
        E 0 80 63 00
        E 240 90 33 60
        E 0 90 64 60
        E 120 80 78 00
        E 0 80 79 00
        E 0 80 7a 00
        E 0 80 7b 00
        E 0 80 7c 00
        E 0 80 33 00
        E 0 80 64 00
        E 0 90 18 60
        E 0 90 32 60
        E 0 90 40 60
        E 0 90 4c 60
        E 0 90 54 60
        E 0 90 58 60
        E 0 90 60 60
        E 0 90 64 60
        E 120 80 18 00
        E 0 80 32 00
        E 0 80 40 00
        E 0 80 4c 00
        E 0 80 54 00
        E 0 80 58 00
        E 0 80 60 00
        E 0 80 64 00
        E 360 90 18 60
        E 0 90 1a 60
        E 0 90 33 60
        E 0 90 3d 60
        E 0 90 40 60
        E 0 90 49 60
        E 0 90 4c 60
        E 0 90 54 60
        E 0 90 55 60
        E 0 90 58 60
        E 0 90 60 60
        E 0 90 61 60
        E 0 90 64 60
        E 120 80 18 00
        E 0 80 1a 00
        E 0 80 33 00
        E 0 80 3d 00
        E 0 80 40 00
        E 0 80 49 00
        E 0 80 4c 00
        E 0 80 54 00
        E 0 80 55 00
        E 0 80 58 00
        E 0 80 60 00
        E 0 80 61 00
        E 0 80 64 00
        E 360 90 18 60
        E 0 90 3c 60
        E 0 90 48 60
        E 0 90 54 60
        E 0 90 60 60
        E 120 80 18 00
        E 0 80 3c 00
        E 0 80 48 00
        E 0 80 54 00
        E 0 80 60 00
        E 120 90 1a 60
        E 0 90 33 60
        E 0 90 55 60
        E 0 90 58 60
        E 0 90 61 60
        E 0 90 64 60
        E 120 80 1a 00
        E 0 80 33 00
        E 0 80 55 00
        E 0 80 58 00
        E 0 80 61 00
        E 0 80 64 00
        E 120 90 18 60
        E 0 90 3c 60
        E 0 90 48 60
        E 0 90 54 60
        E 0 90 60 60
        E 120 80 18 00
        E 0 80 3c 00
        E 0 80 48 00
        E 0 80 54 00
        E 0 80 60 00
        E 360 90 18 60
        E 0 90 3c 60
        E 0 90 48 60
        E 0 90 54 60
        E 0 90 60 60
        E 120 80 18 00
        E 0 80 3c 00
        E 0 80 48 00
        E 0 80 54 00
        E 0 80 60 00
        E 360 90 18 60
        E 0 90 1a 60
        E 0 90 33 60
        E 0 90 3d 60
        E 0 90 40 60
        E 0 90 49 60
        E 0 90 4c 60
        E 0 90 54 60
        E 0 90 55 60
        E 0 90 58 60
        E 0 90 60 60
        E 0 90 61 60
        E 0 90 64 60
        E 120 80 18 00
        E 0 80 1a 00
        E 0 80 33 00
        E 0 80 3d 00
        E 0 80 40 00
        E 0 80 49 00
        E 0 80 4c 00
        E 0 80 54 00
        E 0 80 55 00
        E 0 80 58 00
        E 0 80 60 00
        E 0 80 61 00
        E 0 80 64 00
        E 360 90 18 60
        E 0 90 3c 60
        E 0 90 48 60
        E 0 90 54 60
        E 0 90 60 60
        E 120 80 18 00
        E 0 80 3c 00
        E 0 80 48 00
        E 0 80 54 00
        E 0 80 60 00
        E 120 90 1a 60
        E 0 90 31 60
        E 0 90 55 60
        E 0 90 57 60
        E 0 90 61 60
        E 0 90 63 60
        E 0 90 6f 60
        E 120 80 1a 00
        E 0 80 31 00
        E 0 80 55 00
        E 0 80 57 00
        E 0 80 61 00
        E 0 80 63 00
        E 0 80 6f 00
        E 120 90 18 60
        E 0 90 3c 60
        E 0 90 48 60
        E 0 90 54 60
        E 0 90 60 60
        E 120 80 18 00
        E 0 80 3c 00
        E 0 80 48 00
        E 0 80 54 00
        E 0 80 60 00
        E 240 90 33 60
        E 0 90 64 60
        E 120 80 33 00
        E 0 80 64 00
        E 0 90 18 60
        E 0 90 32 60
        E 0 90 40 60
        E 0 90 4c 60
        E 0 90 54 60
        E 0 90 58 60
        E 0 90 60 60
        E 0 90 64 60
        E 0 90 74 60
        E 120 80 18 00
        E 0 80 32 00
        E 0 80 40 00
        E 0 80 4c 00
        E 0 80 54 00
        E 0 80 58 00
        E 0 80 60 00
        E 0 80 64 00
        E 360 90 18 60
        E 0 90 1a 60
        E 0 90 33 60
        E 0 90 3d 60
        E 0 90 40 60
        E 0 90 49 60
        E 0 90 4c 60
        E 0 90 54 60
        E 0 90 55 60
        E 0 90 58 60
        E 0 90 60 60
        E 0 90 61 60
        E 0 90 64 60
        E 120 80 18 00
        E 0 80 1a 00
        E 0 80 33 00
        E 0 80 3d 00
        E 0 80 40 00
        E 0 80 49 00
        E 0 80 4c 00
        E 0 80 54 00
        E 0 80 55 00
        E 0 80 58 00
        E 0 80 60 00
        E 0 80 61 00
        E 0 80 64 00
        E 360 90 18 60
        E 0 90 3c 60
        E 0 90 48 60
        E 0 90 54 60
        E 0 90 60 60
        E 120 80 18 00
        E 0 80 3c 00
        E 0 80 48 00
        E 0 80 54 00
        E 0 80 60 00
        E 120 90 1a 60
        E 0 90 33 60
        E 0 90 55 60
        E 0 90 58 60
        E 0 90 61 60
        E 0 90 64 60
        E 120 80 1a 00
        E 0 80 33 00
        E 0 80 55 00
        E 0 80 58 00
        E 0 80 61 00
        E 0 80 64 00
        E 120 90 18 60
        E 0 90 3c 60
        E 0 90 48 60
        E 0 90 54 60
        E 0 90 60 60
        E 120 80 18 00
        E 0 80 3c 00
        E 0 80 48 00
        E 0 80 54 00
        E 0 80 60 00
        E 120 90 1f 60
        E 0 90 56 60
        E 0 90 62 60
        E 120 80 1f 00
        E 0 80 56 00
        E 0 80 62 00
        E 0 90 1e 60
        E 0 90 62 60
        E 120 80 1e 00
        E 0 80 62 00
        E 0 90 18 60
        E 0 90 1f 60
        E 0 90 3e 60
        E 0 90 48 60
        E 0 90 4a 60
        E 0 90 54 60
        E 0 90 56 60
        E 0 90 60 60
        E 0 90 62 60
        E 120 80 18 00
        E 0 80 1f 00
        E 0 80 3e 00
        E 0 80 48 00
        E 0 80 4a 00
        E 0 80 54 00
        E 0 80 56 00
        E 0 80 60 00
        E 0 80 62 00
        E 0 90 1e 60
        E 0 90 62 60
        E 120 80 1e 00
        E 0 80 62 00
        E 0 90 1f 60
        E 0 90 56 60
        E 0 90 62 60
        E 120 80 1f 00
        E 0 80 56 00
        E 0 80 62 00
        E 0 90 1e 60
        E 0 90 62 60
        E 120 80 1e 00
        E 0 80 62 00
        E 0 90 18 60
        E 0 90 1a 60
        E 0 90 33 60
        E 0 90 3d 60
        E 0 90 40 60
        E 0 90 49 60
        E 0 90 4c 60
        E 0 90 54 60
        E 0 90 55 60
        E 0 90 58 60
        E 0 90 60 60
        E 0 90 61 60
        E 0 90 64 60
        E 120 80 18 00
        E 0 80 1a 00
        E 0 80 33 00
        E 0 80 3d 00
        E 0 80 40 00
        E 0 80 49 00
        E 0 80 4c 00
        E 0 80 54 00
        E 0 80 55 00
        E 0 80 58 00
        E 0 80 60 00
        E 0 80 61 00
        E 0 80 64 00
        E 360 90 18 60
        E 0 90 3c 60
        E 0 90 48 60
        E 0 90 54 60
        E 0 90 60 60
        E 120 80 18 00
        E 0 80 3c 00
        E 0 80 48 00
        E 0 80 54 00
        E 0 80 60 00
        E 120 90 1a 60
        E 0 90 26 60
        E 0 90 55 60
        E 0 90 57 60
        E 0 90 61 60
        E 0 90 63 60
        E 120 80 1a 00
        E 0 80 26 00
        E 0 80 55 00
        E 0 80 57 00
        E 0 80 61 00
        E 0 80 63 00
        E 120 90 18 60
        E 0 90 26 60
        E 0 90 3f 60
        E 0 90 48 60
        E 0 90 4b 60
        E 0 90 54 60
        E 0 90 57 60
        E 0 90 60 60
        E 0 90 63 60
        E 120 80 18 00
        E 0 80 26 00
        E 0 80 3f 00
        E 0 80 48 00
        E 0 80 4b 00
        E 0 80 54 00
        E 0 80 57 00
        E 0 80 60 00
        E 0 80 63 00
        E 240 90 33 60
        E 0 90 64 60
        E 120 80 74 00
        E 0 80 33 00
        E 0 80 64 00
        E 0 90 18 60
        E 0 90 32 60
        E 0 90 40 60
        E 0 90 4c 60
        E 0 90 54 60
        E 0 90 58 60
        E 0 90 60 60
        E 0 90 64 60
        E 120 80 18 00
        E 0 80 32 00
        E 0 80 40 00
        E 0 80 4c 00
        E 0 80 54 00
        E 0 80 58 00
        E 0 80 60 00
        E 0 80 64 00
        E 360 90 18 60
        E 0 90 1a 60
        E 0 90 33 60
        E 0 90 3d 60
        E 0 90 40 60
        E 0 90 49 60
        E 0 90 4c 60
        E 0 90 54 60
        E 0 90 55 60
        E 0 90 58 60
        E 0 90 60 60
        E 0 90 61 60
        E 0 90 64 60
        E 120 80 18 00
        E 0 80 1a 00
        E 0 80 33 00
        E 0 80 3d 00
        E 0 80 40 00
        E 0 80 49 00
        E 0 80 4c 00
        E 0 80 54 00
        E 0 80 55 00
        E 0 80 58 00
        E 0 80 60 00
        E 0 80 61 00
        E 0 80 64 00
        E 360 90 18 60
        E 0 90 3c 60
        E 0 90 48 60
        E 0 90 54 60
        E 0 90 60 60
        E 120 80 18 00
        E 0 80 3c 00
        E 0 80 48 00
        E 0 80 54 00
        E 0 80 60 00
        E 120 90 1a 60
        E 0 90 33 60
        E 0 90 55 60
        E 0 90 58 60
        E 0 90 61 60
        E 0 90 64 60
        E 120 80 1a 00
        E 0 80 33 00
        E 0 80 55 00
        E 0 80 58 00
        E 0 80 61 00
        E 0 80 64 00
        E 120 90 18 60
        E 0 90 3c 60
        E 0 90 48 60
        E 0 90 54 60
        E 0 90 60 60
        E 120 80 18 00
        E 0 80 3c 00
        E 0 80 48 00
        E 0 80 54 00
        E 0 80 60 00
        E 360 90 18 60
        E 0 90 3c 60
        E 0 90 48 60
        E 0 90 54 60
        E 0 90 60 60
        E 120 80 18 00
        E 0 80 3c 00
        E 0 80 48 00
        E 0 80 54 00
        E 0 80 60 00
        E 360 90 18 60
        E 0 90 1a 60
        E 0 90 33 60
        E 0 90 3d 60
        E 0 90 40 60
        E 0 90 49 60
        E 0 90 4c 60
        E 0 90 54 60
        E 0 90 55 60
        E 0 90 58 60
        E 0 90 60 60
        E 0 90 61 60
        E 0 90 64 60
        E 120 80 18 00
        E 0 80 1a 00
        E 0 80 33 00
        E 0 80 3d 00
        E 0 80 40 00
        E 0 80 49 00
        E 0 80 4c 00
        E 0 80 54 00
        E 0 80 55 00
        E 0 80 58 00
        E 0 80 60 00
        E 0 80 61 00
        E 0 80 64 00
        E 360 90 18 60
        E 0 90 3c 60
        E 0 90 48 60
        E 0 90 54 60
        E 0 90 60 60
        E 120 80 18 00
        E 0 80 3c 00
        E 0 80 48 00
        E 0 80 54 00
        E 0 80 60 00
        E 120 90 1a 60
        E 0 90 33 60
        E 0 90 55 60
        E 0 90 58 60
        E 0 90 61 60
        E 0 90 64 60
        E 120 80 1a 00
        E 0 80 33 00
        E 0 80 55 00
        E 0 80 58 00
        E 0 80 61 00
        E 0 80 64 00
        E 120 90 18 60
        E 0 90 3c 60
        E 0 90 48 60
        E 0 90 54 60
        E 0 90 60 60
        E 120 80 18 00
        E 0 80 3c 00
        E 0 80 48 00
        E 0 80 54 00
        E 0 80 60 00
        E 120 90 31 60
        E 0 90 57 60
        E 0 90 63 60
        E 0 90 6f 60
        E 120 80 31 00
        E 0 80 57 00
        E 0 80 63 00
        E 0 90 30 60
        E 0 90 63 60
        E 120 80 6f 00
        E 0 80 30 00
        E 0 80 63 00
        E 0 90 18 60
        E 0 90 3c 60
        E 0 90 48 60
        E 0 90 54 60
        E 0 90 60 60
        E 120 80 18 00
        E 0 80 3c 00
        E 0 80 48 00
        E 0 80 54 00
        E 0 80 60 00
        E 360 90 18 60
        E 0 90 1a 60
        E 0 90 33 60
        E 0 90 3d 60
        E 0 90 40 60
        E 0 90 49 60
        E 0 90 4c 60
        E 0 90 54 60
        E 0 90 55 60
        E 0 90 58 60
        E 0 90 60 60
        E 0 90 61 60
        E 0 90 64 60
        E 120 80 18 00
        E 0 80 1a 00
        E 0 80 33 00
        E 0 80 3d 00
        E 0 80 40 00
        E 0 80 49 00
        E 0 80 4c 00
        E 0 80 54 00
        E 0 80 55 00
        E 0 80 58 00
        E 0 80 60 00
        E 0 80 61 00
        E 0 80 64 00
        E 360 90 18 60
        E 0 90 3c 60
        E 0 90 48 60
        E 0 90 54 60
        E 0 90 60 60
        E 120 80 18 00
        E 0 80 3c 00
        E 0 80 48 00
        E 0 80 54 00
        E 0 80 60 00
        E 120 90 1a 60
        E 0 90 33 60
        E 0 90 55 60
        E 0 90 58 60
        E 0 90 61 60
        E 0 90 64 60
        E 120 80 1a 00
        E 0 80 33 00
        E 0 80 55 00
        E 0 80 58 00
        E 0 80 61 00
        E 0 80 64 00
        E 120 90 18 60
        E 0 90 3c 60
        E 0 90 48 60
        E 0 90 54 60
        E 0 90 60 60
        E 120 80 18 00
        E 0 80 3c 00
        E 0 80 48 00
        E 0 80 54 00
        E 0 80 60 00
        E 120 90 1f 60
        E 0 90 56 60
        E 0 90 62 60
        E 120 80 1f 00
        E 0 80 56 00
        E 0 80 62 00
        E 0 90 1e 60
        E 0 90 62 60
        E 120 80 1e 00
        E 0 80 62 00
        E 0 90 18 60
        E 0 90 1f 60
        E 0 90 3e 60
        E 0 90 48 60
        E 0 90 4a 60
        E 0 90 54 60
        E 0 90 56 60
        E 0 90 60 60
        E 0 90 62 60
        E 120 80 18 00
        E 0 80 1f 00
        E 0 80 3e 00
        E 0 80 48 00
        E 0 80 4a 00
        E 0 80 54 00
        E 0 80 56 00
        E 0 80 60 00
        E 0 80 62 00
        E 0 90 1e 60
        E 0 90 62 60
        E 120 80 1e 00
        E 0 80 62 00
        E 0 90 1f 60
        E 0 90 56 60
        E 0 90 62 60
        E 120 80 1f 00
        E 0 80 56 00
        E 0 80 62 00
        E 0 90 1e 60
        E 0 90 62 60
        E 120 80 1e 00
        E 0 80 62 00
        E 0 90 18 60
        E 0 90 1a 60
        E 0 90 33 60
        E 0 90 3d 60
        E 0 90 40 60
        E 0 90 49 60
        E 0 90 4c 60
        E 0 90 54 60
        E 0 90 55 60
        E 0 90 58 60
        E 0 90 60 60
        E 0 90 61 60
        E 0 90 64 60
        E 120 80 18 00
        E 0 80 1a 00
        E 0 80 33 00
        E 0 80 3d 00
        E 0 80 40 00
        E 0 80 49 00
        E 0 80 4c 00
        E 0 80 54 00
        E 0 80 55 00
        E 0 80 58 00
        E 0 80 60 00
        E 0 80 61 00
        E 0 80 64 00
        E 360 90 18 60
        E 0 90 3c 60
        E 0 90 48 60
        E 0 90 54 60
        E 0 90 60 60
        E 0 90 78 60
        E 0 90 79 60
        E 0 90 7a 60
        E 0 90 7b 60
        E 0 90 7c 60
        E 120 80 18 00
        E 0 80 3c 00
        E 0 80 48 00
        E 0 80 54 00
        E 0 80 60 00
        E 120 90 1a 60
        E 0 90 26 60
        E 0 90 55 60
        E 0 90 57 60
        E 0 90 61 60
        E 0 90 63 60
        E 120 80 1a 00
        E 0 80 26 00
        E 0 80 55 00
        E 0 80 57 00
        E 0 80 61 00
        E 0 80 63 00
        E 120 90 18 60
        E 0 90 26 60
        E 0 90 3f 60
        E 0 90 48 60
        E 0 90 4b 60
        E 0 90 54 60
        E 0 90 57 60
        E 0 90 60 60
        E 0 90 63 60
        E 120 80 18 00
        E 0 80 26 00
        E 0 80 3f 00
        E 0 80 48 00
        E 0 80 4b 00
        E 0 80 54 00
        E 0 80 57 00
        E 0 80 60 00
        E 0 80 63 00
        E 240 90 33 60
        E 0 90 64 60
        E 120 80 78 00
        E 0 80 79 00
        E 0 80 7a 00
        E 0 80 7b 00
        E 0 80 7c 00
        E 0 80 33 00
        E 0 80 64 00
        E 0 90 18 60
        E 0 90 32 60
        E 0 90 40 60
        E 0 90 4c 60
        E 0 90 54 60
        E 0 90 58 60
        E 0 90 60 60
        E 0 90 64 60
        E 120 80 18 00
        E 0 80 32 00
        E 0 80 40 00
        E 0 80 4c 00
        E 0 80 54 00
        E 0 80 58 00
        E 0 80 60 00
        E 0 80 64 00
        E 360 90 18 60
        E 0 90 1a 60
        E 0 90 33 60
        E 0 90 3d 60
        E 0 90 40 60
        E 0 90 49 60
        E 0 90 4c 60
        E 0 90 54 60
        E 0 90 55 60
        E 0 90 58 60
        E 0 90 60 60
        E 0 90 61 60
        E 0 90 64 60
        E 120 80 18 00
        E 0 80 1a 00
        E 0 80 33 00
        E 0 80 3d 00
        E 0 80 40 00
        E 0 80 49 00
        E 0 80 4c 00
        E 0 80 54 00
        E 0 80 55 00
        E 0 80 58 00
        E 0 80 60 00
        E 0 80 61 00
        E 0 80 64 00
        E 360 90 18 60
        E 0 90 3c 60
        E 0 90 48 60
        E 0 90 54 60
        E 0 90 60 60
        E 120 80 18 00
        E 0 80 3c 00
        E 0 80 48 00
        E 0 80 54 00
        E 0 80 60 00
        E 120 90 1a 60
        E 0 90 33 60
        E 0 90 55 60
        E 0 90 58 60
        E 0 90 61 60
        E 0 90 64 60
        E 120 80 1a 00
        E 0 80 33 00
        E 0 80 55 00
        E 0 80 58 00
        E 0 80 61 00
        E 0 80 64 00
        E 120 90 18 60
        E 0 90 3c 60
        E 0 90 48 60
        E 0 90 54 60
        E 0 90 60 60
        E 120 80 18 00
        E 0 80 3c 00
        E 0 80 48 00
        E 0 80 54 00
        E 0 80 60 00
        E 360 90 18 60
        E 0 90 3c 60
        E 0 90 48 60
        E 0 90 54 60
        E 0 90 60 60
        E 120 80 18 00
        E 0 80 3c 00
        E 0 80 48 00
        E 0 80 54 00
        E 0 80 60 00
        E 360 90 18 60
        E 0 90 1a 60
        E 0 90 33 60
        E 0 90 3d 60
        E 0 90 40 60
        E 0 90 49 60
        E 0 90 4c 60
        E 0 90 54 60
        E 0 90 55 60
        E 0 90 58 60
        E 0 90 60 60
        E 0 90 61 60
        E 0 90 64 60
        E 120 80 18 00
        E 0 80 1a 00
        E 0 80 33 00
        E 0 80 3d 00
        E 0 80 40 00
        E 0 80 49 00
        E 0 80 4c 00
        E 0 80 54 00
        E 0 80 55 00
        E 0 80 58 00
        E 0 80 60 00
        E 0 80 61 00
        E 0 80 64 00
        E 360 90 18 60
        E 0 90 3c 60
        E 0 90 48 60
        E 0 90 54 60
        E 0 90 60 60
        E 120 80 18 00
        E 0 80 3c 00
        E 0 80 48 00
        E 0 80 54 00
        E 0 80 60 00
        E 120 90 1a 60
        E 0 90 31 60
        E 0 90 55 60
        E 0 90 57 60
        E 0 90 61 60
        E 0 90 63 60
        E 0 90 6f 60
        E 120 80 1a 00
        E 0 80 31 00
        E 0 80 55 00
        E 0 80 57 00
        E 0 80 61 00
        E 0 80 63 00
        E 0 80 6f 00
        E 120 90 18 60
        E 0 90 3c 60
        E 0 90 48 60
        E 0 90 54 60
        E 0 90 60 60
        E 120 80 18 00
        E 0 80 3c 00
        E 0 80 48 00
        E 0 80 54 00
        E 0 80 60 00
        E 360 90 18 60
        E 0 90 3c 60
        E 0 90 48 60
        E 0 90 54 60
        E 0 90 60 60
        E 120 80 18 00
        E 0 80 3c 00
        E 0 80 48 00
        E 0 80 54 00
        E 0 80 60 00
        E 360 90 18 60
        E 0 90 1a 60
        E 0 90 33 60
        E 0 90 3d 60
        E 0 90 40 60
        E 0 90 49 60
        E 0 90 4c 60
        E 0 90 54 60
        E 0 90 55 60
        E 0 90 58 60
        E 0 90 60 60
        E 0 90 61 60
        E 0 90 64 60
        E 120 80 18 00
        E 0 80 1a 00
        E 0 80 33 00
        E 0 80 3d 00
        E 0 80 40 00
        E 0 80 49 00
        E 0 80 4c 00
        E 0 80 54 00
        E 0 80 55 00
        E 0 80 58 00
        E 0 80 60 00
        E 0 80 61 00
        E 0 80 64 00
        E 360 90 18 60
        E 0 90 3c 60
        E 0 90 48 60
        E 0 90 54 60
        E 0 90 60 60
        E 120 80 18 00
        E 0 80 3c 00
        E 0 80 48 00
        E 0 80 54 00
        E 0 80 60 00
        E 120 90 1a 60
        E 0 90 33 60
        E 0 90 55 60
        E 0 90 58 60
        E 0 90 61 60
        E 0 90 64 60
        E 120 80 1a 00
        E 0 80 33 00
        E 0 80 55 00
        E 0 80 58 00
        E 0 80 61 00
        E 0 80 64 00
        E 120 90 18 60
        E 0 90 3c 60
        E 0 90 48 60
        E 0 90 54 60
        E 0 90 60 60
        E 120 80 18 00
        E 0 80 3c 00
        E 0 80 48 00
        E 0 80 54 00
        E 0 80 60 00
        E 120 90 1f 60
        E 0 90 56 60
        E 0 90 62 60
        E 120 80 1f 00
        E 0 80 56 00
        E 0 80 62 00
        E 0 90 1e 60
        E 0 90 62 60
        E 120 80 1e 00
        E 0 80 62 00
        E 0 90 18 60
        E 0 90 1f 60
        E 0 90 3e 60
        E 0 90 48 60
        E 0 90 4a 60
        E 0 90 54 60
        E 0 90 56 60
        E 0 90 60 60
        E 0 90 62 60
        E 120 80 18 00
        E 0 80 1f 00
        E 0 80 3e 00
        E 0 80 48 00
        E 0 80 4a 00
        E 0 80 54 00
        E 0 80 56 00
        E 0 80 60 00
        E 0 80 62 00
        E 0 90 1e 60
        E 0 90 62 60
        E 120 80 1e 00
        E 0 80 62 00
        E 0 90 1f 60
        E 0 90 56 60
        E 0 90 62 60
        E 120 80 1f 00
        E 0 80 56 00
        E 0 80 62 00
        E 0 90 1e 60
        E 0 90 62 60
        E 120 80 1e 00
        E 0 80 62 00
        E 0 90 18 60
        E 0 90 1a 60
        E 0 90 33 60
        E 0 90 3d 60
        E 0 90 40 60
        E 0 90 49 60
        E 0 90 4c 60
        E 0 90 54 60
        E 0 90 55 60
        E 0 90 58 60
        E 0 90 60 60
        E 0 90 61 60
        E 0 90 64 60
        E 120 80 18 00
        E 0 80 1a 00
        E 0 80 33 00
        E 0 80 3d 00
        E 0 80 40 00
        E 0 80 49 00
        E 0 80 4c 00
        E 0 80 54 00
        E 0 80 55 00
        E 0 80 58 00
        E 0 80 60 00
        E 0 80 61 00
        E 0 80 64 00
        E 360 90 18 60
        E 0 90 1b 60
        E 0 90 3d 60
        E 0 90 49 60
        E 0 90 54 60
        E 0 90 55 60
        E 0 90 60 60
        E 0 90 61 60
        E 0 90 78 60
        E 0 90 79 60
        E 0 90 7a 60
        E 0 90 7b 60
        E 0 90 7c 60
        E 120 80 18 00
        E 0 80 1b 00
        E 0 80 3d 00
        E 0 80 49 00
        E 0 80 54 00
        E 0 80 55 00
        E 0 80 60 00
        E 0 80 61 00
        E 0 90 1a 60
        E 0 90 61 60
        E 120 80 1a 00
        E 0 80 61 00
        E 0 90 1b 60
        E 0 90 55 60
        E 0 90 61 60
        E 120 80 1b 00
        E 0 80 55 00
        E 0 80 61 00
        E 0 90 1a 60
        E 0 90 61 60
        E 120 80 1a 00
        E 0 80 61 00
        E 0 90 18 60
        E 0 90 31 60
        E 0 90 3f 60
        E 0 90 4b 60
        E 0 90 54 60
        E 0 90 57 60
        E 0 90 60 60
        E 0 90 63 60
        E 0 90 6f 60
        E 120 80 18 00
        E 0 80 31 00
        E 0 80 3f 00
        E 0 80 4b 00
        E 0 80 54 00
        E 0 80 57 00
        E 0 80 60 00
        E 0 80 63 00
        E 0 90 30 60
        E 0 90 63 60
        E 120 80 6f 00
        E 0 80 30 00
        E 0 80 63 00
        E 0 90 33 60
        E 0 90 58 60
        E 0 90 64 60
        E 120 80 33 00
        E 0 80 58 00
        E 0 80 64 00
        E 0 90 32 60
        E 0 90 64 60
        <X 120 0
          /wFbbWl4IDMgZHJ1bXMwZF0=
        >
        E 0 80 78 00
        E 0 80 79 00
        E 0 80 7a 00
        E 0 80 7b 00
        E 0 80 7c 00
        E 0 80 32 00
        E 0 80 64 00
        E 0 90 18 60
        E 0 90 26 60
        E 0 90 3f 60
        E 0 90 48 60
        E 0 90 4b 60
        E 0 90 54 60
        E 0 90 57 60
        E 0 90 60 60
        E 0 90 63 60
        E 120 80 18 00
        E 0 80 26 00
        E 0 80 3f 00
        E 0 80 48 00
        E 0 80 4b 00
        E 0 80 54 00
        E 0 80 57 00
        E 0 80 60 00
        E 0 80 63 00
        E 0 90 1e 60
        E 0 90 61 60
        E 120 80 1e 00
        E 0 80 61 00
        E 0 90 1f 60
        E 0 90 56 60
        E 0 90 61 60
        E 120 80 1f 00
        E 0 80 56 00
        E 0 80 61 00
        E 0 90 1e 60
        E 0 90 61 60
        E 120 80 1e 00
        E 0 80 61 00
        E 0 90 18 60
        E 0 90 1b 60
        E 0 90 3d 60
        E 0 90 3e 60
        E 0 90 49 60
        E 0 90 4a 60
        E 0 90 54 60
        E 0 90 55 60
        E 0 90 56 60
        E 0 90 60 60
        E 0 90 62 60
        E 120 80 18 00
        E 0 80 1b 00
        E 0 80 3d 00
        E 0 80 3e 00
        E 0 80 49 00
        E 0 80 4a 00
        E 0 80 54 00
        E 0 80 55 00
        E 0 80 56 00
        E 0 80 60 00
        E 0 80 62 00
        E 0 90 1e 60
        E 0 90 61 60
        E 120 80 1e 00
        E 0 80 61 00
        E 0 90 1f 60
        E 0 90 56 60
        E 0 90 61 60
        E 120 80 1f 00
        E 0 80 56 00
        E 0 80 61 00
        E 0 90 1e 60
        E 0 90 61 60
        E 120 80 1e 00
        E 0 80 61 00
        E 0 90 18 60
        E 0 90 1f 60
        E 0 90 3e 60
        E 0 90 48 60
        E 0 90 4a 60
        E 0 90 54 60
        E 0 90 56 60
        E 0 90 60 60
        E 0 90 61 60
        E 120 80 18 00
        E 0 80 1f 00
        E 0 80 3e 00
        E 0 80 48 00
        E 0 80 4a 00
        E 0 80 54 00
        E 0 80 56 00
        E 0 80 60 00
        E 0 80 61 00
        E 0 90 1e 60
        E 0 90 61 60
        E 120 80 1e 00
        E 0 80 61 00
        E 0 90 1b 60
        E 0 90 55 60
        E 0 90 56 60
        E 0 90 62 60
        E 120 80 1b 00
        E 0 80 55 00
        E 0 80 56 00
        E 0 80 62 00
        E 0 90 1a 60
        E 0 90 62 60
        E 120 80 1a 00
        E 0 80 62 00
        E 0 90 18 60
        E 0 90 1b 60
        E 0 90 3d 60
        E 0 90 3e 60
        E 0 90 49 60
        E 0 90 4a 60
        E 0 90 54 60
        E 0 90 55 60
        E 0 90 56 60
        E 0 90 60 60
        E 0 90 62 60
        E 120 80 18 00
        E 0 80 1b 00
        E 0 80 3d 00
        E 0 80 3e 00
        E 0 80 49 00
        E 0 80 4a 00
        E 0 80 54 00
        E 0 80 55 00
        E 0 80 56 00
        E 0 80 60 00
        E 0 80 62 00
        E 0 90 1a 60
        E 0 90 62 60
        E 120 80 1a 00
        E 0 80 62 00
        E 0 90 1b 60
        E 0 90 55 60
        E 0 90 56 60
        E 0 90 62 60
        E 120 80 1b 00
        E 0 80 55 00
        E 0 80 56 00
        E 0 80 62 00
        E 0 90 1a 60
        E 0 90 62 60
        E 120 80 1a 00
        E 0 80 62 00
        E 0 90 18 60
        E 0 90 1f 60
        E 0 90 3e 60
        E 0 90 48 60
        E 0 90 4a 60
        E 0 90 54 60
        E 0 90 56 60
        E 0 90 60 60
        E 0 90 61 60
        E 120 80 18 00
        E 0 80 1f 00
        E 0 80 3e 00
        E 0 80 48 00
        E 0 80 4a 00
        E 0 80 54 00
        E 0 80 56 00
        E 0 80 60 00
        E 0 80 61 00
        E 0 90 1e 60
        E 0 90 61 60
        E 120 80 1e 00
        E 0 80 61 00
        E 0 90 1f 60
        E 0 90 56 60
        E 0 90 61 60
        E 120 80 1f 00
        E 0 80 56 00
        E 0 80 61 00
        E 0 90 1e 60
        E 0 90 61 60
        E 120 80 1e 00
        E 0 80 61 00
        E 0 90 18 60
        E 0 90 1b 60
        E 0 90 3d 60
        E 0 90 3e 60
        E 0 90 49 60
        E 0 90 4a 60
        E 0 90 54 60
        E 0 90 55 60
        E 0 90 56 60
        E 0 90 60 60
        E 0 90 62 60
        E 120 80 18 00
        E 0 80 1b 00
        E 0 80 3d 00
        E 0 80 3e 00
        E 0 80 49 00
        E 0 80 4a 00
        E 0 80 54 00
        E 0 80 55 00
        E 0 80 56 00
        E 0 80 60 00
        E 0 80 62 00
        E 0 90 1e 60
        E 0 90 61 60
        E 120 80 1e 00
        E 0 80 61 00
        E 0 90 1f 60
        E 0 90 56 60
        E 0 90 61 60
        E 120 80 1f 00
        E 0 80 56 00
        E 0 80 61 00
        E 0 90 1e 60
        E 0 90 61 60
        E 120 80 1e 00
        E 0 80 61 00
        E 0 90 18 60
        E 0 90 1f 60
        E 0 90 3e 60
        E 0 90 48 60
        E 0 90 4a 60
        E 0 90 54 60
        E 0 90 56 60
        E 0 90 60 60
        E 0 90 61 60
        E 120 80 18 00
        E 0 80 1f 00
        E 0 80 3e 00
        E 0 80 48 00
        E 0 80 4a 00
        E 0 80 54 00
        E 0 80 56 00
        E 0 80 60 00
        E 0 80 61 00
        E 0 90 1e 60
        E 0 90 61 60
        E 120 80 1e 00
        E 0 80 61 00
        E 0 90 1b 60
        E 0 90 55 60
        E 0 90 56 60
        E 0 90 62 60
        E 120 80 1b 00
        E 0 80 55 00
        E 0 80 56 00
        E 0 80 62 00
        E 0 90 1a 60
        E 0 90 62 60
        E 120 80 1a 00
        E 0 80 62 00
        E 0 90 18 60
        E 0 90 31 60
        E 0 90 3f 60
        E 0 90 4b 60
        E 0 90 54 60
        E 0 90 57 60
        E 0 90 60 60
        E 0 90 63 60
        E 0 90 6f 60
        E 120 80 18 00
        E 0 80 31 00
        E 0 80 3f 00
        E 0 80 4b 00
        E 0 80 54 00
        E 0 80 57 00
        E 0 80 60 00
        E 0 80 63 00
        E 0 90 30 60
        E 0 90 63 60
        E 120 80 30 00
        E 0 80 63 00
        E 0 90 33 60
        E 0 90 58 60
        E 0 90 64 60
        E 120 80 33 00
        E 0 80 58 00
        E 0 80 64 00
        E 0 90 32 60
        E 0 90 64 60
        E 120 80 32 00
        E 0 80 64 00
        E 0 90 18 60
        E 0 90 1f 60
        E 0 90 3e 60
        E 0 90 48 60
        E 0 90 4a 60
        E 0 90 54 60
        E 0 90 56 60
        E 0 90 60 60
        E 0 90 61 60
        E 120 80 18 00
        E 0 80 1f 00
        E 0 80 3e 00
        E 0 80 48 00
        E 0 80 4a 00
        E 0 80 54 00
        E 0 80 56 00
        E 0 80 60 00
        E 0 80 61 00
        E 0 90 1e 60
        E 0 90 61 60
        E 120 80 1e 00
        E 0 80 61 00
        E 0 90 1f 60
        E 0 90 56 60
        E 0 90 61 60
        E 120 80 1f 00
        E 0 80 56 00
        E 0 80 61 00
        E 0 90 1e 60
        E 0 90 61 60
        E 120 80 1e 00
        E 0 80 61 00
        E 0 90 18 60
        E 0 90 1b 60
        E 0 90 3d 60
        E 0 90 3e 60
        E 0 90 49 60
        E 0 90 4a 60
        E 0 90 54 60
        E 0 90 55 60
        E 0 90 56 60
        E 0 90 60 60
        E 0 90 62 60
        E 120 80 18 00
        E 0 80 1b 00
        E 0 80 3d 00
        E 0 80 3e 00
        E 0 80 49 00
        E 0 80 4a 00
        E 0 80 54 00
        E 0 80 55 00
        E 0 80 56 00
        E 0 80 60 00
        E 0 80 62 00
        E 0 90 1e 60
        E 0 90 61 60
        E 120 80 1e 00
        E 0 80 61 00
        E 0 90 1f 60
        E 0 90 56 60
        E 0 90 61 60
        E 120 80 1f 00
        E 0 80 56 00
        E 0 80 61 00
        E 0 90 1e 60
        E 0 90 61 60
        E 120 80 1e 00
        E 0 80 61 00
        E 0 90 18 60
        E 0 90 1f 60
        E 0 90 3e 60
        E 0 90 48 60
        E 0 90 4a 60
        E 0 90 54 60
        E 0 90 56 60
        E 0 90 60 60
        E 0 90 61 60
        E 120 80 18 00
        E 0 80 1f 00
        E 0 80 3e 00
        E 0 80 48 00
        E 0 80 4a 00
        E 0 80 54 00
        E 0 80 56 00
        E 0 80 60 00
        E 0 80 61 00
        E 0 90 1e 60
        E 0 90 61 60
        E 120 80 1e 00
        E 0 80 61 00
        E 0 90 1b 60
        E 0 90 55 60
        E 0 90 56 60
        E 0 90 62 60
        E 120 80 1b 00
        E 0 80 55 00
        E 0 80 56 00
        E 0 80 62 00
        E 0 90 1a 60
        E 0 90 62 60
        E 120 80 1a 00
        E 0 80 62 00
        E 0 90 18 60
        E 0 90 1b 60
        E 0 90 3d 60
        E 0 90 3e 60
        E 0 90 49 60
        E 0 90 4a 60
        E 0 90 54 60
        E 0 90 55 60
        E 0 90 56 60
        E 0 90 60 60
        E 0 90 62 60
        E 120 80 18 00
        E 0 80 1b 00
        E 0 80 3d 00
        E 0 80 3e 00
        E 0 80 49 00
        E 0 80 4a 00
        E 0 80 54 00
        E 0 80 55 00
        E 0 80 56 00
        E 0 80 60 00
        E 0 80 62 00
        E 0 90 1a 60
        E 0 90 62 60
        E 120 80 1a 00
        E 0 80 62 00
        E 0 90 1b 60
        E 0 90 55 60
        E 0 90 56 60
        E 0 90 62 60
        E 120 80 1b 00
        E 0 80 55 00
        E 0 80 56 00
        E 0 80 62 00
        E 0 90 1a 60
        E 0 90 62 60
        E 120 80 1a 00
        E 0 80 62 00
        E 0 90 18 60
        E 0 90 1f 60
        E 0 90 3e 60
        E 0 90 48 60
        E 0 90 4a 60
        E 0 90 54 60
        E 0 90 56 60
        E 0 90 60 60
        E 0 90 61 60
        E 0 90 74 60
        E 120 80 18 00
        E 0 80 1f 00
        E 0 80 3e 00
        E 0 80 48 00
        E 0 80 4a 00
        E 0 80 54 00
        E 0 80 56 00
        E 0 80 60 00
        E 0 80 61 00
        E 0 90 1e 60
        E 0 90 61 60
        E 120 80 1e 00
        E 0 80 61 00
        E 0 90 1f 60
        E 0 90 56 60
        E 0 90 61 60
        E 120 80 1f 00
        E 0 80 56 00
        E 0 80 61 00
        E 0 90 1e 60
        E 0 90 61 60
        E 120 80 1e 00
        E 0 80 61 00
        E 0 90 18 60
        E 0 90 1b 60
        E 0 90 3d 60
        E 0 90 3e 60
        E 0 90 49 60
        E 0 90 4a 60
        E 0 90 54 60
        E 0 90 55 60
        E 0 90 56 60
        E 0 90 60 60
        E 0 90 62 60
        E 120 80 18 00
        E 0 80 1b 00
        E 0 80 3d 00
        E 0 80 3e 00
        E 0 80 49 00
        E 0 80 4a 00
        E 0 80 54 00
        E 0 80 55 00
        E 0 80 56 00
        E 0 80 60 00
        E 0 80 62 00
        E 0 90 1e 60
        E 0 90 61 60
        E 120 80 1e 00
        E 0 80 61 00
        E 0 90 1f 60
        E 0 90 56 60
        E 0 90 61 60
        E 120 80 1f 00
        E 0 80 56 00
        E 0 80 61 00
        E 0 90 1e 60
        E 0 90 61 60
        E 120 80 1e 00
        E 0 80 61 00
        E 0 90 18 60
        E 0 90 1f 60
        E 0 90 3e 60
        E 0 90 48 60
        E 0 90 4a 60
        E 0 90 54 60
        E 0 90 56 60
        E 0 90 60 60
        E 0 90 61 60
        E 120 80 18 00
        E 0 80 1f 00
        E 0 80 3e 00
        E 0 80 48 00
        E 0 80 4a 00
        E 0 80 54 00
        E 0 80 56 00
        E 0 80 60 00
        E 0 80 61 00
        E 0 90 1e 60
        E 0 90 61 60
        E 120 80 1e 00
        E 0 80 61 00
        E 0 90 1b 60
        E 0 90 55 60
        E 0 90 56 60
        E 0 90 62 60
        E 120 80 1b 00
        E 0 80 55 00
        E 0 80 56 00
        E 0 80 62 00
        E 0 90 1a 60
        E 0 90 62 60
        E 120 80 1a 00
        E 0 80 62 00
        E 0 90 18 60
        E 0 90 31 60
        E 0 90 3f 60
        E 0 90 4b 60
        E 0 90 54 60
        E 0 90 57 60
        E 0 90 60 60
        E 0 90 63 60
        E 120 80 18 00
        E 0 80 31 00
        E 0 80 3f 00
        E 0 80 4b 00
        E 0 80 54 00
        E 0 80 57 00
        E 0 80 60 00
        E 0 80 63 00
        E 0 90 30 60
        E 0 90 63 60
        E 120 80 30 00
        E 0 80 63 00
        E 0 90 33 60
        E 0 90 58 60
        E 0 90 64 60
        E 120 80 33 00
        E 0 80 58 00
        E 0 80 64 00
        E 0 90 32 60
        E 0 90 64 60
        E 120 80 74 00
        E 0 80 32 00
        E 0 80 64 00
        E 0 90 18 60
        E 0 90 1f 60
        E 0 90 3e 60
        E 0 90 48 60
        E 0 90 4a 60
        E 0 90 54 60
        E 0 90 56 60
        E 0 90 60 60
        E 0 90 61 60
        E 120 80 18 00
        E 0 80 1f 00
        E 0 80 3e 00
        E 0 80 48 00
        E 0 80 4a 00
        E 0 80 54 00
        E 0 80 56 00
        E 0 80 60 00
        E 0 80 61 00
        E 0 90 1e 60
        E 0 90 61 60
        E 120 80 1e 00
        E 0 80 61 00
        E 0 90 1f 60
        E 0 90 56 60
        E 0 90 61 60
        E 120 80 1f 00
        E 0 80 56 00
        E 0 80 61 00
        E 0 90 1e 60
        E 0 90 61 60
        E 120 80 1e 00
        E 0 80 61 00
        E 0 90 18 60
        E 0 90 1b 60
        E 0 90 3d 60
        E 0 90 3e 60
        E 0 90 49 60
        E 0 90 4a 60
        E 0 90 54 60
        E 0 90 55 60
        E 0 90 56 60
        E 0 90 60 60
        E 0 90 62 60
        E 120 80 18 00
        E 0 80 1b 00
        E 0 80 3d 00
        E 0 80 3e 00
        E 0 80 49 00
        E 0 80 4a 00
        E 0 80 54 00
        E 0 80 55 00
        E 0 80 56 00
        E 0 80 60 00
        E 0 80 62 00
        E 0 90 1e 60
        E 0 90 61 60
        E 120 80 1e 00
        E 0 80 61 00
        E 0 90 1f 60
        E 0 90 56 60
        E 0 90 61 60
        E 120 80 1f 00
        E 0 80 56 00
        E 0 80 61 00
        E 0 90 1e 60
        E 0 90 61 60
        E 120 80 1e 00
        E 0 80 61 00
        E 0 90 18 60
        E 0 90 1f 60
        E 0 90 3e 60
        E 0 90 48 60
        E 0 90 4a 60
        E 0 90 54 60
        E 0 90 56 60
        E 0 90 60 60
        E 0 90 61 60
        E 120 80 18 00
        E 0 80 1f 00
        E 0 80 3e 00
        E 0 80 48 00
        E 0 80 4a 00
        E 0 80 54 00
        E 0 80 56 00
        E 0 80 60 00
        E 0 80 61 00
        E 0 90 1e 60
        E 0 90 61 60
        E 120 80 1e 00
        E 0 80 61 00
        E 0 90 1b 60
        E 0 90 55 60
        E 0 90 56 60
        E 0 90 62 60
        E 120 80 1b 00
        E 0 80 55 00
        E 0 80 56 00
        E 0 80 62 00
        E 0 90 1a 60
        E 0 90 62 60
        E 120 80 1a 00
        E 0 80 62 00
        E 0 90 18 60
        E 0 90 1b 60
        E 0 90 3d 60
        E 0 90 3e 60
        E 0 90 49 60
        E 0 90 4a 60
        E 0 90 54 60
        E 0 90 55 60
        E 0 90 56 60
        E 0 90 60 60
        E 0 90 62 60
        E 120 80 18 00
        E 0 80 1b 00
        E 0 80 3d 00
        E 0 80 3e 00
        E 0 80 49 00
        E 0 80 4a 00
        E 0 80 54 00
        E 0 80 55 00
        E 0 80 56 00
        E 0 80 60 00
        E 0 80 62 00
        E 0 90 1a 60
        E 0 90 62 60
        E 120 80 1a 00
        E 0 80 62 00
        E 0 90 1b 60
        E 0 90 55 60
        E 0 90 56 60
        E 0 90 62 60
        E 120 80 1b 00
        E 0 80 55 00
        E 0 80 56 00
        E 0 80 62 00
        E 0 90 1a 60
        E 0 90 62 60
        E 120 80 1a 00
        E 0 80 62 00
        E 0 90 18 60
        E 0 90 1f 60
        E 0 90 3e 60
        E 0 90 48 60
        E 0 90 4a 60
        E 0 90 54 60
        E 0 90 56 60
        E 0 90 60 60
        E 0 90 61 60
        E 120 80 18 00
        E 0 80 1f 00
        E 0 80 3e 00
        E 0 80 48 00
        E 0 80 4a 00
        E 0 80 54 00
        E 0 80 56 00
        E 0 80 60 00
        E 0 80 61 00
        E 0 90 1e 60
        E 0 90 61 60
        E 120 80 1e 00
        E 0 80 61 00
        E 0 90 1f 60
        E 0 90 56 60
        E 0 90 61 60
        E 120 80 1f 00
        E 0 80 56 00
        E 0 80 61 00
        E 0 90 1e 60
        E 0 90 61 60
        E 120 80 1e 00
        E 0 80 61 00
        E 0 90 18 60
        E 0 90 1b 60
        E 0 90 3d 60
        E 0 90 3e 60
        E 0 90 49 60
        E 0 90 4a 60
        E 0 90 54 60
        E 0 90 55 60
        E 0 90 56 60
        E 0 90 60 60
        E 0 90 62 60
        E 120 80 18 00
        E 0 80 1b 00
        E 0 80 3d 00
        E 0 80 3e 00
        E 0 80 49 00
        E 0 80 4a 00
        E 0 80 54 00
        E 0 80 55 00
        E 0 80 56 00
        E 0 80 60 00
        E 0 80 62 00
        E 0 90 1e 60
        E 0 90 61 60
        E 120 80 1e 00
        E 0 80 61 00
        E 0 90 1f 60
        E 0 90 56 60
        E 0 90 61 60
        E 120 80 1f 00
        E 0 80 56 00
        E 0 80 61 00
        E 0 90 1e 60
        E 0 90 61 60
        E 120 80 1e 00
        E 0 80 61 00
        E 0 90 18 60
        E 0 90 1f 60
        E 0 90 3e 60
        E 0 90 48 60
        E 0 90 4a 60
        E 0 90 54 60
        E 0 90 56 60
        E 0 90 60 60
        E 0 90 61 60
        E 120 80 18 00
        E 0 80 1f 00
        E 0 80 3e 00
        E 0 80 48 00
        E 0 80 4a 00
        E 0 80 54 00
        E 0 80 56 00
        E 0 80 60 00
        E 0 80 61 00
        E 0 90 1e 60
        E 0 90 61 60
        E 120 80 1e 00
        E 0 80 61 00
        E 0 90 1b 60
        E 0 90 55 60
        E 0 90 56 60
        E 0 90 62 60
        E 120 80 1b 00
        E 0 80 55 00
        E 0 80 56 00
        E 0 80 62 00
        E 0 90 1a 60
        E 0 90 62 60
        E 120 80 1a 00
        E 0 80 62 00
        E 0 90 18 60
        E 0 90 31 60
        E 0 90 3f 60
        E 0 90 4b 60
        E 0 90 54 60
        E 0 90 57 60
        E 0 90 60 60
        E 0 90 63 60
        E 120 80 18 00
        E 0 80 31 00
        E 0 80 3f 00
        E 0 80 4b 00
        E 0 80 54 00
        E 0 80 57 00
        E 0 80 60 00
        E 0 80 63 00
        E 0 90 30 60
        E 0 90 63 60
        E 120 80 30 00
        E 0 80 63 00
        E 0 90 33 60
        E 0 90 58 60
        E 0 90 64 60
        E 120 80 33 00
        E 0 80 58 00
        E 0 80 64 00
        E 0 90 32 60
        E 0 90 64 60
        E 120 80 32 00
        E 0 80 64 00
        E 0 90 18 60
        E 0 90 1f 60
        E 0 90 3e 60
        E 0 90 48 60
        E 0 90 4a 60
        E 0 90 54 60
        E 0 90 56 60
        E 0 90 60 60
        E 0 90 61 60
        E 120 80 18 00
        E 0 80 1f 00
        E 0 80 3e 00
        E 0 80 48 00
        E 0 80 4a 00
        E 0 80 54 00
        E 0 80 56 00
        E 0 80 60 00
        E 0 80 61 00
        E 0 90 1e 60
        E 0 90 61 60
        E 120 80 1e 00
        E 0 80 61 00
        E 0 90 1f 60
        E 0 90 56 60
        E 0 90 61 60
        E 120 80 1f 00
        E 0 80 56 00
        E 0 80 61 00
        E 0 90 1e 60
        E 0 90 61 60
        E 120 80 1e 00
        E 0 80 61 00
        E 0 90 18 60
        E 0 90 1b 60
        E 0 90 3d 60
        E 0 90 3e 60
        E 0 90 49 60
        E 0 90 4a 60
        E 0 90 54 60
        E 0 90 55 60
        E 0 90 56 60
        E 0 90 60 60
        E 0 90 62 60
        E 120 80 18 00
        E 0 80 1b 00
        E 0 80 3d 00
        E 0 80 3e 00
        E 0 80 49 00
        E 0 80 4a 00
        E 0 80 54 00
        E 0 80 55 00
        E 0 80 56 00
        E 0 80 60 00
        E 0 80 62 00
        E 0 90 1e 60
        E 0 90 61 60
        E 120 80 1e 00
        E 0 80 61 00
        E 0 90 1f 60
        E 0 90 56 60
        E 0 90 61 60
        E 120 80 1f 00
        E 0 80 56 00
        E 0 80 61 00
        E 0 90 1e 60
        E 0 90 61 60
        E 120 80 1e 00
        E 0 80 61 00
        E 0 90 18 60
        E 0 90 1f 60
        E 0 90 3e 60
        E 0 90 48 60
        E 0 90 4a 60
        E 0 90 54 60
        E 0 90 56 60
        E 0 90 60 60
        E 0 90 61 60
        E 120 80 18 00
        E 0 80 1f 00
        E 0 80 3e 00
        E 0 80 48 00
        E 0 80 4a 00
        E 0 80 54 00
        E 0 80 56 00
        E 0 80 60 00
        E 0 80 61 00
        E 0 90 1e 60
        E 0 90 61 60
        E 120 80 1e 00
        E 0 80 61 00
        E 0 90 1b 60
        E 0 90 55 60
        E 0 90 56 60
        E 0 90 62 60
        E 120 80 1b 00
        E 0 80 55 00
        E 0 80 56 00
        E 0 80 62 00
        E 0 90 1a 60
        E 0 90 62 60
        E 120 80 1a 00
        E 0 80 62 00
        E 0 90 18 60
        E 0 90 1b 60
        E 0 90 3d 60
        E 0 90 3e 60
        E 0 90 49 60
        E 0 90 4a 60
        E 0 90 54 60
        E 0 90 55 60
        E 0 90 56 60
        E 0 90 60 60
        E 0 90 62 60
        E 120 80 18 00
        E 0 80 1b 00
        E 0 80 3d 00
        E 0 80 3e 00
        E 0 80 49 00
        E 0 80 4a 00
        E 0 80 54 00
        E 0 80 55 00
        E 0 80 56 00
        E 0 80 60 00
        E 0 80 62 00
        E 0 90 1a 60
        E 0 90 62 60
        E 120 80 1a 00
        E 0 80 62 00
        E 0 90 1b 60
        E 0 90 55 60
        E 0 90 56 60
        E 0 90 62 60
        E 120 80 1b 00
        E 0 80 55 00
        E 0 80 56 00
        E 0 80 62 00
        E 0 90 1a 60
        E 0 90 62 60
        E 120 80 1a 00
        E 0 80 62 00
        E 0 90 18 60
        E 0 90 1f 60
        E 0 90 3e 60
        E 0 90 48 60
        E 0 90 4a 60
        E 0 90 54 60
        E 0 90 56 60
        E 0 90 60 60
        E 0 90 61 60
        E 120 80 18 00
        E 0 80 1f 00
        E 0 80 3e 00
        E 0 80 48 00
        E 0 80 4a 00
        E 0 80 54 00
        E 0 80 56 00
        E 0 80 60 00
        E 0 80 61 00
        E 0 90 1e 60
        E 0 90 61 60
        E 120 80 1e 00
        E 0 80 61 00
        E 0 90 1f 60
        E 0 90 56 60
        E 0 90 61 60
        E 120 80 1f 00
        E 0 80 56 00
        E 0 80 61 00
        E 0 90 1e 60
        E 0 90 61 60
        E 120 80 1e 00
        E 0 80 61 00
        E 0 90 18 60
        E 0 90 1b 60
        E 0 90 3d 60
        E 0 90 3e 60
        E 0 90 49 60
        E 0 90 4a 60
        E 0 90 54 60
        E 0 90 55 60
        E 0 90 56 60
        E 0 90 60 60
        E 0 90 62 60
        E 120 80 18 00
        E 0 80 1b 00
        E 0 80 3d 00
        E 0 80 3e 00
        E 0 80 49 00
        E 0 80 4a 00
        E 0 80 54 00
        E 0 80 55 00
        E 0 80 56 00
        E 0 80 60 00
        E 0 80 62 00
        E 0 90 1e 60
        E 0 90 61 60
        E 120 80 1e 00
        E 0 80 61 00
        E 0 90 1f 60
        E 0 90 56 60
        E 0 90 61 60
        E 120 80 1f 00
        E 0 80 56 00
        E 0 80 61 00
        E 0 90 1e 60
        E 0 90 61 60
        E 120 80 1e 00
        E 0 80 61 00
        E 0 90 18 60
        E 0 90 1f 60
        E 0 90 3e 60
        E 0 90 48 60
        E 0 90 4a 60
        E 0 90 54 60
        E 0 90 56 60
        E 0 90 60 60
        E 0 90 61 60
        E 0 90 78 60
        E 0 90 79 60
        E 0 90 7a 60
        E 0 90 7b 60
        E 0 90 7c 60
        E 120 80 18 00
        E 0 80 1f 00
        E 0 80 3e 00
        E 0 80 48 00
        E 0 80 4a 00
        E 0 80 54 00
        E 0 80 56 00
        E 0 80 60 00
        E 0 80 61 00
        E 0 90 1e 60
        E 0 90 61 60
        E 120 80 1e 00
        E 0 80 61 00
        E 0 90 1b 60
        E 0 90 55 60
        E 0 90 56 60
        E 0 90 62 60
        E 120 80 1b 00
        E 0 80 55 00
        E 0 80 56 00
        E 0 80 62 00
        E 0 90 1a 60
        E 0 90 62 60
        E 120 80 1a 00
        E 0 80 62 00
        E 0 90 18 60
        E 0 90 31 60
        E 0 90 3f 60
        E 0 90 4b 60
        E 0 90 54 60
        E 0 90 57 60
        E 0 90 60 60
        E 0 90 63 60
        E 120 80 18 00
        E 0 80 31 00
        E 0 80 3f 00
        E 0 80 4b 00
        E 0 80 54 00
        E 0 80 57 00
        E 0 80 60 00
        E 0 80 63 00
        E 0 90 30 60
        E 0 90 63 60
        E 120 80 30 00
        E 0 80 63 00
        E 0 90 33 60
        E 0 90 58 60
        E 0 90 64 60
        E 120 80 33 00
        E 0 80 58 00
        E 0 80 64 00
        E 0 90 32 60
        E 0 90 64 60
        E 120 80 78 00
        E 0 80 79 00
        E 0 80 7a 00
        E 0 80 7b 00
        E 0 80 7c 00
        E 0 80 32 00
        E 0 80 64 00
        E 0 90 18 60
        E 0 90 1f 60
        E 0 90 3e 60
        E 0 90 48 60
        E 0 90 4a 60
        E 0 90 54 60
        E 0 90 56 60
        E 0 90 60 60
        E 0 90 61 60
        E 120 80 18 00
        E 0 80 1f 00
        E 0 80 3e 00
        E 0 80 48 00
        E 0 80 4a 00
        E 0 80 54 00
        E 0 80 56 00
        E 0 80 60 00
        E 0 80 61 00
        E 0 90 1e 60
        E 0 90 61 60
        E 120 80 1e 00
        E 0 80 61 00
        E 0 90 1f 60
        E 0 90 56 60
        E 0 90 61 60
        E 120 80 1f 00
        E 0 80 56 00
        E 0 80 61 00
        E 0 90 1e 60
        E 0 90 61 60
        E 120 80 1e 00
        E 0 80 61 00
        E 0 90 18 60
        E 0 90 1b 60
        E 0 90 3d 60
        E 0 90 3e 60
        E 0 90 49 60
        E 0 90 4a 60
        E 0 90 54 60
        E 0 90 55 60
        E 0 90 56 60
        E 0 90 60 60
        E 0 90 62 60
        E 120 80 18 00
        E 0 80 1b 00
        E 0 80 3d 00
        E 0 80 3e 00
        E 0 80 49 00
        E 0 80 4a 00
        E 0 80 54 00
        E 0 80 55 00
        E 0 80 56 00
        E 0 80 60 00
        E 0 80 62 00
        E 0 90 1e 60
        E 0 90 61 60
        E 120 80 1e 00
        E 0 80 61 00
        E 0 90 1f 60
        E 0 90 56 60
        E 0 90 61 60
        E 120 80 1f 00
        E 0 80 56 00
        E 0 80 61 00
        E 0 90 1e 60
        E 0 90 61 60
        E 120 80 1e 00
        E 0 80 61 00
        E 0 90 18 60
        E 0 90 1f 60
        E 0 90 3e 60
        E 0 90 48 60
        E 0 90 4a 60
        E 0 90 54 60
        E 0 90 56 60
        E 0 90 60 60
        E 0 90 61 60
        E 120 80 18 00
        E 0 80 1f 00
        E 0 80 3e 00
        E 0 80 48 00
        E 0 80 4a 00
        E 0 80 54 00
        E 0 80 56 00
        E 0 80 60 00
        E 0 80 61 00
        E 0 90 1e 60
        E 0 90 61 60
        E 120 80 1e 00
        E 0 80 61 00
        E 0 90 1b 60
        E 0 90 55 60
        E 0 90 56 60
        E 0 90 62 60
        E 120 80 1b 00
        E 0 80 55 00
        E 0 80 56 00
        E 0 80 62 00
        E 0 90 1a 60
        E 0 90 62 60
        E 120 80 1a 00
        E 0 80 62 00
        E 0 90 18 60
        E 0 90 1b 60
        E 0 90 3d 60
        E 0 90 3e 60
        E 0 90 49 60
        E 0 90 4a 60
        E 0 90 54 60
        E 0 90 55 60
        E 0 90 56 60
        E 0 90 60 60
        E 0 90 62 60
        E 120 80 18 00
        E 0 80 1b 00
        E 0 80 3d 00
        E 0 80 3e 00
        E 0 80 49 00
        E 0 80 4a 00
        E 0 80 54 00
        E 0 80 55 00
        E 0 80 56 00
        E 0 80 60 00
        E 0 80 62 00
        E 0 90 1a 60
        E 0 90 62 60
        E 120 80 1a 00
        E 0 80 62 00
        E 0 90 1b 60
        E 0 90 55 60
        E 0 90 56 60
        E 0 90 62 60
        E 120 80 1b 00
        E 0 80 55 00
        E 0 80 56 00
        E 0 80 62 00
        E 0 90 1a 60
        E 0 90 62 60
        E 120 80 1a 00
        E 0 80 62 00
        E 0 90 18 60
        E 0 90 1f 60
        E 0 90 3e 60
        E 0 90 48 60
        E 0 90 4a 60
        E 0 90 54 60
        E 0 90 56 60
        E 0 90 60 60
        E 0 90 61 60
        E 120 80 18 00
        E 0 80 1f 00
        E 0 80 3e 00
        E 0 80 48 00
        E 0 80 4a 00
        E 0 80 54 00
        E 0 80 56 00
        E 0 80 60 00
        E 0 80 61 00
        E 0 90 1e 60
        E 0 90 61 60
        E 120 80 1e 00
        E 0 80 61 00
        E 0 90 1f 60
        E 0 90 56 60
        E 0 90 61 60
        E 120 80 1f 00
        E 0 80 56 00
        E 0 80 61 00
        E 0 90 1e 60
        E 0 90 61 60
        E 120 80 1e 00
        E 0 80 61 00
        E 0 90 18 60
        E 0 90 1b 60
        E 0 90 3d 60
        E 0 90 3e 60
        E 0 90 49 60
        E 0 90 4a 60
        E 0 90 54 60
        E 0 90 55 60
        E 0 90 56 60
        E 0 90 60 60
        E 0 90 62 60
        E 120 80 18 00
        E 0 80 1b 00
        E 0 80 3d 00
        E 0 80 3e 00
        E 0 80 49 00
        E 0 80 4a 00
        E 0 80 54 00
        E 0 80 55 00
        E 0 80 56 00
        E 0 80 60 00
        E 0 80 62 00
        E 0 90 1e 60
        E 0 90 61 60
        E 120 80 1e 00
        E 0 80 61 00
        E 0 90 1f 60
        E 0 90 56 60
        E 0 90 61 60
        E 120 80 1f 00
        E 0 80 56 00
        E 0 80 61 00
        E 0 90 1e 60
        E 0 90 61 60
        E 120 80 1e 00
        E 0 80 61 00
        E 0 90 18 60
        E 0 90 1f 60
        E 0 90 3e 60
        E 0 90 48 60
        E 0 90 4a 60
        E 0 90 54 60
        E 0 90 56 60
        E 0 90 60 60
        E 0 90 61 60
        E 120 80 18 00
        E 0 80 1f 00
        E 0 80 3e 00
        E 0 80 48 00
        E 0 80 4a 00
        E 0 80 54 00
        E 0 80 56 00
        E 0 80 60 00
        E 0 80 61 00
        E 0 90 1e 60
        E 0 90 61 60
        E 120 80 1e 00
        E 0 80 61 00
        E 0 90 1b 60
        E 0 90 55 60
        E 0 90 56 60
        E 0 90 62 60
        E 120 80 1b 00
        E 0 80 55 00
        E 0 80 56 00
        E 0 80 62 00
        E 0 90 1a 60
        E 0 90 62 60
        E 120 80 1a 00
        E 0 80 62 00
        E 0 90 18 60
        E 0 90 31 60
        E 0 90 3f 60
        E 0 90 4b 60
        E 0 90 54 60
        E 0 90 57 60
        E 0 90 60 60
        E 0 90 63 60
        E 120 80 18 00
        E 0 80 31 00
        E 0 80 3f 00
        E 0 80 4b 00
        E 0 80 54 00
        E 0 80 57 00
        E 0 80 60 00
        E 0 80 63 00
        E 0 90 30 60
        E 0 90 63 60
        E 120 80 30 00
        E 0 80 63 00
        E 0 90 33 60
        E 0 90 58 60
        E 0 90 64 60
        E 120 80 33 00
        E 0 80 58 00
        E 0 80 64 00
        E 0 90 32 60
        E 0 90 64 60
        E 120 80 32 00
        E 0 80 64 00
        E 0 90 18 60
        E 0 90 1f 60
        E 0 90 3e 60
        E 0 90 48 60
        E 0 90 4a 60
        E 0 90 54 60
        E 0 90 56 60
        E 0 90 60 60
        E 0 90 61 60
        E 120 80 18 00
        E 0 80 1f 00
        E 0 80 3e 00
        E 0 80 48 00
        E 0 80 4a 00
        E 0 80 54 00
        E 0 80 56 00
        E 0 80 60 00
        E 0 80 61 00
        E 0 90 1e 60
        E 0 90 61 60
        E 120 80 1e 00
        E 0 80 61 00
        E 0 90 1f 60
        E 0 90 56 60
        E 0 90 61 60
        E 120 80 1f 00
        E 0 80 56 00
        E 0 80 61 00
        E 0 90 1e 60
        E 0 90 61 60
        E 120 80 1e 00
        E 0 80 61 00
        E 0 90 18 60
        E 0 90 1b 60
        E 0 90 3d 60
        E 0 90 3e 60
        E 0 90 49 60
        E 0 90 4a 60
        E 0 90 54 60
        E 0 90 55 60
        E 0 90 56 60
        E 0 90 60 60
        E 0 90 62 60
        E 120 80 18 00
        E 0 80 1b 00
        E 0 80 3d 00
        E 0 80 3e 00
        E 0 80 49 00
        E 0 80 4a 00
        E 0 80 54 00
        E 0 80 55 00
        E 0 80 56 00
        E 0 80 60 00
        E 0 80 62 00
        E 0 90 1e 60
        E 0 90 61 60
        E 120 80 1e 00
        E 0 80 61 00
        E 0 90 1f 60
        E 0 90 56 60
        E 0 90 61 60
        E 120 80 1f 00
        E 0 80 56 00
        E 0 80 61 00
        E 0 90 1e 60
        E 0 90 61 60
        E 120 80 1e 00
        E 0 80 61 00
        E 0 90 18 60
        E 0 90 1f 60
        E 0 90 3e 60
        E 0 90 48 60
        E 0 90 4a 60
        E 0 90 54 60
        E 0 90 56 60
        E 0 90 60 60
        E 0 90 61 60
        E 120 80 18 00
        E 0 80 1f 00
        E 0 80 3e 00
        E 0 80 48 00
        E 0 80 4a 00
        E 0 80 54 00
        E 0 80 56 00
        E 0 80 60 00
        E 0 80 61 00
        E 0 90 1e 60
        E 0 90 61 60
        E 120 80 1e 00
        E 0 80 61 00
        E 0 90 1b 60
        E 0 90 55 60
        E 0 90 56 60
        E 0 90 62 60
        E 120 80 1b 00
        E 0 80 55 00
        E 0 80 56 00
        E 0 80 62 00
        E 0 90 1a 60
        E 0 90 62 60
        E 120 80 1a 00
        E 0 80 62 00
        E 0 90 18 60
        E 0 90 1b 60
        E 0 90 3d 60
        E 0 90 3e 60
        E 0 90 49 60
        E 0 90 4a 60
        E 0 90 54 60
        E 0 90 55 60
        E 0 90 56 60
        E 0 90 60 60
        E 0 90 62 60
        E 120 80 18 00
        E 0 80 1b 00
        E 0 80 3d 00
        E 0 80 3e 00
        E 0 80 49 00
        E 0 80 4a 00
        E 0 80 54 00
        E 0 80 55 00
        E 0 80 56 00
        E 0 80 60 00
        E 0 80 62 00
        E 0 90 1a 60
        E 0 90 62 60
        E 120 80 1a 00
        E 0 80 62 00
        E 0 90 1b 60
        E 0 90 55 60
        E 0 90 56 60
        E 0 90 62 60
        E 120 80 1b 00
        E 0 80 55 00
        E 0 80 56 00
        E 0 80 62 00
        E 0 90 1a 60
        E 0 90 62 60
        E 120 80 1a 00
        E 0 80 62 00
        E 0 90 18 60
        E 0 90 1f 60
        E 0 90 3e 60
        E 0 90 48 60
        E 0 90 4a 60
        E 0 90 54 60
        E 0 90 56 60
        E 0 90 60 60
        E 0 90 61 60
        E 120 80 18 00
        E 0 80 1f 00
        E 0 80 3e 00
        E 0 80 48 00
        E 0 80 4a 00
        E 0 80 54 00
        E 0 80 56 00
        E 0 80 60 00
        E 0 80 61 00
        E 0 90 1e 60
        E 0 90 61 60
        E 120 80 1e 00
        E 0 80 61 00
        E 0 90 1f 60
        E 0 90 56 60
        E 0 90 61 60
        E 120 80 1f 00
        E 0 80 56 00
        E 0 80 61 00
        E 0 90 1e 60
        E 0 90 61 60
        E 120 80 1e 00
        E 0 80 61 00
        E 0 90 18 60
        E 0 90 1b 60
        E 0 90 3d 60
        E 0 90 3e 60
        E 0 90 49 60
        E 0 90 4a 60
        E 0 90 54 60
        E 0 90 55 60
        E 0 90 56 60
        E 0 90 60 60
        E 0 90 62 60
        E 120 80 18 00
        E 0 80 1b 00
        E 0 80 3d 00
        E 0 80 3e 00
        E 0 80 49 00
        E 0 80 4a 00
        E 0 80 54 00
        E 0 80 55 00
        E 0 80 56 00
        E 0 80 60 00
        E 0 80 62 00
        E 0 90 1e 60
        E 0 90 61 60
        E 120 80 1e 00
        E 0 80 61 00
        E 0 90 1f 60
        E 0 90 56 60
        E 0 90 61 60
        E 120 80 1f 00
        E 0 80 56 00
        E 0 80 61 00
        E 0 90 1e 60
        E 0 90 61 60
        E 120 80 1e 00
        E 0 80 61 00
        E 0 90 18 60
        E 0 90 1f 60
        E 0 90 3e 60
        E 0 90 48 60
        E 0 90 4a 60
        E 0 90 54 60
        E 0 90 56 60
        E 0 90 60 60
        E 0 90 61 60
        E 0 90 78 60
        E 0 90 79 60
        E 0 90 7a 60
        E 0 90 7b 60
        E 0 90 7c 60
        E 120 80 18 00
        E 0 80 1f 00
        E 0 80 3e 00
        E 0 80 48 00
        E 0 80 4a 00
        E 0 80 54 00
        E 0 80 56 00
        E 0 80 60 00
        E 0 80 61 00
        E 0 90 1e 60
        E 0 90 61 60
        E 120 80 1e 00
        E 0 80 61 00
        E 0 90 1b 60
        E 0 90 55 60
        E 0 90 56 60
        E 0 90 62 60
        E 120 80 1b 00
        E 0 80 55 00
        E 0 80 56 00
        E 0 80 62 00
        E 0 90 1a 60
        E 0 90 62 60
        E 120 80 1a 00
        E 0 80 62 00
        E 0 90 18 60
        E 0 90 31 60
        E 0 90 3f 60
        E 0 90 4b 60
        E 0 90 54 60
        E 0 90 57 60
        E 0 90 60 60
        E 0 90 63 60
        E 120 80 18 00
        E 0 80 31 00
        E 0 80 3f 00
        E 0 80 4b 00
        E 0 80 54 00
        E 0 80 57 00
        E 0 80 60 00
        E 0 80 63 00
        E 0 90 30 60
        E 0 90 63 60
        E 120 80 30 00
        E 0 80 63 00
        E 0 90 33 60
        E 0 90 58 60
        E 0 90 64 60
        E 120 80 33 00
        E 0 80 58 00
        E 0 80 64 00
        E 0 90 32 60
        E 0 90 64 60
        E 120 80 78 00
        E 0 80 79 00
        E 0 80 7a 00
        E 0 80 7b 00
        E 0 80 7c 00
        E 0 80 32 00
        E 0 80 64 00
        E 0 90 18 60
        E 0 90 1f 60
        E 0 90 3e 60
        E 0 90 48 60
        E 0 90 4a 60
        E 0 90 54 60
        E 0 90 56 60
        E 0 90 60 60
        E 0 90 61 60
        E 120 80 18 00
        E 0 80 1f 00
        E 0 80 3e 00
        E 0 80 48 00
        E 0 80 4a 00
        E 0 80 54 00
        E 0 80 56 00
        E 0 80 60 00
        E 0 80 61 00
        E 0 90 1e 60
        E 0 90 61 60
        E 120 80 1e 00
        E 0 80 61 00
        E 0 90 1f 60
        E 0 90 56 60
        E 0 90 61 60
        E 120 80 1f 00
        E 0 80 56 00
        E 0 80 61 00
        E 0 90 1e 60
        E 0 90 61 60
        E 120 80 1e 00
        E 0 80 61 00
        E 0 90 18 60
        E 0 90 1b 60
        E 0 90 3d 60
        E 0 90 3e 60
        E 0 90 49 60
        E 0 90 4a 60
        E 0 90 54 60
        E 0 90 55 60
        E 0 90 56 60
        E 0 90 60 60
        E 0 90 62 60
        E 120 80 18 00
        E 0 80 1b 00
        E 0 80 3d 00
        E 0 80 3e 00
        E 0 80 49 00
        E 0 80 4a 00
        E 0 80 54 00
        E 0 80 55 00
        E 0 80 56 00
        E 0 80 60 00
        E 0 80 62 00
        E 0 90 1e 60
        E 0 90 61 60
        E 120 80 1e 00
        E 0 80 61 00
        E 0 90 1f 60
        E 0 90 56 60
        E 0 90 61 60
        E 120 80 1f 00
        E 0 80 56 00
        E 0 80 61 00
        E 0 90 1e 60
        E 0 90 61 60
        E 120 80 1e 00
        E 0 80 61 00
        E 0 90 18 60
        E 0 90 1f 60
        E 0 90 3e 60
        E 0 90 48 60
        E 0 90 4a 60
        E 0 90 54 60
        E 0 90 56 60
        E 0 90 60 60
        E 0 90 61 60
        E 120 80 18 00
        E 0 80 1f 00
        E 0 80 3e 00
        E 0 80 48 00
        E 0 80 4a 00
        E 0 80 54 00
        E 0 80 56 00
        E 0 80 60 00
        E 0 80 61 00
        E 0 90 1e 60
        E 0 90 61 60
        E 120 80 1e 00
        E 0 80 61 00
        E 0 90 1b 60
        E 0 90 55 60
        E 0 90 56 60
        E 0 90 62 60
        E 120 80 1b 00
        E 0 80 55 00
        E 0 80 56 00
        E 0 80 62 00
        E 0 90 1a 60
        E 0 90 62 60
        E 120 80 1a 00
        E 0 80 62 00
        E 0 90 18 60
        E 0 90 1b 60
        E 0 90 3d 60
        E 0 90 3e 60
        E 0 90 49 60
        E 0 90 4a 60
        E 0 90 54 60
        E 0 90 55 60
        E 0 90 56 60
        E 0 90 60 60
        E 0 90 62 60
        E 120 80 18 00
        E 0 80 1b 00
        E 0 80 3d 00
        E 0 80 3e 00
        E 0 80 49 00
        E 0 80 4a 00
        E 0 80 54 00
        E 0 80 55 00
        E 0 80 56 00
        E 0 80 60 00
        E 0 80 62 00
        E 0 90 1a 60
        E 0 90 62 60
        E 120 80 1a 00
        E 0 80 62 00
        E 0 90 1b 60
        E 0 90 55 60
        E 0 90 56 60
        E 0 90 62 60
        E 120 80 1b 00
        E 0 80 55 00
        E 0 80 56 00
        E 0 80 62 00
        E 0 90 1a 60
        E 0 90 62 60
        E 120 80 1a 00
        E 0 80 62 00
        E 0 90 18 60
        E 0 90 1f 60
        E 0 90 3e 60
        E 0 90 48 60
        E 0 90 4a 60
        E 0 90 54 60
        E 0 90 56 60
        E 0 90 60 60
        E 0 90 61 60
        E 120 80 18 00
        E 0 80 1f 00
        E 0 80 3e 00
        E 0 80 48 00
        E 0 80 4a 00
        E 0 80 54 00
        E 0 80 56 00
        E 0 80 60 00
        E 0 80 61 00
        E 0 90 1e 60
        E 0 90 61 60
        E 120 80 1e 00
        E 0 80 61 00
        E 0 90 1f 60
        E 0 90 56 60
        E 0 90 61 60
        E 120 80 1f 00
        E 0 80 56 00
        E 0 80 61 00
        E 0 90 1e 60
        E 0 90 61 60
        E 120 80 1e 00
        E 0 80 61 00
        E 0 90 18 60
        E 0 90 1b 60
        E 0 90 3d 60
        E 0 90 3e 60
        E 0 90 49 60
        E 0 90 4a 60
        E 0 90 54 60
        E 0 90 55 60
        E 0 90 56 60
        E 0 90 60 60
        E 0 90 62 60
        E 120 80 18 00
        E 0 80 1b 00
        E 0 80 3d 00
        E 0 80 3e 00
        E 0 80 49 00
        E 0 80 4a 00
        E 0 80 54 00
        E 0 80 55 00
        E 0 80 56 00
        E 0 80 60 00
        E 0 80 62 00
        E 0 90 1e 60
        E 0 90 61 60
        E 120 80 1e 00
        E 0 80 61 00
        E 0 90 1f 60
        E 0 90 56 60
        E 0 90 61 60
        E 120 80 1f 00
        E 0 80 56 00
        E 0 80 61 00
        E 0 90 1e 60
        E 0 90 61 60
        E 120 80 1e 00
        E 0 80 61 00
        E 0 90 18 60
        E 0 90 1f 60
        E 0 90 3e 60
        E 0 90 48 60
        E 0 90 4a 60
        E 0 90 54 60
        E 0 90 56 60
        E 0 90 60 60
        E 0 90 61 60
        E 120 80 18 00
        E 0 80 1f 00
        E 0 80 3e 00
        E 0 80 48 00
        E 0 80 4a 00
        E 0 80 54 00
        E 0 80 56 00
        E 0 80 60 00
        E 0 80 61 00
        E 0 90 1e 60
        E 0 90 61 60
        E 120 80 1e 00
        E 0 80 61 00
        E 0 90 1b 60
        E 0 90 55 60
        E 0 90 56 60
        E 0 90 62 60
        E 120 80 1b 00
        E 0 80 55 00
        E 0 80 56 00
        E 0 80 62 00
        E 0 90 1a 60
        E 0 90 62 60
        E 120 80 1a 00
        E 0 80 62 00
        E 0 90 18 60
        E 0 90 31 60
        E 0 90 3f 60
        E 0 90 4b 60
        E 0 90 54 60
        E 0 90 57 60
        E 0 90 60 60
        E 0 90 63 60
        E 120 80 18 00
        E 0 80 31 00
        E 0 80 3f 00
        E 0 80 4b 00
        E 0 80 54 00
        E 0 80 57 00
        E 0 80 60 00
        E 0 80 63 00
        E 0 90 30 60
        E 0 90 63 60
        E 120 80 30 00
        E 0 80 63 00
        E 0 90 33 60
        E 0 90 58 60
        E 0 90 64 60
        E 120 80 33 00
        E 0 80 58 00
        E 0 80 64 00
        E 0 90 32 60
        E 0 90 64 60
        E 120 80 32 00
        E 0 80 64 00
        E 0 90 18 60
        E 0 90 1f 60
        E 0 90 3e 60
        E 0 90 48 60
        E 0 90 4a 60
        E 0 90 54 60
        E 0 90 56 60
        E 0 90 60 60
        E 0 90 61 60
        E 120 80 18 00
        E 0 80 1f 00
        E 0 80 3e 00
        E 0 80 48 00
        E 0 80 4a 00
        E 0 80 54 00
        E 0 80 56 00
        E 0 80 60 00
        E 0 80 61 00
        E 0 90 1e 60
        E 0 90 61 60
        E 120 80 1e 00
        E 0 80 61 00
        E 0 90 1f 60
        E 0 90 56 60
        E 0 90 61 60
        E 120 80 1f 00
        E 0 80 56 00
        E 0 80 61 00
        E 0 90 1e 60
        E 0 90 61 60
        E 120 80 1e 00
        E 0 80 61 00
        E 0 90 18 60
        E 0 90 1b 60
        E 0 90 3d 60
        E 0 90 3e 60
        E 0 90 49 60
        E 0 90 4a 60
        E 0 90 54 60
        E 0 90 55 60
        E 0 90 56 60
        E 0 90 60 60
        E 0 90 62 60
        E 120 80 18 00
        E 0 80 1b 00
        E 0 80 3d 00
        E 0 80 3e 00
        E 0 80 49 00
        E 0 80 4a 00
        E 0 80 54 00
        E 0 80 55 00
        E 0 80 56 00
        E 0 80 60 00
        E 0 80 62 00
        E 0 90 1e 60
        E 0 90 61 60
        E 120 80 1e 00
        E 0 80 61 00
        E 0 90 1f 60
        E 0 90 56 60
        E 0 90 61 60
        E 120 80 1f 00
        E 0 80 56 00
        E 0 80 61 00
        E 0 90 1e 60
        E 0 90 61 60
        E 120 80 1e 00
        E 0 80 61 00
        E 0 90 18 60
        E 0 90 1f 60
        E 0 90 3e 60
        E 0 90 48 60
        E 0 90 4a 60
        E 0 90 54 60
        E 0 90 56 60
        E 0 90 60 60
        E 0 90 61 60
        E 120 80 18 00
        E 0 80 1f 00
        E 0 80 3e 00
        E 0 80 48 00
        E 0 80 4a 00
        E 0 80 54 00
        E 0 80 56 00
        E 0 80 60 00
        E 0 80 61 00
        E 0 90 1e 60
        E 0 90 61 60
        E 120 80 1e 00
        E 0 80 61 00
        E 0 90 1b 60
        E 0 90 55 60
        E 0 90 56 60
        E 0 90 62 60
        E 120 80 1b 00
        E 0 80 55 00
        E 0 80 56 00
        E 0 80 62 00
        E 0 90 1a 60
        E 0 90 62 60
        E 120 80 1a 00
        E 0 80 62 00
        E 0 90 18 60
        E 0 90 1b 60
        E 0 90 3d 60
        E 0 90 3e 60
        E 0 90 49 60
        E 0 90 4a 60
        E 0 90 54 60
        E 0 90 55 60
        E 0 90 56 60
        E 0 90 60 60
        E 0 90 62 60
        E 120 80 18 00
        E 0 80 1b 00
        E 0 80 3d 00
        E 0 80 3e 00
        E 0 80 49 00
        E 0 80 4a 00
        E 0 80 54 00
        E 0 80 55 00
        E 0 80 56 00
        E 0 80 60 00
        E 0 80 62 00
        E 0 90 1a 60
        E 0 90 62 60
        E 120 80 1a 00
        E 0 80 62 00
        E 0 90 1b 60
        E 0 90 55 60
        E 0 90 56 60
        E 0 90 62 60
        E 120 80 1b 00
        E 0 80 55 00
        E 0 80 56 00
        E 0 80 62 00
        E 0 90 1a 60
        E 0 90 62 60
        E 120 80 1a 00
        E 0 80 62 00
        E 0 90 18 60
        E 0 90 1f 60
        E 0 90 3e 60
        E 0 90 48 60
        E 0 90 4a 60
        E 0 90 54 60
        E 0 90 56 60
        E 0 90 60 60
        E 0 90 61 60
        E 120 80 18 00
        E 0 80 1f 00
        E 0 80 3e 00
        E 0 80 48 00
        E 0 80 4a 00
        E 0 80 54 00
        E 0 80 56 00
        E 0 80 60 00
        E 0 80 61 00
        E 0 90 1e 60
        E 0 90 61 60
        E 120 80 1e 00
        E 0 80 61 00
        E 0 90 1f 60
        E 0 90 56 60
        E 0 90 61 60
        E 120 80 1f 00
        E 0 80 56 00
        E 0 80 61 00
        E 0 90 1e 60
        E 0 90 61 60
        E 120 80 1e 00
        E 0 80 61 00
        E 0 90 18 60
        E 0 90 1b 60
        E 0 90 3d 60
        E 0 90 3e 60
        E 0 90 49 60
        E 0 90 4a 60
        E 0 90 54 60
        E 0 90 55 60
        E 0 90 56 60
        E 0 90 60 60
        E 0 90 62 60
        E 120 80 18 00
        E 0 80 1b 00
        E 0 80 3d 00
        E 0 80 3e 00
        E 0 80 49 00
        E 0 80 4a 00
        E 0 80 54 00
        E 0 80 55 00
        E 0 80 56 00
        E 0 80 60 00
        E 0 80 62 00
        E 0 90 1e 60
        E 0 90 61 60
        E 120 80 1e 00
        E 0 80 61 00
        E 0 90 1f 60
        E 0 90 56 60
        E 0 90 61 60
        E 120 80 1f 00
        E 0 80 56 00
        E 0 80 61 00
        E 0 90 1e 60
        E 0 90 61 60
        E 120 80 1e 00
        E 0 80 61 00
        E 0 90 18 60
        E 0 90 1b 60
        E 0 90 3d 60
        E 0 90 3e 60
        E 0 90 49 60
        E 0 90 4a 60
        E 0 90 54 60
        E 0 90 55 60
        E 0 90 56 60
        E 0 90 60 60
        E 0 90 62 60
        E 0 90 78 60
        E 0 90 79 60
        E 0 90 7a 60
        E 0 90 7b 60
        E 0 90 7c 60
        E 120 80 18 00
        E 0 80 1b 00
        E 0 80 3d 00
        E 0 80 3e 00
        E 0 80 49 00
        E 0 80 4a 00
        E 0 80 54 00
        E 0 80 55 00
        E 0 80 56 00
        E 0 80 60 00
        E 0 80 62 00
        E 0 90 1a 60
        E 0 90 62 60
        E 120 80 1a 00
        E 0 80 62 00
        E 0 90 1b 60
        E 0 90 55 60
        E 0 90 56 60
        E 0 90 62 60
        E 120 80 1b 00
        E 0 80 55 00
        E 0 80 56 00
        E 0 80 62 00
        E 0 90 1a 60
        E 0 90 62 60
        E 120 80 1a 00
        E 0 80 62 00
        E 0 90 18 60
        E 0 90 31 60
        E 0 90 3f 60
        E 0 90 4b 60
        E 0 90 54 60
        E 0 90 57 60
        E 0 90 60 60
        E 0 90 63 60
        E 120 80 18 00
        E 0 80 31 00
        E 0 80 3f 00
        E 0 80 4b 00
        E 0 80 54 00
        E 0 80 57 00
        E 0 80 60 00
        E 0 80 63 00
        E 0 90 30 60
        E 0 90 63 60
        E 120 80 6f 00
        E 0 80 30 00
        E 0 80 63 00
        E 0 90 33 60
        E 0 90 58 60
        E 0 90 64 60
        E 120 80 33 00
        E 0 80 58 00
        E 0 80 64 00
        E 0 90 32 60
        E 0 90 64 60
        <X 120 0
          /wFbbWl4IDMgZHJ1bXMwXQ==
        >
        E 0 80 78 00
        E 0 80 79 00
        E 0 80 7a 00
        E 0 80 7b 00
        E 0 80 7c 00
        E 0 80 32 00
        E 0 80 64 00
        E 0 90 18 60
        E 0 90 26 60
        E 0 90 3f 60
        E 0 90 48 60
        E 0 90 4b 60
        E 0 90 54 60
        E 0 90 57 60
        E 0 90 60 60
        E 0 90 63 60
        E 120 80 18 00
        E 0 80 26 00
        E 0 80 3f 00
        E 0 80 48 00
        E 0 80 4b 00
        E 0 80 54 00
        E 0 80 57 00
        E 0 80 60 00
        E 0 80 63 00
        E 360 90 18 60
        E 0 90 1a 60
        E 0 90 33 60
        E 0 90 3d 60
        E 0 90 40 60
        E 0 90 49 60
        E 0 90 4c 60
        E 0 90 54 60
        E 0 90 55 60
        E 0 90 58 60
        E 0 90 60 60
        E 0 90 61 60
        E 0 90 64 60
        E 120 80 18 00
        E 0 80 1a 00
        E 0 80 33 00
        E 0 80 3d 00
        E 0 80 40 00
        E 0 80 49 00
        E 0 80 4c 00
        E 0 80 54 00
        E 0 80 55 00
        E 0 80 58 00
        E 0 80 60 00
        E 0 80 61 00
        E 0 80 64 00
        E 360 90 18 60
        E 0 90 3c 60
        E 0 90 48 60
        E 0 90 54 60
        E 0 90 60 60
        E 120 80 18 00
        E 0 80 3c 00
        E 0 80 48 00
        E 0 80 54 00
        E 0 80 60 00
        E 120 90 1a 60
        E 0 90 33 60
        E 0 90 55 60
        E 0 90 58 60
        E 0 90 61 60
        E 0 90 64 60
        E 120 80 1a 00
        E 0 80 33 00
        E 0 80 55 00
        E 0 80 58 00
        E 0 80 61 00
        E 0 80 64 00
        E 120 90 18 60
        E 0 90 3c 60
        E 0 90 48 60
        E 0 90 54 60
        E 0 90 60 60
        E 120 80 18 00
        E 0 80 3c 00
        E 0 80 48 00
        E 0 80 54 00
        E 0 80 60 00
        E 360 90 18 60
        E 0 90 3c 60
        E 0 90 48 60
        E 0 90 54 60
        E 0 90 60 60
        E 0 90 74 60
        E 120 80 18 00
        E 0 80 3c 00
        E 0 80 48 00
        E 0 80 54 00
        E 0 80 60 00
        E 360 90 18 60
        E 0 90 1a 60
        E 0 90 33 60
        E 0 90 3d 60
        E 0 90 40 60
        E 0 90 49 60
        E 0 90 4c 60
        E 0 90 54 60
        E 0 90 55 60
        E 0 90 58 60
        E 0 90 60 60
        E 0 90 61 60
        E 0 90 64 60
        E 120 80 18 00
        E 0 80 1a 00
        E 0 80 33 00
        E 0 80 3d 00
        E 0 80 40 00
        E 0 80 49 00
        E 0 80 4c 00
        E 0 80 54 00
        E 0 80 55 00
        E 0 80 58 00
        E 0 80 60 00
        E 0 80 61 00
        E 0 80 64 00
        E 360 90 18 60
        E 0 90 3c 60
        E 0 90 48 60
        E 0 90 54 60
        E 0 90 60 60
        E 120 80 18 00
        E 0 80 3c 00
        E 0 80 48 00
        E 0 80 54 00
        E 0 80 60 00
        E 120 90 1a 60
        E 0 90 31 60
        E 0 90 55 60
        E 0 90 57 60
        E 0 90 61 60
        E 0 90 63 60
        E 0 90 6f 60
        E 120 80 1a 00
        E 0 80 31 00
        E 0 80 55 00
        E 0 80 57 00
        E 0 80 61 00
        E 0 80 63 00
        E 0 80 6f 00
        E 120 90 18 60
        E 0 90 3c 60
        E 0 90 48 60
        E 0 90 54 60
        E 0 90 60 60
        E 120 80 18 00
        E 0 80 3c 00
        E 0 80 48 00
        E 0 80 54 00
        E 0 80 60 00
        E 360 80 74 00
        E 0 90 18 60
        E 0 90 3c 60
        E 0 90 48 60
        E 0 90 54 60
        E 0 90 60 60
        E 120 80 18 00
        E 0 80 3c 00
        E 0 80 48 00
        E 0 80 54 00
        E 0 80 60 00
        E 360 90 18 60
        E 0 90 1a 60
        E 0 90 33 60
        E 0 90 3d 60
        E 0 90 40 60
        E 0 90 49 60
        E 0 90 4c 60
        E 0 90 54 60
        E 0 90 55 60
        E 0 90 58 60
        E 0 90 60 60
        E 0 90 61 60
        E 0 90 64 60
        E 120 80 18 00
        E 0 80 1a 00
        E 0 80 33 00
        E 0 80 3d 00
        E 0 80 40 00
        E 0 80 49 00
        E 0 80 4c 00
        E 0 80 54 00
        E 0 80 55 00
        E 0 80 58 00
        E 0 80 60 00
        E 0 80 61 00
        E 0 80 64 00
        E 360 90 18 60
        E 0 90 3c 60
        E 0 90 48 60
        E 0 90 54 60
        E 0 90 60 60
        E 120 80 18 00
        E 0 80 3c 00
        E 0 80 48 00
        E 0 80 54 00
        E 0 80 60 00
        E 120 90 1a 60
        E 0 90 33 60
        E 0 90 55 60
        E 0 90 58 60
        E 0 90 61 60
        E 0 90 64 60
        E 120 80 1a 00
        E 0 80 33 00
        E 0 80 55 00
        E 0 80 58 00
        E 0 80 61 00
        E 0 80 64 00
        E 120 90 18 60
        E 0 90 3c 60
        E 0 90 48 60
        E 0 90 54 60
        E 0 90 60 60
        E 120 80 18 00
        E 0 80 3c 00
        E 0 80 48 00
        E 0 80 54 00
        E 0 80 60 00
        E 120 90 1f 60
        E 0 90 56 60
        E 0 90 62 60
        E 120 80 1f 00
        E 0 80 56 00
        E 0 80 62 00
        E 0 90 1e 60
        E 0 90 62 60
        E 120 80 1e 00
        E 0 80 62 00
        E 0 90 18 60
        E 0 90 1f 60
        E 0 90 3e 60
        E 0 90 48 60
        E 0 90 4a 60
        E 0 90 54 60
        E 0 90 56 60
        E 0 90 60 60
        E 0 90 62 60
        E 120 80 18 00
        E 0 80 1f 00
        E 0 80 3e 00
        E 0 80 48 00
        E 0 80 4a 00
        E 0 80 54 00
        E 0 80 56 00
        E 0 80 60 00
        E 0 80 62 00
        E 0 90 1e 60
        E 0 90 62 60
        E 120 80 1e 00
        E 0 80 62 00
        E 0 90 1f 60
        E 0 90 56 60
        E 0 90 62 60
        E 120 80 1f 00
        E 0 80 56 00
        E 0 80 62 00
        E 0 90 1e 60
        E 0 90 62 60
        E 120 80 1e 00
        E 0 80 62 00
        E 0 90 18 60
        E 0 90 1a 60
        E 0 90 33 60
        E 0 90 3d 60
        E 0 90 40 60
        E 0 90 49 60
        E 0 90 4c 60
        E 0 90 54 60
        E 0 90 55 60
        E 0 90 58 60
        E 0 90 60 60
        E 0 90 61 60
        E 0 90 64 60
        E 120 80 18 00
        E 0 80 1a 00
        E 0 80 33 00
        E 0 80 3d 00
        E 0 80 40 00
        E 0 80 49 00
        E 0 80 4c 00
        E 0 80 54 00
        E 0 80 55 00
        E 0 80 58 00
        E 0 80 60 00
        E 0 80 61 00
        E 0 80 64 00
        E 360 90 18 60
        E 0 90 3c 60
        E 0 90 48 60
        E 0 90 54 60
        E 0 90 60 60
        E 0 90 78 60
        E 0 90 79 60
        E 0 90 7a 60
        E 0 90 7b 60
        E 0 90 7c 60
        E 120 80 18 00
        E 0 80 3c 00
        E 0 80 48 00
        E 0 80 54 00
        E 0 80 60 00
        E 120 90 1a 60
        E 0 90 26 60
        E 0 90 55 60
        E 0 90 57 60
        E 0 90 61 60
        E 0 90 63 60
        E 120 80 1a 00
        E 0 80 26 00
        E 0 80 55 00
        E 0 80 57 00
        E 0 80 61 00
        E 0 80 63 00
        E 120 90 18 60
        E 0 90 26 60
        E 0 90 3f 60
        E 0 90 48 60
        E 0 90 4b 60
        E 0 90 54 60
        E 0 90 57 60
        E 0 90 60 60
        E 0 90 63 60
        E 120 80 18 00
        E 0 80 26 00
        E 0 80 3f 00
        E 0 80 48 00
        E 0 80 4b 00
        E 0 80 54 00
        E 0 80 57 00
        E 0 80 60 00
        E 0 80 63 00
        E 240 90 33 60
        E 0 90 64 60
        E 120 80 78 00
        E 0 80 79 00
        E 0 80 7a 00
        E 0 80 7b 00
        E 0 80 7c 00
        E 0 80 33 00
        E 0 80 64 00
        E 0 90 18 60
        E 0 90 32 60
        E 0 90 40 60
        E 0 90 4c 60
        E 0 90 54 60
        E 0 90 58 60
        E 0 90 60 60
        E 0 90 64 60
        E 120 80 18 00
        E 0 80 32 00
        E 0 80 40 00
        E 0 80 4c 00
        E 0 80 54 00
        E 0 80 58 00
        E 0 80 60 00
        E 0 80 64 00
        E 360 90 18 60
        E 0 90 1a 60
        E 0 90 33 60
        E 0 90 3d 60
        E 0 90 40 60
        E 0 90 49 60
        E 0 90 4c 60
        E 0 90 54 60
        E 0 90 55 60
        E 0 90 58 60
        E 0 90 60 60
        E 0 90 61 60
        E 0 90 64 60
        E 120 80 18 00
        E 0 80 1a 00
        E 0 80 33 00
        E 0 80 3d 00
        E 0 80 40 00
        E 0 80 49 00
        E 0 80 4c 00
        E 0 80 54 00
        E 0 80 55 00
        E 0 80 58 00
        E 0 80 60 00
        E 0 80 61 00
        E 0 80 64 00
        E 360 90 18 60
        E 0 90 3c 60
        E 0 90 48 60
        E 0 90 54 60
        E 0 90 60 60
        E 120 80 18 00
        E 0 80 3c 00
        E 0 80 48 00
        E 0 80 54 00
        E 0 80 60 00
        E 120 90 1a 60
        E 0 90 33 60
        E 0 90 55 60
        E 0 90 58 60
        E 0 90 61 60
        E 0 90 64 60
        E 120 80 1a 00
        E 0 80 33 00
        E 0 80 55 00
        E 0 80 58 00
        E 0 80 61 00
        E 0 80 64 00
        E 120 90 18 60
        E 0 90 3c 60
        E 0 90 48 60
        E 0 90 54 60
        E 0 90 60 60
        E 120 80 18 00
        E 0 80 3c 00
        E 0 80 48 00
        E 0 80 54 00
        E 0 80 60 00
        E 360 90 18 60
        E 0 90 3c 60
        E 0 90 48 60
        E 0 90 54 60
        E 0 90 60 60
        E 120 80 18 00
        E 0 80 3c 00
        E 0 80 48 00
        E 0 80 54 00
        E 0 80 60 00
        E 360 90 18 60
        E 0 90 1a 60
        E 0 90 33 60
        E 0 90 3d 60
        E 0 90 40 60
        E 0 90 49 60
        E 0 90 4c 60
        E 0 90 54 60
        E 0 90 55 60
        E 0 90 58 60
        E 0 90 60 60
        E 0 90 61 60
        E 0 90 64 60
        E 120 80 18 00
        E 0 80 1a 00
        E 0 80 33 00
        E 0 80 3d 00
        E 0 80 40 00
        E 0 80 49 00
        E 0 80 4c 00
        E 0 80 54 00
        E 0 80 55 00
        E 0 80 58 00
        E 0 80 60 00
        E 0 80 61 00
        E 0 80 64 00
        E 360 90 18 60
        E 0 90 3c 60
        E 0 90 48 60
        E 0 90 54 60
        E 0 90 60 60
        E 120 80 18 00
        E 0 80 3c 00
        E 0 80 48 00
        E 0 80 54 00
        E 0 80 60 00
        E 120 90 1a 60
        E 0 90 31 60
        E 0 90 55 60
        E 0 90 57 60
        E 0 90 61 60
        E 0 90 63 60
        E 0 90 6f 60
        E 120 80 1a 00
        E 0 80 31 00
        E 0 80 55 00
        E 0 80 57 00
        E 0 80 61 00
        E 0 80 63 00
        E 0 80 6f 00
        E 120 90 18 60
        E 0 90 3c 60
        E 0 90 48 60
        E 0 90 54 60
        E 0 90 60 60
        E 120 80 18 00
        E 0 80 3c 00
        E 0 80 48 00
        E 0 80 54 00
        E 0 80 60 00
        E 200 90 33 60
        E 0 90 64 60
        E 80 80 33 00
        E 0 80 64 00
        E 80 90 18 60
        E 0 90 3c 60
        E 0 90 48 60
        E 0 90 54 60
        E 0 90 60 60
        E 120 80 18 00
        E 0 80 3c 00
        E 0 80 48 00
        E 0 80 54 00
        E 0 80 60 00
        E 120 90 33 60
        E 0 90 58 60
        E 0 90 64 60
        E 120 80 33 00
        E 0 80 58 00
        E 0 80 64 00
        E 120 90 18 60
        E 0 90 1a 60
        E 0 90 33 60
        E 0 90 3d 60
        E 0 90 40 60
        E 0 90 49 60
        E 0 90 4c 60
        E 0 90 54 60
        E 0 90 55 60
        E 0 90 58 60
        E 0 90 60 60
        E 0 90 61 60
        E 0 90 64 60
        E 120 80 18 00
        E 0 80 1a 00
        E 0 80 33 00
        E 0 80 3d 00
        E 0 80 40 00
        E 0 80 49 00
        E 0 80 4c 00
        E 0 80 54 00
        E 0 80 55 00
        E 0 80 58 00
        E 0 80 60 00
        E 0 80 61 00
        E 0 80 64 00
        E 360 90 18 60
        E 0 90 3c 60
        E 0 90 48 60
        E 0 90 54 60
        E 0 90 60 60
        E 120 80 18 00
        E 0 80 3c 00
        E 0 80 48 00
        E 0 80 54 00
        E 0 80 60 00
        E 120 90 1a 60
        E 0 90 33 60
        E 0 90 55 60
        E 0 90 58 60
        E 0 90 61 60
        E 0 90 64 60
        E 120 80 1a 00
        E 0 80 33 00
        E 0 80 55 00
        E 0 80 58 00
        E 0 80 61 00
        E 0 80 64 00
        E 120 90 18 60
        E 0 90 3c 60
        E 0 90 48 60
        E 0 90 54 60
        E 0 90 60 60
        E 120 80 18 00
        E 0 80 3c 00
        E 0 80 48 00
        E 0 80 54 00
        E 0 80 60 00
        E 120 90 1f 60
        E 0 90 56 60
        E 0 90 62 60
        E 120 80 1f 00
        E 0 80 56 00
        E 0 80 62 00
        E 0 90 1e 60
        E 0 90 62 60
        E 120 80 1e 00
        E 0 80 62 00
        E 0 90 18 60
        E 0 90 1f 60
        E 0 90 3e 60
        E 0 90 48 60
        E 0 90 4a 60
        E 0 90 54 60
        E 0 90 56 60
        E 0 90 60 60
        E 0 90 62 60
        E 120 80 18 00
        E 0 80 1f 00
        E 0 80 3e 00
        E 0 80 48 00
        E 0 80 4a 00
        E 0 80 54 00
        E 0 80 56 00
        E 0 80 60 00
        E 0 80 62 00
        E 0 90 1e 60
        E 0 90 62 60
        E 120 80 1e 00
        E 0 80 62 00
        E 0 90 1f 60
        E 0 90 56 60
        E 0 90 62 60
        E 120 80 1f 00
        E 0 80 56 00
        E 0 80 62 00
        E 0 90 1e 60
        E 0 90 62 60
        E 120 80 1e 00
        E 0 80 62 00
        E 0 90 18 60
        E 0 90 1a 60
        E 0 90 33 60
        E 0 90 3d 60
        E 0 90 40 60
        E 0 90 49 60
        E 0 90 4c 60
        E 0 90 54 60
        E 0 90 55 60
        E 0 90 58 60
        E 0 90 60 60
        E 0 90 61 60
        E 0 90 64 60
        E 120 80 18 00
        E 0 80 1a 00
        E 0 80 33 00
        E 0 80 3d 00
        E 0 80 40 00
        E 0 80 49 00
        E 0 80 4c 00
        E 0 80 54 00
        E 0 80 55 00
        E 0 80 58 00
        E 0 80 60 00
        E 0 80 61 00
        E 0 80 64 00
        E 360 90 18 60
        E 0 90 3c 60
        E 0 90 48 60
        E 0 90 54 60
        E 0 90 60 60
        E 0 90 78 60
        E 0 90 79 60
        E 0 90 7a 60
        E 0 90 7b 60
        E 0 90 7c 60
        E 120 80 18 00
        E 0 80 3c 00
        E 0 80 48 00
        E 0 80 54 00
        E 0 80 60 00
        E 120 90 1a 60
        E 0 90 26 60
        E 0 90 55 60
        E 0 90 57 60
        E 0 90 61 60
        E 0 90 63 60
        E 120 80 1a 00
        E 0 80 26 00
        E 0 80 55 00
        E 0 80 57 00
        E 0 80 61 00
        E 0 80 63 00
        E 120 90 18 60
        E 0 90 26 60
        E 0 90 3f 60
        E 0 90 48 60
        E 0 90 4b 60
        E 0 90 54 60
        E 0 90 57 60
        E 0 90 60 60
        E 0 90 63 60
        E 120 80 18 00
        E 0 80 26 00
        E 0 80 3f 00
        E 0 80 48 00
        E 0 80 4b 00
        E 0 80 54 00
        E 0 80 57 00
        E 0 80 60 00
        E 0 80 63 00
        E 240 90 33 60
        E 0 90 64 60
        E 120 80 78 00
        E 0 80 79 00
        E 0 80 7a 00
        E 0 80 7b 00
        E 0 80 7c 00
        E 0 80 33 00
        E 0 80 64 00
        E 0 90 18 60
        E 0 90 32 60
        E 0 90 40 60
        E 0 90 4c 60
        E 0 90 54 60
        E 0 90 58 60
        E 0 90 60 60
        E 0 90 64 60
        E 120 80 18 00
        E 0 80 32 00
        E 0 80 40 00
        E 0 80 4c 00
        E 0 80 54 00
        E 0 80 58 00
        E 0 80 60 00
        E 0 80 64 00
        E 360 90 18 60
        E 0 90 1a 60
        E 0 90 33 60
        E 0 90 3d 60
        E 0 90 40 60
        E 0 90 49 60
        E 0 90 4c 60
        E 0 90 54 60
        E 0 90 55 60
        E 0 90 58 60
        E 0 90 60 60
        E 0 90 61 60
        E 0 90 64 60
        E 120 80 18 00
        E 0 80 1a 00
        E 0 80 33 00
        E 0 80 3d 00
        E 0 80 40 00
        E 0 80 49 00
        E 0 80 4c 00
        E 0 80 54 00
        E 0 80 55 00
        E 0 80 58 00
        E 0 80 60 00
        E 0 80 61 00
        E 0 80 64 00
        E 360 90 18 60
        E 0 90 3c 60
        E 0 90 48 60
        E 0 90 54 60
        E 0 90 60 60
        E 120 80 18 00
        E 0 80 3c 00
        E 0 80 48 00
        E 0 80 54 00
        E 0 80 60 00
        E 120 90 1a 60
        E 0 90 33 60
        E 0 90 55 60
        E 0 90 58 60
        E 0 90 61 60
        E 0 90 64 60
        E 120 80 1a 00
        E 0 80 33 00
        E 0 80 55 00
        E 0 80 58 00
        E 0 80 61 00
        E 0 80 64 00
        E 120 90 18 60
        E 0 90 3c 60
        E 0 90 48 60
        E 0 90 54 60
        E 0 90 60 60
        E 120 80 18 00
        E 0 80 3c 00
        E 0 80 48 00
        E 0 80 54 00
        E 0 80 60 00
        E 360 90 18 60
        E 0 90 3c 60
        E 0 90 48 60
        E 0 90 54 60
        E 0 90 60 60
        E 120 80 18 00
        E 0 80 3c 00
        E 0 80 48 00
        E 0 80 54 00
        E 0 80 60 00
        E 360 90 18 60
        E 0 90 1a 60
        E 0 90 33 60
        E 0 90 3d 60
        E 0 90 40 60
        E 0 90 49 60
        E 0 90 4c 60
        E 0 90 54 60
        E 0 90 55 60
        E 0 90 58 60
        E 0 90 60 60
        E 0 90 61 60
        E 0 90 64 60
        E 120 80 18 00
        E 0 80 1a 00
        E 0 80 33 00
        E 0 80 3d 00
        E 0 80 40 00
        E 0 80 49 00
        E 0 80 4c 00
        E 0 80 54 00
        E 0 80 55 00
        E 0 80 58 00
        E 0 80 60 00
        E 0 80 61 00
        E 0 80 64 00
        E 360 90 18 60
        E 0 90 3c 60
        E 0 90 48 60
        E 0 90 54 60
        E 0 90 60 60
        E 120 80 18 00
        E 0 80 3c 00
        E 0 80 48 00
        E 0 80 54 00
        E 0 80 60 00
        E 120 90 1a 60
        E 0 90 31 60
        E 0 90 55 60
        E 0 90 57 60
        E 0 90 61 60
        E 0 90 63 60
        E 0 90 6f 60
        E 120 80 1a 00
        E 0 80 31 00
        E 0 80 55 00
        E 0 80 57 00
        E 0 80 61 00
        E 0 80 63 00
        E 0 80 6f 00
        E 120 90 18 60
        E 0 90 3c 60
        E 0 90 48 60
        E 0 90 54 60
        E 0 90 60 60
        E 120 80 18 00
        E 0 80 3c 00
        E 0 80 48 00
        E 0 80 54 00
        E 0 80 60 00
        E 360 90 18 60
        E 0 90 3c 60
        E 0 90 48 60
        E 0 90 54 60
        E 0 90 60 60
        E 120 80 18 00
        E 0 80 3c 00
        E 0 80 48 00
        E 0 80 54 00
        E 0 80 60 00
        E 360 90 18 60
        E 0 90 1a 60
        E 0 90 31 60
        E 0 90 3d 60
        E 0 90 3f 60
        E 0 90 49 60
        E 0 90 4b 60
        E 0 90 54 60
        E 0 90 55 60
        E 0 90 57 60
        E 0 90 60 60
        E 0 90 61 60
        E 0 90 63 60
        E 0 90 6f 60
        E 120 80 18 00
        E 0 80 1a 00
        E 0 80 31 00
        E 0 80 3d 00
        E 0 80 3f 00
        E 0 80 49 00
        E 0 80 4b 00
        E 0 80 54 00
        E 0 80 55 00
        E 0 80 57 00
        E 0 80 60 00
        E 0 80 61 00
        E 0 80 63 00
        E 0 80 6f 00
        E 360 90 18 60
        E 0 90 3c 60
        E 0 90 48 60
        E 0 90 54 60
        E 0 90 60 60
        E 120 80 18 00
        E 0 80 3c 00
        E 0 80 48 00
        E 0 80 54 00
        E 0 80 60 00
        E 120 90 1a 60
        E 0 90 31 60
        E 0 90 55 60
        E 0 90 57 60
        E 0 90 61 60
        E 0 90 63 60
        E 0 90 6f 60
        E 120 80 1a 00
        E 0 80 31 00
        E 0 80 55 00
        E 0 80 57 00
        E 0 80 61 00
        E 0 80 63 00
        E 0 80 6f 00
        E 120 90 18 60
        E 0 90 3c 60
        E 0 90 48 60
        E 0 90 54 60
        E 0 90 60 60
        E 120 80 18 00
        E 0 80 3c 00
        E 0 80 48 00
        E 0 80 54 00
        E 0 80 60 00
        E 120 90 1f 60
        E 0 90 56 60
        E 0 90 62 60
        E 120 80 1f 00
        E 0 80 56 00
        E 0 80 62 00
        E 0 90 1e 60
        E 0 90 62 60
        E 120 80 1e 00
        E 0 80 62 00
        E 0 90 18 60
        E 0 90 1f 60
        E 0 90 3e 60
        E 0 90 48 60
        E 0 90 4a 60
        E 0 90 54 60
        E 0 90 56 60
        E 0 90 60 60
        E 0 90 62 60
        E 120 80 18 00
        E 0 80 1f 00
        E 0 80 3e 00
        E 0 80 48 00
        E 0 80 4a 00
        E 0 80 54 00
        E 0 80 56 00
        E 0 80 60 00
        E 0 80 62 00
        E 0 90 1e 60
        E 0 90 62 60
        E 120 80 1e 00
        E 0 80 62 00
        E 0 90 1f 60
        E 0 90 56 60
        E 0 90 62 60
        E 120 80 1f 00
        E 0 80 56 00
        E 0 80 62 00
        E 0 90 1e 60
        E 0 90 62 60
        E 120 80 1e 00
        E 0 80 62 00
        E 0 90 18 60
        E 0 90 1a 60
        E 0 90 33 60
        E 0 90 3d 60
        E 0 90 40 60
        E 0 90 49 60
        E 0 90 4c 60
        E 0 90 54 60
        E 0 90 55 60
        E 0 90 58 60
        E 0 90 60 60
        E 0 90 61 60
        E 0 90 64 60
        E 120 80 18 00
        E 0 80 1a 00
        E 0 80 33 00
        E 0 80 3d 00
        E 0 80 40 00
        E 0 80 49 00
        E 0 80 4c 00
        E 0 80 54 00
        E 0 80 55 00
        E 0 80 58 00
        E 0 80 60 00
        E 0 80 61 00
        E 0 80 64 00
        E 360 90 18 60
        E 0 90 3c 60
        E 0 90 48 60
        E 0 90 54 60
        E 0 90 60 60
        E 0 90 78 60
        E 0 90 79 60
        E 0 90 7a 60
        E 0 90 7b 60
        E 0 90 7c 60
        E 120 80 18 00
        E 0 80 3c 00
        E 0 80 48 00
        E 0 80 54 00
        E 0 80 60 00
        E 120 90 1a 60
        E 0 90 26 60
        E 0 90 55 60
        E 0 90 57 60
        E 0 90 61 60
        E 0 90 63 60
        E 120 80 1a 00
        E 0 80 26 00
        E 0 80 55 00
        E 0 80 57 00
        E 0 80 61 00
        E 0 80 63 00
        E 120 90 18 60
        E 0 90 26 60
        E 0 90 3f 60
        E 0 90 48 60
        E 0 90 4b 60
        E 0 90 54 60
        E 0 90 57 60
        E 0 90 60 60
        E 0 90 63 60
        E 120 80 18 00
        E 0 80 26 00
        E 0 80 3f 00
        E 0 80 48 00
        E 0 80 4b 00
        E 0 80 54 00
        E 0 80 57 00
        E 0 80 60 00
        E 0 80 63 00
        E 240 90 33 60
        E 0 90 64 60
        E 120 80 78 00
        E 0 80 79 00
        E 0 80 7a 00
        E 0 80 7b 00
        E 0 80 7c 00
        E 0 80 33 00
        E 0 80 64 00
        E 0 90 18 60
        E 0 90 32 60
        E 0 90 40 60
        E 0 90 4c 60
        E 0 90 54 60
        E 0 90 58 60
        E 0 90 60 60
        E 0 90 64 60
        E 120 80 18 00
        E 0 80 32 00
        E 0 80 40 00
        E 0 80 4c 00
        E 0 80 54 00
        E 0 80 58 00
        E 0 80 60 00
        E 0 80 64 00
        E 360 90 18 60
        E 0 90 1a 60
        E 0 90 33 60
        E 0 90 3d 60
        E 0 90 40 60
        E 0 90 49 60
        E 0 90 4c 60
        E 0 90 54 60
        E 0 90 55 60
        E 0 90 58 60
        E 0 90 60 60
        E 0 90 61 60
        E 0 90 64 60
        E 120 80 18 00
        E 0 80 1a 00
        E 0 80 33 00
        E 0 80 3d 00
        E 0 80 40 00
        E 0 80 49 00
        E 0 80 4c 00
        E 0 80 54 00
        E 0 80 55 00
        E 0 80 58 00
        E 0 80 60 00
        E 0 80 61 00
        E 0 80 64 00
        E 360 90 18 60
        E 0 90 3c 60
        E 0 90 48 60
        E 0 90 54 60
        E 0 90 60 60
        E 120 80 18 00
        E 0 80 3c 00
        E 0 80 48 00
        E 0 80 54 00
        E 0 80 60 00
        E 120 90 1a 60
        E 0 90 33 60
        E 0 90 55 60
        E 0 90 58 60
        E 0 90 61 60
        E 0 90 64 60
        E 120 80 1a 00
        E 0 80 33 00
        E 0 80 55 00
        E 0 80 58 00
        E 0 80 61 00
        E 0 80 64 00
        E 120 90 18 60
        E 0 90 3c 60
        E 0 90 48 60
        E 0 90 54 60
        E 0 90 60 60
        E 120 80 18 00
        E 0 80 3c 00
        E 0 80 48 00
        E 0 80 54 00
        E 0 80 60 00
        E 360 90 18 60
        E 0 90 3c 60
        E 0 90 48 60
        E 0 90 54 60
        E 0 90 60 60
        E 120 80 18 00
        E 0 80 3c 00
        E 0 80 48 00
        E 0 80 54 00
        E 0 80 60 00
        E 360 90 18 60
        E 0 90 1a 60
        E 0 90 33 60
        E 0 90 3d 60
        E 0 90 40 60
        E 0 90 49 60
        E 0 90 4c 60
        E 0 90 54 60
        E 0 90 55 60
        E 0 90 58 60
        E 0 90 60 60
        E 0 90 61 60
        E 0 90 64 60
        E 120 80 18 00
        E 0 80 1a 00
        E 0 80 33 00
        E 0 80 3d 00
        E 0 80 40 00
        E 0 80 49 00
        E 0 80 4c 00
        E 0 80 54 00
        E 0 80 55 00
        E 0 80 58 00
        E 0 80 60 00
        E 0 80 61 00
        E 0 80 64 00
        E 360 90 18 60
        E 0 90 3c 60
        E 0 90 48 60
        E 0 90 54 60
        E 0 90 60 60
        E 120 80 18 00
        E 0 80 3c 00
        E 0 80 48 00
        E 0 80 54 00
        E 0 80 60 00
        E 120 90 1a 60
        E 0 90 31 60
        E 0 90 55 60
        E 0 90 57 60
        E 0 90 61 60
        E 0 90 63 60
        E 0 90 6f 60
        E 120 80 1a 00
        E 0 80 31 00
        E 0 80 55 00
        E 0 80 57 00
        E 0 80 61 00
        E 0 80 63 00
        E 0 80 6f 00
        E 120 90 18 60
        E 0 90 3c 60
        E 0 90 48 60
        E 0 90 54 60
        E 0 90 60 60
        E 120 80 18 00
        E 0 80 3c 00
        E 0 80 48 00
        E 0 80 54 00
        E 0 80 60 00
        E 120 90 33 60
        E 0 90 58 60
        E 0 90 64 60
        E 120 80 33 00
        E 0 80 58 00
        E 0 80 64 00
        E 0 90 32 60
        E 0 90 64 60
        E 120 80 32 00
        E 0 80 64 00
        E 0 90 18 60
        E 0 90 3c 60
        E 0 90 48 60
        E 0 90 54 60
        E 0 90 60 60
        E 0 90 74 60
        E 120 80 18 00
        E 0 80 3c 00
        E 0 80 48 00
        E 0 80 54 00
        E 0 80 60 00
        E 360 90 18 60
        E 0 90 1a 60
        E 0 90 33 60
        E 0 90 3d 60
        E 0 90 40 60
        E 0 90 49 60
        E 0 90 4c 60
        E 0 90 54 60
        E 0 90 55 60
        E 0 90 58 60
        E 0 90 60 60
        E 0 90 61 60
        E 0 90 64 60
        E 120 80 18 00
        E 0 80 1a 00
        E 0 80 33 00
        E 0 80 3d 00
        E 0 80 40 00
        E 0 80 49 00
        E 0 80 4c 00
        E 0 80 54 00
        E 0 80 55 00
        E 0 80 58 00
        E 0 80 60 00
        E 0 80 61 00
        E 0 80 64 00
        E 360 90 18 60
        E 0 90 3c 60
        E 0 90 48 60
        E 0 90 54 60
        E 0 90 60 60
        E 120 80 18 00
        E 0 80 3c 00
        E 0 80 48 00
        E 0 80 54 00
        E 0 80 60 00
        E 120 90 1a 60
        E 0 90 33 60
        E 0 90 55 60
        E 0 90 58 60
        E 0 90 61 60
        E 0 90 64 60
        E 120 80 1a 00
        E 0 80 33 00
        E 0 80 55 00
        E 0 80 58 00
        E 0 80 61 00
        E 0 80 64 00
        E 120 90 18 60
        E 0 90 3c 60
        E 0 90 48 60
        E 0 90 54 60
        E 0 90 60 60
        E 120 80 18 00
        E 0 80 3c 00
        E 0 80 48 00
        E 0 80 54 00
        E 0 80 60 00
        E 120 90 1f 60
        E 0 90 56 60
        E 0 90 62 60
        E 120 80 1f 00
        E 0 80 56 00
        E 0 80 62 00
        E 0 90 1e 60
        E 0 90 62 60
        E 120 80 1e 00
        E 0 80 62 00
        E 0 90 18 60
        E 0 90 1f 60
        E 0 90 3e 60
        E 0 90 48 60
        E 0 90 4a 60
        E 0 90 54 60
        E 0 90 56 60
        E 0 90 60 60
        E 0 90 62 60
        E 120 80 18 00
        E 0 80 1f 00
        E 0 80 3e 00
        E 0 80 48 00
        E 0 80 4a 00
        E 0 80 54 00
        E 0 80 56 00
        E 0 80 60 00
        E 0 80 62 00
        E 0 90 1e 60
        E 0 90 62 60
        E 120 80 1e 00
        E 0 80 62 00
        E 0 90 1f 60
        E 0 90 56 60
        E 0 90 62 60
        E 120 80 1f 00
        E 0 80 56 00
        E 0 80 62 00
        E 0 90 1e 60
        E 0 90 62 60
        E 120 80 1e 00
        E 0 80 62 00
        E 0 90 18 60
        E 0 90 1a 60
        E 0 90 33 60
        E 0 90 3d 60
        E 0 90 40 60
        E 0 90 49 60
        E 0 90 4c 60
        E 0 90 54 60
        E 0 90 55 60
        E 0 90 58 60
        E 0 90 60 60
        E 0 90 61 60
        E 0 90 64 60
        E 120 80 74 00
        E 0 80 18 00
        E 0 80 1a 00
        E 0 80 33 00
        E 0 80 3d 00
        E 0 80 40 00
        E 0 80 49 00
        E 0 80 4c 00
        E 0 80 54 00
        E 0 80 55 00
        E 0 80 58 00
        E 0 80 60 00
        E 0 80 61 00
        E 0 80 64 00
        E 360 90 18 60
        E 0 90 1a 60
        E 0 90 26 60
        E 0 90 3d 60
        E 0 90 3f 60
        E 0 90 49 60
        E 0 90 4b 60
        E 0 90 54 60
        E 0 90 55 60
        E 0 90 57 60
        E 0 90 60 60
        E 0 90 61 60
        E 0 90 63 60
        E 0 90 78 60
        E 0 90 79 60
        E 0 90 7a 60
        E 0 90 7b 60
        E 0 90 7c 60
        E 120 80 18 00
        E 0 80 1a 00
        E 0 80 26 00
        E 0 80 3d 00
        E 0 80 3f 00
        E 0 80 49 00
        E 0 80 4b 00
        E 0 80 54 00
        E 0 80 55 00
        E 0 80 57 00
        E 0 80 60 00
        E 0 80 61 00
        E 0 80 63 00
        E 0 90 1a 60
        E 0 90 61 60
        E 120 80 1a 00
        E 0 80 61 00
        E 0 90 1b 60
        E 0 90 55 60
        E 0 90 61 60
        E 120 80 1b 00
        E 0 80 55 00
        E 0 80 61 00
        E 0 90 1a 60
        E 0 90 61 60
        E 120 80 1a 00
        E 0 80 61 00
        E 0 90 18 60
        E 0 90 31 60
        E 0 90 3f 60
        E 0 90 4b 60
        E 0 90 54 60
        E 0 90 57 60
        E 0 90 60 60
        E 0 90 63 60
        E 0 90 6f 60
        E 120 80 18 00
        E 0 80 31 00
        E 0 80 3f 00
        E 0 80 4b 00
        E 0 80 54 00
        E 0 80 57 00
        E 0 80 60 00
        E 0 80 63 00
        E 0 90 30 60
        E 0 90 63 60
        E 120 80 6f 00
        E 0 80 30 00
        E 0 80 63 00
        E 0 90 33 60
        E 0 90 58 60
        E 0 90 64 60
        E 120 80 33 00
        E 0 80 58 00
        E 0 80 64 00
        E 0 90 32 60
        E 0 90 64 60
        <X 120 0
          /wFbbWl4IDMgZHJ1bXMwZF0=
        >
        E 0 80 78 00
        E 0 80 79 00
        E 0 80 7a 00
        E 0 80 7b 00
        E 0 80 7c 00
        E 0 80 32 00
        E 0 80 64 00
        E 0 90 18 60
        E 0 90 26 60
        E 0 90 3f 60
        E 0 90 48 60
        E 0 90 4b 60
        E 0 90 54 60
        E 0 90 57 60
        E 0 90 60 60
        E 0 90 63 60
        E 120 80 18 00
        E 0 80 26 00
        E 0 80 3f 00
        E 0 80 48 00
        E 0 80 4b 00
        E 0 80 54 00
        E 0 80 57 00
        E 0 80 60 00
        E 0 80 63 00
        E 0 90 1e 60
        E 0 90 61 60
        E 120 80 1e 00
        E 0 80 61 00
        E 0 90 1f 60
        E 0 90 56 60
        E 0 90 61 60
        E 120 80 1f 00
        E 0 80 56 00
        E 0 80 61 00
        E 0 90 1e 60
        E 0 90 61 60
        E 120 80 1e 00
        E 0 80 61 00
        E 0 90 18 60
        E 0 90 1b 60
        E 0 90 3d 60
        E 0 90 3e 60
        E 0 90 49 60
        E 0 90 4a 60
        E 0 90 54 60
        E 0 90 55 60
        E 0 90 56 60
        E 0 90 60 60
        E 0 90 62 60
        E 120 80 18 00
        E 0 80 1b 00
        E 0 80 3d 00
        E 0 80 3e 00
        E 0 80 49 00
        E 0 80 4a 00
        E 0 80 54 00
        E 0 80 55 00
        E 0 80 56 00
        E 0 80 60 00
        E 0 80 62 00
        E 0 90 1e 60
        E 0 90 61 60
        E 120 80 1e 00
        E 0 80 61 00
        E 0 90 1f 60
        E 0 90 56 60
        E 0 90 61 60
        E 120 80 1f 00
        E 0 80 56 00
        E 0 80 61 00
        E 0 90 1e 60
        E 0 90 61 60
        E 120 80 1e 00
        E 0 80 61 00
        E 0 90 18 60
        E 0 90 1f 60
        E 0 90 3e 60
        E 0 90 48 60
        E 0 90 4a 60
        E 0 90 54 60
        E 0 90 56 60
        E 0 90 60 60
        E 0 90 61 60
        E 120 80 18 00
        E 0 80 1f 00
        E 0 80 3e 00
        E 0 80 48 00
        E 0 80 4a 00
        E 0 80 54 00
        E 0 80 56 00
        E 0 80 60 00
        E 0 80 61 00
        E 0 90 1e 60
        E 0 90 61 60
        E 120 80 1e 00
        E 0 80 61 00
        E 0 90 1b 60
        E 0 90 55 60
        E 0 90 56 60
        E 0 90 62 60
        E 120 80 1b 00
        E 0 80 55 00
        E 0 80 56 00
        E 0 80 62 00
        E 0 90 1a 60
        E 0 90 62 60
        E 120 80 1a 00
        E 0 80 62 00
        E 0 90 18 60
        E 0 90 1b 60
        E 0 90 3d 60
        E 0 90 3e 60
        E 0 90 49 60
        E 0 90 4a 60
        E 0 90 54 60
        E 0 90 55 60
        E 0 90 56 60
        E 0 90 60 60
        E 0 90 62 60
        E 120 80 18 00
        E 0 80 1b 00
        E 0 80 3d 00
        E 0 80 3e 00
        E 0 80 49 00
        E 0 80 4a 00
        E 0 80 54 00
        E 0 80 55 00
        E 0 80 56 00
        E 0 80 60 00
        E 0 80 62 00
        E 0 90 1a 60
        E 0 90 62 60
        E 120 80 1a 00
        E 0 80 62 00
        E 0 90 1b 60
        E 0 90 55 60
        E 0 90 56 60
        E 0 90 62 60
        E 120 80 1b 00
        E 0 80 55 00
        E 0 80 56 00
        E 0 80 62 00
        E 0 90 1a 60
        E 0 90 62 60
        E 120 80 1a 00
        E 0 80 62 00
        E 0 90 18 60
        E 0 90 1f 60
        E 0 90 3e 60
        E 0 90 48 60
        E 0 90 4a 60
        E 0 90 54 60
        E 0 90 56 60
        E 0 90 60 60
        E 0 90 61 60
        E 120 80 18 00
        E 0 80 1f 00
        E 0 80 3e 00
        E 0 80 48 00
        E 0 80 4a 00
        E 0 80 54 00
        E 0 80 56 00
        E 0 80 60 00
        E 0 80 61 00
        E 0 90 1e 60
        E 0 90 61 60
        E 120 80 1e 00
        E 0 80 61 00
        E 0 90 1f 60
        E 0 90 56 60
        E 0 90 61 60
        E 120 80 1f 00
        E 0 80 56 00
        E 0 80 61 00
        E 0 90 1e 60
        E 0 90 61 60
        E 120 80 1e 00
        E 0 80 61 00
        E 0 90 18 60
        E 0 90 1b 60
        E 0 90 3d 60
        E 0 90 3e 60
        E 0 90 49 60
        E 0 90 4a 60
        E 0 90 54 60
        E 0 90 55 60
        E 0 90 56 60
        E 0 90 60 60
        E 0 90 62 60
        E 120 80 18 00
        E 0 80 1b 00
        E 0 80 3d 00
        E 0 80 3e 00
        E 0 80 49 00
        E 0 80 4a 00
        E 0 80 54 00
        E 0 80 55 00
        E 0 80 56 00
        E 0 80 60 00
        E 0 80 62 00
        E 0 90 1e 60
        E 0 90 61 60
        E 120 80 1e 00
        E 0 80 61 00
        E 0 90 1f 60
        E 0 90 56 60
        E 0 90 61 60
        E 120 80 1f 00
        E 0 80 56 00
        E 0 80 61 00
        E 0 90 1e 60
        E 0 90 61 60
        E 120 80 1e 00
        E 0 80 61 00
        E 0 90 18 60
        E 0 90 1f 60
        E 0 90 3e 60
        E 0 90 48 60
        E 0 90 4a 60
        E 0 90 54 60
        E 0 90 56 60
        E 0 90 60 60
        E 0 90 61 60
        E 120 80 18 00
        E 0 80 1f 00
        E 0 80 3e 00
        E 0 80 48 00
        E 0 80 4a 00
        E 0 80 54 00
        E 0 80 56 00
        E 0 80 60 00
        E 0 80 61 00
        E 0 90 1e 60
        E 0 90 61 60
        E 120 80 1e 00
        E 0 80 61 00
        E 0 90 1b 60
        E 0 90 55 60
        E 0 90 56 60
        E 0 90 62 60
        E 120 80 1b 00
        E 0 80 55 00
        E 0 80 56 00
        E 0 80 62 00
        E 0 90 1a 60
        E 0 90 62 60
        E 120 80 1a 00
        E 0 80 62 00
        E 0 90 18 60
        E 0 90 31 60
        E 0 90 3f 60
        E 0 90 4b 60
        E 0 90 54 60
        E 0 90 57 60
        E 0 90 60 60
        E 0 90 63 60
        E 0 90 6f 60
        E 120 80 18 00
        E 0 80 31 00
        E 0 80 3f 00
        E 0 80 4b 00
        E 0 80 54 00
        E 0 80 57 00
        E 0 80 60 00
        E 0 80 63 00
        E 0 90 30 60
        E 0 90 63 60
        E 120 80 30 00
        E 0 80 63 00
        E 0 90 33 60
        E 0 90 58 60
        E 0 90 64 60
        E 120 80 33 00
        E 0 80 58 00
        E 0 80 64 00
        E 0 90 32 60
        E 0 90 64 60
        E 120 80 32 00
        E 0 80 64 00
        E 0 90 18 60
        E 0 90 1f 60
        E 0 90 3e 60
        E 0 90 48 60
        E 0 90 4a 60
        E 0 90 54 60
        E 0 90 56 60
        E 0 90 60 60
        E 0 90 61 60
        E 120 80 18 00
        E 0 80 1f 00
        E 0 80 3e 00
        E 0 80 48 00
        E 0 80 4a 00
        E 0 80 54 00
        E 0 80 56 00
        E 0 80 60 00
        E 0 80 61 00
        E 0 90 1e 60
        E 0 90 61 60
        E 120 80 1e 00
        E 0 80 61 00
        E 0 90 1f 60
        E 0 90 56 60
        E 0 90 61 60
        E 120 80 1f 00
        E 0 80 56 00
        E 0 80 61 00
        E 0 90 1e 60
        E 0 90 61 60
        E 120 80 1e 00
        E 0 80 61 00
        E 0 90 18 60
        E 0 90 1b 60
        E 0 90 3d 60
        E 0 90 3e 60
        E 0 90 49 60
        E 0 90 4a 60
        E 0 90 54 60
        E 0 90 55 60
        E 0 90 56 60
        E 0 90 60 60
        E 0 90 62 60
        E 120 80 18 00
        E 0 80 1b 00
        E 0 80 3d 00
        E 0 80 3e 00
        E 0 80 49 00
        E 0 80 4a 00
        E 0 80 54 00
        E 0 80 55 00
        E 0 80 56 00
        E 0 80 60 00
        E 0 80 62 00
        E 0 90 1e 60
        E 0 90 61 60
        E 120 80 1e 00
        E 0 80 61 00
        E 0 90 1f 60
        E 0 90 56 60
        E 0 90 61 60
        E 120 80 1f 00
        E 0 80 56 00
        E 0 80 61 00
        E 0 90 1e 60
        E 0 90 61 60
        E 120 80 1e 00
        E 0 80 61 00
        E 0 90 18 60
        E 0 90 1f 60
        E 0 90 3e 60
        E 0 90 48 60
        E 0 90 4a 60
        E 0 90 54 60
        E 0 90 56 60
        E 0 90 60 60
        E 0 90 61 60
        E 120 80 18 00
        E 0 80 1f 00
        E 0 80 3e 00
        E 0 80 48 00
        E 0 80 4a 00
        E 0 80 54 00
        E 0 80 56 00
        E 0 80 60 00
        E 0 80 61 00
        E 0 90 1e 60
        E 0 90 61 60
        E 120 80 1e 00
        E 0 80 61 00
        E 0 90 1b 60
        E 0 90 55 60
        E 0 90 56 60
        E 0 90 62 60
        E 120 80 1b 00
        E 0 80 55 00
        E 0 80 56 00
        E 0 80 62 00
        E 0 90 1a 60
        E 0 90 62 60
        E 120 80 1a 00
        E 0 80 62 00
        E 0 90 18 60
        E 0 90 1b 60
        E 0 90 3d 60
        E 0 90 3e 60
        E 0 90 49 60
        E 0 90 4a 60
        E 0 90 54 60
        E 0 90 55 60
        E 0 90 56 60
        E 0 90 60 60
        E 0 90 62 60
        E 120 80 18 00
        E 0 80 1b 00
        E 0 80 3d 00
        E 0 80 3e 00
        E 0 80 49 00
        E 0 80 4a 00
        E 0 80 54 00
        E 0 80 55 00
        E 0 80 56 00
        E 0 80 60 00
        E 0 80 62 00
        E 0 90 1a 60
        E 0 90 62 60
        E 120 80 1a 00
        E 0 80 62 00
        E 0 90 1b 60
        E 0 90 55 60
        E 0 90 56 60
        E 0 90 62 60
        E 120 80 1b 00
        E 0 80 55 00
        E 0 80 56 00
        E 0 80 62 00
        E 0 90 1a 60
        E 0 90 62 60
        E 120 80 1a 00
        E 0 80 62 00
        E 0 90 18 60
        E 0 90 1f 60
        E 0 90 3e 60
        E 0 90 48 60
        E 0 90 4a 60
        E 0 90 54 60
        E 0 90 56 60
        E 0 90 60 60
        E 0 90 61 60
        E 120 80 18 00
        E 0 80 1f 00
        E 0 80 3e 00
        E 0 80 48 00
        E 0 80 4a 00
        E 0 80 54 00
        E 0 80 56 00
        E 0 80 60 00
        E 0 80 61 00
        E 0 90 1e 60
        E 0 90 61 60
        E 120 80 1e 00
        E 0 80 61 00
        E 0 90 1f 60
        E 0 90 56 60
        E 0 90 61 60
        E 120 80 1f 00
        E 0 80 56 00
        E 0 80 61 00
        E 0 90 1e 60
        E 0 90 61 60
        E 120 80 1e 00
        E 0 80 61 00
        E 0 90 18 60
        E 0 90 1b 60
        E 0 90 3d 60
        E 0 90 3e 60
        E 0 90 49 60
        E 0 90 4a 60
        E 0 90 54 60
        E 0 90 55 60
        E 0 90 56 60
        E 0 90 60 60
        E 0 90 62 60
        E 120 80 18 00
        E 0 80 1b 00
        E 0 80 3d 00
        E 0 80 3e 00
        E 0 80 49 00
        E 0 80 4a 00
        E 0 80 54 00
        E 0 80 55 00
        E 0 80 56 00
        E 0 80 60 00
        E 0 80 62 00
        E 0 90 1e 60
        E 0 90 61 60
        E 120 80 1e 00
        E 0 80 61 00
        E 0 90 1f 60
        E 0 90 56 60
        E 0 90 61 60
        E 120 80 1f 00
        E 0 80 56 00
        E 0 80 61 00
        E 0 90 1e 60
        E 0 90 61 60
        E 120 80 1e 00
        E 0 80 61 00
        E 0 90 18 60
        E 0 90 1f 60
        E 0 90 3e 60
        E 0 90 48 60
        E 0 90 4a 60
        E 0 90 54 60
        E 0 90 56 60
        E 0 90 60 60
        E 0 90 61 60
        E 0 90 78 60
        E 0 90 79 60
        E 0 90 7a 60
        E 0 90 7b 60
        E 0 90 7c 60
        E 120 80 18 00
        E 0 80 1f 00
        E 0 80 3e 00
        E 0 80 48 00
        E 0 80 4a 00
        E 0 80 54 00
        E 0 80 56 00
        E 0 80 60 00
        E 0 80 61 00
        E 0 90 1e 60
        E 0 90 61 60
        E 120 80 1e 00
        E 0 80 61 00
        E 0 90 1b 60
        E 0 90 55 60
        E 0 90 56 60
        E 0 90 62 60
        E 120 80 1b 00
        E 0 80 55 00
        E 0 80 56 00
        E 0 80 62 00
        E 0 90 1a 60
        E 0 90 62 60
        E 120 80 1a 00
        E 0 80 62 00
        E 0 90 18 60
        E 0 90 31 60
        E 0 90 3f 60
        E 0 90 4b 60
        E 0 90 54 60
        E 0 90 57 60
        E 0 90 60 60
        E 0 90 63 60
        E 120 80 18 00
        E 0 80 31 00
        E 0 80 3f 00
        E 0 80 4b 00
        E 0 80 54 00
        E 0 80 57 00
        E 0 80 60 00
        E 0 80 63 00
        E 0 90 30 60
        E 0 90 63 60
        E 120 80 30 00
        E 0 80 63 00
        E 0 90 33 60
        E 0 90 58 60
        E 0 90 64 60
        E 120 80 33 00
        E 0 80 58 00
        E 0 80 64 00
        E 0 90 32 60
        E 0 90 64 60
        E 120 80 78 00
        E 0 80 79 00
        E 0 80 7a 00
        E 0 80 7b 00
        E 0 80 7c 00
        E 0 80 32 00
        E 0 80 64 00
        E 0 90 18 60
        E 0 90 1f 60
        E 0 90 3e 60
        E 0 90 48 60
        E 0 90 4a 60
        E 0 90 54 60
        E 0 90 56 60
        E 0 90 60 60
        E 0 90 61 60
        E 120 80 18 00
        E 0 80 1f 00
        E 0 80 3e 00
        E 0 80 48 00
        E 0 80 4a 00
        E 0 80 54 00
        E 0 80 56 00
        E 0 80 60 00
        E 0 80 61 00
        E 0 90 1e 60
        E 0 90 61 60
        E 120 80 1e 00
        E 0 80 61 00
        E 0 90 1f 60
        E 0 90 56 60
        E 0 90 61 60
        E 120 80 1f 00
        E 0 80 56 00
        E 0 80 61 00
        E 0 90 1e 60
        E 0 90 61 60
        E 120 80 1e 00
        E 0 80 61 00
        E 0 90 18 60
        E 0 90 1b 60
        E 0 90 3d 60
        E 0 90 3e 60
        E 0 90 49 60
        E 0 90 4a 60
        E 0 90 54 60
        E 0 90 55 60
        E 0 90 56 60
        E 0 90 60 60
        E 0 90 62 60
        E 120 80 18 00
        E 0 80 1b 00
        E 0 80 3d 00
        E 0 80 3e 00
        E 0 80 49 00
        E 0 80 4a 00
        E 0 80 54 00
        E 0 80 55 00
        E 0 80 56 00
        E 0 80 60 00
        E 0 80 62 00
        E 0 90 1e 60
        E 0 90 61 60
        E 120 80 1e 00
        E 0 80 61 00
        E 0 90 1f 60
        E 0 90 56 60
        E 0 90 61 60
        E 120 80 1f 00
        E 0 80 56 00
        E 0 80 61 00
        E 0 90 1e 60
        E 0 90 61 60
        E 120 80 1e 00
        E 0 80 61 00
        E 0 90 18 60
        E 0 90 1f 60
        E 0 90 3e 60
        E 0 90 48 60
        E 0 90 4a 60
        E 0 90 54 60
        E 0 90 56 60
        E 0 90 60 60
        E 0 90 61 60
        E 120 80 18 00
        E 0 80 1f 00
        E 0 80 3e 00
        E 0 80 48 00
        E 0 80 4a 00
        E 0 80 54 00
        E 0 80 56 00
        E 0 80 60 00
        E 0 80 61 00
        E 0 90 1e 60
        E 0 90 61 60
        E 120 80 1e 00
        E 0 80 61 00
        E 0 90 1b 60
        E 0 90 55 60
        E 0 90 56 60
        E 0 90 62 60
        E 120 80 1b 00
        E 0 80 55 00
        E 0 80 56 00
        E 0 80 62 00
        E 0 90 1a 60
        E 0 90 62 60
        E 120 80 1a 00
        E 0 80 62 00
        E 0 90 18 60
        E 0 90 1b 60
        E 0 90 3d 60
        E 0 90 3e 60
        E 0 90 49 60
        E 0 90 4a 60
        E 0 90 54 60
        E 0 90 55 60
        E 0 90 56 60
        E 0 90 60 60
        E 0 90 62 60
        E 120 80 18 00
        E 0 80 1b 00
        E 0 80 3d 00
        E 0 80 3e 00
        E 0 80 49 00
        E 0 80 4a 00
        E 0 80 54 00
        E 0 80 55 00
        E 0 80 56 00
        E 0 80 60 00
        E 0 80 62 00
        E 0 90 1a 60
        E 0 90 62 60
        E 120 80 1a 00
        E 0 80 62 00
        E 0 90 1b 60
        E 0 90 55 60
        E 0 90 56 60
        E 0 90 62 60
        E 120 80 1b 00
        E 0 80 55 00
        E 0 80 56 00
        E 0 80 62 00
        E 0 90 1a 60
        E 0 90 62 60
        E 120 80 1a 00
        E 0 80 62 00
        E 0 90 18 60
        E 0 90 1f 60
        E 0 90 3e 60
        E 0 90 48 60
        E 0 90 4a 60
        E 0 90 54 60
        E 0 90 56 60
        E 0 90 60 60
        E 0 90 61 60
        E 120 80 18 00
        E 0 80 1f 00
        E 0 80 3e 00
        E 0 80 48 00
        E 0 80 4a 00
        E 0 80 54 00
        E 0 80 56 00
        E 0 80 60 00
        E 0 80 61 00
        E 0 90 1e 60
        E 0 90 61 60
        E 120 80 1e 00
        E 0 80 61 00
        E 0 90 1f 60
        E 0 90 56 60
        E 0 90 61 60
        E 120 80 1f 00
        E 0 80 56 00
        E 0 80 61 00
        E 0 90 1e 60
        E 0 90 61 60
        E 120 80 1e 00
        E 0 80 61 00
        E 0 90 18 60
        E 0 90 1b 60
        E 0 90 3d 60
        E 0 90 3e 60
        E 0 90 49 60
        E 0 90 4a 60
        E 0 90 54 60
        E 0 90 55 60
        E 0 90 56 60
        E 0 90 60 60
        E 0 90 62 60
        E 120 80 18 00
        E 0 80 1b 00
        E 0 80 3d 00
        E 0 80 3e 00
        E 0 80 49 00
        E 0 80 4a 00
        E 0 80 54 00
        E 0 80 55 00
        E 0 80 56 00
        E 0 80 60 00
        E 0 80 62 00
        E 0 90 1e 60
        E 0 90 61 60
        E 120 80 1e 00
        E 0 80 61 00
        E 0 90 1f 60
        E 0 90 56 60
        E 0 90 61 60
        E 120 80 1f 00
        E 0 80 56 00
        E 0 80 61 00
        E 0 90 1e 60
        E 0 90 61 60
        E 120 80 1e 00
        E 0 80 61 00
        E 0 90 18 60
        E 0 90 1f 60
        E 0 90 3e 60
        E 0 90 48 60
        E 0 90 4a 60
        E 0 90 54 60
        E 0 90 56 60
        E 0 90 60 60
        E 0 90 61 60
        E 120 80 18 00
        E 0 80 1f 00
        E 0 80 3e 00
        E 0 80 48 00
        E 0 80 4a 00
        E 0 80 54 00
        E 0 80 56 00
        E 0 80 60 00
        E 0 80 61 00
        E 0 90 1e 60
        E 0 90 61 60
        E 120 80 1e 00
        E 0 80 61 00
        E 0 90 1b 60
        E 0 90 55 60
        E 0 90 56 60
        E 0 90 62 60
        E 120 80 1b 00
        E 0 80 55 00
        E 0 80 56 00
        E 0 80 62 00
        E 0 90 1a 60
        E 0 90 62 60
        E 120 80 1a 00
        E 0 80 62 00
        E 0 90 18 60
        E 0 90 31 60
        E 0 90 3f 60
        E 0 90 4b 60
        E 0 90 54 60
        E 0 90 57 60
        E 0 90 60 60
        E 0 90 63 60
        E 120 80 18 00
        E 0 80 31 00
        E 0 80 3f 00
        E 0 80 4b 00
        E 0 80 54 00
        E 0 80 57 00
        E 0 80 60 00
        E 0 80 63 00
        E 0 90 30 60
        E 0 90 63 60
        E 120 80 30 00
        E 0 80 63 00
        E 0 90 33 60
        E 0 90 58 60
        E 0 90 64 60
        E 120 80 33 00
        E 0 80 58 00
        E 0 80 64 00
        E 0 90 32 60
        E 0 90 64 60
        E 120 80 32 00
        E 0 80 64 00
        E 0 90 18 60
        E 0 90 1f 60
        E 0 90 3e 60
        E 0 90 48 60
        E 0 90 4a 60
        E 0 90 54 60
        E 0 90 56 60
        E 0 90 60 60
        E 0 90 61 60
        E 120 80 18 00
        E 0 80 1f 00
        E 0 80 3e 00
        E 0 80 48 00
        E 0 80 4a 00
        E 0 80 54 00
        E 0 80 56 00
        E 0 80 60 00
        E 0 80 61 00
        E 0 90 1e 60
        E 0 90 61 60
        E 120 80 1e 00
        E 0 80 61 00
        E 0 90 1f 60
        E 0 90 56 60
        E 0 90 61 60
        E 120 80 1f 00
        E 0 80 56 00
        E 0 80 61 00
        E 0 90 1e 60
        E 0 90 61 60
        E 120 80 1e 00
        E 0 80 61 00
        E 0 90 18 60
        E 0 90 1b 60
        E 0 90 3d 60
        E 0 90 3e 60
        E 0 90 49 60
        E 0 90 4a 60
        E 0 90 54 60
        E 0 90 55 60
        E 0 90 56 60
        E 0 90 60 60
        E 0 90 62 60
        E 120 80 18 00
        E 0 80 1b 00
        E 0 80 3d 00
        E 0 80 3e 00
        E 0 80 49 00
        E 0 80 4a 00
        E 0 80 54 00
        E 0 80 55 00
        E 0 80 56 00
        E 0 80 60 00
        E 0 80 62 00
        E 0 90 1e 60
        E 0 90 61 60
        E 120 80 1e 00
        E 0 80 61 00
        E 0 90 1f 60
        E 0 90 56 60
        E 0 90 61 60
        E 120 80 1f 00
        E 0 80 56 00
        E 0 80 61 00
        E 0 90 1e 60
        E 0 90 61 60
        E 120 80 1e 00
        E 0 80 61 00
        E 0 90 18 60
        E 0 90 1f 60
        E 0 90 3e 60
        E 0 90 48 60
        E 0 90 4a 60
        E 0 90 54 60
        E 0 90 56 60
        E 0 90 60 60
        E 0 90 61 60
        E 120 80 18 00
        E 0 80 1f 00
        E 0 80 3e 00
        E 0 80 48 00
        E 0 80 4a 00
        E 0 80 54 00
        E 0 80 56 00
        E 0 80 60 00
        E 0 80 61 00
        E 0 90 1e 60
        E 0 90 61 60
        E 120 80 1e 00
        E 0 80 61 00
        E 0 90 1b 60
        E 0 90 55 60
        E 0 90 56 60
        E 0 90 62 60
        E 120 80 1b 00
        E 0 80 55 00
        E 0 80 56 00
        E 0 80 62 00
        E 0 90 1a 60
        E 0 90 62 60
        E 120 80 1a 00
        E 0 80 62 00
        E 0 90 18 60
        E 0 90 1b 60
        E 0 90 3d 60
        E 0 90 3e 60
        E 0 90 49 60
        E 0 90 4a 60
        E 0 90 54 60
        E 0 90 55 60
        E 0 90 56 60
        E 0 90 60 60
        E 0 90 62 60
        E 120 80 18 00
        E 0 80 1b 00
        E 0 80 3d 00
        E 0 80 3e 00
        E 0 80 49 00
        E 0 80 4a 00
        E 0 80 54 00
        E 0 80 55 00
        E 0 80 56 00
        E 0 80 60 00
        E 0 80 62 00
        E 0 90 1a 60
        E 0 90 62 60
        E 120 80 1a 00
        E 0 80 62 00
        E 0 90 1b 60
        E 0 90 55 60
        E 0 90 56 60
        E 0 90 62 60
        E 120 80 1b 00
        E 0 80 55 00
        E 0 80 56 00
        E 0 80 62 00
        E 0 90 1a 60
        E 0 90 62 60
        E 120 80 1a 00
        E 0 80 62 00
        E 0 90 18 60
        E 0 90 1f 60
        E 0 90 3e 60
        E 0 90 48 60
        E 0 90 4a 60
        E 0 90 54 60
        E 0 90 56 60
        E 0 90 60 60
        E 0 90 61 60
        E 120 80 18 00
        E 0 80 1f 00
        E 0 80 3e 00
        E 0 80 48 00
        E 0 80 4a 00
        E 0 80 54 00
        E 0 80 56 00
        E 0 80 60 00
        E 0 80 61 00
        E 0 90 1e 60
        E 0 90 61 60
        E 120 80 1e 00
        E 0 80 61 00
        E 0 90 1f 60
        E 0 90 56 60
        E 0 90 61 60
        E 120 80 1f 00
        E 0 80 56 00
        E 0 80 61 00
        E 0 90 1e 60
        E 0 90 61 60
        E 120 80 1e 00
        E 0 80 61 00
        E 0 90 18 60
        E 0 90 1b 60
        E 0 90 3d 60
        E 0 90 3e 60
        E 0 90 49 60
        E 0 90 4a 60
        E 0 90 54 60
        E 0 90 55 60
        E 0 90 56 60
        E 0 90 60 60
        E 0 90 62 60
        E 120 80 18 00
        E 0 80 1b 00
        E 0 80 3d 00
        E 0 80 3e 00
        E 0 80 49 00
        E 0 80 4a 00
        E 0 80 54 00
        E 0 80 55 00
        E 0 80 56 00
        E 0 80 60 00
        E 0 80 62 00
        E 0 90 1e 60
        E 0 90 61 60
        E 120 80 1e 00
        E 0 80 61 00
        E 0 90 1f 60
        E 0 90 56 60
        E 0 90 61 60
        E 120 80 1f 00
        E 0 80 56 00
        E 0 80 61 00
        E 0 90 1e 60
        E 0 90 61 60
        E 120 80 1e 00
        E 0 80 61 00
        E 0 90 18 60
        E 0 90 1b 60
        E 0 90 3d 60
        E 0 90 3e 60
        E 0 90 49 60
        E 0 90 4a 60
        E 0 90 54 60
        E 0 90 55 60
        E 0 90 56 60
        E 0 90 60 60
        E 0 90 62 60
        E 0 90 78 60
        E 0 90 79 60
        E 0 90 7a 60
        E 0 90 7b 60
        E 0 90 7c 60
        E 120 80 18 00
        E 0 80 1b 00
        E 0 80 3d 00
        E 0 80 3e 00
        E 0 80 49 00
        E 0 80 4a 00
        E 0 80 54 00
        E 0 80 55 00
        E 0 80 56 00
        E 0 80 60 00
        E 0 80 62 00
        E 0 90 1a 60
        E 0 90 62 60
        E 120 80 1a 00
        E 0 80 62 00
        E 0 90 1b 60
        E 0 90 55 60
        E 0 90 56 60
        E 0 90 62 60
        E 120 80 1b 00
        E 0 80 55 00
        E 0 80 56 00
        E 0 80 62 00
        E 0 90 1a 60
        E 0 90 62 60
        E 120 80 1a 00
        E 0 80 62 00
        E 0 90 18 60
        E 0 90 31 60
        E 0 90 3f 60
        E 0 90 4b 60
        E 0 90 54 60
        E 0 90 57 60
        E 0 90 60 60
        E 0 90 63 60
        E 120 80 18 00
        E 0 80 31 00
        E 0 80 3f 00
        E 0 80 4b 00
        E 0 80 54 00
        E 0 80 57 00
        E 0 80 60 00
        E 0 80 63 00
        E 0 90 30 60
        E 0 90 63 60
        E 120 80 6f 00
        E 0 80 30 00
        E 0 80 63 00
        E 0 90 33 60
        E 0 90 58 60
        E 0 90 64 60
        E 120 80 33 00
        E 0 80 58 00
        E 0 80 64 00
        E 0 90 32 60
        E 0 90 64 60
        E 120 80 78 00
        E 0 80 79 00
        E 0 80 7a 00
        E 0 80 7b 00
        E 0 80 7c 00
        E 0 80 32 00
        E 0 80 64 00
        E 0 90 18 60
        E 0 90 26 60
        E 0 90 3f 60
        E 0 90 48 60
        E 0 90 4b 60
        E 0 90 54 60
        E 0 90 57 60
        E 0 90 60 60
        E 0 90 63 60
        E 120 80 18 00
        E 0 80 26 00
        E 0 80 3f 00
        E 0 80 48 00
        E 0 80 4b 00
        E 0 80 54 00
        E 0 80 57 00
        E 0 80 60 00
        E 0 80 63 00
        E 0 90 1e 60
        E 0 90 61 60
        E 120 80 1e 00
        E 0 80 61 00
        E 0 90 1f 60
        E 0 90 56 60
        E 0 90 61 60
        E 120 80 1f 00
        E 0 80 56 00
        E 0 80 61 00
        E 0 90 1e 60
        E 0 90 61 60
        E 120 80 1e 00
        E 0 80 61 00
        E 0 90 18 60
        E 0 90 1b 60
        E 0 90 3d 60
        E 0 90 3e 60
        E 0 90 49 60
        E 0 90 4a 60
        E 0 90 54 60
        E 0 90 55 60
        E 0 90 56 60
        E 0 90 60 60
        E 0 90 62 60
        E 120 80 18 00
        E 0 80 1b 00
        E 0 80 3d 00
        E 0 80 3e 00
        E 0 80 49 00
        E 0 80 4a 00
        E 0 80 54 00
        E 0 80 55 00
        E 0 80 56 00
        E 0 80 60 00
        E 0 80 62 00
        E 0 90 1e 60
        E 0 90 61 60
        E 120 80 1e 00
        E 0 80 61 00
        E 0 90 1f 60
        E 0 90 56 60
        E 0 90 61 60
        E 120 80 1f 00
        E 0 80 56 00
        E 0 80 61 00
        E 0 90 1e 60
        E 0 90 61 60
        E 120 80 1e 00
        E 0 80 61 00
        E 0 90 18 60
        E 0 90 1f 60
        E 0 90 3e 60
        E 0 90 48 60
        E 0 90 4a 60
        E 0 90 54 60
        E 0 90 56 60
        E 0 90 60 60
        E 0 90 61 60
        E 120 80 18 00
        E 0 80 1f 00
        E 0 80 3e 00
        E 0 80 48 00
        E 0 80 4a 00
        E 0 80 54 00
        E 0 80 56 00
        E 0 80 60 00
        E 0 80 61 00
        E 0 90 1e 60
        E 0 90 61 60
        E 120 80 1e 00
        E 0 80 61 00
        E 0 90 1b 60
        E 0 90 55 60
        E 0 90 56 60
        E 0 90 62 60
        E 120 80 1b 00
        E 0 80 55 00
        E 0 80 56 00
        E 0 80 62 00
        E 0 90 1a 60
        E 0 90 62 60
        E 120 80 1a 00
        E 0 80 62 00
        E 0 90 18 60
        E 0 90 1b 60
        E 0 90 3d 60
        E 0 90 3e 60
        E 0 90 49 60
        E 0 90 4a 60
        E 0 90 54 60
        E 0 90 55 60
        E 0 90 56 60
        E 0 90 60 60
        E 0 90 62 60
        E 120 80 18 00
        E 0 80 1b 00
        E 0 80 3d 00
        E 0 80 3e 00
        E 0 80 49 00
        E 0 80 4a 00
        E 0 80 54 00
        E 0 80 55 00
        E 0 80 56 00
        E 0 80 60 00
        E 0 80 62 00
        E 0 90 1a 60
        E 0 90 62 60
        E 120 80 1a 00
        E 0 80 62 00
        E 0 90 1b 60
        E 0 90 55 60
        E 0 90 56 60
        E 0 90 62 60
        E 120 80 1b 00
        E 0 80 55 00
        E 0 80 56 00
        E 0 80 62 00
        E 0 90 1a 60
        E 0 90 62 60
        E 120 80 1a 00
        E 0 80 62 00
        E 0 90 18 60
        E 0 90 1f 60
        E 0 90 3e 60
        E 0 90 48 60
        E 0 90 4a 60
        E 0 90 54 60
        E 0 90 56 60
        E 0 90 60 60
        E 0 90 61 60
        E 120 80 18 00
        E 0 80 1f 00
        E 0 80 3e 00
        E 0 80 48 00
        E 0 80 4a 00
        E 0 80 54 00
        E 0 80 56 00
        E 0 80 60 00
        E 0 80 61 00
        E 0 90 1e 60
        E 0 90 61 60
        E 120 80 1e 00
        E 0 80 61 00
        E 0 90 1f 60
        E 0 90 56 60
        E 0 90 61 60
        E 120 80 1f 00
        E 0 80 56 00
        E 0 80 61 00
        E 0 90 1e 60
        E 0 90 61 60
        E 120 80 1e 00
        E 0 80 61 00
        E 0 90 18 60
        E 0 90 1b 60
        E 0 90 3d 60
        E 0 90 3e 60
        E 0 90 49 60
        E 0 90 4a 60
        E 0 90 54 60
        E 0 90 55 60
        E 0 90 56 60
        E 0 90 60 60
        E 0 90 62 60
        E 120 80 18 00
        E 0 80 1b 00
        E 0 80 3d 00
        E 0 80 3e 00
        E 0 80 49 00
        E 0 80 4a 00
        E 0 80 54 00
        E 0 80 55 00
        E 0 80 56 00
        E 0 80 60 00
        E 0 80 62 00
        E 0 90 1e 60
        E 0 90 61 60
        E 120 80 1e 00
        E 0 80 61 00
        E 0 90 1f 60
        E 0 90 56 60
        E 0 90 61 60
        E 120 80 1f 00
        E 0 80 56 00
        E 0 80 61 00
        E 0 90 1e 60
        E 0 90 61 60
        E 120 80 1e 00
        E 0 80 61 00
        E 0 90 18 60
        E 0 90 1f 60
        E 0 90 3e 60
        E 0 90 48 60
        E 0 90 4a 60
        E 0 90 54 60
        E 0 90 56 60
        E 0 90 60 60
        E 0 90 61 60
        E 120 80 18 00
        E 0 80 1f 00
        E 0 80 3e 00
        E 0 80 48 00
        E 0 80 4a 00
        E 0 80 54 00
        E 0 80 56 00
        E 0 80 60 00
        E 0 80 61 00
        E 0 90 1e 60
        E 0 90 61 60
        E 120 80 1e 00
        E 0 80 61 00
        E 0 90 1b 60
        E 0 90 55 60
        E 0 90 56 60
        E 0 90 62 60
        E 120 80 1b 00
        E 0 80 55 00
        E 0 80 56 00
        E 0 80 62 00
        E 0 90 1a 60
        E 0 90 62 60
        E 120 80 1a 00
        E 0 80 62 00
        E 0 90 18 60
        E 0 90 31 60
        E 0 90 3f 60
        E 0 90 4b 60
        E 0 90 54 60
        E 0 90 57 60
        E 0 90 60 60
        E 0 90 63 60
        E 0 90 6f 60
        E 120 80 18 00
        E 0 80 31 00
        E 0 80 3f 00
        E 0 80 4b 00
        E 0 80 54 00
        E 0 80 57 00
        E 0 80 60 00
        E 0 80 63 00
        E 0 90 30 60
        E 0 90 63 60
        E 120 80 30 00
        E 0 80 63 00
        E 0 90 33 60
        E 0 90 58 60
        E 0 90 64 60
        E 120 80 33 00
        E 0 80 58 00
        E 0 80 64 00
        E 0 90 32 60
        E 0 90 64 60
        E 120 80 32 00
        E 0 80 64 00
        E 0 90 18 60
        E 0 90 1f 60
        E 0 90 3e 60
        E 0 90 48 60
        E 0 90 4a 60
        E 0 90 54 60
        E 0 90 56 60
        E 0 90 60 60
        E 0 90 61 60
        E 120 80 18 00
        E 0 80 1f 00
        E 0 80 3e 00
        E 0 80 48 00
        E 0 80 4a 00
        E 0 80 54 00
        E 0 80 56 00
        E 0 80 60 00
        E 0 80 61 00
        E 0 90 1e 60
        E 0 90 61 60
        E 120 80 1e 00
        E 0 80 61 00
        E 0 90 1f 60
        E 0 90 56 60
        E 0 90 61 60
        E 120 80 1f 00
        E 0 80 56 00
        E 0 80 61 00
        E 0 90 1e 60
        E 0 90 61 60
        E 120 80 1e 00
        E 0 80 61 00
        E 0 90 18 60
        E 0 90 1b 60
        E 0 90 3d 60
        E 0 90 3e 60
        E 0 90 49 60
        E 0 90 4a 60
        E 0 90 54 60
        E 0 90 55 60
        E 0 90 56 60
        E 0 90 60 60
        E 0 90 62 60
        E 120 80 18 00
        E 0 80 1b 00
        E 0 80 3d 00
        E 0 80 3e 00
        E 0 80 49 00
        E 0 80 4a 00
        E 0 80 54 00
        E 0 80 55 00
        E 0 80 56 00
        E 0 80 60 00
        E 0 80 62 00
        E 0 90 1e 60
        E 0 90 61 60
        E 120 80 1e 00
        E 0 80 61 00
        E 0 90 1f 60
        E 0 90 56 60
        E 0 90 61 60
        E 120 80 1f 00
        E 0 80 56 00
        E 0 80 61 00
        E 0 90 1e 60
        E 0 90 61 60
        E 120 80 1e 00
        E 0 80 61 00
        E 0 90 18 60
        E 0 90 1f 60
        E 0 90 3e 60
        E 0 90 48 60
        E 0 90 4a 60
        E 0 90 54 60
        E 0 90 56 60
        E 0 90 60 60
        E 0 90 61 60
        E 120 80 18 00
        E 0 80 1f 00
        E 0 80 3e 00
        E 0 80 48 00
        E 0 80 4a 00
        E 0 80 54 00
        E 0 80 56 00
        E 0 80 60 00
        E 0 80 61 00
        E 0 90 1e 60
        E 0 90 61 60
        E 120 80 1e 00
        E 0 80 61 00
        E 0 90 1b 60
        E 0 90 55 60
        E 0 90 56 60
        E 0 90 62 60
        E 120 80 1b 00
        E 0 80 55 00
        E 0 80 56 00
        E 0 80 62 00
        E 0 90 1a 60
        E 0 90 62 60
        E 120 80 1a 00
        E 0 80 62 00
        E 0 90 18 60
        E 0 90 1b 60
        E 0 90 3d 60
        E 0 90 3e 60
        E 0 90 49 60
        E 0 90 4a 60
        E 0 90 54 60
        E 0 90 55 60
        E 0 90 56 60
        E 0 90 60 60
        E 0 90 62 60
        E 120 80 18 00
        E 0 80 1b 00
        E 0 80 3d 00
        E 0 80 3e 00
        E 0 80 49 00
        E 0 80 4a 00
        E 0 80 54 00
        E 0 80 55 00
        E 0 80 56 00
        E 0 80 60 00
        E 0 80 62 00
        E 0 90 1a 60
        E 0 90 62 60
        E 120 80 1a 00
        E 0 80 62 00
        E 0 90 1b 60
        E 0 90 55 60
        E 0 90 56 60
        E 0 90 62 60
        E 120 80 1b 00
        E 0 80 55 00
        E 0 80 56 00
        E 0 80 62 00
        E 0 90 1a 60
        E 0 90 62 60
        E 120 80 1a 00
        E 0 80 62 00
        E 0 90 18 60
        E 0 90 1f 60
        E 0 90 3e 60
        E 0 90 48 60
        E 0 90 4a 60
        E 0 90 54 60
        E 0 90 56 60
        E 0 90 60 60
        E 0 90 61 60
        E 120 80 18 00
        E 0 80 1f 00
        E 0 80 3e 00
        E 0 80 48 00
        E 0 80 4a 00
        E 0 80 54 00
        E 0 80 56 00
        E 0 80 60 00
        E 0 80 61 00
        E 0 90 1e 60
        E 0 90 61 60
        E 120 80 1e 00
        E 0 80 61 00
        E 0 90 1f 60
        E 0 90 56 60
        E 0 90 61 60
        E 120 80 1f 00
        E 0 80 56 00
        E 0 80 61 00
        E 0 90 1e 60
        E 0 90 61 60
        E 120 80 1e 00
        E 0 80 61 00
        E 0 90 18 60
        E 0 90 1b 60
        E 0 90 3d 60
        E 0 90 3e 60
        E 0 90 49 60
        E 0 90 4a 60
        E 0 90 54 60
        E 0 90 55 60
        E 0 90 56 60
        E 0 90 60 60
        E 0 90 62 60
        E 120 80 18 00
        E 0 80 1b 00
        E 0 80 3d 00
        E 0 80 3e 00
        E 0 80 49 00
        E 0 80 4a 00
        E 0 80 54 00
        E 0 80 55 00
        E 0 80 56 00
        E 0 80 60 00
        E 0 80 62 00
        E 0 90 1e 60
        E 0 90 61 60
        E 120 80 1e 00
        E 0 80 61 00
        E 0 90 1f 60
        E 0 90 56 60
        E 0 90 61 60
        E 120 80 1f 00
        E 0 80 56 00
        E 0 80 61 00
        E 0 90 1e 60
        E 0 90 61 60
        E 120 80 1e 00
        E 0 80 61 00
        E 0 90 18 60
        E 0 90 1f 60
        E 0 90 3e 60
        E 0 90 48 60
        E 0 90 4a 60
        E 0 90 54 60
        E 0 90 56 60
        E 0 90 60 60
        E 0 90 61 60
        E 0 90 78 60
        E 0 90 79 60
        E 0 90 7a 60
        E 0 90 7b 60
        E 0 90 7c 60
        E 120 80 18 00
        E 0 80 1f 00
        E 0 80 3e 00
        E 0 80 48 00
        E 0 80 4a 00
        E 0 80 54 00
        E 0 80 56 00
        E 0 80 60 00
        E 0 80 61 00
        E 0 90 1e 60
        E 0 90 61 60
        E 120 80 1e 00
        E 0 80 61 00
        E 0 90 1b 60
        E 0 90 55 60
        E 0 90 56 60
        E 0 90 62 60
        E 120 80 1b 00
        E 0 80 55 00
        E 0 80 56 00
        E 0 80 62 00
        E 0 90 1a 60
        E 0 90 62 60
        E 120 80 1a 00
        E 0 80 62 00
        E 0 90 18 60
        E 0 90 31 60
        E 0 90 3f 60
        E 0 90 4b 60
        E 0 90 54 60
        E 0 90 57 60
        E 0 90 60 60
        E 0 90 63 60
        E 120 80 18 00
        E 0 80 31 00
        E 0 80 3f 00
        E 0 80 4b 00
        E 0 80 54 00
        E 0 80 57 00
        E 0 80 60 00
        E 0 80 63 00
        E 0 90 30 60
        E 0 90 63 60
        E 120 80 30 00
        E 0 80 63 00
        E 0 90 33 60
        E 0 90 58 60
        E 0 90 64 60
        E 120 80 33 00
        E 0 80 58 00
        E 0 80 64 00
        E 0 90 32 60
        E 0 90 64 60
        E 120 80 78 00
        E 0 80 79 00
        E 0 80 7a 00
        E 0 80 7b 00
        E 0 80 7c 00
        E 0 80 32 00
        E 0 80 64 00
        E 0 90 18 60
        E 0 90 1f 60
        E 0 90 3e 60
        E 0 90 48 60
        E 0 90 4a 60
        E 0 90 54 60
        E 0 90 56 60
        E 0 90 60 60
        E 0 90 61 60
        E 0 90 74 60
        E 120 80 18 00
        E 0 80 1f 00
        E 0 80 3e 00
        E 0 80 48 00
        E 0 80 4a 00
        E 0 80 54 00
        E 0 80 56 00
        E 0 80 60 00
        E 0 80 61 00
        E 0 90 1e 60
        E 0 90 61 60
        E 120 80 1e 00
        E 0 80 61 00
        E 0 90 1f 60
        E 0 90 56 60
        E 0 90 61 60
        E 120 80 1f 00
        E 0 80 56 00
        E 0 80 61 00
        E 0 90 1e 60
        E 0 90 61 60
        E 120 80 1e 00
        E 0 80 61 00
        E 0 90 18 60
        E 0 90 1b 60
        E 0 90 3d 60
        E 0 90 3e 60
        E 0 90 49 60
        E 0 90 4a 60
        E 0 90 54 60
        E 0 90 55 60
        E 0 90 56 60
        E 0 90 60 60
        E 0 90 62 60
        E 120 80 18 00
        E 0 80 1b 00
        E 0 80 3d 00
        E 0 80 3e 00
        E 0 80 49 00
        E 0 80 4a 00
        E 0 80 54 00
        E 0 80 55 00
        E 0 80 56 00
        E 0 80 60 00
        E 0 80 62 00
        E 0 90 1e 60
        E 0 90 61 60
        E 120 80 1e 00
        E 0 80 61 00
        E 0 90 1f 60
        E 0 90 56 60
        E 0 90 61 60
        E 120 80 1f 00
        E 0 80 56 00
        E 0 80 61 00
        E 0 90 1e 60
        E 0 90 61 60
        E 120 80 1e 00
        E 0 80 61 00
        E 0 90 18 60
        E 0 90 1f 60
        E 0 90 3e 60
        E 0 90 48 60
        E 0 90 4a 60
        E 0 90 54 60
        E 0 90 56 60
        E 0 90 60 60
        E 0 90 61 60
        E 120 80 18 00
        E 0 80 1f 00
        E 0 80 3e 00
        E 0 80 48 00
        E 0 80 4a 00
        E 0 80 54 00
        E 0 80 56 00
        E 0 80 60 00
        E 0 80 61 00
        E 0 90 1e 60
        E 0 90 61 60
        E 120 80 1e 00
        E 0 80 61 00
        E 0 90 1b 60
        E 0 90 55 60
        E 0 90 56 60
        E 0 90 62 60
        E 120 80 1b 00
        E 0 80 55 00
        E 0 80 56 00
        E 0 80 62 00
        E 0 90 1a 60
        E 0 90 62 60
        E 120 80 1a 00
        E 0 80 62 00
        E 0 90 18 60
        E 0 90 1b 60
        E 0 90 3d 60
        E 0 90 3e 60
        E 0 90 49 60
        E 0 90 4a 60
        E 0 90 54 60
        E 0 90 55 60
        E 0 90 56 60
        E 0 90 60 60
        E 0 90 62 60
        E 120 80 18 00
        E 0 80 1b 00
        E 0 80 3d 00
        E 0 80 3e 00
        E 0 80 49 00
        E 0 80 4a 00
        E 0 80 54 00
        E 0 80 55 00
        E 0 80 56 00
        E 0 80 60 00
        E 0 80 62 00
        E 0 90 1a 60
        E 0 90 62 60
        E 120 80 1a 00
        E 0 80 62 00
        E 0 90 1b 60
        E 0 90 55 60
        E 0 90 56 60
        E 0 90 62 60
        E 120 80 1b 00
        E 0 80 55 00
        E 0 80 56 00
        E 0 80 62 00
        E 0 90 1a 60
        E 0 90 62 60
        E 120 80 1a 00
        E 0 80 62 00
        E 0 90 18 60
        E 0 90 1f 60
        E 0 90 3e 60
        E 0 90 48 60
        E 0 90 4a 60
        E 0 90 54 60
        E 0 90 56 60
        E 0 90 60 60
        E 0 90 61 60
        E 120 80 18 00
        E 0 80 1f 00
        E 0 80 3e 00
        E 0 80 48 00
        E 0 80 4a 00
        E 0 80 54 00
        E 0 80 56 00
        E 0 80 60 00
        E 0 80 61 00
        E 0 90 1e 60
        E 0 90 61 60
        E 120 80 1e 00
        E 0 80 61 00
        E 0 90 1f 60
        E 0 90 56 60
        E 0 90 61 60
        E 120 80 1f 00
        E 0 80 56 00
        E 0 80 61 00
        E 0 90 1e 60
        E 0 90 61 60
        E 120 80 1e 00
        E 0 80 61 00
        E 0 90 18 60
        E 0 90 1b 60
        E 0 90 3d 60
        E 0 90 3e 60
        E 0 90 49 60
        E 0 90 4a 60
        E 0 90 54 60
        E 0 90 55 60
        E 0 90 56 60
        E 0 90 60 60
        E 0 90 62 60
        E 120 80 18 00
        E 0 80 1b 00
        E 0 80 3d 00
        E 0 80 3e 00
        E 0 80 49 00
        E 0 80 4a 00
        E 0 80 54 00
        E 0 80 55 00
        E 0 80 56 00
        E 0 80 60 00
        E 0 80 62 00
        E 0 90 1e 60
        E 0 90 61 60
        E 120 80 1e 00
        E 0 80 61 00
        E 0 90 1f 60
        E 0 90 56 60
        E 0 90 61 60
        E 120 80 1f 00
        E 0 80 56 00
        E 0 80 61 00
        E 0 90 1e 60
        E 0 90 61 60
        E 120 80 1e 00
        E 0 80 61 00
        E 0 90 18 60
        E 0 90 1f 60
        E 0 90 3e 60
        E 0 90 48 60
        E 0 90 4a 60
        E 0 90 54 60
        E 0 90 56 60
        E 0 90 60 60
        E 0 90 61 60
        E 120 80 18 00
        E 0 80 1f 00
        E 0 80 3e 00
        E 0 80 48 00
        E 0 80 4a 00
        E 0 80 54 00
        E 0 80 56 00
        E 0 80 60 00
        E 0 80 61 00
        E 0 90 1e 60
        E 0 90 61 60
        E 120 80 1e 00
        E 0 80 61 00
        E 0 90 1b 60
        E 0 90 55 60
        E 0 90 56 60
        E 0 90 62 60
        E 120 80 1b 00
        E 0 80 55 00
        E 0 80 56 00
        E 0 80 62 00
        E 0 90 1a 60
        E 0 90 62 60
        E 120 80 1a 00
        E 0 80 62 00
        E 0 90 18 60
        E 0 90 31 60
        E 0 90 3f 60
        E 0 90 4b 60
        E 0 90 54 60
        E 0 90 57 60
        E 0 90 60 60
        E 0 90 63 60
        E 120 80 18 00
        E 0 80 31 00
        E 0 80 3f 00
        E 0 80 4b 00
        E 0 80 54 00
        E 0 80 57 00
        E 0 80 60 00
        E 0 80 63 00
        E 0 90 30 60
        E 0 90 63 60
        E 120 80 30 00
        E 0 80 63 00
        E 0 90 33 60
        E 0 90 58 60
        E 0 90 64 60
        E 120 80 33 00
        E 0 80 58 00
        E 0 80 64 00
        E 0 90 32 60
        E 0 90 64 60
        E 120 80 74 00
        E 0 80 32 00
        E 0 80 64 00
        E 0 90 18 60
        E 0 90 1f 60
        E 0 90 3e 60
        E 0 90 48 60
        E 0 90 4a 60
        E 0 90 54 60
        E 0 90 56 60
        E 0 90 60 60
        E 0 90 61 60
        E 120 80 18 00
        E 0 80 1f 00
        E 0 80 3e 00
        E 0 80 48 00
        E 0 80 4a 00
        E 0 80 54 00
        E 0 80 56 00
        E 0 80 60 00
        E 0 80 61 00
        E 0 90 1e 60
        E 0 90 61 60
        E 120 80 1e 00
        E 0 80 61 00
        E 0 90 1f 60
        E 0 90 56 60
        E 0 90 61 60
        E 120 80 1f 00
        E 0 80 56 00
        E 0 80 61 00
        E 0 90 1e 60
        E 0 90 61 60
        E 120 80 1e 00
        E 0 80 61 00
        E 0 90 18 60
        E 0 90 1b 60
        E 0 90 3d 60
        E 0 90 3e 60
        E 0 90 49 60
        E 0 90 4a 60
        E 0 90 54 60
        E 0 90 55 60
        E 0 90 56 60
        E 0 90 60 60
        E 0 90 62 60
        E 120 80 18 00
        E 0 80 1b 00
        E 0 80 3d 00
        E 0 80 3e 00
        E 0 80 49 00
        E 0 80 4a 00
        E 0 80 54 00
        E 0 80 55 00
        E 0 80 56 00
        E 0 80 60 00
        E 0 80 62 00
        E 0 90 1e 60
        E 0 90 61 60
        E 120 80 1e 00
        E 0 80 61 00
        E 0 90 1f 60
        E 0 90 56 60
        E 0 90 61 60
        E 120 80 1f 00
        E 0 80 56 00
        E 0 80 61 00
        E 0 90 1e 60
        E 0 90 61 60
        E 120 80 1e 00
        E 0 80 61 00
        E 0 90 18 60
        E 0 90 1f 60
        E 0 90 3e 60
        E 0 90 48 60
        E 0 90 4a 60
        E 0 90 54 60
        E 0 90 56 60
        E 0 90 60 60
        E 0 90 61 60
        E 120 80 18 00
        E 0 80 1f 00
        E 0 80 3e 00
        E 0 80 48 00
        E 0 80 4a 00
        E 0 80 54 00
        E 0 80 56 00
        E 0 80 60 00
        E 0 80 61 00
        E 0 90 1e 60
        E 0 90 61 60
        E 120 80 1e 00
        E 0 80 61 00
        E 0 90 1b 60
        E 0 90 55 60
        E 0 90 56 60
        E 0 90 62 60
        E 120 80 1b 00
        E 0 80 55 00
        E 0 80 56 00
        E 0 80 62 00
        E 0 90 1a 60
        E 0 90 62 60
        E 120 80 1a 00
        E 0 80 62 00
        E 0 90 18 60
        E 0 90 1b 60
        E 0 90 3d 60
        E 0 90 3e 60
        E 0 90 49 60
        E 0 90 4a 60
        E 0 90 54 60
        E 0 90 55 60
        E 0 90 56 60
        E 0 90 60 60
        E 0 90 62 60
        E 120 80 18 00
        E 0 80 1b 00
        E 0 80 3d 00
        E 0 80 3e 00
        E 0 80 49 00
        E 0 80 4a 00
        E 0 80 54 00
        E 0 80 55 00
        E 0 80 56 00
        E 0 80 60 00
        E 0 80 62 00
        E 0 90 1a 60
        E 0 90 62 60
        E 120 80 1a 00
        E 0 80 62 00
        E 0 90 1b 60
        E 0 90 55 60
        E 0 90 56 60
        E 0 90 62 60
        E 120 80 1b 00
        E 0 80 55 00
        E 0 80 56 00
        E 0 80 62 00
        E 0 90 1a 60
        E 0 90 62 60
        E 120 80 1a 00
        E 0 80 62 00
        E 0 90 18 60
        E 0 90 1f 60
        E 0 90 3e 60
        E 0 90 48 60
        E 0 90 4a 60
        E 0 90 54 60
        E 0 90 56 60
        E 0 90 60 60
        E 0 90 61 60
        E 120 80 18 00
        E 0 80 1f 00
        E 0 80 3e 00
        E 0 80 48 00
        E 0 80 4a 00
        E 0 80 54 00
        E 0 80 56 00
        E 0 80 60 00
        E 0 80 61 00
        E 0 90 1e 60
        E 0 90 61 60
        E 120 80 1e 00
        E 0 80 61 00
        E 0 90 1f 60
        E 0 90 56 60
        E 0 90 61 60
        E 120 80 1f 00
        E 0 80 56 00
        E 0 80 61 00
        E 0 90 1e 60
        E 0 90 61 60
        E 120 80 1e 00
        E 0 80 61 00
        E 0 90 18 60
        E 0 90 1b 60
        E 0 90 3d 60
        E 0 90 3e 60
        E 0 90 49 60
        E 0 90 4a 60
        E 0 90 54 60
        E 0 90 55 60
        E 0 90 56 60
        E 0 90 60 60
        E 0 90 62 60
        E 120 80 18 00
        E 0 80 1b 00
        E 0 80 3d 00
        E 0 80 3e 00
        E 0 80 49 00
        E 0 80 4a 00
        E 0 80 54 00
        E 0 80 55 00
        E 0 80 56 00
        E 0 80 60 00
        E 0 80 62 00
        E 0 90 1e 60
        E 0 90 61 60
        E 120 80 1e 00
        E 0 80 61 00
        E 0 90 1f 60
        E 0 90 56 60
        E 0 90 61 60
        E 120 80 1f 00
        E 0 80 56 00
        E 0 80 61 00
        E 0 90 1e 60
        E 0 90 61 60
        E 120 80 1e 00
        E 0 80 61 00
        E 0 90 18 60
        E 0 90 1b 60
        E 0 90 3d 60
        E 0 90 3e 60
        E 0 90 49 60
        E 0 90 4a 60
        E 0 90 54 60
        E 0 90 55 60
        E 0 90 56 60
        E 0 90 60 60
        E 0 90 62 60
        E 120 80 18 00
        E 0 80 1b 00
        E 0 80 3d 00
        E 0 80 3e 00
        E 0 80 49 00
        E 0 80 4a 00
        E 0 80 54 00
        E 0 80 55 00
        E 0 80 56 00
        E 0 80 60 00
        E 0 80 62 00
        E 0 90 1a 60
        E 0 90 62 60
        E 120 80 1a 00
        E 0 80 62 00
        E 0 90 1b 60
        E 0 90 55 60
        E 0 90 56 60
        E 0 90 62 60
        E 120 80 1b 00
        E 0 80 55 00
        E 0 80 56 00
        E 0 80 62 00
        E 0 90 1a 60
        E 0 90 62 60
        E 120 80 1a 00
        E 0 80 62 00
        E 0 90 18 60
        E 0 90 31 60
        E 0 90 3f 60
        E 0 90 4b 60
        E 0 90 54 60
        E 0 90 57 60
        E 0 90 60 60
        E 0 90 63 60
        E 120 80 18 00
        E 0 80 31 00
        E 0 80 3f 00
        E 0 80 4b 00
        E 0 80 54 00
        E 0 80 57 00
        E 0 80 60 00
        E 0 80 63 00
        E 0 90 30 60
        E 0 90 63 60
        E 120 80 6f 00
        E 0 80 30 00
        E 0 80 63 00
        E 0 90 33 60
        E 0 90 58 60
        E 0 90 64 60
        E 120 80 33 00
        E 0 80 58 00
        E 0 80 64 00
        E 0 90 32 60
        E 0 90 64 60
        E 120 80 32 00
        E 0 80 64 00
        E 0 90 18 60
        E 0 90 26 60
        E 0 90 3f 60
        E 0 90 48 60
        E 0 90 4b 60
        E 0 90 54 60
        E 0 90 57 60
        E 0 90 60 60
        E 0 90 63 60
        E 120 80 18 00
        E 0 80 26 00
        E 0 80 3f 00
        E 0 80 48 00
        E 0 80 4b 00
        E 0 80 54 00
        E 0 80 57 00
        E 0 80 60 00
        E 0 80 63 00
        <X 120 0
          /wFbaWRsZV0=
        >
        E 6480 90 78 60
        E 0 90 79 60
        E 0 90 7a 60
        E 0 90 7b 60
        E 0 90 7c 60
        E 960 80 78 00
        E 0 80 79 00
        E 0 80 7a 00
        E 0 80 7b 00
        E 0 80 7c 00
        E 6720 90 78 60
        E 0 90 79 60
        E 0 90 7a 60
        E 0 90 7b 60
        E 0 90 7c 60
        E 960 80 78 00
        E 0 80 79 00
        E 0 80 7a 00
        E 0 80 7b 00
        E 0 80 7c 00
        E 6720 90 78 60
        E 0 90 79 60
        E 0 90 7a 60
        E 0 90 7b 60
        E 0 90 7c 60
        E 960 80 78 00
        E 0 80 79 00
        E 0 80 7a 00
        E 0 80 7b 00
        E 0 80 7c 00
        E 6720 90 78 60
        E 0 90 79 60
        E 0 90 7a 60
        E 0 90 7b 60
        E 0 90 7c 60
        E 960 80 78 00
        E 0 80 79 00
        E 0 80 7a 00
        E 0 80 7b 00
        E 0 80 7c 00
        E 6720 90 78 60
        E 0 90 79 60
        E 0 90 7a 60
        E 0 90 7b 60
        E 0 90 7c 60
        E 960 80 78 00
        E 0 80 79 00
        E 0 80 7a 00
        E 0 80 7b 00
        E 0 80 7c 00
        E 6720 90 78 60
        E 0 90 79 60
        E 0 90 7a 60
        E 0 90 7b 60
        E 0 90 7c 60
        E 960 80 78 00
        E 0 80 79 00
        E 0 80 7a 00
        E 0 80 7b 00
        E 0 80 7c 00
        <X 5280 0
          /wFbcGxheV0=
        >
        <X 480 0
          /wFbbWl4IDMgZHJ1bXMwXQ==
        >
        E 0 90 18 60
        E 0 90 1b 60
        E 0 90 3e 60
        E 0 90 48 60
        E 0 90 4a 60
        E 0 90 54 60
        E 0 90 56 60
        E 0 90 60 60
        E 0 90 61 60
        E 0 90 6e 60
        E 0 90 6f 60
        E 0 90 74 60
        E 120 80 18 00
        E 0 80 1b 00
        E 0 80 3e 00
        E 0 80 48 00
        E 0 80 4a 00
        E 0 80 54 00
        E 0 80 56 00
        E 0 80 60 00
        E 0 80 61 00
        E 0 90 1a 60
        E 0 90 61 60
        E 120 80 1a 00
        E 0 80 61 00
        E 0 90 1b 60
        E 0 90 55 60
        E 0 90 61 60
        E 120 80 1b 00
        E 0 80 55 00
        E 0 80 61 00
        E 0 90 1a 60
        E 0 90 61 60
        E 120 80 1a 00
        E 0 80 61 00
        E 0 90 18 60
        E 0 90 2f 60
        E 0 90 3f 60
        E 0 90 4b 60
        E 0 90 54 60
        E 0 90 57 60
        E 0 90 60 60
        E 0 90 63 60
        E 120 80 18 00
        E 0 80 2f 00
        E 0 80 3f 00
        E 0 80 4b 00
        E 0 80 54 00
        E 0 80 57 00
        E 0 80 60 00
        E 0 80 63 00
        E 0 90 2e 60
        E 0 90 63 60
        E 120 80 2e 00
        E 0 80 63 00
        E 0 90 2f 60
        E 0 90 57 60
        E 0 90 63 60
        E 120 80 2f 00
        E 0 80 57 00
        E 0 80 63 00
        E 0 90 2e 60
        E 0 90 63 60
        E 120 80 2e 00
        E 0 80 63 00
        E 0 90 18 60
        E 0 90 1b 60
        E 0 90 3d 60
        E 0 90 49 60
        E 0 90 54 60
        E 0 90 55 60
        E 0 90 60 60
        E 0 90 61 60
        E 120 80 18 00
        E 0 80 1b 00
        E 0 80 3d 00
        E 0 80 49 00
        E 0 80 54 00
        E 0 80 55 00
        E 0 80 60 00
        E 0 80 61 00
        E 0 90 1a 60
        E 0 90 61 60
        E 120 80 1a 00
        E 0 80 61 00
        E 0 90 2f 60
        E 0 90 56 60
        E 0 90 62 60
        E 120 80 2f 00
        E 0 80 56 00
        E 0 80 62 00
        E 0 90 2e 60
        E 0 90 62 60
        E 120 80 2e 00
        E 0 80 62 00
        E 0 90 18 60
        E 0 90 31 60
        E 0 90 3f 60
        E 0 90 4b 60
        E 0 90 54 60
        E 0 90 57 60
        E 0 90 60 60
        E 0 90 63 60
        E 120 80 18 00
        E 0 80 31 00
        E 0 80 3f 00
        E 0 80 4b 00
        E 0 80 54 00
        E 0 80 57 00
        E 0 80 60 00
        E 0 80 63 00
        E 0 90 30 60
        E 0 90 63 60
        E 120 80 6e 00
        E 0 80 6f 00
        E 0 80 30 00
        E 0 80 63 00
        E 0 90 33 60
        E 0 90 58 60
        E 0 90 64 60
        E 120 80 33 00
        E 0 80 58 00
        E 0 80 64 00
        E 0 90 32 60
        E 0 90 64 60
        <X 120 0
          /wFbaW50ZW5zZV0=
        >
        <X 0 0
          /wFbbWl4IDMgZHJ1bXMwZF0=
        >
        E 0 80 32 00
        E 0 80 64 00
        E 0 90 18 60
        E 0 90 26 60
        E 0 90 3f 60
        E 0 90 48 60
        E 0 90 4b 60
        E 0 90 54 60
        E 0 90 57 60
        E 0 90 60 60
        E 0 90 63 60
        E 120 80 74 00
        E 0 80 18 00
        E 0 80 26 00
        E 0 80 3f 00
        E 0 80 48 00
        E 0 80 4b 00
        E 0 80 54 00
        E 0 80 57 00
        E 0 80 60 00
        E 0 80 63 00
        E 0 90 1e 60
        E 0 90 61 60
        E 120 80 1e 00
        E 0 80 61 00
        E 0 90 1f 60
        E 0 90 56 60
        E 0 90 61 60
        E 120 80 1f 00
        E 0 80 56 00
        E 0 80 61 00
        E 0 90 1e 60
        E 0 90 61 60
        E 120 80 1e 00
        E 0 80 61 00
        E 0 90 18 60
        E 0 90 1b 60
        E 0 90 3d 60
        E 0 90 3e 60
        E 0 90 49 60
        E 0 90 4a 60
        E 0 90 54 60
        E 0 90 55 60
        E 0 90 56 60
        E 0 90 60 60
        E 0 90 62 60
        E 120 80 18 00
        E 0 80 1b 00
        E 0 80 3d 00
        E 0 80 3e 00
        E 0 80 49 00
        E 0 80 4a 00
        E 0 80 54 00
        E 0 80 55 00
        E 0 80 56 00
        E 0 80 60 00
        E 0 80 62 00
        E 0 90 1e 60
        E 0 90 61 60
        E 120 80 1e 00
        E 0 80 61 00
        E 0 90 1f 60
        E 0 90 56 60
        E 0 90 61 60
        E 120 80 1f 00
        E 0 80 56 00
        E 0 80 61 00
        E 0 90 1e 60
        E 0 90 61 60
        E 120 80 1e 00
        E 0 80 61 00
        E 0 90 18 60
        E 0 90 1f 60
        E 0 90 3e 60
        E 0 90 48 60
        E 0 90 4a 60
        E 0 90 54 60
        E 0 90 56 60
        E 0 90 60 60
        E 0 90 61 60
        E 120 80 18 00
        E 0 80 1f 00
        E 0 80 3e 00
        E 0 80 48 00
        E 0 80 4a 00
        E 0 80 54 00
        E 0 80 56 00
        E 0 80 60 00
        E 0 80 61 00
        E 0 90 1e 60
        E 0 90 61 60
        E 120 80 1e 00
        E 0 80 61 00
        E 0 90 1b 60
        E 0 90 55 60
        E 0 90 56 60
        E 0 90 62 60
        E 120 80 1b 00
        E 0 80 55 00
        E 0 80 56 00
        E 0 80 62 00
        E 0 90 1a 60
        E 0 90 62 60
        E 120 80 1a 00
        E 0 80 62 00
        E 0 90 18 60
        E 0 90 1b 60
        E 0 90 3d 60
        E 0 90 3e 60
        E 0 90 49 60
        E 0 90 4a 60
        E 0 90 54 60
        E 0 90 55 60
        E 0 90 56 60
        E 0 90 60 60
        E 0 90 62 60
        E 120 80 18 00
        E 0 80 1b 00
        E 0 80 3d 00
        E 0 80 3e 00
        E 0 80 49 00
        E 0 80 4a 00
        E 0 80 54 00
        E 0 80 55 00
        E 0 80 56 00
        E 0 80 60 00
        E 0 80 62 00
        E 0 90 1a 60
        E 0 90 62 60
        E 120 80 1a 00
        E 0 80 62 00
        E 0 90 1b 60
        E 0 90 55 60
        E 0 90 56 60
        E 0 90 62 60
        E 120 80 1b 00
        E 0 80 55 00
        E 0 80 56 00
        E 0 80 62 00
        E 0 90 1a 60
        E 0 90 62 60
        E 120 80 1a 00
        E 0 80 62 00
        E 0 90 18 60
        E 0 90 1f 60
        E 0 90 3e 60
        E 0 90 48 60
        E 0 90 4a 60
        E 0 90 54 60
        E 0 90 56 60
        E 0 90 60 60
        E 0 90 61 60
        E 120 80 18 00
        E 0 80 1f 00
        E 0 80 3e 00
        E 0 80 48 00
        E 0 80 4a 00
        E 0 80 54 00
        E 0 80 56 00
        E 0 80 60 00
        E 0 80 61 00
        E 0 90 1e 60
        E 0 90 61 60
        E 120 80 1e 00
        E 0 80 61 00
        E 0 90 1f 60
        E 0 90 56 60
        E 0 90 61 60
        E 120 80 1f 00
        E 0 80 56 00
        E 0 80 61 00
        E 0 90 1e 60
        E 0 90 61 60
        E 120 80 1e 00
        E 0 80 61 00
        E 0 90 18 60
        E 0 90 1b 60
        E 0 90 3d 60
        E 0 90 3e 60
        E 0 90 49 60
        E 0 90 4a 60
        E 0 90 54 60
        E 0 90 55 60
        E 0 90 56 60
        E 0 90 60 60
        E 0 90 62 60
        E 120 80 18 00
        E 0 80 1b 00
        E 0 80 3d 00
        E 0 80 3e 00
        E 0 80 49 00
        E 0 80 4a 00
        E 0 80 54 00
        E 0 80 55 00
        E 0 80 56 00
        E 0 80 60 00
        E 0 80 62 00
        E 0 90 1e 60
        E 0 90 61 60
        E 120 80 1e 00
        E 0 80 61 00
        E 0 90 1f 60
        E 0 90 56 60
        E 0 90 61 60
        E 120 80 1f 00
        E 0 80 56 00
        E 0 80 61 00
        E 0 90 1e 60
        E 0 90 61 60
        E 120 80 1e 00
        E 0 80 61 00
        E 0 90 18 60
        E 0 90 1f 60
        E 0 90 3e 60
        E 0 90 48 60
        E 0 90 4a 60
        E 0 90 54 60
        E 0 90 56 60
        E 0 90 60 60
        E 0 90 61 60
        E 120 80 18 00
        E 0 80 1f 00
        E 0 80 3e 00
        E 0 80 48 00
        E 0 80 4a 00
        E 0 80 54 00
        E 0 80 56 00
        E 0 80 60 00
        E 0 80 61 00
        E 0 90 1e 60
        E 0 90 61 60
        E 120 80 1e 00
        E 0 80 61 00
        E 0 90 1b 60
        E 0 90 55 60
        E 0 90 56 60
        E 0 90 62 60
        E 120 80 1b 00
        E 0 80 55 00
        E 0 80 56 00
        E 0 80 62 00
        E 0 90 1a 60
        E 0 90 62 60
        E 120 80 1a 00
        E 0 80 62 00
        E 0 90 18 60
        E 0 90 31 60
        E 0 90 3f 60
        E 0 90 4b 60
        E 0 90 54 60
        E 0 90 57 60
        E 0 90 60 60
        E 0 90 63 60
        E 0 90 6f 60
        E 120 80 18 00
        E 0 80 31 00
        E 0 80 3f 00
        E 0 80 4b 00
        E 0 80 54 00
        E 0 80 57 00
        E 0 80 60 00
        E 0 80 63 00
        E 0 90 30 60
        E 0 90 63 60
        E 120 80 30 00
        E 0 80 63 00
        E 0 90 33 60
        E 0 90 58 60
        E 0 90 64 60
        E 120 80 33 00
        E 0 80 58 00
        E 0 80 64 00
        E 0 90 32 60
        E 0 90 64 60
        E 120 80 32 00
        E 0 80 64 00
        E 0 90 18 60
        E 0 90 1f 60
        E 0 90 3e 60
        E 0 90 48 60
        E 0 90 4a 60
        E 0 90 54 60
        E 0 90 56 60
        E 0 90 60 60
        E 0 90 61 60
        E 120 80 18 00
        E 0 80 1f 00
        E 0 80 3e 00
        E 0 80 48 00
        E 0 80 4a 00
        E 0 80 54 00
        E 0 80 56 00
        E 0 80 60 00
        E 0 80 61 00
        E 0 90 1e 60
        E 0 90 61 60
        E 120 80 1e 00
        E 0 80 61 00
        E 0 90 1f 60
        E 0 90 56 60
        E 0 90 61 60
        E 120 80 1f 00
        E 0 80 56 00
        E 0 80 61 00
        E 0 90 1e 60
        E 0 90 61 60
        E 120 80 1e 00
        E 0 80 61 00
        E 0 90 18 60
        E 0 90 1b 60
        E 0 90 3d 60
        E 0 90 3e 60
        E 0 90 49 60
        E 0 90 4a 60
        E 0 90 54 60
        E 0 90 55 60
        E 0 90 56 60
        E 0 90 60 60
        E 0 90 62 60
        E 120 80 18 00
        E 0 80 1b 00
        E 0 80 3d 00
        E 0 80 3e 00
        E 0 80 49 00
        E 0 80 4a 00
        E 0 80 54 00
        E 0 80 55 00
        E 0 80 56 00
        E 0 80 60 00
        E 0 80 62 00
        E 0 90 1e 60
        E 0 90 61 60
        E 120 80 1e 00
        E 0 80 61 00
        E 0 90 1f 60
        E 0 90 56 60
        E 0 90 61 60
        E 120 80 1f 00
        E 0 80 56 00
        E 0 80 61 00
        E 0 90 1e 60
        E 0 90 61 60
        E 120 80 1e 00
        E 0 80 61 00
        E 0 90 18 60
        E 0 90 1f 60
        E 0 90 3e 60
        E 0 90 48 60
        E 0 90 4a 60
        E 0 90 54 60
        E 0 90 56 60
        E 0 90 60 60
        E 0 90 61 60
        E 120 80 18 00
        E 0 80 1f 00
        E 0 80 3e 00
        E 0 80 48 00
        E 0 80 4a 00
        E 0 80 54 00
        E 0 80 56 00
        E 0 80 60 00
        E 0 80 61 00
        E 0 90 1e 60
        E 0 90 61 60
        E 120 80 1e 00
        E 0 80 61 00
        E 0 90 1b 60
        E 0 90 55 60
        E 0 90 56 60
        E 0 90 62 60
        E 120 80 1b 00
        E 0 80 55 00
        E 0 80 56 00
        E 0 80 62 00
        E 0 90 1a 60
        E 0 90 62 60
        E 120 80 1a 00
        E 0 80 62 00
        E 0 90 18 60
        E 0 90 1b 60
        E 0 90 3d 60
        E 0 90 3e 60
        E 0 90 49 60
        E 0 90 4a 60
        E 0 90 54 60
        E 0 90 55 60
        E 0 90 56 60
        E 0 90 60 60
        E 0 90 62 60
        E 120 80 18 00
        E 0 80 1b 00
        E 0 80 3d 00
        E 0 80 3e 00
        E 0 80 49 00
        E 0 80 4a 00
        E 0 80 54 00
        E 0 80 55 00
        E 0 80 56 00
        E 0 80 60 00
        E 0 80 62 00
        E 0 90 1a 60
        E 0 90 62 60
        E 120 80 1a 00
        E 0 80 62 00
        E 0 90 1b 60
        E 0 90 55 60
        E 0 90 56 60
        E 0 90 62 60
        E 120 80 1b 00
        E 0 80 55 00
        E 0 80 56 00
        E 0 80 62 00
        E 0 90 1a 60
        E 0 90 62 60
        E 120 80 1a 00
        E 0 80 62 00
        E 0 90 18 60
        E 0 90 1f 60
        E 0 90 3e 60
        E 0 90 48 60
        E 0 90 4a 60
        E 0 90 54 60
        E 0 90 56 60
        E 0 90 60 60
        E 0 90 61 60
        E 120 80 18 00
        E 0 80 1f 00
        E 0 80 3e 00
        E 0 80 48 00
        E 0 80 4a 00
        E 0 80 54 00
        E 0 80 56 00
        E 0 80 60 00
        E 0 80 61 00
        E 0 90 1e 60
        E 0 90 61 60
        E 120 80 1e 00
        E 0 80 61 00
        E 0 90 1f 60
        E 0 90 56 60
        E 0 90 61 60
        E 120 80 1f 00
        E 0 80 56 00
        E 0 80 61 00
        E 0 90 1e 60
        E 0 90 61 60
        E 120 80 1e 00
        E 0 80 61 00
        E 0 90 18 60
        E 0 90 1b 60
        E 0 90 3d 60
        E 0 90 3e 60
        E 0 90 49 60
        E 0 90 4a 60
        E 0 90 54 60
        E 0 90 55 60
        E 0 90 56 60
        E 0 90 60 60
        E 0 90 62 60
        E 120 80 18 00
        E 0 80 1b 00
        E 0 80 3d 00
        E 0 80 3e 00
        E 0 80 49 00
        E 0 80 4a 00
        E 0 80 54 00
        E 0 80 55 00
        E 0 80 56 00
        E 0 80 60 00
        E 0 80 62 00
        E 0 90 1e 60
        E 0 90 61 60
        E 120 80 1e 00
        E 0 80 61 00
        E 0 90 1f 60
        E 0 90 56 60
        E 0 90 61 60
        E 120 80 1f 00
        E 0 80 56 00
        E 0 80 61 00
        E 0 90 1e 60
        E 0 90 61 60
        E 120 80 1e 00
        E 0 80 61 00
        E 0 90 18 60
        E 0 90 1f 60
        E 0 90 3e 60
        E 0 90 48 60
        E 0 90 4a 60
        E 0 90 54 60
        E 0 90 56 60
        E 0 90 60 60
        E 0 90 61 60
        E 0 90 78 60
        E 0 90 79 60
        E 0 90 7a 60
        E 0 90 7b 60
        E 0 90 7c 60
        E 120 80 18 00
        E 0 80 1f 00
        E 0 80 3e 00
        E 0 80 48 00
        E 0 80 4a 00
        E 0 80 54 00
        E 0 80 56 00
        E 0 80 60 00
        E 0 80 61 00
        E 0 90 1e 60
        E 0 90 61 60
        E 120 80 1e 00
        E 0 80 61 00
        E 0 90 1b 60
        E 0 90 55 60
        E 0 90 56 60
        E 0 90 62 60
        E 120 80 1b 00
        E 0 80 55 00
        E 0 80 56 00
        E 0 80 62 00
        E 0 90 1a 60
        E 0 90 62 60
        E 120 80 1a 00
        E 0 80 62 00
        E 0 90 18 60
        E 0 90 31 60
        E 0 90 3f 60
        E 0 90 4b 60
        E 0 90 54 60
        E 0 90 57 60
        E 0 90 60 60
        E 0 90 63 60
        E 120 80 18 00
        E 0 80 31 00
        E 0 80 3f 00
        E 0 80 4b 00
        E 0 80 54 00
        E 0 80 57 00
        E 0 80 60 00
        E 0 80 63 00
        E 0 90 30 60
        E 0 90 63 60
        E 120 80 30 00
        E 0 80 63 00
        E 0 90 33 60
        E 0 90 58 60
        E 0 90 64 60
        E 120 80 33 00
        E 0 80 58 00
        E 0 80 64 00
        E 0 90 32 60
        E 0 90 64 60
        E 120 80 78 00
        E 0 80 79 00
        E 0 80 7a 00
        E 0 80 7b 00
        E 0 80 7c 00
        E 0 80 32 00
        E 0 80 64 00
        E 0 90 18 60
        E 0 90 1f 60
        E 0 90 3e 60
        E 0 90 48 60
        E 0 90 4a 60
        E 0 90 54 60
        E 0 90 56 60
        E 0 90 60 60
        E 0 90 61 60
        E 120 80 18 00
        E 0 80 1f 00
        E 0 80 3e 00
        E 0 80 48 00
        E 0 80 4a 00
        E 0 80 54 00
        E 0 80 56 00
        E 0 80 60 00
        E 0 80 61 00
        E 0 90 1e 60
        E 0 90 61 60
        E 120 80 1e 00
        E 0 80 61 00
        E 0 90 1f 60
        E 0 90 56 60
        E 0 90 61 60
        E 120 80 1f 00
        E 0 80 56 00
        E 0 80 61 00
        E 0 90 1e 60
        E 0 90 61 60
        E 120 80 1e 00
        E 0 80 61 00
        E 0 90 18 60
        E 0 90 1b 60
        E 0 90 3d 60
        E 0 90 3e 60
        E 0 90 49 60
        E 0 90 4a 60
        E 0 90 54 60
        E 0 90 55 60
        E 0 90 56 60
        E 0 90 60 60
        E 0 90 62 60
        E 120 80 18 00
        E 0 80 1b 00
        E 0 80 3d 00
        E 0 80 3e 00
        E 0 80 49 00
        E 0 80 4a 00
        E 0 80 54 00
        E 0 80 55 00
        E 0 80 56 00
        E 0 80 60 00
        E 0 80 62 00
        E 0 90 1e 60
        E 0 90 61 60
        E 120 80 1e 00
        E 0 80 61 00
        E 0 90 1f 60
        E 0 90 56 60
        E 0 90 61 60
        E 120 80 1f 00
        E 0 80 56 00
        E 0 80 61 00
        E 0 90 1e 60
        E 0 90 61 60
        E 120 80 1e 00
        E 0 80 61 00
        E 0 90 18 60
        E 0 90 1f 60
        E 0 90 3e 60
        E 0 90 48 60
        E 0 90 4a 60
        E 0 90 54 60
        E 0 90 56 60
        E 0 90 60 60
        E 0 90 61 60
        E 120 80 18 00
        E 0 80 1f 00
        E 0 80 3e 00
        E 0 80 48 00
        E 0 80 4a 00
        E 0 80 54 00
        E 0 80 56 00
        E 0 80 60 00
        E 0 80 61 00
        E 0 90 1e 60
        E 0 90 61 60
        E 120 80 1e 00
        E 0 80 61 00
        E 0 90 1b 60
        E 0 90 55 60
        E 0 90 56 60
        E 0 90 62 60
        E 120 80 1b 00
        E 0 80 55 00
        E 0 80 56 00
        E 0 80 62 00
        E 0 90 1a 60
        E 0 90 62 60
        E 120 80 1a 00
        E 0 80 62 00
        E 0 90 18 60
        E 0 90 1b 60
        E 0 90 3d 60
        E 0 90 3e 60
        E 0 90 49 60
        E 0 90 4a 60
        E 0 90 54 60
        E 0 90 55 60
        E 0 90 56 60
        E 0 90 60 60
        E 0 90 62 60
        E 120 80 18 00
        E 0 80 1b 00
        E 0 80 3d 00
        E 0 80 3e 00
        E 0 80 49 00
        E 0 80 4a 00
        E 0 80 54 00
        E 0 80 55 00
        E 0 80 56 00
        E 0 80 60 00
        E 0 80 62 00
        E 0 90 1a 60
        E 0 90 62 60
        E 120 80 1a 00
        E 0 80 62 00
        E 0 90 1b 60
        E 0 90 55 60
        E 0 90 56 60
        E 0 90 62 60
        E 120 80 1b 00
        E 0 80 55 00
        E 0 80 56 00
        E 0 80 62 00
        E 0 90 1a 60
        E 0 90 62 60
        E 120 80 1a 00
        E 0 80 62 00
        E 0 90 18 60
        E 0 90 1f 60
        E 0 90 3e 60
        E 0 90 48 60
        E 0 90 4a 60
        E 0 90 54 60
        E 0 90 56 60
        E 0 90 60 60
        E 0 90 61 60
        E 120 80 18 00
        E 0 80 1f 00
        E 0 80 3e 00
        E 0 80 48 00
        E 0 80 4a 00
        E 0 80 54 00
        E 0 80 56 00
        E 0 80 60 00
        E 0 80 61 00
        E 0 90 1e 60
        E 0 90 61 60
        E 120 80 1e 00
        E 0 80 61 00
        E 0 90 1f 60
        E 0 90 56 60
        E 0 90 61 60
        E 120 80 1f 00
        E 0 80 56 00
        E 0 80 61 00
        E 0 90 1e 60
        E 0 90 61 60
        E 120 80 1e 00
        E 0 80 61 00
        E 0 90 18 60
        E 0 90 1b 60
        E 0 90 3d 60
        E 0 90 3e 60
        E 0 90 49 60
        E 0 90 4a 60
        E 0 90 54 60
        E 0 90 55 60
        E 0 90 56 60
        E 0 90 60 60
        E 0 90 62 60
        E 120 80 18 00
        E 0 80 1b 00
        E 0 80 3d 00
        E 0 80 3e 00
        E 0 80 49 00
        E 0 80 4a 00
        E 0 80 54 00
        E 0 80 55 00
        E 0 80 56 00
        E 0 80 60 00
        E 0 80 62 00
        E 0 90 1e 60
        E 0 90 61 60
        E 120 80 1e 00
        E 0 80 61 00
        E 0 90 1f 60
        E 0 90 56 60
        E 0 90 61 60
        E 120 80 1f 00
        E 0 80 56 00
        E 0 80 61 00
        E 0 90 1e 60
        E 0 90 61 60
        E 120 80 1e 00
        E 0 80 61 00
        E 0 90 18 60
        E 0 90 1f 60
        E 0 90 3e 60
        E 0 90 48 60
        E 0 90 4a 60
        E 0 90 54 60
        E 0 90 56 60
        E 0 90 60 60
        E 0 90 61 60
        E 120 80 18 00
        E 0 80 1f 00
        E 0 80 3e 00
        E 0 80 48 00
        E 0 80 4a 00
        E 0 80 54 00
        E 0 80 56 00
        E 0 80 60 00
        E 0 80 61 00
        E 0 90 1e 60
        E 0 90 61 60
        E 120 80 1e 00
        E 0 80 61 00
        E 0 90 1b 60
        E 0 90 55 60
        E 0 90 56 60
        E 0 90 62 60
        E 120 80 1b 00
        E 0 80 55 00
        E 0 80 56 00
        E 0 80 62 00
        E 0 90 1a 60
        E 0 90 62 60
        E 120 80 1a 00
        E 0 80 62 00
        E 0 90 18 60
        E 0 90 31 60
        E 0 90 3f 60
        E 0 90 4b 60
        E 0 90 54 60
        E 0 90 57 60
        E 0 90 60 60
        E 0 90 63 60
        E 120 80 18 00
        E 0 80 31 00
        E 0 80 3f 00
        E 0 80 4b 00
        E 0 80 54 00
        E 0 80 57 00
        E 0 80 60 00
        E 0 80 63 00
        E 0 90 30 60
        E 0 90 63 60
        E 120 80 30 00
        E 0 80 63 00
        E 0 90 33 60
        E 0 90 58 60
        E 0 90 64 60
        E 120 80 33 00
        E 0 80 58 00
        E 0 80 64 00
        E 0 90 32 60
        E 0 90 64 60
        E 120 80 32 00
        E 0 80 64 00
        E 0 90 18 60
        E 0 90 1f 60
        E 0 90 3e 60
        E 0 90 48 60
        E 0 90 4a 60
        E 0 90 54 60
        E 0 90 56 60
        E 0 90 60 60
        E 0 90 61 60
        E 120 80 18 00
        E 0 80 1f 00
        E 0 80 3e 00
        E 0 80 48 00
        E 0 80 4a 00
        E 0 80 54 00
        E 0 80 56 00
        E 0 80 60 00
        E 0 80 61 00
        E 0 90 1e 60
        E 0 90 61 60
        E 120 80 1e 00
        E 0 80 61 00
        E 0 90 1f 60
        E 0 90 56 60
        E 0 90 61 60
        E 120 80 1f 00
        E 0 80 56 00
        E 0 80 61 00
        E 0 90 1e 60
        E 0 90 61 60
        E 120 80 1e 00
        E 0 80 61 00
        E 0 90 18 60
        E 0 90 1b 60
        E 0 90 3d 60
        E 0 90 3e 60
        E 0 90 49 60
        E 0 90 4a 60
        E 0 90 54 60
        E 0 90 55 60
        E 0 90 56 60
        E 0 90 60 60
        E 0 90 62 60
        E 120 80 18 00
        E 0 80 1b 00
        E 0 80 3d 00
        E 0 80 3e 00
        E 0 80 49 00
        E 0 80 4a 00
        E 0 80 54 00
        E 0 80 55 00
        E 0 80 56 00
        E 0 80 60 00
        E 0 80 62 00
        E 0 90 1e 60
        E 0 90 61 60
        E 120 80 1e 00
        E 0 80 61 00
        E 0 90 1f 60
        E 0 90 56 60
        E 0 90 61 60
        E 120 80 1f 00
        E 0 80 56 00
        E 0 80 61 00
        E 0 90 1e 60
        E 0 90 61 60
        E 120 80 1e 00
        E 0 80 61 00
        E 0 90 18 60
        E 0 90 1f 60
        E 0 90 3e 60
        E 0 90 48 60
        E 0 90 4a 60
        E 0 90 54 60
        E 0 90 56 60
        E 0 90 60 60
        E 0 90 61 60
        E 120 80 18 00
        E 0 80 1f 00
        E 0 80 3e 00
        E 0 80 48 00
        E 0 80 4a 00
        E 0 80 54 00
        E 0 80 56 00
        E 0 80 60 00
        E 0 80 61 00
        E 0 90 1e 60
        E 0 90 61 60
        E 120 80 1e 00
        E 0 80 61 00
        E 0 90 1b 60
        E 0 90 55 60
        E 0 90 56 60
        E 0 90 62 60
        E 120 80 1b 00
        E 0 80 55 00
        E 0 80 56 00
        E 0 80 62 00
        E 0 90 1a 60
        E 0 90 62 60
        E 120 80 1a 00
        E 0 80 62 00
        E 0 90 18 60
        E 0 90 1b 60
        E 0 90 3d 60
        E 0 90 3e 60
        E 0 90 49 60
        E 0 90 4a 60
        E 0 90 54 60
        E 0 90 55 60
        E 0 90 56 60
        E 0 90 60 60
        E 0 90 62 60
        E 120 80 18 00
        E 0 80 1b 00
        E 0 80 3d 00
        E 0 80 3e 00
        E 0 80 49 00
        E 0 80 4a 00
        E 0 80 54 00
        E 0 80 55 00
        E 0 80 56 00
        E 0 80 60 00
        E 0 80 62 00
        E 0 90 1a 60
        E 0 90 62 60
        E 120 80 1a 00
        E 0 80 62 00
        E 0 90 1b 60
        E 0 90 55 60
        E 0 90 56 60
        E 0 90 62 60
        E 120 80 1b 00
        E 0 80 55 00
        E 0 80 56 00
        E 0 80 62 00
        E 0 90 1a 60
        E 0 90 62 60
        E 120 80 1a 00
        E 0 80 62 00
        E 0 90 18 60
        E 0 90 1f 60
        E 0 90 3e 60
        E 0 90 48 60
        E 0 90 4a 60
        E 0 90 54 60
        E 0 90 56 60
        E 0 90 60 60
        E 0 90 61 60
        E 120 80 18 00
        E 0 80 1f 00
        E 0 80 3e 00
        E 0 80 48 00
        E 0 80 4a 00
        E 0 80 54 00
        E 0 80 56 00
        E 0 80 60 00
        E 0 80 61 00
        E 0 90 1e 60
        E 0 90 61 60
        E 120 80 1e 00
        E 0 80 61 00
        E 0 90 1f 60
        E 0 90 56 60
        E 0 90 61 60
        E 120 80 1f 00
        E 0 80 56 00
        E 0 80 61 00
        E 0 90 1e 60
        E 0 90 61 60
        E 120 80 1e 00
        E 0 80 61 00
        E 0 90 18 60
        E 0 90 1b 60
        E 0 90 3d 60
        E 0 90 3e 60
        E 0 90 49 60
        E 0 90 4a 60
        E 0 90 54 60
        E 0 90 55 60
        E 0 90 56 60
        E 0 90 60 60
        E 0 90 62 60
        E 120 80 18 00
        E 0 80 1b 00
        E 0 80 3d 00
        E 0 80 3e 00
        E 0 80 49 00
        E 0 80 4a 00
        E 0 80 54 00
        E 0 80 55 00
        E 0 80 56 00
        E 0 80 60 00
        E 0 80 62 00
        E 0 90 1e 60
        E 0 90 61 60
        E 120 80 1e 00
        E 0 80 61 00
        E 0 90 1f 60
        E 0 90 56 60
        E 0 90 61 60
        E 120 80 1f 00
        E 0 80 56 00
        E 0 80 61 00
        E 0 90 1e 60
        E 0 90 61 60
        E 120 80 1e 00
        E 0 80 61 00
        E 0 90 18 60
        E 0 90 1b 60
        E 0 90 3d 60
        E 0 90 3e 60
        E 0 90 49 60
        E 0 90 4a 60
        E 0 90 54 60
        E 0 90 55 60
        E 0 90 56 60
        E 0 90 60 60
        E 0 90 62 60
        E 0 90 78 60
        E 0 90 79 60
        E 0 90 7a 60
        E 0 90 7b 60
        E 0 90 7c 60
        E 120 80 18 00
        E 0 80 1b 00
        E 0 80 3d 00
        E 0 80 3e 00
        E 0 80 49 00
        E 0 80 4a 00
        E 0 80 54 00
        E 0 80 55 00
        E 0 80 56 00
        E 0 80 60 00
        E 0 80 62 00
        E 0 90 1a 60
        E 0 90 62 60
        E 120 80 1a 00
        E 0 80 62 00
        E 0 90 1b 60
        E 0 90 55 60
        E 0 90 56 60
        E 0 90 62 60
        E 120 80 1b 00
        E 0 80 55 00
        E 0 80 56 00
        E 0 80 62 00
        E 0 90 1a 60
        E 0 90 62 60
        E 120 80 1a 00
        E 0 80 62 00
        E 0 90 18 60
        E 0 90 31 60
        E 0 90 3f 60
        E 0 90 4b 60
        E 0 90 54 60
        E 0 90 57 60
        E 0 90 60 60
        E 0 90 63 60
        E 120 80 18 00
        E 0 80 31 00
        E 0 80 3f 00
        E 0 80 4b 00
        E 0 80 54 00
        E 0 80 57 00
        E 0 80 60 00
        E 0 80 63 00
        E 0 90 30 60
        E 0 90 63 60
        E 120 80 30 00
        E 0 80 63 00
        E 0 90 33 60
        E 0 90 58 60
        E 0 90 64 60
        E 120 80 33 00
        E 0 80 58 00
        E 0 80 64 00
        E 0 90 32 60
        E 0 90 64 60
        E 120 80 78 00
        E 0 80 79 00
        E 0 80 7a 00
        E 0 80 7b 00
        E 0 80 7c 00
        E 0 80 32 00
        E 0 80 64 00
        E 0 90 18 60
        E 0 90 1f 60
        E 0 90 3e 60
        E 0 90 48 60
        E 0 90 4a 60
        E 0 90 54 60
        E 0 90 56 60
        E 0 90 60 60
        E 0 90 61 60
        E 120 80 18 00
        E 0 80 1f 00
        E 0 80 3e 00
        E 0 80 48 00
        E 0 80 4a 00
        E 0 80 54 00
        E 0 80 56 00
        E 0 80 60 00
        E 0 80 61 00
        E 0 90 1e 60
        E 0 90 61 60
        E 120 80 1e 00
        E 0 80 61 00
        E 0 90 1f 60
        E 0 90 56 60
        E 0 90 61 60
        E 120 80 1f 00
        E 0 80 56 00
        E 0 80 61 00
        E 0 90 1e 60
        E 0 90 61 60
        E 120 80 1e 00
        E 0 80 61 00
        E 0 90 18 60
        E 0 90 1b 60
        E 0 90 3d 60
        E 0 90 3e 60
        E 0 90 49 60
        E 0 90 4a 60
        E 0 90 54 60
        E 0 90 55 60
        E 0 90 56 60
        E 0 90 60 60
        E 0 90 62 60
        E 120 80 18 00
        E 0 80 1b 00
        E 0 80 3d 00
        E 0 80 3e 00
        E 0 80 49 00
        E 0 80 4a 00
        E 0 80 54 00
        E 0 80 55 00
        E 0 80 56 00
        E 0 80 60 00
        E 0 80 62 00
        E 0 90 1e 60
        E 0 90 61 60
        E 120 80 1e 00
        E 0 80 61 00
        E 0 90 1f 60
        E 0 90 56 60
        E 0 90 61 60
        E 120 80 1f 00
        E 0 80 56 00
        E 0 80 61 00
        E 0 90 1e 60
        E 0 90 61 60
        E 120 80 1e 00
        E 0 80 61 00
        E 0 90 18 60
        E 0 90 1f 60
        E 0 90 3e 60
        E 0 90 48 60
        E 0 90 4a 60
        E 0 90 54 60
        E 0 90 56 60
        E 0 90 60 60
        E 0 90 61 60
        E 120 80 18 00
        E 0 80 1f 00
        E 0 80 3e 00
        E 0 80 48 00
        E 0 80 4a 00
        E 0 80 54 00
        E 0 80 56 00
        E 0 80 60 00
        E 0 80 61 00
        E 0 90 1e 60
        E 0 90 61 60
        E 120 80 1e 00
        E 0 80 61 00
        E 0 90 1b 60
        E 0 90 55 60
        E 0 90 56 60
        E 0 90 62 60
        E 120 80 1b 00
        E 0 80 55 00
        E 0 80 56 00
        E 0 80 62 00
        E 0 90 1a 60
        E 0 90 62 60
        E 120 80 1a 00
        E 0 80 62 00
        E 0 90 18 60
        E 0 90 1b 60
        E 0 90 3d 60
        E 0 90 3e 60
        E 0 90 49 60
        E 0 90 4a 60
        E 0 90 54 60
        E 0 90 55 60
        E 0 90 56 60
        E 0 90 60 60
        E 0 90 62 60
        E 120 80 18 00
        E 0 80 1b 00
        E 0 80 3d 00
        E 0 80 3e 00
        E 0 80 49 00
        E 0 80 4a 00
        E 0 80 54 00
        E 0 80 55 00
        E 0 80 56 00
        E 0 80 60 00
        E 0 80 62 00
        E 0 90 1a 60
        E 0 90 62 60
        E 120 80 1a 00
        E 0 80 62 00
        E 0 90 1b 60
        E 0 90 55 60
        E 0 90 56 60
        E 0 90 62 60
        E 120 80 1b 00
        E 0 80 55 00
        E 0 80 56 00
        E 0 80 62 00
        E 0 90 1a 60
        E 0 90 62 60
        E 120 80 1a 00
        E 0 80 62 00
        E 0 90 18 60
        E 0 90 1f 60
        E 0 90 3e 60
        E 0 90 48 60
        E 0 90 4a 60
        E 0 90 54 60
        E 0 90 56 60
        E 0 90 60 60
        E 0 90 61 60
        E 0 90 74 60
        E 120 80 18 00
        E 0 80 1f 00
        E 0 80 3e 00
        E 0 80 48 00
        E 0 80 4a 00
        E 0 80 54 00
        E 0 80 56 00
        E 0 80 60 00
        E 0 80 61 00
        E 0 90 1e 60
        E 0 90 61 60
        E 120 80 1e 00
        E 0 80 61 00
        E 0 90 1f 60
        E 0 90 56 60
        E 0 90 61 60
        E 120 80 1f 00
        E 0 80 56 00
        E 0 80 61 00
        E 0 90 1e 60
        E 0 90 61 60
        E 120 80 1e 00
        E 0 80 61 00
        E 0 90 18 60
        E 0 90 1b 60
        E 0 90 3d 60
        E 0 90 3e 60
        E 0 90 49 60
        E 0 90 4a 60
        E 0 90 54 60
        E 0 90 55 60
        E 0 90 56 60
        E 0 90 60 60
        E 0 90 62 60
        E 120 80 18 00
        E 0 80 1b 00
        E 0 80 3d 00
        E 0 80 3e 00
        E 0 80 49 00
        E 0 80 4a 00
        E 0 80 54 00
        E 0 80 55 00
        E 0 80 56 00
        E 0 80 60 00
        E 0 80 62 00
        E 0 90 1e 60
        E 0 90 61 60
        E 120 80 1e 00
        E 0 80 61 00
        E 0 90 1f 60
        E 0 90 56 60
        E 0 90 61 60
        E 120 80 1f 00
        E 0 80 56 00
        E 0 80 61 00
        E 0 90 1e 60
        E 0 90 61 60
        E 120 80 1e 00
        E 0 80 61 00
        E 0 90 18 60
        E 0 90 1f 60
        E 0 90 3e 60
        E 0 90 48 60
        E 0 90 4a 60
        E 0 90 54 60
        E 0 90 56 60
        E 0 90 60 60
        E 0 90 61 60
        E 120 80 18 00
        E 0 80 1f 00
        E 0 80 3e 00
        E 0 80 48 00
        E 0 80 4a 00
        E 0 80 54 00
        E 0 80 56 00
        E 0 80 60 00
        E 0 80 61 00
        E 0 90 1e 60
        E 0 90 61 60
        E 120 80 1e 00
        E 0 80 61 00
        E 0 90 1b 60
        E 0 90 55 60
        E 0 90 56 60
        E 0 90 62 60
        E 120 80 1b 00
        E 0 80 55 00
        E 0 80 56 00
        E 0 80 62 00
        E 0 90 1a 60
        E 0 90 62 60
        E 120 80 1a 00
        E 0 80 62 00
        E 0 90 18 60
        E 0 90 31 60
        E 0 90 3f 60
        E 0 90 4b 60
        E 0 90 54 60
        E 0 90 57 60
        E 0 90 60 60
        E 0 90 63 60
        E 120 80 18 00
        E 0 80 31 00
        E 0 80 3f 00
        E 0 80 4b 00
        E 0 80 54 00
        E 0 80 57 00
        E 0 80 60 00
        E 0 80 63 00
        E 0 90 30 60
        E 0 90 63 60
        E 120 80 30 00
        E 0 80 63 00
        E 0 90 33 60
        E 0 90 58 60
        E 0 90 64 60
        E 120 80 33 00
        E 0 80 58 00
        E 0 80 64 00
        E 0 90 32 60
        E 0 90 64 60
        E 120 80 74 00
        E 0 80 32 00
        E 0 80 64 00
        E 0 90 18 60
        E 0 90 1f 60
        E 0 90 3e 60
        E 0 90 48 60
        E 0 90 4a 60
        E 0 90 54 60
        E 0 90 56 60
        E 0 90 60 60
        E 0 90 61 60
        E 120 80 18 00
        E 0 80 1f 00
        E 0 80 3e 00
        E 0 80 48 00
        E 0 80 4a 00
        E 0 80 54 00
        E 0 80 56 00
        E 0 80 60 00
        E 0 80 61 00
        E 0 90 1e 60
        E 0 90 61 60
        E 120 80 1e 00
        E 0 80 61 00
        E 0 90 1f 60
        E 0 90 56 60
        E 0 90 61 60
        E 120 80 1f 00
        E 0 80 56 00
        E 0 80 61 00
        E 0 90 1e 60
        E 0 90 61 60
        E 120 80 1e 00
        E 0 80 61 00
        E 0 90 18 60
        E 0 90 1b 60
        E 0 90 3d 60
        E 0 90 3e 60
        E 0 90 49 60
        E 0 90 4a 60
        E 0 90 54 60
        E 0 90 55 60
        E 0 90 56 60
        E 0 90 60 60
        E 0 90 62 60
        E 120 80 18 00
        E 0 80 1b 00
        E 0 80 3d 00
        E 0 80 3e 00
        E 0 80 49 00
        E 0 80 4a 00
        E 0 80 54 00
        E 0 80 55 00
        E 0 80 56 00
        E 0 80 60 00
        E 0 80 62 00
        E 0 90 1e 60
        E 0 90 61 60
        E 120 80 1e 00
        E 0 80 61 00
        E 0 90 1f 60
        E 0 90 56 60
        E 0 90 61 60
        E 120 80 1f 00
        E 0 80 56 00
        E 0 80 61 00
        E 0 90 1e 60
        E 0 90 61 60
        E 120 80 1e 00
        E 0 80 61 00
        E 0 90 18 60
        E 0 90 1f 60
        E 0 90 3e 60
        E 0 90 48 60
        E 0 90 4a 60
        E 0 90 54 60
        E 0 90 56 60
        E 0 90 60 60
        E 0 90 61 60
        E 0 90 78 60
        E 0 90 79 60
        E 0 90 7a 60
        E 0 90 7b 60
        E 0 90 7c 60
        E 120 80 18 00
        E 0 80 1f 00
        E 0 80 3e 00
        E 0 80 48 00
        E 0 80 4a 00
        E 0 80 54 00
        E 0 80 56 00
        E 0 80 60 00
        E 0 80 61 00
        E 0 90 1e 60
        E 0 90 61 60
        E 120 80 1e 00
        E 0 80 61 00
        E 0 90 1b 60
        E 0 90 55 60
        E 0 90 56 60
        E 0 90 62 60
        E 120 80 1b 00
        E 0 80 55 00
        E 0 80 56 00
        E 0 80 62 00
        E 0 90 1a 60
        E 0 90 62 60
        E 120 80 1a 00
        E 0 80 62 00
        E 0 90 18 60
        E 0 90 1b 60
        E 0 90 3d 60
        E 0 90 3e 60
        E 0 90 49 60
        E 0 90 4a 60
        E 0 90 54 60
        E 0 90 55 60
        E 0 90 56 60
        E 0 90 60 60
        E 0 90 62 60
        E 120 80 18 00
        E 0 80 1b 00
        E 0 80 3d 00
        E 0 80 3e 00
        E 0 80 49 00
        E 0 80 4a 00
        E 0 80 54 00
        E 0 80 55 00
        E 0 80 56 00
        E 0 80 60 00
        E 0 80 62 00
        E 0 90 1a 60
        E 0 90 62 60
        E 120 80 1a 00
        E 0 80 62 00
        E 0 90 1b 60
        E 0 90 55 60
        E 0 90 56 60
        E 0 90 62 60
        E 120 80 1b 00
        E 0 80 55 00
        E 0 80 56 00
        E 0 80 62 00
        E 0 90 1a 60
        E 0 90 62 60
        E 120 80 78 00
        E 0 80 79 00
        E 0 80 7a 00
        E 0 80 7b 00
        E 0 80 7c 00
        E 0 80 1a 00
        E 0 80 62 00
        E 0 90 18 60
        E 0 90 1f 60
        E 0 90 3e 60
        E 0 90 48 60
        E 0 90 4a 60
        E 0 90 54 60
        E 0 90 56 60
        E 0 90 60 60
        E 0 90 61 60
        E 120 80 18 00
        E 0 80 1f 00
        E 0 80 3e 00
        E 0 80 48 00
        E 0 80 4a 00
        E 0 80 54 00
        E 0 80 56 00
        E 0 80 60 00
        E 0 80 61 00
        E 0 90 1e 60
        E 0 90 61 60
        E 120 80 1e 00
        E 0 80 61 00
        E 0 90 1f 60
        E 0 90 56 60
        E 0 90 61 60
        E 120 80 1f 00
        E 0 80 56 00
        E 0 80 61 00
        E 0 90 1e 60
        E 0 90 61 60
        E 120 80 1e 00
        E 0 80 61 00
        E 0 90 18 60
        E 0 90 1b 60
        E 0 90 3d 60
        E 0 90 3e 60
        E 0 90 49 60
        E 0 90 4a 60
        E 0 90 54 60
        E 0 90 55 60
        E 0 90 56 60
        E 0 90 60 60
        E 0 90 62 60
        E 120 80 18 00
        E 0 80 1b 00
        E 0 80 3d 00
        E 0 80 3e 00
        E 0 80 49 00
        E 0 80 4a 00
        E 0 80 54 00
        E 0 80 55 00
        E 0 80 56 00
        E 0 80 60 00
        E 0 80 62 00
        E 0 90 1e 60
        E 0 90 61 60
        E 120 80 1e 00
        E 0 80 61 00
        E 0 90 1f 60
        E 0 90 56 60
        E 0 90 61 60
        E 120 80 1f 00
        E 0 80 56 00
        E 0 80 61 00
        E 0 90 1e 60
        E 0 90 61 60
        E 120 80 1e 00
        E 0 80 61 00
        E 0 90 18 60
        E 0 90 1f 60
        E 0 90 3e 60
        E 0 90 48 60
        E 0 90 4a 60
        E 0 90 54 60
        E 0 90 56 60
        E 0 90 60 60
        E 0 90 61 60
        E 120 80 18 00
        E 0 80 1f 00
        E 0 80 3e 00
        E 0 80 48 00
        E 0 80 4a 00
        E 0 80 54 00
        E 0 80 56 00
        E 0 80 60 00
        E 0 80 61 00
        E 0 90 1e 60
        E 0 90 61 60
        E 120 80 1e 00
        E 0 80 61 00
        E 0 90 1b 60
        E 0 90 55 60
        E 0 90 56 60
        E 0 90 62 60
        E 120 80 1b 00
        E 0 80 55 00
        E 0 80 56 00
        E 0 80 62 00
        E 0 90 1a 60
        E 0 90 62 60
        E 120 80 1a 00
        E 0 80 62 00
        E 0 90 18 60
        E 0 90 31 60
        E 0 90 3f 60
        E 0 90 4b 60
        E 0 90 54 60
        E 0 90 57 60
        E 0 90 60 60
        E 0 90 63 60
        E 120 80 18 00
        E 0 80 31 00
        E 0 80 3f 00
        E 0 80 4b 00
        E 0 80 54 00
        E 0 80 57 00
        E 0 80 60 00
        E 0 80 63 00
        E 0 90 30 60
        E 0 90 63 60
        E 120 80 30 00
        E 0 80 63 00
        E 0 90 33 60
        E 0 90 58 60
        E 0 90 64 60
        E 120 80 33 00
        E 0 80 58 00
        E 0 80 64 00
        E 0 90 32 60
        E 0 90 64 60
        E 120 80 32 00
        E 0 80 64 00
        E 0 90 18 60
        E 0 90 1f 60
        E 0 90 3e 60
        E 0 90 48 60
        E 0 90 4a 60
        E 0 90 54 60
        E 0 90 56 60
        E 0 90 60 60
        E 0 90 61 60
        E 120 80 18 00
        E 0 80 1f 00
        E 0 80 3e 00
        E 0 80 48 00
        E 0 80 4a 00
        E 0 80 54 00
        E 0 80 56 00
        E 0 80 60 00
        E 0 80 61 00
        E 0 90 1e 60
        E 0 90 61 60
        E 120 80 1e 00
        E 0 80 61 00
        E 0 90 1f 60
        E 0 90 56 60
        E 0 90 61 60
        E 120 80 1f 00
        E 0 80 56 00
        E 0 80 61 00
        E 0 90 1e 60
        E 0 90 61 60
        E 120 80 1e 00
        E 0 80 61 00
        E 0 90 18 60
        E 0 90 1b 60
        E 0 90 3d 60
        E 0 90 3e 60
        E 0 90 49 60
        E 0 90 4a 60
        E 0 90 54 60
        E 0 90 55 60
        E 0 90 56 60
        E 0 90 60 60
        E 0 90 62 60
        E 120 80 18 00
        E 0 80 1b 00
        E 0 80 3d 00
        E 0 80 3e 00
        E 0 80 49 00
        E 0 80 4a 00
        E 0 80 54 00
        E 0 80 55 00
        E 0 80 56 00
        E 0 80 60 00
        E 0 80 62 00
        E 0 90 1e 60
        E 0 90 61 60
        E 120 80 1e 00
        E 0 80 61 00
        E 0 90 1f 60
        E 0 90 56 60
        E 0 90 61 60
        E 120 80 1f 00
        E 0 80 56 00
        E 0 80 61 00
        E 0 90 1e 60
        E 0 90 61 60
        E 120 80 1e 00
        E 0 80 61 00
        E 0 90 18 60
        E 0 90 1f 60
        E 0 90 3e 60
        E 0 90 48 60
        E 0 90 4a 60
        E 0 90 54 60
        E 0 90 56 60
        E 0 90 60 60
        E 0 90 61 60
        E 120 80 18 00
        E 0 80 1f 00
        E 0 80 3e 00
        E 0 80 48 00
        E 0 80 4a 00
        E 0 80 54 00
        E 0 80 56 00
        E 0 80 60 00
        E 0 80 61 00
        E 0 90 1e 60
        E 0 90 61 60
        E 120 80 1e 00
        E 0 80 61 00
        E 0 90 1b 60
        E 0 90 55 60
        E 0 90 56 60
        E 0 90 62 60
        E 120 80 1b 00
        E 0 80 55 00
        E 0 80 56 00
        E 0 80 62 00
        E 0 90 1a 60
        E 0 90 62 60
        E 120 80 1a 00
        E 0 80 62 00
        E 0 90 18 60
        E 0 90 1b 60
        E 0 90 3d 60
        E 0 90 3e 60
        E 0 90 49 60
        E 0 90 4a 60
        E 0 90 54 60
        E 0 90 55 60
        E 0 90 56 60
        E 0 90 60 60
        E 0 90 62 60
        E 120 80 18 00
        E 0 80 1b 00
        E 0 80 3d 00
        E 0 80 3e 00
        E 0 80 49 00
        E 0 80 4a 00
        E 0 80 54 00
        E 0 80 55 00
        E 0 80 56 00
        E 0 80 60 00
        E 0 80 62 00
        E 0 90 1a 60
        E 0 90 62 60
        E 120 80 1a 00
        E 0 80 62 00
        E 0 90 1b 60
        E 0 90 55 60
        E 0 90 56 60
        E 0 90 62 60
        E 120 80 1b 00
        E 0 80 55 00
        E 0 80 56 00
        E 0 80 62 00
        E 0 90 1a 60
        E 0 90 62 60
        E 120 80 1a 00
        E 0 80 62 00
        E 0 90 18 60
        E 0 90 1f 60
        E 0 90 3e 60
        E 0 90 48 60
        E 0 90 4a 60
        E 0 90 54 60
        E 0 90 56 60
        E 0 90 60 60
        E 0 90 61 60
        E 120 80 18 00
        E 0 80 1f 00
        E 0 80 3e 00
        E 0 80 48 00
        E 0 80 4a 00
        E 0 80 54 00
        E 0 80 56 00
        E 0 80 60 00
        E 0 80 61 00
        E 0 90 1e 60
        E 0 90 61 60
        E 120 80 1e 00
        E 0 80 61 00
        E 0 90 1f 60
        E 0 90 56 60
        E 0 90 61 60
        E 120 80 1f 00
        E 0 80 56 00
        E 0 80 61 00
        E 0 90 1e 60
        E 0 90 61 60
        E 120 80 1e 00
        E 0 80 61 00
        E 0 90 18 60
        E 0 90 1b 60
        E 0 90 3d 60
        E 0 90 3e 60
        E 0 90 49 60
        E 0 90 4a 60
        E 0 90 54 60
        E 0 90 55 60
        E 0 90 56 60
        E 0 90 60 60
        E 0 90 62 60
        E 120 80 18 00
        E 0 80 1b 00
        E 0 80 3d 00
        E 0 80 3e 00
        E 0 80 49 00
        E 0 80 4a 00
        E 0 80 54 00
        E 0 80 55 00
        E 0 80 56 00
        E 0 80 60 00
        E 0 80 62 00
        E 0 90 1e 60
        E 0 90 61 60
        E 120 80 1e 00
        E 0 80 61 00
        E 0 90 1f 60
        E 0 90 56 60
        E 0 90 61 60
        E 120 80 1f 00
        E 0 80 56 00
        E 0 80 61 00
        E 0 90 1e 60
        E 0 90 61 60
        E 120 80 1e 00
        E 0 80 61 00
        E 0 90 18 60
        E 0 90 1f 60
        E 0 90 3e 60
        E 0 90 48 60
        E 0 90 4a 60
        E 0 90 54 60
        E 0 90 56 60
        E 0 90 60 60
        E 0 90 61 60
        E 120 80 18 00
        E 0 80 1f 00
        E 0 80 3e 00
        E 0 80 48 00
        E 0 80 4a 00
        E 0 80 54 00
        E 0 80 56 00
        E 0 80 60 00
        E 0 80 61 00
        E 0 90 1e 60
        E 0 90 61 60
        E 120 80 1e 00
        E 0 80 61 00
        E 0 90 1b 60
        E 0 90 55 60
        E 0 90 56 60
        E 0 90 62 60
        E 120 80 1b 00
        E 0 80 55 00
        E 0 80 56 00
        E 0 80 62 00
        E 0 90 1a 60
        E 0 90 62 60
        E 120 80 1a 00
        E 0 80 62 00
        E 0 90 18 60
        E 0 90 31 60
        E 0 90 3f 60
        E 0 90 4b 60
        E 0 90 54 60
        E 0 90 57 60
        E 0 90 60 60
        E 0 90 63 60
        E 120 80 18 00
        E 0 80 31 00
        E 0 80 3f 00
        E 0 80 4b 00
        E 0 80 54 00
        E 0 80 57 00
        E 0 80 60 00
        E 0 80 63 00
        E 0 90 30 60
        E 0 90 63 60
        E 120 80 30 00
        E 0 80 63 00
        E 0 90 33 60
        E 0 90 58 60
        E 0 90 64 60
        E 120 80 33 00
        E 0 80 58 00
        E 0 80 64 00
        E 0 90 32 60
        E 0 90 64 60
        E 120 80 32 00
        E 0 80 64 00
        E 0 90 18 60
        E 0 90 1f 60
        E 0 90 3e 60
        E 0 90 48 60
        E 0 90 4a 60
        E 0 90 54 60
        E 0 90 56 60
        E 0 90 60 60
        E 0 90 61 60
        E 120 80 18 00
        E 0 80 1f 00
        E 0 80 3e 00
        E 0 80 48 00
        E 0 80 4a 00
        E 0 80 54 00
        E 0 80 56 00
        E 0 80 60 00
        E 0 80 61 00
        E 0 90 1e 60
        E 0 90 61 60
        E 120 80 1e 00
        E 0 80 61 00
        E 0 90 1f 60
        E 0 90 56 60
        E 0 90 61 60
        E 120 80 1f 00
        E 0 80 56 00
        E 0 80 61 00
        E 0 90 1e 60
        E 0 90 61 60
        E 120 80 1e 00
        E 0 80 61 00
        E 0 90 18 60
        E 0 90 1b 60
        E 0 90 3d 60
        E 0 90 3e 60
        E 0 90 49 60
        E 0 90 4a 60
        E 0 90 54 60
        E 0 90 55 60
        E 0 90 56 60
        E 0 90 60 60
        E 0 90 62 60
        E 120 80 18 00
        E 0 80 1b 00
        E 0 80 3d 00
        E 0 80 3e 00
        E 0 80 49 00
        E 0 80 4a 00
        E 0 80 54 00
        E 0 80 55 00
        E 0 80 56 00
        E 0 80 60 00
        E 0 80 62 00
        E 0 90 1e 60
        E 0 90 61 60
        E 120 80 1e 00
        E 0 80 61 00
        E 0 90 1f 60
        E 0 90 56 60
        E 0 90 61 60
        E 120 80 1f 00
        E 0 80 56 00
        E 0 80 61 00
        E 0 90 1e 60
        E 0 90 61 60
        E 120 80 1e 00
        E 0 80 61 00
        E 0 90 18 60
        E 0 90 1f 60
        E 0 90 3e 60
        E 0 90 48 60
        E 0 90 4a 60
        E 0 90 54 60
        E 0 90 56 60
        E 0 90 60 60
        E 0 90 61 60
        E 0 90 78 60
        E 0 90 79 60
        E 0 90 7a 60
        E 0 90 7b 60
        E 0 90 7c 60
        E 120 80 18 00
        E 0 80 1f 00
        E 0 80 3e 00
        E 0 80 48 00
        E 0 80 4a 00
        E 0 80 54 00
        E 0 80 56 00
        E 0 80 60 00
        E 0 80 61 00
        E 0 90 1e 60
        E 0 90 61 60
        E 120 80 1e 00
        E 0 80 61 00
        E 0 90 1b 60
        E 0 90 55 60
        E 0 90 56 60
        E 0 90 62 60
        E 120 80 1b 00
        E 0 80 55 00
        E 0 80 56 00
        E 0 80 62 00
        E 0 90 1a 60
        E 0 90 62 60
        E 120 80 1a 00
        E 0 80 62 00
        E 0 90 18 60
        E 0 90 1b 60
        E 0 90 3d 60
        E 0 90 3e 60
        E 0 90 49 60
        E 0 90 4a 60
        E 0 90 54 60
        E 0 90 55 60
        E 0 90 56 60
        E 0 90 60 60
        E 0 90 62 60
        E 120 80 18 00
        E 0 80 1b 00
        E 0 80 3d 00
        E 0 80 3e 00
        E 0 80 49 00
        E 0 80 4a 00
        E 0 80 54 00
        E 0 80 55 00
        E 0 80 56 00
        E 0 80 60 00
        E 0 80 62 00
        E 0 90 1a 60
        E 0 90 62 60
        E 120 80 1a 00
        E 0 80 62 00
        E 0 90 1b 60
        E 0 90 55 60
        E 0 90 56 60
        E 0 90 62 60
        E 120 80 1b 00
        E 0 80 55 00
        E 0 80 56 00
        E 0 80 62 00
        E 0 90 1a 60
        E 0 90 62 60
        E 120 80 78 00
        E 0 80 79 00
        E 0 80 7a 00
        E 0 80 7b 00
        E 0 80 7c 00
        E 0 80 1a 00
        E 0 80 62 00
        E 0 90 18 60
        E 0 90 1f 60
        E 0 90 3e 60
        E 0 90 48 60
        E 0 90 4a 60
        E 0 90 54 60
        E 0 90 56 60
        E 0 90 60 60
        E 0 90 61 60
        E 120 80 18 00
        E 0 80 1f 00
        E 0 80 3e 00
        E 0 80 48 00
        E 0 80 4a 00
        E 0 80 54 00
        E 0 80 56 00
        E 0 80 60 00
        E 0 80 61 00
        E 0 90 1e 60
        E 0 90 61 60
        E 120 80 1e 00
        E 0 80 61 00
        E 0 90 1f 60
        E 0 90 56 60
        E 0 90 61 60
        E 120 80 1f 00
        E 0 80 56 00
        E 0 80 61 00
        E 0 90 1e 60
        E 0 90 61 60
        E 120 80 1e 00
        E 0 80 61 00
        E 0 90 18 60
        E 0 90 1b 60
        E 0 90 3d 60
        E 0 90 3e 60
        E 0 90 49 60
        E 0 90 4a 60
        E 0 90 54 60
        E 0 90 55 60
        E 0 90 56 60
        E 0 90 60 60
        E 0 90 62 60
        E 120 80 18 00
        E 0 80 1b 00
        E 0 80 3d 00
        E 0 80 3e 00
        E 0 80 49 00
        E 0 80 4a 00
        E 0 80 54 00
        E 0 80 55 00
        E 0 80 56 00
        E 0 80 60 00
        E 0 80 62 00
        E 0 90 1e 60
        E 0 90 61 60
        E 120 80 1e 00
        E 0 80 61 00
        E 0 90 1f 60
        E 0 90 56 60
        E 0 90 61 60
        E 120 80 1f 00
        E 0 80 56 00
        E 0 80 61 00
        E 0 90 1e 60
        E 0 90 61 60
        E 120 80 1e 00
        E 0 80 61 00
        E 0 90 18 60
        E 0 90 1f 60
        E 0 90 3e 60
        E 0 90 48 60
        E 0 90 4a 60
        E 0 90 54 60
        E 0 90 56 60
        E 0 90 60 60
        E 0 90 61 60
        E 120 80 18 00
        E 0 80 1f 00
        E 0 80 3e 00
        E 0 80 48 00
        E 0 80 4a 00
        E 0 80 54 00
        E 0 80 56 00
        E 0 80 60 00
        E 0 80 61 00
        E 0 90 1e 60
        E 0 90 61 60
        E 120 80 1e 00
        E 0 80 61 00
        E 0 90 1b 60
        E 0 90 55 60
        E 0 90 56 60
        E 0 90 62 60
        E 120 80 1b 00
        E 0 80 55 00
        E 0 80 56 00
        E 0 80 62 00
        E 0 90 1a 60
        E 0 90 62 60
        E 120 80 1a 00
        E 0 80 62 00
        E 0 90 18 60
        E 0 90 31 60
        E 0 90 3f 60
        E 0 90 4b 60
        E 0 90 54 60
        E 0 90 57 60
        E 0 90 60 60
        E 0 90 63 60
        E 120 80 18 00
        E 0 80 31 00
        E 0 80 3f 00
        E 0 80 4b 00
        E 0 80 54 00
        E 0 80 57 00
        E 0 80 60 00
        E 0 80 63 00
        E 0 90 30 60
        E 0 90 63 60
        E 120 80 30 00
        E 0 80 63 00
        E 0 90 33 60
        E 0 90 58 60
        E 0 90 64 60
        E 120 80 33 00
        E 0 80 58 00
        E 0 80 64 00
        E 0 90 32 60
        E 0 90 64 60
        E 120 80 32 00
        E 0 80 64 00
        E 0 90 18 60
        E 0 90 1f 60
        E 0 90 3e 60
        E 0 90 48 60
        E 0 90 4a 60
        E 0 90 54 60
        E 0 90 56 60
        E 0 90 60 60
        E 0 90 61 60
        E 120 80 18 00
        E 0 80 1f 00
        E 0 80 3e 00
        E 0 80 48 00
        E 0 80 4a 00
        E 0 80 54 00
        E 0 80 56 00
        E 0 80 60 00
        E 0 80 61 00
        E 0 90 1e 60
        E 0 90 61 60
        E 120 80 1e 00
        E 0 80 61 00
        E 0 90 1f 60
        E 0 90 56 60
        E 0 90 61 60
        E 120 80 1f 00
        E 0 80 56 00
        E 0 80 61 00
        E 0 90 1e 60
        E 0 90 61 60
        E 120 80 1e 00
        E 0 80 61 00
        E 0 90 18 60
        E 0 90 1b 60
        E 0 90 3d 60
        E 0 90 3e 60
        E 0 90 49 60
        E 0 90 4a 60
        E 0 90 54 60
        E 0 90 55 60
        E 0 90 56 60
        E 0 90 60 60
        E 0 90 62 60
        E 120 80 18 00
        E 0 80 1b 00
        E 0 80 3d 00
        E 0 80 3e 00
        E 0 80 49 00
        E 0 80 4a 00
        E 0 80 54 00
        E 0 80 55 00
        E 0 80 56 00
        E 0 80 60 00
        E 0 80 62 00
        E 0 90 1e 60
        E 0 90 61 60
        E 120 80 1e 00
        E 0 80 61 00
        E 0 90 1f 60
        E 0 90 56 60
        E 0 90 61 60
        E 120 80 1f 00
        E 0 80 56 00
        E 0 80 61 00
        E 0 90 1e 60
        E 0 90 61 60
        E 120 80 1e 00
        E 0 80 61 00
        E 0 90 18 60
        E 0 90 1f 60
        E 0 90 3e 60
        E 0 90 48 60
        E 0 90 4a 60
        E 0 90 54 60
        E 0 90 56 60
        E 0 90 60 60
        E 0 90 61 60
        E 120 80 18 00
        E 0 80 1f 00
        E 0 80 3e 00
        E 0 80 48 00
        E 0 80 4a 00
        E 0 80 54 00
        E 0 80 56 00
        E 0 80 60 00
        E 0 80 61 00
        E 0 90 1e 60
        E 0 90 61 60
        E 120 80 1e 00
        E 0 80 61 00
        E 0 90 1b 60
        E 0 90 55 60
        E 0 90 56 60
        E 0 90 62 60
        E 120 80 1b 00
        E 0 80 55 00
        E 0 80 56 00
        E 0 80 62 00
        E 0 90 1a 60
        E 0 90 62 60
        E 120 80 1a 00
        E 0 80 62 00
        E 0 90 18 60
        E 0 90 1b 60
        E 0 90 3d 60
        E 0 90 3e 60
        E 0 90 49 60
        E 0 90 4a 60
        E 0 90 54 60
        E 0 90 55 60
        E 0 90 56 60
        E 0 90 60 60
        E 0 90 62 60
        E 120 80 18 00
        E 0 80 1b 00
        E 0 80 3d 00
        E 0 80 3e 00
        E 0 80 49 00
        E 0 80 4a 00
        E 0 80 54 00
        E 0 80 55 00
        E 0 80 56 00
        E 0 80 60 00
        E 0 80 62 00
        E 0 90 1a 60
        E 0 90 62 60
        E 120 80 1a 00
        E 0 80 62 00
        E 0 90 1b 60
        E 0 90 55 60
        E 0 90 56 60
        E 0 90 62 60
        E 120 80 1b 00
        E 0 80 55 00
        E 0 80 56 00
        E 0 80 62 00
        E 0 90 1a 60
        E 0 90 62 60
        E 120 80 1a 00
        E 0 80 62 00
        E 0 90 18 60
        E 0 90 1f 60
        E 0 90 3e 60
        E 0 90 48 60
        E 0 90 4a 60
        E 0 90 54 60
        E 0 90 56 60
        E 0 90 60 60
        E 0 90 61 60
        E 120 80 18 00
        E 0 80 1f 00
        E 0 80 3e 00
        E 0 80 48 00
        E 0 80 4a 00
        E 0 80 54 00
        E 0 80 56 00
        E 0 80 60 00
        E 0 80 61 00
        E 0 90 1e 60
        E 0 90 61 60
        E 120 80 1e 00
        E 0 80 61 00
        E 0 90 1f 60
        E 0 90 56 60
        E 0 90 61 60
        E 120 80 1f 00
        E 0 80 56 00
        E 0 80 61 00
        E 0 90 1e 60
        E 0 90 61 60
        E 120 80 1e 00
        E 0 80 61 00
        E 0 90 18 60
        E 0 90 1b 60
        E 0 90 3d 60
        E 0 90 3e 60
        E 0 90 49 60
        E 0 90 4a 60
        E 0 90 54 60
        E 0 90 55 60
        E 0 90 56 60
        E 0 90 60 60
        E 0 90 62 60
        E 120 80 18 00
        E 0 80 1b 00
        E 0 80 3d 00
        E 0 80 3e 00
        E 0 80 49 00
        E 0 80 4a 00
        E 0 80 54 00
        E 0 80 55 00
        E 0 80 56 00
        E 0 80 60 00
        E 0 80 62 00
        E 0 90 1e 60
        E 0 90 61 60
        E 120 80 1e 00
        E 0 80 61 00
        E 0 90 1f 60
        E 0 90 56 60
        E 0 90 61 60
        E 120 80 1f 00
        E 0 80 56 00
        E 0 80 61 00
        E 0 90 1e 60
        E 0 90 61 60
        E 120 80 1e 00
        E 0 80 61 00
        E 0 90 18 60
        E 0 90 1f 60
        E 0 90 3e 60
        E 0 90 48 60
        E 0 90 4a 60
        E 0 90 54 60
        E 0 90 56 60
        E 0 90 60 60
        E 0 90 61 60
        E 120 80 18 00
        E 0 80 1f 00
        E 0 80 3e 00
        E 0 80 48 00
        E 0 80 4a 00
        E 0 80 54 00
        E 0 80 56 00
        E 0 80 60 00
        E 0 80 61 00
        E 0 90 1e 60
        E 0 90 61 60
        E 120 80 1e 00
        E 0 80 61 00
        E 0 90 1b 60
        E 0 90 55 60
        E 0 90 56 60
        E 0 90 62 60
        E 120 80 1b 00
        E 0 80 55 00
        E 0 80 56 00
        E 0 80 62 00
        E 0 90 1a 60
        E 0 90 62 60
        E 120 80 1a 00
        E 0 80 62 00
        E 0 90 18 60
        E 0 90 31 60
        E 0 90 3f 60
        E 0 90 4b 60
        E 0 90 54 60
        E 0 90 57 60
        E 0 90 60 60
        E 0 90 63 60
        E 120 80 18 00
        E 0 80 31 00
        E 0 80 3f 00
        E 0 80 4b 00
        E 0 80 54 00
        E 0 80 57 00
        E 0 80 60 00
        E 0 80 63 00
        E 0 90 30 60
        E 0 90 63 60
        E 120 80 30 00
        E 0 80 63 00
        E 0 90 33 60
        E 0 90 58 60
        E 0 90 64 60
        E 120 80 33 00
        E 0 80 58 00
        E 0 80 64 00
        E 0 90 32 60
        E 0 90 64 60
        E 120 80 32 00
        E 0 80 64 00
        E 0 90 18 60
        E 0 90 1f 60
        E 0 90 3e 60
        E 0 90 48 60
        E 0 90 4a 60
        E 0 90 54 60
        E 0 90 56 60
        E 0 90 60 60
        E 0 90 61 60
        E 120 80 18 00
        E 0 80 1f 00
        E 0 80 3e 00
        E 0 80 48 00
        E 0 80 4a 00
        E 0 80 54 00
        E 0 80 56 00
        E 0 80 60 00
        E 0 80 61 00
        E 0 90 1e 60
        E 0 90 61 60
        E 120 80 1e 00
        E 0 80 61 00
        E 0 90 1f 60
        E 0 90 56 60
        E 0 90 61 60
        E 120 80 1f 00
        E 0 80 56 00
        E 0 80 61 00
        E 0 90 1e 60
        E 0 90 61 60
        E 120 80 1e 00
        E 0 80 61 00
        E 0 90 18 60
        E 0 90 1b 60
        E 0 90 3d 60
        E 0 90 3e 60
        E 0 90 49 60
        E 0 90 4a 60
        E 0 90 54 60
        E 0 90 55 60
        E 0 90 56 60
        E 0 90 60 60
        E 0 90 62 60
        E 120 80 18 00
        E 0 80 1b 00
        E 0 80 3d 00
        E 0 80 3e 00
        E 0 80 49 00
        E 0 80 4a 00
        E 0 80 54 00
        E 0 80 55 00
        E 0 80 56 00
        E 0 80 60 00
        E 0 80 62 00
        E 0 90 1e 60
        E 0 90 61 60
        E 120 80 1e 00
        E 0 80 61 00
        E 0 90 1f 60
        E 0 90 56 60
        E 0 90 61 60
        E 120 80 1f 00
        E 0 80 56 00
        E 0 80 61 00
        E 0 90 1e 60
        E 0 90 61 60
        E 120 80 1e 00
        E 0 80 61 00
        E 0 90 18 60
        E 0 90 1f 60
        E 0 90 3e 60
        E 0 90 48 60
        E 0 90 4a 60
        E 0 90 54 60
        E 0 90 56 60
        E 0 90 60 60
        E 0 90 61 60
        E 0 90 78 60
        E 0 90 79 60
        E 0 90 7a 60
        E 0 90 7b 60
        E 0 90 7c 60
        E 120 80 18 00
        E 0 80 1f 00
        E 0 80 3e 00
        E 0 80 48 00
        E 0 80 4a 00
        E 0 80 54 00
        E 0 80 56 00
        E 0 80 60 00
        E 0 80 61 00
        E 0 90 1e 60
        E 0 90 61 60
        E 120 80 1e 00
        E 0 80 61 00
        E 0 90 1b 60
        E 0 90 55 60
        E 0 90 56 60
        E 0 90 62 60
        E 120 80 1b 00
        E 0 80 55 00
        E 0 80 56 00
        E 0 80 62 00
        E 0 90 1a 60
        E 0 90 62 60
        E 120 80 1a 00
        E 0 80 62 00
        E 0 90 18 60
        E 0 90 1b 60
        E 0 90 3d 60
        E 0 90 3e 60
        E 0 90 49 60
        E 0 90 4a 60
        E 0 90 54 60
        E 0 90 55 60
        E 0 90 56 60
        E 0 90 60 60
        E 0 90 62 60
        E 120 80 18 00
        E 0 80 1b 00
        E 0 80 3d 00
        E 0 80 3e 00
        E 0 80 49 00
        E 0 80 4a 00
        E 0 80 54 00
        E 0 80 55 00
        E 0 80 56 00
        E 0 80 60 00
        E 0 80 62 00
        E 0 90 1a 60
        E 0 90 62 60
        E 120 80 1a 00
        E 0 80 62 00
        E 0 90 1b 60
        E 0 90 55 60
        E 0 90 56 60
        E 0 90 62 60
        E 120 80 1b 00
        E 0 80 55 00
        E 0 80 56 00
        E 0 80 62 00
        E 0 90 1a 60
        E 0 90 62 60
        E 120 80 78 00
        E 0 80 79 00
        E 0 80 7a 00
        E 0 80 7b 00
        E 0 80 7c 00
        E 0 80 1a 00
        E 0 80 62 00
        E 0 90 18 60
        E 0 90 1f 60
        E 0 90 3e 60
        E 0 90 48 60
        E 0 90 4a 60
        E 0 90 54 60
        E 0 90 56 60
        E 0 90 60 60
        E 0 90 61 60
        E 120 80 18 00
        E 0 80 1f 00
        E 0 80 3e 00
        E 0 80 48 00
        E 0 80 4a 00
        E 0 80 54 00
        E 0 80 56 00
        E 0 80 60 00
        E 0 80 61 00
        E 0 90 1e 60
        E 0 90 61 60
        E 120 80 1e 00
        E 0 80 61 00
        E 0 90 1f 60
        E 0 90 56 60
        E 0 90 61 60
        E 120 80 1f 00
        E 0 80 56 00
        E 0 80 61 00
        E 0 90 1e 60
        E 0 90 61 60
        E 120 80 1e 00
        E 0 80 61 00
        E 0 90 18 60
        E 0 90 1b 60
        E 0 90 3d 60
        E 0 90 3e 60
        E 0 90 49 60
        E 0 90 4a 60
        E 0 90 54 60
        E 0 90 55 60
        E 0 90 56 60
        E 0 90 60 60
        E 0 90 62 60
        E 120 80 18 00
        E 0 80 1b 00
        E 0 80 3d 00
        E 0 80 3e 00
        E 0 80 49 00
        E 0 80 4a 00
        E 0 80 54 00
        E 0 80 55 00
        E 0 80 56 00
        E 0 80 60 00
        E 0 80 62 00
        E 0 90 1e 60
        E 0 90 61 60
        E 120 80 1e 00
        E 0 80 61 00
        E 0 90 1f 60
        E 0 90 56 60
        E 0 90 61 60
        E 120 80 1f 00
        E 0 80 56 00
        E 0 80 61 00
        E 0 90 1e 60
        E 0 90 61 60
        E 120 80 1e 00
        E 0 80 61 00
        E 0 90 18 60
        E 0 90 1f 60
        E 0 90 3e 60
        E 0 90 48 60
        E 0 90 4a 60
        E 0 90 54 60
        E 0 90 56 60
        E 0 90 60 60
        E 0 90 61 60
        E 120 80 18 00
        E 0 80 1f 00
        E 0 80 3e 00
        E 0 80 48 00
        E 0 80 4a 00
        E 0 80 54 00
        E 0 80 56 00
        E 0 80 60 00
        E 0 80 61 00
        E 0 90 1e 60
        E 0 90 61 60
        E 120 80 1e 00
        E 0 80 61 00
        E 0 90 1b 60
        E 0 90 55 60
        E 0 90 56 60
        E 0 90 62 60
        E 120 80 1b 00
        E 0 80 55 00
        E 0 80 56 00
        E 0 80 62 00
        E 0 90 1a 60
        E 0 90 62 60
        E 120 80 1a 00
        E 0 80 62 00
        E 0 90 18 60
        E 0 90 31 60
        E 0 90 3f 60
        E 0 90 4b 60
        E 0 90 54 60
        E 0 90 57 60
        E 0 90 60 60
        E 0 90 63 60
        E 120 80 18 00
        E 0 80 31 00
        E 0 80 3f 00
        E 0 80 4b 00
        E 0 80 54 00
        E 0 80 57 00
        E 0 80 60 00
        E 0 80 63 00
        E 0 90 30 60
        E 0 90 63 60
        E 120 80 30 00
        E 0 80 63 00
        E 0 90 33 60
        E 0 90 58 60
        E 0 90 64 60
        E 120 80 33 00
        E 0 80 58 00
        E 0 80 64 00
        E 0 90 32 60
        E 0 90 64 60
        E 120 80 32 00
        E 0 80 64 00
        E 0 90 18 60
        E 0 90 33 60
        E 0 90 40 60
        E 0 90 4c 60
        E 0 90 54 60
        E 0 90 58 60
        E 0 90 60 60
        E 0 90 64 60
        E 120 80 18 00
        E 0 80 33 00
        E 0 80 40 00
        E 0 80 4c 00
        E 0 80 54 00
        E 0 80 58 00
        E 0 80 60 00
        E 0 80 64 00
        <X 359 0
          /wFbaWRsZV9yZWFsdGltZV0=
        >
        E 0 80 70 00
        E 0 80 6f 00
        E 11041 b0 7b 00
        GUID {12C7AB22-AC92-415D-B6CF-5AE5F202BF6C}
        IGNTEMPO 0 120.00000000 4 4
        SRCCOLOR 1
        VELLANE 132 128 60
        COLORMAP "C:\Program Files\REAPER (x64)\Data\color_maps\rockband_guitarbass.png"
        CFGEDITVIEW -18721.282280 3.743333 0 12 0 0 0
        CFGEDIT 1 1 0 1 1 0 1 1 1 1 1 0.12500000 53 44 1253 718 0 2 1 1 0.00000000 0 1 1 0 0.500000 0 0 1.000000 64
        KEYSNAP 0 7 "102030050700" 0 "Pentatonic"
        EVTFILTER 0 -1 -1 -1 -1 0 1 0 0 -1.00000000 -1.00000000
      >
    >
  >
  <TRACK '{FF0F4F8F-15E4-434E-80C1-EA0534C19C3F}'
    NAME "PART BASS"
    PEAKCOL 16576
    BEAT -1
    AUTOMODE 0
    VOLPAN 1.00000000000000 0.00000000000000 -1.00000000000000 -1.00000000000000 1.00000000000000
    MUTESOLO 0 0 0
    IPHASE 0
    ISBUS 0 0
    BUSCOMP 0 0
    SHOWINMIX 1 0.666700 0.500000 1 0.500000 -1 -1 -1
    FREEMODE 0
    SEL 0
    REC 0 0 0 0 0 0 0
    VU 2
    TRACKHEIGHT 0 0
    INQ 0 0 0 0.5000000000 100 0 0 100
    NCHAN 2
    FX 1
    TRACKID {FF0F4F8F-15E4-434E-80C1-EA0534C19C3F}
    PERF 0
    MIDIOUT -1
    <MIDINOTENAMES
      0 127 "TRILL MARKER"
      0 126 "TREMOLO MARKER"
      0 125 "---"
      0 124 "BRE"
      0 123 "BRE"
      0 122 "BRE"
      0 121 "BRE"
      0 120 "BRE (use all 5)"
      0 119 "----"
      0 116 "OVERDRIVE"
      0 115 "----"
      0 103 "Solo Marker"
      0 102 "Force HOPO Off"
      0 101 "Force HOPO On"
      0 100 "EXPERT Orange"
      0 99 "EXPERT Blue"
      0 98 "EXPERT Yellow"
      0 97 "EXPERT Red"
      0 96 "EXPERT Green"
      0 95 "----"
      0 90 "Force HOPO Off"
      0 89 "Force HOPO On"
      0 88 "HARD Orange"
      0 87 "HARD Blue"
      0 86 "HARD Yellow"
      0 85 "HARD Red"
      0 84 "HARD Green"
      0 77 "----"
      0 76 "MEDIUM Orange"
      0 75 "MEDIUM Blue"
      0 74 "MEDIUM Yellow"
      0 73 "MEDIUM Red"
      0 72 "MEDIUM Green"
      0 65 "----"
      0 64 "EASY Orange"
      0 63 "EASY Blue"
      0 62 "EASY Yellow"
      0 61 "EASY Red"
      0 60 "EASY Green"
      0 59 "Fret 12"
      0 57 "Fret 11"
      0 56 "Fret 10"
      0 55 "Fret 9"
      0 53 "Fret 8"
      0 52 "Fret 7"
      0 50 "Fret 6"
      0 49 "Fret 5"
      0 47 "Fret 4"
      0 45 "Fret 3"
      0 43 "Fret 2"
      0 40 "Fret 1"
    >
    MAINSEND 1 0
    <FXCHAIN
      WNDRECT 0 43 891 559
      SHOW 0
      LASTSEL 0
      DOCKED 0
      BYPASS 0 0
      <VST "VSTi: RBN Preview (RBN)" "rbprev_vst64.dll" 0 ""
        dnBicu5e7f4AAAAAAgAAAAEAAAAAAAAAAgAAAAAAAAAEAAAAAQAAAA==
        AAAQAAMAqgAAABAAAAA=
      >
      FLOATPOS 0 0 0 0
      FXID {B8781DD9-FD43-4230-9ABF-3DE039696576}
      WAK 0
    >
    <ITEM
      POSITION 0.00000000000000
      SNAPOFFS 0.00000000000000
      LENGTH 300.00000000000000
      LOOP 0
      ALLTAKES 0
      SEL 0
      FADEIN 1 0.000000 0.000000 1 0
      FADEOUT 1 0.000000 0.000000 1 0
      MUTE 0
      IGUID {CF179E1E-247D-41A7-9722-A5147AD94688}
      IID 2
      NAME "PART BASS"
      VOLPAN 1.000000 0.000000 1.000000 -1.000000
      SOFFS 0.00000000000000 0.00000000000000
      PLAYRATE 1.00000000000000 1 0.00000000000000 -1
      CHANMODE 0
      GUID {D350947E-1C26-4748-8CAF-AFD1C267289E}
      <SOURCE MIDI
        HASDATA 1 480 QN
        POOLEDEVTS {94A75EEB-9C2C-4CB8-8B34-C80D50C0DDB9}
        <X 0 0
          /wNQQVJUIEJBU1M=
        >
        <X 7680 0
          /wFbbWFwIFN0cnVtTWFwX1BpY2td
        >
        <X 0 0
          /wFbaWRsZV0=
        >
        <X 7680 0
          /wFbcGxheV0=
        >
        E 0 90 28 60
        E 0 90 3e 60
        E 0 90 4b 60
        E 0 90 57 60
        E 0 90 63 60
        E 0 90 74 60
        E 120 80 3e 00
        E 0 80 4b 00
        E 0 80 57 00
        E 0 80 63 00
        E 120 90 4b 60
        E 0 90 57 60
        E 0 90 63 60
        E 120 80 4b 00
        E 0 80 57 00
        E 0 80 63 00
        E 120 90 3e 60
        E 0 90 4b 60
        E 0 90 57 60
        E 0 90 63 60
        E 120 80 3e 00
        E 0 80 4b 00
        E 0 80 57 00
        E 0 80 63 00
        E 120 90 4b 60
        E 0 90 57 60
        E 0 90 63 60
        E 120 80 4b 00
        E 0 80 57 00
        E 0 80 63 00
        E 120 90 3e 60
        E 0 90 4b 60
        E 0 90 57 60
        E 0 90 63 60
        E 120 80 3e 00
        E 0 80 4b 00
        E 0 80 57 00
        E 0 80 63 00
        E 120 90 4b 60
        E 0 90 57 60
        E 0 90 63 60
        E 120 80 4b 00
        E 0 80 57 00
        E 0 80 63 00
        E 120 90 4b 60
        E 0 90 57 60
        E 0 90 63 60
        E 120 80 4b 00
        E 0 80 57 00
        E 0 80 63 00
        E 120 90 57 60
        E 0 90 63 60
        E 120 80 57 00
        E 0 80 63 00
        E 120 90 3c 60
        E 0 90 48 60
        E 0 90 54 60
        E 0 90 60 60
        E 120 80 3c 00
        E 0 80 48 00
        E 0 80 54 00
        E 0 80 60 00
        E 120 90 48 60
        E 0 90 54 60
        E 0 90 60 60
        E 120 80 48 00
        E 0 80 54 00
        E 0 80 60 00
        E 120 90 3c 60
        E 0 90 48 60
        E 0 90 54 60
        E 0 90 60 60
        E 120 80 3c 00
        E 0 80 48 00
        E 0 80 54 00
        E 0 80 60 00
        E 120 90 48 60
        E 0 90 54 60
        E 0 90 60 60
        E 120 80 48 00
        E 0 80 54 00
        E 0 80 60 00
        E 120 90 3c 60
        E 0 90 48 60
        E 0 90 54 60
        E 0 90 60 60
        E 120 80 3c 00
        E 0 80 48 00
        E 0 80 54 00
        E 0 80 60 00
        E 120 90 48 60
        E 0 90 54 60
        E 0 90 60 60
        E 120 80 48 00
        E 0 80 54 00
        E 0 80 60 00
        E 120 90 48 60
        E 0 90 54 60
        E 0 90 60 60
        E 120 80 48 00
        E 0 80 54 00
        E 0 80 60 00
        E 120 90 54 60
        E 0 90 60 60
        E 120 80 28 00
        E 0 80 54 00
        E 0 80 60 00
        E 120 80 74 00
        E 0 90 2f 60
        E 0 90 3d 60
        E 0 90 4a 60
        E 0 90 56 60
        E 0 90 62 60
        E 120 80 3d 00
        E 0 80 4a 00
        E 0 80 56 00
        E 0 80 62 00
        E 120 90 4a 60
        E 0 90 56 60
        E 0 90 62 60
        E 120 80 4a 00
        E 0 80 56 00
        E 0 80 62 00
        E 120 90 3d 60
        E 0 90 4a 60
        E 0 90 56 60
        E 0 90 62 60
        E 120 80 3d 00
        E 0 80 4a 00
        E 0 80 56 00
        E 0 80 62 00
        E 120 90 4a 60
        E 0 90 56 60
        E 0 90 62 60
        E 120 80 4a 00
        E 0 80 56 00
        E 0 80 62 00
        E 120 90 3d 60
        E 0 90 4a 60
        E 0 90 56 60
        E 0 90 62 60
        E 120 80 3d 00
        E 0 80 4a 00
        E 0 80 56 00
        E 0 80 62 00
        E 120 90 4a 60
        E 0 90 56 60
        E 0 90 62 60
        E 120 80 4a 00
        E 0 80 56 00
        E 0 80 62 00
        E 120 90 4a 60
        E 0 90 56 60
        E 0 90 62 60
        E 120 80 4a 00
        E 0 80 56 00
        E 0 80 62 00
        E 120 90 56 60
        E 0 90 62 60
        E 120 80 2f 00
        E 0 80 56 00
        E 0 80 62 00
        E 120 90 28 60
        E 0 90 3c 60
        E 0 90 48 60
        E 0 90 54 60
        E 0 90 60 60
        E 120 80 3c 00
        E 0 80 48 00
        E 0 80 54 00
        E 0 80 60 00
        E 120 90 48 60
        E 0 90 54 60
        E 0 90 60 60
        E 120 80 48 00
        E 0 80 54 00
        E 0 80 60 00
        E 120 90 3c 60
        E 0 90 48 60
        E 0 90 54 60
        E 0 90 60 60
        E 120 80 3c 00
        E 0 80 48 00
        E 0 80 54 00
        E 0 80 60 00
        E 120 90 48 60
        E 0 90 54 60
        E 0 90 60 60
        E 120 80 48 00
        E 0 80 54 00
        E 0 80 60 00
        E 120 90 3c 60
        E 0 90 48 60
        E 0 90 54 60
        E 0 90 60 60
        E 120 80 3c 00
        E 0 80 48 00
        E 0 80 54 00
        E 0 80 60 00
        E 120 90 48 60
        E 0 90 54 60
        E 0 90 60 60
        E 120 80 48 00
        E 0 80 54 00
        E 0 80 60 00
        E 120 90 48 60
        E 0 90 54 60
        E 0 90 60 60
        E 120 80 48 00
        E 0 80 54 00
        E 0 80 60 00
        E 120 90 54 60
        E 0 90 60 60
        E 120 80 54 00
        E 0 80 60 00
        E 120 90 3e 60
        E 0 90 4b 60
        E 0 90 57 60
        E 0 90 63 60
        E 120 80 3e 00
        E 0 80 4b 00
        E 0 80 57 00
        E 0 80 63 00
        E 120 90 4b 60
        E 0 90 57 60
        E 0 90 63 60
        E 120 80 4b 00
        E 0 80 57 00
        E 0 80 63 00
        E 120 90 3e 60
        E 0 90 4b 60
        E 0 90 57 60
        E 0 90 63 60
        E 120 80 3e 00
        E 0 80 4b 00
        E 0 80 57 00
        E 0 80 63 00
        E 120 90 4b 60
        E 0 90 57 60
        E 0 90 63 60
        E 120 80 4b 00
        E 0 80 57 00
        E 0 80 63 00
        E 120 90 3e 60
        E 0 90 4b 60
        E 0 90 57 60
        E 0 90 63 60
        E 120 80 3e 00
        E 0 80 4b 00
        E 0 80 57 00
        E 0 80 63 00
        E 120 90 4b 60
        E 0 90 57 60
        E 0 90 63 60
        E 120 80 4b 00
        E 0 80 57 00
        E 0 80 63 00
        E 120 90 4b 60
        E 0 90 57 60
        E 0 90 63 60
        E 120 80 4b 00
        E 0 80 57 00
        E 0 80 63 00
        E 120 90 57 60
        E 0 90 63 60
        E 120 80 57 00
        E 0 80 63 00
        E 120 90 3c 60
        E 0 90 48 60
        E 0 90 54 60
        E 0 90 60 60
        E 120 80 3c 00
        E 0 80 48 00
        E 0 80 54 00
        E 0 80 60 00
        E 120 90 48 60
        E 0 90 54 60
        E 0 90 60 60
        E 120 80 48 00
        E 0 80 54 00
        E 0 80 60 00
        E 120 90 3c 60
        E 0 90 48 60
        E 0 90 54 60
        E 0 90 60 60
        E 120 80 3c 00
        E 0 80 48 00
        E 0 80 54 00
        E 0 80 60 00
        E 120 90 48 60
        E 0 90 54 60
        E 0 90 60 60
        E 120 80 48 00
        E 0 80 54 00
        E 0 80 60 00
        E 120 90 3c 60
        E 0 90 48 60
        E 0 90 54 60
        E 0 90 60 60
        E 120 80 3c 00
        E 0 80 48 00
        E 0 80 54 00
        E 0 80 60 00
        E 120 90 48 60
        E 0 90 54 60
        E 0 90 60 60
        E 120 80 48 00
        E 0 80 54 00
        E 0 80 60 00
        E 120 90 48 60
        E 0 90 54 60
        E 0 90 60 60
        E 120 80 48 00
        E 0 80 54 00
        E 0 80 60 00
        E 120 90 54 60
        E 0 90 60 60
        E 120 80 28 00
        E 0 80 54 00
        E 0 80 60 00
        E 120 90 2f 60
        E 0 90 3d 60
        E 0 90 4a 60
        E 0 90 56 60
        E 0 90 62 60
        E 120 80 3d 00
        E 0 80 4a 00
        E 0 80 56 00
        E 0 80 62 00
        E 120 90 4a 60
        E 0 90 56 60
        E 0 90 62 60
        E 120 80 4a 00
        E 0 80 56 00
        E 0 80 62 00
        E 120 90 3d 60
        E 0 90 4a 60
        E 0 90 56 60
        E 0 90 62 60
        E 120 80 3d 00
        E 0 80 4a 00
        E 0 80 56 00
        E 0 80 62 00
        E 120 90 4a 60
        E 0 90 56 60
        E 0 90 62 60
        E 120 80 4a 00
        E 0 80 56 00
        E 0 80 62 00
        E 120 90 3d 60
        E 0 90 4a 60
        E 0 90 56 60
        E 0 90 62 60
        E 120 80 3d 00
        E 0 80 4a 00
        E 0 80 56 00
        E 0 80 62 00
        E 120 90 4a 60
        E 0 90 56 60
        E 0 90 62 60
        E 120 80 4a 00
        E 0 80 56 00
        E 0 80 62 00
        E 120 90 4a 60
        E 0 90 56 60
        E 0 90 62 60
        E 120 80 4a 00
        E 0 80 56 00
        E 0 80 62 00
        E 120 90 56 60
        E 0 90 62 60
        E 120 80 2f 00
        E 0 80 56 00
        E 0 80 62 00
        E 120 90 28 60
        E 0 90 3c 60
        E 0 90 48 60
        E 0 90 54 60
        E 0 90 60 60
        E 120 80 3c 00
        E 0 80 48 00
        E 0 80 54 00
        E 0 80 60 00
        E 120 90 48 60
        E 0 90 54 60
        E 0 90 60 60
        E 120 80 48 00
        E 0 80 54 00
        E 0 80 60 00
        E 120 90 3c 60
        E 0 90 48 60
        E 0 90 54 60
        E 0 90 60 60
        E 120 80 3c 00
        E 0 80 48 00
        E 0 80 54 00
        E 0 80 60 00
        E 120 90 48 60
        E 0 90 54 60
        E 0 90 60 60
        E 120 80 48 00
        E 0 80 54 00
        E 0 80 60 00
        E 120 90 3c 60
        E 0 90 48 60
        E 0 90 54 60
        E 0 90 60 60
        E 120 80 3c 00
        E 0 80 48 00
        E 0 80 54 00
        E 0 80 60 00
        E 120 90 48 60
        E 0 90 54 60
        E 0 90 60 60
        E 120 80 48 00
        E 0 80 54 00
        E 0 80 60 00
        E 120 90 48 60
        E 0 90 54 60
        E 0 90 60 60
        E 120 80 48 00
        E 0 80 54 00
        E 0 80 60 00
        E 120 90 54 60
        E 0 90 60 60
        E 120 80 54 00
        E 0 80 60 00
        E 120 90 3e 60
        E 0 90 4b 60
        E 0 90 57 60
        E 0 90 63 60
        E 120 80 3e 00
        E 0 80 4b 00
        E 0 80 57 00
        E 0 80 63 00
        E 120 90 4b 60
        E 0 90 57 60
        E 0 90 63 60
        E 120 80 4b 00
        E 0 80 57 00
        E 0 80 63 00
        E 120 90 3e 60
        E 0 90 4b 60
        E 0 90 57 60
        E 0 90 63 60
        E 120 80 3e 00
        E 0 80 4b 00
        E 0 80 57 00
        E 0 80 63 00
        E 120 90 4b 60
        E 0 90 57 60
        E 0 90 63 60
        E 120 80 4b 00
        E 0 80 57 00
        E 0 80 63 00
        E 120 90 3e 60
        E 0 90 4b 60
        E 0 90 57 60
        E 0 90 63 60
        E 120 80 3e 00
        E 0 80 4b 00
        E 0 80 57 00
        E 0 80 63 00
        E 120 90 4b 60
        E 0 90 57 60
        E 0 90 63 60
        E 120 80 4b 00
        E 0 80 57 00
        E 0 80 63 00
        E 120 90 4b 60
        E 0 90 57 60
        E 0 90 63 60
        E 120 80 4b 00
        E 0 80 57 00
        E 0 80 63 00
        E 120 90 57 60
        E 0 90 63 60
        E 120 80 57 00
        E 0 80 63 00
        E 120 90 3c 60
        E 0 90 48 60
        E 0 90 54 60
        E 0 90 60 60
        E 120 80 3c 00
        E 0 80 48 00
        E 0 80 54 00
        E 0 80 60 00
        E 120 90 48 60
        E 0 90 54 60
        E 0 90 60 60
        E 120 80 48 00
        E 0 80 54 00
        E 0 80 60 00
        E 120 90 3c 60
        E 0 90 48 60
        E 0 90 54 60
        E 0 90 60 60
        E 120 80 3c 00
        E 0 80 48 00
        E 0 80 54 00
        E 0 80 60 00
        E 120 90 48 60
        E 0 90 54 60
        E 0 90 60 60
        E 120 80 48 00
        E 0 80 54 00
        E 0 80 60 00
        E 120 90 3c 60
        E 0 90 48 60
        E 0 90 54 60
        E 0 90 60 60
        E 120 80 3c 00
        E 0 80 48 00
        E 0 80 54 00
        E 0 80 60 00
        E 120 90 48 60
        E 0 90 54 60
        E 0 90 60 60
        E 120 80 48 00
        E 0 80 54 00
        E 0 80 60 00
        E 120 90 48 60
        E 0 90 54 60
        E 0 90 60 60
        E 120 80 48 00
        E 0 80 54 00
        E 0 80 60 00
        E 120 90 54 60
        E 0 90 60 60
        E 120 80 28 00
        E 0 80 54 00
        E 0 80 60 00
        E 120 90 2f 60
        E 0 90 3d 60
        E 0 90 4a 60
        E 0 90 56 60
        E 0 90 62 60
        E 0 90 74 60
        E 120 80 3d 00
        E 0 80 4a 00
        E 0 80 56 00
        E 0 80 62 00
        E 120 90 4a 60
        E 0 90 56 60
        E 0 90 62 60
        E 120 80 4a 00
        E 0 80 56 00
        E 0 80 62 00
        E 120 90 3d 60
        E 0 90 4a 60
        E 0 90 56 60
        E 0 90 62 60
        E 120 80 3d 00
        E 0 80 4a 00
        E 0 80 56 00
        E 0 80 62 00
        E 120 90 4a 60
        E 0 90 56 60
        E 0 90 62 60
        E 120 80 4a 00
        E 0 80 56 00
        E 0 80 62 00
        E 120 90 3d 60
        E 0 90 4a 60
        E 0 90 56 60
        E 0 90 62 60
        E 120 80 3d 00
        E 0 80 4a 00
        E 0 80 56 00
        E 0 80 62 00
        E 120 90 4a 60
        E 0 90 56 60
        E 0 90 62 60
        E 120 80 4a 00
        E 0 80 56 00
        E 0 80 62 00
        E 120 90 4a 60
        E 0 90 56 60
        E 0 90 62 60
        E 120 80 4a 00
        E 0 80 56 00
        E 0 80 62 00
        E 120 90 56 60
        E 0 90 62 60
        E 120 80 2f 00
        E 0 80 56 00
        E 0 80 62 00
        E 120 80 74 00
        E 0 90 28 60
        E 0 90 3c 60
        E 0 90 48 60
        E 0 90 54 60
        E 0 90 60 60
        E 120 80 3c 00
        E 0 80 48 00
        E 0 80 54 00
        E 0 80 60 00
        E 120 90 48 60
        E 0 90 54 60
        E 0 90 60 60
        E 120 80 48 00
        E 0 80 54 00
        E 0 80 60 00
        E 120 90 3c 60
        E 0 90 48 60
        E 0 90 54 60
        E 0 90 60 60
        E 120 80 3c 00
        E 0 80 48 00
        E 0 80 54 00
        E 0 80 60 00
        E 120 90 48 60
        E 0 90 54 60
        E 0 90 60 60
        E 120 80 48 00
        E 0 80 54 00
        E 0 80 60 00
        E 120 90 3c 60
        E 0 90 48 60
        E 0 90 54 60
        E 0 90 60 60
        E 120 80 3c 00
        E 0 80 48 00
        E 0 80 54 00
        E 0 80 60 00
        E 120 90 48 60
        E 0 90 54 60
        E 0 90 60 60
        E 120 80 48 00
        E 0 80 54 00
        E 0 80 60 00
        E 120 90 48 60
        E 0 90 54 60
        E 0 90 60 60
        E 120 80 48 00
        E 0 80 54 00
        E 0 80 60 00
        E 120 90 54 60
        E 0 90 60 60
        E 120 80 54 00
        E 0 80 60 00
        E 120 90 3e 60
        E 0 90 4b 60
        E 0 90 57 60
        E 0 90 63 60
        E 120 80 3e 00
        E 0 80 4b 00
        E 0 80 57 00
        E 0 80 63 00
        E 120 90 4b 60
        E 0 90 57 60
        E 0 90 63 60
        E 120 80 4b 00
        E 0 80 57 00
        E 0 80 63 00
        E 120 90 3e 60
        E 0 90 4b 60
        E 0 90 57 60
        E 0 90 63 60
        E 120 80 3e 00
        E 0 80 4b 00
        E 0 80 57 00
        E 0 80 63 00
        E 120 90 4b 60
        E 0 90 57 60
        E 0 90 63 60
        E 120 80 4b 00
        E 0 80 57 00
        E 0 80 63 00
        E 120 90 3e 60
        E 0 90 4b 60
        E 0 90 57 60
        E 0 90 63 60
        E 120 80 3e 00
        E 0 80 4b 00
        E 0 80 57 00
        E 0 80 63 00
        E 120 90 4b 60
        E 0 90 57 60
        E 0 90 63 60
        E 120 80 4b 00
        E 0 80 57 00
        E 0 80 63 00
        E 120 90 4b 60
        E 0 90 57 60
        E 0 90 63 60
        E 120 80 4b 00
        E 0 80 57 00
        E 0 80 63 00
        E 120 90 57 60
        E 0 90 63 60
        E 120 80 57 00
        E 0 80 63 00
        E 120 90 3c 60
        E 0 90 48 60
        E 0 90 54 60
        E 0 90 60 60
        E 120 80 3c 00
        E 0 80 48 00
        E 0 80 54 00
        E 0 80 60 00
        E 120 90 48 60
        E 0 90 54 60
        E 0 90 60 60
        E 120 80 48 00
        E 0 80 54 00
        E 0 80 60 00
        E 120 90 3c 60
        E 0 90 48 60
        E 0 90 54 60
        E 0 90 60 60
        E 120 80 3c 00
        E 0 80 48 00
        E 0 80 54 00
        E 0 80 60 00
        E 120 90 48 60
        E 0 90 54 60
        E 0 90 60 60
        E 120 80 48 00
        E 0 80 54 00
        E 0 80 60 00
        E 120 90 3c 60
        E 0 90 48 60
        E 0 90 54 60
        E 0 90 60 60
        E 120 80 3c 00
        E 0 80 48 00
        E 0 80 54 00
        E 0 80 60 00
        E 120 90 48 60
        E 0 90 54 60
        E 0 90 60 60
        E 120 80 48 00
        E 0 80 54 00
        E 0 80 60 00
        E 120 90 48 60
        E 0 90 54 60
        E 0 90 60 60
        E 120 80 48 00
        E 0 80 54 00
        E 0 80 60 00
        E 120 90 54 60
        E 0 90 60 60
        E 120 80 28 00
        E 0 80 54 00
        E 0 80 60 00
        E 120 90 2f 60
        E 0 90 3d 60
        E 0 90 4a 60
        E 0 90 56 60
        E 0 90 62 60
        E 120 80 3d 00
        E 0 80 4a 00
        E 0 80 56 00
        E 0 80 62 00
        E 120 90 4a 60
        E 0 90 56 60
        E 0 90 62 60
        E 120 80 4a 00
        E 0 80 56 00
        E 0 80 62 00
        E 120 90 3d 60
        E 0 90 4a 60
        E 0 90 56 60
        E 0 90 62 60
        E 120 80 3d 00
        E 0 80 4a 00
        E 0 80 56 00
        E 0 80 62 00
        E 120 90 4a 60
        E 0 90 56 60
        E 0 90 62 60
        E 120 80 4a 00
        E 0 80 56 00
        E 0 80 62 00
        E 120 90 3d 60
        E 0 90 4a 60
        E 0 90 56 60
        E 0 90 62 60
        E 120 80 3d 00
        E 0 80 4a 00
        E 0 80 56 00
        E 0 80 62 00
        E 120 90 4a 60
        E 0 90 56 60
        E 0 90 62 60
        E 120 80 4a 00
        E 0 80 56 00
        E 0 80 62 00
        E 120 90 4a 60
        E 0 90 56 60
        E 0 90 62 60
        E 120 80 4a 00
        E 0 80 56 00
        E 0 80 62 00
        E 120 90 56 60
        E 0 90 62 60
        E 120 80 2f 00
        E 0 80 56 00
        E 0 80 62 00
        E 120 90 28 60
        E 0 90 3c 60
        E 0 90 48 60
        E 0 90 54 60
        E 0 90 60 60
        E 120 80 3c 00
        E 0 80 48 00
        E 0 80 54 00
        E 0 80 60 00
        E 120 90 48 60
        E 0 90 54 60
        E 0 90 60 60
        E 120 80 48 00
        E 0 80 54 00
        E 0 80 60 00
        E 120 90 3c 60
        E 0 90 48 60
        E 0 90 54 60
        E 0 90 60 60
        E 120 80 3c 00
        E 0 80 48 00
        E 0 80 54 00
        E 0 80 60 00
        E 120 90 48 60
        E 0 90 54 60
        E 0 90 60 60
        E 120 80 48 00
        E 0 80 54 00
        E 0 80 60 00
        E 120 90 3c 60
        E 0 90 48 60
        E 0 90 54 60
        E 0 90 60 60
        E 120 80 3c 00
        E 0 80 48 00
        E 0 80 54 00
        E 0 80 60 00
        E 120 90 48 60
        E 0 90 54 60
        E 0 90 60 60
        E 120 80 48 00
        E 0 80 54 00
        E 0 80 60 00
        E 120 90 48 60
        E 0 90 54 60
        E 0 90 60 60
        E 120 80 48 00
        E 0 80 54 00
        E 0 80 60 00
        E 120 90 54 60
        E 0 90 60 60
        E 120 80 54 00
        E 0 80 60 00
        E 120 90 3e 60
        E 0 90 4b 60
        E 0 90 57 60
        E 0 90 63 60
        E 120 80 3e 00
        E 0 80 4b 00
        E 0 80 57 00
        E 0 80 63 00
        E 120 90 4b 60
        E 0 90 57 60
        E 0 90 63 60
        E 120 80 4b 00
        E 0 80 57 00
        E 0 80 63 00
        E 120 90 3e 60
        E 0 90 4b 60
        E 0 90 57 60
        E 0 90 63 60
        E 120 80 3e 00
        E 0 80 4b 00
        E 0 80 57 00
        E 0 80 63 00
        E 120 90 4b 60
        E 0 90 57 60
        E 0 90 63 60
        E 120 80 4b 00
        E 0 80 57 00
        E 0 80 63 00
        E 120 90 3e 60
        E 0 90 4b 60
        E 0 90 57 60
        E 0 90 63 60
        E 120 80 3e 00
        E 0 80 4b 00
        E 0 80 57 00
        E 0 80 63 00
        E 120 90 4b 60
        E 0 90 57 60
        E 0 90 63 60
        E 120 80 4b 00
        E 0 80 57 00
        E 0 80 63 00
        E 120 90 4b 60
        E 0 90 57 60
        E 0 90 63 60
        E 120 80 4b 00
        E 0 80 57 00
        E 0 80 63 00
        E 120 90 57 60
        E 0 90 63 60
        E 120 80 57 00
        E 0 80 63 00
        E 120 90 3c 60
        E 0 90 48 60
        E 0 90 54 60
        E 0 90 60 60
        E 120 80 3c 00
        E 0 80 48 00
        E 0 80 54 00
        E 0 80 60 00
        E 120 90 48 60
        E 0 90 54 60
        E 0 90 60 60
        E 120 80 48 00
        E 0 80 54 00
        E 0 80 60 00
        E 120 90 3c 60
        E 0 90 48 60
        E 0 90 54 60
        E 0 90 60 60
        E 120 80 3c 00
        E 0 80 48 00
        E 0 80 54 00
        E 0 80 60 00
        E 120 90 48 60
        E 0 90 54 60
        E 0 90 60 60
        E 120 80 48 00
        E 0 80 54 00
        E 0 80 60 00
        E 120 90 3c 60
        E 0 90 48 60
        E 0 90 54 60
        E 0 90 60 60
        E 120 80 3c 00
        E 0 80 48 00
        E 0 80 54 00
        E 0 80 60 00
        E 120 90 48 60
        E 0 90 54 60
        E 0 90 60 60
        E 120 80 48 00
        E 0 80 54 00
        E 0 80 60 00
        E 120 90 48 60
        E 0 90 54 60
        E 0 90 60 60
        E 120 80 48 00
        E 0 80 54 00
        E 0 80 60 00
        E 120 90 54 60
        E 0 90 60 60
        E 120 80 28 00
        E 0 80 54 00
        E 0 80 60 00
        E 120 90 2f 60
        E 0 90 3d 60
        E 0 90 4a 60
        E 0 90 56 60
        E 0 90 62 60
        E 120 80 3d 00
        E 0 80 4a 00
        E 0 80 56 00
        E 0 80 62 00
        E 120 90 4a 60
        E 0 90 56 60
        E 0 90 62 60
        E 120 80 4a 00
        E 0 80 56 00
        E 0 80 62 00
        E 120 90 3d 60
        E 0 90 4a 60
        E 0 90 56 60
        E 0 90 62 60
        E 120 80 3d 00
        E 0 80 4a 00
        E 0 80 56 00
        E 0 80 62 00
        E 120 90 4a 60
        E 0 90 56 60
        E 0 90 62 60
        E 120 80 4a 00
        E 0 80 56 00
        E 0 80 62 00
        E 120 90 3d 60
        E 0 90 4a 60
        E 0 90 56 60
        E 0 90 62 60
        E 120 80 3d 00
        E 0 80 4a 00
        E 0 80 56 00
        E 0 80 62 00
        E 120 90 4a 60
        E 0 90 56 60
        E 0 90 62 60
        E 120 80 4a 00
        E 0 80 56 00
        E 0 80 62 00
        E 120 90 4a 60
        E 0 90 56 60
        E 0 90 62 60
        E 120 80 4a 00
        E 0 80 56 00
        E 0 80 62 00
        E 120 90 56 60
        E 0 90 62 60
        E 120 80 2f 00
        E 0 80 56 00
        E 0 80 62 00
        E 120 90 28 60
        E 0 90 3c 60
        E 0 90 48 60
        E 0 90 54 60
        E 0 90 60 60
        E 120 80 3c 00
        E 0 80 48 00
        E 0 80 54 00
        E 0 80 60 00
        E 120 90 48 60
        E 0 90 54 60
        E 0 90 60 60
        E 120 80 48 00
        E 0 80 54 00
        E 0 80 60 00
        E 120 90 3c 60
        E 0 90 48 60
        E 0 90 54 60
        E 0 90 60 60
        E 120 80 3c 00
        E 0 80 48 00
        E 0 80 54 00
        E 0 80 60 00
        E 120 90 48 60
        E 0 90 54 60
        E 0 90 60 60
        E 120 80 48 00
        E 0 80 54 00
        E 0 80 60 00
        E 120 90 3c 60
        E 0 90 48 60
        E 0 90 54 60
        E 0 90 60 60
        E 120 80 3c 00
        E 0 80 48 00
        E 0 80 54 00
        E 0 80 60 00
        E 120 90 48 60
        E 0 90 54 60
        E 0 90 60 60
        E 120 80 48 00
        E 0 80 54 00
        E 0 80 60 00
        E 120 90 48 60
        E 0 90 54 60
        E 0 90 60 60
        E 120 80 48 00
        E 0 80 54 00
        E 0 80 60 00
        E 120 90 54 60
        E 0 90 60 60
        E 120 80 54 00
        E 0 80 60 00
        E 120 90 3e 60
        E 0 90 4b 60
        E 0 90 57 60
        E 0 90 63 60
        E 0 90 74 60
        E 120 80 3e 00
        E 0 80 4b 00
        E 0 80 57 00
        E 0 80 63 00
        E 120 90 4b 60
        E 0 90 57 60
        E 0 90 63 60
        E 120 80 4b 00
        E 0 80 57 00
        E 0 80 63 00
        E 120 90 3e 60
        E 0 90 4b 60
        E 0 90 57 60
        E 0 90 63 60
        E 120 80 3e 00
        E 0 80 4b 00
        E 0 80 57 00
        E 0 80 63 00
        E 120 90 4b 60
        E 0 90 57 60
        E 0 90 63 60
        E 120 80 4b 00
        E 0 80 57 00
        E 0 80 63 00
        E 120 90 3e 60
        E 0 90 4b 60
        E 0 90 57 60
        E 0 90 63 60
        E 120 80 3e 00
        E 0 80 4b 00
        E 0 80 57 00
        E 0 80 63 00
        E 120 90 4b 60
        E 0 90 57 60
        E 0 90 63 60
        E 120 80 4b 00
        E 0 80 57 00
        E 0 80 63 00
        E 120 90 4b 60
        E 0 90 57 60
        E 0 90 63 60
        E 120 80 4b 00
        E 0 80 57 00
        E 0 80 63 00
        E 120 90 57 60
        E 0 90 63 60
        E 120 80 57 00
        E 0 80 63 00
        E 120 90 3c 60
        E 0 90 48 60
        E 0 90 54 60
        E 0 90 60 60
        E 120 80 74 00
        E 0 80 3c 00
        E 0 80 48 00
        E 0 80 54 00
        E 0 80 60 00
        E 120 90 48 60
        E 0 90 54 60
        E 0 90 60 60
        E 120 80 48 00
        E 0 80 54 00
        E 0 80 60 00
        E 120 90 3c 60
        E 0 90 48 60
        E 0 90 54 60
        E 0 90 60 60
        E 120 80 3c 00
        E 0 80 48 00
        E 0 80 54 00
        E 0 80 60 00
        E 120 90 48 60
        E 0 90 54 60
        E 0 90 60 60
        E 120 80 48 00
        E 0 80 54 00
        E 0 80 60 00
        E 120 90 3c 60
        E 0 90 48 60
        E 0 90 54 60
        E 0 90 60 60
        E 120 80 3c 00
        E 0 80 48 00
        E 0 80 54 00
        E 0 80 60 00
        E 120 90 48 60
        E 0 90 54 60
        E 0 90 60 60
        E 120 80 48 00
        E 0 80 54 00
        E 0 80 60 00
        E 120 90 48 60
        E 0 90 54 60
        E 0 90 60 60
        E 120 80 48 00
        E 0 80 54 00
        E 0 80 60 00
        E 120 90 54 60
        E 0 90 60 60
        E 120 80 28 00
        E 0 80 54 00
        E 0 80 60 00
        E 120 90 2f 60
        E 0 90 3d 60
        E 0 90 4a 60
        E 0 90 56 60
        E 0 90 62 60
        E 120 80 3d 00
        E 0 80 4a 00
        E 0 80 56 00
        E 0 80 62 00
        E 120 90 4a 60
        E 0 90 56 60
        E 0 90 62 60
        E 120 80 4a 00
        E 0 80 56 00
        E 0 80 62 00
        E 120 90 3d 60
        E 0 90 4a 60
        E 0 90 56 60
        E 0 90 62 60
        E 120 80 3d 00
        E 0 80 4a 00
        E 0 80 56 00
        E 0 80 62 00
        E 120 90 4a 60
        E 0 90 56 60
        E 0 90 62 60
        E 120 80 4a 00
        E 0 80 56 00
        E 0 80 62 00
        E 120 90 3d 60
        E 0 90 4a 60
        E 0 90 56 60
        E 0 90 62 60
        E 120 80 3d 00
        E 0 80 4a 00
        E 0 80 56 00
        E 0 80 62 00
        E 120 90 4a 60
        E 0 90 56 60
        E 0 90 62 60
        E 120 80 4a 00
        E 0 80 56 00
        E 0 80 62 00
        E 120 90 4a 60
        E 0 90 56 60
        E 0 90 62 60
        E 120 80 4a 00
        E 0 80 56 00
        E 0 80 62 00
        E 120 90 56 60
        E 0 90 62 60
        E 120 80 2f 00
        E 0 80 56 00
        E 0 80 62 00
        E 120 90 28 60
        E 0 90 3c 60
        E 0 90 48 60
        E 0 90 54 60
        E 0 90 60 60
        E 120 80 3c 00
        E 0 80 48 00
        E 0 80 54 00
        E 0 80 60 00
        E 120 90 48 60
        E 0 90 54 60
        E 0 90 60 60
        E 120 80 48 00
        E 0 80 54 00
        E 0 80 60 00
        E 120 90 3c 60
        E 0 90 48 60
        E 0 90 54 60
        E 0 90 60 60
        E 120 80 3c 00
        E 0 80 48 00
        E 0 80 54 00
        E 0 80 60 00
        E 120 90 48 60
        E 0 90 54 60
        E 0 90 60 60
        E 120 80 48 00
        E 0 80 54 00
        E 0 80 60 00
        E 120 90 3c 60
        E 0 90 48 60
        E 0 90 54 60
        E 0 90 60 60
        E 120 80 3c 00
        E 0 80 48 00
        E 0 80 54 00
        E 0 80 60 00
        E 120 90 48 60
        E 0 90 54 60
        E 0 90 60 60
        E 120 80 48 00
        E 0 80 54 00
        E 0 80 60 00
        E 120 90 48 60
        E 0 90 54 60
        E 0 90 60 60
        E 120 80 48 00
        E 0 80 54 00
        E 0 80 60 00
        E 120 90 54 60
        E 0 90 60 60
        E 120 80 54 00
        E 0 80 60 00
        <X 120 0
          /wFbbWVsbG93XQ==
        >
        E 0 90 3e 60
        E 0 90 4b 60
        E 0 90 57 60
        E 0 90 63 60
        E 120 80 3e 00
        E 0 80 4b 00
        E 0 80 57 00
        E 0 80 63 00
        E 120 90 4b 60
        E 0 90 57 60
        E 0 90 63 60
        E 120 80 4b 00
        E 0 80 57 00
        E 0 80 63 00
        E 120 90 3e 60
        E 0 90 4b 60
        E 0 90 57 60
        E 0 90 63 60
        E 120 80 3e 00
        E 0 80 4b 00
        E 0 80 57 00
        E 0 80 63 00
        E 120 90 4b 60
        E 0 90 57 60
        E 0 90 63 60
        E 120 80 4b 00
        E 0 80 57 00
        E 0 80 63 00
        E 120 90 3e 60
        E 0 90 4b 60
        E 0 90 57 60
        E 0 90 63 60
        E 120 80 3e 00
        E 0 80 4b 00
        E 0 80 57 00
        E 0 80 63 00
        E 120 90 4b 60
        E 0 90 57 60
        E 0 90 63 60
        E 120 80 4b 00
        E 0 80 57 00
        E 0 80 63 00
        E 120 90 3e 60
        E 0 90 4b 60
        E 0 90 57 60
        E 0 90 63 60
        E 120 80 3e 00
        E 0 80 4b 00
        E 0 80 57 00
        E 0 80 63 00
        E 120 90 4b 60
        E 0 90 57 60
        E 0 90 63 60
        E 120 80 4b 00
        E 0 80 57 00
        E 0 80 63 00
        E 120 90 3e 60
        E 0 90 4b 60
        E 0 90 57 60
        E 0 90 63 60
        E 120 80 3e 00
        E 0 80 4b 00
        E 0 80 57 00
        E 0 80 63 00
        E 120 90 4b 60
        E 0 90 57 60
        E 0 90 63 60
        E 120 80 4b 00
        E 0 80 57 00
        E 0 80 63 00
        E 120 90 3e 60
        E 0 90 4b 60
        E 0 90 57 60
        E 0 90 63 60
        E 120 80 3e 00
        E 0 80 4b 00
        E 0 80 57 00
        E 0 80 63 00
        E 120 90 4b 60
        E 0 90 57 60
        E 0 90 63 60
        E 120 80 4b 00
        E 0 80 57 00
        E 0 80 63 00
        E 120 90 3e 60
        E 0 90 4b 60
        E 0 90 57 60
        E 0 90 63 60
        E 120 80 3e 00
        E 0 80 4b 00
        E 0 80 57 00
        E 0 80 63 00
        E 120 90 4b 60
        E 0 90 57 60
        E 0 90 63 60
        E 120 80 4b 00
        E 0 80 57 00
        E 0 80 63 00
        E 120 90 4b 60
        E 0 90 57 60
        E 0 90 63 60
        E 120 80 4b 00
        E 0 80 57 00
        E 0 80 63 00
        E 120 90 57 60
        E 0 90 63 60
        E 120 80 57 00
        E 0 80 63 00
        E 120 90 3c 60
        E 0 90 48 60
        E 0 90 54 60
        E 0 90 60 60
        E 120 80 3c 00
        E 0 80 48 00
        E 0 80 54 00
        E 0 80 60 00
        E 120 90 48 60
        E 0 90 54 60
        E 0 90 60 60
        E 120 80 48 00
        E 0 80 54 00
        E 0 80 60 00
        E 120 90 3c 60
        E 0 90 48 60
        E 0 90 54 60
        E 0 90 60 60
        E 120 80 3c 00
        E 0 80 48 00
        E 0 80 54 00
        E 0 80 60 00
        E 120 90 48 60
        E 0 90 54 60
        E 0 90 60 60
        E 120 80 48 00
        E 0 80 54 00
        E 0 80 60 00
        E 120 90 3c 60
        E 0 90 48 60
        E 0 90 54 60
        E 0 90 60 60
        E 120 80 3c 00
        E 0 80 48 00
        E 0 80 54 00
        E 0 80 60 00
        E 120 90 48 60
        E 0 90 54 60
        E 0 90 60 60
        E 120 80 48 00
        E 0 80 54 00
        E 0 80 60 00
        E 120 90 48 60
        E 0 90 54 60
        E 0 90 60 60
        E 120 80 48 00
        E 0 80 54 00
        E 0 80 60 00
        E 120 90 54 60
        E 0 90 60 60
        E 120 80 28 00
        E 0 80 54 00
        E 0 80 60 00
        E 120 90 2f 60
        E 0 90 3d 60
        E 0 90 4a 60
        E 0 90 56 60
        E 0 90 62 60
        E 120 80 3d 00
        E 0 80 4a 00
        E 0 80 56 00
        E 0 80 62 00
        E 120 90 4a 60
        E 0 90 56 60
        E 0 90 62 60
        E 120 80 4a 00
        E 0 80 56 00
        E 0 80 62 00
        E 120 90 3d 60
        E 0 90 4a 60
        E 0 90 56 60
        E 0 90 62 60
        E 120 80 3d 00
        E 0 80 4a 00
        E 0 80 56 00
        E 0 80 62 00
        E 120 90 4a 60
        E 0 90 56 60
        E 0 90 62 60
        E 120 80 4a 00
        E 0 80 56 00
        E 0 80 62 00
        E 120 90 3d 60
        E 0 90 4a 60
        E 0 90 56 60
        E 0 90 62 60
        E 120 80 3d 00
        E 0 80 4a 00
        E 0 80 56 00
        E 0 80 62 00
        E 120 90 4a 60
        E 0 90 56 60
        E 0 90 62 60
        E 120 80 4a 00
        E 0 80 56 00
        E 0 80 62 00
        E 120 90 4a 60
        E 0 90 56 60
        E 0 90 62 60
        E 120 80 4a 00
        E 0 80 56 00
        E 0 80 62 00
        E 120 90 56 60
        E 0 90 62 60
        E 120 80 2f 00
        E 0 80 56 00
        E 0 80 62 00
        E 120 90 28 60
        E 0 90 3e 60
        E 0 90 4b 60
        E 0 90 57 60
        E 0 90 63 60
        E 120 80 3e 00
        E 0 80 4b 00
        E 0 80 57 00
        E 0 80 63 00
        E 120 90 4b 60
        E 0 90 57 60
        E 0 90 63 60
        E 120 80 4b 00
        E 0 80 57 00
        E 0 80 63 00
        E 120 90 3e 60
        E 0 90 4b 60
        E 0 90 57 60
        E 0 90 63 60
        E 120 80 3e 00
        E 0 80 4b 00
        E 0 80 57 00
        E 0 80 63 00
        E 120 90 4b 60
        E 0 90 57 60
        E 0 90 63 60
        E 120 80 4b 00
        E 0 80 57 00
        E 0 80 63 00
        E 120 90 3e 60
        E 0 90 4b 60
        E 0 90 57 60
        E 0 90 63 60
        E 120 80 3e 00
        E 0 80 4b 00
        E 0 80 57 00
        E 0 80 63 00
        E 120 90 4b 60
        E 0 90 57 60
        E 0 90 63 60
        E 120 80 4b 00
        E 0 80 57 00
        E 0 80 63 00
        E 120 90 3e 60
        E 0 90 4b 60
        E 0 90 57 60
        E 0 90 63 60
        E 120 80 3e 00
        E 0 80 4b 00
        E 0 80 57 00
        E 0 80 63 00
        E 120 90 4b 60
        E 0 90 57 60
        E 0 90 63 60
        E 120 80 4b 00
        E 0 80 57 00
        E 0 80 63 00
        E 120 90 3e 60
        E 0 90 4b 60
        E 0 90 57 60
        E 0 90 63 60
        E 120 80 3e 00
        E 0 80 4b 00
        E 0 80 57 00
        E 0 80 63 00
        E 120 90 4b 60
        E 0 90 57 60
        E 0 90 63 60
        E 120 80 4b 00
        E 0 80 57 00
        E 0 80 63 00
        E 120 90 3e 60
        E 0 90 4b 60
        E 0 90 57 60
        E 0 90 63 60
        E 120 80 3e 00
        E 0 80 4b 00
        E 0 80 57 00
        E 0 80 63 00
        E 120 90 4b 60
        E 0 90 57 60
        E 0 90 63 60
        E 120 80 4b 00
        E 0 80 57 00
        E 0 80 63 00
        E 120 90 3e 60
        E 0 90 4b 60
        E 0 90 57 60
        E 0 90 63 60
        E 120 80 3e 00
        E 0 80 4b 00
        E 0 80 57 00
        E 0 80 63 00
        E 120 90 4b 60
        E 0 90 57 60
        E 0 90 63 60
        E 120 80 4b 00
        E 0 80 57 00
        E 0 80 63 00
        E 120 90 4b 60
        E 0 90 57 60
        E 0 90 63 60
        E 120 80 4b 00
        E 0 80 57 00
        E 0 80 63 00
        E 120 90 57 60
        E 0 90 63 60
        E 120 80 57 00
        E 0 80 63 00
        E 120 90 3c 60
        E 0 90 48 60
        E 0 90 54 60
        E 0 90 60 60
        E 0 90 74 60
        E 120 80 3c 00
        E 0 80 48 00
        E 0 80 54 00
        E 0 80 60 00
        E 120 90 48 60
        E 0 90 54 60
        E 0 90 60 60
        E 120 80 48 00
        E 0 80 54 00
        E 0 80 60 00
        E 120 90 3c 60
        E 0 90 48 60
        E 0 90 54 60
        E 0 90 60 60
        E 120 80 3c 00
        E 0 80 48 00
        E 0 80 54 00
        E 0 80 60 00
        E 120 90 48 60
        E 0 90 54 60
        E 0 90 60 60
        E 120 80 48 00
        E 0 80 54 00
        E 0 80 60 00
        E 120 90 3c 60
        E 0 90 48 60
        E 0 90 54 60
        E 0 90 60 60
        E 120 80 3c 00
        E 0 80 48 00
        E 0 80 54 00
        E 0 80 60 00
        E 120 90 48 60
        E 0 90 54 60
        E 0 90 60 60
        E 120 80 48 00
        E 0 80 54 00
        E 0 80 60 00
        E 120 90 48 60
        E 0 90 54 60
        E 0 90 60 60
        E 120 80 48 00
        E 0 80 54 00
        E 0 80 60 00
        E 120 90 54 60
        E 0 90 60 60
        E 120 80 28 00
        E 0 80 54 00
        E 0 80 60 00
        E 120 90 2f 60
        E 0 90 3d 60
        E 0 90 4a 60
        E 0 90 56 60
        E 0 90 62 60
        E 120 80 3d 00
        E 0 80 4a 00
        E 0 80 56 00
        E 0 80 62 00
        E 120 90 4a 60
        E 0 90 56 60
        E 0 90 62 60
        E 120 80 4a 00
        E 0 80 56 00
        E 0 80 62 00
        E 120 90 3d 60
        E 0 90 4a 60
        E 0 90 56 60
        E 0 90 62 60
        E 120 80 3d 00
        E 0 80 4a 00
        E 0 80 56 00
        E 0 80 62 00
        E 120 90 4a 60
        E 0 90 56 60
        E 0 90 62 60
        E 120 80 4a 00
        E 0 80 56 00
        E 0 80 62 00
        E 120 90 3d 60
        E 0 90 4a 60
        E 0 90 56 60
        E 0 90 62 60
        E 120 80 3d 00
        E 0 80 4a 00
        E 0 80 56 00
        E 0 80 62 00
        E 120 90 4a 60
        E 0 90 56 60
        E 0 90 62 60
        E 120 80 4a 00
        E 0 80 56 00
        E 0 80 62 00
        E 120 90 4a 60
        E 0 90 56 60
        E 0 90 62 60
        E 120 80 4a 00
        E 0 80 56 00
        E 0 80 62 00
        E 120 90 56 60
        E 0 90 62 60
        E 120 80 2f 00
        E 0 80 56 00
        E 0 80 62 00
        E 120 80 74 00
        E 0 90 28 60
        E 0 90 3e 60
        E 0 90 4b 60
        E 0 90 57 60
        E 0 90 63 60
        E 120 80 3e 00
        E 0 80 4b 00
        E 0 80 57 00
        E 0 80 63 00
        E 120 90 4b 60
        E 0 90 57 60
        E 0 90 63 60
        E 120 80 4b 00
        E 0 80 57 00
        E 0 80 63 00
        E 120 90 3e 60
        E 0 90 4b 60
        E 0 90 57 60
        E 0 90 63 60
        E 120 80 3e 00
        E 0 80 4b 00
        E 0 80 57 00
        E 0 80 63 00
        E 120 90 4b 60
        E 0 90 57 60
        E 0 90 63 60
        E 120 80 4b 00
        E 0 80 57 00
        E 0 80 63 00
        E 120 90 3e 60
        E 0 90 4b 60
        E 0 90 57 60
        E 0 90 63 60
        E 120 80 3e 00
        E 0 80 4b 00
        E 0 80 57 00
        E 0 80 63 00
        E 120 90 4b 60
        E 0 90 57 60
        E 0 90 63 60
        E 120 80 4b 00
        E 0 80 57 00
        E 0 80 63 00
        E 120 90 3e 60
        E 0 90 4b 60
        E 0 90 57 60
        E 0 90 63 60
        E 120 80 3e 00
        E 0 80 4b 00
        E 0 80 57 00
        E 0 80 63 00
        E 120 90 4b 60
        E 0 90 57 60
        E 0 90 63 60
        E 120 80 4b 00
        E 0 80 57 00
        E 0 80 63 00
        E 120 90 3e 60
        E 0 90 4b 60
        E 0 90 57 60
        E 0 90 63 60
        E 120 80 3e 00
        E 0 80 4b 00
        E 0 80 57 00
        E 0 80 63 00
        E 120 90 4b 60
        E 0 90 57 60
        E 0 90 63 60
        E 120 80 4b 00
        E 0 80 57 00
        E 0 80 63 00
        E 120 90 3e 60
        E 0 90 4b 60
        E 0 90 57 60
        E 0 90 63 60
        E 120 80 3e 00
        E 0 80 4b 00
        E 0 80 57 00
        E 0 80 63 00
        E 120 90 4b 60
        E 0 90 57 60
        E 0 90 63 60
        E 120 80 4b 00
        E 0 80 57 00
        E 0 80 63 00
        E 120 90 3e 60
        E 0 90 4b 60
        E 0 90 57 60
        E 0 90 63 60
        E 120 80 3e 00
        E 0 80 4b 00
        E 0 80 57 00
        E 0 80 63 00
        E 120 90 4b 60
        E 0 90 57 60
        E 0 90 63 60
        E 120 80 4b 00
        E 0 80 57 00
        E 0 80 63 00
        E 120 90 4b 60
        E 0 90 57 60
        E 0 90 63 60
        E 120 80 4b 00
        E 0 80 57 00
        E 0 80 63 00
        E 120 90 57 60
        E 0 90 63 60
        E 120 80 57 00
        E 0 80 63 00
        E 120 90 3c 60
        E 0 90 48 60
        E 0 90 54 60
        E 0 90 60 60
        E 120 80 3c 00
        E 0 80 48 00
        E 0 80 54 00
        E 0 80 60 00
        E 120 90 48 60
        E 0 90 54 60
        E 0 90 60 60
        E 120 80 48 00
        E 0 80 54 00
        E 0 80 60 00
        E 120 90 3c 60
        E 0 90 48 60
        E 0 90 54 60
        E 0 90 60 60
        E 120 80 3c 00
        E 0 80 48 00
        E 0 80 54 00
        E 0 80 60 00
        E 120 90 48 60
        E 0 90 54 60
        E 0 90 60 60
        E 120 80 48 00
        E 0 80 54 00
        E 0 80 60 00
        E 120 90 3c 60
        E 0 90 48 60
        E 0 90 54 60
        E 0 90 60 60
        E 120 80 3c 00
        E 0 80 48 00
        E 0 80 54 00
        E 0 80 60 00
        E 120 90 48 60
        E 0 90 54 60
        E 0 90 60 60
        E 120 80 48 00
        E 0 80 54 00
        E 0 80 60 00
        E 120 90 48 60
        E 0 90 54 60
        E 0 90 60 60
        E 120 80 48 00
        E 0 80 54 00
        E 0 80 60 00
        E 120 90 54 60
        E 0 90 60 60
        E 120 80 28 00
        E 0 80 54 00
        E 0 80 60 00
        E 120 90 2f 60
        E 0 90 3d 60
        E 0 90 4a 60
        E 0 90 56 60
        E 0 90 62 60
        E 120 80 3d 00
        E 0 80 4a 00
        E 0 80 56 00
        E 0 80 62 00
        E 120 90 4a 60
        E 0 90 56 60
        E 0 90 62 60
        E 120 80 4a 00
        E 0 80 56 00
        E 0 80 62 00
        E 120 90 3d 60
        E 0 90 4a 60
        E 0 90 56 60
        E 0 90 62 60
        E 120 80 3d 00
        E 0 80 4a 00
        E 0 80 56 00
        E 0 80 62 00
        E 120 90 4a 60
        E 0 90 56 60
        E 0 90 62 60
        E 120 80 4a 00
        E 0 80 56 00
        E 0 80 62 00
        E 120 90 3d 60
        E 0 90 4a 60
        E 0 90 56 60
        E 0 90 62 60
        E 120 80 3d 00
        E 0 80 4a 00
        E 0 80 56 00
        E 0 80 62 00
        E 120 90 4a 60
        E 0 90 56 60
        E 0 90 62 60
        E 120 80 4a 00
        E 0 80 56 00
        E 0 80 62 00
        E 120 90 4a 60
        E 0 90 56 60
        E 0 90 62 60
        E 120 80 4a 00
        E 0 80 56 00
        E 0 80 62 00
        E 120 90 56 60
        E 0 90 62 60
        E 120 80 2f 00
        E 0 80 56 00
        E 0 80 62 00
        E 120 90 28 60
        E 0 90 3e 60
        E 0 90 4b 60
        E 0 90 57 60
        E 0 90 63 60
        E 120 80 3e 00
        E 0 80 4b 00
        E 0 80 57 00
        E 0 80 63 00
        E 120 90 4b 60
        E 0 90 57 60
        E 0 90 63 60
        E 120 80 4b 00
        E 0 80 57 00
        E 0 80 63 00
        E 120 90 3e 60
        E 0 90 4b 60
        E 0 90 57 60
        E 0 90 63 60
        E 120 80 3e 00
        E 0 80 4b 00
        E 0 80 57 00
        E 0 80 63 00
        E 120 90 4b 60
        E 0 90 57 60
        E 0 90 63 60
        E 120 80 4b 00
        E 0 80 57 00
        E 0 80 63 00
        E 120 90 3e 60
        E 0 90 4b 60
        E 0 90 57 60
        E 0 90 63 60
        E 120 80 3e 00
        E 0 80 4b 00
        E 0 80 57 00
        E 0 80 63 00
        E 120 90 4b 60
        E 0 90 57 60
        E 0 90 63 60
        E 120 80 4b 00
        E 0 80 57 00
        E 0 80 63 00
        E 120 90 3e 60
        E 0 90 4b 60
        E 0 90 57 60
        E 0 90 63 60
        E 120 80 3e 00
        E 0 80 4b 00
        E 0 80 57 00
        E 0 80 63 00
        E 120 90 4b 60
        E 0 90 57 60
        E 0 90 63 60
        E 120 80 4b 00
        E 0 80 57 00
        E 0 80 63 00
        E 120 90 3e 60
        E 0 90 4b 60
        E 0 90 57 60
        E 0 90 63 60
        E 120 80 3e 00
        E 0 80 4b 00
        E 0 80 57 00
        E 0 80 63 00
        E 120 90 4b 60
        E 0 90 57 60
        E 0 90 63 60
        E 120 80 4b 00
        E 0 80 57 00
        E 0 80 63 00
        E 120 90 3e 60
        E 0 90 4b 60
        E 0 90 57 60
        E 0 90 63 60
        E 120 80 3e 00
        E 0 80 4b 00
        E 0 80 57 00
        E 0 80 63 00
        E 120 90 4b 60
        E 0 90 57 60
        E 0 90 63 60
        E 120 80 4b 00
        E 0 80 57 00
        E 0 80 63 00
        E 120 90 3e 60
        E 0 90 4b 60
        E 0 90 57 60
        E 0 90 63 60
        E 120 80 3e 00
        E 0 80 4b 00
        E 0 80 57 00
        E 0 80 63 00
        E 120 90 4b 60
        E 0 90 57 60
        E 0 90 63 60
        E 120 80 4b 00
        E 0 80 57 00
        E 0 80 63 00
        E 120 90 4b 60
        E 0 90 57 60
        E 0 90 63 60
        E 120 80 4b 00
        E 0 80 57 00
        E 0 80 63 00
        E 120 90 57 60
        E 0 90 63 60
        E 120 80 57 00
        E 0 80 63 00
        E 120 90 3c 60
        E 0 90 48 60
        E 0 90 54 60
        E 0 90 60 60
        E 120 80 3c 00
        E 0 80 48 00
        E 0 80 54 00
        E 0 80 60 00
        E 120 90 48 60
        E 0 90 54 60
        E 0 90 60 60
        E 120 80 48 00
        E 0 80 54 00
        E 0 80 60 00
        E 120 90 3c 60
        E 0 90 48 60
        E 0 90 54 60
        E 0 90 60 60
        E 120 80 3c 00
        E 0 80 48 00
        E 0 80 54 00
        E 0 80 60 00
        E 120 90 48 60
        E 0 90 54 60
        E 0 90 60 60
        E 120 80 48 00
        E 0 80 54 00
        E 0 80 60 00
        E 120 90 3c 60
        E 0 90 48 60
        E 0 90 54 60
        E 0 90 60 60
        E 120 80 3c 00
        E 0 80 48 00
        E 0 80 54 00
        E 0 80 60 00
        E 120 90 48 60
        E 0 90 54 60
        E 0 90 60 60
        E 120 80 48 00
        E 0 80 54 00
        E 0 80 60 00
        E 120 90 48 60
        E 0 90 54 60
        E 0 90 60 60
        E 120 80 48 00
        E 0 80 54 00
        E 0 80 60 00
        E 120 90 54 60
        E 0 90 60 60
        E 120 80 28 00
        E 0 80 54 00
        E 0 80 60 00
        E 120 90 2f 60
        E 0 90 3d 60
        E 0 90 4a 60
        E 0 90 56 60
        E 0 90 62 60
        E 120 80 3d 00
        E 0 80 4a 00
        E 0 80 56 00
        E 0 80 62 00
        E 120 90 4a 60
        E 0 90 56 60
        E 0 90 62 60
        E 120 80 4a 00
        E 0 80 56 00
        E 0 80 62 00
        E 120 90 3d 60
        E 0 90 4a 60
        E 0 90 56 60
        E 0 90 62 60
        E 120 80 3d 00
        E 0 80 4a 00
        E 0 80 56 00
        E 0 80 62 00
        E 120 90 4a 60
        E 0 90 56 60
        E 0 90 62 60
        E 120 80 4a 00
        E 0 80 56 00
        E 0 80 62 00
        E 120 90 3d 60
        E 0 90 4a 60
        E 0 90 56 60
        E 0 90 62 60
        E 120 80 3d 00
        E 0 80 4a 00
        E 0 80 56 00
        E 0 80 62 00
        E 120 90 4a 60
        E 0 90 56 60
        E 0 90 62 60
        E 120 80 4a 00
        E 0 80 56 00
        E 0 80 62 00
        E 120 90 4a 60
        E 0 90 56 60
        E 0 90 62 60
        E 120 80 4a 00
        E 0 80 56 00
        E 0 80 62 00
        E 120 90 56 60
        E 0 90 62 60
        E 120 80 2f 00
        E 0 80 56 00
        E 0 80 62 00
        <X 120 0
          /wFbcGxheV0=
        >
        E 0 90 28 60
        E 0 90 3e 60
        E 0 90 4b 60
        E 0 90 57 60
        E 0 90 63 60
        E 120 80 3e 00
        E 0 80 4b 00
        E 0 80 57 00
        E 0 80 63 00
        E 120 90 4b 60
        E 0 90 57 60
        E 0 90 63 60
        E 120 80 4b 00
        E 0 80 57 00
        E 0 80 63 00
        E 120 90 3e 60
        E 0 90 4b 60
        E 0 90 57 60
        E 0 90 63 60
        E 120 80 3e 00
        E 0 80 4b 00
        E 0 80 57 00
        E 0 80 63 00
        E 120 90 4b 60
        E 0 90 57 60
        E 0 90 63 60
        E 120 80 4b 00
        E 0 80 57 00
        E 0 80 63 00
        E 120 90 3e 60
        E 0 90 4b 60
        E 0 90 57 60
        E 0 90 63 60
        E 120 80 3e 00
        E 0 80 4b 00
        E 0 80 57 00
        E 0 80 63 00
        E 120 90 4b 60
        E 0 90 57 60
        E 0 90 63 60
        E 120 80 4b 00
        E 0 80 57 00
        E 0 80 63 00
        E 120 90 4b 60
        E 0 90 57 60
        E 0 90 63 60
        E 120 80 4b 00
        E 0 80 57 00
        E 0 80 63 00
        E 120 90 57 60
        E 0 90 63 60
        E 120 80 57 00
        E 0 80 63 00
        E 120 90 3c 60
        E 0 90 48 60
        E 0 90 54 60
        E 0 90 60 60
        E 120 80 3c 00
        E 0 80 48 00
        E 0 80 54 00
        E 0 80 60 00
        E 120 90 48 60
        E 0 90 54 60
        E 0 90 60 60
        E 120 80 48 00
        E 0 80 54 00
        E 0 80 60 00
        E 120 90 3c 60
        E 0 90 48 60
        E 0 90 54 60
        E 0 90 60 60
        E 120 80 3c 00
        E 0 80 48 00
        E 0 80 54 00
        E 0 80 60 00
        E 120 90 48 60
        E 0 90 54 60
        E 0 90 60 60
        E 120 80 48 00
        E 0 80 54 00
        E 0 80 60 00
        E 120 90 3c 60
        E 0 90 48 60
        E 0 90 54 60
        E 0 90 60 60
        E 120 80 3c 00
        E 0 80 48 00
        E 0 80 54 00
        E 0 80 60 00
        E 120 90 48 60
        E 0 90 54 60
        E 0 90 60 60
        E 120 80 48 00
        E 0 80 54 00
        E 0 80 60 00
        E 120 90 48 60
        E 0 90 54 60
        E 0 90 60 60
        E 120 80 48 00
        E 0 80 54 00
        E 0 80 60 00
        E 120 90 54 60
        E 0 90 60 60
        E 120 80 28 00
        E 0 80 54 00
        E 0 80 60 00
        E 120 90 2f 60
        E 0 90 3d 60
        E 0 90 4a 60
        E 0 90 56 60
        E 0 90 62 60
        E 0 90 74 60
        E 120 80 3d 00
        E 0 80 4a 00
        E 0 80 56 00
        E 0 80 62 00
        E 120 90 4a 60
        E 0 90 56 60
        E 0 90 62 60
        E 120 80 4a 00
        E 0 80 56 00
        E 0 80 62 00
        E 120 90 3d 60
        E 0 90 4a 60
        E 0 90 56 60
        E 0 90 62 60
        E 120 80 3d 00
        E 0 80 4a 00
        E 0 80 56 00
        E 0 80 62 00
        E 120 90 4a 60
        E 0 90 56 60
        E 0 90 62 60
        E 120 80 4a 00
        E 0 80 56 00
        E 0 80 62 00
        E 120 90 3d 60
        E 0 90 4a 60
        E 0 90 56 60
        E 0 90 62 60
        E 120 80 3d 00
        E 0 80 4a 00
        E 0 80 56 00
        E 0 80 62 00
        E 120 90 4a 60
        E 0 90 56 60
        E 0 90 62 60
        E 120 80 4a 00
        E 0 80 56 00
        E 0 80 62 00
        E 120 90 4a 60
        E 0 90 56 60
        E 0 90 62 60
        E 120 80 4a 00
        E 0 80 56 00
        E 0 80 62 00
        E 120 90 56 60
        E 0 90 62 60
        E 120 80 2f 00
        E 0 80 56 00
        E 0 80 62 00
        E 120 80 74 00
        E 0 90 28 60
        E 0 90 3c 60
        E 0 90 48 60
        E 0 90 54 60
        E 0 90 60 60
        E 120 80 3c 00
        E 0 80 48 00
        E 0 80 54 00
        E 0 80 60 00
        E 120 90 48 60
        E 0 90 54 60
        E 0 90 60 60
        E 120 80 48 00
        E 0 80 54 00
        E 0 80 60 00
        E 120 90 3c 60
        E 0 90 48 60
        E 0 90 54 60
        E 0 90 60 60
        E 120 80 3c 00
        E 0 80 48 00
        E 0 80 54 00
        E 0 80 60 00
        E 120 90 48 60
        E 0 90 54 60
        E 0 90 60 60
        E 120 80 48 00
        E 0 80 54 00
        E 0 80 60 00
        E 120 90 3c 60
        E 0 90 48 60
        E 0 90 54 60
        E 0 90 60 60
        E 120 80 3c 00
        E 0 80 48 00
        E 0 80 54 00
        E 0 80 60 00
        E 120 90 48 60
        E 0 90 54 60
        E 0 90 60 60
        E 120 80 48 00
        E 0 80 54 00
        E 0 80 60 00
        E 120 90 48 60
        E 0 90 54 60
        E 0 90 60 60
        E 120 80 48 00
        E 0 80 54 00
        E 0 80 60 00
        E 120 90 54 60
        E 0 90 60 60
        E 120 80 54 00
        E 0 80 60 00
        E 120 90 3e 60
        E 0 90 4b 60
        E 0 90 57 60
        E 0 90 63 60
        E 120 80 3e 00
        E 0 80 4b 00
        E 0 80 57 00
        E 0 80 63 00
        E 120 90 4b 60
        E 0 90 57 60
        E 0 90 63 60
        E 120 80 4b 00
        E 0 80 57 00
        E 0 80 63 00
        E 120 90 3e 60
        E 0 90 4b 60
        E 0 90 57 60
        E 0 90 63 60
        E 120 80 3e 00
        E 0 80 4b 00
        E 0 80 57 00
        E 0 80 63 00
        E 120 90 4b 60
        E 0 90 57 60
        E 0 90 63 60
        E 120 80 4b 00
        E 0 80 57 00
        E 0 80 63 00
        E 120 90 3e 60
        E 0 90 4b 60
        E 0 90 57 60
        E 0 90 63 60
        E 120 80 3e 00
        E 0 80 4b 00
        E 0 80 57 00
        E 0 80 63 00
        E 120 90 4b 60
        E 0 90 57 60
        E 0 90 63 60
        E 120 80 4b 00
        E 0 80 57 00
        E 0 80 63 00
        E 120 90 4b 60
        E 0 90 57 60
        E 0 90 63 60
        E 120 80 4b 00
        E 0 80 57 00
        E 0 80 63 00
        E 120 90 57 60
        E 0 90 63 60
        E 120 80 57 00
        E 0 80 63 00
        E 120 90 3c 60
        E 0 90 48 60
        E 0 90 54 60
        E 0 90 60 60
        E 120 80 3c 00
        E 0 80 48 00
        E 0 80 54 00
        E 0 80 60 00
        E 120 90 48 60
        E 0 90 54 60
        E 0 90 60 60
        E 120 80 48 00
        E 0 80 54 00
        E 0 80 60 00
        E 120 90 3c 60
        E 0 90 48 60
        E 0 90 54 60
        E 0 90 60 60
        E 120 80 3c 00
        E 0 80 48 00
        E 0 80 54 00
        E 0 80 60 00
        E 120 90 48 60
        E 0 90 54 60
        E 0 90 60 60
        E 120 80 48 00
        E 0 80 54 00
        E 0 80 60 00
        E 120 90 3c 60
        E 0 90 48 60
        E 0 90 54 60
        E 0 90 60 60
        E 120 80 3c 00
        E 0 80 48 00
        E 0 80 54 00
        E 0 80 60 00
        E 120 90 48 60
        E 0 90 54 60
        E 0 90 60 60
        E 120 80 48 00
        E 0 80 54 00
        E 0 80 60 00
        E 120 90 48 60
        E 0 90 54 60
        E 0 90 60 60
        E 120 80 48 00
        E 0 80 54 00
        E 0 80 60 00
        E 120 90 54 60
        E 0 90 60 60
        E 120 80 28 00
        E 0 80 54 00
        E 0 80 60 00
        E 120 90 2f 60
        E 0 90 3d 60
        E 0 90 4a 60
        E 0 90 56 60
        E 0 90 62 60
        E 120 80 3d 00
        E 0 80 4a 00
        E 0 80 56 00
        E 0 80 62 00
        E 120 90 4a 60
        E 0 90 56 60
        E 0 90 62 60
        E 120 80 4a 00
        E 0 80 56 00
        E 0 80 62 00
        E 120 90 3d 60
        E 0 90 4a 60
        E 0 90 56 60
        E 0 90 62 60
        E 120 80 3d 00
        E 0 80 4a 00
        E 0 80 56 00
        E 0 80 62 00
        E 120 90 4a 60
        E 0 90 56 60
        E 0 90 62 60
        E 120 80 4a 00
        E 0 80 56 00
        E 0 80 62 00
        E 120 90 3d 60
        E 0 90 4a 60
        E 0 90 56 60
        E 0 90 62 60
        E 120 80 3d 00
        E 0 80 4a 00
        E 0 80 56 00
        E 0 80 62 00
        E 120 90 4a 60
        E 0 90 56 60
        E 0 90 62 60
        E 120 80 4a 00
        E 0 80 56 00
        E 0 80 62 00
        E 120 90 4a 60
        E 0 90 56 60
        E 0 90 62 60
        E 120 80 4a 00
        E 0 80 56 00
        E 0 80 62 00
        E 120 90 56 60
        E 0 90 62 60
        E 120 80 2f 00
        E 0 80 56 00
        E 0 80 62 00
        E 120 90 28 60
        E 0 90 3c 60
        E 0 90 48 60
        E 0 90 54 60
        E 0 90 60 60
        E 120 80 3c 00
        E 0 80 48 00
        E 0 80 54 00
        E 0 80 60 00
        E 120 90 48 60
        E 0 90 54 60
        E 0 90 60 60
        E 120 80 48 00
        E 0 80 54 00
        E 0 80 60 00
        E 120 90 3c 60
        E 0 90 48 60
        E 0 90 54 60
        E 0 90 60 60
        E 120 80 3c 00
        E 0 80 48 00
        E 0 80 54 00
        E 0 80 60 00
        E 120 90 48 60
        E 0 90 54 60
        E 0 90 60 60
        E 120 80 48 00
        E 0 80 54 00
        E 0 80 60 00
        E 120 90 3c 60
        E 0 90 48 60
        E 0 90 54 60
        E 0 90 60 60
        E 120 80 3c 00
        E 0 80 48 00
        E 0 80 54 00
        E 0 80 60 00
        E 120 90 48 60
        E 0 90 54 60
        E 0 90 60 60
        E 120 80 48 00
        E 0 80 54 00
        E 0 80 60 00
        E 120 90 48 60
        E 0 90 54 60
        E 0 90 60 60
        E 120 80 48 00
        E 0 80 54 00
        E 0 80 60 00
        E 120 90 54 60
        E 0 90 60 60
        E 120 80 54 00
        E 0 80 60 00
        E 120 90 3e 60
        E 0 90 4b 60
        E 0 90 57 60
        E 0 90 63 60
        E 120 80 3e 00
        E 0 80 4b 00
        E 0 80 57 00
        E 0 80 63 00
        E 120 90 4b 60
        E 0 90 57 60
        E 0 90 63 60
        E 120 80 4b 00
        E 0 80 57 00
        E 0 80 63 00
        E 120 90 3e 60
        E 0 90 4b 60
        E 0 90 57 60
        E 0 90 63 60
        E 120 80 3e 00
        E 0 80 4b 00
        E 0 80 57 00
        E 0 80 63 00
        E 120 90 4b 60
        E 0 90 57 60
        E 0 90 63 60
        E 120 80 4b 00
        E 0 80 57 00
        E 0 80 63 00
        E 120 90 3e 60
        E 0 90 4b 60
        E 0 90 57 60
        E 0 90 63 60
        E 120 80 3e 00
        E 0 80 4b 00
        E 0 80 57 00
        E 0 80 63 00
        E 120 90 4b 60
        E 0 90 57 60
        E 0 90 63 60
        E 120 80 4b 00
        E 0 80 57 00
        E 0 80 63 00
        E 120 90 4b 60
        E 0 90 57 60
        E 0 90 63 60
        E 120 80 4b 00
        E 0 80 57 00
        E 0 80 63 00
        E 120 90 57 60
        E 0 90 63 60
        E 120 80 57 00
        E 0 80 63 00
        E 120 90 3c 60
        E 0 90 48 60
        E 0 90 54 60
        E 0 90 60 60
        E 120 80 3c 00
        E 0 80 48 00
        E 0 80 54 00
        E 0 80 60 00
        E 120 90 48 60
        E 0 90 54 60
        E 0 90 60 60
        E 120 80 48 00
        E 0 80 54 00
        E 0 80 60 00
        E 120 90 3c 60
        E 0 90 48 60
        E 0 90 54 60
        E 0 90 60 60
        E 120 80 3c 00
        E 0 80 48 00
        E 0 80 54 00
        E 0 80 60 00
        E 120 90 48 60
        E 0 90 54 60
        E 0 90 60 60
        E 120 80 48 00
        E 0 80 54 00
        E 0 80 60 00
        E 120 90 3c 60
        E 0 90 48 60
        E 0 90 54 60
        E 0 90 60 60
        E 120 80 3c 00
        E 0 80 48 00
        E 0 80 54 00
        E 0 80 60 00
        E 120 90 48 60
        E 0 90 54 60
        E 0 90 60 60
        E 120 80 48 00
        E 0 80 54 00
        E 0 80 60 00
        E 120 90 48 60
        E 0 90 54 60
        E 0 90 60 60
        E 120 80 48 00
        E 0 80 54 00
        E 0 80 60 00
        E 120 90 54 60
        E 0 90 60 60
        E 120 80 28 00
        E 0 80 54 00
        E 0 80 60 00
        E 120 90 2f 60
        E 0 90 3d 60
        E 0 90 4a 60
        E 0 90 56 60
        E 0 90 62 60
        E 120 80 3d 00
        E 0 80 4a 00
        E 0 80 56 00
        E 0 80 62 00
        E 120 90 4a 60
        E 0 90 56 60
        E 0 90 62 60
        E 120 80 4a 00
        E 0 80 56 00
        E 0 80 62 00
        E 120 90 3d 60
        E 0 90 4a 60
        E 0 90 56 60
        E 0 90 62 60
        E 120 80 3d 00
        E 0 80 4a 00
        E 0 80 56 00
        E 0 80 62 00
        E 120 90 4a 60
        E 0 90 56 60
        E 0 90 62 60
        E 120 80 4a 00
        E 0 80 56 00
        E 0 80 62 00
        E 120 90 3d 60
        E 0 90 4a 60
        E 0 90 56 60
        E 0 90 62 60
        E 120 80 3d 00
        E 0 80 4a 00
        E 0 80 56 00
        E 0 80 62 00
        E 120 90 4a 60
        E 0 90 56 60
        E 0 90 62 60
        E 120 80 4a 00
        E 0 80 56 00
        E 0 80 62 00
        E 120 90 4a 60
        E 0 90 56 60
        E 0 90 62 60
        E 120 80 4a 00
        E 0 80 56 00
        E 0 80 62 00
        E 120 90 56 60
        E 0 90 62 60
        E 120 80 2f 00
        E 0 80 56 00
        E 0 80 62 00
        E 120 90 28 60
        E 0 90 3c 60
        E 0 90 48 60
        E 0 90 54 60
        E 0 90 60 60
        E 120 80 3c 00
        E 0 80 48 00
        E 0 80 54 00
        E 0 80 60 00
        E 120 90 48 60
        E 0 90 54 60
        E 0 90 60 60
        E 120 80 48 00
        E 0 80 54 00
        E 0 80 60 00
        E 120 90 3c 60
        E 0 90 48 60
        E 0 90 54 60
        E 0 90 60 60
        E 120 80 3c 00
        E 0 80 48 00
        E 0 80 54 00
        E 0 80 60 00
        E 120 90 48 60
        E 0 90 54 60
        E 0 90 60 60
        E 120 80 48 00
        E 0 80 54 00
        E 0 80 60 00
        E 120 90 3c 60
        E 0 90 48 60
        E 0 90 54 60
        E 0 90 60 60
        E 120 80 3c 00
        E 0 80 48 00
        E 0 80 54 00
        E 0 80 60 00
        E 120 90 48 60
        E 0 90 54 60
        E 0 90 60 60
        E 120 80 48 00
        E 0 80 54 00
        E 0 80 60 00
        E 120 90 48 60
        E 0 90 54 60
        E 0 90 60 60
        E 120 80 48 00
        E 0 80 54 00
        E 0 80 60 00
        E 120 90 54 60
        E 0 90 60 60
        E 120 80 54 00
        E 0 80 60 00
        E 120 90 3e 60
        E 0 90 4b 60
        E 0 90 57 60
        E 0 90 63 60
        E 120 80 3e 00
        E 0 80 4b 00
        E 0 80 57 00
        E 0 80 63 00
        E 120 90 4b 60
        E 0 90 57 60
        E 0 90 63 60
        E 120 80 4b 00
        E 0 80 57 00
        E 0 80 63 00
        E 120 90 3e 60
        E 0 90 4b 60
        E 0 90 57 60
        E 0 90 63 60
        E 120 80 3e 00
        E 0 80 4b 00
        E 0 80 57 00
        E 0 80 63 00
        E 120 90 4b 60
        E 0 90 57 60
        E 0 90 63 60
        E 120 80 4b 00
        E 0 80 57 00
        E 0 80 63 00
        E 120 90 3e 60
        E 0 90 4b 60
        E 0 90 57 60
        E 0 90 63 60
        E 120 80 3e 00
        E 0 80 4b 00
        E 0 80 57 00
        E 0 80 63 00
        E 120 90 4b 60
        E 0 90 57 60
        E 0 90 63 60
        E 120 80 4b 00
        E 0 80 57 00
        E 0 80 63 00
        E 120 90 4b 60
        E 0 90 57 60
        E 0 90 63 60
        E 120 80 4b 00
        E 0 80 57 00
        E 0 80 63 00
        E 120 90 57 60
        E 0 90 63 60
        E 120 80 57 00
        E 0 80 63 00
        E 120 90 3c 60
        E 0 90 48 60
        E 0 90 54 60
        E 0 90 60 60
        E 120 80 3c 00
        E 0 80 48 00
        E 0 80 54 00
        E 0 80 60 00
        E 120 90 48 60
        E 0 90 54 60
        E 0 90 60 60
        E 120 80 48 00
        E 0 80 54 00
        E 0 80 60 00
        E 120 90 3c 60
        E 0 90 48 60
        E 0 90 54 60
        E 0 90 60 60
        E 120 80 3c 00
        E 0 80 48 00
        E 0 80 54 00
        E 0 80 60 00
        E 120 90 48 60
        E 0 90 54 60
        E 0 90 60 60
        E 120 80 48 00
        E 0 80 54 00
        E 0 80 60 00
        E 120 90 3c 60
        E 0 90 48 60
        E 0 90 54 60
        E 0 90 60 60
        E 120 80 3c 00
        E 0 80 48 00
        E 0 80 54 00
        E 0 80 60 00
        E 120 90 48 60
        E 0 90 54 60
        E 0 90 60 60
        E 120 80 48 00
        E 0 80 54 00
        E 0 80 60 00
        E 120 90 48 60
        E 0 90 54 60
        E 0 90 60 60
        E 120 80 48 00
        E 0 80 54 00
        E 0 80 60 00
        E 120 90 54 60
        E 0 90 60 60
        E 120 80 28 00
        E 0 80 54 00
        E 0 80 60 00
        E 120 90 2f 60
        E 0 90 3d 60
        E 0 90 4a 60
        E 0 90 56 60
        E 0 90 62 60
        E 0 90 74 60
        E 120 80 3d 00
        E 0 80 4a 00
        E 0 80 56 00
        E 0 80 62 00
        E 120 90 4a 60
        E 0 90 56 60
        E 0 90 62 60
        E 120 80 4a 00
        E 0 80 56 00
        E 0 80 62 00
        E 120 90 3d 60
        E 0 90 4a 60
        E 0 90 56 60
        E 0 90 62 60
        E 120 80 3d 00
        E 0 80 4a 00
        E 0 80 56 00
        E 0 80 62 00
        E 120 90 4a 60
        E 0 90 56 60
        E 0 90 62 60
        E 120 80 4a 00
        E 0 80 56 00
        E 0 80 62 00
        E 120 90 3d 60
        E 0 90 4a 60
        E 0 90 56 60
        E 0 90 62 60
        E 120 80 3d 00
        E 0 80 4a 00
        E 0 80 56 00
        E 0 80 62 00
        E 120 90 4a 60
        E 0 90 56 60
        E 0 90 62 60
        E 120 80 4a 00
        E 0 80 56 00
        E 0 80 62 00
        E 120 90 4a 60
        E 0 90 56 60
        E 0 90 62 60
        E 120 80 4a 00
        E 0 80 56 00
        E 0 80 62 00
        E 120 90 56 60
        E 0 90 62 60
        E 120 80 2f 00
        E 0 80 56 00
        E 0 80 62 00
        E 120 90 28 60
        E 0 90 3c 60
        E 0 90 48 60
        E 0 90 54 60
        E 0 90 60 60
        E 120 80 3c 00
        E 0 80 48 00
        E 0 80 54 00
        E 0 80 60 00
        E 120 90 48 60
        E 0 90 54 60
        E 0 90 60 60
        E 120 80 48 00
        E 0 80 54 00
        E 0 80 60 00
        E 120 90 3c 60
        E 0 90 48 60
        E 0 90 54 60
        E 0 90 60 60
        E 120 80 3c 00
        E 0 80 48 00
        E 0 80 54 00
        E 0 80 60 00
        E 120 90 48 60
        E 0 90 54 60
        E 0 90 60 60
        E 120 80 48 00
        E 0 80 54 00
        E 0 80 60 00
        E 120 90 3c 60
        E 0 90 48 60
        E 0 90 54 60
        E 0 90 60 60
        E 120 80 3c 00
        E 0 80 48 00
        E 0 80 54 00
        E 0 80 60 00
        E 120 90 48 60
        E 0 90 54 60
        E 0 90 60 60
        E 120 80 48 00
        E 0 80 54 00
        E 0 80 60 00
        E 120 90 48 60
        E 0 90 54 60
        E 0 90 60 60
        E 120 80 48 00
        E 0 80 54 00
        E 0 80 60 00
        E 120 90 54 60
        E 0 90 60 60
        E 120 80 54 00
        E 0 80 60 00
        <X 120 0
          /wFbbWVsbG93XQ==
        >
        E 0 80 74 00
        E 0 90 3e 60
        E 0 90 4b 60
        E 0 90 57 60
        E 0 90 63 60
        E 120 80 3e 00
        E 0 80 4b 00
        E 0 80 57 00
        E 0 80 63 00
        E 120 90 4b 60
        E 0 90 57 60
        E 0 90 63 60
        E 120 80 4b 00
        E 0 80 57 00
        E 0 80 63 00
        E 120 90 3e 60
        E 0 90 4b 60
        E 0 90 57 60
        E 0 90 63 60
        E 120 80 3e 00
        E 0 80 4b 00
        E 0 80 57 00
        E 0 80 63 00
        E 120 90 4b 60
        E 0 90 57 60
        E 0 90 63 60
        E 120 80 4b 00
        E 0 80 57 00
        E 0 80 63 00
        E 120 90 3e 60
        E 0 90 4b 60
        E 0 90 57 60
        E 0 90 63 60
        E 120 80 3e 00
        E 0 80 4b 00
        E 0 80 57 00
        E 0 80 63 00
        E 120 90 4b 60
        E 0 90 57 60
        E 0 90 63 60
        E 120 80 4b 00
        E 0 80 57 00
        E 0 80 63 00
        E 120 90 4b 60
        E 0 90 57 60
        E 0 90 63 60
        E 120 80 4b 00
        E 0 80 57 00
        E 0 80 63 00
        E 120 90 57 60
        E 0 90 63 60
        E 120 80 57 00
        E 0 80 63 00
        E 120 90 3c 60
        E 0 90 48 60
        E 0 90 54 60
        E 0 90 60 60
        E 120 80 3c 00
        E 0 80 48 00
        E 0 80 54 00
        E 0 80 60 00
        E 120 90 48 60
        E 0 90 54 60
        E 0 90 60 60
        E 120 80 48 00
        E 0 80 54 00
        E 0 80 60 00
        E 120 90 3c 60
        E 0 90 48 60
        E 0 90 54 60
        E 0 90 60 60
        E 120 80 3c 00
        E 0 80 48 00
        E 0 80 54 00
        E 0 80 60 00
        E 120 90 48 60
        E 0 90 54 60
        E 0 90 60 60
        E 120 80 48 00
        E 0 80 54 00
        E 0 80 60 00
        E 120 90 3c 60
        E 0 90 48 60
        E 0 90 54 60
        E 0 90 60 60
        E 120 80 3c 00
        E 0 80 48 00
        E 0 80 54 00
        E 0 80 60 00
        E 120 90 48 60
        E 0 90 54 60
        E 0 90 60 60
        E 120 80 48 00
        E 0 80 54 00
        E 0 80 60 00
        E 120 90 48 60
        E 0 90 54 60
        E 0 90 60 60
        E 120 80 48 00
        E 0 80 54 00
        E 0 80 60 00
        E 120 90 54 60
        E 0 90 60 60
        E 120 80 28 00
        E 0 80 54 00
        E 0 80 60 00
        E 120 90 2f 60
        E 0 90 3d 60
        E 0 90 4a 60
        E 0 90 56 60
        E 0 90 62 60
        E 120 80 3d 00
        E 0 80 4a 00
        E 0 80 56 00
        E 0 80 62 00
        E 120 90 4a 60
        E 0 90 56 60
        E 0 90 62 60
        E 120 80 4a 00
        E 0 80 56 00
        E 0 80 62 00
        E 120 90 3d 60
        E 0 90 4a 60
        E 0 90 56 60
        E 0 90 62 60
        E 120 80 3d 00
        E 0 80 4a 00
        E 0 80 56 00
        E 0 80 62 00
        E 120 90 4a 60
        E 0 90 56 60
        E 0 90 62 60
        E 120 80 4a 00
        E 0 80 56 00
        E 0 80 62 00
        E 120 90 3d 60
        E 0 90 4a 60
        E 0 90 56 60
        E 0 90 62 60
        E 120 80 3d 00
        E 0 80 4a 00
        E 0 80 56 00
        E 0 80 62 00
        E 120 90 4a 60
        E 0 90 56 60
        E 0 90 62 60
        E 120 80 4a 00
        E 0 80 56 00
        E 0 80 62 00
        E 120 90 4a 60
        E 0 90 56 60
        E 0 90 62 60
        E 120 80 4a 00
        E 0 80 56 00
        E 0 80 62 00
        E 120 90 56 60
        E 0 90 62 60
        E 120 80 2f 00
        E 0 80 56 00
        E 0 80 62 00
        E 120 90 28 60
        E 0 90 3c 60
        E 0 90 48 60
        E 0 90 54 60
        E 0 90 60 60
        E 120 80 3c 00
        E 0 80 48 00
        E 0 80 54 00
        E 0 80 60 00
        E 120 90 48 60
        E 0 90 54 60
        E 0 90 60 60
        E 120 80 48 00
        E 0 80 54 00
        E 0 80 60 00
        E 120 90 3c 60
        E 0 90 48 60
        E 0 90 54 60
        E 0 90 60 60
        E 120 80 3c 00
        E 0 80 48 00
        E 0 80 54 00
        E 0 80 60 00
        E 120 90 48 60
        E 0 90 54 60
        E 0 90 60 60
        E 120 80 48 00
        E 0 80 54 00
        E 0 80 60 00
        E 120 90 3c 60
        E 0 90 48 60
        E 0 90 54 60
        E 0 90 60 60
        E 120 80 3c 00
        E 0 80 48 00
        E 0 80 54 00
        E 0 80 60 00
        E 120 90 48 60
        E 0 90 54 60
        E 0 90 60 60
        E 120 80 48 00
        E 0 80 54 00
        E 0 80 60 00
        E 120 90 48 60
        E 0 90 54 60
        E 0 90 60 60
        E 120 80 48 00
        E 0 80 54 00
        E 0 80 60 00
        E 120 90 54 60
        E 0 90 60 60
        E 120 80 54 00
        E 0 80 60 00
        E 120 90 3e 60
        E 0 90 4b 60
        E 0 90 57 60
        E 0 90 63 60
        E 120 80 3e 00
        E 0 80 4b 00
        E 0 80 57 00
        E 0 80 63 00
        E 120 90 4b 60
        E 0 90 57 60
        E 0 90 63 60
        E 120 80 4b 00
        E 0 80 57 00
        E 0 80 63 00
        E 120 90 3e 60
        E 0 90 4b 60
        E 0 90 57 60
        E 0 90 63 60
        E 120 80 3e 00
        E 0 80 4b 00
        E 0 80 57 00
        E 0 80 63 00
        E 120 90 4b 60
        E 0 90 57 60
        E 0 90 63 60
        E 120 80 4b 00
        E 0 80 57 00
        E 0 80 63 00
        E 120 90 3e 60
        E 0 90 4b 60
        E 0 90 57 60
        E 0 90 63 60
        E 120 80 3e 00
        E 0 80 4b 00
        E 0 80 57 00
        E 0 80 63 00
        E 120 90 4b 60
        E 0 90 57 60
        E 0 90 63 60
        E 120 80 4b 00
        E 0 80 57 00
        E 0 80 63 00
        E 120 90 4b 60
        E 0 90 57 60
        E 0 90 63 60
        E 120 80 4b 00
        E 0 80 57 00
        E 0 80 63 00
        E 120 90 57 60
        E 0 90 63 60
        E 120 80 57 00
        E 0 80 63 00
        E 120 90 3c 60
        E 0 90 48 60
        E 0 90 54 60
        E 0 90 60 60
        E 120 80 3c 00
        E 0 80 48 00
        E 0 80 54 00
        E 0 80 60 00
        E 120 90 48 60
        E 0 90 54 60
        E 0 90 60 60
        E 120 80 48 00
        E 0 80 54 00
        E 0 80 60 00
        E 120 90 3c 60
        E 0 90 48 60
        E 0 90 54 60
        E 0 90 60 60
        E 120 80 3c 00
        E 0 80 48 00
        E 0 80 54 00
        E 0 80 60 00
        E 120 90 48 60
        E 0 90 54 60
        E 0 90 60 60
        E 120 80 48 00
        E 0 80 54 00
        E 0 80 60 00
        E 120 90 3c 60
        E 0 90 48 60
        E 0 90 54 60
        E 0 90 60 60
        E 120 80 3c 00
        E 0 80 48 00
        E 0 80 54 00
        E 0 80 60 00
        E 120 90 48 60
        E 0 90 54 60
        E 0 90 60 60
        E 120 80 48 00
        E 0 80 54 00
        E 0 80 60 00
        E 120 90 48 60
        E 0 90 54 60
        E 0 90 60 60
        E 120 80 48 00
        E 0 80 54 00
        E 0 80 60 00
        E 120 90 54 60
        E 0 90 60 60
        E 120 80 28 00
        E 0 80 54 00
        E 0 80 60 00
        E 120 90 2f 60
        E 0 90 3d 60
        E 0 90 4a 60
        E 0 90 56 60
        E 0 90 62 60
        E 120 80 3d 00
        E 0 80 4a 00
        E 0 80 56 00
        E 0 80 62 00
        E 120 90 4a 60
        E 0 90 56 60
        E 0 90 62 60
        E 120 80 4a 00
        E 0 80 56 00
        E 0 80 62 00
        E 120 90 3d 60
        E 0 90 4a 60
        E 0 90 56 60
        E 0 90 62 60
        E 120 80 3d 00
        E 0 80 4a 00
        E 0 80 56 00
        E 0 80 62 00
        E 120 90 4a 60
        E 0 90 56 60
        E 0 90 62 60
        E 120 80 4a 00
        E 0 80 56 00
        E 0 80 62 00
        E 120 90 3d 60
        E 0 90 4a 60
        E 0 90 56 60
        E 0 90 62 60
        E 120 80 3d 00
        E 0 80 4a 00
        E 0 80 56 00
        E 0 80 62 00
        E 120 90 4a 60
        E 0 90 56 60
        E 0 90 62 60
        E 120 80 4a 00
        E 0 80 56 00
        E 0 80 62 00
        E 120 90 4a 60
        E 0 90 56 60
        E 0 90 62 60
        E 120 80 4a 00
        E 0 80 56 00
        E 0 80 62 00
        E 120 90 56 60
        E 0 90 62 60
        E 120 80 2f 00
        E 0 80 56 00
        E 0 80 62 00
        E 120 90 28 60
        E 0 90 3c 60
        E 0 90 48 60
        E 0 90 54 60
        E 0 90 60 60
        E 120 80 3c 00
        E 0 80 48 00
        E 0 80 54 00
        E 0 80 60 00
        E 120 90 48 60
        E 0 90 54 60
        E 0 90 60 60
        E 120 80 48 00
        E 0 80 54 00
        E 0 80 60 00
        E 120 90 3c 60
        E 0 90 48 60
        E 0 90 54 60
        E 0 90 60 60
        E 120 80 3c 00
        E 0 80 48 00
        E 0 80 54 00
        E 0 80 60 00
        E 120 90 48 60
        E 0 90 54 60
        E 0 90 60 60
        E 120 80 48 00
        E 0 80 54 00
        E 0 80 60 00
        E 120 90 3c 60
        E 0 90 48 60
        E 0 90 54 60
        E 0 90 60 60
        E 120 80 3c 00
        E 0 80 48 00
        E 0 80 54 00
        E 0 80 60 00
        E 120 90 48 60
        E 0 90 54 60
        E 0 90 60 60
        E 120 80 48 00
        E 0 80 54 00
        E 0 80 60 00
        E 120 90 48 60
        E 0 90 54 60
        E 0 90 60 60
        E 120 80 48 00
        E 0 80 54 00
        E 0 80 60 00
        E 120 90 54 60
        E 0 90 60 60
        E 120 80 54 00
        E 0 80 60 00
        E 120 90 3e 60
        E 0 90 4b 60
        E 0 90 57 60
        E 0 90 63 60
        E 120 80 3e 00
        E 0 80 4b 00
        E 0 80 57 00
        E 0 80 63 00
        E 120 90 4b 60
        E 0 90 57 60
        E 0 90 63 60
        E 120 80 4b 00
        E 0 80 57 00
        E 0 80 63 00
        E 120 90 3e 60
        E 0 90 4b 60
        E 0 90 57 60
        E 0 90 63 60
        E 120 80 3e 00
        E 0 80 4b 00
        E 0 80 57 00
        E 0 80 63 00
        E 120 90 4b 60
        E 0 90 57 60
        E 0 90 63 60
        E 120 80 4b 00
        E 0 80 57 00
        E 0 80 63 00
        E 120 90 3e 60
        E 0 90 4b 60
        E 0 90 57 60
        E 0 90 63 60
        E 120 80 3e 00
        E 0 80 4b 00
        E 0 80 57 00
        E 0 80 63 00
        E 120 90 4b 60
        E 0 90 57 60
        E 0 90 63 60
        E 120 80 4b 00
        E 0 80 57 00
        E 0 80 63 00
        E 120 90 4b 60
        E 0 90 57 60
        E 0 90 63 60
        E 120 80 4b 00
        E 0 80 57 00
        E 0 80 63 00
        E 120 90 57 60
        E 0 90 63 60
        E 120 80 57 00
        E 0 80 63 00
        E 120 90 3c 60
        E 0 90 48 60
        E 0 90 54 60
        E 0 90 60 60
        E 120 80 3c 00
        E 0 80 48 00
        E 0 80 54 00
        E 0 80 60 00
        E 120 90 48 60
        E 0 90 54 60
        E 0 90 60 60
        E 120 80 48 00
        E 0 80 54 00
        E 0 80 60 00
        E 120 90 3c 60
        E 0 90 48 60
        E 0 90 54 60
        E 0 90 60 60
        E 120 80 3c 00
        E 0 80 48 00
        E 0 80 54 00
        E 0 80 60 00
        E 120 90 48 60
        E 0 90 54 60
        E 0 90 60 60
        E 120 80 48 00
        E 0 80 54 00
        E 0 80 60 00
        E 120 90 3c 60
        E 0 90 48 60
        E 0 90 54 60
        E 0 90 60 60
        E 120 80 3c 00
        E 0 80 48 00
        E 0 80 54 00
        E 0 80 60 00
        E 120 90 48 60
        E 0 90 54 60
        E 0 90 60 60
        E 120 80 48 00
        E 0 80 54 00
        E 0 80 60 00
        E 120 90 48 60
        E 0 90 54 60
        E 0 90 60 60
        E 120 80 48 00
        E 0 80 54 00
        E 0 80 60 00
        E 120 90 54 60
        E 0 90 60 60
        E 120 80 28 00
        E 0 80 54 00
        E 0 80 60 00
        E 120 90 2f 60
        E 0 90 3d 60
        E 0 90 4a 60
        E 0 90 56 60
        E 0 90 62 60
        E 120 80 3d 00
        E 0 80 4a 00
        E 0 80 56 00
        E 0 80 62 00
        E 120 90 4a 60
        E 0 90 56 60
        E 0 90 62 60
        E 120 80 4a 00
        E 0 80 56 00
        E 0 80 62 00
        E 120 90 3d 60
        E 0 90 4a 60
        E 0 90 56 60
        E 0 90 62 60
        E 120 80 3d 00
        E 0 80 4a 00
        E 0 80 56 00
        E 0 80 62 00
        E 120 90 4a 60
        E 0 90 56 60
        E 0 90 62 60
        E 120 80 4a 00
        E 0 80 56 00
        E 0 80 62 00
        E 120 90 3d 60
        E 0 90 4a 60
        E 0 90 56 60
        E 0 90 62 60
        E 120 80 3d 00
        E 0 80 4a 00
        E 0 80 56 00
        E 0 80 62 00
        E 120 90 4a 60
        E 0 90 56 60
        E 0 90 62 60
        E 120 80 4a 00
        E 0 80 56 00
        E 0 80 62 00
        E 120 90 4a 60
        E 0 90 56 60
        E 0 90 62 60
        E 120 80 4a 00
        E 0 80 56 00
        E 0 80 62 00
        E 120 90 56 60
        E 0 90 62 60
        E 120 80 2f 00
        E 0 80 56 00
        E 0 80 62 00
        E 120 90 28 60
        E 0 90 3c 60
        E 0 90 48 60
        E 0 90 54 60
        E 0 90 60 60
        E 120 80 3c 00
        E 0 80 48 00
        E 0 80 54 00
        E 0 80 60 00
        E 120 90 48 60
        E 0 90 54 60
        E 0 90 60 60
        E 120 80 48 00
        E 0 80 54 00
        E 0 80 60 00
        E 120 90 3c 60
        E 0 90 48 60
        E 0 90 54 60
        E 0 90 60 60
        E 120 80 3c 00
        E 0 80 48 00
        E 0 80 54 00
        E 0 80 60 00
        E 120 90 48 60
        E 0 90 54 60
        E 0 90 60 60
        E 120 80 48 00
        E 0 80 54 00
        E 0 80 60 00
        E 120 90 3c 60
        E 0 90 48 60
        E 0 90 54 60
        E 0 90 60 60
        E 120 80 3c 00
        E 0 80 48 00
        E 0 80 54 00
        E 0 80 60 00
        E 120 90 48 60
        E 0 90 54 60
        E 0 90 60 60
        E 120 80 48 00
        E 0 80 54 00
        E 0 80 60 00
        E 120 90 48 60
        E 0 90 54 60
        E 0 90 60 60
        E 120 80 48 00
        E 0 80 54 00
        E 0 80 60 00
        E 120 90 54 60
        E 0 90 60 60
        E 120 80 54 00
        E 0 80 60 00
        E 120 90 3e 60
        E 0 90 4b 60
        E 0 90 57 60
        E 0 90 63 60
        E 120 80 3e 00
        E 0 80 4b 00
        E 0 80 57 00
        E 0 80 63 00
        E 120 90 4b 60
        E 0 90 57 60
        E 0 90 63 60
        E 120 80 4b 00
        E 0 80 57 00
        E 0 80 63 00
        E 120 90 3e 60
        E 0 90 4b 60
        E 0 90 57 60
        E 0 90 63 60
        E 120 80 3e 00
        E 0 80 4b 00
        E 0 80 57 00
        E 0 80 63 00
        E 120 90 4b 60
        E 0 90 57 60
        E 0 90 63 60
        E 120 80 4b 00
        E 0 80 57 00
        E 0 80 63 00
        E 120 90 3e 60
        E 0 90 4b 60
        E 0 90 57 60
        E 0 90 63 60
        E 120 80 3e 00
        E 0 80 4b 00
        E 0 80 57 00
        E 0 80 63 00
        E 120 90 4b 60
        E 0 90 57 60
        E 0 90 63 60
        E 120 80 4b 00
        E 0 80 57 00
        E 0 80 63 00
        E 120 90 4b 60
        E 0 90 57 60
        E 0 90 63 60
        E 120 80 4b 00
        E 0 80 57 00
        E 0 80 63 00
        E 120 90 57 60
        E 0 90 63 60
        E 120 80 57 00
        E 0 80 63 00
        E 120 90 3c 60
        E 0 90 48 60
        E 0 90 54 60
        E 0 90 60 60
        E 0 90 74 60
        E 120 80 3c 00
        E 0 80 48 00
        E 0 80 54 00
        E 0 80 60 00
        E 120 90 48 60
        E 0 90 54 60
        E 0 90 60 60
        E 120 80 48 00
        E 0 80 54 00
        E 0 80 60 00
        E 120 90 3c 60
        E 0 90 48 60
        E 0 90 54 60
        E 0 90 60 60
        E 120 80 3c 00
        E 0 80 48 00
        E 0 80 54 00
        E 0 80 60 00
        E 120 90 48 60
        E 0 90 54 60
        E 0 90 60 60
        E 120 80 48 00
        E 0 80 54 00
        E 0 80 60 00
        E 120 90 3c 60
        E 0 90 48 60
        E 0 90 54 60
        E 0 90 60 60
        E 120 80 3c 00
        E 0 80 48 00
        E 0 80 54 00
        E 0 80 60 00
        E 120 90 48 60
        E 0 90 54 60
        E 0 90 60 60
        E 120 80 48 00
        E 0 80 54 00
        E 0 80 60 00
        E 120 90 48 60
        E 0 90 54 60
        E 0 90 60 60
        E 120 80 48 00
        E 0 80 54 00
        E 0 80 60 00
        E 120 90 54 60
        E 0 90 60 60
        E 120 80 28 00
        E 0 80 54 00
        E 0 80 60 00
        E 120 80 74 00
        E 0 90 2f 60
        E 0 90 3d 60
        E 0 90 4a 60
        E 0 90 56 60
        E 0 90 62 60
        E 120 80 3d 00
        E 0 80 4a 00
        E 0 80 56 00
        E 0 80 62 00
        E 120 90 4a 60
        E 0 90 56 60
        E 0 90 62 60
        E 120 80 4a 00
        E 0 80 56 00
        E 0 80 62 00
        E 120 90 3d 60
        E 0 90 4a 60
        E 0 90 56 60
        E 0 90 62 60
        E 120 80 3d 00
        E 0 80 4a 00
        E 0 80 56 00
        E 0 80 62 00
        E 120 90 4a 60
        E 0 90 56 60
        E 0 90 62 60
        E 120 80 4a 00
        E 0 80 56 00
        E 0 80 62 00
        E 120 90 3d 60
        E 0 90 4a 60
        E 0 90 56 60
        E 0 90 62 60
        E 120 80 3d 00
        E 0 80 4a 00
        E 0 80 56 00
        E 0 80 62 00
        E 120 90 4a 60
        E 0 90 56 60
        E 0 90 62 60
        E 120 80 4a 00
        E 0 80 56 00
        E 0 80 62 00
        E 120 90 4a 60
        E 0 90 56 60
        E 0 90 62 60
        E 120 80 4a 00
        E 0 80 56 00
        E 0 80 62 00
        E 120 90 56 60
        E 0 90 62 60
        E 120 80 2f 00
        E 0 80 56 00
        E 0 80 62 00
        E 120 90 28 60
        E 0 90 3c 60
        E 0 90 48 60
        E 0 90 54 60
        E 0 90 60 60
        E 120 80 3c 00
        E 0 80 48 00
        E 0 80 54 00
        E 0 80 60 00
        E 120 90 48 60
        E 0 90 54 60
        E 0 90 60 60
        E 120 80 48 00
        E 0 80 54 00
        E 0 80 60 00
        E 120 90 3c 60
        E 0 90 48 60
        E 0 90 54 60
        E 0 90 60 60
        E 120 80 3c 00
        E 0 80 48 00
        E 0 80 54 00
        E 0 80 60 00
        E 120 90 48 60
        E 0 90 54 60
        E 0 90 60 60
        E 120 80 48 00
        E 0 80 54 00
        E 0 80 60 00
        E 120 90 3c 60
        E 0 90 48 60
        E 0 90 54 60
        E 0 90 60 60
        E 120 80 3c 00
        E 0 80 48 00
        E 0 80 54 00
        E 0 80 60 00
        E 120 90 48 60
        E 0 90 54 60
        E 0 90 60 60
        E 120 80 48 00
        E 0 80 54 00
        E 0 80 60 00
        E 120 90 48 60
        E 0 90 54 60
        E 0 90 60 60
        E 120 80 48 00
        E 0 80 54 00
        E 0 80 60 00
        E 120 90 54 60
        E 0 90 60 60
        E 120 80 54 00
        E 0 80 60 00
        <X 120 0
          /wFbcGxheV0=
        >
        E 0 90 3e 60
        E 0 90 4b 60
        E 0 90 57 60
        E 0 90 63 60
        E 120 80 3e 00
        E 0 80 4b 00
        E 0 80 57 00
        E 0 80 63 00
        E 120 90 4b 60
        E 0 90 57 60
        E 0 90 63 60
        E 120 80 4b 00
        E 0 80 57 00
        E 0 80 63 00
        E 120 90 3e 60
        E 0 90 4b 60
        E 0 90 57 60
        E 0 90 63 60
        E 120 80 3e 00
        E 0 80 4b 00
        E 0 80 57 00
        E 0 80 63 00
        E 120 90 4b 60
        E 0 90 57 60
        E 0 90 63 60
        E 120 80 4b 00
        E 0 80 57 00
        E 0 80 63 00
        E 120 90 3e 60
        E 0 90 4b 60
        E 0 90 57 60
        E 0 90 63 60
        E 120 80 3e 00
        E 0 80 4b 00
        E 0 80 57 00
        E 0 80 63 00
        E 120 90 4b 60
        E 0 90 57 60
        E 0 90 63 60
        E 120 80 4b 00
        E 0 80 57 00
        E 0 80 63 00
        E 120 90 4b 60
        E 0 90 57 60
        E 0 90 63 60
        E 120 80 4b 00
        E 0 80 57 00
        E 0 80 63 00
        E 120 90 57 60
        E 0 90 63 60
        E 120 80 57 00
        E 0 80 63 00
        E 120 90 3c 60
        E 0 90 48 60
        E 0 90 54 60
        E 0 90 60 60
        E 120 80 3c 00
        E 0 80 48 00
        E 0 80 54 00
        E 0 80 60 00
        E 120 90 48 60
        E 0 90 54 60
        E 0 90 60 60
        E 120 80 48 00
        E 0 80 54 00
        E 0 80 60 00
        E 120 90 3c 60
        E 0 90 48 60
        E 0 90 54 60
        E 0 90 60 60
        E 120 80 3c 00
        E 0 80 48 00
        E 0 80 54 00
        E 0 80 60 00
        E 120 90 48 60
        E 0 90 54 60
        E 0 90 60 60
        E 120 80 48 00
        E 0 80 54 00
        E 0 80 60 00
        E 120 90 3c 60
        E 0 90 48 60
        E 0 90 54 60
        E 0 90 60 60
        E 120 80 3c 00
        E 0 80 48 00
        E 0 80 54 00
        E 0 80 60 00
        E 120 90 48 60
        E 0 90 54 60
        E 0 90 60 60
        E 120 80 48 00
        E 0 80 54 00
        E 0 80 60 00
        E 120 90 48 60
        E 0 90 54 60
        E 0 90 60 60
        E 120 80 48 00
        E 0 80 54 00
        E 0 80 60 00
        E 120 90 54 60
        E 0 90 60 60
        E 120 80 28 00
        E 0 80 54 00
        E 0 80 60 00
        E 120 90 2f 60
        E 0 90 3d 60
        E 0 90 4a 60
        E 0 90 56 60
        E 0 90 62 60
        E 120 80 3d 00
        E 0 80 4a 00
        E 0 80 56 00
        E 0 80 62 00
        E 120 90 4a 60
        E 0 90 56 60
        E 0 90 62 60
        E 120 80 4a 00
        E 0 80 56 00
        E 0 80 62 00
        E 120 90 3d 60
        E 0 90 4a 60
        E 0 90 56 60
        E 0 90 62 60
        E 120 80 3d 00
        E 0 80 4a 00
        E 0 80 56 00
        E 0 80 62 00
        E 120 90 4a 60
        E 0 90 56 60
        E 0 90 62 60
        E 120 80 4a 00
        E 0 80 56 00
        E 0 80 62 00
        E 120 90 3d 60
        E 0 90 4a 60
        E 0 90 56 60
        E 0 90 62 60
        E 120 80 3d 00
        E 0 80 4a 00
        E 0 80 56 00
        E 0 80 62 00
        E 120 90 4a 60
        E 0 90 56 60
        E 0 90 62 60
        E 120 80 4a 00
        E 0 80 56 00
        E 0 80 62 00
        E 120 90 4a 60
        E 0 90 56 60
        E 0 90 62 60
        E 120 80 4a 00
        E 0 80 56 00
        E 0 80 62 00
        E 120 90 56 60
        E 0 90 62 60
        E 120 80 2f 00
        E 0 80 56 00
        E 0 80 62 00
        E 120 90 28 60
        E 0 90 3c 60
        E 0 90 48 60
        E 0 90 54 60
        E 0 90 60 60
        E 120 80 3c 00
        E 0 80 48 00
        E 0 80 54 00
        E 0 80 60 00
        E 120 90 48 60
        E 0 90 54 60
        E 0 90 60 60
        E 120 80 48 00
        E 0 80 54 00
        E 0 80 60 00
        E 120 90 3c 60
        E 0 90 48 60
        E 0 90 54 60
        E 0 90 60 60
        E 120 80 3c 00
        E 0 80 48 00
        E 0 80 54 00
        E 0 80 60 00
        E 120 90 48 60
        E 0 90 54 60
        E 0 90 60 60
        E 120 80 48 00
        E 0 80 54 00
        E 0 80 60 00
        E 120 90 3c 60
        E 0 90 48 60
        E 0 90 54 60
        E 0 90 60 60
        E 120 80 3c 00
        E 0 80 48 00
        E 0 80 54 00
        E 0 80 60 00
        E 120 90 48 60
        E 0 90 54 60
        E 0 90 60 60
        E 120 80 48 00
        E 0 80 54 00
        E 0 80 60 00
        E 120 90 48 60
        E 0 90 54 60
        E 0 90 60 60
        E 120 80 48 00
        E 0 80 54 00
        E 0 80 60 00
        E 120 90 54 60
        E 0 90 60 60
        E 120 80 54 00
        E 0 80 60 00
        E 120 90 3e 60
        E 0 90 4b 60
        E 0 90 57 60
        E 0 90 63 60
        E 120 80 3e 00
        E 0 80 4b 00
        E 0 80 57 00
        E 0 80 63 00
        E 120 90 4b 60
        E 0 90 57 60
        E 0 90 63 60
        E 120 80 4b 00
        E 0 80 57 00
        E 0 80 63 00
        E 120 90 3e 60
        E 0 90 4b 60
        E 0 90 57 60
        E 0 90 63 60
        E 120 80 3e 00
        E 0 80 4b 00
        E 0 80 57 00
        E 0 80 63 00
        E 120 90 4b 60
        E 0 90 57 60
        E 0 90 63 60
        E 120 80 4b 00
        E 0 80 57 00
        E 0 80 63 00
        E 120 90 3e 60
        E 0 90 4b 60
        E 0 90 57 60
        E 0 90 63 60
        E 120 80 3e 00
        E 0 80 4b 00
        E 0 80 57 00
        E 0 80 63 00
        E 120 90 4b 60
        E 0 90 57 60
        E 0 90 63 60
        E 120 80 4b 00
        E 0 80 57 00
        E 0 80 63 00
        E 120 90 4b 60
        E 0 90 57 60
        E 0 90 63 60
        E 120 80 4b 00
        E 0 80 57 00
        E 0 80 63 00
        E 120 90 57 60
        E 0 90 63 60
        E 120 80 57 00
        E 0 80 63 00
        E 120 90 3c 60
        E 0 90 48 60
        E 0 90 54 60
        E 0 90 60 60
        E 120 80 3c 00
        E 0 80 48 00
        E 0 80 54 00
        E 0 80 60 00
        E 120 90 48 60
        E 0 90 54 60
        E 0 90 60 60
        E 120 80 48 00
        E 0 80 54 00
        E 0 80 60 00
        E 120 90 3c 60
        E 0 90 48 60
        E 0 90 54 60
        E 0 90 60 60
        E 120 80 3c 00
        E 0 80 48 00
        E 0 80 54 00
        E 0 80 60 00
        E 120 90 48 60
        E 0 90 54 60
        E 0 90 60 60
        E 120 80 48 00
        E 0 80 54 00
        E 0 80 60 00
        E 120 90 3c 60
        E 0 90 48 60
        E 0 90 54 60
        E 0 90 60 60
        E 120 80 3c 00
        E 0 80 48 00
        E 0 80 54 00
        E 0 80 60 00
        E 120 90 48 60
        E 0 90 54 60
        E 0 90 60 60
        E 120 80 48 00
        E 0 80 54 00
        E 0 80 60 00
        E 120 90 48 60
        E 0 90 54 60
        E 0 90 60 60
        E 120 80 48 00
        E 0 80 54 00
        E 0 80 60 00
        E 120 90 54 60
        E 0 90 60 60
        E 120 80 28 00
        E 0 80 54 00
        E 0 80 60 00
        E 120 90 2f 60
        E 0 90 3d 60
        E 0 90 4a 60
        E 0 90 56 60
        E 0 90 62 60
        E 120 80 3d 00
        E 0 80 4a 00
        E 0 80 56 00
        E 0 80 62 00
        E 120 90 4a 60
        E 0 90 56 60
        E 0 90 62 60
        E 120 80 4a 00
        E 0 80 56 00
        E 0 80 62 00
        E 120 90 3d 60
        E 0 90 4a 60
        E 0 90 56 60
        E 0 90 62 60
        E 120 80 3d 00
        E 0 80 4a 00
        E 0 80 56 00
        E 0 80 62 00
        E 120 90 4a 60
        E 0 90 56 60
        E 0 90 62 60
        E 120 80 4a 00
        E 0 80 56 00
        E 0 80 62 00
        E 120 90 3d 60
        E 0 90 4a 60
        E 0 90 56 60
        E 0 90 62 60
        E 120 80 3d 00
        E 0 80 4a 00
        E 0 80 56 00
        E 0 80 62 00
        E 120 90 4a 60
        E 0 90 56 60
        E 0 90 62 60
        E 120 80 4a 00
        E 0 80 56 00
        E 0 80 62 00
        E 120 90 4a 60
        E 0 90 56 60
        E 0 90 62 60
        E 120 80 4a 00
        E 0 80 56 00
        E 0 80 62 00
        E 120 90 56 60
        E 0 90 62 60
        E 120 80 2f 00
        E 0 80 56 00
        E 0 80 62 00
        E 120 90 28 60
        E 0 90 3c 60
        E 0 90 48 60
        E 0 90 54 60
        E 0 90 60 60
        E 120 80 3c 00
        E 0 80 48 00
        E 0 80 54 00
        E 0 80 60 00
        E 120 90 48 60
        E 0 90 54 60
        E 0 90 60 60
        E 120 80 48 00
        E 0 80 54 00
        E 0 80 60 00
        E 120 90 3c 60
        E 0 90 48 60
        E 0 90 54 60
        E 0 90 60 60
        E 120 80 3c 00
        E 0 80 48 00
        E 0 80 54 00
        E 0 80 60 00
        E 120 90 48 60
        E 0 90 54 60
        E 0 90 60 60
        E 120 80 48 00
        E 0 80 54 00
        E 0 80 60 00
        E 120 90 3c 60
        E 0 90 48 60
        E 0 90 54 60
        E 0 90 60 60
        E 120 80 3c 00
        E 0 80 48 00
        E 0 80 54 00
        E 0 80 60 00
        E 120 90 48 60
        E 0 90 54 60
        E 0 90 60 60
        E 120 80 48 00
        E 0 80 54 00
        E 0 80 60 00
        E 120 90 48 60
        E 0 90 54 60
        E 0 90 60 60
        E 120 80 48 00
        E 0 80 54 00
        E 0 80 60 00
        E 120 90 54 60
        E 0 90 60 60
        E 120 80 54 00
        E 0 80 60 00
        E 120 90 3e 60
        E 0 90 4b 60
        E 0 90 57 60
        E 0 90 63 60
        E 120 80 3e 00
        E 0 80 4b 00
        E 0 80 57 00
        E 0 80 63 00
        E 120 90 4b 60
        E 0 90 57 60
        E 0 90 63 60
        E 120 80 4b 00
        E 0 80 57 00
        E 0 80 63 00
        E 120 90 3e 60
        E 0 90 4b 60
        E 0 90 57 60
        E 0 90 63 60
        E 120 80 3e 00
        E 0 80 4b 00
        E 0 80 57 00
        E 0 80 63 00
        E 120 90 4b 60
        E 0 90 57 60
        E 0 90 63 60
        E 120 80 4b 00
        E 0 80 57 00
        E 0 80 63 00
        E 120 90 3e 60
        E 0 90 4b 60
        E 0 90 57 60
        E 0 90 63 60
        E 120 80 3e 00
        E 0 80 4b 00
        E 0 80 57 00
        E 0 80 63 00
        E 120 90 4b 60
        E 0 90 57 60
        E 0 90 63 60
        E 120 80 4b 00
        E 0 80 57 00
        E 0 80 63 00
        E 120 90 4b 60
        E 0 90 57 60
        E 0 90 63 60
        E 120 80 4b 00
        E 0 80 57 00
        E 0 80 63 00
        E 120 90 57 60
        E 0 90 63 60
        E 120 80 57 00
        E 0 80 63 00
        E 120 90 3c 60
        E 0 90 48 60
        E 0 90 54 60
        E 0 90 60 60
        E 120 80 3c 00
        E 0 80 48 00
        E 0 80 54 00
        E 0 80 60 00
        E 120 90 48 60
        E 0 90 54 60
        E 0 90 60 60
        E 120 80 48 00
        E 0 80 54 00
        E 0 80 60 00
        E 120 90 3c 60
        E 0 90 48 60
        E 0 90 54 60
        E 0 90 60 60
        E 120 80 3c 00
        E 0 80 48 00
        E 0 80 54 00
        E 0 80 60 00
        E 120 90 48 60
        E 0 90 54 60
        E 0 90 60 60
        E 120 80 48 00
        E 0 80 54 00
        E 0 80 60 00
        E 120 90 3c 60
        E 0 90 48 60
        E 0 90 54 60
        E 0 90 60 60
        E 120 80 3c 00
        E 0 80 48 00
        E 0 80 54 00
        E 0 80 60 00
        E 120 90 48 60
        E 0 90 54 60
        E 0 90 60 60
        E 120 80 48 00
        E 0 80 54 00
        E 0 80 60 00
        E 120 90 48 60
        E 0 90 54 60
        E 0 90 60 60
        E 120 80 48 00
        E 0 80 54 00
        E 0 80 60 00
        E 120 90 54 60
        E 0 90 60 60
        E 120 80 28 00
        E 0 80 54 00
        E 0 80 60 00
        E 120 90 2f 60
        E 0 90 3d 60
        E 0 90 4a 60
        E 0 90 56 60
        E 0 90 62 60
        E 120 80 3d 00
        E 0 80 4a 00
        E 0 80 56 00
        E 0 80 62 00
        E 120 90 4a 60
        E 0 90 56 60
        E 0 90 62 60
        E 120 80 4a 00
        E 0 80 56 00
        E 0 80 62 00
        E 120 90 3d 60
        E 0 90 4a 60
        E 0 90 56 60
        E 0 90 62 60
        E 120 80 3d 00
        E 0 80 4a 00
        E 0 80 56 00
        E 0 80 62 00
        E 120 90 4a 60
        E 0 90 56 60
        E 0 90 62 60
        E 120 80 4a 00
        E 0 80 56 00
        E 0 80 62 00
        E 120 90 3d 60
        E 0 90 4a 60
        E 0 90 56 60
        E 0 90 62 60
        E 120 80 3d 00
        E 0 80 4a 00
        E 0 80 56 00
        E 0 80 62 00
        E 120 90 4a 60
        E 0 90 56 60
        E 0 90 62 60
        E 120 80 4a 00
        E 0 80 56 00
        E 0 80 62 00
        E 120 90 4a 60
        E 0 90 56 60
        E 0 90 62 60
        E 120 80 4a 00
        E 0 80 56 00
        E 0 80 62 00
        E 120 90 56 60
        E 0 90 62 60
        E 120 80 2f 00
        E 0 80 56 00
        E 0 80 62 00
        E 120 90 28 60
        E 0 90 3c 60
        E 0 90 48 60
        E 0 90 54 60
        E 0 90 60 60
        E 120 80 3c 00
        E 0 80 48 00
        E 0 80 54 00
        E 0 80 60 00
        E 120 90 48 60
        E 0 90 54 60
        E 0 90 60 60
        E 120 80 48 00
        E 0 80 54 00
        E 0 80 60 00
        E 120 90 3c 60
        E 0 90 48 60
        E 0 90 54 60
        E 0 90 60 60
        E 120 80 3c 00
        E 0 80 48 00
        E 0 80 54 00
        E 0 80 60 00
        E 120 90 48 60
        E 0 90 54 60
        E 0 90 60 60
        E 120 80 48 00
        E 0 80 54 00
        E 0 80 60 00
        E 120 90 3c 60
        E 0 90 48 60
        E 0 90 54 60
        E 0 90 60 60
        E 120 80 3c 00
        E 0 80 48 00
        E 0 80 54 00
        E 0 80 60 00
        E 120 90 48 60
        E 0 90 54 60
        E 0 90 60 60
        E 120 80 48 00
        E 0 80 54 00
        E 0 80 60 00
        E 120 90 48 60
        E 0 90 54 60
        E 0 90 60 60
        E 120 80 48 00
        E 0 80 54 00
        E 0 80 60 00
        E 120 90 54 60
        E 0 90 60 60
        E 120 80 54 00
        E 0 80 60 00
        E 120 90 3e 60
        E 0 90 4b 60
        E 0 90 57 60
        E 0 90 63 60
        E 0 90 74 60
        E 120 80 3e 00
        E 0 80 4b 00
        E 0 80 57 00
        E 0 80 63 00
        E 120 90 4b 60
        E 0 90 57 60
        E 0 90 63 60
        E 120 80 4b 00
        E 0 80 57 00
        E 0 80 63 00
        E 120 90 3e 60
        E 0 90 4b 60
        E 0 90 57 60
        E 0 90 63 60
        E 120 80 3e 00
        E 0 80 4b 00
        E 0 80 57 00
        E 0 80 63 00
        E 120 90 4b 60
        E 0 90 57 60
        E 0 90 63 60
        E 120 80 4b 00
        E 0 80 57 00
        E 0 80 63 00
        E 120 90 3e 60
        E 0 90 4b 60
        E 0 90 57 60
        E 0 90 63 60
        E 120 80 3e 00
        E 0 80 4b 00
        E 0 80 57 00
        E 0 80 63 00
        E 120 90 4b 60
        E 0 90 57 60
        E 0 90 63 60
        E 120 80 4b 00
        E 0 80 57 00
        E 0 80 63 00
        E 120 90 4b 60
        E 0 90 57 60
        E 0 90 63 60
        E 120 80 4b 00
        E 0 80 57 00
        E 0 80 63 00
        E 120 90 57 60
        E 0 90 63 60
        E 120 80 57 00
        E 0 80 63 00
        E 120 90 3c 60
        E 0 90 48 60
        E 0 90 54 60
        E 0 90 60 60
        E 120 80 3c 00
        E 0 80 48 00
        E 0 80 54 00
        E 0 80 60 00
        E 120 90 48 60
        E 0 90 54 60
        E 0 90 60 60
        E 120 80 48 00
        E 0 80 54 00
        E 0 80 60 00
        E 120 90 3c 60
        E 0 90 48 60
        E 0 90 54 60
        E 0 90 60 60
        E 120 80 3c 00
        E 0 80 48 00
        E 0 80 54 00
        E 0 80 60 00
        E 120 90 48 60
        E 0 90 54 60
        E 0 90 60 60
        E 120 80 48 00
        E 0 80 54 00
        E 0 80 60 00
        E 120 90 3c 60
        E 0 90 48 60
        E 0 90 54 60
        E 0 90 60 60
        E 120 80 3c 00
        E 0 80 48 00
        E 0 80 54 00
        E 0 80 60 00
        E 120 90 48 60
        E 0 90 54 60
        E 0 90 60 60
        E 120 80 48 00
        E 0 80 54 00
        E 0 80 60 00
        E 120 90 48 60
        E 0 90 54 60
        E 0 90 60 60
        E 120 80 48 00
        E 0 80 54 00
        E 0 80 60 00
        E 120 90 54 60
        E 0 90 60 60
        E 120 80 28 00
        E 0 80 54 00
        E 0 80 60 00
        E 120 80 74 00
        E 0 90 2f 60
        E 0 90 3d 60
        E 0 90 4a 60
        E 0 90 56 60
        E 0 90 62 60
        E 120 80 3d 00
        E 0 80 4a 00
        E 0 80 56 00
        E 0 80 62 00
        E 120 90 4a 60
        E 0 90 56 60
        E 0 90 62 60
        E 120 80 4a 00
        E 0 80 56 00
        E 0 80 62 00
        E 120 90 3d 60
        E 0 90 4a 60
        E 0 90 56 60
        E 0 90 62 60
        E 120 80 3d 00
        E 0 80 4a 00
        E 0 80 56 00
        E 0 80 62 00
        E 120 90 4a 60
        E 0 90 56 60
        E 0 90 62 60
        E 120 80 4a 00
        E 0 80 56 00
        E 0 80 62 00
        E 120 90 3d 60
        E 0 90 4a 60
        E 0 90 56 60
        E 0 90 62 60
        E 120 80 3d 00
        E 0 80 4a 00
        E 0 80 56 00
        E 0 80 62 00
        E 120 90 4a 60
        E 0 90 56 60
        E 0 90 62 60
        E 120 80 4a 00
        E 0 80 56 00
        E 0 80 62 00
        E 120 90 4a 60
        E 0 90 56 60
        E 0 90 62 60
        E 120 80 4a 00
        E 0 80 56 00
        E 0 80 62 00
        E 120 90 56 60
        E 0 90 62 60
        E 120 80 2f 00
        E 0 80 56 00
        E 0 80 62 00
        E 120 90 28 60
        E 0 90 3c 60
        E 0 90 48 60
        E 0 90 54 60
        E 0 90 60 60
        E 120 80 3c 00
        E 0 80 48 00
        E 0 80 54 00
        E 0 80 60 00
        E 120 90 48 60
        E 0 90 54 60
        E 0 90 60 60
        E 120 80 48 00
        E 0 80 54 00
        E 0 80 60 00
        E 120 90 3c 60
        E 0 90 48 60
        E 0 90 54 60
        E 0 90 60 60
        E 120 80 3c 00
        E 0 80 48 00
        E 0 80 54 00
        E 0 80 60 00
        E 120 90 48 60
        E 0 90 54 60
        E 0 90 60 60
        E 120 80 48 00
        E 0 80 54 00
        E 0 80 60 00
        E 120 90 3c 60
        E 0 90 48 60
        E 0 90 54 60
        E 0 90 60 60
        E 120 80 3c 00
        E 0 80 48 00
        E 0 80 54 00
        E 0 80 60 00
        E 120 90 48 60
        E 0 90 54 60
        E 0 90 60 60
        E 120 80 48 00
        E 0 80 54 00
        E 0 80 60 00
        E 120 90 48 60
        E 0 90 54 60
        E 0 90 60 60
        E 120 80 48 00
        E 0 80 54 00
        E 0 80 60 00
        E 120 90 54 60
        E 0 90 60 60
        E 120 80 54 00
        E 0 80 60 00
        <X 120 0
          /wFbbWVsbG93XQ==
        >
        E 0 90 3e 60
        E 0 90 4b 60
        E 0 90 57 60
        E 0 90 63 60
        E 120 80 3e 00
        E 0 80 4b 00
        E 0 80 57 00
        E 0 80 63 00
        E 120 90 4b 60
        E 0 90 57 60
        E 0 90 63 60
        E 120 80 4b 00
        E 0 80 57 00
        E 0 80 63 00
        E 120 90 3e 60
        E 0 90 4b 60
        E 0 90 57 60
        E 0 90 63 60
        E 120 80 3e 00
        E 0 80 4b 00
        E 0 80 57 00
        E 0 80 63 00
        E 120 90 4b 60
        E 0 90 57 60
        E 0 90 63 60
        E 120 80 4b 00
        E 0 80 57 00
        E 0 80 63 00
        E 120 90 3e 60
        E 0 90 4b 60
        E 0 90 57 60
        E 0 90 63 60
        E 120 80 3e 00
        E 0 80 4b 00
        E 0 80 57 00
        E 0 80 63 00
        E 120 90 4b 60
        E 0 90 57 60
        E 0 90 63 60
        E 120 80 4b 00
        E 0 80 57 00
        E 0 80 63 00
        E 120 90 3e 60
        E 0 90 4b 60
        E 0 90 57 60
        E 0 90 63 60
        E 120 80 3e 00
        E 0 80 4b 00
        E 0 80 57 00
        E 0 80 63 00
        E 120 90 4b 60
        E 0 90 57 60
        E 0 90 63 60
        E 120 80 4b 00
        E 0 80 57 00
        E 0 80 63 00
        E 120 90 3e 60
        E 0 90 4b 60
        E 0 90 57 60
        E 0 90 63 60
        E 120 80 3e 00
        E 0 80 4b 00
        E 0 80 57 00
        E 0 80 63 00
        E 120 90 4b 60
        E 0 90 57 60
        E 0 90 63 60
        E 120 80 4b 00
        E 0 80 57 00
        E 0 80 63 00
        E 120 90 3e 60
        E 0 90 4b 60
        E 0 90 57 60
        E 0 90 63 60
        E 120 80 3e 00
        E 0 80 4b 00
        E 0 80 57 00
        E 0 80 63 00
        E 120 90 4b 60
        E 0 90 57 60
        E 0 90 63 60
        E 120 80 4b 00
        E 0 80 57 00
        E 0 80 63 00
        E 120 90 3e 60
        E 0 90 4b 60
        E 0 90 57 60
        E 0 90 63 60
        E 120 80 3e 00
        E 0 80 4b 00
        E 0 80 57 00
        E 0 80 63 00
        E 120 90 4b 60
        E 0 90 57 60
        E 0 90 63 60
        E 120 80 4b 00
        E 0 80 57 00
        E 0 80 63 00
        E 120 90 3e 60
        E 0 90 4b 60
        E 0 90 57 60
        E 0 90 63 60
        E 120 80 3e 00
        E 0 80 4b 00
        E 0 80 57 00
        E 0 80 63 00
        E 120 90 4b 60
        E 0 90 57 60
        E 0 90 63 60
        E 120 80 4b 00
        E 0 80 57 00
        E 0 80 63 00
        E 120 90 3e 60
        E 0 90 4b 60
        E 0 90 57 60
        E 0 90 63 60
        E 120 80 3e 00
        E 0 80 4b 00
        E 0 80 57 00
        E 0 80 63 00
        E 120 90 4b 60
        E 0 90 57 60
        E 0 90 63 60
        E 120 80 4b 00
        E 0 80 57 00
        E 0 80 63 00
        E 120 90 3e 60
        E 0 90 4b 60
        E 0 90 57 60
        E 0 90 63 60
        E 120 80 3e 00
        E 0 80 4b 00
        E 0 80 57 00
        E 0 80 63 00
        E 120 90 4b 60
        E 0 90 57 60
        E 0 90 63 60
        E 120 80 4b 00
        E 0 80 57 00
        E 0 80 63 00
        E 120 90 3e 60
        E 0 90 4b 60
        E 0 90 57 60
        E 0 90 63 60
        E 120 80 3e 00
        E 0 80 4b 00
        E 0 80 57 00
        E 0 80 63 00
        E 120 90 4b 60
        E 0 90 57 60
        E 0 90 63 60
        E 120 80 4b 00
        E 0 80 57 00
        E 0 80 63 00
        E 120 90 3e 60
        E 0 90 4b 60
        E 0 90 57 60
        E 0 90 63 60
        E 120 80 3e 00
        E 0 80 4b 00
        E 0 80 57 00
        E 0 80 63 00
        E 120 90 4b 60
        E 0 90 57 60
        E 0 90 63 60
        E 120 80 4b 00
        E 0 80 57 00
        E 0 80 63 00
        E 120 90 3e 60
        E 0 90 4b 60
        E 0 90 57 60
        E 0 90 63 60
        E 120 80 3e 00
        E 0 80 4b 00
        E 0 80 57 00
        E 0 80 63 00
        E 120 90 4b 60
        E 0 90 57 60
        E 0 90 63 60
        E 120 80 4b 00
        E 0 80 57 00
        E 0 80 63 00
        E 120 90 3e 60
        E 0 90 4b 60
        E 0 90 57 60
        E 0 90 63 60
        E 120 80 3e 00
        E 0 80 4b 00
        E 0 80 57 00
        E 0 80 63 00
        E 120 90 4b 60
        E 0 90 57 60
        E 0 90 63 60
        E 120 80 4b 00
        E 0 80 57 00
        E 0 80 63 00
        E 120 90 3e 60
        E 0 90 4b 60
        E 0 90 57 60
        E 0 90 63 60
        E 120 80 3e 00
        E 0 80 4b 00
        E 0 80 57 00
        E 0 80 63 00
        E 120 90 4b 60
        E 0 90 57 60
        E 0 90 63 60
        E 120 80 4b 00
        E 0 80 57 00
        E 0 80 63 00
        E 120 90 3e 60
        E 0 90 4b 60
        E 0 90 57 60
        E 0 90 63 60
        E 120 80 3e 00
        E 0 80 4b 00
        E 0 80 57 00
        E 0 80 63 00
        E 120 90 4b 60
        E 0 90 57 60
        E 0 90 63 60
        E 120 80 4b 00
        E 0 80 57 00
        E 0 80 63 00
        E 120 90 3e 60
        E 0 90 4b 60
        E 0 90 57 60
        E 0 90 63 60
        E 120 80 3e 00
        E 0 80 4b 00
        E 0 80 57 00
        E 0 80 63 00
        E 120 90 4b 60
        E 0 90 57 60
        E 0 90 63 60
        E 120 80 4b 00
        E 0 80 57 00
        E 0 80 63 00
        E 120 90 3e 60
        E 0 90 4b 60
        E 0 90 57 60
        E 0 90 63 60
        E 120 80 3e 00
        E 0 80 4b 00
        E 0 80 57 00
        E 0 80 63 00
        E 120 90 4b 60
        E 0 90 57 60
        E 0 90 63 60
        E 120 80 4b 00
        E 0 80 57 00
        E 0 80 63 00
        E 120 90 3e 60
        E 0 90 4b 60
        E 0 90 57 60
        E 0 90 63 60
        E 120 80 3e 00
        E 0 80 4b 00
        E 0 80 57 00
        E 0 80 63 00
        E 120 90 4b 60
        E 0 90 57 60
        E 0 90 63 60
        E 120 80 4b 00
        E 0 80 57 00
        E 0 80 63 00
        E 120 90 3e 60
        E 0 90 4b 60
        E 0 90 57 60
        E 0 90 63 60
        E 120 80 3e 00
        E 0 80 4b 00
        E 0 80 57 00
        E 0 80 63 00
        E 120 90 4b 60
        E 0 90 57 60
        E 0 90 63 60
        E 120 80 4b 00
        E 0 80 57 00
        E 0 80 63 00
        E 120 90 3e 60
        E 0 90 4b 60
        E 0 90 57 60
        E 0 90 63 60
        E 120 80 3e 00
        E 0 80 4b 00
        E 0 80 57 00
        E 0 80 63 00
        E 120 90 4b 60
        E 0 90 57 60
        E 0 90 63 60
        E 120 80 4b 00
        E 0 80 57 00
        E 0 80 63 00
        E 120 90 3e 60
        E 0 90 4b 60
        E 0 90 57 60
        E 0 90 63 60
        E 120 80 3e 00
        E 0 80 4b 00
        E 0 80 57 00
        E 0 80 63 00
        E 120 90 4b 60
        E 0 90 57 60
        E 0 90 63 60
        E 120 80 4b 00
        E 0 80 57 00
        E 0 80 63 00
        E 120 90 3e 60
        E 0 90 4b 60
        E 0 90 57 60
        E 0 90 63 60
        E 120 80 3e 00
        E 0 80 4b 00
        E 0 80 57 00
        E 0 80 63 00
        E 120 90 4b 60
        E 0 90 57 60
        E 0 90 63 60
        E 120 80 4b 00
        E 0 80 57 00
        E 0 80 63 00
        E 120 90 3e 60
        E 0 90 4b 60
        E 0 90 57 60
        E 0 90 63 60
        E 120 80 3e 00
        E 0 80 4b 00
        E 0 80 57 00
        E 0 80 63 00
        E 120 90 4b 60
        E 0 90 57 60
        E 0 90 63 60
        E 120 80 4b 00
        E 0 80 57 00
        E 0 80 63 00
        E 120 90 3e 60
        E 0 90 4b 60
        E 0 90 57 60
        E 0 90 63 60
        E 120 80 3e 00
        E 0 80 4b 00
        E 0 80 57 00
        E 0 80 63 00
        E 120 90 4b 60
        E 0 90 57 60
        E 0 90 63 60
        E 120 80 4b 00
        E 0 80 57 00
        E 0 80 63 00
        E 120 90 3e 60
        E 0 90 4b 60
        E 0 90 57 60
        E 0 90 63 60
        E 120 80 3e 00
        E 0 80 4b 00
        E 0 80 57 00
        E 0 80 63 00
        E 120 90 4b 60
        E 0 90 57 60
        E 0 90 63 60
        E 120 80 4b 00
        E 0 80 57 00
        E 0 80 63 00
        E 120 90 3e 60
        E 0 90 4b 60
        E 0 90 57 60
        E 0 90 63 60
        E 120 80 3e 00
        E 0 80 4b 00
        E 0 80 57 00
        E 0 80 63 00
        E 120 90 4b 60
        E 0 90 57 60
        E 0 90 63 60
        E 120 80 4b 00
        E 0 80 57 00
        E 0 80 63 00
        E 120 90 3e 60
        E 0 90 4b 60
        E 0 90 57 60
        E 0 90 63 60
        E 120 80 3e 00
        E 0 80 4b 00
        E 0 80 57 00
        E 0 80 63 00
        E 120 90 4b 60
        E 0 90 57 60
        E 0 90 63 60
        E 120 80 4b 00
        E 0 80 57 00
        E 0 80 63 00
        E 120 90 3e 60
        E 0 90 4b 60
        E 0 90 57 60
        E 0 90 63 60
        E 120 80 3e 00
        E 0 80 4b 00
        E 0 80 57 00
        E 0 80 63 00
        E 120 90 4b 60
        E 0 90 57 60
        E 0 90 63 60
        E 120 80 4b 00
        E 0 80 57 00
        E 0 80 63 00
        E 120 90 3e 60
        E 0 90 4b 60
        E 0 90 57 60
        E 0 90 63 60
        E 120 80 3e 00
        E 0 80 4b 00
        E 0 80 57 00
        E 0 80 63 00
        E 120 90 4b 60
        E 0 90 57 60
        E 0 90 63 60
        E 120 80 4b 00
        E 0 80 57 00
        E 0 80 63 00
        E 120 90 3e 60
        E 0 90 4b 60
        E 0 90 57 60
        E 0 90 63 60
        E 120 80 3e 00
        E 0 80 4b 00
        E 0 80 57 00
        E 0 80 63 00
        E 120 90 4b 60
        E 0 90 57 60
        E 0 90 63 60
        E 120 80 4b 00
        E 0 80 57 00
        E 0 80 63 00
        E 120 90 3e 60
        E 0 90 4b 60
        E 0 90 57 60
        E 0 90 63 60
        E 120 80 3e 00
        E 0 80 4b 00
        E 0 80 57 00
        E 0 80 63 00
        E 120 90 4b 60
        E 0 90 57 60
        E 0 90 63 60
        E 120 80 4b 00
        E 0 80 57 00
        E 0 80 63 00
        E 120 90 3e 60
        E 0 90 4b 60
        E 0 90 57 60
        E 0 90 63 60
        E 120 80 3e 00
        E 0 80 4b 00
        E 0 80 57 00
        E 0 80 63 00
        E 120 90 4b 60
        E 0 90 57 60
        E 0 90 63 60
        E 120 80 4b 00
        E 0 80 57 00
        E 0 80 63 00
        E 120 90 3e 60
        E 0 90 4b 60
        E 0 90 57 60
        E 0 90 63 60
        E 120 80 3e 00
        E 0 80 4b 00
        E 0 80 57 00
        E 0 80 63 00
        E 120 90 4b 60
        E 0 90 57 60
        E 0 90 63 60
        E 120 80 4b 00
        E 0 80 57 00
        E 0 80 63 00
        E 120 90 3e 60
        E 0 90 4b 60
        E 0 90 57 60
        E 0 90 63 60
        E 120 80 3e 00
        E 0 80 4b 00
        E 0 80 57 00
        E 0 80 63 00
        E 120 90 4b 60
        E 0 90 57 60
        E 0 90 63 60
        E 120 80 4b 00
        E 0 80 57 00
        E 0 80 63 00
        E 120 90 3e 60
        E 0 90 4b 60
        E 0 90 57 60
        E 0 90 63 60
        E 120 80 3e 00
        E 0 80 4b 00
        E 0 80 57 00
        E 0 80 63 00
        E 120 90 4b 60
        E 0 90 57 60
        E 0 90 63 60
        E 120 80 4b 00
        E 0 80 57 00
        E 0 80 63 00
        E 120 90 3e 60
        E 0 90 4b 60
        E 0 90 57 60
        E 0 90 63 60
        E 0 90 74 60
        E 120 80 3e 00
        E 0 80 4b 00
        E 0 80 57 00
        E 0 80 63 00
        E 120 90 4b 60
        E 0 90 57 60
        E 0 90 63 60
        E 120 80 4b 00
        E 0 80 57 00
        E 0 80 63 00
        E 120 90 3e 60
        E 0 90 4b 60
        E 0 90 57 60
        E 0 90 63 60
        E 120 80 3e 00
        E 0 80 4b 00
        E 0 80 57 00
        E 0 80 63 00
        E 120 90 4b 60
        E 0 90 57 60
        E 0 90 63 60
        E 120 80 4b 00
        E 0 80 57 00
        E 0 80 63 00
        E 120 90 3e 60
        E 0 90 4b 60
        E 0 90 57 60
        E 0 90 63 60
        E 120 80 3e 00
        E 0 80 4b 00
        E 0 80 57 00
        E 0 80 63 00
        E 120 90 4b 60
        E 0 90 57 60
        E 0 90 63 60
        E 120 80 4b 00
        E 0 80 57 00
        E 0 80 63 00
        E 120 90 3e 60
        E 0 90 4b 60
        E 0 90 57 60
        E 0 90 63 60
        E 120 80 3e 00
        E 0 80 4b 00
        E 0 80 57 00
        E 0 80 63 00
        E 120 90 4b 60
        E 0 90 57 60
        E 0 90 63 60
        E 120 80 4b 00
        E 0 80 57 00
        E 0 80 63 00
        E 120 80 74 00
        E 0 90 3e 60
        E 0 90 4b 60
        E 0 90 57 60
        E 0 90 63 60
        E 120 80 3e 00
        E 0 80 4b 00
        E 0 80 57 00
        E 0 80 63 00
        E 120 90 4b 60
        E 0 90 57 60
        E 0 90 63 60
        E 120 80 4b 00
        E 0 80 57 00
        E 0 80 63 00
        E 120 90 3e 60
        E 0 90 4b 60
        E 0 90 57 60
        E 0 90 63 60
        E 120 80 3e 00
        E 0 80 4b 00
        E 0 80 57 00
        E 0 80 63 00
        E 120 90 4b 60
        E 0 90 57 60
        E 0 90 63 60
        E 120 80 4b 00
        E 0 80 57 00
        E 0 80 63 00
        E 120 90 3e 60
        E 0 90 4b 60
        E 0 90 57 60
        E 0 90 63 60
        E 120 80 3e 00
        E 0 80 4b 00
        E 0 80 57 00
        E 0 80 63 00
        E 120 90 4b 60
        E 0 90 57 60
        E 0 90 63 60
        E 120 80 4b 00
        E 0 80 57 00
        E 0 80 63 00
        E 120 90 3e 60
        E 0 90 4b 60
        E 0 90 57 60
        E 0 90 63 60
        E 120 80 3e 00
        E 0 80 4b 00
        E 0 80 57 00
        E 0 80 63 00
        E 120 90 4b 60
        E 0 90 57 60
        E 0 90 63 60
        E 120 80 4b 00
        E 0 80 57 00
        E 0 80 63 00
        E 120 90 3e 60
        E 0 90 4b 60
        E 0 90 57 60
        E 0 90 63 60
        E 120 80 3e 00
        E 0 80 4b 00
        E 0 80 57 00
        E 0 80 63 00
        E 120 90 4b 60
        E 0 90 57 60
        E 0 90 63 60
        E 120 80 4b 00
        E 0 80 57 00
        E 0 80 63 00
        E 120 90 3e 60
        E 0 90 4b 60
        E 0 90 57 60
        E 0 90 63 60
        E 120 80 3e 00
        E 0 80 4b 00
        E 0 80 57 00
        E 0 80 63 00
        E 120 90 4b 60
        E 0 90 57 60
        E 0 90 63 60
        E 120 80 4b 00
        E 0 80 57 00
        E 0 80 63 00
        E 120 90 3e 60
        E 0 90 4b 60
        E 0 90 57 60
        E 0 90 63 60
        E 120 80 3e 00
        E 0 80 4b 00
        E 0 80 57 00
        E 0 80 63 00
        E 120 90 4b 60
        E 0 90 57 60
        E 0 90 63 60
        E 120 80 4b 00
        E 0 80 57 00
        E 0 80 63 00
        E 120 90 3e 60
        E 0 90 4b 60
        E 0 90 57 60
        E 0 90 63 60
        E 120 80 3e 00
        E 0 80 4b 00
        E 0 80 57 00
        E 0 80 63 00
        E 120 90 4b 60
        E 0 90 57 60
        E 0 90 63 60
        E 120 80 4b 00
        E 0 80 57 00
        E 0 80 63 00
        E 120 90 3e 60
        E 0 90 4b 60
        E 0 90 57 60
        E 0 90 63 60
        E 120 80 3e 00
        E 0 80 4b 00
        E 0 80 57 00
        E 0 80 63 00
        E 120 90 4b 60
        E 0 90 57 60
        E 0 90 63 60
        E 120 80 4b 00
        E 0 80 57 00
        E 0 80 63 00
        E 120 90 3e 60
        E 0 90 4b 60
        E 0 90 57 60
        E 0 90 63 60
        E 120 80 3e 00
        E 0 80 4b 00
        E 0 80 57 00
        E 0 80 63 00
        E 120 90 4b 60
        E 0 90 57 60
        E 0 90 63 60
        E 120 80 4b 00
        E 0 80 57 00
        E 0 80 63 00
        E 120 90 3e 60
        E 0 90 4b 60
        E 0 90 57 60
        E 0 90 63 60
        E 120 80 3e 00
        E 0 80 4b 00
        E 0 80 57 00
        E 0 80 63 00
        E 120 90 4b 60
        E 0 90 57 60
        E 0 90 63 60
        E 120 80 4b 00
        E 0 80 57 00
        E 0 80 63 00
        E 120 90 3e 60
        E 0 90 4b 60
        E 0 90 57 60
        E 0 90 63 60
        E 120 80 3e 00
        E 0 80 4b 00
        E 0 80 57 00
        E 0 80 63 00
        E 120 90 4b 60
        E 0 90 57 60
        E 0 90 63 60
        E 120 80 4b 00
        E 0 80 57 00
        E 0 80 63 00
        E 120 90 3e 60
        E 0 90 4b 60
        E 0 90 57 60
        E 0 90 63 60
        E 120 80 3e 00
        E 0 80 4b 00
        E 0 80 57 00
        E 0 80 63 00
        E 120 90 4b 60
        E 0 90 57 60
        E 0 90 63 60
        E 120 80 4b 00
        E 0 80 57 00
        E 0 80 63 00
        E 120 90 3e 60
        E 0 90 4b 60
        E 0 90 57 60
        E 0 90 63 60
        E 120 80 3e 00
        E 0 80 4b 00
        E 0 80 57 00
        E 0 80 63 00
        E 120 90 4b 60
        E 0 90 57 60
        E 0 90 63 60
        E 120 80 4b 00
        E 0 80 57 00
        E 0 80 63 00
        E 120 90 3e 60
        E 0 90 4b 60
        E 0 90 57 60
        E 0 90 63 60
        E 120 80 3e 00
        E 0 80 4b 00
        E 0 80 57 00
        E 0 80 63 00
        E 120 90 4b 60
        E 0 90 57 60
        E 0 90 63 60
        E 120 80 4b 00
        E 0 80 57 00
        E 0 80 63 00
        E 120 90 3e 60
        E 0 90 4b 60
        E 0 90 57 60
        E 0 90 63 60
        E 120 80 3e 00
        E 0 80 4b 00
        E 0 80 57 00
        E 0 80 63 00
        E 120 90 4b 60
        E 0 90 57 60
        E 0 90 63 60
        E 120 80 4b 00
        E 0 80 57 00
        E 0 80 63 00
        E 120 90 3e 60
        E 0 90 4b 60
        E 0 90 57 60
        E 0 90 63 60
        E 120 80 3e 00
        E 0 80 4b 00
        E 0 80 57 00
        E 0 80 63 00
        E 120 90 4b 60
        E 0 90 57 60
        E 0 90 63 60
        E 120 80 4b 00
        E 0 80 57 00
        E 0 80 63 00
        E 120 90 3e 60
        E 0 90 4b 60
        E 0 90 57 60
        E 0 90 63 60
        E 120 80 3e 00
        E 0 80 4b 00
        E 0 80 57 00
        E 0 80 63 00
        E 120 90 4b 60
        E 0 90 57 60
        E 0 90 63 60
        E 120 80 4b 00
        E 0 80 57 00
        E 0 80 63 00
        E 120 90 3e 60
        E 0 90 4b 60
        E 0 90 57 60
        E 0 90 63 60
        E 120 80 3e 00
        E 0 80 4b 00
        E 0 80 57 00
        E 0 80 63 00
        E 120 90 4b 60
        E 0 90 57 60
        E 0 90 63 60
        E 120 80 4b 00
        E 0 80 57 00
        E 0 80 63 00
        E 120 90 3e 60
        E 0 90 4b 60
        E 0 90 57 60
        E 0 90 63 60
        E 120 80 3e 00
        E 0 80 4b 00
        E 0 80 57 00
        E 0 80 63 00
        E 120 90 4b 60
        E 0 90 57 60
        E 0 90 63 60
        E 120 80 4b 00
        E 0 80 57 00
        E 0 80 63 00
        E 120 90 3e 60
        E 0 90 4b 60
        E 0 90 57 60
        E 0 90 63 60
        E 120 80 3e 00
        E 0 80 4b 00
        E 0 80 57 00
        E 0 80 63 00
        E 120 90 4b 60
        E 0 90 57 60
        E 0 90 63 60
        E 120 80 4b 00
        E 0 80 57 00
        E 0 80 63 00
        E 120 90 3e 60
        E 0 90 4b 60
        E 0 90 57 60
        E 0 90 63 60
        E 120 80 3e 00
        E 0 80 4b 00
        E 0 80 57 00
        E 0 80 63 00
        E 120 90 4b 60
        E 0 90 57 60
        E 0 90 63 60
        E 120 80 4b 00
        E 0 80 57 00
        E 0 80 63 00
        E 120 90 3e 60
        E 0 90 4b 60
        E 0 90 57 60
        E 0 90 63 60
        E 120 80 3e 00
        E 0 80 4b 00
        E 0 80 57 00
        E 0 80 63 00
        E 120 90 4b 60
        E 0 90 57 60
        E 0 90 63 60
        E 120 80 4b 00
        E 0 80 57 00
        E 0 80 63 00
        E 120 90 3e 60
        E 0 90 4b 60
        E 0 90 57 60
        E 0 90 63 60
        E 120 80 3e 00
        E 0 80 4b 00
        E 0 80 57 00
        E 0 80 63 00
        E 120 90 4b 60
        E 0 90 57 60
        E 0 90 63 60
        E 120 80 4b 00
        E 0 80 57 00
        E 0 80 63 00
        E 120 90 3e 60
        E 0 90 4b 60
        E 0 90 57 60
        E 0 90 63 60
        E 120 80 3e 00
        E 0 80 4b 00
        E 0 80 57 00
        E 0 80 63 00
        E 120 90 4b 60
        E 0 90 57 60
        E 0 90 63 60
        E 120 80 4b 00
        E 0 80 57 00
        E 0 80 63 00
        E 120 90 3e 60
        E 0 90 4b 60
        E 0 90 57 60
        E 0 90 63 60
        E 120 80 3e 00
        E 0 80 4b 00
        E 0 80 57 00
        E 0 80 63 00
        E 120 90 4b 60
        E 0 90 57 60
        E 0 90 63 60
        E 120 80 4b 00
        E 0 80 57 00
        E 0 80 63 00
        E 120 90 3e 60
        E 0 90 4b 60
        E 0 90 57 60
        E 0 90 63 60
        E 120 80 3e 00
        E 0 80 4b 00
        E 0 80 57 00
        E 0 80 63 00
        E 120 90 4b 60
        E 0 90 57 60
        E 0 90 63 60
        E 120 80 4b 00
        E 0 80 57 00
        E 0 80 63 00
        E 120 90 3e 60
        E 0 90 4b 60
        E 0 90 57 60
        E 0 90 63 60
        E 120 80 3e 00
        E 0 80 4b 00
        E 0 80 57 00
        E 0 80 63 00
        E 120 90 4b 60
        E 0 90 57 60
        E 0 90 63 60
        E 120 80 4b 00
        E 0 80 57 00
        E 0 80 63 00
        E 120 90 3e 60
        E 0 90 4b 60
        E 0 90 57 60
        E 0 90 63 60
        E 120 80 3e 00
        E 0 80 4b 00
        E 0 80 57 00
        E 0 80 63 00
        E 120 90 4b 60
        E 0 90 57 60
        E 0 90 63 60
        E 120 80 4b 00
        E 0 80 57 00
        E 0 80 63 00
        E 120 90 3e 60
        E 0 90 4b 60
        E 0 90 57 60
        E 0 90 63 60
        E 120 80 3e 00
        E 0 80 4b 00
        E 0 80 57 00
        E 0 80 63 00
        E 120 90 4b 60
        E 0 90 57 60
        E 0 90 63 60
        E 120 80 4b 00
        E 0 80 57 00
        E 0 80 63 00
        E 120 90 3e 60
        E 0 90 4b 60
        E 0 90 57 60
        E 0 90 63 60
        E 120 80 3e 00
        E 0 80 4b 00
        E 0 80 57 00
        E 0 80 63 00
        E 120 90 4b 60
        E 0 90 57 60
        E 0 90 63 60
        E 120 80 4b 00
        E 0 80 57 00
        E 0 80 63 00
        E 120 90 3e 60
        E 0 90 4b 60
        E 0 90 57 60
        E 0 90 63 60
        E 120 80 3e 00
        E 0 80 4b 00
        E 0 80 57 00
        E 0 80 63 00
        E 120 90 4b 60
        E 0 90 57 60
        E 0 90 63 60
        E 120 80 4b 00
        E 0 80 57 00
        E 0 80 63 00
        E 120 90 3e 60
        E 0 90 4b 60
        E 0 90 57 60
        E 0 90 63 60
        E 120 80 3e 00
        E 0 80 4b 00
        E 0 80 57 00
        E 0 80 63 00
        E 120 90 4b 60
        E 0 90 57 60
        E 0 90 63 60
        E 120 80 4b 00
        E 0 80 57 00
        E 0 80 63 00
        E 120 90 3e 60
        E 0 90 4b 60
        E 0 90 57 60
        E 0 90 63 60
        E 120 80 3e 00
        E 0 80 4b 00
        E 0 80 57 00
        E 0 80 63 00
        E 120 90 4b 60
        E 0 90 57 60
        E 0 90 63 60
        E 120 80 4b 00
        E 0 80 57 00
        E 0 80 63 00
        E 120 90 3e 60
        E 0 90 4b 60
        E 0 90 57 60
        E 0 90 63 60
        E 120 80 3e 00
        E 0 80 4b 00
        E 0 80 57 00
        E 0 80 63 00
        E 120 90 4b 60
        E 0 90 57 60
        E 0 90 63 60
        E 120 80 4b 00
        E 0 80 57 00
        E 0 80 63 00
        E 120 90 3e 60
        E 0 90 4b 60
        E 0 90 57 60
        E 0 90 63 60
        E 120 80 3e 00
        E 0 80 4b 00
        E 0 80 57 00
        E 0 80 63 00
        E 120 90 4b 60
        E 0 90 57 60
        E 0 90 63 60
        E 120 80 4b 00
        E 0 80 57 00
        E 0 80 63 00
        E 120 90 3e 60
        E 0 90 4b 60
        E 0 90 57 60
        E 0 90 63 60
        E 120 80 3e 00
        E 0 80 4b 00
        E 0 80 57 00
        E 0 80 63 00
        E 120 90 4b 60
        E 0 90 57 60
        E 0 90 63 60
        E 120 80 4b 00
        E 0 80 57 00
        E 0 80 63 00
        E 120 90 3e 60
        E 0 90 4b 60
        E 0 90 57 60
        E 0 90 63 60
        E 120 80 3e 00
        E 0 80 4b 00
        E 0 80 57 00
        E 0 80 63 00
        E 120 90 4b 60
        E 0 90 57 60
        E 0 90 63 60
        E 120 80 4b 00
        E 0 80 57 00
        E 0 80 63 00
        E 120 90 3e 60
        E 0 90 4b 60
        E 0 90 57 60
        E 0 90 63 60
        E 120 80 3e 00
        E 0 80 4b 00
        E 0 80 57 00
        E 0 80 63 00
        E 120 90 4b 60
        E 0 90 57 60
        E 0 90 63 60
        E 120 80 4b 00
        E 0 80 57 00
        E 0 80 63 00
        E 120 90 3e 60
        E 0 90 4b 60
        E 0 90 57 60
        E 0 90 63 60
        E 120 80 3e 00
        E 0 80 4b 00
        E 0 80 57 00
        E 0 80 63 00
        E 120 90 4b 60
        E 0 90 57 60
        E 0 90 63 60
        E 120 80 4b 00
        E 0 80 57 00
        E 0 80 63 00
        E 120 90 3e 60
        E 0 90 4b 60
        E 0 90 57 60
        E 0 90 63 60
        E 120 80 3e 00
        E 0 80 4b 00
        E 0 80 57 00
        E 0 80 63 00
        E 120 90 4b 60
        E 0 90 57 60
        E 0 90 63 60
        E 120 80 4b 00
        E 0 80 57 00
        E 0 80 63 00
        E 120 90 3e 60
        E 0 90 4b 60
        E 0 90 57 60
        E 0 90 63 60
        E 120 80 3e 00
        E 0 80 4b 00
        E 0 80 57 00
        E 0 80 63 00
        E 120 90 4b 60
        E 0 90 57 60
        E 0 90 63 60
        E 120 80 4b 00
        E 0 80 57 00
        E 0 80 63 00
        E 120 90 3e 60
        E 0 90 4b 60
        E 0 90 57 60
        E 0 90 63 60
        E 120 80 3e 00
        E 0 80 4b 00
        E 0 80 57 00
        E 0 80 63 00
        E 120 90 4b 60
        E 0 90 57 60
        E 0 90 63 60
        E 120 80 4b 00
        E 0 80 57 00
        E 0 80 63 00
        E 120 90 4b 60
        E 0 90 57 60
        E 0 90 63 60
        E 120 80 4b 00
        E 0 80 57 00
        E 0 80 63 00
        E 120 90 57 60
        E 0 90 63 60
        E 120 80 57 00
        E 0 80 63 00
        E 120 90 3c 60
        E 0 90 48 60
        E 0 90 54 60
        E 0 90 60 60
        E 120 80 3c 00
        E 0 80 48 00
        E 0 80 54 00
        E 0 80 60 00
        E 120 90 48 60
        E 0 90 54 60
        E 0 90 60 60
        E 120 80 48 00
        E 0 80 54 00
        E 0 80 60 00
        E 120 90 3c 60
        E 0 90 48 60
        E 0 90 54 60
        E 0 90 60 60
        E 120 80 3c 00
        E 0 80 48 00
        E 0 80 54 00
        E 0 80 60 00
        E 120 90 48 60
        E 0 90 54 60
        E 0 90 60 60
        E 120 80 48 00
        E 0 80 54 00
        E 0 80 60 00
        E 120 90 3c 60
        E 0 90 48 60
        E 0 90 54 60
        E 0 90 60 60
        E 120 80 3c 00
        E 0 80 48 00
        E 0 80 54 00
        E 0 80 60 00
        E 120 90 48 60
        E 0 90 54 60
        E 0 90 60 60
        E 120 80 48 00
        E 0 80 54 00
        E 0 80 60 00
        E 120 90 48 60
        E 0 90 54 60
        E 0 90 60 60
        E 120 80 48 00
        E 0 80 54 00
        E 0 80 60 00
        E 120 90 54 60
        E 0 90 60 60
        E 120 80 28 00
        E 0 80 54 00
        E 0 80 60 00
        E 120 90 2f 60
        E 0 90 3d 60
        E 0 90 4a 60
        E 0 90 56 60
        E 0 90 62 60
        E 120 80 3d 00
        E 0 80 4a 00
        E 0 80 56 00
        E 0 80 62 00
        E 120 90 4a 60
        E 0 90 56 60
        E 0 90 62 60
        E 120 80 4a 00
        E 0 80 56 00
        E 0 80 62 00
        E 120 90 3d 60
        E 0 90 4a 60
        E 0 90 56 60
        E 0 90 62 60
        E 120 80 3d 00
        E 0 80 4a 00
        E 0 80 56 00
        E 0 80 62 00
        E 120 90 4a 60
        E 0 90 56 60
        E 0 90 62 60
        E 120 80 4a 00
        E 0 80 56 00
        E 0 80 62 00
        E 120 90 3d 60
        E 0 90 4a 60
        E 0 90 56 60
        E 0 90 62 60
        E 120 80 3d 00
        E 0 80 4a 00
        E 0 80 56 00
        E 0 80 62 00
        E 120 90 4a 60
        E 0 90 56 60
        E 0 90 62 60
        E 120 80 4a 00
        E 0 80 56 00
        E 0 80 62 00
        E 120 90 4a 60
        E 0 90 56 60
        E 0 90 62 60
        E 120 80 4a 00
        E 0 80 56 00
        E 0 80 62 00
        E 120 90 56 60
        E 0 90 62 60
        E 120 80 2f 00
        E 0 80 56 00
        E 0 80 62 00
        E 120 90 28 60
        E 0 90 3c 60
        E 0 90 48 60
        E 0 90 54 60
        E 0 90 60 60
        E 120 80 3c 00
        E 0 80 48 00
        E 0 80 54 00
        E 0 80 60 00
        E 120 90 48 60
        E 0 90 54 60
        E 0 90 60 60
        E 120 80 48 00
        E 0 80 54 00
        E 0 80 60 00
        E 120 90 3c 60
        E 0 90 48 60
        E 0 90 54 60
        E 0 90 60 60
        E 120 80 3c 00
        E 0 80 48 00
        E 0 80 54 00
        E 0 80 60 00
        E 120 90 48 60
        E 0 90 54 60
        E 0 90 60 60
        E 120 80 48 00
        E 0 80 54 00
        E 0 80 60 00
        E 120 90 3c 60
        E 0 90 48 60
        E 0 90 54 60
        E 0 90 60 60
        E 120 80 3c 00
        E 0 80 48 00
        E 0 80 54 00
        E 0 80 60 00
        E 120 90 48 60
        E 0 90 54 60
        E 0 90 60 60
        E 120 80 48 00
        E 0 80 54 00
        E 0 80 60 00
        E 120 90 48 60
        E 0 90 54 60
        E 0 90 60 60
        E 120 80 48 00
        E 0 80 54 00
        E 0 80 60 00
        E 120 90 54 60
        E 0 90 60 60
        E 120 80 54 00
        E 0 80 60 00
        E 120 90 3e 60
        E 0 90 4b 60
        E 0 90 57 60
        E 0 90 63 60
        E 120 80 3e 00
        E 0 80 4b 00
        E 0 80 57 00
        E 0 80 63 00
        E 120 90 4b 60
        E 0 90 57 60
        E 0 90 63 60
        E 120 80 4b 00
        E 0 80 57 00
        E 0 80 63 00
        E 120 90 3e 60
        E 0 90 4b 60
        E 0 90 57 60
        E 0 90 63 60
        E 120 80 3e 00
        E 0 80 4b 00
        E 0 80 57 00
        E 0 80 63 00
        E 120 90 4b 60
        E 0 90 57 60
        E 0 90 63 60
        E 120 80 4b 00
        E 0 80 57 00
        E 0 80 63 00
        E 120 90 3e 60
        E 0 90 4b 60
        E 0 90 57 60
        E 0 90 63 60
        E 120 80 3e 00
        E 0 80 4b 00
        E 0 80 57 00
        E 0 80 63 00
        E 120 90 4b 60
        E 0 90 57 60
        E 0 90 63 60
        E 120 80 4b 00
        E 0 80 57 00
        E 0 80 63 00
        E 120 90 4b 60
        E 0 90 57 60
        E 0 90 63 60
        E 120 80 4b 00
        E 0 80 57 00
        E 0 80 63 00
        E 120 90 57 60
        E 0 90 63 60
        E 120 80 57 00
        E 0 80 63 00
        E 120 90 3c 60
        E 0 90 48 60
        E 0 90 54 60
        E 0 90 60 60
        E 120 80 3c 00
        E 0 80 48 00
        E 0 80 54 00
        E 0 80 60 00
        E 120 90 48 60
        E 0 90 54 60
        E 0 90 60 60
        E 120 80 48 00
        E 0 80 54 00
        E 0 80 60 00
        E 120 90 3c 60
        E 0 90 48 60
        E 0 90 54 60
        E 0 90 60 60
        E 120 80 3c 00
        E 0 80 48 00
        E 0 80 54 00
        E 0 80 60 00
        E 120 90 48 60
        E 0 90 54 60
        E 0 90 60 60
        E 120 80 48 00
        E 0 80 54 00
        E 0 80 60 00
        E 120 90 3c 60
        E 0 90 48 60
        E 0 90 54 60
        E 0 90 60 60
        E 120 80 3c 00
        E 0 80 48 00
        E 0 80 54 00
        E 0 80 60 00
        E 120 90 48 60
        E 0 90 54 60
        E 0 90 60 60
        E 120 80 48 00
        E 0 80 54 00
        E 0 80 60 00
        E 120 90 48 60
        E 0 90 54 60
        E 0 90 60 60
        E 120 80 48 00
        E 0 80 54 00
        E 0 80 60 00
        E 120 90 54 60
        E 0 90 60 60
        E 120 80 28 00
        E 0 80 54 00
        E 0 80 60 00
        E 120 90 2f 60
        E 0 90 3d 60
        E 0 90 4a 60
        E 0 90 56 60
        E 0 90 62 60
        E 120 80 3d 00
        E 0 80 4a 00
        E 0 80 56 00
        E 0 80 62 00
        E 120 90 4a 60
        E 0 90 56 60
        E 0 90 62 60
        E 120 80 4a 00
        E 0 80 56 00
        E 0 80 62 00
        E 120 90 3d 60
        E 0 90 4a 60
        E 0 90 56 60
        E 0 90 62 60
        E 120 80 3d 00
        E 0 80 4a 00
        E 0 80 56 00
        E 0 80 62 00
        E 120 90 4a 60
        E 0 90 56 60
        E 0 90 62 60
        E 120 80 4a 00
        E 0 80 56 00
        E 0 80 62 00
        E 120 90 3d 60
        E 0 90 4a 60
        E 0 90 56 60
        E 0 90 62 60
        E 120 80 3d 00
        E 0 80 4a 00
        E 0 80 56 00
        E 0 80 62 00
        E 120 90 4a 60
        E 0 90 56 60
        E 0 90 62 60
        E 120 80 4a 00
        E 0 80 56 00
        E 0 80 62 00
        E 120 90 4a 60
        E 0 90 56 60
        E 0 90 62 60
        E 120 80 4a 00
        E 0 80 56 00
        E 0 80 62 00
        E 120 90 56 60
        E 0 90 62 60
        E 120 80 2f 00
        E 0 80 56 00
        E 0 80 62 00
        E 120 90 28 60
        E 0 90 3c 60
        E 0 90 48 60
        E 0 90 54 60
        E 0 90 60 60
        E 0 90 74 60
        E 120 80 3c 00
        E 0 80 48 00
        E 0 80 54 00
        E 0 80 60 00
        E 120 90 48 60
        E 0 90 54 60
        E 0 90 60 60
        E 120 80 48 00
        E 0 80 54 00
        E 0 80 60 00
        E 120 90 3c 60
        E 0 90 48 60
        E 0 90 54 60
        E 0 90 60 60
        E 120 80 3c 00
        E 0 80 48 00
        E 0 80 54 00
        E 0 80 60 00
        E 120 90 48 60
        E 0 90 54 60
        E 0 90 60 60
        E 120 80 48 00
        E 0 80 54 00
        E 0 80 60 00
        E 120 90 3c 60
        E 0 90 48 60
        E 0 90 54 60
        E 0 90 60 60
        E 120 80 3c 00
        E 0 80 48 00
        E 0 80 54 00
        E 0 80 60 00
        E 120 90 48 60
        E 0 90 54 60
        E 0 90 60 60
        E 120 80 48 00
        E 0 80 54 00
        E 0 80 60 00
        E 120 90 48 60
        E 0 90 54 60
        E 0 90 60 60
        E 120 80 48 00
        E 0 80 54 00
        E 0 80 60 00
        E 120 90 54 60
        E 0 90 60 60
        E 120 80 54 00
        E 0 80 60 00
        <X 120 0
          /wFbaW50ZW5zZV0=
        >
        E 0 90 3e 60
        E 0 90 4b 60
        E 0 90 57 60
        E 0 90 63 60
        E 120 80 74 00
        E 0 80 3e 00
        E 0 80 4b 00
        E 0 80 57 00
        E 0 80 63 00
        E 120 90 4b 60
        E 0 90 57 60
        E 0 90 63 60
        E 120 80 4b 00
        E 0 80 57 00
        E 0 80 63 00
        E 120 90 3e 60
        E 0 90 4b 60
        E 0 90 57 60
        E 0 90 63 60
        E 120 80 3e 00
        E 0 80 4b 00
        E 0 80 57 00
        E 0 80 63 00
        E 120 90 4b 60
        E 0 90 57 60
        E 0 90 63 60
        E 120 80 4b 00
        E 0 80 57 00
        E 0 80 63 00
        E 120 90 3e 60
        E 0 90 4b 60
        E 0 90 57 60
        E 0 90 63 60
        E 120 80 3e 00
        E 0 80 4b 00
        E 0 80 57 00
        E 0 80 63 00
        E 120 90 4b 60
        E 0 90 57 60
        E 0 90 63 60
        E 120 80 4b 00
        E 0 80 57 00
        E 0 80 63 00
        E 120 90 4b 60
        E 0 90 57 60
        E 0 90 63 60
        E 120 80 4b 00
        E 0 80 57 00
        E 0 80 63 00
        E 120 90 57 60
        E 0 90 63 60
        E 120 80 57 00
        E 0 80 63 00
        E 120 90 3c 60
        E 0 90 48 60
        E 0 90 54 60
        E 0 90 60 60
        E 120 80 3c 00
        E 0 80 48 00
        E 0 80 54 00
        E 0 80 60 00
        E 120 90 48 60
        E 0 90 54 60
        E 0 90 60 60
        E 120 80 48 00
        E 0 80 54 00
        E 0 80 60 00
        E 120 90 3c 60
        E 0 90 48 60
        E 0 90 54 60
        E 0 90 60 60
        E 120 80 3c 00
        E 0 80 48 00
        E 0 80 54 00
        E 0 80 60 00
        E 120 90 48 60
        E 0 90 54 60
        E 0 90 60 60
        E 120 80 48 00
        E 0 80 54 00
        E 0 80 60 00
        E 120 90 3c 60
        E 0 90 48 60
        E 0 90 54 60
        E 0 90 60 60
        E 120 80 3c 00
        E 0 80 48 00
        E 0 80 54 00
        E 0 80 60 00
        E 120 90 48 60
        E 0 90 54 60
        E 0 90 60 60
        E 120 80 48 00
        E 0 80 54 00
        E 0 80 60 00
        E 120 90 48 60
        E 0 90 54 60
        E 0 90 60 60
        E 120 80 48 00
        E 0 80 54 00
        E 0 80 60 00
        E 120 90 54 60
        E 0 90 60 60
        E 120 80 28 00
        E 0 80 54 00
        E 0 80 60 00
        E 120 90 2f 60
        E 0 90 3d 60
        E 0 90 4a 60
        E 0 90 56 60
        E 0 90 62 60
        E 120 80 3d 00
        E 0 80 4a 00
        E 0 80 56 00
        E 0 80 62 00
        E 120 90 4a 60
        E 0 90 56 60
        E 0 90 62 60
        E 120 80 4a 00
        E 0 80 56 00
        E 0 80 62 00
        E 120 90 3d 60
        E 0 90 4a 60
        E 0 90 56 60
        E 0 90 62 60
        E 120 80 3d 00
        E 0 80 4a 00
        E 0 80 56 00
        E 0 80 62 00
        E 120 90 4a 60
        E 0 90 56 60
        E 0 90 62 60
        E 120 80 4a 00
        E 0 80 56 00
        E 0 80 62 00
        E 120 90 3d 60
        E 0 90 4a 60
        E 0 90 56 60
        E 0 90 62 60
        E 120 80 3d 00
        E 0 80 4a 00
        E 0 80 56 00
        E 0 80 62 00
        E 120 90 4a 60
        E 0 90 56 60
        E 0 90 62 60
        E 120 80 4a 00
        E 0 80 56 00
        E 0 80 62 00
        E 120 90 4a 60
        E 0 90 56 60
        E 0 90 62 60
        E 120 80 4a 00
        E 0 80 56 00
        E 0 80 62 00
        E 120 90 56 60
        E 0 90 62 60
        E 120 80 2f 00
        E 0 80 56 00
        E 0 80 62 00
        E 120 90 28 60
        E 0 90 3c 60
        E 0 90 48 60
        E 0 90 54 60
        E 0 90 60 60
        E 120 80 3c 00
        E 0 80 48 00
        E 0 80 54 00
        E 0 80 60 00
        E 120 90 48 60
        E 0 90 54 60
        E 0 90 60 60
        E 120 80 48 00
        E 0 80 54 00
        E 0 80 60 00
        E 120 90 3c 60
        E 0 90 48 60
        E 0 90 54 60
        E 0 90 60 60
        E 120 80 3c 00
        E 0 80 48 00
        E 0 80 54 00
        E 0 80 60 00
        E 120 90 48 60
        E 0 90 54 60
        E 0 90 60 60
        E 120 80 48 00
        E 0 80 54 00
        E 0 80 60 00
        E 120 90 3c 60
        E 0 90 48 60
        E 0 90 54 60
        E 0 90 60 60
        E 120 80 3c 00
        E 0 80 48 00
        E 0 80 54 00
        E 0 80 60 00
        E 120 90 48 60
        E 0 90 54 60
        E 0 90 60 60
        E 120 80 48 00
        E 0 80 54 00
        E 0 80 60 00
        E 120 90 48 60
        E 0 90 54 60
        E 0 90 60 60
        E 120 80 48 00
        E 0 80 54 00
        E 0 80 60 00
        E 120 90 54 60
        E 0 90 60 60
        E 120 80 54 00
        E 0 80 60 00
        E 120 90 3e 60
        E 0 90 4b 60
        E 0 90 57 60
        E 0 90 63 60
        E 120 80 3e 00
        E 0 80 4b 00
        E 0 80 57 00
        E 0 80 63 00
        E 120 90 4b 60
        E 0 90 57 60
        E 0 90 63 60
        E 120 80 4b 00
        E 0 80 57 00
        E 0 80 63 00
        E 120 90 3e 60
        E 0 90 4b 60
        E 0 90 57 60
        E 0 90 63 60
        E 120 80 3e 00
        E 0 80 4b 00
        E 0 80 57 00
        E 0 80 63 00
        E 120 90 4b 60
        E 0 90 57 60
        E 0 90 63 60
        E 120 80 4b 00
        E 0 80 57 00
        E 0 80 63 00
        E 120 90 3e 60
        E 0 90 4b 60
        E 0 90 57 60
        E 0 90 63 60
        E 120 80 3e 00
        E 0 80 4b 00
        E 0 80 57 00
        E 0 80 63 00
        E 120 90 4b 60
        E 0 90 57 60
        E 0 90 63 60
        E 120 80 4b 00
        E 0 80 57 00
        E 0 80 63 00
        E 120 90 4b 60
        E 0 90 57 60
        E 0 90 63 60
        E 120 80 4b 00
        E 0 80 57 00
        E 0 80 63 00
        E 120 90 57 60
        E 0 90 63 60
        E 120 80 57 00
        E 0 80 63 00
        E 120 90 3c 60
        E 0 90 48 60
        E 0 90 54 60
        E 0 90 60 60
        E 120 80 3c 00
        E 0 80 48 00
        E 0 80 54 00
        E 0 80 60 00
        E 120 90 48 60
        E 0 90 54 60
        E 0 90 60 60
        E 120 80 48 00
        E 0 80 54 00
        E 0 80 60 00
        E 120 90 3c 60
        E 0 90 48 60
        E 0 90 54 60
        E 0 90 60 60
        E 120 80 3c 00
        E 0 80 48 00
        E 0 80 54 00
        E 0 80 60 00
        E 120 90 48 60
        E 0 90 54 60
        E 0 90 60 60
        E 120 80 48 00
        E 0 80 54 00
        E 0 80 60 00
        E 120 90 3c 60
        E 0 90 48 60
        E 0 90 54 60
        E 0 90 60 60
        E 120 80 3c 00
        E 0 80 48 00
        E 0 80 54 00
        E 0 80 60 00
        E 120 90 48 60
        E 0 90 54 60
        E 0 90 60 60
        E 120 80 48 00
        E 0 80 54 00
        E 0 80 60 00
        E 120 90 48 60
        E 0 90 54 60
        E 0 90 60 60
        E 120 80 48 00
        E 0 80 54 00
        E 0 80 60 00
        E 120 90 54 60
        E 0 90 60 60
        E 120 80 28 00
        E 0 80 54 00
        E 0 80 60 00
        E 120 90 2f 60
        E 0 90 3d 60
        E 0 90 4a 60
        E 0 90 56 60
        E 0 90 62 60
        E 120 80 3d 00
        E 0 80 4a 00
        E 0 80 56 00
        E 0 80 62 00
        E 120 90 4a 60
        E 0 90 56 60
        E 0 90 62 60
        E 120 80 4a 00
        E 0 80 56 00
        E 0 80 62 00
        E 120 90 3d 60
        E 0 90 4a 60
        E 0 90 56 60
        E 0 90 62 60
        E 120 80 3d 00
        E 0 80 4a 00
        E 0 80 56 00
        E 0 80 62 00
        E 120 90 4a 60
        E 0 90 56 60
        E 0 90 62 60
        E 120 80 4a 00
        E 0 80 56 00
        E 0 80 62 00
        E 120 90 3d 60
        E 0 90 4a 60
        E 0 90 56 60
        E 0 90 62 60
        E 120 80 3d 00
        E 0 80 4a 00
        E 0 80 56 00
        E 0 80 62 00
        E 120 90 4a 60
        E 0 90 56 60
        E 0 90 62 60
        E 120 80 4a 00
        E 0 80 56 00
        E 0 80 62 00
        E 120 90 4a 60
        E 0 90 56 60
        E 0 90 62 60
        E 120 80 4a 00
        E 0 80 56 00
        E 0 80 62 00
        E 120 90 56 60
        E 0 90 62 60
        E 120 80 2f 00
        E 0 80 56 00
        E 0 80 62 00
        E 120 90 28 60
        E 0 90 3c 60
        E 0 90 48 60
        E 0 90 54 60
        E 0 90 60 60
        E 120 80 3c 00
        E 0 80 48 00
        E 0 80 54 00
        E 0 80 60 00
        E 120 90 48 60
        E 0 90 54 60
        E 0 90 60 60
        E 120 80 48 00
        E 0 80 54 00
        E 0 80 60 00
        E 120 90 3c 60
        E 0 90 48 60
        E 0 90 54 60
        E 0 90 60 60
        E 120 80 3c 00
        E 0 80 48 00
        E 0 80 54 00
        E 0 80 60 00
        E 120 90 48 60
        E 0 90 54 60
        E 0 90 60 60
        E 120 80 48 00
        E 0 80 54 00
        E 0 80 60 00
        E 120 90 3c 60
        E 0 90 48 60
        E 0 90 54 60
        E 0 90 60 60
        E 120 80 3c 00
        E 0 80 48 00
        E 0 80 54 00
        E 0 80 60 00
        E 120 90 48 60
        E 0 90 54 60
        E 0 90 60 60
        E 120 80 48 00
        E 0 80 54 00
        E 0 80 60 00
        E 120 90 48 60
        E 0 90 54 60
        E 0 90 60 60
        E 120 80 48 00
        E 0 80 54 00
        E 0 80 60 00
        E 120 90 54 60
        E 0 90 60 60
        E 120 80 54 00
        E 0 80 60 00
        E 120 90 3e 60
        E 0 90 4b 60
        E 0 90 57 60
        E 0 90 63 60
        E 0 90 74 60
        E 120 80 3e 00
        E 0 80 4b 00
        E 0 80 57 00
        E 0 80 63 00
        E 120 90 4b 60
        E 0 90 57 60
        E 0 90 63 60
        E 120 80 4b 00
        E 0 80 57 00
        E 0 80 63 00
        E 120 90 3e 60
        E 0 90 4b 60
        E 0 90 57 60
        E 0 90 63 60
        E 120 80 3e 00
        E 0 80 4b 00
        E 0 80 57 00
        E 0 80 63 00
        E 120 90 4b 60
        E 0 90 57 60
        E 0 90 63 60
        E 120 80 4b 00
        E 0 80 57 00
        E 0 80 63 00
        E 120 90 3e 60
        E 0 90 4b 60
        E 0 90 57 60
        E 0 90 63 60
        E 120 80 3e 00
        E 0 80 4b 00
        E 0 80 57 00
        E 0 80 63 00
        E 120 90 4b 60
        E 0 90 57 60
        E 0 90 63 60
        E 120 80 4b 00
        E 0 80 57 00
        E 0 80 63 00
        E 120 90 4b 60
        E 0 90 57 60
        E 0 90 63 60
        E 120 80 4b 00
        E 0 80 57 00
        E 0 80 63 00
        E 120 90 57 60
        E 0 90 63 60
        E 120 80 57 00
        E 0 80 63 00
        E 120 80 74 00
        E 0 90 3c 60
        E 0 90 48 60
        E 0 90 54 60
        E 0 90 60 60
        E 120 80 3c 00
        E 0 80 48 00
        E 0 80 54 00
        E 0 80 60 00
        E 120 90 48 60
        E 0 90 54 60
        E 0 90 60 60
        E 120 80 48 00
        E 0 80 54 00
        E 0 80 60 00
        E 120 90 3c 60
        E 0 90 48 60
        E 0 90 54 60
        E 0 90 60 60
        E 120 80 3c 00
        E 0 80 48 00
        E 0 80 54 00
        E 0 80 60 00
        E 120 90 48 60
        E 0 90 54 60
        E 0 90 60 60
        E 120 80 48 00
        E 0 80 54 00
        E 0 80 60 00
        E 120 90 3c 60
        E 0 90 48 60
        E 0 90 54 60
        E 0 90 60 60
        E 120 80 3c 00
        E 0 80 48 00
        E 0 80 54 00
        E 0 80 60 00
        E 120 90 48 60
        E 0 90 54 60
        E 0 90 60 60
        E 120 80 48 00
        E 0 80 54 00
        E 0 80 60 00
        E 120 90 48 60
        E 0 90 54 60
        E 0 90 60 60
        E 120 80 48 00
        E 0 80 54 00
        E 0 80 60 00
        E 120 90 54 60
        E 0 90 60 60
        E 120 80 28 00
        E 0 80 54 00
        E 0 80 60 00
        E 120 90 2f 60
        E 0 90 3d 60
        E 0 90 4a 60
        E 0 90 56 60
        E 0 90 62 60
        E 120 80 3d 00
        E 0 80 4a 00
        E 0 80 56 00
        E 0 80 62 00
        E 120 90 4a 60
        E 0 90 56 60
        E 0 90 62 60
        E 120 80 4a 00
        E 0 80 56 00
        E 0 80 62 00
        E 120 90 3d 60
        E 0 90 4a 60
        E 0 90 56 60
        E 0 90 62 60
        E 120 80 3d 00
        E 0 80 4a 00
        E 0 80 56 00
        E 0 80 62 00
        E 120 90 4a 60
        E 0 90 56 60
        E 0 90 62 60
        E 120 80 4a 00
        E 0 80 56 00
        E 0 80 62 00
        E 120 90 3d 60
        E 0 90 4a 60
        E 0 90 56 60
        E 0 90 62 60
        E 120 80 3d 00
        E 0 80 4a 00
        E 0 80 56 00
        E 0 80 62 00
        E 120 90 4a 60
        E 0 90 56 60
        E 0 90 62 60
        E 120 80 4a 00
        E 0 80 56 00
        E 0 80 62 00
        E 120 90 4a 60
        E 0 90 56 60
        E 0 90 62 60
        E 120 80 4a 00
        E 0 80 56 00
        E 0 80 62 00
        E 120 90 56 60
        E 0 90 62 60
        E 120 80 2f 00
        E 0 80 56 00
        E 0 80 62 00
        E 120 90 28 60
        E 0 90 3c 60
        E 0 90 48 60
        E 0 90 54 60
        E 0 90 60 60
        E 120 80 3c 00
        E 0 80 48 00
        E 0 80 54 00
        E 0 80 60 00
        E 120 90 48 60
        E 0 90 54 60
        E 0 90 60 60
        E 120 80 48 00
        E 0 80 54 00
        E 0 80 60 00
        E 120 90 3c 60
        E 0 90 48 60
        E 0 90 54 60
        E 0 90 60 60
        E 120 80 3c 00
        E 0 80 48 00
        E 0 80 54 00
        E 0 80 60 00
        E 120 90 48 60
        E 0 90 54 60
        E 0 90 60 60
        E 120 80 48 00
        E 0 80 54 00
        E 0 80 60 00
        E 120 90 3c 60
        E 0 90 48 60
        E 0 90 54 60
        E 0 90 60 60
        E 120 80 3c 00
        E 0 80 48 00
        E 0 80 54 00
        E 0 80 60 00
        E 120 90 48 60
        E 0 90 54 60
        E 0 90 60 60
        E 120 80 48 00
        E 0 80 54 00
        E 0 80 60 00
        E 120 90 48 60
        E 0 90 54 60
        E 0 90 60 60
        E 120 80 48 00
        E 0 80 54 00
        E 0 80 60 00
        E 120 90 54 60
        E 0 90 60 60
        E 120 80 54 00
        E 0 80 60 00
        E 120 90 3e 60
        E 0 90 4b 60
        E 0 90 57 60
        E 0 90 63 60
        E 120 80 3e 00
        E 0 80 4b 00
        E 0 80 57 00
        E 0 80 63 00
        E 120 90 4b 60
        E 0 90 57 60
        E 0 90 63 60
        E 120 80 4b 00
        E 0 80 57 00
        E 0 80 63 00
        E 120 90 3e 60
        E 0 90 4b 60
        E 0 90 57 60
        E 0 90 63 60
        E 120 80 3e 00
        E 0 80 4b 00
        E 0 80 57 00
        E 0 80 63 00
        E 120 90 4b 60
        E 0 90 57 60
        E 0 90 63 60
        E 120 80 4b 00
        E 0 80 57 00
        E 0 80 63 00
        E 120 90 3e 60
        E 0 90 4b 60
        E 0 90 57 60
        E 0 90 63 60
        E 120 80 3e 00
        E 0 80 4b 00
        E 0 80 57 00
        E 0 80 63 00
        E 120 90 4b 60
        E 0 90 57 60
        E 0 90 63 60
        E 120 80 4b 00
        E 0 80 57 00
        E 0 80 63 00
        E 120 90 4b 60
        E 0 90 57 60
        E 0 90 63 60
        E 120 80 4b 00
        E 0 80 57 00
        E 0 80 63 00
        E 120 90 57 60
        E 0 90 63 60
        E 120 80 57 00
        E 0 80 63 00
        E 120 90 3c 60
        E 0 90 48 60
        E 0 90 54 60
        E 0 90 60 60
        E 120 80 3c 00
        E 0 80 48 00
        E 0 80 54 00
        E 0 80 60 00
        E 120 90 48 60
        E 0 90 54 60
        E 0 90 60 60
        E 120 80 48 00
        E 0 80 54 00
        E 0 80 60 00
        E 120 90 3c 60
        E 0 90 48 60
        E 0 90 54 60
        E 0 90 60 60
        E 120 80 3c 00
        E 0 80 48 00
        E 0 80 54 00
        E 0 80 60 00
        E 120 90 48 60
        E 0 90 54 60
        E 0 90 60 60
        E 120 80 48 00
        E 0 80 54 00
        E 0 80 60 00
        E 120 90 3c 60
        E 0 90 48 60
        E 0 90 54 60
        E 0 90 60 60
        E 120 80 3c 00
        E 0 80 48 00
        E 0 80 54 00
        E 0 80 60 00
        E 120 90 48 60
        E 0 90 54 60
        E 0 90 60 60
        E 120 80 48 00
        E 0 80 54 00
        E 0 80 60 00
        E 120 90 48 60
        E 0 90 54 60
        E 0 90 60 60
        E 120 80 48 00
        E 0 80 54 00
        E 0 80 60 00
        E 120 90 54 60
        E 0 90 60 60
        E 120 80 28 00
        E 0 80 54 00
        E 0 80 60 00
        E 120 90 2f 60
        E 0 90 3d 60
        E 0 90 4a 60
        E 0 90 56 60
        E 0 90 62 60
        E 120 80 3d 00
        E 0 80 4a 00
        E 0 80 56 00
        E 0 80 62 00
        E 120 90 4a 60
        E 0 90 56 60
        E 0 90 62 60
        E 120 80 4a 00
        E 0 80 56 00
        E 0 80 62 00
        E 120 90 3d 60
        E 0 90 4a 60
        E 0 90 56 60
        E 0 90 62 60
        E 120 80 3d 00
        E 0 80 4a 00
        E 0 80 56 00
        E 0 80 62 00
        E 120 90 4a 60
        E 0 90 56 60
        E 0 90 62 60
        E 120 80 4a 00
        E 0 80 56 00
        E 0 80 62 00
        E 120 90 3d 60
        E 0 90 4a 60
        E 0 90 56 60
        E 0 90 62 60
        E 120 80 3d 00
        E 0 80 4a 00
        E 0 80 56 00
        E 0 80 62 00
        E 120 90 4a 60
        E 0 90 56 60
        E 0 90 62 60
        E 120 80 4a 00
        E 0 80 56 00
        E 0 80 62 00
        E 120 90 4a 60
        E 0 90 56 60
        E 0 90 62 60
        E 120 80 4a 00
        E 0 80 56 00
        E 0 80 62 00
        E 120 90 56 60
        E 0 90 62 60
        E 120 80 2f 00
        E 0 80 56 00
        E 0 80 62 00
        E 120 90 28 60
        E 0 90 3c 60
        E 0 90 48 60
        E 0 90 54 60
        E 0 90 60 60
        E 120 80 3c 00
        E 0 80 48 00
        E 0 80 54 00
        E 0 80 60 00
        E 120 90 48 60
        E 0 90 54 60
        E 0 90 60 60
        E 120 80 48 00
        E 0 80 54 00
        E 0 80 60 00
        E 120 90 3c 60
        E 0 90 48 60
        E 0 90 54 60
        E 0 90 60 60
        E 120 80 3c 00
        E 0 80 48 00
        E 0 80 54 00
        E 0 80 60 00
        E 120 90 48 60
        E 0 90 54 60
        E 0 90 60 60
        E 120 80 48 00
        E 0 80 54 00
        E 0 80 60 00
        E 120 90 3c 60
        E 0 90 48 60
        E 0 90 54 60
        E 0 90 60 60
        E 120 80 3c 00
        E 0 80 48 00
        E 0 80 54 00
        E 0 80 60 00
        E 120 90 48 60
        E 0 90 54 60
        E 0 90 60 60
        E 120 80 48 00
        E 0 80 54 00
        E 0 80 60 00
        E 120 90 48 60
        E 0 90 54 60
        E 0 90 60 60
        E 120 80 48 00
        E 0 80 54 00
        E 0 80 60 00
        E 120 90 54 60
        E 0 90 60 60
        E 120 80 54 00
        E 0 80 60 00
        E 120 90 3e 60
        E 0 90 4b 60
        E 0 90 57 60
        E 0 90 63 60
        E 120 80 3e 00
        E 0 80 4b 00
        E 0 80 57 00
        E 0 80 63 00
        E 120 90 4b 60
        E 0 90 57 60
        E 0 90 63 60
        E 120 80 4b 00
        E 0 80 57 00
        E 0 80 63 00
        E 120 90 3e 60
        E 0 90 4b 60
        E 0 90 57 60
        E 0 90 63 60
        E 120 80 3e 00
        E 0 80 4b 00
        E 0 80 57 00
        E 0 80 63 00
        E 120 90 4b 60
        E 0 90 57 60
        E 0 90 63 60
        E 120 80 4b 00
        E 0 80 57 00
        E 0 80 63 00
        E 120 90 3e 60
        E 0 90 4b 60
        E 0 90 57 60
        E 0 90 63 60
        E 120 80 3e 00
        E 0 80 4b 00
        E 0 80 57 00
        E 0 80 63 00
        E 120 90 4b 60
        E 0 90 57 60
        E 0 90 63 60
        E 120 80 4b 00
        E 0 80 57 00
        E 0 80 63 00
        E 120 90 4b 60
        E 0 90 57 60
        E 0 90 63 60
        E 120 80 4b 00
        E 0 80 57 00
        E 0 80 63 00
        E 120 90 57 60
        E 0 90 63 60
        E 120 80 57 00
        E 0 80 63 00
        E 120 90 3c 60
        E 0 90 48 60
        E 0 90 54 60
        E 0 90 60 60
        E 120 80 3c 00
        E 0 80 48 00
        E 0 80 54 00
        E 0 80 60 00
        E 120 90 48 60
        E 0 90 54 60
        E 0 90 60 60
        E 120 80 48 00
        E 0 80 54 00
        E 0 80 60 00
        E 120 90 3c 60
        E 0 90 48 60
        E 0 90 54 60
        E 0 90 60 60
        E 120 80 3c 00
        E 0 80 48 00
        E 0 80 54 00
        E 0 80 60 00
        E 120 90 48 60
        E 0 90 54 60
        E 0 90 60 60
        E 120 80 48 00
        E 0 80 54 00
        E 0 80 60 00
        E 120 90 3c 60
        E 0 90 48 60
        E 0 90 54 60
        E 0 90 60 60
        E 120 80 3c 00
        E 0 80 48 00
        E 0 80 54 00
        E 0 80 60 00
        E 120 90 48 60
        E 0 90 54 60
        E 0 90 60 60
        E 120 80 48 00
        E 0 80 54 00
        E 0 80 60 00
        E 120 90 48 60
        E 0 90 54 60
        E 0 90 60 60
        E 120 80 48 00
        E 0 80 54 00
        E 0 80 60 00
        E 120 90 54 60
        E 0 90 60 60
        E 120 80 28 00
        E 0 80 54 00
        E 0 80 60 00
        E 120 90 2f 60
        E 0 90 3d 60
        E 0 90 4a 60
        E 0 90 56 60
        E 0 90 62 60
        E 120 80 3d 00
        E 0 80 4a 00
        E 0 80 56 00
        E 0 80 62 00
        E 120 90 4a 60
        E 0 90 56 60
        E 0 90 62 60
        E 120 80 4a 00
        E 0 80 56 00
        E 0 80 62 00
        E 120 90 3d 60
        E 0 90 4a 60
        E 0 90 56 60
        E 0 90 62 60
        E 120 80 3d 00
        E 0 80 4a 00
        E 0 80 56 00
        E 0 80 62 00
        E 120 90 4a 60
        E 0 90 56 60
        E 0 90 62 60
        E 120 80 4a 00
        E 0 80 56 00
        E 0 80 62 00
        E 120 90 3d 60
        E 0 90 4a 60
        E 0 90 56 60
        E 0 90 62 60
        E 120 80 3d 00
        E 0 80 4a 00
        E 0 80 56 00
        E 0 80 62 00
        E 120 90 4a 60
        E 0 90 56 60
        E 0 90 62 60
        E 120 80 4a 00
        E 0 80 56 00
        E 0 80 62 00
        E 120 90 4a 60
        E 0 90 56 60
        E 0 90 62 60
        E 120 80 4a 00
        E 0 80 56 00
        E 0 80 62 00
        E 120 90 56 60
        E 0 90 62 60
        E 120 80 2f 00
        E 0 80 56 00
        E 0 80 62 00
        E 120 90 28 60
        E 0 90 3c 60
        E 0 90 48 60
        E 0 90 54 60
        E 0 90 60 60
        E 120 80 3c 00
        E 0 80 48 00
        E 0 80 54 00
        E 0 80 60 00
        E 120 90 48 60
        E 0 90 54 60
        E 0 90 60 60
        E 120 80 48 00
        E 0 80 54 00
        E 0 80 60 00
        E 120 90 3c 60
        E 0 90 48 60
        E 0 90 54 60
        E 0 90 60 60
        E 120 80 3c 00
        E 0 80 48 00
        E 0 80 54 00
        E 0 80 60 00
        E 120 90 48 60
        E 0 90 54 60
        E 0 90 60 60
        E 120 80 48 00
        E 0 80 54 00
        E 0 80 60 00
        E 120 90 3c 60
        E 0 90 48 60
        E 0 90 54 60
        E 0 90 60 60
        E 120 80 3c 00
        E 0 80 48 00
        E 0 80 54 00
        E 0 80 60 00
        E 120 90 48 60
        E 0 90 54 60
        E 0 90 60 60
        E 120 80 48 00
        E 0 80 54 00
        E 0 80 60 00
        E 120 90 48 60
        E 0 90 54 60
        E 0 90 60 60
        E 120 80 48 00
        E 0 80 54 00
        E 0 80 60 00
        E 120 90 54 60
        E 0 90 60 60
        E 120 80 54 00
        E 0 80 60 00
        <X 120 0
          /wFbbWVsbG93XQ==
        >
        E 0 90 3e 60
        E 0 90 4b 60
        E 0 90 57 60
        E 0 90 63 60
        <X 1920 0
          /wFbaWRsZV0=
        >
        E 0 80 28 00
        E 0 80 3e 00
        E 0 80 4b 00
        E 0 80 57 00
        E 0 80 63 00
        <X 2879 0
          /wFbaWRsZV9yZWFsdGltZV0=
        >
        E 6721 b0 7b 00
        GUID {9EBFA271-B54C-49BB-B1B3-8CD6EC218F30}
        IGNTEMPO 0 120.00000000 4 4
        SRCCOLOR 2
        VELLANE 132 128 60
        COLORMAP "C:\Program Files\REAPER (x64)\Data\color_maps\rockband_guitarbass.png"
        CFGEDITVIEW -18721.282280 3.743333 0 12 0 0 0
        CFGEDIT 1 1 0 1 1 0 1 1 1 1 1 0.12500000 53 44 1253 718 0 2 1 1 0.00000000 0 1 1 0 0.500000 0 0 1.000000 64
        KEYSNAP 0 7 "102030050700" 0 "Pentatonic"
        EVTFILTER 0 -1 -1 -1 -1 0 1 0 0 -1.00000000 -1.00000000
      >
    >
  >
  <TRACK '{A623E4C4-D647-4550-8BA0-9AF1C3454AAE}'
    NAME "PART VOCALS"
    PEAKCOL 16576
    BEAT -1
    AUTOMODE 0
    VOLPAN 1.00000000000000 0.00000000000000 -1.00000000000000 -1.00000000000000 1.00000000000000
    MUTESOLO 0 0 0
    IPHASE 0
    ISBUS 1 1
    BUSCOMP 0 0
    SHOWINMIX 1 0.666700 0.500000 1 0.500000 -1 -1 -1
    FREEMODE 0
    SEL 0
    REC 0 0 0 0 0 0 0
    VU 2
    TRACKHEIGHT 0 0
    INQ 0 0 0 0.5000000000 100 0 0 100
    NCHAN 2
    FX 1
    TRACKID {A623E4C4-D647-4550-8BA0-9AF1C3454AAE}
    PERF 0
    MIDIOUT -1
    <MIDINOTENAMES
      0 116 "OVERDRIVE"
      0 115 "----"
      0 105 "Phrase Marker"
      0 104 "----"
      0 97 "Non-Displayed Percussion"
      0 96 "Displayed Percussion"
      0 95 "----"
      0 84 "C6 (Unused Highest Note)"
      0 83 "B5"
      0 82 "A#4"
      0 81 "A4"
      0 80 "G#4"
      0 79 "G4"
      0 78 "F#4"
      0 77 "F4"
      0 76 "E4"
      0 75 "D#4"
      0 74 "D4"
      0 73 "C#4"
      0 72 "C4"
      0 71 "B3"
      0 70 "A#3"
      0 69 "A3"
      0 68 "G#3"
      0 67 "G3"
      0 66 "F#3"
      0 65 "F3"
      0 64 "E3"
      0 63 "D#3"
      0 62 "D3"
      0 61 "C#3"
      0 60 "C3"
      0 59 "B2"
      0 58 "A#2"
      0 57 "A2"
      0 56 "G#2"
      0 55 "G2"
      0 54 "F#2"
      0 53 "F2"
      0 52 "E2"
      0 51 "D#2"
      0 50 "D2"
      0 49 "C#2"
      0 48 "C2"
      0 47 "B1"
      0 46 "A#1"
      0 45 "A1"
      0 44 "G#1"
      0 43 "G1"
      0 42 "F#1"
      0 41 "F1"
      0 40 "E1"
      0 39 "D#1"
      0 38 "D1"
      0 37 "C#1"
      0 36 "Lowest Note C1"
      0 2 "---"
      0 1 "Lyric Shift"
      0 0 "Range Shift"
    >
    MAINSEND 1 0
    <FXCHAIN
      SHOW 0
      LASTSEL 0
      DOCKED 0
    >
    <ITEM
      POSITION 0.00000000000000
      SNAPOFFS 0.00000000000000
      LENGTH 300.00000000000000
      LOOP 0
      ALLTAKES 0
      SEL 0
      FADEIN 1 0.000000 0.000000 1 0
      FADEOUT 1 0.000000 0.000000 1 0
      MUTE 0
      IGUID {59175576-4F06-4E5F-8A4A-92F826FF1019}
      IID 10
      NAME "PART VOCALS"
      VOLPAN 1.000000 0.000000 1.000000 -1.000000
      SOFFS 0.00000000000000 0.00000000000000
      PLAYRATE 1.00000000000000 1 0.00000000000000 -1
      CHANMODE 0
      GUID {998EEED0-76B1-440F-AE1B-5CBB4C48D74E}
      <SOURCE MIDI
        HASDATA 1 480 QN
        POOLEDEVTS {113358A2-E261-4708-8977-E8A6D27DCB62}
        <X 0 0
          /wNQQVJUIFZPQ0FMUw==
        >
        <X 7680 0
          /wFbdGFtYm91cmluZV9zdGFydF0=
        >
        E 0 90 69 60
        E 240 90 60 60
        E 120 80 60 00
        E 360 90 60 60
        E 120 80 60 00
        E 360 90 60 60
        E 120 80 60 00
        E 360 90 60 60
        E 120 80 60 00
        E 360 90 60 60
        E 120 80 60 00
        E 360 90 60 60
        E 120 80 60 00
        E 360 90 60 60
        E 120 80 60 00
        E 360 90 60 60
        E 120 80 60 00
        E 360 90 60 60
        E 120 80 60 00
        E 360 90 60 60
        E 120 80 60 00
        E 360 90 60 60
        E 120 80 60 00
        E 360 90 60 60
        E 120 80 60 00
        E 360 90 60 60
        E 120 80 60 00
        E 360 90 60 60
        E 120 80 60 00
        E 360 90 60 60
        E 120 80 60 00
        E 360 90 60 60
        E 120 80 60 00
        E 360 90 60 60
        E 120 80 60 00
        E 360 90 60 60
        E 120 80 60 00
        E 360 90 60 60
        E 120 80 60 00
        E 360 90 60 60
        E 120 80 60 00
        E 360 90 60 60
        E 120 80 60 00
        E 360 90 60 60
        E 120 80 60 00
        E 360 90 60 60
        E 120 80 60 00
        E 360 90 60 60
        E 120 80 60 00
        E 360 90 60 60
        E 120 80 60 00
        E 360 90 60 60
        E 120 80 60 00
        E 360 90 60 60
        E 120 80 60 00
        E 360 90 60 60
        E 120 80 60 00
        E 360 90 60 60
        E 120 80 60 00
        E 360 90 60 60
        E 120 80 60 00
        E 360 90 60 60
        E 120 80 60 00
        E 360 90 60 60
        E 120 80 60 00
        E 360 90 60 60
        E 120 80 60 00
        E 360 90 60 60
        E 120 80 60 00
        E 360 90 60 60
        E 120 80 60 00
        E 360 90 60 60
        E 120 80 60 00
        E 360 90 60 60
        E 120 80 60 00
        E 360 90 60 60
        E 120 80 60 00
        E 360 90 60 60
        E 120 80 60 00
        E 360 90 60 60
        E 120 80 60 00
        E 360 90 60 60
        E 120 80 60 00
        E 360 90 60 60
        E 120 80 60 00
        E 360 90 60 60
        E 120 80 60 00
        E 360 90 60 60
        E 120 80 60 00
        <X 120 0
          /wFbdGFtYm91cmluZV9lbmRd
        >
        E 0 80 69 00
        <X 960 0
          /wFbcGxheV0=
        >
        E 0 90 69 60
        <X 240 0
          /wVUYWtl
        >
        E 0 90 3c 60
        E 300 80 3c 00
        <X 90 0
          /wV5b3Vy
        >
        E 0 90 3c 60
        E 210 80 3c 00
        <X 120 0
          /wVoYW5kcw==
        >
        E 0 90 3c 60
        E 360 80 3c 00
        <X 120 0
          /wVmcm9t
        >
        E 0 90 3a 60
        E 120 80 3a 00
        <X 120 0
          /wVtZQ==
        >
        E 0 90 3a 60
        E 360 80 3a 00
        <X 360 0
          /wFbaWRsZV0=
        >
        E 480 90 01 60
        E 120 80 01 00
        <X 840 0
          /wFbcGxheV0=
        >
        <X 240 0
          /wVhbmQ=
        >
        E 0 90 3c 60
        E 300 80 3c 00
        <X 90 0
          /wV5b3Vy
        >
        E 0 90 3c 60
        E 150 80 3c 00
        <X 150 0
          /wVzeW0t
        >
        E 0 90 3c 60
        E 390 80 3c 00
        <X 120 0
          /wVwYS0=
        >
        E 0 90 3a 60
        E 120 80 3a 00
        <X 120 0
          /wV0aHk=
        >
        E 0 90 3a 60
        E 360 80 3a 00
        <X 360 0
          /wFbaWRsZV0=
        >
        E 480 80 69 00
        <X 960 0
          /wFbcGxheV0=
        >
        E 0 90 69 60
        E 0 90 74 60
        <X 240 0
          /wVTYXk=
        >
        E 0 90 3c 60
        E 300 80 3c 00
        <X 90 0
          /wV5b3UncmU=
        >
        E 0 90 3c 60
        E 150 80 3c 00
        <X 180 0
          /wVob2xkLQ==
        >
        E 0 90 3c 60
        E 150 80 3c 00
        <X 90 0
          /wUr
        >
        E 0 90 3a 60
        E 120 80 3a 00
        <X 120 0
          /wVpbmc=
        >
        E 0 90 3a 60
        E 120 80 3a 00
        <X 120 0
          /wVpbg==
        >
        E 0 90 3a 60
        E 360 80 3a 00
        <X 360 0
          /wFbaWRsZV0=
        >
        E 480 90 01 60
        E 120 80 01 00
        <X 840 0
          /wFbcGxheV0=
        >
        <X 240 0
          /wV3aGF0
        >
        E 0 90 3a 60
        E 300 80 3a 00
        <X 90 0
          /wV5b3Vy
        >
        E 0 90 3a 60
        E 150 80 3a 00
        <X 150 0
          /wVkZS0=
        >
        E 0 90 3a 60
        E 180 80 3a 00
        <X 90 0
          /wUr
        >
        E 0 90 38 60
        E 120 80 38 00
        <X 120 0
          /wVtb24=
        >
        E 0 90 38 60
        E 120 80 38 00
        <X 120 0
          /wVkaWQ=
        >
        E 0 90 38 60
        E 360 80 38 00
        <X 360 0
          /wFbaWRsZV0=
        >
        E 480 80 69 00
        E 0 80 74 00
        <X 960 0
          /wFbcGxheV0=
        >
        E 0 90 69 60
        <X 240 0
          /wVUYWtl
        >
        E 0 90 3c 60
        E 300 80 3c 00
        <X 90 0
          /wV5b3Vy
        >
        E 0 90 3c 60
        E 210 80 3c 00
        <X 120 0
          /wVraXNz
        >
        E 0 90 3c 60
        E 360 80 3c 00
        <X 120 0
          /wVmcm9t
        >
        E 0 90 3a 60
        E 120 80 3a 00
        <X 120 0
          /wVtZQ==
        >
        E 0 90 3a 60
        E 360 80 3a 00
        <X 360 0
          /wFbaWRsZV0=
        >
        E 480 90 01 60
        E 120 80 01 00
        <X 840 0
          /wFbcGxheV0=
        >
        <X 240 0
          /wVhbmQ=
        >
        E 0 90 3c 60
        E 300 80 3c 00
        <X 90 0
          /wV5b3Vy
        >
        E 0 90 3c 60
        E 150 80 3c 00
        <X 150 0
          /wVzeW0t
        >
        E 0 90 3c 60
        E 390 80 3c 00
        <X 120 0
          /wVwYS0=
        >
        E 0 90 3a 60
        E 120 80 3a 00
        <X 120 0
          /wV0aHk=
        >
        E 0 90 3a 60
        E 360 80 3a 00
        <X 360 0
          /wFbaWRsZV0=
        >
        E 480 80 69 00
        <X 960 0
          /wFbcGxheV0=
        >
        E 0 90 69 60
        <X 240 0
          /wVTYXk=
        >
        E 0 90 3c 60
        E 300 80 3c 00
        <X 90 0
          /wV5b3UncmU=
        >
        E 0 90 3c 60
        E 150 80 3c 00
        <X 180 0
          /wVob2xkLQ==
        >
        E 0 90 3c 60
        E 330 80 3c 00
        <X 150 0
          /wVpbmc=
        >
        E 0 90 3a 60
        E 120 80 3a 00
        <X 120 0
          /wVpbg==
        >
        E 0 90 3a 60
        E 360 80 3a 00
        <X 360 0
          /wFbaWRsZV0=
        >
        E 480 90 01 60
        E 120 80 01 00
        <X 840 0
          /wFbcGxheV0=
        >
        <X 240 0
          /wV3aGF0
        >
        E 0 90 3a 60
        E 300 80 3a 00
        <X 90 0
          /wV5b3Vy
        >
        E 0 90 3a 60
        E 150 80 3a 00
        <X 150 0
          /wVkZS0=
        >
        E 0 90 3a 60
        E 180 80 3a 00
        <X 90 0
          /wUr
        >
        E 0 90 38 60
        E 120 80 38 00
        <X 120 0
          /wVtb24=
        >
        E 0 90 38 60
        E 120 80 38 00
        <X 120 0
          /wVkaWQ=
        >
        E 0 90 38 60
        E 360 80 38 00
        <X 360 0
          /wFbaWRsZV0=
        >
        E 480 80 69 00
        <X 1920 0
          /wFbcGxheV0=
        >
        E 0 90 69 60
        E 0 90 74 60
        <X 240 0
          /wVZb3U=
        >
        E 0 90 3c 60
        E 150 80 3c 00
        <X 90 0
          /wVjYW1l
        >
        E 0 90 3c 60
        E 180 80 3c 00
        <X 60 0
          /wVhLQ==
        >
        E 0 90 3c 60
        E 60 80 3c 00
        <X 60 0
          /wVsb25n
        >
        E 0 90 3c 60
        E 270 80 3c 00
        <X 90 0
          /wV5b3U=
        >
        E 0 90 3c 60
        E 150 80 3c 00
        <X 90 0
          /wVodXIt
        >
        E 0 90 3c 60
        E 180 80 3c 00
        <X 60 0
          /wVyaWVk
        >
        E 0 90 3c 60
        E 60 80 3c 00
        <X 60 0
          /wV1cA==
        >
        E 0 90 3c 60
        E 120 90 01 60
        E 60 80 3c 00
        E 60 80 01 00
        <X 120 0
          /wV5b3U=
        >
        E 0 90 3c 60
        E 150 80 3c 00
        <X 90 0
          /wVtYWRl
        >
        E 0 90 3c 60
        E 180 80 3c 00
        <X 60 0
          /wVh
        >
        E 0 90 3c 60
        E 60 80 3c 00
        <X 60 0
          /wVjYWxs
        >
        E 0 90 3c 60
        E 270 80 3c 00
        <X 90 0
          /wV5b3U=
        >
        E 0 90 3c 60
        E 180 80 3c 00
        <X 60 0
          /wVtYWRl
        >
        E 0 90 3c 60
        E 180 80 3c 00
        <X 60 0
          /wVpdA==
        >
        E 0 90 3c 60
        E 60 80 3c 00
        <X 60 0
          /wVhbGw=
        >
        E 0 90 3c 60
        E 480 80 3c 00
        <X 120 0
          /wFbaWRsZV0=
        >
        E 0 80 69 00
        E 0 80 74 00
        <X 3360 0
          /wFbcGxheV0=
        >
        E 0 90 69 60
        <X 240 0
          /wVZb3U=
        >
        E 0 90 3c 60
        E 150 80 3c 00
        <X 90 0
          /wVkcmVhbQ==
        >
        E 0 90 3c 60
        E 180 80 3c 00
        <X 60 0
          /wVh
        >
        E 0 90 3c 60
        E 60 80 3c 00
        <X 60 0
          /wVsb3Q=
        >
        E 0 90 3c 60
        E 150 80 3c 00
        <X 210 0
          /wV5b3U=
        >
        E 0 90 3c 60
        E 150 80 3c 00
        <X 90 0
          /wVtZWFu
        >
        E 0 90 3c 60
        E 180 80 3c 00
        <X 60 0
          /wVh
        >
        E 0 90 3c 60
        E 60 80 3c 00
        <X 60 0
          /wVsb3Q=
        >
        E 0 90 3c 60
        E 120 90 01 60
        E 60 80 3c 00
        E 60 80 01 00
        <X 120 0
          /wV5b3U=
        >
        E 0 90 3c 60
        E 150 80 3c 00
        <X 90 0
          /wVzZXQ=
        >
        E 0 90 3c 60
        E 180 80 3c 00
        <X 60 0
          /wVtZQ==
        >
        E 0 90 3c 60
        E 60 80 3c 00
        <X 60 0
          /wV1cA==
        >
        E 0 90 3c 60
        E 270 80 3c 00
        <X 90 0
          /wV5b3U=
        >
        E 0 90 3c 60
        E 180 80 3c 00
        <X 60 0
          /wVzZXQ=
        >
        E 0 90 3c 60
        E 180 80 3c 00
        <X 60 0
          /wVtZQ==
        >
        E 0 90 3c 60
        E 60 80 3c 00
        <X 60 0
          /wVvZmY=
        >
        E 0 90 3c 60
        E 420 80 3c 00
        <X 180 0
          /wFbaWRsZV0=
        >
        E 0 80 69 00
        <X 3360 0
          /wFbcGxheV0=
        >
        E 0 90 69 60
        <X 240 0
          /wVJdCdz
        >
        E 0 90 3c 60
        E 150 80 3c 00
        <X 90 0
          /wVub3Q=
        >
        E 0 90 3c 60
        E 180 80 3c 00
        <X 60 0
          /wVh
        >
        E 0 90 3c 60
        E 60 80 3c 00
        <X 60 0
          /wViaWc=
        >
        E 0 90 3c 60
        E 270 80 3c 00
        <X 90 0
          /wVkZWFs
        >
        E 0 90 3c 60
        E 120 90 01 60
        E 30 80 3c 00
        <X 90 0
          /wVtYWst
        >
        E 0 80 01 00
        E 0 90 3c 60
        E 180 80 3c 00
        <X 60 0
          /wVpbmc=
        >
        E 0 90 3c 60
        E 60 80 3c 00
        <X 60 0
          /wVtZQ==
        >
        E 0 90 3c 60
        E 180 80 3c 00
        <X 180 0
          /wVmZWVs
        >
        E 0 90 3c 60
        E 150 80 3c 00
        <X 90 0
          /wVsaWtl
        >
        E 0 90 3c 60
        E 180 80 3c 00
        <X 60 0
          /wVh
        >
        E 0 90 3c 60
        E 60 80 3c 00
        <X 60 0
          /wVtb29uLQ==
        >
        E 0 90 3c 60
        E 270 80 3c 00
        <X 90 0
          /wVtYW4=
        >
        E 0 90 3c 60
        E 180 80 3c 00
        <X 60 0
          /wVvbg==
        >
        E 0 90 3c 60
        E 180 80 3c 00
        <X 60 0
          /wV0aGU=
        >
        E 0 90 3c 60
        E 60 80 3c 00
        <X 60 0
          /wVzdW4=
        >
        E 0 90 3c 60
        E 480 80 3c 00
        <X 120 0
          /wFbaWRsZV0=
        >
        E 0 80 69 00
        <X 3360 0
          /wFbcGxheV0=
        >
        E 0 90 69 60
        <X 240 0
          /wVJdCdz
        >
        E 0 90 3c 60
        E 150 80 3c 00
        <X 90 0
          /wVqdXN0
        >
        E 0 90 3c 60
        E 180 80 3c 00
        <X 60 0
          /wVh
        >
        E 0 90 3c 60
        E 60 80 3c 00
        <X 60 0
          /wVoby0=
        >
        E 0 90 3c 60
        E 270 80 3c 00
        <X 90 0
          /wVseQ==
        >
        E 0 90 3c 60
        E 150 80 3c 00
        <X 90 0
          /wVjbHVzLQ==
        >
        E 0 90 3c 60
        E 180 80 3c 00
        <X 60 0
          /wV0ZXIt
        >
        E 0 90 3c 60
        E 60 80 3c 00
        <X 60 0
          /wVmdWNr
        >
        E 0 90 3c 60
        E 120 90 01 60
        E 60 80 3c 00
        E 60 80 01 00
        <X 120 0
          /wV5b3U=
        >
        E 0 90 3c 60
        E 150 80 3c 00
        <X 90 0
          /wVsb3Zl
        >
        E 0 90 3c 60
        E 180 80 3c 00
        <X 60 0
          /wVh
        >
        E 0 90 3c 60
        E 60 80 3c 00
        <X 60 0
          /wVsb3Q=
        >
        E 0 90 3c 60
        E 210 80 3c 00
        <X 150 0
          /wV5b3U=
        >
        E 0 90 3c 60
        E 180 80 3c 00
        <X 60 0
          /wVsb3Zl
        >
        E 0 90 3c 60
        E 180 80 3c 00
        <X 60 0
          /wVh
        >
        E 0 90 3c 60
        E 60 80 3c 00
        <X 60 0
          /wVsb3Q=
        >
        E 0 90 3c 60
        E 330 80 3c 00
        <X 270 0
          /wFbaWRsZV0=
        >
        E 0 80 69 00
        <X 2400 0
          /wFbcGxheV0=
        >
        E 0 90 69 60
        E 0 90 74 60
        <X 240 0
          /wVUYWtl
        >
        E 0 90 3c 60
        E 300 80 3c 00
        <X 90 0
          /wV5b3Vy
        >
        E 0 90 3c 60
        E 210 80 3c 00
        <X 120 0
          /wVoYW5kcw==
        >
        E 0 90 3c 60
        E 360 80 3c 00
        <X 120 0
          /wVmcm9t
        >
        E 0 90 3a 60
        E 120 80 3a 00
        <X 120 0
          /wVtZQ==
        >
        E 0 90 3a 60
        E 360 80 3a 00
        <X 360 0
          /wFbaWRsZV0=
        >
        E 480 90 01 60
        E 120 80 01 00
        <X 840 0
          /wFbcGxheV0=
        >
        <X 240 0
          /wVhbmQ=
        >
        E 0 90 3c 60
        E 300 80 3c 00
        <X 90 0
          /wV5b3Vy
        >
        E 0 90 3c 60
        E 150 80 3c 00
        <X 150 0
          /wVzeW0t
        >
        E 0 90 3c 60
        E 390 80 3c 00
        <X 120 0
          /wVwYS0=
        >
        E 0 90 3a 60
        E 120 80 3a 00
        <X 120 0
          /wV0aHk=
        >
        E 0 90 3a 60
        E 360 80 3a 00
        <X 360 0
          /wFbaWRsZV0=
        >
        E 480 80 69 00
        E 0 80 74 00
        <X 960 0
          /wFbcGxheV0=
        >
        E 0 90 69 60
        <X 240 0
          /wVTYXk=
        >
        E 0 90 3c 60
        E 300 80 3c 00
        <X 90 0
          /wV5b3UncmU=
        >
        E 0 90 3c 60
        E 150 80 3c 00
        <X 180 0
          /wVob2xkLQ==
        >
        E 0 90 3c 60
        E 150 80 3c 00
        <X 90 0
          /wUr
        >
        E 0 90 3a 60
        E 120 80 3a 00
        <X 120 0
          /wVpbmc=
        >
        E 0 90 3a 60
        E 120 80 3a 00
        <X 120 0
          /wVpbg==
        >
        E 0 90 3a 60
        E 360 80 3a 00
        <X 120 0
          /wFbaWRsZV0=
        >
        E 720 90 01 60
        E 120 80 01 00
        <X 840 0
          /wFbcGxheV0=
        >
        <X 240 0
          /wV3aGF0
        >
        E 0 90 3a 60
        E 300 80 3a 00
        <X 90 0
          /wV5b3Vy
        >
        E 0 90 3a 60
        E 150 80 3a 00
        <X 150 0
          /wVkZS0=
        >
        E 0 90 3a 60
        E 180 80 3a 00
        <X 90 0
          /wUr
        >
        E 0 90 38 60
        E 120 80 38 00
        <X 120 0
          /wVtb24=
        >
        E 0 90 38 60
        E 120 80 38 00
        <X 120 0
          /wVkaWQ=
        >
        E 0 90 38 60
        E 360 80 38 00
        <X 360 0
          /wFbaWRsZV0=
        >
        E 480 80 69 00
        <X 960 0
          /wFbcGxheV0=
        >
        E 0 90 69 60
        E 0 90 74 60
        <X 240 0
          /wVUYWtl
        >
        E 0 90 3c 60
        E 300 80 3c 00
        <X 90 0
          /wV5b3Vy
        >
        E 0 90 3c 60
        E 210 80 3c 00
        <X 120 0
          /wVraXNz
        >
        E 0 90 3c 60
        E 360 80 3c 00
        <X 120 0
          /wVmcm9t
        >
        E 0 90 3a 60
        E 120 80 3a 00
        <X 120 0
          /wVtZQ==
        >
        E 0 90 3a 60
        E 360 80 3a 00
        <X 120 0
          /wFbaWRsZV0=
        >
        E 720 90 01 60
        E 120 80 01 00
        <X 840 0
          /wFbcGxheV0=
        >
        <X 240 0
          /wVhbmQ=
        >
        E 0 90 3c 60
        E 300 80 3c 00
        <X 90 0
          /wV5b3Vy
        >
        E 0 90 3c 60
        E 150 80 3c 00
        <X 150 0
          /wVzeW0t
        >
        E 0 90 3c 60
        E 390 80 3c 00
        <X 120 0
          /wVwYS0=
        >
        E 0 90 3a 60
        E 120 80 3a 00
        <X 120 0
          /wV0aHk=
        >
        E 0 90 3a 60
        E 360 80 3a 00
        <X 120 0
          /wFbaWRsZV0=
        >
        E 720 80 69 00
        E 0 80 74 00
        <X 960 0
          /wFbcGxheV0=
        >
        E 0 90 69 60
        <X 240 0
          /wVTYXk=
        >
        E 0 90 3c 60
        E 300 80 3c 00
        <X 90 0
          /wV5b3UncmU=
        >
        E 0 90 3c 60
        E 150 80 3c 00
        <X 180 0
          /wVob2xkLQ==
        >
        E 0 90 3c 60
        E 330 80 3c 00
        <X 150 0
          /wVpbmc=
        >
        E 0 90 3a 60
        E 120 80 3a 00
        <X 120 0
          /wVpbg==
        >
        E 0 90 3a 60
        E 360 80 3a 00
        <X 120 0
          /wFbaWRsZV0=
        >
        E 720 90 01 60
        E 120 80 01 00
        <X 840 0
          /wFbcGxheV0=
        >
        <X 240 0
          /wV3aGF0
        >
        E 0 90 3a 60
        E 300 80 3a 00
        <X 90 0
          /wV5b3Vy
        >
        E 0 90 3a 60
        E 150 80 3a 00
        <X 150 0
          /wVkZS0=
        >
        E 0 90 3a 60
        E 180 80 3a 00
        <X 90 0
          /wUr
        >
        E 0 90 38 60
        E 120 80 38 00
        <X 120 0
          /wVtb24=
        >
        E 0 90 38 60
        E 120 80 38 00
        <X 120 0
          /wVkaWQ=
        >
        E 0 90 38 60
        E 360 80 38 00
        <X 360 0
          /wFbaWRsZV0=
        >
        E 480 80 69 00
        <X 1920 0
          /wFbcGxheV0=
        >
        E 0 90 69 60
        <X 240 0
          /wVZb3U=
        >
        E 0 90 3c 60
        E 150 80 3c 00
        <X 90 0
          /wVwdXNoZWQ=
        >
        E 0 90 3c 60
        E 180 80 3c 00
        <X 60 0
          /wVhLQ==
        >
        E 0 90 3c 60
        E 60 80 3c 00
        <X 60 0
          /wVyb3VuZA==
        >
        E 0 90 3c 60
        E 270 80 3c 00
        <X 90 0
          /wV5b3U=
        >
        E 0 90 3c 60
        E 150 80 3c 00
        <X 90 0
          /wVkcmF3
        >
        E 0 90 3c 60
        E 180 80 3c 00
        <X 60 0
          /wVpdA==
        >
        E 0 90 3c 60
        E 60 80 3c 00
        <X 60 0
          /wViYWNr
        >
        E 0 90 3c 60
        E 120 90 01 60
        E 60 80 3c 00
        E 60 80 01 00
        <X 120 0
          /wV5b3U=
        >
        E 0 90 3c 60
        E 150 80 3c 00
        <X 90 0
          /wVsZXQ=
        >
        E 0 90 3c 60
        E 180 80 3c 00
        <X 180 0
          /wVnbw==
        >
        E 0 90 3c 60
        E 270 80 3c 00
        <X 90 0
          /wV5b3U=
        >
        E 0 90 3c 60
        E 180 80 3c 00
        <X 60 0
          /wVsZXQ=
        >
        E 0 90 3c 60
        E 180 80 3c 00
        <X 60 0
          /wVtZQ==
        >
        E 0 90 3c 60
        E 60 80 3c 00
        <X 60 0
          /wVrbm93
        >
        E 0 90 3c 60
        E 480 80 3c 00
        E 120 80 69 00
        <X 480 0
          /wFbaWRsZV0=
        >
        <X 2880 0
          /wFbcGxheV0=
        >
        E 0 90 69 60
        <X 240 0
          /wVZb3U=
        >
        E 0 90 3c 60
        E 150 80 3c 00
        <X 90 0
          /wVoaWRl
        >
        E 0 90 3c 60
        E 180 80 3c 00
        <X 60 0
          /wViZS0=
        >
        E 0 90 3c 60
        E 60 80 3c 00
        <X 60 0
          /wVoaW5k
        >
        E 0 90 3c 60
        E 150 80 3c 00
        <X 210 0
          /wV5b3U=
        >
        E 0 90 3c 60
        E 150 80 3c 00
        <X 90 0
          /wVyaWRl
        >
        E 0 90 3c 60
        E 180 80 3c 00
        <X 60 0
          /wV0aGU=
        >
        E 0 90 3c 60
        E 60 80 3c 00
        <X 60 0
          /wVoaWdo
        >
        E 0 90 3c 60
        E 120 90 01 60
        E 60 80 3c 00
        E 60 80 01 00
        <X 120 0
          /wV5b3U=
        >
        E 0 90 3c 60
        E 150 80 3c 00
        <X 90 0
          /wVob2xk
        >
        E 0 90 3c 60
        E 180 80 3c 00
        <X 60 0
          /wVtZQ==
        >
        E 0 90 3c 60
        E 60 80 3c 00
        <X 60 0
          /wV1cA==
        >
        E 0 90 3c 60
        E 270 80 3c 00
        <X 90 0
          /wV5b3U=
        >
        E 0 90 3c 60
        E 180 80 3c 00
        <X 60 0
          /wVob2xk
        >
        E 0 90 3c 60
        E 180 80 3c 00
        <X 60 0
          /wVtZQ==
        >
        E 0 90 3c 60
        E 60 80 3c 00
        <X 60 0
          /wVvZmY=
        >
        E 0 90 3c 60
        E 420 80 3c 00
        <X 180 0
          /wFbaWRsZV0=
        >
        E 0 80 69 00
        <X 3360 0
          /wFbcGxheV0=
        >
        E 0 90 69 60
        <X 240 0
          /wVJdCdz
        >
        E 0 90 3c 60
        E 150 80 3c 00
        <X 90 0
          /wVub3Q=
        >
        E 0 90 3c 60
        E 180 80 3c 00
        <X 60 0
          /wVh
        >
        E 0 90 3c 60
        E 60 80 3c 00
        <X 60 0
          /wViaWc=
        >
        E 0 90 3c 60
        E 270 80 3c 00
        <X 90 0
          /wVkZWFs
        >
        E 0 90 3c 60
        E 120 90 01 60
        E 30 80 3c 00
        <X 90 0
          /wVtYWst
        >
        E 0 80 01 00
        E 0 90 3c 60
        E 180 80 3c 00
        <X 60 0
          /wVpbmc=
        >
        E 0 90 3c 60
        E 60 80 3c 00
        <X 60 0
          /wVtZQ==
        >
        E 0 90 3c 60
        E 180 80 3c 00
        <X 180 0
          /wVmZWVs
        >
        E 0 90 3c 60
        E 150 80 3c 00
        <X 90 0
          /wVsaWtl
        >
        E 0 90 3c 60
        E 180 80 3c 00
        <X 60 0
          /wVh
        >
        E 0 90 3c 60
        E 60 80 3c 00
        <X 60 0
          /wVzdW4t
        >
        E 0 90 3c 60
        E 270 80 3c 00
        <X 90 0
          /wViaXJk
        >
        E 0 90 3c 60
        E 180 80 3c 00
        <X 60 0
          /wVvbg==
        >
        E 0 90 3c 60
        E 180 80 3c 00
        <X 60 0
          /wV0aGU=
        >
        E 0 90 3c 60
        E 60 80 3c 00
        <X 60 0
          /wVtb29u
        >
        E 0 90 3c 60
        E 240 80 3c 00
        <X 360 0
          /wFbaWRsZV0=
        >
        E 0 80 69 00
        <X 3360 0
          /wFbcGxheV0=
        >
        E 0 90 69 60
        E 0 90 74 60
        <X 240 0
          /wVJdCdz
        >
        E 0 90 3c 60
        E 150 80 3c 00
        <X 90 0
          /wVqdXN0
        >
        E 0 90 3c 60
        E 180 80 3c 00
        <X 60 0
          /wVh
        >
        E 0 90 3c 60
        E 60 80 3c 00
        <X 60 0
          /wVoby0=
        >
        E 0 90 3c 60
        E 270 80 3c 00
        <X 90 0
          /wVseQ==
        >
        E 0 90 3c 60
        E 150 80 3c 00
        <X 90 0
          /wVjbHVzLQ==
        >
        E 0 90 3c 60
        E 180 80 3c 00
        <X 60 0
          /wV0ZXIt
        >
        E 0 90 3c 60
        E 60 80 3c 00
        <X 60 0
          /wVmdWNr
        >
        E 0 90 3c 60
        E 120 90 01 60
        E 60 80 3c 00
        E 60 80 01 00
        <X 120 0
          /wV5b3U=
        >
        E 0 90 3c 60
        E 150 80 3c 00
        <X 90 0
          /wVkbw==
        >
        E 0 90 3c 60
        E 180 80 3c 00
        <X 60 0
          /wVh
        >
        E 0 90 3c 60
        E 60 80 3c 00
        <X 60 0
          /wVsb3Q=
        >
        E 0 90 3c 60
        E 210 80 3c 00
        <X 150 0
          /wV5b3U=
        >
        E 0 90 3c 60
        E 180 80 3c 00
        <X 60 0
          /wVkbw==
        >
        E 0 90 3c 60
        E 180 80 3c 00
        <X 60 0
          /wVh
        >
        E 0 90 3c 60
        E 60 80 3c 00
        <X 60 0
          /wVsb3Q=
        >
        E 0 90 3c 60
        E 330 80 3c 00
        <X 270 0
          /wFbaWRsZV0=
        >
        E 0 80 69 00
        E 0 80 74 00
        <X 2400 0
          /wFbcGxheV0=
        >
        E 0 90 69 60
        <X 240 0
          /wVUYWtl
        >
        E 0 90 3c 60
        E 300 80 3c 00
        <X 90 0
          /wV5b3Vy
        >
        E 0 90 3c 60
        E 210 80 3c 00
        <X 120 0
          /wVoYW5kcw==
        >
        E 0 90 3c 60
        E 360 80 3c 00
        <X 120 0
          /wVmcm9t
        >
        E 0 90 3a 60
        E 120 80 3a 00
        <X 120 0
          /wVtZQ==
        >
        E 0 90 3a 60
        E 360 80 3a 00
        <X 360 0
          /wFbaWRsZV0=
        >
        E 480 90 01 60
        E 120 80 01 00
        <X 840 0
          /wFbcGxheV0=
        >
        <X 240 0
          /wVhbmQ=
        >
        E 0 90 3c 60
        E 300 80 3c 00
        <X 90 0
          /wV5b3Vy
        >
        E 0 90 3c 60
        E 150 80 3c 00
        <X 150 0
          /wVzeW0t
        >
        E 0 90 3c 60
        E 390 80 3c 00
        <X 120 0
          /wVwYS0=
        >
        E 0 90 3a 60
        E 120 80 3a 00
        <X 120 0
          /wV0aHk=
        >
        E 0 90 3a 60
        E 360 80 3a 00
        <X 360 0
          /wFbaWRsZV0=
        >
        E 480 80 69 00
        <X 960 0
          /wFbcGxheV0=
        >
        E 0 90 69 60
        <X 240 0
          /wVTYXk=
        >
        E 0 90 3c 60
        E 300 80 3c 00
        <X 90 0
          /wV5b3UncmU=
        >
        E 0 90 3c 60
        E 150 80 3c 00
        <X 180 0
          /wVob2xkLQ==
        >
        E 0 90 3c 60
        E 150 80 3c 00
        <X 90 0
          /wUr
        >
        E 0 90 3a 60
        E 120 80 3a 00
        <X 120 0
          /wVpbmc=
        >
        E 0 90 3a 60
        E 120 80 3a 00
        <X 120 0
          /wVpbg==
        >
        E 0 90 3a 60
        E 360 80 3a 00
        <X 120 0
          /wFbaWRsZV0=
        >
        E 720 90 01 60
        E 120 80 01 00
        <X 840 0
          /wFbcGxheV0=
        >
        <X 240 0
          /wV3aGF0
        >
        E 0 90 3a 60
        E 300 80 3a 00
        <X 90 0
          /wV5b3Vy
        >
        E 0 90 3a 60
        E 150 80 3a 00
        <X 150 0
          /wVkZS0=
        >
        E 0 90 3a 60
        E 180 80 3a 00
        <X 90 0
          /wUr
        >
        E 0 90 38 60
        E 120 80 38 00
        <X 120 0
          /wVtb24=
        >
        E 0 90 38 60
        E 120 80 38 00
        <X 120 0
          /wVkaWQ=
        >
        E 0 90 38 60
        E 360 80 38 00
        <X 360 0
          /wFbaWRsZV0=
        >
        E 480 80 69 00
        <X 960 0
          /wFbcGxheV0=
        >
        E 0 90 69 60
        <X 240 0
          /wVUYWtl
        >
        E 0 90 3c 60
        E 300 80 3c 00
        <X 90 0
          /wV5b3Vy
        >
        E 0 90 3c 60
        E 210 80 3c 00
        <X 120 0
          /wVraXNz
        >
        E 0 90 3c 60
        E 360 80 3c 00
        <X 120 0
          /wVmcm9t
        >
        E 0 90 3a 60
        E 120 80 3a 00
        <X 120 0
          /wVtZQ==
        >
        E 0 90 3a 60
        E 360 80 3a 00
        <X 360 0
          /wFbaWRsZV0=
        >
        E 480 90 01 60
        E 120 80 01 00
        <X 840 0
          /wFbcGxheV0=
        >
        <X 240 0
          /wVhbmQ=
        >
        E 0 90 3c 60
        E 300 80 3c 00
        <X 90 0
          /wV5b3Vy
        >
        E 0 90 3c 60
        E 150 80 3c 00
        <X 150 0
          /wVzeW0t
        >
        E 0 90 3c 60
        E 390 80 3c 00
        <X 120 0
          /wVwYS0=
        >
        E 0 90 3a 60
        E 120 80 3a 00
        <X 120 0
          /wV0aHk=
        >
        E 0 90 3a 60
        E 360 80 3a 00
        <X 120 0
          /wFbaWRsZV0=
        >
        E 720 80 69 00
        <X 960 0
          /wFbcGxheV0=
        >
        E 0 90 69 60
        E 0 90 74 60
        <X 240 0
          /wVTYXk=
        >
        E 0 90 3c 60
        E 300 80 3c 00
        <X 90 0
          /wV5b3UncmU=
        >
        E 0 90 3c 60
        E 150 80 3c 00
        <X 180 0
          /wVob2xkLQ==
        >
        E 0 90 3c 60
        E 330 80 3c 00
        <X 150 0
          /wVpbmc=
        >
        E 0 90 3d 60
        E 120 80 3d 00
        <X 120 0
          /wVpbiM=
        >
        E 0 90 3d 60
        E 360 80 3d 00
        <X 360 0
          /wFbaWRsZV0=
        >
        E 480 90 01 60
        E 120 80 01 00
        <X 840 0
          /wFbcGxheV0=
        >
        <X 240 0
          /wV3aGF0
        >
        E 0 90 3c 60
        E 300 80 3c 00
        <X 90 0
          /wV5b3Vy
        >
        E 0 90 3c 60
        E 150 80 3c 00
        <X 150 0
          /wVkZS0=
        >
        E 0 90 3c 60
        E 180 80 3c 00
        <X 90 0
          /wUr
        >
        E 0 90 3a 60
        E 120 80 3a 00
        <X 120 0
          /wVtb24=
        >
        E 0 90 3a 60
        E 120 80 3a 00
        <X 120 0
          /wVkaWQ=
        >
        E 0 90 3a 60
        E 360 80 3a 00
        <X 360 0
          /wFbaWRsZV0=
        >
        E 0 80 69 00
        E 0 80 74 00
        <X 3360 0
          /wFbcGxheV0=
        >
        E 0 90 69 60
        <X 240 0
          /wVBaA==
        >
        E 0 90 41 60
        E 180 80 41 00
        <X 60 0
          /wUr
        >
        E 0 90 44 60
        E 450 80 44 00
        <X 1230 0
          /wVhaA==
        >
        E 0 90 41 60
        E 180 80 41 00
        <X 60 0
          /wUr
        >
        E 0 90 44 60
        E 450 80 44 00
        E 30 80 69 00
        E 960 90 69 60
        <X 240 0
          /wVBaA==
        >
        E 0 90 41 60
        E 180 80 41 00
        <X 60 0
          /wUr
        >
        E 0 90 44 60
        E 450 80 44 00
        <X 1230 0
          /wVhaA==
        >
        E 0 90 41 60
        E 180 80 41 00
        <X 60 0
          /wUr
        >
        E 0 90 44 60
        E 450 80 44 00
        E 30 80 69 00
        E 960 90 69 60
        E 0 90 74 60
        <X 240 0
          /wVBaA==
        >
        E 0 90 41 60
        E 180 80 41 00
        <X 60 0
          /wUr
        >
        E 0 90 44 60
        E 450 80 44 00
        <X 1230 0
          /wVhaA==
        >
        E 0 90 41 60
        E 180 80 41 00
        <X 60 0
          /wUr
        >
        E 0 90 44 60
        E 450 80 44 00
        E 30 80 69 00
        E 0 80 74 00
        E 960 90 69 60
        <X 240 0
          /wVBaA==
        >
        E 0 90 41 60
        E 180 80 41 00
        <X 60 0
          /wUr
        >
        E 0 90 44 60
        E 450 80 44 00
        <X 1230 0
          /wVhaA==
        >
        E 0 90 41 60
        E 180 80 41 00
        <X 60 0
          /wUr
        >
        E 0 90 44 60
        E 450 80 44 00
        E 30 80 69 00
        E 960 90 69 60
        <X 240 0
          /wVBaA==
        >
        E 0 90 41 60
        E 180 80 41 00
        <X 60 0
          /wUr
        >
        E 0 90 44 60
        E 450 80 44 00
        <X 1230 0
          /wVhaA==
        >
        E 0 90 41 60
        E 180 80 41 00
        <X 60 0
          /wUr
        >
        E 0 90 44 60
        E 450 80 44 00
        E 30 80 69 00
        E 960 90 69 60
        <X 240 0
          /wVBaA==
        >
        E 0 90 41 60
        E 180 80 41 00
        <X 60 0
          /wUr
        >
        E 0 90 44 60
        E 450 80 44 00
        <X 1230 0
          /wVhaA==
        >
        E 0 90 41 60
        E 180 80 41 00
        <X 60 0
          /wUr
        >
        E 0 90 44 60
        E 450 80 44 00
        <X 30 0
          /wFbaWRsZV0=
        >
        E 0 80 69 00
        <X 15240 0
          /wFbcGxheV0=
        >
        E 0 90 69 60
        E 0 90 74 60
        <X 120 0
          /wVBaA==
        >
        E 0 90 48 60
        E 1800 80 48 00
        <X 120 0
          /wUr
        >
        E 0 90 43 60
        E 1800 80 43 00
        <X 120 0
          /wUr
        >
        E 0 90 46 60
        E 1800 80 46 00
        <X 120 0
          /wUr
        >
        E 0 90 43 60
        E 750 80 43 00
        E 210 80 69 00
        E 0 80 74 00
        E 840 90 69 60
        <X 120 0
          /wVBaA==
        >
        E 0 90 48 60
        E 1800 80 48 00
        <X 120 0
          /wUr
        >
        E 0 90 43 60
        E 1800 80 43 00
        <X 120 0
          /wUr
        >
        E 0 90 46 60
        E 1800 80 46 00
        <X 120 0
          /wUr
        >
        E 0 90 43 60
        E 750 80 43 00
        E 210 80 69 00
        E 0 90 69 60
        <X 240 0
          /wVUYWtl
        >
        E 0 90 3c 60
        E 300 80 3c 00
        <X 90 0
          /wV5b3Vy
        >
        E 0 90 3c 60
        E 210 80 3c 00
        <X 120 0
          /wVoYW5kcw==
        >
        E 0 90 3c 60
        E 360 80 3c 00
        <X 120 0
          /wVmcm9t
        >
        E 0 90 3a 60
        E 120 80 3a 00
        <X 120 0
          /wVtZQ==
        >
        E 0 90 3a 60
        E 360 80 3a 00
        <X 120 0
          /wFbaWRsZV0=
        >
        E 720 90 01 60
        E 120 80 01 00
        <X 840 0
          /wFbcGxheV0=
        >
        <X 240 0
          /wVhbmQ=
        >
        E 0 90 3c 60
        E 300 80 3c 00
        <X 90 0
          /wV5b3Vy
        >
        E 0 90 3c 60
        E 150 80 3c 00
        <X 150 0
          /wVzeW0t
        >
        E 0 90 3c 60
        E 390 80 3c 00
        <X 120 0
          /wVwYS0=
        >
        E 0 90 3a 60
        E 120 80 3a 00
        <X 120 0
          /wV0aHk=
        >
        E 0 90 3a 60
        E 360 80 3a 00
        <X 360 0
          /wFbaWRsZV0=
        >
        <X 1440 0
          /wFbcGxheV0=
        >
        E 0 80 69 00
        E 0 90 69 60
        E 0 90 74 60
        <X 240 0
          /wVTYXk=
        >
        E 0 90 3c 60
        E 300 80 3c 00
        <X 90 0
          /wV5b3UncmU=
        >
        E 0 90 3c 60
        E 150 80 3c 00
        <X 180 0
          /wVob2xkLQ==
        >
        E 0 90 3c 60
        E 150 80 3c 00
        <X 90 0
          /wUr
        >
        E 0 90 3a 60
        E 120 80 3a 00
        <X 120 0
          /wVpbmc=
        >
        E 0 90 3a 60
        E 120 80 3a 00
        <X 120 0
          /wVpbg==
        >
        E 0 90 3a 60
        E 360 80 3a 00
        <X 360 0
          /wFbaWRsZV0=
        >
        E 480 90 01 60
        E 120 80 01 00
        <X 840 0
          /wFbcGxheV0=
        >
        <X 240 0
          /wV3aGF0
        >
        E 0 90 3a 60
        E 300 80 3a 00
        <X 90 0
          /wV5b3Vy
        >
        E 0 90 3a 60
        E 150 80 3a 00
        <X 150 0
          /wVkZS0=
        >
        E 0 90 3a 60
        E 180 80 3a 00
        <X 90 0
          /wUr
        >
        E 0 90 38 60
        E 120 80 38 00
        <X 120 0
          /wVtb24=
        >
        E 0 90 38 60
        E 120 80 38 00
        <X 120 0
          /wVkaWQ=
        >
        E 0 90 38 60
        E 360 80 38 00
        <X 360 0
          /wFbaWRsZV0=
        >
        <X 1440 0
          /wFbcGxheV0=
        >
        E 0 80 69 00
        E 0 80 74 00
        E 0 90 69 60
        <X 240 0
          /wVUYWtl
        >
        E 0 90 3c 60
        E 300 80 3c 00
        <X 90 0
          /wV5b3Vy
        >
        E 0 90 3c 60
        E 210 80 3c 00
        <X 120 0
          /wVraXNz
        >
        E 0 90 3c 60
        E 360 80 3c 00
        <X 120 0
          /wVmcm9t
        >
        E 0 90 3a 60
        E 120 80 3a 00
        <X 120 0
          /wVtZQ==
        >
        E 0 90 3a 60
        E 360 80 3a 00
        <X 360 0
          /wFbaWRsZV0=
        >
        E 480 90 01 60
        E 120 80 01 00
        <X 840 0
          /wFbcGxheV0=
        >
        <X 240 0
          /wVhbmQ=
        >
        E 0 90 3c 60
        E 300 80 3c 00
        <X 90 0
          /wV5b3Vy
        >
        E 0 90 3c 60
        E 150 80 3c 00
        <X 150 0
          /wVzeW0t
        >
        E 0 90 3c 60
        E 390 80 3c 00
        <X 120 0
          /wVwYS0=
        >
        E 0 90 3a 60
        E 120 80 3a 00
        <X 120 0
          /wV0aHk=
        >
        E 0 90 3a 60
        E 360 80 3a 00
        <X 360 0
          /wFbaWRsZV0=
        >
        <X 1440 0
          /wFbcGxheV0=
        >
        E 0 80 69 00
        E 0 90 69 60
        <X 240 0
          /wVTYXk=
        >
        E 0 90 3c 60
        E 300 80 3c 00
        <X 90 0
          /wV5b3UncmU=
        >
        E 0 90 3c 60
        E 150 80 3c 00
        <X 180 0
          /wVob2xkLQ==
        >
        E 0 90 3c 60
        E 330 80 3c 00
        <X 150 0
          /wVpbmc=
        >
        E 0 90 3d 60
        E 120 80 3d 00
        <X 120 0
          /wVpbiM=
        >
        E 0 90 3d 60
        E 360 80 3d 00
        <X 840 0
          /wFbaWRsZV0=
        >
        E 0 90 01 60
        E 120 80 01 00
        <X 840 0
          /wFbcGxheV0=
        >
        <X 240 0
          /wV3aGF0
        >
        E 0 90 3c 60
        E 300 80 3c 00
        <X 90 0
          /wV5b3Vy
        >
        E 0 90 3c 60
        E 150 80 3c 00
        <X 150 0
          /wVkZS0=
        >
        E 0 90 3c 60
        E 180 80 3c 00
        <X 90 0
          /wUr
        >
        E 0 90 3a 60
        E 120 80 3a 00
        <X 120 0
          /wVtb24=
        >
        E 0 90 3a 60
        E 120 80 3a 00
        <X 120 0
          /wVkaWQ=
        >
        E 0 90 3a 60
        E 360 80 3a 00
        <X 360 0
          /wFbaWRsZV0=
        >
        E 0 80 69 00
        E 2280 90 69 60
        <X 120 0
          /wFbcGxheV0=
        >
        <X 0 0
          /wVBaA==
        >
        E 0 90 48 60
        E 1800 80 48 00
        <X 120 0
          /wUr
        >
        E 0 90 43 60
        E 1800 80 43 00
        <X 120 0
          /wUr
        >
        E 0 90 46 60
        E 1800 80 46 00
        <X 120 0
          /wUr
        >
        E 0 90 43 60
        E 750 80 43 00
        E 210 80 69 00
        E 840 90 69 60
        <X 120 0
          /wVBaA==
        >
        E 0 90 48 60
        E 1800 80 48 00
        <X 120 0
          /wUr
        >
        E 0 90 43 60
        E 2610 80 43 00
        E 270 80 69 00
        <X 240 0
          /wFbaWRsZV0=
        >
        E 6480 b0 7b 00
        GUID {1E0219CF-6580-4745-B6F5-AEE810CC05B3}
        IGNTEMPO 0 120.00000000 4 4
        SRCCOLOR 10
        VELLANE 132 128 60
        COLORMAP "C:\Program Files\REAPER (x64)\Data\color_maps\rockband_guitarbass.png"
        CFGEDITVIEW -18721.282280 3.743333 0 12 0 0 0
        CFGEDIT 1 1 0 1 1 0 1 1 1 1 1 0.12500000 53 44 1253 718 0 2 1 1 0.00000000 0 1 1 0 0.500000 0 0 1.000000 64
        KEYSNAP 0 7 "102030050700" 0 "Pentatonic"
        EVTFILTER 0 -1 -1 -1 -1 0 1 0 0 -1.00000000 -1.00000000
      >
    >
  >
  <TRACK '{77A5AECE-5E04-44B2-8742-1B6E123F87D7}'
    NAME "HARM1"
    PEAKCOL 16576
    BEAT -1
    AUTOMODE 0
    VOLPAN 1.00000000000000 0.00000000000000 -1.00000000000000 -1.00000000000000 1.00000000000000
    MUTESOLO 0 0 0
    IPHASE 0
    ISBUS 0 0
    BUSCOMP 0 0
    SHOWINMIX 1 0.666700 0.500000 1 0.500000 -1 -1 -1
    FREEMODE 0
    SEL 0
    REC 0 0 0 0 0 0 0
    VU 2
    TRACKHEIGHT 0 0
    INQ 0 0 0 0.5000000000 100 0 0 100
    NCHAN 2
    FX 0
    TRACKID {77A5AECE-5E04-44B2-8742-1B6E123F87D7}
    PERF 0
    MIDIOUT -1
    <MIDINOTENAMES
      0 116 "OVERDRIVE"
      0 115 "----"
      0 105 "Phrase Marker"
      0 104 "----"
      0 84 "C6 (Unused Highest Note)"
      0 83 "B5"
      0 82 "A#4"
      0 81 "A4"
      0 80 "G#4"
      0 79 "G4"
      0 78 "F#4"
      0 77 "F4"
      0 76 "E4"
      0 75 "D#4"
      0 74 "D4"
      0 73 "C#4"
      0 72 "C4"
      0 71 "B3"
      0 70 "A#3"
      0 69 "A3"
      0 68 "G#3"
      0 67 "G3"
      0 66 "F#3"
      0 65 "F3"
      0 64 "E3"
      0 63 "D#3"
      0 62 "D3"
      0 61 "C#3"
      0 60 "C3"
      0 59 "B2"
      0 58 "A#2"
      0 57 "A2"
      0 56 "G#2"
      0 55 "G2"
      0 54 "F#2"
      0 53 "F2"
      0 52 "E2"
      0 51 "D#2"
      0 50 "D2"
      0 49 "C#2"
      0 48 "C2"
      0 47 "B1"
      0 46 "A#1"
      0 45 "A1"
      0 44 "G#1"
      0 43 "G1"
      0 42 "F#1"
      0 41 "F1"
      0 40 "E1"
      0 39 "D#1"
      0 38 "D1"
      0 37 "C#1"
      0 36 "Lowest Note C1"
      0 2 "---"
      0 1 "Lyric Shift"
      0 0 "Range Shift"
    >
    MAINSEND 1 0
    <FXCHAIN
      WNDRECT 0 43 655 467
      SHOW 0
      LASTSEL 1
      DOCKED 0
      BYPASS 0 0
      <JS "MIDI/midi_note_filter" ""
        36.000000 84.000000 - - - - - - - - - - - - - - - - - - - - - - - - - - - - - - - - - - - - - - - - - - - - - - - - - - - - - - - - - - - - - - 
      >
      FLOATPOS 0 0 0 0
      FXID {316A25B9-A302-4B4F-B8C4-7594603233F7}
      WAK 0
      BYPASS 0 0
      <VST "VSTi: ReaSynth (Cockos)" "reasynth.dll" 0 ""
        eXNlcu9e7f4AAAAAAgAAAAEAAAAAAAAAAgAAAAAAAAA4AAAAAAAAAA==
        AAAQAO++rd4N8K3eppvEOxe30ToAAIA/AAAAAAAAAADMm4A+6WeIPQ==
        AAAAAAAAAD8AAIA/AACAPwAAAD8AABAAAAA=
      >
      FLOATPOS 0 0 0 0
      FXID {1E3C711E-FED0-4671-BBFC-5303CD7D9B71}
      WAK 0
    >
    <ITEM
      POSITION 0.00000000000000
      SNAPOFFS 0.00000000000000
      LENGTH 300.00000000000000
      LOOP 0
      ALLTAKES 0
      SEL 0
      FADEIN 1 0.000000 0.000000 1 0
      FADEOUT 1 0.000000 0.000000 1 0
      MUTE 0
      IGUID {333D668A-0D63-4A78-AFD2-AB7105F0FC5C}
      IID 11
      NAME "HARM1"
      VOLPAN 1.000000 0.000000 1.000000 -1.000000
      SOFFS 0.00000000000000 0.00000000000000
      PLAYRATE 1.00000000000000 1 0.00000000000000 -1
      CHANMODE 0
      GUID {58062F33-50ED-4378-B760-AF28473B6865}
      <SOURCE MIDI
        HASDATA 1 480 QN
        POOLEDEVTS {6075EA59-B696-4B44-819F-AD377AA9FB34}
        <X 0 0
          /wNIQVJNMQ==
        >
        E 29760 90 69 60
        <X 240 0
          /wVUYWtl
        >
        E 0 90 3c 60
        E 300 80 3c 00
        <X 90 0
          /wV5b3Vy
        >
        E 0 90 3c 60
        E 210 80 3c 00
        <X 120 0
          /wVoYW5kcw==
        >
        E 0 90 3c 60
        E 360 80 3c 00
        <X 120 0
          /wVmcm9t
        >
        E 0 90 3a 60
        E 120 80 3a 00
        <X 120 0
          /wVtZQ==
        >
        E 0 90 3a 60
        E 360 80 3a 00
        E 840 90 01 60
        E 120 80 01 00
        <X 1080 0
          /wVhbmQ=
        >
        E 0 90 3c 60
        E 300 80 3c 00
        <X 90 0
          /wV5b3Vy
        >
        E 0 90 3c 60
        E 150 80 3c 00
        <X 150 0
          /wVzeW0t
        >
        E 0 90 3c 60
        E 390 80 3c 00
        <X 120 0
          /wVwYS0=
        >
        E 0 90 3a 60
        E 120 80 3a 00
        <X 120 0
          /wV0aHk=
        >
        E 0 90 3a 60
        E 360 80 3a 00
        E 840 80 69 00
        E 960 90 69 60
        E 0 90 74 60
        <X 240 0
          /wVTYXk=
        >
        E 0 90 3c 60
        E 300 80 3c 00
        <X 90 0
          /wV5b3UncmU=
        >
        E 0 90 3c 60
        E 150 80 3c 00
        <X 180 0
          /wVob2xkLQ==
        >
        E 0 90 3c 60
        E 150 80 3c 00
        <X 90 0
          /wUr
        >
        E 0 90 3a 60
        E 120 80 3a 00
        <X 120 0
          /wVpbmc=
        >
        E 0 90 3a 60
        E 120 80 3a 00
        <X 120 0
          /wVpbg==
        >
        E 0 90 3a 60
        E 360 80 3a 00
        E 840 90 01 60
        E 120 80 01 00
        <X 1080 0
          /wV3aGF0
        >
        E 0 90 3a 60
        E 300 80 3a 00
        <X 90 0
          /wV5b3Vy
        >
        E 0 90 3a 60
        E 150 80 3a 00
        <X 150 0
          /wVkZS0=
        >
        E 0 90 3a 60
        E 180 80 3a 00
        <X 90 0
          /wUr
        >
        E 0 90 38 60
        E 120 80 38 00
        <X 120 0
          /wVtb24=
        >
        E 0 90 38 60
        E 120 80 38 00
        <X 120 0
          /wVkaWQ=
        >
        E 0 90 38 60
        E 360 80 38 00
        E 840 80 69 00
        E 0 80 74 00
        E 960 90 69 60
        <X 240 0
          /wVUYWtl
        >
        E 0 90 3c 60
        E 300 80 3c 00
        <X 90 0
          /wV5b3Vy
        >
        E 0 90 3c 60
        E 210 80 3c 00
        <X 120 0
          /wVraXNz
        >
        E 0 90 3c 60
        E 360 80 3c 00
        <X 120 0
          /wVmcm9t
        >
        E 0 90 3a 60
        E 120 80 3a 00
        <X 120 0
          /wVtZQ==
        >
        E 0 90 3a 60
        E 360 80 3a 00
        E 840 90 01 60
        E 120 80 01 00
        <X 1080 0
          /wVhbmQ=
        >
        E 0 90 3c 60
        E 300 80 3c 00
        <X 90 0
          /wV5b3Vy
        >
        E 0 90 3c 60
        E 150 80 3c 00
        <X 150 0
          /wVzeW0t
        >
        E 0 90 3c 60
        E 390 80 3c 00
        <X 120 0
          /wVwYS0=
        >
        E 0 90 3a 60
        E 120 80 3a 00
        <X 120 0
          /wV0aHk=
        >
        E 0 90 3a 60
        E 360 80 3a 00
        E 840 80 69 00
        E 960 90 69 60
        <X 240 0
          /wVTYXk=
        >
        E 0 90 3c 60
        E 300 80 3c 00
        <X 90 0
          /wV5b3UncmU=
        >
        E 0 90 3c 60
        E 150 80 3c 00
        <X 180 0
          /wVob2xkLQ==
        >
        E 0 90 3c 60
        E 330 80 3c 00
        <X 150 0
          /wVpbmc=
        >
        E 0 90 3a 60
        E 120 80 3a 00
        <X 120 0
          /wVpbg==
        >
        E 0 90 3a 60
        E 360 80 3a 00
        E 840 90 01 60
        E 120 80 01 00
        <X 1080 0
          /wV3aGF0
        >
        E 0 90 3a 60
        E 300 80 3a 00
        <X 90 0
          /wV5b3Vy
        >
        E 0 90 3a 60
        E 150 80 3a 00
        <X 150 0
          /wVkZS0=
        >
        E 0 90 3a 60
        E 180 80 3a 00
        <X 90 0
          /wUr
        >
        E 0 90 38 60
        E 120 80 38 00
        <X 120 0
          /wVtb24=
        >
        E 0 90 38 60
        E 120 80 38 00
        <X 120 0
          /wVkaWQ=
        >
        E 0 90 38 60
        E 360 80 38 00
        E 840 80 69 00
        E 1920 90 69 60
        E 0 90 74 60
        <X 240 0
          /wVZb3U=
        >
        E 0 90 3c 60
        E 150 80 3c 00
        <X 90 0
          /wVjYW1l
        >
        E 0 90 3c 60
        E 180 80 3c 00
        <X 60 0
          /wVhLQ==
        >
        E 0 90 3c 60
        E 60 80 3c 00
        <X 60 0
          /wVsb25n
        >
        E 0 90 3c 60
        E 270 80 3c 00
        <X 90 0
          /wV5b3U=
        >
        E 0 90 3c 60
        E 150 80 3c 00
        <X 90 0
          /wVodXIt
        >
        E 0 90 3c 60
        E 180 80 3c 00
        <X 60 0
          /wVyaWVk
        >
        E 0 90 3c 60
        E 60 80 3c 00
        <X 60 0
          /wV1cA==
        >
        E 0 90 3c 60
        E 120 90 01 60
        E 60 80 3c 00
        E 60 80 01 00
        <X 120 0
          /wV5b3U=
        >
        E 0 90 3c 60
        E 150 80 3c 00
        <X 90 0
          /wVtYWRl
        >
        E 0 90 3c 60
        E 180 80 3c 00
        <X 60 0
          /wVh
        >
        E 0 90 3c 60
        E 60 80 3c 00
        <X 60 0
          /wVjYWxs
        >
        E 0 90 3c 60
        E 270 80 3c 00
        <X 90 0
          /wV5b3U=
        >
        E 0 90 3c 60
        E 180 80 3c 00
        <X 60 0
          /wVtYWRl
        >
        E 0 90 3c 60
        E 180 80 3c 00
        <X 60 0
          /wVpdA==
        >
        E 0 90 3c 60
        E 60 80 3c 00
        <X 60 0
          /wVhbGw=
        >
        E 0 90 3c 60
        E 480 80 3c 00
        E 3480 80 69 00
        E 0 80 74 00
        E 0 90 69 60
        <X 240 0
          /wVZb3U=
        >
        E 0 90 3c 60
        E 150 80 3c 00
        <X 90 0
          /wVkcmVhbQ==
        >
        E 0 90 3c 60
        E 180 80 3c 00
        <X 60 0
          /wVh
        >
        E 0 90 3c 60
        E 60 80 3c 00
        <X 60 0
          /wVsb3Q=
        >
        E 0 90 3c 60
        E 150 80 3c 00
        <X 210 0
          /wV5b3U=
        >
        E 0 90 3c 60
        E 150 80 3c 00
        <X 90 0
          /wVtZWFu
        >
        E 0 90 3c 60
        E 180 80 3c 00
        <X 60 0
          /wVh
        >
        E 0 90 3c 60
        E 60 80 3c 00
        <X 60 0
          /wVsb3Q=
        >
        E 0 90 3c 60
        E 120 90 01 60
        E 60 80 3c 00
        E 60 80 01 00
        <X 120 0
          /wV5b3U=
        >
        E 0 90 3c 60
        E 150 80 3c 00
        <X 90 0
          /wVzZXQ=
        >
        E 0 90 3c 60
        E 180 80 3c 00
        <X 60 0
          /wVtZQ==
        >
        E 0 90 3c 60
        E 60 80 3c 00
        <X 60 0
          /wV1cA==
        >
        E 0 90 3c 60
        E 270 80 3c 00
        <X 90 0
          /wV5b3U=
        >
        E 0 90 3c 60
        E 180 80 3c 00
        <X 60 0
          /wVzZXQ=
        >
        E 0 90 3c 60
        E 180 80 3c 00
        <X 60 0
          /wVtZQ==
        >
        E 0 90 3c 60
        E 60 80 3c 00
        <X 60 0
          /wVvZmY=
        >
        E 0 90 3c 60
        E 420 80 3c 00
        E 3540 80 69 00
        E 0 90 69 60
        <X 240 0
          /wVJdCdz
        >
        E 0 90 3c 60
        E 150 80 3c 00
        <X 90 0
          /wVub3Q=
        >
        E 0 90 3c 60
        E 180 80 3c 00
        <X 60 0
          /wVh
        >
        E 0 90 3c 60
        E 60 80 3c 00
        <X 60 0
          /wViaWc=
        >
        E 0 90 3c 60
        E 270 80 3c 00
        <X 90 0
          /wVkZWFs
        >
        E 0 90 3c 60
        E 120 90 01 60
        E 30 80 3c 00
        <X 90 0
          /wVtYWst
        >
        E 0 80 01 00
        E 0 90 3c 60
        E 180 80 3c 00
        <X 60 0
          /wVpbmc=
        >
        E 0 90 3c 60
        E 60 80 3c 00
        <X 60 0
          /wVtZQ==
        >
        E 0 90 3c 60
        E 180 80 3c 00
        <X 180 0
          /wVmZWVs
        >
        E 0 90 3c 60
        E 150 80 3c 00
        <X 90 0
          /wVsaWtl
        >
        E 0 90 3c 60
        E 180 80 3c 00
        <X 60 0
          /wVh
        >
        E 0 90 3c 60
        E 60 80 3c 00
        <X 60 0
          /wVtb29uLQ==
        >
        E 0 90 3c 60
        E 270 80 3c 00
        <X 90 0
          /wVtYW4=
        >
        E 0 90 3c 60
        E 180 80 3c 00
        <X 60 0
          /wVvbg==
        >
        E 0 90 3c 60
        E 180 80 3c 00
        <X 60 0
          /wV0aGU=
        >
        E 0 90 3c 60
        E 60 80 3c 00
        <X 60 0
          /wVzdW4=
        >
        E 0 90 3c 60
        E 480 80 3c 00
        E 3480 80 69 00
        E 0 90 69 60
        <X 240 0
          /wVJdCdz
        >
        E 0 90 3c 60
        E 150 80 3c 00
        <X 90 0
          /wVqdXN0
        >
        E 0 90 3c 60
        E 180 80 3c 00
        <X 60 0
          /wVh
        >
        E 0 90 3c 60
        E 60 80 3c 00
        <X 60 0
          /wVoby0=
        >
        E 0 90 3c 60
        E 270 80 3c 00
        <X 90 0
          /wVseQ==
        >
        E 0 90 3c 60
        E 150 80 3c 00
        <X 90 0
          /wVjbHVzLQ==
        >
        E 0 90 3c 60
        E 180 80 3c 00
        <X 60 0
          /wV0ZXIt
        >
        E 0 90 3c 60
        E 60 80 3c 00
        <X 60 0
          /wVmdWNr
        >
        E 0 90 3c 60
        E 120 90 01 60
        E 60 80 3c 00
        E 60 80 01 00
        <X 120 0
          /wV5b3U=
        >
        E 0 90 3c 60
        E 150 80 3c 00
        <X 90 0
          /wVsb3Zl
        >
        E 0 90 3c 60
        E 180 80 3c 00
        <X 60 0
          /wVh
        >
        E 0 90 3c 60
        E 60 80 3c 00
        <X 60 0
          /wVsb3Q=
        >
        E 0 90 3c 60
        E 210 80 3c 00
        <X 150 0
          /wV5b3U=
        >
        E 0 90 3c 60
        E 180 80 3c 00
        <X 60 0
          /wVsb3Zl
        >
        E 0 90 3c 60
        E 180 80 3c 00
        <X 60 0
          /wVh
        >
        E 0 90 3c 60
        E 60 80 3c 00
        <X 60 0
          /wVsb3Q=
        >
        E 0 90 3c 60
        E 330 80 3c 00
        E 2670 80 69 00
        E 0 90 69 60
        E 0 90 74 60
        <X 240 0
          /wVUYWtl
        >
        E 0 90 3c 60
        E 300 80 3c 00
        <X 90 0
          /wV5b3Vy
        >
        E 0 90 3c 60
        E 210 80 3c 00
        <X 120 0
          /wVoYW5kcw==
        >
        E 0 90 3c 60
        E 360 80 3c 00
        <X 120 0
          /wVmcm9t
        >
        E 0 90 3a 60
        E 120 80 3a 00
        <X 120 0
          /wVtZQ==
        >
        E 0 90 3a 60
        E 360 80 3a 00
        E 840 90 01 60
        E 120 80 01 00
        <X 1080 0
          /wVhbmQ=
        >
        E 0 90 3c 60
        E 300 80 3c 00
        <X 90 0
          /wV5b3Vy
        >
        E 0 90 3c 60
        E 150 80 3c 00
        <X 150 0
          /wVzeW0t
        >
        E 0 90 3c 60
        E 390 80 3c 00
        <X 120 0
          /wVwYS0=
        >
        E 0 90 3a 60
        E 120 80 3a 00
        <X 120 0
          /wV0aHk=
        >
        E 0 90 3a 60
        E 360 80 3a 00
        E 840 80 69 00
        E 0 80 74 00
        E 960 90 69 60
        <X 240 0
          /wVTYXk=
        >
        E 0 90 3c 60
        E 300 80 3c 00
        <X 90 0
          /wV5b3UncmU=
        >
        E 0 90 3c 60
        E 150 80 3c 00
        <X 180 0
          /wVob2xkLQ==
        >
        E 0 90 3c 60
        E 150 80 3c 00
        <X 90 0
          /wUr
        >
        E 0 90 3a 60
        E 120 80 3a 00
        <X 120 0
          /wVpbmc=
        >
        E 0 90 3a 60
        E 120 80 3a 00
        <X 120 0
          /wVpbg==
        >
        E 0 90 3a 60
        E 360 80 3a 00
        E 840 90 01 60
        E 120 80 01 00
        <X 1080 0
          /wV3aGF0
        >
        E 0 90 3a 60
        E 300 80 3a 00
        <X 90 0
          /wV5b3Vy
        >
        E 0 90 3a 60
        E 150 80 3a 00
        <X 150 0
          /wVkZS0=
        >
        E 0 90 3a 60
        E 180 80 3a 00
        <X 90 0
          /wUr
        >
        E 0 90 38 60
        E 120 80 38 00
        <X 120 0
          /wVtb24=
        >
        E 0 90 38 60
        E 120 80 38 00
        <X 120 0
          /wVkaWQ=
        >
        E 0 90 38 60
        E 360 80 38 00
        E 840 80 69 00
        E 960 90 69 60
        E 0 90 74 60
        <X 240 0
          /wVUYWtl
        >
        E 0 90 3c 60
        E 300 80 3c 00
        <X 90 0
          /wV5b3Vy
        >
        E 0 90 3c 60
        E 210 80 3c 00
        <X 120 0
          /wVraXNz
        >
        E 0 90 3c 60
        E 360 80 3c 00
        <X 120 0
          /wVmcm9t
        >
        E 0 90 3a 60
        E 120 80 3a 00
        <X 120 0
          /wVtZQ==
        >
        E 0 90 3a 60
        E 360 80 3a 00
        E 840 90 01 60
        E 120 80 01 00
        <X 1080 0
          /wVhbmQ=
        >
        E 0 90 3c 60
        E 300 80 3c 00
        <X 90 0
          /wV5b3Vy
        >
        E 0 90 3c 60
        E 150 80 3c 00
        <X 150 0
          /wVzeW0t
        >
        E 0 90 3c 60
        E 390 80 3c 00
        <X 120 0
          /wVwYS0=
        >
        E 0 90 3a 60
        E 120 80 3a 00
        <X 120 0
          /wV0aHk=
        >
        E 0 90 3a 60
        E 360 80 3a 00
        E 840 80 69 00
        E 0 80 74 00
        E 960 90 69 60
        <X 240 0
          /wVTYXk=
        >
        E 0 90 3c 60
        E 300 80 3c 00
        <X 90 0
          /wV5b3UncmU=
        >
        E 0 90 3c 60
        E 150 80 3c 00
        <X 180 0
          /wVob2xkLQ==
        >
        E 0 90 3c 60
        E 330 80 3c 00
        <X 150 0
          /wVpbmc=
        >
        E 0 90 3a 60
        E 120 80 3a 00
        <X 120 0
          /wVpbg==
        >
        E 0 90 3a 60
        E 360 80 3a 00
        E 840 90 01 60
        E 120 80 01 00
        <X 1080 0
          /wV3aGF0
        >
        E 0 90 3a 60
        E 300 80 3a 00
        <X 90 0
          /wV5b3Vy
        >
        E 0 90 3a 60
        E 150 80 3a 00
        <X 150 0
          /wVkZS0=
        >
        E 0 90 3a 60
        E 180 80 3a 00
        <X 90 0
          /wUr
        >
        E 0 90 38 60
        E 120 80 38 00
        <X 120 0
          /wVtb24=
        >
        E 0 90 38 60
        E 120 80 38 00
        <X 120 0
          /wVkaWQ=
        >
        E 0 90 38 60
        E 360 80 38 00
        E 2760 80 69 00
        E 0 90 69 60
        <X 240 0
          /wVZb3U=
        >
        E 0 90 3c 60
        E 150 80 3c 00
        <X 90 0
          /wVwdXNoZWQ=
        >
        E 0 90 3c 60
        E 180 80 3c 00
        <X 60 0
          /wVhLQ==
        >
        E 0 90 3c 60
        E 60 80 3c 00
        <X 60 0
          /wVyb3VuZA==
        >
        E 0 90 3c 60
        E 270 80 3c 00
        <X 90 0
          /wV5b3U=
        >
        E 0 90 3c 60
        E 150 80 3c 00
        <X 90 0
          /wVkcmF3
        >
        E 0 90 3c 60
        E 180 80 3c 00
        <X 60 0
          /wVpdA==
        >
        E 0 90 3c 60
        E 60 80 3c 00
        <X 60 0
          /wViYWNr
        >
        E 0 90 3c 60
        E 120 90 01 60
        E 60 80 3c 00
        E 60 80 01 00
        <X 120 0
          /wV5b3U=
        >
        E 0 90 3c 60
        E 150 80 3c 00
        <X 90 0
          /wVsZXQ=
        >
        E 0 90 3c 60
        E 180 80 3c 00
        <X 180 0
          /wVnbw==
        >
        E 0 90 3c 60
        E 270 80 3c 00
        <X 90 0
          /wV5b3U=
        >
        E 0 90 3c 60
        E 180 80 3c 00
        <X 60 0
          /wVsZXQ=
        >
        E 0 90 3c 60
        E 180 80 3c 00
        <X 60 0
          /wVtZQ==
        >
        E 0 90 3c 60
        E 60 80 3c 00
        <X 60 0
          /wVrbm93
        >
        E 0 90 3c 60
        E 480 80 3c 00
        E 3480 80 69 00
        E 0 90 69 60
        <X 240 0
          /wVZb3U=
        >
        E 0 90 3c 60
        E 150 80 3c 00
        <X 90 0
          /wVoaWRl
        >
        E 0 90 3c 60
        E 180 80 3c 00
        <X 60 0
          /wViZS0=
        >
        E 0 90 3c 60
        E 60 80 3c 00
        <X 60 0
          /wVoaW5k
        >
        E 0 90 3c 60
        E 150 80 3c 00
        <X 210 0
          /wV5b3U=
        >
        E 0 90 3c 60
        E 150 80 3c 00
        <X 90 0
          /wVyaWRl
        >
        E 0 90 3c 60
        E 180 80 3c 00
        <X 60 0
          /wV0aGU=
        >
        E 0 90 3c 60
        E 60 80 3c 00
        <X 60 0
          /wVoaWdo
        >
        E 0 90 3c 60
        E 120 90 01 60
        E 60 80 3c 00
        E 60 80 01 00
        <X 120 0
          /wV5b3U=
        >
        E 0 90 3c 60
        E 150 80 3c 00
        <X 90 0
          /wVob2xk
        >
        E 0 90 3c 60
        E 180 80 3c 00
        <X 60 0
          /wVtZQ==
        >
        E 0 90 3c 60
        E 60 80 3c 00
        <X 60 0
          /wV1cA==
        >
        E 0 90 3c 60
        E 270 80 3c 00
        <X 90 0
          /wV5b3U=
        >
        E 0 90 3c 60
        E 180 80 3c 00
        <X 60 0
          /wVob2xk
        >
        E 0 90 3c 60
        E 180 80 3c 00
        <X 60 0
          /wVtZQ==
        >
        E 0 90 3c 60
        E 60 80 3c 00
        <X 60 0
          /wVvZmY=
        >
        E 0 90 3c 60
        E 420 80 3c 00
        E 3540 80 69 00
        E 0 90 69 60
        <X 240 0
          /wVJdCdz
        >
        E 0 90 3c 60
        E 150 80 3c 00
        <X 90 0
          /wVub3Q=
        >
        E 0 90 3c 60
        E 180 80 3c 00
        <X 60 0
          /wVh
        >
        E 0 90 3c 60
        E 60 80 3c 00
        <X 60 0
          /wViaWc=
        >
        E 0 90 3c 60
        E 270 80 3c 00
        <X 90 0
          /wVkZWFs
        >
        E 0 90 3c 60
        E 120 90 01 60
        E 30 80 3c 00
        <X 90 0
          /wVtYWst
        >
        E 0 80 01 00
        E 0 90 3c 60
        E 180 80 3c 00
        <X 60 0
          /wVpbmc=
        >
        E 0 90 3c 60
        E 60 80 3c 00
        <X 60 0
          /wVtZQ==
        >
        E 0 90 3c 60
        E 180 80 3c 00
        <X 180 0
          /wVmZWVs
        >
        E 0 90 3c 60
        E 150 80 3c 00
        <X 90 0
          /wVsaWtl
        >
        E 0 90 3c 60
        E 180 80 3c 00
        <X 60 0
          /wVh
        >
        E 0 90 3c 60
        E 60 80 3c 00
        <X 60 0
          /wVzdW4t
        >
        E 0 90 3c 60
        E 270 80 3c 00
        <X 90 0
          /wViaXJk
        >
        E 0 90 3c 60
        E 180 80 3c 00
        <X 60 0
          /wVvbg==
        >
        E 0 90 3c 60
        E 180 80 3c 00
        <X 60 0
          /wV0aGU=
        >
        E 0 90 3c 60
        E 60 80 3c 00
        <X 60 0
          /wVtb29u
        >
        E 0 90 3c 60
        E 240 80 3c 00
        E 3720 80 69 00
        E 0 90 69 60
        E 0 90 74 60
        <X 240 0
          /wVJdCdz
        >
        E 0 90 3c 60
        E 150 80 3c 00
        <X 90 0
          /wVqdXN0
        >
        E 0 90 3c 60
        E 180 80 3c 00
        <X 60 0
          /wVh
        >
        E 0 90 3c 60
        E 60 80 3c 00
        <X 60 0
          /wVoby0=
        >
        E 0 90 3c 60
        E 270 80 3c 00
        <X 90 0
          /wVseQ==
        >
        E 0 90 3c 60
        E 150 80 3c 00
        <X 90 0
          /wVjbHVzLQ==
        >
        E 0 90 3c 60
        E 180 80 3c 00
        <X 60 0
          /wV0ZXIt
        >
        E 0 90 3c 60
        E 60 80 3c 00
        <X 60 0
          /wVmdWNr
        >
        E 0 90 3c 60
        E 120 90 01 60
        E 60 80 3c 00
        E 60 80 01 00
        <X 120 0
          /wV5b3U=
        >
        E 0 90 3c 60
        E 150 80 3c 00
        <X 90 0
          /wVkbw==
        >
        E 0 90 3c 60
        E 180 80 3c 00
        <X 60 0
          /wVh
        >
        E 0 90 3c 60
        E 60 80 3c 00
        <X 60 0
          /wVsb3Q=
        >
        E 0 90 3c 60
        E 210 80 3c 00
        <X 150 0
          /wV5b3U=
        >
        E 0 90 3c 60
        E 180 80 3c 00
        <X 60 0
          /wVkbw==
        >
        E 0 90 3c 60
        E 180 80 3c 00
        <X 60 0
          /wVh
        >
        E 0 90 3c 60
        E 60 80 3c 00
        <X 60 0
          /wVsb3Q=
        >
        E 0 90 3c 60
        E 330 80 3c 00
        E 2670 80 69 00
        E 0 80 74 00
        E 0 90 69 60
        <X 240 0
          /wVUYWtl
        >
        E 0 90 3c 60
        E 300 80 3c 00
        <X 90 0
          /wV5b3Vy
        >
        E 0 90 3c 60
        E 210 80 3c 00
        <X 120 0
          /wVoYW5kcw==
        >
        E 0 90 3c 60
        E 360 80 3c 00
        <X 120 0
          /wVmcm9t
        >
        E 0 90 3a 60
        E 120 80 3a 00
        <X 120 0
          /wVtZQ==
        >
        E 0 90 3a 60
        E 360 80 3a 00
        E 840 90 01 60
        E 120 80 01 00
        <X 1080 0
          /wVhbmQ=
        >
        E 0 90 3c 60
        E 300 80 3c 00
        <X 90 0
          /wV5b3Vy
        >
        E 0 90 3c 60
        E 150 80 3c 00
        <X 150 0
          /wVzeW0t
        >
        E 0 90 3c 60
        E 390 80 3c 00
        <X 120 0
          /wVwYS0=
        >
        E 0 90 3a 60
        E 120 80 3a 00
        <X 120 0
          /wV0aHk=
        >
        E 0 90 3a 60
        E 360 80 3a 00
        E 840 80 69 00
        E 960 90 69 60
        <X 240 0
          /wVTYXk=
        >
        E 0 90 3c 60
        E 300 80 3c 00
        <X 90 0
          /wV5b3UncmU=
        >
        E 0 90 3c 60
        E 150 80 3c 00
        <X 180 0
          /wVob2xkLQ==
        >
        E 0 90 3c 60
        E 150 80 3c 00
        <X 90 0
          /wUr
        >
        E 0 90 3a 60
        E 120 80 3a 00
        <X 120 0
          /wVpbmc=
        >
        E 0 90 3a 60
        E 120 80 3a 00
        <X 120 0
          /wVpbg==
        >
        E 0 90 3a 60
        E 360 80 3a 00
        E 840 90 01 60
        E 120 80 01 00
        <X 1080 0
          /wV3aGF0
        >
        E 0 90 3a 60
        E 300 80 3a 00
        <X 90 0
          /wV5b3Vy
        >
        E 0 90 3a 60
        E 150 80 3a 00
        <X 150 0
          /wVkZS0=
        >
        E 0 90 3a 60
        E 180 80 3a 00
        <X 90 0
          /wUr
        >
        E 0 90 38 60
        E 120 80 38 00
        <X 120 0
          /wVtb24=
        >
        E 0 90 38 60
        E 120 80 38 00
        <X 120 0
          /wVkaWQ=
        >
        E 0 90 38 60
        E 360 80 38 00
        E 840 80 69 00
        E 960 90 69 60
        <X 240 0
          /wVUYWtl
        >
        E 0 90 3c 60
        E 300 80 3c 00
        <X 90 0
          /wV5b3Vy
        >
        E 0 90 3c 60
        E 210 80 3c 00
        <X 120 0
          /wVraXNz
        >
        E 0 90 3c 60
        E 360 80 3c 00
        <X 120 0
          /wVmcm9t
        >
        E 0 90 3a 60
        E 120 80 3a 00
        <X 120 0
          /wVtZQ==
        >
        E 0 90 3a 60
        E 360 80 3a 00
        E 840 90 01 60
        E 120 80 01 00
        <X 1080 0
          /wVhbmQ=
        >
        E 0 90 3c 60
        E 300 80 3c 00
        <X 90 0
          /wV5b3Vy
        >
        E 0 90 3c 60
        E 150 80 3c 00
        <X 150 0
          /wVzeW0t
        >
        E 0 90 3c 60
        E 390 80 3c 00
        <X 120 0
          /wVwYS0=
        >
        E 0 90 3a 60
        E 120 80 3a 00
        <X 120 0
          /wV0aHk=
        >
        E 0 90 3a 60
        E 360 80 3a 00
        E 840 80 69 00
        E 960 90 69 60
        E 0 90 74 60
        <X 240 0
          /wVTYXk=
        >
        E 0 90 3c 60
        E 300 80 3c 00
        <X 90 0
          /wV5b3UncmU=
        >
        E 0 90 3c 60
        E 150 80 3c 00
        <X 180 0
          /wVob2xkLQ==
        >
        E 0 90 3c 60
        E 330 80 3c 00
        <X 150 0
          /wVpbmc=
        >
        E 0 90 3d 60
        E 120 80 3d 00
        <X 120 0
          /wVpbiM=
        >
        E 0 90 3d 60
        E 360 80 3d 00
        E 840 90 01 60
        E 120 80 01 00
        <X 1080 0
          /wV3aGF0
        >
        E 0 90 3c 60
        E 300 80 3c 00
        <X 90 0
          /wV5b3Vy
        >
        E 0 90 3c 60
        E 150 80 3c 00
        <X 150 0
          /wVkZS0=
        >
        E 0 90 3c 60
        E 180 80 3c 00
        <X 90 0
          /wUr
        >
        E 0 90 3a 60
        E 120 80 3a 00
        <X 120 0
          /wVtb24=
        >
        E 0 90 3a 60
        E 120 80 3a 00
        <X 120 0
          /wVkaWQ=
        >
        E 0 90 3a 60
        E 360 80 3a 00
        E 2760 80 69 00
        E 0 80 74 00
        E 960 90 69 60
        E 6720 80 69 00
        E 960 90 69 60
        E 0 90 74 60
        E 6720 80 69 00
        E 0 80 74 00
        E 960 90 69 60
        E 6720 80 69 00
        E 15240 90 69 60
        E 0 90 74 60
        E 6840 80 69 00
        E 0 80 74 00
        E 840 90 69 60
        E 6840 80 69 00
        E 0 90 69 60
        <X 240 0
          /wVUYWtl
        >
        E 0 90 3c 60
        E 300 80 3c 00
        <X 90 0
          /wV5b3Vy
        >
        E 0 90 3c 60
        E 210 80 3c 00
        <X 120 0
          /wVoYW5kcw==
        >
        E 0 90 3c 60
        E 360 80 3c 00
        <X 120 0
          /wVmcm9t
        >
        E 0 90 3a 60
        E 120 80 3a 00
        <X 120 0
          /wVtZQ==
        >
        E 0 90 3a 60
        E 360 80 3a 00
        E 840 90 01 60
        E 120 80 01 00
        <X 1080 0
          /wVhbmQ=
        >
        E 0 90 3c 60
        E 300 80 3c 00
        <X 90 0
          /wV5b3Vy
        >
        E 0 90 3c 60
        E 150 80 3c 00
        <X 150 0
          /wVzeW0t
        >
        E 0 90 3c 60
        E 390 80 3c 00
        <X 120 0
          /wVwYS0=
        >
        E 0 90 3a 60
        E 120 80 3a 00
        <X 120 0
          /wV0aHk=
        >
        E 0 90 3a 60
        E 360 80 3a 00
        E 1800 80 69 00
        E 0 90 69 60
        E 0 90 74 60
        <X 240 0
          /wVTYXk=
        >
        E 0 90 3c 60
        E 300 80 3c 00
        <X 90 0
          /wV5b3UncmU=
        >
        E 0 90 3c 60
        E 150 80 3c 00
        <X 180 0
          /wVob2xkLQ==
        >
        E 0 90 3c 60
        E 150 80 3c 00
        <X 90 0
          /wUr
        >
        E 0 90 3a 60
        E 120 80 3a 00
        <X 120 0
          /wVpbmc=
        >
        E 0 90 3a 60
        E 120 80 3a 00
        <X 120 0
          /wVpbg==
        >
        E 0 90 3a 60
        E 360 80 3a 00
        E 840 90 01 60
        E 120 80 01 00
        <X 1080 0
          /wV3aGF0
        >
        E 0 90 3a 60
        E 300 80 3a 00
        <X 90 0
          /wV5b3Vy
        >
        E 0 90 3a 60
        E 150 80 3a 00
        <X 150 0
          /wVkZS0=
        >
        E 0 90 3a 60
        E 180 80 3a 00
        <X 90 0
          /wUr
        >
        E 0 90 38 60
        E 120 80 38 00
        <X 120 0
          /wVtb24=
        >
        E 0 90 38 60
        E 120 80 38 00
        <X 120 0
          /wVkaWQ=
        >
        E 0 90 38 60
        E 360 80 38 00
        E 1800 80 69 00
        E 0 80 74 00
        E 0 90 69 60
        <X 240 0
          /wVUYWtl
        >
        E 0 90 3c 60
        E 300 80 3c 00
        <X 90 0
          /wV5b3Vy
        >
        E 0 90 3c 60
        E 210 80 3c 00
        <X 120 0
          /wVraXNz
        >
        E 0 90 3c 60
        E 360 80 3c 00
        <X 120 0
          /wVmcm9t
        >
        E 0 90 3a 60
        E 120 80 3a 00
        <X 120 0
          /wVtZQ==
        >
        E 0 90 3a 60
        E 360 80 3a 00
        E 840 90 01 60
        E 120 80 01 00
        <X 1080 0
          /wVhbmQ=
        >
        E 0 90 3c 60
        E 300 80 3c 00
        <X 90 0
          /wV5b3Vy
        >
        E 0 90 3c 60
        E 150 80 3c 00
        <X 150 0
          /wVzeW0t
        >
        E 0 90 3c 60
        E 390 80 3c 00
        <X 120 0
          /wVwYS0=
        >
        E 0 90 3a 60
        E 120 80 3a 00
        <X 120 0
          /wV0aHk=
        >
        E 0 90 3a 60
        E 360 80 3a 00
        E 1800 80 69 00
        E 0 90 69 60
        <X 240 0
          /wVTYXk=
        >
        E 0 90 3c 60
        E 300 80 3c 00
        <X 90 0
          /wV5b3UncmU=
        >
        E 0 90 3c 60
        E 150 80 3c 00
        <X 180 0
          /wVob2xkLQ==
        >
        E 0 90 3c 60
        E 330 80 3c 00
        <X 150 0
          /wVpbmc=
        >
        E 0 90 3d 60
        E 120 80 3d 00
        <X 120 0
          /wVpbiM=
        >
        E 0 90 3d 60
        E 360 80 3d 00
        E 840 90 01 60
        E 120 80 01 00
        <X 1080 0
          /wV3aGF0
        >
        E 0 90 3c 60
        E 300 80 3c 00
        <X 90 0
          /wV5b3Vy
        >
        E 0 90 3c 60
        E 150 80 3c 00
        <X 150 0
          /wVkZS0=
        >
        E 0 90 3c 60
        E 180 80 3c 00
        <X 90 0
          /wUr
        >
        E 0 90 3a 60
        E 120 80 3a 00
        <X 120 0
          /wVtb24=
        >
        E 0 90 3a 60
        E 120 80 3a 00
        <X 120 0
          /wVkaWQ=
        >
        E 0 90 3a 60
        E 360 80 3a 00
        E 1800 80 69 00
        E 840 90 69 60
        E 6840 80 69 00
        E 840 90 69 60
        E 4919 80 69 00
        E 6721 b0 7b 00
        GUID {D3E4D8F2-57D9-4D50-A426-AF47E4120153}
        IGNTEMPO 0 120.00000000 4 4
        SRCCOLOR 11
        VELLANE 132 128 60
        COLORMAP "C:\Program Files\REAPER (x64)\Data\color_maps\rockband_guitarbass.png"
        CFGEDITVIEW -18721.282280 3.743333 0 12 0 0 0
        CFGEDIT 1 1 0 1 1 0 1 1 1 1 1 0.12500000 53 44 1253 718 0 2 1 1 0.00000000 0 1 1 0 0.500000 0 0 1.000000 64
        KEYSNAP 0 7 "102030050700" 0 "Pentatonic"
        EVTFILTER 0 -1 -1 -1 -1 0 1 0 0 -1.00000000 -1.00000000
      >
    >
  >
  <TRACK '{C1C178E8-5D0E-4246-B109-1E52B20B0189}'
    NAME "HARM2"
    PEAKCOL 16576
    BEAT -1
    AUTOMODE 0
    VOLPAN 1.00000000000000 0.00000000000000 -1.00000000000000 -1.00000000000000 1.00000000000000
    MUTESOLO 0 0 0
    IPHASE 0
    ISBUS 0 0
    BUSCOMP 0 0
    SHOWINMIX 1 0.666700 0.500000 1 0.500000 -1 -1 -1
    FREEMODE 0
    SEL 0
    REC 0 0 0 0 0 0 0
    VU 2
    TRACKHEIGHT 0 0
    INQ 0 0 0 0.5000000000 100 0 0 100
    NCHAN 2
    FX 0
    TRACKID {C1C178E8-5D0E-4246-B109-1E52B20B0189}
    PERF 0
    MIDIOUT -1
    <MIDINOTENAMES
      0 105 "Phrase Marker"
      0 104 "----"
      0 84 "C6 (Unused Highest Note)"
      0 83 "B5"
      0 82 "A#4"
      0 81 "A4"
      0 80 "G#4"
      0 79 "G4"
      0 78 "F#4"
      0 77 "F4"
      0 76 "E4"
      0 75 "D#4"
      0 74 "D4"
      0 73 "C#4"
      0 72 "C4"
      0 71 "B3"
      0 70 "A#3"
      0 69 "A3"
      0 68 "G#3"
      0 67 "G3"
      0 66 "F#3"
      0 65 "F3"
      0 64 "E3"
      0 63 "D#3"
      0 62 "D3"
      0 61 "C#3"
      0 60 "C3"
      0 59 "B2"
      0 58 "A#2"
      0 57 "A2"
      0 56 "G#2"
      0 55 "G2"
      0 54 "F#2"
      0 53 "F2"
      0 52 "E2"
      0 51 "D#2"
      0 50 "D2"
      0 49 "C#2"
      0 48 "C2"
      0 47 "B1"
      0 46 "A#1"
      0 45 "A1"
      0 44 "G#1"
      0 43 "G1"
      0 42 "F#1"
      0 41 "F1"
      0 40 "E1"
      0 39 "D#1"
      0 38 "D1"
      0 37 "C#1"
      0 36 "Lowest Note C1"
    >
    MAINSEND 1 0
    <FXCHAIN
      WNDRECT 0 43 655 467
      SHOW 0
      LASTSEL 1
      DOCKED 0
      BYPASS 0 0
      <JS "MIDI/midi_note_filter" ""
        36.000000 84.000000 - - - - - - - - - - - - - - - - - - - - - - - - - - - - - - - - - - - - - - - - - - - - - - - - - - - - - - - - - - - - - - 
      >
      FLOATPOS 0 0 0 0
      FXID {AD94EE26-094F-418C-B739-EB8DE0C78EE3}
      WAK 0
      BYPASS 0 0
      <VST "VSTi: ReaSynth (Cockos)" "reasynth.dll" 0 ""
        eXNlcu9e7f4AAAAAAgAAAAEAAAAAAAAAAgAAAAAAAAA4AAAAAAAAAA==
        AAAQAO++rd4N8K3eppvEOxe30ToAAIA/AAAAAAAAAADMm4A+6WeIPQ==
        AAAAAAAAAD8AAIA/AACAPwAAAD8AABAAAAA=
      >
      FLOATPOS 0 0 0 0
      FXID {3EC04D5F-83CC-4994-A9F0-4FCABC562040}
      WAK 0
    >
    <ITEM
      POSITION 0.00000000000000
      SNAPOFFS 0.00000000000000
      LENGTH 300.00000000000000
      LOOP 0
      ALLTAKES 0
      SEL 0
      FADEIN 1 0.000000 0.000000 1 0
      FADEOUT 1 0.000000 0.000000 1 0
      MUTE 0
      IGUID {D41F0089-E446-4054-B581-52EA805B2CA9}
      IID 12
      NAME "HARM2"
      VOLPAN 1.000000 0.000000 1.000000 -1.000000
      SOFFS 0.00000000000000 0.00000000000000
      PLAYRATE 1.00000000000000 1 0.00000000000000 -1
      CHANMODE 0
      GUID {93FDC570-60C6-431E-A480-83A4FCB79DD0}
      <SOURCE MIDI
        HASDATA 1 480 QN
        POOLEDEVTS {F34D58C9-BD2B-47CC-8E18-8A9B1332348B}
        <X 0 0
          /wNIQVJNMg==
        >
        E 66240 90 69 60
        <X 240 0
          /wVVaA==
        >
        E 0 90 41 60
        E 180 80 41 00
        <X 60 0
          /wUr
        >
        E 0 90 44 60
        E 450 80 44 00
        <X 1230 0
          /wV1aA==
        >
        E 0 90 41 60
        E 180 80 41 00
        <X 60 0
          /wUr
        >
        E 0 90 44 60
        E 450 80 44 00
        E 30 80 69 00
        E 4800 90 69 60
        <X 240 0
          /wVVaA==
        >
        E 0 90 41 60
        E 180 80 41 00
        <X 60 0
          /wUr
        >
        E 0 90 44 60
        E 450 80 44 00
        <X 1230 0
          /wV1aA==
        >
        E 0 90 41 60
        E 180 80 41 00
        <X 60 0
          /wUr
        >
        E 0 90 44 60
        E 450 80 44 00
        E 30 80 69 00
        E 4800 90 69 60
        <X 240 0
          /wVBaA==
        >
        E 0 90 41 60
        E 180 80 41 00
        <X 60 0
          /wUr
        >
        E 0 90 44 60
        E 450 80 44 00
        <X 1230 0
          /wVhaA==
        >
        E 0 90 41 60
        E 180 80 41 00
        <X 60 0
          /wUr
        >
        E 0 90 44 60
        E 450 80 44 00
        E 30 80 69 00
        E 4800 90 69 60
        <X 240 0
          /wVBaA==
        >
        E 0 90 41 60
        E 180 80 41 00
        <X 60 0
          /wUr
        >
        E 0 90 44 60
        E 450 80 44 00
        <X 1230 0
          /wVhaA==
        >
        E 0 90 41 60
        E 180 80 41 00
        <X 60 0
          /wUr
        >
        E 0 90 44 60
        E 450 80 44 00
        E 30 80 69 00
        E 960 90 69 60
        <X 240 0
          /wVBaA==
        >
        E 0 90 41 60
        E 180 80 41 00
        <X 60 0
          /wUr
        >
        E 0 90 44 60
        E 450 80 44 00
        <X 1230 0
          /wVhaA==
        >
        E 0 90 41 60
        E 180 80 41 00
        <X 60 0
          /wUr
        >
        E 0 90 44 60
        E 450 80 44 00
        E 30 80 69 00
        E 960 90 69 60
        <X 240 0
          /wVBaA==
        >
        E 0 90 41 60
        E 180 80 41 00
        <X 60 0
          /wUr
        >
        E 0 90 44 60
        E 450 80 44 00
        <X 1230 0
          /wVhaA==
        >
        E 0 90 41 60
        E 180 80 41 00
        <X 60 0
          /wUr
        >
        E 0 90 44 60
        E 450 80 44 00
        E 30 80 69 00
        E 960 90 69 60
        <X 240 0
          /wVBaA==
        >
        E 0 90 41 60
        E 180 80 41 00
        <X 60 0
          /wUr
        >
        E 0 90 44 60
        E 450 80 44 00
        <X 1230 0
          /wVhaA==
        >
        E 0 90 41 60
        E 180 80 41 00
        <X 60 0
          /wUr
        >
        E 0 90 44 60
        E 450 80 44 00
        E 30 80 69 00
        E 960 90 69 60
        <X 240 0
          /wVBaA==
        >
        E 0 90 41 60
        E 180 80 41 00
        <X 60 0
          /wUr
        >
        E 0 90 44 60
        E 450 80 44 00
        <X 1230 0
          /wVhaA==
        >
        E 0 90 41 60
        E 180 80 41 00
        <X 60 0
          /wUr
        >
        E 0 90 44 60
        E 450 80 44 00
        E 30 80 69 00
        E 960 90 69 60
        <X 240 0
          /wVBaA==
        >
        E 0 90 41 60
        E 180 80 41 00
        <X 60 0
          /wUr
        >
        E 0 90 44 60
        E 450 80 44 00
        <X 1230 0
          /wVhaA==
        >
        E 0 90 41 60
        E 180 80 41 00
        <X 60 0
          /wUr
        >
        E 0 90 44 60
        E 450 80 44 00
        E 30 80 69 00
        E 960 90 69 60
        <X 240 0
          /wVBaA==
        >
        E 0 90 41 60
        E 180 80 41 00
        <X 60 0
          /wUr
        >
        E 0 90 44 60
        E 450 80 44 00
        <X 1230 0
          /wVhaA==
        >
        E 0 90 41 60
        E 180 80 41 00
        <X 60 0
          /wUr
        >
        E 0 90 44 60
        E 450 80 44 00
        E 30 80 69 00
        E 960 90 69 60
        <X 240 0
          /wVBaA==
        >
        E 0 90 41 60
        E 180 80 41 00
        <X 60 0
          /wUr
        >
        E 0 90 44 60
        E 450 80 44 00
        <X 1230 0
          /wVhaA==
        >
        E 0 90 41 60
        E 180 80 41 00
        <X 60 0
          /wUr
        >
        E 0 90 44 60
        E 450 80 44 00
        E 30 80 69 00
        E 960 90 69 60
        <X 240 0
          /wVBaA==
        >
        E 0 90 41 60
        E 180 80 41 00
        <X 60 0
          /wUr
        >
        E 0 90 44 60
        E 450 80 44 00
        <X 1230 0
          /wVhaA==
        >
        E 0 90 41 60
        E 180 80 41 00
        <X 60 0
          /wUr
        >
        E 0 90 44 60
        E 450 80 44 00
        E 30 80 69 00
        E 4800 90 69 60
        <X 240 0
          /wVVaA==
        >
        E 0 90 41 60
        E 180 80 41 00
        <X 60 0
          /wUr
        >
        E 0 90 44 60
        E 450 80 44 00
        <X 1230 0
          /wV1aA==
        >
        E 0 90 41 60
        E 180 80 41 00
        <X 60 0
          /wUr
        >
        E 0 90 44 60
        E 450 80 44 00
        E 30 80 69 00
        E 4800 90 69 60
        <X 240 0
          /wVVaA==
        >
        E 0 90 41 60
        E 180 80 41 00
        <X 60 0
          /wUr
        >
        E 0 90 44 60
        E 450 80 44 00
        <X 1230 0
          /wV1aA==
        >
        E 0 90 41 60
        E 180 80 41 00
        <X 60 0
          /wUr
        >
        E 0 90 44 60
        E 450 80 44 00
        E 30 80 69 00
        E 4800 90 69 60
        <X 240 0
          /wVBaA==
        >
        E 0 90 41 60
        E 180 80 41 00
        <X 60 0
          /wUr
        >
        E 0 90 44 60
        E 450 80 44 00
        <X 1230 0
          /wVhaA==
        >
        E 0 90 41 60
        E 180 80 41 00
        <X 60 0
          /wUr
        >
        E 0 90 44 60
        E 450 80 44 00
        E 30 80 69 00
        E 4800 90 69 60
        <X 240 0
          /wVBaA==
        >
        E 0 90 41 60
        E 180 80 41 00
        <X 60 0
          /wUr
        >
        E 0 90 44 60
        E 450 80 44 00
        <X 1230 0
          /wVhaA==
        >
        E 0 90 41 60
        E 180 80 41 00
        <X 60 0
          /wUr
        >
        E 0 90 44 60
        E 450 80 44 00
        E 30 80 69 00
        E 960 90 69 60
        <X 240 0
          /wVBaA==
        >
        E 0 90 41 60
        E 180 80 41 00
        <X 60 0
          /wUr
        >
        E 0 90 44 60
        E 450 80 44 00
        <X 1230 0
          /wVhaA==
        >
        E 0 90 41 60
        E 180 80 41 00
        <X 60 0
          /wUr
        >
        E 0 90 44 60
        E 450 80 44 00
        E 30 80 69 00
        E 960 90 69 60
        <X 240 0
          /wVBaA==
        >
        E 0 90 41 60
        E 180 80 41 00
        <X 60 0
          /wUr
        >
        E 0 90 44 60
        E 450 80 44 00
        <X 1230 0
          /wVhaA==
        >
        E 0 90 41 60
        E 180 80 41 00
        <X 60 0
          /wUr
        >
        E 0 90 44 60
        E 450 80 44 00
        E 30 80 69 00
        E 960 90 69 60
        <X 240 0
          /wVBaA==
        >
        E 0 90 41 60
        E 180 80 41 00
        <X 60 0
          /wUr
        >
        E 0 90 44 60
        E 450 80 44 00
        <X 1230 0
          /wVhaA==
        >
        E 0 90 41 60
        E 180 80 41 00
        <X 60 0
          /wUr
        >
        E 0 90 44 60
        E 450 80 44 00
        E 30 80 69 00
        E 960 90 69 60
        <X 240 0
          /wVBaA==
        >
        E 0 90 41 60
        E 180 80 41 00
        <X 60 0
          /wUr
        >
        E 0 90 44 60
        E 450 80 44 00
        <X 1230 0
          /wVhaA==
        >
        E 0 90 41 60
        E 180 80 41 00
        <X 60 0
          /wUr
        >
        E 0 90 44 60
        E 450 80 44 00
        E 30 80 69 00
        E 960 90 69 60
        <X 240 0
          /wVBaA==
        >
        E 0 90 41 60
        E 180 80 41 00
        <X 60 0
          /wUr
        >
        E 0 90 44 60
        E 450 80 44 00
        <X 1230 0
          /wVhaA==
        >
        E 0 90 41 60
        E 180 80 41 00
        <X 60 0
          /wUr
        >
        E 0 90 44 60
        E 450 80 44 00
        E 30 80 69 00
        E 960 90 69 60
        <X 240 0
          /wVBaA==
        >
        E 0 90 41 60
        E 180 80 41 00
        <X 60 0
          /wUr
        >
        E 0 90 44 60
        E 450 80 44 00
        <X 1230 0
          /wVhaA==
        >
        E 0 90 41 60
        E 180 80 41 00
        <X 60 0
          /wUr
        >
        E 0 90 44 60
        E 450 80 44 00
        E 30 80 69 00
        E 960 90 69 60
        <X 240 0
          /wVBaA==
        >
        E 0 90 41 60
        E 180 80 41 00
        <X 60 0
          /wUr
        >
        E 0 90 44 60
        E 450 80 44 00
        <X 1230 0
          /wVhaA==
        >
        E 0 90 41 60
        E 180 80 41 00
        <X 60 0
          /wUr
        >
        E 0 90 44 60
        E 450 80 44 00
        E 30 80 69 00
        E 960 90 69 60
        <X 240 0
          /wVBaA==
        >
        E 0 90 41 60
        E 180 80 41 00
        <X 60 0
          /wUr
        >
        E 0 90 44 60
        E 450 80 44 00
        <X 1230 0
          /wVhaA==
        >
        E 0 90 41 60
        E 180 80 41 00
        <X 60 0
          /wUr
        >
        E 0 90 44 60
        E 450 80 44 00
        E 30 80 69 00
        E 960 90 69 60
        <X 240 0
          /wVBaA==
        >
        E 0 90 41 60
        E 180 80 41 00
        <X 60 0
          /wUr
        >
        E 0 90 44 60
        E 450 80 44 00
        <X 1230 0
          /wVhaA==
        >
        E 0 90 41 60
        E 180 80 41 00
        <X 60 0
          /wUr
        >
        E 0 90 44 60
        E 450 80 44 00
        E 30 80 69 00
        E 960 90 69 60
        <X 240 0
          /wVBaA==
        >
        E 0 90 41 60
        E 180 80 41 00
        <X 60 0
          /wUr
        >
        E 0 90 44 60
        E 450 80 44 00
        <X 1230 0
          /wVhaA==
        >
        E 0 90 41 60
        E 180 80 41 00
        <X 60 0
          /wUr
        >
        E 0 90 44 60
        E 450 80 44 00
        E 30 80 69 00
        E 960 90 69 60
        <X 240 0
          /wVBaA==
        >
        E 0 90 41 60
        E 180 80 41 00
        <X 60 0
          /wUr
        >
        E 0 90 44 60
        E 450 80 44 00
        <X 1230 0
          /wVhaA==
        >
        E 0 90 41 60
        E 180 80 41 00
        <X 60 0
          /wUr
        >
        E 0 90 44 60
        E 450 80 44 00
        E 30 80 69 00
        E 960 90 69 60
        <X 240 0
          /wVBaA==
        >
        E 0 90 41 60
        E 180 80 41 00
        <X 60 0
          /wUr
        >
        E 0 90 44 60
        E 450 80 44 00
        <X 1230 0
          /wVhaA==
        >
        E 0 90 41 60
        E 180 80 41 00
        <X 60 0
          /wUr
        >
        E 0 90 44 60
        E 450 80 44 00
        E 30 80 69 00
        E 960 90 69 60
        <X 240 0
          /wVBaA==
        >
        E 0 90 41 60
        E 180 80 41 00
        <X 60 0
          /wUr
        >
        E 0 90 44 60
        E 450 80 44 00
        <X 1230 0
          /wVhaA==
        >
        E 0 90 41 60
        E 180 80 41 00
        <X 60 0
          /wUr
        >
        E 0 90 44 60
        E 450 80 44 00
        E 30 80 69 00
        E 960 90 69 60
        <X 240 0
          /wVBaA==
        >
        E 0 90 41 60
        E 180 80 41 00
        <X 60 0
          /wUr
        >
        E 0 90 44 60
        E 450 80 44 00
        <X 1230 0
          /wVhaA==
        >
        E 0 90 41 60
        E 180 80 41 00
        <X 60 0
          /wUr
        >
        E 0 90 44 60
        E 450 80 44 00
        E 30 80 69 00
        E 15240 90 69 60
        <X 120 0
          /wVBaA==
        >
        E 0 90 48 60
        E 1800 80 48 00
        <X 120 0
          /wUr
        >
        E 0 90 43 60
        E 1800 80 43 00
        <X 120 0
          /wUr
        >
        E 0 90 46 60
        E 1800 80 46 00
        <X 120 0
          /wUr
        >
        E 0 90 43 60
        E 750 80 43 00
        E 210 80 69 00
        E 840 90 69 60
        <X 120 0
          /wVBaA==
        >
        E 0 90 48 60
        E 1800 80 48 00
        <X 120 0
          /wUr
        >
        E 0 90 43 60
        E 1800 80 43 00
        <X 120 0
          /wUr
        >
        E 0 90 46 60
        E 1800 80 46 00
        <X 120 0
          /wUr
        >
        E 0 90 43 60
        E 750 80 43 00
        E 210 80 69 00
        E 840 90 69 60
        <X 120 0
          /wVBaA==
        >
        E 0 90 48 60
        E 1800 80 48 00
        <X 120 0
          /wUr
        >
        E 0 90 43 60
        E 1800 80 43 00
        <X 120 0
          /wUr
        >
        E 0 90 46 60
        E 1800 80 46 00
        <X 120 0
          /wUr
        >
        E 0 90 43 60
        E 750 80 43 00
        E 210 80 69 00
        E 840 90 69 60
        <X 120 0
          /wVBaA==
        >
        E 0 90 48 60
        E 1800 80 48 00
        <X 120 0
          /wUr
        >
        E 0 90 43 60
        E 1800 80 43 00
        <X 120 0
          /wUr
        >
        E 0 90 46 60
        E 1800 80 46 00
        <X 120 0
          /wUr
        >
        E 0 90 43 60
        E 750 80 43 00
        E 210 80 69 00
        E 840 90 69 60
        <X 120 0
          /wVBaA==
        >
        E 0 90 48 60
        E 1800 80 48 00
        <X 120 0
          /wUr
        >
        E 0 90 43 60
        E 1800 80 43 00
        <X 120 0
          /wUr
        >
        E 0 90 46 60
        E 1800 80 46 00
        <X 120 0
          /wUr
        >
        E 0 80 69 00
        E 0 90 43 60
        E 750 80 43 00
        E 210 90 69 60
        <X 960 0
          /wVBaA==
        >
        E 0 90 48 60
        E 1800 80 48 00
        <X 120 0
          /wUr
        >
        E 0 90 43 60
        E 1800 80 43 00
        <X 120 0
          /wUr
        >
        E 0 90 46 60
        E 1800 80 46 00
        <X 120 0
          /wUr
        >
        E 0 90 43 60
        E 750 80 43 00
        E 210 80 69 00
        E 840 90 69 60
        <X 120 0
          /wVBaA==
        >
        E 0 90 48 60
        E 1800 80 48 00
        <X 120 0
          /wUr
        >
        E 0 90 43 60
        E 1800 80 43 00
        <X 120 0
          /wUr
        >
        E 0 90 46 60
        E 1800 80 46 00
        <X 120 0
          /wUr
        >
        E 0 90 43 60
        E 750 80 43 00
        E 210 80 69 00
        E 840 90 69 60
        <X 120 0
          /wVBaA==
        >
        E 0 90 48 60
        E 1800 80 48 00
        <X 120 0
          /wUr
        >
        E 0 90 43 60
        E 2610 80 43 00
        E 269 80 69 00
        E 6721 b0 7b 00
        GUID {03DF9FB7-C4DA-46C8-9FDE-905D36E6D9A9}
        IGNTEMPO 0 120.00000000 4 4
        SRCCOLOR 12
        VELLANE 132 128 60
        COLORMAP "C:\Program Files\REAPER (x64)\Data\color_maps\rockband_guitarbass.png"
        CFGEDITVIEW -18721.282280 3.743333 0 12 0 0 0
        CFGEDIT 1 1 0 1 1 0 1 1 1 1 1 0.12500000 53 44 1253 718 0 2 1 1 0.00000000 0 1 1 0 0.500000 0 0 1.000000 64
        KEYSNAP 0 7 "102030050700" 0 "Pentatonic"
        EVTFILTER 0 -1 -1 -1 -1 0 1 0 0 -1.00000000 -1.00000000
      >
    >
  >
  <TRACK '{D8BAC5DB-B32E-4A83-9321-162666596037}'
    NAME "HARM3"
    PEAKCOL 16576
    BEAT -1
    AUTOMODE 0
    VOLPAN 1.00000000000000 0.00000000000000 -1.00000000000000 -1.00000000000000 1.00000000000000
    MUTESOLO 0 0 0
    IPHASE 0
    ISBUS 2 -1
    BUSCOMP 0 0
    SHOWINMIX 1 0.666700 0.500000 1 0.500000 -1 -1 -1
    FREEMODE 0
    SEL 0
    REC 0 0 0 0 0 0 0
    VU 2
    TRACKHEIGHT 0 0
    INQ 0 0 0 0.5000000000 100 0 0 100
    NCHAN 2
    FX 0
    TRACKID {D8BAC5DB-B32E-4A83-9321-162666596037}
    PERF 0
    MIDIOUT -1
    <MIDINOTENAMES
      0 84 "C6 (Unused Highest Note)"
      0 83 "B5"
      0 82 "A#4"
      0 81 "A4"
      0 80 "G#4"
      0 79 "G4"
      0 78 "F#4"
      0 77 "F4"
      0 76 "E4"
      0 75 "D#4"
      0 74 "D4"
      0 73 "C#4"
      0 72 "C4"
      0 71 "B3"
      0 70 "A#3"
      0 69 "A3"
      0 68 "G#3"
      0 67 "G3"
      0 66 "F#3"
      0 65 "F3"
      0 64 "E3"
      0 63 "D#3"
      0 62 "D3"
      0 61 "C#3"
      0 60 "C3"
      0 59 "B2"
      0 58 "A#2"
      0 57 "A2"
      0 56 "G#2"
      0 55 "G2"
      0 54 "F#2"
      0 53 "F2"
      0 52 "E2"
      0 51 "D#2"
      0 50 "D2"
      0 49 "C#2"
      0 48 "C2"
      0 47 "B1"
      0 46 "A#1"
      0 45 "A1"
      0 44 "G#1"
      0 43 "G1"
      0 42 "F#1"
      0 41 "F1"
      0 40 "E1"
      0 39 "D#1"
      0 38 "D1"
      0 37 "C#1"
      0 36 "Lowest Note C1"
    >
    MAINSEND 1 0
    <FXCHAIN
      WNDRECT 0 43 655 467
      SHOW 0
      LASTSEL 1
      DOCKED 0
      BYPASS 0 0
      <JS "MIDI/midi_note_filter" ""
        36.000000 84.000000 - - - - - - - - - - - - - - - - - - - - - - - - - - - - - - - - - - - - - - - - - - - - - - - - - - - - - - - - - - - - - - 
      >
      FLOATPOS 0 0 0 0
      FXID {29A9F192-EC13-4774-958D-424C36A9BA76}
      WAK 0
      BYPASS 0 0
      <VST "VSTi: ReaSynth (Cockos)" "reasynth.dll" 0 ""
        eXNlcu9e7f4AAAAAAgAAAAEAAAAAAAAAAgAAAAAAAAA4AAAAAAAAAA==
        AAAQAO++rd4N8K3eppvEOxe30ToAAIA/AAAAAAAAAADMm4A+6WeIPQ==
        AAAAAAAAAD8AAIA/AACAPwAAAD8AABAAAAA=
      >
      FLOATPOS 0 0 0 0
      FXID {94F81FBA-2327-4899-8A04-050E2D585651}
      WAK 0
    >
    <ITEM
      POSITION 0.00000000000000
      SNAPOFFS 0.00000000000000
      LENGTH 300.00000000000000
      LOOP 0
      ALLTAKES 0
      SEL 0
      FADEIN 1 0.000000 0.000000 1 0
      FADEOUT 1 0.000000 0.000000 1 0
      MUTE 0
      IGUID {D8EB68BA-759B-453A-B71C-28D7F79E15F7}
      IID 13
      NAME "HARM3"
      VOLPAN 1.000000 0.000000 1.000000 -1.000000
      SOFFS 0.00000000000000 0.00000000000000
      PLAYRATE 1.00000000000000 1 0.00000000000000 -1
      CHANMODE 0
      GUID {1D4DA5FC-3344-4445-895E-5E5487E45BA5}
      <SOURCE MIDI
        HASDATA 1 480 QN
        POOLEDEVTS {A7CE5DD0-DCE4-4CD8-9EF1-FAD17891272B}
        <X 0 0
          /wNIQVJNMw==
        >
        <X 66480 0
          /wVVaA==
        >
        E 0 90 3c 60
        E 180 80 3c 00
        <X 60 0
          /wUr
        >
        E 0 90 3f 60
        E 450 80 3f 00
        <X 1230 0
          /wV1aA==
        >
        E 0 90 3c 60
        E 180 80 3c 00
        <X 60 0
          /wUr
        >
        E 0 90 3f 60
        E 450 80 3f 00
        <X 5070 0
          /wVVaA==
        >
        E 0 90 3c 60
        E 180 80 3c 00
        <X 60 0
          /wUr
        >
        E 0 90 3f 60
        E 450 80 3f 00
        <X 1230 0
          /wV1aA==
        >
        E 0 90 3c 60
        E 180 80 3c 00
        <X 60 0
          /wUr
        >
        E 0 90 3f 60
        E 450 80 3f 00
        <X 5070 0
          /wVBaA==
        >
        E 0 90 3c 60
        E 180 80 3c 00
        <X 60 0
          /wUr
        >
        E 0 90 3f 60
        E 450 80 3f 00
        <X 1230 0
          /wVhaA==
        >
        E 0 90 3c 60
        E 180 80 3c 00
        <X 60 0
          /wUr
        >
        E 0 90 3f 60
        E 450 80 3f 00
        <X 5070 0
          /wVBaA==
        >
        E 0 90 3c 60
        E 180 80 3c 00
        <X 60 0
          /wUr
        >
        E 0 90 3f 60
        E 450 80 3f 00
        <X 1230 0
          /wVhaA==
        >
        E 0 90 3c 60
        E 180 80 3c 00
        <X 60 0
          /wUr
        >
        E 0 90 3f 60
        E 450 80 3f 00
        <X 1230 0
          /wVBaA==
        >
        E 0 90 3c 60
        E 180 80 3c 00
        <X 60 0
          /wUr
        >
        E 0 90 3f 60
        E 450 80 3f 00
        <X 1230 0
          /wVhaA==
        >
        E 0 90 3c 60
        E 180 80 3c 00
        <X 60 0
          /wUr
        >
        E 0 90 3f 60
        E 450 80 3f 00
        <X 1230 0
          /wVBaA==
        >
        E 0 90 3c 60
        E 180 80 3c 00
        <X 60 0
          /wUr
        >
        E 0 90 3f 60
        E 450 80 3f 00
        <X 1230 0
          /wVhaA==
        >
        E 0 90 3c 60
        E 180 80 3c 00
        <X 60 0
          /wUr
        >
        E 0 90 3f 60
        E 450 80 3f 00
        <X 1230 0
          /wVBaA==
        >
        E 0 90 3c 60
        E 180 80 3c 00
        <X 60 0
          /wUr
        >
        E 0 90 3f 60
        E 450 80 3f 00
        <X 1230 0
          /wVhaA==
        >
        E 0 90 3c 60
        E 180 80 3c 00
        <X 60 0
          /wUr
        >
        E 0 90 3f 60
        E 450 80 3f 00
        <X 1230 0
          /wVBaA==
        >
        E 0 90 3c 60
        E 180 80 3c 00
        <X 60 0
          /wUr
        >
        E 0 90 3f 60
        E 450 80 3f 00
        <X 1230 0
          /wVhaA==
        >
        E 0 90 3c 60
        E 180 80 3c 00
        <X 60 0
          /wUr
        >
        E 0 90 3f 60
        E 450 80 3f 00
        <X 1230 0
          /wVBaA==
        >
        E 0 90 3c 60
        E 180 80 3c 00
        <X 60 0
          /wUr
        >
        E 0 90 3f 60
        E 450 80 3f 00
        <X 1230 0
          /wVhaA==
        >
        E 0 90 3c 60
        E 180 80 3c 00
        <X 60 0
          /wUr
        >
        E 0 90 3f 60
        E 450 80 3f 00
        <X 1230 0
          /wVBaA==
        >
        E 0 90 3c 60
        E 180 80 3c 00
        <X 60 0
          /wUr
        >
        E 0 90 3f 60
        E 450 80 3f 00
        <X 1230 0
          /wVhaA==
        >
        E 0 90 3c 60
        E 180 80 3c 00
        <X 60 0
          /wUr
        >
        E 0 90 3f 60
        E 450 80 3f 00
        <X 1230 0
          /wVBaA==
        >
        E 0 90 3c 60
        E 180 80 3c 00
        <X 60 0
          /wUr
        >
        E 0 90 3f 60
        E 450 80 3f 00
        <X 1230 0
          /wVhaA==
        >
        E 0 90 3c 60
        E 180 80 3c 00
        <X 60 0
          /wUr
        >
        E 0 90 3f 60
        E 450 80 3f 00
        <X 1230 0
          /wVBaA==
        >
        E 0 90 3c 60
        E 180 80 3c 00
        <X 60 0
          /wUr
        >
        E 0 90 3f 60
        E 450 80 3f 00
        <X 1230 0
          /wVhaA==
        >
        E 0 90 3c 60
        E 180 80 3c 00
        <X 60 0
          /wUr
        >
        E 0 90 3f 60
        E 450 80 3f 00
        <X 5070 0
          /wVVaA==
        >
        E 0 90 3c 60
        E 180 80 3c 00
        <X 60 0
          /wUr
        >
        E 0 90 3f 60
        E 450 80 3f 00
        <X 1230 0
          /wV1aA==
        >
        E 0 90 3c 60
        E 180 80 3c 00
        <X 60 0
          /wUr
        >
        E 0 90 3f 60
        E 450 80 3f 00
        <X 5070 0
          /wVVaA==
        >
        E 0 90 3c 60
        E 180 80 3c 00
        <X 60 0
          /wUr
        >
        E 0 90 3f 60
        E 450 80 3f 00
        <X 1230 0
          /wV1aA==
        >
        E 0 90 3c 60
        E 180 80 3c 00
        <X 60 0
          /wUr
        >
        E 0 90 3f 60
        E 450 80 3f 00
        <X 5070 0
          /wVBaA==
        >
        E 0 90 3c 60
        E 180 80 3c 00
        <X 60 0
          /wUr
        >
        E 0 90 3f 60
        E 450 80 3f 00
        <X 1230 0
          /wVhaA==
        >
        E 0 90 3c 60
        E 180 80 3c 00
        <X 60 0
          /wUr
        >
        E 0 90 3f 60
        E 450 80 3f 00
        <X 5070 0
          /wVBaA==
        >
        E 0 90 3c 60
        E 180 80 3c 00
        <X 60 0
          /wUr
        >
        E 0 90 3f 60
        E 450 80 3f 00
        <X 1230 0
          /wVhaA==
        >
        E 0 90 3c 60
        E 180 80 3c 00
        <X 60 0
          /wUr
        >
        E 0 90 3f 60
        E 450 80 3f 00
        <X 1230 0
          /wVBaA==
        >
        E 0 90 3c 60
        E 180 80 3c 00
        <X 60 0
          /wUr
        >
        E 0 90 3f 60
        E 450 80 3f 00
        <X 1230 0
          /wVhaA==
        >
        E 0 90 3c 60
        E 180 80 3c 00
        <X 60 0
          /wUr
        >
        E 0 90 3f 60
        E 450 80 3f 00
        <X 1230 0
          /wVBaA==
        >
        E 0 90 3c 60
        E 180 80 3c 00
        <X 60 0
          /wUr
        >
        E 0 90 3f 60
        E 450 80 3f 00
        <X 1230 0
          /wVhaA==
        >
        E 0 90 3c 60
        E 180 80 3c 00
        <X 60 0
          /wUr
        >
        E 0 90 3f 60
        E 450 80 3f 00
        <X 1230 0
          /wVBaA==
        >
        E 0 90 3c 60
        E 180 80 3c 00
        <X 60 0
          /wUr
        >
        E 0 90 3f 60
        E 450 80 3f 00
        <X 1230 0
          /wVhaA==
        >
        E 0 90 3c 60
        E 180 80 3c 00
        <X 60 0
          /wUr
        >
        E 0 90 3f 60
        E 450 80 3f 00
        <X 1230 0
          /wVBaA==
        >
        E 0 90 3c 60
        E 180 80 3c 00
        <X 60 0
          /wUr
        >
        E 0 90 3f 60
        E 450 80 3f 00
        <X 1230 0
          /wVhaA==
        >
        E 0 90 3c 60
        E 180 80 3c 00
        <X 60 0
          /wUr
        >
        E 0 90 3f 60
        E 450 80 3f 00
        <X 1230 0
          /wVBaA==
        >
        E 0 90 3c 60
        E 180 80 3c 00
        <X 60 0
          /wUr
        >
        E 0 90 3f 60
        E 450 80 3f 00
        <X 1230 0
          /wVhaA==
        >
        E 0 90 3c 60
        E 180 80 3c 00
        <X 60 0
          /wUr
        >
        E 0 90 3f 60
        E 450 80 3f 00
        <X 1230 0
          /wVBaA==
        >
        E 0 90 3c 60
        E 180 80 3c 00
        <X 60 0
          /wUr
        >
        E 0 90 3f 60
        E 450 80 3f 00
        <X 1230 0
          /wVhaA==
        >
        E 0 90 3c 60
        E 180 80 3c 00
        <X 60 0
          /wUr
        >
        E 0 90 3f 60
        E 450 80 3f 00
        <X 1230 0
          /wVBaA==
        >
        E 0 90 3c 60
        E 180 80 3c 00
        <X 60 0
          /wUr
        >
        E 0 90 3f 60
        E 450 80 3f 00
        <X 1230 0
          /wVhaA==
        >
        E 0 90 3c 60
        E 180 80 3c 00
        <X 60 0
          /wUr
        >
        E 0 90 3f 60
        E 450 80 3f 00
        <X 1230 0
          /wVBaA==
        >
        E 0 90 3c 60
        E 180 80 3c 00
        <X 60 0
          /wUr
        >
        E 0 90 3f 60
        E 450 80 3f 00
        <X 1230 0
          /wVhaA==
        >
        E 0 90 3c 60
        E 180 80 3c 00
        <X 60 0
          /wUr
        >
        E 0 90 3f 60
        E 450 80 3f 00
        <X 1230 0
          /wVBaA==
        >
        E 0 90 3c 60
        E 180 80 3c 00
        <X 60 0
          /wUr
        >
        E 0 90 3f 60
        E 450 80 3f 00
        <X 1230 0
          /wVhaA==
        >
        E 0 90 3c 60
        E 180 80 3c 00
        <X 60 0
          /wUr
        >
        E 0 90 3f 60
        E 450 80 3f 00
        <X 1230 0
          /wVBaA==
        >
        E 0 90 3c 60
        E 180 80 3c 00
        <X 60 0
          /wUr
        >
        E 0 90 3f 60
        E 450 80 3f 00
        <X 1230 0
          /wVhaA==
        >
        E 0 90 3c 60
        E 180 80 3c 00
        <X 60 0
          /wUr
        >
        E 0 90 3f 60
        E 450 80 3f 00
        <X 1230 0
          /wVBaA==
        >
        E 0 90 3c 60
        E 180 80 3c 00
        <X 60 0
          /wUr
        >
        E 0 90 3f 60
        E 450 80 3f 00
        <X 1230 0
          /wVhaA==
        >
        E 0 90 3c 60
        E 180 80 3c 00
        <X 60 0
          /wUr
        >
        E 0 90 3f 60
        E 450 80 3f 00
        <X 1230 0
          /wVBaA==
        >
        E 0 90 3c 60
        E 180 80 3c 00
        <X 60 0
          /wUr
        >
        E 0 90 3f 60
        E 450 80 3f 00
        <X 1230 0
          /wVhaA==
        >
        E 0 90 3c 60
        E 180 80 3c 00
        <X 60 0
          /wUr
        >
        E 0 90 3f 60
        E 450 80 3f 00
        <X 1230 0
          /wVBaA==
        >
        E 0 90 3c 60
        E 180 80 3c 00
        <X 60 0
          /wUr
        >
        E 0 90 3f 60
        E 450 80 3f 00
        <X 1230 0
          /wVhaA==
        >
        E 0 90 3c 60
        E 180 80 3c 00
        <X 60 0
          /wUr
        >
        E 0 90 3f 60
        E 450 80 3f 00
        <X 1230 0
          /wVBaA==
        >
        E 0 90 3c 60
        E 180 80 3c 00
        <X 60 0
          /wUr
        >
        E 0 90 3f 60
        E 450 80 3f 00
        <X 1230 0
          /wVhaA==
        >
        E 0 90 3c 60
        E 180 80 3c 00
        <X 60 0
          /wUr
        >
        E 0 90 3f 60
        E 450 80 3f 00
        <X 15390 0
          /wVBaA==
        >
        E 0 90 41 60
        E 1800 80 41 00
        <X 120 0
          /wUr
        >
        E 0 90 3c 60
        E 1800 80 3c 00
        <X 120 0
          /wUr
        >
        E 0 90 3f 60
        E 1800 80 3f 00
        <X 120 0
          /wUr
        >
        E 0 90 3c 60
        E 750 80 3c 00
        <X 1170 0
          /wVBaA==
        >
        E 0 90 41 60
        E 1800 80 41 00
        <X 120 0
          /wUr
        >
        E 0 90 3c 60
        E 1800 80 3c 00
        <X 120 0
          /wUr
        >
        E 0 90 3f 60
        E 1800 80 3f 00
        <X 120 0
          /wUr
        >
        E 0 90 3c 60
        E 750 80 3c 00
        <X 1170 0
          /wVBaA==
        >
        E 0 90 41 60
        E 1800 80 41 00
        <X 120 0
          /wUr
        >
        E 0 90 3c 60
        E 1800 80 3c 00
        <X 120 0
          /wUr
        >
        E 0 90 3f 60
        E 1800 80 3f 00
        <X 120 0
          /wUr
        >
        E 0 90 3c 60
        E 750 80 3c 00
        <X 1170 0
          /wVBaA==
        >
        E 0 90 41 60
        E 1800 80 41 00
        <X 120 0
          /wUr
        >
        E 0 90 3c 60
        E 1800 80 3c 00
        <X 120 0
          /wUr
        >
        E 0 90 3f 60
        E 1800 80 3f 00
        <X 120 0
          /wUr
        >
        E 0 90 3c 60
        E 750 80 3c 00
        <X 1170 0
          /wVBaA==
        >
        E 0 90 41 60
        E 1800 80 41 00
        <X 120 0
          /wUr
        >
        E 0 90 3c 60
        E 1800 80 3c 00
        <X 120 0
          /wUr
        >
        E 0 90 3f 60
        E 1800 80 3f 00
        <X 120 0
          /wUr
        >
        E 0 90 3c 60
        E 750 80 3c 00
        <X 1170 0
          /wVBaA==
        >
        E 0 90 41 60
        E 1800 80 41 00
        <X 120 0
          /wUr
        >
        E 0 90 3c 60
        E 1800 80 3c 00
        <X 120 0
          /wUr
        >
        E 0 90 3f 60
        E 1800 80 3f 00
        <X 120 0
          /wUr
        >
        E 0 90 3c 60
        E 750 80 3c 00
        <X 1170 0
          /wVBaA==
        >
        E 0 90 41 60
        E 1800 80 41 00
        <X 120 0
          /wUr
        >
        E 0 90 3c 60
        E 1800 80 3c 00
        <X 120 0
          /wUr
        >
        E 0 90 3f 60
        E 1800 80 3f 00
        <X 120 0
          /wUr
        >
        E 0 90 3c 60
        E 750 80 3c 00
        <X 1170 0
          /wVBaA==
        >
        E 0 90 41 60
        E 1800 80 41 00
        <X 120 0
          /wUr
        >
        E 0 90 3c 60
        E 2610 80 3c 00
        E 6990 b0 7b 00
        GUID {444378FF-6A1B-483F-9CB8-58C90C983D53}
        IGNTEMPO 0 120.00000000 4 4
        SRCCOLOR 13
        VELLANE 132 128 60
        COLORMAP "C:\Program Files\REAPER (x64)\Data\color_maps\rockband_guitarbass.png"
        CFGEDITVIEW -18721.282280 3.743333 0 12 0 0 0
        CFGEDIT 1 1 0 1 1 0 1 1 1 1 1 0.12500000 53 44 1253 718 0 2 1 1 0.00000000 0 1 1 0 0.500000 0 0 1.000000 64
        KEYSNAP 0 7 "102030050700" 0 "Pentatonic"
        EVTFILTER 0 -1 -1 -1 -1 0 1 0 0 -1.00000000 -1.00000000
      >
    >
  >
  <TRACK '{AF86FC89-140B-4772-B363-58D8FEE0DEA5}'
    NAME "PART KEYS"
    PEAKCOL 16576
    BEAT -1
    AUTOMODE 0
    VOLPAN 1.00000000000000 0.00000000000000 -1.00000000000000 -1.00000000000000 1.00000000000000
    MUTESOLO 0 0 0
    IPHASE 0
    ISBUS 1 1
    BUSCOMP 0 0
    SHOWINMIX 1 0.666700 0.500000 1 0.500000 -1 -1 -1
    FREEMODE 0
    SEL 0
    REC 0 0 0 0 0 0 0
    VU 2
    TRACKHEIGHT 0 0
    INQ 0 0 0 0.5000000000 100 0 0 100
    NCHAN 2
    FX 1
    TRACKID {AF86FC89-140B-4772-B363-58D8FEE0DEA5}
    PERF 0
    MIDIOUT -1
    <MIDINOTENAMES
      0 127 "TRILL MARKER"
      0 125 "---"
      0 124 "BRE"
      0 123 "BRE"
      0 122 "BRE"
      0 121 "BRE"
      0 120 "BRE (use all 5)"
      0 119 "----"
      0 116 "OVERDRIVE"
      0 115 "----"
      0 103 "Solo Marker"
      0 102 "Force HOPO Off"
      0 101 "Force HOPO On"
      0 100 "EXPERT Orange"
      0 99 "EXPERT Blue"
      0 98 "EXPERT Yellow"
      0 97 "EXPERT Red"
      0 96 "EXPERT Green"
      0 95 "----"
      0 90 "Force HOPO Off"
      0 89 "Force HOPO On"
      0 88 "HARD Orange"
      0 87 "HARD Blue"
      0 86 "HARD Yellow"
      0 85 "HARD Red"
      0 84 "HARD Green"
      0 77 "----"
      0 76 "MEDIUM Orange"
      0 75 "MEDIUM Blue"
      0 74 "MEDIUM Yellow"
      0 73 "MEDIUM Red"
      0 72 "MEDIUM Green"
      0 65 "----"
      0 64 "EASY Orange"
      0 63 "EASY Blue"
      0 62 "EASY Yellow"
      0 61 "EASY Red"
      0 60 "EASY Green"
    >
    MAINSEND 1 0
    <FXCHAIN
      WNDRECT 0 43 891 559
      SHOW 0
      LASTSEL 0
      DOCKED 0
      BYPASS 0 0
      <VST "VSTi: RBN Preview (RBN)" "rbprev_vst64.dll" 0 ""
        dnBicu5e7f4AAAAAAgAAAAEAAAAAAAAAAgAAAAAAAAAEAAAAAQAAAA==
        AAAQAAMAqgAAABAAAAA=
      >
      FLOATPOS 0 0 0 0
      FXID {41756170-5D4A-47DD-BF4E-2C65F10F865B}
      WAK 0
    >
    <ITEM
      POSITION 0.00000000000000
      SNAPOFFS 0.00000000000000
      LENGTH 300.00000000000000
      LOOP 0
      ALLTAKES 0
      SEL 0
      FADEIN 1 0.000000 0.000000 1 0
      FADEOUT 1 0.000000 0.000000 1 0
      MUTE 0
      IGUID {1D592692-D035-4F41-95A9-A17F93B68C1F}
      IID 3
      NAME "PART KEYS"
      VOLPAN 1.000000 0.000000 1.000000 -1.000000
      SOFFS 0.00000000000000 0.00000000000000
      PLAYRATE 1.00000000000000 1 0.00000000000000 -1
      CHANMODE 0
      GUID {DA7D9E68-7DC1-43CD-8F36-F104C7FE8345}
      <SOURCE MIDI
        HASDATA 1 480 QN
        POOLEDEVTS {15F6567D-46CC-4C3B-A9FA-542DC7092BB0}
        <X 0 0
          /wNQQVJUIEtFWVM=
        >
        <X 7680 0
          /wFbaWRsZV0=
        >
        <X 7680 0
          /wFbcGxheV0=
        >
        E 0 90 3c 60
        E 0 90 48 60
        E 0 90 55 60
        E 0 90 61 60
        E 0 90 74 60
        E 120 80 3c 00
        E 0 80 48 00
        E 0 80 55 00
        E 0 80 61 00
        E 0 90 63 60
        E 0 90 65 60
        E 120 80 63 00
        E 0 90 58 60
        E 0 90 59 60
        E 0 90 64 60
        E 120 80 58 00
        E 0 80 64 00
        E 0 90 61 60
        E 120 80 61 00
        E 0 90 4a 60
        E 0 90 57 60
        E 0 90 63 60
        E 120 80 4a 00
        E 0 80 57 00
        E 0 80 63 00
        E 0 90 64 60
        E 120 80 64 00
        E 0 90 55 60
        E 0 90 61 60
        E 120 80 55 00
        E 0 80 61 00
        E 0 90 63 60
        E 120 80 63 00
        E 0 90 3e 60
        E 0 90 4b 60
        E 0 90 58 60
        E 0 90 64 60
        E 120 80 3e 00
        E 0 80 4b 00
        E 0 80 58 00
        E 0 80 64 00
        E 0 90 61 60
        E 120 80 61 00
        E 0 90 57 60
        E 0 90 63 60
        E 120 80 57 00
        E 0 80 63 00
        E 0 90 64 60
        E 120 80 64 00
        E 0 90 48 60
        E 0 90 55 60
        E 0 90 61 60
        E 120 80 48 00
        E 0 80 55 00
        E 0 80 61 00
        E 0 90 63 60
        E 120 80 63 00
        E 0 90 58 60
        E 0 90 64 60
        E 120 80 58 00
        E 0 80 64 00
        E 0 90 63 60
        E 120 80 63 00
        E 0 90 3c 60
        E 0 90 48 60
        E 0 90 55 60
        E 0 90 61 60
        E 120 80 3c 00
        E 0 80 48 00
        E 0 80 55 00
        E 0 80 61 00
        E 0 90 63 60
        E 120 80 63 00
        E 0 90 58 60
        E 0 90 64 60
        E 120 80 58 00
        E 0 80 64 00
        E 0 90 61 60
        E 120 80 61 00
        E 0 90 4a 60
        E 0 90 57 60
        E 0 90 63 60
        E 120 80 4a 00
        E 0 80 57 00
        E 0 80 63 00
        E 0 90 64 60
        E 120 80 64 00
        E 0 90 55 60
        E 0 90 61 60
        E 120 80 55 00
        E 0 80 61 00
        E 0 90 63 60
        E 120 80 63 00
        E 0 90 3e 60
        E 0 90 4b 60
        E 0 90 58 60
        E 0 90 64 60
        E 120 80 3e 00
        E 0 80 4b 00
        E 0 80 58 00
        E 0 80 64 00
        E 0 90 61 60
        E 120 80 61 00
        E 0 90 57 60
        E 0 90 63 60
        E 120 80 57 00
        E 0 80 63 00
        E 0 90 64 60
        E 120 80 64 00
        E 0 90 48 60
        E 0 90 55 60
        E 0 90 61 60
        E 120 80 48 00
        E 0 80 55 00
        E 0 80 61 00
        E 0 90 63 60
        E 120 80 63 00
        E 0 90 58 60
        E 0 90 64 60
        E 120 80 58 00
        E 0 80 64 00
        E 0 90 63 60
        E 120 80 74 00
        E 0 80 63 00
        E 0 90 3c 60
        E 0 90 48 60
        E 0 90 55 60
        E 0 90 61 60
        E 120 80 3c 00
        E 0 80 48 00
        E 0 80 55 00
        E 0 80 61 00
        E 0 90 63 60
        E 120 80 63 00
        E 0 90 58 60
        E 0 90 64 60
        E 120 80 58 00
        E 0 80 64 00
        E 0 90 61 60
        E 120 80 61 00
        E 0 90 4a 60
        E 0 90 57 60
        E 0 90 63 60
        E 120 80 4a 00
        E 0 80 57 00
        E 0 80 63 00
        E 0 90 64 60
        E 120 80 64 00
        E 0 90 55 60
        E 0 90 61 60
        E 120 80 55 00
        E 0 80 61 00
        E 0 90 63 60
        E 120 80 63 00
        E 0 90 3e 60
        E 0 90 4b 60
        E 0 90 58 60
        E 0 90 64 60
        E 120 80 3e 00
        E 0 80 4b 00
        E 0 80 58 00
        E 0 80 64 00
        E 0 90 61 60
        E 120 80 61 00
        E 0 90 57 60
        E 0 90 63 60
        E 120 80 57 00
        E 0 80 63 00
        E 0 90 64 60
        E 120 80 64 00
        E 0 90 48 60
        E 0 90 55 60
        E 0 90 61 60
        E 120 80 48 00
        E 0 80 55 00
        E 0 80 61 00
        E 0 90 63 60
        E 120 80 63 00
        E 0 90 58 60
        E 0 90 64 60
        E 120 80 58 00
        E 0 80 64 00
        E 0 90 63 60
        E 120 80 63 00
        E 0 90 3c 60
        E 0 90 48 60
        E 0 90 55 60
        E 0 90 61 60
        E 120 80 3c 00
        E 0 80 48 00
        E 0 80 55 00
        E 0 80 61 00
        E 0 90 63 60
        E 120 80 63 00
        E 0 90 58 60
        E 0 90 64 60
        E 120 80 58 00
        E 0 80 64 00
        E 0 90 61 60
        E 120 80 61 00
        E 0 90 4a 60
        E 0 90 57 60
        E 0 90 63 60
        E 120 80 4a 00
        E 0 80 57 00
        E 0 80 63 00
        E 0 90 64 60
        E 120 80 64 00
        E 0 90 55 60
        E 0 90 61 60
        E 120 80 55 00
        E 0 80 61 00
        E 0 90 63 60
        E 120 80 63 00
        E 0 90 3e 60
        E 0 90 4b 60
        E 0 90 58 60
        E 0 90 64 60
        E 120 80 3e 00
        E 0 80 4b 00
        E 0 80 58 00
        E 0 80 64 00
        E 0 90 61 60
        E 120 80 61 00
        E 0 90 57 60
        E 0 90 63 60
        E 120 80 57 00
        E 0 80 63 00
        E 0 90 64 60
        E 120 80 64 00
        E 0 90 48 60
        E 0 90 55 60
        E 0 90 61 60
        E 120 80 48 00
        E 0 80 55 00
        E 0 80 61 00
        E 0 90 63 60
        E 120 80 63 00
        E 0 90 58 60
        E 0 90 64 60
        E 120 80 58 00
        E 0 80 64 00
        E 0 90 63 60
        E 120 80 63 00
        E 0 90 3c 60
        E 0 90 48 60
        E 0 90 55 60
        E 0 90 61 60
        E 120 80 3c 00
        E 0 80 48 00
        E 0 80 55 00
        E 0 80 61 00
        E 0 90 63 60
        E 120 80 63 00
        E 0 90 58 60
        E 0 90 64 60
        E 120 80 58 00
        E 0 80 64 00
        E 0 90 61 60
        E 120 80 61 00
        E 0 90 4a 60
        E 0 90 57 60
        E 0 90 63 60
        E 120 80 4a 00
        E 0 80 57 00
        E 0 80 63 00
        E 0 90 64 60
        E 120 80 64 00
        E 0 90 55 60
        E 0 90 61 60
        E 120 80 55 00
        E 0 80 61 00
        E 0 90 63 60
        E 120 80 63 00
        E 0 90 3e 60
        E 0 90 4b 60
        E 0 90 58 60
        E 0 90 64 60
        E 120 80 3e 00
        E 0 80 4b 00
        E 0 80 58 00
        E 0 80 64 00
        E 0 90 61 60
        E 120 80 61 00
        E 0 90 57 60
        E 0 90 63 60
        E 120 80 57 00
        E 0 80 63 00
        E 0 90 64 60
        E 120 80 64 00
        E 0 90 48 60
        E 0 90 55 60
        E 0 90 61 60
        E 120 80 48 00
        E 0 80 55 00
        E 0 80 61 00
        E 0 90 63 60
        E 120 80 63 00
        E 0 90 58 60
        E 0 90 64 60
        E 120 80 58 00
        E 0 80 64 00
        E 0 90 63 60
        E 120 80 63 00
        E 0 90 3c 60
        E 0 90 48 60
        E 0 90 55 60
        E 0 90 61 60
        E 120 80 3c 00
        E 0 80 48 00
        E 0 80 55 00
        E 0 80 61 00
        E 0 90 63 60
        E 120 80 63 00
        E 0 90 58 60
        E 0 90 64 60
        E 120 80 58 00
        E 0 80 64 00
        E 0 90 61 60
        E 120 80 61 00
        E 0 90 4a 60
        E 0 90 57 60
        E 0 90 63 60
        E 120 80 4a 00
        E 0 80 57 00
        E 0 80 63 00
        E 0 90 64 60
        E 120 80 64 00
        E 0 90 55 60
        E 0 90 61 60
        E 120 80 55 00
        E 0 80 61 00
        E 0 90 63 60
        E 120 80 63 00
        E 0 90 3e 60
        E 0 90 4b 60
        E 0 90 58 60
        E 0 90 64 60
        E 120 80 3e 00
        E 0 80 4b 00
        E 0 80 58 00
        E 0 80 64 00
        E 0 90 61 60
        E 120 80 61 00
        E 0 90 57 60
        E 0 90 63 60
        E 120 80 57 00
        E 0 80 63 00
        E 0 90 64 60
        E 120 80 64 00
        E 0 90 48 60
        E 0 90 55 60
        E 0 90 61 60
        E 120 80 48 00
        E 0 80 55 00
        E 0 80 61 00
        E 0 90 63 60
        E 120 80 63 00
        E 0 90 58 60
        E 0 90 64 60
        E 120 80 58 00
        E 0 80 64 00
        E 0 90 63 60
        E 120 80 63 00
        E 0 90 3c 60
        E 0 90 48 60
        E 0 90 55 60
        E 0 90 61 60
        E 120 80 3c 00
        E 0 80 48 00
        E 0 80 55 00
        E 0 80 61 00
        E 0 90 63 60
        E 120 80 63 00
        E 0 90 58 60
        E 0 90 64 60
        E 120 80 58 00
        E 0 80 64 00
        E 0 90 61 60
        E 120 80 61 00
        E 0 90 4a 60
        E 0 90 57 60
        E 0 90 63 60
        E 120 80 4a 00
        E 0 80 57 00
        E 0 80 63 00
        E 0 90 64 60
        E 120 80 64 00
        E 0 90 55 60
        E 0 90 61 60
        E 120 80 55 00
        E 0 80 61 00
        E 0 90 63 60
        E 120 80 63 00
        E 0 90 3e 60
        E 0 90 4b 60
        E 0 90 58 60
        E 0 90 64 60
        E 120 80 3e 00
        E 0 80 4b 00
        E 0 80 58 00
        E 0 80 64 00
        E 0 90 61 60
        E 120 80 61 00
        E 0 90 57 60
        E 0 90 63 60
        E 120 80 57 00
        E 0 80 63 00
        E 0 90 64 60
        E 120 80 64 00
        E 0 90 48 60
        E 0 90 55 60
        E 0 90 61 60
        E 120 80 48 00
        E 0 80 55 00
        E 0 80 61 00
        E 0 90 63 60
        E 120 80 63 00
        E 0 90 58 60
        E 0 90 64 60
        E 120 80 58 00
        E 0 80 64 00
        E 0 90 63 60
        E 120 80 63 00
        E 0 90 3c 60
        E 0 90 48 60
        E 0 90 55 60
        E 0 90 61 60
        E 120 80 3c 00
        E 0 80 48 00
        E 0 80 55 00
        E 0 80 61 00
        E 0 90 63 60
        E 120 80 63 00
        E 0 90 58 60
        E 0 90 64 60
        E 120 80 58 00
        E 0 80 64 00
        E 0 90 61 60
        E 120 80 61 00
        E 0 90 4a 60
        E 0 90 57 60
        E 0 90 63 60
        E 120 80 4a 00
        E 0 80 57 00
        E 0 80 63 00
        E 0 90 64 60
        E 120 80 64 00
        E 0 90 55 60
        E 0 90 61 60
        E 120 80 55 00
        E 0 80 61 00
        E 0 90 63 60
        E 120 80 63 00
        E 0 90 3e 60
        E 0 90 4b 60
        E 0 90 58 60
        E 0 90 64 60
        E 120 80 3e 00
        E 0 80 4b 00
        E 0 80 58 00
        E 0 80 64 00
        E 0 90 61 60
        E 120 80 61 00
        E 0 90 57 60
        E 0 90 63 60
        E 120 80 57 00
        E 0 80 63 00
        E 0 90 64 60
        E 120 80 64 00
        E 0 90 48 60
        E 0 90 55 60
        E 0 90 61 60
        E 120 80 48 00
        E 0 80 55 00
        E 0 80 61 00
        E 0 90 63 60
        E 120 80 63 00
        E 0 90 58 60
        E 0 90 64 60
        E 120 80 58 00
        E 0 80 64 00
        E 0 90 63 60
        E 120 80 63 00
        E 0 90 3c 60
        E 0 90 48 60
        E 0 90 55 60
        E 0 90 61 60
        E 120 80 3c 00
        E 0 80 48 00
        E 0 80 55 00
        E 0 80 61 00
        E 0 90 63 60
        E 120 80 63 00
        E 0 90 58 60
        E 0 90 64 60
        E 120 80 58 00
        E 0 80 64 00
        E 0 90 61 60
        E 120 80 61 00
        E 0 90 4a 60
        E 0 90 57 60
        E 0 90 63 60
        E 120 80 4a 00
        E 0 80 57 00
        E 0 80 63 00
        E 0 90 64 60
        E 120 80 64 00
        E 0 90 55 60
        E 0 90 61 60
        E 120 80 55 00
        E 0 80 61 00
        E 0 90 63 60
        E 120 80 63 00
        E 0 90 3e 60
        E 0 90 4b 60
        E 0 90 58 60
        E 0 90 64 60
        E 120 80 3e 00
        E 0 80 4b 00
        E 0 80 58 00
        E 0 80 64 00
        E 0 90 61 60
        E 120 80 61 00
        E 0 90 57 60
        E 0 90 63 60
        E 120 80 57 00
        E 0 80 63 00
        E 0 90 64 60
        E 120 80 64 00
        E 0 90 48 60
        E 0 90 55 60
        E 0 90 61 60
        E 120 80 48 00
        E 0 80 55 00
        E 0 80 61 00
        E 0 90 63 60
        E 120 80 63 00
        E 0 90 58 60
        E 0 90 64 60
        E 120 80 58 00
        E 0 80 64 00
        E 0 90 63 60
        E 120 80 63 00
        E 0 90 3c 60
        E 0 90 48 60
        E 0 90 55 60
        E 0 90 61 60
        E 120 80 3c 00
        E 0 80 48 00
        E 0 80 55 00
        E 0 80 61 00
        E 0 90 63 60
        E 120 80 63 00
        E 0 90 58 60
        E 0 90 64 60
        E 120 80 58 00
        E 0 80 64 00
        E 0 90 61 60
        E 120 80 61 00
        E 0 90 4a 60
        E 0 90 57 60
        E 0 90 63 60
        E 120 80 4a 00
        E 0 80 57 00
        E 0 80 63 00
        E 0 90 64 60
        E 120 80 64 00
        E 0 90 55 60
        E 0 90 61 60
        E 120 80 55 00
        E 0 80 61 00
        E 0 90 63 60
        E 120 80 63 00
        E 0 90 3e 60
        E 0 90 4b 60
        E 0 90 58 60
        E 0 90 64 60
        E 120 80 3e 00
        E 0 80 4b 00
        E 0 80 58 00
        E 0 80 64 00
        E 0 90 61 60
        E 120 80 61 00
        E 0 90 57 60
        E 0 90 63 60
        E 120 80 57 00
        E 0 80 63 00
        E 0 90 64 60
        E 120 80 64 00
        E 0 90 48 60
        E 0 90 55 60
        E 0 90 61 60
        E 120 80 48 00
        E 0 80 55 00
        E 0 80 61 00
        E 0 90 63 60
        E 120 80 63 00
        E 0 90 58 60
        E 0 90 64 60
        E 120 80 58 00
        E 0 80 64 00
        E 0 90 63 60
        E 120 80 63 00
        E 0 90 3c 60
        E 0 90 48 60
        E 0 90 55 60
        E 0 90 61 60
        E 120 80 3c 00
        E 0 80 48 00
        E 0 80 55 00
        E 0 80 61 00
        E 0 90 63 60
        E 120 80 63 00
        E 0 90 58 60
        E 0 90 64 60
        E 120 80 58 00
        E 0 80 64 00
        E 0 90 61 60
        E 120 80 61 00
        E 0 90 4a 60
        E 0 90 57 60
        E 0 90 63 60
        E 120 80 4a 00
        E 0 80 57 00
        E 0 80 63 00
        E 0 90 64 60
        E 120 80 64 00
        E 0 90 55 60
        E 0 90 61 60
        E 120 80 55 00
        E 0 80 61 00
        E 0 90 63 60
        E 120 80 63 00
        E 0 90 3e 60
        E 0 90 4b 60
        E 0 90 58 60
        E 0 90 64 60
        E 120 80 3e 00
        E 0 80 4b 00
        E 0 80 58 00
        E 0 80 64 00
        E 0 90 61 60
        E 120 80 61 00
        E 0 90 57 60
        E 0 90 63 60
        E 120 80 57 00
        E 0 80 63 00
        E 0 90 64 60
        E 120 80 64 00
        E 0 90 48 60
        E 0 90 55 60
        E 0 90 61 60
        E 120 80 48 00
        E 0 80 55 00
        E 0 80 61 00
        E 0 90 63 60
        E 120 80 63 00
        E 0 90 58 60
        E 0 90 64 60
        E 120 80 58 00
        E 0 80 64 00
        E 0 90 63 60
        E 120 80 63 00
        E 0 90 3c 60
        E 0 90 48 60
        E 0 90 55 60
        E 0 90 61 60
        E 0 90 74 60
        E 120 80 3c 00
        E 0 80 48 00
        E 0 80 55 00
        E 0 80 61 00
        E 0 90 63 60
        E 120 80 63 00
        E 0 90 58 60
        E 0 90 64 60
        E 120 80 58 00
        E 0 80 64 00
        E 0 90 61 60
        E 120 80 61 00
        E 0 90 4a 60
        E 0 90 57 60
        E 0 90 63 60
        E 120 80 4a 00
        E 0 80 57 00
        E 0 80 63 00
        E 0 90 64 60
        E 120 80 64 00
        E 0 90 55 60
        E 0 90 61 60
        E 120 80 55 00
        E 0 80 61 00
        E 0 90 63 60
        E 120 80 63 00
        E 0 90 3e 60
        E 0 90 4b 60
        E 0 90 58 60
        E 0 90 64 60
        E 120 80 3e 00
        E 0 80 4b 00
        E 0 80 58 00
        E 0 80 64 00
        E 0 90 61 60
        E 120 80 61 00
        E 0 90 57 60
        E 0 90 63 60
        E 120 80 57 00
        E 0 80 63 00
        E 0 90 64 60
        E 120 80 64 00
        E 0 90 48 60
        E 0 90 55 60
        E 0 90 61 60
        E 120 80 48 00
        E 0 80 55 00
        E 0 80 61 00
        E 0 90 63 60
        E 120 80 63 00
        E 0 90 58 60
        E 0 90 64 60
        E 120 80 58 00
        E 0 80 64 00
        E 0 90 63 60
        E 120 80 74 00
        E 0 80 63 00
        E 0 90 3c 60
        E 0 90 48 60
        E 0 90 55 60
        E 0 90 61 60
        E 120 80 3c 00
        E 0 80 48 00
        E 0 80 55 00
        E 0 80 61 00
        E 0 90 63 60
        E 120 80 63 00
        E 0 90 58 60
        E 0 90 64 60
        E 120 80 58 00
        E 0 80 64 00
        E 0 90 61 60
        E 120 80 61 00
        E 0 90 4a 60
        E 0 90 57 60
        E 0 90 63 60
        E 120 80 4a 00
        E 0 80 57 00
        E 0 80 63 00
        E 0 90 64 60
        E 120 80 64 00
        E 0 90 55 60
        E 0 90 61 60
        E 120 80 55 00
        E 0 80 61 00
        E 0 90 63 60
        E 120 80 63 00
        E 0 90 3e 60
        E 0 90 4b 60
        E 0 90 58 60
        E 0 90 64 60
        E 120 80 3e 00
        E 0 80 4b 00
        E 0 80 58 00
        E 0 80 64 00
        E 0 90 61 60
        E 120 80 61 00
        E 0 90 57 60
        E 0 90 63 60
        E 120 80 57 00
        E 0 80 63 00
        E 0 90 64 60
        E 120 80 64 00
        E 0 90 48 60
        E 0 90 55 60
        E 0 90 61 60
        E 120 80 48 00
        E 0 80 55 00
        E 0 80 61 00
        E 0 90 63 60
        E 120 80 63 00
        E 0 90 58 60
        E 0 90 64 60
        E 120 80 58 00
        E 0 80 64 00
        E 0 90 63 60
        E 120 80 63 00
        E 0 90 3c 60
        E 0 90 48 60
        E 0 90 55 60
        E 0 90 61 60
        E 120 80 3c 00
        E 0 80 48 00
        E 0 80 55 00
        E 0 80 61 00
        E 0 90 63 60
        E 120 80 63 00
        E 0 90 58 60
        E 0 90 64 60
        E 120 80 58 00
        E 0 80 64 00
        E 0 90 61 60
        E 120 80 61 00
        E 0 90 4a 60
        E 0 90 57 60
        E 0 90 63 60
        E 120 80 4a 00
        E 0 80 57 00
        E 0 80 63 00
        E 0 90 64 60
        E 120 80 64 00
        E 0 90 55 60
        E 0 90 61 60
        E 120 80 55 00
        E 0 80 61 00
        E 0 90 63 60
        E 120 80 63 00
        E 0 90 3e 60
        E 0 90 4b 60
        E 0 90 58 60
        E 0 90 64 60
        E 120 80 3e 00
        E 0 80 4b 00
        E 0 80 58 00
        E 0 80 64 00
        E 0 90 61 60
        E 120 80 61 00
        E 0 90 57 60
        E 0 90 63 60
        E 120 80 57 00
        E 0 80 63 00
        E 0 90 64 60
        E 120 80 64 00
        E 0 90 48 60
        E 0 90 55 60
        E 0 90 61 60
        E 120 80 48 00
        E 0 80 55 00
        E 0 80 61 00
        E 0 90 63 60
        E 120 80 63 00
        E 0 90 58 60
        E 0 90 64 60
        E 120 80 58 00
        E 0 80 64 00
        E 0 90 63 60
        E 120 80 63 00
        E 0 90 3c 60
        E 0 90 48 60
        E 0 90 55 60
        E 0 90 61 60
        E 120 80 3c 00
        E 0 80 48 00
        E 0 80 55 00
        E 0 80 61 00
        E 0 90 63 60
        E 120 80 63 00
        E 0 90 58 60
        E 0 90 64 60
        E 120 80 58 00
        E 0 80 64 00
        E 0 90 61 60
        E 120 80 61 00
        E 0 90 4a 60
        E 0 90 57 60
        E 0 90 63 60
        E 120 80 4a 00
        E 0 80 57 00
        E 0 80 63 00
        E 0 90 64 60
        E 120 80 64 00
        E 0 90 55 60
        E 0 90 61 60
        E 120 80 55 00
        E 0 80 61 00
        E 0 90 63 60
        E 120 80 63 00
        E 0 90 3e 60
        E 0 90 4b 60
        E 0 90 58 60
        E 0 90 64 60
        E 120 80 3e 00
        E 0 80 4b 00
        E 0 80 58 00
        E 0 80 64 00
        E 0 90 61 60
        E 120 80 61 00
        E 0 90 57 60
        E 0 90 63 60
        E 120 80 57 00
        E 0 80 63 00
        E 0 90 64 60
        E 120 80 64 00
        E 0 90 48 60
        E 0 90 55 60
        E 0 90 61 60
        E 120 80 48 00
        E 0 80 55 00
        E 0 80 61 00
        E 0 90 63 60
        E 120 80 63 00
        E 0 90 58 60
        E 0 90 64 60
        E 120 80 58 00
        E 0 80 64 00
        E 0 90 63 60
        E 120 80 63 00
        E 0 90 3c 60
        E 0 90 48 60
        E 0 90 55 60
        E 0 90 61 60
        E 120 80 3c 00
        E 0 80 48 00
        E 0 80 55 00
        E 0 80 61 00
        E 0 90 63 60
        E 120 80 63 00
        E 0 90 58 60
        E 0 90 64 60
        E 120 80 58 00
        E 0 80 64 00
        E 0 90 61 60
        E 120 80 61 00
        E 0 90 4a 60
        E 0 90 57 60
        E 0 90 63 60
        E 120 80 4a 00
        E 0 80 57 00
        E 0 80 63 00
        E 0 90 64 60
        E 120 80 64 00
        E 0 90 55 60
        E 0 90 61 60
        E 120 80 55 00
        E 0 80 61 00
        E 0 90 63 60
        E 120 80 63 00
        E 0 90 3e 60
        E 0 90 4b 60
        E 0 90 58 60
        E 0 90 64 60
        E 120 80 3e 00
        E 0 80 4b 00
        E 0 80 58 00
        E 0 80 64 00
        E 0 90 61 60
        E 120 80 61 00
        E 0 90 57 60
        E 0 90 63 60
        E 120 80 57 00
        E 0 80 63 00
        E 0 90 64 60
        E 120 80 64 00
        E 0 90 48 60
        E 0 90 55 60
        E 0 90 61 60
        E 120 80 48 00
        E 0 80 55 00
        E 0 80 61 00
        E 0 90 63 60
        E 120 80 63 00
        E 0 90 58 60
        E 0 90 64 60
        E 120 80 58 00
        E 0 80 64 00
        E 0 90 63 60
        E 120 80 63 00
        E 0 90 3c 60
        E 0 90 48 60
        E 0 90 55 60
        E 0 90 61 60
        E 120 80 3c 00
        E 0 80 48 00
        E 0 80 55 00
        E 0 80 61 00
        E 0 90 63 60
        E 120 80 63 00
        E 0 90 58 60
        E 0 90 64 60
        E 120 80 58 00
        E 0 80 64 00
        E 0 90 61 60
        E 120 80 61 00
        E 0 90 4a 60
        E 0 90 57 60
        E 0 90 63 60
        E 120 80 4a 00
        E 0 80 57 00
        E 0 80 63 00
        E 0 90 64 60
        E 120 80 64 00
        E 0 90 55 60
        E 0 90 61 60
        E 120 80 55 00
        E 0 80 61 00
        E 0 90 63 60
        E 120 80 63 00
        E 0 90 3e 60
        E 0 90 4b 60
        E 0 90 58 60
        E 0 90 64 60
        E 120 80 3e 00
        E 0 80 4b 00
        E 0 80 58 00
        E 0 80 64 00
        E 0 90 61 60
        E 120 80 61 00
        E 0 90 57 60
        E 0 90 63 60
        E 120 80 57 00
        E 0 80 63 00
        E 0 90 64 60
        E 120 80 64 00
        E 0 90 48 60
        E 0 90 55 60
        E 0 90 61 60
        E 120 80 48 00
        E 0 80 55 00
        E 0 80 61 00
        E 0 90 63 60
        E 120 80 63 00
        E 0 90 58 60
        E 0 90 64 60
        E 120 80 58 00
        E 0 80 64 00
        E 0 90 63 60
        E 120 80 63 00
        E 0 90 3c 60
        E 0 90 48 60
        E 0 90 55 60
        E 0 90 61 60
        E 120 80 3c 00
        E 0 80 48 00
        E 0 80 55 00
        E 0 80 61 00
        E 0 90 63 60
        E 120 80 63 00
        E 0 90 58 60
        E 0 90 64 60
        E 120 80 58 00
        E 0 80 64 00
        E 0 90 61 60
        E 120 80 61 00
        E 0 90 4a 60
        E 0 90 57 60
        E 0 90 63 60
        E 120 80 4a 00
        E 0 80 57 00
        E 0 80 63 00
        E 0 90 64 60
        E 120 80 64 00
        E 0 90 55 60
        E 0 90 61 60
        E 120 80 55 00
        E 0 80 61 00
        E 0 90 63 60
        E 120 80 63 00
        E 0 90 3e 60
        E 0 90 4b 60
        E 0 90 58 60
        E 0 90 64 60
        E 120 80 3e 00
        E 0 80 4b 00
        E 0 80 58 00
        E 0 80 64 00
        E 0 90 61 60
        E 120 80 61 00
        E 0 90 57 60
        E 0 90 63 60
        E 120 80 57 00
        E 0 80 63 00
        E 0 90 64 60
        E 120 80 64 00
        E 0 90 48 60
        E 0 90 55 60
        E 0 90 61 60
        E 120 80 48 00
        E 0 80 55 00
        E 0 80 61 00
        E 0 90 63 60
        E 120 80 63 00
        E 0 90 58 60
        E 0 90 64 60
        E 120 80 58 00
        E 0 80 64 00
        E 0 90 63 60
        E 120 80 63 00
        E 0 90 3c 60
        E 0 90 48 60
        E 0 90 55 60
        E 0 90 61 60
        E 120 80 3c 00
        E 0 80 48 00
        E 0 80 55 00
        E 0 80 61 00
        E 0 90 63 60
        E 120 80 63 00
        E 0 90 58 60
        E 0 90 64 60
        E 120 80 58 00
        E 0 80 64 00
        E 0 90 61 60
        E 120 80 61 00
        E 0 90 4a 60
        E 0 90 57 60
        E 0 90 63 60
        E 120 80 4a 00
        E 0 80 57 00
        E 0 80 63 00
        E 0 90 64 60
        E 120 80 64 00
        E 0 90 55 60
        E 0 90 61 60
        E 120 80 55 00
        E 0 80 61 00
        E 0 90 63 60
        E 120 80 63 00
        E 0 90 3e 60
        E 0 90 4b 60
        E 0 90 58 60
        E 0 90 64 60
        E 120 80 3e 00
        E 0 80 4b 00
        E 0 80 58 00
        E 0 80 64 00
        E 0 90 61 60
        E 120 80 61 00
        E 0 90 57 60
        E 0 90 63 60
        E 120 80 57 00
        E 0 80 63 00
        E 0 90 64 60
        E 120 80 64 00
        E 0 90 48 60
        E 0 90 55 60
        E 0 90 61 60
        E 120 80 48 00
        E 0 80 55 00
        E 0 80 61 00
        E 0 90 63 60
        E 120 80 63 00
        E 0 90 58 60
        E 0 90 64 60
        E 120 80 58 00
        E 0 80 64 00
        E 0 90 63 60
        E 120 80 63 00
        E 0 90 3c 60
        E 0 90 48 60
        E 0 90 55 60
        E 0 90 61 60
        E 0 90 74 60
        E 120 80 3c 00
        E 0 80 48 00
        E 0 80 55 00
        E 0 80 61 00
        E 0 90 63 60
        E 120 80 63 00
        E 0 90 58 60
        E 0 90 64 60
        E 120 80 58 00
        E 0 80 64 00
        E 0 90 61 60
        E 120 80 61 00
        E 0 90 4a 60
        E 0 90 57 60
        E 0 90 63 60
        E 120 80 4a 00
        E 0 80 57 00
        E 0 80 63 00
        E 0 90 64 60
        E 120 80 64 00
        E 0 90 55 60
        E 0 90 61 60
        E 120 80 55 00
        E 0 80 61 00
        E 0 90 63 60
        E 120 80 63 00
        E 0 90 3e 60
        E 0 90 4b 60
        E 0 90 58 60
        E 0 90 64 60
        E 120 80 3e 00
        E 0 80 4b 00
        E 0 80 58 00
        E 0 80 64 00
        E 0 90 61 60
        E 120 80 61 00
        E 0 90 57 60
        E 0 90 63 60
        E 120 80 57 00
        E 0 80 63 00
        E 0 90 64 60
        E 120 80 64 00
        E 0 90 48 60
        E 0 90 55 60
        E 0 90 61 60
        E 120 80 48 00
        E 0 80 55 00
        E 0 80 61 00
        E 0 90 63 60
        E 120 80 63 00
        E 0 90 58 60
        E 0 90 64 60
        E 120 80 58 00
        E 0 80 64 00
        E 0 90 63 60
        E 120 80 74 00
        E 0 80 63 00
        E 0 90 3c 60
        E 0 90 48 60
        E 0 90 55 60
        E 0 90 61 60
        E 120 80 3c 00
        E 0 80 48 00
        E 0 80 55 00
        E 0 80 61 00
        E 0 90 63 60
        E 120 80 63 00
        E 0 90 58 60
        E 0 90 64 60
        E 120 80 58 00
        E 0 80 64 00
        E 0 90 61 60
        E 120 80 61 00
        E 0 90 4a 60
        E 0 90 57 60
        E 0 90 63 60
        E 120 80 4a 00
        E 0 80 57 00
        E 0 80 63 00
        E 0 90 64 60
        E 120 80 64 00
        E 0 90 55 60
        E 0 90 61 60
        E 120 80 55 00
        E 0 80 61 00
        E 0 90 63 60
        E 120 80 63 00
        E 0 90 3e 60
        E 0 90 4b 60
        E 0 90 58 60
        E 0 90 64 60
        E 120 80 3e 00
        E 0 80 4b 00
        E 0 80 58 00
        E 0 80 64 00
        E 0 90 61 60
        E 120 80 61 00
        E 0 90 57 60
        E 0 90 63 60
        E 120 80 57 00
        E 0 80 63 00
        E 0 90 64 60
        E 120 80 64 00
        E 0 90 48 60
        E 0 90 55 60
        E 0 90 61 60
        E 120 80 48 00
        E 0 80 55 00
        E 0 80 61 00
        E 0 90 63 60
        E 120 80 63 00
        E 0 90 58 60
        E 0 90 64 60
        E 120 80 58 00
        E 0 80 64 00
        E 0 90 63 60
        E 120 80 63 00
        E 0 90 3c 60
        E 0 90 48 60
        E 0 90 55 60
        E 0 90 61 60
        E 120 80 3c 00
        E 0 80 48 00
        E 0 80 55 00
        E 0 80 61 00
        E 0 90 63 60
        E 120 80 63 00
        E 0 90 58 60
        E 0 90 64 60
        E 120 80 58 00
        E 0 80 64 00
        E 0 90 61 60
        E 120 80 61 00
        E 0 90 4a 60
        E 0 90 57 60
        E 0 90 63 60
        E 120 80 4a 00
        E 0 80 57 00
        E 0 80 63 00
        E 0 90 64 60
        E 120 80 64 00
        E 0 90 55 60
        E 0 90 61 60
        E 120 80 55 00
        E 0 80 61 00
        E 0 90 63 60
        E 120 80 63 00
        E 0 90 3e 60
        E 0 90 4b 60
        E 0 90 58 60
        E 0 90 64 60
        E 120 80 3e 00
        E 0 80 4b 00
        E 0 80 58 00
        E 0 80 64 00
        E 0 90 61 60
        E 120 80 61 00
        E 0 90 57 60
        E 0 90 63 60
        E 120 80 57 00
        E 0 80 63 00
        E 0 90 64 60
        E 120 80 64 00
        E 0 90 48 60
        E 0 90 55 60
        E 0 90 61 60
        E 120 80 48 00
        E 0 80 55 00
        E 0 80 61 00
        E 0 90 63 60
        E 120 80 63 00
        E 0 90 58 60
        E 0 90 64 60
        E 120 80 58 00
        E 0 80 64 00
        E 0 90 63 60
        E 120 80 63 00
        E 0 90 3c 60
        E 0 90 48 60
        E 0 90 55 60
        E 0 90 61 60
        E 120 80 3c 00
        E 0 80 48 00
        E 0 80 55 00
        E 0 80 61 00
        E 0 90 63 60
        E 120 80 63 00
        E 0 90 58 60
        E 0 90 64 60
        E 120 80 58 00
        E 0 80 64 00
        E 0 90 61 60
        E 120 80 61 00
        E 0 90 4a 60
        E 0 90 57 60
        E 0 90 63 60
        E 120 80 4a 00
        E 0 80 57 00
        E 0 80 63 00
        E 0 90 64 60
        E 120 80 64 00
        E 0 90 55 60
        E 0 90 61 60
        E 120 80 55 00
        E 0 80 61 00
        E 0 90 63 60
        E 120 80 63 00
        E 0 90 3e 60
        E 0 90 4b 60
        E 0 90 58 60
        E 0 90 64 60
        E 120 80 3e 00
        E 0 80 4b 00
        E 0 80 58 00
        E 0 80 64 00
        E 0 90 61 60
        E 120 80 61 00
        E 0 90 57 60
        E 0 90 63 60
        E 120 80 57 00
        E 0 80 63 00
        E 0 90 64 60
        E 120 80 64 00
        E 0 90 48 60
        E 0 90 55 60
        E 0 90 61 60
        E 120 80 48 00
        E 0 80 55 00
        E 0 80 61 00
        E 0 90 63 60
        E 120 80 63 00
        E 0 90 58 60
        E 0 90 64 60
        E 120 80 58 00
        E 0 80 64 00
        E 0 90 63 60
        E 120 80 63 00
        E 0 90 3c 60
        E 0 90 48 60
        E 0 90 55 60
        E 0 90 61 60
        E 120 80 3c 00
        E 0 80 48 00
        E 0 80 55 00
        E 0 80 61 00
        E 0 90 63 60
        E 120 80 63 00
        E 0 90 58 60
        E 0 90 64 60
        E 120 80 58 00
        E 0 80 64 00
        E 0 90 61 60
        E 120 80 61 00
        E 0 90 4a 60
        E 0 90 57 60
        E 0 90 63 60
        E 120 80 4a 00
        E 0 80 57 00
        E 0 80 63 00
        E 0 90 64 60
        E 120 80 64 00
        E 0 90 55 60
        E 0 90 61 60
        E 120 80 55 00
        E 0 80 61 00
        E 0 90 63 60
        E 120 80 63 00
        E 0 90 3e 60
        E 0 90 4b 60
        E 0 90 58 60
        E 0 90 64 60
        E 120 80 3e 00
        E 0 80 4b 00
        E 0 80 58 00
        E 0 80 64 00
        E 0 90 61 60
        E 120 80 61 00
        E 0 90 57 60
        E 0 90 63 60
        E 120 80 57 00
        E 0 80 63 00
        E 0 90 64 60
        E 120 80 64 00
        E 0 90 48 60
        E 0 90 55 60
        E 0 90 61 60
        E 120 80 48 00
        E 0 80 55 00
        E 0 80 61 00
        E 0 90 63 60
        E 120 80 63 00
        E 0 90 58 60
        E 0 90 64 60
        E 120 80 58 00
        E 0 80 64 00
        E 0 90 63 60
        <X 120 0
          /wFbbWVsbG93XQ==
        >
        E 0 80 63 00
        E 0 90 3e 60
        E 0 90 4a 60
        E 0 90 4b 60
        E 0 90 56 60
        E 0 90 58 60
        E 0 90 61 60
        E 0 90 63 60
        E 0 90 64 60
        E 120 80 65 00
        E 0 80 59 00
        E 3240 80 3e 00
        E 0 80 4a 00
        E 0 80 4b 00
        E 360 80 56 00
        E 0 80 58 00
        E 0 80 61 00
        E 0 80 63 00
        E 120 90 3d 60
        E 0 90 49 60
        E 0 90 56 60
        E 0 90 62 60
        E 1440 80 3d 00
        E 0 80 49 00
        E 360 80 64 00
        E 0 80 56 00
        E 0 80 62 00
        E 120 90 3d 60
        E 0 90 48 60
        E 0 90 4a 60
        E 0 90 54 60
        E 0 90 56 60
        E 0 90 60 60
        E 0 90 61 60
        E 0 90 63 60
        E 1440 80 3d 00
        E 0 80 48 00
        E 0 80 4a 00
        E 360 80 54 00
        E 0 80 56 00
        E 0 80 60 00
        E 0 80 61 00
        E 0 80 63 00
        E 120 90 3e 60
        E 0 90 4a 60
        E 0 90 4b 60
        E 0 90 56 60
        E 0 90 58 60
        E 0 90 61 60
        E 0 90 63 60
        E 0 90 64 60
        E 3360 80 3e 00
        E 0 80 4a 00
        E 0 80 4b 00
        E 360 80 56 00
        E 0 80 58 00
        E 0 80 61 00
        E 0 80 63 00
        E 120 90 3d 60
        E 0 90 49 60
        E 0 90 56 60
        E 0 90 62 60
        E 0 90 74 60
        E 1440 80 3d 00
        E 0 80 49 00
        E 360 80 64 00
        E 0 80 56 00
        E 0 80 62 00
        E 120 90 3d 60
        E 0 90 48 60
        E 0 90 4a 60
        E 0 90 54 60
        E 0 90 56 60
        E 0 90 60 60
        E 0 90 61 60
        E 0 90 63 60
        E 1440 80 3d 00
        E 0 80 48 00
        E 0 80 4a 00
        E 360 80 54 00
        E 0 80 56 00
        E 0 80 60 00
        E 0 80 61 00
        E 0 80 63 00
        E 120 80 74 00
        E 0 90 3e 60
        E 0 90 4a 60
        E 0 90 4b 60
        E 0 90 56 60
        E 0 90 58 60
        E 0 90 61 60
        E 0 90 63 60
        E 0 90 64 60
        E 3360 80 3e 00
        E 0 80 4a 00
        E 0 80 4b 00
        E 360 80 56 00
        E 0 80 58 00
        E 0 80 61 00
        E 0 80 63 00
        E 120 90 3d 60
        E 0 90 49 60
        E 0 90 56 60
        E 0 90 62 60
        E 1440 80 3d 00
        E 0 80 49 00
        E 360 80 64 00
        E 0 80 56 00
        E 0 80 62 00
        E 120 90 3d 60
        E 0 90 48 60
        E 0 90 4a 60
        E 0 90 54 60
        E 0 90 56 60
        E 0 90 60 60
        E 0 90 61 60
        E 0 90 63 60
        E 1440 80 3d 00
        E 0 80 48 00
        E 0 80 4a 00
        E 360 80 54 00
        E 0 80 56 00
        E 0 80 60 00
        E 0 80 61 00
        E 0 80 63 00
        E 120 90 3e 60
        E 0 90 4a 60
        E 0 90 4b 60
        E 0 90 56 60
        E 0 90 58 60
        E 0 90 61 60
        E 0 90 63 60
        E 0 90 64 60
        E 3360 80 3e 00
        E 0 80 4a 00
        E 0 80 4b 00
        E 360 80 56 00
        E 0 80 58 00
        E 0 80 61 00
        E 0 80 63 00
        E 120 90 3d 60
        E 0 90 49 60
        E 0 90 56 60
        E 0 90 62 60
        E 1440 80 3d 00
        E 0 80 49 00
        E 360 80 64 00
        E 0 80 56 00
        E 0 80 62 00
        E 120 90 3d 60
        E 0 90 48 60
        E 0 90 4a 60
        E 0 90 54 60
        E 0 90 56 60
        E 0 90 60 60
        E 0 90 61 60
        E 0 90 63 60
        E 1440 80 3d 00
        E 0 80 48 00
        E 0 80 4a 00
        E 360 80 54 00
        E 0 80 56 00
        E 0 80 60 00
        E 0 80 61 00
        E 0 80 63 00
        <X 120 0
          /wFbcGxheV0=
        >
        E 0 90 3c 60
        E 0 90 48 60
        E 0 90 55 60
        E 0 90 61 60
        E 0 90 74 60
        E 120 80 3c 00
        E 0 80 48 00
        E 0 80 55 00
        E 0 80 61 00
        E 0 90 63 60
        E 0 90 65 60
        E 120 80 63 00
        E 0 90 58 60
        E 0 90 59 60
        E 0 90 64 60
        E 120 80 58 00
        E 0 80 64 00
        E 0 90 61 60
        E 120 80 61 00
        E 0 90 4a 60
        E 0 90 57 60
        E 0 90 63 60
        E 120 80 4a 00
        E 0 80 57 00
        E 0 80 63 00
        E 0 90 64 60
        E 120 80 64 00
        E 0 90 55 60
        E 0 90 61 60
        E 120 80 55 00
        E 0 80 61 00
        E 0 90 63 60
        E 120 80 63 00
        E 0 90 3e 60
        E 0 90 4b 60
        E 0 90 58 60
        E 0 90 64 60
        E 120 80 3e 00
        E 0 80 4b 00
        E 0 80 58 00
        E 0 80 64 00
        E 0 90 61 60
        E 120 80 61 00
        E 0 90 57 60
        E 0 90 63 60
        E 120 80 57 00
        E 0 80 63 00
        E 0 90 64 60
        E 120 80 64 00
        E 0 90 48 60
        E 0 90 55 60
        E 0 90 61 60
        E 120 80 48 00
        E 0 80 55 00
        E 0 80 61 00
        E 0 90 63 60
        E 120 80 63 00
        E 0 90 58 60
        E 0 90 64 60
        E 120 80 58 00
        E 0 80 64 00
        E 0 90 63 60
        E 120 80 74 00
        E 0 80 63 00
        E 0 90 3c 60
        E 0 90 48 60
        E 0 90 55 60
        E 0 90 61 60
        E 120 80 3c 00
        E 0 80 48 00
        E 0 80 55 00
        E 0 80 61 00
        E 0 90 63 60
        E 120 80 63 00
        E 0 90 58 60
        E 0 90 64 60
        E 120 80 58 00
        E 0 80 64 00
        E 0 90 61 60
        E 120 80 61 00
        E 0 90 4a 60
        E 0 90 57 60
        E 0 90 63 60
        E 120 80 4a 00
        E 0 80 57 00
        E 0 80 63 00
        E 0 90 64 60
        E 120 80 64 00
        E 0 90 55 60
        E 0 90 61 60
        E 120 80 55 00
        E 0 80 61 00
        E 0 90 63 60
        E 120 80 63 00
        E 0 90 3e 60
        E 0 90 4b 60
        E 0 90 58 60
        E 0 90 64 60
        E 120 80 3e 00
        E 0 80 4b 00
        E 0 80 58 00
        E 0 80 64 00
        E 0 90 61 60
        E 120 80 61 00
        E 0 90 57 60
        E 0 90 63 60
        E 120 80 57 00
        E 0 80 63 00
        E 0 90 64 60
        E 120 80 64 00
        E 0 90 48 60
        E 0 90 55 60
        E 0 90 61 60
        E 120 80 48 00
        E 0 80 55 00
        E 0 80 61 00
        E 0 90 63 60
        E 120 80 63 00
        E 0 90 58 60
        E 0 90 64 60
        E 120 80 58 00
        E 0 80 64 00
        E 0 90 63 60
        E 120 80 63 00
        E 0 90 3c 60
        E 0 90 48 60
        E 0 90 55 60
        E 0 90 61 60
        E 120 80 3c 00
        E 0 80 48 00
        E 0 80 55 00
        E 0 80 61 00
        E 0 90 63 60
        E 120 80 63 00
        E 0 90 58 60
        E 0 90 64 60
        E 120 80 58 00
        E 0 80 64 00
        E 0 90 61 60
        E 120 80 61 00
        E 0 90 4a 60
        E 0 90 57 60
        E 0 90 63 60
        E 120 80 4a 00
        E 0 80 57 00
        E 0 80 63 00
        E 0 90 64 60
        E 120 80 64 00
        E 0 90 55 60
        E 0 90 61 60
        E 120 80 55 00
        E 0 80 61 00
        E 0 90 63 60
        E 120 80 63 00
        E 0 90 3e 60
        E 0 90 4b 60
        E 0 90 58 60
        E 0 90 64 60
        E 120 80 3e 00
        E 0 80 4b 00
        E 0 80 58 00
        E 0 80 64 00
        E 0 90 61 60
        E 120 80 61 00
        E 0 90 57 60
        E 0 90 63 60
        E 120 80 57 00
        E 0 80 63 00
        E 0 90 64 60
        E 120 80 64 00
        E 0 90 48 60
        E 0 90 55 60
        E 0 90 61 60
        E 120 80 48 00
        E 0 80 55 00
        E 0 80 61 00
        E 0 90 63 60
        E 120 80 63 00
        E 0 90 58 60
        E 0 90 64 60
        E 120 80 58 00
        E 0 80 64 00
        E 0 90 63 60
        E 120 80 63 00
        E 0 90 3c 60
        E 0 90 48 60
        E 0 90 55 60
        E 0 90 61 60
        E 120 80 3c 00
        E 0 80 48 00
        E 0 80 55 00
        E 0 80 61 00
        E 0 90 63 60
        E 120 80 63 00
        E 0 90 58 60
        E 0 90 64 60
        E 120 80 58 00
        E 0 80 64 00
        E 0 90 61 60
        E 120 80 61 00
        E 0 90 4a 60
        E 0 90 57 60
        E 0 90 63 60
        E 120 80 4a 00
        E 0 80 57 00
        E 0 80 63 00
        E 0 90 64 60
        E 120 80 64 00
        E 0 90 55 60
        E 0 90 61 60
        E 120 80 55 00
        E 0 80 61 00
        E 0 90 63 60
        E 120 80 63 00
        E 0 90 3e 60
        E 0 90 4b 60
        E 0 90 58 60
        E 0 90 64 60
        E 120 80 3e 00
        E 0 80 4b 00
        E 0 80 58 00
        E 0 80 64 00
        E 0 90 61 60
        E 120 80 61 00
        E 0 90 57 60
        E 0 90 63 60
        E 120 80 57 00
        E 0 80 63 00
        E 0 90 64 60
        E 120 80 64 00
        E 0 90 48 60
        E 0 90 55 60
        E 0 90 61 60
        E 120 80 48 00
        E 0 80 55 00
        E 0 80 61 00
        E 0 90 63 60
        E 120 80 63 00
        E 0 90 58 60
        E 0 90 64 60
        E 120 80 58 00
        E 0 80 64 00
        E 0 90 63 60
        E 120 80 63 00
        E 0 90 3c 60
        E 0 90 48 60
        E 0 90 55 60
        E 0 90 61 60
        E 120 80 3c 00
        E 0 80 48 00
        E 0 80 55 00
        E 0 80 61 00
        E 0 90 63 60
        E 120 80 63 00
        E 0 90 58 60
        E 0 90 64 60
        E 120 80 58 00
        E 0 80 64 00
        E 0 90 61 60
        E 120 80 61 00
        E 0 90 4a 60
        E 0 90 57 60
        E 0 90 63 60
        E 120 80 4a 00
        E 0 80 57 00
        E 0 80 63 00
        E 0 90 64 60
        E 120 80 64 00
        E 0 90 55 60
        E 0 90 61 60
        E 120 80 55 00
        E 0 80 61 00
        E 0 90 63 60
        E 120 80 63 00
        E 0 90 3e 60
        E 0 90 4b 60
        E 0 90 58 60
        E 0 90 64 60
        E 120 80 3e 00
        E 0 80 4b 00
        E 0 80 58 00
        E 0 80 64 00
        E 0 90 61 60
        E 120 80 61 00
        E 0 90 57 60
        E 0 90 63 60
        E 120 80 57 00
        E 0 80 63 00
        E 0 90 64 60
        E 120 80 64 00
        E 0 90 48 60
        E 0 90 55 60
        E 0 90 61 60
        E 120 80 48 00
        E 0 80 55 00
        E 0 80 61 00
        E 0 90 63 60
        E 120 80 63 00
        E 0 90 58 60
        E 0 90 64 60
        E 120 80 58 00
        E 0 80 64 00
        E 0 90 63 60
        E 120 80 63 00
        E 0 90 3c 60
        E 0 90 48 60
        E 0 90 55 60
        E 0 90 61 60
        E 120 80 3c 00
        E 0 80 48 00
        E 0 80 55 00
        E 0 80 61 00
        E 0 90 63 60
        E 120 80 63 00
        E 0 90 58 60
        E 0 90 64 60
        E 120 80 58 00
        E 0 80 64 00
        E 0 90 61 60
        E 120 80 61 00
        E 0 90 4a 60
        E 0 90 57 60
        E 0 90 63 60
        E 120 80 4a 00
        E 0 80 57 00
        E 0 80 63 00
        E 0 90 64 60
        E 120 80 64 00
        E 0 90 55 60
        E 0 90 61 60
        E 120 80 55 00
        E 0 80 61 00
        E 0 90 63 60
        E 120 80 63 00
        E 0 90 3e 60
        E 0 90 4b 60
        E 0 90 58 60
        E 0 90 64 60
        E 120 80 3e 00
        E 0 80 4b 00
        E 0 80 58 00
        E 0 80 64 00
        E 0 90 61 60
        E 120 80 61 00
        E 0 90 57 60
        E 0 90 63 60
        E 120 80 57 00
        E 0 80 63 00
        E 0 90 64 60
        E 120 80 64 00
        E 0 90 48 60
        E 0 90 55 60
        E 0 90 61 60
        E 120 80 48 00
        E 0 80 55 00
        E 0 80 61 00
        E 0 90 63 60
        E 120 80 63 00
        E 0 90 58 60
        E 0 90 64 60
        E 120 80 58 00
        E 0 80 64 00
        E 0 90 63 60
        E 120 80 63 00
        E 0 90 3c 60
        E 0 90 48 60
        E 0 90 55 60
        E 0 90 61 60
        E 120 80 3c 00
        E 0 80 48 00
        E 0 80 55 00
        E 0 80 61 00
        E 0 90 63 60
        E 120 80 63 00
        E 0 90 58 60
        E 0 90 64 60
        E 120 80 58 00
        E 0 80 64 00
        E 0 90 61 60
        E 120 80 61 00
        E 0 90 4a 60
        E 0 90 57 60
        E 0 90 63 60
        E 120 80 4a 00
        E 0 80 57 00
        E 0 80 63 00
        E 0 90 64 60
        E 120 80 64 00
        E 0 90 55 60
        E 0 90 61 60
        E 120 80 55 00
        E 0 80 61 00
        E 0 90 63 60
        E 120 80 63 00
        E 0 90 3e 60
        E 0 90 4b 60
        E 0 90 58 60
        E 0 90 64 60
        E 120 80 3e 00
        E 0 80 4b 00
        E 0 80 58 00
        E 0 80 64 00
        E 0 90 61 60
        E 120 80 61 00
        E 0 90 57 60
        E 0 90 63 60
        E 120 80 57 00
        E 0 80 63 00
        E 0 90 64 60
        E 120 80 64 00
        E 0 90 48 60
        E 0 90 55 60
        E 0 90 61 60
        E 120 80 48 00
        E 0 80 55 00
        E 0 80 61 00
        E 0 90 63 60
        E 120 80 63 00
        E 0 90 58 60
        E 0 90 64 60
        E 120 80 58 00
        E 0 80 64 00
        E 0 90 63 60
        E 120 80 63 00
        E 0 90 3c 60
        E 0 90 48 60
        E 0 90 55 60
        E 0 90 61 60
        E 120 80 3c 00
        E 0 80 48 00
        E 0 80 55 00
        E 0 80 61 00
        E 0 90 63 60
        E 120 80 63 00
        E 0 90 58 60
        E 0 90 64 60
        E 120 80 58 00
        E 0 80 64 00
        E 0 90 61 60
        E 120 80 61 00
        E 0 90 4a 60
        E 0 90 57 60
        E 0 90 63 60
        E 120 80 4a 00
        E 0 80 57 00
        E 0 80 63 00
        E 0 90 64 60
        E 120 80 64 00
        E 0 90 55 60
        E 0 90 61 60
        E 120 80 55 00
        E 0 80 61 00
        E 0 90 63 60
        E 120 80 63 00
        E 0 90 3e 60
        E 0 90 4b 60
        E 0 90 58 60
        E 0 90 64 60
        E 120 80 3e 00
        E 0 80 4b 00
        E 0 80 58 00
        E 0 80 64 00
        E 0 90 61 60
        E 120 80 61 00
        E 0 90 57 60
        E 0 90 63 60
        E 120 80 57 00
        E 0 80 63 00
        E 0 90 64 60
        E 120 80 64 00
        E 0 90 48 60
        E 0 90 55 60
        E 0 90 61 60
        E 120 80 48 00
        E 0 80 55 00
        E 0 80 61 00
        E 0 90 63 60
        E 120 80 63 00
        E 0 90 58 60
        E 0 90 64 60
        E 120 80 58 00
        E 0 80 64 00
        E 0 90 63 60
        E 120 80 63 00
        E 0 90 3c 60
        E 0 90 48 60
        E 0 90 55 60
        E 0 90 61 60
        E 120 80 3c 00
        E 0 80 48 00
        E 0 80 55 00
        E 0 80 61 00
        E 0 90 63 60
        E 120 80 63 00
        E 0 90 58 60
        E 0 90 64 60
        E 120 80 58 00
        E 0 80 64 00
        E 0 90 61 60
        E 120 80 61 00
        E 0 90 4a 60
        E 0 90 57 60
        E 0 90 63 60
        E 120 80 4a 00
        E 0 80 57 00
        E 0 80 63 00
        E 0 90 64 60
        E 120 80 64 00
        E 0 90 55 60
        E 0 90 61 60
        E 120 80 55 00
        E 0 80 61 00
        E 0 90 63 60
        E 120 80 63 00
        E 0 90 3e 60
        E 0 90 4b 60
        E 0 90 58 60
        E 0 90 64 60
        E 120 80 3e 00
        E 0 80 4b 00
        E 0 80 58 00
        E 0 80 64 00
        E 0 90 61 60
        E 120 80 61 00
        E 0 90 57 60
        E 0 90 63 60
        E 120 80 57 00
        E 0 80 63 00
        E 0 90 64 60
        E 120 80 64 00
        E 0 90 48 60
        E 0 90 55 60
        E 0 90 61 60
        E 120 80 48 00
        E 0 80 55 00
        E 0 80 61 00
        E 0 90 63 60
        E 120 80 63 00
        E 0 90 58 60
        E 0 90 64 60
        E 120 80 58 00
        E 0 80 64 00
        E 0 90 63 60
        E 120 80 63 00
        E 0 90 3c 60
        E 0 90 48 60
        E 0 90 55 60
        E 0 90 61 60
        E 120 80 3c 00
        E 0 80 48 00
        E 0 80 55 00
        E 0 80 61 00
        E 0 90 63 60
        E 120 80 63 00
        E 0 90 58 60
        E 0 90 64 60
        E 120 80 58 00
        E 0 80 64 00
        E 0 90 61 60
        E 120 80 61 00
        E 0 90 4a 60
        E 0 90 57 60
        E 0 90 63 60
        E 120 80 4a 00
        E 0 80 57 00
        E 0 80 63 00
        E 0 90 64 60
        E 120 80 64 00
        E 0 90 55 60
        E 0 90 61 60
        E 120 80 55 00
        E 0 80 61 00
        E 0 90 63 60
        E 120 80 63 00
        E 0 90 3e 60
        E 0 90 4b 60
        E 0 90 58 60
        E 0 90 64 60
        E 120 80 3e 00
        E 0 80 4b 00
        E 0 80 58 00
        E 0 80 64 00
        E 0 90 61 60
        E 120 80 61 00
        E 0 90 57 60
        E 0 90 63 60
        E 120 80 57 00
        E 0 80 63 00
        E 0 90 64 60
        E 120 80 64 00
        E 0 90 48 60
        E 0 90 55 60
        E 0 90 61 60
        E 120 80 48 00
        E 0 80 55 00
        E 0 80 61 00
        E 0 90 63 60
        E 120 80 63 00
        E 0 90 58 60
        E 0 90 64 60
        E 120 80 58 00
        E 0 80 64 00
        E 0 90 63 60
        E 120 80 63 00
        E 0 90 3c 60
        E 0 90 48 60
        E 0 90 55 60
        E 0 90 61 60
        E 120 80 3c 00
        E 0 80 48 00
        E 0 80 55 00
        E 0 80 61 00
        E 0 90 63 60
        E 120 80 63 00
        E 0 90 58 60
        E 0 90 64 60
        E 120 80 58 00
        E 0 80 64 00
        E 0 90 61 60
        E 120 80 61 00
        E 0 90 4a 60
        E 0 90 57 60
        E 0 90 63 60
        E 120 80 4a 00
        E 0 80 57 00
        E 0 80 63 00
        E 0 90 64 60
        E 120 80 64 00
        E 0 90 55 60
        E 0 90 61 60
        E 120 80 55 00
        E 0 80 61 00
        E 0 90 63 60
        E 120 80 63 00
        E 0 90 3e 60
        E 0 90 4b 60
        E 0 90 58 60
        E 0 90 64 60
        E 120 80 3e 00
        E 0 80 4b 00
        E 0 80 58 00
        E 0 80 64 00
        E 0 90 61 60
        E 120 80 61 00
        E 0 90 57 60
        E 0 90 63 60
        E 120 80 57 00
        E 0 80 63 00
        E 0 90 64 60
        E 120 80 64 00
        E 0 90 48 60
        E 0 90 55 60
        E 0 90 61 60
        E 120 80 48 00
        E 0 80 55 00
        E 0 80 61 00
        E 0 90 63 60
        E 120 80 63 00
        E 0 90 58 60
        E 0 90 64 60
        E 120 80 58 00
        E 0 80 64 00
        E 0 90 63 60
        E 120 80 63 00
        E 0 90 3c 60
        E 0 90 48 60
        E 0 90 55 60
        E 0 90 61 60
        E 120 80 3c 00
        E 0 80 48 00
        E 0 80 55 00
        E 0 80 61 00
        E 0 90 63 60
        E 120 80 63 00
        E 0 90 58 60
        E 0 90 64 60
        E 120 80 58 00
        E 0 80 64 00
        E 0 90 61 60
        E 120 80 61 00
        E 0 90 4a 60
        E 0 90 57 60
        E 0 90 63 60
        E 120 80 4a 00
        E 0 80 57 00
        E 0 80 63 00
        E 0 90 64 60
        E 120 80 64 00
        E 0 90 55 60
        E 0 90 61 60
        E 120 80 55 00
        E 0 80 61 00
        E 0 90 63 60
        E 120 80 63 00
        E 0 90 3e 60
        E 0 90 4b 60
        E 0 90 58 60
        E 0 90 64 60
        E 120 80 3e 00
        E 0 80 4b 00
        E 0 80 58 00
        E 0 80 64 00
        E 0 90 61 60
        E 120 80 61 00
        E 0 90 57 60
        E 0 90 63 60
        E 120 80 57 00
        E 0 80 63 00
        E 0 90 64 60
        E 120 80 64 00
        E 0 90 48 60
        E 0 90 55 60
        E 0 90 61 60
        E 120 80 48 00
        E 0 80 55 00
        E 0 80 61 00
        E 0 90 63 60
        E 120 80 63 00
        E 0 90 58 60
        E 0 90 64 60
        E 120 80 58 00
        E 0 80 64 00
        E 0 90 63 60
        E 120 80 63 00
        E 0 90 3c 60
        E 0 90 48 60
        E 0 90 55 60
        E 0 90 61 60
        E 120 80 3c 00
        E 0 80 48 00
        E 0 80 55 00
        E 0 80 61 00
        E 0 90 63 60
        E 120 80 63 00
        E 0 90 58 60
        E 0 90 64 60
        E 120 80 58 00
        E 0 80 64 00
        E 0 90 61 60
        E 120 80 61 00
        E 0 90 4a 60
        E 0 90 57 60
        E 0 90 63 60
        E 120 80 4a 00
        E 0 80 57 00
        E 0 80 63 00
        E 0 90 64 60
        E 120 80 64 00
        E 0 90 55 60
        E 0 90 61 60
        E 120 80 55 00
        E 0 80 61 00
        E 0 90 63 60
        E 120 80 63 00
        E 0 90 3e 60
        E 0 90 4b 60
        E 0 90 58 60
        E 0 90 64 60
        E 120 80 3e 00
        E 0 80 4b 00
        E 0 80 58 00
        E 0 80 64 00
        E 0 90 61 60
        E 120 80 61 00
        E 0 90 57 60
        E 0 90 63 60
        E 120 80 57 00
        E 0 80 63 00
        E 0 90 64 60
        E 120 80 64 00
        E 0 90 48 60
        E 0 90 55 60
        E 0 90 61 60
        E 120 80 48 00
        E 0 80 55 00
        E 0 80 61 00
        E 0 90 63 60
        E 120 80 63 00
        E 0 90 58 60
        E 0 90 64 60
        E 120 80 58 00
        E 0 80 64 00
        E 0 90 63 60
        E 120 80 63 00
        E 0 90 3c 60
        E 0 90 48 60
        E 0 90 55 60
        E 0 90 61 60
        E 120 80 3c 00
        E 0 80 48 00
        E 0 80 55 00
        E 0 80 61 00
        E 0 90 63 60
        E 120 80 63 00
        E 0 90 58 60
        E 0 90 64 60
        E 120 80 58 00
        E 0 80 64 00
        E 0 90 61 60
        E 120 80 61 00
        E 0 90 4a 60
        E 0 90 57 60
        E 0 90 63 60
        E 120 80 4a 00
        E 0 80 57 00
        E 0 80 63 00
        E 0 90 64 60
        E 120 80 64 00
        E 0 90 55 60
        E 0 90 61 60
        E 120 80 55 00
        E 0 80 61 00
        E 0 90 63 60
        E 120 80 63 00
        E 0 90 3e 60
        E 0 90 4b 60
        E 0 90 58 60
        E 0 90 64 60
        E 120 80 3e 00
        E 0 80 4b 00
        E 0 80 58 00
        E 0 80 64 00
        E 0 90 61 60
        E 120 80 61 00
        E 0 90 57 60
        E 0 90 63 60
        E 120 80 57 00
        E 0 80 63 00
        E 0 90 64 60
        E 120 80 64 00
        E 0 90 48 60
        E 0 90 55 60
        E 0 90 61 60
        E 120 80 48 00
        E 0 80 55 00
        E 0 80 61 00
        E 0 90 63 60
        E 120 80 63 00
        E 0 90 58 60
        E 0 90 64 60
        E 120 80 58 00
        E 0 80 64 00
        E 0 90 63 60
        E 120 80 63 00
        E 0 90 3c 60
        E 0 90 48 60
        E 0 90 55 60
        E 0 90 61 60
        E 120 80 3c 00
        E 0 80 48 00
        E 0 80 55 00
        E 0 80 61 00
        E 0 90 63 60
        E 120 80 63 00
        E 0 90 58 60
        E 0 90 64 60
        E 120 80 58 00
        E 0 80 64 00
        E 0 90 61 60
        E 120 80 61 00
        E 0 90 4a 60
        E 0 90 57 60
        E 0 90 63 60
        E 120 80 4a 00
        E 0 80 57 00
        E 0 80 63 00
        E 0 90 64 60
        E 120 80 64 00
        E 0 90 55 60
        E 0 90 61 60
        E 120 80 55 00
        E 0 80 61 00
        E 0 90 63 60
        E 120 80 63 00
        E 0 90 3e 60
        E 0 90 4b 60
        E 0 90 58 60
        E 0 90 64 60
        E 120 80 3e 00
        E 0 80 4b 00
        E 0 80 58 00
        E 0 80 64 00
        E 0 90 61 60
        E 120 80 61 00
        E 0 90 57 60
        E 0 90 63 60
        E 120 80 57 00
        E 0 80 63 00
        E 0 90 64 60
        E 120 80 64 00
        E 0 90 48 60
        E 0 90 55 60
        E 0 90 61 60
        E 120 80 48 00
        E 0 80 55 00
        E 0 80 61 00
        E 0 90 63 60
        E 120 80 63 00
        E 0 90 58 60
        E 0 90 64 60
        E 120 80 58 00
        E 0 80 64 00
        E 0 90 63 60
        E 120 80 63 00
        E 0 90 3c 60
        E 0 90 48 60
        E 0 90 55 60
        E 0 90 61 60
        E 120 80 3c 00
        E 0 80 48 00
        E 0 80 55 00
        E 0 80 61 00
        E 0 90 63 60
        E 120 80 63 00
        E 0 90 58 60
        E 0 90 64 60
        E 120 80 58 00
        E 0 80 64 00
        E 0 90 61 60
        E 120 80 61 00
        E 0 90 4a 60
        E 0 90 57 60
        E 0 90 63 60
        E 120 80 4a 00
        E 0 80 57 00
        E 0 80 63 00
        E 0 90 64 60
        E 120 80 64 00
        E 0 90 55 60
        E 0 90 61 60
        E 120 80 55 00
        E 0 80 61 00
        E 0 90 63 60
        E 120 80 63 00
        E 0 90 3e 60
        E 0 90 4b 60
        E 0 90 58 60
        E 0 90 64 60
        E 120 80 3e 00
        E 0 80 4b 00
        E 0 80 58 00
        E 0 80 64 00
        E 0 90 61 60
        E 120 80 61 00
        E 0 90 57 60
        E 0 90 63 60
        E 120 80 57 00
        E 0 80 63 00
        E 0 90 64 60
        E 120 80 64 00
        E 0 90 48 60
        E 0 90 55 60
        E 0 90 61 60
        E 120 80 48 00
        E 0 80 55 00
        E 0 80 61 00
        E 0 90 63 60
        E 120 80 63 00
        E 0 90 58 60
        E 0 90 64 60
        E 120 80 58 00
        E 0 80 64 00
        E 0 90 63 60
        <X 120 0
          /wFbbWVsbG93XQ==
        >
        E 0 80 63 00
        E 0 90 3e 60
        E 0 90 4a 60
        E 0 90 4b 60
        E 0 90 56 60
        E 0 90 58 60
        E 0 90 61 60
        E 0 90 63 60
        E 0 90 64 60
        E 0 90 74 60
        E 120 80 65 00
        E 0 80 59 00
        E 1320 80 3e 00
        E 0 80 4a 00
        E 0 80 4b 00
        E 360 80 56 00
        E 0 80 58 00
        E 0 80 61 00
        E 0 80 63 00
        E 120 80 74 00
        E 0 90 3d 60
        E 0 90 49 60
        E 0 90 56 60
        E 0 90 62 60
        E 1440 80 3d 00
        E 0 80 49 00
        E 360 80 64 00
        E 0 80 56 00
        E 0 80 62 00
        E 120 90 3d 60
        E 0 90 48 60
        E 0 90 4a 60
        E 0 90 54 60
        E 0 90 56 60
        E 0 90 60 60
        E 0 90 61 60
        E 0 90 63 60
        E 1440 80 3d 00
        E 0 80 48 00
        E 0 80 4a 00
        E 360 80 54 00
        E 0 80 56 00
        E 0 80 60 00
        E 0 80 61 00
        E 0 80 63 00
        E 120 90 3e 60
        E 0 90 4a 60
        E 0 90 4b 60
        E 0 90 56 60
        E 0 90 58 60
        E 0 90 62 60
        E 0 90 64 60
        E 1440 80 3e 00
        E 0 80 4a 00
        E 0 80 4b 00
        E 360 80 56 00
        E 0 80 62 00
        E 120 90 3e 60
        E 0 90 49 60
        E 0 90 4b 60
        E 0 90 55 60
        E 0 90 57 60
        E 0 90 61 60
        E 0 90 63 60
        E 1440 80 3e 00
        E 0 80 49 00
        E 0 80 4b 00
        E 360 80 55 00
        E 0 80 57 00
        E 0 80 61 00
        E 0 80 63 00
        E 120 90 3d 60
        E 0 90 49 60
        E 0 90 56 60
        E 0 90 62 60
        E 1440 80 3d 00
        E 0 80 49 00
        E 360 80 58 00
        E 0 80 64 00
        E 0 80 56 00
        E 0 80 62 00
        E 120 90 3d 60
        E 0 90 48 60
        E 0 90 4a 60
        E 0 90 54 60
        E 0 90 56 60
        E 0 90 60 60
        E 0 90 61 60
        E 0 90 63 60
        E 1440 80 3d 00
        E 0 80 48 00
        E 0 80 4a 00
        E 360 80 54 00
        E 0 80 56 00
        E 0 80 60 00
        E 0 80 61 00
        E 0 80 63 00
        E 120 90 3e 60
        E 0 90 4a 60
        E 0 90 4b 60
        E 0 90 56 60
        E 0 90 58 60
        E 0 90 62 60
        E 0 90 64 60
        E 1440 80 3e 00
        E 0 80 4a 00
        E 0 80 4b 00
        E 360 80 56 00
        E 0 80 62 00
        E 120 90 3e 60
        E 0 90 49 60
        E 0 90 4b 60
        E 0 90 55 60
        E 0 90 57 60
        E 0 90 61 60
        E 0 90 63 60
        E 1440 80 3e 00
        E 0 80 49 00
        E 0 80 4b 00
        E 360 80 55 00
        E 0 80 57 00
        E 0 80 61 00
        E 0 80 63 00
        E 120 90 3d 60
        E 0 90 49 60
        E 0 90 56 60
        E 0 90 62 60
        E 1440 80 3d 00
        E 0 80 49 00
        E 360 80 58 00
        E 0 80 64 00
        E 0 80 56 00
        E 0 80 62 00
        E 120 90 3d 60
        E 0 90 48 60
        E 0 90 4a 60
        E 0 90 54 60
        E 0 90 56 60
        E 0 90 60 60
        E 0 90 61 60
        E 0 90 63 60
        E 1440 80 3d 00
        E 0 80 48 00
        E 0 80 4a 00
        E 360 80 54 00
        E 0 80 56 00
        E 0 80 60 00
        E 0 80 61 00
        E 0 80 63 00
        E 120 90 3e 60
        E 0 90 4a 60
        E 0 90 4b 60
        E 0 90 56 60
        E 0 90 58 60
        E 0 90 62 60
        E 0 90 64 60
        E 0 90 74 60
        E 1440 80 3e 00
        E 0 80 4a 00
        E 0 80 4b 00
        E 360 80 56 00
        E 0 80 62 00
        E 120 90 3e 60
        E 0 90 49 60
        E 0 90 4b 60
        E 0 90 55 60
        E 0 90 57 60
        E 0 90 61 60
        E 0 90 63 60
        E 1440 80 3e 00
        E 0 80 49 00
        E 0 80 4b 00
        E 360 80 55 00
        E 0 80 57 00
        E 0 80 61 00
        E 0 80 63 00
        E 120 80 74 00
        E 0 90 3d 60
        E 0 90 49 60
        E 0 90 56 60
        E 0 90 62 60
        E 1440 80 3d 00
        E 0 80 49 00
        E 360 80 58 00
        E 0 80 64 00
        E 0 80 56 00
        E 0 80 62 00
        E 120 90 3d 60
        E 0 90 48 60
        E 0 90 4a 60
        E 0 90 54 60
        E 0 90 56 60
        E 0 90 60 60
        E 0 90 61 60
        E 0 90 63 60
        E 1440 80 3d 00
        E 0 80 48 00
        E 0 80 4a 00
        E 360 80 54 00
        E 0 80 56 00
        E 0 80 60 00
        E 0 80 61 00
        E 0 80 63 00
        E 120 90 3e 60
        E 0 90 4a 60
        E 0 90 4b 60
        E 0 90 56 60
        E 0 90 58 60
        E 0 90 62 60
        E 0 90 64 60
        E 1440 80 3e 00
        E 0 80 4a 00
        E 0 80 4b 00
        E 360 80 56 00
        E 0 80 62 00
        <X 120 0
          /wFbcGxheV0=
        >
        E 0 90 3e 60
        E 0 90 49 60
        E 0 90 4b 60
        E 0 90 55 60
        E 0 90 57 60
        E 0 90 61 60
        E 0 90 63 60
        E 1440 80 3e 00
        E 0 80 49 00
        E 0 80 4b 00
        E 360 80 55 00
        E 0 80 57 00
        E 0 80 61 00
        E 0 80 63 00
        E 120 90 3d 60
        E 0 90 49 60
        E 0 90 56 60
        E 0 90 62 60
        E 1440 80 3d 00
        E 0 80 49 00
        E 360 80 58 00
        E 0 80 64 00
        E 0 80 56 00
        E 0 80 62 00
        E 120 90 3d 60
        E 0 90 48 60
        E 0 90 4a 60
        E 0 90 54 60
        E 0 90 56 60
        E 0 90 60 60
        E 0 90 61 60
        E 0 90 63 60
        E 1440 80 3d 00
        E 0 80 48 00
        E 0 80 4a 00
        E 360 80 54 00
        E 0 80 56 00
        E 0 80 60 00
        E 0 80 61 00
        E 0 80 63 00
        E 120 90 3e 60
        E 0 90 4a 60
        E 0 90 4b 60
        E 0 90 56 60
        E 0 90 58 60
        E 0 90 62 60
        E 0 90 64 60
        E 1440 80 3e 00
        E 0 80 4a 00
        E 0 80 4b 00
        E 360 80 56 00
        E 0 80 62 00
        E 120 90 3e 60
        E 0 90 49 60
        E 0 90 4b 60
        E 0 90 55 60
        E 0 90 57 60
        E 0 90 61 60
        E 0 90 63 60
        E 1440 80 3e 00
        E 0 80 49 00
        E 0 80 4b 00
        E 360 80 55 00
        E 0 80 57 00
        E 0 80 61 00
        E 0 80 63 00
        E 120 90 3d 60
        E 0 90 49 60
        E 0 90 56 60
        E 0 90 62 60
        E 1440 80 3d 00
        E 0 80 49 00
        E 360 80 58 00
        E 0 80 64 00
        E 0 80 56 00
        E 0 80 62 00
        E 120 90 3d 60
        E 0 90 48 60
        E 0 90 4a 60
        E 0 90 54 60
        E 0 90 56 60
        E 0 90 60 60
        E 0 90 61 60
        E 0 90 63 60
        E 1440 80 3d 00
        E 0 80 48 00
        E 0 80 4a 00
        E 360 80 54 00
        E 0 80 56 00
        E 0 80 60 00
        E 0 80 61 00
        E 0 80 63 00
        E 120 90 3e 60
        E 0 90 4a 60
        E 0 90 4b 60
        E 0 90 56 60
        E 0 90 58 60
        E 0 90 62 60
        E 0 90 64 60
        E 1440 80 3e 00
        E 0 80 4a 00
        E 0 80 4b 00
        E 360 80 56 00
        E 0 80 62 00
        E 120 90 3e 60
        E 0 90 49 60
        E 0 90 4b 60
        E 0 90 55 60
        E 0 90 57 60
        E 0 90 61 60
        E 0 90 63 60
        E 1440 80 3e 00
        E 0 80 49 00
        E 0 80 4b 00
        E 360 80 55 00
        E 0 80 57 00
        E 0 80 61 00
        E 0 80 63 00
        E 120 90 3d 60
        E 0 90 49 60
        E 0 90 56 60
        E 0 90 62 60
        E 1440 80 3d 00
        E 0 80 49 00
        E 360 80 58 00
        E 0 80 64 00
        E 0 80 56 00
        E 0 80 62 00
        E 120 90 3d 60
        E 0 90 48 60
        E 0 90 4a 60
        E 0 90 54 60
        E 0 90 56 60
        E 0 90 60 60
        E 0 90 61 60
        E 0 90 63 60
        E 1440 80 3d 00
        E 0 80 48 00
        E 0 80 4a 00
        E 360 80 54 00
        E 0 80 56 00
        E 0 80 60 00
        E 0 80 61 00
        E 0 80 63 00
        E 120 90 3e 60
        E 0 90 4a 60
        E 0 90 4b 60
        E 0 90 56 60
        E 0 90 58 60
        E 0 90 62 60
        E 0 90 64 60
        E 1440 80 3e 00
        E 0 80 4a 00
        E 0 80 4b 00
        E 360 80 56 00
        E 0 80 62 00
        E 120 90 3e 60
        E 0 90 49 60
        E 0 90 4b 60
        E 0 90 55 60
        E 0 90 57 60
        E 0 90 61 60
        E 0 90 63 60
        E 0 90 74 60
        E 1440 80 3e 00
        E 0 80 49 00
        E 0 80 4b 00
        E 360 80 55 00
        E 0 80 57 00
        E 0 80 61 00
        E 0 80 63 00
        E 120 90 3d 60
        E 0 90 49 60
        E 0 90 56 60
        E 0 90 62 60
        E 1440 80 3d 00
        E 0 80 49 00
        E 360 80 58 00
        E 0 80 64 00
        E 0 80 56 00
        E 0 80 62 00
        E 120 80 74 00
        E 0 90 3d 60
        E 0 90 48 60
        E 0 90 4a 60
        E 0 90 54 60
        E 0 90 56 60
        E 0 90 60 60
        E 0 90 61 60
        E 0 90 63 60
        E 1440 80 3d 00
        E 0 80 48 00
        E 0 80 4a 00
        E 360 80 54 00
        E 0 80 56 00
        E 0 80 60 00
        E 0 80 61 00
        E 0 80 63 00
        E 120 90 3e 60
        E 0 90 4a 60
        E 0 90 4b 60
        E 0 90 56 60
        E 0 90 58 60
        E 0 90 62 60
        E 0 90 64 60
        E 1440 80 3e 00
        E 0 80 4a 00
        E 0 80 4b 00
        E 360 80 56 00
        E 0 80 58 00
        E 0 80 62 00
        E 0 80 64 00
        E 120 90 3c 60
        E 0 90 48 60
        E 0 90 55 60
        E 0 90 61 60
        E 120 80 3c 00
        E 0 80 48 00
        E 0 80 55 00
        E 0 80 61 00
        E 0 90 63 60
        E 0 90 65 60
        E 120 80 63 00
        E 0 90 58 60
        E 0 90 59 60
        E 0 90 64 60
        E 120 80 58 00
        E 0 80 64 00
        E 0 90 61 60
        E 120 80 61 00
        E 0 90 4a 60
        E 0 90 57 60
        E 0 90 63 60
        E 120 80 4a 00
        E 0 80 57 00
        E 0 80 63 00
        E 0 90 64 60
        E 120 80 64 00
        E 0 90 55 60
        E 0 90 61 60
        E 120 80 55 00
        E 0 80 61 00
        E 0 90 63 60
        E 120 80 63 00
        E 0 90 3e 60
        E 0 90 4b 60
        E 0 90 58 60
        E 0 90 64 60
        E 120 80 3e 00
        E 0 80 4b 00
        E 0 80 58 00
        E 0 80 64 00
        E 0 90 61 60
        E 120 80 61 00
        E 0 90 57 60
        E 0 90 63 60
        E 120 80 57 00
        E 0 80 63 00
        E 0 90 64 60
        E 120 80 64 00
        E 0 90 48 60
        E 0 90 55 60
        E 0 90 61 60
        E 120 80 48 00
        E 0 80 55 00
        E 0 80 61 00
        E 0 90 63 60
        E 120 80 63 00
        E 0 90 58 60
        E 0 90 64 60
        E 120 80 58 00
        E 0 80 64 00
        E 0 90 63 60
        E 120 80 63 00
        E 0 90 3c 60
        E 0 90 48 60
        E 0 90 55 60
        E 0 90 61 60
        E 120 80 3c 00
        E 0 80 48 00
        E 0 80 55 00
        E 0 80 61 00
        E 0 90 63 60
        E 120 80 63 00
        E 0 90 58 60
        E 0 90 64 60
        E 120 80 58 00
        E 0 80 64 00
        E 0 90 61 60
        E 120 80 61 00
        E 0 90 4a 60
        E 0 90 57 60
        E 0 90 63 60
        E 120 80 4a 00
        E 0 80 57 00
        E 0 80 63 00
        E 0 90 64 60
        E 120 80 64 00
        E 0 90 55 60
        E 0 90 61 60
        E 120 80 55 00
        E 0 80 61 00
        E 0 90 63 60
        E 120 80 63 00
        E 0 90 3e 60
        E 0 90 4b 60
        E 0 90 58 60
        E 0 90 64 60
        E 120 80 3e 00
        E 0 80 4b 00
        E 0 80 58 00
        E 0 80 64 00
        E 0 90 61 60
        E 120 80 61 00
        E 0 90 57 60
        E 0 90 63 60
        E 120 80 57 00
        E 0 80 63 00
        E 0 90 64 60
        E 120 80 64 00
        E 0 90 48 60
        E 0 90 55 60
        E 0 90 61 60
        E 120 80 48 00
        E 0 80 55 00
        E 0 80 61 00
        E 0 90 63 60
        E 120 80 63 00
        E 0 90 58 60
        E 0 90 64 60
        E 120 80 58 00
        E 0 80 64 00
        E 0 90 63 60
        E 120 80 63 00
        E 0 90 3c 60
        E 0 90 48 60
        E 0 90 55 60
        E 0 90 61 60
        E 120 80 3c 00
        E 0 80 48 00
        E 0 80 55 00
        E 0 80 61 00
        E 0 90 63 60
        E 120 80 63 00
        E 0 90 58 60
        E 0 90 64 60
        E 120 80 58 00
        E 0 80 64 00
        E 0 90 61 60
        E 120 80 61 00
        E 0 90 4a 60
        E 0 90 57 60
        E 0 90 63 60
        E 120 80 4a 00
        E 0 80 57 00
        E 0 80 63 00
        E 0 90 64 60
        E 120 80 64 00
        E 0 90 55 60
        E 0 90 61 60
        E 120 80 55 00
        E 0 80 61 00
        E 0 90 63 60
        E 120 80 63 00
        E 0 90 3e 60
        E 0 90 4b 60
        E 0 90 58 60
        E 0 90 64 60
        E 120 80 3e 00
        E 0 80 4b 00
        E 0 80 58 00
        E 0 80 64 00
        E 0 90 61 60
        E 120 80 61 00
        E 0 90 57 60
        E 0 90 63 60
        E 120 80 57 00
        E 0 80 63 00
        E 0 90 64 60
        E 120 80 64 00
        E 0 90 48 60
        E 0 90 55 60
        E 0 90 61 60
        E 120 80 48 00
        E 0 80 55 00
        E 0 80 61 00
        E 0 90 63 60
        E 120 80 63 00
        E 0 90 58 60
        E 0 90 64 60
        E 120 80 58 00
        E 0 80 64 00
        E 0 90 63 60
        E 120 80 63 00
        E 0 90 3c 60
        E 0 90 48 60
        E 0 90 55 60
        E 0 90 61 60
        E 120 80 3c 00
        E 0 80 48 00
        E 0 80 55 00
        E 0 80 61 00
        E 0 90 63 60
        E 120 80 63 00
        E 0 90 58 60
        E 0 90 64 60
        E 120 80 58 00
        E 0 80 64 00
        E 0 90 61 60
        E 120 80 61 00
        E 0 90 4a 60
        E 0 90 57 60
        E 0 90 63 60
        E 120 80 4a 00
        E 0 80 57 00
        E 0 80 63 00
        E 0 90 64 60
        E 120 80 64 00
        E 0 90 55 60
        E 0 90 61 60
        E 120 80 55 00
        E 0 80 61 00
        E 0 90 63 60
        E 120 80 63 00
        E 0 90 3e 60
        E 0 90 4b 60
        E 0 90 58 60
        E 0 90 64 60
        E 120 80 3e 00
        E 0 80 4b 00
        E 0 80 58 00
        E 0 80 64 00
        E 0 90 61 60
        E 120 80 61 00
        E 0 90 57 60
        E 0 90 63 60
        E 120 80 57 00
        E 0 80 63 00
        E 0 90 64 60
        E 120 80 64 00
        E 0 90 48 60
        E 0 90 55 60
        E 0 90 61 60
        E 120 80 48 00
        E 0 80 55 00
        E 0 80 61 00
        E 0 90 63 60
        E 120 80 63 00
        E 0 90 58 60
        E 0 90 64 60
        E 120 80 58 00
        E 0 80 64 00
        E 0 90 63 60
        E 120 80 63 00
        E 0 90 3c 60
        E 0 90 48 60
        E 0 90 55 60
        E 0 90 61 60
        E 120 80 3c 00
        E 0 80 48 00
        E 0 80 55 00
        E 0 80 61 00
        E 0 90 63 60
        E 120 80 63 00
        E 0 90 58 60
        E 0 90 64 60
        E 120 80 58 00
        E 0 80 64 00
        E 0 90 61 60
        E 120 80 61 00
        E 0 90 4a 60
        E 0 90 57 60
        E 0 90 63 60
        E 120 80 4a 00
        E 0 80 57 00
        E 0 80 63 00
        E 0 90 64 60
        E 120 80 64 00
        E 0 90 55 60
        E 0 90 61 60
        E 120 80 55 00
        E 0 80 61 00
        E 0 90 63 60
        E 120 80 63 00
        E 0 90 3e 60
        E 0 90 4b 60
        E 0 90 58 60
        E 0 90 64 60
        E 120 80 3e 00
        E 0 80 4b 00
        E 0 80 58 00
        E 0 80 64 00
        E 0 90 61 60
        E 120 80 61 00
        E 0 90 57 60
        E 0 90 63 60
        E 120 80 57 00
        E 0 80 63 00
        E 0 90 64 60
        E 120 80 64 00
        E 0 90 48 60
        E 0 90 55 60
        E 0 90 61 60
        E 120 80 48 00
        E 0 80 55 00
        E 0 80 61 00
        E 0 90 63 60
        E 120 80 63 00
        E 0 90 58 60
        E 0 90 64 60
        E 120 80 58 00
        E 0 80 64 00
        E 0 90 63 60
        E 120 80 63 00
        E 0 90 3c 60
        E 0 90 48 60
        E 0 90 55 60
        E 0 90 61 60
        E 120 80 3c 00
        E 0 80 48 00
        E 0 80 55 00
        E 0 80 61 00
        E 0 90 63 60
        E 120 80 63 00
        E 0 90 58 60
        E 0 90 64 60
        E 120 80 58 00
        E 0 80 64 00
        E 0 90 61 60
        E 120 80 61 00
        E 0 90 4a 60
        E 0 90 57 60
        E 0 90 63 60
        E 120 80 4a 00
        E 0 80 57 00
        E 0 80 63 00
        E 0 90 64 60
        E 120 80 64 00
        E 0 90 55 60
        E 0 90 61 60
        E 120 80 55 00
        E 0 80 61 00
        E 0 90 63 60
        E 120 80 63 00
        E 0 90 3e 60
        E 0 90 4b 60
        E 0 90 58 60
        E 0 90 64 60
        E 120 80 3e 00
        E 0 80 4b 00
        E 0 80 58 00
        E 0 80 64 00
        E 0 90 61 60
        E 120 80 61 00
        E 0 90 57 60
        E 0 90 63 60
        E 120 80 57 00
        E 0 80 63 00
        E 0 90 64 60
        E 120 80 64 00
        E 0 90 48 60
        E 0 90 55 60
        E 0 90 61 60
        E 120 80 48 00
        E 0 80 55 00
        E 0 80 61 00
        E 0 90 63 60
        E 120 80 63 00
        E 0 90 58 60
        E 0 90 64 60
        E 120 80 58 00
        E 0 80 64 00
        E 0 90 63 60
        E 120 80 63 00
        E 0 90 3c 60
        E 0 90 48 60
        E 0 90 55 60
        E 0 90 61 60
        E 120 80 3c 00
        E 0 80 48 00
        E 0 80 55 00
        E 0 80 61 00
        E 0 90 63 60
        E 120 80 63 00
        E 0 90 58 60
        E 0 90 64 60
        E 120 80 58 00
        E 0 80 64 00
        E 0 90 61 60
        E 120 80 61 00
        E 0 90 4a 60
        E 0 90 57 60
        E 0 90 63 60
        E 120 80 4a 00
        E 0 80 57 00
        E 0 80 63 00
        E 0 90 64 60
        E 120 80 64 00
        E 0 90 55 60
        E 0 90 61 60
        E 120 80 55 00
        E 0 80 61 00
        E 0 90 63 60
        E 120 80 63 00
        E 0 90 3e 60
        E 0 90 4b 60
        E 0 90 58 60
        E 0 90 64 60
        E 120 80 3e 00
        E 0 80 4b 00
        E 0 80 58 00
        E 0 80 64 00
        E 0 90 61 60
        E 120 80 61 00
        E 0 90 57 60
        E 0 90 63 60
        E 120 80 57 00
        E 0 80 63 00
        E 0 90 64 60
        E 120 80 64 00
        E 0 90 48 60
        E 0 90 55 60
        E 0 90 61 60
        E 120 80 48 00
        E 0 80 55 00
        E 0 80 61 00
        E 0 90 63 60
        E 120 80 63 00
        E 0 90 58 60
        E 0 90 64 60
        E 120 80 58 00
        E 0 80 64 00
        E 0 90 63 60
        E 120 80 63 00
        E 0 90 3c 60
        E 0 90 48 60
        E 0 90 55 60
        E 0 90 61 60
        E 120 80 3c 00
        E 0 80 48 00
        E 0 80 55 00
        E 0 80 61 00
        E 0 90 63 60
        E 120 80 63 00
        E 0 90 58 60
        E 0 90 64 60
        E 120 80 58 00
        E 0 80 64 00
        E 0 90 61 60
        E 120 80 61 00
        E 0 90 4a 60
        E 0 90 57 60
        E 0 90 63 60
        E 120 80 4a 00
        E 0 80 57 00
        E 0 80 63 00
        E 0 90 64 60
        E 120 80 64 00
        E 0 90 55 60
        E 0 90 61 60
        E 120 80 55 00
        E 0 80 61 00
        E 0 90 63 60
        E 120 80 63 00
        E 0 90 3e 60
        E 0 90 4b 60
        E 0 90 58 60
        E 0 90 64 60
        E 120 80 3e 00
        E 0 80 4b 00
        E 0 80 58 00
        E 0 80 64 00
        E 0 90 61 60
        E 120 80 61 00
        E 0 90 57 60
        E 0 90 63 60
        E 120 80 57 00
        E 0 80 63 00
        E 0 90 64 60
        E 120 80 64 00
        E 0 90 48 60
        E 0 90 55 60
        E 0 90 61 60
        E 120 80 48 00
        E 0 80 55 00
        E 0 80 61 00
        E 0 90 63 60
        E 120 80 63 00
        E 0 90 58 60
        E 0 90 64 60
        E 120 80 58 00
        E 0 80 64 00
        E 0 90 63 60
        E 120 80 63 00
        E 0 90 3c 60
        E 0 90 48 60
        E 0 90 55 60
        E 0 90 61 60
        E 120 80 3c 00
        E 0 80 48 00
        E 0 80 55 00
        E 0 80 61 00
        E 0 90 63 60
        E 120 80 63 00
        E 0 90 58 60
        E 0 90 64 60
        E 120 80 58 00
        E 0 80 64 00
        E 0 90 61 60
        E 120 80 61 00
        E 0 90 4a 60
        E 0 90 57 60
        E 0 90 63 60
        E 120 80 4a 00
        E 0 80 57 00
        E 0 80 63 00
        E 0 90 64 60
        E 120 80 64 00
        E 0 90 55 60
        E 0 90 61 60
        E 120 80 55 00
        E 0 80 61 00
        E 0 90 63 60
        E 120 80 63 00
        E 0 90 3e 60
        E 0 90 4b 60
        E 0 90 58 60
        E 0 90 64 60
        E 120 80 3e 00
        E 0 80 4b 00
        E 0 80 58 00
        E 0 80 64 00
        E 0 90 61 60
        E 120 80 61 00
        E 0 90 57 60
        E 0 90 63 60
        E 120 80 57 00
        E 0 80 63 00
        E 0 90 64 60
        E 120 80 64 00
        E 0 90 48 60
        E 0 90 55 60
        E 0 90 61 60
        E 120 80 48 00
        E 0 80 55 00
        E 0 80 61 00
        E 0 90 63 60
        E 120 80 63 00
        E 0 90 58 60
        E 0 90 64 60
        E 120 80 58 00
        E 0 80 64 00
        E 0 90 63 60
        E 120 80 63 00
        E 0 90 3c 60
        E 0 90 48 60
        E 0 90 55 60
        E 0 90 61 60
        E 120 80 3c 00
        E 0 80 48 00
        E 0 80 55 00
        E 0 80 61 00
        E 0 90 63 60
        E 120 80 63 00
        E 0 90 58 60
        E 0 90 64 60
        E 120 80 58 00
        E 0 80 64 00
        E 0 90 61 60
        E 120 80 61 00
        E 0 90 4a 60
        E 0 90 57 60
        E 0 90 63 60
        E 120 80 4a 00
        E 0 80 57 00
        E 0 80 63 00
        E 0 90 64 60
        E 120 80 64 00
        E 0 90 55 60
        E 0 90 61 60
        E 120 80 55 00
        E 0 80 61 00
        E 0 90 63 60
        E 120 80 63 00
        E 0 90 3e 60
        E 0 90 4b 60
        E 0 90 58 60
        E 0 90 64 60
        E 120 80 3e 00
        E 0 80 4b 00
        E 0 80 58 00
        E 0 80 64 00
        E 0 90 61 60
        E 120 80 61 00
        E 0 90 57 60
        E 0 90 63 60
        E 120 80 57 00
        E 0 80 63 00
        E 0 90 64 60
        E 120 80 64 00
        E 0 90 48 60
        E 0 90 55 60
        E 0 90 61 60
        E 120 80 48 00
        E 0 80 55 00
        E 0 80 61 00
        E 0 90 63 60
        E 120 80 63 00
        E 0 90 58 60
        E 0 90 64 60
        E 120 80 58 00
        E 0 80 64 00
        E 0 90 63 60
        E 120 80 63 00
        E 0 90 3c 60
        E 0 90 48 60
        E 0 90 55 60
        E 0 90 61 60
        E 120 80 3c 00
        E 0 80 48 00
        E 0 80 55 00
        E 0 80 61 00
        E 0 90 63 60
        E 120 80 63 00
        E 0 90 58 60
        E 0 90 64 60
        E 120 80 58 00
        E 0 80 64 00
        E 0 90 61 60
        E 120 80 61 00
        E 0 90 4a 60
        E 0 90 57 60
        E 0 90 63 60
        E 120 80 4a 00
        E 0 80 57 00
        E 0 80 63 00
        E 0 90 64 60
        E 120 80 64 00
        E 0 90 55 60
        E 0 90 61 60
        E 120 80 55 00
        E 0 80 61 00
        E 0 90 63 60
        E 120 80 63 00
        E 0 90 3e 60
        E 0 90 4b 60
        E 0 90 58 60
        E 0 90 64 60
        E 120 80 3e 00
        E 0 80 4b 00
        E 0 80 58 00
        E 0 80 64 00
        E 0 90 61 60
        E 120 80 61 00
        E 0 90 57 60
        E 0 90 63 60
        E 120 80 57 00
        E 0 80 63 00
        E 0 90 64 60
        E 120 80 64 00
        E 0 90 48 60
        E 0 90 55 60
        E 0 90 61 60
        E 120 80 48 00
        E 0 80 55 00
        E 0 80 61 00
        E 0 90 63 60
        E 120 80 63 00
        E 0 90 58 60
        E 0 90 64 60
        E 120 80 58 00
        E 0 80 64 00
        E 0 90 63 60
        E 120 80 63 00
        E 0 90 3c 60
        E 0 90 48 60
        E 0 90 55 60
        E 0 90 61 60
        E 0 90 74 60
        E 120 80 3c 00
        E 0 80 48 00
        E 0 80 55 00
        E 0 80 61 00
        E 0 90 63 60
        E 120 80 63 00
        E 0 90 58 60
        E 0 90 64 60
        E 120 80 58 00
        E 0 80 64 00
        E 0 90 61 60
        E 120 80 61 00
        E 0 90 4a 60
        E 0 90 57 60
        E 0 90 63 60
        E 120 80 4a 00
        E 0 80 57 00
        E 0 80 63 00
        E 0 90 64 60
        E 120 80 64 00
        E 0 90 55 60
        E 0 90 61 60
        E 120 80 55 00
        E 0 80 61 00
        E 0 90 63 60
        E 120 80 63 00
        E 0 90 3e 60
        E 0 90 4b 60
        E 0 90 58 60
        E 0 90 64 60
        E 120 80 3e 00
        E 0 80 4b 00
        E 0 80 58 00
        E 0 80 64 00
        E 0 90 61 60
        E 120 80 61 00
        E 0 90 57 60
        E 0 90 63 60
        E 120 80 57 00
        E 0 80 63 00
        E 0 90 64 60
        E 120 80 64 00
        E 0 90 48 60
        E 0 90 55 60
        E 0 90 61 60
        E 120 80 48 00
        E 0 80 55 00
        E 0 80 61 00
        E 0 90 63 60
        E 120 80 63 00
        E 0 90 58 60
        E 0 90 64 60
        E 120 80 58 00
        E 0 80 64 00
        E 0 90 63 60
        E 120 80 74 00
        E 0 80 63 00
        E 0 90 3c 60
        E 0 90 48 60
        E 0 90 55 60
        E 0 90 61 60
        E 120 80 3c 00
        E 0 80 48 00
        E 0 80 55 00
        E 0 80 61 00
        E 0 90 63 60
        E 120 80 63 00
        E 0 90 58 60
        E 0 90 64 60
        E 120 80 58 00
        E 0 80 64 00
        E 0 90 61 60
        E 120 80 61 00
        E 0 90 4a 60
        E 0 90 57 60
        E 0 90 63 60
        E 120 80 4a 00
        E 0 80 57 00
        E 0 80 63 00
        E 0 90 64 60
        E 120 80 64 00
        E 0 90 55 60
        E 0 90 61 60
        E 120 80 55 00
        E 0 80 61 00
        E 0 90 63 60
        E 120 80 63 00
        E 0 90 3e 60
        E 0 90 4b 60
        E 0 90 58 60
        E 0 90 64 60
        E 120 80 3e 00
        E 0 80 4b 00
        E 0 80 58 00
        E 0 80 64 00
        E 0 90 61 60
        E 120 80 61 00
        E 0 90 57 60
        E 0 90 63 60
        E 120 80 57 00
        E 0 80 63 00
        E 0 90 64 60
        E 120 80 64 00
        E 0 90 48 60
        E 0 90 55 60
        E 0 90 61 60
        E 120 80 48 00
        E 0 80 55 00
        E 0 80 61 00
        E 0 90 63 60
        E 120 80 63 00
        E 0 90 58 60
        E 0 90 64 60
        E 120 80 58 00
        E 0 80 64 00
        E 0 90 63 60
        E 120 80 63 00
        E 0 90 3c 60
        E 0 90 48 60
        E 0 90 55 60
        E 0 90 61 60
        E 120 80 3c 00
        E 0 80 48 00
        E 0 80 55 00
        E 0 80 61 00
        E 0 90 63 60
        E 120 80 63 00
        E 0 90 58 60
        E 0 90 64 60
        E 120 80 58 00
        E 0 80 64 00
        E 0 90 61 60
        E 120 80 61 00
        E 0 90 4a 60
        E 0 90 57 60
        E 0 90 63 60
        E 120 80 4a 00
        E 0 80 57 00
        E 0 80 63 00
        E 0 90 64 60
        E 120 80 64 00
        E 0 90 55 60
        E 0 90 61 60
        E 120 80 55 00
        E 0 80 61 00
        E 0 90 63 60
        E 120 80 63 00
        E 0 90 3e 60
        E 0 90 4b 60
        E 0 90 58 60
        E 0 90 64 60
        E 120 80 3e 00
        E 0 80 4b 00
        E 0 80 58 00
        E 0 80 64 00
        E 0 90 61 60
        E 120 80 61 00
        E 0 90 57 60
        E 0 90 63 60
        E 120 80 57 00
        E 0 80 63 00
        E 0 90 64 60
        E 120 80 64 00
        E 0 90 48 60
        E 0 90 55 60
        E 0 90 61 60
        E 120 80 48 00
        E 0 80 55 00
        E 0 80 61 00
        E 0 90 63 60
        E 120 80 63 00
        E 0 90 58 60
        E 0 90 64 60
        E 120 80 58 00
        E 0 80 64 00
        E 0 90 63 60
        E 120 80 63 00
        E 0 90 3c 60
        E 0 90 48 60
        E 0 90 55 60
        E 0 90 61 60
        E 120 80 3c 00
        E 0 80 48 00
        E 0 80 55 00
        E 0 80 61 00
        E 0 90 63 60
        E 120 80 63 00
        E 0 90 58 60
        E 0 90 64 60
        E 120 80 58 00
        E 0 80 64 00
        E 0 90 61 60
        E 120 80 61 00
        E 0 90 4a 60
        E 0 90 57 60
        E 0 90 63 60
        E 120 80 4a 00
        E 0 80 57 00
        E 0 80 63 00
        E 0 90 64 60
        E 120 80 64 00
        E 0 90 55 60
        E 0 90 61 60
        E 120 80 55 00
        E 0 80 61 00
        E 0 90 63 60
        E 120 80 63 00
        E 0 90 3e 60
        E 0 90 4b 60
        E 0 90 58 60
        E 0 90 64 60
        E 120 80 3e 00
        E 0 80 4b 00
        E 0 80 58 00
        E 0 80 64 00
        E 0 90 61 60
        E 120 80 61 00
        E 0 90 57 60
        E 0 90 63 60
        E 120 80 57 00
        E 0 80 63 00
        E 0 90 64 60
        E 120 80 64 00
        E 0 90 48 60
        E 0 90 55 60
        E 0 90 61 60
        E 120 80 48 00
        E 0 80 55 00
        E 0 80 61 00
        E 0 90 63 60
        E 120 80 63 00
        E 0 90 58 60
        E 0 90 64 60
        E 120 80 58 00
        E 0 80 64 00
        E 0 90 63 60
        E 120 80 63 00
        E 0 90 3c 60
        E 0 90 48 60
        E 0 90 55 60
        E 0 90 61 60
        E 120 80 3c 00
        E 0 80 48 00
        E 0 80 55 00
        E 0 80 61 00
        E 0 90 63 60
        E 120 80 63 00
        E 0 90 58 60
        E 0 90 64 60
        E 120 80 58 00
        E 0 80 64 00
        E 0 90 61 60
        E 120 80 61 00
        E 0 90 4a 60
        E 0 90 57 60
        E 0 90 63 60
        E 120 80 4a 00
        E 0 80 57 00
        E 0 80 63 00
        E 0 90 64 60
        E 120 80 64 00
        E 0 90 55 60
        E 0 90 61 60
        E 120 80 55 00
        E 0 80 61 00
        E 0 90 63 60
        E 120 80 63 00
        E 0 90 3e 60
        E 0 90 4b 60
        E 0 90 58 60
        E 0 90 64 60
        E 120 80 3e 00
        E 0 80 4b 00
        E 0 80 58 00
        E 0 80 64 00
        E 0 90 61 60
        E 120 80 61 00
        E 0 90 57 60
        E 0 90 63 60
        E 120 80 57 00
        E 0 80 63 00
        E 0 90 64 60
        E 120 80 64 00
        E 0 90 48 60
        E 0 90 55 60
        E 0 90 61 60
        E 120 80 48 00
        E 0 80 55 00
        E 0 80 61 00
        E 0 90 63 60
        E 120 80 63 00
        E 0 90 58 60
        E 0 90 64 60
        E 120 80 58 00
        E 0 80 64 00
        E 0 90 63 60
        E 120 80 63 00
        E 0 90 3c 60
        E 0 90 48 60
        E 0 90 55 60
        E 0 90 61 60
        E 120 80 3c 00
        E 0 80 48 00
        E 0 80 55 00
        E 0 80 61 00
        E 0 90 63 60
        E 120 80 63 00
        E 0 90 58 60
        E 0 90 64 60
        E 120 80 58 00
        E 0 80 64 00
        E 0 90 61 60
        E 120 80 61 00
        E 0 90 4a 60
        E 0 90 57 60
        E 0 90 63 60
        E 120 80 4a 00
        E 0 80 57 00
        E 0 80 63 00
        E 0 90 64 60
        E 120 80 64 00
        E 0 90 55 60
        E 0 90 61 60
        E 120 80 55 00
        E 0 80 61 00
        E 0 90 63 60
        E 120 80 63 00
        E 0 90 3e 60
        E 0 90 4b 60
        E 0 90 58 60
        E 0 90 64 60
        E 120 80 3e 00
        E 0 80 4b 00
        E 0 80 58 00
        E 0 80 64 00
        E 0 90 61 60
        E 120 80 61 00
        E 0 90 57 60
        E 0 90 63 60
        E 120 80 57 00
        E 0 80 63 00
        E 0 90 64 60
        E 120 80 64 00
        E 0 90 48 60
        E 0 90 55 60
        E 0 90 61 60
        E 120 80 48 00
        E 0 80 55 00
        E 0 80 61 00
        E 0 90 63 60
        E 120 80 63 00
        E 0 90 58 60
        E 0 90 64 60
        E 120 80 58 00
        E 0 80 64 00
        E 0 90 63 60
        E 120 80 63 00
        E 0 90 3c 60
        E 0 90 48 60
        E 0 90 55 60
        E 0 90 61 60
        E 120 80 3c 00
        E 0 80 48 00
        E 0 80 55 00
        E 0 80 61 00
        E 0 90 63 60
        E 120 80 63 00
        E 0 90 58 60
        E 0 90 64 60
        E 120 80 58 00
        E 0 80 64 00
        E 0 90 61 60
        E 120 80 61 00
        E 0 90 4a 60
        E 0 90 57 60
        E 0 90 63 60
        E 120 80 4a 00
        E 0 80 57 00
        E 0 80 63 00
        E 0 90 64 60
        E 120 80 64 00
        E 0 90 55 60
        E 0 90 61 60
        E 120 80 55 00
        E 0 80 61 00
        E 0 90 63 60
        E 120 80 63 00
        E 0 90 3e 60
        E 0 90 4b 60
        E 0 90 58 60
        E 0 90 64 60
        E 120 80 3e 00
        E 0 80 4b 00
        E 0 80 58 00
        E 0 80 64 00
        E 0 90 61 60
        E 120 80 61 00
        E 0 90 57 60
        E 0 90 63 60
        E 120 80 57 00
        E 0 80 63 00
        E 0 90 64 60
        E 120 80 64 00
        E 0 90 48 60
        E 0 90 55 60
        E 0 90 61 60
        E 120 80 48 00
        E 0 80 55 00
        E 0 80 61 00
        E 0 90 63 60
        E 120 80 63 00
        E 0 90 58 60
        E 0 90 64 60
        E 120 80 58 00
        E 0 80 64 00
        E 0 90 63 60
        E 120 80 63 00
        E 0 90 3c 60
        E 0 90 48 60
        E 0 90 55 60
        E 0 90 61 60
        E 120 80 3c 00
        E 0 80 48 00
        E 0 80 55 00
        E 0 80 61 00
        E 0 90 63 60
        E 120 80 63 00
        E 0 90 58 60
        E 0 90 64 60
        E 120 80 58 00
        E 0 80 64 00
        E 0 90 61 60
        E 120 80 61 00
        E 0 90 4a 60
        E 0 90 57 60
        E 0 90 63 60
        E 120 80 4a 00
        E 0 80 57 00
        E 0 80 63 00
        E 0 90 64 60
        E 120 80 64 00
        E 0 90 55 60
        E 0 90 61 60
        E 120 80 55 00
        E 0 80 61 00
        E 0 90 63 60
        E 120 80 63 00
        E 0 90 3e 60
        E 0 90 4b 60
        E 0 90 58 60
        E 0 90 64 60
        E 120 80 3e 00
        E 0 80 4b 00
        E 0 80 58 00
        E 0 80 64 00
        E 0 90 61 60
        E 120 80 61 00
        E 0 90 57 60
        E 0 90 63 60
        E 120 80 57 00
        E 0 80 63 00
        E 0 90 64 60
        E 120 80 64 00
        E 0 90 48 60
        E 0 90 55 60
        E 0 90 61 60
        E 120 80 48 00
        E 0 80 55 00
        E 0 80 61 00
        E 0 90 63 60
        E 120 80 63 00
        E 0 90 58 60
        E 0 90 64 60
        E 120 80 58 00
        E 0 80 64 00
        E 0 90 63 60
        E 120 80 63 00
        E 0 90 3c 60
        E 0 90 48 60
        E 0 90 55 60
        E 0 90 61 60
        E 120 80 3c 00
        E 0 80 48 00
        E 0 80 55 00
        E 0 80 61 00
        E 0 90 63 60
        E 120 80 63 00
        E 0 90 58 60
        E 0 90 64 60
        E 120 80 58 00
        E 0 80 64 00
        E 0 90 61 60
        E 120 80 61 00
        E 0 90 4a 60
        E 0 90 57 60
        E 0 90 63 60
        E 120 80 4a 00
        E 0 80 57 00
        E 0 80 63 00
        E 0 90 64 60
        E 120 80 64 00
        E 0 90 55 60
        E 0 90 61 60
        E 120 80 55 00
        E 0 80 61 00
        E 0 90 63 60
        E 120 80 63 00
        E 0 90 3e 60
        E 0 90 4b 60
        E 0 90 58 60
        E 0 90 64 60
        E 120 80 3e 00
        E 0 80 4b 00
        E 0 80 58 00
        E 0 80 64 00
        E 0 90 61 60
        E 120 80 61 00
        E 0 90 57 60
        E 0 90 63 60
        E 120 80 57 00
        E 0 80 63 00
        E 0 90 64 60
        E 120 80 64 00
        E 0 90 48 60
        E 0 90 55 60
        E 0 90 61 60
        E 120 80 48 00
        E 0 80 55 00
        E 0 80 61 00
        E 0 90 63 60
        E 120 80 63 00
        E 0 90 58 60
        E 0 90 64 60
        E 120 80 58 00
        E 0 80 64 00
        E 0 90 63 60
        E 120 80 63 00
        E 0 90 3e 60
        E 0 90 4a 60
        E 0 90 4b 60
        E 0 90 56 60
        E 0 90 58 60
        E 0 90 61 60
        E 0 90 63 60
        E 0 90 64 60
        E 120 80 65 00
        E 0 80 59 00
        E 1320 80 3e 00
        E 0 80 4a 00
        E 0 80 4b 00
        E 360 80 56 00
        E 0 80 58 00
        E 0 80 61 00
        E 0 80 63 00
        E 120 90 3d 60
        E 0 90 49 60
        E 0 90 56 60
        E 0 90 62 60
        E 1440 80 3d 00
        E 0 80 49 00
        E 360 80 64 00
        E 0 80 56 00
        E 0 80 62 00
        E 120 90 3d 60
        E 0 90 48 60
        E 0 90 4a 60
        E 0 90 54 60
        E 0 90 56 60
        E 0 90 60 60
        E 0 90 61 60
        E 0 90 63 60
        E 1440 80 3d 00
        E 0 80 48 00
        E 0 80 4a 00
        E 360 80 54 00
        E 0 80 56 00
        E 0 80 60 00
        E 0 80 61 00
        E 0 80 63 00
        E 120 90 3e 60
        E 0 90 4a 60
        E 0 90 4b 60
        E 0 90 56 60
        E 0 90 58 60
        E 0 90 62 60
        E 0 90 64 60
        E 1440 80 3e 00
        E 0 80 4a 00
        E 0 80 4b 00
        E 360 80 56 00
        E 0 80 62 00
        E 120 90 3e 60
        E 0 90 49 60
        E 0 90 4b 60
        E 0 90 55 60
        E 0 90 57 60
        E 0 90 61 60
        E 0 90 63 60
        E 1440 80 3e 00
        E 0 80 49 00
        E 0 80 4b 00
        E 360 80 55 00
        E 0 80 57 00
        E 0 80 61 00
        E 0 80 63 00
        E 120 90 3d 60
        E 0 90 49 60
        E 0 90 56 60
        E 0 90 62 60
        E 1440 80 3d 00
        E 0 80 49 00
        E 360 80 58 00
        E 0 80 64 00
        E 0 80 56 00
        E 0 80 62 00
        E 120 90 3d 60
        E 0 90 48 60
        E 0 90 4a 60
        E 0 90 54 60
        E 0 90 56 60
        E 0 90 60 60
        E 0 90 61 60
        E 0 90 63 60
        E 1440 80 3d 00
        E 0 80 48 00
        E 0 80 4a 00
        E 360 80 54 00
        E 0 80 56 00
        E 0 80 60 00
        E 0 80 61 00
        E 0 80 63 00
        E 120 90 3e 60
        E 0 90 4a 60
        E 0 90 4b 60
        E 0 90 56 60
        E 0 90 58 60
        E 0 90 62 60
        E 0 90 64 60
        E 0 90 74 60
        E 1440 80 3e 00
        E 0 80 4a 00
        E 0 80 4b 00
        E 360 80 56 00
        E 0 80 62 00
        <X 120 0
          /wFbaW50ZW5zZV0=
        >
        E 0 90 3e 60
        E 0 90 49 60
        E 0 90 4b 60
        E 0 90 55 60
        E 0 90 57 60
        E 0 90 61 60
        E 0 90 63 60
        E 120 80 74 00
        E 1320 80 3e 00
        E 0 80 49 00
        E 0 80 4b 00
        E 360 80 55 00
        E 0 80 57 00
        E 0 80 61 00
        E 0 80 63 00
        E 120 90 3d 60
        E 0 90 49 60
        E 0 90 56 60
        E 0 90 62 60
        E 1440 80 3d 00
        E 0 80 49 00
        E 360 80 58 00
        E 0 80 64 00
        E 0 80 56 00
        E 0 80 62 00
        E 120 90 3d 60
        E 0 90 48 60
        E 0 90 4a 60
        E 0 90 54 60
        E 0 90 56 60
        E 0 90 60 60
        E 0 90 61 60
        E 0 90 63 60
        E 1440 80 3d 00
        E 0 80 48 00
        E 0 80 4a 00
        E 360 80 54 00
        E 0 80 56 00
        E 0 80 60 00
        E 0 80 61 00
        E 0 80 63 00
        E 120 90 3e 60
        E 0 90 4a 60
        E 0 90 4b 60
        E 0 90 56 60
        E 0 90 58 60
        E 0 90 62 60
        E 0 90 64 60
        E 1440 80 3e 00
        E 0 80 4a 00
        E 0 80 4b 00
        E 360 80 56 00
        E 0 80 62 00
        E 120 90 3e 60
        E 0 90 49 60
        E 0 90 4b 60
        E 0 90 55 60
        E 0 90 57 60
        E 0 90 61 60
        E 0 90 63 60
        E 1440 80 3e 00
        E 0 80 49 00
        E 0 80 4b 00
        E 360 80 55 00
        E 0 80 57 00
        E 0 80 61 00
        E 0 80 63 00
        E 120 90 3d 60
        E 0 90 49 60
        E 0 90 56 60
        E 0 90 62 60
        E 1440 80 3d 00
        E 0 80 49 00
        E 360 80 58 00
        E 0 80 64 00
        E 0 80 56 00
        E 0 80 62 00
        E 120 90 3d 60
        E 0 90 48 60
        E 0 90 4a 60
        E 0 90 54 60
        E 0 90 56 60
        E 0 90 60 60
        E 0 90 61 60
        E 0 90 63 60
        E 0 90 74 60
        E 1440 80 3d 00
        E 0 80 48 00
        E 0 80 4a 00
        E 360 80 54 00
        E 0 80 56 00
        E 0 80 60 00
        E 0 80 61 00
        E 0 80 63 00
        E 120 90 3e 60
        E 0 90 4a 60
        E 0 90 4b 60
        E 0 90 56 60
        E 0 90 58 60
        E 0 90 62 60
        E 0 90 64 60
        E 120 80 74 00
        E 1320 80 3e 00
        E 0 80 4a 00
        E 0 80 4b 00
        E 360 80 56 00
        E 0 80 62 00
        E 120 90 3e 60
        E 0 90 49 60
        E 0 90 4b 60
        E 0 90 55 60
        E 0 90 57 60
        E 0 90 61 60
        E 0 90 63 60
        E 1440 80 3e 00
        E 0 80 49 00
        E 0 80 4b 00
        E 360 80 55 00
        E 0 80 57 00
        E 0 80 61 00
        E 0 80 63 00
        E 120 90 3d 60
        E 0 90 49 60
        E 0 90 56 60
        E 0 90 62 60
        E 1440 80 3d 00
        E 0 80 49 00
        E 360 80 58 00
        E 0 80 64 00
        E 0 80 56 00
        E 0 80 62 00
        E 120 90 3d 60
        E 0 90 48 60
        E 0 90 4a 60
        E 0 90 54 60
        E 0 90 56 60
        E 0 90 60 60
        E 0 90 61 60
        E 0 90 63 60
        E 1440 80 3d 00
        E 0 80 48 00
        E 0 80 4a 00
        E 360 80 54 00
        E 0 80 56 00
        E 0 80 60 00
        E 0 80 61 00
        E 0 80 63 00
        E 120 90 3e 60
        E 0 90 4a 60
        E 0 90 4b 60
        E 0 90 56 60
        E 0 90 58 60
        E 0 90 62 60
        E 0 90 64 60
        E 1440 80 3e 00
        E 0 80 4a 00
        E 0 80 4b 00
        E 360 80 56 00
        E 0 80 62 00
        E 120 90 3e 60
        E 0 90 49 60
        E 0 90 4b 60
        E 0 90 55 60
        E 0 90 57 60
        E 0 90 61 60
        E 0 90 63 60
        E 1440 80 3e 00
        E 0 80 49 00
        E 0 80 4b 00
        E 360 80 55 00
        E 0 80 57 00
        E 0 80 61 00
        E 0 80 63 00
        E 120 90 3d 60
        E 0 90 49 60
        E 0 90 56 60
        E 0 90 62 60
        E 1440 80 3d 00
        E 0 80 49 00
        E 360 80 58 00
        E 0 80 64 00
        E 0 80 56 00
        E 0 80 62 00
        E 120 90 3d 60
        E 0 90 48 60
        E 0 90 4a 60
        E 0 90 54 60
        E 0 90 56 60
        E 0 90 60 60
        E 0 90 61 60
        E 0 90 63 60
        E 1440 80 3d 00
        E 0 80 48 00
        E 0 80 4a 00
        E 360 80 54 00
        E 0 80 56 00
        E 0 80 60 00
        E 0 80 61 00
        E 0 80 63 00
        E 120 90 3e 60
        E 0 90 4a 60
        E 0 90 4b 60
        E 0 90 56 60
        E 0 90 58 60
        E 0 90 62 60
        E 0 90 64 60
        E 1440 80 3e 00
        E 0 80 4a 00
        E 0 80 4b 00
        E 360 80 56 00
        E 0 80 62 00
        E 120 90 3e 60
        E 0 90 49 60
        E 0 90 4b 60
        E 0 90 55 60
        E 0 90 57 60
        E 0 90 61 60
        E 0 90 63 60
        E 1440 80 3e 00
        E 0 80 49 00
        E 0 80 4b 00
        E 360 80 55 00
        E 0 80 57 00
        E 0 80 61 00
        E 0 80 63 00
        E 120 90 3d 60
        E 0 90 49 60
        E 0 90 56 60
        E 0 90 62 60
        E 1440 80 3d 00
        E 0 80 49 00
        E 360 80 58 00
        E 0 80 64 00
        E 0 80 56 00
        E 0 80 62 00
        E 120 90 3d 60
        E 0 90 48 60
        E 0 90 4a 60
        E 0 90 54 60
        E 0 90 56 60
        E 0 90 60 60
        E 0 90 61 60
        E 0 90 63 60
        E 1440 80 3d 00
        E 0 80 48 00
        E 0 80 4a 00
        E 360 80 54 00
        E 0 80 56 00
        E 0 80 60 00
        E 0 80 61 00
        E 0 80 63 00
        E 120 90 3e 60
        E 0 90 4a 60
        E 0 90 4b 60
        E 0 90 56 60
        E 0 90 58 60
        E 0 90 62 60
        E 0 90 64 60
        E 1440 80 3e 00
        E 0 80 4a 00
        E 0 80 4b 00
        E 360 80 56 00
        E 0 80 62 00
        <X 120 0
          /wFbbWVsbG93XQ==
        >
        E 0 90 3e 60
        E 0 90 49 60
        E 0 90 4b 60
        E 0 90 55 60
        E 0 90 57 60
        E 0 90 61 60
        E 0 90 63 60
        <X 3839 0
          /wFbaWRsZV9yZWFsdGltZV0=
        >
        E 0 80 58 00
        E 0 80 64 00
        E 0 80 3e 00
        E 0 80 49 00
        E 0 80 4b 00
        E 0 80 55 00
        E 0 80 57 00
        E 0 80 61 00
        E 0 80 63 00
        E 7681 b0 7b 00
        GUID {9185A38A-CAFE-4716-9402-4CC1783B2EDA}
        IGNTEMPO 0 120.00000000 4 4
        SRCCOLOR 3
        VELLANE 132 128 60
        COLORMAP "C:\Program Files\REAPER (x64)\Data\color_maps\rockband_guitarbass.png"
        CFGEDITVIEW -18721.282280 3.743333 0 14 0 0 0
        CFGEDIT 1 1 0 1 1 0 1 1 1 1 1 0.12500000 53 44 1253 718 0 2 1 1 0.00000000 0 1 1 0 0.500000 0 0 1.000000 64
        KEYSNAP 0 7 "102030050700" 0 "Pentatonic"
        EVTFILTER 0 -1 -1 -1 -1 0 1 0 0 -1.00000000 -1.00000000
      >
    >
  >
  <TRACK '{54DEE8DD-0E00-49C7-8146-B921B6B95DFF}'
    NAME "PART REAL_KEYS_X"
    PEAKCOL 16576
    BEAT -1
    AUTOMODE 0
    VOLPAN 1.00000000000000 0.00000000000000 -1.00000000000000 -1.00000000000000 1.00000000000000
    MUTESOLO 0 0 0
    IPHASE 0
    ISBUS 0 0
    BUSCOMP 0 0
    SHOWINMIX 1 0.666700 0.500000 1 0.500000 -1 -1 -1
    FREEMODE 0
    SEL 0
    REC 0 0 0 0 0 0 0
    VU 2
    TRACKHEIGHT 0 0
    INQ 0 0 0 0.5000000000 100 0 0 100
    NCHAN 2
    FX 0
    TRACKID {54DEE8DD-0E00-49C7-8146-B921B6B95DFF}
    PERF 0
    MIDIOUT -1
    <MIDINOTENAMES
      0 127 "TRILL MARKER"
      0 126 "GLISSANDO MARKER"
      0 125 "---"
      0 116 "OVERDRIVE"
      0 115 "SOLO"
      0 114 "---"
      0 72 "Highest playable note B#3"
      0 71 "B3"
      0 70 "A#3"
      0 69 "A3"
      0 68 "G#3"
      0 67 "G3"
      0 66 "F#3"
      0 65 "F3"
      0 64 "E3"
      0 63 "D#3"
      0 62 "D3"
      0 61 "C#3"
      0 60 "C3"
      0 59 "B2"
      0 58 "A#2"
      0 57 "A2"
      0 56 "G#2"
      0 55 "G2"
      0 54 "F#2"
      0 53 "F2"
      0 52 "E2"
      0 51 "D#2"
      0 50 "D2"
      0 49 "C#2"
      0 48 "Lowest playable note C2"
      0 10 "---"
      0 9 "Range A2-C4"
      0 8 "Range"
      0 7 "Range"
      0 6 "Range"
      0 5 "Range F2-A3"
      0 4 "Range"
      0 3 "Range"
      0 2 "Range"
      0 1 "Range"
      0 0 "Range C2-E3"
    >
    MAINSEND 1 0
    <FXCHAIN
      WNDRECT 0 43 655 467
      SHOW 0
      LASTSEL 1
      DOCKED 0
      BYPASS 0 0
      <JS "MIDI/midi_note_filter" ""
        48.000000 72.000000 - - - - - - - - - - - - - - - - - - - - - - - - - - - - - - - - - - - - - - - - - - - - - - - - - - - - - - - - - - - - - - 
      >
      FLOATPOS 0 0 0 0
      FXID {B7D0296D-4271-4624-AFAC-77A984AF8C05}
      WAK 0
      BYPASS 0 0
      <VST "VSTi: ReaSynth (Cockos)" "reasynth.dll" 0 ""
        eXNlcu9e7f4AAAAAAgAAAAEAAAAAAAAAAgAAAAAAAAA4AAAAAAAAAA==
        AAAQAO++rd4N8K3eppvEO+GAGzwAAIA/AAAAAAAAAADMm4A+6WeIPQ==
        AAAAAAAAAD8AAIA/AACAPwAAAD8AABAAAAA=
      >
      FLOATPOS 0 0 0 0
      FXID {0B6D9BCB-8959-4B53-AFE7-3BC70F006FFA}
      WAK 0
    >
    <ITEM
      POSITION 0.00000000000000
      SNAPOFFS 0.00000000000000
      LENGTH 300.00000000000000
      LOOP 0
      ALLTAKES 0
      SEL 0
      FADEIN 1 0.000000 0.000000 1 0
      FADEOUT 1 0.000000 0.000000 1 0
      MUTE 0
      IGUID {61B113E7-E9FC-4E7B-85A6-7DEF7FBC6678}
      IID 4
      NAME "PART REAL_KEYS_X"
      VOLPAN 1.000000 0.000000 1.000000 -1.000000
      SOFFS 0.00000000000000 0.00000000000000
      PLAYRATE 1.00000000000000 1 0.00000000000000 -1
      CHANMODE 0
      GUID {85E0648B-511B-427C-A8E1-C970B28D88CE}
      <SOURCE MIDI
        HASDATA 1 480 QN
        POOLEDEVTS {92BC3985-C37A-42E9-8B88-C717CE912B74}
        <X 0 0
          /wNQQVJUIFJFQUxfS0VZU19Y
        >
        E 0 90 05 60
        E 120 80 05 00
        <X 15240 0
          /wFbYmVnaW5fa2V5IHNvbmdfdHJhaW5lcl9rZXlfMV0=
        >
        E 0 90 35 60
        E 0 90 74 60
        E 120 80 35 00
        E 0 90 3a 60
        E 120 80 3a 00
        E 0 90 3c 60
        E 120 80 3c 00
        E 0 90 35 60
        E 120 80 35 00
        E 0 90 3a 60
        E 120 80 3a 00
        E 0 90 3c 60
        E 120 80 3c 00
        E 0 90 35 60
        E 120 80 35 00
        E 0 90 3a 60
        E 120 80 3a 00
        E 0 90 3c 60
        E 120 80 3c 00
        E 0 90 35 60
        E 120 80 35 00
        E 0 90 3a 60
        E 120 80 3a 00
        E 0 90 3c 60
        E 120 80 3c 00
        E 0 90 35 60
        E 120 80 35 00
        E 0 90 3a 60
        E 120 80 3a 00
        E 0 90 3c 60
        E 120 80 3c 00
        E 0 90 3a 60
        E 120 80 3a 00
        E 0 90 35 60
        E 120 80 35 00
        E 0 90 3a 60
        E 120 80 3a 00
        E 0 90 3c 60
        E 120 80 3c 00
        E 0 90 35 60
        E 120 80 35 00
        E 0 90 3a 60
        E 120 80 3a 00
        E 0 90 3c 60
        E 120 80 3c 00
        E 0 90 35 60
        E 120 80 35 00
        E 0 90 3a 60
        E 120 80 3a 00
        E 0 90 3c 60
        E 120 80 3c 00
        E 0 90 35 60
        E 120 80 35 00
        E 0 90 3a 60
        E 120 80 3a 00
        E 0 90 3c 60
        E 120 80 3c 00
        E 0 90 35 60
        E 120 80 35 00
        E 0 90 3a 60
        E 120 80 3a 00
        E 0 90 3c 60
        E 120 80 3c 00
        E 0 90 3a 60
        E 120 80 74 00
        E 0 80 3a 00
        E 0 90 35 60
        E 120 80 35 00
        E 0 90 3a 60
        E 120 80 3a 00
        E 0 90 3c 60
        E 120 80 3c 00
        E 0 90 35 60
        E 120 80 35 00
        E 0 90 3a 60
        E 120 80 3a 00
        E 0 90 3c 60
        E 120 80 3c 00
        E 0 90 35 60
        E 120 80 35 00
        E 0 90 3a 60
        E 120 80 3a 00
        E 0 90 3c 60
        E 120 80 3c 00
        E 0 90 35 60
        E 120 80 35 00
        E 0 90 3a 60
        E 120 80 3a 00
        E 0 90 3c 60
        E 120 80 3c 00
        E 0 90 35 60
        E 120 80 35 00
        E 0 90 3a 60
        E 120 80 3a 00
        E 0 90 3c 60
        E 120 80 3c 00
        E 0 90 3a 60
        E 120 80 3a 00
        E 0 90 35 60
        E 120 80 35 00
        E 0 90 3a 60
        E 120 80 3a 00
        E 0 90 3c 60
        E 120 80 3c 00
        E 0 90 35 60
        E 120 80 35 00
        E 0 90 3a 60
        E 120 80 3a 00
        E 0 90 3c 60
        E 120 80 3c 00
        E 0 90 35 60
        E 120 80 35 00
        E 0 90 3a 60
        E 120 80 3a 00
        E 0 90 3c 60
        E 120 80 3c 00
        E 0 90 35 60
        E 120 80 35 00
        E 0 90 3a 60
        E 120 80 3a 00
        E 0 90 3c 60
        E 120 80 3c 00
        E 0 90 35 60
        E 120 80 35 00
        E 0 90 3a 60
        E 120 80 3a 00
        E 0 90 3c 60
        E 120 80 3c 00
        E 0 90 3a 60
        <X 120 0
          /wFbZW5kX2tleSBzb25nX3RyYWluZXJfa2V5XzFd
        >
        E 0 80 3a 00
        E 0 90 35 60
        E 120 80 35 00
        E 0 90 3a 60
        E 120 80 3a 00
        E 0 90 3c 60
        E 120 80 3c 00
        E 0 90 35 60
        E 120 80 35 00
        E 0 90 3a 60
        E 120 80 3a 00
        E 0 90 3c 60
        E 120 80 3c 00
        E 0 90 35 60
        E 120 80 35 00
        E 0 90 3a 60
        E 120 80 3a 00
        E 0 90 3c 60
        E 120 80 3c 00
        E 0 90 35 60
        E 120 80 35 00
        E 0 90 3a 60
        E 120 80 3a 00
        E 0 90 3c 60
        E 120 80 3c 00
        E 0 90 35 60
        E 120 80 35 00
        E 0 90 3a 60
        E 120 80 3a 00
        E 0 90 3c 60
        E 120 80 3c 00
        E 0 90 3a 60
        E 120 80 3a 00
        E 0 90 35 60
        E 120 80 35 00
        E 0 90 3a 60
        E 120 80 3a 00
        E 0 90 3c 60
        E 120 80 3c 00
        E 0 90 35 60
        E 120 80 35 00
        E 0 90 3a 60
        E 120 80 3a 00
        E 0 90 3c 60
        E 120 80 3c 00
        E 0 90 35 60
        E 120 80 35 00
        E 0 90 3a 60
        E 120 80 3a 00
        E 0 90 3c 60
        E 120 80 3c 00
        E 0 90 35 60
        E 120 80 35 00
        E 0 90 3a 60
        E 120 80 3a 00
        E 0 90 3c 60
        E 120 80 3c 00
        E 0 90 35 60
        E 120 80 35 00
        E 0 90 3a 60
        E 120 80 3a 00
        E 0 90 3c 60
        E 120 80 3c 00
        E 0 90 3a 60
        E 120 80 3a 00
        E 0 90 35 60
        E 120 80 35 00
        E 0 90 3a 60
        E 120 80 3a 00
        E 0 90 3c 60
        E 120 80 3c 00
        E 0 90 35 60
        E 120 80 35 00
        E 0 90 3a 60
        E 120 80 3a 00
        E 0 90 3c 60
        E 120 80 3c 00
        E 0 90 35 60
        E 120 80 35 00
        E 0 90 3a 60
        E 120 80 3a 00
        E 0 90 3c 60
        E 120 80 3c 00
        E 0 90 35 60
        E 120 80 35 00
        E 0 90 3a 60
        E 120 80 3a 00
        E 0 90 3c 60
        E 120 80 3c 00
        E 0 90 35 60
        E 120 80 35 00
        E 0 90 3a 60
        E 120 80 3a 00
        E 0 90 3c 60
        E 120 80 3c 00
        E 0 90 3a 60
        E 120 80 3a 00
        E 0 90 35 60
        E 120 80 35 00
        E 0 90 3a 60
        E 120 80 3a 00
        E 0 90 3c 60
        E 120 80 3c 00
        E 0 90 35 60
        E 120 80 35 00
        E 0 90 3a 60
        E 120 80 3a 00
        E 0 90 3c 60
        E 120 80 3c 00
        E 0 90 35 60
        E 120 80 35 00
        E 0 90 3a 60
        E 120 80 3a 00
        E 0 90 3c 60
        E 120 80 3c 00
        E 0 90 35 60
        E 120 80 35 00
        E 0 90 3a 60
        E 120 80 3a 00
        E 0 90 3c 60
        E 120 80 3c 00
        E 0 90 35 60
        E 120 80 35 00
        E 0 90 3a 60
        E 120 80 3a 00
        E 0 90 3c 60
        E 120 80 3c 00
        E 0 90 3a 60
        E 120 80 3a 00
        E 0 90 35 60
        E 120 80 35 00
        E 0 90 3a 60
        E 120 80 3a 00
        E 0 90 3c 60
        E 120 80 3c 00
        E 0 90 35 60
        E 120 80 35 00
        E 0 90 3a 60
        E 120 80 3a 00
        E 0 90 3c 60
        E 120 80 3c 00
        E 0 90 35 60
        E 120 80 35 00
        E 0 90 3a 60
        E 120 80 3a 00
        E 0 90 3c 60
        E 120 80 3c 00
        E 0 90 35 60
        E 120 80 35 00
        E 0 90 3a 60
        E 120 80 3a 00
        E 0 90 3c 60
        E 120 80 3c 00
        E 0 90 35 60
        E 120 80 35 00
        E 0 90 3a 60
        E 120 80 3a 00
        E 0 90 3c 60
        E 120 80 3c 00
        E 0 90 3a 60
        E 120 80 3a 00
        E 0 90 35 60
        E 120 80 35 00
        E 0 90 3a 60
        E 120 80 3a 00
        E 0 90 3c 60
        E 120 80 3c 00
        E 0 90 35 60
        E 120 80 35 00
        E 0 90 3a 60
        E 120 80 3a 00
        E 0 90 3c 60
        E 120 80 3c 00
        E 0 90 35 60
        E 120 80 35 00
        E 0 90 3a 60
        E 120 80 3a 00
        E 0 90 3c 60
        E 120 80 3c 00
        E 0 90 35 60
        E 120 80 35 00
        E 0 90 3a 60
        E 120 80 3a 00
        E 0 90 3c 60
        E 120 80 3c 00
        E 0 90 35 60
        E 120 80 35 00
        E 0 90 3a 60
        E 120 80 3a 00
        E 0 90 3c 60
        E 120 80 3c 00
        E 0 90 3a 60
        E 120 80 3a 00
        E 0 90 35 60
        E 120 80 35 00
        E 0 90 3a 60
        E 120 80 3a 00
        E 0 90 3c 60
        E 120 80 3c 00
        E 0 90 35 60
        E 120 80 35 00
        E 0 90 3a 60
        E 120 80 3a 00
        E 0 90 3c 60
        E 120 80 3c 00
        E 0 90 35 60
        E 120 80 35 00
        E 0 90 3a 60
        E 120 80 3a 00
        E 0 90 3c 60
        E 120 80 3c 00
        E 0 90 35 60
        E 120 80 35 00
        E 0 90 3a 60
        E 120 80 3a 00
        E 0 90 3c 60
        E 120 80 3c 00
        E 0 90 35 60
        E 120 80 35 00
        E 0 90 3a 60
        E 120 80 3a 00
        E 0 90 3c 60
        E 120 80 3c 00
        E 0 90 3a 60
        E 120 80 3a 00
        E 0 90 35 60
        E 0 90 74 60
        E 120 80 35 00
        E 0 90 3a 60
        E 120 80 3a 00
        E 0 90 3c 60
        E 120 80 3c 00
        E 0 90 35 60
        E 120 80 35 00
        E 0 90 3a 60
        E 120 80 3a 00
        E 0 90 3c 60
        E 120 80 3c 00
        E 0 90 35 60
        E 120 80 35 00
        E 0 90 3a 60
        E 120 80 3a 00
        E 0 90 3c 60
        E 120 80 3c 00
        E 0 90 35 60
        E 120 80 35 00
        E 0 90 3a 60
        E 120 80 3a 00
        E 0 90 3c 60
        E 120 80 3c 00
        E 0 90 35 60
        E 120 80 35 00
        E 0 90 3a 60
        E 120 80 3a 00
        E 0 90 3c 60
        E 120 80 3c 00
        E 0 90 3a 60
        E 120 80 74 00
        E 0 80 3a 00
        E 0 90 35 60
        E 120 80 35 00
        E 0 90 3a 60
        E 120 80 3a 00
        E 0 90 3c 60
        E 120 80 3c 00
        E 0 90 35 60
        E 120 80 35 00
        E 0 90 3a 60
        E 120 80 3a 00
        E 0 90 3c 60
        E 120 80 3c 00
        E 0 90 35 60
        E 120 80 35 00
        E 0 90 3a 60
        E 120 80 3a 00
        E 0 90 3c 60
        E 120 80 3c 00
        E 0 90 35 60
        E 120 80 35 00
        E 0 90 3a 60
        E 120 80 3a 00
        E 0 90 3c 60
        E 120 80 3c 00
        E 0 90 35 60
        E 120 80 35 00
        E 0 90 3a 60
        E 120 80 3a 00
        E 0 90 3c 60
        E 120 80 3c 00
        E 0 90 3a 60
        E 120 80 3a 00
        E 0 90 35 60
        E 120 80 35 00
        E 0 90 3a 60
        E 120 80 3a 00
        E 0 90 3c 60
        E 120 80 3c 00
        E 0 90 35 60
        E 120 80 35 00
        E 0 90 3a 60
        E 120 80 3a 00
        E 0 90 3c 60
        E 120 80 3c 00
        E 0 90 35 60
        E 120 80 35 00
        E 0 90 3a 60
        E 120 80 3a 00
        E 0 90 3c 60
        E 120 80 3c 00
        E 0 90 35 60
        E 120 80 35 00
        E 0 90 3a 60
        E 120 80 3a 00
        E 0 90 3c 60
        E 120 80 3c 00
        E 0 90 35 60
        E 120 80 35 00
        E 0 90 3a 60
        E 120 80 3a 00
        E 0 90 3c 60
        E 120 80 3c 00
        E 0 90 3a 60
        E 120 80 3a 00
        E 0 90 35 60
        E 120 80 35 00
        E 0 90 3a 60
        E 120 80 3a 00
        E 0 90 3c 60
        E 120 80 3c 00
        E 0 90 35 60
        E 120 80 35 00
        E 0 90 3a 60
        E 120 80 3a 00
        E 0 90 3c 60
        E 120 80 3c 00
        E 0 90 35 60
        E 120 80 35 00
        E 0 90 3a 60
        E 120 80 3a 00
        E 0 90 3c 60
        E 120 80 3c 00
        E 0 90 35 60
        E 120 80 35 00
        E 0 90 3a 60
        E 120 80 3a 00
        E 0 90 3c 60
        E 120 80 3c 00
        E 0 90 35 60
        E 120 80 35 00
        E 0 90 3a 60
        E 120 80 3a 00
        E 0 90 3c 60
        E 120 80 3c 00
        E 0 90 3a 60
        E 120 80 3a 00
        E 0 90 35 60
        E 120 80 35 00
        E 0 90 3a 60
        E 120 80 3a 00
        E 0 90 3c 60
        E 120 80 3c 00
        E 0 90 35 60
        E 120 80 35 00
        E 0 90 3a 60
        E 120 80 3a 00
        E 0 90 3c 60
        E 120 80 3c 00
        E 0 90 35 60
        E 120 80 35 00
        E 0 90 3a 60
        E 120 80 3a 00
        E 0 90 3c 60
        E 120 80 3c 00
        E 0 90 35 60
        E 120 80 35 00
        E 0 90 3a 60
        E 120 80 3a 00
        E 0 90 3c 60
        E 120 80 3c 00
        E 0 90 35 60
        E 120 80 35 00
        E 0 90 3a 60
        E 120 80 3a 00
        E 0 90 3c 60
        E 120 80 3c 00
        E 0 90 3a 60
        E 120 80 3a 00
        E 0 90 35 60
        E 120 80 35 00
        E 0 90 3a 60
        E 120 80 3a 00
        E 0 90 3c 60
        E 120 80 3c 00
        E 0 90 35 60
        E 120 80 35 00
        E 0 90 3a 60
        E 120 80 3a 00
        E 0 90 3c 60
        E 120 80 3c 00
        E 0 90 35 60
        E 120 80 35 00
        E 0 90 3a 60
        E 120 80 3a 00
        E 0 90 3c 60
        E 120 80 3c 00
        E 0 90 35 60
        E 120 80 35 00
        E 0 90 3a 60
        E 120 80 3a 00
        E 0 90 3c 60
        E 120 80 3c 00
        E 0 90 35 60
        E 120 80 35 00
        E 0 90 3a 60
        E 120 80 3a 00
        E 0 90 3c 60
        E 120 80 3c 00
        E 0 90 3a 60
        E 120 80 3a 00
        E 0 90 35 60
        E 120 80 35 00
        E 0 90 3a 60
        E 120 80 3a 00
        E 0 90 3c 60
        E 120 80 3c 00
        E 0 90 35 60
        E 120 80 35 00
        E 0 90 3a 60
        E 120 80 3a 00
        E 0 90 3c 60
        E 120 80 3c 00
        E 0 90 35 60
        E 120 80 35 00
        E 0 90 3a 60
        E 120 80 3a 00
        E 0 90 3c 60
        E 120 80 3c 00
        E 0 90 35 60
        E 120 80 35 00
        E 0 90 3a 60
        E 120 80 3a 00
        E 0 90 3c 60
        E 120 80 3c 00
        E 0 90 35 60
        E 120 80 35 00
        E 0 90 3a 60
        E 120 80 3a 00
        E 0 90 3c 60
        E 120 80 3c 00
        E 0 90 3a 60
        E 120 80 3a 00
        E 0 90 35 60
        E 120 80 35 00
        E 0 90 3a 60
        E 120 80 3a 00
        E 0 90 3c 60
        E 120 80 3c 00
        E 0 90 35 60
        E 120 80 35 00
        E 0 90 3a 60
        E 120 80 3a 00
        E 0 90 3c 60
        E 120 80 3c 00
        E 0 90 35 60
        E 120 80 35 00
        E 0 90 3a 60
        E 120 80 3a 00
        E 0 90 3c 60
        E 120 80 3c 00
        E 0 90 35 60
        E 120 80 35 00
        E 0 90 3a 60
        E 120 80 3a 00
        E 0 90 3c 60
        E 120 80 3c 00
        E 0 90 35 60
        E 120 80 35 00
        E 0 90 3a 60
        E 120 80 3a 00
        E 0 90 3c 60
        E 120 80 3c 00
        E 0 90 3a 60
        E 120 80 3a 00
        E 0 90 35 60
        E 0 90 74 60
        E 120 80 35 00
        E 0 90 3a 60
        E 120 80 3a 00
        E 0 90 3c 60
        E 120 80 3c 00
        E 0 90 35 60
        E 120 80 35 00
        E 0 90 3a 60
        E 120 80 3a 00
        E 0 90 3c 60
        E 120 80 3c 00
        E 0 90 35 60
        E 120 80 35 00
        E 0 90 3a 60
        E 120 80 3a 00
        E 0 90 3c 60
        E 120 80 3c 00
        E 0 90 35 60
        E 120 80 35 00
        E 0 90 3a 60
        E 120 80 3a 00
        E 0 90 3c 60
        E 120 80 3c 00
        E 0 90 35 60
        E 120 80 35 00
        E 0 90 3a 60
        E 120 80 3a 00
        E 0 90 3c 60
        E 120 80 3c 00
        E 0 90 3a 60
        E 120 80 74 00
        E 0 80 3a 00
        E 0 90 35 60
        E 120 80 35 00
        E 0 90 3a 60
        E 120 80 3a 00
        E 0 90 3c 60
        E 120 80 3c 00
        E 0 90 35 60
        E 120 80 35 00
        E 0 90 3a 60
        E 120 80 3a 00
        E 0 90 3c 60
        E 120 80 3c 00
        E 0 90 35 60
        E 120 80 35 00
        E 0 90 3a 60
        E 120 80 3a 00
        E 0 90 3c 60
        E 120 80 3c 00
        E 0 90 35 60
        E 120 80 35 00
        E 0 90 3a 60
        E 120 80 3a 00
        E 0 90 3c 60
        E 120 80 3c 00
        E 0 90 35 60
        E 120 80 35 00
        E 0 90 3a 60
        E 120 80 3a 00
        E 0 90 3c 60
        E 120 80 3c 00
        E 0 90 3a 60
        E 120 80 3a 00
        E 0 90 35 60
        E 120 80 35 00
        E 0 90 3a 60
        E 120 80 3a 00
        E 0 90 3c 60
        E 120 80 3c 00
        E 0 90 35 60
        E 120 80 35 00
        E 0 90 3a 60
        E 120 80 3a 00
        E 0 90 3c 60
        E 120 80 3c 00
        E 0 90 35 60
        E 120 80 35 00
        E 0 90 3a 60
        E 120 80 3a 00
        E 0 90 3c 60
        E 120 80 3c 00
        E 0 90 35 60
        E 120 80 35 00
        E 0 90 3a 60
        E 120 80 3a 00
        E 0 90 3c 60
        E 120 80 3c 00
        E 0 90 35 60
        E 120 80 35 00
        E 0 90 3a 60
        E 120 80 3a 00
        E 0 90 3c 60
        E 120 80 3c 00
        E 0 90 3a 60
        E 120 80 3a 00
        E 0 90 35 60
        E 120 80 35 00
        E 0 90 3a 60
        E 120 80 3a 00
        E 0 90 3c 60
        E 120 80 3c 00
        E 0 90 35 60
        E 120 80 35 00
        E 0 90 3a 60
        E 120 80 3a 00
        E 0 90 3c 60
        E 120 80 3c 00
        E 0 90 35 60
        E 120 80 35 00
        E 0 90 3a 60
        E 120 80 3a 00
        E 0 90 3c 60
        E 120 80 3c 00
        E 0 90 35 60
        E 120 80 35 00
        E 0 90 3a 60
        E 120 80 3a 00
        E 0 90 3c 60
        E 120 80 3c 00
        E 0 90 35 60
        E 120 80 35 00
        E 0 90 3a 60
        E 120 80 3a 00
        E 0 90 3c 60
        E 120 80 3c 00
        E 0 90 3a 60
        E 120 80 3a 00
        E 0 90 35 60
        E 120 80 35 00
        E 0 90 3a 60
        E 120 80 3a 00
        E 0 90 3c 60
        E 120 80 3c 00
        E 0 90 35 60
        E 120 80 35 00
        E 0 90 3a 60
        E 120 80 3a 00
        E 0 90 3c 60
        E 120 80 3c 00
        E 0 90 35 60
        E 120 80 35 00
        E 0 90 3a 60
        E 120 80 3a 00
        E 0 90 3c 60
        E 120 80 3c 00
        E 0 90 35 60
        E 120 80 35 00
        E 0 90 3a 60
        E 120 80 3a 00
        E 0 90 3c 60
        E 120 80 3c 00
        E 0 90 35 60
        E 120 80 35 00
        E 0 90 3a 60
        E 120 80 3a 00
        E 0 90 3c 60
        E 120 80 3c 00
        E 0 90 3a 60
        <X 120 0
          /wFbYmVnaW5fa2V5IHNvbmdfdHJhaW5lcl9rZXlfMl0=
        >
        E 0 80 3a 00
        E 0 90 35 60
        E 0 90 3a 60
        E 0 90 3c 60
        E 3720 80 35 00
        E 0 80 3a 00
        E 120 90 37 60
        E 1800 80 3c 00
        E 0 80 37 00
        E 120 90 35 60
        E 0 90 3a 60
        E 0 90 3f 60
        E 1800 80 35 00
        E 0 80 3a 00
        E 0 80 3f 00
        <X 120 0
          /wFbZW5kX2tleSBzb25nX3RyYWluZXJfa2V5XzJd
        >
        E 0 90 35 60
        E 0 90 3a 60
        E 0 90 3c 60
        E 3720 80 35 00
        E 0 80 3a 00
        E 120 90 37 60
        E 0 90 74 60
        E 1800 80 3c 00
        E 0 80 37 00
        E 120 90 35 60
        E 0 90 3a 60
        E 0 90 3f 60
        E 1800 80 35 00
        E 0 80 3a 00
        E 0 80 3f 00
        E 120 80 74 00
        E 0 90 35 60
        E 0 90 3a 60
        E 0 90 3c 60
        E 3720 80 35 00
        E 0 80 3a 00
        E 120 90 37 60
        E 1800 80 3c 00
        E 0 80 37 00
        E 120 90 35 60
        E 0 90 3a 60
        E 0 90 3f 60
        E 1800 80 35 00
        E 0 80 3a 00
        E 0 80 3f 00
        E 120 90 35 60
        E 0 90 3a 60
        E 0 90 3c 60
        E 3720 80 35 00
        E 0 80 3a 00
        E 120 90 37 60
        E 1800 80 3c 00
        E 0 80 37 00
        E 120 90 35 60
        E 0 90 3a 60
        E 0 90 3f 60
        E 1800 80 35 00
        E 0 80 3a 00
        E 0 80 3f 00
        E 120 90 35 60
        E 0 90 74 60
        E 120 80 35 00
        E 0 90 3a 60
        E 120 80 3a 00
        E 0 90 3c 60
        E 120 80 3c 00
        E 0 90 35 60
        E 120 80 35 00
        E 0 90 3a 60
        E 120 80 3a 00
        E 0 90 3c 60
        E 120 80 3c 00
        E 0 90 35 60
        E 120 80 35 00
        E 0 90 3a 60
        E 120 80 3a 00
        E 0 90 3c 60
        E 120 80 3c 00
        E 0 90 35 60
        E 120 80 35 00
        E 0 90 3a 60
        E 120 80 3a 00
        E 0 90 3c 60
        E 120 80 3c 00
        E 0 90 35 60
        E 120 80 35 00
        E 0 90 3a 60
        E 120 80 3a 00
        E 0 90 3c 60
        E 120 80 3c 00
        E 0 90 3a 60
        E 120 80 74 00
        E 0 80 3a 00
        E 0 90 35 60
        E 120 80 35 00
        E 0 90 3a 60
        E 120 80 3a 00
        E 0 90 3c 60
        E 120 80 3c 00
        E 0 90 35 60
        E 120 80 35 00
        E 0 90 3a 60
        E 120 80 3a 00
        E 0 90 3c 60
        E 120 80 3c 00
        E 0 90 35 60
        E 120 80 35 00
        E 0 90 3a 60
        E 120 80 3a 00
        E 0 90 3c 60
        E 120 80 3c 00
        E 0 90 35 60
        E 120 80 35 00
        E 0 90 3a 60
        E 120 80 3a 00
        E 0 90 3c 60
        E 120 80 3c 00
        E 0 90 35 60
        E 120 80 35 00
        E 0 90 3a 60
        E 120 80 3a 00
        E 0 90 3c 60
        E 120 80 3c 00
        E 0 90 3a 60
        E 120 80 3a 00
        E 0 90 35 60
        E 120 80 35 00
        E 0 90 3a 60
        E 120 80 3a 00
        E 0 90 3c 60
        E 120 80 3c 00
        E 0 90 35 60
        E 120 80 35 00
        E 0 90 3a 60
        E 120 80 3a 00
        E 0 90 3c 60
        E 120 80 3c 00
        E 0 90 35 60
        E 120 80 35 00
        E 0 90 3a 60
        E 120 80 3a 00
        E 0 90 3c 60
        E 120 80 3c 00
        E 0 90 35 60
        E 120 80 35 00
        E 0 90 3a 60
        E 120 80 3a 00
        E 0 90 3c 60
        E 120 80 3c 00
        E 0 90 35 60
        E 120 80 35 00
        E 0 90 3a 60
        E 120 80 3a 00
        E 0 90 3c 60
        E 120 80 3c 00
        E 0 90 3a 60
        E 120 80 3a 00
        E 0 90 35 60
        E 120 80 35 00
        E 0 90 3a 60
        E 120 80 3a 00
        E 0 90 3c 60
        E 120 80 3c 00
        E 0 90 35 60
        E 120 80 35 00
        E 0 90 3a 60
        E 120 80 3a 00
        E 0 90 3c 60
        E 120 80 3c 00
        E 0 90 35 60
        E 120 80 35 00
        E 0 90 3a 60
        E 120 80 3a 00
        E 0 90 3c 60
        E 120 80 3c 00
        E 0 90 35 60
        E 120 80 35 00
        E 0 90 3a 60
        E 120 80 3a 00
        E 0 90 3c 60
        E 120 80 3c 00
        E 0 90 35 60
        E 120 80 35 00
        E 0 90 3a 60
        E 120 80 3a 00
        E 0 90 3c 60
        E 120 80 3c 00
        E 0 90 3a 60
        E 120 80 3a 00
        E 0 90 35 60
        E 120 80 35 00
        E 0 90 3a 60
        E 120 80 3a 00
        E 0 90 3c 60
        E 120 80 3c 00
        E 0 90 35 60
        E 120 80 35 00
        E 0 90 3a 60
        E 120 80 3a 00
        E 0 90 3c 60
        E 120 80 3c 00
        E 0 90 35 60
        E 120 80 35 00
        E 0 90 3a 60
        E 120 80 3a 00
        E 0 90 3c 60
        E 120 80 3c 00
        E 0 90 35 60
        E 120 80 35 00
        E 0 90 3a 60
        E 120 80 3a 00
        E 0 90 3c 60
        E 120 80 3c 00
        E 0 90 35 60
        E 120 80 35 00
        E 0 90 3a 60
        E 120 80 3a 00
        E 0 90 3c 60
        E 120 80 3c 00
        E 0 90 3a 60
        E 120 80 3a 00
        E 0 90 35 60
        E 120 80 35 00
        E 0 90 3a 60
        E 120 80 3a 00
        E 0 90 3c 60
        E 120 80 3c 00
        E 0 90 35 60
        E 120 80 35 00
        E 0 90 3a 60
        E 120 80 3a 00
        E 0 90 3c 60
        E 120 80 3c 00
        E 0 90 35 60
        E 120 80 35 00
        E 0 90 3a 60
        E 120 80 3a 00
        E 0 90 3c 60
        E 120 80 3c 00
        E 0 90 35 60
        E 120 80 35 00
        E 0 90 3a 60
        E 120 80 3a 00
        E 0 90 3c 60
        E 120 80 3c 00
        E 0 90 35 60
        E 120 80 35 00
        E 0 90 3a 60
        E 120 80 3a 00
        E 0 90 3c 60
        E 120 80 3c 00
        E 0 90 3a 60
        E 120 80 3a 00
        E 0 90 35 60
        E 120 80 35 00
        E 0 90 3a 60
        E 120 80 3a 00
        E 0 90 3c 60
        E 120 80 3c 00
        E 0 90 35 60
        E 120 80 35 00
        E 0 90 3a 60
        E 120 80 3a 00
        E 0 90 3c 60
        E 120 80 3c 00
        E 0 90 35 60
        E 120 80 35 00
        E 0 90 3a 60
        E 120 80 3a 00
        E 0 90 3c 60
        E 120 80 3c 00
        E 0 90 35 60
        E 120 80 35 00
        E 0 90 3a 60
        E 120 80 3a 00
        E 0 90 3c 60
        E 120 80 3c 00
        E 0 90 35 60
        E 120 80 35 00
        E 0 90 3a 60
        E 120 80 3a 00
        E 0 90 3c 60
        E 120 80 3c 00
        E 0 90 3a 60
        E 120 80 3a 00
        E 0 90 35 60
        E 120 80 35 00
        E 0 90 3a 60
        E 120 80 3a 00
        E 0 90 3c 60
        E 120 80 3c 00
        E 0 90 35 60
        E 120 80 35 00
        E 0 90 3a 60
        E 120 80 3a 00
        E 0 90 3c 60
        E 120 80 3c 00
        E 0 90 35 60
        E 120 80 35 00
        E 0 90 3a 60
        E 120 80 3a 00
        E 0 90 3c 60
        E 120 80 3c 00
        E 0 90 35 60
        E 120 80 35 00
        E 0 90 3a 60
        E 120 80 3a 00
        E 0 90 3c 60
        E 120 80 3c 00
        E 0 90 35 60
        E 120 80 35 00
        E 0 90 3a 60
        E 120 80 3a 00
        E 0 90 3c 60
        E 120 80 3c 00
        E 0 90 3a 60
        E 120 80 3a 00
        E 0 90 35 60
        E 120 80 35 00
        E 0 90 3a 60
        E 120 80 3a 00
        E 0 90 3c 60
        E 120 80 3c 00
        E 0 90 35 60
        E 120 80 35 00
        E 0 90 3a 60
        E 120 80 3a 00
        E 0 90 3c 60
        E 120 80 3c 00
        E 0 90 35 60
        E 120 80 35 00
        E 0 90 3a 60
        E 120 80 3a 00
        E 0 90 3c 60
        E 120 80 3c 00
        E 0 90 35 60
        E 120 80 35 00
        E 0 90 3a 60
        E 120 80 3a 00
        E 0 90 3c 60
        E 120 80 3c 00
        E 0 90 35 60
        E 120 80 35 00
        E 0 90 3a 60
        E 120 80 3a 00
        E 0 90 3c 60
        E 120 80 3c 00
        E 0 90 3a 60
        E 120 80 3a 00
        E 0 90 35 60
        E 120 80 35 00
        E 0 90 3a 60
        E 120 80 3a 00
        E 0 90 3c 60
        E 120 80 3c 00
        E 0 90 35 60
        E 120 80 35 00
        E 0 90 3a 60
        E 120 80 3a 00
        E 0 90 3c 60
        E 120 80 3c 00
        E 0 90 35 60
        E 120 80 35 00
        E 0 90 3a 60
        E 120 80 3a 00
        E 0 90 3c 60
        E 120 80 3c 00
        E 0 90 35 60
        E 120 80 35 00
        E 0 90 3a 60
        E 120 80 3a 00
        E 0 90 3c 60
        E 120 80 3c 00
        E 0 90 35 60
        E 120 80 35 00
        E 0 90 3a 60
        E 120 80 3a 00
        E 0 90 3c 60
        E 120 80 3c 00
        E 0 90 3a 60
        E 120 80 3a 00
        E 0 90 35 60
        E 120 80 35 00
        E 0 90 3a 60
        E 120 80 3a 00
        E 0 90 3c 60
        E 120 80 3c 00
        E 0 90 35 60
        E 120 80 35 00
        E 0 90 3a 60
        E 120 80 3a 00
        E 0 90 3c 60
        E 120 80 3c 00
        E 0 90 35 60
        E 120 80 35 00
        E 0 90 3a 60
        E 120 80 3a 00
        E 0 90 3c 60
        E 120 80 3c 00
        E 0 90 35 60
        E 120 80 35 00
        E 0 90 3a 60
        E 120 80 3a 00
        E 0 90 3c 60
        E 120 80 3c 00
        E 0 90 35 60
        E 120 80 35 00
        E 0 90 3a 60
        E 120 80 3a 00
        E 0 90 3c 60
        E 120 80 3c 00
        E 0 90 3a 60
        E 120 80 3a 00
        E 0 90 35 60
        E 120 80 35 00
        E 0 90 3a 60
        E 120 80 3a 00
        E 0 90 3c 60
        E 120 80 3c 00
        E 0 90 35 60
        E 120 80 35 00
        E 0 90 3a 60
        E 120 80 3a 00
        E 0 90 3c 60
        E 120 80 3c 00
        E 0 90 35 60
        E 120 80 35 00
        E 0 90 3a 60
        E 120 80 3a 00
        E 0 90 3c 60
        E 120 80 3c 00
        E 0 90 35 60
        E 120 80 35 00
        E 0 90 3a 60
        E 120 80 3a 00
        E 0 90 3c 60
        E 120 80 3c 00
        E 0 90 35 60
        E 120 80 35 00
        E 0 90 3a 60
        E 120 80 3a 00
        E 0 90 3c 60
        E 120 80 3c 00
        E 0 90 3a 60
        E 120 80 3a 00
        E 0 90 35 60
        E 120 80 35 00
        E 0 90 3a 60
        E 120 80 3a 00
        E 0 90 3c 60
        E 120 80 3c 00
        E 0 90 35 60
        E 120 80 35 00
        E 0 90 3a 60
        E 120 80 3a 00
        E 0 90 3c 60
        E 120 80 3c 00
        E 0 90 35 60
        E 120 80 35 00
        E 0 90 3a 60
        E 120 80 3a 00
        E 0 90 3c 60
        E 120 80 3c 00
        E 0 90 35 60
        E 120 80 35 00
        E 0 90 3a 60
        E 120 80 3a 00
        E 0 90 3c 60
        E 120 80 3c 00
        E 0 90 35 60
        E 120 80 35 00
        E 0 90 3a 60
        E 120 80 3a 00
        E 0 90 3c 60
        E 120 80 3c 00
        E 0 90 3a 60
        E 120 80 3a 00
        E 0 90 35 60
        E 120 80 35 00
        E 0 90 3a 60
        E 120 80 3a 00
        E 0 90 3c 60
        E 120 80 3c 00
        E 0 90 35 60
        E 120 80 35 00
        E 0 90 3a 60
        E 120 80 3a 00
        E 0 90 3c 60
        E 120 80 3c 00
        E 0 90 35 60
        E 120 80 35 00
        E 0 90 3a 60
        E 120 80 3a 00
        E 0 90 3c 60
        E 120 80 3c 00
        E 0 90 35 60
        E 120 80 35 00
        E 0 90 3a 60
        E 120 80 3a 00
        E 0 90 3c 60
        E 120 80 3c 00
        E 0 90 35 60
        E 120 80 35 00
        E 0 90 3a 60
        E 120 80 3a 00
        E 0 90 3c 60
        E 120 80 3c 00
        E 0 90 3a 60
        E 120 80 3a 00
        E 0 90 35 60
        E 120 80 35 00
        E 0 90 3a 60
        E 120 80 3a 00
        E 0 90 3c 60
        E 120 80 3c 00
        E 0 90 35 60
        E 120 80 35 00
        E 0 90 3a 60
        E 120 80 3a 00
        E 0 90 3c 60
        E 120 80 3c 00
        E 0 90 35 60
        E 120 80 35 00
        E 0 90 3a 60
        E 120 80 3a 00
        E 0 90 3c 60
        E 120 80 3c 00
        E 0 90 35 60
        E 120 80 35 00
        E 0 90 3a 60
        E 120 80 3a 00
        E 0 90 3c 60
        E 120 80 3c 00
        E 0 90 35 60
        E 120 80 35 00
        E 0 90 3a 60
        E 120 80 3a 00
        E 0 90 3c 60
        E 120 80 3c 00
        E 0 90 3a 60
        E 120 80 3a 00
        E 0 90 35 60
        E 120 80 35 00
        E 0 90 3a 60
        E 120 80 3a 00
        E 0 90 3c 60
        E 120 80 3c 00
        E 0 90 35 60
        E 120 80 35 00
        E 0 90 3a 60
        E 120 80 3a 00
        E 0 90 3c 60
        E 120 80 3c 00
        E 0 90 35 60
        E 120 80 35 00
        E 0 90 3a 60
        E 120 80 3a 00
        E 0 90 3c 60
        E 120 80 3c 00
        E 0 90 35 60
        E 120 80 35 00
        E 0 90 3a 60
        E 120 80 3a 00
        E 0 90 3c 60
        E 120 80 3c 00
        E 0 90 35 60
        E 120 80 35 00
        E 0 90 3a 60
        E 120 80 3a 00
        E 0 90 3c 60
        E 120 80 3c 00
        E 0 90 3a 60
        <X 120 0
          /wFbYmVnaW5fa2V5IHNvbmdfdHJhaW5lcl9rZXlfM10=
        >
        E 0 80 3a 00
        E 0 90 35 60
        E 0 90 3a 60
        E 0 90 3c 60
        E 0 90 74 60
        E 1800 80 35 00
        E 0 80 3a 00
        E 120 80 74 00
        E 0 90 37 60
        E 1800 80 3c 00
        E 0 80 37 00
        E 120 90 35 60
        E 0 90 3a 60
        E 0 90 3f 60
        E 1800 80 35 00
        E 0 80 3a 00
        E 0 80 3f 00
        E 120 90 37 60
        E 0 90 3c 60
        E 1800 80 37 00
        <X 120 0
          /wFbZW5kX2tleSBzb25nX3RyYWluZXJfa2V5XzNd
        >
        E 0 90 35 60
        E 0 90 3a 60
        E 1800 80 35 00
        E 0 80 3a 00
        E 120 90 37 60
        E 1800 80 3c 00
        E 0 80 37 00
        E 120 90 35 60
        E 0 90 3a 60
        E 0 90 3f 60
        E 1800 80 35 00
        E 0 80 3a 00
        E 0 80 3f 00
        E 120 90 37 60
        E 0 90 3c 60
        E 1800 80 37 00
        E 120 90 35 60
        E 0 90 3a 60
        E 1800 80 35 00
        E 0 80 3a 00
        E 120 90 37 60
        E 1800 80 3c 00
        E 0 80 37 00
        E 120 90 35 60
        E 0 90 3a 60
        E 0 90 3f 60
        E 1800 80 35 00
        E 0 80 3a 00
        E 0 80 3f 00
        E 120 90 37 60
        E 0 90 3c 60
        E 0 90 74 60
        E 1800 80 37 00
        E 120 90 35 60
        E 0 90 3a 60
        E 1800 80 35 00
        E 0 80 3a 00
        E 120 80 74 00
        E 0 90 37 60
        E 1800 80 3c 00
        E 0 80 37 00
        E 120 90 35 60
        E 0 90 3a 60
        E 0 90 3f 60
        E 1800 80 35 00
        E 0 80 3a 00
        E 0 80 3f 00
        E 120 90 37 60
        E 0 90 3c 60
        E 1800 80 37 00
        E 120 90 35 60
        E 0 90 3a 60
        E 1800 80 35 00
        E 0 80 3a 00
        E 120 90 37 60
        E 1800 80 3c 00
        E 0 80 37 00
        E 120 90 35 60
        E 0 90 3a 60
        E 0 90 3f 60
        E 1800 80 35 00
        E 0 80 3a 00
        E 0 80 3f 00
        E 120 90 37 60
        E 0 90 3c 60
        E 1800 80 37 00
        E 120 90 35 60
        E 0 90 3a 60
        E 1800 80 35 00
        E 0 80 3a 00
        E 120 90 37 60
        E 1800 80 3c 00
        E 0 80 37 00
        E 120 90 35 60
        E 0 90 3a 60
        E 0 90 3f 60
        E 1800 80 35 00
        E 0 80 3a 00
        E 0 80 3f 00
        E 120 90 37 60
        E 0 90 3c 60
        E 1800 80 37 00
        E 120 90 35 60
        E 0 90 3a 60
        E 1800 80 35 00
        E 0 80 3a 00
        E 120 90 37 60
        E 1800 80 3c 00
        E 0 80 37 00
        E 120 90 35 60
        E 0 90 3a 60
        E 0 90 3f 60
        E 1800 80 35 00
        E 0 80 3a 00
        E 0 80 3f 00
        E 120 90 37 60
        E 0 90 3c 60
        E 1800 80 37 00
        E 120 90 35 60
        E 0 90 3a 60
        E 0 90 74 60
        E 1800 80 35 00
        E 0 80 3a 00
        E 120 90 37 60
        E 1800 80 3c 00
        E 0 80 37 00
        E 120 80 74 00
        E 0 90 35 60
        E 0 90 3a 60
        E 0 90 3f 60
        E 1800 80 35 00
        E 0 80 3a 00
        E 0 80 3f 00
        E 120 90 37 60
        E 0 90 3c 60
        E 1800 80 37 00
        E 0 80 3c 00
        E 120 90 35 60
        E 120 80 35 00
        E 0 90 3a 60
        E 120 80 3a 00
        E 0 90 3c 60
        E 120 80 3c 00
        E 0 90 35 60
        E 120 80 35 00
        E 0 90 3a 60
        E 120 80 3a 00
        E 0 90 3c 60
        E 120 80 3c 00
        E 0 90 35 60
        E 120 80 35 00
        E 0 90 3a 60
        E 120 80 3a 00
        E 0 90 3c 60
        E 120 80 3c 00
        E 0 90 35 60
        E 120 80 35 00
        E 0 90 3a 60
        E 120 80 3a 00
        E 0 90 3c 60
        E 120 80 3c 00
        E 0 90 35 60
        E 120 80 35 00
        E 0 90 3a 60
        E 120 80 3a 00
        E 0 90 3c 60
        E 120 80 3c 00
        E 0 90 3a 60
        E 120 80 3a 00
        E 0 90 35 60
        E 120 80 35 00
        E 0 90 3a 60
        E 120 80 3a 00
        E 0 90 3c 60
        E 120 80 3c 00
        E 0 90 35 60
        E 120 80 35 00
        E 0 90 3a 60
        E 120 80 3a 00
        E 0 90 3c 60
        E 120 80 3c 00
        E 0 90 35 60
        E 120 80 35 00
        E 0 90 3a 60
        E 120 80 3a 00
        E 0 90 3c 60
        E 120 80 3c 00
        E 0 90 35 60
        E 120 80 35 00
        E 0 90 3a 60
        E 120 80 3a 00
        E 0 90 3c 60
        E 120 80 3c 00
        E 0 90 35 60
        E 120 80 35 00
        E 0 90 3a 60
        E 120 80 3a 00
        E 0 90 3c 60
        E 120 80 3c 00
        E 0 90 3a 60
        E 120 80 3a 00
        E 0 90 35 60
        E 120 80 35 00
        E 0 90 3a 60
        E 120 80 3a 00
        E 0 90 3c 60
        E 120 80 3c 00
        E 0 90 35 60
        E 120 80 35 00
        E 0 90 3a 60
        E 120 80 3a 00
        E 0 90 3c 60
        E 120 80 3c 00
        E 0 90 35 60
        E 120 80 35 00
        E 0 90 3a 60
        E 120 80 3a 00
        E 0 90 3c 60
        E 120 80 3c 00
        E 0 90 35 60
        E 120 80 35 00
        E 0 90 3a 60
        E 120 80 3a 00
        E 0 90 3c 60
        E 120 80 3c 00
        E 0 90 35 60
        E 120 80 35 00
        E 0 90 3a 60
        E 120 80 3a 00
        E 0 90 3c 60
        E 120 80 3c 00
        E 0 90 3a 60
        E 120 80 3a 00
        E 0 90 35 60
        E 120 80 35 00
        E 0 90 3a 60
        E 120 80 3a 00
        E 0 90 3c 60
        E 120 80 3c 00
        E 0 90 35 60
        E 120 80 35 00
        E 0 90 3a 60
        E 120 80 3a 00
        E 0 90 3c 60
        E 120 80 3c 00
        E 0 90 35 60
        E 120 80 35 00
        E 0 90 3a 60
        E 120 80 3a 00
        E 0 90 3c 60
        E 120 80 3c 00
        E 0 90 35 60
        E 120 80 35 00
        E 0 90 3a 60
        E 120 80 3a 00
        E 0 90 3c 60
        E 120 80 3c 00
        E 0 90 35 60
        E 120 80 35 00
        E 0 90 3a 60
        E 120 80 3a 00
        E 0 90 3c 60
        E 120 80 3c 00
        E 0 90 3a 60
        E 120 80 3a 00
        E 0 90 35 60
        E 120 80 35 00
        E 0 90 3a 60
        E 120 80 3a 00
        E 0 90 3c 60
        E 120 80 3c 00
        E 0 90 35 60
        E 120 80 35 00
        E 0 90 3a 60
        E 120 80 3a 00
        E 0 90 3c 60
        E 120 80 3c 00
        E 0 90 35 60
        E 120 80 35 00
        E 0 90 3a 60
        E 120 80 3a 00
        E 0 90 3c 60
        E 120 80 3c 00
        E 0 90 35 60
        E 120 80 35 00
        E 0 90 3a 60
        E 120 80 3a 00
        E 0 90 3c 60
        E 120 80 3c 00
        E 0 90 35 60
        E 120 80 35 00
        E 0 90 3a 60
        E 120 80 3a 00
        E 0 90 3c 60
        E 120 80 3c 00
        E 0 90 3a 60
        E 120 80 3a 00
        E 0 90 35 60
        E 120 80 35 00
        E 0 90 3a 60
        E 120 80 3a 00
        E 0 90 3c 60
        E 120 80 3c 00
        E 0 90 35 60
        E 120 80 35 00
        E 0 90 3a 60
        E 120 80 3a 00
        E 0 90 3c 60
        E 120 80 3c 00
        E 0 90 35 60
        E 120 80 35 00
        E 0 90 3a 60
        E 120 80 3a 00
        E 0 90 3c 60
        E 120 80 3c 00
        E 0 90 35 60
        E 120 80 35 00
        E 0 90 3a 60
        E 120 80 3a 00
        E 0 90 3c 60
        E 120 80 3c 00
        E 0 90 35 60
        E 120 80 35 00
        E 0 90 3a 60
        E 120 80 3a 00
        E 0 90 3c 60
        E 120 80 3c 00
        E 0 90 3a 60
        E 120 80 3a 00
        E 0 90 35 60
        E 120 80 35 00
        E 0 90 3a 60
        E 120 80 3a 00
        E 0 90 3c 60
        E 120 80 3c 00
        E 0 90 35 60
        E 120 80 35 00
        E 0 90 3a 60
        E 120 80 3a 00
        E 0 90 3c 60
        E 120 80 3c 00
        E 0 90 35 60
        E 120 80 35 00
        E 0 90 3a 60
        E 120 80 3a 00
        E 0 90 3c 60
        E 120 80 3c 00
        E 0 90 35 60
        E 120 80 35 00
        E 0 90 3a 60
        E 120 80 3a 00
        E 0 90 3c 60
        E 120 80 3c 00
        E 0 90 35 60
        E 120 80 35 00
        E 0 90 3a 60
        E 120 80 3a 00
        E 0 90 3c 60
        E 120 80 3c 00
        E 0 90 3a 60
        E 120 80 3a 00
        E 0 90 35 60
        E 120 80 35 00
        E 0 90 3a 60
        E 120 80 3a 00
        E 0 90 3c 60
        E 120 80 3c 00
        E 0 90 35 60
        E 120 80 35 00
        E 0 90 3a 60
        E 120 80 3a 00
        E 0 90 3c 60
        E 120 80 3c 00
        E 0 90 35 60
        E 120 80 35 00
        E 0 90 3a 60
        E 120 80 3a 00
        E 0 90 3c 60
        E 120 80 3c 00
        E 0 90 35 60
        E 120 80 35 00
        E 0 90 3a 60
        E 120 80 3a 00
        E 0 90 3c 60
        E 120 80 3c 00
        E 0 90 35 60
        E 120 80 35 00
        E 0 90 3a 60
        E 120 80 3a 00
        E 0 90 3c 60
        E 120 80 3c 00
        E 0 90 3a 60
        E 120 80 3a 00
        E 0 90 35 60
        E 120 80 35 00
        E 0 90 3a 60
        E 120 80 3a 00
        E 0 90 3c 60
        E 120 80 3c 00
        E 0 90 35 60
        E 120 80 35 00
        E 0 90 3a 60
        E 120 80 3a 00
        E 0 90 3c 60
        E 120 80 3c 00
        E 0 90 35 60
        E 120 80 35 00
        E 0 90 3a 60
        E 120 80 3a 00
        E 0 90 3c 60
        E 120 80 3c 00
        E 0 90 35 60
        E 120 80 35 00
        E 0 90 3a 60
        E 120 80 3a 00
        E 0 90 3c 60
        E 120 80 3c 00
        E 0 90 35 60
        E 120 80 35 00
        E 0 90 3a 60
        E 120 80 3a 00
        E 0 90 3c 60
        E 120 80 3c 00
        E 0 90 3a 60
        E 120 80 3a 00
        E 0 90 35 60
        E 120 80 35 00
        E 0 90 3a 60
        E 120 80 3a 00
        E 0 90 3c 60
        E 120 80 3c 00
        E 0 90 35 60
        E 120 80 35 00
        E 0 90 3a 60
        E 120 80 3a 00
        E 0 90 3c 60
        E 120 80 3c 00
        E 0 90 35 60
        E 120 80 35 00
        E 0 90 3a 60
        E 120 80 3a 00
        E 0 90 3c 60
        E 120 80 3c 00
        E 0 90 35 60
        E 120 80 35 00
        E 0 90 3a 60
        E 120 80 3a 00
        E 0 90 3c 60
        E 120 80 3c 00
        E 0 90 35 60
        E 120 80 35 00
        E 0 90 3a 60
        E 120 80 3a 00
        E 0 90 3c 60
        E 120 80 3c 00
        E 0 90 3a 60
        E 120 80 3a 00
        E 0 90 35 60
        E 120 80 35 00
        E 0 90 3a 60
        E 120 80 3a 00
        E 0 90 3c 60
        E 120 80 3c 00
        E 0 90 35 60
        E 120 80 35 00
        E 0 90 3a 60
        E 120 80 3a 00
        E 0 90 3c 60
        E 120 80 3c 00
        E 0 90 35 60
        E 120 80 35 00
        E 0 90 3a 60
        E 120 80 3a 00
        E 0 90 3c 60
        E 120 80 3c 00
        E 0 90 35 60
        E 120 80 35 00
        E 0 90 3a 60
        E 120 80 3a 00
        E 0 90 3c 60
        E 120 80 3c 00
        E 0 90 35 60
        E 120 80 35 00
        E 0 90 3a 60
        E 120 80 3a 00
        E 0 90 3c 60
        E 120 80 3c 00
        E 0 90 3a 60
        E 120 80 3a 00
        E 0 90 35 60
        E 0 90 74 60
        E 120 80 35 00
        E 0 90 3a 60
        E 120 80 3a 00
        E 0 90 3c 60
        E 120 80 3c 00
        E 0 90 35 60
        E 120 80 35 00
        E 0 90 3a 60
        E 120 80 3a 00
        E 0 90 3c 60
        E 120 80 3c 00
        E 0 90 35 60
        E 120 80 35 00
        E 0 90 3a 60
        E 120 80 3a 00
        E 0 90 3c 60
        E 120 80 3c 00
        E 0 90 35 60
        E 120 80 35 00
        E 0 90 3a 60
        E 120 80 3a 00
        E 0 90 3c 60
        E 120 80 3c 00
        E 0 90 35 60
        E 120 80 35 00
        E 0 90 3a 60
        E 120 80 3a 00
        E 0 90 3c 60
        E 120 80 3c 00
        E 0 90 3a 60
        E 120 80 74 00
        E 0 80 3a 00
        E 0 90 35 60
        E 120 80 35 00
        E 0 90 3a 60
        E 120 80 3a 00
        E 0 90 3c 60
        E 120 80 3c 00
        E 0 90 35 60
        E 120 80 35 00
        E 0 90 3a 60
        E 120 80 3a 00
        E 0 90 3c 60
        E 120 80 3c 00
        E 0 90 35 60
        E 120 80 35 00
        E 0 90 3a 60
        E 120 80 3a 00
        E 0 90 3c 60
        E 120 80 3c 00
        E 0 90 35 60
        E 120 80 35 00
        E 0 90 3a 60
        E 120 80 3a 00
        E 0 90 3c 60
        E 120 80 3c 00
        E 0 90 35 60
        E 120 80 35 00
        E 0 90 3a 60
        E 120 80 3a 00
        E 0 90 3c 60
        E 120 80 3c 00
        E 0 90 3a 60
        E 120 80 3a 00
        E 0 90 35 60
        E 120 80 35 00
        E 0 90 3a 60
        E 120 80 3a 00
        E 0 90 3c 60
        E 120 80 3c 00
        E 0 90 35 60
        E 120 80 35 00
        E 0 90 3a 60
        E 120 80 3a 00
        E 0 90 3c 60
        E 120 80 3c 00
        E 0 90 35 60
        E 120 80 35 00
        E 0 90 3a 60
        E 120 80 3a 00
        E 0 90 3c 60
        E 120 80 3c 00
        E 0 90 35 60
        E 120 80 35 00
        E 0 90 3a 60
        E 120 80 3a 00
        E 0 90 3c 60
        E 120 80 3c 00
        E 0 90 35 60
        E 120 80 35 00
        E 0 90 3a 60
        E 120 80 3a 00
        E 0 90 3c 60
        E 120 80 3c 00
        E 0 90 3a 60
        E 120 80 3a 00
        E 0 90 35 60
        E 120 80 35 00
        E 0 90 3a 60
        E 120 80 3a 00
        E 0 90 3c 60
        E 120 80 3c 00
        E 0 90 35 60
        E 120 80 35 00
        E 0 90 3a 60
        E 120 80 3a 00
        E 0 90 3c 60
        E 120 80 3c 00
        E 0 90 35 60
        E 120 80 35 00
        E 0 90 3a 60
        E 120 80 3a 00
        E 0 90 3c 60
        E 120 80 3c 00
        E 0 90 35 60
        E 120 80 35 00
        E 0 90 3a 60
        E 120 80 3a 00
        E 0 90 3c 60
        E 120 80 3c 00
        E 0 90 35 60
        E 120 80 35 00
        E 0 90 3a 60
        E 120 80 3a 00
        E 0 90 3c 60
        E 120 80 3c 00
        E 0 90 3a 60
        E 120 80 3a 00
        E 0 90 35 60
        E 120 80 35 00
        E 0 90 3a 60
        E 120 80 3a 00
        E 0 90 3c 60
        E 120 80 3c 00
        E 0 90 35 60
        E 120 80 35 00
        E 0 90 3a 60
        E 120 80 3a 00
        E 0 90 3c 60
        E 120 80 3c 00
        E 0 90 35 60
        E 120 80 35 00
        E 0 90 3a 60
        E 120 80 3a 00
        E 0 90 3c 60
        E 120 80 3c 00
        E 0 90 35 60
        E 120 80 35 00
        E 0 90 3a 60
        E 120 80 3a 00
        E 0 90 3c 60
        E 120 80 3c 00
        E 0 90 35 60
        E 120 80 35 00
        E 0 90 3a 60
        E 120 80 3a 00
        E 0 90 3c 60
        E 120 80 3c 00
        E 0 90 3a 60
        E 120 80 3a 00
        E 0 90 35 60
        E 120 80 35 00
        E 0 90 3a 60
        E 120 80 3a 00
        E 0 90 3c 60
        E 120 80 3c 00
        E 0 90 35 60
        E 120 80 35 00
        E 0 90 3a 60
        E 120 80 3a 00
        E 0 90 3c 60
        E 120 80 3c 00
        E 0 90 35 60
        E 120 80 35 00
        E 0 90 3a 60
        E 120 80 3a 00
        E 0 90 3c 60
        E 120 80 3c 00
        E 0 90 35 60
        E 120 80 35 00
        E 0 90 3a 60
        E 120 80 3a 00
        E 0 90 3c 60
        E 120 80 3c 00
        E 0 90 35 60
        E 120 80 35 00
        E 0 90 3a 60
        E 120 80 3a 00
        E 0 90 3c 60
        E 120 80 3c 00
        E 0 90 3a 60
        E 120 80 3a 00
        E 0 90 35 60
        E 120 80 35 00
        E 0 90 3a 60
        E 120 80 3a 00
        E 0 90 3c 60
        E 120 80 3c 00
        E 0 90 35 60
        E 120 80 35 00
        E 0 90 3a 60
        E 120 80 3a 00
        E 0 90 3c 60
        E 120 80 3c 00
        E 0 90 35 60
        E 120 80 35 00
        E 0 90 3a 60
        E 120 80 3a 00
        E 0 90 3c 60
        E 120 80 3c 00
        E 0 90 35 60
        E 120 80 35 00
        E 0 90 3a 60
        E 120 80 3a 00
        E 0 90 3c 60
        E 120 80 3c 00
        E 0 90 35 60
        E 120 80 35 00
        E 0 90 3a 60
        E 120 80 3a 00
        E 0 90 3c 60
        E 120 80 3c 00
        E 0 90 3a 60
        E 120 80 3a 00
        E 0 90 35 60
        E 120 80 35 00
        E 0 90 3a 60
        E 120 80 3a 00
        E 0 90 3c 60
        E 120 80 3c 00
        E 0 90 35 60
        E 120 80 35 00
        E 0 90 3a 60
        E 120 80 3a 00
        E 0 90 3c 60
        E 120 80 3c 00
        E 0 90 35 60
        E 120 80 35 00
        E 0 90 3a 60
        E 120 80 3a 00
        E 0 90 3c 60
        E 120 80 3c 00
        E 0 90 35 60
        E 120 80 35 00
        E 0 90 3a 60
        E 120 80 3a 00
        E 0 90 3c 60
        E 120 80 3c 00
        E 0 90 35 60
        E 120 80 35 00
        E 0 90 3a 60
        E 120 80 3a 00
        E 0 90 3c 60
        E 120 80 3c 00
        E 0 90 3a 60
        E 120 80 3a 00
        E 0 90 35 60
        E 120 80 35 00
        E 0 90 3a 60
        E 120 80 3a 00
        E 0 90 3c 60
        E 120 80 3c 00
        E 0 90 35 60
        E 120 80 35 00
        E 0 90 3a 60
        E 120 80 3a 00
        E 0 90 3c 60
        E 120 80 3c 00
        E 0 90 35 60
        E 120 80 35 00
        E 0 90 3a 60
        E 120 80 3a 00
        E 0 90 3c 60
        E 120 80 3c 00
        E 0 90 35 60
        E 120 80 35 00
        E 0 90 3a 60
        E 120 80 3a 00
        E 0 90 3c 60
        E 120 80 3c 00
        E 0 90 35 60
        E 120 80 35 00
        E 0 90 3a 60
        E 120 80 3a 00
        E 0 90 3c 60
        E 120 80 3c 00
        E 0 90 3a 60
        E 120 80 3a 00
        E 0 90 35 60
        E 0 90 3a 60
        E 0 90 3c 60
        E 1800 80 35 00
        E 0 80 3a 00
        E 120 90 37 60
        E 1800 80 3c 00
        E 0 80 37 00
        E 120 90 35 60
        E 0 90 3a 60
        E 0 90 3f 60
        E 1800 80 35 00
        E 0 80 3a 00
        E 0 80 3f 00
        E 120 90 37 60
        E 0 90 3c 60
        E 1800 80 37 00
        E 120 90 35 60
        E 0 90 3a 60
        E 1800 80 35 00
        E 0 80 3a 00
        E 120 90 37 60
        E 1800 80 3c 00
        E 0 80 37 00
        E 120 90 35 60
        E 0 90 3a 60
        E 0 90 3f 60
        E 1800 80 35 00
        E 0 80 3a 00
        E 0 80 3f 00
        E 120 90 37 60
        E 0 90 3c 60
        E 0 90 74 60
        E 1800 80 37 00
        E 120 90 35 60
        E 0 90 3a 60
        E 120 80 74 00
        E 1680 80 35 00
        E 0 80 3a 00
        E 120 90 37 60
        E 1800 80 3c 00
        E 0 80 37 00
        E 120 90 35 60
        E 0 90 3a 60
        E 0 90 3f 60
        E 1800 80 35 00
        E 0 80 3a 00
        E 0 80 3f 00
        E 120 90 37 60
        E 0 90 3c 60
        E 1800 80 37 00
        E 120 90 35 60
        E 0 90 3a 60
        E 1800 80 35 00
        E 0 80 3a 00
        E 120 90 37 60
        E 1800 80 3c 00
        E 0 80 37 00
        E 120 90 35 60
        E 0 90 3a 60
        E 0 90 3f 60
        E 0 90 74 60
        E 1800 80 35 00
        E 0 80 3a 00
        E 0 80 3f 00
        E 120 90 37 60
        E 0 90 3c 60
        E 120 80 74 00
        E 1680 80 37 00
        E 120 90 35 60
        E 0 90 3a 60
        E 1800 80 35 00
        E 0 80 3a 00
        E 120 90 37 60
        E 1800 80 3c 00
        E 0 80 37 00
        E 120 90 35 60
        E 0 90 3a 60
        E 0 90 3f 60
        E 1800 80 35 00
        E 0 80 3a 00
        E 0 80 3f 00
        E 120 90 37 60
        E 0 90 3c 60
        E 1800 80 37 00
        E 120 90 35 60
        E 0 90 3a 60
        E 1800 80 35 00
        E 0 80 3a 00
        E 120 90 37 60
        E 1800 80 3c 00
        E 0 80 37 00
        E 120 90 35 60
        E 0 90 3a 60
        E 0 90 3f 60
        E 1800 80 35 00
        E 0 80 3a 00
        E 0 80 3f 00
        E 120 90 37 60
        E 0 90 3c 60
        E 1800 80 37 00
        E 120 90 35 60
        E 0 90 3a 60
        E 1800 80 35 00
        E 0 80 3a 00
        E 120 90 37 60
        E 1800 80 3c 00
        E 0 80 37 00
        E 120 90 35 60
        E 0 90 3a 60
        E 0 90 3f 60
        E 1800 80 35 00
        E 0 80 3a 00
        E 0 80 3f 00
        E 120 90 37 60
        E 0 90 3c 60
        E 1800 80 37 00
        E 120 90 35 60
        E 0 90 3a 60
        E 3839 80 3c 00
        E 0 80 35 00
        E 0 80 3a 00
        E 7681 b0 7b 00
        GUID {C9667B20-01FC-4024-A869-F5C9FA4D9E2F}
        IGNTEMPO 0 120.00000000 4 4
        SRCCOLOR 4
        VELLANE 132 128 60
        COLORMAP "C:\Program Files\REAPER (x64)\Data\color_maps\rockband_guitarbass.png"
        CFGEDITVIEW -18721.282280 3.743333 0 13 0 0 0
        CFGEDIT 1 1 0 1 1 0 1 1 1 1 1 0.12500000 53 44 1253 718 0 2 1 1 0.00000000 0 1 1 0 0.500000 0 0 1.000000 64
        KEYSNAP 0 7 "102030050700" 0 "Pentatonic"
        EVTFILTER 0 -1 -1 -1 -1 0 1 0 0 -1.00000000 -1.00000000
      >
    >
  >
  <TRACK '{8599EEAB-BFFA-4B0D-9A4B-BD7FE54B9508}'
    NAME "PART REAL_KEYS_H"
    PEAKCOL 16576
    BEAT -1
    AUTOMODE 0
    VOLPAN 1.00000000000000 0.00000000000000 -1.00000000000000 -1.00000000000000 1.00000000000000
    MUTESOLO 0 0 0
    IPHASE 0
    ISBUS 0 0
    BUSCOMP 0 0
    SHOWINMIX 1 0.666700 0.500000 1 0.500000 -1 -1 -1
    FREEMODE 0
    SEL 0
    REC 0 0 0 0 0 0 0
    VU 2
    TRACKHEIGHT 0 0
    INQ 0 0 0 0.5000000000 100 0 0 100
    NCHAN 2
    FX 1
    TRACKID {8599EEAB-BFFA-4B0D-9A4B-BD7FE54B9508}
    PERF 0
    MIDIOUT -1
    <MIDINOTENAMES
      0 72 "Highest playable note B#3"
      0 71 "B3"
      0 70 "A#3"
      0 69 "A3"
      0 68 "G#3"
      0 67 "G3"
      0 66 "F#3"
      0 65 "F3"
      0 64 "E3"
      0 63 "D#3"
      0 62 "D3"
      0 61 "C#3"
      0 60 "C3"
      0 59 "B2"
      0 58 "A#2"
      0 57 "A2"
      0 56 "G#2"
      0 55 "G2"
      0 54 "F#2"
      0 53 "F2"
      0 52 "E2"
      0 51 "D#2"
      0 50 "D2"
      0 49 "C#2"
      0 48 "Lowest playable note C2"
      0 10 "---"
      0 9 "Range A2-C4"
      0 8 "Range"
      0 7 "Range"
      0 6 "Range"
      0 5 "Range F2-A3"
      0 4 "Range"
      0 3 "Range"
      0 2 "Range"
      0 1 "Range"
      0 0 "Range C2-E3"
    >
    MAINSEND 1 0
    <FXCHAIN
      SHOW 0
      LASTSEL 0
      DOCKED 0
    >
    <ITEM
      POSITION 0.00000000000000
      SNAPOFFS 0.00000000000000
      LENGTH 300.00000000000000
      LOOP 0
      ALLTAKES 0
      SEL 0
      FADEIN 1 0.000000 0.000000 1 0
      FADEOUT 1 0.000000 0.000000 1 0
      MUTE 0
      IGUID {C0611017-A8E3-47DD-9E67-89B7455B2AEA}
      IID 5
      NAME "PART REAL_KEYS_H"
      VOLPAN 1.000000 0.000000 1.000000 -1.000000
      SOFFS 0.00000000000000 0.00000000000000
      PLAYRATE 1.00000000000000 1 0.00000000000000 -1
      CHANMODE 0
      GUID {7B1406BF-7482-47DE-AC4A-ABBA133556D6}
      <SOURCE MIDI
        HASDATA 1 480 QN
        POOLEDEVTS {966059A4-874D-4885-8564-8A4062E7ABA9}
        <X 0 0
          /wNQQVJUIFJFQUxfS0VZU19I
        >
        E 0 90 05 60
        E 120 80 05 00
        E 15240 90 35 60
        E 120 80 35 00
        E 120 90 3c 60
        E 120 80 3c 00
        E 120 90 3a 60
        E 120 80 3a 00
        E 120 90 35 60
        E 120 80 35 00
        E 120 90 3c 60
        E 120 80 3c 00
        E 120 90 3a 60
        E 120 80 3a 00
        E 120 90 35 60
        E 120 80 35 00
        E 120 90 3c 60
        E 120 80 3c 00
        E 120 90 35 60
        E 120 80 35 00
        E 120 90 3c 60
        E 120 80 3c 00
        E 120 90 3a 60
        E 120 80 3a 00
        E 120 90 35 60
        E 120 80 35 00
        E 120 90 3c 60
        E 120 80 3c 00
        E 120 90 3a 60
        E 120 80 3a 00
        E 120 90 35 60
        E 120 80 35 00
        E 120 90 3c 60
        E 120 80 3c 00
        E 120 90 35 60
        E 120 80 35 00
        E 120 90 3c 60
        E 120 80 3c 00
        E 120 90 3a 60
        E 120 80 3a 00
        E 120 90 35 60
        E 120 80 35 00
        E 120 90 3c 60
        E 120 80 3c 00
        E 120 90 3a 60
        E 120 80 3a 00
        E 120 90 35 60
        E 120 80 35 00
        E 120 90 3c 60
        E 120 80 3c 00
        E 120 90 35 60
        E 120 80 35 00
        E 120 90 3c 60
        E 120 80 3c 00
        E 120 90 3a 60
        E 120 80 3a 00
        E 120 90 35 60
        E 120 80 35 00
        E 120 90 3c 60
        E 120 80 3c 00
        E 120 90 3a 60
        E 120 80 3a 00
        E 120 90 35 60
        E 120 80 35 00
        E 120 90 3c 60
        E 120 80 3c 00
        E 120 90 35 60
        E 120 80 35 00
        E 120 90 3c 60
        E 120 80 3c 00
        E 120 90 3a 60
        E 120 80 3a 00
        E 120 90 35 60
        E 120 80 35 00
        E 120 90 3c 60
        E 120 80 3c 00
        E 120 90 3a 60
        E 120 80 3a 00
        E 120 90 35 60
        E 120 80 35 00
        E 120 90 3c 60
        E 120 80 3c 00
        E 120 90 35 60
        E 120 80 35 00
        E 120 90 3c 60
        E 120 80 3c 00
        E 120 90 3a 60
        E 120 80 3a 00
        E 120 90 35 60
        E 120 80 35 00
        E 120 90 3c 60
        E 120 80 3c 00
        E 120 90 3a 60
        E 120 80 3a 00
        E 120 90 35 60
        E 120 80 35 00
        E 120 90 3c 60
        E 120 80 3c 00
        E 120 90 35 60
        E 120 80 35 00
        E 120 90 3c 60
        E 120 80 3c 00
        E 120 90 3a 60
        E 120 80 3a 00
        E 120 90 35 60
        E 120 80 35 00
        E 120 90 3c 60
        E 120 80 3c 00
        E 120 90 3a 60
        E 120 80 3a 00
        E 120 90 35 60
        E 120 80 35 00
        E 120 90 3c 60
        E 120 80 3c 00
        E 120 90 35 60
        E 120 80 35 00
        E 120 90 3c 60
        E 120 80 3c 00
        E 120 90 3a 60
        E 120 80 3a 00
        E 120 90 35 60
        E 120 80 35 00
        E 120 90 3c 60
        E 120 80 3c 00
        E 120 90 3a 60
        E 120 80 3a 00
        E 120 90 35 60
        E 120 80 35 00
        E 120 90 3c 60
        E 120 80 3c 00
        E 120 90 35 60
        E 120 80 35 00
        E 120 90 3c 60
        E 120 80 3c 00
        E 120 90 3a 60
        E 120 80 3a 00
        E 120 90 35 60
        E 120 80 35 00
        E 120 90 3c 60
        E 120 80 3c 00
        E 120 90 3a 60
        E 120 80 3a 00
        E 120 90 35 60
        E 120 80 35 00
        E 120 90 3c 60
        E 120 80 3c 00
        E 120 90 35 60
        E 120 80 35 00
        E 120 90 3c 60
        E 120 80 3c 00
        E 120 90 3a 60
        E 120 80 3a 00
        E 120 90 35 60
        E 120 80 35 00
        E 120 90 3c 60
        E 120 80 3c 00
        E 120 90 3a 60
        E 120 80 3a 00
        E 120 90 35 60
        E 120 80 35 00
        E 120 90 3c 60
        E 120 80 3c 00
        E 120 90 35 60
        E 120 80 35 00
        E 120 90 3c 60
        E 120 80 3c 00
        E 120 90 3a 60
        E 120 80 3a 00
        E 120 90 35 60
        E 120 80 35 00
        E 120 90 3c 60
        E 120 80 3c 00
        E 120 90 3a 60
        E 120 80 3a 00
        E 120 90 35 60
        E 120 80 35 00
        E 120 90 3c 60
        E 120 80 3c 00
        E 120 90 35 60
        E 120 80 35 00
        E 120 90 3c 60
        E 120 80 3c 00
        E 120 90 3a 60
        E 120 80 3a 00
        E 120 90 35 60
        E 120 80 35 00
        E 120 90 3c 60
        E 120 80 3c 00
        E 120 90 3a 60
        E 120 80 3a 00
        E 120 90 35 60
        E 120 80 35 00
        E 120 90 3c 60
        E 120 80 3c 00
        E 120 90 35 60
        E 120 80 35 00
        E 120 90 3c 60
        E 120 80 3c 00
        E 120 90 3a 60
        E 120 80 3a 00
        E 120 90 35 60
        E 120 80 35 00
        E 120 90 3c 60
        E 120 80 3c 00
        E 120 90 3a 60
        E 120 80 3a 00
        E 120 90 35 60
        E 120 80 35 00
        E 120 90 3c 60
        E 120 80 3c 00
        E 120 90 35 60
        E 120 80 35 00
        E 120 90 3c 60
        E 120 80 3c 00
        E 120 90 3a 60
        E 120 80 3a 00
        E 120 90 35 60
        E 120 80 35 00
        E 120 90 3c 60
        E 120 80 3c 00
        E 120 90 3a 60
        E 120 80 3a 00
        E 120 90 35 60
        E 120 80 35 00
        E 120 90 3c 60
        E 120 80 3c 00
        E 120 90 35 60
        E 120 80 35 00
        E 120 90 3c 60
        E 120 80 3c 00
        E 120 90 3a 60
        E 120 80 3a 00
        E 120 90 35 60
        E 120 80 35 00
        E 120 90 3c 60
        E 120 80 3c 00
        E 120 90 3a 60
        E 120 80 3a 00
        E 120 90 35 60
        E 120 80 35 00
        E 120 90 3c 60
        E 120 80 3c 00
        E 120 90 35 60
        E 120 80 35 00
        E 120 90 3c 60
        E 120 80 3c 00
        E 120 90 3a 60
        E 120 80 3a 00
        E 120 90 35 60
        E 120 80 35 00
        E 120 90 3c 60
        E 120 80 3c 00
        E 120 90 3a 60
        E 120 80 3a 00
        E 120 90 35 60
        E 120 80 35 00
        E 120 90 3c 60
        E 120 80 3c 00
        E 120 90 35 60
        E 120 80 35 00
        E 120 90 3c 60
        E 120 80 3c 00
        E 120 90 3a 60
        E 120 80 3a 00
        E 120 90 35 60
        E 120 80 35 00
        E 120 90 3c 60
        E 120 80 3c 00
        E 120 90 3a 60
        E 120 80 3a 00
        E 120 90 35 60
        E 120 80 35 00
        E 120 90 3c 60
        E 120 80 3c 00
        E 120 90 35 60
        E 120 80 35 00
        E 120 90 3c 60
        E 120 80 3c 00
        E 120 90 3a 60
        E 120 80 3a 00
        E 120 90 35 60
        E 120 80 35 00
        E 120 90 3c 60
        E 120 80 3c 00
        E 120 90 3a 60
        E 120 80 3a 00
        E 120 90 35 60
        E 120 80 35 00
        E 120 90 3c 60
        E 120 80 3c 00
        E 120 90 35 60
        E 120 80 35 00
        E 120 90 3c 60
        E 120 80 3c 00
        E 120 90 3a 60
        E 120 80 3a 00
        E 120 90 35 60
        E 120 80 35 00
        E 120 90 3c 60
        E 120 80 3c 00
        E 120 90 3a 60
        E 120 80 3a 00
        E 120 90 35 60
        E 120 80 35 00
        E 120 90 3c 60
        E 120 80 3c 00
        E 120 90 35 60
        E 120 80 35 00
        E 120 90 3c 60
        E 120 80 3c 00
        E 120 90 3a 60
        E 120 80 3a 00
        E 120 90 35 60
        E 120 80 35 00
        E 120 90 3c 60
        E 120 80 3c 00
        E 120 90 3a 60
        E 120 80 3a 00
        E 120 90 35 60
        E 120 80 35 00
        E 120 90 3c 60
        E 120 80 3c 00
        E 120 90 35 60
        E 120 80 35 00
        E 120 90 3c 60
        E 120 80 3c 00
        E 120 90 3a 60
        E 120 80 3a 00
        E 120 90 35 60
        E 120 80 35 00
        E 120 90 3c 60
        E 120 80 3c 00
        E 120 90 3a 60
        E 120 80 3a 00
        E 120 90 35 60
        E 120 80 35 00
        E 120 90 3c 60
        E 120 80 3c 00
        E 120 90 35 60
        E 120 80 35 00
        E 120 90 3c 60
        E 120 80 3c 00
        E 120 90 3a 60
        E 120 80 3a 00
        E 120 90 35 60
        E 120 80 35 00
        E 120 90 3c 60
        E 120 80 3c 00
        E 120 90 3a 60
        E 120 80 3a 00
        E 120 90 35 60
        E 120 80 35 00
        E 120 90 3c 60
        E 120 80 3c 00
        E 120 90 35 60
        E 120 80 35 00
        E 120 90 3c 60
        E 120 80 3c 00
        E 120 90 3a 60
        E 120 80 3a 00
        E 120 90 35 60
        E 120 80 35 00
        E 120 90 3c 60
        E 120 80 3c 00
        E 120 90 3a 60
        E 120 80 3a 00
        E 120 90 35 60
        E 120 80 35 00
        E 120 90 3c 60
        E 120 80 3c 00
        E 120 90 35 60
        E 120 80 35 00
        E 120 90 3c 60
        E 120 80 3c 00
        E 120 90 3a 60
        E 120 80 3a 00
        E 120 90 35 60
        E 120 80 35 00
        E 120 90 3c 60
        E 120 80 3c 00
        E 120 90 3a 60
        E 120 80 3a 00
        E 120 90 35 60
        E 120 80 35 00
        E 120 90 3c 60
        E 120 80 3c 00
        E 120 90 35 60
        E 0 90 3a 60
        E 0 90 3c 60
        E 3720 80 35 00
        E 0 80 3a 00
        E 120 90 37 60
        E 1800 80 3c 00
        E 0 80 37 00
        E 120 90 35 60
        E 0 90 3a 60
        E 0 90 3f 60
        E 1800 80 35 00
        E 0 80 3a 00
        E 0 80 3f 00
        E 120 90 35 60
        E 0 90 3a 60
        E 0 90 3c 60
        E 3720 80 35 00
        E 0 80 3a 00
        E 120 90 37 60
        E 1800 80 3c 00
        E 0 80 37 00
        E 120 90 35 60
        E 0 90 3a 60
        E 0 90 3f 60
        E 1800 80 35 00
        E 0 80 3a 00
        E 0 80 3f 00
        E 120 90 35 60
        E 0 90 3a 60
        E 0 90 3c 60
        E 3720 80 35 00
        E 0 80 3a 00
        E 120 90 37 60
        E 1800 80 3c 00
        E 0 80 37 00
        E 120 90 35 60
        E 0 90 3a 60
        E 0 90 3f 60
        E 1800 80 35 00
        E 0 80 3a 00
        E 0 80 3f 00
        E 120 90 35 60
        E 0 90 3a 60
        E 0 90 3c 60
        E 3720 80 35 00
        E 0 80 3a 00
        E 120 90 37 60
        E 1800 80 3c 00
        E 0 80 37 00
        E 120 90 35 60
        E 0 90 3a 60
        E 0 90 3f 60
        E 1800 80 35 00
        E 0 80 3a 00
        E 0 80 3f 00
        E 120 90 35 60
        E 120 80 35 00
        E 120 90 3c 60
        E 120 80 3c 00
        E 120 90 3a 60
        E 120 80 3a 00
        E 120 90 35 60
        E 120 80 35 00
        E 120 90 3c 60
        E 120 80 3c 00
        E 120 90 3a 60
        E 120 80 3a 00
        E 120 90 35 60
        E 120 80 35 00
        E 120 90 3c 60
        E 120 80 3c 00
        E 120 90 35 60
        E 120 80 35 00
        E 120 90 3c 60
        E 120 80 3c 00
        E 120 90 3a 60
        E 120 80 3a 00
        E 120 90 35 60
        E 120 80 35 00
        E 120 90 3c 60
        E 120 80 3c 00
        E 120 90 3a 60
        E 120 80 3a 00
        E 120 90 35 60
        E 120 80 35 00
        E 120 90 3c 60
        E 120 80 3c 00
        E 120 90 35 60
        E 120 80 35 00
        E 120 90 3c 60
        E 120 80 3c 00
        E 120 90 3a 60
        E 120 80 3a 00
        E 120 90 35 60
        E 120 80 35 00
        E 120 90 3c 60
        E 120 80 3c 00
        E 120 90 3a 60
        E 120 80 3a 00
        E 120 90 35 60
        E 120 80 35 00
        E 120 90 3c 60
        E 120 80 3c 00
        E 120 90 35 60
        E 120 80 35 00
        E 120 90 3c 60
        E 120 80 3c 00
        E 120 90 3a 60
        E 120 80 3a 00
        E 120 90 35 60
        E 120 80 35 00
        E 120 90 3c 60
        E 120 80 3c 00
        E 120 90 3a 60
        E 120 80 3a 00
        E 120 90 35 60
        E 120 80 35 00
        E 120 90 3c 60
        E 120 80 3c 00
        E 120 90 35 60
        E 120 80 35 00
        E 120 90 3c 60
        E 120 80 3c 00
        E 120 90 3a 60
        E 120 80 3a 00
        E 120 90 35 60
        E 120 80 35 00
        E 120 90 3c 60
        E 120 80 3c 00
        E 120 90 3a 60
        E 120 80 3a 00
        E 120 90 35 60
        E 120 80 35 00
        E 120 90 3c 60
        E 120 80 3c 00
        E 120 90 35 60
        E 120 80 35 00
        E 120 90 3c 60
        E 120 80 3c 00
        E 120 90 3a 60
        E 120 80 3a 00
        E 120 90 35 60
        E 120 80 35 00
        E 120 90 3c 60
        E 120 80 3c 00
        E 120 90 3a 60
        E 120 80 3a 00
        E 120 90 35 60
        E 120 80 35 00
        E 120 90 3c 60
        E 120 80 3c 00
        E 120 90 35 60
        E 120 80 35 00
        E 120 90 3c 60
        E 120 80 3c 00
        E 120 90 3a 60
        E 120 80 3a 00
        E 120 90 35 60
        E 120 80 35 00
        E 120 90 3c 60
        E 120 80 3c 00
        E 120 90 3a 60
        E 120 80 3a 00
        E 120 90 35 60
        E 120 80 35 00
        E 120 90 3c 60
        E 120 80 3c 00
        E 120 90 35 60
        E 120 80 35 00
        E 120 90 3c 60
        E 120 80 3c 00
        E 120 90 3a 60
        E 120 80 3a 00
        E 120 90 35 60
        E 120 80 35 00
        E 120 90 3c 60
        E 120 80 3c 00
        E 120 90 3a 60
        E 120 80 3a 00
        E 120 90 35 60
        E 120 80 35 00
        E 120 90 3c 60
        E 120 80 3c 00
        E 120 90 35 60
        E 120 80 35 00
        E 120 90 3c 60
        E 120 80 3c 00
        E 120 90 3a 60
        E 120 80 3a 00
        E 120 90 35 60
        E 120 80 35 00
        E 120 90 3c 60
        E 120 80 3c 00
        E 120 90 3a 60
        E 120 80 3a 00
        E 120 90 35 60
        E 120 80 35 00
        E 120 90 3c 60
        E 120 80 3c 00
        E 120 90 35 60
        E 120 80 35 00
        E 120 90 3c 60
        E 120 80 3c 00
        E 120 90 3a 60
        E 120 80 3a 00
        E 120 90 35 60
        E 120 80 35 00
        E 120 90 3c 60
        E 120 80 3c 00
        E 120 90 3a 60
        E 120 80 3a 00
        E 120 90 35 60
        E 120 80 35 00
        E 120 90 3c 60
        E 120 80 3c 00
        E 120 90 35 60
        E 120 80 35 00
        E 120 90 3c 60
        E 120 80 3c 00
        E 120 90 3a 60
        E 120 80 3a 00
        E 120 90 35 60
        E 120 80 35 00
        E 120 90 3c 60
        E 120 80 3c 00
        E 120 90 3a 60
        E 120 80 3a 00
        E 120 90 35 60
        E 120 80 35 00
        E 120 90 3c 60
        E 120 80 3c 00
        E 120 90 35 60
        E 120 80 35 00
        E 120 90 3c 60
        E 120 80 3c 00
        E 120 90 3a 60
        E 120 80 3a 00
        E 120 90 35 60
        E 120 80 35 00
        E 120 90 3c 60
        E 120 80 3c 00
        E 120 90 3a 60
        E 120 80 3a 00
        E 120 90 35 60
        E 120 80 35 00
        E 120 90 3c 60
        E 120 80 3c 00
        E 120 90 35 60
        E 120 80 35 00
        E 120 90 3c 60
        E 120 80 3c 00
        E 120 90 3a 60
        E 120 80 3a 00
        E 120 90 35 60
        E 120 80 35 00
        E 120 90 3c 60
        E 120 80 3c 00
        E 120 90 3a 60
        E 120 80 3a 00
        E 120 90 35 60
        E 120 80 35 00
        E 120 90 3c 60
        E 120 80 3c 00
        E 120 90 35 60
        E 120 80 35 00
        E 120 90 3c 60
        E 120 80 3c 00
        E 120 90 3a 60
        E 120 80 3a 00
        E 120 90 35 60
        E 120 80 35 00
        E 120 90 3c 60
        E 120 80 3c 00
        E 120 90 3a 60
        E 120 80 3a 00
        E 120 90 35 60
        E 120 80 35 00
        E 120 90 3c 60
        E 120 80 3c 00
        E 120 90 35 60
        E 120 80 35 00
        E 120 90 3c 60
        E 120 80 3c 00
        E 120 90 3a 60
        E 120 80 3a 00
        E 120 90 35 60
        E 120 80 35 00
        E 120 90 3c 60
        E 120 80 3c 00
        E 120 90 3a 60
        E 120 80 3a 00
        E 120 90 35 60
        E 120 80 35 00
        E 120 90 3c 60
        E 120 80 3c 00
        E 120 90 35 60
        E 120 80 35 00
        E 120 90 3c 60
        E 120 80 3c 00
        E 120 90 3a 60
        E 120 80 3a 00
        E 120 90 35 60
        E 120 80 35 00
        E 120 90 3c 60
        E 120 80 3c 00
        E 120 90 3a 60
        E 120 80 3a 00
        E 120 90 35 60
        E 120 80 35 00
        E 120 90 3c 60
        E 120 80 3c 00
        E 120 90 35 60
        E 0 90 3a 60
        E 0 90 3c 60
        E 1800 80 35 00
        E 0 80 3a 00
        E 120 90 37 60
        E 1800 80 3c 00
        E 0 80 37 00
        E 120 90 35 60
        E 0 90 3a 60
        E 0 90 3f 60
        E 1800 80 35 00
        E 0 80 3a 00
        E 0 80 3f 00
        E 120 90 37 60
        E 0 90 3c 60
        E 1800 80 37 00
        E 120 90 35 60
        E 0 90 3a 60
        E 1800 80 35 00
        E 0 80 3a 00
        E 120 90 37 60
        E 1800 80 3c 00
        E 0 80 37 00
        E 120 90 35 60
        E 0 90 3a 60
        E 0 90 3f 60
        E 1800 80 35 00
        E 0 80 3a 00
        E 0 80 3f 00
        E 120 90 37 60
        E 0 90 3c 60
        E 1800 80 37 00
        E 120 90 35 60
        E 0 90 3a 60
        E 1800 80 35 00
        E 0 80 3a 00
        E 120 90 37 60
        E 1800 80 3c 00
        E 0 80 37 00
        E 120 90 35 60
        E 0 90 3a 60
        E 0 90 3f 60
        E 1800 80 35 00
        E 0 80 3a 00
        E 0 80 3f 00
        E 120 90 37 60
        E 0 90 3c 60
        E 1800 80 37 00
        E 120 90 35 60
        E 0 90 3a 60
        E 1800 80 35 00
        E 0 80 3a 00
        E 120 90 37 60
        E 1800 80 3c 00
        E 0 80 37 00
        E 120 90 35 60
        E 0 90 3a 60
        E 0 90 3f 60
        E 1800 80 35 00
        E 0 80 3a 00
        E 0 80 3f 00
        E 120 90 37 60
        E 0 90 3c 60
        E 1800 80 37 00
        E 120 90 35 60
        E 0 90 3a 60
        E 1800 80 35 00
        E 0 80 3a 00
        E 120 90 37 60
        E 1800 80 3c 00
        E 0 80 37 00
        E 120 90 35 60
        E 0 90 3a 60
        E 0 90 3f 60
        E 1800 80 35 00
        E 0 80 3a 00
        E 0 80 3f 00
        E 120 90 37 60
        E 0 90 3c 60
        E 1800 80 37 00
        E 120 90 35 60
        E 0 90 3a 60
        E 1800 80 35 00
        E 0 80 3a 00
        E 120 90 37 60
        E 1800 80 3c 00
        E 0 80 37 00
        E 120 90 35 60
        E 0 90 3a 60
        E 0 90 3f 60
        E 1800 80 35 00
        E 0 80 3a 00
        E 0 80 3f 00
        E 120 90 37 60
        E 0 90 3c 60
        E 1800 80 37 00
        E 120 90 35 60
        E 0 90 3a 60
        E 1800 80 35 00
        E 0 80 3a 00
        E 120 90 37 60
        E 1800 80 3c 00
        E 0 80 37 00
        E 120 90 35 60
        E 0 90 3a 60
        E 0 90 3f 60
        E 1800 80 35 00
        E 0 80 3a 00
        E 0 80 3f 00
        E 120 90 37 60
        E 0 90 3c 60
        E 1800 80 37 00
        E 120 90 35 60
        E 0 90 3a 60
        E 1800 80 35 00
        E 0 80 3a 00
        E 120 90 37 60
        E 1800 80 3c 00
        E 0 80 37 00
        E 120 90 35 60
        E 0 90 3a 60
        E 0 90 3f 60
        E 1800 80 35 00
        E 0 80 3a 00
        E 0 80 3f 00
        E 120 90 37 60
        E 0 90 3c 60
        E 1800 80 37 00
        E 0 80 3c 00
        E 120 90 35 60
        E 120 80 35 00
        E 120 90 3c 60
        E 120 80 3c 00
        E 120 90 3a 60
        E 120 80 3a 00
        E 120 90 35 60
        E 120 80 35 00
        E 120 90 3c 60
        E 120 80 3c 00
        E 120 90 3a 60
        E 120 80 3a 00
        E 120 90 35 60
        E 120 80 35 00
        E 120 90 3c 60
        E 120 80 3c 00
        E 120 90 35 60
        E 120 80 35 00
        E 120 90 3c 60
        E 120 80 3c 00
        E 120 90 3a 60
        E 120 80 3a 00
        E 120 90 35 60
        E 120 80 35 00
        E 120 90 3c 60
        E 120 80 3c 00
        E 120 90 3a 60
        E 120 80 3a 00
        E 120 90 35 60
        E 120 80 35 00
        E 120 90 3c 60
        E 120 80 3c 00
        E 120 90 35 60
        E 120 80 35 00
        E 120 90 3c 60
        E 120 80 3c 00
        E 120 90 3a 60
        E 120 80 3a 00
        E 120 90 35 60
        E 120 80 35 00
        E 120 90 3c 60
        E 120 80 3c 00
        E 120 90 3a 60
        E 120 80 3a 00
        E 120 90 35 60
        E 120 80 35 00
        E 120 90 3c 60
        E 120 80 3c 00
        E 120 90 35 60
        E 120 80 35 00
        E 120 90 3c 60
        E 120 80 3c 00
        E 120 90 3a 60
        E 120 80 3a 00
        E 120 90 35 60
        E 120 80 35 00
        E 120 90 3c 60
        E 120 80 3c 00
        E 120 90 3a 60
        E 120 80 3a 00
        E 120 90 35 60
        E 120 80 35 00
        E 120 90 3c 60
        E 120 80 3c 00
        E 120 90 35 60
        E 120 80 35 00
        E 120 90 3c 60
        E 120 80 3c 00
        E 120 90 3a 60
        E 120 80 3a 00
        E 120 90 35 60
        E 120 80 35 00
        E 120 90 3c 60
        E 120 80 3c 00
        E 120 90 3a 60
        E 120 80 3a 00
        E 120 90 35 60
        E 120 80 35 00
        E 120 90 3c 60
        E 120 80 3c 00
        E 120 90 35 60
        E 120 80 35 00
        E 120 90 3c 60
        E 120 80 3c 00
        E 120 90 3a 60
        E 120 80 3a 00
        E 120 90 35 60
        E 120 80 35 00
        E 120 90 3c 60
        E 120 80 3c 00
        E 120 90 3a 60
        E 120 80 3a 00
        E 120 90 35 60
        E 120 80 35 00
        E 120 90 3c 60
        E 120 80 3c 00
        E 120 90 35 60
        E 120 80 35 00
        E 120 90 3c 60
        E 120 80 3c 00
        E 120 90 3a 60
        E 120 80 3a 00
        E 120 90 35 60
        E 120 80 35 00
        E 120 90 3c 60
        E 120 80 3c 00
        E 120 90 3a 60
        E 120 80 3a 00
        E 120 90 35 60
        E 120 80 35 00
        E 120 90 3c 60
        E 120 80 3c 00
        E 120 90 35 60
        E 120 80 35 00
        E 120 90 3c 60
        E 120 80 3c 00
        E 120 90 3a 60
        E 120 80 3a 00
        E 120 90 35 60
        E 120 80 35 00
        E 120 90 3c 60
        E 120 80 3c 00
        E 120 90 3a 60
        E 120 80 3a 00
        E 120 90 35 60
        E 120 80 35 00
        E 120 90 3c 60
        E 120 80 3c 00
        E 120 90 35 60
        E 120 80 35 00
        E 120 90 3c 60
        E 120 80 3c 00
        E 120 90 3a 60
        E 120 80 3a 00
        E 120 90 35 60
        E 120 80 35 00
        E 120 90 3c 60
        E 120 80 3c 00
        E 120 90 3a 60
        E 120 80 3a 00
        E 120 90 35 60
        E 120 80 35 00
        E 120 90 3c 60
        E 120 80 3c 00
        E 120 90 35 60
        E 120 80 35 00
        E 120 90 3c 60
        E 120 80 3c 00
        E 120 90 3a 60
        E 120 80 3a 00
        E 120 90 35 60
        E 120 80 35 00
        E 120 90 3c 60
        E 120 80 3c 00
        E 120 90 3a 60
        E 120 80 3a 00
        E 120 90 35 60
        E 120 80 35 00
        E 120 90 3c 60
        E 120 80 3c 00
        E 120 90 35 60
        E 120 80 35 00
        E 120 90 3c 60
        E 120 80 3c 00
        E 120 90 3a 60
        E 120 80 3a 00
        E 120 90 35 60
        E 120 80 35 00
        E 120 90 3c 60
        E 120 80 3c 00
        E 120 90 3a 60
        E 120 80 3a 00
        E 120 90 35 60
        E 120 80 35 00
        E 120 90 3c 60
        E 120 80 3c 00
        E 120 90 35 60
        E 120 80 35 00
        E 120 90 3c 60
        E 120 80 3c 00
        E 120 90 3a 60
        E 120 80 3a 00
        E 120 90 35 60
        E 120 80 35 00
        E 120 90 3c 60
        E 120 80 3c 00
        E 120 90 3a 60
        E 120 80 3a 00
        E 120 90 35 60
        E 120 80 35 00
        E 120 90 3c 60
        E 120 80 3c 00
        E 120 90 35 60
        E 120 80 35 00
        E 120 90 3c 60
        E 120 80 3c 00
        E 120 90 3a 60
        E 120 80 3a 00
        E 120 90 35 60
        E 120 80 35 00
        E 120 90 3c 60
        E 120 80 3c 00
        E 120 90 3a 60
        E 120 80 3a 00
        E 120 90 35 60
        E 120 80 35 00
        E 120 90 3c 60
        E 120 80 3c 00
        E 120 90 35 60
        E 120 80 35 00
        E 120 90 3c 60
        E 120 80 3c 00
        E 120 90 3a 60
        E 120 80 3a 00
        E 120 90 35 60
        E 120 80 35 00
        E 120 90 3c 60
        E 120 80 3c 00
        E 120 90 3a 60
        E 120 80 3a 00
        E 120 90 35 60
        E 120 80 35 00
        E 120 90 3c 60
        E 120 80 3c 00
        E 120 90 35 60
        E 120 80 35 00
        E 120 90 3c 60
        E 120 80 3c 00
        E 120 90 3a 60
        E 120 80 3a 00
        E 120 90 35 60
        E 120 80 35 00
        E 120 90 3c 60
        E 120 80 3c 00
        E 120 90 3a 60
        E 120 80 3a 00
        E 120 90 35 60
        E 120 80 35 00
        E 120 90 3c 60
        E 120 80 3c 00
        E 120 90 35 60
        E 120 80 35 00
        E 120 90 3c 60
        E 120 80 3c 00
        E 120 90 3a 60
        E 120 80 3a 00
        E 120 90 35 60
        E 120 80 35 00
        E 120 90 3c 60
        E 120 80 3c 00
        E 120 90 3a 60
        E 120 80 3a 00
        E 120 90 35 60
        E 120 80 35 00
        E 120 90 3c 60
        E 120 80 3c 00
        E 120 90 35 60
        E 120 80 35 00
        E 120 90 3c 60
        E 120 80 3c 00
        E 120 90 3a 60
        E 120 80 3a 00
        E 120 90 35 60
        E 120 80 35 00
        E 120 90 3c 60
        E 120 80 3c 00
        E 120 90 3a 60
        E 120 80 3a 00
        E 120 90 35 60
        E 120 80 35 00
        E 120 90 3c 60
        E 120 80 3c 00
        E 120 90 35 60
        E 120 80 35 00
        E 120 90 3c 60
        E 120 80 3c 00
        E 120 90 3a 60
        E 120 80 3a 00
        E 120 90 35 60
        E 120 80 35 00
        E 120 90 3c 60
        E 120 80 3c 00
        E 120 90 3a 60
        E 120 80 3a 00
        E 120 90 35 60
        E 120 80 35 00
        E 120 90 3c 60
        E 120 80 3c 00
        E 120 90 35 60
        E 120 80 35 00
        E 120 90 3c 60
        E 120 80 3c 00
        E 120 90 3a 60
        E 120 80 3a 00
        E 120 90 35 60
        E 120 80 35 00
        E 120 90 3c 60
        E 120 80 3c 00
        E 120 90 3a 60
        E 120 80 3a 00
        E 120 90 35 60
        E 120 80 35 00
        E 120 90 3c 60
        E 120 80 3c 00
        E 120 90 35 60
        E 120 80 35 00
        E 120 90 3c 60
        E 120 80 3c 00
        E 120 90 3a 60
        E 120 80 3a 00
        E 120 90 35 60
        E 120 80 35 00
        E 120 90 3c 60
        E 120 80 3c 00
        E 120 90 3a 60
        E 120 80 3a 00
        E 120 90 35 60
        E 120 80 35 00
        E 120 90 3c 60
        E 120 80 3c 00
        E 120 90 35 60
        E 0 90 3a 60
        E 0 90 3c 60
        E 1800 80 35 00
        E 0 80 3a 00
        E 120 90 37 60
        E 1800 80 3c 00
        E 0 80 37 00
        E 120 90 35 60
        E 0 90 3a 60
        E 0 90 3f 60
        E 1800 80 35 00
        E 0 80 3a 00
        E 0 80 3f 00
        E 120 90 37 60
        E 0 90 3c 60
        E 1800 80 37 00
        E 120 90 35 60
        E 0 90 3a 60
        E 1800 80 35 00
        E 0 80 3a 00
        E 120 90 37 60
        E 1800 80 3c 00
        E 0 80 37 00
        E 120 90 35 60
        E 0 90 3a 60
        E 0 90 3f 60
        E 1800 80 35 00
        E 0 80 3a 00
        E 0 80 3f 00
        E 120 90 37 60
        E 0 90 3c 60
        E 1800 80 37 00
        E 120 90 35 60
        E 0 90 3a 60
        E 1800 80 35 00
        E 0 80 3a 00
        E 120 90 37 60
        E 1800 80 3c 00
        E 0 80 37 00
        E 120 90 35 60
        E 0 90 3a 60
        E 0 90 3f 60
        E 1800 80 35 00
        E 0 80 3a 00
        E 0 80 3f 00
        E 120 90 37 60
        E 0 90 3c 60
        E 1800 80 37 00
        E 120 90 35 60
        E 0 90 3a 60
        E 1800 80 35 00
        E 0 80 3a 00
        E 120 90 37 60
        E 1800 80 3c 00
        E 0 80 37 00
        E 120 90 35 60
        E 0 90 3a 60
        E 0 90 3f 60
        E 1800 80 35 00
        E 0 80 3a 00
        E 0 80 3f 00
        E 120 90 37 60
        E 0 90 3c 60
        E 1800 80 37 00
        E 120 90 35 60
        E 0 90 3a 60
        E 1800 80 35 00
        E 0 80 3a 00
        E 120 90 37 60
        E 1800 80 3c 00
        E 0 80 37 00
        E 120 90 35 60
        E 0 90 3a 60
        E 0 90 3f 60
        E 1800 80 35 00
        E 0 80 3a 00
        E 0 80 3f 00
        E 120 90 37 60
        E 0 90 3c 60
        E 1800 80 37 00
        E 120 90 35 60
        E 0 90 3a 60
        E 1800 80 35 00
        E 0 80 3a 00
        E 120 90 37 60
        E 1800 80 3c 00
        E 0 80 37 00
        E 120 90 35 60
        E 0 90 3a 60
        E 0 90 3f 60
        E 1800 80 35 00
        E 0 80 3a 00
        E 0 80 3f 00
        E 120 90 37 60
        E 0 90 3c 60
        E 1800 80 37 00
        E 120 90 35 60
        E 0 90 3a 60
        E 1800 80 35 00
        E 0 80 3a 00
        E 120 90 37 60
        E 1800 80 3c 00
        E 0 80 37 00
        E 120 90 35 60
        E 0 90 3a 60
        E 0 90 3f 60
        E 1800 80 35 00
        E 0 80 3a 00
        E 0 80 3f 00
        E 120 90 37 60
        E 0 90 3c 60
        E 1800 80 37 00
        E 120 90 35 60
        E 0 90 3a 60
        E 3839 80 3c 00
        E 0 80 35 00
        E 0 80 3a 00
        E 7681 b0 7b 00
        GUID {CCA8F0B8-B066-4AE9-ABBE-A67123F564FE}
        IGNTEMPO 0 120.00000000 4 4
        SRCCOLOR 5
        VELLANE 132 128 60
        COLORMAP "C:\Program Files\REAPER (x64)\Data\color_maps\rockband_guitarbass.png"
        CFGEDITVIEW -18721.282280 3.743333 0 15 0 0 0
        CFGEDIT 1 1 0 1 1 0 1 1 1 1 1 0.12500000 53 44 1253 718 0 2 1 1 0.00000000 0 1 1 0 0.500000 0 0 1.000000 64
        KEYSNAP 0 7 "102030050700" 0 "Pentatonic"
        EVTFILTER 0 -1 -1 -1 -1 0 1 0 0 -1.00000000 -1.00000000
      >
    >
  >
  <TRACK '{827462A1-694A-43F5-A1AC-4FBDBDD22CEE}'
    NAME "PART REAL_KEYS_M"
    PEAKCOL 16576
    BEAT -1
    AUTOMODE 0
    VOLPAN 1.00000000000000 0.00000000000000 -1.00000000000000 -1.00000000000000 1.00000000000000
    MUTESOLO 0 0 0
    IPHASE 0
    ISBUS 0 0
    BUSCOMP 0 0
    SHOWINMIX 1 0.666700 0.500000 1 0.500000 -1 -1 -1
    FREEMODE 0
    SEL 0
    REC 0 0 0 0 0 0 0
    VU 2
    TRACKHEIGHT 0 0
    INQ 0 0 0 0.5000000000 100 0 0 100
    NCHAN 2
    FX 1
    TRACKID {827462A1-694A-43F5-A1AC-4FBDBDD22CEE}
    PERF 0
    MIDIOUT -1
    <MIDINOTENAMES
      0 72 "Highest playable note B#3"
      0 71 "B3"
      0 70 "A#3"
      0 69 "A3"
      0 68 "G#3"
      0 67 "G3"
      0 66 "F#3"
      0 65 "F3"
      0 64 "E3"
      0 63 "D#3"
      0 62 "D3"
      0 61 "C#3"
      0 60 "C3"
      0 59 "B2"
      0 58 "A#2"
      0 57 "A2"
      0 56 "G#2"
      0 55 "G2"
      0 54 "F#2"
      0 53 "F2"
      0 52 "E2"
      0 51 "D#2"
      0 50 "D2"
      0 49 "C#2"
      0 48 "Lowest playable note C2"
      0 10 "---"
      0 9 "Range A2-C4"
      0 8 "Range"
      0 7 "Range"
      0 6 "Range"
      0 5 "Range F2-A3"
      0 4 "Range"
      0 3 "Range"
      0 2 "Range"
      0 1 "Range"
      0 0 "Range C2-E3"
    >
    MAINSEND 1 0
    <FXCHAIN
      SHOW 0
      LASTSEL 0
      DOCKED 0
    >
    <ITEM
      POSITION 0.00000000000000
      SNAPOFFS 0.00000000000000
      LENGTH 300.00000000000000
      LOOP 0
      ALLTAKES 0
      SEL 0
      FADEIN 1 0.000000 0.000000 1 0
      FADEOUT 1 0.000000 0.000000 1 0
      MUTE 0
      IGUID {84E3893B-FEFD-4B63-89B4-F42EADCE81ED}
      IID 6
      NAME "PART REAL_KEYS_M"
      VOLPAN 1.000000 0.000000 1.000000 -1.000000
      SOFFS 0.00000000000000 0.00000000000000
      PLAYRATE 1.00000000000000 1 0.00000000000000 -1
      CHANMODE 0
      GUID {190FB675-82C5-439C-BF9B-54234A911102}
      <SOURCE MIDI
        HASDATA 1 480 QN
        POOLEDEVTS {F1A080F0-DD29-4539-9E17-670F74BFBE0C}
        <X 0 0
          /wNQQVJUIFJFQUxfS0VZU19N
        >
        E 0 90 05 60
        E 120 80 05 00
        E 15240 90 35 60
        E 120 80 35 00
        E 360 90 3a 60
        E 120 80 3a 00
        E 360 90 3c 60
        E 120 80 3c 00
        E 360 90 35 60
        E 120 80 35 00
        E 360 90 35 60
        E 120 80 35 00
        E 360 90 3a 60
        E 120 80 3a 00
        E 360 90 3c 60
        E 120 80 3c 00
        E 360 90 35 60
        E 120 80 35 00
        E 360 90 35 60
        E 120 80 35 00
        E 360 90 3a 60
        E 120 80 3a 00
        E 360 90 3c 60
        E 120 80 3c 00
        E 360 90 35 60
        E 120 80 35 00
        E 360 90 35 60
        E 120 80 35 00
        E 360 90 3a 60
        E 120 80 3a 00
        E 360 90 3c 60
        E 120 80 3c 00
        E 360 90 35 60
        E 120 80 35 00
        E 360 90 35 60
        E 120 80 35 00
        E 360 90 3a 60
        E 120 80 3a 00
        E 360 90 3c 60
        E 120 80 3c 00
        E 360 90 35 60
        E 120 80 35 00
        E 360 90 35 60
        E 120 80 35 00
        E 360 90 3a 60
        E 120 80 3a 00
        E 360 90 3c 60
        E 120 80 3c 00
        E 360 90 35 60
        E 120 80 35 00
        E 360 90 35 60
        E 120 80 35 00
        E 360 90 3a 60
        E 120 80 3a 00
        E 360 90 3c 60
        E 120 80 3c 00
        E 360 90 35 60
        E 120 80 35 00
        E 360 90 35 60
        E 120 80 35 00
        E 360 90 3a 60
        E 120 80 3a 00
        E 360 90 3c 60
        E 120 80 3c 00
        E 360 90 35 60
        E 120 80 35 00
        E 360 90 35 60
        E 120 80 35 00
        E 360 90 3a 60
        E 120 80 3a 00
        E 360 90 3c 60
        E 120 80 3c 00
        E 360 90 35 60
        E 120 80 35 00
        E 360 90 35 60
        E 120 80 35 00
        E 360 90 3a 60
        E 120 80 3a 00
        E 360 90 3c 60
        E 120 80 3c 00
        E 360 90 35 60
        E 120 80 35 00
        E 360 90 35 60
        E 120 80 35 00
        E 360 90 3a 60
        E 120 80 3a 00
        E 360 90 3c 60
        E 120 80 3c 00
        E 360 90 35 60
        E 120 80 35 00
        E 360 90 35 60
        E 120 80 35 00
        E 360 90 3a 60
        E 120 80 3a 00
        E 360 90 3c 60
        E 120 80 3c 00
        E 360 90 35 60
        E 120 80 35 00
        E 360 90 35 60
        E 120 80 35 00
        E 360 90 3a 60
        E 120 80 3a 00
        E 360 90 3c 60
        E 120 80 3c 00
        E 360 90 35 60
        E 120 80 35 00
        E 360 90 35 60
        E 120 80 35 00
        E 360 90 3a 60
        E 120 80 3a 00
        E 360 90 3c 60
        E 120 80 3c 00
        E 360 90 35 60
        E 120 80 35 00
        E 360 90 35 60
        E 120 80 35 00
        E 360 90 3a 60
        E 120 80 3a 00
        E 360 90 3c 60
        E 120 80 3c 00
        E 360 90 35 60
        E 120 80 35 00
        E 360 90 35 60
        E 120 80 35 00
        E 360 90 3a 60
        E 120 80 3a 00
        E 360 90 3c 60
        E 120 80 3c 00
        E 360 90 35 60
        E 120 80 35 00
        E 360 90 35 60
        E 120 80 35 00
        E 360 90 3a 60
        E 120 80 3a 00
        E 360 90 3c 60
        E 120 80 3c 00
        E 360 90 35 60
        E 120 80 35 00
        E 360 90 35 60
        E 120 80 35 00
        E 360 90 3a 60
        E 120 80 3a 00
        E 360 90 3c 60
        E 120 80 3c 00
        E 360 90 35 60
        E 120 80 35 00
        E 360 90 35 60
        E 120 80 35 00
        E 360 90 3a 60
        E 120 80 3a 00
        E 360 90 3c 60
        E 120 80 3c 00
        E 360 90 35 60
        E 120 80 35 00
        E 360 90 35 60
        E 120 80 35 00
        E 360 90 3a 60
        E 120 80 3a 00
        E 360 90 3c 60
        E 120 80 3c 00
        E 360 90 35 60
        E 120 80 35 00
        E 360 90 35 60
        E 120 80 35 00
        E 360 90 3a 60
        E 120 80 3a 00
        E 360 90 3c 60
        E 120 80 3c 00
        E 360 90 35 60
        E 120 80 35 00
        E 360 90 35 60
        E 120 80 35 00
        E 360 90 3a 60
        E 120 80 3a 00
        E 360 90 3c 60
        E 120 80 3c 00
        E 360 90 35 60
        E 120 80 35 00
        E 360 90 35 60
        E 120 80 35 00
        E 360 90 3a 60
        E 120 80 3a 00
        E 360 90 3c 60
        E 120 80 3c 00
        E 360 90 35 60
        E 120 80 35 00
        E 360 90 35 60
        E 120 80 35 00
        E 360 90 3a 60
        E 120 80 3a 00
        E 360 90 3c 60
        E 120 80 3c 00
        E 360 90 35 60
        E 120 80 35 00
        E 360 90 35 60
        E 0 90 3a 60
        E 3360 80 35 00
        E 0 80 3a 00
        E 480 90 37 60
        E 0 90 3c 60
        E 1440 80 37 00
        E 0 80 3c 00
        E 480 90 3a 60
        E 0 90 3f 60
        E 1440 80 3a 00
        E 0 80 3f 00
        E 480 90 35 60
        E 0 90 3a 60
        E 3360 80 35 00
        E 0 80 3a 00
        E 480 90 37 60
        E 0 90 3c 60
        E 1440 80 37 00
        E 0 80 3c 00
        E 480 90 3a 60
        E 0 90 3f 60
        E 1440 80 3a 00
        E 0 80 3f 00
        E 480 90 35 60
        E 0 90 3a 60
        E 3360 80 35 00
        E 0 80 3a 00
        E 480 90 37 60
        E 0 90 3c 60
        E 1440 80 37 00
        E 0 80 3c 00
        E 480 90 3a 60
        E 0 90 3f 60
        E 1440 80 3a 00
        E 0 80 3f 00
        E 480 90 35 60
        E 0 90 3a 60
        E 3360 80 35 00
        E 0 80 3a 00
        E 480 90 37 60
        E 0 90 3c 60
        E 1440 80 37 00
        E 0 80 3c 00
        E 480 90 3a 60
        E 0 90 3f 60
        E 1440 80 3a 00
        E 0 80 3f 00
        E 480 90 35 60
        E 120 80 35 00
        E 360 90 3a 60
        E 120 80 3a 00
        E 360 90 3c 60
        E 120 80 3c 00
        E 360 90 35 60
        E 120 80 35 00
        E 360 90 35 60
        E 120 80 35 00
        E 360 90 3a 60
        E 120 80 3a 00
        E 360 90 3c 60
        E 120 80 3c 00
        E 360 90 35 60
        E 120 80 35 00
        E 360 90 35 60
        E 120 80 35 00
        E 360 90 3a 60
        E 120 80 3a 00
        E 360 90 3c 60
        E 120 80 3c 00
        E 360 90 35 60
        E 120 80 35 00
        E 360 90 35 60
        E 120 80 35 00
        E 360 90 3a 60
        E 120 80 3a 00
        E 360 90 3c 60
        E 120 80 3c 00
        E 360 90 35 60
        E 120 80 35 00
        E 360 90 35 60
        E 120 80 35 00
        E 360 90 3a 60
        E 120 80 3a 00
        E 360 90 3c 60
        E 120 80 3c 00
        E 360 90 35 60
        E 120 80 35 00
        E 360 90 35 60
        E 120 80 35 00
        E 360 90 3a 60
        E 120 80 3a 00
        E 360 90 3c 60
        E 120 80 3c 00
        E 360 90 35 60
        E 120 80 35 00
        E 360 90 35 60
        E 120 80 35 00
        E 360 90 3a 60
        E 120 80 3a 00
        E 360 90 3c 60
        E 120 80 3c 00
        E 360 90 35 60
        E 120 80 35 00
        E 360 90 35 60
        E 120 80 35 00
        E 360 90 3a 60
        E 120 80 3a 00
        E 360 90 3c 60
        E 120 80 3c 00
        E 360 90 35 60
        E 120 80 35 00
        E 360 90 35 60
        E 120 80 35 00
        E 360 90 3a 60
        E 120 80 3a 00
        E 360 90 3c 60
        E 120 80 3c 00
        E 360 90 35 60
        E 120 80 35 00
        E 360 90 35 60
        E 120 80 35 00
        E 360 90 3a 60
        E 120 80 3a 00
        E 360 90 3c 60
        E 120 80 3c 00
        E 360 90 35 60
        E 120 80 35 00
        E 360 90 35 60
        E 120 80 35 00
        E 360 90 3a 60
        E 120 80 3a 00
        E 360 90 3c 60
        E 120 80 3c 00
        E 360 90 35 60
        E 120 80 35 00
        E 360 90 35 60
        E 120 80 35 00
        E 360 90 3a 60
        E 120 80 3a 00
        E 360 90 3c 60
        E 120 80 3c 00
        E 360 90 35 60
        E 120 80 35 00
        E 360 90 35 60
        E 120 80 35 00
        E 360 90 3a 60
        E 120 80 3a 00
        E 360 90 3c 60
        E 120 80 3c 00
        E 360 90 35 60
        E 120 80 35 00
        E 360 90 35 60
        E 120 80 35 00
        E 360 90 3a 60
        E 120 80 3a 00
        E 360 90 3c 60
        E 120 80 3c 00
        E 360 90 35 60
        E 120 80 35 00
        E 360 90 35 60
        E 120 80 35 00
        E 360 90 3a 60
        E 120 80 3a 00
        E 360 90 3c 60
        E 120 80 3c 00
        E 360 90 35 60
        E 120 80 35 00
        E 360 90 35 60
        E 120 80 35 00
        E 360 90 3a 60
        E 120 80 3a 00
        E 360 90 3c 60
        E 120 80 3c 00
        E 360 90 35 60
        E 120 80 35 00
        E 360 90 35 60
        E 0 90 3a 60
        E 1440 80 35 00
        E 0 80 3a 00
        E 480 90 37 60
        E 0 90 3c 60
        E 1440 80 37 00
        E 0 80 3c 00
        E 480 90 3a 60
        E 0 90 3f 60
        E 1440 80 3a 00
        E 0 80 3f 00
        E 480 90 37 60
        E 0 90 3c 60
        E 1440 80 37 00
        E 0 80 3c 00
        E 480 90 35 60
        E 0 90 3a 60
        E 1440 80 35 00
        E 0 80 3a 00
        E 480 90 37 60
        E 0 90 3c 60
        E 1440 80 37 00
        E 0 80 3c 00
        E 480 90 3a 60
        E 0 90 3f 60
        E 1440 80 3a 00
        E 0 80 3f 00
        E 480 90 37 60
        E 0 90 3c 60
        E 1440 80 37 00
        E 0 80 3c 00
        E 480 90 35 60
        E 0 90 3a 60
        E 1440 80 35 00
        E 0 80 3a 00
        E 480 90 37 60
        E 0 90 3c 60
        E 1440 80 37 00
        E 0 80 3c 00
        E 480 90 3a 60
        E 0 90 3f 60
        E 1440 80 3a 00
        E 0 80 3f 00
        E 480 90 37 60
        E 0 90 3c 60
        E 1440 80 37 00
        E 0 80 3c 00
        E 480 90 35 60
        E 0 90 3a 60
        E 1440 80 35 00
        E 0 80 3a 00
        E 480 90 37 60
        E 0 90 3c 60
        E 1440 80 37 00
        E 0 80 3c 00
        E 480 90 3a 60
        E 0 90 3f 60
        E 1440 80 3a 00
        E 0 80 3f 00
        E 480 90 37 60
        E 0 90 3c 60
        E 1440 80 37 00
        E 0 80 3c 00
        E 480 90 35 60
        E 0 90 3a 60
        E 1440 80 35 00
        E 0 80 3a 00
        E 480 90 37 60
        E 0 90 3c 60
        E 1440 80 37 00
        E 0 80 3c 00
        E 480 90 3a 60
        E 0 90 3f 60
        E 1440 80 3a 00
        E 0 80 3f 00
        E 480 90 37 60
        E 0 90 3c 60
        E 1440 80 37 00
        E 0 80 3c 00
        E 480 90 35 60
        E 0 90 3a 60
        E 1440 80 35 00
        E 0 80 3a 00
        E 480 90 37 60
        E 0 90 3c 60
        E 1440 80 37 00
        E 0 80 3c 00
        E 480 90 3a 60
        E 0 90 3f 60
        E 1440 80 3a 00
        E 0 80 3f 00
        E 480 90 37 60
        E 0 90 3c 60
        E 1440 80 37 00
        E 0 80 3c 00
        E 480 90 35 60
        E 0 90 3a 60
        E 1440 80 35 00
        E 0 80 3a 00
        E 480 90 37 60
        E 0 90 3c 60
        E 1440 80 37 00
        E 0 80 3c 00
        E 480 90 3a 60
        E 0 90 3f 60
        E 1440 80 3a 00
        E 0 80 3f 00
        E 480 90 37 60
        E 0 90 3c 60
        E 1440 80 37 00
        E 0 80 3c 00
        E 480 90 35 60
        E 0 90 3a 60
        E 1440 80 35 00
        E 0 80 3a 00
        E 480 90 37 60
        E 0 90 3c 60
        E 1440 80 37 00
        E 0 80 3c 00
        E 480 90 3a 60
        E 0 90 3f 60
        E 1440 80 3a 00
        E 0 80 3f 00
        E 480 90 37 60
        E 0 90 3c 60
        E 1440 80 37 00
        E 0 80 3c 00
        E 480 90 35 60
        E 120 80 35 00
        E 360 90 3a 60
        E 120 80 3a 00
        E 360 90 3c 60
        E 120 80 3c 00
        E 360 90 35 60
        E 120 80 35 00
        E 360 90 35 60
        E 120 80 35 00
        E 360 90 3a 60
        E 120 80 3a 00
        E 360 90 3c 60
        E 120 80 3c 00
        E 360 90 35 60
        E 120 80 35 00
        E 360 90 35 60
        E 120 80 35 00
        E 360 90 3a 60
        E 120 80 3a 00
        E 360 90 3c 60
        E 120 80 3c 00
        E 360 90 35 60
        E 120 80 35 00
        E 360 90 35 60
        E 120 80 35 00
        E 360 90 3a 60
        E 120 80 3a 00
        E 360 90 3c 60
        E 120 80 3c 00
        E 360 90 35 60
        E 120 80 35 00
        E 360 90 35 60
        E 120 80 35 00
        E 360 90 3a 60
        E 120 80 3a 00
        E 360 90 3c 60
        E 120 80 3c 00
        E 360 90 35 60
        E 120 80 35 00
        E 360 90 35 60
        E 120 80 35 00
        E 360 90 3a 60
        E 120 80 3a 00
        E 360 90 3c 60
        E 120 80 3c 00
        E 360 90 35 60
        E 120 80 35 00
        E 360 90 35 60
        E 120 80 35 00
        E 360 90 3a 60
        E 120 80 3a 00
        E 360 90 3c 60
        E 120 80 3c 00
        E 360 90 35 60
        E 120 80 35 00
        E 360 90 35 60
        E 120 80 35 00
        E 360 90 3a 60
        E 120 80 3a 00
        E 360 90 3c 60
        E 120 80 3c 00
        E 360 90 35 60
        E 120 80 35 00
        E 360 90 35 60
        E 120 80 35 00
        E 360 90 3a 60
        E 120 80 3a 00
        E 360 90 3c 60
        E 120 80 3c 00
        E 360 90 35 60
        E 120 80 35 00
        E 360 90 35 60
        E 120 80 35 00
        E 360 90 3a 60
        E 120 80 3a 00
        E 360 90 3c 60
        E 120 80 3c 00
        E 360 90 35 60
        E 120 80 35 00
        E 360 90 35 60
        E 120 80 35 00
        E 360 90 3a 60
        E 120 80 3a 00
        E 360 90 3c 60
        E 120 80 3c 00
        E 360 90 35 60
        E 120 80 35 00
        E 360 90 35 60
        E 120 80 35 00
        E 360 90 3a 60
        E 120 80 3a 00
        E 360 90 3c 60
        E 120 80 3c 00
        E 360 90 35 60
        E 120 80 35 00
        E 360 90 35 60
        E 120 80 35 00
        E 360 90 3a 60
        E 120 80 3a 00
        E 360 90 3c 60
        E 120 80 3c 00
        E 360 90 35 60
        E 120 80 35 00
        E 360 90 35 60
        E 120 80 35 00
        E 360 90 3a 60
        E 120 80 3a 00
        E 360 90 3c 60
        E 120 80 3c 00
        E 360 90 35 60
        E 120 80 35 00
        E 360 90 35 60
        E 120 80 35 00
        E 360 90 3a 60
        E 120 80 3a 00
        E 360 90 3c 60
        E 120 80 3c 00
        E 360 90 35 60
        E 120 80 35 00
        E 360 90 35 60
        E 120 80 35 00
        E 360 90 3a 60
        E 120 80 3a 00
        E 360 90 3c 60
        E 120 80 3c 00
        E 360 90 35 60
        E 120 80 35 00
        E 360 90 35 60
        E 120 80 35 00
        E 360 90 3a 60
        E 120 80 3a 00
        E 360 90 3c 60
        E 120 80 3c 00
        E 360 90 35 60
        E 120 80 35 00
        E 360 90 35 60
        E 120 80 35 00
        E 360 90 3a 60
        E 120 80 3a 00
        E 360 90 3c 60
        E 120 80 3c 00
        E 360 90 35 60
        E 120 80 35 00
        E 360 90 35 60
        E 120 80 35 00
        E 360 90 3a 60
        E 120 80 3a 00
        E 360 90 3c 60
        E 120 80 3c 00
        E 360 90 35 60
        E 120 80 35 00
        E 360 90 35 60
        E 120 80 35 00
        E 360 90 3a 60
        E 120 80 3a 00
        E 360 90 3c 60
        E 120 80 3c 00
        E 360 90 35 60
        E 120 80 35 00
        E 360 90 35 60
        E 0 90 3a 60
        E 1440 80 35 00
        E 0 80 3a 00
        E 480 90 37 60
        E 0 90 3c 60
        E 1440 80 37 00
        E 0 80 3c 00
        E 480 90 3a 60
        E 0 90 3f 60
        E 1440 80 3a 00
        E 0 80 3f 00
        E 480 90 37 60
        E 0 90 3c 60
        E 1440 80 37 00
        E 0 80 3c 00
        E 480 90 35 60
        E 0 90 3a 60
        E 1440 80 35 00
        E 0 80 3a 00
        E 480 90 37 60
        E 0 90 3c 60
        E 1440 80 37 00
        E 0 80 3c 00
        E 480 90 3a 60
        E 0 90 3f 60
        E 1440 80 3a 00
        E 0 80 3f 00
        E 480 90 37 60
        E 0 90 3c 60
        E 1440 80 37 00
        E 0 80 3c 00
        E 480 90 35 60
        E 0 90 3a 60
        E 1440 80 35 00
        E 0 80 3a 00
        E 480 90 37 60
        E 0 90 3c 60
        E 1440 80 37 00
        E 0 80 3c 00
        E 480 90 3a 60
        E 0 90 3f 60
        E 1440 80 3a 00
        E 0 80 3f 00
        E 480 90 37 60
        E 0 90 3c 60
        E 1440 80 37 00
        E 0 80 3c 00
        E 480 90 35 60
        E 0 90 3a 60
        E 1440 80 35 00
        E 0 80 3a 00
        E 480 90 37 60
        E 0 90 3c 60
        E 1440 80 37 00
        E 0 80 3c 00
        E 480 90 3a 60
        E 0 90 3f 60
        E 1440 80 3a 00
        E 0 80 3f 00
        E 480 90 37 60
        E 0 90 3c 60
        E 1440 80 37 00
        E 0 80 3c 00
        E 480 90 35 60
        E 0 90 3a 60
        E 1440 80 35 00
        E 0 80 3a 00
        E 480 90 37 60
        E 0 90 3c 60
        E 1440 80 37 00
        E 0 80 3c 00
        E 480 90 3a 60
        E 0 90 3f 60
        E 1440 80 3a 00
        E 0 80 3f 00
        E 480 90 37 60
        E 0 90 3c 60
        E 1440 80 37 00
        E 0 80 3c 00
        E 480 90 35 60
        E 0 90 3a 60
        E 1440 80 35 00
        E 0 80 3a 00
        E 480 90 37 60
        E 0 90 3c 60
        E 1440 80 37 00
        E 0 80 3c 00
        E 480 90 3a 60
        E 0 90 3f 60
        E 1440 80 3a 00
        E 0 80 3f 00
        E 480 90 37 60
        E 0 90 3c 60
        E 1440 80 37 00
        E 0 80 3c 00
        E 480 90 35 60
        E 0 90 3a 60
        E 1440 80 35 00
        E 0 80 3a 00
        E 480 90 37 60
        E 0 90 3c 60
        E 1440 80 37 00
        E 0 80 3c 00
        E 480 90 3a 60
        E 0 90 3f 60
        E 1440 80 3a 00
        E 0 80 3f 00
        E 480 90 37 60
        E 0 90 3c 60
        E 1440 80 37 00
        E 0 80 3c 00
        E 480 90 35 60
        E 0 90 3a 60
        E 3839 80 35 00
        E 0 80 3a 00
        E 7681 b0 7b 00
        GUID {14C4EED6-7696-4FBF-ABA3-3C2B9077F1CA}
        IGNTEMPO 0 120.00000000 4 4
        SRCCOLOR 6
        VELLANE 132 128 60
        COLORMAP "C:\Program Files\REAPER (x64)\Data\color_maps\rockband_guitarbass.png"
        CFGEDITVIEW -18721.282280 3.743333 0 15 0 0 0
        CFGEDIT 1 1 0 1 1 0 1 1 1 1 1 0.12500000 53 44 1253 718 0 2 1 1 0.00000000 0 1 1 0 0.500000 0 0 1.000000 64
        KEYSNAP 0 7 "102030050700" 0 "Pentatonic"
        EVTFILTER 0 -1 -1 -1 -1 0 1 0 0 -1.00000000 -1.00000000
      >
    >
  >
  <TRACK '{0E943B4F-6A34-43DA-B2F6-32B1476B04C2}'
    NAME "PART REAL_KEYS_E"
    PEAKCOL 16576
    BEAT -1
    AUTOMODE 0
    VOLPAN 1.00000000000000 0.00000000000000 -1.00000000000000 -1.00000000000000 1.00000000000000
    MUTESOLO 0 0 0
    IPHASE 0
    ISBUS 0 0
    BUSCOMP 0 0
    SHOWINMIX 1 0.666700 0.500000 1 0.500000 -1 -1 -1
    FREEMODE 0
    SEL 0
    REC 0 0 0 0 0 0 0
    VU 2
    TRACKHEIGHT 0 0
    INQ 0 0 0 0.5000000000 100 0 0 100
    NCHAN 2
    FX 1
    TRACKID {0E943B4F-6A34-43DA-B2F6-32B1476B04C2}
    PERF 0
    MIDIOUT -1
    <MIDINOTENAMES
      0 72 "Highest playable note B#3"
      0 71 "B3"
      0 70 "A#3"
      0 69 "A3"
      0 68 "G#3"
      0 67 "G3"
      0 66 "F#3"
      0 65 "F3"
      0 64 "E3"
      0 63 "D#3"
      0 62 "D3"
      0 61 "C#3"
      0 60 "C3"
      0 59 "B2"
      0 58 "A#2"
      0 57 "A2"
      0 56 "G#2"
      0 55 "G2"
      0 54 "F#2"
      0 53 "F2"
      0 52 "E2"
      0 51 "D#2"
      0 50 "D2"
      0 49 "C#2"
      0 48 "Lowest playable note C2"
      0 10 "---"
      0 9 "Range A2-C4"
      0 8 "Range"
      0 7 "Range"
      0 6 "Range"
      0 5 "Range F2-A3"
      0 4 "Range"
      0 3 "Range"
      0 2 "Range"
      0 1 "Range"
      0 0 "Range C2-E3"
    >
    MAINSEND 1 0
    <FXCHAIN
      SHOW 0
      LASTSEL 0
      DOCKED 0
    >
    <ITEM
      POSITION 0.00000000000000
      SNAPOFFS 0.00000000000000
      LENGTH 300.00000000000000
      LOOP 0
      ALLTAKES 0
      SEL 0
      FADEIN 1 0.000000 0.000000 1 0
      FADEOUT 1 0.000000 0.000000 1 0
      MUTE 0
      IGUID {14263EF7-26D7-4AEF-A985-0BD3209A3235}
      IID 7
      NAME "PART REAL_KEYS_E"
      VOLPAN 1.000000 0.000000 1.000000 -1.000000
      SOFFS 0.00000000000000 0.00000000000000
      PLAYRATE 1.00000000000000 1 0.00000000000000 -1
      CHANMODE 0
      GUID {BB82704D-C177-4A93-B93D-818DEB3C2544}
      <SOURCE MIDI
        HASDATA 1 480 QN
        POOLEDEVTS {1CA6DA42-8F2A-42FF-BEC3-0F79632B25E3}
        <X 0 0
          /wNQQVJUIFJFQUxfS0VZU19F
        >
        E 0 90 05 60
        E 120 80 05 00
        E 15240 90 35 60
        E 120 80 35 00
        E 840 90 3c 60
        E 120 80 3c 00
        E 840 90 35 60
        E 120 80 35 00
        E 840 90 3c 60
        E 120 80 3c 00
        E 840 90 35 60
        E 120 80 35 00
        E 840 90 3c 60
        E 120 80 3c 00
        E 840 90 35 60
        E 120 80 35 00
        E 840 90 3c 60
        E 120 80 3c 00
        E 840 90 35 60
        E 120 80 35 00
        E 840 90 3c 60
        E 120 80 3c 00
        E 840 90 35 60
        E 120 80 35 00
        E 840 90 3c 60
        E 120 80 3c 00
        E 840 90 35 60
        E 120 80 35 00
        E 840 90 3c 60
        E 120 80 3c 00
        E 840 90 35 60
        E 120 80 35 00
        E 840 90 3c 60
        E 120 80 3c 00
        E 840 90 35 60
        E 120 80 35 00
        E 840 90 3c 60
        E 120 80 3c 00
        E 840 90 35 60
        E 120 80 35 00
        E 840 90 3c 60
        E 120 80 3c 00
        E 840 90 35 60
        E 120 80 35 00
        E 840 90 3c 60
        E 120 80 3c 00
        E 840 90 35 60
        E 120 80 35 00
        E 840 90 3c 60
        E 120 80 3c 00
        E 840 90 35 60
        E 120 80 35 00
        E 840 90 3c 60
        E 120 80 3c 00
        E 840 90 35 60
        E 120 80 35 00
        E 840 90 3c 60
        E 120 80 3c 00
        E 840 90 35 60
        E 120 80 35 00
        E 840 90 3c 60
        E 120 80 3c 00
        E 840 90 35 60
        E 120 80 35 00
        E 840 90 3c 60
        E 120 80 3c 00
        E 840 90 35 60
        E 120 80 35 00
        E 840 90 3c 60
        E 120 80 3c 00
        E 840 90 35 60
        E 120 80 35 00
        E 840 90 3c 60
        E 120 80 3c 00
        E 840 90 35 60
        E 120 80 35 00
        E 840 90 3c 60
        E 120 80 3c 00
        E 840 90 35 60
        E 120 80 35 00
        E 840 90 3c 60
        E 120 80 3c 00
        E 840 90 35 60
        E 120 80 35 00
        E 840 90 3c 60
        E 120 80 3c 00
        E 840 90 35 60
        E 120 80 35 00
        E 840 90 3c 60
        E 120 80 3c 00
        E 840 90 35 60
        E 120 80 35 00
        E 840 90 3c 60
        E 120 80 3c 00
        E 840 90 35 60
        E 120 80 35 00
        E 840 90 3c 60
        E 120 80 3c 00
        E 840 90 35 60
        E 3360 80 35 00
        E 480 90 37 60
        E 1440 80 37 00
        E 480 90 3a 60
        E 1440 80 3a 00
        E 480 90 35 60
        E 3360 80 35 00
        E 480 90 37 60
        E 1440 80 37 00
        E 480 90 3a 60
        E 1440 80 3a 00
        E 480 90 35 60
        E 3360 80 35 00
        E 480 90 37 60
        E 1440 80 37 00
        E 480 90 3a 60
        E 1440 80 3a 00
        E 480 90 35 60
        E 3360 80 35 00
        E 480 90 37 60
        E 1440 80 37 00
        E 480 90 3a 60
        E 1440 80 3a 00
        E 480 90 35 60
        E 120 80 35 00
        E 840 90 3c 60
        E 120 80 3c 00
        E 840 90 35 60
        E 120 80 35 00
        E 840 90 3c 60
        E 120 80 3c 00
        E 840 90 35 60
        E 120 80 35 00
        E 840 90 3c 60
        E 120 80 3c 00
        E 840 90 35 60
        E 120 80 35 00
        E 840 90 3c 60
        E 120 80 3c 00
        E 840 90 35 60
        E 120 80 35 00
        E 840 90 3c 60
        E 120 80 3c 00
        E 840 90 35 60
        E 120 80 35 00
        E 840 90 3c 60
        E 120 80 3c 00
        E 840 90 35 60
        E 120 80 35 00
        E 840 90 3c 60
        E 120 80 3c 00
        E 840 90 35 60
        E 120 80 35 00
        E 840 90 3c 60
        E 120 80 3c 00
        E 840 90 35 60
        E 120 80 35 00
        E 840 90 3c 60
        E 120 80 3c 00
        E 840 90 35 60
        E 120 80 35 00
        E 840 90 3c 60
        E 120 80 3c 00
        E 840 90 35 60
        E 120 80 35 00
        E 840 90 3c 60
        E 120 80 3c 00
        E 840 90 35 60
        E 120 80 35 00
        E 840 90 3c 60
        E 120 80 3c 00
        E 840 90 35 60
        E 120 80 35 00
        E 840 90 3c 60
        E 120 80 3c 00
        E 840 90 35 60
        E 120 80 35 00
        E 840 90 3c 60
        E 120 80 3c 00
        E 840 90 35 60
        E 120 80 35 00
        E 840 90 3c 60
        E 120 80 3c 00
        E 840 90 35 60
        E 120 80 35 00
        E 840 90 3c 60
        E 120 80 3c 00
        E 840 90 35 60
        E 1440 80 35 00
        E 480 90 37 60
        E 1440 80 37 00
        E 480 90 3a 60
        E 1440 80 3a 00
        E 480 90 37 60
        E 1440 80 37 00
        E 480 90 35 60
        E 1440 80 35 00
        E 480 90 37 60
        E 1440 80 37 00
        E 480 90 3a 60
        E 1440 80 3a 00
        E 480 90 37 60
        E 1440 80 37 00
        E 480 90 35 60
        E 1440 80 35 00
        E 480 90 37 60
        E 1440 80 37 00
        E 480 90 3a 60
        E 1440 80 3a 00
        E 480 90 37 60
        E 1440 80 37 00
        E 480 90 35 60
        E 1440 80 35 00
        E 480 90 37 60
        E 1440 80 37 00
        E 480 90 3a 60
        E 1440 80 3a 00
        E 480 90 37 60
        E 1440 80 37 00
        E 480 90 35 60
        E 1440 80 35 00
        E 480 90 37 60
        E 1440 80 37 00
        E 480 90 3a 60
        E 1440 80 3a 00
        E 480 90 37 60
        E 1440 80 37 00
        E 480 90 35 60
        E 1440 80 35 00
        E 480 90 37 60
        E 1440 80 37 00
        E 480 90 3a 60
        E 1440 80 3a 00
        E 480 90 37 60
        E 1440 80 37 00
        E 480 90 35 60
        E 1440 80 35 00
        E 480 90 37 60
        E 1440 80 37 00
        E 480 90 3a 60
        E 1440 80 3a 00
        E 480 90 37 60
        E 1440 80 37 00
        E 480 90 35 60
        E 1440 80 35 00
        E 480 90 37 60
        E 1440 80 37 00
        E 480 90 3a 60
        E 1440 80 3a 00
        E 480 90 37 60
        E 1440 80 37 00
        E 480 90 35 60
        E 120 80 35 00
        E 840 90 3c 60
        E 120 80 3c 00
        E 840 90 35 60
        E 120 80 35 00
        E 840 90 3c 60
        E 120 80 3c 00
        E 840 90 35 60
        E 120 80 35 00
        E 840 90 3c 60
        E 120 80 3c 00
        E 840 90 35 60
        E 120 80 35 00
        E 840 90 3c 60
        E 120 80 3c 00
        E 840 90 35 60
        E 120 80 35 00
        E 840 90 3c 60
        E 120 80 3c 00
        E 840 90 35 60
        E 120 80 35 00
        E 840 90 3c 60
        E 120 80 3c 00
        E 840 90 35 60
        E 120 80 35 00
        E 840 90 3c 60
        E 120 80 3c 00
        E 840 90 35 60
        E 120 80 35 00
        E 840 90 3c 60
        E 120 80 3c 00
        E 840 90 35 60
        E 120 80 35 00
        E 840 90 3c 60
        E 120 80 3c 00
        E 840 90 35 60
        E 120 80 35 00
        E 840 90 3c 60
        E 120 80 3c 00
        E 840 90 35 60
        E 120 80 35 00
        E 840 90 3c 60
        E 120 80 3c 00
        E 840 90 35 60
        E 120 80 35 00
        E 840 90 3c 60
        E 120 80 3c 00
        E 840 90 35 60
        E 120 80 35 00
        E 840 90 3c 60
        E 120 80 3c 00
        E 840 90 35 60
        E 120 80 35 00
        E 840 90 3c 60
        E 120 80 3c 00
        E 840 90 35 60
        E 120 80 35 00
        E 840 90 3c 60
        E 120 80 3c 00
        E 840 90 35 60
        E 120 80 35 00
        E 840 90 3c 60
        E 120 80 3c 00
        E 840 90 35 60
        E 120 80 35 00
        E 840 90 3c 60
        E 120 80 3c 00
        E 840 90 35 60
        E 120 80 35 00
        E 840 90 3c 60
        E 120 80 3c 00
        E 840 90 35 60
        E 120 80 35 00
        E 840 90 3c 60
        E 120 80 3c 00
        E 840 90 35 60
        E 120 80 35 00
        E 840 90 3c 60
        E 120 80 3c 00
        E 840 90 35 60
        E 1440 80 35 00
        E 480 90 37 60
        E 1440 80 37 00
        E 480 90 3a 60
        E 1440 80 3a 00
        E 480 90 37 60
        E 1440 80 37 00
        E 480 90 35 60
        E 1440 80 35 00
        E 480 90 37 60
        E 1440 80 37 00
        E 480 90 3a 60
        E 1440 80 3a 00
        E 480 90 37 60
        E 1440 80 37 00
        E 480 90 35 60
        E 1440 80 35 00
        E 480 90 37 60
        E 1440 80 37 00
        E 480 90 3a 60
        E 1440 80 3a 00
        E 480 90 37 60
        E 1440 80 37 00
        E 480 90 35 60
        E 1440 80 35 00
        E 480 90 37 60
        E 1440 80 37 00
        E 480 90 3a 60
        E 1440 80 3a 00
        E 480 90 37 60
        E 1440 80 37 00
        E 480 90 35 60
        E 1440 80 35 00
        E 480 90 37 60
        E 1440 80 37 00
        E 480 90 3a 60
        E 1440 80 3a 00
        E 480 90 37 60
        E 1440 80 37 00
        E 480 90 35 60
        E 1440 80 35 00
        E 480 90 37 60
        E 1440 80 37 00
        E 480 90 3a 60
        E 1440 80 3a 00
        E 480 90 37 60
        E 1440 80 37 00
        E 480 90 35 60
        E 1440 80 35 00
        E 480 90 37 60
        E 1440 80 37 00
        E 480 90 3a 60
        E 1440 80 3a 00
        E 480 90 37 60
        E 1440 80 37 00
        E 480 90 35 60
        E 3839 80 35 00
        E 7681 b0 7b 00
        GUID {5FF76099-34FD-4131-922E-D63E1B955CAE}
        IGNTEMPO 0 120.00000000 4 4
        SRCCOLOR 7
        VELLANE 132 128 60
        COLORMAP "C:\Program Files\REAPER (x64)\Data\color_maps\rockband_guitarbass.png"
        CFGEDITVIEW -18721.282280 3.743333 0 15 0 0 0
        CFGEDIT 1 1 0 1 1 0 1 1 1 1 1 0.12500000 53 44 1253 718 0 2 1 1 0.00000000 0 1 1 0 0.500000 0 0 1.000000 64
        KEYSNAP 0 7 "102030050700" 0 "Pentatonic"
        EVTFILTER 0 -1 -1 -1 -1 0 1 0 0 -1.00000000 -1.00000000
      >
    >
  >
  <TRACK '{842CA753-2287-4099-A5D7-90646DEFAB2C}'
    NAME "PART KEYS_ANIM_RH"
    PEAKCOL 16576
    BEAT -1
    AUTOMODE 0
    VOLPAN 1.00000000000000 0.00000000000000 -1.00000000000000 -1.00000000000000 1.00000000000000
    MUTESOLO 0 0 0
    IPHASE 0
    ISBUS 2 -1
    BUSCOMP 0 0
    SHOWINMIX 1 0.666700 0.500000 1 0.500000 -1 -1 -1
    FREEMODE 0
    SEL 0
    REC 0 0 0 0 0 0 0
    VU 2
    TRACKHEIGHT 0 0
    INQ 0 0 0 0.5000000000 100 0 0 100
    NCHAN 2
    FX 1
    TRACKID {842CA753-2287-4099-A5D7-90646DEFAB2C}
    PERF 0
    MIDIOUT -1
    <MIDINOTENAMES
      0 72 "Highest playable note B#3"
      0 71 "B3"
      0 70 "A#3"
      0 69 "A3"
      0 68 "G#3"
      0 67 "G3"
      0 66 "F#3"
      0 65 "F3"
      0 64 "E3"
      0 63 "D#3"
      0 62 "D3"
      0 61 "C#3"
      0 60 "C3"
      0 59 "B2"
      0 58 "A#2"
      0 57 "A2"
      0 56 "G#2"
      0 55 "G2"
      0 54 "F#2"
      0 53 "F2"
      0 52 "E2"
      0 51 "D#2"
      0 50 "D2"
      0 49 "C#2"
      0 48 "Lowest playable note C2"
    >
    MAINSEND 1 0
    <FXCHAIN
      SHOW 0
      LASTSEL 0
      DOCKED 0
    >
    <ITEM
      POSITION 0.00000000000000
      SNAPOFFS 0.00000000000000
      LENGTH 300.00000000000000
      LOOP 0
      ALLTAKES 0
      SEL 0
      FADEIN 1 0.000000 0.000000 1 0
      FADEOUT 1 0.000000 0.000000 1 0
      MUTE 0
      IGUID {F96EF65B-C468-4CFD-AAFE-39596DC6D8D3}
      IID 8
      NAME "PART KEYS_ANIM_RH"
      VOLPAN 1.000000 0.000000 1.000000 -1.000000
      SOFFS 0.00000000000000 0.00000000000000
      PLAYRATE 1.00000000000000 1 0.00000000000000 -1
      CHANMODE 0
      GUID {ABE7955E-9D22-4FD5-B648-CA479B90D819}
      <SOURCE MIDI
        HASDATA 1 480 QN
        POOLEDEVTS {0C9779B4-DE55-476F-9466-611FB5F4E0B8}
        <X 0 0
          /wNQQVJUIEtFWVNfQU5JTV9SSA==
        >
        E 15360 90 35 60
        E 120 80 35 00
        E 0 90 3a 60
        E 120 80 3a 00
        E 0 90 3c 60
        E 120 80 3c 00
        E 0 90 35 60
        E 120 80 35 00
        E 0 90 3a 60
        E 120 80 3a 00
        E 0 90 3c 60
        E 120 80 3c 00
        E 0 90 35 60
        E 120 80 35 00
        E 0 90 3a 60
        E 120 80 3a 00
        E 0 90 3c 60
        E 120 80 3c 00
        E 0 90 35 60
        E 120 80 35 00
        E 0 90 3a 60
        E 120 80 3a 00
        E 0 90 3c 60
        E 120 80 3c 00
        E 0 90 35 60
        E 120 80 35 00
        E 0 90 3a 60
        E 120 80 3a 00
        E 0 90 3c 60
        E 120 80 3c 00
        E 0 90 3a 60
        E 120 80 3a 00
        E 0 90 35 60
        E 120 80 35 00
        E 0 90 3a 60
        E 120 80 3a 00
        E 0 90 3c 60
        E 120 80 3c 00
        E 0 90 35 60
        E 120 80 35 00
        E 0 90 3a 60
        E 120 80 3a 00
        E 0 90 3c 60
        E 120 80 3c 00
        E 0 90 35 60
        E 120 80 35 00
        E 0 90 3a 60
        E 120 80 3a 00
        E 0 90 3c 60
        E 120 80 3c 00
        E 0 90 35 60
        E 120 80 35 00
        E 0 90 3a 60
        E 120 80 3a 00
        E 0 90 3c 60
        E 120 80 3c 00
        E 0 90 35 60
        E 120 80 35 00
        E 0 90 3a 60
        E 120 80 3a 00
        E 0 90 3c 60
        E 120 80 3c 00
        E 0 90 3a 60
        E 120 80 3a 00
        E 0 90 35 60
        E 120 80 35 00
        E 0 90 3a 60
        E 120 80 3a 00
        E 0 90 3c 60
        E 120 80 3c 00
        E 0 90 35 60
        E 120 80 35 00
        E 0 90 3a 60
        E 120 80 3a 00
        E 0 90 3c 60
        E 120 80 3c 00
        E 0 90 35 60
        E 120 80 35 00
        E 0 90 3a 60
        E 120 80 3a 00
        E 0 90 3c 60
        E 120 80 3c 00
        E 0 90 35 60
        E 120 80 35 00
        E 0 90 3a 60
        E 120 80 3a 00
        E 0 90 3c 60
        E 120 80 3c 00
        E 0 90 35 60
        E 120 80 35 00
        E 0 90 3a 60
        E 120 80 3a 00
        E 0 90 3c 60
        E 120 80 3c 00
        E 0 90 3a 60
        E 120 80 3a 00
        E 0 90 35 60
        E 120 80 35 00
        E 0 90 3a 60
        E 120 80 3a 00
        E 0 90 3c 60
        E 120 80 3c 00
        E 0 90 35 60
        E 120 80 35 00
        E 0 90 3a 60
        E 120 80 3a 00
        E 0 90 3c 60
        E 120 80 3c 00
        E 0 90 35 60
        E 120 80 35 00
        E 0 90 3a 60
        E 120 80 3a 00
        E 0 90 3c 60
        E 120 80 3c 00
        E 0 90 35 60
        E 120 80 35 00
        E 0 90 3a 60
        E 120 80 3a 00
        E 0 90 3c 60
        E 120 80 3c 00
        E 0 90 35 60
        E 120 80 35 00
        E 0 90 3a 60
        E 120 80 3a 00
        E 0 90 3c 60
        E 120 80 3c 00
        E 0 90 3a 60
        E 120 80 3a 00
        E 0 90 35 60
        E 120 80 35 00
        E 0 90 3a 60
        E 120 80 3a 00
        E 0 90 3c 60
        E 120 80 3c 00
        E 0 90 35 60
        E 120 80 35 00
        E 0 90 3a 60
        E 120 80 3a 00
        E 0 90 3c 60
        E 120 80 3c 00
        E 0 90 35 60
        E 120 80 35 00
        E 0 90 3a 60
        E 120 80 3a 00
        E 0 90 3c 60
        E 120 80 3c 00
        E 0 90 35 60
        E 120 80 35 00
        E 0 90 3a 60
        E 120 80 3a 00
        E 0 90 3c 60
        E 120 80 3c 00
        E 0 90 35 60
        E 120 80 35 00
        E 0 90 3a 60
        E 120 80 3a 00
        E 0 90 3c 60
        E 120 80 3c 00
        E 0 90 3a 60
        E 120 80 3a 00
        E 0 90 35 60
        E 120 80 35 00
        E 0 90 3a 60
        E 120 80 3a 00
        E 0 90 3c 60
        E 120 80 3c 00
        E 0 90 35 60
        E 120 80 35 00
        E 0 90 3a 60
        E 120 80 3a 00
        E 0 90 3c 60
        E 120 80 3c 00
        E 0 90 35 60
        E 120 80 35 00
        E 0 90 3a 60
        E 120 80 3a 00
        E 0 90 3c 60
        E 120 80 3c 00
        E 0 90 35 60
        E 120 80 35 00
        E 0 90 3a 60
        E 120 80 3a 00
        E 0 90 3c 60
        E 120 80 3c 00
        E 0 90 35 60
        E 120 80 35 00
        E 0 90 3a 60
        E 120 80 3a 00
        E 0 90 3c 60
        E 120 80 3c 00
        E 0 90 3a 60
        E 120 80 3a 00
        E 0 90 35 60
        E 120 80 35 00
        E 0 90 3a 60
        E 120 80 3a 00
        E 0 90 3c 60
        E 120 80 3c 00
        E 0 90 35 60
        E 120 80 35 00
        E 0 90 3a 60
        E 120 80 3a 00
        E 0 90 3c 60
        E 120 80 3c 00
        E 0 90 35 60
        E 120 80 35 00
        E 0 90 3a 60
        E 120 80 3a 00
        E 0 90 3c 60
        E 120 80 3c 00
        E 0 90 35 60
        E 120 80 35 00
        E 0 90 3a 60
        E 120 80 3a 00
        E 0 90 3c 60
        E 120 80 3c 00
        E 0 90 35 60
        E 120 80 35 00
        E 0 90 3a 60
        E 120 80 3a 00
        E 0 90 3c 60
        E 120 80 3c 00
        E 0 90 3a 60
        E 120 80 3a 00
        E 0 90 35 60
        E 120 80 35 00
        E 0 90 3a 60
        E 120 80 3a 00
        E 0 90 3c 60
        E 120 80 3c 00
        E 0 90 35 60
        E 120 80 35 00
        E 0 90 3a 60
        E 120 80 3a 00
        E 0 90 3c 60
        E 120 80 3c 00
        E 0 90 35 60
        E 120 80 35 00
        E 0 90 3a 60
        E 120 80 3a 00
        E 0 90 3c 60
        E 120 80 3c 00
        E 0 90 35 60
        E 120 80 35 00
        E 0 90 3a 60
        E 120 80 3a 00
        E 0 90 3c 60
        E 120 80 3c 00
        E 0 90 35 60
        E 120 80 35 00
        E 0 90 3a 60
        E 120 80 3a 00
        E 0 90 3c 60
        E 120 80 3c 00
        E 0 90 3a 60
        E 120 80 3a 00
        E 0 90 35 60
        E 120 80 35 00
        E 0 90 3a 60
        E 120 80 3a 00
        E 0 90 3c 60
        E 120 80 3c 00
        E 0 90 35 60
        E 120 80 35 00
        E 0 90 3a 60
        E 120 80 3a 00
        E 0 90 3c 60
        E 120 80 3c 00
        E 0 90 35 60
        E 120 80 35 00
        E 0 90 3a 60
        E 120 80 3a 00
        E 0 90 3c 60
        E 120 80 3c 00
        E 0 90 35 60
        E 120 80 35 00
        E 0 90 3a 60
        E 120 80 3a 00
        E 0 90 3c 60
        E 120 80 3c 00
        E 0 90 35 60
        E 120 80 35 00
        E 0 90 3a 60
        E 120 80 3a 00
        E 0 90 3c 60
        E 120 80 3c 00
        E 0 90 3a 60
        E 120 80 3a 00
        E 0 90 35 60
        E 120 80 35 00
        E 0 90 3a 60
        E 120 80 3a 00
        E 0 90 3c 60
        E 120 80 3c 00
        E 0 90 35 60
        E 120 80 35 00
        E 0 90 3a 60
        E 120 80 3a 00
        E 0 90 3c 60
        E 120 80 3c 00
        E 0 90 35 60
        E 120 80 35 00
        E 0 90 3a 60
        E 120 80 3a 00
        E 0 90 3c 60
        E 120 80 3c 00
        E 0 90 35 60
        E 120 80 35 00
        E 0 90 3a 60
        E 120 80 3a 00
        E 0 90 3c 60
        E 120 80 3c 00
        E 0 90 35 60
        E 120 80 35 00
        E 0 90 3a 60
        E 120 80 3a 00
        E 0 90 3c 60
        E 120 80 3c 00
        E 0 90 3a 60
        E 120 80 3a 00
        E 0 90 35 60
        E 120 80 35 00
        E 0 90 3a 60
        E 120 80 3a 00
        E 0 90 3c 60
        E 120 80 3c 00
        E 0 90 35 60
        E 120 80 35 00
        E 0 90 3a 60
        E 120 80 3a 00
        E 0 90 3c 60
        E 120 80 3c 00
        E 0 90 35 60
        E 120 80 35 00
        E 0 90 3a 60
        E 120 80 3a 00
        E 0 90 3c 60
        E 120 80 3c 00
        E 0 90 35 60
        E 120 80 35 00
        E 0 90 3a 60
        E 120 80 3a 00
        E 0 90 3c 60
        E 120 80 3c 00
        E 0 90 35 60
        E 120 80 35 00
        E 0 90 3a 60
        E 120 80 3a 00
        E 0 90 3c 60
        E 120 80 3c 00
        E 0 90 3a 60
        E 120 80 3a 00
        E 0 90 35 60
        E 120 80 35 00
        E 0 90 3a 60
        E 120 80 3a 00
        E 0 90 3c 60
        E 120 80 3c 00
        E 0 90 35 60
        E 120 80 35 00
        E 0 90 3a 60
        E 120 80 3a 00
        E 0 90 3c 60
        E 120 80 3c 00
        E 0 90 35 60
        E 120 80 35 00
        E 0 90 3a 60
        E 120 80 3a 00
        E 0 90 3c 60
        E 120 80 3c 00
        E 0 90 35 60
        E 120 80 35 00
        E 0 90 3a 60
        E 120 80 3a 00
        E 0 90 3c 60
        E 120 80 3c 00
        E 0 90 35 60
        E 120 80 35 00
        E 0 90 3a 60
        E 120 80 3a 00
        E 0 90 3c 60
        E 120 80 3c 00
        E 0 90 3a 60
        E 120 80 3a 00
        E 0 90 35 60
        E 120 80 35 00
        E 0 90 3a 60
        E 120 80 3a 00
        E 0 90 3c 60
        E 120 80 3c 00
        E 0 90 35 60
        E 120 80 35 00
        E 0 90 3a 60
        E 120 80 3a 00
        E 0 90 3c 60
        E 120 80 3c 00
        E 0 90 35 60
        E 120 80 35 00
        E 0 90 3a 60
        E 120 80 3a 00
        E 0 90 3c 60
        E 120 80 3c 00
        E 0 90 35 60
        E 120 80 35 00
        E 0 90 3a 60
        E 120 80 3a 00
        E 0 90 3c 60
        E 120 80 3c 00
        E 0 90 35 60
        E 120 80 35 00
        E 0 90 3a 60
        E 120 80 3a 00
        E 0 90 3c 60
        E 120 80 3c 00
        E 0 90 3a 60
        E 120 80 3a 00
        E 0 90 35 60
        E 120 80 35 00
        E 0 90 3a 60
        E 120 80 3a 00
        E 0 90 3c 60
        E 120 80 3c 00
        E 0 90 35 60
        E 120 80 35 00
        E 0 90 3a 60
        E 120 80 3a 00
        E 0 90 3c 60
        E 120 80 3c 00
        E 0 90 35 60
        E 120 80 35 00
        E 0 90 3a 60
        E 120 80 3a 00
        E 0 90 3c 60
        E 120 80 3c 00
        E 0 90 35 60
        E 120 80 35 00
        E 0 90 3a 60
        E 120 80 3a 00
        E 0 90 3c 60
        E 120 80 3c 00
        E 0 90 35 60
        E 120 80 35 00
        E 0 90 3a 60
        E 120 80 3a 00
        E 0 90 3c 60
        E 120 80 3c 00
        E 0 90 3a 60
        E 120 80 3a 00
        E 0 90 35 60
        E 120 80 35 00
        E 0 90 3a 60
        E 120 80 3a 00
        E 0 90 3c 60
        E 120 80 3c 00
        E 0 90 35 60
        E 120 80 35 00
        E 0 90 3a 60
        E 120 80 3a 00
        E 0 90 3c 60
        E 120 80 3c 00
        E 0 90 35 60
        E 120 80 35 00
        E 0 90 3a 60
        E 120 80 3a 00
        E 0 90 3c 60
        E 120 80 3c 00
        E 0 90 35 60
        E 120 80 35 00
        E 0 90 3a 60
        E 120 80 3a 00
        E 0 90 3c 60
        E 120 80 3c 00
        E 0 90 35 60
        E 120 80 35 00
        E 0 90 3a 60
        E 120 80 3a 00
        E 0 90 3c 60
        E 120 80 3c 00
        E 0 90 3a 60
        E 120 80 3a 00
        E 0 90 35 60
        E 120 80 35 00
        E 0 90 3a 60
        E 120 80 3a 00
        E 0 90 3c 60
        E 120 80 3c 00
        E 0 90 35 60
        E 120 80 35 00
        E 0 90 3a 60
        E 120 80 3a 00
        E 0 90 3c 60
        E 120 80 3c 00
        E 0 90 35 60
        E 120 80 35 00
        E 0 90 3a 60
        E 120 80 3a 00
        E 0 90 3c 60
        E 120 80 3c 00
        E 0 90 35 60
        E 120 80 35 00
        E 0 90 3a 60
        E 120 80 3a 00
        E 0 90 3c 60
        E 120 80 3c 00
        E 0 90 35 60
        E 120 80 35 00
        E 0 90 3a 60
        E 120 80 3a 00
        E 0 90 3c 60
        E 120 80 3c 00
        E 0 90 3a 60
        E 120 80 3a 00
        E 0 90 35 60
        E 120 80 35 00
        E 0 90 3a 60
        E 120 80 3a 00
        E 0 90 3c 60
        E 120 80 3c 00
        E 0 90 35 60
        E 120 80 35 00
        E 0 90 3a 60
        E 120 80 3a 00
        E 0 90 3c 60
        E 120 80 3c 00
        E 0 90 35 60
        E 120 80 35 00
        E 0 90 3a 60
        E 120 80 3a 00
        E 0 90 3c 60
        E 120 80 3c 00
        E 0 90 35 60
        E 120 80 35 00
        E 0 90 3a 60
        E 120 80 3a 00
        E 0 90 3c 60
        E 120 80 3c 00
        E 0 90 35 60
        E 120 80 35 00
        E 0 90 3a 60
        E 120 80 3a 00
        E 0 90 3c 60
        E 120 80 3c 00
        E 0 90 3a 60
        E 120 80 3a 00
        E 0 90 35 60
        E 120 80 35 00
        E 0 90 3a 60
        E 120 80 3a 00
        E 0 90 3c 60
        E 120 80 3c 00
        E 0 90 35 60
        E 120 80 35 00
        E 0 90 3a 60
        E 120 80 3a 00
        E 0 90 3c 60
        E 120 80 3c 00
        E 0 90 35 60
        E 120 80 35 00
        E 0 90 3a 60
        E 120 80 3a 00
        E 0 90 3c 60
        E 120 80 3c 00
        E 0 90 35 60
        E 120 80 35 00
        E 0 90 3a 60
        E 120 80 3a 00
        E 0 90 3c 60
        E 120 80 3c 00
        E 0 90 35 60
        E 120 80 35 00
        E 0 90 3a 60
        E 120 80 3a 00
        E 0 90 3c 60
        E 120 80 3c 00
        E 0 90 3a 60
        E 120 80 3a 00
        E 0 90 35 60
        E 120 80 35 00
        E 0 90 3a 60
        E 120 80 3a 00
        E 0 90 3c 60
        E 120 80 3c 00
        E 0 90 35 60
        E 120 80 35 00
        E 0 90 3a 60
        E 120 80 3a 00
        E 0 90 3c 60
        E 120 80 3c 00
        E 0 90 35 60
        E 120 80 35 00
        E 0 90 3a 60
        E 120 80 3a 00
        E 0 90 3c 60
        E 120 80 3c 00
        E 0 90 35 60
        E 120 80 35 00
        E 0 90 3a 60
        E 120 80 3a 00
        E 0 90 3c 60
        E 120 80 3c 00
        E 0 90 35 60
        E 120 80 35 00
        E 0 90 3a 60
        E 120 80 3a 00
        E 0 90 3c 60
        E 120 80 3c 00
        E 0 90 3a 60
        E 120 80 3a 00
        E 0 90 35 60
        E 120 80 35 00
        E 0 90 3a 60
        E 120 80 3a 00
        E 0 90 3c 60
        E 120 80 3c 00
        E 0 90 35 60
        E 120 80 35 00
        E 0 90 3a 60
        E 120 80 3a 00
        E 0 90 3c 60
        E 120 80 3c 00
        E 0 90 35 60
        E 120 80 35 00
        E 0 90 3a 60
        E 120 80 3a 00
        E 0 90 3c 60
        E 120 80 3c 00
        E 0 90 35 60
        E 120 80 35 00
        E 0 90 3a 60
        E 120 80 3a 00
        E 0 90 3c 60
        E 120 80 3c 00
        E 0 90 35 60
        E 120 80 35 00
        E 0 90 3a 60
        E 120 80 3a 00
        E 0 90 3c 60
        E 120 80 3c 00
        E 0 90 3a 60
        E 120 80 3a 00
        E 0 90 35 60
        E 120 80 35 00
        E 0 90 3a 60
        E 120 80 3a 00
        E 0 90 3c 60
        E 120 80 3c 00
        E 0 90 35 60
        E 120 80 35 00
        E 0 90 3a 60
        E 120 80 3a 00
        E 0 90 3c 60
        E 120 80 3c 00
        E 0 90 35 60
        E 120 80 35 00
        E 0 90 3a 60
        E 120 80 3a 00
        E 0 90 3c 60
        E 120 80 3c 00
        E 0 90 35 60
        E 120 80 35 00
        E 0 90 3a 60
        E 120 80 3a 00
        E 0 90 3c 60
        E 120 80 3c 00
        E 0 90 35 60
        E 120 80 35 00
        E 0 90 3a 60
        E 120 80 3a 00
        E 0 90 3c 60
        E 120 80 3c 00
        E 0 90 3a 60
        E 120 80 3a 00
        E 0 90 35 60
        E 120 80 35 00
        E 0 90 3a 60
        E 120 80 3a 00
        E 0 90 3c 60
        E 120 80 3c 00
        E 0 90 35 60
        E 120 80 35 00
        E 0 90 3a 60
        E 120 80 3a 00
        E 0 90 3c 60
        E 120 80 3c 00
        E 0 90 35 60
        E 120 80 35 00
        E 0 90 3a 60
        E 120 80 3a 00
        E 0 90 3c 60
        E 120 80 3c 00
        E 0 90 35 60
        E 120 80 35 00
        E 0 90 3a 60
        E 120 80 3a 00
        E 0 90 3c 60
        E 120 80 3c 00
        E 0 90 35 60
        E 120 80 35 00
        E 0 90 3a 60
        E 120 80 3a 00
        E 0 90 3c 60
        E 120 80 3c 00
        E 0 90 3a 60
        E 120 80 3a 00
        E 0 90 35 60
        E 120 80 35 00
        E 0 90 3a 60
        E 120 80 3a 00
        E 0 90 3c 60
        E 120 80 3c 00
        E 0 90 35 60
        E 120 80 35 00
        E 0 90 3a 60
        E 120 80 3a 00
        E 0 90 3c 60
        E 120 80 3c 00
        E 0 90 35 60
        E 120 80 35 00
        E 0 90 3a 60
        E 120 80 3a 00
        E 0 90 3c 60
        E 120 80 3c 00
        E 0 90 35 60
        E 120 80 35 00
        E 0 90 3a 60
        E 120 80 3a 00
        E 0 90 3c 60
        E 120 80 3c 00
        E 0 90 35 60
        E 120 80 35 00
        E 0 90 3a 60
        E 120 80 3a 00
        E 0 90 3c 60
        E 120 80 3c 00
        E 0 90 3a 60
        E 120 80 3a 00
        E 0 90 35 60
        E 120 80 35 00
        E 0 90 3a 60
        E 120 80 3a 00
        E 0 90 3c 60
        E 120 80 3c 00
        E 0 90 35 60
        E 120 80 35 00
        E 0 90 3a 60
        E 120 80 3a 00
        E 0 90 3c 60
        E 120 80 3c 00
        E 0 90 35 60
        E 120 80 35 00
        E 0 90 3a 60
        E 120 80 3a 00
        E 0 90 3c 60
        E 120 80 3c 00
        E 0 90 35 60
        E 120 80 35 00
        E 0 90 3a 60
        E 120 80 3a 00
        E 0 90 3c 60
        E 120 80 3c 00
        E 0 90 35 60
        E 120 80 35 00
        E 0 90 3a 60
        E 120 80 3a 00
        E 0 90 3c 60
        E 120 80 3c 00
        E 0 90 3a 60
        E 120 80 3a 00
        E 0 90 35 60
        E 0 90 3a 60
        E 0 90 3c 60
        E 3720 80 35 00
        E 0 80 3a 00
        E 120 90 37 60
        E 1800 80 3c 00
        E 0 80 37 00
        E 120 90 35 60
        E 0 90 3a 60
        E 0 90 3f 60
        E 1800 80 35 00
        E 0 80 3a 00
        E 0 80 3f 00
        E 120 90 35 60
        E 0 90 3a 60
        E 0 90 3c 60
        E 3720 80 35 00
        E 0 80 3a 00
        E 120 90 37 60
        E 1800 80 3c 00
        E 0 80 37 00
        E 120 90 35 60
        E 0 90 3a 60
        E 0 90 3f 60
        E 1800 80 35 00
        E 0 80 3a 00
        E 0 80 3f 00
        E 120 90 35 60
        E 0 90 3a 60
        E 0 90 3c 60
        E 3720 80 35 00
        E 0 80 3a 00
        E 120 90 37 60
        E 1800 80 3c 00
        E 0 80 37 00
        E 120 90 35 60
        E 0 90 3a 60
        E 0 90 3f 60
        E 1800 80 35 00
        E 0 80 3a 00
        E 0 80 3f 00
        E 120 90 35 60
        E 0 90 3a 60
        E 0 90 3c 60
        E 3720 80 35 00
        E 0 80 3a 00
        E 120 90 37 60
        E 1800 80 3c 00
        E 0 80 37 00
        E 120 90 35 60
        E 0 90 3a 60
        E 0 90 3f 60
        E 1800 80 35 00
        E 0 80 3a 00
        E 0 80 3f 00
        E 120 90 35 60
        E 120 80 35 00
        E 0 90 3a 60
        E 120 80 3a 00
        E 0 90 3c 60
        E 120 80 3c 00
        E 0 90 35 60
        E 120 80 35 00
        E 0 90 3a 60
        E 120 80 3a 00
        E 0 90 3c 60
        E 120 80 3c 00
        E 0 90 35 60
        E 120 80 35 00
        E 0 90 3a 60
        E 120 80 3a 00
        E 0 90 3c 60
        E 120 80 3c 00
        E 0 90 35 60
        E 120 80 35 00
        E 0 90 3a 60
        E 120 80 3a 00
        E 0 90 3c 60
        E 120 80 3c 00
        E 0 90 35 60
        E 120 80 35 00
        E 0 90 3a 60
        E 120 80 3a 00
        E 0 90 3c 60
        E 120 80 3c 00
        E 0 90 3a 60
        E 120 80 3a 00
        E 0 90 35 60
        E 120 80 35 00
        E 0 90 3a 60
        E 120 80 3a 00
        E 0 90 3c 60
        E 120 80 3c 00
        E 0 90 35 60
        E 120 80 35 00
        E 0 90 3a 60
        E 120 80 3a 00
        E 0 90 3c 60
        E 120 80 3c 00
        E 0 90 35 60
        E 120 80 35 00
        E 0 90 3a 60
        E 120 80 3a 00
        E 0 90 3c 60
        E 120 80 3c 00
        E 0 90 35 60
        E 120 80 35 00
        E 0 90 3a 60
        E 120 80 3a 00
        E 0 90 3c 60
        E 120 80 3c 00
        E 0 90 35 60
        E 120 80 35 00
        E 0 90 3a 60
        E 120 80 3a 00
        E 0 90 3c 60
        E 120 80 3c 00
        E 0 90 3a 60
        E 120 80 3a 00
        E 0 90 35 60
        E 120 80 35 00
        E 0 90 3a 60
        E 120 80 3a 00
        E 0 90 3c 60
        E 120 80 3c 00
        E 0 90 35 60
        E 120 80 35 00
        E 0 90 3a 60
        E 120 80 3a 00
        E 0 90 3c 60
        E 120 80 3c 00
        E 0 90 35 60
        E 120 80 35 00
        E 0 90 3a 60
        E 120 80 3a 00
        E 0 90 3c 60
        E 120 80 3c 00
        E 0 90 35 60
        E 120 80 35 00
        E 0 90 3a 60
        E 120 80 3a 00
        E 0 90 3c 60
        E 120 80 3c 00
        E 0 90 35 60
        E 120 80 35 00
        E 0 90 3a 60
        E 120 80 3a 00
        E 0 90 3c 60
        E 120 80 3c 00
        E 0 90 3a 60
        E 120 80 3a 00
        E 0 90 35 60
        E 120 80 35 00
        E 0 90 3a 60
        E 120 80 3a 00
        E 0 90 3c 60
        E 120 80 3c 00
        E 0 90 35 60
        E 120 80 35 00
        E 0 90 3a 60
        E 120 80 3a 00
        E 0 90 3c 60
        E 120 80 3c 00
        E 0 90 35 60
        E 120 80 35 00
        E 0 90 3a 60
        E 120 80 3a 00
        E 0 90 3c 60
        E 120 80 3c 00
        E 0 90 35 60
        E 120 80 35 00
        E 0 90 3a 60
        E 120 80 3a 00
        E 0 90 3c 60
        E 120 80 3c 00
        E 0 90 35 60
        E 120 80 35 00
        E 0 90 3a 60
        E 120 80 3a 00
        E 0 90 3c 60
        E 120 80 3c 00
        E 0 90 3a 60
        E 120 80 3a 00
        E 0 90 35 60
        E 120 80 35 00
        E 0 90 3a 60
        E 120 80 3a 00
        E 0 90 3c 60
        E 120 80 3c 00
        E 0 90 35 60
        E 120 80 35 00
        E 0 90 3a 60
        E 120 80 3a 00
        E 0 90 3c 60
        E 120 80 3c 00
        E 0 90 35 60
        E 120 80 35 00
        E 0 90 3a 60
        E 120 80 3a 00
        E 0 90 3c 60
        E 120 80 3c 00
        E 0 90 35 60
        E 120 80 35 00
        E 0 90 3a 60
        E 120 80 3a 00
        E 0 90 3c 60
        E 120 80 3c 00
        E 0 90 35 60
        E 120 80 35 00
        E 0 90 3a 60
        E 120 80 3a 00
        E 0 90 3c 60
        E 120 80 3c 00
        E 0 90 3a 60
        E 120 80 3a 00
        E 0 90 35 60
        E 120 80 35 00
        E 0 90 3a 60
        E 120 80 3a 00
        E 0 90 3c 60
        E 120 80 3c 00
        E 0 90 35 60
        E 120 80 35 00
        E 0 90 3a 60
        E 120 80 3a 00
        E 0 90 3c 60
        E 120 80 3c 00
        E 0 90 35 60
        E 120 80 35 00
        E 0 90 3a 60
        E 120 80 3a 00
        E 0 90 3c 60
        E 120 80 3c 00
        E 0 90 35 60
        E 120 80 35 00
        E 0 90 3a 60
        E 120 80 3a 00
        E 0 90 3c 60
        E 120 80 3c 00
        E 0 90 35 60
        E 120 80 35 00
        E 0 90 3a 60
        E 120 80 3a 00
        E 0 90 3c 60
        E 120 80 3c 00
        E 0 90 3a 60
        E 120 80 3a 00
        E 0 90 35 60
        E 120 80 35 00
        E 0 90 3a 60
        E 120 80 3a 00
        E 0 90 3c 60
        E 120 80 3c 00
        E 0 90 35 60
        E 120 80 35 00
        E 0 90 3a 60
        E 120 80 3a 00
        E 0 90 3c 60
        E 120 80 3c 00
        E 0 90 35 60
        E 120 80 35 00
        E 0 90 3a 60
        E 120 80 3a 00
        E 0 90 3c 60
        E 120 80 3c 00
        E 0 90 35 60
        E 120 80 35 00
        E 0 90 3a 60
        E 120 80 3a 00
        E 0 90 3c 60
        E 120 80 3c 00
        E 0 90 35 60
        E 120 80 35 00
        E 0 90 3a 60
        E 120 80 3a 00
        E 0 90 3c 60
        E 120 80 3c 00
        E 0 90 3a 60
        E 120 80 3a 00
        E 0 90 35 60
        E 120 80 35 00
        E 0 90 3a 60
        E 120 80 3a 00
        E 0 90 3c 60
        E 120 80 3c 00
        E 0 90 35 60
        E 120 80 35 00
        E 0 90 3a 60
        E 120 80 3a 00
        E 0 90 3c 60
        E 120 80 3c 00
        E 0 90 35 60
        E 120 80 35 00
        E 0 90 3a 60
        E 120 80 3a 00
        E 0 90 3c 60
        E 120 80 3c 00
        E 0 90 35 60
        E 120 80 35 00
        E 0 90 3a 60
        E 120 80 3a 00
        E 0 90 3c 60
        E 120 80 3c 00
        E 0 90 35 60
        E 120 80 35 00
        E 0 90 3a 60
        E 120 80 3a 00
        E 0 90 3c 60
        E 120 80 3c 00
        E 0 90 3a 60
        E 120 80 3a 00
        E 0 90 35 60
        E 120 80 35 00
        E 0 90 3a 60
        E 120 80 3a 00
        E 0 90 3c 60
        E 120 80 3c 00
        E 0 90 35 60
        E 120 80 35 00
        E 0 90 3a 60
        E 120 80 3a 00
        E 0 90 3c 60
        E 120 80 3c 00
        E 0 90 35 60
        E 120 80 35 00
        E 0 90 3a 60
        E 120 80 3a 00
        E 0 90 3c 60
        E 120 80 3c 00
        E 0 90 35 60
        E 120 80 35 00
        E 0 90 3a 60
        E 120 80 3a 00
        E 0 90 3c 60
        E 120 80 3c 00
        E 0 90 35 60
        E 120 80 35 00
        E 0 90 3a 60
        E 120 80 3a 00
        E 0 90 3c 60
        E 120 80 3c 00
        E 0 90 3a 60
        E 120 80 3a 00
        E 0 90 35 60
        E 120 80 35 00
        E 0 90 3a 60
        E 120 80 3a 00
        E 0 90 3c 60
        E 120 80 3c 00
        E 0 90 35 60
        E 120 80 35 00
        E 0 90 3a 60
        E 120 80 3a 00
        E 0 90 3c 60
        E 120 80 3c 00
        E 0 90 35 60
        E 120 80 35 00
        E 0 90 3a 60
        E 120 80 3a 00
        E 0 90 3c 60
        E 120 80 3c 00
        E 0 90 35 60
        E 120 80 35 00
        E 0 90 3a 60
        E 120 80 3a 00
        E 0 90 3c 60
        E 120 80 3c 00
        E 0 90 35 60
        E 120 80 35 00
        E 0 90 3a 60
        E 120 80 3a 00
        E 0 90 3c 60
        E 120 80 3c 00
        E 0 90 3a 60
        E 120 80 3a 00
        E 0 90 35 60
        E 120 80 35 00
        E 0 90 3a 60
        E 120 80 3a 00
        E 0 90 3c 60
        E 120 80 3c 00
        E 0 90 35 60
        E 120 80 35 00
        E 0 90 3a 60
        E 120 80 3a 00
        E 0 90 3c 60
        E 120 80 3c 00
        E 0 90 35 60
        E 120 80 35 00
        E 0 90 3a 60
        E 120 80 3a 00
        E 0 90 3c 60
        E 120 80 3c 00
        E 0 90 35 60
        E 120 80 35 00
        E 0 90 3a 60
        E 120 80 3a 00
        E 0 90 3c 60
        E 120 80 3c 00
        E 0 90 35 60
        E 120 80 35 00
        E 0 90 3a 60
        E 120 80 3a 00
        E 0 90 3c 60
        E 120 80 3c 00
        E 0 90 3a 60
        E 120 80 3a 00
        E 0 90 35 60
        E 120 80 35 00
        E 0 90 3a 60
        E 120 80 3a 00
        E 0 90 3c 60
        E 120 80 3c 00
        E 0 90 35 60
        E 120 80 35 00
        E 0 90 3a 60
        E 120 80 3a 00
        E 0 90 3c 60
        E 120 80 3c 00
        E 0 90 35 60
        E 120 80 35 00
        E 0 90 3a 60
        E 120 80 3a 00
        E 0 90 3c 60
        E 120 80 3c 00
        E 0 90 35 60
        E 120 80 35 00
        E 0 90 3a 60
        E 120 80 3a 00
        E 0 90 3c 60
        E 120 80 3c 00
        E 0 90 35 60
        E 120 80 35 00
        E 0 90 3a 60
        E 120 80 3a 00
        E 0 90 3c 60
        E 120 80 3c 00
        E 0 90 3a 60
        E 120 80 3a 00
        E 0 90 35 60
        E 120 80 35 00
        E 0 90 3a 60
        E 120 80 3a 00
        E 0 90 3c 60
        E 120 80 3c 00
        E 0 90 35 60
        E 120 80 35 00
        E 0 90 3a 60
        E 120 80 3a 00
        E 0 90 3c 60
        E 120 80 3c 00
        E 0 90 35 60
        E 120 80 35 00
        E 0 90 3a 60
        E 120 80 3a 00
        E 0 90 3c 60
        E 120 80 3c 00
        E 0 90 35 60
        E 120 80 35 00
        E 0 90 3a 60
        E 120 80 3a 00
        E 0 90 3c 60
        E 120 80 3c 00
        E 0 90 35 60
        E 120 80 35 00
        E 0 90 3a 60
        E 120 80 3a 00
        E 0 90 3c 60
        E 120 80 3c 00
        E 0 90 3a 60
        E 120 80 3a 00
        E 0 90 35 60
        E 120 80 35 00
        E 0 90 3a 60
        E 120 80 3a 00
        E 0 90 3c 60
        E 120 80 3c 00
        E 0 90 35 60
        E 120 80 35 00
        E 0 90 3a 60
        E 120 80 3a 00
        E 0 90 3c 60
        E 120 80 3c 00
        E 0 90 35 60
        E 120 80 35 00
        E 0 90 3a 60
        E 120 80 3a 00
        E 0 90 3c 60
        E 120 80 3c 00
        E 0 90 35 60
        E 120 80 35 00
        E 0 90 3a 60
        E 120 80 3a 00
        E 0 90 3c 60
        E 120 80 3c 00
        E 0 90 35 60
        E 120 80 35 00
        E 0 90 3a 60
        E 120 80 3a 00
        E 0 90 3c 60
        E 120 80 3c 00
        E 0 90 3a 60
        E 120 80 3a 00
        E 0 90 35 60
        E 120 80 35 00
        E 0 90 3a 60
        E 120 80 3a 00
        E 0 90 3c 60
        E 120 80 3c 00
        E 0 90 35 60
        E 120 80 35 00
        E 0 90 3a 60
        E 120 80 3a 00
        E 0 90 3c 60
        E 120 80 3c 00
        E 0 90 35 60
        E 120 80 35 00
        E 0 90 3a 60
        E 120 80 3a 00
        E 0 90 3c 60
        E 120 80 3c 00
        E 0 90 35 60
        E 120 80 35 00
        E 0 90 3a 60
        E 120 80 3a 00
        E 0 90 3c 60
        E 120 80 3c 00
        E 0 90 35 60
        E 120 80 35 00
        E 0 90 3a 60
        E 120 80 3a 00
        E 0 90 3c 60
        E 120 80 3c 00
        E 0 90 3a 60
        E 120 80 3a 00
        E 0 90 35 60
        E 120 80 35 00
        E 0 90 3a 60
        E 120 80 3a 00
        E 0 90 3c 60
        E 120 80 3c 00
        E 0 90 35 60
        E 120 80 35 00
        E 0 90 3a 60
        E 120 80 3a 00
        E 0 90 3c 60
        E 120 80 3c 00
        E 0 90 35 60
        E 120 80 35 00
        E 0 90 3a 60
        E 120 80 3a 00
        E 0 90 3c 60
        E 120 80 3c 00
        E 0 90 35 60
        E 120 80 35 00
        E 0 90 3a 60
        E 120 80 3a 00
        E 0 90 3c 60
        E 120 80 3c 00
        E 0 90 35 60
        E 120 80 35 00
        E 0 90 3a 60
        E 120 80 3a 00
        E 0 90 3c 60
        E 120 80 3c 00
        E 0 90 3a 60
        E 120 80 3a 00
        E 0 90 35 60
        E 0 90 3a 60
        E 0 90 3c 60
        E 1800 80 35 00
        E 0 80 3a 00
        E 120 90 37 60
        E 1800 80 3c 00
        E 0 80 37 00
        E 120 90 35 60
        E 0 90 3a 60
        E 0 90 3f 60
        E 1800 80 35 00
        E 0 80 3a 00
        E 0 80 3f 00
        E 120 90 37 60
        E 0 90 3c 60
        E 1800 80 37 00
        E 120 90 35 60
        E 0 90 3a 60
        E 1800 80 35 00
        E 0 80 3a 00
        E 120 90 37 60
        E 1800 80 3c 00
        E 0 80 37 00
        E 120 90 35 60
        E 0 90 3a 60
        E 0 90 3f 60
        E 1800 80 35 00
        E 0 80 3a 00
        E 0 80 3f 00
        E 120 90 37 60
        E 0 90 3c 60
        E 1800 80 37 00
        E 120 90 35 60
        E 0 90 3a 60
        E 1800 80 35 00
        E 0 80 3a 00
        E 120 90 37 60
        E 1800 80 3c 00
        E 0 80 37 00
        E 120 90 35 60
        E 0 90 3a 60
        E 0 90 3f 60
        E 1800 80 35 00
        E 0 80 3a 00
        E 0 80 3f 00
        E 120 90 37 60
        E 0 90 3c 60
        E 1800 80 37 00
        E 120 90 35 60
        E 0 90 3a 60
        E 1800 80 35 00
        E 0 80 3a 00
        E 120 90 37 60
        E 1800 80 3c 00
        E 0 80 37 00
        E 120 90 35 60
        E 0 90 3a 60
        E 0 90 3f 60
        E 1800 80 35 00
        E 0 80 3a 00
        E 0 80 3f 00
        E 120 90 37 60
        E 0 90 3c 60
        E 1800 80 37 00
        E 120 90 35 60
        E 0 90 3a 60
        E 1800 80 35 00
        E 0 80 3a 00
        E 120 90 37 60
        E 1800 80 3c 00
        E 0 80 37 00
        E 120 90 35 60
        E 0 90 3a 60
        E 0 90 3f 60
        E 1800 80 35 00
        E 0 80 3a 00
        E 0 80 3f 00
        E 120 90 37 60
        E 0 90 3c 60
        E 1800 80 37 00
        E 120 90 35 60
        E 0 90 3a 60
        E 1800 80 35 00
        E 0 80 3a 00
        E 120 90 37 60
        E 1800 80 3c 00
        E 0 80 37 00
        E 120 90 35 60
        E 0 90 3a 60
        E 0 90 3f 60
        E 1800 80 35 00
        E 0 80 3a 00
        E 0 80 3f 00
        E 120 90 37 60
        E 0 90 3c 60
        E 1800 80 37 00
        E 120 90 35 60
        E 0 90 3a 60
        E 1800 80 35 00
        E 0 80 3a 00
        E 120 90 37 60
        E 1800 80 3c 00
        E 0 80 37 00
        E 120 90 35 60
        E 0 90 3a 60
        E 0 90 3f 60
        E 1800 80 35 00
        E 0 80 3a 00
        E 0 80 3f 00
        E 120 90 37 60
        E 0 90 3c 60
        E 1800 80 37 00
        E 120 90 35 60
        E 0 90 3a 60
        E 1800 80 35 00
        E 0 80 3a 00
        E 120 90 37 60
        E 1800 80 3c 00
        E 0 80 37 00
        E 120 90 35 60
        E 0 90 3a 60
        E 0 90 3f 60
        E 1800 80 35 00
        E 0 80 3a 00
        E 0 80 3f 00
        E 120 90 37 60
        E 0 90 3c 60
        E 1800 80 37 00
        E 0 80 3c 00
        E 120 90 35 60
        E 120 80 35 00
        E 0 90 3a 60
        E 120 80 3a 00
        E 0 90 3c 60
        E 120 80 3c 00
        E 0 90 35 60
        E 120 80 35 00
        E 0 90 3a 60
        E 120 80 3a 00
        E 0 90 3c 60
        E 120 80 3c 00
        E 0 90 35 60
        E 120 80 35 00
        E 0 90 3a 60
        E 120 80 3a 00
        E 0 90 3c 60
        E 120 80 3c 00
        E 0 90 35 60
        E 120 80 35 00
        E 0 90 3a 60
        E 120 80 3a 00
        E 0 90 3c 60
        E 120 80 3c 00
        E 0 90 35 60
        E 120 80 35 00
        E 0 90 3a 60
        E 120 80 3a 00
        E 0 90 3c 60
        E 120 80 3c 00
        E 0 90 3a 60
        E 120 80 3a 00
        E 0 90 35 60
        E 120 80 35 00
        E 0 90 3a 60
        E 120 80 3a 00
        E 0 90 3c 60
        E 120 80 3c 00
        E 0 90 35 60
        E 120 80 35 00
        E 0 90 3a 60
        E 120 80 3a 00
        E 0 90 3c 60
        E 120 80 3c 00
        E 0 90 35 60
        E 120 80 35 00
        E 0 90 3a 60
        E 120 80 3a 00
        E 0 90 3c 60
        E 120 80 3c 00
        E 0 90 35 60
        E 120 80 35 00
        E 0 90 3a 60
        E 120 80 3a 00
        E 0 90 3c 60
        E 120 80 3c 00
        E 0 90 35 60
        E 120 80 35 00
        E 0 90 3a 60
        E 120 80 3a 00
        E 0 90 3c 60
        E 120 80 3c 00
        E 0 90 3a 60
        E 120 80 3a 00
        E 0 90 35 60
        E 120 80 35 00
        E 0 90 3a 60
        E 120 80 3a 00
        E 0 90 3c 60
        E 120 80 3c 00
        E 0 90 35 60
        E 120 80 35 00
        E 0 90 3a 60
        E 120 80 3a 00
        E 0 90 3c 60
        E 120 80 3c 00
        E 0 90 35 60
        E 120 80 35 00
        E 0 90 3a 60
        E 120 80 3a 00
        E 0 90 3c 60
        E 120 80 3c 00
        E 0 90 35 60
        E 120 80 35 00
        E 0 90 3a 60
        E 120 80 3a 00
        E 0 90 3c 60
        E 120 80 3c 00
        E 0 90 35 60
        E 120 80 35 00
        E 0 90 3a 60
        E 120 80 3a 00
        E 0 90 3c 60
        E 120 80 3c 00
        E 0 90 3a 60
        E 120 80 3a 00
        E 0 90 35 60
        E 120 80 35 00
        E 0 90 3a 60
        E 120 80 3a 00
        E 0 90 3c 60
        E 120 80 3c 00
        E 0 90 35 60
        E 120 80 35 00
        E 0 90 3a 60
        E 120 80 3a 00
        E 0 90 3c 60
        E 120 80 3c 00
        E 0 90 35 60
        E 120 80 35 00
        E 0 90 3a 60
        E 120 80 3a 00
        E 0 90 3c 60
        E 120 80 3c 00
        E 0 90 35 60
        E 120 80 35 00
        E 0 90 3a 60
        E 120 80 3a 00
        E 0 90 3c 60
        E 120 80 3c 00
        E 0 90 35 60
        E 120 80 35 00
        E 0 90 3a 60
        E 120 80 3a 00
        E 0 90 3c 60
        E 120 80 3c 00
        E 0 90 3a 60
        E 120 80 3a 00
        E 0 90 35 60
        E 120 80 35 00
        E 0 90 3a 60
        E 120 80 3a 00
        E 0 90 3c 60
        E 120 80 3c 00
        E 0 90 35 60
        E 120 80 35 00
        E 0 90 3a 60
        E 120 80 3a 00
        E 0 90 3c 60
        E 120 80 3c 00
        E 0 90 35 60
        E 120 80 35 00
        E 0 90 3a 60
        E 120 80 3a 00
        E 0 90 3c 60
        E 120 80 3c 00
        E 0 90 35 60
        E 120 80 35 00
        E 0 90 3a 60
        E 120 80 3a 00
        E 0 90 3c 60
        E 120 80 3c 00
        E 0 90 35 60
        E 120 80 35 00
        E 0 90 3a 60
        E 120 80 3a 00
        E 0 90 3c 60
        E 120 80 3c 00
        E 0 90 3a 60
        E 120 80 3a 00
        E 0 90 35 60
        E 120 80 35 00
        E 0 90 3a 60
        E 120 80 3a 00
        E 0 90 3c 60
        E 120 80 3c 00
        E 0 90 35 60
        E 120 80 35 00
        E 0 90 3a 60
        E 120 80 3a 00
        E 0 90 3c 60
        E 120 80 3c 00
        E 0 90 35 60
        E 120 80 35 00
        E 0 90 3a 60
        E 120 80 3a 00
        E 0 90 3c 60
        E 120 80 3c 00
        E 0 90 35 60
        E 120 80 35 00
        E 0 90 3a 60
        E 120 80 3a 00
        E 0 90 3c 60
        E 120 80 3c 00
        E 0 90 35 60
        E 120 80 35 00
        E 0 90 3a 60
        E 120 80 3a 00
        E 0 90 3c 60
        E 120 80 3c 00
        E 0 90 3a 60
        E 120 80 3a 00
        E 0 90 35 60
        E 120 80 35 00
        E 0 90 3a 60
        E 120 80 3a 00
        E 0 90 3c 60
        E 120 80 3c 00
        E 0 90 35 60
        E 120 80 35 00
        E 0 90 3a 60
        E 120 80 3a 00
        E 0 90 3c 60
        E 120 80 3c 00
        E 0 90 35 60
        E 120 80 35 00
        E 0 90 3a 60
        E 120 80 3a 00
        E 0 90 3c 60
        E 120 80 3c 00
        E 0 90 35 60
        E 120 80 35 00
        E 0 90 3a 60
        E 120 80 3a 00
        E 0 90 3c 60
        E 120 80 3c 00
        E 0 90 35 60
        E 120 80 35 00
        E 0 90 3a 60
        E 120 80 3a 00
        E 0 90 3c 60
        E 120 80 3c 00
        E 0 90 3a 60
        E 120 80 3a 00
        E 0 90 35 60
        E 120 80 35 00
        E 0 90 3a 60
        E 120 80 3a 00
        E 0 90 3c 60
        E 120 80 3c 00
        E 0 90 35 60
        E 120 80 35 00
        E 0 90 3a 60
        E 120 80 3a 00
        E 0 90 3c 60
        E 120 80 3c 00
        E 0 90 35 60
        E 120 80 35 00
        E 0 90 3a 60
        E 120 80 3a 00
        E 0 90 3c 60
        E 120 80 3c 00
        E 0 90 35 60
        E 120 80 35 00
        E 0 90 3a 60
        E 120 80 3a 00
        E 0 90 3c 60
        E 120 80 3c 00
        E 0 90 35 60
        E 120 80 35 00
        E 0 90 3a 60
        E 120 80 3a 00
        E 0 90 3c 60
        E 120 80 3c 00
        E 0 90 3a 60
        E 120 80 3a 00
        E 0 90 35 60
        E 120 80 35 00
        E 0 90 3a 60
        E 120 80 3a 00
        E 0 90 3c 60
        E 120 80 3c 00
        E 0 90 35 60
        E 120 80 35 00
        E 0 90 3a 60
        E 120 80 3a 00
        E 0 90 3c 60
        E 120 80 3c 00
        E 0 90 35 60
        E 120 80 35 00
        E 0 90 3a 60
        E 120 80 3a 00
        E 0 90 3c 60
        E 120 80 3c 00
        E 0 90 35 60
        E 120 80 35 00
        E 0 90 3a 60
        E 120 80 3a 00
        E 0 90 3c 60
        E 120 80 3c 00
        E 0 90 35 60
        E 120 80 35 00
        E 0 90 3a 60
        E 120 80 3a 00
        E 0 90 3c 60
        E 120 80 3c 00
        E 0 90 3a 60
        E 120 80 3a 00
        E 0 90 35 60
        E 120 80 35 00
        E 0 90 3a 60
        E 120 80 3a 00
        E 0 90 3c 60
        E 120 80 3c 00
        E 0 90 35 60
        E 120 80 35 00
        E 0 90 3a 60
        E 120 80 3a 00
        E 0 90 3c 60
        E 120 80 3c 00
        E 0 90 35 60
        E 120 80 35 00
        E 0 90 3a 60
        E 120 80 3a 00
        E 0 90 3c 60
        E 120 80 3c 00
        E 0 90 35 60
        E 120 80 35 00
        E 0 90 3a 60
        E 120 80 3a 00
        E 0 90 3c 60
        E 120 80 3c 00
        E 0 90 35 60
        E 120 80 35 00
        E 0 90 3a 60
        E 120 80 3a 00
        E 0 90 3c 60
        E 120 80 3c 00
        E 0 90 3a 60
        E 120 80 3a 00
        E 0 90 35 60
        E 120 80 35 00
        E 0 90 3a 60
        E 120 80 3a 00
        E 0 90 3c 60
        E 120 80 3c 00
        E 0 90 35 60
        E 120 80 35 00
        E 0 90 3a 60
        E 120 80 3a 00
        E 0 90 3c 60
        E 120 80 3c 00
        E 0 90 35 60
        E 120 80 35 00
        E 0 90 3a 60
        E 120 80 3a 00
        E 0 90 3c 60
        E 120 80 3c 00
        E 0 90 35 60
        E 120 80 35 00
        E 0 90 3a 60
        E 120 80 3a 00
        E 0 90 3c 60
        E 120 80 3c 00
        E 0 90 35 60
        E 120 80 35 00
        E 0 90 3a 60
        E 120 80 3a 00
        E 0 90 3c 60
        E 120 80 3c 00
        E 0 90 3a 60
        E 120 80 3a 00
        E 0 90 35 60
        E 120 80 35 00
        E 0 90 3a 60
        E 120 80 3a 00
        E 0 90 3c 60
        E 120 80 3c 00
        E 0 90 35 60
        E 120 80 35 00
        E 0 90 3a 60
        E 120 80 3a 00
        E 0 90 3c 60
        E 120 80 3c 00
        E 0 90 35 60
        E 120 80 35 00
        E 0 90 3a 60
        E 120 80 3a 00
        E 0 90 3c 60
        E 120 80 3c 00
        E 0 90 35 60
        E 120 80 35 00
        E 0 90 3a 60
        E 120 80 3a 00
        E 0 90 3c 60
        E 120 80 3c 00
        E 0 90 35 60
        E 120 80 35 00
        E 0 90 3a 60
        E 120 80 3a 00
        E 0 90 3c 60
        E 120 80 3c 00
        E 0 90 3a 60
        E 120 80 3a 00
        E 0 90 35 60
        E 120 80 35 00
        E 0 90 3a 60
        E 120 80 3a 00
        E 0 90 3c 60
        E 120 80 3c 00
        E 0 90 35 60
        E 120 80 35 00
        E 0 90 3a 60
        E 120 80 3a 00
        E 0 90 3c 60
        E 120 80 3c 00
        E 0 90 35 60
        E 120 80 35 00
        E 0 90 3a 60
        E 120 80 3a 00
        E 0 90 3c 60
        E 120 80 3c 00
        E 0 90 35 60
        E 120 80 35 00
        E 0 90 3a 60
        E 120 80 3a 00
        E 0 90 3c 60
        E 120 80 3c 00
        E 0 90 35 60
        E 120 80 35 00
        E 0 90 3a 60
        E 120 80 3a 00
        E 0 90 3c 60
        E 120 80 3c 00
        E 0 90 3a 60
        E 120 80 3a 00
        E 0 90 35 60
        E 120 80 35 00
        E 0 90 3a 60
        E 120 80 3a 00
        E 0 90 3c 60
        E 120 80 3c 00
        E 0 90 35 60
        E 120 80 35 00
        E 0 90 3a 60
        E 120 80 3a 00
        E 0 90 3c 60
        E 120 80 3c 00
        E 0 90 35 60
        E 120 80 35 00
        E 0 90 3a 60
        E 120 80 3a 00
        E 0 90 3c 60
        E 120 80 3c 00
        E 0 90 35 60
        E 120 80 35 00
        E 0 90 3a 60
        E 120 80 3a 00
        E 0 90 3c 60
        E 120 80 3c 00
        E 0 90 35 60
        E 120 80 35 00
        E 0 90 3a 60
        E 120 80 3a 00
        E 0 90 3c 60
        E 120 80 3c 00
        E 0 90 3a 60
        E 120 80 3a 00
        E 0 90 35 60
        E 120 80 35 00
        E 0 90 3a 60
        E 120 80 3a 00
        E 0 90 3c 60
        E 120 80 3c 00
        E 0 90 35 60
        E 120 80 35 00
        E 0 90 3a 60
        E 120 80 3a 00
        E 0 90 3c 60
        E 120 80 3c 00
        E 0 90 35 60
        E 120 80 35 00
        E 0 90 3a 60
        E 120 80 3a 00
        E 0 90 3c 60
        E 120 80 3c 00
        E 0 90 35 60
        E 120 80 35 00
        E 0 90 3a 60
        E 120 80 3a 00
        E 0 90 3c 60
        E 120 80 3c 00
        E 0 90 35 60
        E 120 80 35 00
        E 0 90 3a 60
        E 120 80 3a 00
        E 0 90 3c 60
        E 120 80 3c 00
        E 0 90 3a 60
        E 120 80 3a 00
        E 0 90 35 60
        E 120 80 35 00
        E 0 90 3a 60
        E 120 80 3a 00
        E 0 90 3c 60
        E 120 80 3c 00
        E 0 90 35 60
        E 120 80 35 00
        E 0 90 3a 60
        E 120 80 3a 00
        E 0 90 3c 60
        E 120 80 3c 00
        E 0 90 35 60
        E 120 80 35 00
        E 0 90 3a 60
        E 120 80 3a 00
        E 0 90 3c 60
        E 120 80 3c 00
        E 0 90 35 60
        E 120 80 35 00
        E 0 90 3a 60
        E 120 80 3a 00
        E 0 90 3c 60
        E 120 80 3c 00
        E 0 90 35 60
        E 120 80 35 00
        E 0 90 3a 60
        E 120 80 3a 00
        E 0 90 3c 60
        E 120 80 3c 00
        E 0 90 3a 60
        E 120 80 3a 00
        E 0 90 35 60
        E 120 80 35 00
        E 0 90 3a 60
        E 120 80 3a 00
        E 0 90 3c 60
        E 120 80 3c 00
        E 0 90 35 60
        E 120 80 35 00
        E 0 90 3a 60
        E 120 80 3a 00
        E 0 90 3c 60
        E 120 80 3c 00
        E 0 90 35 60
        E 120 80 35 00
        E 0 90 3a 60
        E 120 80 3a 00
        E 0 90 3c 60
        E 120 80 3c 00
        E 0 90 35 60
        E 120 80 35 00
        E 0 90 3a 60
        E 120 80 3a 00
        E 0 90 3c 60
        E 120 80 3c 00
        E 0 90 35 60
        E 120 80 35 00
        E 0 90 3a 60
        E 120 80 3a 00
        E 0 90 3c 60
        E 120 80 3c 00
        E 0 90 3a 60
        E 120 80 3a 00
        E 0 90 35 60
        E 120 80 35 00
        E 0 90 3a 60
        E 120 80 3a 00
        E 0 90 3c 60
        E 120 80 3c 00
        E 0 90 35 60
        E 120 80 35 00
        E 0 90 3a 60
        E 120 80 3a 00
        E 0 90 3c 60
        E 120 80 3c 00
        E 0 90 35 60
        E 120 80 35 00
        E 0 90 3a 60
        E 120 80 3a 00
        E 0 90 3c 60
        E 120 80 3c 00
        E 0 90 35 60
        E 120 80 35 00
        E 0 90 3a 60
        E 120 80 3a 00
        E 0 90 3c 60
        E 120 80 3c 00
        E 0 90 35 60
        E 120 80 35 00
        E 0 90 3a 60
        E 120 80 3a 00
        E 0 90 3c 60
        E 120 80 3c 00
        E 0 90 3a 60
        E 120 80 3a 00
        E 0 90 35 60
        E 120 80 35 00
        E 0 90 3a 60
        E 120 80 3a 00
        E 0 90 3c 60
        E 120 80 3c 00
        E 0 90 35 60
        E 120 80 35 00
        E 0 90 3a 60
        E 120 80 3a 00
        E 0 90 3c 60
        E 120 80 3c 00
        E 0 90 35 60
        E 120 80 35 00
        E 0 90 3a 60
        E 120 80 3a 00
        E 0 90 3c 60
        E 120 80 3c 00
        E 0 90 35 60
        E 120 80 35 00
        E 0 90 3a 60
        E 120 80 3a 00
        E 0 90 3c 60
        E 120 80 3c 00
        E 0 90 35 60
        E 120 80 35 00
        E 0 90 3a 60
        E 120 80 3a 00
        E 0 90 3c 60
        E 120 80 3c 00
        E 0 90 3a 60
        E 120 80 3a 00
        E 0 90 35 60
        E 120 80 35 00
        E 0 90 3a 60
        E 120 80 3a 00
        E 0 90 3c 60
        E 120 80 3c 00
        E 0 90 35 60
        E 120 80 35 00
        E 0 90 3a 60
        E 120 80 3a 00
        E 0 90 3c 60
        E 120 80 3c 00
        E 0 90 35 60
        E 120 80 35 00
        E 0 90 3a 60
        E 120 80 3a 00
        E 0 90 3c 60
        E 120 80 3c 00
        E 0 90 35 60
        E 120 80 35 00
        E 0 90 3a 60
        E 120 80 3a 00
        E 0 90 3c 60
        E 120 80 3c 00
        E 0 90 35 60
        E 120 80 35 00
        E 0 90 3a 60
        E 120 80 3a 00
        E 0 90 3c 60
        E 120 80 3c 00
        E 0 90 3a 60
        E 120 80 3a 00
        E 0 90 35 60
        E 0 90 3a 60
        E 0 90 3c 60
        E 1800 80 35 00
        E 0 80 3a 00
        E 120 90 37 60
        E 1800 80 3c 00
        E 0 80 37 00
        E 120 90 35 60
        E 0 90 3a 60
        E 0 90 3f 60
        E 1800 80 35 00
        E 0 80 3a 00
        E 0 80 3f 00
        E 120 90 37 60
        E 0 90 3c 60
        E 1800 80 37 00
        E 120 90 35 60
        E 0 90 3a 60
        E 1800 80 35 00
        E 0 80 3a 00
        E 120 90 37 60
        E 1800 80 3c 00
        E 0 80 37 00
        E 120 90 35 60
        E 0 90 3a 60
        E 0 90 3f 60
        E 1800 80 35 00
        E 0 80 3a 00
        E 0 80 3f 00
        E 120 90 37 60
        E 0 90 3c 60
        E 1800 80 37 00
        E 120 90 35 60
        E 0 90 3a 60
        E 1800 80 35 00
        E 0 80 3a 00
        E 120 90 37 60
        E 1800 80 3c 00
        E 0 80 37 00
        E 120 90 35 60
        E 0 90 3a 60
        E 0 90 3f 60
        E 1800 80 35 00
        E 0 80 3a 00
        E 0 80 3f 00
        E 120 90 37 60
        E 0 90 3c 60
        E 1800 80 37 00
        E 120 90 35 60
        E 0 90 3a 60
        E 1800 80 35 00
        E 0 80 3a 00
        E 120 90 37 60
        E 1800 80 3c 00
        E 0 80 37 00
        E 120 90 35 60
        E 0 90 3a 60
        E 0 90 3f 60
        E 1800 80 35 00
        E 0 80 3a 00
        E 0 80 3f 00
        E 120 90 37 60
        E 0 90 3c 60
        E 1800 80 37 00
        E 120 90 35 60
        E 0 90 3a 60
        E 1800 80 35 00
        E 0 80 3a 00
        E 120 90 37 60
        E 1800 80 3c 00
        E 0 80 37 00
        E 120 90 35 60
        E 0 90 3a 60
        E 0 90 3f 60
        E 1800 80 35 00
        E 0 80 3a 00
        E 0 80 3f 00
        E 120 90 37 60
        E 0 90 3c 60
        E 1800 80 37 00
        E 120 90 35 60
        E 0 90 3a 60
        E 1800 80 35 00
        E 0 80 3a 00
        E 120 90 37 60
        E 1800 80 3c 00
        E 0 80 37 00
        E 120 90 35 60
        E 0 90 3a 60
        E 0 90 3f 60
        E 1800 80 35 00
        E 0 80 3a 00
        E 0 80 3f 00
        E 120 90 37 60
        E 0 90 3c 60
        E 1800 80 37 00
        E 120 90 35 60
        E 0 90 3a 60
        E 1800 80 35 00
        E 0 80 3a 00
        E 120 90 37 60
        E 1800 80 3c 00
        E 0 80 37 00
        E 120 90 35 60
        E 0 90 3a 60
        E 0 90 3f 60
        E 1800 80 35 00
        E 0 80 3a 00
        E 0 80 3f 00
        E 120 90 37 60
        E 0 90 3c 60
        E 1800 80 37 00
        E 120 90 35 60
        E 0 90 3a 60
        E 3839 80 3c 00
        E 0 80 35 00
        E 0 80 3a 00
        E 7681 b0 7b 00
        GUID {D62F5110-1246-4299-9B44-91B34CFEA3E8}
        IGNTEMPO 0 120.00000000 4 4
        SRCCOLOR 8
        VELLANE 132 128 60
        COLORMAP "C:\Program Files\REAPER (x64)\Data\color_maps\rockband_guitarbass.png"
        CFGEDITVIEW -18721.282280 3.743333 0 22 0 0 0
        CFGEDIT 1 1 0 1 1 0 1 1 1 1 1 0.12500000 53 44 1253 718 0 2 1 1 0.00000000 0 1 1 0 0.500000 0 0 1.000000 64
        KEYSNAP 0 7 "102030050700" 0 "Pentatonic"
        EVTFILTER 0 -1 -1 -1 -1 0 1 0 0 -1.00000000 -1.00000000
      >
    >
  >
  <TRACK '{FD78AECE-4F64-47DD-902F-0FF461EE2842}'
    NAME "PART REAL_BASS"
    PEAKCOL 16576
    BEAT -1
    AUTOMODE 0
    VOLPAN 1.00000000000000 0.00000000000000 -1.00000000000000 -1.00000000000000 1.00000000000000
    MUTESOLO 0 0 0
    IPHASE 0
    ISBUS 0 0
    BUSCOMP 0 0
    SHOWINMIX 1 0.666700 0.500000 1 0.500000 -1 -1 -1
    FREEMODE 0
    SEL 0
    REC 0 0 0 0 0 0 0
    VU 2
    TRACKHEIGHT 0 0
    INQ 0 0 0 0.5000000000 100 0 0 100
    NCHAN 2
    FX 1
    TRACKID {FD78AECE-4F64-47DD-902F-0FF461EE2842}
    PERF 0
    MIDIOUT -1
    <MIDINOTENAMES
      0 127 "Trill Marker"
      0 126 "Tremolo Marker"
      0 125 "BRE"
      0 124 "BRE"
      0 123 "BRE"
      0 122 "BRE"
      0 121 "BRE"
      0 120 "BRE (use all 6)"
      0 119 "-----------"
      0 116 "OVERDRIVE"
      0 115 "Solo Marker"
      0 109 "-----------"
      0 108 "Fret Hand Position"
      0 107 "Force Chord Numbering"
      0 106 "Loose Strumming"
      0 105 "Strum Direction"
      0 104 "Arpeggio Marker"
      0 103 "Slide Marker"
      0 102 "Force HOPO"
      0 101 "EXPERT e String"
      0 100 "EXPERT B String"
      0 99 "EXPERT G String"
      0 98 "EXPERT D String"
      0 97 "EXPERT A String"
      0 96 "EXPERT E String"
      0 95 "-----------"
      0 82 "Loose Strumming"
      0 81 "Strum Direction"
      0 80 "Arpeggio Marker"
      0 79 "Slide Marker"
      0 78 "Force HOPO"
      0 77 "HARD e String"
      0 76 "HARD B String"
      0 75 "HARD G String"
      0 74 "HARD D String"
      0 73 "HARD A String"
      0 72 "HARD E String"
      0 71 "-----------"
      0 58 "Loose Strumming"
      0 56 "Arpeggio Marker"
      0 55 "Slide Marker"
      0 53 "MEDIUM e String"
      0 52 "MEDIUM B String"
      0 51 "MEDIUM G String"
      0 50 "MEDIUM D String"
      0 49 "MEDIUM A String"
      0 48 "MEDIUM E String"
      0 47 "-----------"
      0 32 "Arpeggio Marker"
      0 31 "Slide Marker"
      0 29 "EASY e String"
      0 28 "EASY B String"
      0 27 "EASY G String"
      0 26 "EASY D String"
      0 25 "EASY A String"
      0 24 "EASY E String"
      0 21 "-----------"
      0 18 "Flat/Sharp Swap"
      0 17 "Hide Chord Names"
      0 16 "Slash Chord"
      0 15 "D#"
      0 14 "D"
      0 13 "C#"
      0 12 "C"
      0 11 "B"
      0 10 "A#"
      0 9 "A"
      0 8 "G#"
      0 7 "G"
      0 6 "F#"
      0 5 "F"
      0 4 "E"
    >
    MAINSEND 1 0
    <FXCHAIN
      SHOW 0
      LASTSEL 0
      DOCKED 0
    >
    <ITEM
      POSITION 0.00000000000000
      SNAPOFFS 0.00000000000000
      LENGTH 300.00000000000000
      LOOP 0
      ALLTAKES 0
      SEL 0
      FADEIN 1 0.000000 0.000000 1 0
      FADEOUT 1 0.000000 0.000000 1 0
      MUTE 0
      IGUID {DC7A0380-EB90-4921-9FF9-B22711483469}
      IID 14
      NAME "PART REAL_BASS"
      VOLPAN 1.000000 0.000000 1.000000 -1.000000
      SOFFS 0.00000000000000 0.00000000000000
      PLAYRATE 1.00000000000000 1 0.00000000000000 -1
      CHANMODE 0
      GUID {4399780E-261C-472B-98B5-3146FA7D5DA3}
      <SOURCE MIDI
        HASDATA 1 480 QN
        POOLEDEVTS {CFAC5B30-70CA-4F66-AA2A-F2DFB0407F39}
        <X 0 0
          /wNQQVJUIFJFQUxfQkFTUw==
        >
        <X 15360 0
          /wFbYmVnaW5fcGIgc29uZ190cmFpbmVyX3BiXzFd
        >
        E 0 90 19 65
        E 0 90 31 65
        E 0 90 49 65
        E 0 90 61 65
        E 0 90 6c 65
        E 0 90 74 60
        E 120 80 19 00
        E 0 80 31 00
        E 0 80 49 00
        E 0 80 61 00
        E 0 80 6c 00
        E 120 90 31 65
        E 0 90 49 65
        E 0 90 61 65
        E 120 80 31 00
        E 0 80 49 00
        E 0 80 61 00
        E 120 90 19 65
        E 0 90 31 65
        E 0 90 49 65
        E 0 90 61 65
        E 120 80 19 00
        E 0 80 31 00
        E 0 80 49 00
        E 0 80 61 00
        E 120 90 31 65
        E 0 90 49 65
        E 0 90 61 65
        E 120 80 31 00
        E 0 80 49 00
        E 0 80 61 00
        E 120 90 19 65
        E 0 90 31 65
        E 0 90 49 65
        E 0 90 61 65
        E 120 80 19 00
        E 0 80 31 00
        E 0 80 49 00
        E 0 80 61 00
        E 120 90 31 65
        E 0 90 49 65
        E 0 90 61 65
        E 120 80 31 00
        E 0 80 49 00
        E 0 80 61 00
        E 120 90 31 65
        E 0 90 49 65
        E 0 90 61 65
        E 120 80 31 00
        E 0 80 49 00
        E 0 80 61 00
        E 120 90 49 65
        E 0 90 61 65
        E 120 80 49 00
        E 0 80 61 00
        <X 120 0
          /wFbcGJfbm9ybSBzb25nX3RyYWluZXJfcGJfMV0=
        >
        E 0 90 18 65
        E 0 90 30 65
        E 0 90 48 65
        E 0 90 60 65
        E 120 80 18 00
        E 0 80 30 00
        E 0 80 48 00
        E 0 80 60 00
        E 120 90 30 65
        E 0 90 48 65
        E 0 90 60 65
        E 120 80 30 00
        E 0 80 48 00
        E 0 80 60 00
        E 120 90 18 65
        E 0 90 30 65
        E 0 90 48 65
        E 0 90 60 65
        E 120 80 18 00
        E 0 80 30 00
        E 0 80 48 00
        E 0 80 60 00
        E 120 90 30 65
        E 0 90 48 65
        E 0 90 60 65
        E 120 80 30 00
        E 0 80 48 00
        E 0 80 60 00
        E 120 90 18 65
        E 0 90 30 65
        E 0 90 48 65
        E 0 90 60 65
        E 120 80 18 00
        E 0 80 30 00
        E 0 80 48 00
        E 0 80 60 00
        E 120 90 30 65
        E 0 90 48 65
        E 0 90 60 65
        E 120 80 30 00
        E 0 80 48 00
        E 0 80 60 00
        E 120 90 30 65
        E 0 90 48 65
        E 0 90 60 65
        E 120 80 30 00
        E 0 80 48 00
        E 0 80 60 00
        E 120 90 48 65
        E 0 90 60 65
        E 120 80 48 00
        E 0 80 60 00
        E 120 80 74 00
        E 0 90 18 68
        E 0 90 30 68
        E 0 90 48 68
        E 0 90 60 68
        E 120 80 18 00
        E 0 80 30 00
        E 0 80 48 00
        E 0 80 60 00
        E 120 90 30 68
        E 0 90 48 68
        E 0 90 60 68
        E 120 80 30 00
        E 0 80 48 00
        E 0 80 60 00
        E 120 90 18 68
        E 0 90 30 68
        E 0 90 48 68
        E 0 90 60 68
        E 120 80 18 00
        E 0 80 30 00
        E 0 80 48 00
        E 0 80 60 00
        E 120 90 30 68
        E 0 90 48 68
        E 0 90 60 68
        E 120 80 30 00
        E 0 80 48 00
        E 0 80 60 00
        E 120 90 18 68
        E 0 90 30 68
        E 0 90 48 68
        E 0 90 60 68
        E 120 80 18 00
        E 0 80 30 00
        E 0 80 48 00
        E 0 80 60 00
        E 120 90 30 68
        E 0 90 48 68
        E 0 90 60 68
        E 120 80 30 00
        E 0 80 48 00
        E 0 80 60 00
        E 120 90 30 68
        E 0 90 48 68
        E 0 90 60 68
        E 120 80 30 00
        E 0 80 48 00
        E 0 80 60 00
        E 120 90 48 68
        E 0 90 60 68
        E 120 80 48 00
        E 0 80 60 00
        E 120 90 18 65
        E 0 90 30 65
        E 0 90 48 65
        E 0 90 60 65
        E 120 80 18 00
        E 0 80 30 00
        E 0 80 48 00
        E 0 80 60 00
        E 120 90 30 65
        E 0 90 48 65
        E 0 90 60 65
        E 120 80 30 00
        E 0 80 48 00
        E 0 80 60 00
        E 120 90 18 65
        E 0 90 30 65
        E 0 90 48 65
        E 0 90 60 65
        E 120 80 18 00
        E 0 80 30 00
        E 0 80 48 00
        E 0 80 60 00
        E 120 90 30 65
        E 0 90 48 65
        E 0 90 60 65
        E 120 80 30 00
        E 0 80 48 00
        E 0 80 60 00
        E 120 90 18 65
        E 0 90 30 65
        E 0 90 48 65
        E 0 90 60 65
        E 120 80 18 00
        E 0 80 30 00
        E 0 80 48 00
        E 0 80 60 00
        E 120 90 30 65
        E 0 90 48 65
        E 0 90 60 65
        E 120 80 30 00
        E 0 80 48 00
        E 0 80 60 00
        E 120 90 30 65
        E 0 90 48 65
        E 0 90 60 65
        E 120 80 30 00
        E 0 80 48 00
        E 0 80 60 00
        E 120 90 48 65
        E 0 90 60 65
        E 120 80 48 00
        E 0 80 60 00
        <X 120 0
          /wFbZW5kX3BiIHNvbmdfdHJhaW5lcl9wYl8xXQ==
        >
        E 0 90 19 65
        E 0 90 31 65
        E 0 90 49 65
        E 0 90 61 65
        E 120 80 19 00
        E 0 80 31 00
        E 0 80 49 00
        E 0 80 61 00
        E 120 90 31 65
        E 0 90 49 65
        E 0 90 61 65
        E 120 80 31 00
        E 0 80 49 00
        E 0 80 61 00
        E 120 90 19 65
        E 0 90 31 65
        E 0 90 49 65
        E 0 90 61 65
        E 120 80 19 00
        E 0 80 31 00
        E 0 80 49 00
        E 0 80 61 00
        E 120 90 31 65
        E 0 90 49 65
        E 0 90 61 65
        E 120 80 31 00
        E 0 80 49 00
        E 0 80 61 00
        E 120 90 19 65
        E 0 90 31 65
        E 0 90 49 65
        E 0 90 61 65
        E 120 80 19 00
        E 0 80 31 00
        E 0 80 49 00
        E 0 80 61 00
        E 120 90 31 65
        E 0 90 49 65
        E 0 90 61 65
        E 120 80 31 00
        E 0 80 49 00
        E 0 80 61 00
        E 120 90 31 65
        E 0 90 49 65
        E 0 90 61 65
        E 120 80 31 00
        E 0 80 49 00
        E 0 80 61 00
        E 120 90 49 65
        E 0 90 61 65
        E 120 80 49 00
        E 0 80 61 00
        E 120 90 18 65
        E 0 90 30 65
        E 0 90 48 65
        E 0 90 60 65
        E 120 80 18 00
        E 0 80 30 00
        E 0 80 48 00
        E 0 80 60 00
        E 120 90 30 65
        E 0 90 48 65
        E 0 90 60 65
        E 120 80 30 00
        E 0 80 48 00
        E 0 80 60 00
        E 120 90 18 65
        E 0 90 30 65
        E 0 90 48 65
        E 0 90 60 65
        E 120 80 18 00
        E 0 80 30 00
        E 0 80 48 00
        E 0 80 60 00
        E 120 90 30 65
        E 0 90 48 65
        E 0 90 60 65
        E 120 80 30 00
        E 0 80 48 00
        E 0 80 60 00
        E 120 90 18 65
        E 0 90 30 65
        E 0 90 48 65
        E 0 90 60 65
        E 120 80 18 00
        E 0 80 30 00
        E 0 80 48 00
        E 0 80 60 00
        E 120 90 30 65
        E 0 90 48 65
        E 0 90 60 65
        E 120 80 30 00
        E 0 80 48 00
        E 0 80 60 00
        E 120 90 30 65
        E 0 90 48 65
        E 0 90 60 65
        E 120 80 30 00
        E 0 80 48 00
        E 0 80 60 00
        E 120 90 48 65
        E 0 90 60 65
        E 120 80 48 00
        E 0 80 60 00
        E 120 90 18 68
        E 0 90 30 68
        E 0 90 48 68
        E 0 90 60 68
        E 120 80 18 00
        E 0 80 30 00
        E 0 80 48 00
        E 0 80 60 00
        E 120 90 30 68
        E 0 90 48 68
        E 0 90 60 68
        E 120 80 30 00
        E 0 80 48 00
        E 0 80 60 00
        E 120 90 18 68
        E 0 90 30 68
        E 0 90 48 68
        E 0 90 60 68
        E 120 80 18 00
        E 0 80 30 00
        E 0 80 48 00
        E 0 80 60 00
        E 120 90 30 68
        E 0 90 48 68
        E 0 90 60 68
        E 120 80 30 00
        E 0 80 48 00
        E 0 80 60 00
        E 120 90 18 68
        E 0 90 30 68
        E 0 90 48 68
        E 0 90 60 68
        E 120 80 18 00
        E 0 80 30 00
        E 0 80 48 00
        E 0 80 60 00
        E 120 90 30 68
        E 0 90 48 68
        E 0 90 60 68
        E 120 80 30 00
        E 0 80 48 00
        E 0 80 60 00
        E 120 90 30 68
        E 0 90 48 68
        E 0 90 60 68
        E 120 80 30 00
        E 0 80 48 00
        E 0 80 60 00
        E 120 90 48 68
        E 0 90 60 68
        E 120 80 48 00
        E 0 80 60 00
        E 120 90 18 65
        E 0 90 30 65
        E 0 90 48 65
        E 0 90 60 65
        E 120 80 18 00
        E 0 80 30 00
        E 0 80 48 00
        E 0 80 60 00
        E 120 90 30 65
        E 0 90 48 65
        E 0 90 60 65
        E 120 80 30 00
        E 0 80 48 00
        E 0 80 60 00
        E 120 90 18 65
        E 0 90 30 65
        E 0 90 48 65
        E 0 90 60 65
        E 120 80 18 00
        E 0 80 30 00
        E 0 80 48 00
        E 0 80 60 00
        E 120 90 30 65
        E 0 90 48 65
        E 0 90 60 65
        E 120 80 30 00
        E 0 80 48 00
        E 0 80 60 00
        E 120 90 18 65
        E 0 90 30 65
        E 0 90 48 65
        E 0 90 60 65
        E 120 80 18 00
        E 0 80 30 00
        E 0 80 48 00
        E 0 80 60 00
        E 120 90 30 65
        E 0 90 48 65
        E 0 90 60 65
        E 120 80 30 00
        E 0 80 48 00
        E 0 80 60 00
        E 120 90 30 65
        E 0 90 48 65
        E 0 90 60 65
        E 120 80 30 00
        E 0 80 48 00
        E 0 80 60 00
        E 120 90 48 65
        E 0 90 60 65
        E 120 80 48 00
        E 0 80 60 00
        E 120 90 19 65
        E 0 90 31 65
        E 0 90 49 65
        E 0 90 61 65
        E 120 80 19 00
        E 0 80 31 00
        E 0 80 49 00
        E 0 80 61 00
        E 120 90 31 65
        E 0 90 49 65
        E 0 90 61 65
        E 120 80 31 00
        E 0 80 49 00
        E 0 80 61 00
        E 120 90 19 65
        E 0 90 31 65
        E 0 90 49 65
        E 0 90 61 65
        E 120 80 19 00
        E 0 80 31 00
        E 0 80 49 00
        E 0 80 61 00
        E 120 90 31 65
        E 0 90 49 65
        E 0 90 61 65
        E 120 80 31 00
        E 0 80 49 00
        E 0 80 61 00
        E 120 90 19 65
        E 0 90 31 65
        E 0 90 49 65
        E 0 90 61 65
        E 120 80 19 00
        E 0 80 31 00
        E 0 80 49 00
        E 0 80 61 00
        E 120 90 31 65
        E 0 90 49 65
        E 0 90 61 65
        E 120 80 31 00
        E 0 80 49 00
        E 0 80 61 00
        E 120 90 31 65
        E 0 90 49 65
        E 0 90 61 65
        E 120 80 31 00
        E 0 80 49 00
        E 0 80 61 00
        E 120 90 49 65
        E 0 90 61 65
        E 120 80 49 00
        E 0 80 61 00
        E 120 90 18 65
        E 0 90 30 65
        E 0 90 48 65
        E 0 90 60 65
        E 120 80 18 00
        E 0 80 30 00
        E 0 80 48 00
        E 0 80 60 00
        E 120 90 30 65
        E 0 90 48 65
        E 0 90 60 65
        E 120 80 30 00
        E 0 80 48 00
        E 0 80 60 00
        E 120 90 18 65
        E 0 90 30 65
        E 0 90 48 65
        E 0 90 60 65
        E 120 80 18 00
        E 0 80 30 00
        E 0 80 48 00
        E 0 80 60 00
        E 120 90 30 65
        E 0 90 48 65
        E 0 90 60 65
        E 120 80 30 00
        E 0 80 48 00
        E 0 80 60 00
        E 120 90 18 65
        E 0 90 30 65
        E 0 90 48 65
        E 0 90 60 65
        E 120 80 18 00
        E 0 80 30 00
        E 0 80 48 00
        E 0 80 60 00
        E 120 90 30 65
        E 0 90 48 65
        E 0 90 60 65
        E 120 80 30 00
        E 0 80 48 00
        E 0 80 60 00
        E 120 90 30 65
        E 0 90 48 65
        E 0 90 60 65
        E 120 80 30 00
        E 0 80 48 00
        E 0 80 60 00
        E 120 90 48 65
        E 0 90 60 65
        E 120 80 48 00
        E 0 80 60 00
        E 120 90 18 68
        E 0 90 30 68
        E 0 90 48 68
        E 0 90 60 68
        E 0 90 74 60
        E 120 80 18 00
        E 0 80 30 00
        E 0 80 48 00
        E 0 80 60 00
        E 120 90 30 68
        E 0 90 48 68
        E 0 90 60 68
        E 120 80 30 00
        E 0 80 48 00
        E 0 80 60 00
        E 120 90 18 68
        E 0 90 30 68
        E 0 90 48 68
        E 0 90 60 68
        E 120 80 18 00
        E 0 80 30 00
        E 0 80 48 00
        E 0 80 60 00
        E 120 90 30 68
        E 0 90 48 68
        E 0 90 60 68
        E 120 80 30 00
        E 0 80 48 00
        E 0 80 60 00
        E 120 90 18 68
        E 0 90 30 68
        E 0 90 48 68
        E 0 90 60 68
        E 120 80 18 00
        E 0 80 30 00
        E 0 80 48 00
        E 0 80 60 00
        E 120 90 30 68
        E 0 90 48 68
        E 0 90 60 68
        E 120 80 30 00
        E 0 80 48 00
        E 0 80 60 00
        E 120 90 30 68
        E 0 90 48 68
        E 0 90 60 68
        E 120 80 30 00
        E 0 80 48 00
        E 0 80 60 00
        E 120 90 48 68
        E 0 90 60 68
        E 120 80 48 00
        E 0 80 60 00
        E 120 80 74 00
        E 0 90 18 65
        E 0 90 30 65
        E 0 90 48 65
        E 0 90 60 65
        E 120 80 18 00
        E 0 80 30 00
        E 0 80 48 00
        E 0 80 60 00
        E 120 90 30 65
        E 0 90 48 65
        E 0 90 60 65
        E 120 80 30 00
        E 0 80 48 00
        E 0 80 60 00
        E 120 90 18 65
        E 0 90 30 65
        E 0 90 48 65
        E 0 90 60 65
        E 120 80 18 00
        E 0 80 30 00
        E 0 80 48 00
        E 0 80 60 00
        E 120 90 30 65
        E 0 90 48 65
        E 0 90 60 65
        E 120 80 30 00
        E 0 80 48 00
        E 0 80 60 00
        E 120 90 18 65
        E 0 90 30 65
        E 0 90 48 65
        E 0 90 60 65
        E 120 80 18 00
        E 0 80 30 00
        E 0 80 48 00
        E 0 80 60 00
        E 120 90 30 65
        E 0 90 48 65
        E 0 90 60 65
        E 120 80 30 00
        E 0 80 48 00
        E 0 80 60 00
        E 120 90 30 65
        E 0 90 48 65
        E 0 90 60 65
        E 120 80 30 00
        E 0 80 48 00
        E 0 80 60 00
        E 120 90 48 65
        E 0 90 60 65
        E 120 80 48 00
        E 0 80 60 00
        E 120 90 19 65
        E 0 90 31 65
        E 0 90 49 65
        E 0 90 61 65
        E 120 80 19 00
        E 0 80 31 00
        E 0 80 49 00
        E 0 80 61 00
        E 120 90 31 65
        E 0 90 49 65
        E 0 90 61 65
        E 120 80 31 00
        E 0 80 49 00
        E 0 80 61 00
        E 120 90 19 65
        E 0 90 31 65
        E 0 90 49 65
        E 0 90 61 65
        E 120 80 19 00
        E 0 80 31 00
        E 0 80 49 00
        E 0 80 61 00
        E 120 90 31 65
        E 0 90 49 65
        E 0 90 61 65
        E 120 80 31 00
        E 0 80 49 00
        E 0 80 61 00
        E 120 90 19 65
        E 0 90 31 65
        E 0 90 49 65
        E 0 90 61 65
        E 120 80 19 00
        E 0 80 31 00
        E 0 80 49 00
        E 0 80 61 00
        E 120 90 31 65
        E 0 90 49 65
        E 0 90 61 65
        E 120 80 31 00
        E 0 80 49 00
        E 0 80 61 00
        E 120 90 31 65
        E 0 90 49 65
        E 0 90 61 65
        E 120 80 31 00
        E 0 80 49 00
        E 0 80 61 00
        E 120 90 49 65
        E 0 90 61 65
        E 120 80 49 00
        E 0 80 61 00
        E 120 90 18 65
        E 0 90 30 65
        E 0 90 48 65
        E 0 90 60 65
        E 120 80 18 00
        E 0 80 30 00
        E 0 80 48 00
        E 0 80 60 00
        E 120 90 30 65
        E 0 90 48 65
        E 0 90 60 65
        E 120 80 30 00
        E 0 80 48 00
        E 0 80 60 00
        E 120 90 18 65
        E 0 90 30 65
        E 0 90 48 65
        E 0 90 60 65
        E 120 80 18 00
        E 0 80 30 00
        E 0 80 48 00
        E 0 80 60 00
        E 120 90 30 65
        E 0 90 48 65
        E 0 90 60 65
        E 120 80 30 00
        E 0 80 48 00
        E 0 80 60 00
        E 120 90 18 65
        E 0 90 30 65
        E 0 90 48 65
        E 0 90 60 65
        E 120 80 18 00
        E 0 80 30 00
        E 0 80 48 00
        E 0 80 60 00
        E 120 90 30 65
        E 0 90 48 65
        E 0 90 60 65
        E 120 80 30 00
        E 0 80 48 00
        E 0 80 60 00
        E 120 90 30 65
        E 0 90 48 65
        E 0 90 60 65
        E 120 80 30 00
        E 0 80 48 00
        E 0 80 60 00
        E 120 90 48 65
        E 0 90 60 65
        E 120 80 48 00
        E 0 80 60 00
        E 120 90 18 68
        E 0 90 30 68
        E 0 90 48 68
        E 0 90 60 68
        E 120 80 18 00
        E 0 80 30 00
        E 0 80 48 00
        E 0 80 60 00
        E 120 90 30 68
        E 0 90 48 68
        E 0 90 60 68
        E 120 80 30 00
        E 0 80 48 00
        E 0 80 60 00
        E 120 90 18 68
        E 0 90 30 68
        E 0 90 48 68
        E 0 90 60 68
        E 120 80 18 00
        E 0 80 30 00
        E 0 80 48 00
        E 0 80 60 00
        E 120 90 30 68
        E 0 90 48 68
        E 0 90 60 68
        E 120 80 30 00
        E 0 80 48 00
        E 0 80 60 00
        E 120 90 18 68
        E 0 90 30 68
        E 0 90 48 68
        E 0 90 60 68
        E 120 80 18 00
        E 0 80 30 00
        E 0 80 48 00
        E 0 80 60 00
        E 120 90 30 68
        E 0 90 48 68
        E 0 90 60 68
        E 120 80 30 00
        E 0 80 48 00
        E 0 80 60 00
        E 120 90 30 68
        E 0 90 48 68
        E 0 90 60 68
        E 120 80 30 00
        E 0 80 48 00
        E 0 80 60 00
        E 120 90 48 68
        E 0 90 60 68
        E 120 80 48 00
        E 0 80 60 00
        E 120 90 18 65
        E 0 90 30 65
        E 0 90 48 65
        E 0 90 60 65
        E 120 80 18 00
        E 0 80 30 00
        E 0 80 48 00
        E 0 80 60 00
        E 120 90 30 65
        E 0 90 48 65
        E 0 90 60 65
        E 120 80 30 00
        E 0 80 48 00
        E 0 80 60 00
        E 120 90 18 65
        E 0 90 30 65
        E 0 90 48 65
        E 0 90 60 65
        E 120 80 18 00
        E 0 80 30 00
        E 0 80 48 00
        E 0 80 60 00
        E 120 90 30 65
        E 0 90 48 65
        E 0 90 60 65
        E 120 80 30 00
        E 0 80 48 00
        E 0 80 60 00
        E 120 90 18 65
        E 0 90 30 65
        E 0 90 48 65
        E 0 90 60 65
        E 120 80 18 00
        E 0 80 30 00
        E 0 80 48 00
        E 0 80 60 00
        E 120 90 30 65
        E 0 90 48 65
        E 0 90 60 65
        E 120 80 30 00
        E 0 80 48 00
        E 0 80 60 00
        E 120 90 30 65
        E 0 90 48 65
        E 0 90 60 65
        E 120 80 30 00
        E 0 80 48 00
        E 0 80 60 00
        E 120 90 48 65
        E 0 90 60 65
        E 120 80 48 00
        E 0 80 60 00
        E 120 90 19 65
        E 0 90 31 65
        E 0 90 49 65
        E 0 90 61 65
        E 120 80 19 00
        E 0 80 31 00
        E 0 80 49 00
        E 0 80 61 00
        E 120 90 31 65
        E 0 90 49 65
        E 0 90 61 65
        E 120 80 31 00
        E 0 80 49 00
        E 0 80 61 00
        E 120 90 19 65
        E 0 90 31 65
        E 0 90 49 65
        E 0 90 61 65
        E 120 80 19 00
        E 0 80 31 00
        E 0 80 49 00
        E 0 80 61 00
        E 120 90 31 65
        E 0 90 49 65
        E 0 90 61 65
        E 120 80 31 00
        E 0 80 49 00
        E 0 80 61 00
        E 120 90 19 65
        E 0 90 31 65
        E 0 90 49 65
        E 0 90 61 65
        E 120 80 19 00
        E 0 80 31 00
        E 0 80 49 00
        E 0 80 61 00
        E 120 90 31 65
        E 0 90 49 65
        E 0 90 61 65
        E 120 80 31 00
        E 0 80 49 00
        E 0 80 61 00
        E 120 90 31 65
        E 0 90 49 65
        E 0 90 61 65
        E 120 80 31 00
        E 0 80 49 00
        E 0 80 61 00
        E 120 90 49 65
        E 0 90 61 65
        E 120 80 49 00
        E 0 80 61 00
        E 120 90 18 65
        E 0 90 30 65
        E 0 90 48 65
        E 0 90 60 65
        E 120 80 18 00
        E 0 80 30 00
        E 0 80 48 00
        E 0 80 60 00
        E 120 90 30 65
        E 0 90 48 65
        E 0 90 60 65
        E 120 80 30 00
        E 0 80 48 00
        E 0 80 60 00
        E 120 90 18 65
        E 0 90 30 65
        E 0 90 48 65
        E 0 90 60 65
        E 120 80 18 00
        E 0 80 30 00
        E 0 80 48 00
        E 0 80 60 00
        E 120 90 30 65
        E 0 90 48 65
        E 0 90 60 65
        E 120 80 30 00
        E 0 80 48 00
        E 0 80 60 00
        E 120 90 18 65
        E 0 90 30 65
        E 0 90 48 65
        E 0 90 60 65
        E 120 80 18 00
        E 0 80 30 00
        E 0 80 48 00
        E 0 80 60 00
        E 120 90 30 65
        E 0 90 48 65
        E 0 90 60 65
        E 120 80 30 00
        E 0 80 48 00
        E 0 80 60 00
        E 120 90 30 65
        E 0 90 48 65
        E 0 90 60 65
        E 120 80 30 00
        E 0 80 48 00
        E 0 80 60 00
        E 120 90 48 65
        E 0 90 60 65
        E 120 80 48 00
        E 0 80 60 00
        E 120 90 18 68
        E 0 90 30 68
        E 0 90 48 68
        E 0 90 60 68
        E 120 80 18 00
        E 0 80 30 00
        E 0 80 48 00
        E 0 80 60 00
        E 120 90 30 68
        E 0 90 48 68
        E 0 90 60 68
        E 120 80 30 00
        E 0 80 48 00
        E 0 80 60 00
        E 120 90 18 68
        E 0 90 30 68
        E 0 90 48 68
        E 0 90 60 68
        E 120 80 18 00
        E 0 80 30 00
        E 0 80 48 00
        E 0 80 60 00
        E 120 90 30 68
        E 0 90 48 68
        E 0 90 60 68
        E 120 80 30 00
        E 0 80 48 00
        E 0 80 60 00
        E 120 90 18 68
        E 0 90 30 68
        E 0 90 48 68
        E 0 90 60 68
        E 120 80 18 00
        E 0 80 30 00
        E 0 80 48 00
        E 0 80 60 00
        E 120 90 30 68
        E 0 90 48 68
        E 0 90 60 68
        E 120 80 30 00
        E 0 80 48 00
        E 0 80 60 00
        E 120 90 30 68
        E 0 90 48 68
        E 0 90 60 68
        E 120 80 30 00
        E 0 80 48 00
        E 0 80 60 00
        E 120 90 48 68
        E 0 90 60 68
        E 120 80 48 00
        E 0 80 60 00
        E 120 90 18 65
        E 0 90 30 65
        E 0 90 48 65
        E 0 90 60 65
        E 120 80 18 00
        E 0 80 30 00
        E 0 80 48 00
        E 0 80 60 00
        E 120 90 30 65
        E 0 90 48 65
        E 0 90 60 65
        E 120 80 30 00
        E 0 80 48 00
        E 0 80 60 00
        E 120 90 18 65
        E 0 90 30 65
        E 0 90 48 65
        E 0 90 60 65
        E 120 80 18 00
        E 0 80 30 00
        E 0 80 48 00
        E 0 80 60 00
        E 120 90 30 65
        E 0 90 48 65
        E 0 90 60 65
        E 120 80 30 00
        E 0 80 48 00
        E 0 80 60 00
        E 120 90 18 65
        E 0 90 30 65
        E 0 90 48 65
        E 0 90 60 65
        E 120 80 18 00
        E 0 80 30 00
        E 0 80 48 00
        E 0 80 60 00
        E 120 90 30 65
        E 0 90 48 65
        E 0 90 60 65
        E 120 80 30 00
        E 0 80 48 00
        E 0 80 60 00
        E 120 90 30 65
        E 0 90 48 65
        E 0 90 60 65
        E 120 80 30 00
        E 0 80 48 00
        E 0 80 60 00
        E 120 90 48 65
        E 0 90 60 65
        E 120 80 48 00
        E 0 80 60 00
        E 120 90 19 65
        E 0 90 31 65
        E 0 90 49 65
        E 0 90 61 65
        E 0 90 74 60
        E 120 80 19 00
        E 0 80 31 00
        E 0 80 49 00
        E 0 80 61 00
        E 120 90 31 65
        E 0 90 49 65
        E 0 90 61 65
        E 120 80 31 00
        E 0 80 49 00
        E 0 80 61 00
        E 120 90 19 65
        E 0 90 31 65
        E 0 90 49 65
        E 0 90 61 65
        E 120 80 19 00
        E 0 80 31 00
        E 0 80 49 00
        E 0 80 61 00
        E 120 90 31 65
        E 0 90 49 65
        E 0 90 61 65
        E 120 80 31 00
        E 0 80 49 00
        E 0 80 61 00
        E 120 90 19 65
        E 0 90 31 65
        E 0 90 49 65
        E 0 90 61 65
        E 120 80 19 00
        E 0 80 31 00
        E 0 80 49 00
        E 0 80 61 00
        E 120 90 31 65
        E 0 90 49 65
        E 0 90 61 65
        E 120 80 31 00
        E 0 80 49 00
        E 0 80 61 00
        E 120 90 31 65
        E 0 90 49 65
        E 0 90 61 65
        E 120 80 31 00
        E 0 80 49 00
        E 0 80 61 00
        E 120 90 49 65
        E 0 90 61 65
        E 120 80 49 00
        E 0 80 61 00
        E 120 90 18 65
        E 0 90 30 65
        E 0 90 48 65
        E 0 90 60 65
        E 120 80 74 00
        E 0 80 18 00
        E 0 80 30 00
        E 0 80 48 00
        E 0 80 60 00
        E 120 90 30 65
        E 0 90 48 65
        E 0 90 60 65
        E 120 80 30 00
        E 0 80 48 00
        E 0 80 60 00
        E 120 90 18 65
        E 0 90 30 65
        E 0 90 48 65
        E 0 90 60 65
        E 120 80 18 00
        E 0 80 30 00
        E 0 80 48 00
        E 0 80 60 00
        E 120 90 30 65
        E 0 90 48 65
        E 0 90 60 65
        E 120 80 30 00
        E 0 80 48 00
        E 0 80 60 00
        E 120 90 18 65
        E 0 90 30 65
        E 0 90 48 65
        E 0 90 60 65
        E 120 80 18 00
        E 0 80 30 00
        E 0 80 48 00
        E 0 80 60 00
        E 120 90 30 65
        E 0 90 48 65
        E 0 90 60 65
        E 120 80 30 00
        E 0 80 48 00
        E 0 80 60 00
        E 120 90 30 65
        E 0 90 48 65
        E 0 90 60 65
        E 120 80 30 00
        E 0 80 48 00
        E 0 80 60 00
        E 120 90 48 65
        E 0 90 60 65
        E 120 80 48 00
        E 0 80 60 00
        E 120 90 18 68
        E 0 90 30 68
        E 0 90 48 68
        E 0 90 60 68
        E 120 80 18 00
        E 0 80 30 00
        E 0 80 48 00
        E 0 80 60 00
        E 120 90 30 68
        E 0 90 48 68
        E 0 90 60 68
        E 120 80 30 00
        E 0 80 48 00
        E 0 80 60 00
        E 120 90 18 68
        E 0 90 30 68
        E 0 90 48 68
        E 0 90 60 68
        E 120 80 18 00
        E 0 80 30 00
        E 0 80 48 00
        E 0 80 60 00
        E 120 90 30 68
        E 0 90 48 68
        E 0 90 60 68
        E 120 80 30 00
        E 0 80 48 00
        E 0 80 60 00
        E 120 90 18 68
        E 0 90 30 68
        E 0 90 48 68
        E 0 90 60 68
        E 120 80 18 00
        E 0 80 30 00
        E 0 80 48 00
        E 0 80 60 00
        E 120 90 30 68
        E 0 90 48 68
        E 0 90 60 68
        E 120 80 30 00
        E 0 80 48 00
        E 0 80 60 00
        E 120 90 30 68
        E 0 90 48 68
        E 0 90 60 68
        E 120 80 30 00
        E 0 80 48 00
        E 0 80 60 00
        E 120 90 48 68
        E 0 90 60 68
        E 120 80 48 00
        E 0 80 60 00
        E 120 90 18 65
        E 0 90 30 65
        E 0 90 48 65
        E 0 90 60 65
        E 120 80 18 00
        E 0 80 30 00
        E 0 80 48 00
        E 0 80 60 00
        E 120 90 30 65
        E 0 90 48 65
        E 0 90 60 65
        E 120 80 30 00
        E 0 80 48 00
        E 0 80 60 00
        E 120 90 18 65
        E 0 90 30 65
        E 0 90 48 65
        E 0 90 60 65
        E 120 80 18 00
        E 0 80 30 00
        E 0 80 48 00
        E 0 80 60 00
        E 120 90 30 65
        E 0 90 48 65
        E 0 90 60 65
        E 120 80 30 00
        E 0 80 48 00
        E 0 80 60 00
        E 120 90 18 65
        E 0 90 30 65
        E 0 90 48 65
        E 0 90 60 65
        E 120 80 18 00
        E 0 80 30 00
        E 0 80 48 00
        E 0 80 60 00
        E 120 90 30 65
        E 0 90 48 65
        E 0 90 60 65
        E 120 80 30 00
        E 0 80 48 00
        E 0 80 60 00
        E 120 90 30 65
        E 0 90 48 65
        E 0 90 60 65
        E 120 80 30 00
        E 0 80 48 00
        E 0 80 60 00
        E 120 90 48 65
        E 0 90 60 65
        E 120 80 48 00
        E 0 80 60 00
        <X 120 0
          /wFbYmVnaW5fcGIgc29uZ190cmFpbmVyX3BiXzJd
        >
        E 0 90 19 65
        E 0 90 31 65
        E 0 90 49 65
        E 0 90 61 65
        E 120 80 19 00
        E 0 80 31 00
        E 0 80 49 00
        E 0 80 61 00
        E 120 90 31 65
        E 0 90 49 65
        E 0 90 61 65
        E 120 80 31 00
        E 0 80 49 00
        E 0 80 61 00
        E 120 90 19 65
        E 0 90 31 65
        E 0 90 49 65
        E 0 90 61 65
        E 120 80 19 00
        E 0 80 31 00
        E 0 80 49 00
        E 0 80 61 00
        E 120 90 31 65
        E 0 90 49 65
        E 0 90 61 65
        E 120 80 31 00
        E 0 80 49 00
        E 0 80 61 00
        E 120 90 19 65
        E 0 90 31 65
        E 0 90 49 65
        E 0 90 61 65
        E 120 80 19 00
        E 0 80 31 00
        E 0 80 49 00
        E 0 80 61 00
        E 120 90 31 65
        E 0 90 49 65
        E 0 90 61 65
        E 120 80 31 00
        E 0 80 49 00
        E 0 80 61 00
        E 120 90 19 65
        E 0 90 31 65
        E 0 90 49 65
        E 0 90 61 65
        E 120 80 19 00
        E 0 80 31 00
        E 0 80 49 00
        E 0 80 61 00
        E 120 90 31 65
        E 0 90 49 65
        E 0 90 61 65
        E 120 80 31 00
        E 0 80 49 00
        E 0 80 61 00
        <X 120 0
          /wFbcGJfbm9ybSBzb25nX3RyYWluZXJfcGJfMl0=
        >
        E 0 90 19 65
        E 0 90 31 65
        E 0 90 49 65
        E 0 90 61 65
        E 120 80 19 00
        E 0 80 31 00
        E 0 80 49 00
        E 0 80 61 00
        E 120 90 31 65
        E 0 90 49 65
        E 0 90 61 65
        E 120 80 31 00
        E 0 80 49 00
        E 0 80 61 00
        E 120 90 19 65
        E 0 90 31 65
        E 0 90 49 65
        E 0 90 61 65
        E 120 80 19 00
        E 0 80 31 00
        E 0 80 49 00
        E 0 80 61 00
        E 120 90 31 65
        E 0 90 49 65
        E 0 90 61 65
        E 120 80 31 00
        E 0 80 49 00
        E 0 80 61 00
        E 120 90 19 65
        E 0 90 31 65
        E 0 90 49 65
        E 0 90 61 65
        E 120 80 19 00
        E 0 80 31 00
        E 0 80 49 00
        E 0 80 61 00
        E 120 90 31 65
        E 0 90 49 65
        E 0 90 61 65
        E 120 80 31 00
        E 0 80 49 00
        E 0 80 61 00
        E 120 90 31 65
        E 0 90 49 65
        E 0 90 61 65
        E 120 80 31 00
        E 0 80 49 00
        E 0 80 61 00
        E 120 90 49 65
        E 0 90 61 65
        E 120 80 49 00
        E 0 80 61 00
        E 120 90 18 65
        E 0 90 30 65
        E 0 90 48 65
        E 0 90 60 65
        E 120 80 18 00
        E 0 80 30 00
        E 0 80 48 00
        E 0 80 60 00
        E 120 90 30 65
        E 0 90 48 65
        E 0 90 60 65
        E 120 80 30 00
        E 0 80 48 00
        E 0 80 60 00
        E 120 90 18 65
        E 0 90 30 65
        E 0 90 48 65
        E 0 90 60 65
        E 120 80 18 00
        E 0 80 30 00
        E 0 80 48 00
        E 0 80 60 00
        E 120 90 30 65
        E 0 90 48 65
        E 0 90 60 65
        E 120 80 30 00
        E 0 80 48 00
        E 0 80 60 00
        E 120 90 18 65
        E 0 90 30 65
        E 0 90 48 65
        E 0 90 60 65
        E 120 80 18 00
        E 0 80 30 00
        E 0 80 48 00
        E 0 80 60 00
        E 120 90 30 65
        E 0 90 48 65
        E 0 90 60 65
        E 120 80 30 00
        E 0 80 48 00
        E 0 80 60 00
        E 120 90 30 65
        E 0 90 48 65
        E 0 90 60 65
        E 120 80 30 00
        E 0 80 48 00
        E 0 80 60 00
        E 120 90 48 65
        E 0 90 60 65
        E 120 80 48 00
        E 0 80 60 00
        E 120 90 18 68
        E 0 90 30 68
        E 0 90 48 68
        E 0 90 60 68
        E 120 80 18 00
        E 0 80 30 00
        E 0 80 48 00
        E 0 80 60 00
        E 120 90 30 68
        E 0 90 48 68
        E 0 90 60 68
        E 120 80 30 00
        E 0 80 48 00
        E 0 80 60 00
        E 120 90 18 68
        E 0 90 30 68
        E 0 90 48 68
        E 0 90 60 68
        E 120 80 18 00
        E 0 80 30 00
        E 0 80 48 00
        E 0 80 60 00
        E 120 90 30 68
        E 0 90 48 68
        E 0 90 60 68
        E 120 80 30 00
        E 0 80 48 00
        E 0 80 60 00
        E 120 90 18 68
        E 0 90 30 68
        E 0 90 48 68
        E 0 90 60 68
        E 120 80 18 00
        E 0 80 30 00
        E 0 80 48 00
        E 0 80 60 00
        E 120 90 30 68
        E 0 90 48 68
        E 0 90 60 68
        E 120 80 30 00
        E 0 80 48 00
        E 0 80 60 00
        E 120 90 30 68
        E 0 90 48 68
        E 0 90 60 68
        E 120 80 30 00
        E 0 80 48 00
        E 0 80 60 00
        E 120 90 48 68
        E 0 90 60 68
        E 120 80 48 00
        E 0 80 60 00
        <X 120 0
          /wFbZW5kX3BiIHNvbmdfdHJhaW5lcl9wYl8yXQ==
        >
        E 0 90 19 65
        E 0 90 31 65
        E 0 90 49 65
        E 0 90 61 65
        E 120 80 19 00
        E 0 80 31 00
        E 0 80 49 00
        E 0 80 61 00
        E 120 90 31 65
        E 0 90 49 65
        E 0 90 61 65
        E 120 80 31 00
        E 0 80 49 00
        E 0 80 61 00
        E 120 90 19 65
        E 0 90 31 65
        E 0 90 49 65
        E 0 90 61 65
        E 120 80 19 00
        E 0 80 31 00
        E 0 80 49 00
        E 0 80 61 00
        E 120 90 31 65
        E 0 90 49 65
        E 0 90 61 65
        E 120 80 31 00
        E 0 80 49 00
        E 0 80 61 00
        E 120 90 19 65
        E 0 90 31 65
        E 0 90 49 65
        E 0 90 61 65
        E 120 80 19 00
        E 0 80 31 00
        E 0 80 49 00
        E 0 80 61 00
        E 120 90 31 65
        E 0 90 49 65
        E 0 90 61 65
        E 120 80 31 00
        E 0 80 49 00
        E 0 80 61 00
        E 120 90 19 65
        E 0 90 31 65
        E 0 90 49 65
        E 0 90 61 65
        E 120 80 19 00
        E 0 80 31 00
        E 0 80 49 00
        E 0 80 61 00
        E 120 90 31 65
        E 0 90 49 65
        E 0 90 61 65
        E 120 80 31 00
        E 0 80 49 00
        E 0 80 61 00
        E 120 90 19 65
        E 0 90 31 65
        E 0 90 49 65
        E 0 90 61 65
        E 120 80 19 00
        E 0 80 31 00
        E 0 80 49 00
        E 0 80 61 00
        E 120 90 31 65
        E 0 90 49 65
        E 0 90 61 65
        E 120 80 31 00
        E 0 80 49 00
        E 0 80 61 00
        E 120 90 19 65
        E 0 90 31 65
        E 0 90 49 65
        E 0 90 61 65
        E 120 80 19 00
        E 0 80 31 00
        E 0 80 49 00
        E 0 80 61 00
        E 120 90 31 65
        E 0 90 49 65
        E 0 90 61 65
        E 120 80 31 00
        E 0 80 49 00
        E 0 80 61 00
        E 120 90 19 65
        E 0 90 31 65
        E 0 90 49 65
        E 0 90 61 65
        E 120 80 19 00
        E 0 80 31 00
        E 0 80 49 00
        E 0 80 61 00
        E 120 90 31 65
        E 0 90 49 65
        E 0 90 61 65
        E 120 80 31 00
        E 0 80 49 00
        E 0 80 61 00
        E 120 90 31 65
        E 0 90 49 65
        E 0 90 61 65
        E 120 80 31 00
        E 0 80 49 00
        E 0 80 61 00
        E 120 90 49 65
        E 0 90 61 65
        E 120 80 49 00
        E 0 80 61 00
        E 120 90 18 65
        E 0 90 30 65
        E 0 90 48 65
        E 0 90 60 65
        E 0 90 74 60
        E 120 80 18 00
        E 0 80 30 00
        E 0 80 48 00
        E 0 80 60 00
        E 120 90 30 65
        E 0 90 48 65
        E 0 90 60 65
        E 120 80 30 00
        E 0 80 48 00
        E 0 80 60 00
        E 120 90 18 65
        E 0 90 30 65
        E 0 90 48 65
        E 0 90 60 65
        E 120 80 18 00
        E 0 80 30 00
        E 0 80 48 00
        E 0 80 60 00
        E 120 90 30 65
        E 0 90 48 65
        E 0 90 60 65
        E 120 80 30 00
        E 0 80 48 00
        E 0 80 60 00
        E 120 90 18 65
        E 0 90 30 65
        E 0 90 48 65
        E 0 90 60 65
        E 120 80 18 00
        E 0 80 30 00
        E 0 80 48 00
        E 0 80 60 00
        E 120 90 30 65
        E 0 90 48 65
        E 0 90 60 65
        E 120 80 30 00
        E 0 80 48 00
        E 0 80 60 00
        E 120 90 30 65
        E 0 90 48 65
        E 0 90 60 65
        E 120 80 30 00
        E 0 80 48 00
        E 0 80 60 00
        E 120 90 48 65
        E 0 90 60 65
        E 120 80 48 00
        E 0 80 60 00
        E 120 90 18 68
        E 0 90 30 68
        E 0 90 48 68
        E 0 90 60 68
        E 120 80 18 00
        E 0 80 30 00
        E 0 80 48 00
        E 0 80 60 00
        E 120 90 30 68
        E 0 90 48 68
        E 0 90 60 68
        E 120 80 30 00
        E 0 80 48 00
        E 0 80 60 00
        E 120 90 18 68
        E 0 90 30 68
        E 0 90 48 68
        E 0 90 60 68
        E 120 80 18 00
        E 0 80 30 00
        E 0 80 48 00
        E 0 80 60 00
        E 120 90 30 68
        E 0 90 48 68
        E 0 90 60 68
        E 120 80 30 00
        E 0 80 48 00
        E 0 80 60 00
        E 120 90 18 68
        E 0 90 30 68
        E 0 90 48 68
        E 0 90 60 68
        E 120 80 18 00
        E 0 80 30 00
        E 0 80 48 00
        E 0 80 60 00
        E 120 90 30 68
        E 0 90 48 68
        E 0 90 60 68
        E 120 80 30 00
        E 0 80 48 00
        E 0 80 60 00
        E 120 90 30 68
        E 0 90 48 68
        E 0 90 60 68
        E 120 80 30 00
        E 0 80 48 00
        E 0 80 60 00
        E 120 90 48 68
        E 0 90 60 68
        E 120 80 48 00
        E 0 80 60 00
        E 120 80 74 00
        E 0 90 19 65
        E 0 90 31 65
        E 0 90 49 65
        E 0 90 61 65
        E 120 80 19 00
        E 0 80 31 00
        E 0 80 49 00
        E 0 80 61 00
        E 120 90 31 65
        E 0 90 49 65
        E 0 90 61 65
        E 120 80 31 00
        E 0 80 49 00
        E 0 80 61 00
        E 120 90 19 65
        E 0 90 31 65
        E 0 90 49 65
        E 0 90 61 65
        E 120 80 19 00
        E 0 80 31 00
        E 0 80 49 00
        E 0 80 61 00
        E 120 90 31 65
        E 0 90 49 65
        E 0 90 61 65
        E 120 80 31 00
        E 0 80 49 00
        E 0 80 61 00
        E 120 90 19 65
        E 0 90 31 65
        E 0 90 49 65
        E 0 90 61 65
        E 120 80 19 00
        E 0 80 31 00
        E 0 80 49 00
        E 0 80 61 00
        E 120 90 31 65
        E 0 90 49 65
        E 0 90 61 65
        E 120 80 31 00
        E 0 80 49 00
        E 0 80 61 00
        E 120 90 19 65
        E 0 90 31 65
        E 0 90 49 65
        E 0 90 61 65
        E 120 80 19 00
        E 0 80 31 00
        E 0 80 49 00
        E 0 80 61 00
        E 120 90 31 65
        E 0 90 49 65
        E 0 90 61 65
        E 120 80 31 00
        E 0 80 49 00
        E 0 80 61 00
        E 120 90 19 65
        E 0 90 31 65
        E 0 90 49 65
        E 0 90 61 65
        E 120 80 19 00
        E 0 80 31 00
        E 0 80 49 00
        E 0 80 61 00
        E 120 90 31 65
        E 0 90 49 65
        E 0 90 61 65
        E 120 80 31 00
        E 0 80 49 00
        E 0 80 61 00
        E 120 90 19 65
        E 0 90 31 65
        E 0 90 49 65
        E 0 90 61 65
        E 120 80 19 00
        E 0 80 31 00
        E 0 80 49 00
        E 0 80 61 00
        E 120 90 31 65
        E 0 90 49 65
        E 0 90 61 65
        E 120 80 31 00
        E 0 80 49 00
        E 0 80 61 00
        E 120 90 19 65
        E 0 90 31 65
        E 0 90 49 65
        E 0 90 61 65
        E 120 80 19 00
        E 0 80 31 00
        E 0 80 49 00
        E 0 80 61 00
        E 120 90 31 65
        E 0 90 49 65
        E 0 90 61 65
        E 120 80 31 00
        E 0 80 49 00
        E 0 80 61 00
        E 120 90 31 65
        E 0 90 49 65
        E 0 90 61 65
        E 120 80 31 00
        E 0 80 49 00
        E 0 80 61 00
        E 120 90 49 65
        E 0 90 61 65
        E 120 80 49 00
        E 0 80 61 00
        E 120 90 18 65
        E 0 90 30 65
        E 0 90 48 65
        E 0 90 60 65
        E 120 80 18 00
        E 0 80 30 00
        E 0 80 48 00
        E 0 80 60 00
        E 120 90 30 65
        E 0 90 48 65
        E 0 90 60 65
        E 120 80 30 00
        E 0 80 48 00
        E 0 80 60 00
        E 120 90 18 65
        E 0 90 30 65
        E 0 90 48 65
        E 0 90 60 65
        E 120 80 18 00
        E 0 80 30 00
        E 0 80 48 00
        E 0 80 60 00
        E 120 90 30 65
        E 0 90 48 65
        E 0 90 60 65
        E 120 80 30 00
        E 0 80 48 00
        E 0 80 60 00
        E 120 90 18 65
        E 0 90 30 65
        E 0 90 48 65
        E 0 90 60 65
        E 120 80 18 00
        E 0 80 30 00
        E 0 80 48 00
        E 0 80 60 00
        E 120 90 30 65
        E 0 90 48 65
        E 0 90 60 65
        E 120 80 30 00
        E 0 80 48 00
        E 0 80 60 00
        E 120 90 30 65
        E 0 90 48 65
        E 0 90 60 65
        E 120 80 30 00
        E 0 80 48 00
        E 0 80 60 00
        E 120 90 48 65
        E 0 90 60 65
        E 120 80 48 00
        E 0 80 60 00
        E 120 90 18 68
        E 0 90 30 68
        E 0 90 48 68
        E 0 90 60 68
        E 120 80 18 00
        E 0 80 30 00
        E 0 80 48 00
        E 0 80 60 00
        E 120 90 30 68
        E 0 90 48 68
        E 0 90 60 68
        E 120 80 30 00
        E 0 80 48 00
        E 0 80 60 00
        E 120 90 18 68
        E 0 90 30 68
        E 0 90 48 68
        E 0 90 60 68
        E 120 80 18 00
        E 0 80 30 00
        E 0 80 48 00
        E 0 80 60 00
        E 120 90 30 68
        E 0 90 48 68
        E 0 90 60 68
        E 120 80 30 00
        E 0 80 48 00
        E 0 80 60 00
        E 120 90 18 68
        E 0 90 30 68
        E 0 90 48 68
        E 0 90 60 68
        E 120 80 18 00
        E 0 80 30 00
        E 0 80 48 00
        E 0 80 60 00
        E 120 90 30 68
        E 0 90 48 68
        E 0 90 60 68
        E 120 80 30 00
        E 0 80 48 00
        E 0 80 60 00
        E 120 90 30 68
        E 0 90 48 68
        E 0 90 60 68
        E 120 80 30 00
        E 0 80 48 00
        E 0 80 60 00
        E 120 90 48 68
        E 0 90 60 68
        E 120 80 48 00
        E 0 80 60 00
        E 120 90 19 65
        E 0 90 31 65
        E 0 90 49 65
        E 0 90 61 65
        E 120 80 19 00
        E 0 80 31 00
        E 0 80 49 00
        E 0 80 61 00
        E 120 90 31 65
        E 0 90 49 65
        E 0 90 61 65
        E 120 80 31 00
        E 0 80 49 00
        E 0 80 61 00
        E 120 90 19 65
        E 0 90 31 65
        E 0 90 49 65
        E 0 90 61 65
        E 120 80 19 00
        E 0 80 31 00
        E 0 80 49 00
        E 0 80 61 00
        E 120 90 31 65
        E 0 90 49 65
        E 0 90 61 65
        E 120 80 31 00
        E 0 80 49 00
        E 0 80 61 00
        E 120 90 19 65
        E 0 90 31 65
        E 0 90 49 65
        E 0 90 61 65
        E 120 80 19 00
        E 0 80 31 00
        E 0 80 49 00
        E 0 80 61 00
        E 120 90 31 65
        E 0 90 49 65
        E 0 90 61 65
        E 120 80 31 00
        E 0 80 49 00
        E 0 80 61 00
        E 120 90 19 65
        E 0 90 31 65
        E 0 90 49 65
        E 0 90 61 65
        E 120 80 19 00
        E 0 80 31 00
        E 0 80 49 00
        E 0 80 61 00
        E 120 90 31 65
        E 0 90 49 65
        E 0 90 61 65
        E 120 80 31 00
        E 0 80 49 00
        E 0 80 61 00
        E 120 90 19 65
        E 0 90 31 65
        E 0 90 49 65
        E 0 90 61 65
        E 120 80 19 00
        E 0 80 31 00
        E 0 80 49 00
        E 0 80 61 00
        E 120 90 31 65
        E 0 90 49 65
        E 0 90 61 65
        E 120 80 31 00
        E 0 80 49 00
        E 0 80 61 00
        E 120 90 19 65
        E 0 90 31 65
        E 0 90 49 65
        E 0 90 61 65
        E 120 80 19 00
        E 0 80 31 00
        E 0 80 49 00
        E 0 80 61 00
        E 120 90 31 65
        E 0 90 49 65
        E 0 90 61 65
        E 120 80 31 00
        E 0 80 49 00
        E 0 80 61 00
        E 120 90 19 65
        E 0 90 31 65
        E 0 90 49 65
        E 0 90 61 65
        E 120 80 19 00
        E 0 80 31 00
        E 0 80 49 00
        E 0 80 61 00
        E 120 90 31 65
        E 0 90 49 65
        E 0 90 61 65
        E 120 80 31 00
        E 0 80 49 00
        E 0 80 61 00
        E 120 90 31 65
        E 0 90 49 65
        E 0 90 61 65
        E 120 80 31 00
        E 0 80 49 00
        E 0 80 61 00
        E 120 90 49 65
        E 0 90 61 65
        E 120 80 49 00
        E 0 80 61 00
        E 120 90 18 65
        E 0 90 30 65
        E 0 90 48 65
        E 0 90 60 65
        E 120 80 18 00
        E 0 80 30 00
        E 0 80 48 00
        E 0 80 60 00
        E 120 90 30 65
        E 0 90 48 65
        E 0 90 60 65
        E 120 80 30 00
        E 0 80 48 00
        E 0 80 60 00
        E 120 90 18 65
        E 0 90 30 65
        E 0 90 48 65
        E 0 90 60 65
        E 120 80 18 00
        E 0 80 30 00
        E 0 80 48 00
        E 0 80 60 00
        E 120 90 30 65
        E 0 90 48 65
        E 0 90 60 65
        E 120 80 30 00
        E 0 80 48 00
        E 0 80 60 00
        E 120 90 18 65
        E 0 90 30 65
        E 0 90 48 65
        E 0 90 60 65
        E 120 80 18 00
        E 0 80 30 00
        E 0 80 48 00
        E 0 80 60 00
        E 120 90 30 65
        E 0 90 48 65
        E 0 90 60 65
        E 120 80 30 00
        E 0 80 48 00
        E 0 80 60 00
        E 120 90 30 65
        E 0 90 48 65
        E 0 90 60 65
        E 120 80 30 00
        E 0 80 48 00
        E 0 80 60 00
        E 120 90 48 65
        E 0 90 60 65
        E 120 80 48 00
        E 0 80 60 00
        E 120 90 18 68
        E 0 90 30 68
        E 0 90 48 68
        E 0 90 60 68
        E 120 80 18 00
        E 0 80 30 00
        E 0 80 48 00
        E 0 80 60 00
        E 120 90 30 68
        E 0 90 48 68
        E 0 90 60 68
        E 120 80 30 00
        E 0 80 48 00
        E 0 80 60 00
        E 120 90 18 68
        E 0 90 30 68
        E 0 90 48 68
        E 0 90 60 68
        E 120 80 18 00
        E 0 80 30 00
        E 0 80 48 00
        E 0 80 60 00
        E 120 90 30 68
        E 0 90 48 68
        E 0 90 60 68
        E 120 80 30 00
        E 0 80 48 00
        E 0 80 60 00
        E 120 90 18 68
        E 0 90 30 68
        E 0 90 48 68
        E 0 90 60 68
        E 120 80 18 00
        E 0 80 30 00
        E 0 80 48 00
        E 0 80 60 00
        E 120 90 30 68
        E 0 90 48 68
        E 0 90 60 68
        E 120 80 30 00
        E 0 80 48 00
        E 0 80 60 00
        E 120 90 30 68
        E 0 90 48 68
        E 0 90 60 68
        E 120 80 30 00
        E 0 80 48 00
        E 0 80 60 00
        E 120 90 48 68
        E 0 90 60 68
        E 120 80 48 00
        E 0 80 60 00
        E 120 90 19 65
        E 0 90 31 65
        E 0 90 49 65
        E 0 90 61 65
        E 120 80 19 00
        E 0 80 31 00
        E 0 80 49 00
        E 0 80 61 00
        E 120 90 31 65
        E 0 90 49 65
        E 0 90 61 65
        E 120 80 31 00
        E 0 80 49 00
        E 0 80 61 00
        E 120 90 19 65
        E 0 90 31 65
        E 0 90 49 65
        E 0 90 61 65
        E 120 80 19 00
        E 0 80 31 00
        E 0 80 49 00
        E 0 80 61 00
        E 120 90 31 65
        E 0 90 49 65
        E 0 90 61 65
        E 120 80 31 00
        E 0 80 49 00
        E 0 80 61 00
        E 120 90 19 65
        E 0 90 31 65
        E 0 90 49 65
        E 0 90 61 65
        E 120 80 19 00
        E 0 80 31 00
        E 0 80 49 00
        E 0 80 61 00
        E 120 90 31 65
        E 0 90 49 65
        E 0 90 61 65
        E 120 80 31 00
        E 0 80 49 00
        E 0 80 61 00
        E 120 90 31 65
        E 0 90 49 65
        E 0 90 61 65
        E 120 80 31 00
        E 0 80 49 00
        E 0 80 61 00
        E 120 90 49 65
        E 0 90 61 65
        E 120 80 49 00
        E 0 80 61 00
        E 120 90 18 65
        E 0 90 30 65
        E 0 90 48 65
        E 0 90 60 65
        E 120 80 18 00
        E 0 80 30 00
        E 0 80 48 00
        E 0 80 60 00
        E 120 90 30 65
        E 0 90 48 65
        E 0 90 60 65
        E 120 80 30 00
        E 0 80 48 00
        E 0 80 60 00
        E 120 90 18 65
        E 0 90 30 65
        E 0 90 48 65
        E 0 90 60 65
        E 120 80 18 00
        E 0 80 30 00
        E 0 80 48 00
        E 0 80 60 00
        E 120 90 30 65
        E 0 90 48 65
        E 0 90 60 65
        E 120 80 30 00
        E 0 80 48 00
        E 0 80 60 00
        E 120 90 18 65
        E 0 90 30 65
        E 0 90 48 65
        E 0 90 60 65
        E 120 80 18 00
        E 0 80 30 00
        E 0 80 48 00
        E 0 80 60 00
        E 120 90 30 65
        E 0 90 48 65
        E 0 90 60 65
        E 120 80 30 00
        E 0 80 48 00
        E 0 80 60 00
        E 120 90 30 65
        E 0 90 48 65
        E 0 90 60 65
        E 120 80 30 00
        E 0 80 48 00
        E 0 80 60 00
        E 120 90 48 65
        E 0 90 60 65
        E 120 80 48 00
        E 0 80 60 00
        E 120 90 18 68
        E 0 90 30 68
        E 0 90 48 68
        E 0 90 60 68
        E 0 90 74 60
        E 120 80 18 00
        E 0 80 30 00
        E 0 80 48 00
        E 0 80 60 00
        E 120 90 30 68
        E 0 90 48 68
        E 0 90 60 68
        E 120 80 30 00
        E 0 80 48 00
        E 0 80 60 00
        E 120 90 18 68
        E 0 90 30 68
        E 0 90 48 68
        E 0 90 60 68
        E 120 80 18 00
        E 0 80 30 00
        E 0 80 48 00
        E 0 80 60 00
        E 120 90 30 68
        E 0 90 48 68
        E 0 90 60 68
        E 120 80 30 00
        E 0 80 48 00
        E 0 80 60 00
        E 120 90 18 68
        E 0 90 30 68
        E 0 90 48 68
        E 0 90 60 68
        E 120 80 18 00
        E 0 80 30 00
        E 0 80 48 00
        E 0 80 60 00
        E 120 90 30 68
        E 0 90 48 68
        E 0 90 60 68
        E 120 80 30 00
        E 0 80 48 00
        E 0 80 60 00
        E 120 90 30 68
        E 0 90 48 68
        E 0 90 60 68
        E 120 80 30 00
        E 0 80 48 00
        E 0 80 60 00
        E 120 90 48 68
        E 0 90 60 68
        E 120 80 48 00
        E 0 80 60 00
        E 120 80 74 00
        E 0 90 18 65
        E 0 90 30 65
        E 0 90 48 65
        E 0 90 60 65
        E 120 80 18 00
        E 0 80 30 00
        E 0 80 48 00
        E 0 80 60 00
        E 120 90 30 65
        E 0 90 48 65
        E 0 90 60 65
        E 120 80 30 00
        E 0 80 48 00
        E 0 80 60 00
        E 120 90 18 65
        E 0 90 30 65
        E 0 90 48 65
        E 0 90 60 65
        E 120 80 18 00
        E 0 80 30 00
        E 0 80 48 00
        E 0 80 60 00
        E 120 90 30 65
        E 0 90 48 65
        E 0 90 60 65
        E 120 80 30 00
        E 0 80 48 00
        E 0 80 60 00
        E 120 90 18 65
        E 0 90 30 65
        E 0 90 48 65
        E 0 90 60 65
        E 120 80 18 00
        E 0 80 30 00
        E 0 80 48 00
        E 0 80 60 00
        E 120 90 30 65
        E 0 90 48 65
        E 0 90 60 65
        E 120 80 30 00
        E 0 80 48 00
        E 0 80 60 00
        E 120 90 30 65
        E 0 90 48 65
        E 0 90 60 65
        E 120 80 30 00
        E 0 80 48 00
        E 0 80 60 00
        E 120 90 48 65
        E 0 90 60 65
        E 120 80 48 00
        E 0 80 60 00
        E 120 90 19 65
        E 0 90 31 65
        E 0 90 49 65
        E 0 90 61 65
        E 120 80 19 00
        E 0 80 31 00
        E 0 80 49 00
        E 0 80 61 00
        E 120 90 31 65
        E 0 90 49 65
        E 0 90 61 65
        E 120 80 31 00
        E 0 80 49 00
        E 0 80 61 00
        E 120 90 19 65
        E 0 90 31 65
        E 0 90 49 65
        E 0 90 61 65
        E 120 80 19 00
        E 0 80 31 00
        E 0 80 49 00
        E 0 80 61 00
        E 120 90 31 65
        E 0 90 49 65
        E 0 90 61 65
        E 120 80 31 00
        E 0 80 49 00
        E 0 80 61 00
        E 120 90 19 65
        E 0 90 31 65
        E 0 90 49 65
        E 0 90 61 65
        E 120 80 19 00
        E 0 80 31 00
        E 0 80 49 00
        E 0 80 61 00
        E 120 90 31 65
        E 0 90 49 65
        E 0 90 61 65
        E 120 80 31 00
        E 0 80 49 00
        E 0 80 61 00
        E 120 90 31 65
        E 0 90 49 65
        E 0 90 61 65
        E 120 80 31 00
        E 0 80 49 00
        E 0 80 61 00
        E 120 90 49 65
        E 0 90 61 65
        E 120 80 49 00
        E 0 80 61 00
        E 120 90 18 65
        E 0 90 30 65
        E 0 90 48 65
        E 0 90 60 65
        E 120 80 18 00
        E 0 80 30 00
        E 0 80 48 00
        E 0 80 60 00
        E 120 90 30 65
        E 0 90 48 65
        E 0 90 60 65
        E 120 80 30 00
        E 0 80 48 00
        E 0 80 60 00
        E 120 90 18 65
        E 0 90 30 65
        E 0 90 48 65
        E 0 90 60 65
        E 120 80 18 00
        E 0 80 30 00
        E 0 80 48 00
        E 0 80 60 00
        E 120 90 30 65
        E 0 90 48 65
        E 0 90 60 65
        E 120 80 30 00
        E 0 80 48 00
        E 0 80 60 00
        E 120 90 18 65
        E 0 90 30 65
        E 0 90 48 65
        E 0 90 60 65
        E 120 80 18 00
        E 0 80 30 00
        E 0 80 48 00
        E 0 80 60 00
        E 120 90 30 65
        E 0 90 48 65
        E 0 90 60 65
        E 120 80 30 00
        E 0 80 48 00
        E 0 80 60 00
        E 120 90 30 65
        E 0 90 48 65
        E 0 90 60 65
        E 120 80 30 00
        E 0 80 48 00
        E 0 80 60 00
        E 120 90 48 65
        E 0 90 60 65
        E 120 80 48 00
        E 0 80 60 00
        E 120 90 18 68
        E 0 90 30 68
        E 0 90 48 68
        E 0 90 60 68
        E 120 80 18 00
        E 0 80 30 00
        E 0 80 48 00
        E 0 80 60 00
        E 120 90 30 68
        E 0 90 48 68
        E 0 90 60 68
        E 120 80 30 00
        E 0 80 48 00
        E 0 80 60 00
        E 120 90 18 68
        E 0 90 30 68
        E 0 90 48 68
        E 0 90 60 68
        E 120 80 18 00
        E 0 80 30 00
        E 0 80 48 00
        E 0 80 60 00
        E 120 90 30 68
        E 0 90 48 68
        E 0 90 60 68
        E 120 80 30 00
        E 0 80 48 00
        E 0 80 60 00
        E 120 90 18 68
        E 0 90 30 68
        E 0 90 48 68
        E 0 90 60 68
        E 120 80 18 00
        E 0 80 30 00
        E 0 80 48 00
        E 0 80 60 00
        E 120 90 30 68
        E 0 90 48 68
        E 0 90 60 68
        E 120 80 30 00
        E 0 80 48 00
        E 0 80 60 00
        E 120 90 30 68
        E 0 90 48 68
        E 0 90 60 68
        E 120 80 30 00
        E 0 80 48 00
        E 0 80 60 00
        E 120 90 48 68
        E 0 90 60 68
        E 120 80 48 00
        E 0 80 60 00
        E 120 90 18 65
        E 0 90 30 65
        E 0 90 48 65
        E 0 90 60 65
        E 120 80 18 00
        E 0 80 30 00
        E 0 80 48 00
        E 0 80 60 00
        E 120 90 30 65
        E 0 90 48 65
        E 0 90 60 65
        E 120 80 30 00
        E 0 80 48 00
        E 0 80 60 00
        E 120 90 18 65
        E 0 90 30 65
        E 0 90 48 65
        E 0 90 60 65
        E 120 80 18 00
        E 0 80 30 00
        E 0 80 48 00
        E 0 80 60 00
        E 120 90 30 65
        E 0 90 48 65
        E 0 90 60 65
        E 120 80 30 00
        E 0 80 48 00
        E 0 80 60 00
        E 120 90 18 65
        E 0 90 30 65
        E 0 90 48 65
        E 0 90 60 65
        E 120 80 18 00
        E 0 80 30 00
        E 0 80 48 00
        E 0 80 60 00
        E 120 90 30 65
        E 0 90 48 65
        E 0 90 60 65
        E 120 80 30 00
        E 0 80 48 00
        E 0 80 60 00
        E 120 90 30 65
        E 0 90 48 65
        E 0 90 60 65
        E 120 80 30 00
        E 0 80 48 00
        E 0 80 60 00
        E 120 90 48 65
        E 0 90 60 65
        E 120 80 48 00
        E 0 80 60 00
        E 120 90 19 65
        E 0 90 31 65
        E 0 90 49 65
        E 0 90 61 65
        E 120 80 19 00
        E 0 80 31 00
        E 0 80 49 00
        E 0 80 61 00
        E 120 90 31 65
        E 0 90 49 65
        E 0 90 61 65
        E 120 80 31 00
        E 0 80 49 00
        E 0 80 61 00
        E 120 90 19 65
        E 0 90 31 65
        E 0 90 49 65
        E 0 90 61 65
        E 120 80 19 00
        E 0 80 31 00
        E 0 80 49 00
        E 0 80 61 00
        E 120 90 31 65
        E 0 90 49 65
        E 0 90 61 65
        E 120 80 31 00
        E 0 80 49 00
        E 0 80 61 00
        E 120 90 19 65
        E 0 90 31 65
        E 0 90 49 65
        E 0 90 61 65
        E 120 80 19 00
        E 0 80 31 00
        E 0 80 49 00
        E 0 80 61 00
        E 120 90 31 65
        E 0 90 49 65
        E 0 90 61 65
        E 120 80 31 00
        E 0 80 49 00
        E 0 80 61 00
        E 120 90 31 65
        E 0 90 49 65
        E 0 90 61 65
        E 120 80 31 00
        E 0 80 49 00
        E 0 80 61 00
        E 120 90 49 65
        E 0 90 61 65
        E 120 80 49 00
        E 0 80 61 00
        E 120 90 18 65
        E 0 90 30 65
        E 0 90 48 65
        E 0 90 60 65
        E 120 80 18 00
        E 0 80 30 00
        E 0 80 48 00
        E 0 80 60 00
        E 120 90 30 65
        E 0 90 48 65
        E 0 90 60 65
        E 120 80 30 00
        E 0 80 48 00
        E 0 80 60 00
        E 120 90 18 65
        E 0 90 30 65
        E 0 90 48 65
        E 0 90 60 65
        E 120 80 18 00
        E 0 80 30 00
        E 0 80 48 00
        E 0 80 60 00
        E 120 90 30 65
        E 0 90 48 65
        E 0 90 60 65
        E 120 80 30 00
        E 0 80 48 00
        E 0 80 60 00
        E 120 90 18 65
        E 0 90 30 65
        E 0 90 48 65
        E 0 90 60 65
        E 120 80 18 00
        E 0 80 30 00
        E 0 80 48 00
        E 0 80 60 00
        E 120 90 30 65
        E 0 90 48 65
        E 0 90 60 65
        E 120 80 30 00
        E 0 80 48 00
        E 0 80 60 00
        E 120 90 30 65
        E 0 90 48 65
        E 0 90 60 65
        E 120 80 30 00
        E 0 80 48 00
        E 0 80 60 00
        E 120 90 48 65
        E 0 90 60 65
        E 120 80 48 00
        E 0 80 60 00
        E 120 90 18 68
        E 0 90 30 68
        E 0 90 48 68
        E 0 90 60 68
        E 120 80 18 00
        E 0 80 30 00
        E 0 80 48 00
        E 0 80 60 00
        E 120 90 30 68
        E 0 90 48 68
        E 0 90 60 68
        E 120 80 30 00
        E 0 80 48 00
        E 0 80 60 00
        E 120 90 18 68
        E 0 90 30 68
        E 0 90 48 68
        E 0 90 60 68
        E 120 80 18 00
        E 0 80 30 00
        E 0 80 48 00
        E 0 80 60 00
        E 120 90 30 68
        E 0 90 48 68
        E 0 90 60 68
        E 120 80 30 00
        E 0 80 48 00
        E 0 80 60 00
        E 120 90 18 68
        E 0 90 30 68
        E 0 90 48 68
        E 0 90 60 68
        E 120 80 18 00
        E 0 80 30 00
        E 0 80 48 00
        E 0 80 60 00
        E 120 90 30 68
        E 0 90 48 68
        E 0 90 60 68
        E 120 80 30 00
        E 0 80 48 00
        E 0 80 60 00
        E 120 90 30 68
        E 0 90 48 68
        E 0 90 60 68
        E 120 80 30 00
        E 0 80 48 00
        E 0 80 60 00
        E 120 90 48 68
        E 0 90 60 68
        E 120 80 48 00
        E 0 80 60 00
        E 120 90 18 65
        E 0 90 30 65
        E 0 90 48 65
        E 0 90 60 65
        E 120 80 18 00
        E 0 80 30 00
        E 0 80 48 00
        E 0 80 60 00
        E 120 90 30 65
        E 0 90 48 65
        E 0 90 60 65
        E 120 80 30 00
        E 0 80 48 00
        E 0 80 60 00
        E 120 90 18 65
        E 0 90 30 65
        E 0 90 48 65
        E 0 90 60 65
        E 120 80 18 00
        E 0 80 30 00
        E 0 80 48 00
        E 0 80 60 00
        E 120 90 30 65
        E 0 90 48 65
        E 0 90 60 65
        E 120 80 30 00
        E 0 80 48 00
        E 0 80 60 00
        E 120 90 18 65
        E 0 90 30 65
        E 0 90 48 65
        E 0 90 60 65
        E 120 80 18 00
        E 0 80 30 00
        E 0 80 48 00
        E 0 80 60 00
        E 120 90 30 65
        E 0 90 48 65
        E 0 90 60 65
        E 120 80 30 00
        E 0 80 48 00
        E 0 80 60 00
        E 120 90 30 65
        E 0 90 48 65
        E 0 90 60 65
        E 120 80 30 00
        E 0 80 48 00
        E 0 80 60 00
        E 120 90 48 65
        E 0 90 60 65
        E 120 80 48 00
        E 0 80 60 00
        E 120 90 19 65
        E 0 90 31 65
        E 0 90 49 65
        E 0 90 61 65
        E 120 80 19 00
        E 0 80 31 00
        E 0 80 49 00
        E 0 80 61 00
        E 120 90 31 65
        E 0 90 49 65
        E 0 90 61 65
        E 120 80 31 00
        E 0 80 49 00
        E 0 80 61 00
        E 120 90 19 65
        E 0 90 31 65
        E 0 90 49 65
        E 0 90 61 65
        E 120 80 19 00
        E 0 80 31 00
        E 0 80 49 00
        E 0 80 61 00
        E 120 90 31 65
        E 0 90 49 65
        E 0 90 61 65
        E 120 80 31 00
        E 0 80 49 00
        E 0 80 61 00
        E 120 90 19 65
        E 0 90 31 65
        E 0 90 49 65
        E 0 90 61 65
        E 120 80 19 00
        E 0 80 31 00
        E 0 80 49 00
        E 0 80 61 00
        E 120 90 31 65
        E 0 90 49 65
        E 0 90 61 65
        E 120 80 31 00
        E 0 80 49 00
        E 0 80 61 00
        E 120 90 31 65
        E 0 90 49 65
        E 0 90 61 65
        E 120 80 31 00
        E 0 80 49 00
        E 0 80 61 00
        E 120 90 49 65
        E 0 90 61 65
        E 120 80 49 00
        E 0 80 61 00
        E 120 90 18 65
        E 0 90 30 65
        E 0 90 48 65
        E 0 90 60 65
        E 120 80 18 00
        E 0 80 30 00
        E 0 80 48 00
        E 0 80 60 00
        E 120 90 30 65
        E 0 90 48 65
        E 0 90 60 65
        E 120 80 30 00
        E 0 80 48 00
        E 0 80 60 00
        E 120 90 18 65
        E 0 90 30 65
        E 0 90 48 65
        E 0 90 60 65
        E 120 80 18 00
        E 0 80 30 00
        E 0 80 48 00
        E 0 80 60 00
        E 120 90 30 65
        E 0 90 48 65
        E 0 90 60 65
        E 120 80 30 00
        E 0 80 48 00
        E 0 80 60 00
        E 120 90 18 65
        E 0 90 30 65
        E 0 90 48 65
        E 0 90 60 65
        E 120 80 18 00
        E 0 80 30 00
        E 0 80 48 00
        E 0 80 60 00
        E 120 90 30 65
        E 0 90 48 65
        E 0 90 60 65
        E 120 80 30 00
        E 0 80 48 00
        E 0 80 60 00
        E 120 90 30 65
        E 0 90 48 65
        E 0 90 60 65
        E 120 80 30 00
        E 0 80 48 00
        E 0 80 60 00
        E 120 90 48 65
        E 0 90 60 65
        E 120 80 48 00
        E 0 80 60 00
        E 120 90 18 68
        E 0 90 30 68
        E 0 90 48 68
        E 0 90 60 68
        E 0 90 74 60
        E 120 80 18 00
        E 0 80 30 00
        E 0 80 48 00
        E 0 80 60 00
        E 120 90 30 68
        E 0 90 48 68
        E 0 90 60 68
        E 120 80 30 00
        E 0 80 48 00
        E 0 80 60 00
        E 120 90 18 68
        E 0 90 30 68
        E 0 90 48 68
        E 0 90 60 68
        E 120 80 18 00
        E 0 80 30 00
        E 0 80 48 00
        E 0 80 60 00
        E 120 90 30 68
        E 0 90 48 68
        E 0 90 60 68
        E 120 80 30 00
        E 0 80 48 00
        E 0 80 60 00
        E 120 90 18 68
        E 0 90 30 68
        E 0 90 48 68
        E 0 90 60 68
        E 120 80 18 00
        E 0 80 30 00
        E 0 80 48 00
        E 0 80 60 00
        E 120 90 30 68
        E 0 90 48 68
        E 0 90 60 68
        E 120 80 30 00
        E 0 80 48 00
        E 0 80 60 00
        E 120 90 30 68
        E 0 90 48 68
        E 0 90 60 68
        E 120 80 30 00
        E 0 80 48 00
        E 0 80 60 00
        E 120 90 48 68
        E 0 90 60 68
        E 120 80 48 00
        E 0 80 60 00
        E 120 90 18 65
        E 0 90 30 65
        E 0 90 48 65
        E 0 90 60 65
        E 120 80 18 00
        E 0 80 30 00
        E 0 80 48 00
        E 0 80 60 00
        E 120 90 30 65
        E 0 90 48 65
        E 0 90 60 65
        E 120 80 30 00
        E 0 80 48 00
        E 0 80 60 00
        E 120 90 18 65
        E 0 90 30 65
        E 0 90 48 65
        E 0 90 60 65
        E 120 80 18 00
        E 0 80 30 00
        E 0 80 48 00
        E 0 80 60 00
        E 120 90 30 65
        E 0 90 48 65
        E 0 90 60 65
        E 120 80 30 00
        E 0 80 48 00
        E 0 80 60 00
        E 120 90 18 65
        E 0 90 30 65
        E 0 90 48 65
        E 0 90 60 65
        E 120 80 18 00
        E 0 80 30 00
        E 0 80 48 00
        E 0 80 60 00
        E 120 90 30 65
        E 0 90 48 65
        E 0 90 60 65
        E 120 80 30 00
        E 0 80 48 00
        E 0 80 60 00
        E 120 90 30 65
        E 0 90 48 65
        E 0 90 60 65
        E 120 80 30 00
        E 0 80 48 00
        E 0 80 60 00
        E 120 90 48 65
        E 0 90 60 65
        E 120 80 48 00
        E 0 80 60 00
        E 120 80 74 00
        E 0 90 19 65
        E 0 90 31 65
        E 0 90 49 65
        E 0 90 61 65
        E 120 80 19 00
        E 0 80 31 00
        E 0 80 49 00
        E 0 80 61 00
        E 120 90 31 65
        E 0 90 49 65
        E 0 90 61 65
        E 120 80 31 00
        E 0 80 49 00
        E 0 80 61 00
        E 120 90 19 65
        E 0 90 31 65
        E 0 90 49 65
        E 0 90 61 65
        E 120 80 19 00
        E 0 80 31 00
        E 0 80 49 00
        E 0 80 61 00
        E 120 90 31 65
        E 0 90 49 65
        E 0 90 61 65
        E 120 80 31 00
        E 0 80 49 00
        E 0 80 61 00
        E 120 90 19 65
        E 0 90 31 65
        E 0 90 49 65
        E 0 90 61 65
        E 120 80 19 00
        E 0 80 31 00
        E 0 80 49 00
        E 0 80 61 00
        E 120 90 31 65
        E 0 90 49 65
        E 0 90 61 65
        E 120 80 31 00
        E 0 80 49 00
        E 0 80 61 00
        E 120 90 31 65
        E 0 90 49 65
        E 0 90 61 65
        E 120 80 31 00
        E 0 80 49 00
        E 0 80 61 00
        E 120 90 49 65
        E 0 90 61 65
        E 120 80 49 00
        E 0 80 61 00
        E 120 90 18 65
        E 0 90 30 65
        E 0 90 48 65
        E 0 90 60 65
        E 120 80 18 00
        E 0 80 30 00
        E 0 80 48 00
        E 0 80 60 00
        E 120 90 30 65
        E 0 90 48 65
        E 0 90 60 65
        E 120 80 30 00
        E 0 80 48 00
        E 0 80 60 00
        E 120 90 18 65
        E 0 90 30 65
        E 0 90 48 65
        E 0 90 60 65
        E 120 80 18 00
        E 0 80 30 00
        E 0 80 48 00
        E 0 80 60 00
        E 120 90 30 65
        E 0 90 48 65
        E 0 90 60 65
        E 120 80 30 00
        E 0 80 48 00
        E 0 80 60 00
        E 120 90 18 65
        E 0 90 30 65
        E 0 90 48 65
        E 0 90 60 65
        E 120 80 18 00
        E 0 80 30 00
        E 0 80 48 00
        E 0 80 60 00
        E 120 90 30 65
        E 0 90 48 65
        E 0 90 60 65
        E 120 80 30 00
        E 0 80 48 00
        E 0 80 60 00
        E 120 90 30 65
        E 0 90 48 65
        E 0 90 60 65
        E 120 80 30 00
        E 0 80 48 00
        E 0 80 60 00
        E 120 90 48 65
        E 0 90 60 65
        E 120 80 48 00
        E 0 80 60 00
        E 120 90 18 68
        E 0 90 30 68
        E 0 90 48 68
        E 0 90 60 68
        E 120 80 18 00
        E 0 80 30 00
        E 0 80 48 00
        E 0 80 60 00
        E 120 90 30 68
        E 0 90 48 68
        E 0 90 60 68
        E 120 80 30 00
        E 0 80 48 00
        E 0 80 60 00
        E 120 90 18 68
        E 0 90 30 68
        E 0 90 48 68
        E 0 90 60 68
        E 120 80 18 00
        E 0 80 30 00
        E 0 80 48 00
        E 0 80 60 00
        E 120 90 30 68
        E 0 90 48 68
        E 0 90 60 68
        E 120 80 30 00
        E 0 80 48 00
        E 0 80 60 00
        E 120 90 18 68
        E 0 90 30 68
        E 0 90 48 68
        E 0 90 60 68
        E 120 80 18 00
        E 0 80 30 00
        E 0 80 48 00
        E 0 80 60 00
        E 120 90 30 68
        E 0 90 48 68
        E 0 90 60 68
        E 120 80 30 00
        E 0 80 48 00
        E 0 80 60 00
        E 120 90 30 68
        E 0 90 48 68
        E 0 90 60 68
        E 120 80 30 00
        E 0 80 48 00
        E 0 80 60 00
        E 120 90 48 68
        E 0 90 60 68
        E 120 80 48 00
        E 0 80 60 00
        E 120 90 18 65
        E 0 90 30 65
        E 0 90 48 65
        E 0 90 60 65
        E 120 80 18 00
        E 0 80 30 00
        E 0 80 48 00
        E 0 80 60 00
        E 120 90 30 65
        E 0 90 48 65
        E 0 90 60 65
        E 120 80 30 00
        E 0 80 48 00
        E 0 80 60 00
        E 120 90 18 65
        E 0 90 30 65
        E 0 90 48 65
        E 0 90 60 65
        E 120 80 18 00
        E 0 80 30 00
        E 0 80 48 00
        E 0 80 60 00
        E 120 90 30 65
        E 0 90 48 65
        E 0 90 60 65
        E 120 80 30 00
        E 0 80 48 00
        E 0 80 60 00
        E 120 90 18 65
        E 0 90 30 65
        E 0 90 48 65
        E 0 90 60 65
        E 120 80 18 00
        E 0 80 30 00
        E 0 80 48 00
        E 0 80 60 00
        E 120 90 30 65
        E 0 90 48 65
        E 0 90 60 65
        E 120 80 30 00
        E 0 80 48 00
        E 0 80 60 00
        E 120 90 30 65
        E 0 90 48 65
        E 0 90 60 65
        E 120 80 30 00
        E 0 80 48 00
        E 0 80 60 00
        E 120 90 48 65
        E 0 90 60 65
        E 120 80 48 00
        E 0 80 60 00
        E 120 90 19 65
        E 0 90 31 65
        E 0 90 49 65
        E 0 90 61 65
        E 120 80 19 00
        E 0 80 31 00
        E 0 80 49 00
        E 0 80 61 00
        E 120 90 31 65
        E 0 90 49 65
        E 0 90 61 65
        E 120 80 31 00
        E 0 80 49 00
        E 0 80 61 00
        E 120 90 19 65
        E 0 90 31 65
        E 0 90 49 65
        E 0 90 61 65
        E 120 80 19 00
        E 0 80 31 00
        E 0 80 49 00
        E 0 80 61 00
        E 120 90 31 65
        E 0 90 49 65
        E 0 90 61 65
        E 120 80 31 00
        E 0 80 49 00
        E 0 80 61 00
        E 120 90 19 65
        E 0 90 31 65
        E 0 90 49 65
        E 0 90 61 65
        E 120 80 19 00
        E 0 80 31 00
        E 0 80 49 00
        E 0 80 61 00
        E 120 90 31 65
        E 0 90 49 65
        E 0 90 61 65
        E 120 80 31 00
        E 0 80 49 00
        E 0 80 61 00
        E 120 90 31 65
        E 0 90 49 65
        E 0 90 61 65
        E 120 80 31 00
        E 0 80 49 00
        E 0 80 61 00
        E 120 90 49 65
        E 0 90 61 65
        E 120 80 49 00
        E 0 80 61 00
        E 120 90 18 65
        E 0 90 30 65
        E 0 90 48 65
        E 0 90 60 65
        E 120 80 18 00
        E 0 80 30 00
        E 0 80 48 00
        E 0 80 60 00
        E 120 90 30 65
        E 0 90 48 65
        E 0 90 60 65
        E 120 80 30 00
        E 0 80 48 00
        E 0 80 60 00
        E 120 90 18 65
        E 0 90 30 65
        E 0 90 48 65
        E 0 90 60 65
        E 120 80 18 00
        E 0 80 30 00
        E 0 80 48 00
        E 0 80 60 00
        E 120 90 30 65
        E 0 90 48 65
        E 0 90 60 65
        E 120 80 30 00
        E 0 80 48 00
        E 0 80 60 00
        E 120 90 18 65
        E 0 90 30 65
        E 0 90 48 65
        E 0 90 60 65
        E 120 80 18 00
        E 0 80 30 00
        E 0 80 48 00
        E 0 80 60 00
        E 120 90 30 65
        E 0 90 48 65
        E 0 90 60 65
        E 120 80 30 00
        E 0 80 48 00
        E 0 80 60 00
        E 120 90 30 65
        E 0 90 48 65
        E 0 90 60 65
        E 120 80 30 00
        E 0 80 48 00
        E 0 80 60 00
        E 120 90 48 65
        E 0 90 60 65
        E 120 80 48 00
        E 0 80 60 00
        E 120 90 18 68
        E 0 90 30 68
        E 0 90 48 68
        E 0 90 60 68
        E 120 80 18 00
        E 0 80 30 00
        E 0 80 48 00
        E 0 80 60 00
        E 120 90 30 68
        E 0 90 48 68
        E 0 90 60 68
        E 120 80 30 00
        E 0 80 48 00
        E 0 80 60 00
        E 120 90 18 68
        E 0 90 30 68
        E 0 90 48 68
        E 0 90 60 68
        E 120 80 18 00
        E 0 80 30 00
        E 0 80 48 00
        E 0 80 60 00
        E 120 90 30 68
        E 0 90 48 68
        E 0 90 60 68
        E 120 80 30 00
        E 0 80 48 00
        E 0 80 60 00
        E 120 90 18 68
        E 0 90 30 68
        E 0 90 48 68
        E 0 90 60 68
        E 120 80 18 00
        E 0 80 30 00
        E 0 80 48 00
        E 0 80 60 00
        E 120 90 30 68
        E 0 90 48 68
        E 0 90 60 68
        E 120 80 30 00
        E 0 80 48 00
        E 0 80 60 00
        E 120 90 30 68
        E 0 90 48 68
        E 0 90 60 68
        E 120 80 30 00
        E 0 80 48 00
        E 0 80 60 00
        E 120 90 48 68
        E 0 90 60 68
        E 120 80 48 00
        E 0 80 60 00
        E 120 90 18 65
        E 0 90 30 65
        E 0 90 48 65
        E 0 90 60 65
        E 120 80 18 00
        E 0 80 30 00
        E 0 80 48 00
        E 0 80 60 00
        E 120 90 30 65
        E 0 90 48 65
        E 0 90 60 65
        E 120 80 30 00
        E 0 80 48 00
        E 0 80 60 00
        E 120 90 18 65
        E 0 90 30 65
        E 0 90 48 65
        E 0 90 60 65
        E 120 80 18 00
        E 0 80 30 00
        E 0 80 48 00
        E 0 80 60 00
        E 120 90 30 65
        E 0 90 48 65
        E 0 90 60 65
        E 120 80 30 00
        E 0 80 48 00
        E 0 80 60 00
        E 120 90 18 65
        E 0 90 30 65
        E 0 90 48 65
        E 0 90 60 65
        E 120 80 18 00
        E 0 80 30 00
        E 0 80 48 00
        E 0 80 60 00
        E 120 90 30 65
        E 0 90 48 65
        E 0 90 60 65
        E 120 80 30 00
        E 0 80 48 00
        E 0 80 60 00
        E 120 90 30 65
        E 0 90 48 65
        E 0 90 60 65
        E 120 80 30 00
        E 0 80 48 00
        E 0 80 60 00
        E 120 90 48 65
        E 0 90 60 65
        E 120 80 48 00
        E 0 80 60 00
        E 120 90 19 65
        E 0 90 31 65
        E 0 90 49 65
        E 0 90 61 65
        E 120 80 19 00
        E 0 80 31 00
        E 0 80 49 00
        E 0 80 61 00
        E 120 90 31 65
        E 0 90 49 65
        E 0 90 61 65
        E 120 80 31 00
        E 0 80 49 00
        E 0 80 61 00
        E 120 90 19 65
        E 0 90 31 65
        E 0 90 49 65
        E 0 90 61 65
        E 120 80 19 00
        E 0 80 31 00
        E 0 80 49 00
        E 0 80 61 00
        E 120 90 31 65
        E 0 90 49 65
        E 0 90 61 65
        E 120 80 31 00
        E 0 80 49 00
        E 0 80 61 00
        E 120 90 19 65
        E 0 90 31 65
        E 0 90 49 65
        E 0 90 61 65
        E 120 80 19 00
        E 0 80 31 00
        E 0 80 49 00
        E 0 80 61 00
        E 120 90 31 65
        E 0 90 49 65
        E 0 90 61 65
        E 120 80 31 00
        E 0 80 49 00
        E 0 80 61 00
        E 120 90 31 65
        E 0 90 49 65
        E 0 90 61 65
        E 120 80 31 00
        E 0 80 49 00
        E 0 80 61 00
        E 120 90 49 65
        E 0 90 61 65
        E 120 80 49 00
        E 0 80 61 00
        E 120 90 18 65
        E 0 90 30 65
        E 0 90 48 65
        E 0 90 60 65
        E 120 80 18 00
        E 0 80 30 00
        E 0 80 48 00
        E 0 80 60 00
        E 120 90 30 65
        E 0 90 48 65
        E 0 90 60 65
        E 120 80 30 00
        E 0 80 48 00
        E 0 80 60 00
        E 120 90 18 65
        E 0 90 30 65
        E 0 90 48 65
        E 0 90 60 65
        E 120 80 18 00
        E 0 80 30 00
        E 0 80 48 00
        E 0 80 60 00
        E 120 90 30 65
        E 0 90 48 65
        E 0 90 60 65
        E 120 80 30 00
        E 0 80 48 00
        E 0 80 60 00
        E 120 90 18 65
        E 0 90 30 65
        E 0 90 48 65
        E 0 90 60 65
        E 120 80 18 00
        E 0 80 30 00
        E 0 80 48 00
        E 0 80 60 00
        E 120 90 30 65
        E 0 90 48 65
        E 0 90 60 65
        E 120 80 30 00
        E 0 80 48 00
        E 0 80 60 00
        E 120 90 30 65
        E 0 90 48 65
        E 0 90 60 65
        E 120 80 30 00
        E 0 80 48 00
        E 0 80 60 00
        E 120 90 48 65
        E 0 90 60 65
        E 120 80 48 00
        E 0 80 60 00
        E 120 90 18 68
        E 0 90 30 68
        E 0 90 48 68
        E 0 90 60 68
        E 120 80 18 00
        E 0 80 30 00
        E 0 80 48 00
        E 0 80 60 00
        E 120 90 30 68
        E 0 90 48 68
        E 0 90 60 68
        E 120 80 30 00
        E 0 80 48 00
        E 0 80 60 00
        E 120 90 18 68
        E 0 90 30 68
        E 0 90 48 68
        E 0 90 60 68
        E 120 80 18 00
        E 0 80 30 00
        E 0 80 48 00
        E 0 80 60 00
        E 120 90 30 68
        E 0 90 48 68
        E 0 90 60 68
        E 120 80 30 00
        E 0 80 48 00
        E 0 80 60 00
        E 120 90 18 68
        E 0 90 30 68
        E 0 90 48 68
        E 0 90 60 68
        E 120 80 18 00
        E 0 80 30 00
        E 0 80 48 00
        E 0 80 60 00
        E 120 90 30 68
        E 0 90 48 68
        E 0 90 60 68
        E 120 80 30 00
        E 0 80 48 00
        E 0 80 60 00
        E 120 90 30 68
        E 0 90 48 68
        E 0 90 60 68
        E 120 80 30 00
        E 0 80 48 00
        E 0 80 60 00
        E 120 90 48 68
        E 0 90 60 68
        E 120 80 48 00
        E 0 80 60 00
        E 120 90 18 65
        E 0 90 30 65
        E 0 90 48 65
        E 0 90 60 65
        E 120 80 18 00
        E 0 80 30 00
        E 0 80 48 00
        E 0 80 60 00
        E 120 90 30 65
        E 0 90 48 65
        E 0 90 60 65
        E 120 80 30 00
        E 0 80 48 00
        E 0 80 60 00
        E 120 90 18 65
        E 0 90 30 65
        E 0 90 48 65
        E 0 90 60 65
        E 120 80 18 00
        E 0 80 30 00
        E 0 80 48 00
        E 0 80 60 00
        E 120 90 30 65
        E 0 90 48 65
        E 0 90 60 65
        E 120 80 30 00
        E 0 80 48 00
        E 0 80 60 00
        E 120 90 18 65
        E 0 90 30 65
        E 0 90 48 65
        E 0 90 60 65
        E 120 80 18 00
        E 0 80 30 00
        E 0 80 48 00
        E 0 80 60 00
        E 120 90 30 65
        E 0 90 48 65
        E 0 90 60 65
        E 120 80 30 00
        E 0 80 48 00
        E 0 80 60 00
        E 120 90 30 65
        E 0 90 48 65
        E 0 90 60 65
        E 120 80 30 00
        E 0 80 48 00
        E 0 80 60 00
        E 120 90 48 65
        E 0 90 60 65
        E 120 80 48 00
        E 0 80 60 00
        E 120 90 19 65
        E 0 90 31 65
        E 0 90 49 65
        E 0 90 61 65
        E 120 80 19 00
        E 0 80 31 00
        E 0 80 49 00
        E 0 80 61 00
        E 120 90 31 65
        E 0 90 49 65
        E 0 90 61 65
        E 120 80 31 00
        E 0 80 49 00
        E 0 80 61 00
        E 120 90 19 65
        E 0 90 31 65
        E 0 90 49 65
        E 0 90 61 65
        E 120 80 19 00
        E 0 80 31 00
        E 0 80 49 00
        E 0 80 61 00
        E 120 90 31 65
        E 0 90 49 65
        E 0 90 61 65
        E 120 80 31 00
        E 0 80 49 00
        E 0 80 61 00
        E 120 90 19 65
        E 0 90 31 65
        E 0 90 49 65
        E 0 90 61 65
        E 120 80 19 00
        E 0 80 31 00
        E 0 80 49 00
        E 0 80 61 00
        E 120 90 31 65
        E 0 90 49 65
        E 0 90 61 65
        E 120 80 31 00
        E 0 80 49 00
        E 0 80 61 00
        E 120 90 31 65
        E 0 90 49 65
        E 0 90 61 65
        E 120 80 31 00
        E 0 80 49 00
        E 0 80 61 00
        E 120 90 49 65
        E 0 90 61 65
        E 120 80 49 00
        E 0 80 61 00
        E 120 90 18 65
        E 0 90 30 65
        E 0 90 48 65
        E 0 90 60 65
        E 0 90 74 60
        E 120 80 18 00
        E 0 80 30 00
        E 0 80 48 00
        E 0 80 60 00
        E 120 90 30 65
        E 0 90 48 65
        E 0 90 60 65
        E 120 80 30 00
        E 0 80 48 00
        E 0 80 60 00
        E 120 90 18 65
        E 0 90 30 65
        E 0 90 48 65
        E 0 90 60 65
        E 120 80 18 00
        E 0 80 30 00
        E 0 80 48 00
        E 0 80 60 00
        E 120 90 30 65
        E 0 90 48 65
        E 0 90 60 65
        E 120 80 30 00
        E 0 80 48 00
        E 0 80 60 00
        E 120 90 18 65
        E 0 90 30 65
        E 0 90 48 65
        E 0 90 60 65
        E 120 80 18 00
        E 0 80 30 00
        E 0 80 48 00
        E 0 80 60 00
        E 120 90 30 65
        E 0 90 48 65
        E 0 90 60 65
        E 120 80 30 00
        E 0 80 48 00
        E 0 80 60 00
        E 120 90 30 65
        E 0 90 48 65
        E 0 90 60 65
        E 120 80 30 00
        E 0 80 48 00
        E 0 80 60 00
        E 120 90 48 65
        E 0 90 60 65
        E 120 80 48 00
        E 0 80 60 00
        E 120 80 74 00
        E 0 90 18 68
        E 0 90 30 68
        E 0 90 48 68
        E 0 90 60 68
        E 120 80 18 00
        E 0 80 30 00
        E 0 80 48 00
        E 0 80 60 00
        E 120 90 30 68
        E 0 90 48 68
        E 0 90 60 68
        E 120 80 30 00
        E 0 80 48 00
        E 0 80 60 00
        E 120 90 18 68
        E 0 90 30 68
        E 0 90 48 68
        E 0 90 60 68
        E 120 80 18 00
        E 0 80 30 00
        E 0 80 48 00
        E 0 80 60 00
        E 120 90 30 68
        E 0 90 48 68
        E 0 90 60 68
        E 120 80 30 00
        E 0 80 48 00
        E 0 80 60 00
        E 120 90 18 68
        E 0 90 30 68
        E 0 90 48 68
        E 0 90 60 68
        E 120 80 18 00
        E 0 80 30 00
        E 0 80 48 00
        E 0 80 60 00
        E 120 90 30 68
        E 0 90 48 68
        E 0 90 60 68
        E 120 80 30 00
        E 0 80 48 00
        E 0 80 60 00
        E 120 90 30 68
        E 0 90 48 68
        E 0 90 60 68
        E 120 80 30 00
        E 0 80 48 00
        E 0 80 60 00
        E 120 90 48 68
        E 0 90 60 68
        E 120 80 48 00
        E 0 80 60 00
        E 120 90 18 65
        E 0 90 30 65
        E 0 90 48 65
        E 0 90 60 65
        E 120 80 18 00
        E 0 80 30 00
        E 0 80 48 00
        E 0 80 60 00
        E 120 90 30 65
        E 0 90 48 65
        E 0 90 60 65
        E 120 80 30 00
        E 0 80 48 00
        E 0 80 60 00
        E 120 90 18 65
        E 0 90 30 65
        E 0 90 48 65
        E 0 90 60 65
        E 120 80 18 00
        E 0 80 30 00
        E 0 80 48 00
        E 0 80 60 00
        E 120 90 30 65
        E 0 90 48 65
        E 0 90 60 65
        E 120 80 30 00
        E 0 80 48 00
        E 0 80 60 00
        E 120 90 18 65
        E 0 90 30 65
        E 0 90 48 65
        E 0 90 60 65
        E 120 80 18 00
        E 0 80 30 00
        E 0 80 48 00
        E 0 80 60 00
        E 120 90 30 65
        E 0 90 48 65
        E 0 90 60 65
        E 120 80 30 00
        E 0 80 48 00
        E 0 80 60 00
        E 120 90 30 65
        E 0 90 48 65
        E 0 90 60 65
        E 120 80 30 00
        E 0 80 48 00
        E 0 80 60 00
        E 120 90 48 65
        E 0 90 60 65
        E 120 80 48 00
        E 0 80 60 00
        E 120 90 19 65
        E 0 90 31 65
        E 0 90 49 65
        E 0 90 61 65
        E 120 80 19 00
        E 0 80 31 00
        E 0 80 49 00
        E 0 80 61 00
        E 120 90 31 65
        E 0 90 49 65
        E 0 90 61 65
        E 120 80 31 00
        E 0 80 49 00
        E 0 80 61 00
        E 120 90 19 65
        E 0 90 31 65
        E 0 90 49 65
        E 0 90 61 65
        E 120 80 19 00
        E 0 80 31 00
        E 0 80 49 00
        E 0 80 61 00
        E 120 90 31 65
        E 0 90 49 65
        E 0 90 61 65
        E 120 80 31 00
        E 0 80 49 00
        E 0 80 61 00
        E 120 90 19 65
        E 0 90 31 65
        E 0 90 49 65
        E 0 90 61 65
        E 120 80 19 00
        E 0 80 31 00
        E 0 80 49 00
        E 0 80 61 00
        E 120 90 31 65
        E 0 90 49 65
        E 0 90 61 65
        E 120 80 31 00
        E 0 80 49 00
        E 0 80 61 00
        E 120 90 31 65
        E 0 90 49 65
        E 0 90 61 65
        E 120 80 31 00
        E 0 80 49 00
        E 0 80 61 00
        E 120 90 49 65
        E 0 90 61 65
        E 120 80 49 00
        E 0 80 61 00
        E 120 90 18 65
        E 0 90 30 65
        E 0 90 48 65
        E 0 90 60 65
        E 120 80 18 00
        E 0 80 30 00
        E 0 80 48 00
        E 0 80 60 00
        E 120 90 30 65
        E 0 90 48 65
        E 0 90 60 65
        E 120 80 30 00
        E 0 80 48 00
        E 0 80 60 00
        E 120 90 18 65
        E 0 90 30 65
        E 0 90 48 65
        E 0 90 60 65
        E 120 80 18 00
        E 0 80 30 00
        E 0 80 48 00
        E 0 80 60 00
        E 120 90 30 65
        E 0 90 48 65
        E 0 90 60 65
        E 120 80 30 00
        E 0 80 48 00
        E 0 80 60 00
        E 120 90 18 65
        E 0 90 30 65
        E 0 90 48 65
        E 0 90 60 65
        E 120 80 18 00
        E 0 80 30 00
        E 0 80 48 00
        E 0 80 60 00
        E 120 90 30 65
        E 0 90 48 65
        E 0 90 60 65
        E 120 80 30 00
        E 0 80 48 00
        E 0 80 60 00
        E 120 90 30 65
        E 0 90 48 65
        E 0 90 60 65
        E 120 80 30 00
        E 0 80 48 00
        E 0 80 60 00
        E 120 90 48 65
        E 0 90 60 65
        E 120 80 48 00
        E 0 80 60 00
        E 120 90 18 68
        E 0 90 30 68
        E 0 90 48 68
        E 0 90 60 68
        E 120 80 18 00
        E 0 80 30 00
        E 0 80 48 00
        E 0 80 60 00
        E 120 90 30 68
        E 0 90 48 68
        E 0 90 60 68
        E 120 80 30 00
        E 0 80 48 00
        E 0 80 60 00
        E 120 90 18 68
        E 0 90 30 68
        E 0 90 48 68
        E 0 90 60 68
        E 120 80 18 00
        E 0 80 30 00
        E 0 80 48 00
        E 0 80 60 00
        E 120 90 30 68
        E 0 90 48 68
        E 0 90 60 68
        E 120 80 30 00
        E 0 80 48 00
        E 0 80 60 00
        E 120 90 18 68
        E 0 90 30 68
        E 0 90 48 68
        E 0 90 60 68
        E 120 80 18 00
        E 0 80 30 00
        E 0 80 48 00
        E 0 80 60 00
        E 120 90 30 68
        E 0 90 48 68
        E 0 90 60 68
        E 120 80 30 00
        E 0 80 48 00
        E 0 80 60 00
        E 120 90 30 68
        E 0 90 48 68
        E 0 90 60 68
        E 120 80 30 00
        E 0 80 48 00
        E 0 80 60 00
        E 120 90 48 68
        E 0 90 60 68
        E 120 80 48 00
        E 0 80 60 00
        E 120 90 18 65
        E 0 90 30 65
        E 0 90 48 65
        E 0 90 60 65
        E 120 80 18 00
        E 0 80 30 00
        E 0 80 48 00
        E 0 80 60 00
        E 120 90 30 65
        E 0 90 48 65
        E 0 90 60 65
        E 120 80 30 00
        E 0 80 48 00
        E 0 80 60 00
        E 120 90 18 65
        E 0 90 30 65
        E 0 90 48 65
        E 0 90 60 65
        E 120 80 18 00
        E 0 80 30 00
        E 0 80 48 00
        E 0 80 60 00
        E 120 90 30 65
        E 0 90 48 65
        E 0 90 60 65
        E 120 80 30 00
        E 0 80 48 00
        E 0 80 60 00
        E 120 90 18 65
        E 0 90 30 65
        E 0 90 48 65
        E 0 90 60 65
        E 120 80 18 00
        E 0 80 30 00
        E 0 80 48 00
        E 0 80 60 00
        E 120 90 30 65
        E 0 90 48 65
        E 0 90 60 65
        E 120 80 30 00
        E 0 80 48 00
        E 0 80 60 00
        E 120 90 30 65
        E 0 90 48 65
        E 0 90 60 65
        E 120 80 30 00
        E 0 80 48 00
        E 0 80 60 00
        E 120 90 48 65
        E 0 90 60 65
        E 120 80 48 00
        E 0 80 60 00
        E 120 90 19 65
        E 0 90 31 65
        E 0 90 49 65
        E 0 90 61 65
        E 120 80 19 00
        E 0 80 31 00
        E 0 80 49 00
        E 0 80 61 00
        E 120 90 31 65
        E 0 90 49 65
        E 0 90 61 65
        E 120 80 31 00
        E 0 80 49 00
        E 0 80 61 00
        E 120 90 19 65
        E 0 90 31 65
        E 0 90 49 65
        E 0 90 61 65
        E 120 80 19 00
        E 0 80 31 00
        E 0 80 49 00
        E 0 80 61 00
        E 120 90 31 65
        E 0 90 49 65
        E 0 90 61 65
        E 120 80 31 00
        E 0 80 49 00
        E 0 80 61 00
        E 120 90 19 65
        E 0 90 31 65
        E 0 90 49 65
        E 0 90 61 65
        E 120 80 19 00
        E 0 80 31 00
        E 0 80 49 00
        E 0 80 61 00
        E 120 90 31 65
        E 0 90 49 65
        E 0 90 61 65
        E 120 80 31 00
        E 0 80 49 00
        E 0 80 61 00
        E 120 90 31 65
        E 0 90 49 65
        E 0 90 61 65
        E 120 80 31 00
        E 0 80 49 00
        E 0 80 61 00
        E 120 90 49 65
        E 0 90 61 65
        E 120 80 49 00
        E 0 80 61 00
        E 120 90 18 65
        E 0 90 30 65
        E 0 90 48 65
        E 0 90 60 65
        E 120 80 18 00
        E 0 80 30 00
        E 0 80 48 00
        E 0 80 60 00
        E 120 90 30 65
        E 0 90 48 65
        E 0 90 60 65
        E 120 80 30 00
        E 0 80 48 00
        E 0 80 60 00
        E 120 90 18 65
        E 0 90 30 65
        E 0 90 48 65
        E 0 90 60 65
        E 120 80 18 00
        E 0 80 30 00
        E 0 80 48 00
        E 0 80 60 00
        E 120 90 30 65
        E 0 90 48 65
        E 0 90 60 65
        E 120 80 30 00
        E 0 80 48 00
        E 0 80 60 00
        E 120 90 18 65
        E 0 90 30 65
        E 0 90 48 65
        E 0 90 60 65
        E 120 80 18 00
        E 0 80 30 00
        E 0 80 48 00
        E 0 80 60 00
        E 120 90 30 65
        E 0 90 48 65
        E 0 90 60 65
        E 120 80 30 00
        E 0 80 48 00
        E 0 80 60 00
        E 120 90 30 65
        E 0 90 48 65
        E 0 90 60 65
        E 120 80 30 00
        E 0 80 48 00
        E 0 80 60 00
        E 120 90 48 65
        E 0 90 60 65
        E 120 80 48 00
        E 0 80 60 00
        E 120 90 18 68
        E 0 90 30 68
        E 0 90 48 68
        E 0 90 60 68
        E 120 80 18 00
        E 0 80 30 00
        E 0 80 48 00
        E 0 80 60 00
        E 120 90 30 68
        E 0 90 48 68
        E 0 90 60 68
        E 120 80 30 00
        E 0 80 48 00
        E 0 80 60 00
        E 120 90 18 68
        E 0 90 30 68
        E 0 90 48 68
        E 0 90 60 68
        E 120 80 18 00
        E 0 80 30 00
        E 0 80 48 00
        E 0 80 60 00
        E 120 90 30 68
        E 0 90 48 68
        E 0 90 60 68
        E 120 80 30 00
        E 0 80 48 00
        E 0 80 60 00
        E 120 90 18 68
        E 0 90 30 68
        E 0 90 48 68
        E 0 90 60 68
        E 120 80 18 00
        E 0 80 30 00
        E 0 80 48 00
        E 0 80 60 00
        E 120 90 30 68
        E 0 90 48 68
        E 0 90 60 68
        E 120 80 30 00
        E 0 80 48 00
        E 0 80 60 00
        E 120 90 30 68
        E 0 90 48 68
        E 0 90 60 68
        E 120 80 30 00
        E 0 80 48 00
        E 0 80 60 00
        E 120 90 48 68
        E 0 90 60 68
        E 120 80 48 00
        E 0 80 60 00
        E 120 90 18 65
        E 0 90 30 65
        E 0 90 48 65
        E 0 90 60 65
        E 120 80 18 00
        E 0 80 30 00
        E 0 80 48 00
        E 0 80 60 00
        E 120 90 30 65
        E 0 90 48 65
        E 0 90 60 65
        E 120 80 30 00
        E 0 80 48 00
        E 0 80 60 00
        E 120 90 18 65
        E 0 90 30 65
        E 0 90 48 65
        E 0 90 60 65
        E 120 80 18 00
        E 0 80 30 00
        E 0 80 48 00
        E 0 80 60 00
        E 120 90 30 65
        E 0 90 48 65
        E 0 90 60 65
        E 120 80 30 00
        E 0 80 48 00
        E 0 80 60 00
        E 120 90 18 65
        E 0 90 30 65
        E 0 90 48 65
        E 0 90 60 65
        E 120 80 18 00
        E 0 80 30 00
        E 0 80 48 00
        E 0 80 60 00
        E 120 90 30 65
        E 0 90 48 65
        E 0 90 60 65
        E 120 80 30 00
        E 0 80 48 00
        E 0 80 60 00
        E 120 90 30 65
        E 0 90 48 65
        E 0 90 60 65
        E 120 80 30 00
        E 0 80 48 00
        E 0 80 60 00
        E 120 90 48 65
        E 0 90 60 65
        E 120 80 48 00
        E 0 80 60 00
        E 120 90 19 65
        E 0 90 31 65
        E 0 90 49 65
        E 0 90 61 65
        E 120 80 19 00
        E 0 80 31 00
        E 0 80 49 00
        E 0 80 61 00
        E 120 90 31 65
        E 0 90 49 65
        E 0 90 61 65
        E 120 80 31 00
        E 0 80 49 00
        E 0 80 61 00
        E 120 90 19 65
        E 0 90 31 65
        E 0 90 49 65
        E 0 90 61 65
        E 120 80 19 00
        E 0 80 31 00
        E 0 80 49 00
        E 0 80 61 00
        E 120 90 31 65
        E 0 90 49 65
        E 0 90 61 65
        E 120 80 31 00
        E 0 80 49 00
        E 0 80 61 00
        E 120 90 19 65
        E 0 90 31 65
        E 0 90 49 65
        E 0 90 61 65
        E 120 80 19 00
        E 0 80 31 00
        E 0 80 49 00
        E 0 80 61 00
        E 120 90 31 65
        E 0 90 49 65
        E 0 90 61 65
        E 120 80 31 00
        E 0 80 49 00
        E 0 80 61 00
        E 120 90 31 65
        E 0 90 49 65
        E 0 90 61 65
        E 120 80 31 00
        E 0 80 49 00
        E 0 80 61 00
        E 120 90 49 65
        E 0 90 61 65
        E 120 80 49 00
        E 0 80 61 00
        E 120 90 18 65
        E 0 90 30 65
        E 0 90 48 65
        E 0 90 60 65
        E 120 80 18 00
        E 0 80 30 00
        E 0 80 48 00
        E 0 80 60 00
        E 120 90 30 65
        E 0 90 48 65
        E 0 90 60 65
        E 120 80 30 00
        E 0 80 48 00
        E 0 80 60 00
        E 120 90 18 65
        E 0 90 30 65
        E 0 90 48 65
        E 0 90 60 65
        E 120 80 18 00
        E 0 80 30 00
        E 0 80 48 00
        E 0 80 60 00
        E 120 90 30 65
        E 0 90 48 65
        E 0 90 60 65
        E 120 80 30 00
        E 0 80 48 00
        E 0 80 60 00
        E 120 90 18 65
        E 0 90 30 65
        E 0 90 48 65
        E 0 90 60 65
        E 120 80 18 00
        E 0 80 30 00
        E 0 80 48 00
        E 0 80 60 00
        E 120 90 30 65
        E 0 90 48 65
        E 0 90 60 65
        E 120 80 30 00
        E 0 80 48 00
        E 0 80 60 00
        E 120 90 30 65
        E 0 90 48 65
        E 0 90 60 65
        E 120 80 30 00
        E 0 80 48 00
        E 0 80 60 00
        E 120 90 48 65
        E 0 90 60 65
        E 120 80 48 00
        E 0 80 60 00
        E 120 90 18 68
        E 0 90 30 68
        E 0 90 48 68
        E 0 90 60 68
        E 120 80 18 00
        E 0 80 30 00
        E 0 80 48 00
        E 0 80 60 00
        E 120 90 30 68
        E 0 90 48 68
        E 0 90 60 68
        E 120 80 30 00
        E 0 80 48 00
        E 0 80 60 00
        E 120 90 18 68
        E 0 90 30 68
        E 0 90 48 68
        E 0 90 60 68
        E 120 80 18 00
        E 0 80 30 00
        E 0 80 48 00
        E 0 80 60 00
        E 120 90 30 68
        E 0 90 48 68
        E 0 90 60 68
        E 120 80 30 00
        E 0 80 48 00
        E 0 80 60 00
        E 120 90 18 68
        E 0 90 30 68
        E 0 90 48 68
        E 0 90 60 68
        E 120 80 18 00
        E 0 80 30 00
        E 0 80 48 00
        E 0 80 60 00
        E 120 90 30 68
        E 0 90 48 68
        E 0 90 60 68
        E 120 80 30 00
        E 0 80 48 00
        E 0 80 60 00
        E 120 90 30 68
        E 0 90 48 68
        E 0 90 60 68
        E 120 80 30 00
        E 0 80 48 00
        E 0 80 60 00
        E 120 90 48 68
        E 0 90 60 68
        E 120 80 48 00
        E 0 80 60 00
        E 120 90 18 65
        E 0 90 30 65
        E 0 90 48 65
        E 0 90 60 65
        E 120 80 18 00
        E 0 80 30 00
        E 0 80 48 00
        E 0 80 60 00
        E 120 90 30 65
        E 0 90 48 65
        E 0 90 60 65
        E 120 80 30 00
        E 0 80 48 00
        E 0 80 60 00
        E 120 90 18 65
        E 0 90 30 65
        E 0 90 48 65
        E 0 90 60 65
        E 120 80 18 00
        E 0 80 30 00
        E 0 80 48 00
        E 0 80 60 00
        E 120 90 30 65
        E 0 90 48 65
        E 0 90 60 65
        E 120 80 30 00
        E 0 80 48 00
        E 0 80 60 00
        E 120 90 18 65
        E 0 90 30 65
        E 0 90 48 65
        E 0 90 60 65
        E 120 80 18 00
        E 0 80 30 00
        E 0 80 48 00
        E 0 80 60 00
        E 120 90 30 65
        E 0 90 48 65
        E 0 90 60 65
        E 120 80 30 00
        E 0 80 48 00
        E 0 80 60 00
        E 120 90 30 65
        E 0 90 48 65
        E 0 90 60 65
        E 120 80 30 00
        E 0 80 48 00
        E 0 80 60 00
        E 120 90 48 65
        E 0 90 60 65
        E 120 80 48 00
        E 0 80 60 00
        E 120 90 19 65
        E 0 90 31 65
        E 0 90 49 65
        E 0 90 61 65
        E 0 90 74 60
        E 120 80 19 00
        E 0 80 31 00
        E 0 80 49 00
        E 0 80 61 00
        E 120 90 31 65
        E 0 90 49 65
        E 0 90 61 65
        E 120 80 31 00
        E 0 80 49 00
        E 0 80 61 00
        E 120 90 19 65
        E 0 90 31 65
        E 0 90 49 65
        E 0 90 61 65
        E 120 80 19 00
        E 0 80 31 00
        E 0 80 49 00
        E 0 80 61 00
        E 120 90 31 65
        E 0 90 49 65
        E 0 90 61 65
        E 120 80 31 00
        E 0 80 49 00
        E 0 80 61 00
        E 120 90 19 65
        E 0 90 31 65
        E 0 90 49 65
        E 0 90 61 65
        E 120 80 19 00
        E 0 80 31 00
        E 0 80 49 00
        E 0 80 61 00
        E 120 90 31 65
        E 0 90 49 65
        E 0 90 61 65
        E 120 80 31 00
        E 0 80 49 00
        E 0 80 61 00
        E 120 90 31 65
        E 0 90 49 65
        E 0 90 61 65
        E 120 80 31 00
        E 0 80 49 00
        E 0 80 61 00
        E 120 90 49 65
        E 0 90 61 65
        E 120 80 49 00
        E 0 80 61 00
        E 120 90 18 65
        E 0 90 30 65
        E 0 90 48 65
        E 0 90 60 65
        E 120 80 18 00
        E 0 80 30 00
        E 0 80 48 00
        E 0 80 60 00
        E 120 90 30 65
        E 0 90 48 65
        E 0 90 60 65
        E 120 80 30 00
        E 0 80 48 00
        E 0 80 60 00
        E 120 90 18 65
        E 0 90 30 65
        E 0 90 48 65
        E 0 90 60 65
        E 120 80 18 00
        E 0 80 30 00
        E 0 80 48 00
        E 0 80 60 00
        E 120 90 30 65
        E 0 90 48 65
        E 0 90 60 65
        E 120 80 30 00
        E 0 80 48 00
        E 0 80 60 00
        E 120 90 18 65
        E 0 90 30 65
        E 0 90 48 65
        E 0 90 60 65
        E 120 80 18 00
        E 0 80 30 00
        E 0 80 48 00
        E 0 80 60 00
        E 120 90 30 65
        E 0 90 48 65
        E 0 90 60 65
        E 120 80 30 00
        E 0 80 48 00
        E 0 80 60 00
        E 120 90 30 65
        E 0 90 48 65
        E 0 90 60 65
        E 120 80 30 00
        E 0 80 48 00
        E 0 80 60 00
        E 120 90 48 65
        E 0 90 60 65
        E 120 80 48 00
        E 0 80 60 00
        E 120 80 74 00
        E 0 90 18 68
        E 0 90 30 68
        E 0 90 48 68
        E 0 90 60 68
        E 120 80 18 00
        E 0 80 30 00
        E 0 80 48 00
        E 0 80 60 00
        E 120 90 30 68
        E 0 90 48 68
        E 0 90 60 68
        E 120 80 30 00
        E 0 80 48 00
        E 0 80 60 00
        E 120 90 18 68
        E 0 90 30 68
        E 0 90 48 68
        E 0 90 60 68
        E 120 80 18 00
        E 0 80 30 00
        E 0 80 48 00
        E 0 80 60 00
        E 120 90 30 68
        E 0 90 48 68
        E 0 90 60 68
        E 120 80 30 00
        E 0 80 48 00
        E 0 80 60 00
        E 120 90 18 68
        E 0 90 30 68
        E 0 90 48 68
        E 0 90 60 68
        E 120 80 18 00
        E 0 80 30 00
        E 0 80 48 00
        E 0 80 60 00
        E 120 90 30 68
        E 0 90 48 68
        E 0 90 60 68
        E 120 80 30 00
        E 0 80 48 00
        E 0 80 60 00
        E 120 90 30 68
        E 0 90 48 68
        E 0 90 60 68
        E 120 80 30 00
        E 0 80 48 00
        E 0 80 60 00
        E 120 90 48 68
        E 0 90 60 68
        E 120 80 48 00
        E 0 80 60 00
        E 120 90 18 65
        E 0 90 30 65
        E 0 90 48 65
        E 0 90 60 65
        E 120 80 18 00
        E 0 80 30 00
        E 0 80 48 00
        E 0 80 60 00
        E 120 90 30 65
        E 0 90 48 65
        E 0 90 60 65
        E 120 80 30 00
        E 0 80 48 00
        E 0 80 60 00
        E 120 90 18 65
        E 0 90 30 65
        E 0 90 48 65
        E 0 90 60 65
        E 120 80 18 00
        E 0 80 30 00
        E 0 80 48 00
        E 0 80 60 00
        E 120 90 30 65
        E 0 90 48 65
        E 0 90 60 65
        E 120 80 30 00
        E 0 80 48 00
        E 0 80 60 00
        E 120 90 18 65
        E 0 90 30 65
        E 0 90 48 65
        E 0 90 60 65
        E 120 80 18 00
        E 0 80 30 00
        E 0 80 48 00
        E 0 80 60 00
        E 120 90 30 65
        E 0 90 48 65
        E 0 90 60 65
        E 120 80 30 00
        E 0 80 48 00
        E 0 80 60 00
        E 120 90 30 65
        E 0 90 48 65
        E 0 90 60 65
        E 120 80 30 00
        E 0 80 48 00
        E 0 80 60 00
        E 120 90 48 65
        E 0 90 60 65
        E 120 80 48 00
        E 0 80 60 00
        E 120 90 19 65
        E 0 90 31 65
        E 0 90 49 65
        E 0 90 61 65
        E 120 80 19 00
        E 0 80 31 00
        E 0 80 49 00
        E 0 80 61 00
        E 120 90 31 65
        E 0 90 49 65
        E 0 90 61 65
        E 120 80 31 00
        E 0 80 49 00
        E 0 80 61 00
        E 120 90 19 65
        E 0 90 31 65
        E 0 90 49 65
        E 0 90 61 65
        E 120 80 19 00
        E 0 80 31 00
        E 0 80 49 00
        E 0 80 61 00
        E 120 90 31 65
        E 0 90 49 65
        E 0 90 61 65
        E 120 80 31 00
        E 0 80 49 00
        E 0 80 61 00
        E 120 90 19 65
        E 0 90 31 65
        E 0 90 49 65
        E 0 90 61 65
        E 120 80 19 00
        E 0 80 31 00
        E 0 80 49 00
        E 0 80 61 00
        E 120 90 31 65
        E 0 90 49 65
        E 0 90 61 65
        E 120 80 31 00
        E 0 80 49 00
        E 0 80 61 00
        E 120 90 19 65
        E 0 90 31 65
        E 0 90 49 65
        E 0 90 61 65
        E 120 80 19 00
        E 0 80 31 00
        E 0 80 49 00
        E 0 80 61 00
        E 120 90 31 65
        E 0 90 49 65
        E 0 90 61 65
        E 120 80 31 00
        E 0 80 49 00
        E 0 80 61 00
        E 120 90 19 65
        E 0 90 31 65
        E 0 90 49 65
        E 0 90 61 65
        E 120 80 19 00
        E 0 80 31 00
        E 0 80 49 00
        E 0 80 61 00
        E 120 90 31 65
        E 0 90 49 65
        E 0 90 61 65
        E 120 80 31 00
        E 0 80 49 00
        E 0 80 61 00
        E 120 90 19 65
        E 0 90 31 65
        E 0 90 49 65
        E 0 90 61 65
        E 120 80 19 00
        E 0 80 31 00
        E 0 80 49 00
        E 0 80 61 00
        E 120 90 31 65
        E 0 90 49 65
        E 0 90 61 65
        E 120 80 31 00
        E 0 80 49 00
        E 0 80 61 00
        E 120 90 19 65
        E 0 90 31 65
        E 0 90 49 65
        E 0 90 61 65
        E 120 80 19 00
        E 0 80 31 00
        E 0 80 49 00
        E 0 80 61 00
        E 120 90 31 65
        E 0 90 49 65
        E 0 90 61 65
        E 120 80 31 00
        E 0 80 49 00
        E 0 80 61 00
        E 120 90 19 65
        E 0 90 31 65
        E 0 90 49 65
        E 0 90 61 65
        E 120 80 19 00
        E 0 80 31 00
        E 0 80 49 00
        E 0 80 61 00
        E 120 90 31 65
        E 0 90 49 65
        E 0 90 61 65
        E 120 80 31 00
        E 0 80 49 00
        E 0 80 61 00
        E 120 90 19 65
        E 0 90 31 65
        E 0 90 49 65
        E 0 90 61 65
        E 120 80 19 00
        E 0 80 31 00
        E 0 80 49 00
        E 0 80 61 00
        E 120 90 31 65
        E 0 90 49 65
        E 0 90 61 65
        E 120 80 31 00
        E 0 80 49 00
        E 0 80 61 00
        E 120 90 19 65
        E 0 90 31 65
        E 0 90 49 65
        E 0 90 61 65
        E 120 80 19 00
        E 0 80 31 00
        E 0 80 49 00
        E 0 80 61 00
        E 120 90 31 65
        E 0 90 49 65
        E 0 90 61 65
        E 120 80 31 00
        E 0 80 49 00
        E 0 80 61 00
        E 120 90 19 65
        E 0 90 31 65
        E 0 90 49 65
        E 0 90 61 65
        E 120 80 19 00
        E 0 80 31 00
        E 0 80 49 00
        E 0 80 61 00
        E 120 90 31 65
        E 0 90 49 65
        E 0 90 61 65
        E 120 80 31 00
        E 0 80 49 00
        E 0 80 61 00
        E 120 90 19 65
        E 0 90 31 65
        E 0 90 49 65
        E 0 90 61 65
        E 120 80 19 00
        E 0 80 31 00
        E 0 80 49 00
        E 0 80 61 00
        E 120 90 31 65
        E 0 90 49 65
        E 0 90 61 65
        E 120 80 31 00
        E 0 80 49 00
        E 0 80 61 00
        E 120 90 19 65
        E 0 90 31 65
        E 0 90 49 65
        E 0 90 61 65
        E 120 80 19 00
        E 0 80 31 00
        E 0 80 49 00
        E 0 80 61 00
        E 120 90 31 65
        E 0 90 49 65
        E 0 90 61 65
        E 120 80 31 00
        E 0 80 49 00
        E 0 80 61 00
        E 120 90 19 65
        E 0 90 31 65
        E 0 90 49 65
        E 0 90 61 65
        E 120 80 19 00
        E 0 80 31 00
        E 0 80 49 00
        E 0 80 61 00
        E 120 90 31 65
        E 0 90 49 65
        E 0 90 61 65
        E 120 80 31 00
        E 0 80 49 00
        E 0 80 61 00
        E 120 90 19 65
        E 0 90 31 65
        E 0 90 49 65
        E 0 90 61 65
        E 120 80 19 00
        E 0 80 31 00
        E 0 80 49 00
        E 0 80 61 00
        E 120 90 31 65
        E 0 90 49 65
        E 0 90 61 65
        E 120 80 31 00
        E 0 80 49 00
        E 0 80 61 00
        E 120 90 19 65
        E 0 90 31 65
        E 0 90 49 65
        E 0 90 61 65
        E 120 80 19 00
        E 0 80 31 00
        E 0 80 49 00
        E 0 80 61 00
        E 120 90 31 65
        E 0 90 49 65
        E 0 90 61 65
        E 120 80 31 00
        E 0 80 49 00
        E 0 80 61 00
        E 120 90 19 65
        E 0 90 31 65
        E 0 90 49 65
        E 0 90 61 65
        E 120 80 19 00
        E 0 80 31 00
        E 0 80 49 00
        E 0 80 61 00
        E 120 90 31 65
        E 0 90 49 65
        E 0 90 61 65
        E 120 80 31 00
        E 0 80 49 00
        E 0 80 61 00
        E 120 90 19 65
        E 0 90 31 65
        E 0 90 49 65
        E 0 90 61 65
        E 120 80 19 00
        E 0 80 31 00
        E 0 80 49 00
        E 0 80 61 00
        E 120 90 31 65
        E 0 90 49 65
        E 0 90 61 65
        E 120 80 31 00
        E 0 80 49 00
        E 0 80 61 00
        E 120 90 19 65
        E 0 90 31 65
        E 0 90 49 65
        E 0 90 61 65
        E 120 80 19 00
        E 0 80 31 00
        E 0 80 49 00
        E 0 80 61 00
        E 120 90 31 65
        E 0 90 49 65
        E 0 90 61 65
        E 120 80 31 00
        E 0 80 49 00
        E 0 80 61 00
        E 120 90 19 65
        E 0 90 31 65
        E 0 90 49 65
        E 0 90 61 65
        E 120 80 19 00
        E 0 80 31 00
        E 0 80 49 00
        E 0 80 61 00
        E 120 90 31 65
        E 0 90 49 65
        E 0 90 61 65
        E 120 80 31 00
        E 0 80 49 00
        E 0 80 61 00
        E 120 90 19 65
        E 0 90 31 65
        E 0 90 49 65
        E 0 90 61 65
        E 120 80 19 00
        E 0 80 31 00
        E 0 80 49 00
        E 0 80 61 00
        E 120 90 31 65
        E 0 90 49 65
        E 0 90 61 65
        E 120 80 31 00
        E 0 80 49 00
        E 0 80 61 00
        E 120 90 19 65
        E 0 90 31 65
        E 0 90 49 65
        E 0 90 61 65
        E 120 80 19 00
        E 0 80 31 00
        E 0 80 49 00
        E 0 80 61 00
        E 120 90 31 65
        E 0 90 49 65
        E 0 90 61 65
        E 120 80 31 00
        E 0 80 49 00
        E 0 80 61 00
        E 120 90 19 65
        E 0 90 31 65
        E 0 90 49 65
        E 0 90 61 65
        E 120 80 19 00
        E 0 80 31 00
        E 0 80 49 00
        E 0 80 61 00
        E 120 90 31 65
        E 0 90 49 65
        E 0 90 61 65
        E 120 80 31 00
        E 0 80 49 00
        E 0 80 61 00
        E 120 90 19 65
        E 0 90 31 65
        E 0 90 49 65
        E 0 90 61 65
        E 120 80 19 00
        E 0 80 31 00
        E 0 80 49 00
        E 0 80 61 00
        E 120 90 31 65
        E 0 90 49 65
        E 0 90 61 65
        E 120 80 31 00
        E 0 80 49 00
        E 0 80 61 00
        E 120 90 19 65
        E 0 90 31 65
        E 0 90 49 65
        E 0 90 61 65
        E 120 80 19 00
        E 0 80 31 00
        E 0 80 49 00
        E 0 80 61 00
        E 120 90 31 65
        E 0 90 49 65
        E 0 90 61 65
        E 120 80 31 00
        E 0 80 49 00
        E 0 80 61 00
        E 120 90 19 65
        E 0 90 31 65
        E 0 90 49 65
        E 0 90 61 65
        E 120 80 19 00
        E 0 80 31 00
        E 0 80 49 00
        E 0 80 61 00
        E 120 90 31 65
        E 0 90 49 65
        E 0 90 61 65
        E 120 80 31 00
        E 0 80 49 00
        E 0 80 61 00
        E 120 90 19 65
        E 0 90 31 65
        E 0 90 49 65
        E 0 90 61 65
        E 120 80 19 00
        E 0 80 31 00
        E 0 80 49 00
        E 0 80 61 00
        E 120 90 31 65
        E 0 90 49 65
        E 0 90 61 65
        E 120 80 31 00
        E 0 80 49 00
        E 0 80 61 00
        E 120 90 19 65
        E 0 90 31 65
        E 0 90 49 65
        E 0 90 61 65
        E 120 80 19 00
        E 0 80 31 00
        E 0 80 49 00
        E 0 80 61 00
        E 120 90 31 65
        E 0 90 49 65
        E 0 90 61 65
        E 120 80 31 00
        E 0 80 49 00
        E 0 80 61 00
        E 120 90 19 65
        E 0 90 31 65
        E 0 90 49 65
        E 0 90 61 65
        E 120 80 19 00
        E 0 80 31 00
        E 0 80 49 00
        E 0 80 61 00
        E 120 90 31 65
        E 0 90 49 65
        E 0 90 61 65
        E 120 80 31 00
        E 0 80 49 00
        E 0 80 61 00
        E 120 90 19 65
        E 0 90 31 65
        E 0 90 49 65
        E 0 90 61 65
        E 120 80 19 00
        E 0 80 31 00
        E 0 80 49 00
        E 0 80 61 00
        E 120 90 31 65
        E 0 90 49 65
        E 0 90 61 65
        E 120 80 31 00
        E 0 80 49 00
        E 0 80 61 00
        E 120 90 19 65
        E 0 90 31 65
        E 0 90 49 65
        E 0 90 61 65
        E 120 80 19 00
        E 0 80 31 00
        E 0 80 49 00
        E 0 80 61 00
        E 120 90 31 65
        E 0 90 49 65
        E 0 90 61 65
        E 120 80 31 00
        E 0 80 49 00
        E 0 80 61 00
        E 120 90 19 65
        E 0 90 31 65
        E 0 90 49 65
        E 0 90 61 65
        E 120 80 19 00
        E 0 80 31 00
        E 0 80 49 00
        E 0 80 61 00
        E 120 90 31 65
        E 0 90 49 65
        E 0 90 61 65
        E 120 80 31 00
        E 0 80 49 00
        E 0 80 61 00
        E 120 90 19 65
        E 0 90 31 65
        E 0 90 49 65
        E 0 90 61 65
        E 120 80 19 00
        E 0 80 31 00
        E 0 80 49 00
        E 0 80 61 00
        E 120 90 31 65
        E 0 90 49 65
        E 0 90 61 65
        E 120 80 31 00
        E 0 80 49 00
        E 0 80 61 00
        E 120 90 19 65
        E 0 90 31 65
        E 0 90 49 65
        E 0 90 61 65
        E 120 80 19 00
        E 0 80 31 00
        E 0 80 49 00
        E 0 80 61 00
        E 120 90 31 65
        E 0 90 49 65
        E 0 90 61 65
        E 120 80 31 00
        E 0 80 49 00
        E 0 80 61 00
        E 120 90 19 65
        E 0 90 31 65
        E 0 90 49 65
        E 0 90 61 65
        E 120 80 19 00
        E 0 80 31 00
        E 0 80 49 00
        E 0 80 61 00
        E 120 90 31 65
        E 0 90 49 65
        E 0 90 61 65
        E 120 80 31 00
        E 0 80 49 00
        E 0 80 61 00
        E 120 90 19 65
        E 0 90 31 65
        E 0 90 49 65
        E 0 90 61 65
        E 120 80 19 00
        E 0 80 31 00
        E 0 80 49 00
        E 0 80 61 00
        E 120 90 31 65
        E 0 90 49 65
        E 0 90 61 65
        E 120 80 31 00
        E 0 80 49 00
        E 0 80 61 00
        E 120 90 19 65
        E 0 90 31 65
        E 0 90 49 65
        E 0 90 61 65
        E 0 90 74 60
        E 120 80 19 00
        E 0 80 31 00
        E 0 80 49 00
        E 0 80 61 00
        E 120 90 31 65
        E 0 90 49 65
        E 0 90 61 65
        E 120 80 31 00
        E 0 80 49 00
        E 0 80 61 00
        E 120 90 19 65
        E 0 90 31 65
        E 0 90 49 65
        E 0 90 61 65
        E 120 80 19 00
        E 0 80 31 00
        E 0 80 49 00
        E 0 80 61 00
        E 120 90 31 65
        E 0 90 49 65
        E 0 90 61 65
        E 120 80 31 00
        E 0 80 49 00
        E 0 80 61 00
        E 120 90 19 65
        E 0 90 31 65
        E 0 90 49 65
        E 0 90 61 65
        E 120 80 19 00
        E 0 80 31 00
        E 0 80 49 00
        E 0 80 61 00
        E 120 90 31 65
        E 0 90 49 65
        E 0 90 61 65
        E 120 80 31 00
        E 0 80 49 00
        E 0 80 61 00
        E 120 90 19 65
        E 0 90 31 65
        E 0 90 49 65
        E 0 90 61 65
        E 120 80 19 00
        E 0 80 31 00
        E 0 80 49 00
        E 0 80 61 00
        E 120 90 31 65
        E 0 90 49 65
        E 0 90 61 65
        E 120 80 31 00
        E 0 80 49 00
        E 0 80 61 00
        E 120 80 74 00
        E 0 90 19 65
        E 0 90 31 65
        E 0 90 49 65
        E 0 90 61 65
        E 120 80 19 00
        E 0 80 31 00
        E 0 80 49 00
        E 0 80 61 00
        E 120 90 31 65
        E 0 90 49 65
        E 0 90 61 65
        E 120 80 31 00
        E 0 80 49 00
        E 0 80 61 00
        E 120 90 19 65
        E 0 90 31 65
        E 0 90 49 65
        E 0 90 61 65
        E 120 80 19 00
        E 0 80 31 00
        E 0 80 49 00
        E 0 80 61 00
        E 120 90 31 65
        E 0 90 49 65
        E 0 90 61 65
        E 120 80 31 00
        E 0 80 49 00
        E 0 80 61 00
        E 120 90 19 65
        E 0 90 31 65
        E 0 90 49 65
        E 0 90 61 65
        E 120 80 19 00
        E 0 80 31 00
        E 0 80 49 00
        E 0 80 61 00
        E 120 90 31 65
        E 0 90 49 65
        E 0 90 61 65
        E 120 80 31 00
        E 0 80 49 00
        E 0 80 61 00
        E 120 90 19 65
        E 0 90 31 65
        E 0 90 49 65
        E 0 90 61 65
        E 120 80 19 00
        E 0 80 31 00
        E 0 80 49 00
        E 0 80 61 00
        E 120 90 31 65
        E 0 90 49 65
        E 0 90 61 65
        E 120 80 31 00
        E 0 80 49 00
        E 0 80 61 00
        E 120 90 19 65
        E 0 90 31 65
        E 0 90 49 65
        E 0 90 61 65
        E 120 80 19 00
        E 0 80 31 00
        E 0 80 49 00
        E 0 80 61 00
        E 120 90 31 65
        E 0 90 49 65
        E 0 90 61 65
        E 120 80 31 00
        E 0 80 49 00
        E 0 80 61 00
        E 120 90 19 65
        E 0 90 31 65
        E 0 90 49 65
        E 0 90 61 65
        E 120 80 19 00
        E 0 80 31 00
        E 0 80 49 00
        E 0 80 61 00
        E 120 90 31 65
        E 0 90 49 65
        E 0 90 61 65
        E 120 80 31 00
        E 0 80 49 00
        E 0 80 61 00
        E 120 90 19 65
        E 0 90 31 65
        E 0 90 49 65
        E 0 90 61 65
        E 120 80 19 00
        E 0 80 31 00
        E 0 80 49 00
        E 0 80 61 00
        E 120 90 31 65
        E 0 90 49 65
        E 0 90 61 65
        E 120 80 31 00
        E 0 80 49 00
        E 0 80 61 00
        E 120 90 19 65
        E 0 90 31 65
        E 0 90 49 65
        E 0 90 61 65
        E 120 80 19 00
        E 0 80 31 00
        E 0 80 49 00
        E 0 80 61 00
        E 120 90 31 65
        E 0 90 49 65
        E 0 90 61 65
        E 120 80 31 00
        E 0 80 49 00
        E 0 80 61 00
        E 120 90 19 65
        E 0 90 31 65
        E 0 90 49 65
        E 0 90 61 65
        E 120 80 19 00
        E 0 80 31 00
        E 0 80 49 00
        E 0 80 61 00
        E 120 90 31 65
        E 0 90 49 65
        E 0 90 61 65
        E 120 80 31 00
        E 0 80 49 00
        E 0 80 61 00
        E 120 90 19 65
        E 0 90 31 65
        E 0 90 49 65
        E 0 90 61 65
        E 120 80 19 00
        E 0 80 31 00
        E 0 80 49 00
        E 0 80 61 00
        E 120 90 31 65
        E 0 90 49 65
        E 0 90 61 65
        E 120 80 31 00
        E 0 80 49 00
        E 0 80 61 00
        E 120 90 19 65
        E 0 90 31 65
        E 0 90 49 65
        E 0 90 61 65
        E 120 80 19 00
        E 0 80 31 00
        E 0 80 49 00
        E 0 80 61 00
        E 120 90 31 65
        E 0 90 49 65
        E 0 90 61 65
        E 120 80 31 00
        E 0 80 49 00
        E 0 80 61 00
        E 120 90 19 65
        E 0 90 31 65
        E 0 90 49 65
        E 0 90 61 65
        E 120 80 19 00
        E 0 80 31 00
        E 0 80 49 00
        E 0 80 61 00
        E 120 90 31 65
        E 0 90 49 65
        E 0 90 61 65
        E 120 80 31 00
        E 0 80 49 00
        E 0 80 61 00
        E 120 90 19 65
        E 0 90 31 65
        E 0 90 49 65
        E 0 90 61 65
        E 120 80 19 00
        E 0 80 31 00
        E 0 80 49 00
        E 0 80 61 00
        E 120 90 31 65
        E 0 90 49 65
        E 0 90 61 65
        E 120 80 31 00
        E 0 80 49 00
        E 0 80 61 00
        E 120 90 19 65
        E 0 90 31 65
        E 0 90 49 65
        E 0 90 61 65
        E 120 80 19 00
        E 0 80 31 00
        E 0 80 49 00
        E 0 80 61 00
        E 120 90 31 65
        E 0 90 49 65
        E 0 90 61 65
        E 120 80 31 00
        E 0 80 49 00
        E 0 80 61 00
        E 120 90 19 65
        E 0 90 31 65
        E 0 90 49 65
        E 0 90 61 65
        E 120 80 19 00
        E 0 80 31 00
        E 0 80 49 00
        E 0 80 61 00
        E 120 90 31 65
        E 0 90 49 65
        E 0 90 61 65
        E 120 80 31 00
        E 0 80 49 00
        E 0 80 61 00
        E 120 90 19 65
        E 0 90 31 65
        E 0 90 49 65
        E 0 90 61 65
        E 120 80 19 00
        E 0 80 31 00
        E 0 80 49 00
        E 0 80 61 00
        E 120 90 31 65
        E 0 90 49 65
        E 0 90 61 65
        E 120 80 31 00
        E 0 80 49 00
        E 0 80 61 00
        E 120 90 19 65
        E 0 90 31 65
        E 0 90 49 65
        E 0 90 61 65
        E 120 80 19 00
        E 0 80 31 00
        E 0 80 49 00
        E 0 80 61 00
        E 120 90 31 65
        E 0 90 49 65
        E 0 90 61 65
        E 120 80 31 00
        E 0 80 49 00
        E 0 80 61 00
        E 120 90 19 65
        E 0 90 31 65
        E 0 90 49 65
        E 0 90 61 65
        E 120 80 19 00
        E 0 80 31 00
        E 0 80 49 00
        E 0 80 61 00
        E 120 90 31 65
        E 0 90 49 65
        E 0 90 61 65
        E 120 80 31 00
        E 0 80 49 00
        E 0 80 61 00
        E 120 90 19 65
        E 0 90 31 65
        E 0 90 49 65
        E 0 90 61 65
        E 120 80 19 00
        E 0 80 31 00
        E 0 80 49 00
        E 0 80 61 00
        E 120 90 31 65
        E 0 90 49 65
        E 0 90 61 65
        E 120 80 31 00
        E 0 80 49 00
        E 0 80 61 00
        E 120 90 19 65
        E 0 90 31 65
        E 0 90 49 65
        E 0 90 61 65
        E 120 80 19 00
        E 0 80 31 00
        E 0 80 49 00
        E 0 80 61 00
        E 120 90 31 65
        E 0 90 49 65
        E 0 90 61 65
        E 120 80 31 00
        E 0 80 49 00
        E 0 80 61 00
        E 120 90 19 65
        E 0 90 31 65
        E 0 90 49 65
        E 0 90 61 65
        E 120 80 19 00
        E 0 80 31 00
        E 0 80 49 00
        E 0 80 61 00
        E 120 90 31 65
        E 0 90 49 65
        E 0 90 61 65
        E 120 80 31 00
        E 0 80 49 00
        E 0 80 61 00
        E 120 90 19 65
        E 0 90 31 65
        E 0 90 49 65
        E 0 90 61 65
        E 120 80 19 00
        E 0 80 31 00
        E 0 80 49 00
        E 0 80 61 00
        E 120 90 31 65
        E 0 90 49 65
        E 0 90 61 65
        E 120 80 31 00
        E 0 80 49 00
        E 0 80 61 00
        E 120 90 19 65
        E 0 90 31 65
        E 0 90 49 65
        E 0 90 61 65
        E 120 80 19 00
        E 0 80 31 00
        E 0 80 49 00
        E 0 80 61 00
        E 120 90 31 65
        E 0 90 49 65
        E 0 90 61 65
        E 120 80 31 00
        E 0 80 49 00
        E 0 80 61 00
        E 120 90 19 65
        E 0 90 31 65
        E 0 90 49 65
        E 0 90 61 65
        E 120 80 19 00
        E 0 80 31 00
        E 0 80 49 00
        E 0 80 61 00
        E 120 90 31 65
        E 0 90 49 65
        E 0 90 61 65
        E 120 80 31 00
        E 0 80 49 00
        E 0 80 61 00
        E 120 90 19 65
        E 0 90 31 65
        E 0 90 49 65
        E 0 90 61 65
        E 120 80 19 00
        E 0 80 31 00
        E 0 80 49 00
        E 0 80 61 00
        E 120 90 31 65
        E 0 90 49 65
        E 0 90 61 65
        E 120 80 31 00
        E 0 80 49 00
        E 0 80 61 00
        E 120 90 19 65
        E 0 90 31 65
        E 0 90 49 65
        E 0 90 61 65
        E 120 80 19 00
        E 0 80 31 00
        E 0 80 49 00
        E 0 80 61 00
        E 120 90 31 65
        E 0 90 49 65
        E 0 90 61 65
        E 120 80 31 00
        E 0 80 49 00
        E 0 80 61 00
        E 120 90 19 65
        E 0 90 31 65
        E 0 90 49 65
        E 0 90 61 65
        E 120 80 19 00
        E 0 80 31 00
        E 0 80 49 00
        E 0 80 61 00
        E 120 90 31 65
        E 0 90 49 65
        E 0 90 61 65
        E 120 80 31 00
        E 0 80 49 00
        E 0 80 61 00
        E 120 90 19 65
        E 0 90 31 65
        E 0 90 49 65
        E 0 90 61 65
        E 120 80 19 00
        E 0 80 31 00
        E 0 80 49 00
        E 0 80 61 00
        E 120 90 31 65
        E 0 90 49 65
        E 0 90 61 65
        E 120 80 31 00
        E 0 80 49 00
        E 0 80 61 00
        E 120 90 19 65
        E 0 90 31 65
        E 0 90 49 65
        E 0 90 61 65
        E 120 80 19 00
        E 0 80 31 00
        E 0 80 49 00
        E 0 80 61 00
        E 120 90 31 65
        E 0 90 49 65
        E 0 90 61 65
        E 120 80 31 00
        E 0 80 49 00
        E 0 80 61 00
        E 120 90 19 65
        E 0 90 31 65
        E 0 90 49 65
        E 0 90 61 65
        E 120 80 19 00
        E 0 80 31 00
        E 0 80 49 00
        E 0 80 61 00
        E 120 90 31 65
        E 0 90 49 65
        E 0 90 61 65
        E 120 80 31 00
        E 0 80 49 00
        E 0 80 61 00
        E 120 90 19 65
        E 0 90 31 65
        E 0 90 49 65
        E 0 90 61 65
        E 120 80 19 00
        E 0 80 31 00
        E 0 80 49 00
        E 0 80 61 00
        E 120 90 31 65
        E 0 90 49 65
        E 0 90 61 65
        E 120 80 31 00
        E 0 80 49 00
        E 0 80 61 00
        E 120 90 19 65
        E 0 90 31 65
        E 0 90 49 65
        E 0 90 61 65
        E 120 80 19 00
        E 0 80 31 00
        E 0 80 49 00
        E 0 80 61 00
        E 120 90 31 65
        E 0 90 49 65
        E 0 90 61 65
        E 120 80 31 00
        E 0 80 49 00
        E 0 80 61 00
        E 120 90 19 65
        E 0 90 31 65
        E 0 90 49 65
        E 0 90 61 65
        E 120 80 19 00
        E 0 80 31 00
        E 0 80 49 00
        E 0 80 61 00
        E 120 90 31 65
        E 0 90 49 65
        E 0 90 61 65
        E 120 80 31 00
        E 0 80 49 00
        E 0 80 61 00
        E 120 90 19 65
        E 0 90 31 65
        E 0 90 49 65
        E 0 90 61 65
        E 120 80 19 00
        E 0 80 31 00
        E 0 80 49 00
        E 0 80 61 00
        E 120 90 31 65
        E 0 90 49 65
        E 0 90 61 65
        E 120 80 31 00
        E 0 80 49 00
        E 0 80 61 00
        E 120 90 19 65
        E 0 90 31 65
        E 0 90 49 65
        E 0 90 61 65
        E 120 80 19 00
        E 0 80 31 00
        E 0 80 49 00
        E 0 80 61 00
        E 120 90 31 65
        E 0 90 49 65
        E 0 90 61 65
        E 120 80 31 00
        E 0 80 49 00
        E 0 80 61 00
        E 120 90 19 65
        E 0 90 31 65
        E 0 90 49 65
        E 0 90 61 65
        E 120 80 19 00
        E 0 80 31 00
        E 0 80 49 00
        E 0 80 61 00
        E 120 90 31 65
        E 0 90 49 65
        E 0 90 61 65
        E 120 80 31 00
        E 0 80 49 00
        E 0 80 61 00
        E 120 90 19 65
        E 0 90 31 65
        E 0 90 49 65
        E 0 90 61 65
        E 120 80 19 00
        E 0 80 31 00
        E 0 80 49 00
        E 0 80 61 00
        E 120 90 31 65
        E 0 90 49 65
        E 0 90 61 65
        E 120 80 31 00
        E 0 80 49 00
        E 0 80 61 00
        E 120 90 19 65
        E 0 90 31 65
        E 0 90 49 65
        E 0 90 61 65
        E 120 80 19 00
        E 0 80 31 00
        E 0 80 49 00
        E 0 80 61 00
        E 120 90 31 65
        E 0 90 49 65
        E 0 90 61 65
        E 120 80 31 00
        E 0 80 49 00
        E 0 80 61 00
        E 120 90 19 65
        E 0 90 31 65
        E 0 90 49 65
        E 0 90 61 65
        E 120 80 19 00
        E 0 80 31 00
        E 0 80 49 00
        E 0 80 61 00
        E 120 90 31 65
        E 0 90 49 65
        E 0 90 61 65
        E 120 80 31 00
        E 0 80 49 00
        E 0 80 61 00
        E 120 90 19 65
        E 0 90 31 65
        E 0 90 49 65
        E 0 90 61 65
        E 120 80 19 00
        E 0 80 31 00
        E 0 80 49 00
        E 0 80 61 00
        E 120 90 31 65
        E 0 90 49 65
        E 0 90 61 65
        E 120 80 31 00
        E 0 80 49 00
        E 0 80 61 00
        E 120 90 19 65
        E 0 90 31 65
        E 0 90 49 65
        E 0 90 61 65
        E 120 80 19 00
        E 0 80 31 00
        E 0 80 49 00
        E 0 80 61 00
        E 120 90 31 65
        E 0 90 49 65
        E 0 90 61 65
        E 120 80 31 00
        E 0 80 49 00
        E 0 80 61 00
        E 120 90 19 65
        E 0 90 31 65
        E 0 90 49 65
        E 0 90 61 65
        E 120 80 19 00
        E 0 80 31 00
        E 0 80 49 00
        E 0 80 61 00
        E 120 90 31 65
        E 0 90 49 65
        E 0 90 61 65
        E 120 80 31 00
        E 0 80 49 00
        E 0 80 61 00
        E 120 90 19 65
        E 0 90 31 65
        E 0 90 49 65
        E 0 90 61 65
        E 120 80 19 00
        E 0 80 31 00
        E 0 80 49 00
        E 0 80 61 00
        E 120 90 31 65
        E 0 90 49 65
        E 0 90 61 65
        E 120 80 31 00
        E 0 80 49 00
        E 0 80 61 00
        E 120 90 31 65
        E 0 90 49 65
        E 0 90 61 65
        E 120 80 31 00
        E 0 80 49 00
        E 0 80 61 00
        E 120 90 49 65
        E 0 90 61 65
        E 120 80 49 00
        E 0 80 61 00
        E 120 90 18 65
        E 0 90 30 65
        E 0 90 48 65
        E 0 90 60 65
        E 120 80 18 00
        E 0 80 30 00
        E 0 80 48 00
        E 0 80 60 00
        E 120 90 30 65
        E 0 90 48 65
        E 0 90 60 65
        E 120 80 30 00
        E 0 80 48 00
        E 0 80 60 00
        E 120 90 18 65
        E 0 90 30 65
        E 0 90 48 65
        E 0 90 60 65
        E 120 80 18 00
        E 0 80 30 00
        E 0 80 48 00
        E 0 80 60 00
        E 120 90 30 65
        E 0 90 48 65
        E 0 90 60 65
        E 120 80 30 00
        E 0 80 48 00
        E 0 80 60 00
        E 120 90 18 65
        E 0 90 30 65
        E 0 90 48 65
        E 0 90 60 65
        E 120 80 18 00
        E 0 80 30 00
        E 0 80 48 00
        E 0 80 60 00
        E 120 90 30 65
        E 0 90 48 65
        E 0 90 60 65
        E 120 80 30 00
        E 0 80 48 00
        E 0 80 60 00
        E 120 90 30 65
        E 0 90 48 65
        E 0 90 60 65
        E 120 80 30 00
        E 0 80 48 00
        E 0 80 60 00
        E 120 90 48 65
        E 0 90 60 65
        E 120 80 48 00
        E 0 80 60 00
        E 120 90 18 68
        E 0 90 30 68
        E 0 90 48 68
        E 0 90 60 68
        E 120 80 18 00
        E 0 80 30 00
        E 0 80 48 00
        E 0 80 60 00
        E 120 90 30 68
        E 0 90 48 68
        E 0 90 60 68
        E 120 80 30 00
        E 0 80 48 00
        E 0 80 60 00
        E 120 90 18 68
        E 0 90 30 68
        E 0 90 48 68
        E 0 90 60 68
        E 120 80 18 00
        E 0 80 30 00
        E 0 80 48 00
        E 0 80 60 00
        E 120 90 30 68
        E 0 90 48 68
        E 0 90 60 68
        E 120 80 30 00
        E 0 80 48 00
        E 0 80 60 00
        E 120 90 18 68
        E 0 90 30 68
        E 0 90 48 68
        E 0 90 60 68
        E 120 80 18 00
        E 0 80 30 00
        E 0 80 48 00
        E 0 80 60 00
        E 120 90 30 68
        E 0 90 48 68
        E 0 90 60 68
        E 120 80 30 00
        E 0 80 48 00
        E 0 80 60 00
        E 120 90 30 68
        E 0 90 48 68
        E 0 90 60 68
        E 120 80 30 00
        E 0 80 48 00
        E 0 80 60 00
        E 120 90 48 68
        E 0 90 60 68
        E 120 80 48 00
        E 0 80 60 00
        E 120 90 18 65
        E 0 90 30 65
        E 0 90 48 65
        E 0 90 60 65
        E 120 80 18 00
        E 0 80 30 00
        E 0 80 48 00
        E 0 80 60 00
        E 120 90 30 65
        E 0 90 48 65
        E 0 90 60 65
        E 120 80 30 00
        E 0 80 48 00
        E 0 80 60 00
        E 120 90 18 65
        E 0 90 30 65
        E 0 90 48 65
        E 0 90 60 65
        E 120 80 18 00
        E 0 80 30 00
        E 0 80 48 00
        E 0 80 60 00
        E 120 90 30 65
        E 0 90 48 65
        E 0 90 60 65
        E 120 80 30 00
        E 0 80 48 00
        E 0 80 60 00
        E 120 90 18 65
        E 0 90 30 65
        E 0 90 48 65
        E 0 90 60 65
        E 120 80 18 00
        E 0 80 30 00
        E 0 80 48 00
        E 0 80 60 00
        E 120 90 30 65
        E 0 90 48 65
        E 0 90 60 65
        E 120 80 30 00
        E 0 80 48 00
        E 0 80 60 00
        E 120 90 30 65
        E 0 90 48 65
        E 0 90 60 65
        E 120 80 30 00
        E 0 80 48 00
        E 0 80 60 00
        E 120 90 48 65
        E 0 90 60 65
        E 120 80 48 00
        E 0 80 60 00
        E 120 90 19 65
        E 0 90 31 65
        E 0 90 49 65
        E 0 90 61 65
        E 120 80 19 00
        E 0 80 31 00
        E 0 80 49 00
        E 0 80 61 00
        E 120 90 31 65
        E 0 90 49 65
        E 0 90 61 65
        E 120 80 31 00
        E 0 80 49 00
        E 0 80 61 00
        E 120 90 19 65
        E 0 90 31 65
        E 0 90 49 65
        E 0 90 61 65
        E 120 80 19 00
        E 0 80 31 00
        E 0 80 49 00
        E 0 80 61 00
        E 120 90 31 65
        E 0 90 49 65
        E 0 90 61 65
        E 120 80 31 00
        E 0 80 49 00
        E 0 80 61 00
        E 120 90 19 65
        E 0 90 31 65
        E 0 90 49 65
        E 0 90 61 65
        E 120 80 19 00
        E 0 80 31 00
        E 0 80 49 00
        E 0 80 61 00
        E 120 90 31 65
        E 0 90 49 65
        E 0 90 61 65
        E 120 80 31 00
        E 0 80 49 00
        E 0 80 61 00
        E 120 90 31 65
        E 0 90 49 65
        E 0 90 61 65
        E 120 80 31 00
        E 0 80 49 00
        E 0 80 61 00
        E 120 90 49 65
        E 0 90 61 65
        E 120 80 49 00
        E 0 80 61 00
        E 120 90 18 65
        E 0 90 30 65
        E 0 90 48 65
        E 0 90 60 65
        E 120 80 18 00
        E 0 80 30 00
        E 0 80 48 00
        E 0 80 60 00
        E 120 90 30 65
        E 0 90 48 65
        E 0 90 60 65
        E 120 80 30 00
        E 0 80 48 00
        E 0 80 60 00
        E 120 90 18 65
        E 0 90 30 65
        E 0 90 48 65
        E 0 90 60 65
        E 120 80 18 00
        E 0 80 30 00
        E 0 80 48 00
        E 0 80 60 00
        E 120 90 30 65
        E 0 90 48 65
        E 0 90 60 65
        E 120 80 30 00
        E 0 80 48 00
        E 0 80 60 00
        E 120 90 18 65
        E 0 90 30 65
        E 0 90 48 65
        E 0 90 60 65
        E 120 80 18 00
        E 0 80 30 00
        E 0 80 48 00
        E 0 80 60 00
        E 120 90 30 65
        E 0 90 48 65
        E 0 90 60 65
        E 120 80 30 00
        E 0 80 48 00
        E 0 80 60 00
        E 120 90 30 65
        E 0 90 48 65
        E 0 90 60 65
        E 120 80 30 00
        E 0 80 48 00
        E 0 80 60 00
        E 120 90 48 65
        E 0 90 60 65
        E 120 80 48 00
        E 0 80 60 00
        E 120 90 18 68
        E 0 90 30 68
        E 0 90 48 68
        E 0 90 60 68
        E 120 80 18 00
        E 0 80 30 00
        E 0 80 48 00
        E 0 80 60 00
        E 120 90 30 68
        E 0 90 48 68
        E 0 90 60 68
        E 120 80 30 00
        E 0 80 48 00
        E 0 80 60 00
        E 120 90 18 68
        E 0 90 30 68
        E 0 90 48 68
        E 0 90 60 68
        E 120 80 18 00
        E 0 80 30 00
        E 0 80 48 00
        E 0 80 60 00
        E 120 90 30 68
        E 0 90 48 68
        E 0 90 60 68
        E 120 80 30 00
        E 0 80 48 00
        E 0 80 60 00
        E 120 90 18 68
        E 0 90 30 68
        E 0 90 48 68
        E 0 90 60 68
        E 120 80 18 00
        E 0 80 30 00
        E 0 80 48 00
        E 0 80 60 00
        E 120 90 30 68
        E 0 90 48 68
        E 0 90 60 68
        E 120 80 30 00
        E 0 80 48 00
        E 0 80 60 00
        E 120 90 30 68
        E 0 90 48 68
        E 0 90 60 68
        E 120 80 30 00
        E 0 80 48 00
        E 0 80 60 00
        E 120 90 48 68
        E 0 90 60 68
        E 120 80 48 00
        E 0 80 60 00
        E 120 90 18 65
        E 0 90 30 65
        E 0 90 48 65
        E 0 90 60 65
        E 0 90 74 60
        E 120 80 18 00
        E 0 80 30 00
        E 0 80 48 00
        E 0 80 60 00
        E 120 90 30 65
        E 0 90 48 65
        E 0 90 60 65
        E 120 80 30 00
        E 0 80 48 00
        E 0 80 60 00
        E 120 90 18 65
        E 0 90 30 65
        E 0 90 48 65
        E 0 90 60 65
        E 120 80 18 00
        E 0 80 30 00
        E 0 80 48 00
        E 0 80 60 00
        E 120 90 30 65
        E 0 90 48 65
        E 0 90 60 65
        E 120 80 30 00
        E 0 80 48 00
        E 0 80 60 00
        E 120 90 18 65
        E 0 90 30 65
        E 0 90 48 65
        E 0 90 60 65
        E 120 80 18 00
        E 0 80 30 00
        E 0 80 48 00
        E 0 80 60 00
        E 120 90 30 65
        E 0 90 48 65
        E 0 90 60 65
        E 120 80 30 00
        E 0 80 48 00
        E 0 80 60 00
        E 120 90 30 65
        E 0 90 48 65
        E 0 90 60 65
        E 120 80 30 00
        E 0 80 48 00
        E 0 80 60 00
        E 120 90 48 65
        E 0 90 60 65
        E 120 80 48 00
        E 0 80 60 00
        E 120 90 19 65
        E 0 90 31 65
        E 0 90 49 65
        E 0 90 61 65
        E 120 80 74 00
        E 0 80 19 00
        E 0 80 31 00
        E 0 80 49 00
        E 0 80 61 00
        E 120 90 31 65
        E 0 90 49 65
        E 0 90 61 65
        E 120 80 31 00
        E 0 80 49 00
        E 0 80 61 00
        E 120 90 19 65
        E 0 90 31 65
        E 0 90 49 65
        E 0 90 61 65
        E 120 80 19 00
        E 0 80 31 00
        E 0 80 49 00
        E 0 80 61 00
        E 120 90 31 65
        E 0 90 49 65
        E 0 90 61 65
        E 120 80 31 00
        E 0 80 49 00
        E 0 80 61 00
        E 120 90 19 65
        E 0 90 31 65
        E 0 90 49 65
        E 0 90 61 65
        E 120 80 19 00
        E 0 80 31 00
        E 0 80 49 00
        E 0 80 61 00
        E 120 90 31 65
        E 0 90 49 65
        E 0 90 61 65
        E 120 80 31 00
        E 0 80 49 00
        E 0 80 61 00
        E 120 90 31 65
        E 0 90 49 65
        E 0 90 61 65
        E 120 80 31 00
        E 0 80 49 00
        E 0 80 61 00
        E 120 90 49 65
        E 0 90 61 65
        E 120 80 49 00
        E 0 80 61 00
        E 120 90 18 65
        E 0 90 30 65
        E 0 90 48 65
        E 0 90 60 65
        E 120 80 18 00
        E 0 80 30 00
        E 0 80 48 00
        E 0 80 60 00
        E 120 90 30 65
        E 0 90 48 65
        E 0 90 60 65
        E 120 80 30 00
        E 0 80 48 00
        E 0 80 60 00
        E 120 90 18 65
        E 0 90 30 65
        E 0 90 48 65
        E 0 90 60 65
        E 120 80 18 00
        E 0 80 30 00
        E 0 80 48 00
        E 0 80 60 00
        E 120 90 30 65
        E 0 90 48 65
        E 0 90 60 65
        E 120 80 30 00
        E 0 80 48 00
        E 0 80 60 00
        E 120 90 18 65
        E 0 90 30 65
        E 0 90 48 65
        E 0 90 60 65
        E 120 80 18 00
        E 0 80 30 00
        E 0 80 48 00
        E 0 80 60 00
        E 120 90 30 65
        E 0 90 48 65
        E 0 90 60 65
        E 120 80 30 00
        E 0 80 48 00
        E 0 80 60 00
        E 120 90 30 65
        E 0 90 48 65
        E 0 90 60 65
        E 120 80 30 00
        E 0 80 48 00
        E 0 80 60 00
        E 120 90 48 65
        E 0 90 60 65
        E 120 80 48 00
        E 0 80 60 00
        E 120 90 18 68
        E 0 90 30 68
        E 0 90 48 68
        E 0 90 60 68
        E 120 80 18 00
        E 0 80 30 00
        E 0 80 48 00
        E 0 80 60 00
        E 120 90 30 68
        E 0 90 48 68
        E 0 90 60 68
        E 120 80 30 00
        E 0 80 48 00
        E 0 80 60 00
        E 120 90 18 68
        E 0 90 30 68
        E 0 90 48 68
        E 0 90 60 68
        E 120 80 18 00
        E 0 80 30 00
        E 0 80 48 00
        E 0 80 60 00
        E 120 90 30 68
        E 0 90 48 68
        E 0 90 60 68
        E 120 80 30 00
        E 0 80 48 00
        E 0 80 60 00
        E 120 90 18 68
        E 0 90 30 68
        E 0 90 48 68
        E 0 90 60 68
        E 120 80 18 00
        E 0 80 30 00
        E 0 80 48 00
        E 0 80 60 00
        E 120 90 30 68
        E 0 90 48 68
        E 0 90 60 68
        E 120 80 30 00
        E 0 80 48 00
        E 0 80 60 00
        E 120 90 30 68
        E 0 90 48 68
        E 0 90 60 68
        E 120 80 30 00
        E 0 80 48 00
        E 0 80 60 00
        E 120 90 48 68
        E 0 90 60 68
        E 120 80 48 00
        E 0 80 60 00
        E 120 90 18 65
        E 0 90 30 65
        E 0 90 48 65
        E 0 90 60 65
        E 120 80 18 00
        E 0 80 30 00
        E 0 80 48 00
        E 0 80 60 00
        E 120 90 30 65
        E 0 90 48 65
        E 0 90 60 65
        E 120 80 30 00
        E 0 80 48 00
        E 0 80 60 00
        E 120 90 18 65
        E 0 90 30 65
        E 0 90 48 65
        E 0 90 60 65
        E 120 80 18 00
        E 0 80 30 00
        E 0 80 48 00
        E 0 80 60 00
        E 120 90 30 65
        E 0 90 48 65
        E 0 90 60 65
        E 120 80 30 00
        E 0 80 48 00
        E 0 80 60 00
        E 120 90 18 65
        E 0 90 30 65
        E 0 90 48 65
        E 0 90 60 65
        E 120 80 18 00
        E 0 80 30 00
        E 0 80 48 00
        E 0 80 60 00
        E 120 90 30 65
        E 0 90 48 65
        E 0 90 60 65
        E 120 80 30 00
        E 0 80 48 00
        E 0 80 60 00
        E 120 90 30 65
        E 0 90 48 65
        E 0 90 60 65
        E 120 80 30 00
        E 0 80 48 00
        E 0 80 60 00
        E 120 90 48 65
        E 0 90 60 65
        E 120 80 48 00
        E 0 80 60 00
        E 120 90 19 65
        E 0 90 31 65
        E 0 90 49 65
        E 0 90 61 65
        E 120 80 19 00
        E 0 80 31 00
        E 0 80 49 00
        E 0 80 61 00
        E 120 90 31 65
        E 0 90 49 65
        E 0 90 61 65
        E 120 80 31 00
        E 0 80 49 00
        E 0 80 61 00
        E 120 90 19 65
        E 0 90 31 65
        E 0 90 49 65
        E 0 90 61 65
        E 120 80 19 00
        E 0 80 31 00
        E 0 80 49 00
        E 0 80 61 00
        E 120 90 31 65
        E 0 90 49 65
        E 0 90 61 65
        E 120 80 31 00
        E 0 80 49 00
        E 0 80 61 00
        E 120 90 19 65
        E 0 90 31 65
        E 0 90 49 65
        E 0 90 61 65
        E 120 80 19 00
        E 0 80 31 00
        E 0 80 49 00
        E 0 80 61 00
        E 120 90 31 65
        E 0 90 49 65
        E 0 90 61 65
        E 120 80 31 00
        E 0 80 49 00
        E 0 80 61 00
        E 120 90 31 65
        E 0 90 49 65
        E 0 90 61 65
        E 120 80 31 00
        E 0 80 49 00
        E 0 80 61 00
        E 120 90 49 65
        E 0 90 61 65
        E 120 80 49 00
        E 0 80 61 00
        E 120 90 18 65
        E 0 90 30 65
        E 0 90 48 65
        E 0 90 60 65
        E 120 80 18 00
        E 0 80 30 00
        E 0 80 48 00
        E 0 80 60 00
        E 120 90 30 65
        E 0 90 48 65
        E 0 90 60 65
        E 120 80 30 00
        E 0 80 48 00
        E 0 80 60 00
        E 120 90 18 65
        E 0 90 30 65
        E 0 90 48 65
        E 0 90 60 65
        E 120 80 18 00
        E 0 80 30 00
        E 0 80 48 00
        E 0 80 60 00
        E 120 90 30 65
        E 0 90 48 65
        E 0 90 60 65
        E 120 80 30 00
        E 0 80 48 00
        E 0 80 60 00
        E 120 90 18 65
        E 0 90 30 65
        E 0 90 48 65
        E 0 90 60 65
        E 120 80 18 00
        E 0 80 30 00
        E 0 80 48 00
        E 0 80 60 00
        E 120 90 30 65
        E 0 90 48 65
        E 0 90 60 65
        E 120 80 30 00
        E 0 80 48 00
        E 0 80 60 00
        E 120 90 30 65
        E 0 90 48 65
        E 0 90 60 65
        E 120 80 30 00
        E 0 80 48 00
        E 0 80 60 00
        E 120 90 48 65
        E 0 90 60 65
        E 120 80 48 00
        E 0 80 60 00
        E 120 90 18 68
        E 0 90 30 68
        E 0 90 48 68
        E 0 90 60 68
        E 120 80 18 00
        E 0 80 30 00
        E 0 80 48 00
        E 0 80 60 00
        E 120 90 30 68
        E 0 90 48 68
        E 0 90 60 68
        E 120 80 30 00
        E 0 80 48 00
        E 0 80 60 00
        E 120 90 18 68
        E 0 90 30 68
        E 0 90 48 68
        E 0 90 60 68
        E 120 80 18 00
        E 0 80 30 00
        E 0 80 48 00
        E 0 80 60 00
        E 120 90 30 68
        E 0 90 48 68
        E 0 90 60 68
        E 120 80 30 00
        E 0 80 48 00
        E 0 80 60 00
        E 120 90 18 68
        E 0 90 30 68
        E 0 90 48 68
        E 0 90 60 68
        E 120 80 18 00
        E 0 80 30 00
        E 0 80 48 00
        E 0 80 60 00
        E 120 90 30 68
        E 0 90 48 68
        E 0 90 60 68
        E 120 80 30 00
        E 0 80 48 00
        E 0 80 60 00
        E 120 90 30 68
        E 0 90 48 68
        E 0 90 60 68
        E 120 80 30 00
        E 0 80 48 00
        E 0 80 60 00
        E 120 90 48 68
        E 0 90 60 68
        E 120 80 48 00
        E 0 80 60 00
        E 120 90 18 65
        E 0 90 30 65
        E 0 90 48 65
        E 0 90 60 65
        E 120 80 18 00
        E 0 80 30 00
        E 0 80 48 00
        E 0 80 60 00
        E 120 90 30 65
        E 0 90 48 65
        E 0 90 60 65
        E 120 80 30 00
        E 0 80 48 00
        E 0 80 60 00
        E 120 90 18 65
        E 0 90 30 65
        E 0 90 48 65
        E 0 90 60 65
        E 120 80 18 00
        E 0 80 30 00
        E 0 80 48 00
        E 0 80 60 00
        E 120 90 30 65
        E 0 90 48 65
        E 0 90 60 65
        E 120 80 30 00
        E 0 80 48 00
        E 0 80 60 00
        E 120 90 18 65
        E 0 90 30 65
        E 0 90 48 65
        E 0 90 60 65
        E 120 80 18 00
        E 0 80 30 00
        E 0 80 48 00
        E 0 80 60 00
        E 120 90 30 65
        E 0 90 48 65
        E 0 90 60 65
        E 120 80 30 00
        E 0 80 48 00
        E 0 80 60 00
        E 120 90 30 65
        E 0 90 48 65
        E 0 90 60 65
        E 120 80 30 00
        E 0 80 48 00
        E 0 80 60 00
        E 120 90 48 65
        E 0 90 60 65
        E 120 80 48 00
        E 0 80 60 00
        E 120 90 19 65
        E 0 90 31 65
        E 0 90 49 65
        E 0 90 61 65
        E 0 90 74 60
        E 120 80 19 00
        E 0 80 31 00
        E 0 80 49 00
        E 0 80 61 00
        E 120 90 31 65
        E 0 90 49 65
        E 0 90 61 65
        E 120 80 31 00
        E 0 80 49 00
        E 0 80 61 00
        E 120 90 19 65
        E 0 90 31 65
        E 0 90 49 65
        E 0 90 61 65
        E 120 80 19 00
        E 0 80 31 00
        E 0 80 49 00
        E 0 80 61 00
        E 120 90 31 65
        E 0 90 49 65
        E 0 90 61 65
        E 120 80 31 00
        E 0 80 49 00
        E 0 80 61 00
        E 120 90 19 65
        E 0 90 31 65
        E 0 90 49 65
        E 0 90 61 65
        E 120 80 19 00
        E 0 80 31 00
        E 0 80 49 00
        E 0 80 61 00
        E 120 90 31 65
        E 0 90 49 65
        E 0 90 61 65
        E 120 80 31 00
        E 0 80 49 00
        E 0 80 61 00
        E 120 90 31 65
        E 0 90 49 65
        E 0 90 61 65
        E 120 80 31 00
        E 0 80 49 00
        E 0 80 61 00
        E 120 90 49 65
        E 0 90 61 65
        E 120 80 49 00
        E 0 80 61 00
        E 120 80 74 00
        E 0 90 18 65
        E 0 90 30 65
        E 0 90 48 65
        E 0 90 60 65
        E 120 80 18 00
        E 0 80 30 00
        E 0 80 48 00
        E 0 80 60 00
        E 120 90 30 65
        E 0 90 48 65
        E 0 90 60 65
        E 120 80 30 00
        E 0 80 48 00
        E 0 80 60 00
        E 120 90 18 65
        E 0 90 30 65
        E 0 90 48 65
        E 0 90 60 65
        E 120 80 18 00
        E 0 80 30 00
        E 0 80 48 00
        E 0 80 60 00
        E 120 90 30 65
        E 0 90 48 65
        E 0 90 60 65
        E 120 80 30 00
        E 0 80 48 00
        E 0 80 60 00
        E 120 90 18 65
        E 0 90 30 65
        E 0 90 48 65
        E 0 90 60 65
        E 120 80 18 00
        E 0 80 30 00
        E 0 80 48 00
        E 0 80 60 00
        E 120 90 30 65
        E 0 90 48 65
        E 0 90 60 65
        E 120 80 30 00
        E 0 80 48 00
        E 0 80 60 00
        E 120 90 30 65
        E 0 90 48 65
        E 0 90 60 65
        E 120 80 30 00
        E 0 80 48 00
        E 0 80 60 00
        E 120 90 48 65
        E 0 90 60 65
        E 120 80 48 00
        E 0 80 60 00
        E 120 90 18 68
        E 0 90 30 68
        E 0 90 48 68
        E 0 90 60 68
        E 120 80 18 00
        E 0 80 30 00
        E 0 80 48 00
        E 0 80 60 00
        E 120 90 30 68
        E 0 90 48 68
        E 0 90 60 68
        E 120 80 30 00
        E 0 80 48 00
        E 0 80 60 00
        E 120 90 18 68
        E 0 90 30 68
        E 0 90 48 68
        E 0 90 60 68
        E 120 80 18 00
        E 0 80 30 00
        E 0 80 48 00
        E 0 80 60 00
        E 120 90 30 68
        E 0 90 48 68
        E 0 90 60 68
        E 120 80 30 00
        E 0 80 48 00
        E 0 80 60 00
        E 120 90 18 68
        E 0 90 30 68
        E 0 90 48 68
        E 0 90 60 68
        E 120 80 18 00
        E 0 80 30 00
        E 0 80 48 00
        E 0 80 60 00
        E 120 90 30 68
        E 0 90 48 68
        E 0 90 60 68
        E 120 80 30 00
        E 0 80 48 00
        E 0 80 60 00
        E 120 90 30 68
        E 0 90 48 68
        E 0 90 60 68
        E 120 80 30 00
        E 0 80 48 00
        E 0 80 60 00
        E 120 90 48 68
        E 0 90 60 68
        E 120 80 48 00
        E 0 80 60 00
        E 120 90 18 65
        E 0 90 30 65
        E 0 90 48 65
        E 0 90 60 65
        E 120 80 18 00
        E 0 80 30 00
        E 0 80 48 00
        E 0 80 60 00
        E 120 90 30 65
        E 0 90 48 65
        E 0 90 60 65
        E 120 80 30 00
        E 0 80 48 00
        E 0 80 60 00
        E 120 90 18 65
        E 0 90 30 65
        E 0 90 48 65
        E 0 90 60 65
        E 120 80 18 00
        E 0 80 30 00
        E 0 80 48 00
        E 0 80 60 00
        E 120 90 30 65
        E 0 90 48 65
        E 0 90 60 65
        E 120 80 30 00
        E 0 80 48 00
        E 0 80 60 00
        E 120 90 18 65
        E 0 90 30 65
        E 0 90 48 65
        E 0 90 60 65
        E 120 80 18 00
        E 0 80 30 00
        E 0 80 48 00
        E 0 80 60 00
        E 120 90 30 65
        E 0 90 48 65
        E 0 90 60 65
        E 120 80 30 00
        E 0 80 48 00
        E 0 80 60 00
        E 120 90 30 65
        E 0 90 48 65
        E 0 90 60 65
        E 120 80 30 00
        E 0 80 48 00
        E 0 80 60 00
        E 120 90 48 65
        E 0 90 60 65
        E 120 80 48 00
        E 0 80 60 00
        E 120 90 19 65
        E 0 90 31 65
        E 0 90 49 65
        E 0 90 61 65
        E 120 80 19 00
        E 0 80 31 00
        E 0 80 49 00
        E 0 80 61 00
        E 120 90 31 65
        E 0 90 49 65
        E 0 90 61 65
        E 120 80 31 00
        E 0 80 49 00
        E 0 80 61 00
        E 120 90 19 65
        E 0 90 31 65
        E 0 90 49 65
        E 0 90 61 65
        E 120 80 19 00
        E 0 80 31 00
        E 0 80 49 00
        E 0 80 61 00
        E 120 90 31 65
        E 0 90 49 65
        E 0 90 61 65
        E 120 80 31 00
        E 0 80 49 00
        E 0 80 61 00
        E 120 90 19 65
        E 0 90 31 65
        E 0 90 49 65
        E 0 90 61 65
        E 120 80 19 00
        E 0 80 31 00
        E 0 80 49 00
        E 0 80 61 00
        E 120 90 31 65
        E 0 90 49 65
        E 0 90 61 65
        E 120 80 31 00
        E 0 80 49 00
        E 0 80 61 00
        E 120 90 31 65
        E 0 90 49 65
        E 0 90 61 65
        E 120 80 31 00
        E 0 80 49 00
        E 0 80 61 00
        E 120 90 49 65
        E 0 90 61 65
        E 120 80 49 00
        E 0 80 61 00
        E 120 90 18 65
        E 0 90 30 65
        E 0 90 48 65
        E 0 90 60 65
        E 120 80 18 00
        E 0 80 30 00
        E 0 80 48 00
        E 0 80 60 00
        E 120 90 30 65
        E 0 90 48 65
        E 0 90 60 65
        E 120 80 30 00
        E 0 80 48 00
        E 0 80 60 00
        E 120 90 18 65
        E 0 90 30 65
        E 0 90 48 65
        E 0 90 60 65
        E 120 80 18 00
        E 0 80 30 00
        E 0 80 48 00
        E 0 80 60 00
        E 120 90 30 65
        E 0 90 48 65
        E 0 90 60 65
        E 120 80 30 00
        E 0 80 48 00
        E 0 80 60 00
        E 120 90 18 65
        E 0 90 30 65
        E 0 90 48 65
        E 0 90 60 65
        E 120 80 18 00
        E 0 80 30 00
        E 0 80 48 00
        E 0 80 60 00
        E 120 90 30 65
        E 0 90 48 65
        E 0 90 60 65
        E 120 80 30 00
        E 0 80 48 00
        E 0 80 60 00
        E 120 90 30 65
        E 0 90 48 65
        E 0 90 60 65
        E 120 80 30 00
        E 0 80 48 00
        E 0 80 60 00
        E 120 90 48 65
        E 0 90 60 65
        E 120 80 48 00
        E 0 80 60 00
        E 120 90 18 68
        E 0 90 30 68
        E 0 90 48 68
        E 0 90 60 68
        E 120 80 18 00
        E 0 80 30 00
        E 0 80 48 00
        E 0 80 60 00
        E 120 90 30 68
        E 0 90 48 68
        E 0 90 60 68
        E 120 80 30 00
        E 0 80 48 00
        E 0 80 60 00
        E 120 90 18 68
        E 0 90 30 68
        E 0 90 48 68
        E 0 90 60 68
        E 120 80 18 00
        E 0 80 30 00
        E 0 80 48 00
        E 0 80 60 00
        E 120 90 30 68
        E 0 90 48 68
        E 0 90 60 68
        E 120 80 30 00
        E 0 80 48 00
        E 0 80 60 00
        E 120 90 18 68
        E 0 90 30 68
        E 0 90 48 68
        E 0 90 60 68
        E 120 80 18 00
        E 0 80 30 00
        E 0 80 48 00
        E 0 80 60 00
        E 120 90 30 68
        E 0 90 48 68
        E 0 90 60 68
        E 120 80 30 00
        E 0 80 48 00
        E 0 80 60 00
        E 120 90 30 68
        E 0 90 48 68
        E 0 90 60 68
        E 120 80 30 00
        E 0 80 48 00
        E 0 80 60 00
        E 120 90 48 68
        E 0 90 60 68
        E 120 80 48 00
        E 0 80 60 00
        E 120 90 18 65
        E 0 90 30 65
        E 0 90 48 65
        E 0 90 60 65
        E 120 80 18 00
        E 0 80 30 00
        E 0 80 48 00
        E 0 80 60 00
        E 120 90 30 65
        E 0 90 48 65
        E 0 90 60 65
        E 120 80 30 00
        E 0 80 48 00
        E 0 80 60 00
        E 120 90 18 65
        E 0 90 30 65
        E 0 90 48 65
        E 0 90 60 65
        E 120 80 18 00
        E 0 80 30 00
        E 0 80 48 00
        E 0 80 60 00
        E 120 90 30 65
        E 0 90 48 65
        E 0 90 60 65
        E 120 80 30 00
        E 0 80 48 00
        E 0 80 60 00
        E 120 90 18 65
        E 0 90 30 65
        E 0 90 48 65
        E 0 90 60 65
        E 120 80 18 00
        E 0 80 30 00
        E 0 80 48 00
        E 0 80 60 00
        E 120 90 30 65
        E 0 90 48 65
        E 0 90 60 65
        E 120 80 30 00
        E 0 80 48 00
        E 0 80 60 00
        E 120 90 30 65
        E 0 90 48 65
        E 0 90 60 65
        E 120 80 30 00
        E 0 80 48 00
        E 0 80 60 00
        E 120 90 48 65
        E 0 90 60 65
        E 120 80 48 00
        E 0 80 60 00
        E 120 90 19 65
        E 0 90 31 65
        E 0 90 49 65
        E 0 90 61 65
        E 120 80 19 00
        E 0 80 31 00
        E 0 80 49 00
        E 0 80 61 00
        E 120 90 31 65
        E 0 90 49 65
        E 0 90 61 65
        E 120 80 31 00
        E 0 80 49 00
        E 0 80 61 00
        E 120 90 19 65
        E 0 90 31 65
        E 0 90 49 65
        E 0 90 61 65
        E 120 80 19 00
        E 0 80 31 00
        E 0 80 49 00
        E 0 80 61 00
        E 120 90 31 65
        E 0 90 49 65
        E 0 90 61 65
        E 120 80 31 00
        E 0 80 49 00
        E 0 80 61 00
        E 120 90 19 65
        E 0 90 31 65
        E 0 90 49 65
        E 0 90 61 65
        E 120 80 19 00
        E 0 80 31 00
        E 0 80 49 00
        E 0 80 61 00
        E 120 90 31 65
        E 0 90 49 65
        E 0 90 61 65
        E 120 80 31 00
        E 0 80 49 00
        E 0 80 61 00
        E 120 90 31 65
        E 0 90 49 65
        E 0 90 61 65
        E 120 80 31 00
        E 0 80 49 00
        E 0 80 61 00
        E 120 90 49 65
        E 0 90 61 65
        E 120 80 49 00
        E 0 80 61 00
        E 120 90 18 65
        E 0 90 30 65
        E 0 90 48 65
        E 0 90 60 65
        E 120 80 18 00
        E 0 80 30 00
        E 0 80 48 00
        E 0 80 60 00
        E 120 90 30 65
        E 0 90 48 65
        E 0 90 60 65
        E 120 80 30 00
        E 0 80 48 00
        E 0 80 60 00
        E 120 90 18 65
        E 0 90 30 65
        E 0 90 48 65
        E 0 90 60 65
        E 120 80 18 00
        E 0 80 30 00
        E 0 80 48 00
        E 0 80 60 00
        E 120 90 30 65
        E 0 90 48 65
        E 0 90 60 65
        E 120 80 30 00
        E 0 80 48 00
        E 0 80 60 00
        E 120 90 18 65
        E 0 90 30 65
        E 0 90 48 65
        E 0 90 60 65
        E 120 80 18 00
        E 0 80 30 00
        E 0 80 48 00
        E 0 80 60 00
        E 120 90 30 65
        E 0 90 48 65
        E 0 90 60 65
        E 120 80 30 00
        E 0 80 48 00
        E 0 80 60 00
        E 120 90 30 65
        E 0 90 48 65
        E 0 90 60 65
        E 120 80 30 00
        E 0 80 48 00
        E 0 80 60 00
        E 120 90 48 65
        E 0 90 60 65
        E 120 80 48 00
        E 0 80 60 00
        E 120 90 18 68
        E 0 90 30 68
        E 0 90 48 68
        E 0 90 60 68
        E 120 80 18 00
        E 0 80 30 00
        E 0 80 48 00
        E 0 80 60 00
        E 120 90 30 68
        E 0 90 48 68
        E 0 90 60 68
        E 120 80 30 00
        E 0 80 48 00
        E 0 80 60 00
        E 120 90 18 68
        E 0 90 30 68
        E 0 90 48 68
        E 0 90 60 68
        E 120 80 18 00
        E 0 80 30 00
        E 0 80 48 00
        E 0 80 60 00
        E 120 90 30 68
        E 0 90 48 68
        E 0 90 60 68
        E 120 80 30 00
        E 0 80 48 00
        E 0 80 60 00
        E 120 90 18 68
        E 0 90 30 68
        E 0 90 48 68
        E 0 90 60 68
        E 120 80 18 00
        E 0 80 30 00
        E 0 80 48 00
        E 0 80 60 00
        E 120 90 30 68
        E 0 90 48 68
        E 0 90 60 68
        E 120 80 30 00
        E 0 80 48 00
        E 0 80 60 00
        E 120 90 30 68
        E 0 90 48 68
        E 0 90 60 68
        E 120 80 30 00
        E 0 80 48 00
        E 0 80 60 00
        E 120 90 48 68
        E 0 90 60 68
        E 120 80 48 00
        E 0 80 60 00
        E 120 90 18 65
        E 0 90 30 65
        E 0 90 48 65
        E 0 90 60 65
        E 120 80 18 00
        E 0 80 30 00
        E 0 80 48 00
        E 0 80 60 00
        E 120 90 30 65
        E 0 90 48 65
        E 0 90 60 65
        E 120 80 30 00
        E 0 80 48 00
        E 0 80 60 00
        E 120 90 18 65
        E 0 90 30 65
        E 0 90 48 65
        E 0 90 60 65
        E 120 80 18 00
        E 0 80 30 00
        E 0 80 48 00
        E 0 80 60 00
        E 120 90 30 65
        E 0 90 48 65
        E 0 90 60 65
        E 120 80 30 00
        E 0 80 48 00
        E 0 80 60 00
        E 120 90 18 65
        E 0 90 30 65
        E 0 90 48 65
        E 0 90 60 65
        E 120 80 18 00
        E 0 80 30 00
        E 0 80 48 00
        E 0 80 60 00
        E 120 90 30 65
        E 0 90 48 65
        E 0 90 60 65
        E 120 80 30 00
        E 0 80 48 00
        E 0 80 60 00
        E 120 90 30 65
        E 0 90 48 65
        E 0 90 60 65
        E 120 80 30 00
        E 0 80 48 00
        E 0 80 60 00
        E 120 90 48 65
        E 0 90 60 65
        E 120 80 48 00
        E 0 80 60 00
        E 120 90 19 65
        E 0 90 31 65
        E 0 90 49 65
        E 0 90 61 65
        E 1919 80 19 00
        E 0 80 31 00
        E 0 80 49 00
        E 0 80 61 00
        E 9601 b0 7b 00
        GUID {9401C499-410F-4F06-B55A-61F19B8A6A19}
        IGNTEMPO 0 120.00000000 4 4
        SRCCOLOR 14
        VELLANE 132 128 60
        COLORMAP "C:\Program Files\REAPER (x64)\Data\color_maps\rockband_guitarbass.png"
        CFGEDITVIEW -18721.282280 3.743333 7 12 0 0 0
        CFGEDIT 1 1 0 1 1 0 1 1 1 1 1 0.12500000 53 44 1253 718 0 2 1 1 0.00000000 0 1 1 0 0.500000 0 0 1.000000 64
        KEYSNAP 0 7 "102030050700" 0 "Pentatonic"
        EVTFILTER 0 -1 -1 -1 -1 0 1 0 0 -1.00000000 -1.00000000
      >
    >
  >
  <TRACK '{62302120-5D50-47EF-8D69-BA05AAF095B0}'
    NAME "EVENTS"
    PEAKCOL 16576
    BEAT -1
    AUTOMODE 0
    VOLPAN 1.00000000000000 0.00000000000000 -1.00000000000000 -1.00000000000000 1.00000000000000
    MUTESOLO 0 0 0
    IPHASE 0
    ISBUS 0 0
    BUSCOMP 0 0
    SHOWINMIX 1 0.666700 0.500000 1 0.500000 -1 -1 -1
    FREEMODE 0
    SEL 0
    REC 0 0 0 0 0 0 0
    VU 2
    TRACKHEIGHT 0 0
    INQ 0 0 0 0.5000000000 100 0 0 100
    NCHAN 2
    FX 1
    TRACKID {62302120-5D50-47EF-8D69-BA05AAF095B0}
    PERF 0
    MIDIOUT -1
    <MIDINOTENAMES
      0 26 "Hi-Hat"
      0 25 "Snare"
      0 24 "Kick"
    >
    MAINSEND 1 0
    <FXCHAIN
      SHOW 0
      LASTSEL 0
      DOCKED 0
    >
    <ITEM
      POSITION 0.00000000000000
      SNAPOFFS 0.00000000000000
      LENGTH 300.00000000000000
      LOOP 0
      ALLTAKES 0
      SEL 0
      FADEIN 1 0.000000 0.000000 1 0
      FADEOUT 1 0.000000 0.000000 1 0
      MUTE 0
      IGUID {F2650905-858D-4BD4-8A05-09CCD7E30FDD}
      IID 15
      NAME "EVENTS"
      VOLPAN 1.000000 0.000000 1.000000 -1.000000
      SOFFS 0.00000000000000 0.00000000000000
      PLAYRATE 1.00000000000000 1 0.00000000000000 -1
      CHANMODE 0
      GUID {2803FC4D-D4AE-4175-9C87-FCBAAE8DFDED}
      <SOURCE MIDI
        HASDATA 1 480 QN
        POOLEDEVTS {9B947B56-F553-459B-814F-5455B6BF4F89}
        <X 0 0
          /wNFVkVOVFM=
        >
        <X 7680 0
          /wFbcHJjX2ludHJvXQ==
        >
        <X 7680 0
          /wFbcHJjX2JhbmRfZW50ZXJzXQ==
        >
        <X 480 0
          /wFbbXVzaWNfc3RhcnRd
        >
        <X 14880 0
          /wFbcHJjX2Nob3J1c18xXQ==
        >
        <X 30720 0
          /wFbcHJjX3ZlcnNlXzFd
        >
        <X 30720 0
          /wFbcHJjX2Nob3J1c18yXQ==
        >
        <X 30720 0
          /wFbcHJjX3ZlcnNlXzJd
        >
        <X 30720 0
          /wFbcHJjX2Nob3J1c18zXQ==
        >
        <X 30720 0
          /wFbcHJjX2JyZWFrX2Fd
        >
        <X 38400 0
          /wFbcHJjX2JyZWFrX2Jd
        >
        <X 15360 0
          /wFbcHJjX2Nob3J1c180XQ==
        >
        <X 42720 0
          /wFbbXVzaWNfZW5kXQ==
        >
        <X 7195 0
          /wFbZW5kXQ==
        >
        E 5 b0 7b 00
        GUID {24B7E819-E58D-433A-AF8A-B104778AD833}
        IGNTEMPO 0 120.00000000 4 4
        SRCCOLOR 15
        VELLANE 132 128 60
        COLORMAP "C:\Program Files\REAPER (x64)\Data\color_maps\rockband_guitarbass.png"
        CFGEDITVIEW -18721.282280 3.743333 0 48 0 0 0
        CFGEDIT 1 1 0 1 1 0 1 1 1 1 1 0.12500000 53 44 1253 718 0 2 1 1 0.00000000 0 1 1 0 0.500000 0 0 1.000000 64
        KEYSNAP 0 7 "102030050700" 0 "Pentatonic"
        EVTFILTER 0 -1 -1 -1 -1 0 1 0 0 -1.00000000 -1.00000000
      >
    >
  >
  <TRACK '{DE6CA5B6-875F-4D75-825F-D7A416BAA2F0}'
    NAME "BEAT"
    PEAKCOL 16576
    BEAT -1
    AUTOMODE 0
    VOLPAN 1.00000000000000 0.00000000000000 -1.00000000000000 -1.00000000000000 1.00000000000000
    MUTESOLO 0 0 0
    IPHASE 0
    ISBUS 0 0
    BUSCOMP 0 0
    SHOWINMIX 1 0.666700 0.500000 1 0.500000 -1 -1 -1
    FREEMODE 0
    SEL 0
    REC 0 0 0 0 0 0 0
    VU 2
    TRACKHEIGHT 0 0
    INQ 0 0 0 0.5000000000 100 0 0 100
    NCHAN 2
    FX 1
    TRACKID {DE6CA5B6-875F-4D75-825F-D7A416BAA2F0}
    PERF 0
    MIDIOUT -1
    <MIDINOTENAMES
      0 13 "Up Beats"
      0 12 "Downbeat"
    >
    MAINSEND 1 0
    <FXCHAIN
      SHOW 0
      LASTSEL 0
      DOCKED 0
    >
    <ITEM
      POSITION 0.00000000000000
      SNAPOFFS 0.00000000000000
      LENGTH 300.00000000000000
      LOOP 0
      ALLTAKES 0
      SEL 0
      FADEIN 1 0.000000 0.000000 1 0
      FADEOUT 1 0.000000 0.000000 1 0
      MUTE 0
      IGUID {B3B7589E-1641-40FE-B222-AEE91F5A4815}
      IID 16
      NAME "BEAT"
      VOLPAN 1.000000 0.000000 1.000000 -1.000000
      SOFFS 0.00000000000000 0.00000000000000
      PLAYRATE 1.00000000000000 1 0.00000000000000 -1
      CHANMODE 0
      GUID {BA5AA0ED-1BF1-4D3C-9270-66BFAE05E8F7}
      <SOURCE MIDI
        HASDATA 1 480 QN
        POOLEDEVTS {B9208B9A-F922-4384-9241-4288D0D8896D}
        <X 0 0
          /wNCRUFU
        >
        E 0 96 0c 64
        E 120 86 0c 00
        E 360 96 0d 64
        E 120 86 0d 00
        E 360 96 0d 64
        E 120 86 0d 00
        E 360 96 0d 64
        E 120 86 0d 00
        E 360 96 0c 64
        E 120 86 0c 00
        E 360 96 0d 64
        E 120 86 0d 00
        E 360 96 0d 64
        E 120 86 0d 00
        E 360 96 0d 64
        E 120 86 0d 00
        E 360 96 0c 64
        E 120 86 0c 00
        E 360 96 0d 64
        E 120 86 0d 00
        E 360 96 0d 64
        E 120 86 0d 00
        E 360 96 0d 64
        E 120 86 0d 00
        E 360 96 0c 64
        E 120 86 0c 00
        E 360 96 0d 64
        E 120 86 0d 00
        E 360 96 0d 64
        E 120 86 0d 00
        E 360 96 0d 64
        E 120 86 0d 00
        E 360 96 0c 64
        E 120 86 0c 00
        E 360 96 0d 64
        E 120 86 0d 00
        E 360 96 0d 64
        E 120 86 0d 00
        E 360 96 0d 64
        E 120 86 0d 00
        E 360 96 0c 64
        E 120 86 0c 00
        E 360 96 0d 64
        E 120 86 0d 00
        E 360 96 0d 64
        E 120 86 0d 00
        E 360 96 0d 64
        E 120 86 0d 00
        E 360 96 0c 64
        E 120 86 0c 00
        E 360 96 0d 64
        E 120 86 0d 00
        E 360 96 0d 64
        E 120 86 0d 00
        E 360 96 0d 64
        E 120 86 0d 00
        E 360 96 0c 64
        E 120 86 0c 00
        E 360 96 0d 64
        E 120 86 0d 00
        E 360 96 0d 64
        E 120 86 0d 00
        E 360 96 0d 64
        E 120 86 0d 00
        E 360 96 0c 64
        E 120 86 0c 00
        E 360 96 0d 64
        E 120 86 0d 00
        E 360 96 0d 64
        E 120 86 0d 00
        E 360 96 0d 64
        E 120 86 0d 00
        E 360 96 0c 64
        E 120 86 0c 00
        E 360 96 0d 64
        E 120 86 0d 00
        E 360 96 0d 64
        E 120 86 0d 00
        E 360 96 0d 64
        E 120 86 0d 00
        E 360 96 0c 64
        E 120 86 0c 00
        E 360 96 0d 64
        E 120 86 0d 00
        E 360 96 0d 64
        E 120 86 0d 00
        E 360 96 0d 64
        E 120 86 0d 00
        E 360 96 0c 64
        E 120 86 0c 00
        E 360 96 0d 64
        E 120 86 0d 00
        E 360 96 0d 64
        E 120 86 0d 00
        E 360 96 0d 64
        E 120 86 0d 00
        E 360 96 0c 64
        E 120 86 0c 00
        E 360 96 0d 64
        E 120 86 0d 00
        E 360 96 0d 64
        E 120 86 0d 00
        E 360 96 0d 64
        E 120 86 0d 00
        E 360 96 0c 64
        E 120 86 0c 00
        E 360 96 0d 64
        E 120 86 0d 00
        E 360 96 0d 64
        E 120 86 0d 00
        E 360 96 0d 64
        E 120 86 0d 00
        E 360 96 0c 64
        E 120 86 0c 00
        E 360 96 0d 64
        E 120 86 0d 00
        E 360 96 0d 64
        E 120 86 0d 00
        E 360 96 0d 64
        E 120 86 0d 00
        E 360 96 0c 64
        E 120 86 0c 00
        E 360 96 0d 64
        E 120 86 0d 00
        E 360 96 0d 64
        E 120 86 0d 00
        E 360 96 0d 64
        E 120 86 0d 00
        E 360 96 0c 64
        E 120 86 0c 00
        E 360 96 0d 64
        E 120 86 0d 00
        E 360 96 0d 64
        E 120 86 0d 00
        E 360 96 0d 64
        E 120 86 0d 00
        E 360 96 0c 64
        E 120 86 0c 00
        E 360 96 0d 64
        E 120 86 0d 00
        E 360 96 0d 64
        E 120 86 0d 00
        E 360 96 0d 64
        E 120 86 0d 00
        E 360 96 0c 64
        E 120 86 0c 00
        E 360 96 0d 64
        E 120 86 0d 00
        E 360 96 0d 64
        E 120 86 0d 00
        E 360 96 0d 64
        E 120 86 0d 00
        E 360 96 0c 64
        E 120 86 0c 00
        E 360 96 0d 64
        E 120 86 0d 00
        E 360 96 0d 64
        E 120 86 0d 00
        E 360 96 0d 64
        E 120 86 0d 00
        E 360 96 0c 64
        E 120 86 0c 00
        E 360 96 0d 64
        E 120 86 0d 00
        E 360 96 0d 64
        E 120 86 0d 00
        E 360 96 0d 64
        E 120 86 0d 00
        E 360 96 0c 64
        E 120 86 0c 00
        E 360 96 0d 64
        E 120 86 0d 00
        E 360 96 0d 64
        E 120 86 0d 00
        E 360 96 0d 64
        E 120 86 0d 00
        E 360 96 0c 64
        E 120 86 0c 00
        E 360 96 0d 64
        E 120 86 0d 00
        E 360 96 0d 64
        E 120 86 0d 00
        E 360 96 0d 64
        E 120 86 0d 00
        E 360 96 0c 64
        E 120 86 0c 00
        E 360 96 0d 64
        E 120 86 0d 00
        E 360 96 0d 64
        E 120 86 0d 00
        E 360 96 0d 64
        E 120 86 0d 00
        E 360 96 0c 64
        E 120 86 0c 00
        E 360 96 0d 64
        E 120 86 0d 00
        E 360 96 0d 64
        E 120 86 0d 00
        E 360 96 0d 64
        E 120 86 0d 00
        E 360 96 0c 64
        E 120 86 0c 00
        E 360 96 0d 64
        E 120 86 0d 00
        E 360 96 0d 64
        E 120 86 0d 00
        E 360 96 0d 64
        E 120 86 0d 00
        E 360 96 0c 64
        E 120 86 0c 00
        E 360 96 0d 64
        E 120 86 0d 00
        E 360 96 0d 64
        E 120 86 0d 00
        E 360 96 0d 64
        E 120 86 0d 00
        E 360 96 0c 64
        E 120 86 0c 00
        E 360 96 0d 64
        E 120 86 0d 00
        E 360 96 0d 64
        E 120 86 0d 00
        E 360 96 0d 64
        E 120 86 0d 00
        E 360 96 0c 64
        E 120 86 0c 00
        E 360 96 0d 64
        E 120 86 0d 00
        E 360 96 0d 64
        E 120 86 0d 00
        E 360 96 0d 64
        E 120 86 0d 00
        E 360 96 0c 64
        E 120 86 0c 00
        E 360 96 0d 64
        E 120 86 0d 00
        E 360 96 0d 64
        E 120 86 0d 00
        E 360 96 0d 64
        E 120 86 0d 00
        E 360 96 0c 64
        E 120 86 0c 00
        E 360 96 0d 64
        E 120 86 0d 00
        E 360 96 0d 64
        E 120 86 0d 00
        E 360 96 0d 64
        E 120 86 0d 00
        E 360 96 0c 64
        E 120 86 0c 00
        E 360 96 0d 64
        E 120 86 0d 00
        E 360 96 0d 64
        E 120 86 0d 00
        E 360 96 0d 64
        E 120 86 0d 00
        E 360 96 0c 64
        E 120 86 0c 00
        E 360 96 0d 64
        E 120 86 0d 00
        E 360 96 0d 64
        E 120 86 0d 00
        E 360 96 0d 64
        E 120 86 0d 00
        E 360 96 0c 64
        E 120 86 0c 00
        E 360 96 0d 64
        E 120 86 0d 00
        E 360 96 0d 64
        E 120 86 0d 00
        E 360 96 0d 64
        E 120 86 0d 00
        E 360 96 0c 64
        E 120 86 0c 00
        E 360 96 0d 64
        E 120 86 0d 00
        E 360 96 0d 64
        E 120 86 0d 00
        E 360 96 0d 64
        E 120 86 0d 00
        E 360 96 0c 64
        E 120 86 0c 00
        E 360 96 0d 64
        E 120 86 0d 00
        E 360 96 0d 64
        E 120 86 0d 00
        E 360 96 0d 64
        E 120 86 0d 00
        E 360 96 0c 64
        E 120 86 0c 00
        E 360 96 0d 64
        E 120 86 0d 00
        E 360 96 0d 64
        E 120 86 0d 00
        E 360 96 0d 64
        E 120 86 0d 00
        E 360 96 0c 64
        E 120 86 0c 00
        E 360 96 0d 64
        E 120 86 0d 00
        E 360 96 0d 64
        E 120 86 0d 00
        E 360 96 0d 64
        E 120 86 0d 00
        E 360 96 0c 64
        E 120 86 0c 00
        E 360 96 0d 64
        E 120 86 0d 00
        E 360 96 0d 64
        E 120 86 0d 00
        E 360 96 0d 64
        E 120 86 0d 00
        E 360 96 0c 64
        E 120 86 0c 00
        E 360 96 0d 64
        E 120 86 0d 00
        E 360 96 0d 64
        E 120 86 0d 00
        E 360 96 0d 64
        E 120 86 0d 00
        E 360 96 0c 64
        E 120 86 0c 00
        E 360 96 0d 64
        E 120 86 0d 00
        E 360 96 0d 64
        E 120 86 0d 00
        E 360 96 0d 64
        E 120 86 0d 00
        E 360 96 0c 64
        E 120 86 0c 00
        E 360 96 0d 64
        E 120 86 0d 00
        E 360 96 0d 64
        E 120 86 0d 00
        E 360 96 0d 64
        E 120 86 0d 00
        E 360 96 0c 64
        E 120 86 0c 00
        E 360 96 0d 64
        E 120 86 0d 00
        E 360 96 0d 64
        E 120 86 0d 00
        E 360 96 0d 64
        E 120 86 0d 00
        E 360 96 0c 64
        E 120 86 0c 00
        E 360 96 0d 64
        E 120 86 0d 00
        E 360 96 0d 64
        E 120 86 0d 00
        E 360 96 0d 64
        E 120 86 0d 00
        E 360 96 0c 64
        E 120 86 0c 00
        E 360 96 0d 64
        E 120 86 0d 00
        E 360 96 0d 64
        E 120 86 0d 00
        E 360 96 0d 64
        E 120 86 0d 00
        E 360 96 0c 64
        E 120 86 0c 00
        E 360 96 0d 64
        E 120 86 0d 00
        E 360 96 0d 64
        E 120 86 0d 00
        E 360 96 0d 64
        E 120 86 0d 00
        E 360 96 0c 64
        E 120 86 0c 00
        E 360 96 0d 64
        E 120 86 0d 00
        E 360 96 0d 64
        E 120 86 0d 00
        E 360 96 0d 64
        E 120 86 0d 00
        E 360 96 0c 64
        E 120 86 0c 00
        E 360 96 0d 64
        E 120 86 0d 00
        E 360 96 0d 64
        E 120 86 0d 00
        E 360 96 0d 64
        E 120 86 0d 00
        E 360 96 0c 64
        E 120 86 0c 00
        E 360 96 0d 64
        E 120 86 0d 00
        E 360 96 0d 64
        E 120 86 0d 00
        E 360 96 0d 64
        E 120 86 0d 00
        E 360 96 0c 64
        E 120 86 0c 00
        E 360 96 0d 64
        E 120 86 0d 00
        E 360 96 0d 64
        E 120 86 0d 00
        E 360 96 0d 64
        E 120 86 0d 00
        E 360 96 0c 64
        E 120 86 0c 00
        E 360 96 0d 64
        E 120 86 0d 00
        E 360 96 0d 64
        E 120 86 0d 00
        E 360 96 0d 64
        E 120 86 0d 00
        E 360 96 0c 64
        E 120 86 0c 00
        E 360 96 0d 64
        E 120 86 0d 00
        E 360 96 0d 64
        E 120 86 0d 00
        E 360 96 0d 64
        E 120 86 0d 00
        E 360 96 0c 64
        E 120 86 0c 00
        E 360 96 0d 64
        E 120 86 0d 00
        E 360 96 0d 64
        E 120 86 0d 00
        E 360 96 0d 64
        E 120 86 0d 00
        E 360 96 0c 64
        E 120 86 0c 00
        E 360 96 0d 64
        E 120 86 0d 00
        E 360 96 0d 64
        E 120 86 0d 00
        E 360 96 0d 64
        E 120 86 0d 00
        E 360 96 0c 64
        E 120 86 0c 00
        E 360 96 0d 64
        E 120 86 0d 00
        E 360 96 0d 64
        E 120 86 0d 00
        E 360 96 0d 64
        E 120 86 0d 00
        E 360 96 0c 64
        E 120 86 0c 00
        E 360 96 0d 64
        E 120 86 0d 00
        E 360 96 0d 64
        E 120 86 0d 00
        E 360 96 0d 64
        E 120 86 0d 00
        E 360 96 0c 64
        E 120 86 0c 00
        E 360 96 0d 64
        E 120 86 0d 00
        E 360 96 0d 64
        E 120 86 0d 00
        E 360 96 0d 64
        E 120 86 0d 00
        E 360 96 0c 64
        E 120 86 0c 00
        E 360 96 0d 64
        E 120 86 0d 00
        E 360 96 0d 64
        E 120 86 0d 00
        E 360 96 0d 64
        E 120 86 0d 00
        E 360 96 0c 64
        E 120 86 0c 00
        E 360 96 0d 64
        E 120 86 0d 00
        E 360 96 0d 64
        E 120 86 0d 00
        E 360 96 0d 64
        E 120 86 0d 00
        E 360 96 0c 64
        E 120 86 0c 00
        E 360 96 0d 64
        E 120 86 0d 00
        E 360 96 0d 64
        E 120 86 0d 00
        E 360 96 0d 64
        E 120 86 0d 00
        E 360 96 0c 64
        E 120 86 0c 00
        E 360 96 0d 64
        E 120 86 0d 00
        E 360 96 0d 64
        E 120 86 0d 00
        E 360 96 0d 64
        E 120 86 0d 00
        E 360 96 0c 64
        E 120 86 0c 00
        E 360 96 0d 64
        E 120 86 0d 00
        E 360 96 0d 64
        E 120 86 0d 00
        E 360 96 0d 64
        E 120 86 0d 00
        E 360 96 0c 64
        E 120 86 0c 00
        E 360 96 0d 64
        E 120 86 0d 00
        E 360 96 0d 64
        E 120 86 0d 00
        E 360 96 0d 64
        E 120 86 0d 00
        E 360 96 0c 64
        E 120 86 0c 00
        E 360 96 0d 64
        E 120 86 0d 00
        E 360 96 0d 64
        E 120 86 0d 00
        E 360 96 0d 64
        E 120 86 0d 00
        E 360 96 0c 64
        E 120 86 0c 00
        E 360 96 0d 64
        E 120 86 0d 00
        E 360 96 0d 64
        E 120 86 0d 00
        E 360 96 0d 64
        E 120 86 0d 00
        E 360 96 0c 64
        E 120 86 0c 00
        E 360 96 0d 64
        E 120 86 0d 00
        E 360 96 0d 64
        E 120 86 0d 00
        E 360 96 0d 64
        E 120 86 0d 00
        E 360 96 0c 64
        E 120 86 0c 00
        E 360 96 0d 64
        E 120 86 0d 00
        E 360 96 0d 64
        E 120 86 0d 00
        E 360 96 0d 64
        E 120 86 0d 00
        E 360 96 0c 64
        E 120 86 0c 00
        E 360 96 0d 64
        E 120 86 0d 00
        E 360 96 0d 64
        E 120 86 0d 00
        E 360 96 0d 64
        E 120 86 0d 00
        E 360 96 0c 64
        E 120 86 0c 00
        E 360 96 0d 64
        E 120 86 0d 00
        E 360 96 0d 64
        E 120 86 0d 00
        E 360 96 0d 64
        E 120 86 0d 00
        E 360 96 0c 64
        E 120 86 0c 00
        E 360 96 0d 64
        E 120 86 0d 00
        E 360 96 0d 64
        E 120 86 0d 00
        E 360 96 0d 64
        E 120 86 0d 00
        E 360 96 0c 64
        E 120 86 0c 00
        E 360 96 0d 64
        E 120 86 0d 00
        E 360 96 0d 64
        E 120 86 0d 00
        E 360 96 0d 64
        E 120 86 0d 00
        E 360 96 0c 64
        E 120 86 0c 00
        E 360 96 0d 64
        E 120 86 0d 00
        E 360 96 0d 64
        E 120 86 0d 00
        E 360 96 0d 64
        E 120 86 0d 00
        E 360 96 0c 64
        E 120 86 0c 00
        E 360 96 0d 64
        E 120 86 0d 00
        E 360 96 0d 64
        E 120 86 0d 00
        E 360 96 0d 64
        E 120 86 0d 00
        E 360 96 0c 64
        E 120 86 0c 00
        E 360 96 0d 64
        E 120 86 0d 00
        E 360 96 0d 64
        E 120 86 0d 00
        E 360 96 0d 64
        E 120 86 0d 00
        E 360 96 0c 64
        E 120 86 0c 00
        E 360 96 0d 64
        E 120 86 0d 00
        E 360 96 0d 64
        E 120 86 0d 00
        E 360 96 0d 64
        E 120 86 0d 00
        E 360 96 0c 64
        E 120 86 0c 00
        E 360 96 0d 64
        E 120 86 0d 00
        E 360 96 0d 64
        E 120 86 0d 00
        E 360 96 0d 64
        E 120 86 0d 00
        E 360 96 0c 64
        E 120 86 0c 00
        E 360 96 0d 64
        E 120 86 0d 00
        E 360 96 0d 64
        E 120 86 0d 00
        E 360 96 0d 64
        E 120 86 0d 00
        E 360 96 0c 64
        E 120 86 0c 00
        E 360 96 0d 64
        E 120 86 0d 00
        E 360 96 0d 64
        E 120 86 0d 00
        E 360 96 0d 64
        E 120 86 0d 00
        E 360 96 0c 64
        E 120 86 0c 00
        E 360 96 0d 64
        E 120 86 0d 00
        E 360 96 0d 64
        E 120 86 0d 00
        E 360 96 0d 64
        E 120 86 0d 00
        E 360 96 0c 64
        E 120 86 0c 00
        E 360 96 0d 64
        E 120 86 0d 00
        E 360 96 0d 64
        E 120 86 0d 00
        E 360 96 0d 64
        E 120 86 0d 00
        E 360 96 0c 64
        E 120 86 0c 00
        E 360 96 0d 64
        E 120 86 0d 00
        E 360 96 0d 64
        E 120 86 0d 00
        E 360 96 0d 64
        E 120 86 0d 00
        E 360 96 0c 64
        E 120 86 0c 00
        E 360 96 0d 64
        E 120 86 0d 00
        E 360 96 0d 64
        E 120 86 0d 00
        E 360 96 0d 64
        E 120 86 0d 00
        E 360 96 0c 64
        E 120 86 0c 00
        E 360 96 0d 64
        E 120 86 0d 00
        E 360 96 0d 64
        E 120 86 0d 00
        E 360 96 0d 64
        E 120 86 0d 00
        E 360 96 0c 64
        E 120 86 0c 00
        E 360 96 0d 64
        E 120 86 0d 00
        E 360 96 0d 64
        E 120 86 0d 00
        E 360 96 0d 64
        E 120 86 0d 00
        E 360 96 0c 64
        E 120 86 0c 00
        E 360 96 0d 64
        E 120 86 0d 00
        E 360 96 0d 64
        E 120 86 0d 00
        E 360 96 0d 64
        E 120 86 0d 00
        E 360 96 0c 64
        E 120 86 0c 00
        E 360 96 0d 64
        E 120 86 0d 00
        E 360 96 0d 64
        E 120 86 0d 00
        E 360 96 0d 64
        E 120 86 0d 00
        E 360 96 0c 64
        E 120 86 0c 00
        E 360 96 0d 64
        E 120 86 0d 00
        E 360 96 0d 64
        E 120 86 0d 00
        E 360 96 0d 64
        E 120 86 0d 00
        E 360 96 0c 64
        E 120 86 0c 00
        E 360 96 0d 64
        E 120 86 0d 00
        E 360 96 0d 64
        E 120 86 0d 00
        E 360 96 0d 64
        E 120 86 0d 00
        E 360 96 0c 64
        E 120 86 0c 00
        E 360 96 0d 64
        E 120 86 0d 00
        E 360 96 0d 64
        E 120 86 0d 00
        E 360 96 0d 64
        E 120 86 0d 00
        E 360 96 0c 64
        E 120 86 0c 00
        E 360 96 0d 64
        E 120 86 0d 00
        E 360 96 0d 64
        E 120 86 0d 00
        E 360 96 0d 64
        E 120 86 0d 00
        E 360 96 0c 64
        E 120 86 0c 00
        E 360 96 0d 64
        E 120 86 0d 00
        E 360 96 0d 64
        E 120 86 0d 00
        E 360 96 0d 64
        E 120 86 0d 00
        E 360 96 0c 64
        E 120 86 0c 00
        E 360 96 0d 64
        E 120 86 0d 00
        E 360 96 0d 64
        E 120 86 0d 00
        E 360 96 0d 64
        E 120 86 0d 00
        E 360 96 0c 64
        E 120 86 0c 00
        E 360 96 0d 64
        E 120 86 0d 00
        E 360 96 0d 64
        E 120 86 0d 00
        E 360 96 0d 64
        E 120 86 0d 00
        E 360 96 0c 64
        E 120 86 0c 00
        E 360 96 0d 64
        E 120 86 0d 00
        E 360 96 0d 64
        E 120 86 0d 00
        E 360 96 0d 64
        E 120 86 0d 00
        E 360 96 0c 64
        E 120 86 0c 00
        E 360 96 0d 64
        E 120 86 0d 00
        E 360 96 0d 64
        E 120 86 0d 00
        E 360 96 0d 64
        E 120 86 0d 00
        E 360 96 0c 64
        E 120 86 0c 00
        E 360 96 0d 64
        E 120 86 0d 00
        E 360 96 0d 64
        E 120 86 0d 00
        E 360 96 0d 64
        E 120 86 0d 00
        E 360 96 0c 64
        E 120 86 0c 00
        E 360 96 0d 64
        E 120 86 0d 00
        E 360 96 0d 64
        E 120 86 0d 00
        E 360 96 0d 64
        E 120 86 0d 00
        E 360 96 0c 64
        E 120 86 0c 00
        E 360 96 0d 64
        E 120 86 0d 00
        E 360 96 0d 64
        E 120 86 0d 00
        E 360 96 0d 64
        E 120 86 0d 00
        E 360 96 0c 64
        E 120 86 0c 00
        E 360 96 0d 64
        E 120 86 0d 00
        E 360 96 0d 64
        E 120 86 0d 00
        E 360 96 0d 64
        E 120 86 0d 00
        E 360 96 0c 64
        E 120 86 0c 00
        E 360 96 0d 64
        E 120 86 0d 00
        E 360 96 0d 64
        E 120 86 0d 00
        E 360 96 0d 64
        E 120 86 0d 00
        E 360 96 0c 64
        E 120 86 0c 00
        E 360 96 0d 64
        E 120 86 0d 00
        E 360 96 0d 64
        E 120 86 0d 00
        E 360 96 0d 64
        E 120 86 0d 00
        E 360 96 0c 64
        E 120 86 0c 00
        E 360 96 0d 64
        E 120 86 0d 00
        E 360 96 0d 64
        E 120 86 0d 00
        E 360 96 0d 64
        E 120 86 0d 00
        E 360 96 0c 64
        E 120 86 0c 00
        E 360 96 0d 64
        E 120 86 0d 00
        E 360 96 0d 64
        E 120 86 0d 00
        E 360 96 0d 64
        E 120 86 0d 00
        E 360 96 0c 64
        E 120 86 0c 00
        E 360 96 0d 64
        E 120 86 0d 00
        E 360 96 0d 64
        E 120 86 0d 00
        E 360 96 0d 64
        E 120 86 0d 00
        E 360 96 0c 64
        E 120 86 0c 00
        E 360 96 0d 64
        E 120 86 0d 00
        E 360 96 0d 64
        E 120 86 0d 00
        E 360 96 0d 64
        E 120 86 0d 00
        E 360 96 0c 64
        E 120 86 0c 00
        E 360 96 0d 64
        E 120 86 0d 00
        E 360 96 0d 64
        E 120 86 0d 00
        E 360 96 0d 64
        E 120 86 0d 00
        E 360 96 0c 64
        E 120 86 0c 00
        E 360 96 0d 64
        E 120 86 0d 00
        E 360 96 0d 64
        E 120 86 0d 00
        E 360 96 0d 64
        E 120 86 0d 00
        E 360 96 0c 64
        E 120 86 0c 00
        E 360 96 0d 64
        E 120 86 0d 00
        E 360 96 0d 64
        E 120 86 0d 00
        E 360 96 0d 64
        E 120 86 0d 00
        E 360 96 0c 64
        E 120 86 0c 00
        E 360 96 0d 64
        E 120 86 0d 00
        E 360 96 0d 64
        E 120 86 0d 00
        E 360 96 0d 64
        E 120 86 0d 00
        E 360 96 0c 64
        E 120 86 0c 00
        E 360 96 0d 64
        E 120 86 0d 00
        E 360 96 0d 64
        E 120 86 0d 00
        E 360 96 0d 64
        E 120 86 0d 00
        E 360 96 0c 64
        E 120 86 0c 00
        E 360 96 0d 64
        E 120 86 0d 00
        E 360 96 0d 64
        E 120 86 0d 00
        E 360 96 0d 64
        E 120 86 0d 00
        E 360 96 0c 64
        E 120 86 0c 00
        E 360 96 0d 64
        E 120 86 0d 00
        E 360 96 0d 64
        E 120 86 0d 00
        E 360 96 0d 64
        E 120 86 0d 00
        E 360 96 0c 64
        E 120 86 0c 00
        E 360 96 0d 64
        E 120 86 0d 00
        E 360 96 0d 64
        E 120 86 0d 00
        E 360 96 0d 64
        E 120 86 0d 00
        E 360 96 0c 64
        E 120 86 0c 00
        E 360 96 0d 64
        E 120 86 0d 00
        E 360 96 0d 64
        E 120 86 0d 00
        E 360 96 0d 64
        E 120 86 0d 00
        E 360 96 0c 64
        E 120 86 0c 00
        E 360 96 0d 64
        E 120 86 0d 00
        E 360 96 0d 64
        E 120 86 0d 00
        E 360 96 0d 64
        E 120 86 0d 00
        E 360 96 0c 64
        E 120 86 0c 00
        E 360 96 0d 64
        E 120 86 0d 00
        E 360 96 0d 64
        E 120 86 0d 00
        E 360 96 0d 64
        E 120 86 0d 00
        E 360 96 0c 64
        E 120 86 0c 00
        E 360 96 0d 64
        E 120 86 0d 00
        E 360 96 0d 64
        E 120 86 0d 00
        E 360 96 0d 64
        E 120 86 0d 00
        E 360 96 0c 64
        E 120 86 0c 00
        E 360 96 0d 64
        E 120 86 0d 00
        E 360 96 0d 64
        E 120 86 0d 00
        E 360 96 0d 64
        E 120 86 0d 00
        E 360 96 0c 64
        E 120 86 0c 00
        E 360 96 0d 64
        E 120 86 0d 00
        E 360 96 0d 64
        E 120 86 0d 00
        E 360 96 0d 64
        E 120 86 0d 00
        E 360 96 0c 64
        E 120 86 0c 00
        E 360 96 0d 64
        E 120 86 0d 00
        E 360 96 0d 64
        E 120 86 0d 00
        E 360 96 0d 64
        E 120 86 0d 00
        E 360 96 0c 64
        E 120 86 0c 00
        E 360 96 0d 64
        E 120 86 0d 00
        E 360 96 0d 64
        E 120 86 0d 00
        E 360 96 0d 64
        E 120 86 0d 00
        E 360 96 0c 64
        E 120 86 0c 00
        E 360 96 0d 64
        E 120 86 0d 00
        E 360 96 0d 64
        E 120 86 0d 00
        E 360 96 0d 64
        E 120 86 0d 00
        E 360 96 0c 64
        E 120 86 0c 00
        E 360 96 0d 64
        E 120 86 0d 00
        E 360 96 0d 64
        E 120 86 0d 00
        E 360 96 0d 64
        E 120 86 0d 00
        E 360 96 0c 64
        E 120 86 0c 00
        E 360 96 0d 64
        E 120 86 0d 00
        E 360 96 0d 64
        E 120 86 0d 00
        E 360 96 0d 64
        E 120 86 0d 00
        E 360 96 0c 64
        E 120 86 0c 00
        E 360 96 0d 64
        E 120 86 0d 00
        E 360 96 0d 64
        E 120 86 0d 00
        E 360 96 0d 64
        E 120 86 0d 00
        E 360 96 0c 64
        E 120 86 0c 00
        E 360 96 0d 64
        E 120 86 0d 00
        E 360 96 0d 64
        E 120 86 0d 00
        E 360 96 0d 64
        E 120 86 0d 00
        E 360 96 0c 64
        E 120 86 0c 00
        E 360 96 0d 64
        E 120 86 0d 00
        E 360 96 0d 64
        E 120 86 0d 00
        E 360 96 0d 64
        E 120 86 0d 00
        E 360 96 0c 64
        E 120 86 0c 00
        E 360 96 0d 64
        E 120 86 0d 00
        E 360 96 0d 64
        E 120 86 0d 00
        E 360 96 0d 64
        E 120 86 0d 00
        E 360 96 0c 64
        E 120 86 0c 00
        E 360 96 0d 64
        E 120 86 0d 00
        E 360 96 0d 64
        E 120 86 0d 00
        E 360 96 0d 64
        E 120 86 0d 00
        E 360 96 0c 64
        E 120 86 0c 00
        E 360 96 0d 64
        E 120 86 0d 00
        E 360 96 0d 64
        E 120 86 0d 00
        E 360 96 0d 64
        E 120 86 0d 00
        E 360 96 0c 64
        E 120 86 0c 00
        E 360 96 0d 64
        E 120 86 0d 00
        E 360 96 0d 64
        E 120 86 0d 00
        E 360 96 0d 64
        E 120 86 0d 00
        E 360 96 0c 64
        E 120 86 0c 00
        E 360 96 0d 64
        E 120 86 0d 00
        E 360 96 0d 64
        E 120 86 0d 00
        E 360 96 0d 64
        E 120 86 0d 00
        E 360 96 0c 64
        E 120 86 0c 00
        E 360 96 0d 64
        E 120 86 0d 00
        E 360 96 0d 64
        E 120 86 0d 00
        E 360 96 0d 64
        E 120 86 0d 00
        E 360 96 0c 64
        E 120 86 0c 00
        E 360 96 0d 64
        E 120 86 0d 00
        E 360 96 0d 64
        E 120 86 0d 00
        E 360 96 0d 64
        E 120 86 0d 00
        E 360 96 0c 64
        E 120 86 0c 00
        E 360 96 0d 64
        E 120 86 0d 00
        E 360 96 0d 64
        E 120 86 0d 00
        E 360 96 0d 64
        E 120 86 0d 00
        E 360 96 0c 64
        E 120 86 0c 00
        E 360 96 0d 64
        E 120 86 0d 00
        E 360 96 0d 64
        E 120 86 0d 00
        E 360 96 0d 64
        E 120 86 0d 00
        E 360 96 0c 64
        E 120 86 0c 00
        E 360 96 0d 64
        E 120 86 0d 00
        E 360 96 0d 64
        E 120 86 0d 00
        E 360 96 0d 64
        E 120 86 0d 00
        E 360 96 0c 64
        E 120 86 0c 00
        E 360 96 0d 64
        E 120 86 0d 00
        E 360 96 0d 64
        E 120 86 0d 00
        E 360 96 0d 64
        E 120 86 0d 00
        E 360 96 0c 64
        E 120 86 0c 00
        E 360 96 0d 64
        E 120 86 0d 00
        E 360 96 0d 64
        E 120 86 0d 00
        E 360 96 0d 64
        E 120 86 0d 00
        E 360 96 0c 64
        E 120 86 0c 00
        E 360 96 0d 64
        E 120 86 0d 00
        E 360 96 0d 64
        E 120 86 0d 00
        E 360 96 0d 64
        E 120 86 0d 00
        E 360 96 0c 64
        E 120 86 0c 00
        E 360 96 0d 64
        E 120 86 0d 00
        E 360 96 0d 64
        E 120 86 0d 00
        E 360 96 0d 64
        E 120 86 0d 00
        E 360 96 0c 64
        E 120 86 0c 00
        E 360 96 0d 64
        E 120 86 0d 00
        E 360 96 0d 64
        E 120 86 0d 00
        E 360 96 0d 64
        E 120 86 0d 00
        E 360 96 0c 64
        E 120 86 0c 00
        E 360 96 0d 64
        E 120 86 0d 00
        E 360 96 0d 64
        E 120 86 0d 00
        E 360 96 0d 64
        E 120 86 0d 00
        E 360 96 0c 64
        E 120 86 0c 00
        E 360 96 0d 64
        E 120 86 0d 00
        E 360 96 0d 64
        E 120 86 0d 00
        E 360 96 0d 64
        E 120 86 0d 00
        E 360 96 0c 64
        E 120 86 0c 00
        E 360 96 0d 64
        E 120 86 0d 00
        E 360 96 0d 64
        E 120 86 0d 00
        E 360 96 0d 64
        E 120 86 0d 00
        E 360 96 0c 64
        E 120 86 0c 00
        E 360 96 0d 64
        E 120 86 0d 00
        E 360 96 0d 64
        E 120 86 0d 00
        E 360 96 0d 64
        E 120 86 0d 00
        E 360 96 0c 64
        E 120 86 0c 00
        E 360 96 0d 64
        E 120 86 0d 00
        E 360 96 0d 64
        E 120 86 0d 00
        E 360 96 0d 64
        E 120 86 0d 00
        E 360 96 0c 64
        E 120 86 0c 00
        E 360 96 0d 64
        E 120 86 0d 00
        E 360 96 0d 64
        E 120 86 0d 00
        E 360 96 0d 64
        E 120 86 0d 00
        E 360 96 0c 64
        E 120 86 0c 00
        E 360 96 0d 64
        E 120 86 0d 00
        E 360 96 0d 64
        E 120 86 0d 00
        E 360 96 0d 64
        E 120 86 0d 00
        E 360 96 0c 64
        E 120 86 0c 00
        E 360 96 0d 64
        E 120 86 0d 00
        E 360 96 0d 64
        E 120 86 0d 00
        E 360 96 0d 64
        E 120 86 0d 00
        E 360 b0 7b 00
        GUID {2EEE05E7-E013-4D94-9B88-CC3A435DB618}
        IGNTEMPO 0 120.00000000 4 4
        SRCCOLOR 16
        VELLANE 132 128 60
        COLORMAP "C:\Program Files\REAPER (x64)\Data\color_maps\rockband_guitarbass.png"
        CFGEDITVIEW -18721.282280 3.743333 0 48 0 0 0
        CFGEDIT 1 1 0 1 1 0 1 1 1 1 1 0.12500000 53 44 1253 718 0 2 1 1 0.00000000 0 1 1 0 0.500000 0 0 1.000000 64
        KEYSNAP 0 7 "102030050700" 0 "Pentatonic"
        EVTFILTER 0 -1 -1 -1 -1 0 1 0 0 -1.00000000 -1.00000000
      >
    >
  >
  <TRACK '{E4CE59FD-7CE5-4568-BDB3-803034D11A7E}'
    NAME "backing"
    PEAKCOL 16576
    BEAT -1
    AUTOMODE 0
    VOLPAN 1.00000000000000 0.00000000000000 -1.00000000000000 -1.00000000000000 1.00000000000000
    MUTESOLO 0 0 0
    IPHASE 0
    ISBUS 0 0
    BUSCOMP 0 0
    SHOWINMIX 1 0.666700 0.500000 1 0.500000 -1 -1 -1
    FREEMODE 0
    SEL 0
    REC 0 0 0 0 0 0 0
    VU 2
    TRACKHEIGHT 0 0
    INQ 0 0 0 0.5000000000 100 0 0 100
    NCHAN 2
    FX 1
    TRACKID {E4CE59FD-7CE5-4568-BDB3-803034D11A7E}
    PERF 0
    MIDIOUT -1
    MAINSEND 1 0
    <ITEM
      POSITION 0.00000000000000
      SNAPOFFS 0.00000000000000
      LENGTH 300.00000000000000
      LOOP 0
      ALLTAKES 0
      SEL 0
      FADEIN 1 0.000000 0.000000 1 0
      FADEOUT 1 0.000000 0.000000 1 0
      MUTE 0
      IGUID {E6B135B0-4691-435F-931E-A2CA727BC861}
      IID 17
      NAME "backing.wav"
      VOLPAN 1.000000 0.000000 1.000000 -1.000000
      SOFFS 0.00000000000000
      PLAYRATE 1.00000000000000 1 0.00000000000000 -1
      CHANMODE 0
      GUID {ED1CCD59-8F02-44DF-BEC8-EEFDD25359AA}
      <SOURCE WAVE
        FILE "wav\backing.wav"
      >
    >
  >
  <EXTENSIONS
  >
>
