<REAPER_PROJECT 0.1 "4.22/x64"
  RIPPLE 0
  GROUPOVERRIDE 0 0 0
  AUTOXFADE 1
  ENVATTACH 1
  MIXERUIFLAGS 11 48
  PEAKGAIN 1.00000000000000
  FEEDBACK 0
  PANLAW 1.00000000000000
  PROJOFFS 0.00000000000000 0
  MAXPROJLEN 0 600.00000000000000
  GRID 3199 8 1.00000000000000 8 1.00000000000000 0
  TIMEMODE 1 0 -1
  PANMODE 3
  CURSOR 36.77725623582764
  ZOOM 9.60191571832070 0 0
  VZOOMEX 6
  USE_REC_CFG 0
  RECMODE 1
  SMPTESYNC 0 23.976024 100 40 1000 300 0 0.000000 1
  LOOP 1
  LOOPGRAN 0 4.00000000000000
  RECORD_PATH "" ""
  <RECORD_CFG
    ZXZhdxAD
  >
  <APPLYFX_CFG
  >
  RENDER_FILE ""
  RENDER_PATTERN ""
  RENDER_FMT 0 2 0
  RENDER_1X 0
  RENDER_RANGE 1 0.00000000000000 0.00000000000000
  RENDER_RESAMPLE 3 0 1
  RENDER_ADDTOPROJ 0
  RENDER_STEMS 0
  RENDER_DITHER 0
  TIMELOCKMODE 0
  ITEMMIX 0
  DEFPITCHMODE 393216
  TAKELANE 1
  SAMPLERATE 44100 0 0
  <RENDER_CFG
  >
  LOCK 1
  <METRONOME 6 2.000000
    VOL 0.250000 0.125000
    FREQ 800 1600 1
    BEATLEN 4
    SAMPLES "" ""
  >
  GLOBAL_AUTO -1
  TEMPO 120.00000000000000 4 4
  PLAYRATE 1.00000000000000 0 0.25000 4.00000
  SELECTION 116.95577200000000 0.00000000000000
  SELECTION2 116.95577200000000 0.00000000000000
  MASTERAUTOMODE 0
  MASTERTRACKHEIGHT 0
  MASTERPEAKCOL 16576
  MASTERMUTESOLO 0
  MASTERTRACKVIEW 0 0.666700 0.500000 0.500000 -1 -1 -1
  MASTERHWOUT 0 0 1.00000000000000 0.00000000000000 0 0 0 -1.00000000000000
  MASTER_NCH 2 2
  MASTER_VOLUME 0.16083368086020 0.00000000000000 -1.00000000000000 -1.00000000000000 1.00000000000000
  MASTER_PANMODE -1
  MASTER_FX 1
  MASTER_SEL 0
  <MASTERPLAYSPEEDENV
    ACT 0
    VIS 0 1 1.000000
    LANEHEIGHT 0 0
    ARM 0
    DEFSHAPE 0 -1 -1
  >
  <TEMPOENVEX
    ACT 1
    VIS 1 0 1.000000
    LANEHEIGHT 0 0
    ARM 0
    DEFSHAPE 1 -1 -1
    PT 0.000000000000 79.1550462661 1
    PT 70.494558000000 70.1550074890 1
    PT 71.349807000000 67.9999954667 1
    PT 73.114513000000 79.1550462661 1
    PT 107.224783000000 70.1550074890 1
    PT 108.080032000000 67.5999972960 1
  >
  <PROJBAY
  >
  <TRACK '{88BDA20E-51CC-4313-AEA0-F01ADDEF84B2}'
    NAME "PART BASS"
    PEAKCOL 16576
    BEAT -1
    AUTOMODE 0
    VOLPAN 1.00000000000000 0.00000000000000 -1.00000000000000 -1.00000000000000 1.00000000000000
    MUTESOLO 0 0 0
    IPHASE 0
    ISBUS 1 1
    BUSCOMP 0 0
    SHOWINMIX 1 0.666700 0.500000 1 0.500000 -1 -1 -1
    FREEMODE 0
    SEL 0
    REC 0 0 0 0 0 0 0
    VU 2
    TRACKHEIGHT 0 0
    INQ 0 0 0 0.5000000000 100 0 0 100
    NCHAN 2
    FX 1
    TRACKID {88BDA20E-51CC-4313-AEA0-F01ADDEF84B2}
    PERF 0
    MIDIOUT -1
    <MIDINOTENAMES
      0 127 "TRILL MARKER"
      0 126 "TREMOLO MARKER"
      0 125 "---"
      0 124 "BRE"
      0 123 "BRE"
      0 122 "BRE"
      0 121 "BRE"
      0 120 "BRE (use all 5)"
      0 119 "----"
      0 116 "OVERDRIVE"
      0 115 "----"
      0 103 "Solo Marker"
      0 102 "Force HOPO Off"
      0 101 "Force HOPO On"
      0 100 "EXPERT Orange"
      0 99 "EXPERT Blue"
      0 98 "EXPERT Yellow"
      0 97 "EXPERT Red"
      0 96 "EXPERT Green"
      0 95 "----"
      0 90 "Force HOPO Off"
      0 89 "Force HOPO On"
      0 88 "HARD Orange"
      0 87 "HARD Blue"
      0 86 "HARD Yellow"
      0 85 "HARD Red"
      0 84 "HARD Green"
      0 77 "----"
      0 76 "MEDIUM Orange"
      0 75 "MEDIUM Blue"
      0 74 "MEDIUM Yellow"
      0 73 "MEDIUM Red"
      0 72 "MEDIUM Green"
      0 65 "----"
      0 64 "EASY Orange"
      0 63 "EASY Blue"
      0 62 "EASY Yellow"
      0 61 "EASY Red"
      0 60 "EASY Green"
      0 59 "Fret 12"
      0 57 "Fret 11"
      0 56 "Fret 10"
      0 55 "Fret 9"
      0 53 "Fret 8"
      0 52 "Fret 7"
      0 50 "Fret 6"
      0 49 "Fret 5"
      0 47 "Fret 4"
      0 45 "Fret 3"
      0 43 "Fret 2"
      0 40 "Fret 1"
    >
    MAINSEND 1 0
    <FXCHAIN
      WNDRECT 0 43 891 559
      SHOW 0
      LASTSEL 0
      DOCKED 0
      BYPASS 0 0
      <VST "VSTi: RBN Preview (RBN)" "rbprev_vst64.dll" 0 ""
        dnBicu5e7f4AAAAAAgAAAAEAAAAAAAAAAgAAAAAAAAAEAAAAAQAAAA==
        AAAQAAMAqgAAABAAAAA=
      >
      FLOATPOS 0 0 0 0
      FXID {5F53B37E-5E30-452B-A212-A1EA14E6C458}
      WAK 0
    >
    <ITEM
      POSITION 0.00000000000000
      SNAPOFFS 0.00000000000000
      LENGTH 116.95500000000000
      LOOP 0
      ALLTAKES 0
      SEL 0
      FADEIN 1 0.000000 0.000000 1 0
      FADEOUT 1 0.000000 0.000000 1 0
      MUTE 0
      IGUID {D03947D4-644A-4B11-A51E-57C4B030A848}
      IID 1
      NAME "PART BASS"
      VOLPAN 1.000000 0.000000 1.000000 -1.000000
      SOFFS 0.00000000000000 0.00000000000000
      PLAYRATE 1.00000000000000 1 0.00000000000000 -1
      CHANMODE 0
      GUID {DBE6A7A3-3D78-48DB-9D6E-0521CCB8C5C9}
      <SOURCE MIDI
        HASDATA 1 480 QN
        POOLEDEVTS {87B2229D-E18D-4768-A115-D9D3E68751A9}
        <X 0 0
          /wNQQVJUIEJBU1M=
        >
        <X 3840 0
          /wFbaWRsZV0=
        >
        <X 19080 0
          /wFbbWVsbG93XQ==
        >
        E 120 90 28 60
        E 0 90 3c 60
        E 0 90 49 60
        E 0 90 55 60
        E 0 90 61 60
        E 1440 80 3c 00
        E 0 80 49 00
        E 360 80 55 00
        E 0 80 61 00
        E 120 90 3c 60
        E 0 90 49 60
        E 0 90 55 60
        E 0 90 61 60
        E 1440 80 3c 00
        E 0 80 49 00
        E 360 80 55 00
        E 0 80 61 00
        E 120 90 3c 60
        E 0 90 48 60
        E 0 90 54 60
        E 0 90 60 60
        E 0 90 74 60
        E 1440 80 3c 00
        E 0 80 48 00
        E 360 80 28 00
        E 0 80 54 00
        E 0 80 60 00
        E 120 90 31 60
        E 0 90 3d 60
        E 0 90 4a 60
        E 0 90 56 60
        E 0 90 62 60
        E 120 80 3d 00
        E 0 80 4a 00
        E 0 80 56 00
        E 0 80 62 00
        E 120 90 57 60
        E 0 90 63 60
        E 120 80 57 00
        E 0 80 63 00
        E 120 90 4b 60
        E 0 90 58 60
        E 0 90 64 60
        E 120 80 31 00
        E 0 80 4b 00
        E 0 80 58 00
        E 0 80 64 00
        E 0 90 30 60
        E 60 90 2f 60
        E 10 80 30 00
        E 50 80 2f 00
        E 0 90 2e 60
        E 0 90 57 60
        E 0 90 63 60
        E 0 90 65 60
        E 60 80 2e 00
        E 0 90 2d 60
        E 60 80 57 00
        E 0 80 63 00
        E 0 80 65 00
        E 60 80 2d 00
        E 60 90 2d 60
        E 0 90 3c 60
        E 0 90 49 60
        E 0 90 55 60
        E 0 90 61 60
        E 120 80 3c 00
        E 0 80 49 00
        E 0 80 55 00
        E 0 80 61 00
        E 120 90 56 60
        E 0 90 62 60
        E 120 80 56 00
        E 0 80 62 00
        E 120 90 4b 60
        E 0 90 57 60
        E 0 90 63 60
        E 120 80 2d 00
        E 0 80 4b 00
        E 0 80 57 00
        E 0 80 63 00
        E 0 90 2c 60
        E 60 90 2b 60
        E 9 80 2c 00
        E 51 80 2b 00
        E 0 90 2a 60
        E 0 90 56 60
        E 0 90 62 60
        E 0 90 65 60
        E 60 80 2a 00
        E 0 90 29 60
        E 60 80 56 00
        E 0 80 62 00
        E 0 80 65 00
        E 0 80 29 00
        E 120 80 74 00
        E 0 90 28 60
        E 0 90 3c 60
        E 0 90 49 60
        E 0 90 55 60
        E 0 90 61 60
        E 1440 80 3c 00
        E 0 80 49 00
        E 360 80 55 00
        E 0 80 61 00
        E 120 90 3c 60
        E 0 90 49 60
        E 0 90 55 60
        E 0 90 61 60
        E 1440 80 3c 00
        E 0 80 49 00
        E 360 80 55 00
        E 0 80 61 00
        E 120 90 3c 60
        E 0 90 48 60
        E 0 90 54 60
        E 0 90 60 60
        E 1440 80 3c 00
        E 0 80 48 00
        E 360 80 54 00
        E 0 80 60 00
        E 120 90 3c 60
        E 0 90 49 60
        E 0 90 55 60
        E 0 90 61 60
        E 1440 80 3c 00
        E 0 80 49 00
        E 360 80 55 00
        E 0 80 61 00
        E 60 80 28 00
        E 60 90 2d 60
        E 0 90 3e 60
        E 0 90 4b 60
        E 0 90 58 60
        E 0 90 64 60
        E 1200 80 3e 00
        E 0 80 4b 00
        E 360 80 58 00
        E 0 80 64 00
        E 120 90 4b 60
        E 0 90 58 60
        E 0 90 64 60
        E 120 80 4b 00
        E 0 80 58 00
        E 0 80 64 00
        E 120 90 3e 60
        E 0 90 4b 60
        E 0 90 58 60
        E 0 90 64 60
        E 1200 80 3e 00
        E 0 80 4b 00
        E 360 80 58 00
        E 0 80 64 00
        E 120 90 4b 60
        E 0 90 58 60
        E 0 90 64 60
        E 120 80 4b 00
        E 0 80 58 00
        E 0 80 64 00
        E 120 90 3e 60
        E 0 90 4b 60
        E 0 90 58 60
        E 0 90 64 60
        E 0 90 74 60
        E 480 80 3e 00
        E 0 80 4b 00
        E 360 80 58 00
        E 0 80 64 00
        E 60 80 2d 00
        E 60 90 28 60
        E 0 90 3e 60
        E 0 90 4b 60
        E 0 90 57 60
        E 0 90 63 60
        E 480 80 3e 00
        E 0 80 4b 00
        E 360 80 57 00
        E 0 80 63 00
        E 120 90 3d 60
        E 0 90 4a 60
        E 0 90 56 60
        E 0 90 62 60
        E 480 80 74 00
        E 960 80 3d 00
        E 0 80 4a 00
        E 360 80 56 00
        E 0 80 62 00
        E 60 80 28 00
        E 60 90 3c 60
        E 0 90 49 60
        E 0 90 55 60
        E 0 90 61 60
        E 0 90 28 60
        E 1440 80 3c 00
        E 0 80 49 00
        E 360 80 55 00
        E 0 80 61 00
        E 120 90 3c 60
        E 0 90 49 60
        E 0 90 55 60
        E 0 90 61 60
        E 1440 80 3c 00
        E 0 80 49 00
        E 360 80 55 00
        E 0 80 61 00
        E 120 90 3c 60
        E 0 90 48 60
        E 0 90 54 60
        E 0 90 60 60
        E 1440 80 3c 00
        E 0 80 48 00
        E 360 80 54 00
        E 0 80 60 00
        E 0 80 28 00
        E 120 90 3d 60
        E 0 90 4a 60
        E 0 90 56 60
        E 0 90 62 60
        E 0 90 31 60
        E 120 80 3d 00
        E 0 80 4a 00
        E 0 80 56 00
        E 0 80 62 00
        E 120 90 57 60
        E 0 90 63 60
        E 120 80 57 00
        E 0 80 63 00
        E 120 90 4b 60
        E 0 90 58 60
        E 0 90 64 60
        E 120 80 4b 00
        E 0 80 58 00
        E 0 80 64 00
        E 0 80 31 00
        E 0 90 30 60
        E 60 90 2f 60
        E 10 80 30 00
        E 50 90 57 60
        E 0 90 63 60
        E 0 90 65 60
        E 0 80 2f 00
        E 0 90 2e 60
        E 60 80 2e 00
        E 0 90 2d 60
        E 60 80 57 00
        E 0 80 63 00
        E 0 80 65 00
        E 60 80 2d 00
        E 60 90 3c 60
        E 0 90 49 60
        E 0 90 55 60
        E 0 90 61 60
        E 0 90 2d 60
        E 120 80 3c 00
        E 0 80 49 00
        E 0 80 55 00
        E 0 80 61 00
        E 120 90 56 60
        E 0 90 62 60
        E 120 80 56 00
        E 0 80 62 00
        E 120 90 4b 60
        E 0 90 57 60
        E 0 90 63 60
        E 120 80 4b 00
        E 0 80 57 00
        E 0 80 63 00
        E 0 80 2d 00
        E 0 90 2c 60
        E 60 90 2b 60
        E 9 80 2c 00
        E 51 90 56 60
        E 0 90 62 60
        E 0 90 65 60
        E 0 80 2b 00
        E 0 90 2a 60
        E 60 80 2a 00
        E 0 90 29 60
        E 60 80 56 00
        E 0 80 62 00
        E 0 80 65 00
        E 0 80 29 00
        E 120 90 3c 60
        E 0 90 49 60
        E 0 90 55 60
        E 0 90 61 60
        E 0 90 28 60
        E 1440 80 3c 00
        E 0 80 49 00
        E 360 80 55 00
        E 0 80 61 00
        E 120 90 3c 60
        E 0 90 49 60
        E 0 90 55 60
        E 0 90 61 60
        E 0 90 74 60
        E 1440 80 3c 00
        E 0 80 49 00
        E 360 80 55 00
        E 0 80 61 00
        E 120 90 3c 60
        E 0 90 48 60
        E 0 90 54 60
        E 0 90 60 60
        E 120 80 74 00
        E 1320 80 3c 00
        E 0 80 48 00
        E 360 80 54 00
        E 0 80 60 00
        E 120 90 3c 60
        E 0 90 49 60
        E 0 90 55 60
        E 0 90 61 60
        E 1440 80 3c 00
        E 0 80 49 00
        E 360 80 55 00
        E 0 80 61 00
        E 60 80 28 00
        E 60 90 3e 60
        E 0 90 4b 60
        E 0 90 58 60
        E 0 90 64 60
        E 0 90 2d 60
        E 1200 80 3e 00
        E 0 80 4b 00
        E 360 80 58 00
        E 0 80 64 00
        E 120 90 4b 60
        E 0 90 58 60
        E 0 90 64 60
        E 120 80 4b 00
        E 0 80 58 00
        E 0 80 64 00
        E 120 90 3e 60
        E 0 90 4b 60
        E 0 90 58 60
        E 0 90 64 60
        E 1200 80 3e 00
        E 0 80 4b 00
        E 360 80 58 00
        E 0 80 64 00
        E 120 90 4b 60
        E 0 90 58 60
        E 0 90 64 60
        E 120 80 4b 00
        E 0 80 58 00
        E 0 80 64 00
        E 120 90 3e 60
        E 0 90 4b 60
        E 0 90 58 60
        E 0 90 64 60
        E 480 80 3e 00
        E 0 80 4b 00
        E 360 80 58 00
        E 0 80 64 00
        E 60 80 2d 00
        E 60 90 3e 60
        E 0 90 4b 60
        E 0 90 57 60
        E 0 90 63 60
        E 0 90 28 60
        E 480 80 3e 00
        E 0 80 4b 00
        E 360 80 57 00
        E 0 80 63 00
        E 120 90 3d 60
        E 0 90 4a 60
        E 0 90 56 60
        E 0 90 62 60
        E 1800 80 3d 00
        E 0 80 4a 00
        E 0 80 56 00
        E 0 80 62 00
        E 59 80 28 00
        <X 60 0
          /wFbaWRsZV9yZWFsdGltZV0=
        >
        E 3840 b0 7b 00
        GUID {23443516-1F49-468E-89A1-7B438FBC6E6A}
        IGNTEMPO 0 120.00000000 4 4
        SRCCOLOR 2
        VELLANE 132 128 60
        COLORMAP "C:\Program Files\REAPER (x64)\Data\color_maps\rockband_guitarbass.png"
        CFGEDITVIEW -4814.302309 9.601920 0 12 0 0 0
        CFGEDIT 1 1 0 1 1 0 1 1 1 1 1 0.25000000 -8 -8 1544 872 0 2 1 1 0.00000000 0 1 1 0 0.500000 0 0 1.000000 64
        KEYSNAP 0 7 "102030050700" 0 "Pentatonic"
        EVTFILTER 0 -1 -1 -1 -1 0 1 0 0 -1.00000000 -1.00000000
      >
    >
  >
  <TRACK '{A7E0980F-9F73-4411-9BAF-DD56DB41F463}'
    NAME "bass"
    PEAKCOL 16576
    BEAT -1
    AUTOMODE 0
    VOLPAN 1.00000000000000 0.00000000000000 -1.00000000000000 -1.00000000000000 1.00000000000000
    MUTESOLO 0 0 0
    IPHASE 0
    ISBUS 2 -1
    BUSCOMP 0 0
    SHOWINMIX 1 0.666700 0.500000 1 0.500000 -1 -1 -1
    FREEMODE 0
    SEL 0
    REC 0 0 0 0 0 0 0
    VU 2
    TRACKHEIGHT 0 0
    INQ 0 0 0 0.5000000000 100 0 0 100
    NCHAN 2
    FX 1
    TRACKID {A7E0980F-9F73-4411-9BAF-DD56DB41F463}
    PERF 0
    MIDIOUT -1
    MAINSEND 1 0
    <ITEM
      POSITION 0.00000000000000
      SNAPOFFS 0.00000000000000
      LENGTH 116.95582766439910
      LOOP 0
      ALLTAKES 0
      SEL 0
      FADEIN 1 0.000000 0.000000 1 0
      FADEOUT 1 0.000000 0.000000 1 0
      MUTE 0
      IGUID {4B004B1C-1466-4B56-B74C-D28832EF51AE}
      IID 15
      NAME "bass.wav"
      VOLPAN 1.000000 0.000000 1.000000 -1.000000
      SOFFS 0.00000000000000
      PLAYRATE 1.00000000000000 1 0.00000000000000 -1
      CHANMODE 0
      GUID {CB2B1516-6A60-49F7-B2A0-AE3C8C66C062}
      <SOURCE WAVE
        FILE "wav\bass.wav"
      >
    >
  >
  <TRACK '{103CDED9-242A-4410-A00E-D889AF4EF849}'
    NAME "PART GUITAR"
    PEAKCOL 16576
    BEAT -1
    AUTOMODE 0
    VOLPAN 1.00000000000000 0.00000000000000 -1.00000000000000 -1.00000000000000 1.00000000000000
    MUTESOLO 0 0 0
    IPHASE 0
    ISBUS 1 1
    BUSCOMP 0 0
    SHOWINMIX 1 0.666700 0.500000 1 0.500000 -1 -1 -1
    FREEMODE 0
    SEL 0
    REC 0 0 0 0 0 0 0
    VU 2
    TRACKHEIGHT 0 0
    INQ 0 0 0 0.5000000000 100 0 0 100
    NCHAN 2
    FX 1
    TRACKID {103CDED9-242A-4410-A00E-D889AF4EF849}
    PERF 0
    MIDIOUT -1
    <MIDINOTENAMES
      0 127 "TRILL MARKER"
      0 126 "TREMOLO MARKER"
      0 125 "---"
      0 124 "BRE"
      0 123 "BRE"
      0 122 "BRE"
      0 121 "BRE"
      0 120 "BRE (use all 5)"
      0 119 "----"
      0 116 "OVERDRIVE"
      0 115 "----"
      0 103 "Solo Marker"
      0 102 "Force HOPO Off"
      0 101 "Force HOPO On"
      0 100 "EXPERT Orange"
      0 99 "EXPERT Blue"
      0 98 "EXPERT Yellow"
      0 97 "EXPERT Red"
      0 96 "EXPERT Green"
      0 95 "----"
      0 90 "Force HOPO Off"
      0 89 "Force HOPO On"
      0 88 "HARD Orange"
      0 87 "HARD Blue"
      0 86 "HARD Yellow"
      0 85 "HARD Red"
      0 84 "HARD Green"
      0 77 "----"
      0 76 "MEDIUM Orange"
      0 75 "MEDIUM Blue"
      0 74 "MEDIUM Yellow"
      0 73 "MEDIUM Red"
      0 72 "MEDIUM Green"
      0 65 "----"
      0 64 "EASY Orange"
      0 63 "EASY Blue"
      0 62 "EASY Yellow"
      0 61 "EASY Red"
      0 60 "EASY Green"
      0 59 "Fret 12"
      0 57 "Fret 11"
      0 56 "Fret 10"
      0 55 "Fret 9"
      0 53 "Fret 8"
      0 52 "Fret 7"
      0 50 "Fret 6"
      0 49 "Fret 5"
      0 47 "Fret 4"
      0 45 "Fret 3"
      0 43 "Fret 2"
      0 40 "Fret 1"
    >
    MAINSEND 1 0
    <FXCHAIN
      WNDRECT 0 43 891 559
      SHOW 0
      LASTSEL 0
      DOCKED 0
      BYPASS 0 0
      <VST "VSTi: RBN Preview (RBN)" "rbprev_vst64.dll" 0 ""
        dnBicu5e7f4AAAAAAgAAAAEAAAAAAAAAAgAAAAAAAAAEAAAAAQAAAA==
        AAAQAAMAqgAAABAAAAA=
      >
      FLOATPOS 0 0 0 0
      FXID {8E2519A7-ABE4-4F90-BAFA-08944A578EA3}
      WAK 0
    >
    <ITEM
      POSITION 0.00000000000000
      SNAPOFFS 0.00000000000000
      LENGTH 116.95500000000000
      LOOP 0
      ALLTAKES 0
      SEL 0
      FADEIN 1 0.000000 0.000000 1 0
      FADEOUT 1 0.000000 0.000000 1 0
      MUTE 0
      IGUID {FB214394-16B7-4A25-BAED-C8ECC44A211B}
      IID 2
      NAME "PART GUITAR"
      VOLPAN 1.000000 0.000000 1.000000 -1.000000
      SOFFS 0.00000000000000 0.00000000000000
      PLAYRATE 1.00000000000000 1 0.00000000000000 -1
      CHANMODE 0
      GUID {9839566B-988B-4C44-909B-9A37A19C1323}
      <SOURCE MIDI
        HASDATA 1 480 QN
        POOLEDEVTS {7447FB44-4F8C-45EA-A2A7-39F01A39C925}
        <X 0 0
          /wNQQVJUIEdVSVRBUg==
        >
        <X 3840 0
          /wFbaWRsZV0=
        >
        <X 3600 0
          /wFbbWVsbG93XQ==
        >
        E 240 90 28 60
        E 0 90 3d 60
        E 0 90 49 60
        E 0 90 55 60
        E 0 90 61 60
        E 120 80 3d 00
        E 0 80 49 00
        E 240 80 55 00
        E 0 80 61 00
        E 120 90 4c 60
        E 0 90 58 60
        E 0 90 64 60
        E 120 80 4c 00
        E 240 80 58 00
        E 0 80 64 00
        E 120 90 3e 60
        E 0 90 4b 60
        E 0 90 57 60
        E 0 90 63 60
        E 120 80 3e 00
        E 0 80 4b 00
        E 240 80 57 00
        E 0 80 63 00
        E 120 90 4a 60
        E 0 90 56 60
        E 0 90 62 60
        E 120 80 4a 00
        E 240 80 56 00
        E 0 80 62 00
        E 120 90 3e 60
        E 0 90 4b 60
        E 0 90 57 60
        E 0 90 63 60
        E 120 80 3e 00
        E 0 80 4b 00
        E 0 80 57 00
        E 0 80 63 00
        E 120 90 58 60
        E 0 90 64 60
        E 120 80 58 00
        E 0 80 64 00
        E 120 90 49 60
        E 0 90 55 60
        E 0 90 61 60
        E 960 80 49 00
        E 240 80 55 00
        E 0 80 61 00
        E 240 90 3e 60
        E 0 90 4b 60
        E 0 90 57 60
        E 0 90 63 60
        E 0 90 74 60
        E 120 80 3e 00
        E 0 80 4b 00
        E 0 80 57 00
        E 0 80 63 00
        E 120 90 58 60
        E 0 90 64 60
        E 120 80 58 00
        E 0 80 64 00
        E 120 90 49 60
        E 0 90 55 60
        E 0 90 61 60
        E 480 80 49 00
        E 120 80 55 00
        E 0 80 61 00
        E 120 90 54 60
        E 0 90 60 60
        E 120 80 54 00
        E 0 80 60 00
        E 120 90 49 60
        E 0 90 55 60
        E 0 90 61 60
        E 120 80 49 00
        E 0 80 55 00
        E 0 80 61 00
        E 120 90 57 60
        E 0 90 63 60
        E 120 80 57 00
        E 0 80 63 00
        E 120 90 3d 60
        E 0 90 4a 60
        E 0 90 56 60
        E 0 90 62 60
        E 120 80 3d 00
        E 0 80 4a 00
        E 0 80 56 00
        E 0 80 62 00
        E 120 90 55 60
        E 0 90 61 60
        E 240 80 74 00
        E 1080 80 55 00
        E 0 80 61 00
        E 360 90 3c 60
        E 0 90 48 60
        E 0 90 54 60
        E 0 90 60 60
        E 120 80 3c 00
        E 0 80 48 00
        E 0 80 54 00
        E 0 80 60 00
        E 120 90 55 60
        E 0 90 61 60
        E 120 80 55 00
        E 0 80 61 00
        E 120 90 4a 60
        E 0 90 56 60
        E 0 90 62 60
        E 480 80 4a 00
        E 120 80 56 00
        E 0 80 62 00
        E 120 90 55 60
        E 0 90 61 60
        E 120 80 55 00
        E 0 80 61 00
        E 120 90 48 60
        E 0 90 54 60
        E 0 90 60 60
        E 120 80 48 00
        E 0 80 54 00
        E 0 80 60 00
        E 120 90 55 60
        E 0 90 61 60
        E 120 80 55 00
        E 0 80 61 00
        E 120 90 3e 60
        E 0 90 4b 60
        E 0 90 57 60
        E 0 90 63 60
        E 1440 80 3e 00
        E 0 80 4b 00
        E 120 80 57 00
        E 0 80 63 00
        E 360 90 3c 60
        E 0 90 48 60
        E 0 90 54 60
        E 0 90 60 60
        E 120 80 3c 00
        E 0 80 48 00
        E 0 80 54 00
        E 0 80 60 00
        E 120 90 55 60
        E 0 90 61 60
        E 120 80 55 00
        E 0 80 61 00
        E 120 90 4b 60
        E 0 90 57 60
        E 0 90 63 60
        E 480 80 4b 00
        E 120 80 57 00
        E 0 80 63 00
        E 120 90 55 60
        E 0 90 61 60
        E 120 80 55 00
        E 0 80 61 00
        E 120 90 48 60
        E 0 90 54 60
        E 0 90 60 60
        E 120 80 48 00
        E 0 80 54 00
        E 0 80 60 00
        E 120 90 55 60
        E 0 90 61 60
        E 120 80 55 00
        E 0 80 61 00
        E 120 90 40 60
        E 0 90 4c 60
        E 0 90 58 60
        E 0 90 64 60
        E 960 80 40 00
        E 0 80 4c 00
        E 240 80 58 00
        E 0 80 64 00
        E 240 90 4a 60
        E 0 90 56 60
        E 0 90 62 60
        E 120 80 4a 00
        E 0 80 56 00
        E 0 80 62 00
        E 120 90 57 60
        E 0 90 63 60
        E 120 80 57 00
        E 0 80 63 00
        E 120 90 3d 60
        E 0 90 49 60
        E 0 90 55 60
        E 0 90 61 60
        E 120 80 3d 00
        E 0 80 49 00
        E 240 80 55 00
        E 0 80 61 00
        E 120 90 4c 60
        E 0 90 58 60
        E 0 90 64 60
        E 120 80 4c 00
        E 240 80 58 00
        E 0 80 64 00
        E 120 90 3e 60
        E 0 90 4b 60
        E 0 90 57 60
        E 0 90 63 60
        E 120 80 3e 00
        E 0 80 4b 00
        E 240 80 57 00
        E 0 80 63 00
        E 120 90 4a 60
        E 0 90 56 60
        E 0 90 62 60
        E 120 80 4a 00
        E 240 80 56 00
        E 0 80 62 00
        E 120 90 3e 60
        E 0 90 4b 60
        E 0 90 57 60
        E 0 90 63 60
        E 120 80 3e 00
        E 0 80 4b 00
        E 0 80 57 00
        E 0 80 63 00
        E 120 90 58 60
        E 0 90 64 60
        E 120 80 58 00
        E 0 80 64 00
        E 120 90 49 60
        E 0 90 55 60
        E 0 90 61 60
        E 960 80 49 00
        E 240 80 55 00
        E 0 80 61 00
        E 240 90 3e 60
        E 0 90 4b 60
        E 0 90 57 60
        E 0 90 63 60
        E 0 90 74 60
        E 120 80 3e 00
        E 0 80 4b 00
        E 0 80 57 00
        E 0 80 63 00
        E 120 90 58 60
        E 0 90 64 60
        E 120 80 58 00
        E 0 80 64 00
        E 120 90 49 60
        E 0 90 55 60
        E 0 90 61 60
        E 480 80 49 00
        E 120 80 55 00
        E 0 80 61 00
        E 120 90 54 60
        E 0 90 60 60
        E 120 80 54 00
        E 0 80 60 00
        E 120 90 49 60
        E 0 90 55 60
        E 0 90 61 60
        E 120 80 49 00
        E 0 80 55 00
        E 0 80 61 00
        E 120 90 57 60
        E 0 90 63 60
        E 120 80 57 00
        E 0 80 63 00
        E 120 90 3d 60
        E 0 90 4a 60
        E 0 90 56 60
        E 0 90 62 60
        E 120 80 3d 00
        E 0 80 4a 00
        E 0 80 56 00
        E 0 80 62 00
        E 120 90 55 60
        E 0 90 61 60
        E 1320 80 55 00
        E 0 80 61 00
        E 360 80 74 00
        E 0 90 3c 60
        E 0 90 48 60
        E 0 90 54 60
        E 0 90 60 60
        E 120 80 3c 00
        E 0 80 48 00
        E 0 80 54 00
        E 0 80 60 00
        E 120 90 55 60
        E 0 90 61 60
        E 120 80 55 00
        E 0 80 61 00
        E 120 90 4a 60
        E 0 90 56 60
        E 0 90 62 60
        E 480 80 4a 00
        E 120 80 56 00
        E 0 80 62 00
        E 120 90 55 60
        E 0 90 61 60
        E 120 80 55 00
        E 0 80 61 00
        E 120 90 48 60
        E 0 90 54 60
        E 0 90 60 60
        E 120 80 48 00
        E 0 80 54 00
        E 0 80 60 00
        E 120 90 55 60
        E 0 90 61 60
        E 120 80 55 00
        E 0 80 61 00
        E 120 90 3e 60
        E 0 90 4b 60
        E 0 90 57 60
        E 0 90 63 60
        E 1440 80 3e 00
        E 0 80 4b 00
        E 120 80 57 00
        E 0 80 63 00
        E 360 90 3c 60
        E 0 90 48 60
        E 0 90 54 60
        E 0 90 60 60
        E 120 80 3c 00
        E 0 80 48 00
        E 0 80 54 00
        E 0 80 60 00
        E 120 90 55 60
        E 0 90 61 60
        E 120 80 55 00
        E 0 80 61 00
        E 120 90 4b 60
        E 0 90 57 60
        E 0 90 63 60
        E 480 80 4b 00
        E 120 80 57 00
        E 0 80 63 00
        E 120 90 55 60
        E 0 90 61 60
        E 120 80 55 00
        E 0 80 61 00
        E 120 90 48 60
        E 0 90 54 60
        E 0 90 60 60
        E 120 80 48 00
        E 0 80 54 00
        E 0 80 60 00
        E 120 90 55 60
        E 0 90 61 60
        E 120 80 55 00
        E 0 80 61 00
        E 120 90 3d 60
        E 0 90 4a 60
        E 0 90 56 60
        E 0 90 62 60
        E 1680 80 3d 00
        E 0 80 4a 00
        E 0 80 56 00
        E 0 80 62 00
        <X 240 0
          /wFbaWRsZV0=
        >
        E 0 80 28 00
        <X 7440 0
          /wFbbWVsbG93XQ==
        >
        E 240 90 28 60
        E 0 90 3d 60
        E 0 90 49 60
        E 0 90 55 60
        E 0 90 61 60
        E 0 90 74 60
        E 120 80 3d 00
        E 0 80 49 00
        E 240 80 55 00
        E 0 80 61 00
        E 120 90 4c 60
        E 0 90 58 60
        E 0 90 64 60
        E 120 80 4c 00
        E 240 80 58 00
        E 0 80 64 00
        E 120 90 3e 60
        E 0 90 4b 60
        E 0 90 57 60
        E 0 90 63 60
        E 120 80 3e 00
        E 0 80 4b 00
        E 240 80 57 00
        E 0 80 63 00
        E 120 90 4a 60
        E 0 90 56 60
        E 0 90 62 60
        E 120 80 4a 00
        E 240 80 56 00
        E 0 80 62 00
        E 120 90 3e 60
        E 0 90 4b 60
        E 0 90 57 60
        E 0 90 63 60
        E 120 80 3e 00
        E 0 80 4b 00
        E 0 80 57 00
        E 0 80 63 00
        E 120 90 58 60
        E 0 90 64 60
        E 120 80 58 00
        E 0 80 64 00
        E 120 90 49 60
        E 0 90 55 60
        E 0 90 61 60
        E 480 80 74 00
        E 480 80 49 00
        E 240 80 55 00
        E 0 80 61 00
        E 240 90 3e 60
        E 0 90 4b 60
        E 0 90 57 60
        E 0 90 63 60
        E 120 80 3e 00
        E 0 80 4b 00
        E 0 80 57 00
        E 0 80 63 00
        E 120 90 58 60
        E 0 90 64 60
        E 120 80 58 00
        E 0 80 64 00
        E 120 90 49 60
        E 0 90 55 60
        E 0 90 61 60
        E 480 80 49 00
        E 120 80 55 00
        E 0 80 61 00
        E 120 90 54 60
        E 0 90 60 60
        E 120 80 54 00
        E 0 80 60 00
        E 120 90 49 60
        E 0 90 55 60
        E 0 90 61 60
        E 120 80 49 00
        E 0 80 55 00
        E 0 80 61 00
        E 120 90 57 60
        E 0 90 63 60
        E 120 80 57 00
        E 0 80 63 00
        E 120 90 3d 60
        E 0 90 4a 60
        E 0 90 56 60
        E 0 90 62 60
        E 120 80 3d 00
        E 0 80 4a 00
        E 0 80 56 00
        E 0 80 62 00
        E 120 90 55 60
        E 0 90 61 60
        E 1320 80 55 00
        E 0 80 61 00
        E 360 90 3c 60
        E 0 90 48 60
        E 0 90 54 60
        E 0 90 60 60
        E 120 80 3c 00
        E 0 80 48 00
        E 0 80 54 00
        E 0 80 60 00
        E 120 90 55 60
        E 0 90 61 60
        E 120 80 55 00
        E 0 80 61 00
        E 120 90 4a 60
        E 0 90 56 60
        E 0 90 62 60
        E 480 80 4a 00
        E 120 80 56 00
        E 0 80 62 00
        E 120 90 55 60
        E 0 90 61 60
        E 120 80 55 00
        E 0 80 61 00
        E 120 90 48 60
        E 0 90 54 60
        E 0 90 60 60
        E 120 80 48 00
        E 0 80 54 00
        E 0 80 60 00
        E 120 90 55 60
        E 0 90 61 60
        E 120 80 55 00
        E 0 80 61 00
        E 120 90 3e 60
        E 0 90 4b 60
        E 0 90 57 60
        E 0 90 63 60
        E 1440 80 3e 00
        E 0 80 4b 00
        E 120 80 57 00
        E 0 80 63 00
        E 360 90 3c 60
        E 0 90 48 60
        E 0 90 54 60
        E 0 90 60 60
        E 120 80 3c 00
        E 0 80 48 00
        E 0 80 54 00
        E 0 80 60 00
        E 120 90 55 60
        E 0 90 61 60
        E 120 80 55 00
        E 0 80 61 00
        E 120 90 4b 60
        E 0 90 57 60
        E 0 90 63 60
        E 480 80 4b 00
        E 120 80 57 00
        E 0 80 63 00
        E 120 90 55 60
        E 0 90 61 60
        E 120 80 55 00
        E 0 80 61 00
        E 120 90 48 60
        E 0 90 54 60
        E 0 90 60 60
        E 120 80 48 00
        E 0 80 54 00
        E 0 80 60 00
        E 120 90 55 60
        E 0 90 61 60
        E 120 80 55 00
        E 0 80 61 00
        E 120 90 3d 60
        E 0 90 4a 60
        E 0 90 56 60
        E 0 90 62 60
        E 1680 80 3d 00
        E 0 80 4a 00
        E 0 80 56 00
        E 0 80 62 00
        <X 240 0
          /wFbaWRsZV0=
        >
        E 0 80 28 00
        <X 7679 0
          /wFbaWRsZV9yZWFsdGltZV0=
        >
        E 3840 b0 7b 00
        GUID {3A165229-4E74-4402-B934-C7941B357F1F}
        IGNTEMPO 0 120.00000000 4 4
        SRCCOLOR 3
        VELLANE 132 128 60
        COLORMAP "C:\Program Files\REAPER (x64)\Data\color_maps\rockband_guitarbass.png"
        CFGEDITVIEW -4814.302309 9.601920 0 12 0 0 0
        CFGEDIT 1 1 0 1 1 0 1 1 1 1 1 0.25000000 -8 -8 1544 872 0 2 1 1 0.00000000 0 1 1 0 0.500000 0 0 1.000000 64
        KEYSNAP 0 7 "102030050700" 0 "Pentatonic"
        EVTFILTER 0 -1 -1 -1 -1 0 1 0 0 -1.00000000 -1.00000000
      >
    >
  >
  <TRACK '{FC29867C-AEC5-4B1E-9ECA-B05BFDEDA52B}'
    NAME "guitar"
    PEAKCOL 16576
    BEAT -1
    AUTOMODE 0
    VOLPAN 1.00000000000000 0.00000000000000 -1.00000000000000 -1.00000000000000 1.00000000000000
    MUTESOLO 0 0 0
    IPHASE 0
    ISBUS 2 -1
    BUSCOMP 0 0
    SHOWINMIX 1 0.666700 0.500000 1 0.500000 -1 -1 -1
    FREEMODE 0
    SEL 0
    REC 0 0 0 0 0 0 0
    VU 2
    TRACKHEIGHT 0 0
    INQ 0 0 0 0.5000000000 100 0 0 100
    NCHAN 2
    FX 1
    TRACKID {FC29867C-AEC5-4B1E-9ECA-B05BFDEDA52B}
    PERF 0
    MIDIOUT -1
    MAINSEND 1 0
    <ITEM
      POSITION 0.00000000000000
      SNAPOFFS 0.00000000000000
      LENGTH 116.95582766439910
      LOOP 0
      ALLTAKES 0
      SEL 0
      FADEIN 1 0.000000 0.000000 1 0
      FADEOUT 1 0.000000 0.000000 1 0
      MUTE 0
      IGUID {DC0262B8-499A-4894-B53D-B5972D2F4196}
      IID 16
      NAME "guitar.wav"
      VOLPAN 1.000000 0.000000 1.000000 -1.000000
      SOFFS 0.00000000000000
      PLAYRATE 1.00000000000000 1 0.00000000000000 -1
      CHANMODE 0
      GUID {09F43FB3-BEE5-41C6-A9EF-7F1EBDC105E4}
      <SOURCE WAVE
        FILE "wav\guitar.wav"
      >
    >
  >
  <TRACK '{25E3500D-9F5C-4158-83A5-531FC216CAE9}'
    NAME "PART KEYS"
    PEAKCOL 16576
    BEAT -1
    AUTOMODE 0
    VOLPAN 1.00000000000000 0.00000000000000 -1.00000000000000 -1.00000000000000 1.00000000000000
    MUTESOLO 0 0 0
    IPHASE 0
    ISBUS 1 1
    BUSCOMP 0 0
    SHOWINMIX 1 0.666700 0.500000 1 0.500000 -1 -1 -1
    FREEMODE 0
    SEL 0
    REC 0 0 0 0 0 0 0
    VU 2
    TRACKHEIGHT 0 0
    INQ 0 0 0 0.5000000000 100 0 0 100
    NCHAN 2
    FX 1
    TRACKID {25E3500D-9F5C-4158-83A5-531FC216CAE9}
    PERF 0
    MIDIOUT -1
    <MIDINOTENAMES
      0 127 "TRILL MARKER"
      0 125 "---"
      0 124 "BRE"
      0 123 "BRE"
      0 122 "BRE"
      0 121 "BRE"
      0 120 "BRE (use all 5)"
      0 119 "----"
      0 116 "OVERDRIVE"
      0 115 "----"
      0 103 "Solo Marker"
      0 102 "Force HOPO Off"
      0 101 "Force HOPO On"
      0 100 "EXPERT Orange"
      0 99 "EXPERT Blue"
      0 98 "EXPERT Yellow"
      0 97 "EXPERT Red"
      0 96 "EXPERT Green"
      0 95 "----"
      0 90 "Force HOPO Off"
      0 89 "Force HOPO On"
      0 88 "HARD Orange"
      0 87 "HARD Blue"
      0 86 "HARD Yellow"
      0 85 "HARD Red"
      0 84 "HARD Green"
      0 77 "----"
      0 76 "MEDIUM Orange"
      0 75 "MEDIUM Blue"
      0 74 "MEDIUM Yellow"
      0 73 "MEDIUM Red"
      0 72 "MEDIUM Green"
      0 65 "----"
      0 64 "EASY Orange"
      0 63 "EASY Blue"
      0 62 "EASY Yellow"
      0 61 "EASY Red"
      0 60 "EASY Green"
    >
    MAINSEND 1 0
    <FXCHAIN
      WNDRECT 0 43 891 559
      SHOW 0
      LASTSEL 0
      DOCKED 0
      BYPASS 0 0
      <VST "VSTi: RBN Preview (RBN)" "rbprev_vst64.dll" 0 ""
        dnBicu5e7f4AAAAAAgAAAAEAAAAAAAAAAgAAAAAAAAAEAAAAAQAAAA==
        AAAQAAMAqgAAABAAAAA=
      >
      FLOATPOS 0 0 0 0
      FXID {750CB639-0181-4D63-94F7-74CB4BB70FB8}
      WAK 0
    >
    <ITEM
      POSITION 0.00000000000000
      SNAPOFFS 0.00000000000000
      LENGTH 116.95500000000000
      LOOP 0
      ALLTAKES 0
      SEL 0
      FADEIN 1 0.000000 0.000000 1 0
      FADEOUT 1 0.000000 0.000000 1 0
      MUTE 0
      IGUID {B55DA474-01C6-4173-A918-CFD35149D2F9}
      IID 3
      NAME "PART KEYS"
      VOLPAN 1.000000 0.000000 1.000000 -1.000000
      SOFFS 0.00000000000000 0.00000000000000
      PLAYRATE 1.00000000000000 1 0.00000000000000 -1
      CHANMODE 0
      GUID {9C358200-7519-47BC-8EF0-4EBCB0166F37}
      <SOURCE MIDI
        HASDATA 1 480 QN
        POOLEDEVTS {2CA7BB27-8C5B-46DC-BA99-F0327985C527}
        <X 0 0
          /wNQQVJUIEtFWVM=
        >
        <X 3720 0
          /wFbbWVsbG93XQ==
        >
        E 120 90 3d 60
        E 0 90 48 60
        E 0 90 54 60
        E 0 90 60 60
        E 120 80 3d 00
        E 0 80 48 00
        E 0 80 54 00
        E 0 80 60 00
        E 120 90 56 60
        E 0 90 62 60
        E 120 80 56 00
        E 0 80 62 00
        E 120 90 4b 60
        E 0 90 57 60
        E 0 90 63 60
        E 120 80 4b 00
        E 0 80 57 00
        E 0 80 63 00
        E 120 90 3e 60
        E 0 90 58 60
        E 0 90 64 60
        E 120 80 3e 00
        E 0 80 58 00
        E 0 80 64 00
        E 1080 90 3c 60
        E 0 90 48 60
        E 0 90 54 60
        E 0 90 60 60
        E 120 80 3c 00
        E 0 80 48 00
        E 0 80 54 00
        E 0 80 60 00
        E 120 90 56 60
        E 0 90 62 60
        E 120 80 56 00
        E 0 80 62 00
        E 120 90 4b 60
        E 0 90 57 60
        E 0 90 63 60
        E 120 80 4b 00
        E 0 80 57 00
        E 0 80 63 00
        E 120 90 3e 60
        E 0 90 55 60
        E 0 90 61 60
        E 120 80 3e 00
        E 0 80 55 00
        E 0 80 61 00
        E 1080 90 3c 60
        E 0 90 48 60
        E 0 90 54 60
        E 0 90 60 60
        E 120 80 3c 00
        E 0 80 48 00
        E 0 80 54 00
        E 0 80 60 00
        E 120 90 55 60
        E 0 90 61 60
        E 120 80 55 00
        E 0 80 61 00
        E 120 90 4a 60
        E 0 90 56 60
        E 0 90 62 60
        E 120 80 4a 00
        E 0 80 56 00
        E 0 80 62 00
        E 120 90 3d 60
        E 0 90 57 60
        E 0 90 63 60
        E 120 80 3d 00
        E 0 80 57 00
        E 0 80 63 00
        E 1080 90 3d 60
        E 0 90 49 60
        E 0 90 55 60
        E 0 90 61 60
        E 120 80 3d 00
        E 0 80 49 00
        E 0 80 55 00
        E 0 80 61 00
        E 120 90 56 60
        E 0 90 62 60
        E 120 80 56 00
        E 0 80 62 00
        E 120 90 4b 60
        E 0 90 57 60
        E 0 90 63 60
        E 120 80 4b 00
        E 0 80 57 00
        E 0 80 63 00
        E 120 90 3e 60
        E 0 90 58 60
        E 0 90 64 60
        E 120 80 3e 00
        E 0 80 58 00
        E 0 80 64 00
        E 1080 90 3c 60
        E 0 90 48 60
        E 0 90 54 60
        E 0 90 60 60
        E 120 80 3c 00
        E 0 80 48 00
        E 0 80 54 00
        E 0 80 60 00
        E 120 90 56 60
        E 0 90 62 60
        E 120 80 56 00
        E 0 80 62 00
        E 120 90 4b 60
        E 0 90 57 60
        E 0 90 63 60
        E 120 80 4b 00
        E 0 80 57 00
        E 0 80 63 00
        E 120 90 3e 60
        E 0 90 58 60
        E 0 90 64 60
        E 120 80 3e 00
        E 0 80 58 00
        E 0 80 64 00
        E 1080 90 3d 60
        E 0 90 4a 60
        E 0 90 56 60
        E 0 90 62 60
        E 120 80 3d 00
        E 0 80 4a 00
        E 0 80 56 00
        E 0 80 62 00
        E 120 90 57 60
        E 0 90 63 60
        E 120 80 57 00
        E 0 80 63 00
        E 120 90 4a 60
        E 0 90 56 60
        E 0 90 62 60
        E 120 80 4a 00
        E 0 80 56 00
        E 0 80 62 00
        E 120 90 3e 60
        E 0 90 58 60
        E 0 90 64 60
        E 120 80 3e 00
        E 0 80 58 00
        E 0 80 64 00
        E 1080 90 3d 60
        E 0 90 48 60
        E 0 90 54 60
        E 0 90 60 60
        E 0 90 74 60
        E 120 80 3d 00
        E 0 80 48 00
        E 0 80 54 00
        E 0 80 60 00
        E 120 90 55 60
        E 0 90 61 60
        E 120 80 55 00
        E 0 80 61 00
        E 120 90 4a 60
        E 0 90 56 60
        E 0 90 62 60
        E 120 80 4a 00
        E 0 80 56 00
        E 0 80 62 00
        E 120 90 3e 60
        E 0 90 58 60
        E 0 90 64 60
        E 120 80 3e 00
        E 0 80 58 00
        E 0 80 64 00
        E 1080 90 3d 60
        E 0 90 48 60
        E 0 90 54 60
        E 0 90 60 60
        E 120 80 3d 00
        E 0 80 48 00
        E 0 80 54 00
        E 0 80 60 00
        E 120 90 55 60
        E 0 90 61 60
        E 120 80 55 00
        E 0 80 61 00
        E 120 90 4a 60
        E 0 90 56 60
        E 0 90 62 60
        E 120 80 4a 00
        E 0 80 56 00
        E 0 80 62 00
        E 120 90 3e 60
        E 0 90 57 60
        E 0 90 63 60
        E 120 80 3e 00
        E 0 80 57 00
        E 0 80 63 00
        E 120 80 74 00
        E 960 90 3c 60
        E 0 90 48 60
        E 0 90 54 60
        E 0 90 60 60
        E 120 80 3c 00
        E 0 80 48 00
        E 0 80 54 00
        E 0 80 60 00
        E 120 90 55 60
        E 0 90 61 60
        E 120 80 55 00
        E 0 80 61 00
        E 120 90 4a 60
        E 0 90 56 60
        E 0 90 62 60
        E 120 80 4a 00
        E 0 80 56 00
        E 0 80 62 00
        E 120 90 3e 60
        E 0 90 57 60
        E 0 90 63 60
        E 120 80 3e 00
        E 0 80 57 00
        E 0 80 63 00
        E 1080 90 3d 60
        E 0 90 49 60
        E 0 90 55 60
        E 0 90 61 60
        E 120 80 3d 00
        E 0 80 49 00
        E 0 80 55 00
        E 0 80 61 00
        E 120 90 56 60
        E 0 90 62 60
        E 120 80 56 00
        E 0 80 62 00
        E 120 90 4b 60
        E 0 90 57 60
        E 0 90 63 60
        E 120 80 4b 00
        E 0 80 57 00
        E 0 80 63 00
        E 120 90 58 60
        E 0 90 64 60
        E 120 80 58 00
        E 0 80 64 00
        E 120 90 3d 60
        E 0 90 49 60
        E 0 90 4a 60
        E 0 90 54 60
        E 0 90 57 60
        E 0 90 60 60
        E 0 90 62 60
        E 0 90 63 60
        E 120 80 3d 00
        E 360 80 49 00
        E 0 80 4a 00
        E 360 80 54 00
        E 0 80 57 00
        E 0 80 60 00
        E 0 80 62 00
        E 0 80 63 00
        E 120 90 3e 60
        E 0 90 4a 60
        E 0 90 4c 60
        E 0 90 55 60
        E 0 90 58 60
        E 0 90 61 60
        E 0 90 62 60
        E 0 90 64 60
        E 1440 80 3e 00
        E 0 80 4a 00
        E 0 80 4c 00
        E 360 80 55 00
        E 0 80 58 00
        E 0 80 61 00
        E 0 80 64 00
        E 120 90 3c 60
        E 0 90 49 60
        E 0 90 4a 60
        E 0 90 54 60
        E 0 90 57 60
        E 0 90 60 60
        E 0 90 63 60
        E 480 80 3c 00
        E 0 80 49 00
        E 0 80 4a 00
        E 360 80 62 00
        E 0 80 54 00
        E 0 80 57 00
        E 120 90 3d 60
        E 0 90 49 60
        E 0 90 55 60
        E 0 90 61 60
        E 960 90 74 60
        E 1440 80 3d 00
        E 0 80 49 00
        E 360 80 60 00
        E 0 80 63 00
        E 0 80 55 00
        E 0 80 61 00
        E 120 90 3c 60
        E 0 90 48 60
        E 0 90 4a 60
        E 0 90 54 60
        E 0 90 56 60
        E 0 90 60 60
        E 0 90 62 60
        E 480 80 3c 00
        E 0 80 48 00
        E 0 80 4a 00
        E 360 80 54 00
        E 0 80 56 00
        E 0 80 60 00
        E 0 80 62 00
        E 120 90 3d 60
        E 0 90 49 60
        E 0 90 4b 60
        E 0 90 55 60
        E 0 90 57 60
        E 0 90 61 60
        E 0 90 63 60
        E 480 80 3d 00
        E 0 80 49 00
        E 0 80 4b 00
        E 360 80 55 00
        E 0 80 57 00
        E 0 80 61 00
        E 0 80 63 00
        E 120 80 74 00
        E 0 90 3e 60
        E 0 90 4a 60
        E 0 90 4c 60
        E 0 90 55 60
        E 0 90 58 60
        E 0 90 61 60
        E 0 90 62 60
        E 0 90 64 60
        E 1440 80 3e 00
        E 0 80 4a 00
        E 0 80 4c 00
        E 360 80 55 00
        E 0 80 58 00
        E 0 80 61 00
        E 0 80 64 00
        E 120 90 3c 60
        E 0 90 49 60
        E 0 90 4a 60
        E 0 90 54 60
        E 0 90 57 60
        E 0 90 60 60
        E 0 90 63 60
        E 480 80 3c 00
        E 0 80 49 00
        E 0 80 4a 00
        E 360 80 62 00
        E 0 80 54 00
        E 0 80 57 00
        E 120 90 3d 60
        E 0 90 49 60
        E 0 90 55 60
        E 0 90 61 60
        E 2400 80 3d 00
        E 0 80 49 00
        E 360 80 60 00
        E 0 80 63 00
        E 0 80 55 00
        E 0 80 61 00
        E 120 90 3c 60
        E 0 90 4a 60
        E 0 90 4c 60
        E 0 90 55 60
        E 0 90 58 60
        E 0 90 61 60
        E 0 90 64 60
        E 1440 80 3c 00
        E 0 80 4a 00
        E 0 80 4c 00
        E 360 80 55 00
        E 0 80 58 00
        E 0 80 61 00
        E 0 80 64 00
        E 120 90 3e 60
        E 0 90 4b 60
        E 0 90 57 60
        E 0 90 63 60
        E 0 90 74 60
        E 120 80 3e 00
        E 0 80 4b 00
        E 0 80 57 00
        E 0 80 63 00
        E 360 90 48 60
        E 0 90 54 60
        E 0 90 60 60
        E 120 80 48 00
        E 0 80 54 00
        E 0 80 60 00
        E 120 90 55 60
        E 0 90 61 60
        E 120 80 55 00
        E 0 80 61 00
        E 120 90 3c 60
        E 0 90 4a 60
        E 0 90 56 60
        E 0 90 62 60
        E 120 80 3c 00
        E 0 80 4a 00
        E 0 80 56 00
        E 0 80 62 00
        E 600 90 58 60
        E 0 90 64 60
        E 120 80 58 00
        E 0 80 64 00
        E 120 90 3e 60
        E 0 90 4b 60
        E 0 90 57 60
        E 0 90 63 60
        E 120 80 3e 00
        E 0 80 4b 00
        E 0 80 57 00
        E 0 80 63 00
        E 840 90 3d 60
        E 0 90 4a 60
        E 0 90 56 60
        E 0 90 62 60
        E 120 80 3d 00
        E 0 80 4a 00
        E 0 80 56 00
        E 0 80 62 00
        E 360 80 74 00
        E 480 90 3e 60
        E 0 90 4b 60
        E 0 90 57 60
        E 0 90 63 60
        E 120 80 3e 00
        E 0 80 4b 00
        E 0 80 57 00
        E 0 80 63 00
        E 360 90 48 60
        E 0 90 54 60
        E 0 90 60 60
        E 120 80 48 00
        E 0 80 54 00
        E 0 80 60 00
        E 120 90 55 60
        E 0 90 61 60
        E 120 80 55 00
        E 0 80 61 00
        E 120 90 3c 60
        E 0 90 4a 60
        E 0 90 56 60
        E 0 90 62 60
        E 120 80 3c 00
        E 0 80 4a 00
        E 0 80 56 00
        E 0 80 62 00
        E 360 90 4c 60
        E 0 90 58 60
        E 0 90 64 60
        E 120 80 4c 00
        E 0 80 58 00
        E 0 80 64 00
        E 360 90 3d 60
        E 0 90 4b 60
        E 0 90 57 60
        E 0 90 63 60
        E 120 80 3d 00
        E 0 80 4b 00
        E 0 80 57 00
        E 0 80 63 00
        E 1800 90 3e 60
        E 0 90 4a 60
        E 0 90 4c 60
        E 0 90 55 60
        E 0 90 58 60
        E 0 90 61 60
        E 0 90 62 60
        E 0 90 64 60
        E 1440 80 3e 00
        E 0 80 4a 00
        E 0 80 4c 00
        E 360 80 55 00
        E 0 80 58 00
        E 0 80 61 00
        E 0 80 64 00
        E 120 90 3c 60
        E 0 90 49 60
        E 0 90 4a 60
        E 0 90 54 60
        E 0 90 57 60
        E 0 90 60 60
        E 0 90 63 60
        E 480 80 3c 00
        E 0 80 49 00
        E 0 80 4a 00
        E 360 80 62 00
        E 0 80 54 00
        E 0 80 57 00
        E 120 90 3d 60
        E 0 90 49 60
        E 0 90 55 60
        E 0 90 61 60
        E 2399 80 3d 00
        E 1 80 49 00
        E 360 80 60 00
        E 0 80 63 00
        E 0 80 55 00
        E 0 80 61 00
        E 120 90 3c 60
        E 0 90 48 60
        E 0 90 4a 60
        E 0 90 54 60
        E 0 90 56 60
        E 0 90 60 60
        E 0 90 62 60
        E 0 90 74 60
        E 480 80 3c 00
        E 0 80 48 00
        E 0 80 4a 00
        E 360 80 54 00
        E 0 80 56 00
        E 0 80 60 00
        E 0 80 62 00
        E 120 90 3d 60
        E 0 90 49 60
        E 0 90 4b 60
        E 0 90 55 60
        E 0 90 57 60
        E 0 90 61 60
        E 0 90 63 60
        E 480 80 3d 00
        E 0 80 49 00
        E 0 80 4b 00
        E 360 80 55 00
        E 0 80 57 00
        E 0 80 61 00
        E 0 80 63 00
        E 120 80 74 00
        E 0 90 3e 60
        E 0 90 4a 60
        E 0 90 4c 60
        E 0 90 55 60
        E 0 90 58 60
        E 0 90 61 60
        E 0 90 62 60
        E 0 90 64 60
        E 1440 80 3e 00
        E 0 80 4a 00
        E 0 80 4c 00
        E 360 80 55 00
        E 0 80 58 00
        E 0 80 61 00
        E 0 80 64 00
        E 120 90 3c 60
        E 0 90 49 60
        E 0 90 4a 60
        E 0 90 54 60
        E 0 90 57 60
        E 0 90 60 60
        E 0 90 63 60
        E 480 80 3c 00
        E 0 80 49 00
        E 0 80 4a 00
        E 360 80 62 00
        E 0 80 54 00
        E 0 80 57 00
        E 120 90 3d 60
        E 0 90 49 60
        E 0 90 55 60
        E 0 90 61 60
        E 2400 80 3d 00
        E 0 80 49 00
        E 360 80 60 00
        E 0 80 63 00
        E 0 80 55 00
        E 0 80 61 00
        E 120 90 3c 60
        E 0 90 4a 60
        E 0 90 4c 60
        E 0 90 55 60
        E 0 90 58 60
        E 0 90 61 60
        E 0 90 64 60
        E 1440 80 3c 00
        E 0 80 4a 00
        E 0 80 4c 00
        E 360 80 55 00
        E 0 80 58 00
        E 0 80 61 00
        E 0 80 64 00
        E 120 90 3e 60
        E 0 90 4b 60
        E 0 90 57 60
        E 0 90 63 60
        E 120 80 3e 00
        E 0 80 4b 00
        E 0 80 57 00
        E 0 80 63 00
        E 360 90 48 60
        E 0 90 54 60
        E 0 90 60 60
        E 120 80 48 00
        E 0 80 54 00
        E 0 80 60 00
        E 120 90 55 60
        E 0 90 61 60
        E 120 80 55 00
        E 0 80 61 00
        E 120 90 3c 60
        E 0 90 4a 60
        E 0 90 56 60
        E 0 90 62 60
        E 120 80 3c 00
        E 0 80 4a 00
        E 0 80 56 00
        E 0 80 62 00
        E 600 90 58 60
        E 0 90 64 60
        E 120 80 58 00
        E 0 80 64 00
        E 120 90 3e 60
        E 0 90 4b 60
        E 0 90 57 60
        E 0 90 63 60
        E 120 80 3e 00
        E 0 80 4b 00
        E 0 80 57 00
        E 0 80 63 00
        E 840 90 3d 60
        E 0 90 4a 60
        E 0 90 56 60
        E 0 90 62 60
        E 120 80 3d 00
        E 0 80 4a 00
        E 0 80 56 00
        E 0 80 62 00
        E 840 90 3e 60
        E 0 90 4b 60
        E 0 90 57 60
        E 0 90 63 60
        E 120 80 3e 00
        E 0 80 4b 00
        E 0 80 57 00
        E 0 80 63 00
        E 360 90 48 60
        E 0 90 54 60
        E 0 90 60 60
        E 120 80 48 00
        E 0 80 54 00
        E 0 80 60 00
        E 120 90 55 60
        E 0 90 61 60
        E 120 80 55 00
        E 0 80 61 00
        E 120 90 3c 60
        E 0 90 4a 60
        E 0 90 56 60
        E 0 90 62 60
        E 120 80 3c 00
        E 0 80 4a 00
        E 0 80 56 00
        E 0 80 62 00
        E 360 90 4c 60
        E 0 90 58 60
        E 0 90 64 60
        E 120 80 4c 00
        E 0 80 58 00
        E 0 80 64 00
        E 360 90 3d 60
        E 0 90 4b 60
        E 0 90 57 60
        E 0 90 63 60
        E 120 80 3d 00
        E 0 80 4b 00
        E 0 80 57 00
        E 0 80 63 00
        <X 1799 0
          /wFbaWRsZV9yZWFsdGltZV0=
        >
        E 3840 b0 7b 00
        GUID {CD967CBA-2D1A-4DE3-A197-2FA477FC0F25}
        IGNTEMPO 0 120.00000000 4 4
        SRCCOLOR 4
        VELLANE 132 128 60
        COLORMAP "C:\Program Files\REAPER (x64)\Data\color_maps\rockband_guitarbass.png"
        CFGEDITVIEW -871.383187 53.049620 0 14 0 0 0
        CFGEDIT 1 1 0 1 1 0 1 1 1 1 1 0.25000000 -8 -8 1544 872 0 2 1 1 0.00000000 0 1 1 0 0.500000 0 0 1.000000 64
        KEYSNAP 0 7 "102030050700" 0 "Pentatonic"
        EVTFILTER 0 -1 -1 -1 -1 0 1 0 0 -1.00000000 -1.00000000
      >
    >
  >
  <TRACK '{01C207AA-BA00-4E9F-B77F-501B1F2A872B}'
    NAME "PART REAL_KEYS_X"
    PEAKCOL 16576
    BEAT -1
    AUTOMODE 0
    VOLPAN 1.00000000000000 0.00000000000000 -1.00000000000000 -1.00000000000000 1.00000000000000
    MUTESOLO 0 0 0
    IPHASE 0
    ISBUS 0 0
    BUSCOMP 0 0
    SHOWINMIX 1 0.666700 0.500000 1 0.500000 -1 -1 -1
    FREEMODE 0
    SEL 0
    REC 0 0 0 0 0 0 0
    VU 2
    TRACKHEIGHT 0 0
    INQ 0 0 0 0.5000000000 100 0 0 100
    NCHAN 2
    FX 0
    TRACKID {01C207AA-BA00-4E9F-B77F-501B1F2A872B}
    PERF 0
    MIDIOUT -1
    <MIDINOTENAMES
      0 127 "TRILL MARKER"
      0 126 "GLISSANDO MARKER"
      0 125 "---"
      0 116 "OVERDRIVE"
      0 115 "SOLO"
      0 114 "---"
      0 72 "Highest playable note B#3"
      0 71 "B3"
      0 70 "A#3"
      0 69 "A3"
      0 68 "G#3"
      0 67 "G3"
      0 66 "F#3"
      0 65 "F3"
      0 64 "E3"
      0 63 "D#3"
      0 62 "D3"
      0 61 "C#3"
      0 60 "C3"
      0 59 "B2"
      0 58 "A#2"
      0 57 "A2"
      0 56 "G#2"
      0 55 "G2"
      0 54 "F#2"
      0 53 "F2"
      0 52 "E2"
      0 51 "D#2"
      0 50 "D2"
      0 49 "C#2"
      0 48 "Lowest playable note C2"
      0 10 "---"
      0 9 "Range A2-C4"
      0 8 "Range"
      0 7 "Range"
      0 6 "Range"
      0 5 "Range F2-A3"
      0 4 "Range"
      0 3 "Range"
      0 2 "Range"
      0 1 "Range"
      0 0 "Range C2-E3"
    >
    MAINSEND 1 0
    <FXCHAIN
      WNDRECT 0 43 655 467
      SHOW 0
      LASTSEL 1
      DOCKED 0
      BYPASS 0 0
      <JS "MIDI/midi_note_filter" ""
        48.000000 72.000000 - - - - - - - - - - - - - - - - - - - - - - - - - - - - - - - - - - - - - - - - - - - - - - - - - - - - - - - - - - - - - - 
      >
      FLOATPOS 0 0 0 0
      FXID {BDE2032B-A72D-4B60-B1AB-9E0C09551ECB}
      WAK 0
      BYPASS 0 0
      <VST "VSTi: ReaSynth (Cockos)" "reasynth.dll" 0 ""
        eXNlcu9e7f4AAAAAAgAAAAEAAAAAAAAAAgAAAAAAAAA4AAAAAAAAAA==
        AAAQAO++rd4N8K3eppvEOw51iD0AAIA/AAAAAAAAAADMm4A+6WeIPQ==
        AAAAAAAAAD8AAIA/AACAPwAAAD8AABAAAAA=
      >
      FLOATPOS 0 0 0 0
      FXID {A7FC5272-B00D-4604-9C3D-D76AA262AC3E}
      WAK 0
    >
    <ITEM
      POSITION 0.00000000000000
      SNAPOFFS 0.00000000000000
      LENGTH 116.95500000000000
      LOOP 0
      ALLTAKES 0
      SEL 0
      FADEIN 1 0.000000 0.000000 1 0
      FADEOUT 1 0.000000 0.000000 1 0
      MUTE 0
      IGUID {FF86EC41-0582-48C6-9B6E-A0FC5A40AC3B}
      IID 4
      NAME "PART REAL_KEYS_X"
      VOLPAN 1.000000 0.000000 1.000000 -1.000000
      SOFFS 0.00000000000000 0.00000000000000
      PLAYRATE 1.00000000000000 1 0.00000000000000 -1
      CHANMODE 0
      GUID {724DF86A-C268-4099-A94B-C8F4A8F30229}
      <SOURCE MIDI
        HASDATA 1 480 QN
        POOLEDEVTS {F93A9C31-DECE-4503-8267-F4BAE793774B}
        <X 0 0
          /wNQQVJUIFJFQUxfS0VZU19Y
        >
        E 0 90 09 60
        E 120 80 09 00
        <X 3720 0
          /wFbYmVnaW5fa2V5IHNvbmdfdHJhaW5lcl9rZXlfMV0=
        >
        E 0 90 41 60
        E 120 80 41 00
        E 120 90 40 60
        E 120 80 40 00
        E 120 90 45 60
        E 120 80 45 00
        E 120 90 48 60
        E 120 80 48 00
        E 1080 90 41 60
        E 120 80 41 00
        E 120 90 3e 60
        E 120 80 3e 00
        E 120 90 43 60
        E 120 80 43 00
        E 120 90 47 60
        E 120 80 47 00
        <X 1080 0
          /wFbZW5kX2tleSBzb25nX3RyYWluZXJfa2V5XzFd
        >
        <X 0 0
          /wFbYmVnaW5fa2V5IHNvbmdfdHJhaW5lcl9rZXlfMl0=
        >
        E 0 90 41 60
        E 120 80 41 00
        E 120 90 3c 60
        E 120 80 3c 00
        E 120 90 40 60
        E 120 80 40 00
        E 120 90 45 60
        E 120 80 45 00
        <X 1080 0
          /wFba2V5X25vcm0gc29uZ190cmFpbmVyX2tleV8yXQ==
        >
        E 0 90 41 60
        E 120 80 41 00
        E 120 90 3b 60
        E 120 80 3b 00
        E 120 90 3e 60
        E 120 80 3e 00
        E 120 90 43 60
        E 120 80 43 00
        E 1080 90 40 60
        E 120 80 40 00
        E 120 90 3b 60
        E 120 80 3b 00
        E 120 90 40 60
        E 120 80 40 00
        E 120 90 43 60
        E 120 80 43 00
        E 1080 90 39 60
        E 120 80 39 00
        E 120 90 3c 60
        E 120 80 3c 00
        E 120 90 40 60
        E 120 80 40 00
        E 120 90 45 60
        E 120 80 45 00
        <X 1080 0
          /wFbZW5kX2tleSBzb25nX3RyYWluZXJfa2V5XzJd
        >
        <X 0 0
          /wFbYmVnaW5fa2V5IHNvbmdfdHJhaW5lcl9rZXlfM10=
        >
        E 0 90 41 60
        E 0 90 74 60
        E 120 80 41 00
        E 120 90 3c 60
        E 120 80 3c 00
        E 120 90 40 60
        E 120 80 40 00
        E 120 90 45 60
        E 120 80 45 00
        E 1080 90 41 60
        E 120 80 41 00
        E 120 90 3b 60
        E 120 80 3b 00
        E 120 90 40 60
        E 120 80 40 00
        E 120 90 43 60
        E 120 80 43 00
        E 120 80 74 00
        E 960 90 40 60
        E 120 80 40 00
        E 120 90 3b 60
        E 120 80 3b 00
        E 120 90 40 60
        E 120 80 40 00
        E 120 90 43 60
        E 120 80 43 00
        E 1080 90 39 60
        E 120 80 39 00
        E 120 90 3d 60
        E 120 80 3d 00
        E 120 90 40 60
        E 120 80 40 00
        E 120 90 45 60
        E 120 80 45 00
        E 120 90 40 60
        E 0 90 43 60
        E 0 90 45 60
        E 840 80 40 00
        E 0 80 43 00
        <X 120 0
          /wFbZW5kX2tleSBzb25nX3RyYWluZXJfa2V5XzNd
        >
        <X 0 0
          /wFbYmVnaW5fa2V5IHNvbmdfdHJhaW5lcl9rZXlfNF0=
        >
        E 0 90 3c 60
        E 0 90 40 60
        E 1800 80 45 00
        E 0 80 3c 00
        E 120 90 3b 60
        E 0 90 43 60
        E 840 80 40 00
        E 120 90 3e 60
        <X 960 0
          /wFba2V5X25vcm0gc29uZ190cmFpbmVyX2tleV80XQ==
        >
        E 0 90 74 60
        E 1800 80 3b 00
        E 0 80 3e 00
        E 120 90 39 60
        E 0 90 3c 60
        E 840 80 39 00
        E 0 80 3c 00
        E 120 90 3b 60
        E 0 90 3e 60
        E 840 80 43 00
        E 0 80 3b 00
        E 0 80 3e 00
        E 120 80 74 00
        E 0 90 3c 60
        E 0 90 40 60
        E 0 90 45 60
        E 1800 80 3c 00
        E 0 80 45 00
        E 120 90 3b 60
        E 0 90 43 60
        E 840 80 40 00
        E 120 90 3e 60
        E 2760 80 3b 00
        E 0 80 3e 00
        E 120 90 39 60
        E 0 90 3c 60
        E 1800 80 43 00
        E 0 80 39 00
        E 0 80 3c 00
        <X 120 0
          /wFbZW5kX2tleSBzb25nX3RyYWluZXJfa2V5XzRd
        >
        <X 0 0
          /wFbYmVnaW5fa2V5IHNvbmdfdHJhaW5lcl9rZXlfNV0=
        >
        E 0 90 43 60
        E 0 90 74 60
        E 120 80 43 00
        E 360 90 3b 60
        E 120 80 3b 00
        E 120 90 3c 60
        E 120 80 3c 00
        E 120 90 3e 60
        E 120 80 3e 00
        E 600 90 45 60
        E 120 80 45 00
        <X 120 0
          /wFba2V5X25vcm0gc29uZ190cmFpbmVyX2tleV81XQ==
        >
        E 0 90 43 60
        E 120 80 43 00
        E 840 90 3f 60
        E 120 80 3f 00
        E 360 80 74 00
        E 480 90 43 60
        E 120 80 43 00
        E 360 90 3b 60
        E 120 80 3b 00
        E 120 90 3c 60
        E 120 80 3c 00
        E 120 90 3e 60
        E 120 80 3e 00
        E 360 90 45 60
        E 120 80 45 00
        E 360 90 43 60
        E 120 80 43 00
        <X 1800 0
          /wFbZW5kX2tleSBzb25nX3RyYWluZXJfa2V5XzVd
        >
        E 0 90 3c 60
        E 0 90 40 60
        E 0 90 45 60
        E 1800 80 3c 00
        E 0 80 45 00
        E 120 90 3b 60
        E 0 90 43 60
        E 840 80 40 00
        E 120 90 3e 60
        E 2760 80 3b 00
        E 0 80 3e 00
        E 120 90 39 60
        E 0 90 3c 60
        E 0 90 74 60
        E 840 80 39 00
        E 0 80 3c 00
        E 120 90 3b 60
        E 0 90 3e 60
        E 840 80 43 00
        E 0 80 3b 00
        E 0 80 3e 00
        E 120 80 74 00
        E 0 90 3c 60
        E 0 90 40 60
        E 0 90 45 60
        E 1800 80 3c 00
        E 0 80 45 00
        E 120 90 3b 60
        E 0 90 43 60
        E 840 80 40 00
        E 120 90 3e 60
        E 2760 80 3b 00
        E 0 80 3e 00
        E 120 90 39 60
        E 0 90 3c 60
        E 1800 80 43 00
        E 0 80 39 00
        E 0 80 3c 00
        E 120 90 43 60
        E 120 80 43 00
        E 360 90 3b 60
        E 120 80 3b 00
        E 120 90 3c 60
        E 120 80 3c 00
        E 120 90 3e 60
        E 120 80 3e 00
        E 600 90 45 60
        E 120 80 45 00
        E 120 90 43 60
        E 120 80 43 00
        E 840 90 3f 60
        E 120 80 3f 00
        E 840 90 43 60
        E 120 80 43 00
        E 360 90 3b 60
        E 120 80 3b 00
        E 120 90 3c 60
        E 120 80 3c 00
        E 120 90 3e 60
        E 120 80 3e 00
        E 360 90 45 60
        E 120 80 45 00
        E 360 90 43 60
        E 120 80 43 00
        E 5639 b0 7b 00
        GUID {281D8ADF-F728-4ADD-867F-7E532CDC86AE}
        IGNTEMPO 0 120.00000000 4 4
        SRCCOLOR 5
        VELLANE 132 128 60
        COLORMAP "C:\Program Files\REAPER (x64)\Data\color_maps\rockband_guitarbass.png"
        CFGEDITVIEW -4814.302309 9.601920 0 13 0 0 0
        CFGEDIT 1 1 0 1 1 0 1 1 1 1 1 0.25000000 -8 -8 1544 872 0 2 1 1 0.00000000 0 1 1 0 0.500000 0 0 1.000000 64
        KEYSNAP 0 7 "102030050700" 0 "Pentatonic"
        EVTFILTER 0 -1 -1 -1 -1 0 1 0 0 -1.00000000 -1.00000000
      >
    >
  >
  <TRACK '{62714DBC-9EED-4EFB-83B9-DC9DAC2C01E0}'
    NAME "PART REAL_KEYS_H"
    PEAKCOL 16576
    BEAT -1
    AUTOMODE 0
    VOLPAN 1.00000000000000 0.00000000000000 -1.00000000000000 -1.00000000000000 1.00000000000000
    MUTESOLO 0 0 0
    IPHASE 0
    ISBUS 0 0
    BUSCOMP 0 0
    SHOWINMIX 1 0.666700 0.500000 1 0.500000 -1 -1 -1
    FREEMODE 0
    SEL 0
    REC 0 0 0 0 0 0 0
    VU 2
    TRACKHEIGHT 0 0
    INQ 0 0 0 0.5000000000 100 0 0 100
    NCHAN 2
    FX 1
    TRACKID {62714DBC-9EED-4EFB-83B9-DC9DAC2C01E0}
    PERF 0
    MIDIOUT -1
    <MIDINOTENAMES
      0 72 "Highest playable note B#3"
      0 71 "B3"
      0 70 "A#3"
      0 69 "A3"
      0 68 "G#3"
      0 67 "G3"
      0 66 "F#3"
      0 65 "F3"
      0 64 "E3"
      0 63 "D#3"
      0 62 "D3"
      0 61 "C#3"
      0 60 "C3"
      0 59 "B2"
      0 58 "A#2"
      0 57 "A2"
      0 56 "G#2"
      0 55 "G2"
      0 54 "F#2"
      0 53 "F2"
      0 52 "E2"
      0 51 "D#2"
      0 50 "D2"
      0 49 "C#2"
      0 48 "Lowest playable note C2"
      0 10 "---"
      0 9 "Range A2-C4"
      0 8 "Range"
      0 7 "Range"
      0 6 "Range"
      0 5 "Range F2-A3"
      0 4 "Range"
      0 3 "Range"
      0 2 "Range"
      0 1 "Range"
      0 0 "Range C2-E3"
    >
    MAINSEND 1 0
    <FXCHAIN
      SHOW 0
      LASTSEL 0
      DOCKED 0
    >
    <ITEM
      POSITION 0.00000000000000
      SNAPOFFS 0.00000000000000
      LENGTH 116.95500000000000
      LOOP 0
      ALLTAKES 0
      SEL 0
      FADEIN 1 0.000000 0.000000 1 0
      FADEOUT 1 0.000000 0.000000 1 0
      MUTE 0
      IGUID {61CA6F69-F042-4870-9AD4-6CC4C841EFF8}
      IID 5
      NAME "PART REAL_KEYS_H"
      VOLPAN 1.000000 0.000000 1.000000 -1.000000
      SOFFS 0.00000000000000 0.00000000000000
      PLAYRATE 1.00000000000000 1 0.00000000000000 -1
      CHANMODE 0
      GUID {41A0BBAE-BFA7-448E-BC0F-45C40EFD5C34}
      <SOURCE MIDI
        HASDATA 1 480 QN
        POOLEDEVTS {E498D183-EEAE-4268-A5A5-6792D10675F6}
        <X 0 0
          /wNQQVJUIFJFQUxfS0VZU19I
        >
        E 0 90 09 60
        E 120 80 09 00
        E 3720 90 41 60
        E 120 80 41 00
        E 120 90 40 60
        E 120 80 40 00
        E 120 90 45 60
        E 120 80 45 00
        E 120 90 48 60
        E 120 80 48 00
        E 1080 90 41 60
        E 120 80 41 00
        E 120 90 3e 60
        E 120 80 3e 00
        E 120 90 43 60
        E 120 80 43 00
        E 120 90 47 60
        E 120 80 47 00
        E 1080 90 41 60
        E 120 80 41 00
        E 120 90 3c 60
        E 120 80 3c 00
        E 120 90 40 60
        E 120 80 40 00
        E 120 90 45 60
        E 120 80 45 00
        E 1080 90 41 60
        E 120 80 41 00
        E 120 90 3b 60
        E 120 80 3b 00
        E 120 90 3e 60
        E 120 80 3e 00
        E 120 90 43 60
        E 120 80 43 00
        E 1080 90 40 60
        E 120 80 40 00
        E 120 90 3b 60
        E 120 80 3b 00
        E 120 90 40 60
        E 120 80 40 00
        E 120 90 43 60
        E 120 80 43 00
        E 1080 90 39 60
        E 120 80 39 00
        E 120 90 3c 60
        E 120 80 3c 00
        E 120 90 40 60
        E 120 80 40 00
        E 120 90 45 60
        E 120 80 45 00
        E 1080 90 41 60
        E 120 80 41 00
        E 120 90 3c 60
        E 120 80 3c 00
        E 120 90 40 60
        E 120 80 40 00
        E 120 90 45 60
        E 120 80 45 00
        E 1080 90 41 60
        E 120 80 41 00
        E 120 90 3b 60
        E 120 80 3b 00
        E 120 90 40 60
        E 120 80 40 00
        E 120 90 43 60
        E 120 80 43 00
        E 1080 90 40 60
        E 120 80 40 00
        E 120 90 3b 60
        E 120 80 3b 00
        E 120 90 40 60
        E 120 80 40 00
        E 120 90 43 60
        E 120 80 43 00
        E 1080 90 39 60
        E 120 80 39 00
        E 120 90 3d 60
        E 120 80 3d 00
        E 120 90 40 60
        E 120 80 40 00
        E 120 90 45 60
        E 120 80 45 00
        E 120 90 40 60
        E 0 90 43 60
        E 0 90 45 60
        E 840 80 40 00
        E 0 80 43 00
        E 120 90 3c 60
        E 0 90 40 60
        E 1800 80 45 00
        E 0 80 3c 00
        E 120 90 3b 60
        E 0 90 43 60
        E 840 80 40 00
        E 120 90 3e 60
        E 2760 80 3b 00
        E 0 80 3e 00
        E 120 90 39 60
        E 0 90 3c 60
        E 840 80 39 00
        E 0 80 3c 00
        E 120 90 3b 60
        E 0 90 3e 60
        E 840 80 43 00
        E 0 80 3b 00
        E 0 80 3e 00
        E 120 90 3c 60
        E 0 90 40 60
        E 0 90 45 60
        E 1800 80 3c 00
        E 0 80 45 00
        E 120 90 3b 60
        E 0 90 43 60
        E 840 80 40 00
        E 120 90 3e 60
        E 2760 80 3b 00
        E 0 80 3e 00
        E 120 90 39 60
        E 0 90 3c 60
        E 1800 80 43 00
        E 0 80 39 00
        E 0 80 3c 00
        E 120 90 43 60
        E 120 80 43 00
        E 360 90 3b 60
        E 120 80 3b 00
        E 120 90 3c 60
        E 120 80 3c 00
        E 120 90 3e 60
        E 120 80 3e 00
        E 600 90 45 60
        E 120 80 45 00
        E 120 90 43 60
        E 120 80 43 00
        E 840 90 3f 60
        E 120 80 3f 00
        E 840 90 43 60
        E 120 80 43 00
        E 360 90 3b 60
        E 120 80 3b 00
        E 120 90 3c 60
        E 120 80 3c 00
        E 120 90 3e 60
        E 120 80 3e 00
        E 360 90 45 60
        E 120 80 45 00
        E 360 90 43 60
        E 120 80 43 00
        E 1800 90 3c 60
        E 0 90 40 60
        E 0 90 45 60
        E 1800 80 3c 00
        E 0 80 45 00
        E 120 90 3b 60
        E 0 90 43 60
        E 840 80 40 00
        E 120 90 3e 60
        E 2760 80 3b 00
        E 0 80 3e 00
        E 120 90 39 60
        E 0 90 3c 60
        E 840 80 39 00
        E 0 80 3c 00
        E 120 90 3b 60
        E 0 90 3e 60
        E 840 80 43 00
        E 0 80 3b 00
        E 0 80 3e 00
        E 120 90 3c 60
        E 0 90 40 60
        E 0 90 45 60
        E 1800 80 3c 00
        E 0 80 45 00
        E 120 90 3b 60
        E 0 90 43 60
        E 840 80 40 00
        E 120 90 3e 60
        E 2760 80 3b 00
        E 0 80 3e 00
        E 120 90 39 60
        E 0 90 3c 60
        E 1800 80 43 00
        E 0 80 39 00
        E 0 80 3c 00
        E 120 90 43 60
        E 120 80 43 00
        E 360 90 3b 60
        E 120 80 3b 00
        E 120 90 3c 60
        E 120 80 3c 00
        E 120 90 3e 60
        E 120 80 3e 00
        E 600 90 45 60
        E 120 80 45 00
        E 120 90 43 60
        E 120 80 43 00
        E 840 90 3f 60
        E 120 80 3f 00
        E 840 90 43 60
        E 120 80 43 00
        E 360 90 3b 60
        E 120 80 3b 00
        E 120 90 3c 60
        E 120 80 3c 00
        E 120 90 3e 60
        E 120 80 3e 00
        E 360 90 45 60
        E 120 80 45 00
        E 360 90 43 60
        E 120 80 43 00
        E 5639 b0 7b 00
        GUID {1C6D03C0-6BEF-4C1A-9E35-E2E12713B17D}
        IGNTEMPO 0 120.00000000 4 4
        SRCCOLOR 6
        VELLANE 132 128 60
        COLORMAP "C:\Program Files\REAPER (x64)\Data\color_maps\rockband_guitarbass.png"
        CFGEDITVIEW -4814.302309 9.601920 0 15 0 0 0
        CFGEDIT 1 1 0 1 1 0 1 1 1 1 1 0.25000000 -8 -8 1544 872 0 2 1 1 0.00000000 0 1 1 0 0.500000 0 0 1.000000 64
        KEYSNAP 0 7 "102030050700" 0 "Pentatonic"
        EVTFILTER 0 -1 -1 -1 -1 0 1 0 0 -1.00000000 -1.00000000
      >
    >
  >
  <TRACK '{9CB61BE1-3426-42A7-814E-0FDC25D5FD5E}'
    NAME "PART REAL_KEYS_M"
    PEAKCOL 16576
    BEAT -1
    AUTOMODE 0
    VOLPAN 1.00000000000000 0.00000000000000 -1.00000000000000 -1.00000000000000 1.00000000000000
    MUTESOLO 0 0 0
    IPHASE 0
    ISBUS 0 0
    BUSCOMP 0 0
    SHOWINMIX 1 0.666700 0.500000 1 0.500000 -1 -1 -1
    FREEMODE 0
    SEL 0
    REC 0 0 0 0 0 0 0
    VU 2
    TRACKHEIGHT 0 0
    INQ 0 0 0 0.5000000000 100 0 0 100
    NCHAN 2
    FX 1
    TRACKID {9CB61BE1-3426-42A7-814E-0FDC25D5FD5E}
    PERF 0
    MIDIOUT -1
    <MIDINOTENAMES
      0 72 "Highest playable note B#3"
      0 71 "B3"
      0 70 "A#3"
      0 69 "A3"
      0 68 "G#3"
      0 67 "G3"
      0 66 "F#3"
      0 65 "F3"
      0 64 "E3"
      0 63 "D#3"
      0 62 "D3"
      0 61 "C#3"
      0 60 "C3"
      0 59 "B2"
      0 58 "A#2"
      0 57 "A2"
      0 56 "G#2"
      0 55 "G2"
      0 54 "F#2"
      0 53 "F2"
      0 52 "E2"
      0 51 "D#2"
      0 50 "D2"
      0 49 "C#2"
      0 48 "Lowest playable note C2"
      0 10 "---"
      0 9 "Range A2-C4"
      0 8 "Range"
      0 7 "Range"
      0 6 "Range"
      0 5 "Range F2-A3"
      0 4 "Range"
      0 3 "Range"
      0 2 "Range"
      0 1 "Range"
      0 0 "Range C2-E3"
    >
    MAINSEND 1 0
    <FXCHAIN
      SHOW 0
      LASTSEL 0
      DOCKED 0
    >
    <ITEM
      POSITION 0.00000000000000
      SNAPOFFS 0.00000000000000
      LENGTH 116.95500000000000
      LOOP 0
      ALLTAKES 0
      SEL 0
      FADEIN 1 0.000000 0.000000 1 0
      FADEOUT 1 0.000000 0.000000 1 0
      MUTE 0
      IGUID {94840F4A-4E80-4E12-870F-54B4CA39E55E}
      IID 6
      NAME "PART REAL_KEYS_M"
      VOLPAN 1.000000 0.000000 1.000000 -1.000000
      SOFFS 0.00000000000000 0.00000000000000
      PLAYRATE 1.00000000000000 1 0.00000000000000 -1
      CHANMODE 0
      GUID {8A36F50F-0F0D-453D-9091-3EBC9521BEA7}
      <SOURCE MIDI
        HASDATA 1 480 QN
        POOLEDEVTS {13FB0E58-DFCD-4978-8B87-A4BD8B0A2167}
        <X 0 0
          /wNQQVJUIFJFQUxfS0VZU19N
        >
        E 0 90 09 60
        E 120 80 09 00
        E 3720 90 41 60
        E 120 80 41 00
        E 360 90 45 60
        E 120 80 45 00
        E 1320 90 41 60
        E 120 80 41 00
        E 360 90 43 60
        E 120 80 43 00
        E 1320 90 41 60
        E 120 80 41 00
        E 360 90 40 60
        E 120 80 40 00
        E 1320 90 41 60
        E 120 80 41 00
        E 360 90 3e 60
        E 120 80 3e 00
        E 1320 90 40 60
        E 120 80 40 00
        E 360 90 40 60
        E 120 80 40 00
        E 1320 90 39 60
        E 120 80 39 00
        E 360 90 40 60
        E 120 80 40 00
        E 1320 90 41 60
        E 120 80 41 00
        E 360 90 40 60
        E 120 80 40 00
        E 1320 90 41 60
        E 120 80 41 00
        E 360 90 40 60
        E 120 80 40 00
        E 1320 90 40 60
        E 120 80 40 00
        E 360 90 40 60
        E 120 80 40 00
        E 1320 90 39 60
        E 120 80 39 00
        E 360 90 40 60
        E 120 80 40 00
        E 360 90 40 60
        E 0 90 43 60
        E 0 90 45 60
        E 840 80 40 00
        E 0 80 43 00
        E 120 90 3c 60
        E 0 90 40 60
        E 1800 80 45 00
        E 0 80 3c 00
        E 120 90 3b 60
        E 0 90 43 60
        E 840 80 40 00
        E 120 90 3e 60
        E 2760 80 3b 00
        E 0 80 3e 00
        E 120 90 39 60
        E 0 90 3c 60
        E 840 80 39 00
        E 0 80 3c 00
        E 120 90 3b 60
        E 0 90 3e 60
        E 840 80 43 00
        E 0 80 3b 00
        E 0 80 3e 00
        E 120 90 3c 60
        E 0 90 40 60
        E 0 90 45 60
        E 1800 80 3c 00
        E 0 80 45 00
        E 120 90 3b 60
        E 0 90 43 60
        E 840 80 40 00
        E 120 90 3e 60
        E 2760 80 3b 00
        E 0 80 3e 00
        E 120 90 39 60
        E 0 90 3c 60
        E 1800 80 43 00
        E 0 80 39 00
        E 0 80 3c 00
        E 120 90 43 60
        E 120 80 43 00
        E 360 90 3b 60
        E 120 80 3b 00
        E 360 90 3e 60
        E 120 80 3e 00
        E 840 90 43 60
        E 120 80 43 00
        E 840 90 3f 60
        E 120 80 3f 00
        E 840 90 43 60
        E 120 80 43 00
        E 360 90 3b 60
        E 120 80 3b 00
        E 360 90 3e 60
        E 120 80 3e 00
        E 360 90 45 60
        E 120 80 45 00
        E 360 90 43 60
        E 120 80 43 00
        E 1800 90 3c 60
        E 0 90 40 60
        E 0 90 45 60
        E 1800 80 3c 00
        E 0 80 45 00
        E 120 90 3b 60
        E 0 90 43 60
        E 840 80 40 00
        E 120 90 3e 60
        E 2760 80 3b 00
        E 0 80 3e 00
        E 120 90 39 60
        E 0 90 3c 60
        E 840 80 39 00
        E 0 80 3c 00
        E 120 90 3b 60
        E 0 90 3e 60
        E 840 80 43 00
        E 0 80 3b 00
        E 0 80 3e 00
        E 120 90 3c 60
        E 0 90 40 60
        E 0 90 45 60
        E 1800 80 3c 00
        E 0 80 45 00
        E 120 90 3b 60
        E 0 90 43 60
        E 840 80 40 00
        E 120 90 3e 60
        E 2760 80 3b 00
        E 0 80 3e 00
        E 120 90 39 60
        E 0 90 3c 60
        E 1800 80 43 00
        E 0 80 39 00
        E 0 80 3c 00
        E 120 90 43 60
        E 120 80 43 00
        E 360 90 3b 60
        E 120 80 3b 00
        E 360 90 3e 60
        E 120 80 3e 00
        E 840 90 43 60
        E 120 80 43 00
        E 840 90 3f 60
        E 120 80 3f 00
        E 840 90 43 60
        E 120 80 43 00
        E 360 90 3b 60
        E 120 80 3b 00
        E 360 90 3e 60
        E 120 80 3e 00
        E 360 90 45 60
        E 120 80 45 00
        E 360 90 43 60
        E 120 80 43 00
        E 5639 b0 7b 00
        GUID {741C5887-DB00-4535-A589-9771B88518EA}
        IGNTEMPO 0 120.00000000 4 4
        SRCCOLOR 7
        VELLANE 132 128 60
        COLORMAP "C:\Program Files\REAPER (x64)\Data\color_maps\rockband_guitarbass.png"
        CFGEDITVIEW -4814.302309 9.601920 3 15 0 0 0
        CFGEDIT 1 1 0 1 1 0 1 1 1 1 1 0.25000000 -8 -8 1544 872 0 2 1 1 0.00000000 0 1 1 0 0.500000 0 0 1.000000 64
        KEYSNAP 0 7 "102030050700" 0 "Pentatonic"
        EVTFILTER 0 -1 -1 -1 -1 0 1 0 0 -1.00000000 -1.00000000
      >
    >
  >
  <TRACK '{2C3C2DD9-58A0-4783-A1F6-90F3A35C9DD0}'
    NAME "PART REAL_KEYS_E"
    PEAKCOL 16576
    BEAT -1
    AUTOMODE 0
    VOLPAN 1.00000000000000 0.00000000000000 -1.00000000000000 -1.00000000000000 1.00000000000000
    MUTESOLO 0 0 0
    IPHASE 0
    ISBUS 0 0
    BUSCOMP 0 0
    SHOWINMIX 1 0.666700 0.500000 1 0.500000 -1 -1 -1
    FREEMODE 0
    SEL 0
    REC 0 0 0 0 0 0 0
    VU 2
    TRACKHEIGHT 0 0
    INQ 0 0 0 0.5000000000 100 0 0 100
    NCHAN 2
    FX 1
    TRACKID {2C3C2DD9-58A0-4783-A1F6-90F3A35C9DD0}
    PERF 0
    MIDIOUT -1
    <MIDINOTENAMES
      0 72 "Highest playable note B#3"
      0 71 "B3"
      0 70 "A#3"
      0 69 "A3"
      0 68 "G#3"
      0 67 "G3"
      0 66 "F#3"
      0 65 "F3"
      0 64 "E3"
      0 63 "D#3"
      0 62 "D3"
      0 61 "C#3"
      0 60 "C3"
      0 59 "B2"
      0 58 "A#2"
      0 57 "A2"
      0 56 "G#2"
      0 55 "G2"
      0 54 "F#2"
      0 53 "F2"
      0 52 "E2"
      0 51 "D#2"
      0 50 "D2"
      0 49 "C#2"
      0 48 "Lowest playable note C2"
      0 10 "---"
      0 9 "Range A2-C4"
      0 8 "Range"
      0 7 "Range"
      0 6 "Range"
      0 5 "Range F2-A3"
      0 4 "Range"
      0 3 "Range"
      0 2 "Range"
      0 1 "Range"
      0 0 "Range C2-E3"
    >
    MAINSEND 1 0
    <FXCHAIN
      SHOW 0
      LASTSEL 0
      DOCKED 0
    >
    <ITEM
      POSITION 0.00000000000000
      SNAPOFFS 0.00000000000000
      LENGTH 116.95500000000000
      LOOP 0
      ALLTAKES 0
      SEL 0
      FADEIN 1 0.000000 0.000000 1 0
      FADEOUT 1 0.000000 0.000000 1 0
      MUTE 0
      IGUID {0AA0E593-1C2B-4084-91B7-2BB622796F6F}
      IID 7
      NAME "PART REAL_KEYS_E"
      VOLPAN 1.000000 0.000000 1.000000 -1.000000
      SOFFS 0.00000000000000 0.00000000000000
      PLAYRATE 1.00000000000000 1 0.00000000000000 -1
      CHANMODE 0
      GUID {F177E20E-12EA-4E90-BAC2-DA1B0742B551}
      <SOURCE MIDI
        HASDATA 1 480 QN
        POOLEDEVTS {43BCCFAD-87BF-41AA-A3A0-8F061637B69D}
        <X 0 0
          /wNQQVJUIFJFQUxfS0VZU19F
        >
        E 0 90 09 60
        E 120 80 09 00
        E 3720 90 41 60
        E 120 80 41 00
        E 1800 90 41 60
        E 120 80 41 00
        E 1800 90 41 60
        E 120 80 41 00
        E 1800 90 41 60
        E 120 80 41 00
        E 1800 90 40 60
        E 120 80 40 00
        E 1800 90 39 60
        E 120 80 39 00
        E 1800 90 41 60
        E 120 80 41 00
        E 1800 90 41 60
        E 120 80 41 00
        E 1800 90 40 60
        E 120 80 40 00
        E 1800 90 39 60
        E 120 80 39 00
        E 840 90 40 60
        E 0 90 43 60
        E 0 90 45 60
        E 840 80 40 00
        E 0 80 43 00
        E 120 90 3c 60
        E 0 90 40 60
        E 1800 80 45 00
        E 0 80 3c 00
        E 120 90 3b 60
        E 0 90 43 60
        E 840 80 40 00
        E 120 90 3e 60
        E 2760 80 3b 00
        E 0 80 3e 00
        E 120 90 39 60
        E 0 90 3c 60
        E 840 80 39 00
        E 0 80 3c 00
        E 120 90 3b 60
        E 0 90 3e 60
        E 840 80 43 00
        E 0 80 3b 00
        E 0 80 3e 00
        E 120 90 3c 60
        E 0 90 40 60
        E 0 90 45 60
        E 1800 80 3c 00
        E 0 80 45 00
        E 120 90 3b 60
        E 0 90 43 60
        E 840 80 40 00
        E 120 90 3e 60
        E 2760 80 3b 00
        E 0 80 3e 00
        E 120 90 39 60
        E 0 90 3c 60
        E 1800 80 43 00
        E 0 80 39 00
        E 0 80 3c 00
        E 120 90 43 60
        E 120 80 43 00
        E 840 90 3e 60
        E 120 80 3e 00
        E 840 90 43 60
        E 120 80 43 00
        E 840 90 3f 60
        E 120 80 3f 00
        E 840 90 43 60
        E 120 80 43 00
        E 840 90 3e 60
        E 120 80 3e 00
        E 840 90 43 60
        E 120 80 43 00
        E 1800 90 3c 60
        E 0 90 40 60
        E 0 90 45 60
        E 1800 80 3c 00
        E 0 80 45 00
        E 120 90 3b 60
        E 0 90 43 60
        E 840 80 40 00
        E 120 90 3e 60
        E 2760 80 3b 00
        E 0 80 3e 00
        E 120 90 39 60
        E 0 90 3c 60
        E 840 80 39 00
        E 0 80 3c 00
        E 120 90 3b 60
        E 0 90 3e 60
        E 840 80 43 00
        E 0 80 3b 00
        E 0 80 3e 00
        E 120 90 3c 60
        E 0 90 40 60
        E 0 90 45 60
        E 1800 80 3c 00
        E 0 80 45 00
        E 120 90 3b 60
        E 0 90 43 60
        E 840 80 40 00
        E 120 90 3e 60
        E 2760 80 3b 00
        E 0 80 3e 00
        E 120 90 39 60
        E 0 90 3c 60
        E 1800 80 43 00
        E 0 80 39 00
        E 0 80 3c 00
        E 120 90 43 60
        E 120 80 43 00
        E 840 90 3e 60
        E 120 80 3e 00
        E 840 90 43 60
        E 120 80 43 00
        E 840 90 3f 60
        E 120 80 3f 00
        E 840 90 43 60
        E 120 80 43 00
        E 840 90 3e 60
        E 120 80 3e 00
        E 840 90 43 60
        E 120 80 43 00
        E 5639 b0 7b 00
        GUID {0C89CDDF-205E-4545-ABBF-D7234D1ADA37}
        IGNTEMPO 0 120.00000000 4 4
        SRCCOLOR 8
        VELLANE 132 128 60
        COLORMAP "C:\Program Files\REAPER (x64)\Data\color_maps\rockband_guitarbass.png"
        CFGEDITVIEW -4814.302309 9.601920 3 15 0 0 0
        CFGEDIT 1 1 0 1 1 0 1 1 1 1 1 0.25000000 -8 -8 1544 872 0 2 1 1 0.00000000 0 1 1 0 0.500000 0 0 1.000000 64
        KEYSNAP 0 7 "102030050700" 0 "Pentatonic"
        EVTFILTER 0 -1 -1 -1 -1 0 1 0 0 -1.00000000 -1.00000000
      >
    >
  >
  <TRACK '{1C8903F5-426C-468F-BFF4-3D8CC882E0FB}'
    NAME "PART KEYS_ANIM_RH"
    PEAKCOL 16576
    BEAT -1
    AUTOMODE 0
    VOLPAN 1.00000000000000 0.00000000000000 -1.00000000000000 -1.00000000000000 1.00000000000000
    MUTESOLO 0 0 0
    IPHASE 0
    ISBUS 0 0
    BUSCOMP 0 0
    SHOWINMIX 1 0.666700 0.500000 1 0.500000 -1 -1 -1
    FREEMODE 0
    SEL 0
    REC 0 0 0 0 0 0 0
    VU 2
    TRACKHEIGHT 0 0
    INQ 0 0 0 0.5000000000 100 0 0 100
    NCHAN 2
    FX 1
    TRACKID {1C8903F5-426C-468F-BFF4-3D8CC882E0FB}
    PERF 0
    MIDIOUT -1
    <MIDINOTENAMES
      0 72 "Highest playable note B#3"
      0 71 "B3"
      0 70 "A#3"
      0 69 "A3"
      0 68 "G#3"
      0 67 "G3"
      0 66 "F#3"
      0 65 "F3"
      0 64 "E3"
      0 63 "D#3"
      0 62 "D3"
      0 61 "C#3"
      0 60 "C3"
      0 59 "B2"
      0 58 "A#2"
      0 57 "A2"
      0 56 "G#2"
      0 55 "G2"
      0 54 "F#2"
      0 53 "F2"
      0 52 "E2"
      0 51 "D#2"
      0 50 "D2"
      0 49 "C#2"
      0 48 "Lowest playable note C2"
    >
    MAINSEND 1 0
    <FXCHAIN
      SHOW 0
      LASTSEL 0
      DOCKED 0
    >
    <ITEM
      POSITION 0.00000000000000
      SNAPOFFS 0.00000000000000
      LENGTH 116.95500000000000
      LOOP 0
      ALLTAKES 0
      SEL 0
      FADEIN 1 0.000000 0.000000 1 0
      FADEOUT 1 0.000000 0.000000 1 0
      MUTE 0
      IGUID {39E04FB2-5D2B-424F-8C00-925B675BB6C0}
      IID 8
      NAME "PART KEYS_ANIM_RH"
      VOLPAN 1.000000 0.000000 1.000000 -1.000000
      SOFFS 0.00000000000000 0.00000000000000
      PLAYRATE 1.00000000000000 1 0.00000000000000 -1
      CHANMODE 0
      GUID {F2A76DB1-C9F9-4501-B794-D325F9076AD8}
      <SOURCE MIDI
        HASDATA 1 480 QN
        POOLEDEVTS {AFEDA1A8-EEB2-493C-9907-F533B60B9F0C}
        <X 0 0
          /wNQQVJUIEtFWVNfQU5JTV9SSA==
        >
        E 4080 90 40 60
        E 120 80 40 00
        E 120 90 45 60
        E 120 80 45 00
        E 120 90 48 60
        E 120 80 48 00
        E 1320 90 3e 60
        E 120 80 3e 00
        E 120 90 43 60
        E 120 80 43 00
        E 120 90 47 60
        E 120 80 47 00
        E 1320 90 3c 60
        E 120 80 3c 00
        E 120 90 40 60
        E 120 80 40 00
        E 120 90 45 60
        E 120 80 45 00
        E 1320 90 3b 60
        E 120 80 3b 00
        E 120 90 3e 60
        E 120 80 3e 00
        E 120 90 43 60
        E 120 80 43 00
        E 1320 90 3b 60
        E 120 80 3b 00
        E 120 90 40 60
        E 120 80 40 00
        E 120 90 43 60
        E 120 80 43 00
        E 1320 90 3c 60
        E 120 80 3c 00
        E 120 90 40 60
        E 120 80 40 00
        E 120 90 45 60
        E 120 80 45 00
        E 1320 90 3c 60
        E 120 80 3c 00
        E 120 90 40 60
        E 120 80 40 00
        E 120 90 45 60
        E 120 80 45 00
        E 1320 90 3b 60
        E 120 80 3b 00
        E 120 90 40 60
        E 120 80 40 00
        E 120 90 43 60
        E 120 80 43 00
        E 1320 90 3b 60
        E 120 80 3b 00
        E 120 90 40 60
        E 120 80 40 00
        E 120 90 43 60
        E 120 80 43 00
        E 1320 90 3d 60
        E 120 80 3d 00
        E 120 90 40 60
        E 120 80 40 00
        E 120 90 45 60
        E 120 80 45 00
        E 120 90 40 60
        E 0 90 43 60
        E 0 90 45 60
        E 840 80 40 00
        E 0 80 43 00
        E 120 90 3c 60
        E 0 90 40 60
        E 1800 80 45 00
        E 0 80 3c 00
        E 120 90 3b 60
        E 0 90 43 60
        E 840 80 40 00
        E 120 90 3e 60
        E 2760 80 3b 00
        E 0 80 3e 00
        E 120 90 39 60
        E 0 90 3c 60
        E 840 80 39 00
        E 0 80 3c 00
        E 120 90 3b 60
        E 0 90 3e 60
        E 840 80 43 00
        E 0 80 3b 00
        E 0 80 3e 00
        E 120 90 3c 60
        E 0 90 40 60
        E 0 90 45 60
        E 1800 80 3c 00
        E 0 80 45 00
        E 120 90 3b 60
        E 0 90 43 60
        E 840 80 40 00
        E 120 90 3e 60
        E 2760 80 3b 00
        E 0 80 3e 00
        E 120 90 39 60
        E 0 90 3c 60
        E 1800 80 43 00
        E 0 80 39 00
        E 0 80 3c 00
        E 120 90 43 60
        E 120 80 43 00
        E 360 90 3b 60
        E 120 80 3b 00
        E 120 90 3c 60
        E 120 80 3c 00
        E 120 90 3e 60
        E 120 80 3e 00
        E 600 90 45 60
        E 120 80 45 00
        E 120 90 43 60
        E 120 80 43 00
        E 840 90 3f 60
        E 120 80 3f 00
        E 840 90 43 60
        E 120 80 43 00
        E 360 90 3b 60
        E 120 80 3b 00
        E 120 90 3c 60
        E 120 80 3c 00
        E 120 90 3e 60
        E 120 80 3e 00
        E 360 90 45 60
        E 120 80 45 00
        E 360 90 43 60
        E 120 80 43 00
        E 1800 90 3c 60
        E 0 90 40 60
        E 0 90 45 60
        E 1800 80 3c 00
        E 0 80 45 00
        E 120 90 3b 60
        E 0 90 43 60
        E 840 80 40 00
        E 120 90 3e 60
        E 2760 80 3b 00
        E 0 80 3e 00
        E 120 90 39 60
        E 0 90 3c 60
        E 840 80 39 00
        E 0 80 3c 00
        E 120 90 3b 60
        E 0 90 3e 60
        E 840 80 43 00
        E 0 80 3b 00
        E 0 80 3e 00
        E 120 90 3c 60
        E 0 90 40 60
        E 0 90 45 60
        E 1800 80 3c 00
        E 0 80 45 00
        E 120 90 3b 60
        E 0 90 43 60
        E 840 80 40 00
        E 120 90 3e 60
        E 2760 80 3b 00
        E 0 80 3e 00
        E 120 90 39 60
        E 0 90 3c 60
        E 1800 80 43 00
        E 0 80 39 00
        E 0 80 3c 00
        E 120 90 43 60
        E 120 80 43 00
        E 360 90 3b 60
        E 120 80 3b 00
        E 120 90 3c 60
        E 120 80 3c 00
        E 120 90 3e 60
        E 120 80 3e 00
        E 600 90 45 60
        E 120 80 45 00
        E 120 90 43 60
        E 120 80 43 00
        E 840 90 3f 60
        E 120 80 3f 00
        E 840 90 43 60
        E 120 80 43 00
        E 360 90 3b 60
        E 120 80 3b 00
        E 120 90 3c 60
        E 120 80 3c 00
        E 120 90 3e 60
        E 120 80 3e 00
        E 360 90 45 60
        E 120 80 45 00
        E 360 90 43 60
        E 120 80 43 00
        E 5639 b0 7b 00
        GUID {3F57AFCB-E6C0-4FB6-A2A4-DCAF576695A5}
        IGNTEMPO 0 120.00000000 4 4
        SRCCOLOR 9
        VELLANE 132 128 60
        COLORMAP "C:\Program Files\REAPER (x64)\Data\color_maps\rockband_guitarbass.png"
        CFGEDITVIEW -4814.302309 9.601920 0 22 0 0 0
        CFGEDIT 1 1 0 1 1 0 1 1 1 1 1 0.25000000 -8 -8 1544 872 0 2 1 1 0.00000000 0 1 1 0 0.500000 0 0 1.000000 64
        KEYSNAP 0 7 "102030050700" 0 "Pentatonic"
        EVTFILTER 0 -1 -1 -1 -1 0 1 0 0 -1.00000000 -1.00000000
      >
    >
  >
  <TRACK '{48D0C8A4-5B72-4442-9725-A828A78A42ED}'
    NAME "PART KEYS_ANIM_LH"
    PEAKCOL 16576
    BEAT -1
    AUTOMODE 0
    VOLPAN 1.00000000000000 0.00000000000000 -1.00000000000000 -1.00000000000000 1.00000000000000
    MUTESOLO 0 0 0
    IPHASE 0
    ISBUS 0 0
    BUSCOMP 0 0
    SHOWINMIX 1 0.666700 0.500000 1 0.500000 -1 -1 -1
    FREEMODE 0
    SEL 0
    REC 0 0 0 0 0 0 0
    VU 2
    TRACKHEIGHT 0 0
    INQ 0 0 0 0.5000000000 100 0 0 100
    NCHAN 2
    FX 1
    TRACKID {48D0C8A4-5B72-4442-9725-A828A78A42ED}
    PERF 0
    MIDIOUT -1
    <MIDINOTENAMES
      0 72 "Highest playable note B#3"
      0 71 "B3"
      0 70 "A#3"
      0 69 "A3"
      0 68 "G#3"
      0 67 "G3"
      0 66 "F#3"
      0 65 "F3"
      0 64 "E3"
      0 63 "D#3"
      0 62 "D3"
      0 61 "C#3"
      0 60 "C3"
      0 59 "B2"
      0 58 "A#2"
      0 57 "A2"
      0 56 "G#2"
      0 55 "G2"
      0 54 "F#2"
      0 53 "F2"
      0 52 "E2"
      0 51 "D#2"
      0 50 "D2"
      0 49 "C#2"
      0 48 "Lowest playable note C2"
    >
    MAINSEND 1 0
    <FXCHAIN
      SHOW 0
      LASTSEL 0
      DOCKED 0
    >
    <ITEM
      POSITION 0.00000000000000
      SNAPOFFS 0.00000000000000
      LENGTH 116.95500000000000
      LOOP 0
      ALLTAKES 0
      SEL 0
      FADEIN 1 0.000000 0.000000 1 0
      FADEOUT 1 0.000000 0.000000 1 0
      MUTE 0
      IGUID {18956B24-3036-4FD8-B233-12F229CA9A27}
      IID 9
      NAME "PART KEYS_ANIM_LH"
      VOLPAN 1.000000 0.000000 1.000000 -1.000000
      SOFFS 0.00000000000000 0.00000000000000
      PLAYRATE 1.00000000000000 1 0.00000000000000 -1
      CHANMODE 0
      GUID {C31F2E0B-B0E3-4A0C-9B48-3A517DE2B89B}
      <SOURCE MIDI
        HASDATA 1 480 QN
        POOLEDEVTS {96142567-E449-4ECD-BBD4-976CB045AF16}
        <X 0 0
          /wNQQVJUIEtFWVNfQU5JTV9MSA==
        >
        E 3840 90 41 60
        E 120 80 41 00
        E 1800 90 41 60
        E 120 80 41 00
        E 1800 90 41 60
        E 120 80 41 00
        E 1800 90 41 60
        E 120 80 41 00
        E 1800 90 40 60
        E 120 80 40 00
        E 1800 90 45 60
        E 120 80 45 00
        E 1800 90 41 60
        E 120 80 41 00
        E 1800 90 41 60
        E 120 80 41 00
        E 1800 90 40 60
        E 120 80 40 00
        E 1800 90 45 60
        E 120 80 45 00
        E 51719 b0 7b 00
        GUID {DD06E515-04D1-4EDD-B6C0-3A954EEC2A65}
        IGNTEMPO 0 120.00000000 4 4
        SRCCOLOR 10
        VELLANE 132 128 60
        COLORMAP "C:\Program Files\REAPER (x64)\Data\color_maps\rockband_guitarbass.png"
        CFGEDITVIEW -4814.302309 9.601920 0 22 0 0 0
        CFGEDIT 1 1 0 1 1 0 1 1 1 1 1 0.25000000 -8 -8 1544 872 0 2 1 1 0.00000000 0 1 1 0 0.500000 0 0 1.000000 64
        KEYSNAP 0 7 "102030050700" 0 "Pentatonic"
        EVTFILTER 0 -1 -1 -1 -1 0 1 0 0 -1.00000000 -1.00000000
      >
    >
  >
  <TRACK '{5444AA5F-AA18-4DF3-8FA5-9F9653B6CDF7}'
    NAME "keys"
    PEAKCOL 16576
    BEAT -1
    AUTOMODE 0
    VOLPAN 1.00000000000000 0.00000000000000 -1.00000000000000 -1.00000000000000 1.00000000000000
    MUTESOLO 0 0 0
    IPHASE 0
    ISBUS 2 -1
    BUSCOMP 0 0
    SHOWINMIX 1 0.666700 0.500000 1 0.500000 -1 -1 -1
    FREEMODE 0
    SEL 0
    REC 0 0 0 0 0 0 0
    VU 2
    TRACKHEIGHT 0 0
    INQ 0 0 0 0.5000000000 100 0 0 100
    NCHAN 2
    FX 1
    TRACKID {5444AA5F-AA18-4DF3-8FA5-9F9653B6CDF7}
    PERF 0
    MIDIOUT -1
    MAINSEND 1 0
    <ITEM
      POSITION 0.00000000000000
      SNAPOFFS 0.00000000000000
      LENGTH 116.95582766439910
      LOOP 0
      ALLTAKES 0
      SEL 0
      FADEIN 1 0.000000 0.000000 1 0
      FADEOUT 1 0.000000 0.000000 1 0
      MUTE 0
      IGUID {5968DA64-083D-481B-9BA9-B822B95A7D88}
      IID 17
      NAME "keys.wav"
      VOLPAN 1.000000 0.000000 1.000000 -1.000000
      SOFFS 0.00000000000000
      PLAYRATE 1.00000000000000 1 0.00000000000000 -1
      CHANMODE 0
      GUID {37465DD4-8D35-446D-B7EF-AE57D75C937F}
      <SOURCE WAVE
        FILE "wav\keys.wav"
      >
    >
  >
  <TRACK '{0E34F505-D901-48F9-8B43-DFC3AEE3750C}'
    NAME "PART REAL_BASS"
    PEAKCOL 16576
    BEAT -1
    AUTOMODE 0
    VOLPAN 1.00000000000000 0.00000000000000 -1.00000000000000 -1.00000000000000 1.00000000000000
    MUTESOLO 0 0 0
    IPHASE 0
    ISBUS 0 0
    BUSCOMP 0 0
    SHOWINMIX 1 0.666700 0.500000 1 0.500000 -1 -1 -1
    FREEMODE 0
    SEL 0
    REC 0 0 0 0 0 0 0
    VU 2
    TRACKHEIGHT 0 0
    INQ 0 0 0 0.5000000000 100 0 0 100
    NCHAN 2
    FX 0
    TRACKID {0E34F505-D901-48F9-8B43-DFC3AEE3750C}
    PERF 0
    MIDIOUT -1
    <MIDINOTENAMES
      0 127 "Trill Marker"
      0 126 "Tremolo Marker"
      0 125 "BRE"
      0 124 "BRE"
      0 123 "BRE"
      0 122 "BRE"
      0 121 "BRE"
      0 120 "BRE (use all 6)"
      0 119 "-----------"
      0 116 "OVERDRIVE"
      0 115 "Solo Marker"
      0 109 "-----------"
      0 108 "Fret Hand Position"
      0 107 "Force Chord Numbering"
      0 106 "Loose Strumming"
      0 105 "Strum Direction"
      0 104 "Arpeggio Marker"
      0 103 "Slide Marker"
      0 102 "Force HOPO"
      0 101 "EXPERT e String"
      0 100 "EXPERT B String"
      0 99 "EXPERT G String"
      0 98 "EXPERT D String"
      0 97 "EXPERT A String"
      0 96 "EXPERT E String"
      0 95 "-----------"
      0 82 "Loose Strumming"
      0 81 "Strum Direction"
      0 80 "Arpeggio Marker"
      0 79 "Slide Marker"
      0 78 "Force HOPO"
      0 77 "HARD e String"
      0 76 "HARD B String"
      0 75 "HARD G String"
      0 74 "HARD D String"
      0 73 "HARD A String"
      0 72 "HARD E String"
      0 71 "-----------"
      0 58 "Loose Strumming"
      0 56 "Arpeggio Marker"
      0 55 "Slide Marker"
      0 53 "MEDIUM e String"
      0 52 "MEDIUM B String"
      0 51 "MEDIUM G String"
      0 50 "MEDIUM D String"
      0 49 "MEDIUM A String"
      0 48 "MEDIUM E String"
      0 47 "-----------"
      0 32 "Arpeggio Marker"
      0 31 "Slide Marker"
      0 29 "EASY e String"
      0 28 "EASY B String"
      0 27 "EASY G String"
      0 26 "EASY D String"
      0 25 "EASY A String"
      0 24 "EASY E String"
      0 21 "-----------"
      0 18 "Flat/Sharp Swap"
      0 17 "Hide Chord Names"
      0 16 "Slash Chord"
      0 15 "D#"
      0 14 "D"
      0 13 "C#"
      0 12 "C"
      0 11 "B"
      0 10 "A#"
      0 9 "A"
      0 8 "G#"
      0 7 "G"
      0 6 "F#"
      0 5 "F"
      0 4 "E"
    >
    MAINSEND 1 0
    <FXCHAIN
      WNDRECT 0 43 655 467
      SHOW 0
      LASTSEL 2
      DOCKED 0
      BYPASS 0 0
      <JS "c3/progtr" ""
        0.000000 3.000000 0.000000 0.000000 0.000000 0.000000 0.000000 0.000000 0.000000 1.000000 - - - - - - - - - - - - - - - - - - - - - - - - - - - - - - - - - - - - - - - - - - - - - - - - - - - - - - 
      >
      FLOATPOS 0 0 0 0
      FXID {7BCE1D83-ADE7-485E-B229-EDF7EDE2624E}
      WAK 0
      BYPASS 0 0
      <JS "MIDI/midi_transpose" ""
        -12.000000 1.000000 0.000000 127.000000 - - - - - - - - - - - - - - - - - - - - - - - - - - - - - - - - - - - - - - - - - - - - - - - - - - - - - - - - - - - - 
      >
      FLOATPOS 0 0 0 0
      FXID {5448CFC2-5CE1-4219-AD73-82DAD6A6E4A8}
      WAK 0
      BYPASS 0 0
      <VST "VSTi: ReaSynth (Cockos)" "reasynth.dll" 0 ""
        eXNlcu9e7f4AAAAAAgAAAAEAAAAAAAAAAgAAAAAAAAA4AAAAAAAAAA==
        AAAQAO++rd4N8K3eppvEO+gJMjwAAAAAAAAAAAAAgD8AAIA/4jAEPA==
        AAAAAAAAAD+01hM+j8L1PQAAAD8AABAAAAA=
      >
      FLOATPOS 0 0 0 0
      FXID {0659BA00-4DA4-4C7C-952A-FDB737AD8FE1}
      WAK 0
    >
    <ITEM
      POSITION 0.00000000000000
      SNAPOFFS 0.00000000000000
      LENGTH 116.95500000000000
      LOOP 0
      ALLTAKES 0
      SEL 0
      FADEIN 1 0.000000 0.000000 1 0
      FADEOUT 1 0.000000 0.000000 1 0
      MUTE 0
      IGUID {21A28C57-1BBD-446C-917F-653E5214765F}
      IID 10
      NAME "PART REAL_BASS"
      VOLPAN 1.000000 0.000000 1.000000 -1.000000
      SOFFS 0.00000000000000 0.00000000000000
      PLAYRATE 1.00000000000000 1 0.00000000000000 -1
      CHANMODE 0
      GUID {8076C60A-8A73-42B0-9913-466E8493E383}
      <SOURCE MIDI
        HASDATA 1 480 QN
        POOLEDEVTS {EA49776B-AEA8-488C-94AC-596A384776AF}
        <X 0 0
          /wNQQVJUIFJFQUxfQkFTUw==
        >
        <X 23040 0
          /wFbYmVnaW5fcGIgc29uZ190cmFpbmVyX3BiXzFd
        >
        E 0 90 18 65
        E 0 90 30 65
        E 0 90 48 65
        E 0 90 60 65
        E 0 90 6c 65
        E 120 80 6c 00
        E 1080 80 18 00
        E 240 80 30 00
        E 360 80 48 00
        E 0 80 60 00
        <X 120 0
          /wFbcGJfbm9ybSBzb25nX3RyYWluZXJfcGJfMV0=
        >
        E 0 90 18 65
        E 0 90 30 65
        E 0 90 48 65
        E 0 90 60 65
        E 1200 80 18 00
        E 240 80 30 00
        E 360 80 48 00
        E 0 80 60 00
        E 120 90 18 64
        E 0 90 30 64
        E 0 90 48 64
        E 0 90 60 64
        E 0 90 74 60
        E 1200 80 18 00
        E 240 80 30 00
        E 360 80 48 00
        E 0 80 60 00
        E 120 90 09 69
        E 0 90 30 69
        E 0 90 48 69
        E 0 90 50 6b
        E 0 90 60 69
        E 0 90 68 6b
        E 0 90 6c 69
        E 0 91 49 6b
        E 0 91 4a 6b
        E 0 91 61 6b
        E 0 91 62 6b
        E 120 80 09 00
        E 0 80 30 00
        E 0 80 48 00
        E 0 80 60 00
        E 0 80 6c 00
        E 0 81 49 00
        E 0 81 4a 00
        E 0 81 61 00
        E 0 81 62 00
        E 120 90 49 6b
        E 0 90 61 6b
        E 120 80 49 00
        E 0 80 61 00
        E 120 90 1a 6b
        E 0 90 32 6b
        E 0 90 38 69
        E 0 90 4a 6b
        E 0 90 4f 6b
        E 0 90 62 6b
        E 0 90 67 6b
        E 120 80 50 00
        E 0 80 68 00
        E 300 80 1a 00
        E 0 80 32 00
        E 0 80 38 00
        E 0 80 4a 00
        E 0 80 4f 00
        E 0 80 62 00
        E 0 80 67 00
        E 60 90 07 69
        E 0 90 30 67
        E 0 90 48 67
        E 0 90 50 69
        E 0 90 60 67
        E 0 90 68 69
        E 0 90 6c 67
        E 0 91 49 69
        E 0 91 4a 69
        E 0 91 61 69
        E 0 91 62 69
        E 120 80 07 00
        E 0 80 30 00
        E 0 80 48 00
        E 0 80 60 00
        E 0 80 6c 00
        E 0 81 49 00
        E 0 81 4a 00
        E 0 81 61 00
        E 0 81 62 00
        E 120 90 49 69
        E 0 90 61 69
        E 120 80 49 00
        E 0 80 61 00
        E 120 90 1a 69
        E 0 90 32 69
        E 0 90 38 69
        E 0 90 4a 69
        E 0 90 4f 69
        E 0 90 62 69
        E 0 90 67 69
        E 120 80 50 00
        E 0 80 68 00
        E 300 80 1a 00
        E 0 80 32 00
        E 0 80 38 00
        E 0 80 4a 00
        E 0 80 4f 00
        E 0 80 62 00
        E 0 80 67 00
        <X 60 0
          /wFbZW5kX3BiIHNvbmdfdHJhaW5lcl9wYl8xXQ==
        >
        <X 0 0
          /wFbYmVnaW5fcGIgc29uZ190cmFpbmVyX3BiXzJd
        >
        E 0 90 18 65
        E 0 90 30 65
        E 0 90 48 65
        E 0 90 60 65
        E 0 90 6c 65
        E 0 80 74 00
        E 120 80 6c 00
        E 1080 80 18 00
        E 240 80 30 00
        E 360 80 48 00
        E 0 80 60 00
        <X 120 0
          /wFbcGJfbm9ybSBzb25nX3RyYWluZXJfcGJfMl0=
        >
        E 0 90 18 65
        E 0 90 30 65
        E 0 90 48 65
        E 0 90 60 65
        E 1200 80 18 00
        E 240 80 30 00
        E 360 80 48 00
        E 0 80 60 00
        E 120 90 18 64
        E 0 90 30 64
        E 0 90 48 64
        E 0 90 60 64
        E 1200 80 18 00
        E 240 80 30 00
        E 360 80 48 00
        E 0 80 60 00
        E 120 90 18 65
        E 0 90 30 65
        E 0 90 48 65
        E 0 90 60 65
        E 1200 80 18 00
        E 240 80 30 00
        E 360 80 48 00
        E 0 80 60 00
        <X 120 0
          /wFbYmVnaW5fcGIgc29uZ190cmFpbmVyX3BiXzNd
        >
        <X 0 0
          /wFbZW5kX3BiIHNvbmdfdHJhaW5lcl9wYl8yXQ==
        >
        E 0 90 19 67
        E 0 90 31 67
        E 0 90 49 67
        E 0 90 61 67
        E 1200 80 19 00
        E 240 80 31 00
        E 120 80 49 00
        E 0 80 61 00
        E 120 90 49 67
        E 0 90 61 67
        E 120 80 49 00
        E 0 80 61 00
        <X 120 0
          /wFbcGJfbm9ybSBzb25nX3RyYWluZXJfcGJfM10=
        >
        E 0 90 19 67
        E 0 90 31 67
        E 0 90 49 67
        E 0 90 61 67
        E 1200 80 19 00
        E 240 80 31 00
        E 120 80 49 00
        E 0 80 61 00
        E 120 90 49 67
        E 0 90 61 67
        E 120 80 49 00
        E 0 80 61 00
        E 120 90 19 67
        E 0 90 31 67
        E 0 90 49 67
        E 0 90 61 67
        E 0 90 74 60
        E 120 80 19 00
        E 0 80 31 00
        E 720 80 49 00
        E 0 80 61 00
        E 120 90 19 65
        E 0 90 31 65
        E 0 90 49 65
        E 0 90 61 65
        E 120 80 19 00
        E 0 80 31 00
        E 720 80 49 00
        E 0 80 61 00
        E 120 90 18 68
        E 0 90 30 68
        E 0 90 48 68
        E 0 90 60 68
        E 480 80 74 00
        E 960 80 18 00
        E 0 80 30 00
        E 360 80 48 00
        E 0 80 60 00
        <X 120 0
          /wFbZW5kX3BiIHNvbmdfdHJhaW5lcl9wYl8zXQ==
        >
        E 0 90 30 65
        E 0 90 48 65
        E 0 90 60 65
        E 0 90 18 65
        E 1200 80 18 00
        E 240 80 30 00
        E 360 80 48 00
        E 0 80 60 00
        E 120 90 30 65
        E 0 90 48 65
        E 0 90 60 65
        E 0 90 18 65
        E 1200 80 18 00
        E 240 80 30 00
        E 360 80 48 00
        E 0 80 60 00
        E 120 90 30 64
        E 0 90 48 64
        E 0 90 60 64
        E 0 90 18 64
        E 1200 80 18 00
        E 240 80 30 00
        E 360 80 48 00
        E 0 80 60 00
        E 120 90 09 69
        E 0 90 30 69
        E 0 90 48 69
        E 0 90 50 6b
        E 0 90 60 69
        E 0 90 68 6b
        E 0 90 6c 69
        E 0 91 49 6b
        E 0 91 4a 6b
        E 0 91 61 6b
        E 0 91 62 6b
        E 120 80 09 00
        E 0 80 30 00
        E 0 80 48 00
        E 0 80 60 00
        E 0 80 6c 00
        E 0 81 49 00
        E 0 81 4a 00
        E 0 81 61 00
        E 0 81 62 00
        E 120 90 49 6b
        E 0 90 61 6b
        E 120 80 49 00
        E 0 80 61 00
        E 120 90 32 6b
        E 0 90 38 69
        E 0 90 4a 6b
        E 0 90 4f 6b
        E 0 90 62 6b
        E 0 90 67 6b
        E 0 90 1a 6b
        E 120 80 50 00
        E 0 80 68 00
        E 300 80 32 00
        E 0 80 38 00
        E 0 80 4a 00
        E 0 80 4f 00
        E 0 80 62 00
        E 0 80 67 00
        E 0 80 1a 00
        E 60 90 07 69
        E 0 90 30 67
        E 0 90 48 67
        E 0 90 50 69
        E 0 90 60 67
        E 0 90 68 69
        E 0 90 6c 67
        E 0 91 49 69
        E 0 91 4a 69
        E 0 91 61 69
        E 0 91 62 69
        E 120 80 07 00
        E 0 80 30 00
        E 0 80 48 00
        E 0 80 60 00
        E 0 80 6c 00
        E 0 81 49 00
        E 0 81 4a 00
        E 0 81 61 00
        E 0 81 62 00
        E 120 90 49 69
        E 0 90 61 69
        E 120 80 49 00
        E 0 80 61 00
        E 120 90 32 69
        E 0 90 38 69
        E 0 90 4a 69
        E 0 90 4f 69
        E 0 90 62 69
        E 0 90 67 69
        E 0 90 1a 69
        E 120 80 50 00
        E 0 80 68 00
        E 300 80 32 00
        E 0 80 38 00
        E 0 80 4a 00
        E 0 80 4f 00
        E 0 80 62 00
        E 0 80 67 00
        E 0 80 1a 00
        E 60 90 30 65
        E 0 90 48 65
        E 0 90 60 65
        E 0 90 6c 65
        E 0 90 18 65
        E 120 80 6c 00
        E 1080 80 18 00
        E 240 80 30 00
        E 360 80 48 00
        E 0 80 60 00
        E 120 90 30 65
        E 0 90 48 65
        E 0 90 60 65
        E 0 90 74 60
        E 0 90 18 65
        E 1200 80 18 00
        E 240 80 30 00
        E 360 80 48 00
        E 0 80 60 00
        E 120 90 30 64
        E 0 90 48 64
        E 0 90 60 64
        E 0 90 18 64
        E 120 80 74 00
        E 1080 80 18 00
        E 240 80 30 00
        E 360 80 48 00
        E 0 80 60 00
        E 120 90 30 65
        E 0 90 48 65
        E 0 90 60 65
        E 0 90 18 65
        E 1200 80 18 00
        E 240 80 30 00
        E 360 80 48 00
        E 0 80 60 00
        E 120 90 31 67
        E 0 90 49 67
        E 0 90 61 67
        E 0 90 19 67
        E 1200 80 19 00
        E 240 80 31 00
        E 120 80 49 00
        E 0 80 61 00
        E 120 90 49 67
        E 0 90 61 67
        E 120 80 49 00
        E 0 80 61 00
        E 120 90 31 67
        E 0 90 49 67
        E 0 90 61 67
        E 0 90 19 67
        E 1200 80 19 00
        E 240 80 31 00
        E 120 80 49 00
        E 0 80 61 00
        E 120 90 49 67
        E 0 90 61 67
        E 120 80 49 00
        E 0 80 61 00
        E 120 90 31 67
        E 0 90 49 67
        E 0 90 61 67
        E 0 90 19 67
        E 120 80 31 00
        E 0 80 19 00
        E 720 80 49 00
        E 0 80 61 00
        E 120 90 31 65
        E 0 90 49 65
        E 0 90 61 65
        E 0 90 19 65
        E 120 80 31 00
        E 0 80 19 00
        E 720 80 49 00
        E 0 80 61 00
        E 120 90 30 68
        E 0 90 48 68
        E 0 90 60 68
        E 0 90 18 68
        E 1440 80 30 00
        E 0 80 18 00
        E 360 80 48 00
        E 0 80 60 00
        E 3959 b0 7b 00
        GUID {0D833E7A-314D-4DAF-BFC0-3C581F970526}
        IGNTEMPO 0 120.00000000 4 4
        SRCCOLOR 11
        VELLANE 132 128 60
        COLORMAP "C:\Program Files\REAPER (x64)\Data\color_maps\rockband_guitarbass.png"
        CFGEDITVIEW -4814.302309 9.601920 7 12 0 0 0
        CFGEDIT 1 1 0 1 1 0 1 1 1 1 1 0.25000000 -8 -8 1544 872 0 2 1 1 0.00000000 0 1 1 0 0.500000 0 0 1.000000 64
        KEYSNAP 0 7 "102030050700" 0 "Pentatonic"
        EVTFILTER 0 -1 -1 -1 -1 0 1 0 0 -1.00000000 -1.00000000
      >
    >
  >
  <TRACK '{1795BD9E-BD16-4A7F-9AD0-309FDAF665BF}'
    NAME "PART REAL_GUITAR"
    PEAKCOL 16576
    BEAT -1
    AUTOMODE 0
    VOLPAN 1.00000000000000 0.00000000000000 -1.00000000000000 -1.00000000000000 1.00000000000000
    MUTESOLO 0 0 0
    IPHASE 0
    ISBUS 0 0
    BUSCOMP 0 0
    SHOWINMIX 1 0.666700 0.500000 1 0.500000 -1 -1 -1
    FREEMODE 0
    SEL 1
    REC 0 0 0 0 0 0 0
    VU 2
    TRACKHEIGHT 0 0
    INQ 0 0 0 0.5000000000 100 0 0 100
    NCHAN 2
    FX 0
    TRACKID {1795BD9E-BD16-4A7F-9AD0-309FDAF665BF}
    PERF 0
    MIDIOUT -1
    <MIDINOTENAMES
      0 127 "Trill Marker"
      0 126 "Tremolo Marker"
      0 125 "BRE"
      0 124 "BRE"
      0 123 "BRE"
      0 122 "BRE"
      0 121 "BRE"
      0 120 "BRE (use all 6)"
      0 119 "-----------"
      0 116 "OVERDRIVE"
      0 115 "Solo Marker"
      0 109 "-----------"
      0 108 "Fret Hand Position"
      0 107 "Force Chord Numbering"
      0 106 "Loose Strumming"
      0 105 "Strum Direction"
      0 104 "Arpeggio Marker"
      0 103 "Slide Marker"
      0 102 "Force HOPO"
      0 101 "EXPERT e String"
      0 100 "EXPERT B String"
      0 99 "EXPERT G String"
      0 98 "EXPERT D String"
      0 97 "EXPERT A String"
      0 96 "EXPERT E String"
      0 95 "-----------"
      0 82 "Loose Strumming"
      0 81 "Strum Direction"
      0 80 "Arpeggio Marker"
      0 79 "Slide Marker"
      0 78 "Force HOPO"
      0 77 "HARD e String"
      0 76 "HARD B String"
      0 75 "HARD G String"
      0 74 "HARD D String"
      0 73 "HARD A String"
      0 72 "HARD E String"
      0 71 "-----------"
      0 58 "Loose Strumming"
      0 56 "Arpeggio Marker"
      0 55 "Slide Marker"
      0 53 "MEDIUM e String"
      0 52 "MEDIUM B String"
      0 51 "MEDIUM G String"
      0 50 "MEDIUM D String"
      0 49 "MEDIUM A String"
      0 48 "MEDIUM E String"
      0 47 "-----------"
      0 32 "Arpeggio Marker"
      0 31 "Slide Marker"
      0 29 "EASY e String"
      0 28 "EASY B String"
      0 27 "EASY G String"
      0 26 "EASY D String"
      0 25 "EASY A String"
      0 24 "EASY E String"
      0 21 "-----------"
      0 18 "Flat/Sharp Swap"
      0 17 "Hide Chord Names"
      0 16 "Slash Chord"
      0 15 "D#"
      0 14 "D"
      0 13 "C#"
      0 12 "C"
      0 11 "B"
      0 10 "A#"
      0 9 "A"
      0 8 "G#"
      0 7 "G"
      0 6 "F#"
      0 5 "F"
      0 4 "E"
    >
    MAINSEND 1 0
    <FXCHAIN
      WNDRECT 0 43 655 467
      SHOW 0
      LASTSEL 1
      DOCKED 0
      BYPASS 0 0
      <JS "c3/progtr" ""
        0.000000 3.000000 0.000000 0.000000 0.000000 0.000000 0.000000 0.000000 0.000000 1.000000 - - - - - - - - - - - - - - - - - - - - - - - - - - - - - - - - - - - - - - - - - - - - - - - - - - - - - - 
      >
      FLOATPOS 0 0 0 0
      FXID {A97B35E2-2D27-41BF-AF9A-B44C37C8C67E}
      WAK 0
      BYPASS 0 0
      <VST "VSTi: ReaSynth (Cockos)" "reasynth.dll" 0 ""
        eXNlcu9e7f4AAAAAAgAAAAEAAAAAAAAAAgAAAAAAAAA4AAAAAAAAAA==
        AAAQAO++rd4N8K3eppvEO+gJMjyHFlk/AAAAAAAAAADMm4A+4jAEPA==
        AAAAAAAAAD+01hM+j8L1PQAAAD8AABAAAAA=
      >
      FLOATPOS 0 0 0 0
      FXID {D4FF1498-73B5-40D4-BBAF-49CA7A20360D}
      WAK 0
    >
    <ITEM
      POSITION 0.00000000000000
      SNAPOFFS 0.00000000000000
      LENGTH 116.95500000000000
      LOOP 0
      ALLTAKES 0
      SEL 0
      FADEIN 1 0.000000 0.000000 1 0
      FADEOUT 1 0.000000 0.000000 1 0
      MUTE 0
      IGUID {C190797B-90E0-4947-B449-BC882B557436}
      IID 11
      NAME "PART REAL_GUITAR"
      VOLPAN 1.000000 0.000000 1.000000 -1.000000
      SOFFS 0.00000000000000 0.00000000000000
      PLAYRATE 1.00000000000000 1 0.00000000000000 -1
      CHANMODE 0
      GUID {C1730209-FA0A-4AEE-86B6-D7B93607248F}
      <SOURCE MIDI
        HASDATA 1 480 QN
        POOLEDEVTS {6335DF99-04CF-4882-80A7-C8DA6356B422}
        <X 0 0
          /wNQQVJUIFJFQUxfR1VJVEFS
        >
        <X 7680 0
          /wFbYmVnaW5fcGcgc29uZ190cmFpbmVyX3BnXzFd
        >
        E 0 90 1c 65
        E 0 90 34 65
        E 0 90 4c 65
        E 0 90 64 65
        E 0 90 6c 65
        E 120 80 1c 00
        E 0 80 34 00
        E 0 80 6c 00
        E 240 80 4c 00
        E 0 80 64 00
        E 120 90 4d 67
        E 0 90 65 67
        E 360 80 4d 00
        E 0 80 65 00
        E 120 90 1d 65
        E 0 90 35 65
        E 0 90 4d 65
        E 0 90 65 65
        E 120 80 1d 00
        E 0 80 35 00
        E 240 80 4d 00
        E 0 80 65 00
        E 120 90 4d 64
        E 0 90 65 64
        E 360 80 4d 00
        E 0 80 65 00
        <X 120 0
          /wFbcGdfbm9ybSBzb25nX3RyYWluZXJfcGdfMV0=
        >
        E 0 90 34 67
        E 0 90 4c 67
        E 0 90 64 67
        E 120 80 34 00
        E 0 80 4c 00
        E 0 80 64 00
        E 120 90 65 64
        E 120 80 65 00
        E 120 90 1c 64
        E 0 90 34 64
        E 0 90 4c 64
        E 0 90 64 64
        E 1199 80 1c 00
        E 1 80 34 00
        E 0 80 4c 00
        E 0 80 64 00
        E 240 90 34 67
        E 0 90 4c 67
        E 0 90 64 67
        E 0 90 74 60
        E 120 80 34 00
        E 0 80 4c 00
        E 0 80 64 00
        E 120 90 65 64
        E 120 80 65 00
        E 120 90 1c 64
        E 0 90 34 64
        E 0 90 4c 64
        E 0 90 64 64
        E 600 80 1c 00
        E 0 80 34 00
        E 0 80 4c 00
        E 0 80 64 00
        E 120 90 4b 66
        E 0 90 63 66
        E 120 80 4b 00
        E 0 80 63 00
        E 120 90 34 64
        E 0 90 4c 64
        E 0 90 64 64
        E 120 80 34 00
        E 0 80 4c 00
        E 0 80 64 00
        E 120 90 64 67
        E 120 80 64 00
        E 120 90 4c 65
        E 0 90 64 65
        E 120 80 4c 00
        E 0 80 64 00
        E 120 90 1b 66
        E 0 90 33 66
        E 0 90 4b 66
        E 0 90 63 66
        E 240 80 74 00
        E 1080 80 1b 00
        E 0 80 33 00
        E 0 80 4b 00
        E 0 80 63 00
        <X 360 0
          /wFbYmVnaW5fcGcgc29uZ190cmFpbmVyX3BnXzJd
        >
        <X 0 0
          /wFbZW5kX3BnIHNvbmdfdHJhaW5lcl9wZ18xXQ==
        >
        E 0 90 32 64
        E 0 90 4a 64
        E 0 90 62 64
        E 120 80 32 00
        E 0 80 4a 00
        E 0 80 62 00
        E 120 90 62 66
        E 120 80 62 00
        E 120 90 1b 66
        E 0 90 33 66
        E 0 90 4b 66
        E 0 90 63 66
        E 600 80 1b 00
        E 0 80 33 00
        E 0 80 4b 00
        E 0 80 63 00
        E 120 90 4a 66
        E 0 90 62 66
        E 120 80 4a 00
        E 0 80 62 00
        E 120 90 32 64
        E 0 90 4a 64
        E 0 90 62 64
        E 120 80 32 00
        E 0 80 4a 00
        E 0 80 62 00
        E 120 90 62 66
        E 120 80 62 00
        <X 120 0
          /wFbcGdfbm9ybSBzb25nX3RyYWluZXJfcGdfMl0=
        >
        E 0 90 1c 64
        E 0 90 34 64
        E 0 90 4c 64
        E 0 90 64 64
        E 1560 80 1c 00
        E 0 80 34 00
        E 0 80 4c 00
        E 0 80 64 00
        E 360 90 32 64
        E 0 90 4a 64
        E 0 90 62 64
        E 120 80 32 00
        E 0 80 4a 00
        E 0 80 62 00
        E 120 90 62 66
        E 120 80 62 00
        E 120 90 1c 64
        E 0 90 34 64
        E 0 90 4c 64
        E 0 90 64 64
        E 600 80 1c 00
        E 0 80 34 00
        E 0 80 4c 00
        E 0 80 64 00
        E 120 90 4b 64
        E 0 90 63 64
        E 120 80 4b 00
        E 0 80 63 00
        E 120 90 32 66
        E 0 90 4a 66
        E 0 90 62 66
        E 120 80 32 00
        E 0 80 4a 00
        E 0 80 62 00
        E 120 90 63 64
        E 120 80 63 00
        E 120 90 1c 66
        E 0 90 34 66
        E 0 90 4c 66
        E 0 90 64 66
        E 1200 80 1c 00
        E 0 80 34 00
        E 0 80 4c 00
        E 0 80 64 00
        E 240 90 33 66
        E 0 90 4b 66
        E 0 90 63 66
        E 120 80 33 00
        E 0 80 4b 00
        E 0 80 63 00
        E 120 90 64 64
        E 120 80 64 00
        <X 120 0
          /wFbZW5kX3BnIHNvbmdfdHJhaW5lcl9wZ18yXQ==
        >
        E 0 90 1c 65
        E 0 90 34 65
        E 0 90 4c 65
        E 0 90 64 65
        E 120 80 1c 00
        E 0 80 34 00
        E 240 80 4c 00
        E 0 80 64 00
        E 120 90 4d 67
        E 0 90 65 67
        E 360 80 4d 00
        E 0 80 65 00
        E 120 90 1d 65
        E 0 90 35 65
        E 0 90 4d 65
        E 0 90 65 65
        E 120 80 1d 00
        E 0 80 35 00
        E 240 80 4d 00
        E 0 80 65 00
        E 120 90 4d 64
        E 0 90 65 64
        E 360 80 4d 00
        E 0 80 65 00
        E 120 90 34 67
        E 0 90 4c 67
        E 0 90 64 67
        E 120 80 34 00
        E 0 80 4c 00
        E 0 80 64 00
        E 120 90 65 64
        E 120 80 65 00
        E 120 90 1c 64
        E 0 90 34 64
        E 0 90 4c 64
        E 0 90 64 64
        E 1200 80 1c 00
        E 0 80 34 00
        E 0 80 4c 00
        E 0 80 64 00
        E 240 90 34 67
        E 0 90 4c 67
        E 0 90 64 67
        E 0 90 74 60
        E 120 80 34 00
        E 0 80 4c 00
        E 0 80 64 00
        E 120 90 65 64
        E 120 80 65 00
        E 120 90 1c 64
        E 0 90 34 64
        E 0 90 4c 64
        E 0 90 64 64
        E 600 80 1c 00
        E 0 80 34 00
        E 0 80 4c 00
        E 0 80 64 00
        E 120 90 4b 66
        E 0 90 63 66
        E 120 80 4b 00
        E 0 80 63 00
        E 120 90 34 64
        E 0 90 4c 64
        E 0 90 64 64
        E 120 80 34 00
        E 0 80 4c 00
        E 0 80 64 00
        E 120 90 64 67
        E 120 80 64 00
        E 120 90 4c 65
        E 0 90 64 65
        E 120 80 4c 00
        E 0 80 64 00
        E 120 90 1b 66
        E 0 90 33 66
        E 0 90 4b 66
        E 0 90 63 66
        E 1320 80 1b 00
        E 0 80 33 00
        E 0 80 4b 00
        E 0 80 63 00
        <X 360 0
          /wFbYmVnaW5fcGcgc29uZ190cmFpbmVyX3BnXzNd
        >
        E 0 90 32 64
        E 0 90 4a 64
        E 0 90 62 64
        E 0 80 74 00
        E 120 80 32 00
        E 0 80 4a 00
        E 0 80 62 00
        E 120 90 62 66
        E 120 80 62 00
        E 120 90 1b 66
        E 0 90 33 66
        E 0 90 4b 66
        E 0 90 63 66
        E 600 80 1b 00
        E 0 80 33 00
        E 0 80 4b 00
        E 0 80 63 00
        E 120 90 4a 66
        E 0 90 62 66
        E 120 80 4a 00
        E 0 80 62 00
        E 120 90 32 64
        E 0 90 4a 64
        E 0 90 62 64
        E 120 80 32 00
        E 0 80 4a 00
        E 0 80 62 00
        E 120 90 62 66
        E 120 80 62 00
        <X 120 0
          /wFbcGdfbm9ybSBzb25nX3RyYWluZXJfcGdfM10=
        >
        E 0 90 1c 64
        E 0 90 34 64
        E 0 90 4c 64
        E 0 90 64 64
        E 1560 80 1c 00
        E 0 80 34 00
        E 0 80 4c 00
        E 0 80 64 00
        E 360 90 32 64
        E 0 90 4a 64
        E 0 90 62 64
        E 120 80 32 00
        E 0 80 4a 00
        E 0 80 62 00
        E 120 90 62 66
        E 120 80 62 00
        E 120 90 1c 64
        E 0 90 34 64
        E 0 90 4c 64
        E 0 90 64 64
        E 600 80 1c 00
        E 0 80 34 00
        E 0 80 4c 00
        E 0 80 64 00
        E 120 90 4b 64
        E 0 90 63 64
        E 120 80 4b 00
        E 0 80 63 00
        E 120 90 32 66
        E 0 90 4a 66
        E 0 90 62 66
        E 120 80 32 00
        E 0 80 4a 00
        E 0 80 62 00
        E 120 90 63 64
        E 120 80 63 00
        E 120 90 1b 66
        E 0 90 33 66
        E 0 90 4b 66
        E 0 90 63 66
        E 1680 80 1b 00
        E 0 80 33 00
        E 0 80 4b 00
        E 0 80 63 00
        <X 240 0
          /wFbZW5kX3BnIHNvbmdfdHJhaW5lcl9wZ18zXQ==
        >
        E 7680 90 34 65
        E 0 90 4c 65
        E 0 90 64 65
        E 0 90 1c 65
        E 0 90 74 60
        E 120 80 34 00
        E 0 80 1c 00
        E 240 80 4c 00
        E 0 80 64 00
        E 120 90 4d 67
        E 0 90 65 67
        E 360 80 4d 00
        E 0 80 65 00
        E 120 90 35 65
        E 0 90 4d 65
        E 0 90 65 65
        E 0 90 1d 65
        E 120 80 35 00
        E 0 80 1d 00
        E 240 80 4d 00
        E 0 80 65 00
        E 120 90 4d 64
        E 0 90 65 64
        E 360 80 4d 00
        E 0 80 65 00
        E 120 90 34 67
        E 0 90 4c 67
        E 0 90 64 67
        E 120 80 34 00
        E 0 80 4c 00
        E 0 80 64 00
        E 120 90 65 64
        E 120 80 65 00
        E 120 90 34 64
        E 0 90 4c 64
        E 0 90 64 64
        E 0 90 1c 64
        E 480 80 74 00
        E 720 80 34 00
        E 0 80 4c 00
        E 0 80 64 00
        E 0 80 1c 00
        E 240 90 34 67
        E 0 90 4c 67
        E 0 90 64 67
        E 120 80 34 00
        E 0 80 4c 00
        E 0 80 64 00
        E 120 90 65 64
        E 120 80 65 00
        E 120 90 34 64
        E 0 90 4c 64
        E 0 90 64 64
        E 0 90 1c 64
        E 600 80 34 00
        E 0 80 4c 00
        E 0 80 64 00
        E 0 80 1c 00
        E 120 90 4b 66
        E 0 90 63 66
        E 120 80 4b 00
        E 0 80 63 00
        E 120 90 34 64
        E 0 90 4c 64
        E 0 90 64 64
        E 120 80 34 00
        E 0 80 4c 00
        E 0 80 64 00
        E 120 90 64 67
        E 120 80 64 00
        E 120 90 4c 65
        E 0 90 64 65
        E 120 80 4c 00
        E 0 80 64 00
        E 120 90 33 66
        E 0 90 4b 66
        E 0 90 63 66
        E 0 90 1b 66
        E 1320 80 33 00
        E 0 80 4b 00
        E 0 80 63 00
        E 0 80 1b 00
        E 360 90 32 64
        E 0 90 4a 64
        E 0 90 62 64
        E 120 80 32 00
        E 0 80 4a 00
        E 0 80 62 00
        E 120 90 62 66
        E 120 80 62 00
        E 120 90 33 66
        E 0 90 4b 66
        E 0 90 63 66
        E 0 90 1b 66
        E 600 80 33 00
        E 0 80 4b 00
        E 0 80 63 00
        E 0 80 1b 00
        E 120 90 4a 66
        E 0 90 62 66
        E 120 80 4a 00
        E 0 80 62 00
        E 120 90 32 64
        E 0 90 4a 64
        E 0 90 62 64
        E 120 80 32 00
        E 0 80 4a 00
        E 0 80 62 00
        E 120 90 62 66
        E 120 80 62 00
        E 120 90 34 64
        E 0 90 4c 64
        E 0 90 64 64
        E 0 90 1c 64
        E 1560 80 34 00
        E 0 80 4c 00
        E 0 80 64 00
        E 0 80 1c 00
        E 360 90 32 64
        E 0 90 4a 64
        E 0 90 62 64
        E 120 80 32 00
        E 0 80 4a 00
        E 0 80 62 00
        E 120 90 62 66
        E 120 80 62 00
        E 120 90 34 64
        E 0 90 4c 64
        E 0 90 64 64
        E 0 90 1c 64
        E 600 80 34 00
        E 0 80 4c 00
        E 0 80 64 00
        E 0 80 1c 00
        E 120 90 4b 64
        E 0 90 63 64
        E 120 80 4b 00
        E 0 80 63 00
        E 120 90 32 66
        E 0 90 4a 66
        E 0 90 62 66
        E 120 80 32 00
        E 0 80 4a 00
        E 0 80 62 00
        E 120 90 63 64
        E 120 80 63 00
        E 120 90 33 66
        E 0 90 4b 66
        E 0 90 63 66
        E 0 90 1b 66
        E 1680 80 33 00
        E 0 80 4b 00
        E 0 80 63 00
        E 0 80 1b 00
        E 11759 b0 7b 00
        GUID {1E43047E-2756-4B06-A88E-443A8647A422}
        IGNTEMPO 0 120.00000000 4 4
        SRCCOLOR 12
        VELLANE 132 128 60
        COLORMAP "C:\Program Files\REAPER (x64)\Data\color_maps\rockband_guitarbass.png"
        CFGEDITVIEW -4814.302309 9.601920 7 12 0 0 0
        CFGEDIT 1 1 0 1 1 0 1 1 1 1 1 0.25000000 -8 -8 1544 872 0 2 1 1 0.00000000 0 1 1 0 0.500000 0 0 1.000000 64
        KEYSNAP 0 7 "102030050700" 0 "Pentatonic"
        EVTFILTER 0 -1 -1 -1 -1 0 1 0 0 -1.00000000 -1.00000000
      >
    >
  >
  <TRACK '{DD759ACB-F107-4C25-906B-03B2BFB9D5BF}'
    NAME "EVENTS"
    PEAKCOL 16576
    BEAT -1
    AUTOMODE 0
    VOLPAN 1.00000000000000 0.00000000000000 -1.00000000000000 -1.00000000000000 1.00000000000000
    MUTESOLO 0 0 0
    IPHASE 0
    ISBUS 0 0
    BUSCOMP 0 0
    SHOWINMIX 1 0.666700 0.500000 1 0.500000 -1 -1 -1
    FREEMODE 0
    SEL 0
    REC 0 0 0 0 0 0 0
    VU 2
    TRACKHEIGHT 0 0
    INQ 0 0 0 0.5000000000 100 0 0 100
    NCHAN 2
    FX 1
    TRACKID {DD759ACB-F107-4C25-906B-03B2BFB9D5BF}
    PERF 0
    MIDIOUT -1
    <MIDINOTENAMES
      0 26 "Hi-Hat"
      0 25 "Snare"
      0 24 "Kick"
    >
    MAINSEND 1 0
    <FXCHAIN
      SHOW 0
      LASTSEL 0
      DOCKED 0
    >
    <ITEM
      POSITION 0.00000000000000
      SNAPOFFS 0.00000000000000
      LENGTH 116.95577200000000
      LOOP 0
      ALLTAKES 0
      SEL 0
      FADEIN 1 0.000000 0.000000 1 0
      FADEOUT 1 0.000000 0.000000 1 0
      MUTE 0
      IGUID {73E40EC8-29B6-4DF3-80AD-802D68D164F5}
      IID 12
      NAME "EVENTS"
      VOLPAN 1.000000 0.000000 1.000000 -1.000000
      SOFFS 0.00000000000000 0.00000000000000
      PLAYRATE 1.00000000000000 1 0.00000000000000 -1
      CHANMODE 0
      GUID {5AF3A77F-2F8A-4089-84DA-D2D82BA829C9}
      <SOURCE MIDI
        HASDATA 1 480 QN
        POOLEDEVTS {F82E9694-9260-42CF-A165-B966A3B342E8}
        <X 0 0
          /wNFVkVOVFM=
        >
        E 0 90 1a 60
        E 120 80 1a 00
        E 840 90 1a 60
        E 120 80 1a 00
        E 840 90 1a 60
        E 120 80 1a 00
        E 360 90 1a 60
        E 120 80 1a 00
        E 360 90 1a 60
        E 120 80 1a 00
        E 360 90 1a 60
        E 120 80 1a 00
        <X 360 0
          /wFbcHJjX2ludHJvXQ==
        >
        <X 0 0
          /wFbY3Jvd2Rfbm9jbGFwXQ==
        >
        E 0 90 1a 60
        E 120 80 1a 00
        <X 360 0
          /wFbY3Jvd2RfbWVsbG93XQ==
        >
        E 0 90 1a 60
        E 120 80 1a 00
        E 360 90 1a 60
        E 120 80 1a 00
        E 360 90 1a 60
        E 120 80 1a 00
        E 360 90 1a 60
        E 120 80 1a 00
        E 360 90 1a 60
        E 120 80 1a 00
        E 360 90 1a 60
        E 120 80 1a 00
        E 360 90 1a 60
        E 120 80 1a 00
        <X 360 0
          /wFbcHJjX3ZlcnNlXzFhXQ==
        >
        E 0 90 1a 60
        E 120 80 1a 00
        <X 360 0
          /wFbbXVzaWNfc3RhcnRd
        >
        E 0 90 1a 60
        E 120 80 1a 00
        E 360 90 1a 60
        E 120 80 1a 00
        E 360 90 1a 60
        E 120 80 1a 00
        E 360 90 1a 60
        E 120 80 1a 00
        E 360 90 1a 60
        E 120 80 1a 00
        E 360 90 1a 60
        E 120 80 1a 00
        E 360 90 1a 60
        E 120 80 1a 00
        E 360 90 1a 60
        E 120 80 1a 00
        E 360 90 1a 60
        E 120 80 1a 00
        E 360 90 1a 60
        E 120 80 1a 00
        E 360 90 1a 60
        E 120 80 1a 00
        E 360 90 1a 60
        E 120 80 1a 00
        E 360 90 1a 60
        E 120 80 1a 00
        E 360 90 1a 60
        E 120 80 1a 00
        E 360 90 1a 60
        E 120 80 1a 00
        E 360 90 1a 60
        E 120 80 1a 00
        E 360 90 1a 60
        E 120 80 1a 00
        E 360 90 1a 60
        E 120 80 1a 00
        E 360 90 1a 60
        E 120 80 1a 00
        E 360 90 1a 60
        E 120 80 1a 00
        E 360 90 1a 60
        E 120 80 1a 00
        E 360 90 1a 60
        E 120 80 1a 00
        E 360 90 1a 60
        E 120 80 1a 00
        E 360 90 1a 60
        E 120 80 1a 00
        E 360 90 1a 60
        E 120 80 1a 00
        E 360 90 1a 60
        E 120 80 1a 00
        E 360 90 1a 60
        E 120 80 1a 00
        E 360 90 1a 60
        E 120 80 1a 00
        E 360 90 1a 60
        E 120 80 1a 00
        E 360 90 1a 60
        E 120 80 1a 00
        E 360 90 1a 60
        E 120 80 1a 00
        <X 360 0
          /wFbcHJjX3ZlcnNlXzFiXQ==
        >
        <X 0 0
          /wFbY3Jvd2Rfbm9ybWFsXQ==
        >
        E 0 90 1a 60
        E 120 80 1a 00
        E 360 90 1a 60
        E 120 80 1a 00
        E 360 90 1a 60
        E 120 80 1a 00
        E 360 90 1a 60
        E 120 80 1a 00
        E 360 90 1a 60
        E 120 80 1a 00
        E 360 90 1a 60
        E 120 80 1a 00
        E 360 90 1a 60
        E 120 80 1a 00
        E 360 90 1a 60
        E 120 80 1a 00
        E 360 90 1a 60
        E 120 80 1a 00
        E 360 90 1a 60
        E 120 80 1a 00
        E 360 90 1a 60
        E 120 80 1a 00
        E 360 90 1a 60
        E 120 80 1a 00
        E 360 90 1a 60
        E 120 80 1a 00
        E 360 90 1a 60
        E 120 80 1a 00
        E 360 90 1a 60
        E 120 80 1a 00
        E 360 90 1a 60
        E 120 80 1a 00
        E 360 90 1a 60
        E 120 80 1a 00
        E 360 90 1a 60
        E 120 80 1a 00
        E 360 90 1a 60
        E 120 80 1a 00
        E 360 90 1a 60
        E 120 80 1a 00
        E 360 90 1a 60
        E 120 80 1a 00
        E 360 90 1a 60
        E 120 80 1a 00
        E 360 90 1a 60
        E 120 80 1a 00
        E 360 90 1a 60
        E 120 80 1a 00
        E 360 90 1a 60
        E 120 80 1a 00
        E 360 90 1a 60
        E 120 80 1a 00
        E 360 90 1a 60
        E 120 80 1a 00
        E 360 90 1a 60
        E 120 80 1a 00
        E 360 90 1a 60
        E 120 80 1a 00
        E 360 90 1a 60
        E 120 80 1a 00
        E 360 90 1a 60
        E 120 80 1a 00
        E 360 90 1a 60
        E 120 80 1a 00
        <X 360 0
          /wFbcHJjX2JyaWRnZV8xXQ==
        >
        E 0 90 1a 60
        E 120 80 1a 00
        E 360 90 1a 60
        E 120 80 1a 00
        E 360 90 1a 60
        E 120 80 1a 00
        E 360 90 1a 60
        E 120 80 1a 00
        E 360 90 1a 60
        E 120 80 1a 00
        E 360 90 1a 60
        E 120 80 1a 00
        E 360 90 1a 60
        E 120 80 1a 00
        E 360 90 1a 60
        E 120 80 1a 00
        E 360 90 1a 60
        E 120 80 1a 00
        E 360 90 1a 60
        E 120 80 1a 00
        E 360 90 1a 60
        E 120 80 1a 00
        E 360 90 1a 60
        E 120 80 1a 00
        E 360 90 1a 60
        E 120 80 1a 00
        E 360 90 1a 60
        E 120 80 1a 00
        E 360 90 1a 60
        E 120 80 1a 00
        E 360 90 1a 60
        E 120 80 1a 00
        <X 360 0
          /wFbcHJjX3ZlcnNlXzJd
        >
        E 0 90 1a 60
        E 120 80 1a 00
        E 360 90 1a 60
        E 120 80 1a 00
        E 360 90 1a 60
        E 120 80 1a 00
        E 360 90 1a 60
        E 120 80 1a 00
        E 360 90 1a 60
        E 120 80 1a 00
        E 360 90 1a 60
        E 120 80 1a 00
        E 360 90 1a 60
        E 120 80 1a 00
        E 360 90 1a 60
        E 120 80 1a 00
        E 360 90 1a 60
        E 120 80 1a 00
        E 360 90 1a 60
        E 120 80 1a 00
        E 360 90 1a 60
        E 120 80 1a 00
        E 360 90 1a 60
        E 120 80 1a 00
        E 360 90 1a 60
        E 120 80 1a 00
        E 360 90 1a 60
        E 120 80 1a 00
        E 360 90 1a 60
        E 120 80 1a 00
        E 360 90 1a 60
        E 120 80 1a 00
        E 360 90 1a 60
        E 120 80 1a 00
        E 360 90 1a 60
        E 120 80 1a 00
        E 360 90 1a 60
        E 120 80 1a 00
        E 360 90 1a 60
        E 120 80 1a 00
        E 360 90 1a 60
        E 120 80 1a 00
        E 360 90 1a 60
        E 120 80 1a 00
        E 360 90 1a 60
        E 120 80 1a 00
        E 360 90 1a 60
        E 120 80 1a 00
        E 360 90 1a 60
        E 120 80 1a 00
        E 360 90 1a 60
        E 120 80 1a 00
        E 360 90 1a 60
        E 120 80 1a 00
        E 360 90 1a 60
        E 120 80 1a 00
        E 360 90 1a 60
        E 120 80 1a 00
        E 360 90 1a 60
        E 120 80 1a 00
        E 360 90 1a 60
        E 120 80 1a 00
        E 360 90 1a 60
        E 120 80 1a 00
        <X 360 0
          /wFbcHJjX291dHJvXQ==
        >
        E 0 90 1a 60
        E 120 80 1a 00
        E 360 90 1a 60
        E 120 80 1a 00
        E 360 90 1a 60
        E 120 80 1a 00
        E 360 90 1a 60
        E 120 80 1a 00
        E 360 90 1a 60
        E 120 80 1a 00
        E 360 90 1a 60
        E 120 80 1a 00
        E 360 90 1a 60
        E 120 80 1a 00
        E 360 90 1a 60
        E 120 80 1a 00
        E 360 90 1a 60
        E 120 80 1a 00
        E 360 90 1a 60
        E 120 80 1a 00
        E 360 90 1a 60
        E 120 80 1a 00
        E 360 90 1a 60
        E 120 80 1a 00
        E 360 90 1a 60
        E 120 80 1a 00
        E 360 90 1a 60
        E 120 80 1a 00
        E 360 90 1a 60
        E 120 80 1a 00
        E 360 90 1a 60
        E 120 80 1a 00
        e 360 90 18 60
        e 120 80 18 00
        <X 120 0
          /wFbbXVzaWNfZW5kXQ==
        >
        <X 0 0
          /wFbY3Jvd2RfcmVhbHRpbWVd
        >
        <X 3595 0
          /wFbZW5kXQ==
        >
        E 5 b0 7b 00
        GUID {0ED77E41-8D85-4614-8EA9-C016A90313CE}
        IGNTEMPO 0 120.00000000 4 4
        SRCCOLOR 13
        VELLANE 132 128 60
        COLORMAP "C:\Program Files\REAPER (x64)\Data\color_maps\rockband_guitarbass.png"
        CFGEDITVIEW 60670.331021 53.049620 0 48 0 0 0
        CFGEDIT 1 1 0 1 1 0 1 1 1 1 1 0.25000000 -8 -8 1544 872 0 2 1 1 0.00000000 0 1 1 0 0.500000 0 0 1.000000 64
        KEYSNAP 0 7 "102030050700" 0 "Pentatonic"
        EVTFILTER 0 -1 -1 -1 -1 0 1 0 0 -1.00000000 -1.00000000
      >
    >
  >
  <TRACK '{F553BC8B-0AE0-4979-9AE6-6A88AD853F38}'
    NAME "BEAT"
    PEAKCOL 16576
    BEAT -1
    AUTOMODE 0
    VOLPAN 1.00000000000000 0.00000000000000 -1.00000000000000 -1.00000000000000 1.00000000000000
    MUTESOLO 0 0 0
    IPHASE 0
    ISBUS 0 0
    BUSCOMP 0 0
    SHOWINMIX 1 0.666700 0.500000 1 0.500000 -1 -1 -1
    FREEMODE 0
    SEL 0
    REC 0 0 0 0 0 0 0
    VU 2
    TRACKHEIGHT 0 0
    INQ 0 0 0 0.5000000000 100 0 0 100
    NCHAN 2
    FX 1
    TRACKID {F553BC8B-0AE0-4979-9AE6-6A88AD853F38}
    PERF 0
    MIDIOUT -1
    <MIDINOTENAMES
      0 13 "Up Beats"
      0 12 "Downbeat"
    >
    MAINSEND 1 0
    <FXCHAIN
      SHOW 0
      LASTSEL 0
      DOCKED 0
    >
    <ITEM
      POSITION 0.00000000000000
      SNAPOFFS 0.00000000000000
      LENGTH 116.95577200000000
      LOOP 0
      ALLTAKES 0
      SEL 0
      FADEIN 1 0.000000 0.000000 1 0
      FADEOUT 1 0.000000 0.000000 1 0
      MUTE 0
      IGUID {9B51B711-EC93-4102-9BAC-72EF28E090D0}
      IID 13
      NAME "BEAT"
      VOLPAN 1.000000 0.000000 1.000000 -1.000000
      SOFFS 0.00000000000000 0.00000000000000
      PLAYRATE 1.00000000000000 1 0.00000000000000 -1
      CHANMODE 0
      GUID {C0ADAE21-6DE5-4D0A-8F76-2A3175E7693A}
      <SOURCE MIDI
        HASDATA 1 480 QN
        POOLEDEVTS {EAD33CC4-AD92-4265-AD6C-345BD9FACAF7}
        <X 0 0
          /wNCRUFU
        >
        E 0 96 0c 64
        E 120 86 0c 00
        E 360 96 0d 64
        E 120 86 0d 00
        E 360 96 0d 64
        E 120 86 0d 00
        E 360 96 0d 64
        E 120 86 0d 00
        E 360 96 0c 64
        E 120 86 0c 00
        E 360 96 0d 64
        E 120 86 0d 00
        E 360 96 0d 64
        E 120 86 0d 00
        E 360 96 0d 64
        E 120 86 0d 00
        E 360 96 0c 64
        E 120 86 0c 00
        E 360 96 0d 64
        E 120 86 0d 00
        E 360 96 0d 64
        E 120 86 0d 00
        E 360 96 0d 64
        E 120 86 0d 00
        E 360 96 0c 64
        E 120 86 0c 00
        E 360 96 0d 64
        E 120 86 0d 00
        E 360 96 0d 64
        E 120 86 0d 00
        E 360 96 0d 64
        E 120 86 0d 00
        E 360 96 0c 64
        E 120 86 0c 00
        E 360 96 0d 64
        E 120 86 0d 00
        E 360 96 0d 64
        E 120 86 0d 00
        E 360 96 0d 64
        E 120 86 0d 00
        E 360 96 0c 64
        E 120 86 0c 00
        E 360 96 0d 64
        E 120 86 0d 00
        E 360 96 0d 64
        E 120 86 0d 00
        E 360 96 0d 64
        E 120 86 0d 00
        E 360 96 0c 64
        E 120 86 0c 00
        E 360 96 0d 64
        E 120 86 0d 00
        E 360 96 0d 64
        E 120 86 0d 00
        E 360 96 0d 64
        E 120 86 0d 00
        E 360 96 0c 64
        E 120 86 0c 00
        E 360 96 0d 64
        E 120 86 0d 00
        E 360 96 0d 64
        E 120 86 0d 00
        E 360 96 0d 64
        E 120 86 0d 00
        E 360 96 0c 64
        E 120 86 0c 00
        E 360 96 0d 64
        E 120 86 0d 00
        E 360 96 0d 64
        E 120 86 0d 00
        E 360 96 0d 64
        E 120 86 0d 00
        E 360 96 0c 64
        E 120 86 0c 00
        E 360 96 0d 64
        E 120 86 0d 00
        E 360 96 0d 64
        E 120 86 0d 00
        E 360 96 0d 64
        E 120 86 0d 00
        E 360 96 0c 64
        E 120 86 0c 00
        E 360 96 0d 64
        E 120 86 0d 00
        E 360 96 0d 64
        E 120 86 0d 00
        E 360 96 0d 64
        E 120 86 0d 00
        E 360 96 0c 64
        E 120 86 0c 00
        E 360 96 0d 64
        E 120 86 0d 00
        E 360 96 0d 64
        E 120 86 0d 00
        E 360 96 0d 64
        E 120 86 0d 00
        E 360 96 0c 64
        E 120 86 0c 00
        E 360 96 0d 64
        E 120 86 0d 00
        E 360 96 0d 64
        E 120 86 0d 00
        E 360 96 0d 64
        E 120 86 0d 00
        E 360 96 0c 64
        E 120 86 0c 00
        E 360 96 0d 64
        E 120 86 0d 00
        E 360 96 0d 64
        E 120 86 0d 00
        E 360 96 0d 64
        E 120 86 0d 00
        E 360 96 0c 64
        E 120 86 0c 00
        E 360 96 0d 64
        E 120 86 0d 00
        E 360 96 0d 64
        E 120 86 0d 00
        E 360 96 0d 64
        E 120 86 0d 00
        E 360 96 0c 64
        E 120 86 0c 00
        E 360 96 0d 64
        E 120 86 0d 00
        E 360 96 0d 64
        E 120 86 0d 00
        E 360 96 0d 64
        E 120 86 0d 00
        E 360 96 0c 64
        E 120 86 0c 00
        E 360 96 0d 64
        E 120 86 0d 00
        E 360 96 0d 64
        E 120 86 0d 00
        E 360 96 0d 64
        E 120 86 0d 00
        E 360 96 0c 64
        E 120 86 0c 00
        E 360 96 0d 64
        E 120 86 0d 00
        E 360 96 0d 64
        E 120 86 0d 00
        E 360 96 0d 64
        E 120 86 0d 00
        E 360 96 0c 64
        E 120 86 0c 00
        E 360 96 0d 64
        E 120 86 0d 00
        E 360 96 0d 64
        E 120 86 0d 00
        E 360 96 0d 64
        E 120 86 0d 00
        E 360 96 0c 64
        E 120 86 0c 00
        E 360 96 0d 64
        E 120 86 0d 00
        E 360 96 0d 64
        E 120 86 0d 00
        E 360 96 0d 64
        E 120 86 0d 00
        E 360 96 0c 64
        E 120 86 0c 00
        E 360 96 0d 64
        E 120 86 0d 00
        E 360 96 0d 64
        E 120 86 0d 00
        E 360 96 0d 64
        E 120 86 0d 00
        E 360 96 0c 64
        E 120 86 0c 00
        E 360 96 0d 64
        E 120 86 0d 00
        E 360 96 0d 64
        E 120 86 0d 00
        E 360 96 0d 64
        E 120 86 0d 00
        E 360 96 0c 64
        E 120 86 0c 00
        E 360 96 0d 64
        E 120 86 0d 00
        E 360 96 0d 64
        E 120 86 0d 00
        E 360 96 0d 64
        E 120 86 0d 00
        E 360 96 0c 64
        E 120 86 0c 00
        E 360 96 0d 64
        E 120 86 0d 00
        E 360 96 0d 64
        E 120 86 0d 00
        E 360 96 0d 64
        E 120 86 0d 00
        E 360 96 0c 64
        E 120 86 0c 00
        E 360 96 0d 64
        E 120 86 0d 00
        E 360 96 0d 64
        E 120 86 0d 00
        E 360 96 0d 64
        E 120 86 0d 00
        E 360 96 0c 64
        E 120 86 0c 00
        E 360 96 0d 64
        E 120 86 0d 00
        E 360 96 0d 64
        E 120 86 0d 00
        E 360 96 0d 64
        E 120 86 0d 00
        E 360 96 0c 64
        E 120 86 0c 00
        E 360 96 0d 64
        E 120 86 0d 00
        E 360 96 0d 64
        E 120 86 0d 00
        E 360 96 0d 64
        E 120 86 0d 00
        E 360 96 0c 64
        E 120 86 0c 00
        E 360 96 0d 64
        E 120 86 0d 00
        E 360 96 0d 64
        E 120 86 0d 00
        E 360 96 0d 64
        E 120 86 0d 00
        E 360 96 0c 64
        E 120 86 0c 00
        E 360 96 0d 64
        E 120 86 0d 00
        E 360 96 0d 64
        E 120 86 0d 00
        E 360 96 0d 64
        E 120 86 0d 00
        E 360 96 0c 64
        E 120 86 0c 00
        E 360 96 0d 64
        E 120 86 0d 00
        E 360 96 0d 64
        E 120 86 0d 00
        E 360 96 0d 64
        E 120 86 0d 00
        E 360 96 0c 64
        E 120 86 0c 00
        E 360 96 0d 64
        E 120 86 0d 00
        E 360 96 0d 64
        E 120 86 0d 00
        E 360 96 0d 64
        E 120 86 0d 00
        E 360 96 0c 64
        E 120 86 0c 00
        E 360 96 0d 64
        E 120 86 0d 00
        E 360 96 0d 64
        E 120 86 0d 00
        E 360 96 0d 64
        E 120 86 0d 00
        E 360 96 0c 64
        E 120 86 0c 00
        E 360 96 0d 64
        E 120 86 0d 00
        E 360 96 0d 64
        E 120 86 0d 00
        E 360 96 0d 64
        E 120 86 0d 00
        E 360 96 0c 64
        E 120 86 0c 00
        E 360 96 0d 64
        E 120 86 0d 00
        E 360 96 0d 64
        E 120 86 0d 00
        E 360 96 0d 64
        E 120 86 0d 00
        E 360 96 0c 64
        E 120 86 0c 00
        E 360 96 0d 64
        E 120 86 0d 00
        E 360 96 0d 64
        E 120 86 0d 00
        E 360 96 0d 64
        E 120 86 0d 00
        E 360 96 0c 64
        E 120 86 0c 00
        E 360 96 0d 64
        E 120 86 0d 00
        E 360 96 0d 64
        E 120 86 0d 00
        E 360 96 0d 64
        E 120 86 0d 00
        E 360 96 0c 64
        E 120 86 0c 00
        E 360 96 0d 64
        E 120 86 0d 00
        E 360 96 0d 64
        E 120 86 0d 00
        E 360 96 0d 64
        E 120 86 0d 00
        E 360 96 0c 64
        E 120 86 0c 00
        E 360 96 0d 64
        E 120 86 0d 00
        E 360 96 0d 64
        E 120 86 0d 00
        E 360 96 0d 64
        E 120 86 0d 00
        E 360 b0 7b 00
        GUID {89A95FAD-4790-4EE5-8B3C-EEACE86219B7}
        IGNTEMPO 0 120.00000000 4 4
        SRCCOLOR 14
        VELLANE 132 128 60
        COLORMAP "C:\Program Files\REAPER (x64)\Data\color_maps\rockband_guitarbass.png"
        CFGEDITVIEW -871.383187 53.049620 0 48 0 0 0
        CFGEDIT 1 1 0 1 1 0 1 1 1 1 1 0.25000000 -8 -8 1544 872 0 2 1 1 0.00000000 0 1 1 0 0.500000 0 0 1.000000 64
        KEYSNAP 0 7 "102030050700" 0 "Pentatonic"
        EVTFILTER 0 -1 -1 -1 -1 0 1 0 0 -1.00000000 -1.00000000
      >
    >
  >
  <TRACK '{2C3AE886-9613-4B5F-AEBE-8B8E7775FBF5}'
    NAME "backing"
    PEAKCOL 16576
    BEAT -1
    AUTOMODE 0
    VOLPAN 1.00000000000000 0.00000000000000 -1.00000000000000 -1.00000000000000 1.00000000000000
    MUTESOLO 0 0 0
    IPHASE 0
    ISBUS 0 0
    BUSCOMP 0 0
    SHOWINMIX 1 0.666700 0.500000 1 0.500000 -1 -1 -1
    FREEMODE 0
    SEL 0
    REC 0 0 0 0 0 0 0
    VU 2
    TRACKHEIGHT 0 0
    INQ 0 0 0 0.5000000000 100 0 0 100
    NCHAN 2
    FX 1
    TRACKID {2C3AE886-9613-4B5F-AEBE-8B8E7775FBF5}
    PERF 0
    MIDIOUT -1
    MAINSEND 1 0
    <ITEM
      POSITION 0.00000000000000
      SNAPOFFS 0.00000000000000
      LENGTH 116.95582766439910
      LOOP 0
      ALLTAKES 0
      SEL 0
      FADEIN 1 0.000000 0.000000 1 0
      FADEOUT 1 0.000000 0.000000 1 0
      MUTE 0
      IGUID {2C3E7DDC-DCDF-4012-970D-A61C33952B74}
      IID 14
      NAME "backing.wav"
      VOLPAN 1.000000 0.000000 1.000000 -1.000000
      SOFFS 0.00000000000000
      PLAYRATE 1.00000000000000 1 0.00000000000000 -1
      CHANMODE 0
      GUID {5DFE7616-B8A1-4E78-9DD7-D4331A681721}
      <SOURCE WAVE
        FILE "wav\backing.wav"
      >
    >
  >
  <EXTENSIONS
  >
>
