<REAPER_PROJECT 0.1 "4.22/x64"
  RIPPLE 0
  GROUPOVERRIDE 0 0 0
  AUTOXFADE 1
  ENVATTACH 1
  MIXERUIFLAGS 11 48
  PEAKGAIN 1.00000000000000
  FEEDBACK 0
  PANLAW 1.00000000000000
  PROJOFFS 0.00000000000000 0
  MAXPROJLEN 0 600.00000000000000
  GRID 3199 8 1.00000000000000 8 1.00000000000000 0
  TIMEMODE 1 0 1
  PANMODE 3
  CURSOR 122.20814720981399
  ZOOM 8.82061388308280 0 0
  VZOOMEX 6
  USE_REC_CFG 0
  RECMODE 1
  SMPTESYNC 0 23.976024 100 40 1000 300 0 0.000000 1
  LOOP 1
  LOOPGRAN 0 4.00000000000000
  RECORD_PATH "" ""
  <RECORD_CFG
    ZXZhdxAD
  >
  <APPLYFX_CFG
  >
  RENDER_FILE ""
  RENDER_PATTERN ""
  RENDER_FMT 0 2 0
  RENDER_1X 0
  RENDER_RANGE 1 0.00000000000000 0.00000000000000
  RENDER_RESAMPLE 3 0 1
  RENDER_ADDTOPROJ 0
  RENDER_STEMS 0
  RENDER_DITHER 0
  TIMELOCKMODE 0
  ITEMMIX 0
  DEFPITCHMODE 393216
  TAKELANE 1
  SAMPLERATE 44100 0 0
  <RENDER_CFG
  >
  LOCK 1
  <METRONOME 6 2.000000
    VOL 0.250000 0.125000
    FREQ 800 1600 1
    BEATLEN 4
    SAMPLES "" ""
  >
  GLOBAL_AUTO -1
  TEMPO 120.00000000000000 4 4
  PLAYRATE 1.00000000000000 0 0.25000 4.00000
  SELECTION 126.40842722848190 0.00000000000000
  SELECTION2 126.40842722848190 0.00000000000000
  MASTERAUTOMODE 0
  MASTERTRACKHEIGHT 0
  MASTERPEAKCOL 16576
  MASTERMUTESOLO 0
  MASTERTRACKVIEW 0 0.666700 0.500000 0.500000 -1 -1 -1
  MASTERHWOUT 0 0 1.00000000000000 0.00000000000000 0 0 0 -1.00000000000000
  MASTER_NCH 2 2
  MASTER_VOLUME 1.00000000000000 0.00000000000000 -1.00000000000000 -1.00000000000000 1.00000000000000
  MASTER_PANMODE -1
  MASTER_FX 1
  MASTER_SEL 0
  <MASTERPLAYSPEEDENV
    ACT 0
    VIS 0 1 1.000000
    LANEHEIGHT 0 0
    ARM 0
    DEFSHAPE 0 -1 -1
  >
  <TEMPOENVEX
    ACT 1
    VIS 1 0 1.000000
    LANEHEIGHT 0 0
    ARM 0
    DEFSHAPE 1 -1 -1
    PT 0.000000000000 149.9900000000 1
  >
  <PROJBAY
  >
  <TRACK '{6EE8DAAB-4C4D-4266-85FE-A5C64DEE6376}'
    NAME "PART DRUMS"
    PEAKCOL 16576
    BEAT -1
    AUTOMODE 0
    VOLPAN 1.00000000000000 0.00000000000000 -1.00000000000000 -1.00000000000000 1.00000000000000
    MUTESOLO 0 0 0
    IPHASE 0
    ISBUS 1 1
    BUSCOMP 0 0
    SHOWINMIX 1 0.666700 0.500000 1 0.500000 -1 -1 -1
    FREEMODE 0
    SEL 0
    REC 0 0 0 0 0 0 0
    VU 2
    TRACKHEIGHT 0 0
    INQ 0 0 0 0.5000000000 100 0 0 100
    NCHAN 2
    FX 1
    TRACKID {6EE8DAAB-4C4D-4266-85FE-A5C64DEE6376}
    PERF 0
    MIDIOUT -1
    <MIDINOTENAMES
      0 127 "CYMBAL SWELLS"
      0 126 "DRUM ROLL"
      0 125 "---"
      0 124 "DRUM FILL"
      0 123 "DRUM FILL"
      0 122 "DRUM FILL"
      0 121 "DRUM FILL"
      0 120 "DRUM FILL (use all 5)"
      0 118 "----"
      0 116 "OVERDRIVE"
      0 114 "----"
      0 112 "TOM GEMS PAD 4"
      0 111 "TOM GEMS PAD 3"
      0 110 "TOM GEMS PAD 2"
      0 103 "Solo Marker"
      0 102 "----"
      0 100 "EXPERT Green"
      0 99 "EXPERT Blue"
      0 98 "EXPERT Yellow"
      0 97 "EXPERT Red"
      0 96 "EXPERT Kick"
      0 92 "----"
      0 88 "HARD Green"
      0 87 "HARD Blue"
      0 86 "HARD Yellow"
      0 85 "HARD Red"
      0 84 "HARD Kick"
      0 80 "----"
      0 76 "MEDIUM Green"
      0 75 "MEDIUM Blue"
      0 74 "MEDIUM Yellow"
      0 73 "MEDIUM Red"
      0 72 "MEDIUM Kick"
      0 68 "----"
      0 64 "EASY Green"
      0 63 "EASY Blue"
      0 62 "EASY Yellow"
      0 61 "EASY Red"
      0 60 "EASY Kick"
      0 56 "----"
      0 52 "-- DRUM ANIMATION --"
      0 51 "FLOOR TOM RH"
      0 50 "FLOOR TOM LH"
      0 49 "TOM2 RH"
      0 48 "TOM2 LH"
      0 47 "TOM1 RH"
      0 46 "TOM1 LH"
      0 45 "SOFT CRASH 2 LH"
      0 44 "CRASH 2 LH"
      0 43 "RIDE LH"
      0 42 "RIDE CYM RH"
      0 41 "CRASH2 CHOKE"
      0 40 "CRASH1 CHOKE"
      0 39 "CRASH2 SOFT RH"
      0 38 "CRASH2 HARD RH"
      0 37 "CRASH1 SOFT RH"
      0 36 "CRASH1 HARD RH"
      0 35 "CRASH1 SOFT LH"
      0 34 "CRASH1 HARD LH"
      0 32 "PERCUSSION RH"
      0 31 "HI-HAT RH"
      0 30 "HI-HAT LH"
      0 29 "SOFT SNARE RH"
      0 28 "SOFT SNARE LH"
      0 27 "SNARE RH"
      0 26 "SNARE LH"
      0 25 "HI-HAT OPEN"
      0 24 "KICK RF"
    >
    MAINSEND 1 0
    <FXCHAIN
      WNDRECT 409 51 878 559
      SHOW 0
      LASTSEL 0
      DOCKED 0
      BYPASS 0 0
      <VST "VSTi: RBN Preview (RBN)" "rbprev_vst64.dll" 0 ""
        dnBicu5e7f4AAAAAAgAAAAEAAAAAAAAAAgAAAAAAAAAEAAAAAQAAAA==
        AAAQAAMBqgAAABAAAAA=
      >
      FLOATPOS 0 0 0 0
      FXID {E70E72BA-8772-40A2-97DD-AE785F10A0C8}
      WAK 0
    >
    <ITEM
      POSITION 0.00000000000000
      SNAPOFFS 0.00000000000000
      LENGTH 126.40843537414966
      LOOP 0
      ALLTAKES 0
      SEL 0
      FADEIN 1 0.000000 0.000000 1 0
      FADEOUT 1 0.000000 0.000000 1 0
      MUTE 0
      IGUID {8F0723FD-3FD5-489D-AF5B-320D1110526C}
      IID 15
      NAME "PART DRUMS"
      VOLPAN 1.000000 0.000000 1.000000 -1.000000
      SOFFS 0.00000000000000 0.00000000000000
      PLAYRATE 1.00000000000000 1 0.00000000000000 -1
      CHANMODE 0
      GUID {3407EB1B-FE74-4797-88A8-8E921A603AF4}
      <SOURCE MIDI
        HASDATA 1 480 QN
        POOLEDEVTS {4039F193-5CDF-42AD-8C4B-C3975BE31112}
        <X 0 0
          /wNQQVJUIERSVU1T
        >
        E 0 90 19 60
        <X 120 0
          /wFbbWl4IDAgZHJ1bXMxXQ==
        >
        <X 120 0
          /wFbbWl4IDEgZHJ1bXMxXQ==
        >
        <X 120 0
          /wFbbWl4IDIgZHJ1bXMxXQ==
        >
        <X 120 0
          /wFbbWl4IDMgZHJ1bXMxXQ==
        >
        E 1440 80 19 00
        <X 1920 0
          /wFbcGxheV0=
        >
        E 0 90 1f 60
        E 0 90 3e 60
        E 0 90 4a 60
        E 0 90 56 60
        E 0 90 62 60
        E 120 80 1f 00
        E 0 80 3e 00
        E 0 80 4a 00
        E 0 80 56 00
        E 0 80 62 00
        E 360 90 1f 60
        E 0 90 3e 60
        E 0 90 4a 60
        E 0 90 56 60
        E 0 90 62 60
        E 120 80 1f 00
        E 0 80 3e 00
        E 0 80 4a 00
        E 0 80 56 00
        E 0 80 62 00
        E 120 90 1f 60
        E 0 90 56 60
        E 0 90 62 60
        E 120 80 1f 00
        E 0 80 56 00
        E 0 80 62 00
        E 120 90 18 60
        E 0 90 1f 60
        E 0 90 3e 60
        E 0 90 48 60
        E 0 90 4a 60
        E 0 90 54 60
        E 0 90 56 60
        E 0 90 60 60
        E 0 90 62 60
        E 120 80 18 00
        E 0 80 1f 00
        E 0 80 3e 00
        E 0 80 48 00
        E 0 80 4a 00
        E 0 80 54 00
        E 0 80 56 00
        E 0 80 60 00
        E 0 80 62 00
        E 360 90 1f 60
        E 0 90 3e 60
        E 0 90 4a 60
        E 0 90 56 60
        E 0 90 62 60
        E 120 80 1f 00
        E 0 80 3e 00
        E 0 80 4a 00
        E 0 80 56 00
        E 0 80 62 00
        E 120 90 1f 60
        E 0 90 56 60
        E 0 90 62 60
        E 120 80 1f 00
        E 0 80 56 00
        E 0 80 62 00
        E 360 90 18 60
        E 0 90 54 60
        E 0 90 60 60
        E 120 80 18 00
        E 0 80 54 00
        E 0 80 60 00
        E 120 90 1f 60
        E 0 90 3e 60
        E 0 90 4a 60
        E 0 90 56 60
        E 0 90 62 60
        E 120 80 1f 00
        E 0 80 3e 00
        E 0 80 4a 00
        E 0 80 56 00
        E 0 80 62 00
        E 120 90 1f 60
        E 0 90 56 60
        E 0 90 62 60
        E 120 80 1f 00
        E 0 80 56 00
        E 0 80 62 00
        E 120 90 1a 60
        E 0 90 3d 60
        E 0 90 49 60
        E 0 90 55 60
        E 0 90 61 60
        E 120 80 1a 00
        E 0 80 3d 00
        E 0 80 49 00
        E 0 80 55 00
        E 0 80 61 00
        E 120 90 1f 60
        E 0 90 56 60
        E 0 90 62 60
        E 120 80 1f 00
        E 0 80 56 00
        E 0 80 62 00
        E 120 90 1f 60
        E 0 90 3e 60
        E 0 90 4a 60
        E 0 90 56 60
        E 0 90 62 60
        E 120 80 1f 00
        E 0 80 3e 00
        E 0 80 4a 00
        E 0 80 56 00
        E 0 80 62 00
        E 120 90 1f 60
        E 0 90 56 60
        E 0 90 62 60
        E 120 80 1f 00
        E 0 80 56 00
        E 0 80 62 00
        E 120 90 1f 60
        E 0 90 3e 60
        E 0 90 4a 60
        E 0 90 56 60
        E 0 90 62 60
        E 120 80 1f 00
        E 0 80 3e 00
        E 0 80 4a 00
        E 0 80 56 00
        E 0 80 62 00
        E 360 90 1f 60
        E 0 90 3e 60
        E 0 90 4a 60
        E 0 90 56 60
        E 0 90 62 60
        E 120 80 1f 00
        E 0 80 3e 00
        E 0 80 4a 00
        E 0 80 56 00
        E 0 80 62 00
        E 120 90 1f 60
        E 0 90 56 60
        E 0 90 62 60
        E 120 80 1f 00
        E 0 80 56 00
        E 0 80 62 00
        E 120 90 18 60
        E 0 90 1f 60
        E 0 90 3e 60
        E 0 90 48 60
        E 0 90 4a 60
        E 0 90 54 60
        E 0 90 56 60
        E 0 90 60 60
        E 0 90 62 60
        E 120 80 18 00
        E 0 80 1f 00
        E 0 80 3e 00
        E 0 80 48 00
        E 0 80 4a 00
        E 0 80 54 00
        E 0 80 56 00
        E 0 80 60 00
        E 0 80 62 00
        E 360 90 1f 60
        E 0 90 3e 60
        E 0 90 4a 60
        E 0 90 56 60
        E 0 90 62 60
        E 120 80 1f 00
        E 0 80 3e 00
        E 0 80 4a 00
        E 0 80 56 00
        E 0 80 62 00
        E 120 90 1f 60
        E 0 90 56 60
        E 0 90 62 60
        E 120 80 1f 00
        E 0 80 56 00
        E 0 80 62 00
        E 120 90 78 60
        E 0 90 79 60
        E 0 90 7a 60
        E 0 90 7b 60
        E 0 90 7c 60
        E 240 90 18 60
        E 0 90 54 60
        E 0 90 60 60
        E 120 80 18 00
        E 0 80 54 00
        E 0 80 60 00
        E 120 90 1f 60
        E 0 90 3e 60
        E 0 90 4a 60
        E 0 90 56 60
        E 0 90 62 60
        E 120 80 1f 00
        E 0 80 3e 00
        E 0 80 4a 00
        E 0 80 56 00
        E 0 80 62 00
        E 120 90 1f 60
        E 0 90 56 60
        E 0 90 62 60
        E 120 80 1f 00
        E 0 80 56 00
        E 0 80 62 00
        E 120 90 1a 60
        E 0 90 3d 60
        E 0 90 49 60
        E 0 90 55 60
        E 0 90 61 60
        E 120 80 1a 00
        E 0 80 3d 00
        E 0 80 49 00
        E 0 80 55 00
        E 0 80 61 00
        E 120 90 1f 60
        E 0 90 56 60
        E 0 90 62 60
        E 120 80 1f 00
        E 0 80 56 00
        E 0 80 62 00
        E 120 90 1f 60
        E 0 90 3e 60
        E 0 90 4a 60
        E 0 90 56 60
        E 0 90 62 60
        E 120 80 1f 00
        E 0 80 3e 00
        E 0 80 4a 00
        E 0 80 56 00
        E 0 80 62 00
        E 120 90 1f 60
        E 0 90 56 60
        E 0 90 62 60
        E 120 80 1f 00
        E 0 80 56 00
        E 0 80 62 00
        E 120 80 78 00
        E 0 80 79 00
        E 0 80 7a 00
        E 0 80 7b 00
        E 0 80 7c 00
        E 0 90 1f 60
        E 0 90 3e 60
        E 0 90 4a 60
        E 0 90 56 60
        E 0 90 62 60
        E 120 80 1f 00
        E 0 80 3e 00
        E 0 80 4a 00
        E 0 80 56 00
        E 0 80 62 00
        E 360 90 1f 60
        E 0 90 3e 60
        E 0 90 4a 60
        E 0 90 56 60
        E 0 90 62 60
        E 120 80 1f 00
        E 0 80 3e 00
        E 0 80 4a 00
        E 0 80 56 00
        E 0 80 62 00
        E 120 90 1f 60
        E 0 90 56 60
        E 0 90 62 60
        E 120 80 1f 00
        E 0 80 56 00
        E 0 80 62 00
        E 120 90 18 60
        E 0 90 1f 60
        E 0 90 3e 60
        E 0 90 48 60
        E 0 90 4a 60
        E 0 90 54 60
        E 0 90 56 60
        E 0 90 60 60
        E 0 90 62 60
        E 120 80 18 00
        E 0 80 1f 00
        E 0 80 3e 00
        E 0 80 48 00
        E 0 80 4a 00
        E 0 80 54 00
        E 0 80 56 00
        E 0 80 60 00
        E 0 80 62 00
        E 360 90 1f 60
        E 0 90 3e 60
        E 0 90 4a 60
        E 0 90 56 60
        E 0 90 62 60
        E 120 80 1f 00
        E 0 80 3e 00
        E 0 80 4a 00
        E 0 80 56 00
        E 0 80 62 00
        E 120 90 1f 60
        E 0 90 56 60
        E 0 90 62 60
        E 120 80 1f 00
        E 0 80 56 00
        E 0 80 62 00
        E 360 90 18 60
        E 0 90 54 60
        E 0 90 60 60
        E 0 90 74 60
        E 120 80 18 00
        E 0 80 54 00
        E 0 80 60 00
        E 120 90 1f 60
        E 0 90 3e 60
        E 0 90 4a 60
        E 0 90 56 60
        E 0 90 62 60
        E 120 80 1f 00
        E 0 80 3e 00
        E 0 80 4a 00
        E 0 80 56 00
        E 0 80 62 00
        E 120 90 1f 60
        E 0 90 56 60
        E 0 90 62 60
        E 120 80 1f 00
        E 0 80 56 00
        E 0 80 62 00
        E 120 90 1a 60
        E 0 90 3d 60
        E 0 90 49 60
        E 0 90 55 60
        E 0 90 61 60
        E 120 80 1a 00
        E 0 80 3d 00
        E 0 80 49 00
        E 0 80 55 00
        E 0 80 61 00
        E 120 90 1f 60
        E 0 90 56 60
        E 0 90 62 60
        E 120 80 1f 00
        E 0 80 56 00
        E 0 80 62 00
        E 120 90 1f 60
        E 0 90 3e 60
        E 0 90 4a 60
        E 0 90 56 60
        E 0 90 62 60
        E 120 80 1f 00
        E 0 80 3e 00
        E 0 80 4a 00
        E 0 80 56 00
        E 0 80 62 00
        E 120 90 1f 60
        E 0 90 56 60
        E 0 90 62 60
        E 120 80 1f 00
        E 0 80 56 00
        E 0 80 62 00
        E 120 90 1f 60
        E 0 90 3e 60
        E 0 90 4a 60
        E 0 90 56 60
        E 0 90 62 60
        E 120 80 74 00
        E 0 80 1f 00
        E 0 80 3e 00
        E 0 80 4a 00
        E 0 80 56 00
        E 0 80 62 00
        E 360 90 1f 60
        E 0 90 3e 60
        E 0 90 4a 60
        E 0 90 56 60
        E 0 90 62 60
        E 120 80 1f 00
        E 0 80 3e 00
        E 0 80 4a 00
        E 0 80 56 00
        E 0 80 62 00
        E 120 90 1f 60
        E 0 90 56 60
        E 0 90 62 60
        E 120 80 1f 00
        E 0 80 56 00
        E 0 80 62 00
        E 120 90 18 60
        E 0 90 1f 60
        E 0 90 3e 60
        E 0 90 48 60
        E 0 90 4a 60
        E 0 90 54 60
        E 0 90 56 60
        E 0 90 60 60
        E 0 90 62 60
        E 120 80 18 00
        E 0 80 1f 00
        E 0 80 3e 00
        E 0 80 48 00
        E 0 80 4a 00
        E 0 80 54 00
        E 0 80 56 00
        E 0 80 60 00
        E 0 80 62 00
        E 360 90 1f 60
        E 0 90 3e 60
        E 0 90 4a 60
        E 0 90 56 60
        E 0 90 62 60
        E 120 80 1f 00
        E 0 80 3e 00
        E 0 80 4a 00
        E 0 80 56 00
        E 0 80 62 00
        E 120 90 1f 60
        E 0 90 56 60
        E 0 90 62 60
        E 120 80 1f 00
        E 0 80 56 00
        E 0 80 62 00
        E 120 90 78 60
        E 0 90 79 60
        E 0 90 7a 60
        E 0 90 7b 60
        E 0 90 7c 60
        E 240 90 1a 60
        E 0 90 3d 60
        E 0 90 49 60
        E 0 90 55 60
        E 0 90 61 60
        E 120 80 1a 00
        E 0 80 3d 00
        E 0 80 49 00
        E 0 80 55 00
        E 0 80 61 00
        E 360 90 18 60
        E 0 90 54 60
        E 0 90 60 60
        E 120 80 18 00
        E 0 80 54 00
        E 0 80 60 00
        E 120 90 1b 60
        E 0 90 3d 60
        E 0 90 49 60
        E 0 90 55 60
        E 0 90 61 60
        E 120 80 1b 00
        E 0 80 3d 00
        E 0 80 49 00
        E 0 80 55 00
        E 0 80 61 00
        E 120 90 1a 60
        E 0 90 55 60
        E 0 90 61 60
        E 120 80 1a 00
        E 0 80 55 00
        E 0 80 61 00
        E 120 90 1b 60
        E 0 90 3d 60
        E 0 90 49 60
        E 0 90 55 60
        E 0 90 61 60
        E 120 80 1b 00
        E 0 80 3d 00
        E 0 80 49 00
        E 0 80 55 00
        E 0 80 61 00
        E 360 80 78 00
        E 0 80 79 00
        E 0 80 7a 00
        E 0 80 7b 00
        E 0 80 7c 00
        E 0 90 18 60
        E 0 90 3c 60
        E 0 90 48 60
        E 0 90 54 60
        E 0 90 60 60
        E 120 80 18 00
        E 0 80 3c 00
        E 0 80 48 00
        E 0 80 54 00
        E 0 80 60 00
        E 360 90 1f 60
        E 0 90 3e 60
        E 0 90 4a 60
        E 0 90 56 60
        E 0 90 62 60
        E 120 80 1f 00
        E 0 80 3e 00
        E 0 80 4a 00
        E 0 80 56 00
        E 0 80 62 00
        E 120 90 1f 60
        E 0 90 56 60
        E 0 90 62 60
        E 120 80 1f 00
        E 0 80 56 00
        E 0 80 62 00
        E 120 90 1a 60
        E 0 90 3d 60
        E 0 90 49 60
        E 0 90 55 60
        E 0 90 61 60
        E 120 80 1a 00
        E 0 80 3d 00
        E 0 80 49 00
        E 0 80 55 00
        E 0 80 61 00
        E 360 90 1f 60
        E 0 90 3e 60
        E 0 90 4a 60
        E 0 90 56 60
        E 0 90 62 60
        E 120 80 1f 00
        E 0 80 3e 00
        E 0 80 4a 00
        E 0 80 56 00
        E 0 80 62 00
        E 120 90 1f 60
        E 0 90 56 60
        E 0 90 62 60
        E 120 80 1f 00
        E 0 80 56 00
        E 0 80 62 00
        E 360 90 18 60
        E 0 90 54 60
        E 0 90 60 60
        E 120 80 18 00
        E 0 80 54 00
        E 0 80 60 00
        E 120 90 1f 60
        E 0 90 3e 60
        E 0 90 4a 60
        E 0 90 56 60
        E 0 90 62 60
        E 120 80 1f 00
        E 0 80 3e 00
        E 0 80 4a 00
        E 0 80 56 00
        E 0 80 62 00
        E 120 90 1f 60
        E 0 90 56 60
        E 0 90 62 60
        E 120 80 1f 00
        E 0 80 56 00
        E 0 80 62 00
        E 120 90 1a 60
        E 0 90 3d 60
        E 0 90 49 60
        E 0 90 55 60
        E 0 90 61 60
        E 120 80 1a 00
        E 0 80 3d 00
        E 0 80 49 00
        E 0 80 55 00
        E 0 80 61 00
        E 360 90 1f 60
        E 0 90 3e 60
        E 0 90 4a 60
        E 0 90 56 60
        E 0 90 62 60
        E 120 80 1f 00
        E 0 80 3e 00
        E 0 80 4a 00
        E 0 80 56 00
        E 0 80 62 00
        E 120 90 1f 60
        E 0 90 56 60
        E 0 90 62 60
        E 120 80 1f 00
        E 0 80 56 00
        E 0 80 62 00
        E 120 90 18 60
        E 0 90 3c 60
        E 0 90 48 60
        E 0 90 54 60
        E 0 90 60 60
        E 120 80 18 00
        E 0 80 3c 00
        E 0 80 48 00
        E 0 80 54 00
        E 0 80 60 00
        E 360 90 1f 60
        E 0 90 3e 60
        E 0 90 4a 60
        E 0 90 56 60
        E 0 90 62 60
        E 120 80 1f 00
        E 0 80 3e 00
        E 0 80 4a 00
        E 0 80 56 00
        E 0 80 62 00
        E 120 90 1f 60
        E 0 90 56 60
        E 0 90 62 60
        E 120 80 1f 00
        E 0 80 56 00
        E 0 80 62 00
        E 120 90 1a 60
        E 0 90 3d 60
        E 0 90 49 60
        E 0 90 55 60
        E 0 90 61 60
        E 120 80 1a 00
        E 0 80 3d 00
        E 0 80 49 00
        E 0 80 55 00
        E 0 80 61 00
        E 360 90 1f 60
        E 0 90 3e 60
        E 0 90 4a 60
        E 0 90 56 60
        E 0 90 62 60
        E 120 80 1f 00
        E 0 80 3e 00
        E 0 80 4a 00
        E 0 80 56 00
        E 0 80 62 00
        E 120 90 1f 60
        E 0 90 56 60
        E 0 90 62 60
        E 120 80 1f 00
        E 0 80 56 00
        E 0 80 62 00
        E 120 90 78 60
        E 0 90 79 60
        E 0 90 7a 60
        E 0 90 7b 60
        E 0 90 7c 60
        E 240 90 18 60
        E 0 90 54 60
        E 0 90 60 60
        E 120 80 18 00
        E 0 80 54 00
        E 0 80 60 00
        E 120 90 1f 60
        E 0 90 3e 60
        E 0 90 4a 60
        E 0 90 56 60
        E 0 90 62 60
        E 120 80 1f 00
        E 0 80 3e 00
        E 0 80 4a 00
        E 0 80 56 00
        E 0 80 62 00
        E 120 90 1f 60
        E 0 90 56 60
        E 0 90 62 60
        E 120 80 1f 00
        E 0 80 56 00
        E 0 80 62 00
        E 120 90 1a 60
        E 0 90 3d 60
        E 0 90 49 60
        E 0 90 55 60
        E 0 90 61 60
        E 120 80 1a 00
        E 0 80 3d 00
        E 0 80 49 00
        E 0 80 55 00
        E 0 80 61 00
        E 360 90 1f 60
        E 0 90 3e 60
        E 0 90 4a 60
        E 0 90 56 60
        E 0 90 62 60
        E 120 80 1f 00
        E 0 80 3e 00
        E 0 80 4a 00
        E 0 80 56 00
        E 0 80 62 00
        E 120 90 1f 60
        E 0 90 56 60
        E 0 90 62 60
        E 120 80 1f 00
        E 0 80 56 00
        E 0 80 62 00
        E 120 80 78 00
        E 0 80 79 00
        E 0 80 7a 00
        E 0 80 7b 00
        E 0 80 7c 00
        E 0 90 18 60
        E 0 90 3c 60
        E 0 90 48 60
        E 0 90 54 60
        E 0 90 60 60
        E 120 80 18 00
        E 0 80 3c 00
        E 0 80 48 00
        E 0 80 54 00
        E 0 80 60 00
        E 360 90 1f 60
        E 0 90 3e 60
        E 0 90 4a 60
        E 0 90 56 60
        E 0 90 62 60
        E 120 80 1f 00
        E 0 80 3e 00
        E 0 80 4a 00
        E 0 80 56 00
        E 0 80 62 00
        E 120 90 1f 60
        E 0 90 56 60
        E 0 90 62 60
        E 120 80 1f 00
        E 0 80 56 00
        E 0 80 62 00
        E 120 90 1a 60
        E 0 90 3d 60
        E 0 90 49 60
        E 0 90 55 60
        E 0 90 61 60
        E 120 80 1a 00
        E 0 80 3d 00
        E 0 80 49 00
        E 0 80 55 00
        E 0 80 61 00
        E 360 90 1f 60
        E 0 90 3e 60
        E 0 90 4a 60
        E 0 90 56 60
        E 0 90 62 60
        E 120 80 1f 00
        E 0 80 3e 00
        E 0 80 4a 00
        E 0 80 56 00
        E 0 80 62 00
        E 120 90 1f 60
        E 0 90 56 60
        E 0 90 62 60
        E 120 80 1f 00
        E 0 80 56 00
        E 0 80 62 00
        E 360 90 18 60
        E 0 90 54 60
        E 0 90 60 60
        E 120 80 18 00
        E 0 80 54 00
        E 0 80 60 00
        E 120 90 1f 60
        E 0 90 3e 60
        E 0 90 4a 60
        E 0 90 56 60
        E 0 90 62 60
        E 120 80 1f 00
        E 0 80 3e 00
        E 0 80 4a 00
        E 0 80 56 00
        E 0 80 62 00
        E 120 90 1f 60
        E 0 90 56 60
        E 0 90 62 60
        E 120 80 1f 00
        E 0 80 56 00
        E 0 80 62 00
        E 120 90 1a 60
        E 0 90 3d 60
        E 0 90 49 60
        E 0 90 55 60
        E 0 90 61 60
        E 120 80 1a 00
        E 0 80 3d 00
        E 0 80 49 00
        E 0 80 55 00
        E 0 80 61 00
        E 360 90 1f 60
        E 0 90 3e 60
        E 0 90 4a 60
        E 0 90 56 60
        E 0 90 62 60
        E 120 80 1f 00
        E 0 80 3e 00
        E 0 80 4a 00
        E 0 80 56 00
        E 0 80 62 00
        E 120 90 1f 60
        E 0 90 56 60
        E 0 90 62 60
        E 120 80 1f 00
        E 0 80 56 00
        E 0 80 62 00
        E 120 90 18 60
        E 0 90 3c 60
        E 0 90 48 60
        E 0 90 54 60
        E 0 90 60 60
        E 120 80 18 00
        E 0 80 3c 00
        E 0 80 48 00
        E 0 80 54 00
        E 0 80 60 00
        E 360 90 1f 60
        E 0 90 3e 60
        E 0 90 4a 60
        E 0 90 56 60
        E 0 90 62 60
        E 120 80 1f 00
        E 0 80 3e 00
        E 0 80 4a 00
        E 0 80 56 00
        E 0 80 62 00
        E 120 90 1f 60
        E 0 90 56 60
        E 0 90 62 60
        E 120 80 1f 00
        E 0 80 56 00
        E 0 80 62 00
        E 120 90 1a 60
        E 0 90 3d 60
        E 0 90 49 60
        E 0 90 55 60
        E 0 90 61 60
        E 120 80 1a 00
        E 0 80 3d 00
        E 0 80 49 00
        E 0 80 55 00
        E 0 80 61 00
        E 360 90 1f 60
        E 0 90 3e 60
        E 0 90 4a 60
        E 0 90 56 60
        E 0 90 62 60
        E 120 80 1f 00
        E 0 80 3e 00
        E 0 80 4a 00
        E 0 80 56 00
        E 0 80 62 00
        E 120 90 1f 60
        E 0 90 56 60
        E 0 90 62 60
        E 120 80 1f 00
        E 0 80 56 00
        E 0 80 62 00
        E 120 90 78 60
        E 0 90 79 60
        E 0 90 7a 60
        E 0 90 7b 60
        E 0 90 7c 60
        E 240 90 18 60
        E 0 90 54 60
        E 0 90 60 60
        E 120 80 18 00
        E 0 80 54 00
        E 0 80 60 00
        E 120 90 1f 60
        E 0 90 3e 60
        E 0 90 4a 60
        E 0 90 56 60
        E 0 90 62 60
        E 120 80 1f 00
        E 0 80 3e 00
        E 0 80 4a 00
        E 0 80 56 00
        E 0 80 62 00
        E 120 90 1f 60
        E 0 90 56 60
        E 0 90 62 60
        E 120 80 1f 00
        E 0 80 56 00
        E 0 80 62 00
        E 120 90 1a 60
        E 0 90 3d 60
        E 0 90 49 60
        E 0 90 55 60
        E 0 90 61 60
        E 120 80 1a 00
        E 0 80 3d 00
        E 0 80 49 00
        E 0 80 55 00
        E 0 80 61 00
        E 360 90 1f 60
        E 0 90 3e 60
        E 0 90 4a 60
        E 0 90 56 60
        E 0 90 62 60
        E 120 80 1f 00
        E 0 80 3e 00
        E 0 80 4a 00
        E 0 80 56 00
        E 0 80 62 00
        E 120 90 1f 60
        E 0 90 56 60
        E 0 90 62 60
        E 120 80 1f 00
        E 0 80 56 00
        E 0 80 62 00
        E 120 80 78 00
        E 0 80 79 00
        E 0 80 7a 00
        E 0 80 7b 00
        E 0 80 7c 00
        E 0 90 18 60
        E 0 90 3c 60
        E 0 90 48 60
        E 0 90 54 60
        E 0 90 60 60
        E 120 80 18 00
        E 0 80 3c 00
        E 0 80 48 00
        E 0 80 54 00
        E 0 80 60 00
        E 360 90 1f 60
        E 0 90 3e 60
        E 0 90 4a 60
        E 0 90 56 60
        E 0 90 62 60
        E 120 80 1f 00
        E 0 80 3e 00
        E 0 80 4a 00
        E 0 80 56 00
        E 0 80 62 00
        E 120 90 1f 60
        E 0 90 56 60
        E 0 90 62 60
        E 120 80 1f 00
        E 0 80 56 00
        E 0 80 62 00
        E 120 90 1a 60
        E 0 90 3d 60
        E 0 90 49 60
        E 0 90 55 60
        E 0 90 61 60
        E 120 80 1a 00
        E 0 80 3d 00
        E 0 80 49 00
        E 0 80 55 00
        E 0 80 61 00
        E 360 90 1f 60
        E 0 90 3e 60
        E 0 90 4a 60
        E 0 90 56 60
        E 0 90 62 60
        E 120 80 1f 00
        E 0 80 3e 00
        E 0 80 4a 00
        E 0 80 56 00
        E 0 80 62 00
        E 120 90 1f 60
        E 0 90 56 60
        E 0 90 62 60
        E 120 80 1f 00
        E 0 80 56 00
        E 0 80 62 00
        E 360 90 18 60
        E 0 90 54 60
        E 0 90 60 60
        E 120 80 18 00
        E 0 80 54 00
        E 0 80 60 00
        E 120 90 1f 60
        E 0 90 3e 60
        E 0 90 4a 60
        E 0 90 56 60
        E 0 90 62 60
        E 120 80 1f 00
        E 0 80 3e 00
        E 0 80 4a 00
        E 0 80 56 00
        E 0 80 62 00
        E 120 90 1f 60
        E 0 90 56 60
        E 0 90 62 60
        E 120 80 1f 00
        E 0 80 56 00
        E 0 80 62 00
        E 120 90 1a 60
        E 0 90 3d 60
        E 0 90 49 60
        E 0 90 55 60
        E 0 90 61 60
        E 120 80 1a 00
        E 0 80 3d 00
        E 0 80 49 00
        E 0 80 55 00
        E 0 80 61 00
        E 360 90 1f 60
        E 0 90 3e 60
        E 0 90 4a 60
        E 0 90 56 60
        E 0 90 62 60
        E 120 80 1f 00
        E 0 80 3e 00
        E 0 80 4a 00
        E 0 80 56 00
        E 0 80 62 00
        E 120 90 1f 60
        E 0 90 56 60
        E 0 90 62 60
        E 120 80 1f 00
        E 0 80 56 00
        E 0 80 62 00
        E 120 90 18 60
        E 0 90 3c 60
        E 0 90 48 60
        E 0 90 54 60
        E 0 90 60 60
        E 120 80 18 00
        E 0 80 3c 00
        E 0 80 48 00
        E 0 80 54 00
        E 0 80 60 00
        E 360 90 1f 60
        E 0 90 3e 60
        E 0 90 4a 60
        E 0 90 56 60
        E 0 90 62 60
        E 120 80 1f 00
        E 0 80 3e 00
        E 0 80 4a 00
        E 0 80 56 00
        E 0 80 62 00
        E 120 90 1f 60
        E 0 90 56 60
        E 0 90 62 60
        E 120 80 1f 00
        E 0 80 56 00
        E 0 80 62 00
        E 120 90 1a 60
        E 0 90 3d 60
        E 0 90 49 60
        E 0 90 55 60
        E 0 90 61 60
        E 120 80 1a 00
        E 0 80 3d 00
        E 0 80 49 00
        E 0 80 55 00
        E 0 80 61 00
        E 360 90 1f 60
        E 0 90 3e 60
        E 0 90 4a 60
        E 0 90 56 60
        E 0 90 62 60
        E 120 80 1f 00
        E 0 80 3e 00
        E 0 80 4a 00
        E 0 80 56 00
        E 0 80 62 00
        E 120 90 1f 60
        E 0 90 56 60
        E 0 90 62 60
        E 120 80 1f 00
        E 0 80 56 00
        E 0 80 62 00
        E 120 90 78 60
        E 0 90 79 60
        E 0 90 7a 60
        E 0 90 7b 60
        E 0 90 7c 60
        E 240 90 18 60
        E 0 90 54 60
        E 0 90 60 60
        E 120 80 18 00
        E 0 80 54 00
        E 0 80 60 00
        E 120 90 1f 60
        E 0 90 3e 60
        E 0 90 4a 60
        E 0 90 56 60
        E 0 90 62 60
        E 120 80 1f 00
        E 0 80 3e 00
        E 0 80 4a 00
        E 0 80 56 00
        E 0 80 62 00
        E 120 90 1f 60
        E 0 90 56 60
        E 0 90 62 60
        E 120 80 1f 00
        E 0 80 56 00
        E 0 80 62 00
        E 120 90 1a 60
        E 0 90 3d 60
        E 0 90 49 60
        E 0 90 55 60
        E 0 90 61 60
        E 120 80 1a 00
        E 0 80 3d 00
        E 0 80 49 00
        E 0 80 55 00
        E 0 80 61 00
        E 360 90 1f 60
        E 0 90 3e 60
        E 0 90 4a 60
        E 0 90 56 60
        E 0 90 62 60
        E 120 80 1f 00
        E 0 80 3e 00
        E 0 80 4a 00
        E 0 80 56 00
        E 0 80 62 00
        E 120 90 1f 60
        E 0 90 56 60
        E 0 90 62 60
        E 120 80 1f 00
        E 0 80 56 00
        E 0 80 62 00
        E 120 80 78 00
        E 0 80 79 00
        E 0 80 7a 00
        E 0 80 7b 00
        E 0 80 7c 00
        E 0 90 18 60
        E 0 90 3c 60
        E 0 90 48 60
        E 0 90 54 60
        E 0 90 60 60
        E 0 90 74 60
        E 120 80 18 00
        E 0 80 3c 00
        E 0 80 48 00
        E 0 80 54 00
        E 0 80 60 00
        E 360 90 1f 60
        E 0 90 3e 60
        E 0 90 4a 60
        E 0 90 56 60
        E 0 90 62 60
        E 120 80 1f 00
        E 0 80 3e 00
        E 0 80 4a 00
        E 0 80 56 00
        E 0 80 62 00
        E 120 90 1f 60
        E 0 90 56 60
        E 0 90 62 60
        E 120 80 1f 00
        E 0 80 56 00
        E 0 80 62 00
        E 120 90 1a 60
        E 0 90 3d 60
        E 0 90 49 60
        E 0 90 55 60
        E 0 90 61 60
        E 120 80 1a 00
        E 0 80 3d 00
        E 0 80 49 00
        E 0 80 55 00
        E 0 80 61 00
        E 360 90 1f 60
        E 0 90 3e 60
        E 0 90 4a 60
        E 0 90 56 60
        E 0 90 62 60
        E 120 80 1f 00
        E 0 80 3e 00
        E 0 80 4a 00
        E 0 80 56 00
        E 0 80 62 00
        E 120 90 1f 60
        E 0 90 56 60
        E 0 90 62 60
        E 120 80 1f 00
        E 0 80 56 00
        E 0 80 62 00
        E 360 90 18 60
        E 0 90 54 60
        E 0 90 60 60
        E 120 80 18 00
        E 0 80 54 00
        E 0 80 60 00
        E 120 90 1f 60
        E 0 90 3e 60
        E 0 90 4a 60
        E 0 90 56 60
        E 0 90 62 60
        E 120 80 1f 00
        E 0 80 3e 00
        E 0 80 4a 00
        E 0 80 56 00
        E 0 80 62 00
        E 120 90 1f 60
        E 0 90 56 60
        E 0 90 62 60
        E 120 80 1f 00
        E 0 80 56 00
        E 0 80 62 00
        E 120 90 1a 60
        E 0 90 3d 60
        E 0 90 49 60
        E 0 90 55 60
        E 0 90 61 60
        E 120 80 1a 00
        E 0 80 3d 00
        E 0 80 49 00
        E 0 80 55 00
        E 0 80 61 00
        E 360 90 1f 60
        E 0 90 3e 60
        E 0 90 4a 60
        E 0 90 56 60
        E 0 90 62 60
        E 120 80 1f 00
        E 0 80 3e 00
        E 0 80 4a 00
        E 0 80 56 00
        E 0 80 62 00
        E 120 90 1f 60
        E 0 90 56 60
        E 0 90 62 60
        E 120 80 1f 00
        E 0 80 56 00
        E 0 80 62 00
        E 120 90 18 60
        E 0 90 3c 60
        E 0 90 48 60
        E 0 90 54 60
        E 0 90 60 60
        E 120 80 74 00
        E 0 80 18 00
        E 0 80 3c 00
        E 0 80 48 00
        E 0 80 54 00
        E 0 80 60 00
        E 360 90 1f 60
        E 0 90 3e 60
        E 0 90 4a 60
        E 0 90 56 60
        E 0 90 62 60
        E 120 80 1f 00
        E 0 80 3e 00
        E 0 80 4a 00
        E 0 80 56 00
        E 0 80 62 00
        E 120 90 1f 60
        E 0 90 56 60
        E 0 90 62 60
        E 120 80 1f 00
        E 0 80 56 00
        E 0 80 62 00
        E 120 90 1a 60
        E 0 90 3d 60
        E 0 90 49 60
        E 0 90 55 60
        E 0 90 61 60
        E 120 80 1a 00
        E 0 80 3d 00
        E 0 80 49 00
        E 0 80 55 00
        E 0 80 61 00
        E 360 90 1f 60
        E 0 90 3e 60
        E 0 90 4a 60
        E 0 90 56 60
        E 0 90 62 60
        E 120 80 1f 00
        E 0 80 3e 00
        E 0 80 4a 00
        E 0 80 56 00
        E 0 80 62 00
        E 120 90 1f 60
        E 0 90 56 60
        E 0 90 62 60
        E 120 80 1f 00
        E 0 80 56 00
        E 0 80 62 00
        E 120 90 78 60
        E 0 90 79 60
        E 0 90 7a 60
        E 0 90 7b 60
        E 0 90 7c 60
        E 240 90 18 60
        E 0 90 54 60
        E 0 90 60 60
        E 120 80 18 00
        E 0 80 54 00
        E 0 80 60 00
        E 120 90 1f 60
        E 0 90 3e 60
        E 0 90 4a 60
        E 0 90 56 60
        E 0 90 62 60
        E 120 80 1f 00
        E 0 80 3e 00
        E 0 80 4a 00
        E 0 80 56 00
        E 0 80 62 00
        E 120 90 1f 60
        E 0 90 56 60
        E 0 90 62 60
        E 120 80 1f 00
        E 0 80 56 00
        E 0 80 62 00
        E 120 90 1a 60
        E 0 90 3d 60
        E 0 90 49 60
        E 0 90 55 60
        E 0 90 61 60
        E 120 80 1a 00
        E 0 80 3d 00
        E 0 80 49 00
        E 0 80 55 00
        E 0 80 61 00
        E 360 90 1f 60
        E 0 90 3e 60
        E 0 90 4a 60
        E 0 90 56 60
        E 0 90 62 60
        E 120 80 1f 00
        E 0 80 3e 00
        E 0 80 4a 00
        E 0 80 56 00
        E 0 80 62 00
        E 120 90 1f 60
        E 0 90 56 60
        E 0 90 62 60
        E 120 80 1f 00
        E 0 80 56 00
        E 0 80 62 00
        E 120 80 78 00
        E 0 80 79 00
        E 0 80 7a 00
        E 0 80 7b 00
        E 0 80 7c 00
        E 0 90 18 60
        E 0 90 3c 60
        E 0 90 48 60
        E 0 90 54 60
        E 0 90 60 60
        E 120 80 18 00
        E 0 80 3c 00
        E 0 80 48 00
        E 0 80 54 00
        E 0 80 60 00
        E 360 90 1f 60
        E 0 90 3e 60
        E 0 90 4a 60
        E 0 90 56 60
        E 0 90 62 60
        E 120 80 1f 00
        E 0 80 3e 00
        E 0 80 4a 00
        E 0 80 56 00
        E 0 80 62 00
        E 120 90 1f 60
        E 0 90 56 60
        E 0 90 62 60
        E 120 80 1f 00
        E 0 80 56 00
        E 0 80 62 00
        E 120 90 1a 60
        E 0 90 3d 60
        E 0 90 49 60
        E 0 90 55 60
        E 0 90 61 60
        E 120 80 1a 00
        E 0 80 3d 00
        E 0 80 49 00
        E 0 80 55 00
        E 0 80 61 00
        E 360 90 1f 60
        E 0 90 3e 60
        E 0 90 4a 60
        E 0 90 56 60
        E 0 90 62 60
        E 120 80 1f 00
        E 0 80 3e 00
        E 0 80 4a 00
        E 0 80 56 00
        E 0 80 62 00
        E 120 90 1f 60
        E 0 90 56 60
        E 0 90 62 60
        E 120 80 1f 00
        E 0 80 56 00
        E 0 80 62 00
        E 360 90 18 60
        E 0 90 54 60
        E 0 90 60 60
        E 120 80 18 00
        E 0 80 54 00
        E 0 80 60 00
        E 120 90 1f 60
        E 0 90 3e 60
        E 0 90 4a 60
        E 0 90 56 60
        E 0 90 62 60
        E 120 80 1f 00
        E 0 80 3e 00
        E 0 80 4a 00
        E 0 80 56 00
        E 0 80 62 00
        E 120 90 1f 60
        E 0 90 56 60
        E 0 90 62 60
        E 120 80 1f 00
        E 0 80 56 00
        E 0 80 62 00
        E 120 90 1a 60
        E 0 90 3d 60
        E 0 90 49 60
        E 0 90 55 60
        E 0 90 61 60
        E 120 80 1a 00
        E 0 80 3d 00
        E 0 80 49 00
        E 0 80 55 00
        E 0 80 61 00
        E 360 90 1f 60
        E 0 90 3e 60
        E 0 90 4a 60
        E 0 90 56 60
        E 0 90 62 60
        E 120 80 1f 00
        E 0 80 3e 00
        E 0 80 4a 00
        E 0 80 56 00
        E 0 80 62 00
        E 120 90 1f 60
        E 0 90 56 60
        E 0 90 62 60
        E 120 80 1f 00
        E 0 80 56 00
        E 0 80 62 00
        E 120 90 18 60
        E 0 90 3c 60
        E 0 90 48 60
        E 0 90 54 60
        E 0 90 60 60
        E 120 80 18 00
        E 0 80 3c 00
        E 0 80 48 00
        E 0 80 54 00
        E 0 80 60 00
        E 360 90 1f 60
        E 0 90 3e 60
        E 0 90 4a 60
        E 0 90 56 60
        E 0 90 62 60
        E 120 80 1f 00
        E 0 80 3e 00
        E 0 80 4a 00
        E 0 80 56 00
        E 0 80 62 00
        E 120 90 1f 60
        E 0 90 56 60
        E 0 90 62 60
        E 120 80 1f 00
        E 0 80 56 00
        E 0 80 62 00
        E 120 90 1a 60
        E 0 90 3d 60
        E 0 90 49 60
        E 0 90 55 60
        E 0 90 61 60
        E 120 80 1a 00
        E 0 80 3d 00
        E 0 80 49 00
        E 0 80 55 00
        E 0 80 61 00
        E 360 90 1f 60
        E 0 90 3e 60
        E 0 90 4a 60
        E 0 90 56 60
        E 0 90 62 60
        E 120 80 1f 00
        E 0 80 3e 00
        E 0 80 4a 00
        E 0 80 56 00
        E 0 80 62 00
        E 120 90 1f 60
        E 0 90 56 60
        E 0 90 62 60
        E 120 80 1f 00
        E 0 80 56 00
        E 0 80 62 00
        E 120 90 78 60
        E 0 90 79 60
        E 0 90 7a 60
        E 0 90 7b 60
        E 0 90 7c 60
        E 240 90 18 60
        E 0 90 54 60
        E 0 90 60 60
        E 120 80 18 00
        E 0 80 54 00
        E 0 80 60 00
        E 120 90 1f 60
        E 0 90 3e 60
        E 0 90 4a 60
        E 0 90 56 60
        E 0 90 62 60
        E 120 80 1f 00
        E 0 80 3e 00
        E 0 80 4a 00
        E 0 80 56 00
        E 0 80 62 00
        E 120 90 1f 60
        E 0 90 56 60
        E 0 90 62 60
        E 120 80 1f 00
        E 0 80 56 00
        E 0 80 62 00
        E 120 90 1a 60
        E 0 90 3d 60
        E 0 90 49 60
        E 0 90 55 60
        E 0 90 61 60
        E 120 80 1a 00
        E 0 80 3d 00
        E 0 80 49 00
        E 0 80 55 00
        E 0 80 61 00
        E 360 90 1f 60
        E 0 90 3e 60
        E 0 90 4a 60
        E 0 90 56 60
        E 0 90 62 60
        E 120 80 1f 00
        E 0 80 3e 00
        E 0 80 4a 00
        E 0 80 56 00
        E 0 80 62 00
        E 120 90 1f 60
        E 0 90 56 60
        E 0 90 62 60
        E 120 80 1f 00
        E 0 80 56 00
        E 0 80 62 00
        E 120 80 78 00
        E 0 80 79 00
        E 0 80 7a 00
        E 0 80 7b 00
        E 0 80 7c 00
        E 0 90 18 60
        E 0 90 3c 60
        E 0 90 48 60
        E 0 90 54 60
        E 0 90 60 60
        E 120 80 18 00
        E 0 80 3c 00
        E 0 80 48 00
        E 0 80 54 00
        E 0 80 60 00
        E 360 90 1f 60
        E 0 90 3e 60
        E 0 90 4a 60
        E 0 90 56 60
        E 0 90 62 60
        E 120 80 1f 00
        E 0 80 3e 00
        E 0 80 4a 00
        E 0 80 56 00
        E 0 80 62 00
        E 120 90 1f 60
        E 0 90 56 60
        E 0 90 62 60
        E 120 80 1f 00
        E 0 80 56 00
        E 0 80 62 00
        E 120 90 1a 60
        E 0 90 3d 60
        E 0 90 49 60
        E 0 90 55 60
        E 0 90 61 60
        E 120 80 1a 00
        E 0 80 3d 00
        E 0 80 49 00
        E 0 80 55 00
        E 0 80 61 00
        E 360 90 1f 60
        E 0 90 3e 60
        E 0 90 4a 60
        E 0 90 56 60
        E 0 90 62 60
        E 120 80 1f 00
        E 0 80 3e 00
        E 0 80 4a 00
        E 0 80 56 00
        E 0 80 62 00
        E 120 90 1f 60
        E 0 90 56 60
        E 0 90 62 60
        E 120 80 1f 00
        E 0 80 56 00
        E 0 80 62 00
        E 360 90 18 60
        E 0 90 54 60
        E 0 90 60 60
        E 120 80 18 00
        E 0 80 54 00
        E 0 80 60 00
        E 120 90 1f 60
        E 0 90 3e 60
        E 0 90 4a 60
        E 0 90 56 60
        E 0 90 62 60
        E 120 80 1f 00
        E 0 80 3e 00
        E 0 80 4a 00
        E 0 80 56 00
        E 0 80 62 00
        E 120 90 1f 60
        E 0 90 56 60
        E 0 90 62 60
        E 120 80 1f 00
        E 0 80 56 00
        E 0 80 62 00
        E 120 90 1a 60
        E 0 90 3d 60
        E 0 90 49 60
        E 0 90 55 60
        E 0 90 61 60
        E 120 80 1a 00
        E 0 80 3d 00
        E 0 80 49 00
        E 0 80 55 00
        E 0 80 61 00
        E 360 90 1f 60
        E 0 90 3e 60
        E 0 90 4a 60
        E 0 90 56 60
        E 0 90 62 60
        E 120 80 1f 00
        E 0 80 3e 00
        E 0 80 4a 00
        E 0 80 56 00
        E 0 80 62 00
        E 120 90 1f 60
        E 0 90 56 60
        E 0 90 62 60
        E 120 80 1f 00
        E 0 80 56 00
        E 0 80 62 00
        E 120 90 18 60
        E 0 90 3c 60
        E 0 90 48 60
        E 0 90 54 60
        E 0 90 60 60
        E 120 80 18 00
        E 0 80 3c 00
        E 0 80 48 00
        E 0 80 54 00
        E 0 80 60 00
        E 360 90 1f 60
        E 0 90 3e 60
        E 0 90 4a 60
        E 0 90 56 60
        E 0 90 62 60
        E 120 80 1f 00
        E 0 80 3e 00
        E 0 80 4a 00
        E 0 80 56 00
        E 0 80 62 00
        E 120 90 1f 60
        E 0 90 56 60
        E 0 90 62 60
        E 120 80 1f 00
        E 0 80 56 00
        E 0 80 62 00
        E 120 90 1a 60
        E 0 90 3d 60
        E 0 90 49 60
        E 0 90 55 60
        E 0 90 61 60
        E 120 80 1a 00
        E 0 80 3d 00
        E 0 80 49 00
        E 0 80 55 00
        E 0 80 61 00
        E 360 90 1f 60
        E 0 90 3e 60
        E 0 90 4a 60
        E 0 90 56 60
        E 0 90 62 60
        E 120 80 1f 00
        E 0 80 3e 00
        E 0 80 4a 00
        E 0 80 56 00
        E 0 80 62 00
        E 120 90 1f 60
        E 0 90 56 60
        E 0 90 62 60
        E 120 80 1f 00
        E 0 80 56 00
        E 0 80 62 00
        E 120 90 78 60
        E 0 90 79 60
        E 0 90 7a 60
        E 0 90 7b 60
        E 0 90 7c 60
        E 240 90 18 60
        E 0 90 54 60
        E 0 90 60 60
        E 120 80 18 00
        E 0 80 54 00
        E 0 80 60 00
        E 120 90 1f 60
        E 0 90 3e 60
        E 0 90 4a 60
        E 0 90 56 60
        E 0 90 62 60
        E 120 80 1f 00
        E 0 80 3e 00
        E 0 80 4a 00
        E 0 80 56 00
        E 0 80 62 00
        E 120 90 1f 60
        E 0 90 56 60
        E 0 90 62 60
        E 120 80 1f 00
        E 0 80 56 00
        E 0 80 62 00
        E 120 90 1a 60
        E 0 90 3d 60
        E 0 90 49 60
        E 0 90 55 60
        E 0 90 61 60
        E 120 80 1a 00
        E 0 80 3d 00
        E 0 80 49 00
        E 0 80 55 00
        E 0 80 61 00
        E 360 90 1f 60
        E 0 90 3e 60
        E 0 90 4a 60
        E 0 90 56 60
        E 0 90 62 60
        E 120 80 1f 00
        E 0 80 3e 00
        E 0 80 4a 00
        E 0 80 56 00
        E 0 80 62 00
        E 120 90 1f 60
        E 0 90 56 60
        E 0 90 62 60
        E 120 80 1f 00
        E 0 80 56 00
        E 0 80 62 00
        E 120 80 78 00
        E 0 80 79 00
        E 0 80 7a 00
        E 0 80 7b 00
        E 0 80 7c 00
        E 0 90 1f 60
        E 0 90 3e 60
        E 0 90 4a 60
        E 0 90 56 60
        E 0 90 62 60
        E 120 80 1f 00
        E 0 80 3e 00
        E 0 80 4a 00
        E 0 80 56 00
        E 0 80 62 00
        E 360 90 1f 60
        E 0 90 3e 60
        E 0 90 4a 60
        E 0 90 56 60
        E 0 90 62 60
        E 120 80 1f 00
        E 0 80 3e 00
        E 0 80 4a 00
        E 0 80 56 00
        E 0 80 62 00
        E 120 90 1f 60
        E 0 90 56 60
        E 0 90 62 60
        E 120 80 1f 00
        E 0 80 56 00
        E 0 80 62 00
        E 120 90 18 60
        E 0 90 1f 60
        E 0 90 3e 60
        E 0 90 48 60
        E 0 90 4a 60
        E 0 90 54 60
        E 0 90 56 60
        E 0 90 60 60
        E 0 90 62 60
        E 120 80 18 00
        E 0 80 1f 00
        E 0 80 3e 00
        E 0 80 48 00
        E 0 80 4a 00
        E 0 80 54 00
        E 0 80 56 00
        E 0 80 60 00
        E 0 80 62 00
        E 360 90 1f 60
        E 0 90 3e 60
        E 0 90 4a 60
        E 0 90 56 60
        E 0 90 62 60
        E 120 80 1f 00
        E 0 80 3e 00
        E 0 80 4a 00
        E 0 80 56 00
        E 0 80 62 00
        E 120 90 1f 60
        E 0 90 56 60
        E 0 90 62 60
        E 120 80 1f 00
        E 0 80 56 00
        E 0 80 62 00
        E 360 90 18 60
        E 0 90 54 60
        E 0 90 60 60
        E 120 80 18 00
        E 0 80 54 00
        E 0 80 60 00
        E 120 90 1f 60
        E 0 90 3e 60
        E 0 90 4a 60
        E 0 90 56 60
        E 0 90 62 60
        E 120 80 1f 00
        E 0 80 3e 00
        E 0 80 4a 00
        E 0 80 56 00
        E 0 80 62 00
        E 120 90 1f 60
        E 0 90 56 60
        E 0 90 62 60
        E 120 80 1f 00
        E 0 80 56 00
        E 0 80 62 00
        E 120 90 1a 60
        E 0 90 3d 60
        E 0 90 49 60
        E 0 90 55 60
        E 0 90 61 60
        E 120 80 1a 00
        E 0 80 3d 00
        E 0 80 49 00
        E 0 80 55 00
        E 0 80 61 00
        E 120 90 1f 60
        E 0 90 56 60
        E 0 90 62 60
        E 120 80 1f 00
        E 0 80 56 00
        E 0 80 62 00
        E 120 90 1f 60
        E 0 90 3e 60
        E 0 90 4a 60
        E 0 90 56 60
        E 0 90 62 60
        E 120 80 1f 00
        E 0 80 3e 00
        E 0 80 4a 00
        E 0 80 56 00
        E 0 80 62 00
        E 120 90 1f 60
        E 0 90 56 60
        E 0 90 62 60
        E 120 80 1f 00
        E 0 80 56 00
        E 0 80 62 00
        E 120 90 1f 60
        E 0 90 3e 60
        E 0 90 4a 60
        E 0 90 56 60
        E 0 90 62 60
        E 120 80 1f 00
        E 0 80 3e 00
        E 0 80 4a 00
        E 0 80 56 00
        E 0 80 62 00
        E 360 90 1f 60
        E 0 90 3e 60
        E 0 90 4a 60
        E 0 90 56 60
        E 0 90 62 60
        E 120 80 1f 00
        E 0 80 3e 00
        E 0 80 4a 00
        E 0 80 56 00
        E 0 80 62 00
        E 120 90 1f 60
        E 0 90 56 60
        E 0 90 62 60
        E 120 80 1f 00
        E 0 80 56 00
        E 0 80 62 00
        E 120 90 18 60
        E 0 90 1f 60
        E 0 90 3e 60
        E 0 90 48 60
        E 0 90 4a 60
        E 0 90 54 60
        E 0 90 56 60
        E 0 90 60 60
        E 0 90 62 60
        E 120 80 18 00
        E 0 80 1f 00
        E 0 80 3e 00
        E 0 80 48 00
        E 0 80 4a 00
        E 0 80 54 00
        E 0 80 56 00
        E 0 80 60 00
        E 0 80 62 00
        E 360 90 1f 60
        E 0 90 3e 60
        E 0 90 4a 60
        E 0 90 56 60
        E 0 90 62 60
        E 120 80 1f 00
        E 0 80 3e 00
        E 0 80 4a 00
        E 0 80 56 00
        E 0 80 62 00
        E 120 90 1f 60
        E 0 90 56 60
        E 0 90 62 60
        E 120 80 1f 00
        E 0 80 56 00
        E 0 80 62 00
        E 120 90 78 60
        E 0 90 79 60
        E 0 90 7a 60
        E 0 90 7b 60
        E 0 90 7c 60
        E 240 90 18 60
        E 0 90 54 60
        E 0 90 60 60
        E 120 80 18 00
        E 0 80 54 00
        E 0 80 60 00
        E 120 90 1f 60
        E 0 90 3e 60
        E 0 90 4a 60
        E 0 90 56 60
        E 0 90 62 60
        E 120 80 1f 00
        E 0 80 3e 00
        E 0 80 4a 00
        E 0 80 56 00
        E 0 80 62 00
        E 120 90 1f 60
        E 0 90 56 60
        E 0 90 62 60
        E 120 80 1f 00
        E 0 80 56 00
        E 0 80 62 00
        E 120 90 1a 60
        E 0 90 3d 60
        E 0 90 49 60
        E 0 90 55 60
        E 0 90 61 60
        E 120 80 1a 00
        E 0 80 3d 00
        E 0 80 49 00
        E 0 80 55 00
        E 0 80 61 00
        E 120 90 1f 60
        E 0 90 56 60
        E 0 90 62 60
        E 120 80 1f 00
        E 0 80 56 00
        E 0 80 62 00
        E 120 90 1f 60
        E 0 90 3e 60
        E 0 90 4a 60
        E 0 90 56 60
        E 0 90 62 60
        E 120 80 1f 00
        E 0 80 3e 00
        E 0 80 4a 00
        E 0 80 56 00
        E 0 80 62 00
        E 120 90 1f 60
        E 0 90 56 60
        E 0 90 62 60
        E 120 80 1f 00
        E 0 80 56 00
        E 0 80 62 00
        E 120 80 78 00
        E 0 80 79 00
        E 0 80 7a 00
        E 0 80 7b 00
        E 0 80 7c 00
        E 0 90 1f 60
        E 0 90 3e 60
        E 0 90 4a 60
        E 0 90 56 60
        E 0 90 62 60
        E 120 80 1f 00
        E 0 80 3e 00
        E 0 80 4a 00
        E 0 80 56 00
        E 0 80 62 00
        E 360 90 1f 60
        E 0 90 3e 60
        E 0 90 4a 60
        E 0 90 56 60
        E 0 90 62 60
        E 120 80 1f 00
        E 0 80 3e 00
        E 0 80 4a 00
        E 0 80 56 00
        E 0 80 62 00
        E 120 90 1f 60
        E 0 90 56 60
        E 0 90 62 60
        E 120 80 1f 00
        E 0 80 56 00
        E 0 80 62 00
        E 120 90 18 60
        E 0 90 1f 60
        E 0 90 3e 60
        E 0 90 48 60
        E 0 90 4a 60
        E 0 90 54 60
        E 0 90 56 60
        E 0 90 60 60
        E 0 90 62 60
        E 120 80 18 00
        E 0 80 1f 00
        E 0 80 3e 00
        E 0 80 48 00
        E 0 80 4a 00
        E 0 80 54 00
        E 0 80 56 00
        E 0 80 60 00
        E 0 80 62 00
        E 360 90 1f 60
        E 0 90 3e 60
        E 0 90 4a 60
        E 0 90 56 60
        E 0 90 62 60
        E 120 80 1f 00
        E 0 80 3e 00
        E 0 80 4a 00
        E 0 80 56 00
        E 0 80 62 00
        E 120 90 1f 60
        E 0 90 56 60
        E 0 90 62 60
        E 120 80 1f 00
        E 0 80 56 00
        E 0 80 62 00
        E 360 90 18 60
        E 0 90 54 60
        E 0 90 60 60
        E 120 80 18 00
        E 0 80 54 00
        E 0 80 60 00
        E 120 90 1f 60
        E 0 90 3e 60
        E 0 90 4a 60
        E 0 90 56 60
        E 0 90 62 60
        E 120 80 1f 00
        E 0 80 3e 00
        E 0 80 4a 00
        E 0 80 56 00
        E 0 80 62 00
        E 120 90 1f 60
        E 0 90 56 60
        E 0 90 62 60
        E 120 80 1f 00
        E 0 80 56 00
        E 0 80 62 00
        E 120 90 1a 60
        E 0 90 3d 60
        E 0 90 49 60
        E 0 90 55 60
        E 0 90 61 60
        E 120 80 1a 00
        E 0 80 3d 00
        E 0 80 49 00
        E 0 80 55 00
        E 0 80 61 00
        E 120 90 1f 60
        E 0 90 56 60
        E 0 90 62 60
        E 120 80 1f 00
        E 0 80 56 00
        E 0 80 62 00
        E 120 90 1f 60
        E 0 90 3e 60
        E 0 90 4a 60
        E 0 90 56 60
        E 0 90 62 60
        E 120 80 1f 00
        E 0 80 3e 00
        E 0 80 4a 00
        E 0 80 56 00
        E 0 80 62 00
        E 120 90 1f 60
        E 0 90 56 60
        E 0 90 62 60
        E 120 80 1f 00
        E 0 80 56 00
        E 0 80 62 00
        E 120 90 1f 60
        E 0 90 3e 60
        E 0 90 4a 60
        E 0 90 56 60
        E 0 90 62 60
        E 0 90 74 60
        E 120 80 1f 00
        E 0 80 3e 00
        E 0 80 4a 00
        E 0 80 56 00
        E 0 80 62 00
        E 360 90 1f 60
        E 0 90 3e 60
        E 0 90 4a 60
        E 0 90 56 60
        E 0 90 62 60
        E 120 80 1f 00
        E 0 80 3e 00
        E 0 80 4a 00
        E 0 80 56 00
        E 0 80 62 00
        E 120 90 1f 60
        E 0 90 56 60
        E 0 90 62 60
        E 120 80 1f 00
        E 0 80 56 00
        E 0 80 62 00
        E 120 90 18 60
        E 0 90 1f 60
        E 0 90 3e 60
        E 0 90 48 60
        E 0 90 4a 60
        E 0 90 54 60
        E 0 90 56 60
        E 0 90 60 60
        E 0 90 62 60
        E 120 80 18 00
        E 0 80 1f 00
        E 0 80 3e 00
        E 0 80 48 00
        E 0 80 4a 00
        E 0 80 54 00
        E 0 80 56 00
        E 0 80 60 00
        E 0 80 62 00
        E 360 90 1f 60
        E 0 90 3e 60
        E 0 90 4a 60
        E 0 90 56 60
        E 0 90 62 60
        E 120 80 1f 00
        E 0 80 3e 00
        E 0 80 4a 00
        E 0 80 56 00
        E 0 80 62 00
        E 120 90 1f 60
        E 0 90 56 60
        E 0 90 62 60
        E 120 80 1f 00
        E 0 80 56 00
        E 0 80 62 00
        E 360 90 1a 60
        E 0 90 3d 60
        E 0 90 49 60
        E 0 90 55 60
        E 0 90 61 60
        E 120 80 1a 00
        E 0 80 3d 00
        E 0 80 49 00
        E 0 80 55 00
        E 0 80 61 00
        E 360 90 18 60
        E 0 90 54 60
        E 0 90 60 60
        E 120 80 18 00
        E 0 80 54 00
        E 0 80 60 00
        E 120 90 1b 60
        E 0 90 3d 60
        E 0 90 49 60
        E 0 90 55 60
        E 0 90 61 60
        E 120 80 1b 00
        E 0 80 3d 00
        E 0 80 49 00
        E 0 80 55 00
        E 0 80 61 00
        E 120 90 1a 60
        E 0 90 55 60
        E 0 90 61 60
        E 120 80 1a 00
        E 0 80 55 00
        E 0 80 61 00
        E 120 90 1b 60
        E 0 90 3d 60
        E 0 90 49 60
        E 0 90 55 60
        E 0 90 61 60
        E 120 80 1b 00
        E 0 80 3d 00
        E 0 80 49 00
        E 0 80 55 00
        E 0 80 61 00
        E 360 80 74 00
        E 0 90 18 60
        E 0 90 3c 60
        E 0 90 48 60
        E 0 90 54 60
        E 0 90 60 60
        E 120 80 18 00
        E 0 80 3c 00
        E 0 80 48 00
        E 0 80 54 00
        E 0 80 60 00
        E 360 90 1f 60
        E 0 90 3e 60
        E 0 90 4a 60
        E 0 90 56 60
        E 0 90 62 60
        E 120 80 1f 00
        E 0 80 3e 00
        E 0 80 4a 00
        E 0 80 56 00
        E 0 80 62 00
        E 120 90 1f 60
        E 0 90 56 60
        E 0 90 62 60
        E 120 80 1f 00
        E 0 80 56 00
        E 0 80 62 00
        E 120 90 1a 60
        E 0 90 3d 60
        E 0 90 49 60
        E 0 90 55 60
        E 0 90 61 60
        E 120 80 1a 00
        E 0 80 3d 00
        E 0 80 49 00
        E 0 80 55 00
        E 0 80 61 00
        E 360 90 1f 60
        E 0 90 3e 60
        E 0 90 4a 60
        E 0 90 56 60
        E 0 90 62 60
        E 120 80 1f 00
        E 0 80 3e 00
        E 0 80 4a 00
        E 0 80 56 00
        E 0 80 62 00
        E 120 90 1f 60
        E 0 90 56 60
        E 0 90 62 60
        E 120 80 1f 00
        E 0 80 56 00
        E 0 80 62 00
        E 360 90 18 60
        E 0 90 54 60
        E 0 90 60 60
        E 120 80 18 00
        E 0 80 54 00
        E 0 80 60 00
        E 120 90 1f 60
        E 0 90 3e 60
        E 0 90 4a 60
        E 0 90 56 60
        E 0 90 62 60
        E 120 80 1f 00
        E 0 80 3e 00
        E 0 80 4a 00
        E 0 80 56 00
        E 0 80 62 00
        E 120 90 1f 60
        E 0 90 56 60
        E 0 90 62 60
        E 120 80 1f 00
        E 0 80 56 00
        E 0 80 62 00
        E 120 90 1a 60
        E 0 90 3d 60
        E 0 90 49 60
        E 0 90 55 60
        E 0 90 61 60
        E 120 80 1a 00
        E 0 80 3d 00
        E 0 80 49 00
        E 0 80 55 00
        E 0 80 61 00
        E 360 90 1f 60
        E 0 90 3e 60
        E 0 90 4a 60
        E 0 90 56 60
        E 0 90 62 60
        E 120 80 1f 00
        E 0 80 3e 00
        E 0 80 4a 00
        E 0 80 56 00
        E 0 80 62 00
        E 120 90 1f 60
        E 0 90 56 60
        E 0 90 62 60
        E 120 80 1f 00
        E 0 80 56 00
        E 0 80 62 00
        E 120 90 18 60
        E 0 90 3c 60
        E 0 90 48 60
        E 0 90 54 60
        E 0 90 60 60
        E 120 80 18 00
        E 0 80 3c 00
        E 0 80 48 00
        E 0 80 54 00
        E 0 80 60 00
        E 360 90 1f 60
        E 0 90 3e 60
        E 0 90 4a 60
        E 0 90 56 60
        E 0 90 62 60
        E 120 80 1f 00
        E 0 80 3e 00
        E 0 80 4a 00
        E 0 80 56 00
        E 0 80 62 00
        E 120 90 1f 60
        E 0 90 56 60
        E 0 90 62 60
        E 120 80 1f 00
        E 0 80 56 00
        E 0 80 62 00
        E 120 90 1a 60
        E 0 90 3d 60
        E 0 90 49 60
        E 0 90 55 60
        E 0 90 61 60
        E 120 80 1a 00
        E 0 80 3d 00
        E 0 80 49 00
        E 0 80 55 00
        E 0 80 61 00
        E 360 90 1f 60
        E 0 90 3e 60
        E 0 90 4a 60
        E 0 90 56 60
        E 0 90 62 60
        E 120 80 1f 00
        E 0 80 3e 00
        E 0 80 4a 00
        E 0 80 56 00
        E 0 80 62 00
        E 120 90 1f 60
        E 0 90 56 60
        E 0 90 62 60
        E 120 80 1f 00
        E 0 80 56 00
        E 0 80 62 00
        E 120 90 78 60
        E 0 90 79 60
        E 0 90 7a 60
        E 0 90 7b 60
        E 0 90 7c 60
        E 240 90 18 60
        E 0 90 54 60
        E 0 90 60 60
        E 120 80 18 00
        E 0 80 54 00
        E 0 80 60 00
        E 120 90 1f 60
        E 0 90 3e 60
        E 0 90 4a 60
        E 0 90 56 60
        E 0 90 62 60
        E 120 80 1f 00
        E 0 80 3e 00
        E 0 80 4a 00
        E 0 80 56 00
        E 0 80 62 00
        E 120 90 1f 60
        E 0 90 56 60
        E 0 90 62 60
        E 120 80 1f 00
        E 0 80 56 00
        E 0 80 62 00
        E 120 90 1a 60
        E 0 90 3d 60
        E 0 90 49 60
        E 0 90 55 60
        E 0 90 61 60
        E 120 80 1a 00
        E 0 80 3d 00
        E 0 80 49 00
        E 0 80 55 00
        E 0 80 61 00
        E 360 90 1f 60
        E 0 90 3e 60
        E 0 90 4a 60
        E 0 90 56 60
        E 0 90 62 60
        E 120 80 1f 00
        E 0 80 3e 00
        E 0 80 4a 00
        E 0 80 56 00
        E 0 80 62 00
        E 120 90 1f 60
        E 0 90 56 60
        E 0 90 62 60
        E 120 80 1f 00
        E 0 80 56 00
        E 0 80 62 00
        E 120 80 78 00
        E 0 80 79 00
        E 0 80 7a 00
        E 0 80 7b 00
        E 0 80 7c 00
        E 0 90 18 60
        E 0 90 3c 60
        E 0 90 48 60
        E 0 90 54 60
        E 0 90 60 60
        E 120 80 18 00
        E 0 80 3c 00
        E 0 80 48 00
        E 0 80 54 00
        E 0 80 60 00
        E 360 90 1f 60
        E 0 90 3e 60
        E 0 90 4a 60
        E 0 90 56 60
        E 0 90 62 60
        E 120 80 1f 00
        E 0 80 3e 00
        E 0 80 4a 00
        E 0 80 56 00
        E 0 80 62 00
        E 120 90 1f 60
        E 0 90 56 60
        E 0 90 62 60
        E 120 80 1f 00
        E 0 80 56 00
        E 0 80 62 00
        E 120 90 1a 60
        E 0 90 3d 60
        E 0 90 49 60
        E 0 90 55 60
        E 0 90 61 60
        E 120 80 1a 00
        E 0 80 3d 00
        E 0 80 49 00
        E 0 80 55 00
        E 0 80 61 00
        E 360 90 1f 60
        E 0 90 3e 60
        E 0 90 4a 60
        E 0 90 56 60
        E 0 90 62 60
        E 120 80 1f 00
        E 0 80 3e 00
        E 0 80 4a 00
        E 0 80 56 00
        E 0 80 62 00
        E 120 90 1f 60
        E 0 90 56 60
        E 0 90 62 60
        E 120 80 1f 00
        E 0 80 56 00
        E 0 80 62 00
        E 360 90 18 60
        E 0 90 54 60
        E 0 90 60 60
        E 120 80 18 00
        E 0 80 54 00
        E 0 80 60 00
        E 120 90 1f 60
        E 0 90 3e 60
        E 0 90 4a 60
        E 0 90 56 60
        E 0 90 62 60
        E 120 80 1f 00
        E 0 80 3e 00
        E 0 80 4a 00
        E 0 80 56 00
        E 0 80 62 00
        E 120 90 1f 60
        E 0 90 56 60
        E 0 90 62 60
        E 120 80 1f 00
        E 0 80 56 00
        E 0 80 62 00
        E 120 90 1a 60
        E 0 90 3d 60
        E 0 90 49 60
        E 0 90 55 60
        E 0 90 61 60
        E 120 80 1a 00
        E 0 80 3d 00
        E 0 80 49 00
        E 0 80 55 00
        E 0 80 61 00
        E 360 90 1f 60
        E 0 90 3e 60
        E 0 90 4a 60
        E 0 90 56 60
        E 0 90 62 60
        E 120 80 1f 00
        E 0 80 3e 00
        E 0 80 4a 00
        E 0 80 56 00
        E 0 80 62 00
        E 120 90 1f 60
        E 0 90 56 60
        E 0 90 62 60
        E 120 80 1f 00
        E 0 80 56 00
        E 0 80 62 00
        E 120 90 18 60
        E 0 90 3c 60
        E 0 90 48 60
        E 0 90 54 60
        E 0 90 60 60
        E 120 80 18 00
        E 0 80 3c 00
        E 0 80 48 00
        E 0 80 54 00
        E 0 80 60 00
        E 360 90 1f 60
        E 0 90 3e 60
        E 0 90 4a 60
        E 0 90 56 60
        E 0 90 62 60
        E 120 80 1f 00
        E 0 80 3e 00
        E 0 80 4a 00
        E 0 80 56 00
        E 0 80 62 00
        E 120 90 1f 60
        E 0 90 56 60
        E 0 90 62 60
        E 120 80 1f 00
        E 0 80 56 00
        E 0 80 62 00
        E 120 90 1a 60
        E 0 90 3d 60
        E 0 90 49 60
        E 0 90 55 60
        E 0 90 61 60
        E 120 80 1a 00
        E 0 80 3d 00
        E 0 80 49 00
        E 0 80 55 00
        E 0 80 61 00
        E 360 90 1f 60
        E 0 90 3e 60
        E 0 90 4a 60
        E 0 90 56 60
        E 0 90 62 60
        E 120 80 1f 00
        E 0 80 3e 00
        E 0 80 4a 00
        E 0 80 56 00
        E 0 80 62 00
        E 120 90 1f 60
        E 0 90 56 60
        E 0 90 62 60
        E 120 80 1f 00
        E 0 80 56 00
        E 0 80 62 00
        E 120 90 78 60
        E 0 90 79 60
        E 0 90 7a 60
        E 0 90 7b 60
        E 0 90 7c 60
        E 240 90 18 60
        E 0 90 54 60
        E 0 90 60 60
        E 120 80 18 00
        E 0 80 54 00
        E 0 80 60 00
        E 120 90 1f 60
        E 0 90 3e 60
        E 0 90 4a 60
        E 0 90 56 60
        E 0 90 62 60
        E 120 80 1f 00
        E 0 80 3e 00
        E 0 80 4a 00
        E 0 80 56 00
        E 0 80 62 00
        E 120 90 1f 60
        E 0 90 56 60
        E 0 90 62 60
        E 120 80 1f 00
        E 0 80 56 00
        E 0 80 62 00
        E 120 90 1a 60
        E 0 90 3d 60
        E 0 90 49 60
        E 0 90 55 60
        E 0 90 61 60
        E 120 80 1a 00
        E 0 80 3d 00
        E 0 80 49 00
        E 0 80 55 00
        E 0 80 61 00
        E 360 90 1f 60
        E 0 90 3e 60
        E 0 90 4a 60
        E 0 90 56 60
        E 0 90 62 60
        E 120 80 1f 00
        E 0 80 3e 00
        E 0 80 4a 00
        E 0 80 56 00
        E 0 80 62 00
        E 120 90 1f 60
        E 0 90 56 60
        E 0 90 62 60
        E 120 80 1f 00
        E 0 80 56 00
        E 0 80 62 00
        E 120 80 78 00
        E 0 80 79 00
        E 0 80 7a 00
        E 0 80 7b 00
        E 0 80 7c 00
        E 0 90 18 60
        E 0 90 3c 60
        E 0 90 48 60
        E 0 90 54 60
        E 0 90 60 60
        E 120 80 18 00
        E 0 80 3c 00
        E 0 80 48 00
        E 0 80 54 00
        E 0 80 60 00
        E 360 90 1f 60
        E 0 90 3e 60
        E 0 90 4a 60
        E 0 90 56 60
        E 0 90 62 60
        E 120 80 1f 00
        E 0 80 3e 00
        E 0 80 4a 00
        E 0 80 56 00
        E 0 80 62 00
        E 120 90 1f 60
        E 0 90 56 60
        E 0 90 62 60
        E 120 80 1f 00
        E 0 80 56 00
        E 0 80 62 00
        E 120 90 1a 60
        E 0 90 3d 60
        E 0 90 49 60
        E 0 90 55 60
        E 0 90 61 60
        E 120 80 1a 00
        E 0 80 3d 00
        E 0 80 49 00
        E 0 80 55 00
        E 0 80 61 00
        E 360 90 1f 60
        E 0 90 3e 60
        E 0 90 4a 60
        E 0 90 56 60
        E 0 90 62 60
        E 120 80 1f 00
        E 0 80 3e 00
        E 0 80 4a 00
        E 0 80 56 00
        E 0 80 62 00
        E 120 90 1f 60
        E 0 90 56 60
        E 0 90 62 60
        E 120 80 1f 00
        E 0 80 56 00
        E 0 80 62 00
        E 360 90 18 60
        E 0 90 54 60
        E 0 90 60 60
        E 120 80 18 00
        E 0 80 54 00
        E 0 80 60 00
        E 120 90 1f 60
        E 0 90 3e 60
        E 0 90 4a 60
        E 0 90 56 60
        E 0 90 62 60
        E 120 80 1f 00
        E 0 80 3e 00
        E 0 80 4a 00
        E 0 80 56 00
        E 0 80 62 00
        E 120 90 1f 60
        E 0 90 56 60
        E 0 90 62 60
        E 120 80 1f 00
        E 0 80 56 00
        E 0 80 62 00
        E 120 90 1a 60
        E 0 90 3d 60
        E 0 90 49 60
        E 0 90 55 60
        E 0 90 61 60
        E 120 80 1a 00
        E 0 80 3d 00
        E 0 80 49 00
        E 0 80 55 00
        E 0 80 61 00
        E 360 90 1f 60
        E 0 90 3e 60
        E 0 90 4a 60
        E 0 90 56 60
        E 0 90 62 60
        E 120 80 1f 00
        E 0 80 3e 00
        E 0 80 4a 00
        E 0 80 56 00
        E 0 80 62 00
        E 120 90 1f 60
        E 0 90 56 60
        E 0 90 62 60
        E 120 80 1f 00
        E 0 80 56 00
        E 0 80 62 00
        E 120 90 18 60
        E 0 90 3c 60
        E 0 90 48 60
        E 0 90 54 60
        E 0 90 60 60
        E 120 80 18 00
        E 0 80 3c 00
        E 0 80 48 00
        E 0 80 54 00
        E 0 80 60 00
        E 360 90 1f 60
        E 0 90 3e 60
        E 0 90 4a 60
        E 0 90 56 60
        E 0 90 62 60
        E 120 80 1f 00
        E 0 80 3e 00
        E 0 80 4a 00
        E 0 80 56 00
        E 0 80 62 00
        E 120 90 1f 60
        E 0 90 56 60
        E 0 90 62 60
        E 120 80 1f 00
        E 0 80 56 00
        E 0 80 62 00
        E 120 90 1a 60
        E 0 90 3d 60
        E 0 90 49 60
        E 0 90 55 60
        E 0 90 61 60
        E 120 80 1a 00
        E 0 80 3d 00
        E 0 80 49 00
        E 0 80 55 00
        E 0 80 61 00
        E 360 90 1f 60
        E 0 90 3e 60
        E 0 90 4a 60
        E 0 90 56 60
        E 0 90 62 60
        E 120 80 1f 00
        E 0 80 3e 00
        E 0 80 4a 00
        E 0 80 56 00
        E 0 80 62 00
        E 120 90 1f 60
        E 0 90 56 60
        E 0 90 62 60
        E 120 80 1f 00
        E 0 80 56 00
        E 0 80 62 00
        E 120 90 78 60
        E 0 90 79 60
        E 0 90 7a 60
        E 0 90 7b 60
        E 0 90 7c 60
        E 240 90 18 60
        E 0 90 54 60
        E 0 90 60 60
        E 120 80 18 00
        E 0 80 54 00
        E 0 80 60 00
        E 120 90 1f 60
        E 0 90 3e 60
        E 0 90 4a 60
        E 0 90 56 60
        E 0 90 62 60
        E 120 80 1f 00
        E 0 80 3e 00
        E 0 80 4a 00
        E 0 80 56 00
        E 0 80 62 00
        E 120 90 1f 60
        E 0 90 56 60
        E 0 90 62 60
        E 120 80 1f 00
        E 0 80 56 00
        E 0 80 62 00
        E 120 90 1a 60
        E 0 90 3d 60
        E 0 90 49 60
        E 0 90 55 60
        E 0 90 61 60
        E 120 80 1a 00
        E 0 80 3d 00
        E 0 80 49 00
        E 0 80 55 00
        E 0 80 61 00
        E 360 90 1f 60
        E 0 90 3e 60
        E 0 90 4a 60
        E 0 90 56 60
        E 0 90 62 60
        E 120 80 1f 00
        E 0 80 3e 00
        E 0 80 4a 00
        E 0 80 56 00
        E 0 80 62 00
        E 120 90 1f 60
        E 0 90 56 60
        E 0 90 62 60
        E 120 80 1f 00
        E 0 80 56 00
        E 0 80 62 00
        E 120 80 78 00
        E 0 80 79 00
        E 0 80 7a 00
        E 0 80 7b 00
        E 0 80 7c 00
        E 0 90 18 60
        E 0 90 3c 60
        E 0 90 48 60
        E 0 90 54 60
        E 0 90 60 60
        E 0 90 74 60
        E 120 80 18 00
        E 0 80 3c 00
        E 0 80 48 00
        E 0 80 54 00
        E 0 80 60 00
        E 360 90 1f 60
        E 0 90 3e 60
        E 0 90 4a 60
        E 0 90 56 60
        E 0 90 62 60
        E 120 80 1f 00
        E 0 80 3e 00
        E 0 80 4a 00
        E 0 80 56 00
        E 0 80 62 00
        E 120 90 1f 60
        E 0 90 56 60
        E 0 90 62 60
        E 120 80 1f 00
        E 0 80 56 00
        E 0 80 62 00
        E 120 90 1a 60
        E 0 90 3d 60
        E 0 90 49 60
        E 0 90 55 60
        E 0 90 61 60
        E 120 80 1a 00
        E 0 80 3d 00
        E 0 80 49 00
        E 0 80 55 00
        E 0 80 61 00
        E 360 90 1f 60
        E 0 90 3e 60
        E 0 90 4a 60
        E 0 90 56 60
        E 0 90 62 60
        E 120 80 1f 00
        E 0 80 3e 00
        E 0 80 4a 00
        E 0 80 56 00
        E 0 80 62 00
        E 120 90 1f 60
        E 0 90 56 60
        E 0 90 62 60
        E 120 80 1f 00
        E 0 80 56 00
        E 0 80 62 00
        E 360 90 18 60
        E 0 90 54 60
        E 0 90 60 60
        E 120 80 18 00
        E 0 80 54 00
        E 0 80 60 00
        E 120 90 1f 60
        E 0 90 3e 60
        E 0 90 4a 60
        E 0 90 56 60
        E 0 90 62 60
        E 120 80 1f 00
        E 0 80 3e 00
        E 0 80 4a 00
        E 0 80 56 00
        E 0 80 62 00
        E 120 90 1f 60
        E 0 90 56 60
        E 0 90 62 60
        E 120 80 1f 00
        E 0 80 56 00
        E 0 80 62 00
        E 120 90 1a 60
        E 0 90 3d 60
        E 0 90 49 60
        E 0 90 55 60
        E 0 90 61 60
        E 120 80 1a 00
        E 0 80 3d 00
        E 0 80 49 00
        E 0 80 55 00
        E 0 80 61 00
        E 360 90 1f 60
        E 0 90 3e 60
        E 0 90 4a 60
        E 0 90 56 60
        E 0 90 62 60
        E 120 80 1f 00
        E 0 80 3e 00
        E 0 80 4a 00
        E 0 80 56 00
        E 0 80 62 00
        E 120 90 1f 60
        E 0 90 56 60
        E 0 90 62 60
        E 120 80 1f 00
        E 0 80 56 00
        E 0 80 62 00
        E 120 90 18 60
        E 0 90 3c 60
        E 0 90 48 60
        E 0 90 54 60
        E 0 90 60 60
        E 120 80 74 00
        E 0 80 18 00
        E 0 80 3c 00
        E 0 80 48 00
        E 0 80 54 00
        E 0 80 60 00
        E 360 90 1f 60
        E 0 90 3e 60
        E 0 90 4a 60
        E 0 90 56 60
        E 0 90 62 60
        E 120 80 1f 00
        E 0 80 3e 00
        E 0 80 4a 00
        E 0 80 56 00
        E 0 80 62 00
        E 120 90 1f 60
        E 0 90 56 60
        E 0 90 62 60
        E 120 80 1f 00
        E 0 80 56 00
        E 0 80 62 00
        E 120 90 1a 60
        E 0 90 3d 60
        E 0 90 49 60
        E 0 90 55 60
        E 0 90 61 60
        E 120 80 1a 00
        E 0 80 3d 00
        E 0 80 49 00
        E 0 80 55 00
        E 0 80 61 00
        E 360 90 1f 60
        E 0 90 3e 60
        E 0 90 4a 60
        E 0 90 56 60
        E 0 90 62 60
        E 120 80 1f 00
        E 0 80 3e 00
        E 0 80 4a 00
        E 0 80 56 00
        E 0 80 62 00
        E 120 90 1f 60
        E 0 90 56 60
        E 0 90 62 60
        E 120 80 1f 00
        E 0 80 56 00
        E 0 80 62 00
        E 120 90 78 60
        E 0 90 79 60
        E 0 90 7a 60
        E 0 90 7b 60
        E 0 90 7c 60
        E 240 90 18 60
        E 0 90 54 60
        E 0 90 60 60
        E 120 80 18 00
        E 0 80 54 00
        E 0 80 60 00
        E 120 90 1f 60
        E 0 90 3e 60
        E 0 90 4a 60
        E 0 90 56 60
        E 0 90 62 60
        E 120 80 1f 00
        E 0 80 3e 00
        E 0 80 4a 00
        E 0 80 56 00
        E 0 80 62 00
        E 120 90 1f 60
        E 0 90 56 60
        E 0 90 62 60
        E 120 80 1f 00
        E 0 80 56 00
        E 0 80 62 00
        E 120 90 1a 60
        E 0 90 3d 60
        E 0 90 49 60
        E 0 90 55 60
        E 0 90 61 60
        E 120 80 1a 00
        E 0 80 3d 00
        E 0 80 49 00
        E 0 80 55 00
        E 0 80 61 00
        E 360 90 1f 60
        E 0 90 3e 60
        E 0 90 4a 60
        E 0 90 56 60
        E 0 90 62 60
        E 120 80 1f 00
        E 0 80 3e 00
        E 0 80 4a 00
        E 0 80 56 00
        E 0 80 62 00
        E 120 90 1f 60
        E 0 90 56 60
        E 0 90 62 60
        E 120 80 1f 00
        E 0 80 56 00
        E 0 80 62 00
        E 120 80 78 00
        E 0 80 79 00
        E 0 80 7a 00
        E 0 80 7b 00
        E 0 80 7c 00
        E 0 90 18 60
        E 0 90 3c 60
        E 0 90 48 60
        E 0 90 54 60
        E 0 90 60 60
        E 120 80 18 00
        E 0 80 3c 00
        E 0 80 48 00
        E 0 80 54 00
        E 0 80 60 00
        E 360 90 1f 60
        E 0 90 3e 60
        E 0 90 4a 60
        E 0 90 56 60
        E 0 90 62 60
        E 120 80 1f 00
        E 0 80 3e 00
        E 0 80 4a 00
        E 0 80 56 00
        E 0 80 62 00
        E 120 90 1f 60
        E 0 90 56 60
        E 0 90 62 60
        E 120 80 1f 00
        E 0 80 56 00
        E 0 80 62 00
        E 120 90 1a 60
        E 0 90 3d 60
        E 0 90 49 60
        E 0 90 55 60
        E 0 90 61 60
        E 120 80 1a 00
        E 0 80 3d 00
        E 0 80 49 00
        E 0 80 55 00
        E 0 80 61 00
        E 360 90 1f 60
        E 0 90 3e 60
        E 0 90 4a 60
        E 0 90 56 60
        E 0 90 62 60
        E 120 80 1f 00
        E 0 80 3e 00
        E 0 80 4a 00
        E 0 80 56 00
        E 0 80 62 00
        E 120 90 1f 60
        E 0 90 56 60
        E 0 90 62 60
        E 120 80 1f 00
        E 0 80 56 00
        E 0 80 62 00
        E 360 90 18 60
        E 0 90 54 60
        E 0 90 60 60
        E 120 80 18 00
        E 0 80 54 00
        E 0 80 60 00
        E 120 90 1f 60
        E 0 90 3e 60
        E 0 90 4a 60
        E 0 90 56 60
        E 0 90 62 60
        E 120 80 1f 00
        E 0 80 3e 00
        E 0 80 4a 00
        E 0 80 56 00
        E 0 80 62 00
        E 120 90 1f 60
        E 0 90 56 60
        E 0 90 62 60
        E 120 80 1f 00
        E 0 80 56 00
        E 0 80 62 00
        E 120 90 1a 60
        E 0 90 3d 60
        E 0 90 49 60
        E 0 90 55 60
        E 0 90 61 60
        E 120 80 1a 00
        E 0 80 3d 00
        E 0 80 49 00
        E 0 80 55 00
        E 0 80 61 00
        E 360 90 1f 60
        E 0 90 3e 60
        E 0 90 4a 60
        E 0 90 56 60
        E 0 90 62 60
        E 120 80 1f 00
        E 0 80 3e 00
        E 0 80 4a 00
        E 0 80 56 00
        E 0 80 62 00
        E 120 90 1f 60
        E 0 90 56 60
        E 0 90 62 60
        E 120 80 1f 00
        E 0 80 56 00
        E 0 80 62 00
        E 120 90 18 60
        E 0 90 3c 60
        E 0 90 48 60
        E 0 90 54 60
        E 0 90 60 60
        E 120 80 18 00
        E 0 80 3c 00
        E 0 80 48 00
        E 0 80 54 00
        E 0 80 60 00
        E 360 90 1f 60
        E 0 90 3e 60
        E 0 90 4a 60
        E 0 90 56 60
        E 0 90 62 60
        E 120 80 1f 00
        E 0 80 3e 00
        E 0 80 4a 00
        E 0 80 56 00
        E 0 80 62 00
        E 120 90 1f 60
        E 0 90 56 60
        E 0 90 62 60
        E 120 80 1f 00
        E 0 80 56 00
        E 0 80 62 00
        E 120 90 1a 60
        E 0 90 3d 60
        E 0 90 49 60
        E 0 90 55 60
        E 0 90 61 60
        E 120 80 1a 00
        E 0 80 3d 00
        E 0 80 49 00
        E 0 80 55 00
        E 0 80 61 00
        E 360 90 1f 60
        E 0 90 3e 60
        E 0 90 4a 60
        E 0 90 56 60
        E 0 90 62 60
        E 120 80 1f 00
        E 0 80 3e 00
        E 0 80 4a 00
        E 0 80 56 00
        E 0 80 62 00
        E 120 90 1f 60
        E 0 90 56 60
        E 0 90 62 60
        E 120 80 1f 00
        E 0 80 56 00
        E 0 80 62 00
        E 120 90 78 60
        E 0 90 79 60
        E 0 90 7a 60
        E 0 90 7b 60
        E 0 90 7c 60
        E 240 90 18 60
        E 0 90 54 60
        E 0 90 60 60
        E 120 80 18 00
        E 0 80 54 00
        E 0 80 60 00
        E 120 90 1f 60
        E 0 90 3e 60
        E 0 90 4a 60
        E 0 90 56 60
        E 0 90 62 60
        E 120 80 1f 00
        E 0 80 3e 00
        E 0 80 4a 00
        E 0 80 56 00
        E 0 80 62 00
        E 120 90 1f 60
        E 0 90 56 60
        E 0 90 62 60
        E 120 80 1f 00
        E 0 80 56 00
        E 0 80 62 00
        E 120 90 1a 60
        E 0 90 3d 60
        E 0 90 49 60
        E 0 90 55 60
        E 0 90 61 60
        E 120 80 1a 00
        E 0 80 3d 00
        E 0 80 49 00
        E 0 80 55 00
        E 0 80 61 00
        E 360 90 1f 60
        E 0 90 3e 60
        E 0 90 4a 60
        E 0 90 56 60
        E 0 90 62 60
        E 120 80 1f 00
        E 0 80 3e 00
        E 0 80 4a 00
        E 0 80 56 00
        E 0 80 62 00
        E 120 90 1f 60
        E 0 90 56 60
        E 0 90 62 60
        E 120 80 1f 00
        E 0 80 56 00
        E 0 80 62 00
        E 120 80 78 00
        E 0 80 79 00
        E 0 80 7a 00
        E 0 80 7b 00
        E 0 80 7c 00
        E 0 90 18 60
        E 0 90 3c 60
        E 0 90 48 60
        E 0 90 54 60
        E 0 90 60 60
        E 120 80 18 00
        E 0 80 3c 00
        E 0 80 48 00
        E 0 80 54 00
        E 0 80 60 00
        E 360 90 1f 60
        E 0 90 3e 60
        E 0 90 4a 60
        E 0 90 56 60
        E 0 90 62 60
        E 120 80 1f 00
        E 0 80 3e 00
        E 0 80 4a 00
        E 0 80 56 00
        E 0 80 62 00
        E 120 90 1f 60
        E 0 90 56 60
        E 0 90 62 60
        E 120 80 1f 00
        E 0 80 56 00
        E 0 80 62 00
        E 120 90 1a 60
        E 0 90 3d 60
        E 0 90 49 60
        E 0 90 55 60
        E 0 90 61 60
        E 120 80 1a 00
        E 0 80 3d 00
        E 0 80 49 00
        E 0 80 55 00
        E 0 80 61 00
        E 360 90 1f 60
        E 0 90 3e 60
        E 0 90 4a 60
        E 0 90 56 60
        E 0 90 62 60
        E 120 80 1f 00
        E 0 80 3e 00
        E 0 80 4a 00
        E 0 80 56 00
        E 0 80 62 00
        E 120 90 1f 60
        E 0 90 56 60
        E 0 90 62 60
        E 120 80 1f 00
        E 0 80 56 00
        E 0 80 62 00
        E 360 90 18 60
        E 0 90 54 60
        E 0 90 60 60
        E 120 80 18 00
        E 0 80 54 00
        E 0 80 60 00
        E 120 90 1f 60
        E 0 90 3e 60
        E 0 90 4a 60
        E 0 90 56 60
        E 0 90 62 60
        E 120 80 1f 00
        E 0 80 3e 00
        E 0 80 4a 00
        E 0 80 56 00
        E 0 80 62 00
        E 120 90 1f 60
        E 0 90 56 60
        E 0 90 62 60
        E 120 80 1f 00
        E 0 80 56 00
        E 0 80 62 00
        E 120 90 1a 60
        E 0 90 3d 60
        E 0 90 49 60
        E 0 90 55 60
        E 0 90 61 60
        E 120 80 1a 00
        E 0 80 3d 00
        E 0 80 49 00
        E 0 80 55 00
        E 0 80 61 00
        E 360 90 1f 60
        E 0 90 3e 60
        E 0 90 4a 60
        E 0 90 56 60
        E 0 90 62 60
        E 120 80 1f 00
        E 0 80 3e 00
        E 0 80 4a 00
        E 0 80 56 00
        E 0 80 62 00
        E 120 90 1f 60
        E 0 90 56 60
        E 0 90 62 60
        E 120 80 1f 00
        E 0 80 56 00
        E 0 80 62 00
        E 120 90 18 60
        E 0 90 3c 60
        E 0 90 48 60
        E 0 90 54 60
        E 0 90 60 60
        E 120 80 18 00
        E 0 80 3c 00
        E 0 80 48 00
        E 0 80 54 00
        E 0 80 60 00
        E 360 90 1f 60
        E 0 90 3e 60
        E 0 90 4a 60
        E 0 90 56 60
        E 0 90 62 60
        E 120 80 1f 00
        E 0 80 3e 00
        E 0 80 4a 00
        E 0 80 56 00
        E 0 80 62 00
        E 120 90 1f 60
        E 0 90 56 60
        E 0 90 62 60
        E 120 80 1f 00
        E 0 80 56 00
        E 0 80 62 00
        E 120 90 1a 60
        E 0 90 3d 60
        E 0 90 49 60
        E 0 90 55 60
        E 0 90 61 60
        E 120 80 1a 00
        E 0 80 3d 00
        E 0 80 49 00
        E 0 80 55 00
        E 0 80 61 00
        E 360 90 1f 60
        E 0 90 3e 60
        E 0 90 4a 60
        E 0 90 56 60
        E 0 90 62 60
        E 120 80 1f 00
        E 0 80 3e 00
        E 0 80 4a 00
        E 0 80 56 00
        E 0 80 62 00
        E 120 90 1f 60
        E 0 90 56 60
        E 0 90 62 60
        E 120 80 1f 00
        E 0 80 56 00
        E 0 80 62 00
        E 120 90 78 60
        E 0 90 79 60
        E 0 90 7a 60
        E 0 90 7b 60
        E 0 90 7c 60
        E 240 90 18 60
        E 0 90 54 60
        E 0 90 60 60
        E 120 80 18 00
        E 0 80 54 00
        E 0 80 60 00
        E 120 90 1f 60
        E 0 90 3e 60
        E 0 90 4a 60
        E 0 90 56 60
        E 0 90 62 60
        E 120 80 1f 00
        E 0 80 3e 00
        E 0 80 4a 00
        E 0 80 56 00
        E 0 80 62 00
        E 120 90 1f 60
        E 0 90 56 60
        E 0 90 62 60
        E 120 80 1f 00
        E 0 80 56 00
        E 0 80 62 00
        E 120 90 1a 60
        E 0 90 3d 60
        E 0 90 49 60
        E 0 90 55 60
        E 0 90 61 60
        E 120 80 1a 00
        E 0 80 3d 00
        E 0 80 49 00
        E 0 80 55 00
        E 0 80 61 00
        E 360 90 1f 60
        E 0 90 3e 60
        E 0 90 4a 60
        E 0 90 56 60
        E 0 90 62 60
        E 120 80 1f 00
        E 0 80 3e 00
        E 0 80 4a 00
        E 0 80 56 00
        E 0 80 62 00
        E 120 90 1f 60
        E 0 90 56 60
        E 0 90 62 60
        E 120 80 1f 00
        E 0 80 56 00
        E 0 80 62 00
        E 120 80 78 00
        E 0 80 79 00
        E 0 80 7a 00
        E 0 80 7b 00
        E 0 80 7c 00
        E 0 90 1f 60
        E 0 90 3e 60
        E 0 90 4a 60
        E 0 90 56 60
        E 0 90 62 60
        E 120 80 1f 00
        E 0 80 3e 00
        E 0 80 4a 00
        E 0 80 56 00
        E 0 80 62 00
        E 360 90 1f 60
        E 0 90 3e 60
        E 0 90 4a 60
        E 0 90 56 60
        E 0 90 62 60
        E 120 80 1f 00
        E 0 80 3e 00
        E 0 80 4a 00
        E 0 80 56 00
        E 0 80 62 00
        E 120 90 1f 60
        E 0 90 56 60
        E 0 90 62 60
        E 120 80 1f 00
        E 0 80 56 00
        E 0 80 62 00
        E 120 90 18 60
        E 0 90 1f 60
        E 0 90 3e 60
        E 0 90 48 60
        E 0 90 4a 60
        E 0 90 54 60
        E 0 90 56 60
        E 0 90 60 60
        E 0 90 62 60
        E 120 80 18 00
        E 0 80 1f 00
        E 0 80 3e 00
        E 0 80 48 00
        E 0 80 4a 00
        E 0 80 54 00
        E 0 80 56 00
        E 0 80 60 00
        E 0 80 62 00
        E 360 90 1f 60
        E 0 90 3e 60
        E 0 90 4a 60
        E 0 90 56 60
        E 0 90 62 60
        E 120 80 1f 00
        E 0 80 3e 00
        E 0 80 4a 00
        E 0 80 56 00
        E 0 80 62 00
        E 120 90 1f 60
        E 0 90 56 60
        E 0 90 62 60
        E 120 80 1f 00
        E 0 80 56 00
        E 0 80 62 00
        E 360 90 18 60
        E 0 90 54 60
        E 0 90 60 60
        E 120 80 18 00
        E 0 80 54 00
        E 0 80 60 00
        E 120 90 1f 60
        E 0 90 3e 60
        E 0 90 4a 60
        E 0 90 56 60
        E 0 90 62 60
        E 120 80 1f 00
        E 0 80 3e 00
        E 0 80 4a 00
        E 0 80 56 00
        E 0 80 62 00
        E 120 90 1f 60
        E 0 90 56 60
        E 0 90 62 60
        E 120 80 1f 00
        E 0 80 56 00
        E 0 80 62 00
        E 120 90 1a 60
        E 0 90 3d 60
        E 0 90 49 60
        E 0 90 55 60
        E 0 90 61 60
        E 120 80 1a 00
        E 0 80 3d 00
        E 0 80 49 00
        E 0 80 55 00
        E 0 80 61 00
        E 120 90 1f 60
        E 0 90 56 60
        E 0 90 62 60
        E 120 80 1f 00
        E 0 80 56 00
        E 0 80 62 00
        E 120 90 1f 60
        E 0 90 3e 60
        E 0 90 4a 60
        E 0 90 56 60
        E 0 90 62 60
        E 120 80 1f 00
        E 0 80 3e 00
        E 0 80 4a 00
        E 0 80 56 00
        E 0 80 62 00
        E 120 90 1f 60
        E 0 90 56 60
        E 0 90 62 60
        E 120 80 1f 00
        E 0 80 56 00
        E 0 80 62 00
        E 120 90 1f 60
        E 0 90 3e 60
        E 0 90 4a 60
        E 0 90 56 60
        E 0 90 62 60
        E 120 80 1f 00
        E 0 80 3e 00
        E 0 80 4a 00
        E 0 80 56 00
        E 0 80 62 00
        E 360 90 1f 60
        E 0 90 3e 60
        E 0 90 4a 60
        E 0 90 56 60
        E 0 90 62 60
        E 120 80 1f 00
        E 0 80 3e 00
        E 0 80 4a 00
        E 0 80 56 00
        E 0 80 62 00
        E 120 90 1f 60
        E 0 90 56 60
        E 0 90 62 60
        E 120 80 1f 00
        E 0 80 56 00
        E 0 80 62 00
        E 120 90 18 60
        E 0 90 1f 60
        E 0 90 3e 60
        E 0 90 48 60
        E 0 90 4a 60
        E 0 90 54 60
        E 0 90 56 60
        E 0 90 60 60
        E 0 90 62 60
        E 120 80 18 00
        E 0 80 1f 00
        E 0 80 3e 00
        E 0 80 48 00
        E 0 80 4a 00
        E 0 80 54 00
        E 0 80 56 00
        E 0 80 60 00
        E 0 80 62 00
        E 360 90 1f 60
        E 0 90 3e 60
        E 0 90 4a 60
        E 0 90 56 60
        E 0 90 62 60
        E 120 80 1f 00
        E 0 80 3e 00
        E 0 80 4a 00
        E 0 80 56 00
        E 0 80 62 00
        E 120 90 1f 60
        E 0 90 56 60
        E 0 90 62 60
        E 120 80 1f 00
        E 0 80 56 00
        E 0 80 62 00
        e 120 90 78 60
        e 0 90 79 60
        e 0 90 7a 60
        e 0 90 7b 60
        e 0 90 7c 60
        E 240 90 18 60
        E 0 90 54 60
        E 0 90 60 60
        E 120 80 18 00
        E 0 80 54 00
        E 0 80 60 00
        E 120 90 1f 60
        E 0 90 3e 60
        E 0 90 4a 60
        E 0 90 56 60
        E 0 90 62 60
        E 120 80 1f 00
        E 0 80 3e 00
        E 0 80 4a 00
        E 0 80 56 00
        E 0 80 62 00
        E 120 90 1f 60
        E 0 90 56 60
        E 0 90 62 60
        E 120 80 1f 00
        E 0 80 56 00
        E 0 80 62 00
        E 120 90 1a 60
        E 0 90 3d 60
        E 0 90 49 60
        E 0 90 55 60
        E 0 90 61 60
        E 120 80 1a 00
        E 0 80 3d 00
        E 0 80 49 00
        E 0 80 55 00
        E 0 80 61 00
        E 120 90 1f 60
        E 0 90 56 60
        E 0 90 62 60
        E 120 80 1f 00
        E 0 80 56 00
        E 0 80 62 00
        E 120 90 1f 60
        E 0 90 3e 60
        E 0 90 4a 60
        E 0 90 56 60
        E 0 90 62 60
        E 120 80 1f 00
        E 0 80 3e 00
        E 0 80 4a 00
        E 0 80 56 00
        E 0 80 62 00
        E 120 90 1f 60
        E 0 90 56 60
        E 0 90 62 60
        E 120 80 1f 00
        E 0 80 56 00
        E 0 80 62 00
        e 120 80 78 00
        e 0 80 79 00
        e 0 80 7a 00
        e 0 80 7b 00
        e 0 80 7c 00
        E 0 90 1f 60
        E 0 90 3e 60
        E 0 90 4a 60
        E 0 90 56 60
        E 0 90 62 60
        E 120 80 1f 00
        E 0 80 3e 00
        E 0 80 4a 00
        E 0 80 56 00
        E 0 80 62 00
        E 360 90 1f 60
        E 0 90 3e 60
        E 0 90 4a 60
        E 0 90 56 60
        E 0 90 62 60
        E 120 80 1f 00
        E 0 80 3e 00
        E 0 80 4a 00
        E 0 80 56 00
        E 0 80 62 00
        E 120 90 1f 60
        E 0 90 56 60
        E 0 90 62 60
        E 120 80 1f 00
        E 0 80 56 00
        E 0 80 62 00
        E 120 90 18 60
        E 0 90 1f 60
        E 0 90 3e 60
        E 0 90 48 60
        E 0 90 4a 60
        E 0 90 54 60
        E 0 90 56 60
        E 0 90 60 60
        E 0 90 62 60
        E 120 80 18 00
        E 0 80 1f 00
        E 0 80 3e 00
        E 0 80 48 00
        E 0 80 4a 00
        E 0 80 54 00
        E 0 80 56 00
        E 0 80 60 00
        E 0 80 62 00
        E 360 90 1f 60
        E 0 90 3e 60
        E 0 90 4a 60
        E 0 90 56 60
        E 0 90 62 60
        E 120 80 1f 00
        E 0 80 3e 00
        E 0 80 4a 00
        E 0 80 56 00
        E 0 80 62 00
        E 120 90 1f 60
        E 0 90 56 60
        E 0 90 62 60
        E 120 80 1f 00
        E 0 80 56 00
        E 0 80 62 00
        E 360 90 18 60
        E 0 90 54 60
        E 0 90 60 60
        E 120 80 18 00
        E 0 80 54 00
        E 0 80 60 00
        E 120 90 1f 60
        E 0 90 3e 60
        E 0 90 4a 60
        E 0 90 56 60
        E 0 90 62 60
        E 120 80 1f 00
        E 0 80 3e 00
        E 0 80 4a 00
        E 0 80 56 00
        E 0 80 62 00
        E 120 90 1f 60
        E 0 90 56 60
        E 0 90 62 60
        E 120 80 1f 00
        E 0 80 56 00
        E 0 80 62 00
        E 120 90 1a 60
        E 0 90 3d 60
        E 0 90 49 60
        E 0 90 55 60
        E 0 90 61 60
        E 120 80 1a 00
        E 0 80 3d 00
        E 0 80 49 00
        E 0 80 55 00
        E 0 80 61 00
        E 120 90 1f 60
        E 0 90 56 60
        E 0 90 62 60
        E 120 80 1f 00
        E 0 80 56 00
        E 0 80 62 00
        E 120 90 1f 60
        E 0 90 3e 60
        E 0 90 4a 60
        E 0 90 56 60
        E 0 90 62 60
        E 120 80 1f 00
        E 0 80 3e 00
        E 0 80 4a 00
        E 0 80 56 00
        E 0 80 62 00
        E 120 90 1f 60
        E 0 90 56 60
        E 0 90 62 60
        E 120 80 1f 00
        E 0 80 56 00
        E 0 80 62 00
        E 120 90 1f 60
        E 0 90 3e 60
        E 0 90 4a 60
        E 0 90 56 60
        E 0 90 62 60
        E 120 80 1f 00
        E 0 80 3e 00
        E 0 80 4a 00
        E 0 80 56 00
        E 0 80 62 00
        E 360 90 1f 60
        E 0 90 3e 60
        E 0 90 4a 60
        E 0 90 56 60
        E 0 90 62 60
        E 120 80 1f 00
        E 0 80 3e 00
        E 0 80 4a 00
        E 0 80 56 00
        E 0 80 62 00
        E 120 90 1f 60
        E 0 90 56 60
        E 0 90 62 60
        E 120 80 1f 00
        E 0 80 56 00
        E 0 80 62 00
        E 120 90 18 60
        E 0 90 1f 60
        E 0 90 3e 60
        E 0 90 48 60
        E 0 90 4a 60
        E 0 90 54 60
        E 0 90 56 60
        E 0 90 60 60
        E 0 90 62 60
        E 120 80 18 00
        E 0 80 1f 00
        E 0 80 3e 00
        E 0 80 48 00
        E 0 80 4a 00
        E 0 80 54 00
        E 0 80 56 00
        E 0 80 60 00
        E 0 80 62 00
        E 360 90 1f 60
        E 0 90 3e 60
        E 0 90 4a 60
        E 0 90 56 60
        E 0 90 62 60
        E 120 80 1f 00
        E 0 80 3e 00
        E 0 80 4a 00
        E 0 80 56 00
        E 0 80 62 00
        E 120 90 1f 60
        E 0 90 56 60
        E 0 90 62 60
        E 120 80 1f 00
        E 0 80 56 00
        E 0 80 62 00
        E 360 90 1a 60
        E 0 90 3d 60
        E 0 90 49 60
        E 0 90 55 60
        E 0 90 61 60
        E 120 80 1a 00
        E 0 80 3d 00
        E 0 80 49 00
        E 0 80 55 00
        E 0 80 61 00
        E 360 90 18 60
        E 0 90 54 60
        E 0 90 60 60
        E 120 80 18 00
        E 0 80 54 00
        E 0 80 60 00
        E 120 90 1b 60
        E 0 90 3d 60
        E 0 90 49 60
        E 0 90 55 60
        E 0 90 61 60
        E 120 80 1b 00
        E 0 80 3d 00
        E 0 80 49 00
        E 0 80 55 00
        E 0 80 61 00
        E 120 90 1a 60
        E 0 90 55 60
        E 0 90 61 60
        E 120 80 1a 00
        E 0 80 55 00
        E 0 80 61 00
        E 120 90 1b 60
        E 0 90 3d 60
        E 0 90 49 60
        E 0 90 55 60
        E 0 90 61 60
        E 120 80 1b 00
        E 0 80 3d 00
        E 0 80 49 00
        E 0 80 55 00
        E 0 80 61 00
        <X 480 0
          /wFbaWRsZV9yZWFsdGltZV0=
        >
        E 9480 b0 7b 00
        GUID {C03FBB66-0947-4205-B1BA-248D13934B82}
        IGNTEMPO 0 120.00000000 4 4
        SRCCOLOR 0
        VELLANE 132 128 128
        COLORMAP "C:\Program Files\REAPER (x64)\Data\color_maps\rockband_guitarbass.png"
        CFGEDITVIEW -7584.000489 12.707725 0 20 0 0 0
        CFGEDIT 1 1 0 1 1 0 1 1 1 1 1 0.25000000 -8 -8 1928 1088 0 2 1 1 0.00000000 0 1 0 0 0.500000 0 0 1.000000 64
        KEYSNAP 0 0 "102034050607" 0 "Major"
        EVTFILTER 0 -1 -1 -1 -1 0 1 0 0 -1.00000000 -1.00000000
      >
    >
  >
  <TRACK '{8D109F05-FA81-4875-943D-6E6C311F5E84}'
    NAME "kick"
    PEAKCOL 16576
    BEAT -1
    AUTOMODE 0
    VOLPAN 1.00000000000000 0.00000000000000 -1.00000000000000 -1.00000000000000 1.00000000000000
    MUTESOLO 0 0 0
    IPHASE 0
    ISBUS 0 0
    BUSCOMP 0 0
    SHOWINMIX 1 0.666700 0.500000 1 0.500000 -1 -1 -1
    FREEMODE 0
    SEL 0
    REC 0 0 0 0 0 0 0
    VU 2
    TRACKHEIGHT 0 0
    INQ 0 0 0 0.5000000000 100 0 0 100
    NCHAN 2
    FX 1
    TRACKID {8D109F05-FA81-4875-943D-6E6C311F5E84}
    PERF 0
    MIDIOUT -1
    MAINSEND 1 0
    <ITEM
      POSITION 0.00000000000000
      SNAPOFFS 0.00000000000000
      LENGTH 126.40843537414966
      LOOP 0
      ALLTAKES 0
      SEL 0
      FADEIN 1 0.000000 0.000000 1 0
      FADEOUT 1 0.000000 0.000000 1 0
      MUTE 0
      IGUID {FFC24310-FEEC-4844-A7F4-682E9235D0E6}
      IID 16
      NAME "kick.wav"
      VOLPAN 1.000000 0.000000 1.000000 -1.000000
      SOFFS 0.00000000000000
      PLAYRATE 1.00000000000000 1 0.00000000000000 -1
      CHANMODE 0
      GUID {7D97C518-AF3A-4128-B054-C3D5107C388D}
      <SOURCE WAVE
        FILE "wav\kick.wav"
      >
    >
  >
  <TRACK '{AC282818-B652-4229-875B-F0DF0147379D}'
    NAME "snare"
    PEAKCOL 16576
    BEAT -1
    AUTOMODE 0
    VOLPAN 1.00000000000000 0.00000000000000 -1.00000000000000 -1.00000000000000 1.00000000000000
    MUTESOLO 0 0 0
    IPHASE 0
    ISBUS 0 0
    BUSCOMP 0 0
    SHOWINMIX 1 0.666700 0.500000 1 0.500000 -1 -1 -1
    FREEMODE 0
    SEL 0
    REC 0 0 0 0 0 0 0
    VU 2
    TRACKHEIGHT 0 0
    INQ 0 0 0 0.5000000000 100 0 0 100
    NCHAN 2
    FX 1
    TRACKID {AC282818-B652-4229-875B-F0DF0147379D}
    PERF 0
    MIDIOUT -1
    MAINSEND 1 0
    <ITEM
      POSITION 0.00000000000000
      SNAPOFFS 0.00000000000000
      LENGTH 126.40843537414966
      LOOP 0
      ALLTAKES 0
      SEL 0
      FADEIN 1 0.000000 0.000000 1 0
      FADEOUT 1 0.000000 0.000000 1 0
      MUTE 0
      IGUID {CF7B9BEC-918C-4593-BFEA-2FF9759DE53B}
      IID 17
      NAME "snare.wav"
      VOLPAN 1.000000 0.000000 1.000000 -1.000000
      SOFFS 0.00000000000000
      PLAYRATE 1.00000000000000 1 0.00000000000000 -1
      CHANMODE 0
      GUID {940C4944-991C-44AA-A80B-C445A4E6DC63}
      <SOURCE WAVE
        FILE "wav\snare.wav"
      >
    >
  >
  <TRACK '{C33C67D2-5DD0-4DB2-A1E1-983BAA19C0E1}'
    NAME "kit"
    PEAKCOL 16576
    BEAT -1
    AUTOMODE 0
    VOLPAN 1.00000000000000 0.00000000000000 -1.00000000000000 -1.00000000000000 1.00000000000000
    MUTESOLO 0 0 0
    IPHASE 0
    ISBUS 2 -1
    BUSCOMP 0 0
    SHOWINMIX 1 0.666700 0.500000 1 0.500000 -1 -1 -1
    FREEMODE 0
    SEL 0
    REC 0 0 0 0 0 0 0
    VU 2
    TRACKHEIGHT 0 0
    INQ 0 0 0 0.5000000000 100 0 0 100
    NCHAN 2
    FX 1
    TRACKID {C33C67D2-5DD0-4DB2-A1E1-983BAA19C0E1}
    PERF 0
    MIDIOUT -1
    MAINSEND 1 0
    <ITEM
      POSITION 0.00000000000000
      SNAPOFFS 0.00000000000000
      LENGTH 126.40843537414966
      LOOP 0
      ALLTAKES 0
      SEL 0
      FADEIN 1 0.000000 0.000000 1 0
      FADEOUT 1 0.000000 0.000000 1 0
      MUTE 0
      IGUID {A6EA6FAE-B292-4752-9A37-5A69B71CC3F0}
      IID 18
      NAME "kit.wav"
      VOLPAN 1.000000 0.000000 1.000000 -1.000000
      SOFFS 0.00000000000000
      PLAYRATE 1.00000000000000 1 0.00000000000000 -1
      CHANMODE 0
      GUID {F3C184FA-2DAA-433A-9B46-63F199815FF7}
      <SOURCE WAVE
        FILE "wav\kit.wav"
      >
    >
  >
  <TRACK '{EC4528EA-9728-482C-B651-BFC79667A662}'
    NAME "PART BASS"
    PEAKCOL 16576
    BEAT -1
    AUTOMODE 0
    VOLPAN 1.00000000000000 0.00000000000000 -1.00000000000000 -1.00000000000000 1.00000000000000
    MUTESOLO 0 0 0
    IPHASE 0
    ISBUS 1 1
    BUSCOMP 0 0
    SHOWINMIX 1 0.666700 0.500000 1 0.500000 -1 -1 -1
    FREEMODE 0
    SEL 1
    REC 0 0 0 0 0 0 0
    VU 2
    TRACKHEIGHT 0 0
    INQ 0 0 0 0.5000000000 100 0 0 100
    NCHAN 2
    FX 1
    TRACKID {EC4528EA-9728-482C-B651-BFC79667A662}
    PERF 0
    MIDIOUT -1
    <MIDINOTENAMES
      0 127 "TRILL MARKER"
      0 126 "TREMOLO MARKER"
      0 125 "---"
      0 124 "BRE"
      0 123 "BRE"
      0 122 "BRE"
      0 121 "BRE"
      0 120 "BRE (use all 5)"
      0 119 "----"
      0 116 "OVERDRIVE"
      0 115 "----"
      0 103 "Solo Marker"
      0 102 "Force HOPO Off"
      0 101 "Force HOPO On"
      0 100 "EXPERT Orange"
      0 99 "EXPERT Blue"
      0 98 "EXPERT Yellow"
      0 97 "EXPERT Red"
      0 96 "EXPERT Green"
      0 95 "----"
      0 90 "Force HOPO Off"
      0 89 "Force HOPO On"
      0 88 "HARD Orange"
      0 87 "HARD Blue"
      0 86 "HARD Yellow"
      0 85 "HARD Red"
      0 84 "HARD Green"
      0 77 "----"
      0 76 "MEDIUM Orange"
      0 75 "MEDIUM Blue"
      0 74 "MEDIUM Yellow"
      0 73 "MEDIUM Red"
      0 72 "MEDIUM Green"
      0 65 "----"
      0 64 "EASY Orange"
      0 63 "EASY Blue"
      0 62 "EASY Yellow"
      0 61 "EASY Red"
      0 60 "EASY Green"
      0 59 "Fret 12"
      0 57 "Fret 11"
      0 56 "Fret 10"
      0 55 "Fret 9"
      0 53 "Fret 8"
      0 52 "Fret 7"
      0 50 "Fret 6"
      0 49 "Fret 5"
      0 47 "Fret 4"
      0 45 "Fret 3"
      0 43 "Fret 2"
      0 40 "Fret 1"
    >
    MAINSEND 1 0
    <FXCHAIN
      WNDRECT 409 51 878 559
      SHOW 0
      LASTSEL 0
      DOCKED 0
      BYPASS 0 0
      <VST "VSTi: RBN Preview (RBN)" "rbprev_vst64.dll" 0 ""
        dnBicu5e7f4AAAAAAgAAAAEAAAAAAAAAAgAAAAAAAAAEAAAAAQAAAA==
        AAAQAAMAqgAAABAAAAA=
      >
      FLOATPOS 0 0 0 0
      FXID {21C5AE44-EC44-49AF-8CAC-12608FB55553}
      WAK 0
    >
    <ITEM
      POSITION 0.00000000000000
      SNAPOFFS 0.00000000000000
      LENGTH 126.40842722848190
      LOOP 0
      ALLTAKES 0
      SEL 0
      FADEIN 1 0.000000 0.000000 1 0
      FADEOUT 1 0.000000 0.000000 1 0
      MUTE 0
      IGUID {B175B9B4-A27F-46B4-813C-053412F28D90}
      IID 26
      NAME "PART BASS"
      VOLPAN 1.000000 0.000000 1.000000 -1.000000
      SOFFS 0.00000000000000 0.00000000000000
      PLAYRATE 1.00000000000000 1 0.00000000000000 -1
      CHANMODE 0
      GUID {B1D10A18-EFB3-4BE7-B014-35F21A5F087F}
      <SOURCE MIDI
        HASDATA 1 480 QN
        POOLEDEVTS {AD9F8218-76B9-496F-AC64-04EFCEA7FAD3}
        <X 0 0
          /wNQQVJUIEJBU1M=
        >
        <X 3840 0
          /wFbcGxheV0=
        >
        E 0 90 37 60
        E 0 90 40 60
        E 0 90 4c 60
        E 0 90 58 60
        E 0 90 64 60
        E 1440 80 40 00
        E 0 80 4c 00
        E 360 80 58 00
        E 0 80 64 00
        E 120 90 3f 60
        E 0 90 4b 60
        E 0 90 57 60
        E 0 90 63 60
        E 1440 80 3f 00
        E 0 80 4b 00
        E 360 80 37 00
        E 0 80 57 00
        E 0 80 63 00
        E 120 90 39 60
        E 0 90 3d 60
        E 0 90 49 60
        E 0 90 55 60
        E 0 90 61 60
        E 480 80 3d 00
        E 0 80 49 00
        E 360 80 55 00
        E 0 80 61 00
        E 120 90 3c 60
        E 0 90 48 60
        E 0 90 54 60
        E 0 90 60 60
        E 480 80 3c 00
        E 0 80 48 00
        E 360 80 54 00
        E 0 80 60 00
        E 120 90 3e 60
        E 0 90 4a 60
        E 0 90 56 60
        E 0 90 62 60
        E 480 80 3e 00
        E 0 80 4a 00
        E 360 80 56 00
        E 0 80 62 00
        E 120 90 3f 60
        E 0 90 4b 60
        E 0 90 57 60
        E 0 90 63 60
        E 480 80 3f 00
        E 0 80 4b 00
        E 360 80 39 00
        E 0 80 57 00
        E 0 80 63 00
        E 120 90 37 60
        E 0 90 40 60
        E 0 90 4c 60
        E 0 90 58 60
        E 0 90 64 60
        E 1440 80 40 00
        E 0 80 4c 00
        E 360 80 58 00
        E 0 80 64 00
        E 120 90 3f 60
        E 0 90 4b 60
        E 0 90 57 60
        E 0 90 63 60
        E 1440 80 3f 00
        E 0 80 4b 00
        E 360 80 37 00
        E 0 80 57 00
        E 0 80 63 00
        E 120 90 39 60
        E 0 90 3d 60
        E 0 90 49 60
        E 0 90 55 60
        E 0 90 61 60
        E 480 80 3d 00
        E 0 80 49 00
        E 360 80 55 00
        E 0 80 61 00
        E 120 90 3c 60
        E 0 90 48 60
        E 0 90 54 60
        E 0 90 60 60
        E 480 80 3c 00
        E 0 80 48 00
        E 360 80 54 00
        E 0 80 60 00
        E 120 90 3e 60
        E 0 90 4a 60
        E 0 90 56 60
        E 0 90 62 60
        E 480 80 3e 00
        E 0 80 4a 00
        E 360 80 56 00
        E 0 80 62 00
        E 120 90 3f 60
        E 0 90 4b 60
        E 0 90 57 60
        E 0 90 63 60
        E 480 80 3f 00
        E 0 80 4b 00
        E 360 80 39 00
        E 0 80 57 00
        E 0 80 63 00
        E 120 90 34 60
        E 0 90 3e 60
        E 0 90 4a 60
        E 0 90 56 60
        E 0 90 62 60
        E 0 90 74 60
        E 120 80 3e 00
        E 0 80 4a 00
        E 0 80 56 00
        E 0 80 62 00
        E 600 90 56 60
        E 0 90 62 60
        E 120 80 56 00
        E 0 80 62 00
        E 120 90 3d 60
        E 0 90 49 60
        E 0 90 55 60
        E 0 90 61 60
        E 720 80 3d 00
        E 0 80 49 00
        E 120 80 55 00
        E 0 80 61 00
        E 360 90 4b 60
        E 0 90 57 60
        E 0 90 63 60
        E 120 80 4b 00
        E 0 80 57 00
        E 0 80 63 00
        E 480 80 34 00
        E 120 90 32 60
        E 0 90 3c 60
        E 0 90 48 60
        E 0 90 54 60
        E 0 90 60 60
        E 120 80 3c 00
        E 0 80 48 00
        E 0 80 54 00
        E 0 80 60 00
        E 360 90 49 60
        E 0 90 55 60
        E 0 90 61 60
        E 120 80 49 00
        E 0 80 55 00
        E 0 80 61 00
        E 240 80 32 00
        E 120 90 34 60
        E 0 90 3e 60
        E 0 90 4a 60
        E 0 90 56 60
        E 0 90 62 60
        E 120 80 74 00
        E 0 80 3e 00
        E 0 80 4a 00
        E 0 80 56 00
        E 0 80 62 00
        E 600 90 56 60
        E 0 90 62 60
        E 120 80 56 00
        E 0 80 62 00
        E 120 90 3d 60
        E 0 90 49 60
        E 0 90 55 60
        E 0 90 61 60
        E 720 80 3d 00
        E 0 80 49 00
        E 120 80 55 00
        E 0 80 61 00
        E 360 90 4b 60
        E 0 90 57 60
        E 0 90 63 60
        E 120 80 4b 00
        E 0 80 57 00
        E 0 80 63 00
        E 480 80 34 00
        E 120 90 32 60
        E 0 90 3c 60
        E 0 90 48 60
        E 0 90 54 60
        E 0 90 60 60
        E 120 80 3c 00
        E 0 80 48 00
        E 0 80 54 00
        E 0 80 60 00
        E 360 90 49 60
        E 0 90 55 60
        E 0 90 61 60
        E 120 80 49 00
        E 0 80 55 00
        E 0 80 61 00
        E 240 80 32 00
        E 120 90 34 60
        E 0 90 3e 60
        E 0 90 4a 60
        E 0 90 56 60
        E 0 90 62 60
        E 120 80 3e 00
        E 0 80 4a 00
        E 0 80 56 00
        E 0 80 62 00
        E 600 90 56 60
        E 0 90 62 60
        E 120 80 56 00
        E 0 80 62 00
        E 120 90 3d 60
        E 0 90 49 60
        E 0 90 55 60
        E 0 90 61 60
        E 720 80 3d 00
        E 0 80 49 00
        E 120 80 55 00
        E 0 80 61 00
        E 360 90 4b 60
        E 0 90 57 60
        E 0 90 63 60
        E 120 80 4b 00
        E 0 80 57 00
        E 0 80 63 00
        E 480 80 34 00
        E 120 90 32 60
        E 0 90 3c 60
        E 0 90 48 60
        E 0 90 54 60
        E 0 90 60 60
        E 120 80 3c 00
        E 0 80 48 00
        E 0 80 54 00
        E 0 80 60 00
        E 360 90 49 60
        E 0 90 55 60
        E 0 90 61 60
        E 120 80 49 00
        E 0 80 55 00
        E 0 80 61 00
        E 240 80 32 00
        E 120 90 34 60
        E 0 90 3e 60
        E 0 90 4a 60
        E 0 90 56 60
        E 0 90 62 60
        E 120 80 3e 00
        E 0 80 4a 00
        E 0 80 56 00
        E 0 80 62 00
        E 600 90 56 60
        E 0 90 62 60
        E 120 80 56 00
        E 0 80 62 00
        E 120 90 3d 60
        E 0 90 49 60
        E 0 90 55 60
        E 0 90 61 60
        E 720 80 3d 00
        E 0 80 49 00
        E 120 80 55 00
        E 0 80 61 00
        E 360 90 4b 60
        E 0 90 57 60
        E 0 90 63 60
        E 120 80 4b 00
        E 0 80 57 00
        E 0 80 63 00
        E 480 80 34 00
        E 120 90 32 60
        E 0 90 3c 60
        E 0 90 48 60
        E 0 90 54 60
        E 0 90 60 60
        E 120 80 3c 00
        E 0 80 48 00
        E 0 80 54 00
        E 0 80 60 00
        E 360 90 49 60
        E 0 90 55 60
        E 0 90 61 60
        E 120 80 49 00
        E 0 80 55 00
        E 0 80 61 00
        E 240 80 32 00
        E 120 90 34 60
        E 0 90 3e 60
        E 0 90 4a 60
        E 0 90 56 60
        E 0 90 62 60
        E 120 80 3e 00
        E 0 80 4a 00
        E 0 80 56 00
        E 0 80 62 00
        E 600 90 56 60
        E 0 90 62 60
        E 120 80 56 00
        E 0 80 62 00
        E 120 90 3d 60
        E 0 90 49 60
        E 0 90 55 60
        E 0 90 61 60
        E 720 80 3d 00
        E 0 80 49 00
        E 120 80 55 00
        E 0 80 61 00
        E 360 90 4b 60
        E 0 90 57 60
        E 0 90 63 60
        E 120 80 4b 00
        E 0 80 57 00
        E 0 80 63 00
        E 480 80 34 00
        E 120 90 32 60
        E 0 90 3c 60
        E 0 90 48 60
        E 0 90 54 60
        E 0 90 60 60
        E 120 80 3c 00
        E 0 80 48 00
        E 0 80 54 00
        E 0 80 60 00
        E 360 90 49 60
        E 0 90 55 60
        E 0 90 61 60
        E 120 80 49 00
        E 0 80 55 00
        E 0 80 61 00
        E 240 80 32 00
        E 120 90 34 60
        E 0 90 3e 60
        E 0 90 4a 60
        E 0 90 56 60
        E 0 90 62 60
        E 120 80 3e 00
        E 0 80 4a 00
        E 0 80 56 00
        E 0 80 62 00
        E 600 90 56 60
        E 0 90 62 60
        E 120 80 56 00
        E 0 80 62 00
        E 120 90 3d 60
        E 0 90 49 60
        E 0 90 55 60
        E 0 90 61 60
        E 720 80 3d 00
        E 0 80 49 00
        E 120 80 55 00
        E 0 80 61 00
        E 360 90 4b 60
        E 0 90 57 60
        E 0 90 63 60
        E 120 80 4b 00
        E 0 80 57 00
        E 0 80 63 00
        E 480 80 34 00
        E 120 90 32 60
        E 0 90 3c 60
        E 0 90 48 60
        E 0 90 54 60
        E 0 90 60 60
        E 120 80 3c 00
        E 0 80 48 00
        E 0 80 54 00
        E 0 80 60 00
        E 360 90 49 60
        E 0 90 55 60
        E 0 90 61 60
        E 120 80 49 00
        E 0 80 55 00
        E 0 80 61 00
        E 240 80 32 00
        E 120 90 34 60
        E 0 90 3e 60
        E 0 90 4a 60
        E 0 90 56 60
        E 0 90 62 60
        E 0 90 74 60
        E 120 80 3e 00
        E 0 80 4a 00
        E 0 80 56 00
        E 0 80 62 00
        E 600 90 56 60
        E 0 90 62 60
        E 120 80 56 00
        E 0 80 62 00
        E 120 90 3d 60
        E 0 90 49 60
        E 0 90 55 60
        E 0 90 61 60
        E 720 80 3d 00
        E 0 80 49 00
        E 120 80 55 00
        E 0 80 61 00
        E 360 90 4b 60
        E 0 90 57 60
        E 0 90 63 60
        E 120 80 4b 00
        E 0 80 57 00
        E 0 80 63 00
        E 480 80 34 00
        E 120 90 32 60
        E 0 90 3c 60
        E 0 90 48 60
        E 0 90 54 60
        E 0 90 60 60
        E 120 80 3c 00
        E 0 80 48 00
        E 0 80 54 00
        E 0 80 60 00
        E 360 90 49 60
        E 0 90 55 60
        E 0 90 61 60
        E 120 80 49 00
        E 0 80 55 00
        E 0 80 61 00
        E 240 80 32 00
        E 120 90 34 60
        E 0 90 3e 60
        E 0 90 4a 60
        E 0 90 56 60
        E 0 90 62 60
        E 120 80 74 00
        E 0 80 3e 00
        E 0 80 4a 00
        E 0 80 56 00
        E 0 80 62 00
        E 600 90 56 60
        E 0 90 62 60
        E 120 80 56 00
        E 0 80 62 00
        E 120 90 3d 60
        E 0 90 49 60
        E 0 90 55 60
        E 0 90 61 60
        E 720 80 3d 00
        E 0 80 49 00
        E 120 80 55 00
        E 0 80 61 00
        E 360 90 4b 60
        E 0 90 57 60
        E 0 90 63 60
        E 120 80 4b 00
        E 0 80 57 00
        E 0 80 63 00
        E 480 80 34 00
        E 120 90 32 60
        E 0 90 3c 60
        E 0 90 48 60
        E 0 90 54 60
        E 0 90 60 60
        E 120 80 3c 00
        E 0 80 48 00
        E 0 80 54 00
        E 0 80 60 00
        E 360 90 49 60
        E 0 90 55 60
        E 0 90 61 60
        E 120 80 49 00
        E 0 80 55 00
        E 0 80 61 00
        E 240 80 32 00
        E 120 90 34 60
        E 0 90 3e 60
        E 0 90 4a 60
        E 0 90 56 60
        E 0 90 62 60
        E 120 80 3e 00
        E 0 80 4a 00
        E 0 80 56 00
        E 0 80 62 00
        E 600 90 56 60
        E 0 90 62 60
        E 120 80 56 00
        E 0 80 62 00
        E 120 90 3d 60
        E 0 90 49 60
        E 0 90 55 60
        E 0 90 61 60
        E 720 80 3d 00
        E 0 80 49 00
        E 120 80 55 00
        E 0 80 61 00
        E 360 90 4b 60
        E 0 90 57 60
        E 0 90 63 60
        E 120 80 4b 00
        E 0 80 57 00
        E 0 80 63 00
        E 480 80 34 00
        E 120 90 32 60
        E 0 90 3c 60
        E 0 90 48 60
        E 0 90 54 60
        E 0 90 60 60
        E 120 80 3c 00
        E 0 80 48 00
        E 0 80 54 00
        E 0 80 60 00
        E 360 90 49 60
        E 0 90 55 60
        E 0 90 61 60
        E 120 80 49 00
        E 0 80 55 00
        E 0 80 61 00
        E 240 80 32 00
        E 120 90 34 60
        E 0 90 3e 60
        E 0 90 4a 60
        E 0 90 56 60
        E 0 90 62 60
        E 120 80 3e 00
        E 0 80 4a 00
        E 0 80 56 00
        E 0 80 62 00
        E 600 90 56 60
        E 0 90 62 60
        E 120 80 56 00
        E 0 80 62 00
        E 120 90 3d 60
        E 0 90 49 60
        E 0 90 55 60
        E 0 90 61 60
        E 720 80 3d 00
        E 0 80 49 00
        E 120 80 55 00
        E 0 80 61 00
        E 360 90 4b 60
        E 0 90 57 60
        E 0 90 63 60
        E 120 80 4b 00
        E 0 80 57 00
        E 0 80 63 00
        E 480 80 34 00
        E 120 90 32 60
        E 0 90 3c 60
        E 0 90 48 60
        E 0 90 54 60
        E 0 90 60 60
        E 120 80 3c 00
        E 0 80 48 00
        E 0 80 54 00
        E 0 80 60 00
        E 360 90 49 60
        E 0 90 55 60
        E 0 90 61 60
        E 120 80 49 00
        E 0 80 55 00
        E 0 80 61 00
        E 240 80 32 00
        E 120 90 34 60
        E 0 90 3e 60
        E 0 90 4a 60
        E 0 90 56 60
        E 0 90 62 60
        E 120 80 3e 00
        E 0 80 4a 00
        E 0 80 56 00
        E 0 80 62 00
        E 600 90 56 60
        E 0 90 62 60
        E 120 80 56 00
        E 0 80 62 00
        E 120 90 3d 60
        E 0 90 49 60
        E 0 90 55 60
        E 0 90 61 60
        E 720 80 3d 00
        E 0 80 49 00
        E 120 80 55 00
        E 0 80 61 00
        E 360 90 4b 60
        E 0 90 57 60
        E 0 90 63 60
        E 120 80 4b 00
        E 0 80 57 00
        E 0 80 63 00
        E 480 80 34 00
        E 120 90 32 60
        E 0 90 3c 60
        E 0 90 48 60
        E 0 90 54 60
        E 0 90 60 60
        E 120 80 3c 00
        E 0 80 48 00
        E 0 80 54 00
        E 0 80 60 00
        E 360 90 49 60
        E 0 90 55 60
        E 0 90 61 60
        E 120 80 49 00
        E 0 80 55 00
        E 0 80 61 00
        E 240 80 32 00
        E 120 90 34 60
        E 0 90 3e 60
        E 0 90 4a 60
        E 0 90 56 60
        E 0 90 62 60
        E 0 90 74 60
        E 120 80 3e 00
        E 0 80 4a 00
        E 0 80 56 00
        E 0 80 62 00
        E 600 90 56 60
        E 0 90 62 60
        E 120 80 56 00
        E 0 80 62 00
        E 120 90 3d 60
        E 0 90 49 60
        E 0 90 55 60
        E 0 90 61 60
        E 720 80 3d 00
        E 0 80 49 00
        E 120 80 55 00
        E 0 80 61 00
        E 360 90 4b 60
        E 0 90 57 60
        E 0 90 63 60
        E 120 80 4b 00
        E 0 80 57 00
        E 0 80 63 00
        E 480 80 34 00
        E 120 90 32 60
        E 0 90 3c 60
        E 0 90 48 60
        E 0 90 54 60
        E 0 90 60 60
        E 120 80 3c 00
        E 0 80 48 00
        E 0 80 54 00
        E 0 80 60 00
        E 360 90 49 60
        E 0 90 55 60
        E 0 90 61 60
        E 120 80 49 00
        E 0 80 55 00
        E 0 80 61 00
        E 360 80 74 00
        E 0 80 32 00
        E 0 90 37 60
        E 0 90 40 60
        E 0 90 4c 60
        E 0 90 58 60
        E 0 90 64 60
        E 1440 80 40 00
        E 0 80 4c 00
        E 360 80 58 00
        E 0 80 64 00
        E 120 90 3f 60
        E 0 90 4b 60
        E 0 90 57 60
        E 0 90 63 60
        E 1440 80 3f 00
        E 0 80 4b 00
        E 360 80 37 00
        E 0 80 57 00
        E 0 80 63 00
        E 120 90 39 60
        E 0 90 3d 60
        E 0 90 49 60
        E 0 90 55 60
        E 0 90 61 60
        E 480 80 3d 00
        E 0 80 49 00
        E 360 80 55 00
        E 0 80 61 00
        E 120 90 3c 60
        E 0 90 48 60
        E 0 90 54 60
        E 0 90 60 60
        E 480 80 3c 00
        E 0 80 48 00
        E 360 80 54 00
        E 0 80 60 00
        E 120 90 3e 60
        E 0 90 4a 60
        E 0 90 56 60
        E 0 90 62 60
        E 480 80 3e 00
        E 0 80 4a 00
        E 360 80 56 00
        E 0 80 62 00
        E 120 90 3f 60
        E 0 90 4b 60
        E 0 90 57 60
        E 0 90 63 60
        E 480 80 3f 00
        E 0 80 4b 00
        E 360 80 39 00
        E 0 80 57 00
        E 0 80 63 00
        E 120 90 37 60
        E 0 90 40 60
        E 0 90 4c 60
        E 0 90 58 60
        E 0 90 64 60
        E 1440 80 40 00
        E 0 80 4c 00
        E 360 80 58 00
        E 0 80 64 00
        E 120 90 3f 60
        E 0 90 4b 60
        E 0 90 57 60
        E 0 90 63 60
        E 1440 80 3f 00
        E 0 80 4b 00
        E 360 80 37 00
        E 0 80 57 00
        E 0 80 63 00
        E 120 90 39 60
        E 0 90 3d 60
        E 0 90 49 60
        E 0 90 55 60
        E 0 90 61 60
        E 480 80 3d 00
        E 0 80 49 00
        E 360 80 55 00
        E 0 80 61 00
        E 120 90 3c 60
        E 0 90 48 60
        E 0 90 54 60
        E 0 90 60 60
        E 480 80 3c 00
        E 0 80 48 00
        E 360 80 54 00
        E 0 80 60 00
        E 120 90 3e 60
        E 0 90 4a 60
        E 0 90 56 60
        E 0 90 62 60
        E 480 80 3e 00
        E 0 80 4a 00
        E 360 80 56 00
        E 0 80 62 00
        E 120 90 3f 60
        E 0 90 4b 60
        E 0 90 57 60
        E 0 90 63 60
        E 480 80 3f 00
        E 0 80 4b 00
        E 360 80 39 00
        E 0 80 57 00
        E 0 80 63 00
        E 120 90 34 60
        E 0 90 3e 60
        E 0 90 4a 60
        E 0 90 56 60
        E 0 90 62 60
        E 120 80 3e 00
        E 0 80 4a 00
        E 0 80 56 00
        E 0 80 62 00
        E 600 90 56 60
        E 0 90 62 60
        E 120 80 56 00
        E 0 80 62 00
        E 120 90 3d 60
        E 0 90 49 60
        E 0 90 55 60
        E 0 90 61 60
        E 720 80 3d 00
        E 0 80 49 00
        E 120 80 55 00
        E 0 80 61 00
        E 360 90 4b 60
        E 0 90 57 60
        E 0 90 63 60
        E 120 80 4b 00
        E 0 80 57 00
        E 0 80 63 00
        E 480 80 34 00
        E 120 90 32 60
        E 0 90 3c 60
        E 0 90 48 60
        E 0 90 54 60
        E 0 90 60 60
        E 120 80 3c 00
        E 0 80 48 00
        E 0 80 54 00
        E 0 80 60 00
        E 360 90 49 60
        E 0 90 55 60
        E 0 90 61 60
        E 120 80 49 00
        E 0 80 55 00
        E 0 80 61 00
        E 240 80 32 00
        E 120 90 34 60
        E 0 90 3e 60
        E 0 90 4a 60
        E 0 90 56 60
        E 0 90 62 60
        E 120 80 3e 00
        E 0 80 4a 00
        E 0 80 56 00
        E 0 80 62 00
        E 600 90 56 60
        E 0 90 62 60
        E 120 80 56 00
        E 0 80 62 00
        E 120 90 3d 60
        E 0 90 49 60
        E 0 90 55 60
        E 0 90 61 60
        E 720 80 3d 00
        E 0 80 49 00
        E 120 80 55 00
        E 0 80 61 00
        E 360 90 4b 60
        E 0 90 57 60
        E 0 90 63 60
        E 120 80 4b 00
        E 0 80 57 00
        E 0 80 63 00
        E 480 80 34 00
        E 120 90 32 60
        E 0 90 3c 60
        E 0 90 48 60
        E 0 90 54 60
        E 0 90 60 60
        E 120 80 3c 00
        E 0 80 48 00
        E 0 80 54 00
        E 0 80 60 00
        E 360 90 49 60
        E 0 90 55 60
        E 0 90 61 60
        E 120 80 49 00
        E 0 80 55 00
        E 0 80 61 00
        E 240 80 32 00
        E 120 90 34 60
        E 0 90 3e 60
        E 0 90 4a 60
        E 0 90 56 60
        E 0 90 62 60
        E 120 80 3e 00
        E 0 80 4a 00
        E 0 80 56 00
        E 0 80 62 00
        E 600 90 56 60
        E 0 90 62 60
        E 120 80 56 00
        E 0 80 62 00
        E 120 90 3d 60
        E 0 90 49 60
        E 0 90 55 60
        E 0 90 61 60
        E 720 80 3d 00
        E 0 80 49 00
        E 120 80 55 00
        E 0 80 61 00
        E 360 90 4b 60
        E 0 90 57 60
        E 0 90 63 60
        E 120 80 4b 00
        E 0 80 57 00
        E 0 80 63 00
        E 480 80 34 00
        E 120 90 32 60
        E 0 90 3c 60
        E 0 90 48 60
        E 0 90 54 60
        E 0 90 60 60
        E 120 80 3c 00
        E 0 80 48 00
        E 0 80 54 00
        E 0 80 60 00
        E 360 90 49 60
        E 0 90 55 60
        E 0 90 61 60
        E 120 80 49 00
        E 0 80 55 00
        E 0 80 61 00
        E 240 80 32 00
        E 120 90 34 60
        E 0 90 3e 60
        E 0 90 4a 60
        E 0 90 56 60
        E 0 90 62 60
        E 120 80 3e 00
        E 0 80 4a 00
        E 0 80 56 00
        E 0 80 62 00
        E 600 90 56 60
        E 0 90 62 60
        E 120 80 56 00
        E 0 80 62 00
        E 120 90 3d 60
        E 0 90 49 60
        E 0 90 55 60
        E 0 90 61 60
        E 720 80 3d 00
        E 0 80 49 00
        E 120 80 55 00
        E 0 80 61 00
        E 360 90 4b 60
        E 0 90 57 60
        E 0 90 63 60
        E 120 80 4b 00
        E 0 80 57 00
        E 0 80 63 00
        E 480 80 34 00
        E 120 90 32 60
        E 0 90 3c 60
        E 0 90 48 60
        E 0 90 54 60
        E 0 90 60 60
        E 120 80 3c 00
        E 0 80 48 00
        E 0 80 54 00
        E 0 80 60 00
        E 360 90 49 60
        E 0 90 55 60
        E 0 90 61 60
        E 120 80 49 00
        E 0 80 55 00
        E 0 80 61 00
        E 240 80 32 00
        E 120 90 34 60
        E 0 90 3e 60
        E 0 90 4a 60
        E 0 90 56 60
        E 0 90 62 60
        E 120 80 3e 00
        E 0 80 4a 00
        E 0 80 56 00
        E 0 80 62 00
        E 600 90 56 60
        E 0 90 62 60
        E 120 80 56 00
        E 0 80 62 00
        E 120 90 3d 60
        E 0 90 49 60
        E 0 90 55 60
        E 0 90 61 60
        E 720 80 3d 00
        E 0 80 49 00
        E 120 80 55 00
        E 0 80 61 00
        E 360 90 4b 60
        E 0 90 57 60
        E 0 90 63 60
        E 120 80 4b 00
        E 0 80 57 00
        E 0 80 63 00
        E 480 80 34 00
        E 120 90 32 60
        E 0 90 3c 60
        E 0 90 48 60
        E 0 90 54 60
        E 0 90 60 60
        E 120 80 3c 00
        E 0 80 48 00
        E 0 80 54 00
        E 0 80 60 00
        E 360 90 49 60
        E 0 90 55 60
        E 0 90 61 60
        E 120 80 49 00
        E 0 80 55 00
        E 0 80 61 00
        E 240 80 32 00
        E 120 90 34 60
        E 0 90 3e 60
        E 0 90 4a 60
        E 0 90 56 60
        E 0 90 62 60
        E 120 80 3e 00
        E 0 80 4a 00
        E 0 80 56 00
        E 0 80 62 00
        E 600 90 56 60
        E 0 90 62 60
        E 120 80 56 00
        E 0 80 62 00
        E 120 90 3d 60
        E 0 90 49 60
        E 0 90 55 60
        E 0 90 61 60
        E 720 80 3d 00
        E 0 80 49 00
        E 120 80 55 00
        E 0 80 61 00
        E 360 90 4b 60
        E 0 90 57 60
        E 0 90 63 60
        E 120 80 4b 00
        E 0 80 57 00
        E 0 80 63 00
        E 480 80 34 00
        E 120 90 32 60
        E 0 90 3c 60
        E 0 90 48 60
        E 0 90 54 60
        E 0 90 60 60
        E 120 80 3c 00
        E 0 80 48 00
        E 0 80 54 00
        E 0 80 60 00
        E 360 90 49 60
        E 0 90 55 60
        E 0 90 61 60
        E 120 80 49 00
        E 0 80 55 00
        E 0 80 61 00
        E 240 80 32 00
        E 120 90 34 60
        E 0 90 3e 60
        E 0 90 4a 60
        E 0 90 56 60
        E 0 90 62 60
        e 0 90 74 60
        E 120 80 3e 00
        E 0 80 4a 00
        E 0 80 56 00
        E 0 80 62 00
        E 600 90 56 60
        E 0 90 62 60
        E 120 80 56 00
        E 0 80 62 00
        E 120 90 3d 60
        E 0 90 49 60
        E 0 90 55 60
        E 0 90 61 60
        E 720 80 3d 00
        E 0 80 49 00
        E 120 80 55 00
        E 0 80 61 00
        E 360 90 4b 60
        E 0 90 57 60
        E 0 90 63 60
        E 120 80 4b 00
        E 0 80 57 00
        E 0 80 63 00
        E 480 80 34 00
        E 120 90 32 60
        E 0 90 3c 60
        E 0 90 48 60
        E 0 90 54 60
        E 0 90 60 60
        E 120 80 3c 00
        E 0 80 48 00
        E 0 80 54 00
        E 0 80 60 00
        E 360 90 49 60
        E 0 90 55 60
        E 0 90 61 60
        E 120 80 49 00
        E 0 80 55 00
        E 0 80 61 00
        E 240 80 32 00
        E 120 90 34 60
        E 0 90 3e 60
        E 0 90 4a 60
        E 0 90 56 60
        E 0 90 62 60
        e 120 80 74 00
        E 0 80 3e 00
        E 0 80 4a 00
        E 0 80 56 00
        E 0 80 62 00
        E 600 90 56 60
        E 0 90 62 60
        E 120 80 56 00
        E 0 80 62 00
        E 120 90 3d 60
        E 0 90 49 60
        E 0 90 55 60
        E 0 90 61 60
        E 720 80 3d 00
        E 0 80 49 00
        E 120 80 55 00
        E 0 80 61 00
        E 360 90 4b 60
        E 0 90 57 60
        E 0 90 63 60
        E 120 80 4b 00
        E 0 80 57 00
        E 0 80 63 00
        E 480 80 34 00
        E 120 90 32 60
        E 0 90 3c 60
        E 0 90 48 60
        E 0 90 54 60
        E 0 90 60 60
        E 120 80 3c 00
        E 0 80 48 00
        E 0 80 54 00
        E 0 80 60 00
        E 360 90 49 60
        E 0 90 55 60
        E 0 90 61 60
        E 120 80 49 00
        E 0 80 55 00
        E 0 80 61 00
        E 240 80 32 00
        E 120 90 34 60
        E 0 90 3e 60
        E 0 90 4a 60
        E 0 90 56 60
        E 0 90 62 60
        E 120 80 3e 00
        E 0 80 4a 00
        E 0 80 56 00
        E 0 80 62 00
        E 600 90 56 60
        E 0 90 62 60
        E 120 80 56 00
        E 0 80 62 00
        E 120 90 3d 60
        E 0 90 49 60
        E 0 90 55 60
        E 0 90 61 60
        E 720 80 3d 00
        E 0 80 49 00
        E 120 80 55 00
        E 0 80 61 00
        E 360 90 4b 60
        E 0 90 57 60
        E 0 90 63 60
        E 120 80 4b 00
        E 0 80 57 00
        E 0 80 63 00
        E 480 80 34 00
        E 120 90 32 60
        E 0 90 3c 60
        E 0 90 48 60
        E 0 90 54 60
        E 0 90 60 60
        E 120 80 3c 00
        E 0 80 48 00
        E 0 80 54 00
        E 0 80 60 00
        E 360 90 49 60
        E 0 90 55 60
        E 0 90 61 60
        E 120 80 49 00
        E 0 80 55 00
        E 0 80 61 00
        E 240 80 32 00
        E 120 90 34 60
        E 0 90 3e 60
        E 0 90 4a 60
        E 0 90 56 60
        E 0 90 62 60
        E 120 80 3e 00
        E 0 80 4a 00
        E 0 80 56 00
        E 0 80 62 00
        E 600 90 56 60
        E 0 90 62 60
        E 120 80 56 00
        E 0 80 62 00
        E 120 90 3d 60
        E 0 90 49 60
        E 0 90 55 60
        E 0 90 61 60
        E 720 80 3d 00
        E 0 80 49 00
        E 120 80 55 00
        E 0 80 61 00
        E 360 90 4b 60
        E 0 90 57 60
        E 0 90 63 60
        E 120 80 4b 00
        E 0 80 57 00
        E 0 80 63 00
        E 480 80 34 00
        E 120 90 32 60
        E 0 90 3c 60
        E 0 90 48 60
        E 0 90 54 60
        E 0 90 60 60
        E 120 80 3c 00
        E 0 80 48 00
        E 0 80 54 00
        E 0 80 60 00
        E 360 90 49 60
        E 0 90 55 60
        E 0 90 61 60
        E 120 80 49 00
        E 0 80 55 00
        E 0 80 61 00
        E 240 80 32 00
        E 120 90 34 60
        E 0 90 3e 60
        E 0 90 4a 60
        E 0 90 56 60
        E 0 90 62 60
        E 120 80 3e 00
        E 0 80 4a 00
        E 0 80 56 00
        E 0 80 62 00
        E 600 90 56 60
        E 0 90 62 60
        E 120 80 56 00
        E 0 80 62 00
        E 120 90 3d 60
        E 0 90 49 60
        E 0 90 55 60
        E 0 90 61 60
        E 720 80 3d 00
        E 0 80 49 00
        E 120 80 55 00
        E 0 80 61 00
        E 360 90 4b 60
        E 0 90 57 60
        E 0 90 63 60
        E 120 80 4b 00
        E 0 80 57 00
        E 0 80 63 00
        E 480 80 34 00
        E 120 90 32 60
        E 0 90 3c 60
        E 0 90 48 60
        E 0 90 54 60
        E 0 90 60 60
        E 120 80 3c 00
        E 0 80 48 00
        E 0 80 54 00
        E 0 80 60 00
        E 360 90 49 60
        E 0 90 55 60
        E 0 90 61 60
        E 120 80 49 00
        E 0 80 55 00
        E 0 80 61 00
        E 240 80 32 00
        E 120 90 34 60
        E 0 90 3e 60
        E 0 90 4a 60
        E 0 90 56 60
        E 0 90 62 60
        E 120 80 3e 00
        E 0 80 4a 00
        E 0 80 56 00
        E 0 80 62 00
        E 600 90 56 60
        E 0 90 62 60
        E 120 80 56 00
        E 0 80 62 00
        E 120 90 3d 60
        E 0 90 49 60
        E 0 90 55 60
        E 0 90 61 60
        E 720 80 3d 00
        E 0 80 49 00
        E 120 80 55 00
        E 0 80 61 00
        E 360 90 4b 60
        E 0 90 57 60
        E 0 90 63 60
        E 120 80 4b 00
        E 0 80 57 00
        E 0 80 63 00
        E 480 80 34 00
        E 120 90 32 60
        E 0 90 3c 60
        E 0 90 48 60
        E 0 90 54 60
        E 0 90 60 60
        E 120 80 3c 00
        E 0 80 48 00
        E 0 80 54 00
        E 0 80 60 00
        E 360 90 49 60
        E 0 90 55 60
        E 0 90 61 60
        E 120 80 49 00
        E 0 80 55 00
        E 0 80 61 00
        E 240 80 32 00
        E 120 90 37 60
        E 0 90 40 60
        E 0 90 4c 60
        E 0 90 58 60
        E 0 90 64 60
        E 1440 80 40 00
        E 0 80 4c 00
        E 360 80 58 00
        E 0 80 64 00
        E 120 90 3f 60
        E 0 90 4b 60
        E 0 90 57 60
        E 0 90 63 60
        E 1440 80 3f 00
        E 0 80 4b 00
        E 360 80 37 00
        E 0 80 57 00
        E 0 80 63 00
        E 120 90 39 60
        E 0 90 3d 60
        E 0 90 49 60
        E 0 90 55 60
        E 0 90 61 60
        E 480 80 3d 00
        E 0 80 49 00
        E 360 80 55 00
        E 0 80 61 00
        E 120 90 3c 60
        E 0 90 48 60
        E 0 90 54 60
        E 0 90 60 60
        E 480 80 3c 00
        E 0 80 48 00
        E 360 80 54 00
        E 0 80 60 00
        E 120 90 3e 60
        E 0 90 4a 60
        E 0 90 56 60
        E 0 90 62 60
        E 480 80 3e 00
        E 0 80 4a 00
        E 360 80 56 00
        E 0 80 62 00
        E 120 90 3f 60
        E 0 90 4b 60
        E 0 90 57 60
        E 0 90 63 60
        E 480 80 3f 00
        E 0 80 4b 00
        E 360 80 39 00
        E 0 80 57 00
        E 0 80 63 00
        E 120 90 37 60
        E 0 90 40 60
        E 0 90 4c 60
        E 0 90 58 60
        E 0 90 64 60
        E 1440 80 40 00
        E 0 80 4c 00
        E 360 80 58 00
        E 0 80 64 00
        E 120 90 3f 60
        E 0 90 4b 60
        E 0 90 57 60
        E 0 90 63 60
        E 1440 80 3f 00
        E 0 80 4b 00
        E 360 80 37 00
        E 0 80 57 00
        E 0 80 63 00
        E 120 90 39 60
        E 0 90 3d 60
        E 0 90 49 60
        E 0 90 55 60
        E 0 90 61 60
        E 480 80 3d 00
        E 0 80 49 00
        E 360 80 55 00
        E 0 80 61 00
        E 120 90 3c 60
        E 0 90 48 60
        E 0 90 54 60
        E 0 90 60 60
        E 480 80 3c 00
        E 0 80 48 00
        E 360 80 54 00
        E 0 80 60 00
        E 120 90 3e 60
        E 0 90 4a 60
        E 0 90 56 60
        E 0 90 62 60
        E 480 80 3e 00
        E 0 80 4a 00
        E 360 80 56 00
        E 0 80 62 00
        E 120 90 3f 60
        E 0 90 4b 60
        E 0 90 57 60
        E 0 90 63 60
        E 480 80 3f 00
        E 0 80 4b 00
        E 360 80 39 00
        E 0 80 57 00
        E 0 80 63 00
        E 120 90 34 60
        E 0 90 3e 60
        E 0 90 4a 60
        E 0 90 56 60
        E 0 90 62 60
        E 120 80 3e 00
        E 0 80 4a 00
        E 0 80 56 00
        E 0 80 62 00
        E 600 90 56 60
        E 0 90 62 60
        E 120 80 56 00
        E 0 80 62 00
        E 120 90 3d 60
        E 0 90 49 60
        E 0 90 55 60
        E 0 90 61 60
        E 720 80 3d 00
        E 0 80 49 00
        E 120 80 55 00
        E 0 80 61 00
        E 360 90 4b 60
        E 0 90 57 60
        E 0 90 63 60
        E 120 80 4b 00
        E 0 80 57 00
        E 0 80 63 00
        E 480 80 34 00
        E 120 90 32 60
        E 0 90 3c 60
        E 0 90 48 60
        E 0 90 54 60
        E 0 90 60 60
        E 120 80 3c 00
        E 0 80 48 00
        E 0 80 54 00
        E 0 80 60 00
        E 360 90 49 60
        E 0 90 55 60
        E 0 90 61 60
        E 120 80 49 00
        E 0 80 55 00
        E 0 80 61 00
        E 240 80 32 00
        E 120 90 34 60
        E 0 90 3e 60
        E 0 90 4a 60
        E 0 90 56 60
        E 0 90 62 60
        E 120 80 3e 00
        E 0 80 4a 00
        E 0 80 56 00
        E 0 80 62 00
        E 600 90 56 60
        E 0 90 62 60
        E 120 80 56 00
        E 0 80 62 00
        E 120 90 3d 60
        E 0 90 49 60
        E 0 90 55 60
        E 0 90 61 60
        E 720 80 3d 00
        E 0 80 49 00
        E 120 80 55 00
        E 0 80 61 00
        E 360 90 4b 60
        E 0 90 57 60
        E 0 90 63 60
        E 120 80 4b 00
        E 0 80 57 00
        E 0 80 63 00
        E 480 80 34 00
        E 120 90 32 60
        E 0 90 3c 60
        E 0 90 48 60
        E 0 90 54 60
        E 0 90 60 60
        E 120 80 3c 00
        E 0 80 48 00
        E 0 80 54 00
        E 0 80 60 00
        E 360 90 49 60
        E 0 90 55 60
        E 0 90 61 60
        E 120 80 49 00
        E 0 80 55 00
        E 0 80 61 00
        <X 480 0
          /wFbaWRsZV9yZWFsdGltZV0=
        >
        E 840 80 32 00
        E 960 b0 7b 00
        GUID {DF5D35D5-4DA5-44DB-B47F-2E346249A9ED}
        IGNTEMPO 0 120.00000000 4 4
        SRCCOLOR 5
        VELLANE 132 128 128
        COLORMAP "C:\Program Files\REAPER (x64)\Data\color_maps\rockband_guitarbass.png"
        CFGEDITVIEW 27851.443719 100.641573 0 14 0 0 0
        CFGEDIT 1 1 0 1 1 0 1 1 1 1 1 0.25000000 -8 -8 1548 876 0 2 1 1 0.00000000 0 1 0 0 0.500000 0 0 1.000000 64
        KEYSNAP 0 0 "102034050607" 0 "Major"
        EVTFILTER 0 -1 -1 -1 -1 0 1 0 0 -1.00000000 -1.00000000
      >
    >
  >
  <TRACK '{89DE1855-3DA7-493F-B9AD-2D55E3F957DE}'
    NAME "bass"
    PEAKCOL 16576
    BEAT -1
    AUTOMODE 0
    VOLPAN 1.00000000000000 0.00000000000000 -1.00000000000000 -1.00000000000000 1.00000000000000
    MUTESOLO 0 0 0
    IPHASE 0
    ISBUS 2 -1
    BUSCOMP 0 0
    SHOWINMIX 1 0.666700 0.500000 1 0.500000 -1 -1 -1
    FREEMODE 0
    SEL 0
    REC 0 0 0 0 0 0 0
    VU 2
    TRACKHEIGHT 0 0
    INQ 0 0 0 0.5000000000 100 0 0 100
    NCHAN 2
    FX 1
    TRACKID {89DE1855-3DA7-493F-B9AD-2D55E3F957DE}
    PERF 0
    MIDIOUT -1
    MAINSEND 1 0
    <ITEM
      POSITION 0.00000000000000
      SNAPOFFS 0.00000000000000
      LENGTH 126.40843537414966
      LOOP 0
      ALLTAKES 0
      SEL 0
      FADEIN 1 0.000000 0.000000 1 0
      FADEOUT 1 0.000000 0.000000 1 0
      MUTE 0
      IGUID {D6AEC1BB-10B9-42AD-B183-ACC94D33C19A}
      IID 19
      NAME "bass.wav"
      VOLPAN 1.000000 0.000000 1.000000 -1.000000
      SOFFS 0.00000000000000
      PLAYRATE 1.00000000000000 1 0.00000000000000 -1
      CHANMODE 0
      GUID {B5E1DCC6-1B0F-479E-B76D-DBEFA758AE55}
      <SOURCE WAVE
        FILE "wav\bass.wav"
      >
    >
  >
  <TRACK '{71318396-29AE-40A8-9954-53F2E906CE48}'
    NAME "PART GUITAR"
    PEAKCOL 16576
    BEAT -1
    AUTOMODE 0
    VOLPAN 1.00000000000000 0.00000000000000 -1.00000000000000 -1.00000000000000 1.00000000000000
    MUTESOLO 0 0 0
    IPHASE 0
    ISBUS 1 1
    BUSCOMP 0 0
    SHOWINMIX 1 0.666700 0.500000 1 0.500000 -1 -1 -1
    FREEMODE 0
    SEL 0
    REC 0 0 0 0 0 0 0
    VU 2
    TRACKHEIGHT 0 0
    INQ 0 0 0 0.5000000000 100 0 0 100
    NCHAN 2
    FX 1
    TRACKID {71318396-29AE-40A8-9954-53F2E906CE48}
    PERF 0
    MIDIOUT -1
    <MIDINOTENAMES
      0 127 "TRILL MARKER"
      0 126 "TREMOLO MARKER"
      0 125 "---"
      0 124 "BRE"
      0 123 "BRE"
      0 122 "BRE"
      0 121 "BRE"
      0 120 "BRE (use all 5)"
      0 119 "----"
      0 116 "OVERDRIVE"
      0 115 "----"
      0 103 "Solo Marker"
      0 102 "Force HOPO Off"
      0 101 "Force HOPO On"
      0 100 "EXPERT Orange"
      0 99 "EXPERT Blue"
      0 98 "EXPERT Yellow"
      0 97 "EXPERT Red"
      0 96 "EXPERT Green"
      0 95 "----"
      0 90 "Force HOPO Off"
      0 89 "Force HOPO On"
      0 88 "HARD Orange"
      0 87 "HARD Blue"
      0 86 "HARD Yellow"
      0 85 "HARD Red"
      0 84 "HARD Green"
      0 77 "----"
      0 76 "MEDIUM Orange"
      0 75 "MEDIUM Blue"
      0 74 "MEDIUM Yellow"
      0 73 "MEDIUM Red"
      0 72 "MEDIUM Green"
      0 65 "----"
      0 64 "EASY Orange"
      0 63 "EASY Blue"
      0 62 "EASY Yellow"
      0 61 "EASY Red"
      0 60 "EASY Green"
      0 59 "Fret 12"
      0 57 "Fret 11"
      0 56 "Fret 10"
      0 55 "Fret 9"
      0 53 "Fret 8"
      0 52 "Fret 7"
      0 50 "Fret 6"
      0 49 "Fret 5"
      0 47 "Fret 4"
      0 45 "Fret 3"
      0 43 "Fret 2"
      0 40 "Fret 1"
    >
    MAINSEND 1 0
    <FXCHAIN
      WNDRECT 473 544 878 559
      SHOW 0
      LASTSEL 0
      DOCKED 0
      BYPASS 0 0
      <VST "VSTi: RBN Preview (RBN)" "rbprev_vst64.dll" 0 ""
        dnBicu5e7f4AAAAAAgAAAAEAAAAAAAAAAgAAAAAAAAAEAAAAAQAAAA==
        AAAQAAMAqgAAABAAAAA=
      >
      FLOATPOS 0 0 0 0
      FXID {B1F60EF6-BBFC-47B1-AE75-6385DD272BA4}
      WAK 0
    >
    <ITEM
      POSITION 0.00000000000000
      SNAPOFFS 0.00000000000000
      LENGTH 126.40842722848190
      LOOP 0
      ALLTAKES 0
      SEL 0
      FADEIN 1 0.000000 0.000000 1 0
      FADEOUT 1 0.000000 0.000000 1 0
      MUTE 0
      IGUID {13C38B6E-2581-430D-A3C9-405DCBA99B23}
      IID 28
      NAME "PART GUITAR"
      VOLPAN 1.000000 0.000000 1.000000 -1.000000
      SOFFS 0.00000000000000 0.00000000000000
      PLAYRATE 1.00000000000000 1 0.00000000000000 -1
      CHANMODE 0
      GUID {0C7E8548-E14C-4D6E-A408-CE249D84E21D}
      <SOURCE MIDI
        HASDATA 1 480 QN
        POOLEDEVTS {2BE306FB-C110-4BA6-BE64-4E3D1D1EE0DB}
        <X 3840 0
          /wFbcGxheV0=
        >
        E 0 90 3e 60
        E 0 90 4b 60
        E 0 90 58 60
        E 0 90 64 60
        E 480 80 3e 00
        E 0 80 4b 00
        E 360 80 58 00
        E 0 80 64 00
        E 120 90 3d 60
        E 0 90 4a 60
        E 0 90 56 60
        E 0 90 62 60
        E 480 80 3d 00
        E 0 80 4a 00
        E 360 80 56 00
        E 0 80 62 00
        E 120 90 3e 60
        E 0 90 4b 60
        E 0 90 57 60
        E 0 90 63 60
        E 480 80 3e 00
        E 0 80 4b 00
        E 360 80 57 00
        E 0 80 63 00
        E 120 90 3c 60
        E 0 90 48 60
        E 0 90 54 60
        E 0 90 60 60
        E 480 80 3c 00
        E 0 80 48 00
        E 360 80 54 00
        E 0 80 60 00
        E 120 90 3c 60
        E 0 90 48 60
        E 0 90 54 60
        E 0 90 60 60
        E 0 90 74 60
        E 480 80 3c 00
        E 0 80 48 00
        E 360 80 54 00
        E 0 80 60 00
        E 120 90 3d 60
        E 0 90 49 60
        E 0 90 55 60
        E 0 90 61 60
        E 480 80 3d 00
        E 0 80 49 00
        E 360 80 55 00
        E 0 80 61 00
        E 120 90 3e 60
        E 0 90 4b 60
        E 0 90 58 60
        E 0 90 64 60
        E 480 80 3e 00
        E 0 80 4b 00
        E 360 80 58 00
        E 0 80 64 00
        E 120 90 3d 60
        E 0 90 4a 60
        E 0 90 56 60
        E 0 90 62 60
        E 480 80 3d 00
        E 0 80 4a 00
        E 360 80 56 00
        E 0 80 62 00
        E 120 80 74 00
        E 0 90 3e 60
        E 0 90 4b 60
        E 0 90 58 60
        E 0 90 64 60
        E 480 80 3e 00
        E 0 80 4b 00
        E 360 80 58 00
        E 0 80 64 00
        E 120 90 3d 60
        E 0 90 4a 60
        E 0 90 56 60
        E 0 90 62 60
        E 480 80 3d 00
        E 0 80 4a 00
        E 360 80 56 00
        E 0 80 62 00
        E 120 90 3e 60
        E 0 90 4b 60
        E 0 90 57 60
        E 0 90 63 60
        E 480 80 3e 00
        E 0 80 4b 00
        E 360 80 57 00
        E 0 80 63 00
        E 120 90 3c 60
        E 0 90 48 60
        E 0 90 54 60
        E 0 90 60 60
        E 480 80 3c 00
        E 0 80 48 00
        E 360 80 54 00
        E 0 80 60 00
        E 120 90 3c 60
        E 0 90 48 60
        E 0 90 54 60
        E 0 90 60 60
        E 480 80 3c 00
        E 0 80 48 00
        E 360 80 54 00
        E 0 80 60 00
        E 120 90 3d 60
        E 0 90 49 60
        E 0 90 55 60
        E 0 90 61 60
        E 480 80 3d 00
        E 0 80 49 00
        E 360 80 55 00
        E 0 80 61 00
        E 120 90 3e 60
        E 0 90 4b 60
        E 0 90 58 60
        E 0 90 64 60
        E 480 80 3e 00
        E 0 80 4b 00
        E 360 80 58 00
        E 0 80 64 00
        E 120 90 3d 60
        E 0 90 4a 60
        E 0 90 56 60
        E 0 90 62 60
        E 960 80 3d 00
        E 0 80 4a 00
        E 0 80 56 00
        E 0 80 62 00
        <X 480 0
          /wFbaWRsZV0=
        >
        <X 14400 0
          /wFbcGxheV0=
        >
        E 480 90 3e 60
        E 0 90 4b 60
        E 0 90 57 60
        E 0 90 63 60
        E 480 80 3e 00
        E 0 80 4b 00
        E 360 80 57 00
        E 0 80 63 00
        E 120 90 3d 60
        E 0 90 49 60
        E 0 90 55 60
        E 0 90 61 60
        E 480 80 3d 00
        E 0 80 49 00
        E 360 80 55 00
        E 0 80 61 00
        E 120 90 3d 60
        E 0 90 4a 60
        E 0 90 56 60
        E 0 90 62 60
        E 480 80 3d 00
        E 0 80 4a 00
        E 360 80 56 00
        E 0 80 62 00
        E 120 90 3e 60
        E 0 90 4b 60
        E 0 90 58 60
        E 0 90 64 60
        E 480 80 3e 00
        E 0 80 4b 00
        E 360 80 58 00
        E 0 80 64 00
        E 120 90 3c 60
        E 0 90 48 60
        E 0 90 54 60
        E 0 90 60 60
        E 1920 80 3c 00
        E 0 80 48 00
        E 0 80 54 00
        E 0 80 60 00
        E 1920 90 3e 60
        E 0 90 4b 60
        E 0 90 57 60
        E 0 90 63 60
        E 0 90 74 60
        E 480 80 3e 00
        E 0 80 4b 00
        E 360 80 57 00
        E 0 80 63 00
        E 120 90 3d 60
        E 0 90 49 60
        E 0 90 55 60
        E 0 90 61 60
        E 480 80 3d 00
        E 0 80 49 00
        E 360 80 55 00
        E 0 80 61 00
        E 120 90 3d 60
        E 0 90 4a 60
        E 0 90 56 60
        E 0 90 62 60
        E 480 80 3d 00
        E 0 80 4a 00
        E 360 80 56 00
        E 0 80 62 00
        E 120 90 3e 60
        E 0 90 4b 60
        E 0 90 58 60
        E 0 90 64 60
        E 120 80 3e 00
        E 0 80 4b 00
        E 0 80 58 00
        E 0 80 64 00
        E 360 90 4b 60
        E 0 90 57 60
        E 0 90 63 60
        E 120 80 4b 00
        E 0 80 57 00
        E 0 80 63 00
        E 360 90 3d 60
        E 0 90 4a 60
        E 0 90 56 60
        E 0 90 62 60
        E 120 80 74 00
        E 1800 80 3d 00
        E 0 80 4a 00
        E 0 80 56 00
        E 0 80 62 00
        <X 480 0
          /wFbaWRsZV0=
        >
        <X 16320 0
          /wFbcGxheV0=
        >
        E 480 90 3e 60
        E 0 90 4b 60
        E 0 90 58 60
        E 0 90 64 60
        E 480 80 3e 00
        E 0 80 4b 00
        E 360 80 58 00
        E 0 80 64 00
        E 120 90 3d 60
        E 0 90 4a 60
        E 0 90 56 60
        E 0 90 62 60
        E 480 80 3d 00
        E 0 80 4a 00
        E 360 80 56 00
        E 0 80 62 00
        E 120 90 3e 60
        E 0 90 4b 60
        E 0 90 57 60
        E 0 90 63 60
        E 480 80 3e 00
        E 0 80 4b 00
        E 360 80 57 00
        E 0 80 63 00
        E 120 90 3c 60
        E 0 90 48 60
        E 0 90 54 60
        E 0 90 60 60
        E 480 80 3c 00
        E 0 80 48 00
        E 360 80 54 00
        E 0 80 60 00
        E 120 90 3c 60
        E 0 90 48 60
        E 0 90 54 60
        E 0 90 60 60
        E 0 90 74 60
        E 480 80 3c 00
        E 0 80 48 00
        E 360 80 54 00
        E 0 80 60 00
        E 120 90 3d 60
        E 0 90 49 60
        E 0 90 55 60
        E 0 90 61 60
        E 480 80 3d 00
        E 0 80 49 00
        E 360 80 55 00
        E 0 80 61 00
        E 120 90 3e 60
        E 0 90 4b 60
        E 0 90 58 60
        E 0 90 64 60
        E 480 80 3e 00
        E 0 80 4b 00
        E 360 80 58 00
        E 0 80 64 00
        E 120 90 3d 60
        E 0 90 4a 60
        E 0 90 56 60
        E 0 90 62 60
        E 480 80 3d 00
        E 0 80 4a 00
        E 360 80 56 00
        E 0 80 62 00
        E 120 80 74 00
        E 0 90 3e 60
        E 0 90 4b 60
        E 0 90 58 60
        E 0 90 64 60
        E 480 80 3e 00
        E 0 80 4b 00
        E 360 80 58 00
        E 0 80 64 00
        E 120 90 3d 60
        E 0 90 4a 60
        E 0 90 56 60
        E 0 90 62 60
        E 480 80 3d 00
        E 0 80 4a 00
        E 360 80 56 00
        E 0 80 62 00
        E 120 90 3e 60
        E 0 90 4b 60
        E 0 90 57 60
        E 0 90 63 60
        E 480 80 3e 00
        E 0 80 4b 00
        E 360 80 57 00
        E 0 80 63 00
        E 120 90 3c 60
        E 0 90 48 60
        E 0 90 54 60
        E 0 90 60 60
        E 480 80 3c 00
        E 0 80 48 00
        E 360 80 54 00
        E 0 80 60 00
        E 120 90 3c 60
        E 0 90 48 60
        E 0 90 54 60
        E 0 90 60 60
        E 480 80 3c 00
        E 0 80 48 00
        E 360 80 54 00
        E 0 80 60 00
        E 120 90 3d 60
        E 0 90 49 60
        E 0 90 55 60
        E 0 90 61 60
        E 480 80 3d 00
        E 0 80 49 00
        E 360 80 55 00
        E 0 80 61 00
        E 120 90 3e 60
        E 0 90 4b 60
        E 0 90 58 60
        E 0 90 64 60
        E 480 80 3e 00
        E 0 80 4b 00
        E 360 80 58 00
        E 0 80 64 00
        E 120 90 3d 60
        E 0 90 4a 60
        E 0 90 56 60
        E 0 90 62 60
        E 960 80 3d 00
        E 0 80 4a 00
        E 0 80 56 00
        E 0 80 62 00
        <X 480 0
          /wFbaWRsZV0=
        >
        <X 14400 0
          /wFbcGxheV0=
        >
        E 480 90 3e 60
        E 0 90 4b 60
        E 0 90 57 60
        E 0 90 63 60
        E 480 80 3e 00
        E 0 80 4b 00
        E 360 80 57 00
        E 0 80 63 00
        E 120 90 3d 60
        E 0 90 49 60
        E 0 90 55 60
        E 0 90 61 60
        E 480 80 3d 00
        E 0 80 49 00
        E 360 80 55 00
        E 0 80 61 00
        E 120 90 3d 60
        E 0 90 4a 60
        E 0 90 56 60
        E 0 90 62 60
        E 480 80 3d 00
        E 0 80 4a 00
        E 360 80 56 00
        E 0 80 62 00
        E 120 90 3e 60
        E 0 90 4b 60
        E 0 90 58 60
        E 0 90 64 60
        E 480 80 3e 00
        E 0 80 4b 00
        E 360 80 58 00
        E 0 80 64 00
        E 120 90 3c 60
        E 0 90 48 60
        E 0 90 54 60
        E 0 90 60 60
        E 1920 80 3c 00
        E 0 80 48 00
        E 0 80 54 00
        E 0 80 60 00
        E 1920 90 3e 60
        E 0 90 4b 60
        E 0 90 57 60
        E 0 90 63 60
        e 0 90 74 60
        E 480 80 3e 00
        E 0 80 4b 00
        E 360 80 57 00
        E 0 80 63 00
        E 120 90 3d 60
        E 0 90 49 60
        E 0 90 55 60
        E 0 90 61 60
        E 480 80 3d 00
        E 0 80 49 00
        E 360 80 55 00
        E 0 80 61 00
        E 120 90 3d 60
        E 0 90 4a 60
        E 0 90 56 60
        E 0 90 62 60
        E 480 80 3d 00
        E 0 80 4a 00
        E 360 80 56 00
        E 0 80 62 00
        E 120 90 3e 60
        E 0 90 4b 60
        E 0 90 58 60
        E 0 90 64 60
        E 120 80 3e 00
        E 0 80 4b 00
        E 0 80 58 00
        E 0 80 64 00
        E 360 90 4b 60
        E 0 90 57 60
        E 0 90 63 60
        E 120 80 4b 00
        E 0 80 57 00
        E 0 80 63 00
        E 360 90 3d 60
        E 0 90 4a 60
        E 0 90 56 60
        E 0 90 62 60
        e 120 80 74 00
        E 1800 80 3d 00
        E 0 80 4a 00
        E 0 80 56 00
        E 0 80 62 00
        <X 480 0
          /wFbaWRsZV0=
        >
        <X 16320 0
          /wFbcGxheV0=
        >
        E 480 90 3e 60
        E 0 90 4b 60
        E 0 90 58 60
        E 0 90 64 60
        E 480 80 3e 00
        E 0 80 4b 00
        E 360 80 58 00
        E 0 80 64 00
        E 120 90 3d 60
        E 0 90 4a 60
        E 0 90 56 60
        E 0 90 62 60
        E 480 80 3d 00
        E 0 80 4a 00
        E 360 80 56 00
        E 0 80 62 00
        E 120 90 3e 60
        E 0 90 4b 60
        E 0 90 57 60
        E 0 90 63 60
        E 480 80 3e 00
        E 0 80 4b 00
        E 360 80 57 00
        E 0 80 63 00
        E 120 90 3c 60
        E 0 90 48 60
        E 0 90 54 60
        E 0 90 60 60
        E 480 80 3c 00
        E 0 80 48 00
        E 360 80 54 00
        E 0 80 60 00
        E 120 90 3c 60
        E 0 90 48 60
        E 0 90 54 60
        E 0 90 60 60
        E 480 80 3c 00
        E 0 80 48 00
        E 360 80 54 00
        E 0 80 60 00
        E 120 90 3d 60
        E 0 90 49 60
        E 0 90 55 60
        E 0 90 61 60
        E 480 80 3d 00
        E 0 80 49 00
        E 360 80 55 00
        E 0 80 61 00
        E 120 90 3e 60
        E 0 90 4b 60
        E 0 90 58 60
        E 0 90 64 60
        E 480 80 3e 00
        E 0 80 4b 00
        E 360 80 58 00
        E 0 80 64 00
        E 120 90 3d 60
        E 0 90 4a 60
        E 0 90 56 60
        E 0 90 62 60
        E 480 80 3d 00
        E 0 80 4a 00
        E 360 80 56 00
        E 0 80 62 00
        E 120 90 3e 60
        E 0 90 4b 60
        E 0 90 58 60
        E 0 90 64 60
        E 480 80 3e 00
        E 0 80 4b 00
        E 360 80 58 00
        E 0 80 64 00
        E 120 90 3d 60
        E 0 90 4a 60
        E 0 90 56 60
        E 0 90 62 60
        E 480 80 3d 00
        E 0 80 4a 00
        E 360 80 56 00
        E 0 80 62 00
        E 120 90 3e 60
        E 0 90 4b 60
        E 0 90 57 60
        E 0 90 63 60
        E 480 80 3e 00
        E 0 80 4b 00
        E 360 80 57 00
        E 0 80 63 00
        E 120 90 3c 60
        E 0 90 48 60
        E 0 90 54 60
        E 0 90 60 60
        E 480 80 3c 00
        E 0 80 48 00
        E 360 80 54 00
        E 0 80 60 00
        E 120 90 3c 60
        E 0 90 48 60
        E 0 90 54 60
        E 0 90 60 60
        E 480 80 3c 00
        E 0 80 48 00
        E 360 80 54 00
        E 0 80 60 00
        E 120 90 3d 60
        E 0 90 49 60
        E 0 90 55 60
        E 0 90 61 60
        E 480 80 3d 00
        E 0 80 49 00
        E 360 80 55 00
        E 0 80 61 00
        E 120 90 3e 60
        E 0 90 4b 60
        E 0 90 58 60
        E 0 90 64 60
        E 480 80 3e 00
        E 0 80 4b 00
        E 360 80 58 00
        E 0 80 64 00
        E 120 90 3d 60
        E 0 90 4a 60
        E 0 90 56 60
        E 0 90 62 60
        E 960 80 3d 00
        E 0 80 4a 00
        E 0 80 56 00
        E 0 80 62 00
        <X 480 0
          /wFbaWRsZV9yZWFsdGltZV0=
        >
        E 9120 b0 7b 00
        GUID {43E4E1C8-DC64-49F1-A28C-847345B9D439}
        IGNTEMPO 0 120.00000000 4 4
        SRCCOLOR 7
        VELLANE 132 128 128
        COLORMAP "C:\Program Files\REAPER (x64)\Data\color_maps\rockband_guitarbass.png"
        CFGEDITVIEW 3647.877412 89.141789 0 20 0 0 0
        CFGEDIT 1 1 0 1 1 0 1 1 1 1 1 0.25000000 -8 -8 1928 1088 0 2 1 1 0.00000000 0 1 0 0 0.500000 0 0 1.000000 64
        KEYSNAP 0 0 "102034050607" 0 "Major"
        EVTFILTER 0 -1 -1 -1 -1 0 1 0 0 -1.00000000 -1.00000000
      >
    >
  >
  <TRACK '{03BBE637-B3E9-4863-813C-4FF95FC4F723}'
    NAME "guitar"
    PEAKCOL 16576
    BEAT -1
    AUTOMODE 0
    VOLPAN 1.00000000000000 -0.20000000000000 -1.00000000000000 -1.00000000000000 1.00000000000000
    MUTESOLO 0 0 0
    IPHASE 0
    ISBUS 2 -1
    BUSCOMP 0 0
    SHOWINMIX 1 0.666700 0.500000 1 0.500000 -1 -1 -1
    FREEMODE 0
    SEL 0
    REC 0 0 0 0 0 0 0
    VU 2
    TRACKHEIGHT 0 0
    INQ 0 0 0 0.5000000000 100 0 0 100
    NCHAN 2
    FX 1
    TRACKID {03BBE637-B3E9-4863-813C-4FF95FC4F723}
    PERF 0
    MIDIOUT -1
    MAINSEND 1 0
    <ITEM
      POSITION 0.00000000000000
      SNAPOFFS 0.00000000000000
      LENGTH 126.40843537414966
      LOOP 0
      ALLTAKES 0
      SEL 0
      FADEIN 1 0.000000 0.000000 1 0
      FADEOUT 1 0.000000 0.000000 1 0
      MUTE 0
      IGUID {E65E2CCC-9D1B-4AAB-93EE-BCB9A1882B6A}
      IID 20
      NAME "guitar.wav"
      VOLPAN 1.000000 0.000000 1.000000 -1.000000
      SOFFS 0.00000000000000
      PLAYRATE 1.00000000000000 1 0.00000000000000 -1
      CHANMODE 0
      GUID {9590AF0F-DC96-45A8-9645-5BFF39675230}
      <SOURCE WAVE
        FILE "wav\guitar.wav"
      >
    >
  >
  <TRACK '{EB942280-A894-424E-A1A9-834DAF2138A5}'
    NAME "PART KEYS"
    PEAKCOL 16576
    BEAT -1
    AUTOMODE 0
    VOLPAN 1.00000000000000 0.00000000000000 -1.00000000000000 -1.00000000000000 1.00000000000000
    MUTESOLO 0 0 0
    IPHASE 0
    ISBUS 1 1
    BUSCOMP 0 0
    SHOWINMIX 1 0.666700 0.500000 1 0.500000 -1 -1 -1
    FREEMODE 0
    SEL 0
    REC 0 0 0 0 0 0 0
    VU 2
    TRACKHEIGHT 0 0
    INQ 0 0 0 0.5000000000 100 0 0 100
    NCHAN 2
    FX 1
    TRACKID {EB942280-A894-424E-A1A9-834DAF2138A5}
    PERF 0
    MIDIOUT -1
    <MIDINOTENAMES
      0 127 "TRILL MARKER"
      0 125 "---"
      0 124 "BRE"
      0 123 "BRE"
      0 122 "BRE"
      0 121 "BRE"
      0 120 "BRE (use all 5)"
      0 119 "----"
      0 116 "OVERDRIVE"
      0 115 "----"
      0 103 "Solo Marker"
      0 102 "Force HOPO Off"
      0 101 "Force HOPO On"
      0 100 "EXPERT Orange"
      0 99 "EXPERT Blue"
      0 98 "EXPERT Yellow"
      0 97 "EXPERT Red"
      0 96 "EXPERT Green"
      0 95 "----"
      0 90 "Force HOPO Off"
      0 89 "Force HOPO On"
      0 88 "HARD Orange"
      0 87 "HARD Blue"
      0 86 "HARD Yellow"
      0 85 "HARD Red"
      0 84 "HARD Green"
      0 77 "----"
      0 76 "MEDIUM Orange"
      0 75 "MEDIUM Blue"
      0 74 "MEDIUM Yellow"
      0 73 "MEDIUM Red"
      0 72 "MEDIUM Green"
      0 65 "----"
      0 64 "EASY Orange"
      0 63 "EASY Blue"
      0 62 "EASY Yellow"
      0 61 "EASY Red"
      0 60 "EASY Green"
    >
    MAINSEND 1 0
    <FXCHAIN
      WNDRECT 0 43 878 559
      SHOW 0
      LASTSEL 0
      DOCKED 0
      BYPASS 0 0
      <VST "VSTi: RBN Preview (RBN)" "rbprev_vst64.dll" 0 ""
        dnBicu5e7f4AAAAAAgAAAAEAAAAAAAAAAgAAAAAAAAAEAAAAAQAAAA==
        AAAQAAIAqgAAABAAAAA=
      >
      FLOATPOS 0 0 0 0
      FXID {C1FBE69A-4DDB-48DD-BDDF-CF74C10E8DED}
      WAK 0
    >
    <ITEM
      POSITION 0.00000000000000
      SNAPOFFS 0.00000000000000
      LENGTH 126.40842722848190
      LOOP 0
      ALLTAKES 0
      SEL 0
      FADEIN 1 0.000000 0.000000 1 0
      FADEOUT 1 0.000000 0.000000 1 0
      MUTE 0
      IGUID {A9AF364B-F2E5-4432-BA29-D83491C1F89F}
      IID 30
      NAME "PART KEYS"
      VOLPAN 1.000000 0.000000 1.000000 -1.000000
      SOFFS 0.00000000000000 0.00000000000000
      PLAYRATE 1.00000000000000 1 0.00000000000000 -1
      CHANMODE 0
      GUID {24D3FC96-EA05-4234-B63A-BBBA28587755}
      <SOURCE MIDI
        HASDATA 1 480 QN
        POOLEDEVTS {9AB42DE2-146C-45E0-99D0-31C7439A8DC4}
        <X 0 0
          /wNQQVJUIEtFWVM=
        >
        E 3840 90 3e 60
        E 0 90 4b 60
        E 0 90 58 60
        E 0 90 64 60
        E 120 80 3e 00
        E 0 80 4b 00
        E 0 80 58 00
        E 0 80 64 00
        E 120 90 56 60
        E 0 90 62 60
        E 120 80 56 00
        E 0 80 62 00
        E 120 90 49 60
        E 0 90 55 60
        E 0 90 61 60
        E 120 80 49 00
        E 0 80 55 00
        E 0 80 61 00
        E 120 90 56 60
        E 0 90 62 60
        E 120 80 56 00
        E 0 80 62 00
        E 120 90 3e 60
        E 0 90 4a 60
        E 0 90 56 60
        E 0 90 62 60
        E 120 80 3e 00
        E 0 80 4a 00
        E 0 80 56 00
        E 0 80 62 00
        E 120 90 55 60
        E 0 90 61 60
        E 120 80 55 00
        E 0 80 61 00
        E 120 90 48 60
        E 0 90 54 60
        E 0 90 60 60
        E 120 80 48 00
        E 0 80 54 00
        E 0 80 60 00
        E 120 90 55 60
        E 0 90 61 60
        E 120 80 55 00
        E 0 80 61 00
        E 120 90 3e 60
        E 0 90 4b 60
        E 0 90 57 60
        E 0 90 63 60
        E 120 80 3e 00
        E 0 80 4b 00
        E 0 80 57 00
        E 0 80 63 00
        E 120 90 56 60
        E 0 90 62 60
        E 120 80 56 00
        E 0 80 62 00
        E 120 90 49 60
        E 0 90 55 60
        E 0 90 61 60
        E 120 80 49 00
        E 0 80 55 00
        E 0 80 61 00
        E 120 90 56 60
        E 0 90 62 60
        E 120 80 56 00
        E 0 80 62 00
        E 120 90 3c 60
        E 0 90 48 60
        E 0 90 54 60
        E 0 90 60 60
        E 120 80 3c 00
        E 0 80 48 00
        E 0 80 54 00
        E 0 80 60 00
        E 120 90 55 60
        E 0 90 61 60
        E 120 80 55 00
        E 0 80 61 00
        E 120 90 48 60
        E 0 90 54 60
        E 0 90 60 60
        E 120 80 48 00
        E 0 80 54 00
        E 0 80 60 00
        E 120 90 55 60
        E 0 90 61 60
        E 120 80 55 00
        E 0 80 61 00
        E 120 90 3e 60
        E 0 90 4a 60
        E 0 90 56 60
        E 0 90 62 60
        E 120 80 3e 00
        E 0 80 4a 00
        E 0 80 56 00
        E 0 80 62 00
        E 120 90 54 60
        E 0 90 60 60
        E 120 80 54 00
        E 0 80 60 00
        E 120 90 4a 60
        E 0 90 56 60
        E 0 90 62 60
        E 120 80 4a 00
        E 0 80 56 00
        E 0 80 62 00
        E 120 90 54 60
        E 0 90 60 60
        E 120 80 54 00
        E 0 80 60 00
        E 120 90 3d 60
        E 0 90 49 60
        E 0 90 55 60
        E 0 90 61 60
        E 120 80 3d 00
        E 0 80 49 00
        E 0 80 55 00
        E 0 80 61 00
        E 120 90 56 60
        E 0 90 62 60
        E 120 80 56 00
        E 0 80 62 00
        E 120 90 4b 60
        E 0 90 57 60
        E 0 90 63 60
        E 120 80 4b 00
        E 0 80 57 00
        E 0 80 63 00
        E 120 90 56 60
        E 0 90 62 60
        E 120 80 56 00
        E 0 80 62 00
        E 120 90 3e 60
        E 0 90 4b 60
        E 0 90 58 60
        E 0 90 64 60
        E 120 80 3e 00
        E 0 80 4b 00
        E 0 80 58 00
        E 0 80 64 00
        E 120 90 57 60
        E 0 90 63 60
        E 120 80 57 00
        E 0 80 63 00
        E 120 90 4a 60
        E 0 90 56 60
        E 0 90 62 60
        E 120 80 4a 00
        E 0 80 56 00
        E 0 80 62 00
        E 120 90 57 60
        E 0 90 63 60
        E 120 80 57 00
        E 0 80 63 00
        E 120 90 3d 60
        E 0 90 49 60
        E 0 90 55 60
        E 0 90 61 60
        E 120 80 3d 00
        E 0 80 49 00
        E 0 80 55 00
        E 0 80 61 00
        E 120 90 56 60
        E 0 90 62 60
        E 120 80 56 00
        E 0 80 62 00
        E 120 90 4b 60
        E 0 90 58 60
        E 0 90 64 60
        E 120 80 4b 00
        E 0 80 58 00
        E 0 80 64 00
        E 120 90 55 60
        E 0 90 61 60
        E 120 80 55 00
        E 0 80 61 00
        E 120 90 3e 60
        E 0 90 4b 60
        E 0 90 58 60
        E 0 90 64 60
        E 0 90 74 60
        E 120 80 3e 00
        E 0 80 4b 00
        E 0 80 58 00
        E 0 80 64 00
        E 120 90 56 60
        E 0 90 62 60
        E 120 80 56 00
        E 0 80 62 00
        E 120 90 49 60
        E 0 90 55 60
        E 0 90 61 60
        E 120 80 49 00
        E 0 80 55 00
        E 0 80 61 00
        E 120 90 56 60
        E 0 90 62 60
        E 120 80 56 00
        E 0 80 62 00
        E 120 90 3e 60
        E 0 90 4a 60
        E 0 90 56 60
        E 0 90 62 60
        E 120 80 3e 00
        E 0 80 4a 00
        E 0 80 56 00
        E 0 80 62 00
        E 120 90 55 60
        E 0 90 61 60
        E 120 80 55 00
        E 0 80 61 00
        E 120 90 48 60
        E 0 90 54 60
        E 0 90 60 60
        E 120 80 48 00
        E 0 80 54 00
        E 0 80 60 00
        E 120 90 55 60
        E 0 90 61 60
        E 120 80 55 00
        E 0 80 61 00
        E 120 80 74 00
        E 0 90 3e 60
        E 0 90 4b 60
        E 0 90 57 60
        E 0 90 63 60
        E 120 80 3e 00
        E 0 80 4b 00
        E 0 80 57 00
        E 0 80 63 00
        E 120 90 56 60
        E 0 90 62 60
        E 120 80 56 00
        E 0 80 62 00
        E 120 90 49 60
        E 0 90 55 60
        E 0 90 61 60
        E 120 80 49 00
        E 0 80 55 00
        E 0 80 61 00
        E 120 90 56 60
        E 0 90 62 60
        E 120 80 56 00
        E 0 80 62 00
        E 120 90 3c 60
        E 0 90 48 60
        E 0 90 54 60
        E 0 90 60 60
        E 120 80 3c 00
        E 0 80 48 00
        E 0 80 54 00
        E 0 80 60 00
        E 120 90 55 60
        E 0 90 61 60
        E 120 80 55 00
        E 0 80 61 00
        E 120 90 48 60
        E 0 90 54 60
        E 0 90 60 60
        E 120 80 48 00
        E 0 80 54 00
        E 0 80 60 00
        E 120 90 55 60
        E 0 90 61 60
        E 120 80 55 00
        E 0 80 61 00
        E 120 90 3e 60
        E 0 90 4a 60
        E 0 90 56 60
        E 0 90 62 60
        E 120 80 3e 00
        E 0 80 4a 00
        E 0 80 56 00
        E 0 80 62 00
        E 120 90 54 60
        E 0 90 60 60
        E 120 80 54 00
        E 0 80 60 00
        E 120 90 4a 60
        E 0 90 56 60
        E 0 90 62 60
        E 120 80 4a 00
        E 0 80 56 00
        E 0 80 62 00
        E 120 90 54 60
        E 0 90 60 60
        E 120 80 54 00
        E 0 80 60 00
        E 120 90 3d 60
        E 0 90 49 60
        E 0 90 55 60
        E 0 90 61 60
        E 120 80 3d 00
        E 0 80 49 00
        E 0 80 55 00
        E 0 80 61 00
        E 120 90 56 60
        E 0 90 62 60
        E 120 80 56 00
        E 0 80 62 00
        E 120 90 4b 60
        E 0 90 57 60
        E 0 90 63 60
        E 120 80 4b 00
        E 0 80 57 00
        E 0 80 63 00
        E 120 90 56 60
        E 0 90 62 60
        E 120 80 56 00
        E 0 80 62 00
        E 120 90 3e 60
        E 0 90 4b 60
        E 0 90 58 60
        E 0 90 64 60
        E 120 80 3e 00
        E 0 80 4b 00
        E 0 80 58 00
        E 0 80 64 00
        E 120 90 57 60
        E 0 90 63 60
        E 120 80 57 00
        E 0 80 63 00
        E 120 90 4a 60
        E 0 90 56 60
        E 0 90 62 60
        E 120 80 4a 00
        E 0 80 56 00
        E 0 80 62 00
        E 120 90 57 60
        E 0 90 63 60
        E 120 80 57 00
        E 0 80 63 00
        E 120 90 3d 60
        E 0 90 49 60
        E 0 90 55 60
        E 0 90 61 60
        E 120 80 3d 00
        E 0 80 49 00
        E 0 80 55 00
        E 0 80 61 00
        E 120 90 56 60
        E 0 90 62 60
        E 120 80 56 00
        E 0 80 62 00
        E 120 90 4b 60
        E 0 90 58 60
        E 0 90 64 60
        E 120 80 4b 00
        E 0 80 58 00
        E 0 80 64 00
        E 120 90 55 60
        E 0 90 61 60
        E 120 80 55 00
        E 0 80 61 00
        E 120 90 3d 60
        E 0 90 49 60
        E 0 90 55 60
        E 0 90 61 60
        E 120 80 3d 00
        E 0 80 49 00
        E 0 80 55 00
        E 0 80 61 00
        E 120 90 54 60
        E 0 90 60 60
        E 120 80 54 00
        E 0 80 60 00
        E 120 90 3d 60
        E 0 90 49 60
        E 0 90 55 60
        E 0 90 61 60
        E 120 80 3d 00
        E 0 80 49 00
        E 0 80 55 00
        E 0 80 61 00
        E 120 90 58 60
        E 0 90 64 60
        E 360 80 58 00
        E 0 80 64 00
        E 120 90 55 60
        E 0 90 61 60
        E 120 80 55 00
        E 0 80 61 00
        E 120 90 3c 60
        E 0 90 48 60
        E 0 90 54 60
        E 0 90 60 60
        E 120 80 3c 00
        E 0 80 48 00
        E 0 80 54 00
        E 0 80 60 00
        E 120 90 57 60
        E 0 90 63 60
        E 360 80 57 00
        E 0 80 63 00
        E 120 90 55 60
        E 0 90 61 60
        E 120 80 55 00
        E 0 80 61 00
        E 120 90 3c 60
        E 0 90 48 60
        E 0 90 54 60
        E 0 90 60 60
        E 120 80 3c 00
        E 0 80 48 00
        E 0 80 54 00
        E 0 80 60 00
        E 120 90 56 60
        E 0 90 62 60
        E 360 80 56 00
        E 0 80 62 00
        E 120 90 55 60
        E 0 90 61 60
        E 120 80 55 00
        E 0 80 61 00
        E 120 90 48 60
        E 0 90 54 60
        E 0 90 60 60
        E 120 80 48 00
        E 240 80 54 00
        E 0 80 60 00
        E 120 90 3d 60
        E 0 90 49 60
        E 0 90 55 60
        E 0 90 61 60
        E 120 80 3d 00
        E 0 80 49 00
        E 0 80 55 00
        E 0 80 61 00
        E 120 90 54 60
        E 0 90 60 60
        E 120 80 54 00
        E 0 80 60 00
        E 120 90 3d 60
        E 0 90 49 60
        E 0 90 55 60
        E 0 90 61 60
        E 120 80 3d 00
        E 0 80 49 00
        E 0 80 55 00
        E 0 80 61 00
        E 120 90 58 60
        E 0 90 64 60
        E 360 80 58 00
        E 0 80 64 00
        E 120 90 55 60
        E 0 90 61 60
        E 120 80 55 00
        E 0 80 61 00
        E 120 90 3c 60
        E 0 90 48 60
        E 0 90 54 60
        E 0 90 60 60
        E 120 80 3c 00
        E 0 80 48 00
        E 0 80 54 00
        E 0 80 60 00
        E 120 90 57 60
        E 0 90 63 60
        E 360 80 57 00
        E 0 80 63 00
        E 120 90 55 60
        E 0 90 61 60
        E 120 80 55 00
        E 0 80 61 00
        E 120 90 3c 60
        E 0 90 48 60
        E 0 90 54 60
        E 0 90 60 60
        E 120 80 3c 00
        E 0 80 48 00
        E 0 80 54 00
        E 0 80 60 00
        E 120 90 56 60
        E 0 90 62 60
        E 360 80 56 00
        E 0 80 62 00
        E 120 90 55 60
        E 0 90 61 60
        E 120 80 55 00
        E 0 80 61 00
        E 120 90 48 60
        E 0 90 54 60
        E 0 90 60 60
        E 120 80 48 00
        E 240 80 54 00
        E 0 80 60 00
        E 120 90 3d 60
        E 0 90 49 60
        E 0 90 55 60
        E 0 90 61 60
        E 120 80 3d 00
        E 0 80 49 00
        E 0 80 55 00
        E 0 80 61 00
        E 120 90 54 60
        E 0 90 60 60
        E 120 80 54 00
        E 0 80 60 00
        E 120 90 3d 60
        E 0 90 49 60
        E 0 90 55 60
        E 0 90 61 60
        E 120 80 3d 00
        E 0 80 49 00
        E 0 80 55 00
        E 0 80 61 00
        E 120 90 58 60
        E 0 90 64 60
        E 360 80 58 00
        E 0 80 64 00
        E 120 90 55 60
        E 0 90 61 60
        E 120 80 55 00
        E 0 80 61 00
        E 120 90 3c 60
        E 0 90 48 60
        E 0 90 54 60
        E 0 90 60 60
        E 120 80 3c 00
        E 0 80 48 00
        E 0 80 54 00
        E 0 80 60 00
        E 120 90 57 60
        E 0 90 63 60
        E 360 80 57 00
        E 0 80 63 00
        E 120 90 55 60
        E 0 90 61 60
        E 120 80 55 00
        E 0 80 61 00
        E 120 90 3c 60
        E 0 90 48 60
        E 0 90 54 60
        E 0 90 60 60
        E 120 80 3c 00
        E 0 80 48 00
        E 0 80 54 00
        E 0 80 60 00
        E 120 90 56 60
        E 0 90 62 60
        E 360 80 56 00
        E 0 80 62 00
        E 120 90 55 60
        E 0 90 61 60
        E 120 80 55 00
        E 0 80 61 00
        E 120 90 48 60
        E 0 90 54 60
        E 0 90 60 60
        E 120 80 48 00
        E 240 80 54 00
        E 0 80 60 00
        E 120 90 3d 60
        E 0 90 49 60
        E 0 90 55 60
        E 0 90 61 60
        E 120 80 3d 00
        E 0 80 49 00
        E 0 80 55 00
        E 0 80 61 00
        E 120 90 54 60
        E 0 90 60 60
        E 120 80 54 00
        E 0 80 60 00
        E 120 90 3d 60
        E 0 90 49 60
        E 0 90 55 60
        E 0 90 61 60
        E 120 80 3d 00
        E 0 80 49 00
        E 0 80 55 00
        E 0 80 61 00
        E 120 90 58 60
        E 0 90 64 60
        E 360 80 58 00
        E 0 80 64 00
        E 120 90 55 60
        E 0 90 61 60
        E 120 80 55 00
        E 0 80 61 00
        E 120 90 3c 60
        E 0 90 48 60
        E 0 90 54 60
        E 0 90 60 60
        E 120 80 3c 00
        E 0 80 48 00
        E 0 80 54 00
        E 0 80 60 00
        E 120 90 57 60
        E 0 90 63 60
        E 360 80 57 00
        E 0 80 63 00
        E 120 90 55 60
        E 0 90 61 60
        E 120 80 55 00
        E 0 80 61 00
        E 120 90 3c 60
        E 0 90 48 60
        E 0 90 54 60
        E 0 90 60 60
        E 120 80 3c 00
        E 0 80 48 00
        E 0 80 54 00
        E 0 80 60 00
        E 120 90 56 60
        E 0 90 62 60
        E 360 80 56 00
        E 0 80 62 00
        E 120 90 55 60
        E 0 90 61 60
        E 120 80 55 00
        E 0 80 61 00
        E 120 90 48 60
        E 0 90 54 60
        E 0 90 60 60
        E 120 80 48 00
        E 240 80 54 00
        E 0 80 60 00
        E 120 90 3d 60
        E 0 90 49 60
        E 0 90 55 60
        E 0 90 61 60
        E 120 80 3d 00
        E 0 80 49 00
        E 0 80 55 00
        E 0 80 61 00
        E 120 90 54 60
        E 0 90 60 60
        E 120 80 54 00
        E 0 80 60 00
        E 120 90 3d 60
        E 0 90 49 60
        E 0 90 55 60
        E 0 90 61 60
        E 120 80 3d 00
        E 0 80 49 00
        E 0 80 55 00
        E 0 80 61 00
        E 120 90 58 60
        E 0 90 64 60
        E 360 80 58 00
        E 0 80 64 00
        E 120 90 55 60
        E 0 90 61 60
        E 120 80 55 00
        E 0 80 61 00
        E 120 90 3c 60
        E 0 90 48 60
        E 0 90 54 60
        E 0 90 60 60
        E 120 80 3c 00
        E 0 80 48 00
        E 0 80 54 00
        E 0 80 60 00
        E 120 90 57 60
        E 0 90 63 60
        E 360 80 57 00
        E 0 80 63 00
        E 120 90 55 60
        E 0 90 61 60
        E 120 80 55 00
        E 0 80 61 00
        E 120 90 3c 60
        E 0 90 48 60
        E 0 90 54 60
        E 0 90 60 60
        E 120 80 3c 00
        E 0 80 48 00
        E 0 80 54 00
        E 0 80 60 00
        E 120 90 56 60
        E 0 90 62 60
        E 360 80 56 00
        E 0 80 62 00
        E 120 90 55 60
        E 0 90 61 60
        E 120 80 55 00
        E 0 80 61 00
        E 120 90 48 60
        E 0 90 54 60
        E 0 90 60 60
        E 120 80 48 00
        E 240 80 54 00
        E 0 80 60 00
        E 120 90 3d 60
        E 0 90 49 60
        E 0 90 55 60
        E 0 90 61 60
        E 120 80 3d 00
        E 0 80 49 00
        E 0 80 55 00
        E 0 80 61 00
        E 120 90 54 60
        E 0 90 60 60
        E 120 80 54 00
        E 0 80 60 00
        E 120 90 3d 60
        E 0 90 49 60
        E 0 90 55 60
        E 0 90 61 60
        E 120 80 3d 00
        E 0 80 49 00
        E 0 80 55 00
        E 0 80 61 00
        E 120 90 58 60
        E 0 90 64 60
        E 360 80 58 00
        E 0 80 64 00
        E 120 90 55 60
        E 0 90 61 60
        E 120 80 55 00
        E 0 80 61 00
        E 120 90 3c 60
        E 0 90 48 60
        E 0 90 54 60
        E 0 90 60 60
        E 120 80 3c 00
        E 0 80 48 00
        E 0 80 54 00
        E 0 80 60 00
        E 120 90 57 60
        E 0 90 63 60
        E 360 80 57 00
        E 0 80 63 00
        E 120 90 55 60
        E 0 90 61 60
        E 120 80 55 00
        E 0 80 61 00
        E 120 90 3c 60
        E 0 90 48 60
        E 0 90 54 60
        E 0 90 60 60
        E 120 80 3c 00
        E 0 80 48 00
        E 0 80 54 00
        E 0 80 60 00
        E 120 90 56 60
        E 0 90 62 60
        E 360 80 56 00
        E 0 80 62 00
        E 120 90 55 60
        E 0 90 61 60
        E 120 80 55 00
        E 0 80 61 00
        E 120 90 48 60
        E 0 90 54 60
        E 0 90 60 60
        E 120 80 48 00
        E 240 80 54 00
        E 0 80 60 00
        E 120 90 3d 60
        E 0 90 49 60
        E 0 90 55 60
        E 0 90 61 60
        E 0 90 74 60
        E 120 80 3d 00
        E 0 80 49 00
        E 0 80 55 00
        E 0 80 61 00
        E 120 90 54 60
        E 0 90 60 60
        E 120 80 54 00
        E 0 80 60 00
        E 120 90 3d 60
        E 0 90 49 60
        E 0 90 55 60
        E 0 90 61 60
        E 120 80 3d 00
        E 0 80 49 00
        E 0 80 55 00
        E 0 80 61 00
        E 120 90 58 60
        E 0 90 64 60
        E 360 80 58 00
        E 0 80 64 00
        E 120 90 55 60
        E 0 90 61 60
        E 120 80 55 00
        E 0 80 61 00
        E 120 90 3c 60
        E 0 90 48 60
        E 0 90 54 60
        E 0 90 60 60
        E 120 80 3c 00
        E 0 80 48 00
        E 0 80 54 00
        E 0 80 60 00
        E 120 90 57 60
        E 0 90 63 60
        E 360 80 57 00
        E 0 80 63 00
        E 120 90 55 60
        E 0 90 61 60
        E 120 80 55 00
        E 0 80 61 00
        E 120 90 3c 60
        E 0 90 48 60
        E 0 90 54 60
        E 0 90 60 60
        E 120 80 3c 00
        E 0 80 48 00
        E 0 80 54 00
        E 0 80 60 00
        E 120 90 56 60
        E 0 90 62 60
        E 360 80 56 00
        E 0 80 62 00
        E 120 90 55 60
        E 0 90 61 60
        E 120 80 55 00
        E 0 80 61 00
        E 120 90 48 60
        E 0 90 54 60
        E 0 90 60 60
        E 120 80 48 00
        E 240 80 54 00
        E 0 80 60 00
        E 120 90 3d 60
        E 0 90 49 60
        E 0 90 55 60
        E 0 90 61 60
        E 120 80 74 00
        E 0 80 3d 00
        E 0 80 49 00
        E 0 80 55 00
        E 0 80 61 00
        E 120 90 54 60
        E 0 90 60 60
        E 120 80 54 00
        E 0 80 60 00
        E 120 90 3d 60
        E 0 90 49 60
        E 0 90 55 60
        E 0 90 61 60
        E 120 80 3d 00
        E 0 80 49 00
        E 0 80 55 00
        E 0 80 61 00
        E 120 90 58 60
        E 0 90 64 60
        E 360 80 58 00
        E 0 80 64 00
        E 120 90 55 60
        E 0 90 61 60
        E 120 80 55 00
        E 0 80 61 00
        E 120 90 3c 60
        E 0 90 48 60
        E 0 90 54 60
        E 0 90 60 60
        E 120 80 3c 00
        E 0 80 48 00
        E 0 80 54 00
        E 0 80 60 00
        E 120 90 57 60
        E 0 90 63 60
        E 360 80 57 00
        E 0 80 63 00
        E 120 90 55 60
        E 0 90 61 60
        E 120 80 55 00
        E 0 80 61 00
        E 120 90 3c 60
        E 0 90 48 60
        E 0 90 54 60
        E 0 90 60 60
        E 120 80 3c 00
        E 0 80 48 00
        E 0 80 54 00
        E 0 80 60 00
        E 120 90 56 60
        E 0 90 62 60
        E 360 80 56 00
        E 0 80 62 00
        E 120 90 55 60
        E 0 90 61 60
        E 120 80 55 00
        E 0 80 61 00
        E 120 90 3c 60
        E 0 90 48 60
        E 0 90 54 60
        E 0 90 60 60
        E 360 80 3c 00
        E 0 80 48 00
        E 0 80 54 00
        E 0 80 60 00
        E 15480 90 3e 60
        E 0 90 4b 60
        E 0 90 58 60
        E 0 90 64 60
        E 120 80 3e 00
        E 0 80 4b 00
        E 0 80 58 00
        E 0 80 64 00
        E 120 90 56 60
        E 0 90 62 60
        E 120 80 56 00
        E 0 80 62 00
        E 120 90 49 60
        E 0 90 55 60
        E 0 90 61 60
        E 120 80 49 00
        E 0 80 55 00
        E 0 80 61 00
        E 120 90 56 60
        E 0 90 62 60
        E 120 80 56 00
        E 0 80 62 00
        E 120 90 3e 60
        E 0 90 4a 60
        E 0 90 56 60
        E 0 90 62 60
        E 120 80 3e 00
        E 0 80 4a 00
        E 0 80 56 00
        E 0 80 62 00
        E 120 90 55 60
        E 0 90 61 60
        E 120 80 55 00
        E 0 80 61 00
        E 120 90 48 60
        E 0 90 54 60
        E 0 90 60 60
        E 120 80 48 00
        E 0 80 54 00
        E 0 80 60 00
        E 120 90 55 60
        E 0 90 61 60
        E 120 80 55 00
        E 0 80 61 00
        E 120 90 3e 60
        E 0 90 4b 60
        E 0 90 57 60
        E 0 90 63 60
        E 120 80 3e 00
        E 0 80 4b 00
        E 0 80 57 00
        E 0 80 63 00
        E 120 90 56 60
        E 0 90 62 60
        E 120 80 56 00
        E 0 80 62 00
        E 120 90 49 60
        E 0 90 55 60
        E 0 90 61 60
        E 120 80 49 00
        E 0 80 55 00
        E 0 80 61 00
        E 120 90 56 60
        E 0 90 62 60
        E 120 80 56 00
        E 0 80 62 00
        E 120 90 3c 60
        E 0 90 48 60
        E 0 90 54 60
        E 0 90 60 60
        E 120 80 3c 00
        E 0 80 48 00
        E 0 80 54 00
        E 0 80 60 00
        E 120 90 55 60
        E 0 90 61 60
        E 120 80 55 00
        E 0 80 61 00
        E 120 90 48 60
        E 0 90 54 60
        E 0 90 60 60
        E 120 80 48 00
        E 0 80 54 00
        E 0 80 60 00
        E 120 90 55 60
        E 0 90 61 60
        E 120 80 55 00
        E 0 80 61 00
        E 120 90 3e 60
        E 0 90 4a 60
        E 0 90 56 60
        E 0 90 62 60
        E 120 80 3e 00
        E 0 80 4a 00
        E 0 80 56 00
        E 0 80 62 00
        E 120 90 54 60
        E 0 90 60 60
        E 120 80 54 00
        E 0 80 60 00
        E 120 90 4a 60
        E 0 90 56 60
        E 0 90 62 60
        E 120 80 4a 00
        E 0 80 56 00
        E 0 80 62 00
        E 120 90 54 60
        E 0 90 60 60
        E 120 80 54 00
        E 0 80 60 00
        E 120 90 3d 60
        E 0 90 49 60
        E 0 90 55 60
        E 0 90 61 60
        E 120 80 3d 00
        E 0 80 49 00
        E 0 80 55 00
        E 0 80 61 00
        E 120 90 56 60
        E 0 90 62 60
        E 120 80 56 00
        E 0 80 62 00
        E 120 90 4b 60
        E 0 90 57 60
        E 0 90 63 60
        E 120 80 4b 00
        E 0 80 57 00
        E 0 80 63 00
        E 120 90 56 60
        E 0 90 62 60
        E 120 80 56 00
        E 0 80 62 00
        E 120 90 3e 60
        E 0 90 4b 60
        E 0 90 58 60
        E 0 90 64 60
        E 120 80 3e 00
        E 0 80 4b 00
        E 0 80 58 00
        E 0 80 64 00
        E 120 90 57 60
        E 0 90 63 60
        E 120 80 57 00
        E 0 80 63 00
        E 120 90 4a 60
        E 0 90 56 60
        E 0 90 62 60
        E 120 80 4a 00
        E 0 80 56 00
        E 0 80 62 00
        E 120 90 57 60
        E 0 90 63 60
        E 120 80 57 00
        E 0 80 63 00
        E 120 90 3d 60
        E 0 90 49 60
        E 0 90 55 60
        E 0 90 61 60
        E 120 80 3d 00
        E 0 80 49 00
        E 0 80 55 00
        E 0 80 61 00
        E 120 90 56 60
        E 0 90 62 60
        E 120 80 56 00
        E 0 80 62 00
        E 120 90 4b 60
        E 0 90 58 60
        E 0 90 64 60
        E 120 80 4b 00
        E 0 80 58 00
        E 0 80 64 00
        E 120 90 55 60
        E 0 90 61 60
        E 120 80 55 00
        E 0 80 61 00
        E 120 90 3e 60
        E 0 90 4b 60
        E 0 90 58 60
        E 0 90 64 60
        E 0 90 74 60
        E 120 80 3e 00
        E 0 80 4b 00
        E 0 80 58 00
        E 0 80 64 00
        E 120 90 56 60
        E 0 90 62 60
        E 120 80 56 00
        E 0 80 62 00
        E 120 90 49 60
        E 0 90 55 60
        E 0 90 61 60
        E 120 80 49 00
        E 0 80 55 00
        E 0 80 61 00
        E 120 90 56 60
        E 0 90 62 60
        E 120 80 56 00
        E 0 80 62 00
        E 120 90 3e 60
        E 0 90 4a 60
        E 0 90 56 60
        E 0 90 62 60
        E 120 80 3e 00
        E 0 80 4a 00
        E 0 80 56 00
        E 0 80 62 00
        E 120 90 55 60
        E 0 90 61 60
        E 120 80 55 00
        E 0 80 61 00
        E 120 90 48 60
        E 0 90 54 60
        E 0 90 60 60
        E 120 80 48 00
        E 0 80 54 00
        E 0 80 60 00
        E 120 90 55 60
        E 0 90 61 60
        E 120 80 55 00
        E 0 80 61 00
        E 120 90 3e 60
        E 0 90 4b 60
        E 0 90 57 60
        E 0 90 63 60
        E 120 80 3e 00
        E 0 80 4b 00
        E 0 80 57 00
        E 0 80 63 00
        E 120 90 56 60
        E 0 90 62 60
        E 120 80 56 00
        E 0 80 62 00
        E 120 90 49 60
        E 0 90 55 60
        E 0 90 61 60
        E 120 80 49 00
        E 0 80 55 00
        E 0 80 61 00
        E 120 90 56 60
        E 0 90 62 60
        E 120 80 56 00
        E 0 80 62 00
        E 120 90 3c 60
        E 0 90 48 60
        E 0 90 54 60
        E 0 90 60 60
        E 120 80 3c 00
        E 0 80 48 00
        E 0 80 54 00
        E 0 80 60 00
        E 120 90 55 60
        E 0 90 61 60
        E 120 80 55 00
        E 0 80 61 00
        E 120 90 48 60
        E 0 90 54 60
        E 0 90 60 60
        E 120 80 48 00
        E 0 80 54 00
        E 0 80 60 00
        E 120 90 55 60
        E 0 90 61 60
        E 120 80 55 00
        E 0 80 61 00
        E 120 80 74 00
        E 0 90 3e 60
        E 0 90 4a 60
        E 0 90 56 60
        E 0 90 62 60
        E 120 80 3e 00
        E 0 80 4a 00
        E 0 80 56 00
        E 0 80 62 00
        E 120 90 54 60
        E 0 90 60 60
        E 120 80 54 00
        E 0 80 60 00
        E 120 90 4a 60
        E 0 90 56 60
        E 0 90 62 60
        E 120 80 4a 00
        E 0 80 56 00
        E 0 80 62 00
        E 120 90 54 60
        E 0 90 60 60
        E 120 80 54 00
        E 0 80 60 00
        E 120 90 3d 60
        E 0 90 49 60
        E 0 90 55 60
        E 0 90 61 60
        E 120 80 3d 00
        E 0 80 49 00
        E 0 80 55 00
        E 0 80 61 00
        E 120 90 56 60
        E 0 90 62 60
        E 120 80 56 00
        E 0 80 62 00
        E 120 90 4b 60
        E 0 90 57 60
        E 0 90 63 60
        E 120 80 4b 00
        E 0 80 57 00
        E 0 80 63 00
        E 120 90 56 60
        E 0 90 62 60
        E 120 80 56 00
        E 0 80 62 00
        E 120 90 3e 60
        E 0 90 4b 60
        E 0 90 58 60
        E 0 90 64 60
        E 120 80 3e 00
        E 0 80 4b 00
        E 0 80 58 00
        E 0 80 64 00
        E 120 90 57 60
        E 0 90 63 60
        E 120 80 57 00
        E 0 80 63 00
        E 120 90 4a 60
        E 0 90 56 60
        E 0 90 62 60
        E 120 80 4a 00
        E 0 80 56 00
        E 0 80 62 00
        E 120 90 57 60
        E 0 90 63 60
        E 120 80 57 00
        E 0 80 63 00
        E 120 90 3d 60
        E 0 90 49 60
        E 0 90 55 60
        E 0 90 61 60
        E 120 80 3d 00
        E 0 80 49 00
        E 0 80 55 00
        E 0 80 61 00
        E 120 90 56 60
        E 0 90 62 60
        E 120 80 56 00
        E 0 80 62 00
        E 120 90 4b 60
        E 0 90 58 60
        E 0 90 64 60
        E 120 80 4b 00
        E 0 80 58 00
        E 0 80 64 00
        E 120 90 55 60
        E 0 90 61 60
        E 120 80 55 00
        E 0 80 61 00
        E 120 90 3d 60
        E 0 90 49 60
        E 0 90 55 60
        E 0 90 61 60
        E 120 80 3d 00
        E 0 80 49 00
        E 0 80 55 00
        E 0 80 61 00
        E 120 90 54 60
        E 0 90 60 60
        E 120 80 54 00
        E 0 80 60 00
        E 120 90 3d 60
        E 0 90 49 60
        E 0 90 55 60
        E 0 90 61 60
        E 120 80 3d 00
        E 0 80 49 00
        E 0 80 55 00
        E 0 80 61 00
        E 120 90 58 60
        E 0 90 64 60
        E 360 80 58 00
        E 0 80 64 00
        E 120 90 55 60
        E 0 90 61 60
        E 120 80 55 00
        E 0 80 61 00
        E 120 90 3c 60
        E 0 90 48 60
        E 0 90 54 60
        E 0 90 60 60
        E 120 80 3c 00
        E 0 80 48 00
        E 0 80 54 00
        E 0 80 60 00
        E 120 90 57 60
        E 0 90 63 60
        E 360 80 57 00
        E 0 80 63 00
        E 120 90 55 60
        E 0 90 61 60
        E 120 80 55 00
        E 0 80 61 00
        E 120 90 3c 60
        E 0 90 48 60
        E 0 90 54 60
        E 0 90 60 60
        E 120 80 3c 00
        E 0 80 48 00
        E 0 80 54 00
        E 0 80 60 00
        E 120 90 56 60
        E 0 90 62 60
        E 360 80 56 00
        E 0 80 62 00
        E 120 90 55 60
        E 0 90 61 60
        E 120 80 55 00
        E 0 80 61 00
        E 120 90 48 60
        E 0 90 54 60
        E 0 90 60 60
        E 120 80 48 00
        E 240 80 54 00
        E 0 80 60 00
        E 120 90 3d 60
        E 0 90 49 60
        E 0 90 55 60
        E 0 90 61 60
        E 120 80 3d 00
        E 0 80 49 00
        E 0 80 55 00
        E 0 80 61 00
        E 120 90 54 60
        E 0 90 60 60
        E 120 80 54 00
        E 0 80 60 00
        E 120 90 3d 60
        E 0 90 49 60
        E 0 90 55 60
        E 0 90 61 60
        E 120 80 3d 00
        E 0 80 49 00
        E 0 80 55 00
        E 0 80 61 00
        E 120 90 58 60
        E 0 90 64 60
        E 360 80 58 00
        E 0 80 64 00
        E 120 90 55 60
        E 0 90 61 60
        E 120 80 55 00
        E 0 80 61 00
        E 120 90 3c 60
        E 0 90 48 60
        E 0 90 54 60
        E 0 90 60 60
        E 120 80 3c 00
        E 0 80 48 00
        E 0 80 54 00
        E 0 80 60 00
        E 120 90 57 60
        E 0 90 63 60
        E 360 80 57 00
        E 0 80 63 00
        E 120 90 55 60
        E 0 90 61 60
        E 120 80 55 00
        E 0 80 61 00
        E 120 90 3c 60
        E 0 90 48 60
        E 0 90 54 60
        E 0 90 60 60
        E 120 80 3c 00
        E 0 80 48 00
        E 0 80 54 00
        E 0 80 60 00
        E 120 90 56 60
        E 0 90 62 60
        E 360 80 56 00
        E 0 80 62 00
        E 120 90 55 60
        E 0 90 61 60
        E 120 80 55 00
        E 0 80 61 00
        E 120 90 48 60
        E 0 90 54 60
        E 0 90 60 60
        E 120 80 48 00
        E 240 80 54 00
        E 0 80 60 00
        E 120 90 3d 60
        E 0 90 49 60
        E 0 90 55 60
        E 0 90 61 60
        E 120 80 3d 00
        E 0 80 49 00
        E 0 80 55 00
        E 0 80 61 00
        E 120 90 54 60
        E 0 90 60 60
        E 120 80 54 00
        E 0 80 60 00
        E 120 90 3d 60
        E 0 90 49 60
        E 0 90 55 60
        E 0 90 61 60
        E 120 80 3d 00
        E 0 80 49 00
        E 0 80 55 00
        E 0 80 61 00
        E 120 90 58 60
        E 0 90 64 60
        E 360 80 58 00
        E 0 80 64 00
        E 120 90 55 60
        E 0 90 61 60
        E 120 80 55 00
        E 0 80 61 00
        E 120 90 3c 60
        E 0 90 48 60
        E 0 90 54 60
        E 0 90 60 60
        E 120 80 3c 00
        E 0 80 48 00
        E 0 80 54 00
        E 0 80 60 00
        E 120 90 57 60
        E 0 90 63 60
        E 360 80 57 00
        E 0 80 63 00
        E 120 90 55 60
        E 0 90 61 60
        E 120 80 55 00
        E 0 80 61 00
        E 120 90 3c 60
        E 0 90 48 60
        E 0 90 54 60
        E 0 90 60 60
        E 120 80 3c 00
        E 0 80 48 00
        E 0 80 54 00
        E 0 80 60 00
        E 120 90 56 60
        E 0 90 62 60
        E 360 80 56 00
        E 0 80 62 00
        E 120 90 55 60
        E 0 90 61 60
        E 120 80 55 00
        E 0 80 61 00
        E 120 90 48 60
        E 0 90 54 60
        E 0 90 60 60
        E 120 80 48 00
        E 240 80 54 00
        E 0 80 60 00
        E 120 90 3d 60
        E 0 90 49 60
        E 0 90 55 60
        E 0 90 61 60
        E 120 80 3d 00
        E 0 80 49 00
        E 0 80 55 00
        E 0 80 61 00
        E 120 90 54 60
        E 0 90 60 60
        E 120 80 54 00
        E 0 80 60 00
        E 120 90 3d 60
        E 0 90 49 60
        E 0 90 55 60
        E 0 90 61 60
        E 120 80 3d 00
        E 0 80 49 00
        E 0 80 55 00
        E 0 80 61 00
        E 120 90 58 60
        E 0 90 64 60
        E 360 80 58 00
        E 0 80 64 00
        E 120 90 55 60
        E 0 90 61 60
        E 120 80 55 00
        E 0 80 61 00
        E 120 90 3c 60
        E 0 90 48 60
        E 0 90 54 60
        E 0 90 60 60
        E 120 80 3c 00
        E 0 80 48 00
        E 0 80 54 00
        E 0 80 60 00
        E 120 90 57 60
        E 0 90 63 60
        E 360 80 57 00
        E 0 80 63 00
        E 120 90 55 60
        E 0 90 61 60
        E 120 80 55 00
        E 0 80 61 00
        E 120 90 3c 60
        E 0 90 48 60
        E 0 90 54 60
        E 0 90 60 60
        E 120 80 3c 00
        E 0 80 48 00
        E 0 80 54 00
        E 0 80 60 00
        E 120 90 56 60
        E 0 90 62 60
        E 360 80 56 00
        E 0 80 62 00
        E 120 90 55 60
        E 0 90 61 60
        E 120 80 55 00
        E 0 80 61 00
        E 120 90 48 60
        E 0 90 54 60
        E 0 90 60 60
        E 120 80 48 00
        E 240 80 54 00
        E 0 80 60 00
        E 120 90 3d 60
        E 0 90 49 60
        E 0 90 55 60
        E 0 90 61 60
        E 120 80 3d 00
        E 0 80 49 00
        E 0 80 55 00
        E 0 80 61 00
        E 120 90 54 60
        E 0 90 60 60
        E 120 80 54 00
        E 0 80 60 00
        E 120 90 3d 60
        E 0 90 49 60
        E 0 90 55 60
        E 0 90 61 60
        E 120 80 3d 00
        E 0 80 49 00
        E 0 80 55 00
        E 0 80 61 00
        E 120 90 58 60
        E 0 90 64 60
        E 360 80 58 00
        E 0 80 64 00
        E 120 90 55 60
        E 0 90 61 60
        E 120 80 55 00
        E 0 80 61 00
        E 120 90 3c 60
        E 0 90 48 60
        E 0 90 54 60
        E 0 90 60 60
        E 120 80 3c 00
        E 0 80 48 00
        E 0 80 54 00
        E 0 80 60 00
        E 120 90 57 60
        E 0 90 63 60
        E 360 80 57 00
        E 0 80 63 00
        E 120 90 55 60
        E 0 90 61 60
        E 120 80 55 00
        E 0 80 61 00
        E 120 90 3c 60
        E 0 90 48 60
        E 0 90 54 60
        E 0 90 60 60
        E 120 80 3c 00
        E 0 80 48 00
        E 0 80 54 00
        E 0 80 60 00
        E 120 90 56 60
        E 0 90 62 60
        E 360 80 56 00
        E 0 80 62 00
        E 120 90 55 60
        E 0 90 61 60
        E 120 80 55 00
        E 0 80 61 00
        E 120 90 48 60
        E 0 90 54 60
        E 0 90 60 60
        E 120 80 48 00
        E 240 80 54 00
        E 0 80 60 00
        E 120 90 3d 60
        E 0 90 49 60
        E 0 90 55 60
        E 0 90 61 60
        E 120 80 3d 00
        E 0 80 49 00
        E 0 80 55 00
        E 0 80 61 00
        E 120 90 54 60
        E 0 90 60 60
        E 120 80 54 00
        E 0 80 60 00
        E 120 90 3d 60
        E 0 90 49 60
        E 0 90 55 60
        E 0 90 61 60
        E 120 80 3d 00
        E 0 80 49 00
        E 0 80 55 00
        E 0 80 61 00
        E 120 90 58 60
        E 0 90 64 60
        E 360 80 58 00
        E 0 80 64 00
        E 120 90 55 60
        E 0 90 61 60
        E 120 80 55 00
        E 0 80 61 00
        E 120 90 3c 60
        E 0 90 48 60
        E 0 90 54 60
        E 0 90 60 60
        E 120 80 3c 00
        E 0 80 48 00
        E 0 80 54 00
        E 0 80 60 00
        E 120 90 57 60
        E 0 90 63 60
        E 360 80 57 00
        E 0 80 63 00
        E 120 90 55 60
        E 0 90 61 60
        E 120 80 55 00
        E 0 80 61 00
        E 120 90 3c 60
        E 0 90 48 60
        E 0 90 54 60
        E 0 90 60 60
        E 120 80 3c 00
        E 0 80 48 00
        E 0 80 54 00
        E 0 80 60 00
        E 120 90 56 60
        E 0 90 62 60
        E 360 80 56 00
        E 0 80 62 00
        E 120 90 55 60
        E 0 90 61 60
        E 120 80 55 00
        E 0 80 61 00
        E 120 90 48 60
        E 0 90 54 60
        E 0 90 60 60
        E 120 80 48 00
        E 240 80 54 00
        E 0 80 60 00
        E 120 90 3d 60
        E 0 90 49 60
        E 0 90 55 60
        E 0 90 61 60
        E 0 90 74 60
        E 120 80 3d 00
        E 0 80 49 00
        E 0 80 55 00
        E 0 80 61 00
        E 120 90 54 60
        E 0 90 60 60
        E 120 80 54 00
        E 0 80 60 00
        E 120 90 3d 60
        E 0 90 49 60
        E 0 90 55 60
        E 0 90 61 60
        E 120 80 3d 00
        E 0 80 49 00
        E 0 80 55 00
        E 0 80 61 00
        E 120 90 58 60
        E 0 90 64 60
        E 360 80 58 00
        E 0 80 64 00
        E 120 90 55 60
        E 0 90 61 60
        E 120 80 55 00
        E 0 80 61 00
        E 120 90 3c 60
        E 0 90 48 60
        E 0 90 54 60
        E 0 90 60 60
        E 120 80 3c 00
        E 0 80 48 00
        E 0 80 54 00
        E 0 80 60 00
        E 120 90 57 60
        E 0 90 63 60
        E 360 80 57 00
        E 0 80 63 00
        E 120 90 55 60
        E 0 90 61 60
        E 120 80 55 00
        E 0 80 61 00
        E 120 90 3c 60
        E 0 90 48 60
        E 0 90 54 60
        E 0 90 60 60
        E 120 80 3c 00
        E 0 80 48 00
        E 0 80 54 00
        E 0 80 60 00
        E 120 90 56 60
        E 0 90 62 60
        E 360 80 56 00
        E 0 80 62 00
        E 120 90 55 60
        E 0 90 61 60
        E 120 80 55 00
        E 0 80 61 00
        E 120 90 48 60
        E 0 90 54 60
        E 0 90 60 60
        E 120 80 48 00
        E 240 80 54 00
        E 0 80 60 00
        E 120 90 3d 60
        E 0 90 49 60
        E 0 90 55 60
        E 0 90 61 60
        E 120 80 74 00
        E 0 80 3d 00
        E 0 80 49 00
        E 0 80 55 00
        E 0 80 61 00
        E 120 90 54 60
        E 0 90 60 60
        E 120 80 54 00
        E 0 80 60 00
        E 120 90 3d 60
        E 0 90 49 60
        E 0 90 55 60
        E 0 90 61 60
        E 120 80 3d 00
        E 0 80 49 00
        E 0 80 55 00
        E 0 80 61 00
        E 120 90 58 60
        E 0 90 64 60
        E 360 80 58 00
        E 0 80 64 00
        E 120 90 55 60
        E 0 90 61 60
        E 120 80 55 00
        E 0 80 61 00
        E 120 90 3c 60
        E 0 90 48 60
        E 0 90 54 60
        E 0 90 60 60
        E 120 80 3c 00
        E 0 80 48 00
        E 0 80 54 00
        E 0 80 60 00
        E 120 90 57 60
        E 0 90 63 60
        E 360 80 57 00
        E 0 80 63 00
        E 120 90 55 60
        E 0 90 61 60
        E 120 80 55 00
        E 0 80 61 00
        E 120 90 3c 60
        E 0 90 48 60
        E 0 90 54 60
        E 0 90 60 60
        E 120 80 3c 00
        E 0 80 48 00
        E 0 80 54 00
        E 0 80 60 00
        E 120 90 56 60
        E 0 90 62 60
        E 360 80 56 00
        E 0 80 62 00
        E 120 90 55 60
        E 0 90 61 60
        E 120 80 55 00
        E 0 80 61 00
        E 120 90 3c 60
        E 0 90 48 60
        E 0 90 54 60
        E 0 90 60 60
        E 360 80 3c 00
        E 0 80 48 00
        E 0 80 54 00
        E 0 80 60 00
        E 15480 90 3e 60
        E 0 90 4b 60
        E 0 90 58 60
        E 0 90 64 60
        E 120 80 3e 00
        E 0 80 4b 00
        E 0 80 58 00
        E 0 80 64 00
        E 120 90 56 60
        E 0 90 62 60
        E 120 80 56 00
        E 0 80 62 00
        E 120 90 49 60
        E 0 90 55 60
        E 0 90 61 60
        E 120 80 49 00
        E 0 80 55 00
        E 0 80 61 00
        E 120 90 56 60
        E 0 90 62 60
        E 120 80 56 00
        E 0 80 62 00
        E 120 90 3e 60
        E 0 90 4a 60
        E 0 90 56 60
        E 0 90 62 60
        E 120 80 3e 00
        E 0 80 4a 00
        E 0 80 56 00
        E 0 80 62 00
        E 120 90 55 60
        E 0 90 61 60
        E 120 80 55 00
        E 0 80 61 00
        E 120 90 48 60
        E 0 90 54 60
        E 0 90 60 60
        E 120 80 48 00
        E 0 80 54 00
        E 0 80 60 00
        E 120 90 55 60
        E 0 90 61 60
        E 120 80 55 00
        E 0 80 61 00
        E 120 90 3e 60
        E 0 90 4b 60
        E 0 90 57 60
        E 0 90 63 60
        E 120 80 3e 00
        E 0 80 4b 00
        E 0 80 57 00
        E 0 80 63 00
        E 120 90 56 60
        E 0 90 62 60
        E 120 80 56 00
        E 0 80 62 00
        E 120 90 49 60
        E 0 90 55 60
        E 0 90 61 60
        E 120 80 49 00
        E 0 80 55 00
        E 0 80 61 00
        E 120 90 56 60
        E 0 90 62 60
        E 120 80 56 00
        E 0 80 62 00
        E 120 90 3c 60
        E 0 90 48 60
        E 0 90 54 60
        E 0 90 60 60
        E 120 80 3c 00
        E 0 80 48 00
        E 0 80 54 00
        E 0 80 60 00
        E 120 90 55 60
        E 0 90 61 60
        E 120 80 55 00
        E 0 80 61 00
        E 120 90 48 60
        E 0 90 54 60
        E 0 90 60 60
        E 120 80 48 00
        E 0 80 54 00
        E 0 80 60 00
        E 120 90 55 60
        E 0 90 61 60
        E 120 80 55 00
        E 0 80 61 00
        E 120 90 3e 60
        E 0 90 4a 60
        E 0 90 56 60
        E 0 90 62 60
        E 120 80 3e 00
        E 0 80 4a 00
        E 0 80 56 00
        E 0 80 62 00
        E 120 90 54 60
        E 0 90 60 60
        E 120 80 54 00
        E 0 80 60 00
        E 120 90 4a 60
        E 0 90 56 60
        E 0 90 62 60
        E 120 80 4a 00
        E 0 80 56 00
        E 0 80 62 00
        E 120 90 54 60
        E 0 90 60 60
        E 120 80 54 00
        E 0 80 60 00
        E 120 90 3d 60
        E 0 90 49 60
        E 0 90 55 60
        E 0 90 61 60
        E 120 80 3d 00
        E 0 80 49 00
        E 0 80 55 00
        E 0 80 61 00
        E 120 90 56 60
        E 0 90 62 60
        E 120 80 56 00
        E 0 80 62 00
        E 120 90 4b 60
        E 0 90 57 60
        E 0 90 63 60
        E 120 80 4b 00
        E 0 80 57 00
        E 0 80 63 00
        E 120 90 56 60
        E 0 90 62 60
        E 120 80 56 00
        E 0 80 62 00
        E 120 90 3e 60
        E 0 90 4b 60
        E 0 90 58 60
        E 0 90 64 60
        E 120 80 3e 00
        E 0 80 4b 00
        E 0 80 58 00
        E 0 80 64 00
        E 120 90 57 60
        E 0 90 63 60
        E 120 80 57 00
        E 0 80 63 00
        E 120 90 4a 60
        E 0 90 56 60
        E 0 90 62 60
        E 120 80 4a 00
        E 0 80 56 00
        E 0 80 62 00
        E 120 90 57 60
        E 0 90 63 60
        E 120 80 57 00
        E 0 80 63 00
        E 120 90 3d 60
        E 0 90 49 60
        E 0 90 55 60
        E 0 90 61 60
        E 120 80 3d 00
        E 0 80 49 00
        E 0 80 55 00
        E 0 80 61 00
        E 120 90 56 60
        E 0 90 62 60
        E 120 80 56 00
        E 0 80 62 00
        E 120 90 4b 60
        E 0 90 58 60
        E 0 90 64 60
        E 120 80 4b 00
        E 0 80 58 00
        E 0 80 64 00
        E 120 90 55 60
        E 0 90 61 60
        E 120 80 55 00
        E 0 80 61 00
        E 120 90 3e 60
        E 0 90 4b 60
        E 0 90 58 60
        E 0 90 64 60
        E 120 80 3e 00
        E 0 80 4b 00
        E 0 80 58 00
        E 0 80 64 00
        E 120 90 56 60
        E 0 90 62 60
        E 120 80 56 00
        E 0 80 62 00
        E 120 90 49 60
        E 0 90 55 60
        E 0 90 61 60
        E 120 80 49 00
        E 0 80 55 00
        E 0 80 61 00
        E 120 90 56 60
        E 0 90 62 60
        E 120 80 56 00
        E 0 80 62 00
        E 120 90 3e 60
        E 0 90 4a 60
        E 0 90 56 60
        E 0 90 62 60
        E 120 80 3e 00
        E 0 80 4a 00
        E 0 80 56 00
        E 0 80 62 00
        E 120 90 55 60
        E 0 90 61 60
        E 120 80 55 00
        E 0 80 61 00
        E 120 90 48 60
        E 0 90 54 60
        E 0 90 60 60
        E 120 80 48 00
        E 0 80 54 00
        E 0 80 60 00
        E 120 90 55 60
        E 0 90 61 60
        E 120 80 55 00
        E 0 80 61 00
        E 120 90 3e 60
        E 0 90 4b 60
        E 0 90 57 60
        E 0 90 63 60
        E 120 80 3e 00
        E 0 80 4b 00
        E 0 80 57 00
        E 0 80 63 00
        E 120 90 56 60
        E 0 90 62 60
        E 120 80 56 00
        E 0 80 62 00
        E 120 90 49 60
        E 0 90 55 60
        E 0 90 61 60
        E 120 80 49 00
        E 0 80 55 00
        E 0 80 61 00
        E 120 90 56 60
        E 0 90 62 60
        E 120 80 56 00
        E 0 80 62 00
        E 120 90 3c 60
        E 0 90 48 60
        E 0 90 54 60
        E 0 90 60 60
        E 120 80 3c 00
        E 0 80 48 00
        E 0 80 54 00
        E 0 80 60 00
        E 120 90 55 60
        E 0 90 61 60
        E 120 80 55 00
        E 0 80 61 00
        E 120 90 48 60
        E 0 90 54 60
        E 0 90 60 60
        E 120 80 48 00
        E 0 80 54 00
        E 0 80 60 00
        E 120 90 55 60
        E 0 90 61 60
        E 120 80 55 00
        E 0 80 61 00
        E 120 90 3e 60
        E 0 90 4a 60
        E 0 90 56 60
        E 0 90 62 60
        E 120 80 3e 00
        E 0 80 4a 00
        E 0 80 56 00
        E 0 80 62 00
        E 120 90 54 60
        E 0 90 60 60
        E 120 80 54 00
        E 0 80 60 00
        E 120 90 4a 60
        E 0 90 56 60
        E 0 90 62 60
        E 120 80 4a 00
        E 0 80 56 00
        E 0 80 62 00
        E 120 90 54 60
        E 0 90 60 60
        E 120 80 54 00
        E 0 80 60 00
        E 120 90 3d 60
        E 0 90 49 60
        E 0 90 55 60
        E 0 90 61 60
        E 120 80 3d 00
        E 0 80 49 00
        E 0 80 55 00
        E 0 80 61 00
        E 120 90 56 60
        E 0 90 62 60
        E 120 80 56 00
        E 0 80 62 00
        E 120 90 4b 60
        E 0 90 57 60
        E 0 90 63 60
        E 120 80 4b 00
        E 0 80 57 00
        E 0 80 63 00
        E 120 90 56 60
        E 0 90 62 60
        E 120 80 56 00
        E 0 80 62 00
        E 120 90 3e 60
        E 0 90 4b 60
        E 0 90 58 60
        E 0 90 64 60
        E 120 80 3e 00
        E 0 80 4b 00
        E 0 80 58 00
        E 0 80 64 00
        E 120 90 57 60
        E 0 90 63 60
        E 120 80 57 00
        E 0 80 63 00
        E 120 90 4a 60
        E 0 90 56 60
        E 0 90 62 60
        E 120 80 4a 00
        E 0 80 56 00
        E 0 80 62 00
        E 120 90 57 60
        E 0 90 63 60
        E 120 80 57 00
        E 0 80 63 00
        E 120 90 3d 60
        E 0 90 49 60
        E 0 90 55 60
        E 0 90 61 60
        E 120 80 3d 00
        E 0 80 49 00
        E 0 80 55 00
        E 0 80 61 00
        E 120 90 56 60
        E 0 90 62 60
        E 120 80 56 00
        E 0 80 62 00
        E 120 90 4b 60
        E 0 90 58 60
        E 0 90 64 60
        E 120 80 4b 00
        E 0 80 58 00
        E 0 80 64 00
        E 120 90 55 60
        E 0 90 61 60
        E 120 80 55 00
        E 0 80 61 00
        E 120 90 3d 60
        E 0 90 49 60
        E 0 90 55 60
        E 0 90 61 60
        E 120 80 3d 00
        E 0 80 49 00
        E 0 80 55 00
        E 0 80 61 00
        E 120 90 54 60
        E 0 90 60 60
        E 120 80 54 00
        E 0 80 60 00
        E 120 90 3d 60
        E 0 90 49 60
        E 0 90 55 60
        E 0 90 61 60
        E 120 80 3d 00
        E 0 80 49 00
        E 0 80 55 00
        E 0 80 61 00
        E 120 90 58 60
        E 0 90 64 60
        E 360 80 58 00
        E 0 80 64 00
        E 120 90 55 60
        E 0 90 61 60
        E 120 80 55 00
        E 0 80 61 00
        E 120 90 3c 60
        E 0 90 48 60
        E 0 90 54 60
        E 0 90 60 60
        E 120 80 3c 00
        E 0 80 48 00
        E 0 80 54 00
        E 0 80 60 00
        E 120 90 57 60
        E 0 90 63 60
        E 360 80 57 00
        E 0 80 63 00
        E 120 90 55 60
        E 0 90 61 60
        E 120 80 55 00
        E 0 80 61 00
        E 120 90 3c 60
        E 0 90 48 60
        E 0 90 54 60
        E 0 90 60 60
        E 120 80 3c 00
        E 0 80 48 00
        E 0 80 54 00
        E 0 80 60 00
        E 120 90 56 60
        E 0 90 62 60
        E 360 80 56 00
        E 0 80 62 00
        E 120 90 55 60
        E 0 90 61 60
        E 120 80 55 00
        E 0 80 61 00
        E 120 90 48 60
        E 0 90 54 60
        E 0 90 60 60
        E 120 80 48 00
        E 240 80 54 00
        E 0 80 60 00
        E 120 90 3d 60
        E 0 90 49 60
        E 0 90 55 60
        E 0 90 61 60
        E 120 80 3d 00
        E 0 80 49 00
        E 0 80 55 00
        E 0 80 61 00
        E 120 90 54 60
        E 0 90 60 60
        E 120 80 54 00
        E 0 80 60 00
        E 120 90 3d 60
        E 0 90 49 60
        E 0 90 55 60
        E 0 90 61 60
        E 120 80 3d 00
        E 0 80 49 00
        E 0 80 55 00
        E 0 80 61 00
        E 120 90 58 60
        E 0 90 64 60
        E 360 80 58 00
        E 0 80 64 00
        E 120 90 55 60
        E 0 90 61 60
        E 120 80 55 00
        E 0 80 61 00
        E 120 90 3c 60
        E 0 90 48 60
        E 0 90 54 60
        E 0 90 60 60
        E 120 80 3c 00
        E 0 80 48 00
        E 0 80 54 00
        E 0 80 60 00
        E 120 90 57 60
        E 0 90 63 60
        E 360 80 57 00
        E 0 80 63 00
        E 120 90 55 60
        E 0 90 61 60
        E 120 80 55 00
        E 0 80 61 00
        E 120 90 3c 60
        E 0 90 48 60
        E 0 90 54 60
        E 0 90 60 60
        E 120 80 3c 00
        E 0 80 48 00
        E 0 80 54 00
        E 0 80 60 00
        E 120 90 56 60
        E 0 90 62 60
        E 360 80 56 00
        E 0 80 62 00
        E 120 90 55 60
        E 0 90 61 60
        E 120 80 55 00
        E 0 80 61 00
        E 120 90 3c 60
        E 0 90 48 60
        E 0 90 54 60
        E 0 90 60 60
        E 480 80 3c 00
        E 0 80 48 00
        E 0 80 54 00
        E 0 80 60 00
        E 1920 b0 7b 00
        GUID {3A70F92E-B968-4BC1-B17D-7EC0FAD606D1}
        IGNTEMPO 0 120.00000000 4 4
        SRCCOLOR 9
        VELLANE 132 128 128
        COLORMAP "C:\Program Files\REAPER (x64)\Data\color_maps\rockband_guitarbass.png"
        CFGEDITVIEW -7584.000000 12.707726 0 20 0 0 0
        CFGEDIT 1 1 0 1 1 0 1 1 1 1 1 0.25000000 -8 -8 1928 1088 0 2 1 1 0.00000000 0 1 0 0 0.500000 0 0 1.000000 64
        KEYSNAP 0 0 "102034050607" 0 "Major"
        EVTFILTER 0 -1 -1 -1 -1 0 1 0 0 -1.00000000 -1.00000000
      >
    >
  >
  <TRACK '{76EF671E-3FD4-44F1-A817-A09BB4A4466D}'
    NAME "keys"
    PEAKCOL 16576
    BEAT -1
    AUTOMODE 0
    VOLPAN 1.00000000000000 0.20000000000000 -1.00000000000000 -1.00000000000000 1.00000000000000
    MUTESOLO 0 0 0
    IPHASE 0
    ISBUS 0 0
    BUSCOMP 0 0
    SHOWINMIX 1 0.666700 0.500000 1 0.500000 -1 -1 -1
    FREEMODE 0
    SEL 0
    REC 0 0 0 0 0 0 0
    VU 2
    TRACKHEIGHT 0 0
    INQ 0 0 0 0.5000000000 100 0 0 100
    NCHAN 2
    FX 1
    TRACKID {76EF671E-3FD4-44F1-A817-A09BB4A4466D}
    PERF 0
    MIDIOUT -1
    MAINSEND 1 0
    <ITEM
      POSITION 0.00000000000000
      SNAPOFFS 0.00000000000000
      LENGTH 126.40843537414966
      LOOP 0
      ALLTAKES 0
      SEL 0
      FADEIN 1 0.000000 0.000000 1 0
      FADEOUT 1 0.000000 0.000000 1 0
      MUTE 0
      IGUID {2419D5FA-B11F-4D04-BDB4-A7AD575A51EB}
      IID 21
      NAME "keys.wav"
      VOLPAN 1.000000 0.000000 1.000000 -1.000000
      SOFFS 0.00000000000000
      PLAYRATE 1.00000000000000 1 0.00000000000000 -1
      CHANMODE 0
      GUID {F3445DEF-F724-4D87-952C-4AC5DFFD8A82}
      <SOURCE WAVE
        FILE "wav\keys.wav"
      >
    >
  >
  <TRACK '{E65056CA-CD11-481C-83C6-FF98EACC7036}'
    NAME "PART REAL_KEYS_X"
    PEAKCOL 16576
    BEAT -1
    AUTOMODE 0
    VOLPAN 1.00000000000000 0.00000000000000 -1.00000000000000 -1.00000000000000 1.00000000000000
    MUTESOLO 0 0 0
    IPHASE 0
    ISBUS 0 0
    BUSCOMP 0 0
    SHOWINMIX 1 0.666700 0.500000 1 0.500000 -1 -1 -1
    FREEMODE 0
    SEL 0
    REC 0 0 0 0 0 0 0
    VU 2
    TRACKHEIGHT 0 0
    INQ 0 0 0 0.5000000000 100 0 0 100
    NCHAN 2
    FX 0
    TRACKID {E65056CA-CD11-481C-83C6-FF98EACC7036}
    PERF 0
    MIDIOUT -1
    <MIDINOTENAMES
      0 127 "TRILL MARKER"
      0 126 "GLISSANDO MARKER"
      0 125 "---"
      0 116 "OVERDRIVE"
      0 115 "SOLO"
      0 114 "---"
      0 72 "Highest playable note B#3"
      0 71 "B3"
      0 70 "A#3"
      0 69 "A3"
      0 68 "G#3"
      0 67 "G3"
      0 66 "F#3"
      0 65 "F3"
      0 64 "E3"
      0 63 "D#3"
      0 62 "D3"
      0 61 "C#3"
      0 60 "C3"
      0 59 "B2"
      0 58 "A#2"
      0 57 "A2"
      0 56 "G#2"
      0 55 "G2"
      0 54 "F#2"
      0 53 "F2"
      0 52 "E2"
      0 51 "D#2"
      0 50 "D2"
      0 49 "C#2"
      0 48 "Lowest playable note C2"
      0 10 "---"
      0 9 "Range A2-C4"
      0 8 "Range"
      0 7 "Range"
      0 6 "Range"
      0 5 "Range F2-A3"
      0 4 "Range"
      0 3 "Range"
      0 2 "Range"
      0 1 "Range"
      0 0 "Range C2-E3"
    >
    MAINSEND 1 0
    <FXCHAIN
      WNDRECT 409 51 655 467
      SHOW 0
      LASTSEL 1
      DOCKED 0
      BYPASS 0 0
      <JS "MIDI/midi_note_filter" ""
        48.000000 72.000000 - - - - - - - - - - - - - - - - - - - - - - - - - - - - - - - - - - - - - - - - - - - - - - - - - - - - - - - - - - - - - - 
      >
      FLOATPOS 0 0 0 0
      FXID {62D08684-F08B-4DF6-8858-98F4CAEA6F8E}
      WAK 0
      BYPASS 0 0
      <VST "VSTi: ReaSynth (Cockos)" "reasynth.dll" 0 ""
        eXNlcu9e7f4AAAAAAgAAAAEAAAAAAAAAAgAAAAAAAAA4AAAAAAAAAA==
        AAAQAO++rd4N8K3eppvEOxe30ToAAAAAAACAPwAAAADMm4A+6WeIPQ==
        AAAAAAAAAD8AAIA/AACAPwAAAD8AABAAAAA=
      >
      FLOATPOS 0 0 0 0
      FXID {A87E9F41-214E-4D3B-8C49-356DCE447D3E}
      WAK 0
    >
    <ITEM
      POSITION 0.00000000000000
      SNAPOFFS 0.00000000000000
      LENGTH 126.40842722848190
      LOOP 0
      ALLTAKES 0
      SEL 0
      FADEIN 1 0.000000 0.000000 1 0
      FADEOUT 1 0.000000 0.000000 1 0
      MUTE 0
      IGUID {07E6811E-CECC-4C72-90D5-E04AEE60110D}
      IID 29
      NAME "PART REAL_KEYS_X"
      VOLPAN 1.000000 0.000000 1.000000 -1.000000
      SOFFS 0.00000000000000 0.00000000000000
      PLAYRATE 1.00000000000000 1 0.00000000000000 -1
      CHANMODE 0
      GUID {5D9BB803-5966-43D2-8C28-B946C41D0A3C}
      <SOURCE MIDI
        HASDATA 1 480 QN
        POOLEDEVTS {DA88061F-C58B-4759-B9CA-64B9F8817136}
        <X 0 0
          /wNQQVJUIFJFQUxfS0VZU19Y
        >
        E 0 90 05 60
        E 120 80 05 00
        <X 3720 0
          /wFbYmVnaW5fa2V5IHNvbmdfdHJhaW5lcl9rZXlfMV0=
        >
        E 0 90 45 60
        E 120 80 45 00
        E 120 90 40 60
        E 120 80 40 00
        E 120 90 3d 60
        E 120 80 3d 00
        E 120 90 40 60
        E 120 80 40 00
        E 120 90 40 60
        E 120 80 40 00
        E 120 90 3d 60
        E 120 80 3d 00
        E 120 90 39 60
        E 120 80 39 00
        E 120 90 3d 60
        E 120 80 3d 00
        <X 120 0
          /wFba2V5X25vcm0gc29uZ190cmFpbmVyX2tleV8xXQ==
        >
        E 0 90 44 60
        E 120 80 44 00
        E 120 90 40 60
        E 120 80 40 00
        E 120 90 3b 60
        E 120 80 3b 00
        E 120 90 40 60
        E 120 80 40 00
        E 120 90 38 60
        E 120 80 38 00
        E 120 90 3b 60
        E 120 80 3b 00
        E 120 90 38 60
        E 120 80 38 00
        E 120 90 3b 60
        E 120 80 3b 00
        E 120 90 45 60
        E 120 80 45 00
        E 120 90 40 60
        E 120 80 40 00
        E 120 90 45 60
        E 120 80 45 00
        E 120 90 40 60
        E 120 80 40 00
        E 120 90 39 60
        E 120 80 39 00
        E 120 90 3b 60
        E 120 80 3b 00
        E 120 90 3d 60
        E 120 80 3d 00
        E 120 90 3b 60
        E 120 80 3b 00
        E 120 90 45 60
        E 120 80 45 00
        E 120 90 42 60
        E 120 80 42 00
        E 120 90 3e 60
        E 120 80 3e 00
        E 120 90 42 60
        E 120 80 42 00
        E 120 90 3d 60
        E 120 80 3d 00
        E 120 90 3e 60
        E 120 80 3e 00
        E 120 90 45 60
        E 120 80 45 00
        E 120 90 3e 60
        E 120 80 3e 00
        <X 120 0
          /wFbZW5kX2tleSBzb25nX3RyYWluZXJfa2V5XzFd
        >
        E 0 90 45 60
        E 0 90 74 60
        E 120 80 45 00
        E 120 90 40 60
        E 120 80 40 00
        E 120 90 3d 60
        E 120 80 3d 00
        E 120 90 40 60
        E 120 80 40 00
        E 120 90 40 60
        E 120 80 40 00
        E 120 90 3d 60
        E 120 80 3d 00
        E 120 90 39 60
        E 120 80 39 00
        E 120 90 3d 60
        E 120 80 3d 00
        E 120 90 44 60
        E 0 80 74 00
        E 120 80 44 00
        E 120 90 40 60
        E 120 80 40 00
        E 120 90 3b 60
        E 120 80 3b 00
        E 120 90 40 60
        E 120 80 40 00
        E 120 90 38 60
        E 120 80 38 00
        E 120 90 3b 60
        E 120 80 3b 00
        E 120 90 38 60
        E 120 80 38 00
        E 120 90 3b 60
        E 120 80 3b 00
        E 120 90 45 60
        E 120 80 45 00
        E 120 90 40 60
        E 120 80 40 00
        E 120 90 45 60
        E 120 80 45 00
        E 120 90 40 60
        E 120 80 40 00
        E 120 90 39 60
        E 120 80 39 00
        E 120 90 3b 60
        E 120 80 3b 00
        E 120 90 3d 60
        E 120 80 3d 00
        E 120 90 3b 60
        E 120 80 3b 00
        E 120 90 45 60
        E 120 80 45 00
        E 120 90 42 60
        E 120 80 42 00
        E 120 90 3e 60
        E 120 80 3e 00
        E 120 90 42 60
        E 120 80 42 00
        E 120 90 04 60
        E 0 90 3d 60
        E 120 80 04 00
        E 0 80 3d 00
        E 120 90 3e 60
        E 120 80 3e 00
        E 120 90 39 60
        E 120 80 39 00
        E 120 90 3e 60
        E 120 80 3e 00
        <X 120 0
          /wFbYmVnaW5fa2V5IHNvbmdfdHJhaW5lcl9rZXlfMl0=
        >
        E 0 90 39 60
        E 120 80 39 00
        E 120 90 34 60
        E 120 80 34 00
        E 120 90 39 60
        E 120 80 39 00
        E 120 90 40 60
        E 360 80 40 00
        E 120 90 39 60
        E 120 80 39 00
        E 120 90 34 60
        E 120 80 34 00
        E 120 90 3f 60
        <X 240 0
          /wFba2V5X25vcm0gc29uZ190cmFpbmVyX2tleV8yXQ==
        >
        E 120 80 3f 00
        E 120 90 39 60
        E 120 80 39 00
        E 120 90 36 60
        E 120 80 36 00
        E 120 90 3e 60
        E 360 80 3e 00
        E 120 90 39 60
        E 120 80 39 00
        E 120 90 36 60
        E 360 80 36 00
        E 120 90 39 60
        E 120 80 39 00
        E 120 90 34 60
        E 120 80 34 00
        E 120 90 39 60
        E 120 80 39 00
        E 120 90 40 60
        E 360 80 40 00
        E 120 90 39 60
        E 120 80 39 00
        E 120 90 34 60
        E 120 80 34 00
        E 120 90 3f 60
        E 360 80 3f 00
        E 120 90 39 60
        E 120 80 39 00
        E 120 90 36 60
        E 120 80 36 00
        E 120 90 3e 60
        E 360 80 3e 00
        E 120 90 39 60
        E 120 80 39 00
        <X 120 0
          /wFbZW5kX2tleSBzb25nX3RyYWluZXJfa2V5XzJd
        >
        E 0 90 36 60
        E 360 80 36 00
        E 120 90 39 60
        E 120 80 39 00
        E 120 90 34 60
        E 120 80 34 00
        E 120 90 39 60
        E 120 80 39 00
        E 120 90 40 60
        E 360 80 40 00
        E 120 90 39 60
        E 120 80 39 00
        E 120 90 34 60
        E 120 80 34 00
        E 120 90 3f 60
        E 360 80 3f 00
        E 120 90 39 60
        E 120 80 39 00
        E 120 90 36 60
        E 120 80 36 00
        E 120 90 3e 60
        E 360 80 3e 00
        E 120 90 39 60
        E 120 80 39 00
        E 120 90 36 60
        E 360 80 36 00
        E 120 90 39 60
        E 120 80 39 00
        E 120 90 34 60
        E 120 80 34 00
        E 120 90 39 60
        E 120 80 39 00
        E 120 90 40 60
        E 360 80 40 00
        E 120 90 39 60
        E 120 80 39 00
        E 120 90 34 60
        E 120 80 34 00
        E 120 90 3f 60
        E 360 80 3f 00
        E 120 90 39 60
        E 120 80 39 00
        E 120 90 36 60
        E 120 80 36 00
        E 120 90 3e 60
        E 360 80 3e 00
        E 120 90 39 60
        E 120 80 39 00
        E 120 90 36 60
        E 360 80 36 00
        E 120 90 39 60
        E 120 80 39 00
        E 120 90 34 60
        E 120 80 34 00
        E 120 90 39 60
        E 120 80 39 00
        E 120 90 40 60
        E 360 80 40 00
        E 120 90 39 60
        E 120 80 39 00
        E 120 90 34 60
        E 120 80 34 00
        E 120 90 3f 60
        E 360 80 3f 00
        E 120 90 39 60
        E 120 80 39 00
        E 120 90 36 60
        E 120 80 36 00
        E 120 90 3e 60
        E 360 80 3e 00
        E 120 90 39 60
        E 120 80 39 00
        E 120 90 36 60
        E 360 80 36 00
        E 120 90 39 60
        E 120 80 39 00
        E 120 90 34 60
        E 120 80 34 00
        E 120 90 39 60
        E 120 80 39 00
        E 120 90 40 60
        E 360 80 40 00
        E 120 90 39 60
        E 120 80 39 00
        E 120 90 34 60
        E 120 80 34 00
        E 120 90 3f 60
        E 360 80 3f 00
        E 120 90 39 60
        E 120 80 39 00
        E 120 90 36 60
        E 120 80 36 00
        E 120 90 3e 60
        E 360 80 3e 00
        E 120 90 39 60
        E 120 80 39 00
        E 120 90 36 60
        E 360 80 36 00
        E 120 90 39 60
        E 0 90 74 60
        E 120 80 39 00
        E 120 90 34 60
        E 120 80 34 00
        E 120 90 39 60
        E 120 80 39 00
        E 120 90 40 60
        E 360 80 40 00
        E 120 90 39 60
        E 120 80 39 00
        E 120 90 34 60
        E 120 80 34 00
        E 120 90 3f 60
        E 360 80 3f 00
        E 120 90 39 60
        E 120 80 39 00
        E 120 90 36 60
        E 120 80 36 00
        E 120 90 3e 60
        E 360 80 3e 00
        E 120 90 39 60
        E 120 80 39 00
        E 120 90 36 60
        E 360 80 36 00
        E 120 90 39 60
        E 120 80 39 00
        E 0 80 74 00
        E 120 90 34 60
        E 120 80 34 00
        E 120 90 39 60
        E 120 80 39 00
        E 120 90 40 60
        E 360 80 40 00
        E 120 90 39 60
        E 120 80 39 00
        E 120 90 34 60
        E 120 80 34 00
        E 120 90 3f 60
        E 360 80 3f 00
        E 120 90 39 60
        E 120 80 39 00
        E 120 90 36 60
        E 120 80 36 00
        E 120 90 3e 60
        E 360 80 3e 00
        E 120 90 39 60
        E 120 80 39 00
        E 120 90 36 60
        E 480 80 36 00
        E 0 90 05 60
        E 120 80 05 00
        E 15240 90 45 60
        E 120 80 45 00
        E 120 90 40 60
        E 120 80 40 00
        E 120 90 3d 60
        E 120 80 3d 00
        E 120 90 40 60
        E 120 80 40 00
        E 120 90 40 60
        E 120 80 40 00
        E 120 90 3d 60
        E 120 80 3d 00
        E 120 90 39 60
        E 120 80 39 00
        E 120 90 3d 60
        E 120 80 3d 00
        E 120 90 44 60
        E 120 80 44 00
        E 120 90 40 60
        E 120 80 40 00
        E 120 90 3b 60
        E 120 80 3b 00
        E 120 90 40 60
        E 120 80 40 00
        E 120 90 38 60
        E 120 80 38 00
        E 120 90 3b 60
        E 120 80 3b 00
        E 120 90 38 60
        E 120 80 38 00
        E 120 90 3b 60
        E 120 80 3b 00
        E 120 90 45 60
        E 120 80 45 00
        E 120 90 40 60
        E 120 80 40 00
        E 120 90 45 60
        E 120 80 45 00
        E 120 90 40 60
        E 120 80 40 00
        E 120 90 39 60
        E 120 80 39 00
        E 120 90 3b 60
        E 120 80 3b 00
        E 120 90 3d 60
        E 120 80 3d 00
        E 120 90 3b 60
        E 120 80 3b 00
        E 120 90 45 60
        E 120 80 45 00
        E 120 90 42 60
        E 120 80 42 00
        E 120 90 3e 60
        E 120 80 3e 00
        E 120 90 42 60
        E 120 80 42 00
        E 120 90 3d 60
        E 120 80 3d 00
        E 120 90 3e 60
        E 120 80 3e 00
        E 120 90 45 60
        E 120 80 45 00
        E 120 90 3e 60
        E 120 80 3e 00
        E 120 90 45 60
        E 0 90 74 60
        E 120 80 45 00
        E 120 90 40 60
        E 120 80 40 00
        E 120 90 3d 60
        E 120 80 3d 00
        E 120 90 40 60
        E 120 80 40 00
        E 120 90 40 60
        E 120 80 40 00
        E 120 90 3d 60
        E 120 80 3d 00
        E 120 90 39 60
        E 120 80 39 00
        E 120 90 3d 60
        E 120 80 3d 00
        E 120 90 44 60
        E 120 80 44 00
        E 120 90 40 60
        E 120 80 40 00
        E 120 90 3b 60
        E 120 80 3b 00
        E 120 90 40 60
        E 120 80 40 00
        E 120 90 38 60
        E 120 80 38 00
        E 120 90 3b 60
        E 120 80 3b 00
        E 120 90 38 60
        E 120 80 38 00
        E 120 90 3b 60
        E 120 80 3b 00
        E 120 90 45 60
        E 0 80 74 00
        E 120 80 45 00
        E 120 90 40 60
        E 120 80 40 00
        E 120 90 45 60
        E 120 80 45 00
        E 120 90 40 60
        E 120 80 40 00
        E 120 90 39 60
        E 120 80 39 00
        E 120 90 3b 60
        E 120 80 3b 00
        E 120 90 3d 60
        E 120 80 3d 00
        E 120 90 3b 60
        E 120 80 3b 00
        E 120 90 45 60
        E 120 80 45 00
        E 120 90 42 60
        E 120 80 42 00
        E 120 90 3e 60
        E 120 80 3e 00
        E 120 90 42 60
        E 120 80 42 00
        E 120 90 04 60
        E 0 90 3d 60
        E 120 80 04 00
        E 0 80 3d 00
        E 120 90 3e 60
        E 120 80 3e 00
        E 120 90 39 60
        E 120 80 39 00
        E 120 90 3e 60
        E 120 80 3e 00
        E 120 90 39 60
        E 120 80 39 00
        E 120 90 34 60
        E 120 80 34 00
        E 120 90 39 60
        E 120 80 39 00
        E 120 90 40 60
        E 360 80 40 00
        E 120 90 39 60
        E 120 80 39 00
        E 120 90 34 60
        E 120 80 34 00
        E 120 90 3f 60
        E 360 80 3f 00
        E 120 90 39 60
        E 120 80 39 00
        E 120 90 36 60
        E 120 80 36 00
        E 120 90 3e 60
        E 360 80 3e 00
        E 120 90 39 60
        E 120 80 39 00
        E 120 90 36 60
        E 360 80 36 00
        E 120 90 39 60
        E 120 80 39 00
        E 120 90 34 60
        E 120 80 34 00
        E 120 90 39 60
        E 120 80 39 00
        E 120 90 40 60
        E 360 80 40 00
        E 120 90 39 60
        E 120 80 39 00
        E 120 90 34 60
        E 120 80 34 00
        E 120 90 3f 60
        E 360 80 3f 00
        E 120 90 39 60
        E 120 80 39 00
        E 120 90 36 60
        E 120 80 36 00
        E 120 90 3e 60
        E 360 80 3e 00
        E 120 90 39 60
        E 120 80 39 00
        E 120 90 36 60
        E 360 80 36 00
        E 120 90 39 60
        E 120 80 39 00
        E 120 90 34 60
        E 120 80 34 00
        E 120 90 39 60
        E 120 80 39 00
        E 120 90 40 60
        E 360 80 40 00
        E 120 90 39 60
        E 120 80 39 00
        E 120 90 34 60
        E 120 80 34 00
        E 120 90 3f 60
        E 360 80 3f 00
        E 120 90 39 60
        E 120 80 39 00
        E 120 90 36 60
        E 120 80 36 00
        E 120 90 3e 60
        E 360 80 3e 00
        E 120 90 39 60
        E 120 80 39 00
        E 120 90 36 60
        E 360 80 36 00
        E 120 90 39 60
        E 120 80 39 00
        E 120 90 34 60
        E 120 80 34 00
        E 120 90 39 60
        E 120 80 39 00
        E 120 90 40 60
        E 360 80 40 00
        E 120 90 39 60
        E 120 80 39 00
        E 120 90 34 60
        E 120 80 34 00
        E 120 90 3f 60
        E 360 80 3f 00
        E 120 90 39 60
        E 120 80 39 00
        E 120 90 36 60
        E 120 80 36 00
        E 120 90 3e 60
        E 360 80 3e 00
        E 120 90 39 60
        E 120 80 39 00
        E 120 90 36 60
        E 360 80 36 00
        E 120 90 39 60
        E 120 80 39 00
        E 120 90 34 60
        E 120 80 34 00
        E 120 90 39 60
        E 120 80 39 00
        E 120 90 40 60
        E 360 80 40 00
        E 120 90 39 60
        E 120 80 39 00
        E 120 90 34 60
        E 120 80 34 00
        E 120 90 3f 60
        E 360 80 3f 00
        E 120 90 39 60
        E 120 80 39 00
        E 120 90 36 60
        E 120 80 36 00
        E 120 90 3e 60
        E 360 80 3e 00
        E 120 90 39 60
        E 120 80 39 00
        E 120 90 36 60
        E 360 80 36 00
        E 120 90 39 60
        E 120 80 39 00
        E 120 90 34 60
        E 120 80 34 00
        E 120 90 39 60
        E 120 80 39 00
        E 120 90 40 60
        E 360 80 40 00
        E 120 90 39 60
        E 120 80 39 00
        E 120 90 34 60
        E 120 80 34 00
        E 120 90 3f 60
        E 360 80 3f 00
        E 120 90 39 60
        E 120 80 39 00
        E 120 90 36 60
        E 120 80 36 00
        E 120 90 3e 60
        E 360 80 3e 00
        E 120 90 39 60
        E 120 80 39 00
        E 120 90 36 60
        E 360 80 36 00
        E 120 90 39 60
        E 0 90 74 60
        E 120 80 39 00
        E 120 90 34 60
        E 120 80 34 00
        E 120 90 39 60
        E 120 80 39 00
        E 120 90 40 60
        E 360 80 40 00
        E 120 90 39 60
        E 120 80 39 00
        E 120 90 34 60
        E 120 80 34 00
        E 120 90 3f 60
        E 360 80 3f 00
        E 120 90 39 60
        E 120 80 39 00
        E 120 90 36 60
        E 120 80 36 00
        E 120 90 3e 60
        E 360 80 3e 00
        E 120 90 39 60
        E 120 80 39 00
        E 120 90 36 60
        E 360 80 36 00
        E 120 90 39 60
        E 120 80 39 00
        E 0 80 74 00
        E 120 90 34 60
        E 120 80 34 00
        E 120 90 39 60
        E 120 80 39 00
        E 120 90 40 60
        E 360 80 40 00
        E 120 90 39 60
        E 120 80 39 00
        E 120 90 34 60
        E 120 80 34 00
        E 120 90 3f 60
        E 360 80 3f 00
        E 120 90 39 60
        E 120 80 39 00
        E 120 90 36 60
        E 120 80 36 00
        E 120 90 3e 60
        E 360 80 3e 00
        E 120 90 39 60
        E 120 80 39 00
        E 120 90 36 60
        E 480 80 36 00
        E 0 90 05 60
        E 120 80 05 00
        E 15240 90 45 60
        E 120 80 45 00
        E 120 90 40 60
        E 120 80 40 00
        E 120 90 3d 60
        E 120 80 3d 00
        E 120 90 40 60
        E 120 80 40 00
        E 120 90 40 60
        E 120 80 40 00
        E 120 90 3d 60
        E 120 80 3d 00
        E 120 90 39 60
        E 120 80 39 00
        E 120 90 3d 60
        E 120 80 3d 00
        E 120 90 44 60
        E 120 80 44 00
        E 120 90 40 60
        E 120 80 40 00
        E 120 90 3b 60
        E 120 80 3b 00
        E 120 90 40 60
        E 120 80 40 00
        E 120 90 38 60
        E 120 80 38 00
        E 120 90 3b 60
        E 120 80 3b 00
        E 120 90 38 60
        E 120 80 38 00
        E 120 90 3b 60
        E 120 80 3b 00
        E 120 90 45 60
        E 120 80 45 00
        E 120 90 40 60
        E 120 80 40 00
        E 120 90 45 60
        E 120 80 45 00
        E 120 90 40 60
        E 120 80 40 00
        E 120 90 39 60
        E 120 80 39 00
        E 120 90 3b 60
        E 120 80 3b 00
        E 120 90 3d 60
        E 120 80 3d 00
        E 120 90 3b 60
        E 120 80 3b 00
        E 120 90 45 60
        E 120 80 45 00
        E 120 90 42 60
        E 120 80 42 00
        E 120 90 3e 60
        E 120 80 3e 00
        E 120 90 42 60
        E 120 80 42 00
        E 120 90 3d 60
        E 120 80 3d 00
        E 120 90 3e 60
        E 120 80 3e 00
        E 120 90 45 60
        E 120 80 45 00
        E 120 90 3e 60
        E 120 80 3e 00
        E 120 90 45 60
        E 120 80 45 00
        E 120 90 40 60
        E 120 80 40 00
        E 120 90 3d 60
        E 120 80 3d 00
        E 120 90 40 60
        E 120 80 40 00
        E 120 90 40 60
        E 120 80 40 00
        E 120 90 3d 60
        E 120 80 3d 00
        E 120 90 39 60
        E 120 80 39 00
        E 120 90 3d 60
        E 120 80 3d 00
        E 120 90 44 60
        E 120 80 44 00
        E 120 90 40 60
        E 120 80 40 00
        E 120 90 3b 60
        E 120 80 3b 00
        E 120 90 40 60
        E 120 80 40 00
        E 120 90 38 60
        E 120 80 38 00
        E 120 90 3b 60
        E 120 80 3b 00
        E 120 90 38 60
        E 120 80 38 00
        E 120 90 3b 60
        E 120 80 3b 00
        E 120 90 45 60
        E 120 80 45 00
        E 120 90 40 60
        E 120 80 40 00
        E 120 90 45 60
        E 120 80 45 00
        E 120 90 40 60
        E 120 80 40 00
        E 120 90 39 60
        E 120 80 39 00
        E 120 90 3b 60
        E 120 80 3b 00
        E 120 90 3d 60
        E 120 80 3d 00
        E 120 90 3b 60
        E 120 80 3b 00
        E 120 90 45 60
        E 120 80 45 00
        E 120 90 42 60
        E 120 80 42 00
        E 120 90 3e 60
        E 120 80 3e 00
        E 120 90 42 60
        E 120 80 42 00
        E 120 90 04 60
        E 0 90 3d 60
        E 120 80 04 00
        E 0 80 3d 00
        E 120 90 3e 60
        E 120 80 3e 00
        E 120 90 39 60
        E 120 80 39 00
        E 120 90 3e 60
        E 120 80 3e 00
        E 120 90 39 60
        E 120 80 39 00
        E 120 90 34 60
        E 120 80 34 00
        E 120 90 39 60
        E 120 80 39 00
        E 120 90 40 60
        E 360 80 40 00
        E 120 90 39 60
        E 120 80 39 00
        E 120 90 34 60
        E 120 80 34 00
        E 120 90 3f 60
        E 360 80 3f 00
        E 120 90 39 60
        E 120 80 39 00
        E 120 90 36 60
        E 120 80 36 00
        E 120 90 3e 60
        E 360 80 3e 00
        E 120 90 39 60
        E 120 80 39 00
        E 120 90 36 60
        E 360 80 36 00
        E 120 90 39 60
        E 120 80 39 00
        E 120 90 34 60
        E 120 80 34 00
        E 120 90 39 60
        E 120 80 39 00
        E 120 90 40 60
        E 360 80 40 00
        E 120 90 39 60
        E 120 80 39 00
        E 120 90 34 60
        E 120 80 34 00
        E 120 90 3f 60
        E 360 80 3f 00
        E 120 90 39 60
        E 120 80 39 00
        E 120 90 36 60
        E 120 80 36 00
        E 120 90 3e 60
        E 360 80 3e 00
        E 120 90 39 60
        E 120 80 39 00
        E 120 90 36 60
        E 480 80 36 00
        E 1920 b0 7b 00
        GUID {6C6FDB74-4355-4B88-9D7E-80915F1B1598}
        IGNTEMPO 0 120.00000000 4 4
        SRCCOLOR 8
        VELLANE 132 128 128
        COLORMAP "C:\Program Files\REAPER (x64)\Data\color_maps\rockband_guitarbass.png"
        TEXTSTRINGFILE "C:\Program Files\REAPER (x64)\Data\Text_Strings\Text Events List - PRO Trainers.txt"
        CFGEDITVIEW -40.382407 89.141789 7 18 0 0 0
        CFGEDIT 1 1 0 1 1 0 1 1 1 1 1 0.25000000 66 36 1867 986 0 2 1 1 0.00000000 0 1 0 0 0.500000 0 0 1.000000 64
        KEYSNAP 0 0 "102034050607" 0 "Major"
        EVTFILTER 0 -1 -1 -1 -1 0 1 0 0 -1.00000000 -1.00000000
      >
    >
  >
  <TRACK '{B2FAEC6D-8228-45F1-985F-CD36F133DF66}'
    NAME "PART REAL_KEYS_H"
    PEAKCOL 16576
    BEAT -1
    AUTOMODE 0
    VOLPAN 1.00000000000000 0.00000000000000 -1.00000000000000 -1.00000000000000 1.00000000000000
    MUTESOLO 0 0 0
    IPHASE 0
    ISBUS 0 0
    BUSCOMP 0 0
    SHOWINMIX 1 0.666700 0.500000 1 0.500000 -1 -1 -1
    FREEMODE 0
    SEL 0
    REC 0 0 0 0 0 0 0
    VU 2
    TRACKHEIGHT 0 0
    INQ 0 0 0 0.5000000000 100 0 0 100
    NCHAN 2
    FX 0
    TRACKID {B2FAEC6D-8228-45F1-985F-CD36F133DF66}
    PERF 0
    MIDIOUT -1
    <MIDINOTENAMES
      0 127 "TRILL MARKER"
      0 126 "GLISSANDO MARKER"
      0 125 "---"
      0 116 "OVERDRIVE"
      0 115 "SOLO"
      0 114 "---"
      0 72 "Highest playable note B#3"
      0 71 "B3"
      0 70 "A#3"
      0 69 "A3"
      0 68 "G#3"
      0 67 "G3"
      0 66 "F#3"
      0 65 "F3"
      0 64 "E3"
      0 63 "D#3"
      0 62 "D3"
      0 61 "C#3"
      0 60 "C3"
      0 59 "B2"
      0 58 "A#2"
      0 57 "A2"
      0 56 "G#2"
      0 55 "G2"
      0 54 "F#2"
      0 53 "F2"
      0 52 "E2"
      0 51 "D#2"
      0 50 "D2"
      0 49 "C#2"
      0 48 "Lowest playable note C2"
      0 10 "---"
      0 9 "Range A2-C4"
      0 8 "Range"
      0 7 "Range"
      0 6 "Range"
      0 5 "Range F2-A3"
      0 4 "Range"
      0 3 "Range"
      0 2 "Range"
      0 1 "Range"
      0 0 "Range C2-E3"
    >
    MAINSEND 1 0
    <FXCHAIN
      WNDRECT 409 51 655 467
      SHOW 0
      LASTSEL 1
      DOCKED 0
      BYPASS 0 0
      <JS "MIDI/midi_note_filter" ""
        48.000000 72.000000 - - - - - - - - - - - - - - - - - - - - - - - - - - - - - - - - - - - - - - - - - - - - - - - - - - - - - - - - - - - - - - 
      >
      FLOATPOS 0 0 0 0
      FXID {62D08684-F08B-4DF6-8858-98F4CAEA6F8E}
      WAK 0
      BYPASS 0 0
      <VST "VSTi: ReaSynth (Cockos)" "reasynth.dll" 0 ""
        eXNlcu9e7f4AAAAAAgAAAAEAAAAAAAAAAgAAAAAAAAA4AAAAAAAAAA==
        AAAQAO++rd4N8K3eppvEOxe30ToAAAAAAACAPwAAAADMm4A+6WeIPQ==
        AAAAAAAAAD8AAIA/AACAPwAAAD8AABAAAAA=
      >
      FLOATPOS 0 0 0 0
      FXID {A87E9F41-214E-4D3B-8C49-356DCE447D3E}
      WAK 0
    >
    <ITEM
      POSITION 0.00000000000000
      SNAPOFFS 0.00000000000000
      LENGTH 126.40842722848190
      LOOP 0
      ALLTAKES 0
      SEL 0
      FADEIN 1 0.000000 0.000000 1 0
      FADEOUT 1 0.000000 0.000000 1 0
      MUTE 0
      IGUID {07E6811E-CECC-4C72-90D5-E04AEE60110D}
      IID 29
      NAME "PART REAL_KEYS_H"
      VOLPAN 1.000000 0.000000 1.000000 -1.000000
      SOFFS 0.00000000000000 0.00000000000000
      PLAYRATE 1.00000000000000 1 0.00000000000000 -1
      CHANMODE 0
      GUID {5D9BB803-5966-43D2-8C28-B946C41D0A3C}
      <SOURCE MIDI
        HASDATA 1 480 QN
        POOLEDEVTS {FF53A786-0642-4406-9E8B-15EEC42A10E5}
        <X 0 0
          /wNQQVJUIFJFQUxfS0VZU19I
        >
        E 0 90 05 60
        E 120 80 05 00
        E 3720 90 45 60
        E 120 80 45 00
        E 120 90 40 60
        E 120 80 40 00
        E 120 90 3d 60
        E 120 80 3d 00
        E 360 90 40 60
        E 120 80 40 00
        E 120 90 3d 60
        E 120 80 3d 00
        E 120 90 39 60
        E 120 80 39 00
        E 360 90 44 60
        E 120 80 44 00
        E 120 90 40 60
        E 120 80 40 00
        E 120 90 3b 60
        E 120 80 3b 00
        E 360 90 38 60
        E 120 80 38 00
        E 120 90 3b 60
        E 120 80 3b 00
        E 120 90 38 60
        E 120 80 38 00
        E 360 90 45 60
        E 120 80 45 00
        E 120 90 40 60
        E 120 80 40 00
        E 120 90 45 60
        E 120 80 45 00
        E 360 90 39 60
        E 120 80 39 00
        E 120 90 3b 60
        E 120 80 3b 00
        E 120 90 3d 60
        E 120 80 3d 00
        E 360 90 45 60
        E 120 80 45 00
        E 120 90 42 60
        E 120 80 42 00
        E 120 90 3e 60
        E 120 80 3e 00
        E 360 90 3d 60
        E 120 80 3d 00
        E 120 90 3e 60
        E 120 80 3e 00
        E 120 90 45 60
        E 120 80 45 00
        E 360 90 45 60
        E 120 80 45 00
        E 120 90 40 60
        E 120 80 40 00
        E 120 90 3d 60
        E 120 80 3d 00
        E 360 90 40 60
        E 120 80 40 00
        E 120 90 3d 60
        E 120 80 3d 00
        E 120 90 39 60
        E 120 80 39 00
        E 360 90 44 60
        E 120 80 44 00
        E 120 90 40 60
        E 120 80 40 00
        E 120 90 3b 60
        E 120 80 3b 00
        E 360 90 38 60
        E 120 80 38 00
        E 120 90 3b 60
        E 120 80 3b 00
        E 120 90 38 60
        E 120 80 38 00
        E 360 90 45 60
        E 120 80 45 00
        E 120 90 40 60
        E 120 80 40 00
        E 120 90 45 60
        E 120 80 45 00
        E 360 90 39 60
        E 120 80 39 00
        E 120 90 3b 60
        E 120 80 3b 00
        E 120 90 3d 60
        E 120 80 3d 00
        E 360 90 45 60
        E 120 80 45 00
        E 120 90 42 60
        E 120 80 42 00
        E 120 90 3e 60
        E 120 80 3e 00
        E 360 90 04 60
        E 0 90 3d 60
        E 120 80 04 00
        E 0 80 3d 00
        E 120 90 3e 60
        E 120 80 3e 00
        E 120 90 39 60
        E 120 80 39 00
        E 360 90 39 60
        E 120 80 39 00
        E 120 90 34 60
        E 120 80 34 00
        E 120 90 39 60
        E 120 80 39 00
        E 120 90 40 60
        E 360 80 40 00
        E 120 90 39 60
        E 120 80 39 00
        E 120 90 34 60
        E 120 80 34 00
        E 120 90 3f 60
        E 360 80 3f 00
        E 120 90 39 60
        E 120 80 39 00
        E 120 90 36 60
        E 120 80 36 00
        E 120 90 3e 60
        E 360 80 3e 00
        E 120 90 39 60
        E 120 80 39 00
        E 120 90 36 60
        E 360 80 36 00
        E 120 90 39 60
        E 120 80 39 00
        E 120 90 34 60
        E 120 80 34 00
        E 120 90 39 60
        E 120 80 39 00
        E 120 90 40 60
        E 360 80 40 00
        E 120 90 39 60
        E 120 80 39 00
        E 120 90 34 60
        E 120 80 34 00
        E 120 90 3f 60
        E 360 80 3f 00
        E 120 90 39 60
        E 120 80 39 00
        E 120 90 36 60
        E 120 80 36 00
        E 120 90 3e 60
        E 360 80 3e 00
        E 120 90 39 60
        E 120 80 39 00
        E 120 90 36 60
        E 360 80 36 00
        E 120 90 39 60
        E 120 80 39 00
        E 120 90 34 60
        E 120 80 34 00
        E 120 90 39 60
        E 120 80 39 00
        E 120 90 40 60
        E 360 80 40 00
        E 120 90 39 60
        E 120 80 39 00
        E 120 90 34 60
        E 120 80 34 00
        E 120 90 3f 60
        E 360 80 3f 00
        E 120 90 39 60
        E 120 80 39 00
        E 120 90 36 60
        E 120 80 36 00
        E 120 90 3e 60
        E 360 80 3e 00
        E 120 90 39 60
        E 120 80 39 00
        E 120 90 36 60
        E 360 80 36 00
        E 120 90 39 60
        E 120 80 39 00
        E 120 90 34 60
        E 120 80 34 00
        E 120 90 39 60
        E 120 80 39 00
        E 120 90 40 60
        E 360 80 40 00
        E 120 90 39 60
        E 120 80 39 00
        E 120 90 34 60
        E 120 80 34 00
        E 120 90 3f 60
        E 360 80 3f 00
        E 120 90 39 60
        E 120 80 39 00
        E 120 90 36 60
        E 120 80 36 00
        E 120 90 3e 60
        E 360 80 3e 00
        E 120 90 39 60
        E 120 80 39 00
        E 120 90 36 60
        E 360 80 36 00
        E 120 90 39 60
        E 120 80 39 00
        E 120 90 34 60
        E 120 80 34 00
        E 120 90 39 60
        E 120 80 39 00
        E 120 90 40 60
        E 360 80 40 00
        E 120 90 39 60
        E 120 80 39 00
        E 120 90 34 60
        E 120 80 34 00
        E 120 90 3f 60
        E 360 80 3f 00
        E 120 90 39 60
        E 120 80 39 00
        E 120 90 36 60
        E 120 80 36 00
        E 120 90 3e 60
        E 360 80 3e 00
        E 120 90 39 60
        E 120 80 39 00
        E 120 90 36 60
        E 360 80 36 00
        E 120 90 39 60
        E 120 80 39 00
        E 120 90 34 60
        E 120 80 34 00
        E 120 90 39 60
        E 120 80 39 00
        E 120 90 40 60
        E 360 80 40 00
        E 120 90 39 60
        E 120 80 39 00
        E 120 90 34 60
        E 120 80 34 00
        E 120 90 3f 60
        E 360 80 3f 00
        E 120 90 39 60
        E 120 80 39 00
        E 120 90 36 60
        E 120 80 36 00
        E 120 90 3e 60
        E 360 80 3e 00
        E 120 90 39 60
        E 120 80 39 00
        E 120 90 36 60
        E 360 80 36 00
        E 120 90 39 60
        E 120 80 39 00
        E 120 90 34 60
        E 120 80 34 00
        E 120 90 39 60
        E 120 80 39 00
        E 120 90 40 60
        E 360 80 40 00
        E 120 90 39 60
        E 120 80 39 00
        E 120 90 34 60
        E 120 80 34 00
        E 120 90 3f 60
        E 360 80 3f 00
        E 120 90 39 60
        E 120 80 39 00
        E 120 90 36 60
        E 120 80 36 00
        E 120 90 3e 60
        E 360 80 3e 00
        E 120 90 39 60
        E 120 80 39 00
        E 120 90 36 60
        E 360 80 36 00
        E 120 90 39 60
        E 120 80 39 00
        E 120 90 34 60
        E 120 80 34 00
        E 120 90 39 60
        E 120 80 39 00
        E 120 90 40 60
        E 360 80 40 00
        E 120 90 39 60
        E 120 80 39 00
        E 120 90 34 60
        E 120 80 34 00
        E 120 90 3f 60
        E 360 80 3f 00
        E 120 90 39 60
        E 120 80 39 00
        E 120 90 36 60
        E 120 80 36 00
        E 120 90 3e 60
        E 360 80 3e 00
        E 120 90 39 60
        E 120 80 39 00
        E 120 90 36 60
        E 480 80 36 00
        E 0 90 05 60
        E 120 80 05 00
        E 15240 90 45 60
        E 120 80 45 00
        E 120 90 40 60
        E 120 80 40 00
        E 120 90 3d 60
        E 120 80 3d 00
        E 360 90 40 60
        E 120 80 40 00
        E 120 90 3d 60
        E 120 80 3d 00
        E 120 90 39 60
        E 120 80 39 00
        E 360 90 44 60
        E 120 80 44 00
        E 120 90 40 60
        E 120 80 40 00
        E 120 90 3b 60
        E 120 80 3b 00
        E 360 90 38 60
        E 120 80 38 00
        E 120 90 3b 60
        E 120 80 3b 00
        E 120 90 38 60
        E 120 80 38 00
        E 360 90 45 60
        E 120 80 45 00
        E 120 90 40 60
        E 120 80 40 00
        E 120 90 45 60
        E 120 80 45 00
        E 360 90 39 60
        E 120 80 39 00
        E 120 90 3b 60
        E 120 80 3b 00
        E 120 90 3d 60
        E 120 80 3d 00
        E 360 90 45 60
        E 120 80 45 00
        E 120 90 42 60
        E 120 80 42 00
        E 120 90 3e 60
        E 120 80 3e 00
        E 360 90 3d 60
        E 120 80 3d 00
        E 120 90 3e 60
        E 120 80 3e 00
        E 120 90 45 60
        E 120 80 45 00
        E 360 90 45 60
        E 120 80 45 00
        E 120 90 40 60
        E 120 80 40 00
        E 120 90 3d 60
        E 120 80 3d 00
        E 360 90 40 60
        E 120 80 40 00
        E 120 90 3d 60
        E 120 80 3d 00
        E 120 90 39 60
        E 120 80 39 00
        E 360 90 44 60
        E 120 80 44 00
        E 120 90 40 60
        E 120 80 40 00
        E 120 90 3b 60
        E 120 80 3b 00
        E 360 90 38 60
        E 120 80 38 00
        E 120 90 3b 60
        E 120 80 3b 00
        E 120 90 38 60
        E 120 80 38 00
        E 360 90 45 60
        E 120 80 45 00
        E 120 90 40 60
        E 120 80 40 00
        E 120 90 45 60
        E 120 80 45 00
        E 360 90 39 60
        E 120 80 39 00
        E 120 90 3b 60
        E 120 80 3b 00
        E 120 90 3d 60
        E 120 80 3d 00
        E 360 90 45 60
        E 120 80 45 00
        E 120 90 42 60
        E 120 80 42 00
        E 120 90 3e 60
        E 120 80 3e 00
        E 360 90 04 60
        E 0 90 3d 60
        E 120 80 04 00
        E 0 80 3d 00
        E 120 90 3e 60
        E 120 80 3e 00
        E 120 90 39 60
        E 120 80 39 00
        E 360 90 39 60
        E 120 80 39 00
        E 120 90 34 60
        E 120 80 34 00
        E 120 90 39 60
        E 120 80 39 00
        E 120 90 40 60
        E 360 80 40 00
        E 120 90 39 60
        E 120 80 39 00
        E 120 90 34 60
        E 120 80 34 00
        E 120 90 3f 60
        E 360 80 3f 00
        E 120 90 39 60
        E 120 80 39 00
        E 120 90 36 60
        E 120 80 36 00
        E 120 90 3e 60
        E 360 80 3e 00
        E 120 90 39 60
        E 120 80 39 00
        E 120 90 36 60
        E 360 80 36 00
        E 120 90 39 60
        E 120 80 39 00
        E 120 90 34 60
        E 120 80 34 00
        E 120 90 39 60
        E 120 80 39 00
        E 120 90 40 60
        E 360 80 40 00
        E 120 90 39 60
        E 120 80 39 00
        E 120 90 34 60
        E 120 80 34 00
        E 120 90 3f 60
        E 360 80 3f 00
        E 120 90 39 60
        E 120 80 39 00
        E 120 90 36 60
        E 120 80 36 00
        E 120 90 3e 60
        E 360 80 3e 00
        E 120 90 39 60
        E 120 80 39 00
        E 120 90 36 60
        E 360 80 36 00
        E 120 90 39 60
        E 120 80 39 00
        E 120 90 34 60
        E 120 80 34 00
        E 120 90 39 60
        E 120 80 39 00
        E 120 90 40 60
        E 360 80 40 00
        E 120 90 39 60
        E 120 80 39 00
        E 120 90 34 60
        E 120 80 34 00
        E 120 90 3f 60
        E 360 80 3f 00
        E 120 90 39 60
        E 120 80 39 00
        E 120 90 36 60
        E 120 80 36 00
        E 120 90 3e 60
        E 360 80 3e 00
        E 120 90 39 60
        E 120 80 39 00
        E 120 90 36 60
        E 360 80 36 00
        E 120 90 39 60
        E 120 80 39 00
        E 120 90 34 60
        E 120 80 34 00
        E 120 90 39 60
        E 120 80 39 00
        E 120 90 40 60
        E 360 80 40 00
        E 120 90 39 60
        E 120 80 39 00
        E 120 90 34 60
        E 120 80 34 00
        E 120 90 3f 60
        E 360 80 3f 00
        E 120 90 39 60
        E 120 80 39 00
        E 120 90 36 60
        E 120 80 36 00
        E 120 90 3e 60
        E 360 80 3e 00
        E 120 90 39 60
        E 120 80 39 00
        E 120 90 36 60
        E 360 80 36 00
        E 120 90 39 60
        E 120 80 39 00
        E 120 90 34 60
        E 120 80 34 00
        E 120 90 39 60
        E 120 80 39 00
        E 120 90 40 60
        E 360 80 40 00
        E 120 90 39 60
        E 120 80 39 00
        E 120 90 34 60
        E 120 80 34 00
        E 120 90 3f 60
        E 360 80 3f 00
        E 120 90 39 60
        E 120 80 39 00
        E 120 90 36 60
        E 120 80 36 00
        E 120 90 3e 60
        E 360 80 3e 00
        E 120 90 39 60
        E 120 80 39 00
        E 120 90 36 60
        E 360 80 36 00
        E 120 90 39 60
        E 120 80 39 00
        E 120 90 34 60
        E 120 80 34 00
        E 120 90 39 60
        E 120 80 39 00
        E 120 90 40 60
        E 360 80 40 00
        E 120 90 39 60
        E 120 80 39 00
        E 120 90 34 60
        E 120 80 34 00
        E 120 90 3f 60
        E 360 80 3f 00
        E 120 90 39 60
        E 120 80 39 00
        E 120 90 36 60
        E 120 80 36 00
        E 120 90 3e 60
        E 360 80 3e 00
        E 120 90 39 60
        E 120 80 39 00
        E 120 90 36 60
        E 360 80 36 00
        E 120 90 39 60
        E 120 80 39 00
        E 120 90 34 60
        E 120 80 34 00
        E 120 90 39 60
        E 120 80 39 00
        E 120 90 40 60
        E 360 80 40 00
        E 120 90 39 60
        E 120 80 39 00
        E 120 90 34 60
        E 120 80 34 00
        E 120 90 3f 60
        E 360 80 3f 00
        E 120 90 39 60
        E 120 80 39 00
        E 120 90 36 60
        E 120 80 36 00
        E 120 90 3e 60
        E 360 80 3e 00
        E 120 90 39 60
        E 120 80 39 00
        E 120 90 36 60
        E 360 80 36 00
        E 120 90 39 60
        E 120 80 39 00
        E 120 90 34 60
        E 120 80 34 00
        E 120 90 39 60
        E 120 80 39 00
        E 120 90 40 60
        E 360 80 40 00
        E 120 90 39 60
        E 120 80 39 00
        E 120 90 34 60
        E 120 80 34 00
        E 120 90 3f 60
        E 360 80 3f 00
        E 120 90 39 60
        E 120 80 39 00
        E 120 90 36 60
        E 120 80 36 00
        E 120 90 3e 60
        E 360 80 3e 00
        E 120 90 39 60
        E 120 80 39 00
        E 120 90 36 60
        E 480 80 36 00
        E 0 90 05 60
        E 120 80 05 00
        E 15240 90 45 60
        E 120 80 45 00
        E 120 90 40 60
        E 120 80 40 00
        E 120 90 3d 60
        E 120 80 3d 00
        E 360 90 40 60
        E 120 80 40 00
        E 120 90 3d 60
        E 120 80 3d 00
        E 120 90 39 60
        E 120 80 39 00
        E 360 90 44 60
        E 120 80 44 00
        E 120 90 40 60
        E 120 80 40 00
        E 120 90 3b 60
        E 120 80 3b 00
        E 360 90 38 60
        E 120 80 38 00
        E 120 90 3b 60
        E 120 80 3b 00
        E 120 90 38 60
        E 120 80 38 00
        E 360 90 45 60
        E 120 80 45 00
        E 120 90 40 60
        E 120 80 40 00
        E 120 90 45 60
        E 120 80 45 00
        E 360 90 39 60
        E 120 80 39 00
        E 120 90 3b 60
        E 120 80 3b 00
        E 120 90 3d 60
        E 120 80 3d 00
        E 360 90 45 60
        E 120 80 45 00
        E 120 90 42 60
        E 120 80 42 00
        E 120 90 3e 60
        E 120 80 3e 00
        E 360 90 3d 60
        E 120 80 3d 00
        E 120 90 3e 60
        E 120 80 3e 00
        E 120 90 45 60
        E 120 80 45 00
        E 360 90 45 60
        E 120 80 45 00
        E 120 90 40 60
        E 120 80 40 00
        E 120 90 3d 60
        E 120 80 3d 00
        E 360 90 40 60
        E 120 80 40 00
        E 120 90 3d 60
        E 120 80 3d 00
        E 120 90 39 60
        E 120 80 39 00
        E 360 90 44 60
        E 120 80 44 00
        E 120 90 40 60
        E 120 80 40 00
        E 120 90 3b 60
        E 120 80 3b 00
        E 360 90 38 60
        E 120 80 38 00
        E 120 90 3b 60
        E 120 80 3b 00
        E 120 90 38 60
        E 120 80 38 00
        E 360 90 45 60
        E 120 80 45 00
        E 120 90 40 60
        E 120 80 40 00
        E 120 90 45 60
        E 120 80 45 00
        E 360 90 39 60
        E 120 80 39 00
        E 120 90 3b 60
        E 120 80 3b 00
        E 120 90 3d 60
        E 120 80 3d 00
        E 360 90 45 60
        E 120 80 45 00
        E 120 90 42 60
        E 120 80 42 00
        E 120 90 3e 60
        E 120 80 3e 00
        E 360 90 04 60
        E 0 90 3d 60
        E 120 80 04 00
        E 0 80 3d 00
        E 120 90 3e 60
        E 120 80 3e 00
        E 120 90 39 60
        E 120 80 39 00
        E 360 90 39 60
        E 120 80 39 00
        E 120 90 34 60
        E 120 80 34 00
        E 120 90 39 60
        E 120 80 39 00
        E 120 90 40 60
        E 360 80 40 00
        E 120 90 39 60
        E 120 80 39 00
        E 120 90 34 60
        E 120 80 34 00
        E 120 90 3f 60
        E 360 80 3f 00
        E 120 90 39 60
        E 120 80 39 00
        E 120 90 36 60
        E 120 80 36 00
        E 120 90 3e 60
        E 360 80 3e 00
        E 120 90 39 60
        E 120 80 39 00
        E 120 90 36 60
        E 360 80 36 00
        E 120 90 39 60
        E 120 80 39 00
        E 120 90 34 60
        E 120 80 34 00
        E 120 90 39 60
        E 120 80 39 00
        E 120 90 40 60
        E 360 80 40 00
        E 120 90 39 60
        E 120 80 39 00
        E 120 90 34 60
        E 120 80 34 00
        E 120 90 3f 60
        E 360 80 3f 00
        E 120 90 39 60
        E 120 80 39 00
        E 120 90 36 60
        E 120 80 36 00
        E 120 90 3e 60
        E 360 80 3e 00
        E 120 90 39 60
        E 120 80 39 00
        E 120 90 36 60
        E 480 80 36 00
        E 1920 b0 7b 00
        GUID {6C6FDB74-4355-4B88-9D7E-80915F1B1598}
        IGNTEMPO 0 120.00000000 4 4
        SRCCOLOR 8
        VELLANE 132 128 128
        COLORMAP "C:\Program Files\REAPER (x64)\Data\color_maps\rockband_guitarbass.png"
        TEXTSTRINGFILE "C:\Program Files\REAPER (x64)\Data\Text_Strings\Text Events List - PRO Trainers.txt"
        CFGEDITVIEW 135893.969930 125.471816 7 18 0 0 0
        CFGEDIT 1 1 0 1 1 0 1 1 1 1 1 0.25000000 66 36 1867 986 0 2 1 1 0.00000000 0 1 0 0 0.500000 0 0 1.000000 64
        KEYSNAP 0 0 "102034050607" 0 "Major"
        EVTFILTER 0 -1 -1 -1 -1 0 1 0 0 -1.00000000 -1.00000000
      >
    >
  >
  <TRACK '{2F288F3C-01A0-4470-8781-47B9BAFDBF93}'
    NAME "PART REAL_KEYS_M"
    PEAKCOL 16576
    BEAT -1
    AUTOMODE 0
    VOLPAN 1.00000000000000 0.00000000000000 -1.00000000000000 -1.00000000000000 1.00000000000000
    MUTESOLO 0 0 0
    IPHASE 0
    ISBUS 0 0
    BUSCOMP 0 0
    SHOWINMIX 1 0.666700 0.500000 1 0.500000 -1 -1 -1
    FREEMODE 0
    SEL 0
    REC 0 0 0 0 0 0 0
    VU 2
    TRACKHEIGHT 0 0
    INQ 0 0 0 0.5000000000 100 0 0 100
    NCHAN 2
    FX 0
    TRACKID {2F288F3C-01A0-4470-8781-47B9BAFDBF93}
    PERF 0
    MIDIOUT -1
    <MIDINOTENAMES
      0 127 "TRILL MARKER"
      0 126 "GLISSANDO MARKER"
      0 125 "---"
      0 116 "OVERDRIVE"
      0 115 "SOLO"
      0 114 "---"
      0 72 "Highest playable note B#3"
      0 71 "B3"
      0 70 "A#3"
      0 69 "A3"
      0 68 "G#3"
      0 67 "G3"
      0 66 "F#3"
      0 65 "F3"
      0 64 "E3"
      0 63 "D#3"
      0 62 "D3"
      0 61 "C#3"
      0 60 "C3"
      0 59 "B2"
      0 58 "A#2"
      0 57 "A2"
      0 56 "G#2"
      0 55 "G2"
      0 54 "F#2"
      0 53 "F2"
      0 52 "E2"
      0 51 "D#2"
      0 50 "D2"
      0 49 "C#2"
      0 48 "Lowest playable note C2"
      0 10 "---"
      0 9 "Range A2-C4"
      0 8 "Range"
      0 7 "Range"
      0 6 "Range"
      0 5 "Range F2-A3"
      0 4 "Range"
      0 3 "Range"
      0 2 "Range"
      0 1 "Range"
      0 0 "Range C2-E3"
    >
    MAINSEND 1 0
    <FXCHAIN
      WNDRECT 409 51 655 467
      SHOW 0
      LASTSEL 1
      DOCKED 0
      BYPASS 0 0
      <JS "MIDI/midi_note_filter" ""
        48.000000 72.000000 - - - - - - - - - - - - - - - - - - - - - - - - - - - - - - - - - - - - - - - - - - - - - - - - - - - - - - - - - - - - - - 
      >
      FLOATPOS 0 0 0 0
      FXID {62D08684-F08B-4DF6-8858-98F4CAEA6F8E}
      WAK 0
      BYPASS 0 0
      <VST "VSTi: ReaSynth (Cockos)" "reasynth.dll" 0 ""
        eXNlcu9e7f4AAAAAAgAAAAEAAAAAAAAAAgAAAAAAAAA4AAAAAAAAAA==
        AAAQAO++rd4N8K3eppvEOxe30ToAAAAAAACAPwAAAADMm4A+6WeIPQ==
        AAAAAAAAAD8AAIA/AACAPwAAAD8AABAAAAA=
      >
      FLOATPOS 0 0 0 0
      FXID {A87E9F41-214E-4D3B-8C49-356DCE447D3E}
      WAK 0
    >
    <ITEM
      POSITION 0.00000000000000
      SNAPOFFS 0.00000000000000
      LENGTH 126.40842722848190
      LOOP 0
      ALLTAKES 0
      SEL 0
      FADEIN 1 0.000000 0.000000 1 0
      FADEOUT 1 0.000000 0.000000 1 0
      MUTE 0
      IGUID {07E6811E-CECC-4C72-90D5-E04AEE60110D}
      IID 29
      NAME "PART REAL_KEYS_M"
      VOLPAN 1.000000 0.000000 1.000000 -1.000000
      SOFFS 0.00000000000000 0.00000000000000
      PLAYRATE 1.00000000000000 1 0.00000000000000 -1
      CHANMODE 0
      GUID {5D9BB803-5966-43D2-8C28-B946C41D0A3C}
      <SOURCE MIDI
        HASDATA 1 480 QN
        POOLEDEVTS {91309763-81B2-42AD-BA05-0D64E3DB5114}
        <X 0 0
          /wNQQVJUIFJFQUxfS0VZU19N
        >
        E 0 90 05 60
        E 120 80 05 00
        E 3720 90 45 60
        E 120 80 45 00
        E 840 90 40 60
        E 120 80 40 00
        E 840 90 44 60
        E 120 80 44 00
        E 840 90 44 60
        E 120 80 44 00
        E 840 90 45 60
        E 120 80 45 00
        E 840 90 45 60
        E 120 80 45 00
        E 840 90 45 60
        E 120 80 45 00
        E 840 90 3d 60
        E 120 80 3d 00
        E 840 90 45 60
        E 120 80 45 00
        E 840 90 40 60
        E 120 80 40 00
        E 840 90 44 60
        E 120 80 44 00
        E 840 90 44 60
        E 120 80 44 00
        E 840 90 45 60
        E 120 80 45 00
        E 840 90 45 60
        E 120 80 45 00
        E 840 90 45 60
        E 120 80 45 00
        E 840 90 3d 60
        E 120 80 3d 00
        E 840 90 39 60
        E 120 80 39 00
        E 600 90 40 60
        E 360 80 40 00
        E 600 90 3f 60
        E 360 80 3f 00
        E 600 90 3e 60
        E 360 80 3e 00
        E 360 90 36 60
        E 120 80 36 00
        E 360 90 39 60
        E 120 80 39 00
        E 600 90 40 60
        E 360 80 40 00
        E 600 90 3f 60
        E 360 80 3f 00
        E 600 90 3e 60
        E 360 80 3e 00
        E 360 90 36 60
        E 120 80 36 00
        E 360 90 39 60
        E 120 80 39 00
        E 600 90 40 60
        E 360 80 40 00
        E 600 90 3f 60
        E 360 80 3f 00
        E 600 90 3e 60
        E 360 80 3e 00
        E 360 90 36 60
        E 120 80 36 00
        E 360 90 39 60
        E 120 80 39 00
        E 600 90 40 60
        E 360 80 40 00
        E 600 90 3f 60
        E 360 80 3f 00
        E 600 90 3e 60
        E 360 80 3e 00
        E 360 90 36 60
        E 120 80 36 00
        E 360 90 39 60
        E 120 80 39 00
        E 600 90 40 60
        E 360 80 40 00
        E 600 90 3f 60
        E 360 80 3f 00
        E 600 90 3e 60
        E 360 80 3e 00
        E 360 90 36 60
        E 120 80 36 00
        E 360 90 39 60
        E 120 80 39 00
        E 600 90 40 60
        E 360 80 40 00
        E 600 90 3f 60
        E 360 80 3f 00
        E 600 90 3e 60
        E 360 80 3e 00
        E 360 90 36 60
        E 120 80 36 00
        E 360 90 39 60
        E 120 80 39 00
        E 600 90 40 60
        E 360 80 40 00
        E 600 90 3f 60
        E 360 80 3f 00
        E 600 90 3e 60
        E 360 80 3e 00
        E 360 90 36 60
        E 120 80 36 00
        E 360 90 39 60
        E 120 80 39 00
        E 600 90 40 60
        E 360 80 40 00
        E 600 90 3f 60
        E 360 80 3f 00
        E 600 90 3e 60
        E 360 80 3e 00
        E 360 90 36 60
        E 120 80 36 00
        E 15720 90 45 60
        E 120 80 45 00
        E 840 90 40 60
        E 120 80 40 00
        E 840 90 44 60
        E 120 80 44 00
        E 840 90 44 60
        E 120 80 44 00
        E 840 90 45 60
        E 120 80 45 00
        E 840 90 45 60
        E 120 80 45 00
        E 840 90 45 60
        E 120 80 45 00
        E 840 90 3d 60
        E 120 80 3d 00
        E 840 90 45 60
        E 120 80 45 00
        E 840 90 40 60
        E 120 80 40 00
        E 840 90 44 60
        E 120 80 44 00
        E 840 90 44 60
        E 120 80 44 00
        E 840 90 45 60
        E 120 80 45 00
        E 840 90 45 60
        E 120 80 45 00
        E 840 90 45 60
        E 120 80 45 00
        E 840 90 3d 60
        E 120 80 3d 00
        E 840 90 39 60
        E 120 80 39 00
        E 600 90 40 60
        E 360 80 40 00
        E 600 90 3f 60
        E 360 80 3f 00
        E 600 90 3e 60
        E 360 80 3e 00
        E 360 90 36 60
        E 120 80 36 00
        E 360 90 39 60
        E 120 80 39 00
        E 600 90 40 60
        E 360 80 40 00
        E 600 90 3f 60
        E 360 80 3f 00
        E 600 90 3e 60
        E 360 80 3e 00
        E 360 90 36 60
        E 120 80 36 00
        E 360 90 39 60
        E 120 80 39 00
        E 600 90 40 60
        E 360 80 40 00
        E 600 90 3f 60
        E 360 80 3f 00
        E 600 90 3e 60
        E 360 80 3e 00
        E 360 90 36 60
        E 120 80 36 00
        E 360 90 39 60
        E 120 80 39 00
        E 600 90 40 60
        E 360 80 40 00
        E 600 90 3f 60
        E 360 80 3f 00
        E 600 90 3e 60
        E 360 80 3e 00
        E 360 90 36 60
        E 120 80 36 00
        E 360 90 39 60
        E 120 80 39 00
        E 600 90 40 60
        E 360 80 40 00
        E 600 90 3f 60
        E 360 80 3f 00
        E 600 90 3e 60
        E 360 80 3e 00
        E 360 90 36 60
        E 120 80 36 00
        E 360 90 39 60
        E 120 80 39 00
        E 600 90 40 60
        E 360 80 40 00
        E 600 90 3f 60
        E 360 80 3f 00
        E 600 90 3e 60
        E 360 80 3e 00
        E 360 90 36 60
        E 120 80 36 00
        E 360 90 39 60
        E 120 80 39 00
        E 600 90 40 60
        E 360 80 40 00
        E 600 90 3f 60
        E 360 80 3f 00
        E 600 90 3e 60
        E 360 80 3e 00
        E 360 90 36 60
        E 120 80 36 00
        E 360 90 39 60
        E 120 80 39 00
        E 600 90 40 60
        E 360 80 40 00
        E 600 90 3f 60
        E 360 80 3f 00
        E 600 90 3e 60
        E 360 80 3e 00
        E 360 90 36 60
        E 120 80 36 00
        E 15720 90 45 60
        E 120 80 45 00
        E 840 90 40 60
        E 120 80 40 00
        E 840 90 44 60
        E 120 80 44 00
        E 840 90 44 60
        E 120 80 44 00
        E 840 90 45 60
        E 120 80 45 00
        E 840 90 45 60
        E 120 80 45 00
        E 840 90 45 60
        E 120 80 45 00
        E 840 90 3d 60
        E 120 80 3d 00
        E 840 90 45 60
        E 120 80 45 00
        E 840 90 40 60
        E 120 80 40 00
        E 840 90 44 60
        E 120 80 44 00
        E 840 90 44 60
        E 120 80 44 00
        E 840 90 45 60
        E 120 80 45 00
        E 840 90 45 60
        E 120 80 45 00
        E 840 90 45 60
        E 120 80 45 00
        E 840 90 3d 60
        E 120 80 3d 00
        E 840 90 39 60
        E 120 80 39 00
        E 600 90 40 60
        E 360 80 40 00
        E 600 90 3f 60
        E 360 80 3f 00
        E 600 90 3e 60
        E 360 80 3e 00
        E 360 90 36 60
        E 120 80 36 00
        E 360 90 39 60
        E 120 80 39 00
        E 600 90 40 60
        E 360 80 40 00
        E 600 90 3f 60
        E 360 80 3f 00
        E 600 90 3e 60
        E 360 80 3e 00
        E 360 90 36 60
        E 480 80 36 00
        E 1920 b0 7b 00
        GUID {6C6FDB74-4355-4B88-9D7E-80915F1B1598}
        IGNTEMPO 0 120.00000000 4 4
        SRCCOLOR 8
        VELLANE 132 128 128
        COLORMAP "C:\Program Files\REAPER (x64)\Data\color_maps\rockband_guitarbass.png"
        TEXTSTRINGFILE "C:\Program Files\REAPER (x64)\Data\Text_Strings\Text Events List - PRO Trainers.txt"
        CFGEDITVIEW -1315.985182 70.208876 0 18 0 0 0
        CFGEDIT 1 1 0 1 1 0 1 1 1 1 1 0.25000000 -8 -8 1928 1088 0 2 1 1 0.00000000 0 1 0 0 0.500000 0 0 1.000000 64
        KEYSNAP 0 0 "102034050607" 0 "Major"
        EVTFILTER 0 -1 -1 -1 -1 0 1 0 0 -1.00000000 -1.00000000
      >
    >
  >
  <TRACK '{C3931945-C1BF-4DEA-9B0E-135B3215C9D4}'
    NAME "PART REAL_KEYS_E"
    PEAKCOL 16576
    BEAT -1
    AUTOMODE 0
    VOLPAN 1.00000000000000 0.00000000000000 -1.00000000000000 -1.00000000000000 1.00000000000000
    MUTESOLO 0 0 0
    IPHASE 0
    ISBUS 0 0
    BUSCOMP 0 0
    SHOWINMIX 1 0.666700 0.500000 1 0.500000 -1 -1 -1
    FREEMODE 0
    SEL 0
    REC 0 0 0 0 0 0 0
    VU 2
    TRACKHEIGHT 0 0
    INQ 0 0 0 0.5000000000 100 0 0 100
    NCHAN 2
    FX 0
    TRACKID {C3931945-C1BF-4DEA-9B0E-135B3215C9D4}
    PERF 0
    MIDIOUT -1
    <MIDINOTENAMES
      0 127 "TRILL MARKER"
      0 126 "GLISSANDO MARKER"
      0 125 "---"
      0 116 "OVERDRIVE"
      0 115 "SOLO"
      0 114 "---"
      0 72 "Highest playable note B#3"
      0 71 "B3"
      0 70 "A#3"
      0 69 "A3"
      0 68 "G#3"
      0 67 "G3"
      0 66 "F#3"
      0 65 "F3"
      0 64 "E3"
      0 63 "D#3"
      0 62 "D3"
      0 61 "C#3"
      0 60 "C3"
      0 59 "B2"
      0 58 "A#2"
      0 57 "A2"
      0 56 "G#2"
      0 55 "G2"
      0 54 "F#2"
      0 53 "F2"
      0 52 "E2"
      0 51 "D#2"
      0 50 "D2"
      0 49 "C#2"
      0 48 "Lowest playable note C2"
      0 10 "---"
      0 9 "Range A2-C4"
      0 8 "Range"
      0 7 "Range"
      0 6 "Range"
      0 5 "Range F2-A3"
      0 4 "Range"
      0 3 "Range"
      0 2 "Range"
      0 1 "Range"
      0 0 "Range C2-E3"
    >
    MAINSEND 1 0
    <FXCHAIN
      WNDRECT 409 51 655 467
      SHOW 0
      LASTSEL 1
      DOCKED 0
      BYPASS 0 0
      <JS "MIDI/midi_note_filter" ""
        48.000000 72.000000 - - - - - - - - - - - - - - - - - - - - - - - - - - - - - - - - - - - - - - - - - - - - - - - - - - - - - - - - - - - - - - 
      >
      FLOATPOS 0 0 0 0
      FXID {62D08684-F08B-4DF6-8858-98F4CAEA6F8E}
      WAK 0
      BYPASS 0 0
      <VST "VSTi: ReaSynth (Cockos)" "reasynth.dll" 0 ""
        eXNlcu9e7f4AAAAAAgAAAAEAAAAAAAAAAgAAAAAAAAA4AAAAAAAAAA==
        AAAQAO++rd4N8K3eppvEOxe30ToAAAAAAACAPwAAAADMm4A+6WeIPQ==
        AAAAAAAAAD8AAIA/AACAPwAAAD8AABAAAAA=
      >
      FLOATPOS 0 0 0 0
      FXID {A87E9F41-214E-4D3B-8C49-356DCE447D3E}
      WAK 0
    >
    <ITEM
      POSITION 0.00000000000000
      SNAPOFFS 0.00000000000000
      LENGTH 126.40842722848190
      LOOP 0
      ALLTAKES 0
      SEL 0
      FADEIN 1 0.000000 0.000000 1 0
      FADEOUT 1 0.000000 0.000000 1 0
      MUTE 0
      IGUID {07E6811E-CECC-4C72-90D5-E04AEE60110D}
      IID 29
      NAME "PART REAL_KEYS_E"
      VOLPAN 1.000000 0.000000 1.000000 -1.000000
      SOFFS 0.00000000000000 0.00000000000000
      PLAYRATE 1.00000000000000 1 0.00000000000000 -1
      CHANMODE 0
      GUID {5D9BB803-5966-43D2-8C28-B946C41D0A3C}
      <SOURCE MIDI
        HASDATA 1 480 QN
        POOLEDEVTS {E5AEA30C-DDD6-4A78-91BD-AB7F46D1B4FA}
        <X 0 0
          /wNQQVJUIFJFQUxfS0VZU19F
        >
        E 0 90 05 60
        E 120 80 05 00
        E 3720 90 45 60
        E 120 80 45 00
        E 1800 90 44 60
        E 120 80 44 00
        E 1800 90 45 60
        E 120 80 45 00
        E 1800 90 45 60
        E 120 80 45 00
        E 1800 90 45 60
        E 120 80 45 00
        E 1800 90 44 60
        E 120 80 44 00
        E 1800 90 45 60
        E 120 80 45 00
        E 1800 90 45 60
        E 120 80 45 00
        E 2520 90 40 60
        E 360 80 40 00
        E 600 90 3f 60
        E 360 80 3f 00
        E 600 90 3e 60
        E 360 80 3e 00
        E 1560 90 40 60
        E 360 80 40 00
        E 600 90 3f 60
        E 360 80 3f 00
        E 600 90 3e 60
        E 360 80 3e 00
        E 1560 90 40 60
        E 360 80 40 00
        E 600 90 3f 60
        E 360 80 3f 00
        E 600 90 3e 60
        E 360 80 3e 00
        E 1560 90 40 60
        E 360 80 40 00
        E 600 90 3f 60
        E 360 80 3f 00
        E 600 90 3e 60
        E 360 80 3e 00
        E 1560 90 40 60
        E 360 80 40 00
        E 600 90 3f 60
        E 360 80 3f 00
        E 600 90 3e 60
        E 360 80 3e 00
        E 1560 90 40 60
        E 360 80 40 00
        E 600 90 3f 60
        E 360 80 3f 00
        E 600 90 3e 60
        E 360 80 3e 00
        E 1560 90 40 60
        E 360 80 40 00
        E 600 90 3f 60
        E 360 80 3f 00
        E 600 90 3e 60
        E 360 80 3e 00
        E 1560 90 40 60
        E 360 80 40 00
        E 600 90 3f 60
        E 360 80 3f 00
        E 600 90 3e 60
        E 360 80 3e 00
        E 16200 90 45 60
        E 120 80 45 00
        E 1800 90 44 60
        E 120 80 44 00
        E 1800 90 45 60
        E 120 80 45 00
        E 1800 90 45 60
        E 120 80 45 00
        E 1800 90 45 60
        E 120 80 45 00
        E 1800 90 44 60
        E 120 80 44 00
        E 1800 90 45 60
        E 120 80 45 00
        E 1800 90 45 60
        E 120 80 45 00
        E 2520 90 40 60
        E 360 80 40 00
        E 600 90 3f 60
        E 360 80 3f 00
        E 600 90 3e 60
        E 360 80 3e 00
        E 1560 90 40 60
        E 360 80 40 00
        E 600 90 3f 60
        E 360 80 3f 00
        E 600 90 3e 60
        E 360 80 3e 00
        E 1560 90 40 60
        E 360 80 40 00
        E 600 90 3f 60
        E 360 80 3f 00
        E 600 90 3e 60
        E 360 80 3e 00
        E 1560 90 40 60
        E 360 80 40 00
        E 600 90 3f 60
        E 360 80 3f 00
        E 600 90 3e 60
        E 360 80 3e 00
        E 1560 90 40 60
        E 360 80 40 00
        E 600 90 3f 60
        E 360 80 3f 00
        E 600 90 3e 60
        E 360 80 3e 00
        E 1560 90 40 60
        E 360 80 40 00
        E 600 90 3f 60
        E 360 80 3f 00
        E 600 90 3e 60
        E 360 80 3e 00
        E 1560 90 40 60
        E 360 80 40 00
        E 600 90 3f 60
        E 360 80 3f 00
        E 600 90 3e 60
        E 360 80 3e 00
        E 1560 90 40 60
        E 360 80 40 00
        E 600 90 3f 60
        E 360 80 3f 00
        E 600 90 3e 60
        E 360 80 3e 00
        E 16200 90 45 60
        E 120 80 45 00
        E 1800 90 44 60
        E 120 80 44 00
        E 1800 90 45 60
        E 120 80 45 00
        E 1800 90 45 60
        E 120 80 45 00
        E 1800 90 45 60
        E 120 80 45 00
        E 1800 90 44 60
        E 120 80 44 00
        E 1800 90 45 60
        E 120 80 45 00
        E 1800 90 45 60
        E 120 80 45 00
        E 2520 90 40 60
        E 360 80 40 00
        E 600 90 3f 60
        E 360 80 3f 00
        E 600 90 3e 60
        E 360 80 3e 00
        E 1560 90 40 60
        E 360 80 40 00
        E 600 90 3f 60
        E 360 80 3f 00
        E 600 90 3e 60
        E 360 80 3e 00
        E 2760 b0 7b 00
        GUID {6C6FDB74-4355-4B88-9D7E-80915F1B1598}
        IGNTEMPO 0 120.00000000 4 4
        SRCCOLOR 8
        VELLANE 132 128 128
        COLORMAP "C:\Program Files\REAPER (x64)\Data\color_maps\rockband_guitarbass.png"
        TEXTSTRINGFILE "C:\Program Files\REAPER (x64)\Data\Text_Strings\Text Events List - PRO Trainers.txt"
        CFGEDITVIEW -8060.290374 11.462843 0 18 0 0 0
        CFGEDIT 1 1 0 1 1 0 1 1 1 1 1 0.25000000 -8 -8 1928 1088 0 2 1 1 0.00000000 0 1 0 0 0.500000 0 0 1.000000 64
        KEYSNAP 0 0 "102034050607" 0 "Major"
        EVTFILTER 0 -1 -1 -1 -1 0 1 0 0 -1.00000000 -1.00000000
      >
    >
  >
  <TRACK '{B40D4F88-6CB4-4409-9999-EEA244404DC2}'
    NAME "PART KEYS_ANIM_RH"
    PEAKCOL 16576
    BEAT -1
    AUTOMODE 0
    VOLPAN 1.00000000000000 0.00000000000000 -1.00000000000000 -1.00000000000000 1.00000000000000
    MUTESOLO 0 0 0
    IPHASE 0
    ISBUS 0 0
    BUSCOMP 0 0
    SHOWINMIX 1 0.666700 0.500000 1 0.500000 -1 -1 -1
    FREEMODE 0
    SEL 0
    REC 0 0 0 0 0 0 0
    VU 2
    TRACKHEIGHT 0 0
    INQ 0 0 0 0.5000000000 100 0 0 100
    NCHAN 2
    FX 0
    TRACKID {B40D4F88-6CB4-4409-9999-EEA244404DC2}
    PERF 0
    MIDIOUT -1
    <MIDINOTENAMES
      0 127 "TRILL MARKER"
      0 126 "GLISSANDO MARKER"
      0 125 "---"
      0 116 "OVERDRIVE"
      0 115 "SOLO"
      0 114 "---"
      0 72 "Highest playable note B#3"
      0 71 "B3"
      0 70 "A#3"
      0 69 "A3"
      0 68 "G#3"
      0 67 "G3"
      0 66 "F#3"
      0 65 "F3"
      0 64 "E3"
      0 63 "D#3"
      0 62 "D3"
      0 61 "C#3"
      0 60 "C3"
      0 59 "B2"
      0 58 "A#2"
      0 57 "A2"
      0 56 "G#2"
      0 55 "G2"
      0 54 "F#2"
      0 53 "F2"
      0 52 "E2"
      0 51 "D#2"
      0 50 "D2"
      0 49 "C#2"
      0 48 "Lowest playable note C2"
      0 10 "---"
      0 9 "Range A2-C4"
      0 8 "Range"
      0 7 "Range"
      0 6 "Range"
      0 5 "Range F2-A3"
      0 4 "Range"
      0 3 "Range"
      0 2 "Range"
      0 1 "Range"
      0 0 "Range C2-E3"
    >
    MAINSEND 1 0
    <FXCHAIN
      WNDRECT 409 51 655 467
      SHOW 0
      LASTSEL 1
      DOCKED 0
      BYPASS 0 0
      <JS "MIDI/midi_note_filter" ""
        48.000000 72.000000 - - - - - - - - - - - - - - - - - - - - - - - - - - - - - - - - - - - - - - - - - - - - - - - - - - - - - - - - - - - - - - 
      >
      FLOATPOS 0 0 0 0
      FXID {62D08684-F08B-4DF6-8858-98F4CAEA6F8E}
      WAK 0
      BYPASS 0 0
      <VST "VSTi: ReaSynth (Cockos)" "reasynth.dll" 0 ""
        eXNlcu9e7f4AAAAAAgAAAAEAAAAAAAAAAgAAAAAAAAA4AAAAAAAAAA==
        AAAQAO++rd4N8K3eppvEOxe30ToAAAAAAACAPwAAAADMm4A+6WeIPQ==
        AAAAAAAAAD8AAIA/AACAPwAAAD8AABAAAAA=
      >
      FLOATPOS 0 0 0 0
      FXID {A87E9F41-214E-4D3B-8C49-356DCE447D3E}
      WAK 0
    >
    <ITEM
      POSITION 0.00000000000000
      SNAPOFFS 0.00000000000000
      LENGTH 126.40842722848190
      LOOP 0
      ALLTAKES 0
      SEL 0
      FADEIN 1 0.000000 0.000000 1 0
      FADEOUT 1 0.000000 0.000000 1 0
      MUTE 0
      IGUID {07E6811E-CECC-4C72-90D5-E04AEE60110D}
      IID 29
      NAME "PART KEYS_ANIM_RH"
      VOLPAN 1.000000 0.000000 1.000000 -1.000000
      SOFFS 0.00000000000000 0.00000000000000
      PLAYRATE 1.00000000000000 1 0.00000000000000 -1
      CHANMODE 0
      GUID {5D9BB803-5966-43D2-8C28-B946C41D0A3C}
      <SOURCE MIDI
        HASDATA 1 480 QN
        POOLEDEVTS {7F5EE639-BE98-46BF-85DD-3144F14F9039}
        <X 0 0
          /wNQQVJUIEtFWVNfQU5JTV9SSA==
        >
        E 3840 90 45 60
        E 120 80 45 00
        E 120 90 40 60
        E 120 80 40 00
        E 120 90 3d 60
        E 120 80 3d 00
        E 120 90 40 60
        E 120 80 40 00
        E 120 90 40 60
        E 120 80 40 00
        E 120 90 3d 60
        E 120 80 3d 00
        E 120 90 39 60
        E 120 80 39 00
        E 120 90 3d 60
        E 120 80 3d 00
        E 120 90 44 60
        E 120 80 44 00
        E 120 90 40 60
        E 120 80 40 00
        E 120 90 3b 60
        E 120 80 3b 00
        E 120 90 40 60
        E 120 80 40 00
        E 120 90 38 60
        E 120 80 38 00
        E 120 90 3b 60
        E 120 80 3b 00
        E 120 90 38 60
        E 120 80 38 00
        E 120 90 3b 60
        E 120 80 3b 00
        E 120 90 45 60
        E 120 80 45 00
        E 120 90 40 60
        E 120 80 40 00
        E 120 90 45 60
        E 120 80 45 00
        E 120 90 40 60
        E 120 80 40 00
        E 120 90 39 60
        E 120 80 39 00
        E 120 90 3b 60
        E 120 80 3b 00
        E 120 90 3d 60
        E 120 80 3d 00
        E 120 90 3b 60
        E 120 80 3b 00
        E 120 90 45 60
        E 120 80 45 00
        E 120 90 42 60
        E 120 80 42 00
        E 120 90 3e 60
        E 120 80 3e 00
        E 120 90 42 60
        E 120 80 42 00
        E 120 90 3d 60
        E 120 80 3d 00
        E 120 90 3e 60
        E 120 80 3e 00
        E 120 90 45 60
        E 120 80 45 00
        E 120 90 3e 60
        E 120 80 3e 00
        E 120 90 45 60
        E 120 80 45 00
        E 120 90 40 60
        E 120 80 40 00
        E 120 90 3d 60
        E 120 80 3d 00
        E 120 90 40 60
        E 120 80 40 00
        E 120 90 40 60
        E 120 80 40 00
        E 120 90 3d 60
        E 120 80 3d 00
        E 120 90 39 60
        E 120 80 39 00
        E 120 90 3d 60
        E 120 80 3d 00
        E 120 90 44 60
        E 120 80 44 00
        E 120 90 40 60
        E 120 80 40 00
        E 120 90 3b 60
        E 120 80 3b 00
        E 120 90 40 60
        E 120 80 40 00
        E 120 90 38 60
        E 120 80 38 00
        E 120 90 3b 60
        E 120 80 3b 00
        E 120 90 38 60
        E 120 80 38 00
        E 120 90 3b 60
        E 120 80 3b 00
        E 120 90 45 60
        E 120 80 45 00
        E 120 90 40 60
        E 120 80 40 00
        E 120 90 45 60
        E 120 80 45 00
        E 120 90 40 60
        E 120 80 40 00
        E 120 90 39 60
        E 120 80 39 00
        E 120 90 3b 60
        E 120 80 3b 00
        E 120 90 3d 60
        E 120 80 3d 00
        E 120 90 3b 60
        E 120 80 3b 00
        E 120 90 45 60
        E 120 80 45 00
        E 120 90 42 60
        E 120 80 42 00
        E 120 90 3e 60
        E 120 80 3e 00
        E 120 90 42 60
        E 120 80 42 00
        E 120 90 3d 60
        E 120 80 3d 00
        E 120 90 3e 60
        E 120 80 3e 00
        E 120 90 39 60
        E 120 80 39 00
        E 120 90 3e 60
        E 120 80 3e 00
        E 120 90 39 60
        E 120 80 39 00
        E 120 90 34 60
        E 120 80 34 00
        E 120 90 39 60
        E 120 80 39 00
        E 120 90 40 60
        E 360 80 40 00
        E 120 90 39 60
        E 120 80 39 00
        E 120 90 34 60
        E 120 80 34 00
        E 120 90 3f 60
        E 360 80 3f 00
        E 120 90 39 60
        E 120 80 39 00
        E 120 90 36 60
        E 120 80 36 00
        E 120 90 3e 60
        E 360 80 3e 00
        E 120 90 39 60
        E 120 80 39 00
        E 120 90 36 60
        E 360 80 36 00
        E 120 90 39 60
        E 120 80 39 00
        E 120 90 34 60
        E 120 80 34 00
        E 120 90 39 60
        E 120 80 39 00
        E 120 90 40 60
        E 360 80 40 00
        E 120 90 39 60
        E 120 80 39 00
        E 120 90 34 60
        E 120 80 34 00
        E 120 90 3f 60
        E 360 80 3f 00
        E 120 90 39 60
        E 120 80 39 00
        E 120 90 36 60
        E 120 80 36 00
        E 120 90 3e 60
        E 360 80 3e 00
        E 120 90 39 60
        E 120 80 39 00
        E 120 90 36 60
        E 360 80 36 00
        E 120 90 39 60
        E 120 80 39 00
        E 120 90 34 60
        E 120 80 34 00
        E 120 90 39 60
        E 120 80 39 00
        E 120 90 40 60
        E 360 80 40 00
        E 120 90 39 60
        E 120 80 39 00
        E 120 90 34 60
        E 120 80 34 00
        E 120 90 3f 60
        E 360 80 3f 00
        E 120 90 39 60
        E 120 80 39 00
        E 120 90 36 60
        E 120 80 36 00
        E 120 90 3e 60
        E 360 80 3e 00
        E 120 90 39 60
        E 120 80 39 00
        E 120 90 36 60
        E 360 80 36 00
        E 120 90 39 60
        E 120 80 39 00
        E 120 90 34 60
        E 120 80 34 00
        E 120 90 39 60
        E 120 80 39 00
        E 120 90 40 60
        E 360 80 40 00
        E 120 90 39 60
        E 120 80 39 00
        E 120 90 34 60
        E 120 80 34 00
        E 120 90 3f 60
        E 360 80 3f 00
        E 120 90 39 60
        E 120 80 39 00
        E 120 90 36 60
        E 120 80 36 00
        E 120 90 3e 60
        E 360 80 3e 00
        E 120 90 39 60
        E 120 80 39 00
        E 120 90 36 60
        E 360 80 36 00
        E 120 90 39 60
        E 120 80 39 00
        E 120 90 34 60
        E 120 80 34 00
        E 120 90 39 60
        E 120 80 39 00
        E 120 90 40 60
        E 360 80 40 00
        E 120 90 39 60
        E 120 80 39 00
        E 120 90 34 60
        E 120 80 34 00
        E 120 90 3f 60
        E 360 80 3f 00
        E 120 90 39 60
        E 120 80 39 00
        E 120 90 36 60
        E 120 80 36 00
        E 120 90 3e 60
        E 360 80 3e 00
        E 120 90 39 60
        E 120 80 39 00
        E 120 90 36 60
        E 360 80 36 00
        E 120 90 39 60
        E 120 80 39 00
        E 120 90 34 60
        E 120 80 34 00
        E 120 90 39 60
        E 120 80 39 00
        E 120 90 40 60
        E 360 80 40 00
        E 120 90 39 60
        E 120 80 39 00
        E 120 90 34 60
        E 120 80 34 00
        E 120 90 3f 60
        E 360 80 3f 00
        E 120 90 39 60
        E 120 80 39 00
        E 120 90 36 60
        E 120 80 36 00
        E 120 90 3e 60
        E 360 80 3e 00
        E 120 90 39 60
        E 120 80 39 00
        E 120 90 36 60
        E 360 80 36 00
        E 120 90 39 60
        E 120 80 39 00
        E 120 90 34 60
        E 120 80 34 00
        E 120 90 39 60
        E 120 80 39 00
        E 120 90 40 60
        E 360 80 40 00
        E 120 90 39 60
        E 120 80 39 00
        E 120 90 34 60
        E 120 80 34 00
        E 120 90 3f 60
        E 360 80 3f 00
        E 120 90 39 60
        E 120 80 39 00
        E 120 90 36 60
        E 120 80 36 00
        E 120 90 3e 60
        E 360 80 3e 00
        E 120 90 39 60
        E 120 80 39 00
        E 120 90 36 60
        E 360 80 36 00
        E 120 90 39 60
        E 120 80 39 00
        E 120 90 34 60
        E 120 80 34 00
        E 120 90 39 60
        E 120 80 39 00
        E 120 90 40 60
        E 360 80 40 00
        E 120 90 39 60
        E 120 80 39 00
        E 120 90 34 60
        E 120 80 34 00
        E 120 90 3f 60
        E 360 80 3f 00
        E 120 90 39 60
        E 120 80 39 00
        E 120 90 36 60
        E 120 80 36 00
        E 120 90 3e 60
        E 360 80 3e 00
        E 120 90 39 60
        E 120 80 39 00
        E 120 90 36 60
        E 480 80 36 00
        E 15360 90 45 60
        E 120 80 45 00
        E 120 90 40 60
        E 120 80 40 00
        E 120 90 3d 60
        E 120 80 3d 00
        E 120 90 40 60
        E 120 80 40 00
        E 120 90 40 60
        E 120 80 40 00
        E 120 90 3d 60
        E 120 80 3d 00
        E 120 90 39 60
        E 120 80 39 00
        E 120 90 3d 60
        E 120 80 3d 00
        E 120 90 44 60
        E 120 80 44 00
        E 120 90 40 60
        E 120 80 40 00
        E 120 90 3b 60
        E 120 80 3b 00
        E 120 90 40 60
        E 120 80 40 00
        E 120 90 38 60
        E 120 80 38 00
        E 120 90 3b 60
        E 120 80 3b 00
        E 120 90 38 60
        E 120 80 38 00
        E 120 90 3b 60
        E 120 80 3b 00
        E 120 90 45 60
        E 120 80 45 00
        E 120 90 40 60
        E 120 80 40 00
        E 120 90 45 60
        E 120 80 45 00
        E 120 90 40 60
        E 120 80 40 00
        E 120 90 39 60
        E 120 80 39 00
        E 120 90 3b 60
        E 120 80 3b 00
        E 120 90 3d 60
        E 120 80 3d 00
        E 120 90 3b 60
        E 120 80 3b 00
        E 120 90 45 60
        E 120 80 45 00
        E 120 90 42 60
        E 120 80 42 00
        E 120 90 3e 60
        E 120 80 3e 00
        E 120 90 42 60
        E 120 80 42 00
        E 120 90 3d 60
        E 120 80 3d 00
        E 120 90 3e 60
        E 120 80 3e 00
        E 120 90 45 60
        E 120 80 45 00
        E 120 90 3e 60
        E 120 80 3e 00
        E 120 90 45 60
        E 120 80 45 00
        E 120 90 40 60
        E 120 80 40 00
        E 120 90 3d 60
        E 120 80 3d 00
        E 120 90 40 60
        E 120 80 40 00
        E 120 90 40 60
        E 120 80 40 00
        E 120 90 3d 60
        E 120 80 3d 00
        E 120 90 39 60
        E 120 80 39 00
        E 120 90 3d 60
        E 120 80 3d 00
        E 120 90 44 60
        E 120 80 44 00
        E 120 90 40 60
        E 120 80 40 00
        E 120 90 3b 60
        E 120 80 3b 00
        E 120 90 40 60
        E 120 80 40 00
        E 120 90 38 60
        E 120 80 38 00
        E 120 90 3b 60
        E 120 80 3b 00
        E 120 90 38 60
        E 120 80 38 00
        E 120 90 3b 60
        E 120 80 3b 00
        E 120 90 45 60
        E 120 80 45 00
        E 120 90 40 60
        E 120 80 40 00
        E 120 90 45 60
        E 120 80 45 00
        E 120 90 40 60
        E 120 80 40 00
        E 120 90 39 60
        E 120 80 39 00
        E 120 90 3b 60
        E 120 80 3b 00
        E 120 90 3d 60
        E 120 80 3d 00
        E 120 90 3b 60
        E 120 80 3b 00
        E 120 90 45 60
        E 120 80 45 00
        E 120 90 42 60
        E 120 80 42 00
        E 120 90 3e 60
        E 120 80 3e 00
        E 120 90 42 60
        E 120 80 42 00
        E 120 90 3d 60
        E 120 80 3d 00
        E 120 90 3e 60
        E 120 80 3e 00
        E 120 90 39 60
        E 120 80 39 00
        E 120 90 3e 60
        E 120 80 3e 00
        E 120 90 39 60
        E 120 80 39 00
        E 120 90 34 60
        E 120 80 34 00
        E 120 90 39 60
        E 120 80 39 00
        E 120 90 40 60
        E 360 80 40 00
        E 120 90 39 60
        E 120 80 39 00
        E 120 90 34 60
        E 120 80 34 00
        E 120 90 3f 60
        E 360 80 3f 00
        E 120 90 39 60
        E 120 80 39 00
        E 120 90 36 60
        E 120 80 36 00
        E 120 90 3e 60
        E 360 80 3e 00
        E 120 90 39 60
        E 120 80 39 00
        E 120 90 36 60
        E 360 80 36 00
        E 120 90 39 60
        E 120 80 39 00
        E 120 90 34 60
        E 120 80 34 00
        E 120 90 39 60
        E 120 80 39 00
        E 120 90 40 60
        E 360 80 40 00
        E 120 90 39 60
        E 120 80 39 00
        E 120 90 34 60
        E 120 80 34 00
        E 120 90 3f 60
        E 360 80 3f 00
        E 120 90 39 60
        E 120 80 39 00
        E 120 90 36 60
        E 120 80 36 00
        E 120 90 3e 60
        E 360 80 3e 00
        E 120 90 39 60
        E 120 80 39 00
        E 120 90 36 60
        E 360 80 36 00
        E 120 90 39 60
        E 120 80 39 00
        E 120 90 34 60
        E 120 80 34 00
        E 120 90 39 60
        E 120 80 39 00
        E 120 90 40 60
        E 360 80 40 00
        E 120 90 39 60
        E 120 80 39 00
        E 120 90 34 60
        E 120 80 34 00
        E 120 90 3f 60
        E 360 80 3f 00
        E 120 90 39 60
        E 120 80 39 00
        E 120 90 36 60
        E 120 80 36 00
        E 120 90 3e 60
        E 360 80 3e 00
        E 120 90 39 60
        E 120 80 39 00
        E 120 90 36 60
        E 360 80 36 00
        E 120 90 39 60
        E 120 80 39 00
        E 120 90 34 60
        E 120 80 34 00
        E 120 90 39 60
        E 120 80 39 00
        E 120 90 40 60
        E 360 80 40 00
        E 120 90 39 60
        E 120 80 39 00
        E 120 90 34 60
        E 120 80 34 00
        E 120 90 3f 60
        E 360 80 3f 00
        E 120 90 39 60
        E 120 80 39 00
        E 120 90 36 60
        E 120 80 36 00
        E 120 90 3e 60
        E 360 80 3e 00
        E 120 90 39 60
        E 120 80 39 00
        E 120 90 36 60
        E 360 80 36 00
        E 120 90 39 60
        E 120 80 39 00
        E 120 90 34 60
        E 120 80 34 00
        E 120 90 39 60
        E 120 80 39 00
        E 120 90 40 60
        E 360 80 40 00
        E 120 90 39 60
        E 120 80 39 00
        E 120 90 34 60
        E 120 80 34 00
        E 120 90 3f 60
        E 360 80 3f 00
        E 120 90 39 60
        E 120 80 39 00
        E 120 90 36 60
        E 120 80 36 00
        E 120 90 3e 60
        E 360 80 3e 00
        E 120 90 39 60
        E 120 80 39 00
        E 120 90 36 60
        E 360 80 36 00
        E 120 90 39 60
        E 120 80 39 00
        E 120 90 34 60
        E 120 80 34 00
        E 120 90 39 60
        E 120 80 39 00
        E 120 90 40 60
        E 360 80 40 00
        E 120 90 39 60
        E 120 80 39 00
        E 120 90 34 60
        E 120 80 34 00
        E 120 90 3f 60
        E 360 80 3f 00
        E 120 90 39 60
        E 120 80 39 00
        E 120 90 36 60
        E 120 80 36 00
        E 120 90 3e 60
        E 360 80 3e 00
        E 120 90 39 60
        E 120 80 39 00
        E 120 90 36 60
        E 360 80 36 00
        E 120 90 39 60
        E 120 80 39 00
        E 120 90 34 60
        E 120 80 34 00
        E 120 90 39 60
        E 120 80 39 00
        E 120 90 40 60
        E 360 80 40 00
        E 120 90 39 60
        E 120 80 39 00
        E 120 90 34 60
        E 120 80 34 00
        E 120 90 3f 60
        E 360 80 3f 00
        E 120 90 39 60
        E 120 80 39 00
        E 120 90 36 60
        E 120 80 36 00
        E 120 90 3e 60
        E 360 80 3e 00
        E 120 90 39 60
        E 120 80 39 00
        E 120 90 36 60
        E 360 80 36 00
        E 120 90 39 60
        E 120 80 39 00
        E 120 90 34 60
        E 120 80 34 00
        E 120 90 39 60
        E 120 80 39 00
        E 120 90 40 60
        E 360 80 40 00
        E 120 90 39 60
        E 120 80 39 00
        E 120 90 34 60
        E 120 80 34 00
        E 120 90 3f 60
        E 360 80 3f 00
        E 120 90 39 60
        E 120 80 39 00
        E 120 90 36 60
        E 120 80 36 00
        E 120 90 3e 60
        E 360 80 3e 00
        E 120 90 39 60
        E 120 80 39 00
        E 120 90 36 60
        E 480 80 36 00
        E 15360 90 45 60
        E 120 80 45 00
        E 120 90 40 60
        E 120 80 40 00
        E 120 90 3d 60
        E 120 80 3d 00
        E 120 90 40 60
        E 120 80 40 00
        E 120 90 40 60
        E 120 80 40 00
        E 120 90 3d 60
        E 120 80 3d 00
        E 120 90 39 60
        E 120 80 39 00
        E 120 90 3d 60
        E 120 80 3d 00
        E 120 90 44 60
        E 120 80 44 00
        E 120 90 40 60
        E 120 80 40 00
        E 120 90 3b 60
        E 120 80 3b 00
        E 120 90 40 60
        E 120 80 40 00
        E 120 90 38 60
        E 120 80 38 00
        E 120 90 3b 60
        E 120 80 3b 00
        E 120 90 38 60
        E 120 80 38 00
        E 120 90 3b 60
        E 120 80 3b 00
        E 120 90 45 60
        E 120 80 45 00
        E 120 90 40 60
        E 120 80 40 00
        E 120 90 45 60
        E 120 80 45 00
        E 120 90 40 60
        E 120 80 40 00
        E 120 90 39 60
        E 120 80 39 00
        E 120 90 3b 60
        E 120 80 3b 00
        E 120 90 3d 60
        E 120 80 3d 00
        E 120 90 3b 60
        E 120 80 3b 00
        E 120 90 45 60
        E 120 80 45 00
        E 120 90 42 60
        E 120 80 42 00
        E 120 90 3e 60
        E 120 80 3e 00
        E 120 90 42 60
        E 120 80 42 00
        E 120 90 3d 60
        E 120 80 3d 00
        E 120 90 3e 60
        E 120 80 3e 00
        E 120 90 45 60
        E 120 80 45 00
        E 120 90 3e 60
        E 120 80 3e 00
        E 120 90 45 60
        E 120 80 45 00
        E 120 90 40 60
        E 120 80 40 00
        E 120 90 3d 60
        E 120 80 3d 00
        E 120 90 40 60
        E 120 80 40 00
        E 120 90 40 60
        E 120 80 40 00
        E 120 90 3d 60
        E 120 80 3d 00
        E 120 90 39 60
        E 120 80 39 00
        E 120 90 3d 60
        E 120 80 3d 00
        E 120 90 44 60
        E 120 80 44 00
        E 120 90 40 60
        E 120 80 40 00
        E 120 90 3b 60
        E 120 80 3b 00
        E 120 90 40 60
        E 120 80 40 00
        E 120 90 38 60
        E 120 80 38 00
        E 120 90 3b 60
        E 120 80 3b 00
        E 120 90 38 60
        E 120 80 38 00
        E 120 90 3b 60
        E 120 80 3b 00
        E 120 90 45 60
        E 120 80 45 00
        E 120 90 40 60
        E 120 80 40 00
        E 120 90 45 60
        E 120 80 45 00
        E 120 90 40 60
        E 120 80 40 00
        E 120 90 39 60
        E 120 80 39 00
        E 120 90 3b 60
        E 120 80 3b 00
        E 120 90 3d 60
        E 120 80 3d 00
        E 120 90 3b 60
        E 120 80 3b 00
        E 120 90 45 60
        E 120 80 45 00
        E 120 90 42 60
        E 120 80 42 00
        E 120 90 3e 60
        E 120 80 3e 00
        E 120 90 42 60
        E 120 80 42 00
        E 120 90 3d 60
        E 120 80 3d 00
        E 120 90 3e 60
        E 120 80 3e 00
        E 120 90 39 60
        E 120 80 39 00
        E 120 90 3e 60
        E 120 80 3e 00
        E 120 90 39 60
        E 120 80 39 00
        E 120 90 34 60
        E 120 80 34 00
        E 120 90 39 60
        E 120 80 39 00
        E 120 90 40 60
        E 360 80 40 00
        E 120 90 39 60
        E 120 80 39 00
        E 120 90 34 60
        E 120 80 34 00
        E 120 90 3f 60
        E 360 80 3f 00
        E 120 90 39 60
        E 120 80 39 00
        E 120 90 36 60
        E 120 80 36 00
        E 120 90 3e 60
        E 360 80 3e 00
        E 120 90 39 60
        E 120 80 39 00
        E 120 90 36 60
        E 360 80 36 00
        E 120 90 39 60
        E 120 80 39 00
        E 120 90 34 60
        E 120 80 34 00
        E 120 90 39 60
        E 120 80 39 00
        E 120 90 40 60
        E 360 80 40 00
        E 120 90 39 60
        E 120 80 39 00
        E 120 90 34 60
        E 120 80 34 00
        E 120 90 3f 60
        E 360 80 3f 00
        E 120 90 39 60
        E 120 80 39 00
        E 120 90 36 60
        E 120 80 36 00
        E 120 90 3e 60
        E 360 80 3e 00
        E 120 90 39 60
        E 120 80 39 00
        E 120 90 36 60
        E 480 80 36 00
        E 1920 b0 7b 00
        GUID {6C6FDB74-4355-4B88-9D7E-80915F1B1598}
        IGNTEMPO 0 120.00000000 4 4
        SRCCOLOR 8
        VELLANE 132 128 128
        COLORMAP "C:\Program Files\REAPER (x64)\Data\color_maps\rockband_guitarbass.png"
        TEXTSTRINGFILE "C:\Program Files\REAPER (x64)\Data\Text_Strings\Text Events List - PRO Trainers.txt"
        CFGEDITVIEW -8060.290374 11.462843 0 18 0 0 0
        CFGEDIT 1 1 0 1 1 0 1 1 1 1 1 0.25000000 -8 -8 1928 1088 0 2 1 1 0.00000000 0 1 0 0 0.500000 0 0 1.000000 64
        KEYSNAP 0 0 "102034050607" 0 "Major"
        EVTFILTER 0 -1 -1 -1 -1 0 1 0 0 -1.00000000 -1.00000000
      >
    >
  >
  <TRACK '{B65FC53D-140C-4102-A29C-63E9D2331960}'
    NAME "PART KEYS_ANIM_LH"
    PEAKCOL 16576
    BEAT -1
    AUTOMODE 0
    VOLPAN 1.00000000000000 0.00000000000000 -1.00000000000000 -1.00000000000000 1.00000000000000
    MUTESOLO 0 0 0
    IPHASE 0
    ISBUS 2 -1
    BUSCOMP 0 0
    SHOWINMIX 1 0.666700 0.500000 1 0.500000 -1 -1 -1
    FREEMODE 0
    SEL 0
    REC 0 0 0 0 0 0 0
    VU 2
    TRACKHEIGHT 0 0
    INQ 0 0 0 0.5000000000 100 0 0 100
    NCHAN 2
    FX 0
    TRACKID {B65FC53D-140C-4102-A29C-63E9D2331960}
    PERF 0
    MIDIOUT -1
    <MIDINOTENAMES
      0 127 "TRILL MARKER"
      0 126 "GLISSANDO MARKER"
      0 125 "---"
      0 116 "OVERDRIVE"
      0 115 "SOLO"
      0 114 "---"
      0 72 "Highest playable note B#3"
      0 71 "B3"
      0 70 "A#3"
      0 69 "A3"
      0 68 "G#3"
      0 67 "G3"
      0 66 "F#3"
      0 65 "F3"
      0 64 "E3"
      0 63 "D#3"
      0 62 "D3"
      0 61 "C#3"
      0 60 "C3"
      0 59 "B2"
      0 58 "A#2"
      0 57 "A2"
      0 56 "G#2"
      0 55 "G2"
      0 54 "F#2"
      0 53 "F2"
      0 52 "E2"
      0 51 "D#2"
      0 50 "D2"
      0 49 "C#2"
      0 48 "Lowest playable note C2"
      0 10 "---"
      0 9 "Range A2-C4"
      0 8 "Range"
      0 7 "Range"
      0 6 "Range"
      0 5 "Range F2-A3"
      0 4 "Range"
      0 3 "Range"
      0 2 "Range"
      0 1 "Range"
      0 0 "Range C2-E3"
    >
    MAINSEND 1 0
    <FXCHAIN
      WNDRECT 409 51 655 467
      SHOW 0
      LASTSEL 1
      DOCKED 0
      BYPASS 0 0
      <JS "MIDI/midi_note_filter" ""
        48.000000 72.000000 - - - - - - - - - - - - - - - - - - - - - - - - - - - - - - - - - - - - - - - - - - - - - - - - - - - - - - - - - - - - - - 
      >
      FLOATPOS 0 0 0 0
      FXID {62D08684-F08B-4DF6-8858-98F4CAEA6F8E}
      WAK 0
      BYPASS 0 0
      <VST "VSTi: ReaSynth (Cockos)" "reasynth.dll" 0 ""
        eXNlcu9e7f4AAAAAAgAAAAEAAAAAAAAAAgAAAAAAAAA4AAAAAAAAAA==
        AAAQAO++rd4N8K3eppvEOxe30ToAAAAAAACAPwAAAADMm4A+6WeIPQ==
        AAAAAAAAAD8AAIA/AACAPwAAAD8AABAAAAA=
      >
      FLOATPOS 0 0 0 0
      FXID {A87E9F41-214E-4D3B-8C49-356DCE447D3E}
      WAK 0
    >
    <ITEM
      POSITION 0.00000000000000
      SNAPOFFS 0.00000000000000
      LENGTH 126.40842722848190
      LOOP 0
      ALLTAKES 0
      SEL 0
      FADEIN 1 0.000000 0.000000 1 0
      FADEOUT 1 0.000000 0.000000 1 0
      MUTE 0
      IGUID {07E6811E-CECC-4C72-90D5-E04AEE60110D}
      IID 29
      NAME "PART KEYS_ANIM_LH"
      VOLPAN 1.000000 0.000000 1.000000 -1.000000
      SOFFS 0.00000000000000 0.00000000000000
      PLAYRATE 1.00000000000000 1 0.00000000000000 -1
      CHANMODE 0
      GUID {5D9BB803-5966-43D2-8C28-B946C41D0A3C}
      <SOURCE MIDI
        HASDATA 1 480 QN
        POOLEDEVTS {139C80DF-AE65-4F3C-B13A-724BA16BF025}
        <X 0 0
          /wNQQVJUIEtFWVNfQU5JTV9MSA==
        >
        E 151680 b0 7b 00
        GUID {6C6FDB74-4355-4B88-9D7E-80915F1B1598}
        IGNTEMPO 0 120.00000000 4 4
        SRCCOLOR 8
        VELLANE 132 128 128
        COLORMAP "C:\Program Files\REAPER (x64)\Data\color_maps\rockband_guitarbass.png"
        TEXTSTRINGFILE "C:\Program Files\REAPER (x64)\Data\Text_Strings\Text Events List - PRO Trainers.txt"
        CFGEDITVIEW -8060.290374 11.462843 0 18 0 0 0
        CFGEDIT 1 1 0 1 1 0 1 1 1 1 1 0.25000000 -8 -8 1928 1088 0 2 1 1 0.00000000 0 1 0 0 0.500000 0 0 1.000000 64
        KEYSNAP 0 0 "102034050607" 0 "Major"
        EVTFILTER 0 -1 -1 -1 -1 0 1 0 0 -1.00000000 -1.00000000
      >
    >
  >
  <TRACK '{B893DA71-4F40-45BB-B612-CA2CD4225E6B}'
    NAME "backing"
    PEAKCOL 16576
    BEAT -1
    AUTOMODE 0
    VOLPAN 1.00000000000000 0.00000000000000 -1.00000000000000 -1.00000000000000 1.00000000000000
    MUTESOLO 0 0 0
    IPHASE 0
    ISBUS 0 0
    BUSCOMP 0 0
    SHOWINMIX 1 0.666700 0.500000 1 0.500000 -1 -1 -1
    FREEMODE 0
    SEL 0
    REC 0 0 0 0 0 0 0
    VU 2
    TRACKHEIGHT 0 0
    INQ 0 0 0 0.5000000000 100 0 0 100
    NCHAN 2
    FX 1
    TRACKID {B893DA71-4F40-45BB-B612-CA2CD4225E6B}
    PERF 0
    MIDIOUT -1
    MAINSEND 1 0
    <ITEM
      POSITION 0.00000000000000
      SNAPOFFS 0.00000000000000
      LENGTH 126.40843537414966
      LOOP 0
      ALLTAKES 0
      SEL 0
      FADEIN 1 0.000000 0.000000 1 0
      FADEOUT 1 0.000000 0.000000 1 0
      MUTE 0
      IGUID {DBB2F8CC-0E33-4F07-B6F6-C3CAC169A522}
      IID 22
      NAME "backing.wav"
      VOLPAN 1.000000 0.000000 1.000000 -1.000000
      SOFFS 0.00000000000000
      PLAYRATE 1.00000000000000 1 0.00000000000000 -1
      CHANMODE 0
      GUID {D8DFA5C6-2050-43E6-B606-13D0F9114D89}
      <SOURCE WAVE
        FILE "wav\backing.wav"
      >
    >
  >
  <TRACK '{00A3529A-0D26-445F-9D7D-CF0D8345206C}'
    NAME "PART REAL_BASS"
    PEAKCOL 16576
    BEAT -1
    AUTOMODE 0
    VOLPAN 1.00000000000000 0.00000000000000 -1.00000000000000 -1.00000000000000 1.00000000000000
    MUTESOLO 0 0 0
    IPHASE 0
    ISBUS 0 0
    BUSCOMP 0 0
    SHOWINMIX 1 0.666700 0.500000 1 0.500000 -1 -1 -1
    FREEMODE 0
    SEL 1
    REC 0 0 0 0 0 0 0
    VU 2
    TRACKHEIGHT 0 0
    INQ 0 0 0 0.5000000000 100 0 0 100
    NCHAN 2
    FX 0
    TRACKID {00A3529A-0D26-445F-9D7D-CF0D8345206C}
    PERF 0
    MIDIOUT -1
    <MIDINOTENAMES
      0 127 "Trill Marker"
      0 126 "Tremolo Marker"
      0 125 "BRE"
      0 124 "BRE"
      0 123 "BRE"
      0 122 "BRE"
      0 121 "BRE"
      0 120 "BRE (use all 6)"
      0 119 "-----------"
      0 116 "OVERDRIVE"
      0 115 "Solo Marker"
      0 109 "-----------"
      0 108 "Fret Hand Position"
      0 107 "Force Chord Numbering"
      0 106 "Loose Strumming"
      0 105 "Strum Direction"
      0 104 "Arpeggio Marker"
      0 103 "Slide Marker"
      0 102 "Force HOPO"
      0 101 "EXPERT e String"
      0 100 "EXPERT B String"
      0 99 "EXPERT G String"
      0 98 "EXPERT D String"
      0 97 "EXPERT A String"
      0 96 "EXPERT E String"
      0 95 "-----------"
      0 82 "Loose Strumming"
      0 81 "Strum Direction"
      0 80 "Arpeggio Marker"
      0 79 "Slide Marker"
      0 78 "Force HOPO"
      0 77 "HARD e String"
      0 76 "HARD B String"
      0 75 "HARD G String"
      0 74 "HARD D String"
      0 73 "HARD A String"
      0 72 "HARD E String"
      0 71 "-----------"
      0 58 "Loose Strumming"
      0 56 "Arpeggio Marker"
      0 55 "Slide Marker"
      0 53 "MEDIUM e String"
      0 52 "MEDIUM B String"
      0 51 "MEDIUM G String"
      0 50 "MEDIUM D String"
      0 49 "MEDIUM A String"
      0 48 "MEDIUM E String"
      0 47 "-----------"
      0 32 "Arpeggio Marker"
      0 31 "Slide Marker"
      0 29 "EASY e String"
      0 28 "EASY B String"
      0 27 "EASY G String"
      0 26 "EASY D String"
      0 25 "EASY A String"
      0 24 "EASY E String"
      0 21 "-----------"
      0 18 "Flat/Sharp Swap"
      0 17 "Hide Chord Names"
      0 16 "Slash Chord"
      0 15 "D#"
      0 14 "D"
      0 13 "C#"
      0 12 "C"
      0 11 "B"
      0 10 "A#"
      0 9 "A"
      0 8 "G#"
      0 7 "G"
      0 6 "F#"
      0 5 "F"
      0 4 "E"
    >
    MAINSEND 1 0
    <FXCHAIN
      WNDRECT 409 51 655 467
      SHOW 0
      LASTSEL 2
      DOCKED 0
      BYPASS 0 0
      <JS "c3/progtr" ""
        0.000000 3.000000 0.000000 0.000000 0.000000 0.000000 0.000000 0.000000 0.000000 1.000000 - - - - - - - - - - - - - - - - - - - - - - - - - - - - - - - - - - - - - - - - - - - - - - - - - - - - - - 
      >
      FLOATPOS 0 0 0 0
      FXID {CB014945-E599-4370-902F-C516A18F680B}
      WAK 0
      BYPASS 0 0
      <JS "MIDI/midi_transpose" ""
        -12.000000 1.000000 0.000000 127.000000 - - - - - - - - - - - - - - - - - - - - - - - - - - - - - - - - - - - - - - - - - - - - - - - - - - - - - - - - - - - - 
      >
      FLOATPOS 0 0 0 0
      FXID {AD5D419E-8843-4AB9-8B9D-12568C1F02EC}
      WAK 0
      BYPASS 0 0
      <VST "VSTi: ReaSynth (Cockos)" "reasynth.dll" 0 ""
        eXNlcu9e7f4AAAAAAgAAAAEAAAAAAAAAAgAAAAAAAAA4AAAAAAAAAA==
        AAAQAO++rd4N8K3eppvEO+gJMjwAAAAAAAAAAAAAgD8AAIA/4jAEPA==
        AAAAAAAAAD+01hM+j8L1PQAAAD8AABAAAAA=
      >
      FLOATPOS 0 0 0 0
      FXID {5BADD664-3670-4DF2-9C9C-683193816698}
      WAK 0
    >
    <ITEM
      POSITION 0.00000000000000
      SNAPOFFS 0.00000000000000
      LENGTH 126.40842722848190
      LOOP 0
      ALLTAKES 0
      SEL 1
      FADEIN 1 0.000000 0.000000 1 0
      FADEOUT 1 0.000000 0.000000 1 0
      MUTE 0
      IGUID {EF0321CF-637B-4359-9B51-588EEAFCFB93}
      IID 25
      NAME "PART REAL_BASS"
      VOLPAN 1.000000 0.000000 1.000000 -1.000000
      SOFFS 0.00000000000000 0.00000000000000
      PLAYRATE 1.00000000000000 1 0.00000000000000 -1
      CHANMODE 0
      GUID {9445299D-4770-44F5-9328-B7E65E404BB3}
      <SOURCE MIDI
        HASDATA 1 480 QN
        POOLEDEVTS {74201C01-1D36-4457-9E1D-24B5B6A9814F}
        <X 0 0
          /wNQQVJUIFJFQUxfQkFTUw==
        >
        <X 3840 0
          /wFbYmVnaW5fcGIgc29uZ190cmFpbmVyX3BiXzFd
        >
        E 0 90 1b 72
        E 0 90 33 72
        E 0 90 4b 72
        E 0 90 63 72
        E 0 90 6c 71
        E 120 80 6c 00
        E 840 80 1b 00
        E 240 80 33 00
        E 240 80 4b 00
        E 360 80 63 00
        <X 120 0
          /wFbcGJfbm9ybSBzb25nX3RyYWluZXJfcGJfMV0=
        >
        E 0 90 1b 71
        E 0 90 33 71
        E 0 90 4b 71
        E 0 90 63 71
        E 960 80 1b 00
        E 240 80 33 00
        E 240 80 4b 00
        E 360 80 63 00
        E 120 90 1a 6f
        E 0 90 32 6f
        E 0 90 4a 6f
        E 0 90 62 6f
        E 0 90 6c 6f
        E 120 80 1a 00
        E 0 80 32 00
        E 0 80 6c 00
        E 360 80 4a 00
        E 360 80 62 00
        E 120 90 48 72
        E 0 90 60 72
        E 480 80 48 00
        E 360 80 60 00
        E 120 90 1a 70
        E 0 90 32 70
        E 0 90 4a 70
        E 0 90 62 70
        E 120 80 1a 00
        E 0 80 32 00
        E 360 80 4a 00
        E 360 80 62 00
        E 120 90 32 72
        E 0 90 4a 72
        E 0 90 62 72
        E 120 80 32 00
        E 360 80 4a 00
        E 360 80 62 00
        <X 120 0
          /wFbZW5kX3BiIHNvbmdfdHJhaW5lcl9wYl8xXQ==
        >
        E 0 90 1b 72
        E 0 90 33 72
        E 0 90 4b 72
        E 0 90 63 72
        E 0 90 6c 71
        E 120 80 6c 00
        E 840 80 1b 00
        E 240 80 33 00
        E 240 80 4b 00
        E 360 80 63 00
        E 120 90 1b 71
        E 0 90 33 71
        E 0 90 4b 71
        E 0 90 63 71
        E 960 80 1b 00
        E 240 80 33 00
        E 240 80 4b 00
        E 360 80 63 00
        E 120 90 1a 6f
        E 0 90 32 6f
        E 0 90 4a 6f
        E 0 90 62 6f
        E 0 90 6c 6f
        E 120 80 1a 00
        E 0 80 32 00
        E 0 80 6c 00
        E 360 80 4a 00
        E 360 80 62 00
        E 120 90 48 72
        E 0 90 60 72
        E 480 80 48 00
        E 360 80 60 00
        E 120 90 1a 70
        E 0 90 32 70
        E 0 90 4a 70
        E 0 90 62 70
        E 120 80 1a 00
        E 0 80 32 00
        E 360 80 4a 00
        E 360 80 62 00
        E 120 90 32 72
        E 0 90 4a 72
        E 0 90 62 72
        E 120 80 32 00
        E 0 80 4a 00
        E 600 80 62 00
        <X 240 0
          /wFbYmVnaW5fcGIgc29uZ190cmFpbmVyX3BiXzJd
        >
        E 0 90 1a 6b
        E 0 90 32 6b
        E 0 90 4a 6b
        E 0 90 62 6b
        E 0 90 6c 6b
        E 0 90 74 60
        E 120 80 1a 00
        E 0 80 32 00
        E 0 80 4a 00
        E 0 80 62 00
        E 0 80 6c 00
        E 600 90 62 6b
        E 120 80 62 00
        E 120 90 31 6d
        E 0 90 49 6d
        E 0 90 61 6d
        E 120 80 31 00
        E 600 80 49 00
        E 120 80 61 00
        <X 120 0
          /wFbcGJfbm9ybSBzb25nX3RyYWluZXJfcGJfMl0=
        >
        E 240 90 1a 6d
        E 0 90 32 6d
        E 0 90 4a 6d
        E 0 90 62 6d
        E 120 80 1a 00
        E 0 80 32 00
        E 0 80 4a 00
        E 0 80 62 00
        E 600 90 31 6b
        E 0 90 49 6b
        E 0 90 61 6b
        E 0 90 6c 6a
        E 120 80 31 00
        E 0 80 49 00
        E 0 80 61 00
        E 0 80 6c 00
        E 360 90 4a 6a
        E 0 90 62 6a
        E 120 80 4a 00
        E 0 80 62 00
        E 360 90 1a 6b
        E 0 90 32 6b
        E 0 90 4a 6b
        E 0 90 62 6b
        E 0 90 6c 6b
        E 120 80 74 00
        E 0 80 1a 00
        E 0 80 32 00
        E 0 80 4a 00
        E 0 80 62 00
        E 0 80 6c 00
        E 600 90 62 6b
        E 120 80 62 00
        E 120 90 31 6d
        E 0 90 49 6d
        E 0 90 61 6d
        E 120 80 31 00
        E 600 80 49 00
        E 120 80 61 00
        E 360 90 1a 6d
        E 0 90 32 6d
        E 0 90 4a 6d
        E 0 90 62 6d
        E 120 80 1a 00
        E 0 80 32 00
        E 0 80 4a 00
        E 0 80 62 00
        E 600 90 31 6b
        E 0 90 49 6b
        E 0 90 61 6b
        E 0 90 6c 6a
        E 120 80 31 00
        E 0 80 49 00
        E 0 80 61 00
        E 0 80 6c 00
        E 360 90 4a 6a
        E 0 90 62 6a
        E 120 80 4a 00
        E 0 80 62 00
        <X 360 0
          /wFbZW5kX3BiIHNvbmdfdHJhaW5lcl9wYl8yXQ==
        >
        E 0 90 1a 6b
        E 0 90 32 6b
        E 0 90 4a 6b
        E 0 90 62 6b
        E 0 90 6c 6b
        E 120 80 1a 00
        E 0 80 32 00
        E 0 80 4a 00
        E 0 80 62 00
        E 0 80 6c 00
        E 600 90 62 6b
        E 120 80 62 00
        E 120 90 31 6d
        E 0 90 49 6d
        E 0 90 61 6d
        E 120 80 31 00
        E 600 80 49 00
        E 120 80 61 00
        E 360 90 1a 6d
        E 0 90 32 6d
        E 0 90 4a 6d
        E 0 90 62 6d
        E 120 80 1a 00
        E 0 80 32 00
        E 0 80 4a 00
        E 0 80 62 00
        E 600 90 31 6b
        E 0 90 49 6b
        E 0 90 61 6b
        E 0 90 6c 6a
        E 120 80 31 00
        E 0 80 49 00
        E 0 80 61 00
        E 0 80 6c 00
        E 360 90 4a 6a
        E 0 90 62 6a
        E 120 80 4a 00
        E 0 80 62 00
        E 360 90 1a 6b
        E 0 90 32 6b
        E 0 90 4a 6b
        E 0 90 62 6b
        E 0 90 6c 6b
        E 120 80 1a 00
        E 0 80 32 00
        E 0 80 4a 00
        E 0 80 62 00
        E 0 80 6c 00
        E 600 90 62 6b
        E 120 80 62 00
        E 120 90 31 6d
        E 0 90 49 6d
        E 0 90 61 6d
        E 120 80 31 00
        E 600 80 49 00
        E 120 80 61 00
        E 360 90 1a 6d
        E 0 90 32 6d
        E 0 90 4a 6d
        E 0 90 62 6d
        E 120 80 1a 00
        E 0 80 32 00
        E 0 80 4a 00
        E 0 80 62 00
        E 600 90 31 6b
        E 0 90 49 6b
        E 0 90 61 6b
        E 0 90 6c 6a
        E 120 80 31 00
        E 0 80 49 00
        E 0 80 61 00
        E 0 80 6c 00
        E 360 90 4a 6a
        E 0 90 62 6a
        E 120 80 4a 00
        E 0 80 62 00
        E 360 90 1a 6f
        E 0 90 32 6f
        E 0 90 4a 6b
        E 0 90 62 6b
        E 0 90 6c 6b
        E 120 80 1a 00
        E 0 80 32 00
        E 0 80 4a 00
        E 0 80 62 00
        E 0 80 6c 00
        E 600 90 62 6b
        E 120 80 62 00
        E 120 90 31 6d
        E 0 90 49 6d
        E 0 90 61 6d
        E 120 80 31 00
        E 600 80 49 00
        E 120 80 61 00
        E 120 90 1a 70
        E 0 90 32 70
        E 120 80 1a 00
        E 0 80 32 00
        E 120 90 4a 6d
        E 0 90 62 6d
        E 120 80 4a 00
        E 0 80 62 00
        E 600 90 31 6b
        E 0 90 49 6b
        E 0 90 61 6b
        E 0 90 6c 6a
        E 120 80 31 00
        E 0 80 49 00
        E 0 80 61 00
        E 0 80 6c 00
        E 360 90 4a 6a
        E 0 90 62 6a
        E 120 80 4a 00
        E 0 80 62 00
        E 360 90 1a 6b
        E 0 90 32 6b
        E 0 90 4a 6b
        E 0 90 62 6b
        E 0 90 6c 6b
        E 120 80 1a 00
        E 0 80 32 00
        E 0 80 4a 00
        E 0 80 62 00
        E 0 80 6c 00
        E 600 90 62 6b
        E 120 80 62 00
        E 120 90 31 6d
        E 0 90 49 6d
        E 0 90 61 6d
        E 120 80 31 00
        E 600 80 49 00
        E 120 80 61 00
        E 360 90 1a 6d
        E 0 90 32 6d
        E 0 90 4a 6d
        E 0 90 62 6d
        E 120 80 1a 00
        E 0 80 32 00
        E 0 80 4a 00
        E 0 80 62 00
        E 600 90 31 6b
        E 0 90 49 6b
        E 0 90 61 6b
        E 0 90 6c 6a
        E 120 80 31 00
        E 0 80 49 00
        E 0 80 61 00
        E 0 80 6c 00
        E 360 90 4a 6a
        E 0 90 62 6a
        E 120 80 4a 00
        E 0 80 62 00
        E 360 90 1a 6b
        E 0 90 32 6b
        E 0 90 4a 6b
        E 0 90 62 6b
        E 0 90 6c 6b
        E 0 90 74 60
        E 120 80 1a 00
        E 0 80 32 00
        E 0 80 4a 00
        E 0 80 62 00
        E 0 80 6c 00
        E 600 90 62 6b
        E 120 80 62 00
        E 120 90 31 6d
        E 0 90 49 6d
        E 0 90 61 6d
        E 120 80 31 00
        E 600 80 49 00
        E 120 80 61 00
        E 360 90 1a 6d
        E 0 90 32 6d
        E 0 90 4a 6d
        E 0 90 62 6d
        E 120 80 1a 00
        E 0 80 32 00
        E 0 80 4a 00
        E 0 80 62 00
        E 600 90 31 6b
        E 0 90 49 6b
        E 0 90 61 6b
        E 0 90 6c 6a
        E 120 80 31 00
        E 0 80 49 00
        E 0 80 61 00
        E 0 80 6c 00
        E 360 90 4a 6a
        E 0 90 62 6a
        E 120 80 4a 00
        E 0 80 62 00
        E 360 90 1a 6b
        E 0 90 32 6b
        E 0 90 4a 6b
        E 0 90 62 6b
        E 0 90 6c 6b
        E 120 80 74 00
        E 0 80 1a 00
        E 0 80 32 00
        E 0 80 4a 00
        E 0 80 62 00
        E 0 80 6c 00
        E 600 90 62 6b
        E 120 80 62 00
        E 120 90 31 6d
        E 0 90 49 6d
        E 0 90 61 6d
        E 120 80 31 00
        E 600 80 49 00
        E 120 80 61 00
        E 360 90 1a 6d
        E 0 90 32 6d
        E 0 90 4a 6d
        E 0 90 62 6d
        E 120 80 1a 00
        E 0 80 32 00
        E 0 80 4a 00
        E 0 80 62 00
        E 600 90 31 6b
        E 0 90 49 6b
        E 0 90 61 6b
        E 0 90 6c 6a
        E 120 80 31 00
        E 0 80 49 00
        E 0 80 61 00
        E 0 80 6c 00
        E 360 90 4a 6a
        E 0 90 62 6a
        E 120 80 4a 00
        E 0 80 62 00
        E 360 90 1a 6b
        E 0 90 32 6b
        E 0 90 4a 6b
        E 0 90 62 6b
        E 0 90 6c 6b
        E 120 80 1a 00
        E 0 80 32 00
        E 0 80 4a 00
        E 0 80 62 00
        E 0 80 6c 00
        E 600 90 62 6b
        E 120 80 62 00
        E 120 90 31 6d
        E 0 90 49 6d
        E 0 90 61 6d
        E 120 80 31 00
        E 600 80 49 00
        E 120 80 61 00
        E 360 90 1a 6d
        E 0 90 32 6d
        E 0 90 4a 6d
        E 0 90 62 6d
        E 120 80 1a 00
        E 0 80 32 00
        E 0 80 4a 00
        E 0 80 62 00
        E 600 90 31 6b
        E 0 90 49 6b
        E 0 90 61 6b
        E 0 90 6c 6a
        E 120 80 31 00
        E 0 80 49 00
        E 0 80 61 00
        E 0 80 6c 00
        E 360 90 4a 6a
        E 0 90 62 6a
        E 120 80 4a 00
        E 0 80 62 00
        E 360 90 32 6b
        E 0 90 4a 6b
        E 0 90 62 6b
        E 0 90 6c 6b
        E 120 80 32 00
        E 0 80 4a 00
        E 0 80 62 00
        E 0 80 6c 00
        E 600 90 62 6b
        E 120 80 62 00
        E 120 90 1a 70
        E 0 90 31 6d
        E 0 90 49 6d
        E 0 90 61 6d
        E 120 80 1a 00
        E 0 80 31 00
        E 600 80 49 00
        E 120 80 61 00
        E 360 90 32 6d
        E 0 90 4a 6d
        E 0 90 62 6d
        E 120 80 32 00
        E 0 80 4a 00
        E 0 80 62 00
        E 600 90 1a 6b
        E 0 90 31 6b
        E 0 90 49 6b
        E 0 90 61 6b
        E 0 90 6c 6a
        E 120 80 1a 00
        E 0 80 31 00
        E 0 80 49 00
        E 0 80 61 00
        E 0 80 6c 00
        E 360 90 4a 6a
        E 0 90 62 6a
        E 120 80 4a 00
        E 0 80 62 00
        E 360 90 32 6b
        E 0 90 4a 6b
        E 0 90 62 6b
        E 0 90 6c 6b
        E 120 80 32 00
        E 0 80 4a 00
        E 0 80 62 00
        E 0 80 6c 00
        E 600 90 62 6b
        E 120 80 62 00
        E 120 90 31 6d
        E 0 90 49 6d
        E 0 90 61 6d
        E 120 80 31 00
        E 120 90 1a 6d
        E 120 80 1a 00
        E 360 80 49 00
        E 120 80 61 00
        E 360 90 32 6d
        E 0 90 4a 6d
        E 0 90 62 6d
        E 120 80 32 00
        E 0 80 4a 00
        E 0 80 62 00
        E 600 90 1a 6b
        E 0 90 31 6b
        E 0 90 49 6b
        E 0 90 61 6b
        E 0 90 6c 6a
        E 120 80 1a 00
        E 0 80 31 00
        E 0 80 49 00
        E 0 80 61 00
        E 0 80 6c 00
        E 360 90 4a 6a
        E 0 90 62 6a
        E 120 80 4a 00
        E 0 80 62 00
        E 360 90 32 6b
        E 0 90 4a 6b
        E 0 90 62 6b
        E 0 90 6c 6b
        E 0 90 74 60
        E 120 80 32 00
        E 0 80 4a 00
        E 0 80 62 00
        E 0 80 6c 00
        E 600 90 62 6b
        E 120 80 62 00
        E 120 90 31 6d
        E 0 90 49 6d
        E 0 90 61 6d
        E 120 80 31 00
        E 120 90 1a 6d
        E 120 80 1a 00
        E 360 80 49 00
        E 120 80 61 00
        E 360 90 32 6d
        E 0 90 4a 6d
        E 0 90 62 6d
        E 120 80 32 00
        E 0 80 4a 00
        E 0 80 62 00
        E 600 90 1a 6b
        E 0 90 31 6b
        E 0 90 49 6b
        E 0 90 61 6b
        E 0 90 6c 6a
        E 120 80 1a 00
        E 0 80 31 00
        E 0 80 49 00
        E 0 80 61 00
        E 0 80 6c 00
        E 360 90 4a 6a
        E 0 90 62 6a
        E 120 80 4a 00
        E 0 80 62 00
        E 360 80 74 00
        E 0 90 1b 72
        E 0 90 33 72
        E 0 90 4b 72
        E 0 90 63 72
        E 0 90 6c 71
        E 120 80 6c 00
        E 840 80 1b 00
        E 240 80 33 00
        E 240 80 4b 00
        E 360 80 63 00
        E 120 90 1b 71
        E 0 90 33 71
        E 0 90 4b 71
        E 0 90 63 71
        E 960 80 1b 00
        E 240 80 33 00
        E 240 80 4b 00
        E 360 80 63 00
        E 120 90 1a 6f
        E 0 90 32 6f
        E 0 90 4a 6f
        E 0 90 62 6f
        E 0 90 6c 6f
        E 120 80 1a 00
        E 0 80 32 00
        E 0 80 6c 00
        E 360 80 4a 00
        E 360 80 62 00
        E 120 90 48 72
        E 0 90 60 72
        E 480 80 48 00
        E 360 80 60 00
        E 120 90 1a 70
        E 0 90 32 70
        E 0 90 4a 70
        E 0 90 62 70
        E 120 80 1a 00
        E 0 80 32 00
        E 360 80 4a 00
        E 360 80 62 00
        E 120 90 32 72
        E 0 90 4a 72
        E 0 90 62 72
        E 120 80 32 00
        E 360 80 4a 00
        E 360 80 62 00
        E 120 90 1b 72
        E 0 90 33 72
        E 0 90 4b 72
        E 0 90 63 72
        E 0 90 6c 71
        E 120 80 6c 00
        E 840 80 1b 00
        E 240 80 33 00
        E 240 80 4b 00
        E 360 80 63 00
        E 120 90 1b 71
        E 0 90 33 71
        E 0 90 4b 71
        E 0 90 63 71
        E 960 80 1b 00
        E 240 80 33 00
        E 240 80 4b 00
        E 360 80 63 00
        E 120 90 1a 6f
        E 0 90 32 6f
        E 0 90 4a 6f
        E 0 90 62 6f
        E 0 90 6c 6f
        E 120 80 1a 00
        E 0 80 32 00
        E 0 80 6c 00
        E 360 80 4a 00
        E 360 80 62 00
        E 120 90 48 72
        E 0 90 60 72
        E 480 80 48 00
        E 360 80 60 00
        E 120 90 1a 70
        E 0 90 32 70
        E 0 90 4a 70
        E 0 90 62 70
        E 120 80 1a 00
        E 0 80 32 00
        E 360 80 4a 00
        E 360 80 62 00
        E 120 90 32 72
        E 0 90 4a 72
        E 0 90 62 72
        E 120 80 32 00
        E 0 80 4a 00
        E 600 80 62 00
        E 240 90 1a 6b
        E 0 90 32 6b
        E 0 90 4a 6b
        E 0 90 62 6b
        E 0 90 6c 6b
        E 120 80 1a 00
        E 0 80 32 00
        E 0 80 4a 00
        E 0 80 62 00
        E 0 80 6c 00
        E 600 90 62 6b
        E 120 80 62 00
        E 120 90 31 6d
        E 0 90 49 6d
        E 0 90 61 6d
        E 120 80 31 00
        E 600 80 49 00
        E 120 80 61 00
        E 360 90 1a 6d
        E 0 90 32 6d
        E 0 90 4a 6d
        E 0 90 62 6d
        E 120 80 1a 00
        E 0 80 32 00
        E 0 80 4a 00
        E 0 80 62 00
        E 600 90 31 6b
        E 0 90 49 6b
        E 0 90 61 6b
        E 0 90 6c 6a
        E 120 80 31 00
        E 0 80 49 00
        E 0 80 61 00
        E 0 80 6c 00
        E 360 90 4a 6a
        E 0 90 62 6a
        E 120 80 4a 00
        E 0 80 62 00
        E 360 90 1a 6b
        E 0 90 32 6b
        E 0 90 4a 6b
        E 0 90 62 6b
        E 0 90 6c 6b
        E 120 80 1a 00
        E 0 80 32 00
        E 0 80 4a 00
        E 0 80 62 00
        E 0 80 6c 00
        E 600 90 62 6b
        E 120 80 62 00
        E 120 90 31 6d
        E 0 90 49 6d
        E 0 90 61 6d
        E 120 80 31 00
        E 600 80 49 00
        E 120 80 61 00
        E 360 90 1a 6d
        E 0 90 32 6d
        E 0 90 4a 6d
        E 0 90 62 6d
        E 120 80 1a 00
        E 0 80 32 00
        E 0 80 4a 00
        E 0 80 62 00
        E 600 90 31 6b
        E 0 90 49 6b
        E 0 90 61 6b
        E 0 90 6c 6a
        E 120 80 31 00
        E 0 80 49 00
        E 0 80 61 00
        E 0 80 6c 00
        E 360 90 4a 6a
        E 0 90 62 6a
        E 120 80 4a 00
        E 0 80 62 00
        E 360 90 1a 6b
        E 0 90 32 6b
        E 0 90 4a 6b
        E 0 90 62 6b
        E 0 90 6c 6b
        E 120 80 1a 00
        E 0 80 32 00
        E 0 80 4a 00
        E 0 80 62 00
        E 0 80 6c 00
        E 600 90 62 6b
        E 120 80 62 00
        E 120 90 31 6d
        E 0 90 49 6d
        E 0 90 61 6d
        E 120 80 31 00
        E 600 80 49 00
        E 120 80 61 00
        E 360 90 1a 6d
        E 0 90 32 6d
        E 0 90 4a 6d
        E 0 90 62 6d
        E 120 80 1a 00
        E 0 80 32 00
        E 0 80 4a 00
        E 0 80 62 00
        E 600 90 31 6b
        E 0 90 49 6b
        E 0 90 61 6b
        E 0 90 6c 6a
        E 120 80 31 00
        E 0 80 49 00
        E 0 80 61 00
        E 0 80 6c 00
        E 360 90 4a 6a
        E 0 90 62 6a
        E 120 80 4a 00
        E 0 80 62 00
        E 360 90 1a 6b
        E 0 90 32 6b
        E 0 90 4a 6b
        E 0 90 62 6b
        E 0 90 6c 6b
        E 120 80 1a 00
        E 0 80 32 00
        E 0 80 4a 00
        E 0 80 62 00
        E 0 80 6c 00
        E 600 90 62 6b
        E 120 80 62 00
        E 120 90 31 6d
        E 0 90 49 6d
        E 0 90 61 6d
        E 120 80 31 00
        E 600 80 49 00
        E 120 80 61 00
        E 360 90 1a 6d
        E 0 90 32 6d
        E 0 90 4a 6d
        E 0 90 62 6d
        E 120 80 1a 00
        E 0 80 32 00
        E 0 80 4a 00
        E 0 80 62 00
        E 600 90 31 6b
        E 0 90 49 6b
        E 0 90 61 6b
        E 0 90 6c 6a
        E 120 80 31 00
        E 0 80 49 00
        E 0 80 61 00
        E 0 80 6c 00
        E 360 90 4a 6a
        E 0 90 62 6a
        E 120 80 4a 00
        E 0 80 62 00
        E 360 90 1a 6f
        E 0 90 32 6f
        E 0 90 4a 6b
        E 0 90 62 6b
        E 0 90 6c 6b
        E 120 80 1a 00
        E 0 80 32 00
        E 0 80 4a 00
        E 0 80 62 00
        E 0 80 6c 00
        E 600 90 62 6b
        E 120 80 62 00
        E 120 90 31 6d
        E 0 90 49 6d
        E 0 90 61 6d
        E 120 80 31 00
        E 600 80 49 00
        E 120 80 61 00
        E 120 90 1a 70
        E 0 90 32 70
        E 120 80 1a 00
        E 0 80 32 00
        E 120 90 4a 6d
        E 0 90 62 6d
        E 120 80 4a 00
        E 0 80 62 00
        E 600 90 31 6b
        E 0 90 49 6b
        E 0 90 61 6b
        E 0 90 6c 6a
        E 120 80 31 00
        E 0 80 49 00
        E 0 80 61 00
        E 0 80 6c 00
        E 360 90 4a 6a
        E 0 90 62 6a
        E 120 80 4a 00
        E 0 80 62 00
        E 360 90 1a 6b
        E 0 90 32 6b
        E 0 90 4a 6b
        E 0 90 62 6b
        E 0 90 6c 6b
        E 120 80 1a 00
        E 0 80 32 00
        E 0 80 4a 00
        E 0 80 62 00
        E 0 80 6c 00
        E 600 90 62 6b
        E 120 80 62 00
        E 120 90 31 6d
        E 0 90 49 6d
        E 0 90 61 6d
        E 120 80 31 00
        E 600 80 49 00
        E 120 80 61 00
        E 360 90 1a 6d
        E 0 90 32 6d
        E 0 90 4a 6d
        E 0 90 62 6d
        E 120 80 1a 00
        E 0 80 32 00
        E 0 80 4a 00
        E 0 80 62 00
        E 600 90 31 6b
        E 0 90 49 6b
        E 0 90 61 6b
        E 0 90 6c 6a
        E 120 80 31 00
        E 0 80 49 00
        E 0 80 61 00
        E 0 80 6c 00
        E 360 90 4a 6a
        E 0 90 62 6a
        E 120 80 4a 00
        E 0 80 62 00
        E 360 90 1a 6b
        E 0 90 32 6b
        E 0 90 4a 6b
        E 0 90 62 6b
        E 0 90 6c 6b
        E 0 90 74 60
        E 120 80 1a 00
        E 0 80 32 00
        E 0 80 4a 00
        E 0 80 62 00
        E 0 80 6c 00
        E 600 90 62 6b
        E 120 80 62 00
        E 120 90 31 6d
        E 0 90 49 6d
        E 0 90 61 6d
        E 120 80 31 00
        E 600 80 49 00
        E 120 80 61 00
        E 360 90 1a 6d
        E 0 90 32 6d
        E 0 90 4a 6d
        E 0 90 62 6d
        E 120 80 1a 00
        E 0 80 32 00
        E 0 80 4a 00
        E 0 80 62 00
        E 600 90 31 6b
        E 0 90 49 6b
        E 0 90 61 6b
        E 0 90 6c 6a
        E 120 80 31 00
        E 0 80 49 00
        E 0 80 61 00
        E 0 80 6c 00
        E 360 90 4a 6a
        E 0 90 62 6a
        E 120 80 4a 00
        E 0 80 62 00
        E 360 90 1a 6b
        E 0 90 32 6b
        E 0 90 4a 6b
        E 0 90 62 6b
        E 0 90 6c 6b
        E 120 80 74 00
        E 0 80 1a 00
        E 0 80 32 00
        E 0 80 4a 00
        E 0 80 62 00
        E 0 80 6c 00
        E 600 90 62 6b
        E 120 80 62 00
        E 120 90 31 6d
        E 0 90 49 6d
        E 0 90 61 6d
        E 120 80 31 00
        E 600 80 49 00
        E 120 80 61 00
        E 360 90 1a 6d
        E 0 90 32 6d
        E 0 90 4a 6d
        E 0 90 62 6d
        E 120 80 1a 00
        E 0 80 32 00
        E 0 80 4a 00
        E 0 80 62 00
        E 600 90 31 6b
        E 0 90 49 6b
        E 0 90 61 6b
        E 0 90 6c 6a
        E 120 80 31 00
        E 0 80 49 00
        E 0 80 61 00
        E 0 80 6c 00
        E 360 90 4a 6a
        E 0 90 62 6a
        E 120 80 4a 00
        E 0 80 62 00
        E 360 90 1a 6b
        E 0 90 32 6b
        E 0 90 4a 6b
        E 0 90 62 6b
        E 0 90 6c 6b
        E 120 80 1a 00
        E 0 80 32 00
        E 0 80 4a 00
        E 0 80 62 00
        E 0 80 6c 00
        E 600 90 62 6b
        E 120 80 62 00
        E 120 90 31 6d
        E 0 90 49 6d
        E 0 90 61 6d
        E 120 80 31 00
        E 600 80 49 00
        E 120 80 61 00
        E 360 90 1a 6d
        E 0 90 32 6d
        E 0 90 4a 6d
        E 0 90 62 6d
        E 120 80 1a 00
        E 0 80 32 00
        E 0 80 4a 00
        E 0 80 62 00
        E 600 90 1a 6f
        E 0 90 31 6b
        E 0 90 49 6b
        E 0 90 61 6b
        E 0 90 6c 6a
        E 120 80 1a 00
        E 0 80 31 00
        E 0 80 49 00
        E 0 80 61 00
        E 0 80 6c 00
        E 360 90 4a 6a
        E 0 90 62 6a
        E 120 80 4a 00
        E 0 80 62 00
        E 360 90 32 6b
        E 0 90 4a 6b
        E 0 90 62 6b
        E 0 90 6c 6b
        E 120 80 32 00
        E 0 80 4a 00
        E 0 80 62 00
        E 0 80 6c 00
        E 600 90 62 6b
        E 120 80 62 00
        E 120 90 1a 70
        E 0 90 31 6d
        E 0 90 49 6d
        E 0 90 61 6d
        E 120 80 1a 00
        E 0 80 31 00
        E 600 80 49 00
        E 120 80 61 00
        E 360 90 32 6d
        E 0 90 4a 6d
        E 0 90 62 6d
        E 120 80 32 00
        E 0 80 4a 00
        E 0 80 62 00
        E 600 90 1a 6b
        E 0 90 31 6b
        E 0 90 49 6b
        E 0 90 61 6b
        E 0 90 6c 6a
        E 120 80 1a 00
        E 0 80 31 00
        E 0 80 49 00
        E 0 80 61 00
        E 0 80 6c 00
        E 360 90 4a 6a
        E 0 90 62 6a
        E 120 80 4a 00
        E 0 80 62 00
        E 360 90 32 6b
        E 0 90 4a 6b
        E 0 90 62 6b
        E 0 90 6c 6b
        E 120 80 32 00
        E 0 80 4a 00
        E 0 80 62 00
        E 0 80 6c 00
        E 600 90 62 6b
        E 120 80 62 00
        E 120 90 31 6d
        E 0 90 49 6d
        E 0 90 61 6d
        E 120 80 31 00
        E 120 90 1a 6d
        E 120 80 1a 00
        E 360 80 49 00
        E 120 80 61 00
        E 360 90 32 6d
        E 0 90 4a 6d
        E 0 90 62 6d
        E 120 80 32 00
        E 0 80 4a 00
        E 0 80 62 00
        E 600 90 1a 6b
        E 0 90 31 6b
        E 0 90 49 6b
        E 0 90 61 6b
        E 0 90 6c 6a
        E 120 80 1a 00
        E 0 80 31 00
        E 0 80 49 00
        E 0 80 61 00
        E 0 80 6c 00
        E 360 90 4a 6a
        E 0 90 62 6a
        E 120 80 4a 00
        E 0 80 62 00
        E 360 90 32 6b
        E 0 90 4a 6b
        E 0 90 62 6b
        E 0 90 6c 6b
        E 120 80 32 00
        E 0 80 4a 00
        E 0 80 62 00
        E 0 80 6c 00
        E 600 90 62 6b
        E 120 80 62 00
        E 120 90 31 6d
        E 0 90 49 6d
        E 0 90 61 6d
        E 120 80 31 00
        E 120 90 1a 6d
        E 120 80 1a 00
        E 360 80 49 00
        E 120 80 61 00
        E 360 90 32 6d
        E 0 90 4a 6d
        E 0 90 62 6d
        E 120 80 32 00
        E 0 80 4a 00
        E 0 80 62 00
        E 600 90 1a 6b
        E 0 90 31 6b
        E 0 90 49 6b
        E 0 90 61 6b
        E 0 90 6c 6a
        E 120 80 1a 00
        E 0 80 31 00
        E 0 80 49 00
        E 0 80 61 00
        E 0 80 6c 00
        E 360 90 4a 6a
        E 0 90 62 6a
        E 120 80 4a 00
        E 0 80 62 00
        E 360 90 1b 72
        E 0 90 33 72
        E 0 90 4b 72
        E 0 90 63 72
        E 0 90 6c 71
        E 120 80 6c 00
        E 840 80 1b 00
        E 240 80 33 00
        E 240 80 4b 00
        E 360 80 63 00
        E 120 90 1b 71
        E 0 90 33 71
        E 0 90 4b 71
        E 0 90 63 71
        E 960 80 1b 00
        E 240 80 33 00
        E 240 80 4b 00
        E 360 80 63 00
        E 120 90 1a 6f
        E 0 90 32 6f
        E 0 90 4a 6f
        E 0 90 62 6f
        E 0 90 6c 6f
        E 120 80 1a 00
        E 0 80 32 00
        E 0 80 6c 00
        E 360 80 4a 00
        E 360 80 62 00
        E 120 90 48 72
        E 0 90 60 72
        E 480 80 48 00
        E 360 80 60 00
        E 120 90 1a 70
        E 0 90 32 70
        E 0 90 4a 70
        E 0 90 62 70
        E 120 80 1a 00
        E 0 80 32 00
        E 360 80 4a 00
        E 360 80 62 00
        E 120 90 32 72
        E 0 90 4a 72
        E 0 90 62 72
        E 120 80 32 00
        E 360 80 4a 00
        E 360 80 62 00
        E 120 90 1b 72
        E 0 90 33 72
        E 0 90 4b 72
        E 0 90 63 72
        E 0 90 6c 71
        E 120 80 6c 00
        E 840 80 1b 00
        E 240 80 33 00
        E 240 80 4b 00
        E 360 80 63 00
        E 120 90 1b 71
        E 0 90 33 71
        E 0 90 4b 71
        E 0 90 63 71
        E 960 80 1b 00
        E 240 80 33 00
        E 240 80 4b 00
        E 360 80 63 00
        E 120 90 1a 6f
        E 0 90 32 6f
        E 0 90 4a 6f
        E 0 90 62 6f
        E 0 90 6c 6f
        E 120 80 1a 00
        E 0 80 32 00
        E 0 80 6c 00
        E 360 80 4a 00
        E 360 80 62 00
        E 120 90 48 72
        E 0 90 60 72
        E 480 80 48 00
        E 360 80 60 00
        E 120 90 1a 70
        E 0 90 32 70
        E 0 90 4a 70
        E 0 90 62 70
        E 120 80 1a 00
        E 0 80 32 00
        E 360 80 4a 00
        E 360 80 62 00
        E 120 90 32 72
        E 0 90 4a 72
        E 0 90 62 72
        E 120 80 32 00
        E 0 80 4a 00
        E 600 80 62 00
        E 240 90 1a 6b
        E 0 90 32 6b
        E 0 90 4a 6b
        E 0 90 62 6b
        E 0 90 6c 6b
        E 120 80 1a 00
        E 0 80 32 00
        E 0 80 4a 00
        E 0 80 62 00
        E 0 80 6c 00
        E 600 90 62 6b
        E 120 80 62 00
        E 120 90 31 6d
        E 0 90 49 6d
        E 0 90 61 6d
        E 120 80 31 00
        E 600 80 49 00
        E 120 80 61 00
        E 360 90 1a 6d
        E 0 90 32 6d
        E 0 90 4a 6d
        E 0 90 62 6d
        E 120 80 1a 00
        E 0 80 32 00
        E 0 80 4a 00
        E 0 80 62 00
        E 600 90 31 6b
        E 0 90 49 6b
        E 0 90 61 6b
        E 0 90 6c 6a
        E 120 80 31 00
        E 0 80 49 00
        E 0 80 61 00
        E 0 80 6c 00
        E 360 90 4a 6a
        E 0 90 62 6a
        E 120 80 4a 00
        E 0 80 62 00
        E 360 90 1a 6b
        E 0 90 32 6b
        E 0 90 4a 6b
        E 0 90 62 6b
        E 0 90 6c 6b
        E 120 80 1a 00
        E 0 80 32 00
        E 0 80 4a 00
        E 0 80 62 00
        E 0 80 6c 00
        E 600 90 62 6b
        E 120 80 62 00
        E 120 90 31 6d
        E 0 90 49 6d
        E 0 90 61 6d
        E 120 80 31 00
        E 600 80 49 00
        E 120 80 61 00
        E 360 90 1a 6d
        E 0 90 32 6d
        E 0 90 4a 6d
        E 0 90 62 6d
        E 120 80 1a 00
        E 0 80 32 00
        E 0 80 4a 00
        E 0 80 62 00
        E 600 90 31 6b
        E 0 90 49 6b
        E 0 90 61 6b
        E 0 90 6c 6a
        E 120 80 31 00
        E 0 80 49 00
        E 0 80 61 00
        E 0 80 6c 00
        E 360 90 4a 6a
        E 0 90 62 6a
        E 120 80 4a 00
        E 0 80 62 00
        E 2280 b0 7b 00
        GUID {5AD6F474-6CA7-42A9-8F86-A23A3E546550}
        IGNTEMPO 0 120.00000000 4 4
        SRCCOLOR 4
        VELLANE 132 128 128
        COLORMAP "C:\Program Files\REAPER (x64)\Data\color_maps\rockband_guitarbass.png"
        TEXTSTRINGFILE "C:\Program Files\REAPER (x64)\Data\Text_Strings\Text Events List - PRO Trainers.txt"
        CFGEDITVIEW -7584.000000 9.974882 29 14 0 0 0
        CFGEDIT 1 1 0 1 1 0 1 1 1 1 1 0.25000000 -8 -8 1548 876 0 2 1 1 0.00000000 0 1 0 0 0.500000 0 0 1.000000 64
        KEYSNAP 0 0 "102034050607" 0 "Major"
        EVTFILTER 0 -1 -1 -1 -1 0 1 0 0 -1.00000000 -1.00000000
      >
    >
  >
  <TRACK '{E566AFD4-4A43-4F24-9DB6-02E149585880}'
    NAME "PART REAL_GUITAR"
    PEAKCOL 16576
    BEAT -1
    AUTOMODE 0
    VOLPAN 1.00000000000000 0.00000000000000 -1.00000000000000 -1.00000000000000 1.00000000000000
    MUTESOLO 0 0 0
    IPHASE 0
    ISBUS 0 0
    BUSCOMP 0 0
    SHOWINMIX 1 0.666700 0.500000 1 0.500000 -1 -1 -1
    FREEMODE 0
    SEL 0
    REC 0 0 0 0 0 0 0
    VU 2
    TRACKHEIGHT 0 0
    INQ 0 0 0 0.5000000000 100 0 0 100
    NCHAN 2
    FX 0
    TRACKID {E566AFD4-4A43-4F24-9DB6-02E149585880}
    PERF 0
    MIDIOUT -1
    <MIDINOTENAMES
      0 127 "Trill Marker"
      0 126 "Tremolo Marker"
      0 125 "BRE"
      0 124 "BRE"
      0 123 "BRE"
      0 122 "BRE"
      0 121 "BRE"
      0 120 "BRE (use all 6)"
      0 119 "-----------"
      0 116 "OVERDRIVE"
      0 115 "Solo Marker"
      0 109 "-----------"
      0 108 "Fret Hand Position"
      0 107 "Force Chord Numbering"
      0 106 "Loose Strumming"
      0 105 "Strum Direction"
      0 104 "Arpeggio Marker"
      0 103 "Slide Marker"
      0 102 "Force HOPO"
      0 101 "EXPERT e String"
      0 100 "EXPERT B String"
      0 99 "EXPERT G String"
      0 98 "EXPERT D String"
      0 97 "EXPERT A String"
      0 96 "EXPERT E String"
      0 95 "-----------"
      0 82 "Loose Strumming"
      0 81 "Strum Direction"
      0 80 "Arpeggio Marker"
      0 79 "Slide Marker"
      0 78 "Force HOPO"
      0 77 "HARD e String"
      0 76 "HARD B String"
      0 75 "HARD G String"
      0 74 "HARD D String"
      0 73 "HARD A String"
      0 72 "HARD E String"
      0 71 "-----------"
      0 58 "Loose Strumming"
      0 56 "Arpeggio Marker"
      0 55 "Slide Marker"
      0 53 "MEDIUM e String"
      0 52 "MEDIUM B String"
      0 51 "MEDIUM G String"
      0 50 "MEDIUM D String"
      0 49 "MEDIUM A String"
      0 48 "MEDIUM E String"
      0 47 "-----------"
      0 32 "Arpeggio Marker"
      0 31 "Slide Marker"
      0 29 "EASY e String"
      0 28 "EASY B String"
      0 27 "EASY G String"
      0 26 "EASY D String"
      0 25 "EASY A String"
      0 24 "EASY E String"
      0 21 "-----------"
      0 18 "Flat/Sharp Swap"
      0 17 "Hide Chord Names"
      0 16 "Slash Chord"
      0 15 "D#"
      0 14 "D"
      0 13 "C#"
      0 12 "C"
      0 11 "B"
      0 10 "A#"
      0 9 "A"
      0 8 "G#"
      0 7 "G"
      0 6 "F#"
      0 5 "F"
      0 4 "E"
    >
    MAINSEND 1 0
    <FXCHAIN
      WNDRECT 409 51 655 467
      SHOW 0
      LASTSEL 1
      DOCKED 0
      BYPASS 0 0
      <JS "c3/progtr" ""
        0.000000 3.000000 0.000000 0.000000 0.000000 0.000000 0.000000 0.000000 0.000000 1.000000 - - - - - - - - - - - - - - - - - - - - - - - - - - - - - - - - - - - - - - - - - - - - - - - - - - - - - - 
      >
      FLOATPOS 0 0 0 0
      FXID {8FECA5C3-4B79-4040-ADA3-534B484B9418}
      WAK 0
      BYPASS 0 0
      <VST "VSTi: ReaSynth (Cockos)" "reasynth.dll" 0 ""
        eXNlcu9e7f4AAAAAAgAAAAEAAAAAAAAAAgAAAAAAAAA4AAAAAAAAAA==
        AAAQAO++rd4N8K3eppvEO+gJMjyHFlk/AAAAAAAAAADMm4A+4jAEPA==
        AAAAAAAAAD+01hM+j8L1PQAAAD8AABAAAAA=
      >
      FLOATPOS 0 0 0 0
      FXID {92C6C6BA-1E0E-4ABE-8F91-3BAB9443DCF0}
      WAK 0
    >
    <ITEM
      POSITION 0.00000000000000
      SNAPOFFS 0.00000000000000
      LENGTH 126.40842722848190
      LOOP 0
      ALLTAKES 0
      SEL 0
      FADEIN 1 0.000000 0.000000 1 0
      FADEOUT 1 0.000000 0.000000 1 0
      MUTE 0
      IGUID {FE91B16B-ACD8-406E-A329-86281106A0AF}
      IID 27
      NAME "PART REAL_GUITAR"
      VOLPAN 1.000000 0.000000 1.000000 -1.000000
      SOFFS 0.00000000000000 0.00000000000000
      PLAYRATE 1.00000000000000 1 0.00000000000000 -1
      CHANMODE 0
      GUID {B80097AF-4E48-434C-8468-581B30782B9F}
      <SOURCE MIDI
        HASDATA 1 480 QN
        POOLEDEVTS {35E6097C-2F31-40CC-B4DC-AEDAAA4F2D1C}
        <X 0 0
          /wNQQVJUIFJFQUxfR1VJVEFS
        >
        <X 3840 0
          /wFbYmVnaW5fcGcgc29uZ190cmFpbmVyX3BnXzFd
        >
        E 0 90 1c 72
        E 0 90 34 72
        E 0 90 4c 72
        E 0 90 6c 70
        E 0 90 64 72
        E 120 80 1c 00
        E 0 80 34 00
        E 0 80 6c 00
        E 600 80 4c 00
        E 120 80 64 00
        E 120 90 33 72
        E 0 90 4b 72
        E 0 90 63 72
        E 120 80 33 00
        E 600 80 4b 00
        E 120 80 63 00
        <X 120 0
          /wFbcGdfbm9ybSBzb25nX3RyYWluZXJfcGdfMV0=
        >
        E 0 90 1c 70
        E 0 90 34 70
        E 0 90 4c 70
        E 0 90 64 70
        E 120 80 1c 00
        E 600 80 4c 00
        E 120 80 34 00
        E 0 80 64 00
        E 120 90 4a 72
        E 0 90 62 72
        E 720 80 4a 00
        E 120 80 62 00
        E 120 90 1a 72
        E 0 90 32 72
        E 0 90 4a 72
        E 0 90 62 72
        E 0 90 74 60
        E 120 80 1a 00
        E 0 80 32 00
        E 600 80 4a 00
        E 120 80 62 00
        E 120 90 33 72
        E 0 90 4b 72
        E 0 90 63 72
        E 120 80 33 00
        E 600 80 4b 00
        E 120 80 63 00
        E 120 90 1c 72
        E 0 90 34 72
        E 0 90 4c 72
        E 0 90 64 72
        E 120 80 1c 00
        E 600 80 4c 00
        E 120 80 34 00
        E 0 80 64 00
        E 120 90 4b 72
        E 0 90 63 72
        E 720 80 4b 00
        E 120 80 63 00
        <X 120 0
          /wFbZW5kX3BnIHNvbmdfdHJhaW5lcl9wZ18xXQ==
        >
        E 0 90 1c 72
        E 0 90 34 72
        E 0 90 4c 72
        E 0 90 64 72
        E 0 80 74 00
        E 120 80 1c 00
        E 0 80 34 00
        E 600 80 4c 00
        E 120 80 64 00
        E 120 90 33 72
        E 0 90 4b 72
        E 0 90 63 72
        E 120 80 33 00
        E 600 80 4b 00
        E 120 80 63 00
        E 120 90 1c 70
        E 0 90 34 70
        E 0 90 4c 70
        E 0 90 64 70
        E 120 80 1c 00
        E 600 80 4c 00
        E 120 80 34 00
        E 0 80 64 00
        E 120 90 4a 72
        E 0 90 62 72
        E 720 80 4a 00
        E 120 80 62 00
        E 120 90 1a 72
        E 0 90 32 72
        E 0 90 4a 72
        E 0 90 62 72
        E 120 80 1a 00
        E 0 80 32 00
        E 600 80 4a 00
        E 120 80 62 00
        E 120 90 33 72
        E 0 90 4b 72
        E 0 90 63 72
        E 120 80 33 00
        E 600 80 4b 00
        E 120 80 63 00
        E 120 90 1c 72
        E 0 90 34 72
        E 0 90 4c 72
        E 0 90 64 72
        E 120 80 1c 00
        E 600 80 4c 00
        E 120 80 34 00
        E 0 80 64 00
        E 120 90 4b 72
        E 0 90 63 72
        E 960 80 4b 00
        E 0 80 63 00
        <X 15360 0
          /wFbYmVnaW5fcGcgc29uZ190cmFpbmVyX3BnXzJd
        >
        E 0 90 1c 72
        E 0 90 34 72
        E 0 90 4c 72
        E 0 90 64 72
        E 120 80 1c 00
        E 0 80 34 00
        E 600 80 4c 00
        E 120 80 64 00
        E 120 90 33 72
        E 0 90 4b 72
        E 0 90 63 72
        E 120 80 33 00
        E 600 80 4b 00
        E 120 80 63 00
        E 120 90 1c 70
        E 0 90 34 70
        E 0 90 4c 70
        E 0 90 64 70
        E 120 80 1c 00
        E 0 80 34 00
        E 600 80 4c 00
        E 120 80 64 00
        E 120 90 4d 70
        E 0 90 65 70
        E 720 80 4d 00
        E 120 80 65 00
        <X 120 0
          /wFbcGdfbm9ybSBzb25nX3RyYWluZXJfcGdfMl0=
        >
        E 0 90 1a 72
        E 0 90 32 72
        E 0 90 4a 72
        E 0 90 62 72
        E 1920 80 1a 00
        E 0 80 32 00
        E 0 80 4a 00
        E 0 80 62 00
        E 1920 90 1c 72
        E 0 90 34 72
        E 0 90 4c 72
        E 0 90 64 72
        E 0 90 74 60
        E 120 80 1c 00
        E 0 80 34 00
        E 600 80 4c 00
        E 120 80 64 00
        E 120 90 33 72
        E 0 90 4b 72
        E 0 90 63 72
        E 120 80 33 00
        E 600 80 4b 00
        E 120 80 63 00
        E 120 90 1c 70
        E 0 90 34 70
        E 0 90 4c 70
        E 0 90 64 70
        E 120 80 1c 00
        E 0 80 34 00
        E 600 80 4c 00
        E 120 80 64 00
        E 120 90 35 70
        E 0 90 4d 70
        E 0 90 65 70
        E 0 90 6c 6d
        E 120 80 35 00
        E 0 80 4d 00
        E 0 80 65 00
        E 0 80 6c 00
        E 360 90 4d 6e
        E 0 90 65 6e
        E 120 80 4d 00
        E 0 80 65 00
        E 360 90 1d 6d
        E 0 90 35 6d
        E 0 90 4d 6d
        E 0 90 65 6d
        E 120 80 74 00
        E 1800 80 1d 00
        E 0 80 35 00
        E 0 80 4d 00
        E 0 80 65 00
        <X 1920 0
          /wFbZW5kX3BnIHNvbmdfdHJhaW5lcl9wZ18yXQ==
        >
        E 15360 90 1c 72
        E 0 90 34 72
        E 0 90 4c 72
        E 0 90 64 72
        E 0 90 6c 70
        E 120 80 1c 00
        E 0 80 34 00
        E 0 80 6c 00
        E 600 80 4c 00
        E 120 80 64 00
        E 120 90 33 72
        E 0 90 4b 72
        E 0 90 63 72
        E 120 80 33 00
        E 600 80 4b 00
        E 120 80 63 00
        E 120 90 1c 70
        E 0 90 34 70
        E 0 90 4c 70
        E 0 90 64 70
        E 120 80 1c 00
        E 600 80 4c 00
        E 120 80 34 00
        E 0 80 64 00
        E 120 90 4a 72
        E 0 90 62 72
        E 720 80 4a 00
        E 120 80 62 00
        E 120 90 1a 72
        E 0 90 32 72
        E 0 90 4a 72
        E 0 90 62 72
        E 0 90 74 60
        E 120 80 1a 00
        E 0 80 32 00
        E 600 80 4a 00
        E 120 80 62 00
        E 120 90 33 72
        E 0 90 4b 72
        E 0 90 63 72
        E 120 80 33 00
        E 600 80 4b 00
        E 120 80 63 00
        E 120 90 1c 72
        E 0 90 34 72
        E 0 90 4c 72
        E 0 90 64 72
        E 120 80 1c 00
        E 600 80 4c 00
        E 120 80 34 00
        E 0 80 64 00
        E 120 90 4b 72
        E 0 90 63 72
        E 720 80 4b 00
        E 120 80 63 00
        E 120 90 1c 72
        E 0 90 34 72
        E 0 90 4c 72
        E 0 90 64 72
        E 0 80 74 00
        E 120 80 1c 00
        E 0 80 34 00
        E 600 80 4c 00
        E 120 80 64 00
        E 120 90 33 72
        E 0 90 4b 72
        E 0 90 63 72
        E 120 80 33 00
        E 600 80 4b 00
        E 120 80 63 00
        E 120 90 1c 70
        E 0 90 34 70
        E 0 90 4c 70
        E 0 90 64 70
        E 120 80 1c 00
        E 600 80 4c 00
        E 120 80 34 00
        E 0 80 64 00
        E 120 90 4a 72
        E 0 90 62 72
        E 720 80 4a 00
        E 120 80 62 00
        E 120 90 1a 72
        E 0 90 32 72
        E 0 90 4a 72
        E 0 90 62 72
        E 120 80 1a 00
        E 0 80 32 00
        E 600 80 4a 00
        E 120 80 62 00
        E 120 90 33 72
        E 0 90 4b 72
        E 0 90 63 72
        E 120 80 33 00
        E 600 80 4b 00
        E 120 80 63 00
        E 120 90 1c 72
        E 0 90 34 72
        E 0 90 4c 72
        E 0 90 64 72
        E 120 80 1c 00
        E 600 80 4c 00
        E 120 80 34 00
        E 0 80 64 00
        E 120 90 4b 72
        E 0 90 63 72
        E 960 80 4b 00
        E 0 80 63 00
        E 15360 90 1c 72
        E 0 90 34 72
        E 0 90 4c 72
        E 0 90 64 72
        E 120 80 1c 00
        E 0 80 34 00
        E 600 80 4c 00
        E 120 80 64 00
        E 120 90 33 72
        E 0 90 4b 72
        E 0 90 63 72
        E 120 80 33 00
        E 600 80 4b 00
        E 120 80 63 00
        E 120 90 1c 70
        E 0 90 34 70
        E 0 90 4c 70
        E 0 90 64 70
        E 120 80 1c 00
        E 0 80 34 00
        E 600 80 4c 00
        E 120 80 64 00
        E 120 90 4d 70
        E 0 90 65 70
        E 720 80 4d 00
        E 120 80 65 00
        E 120 90 1a 72
        E 0 90 32 72
        E 0 90 4a 72
        E 0 90 62 72
        E 1920 80 1a 00
        E 0 80 32 00
        E 0 80 4a 00
        E 0 80 62 00
        E 1920 90 1c 72
        E 0 90 34 72
        E 0 90 4c 72
        E 0 90 64 72
        e 0 90 74 60
        E 120 80 1c 00
        E 0 80 34 00
        E 600 80 4c 00
        E 120 80 64 00
        E 120 90 33 72
        E 0 90 4b 72
        E 0 90 63 72
        E 120 80 33 00
        E 600 80 4b 00
        E 120 80 63 00
        E 120 90 1c 70
        E 0 90 34 70
        E 0 90 4c 70
        E 0 90 64 70
        E 120 80 1c 00
        E 0 80 34 00
        E 600 80 4c 00
        E 120 80 64 00
        E 120 90 35 70
        E 0 90 4d 70
        E 0 90 65 70
        E 0 90 6c 6d
        E 120 80 35 00
        E 0 80 4d 00
        E 0 80 65 00
        E 0 80 6c 00
        E 360 90 4d 6e
        E 0 90 65 6e
        E 120 80 4d 00
        E 0 80 65 00
        E 360 90 1d 6d
        E 0 90 35 6d
        E 0 90 4d 6d
        E 0 90 65 6d
        e 120 80 74 00
        E 1800 80 1d 00
        E 0 80 35 00
        E 0 80 4d 00
        E 0 80 65 00
        E 17280 90 1c 72
        E 0 90 34 72
        E 0 90 4c 72
        E 0 90 64 72
        E 0 90 6c 70
        E 120 80 1c 00
        E 0 80 34 00
        E 0 80 6c 00
        E 600 80 4c 00
        E 120 80 64 00
        E 120 90 33 72
        E 0 90 4b 72
        E 0 90 63 72
        E 120 80 33 00
        E 600 80 4b 00
        E 120 80 63 00
        E 120 90 1c 70
        E 0 90 34 70
        E 0 90 4c 70
        E 0 90 64 70
        E 120 80 1c 00
        E 600 80 4c 00
        E 120 80 34 00
        E 0 80 64 00
        E 120 90 4a 72
        E 0 90 62 72
        E 720 80 4a 00
        E 120 80 62 00
        E 120 90 1a 72
        E 0 90 32 72
        E 0 90 4a 72
        E 0 90 62 72
        E 120 80 1a 00
        E 0 80 32 00
        E 600 80 4a 00
        E 120 80 62 00
        E 120 90 33 72
        E 0 90 4b 72
        E 0 90 63 72
        E 120 80 33 00
        E 600 80 4b 00
        E 120 80 63 00
        E 120 90 1c 72
        E 0 90 34 72
        E 0 90 4c 72
        E 0 90 64 72
        E 120 80 1c 00
        E 600 80 4c 00
        E 120 80 34 00
        E 0 80 64 00
        E 120 90 4b 72
        E 0 90 63 72
        E 720 80 4b 00
        E 120 80 63 00
        E 120 90 1c 72
        E 0 90 34 72
        E 0 90 4c 72
        E 0 90 64 72
        E 120 80 1c 00
        E 0 80 34 00
        E 600 80 4c 00
        E 120 80 64 00
        E 120 90 33 72
        E 0 90 4b 72
        E 0 90 63 72
        E 120 80 33 00
        E 600 80 4b 00
        E 120 80 63 00
        E 120 90 1c 70
        E 0 90 34 70
        E 0 90 4c 70
        E 0 90 64 70
        E 120 80 1c 00
        E 600 80 4c 00
        E 120 80 34 00
        E 0 80 64 00
        E 120 90 4a 72
        E 0 90 62 72
        E 720 80 4a 00
        E 120 80 62 00
        E 120 90 1a 72
        E 0 90 32 72
        E 0 90 4a 72
        E 0 90 62 72
        E 120 80 1a 00
        E 0 80 32 00
        E 600 80 4a 00
        E 120 80 62 00
        E 120 90 33 72
        E 0 90 4b 72
        E 0 90 63 72
        E 120 80 33 00
        E 600 80 4b 00
        E 120 80 63 00
        E 120 90 1c 72
        E 0 90 34 72
        E 0 90 4c 72
        E 0 90 64 72
        E 120 80 1c 00
        E 600 80 4c 00
        E 120 80 34 00
        E 0 80 64 00
        E 120 90 4b 72
        E 0 90 63 72
        E 960 80 4b 00
        E 0 80 63 00
        E 9600 b0 7b 00
        GUID {479911F8-B4C3-4C60-8BE2-78F8FBC5B6C8}
        IGNTEMPO 0 120.00000000 4 4
        SRCCOLOR 6
        VELLANE 132 128 128
        COLORMAP "C:\Program Files\REAPER (x64)\Data\color_maps\rockband_guitarbass.png"
        TEXTSTRINGFILE "C:\Program Files\REAPER (x64)\Data\Text_Strings\Text Events List - PRO Trainers.txt"
        CFGEDITVIEW -7584.000000 12.707726 0 12 0 0 0
        CFGEDIT 1 1 0 1 1 0 1 1 1 1 1 0.25000000 -8 -8 1928 1088 0 2 1 1 0.00000000 0 1 0 0 0.500000 0 0 1.000000 64
        KEYSNAP 0 0 "102034050607" 0 "Major"
        EVTFILTER 0 -1 -1 -1 -1 0 1 0 0 -1.00000000 -1.00000000
      >
    >
  >
  <TRACK '{9F25B3E4-A24D-4632-8D22-BA81F9CF2166}'
    NAME "EVENTS"
    PEAKCOL 16576
    BEAT -1
    AUTOMODE 0
    VOLPAN 1.00000000000000 0.00000000000000 -1.00000000000000 -1.00000000000000 1.00000000000000
    MUTESOLO 0 0 0
    IPHASE 0
    ISBUS 0 0
    BUSCOMP 0 0
    SHOWINMIX 1 0.666700 0.500000 1 0.500000 -1 -1 -1
    FREEMODE 0
    SEL 0
    REC 0 0 0 0 0 0 0
    VU 2
    TRACKHEIGHT 0 0
    INQ 0 0 0 0.5000000000 100 0 0 100
    NCHAN 2
    FX 1
    TRACKID {9F25B3E4-A24D-4632-8D22-BA81F9CF2166}
    PERF 0
    MIDIOUT -1
    <MIDINOTENAMES
      0 26 "Hi-Hat"
      0 25 "Snare"
      0 24 "Kick"
    >
    MAINSEND 1 0
    <FXCHAIN
      SHOW 0
      LASTSEL 0
      DOCKED 0
    >
    <ITEM
      POSITION 0.00000000000000
      SNAPOFFS 0.00000000000000
      LENGTH 126.40842722848190
      LOOP 0
      ALLTAKES 0
      SEL 0
      FADEIN 1 0.000000 0.000000 1 0
      FADEOUT 1 0.000000 0.000000 1 0
      MUTE 0
      IGUID {21AF6CFA-14E5-4A07-98CE-185EFCEC80E4}
      IID 23
      NAME "EVENTS"
      VOLPAN 1.000000 0.000000 1.000000 -1.000000
      SOFFS 0.00000000000000 0.00000000000000
      PLAYRATE 1.00000000000000 1 0.00000000000000 -1
      CHANMODE 0
      GUID {DA7DCFCB-33DE-48FB-BCAB-4CB39D85FE82}
      <SOURCE MIDI
        HASDATA 1 480 QN
        POOLEDEVTS {56F3920B-F2D9-41E5-8CAB-4319191BF09D}
        <X 0 0
          /wNFVkVOVFM=
        >
        E 0 90 1a 60
        E 120 80 1a 00
        E 840 90 1a 60
        E 120 80 1a 00
        E 840 90 1a 60
        E 120 80 1a 00
        E 360 90 1a 60
        E 120 80 1a 00
        E 360 90 1a 60
        E 120 80 1a 00
        E 360 90 1a 60
        E 120 80 1a 00
        <X 360 0
          /wFbcHJjX2ExXQ==
        >
        E 0 90 1a 60
        E 120 80 1a 00
        E 360 90 1a 60
        E 120 80 1a 00
        E 120 90 1a 60
        E 120 80 1a 00
        <X 120 0
          /wFbbXVzaWNfc3RhcnRd
        >
        E 0 90 18 60
        E 0 90 1a 60
        E 120 80 18 00
        E 0 80 1a 00
        E 360 90 1a 60
        E 120 80 1a 00
        E 120 90 1a 60
        E 120 80 1a 00
        E 360 90 18 60
        E 120 80 18 00
        E 120 90 1a 60
        E 120 80 1a 00
        E 120 90 1a 60
        E 120 80 1a 00
        E 120 90 19 60
        E 120 80 19 00
        E 120 90 1a 60
        E 120 80 1a 00
        E 120 90 1a 60
        E 120 80 1a 00
        E 120 90 1a 60
        E 120 80 1a 00
        E 120 90 1a 60
        E 120 80 1a 00
        E 360 90 1a 60
        E 120 80 1a 00
        E 120 90 1a 60
        E 120 80 1a 00
        E 120 90 18 60
        E 0 90 1a 60
        E 120 80 18 00
        E 0 80 1a 00
        E 360 90 1a 60
        E 120 80 1a 00
        E 120 90 1a 60
        E 120 80 1a 00
        E 360 90 18 60
        E 120 80 18 00
        E 120 90 1a 60
        E 120 80 1a 00
        E 120 90 1a 60
        E 120 80 1a 00
        E 120 90 19 60
        E 120 80 19 00
        E 120 90 1a 60
        E 120 80 1a 00
        E 120 90 1a 60
        E 120 80 1a 00
        E 120 90 1a 60
        E 120 80 1a 00
        E 120 90 1a 60
        E 120 80 1a 00
        E 360 90 1a 60
        E 120 80 1a 00
        E 120 90 1a 60
        E 120 80 1a 00
        E 120 90 18 60
        E 0 90 1a 60
        E 120 80 18 00
        E 0 80 1a 00
        E 360 90 1a 60
        E 120 80 1a 00
        E 120 90 1a 60
        E 120 80 1a 00
        E 360 90 18 60
        E 120 80 18 00
        E 120 90 1a 60
        E 120 80 1a 00
        E 120 90 1a 60
        E 120 80 1a 00
        E 120 90 19 60
        E 120 80 19 00
        E 120 90 1a 60
        E 120 80 1a 00
        E 120 90 1a 60
        E 120 80 1a 00
        E 120 90 1a 60
        E 120 80 1a 00
        E 120 90 1a 60
        E 120 80 1a 00
        E 360 90 1a 60
        E 120 80 1a 00
        E 120 90 1a 60
        E 120 80 1a 00
        E 120 90 18 60
        E 0 90 1a 60
        E 120 80 18 00
        E 0 80 1a 00
        E 360 90 1a 60
        E 120 80 1a 00
        E 120 90 1a 60
        E 120 80 1a 00
        E 360 90 19 60
        E 120 80 19 00
        E 360 90 18 60
        E 120 80 18 00
        E 120 90 19 60
        E 120 80 19 00
        E 120 90 19 60
        E 120 80 19 00
        E 120 90 19 60
        E 120 80 19 00
        <X 360 0
          /wFbcHJjX2IxXQ==
        >
        E 0 90 18 60
        E 120 80 18 00
        E 360 90 1a 60
        E 120 80 1a 00
        E 120 90 1a 60
        E 120 80 1a 00
        E 120 90 19 60
        E 120 80 19 00
        E 360 90 1a 60
        E 120 80 1a 00
        E 120 90 1a 60
        E 120 80 1a 00
        E 360 90 18 60
        E 120 80 18 00
        E 120 90 1a 60
        E 120 80 1a 00
        E 120 90 1a 60
        E 120 80 1a 00
        E 120 90 19 60
        E 120 80 19 00
        E 360 90 1a 60
        E 120 80 1a 00
        E 120 90 1a 60
        E 120 80 1a 00
        E 120 90 18 60
        E 120 80 18 00
        E 360 90 1a 60
        E 120 80 1a 00
        E 120 90 1a 60
        E 120 80 1a 00
        E 120 90 19 60
        E 120 80 19 00
        E 360 90 1a 60
        E 120 80 1a 00
        E 120 90 1a 60
        E 120 80 1a 00
        E 360 90 18 60
        E 120 80 18 00
        E 120 90 1a 60
        E 120 80 1a 00
        E 120 90 1a 60
        E 120 80 1a 00
        E 120 90 19 60
        E 120 80 19 00
        E 360 90 1a 60
        E 120 80 1a 00
        E 120 90 1a 60
        E 120 80 1a 00
        E 120 90 18 60
        E 120 80 18 00
        E 360 90 1a 60
        E 120 80 1a 00
        E 120 90 1a 60
        E 120 80 1a 00
        E 120 90 19 60
        E 120 80 19 00
        E 360 90 1a 60
        E 120 80 1a 00
        E 120 90 1a 60
        E 120 80 1a 00
        E 360 90 18 60
        E 120 80 18 00
        E 120 90 1a 60
        E 120 80 1a 00
        E 120 90 1a 60
        E 120 80 1a 00
        E 120 90 19 60
        E 120 80 19 00
        E 360 90 1a 60
        E 120 80 1a 00
        E 120 90 1a 60
        E 120 80 1a 00
        E 120 90 18 60
        E 120 80 18 00
        E 360 90 1a 60
        E 120 80 1a 00
        E 120 90 1a 60
        E 120 80 1a 00
        E 120 90 19 60
        E 120 80 19 00
        E 360 90 1a 60
        E 120 80 1a 00
        E 120 90 1a 60
        E 120 80 1a 00
        E 360 90 18 60
        E 120 80 18 00
        E 120 90 1a 60
        E 120 80 1a 00
        E 120 90 1a 60
        E 120 80 1a 00
        E 120 90 19 60
        E 120 80 19 00
        E 360 90 1a 60
        E 120 80 1a 00
        E 120 90 1a 60
        E 120 80 1a 00
        <X 120 0
          /wFbcHJjX2MxXQ==
        >
        E 0 90 18 60
        E 120 80 18 00
        E 360 90 1a 60
        E 120 80 1a 00
        E 120 90 1a 60
        E 120 80 1a 00
        E 120 90 19 60
        E 120 80 19 00
        E 360 90 1a 60
        E 120 80 1a 00
        E 120 90 1a 60
        E 120 80 1a 00
        E 360 90 18 60
        E 120 80 18 00
        E 120 90 1a 60
        E 120 80 1a 00
        E 120 90 1a 60
        E 120 80 1a 00
        E 120 90 19 60
        E 120 80 19 00
        E 360 90 1a 60
        E 120 80 1a 00
        E 120 90 1a 60
        E 120 80 1a 00
        E 120 90 18 60
        E 120 80 18 00
        E 360 90 1a 60
        E 120 80 1a 00
        E 120 90 1a 60
        E 120 80 1a 00
        E 120 90 19 60
        E 120 80 19 00
        E 360 90 1a 60
        E 120 80 1a 00
        E 120 90 1a 60
        E 120 80 1a 00
        E 360 90 18 60
        E 120 80 18 00
        E 120 90 1a 60
        E 120 80 1a 00
        E 120 90 1a 60
        E 120 80 1a 00
        E 120 90 19 60
        E 120 80 19 00
        E 360 90 1a 60
        E 120 80 1a 00
        E 120 90 1a 60
        E 120 80 1a 00
        E 120 90 18 60
        E 120 80 18 00
        E 360 90 1a 60
        E 120 80 1a 00
        E 120 90 1a 60
        E 120 80 1a 00
        E 120 90 19 60
        E 120 80 19 00
        E 360 90 1a 60
        E 120 80 1a 00
        E 120 90 1a 60
        E 120 80 1a 00
        E 360 90 18 60
        E 120 80 18 00
        E 120 90 1a 60
        E 120 80 1a 00
        E 120 90 1a 60
        E 120 80 1a 00
        E 120 90 19 60
        E 120 80 19 00
        E 360 90 1a 60
        E 120 80 1a 00
        E 120 90 1a 60
        E 120 80 1a 00
        E 120 90 18 60
        E 120 80 18 00
        E 360 90 1a 60
        E 120 80 1a 00
        E 120 90 1a 60
        E 120 80 1a 00
        E 120 90 19 60
        E 120 80 19 00
        E 360 90 1a 60
        E 120 80 1a 00
        E 120 90 1a 60
        E 120 80 1a 00
        E 360 90 18 60
        E 120 80 18 00
        E 120 90 1a 60
        E 120 80 1a 00
        E 120 90 1a 60
        E 120 80 1a 00
        E 120 90 19 60
        E 120 80 19 00
        E 360 90 1a 60
        E 120 80 1a 00
        E 120 90 1a 60
        E 120 80 1a 00
        <X 120 0
          /wFbcHJjX2QxXQ==
        >
        E 0 90 18 60
        E 120 80 18 00
        E 360 90 1a 60
        E 120 80 1a 00
        E 120 90 1a 60
        E 120 80 1a 00
        E 120 90 19 60
        E 120 80 19 00
        E 360 90 1a 60
        E 120 80 1a 00
        E 120 90 1a 60
        E 120 80 1a 00
        E 360 90 18 60
        E 120 80 18 00
        E 120 90 1a 60
        E 120 80 1a 00
        E 120 90 1a 60
        E 120 80 1a 00
        E 120 90 19 60
        E 120 80 19 00
        E 360 90 1a 60
        E 120 80 1a 00
        E 120 90 1a 60
        E 120 80 1a 00
        E 120 90 18 60
        E 120 80 18 00
        E 360 90 1a 60
        E 120 80 1a 00
        E 120 90 1a 60
        E 120 80 1a 00
        E 120 90 19 60
        E 120 80 19 00
        E 360 90 1a 60
        E 120 80 1a 00
        E 120 90 1a 60
        E 120 80 1a 00
        E 360 90 18 60
        E 120 80 18 00
        E 120 90 1a 60
        E 120 80 1a 00
        E 120 90 1a 60
        E 120 80 1a 00
        E 120 90 19 60
        E 120 80 19 00
        E 360 90 1a 60
        E 120 80 1a 00
        E 120 90 1a 60
        E 120 80 1a 00
        E 120 90 18 60
        E 120 80 18 00
        E 360 90 1a 60
        E 120 80 1a 00
        E 120 90 1a 60
        E 120 80 1a 00
        E 120 90 19 60
        E 120 80 19 00
        E 360 90 1a 60
        E 120 80 1a 00
        E 120 90 1a 60
        E 120 80 1a 00
        E 360 90 18 60
        E 120 80 18 00
        E 120 90 1a 60
        E 120 80 1a 00
        E 120 90 1a 60
        E 120 80 1a 00
        E 120 90 19 60
        E 120 80 19 00
        E 360 90 1a 60
        E 120 80 1a 00
        E 120 90 1a 60
        E 120 80 1a 00
        E 120 90 18 60
        E 120 80 18 00
        E 360 90 1a 60
        E 120 80 1a 00
        E 120 90 1a 60
        E 120 80 1a 00
        E 120 90 19 60
        E 120 80 19 00
        E 360 90 1a 60
        E 120 80 1a 00
        E 120 90 1a 60
        E 120 80 1a 00
        E 360 90 18 60
        E 120 80 18 00
        E 120 90 1a 60
        E 120 80 1a 00
        E 120 90 1a 60
        E 120 80 1a 00
        E 120 90 19 60
        E 120 80 19 00
        E 360 90 1a 60
        E 120 80 1a 00
        E 120 90 1a 60
        E 120 80 1a 00
        <X 120 0
          /wFbcHJjX2EyXQ==
        >
        E 0 90 1a 60
        E 120 80 1a 00
        E 360 90 1a 60
        E 120 80 1a 00
        E 120 90 1a 60
        E 120 80 1a 00
        E 120 90 18 60
        E 0 90 1a 60
        E 120 80 18 00
        E 0 80 1a 00
        E 360 90 1a 60
        E 120 80 1a 00
        E 120 90 1a 60
        E 120 80 1a 00
        E 360 90 18 60
        E 120 80 18 00
        E 120 90 1a 60
        E 120 80 1a 00
        E 120 90 1a 60
        E 120 80 1a 00
        E 120 90 19 60
        E 120 80 19 00
        E 120 90 1a 60
        E 120 80 1a 00
        E 120 90 1a 60
        E 120 80 1a 00
        E 120 90 1a 60
        E 120 80 1a 00
        E 120 90 1a 60
        E 120 80 1a 00
        E 360 90 1a 60
        E 120 80 1a 00
        E 120 90 1a 60
        E 120 80 1a 00
        E 120 90 18 60
        E 0 90 1a 60
        E 120 80 18 00
        E 0 80 1a 00
        E 360 90 1a 60
        E 120 80 1a 00
        E 120 90 1a 60
        E 120 80 1a 00
        E 360 90 18 60
        E 120 80 18 00
        E 120 90 1a 60
        E 120 80 1a 00
        E 120 90 1a 60
        E 120 80 1a 00
        E 120 90 19 60
        E 120 80 19 00
        E 120 90 1a 60
        E 120 80 1a 00
        E 120 90 1a 60
        E 120 80 1a 00
        E 120 90 1a 60
        E 120 80 1a 00
        E 120 90 1a 60
        E 120 80 1a 00
        E 360 90 1a 60
        E 120 80 1a 00
        E 120 90 1a 60
        E 120 80 1a 00
        E 120 90 18 60
        E 0 90 1a 60
        E 120 80 18 00
        E 0 80 1a 00
        E 360 90 1a 60
        E 120 80 1a 00
        E 120 90 1a 60
        E 120 80 1a 00
        E 360 90 18 60
        E 120 80 18 00
        E 120 90 1a 60
        E 120 80 1a 00
        E 120 90 1a 60
        E 120 80 1a 00
        E 120 90 19 60
        E 120 80 19 00
        E 120 90 1a 60
        E 120 80 1a 00
        E 120 90 1a 60
        E 120 80 1a 00
        E 120 90 1a 60
        E 120 80 1a 00
        E 120 90 1a 60
        E 120 80 1a 00
        E 360 90 1a 60
        E 120 80 1a 00
        E 120 90 1a 60
        E 120 80 1a 00
        E 120 90 18 60
        E 0 90 1a 60
        E 120 80 18 00
        E 0 80 1a 00
        E 360 90 1a 60
        E 120 80 1a 00
        E 120 90 1a 60
        E 120 80 1a 00
        E 360 90 19 60
        E 120 80 19 00
        E 360 90 18 60
        E 120 80 18 00
        E 120 90 19 60
        E 120 80 19 00
        E 120 90 19 60
        E 120 80 19 00
        E 120 90 19 60
        E 120 80 19 00
        <X 360 0
          /wFbcHJjX2IyXQ==
        >
        E 0 90 18 60
        E 120 80 18 00
        E 360 90 1a 60
        E 120 80 1a 00
        E 120 90 1a 60
        E 120 80 1a 00
        E 120 90 19 60
        E 120 80 19 00
        E 360 90 1a 60
        E 120 80 1a 00
        E 120 90 1a 60
        E 120 80 1a 00
        E 360 90 18 60
        E 120 80 18 00
        E 120 90 1a 60
        E 120 80 1a 00
        E 120 90 1a 60
        E 120 80 1a 00
        E 120 90 19 60
        E 120 80 19 00
        E 360 90 1a 60
        E 120 80 1a 00
        E 120 90 1a 60
        E 120 80 1a 00
        E 120 90 18 60
        E 120 80 18 00
        E 360 90 1a 60
        E 120 80 1a 00
        E 120 90 1a 60
        E 120 80 1a 00
        E 120 90 19 60
        E 120 80 19 00
        E 360 90 1a 60
        E 120 80 1a 00
        E 120 90 1a 60
        E 120 80 1a 00
        E 360 90 18 60
        E 120 80 18 00
        E 120 90 1a 60
        E 120 80 1a 00
        E 120 90 1a 60
        E 120 80 1a 00
        E 120 90 19 60
        E 120 80 19 00
        E 360 90 1a 60
        E 120 80 1a 00
        E 120 90 1a 60
        E 120 80 1a 00
        E 120 90 18 60
        E 120 80 18 00
        E 360 90 1a 60
        E 120 80 1a 00
        E 120 90 1a 60
        E 120 80 1a 00
        E 120 90 19 60
        E 120 80 19 00
        E 360 90 1a 60
        E 120 80 1a 00
        E 120 90 1a 60
        E 120 80 1a 00
        E 360 90 18 60
        E 120 80 18 00
        E 120 90 1a 60
        E 120 80 1a 00
        E 120 90 1a 60
        E 120 80 1a 00
        E 120 90 19 60
        E 120 80 19 00
        E 360 90 1a 60
        E 120 80 1a 00
        E 120 90 1a 60
        E 120 80 1a 00
        E 120 90 18 60
        E 120 80 18 00
        E 360 90 1a 60
        E 120 80 1a 00
        E 120 90 1a 60
        E 120 80 1a 00
        E 120 90 19 60
        E 120 80 19 00
        E 360 90 1a 60
        E 120 80 1a 00
        E 120 90 1a 60
        E 120 80 1a 00
        E 360 90 18 60
        E 120 80 18 00
        E 120 90 1a 60
        E 120 80 1a 00
        E 120 90 1a 60
        E 120 80 1a 00
        E 120 90 19 60
        E 120 80 19 00
        E 360 90 1a 60
        E 120 80 1a 00
        E 120 90 1a 60
        E 120 80 1a 00
        <X 120 0
          /wFbcHJjX2MyXQ==
        >
        E 0 90 18 60
        E 120 80 18 00
        E 360 90 1a 60
        E 120 80 1a 00
        E 120 90 1a 60
        E 120 80 1a 00
        E 120 90 19 60
        E 120 80 19 00
        E 360 90 1a 60
        E 120 80 1a 00
        E 120 90 1a 60
        E 120 80 1a 00
        E 360 90 18 60
        E 120 80 18 00
        E 120 90 1a 60
        E 120 80 1a 00
        E 120 90 1a 60
        E 120 80 1a 00
        E 120 90 19 60
        E 120 80 19 00
        E 360 90 1a 60
        E 120 80 1a 00
        E 120 90 1a 60
        E 120 80 1a 00
        E 120 90 18 60
        E 120 80 18 00
        E 360 90 1a 60
        E 120 80 1a 00
        E 120 90 1a 60
        E 120 80 1a 00
        E 120 90 19 60
        E 120 80 19 00
        E 360 90 1a 60
        E 120 80 1a 00
        E 120 90 1a 60
        E 120 80 1a 00
        E 360 90 18 60
        E 120 80 18 00
        E 120 90 1a 60
        E 120 80 1a 00
        E 120 90 1a 60
        E 120 80 1a 00
        E 120 90 19 60
        E 120 80 19 00
        E 360 90 1a 60
        E 120 80 1a 00
        E 120 90 1a 60
        E 120 80 1a 00
        E 120 90 18 60
        E 120 80 18 00
        E 360 90 1a 60
        E 120 80 1a 00
        E 120 90 1a 60
        E 120 80 1a 00
        E 120 90 19 60
        E 120 80 19 00
        E 360 90 1a 60
        E 120 80 1a 00
        E 120 90 1a 60
        E 120 80 1a 00
        E 360 90 18 60
        E 120 80 18 00
        E 120 90 1a 60
        E 120 80 1a 00
        E 120 90 1a 60
        E 120 80 1a 00
        E 120 90 19 60
        E 120 80 19 00
        E 360 90 1a 60
        E 120 80 1a 00
        E 120 90 1a 60
        E 120 80 1a 00
        E 120 90 18 60
        E 120 80 18 00
        E 360 90 1a 60
        E 120 80 1a 00
        E 120 90 1a 60
        E 120 80 1a 00
        E 120 90 19 60
        E 120 80 19 00
        E 360 90 1a 60
        E 120 80 1a 00
        E 120 90 1a 60
        E 120 80 1a 00
        E 360 90 18 60
        E 120 80 18 00
        E 120 90 1a 60
        E 120 80 1a 00
        E 120 90 1a 60
        E 120 80 1a 00
        E 120 90 19 60
        E 120 80 19 00
        E 360 90 1a 60
        E 120 80 1a 00
        E 120 90 1a 60
        E 120 80 1a 00
        <X 120 0
          /wFbcHJjX2QyXQ==
        >
        E 0 90 18 60
        E 120 80 18 00
        E 360 90 1a 60
        E 120 80 1a 00
        E 120 90 1a 60
        E 120 80 1a 00
        E 120 90 19 60
        E 120 80 19 00
        E 360 90 1a 60
        E 120 80 1a 00
        E 120 90 1a 60
        E 120 80 1a 00
        E 360 90 18 60
        E 120 80 18 00
        E 120 90 1a 60
        E 120 80 1a 00
        E 120 90 1a 60
        E 120 80 1a 00
        E 120 90 19 60
        E 120 80 19 00
        E 360 90 1a 60
        E 120 80 1a 00
        E 120 90 1a 60
        E 120 80 1a 00
        E 120 90 18 60
        E 120 80 18 00
        E 360 90 1a 60
        E 120 80 1a 00
        E 120 90 1a 60
        E 120 80 1a 00
        E 120 90 19 60
        E 120 80 19 00
        E 360 90 1a 60
        E 120 80 1a 00
        E 120 90 1a 60
        E 120 80 1a 00
        E 360 90 18 60
        E 120 80 18 00
        E 120 90 1a 60
        E 120 80 1a 00
        E 120 90 1a 60
        E 120 80 1a 00
        E 120 90 19 60
        E 120 80 19 00
        E 360 90 1a 60
        E 120 80 1a 00
        E 120 90 1a 60
        E 120 80 1a 00
        E 120 90 18 60
        E 120 80 18 00
        E 360 90 1a 60
        E 120 80 1a 00
        E 120 90 1a 60
        E 120 80 1a 00
        E 120 90 19 60
        E 120 80 19 00
        E 360 90 1a 60
        E 120 80 1a 00
        E 120 90 1a 60
        E 120 80 1a 00
        E 360 90 18 60
        E 120 80 18 00
        E 120 90 1a 60
        E 120 80 1a 00
        E 120 90 1a 60
        E 120 80 1a 00
        E 120 90 19 60
        E 120 80 19 00
        E 360 90 1a 60
        E 120 80 1a 00
        E 120 90 1a 60
        E 120 80 1a 00
        E 120 90 18 60
        E 120 80 18 00
        E 360 90 1a 60
        E 120 80 1a 00
        E 120 90 1a 60
        E 120 80 1a 00
        E 120 90 19 60
        E 120 80 19 00
        E 360 90 1a 60
        E 120 80 1a 00
        E 120 90 1a 60
        E 120 80 1a 00
        E 360 90 18 60
        E 120 80 18 00
        E 120 90 1a 60
        E 120 80 1a 00
        E 120 90 1a 60
        E 120 80 1a 00
        E 120 90 19 60
        E 120 80 19 00
        E 360 90 1a 60
        E 120 80 1a 00
        E 120 90 1a 60
        E 120 80 1a 00
        <X 120 0
          /wFbcHJjX291dHJvXQ==
        >
        E 0 90 1a 60
        E 120 80 1a 00
        E 360 90 1a 60
        E 120 80 1a 00
        E 120 90 1a 60
        E 120 80 1a 00
        E 120 90 18 60
        E 0 90 1a 60
        E 120 80 18 00
        E 0 80 1a 00
        E 360 90 1a 60
        E 120 80 1a 00
        E 120 90 1a 60
        E 120 80 1a 00
        E 360 90 18 60
        E 120 80 18 00
        E 120 90 1a 60
        E 120 80 1a 00
        E 120 90 1a 60
        E 120 80 1a 00
        E 120 90 19 60
        E 120 80 19 00
        E 120 90 1a 60
        E 120 80 1a 00
        E 120 90 1a 60
        E 120 80 1a 00
        E 120 90 1a 60
        E 120 80 1a 00
        E 120 90 1a 60
        E 120 80 1a 00
        E 360 90 1a 60
        E 120 80 1a 00
        E 120 90 1a 60
        E 120 80 1a 00
        E 120 90 18 60
        E 0 90 1a 60
        E 120 80 18 00
        E 0 80 1a 00
        E 360 90 1a 60
        E 120 80 1a 00
        E 120 90 1a 60
        E 120 80 1a 00
        E 360 90 18 60
        E 120 80 18 00
        E 120 90 1a 60
        E 120 80 1a 00
        E 120 90 1a 60
        E 120 80 1a 00
        E 120 90 19 60
        E 120 80 19 00
        E 120 90 1a 60
        E 120 80 1a 00
        E 120 90 1a 60
        E 120 80 1a 00
        E 120 90 1a 60
        E 120 80 1a 00
        E 120 90 1a 60
        E 120 80 1a 00
        E 360 90 1a 60
        E 120 80 1a 00
        E 120 90 1a 60
        E 120 80 1a 00
        E 120 90 18 60
        E 0 90 1a 60
        E 120 80 18 00
        E 0 80 1a 00
        E 360 90 1a 60
        E 120 80 1a 00
        E 120 90 1a 60
        E 120 80 1a 00
        E 360 90 18 60
        E 120 80 18 00
        E 120 90 1a 60
        E 120 80 1a 00
        E 120 90 1a 60
        E 120 80 1a 00
        E 120 90 19 60
        E 120 80 19 00
        E 120 90 1a 60
        E 120 80 1a 00
        E 120 90 1a 60
        E 120 80 1a 00
        E 120 90 1a 60
        E 120 80 1a 00
        E 120 90 1a 60
        E 120 80 1a 00
        E 360 90 1a 60
        E 120 80 1a 00
        E 120 90 1a 60
        E 120 80 1a 00
        E 120 90 18 60
        E 0 90 1a 60
        E 120 80 18 00
        E 0 80 1a 00
        E 360 90 1a 60
        E 120 80 1a 00
        E 120 90 1a 60
        E 120 80 1a 00
        E 360 90 19 60
        E 120 80 19 00
        E 360 90 18 60
        E 120 80 18 00
        E 120 90 19 60
        E 120 80 19 00
        E 120 90 19 60
        E 120 80 19 00
        E 120 90 19 60
        E 120 80 19 00
        E 360 90 1a 60
        E 120 80 1a 00
        E 360 90 1a 60
        E 120 80 1a 00
        E 360 90 1a 60
        E 120 80 1a 00
        E 360 90 1a 60
        E 120 80 1a 00
        E 360 90 1a 60
        E 120 80 1a 00
        E 360 90 1a 60
        E 120 80 1a 00
        E 360 90 1a 60
        E 120 80 1a 00
        E 360 90 1a 60
        E 120 80 1a 00
        E 360 90 1a 60
        E 120 80 1a 00
        E 360 90 1a 60
        E 120 80 1a 00
        E 360 90 1a 60
        E 120 80 1a 00
        E 360 90 1a 60
        E 120 80 1a 00
        E 360 90 1a 60
        E 120 80 1a 00
        E 360 90 1a 60
        E 120 80 1a 00
        E 360 90 1a 60
        E 120 80 1a 00
        E 360 90 1a 60
        E 120 80 1a 00
        <X 840 0
          /wFbbXVzaWNfZW5kXQ==
        >
        <X 1435 0
          /wFbZW5kXQ==
        >
        E 5 b0 7b 00
        GUID {3901CB9F-75D9-4BBA-B769-E5AC770167AD}
        IGNTEMPO 0 120.00000000 4 4
        SRCCOLOR 2
        VELLANE 132 128 128
        COLORMAP "C:\Program Files\REAPER (x64)\Data\color_maps\rockband_guitarbass.png"
        TEXTSTRINGFILE "C:\Program Files\REAPER (x64)\Data\Text_Strings\Text Events List - Events.txt"
        CFGEDITVIEW -5901.082779 98.822732 41 12 0 0 0
        CFGEDIT 1 1 0 1 1 0 1 1 1 1 1 0.25000000 -8 -8 1928 1088 0 0 1 1 0.00000000 0 1 0 0 0.500000 0 0 1.000000 64
        KEYSNAP 0 0 "102034050607" 0 "Major"
        EVTFILTER 0 -1 -1 -1 -1 0 1 0 0 -1.00000000 -1.00000000
      >
    >
  >
  <TRACK '{B549ACF8-218A-4384-9AEE-9EB9DDFD7751}'
    NAME "VENUE"
    PEAKCOL 16576
    BEAT -1
    AUTOMODE 0
    VOLPAN 1.00000000000000 0.00000000000000 -1.00000000000000 -1.00000000000000 1.00000000000000
    MUTESOLO 1 0 0
    IPHASE 0
    ISBUS 1 1
    BUSCOMP 1 0
    SHOWINMIX 1 0.666700 0.500000 1 0.500000 -1 -1 -1
    FREEMODE 0
    SEL 0
    REC 0 0 0 0 0 0 0
    VU 2
    TRACKHEIGHT 0 0
    INQ 0 0 0 0.5000000000 100 0 0 100
    NCHAN 2
    FX 1
    TRACKID {B549ACF8-218A-4384-9AEE-9EB9DDFD7751}
    PERF 0
    MIDIOUT -1
    MAINSEND 1 0
    <ITEM
      POSITION 0.00000000000000
      SNAPOFFS 0.00000000000000
      LENGTH 126.40842722848190
      LOOP 0
      ALLTAKES 0
      SEL 0
      FADEIN 1 0.000000 0.000000 1 0
      FADEOUT 1 0.000000 0.000000 1 0
      MUTE 0
      IGUID {E665C686-6254-4217-8CFB-76C909C2C2ED}
      IID 43
      NAME "VENUE"
      VOLPAN 1.000000 0.000000 1.000000 -1.000000
      SOFFS 0.00000000000000 0.00000000000000
      PLAYRATE 1.00000000000000 1 0.00000000000000 -1
      CHANMODE 0
      GUID {1DB7CD64-ABAF-4BC1-AD7D-575F3FC8A094}
      <SOURCE MIDI
        HASDATA 1 480 QN
        POOLEDEVTS {A5E22DA0-9495-417B-843B-2AA1CF300073}
        <X 0 0
          /wNWRU5VRQ==
        >
        <X 0 0
          /wFbY29vcF9hbGxfbmVhcl0=
        >
        <X 0 0
          /wFbZmxpY2tlcl90cmFpbHMucHBd
        >
        <X 3840 0
          /wFbY29vcF9rX25lYXJd
        >
        <X 0 0
          /wFbY29vcF9nX25lYXJd
        >
        <X 0 0
          /wFbbGlnaHRpbmcgKGxvb3Bfd2FybSld
        >
        <X 3840 0
          /wFbY29vcF9iX25lYXJd
        >
        <X 3840 0
          /wFbY29vcF9kX25lYXJd
        >
        <X 960 0
          /wFbZGlyZWN0ZWRfZHJ1bXNfa2Rd
        >
        <X 1920 0
          /wFbY29vcF9kX2JlaGluZF0=
        >
        <X 2880 0
          /wFbY29vcF9kX25lYXJd
        >
        <X 1920 0
          /wFbY29vcF9iZ19uZWFyXQ==
        >
        <X 0 0
          /wFbZmlyc3Rd
        >
        <X 0 0
          /wFbbGlnaHRpbmcgKG1hbnVhbF93YXJtKV0=
        >
        <X 960 0
          /wFbbmV4dF0=
        >
        <X 960 0
          /wFbbmV4dF0=
        >
        <X 960 0
          /wFbbmV4dF0=
        >
        <X 960 0
          /wFbY29vcF9kX2Nsb3NldXBfaGVhZF0=
        >
        <X 0 0
          /wFbbmV4dF0=
        >
        <X 960 0
          /wFbbmV4dF0=
        >
        <X 960 0
          /wFbY29vcF9kX2Nsb3NldXBfaGFuZF0=
        >
        <X 0 0
          /wFbbmV4dF0=
        >
        <X 960 0
          /wFbbmV4dF0=
        >
        <X 960 0
          /wFbZGlyZWN0ZWRfYmFzc19jbHNd
        >
        <X 0 0
          /wFbbmV4dF0=
        >
        <X 960 0
          /wFbbmV4dF0=
        >
        <X 960 0
          /wFbbmV4dF0=
        >
        <X 960 0
          /wFbbmV4dF0=
        >
        <X 960 0
          /wFbZGlyZWN0ZWRfZ3VpdGFyX2Nsc10=
        >
        <X 0 0
          /wFbbmV4dF0=
        >
        <X 960 0
          /wFbbmV4dF0=
        >
        <X 960 0
          /wFbbmV4dF0=
        >
        <X 960 0
          /wFbbmV4dF0=
        >
        <X 960 0
          /wFbZGlyZWN0ZWRfa2V5c19jYW1d
        >
        <X 0 0
          /wFbbmV4dF0=
        >
        <X 960 0
          /wFbbmV4dF0=
        >
        <X 960 0
          /wFbbmV4dF0=
        >
        <X 960 0
          /wFbbmV4dF0=
        >
        <X 960 0
          /wFbY29vcF9kX2Nsb3NldXBfaGVhZF0=
        >
        <X 0 0
          /wFbbmV4dF0=
        >
        <X 960 0
          /wFbbmV4dF0=
        >
        <X 960 0
          /wFbY29vcF9kX2Nsb3NldXBfaGFuZF0=
        >
        <X 0 0
          /wFbbmV4dF0=
        >
        <X 960 0
          /wFbbmV4dF0=
        >
        <X 960 0
          /wFbZGlyZWN0ZWRfZHJ1bXNfa2Rd
        >
        <X 0 0
          /wFbbmV4dF0=
        >
        <X 480 0
          /wFbY29vcF9kX2Nsb3NldXBfaGFuZF0=
        >
        <X 480 0
          /wFbY29vcF9kX25lYXJd
        >
        <X 0 0
          /wFbbmV4dF0=
        >
        <X 480 0
          /wFbY29vcF9kX2Nsb3NldXBfaGFuZF0=
        >
        <X 480 0
          /wFbbmV4dF0=
        >
        <X 240 0
          /wFbZGlyZWN0ZWRfZHJ1bXNfa2Rd
        >
        <X 720 0
          /wFbY29vcF9kX2Nsb3NldXBfaGFuZF0=
        >
        <X 0 0
          /wFbbmV4dF0=
        >
        <X 960 0
          /wFbY29vcF9nX25lYXJd
        >
        <X 0 0
          /wFbbmV4dF0=
        >
        <X 960 0
          /wFbbmV4dF0=
        >
        <X 960 0
          /wFbbmV4dF0=
        >
        <X 960 0
          /wFbbmV4dF0=
        >
        <X 960 0
          /wFbY29vcF9iX25lYXJd
        >
        <X 0 0
          /wFbbGlnaHRpbmcgKHNpbGhvdWV0dGVzKV0=
        >
        <X 0 0
          /wFbbGlnaHRpbmcgKGxvb3Bfd2FybSld
        >
        <X 1800 0
          /wFbbGlnaHRpbmcgKHNpbGhvdWV0dGVzKV0=
        >
        <X 2040 0
          /wFbY29vcF9iX25lYXJd
        >
        <X 3840 0
          /wFbY29vcF9iX2Nsb3NldXBfaGFuZF0=
        >
        <X 3840 0
          /wFbY29vcF9mcm9udF9uZWFyXQ==
        >
        E 151680 b0 7b 00
        GUID {30630F3A-E2E4-4883-8CD5-DB7D85CEE335}
        IGNTEMPO 0 120.00000000 4 4
        SRCCOLOR 20
        VELLANE 132 128 128
        COLORMAP "C:\Program Files\REAPER (x64)\Data\color_maps\rockband_guitarbass.png"
        CFGEDITVIEW -7553.955857 12.707726 61 12 0 0 0
        CFGEDIT 1 1 0 1 1 0 1 1 1 1 1 0.12500000 -8 -8 1928 1088 0 0 1 1 0.00000000 0 1 0 0 0.500000 0 0 1.000000 64
        KEYSNAP 0 0 "102034050607" 0 "Major"
        EVTFILTER 0 -1 -1 -1 -1 0 1 0 0 -1.00000000 -1.00000000
      >
    >
  >
  <TRACK '{37C52AA7-6F32-4F41-9AD0-3F1EC2087099}'
    NAME "CAMERA"
    PEAKCOL 16576
    BEAT -1
    AUTOMODE 0
    VOLPAN 1.00000000000000 0.00000000000000 -1.00000000000000 -1.00000000000000 1.00000000000000
    MUTESOLO 1 0 0
    IPHASE 0
    ISBUS 0 0
    BUSCOMP 0 0
    SHOWINMIX 1 0.666700 0.500000 1 0.500000 -1 -1 -1
    FREEMODE 0
    SEL 0
    REC 0 0 0 0 0 0 0
    VU 2
    TRACKHEIGHT 0 1
    INQ 0 0 0 0.5000000000 100 0 0 100
    NCHAN 2
    FX 1
    TRACKID {37C52AA7-6F32-4F41-9AD0-3F1EC2087099}
    PERF 0
    MIDIOUT -1
    <MIDINOTENAMES
      0 102 "RANDOM"
      0 100 "All_Behind"
      0 99 "All_Far"
      0 98 "All_Near"
      0 96 "Front_Behind"
      0 95 "Front_Near"
      0 93 "D_Behind"
      0 92 "D_Near"
      0 91 "V_Behind"
      0 90 "V_Near"
      0 89 "B_Behind"
      0 88 "B_Near"
      0 87 "G_Behind"
      0 86 "G_Near"
      0 85 "K_Behind"
      0 84 "K_Near"
      0 82 "D_Hand"
      0 81 "D_Head"
      0 80 "V_Closeup"
      0 79 "B_Hand"
      0 78 "B_Head"
      0 77 "G_Hand"
      0 76 "G_Head"
      0 75 "K_Hand"
      0 74 "K_Head"
      0 72 "DV_Near"
      0 71 "BD_Near"
      0 70 "DG_Near"
      0 69 "BV_Behind"
      0 68 "BV_Near"
      0 67 "GV_Behind"
      0 66 "GV_Near"
      0 65 "KV_Behind"
      0 64 "KV_Near"
      0 63 "BG_Behind"
      0 62 "BG_Near"
      0 61 "BK_Behind"
      0 60 "BK_Near"
      0 59 "GK_Behind"
      0 58 "GK_Near"
      0 56 "D_All"
      0 55 "D_All_Cam"
      0 54 "D_All_LT*"
      0 53 "D_All_Yeah"
      0 52 "D_BRE"
      0 51 "D_BRE_Jump"
      0 49 "D_Drums_NP"
      0 48 "D_Bass_NP"
      0 47 "D_Gtr_NP"
      0 46 "D_Vox_NP"
      0 45 "D_Keys_NP"
      0 43 "D_Drums"
      0 42 "D_Drums_LT*"
      0 41 "D_Vocals"
      0 40 "D_Bass"
      0 39 "D_Gtr"
      0 38 "D_Keys"
      0 36 "D_Vox_Cam_PR"
      0 35 "D_Vox_Cam_PT"
      0 34 "D_Gtr_Cam_PR"
      0 33 "D_Gtr_Cam_PT"
      0 32 "D_Keys_Cam"
      0 31 "D_Bass_Cam"
      0 29 "D_Stagedive"
      0 28 "D_Crowdsurf"
      0 26 "D_Vox_CLS"
      0 25 "D_Bass_CLS*"
      0 24 "D_Gtr_CLS*"
      0 23 "D_Drums_KD*"
      0 21 "D_Drums_Point"
      0 20 "D_Crowd_Gtr"
      0 19 "D_Crowd_Bass"
      0 17 "D_Duo_Drums"
      0 16 "D_Duo_Gtr"
      0 15 "D_Duo_Bass"
      0 14 "D_Duo_KV"
      0 13 "D_Duo_GB"
      0 12 "D_Duo_KB"
      0 11 "D_Duo_KG"
      0 10 "D_Crowd*"
    >
    MAINSEND 1 0
    <FXCHAIN
      SHOW 0
      LASTSEL 0
      DOCKED 0
    >
    <ITEM
      POSITION 0.00000000000000
      SNAPOFFS 0.00000000000000
      LENGTH 126.40842722848190
      LOOP 0
      ALLTAKES 0
      SEL 0
      FADEIN 1 0.000000 0.000000 1 0
      FADEOUT 1 0.000000 0.000000 1 0
      MUTE 0
      IGUID {E34B7AE8-C1AC-4A8C-B673-078E226E47B2}
      IID 45
      NAME "CAMERA"
      VOLPAN 1.000000 0.000000 1.000000 -1.000000
      SOFFS 0.00000000000000 0.00000000000000
      PLAYRATE 1.00000000000000 1 0.00000000000000 -1
      CHANMODE 0
      GUID {40447231-95B3-4798-97C4-7B9E44C69648}
      <SOURCE MIDI
        HASDATA 1 480 QN
        POOLEDEVTS {83740047-4433-4367-8F16-CB03B525856F}
        <X 0 0
          /wFbY29vcF9hbGxfbmVhcl0=
        >
        E 0 90 62 60
        <X 3840 0
          /wFbY29vcF9rX25lYXJd
        >
        <X 0 0
          /wFbY29vcF9nX25lYXJd
        >
        E 0 80 62 00
        E 0 90 54 60
        E 0 90 56 60
        <X 3840 0
          /wFbY29vcF9iX25lYXJd
        >
        E 0 80 54 00
        E 0 80 56 00
        E 0 90 58 60
        <X 3840 0
          /wFbY29vcF9kX25lYXJd
        >
        E 0 80 58 00
        E 0 90 5c 60
        <X 960 0
          /wFbZGlyZWN0ZWRfZHJ1bXNfa2Rd
        >
        E 0 80 5c 00
        E 0 90 17 60
        <X 1920 0
          /wFbY29vcF9kX2JlaGluZF0=
        >
        E 0 80 17 00
        E 0 90 5d 60
        <X 2880 0
          /wFbY29vcF9kX25lYXJd
        >
        E 0 80 5d 00
        E 0 90 5c 60
        <X 1920 0
          /wFbY29vcF9iZ19uZWFyXQ==
        >
        E 0 80 5c 00
        E 0 90 3e 60
        <X 3840 0
          /wFbY29vcF9kX2Nsb3NldXBfaGVhZF0=
        >
        E 0 80 3e 00
        E 0 90 51 60
        <X 1920 0
          /wFbY29vcF9kX2Nsb3NldXBfaGFuZF0=
        >
        E 0 80 51 00
        E 0 90 52 60
        <X 1920 0
          /wFbZGlyZWN0ZWRfYmFzc19jbHNd
        >
        E 0 80 52 00
        E 0 90 19 60
        <X 3840 0
          /wFbZGlyZWN0ZWRfZ3VpdGFyX2Nsc10=
        >
        E 0 80 19 00
        E 0 90 18 60
        <X 3840 0
          /wFbZGlyZWN0ZWRfa2V5c19jYW1d
        >
        E 0 80 18 00
        E 0 90 20 60
        <X 3840 0
          /wFbY29vcF9kX2Nsb3NldXBfaGVhZF0=
        >
        E 0 80 20 00
        E 0 90 51 60
        <X 1920 0
          /wFbY29vcF9kX2Nsb3NldXBfaGFuZF0=
        >
        E 0 80 51 00
        E 0 90 52 60
        <X 1920 0
          /wFbZGlyZWN0ZWRfZHJ1bXNfa2Rd
        >
        E 0 80 52 00
        E 0 90 17 60
        <X 480 0
          /wFbY29vcF9kX2Nsb3NldXBfaGFuZF0=
        >
        E 0 80 17 00
        E 0 90 52 60
        <X 480 0
          /wFbY29vcF9kX25lYXJd
        >
        E 0 80 52 00
        E 0 90 5c 60
        <X 480 0
          /wFbY29vcF9kX2Nsb3NldXBfaGFuZF0=
        >
        E 0 80 5c 00
        E 0 90 52 60
        <X 720 0
          /wFbZGlyZWN0ZWRfZHJ1bXNfa2Rd
        >
        E 0 80 52 00
        E 0 90 17 60
        <X 720 0
          /wFbY29vcF9kX2Nsb3NldXBfaGFuZF0=
        >
        E 0 80 17 00
        E 0 90 52 60
        <X 960 0
          /wFbY29vcF9nX25lYXJd
        >
        E 0 80 52 00
        E 0 90 56 60
        <X 3840 0
          /wFbY29vcF9iX25lYXJd
        >
        E 0 80 56 00
        E 0 90 58 60
        <X 3840 0
          /wFbY29vcF9iX25lYXJd
        >
        E 0 80 58 00
        E 0 90 58 60
        <X 3840 0
          /wFbY29vcF9iX2Nsb3NldXBfaGFuZF0=
        >
        E 0 80 58 00
        E 0 90 4f 60
        <X 3840 0
          /wFbY29vcF9mcm9udF9uZWFyXQ==
        >
        E 0 80 4f 00
        E 0 90 5f 60
        E 3840 80 5f 00
        E 86400 b0 7b 00
        GUID {2AD94BCE-2272-40CD-9502-E8028D4DA7B6}
        IGNTEMPO 0 120.00000000 4 4
        SRCCOLOR 22
        VELLANE 132 128 128
        COLORMAP "C:\Program Files\REAPER (x64)\Data\color_maps\rockband_guitarbass.png"
        CFGEDITVIEW -7584.000000 12.707726 4 12 0 0 0
        CFGEDIT 1 1 0 1 1 0 1 1 1 1 1 0.25000000 -8 -8 1928 1088 0 2 1 1 0.00000000 0 1 0 0 0.500000 0 0 1.000000 64
        KEYSNAP 0 0 "102034050607" 0 "Major"
        EVTFILTER 0 -1 -1 -1 -1 0 1 0 0 -1.00000000 -1.00000000
      >
    >
  >
  <TRACK '{B8AEA1F4-79B7-47B4-86E3-EA21BEE69493}'
    NAME "LIGHTING"
    PEAKCOL 16576
    BEAT -1
    AUTOMODE 0
    VOLPAN 1.00000000000000 0.00000000000000 -1.00000000000000 -1.00000000000000 1.00000000000000
    MUTESOLO 1 0 0
    IPHASE 0
    ISBUS 2 -1
    BUSCOMP 0 0
    SHOWINMIX 1 0.666700 0.500000 1 0.500000 -1 -1 -1
    FREEMODE 0
    SEL 0
    REC 0 0 0 0 0 0 0
    VU 2
    TRACKHEIGHT 0 1
    INQ 0 0 0 0.5000000000 100 0 0 100
    NCHAN 2
    FX 1
    TRACKID {B8AEA1F4-79B7-47B4-86E3-EA21BEE69493}
    PERF 0
    MIDIOUT -1
    <MIDINOTENAMES
      0 71 "Default"
      0 70 "Color_Muted"
      0 69 "Video_Grainy"
      0 68 "16mm Film"
      0 67 "Shitty_TV"
      0 66 "Bloom"
      0 65 "Sepia_Ink"
      0 64 "Silvertone"
      0 63 "Film_BW"
      0 62 "Video_BW"
      0 61 "Contrast BW"
      0 60 "Photocopy"
      0 59 "Blue_Filter"
      0 58 "Desat_Blue"
      0 57 "Video_Security"
      0 55 "Bright"
      0 54 "Posterize"
      0 53 "Clean_Trails"
      0 52 "Video_Trails"
      0 51 "Flicker_Trails"
      0 50 "Desat_Posterize"
      0 49 "Film_Contrast"
      0 48 "Film_Contrast_Blue"
      0 47 "Film_Contrast_Green"
      0 46 "Film_Contrast_Red"
      0 45 "Horror_Movie"
      0 44 "Photo_Negative"
      0 43 "Mirror"
      0 42 "Psych_Blue_Red"
      0 41 "Space_Woosh"
      0 39 "Verse"
      0 38 "Chorus"
      0 37 "Manual_Cool"
      0 36 "Manual_Warm"
      0 35 "Dischord"
      0 34 "Stomp"
      0 32 "first"
      0 31 "prev"
      0 30 "next"
      0 28 "Loop_Cool"
      0 27 "Loop_Warm"
      0 26 "Harmony"
      0 25 "Frenzy"
      0 24 "Silhouettes"
      0 23 "Silhouettes_Spot"
      0 22 "Searchlights"
      0 21 "Sweep"
      0 20 "Strobe_Slow"
      0 19 "Strobe_Fast"
      0 18 "Blackout_Slow"
      0 17 "Blackout_Fast"
      0 16 "Blackout_Spot"
      0 15 "Flare_Slow"
      0 14 "Flare_Fast"
      0 13 "BRE"
      0 11 "BONUSFX"
      0 10 "BONUSFX_Opt"
      0 8 "STROBE"
    >
    MAINSEND 1 0
    <FXCHAIN
      SHOW 0
      LASTSEL 0
      DOCKED 0
    >
    <ITEM
      POSITION 0.00000000000000
      SNAPOFFS 0.00000000000000
      LENGTH 126.40842722848190
      LOOP 0
      ALLTAKES 0
      SEL 0
      FADEIN 1 0.000000 0.000000 1 0
      FADEOUT 1 0.000000 0.000000 1 0
      MUTE 0
      IGUID {CC32D6EA-7A31-4458-AE1C-F6CEEE3FC0CB}
      IID 44
      NAME "LIGHTING"
      VOLPAN 1.000000 0.000000 1.000000 -1.000000
      SOFFS 0.00000000000000 0.00000000000000
      PLAYRATE 1.00000000000000 1 0.00000000000000 -1
      CHANMODE 0
      GUID {DA494827-0103-46BC-8C3F-67E579B11C12}
      <SOURCE MIDI
        HASDATA 1 480 QN
        POOLEDEVTS {A03CAD05-43BC-40FD-A370-2B622D7B18DE}
        <X 0 0
          /wFbZmxpY2tlcl90cmFpbHMucHBd
        >
        E 0 90 33 60
        <X 3840 0
          /wFbbGlnaHRpbmcgKGxvb3Bfd2FybSld
        >
        E 0 90 1b 60
        <X 15360 0
          /wFbZmlyc3Rd
        >
        <X 0 0
          /wFbbGlnaHRpbmcgKG1hbnVhbF93YXJtKV0=
        >
        E 0 80 1b 00
        E 0 90 20 60
        E 0 90 24 60
        E 120 80 20 00
        <X 840 0
          /wFbbmV4dF0=
        >
        E 0 90 1e 60
        E 120 80 1e 00
        <X 840 0
          /wFbbmV4dF0=
        >
        E 0 90 1e 60
        E 120 80 1e 00
        <X 840 0
          /wFbbmV4dF0=
        >
        E 0 90 1e 60
        E 120 80 1e 00
        <X 840 0
          /wFbbmV4dF0=
        >
        E 0 90 1e 60
        E 120 80 1e 00
        <X 840 0
          /wFbbmV4dF0=
        >
        E 0 90 1e 60
        E 120 80 1e 00
        <X 840 0
          /wFbbmV4dF0=
        >
        E 0 90 1e 60
        E 120 80 1e 00
        <X 840 0
          /wFbbmV4dF0=
        >
        E 0 90 1e 60
        E 120 80 1e 00
        <X 840 0
          /wFbbmV4dF0=
        >
        E 0 90 1e 60
        E 120 80 1e 00
        <X 840 0
          /wFbbmV4dF0=
        >
        E 0 90 1e 60
        E 120 80 1e 00
        <X 840 0
          /wFbbmV4dF0=
        >
        E 0 90 1e 60
        E 120 80 1e 00
        <X 840 0
          /wFbbmV4dF0=
        >
        E 0 90 1e 60
        E 120 80 1e 00
        <X 840 0
          /wFbbmV4dF0=
        >
        E 0 90 1e 60
        E 120 80 1e 00
        <X 840 0
          /wFbbmV4dF0=
        >
        E 0 90 1e 60
        E 120 80 1e 00
        <X 840 0
          /wFbbmV4dF0=
        >
        E 0 90 1e 60
        E 120 80 1e 00
        <X 840 0
          /wFbbmV4dF0=
        >
        E 0 90 1e 60
        E 120 80 1e 00
        <X 840 0
          /wFbbmV4dF0=
        >
        E 0 90 1e 60
        E 120 80 1e 00
        <X 840 0
          /wFbbmV4dF0=
        >
        E 0 90 1e 60
        E 120 80 1e 00
        <X 840 0
          /wFbbmV4dF0=
        >
        E 0 90 1e 60
        E 120 80 1e 00
        <X 840 0
          /wFbbmV4dF0=
        >
        E 0 90 1e 60
        E 120 80 1e 00
        <X 840 0
          /wFbbmV4dF0=
        >
        E 0 90 1e 60
        E 120 80 1e 00
        <X 840 0
          /wFbbmV4dF0=
        >
        E 0 90 1e 60
        E 120 80 1e 00
        <X 840 0
          /wFbbmV4dF0=
        >
        E 0 90 1e 60
        E 120 80 1e 00
        <X 840 0
          /wFbbmV4dF0=
        >
        E 0 90 1e 60
        E 120 80 1e 00
        <X 840 0
          /wFbbmV4dF0=
        >
        E 0 90 1e 60
        E 120 80 1e 00
        <X 840 0
          /wFbbmV4dF0=
        >
        E 0 90 1e 60
        E 120 80 1e 00
        <X 840 0
          /wFbbmV4dF0=
        >
        E 0 90 1e 60
        E 120 80 1e 00
        <X 840 0
          /wFbbmV4dF0=
        >
        E 0 90 1e 60
        E 120 80 1e 00
        <X 840 0
          /wFbbmV4dF0=
        >
        E 0 90 1e 60
        E 120 80 1e 00
        <X 840 0
          /wFbbmV4dF0=
        >
        E 0 90 1e 60
        E 120 80 1e 00
        <X 840 0
          /wFbbmV4dF0=
        >
        E 0 90 1e 60
        E 120 80 1e 00
        <X 840 0
          /wFbbmV4dF0=
        >
        E 0 90 1e 60
        E 120 80 1e 00
        <X 840 0
          /wFbbGlnaHRpbmcgKHNpbGhvdWV0dGVzKV0=
        >
        <X 0 0
          /wFbbGlnaHRpbmcgKGxvb3Bfd2FybSld
        >
        E 0 80 24 00
        E 0 90 18 60
        E 0 90 1b 60
        <X 1800 0
          /wFbbGlnaHRpbmcgKHNpbGhvdWV0dGVzKV0=
        >
        E 0 80 18 00
        E 13560 80 1b 00
        E 86280 80 33 00
        E 120 b0 7b 00
        GUID {4D8506BB-0167-4C8C-B50A-90149BEB8411}
        IGNTEMPO 0 120.00000000 4 4
        SRCCOLOR 21
        VELLANE 132 128 128
        COLORMAP "C:\Program Files\REAPER (x64)\Data\color_maps\rockband_guitarbass.png"
        CFGEDITVIEW -7584.000000 12.707726 0 13 0 0 0
        CFGEDIT 1 1 0 1 1 0 1 1 1 1 1 0.25000000 -8 -8 1928 1088 0 2 1 1 0.00000000 0 1 0 0 0.500000 0 0 1.000000 64
        KEYSNAP 0 0 "102034050607" 0 "Major"
        EVTFILTER 0 -1 -1 -1 -1 0 1 0 0 -1.00000000 -1.00000000
      >
    >
  >
  <TRACK '{8D76F537-5128-4C64-85AA-5A0CCB450D42}'
    NAME "BEAT"
    PEAKCOL 16576
    BEAT -1
    AUTOMODE 0
    VOLPAN 1.00000000000000 0.00000000000000 -1.00000000000000 -1.00000000000000 1.00000000000000
    MUTESOLO 0 0 0
    IPHASE 0
    ISBUS 0 0
    BUSCOMP 0 0
    SHOWINMIX 1 0.666700 0.500000 1 0.500000 -1 -1 -1
    FREEMODE 0
    SEL 0
    REC 0 0 0 0 0 0 0
    VU 2
    TRACKHEIGHT 0 0
    INQ 0 0 0 0.5000000000 100 0 0 100
    NCHAN 2
    FX 1
    TRACKID {8D76F537-5128-4C64-85AA-5A0CCB450D42}
    PERF 0
    MIDIOUT -1
    MAINSEND 1 0
    <ITEM
      POSITION 0.00000000000000
      SNAPOFFS 0.00000000000000
      LENGTH 126.40842722848190
      LOOP 0
      ALLTAKES 0
      SEL 0
      FADEIN 1 0.000000 0.000000 1 0
      FADEOUT 1 0.000000 0.000000 1 0
      MUTE 0
      IGUID {5A225D09-2334-456E-A963-30837E1AF8C6}
      IID 24
      NAME "BEAT"
      VOLPAN 1.000000 0.000000 1.000000 -1.000000
      SOFFS 0.00000000000000 0.00000000000000
      PLAYRATE 1.00000000000000 1 0.00000000000000 -1
      CHANMODE 0
      GUID {768C6525-94D2-4877-9D46-C8B1A599DC51}
      <SOURCE MIDI
        HASDATA 1 480 QN
        POOLEDEVTS {B39D6E62-E761-41D1-A695-16AC0140C350}
        <X 0 0
          /wNCRUFU
        >
        e 0 96 0c 64
        e 120 86 0c 00
        e 360 96 0d 64
        e 120 86 0d 00
        e 360 96 0d 64
        e 120 86 0d 00
        e 360 96 0d 64
        e 120 86 0d 00
        e 360 96 0c 64
        e 120 86 0c 00
        e 360 96 0d 64
        e 120 86 0d 00
        e 360 96 0d 64
        e 120 86 0d 00
        e 360 96 0d 64
        e 120 86 0d 00
        e 360 96 0c 64
        e 120 86 0c 00
        e 360 96 0d 64
        e 120 86 0d 00
        e 360 96 0d 64
        e 120 86 0d 00
        e 360 96 0d 64
        e 120 86 0d 00
        e 360 96 0c 64
        e 120 86 0c 00
        e 360 96 0d 64
        e 120 86 0d 00
        e 360 96 0d 64
        e 120 86 0d 00
        e 360 96 0d 64
        e 120 86 0d 00
        e 360 96 0c 64
        e 120 86 0c 00
        e 360 96 0d 64
        e 120 86 0d 00
        e 360 96 0d 64
        e 120 86 0d 00
        e 360 96 0d 64
        e 120 86 0d 00
        e 360 96 0c 64
        e 120 86 0c 00
        e 360 96 0d 64
        e 120 86 0d 00
        e 360 96 0d 64
        e 120 86 0d 00
        e 360 96 0d 64
        e 120 86 0d 00
        e 360 96 0c 64
        e 120 86 0c 00
        e 360 96 0d 64
        e 120 86 0d 00
        e 360 96 0d 64
        e 120 86 0d 00
        e 360 96 0d 64
        e 120 86 0d 00
        e 360 96 0c 64
        e 120 86 0c 00
        e 360 96 0d 64
        e 120 86 0d 00
        e 360 96 0d 64
        e 120 86 0d 00
        e 360 96 0d 64
        e 120 86 0d 00
        e 360 96 0c 64
        e 120 86 0c 00
        e 360 96 0d 64
        e 120 86 0d 00
        e 360 96 0d 64
        e 120 86 0d 00
        e 360 96 0d 64
        e 120 86 0d 00
        e 360 96 0c 64
        e 120 86 0c 00
        e 360 96 0d 64
        e 120 86 0d 00
        e 360 96 0d 64
        e 120 86 0d 00
        e 360 96 0d 64
        e 120 86 0d 00
        e 360 96 0c 64
        e 120 86 0c 00
        e 360 96 0d 64
        e 120 86 0d 00
        e 360 96 0d 64
        e 120 86 0d 00
        e 360 96 0d 64
        e 120 86 0d 00
        e 360 96 0c 64
        e 120 86 0c 00
        e 360 96 0d 64
        e 120 86 0d 00
        e 360 96 0d 64
        e 120 86 0d 00
        e 360 96 0d 64
        e 120 86 0d 00
        e 360 96 0c 64
        e 120 86 0c 00
        e 360 96 0d 64
        e 120 86 0d 00
        e 360 96 0d 64
        e 120 86 0d 00
        e 360 96 0d 64
        e 120 86 0d 00
        e 360 96 0c 64
        e 120 86 0c 00
        e 360 96 0d 64
        e 120 86 0d 00
        e 360 96 0d 64
        e 120 86 0d 00
        e 360 96 0d 64
        e 120 86 0d 00
        e 360 96 0c 64
        e 120 86 0c 00
        e 360 96 0d 64
        e 120 86 0d 00
        e 360 96 0d 64
        e 120 86 0d 00
        e 360 96 0d 64
        e 120 86 0d 00
        e 360 96 0c 64
        e 120 86 0c 00
        e 360 96 0d 64
        e 120 86 0d 00
        e 360 96 0d 64
        e 120 86 0d 00
        e 360 96 0d 64
        e 120 86 0d 00
        e 360 96 0c 64
        e 120 86 0c 00
        e 360 96 0d 64
        e 120 86 0d 00
        e 360 96 0d 64
        e 120 86 0d 00
        e 360 96 0d 64
        e 120 86 0d 00
        e 360 96 0c 64
        e 120 86 0c 00
        e 360 96 0d 64
        e 120 86 0d 00
        e 360 96 0d 64
        e 120 86 0d 00
        e 360 96 0d 64
        e 120 86 0d 00
        e 360 96 0c 64
        e 120 86 0c 00
        e 360 96 0d 64
        e 120 86 0d 00
        e 360 96 0d 64
        e 120 86 0d 00
        e 360 96 0d 64
        e 120 86 0d 00
        e 360 96 0c 64
        e 120 86 0c 00
        e 360 96 0d 64
        e 120 86 0d 00
        e 360 96 0d 64
        e 120 86 0d 00
        e 360 96 0d 64
        e 120 86 0d 00
        e 360 96 0c 64
        e 120 86 0c 00
        e 360 96 0d 64
        e 120 86 0d 00
        e 360 96 0d 64
        e 120 86 0d 00
        e 360 96 0d 64
        e 120 86 0d 00
        e 360 96 0c 64
        e 120 86 0c 00
        e 360 96 0d 64
        e 120 86 0d 00
        e 360 96 0d 64
        e 120 86 0d 00
        e 360 96 0d 64
        e 120 86 0d 00
        e 360 96 0c 64
        e 120 86 0c 00
        e 360 96 0d 64
        e 120 86 0d 00
        e 360 96 0d 64
        e 120 86 0d 00
        e 360 96 0d 64
        e 120 86 0d 00
        e 360 96 0c 64
        e 120 86 0c 00
        e 360 96 0d 64
        e 120 86 0d 00
        e 360 96 0d 64
        e 120 86 0d 00
        e 360 96 0d 64
        e 120 86 0d 00
        e 360 96 0c 64
        e 120 86 0c 00
        e 360 96 0d 64
        e 120 86 0d 00
        e 360 96 0d 64
        e 120 86 0d 00
        e 360 96 0d 64
        e 120 86 0d 00
        e 360 96 0c 64
        e 120 86 0c 00
        e 360 96 0d 64
        e 120 86 0d 00
        e 360 96 0d 64
        e 120 86 0d 00
        e 360 96 0d 64
        e 120 86 0d 00
        e 360 96 0c 64
        e 120 86 0c 00
        e 360 96 0d 64
        e 120 86 0d 00
        e 360 96 0d 64
        e 120 86 0d 00
        e 360 96 0d 64
        e 120 86 0d 00
        e 360 96 0c 64
        e 120 86 0c 00
        e 360 96 0d 64
        e 120 86 0d 00
        e 360 96 0d 64
        e 120 86 0d 00
        e 360 96 0d 64
        e 120 86 0d 00
        e 360 96 0c 64
        e 120 86 0c 00
        e 360 96 0d 64
        e 120 86 0d 00
        e 360 96 0d 64
        e 120 86 0d 00
        e 360 96 0d 64
        e 120 86 0d 00
        e 360 96 0c 64
        e 120 86 0c 00
        e 360 96 0d 64
        e 120 86 0d 00
        e 360 96 0d 64
        e 120 86 0d 00
        e 360 96 0d 64
        e 120 86 0d 00
        e 360 96 0c 64
        e 120 86 0c 00
        e 360 96 0d 64
        e 120 86 0d 00
        e 360 96 0d 64
        e 120 86 0d 00
        e 360 96 0d 64
        e 120 86 0d 00
        e 360 96 0c 64
        e 120 86 0c 00
        e 360 96 0d 64
        e 120 86 0d 00
        e 360 96 0d 64
        e 120 86 0d 00
        e 360 96 0d 64
        e 120 86 0d 00
        e 360 96 0c 64
        e 120 86 0c 00
        e 360 96 0d 64
        e 120 86 0d 00
        e 360 96 0d 64
        e 120 86 0d 00
        e 360 96 0d 64
        e 120 86 0d 00
        e 360 96 0c 64
        e 120 86 0c 00
        e 360 96 0d 64
        e 120 86 0d 00
        e 360 96 0d 64
        e 120 86 0d 00
        e 360 96 0d 64
        e 120 86 0d 00
        e 360 96 0c 64
        e 120 86 0c 00
        e 360 96 0d 64
        e 120 86 0d 00
        e 360 96 0d 64
        e 120 86 0d 00
        e 360 96 0d 64
        e 120 86 0d 00
        e 360 96 0c 64
        e 120 86 0c 00
        e 360 96 0d 64
        e 120 86 0d 00
        e 360 96 0d 64
        e 120 86 0d 00
        e 360 96 0d 64
        e 120 86 0d 00
        e 360 96 0c 64
        e 120 86 0c 00
        e 360 96 0d 64
        e 120 86 0d 00
        e 360 96 0d 64
        e 120 86 0d 00
        e 360 96 0d 64
        e 120 86 0d 00
        e 360 96 0c 64
        e 120 86 0c 00
        e 360 96 0d 64
        e 120 86 0d 00
        e 360 96 0d 64
        e 120 86 0d 00
        e 360 96 0d 64
        e 120 86 0d 00
        e 360 96 0c 64
        e 120 86 0c 00
        e 360 96 0d 64
        e 120 86 0d 00
        e 360 96 0d 64
        e 120 86 0d 00
        e 360 96 0d 64
        e 120 86 0d 00
        e 360 96 0c 64
        e 120 86 0c 00
        e 360 96 0d 64
        e 120 86 0d 00
        e 360 96 0d 64
        e 120 86 0d 00
        e 360 96 0d 64
        e 120 86 0d 00
        e 360 96 0c 64
        e 120 86 0c 00
        e 360 96 0d 64
        e 120 86 0d 00
        e 360 96 0d 64
        e 120 86 0d 00
        e 360 96 0d 64
        e 120 86 0d 00
        e 360 96 0c 64
        e 120 86 0c 00
        e 360 96 0d 64
        e 120 86 0d 00
        e 360 96 0d 64
        e 120 86 0d 00
        e 360 96 0d 64
        e 120 86 0d 00
        e 360 96 0c 64
        e 120 86 0c 00
        e 360 96 0d 64
        e 120 86 0d 00
        e 360 96 0d 64
        e 120 86 0d 00
        e 360 96 0d 64
        e 120 86 0d 00
        e 360 96 0c 64
        e 120 86 0c 00
        e 360 96 0d 64
        e 120 86 0d 00
        e 360 96 0d 64
        e 120 86 0d 00
        e 360 96 0d 64
        e 120 86 0d 00
        e 360 96 0c 64
        e 120 86 0c 00
        e 360 96 0d 64
        e 120 86 0d 00
        e 360 96 0d 64
        e 120 86 0d 00
        e 360 96 0d 64
        e 120 86 0d 00
        e 360 96 0c 64
        e 120 86 0c 00
        e 360 96 0d 64
        e 120 86 0d 00
        e 360 96 0d 64
        e 120 86 0d 00
        e 360 96 0d 64
        e 120 86 0d 00
        e 360 96 0c 64
        e 120 86 0c 00
        e 360 96 0d 64
        e 120 86 0d 00
        e 360 96 0d 64
        e 120 86 0d 00
        e 360 96 0d 64
        e 120 86 0d 00
        e 360 96 0c 64
        e 120 86 0c 00
        e 360 96 0d 64
        e 120 86 0d 00
        e 360 96 0d 64
        e 120 86 0d 00
        e 360 96 0d 64
        e 120 86 0d 00
        e 360 96 0c 64
        e 120 86 0c 00
        e 360 96 0d 64
        e 120 86 0d 00
        e 360 96 0d 64
        e 120 86 0d 00
        e 360 96 0d 64
        e 120 86 0d 00
        e 360 96 0c 64
        e 120 86 0c 00
        e 360 96 0d 64
        e 120 86 0d 00
        e 360 96 0d 64
        e 120 86 0d 00
        e 360 96 0d 64
        e 120 86 0d 00
        e 360 96 0c 64
        e 120 86 0c 00
        e 360 96 0d 64
        e 120 86 0d 00
        e 360 96 0d 64
        e 120 86 0d 00
        e 360 96 0d 64
        e 120 86 0d 00
        e 360 96 0c 64
        e 120 86 0c 00
        e 360 96 0d 64
        e 120 86 0d 00
        e 360 96 0d 64
        e 120 86 0d 00
        e 360 96 0d 64
        e 120 86 0d 00
        e 360 96 0c 64
        e 120 86 0c 00
        e 360 96 0d 64
        e 120 86 0d 00
        e 360 96 0d 64
        e 120 86 0d 00
        e 360 96 0d 64
        e 120 86 0d 00
        e 360 96 0c 64
        e 120 86 0c 00
        e 360 96 0d 64
        e 120 86 0d 00
        e 360 96 0d 64
        e 120 86 0d 00
        e 360 96 0d 64
        e 120 86 0d 00
        e 360 96 0c 64
        e 120 86 0c 00
        e 360 96 0d 64
        e 120 86 0d 00
        e 360 96 0d 64
        e 120 86 0d 00
        e 360 96 0d 64
        e 120 86 0d 00
        e 360 96 0c 64
        e 120 86 0c 00
        e 360 96 0d 64
        e 120 86 0d 00
        e 360 96 0d 64
        e 120 86 0d 00
        e 360 96 0d 64
        e 120 86 0d 00
        e 360 96 0c 64
        e 120 86 0c 00
        e 360 96 0d 64
        e 120 86 0d 00
        e 360 96 0d 64
        e 120 86 0d 00
        e 360 96 0d 64
        e 120 86 0d 00
        e 360 96 0c 64
        e 120 86 0c 00
        e 360 96 0d 64
        e 120 86 0d 00
        e 360 96 0d 64
        e 120 86 0d 00
        e 360 96 0d 64
        e 120 86 0d 00
        e 360 96 0c 64
        e 120 86 0c 00
        e 360 96 0d 64
        e 120 86 0d 00
        e 360 96 0d 64
        e 120 86 0d 00
        e 360 96 0d 64
        e 120 86 0d 00
        e 360 96 0c 64
        e 120 86 0c 00
        e 360 96 0d 64
        e 120 86 0d 00
        e 360 96 0d 64
        e 120 86 0d 00
        e 360 96 0d 64
        e 120 86 0d 00
        e 360 96 0c 64
        e 120 86 0c 00
        e 360 96 0d 64
        e 120 86 0d 00
        e 360 96 0d 64
        e 120 86 0d 00
        e 360 96 0d 64
        e 120 86 0d 00
        e 360 96 0c 64
        e 120 86 0c 00
        e 360 96 0d 64
        e 120 86 0d 00
        e 360 96 0d 64
        e 120 86 0d 00
        e 360 96 0d 64
        e 120 86 0d 00
        e 360 96 0c 64
        e 120 86 0c 00
        e 360 96 0d 64
        e 120 86 0d 00
        e 360 96 0d 64
        e 120 86 0d 00
        e 360 96 0d 64
        e 120 86 0d 00
        e 360 96 0c 64
        e 120 86 0c 00
        e 360 96 0d 64
        e 120 86 0d 00
        e 360 96 0d 64
        e 120 86 0d 00
        e 360 96 0d 64
        e 120 86 0d 00
        e 360 96 0c 64
        e 120 86 0c 00
        e 360 96 0d 64
        e 120 86 0d 00
        e 360 96 0d 64
        e 120 86 0d 00
        e 360 96 0d 64
        e 120 86 0d 00
        e 360 96 0c 64
        e 120 86 0c 00
        e 360 96 0d 64
        e 120 86 0d 00
        e 360 96 0d 64
        e 120 86 0d 00
        e 360 96 0d 64
        e 120 86 0d 00
        e 360 96 0c 64
        e 120 86 0c 00
        e 360 96 0d 64
        e 120 86 0d 00
        e 360 96 0d 64
        e 120 86 0d 00
        e 360 96 0d 64
        e 120 86 0d 00
        e 360 96 0c 64
        e 120 86 0c 00
        e 360 96 0d 64
        e 120 86 0d 00
        e 360 96 0d 64
        e 120 86 0d 00
        e 360 96 0d 64
        e 120 86 0d 00
        e 360 96 0c 64
        e 120 86 0c 00
        e 360 96 0d 64
        e 120 86 0d 00
        e 360 96 0d 64
        e 120 86 0d 00
        e 360 96 0d 64
        e 120 86 0d 00
        e 360 96 0c 64
        e 120 86 0c 00
        e 360 96 0d 64
        e 120 86 0d 00
        e 360 96 0d 64
        e 120 86 0d 00
        e 360 96 0d 64
        e 120 86 0d 00
        e 360 96 0c 64
        e 120 86 0c 00
        e 360 96 0d 64
        e 120 86 0d 00
        e 360 96 0d 64
        e 120 86 0d 00
        e 360 96 0d 64
        e 120 86 0d 00
        e 360 96 0c 64
        e 120 86 0c 00
        e 360 96 0d 64
        e 120 86 0d 00
        e 360 96 0d 64
        e 120 86 0d 00
        e 360 96 0d 64
        e 120 86 0d 00
        e 360 96 0c 64
        e 120 86 0c 00
        e 360 96 0d 64
        e 120 86 0d 00
        e 360 96 0d 64
        e 120 86 0d 00
        e 360 96 0d 64
        e 120 86 0d 00
        e 360 96 0c 64
        e 120 86 0c 00
        e 360 96 0d 64
        e 120 86 0d 00
        e 360 96 0d 64
        e 120 86 0d 00
        e 360 96 0d 64
        e 120 86 0d 00
        e 360 96 0c 64
        e 120 86 0c 00
        e 360 96 0d 64
        e 120 86 0d 00
        e 360 96 0d 64
        e 120 86 0d 00
        e 360 96 0d 64
        e 120 86 0d 00
        e 360 96 0c 64
        e 120 86 0c 00
        e 360 96 0d 64
        e 120 86 0d 00
        e 360 96 0d 64
        e 120 86 0d 00
        e 360 96 0d 64
        e 120 86 0d 00
        e 360 96 0c 64
        e 120 86 0c 00
        e 360 96 0d 64
        e 120 86 0d 00
        e 360 96 0d 64
        e 120 86 0d 00
        e 360 96 0d 64
        e 120 86 0d 00
        e 360 96 0c 64
        e 120 86 0c 00
        e 360 96 0d 64
        e 120 86 0d 00
        e 360 96 0d 64
        e 120 86 0d 00
        e 360 96 0d 64
        e 120 86 0d 00
        e 360 96 0c 64
        e 120 86 0c 00
        e 360 96 0d 64
        e 120 86 0d 00
        e 360 96 0d 64
        e 120 86 0d 00
        e 360 96 0d 64
        e 120 86 0d 00
        E 360 b0 7b 00
        GUID {C86484CB-EBEB-4806-9DC5-1B947342A413}
        IGNTEMPO 0 120.00000000 4 4
        SRCCOLOR 3
        VELLANE 132 128 128
        COLORMAP "C:\Program Files\REAPER (x64)\Data\color_maps\rockband_guitarbass.png"
        CFGEDITVIEW -7584.000000 12.707726 61 12 0 0 0
        CFGEDIT 1 1 0 1 1 0 1 1 1 1 1 0.25000000 -8 -8 1928 1088 0 0 1 1 0.00000000 0 1 0 0 0.500000 0 0 1.000000 64
        KEYSNAP 0 0 "102034050607" 0 "Major"
        EVTFILTER 0 -1 -1 -1 -1 0 1 0 0 -1.00000000 -1.00000000
      >
    >
  >
  <EXTENSIONS
  >
>
