<REAPER_PROJECT 0.1 "4.22/x64"
  RIPPLE 0
  GROUPOVERRIDE 0 0 0
  AUTOXFADE 1
  ENVATTACH 1
  MIXERUIFLAGS 11 48
  PEAKGAIN 1.00000000000000
  FEEDBACK 0
  PANLAW 1.00000000000000
  PROJOFFS 0.00000000000000 0
  MAXPROJLEN 0 600.00000000000000
  GRID 3199 8 1.00000000000000 8 1.00000000000000 0
  TIMEMODE 1 0 -1
  PANMODE 3
  CURSOR 0.00000000000000
  ZOOM 16.68621421257645 0 0
  VZOOMEX 6
  USE_REC_CFG 0
  RECMODE 1
  SMPTESYNC 0 23.976024 100 40 1000 300 0 0.000000 1
  LOOP 1
  LOOPGRAN 0 4.00000000000000
  RECORD_PATH "" ""
  <RECORD_CFG
    ZXZhdxAD
  >
  <APPLYFX_CFG
  >
  RENDER_FILE "C:\Users\Ruggery\Desktop\backing.wav"
  RENDER_FMT 0 1 44100
  RENDER_1X 0
  RENDER_RANGE 1 0.00000000000000 0.00000000000000
  RENDER_RESAMPLE 3 0 1
  RENDER_ADDTOPROJ 0
  RENDER_STEMS 0
  RENDER_DITHER 0
  TIMELOCKMODE 0
  ITEMMIX 0
  DEFPITCHMODE 393216
  TAKELANE 1
  SAMPLERATE 44100 0 0
  <RENDER_CFG
    ZXZhdxAD
  >
  LOCK 1
  <METRONOME 6 2.000000
    VOL 0.250000 0.125000
    FREQ 800 1600 1
    BEATLEN 4
    SAMPLES "" ""
  >
  GLOBAL_AUTO -1
  TEMPO 120.00000000000000 4 4
  PLAYRATE 1.00000000000000 0 0.25000 4.00000
  SELECTION 67.30106100000002 0.00000000000000
  SELECTION2 67.30106100000002 0.00000000000000
  MASTERAUTOMODE 0
  MASTERTRACKHEIGHT 0
  MASTERPEAKCOL 16576
  MASTERMUTESOLO 0
  MASTERTRACKVIEW 0 0.666700 0.500000 0.500000 -1 -1 -1
  MASTERHWOUT 0 0 1.00000000000000 0.00000000000000 0 0 0 -1.00000000000000
  MASTER_NCH 2 2
  MASTER_VOLUME 1.00000000000000 0.00000000000000 -1.00000000000000 -1.00000000000000 1.00000000000000
  MASTER_PANMODE -1
  MASTER_FX 1
  MASTER_SEL 0
  <MASTERPLAYSPEEDENV
    ACT 0
    VIS 0 1 1.000000
    LANEHEIGHT 0 0
    ARM 0
    DEFSHAPE 0 -1 -1
  >
  <TEMPOENVEX
    ACT 1
    VIS 1 0 1.000000
    LANEHEIGHT 0 0
    ARM 0
    DEFSHAPE 1 -1 -1
    PT 0.000000000000 128.4711293255 1
    PT 4.203279000000 119.0587217459 1
    PT 4.707232000000 124.7059019147 1
    PT 5.669496000000 120.9411641393 1
    PT 6.165605000000 126.5881538806 1
    PT 7.587539000000 123.7646738491 1
    PT 8.072330000000 120.9411641393 1
    PT 8.568439000000 121.8823510293 1
    PT 9.060717000000 130.3528869906 1
    PT 9.521006000000 120.9411641393 1
    PT 10.017115000000 124.7059019147 1
    PT 10.979379000000 112.4705467756 1
    PT 11.512852000000 129.4118662054 1
    PT 12.440124000000 127.5293317463 1
    PT 13.381084000000 115.2941538178 1
    PT 13.901492000000 122.8234658326 1
    PT 15.367010000000 128.4705791668 1
    PT 16.301076000000 124.7059019147 1
    PT 17.263340000000 118.1176767040 1
    PT 17.771308000000 124.7059019147 1
    PT 18.733572000000 118.1176767040 1
    PT 19.241540000000 131.2939013983 1 262147
    PT 19.698530000000 125.6470824747 1
    PT 20.176058000000 128.4705791668 1
    PT 20.643091000000 118.1176767040 1
    PT 21.151059000000 127.5293317463 1
    PT 21.621539000000 119.0587217459 1
    PT 22.125492000000 127.5293317463 1
    PT 22.595972000000 121.8823510293 1
    PT 23.580528000000 126.5881538806 1
    PT 24.528484000000 123.7646738491 1
    PT 25.982857000000 116.2353688729 1
    PT 26.499051000000 130.3528869906 1
    PT 26.959340000000 124.4031241771 1
    PT 28.888552000000 121.8823510293 1
    PT 29.380830000000 124.7059019147 1
    PT 30.343094000000 120.0000000000 1
    PT 30.843094000000 126.5881538806 1
    PT 32.265028000000 120.9411641393 1
    PT 32.761137000000 134.1177732873 1
    PT 33.208505000000 109.6471190219 1
    PT 33.755715000000 130.3528869906 1
    PT 34.216004000000 122.8234658326 1
    PT 34.704510000000 120.0000000000 1
    PT 35.204510000000 131.2941887004 1
    PT 35.661499000000 118.1176767040 1
    PT 36.169467000000 124.7059019147 1
    PT 37.612863000000 127.5293317463 1
    PT 38.083343000000 128.4705791668 1
    PT 39.017409000000 111.5293461592 1
    PT 39.555384000000 130.3528869906 1
    PT 40.015673000000 121.8823510293 1
    PT 41.000229000000 125.6470824747 1
    PT 41.955285000000 120.0000000000 1
    PT 43.455285000000 123.7646738491 1
    PT 43.940076000000 131.2941887004 1
    PT 44.397065000000 122.8234658326 1
    PT 45.374077000000 129.4118662054 1
    PT 45.837713000000 121.8823510293 1
    PT 46.822269000000 129.4118662054 1
    PT 47.285905000000 125.6470824747 1
    PT 47.763433000000 121.8823510293 1
    PT 48.255711000000 125.6470824747 1
    PT 49.210767000000 122.8234658326 1
    PT 49.699273000000 126.5881538806 1
    PT 50.647229000000 119.0587217459 1
    PT 51.151182000000 125.6470824747 1
    PT 51.628710000000 117.1765147017 1
    PT 52.140758000000 123.7646738491 1
    PT 52.625549000000 133.1764810334 1
    PT 53.076079000000 119.0587217459 1
    PT 54.083985000000 128.4705791668 1
    PT 54.551018000000 125.6470824747 1
    PT 55.028546000000 121.8823510293 1
    PT 55.520824000000 129.4118662054 1
    PT 55.984460000000 120.9411641393 1
    PT 56.480569000000 123.7646738491 1
    PT 56.965360000000 125.6470824747 1
    PT 57.442888000000 117.1765147017 1
    PT 57.954936000000 98.3529164918 1
    PT 58.564984000000 91.7647274741 1
    PT 59.218830000000 84.2352353181 1
    PT 59.931121000000 81.4117889698 1
  >
  <PROJBAY
  >
  <TRACK '{38C52D46-CE0E-4186-B8AD-E89AF82791B3}'
    NAME "PART GUITAR"
    PEAKCOL 16576
    BEAT -1
    AUTOMODE 0
    VOLPAN 1.00000000000000 0.00000000000000 -1.00000000000000 -1.00000000000000 1.00000000000000
    MUTESOLO 0 0 0
    IPHASE 0
    ISBUS 1 1
    BUSCOMP 0 0
    SHOWINMIX 1 0.666700 0.500000 1 0.500000 -1 -1 -1
    FREEMODE 0
    SEL 0
    REC 0 0 0 0 0 0 0
    VU 2
    TRACKHEIGHT 0 0
    INQ 0 0 0 0.5000000000 100 0 0 100
    NCHAN 2
    FX 1
    TRACKID {38C52D46-CE0E-4186-B8AD-E89AF82791B3}
    PERF 0
    MIDIOUT -1
    MAINSEND 1 0
    <FXCHAIN
      WNDRECT 0 43 891 559
      SHOW 0
      LASTSEL 0
      DOCKED 0
      BYPASS 0 0
      <VST "VSTi: RBN Preview (RBN)" "rbprev_vst64.dll" 0 ""
        dnBicu5e7f4AAAAAAgAAAAEAAAAAAAAAAgAAAAAAAAAEAAAAAQAAAA==
        AAAQAAMAqgAAABAAAAA=
      >
      FLOATPOS 0 0 0 0
      FXID {59DB83BF-7C0C-4F20-9F8C-C23712733214}
      WAK 0
    >
    <ITEM
      POSITION 0.00000000000000
      SNAPOFFS 0.00000000000000
      LENGTH 67.30100000000000
      LOOP 0
      ALLTAKES 0
      SEL 0
      FADEIN 1 0.000000 0.000000 1 0
      FADEOUT 1 0.000000 0.000000 1 0
      MUTE 0
      IGUID {9E05A3EB-FB38-43F6-970F-3E61F334353E}
      IID 1
      NAME "PART GUITAR"
      VOLPAN 1.000000 0.000000 1.000000 -1.000000
      SOFFS 0.00000000000000 0.00000000000000
      PLAYRATE 1.00000000000000 1 0.00000000000000 -1
      CHANMODE 0
      GUID {EF2FD6E8-9A24-4344-9323-AC91D6D34E13}
      <SOURCE MIDI
        HASDATA 1 480 QN
        POOLEDEVTS {BF2536A3-E3ED-40AE-A5A3-5DD1FF432C21}
        <X 0 0
          /wNQQVJUIEdVSVRBUg==
        >
        <X 3720 0
          /wFbbWFwIEhhbmRNYXBfQWxsQ2hvcmRzXQ==
        >
        <X 0 0
          /wFbcGxheV0=
        >
        E 120 90 2b 60
        E 0 90 3e 60
        E 0 90 4a 60
        E 0 90 56 60
        E 0 90 62 60
        E 120 80 3e 00
        E 0 80 4a 00
        E 0 80 56 00
        E 0 80 62 00
        E 120 90 58 60
        E 0 90 64 60
        E 120 80 58 00
        E 0 80 64 00
        E 120 90 57 60
        E 0 90 63 60
        E 120 80 57 00
        E 0 80 63 00
        E 120 90 3e 60
        E 0 90 4a 60
        E 0 90 56 60
        E 0 90 62 60
        E 120 80 3e 00
        E 0 80 4a 00
        E 0 80 56 00
        E 0 80 62 00
        E 120 90 58 60
        E 0 90 64 60
        E 120 80 58 00
        E 0 80 64 00
        E 120 90 57 60
        E 0 90 63 60
        E 120 80 57 00
        E 0 80 63 00
        E 120 90 4a 60
        E 0 90 56 60
        E 0 90 62 60
        E 120 80 4a 00
        E 0 80 56 00
        E 0 80 62 00
        E 120 90 58 60
        E 0 90 64 60
        E 120 80 58 00
        E 0 80 64 00
        E 360 90 4b 60
        E 0 90 58 60
        E 0 90 64 60
        E 120 80 4b 00
        E 0 80 58 00
        E 0 80 64 00
        E 120 90 57 60
        E 0 90 63 60
        E 120 80 57 00
        E 0 80 63 00
        E 120 90 3d 60
        E 0 90 49 60
        E 0 90 55 60
        E 0 90 61 60
        E 120 80 3d 00
        E 0 80 49 00
        E 0 80 55 00
        E 0 80 61 00
        E 120 90 58 60
        E 0 90 64 60
        E 120 80 58 00
        E 0 80 64 00
        E 120 90 57 60
        E 0 90 63 60
        E 120 80 57 00
        E 0 80 63 00
        E 120 90 3d 60
        E 0 90 49 60
        E 0 90 55 60
        E 0 90 61 60
        E 120 80 3d 00
        E 0 80 49 00
        E 0 80 55 00
        E 0 80 61 00
        E 120 90 58 60
        E 0 90 64 60
        E 120 80 58 00
        E 0 80 64 00
        E 240 80 2b 00
        E 120 90 28 60
        E 0 90 4a 60
        E 0 90 57 60
        E 0 90 63 60
        E 120 80 4a 00
        E 0 80 57 00
        E 0 80 63 00
        E 120 90 56 60
        E 0 90 62 60
        E 120 80 56 00
        E 0 80 62 00
        E 120 90 3c 60
        E 0 90 48 60
        E 0 90 54 60
        E 0 90 60 60
        E 120 80 3c 00
        E 0 80 48 00
        E 0 80 54 00
        E 0 80 60 00
        E 120 90 57 60
        E 0 90 63 60
        E 120 80 57 00
        E 0 80 63 00
        E 120 90 56 60
        E 0 90 62 60
        E 120 80 56 00
        E 0 80 62 00
        E 120 90 3c 60
        E 0 90 48 60
        E 0 90 54 60
        E 0 90 60 60
        E 120 80 3c 00
        E 0 80 48 00
        E 0 80 54 00
        E 0 80 60 00
        E 120 90 57 60
        E 0 90 63 60
        E 120 80 57 00
        E 0 80 63 00
        E 120 90 74 60
        E 240 90 3d 60
        E 0 90 49 60
        E 0 90 55 60
        E 0 90 61 60
        E 120 80 3d 00
        E 0 80 49 00
        E 0 80 55 00
        E 0 80 61 00
        E 120 90 56 60
        E 0 90 62 60
        E 120 80 56 00
        E 0 80 62 00
        E 120 90 57 60
        E 0 90 63 60
        E 120 80 57 00
        E 0 80 63 00
        E 120 90 3d 60
        E 0 90 49 60
        E 0 90 55 60
        E 0 90 61 60
        E 120 80 3d 00
        E 0 80 49 00
        E 0 80 55 00
        E 0 80 61 00
        E 120 90 56 60
        E 0 90 62 60
        E 120 80 56 00
        E 0 80 62 00
        E 120 90 4b 60
        E 0 90 57 60
        E 0 90 63 60
        E 120 80 4b 00
        E 0 80 57 00
        E 0 80 63 00
        E 120 90 58 60
        E 0 90 59 60
        E 0 90 64 60
        E 0 90 65 60
        E 120 80 28 00
        E 0 80 58 00
        E 0 80 59 00
        E 0 80 64 00
        E 0 80 65 00
        E 120 80 74 00
        E 0 90 2b 60
        E 0 90 3e 60
        E 0 90 4a 60
        E 0 90 56 60
        E 0 90 62 60
        E 120 80 3e 00
        E 0 80 4a 00
        E 0 80 56 00
        E 0 80 62 00
        E 120 90 58 60
        E 0 90 64 60
        E 120 80 58 00
        E 0 80 64 00
        E 120 90 57 60
        E 0 90 63 60
        E 120 80 57 00
        E 0 80 63 00
        E 120 90 3e 60
        E 0 90 4a 60
        E 0 90 56 60
        E 0 90 62 60
        E 120 80 3e 00
        E 0 80 4a 00
        E 0 80 56 00
        E 0 80 62 00
        E 120 90 58 60
        E 0 90 64 60
        E 120 80 58 00
        E 0 80 64 00
        E 120 90 57 60
        E 0 90 63 60
        E 120 80 57 00
        E 0 80 63 00
        E 120 90 3e 60
        E 0 90 4a 60
        E 0 90 56 60
        E 0 90 62 60
        E 120 80 3e 00
        E 0 80 4a 00
        E 0 80 56 00
        E 0 80 62 00
        E 120 90 58 60
        E 0 90 64 60
        E 120 80 58 00
        E 0 80 64 00
        E 360 90 4b 60
        E 0 90 58 60
        E 0 90 64 60
        E 120 80 4b 00
        E 0 80 58 00
        E 0 80 64 00
        E 120 90 57 60
        E 0 90 63 60
        E 120 80 57 00
        E 0 80 63 00
        E 120 90 3d 60
        E 0 90 49 60
        E 0 90 55 60
        E 0 90 61 60
        E 120 80 3d 00
        E 0 80 49 00
        E 0 80 55 00
        E 0 80 61 00
        E 120 90 58 60
        E 0 90 64 60
        E 120 80 58 00
        E 0 80 64 00
        E 120 90 57 60
        E 0 90 63 60
        E 120 80 57 00
        E 0 80 63 00
        E 120 90 3d 60
        E 0 90 49 60
        E 0 90 55 60
        E 0 90 61 60
        E 120 80 3d 00
        E 0 80 49 00
        E 0 80 55 00
        E 0 80 61 00
        E 120 90 58 60
        E 0 90 64 60
        E 120 80 58 00
        E 0 80 64 00
        E 240 80 2b 00
        E 120 90 28 60
        E 0 90 4a 60
        E 0 90 57 60
        E 0 90 63 60
        E 120 80 4a 00
        E 0 80 57 00
        E 0 80 63 00
        E 120 90 56 60
        E 0 90 62 60
        E 120 80 56 00
        E 0 80 62 00
        E 120 90 3c 60
        E 0 90 48 60
        E 0 90 54 60
        E 0 90 60 60
        E 120 80 3c 00
        E 0 80 48 00
        E 0 80 54 00
        E 0 80 60 00
        E 120 90 57 60
        E 0 90 63 60
        E 120 80 57 00
        E 0 80 63 00
        E 120 90 56 60
        E 0 90 62 60
        E 120 80 56 00
        E 0 80 62 00
        E 120 90 3c 60
        E 0 90 48 60
        E 0 90 54 60
        E 0 90 60 60
        E 120 80 3c 00
        E 0 80 48 00
        E 0 80 54 00
        E 0 80 60 00
        E 120 90 57 60
        E 0 90 63 60
        E 120 80 57 00
        E 0 80 63 00
        E 359 90 3d 60
        E 1 90 49 60
        E 0 90 55 60
        E 0 90 61 60
        E 119 80 3d 00
        E 1 80 49 00
        E 0 80 55 00
        E 0 80 61 00
        E 120 90 56 60
        E 0 90 62 60
        E 120 80 56 00
        E 0 80 62 00
        E 120 90 57 60
        E 0 90 63 60
        E 120 80 57 00
        E 0 80 63 00
        E 119 90 3d 60
        E 1 90 49 60
        E 0 90 55 60
        E 0 90 61 60
        E 119 80 3d 00
        E 1 80 49 00
        E 0 80 55 00
        E 0 80 61 00
        E 120 90 56 60
        E 0 90 62 60
        E 120 80 56 00
        E 0 80 62 00
        E 120 90 4b 60
        E 0 90 57 60
        E 0 90 63 60
        E 120 80 4b 00
        E 0 80 57 00
        E 0 80 63 00
        E 120 90 58 60
        E 0 90 59 60
        E 0 90 64 60
        E 0 90 65 60
        E 120 80 28 00
        E 0 80 58 00
        E 0 80 59 00
        E 0 80 64 00
        E 0 80 65 00
        E 120 90 2b 60
        E 0 90 3f 60
        E 0 90 4b 60
        E 0 90 55 60
        E 0 90 61 60
        E 0 90 74 60
        E 120 80 3f 00
        E 0 80 4b 00
        E 0 80 55 00
        E 0 80 61 00
        E 120 90 56 60
        E 0 90 62 60
        E 120 80 56 00
        E 0 80 62 00
        E 120 90 57 60
        E 0 90 63 60
        E 120 80 57 00
        E 0 80 63 00
        E 120 90 4b 60
        E 0 90 55 60
        E 0 90 61 60
        E 120 80 4b 00
        E 0 80 55 00
        E 0 80 61 00
        E 120 90 56 60
        E 0 90 62 60
        E 120 80 56 00
        E 0 80 62 00
        E 120 90 57 60
        E 0 90 63 60
        E 120 80 57 00
        E 0 80 63 00
        E 120 90 3e 60
        E 0 90 4a 60
        E 0 90 54 60
        E 0 90 60 60
        E 120 80 3e 00
        E 0 80 4a 00
        E 0 80 54 00
        E 0 80 60 00
        E 120 90 55 60
        E 0 90 61 60
        E 120 80 55 00
        E 0 80 61 00
        E 120 90 58 60
        E 0 90 64 60
        E 120 80 58 00
        E 0 80 64 00
        E 120 90 4a 60
        E 0 90 54 60
        E 0 90 60 60
        E 120 80 4a 00
        E 0 80 54 00
        E 0 80 60 00
        E 120 90 55 60
        E 0 90 61 60
        E 120 80 55 00
        E 0 80 61 00
        E 120 90 58 60
        E 0 90 64 60
        E 120 80 2b 00
        E 0 80 58 00
        E 0 80 64 00
        E 120 80 74 00
        E 0 90 28 60
        E 0 90 3d 60
        E 0 90 49 60
        E 0 90 55 60
        E 0 90 61 60
        E 120 80 3d 00
        E 0 80 49 00
        E 0 80 55 00
        E 0 80 61 00
        E 120 90 57 60
        E 0 90 63 60
        E 120 80 57 00
        E 0 80 63 00
        E 120 90 58 60
        E 0 90 64 60
        E 120 80 58 00
        E 0 80 64 00
        E 120 90 49 60
        E 0 90 55 60
        E 0 90 61 60
        E 120 80 49 00
        E 0 80 55 00
        E 0 80 61 00
        E 120 90 56 60
        E 0 90 62 60
        E 120 80 56 00
        E 0 80 62 00
        E 120 90 57 60
        E 0 90 63 60
        E 120 80 28 00
        E 0 80 57 00
        E 0 80 63 00
        E 120 90 2b 60
        E 0 90 3c 60
        E 0 90 48 60
        E 0 90 54 60
        E 0 90 60 60
        E 120 80 3c 00
        E 0 80 48 00
        E 0 80 54 00
        E 0 80 60 00
        E 120 90 55 60
        E 0 90 61 60
        E 120 80 55 00
        E 0 80 61 00
        E 120 90 3d 60
        E 0 90 4a 60
        E 0 90 56 60
        E 0 90 62 60
        E 120 80 3d 00
        E 0 80 4a 00
        E 0 80 56 00
        E 0 80 62 00
        E 120 90 55 60
        E 0 90 61 60
        E 120 80 55 00
        E 0 80 61 00
        E 120 90 49 60
        E 0 90 57 60
        E 0 90 63 60
        E 120 80 49 00
        E 0 80 57 00
        E 0 80 63 00
        E 120 90 56 60
        E 0 90 62 60
        E 120 80 56 00
        E 0 80 62 00
        E 120 90 3f 60
        E 0 90 4b 60
        E 0 90 55 60
        E 0 90 61 60
        E 120 80 3f 00
        E 0 80 4b 00
        E 0 80 55 00
        E 0 80 61 00
        E 120 90 56 60
        E 0 90 62 60
        E 120 80 56 00
        E 0 80 62 00
        E 120 90 57 60
        E 0 90 63 60
        E 120 80 57 00
        E 0 80 63 00
        E 120 90 4b 60
        E 0 90 55 60
        E 0 90 61 60
        E 120 80 4b 00
        E 0 80 55 00
        E 0 80 61 00
        E 120 90 56 60
        E 0 90 62 60
        E 120 80 56 00
        E 0 80 62 00
        E 120 90 57 60
        E 0 90 63 60
        E 120 80 57 00
        E 0 80 63 00
        E 120 90 4a 60
        E 0 90 54 60
        E 0 90 60 60
        E 1 90 3e 60
        E 119 80 4a 00
        E 0 80 54 00
        E 0 80 60 00
        E 1 80 3e 00
        E 119 90 55 60
        E 0 90 61 60
        E 120 80 55 00
        E 0 80 61 00
        E 120 90 58 60
        E 0 90 64 60
        E 120 80 58 00
        E 0 80 64 00
        E 120 90 4a 60
        E 0 90 54 60
        E 0 90 60 60
        E 120 80 4a 00
        E 0 80 54 00
        E 0 80 60 00
        E 120 90 55 60
        E 0 90 61 60
        E 120 80 55 00
        E 0 80 61 00
        E 120 90 58 60
        E 0 90 64 60
        E 120 80 2b 00
        E 0 80 58 00
        E 0 80 64 00
        E 120 90 28 60
        E 0 90 49 60
        E 0 90 55 60
        E 0 90 61 60
        E 1 90 3d 60
        E 119 80 49 00
        E 0 80 55 00
        E 0 80 61 00
        E 1 80 3d 00
        E 119 90 57 60
        E 0 90 63 60
        E 120 80 57 00
        E 0 80 63 00
        E 120 90 58 60
        E 0 90 64 60
        E 120 80 58 00
        E 0 80 64 00
        E 120 90 49 60
        E 0 90 55 60
        E 0 90 61 60
        E 120 80 49 00
        E 0 80 55 00
        E 0 80 61 00
        E 120 90 56 60
        E 0 90 62 60
        E 120 80 56 00
        E 0 80 62 00
        E 120 90 57 60
        E 0 90 63 60
        E 120 80 28 00
        E 0 80 57 00
        E 0 80 63 00
        E 120 90 2b 60
        E 0 90 48 60
        E 0 90 54 60
        E 0 90 60 60
        E 0 90 74 60
        E 1 90 3c 60
        E 119 80 48 00
        E 0 80 54 00
        E 0 80 60 00
        E 1 80 3c 00
        E 119 90 55 60
        E 0 90 61 60
        E 120 80 55 00
        E 0 80 61 00
        E 120 90 4a 60
        E 0 90 56 60
        E 0 90 62 60
        E 120 80 4a 00
        E 0 80 56 00
        E 0 80 62 00
        E 120 90 55 60
        E 0 90 61 60
        E 120 80 55 00
        E 0 80 61 00
        E 120 90 4b 60
        E 0 90 57 60
        E 0 90 63 60
        E 120 80 4b 00
        E 0 80 57 00
        E 0 80 63 00
        E 120 90 58 60
        E 0 90 59 60
        E 0 90 64 60
        E 0 90 65 60
        E 120 80 2b 00
        E 0 80 58 00
        E 0 80 59 00
        E 0 80 64 00
        E 0 80 65 00
        E 120 80 74 00
        E 0 90 31 60
        E 0 90 3d 60
        E 0 90 49 60
        E 0 90 54 60
        E 0 90 60 60
        E 120 80 3d 00
        E 0 80 49 00
        E 0 80 54 00
        E 0 80 60 00
        E 120 90 55 60
        E 0 90 61 60
        E 120 80 55 00
        E 0 80 61 00
        E 120 90 56 60
        E 0 90 62 60
        E 120 80 56 00
        E 0 80 62 00
        E 120 90 4a 60
        E 0 90 58 60
        E 0 90 64 60
        E 120 80 4a 00
        E 0 80 58 00
        E 0 80 64 00
        E 120 90 56 60
        E 0 90 62 60
        E 120 80 56 00
        E 0 80 62 00
        E 120 90 55 60
        E 0 90 61 60
        E 120 80 55 00
        E 0 80 61 00
        E 120 90 3d 60
        E 0 90 49 60
        E 0 90 54 60
        E 0 90 60 60
        E 120 80 3d 00
        E 0 80 49 00
        E 0 80 54 00
        E 0 80 60 00
        E 120 90 55 60
        E 0 90 61 60
        E 120 80 55 00
        E 0 80 61 00
        E 120 90 56 60
        E 0 90 62 60
        E 120 80 56 00
        E 0 80 62 00
        E 120 90 58 60
        E 0 90 64 60
        E 120 80 58 00
        E 0 80 64 00
        E 120 90 56 60
        E 0 90 59 60
        E 0 90 62 60
        E 0 90 65 60
        E 120 80 56 00
        E 0 80 59 00
        E 0 80 62 00
        E 0 80 65 00
        E 120 90 57 60
        E 0 90 63 60
        E 120 80 57 00
        E 0 80 63 00
        E 120 90 3f 60
        E 0 90 4b 60
        E 0 90 56 60
        E 0 90 62 60
        E 120 80 3f 00
        E 0 80 4b 00
        E 0 80 56 00
        E 0 80 62 00
        E 120 90 55 60
        E 0 90 61 60
        E 120 80 55 00
        E 0 80 61 00
        E 120 90 56 60
        E 0 90 62 60
        E 120 80 56 00
        E 0 80 62 00
        E 120 90 4c 60
        E 0 90 58 60
        E 0 90 64 60
        E 120 80 4c 00
        E 0 80 58 00
        E 0 80 64 00
        E 120 90 56 60
        E 0 90 62 60
        E 120 80 56 00
        E 0 80 62 00
        E 120 90 55 60
        E 0 90 61 60
        E 120 80 55 00
        E 0 80 61 00
        E 120 90 3f 60
        E 0 90 4b 60
        E 0 90 56 60
        E 0 90 62 60
        E 120 80 3f 00
        E 0 80 4b 00
        E 0 80 56 00
        E 0 80 62 00
        E 120 90 57 60
        E 0 90 63 60
        E 120 80 57 00
        E 0 80 63 00
        E 120 90 58 60
        E 0 90 64 60
        E 120 80 31 00
        E 0 80 58 00
        E 0 80 64 00
        E 120 90 2f 60
        E 0 90 3e 60
        E 0 90 4a 60
        E 0 90 55 60
        E 0 90 61 60
        E 120 80 3e 00
        E 0 80 4a 00
        E 0 80 55 00
        E 0 80 61 00
        E 120 90 56 60
        E 0 90 62 60
        E 120 80 56 00
        E 0 80 62 00
        E 120 90 57 60
        E 0 90 63 60
        E 120 80 2f 00
        E 0 80 57 00
        E 0 80 63 00
        E 120 90 31 60
        E 0 90 3d 60
        E 0 90 49 60
        E 0 90 54 60
        E 0 90 60 60
        E 120 80 3d 00
        E 0 80 49 00
        E 0 80 54 00
        E 0 80 60 00
        E 120 90 55 60
        E 0 90 61 60
        E 120 80 55 00
        E 0 80 61 00
        E 120 90 56 60
        E 0 90 62 60
        E 120 80 56 00
        E 0 80 62 00
        E 120 90 4a 60
        E 0 90 58 60
        E 0 90 64 60
        E 120 80 4a 00
        E 0 80 58 00
        E 0 80 64 00
        E 120 90 56 60
        E 0 90 62 60
        E 120 80 56 00
        E 0 80 62 00
        E 120 90 55 60
        E 0 90 61 60
        E 120 80 55 00
        E 0 80 61 00
        E 120 90 3d 60
        E 0 90 49 60
        E 0 90 54 60
        E 0 90 60 60
        E 120 80 3d 00
        E 0 80 49 00
        E 0 80 54 00
        E 0 80 60 00
        E 120 90 55 60
        E 0 90 61 60
        E 120 80 55 00
        E 0 80 61 00
        E 120 90 56 60
        E 0 90 62 60
        E 120 80 56 00
        E 0 80 62 00
        E 120 90 58 60
        E 0 90 64 60
        E 120 80 58 00
        E 0 80 64 00
        E 120 90 56 60
        E 0 90 59 60
        E 0 90 62 60
        E 0 90 65 60
        E 120 80 56 00
        E 0 80 59 00
        E 0 80 62 00
        E 0 80 65 00
        E 120 90 57 60
        E 0 90 63 60
        E 120 80 57 00
        E 0 80 63 00
        E 120 90 3f 60
        E 0 90 4b 60
        E 0 90 56 60
        E 0 90 62 60
        E 120 80 3f 00
        E 0 80 4b 00
        E 0 80 56 00
        E 0 80 62 00
        E 120 90 55 60
        E 0 90 61 60
        E 120 80 55 00
        E 0 80 61 00
        E 120 90 56 60
        E 0 90 62 60
        E 120 80 56 00
        E 0 80 62 00
        E 120 90 4c 60
        E 0 90 58 60
        E 0 90 64 60
        E 120 80 4c 00
        E 0 80 58 00
        E 0 80 64 00
        E 120 90 56 60
        E 0 90 62 60
        E 120 80 56 00
        E 0 80 62 00
        E 120 90 55 60
        E 0 90 61 60
        E 120 80 55 00
        E 0 80 61 00
        E 120 90 3f 60
        E 0 90 4b 60
        E 0 90 56 60
        E 0 90 62 60
        E 120 80 3f 00
        E 0 80 4b 00
        E 0 80 56 00
        E 0 80 62 00
        E 120 90 57 60
        E 0 90 63 60
        E 120 80 57 00
        E 0 80 63 00
        E 120 90 58 60
        E 0 90 64 60
        E 120 80 31 00
        E 0 80 58 00
        E 0 80 64 00
        E 120 90 2f 60
        E 0 90 3e 60
        E 0 90 4a 60
        E 0 90 55 60
        E 0 90 61 60
        E 120 80 3e 00
        E 0 80 4a 00
        E 0 80 55 00
        E 0 80 61 00
        E 120 90 56 60
        E 0 90 62 60
        E 120 80 56 00
        E 0 80 62 00
        E 120 90 57 60
        E 0 90 63 60
        E 120 80 2f 00
        E 0 80 57 00
        E 0 80 63 00
        E 120 90 28 60
        E 0 90 3f 60
        E 0 90 4b 60
        E 0 90 56 60
        E 0 90 62 60
        E 120 80 3f 00
        E 0 80 4b 00
        E 0 80 56 00
        E 0 80 62 00
        E 120 90 56 60
        E 0 90 62 60
        E 120 80 56 00
        E 0 80 62 00
        E 120 90 57 60
        E 0 90 63 60
        E 120 80 57 00
        E 0 80 63 00
        E 120 90 4c 60
        E 0 90 58 60
        E 0 90 64 60
        E 120 80 4c 00
        E 0 80 58 00
        E 0 80 64 00
        E 120 90 57 60
        E 0 90 63 60
        E 120 80 57 00
        E 0 80 63 00
        E 120 90 56 60
        E 0 90 62 60
        E 120 80 28 00
        E 0 80 56 00
        E 0 80 62 00
        E 120 90 2b 60
        E 0 90 3e 60
        E 0 90 4a 60
        E 0 90 55 60
        E 0 90 61 60
        E 120 80 3e 00
        E 0 80 4a 00
        E 0 80 55 00
        E 0 80 61 00
        E 120 90 55 60
        E 0 90 61 60
        E 120 80 55 00
        E 0 80 61 00
        E 120 90 56 60
        E 0 90 62 60
        E 120 80 56 00
        E 0 80 62 00
        E 120 90 4b 60
        E 0 90 57 60
        E 0 90 63 60
        E 120 80 4b 00
        E 0 80 57 00
        E 0 80 63 00
        E 120 90 56 60
        E 0 90 62 60
        E 120 80 56 00
        E 0 80 62 00
        E 120 90 55 60
        E 0 90 61 60
        E 120 80 2b 00
        E 0 80 55 00
        E 0 80 61 00
        E 120 90 2f 60
        E 0 90 3d 60
        E 0 90 49 60
        E 0 90 54 60
        E 0 90 60 60
        E 0 90 74 60
        E 120 80 3d 00
        E 0 80 49 00
        E 0 80 54 00
        E 0 80 60 00
        E 120 90 54 60
        E 0 90 60 60
        E 120 80 54 00
        E 0 80 60 00
        E 120 90 55 60
        E 0 90 61 60
        E 120 80 55 00
        E 0 80 61 00
        E 120 90 4a 60
        E 0 90 56 60
        E 0 90 62 60
        E 120 80 4a 00
        E 0 80 56 00
        E 0 80 62 00
        E 120 90 55 60
        E 0 90 61 60
        E 120 80 55 00
        E 0 80 61 00
        E 120 90 54 60
        E 0 90 60 60
        E 120 80 2f 00
        E 0 80 54 00
        E 0 80 60 00
        E 120 90 2b 60
        E 0 90 3e 60
        E 0 90 48 60
        E 0 90 55 60
        E 0 90 61 60
        E 120 80 3e 00
        E 0 80 48 00
        E 0 80 55 00
        E 0 80 61 00
        E 120 90 56 60
        E 0 90 62 60
        E 120 80 56 00
        E 0 80 62 00
        E 120 90 57 60
        E 0 90 63 60
        E 120 80 57 00
        E 0 80 63 00
        E 120 90 48 60
        E 0 90 55 60
        E 0 90 61 60
        E 120 80 48 00
        E 0 80 55 00
        E 0 80 61 00
        E 120 90 56 60
        E 0 90 62 60
        E 120 80 56 00
        E 0 80 62 00
        E 120 90 57 60
        E 0 90 63 60
        E 120 80 2b 00
        E 0 80 57 00
        E 0 80 63 00
        E 120 80 74 00
        E 0 90 28 60
        E 0 90 3c 60
        E 0 90 49 60
        E 0 90 54 60
        E 0 90 60 60
        E 120 80 3c 00
        E 0 80 49 00
        E 0 80 54 00
        E 0 80 60 00
        E 120 90 54 60
        E 0 90 60 60
        E 120 80 54 00
        E 0 80 60 00
        E 120 90 55 60
        E 0 90 61 60
        E 120 80 55 00
        E 0 80 61 00
        E 120 90 4b 60
        E 0 90 56 60
        E 0 90 62 60
        E 120 80 4b 00
        E 0 80 56 00
        E 0 80 62 00
        E 120 90 55 60
        E 0 90 61 60
        E 120 80 55 00
        E 0 80 61 00
        E 120 90 54 60
        E 0 90 60 60
        E 120 80 28 00
        E 0 80 54 00
        E 0 80 60 00
        E 120 90 2d 60
        E 0 90 3d 60
        E 0 90 4a 60
        E 0 90 55 60
        E 0 90 61 60
        E 120 80 3d 00
        E 0 80 4a 00
        E 0 80 55 00
        E 0 80 61 00
        E 120 90 55 60
        E 0 90 61 60
        E 120 80 55 00
        E 0 80 61 00
        E 120 90 56 60
        E 0 90 62 60
        E 120 80 56 00
        E 0 80 62 00
        E 120 90 4c 60
        E 0 90 57 60
        E 0 90 63 60
        E 120 80 4c 00
        E 0 80 57 00
        E 0 80 63 00
        E 120 90 56 60
        E 0 90 62 60
        E 120 80 56 00
        E 0 80 62 00
        E 120 90 55 60
        E 0 90 61 60
        E 120 80 2d 00
        E 0 80 55 00
        E 0 80 61 00
        E 120 90 2b 60
        E 0 90 3e 60
        E 0 90 4b 60
        E 0 90 56 60
        E 0 90 62 60
        E 120 80 3e 00
        E 0 80 4b 00
        E 0 80 56 00
        E 0 80 62 00
        E 120 90 56 60
        E 0 90 62 60
        E 120 80 56 00
        E 0 80 62 00
        E 120 90 57 60
        E 0 90 63 60
        E 120 80 57 00
        E 0 80 63 00
        E 120 90 4c 60
        E 0 90 58 60
        E 0 90 64 60
        E 120 80 4c 00
        E 0 80 58 00
        E 0 80 64 00
        E 120 90 57 60
        E 0 90 63 60
        E 120 80 57 00
        E 0 80 63 00
        E 120 90 56 60
        E 0 90 62 60
        E 120 80 2b 00
        E 0 80 56 00
        E 0 80 62 00
        E 120 90 28 60
        E 0 90 3f 60
        E 0 90 4b 60
        E 0 90 55 60
        E 0 90 61 60
        E 120 80 3f 00
        E 0 80 4b 00
        E 0 80 55 00
        E 0 80 61 00
        E 120 90 57 60
        E 0 90 63 60
        E 120 80 57 00
        E 0 80 63 00
        E 120 90 58 60
        E 0 90 64 60
        E 120 80 58 00
        E 0 80 64 00
        E 120 90 4a 60
        E 0 90 54 60
        E 0 90 60 60
        E 120 80 4a 00
        E 0 80 54 00
        E 0 80 60 00
        E 120 90 56 60
        E 0 90 62 60
        E 120 80 56 00
        E 0 80 62 00
        E 120 90 57 60
        E 0 90 63 60
        E 120 80 57 00
        E 0 80 63 00
        E 120 90 3c 60
        E 0 90 49 60
        E 0 90 54 60
        E 0 90 60 60
        E 120 80 3c 00
        E 0 80 49 00
        E 0 80 54 00
        E 0 80 60 00
        E 120 90 54 60
        E 0 90 60 60
        E 120 80 54 00
        E 0 80 60 00
        E 120 90 55 60
        E 0 90 61 60
        E 120 80 55 00
        E 0 80 61 00
        E 119 90 4b 60
        E 1 90 56 60
        E 0 90 62 60
        E 119 80 4b 00
        E 1 80 56 00
        E 0 80 62 00
        E 120 90 55 60
        E 0 90 61 60
        E 120 80 55 00
        E 0 80 61 00
        E 120 90 54 60
        E 0 90 60 60
        E 120 80 28 00
        E 0 80 54 00
        E 0 80 60 00
        E 119 90 4a 60
        E 1 90 2d 60
        E 0 90 3d 60
        E 0 90 55 60
        E 0 90 61 60
        E 119 80 4a 00
        E 1 80 3d 00
        E 0 80 55 00
        E 0 80 61 00
        E 120 90 55 60
        E 0 90 61 60
        E 120 80 55 00
        E 0 80 61 00
        E 120 90 56 60
        E 0 90 62 60
        E 120 80 56 00
        E 0 80 62 00
        E 120 90 4c 60
        E 0 90 57 60
        E 0 90 63 60
        E 120 80 4c 00
        E 0 80 57 00
        E 0 80 63 00
        E 120 90 56 60
        E 0 90 62 60
        E 120 80 56 00
        E 0 80 62 00
        E 120 90 55 60
        E 0 90 61 60
        E 120 80 2d 00
        E 0 80 55 00
        E 0 80 61 00
        E 119 90 4b 60
        E 1 90 2b 60
        E 0 90 3e 60
        E 0 90 56 60
        E 0 90 62 60
        E 119 80 4b 00
        E 1 80 3e 00
        E 0 80 56 00
        E 0 80 62 00
        E 120 90 56 60
        E 0 90 62 60
        E 120 80 56 00
        E 0 80 62 00
        E 120 90 57 60
        E 0 90 63 60
        E 120 80 57 00
        E 0 80 63 00
        E 120 90 4c 60
        E 0 90 58 60
        E 0 90 64 60
        E 120 80 4c 00
        E 0 80 58 00
        E 0 80 64 00
        E 120 90 57 60
        E 0 90 63 60
        E 120 80 57 00
        E 0 80 63 00
        E 120 90 56 60
        E 0 90 62 60
        E 120 80 2b 00
        E 0 80 56 00
        E 0 80 62 00
        E 120 90 28 60
        E 0 90 3f 60
        E 0 90 4b 60
        E 0 90 55 60
        E 0 90 61 60
        E 120 80 3f 00
        E 0 80 4b 00
        E 0 80 55 00
        E 0 80 61 00
        E 120 90 57 60
        E 0 90 63 60
        E 120 80 57 00
        E 0 80 63 00
        E 120 90 58 60
        E 0 90 64 60
        E 120 80 58 00
        E 0 80 64 00
        E 120 90 4a 60
        E 0 90 54 60
        E 0 90 60 60
        E 1 90 3e 60
        E 119 80 4a 00
        E 0 80 54 00
        E 0 80 60 00
        E 1 80 3e 00
        E 119 90 56 60
        E 0 90 62 60
        E 120 80 56 00
        E 0 80 62 00
        E 120 90 57 60
        E 0 90 63 60
        E 120 80 57 00
        E 0 80 63 00
        E 120 90 3d 60
        E 0 90 3e 60
        E 0 90 54 60
        E 0 90 56 60
        E 0 90 60 60
        E 0 90 61 60
        E 0 90 63 60
        E 0 90 49 60
        E 0 90 4a 60
        <X 2879 0
          /wFbaWRsZV9yZWFsdGltZV0=
        >
        E 0 80 28 00
        E 0 80 54 00
        E 0 80 56 00
        E 0 80 60 00
        E 0 80 61 00
        E 0 80 63 00
        E 0 80 3d 00
        E 0 80 3e 00
        E 0 80 49 00
        E 0 80 4a 00
        E 1440 b0 7b 00
        GUID {37EDD472-3567-4566-807D-BD8D9A58894F}
        IGNTEMPO 0 120.00000000 4 4
        SRCCOLOR 4
        VELLANE 132 128 60
        COLORMAP "C:\Program Files\REAPER (x64)\Data\color_maps\rockband_guitarbass.png"
      >
    >
  >
  <TRACK '{50400694-B066-4BDB-AB64-2FCE3EDE5D3F}'
    NAME "guitar"
    PEAKCOL 16576
    BEAT -1
    AUTOMODE 0
    VOLPAN 1.00000000000000 0.00000000000000 -1.00000000000000 -1.00000000000000 1.00000000000000
    MUTESOLO 0 0 0
    IPHASE 0
    ISBUS 2 -1
    BUSCOMP 0 0
    SHOWINMIX 1 0.666700 0.500000 1 0.500000 -1 -1 -1
    FREEMODE 0
    SEL 0
    REC 0 0 0 0 0 0 0
    VU 2
    TRACKHEIGHT 0 0
    INQ 0 0 0 0.5000000000 100 0 0 100
    NCHAN 2
    FX 1
    TRACKID {50400694-B066-4BDB-AB64-2FCE3EDE5D3F}
    PERF 0
    MIDIOUT -1
    MAINSEND 1 0
    <ITEM
      POSITION 0.00000000000000
      SNAPOFFS 0.00000000000000
      LENGTH 67.30106575963718
      LOOP 0
      ALLTAKES 0
      SEL 0
      FADEIN 1 0.000000 0.000000 1 0
      FADEOUT 1 0.000000 0.000000 1 0
      MUTE 0
      IGUID {1A837FBF-5320-4520-A956-3A83A3F779A1}
      IID 7
      NAME "guitar.wav"
      VOLPAN 1.000000 0.000000 1.000000 -1.000000
      SOFFS 0.00000000000000
      PLAYRATE 1.00000000000000 1 0.00000000000000 -1
      CHANMODE 0
      GUID {D6F4CED4-217E-4595-9BE7-D822449EFECC}
      <SOURCE WAVE
        FILE "wav\guitar.wav"
      >
    >
  >
  <TRACK '{FD9FBB64-D523-4BC9-BA25-7D1315F3A8A3}'
    NAME "PART REAL_GUITAR"
    PEAKCOL 16576
    BEAT -1
    AUTOMODE 0
    VOLPAN 1.00000000000000 0.00000000000000 -1.00000000000000 -1.00000000000000 1.00000000000000
    MUTESOLO 0 0 0
    IPHASE 0
    ISBUS 0 0
    BUSCOMP 0 0
    SHOWINMIX 1 0.666700 0.500000 1 0.500000 -1 -1 -1
    FREEMODE 0
    SEL 0
    REC 0 0 0 0 0 0 0
    VU 2
    TRACKHEIGHT 0 0
    INQ 0 0 0 0.5000000000 100 0 0 100
    NCHAN 2
    FX 0
    TRACKID {FD9FBB64-D523-4BC9-BA25-7D1315F3A8A3}
    PERF 0
    MIDIOUT -1
    MAINSEND 1 0
    <FXCHAIN
      WNDRECT 0 43 655 467
      SHOW 0
      LASTSEL 1
      DOCKED 0
      BYPASS 0 0
      <JS "c3/progtr" ""
        0.000000 3.000000 0.000000 0.000000 0.000000 0.000000 0.000000 0.000000 0.000000 1.000000 - - - - - - - - - - - - - - - - - - - - - - - - - - - - - - - - - - - - - - - - - - - - - - - - - - - - - - 
      >
      FLOATPOS 0 0 0 0
      FXID {0E201F75-5AEE-48F6-9EE7-A6DDA8691572}
      WAK 0
      BYPASS 0 0
      <VST "VSTi: ReaSynth (Cockos)" "reasynth.dll" 0 ""
        eXNlcu9e7f4AAAAAAgAAAAEAAAAAAAAAAgAAAAAAAAA4AAAAAAAAAA==
        AAAQAO++rd4N8K3eppvEO9grvT2HFlk/AAAAAAAAAADMm4A+4jAEPA==
        AAAAAAAAAD+01hM+j8L1PQAAAD8AABAAAAA=
      >
      FLOATPOS 0 0 0 0
      FXID {0B0F72B9-CB09-4216-8254-A0146D903F08}
      WAK 0
    >
    <ITEM
      POSITION 0.00000000000000
      SNAPOFFS 0.00000000000000
      LENGTH 67.30100000000000
      LOOP 0
      ALLTAKES 0
      SEL 0
      FADEIN 1 0.000000 0.000000 1 0
      FADEOUT 1 0.000000 0.000000 1 0
      MUTE 0
      IGUID {062EE90E-63B1-47E0-8AE3-929B319B10E8}
      IID 2
      NAME "PART REAL_GUITAR"
      VOLPAN 1.000000 0.000000 1.000000 -1.000000
      SOFFS 0.00000000000000 0.00000000000000
      PLAYRATE 1.00000000000000 1 0.00000000000000 -1
      CHANMODE 0
      GUID {1F523C84-8CB8-4A16-AAE4-560DC2D8A9ED}
      <SOURCE MIDI
        HASDATA 1 480 QN
        POOLEDEVTS {7B125A02-4E92-4C75-85C3-02624855AE06}
        <X 0 0
          /wNQQVJUIFJFQUxfR1VJVEFS
        >
        <X 3840 0
          /wFbYmVnaW5fcGcgc29uZ190cmFpbmVyX3BnXzFd
        >
        E 0 90 0e 64
        E 0 90 19 69
        E 0 90 31 69
        E 0 90 49 69
        E 0 90 50 64
        E 0 90 61 69
        E 0 90 68 64
        E 0 90 6c 66
        E 0 91 4a 67
        E 0 91 4b 66
        E 0 91 62 67
        E 0 91 63 66
        E 120 80 0e 00
        E 0 80 19 00
        E 0 80 31 00
        E 0 80 49 00
        E 0 80 61 00
        E 0 80 6c 00
        E 0 81 4a 00
        E 0 81 4b 00
        E 0 81 62 00
        E 0 81 63 00
        E 120 90 4b 66
        E 0 90 63 66
        E 120 80 4b 00
        E 0 80 63 00
        <X 120 0
          /wFbcGdfbm9ybSBzb25nX3RyYWluZXJfcGdfMV0=
        >
        E 0 90 4a 67
        E 0 90 62 67
        E 120 80 4a 00
        E 0 80 62 00
        E 120 90 19 69
        E 0 90 31 69
        E 0 90 49 69
        E 0 90 61 69
        E 120 80 19 00
        E 0 80 31 00
        E 0 80 49 00
        E 0 80 61 00
        E 120 90 4b 66
        E 0 90 63 66
        E 120 80 4b 00
        E 0 80 63 00
        E 120 90 4a 67
        E 0 90 62 67
        E 120 80 4a 00
        E 0 80 62 00
        E 120 90 31 69
        E 0 90 49 69
        E 0 90 61 69
        E 120 80 31 00
        E 0 80 49 00
        E 0 80 61 00
        E 120 90 4b 66
        E 0 90 63 66
        E 120 80 50 00
        E 0 80 68 00
        E 0 80 4b 00
        E 0 80 63 00
        <X 360 0
          /wFbY2hyZDMgQm03PGd0cj5iNTwvZ3RyPl0=
        >
        <X 0 0
          /wFbY2hyZDIgQm03PGd0cj5iNTwvZ3RyPl0=
        >
        E 0 90 0b 64
        E 0 90 4b 66
        E 0 90 50 64
        E 0 90 63 66
        E 0 90 68 64
        E 0 91 49 66
        E 0 91 4a 67
        E 0 91 61 66
        E 0 91 62 67
        E 120 80 0b 00
        E 0 80 4b 00
        E 0 80 63 00
        E 0 81 49 00
        E 0 81 4a 00
        E 0 81 61 00
        E 0 81 62 00
        E 120 90 4a 67
        E 0 90 62 67
        E 120 80 4a 00
        E 0 80 62 00
        E 120 90 31 66
        E 0 90 19 66
        E 0 90 49 66
        E 0 90 61 66
        E 120 80 31 00
        E 0 80 19 00
        E 0 80 49 00
        E 0 80 61 00
        E 120 90 4b 66
        E 0 90 63 66
        E 120 80 4b 00
        E 0 80 63 00
        E 120 90 4a 67
        E 0 90 62 67
        E 120 80 4a 00
        E 0 80 62 00
        E 120 90 31 66
        E 0 90 49 66
        E 0 90 61 66
        E 120 80 31 00
        E 0 80 49 00
        E 0 80 61 00
        E 120 90 4b 66
        E 0 90 63 66
        E 120 80 50 00
        E 0 80 68 00
        E 0 80 4b 00
        E 0 80 63 00
        E 360 90 0a 64
        E 0 90 4b 64
        E 0 90 50 64
        E 0 90 63 64
        E 0 90 68 64
        E 0 90 6c 65
        E 0 91 49 65
        E 0 91 4a 67
        E 0 91 61 65
        E 0 91 62 67
        E 120 80 0a 00
        E 0 80 4b 00
        E 0 80 63 00
        E 0 80 6c 00
        E 0 81 49 00
        E 0 81 4a 00
        E 0 81 61 00
        E 0 81 62 00
        E 120 90 4a 67
        E 0 90 62 67
        E 120 80 4a 00
        E 0 80 62 00
        E 120 90 31 65
        E 0 90 19 65
        E 0 90 49 65
        E 0 90 61 65
        E 120 80 31 00
        E 0 80 19 00
        E 0 80 49 00
        E 0 80 61 00
        E 120 90 4b 64
        E 0 90 63 64
        E 120 80 4b 00
        E 0 80 63 00
        E 120 90 4a 67
        E 0 90 62 67
        E 120 80 4a 00
        E 0 80 62 00
        E 120 90 31 65
        E 0 90 49 65
        E 0 90 61 65
        E 120 80 31 00
        E 0 80 49 00
        E 0 80 61 00
        E 120 90 4b 64
        E 0 90 63 64
        E 120 80 50 00
        E 0 80 68 00
        E 0 80 4b 00
        E 0 80 63 00
        E 120 90 74 64
        E 240 90 31 67
        E 0 90 0c 64
        E 0 90 19 67
        E 0 90 49 67
        E 0 90 50 64
        E 0 90 61 67
        E 0 90 68 64
        E 0 91 4a 66
        E 0 91 4c 65
        E 0 91 62 66
        E 0 91 64 65
        E 120 80 31 00
        E 0 80 0c 00
        E 0 80 19 00
        E 0 80 49 00
        E 0 80 61 00
        E 0 81 4a 00
        E 0 81 4c 00
        E 0 81 62 00
        E 0 81 64 00
        E 120 90 4a 66
        E 0 90 62 66
        E 120 80 4a 00
        E 0 80 62 00
        E 120 90 4c 65
        E 0 90 64 65
        E 120 80 4c 00
        E 0 80 64 00
        E 120 90 31 67
        E 0 90 49 67
        E 0 90 61 67
        E 120 80 31 00
        E 0 80 49 00
        E 0 80 61 00
        E 120 90 4a 66
        E 0 90 62 66
        E 120 80 4a 00
        E 0 80 62 00
        E 120 90 4b 66
        E 0 90 63 66
        E 120 80 4b 00
        E 0 80 63 00
        E 120 90 63 67
        E 0 90 66 64
        E 120 80 50 00
        E 0 80 68 00
        E 0 80 63 00
        E 0 80 66 00
        <X 120 0
          /wFbZW5kX3BnIHNvbmdfdHJhaW5lcl9wZ18xXQ==
        >
        E 0 80 74 00
        E 0 90 31 69
        E 0 90 0e 64
        E 0 90 19 69
        E 0 90 49 69
        E 0 90 50 64
        E 0 90 61 69
        E 0 90 68 64
        E 0 90 6c 66
        E 0 91 4a 67
        E 0 91 4b 66
        E 0 91 62 67
        E 0 91 63 66
        E 120 80 31 00
        E 0 80 0e 00
        E 0 80 19 00
        E 0 80 49 00
        E 0 80 61 00
        E 0 80 6c 00
        E 0 81 4a 00
        E 0 81 4b 00
        E 0 81 62 00
        E 0 81 63 00
        E 120 90 4b 66
        E 0 90 63 66
        E 120 80 4b 00
        E 0 80 63 00
        E 120 90 4a 67
        E 0 90 62 67
        E 120 80 4a 00
        E 0 80 62 00
        E 120 90 19 69
        E 0 90 31 69
        E 0 90 49 69
        E 0 90 61 69
        E 120 80 19 00
        E 0 80 31 00
        E 0 80 49 00
        E 0 80 61 00
        E 120 90 4b 66
        E 0 90 63 66
        E 120 80 4b 00
        E 0 80 63 00
        E 120 90 4a 67
        E 0 90 62 67
        E 120 80 4a 00
        E 0 80 62 00
        E 120 90 31 69
        E 0 90 49 69
        E 0 90 61 69
        E 120 80 31 00
        E 0 80 49 00
        E 0 80 61 00
        E 120 90 4b 66
        E 0 90 63 66
        E 120 80 50 00
        E 0 80 68 00
        E 0 80 4b 00
        E 0 80 63 00
        <X 360 0
          /wFbY2hyZDMgQm03PGd0cj5iNTwvZ3RyPl0=
        >
        <X 0 0
          /wFbY2hyZDIgQm03PGd0cj5iNTwvZ3RyPl0=
        >
        E 0 90 0b 69
        E 0 90 4b 66
        E 0 90 50 64
        E 0 90 63 66
        E 0 90 68 64
        E 0 91 49 66
        E 0 91 4a 67
        E 0 91 61 66
        E 0 91 62 67
        E 120 80 0b 00
        E 0 80 4b 00
        E 0 80 63 00
        E 0 81 49 00
        E 0 81 4a 00
        E 0 81 61 00
        E 0 81 62 00
        E 120 90 4a 67
        E 0 90 62 67
        E 120 80 4a 00
        E 0 80 62 00
        E 120 90 31 66
        E 0 90 19 66
        E 0 90 49 66
        E 0 90 61 66
        E 120 80 31 00
        E 0 80 19 00
        E 0 80 49 00
        E 0 80 61 00
        E 120 90 4b 66
        E 0 90 63 66
        E 120 80 4b 00
        E 0 80 63 00
        E 120 90 4a 67
        E 0 90 62 67
        E 120 80 4a 00
        E 0 80 62 00
        E 120 90 31 66
        E 0 90 49 66
        E 0 90 61 66
        E 120 80 31 00
        E 0 80 49 00
        E 0 80 61 00
        E 120 90 4b 66
        E 0 90 63 66
        E 120 80 50 00
        E 0 80 68 00
        E 0 80 4b 00
        E 0 80 63 00
        E 360 90 0a 64
        E 0 90 4b 64
        E 0 90 50 64
        E 0 90 63 64
        E 0 90 68 64
        E 0 90 6c 65
        E 0 91 49 65
        E 0 91 4a 67
        E 0 91 61 65
        E 0 91 62 67
        E 120 80 0a 00
        E 0 80 4b 00
        E 0 80 63 00
        E 0 80 6c 00
        E 0 81 49 00
        E 0 81 4a 00
        E 0 81 61 00
        E 0 81 62 00
        E 120 90 4a 67
        E 0 90 62 67
        E 120 80 4a 00
        E 0 80 62 00
        E 120 90 31 65
        E 0 90 19 65
        E 0 90 49 65
        E 0 90 61 65
        E 120 80 31 00
        E 0 80 19 00
        E 0 80 49 00
        E 0 80 61 00
        E 120 90 4b 64
        E 0 90 63 64
        E 120 80 4b 00
        E 0 80 63 00
        E 120 90 4a 67
        E 0 90 62 67
        E 120 80 4a 00
        E 0 80 62 00
        E 120 90 31 65
        E 0 90 49 65
        E 0 90 61 65
        E 120 80 31 00
        E 0 80 49 00
        E 0 80 61 00
        E 120 90 4b 64
        E 0 90 63 64
        E 120 80 50 00
        E 0 80 68 00
        E 0 80 4b 00
        E 0 80 63 00
        E 360 90 31 67
        E 0 90 0c 64
        E 0 90 19 67
        E 0 90 49 67
        E 0 90 50 64
        E 0 90 61 67
        E 0 90 68 64
        E 0 91 4a 66
        E 0 91 4c 65
        E 0 91 62 66
        E 0 91 64 65
        E 120 80 31 00
        E 0 80 0c 00
        E 0 80 19 00
        E 0 80 49 00
        E 0 80 61 00
        E 0 81 4a 00
        E 0 81 4c 00
        E 0 81 62 00
        E 0 81 64 00
        E 120 90 4a 66
        E 0 90 62 66
        E 120 80 4a 00
        E 0 80 62 00
        E 120 90 4c 65
        E 0 90 64 65
        E 120 80 4c 00
        E 0 80 64 00
        E 120 90 31 67
        E 0 90 49 67
        E 0 90 61 67
        E 120 80 31 00
        E 0 80 49 00
        E 0 80 61 00
        E 120 90 4a 66
        E 0 90 62 66
        E 120 80 4a 00
        E 0 80 62 00
        E 120 90 4b 66
        E 0 90 63 66
        E 120 80 4b 00
        E 0 80 63 00
        E 120 90 63 67
        E 0 90 66 64
        E 120 80 50 00
        E 0 80 68 00
        E 0 80 63 00
        E 0 80 66 00
        <X 120 0
          /wFbYmVnaW5fcGcgc29uZ190cmFpbmVyX3BnXzJd
        >
        E 0 90 31 69
        E 0 90 0e 64
        E 0 90 19 69
        E 0 90 49 69
        E 0 90 50 64
        E 0 90 61 69
        E 0 90 68 64
        E 0 90 6c 66
        E 0 90 74 64
        E 0 91 4a 67
        E 0 91 4b 66
        E 0 91 62 67
        E 0 91 63 66
        E 120 80 31 00
        E 0 80 0e 00
        E 0 80 19 00
        E 0 80 49 00
        E 0 80 61 00
        E 0 80 6c 00
        E 0 81 4a 00
        E 0 81 4b 00
        E 0 81 62 00
        E 0 81 63 00
        E 120 90 4a 67
        E 0 90 62 67
        E 120 80 4a 00
        E 0 80 62 00
        <X 120 0
          /wFbcGdfbm9ybSBzb25nX3RyYWluZXJfcGdfMl0=
        >
        E 0 90 4b 66
        E 0 90 63 66
        E 120 80 4b 00
        E 0 80 63 00
        E 120 90 31 69
        E 0 90 49 69
        E 0 90 61 69
        E 120 80 31 00
        E 0 80 49 00
        E 0 80 61 00
        E 120 90 4a 67
        E 0 90 62 67
        E 120 80 4a 00
        E 0 80 62 00
        E 120 90 4b 66
        E 0 90 63 66
        E 120 80 50 00
        E 0 80 68 00
        E 0 80 4b 00
        E 0 80 63 00
        E 120 90 0c 64
        E 0 90 19 67
        E 0 90 31 67
        E 0 90 49 67
        E 0 90 50 64
        E 0 90 61 67
        E 0 90 68 64
        E 0 91 4a 66
        E 0 91 4b 67
        E 0 91 62 66
        E 0 91 63 67
        E 120 80 0c 00
        E 0 80 19 00
        E 0 80 31 00
        E 0 80 49 00
        E 0 80 61 00
        E 0 81 4a 00
        E 0 81 4b 00
        E 0 81 62 00
        E 0 81 63 00
        E 120 90 4a 66
        E 0 90 62 66
        E 120 80 4a 00
        E 0 80 62 00
        E 120 90 4b 67
        E 0 90 63 67
        E 120 80 4b 00
        E 0 80 63 00
        E 120 90 31 67
        E 0 90 49 67
        E 0 90 61 67
        E 120 80 31 00
        E 0 80 49 00
        E 0 80 61 00
        E 120 90 4a 66
        E 0 90 62 66
        E 120 80 4a 00
        E 0 80 62 00
        E 120 90 63 67
        E 120 80 50 00
        E 0 80 68 00
        E 0 80 63 00
        E 120 80 74 00
        E 0 90 0a 64
        E 0 90 19 65
        E 0 90 31 65
        E 0 90 49 65
        E 0 90 50 64
        E 0 90 61 65
        E 0 90 68 64
        E 0 90 6c 65
        E 0 91 4a 67
        E 0 91 4b 69
        E 0 91 62 67
        E 0 91 63 69
        E 120 80 0a 00
        E 0 80 19 00
        E 0 80 31 00
        E 0 80 49 00
        E 0 80 61 00
        E 0 80 6c 00
        E 0 81 4a 00
        E 0 81 4b 00
        E 0 81 62 00
        E 0 81 63 00
        E 120 90 4a 67
        E 0 90 62 67
        E 120 80 4a 00
        E 0 80 62 00
        E 120 90 4b 69
        E 0 90 63 69
        E 120 80 50 00
        E 0 80 68 00
        E 0 80 4b 00
        E 0 80 63 00
        E 120 90 0a 64
        E 0 90 31 65
        E 0 90 49 65
        E 0 90 50 64
        E 0 90 61 65
        E 0 90 68 64
        E 0 91 4a 67
        E 0 91 4b 67
        E 0 91 62 67
        E 0 91 63 67
        E 120 80 0a 00
        E 0 80 31 00
        E 0 80 49 00
        E 0 80 61 00
        E 0 81 4a 00
        E 0 81 4b 00
        E 0 81 62 00
        E 0 81 63 00
        E 120 90 4a 67
        E 0 90 62 67
        E 120 80 4a 00
        E 0 80 62 00
        E 120 90 4b 67
        E 0 90 63 67
        E 120 80 50 00
        E 0 80 68 00
        E 0 80 4b 00
        E 0 80 63 00
        E 120 90 09 64
        E 0 90 19 64
        E 0 90 49 64
        E 0 90 50 64
        E 0 90 61 64
        E 0 90 68 64
        E 0 90 6c 66
        E 0 90 31 64
        E 0 91 4a 66
        E 0 91 62 66
        E 120 80 09 00
        E 0 80 19 00
        E 0 80 49 00
        E 0 80 61 00
        E 0 80 6c 00
        E 0 80 31 00
        E 0 81 4a 00
        E 0 81 62 00
        E 120 90 4a 66
        E 0 90 62 66
        E 120 80 50 00
        E 0 80 68 00
        E 0 80 4a 00
        E 0 80 62 00
        E 120 90 4b 67
        E 0 90 63 67
        E 120 80 4b 00
        E 0 80 63 00
        E 120 90 4b 66
        E 0 90 63 66
        E 120 80 4b 00
        E 0 80 63 00
        E 120 90 4b 64
        E 0 90 63 64
        E 120 80 4b 00
        E 0 80 63 00
        E 120 90 62 67
        <X 120 0
          /wFbZW5kX3BnIHNvbmdfdHJhaW5lcl9wZ18yXQ==
        >
        E 0 80 62 00
        E 120 90 0e 64
        E 0 90 19 69
        E 0 90 49 69
        E 0 90 50 64
        E 0 90 61 69
        E 0 90 68 64
        E 0 90 6c 66
        E 0 90 31 69
        E 0 91 4a 67
        E 0 91 4b 66
        E 0 91 62 67
        E 0 91 63 66
        E 120 80 0e 00
        E 0 80 19 00
        E 0 80 49 00
        E 0 80 61 00
        E 0 80 6c 00
        E 0 80 31 00
        E 0 81 4a 00
        E 0 81 4b 00
        E 0 81 62 00
        E 0 81 63 00
        E 120 90 4a 67
        E 0 90 62 67
        E 120 80 4a 00
        E 0 80 62 00
        E 120 90 4b 66
        E 0 90 63 66
        E 120 80 4b 00
        E 0 80 63 00
        E 120 90 49 69
        E 0 90 61 69
        E 0 90 31 69
        E 120 80 49 00
        E 0 80 61 00
        E 0 80 31 00
        E 120 90 4a 67
        E 0 90 62 67
        E 120 80 4a 00
        E 0 80 62 00
        E 120 90 4b 66
        E 0 90 63 66
        E 120 80 50 00
        E 0 80 68 00
        E 0 80 4b 00
        E 0 80 63 00
        E 120 90 0c 64
        E 0 90 19 67
        E 0 90 49 67
        E 0 90 50 64
        E 0 90 61 67
        E 0 90 68 64
        E 0 90 31 67
        E 0 91 4a 66
        E 0 91 4b 67
        E 0 91 62 66
        E 0 91 63 67
        E 120 80 0c 00
        E 0 80 19 00
        E 0 80 49 00
        E 0 80 61 00
        E 0 80 31 00
        E 0 81 4a 00
        E 0 81 4b 00
        E 0 81 62 00
        E 0 81 63 00
        E 120 90 4a 66
        E 0 90 62 66
        E 120 80 4a 00
        E 0 80 62 00
        E 120 90 4b 67
        E 0 90 63 67
        E 120 80 4b 00
        E 0 80 63 00
        E 120 90 49 67
        E 0 90 61 67
        E 0 90 31 67
        E 120 80 49 00
        E 0 80 61 00
        E 0 80 31 00
        E 120 90 4a 66
        E 0 90 62 66
        E 120 80 4a 00
        E 0 80 62 00
        E 120 90 4b 67
        E 0 90 63 67
        E 120 80 50 00
        E 0 80 68 00
        E 0 80 4b 00
        E 0 80 63 00
        E 120 90 0a 64
        E 0 90 19 65
        E 0 90 49 65
        E 0 90 50 64
        E 0 90 61 65
        E 0 90 68 64
        E 0 90 6c 65
        E 0 90 31 65
        E 0 91 4a 67
        E 0 91 4b 69
        E 0 91 62 67
        E 0 91 63 69
        E 120 80 0a 00
        E 0 80 19 00
        E 0 80 49 00
        E 0 80 61 00
        E 0 80 6c 00
        E 0 80 31 00
        E 0 81 4a 00
        E 0 81 4b 00
        E 0 81 62 00
        E 0 81 63 00
        E 120 90 4a 67
        E 0 90 62 67
        E 120 80 4a 00
        E 0 80 62 00
        E 120 90 4b 69
        E 0 90 63 69
        E 120 80 50 00
        E 0 80 68 00
        E 0 80 4b 00
        E 0 80 63 00
        E 120 90 0a 64
        E 0 90 49 65
        E 0 90 50 64
        E 0 90 61 65
        E 0 90 68 64
        E 0 90 31 65
        E 0 91 4a 67
        E 0 91 4b 67
        E 0 91 62 67
        E 0 91 63 67
        E 120 80 0a 00
        E 0 80 49 00
        E 0 80 61 00
        E 0 80 31 00
        E 0 81 4a 00
        E 0 81 4b 00
        E 0 81 62 00
        E 0 81 63 00
        E 120 90 4a 67
        E 0 90 62 67
        E 120 80 4a 00
        E 0 80 62 00
        E 120 90 4b 67
        E 0 90 63 67
        E 120 80 50 00
        E 0 80 68 00
        E 0 80 4b 00
        E 0 80 63 00
        E 120 90 09 64
        E 0 90 19 64
        E 0 90 49 64
        E 0 90 50 64
        E 0 90 61 64
        E 0 90 68 64
        E 0 90 6c 66
        E 0 90 74 64
        E 0 90 31 64
        E 0 91 4a 66
        E 0 91 62 66
        E 120 80 09 00
        E 0 80 19 00
        E 0 80 49 00
        E 0 80 61 00
        E 0 80 6c 00
        E 0 80 31 00
        E 0 81 4a 00
        E 0 81 62 00
        E 120 90 4a 66
        E 0 90 62 66
        E 120 80 50 00
        E 0 80 68 00
        E 0 80 4a 00
        E 0 80 62 00
        E 120 90 4b 67
        E 0 90 63 67
        E 0 90 33 67
        E 120 80 4b 00
        E 0 80 63 00
        E 0 80 33 00
        E 120 90 63 66
        E 120 80 63 00
        E 120 90 4c 67
        E 0 90 64 67
        E 0 90 34 67
        E 120 80 4c 00
        E 0 80 64 00
        E 0 80 34 00
        E 120 90 4c 69
        E 0 90 4e 64
        E 0 90 64 69
        E 0 90 66 64
        E 120 80 4c 00
        E 0 80 4e 00
        E 0 80 64 00
        E 0 80 66 00
        <X 120 0
          /wFbYmVnaW5fcGcgc29uZ190cmFpbmVyX3BnXzNd
        >
        E 0 80 74 00
        E 0 90 0e 64
        E 0 90 1a 64
        E 0 90 4a 64
        E 0 90 50 64
        E 0 90 62 64
        E 0 90 68 64
        E 0 90 6c 6a
        E 0 90 32 64
        E 0 91 4b 6b
        E 0 91 4c 6a
        E 0 91 4d 6c
        E 0 91 63 6b
        E 0 91 64 6a
        E 0 91 65 6c
        E 120 80 0e 00
        E 0 80 1a 00
        E 0 80 4a 00
        E 0 80 62 00
        E 0 80 6c 00
        E 0 80 32 00
        E 0 81 4b 00
        E 0 81 4c 00
        E 0 81 4d 00
        E 0 81 63 00
        E 0 81 64 00
        E 0 81 65 00
        E 120 90 63 6b
        E 120 80 63 00
        <X 120 0
          /wFbcGdfbm9ybSBzb25nX3RyYWluZXJfcGdfM10=
        >
        E 0 90 4c 6a
        E 0 90 64 6a
        E 120 80 4c 00
        E 0 80 64 00
        E 120 90 4d 6c
        E 0 90 65 6c
        E 0 90 35 6c
        E 120 80 4d 00
        E 0 80 65 00
        E 0 80 35 00
        E 120 90 4c 6a
        E 0 90 64 6a
        E 120 80 4c 00
        E 0 80 64 00
        E 120 90 4b 6b
        E 0 90 63 6b
        E 120 80 4b 00
        E 0 80 63 00
        E 120 90 1a 64
        E 0 90 4a 64
        E 0 90 62 64
        E 0 90 32 64
        E 120 80 1a 00
        E 0 80 4a 00
        E 0 80 62 00
        E 0 80 32 00
        E 120 90 63 6b
        E 120 80 63 00
        E 120 90 4c 6a
        E 0 90 64 6a
        E 120 80 4c 00
        E 0 80 64 00
        E 120 90 4d 6e
        E 0 90 65 6e
        E 120 80 4d 00
        E 0 80 65 00
        E 120 90 4d 6c
        E 0 90 4e 64
        E 0 90 65 6c
        E 0 90 66 64
        E 120 80 4d 00
        E 0 80 4e 00
        E 0 80 65 00
        E 0 80 66 00
        E 120 90 4c 6a
        E 0 90 64 6a
        E 120 80 50 00
        E 0 80 68 00
        E 0 80 4c 00
        E 0 80 64 00
        E 120 90 0a 64
        E 0 90 1a 6c
        E 0 90 32 6c
        E 0 90 4a 6c
        E 0 90 50 64
        E 0 90 62 6c
        E 0 90 68 64
        E 0 91 4b 6b
        E 0 91 4c 6a
        E 0 91 4d 6a
        E 0 91 63 6b
        E 0 91 64 6a
        E 0 91 65 6a
        E 120 80 0a 00
        E 0 80 1a 00
        E 0 80 32 00
        E 0 80 4a 00
        E 0 80 62 00
        E 0 81 4b 00
        E 0 81 4c 00
        E 0 81 4d 00
        E 0 81 63 00
        E 0 81 64 00
        E 0 81 65 00
        E 120 90 63 6b
        E 120 80 63 00
        E 120 90 4c 6a
        E 0 90 64 6a
        E 120 80 4c 00
        E 0 80 64 00
        E 120 90 35 6a
        E 0 90 4d 6a
        E 0 90 65 6a
        E 120 80 35 00
        E 0 80 4d 00
        E 0 80 65 00
        E 120 90 4c 6a
        E 0 90 64 6a
        E 120 80 4c 00
        E 0 80 64 00
        E 120 90 4b 6b
        E 0 90 63 6b
        E 120 80 50 00
        E 0 80 68 00
        E 0 80 4b 00
        E 0 80 63 00
        E 120 90 09 64
        E 0 90 1a 6b
        E 0 90 32 6b
        E 0 90 4a 6b
        E 0 90 50 64
        E 0 90 62 6b
        E 0 90 68 64
        E 0 91 4b 6a
        E 0 91 4c 6c
        E 0 91 63 6a
        E 0 91 64 6c
        E 120 80 09 00
        E 0 80 1a 00
        E 0 80 32 00
        E 0 80 4a 00
        E 0 80 62 00
        E 0 81 4b 00
        E 0 81 4c 00
        E 0 81 63 00
        E 0 81 64 00
        E 120 90 4b 6a
        E 0 90 63 6a
        E 120 80 4b 00
        E 0 80 63 00
        E 120 90 4c 6c
        E 0 90 64 6c
        E 120 80 50 00
        E 0 80 68 00
        E 0 80 4c 00
        E 0 80 64 00
        E 120 90 07 64
        E 0 90 32 69
        E 0 90 4a 69
        E 0 90 50 64
        E 0 90 62 69
        E 0 90 68 64
        E 0 90 6c 69
        E 0 91 4b 6b
        E 0 91 4c 6a
        E 0 91 63 6b
        E 0 91 64 6a
        E 120 80 07 00
        E 0 80 32 00
        E 0 80 4a 00
        E 0 80 62 00
        E 0 80 6c 00
        E 0 81 4b 00
        E 0 81 4c 00
        E 0 81 63 00
        E 0 81 64 00
        E 120 90 4b 6b
        E 0 90 63 6b
        E 120 80 4b 00
        E 0 80 63 00
        E 120 90 4c 6a
        E 0 90 64 6a
        E 120 80 50 00
        E 0 80 68 00
        E 0 80 4c 00
        E 0 80 64 00
        <X 120 0
          /wFbZW5kX3BnIHNvbmdfdHJhaW5lcl9wZ18zXQ==
        >
        E 0 90 32 64
        E 0 90 0e 64
        E 0 90 1a 64
        E 0 90 4a 64
        E 0 90 50 64
        E 0 90 62 64
        E 0 90 68 64
        E 0 90 6c 6a
        E 0 91 4b 6b
        E 0 91 4c 6a
        E 0 91 4d 6c
        E 0 91 63 6b
        E 0 91 64 6a
        E 0 91 65 6c
        E 120 80 32 00
        E 0 80 0e 00
        E 0 80 1a 00
        E 0 80 4a 00
        E 0 80 62 00
        E 0 80 6c 00
        E 0 81 4b 00
        E 0 81 4c 00
        E 0 81 4d 00
        E 0 81 63 00
        E 0 81 64 00
        E 0 81 65 00
        E 120 90 63 6b
        E 120 80 63 00
        E 120 90 4c 6a
        E 0 90 64 6a
        E 120 80 4c 00
        E 0 80 64 00
        E 120 90 35 6c
        E 0 90 4d 6c
        E 0 90 65 6c
        E 120 80 35 00
        E 0 80 4d 00
        E 0 80 65 00
        E 120 90 4c 6a
        E 0 90 64 6a
        E 120 80 4c 00
        E 0 80 64 00
        E 120 90 4b 6b
        E 0 90 63 6b
        E 120 80 4b 00
        E 0 80 63 00
        E 120 90 32 64
        E 0 90 1a 64
        E 0 90 4a 64
        E 0 90 62 64
        E 120 80 32 00
        E 0 80 1a 00
        E 0 80 4a 00
        E 0 80 62 00
        E 120 90 63 6b
        E 120 80 63 00
        E 120 90 4c 6a
        E 0 90 64 6a
        E 120 80 4c 00
        E 0 80 64 00
        E 120 90 4d 6e
        E 0 90 65 6e
        E 120 80 4d 00
        E 0 80 65 00
        E 120 90 4d 6c
        E 0 90 4e 64
        E 0 90 65 6c
        E 0 90 66 64
        E 120 80 4d 00
        E 0 80 4e 00
        E 0 80 65 00
        E 0 80 66 00
        E 120 90 4c 6a
        E 0 90 64 6a
        E 120 80 50 00
        E 0 80 68 00
        E 0 80 4c 00
        E 0 80 64 00
        E 120 90 32 6c
        E 0 90 0a 64
        E 0 90 1a 6c
        E 0 90 4a 6c
        E 0 90 50 64
        E 0 90 62 6c
        E 0 90 68 64
        E 0 91 4b 6b
        E 0 91 4c 6a
        E 0 91 4d 6a
        E 0 91 63 6b
        E 0 91 64 6a
        E 0 91 65 6a
        E 120 80 32 00
        E 0 80 0a 00
        E 0 80 1a 00
        E 0 80 4a 00
        E 0 80 62 00
        E 0 81 4b 00
        E 0 81 4c 00
        E 0 81 4d 00
        E 0 81 63 00
        E 0 81 64 00
        E 0 81 65 00
        E 120 90 63 6b
        E 120 80 63 00
        E 120 90 4c 6a
        E 0 90 64 6a
        E 120 80 4c 00
        E 0 80 64 00
        E 120 90 35 6a
        E 0 90 4d 6a
        E 0 90 65 6a
        E 120 80 35 00
        E 0 80 4d 00
        E 0 80 65 00
        E 120 90 4c 6a
        E 0 90 64 6a
        E 120 80 4c 00
        E 0 80 64 00
        E 120 90 4b 6b
        E 0 90 63 6b
        E 120 80 50 00
        E 0 80 68 00
        E 0 80 4b 00
        E 0 80 63 00
        E 120 90 32 6b
        E 0 90 09 64
        E 0 90 1a 6b
        E 0 90 4a 6b
        E 0 90 50 64
        E 0 90 62 6b
        E 0 90 68 64
        E 0 91 4b 6a
        E 0 91 4c 6c
        E 0 91 63 6a
        E 0 91 64 6c
        E 120 80 32 00
        E 0 80 09 00
        E 0 80 1a 00
        E 0 80 4a 00
        E 0 80 62 00
        E 0 81 4b 00
        E 0 81 4c 00
        E 0 81 63 00
        E 0 81 64 00
        E 120 90 4b 6a
        E 0 90 63 6a
        E 120 80 4b 00
        E 0 80 63 00
        E 120 90 4c 6c
        E 0 90 64 6c
        E 120 80 50 00
        E 0 80 68 00
        E 0 80 4c 00
        E 0 80 64 00
        E 120 90 32 69
        E 0 90 07 64
        E 0 90 4a 69
        E 0 90 50 64
        E 0 90 62 69
        E 0 90 68 64
        E 0 90 6c 69
        E 0 91 4b 6b
        E 0 91 4c 6a
        E 0 91 63 6b
        E 0 91 64 6a
        E 120 80 32 00
        E 0 80 07 00
        E 0 80 4a 00
        E 0 80 62 00
        E 0 80 6c 00
        E 0 81 4b 00
        E 0 81 4c 00
        E 0 81 63 00
        E 0 81 64 00
        E 120 90 4b 6b
        E 0 90 63 6b
        E 120 80 4b 00
        E 0 80 63 00
        E 120 90 4c 6a
        E 0 90 64 6a
        E 120 80 50 00
        E 0 80 68 00
        E 0 80 4c 00
        E 0 80 64 00
        <X 120 0
          /wFbYmVnaW5fcGcgc29uZ190cmFpbmVyX3BnXzRd
        >
        E 0 90 32 67
        E 0 90 05 64
        E 0 90 1a 67
        E 0 90 4a 67
        E 0 90 50 64
        E 0 90 62 67
        E 0 90 68 64
        E 0 90 6c 65
        E 0 91 4b 66
        E 0 91 4d 65
        E 0 91 63 66
        E 0 91 65 65
        E 120 80 32 00
        E 0 80 05 00
        E 0 80 1a 00
        E 0 80 4a 00
        E 0 80 62 00
        E 0 80 6c 00
        E 0 81 4b 00
        E 0 81 4d 00
        E 0 81 63 00
        E 0 81 65 00
        E 120 90 4a 67
        E 0 90 62 67
        E 120 80 4a 00
        E 0 80 62 00
        <X 120 0
          /wFbcGdfbm9ybSBzb25nX3RyYWluZXJfcGdfNF0=
        >
        E 0 90 33 66
        E 0 90 4b 66
        E 0 90 63 66
        E 120 80 33 00
        E 0 80 4b 00
        E 0 80 63 00
        E 120 90 4d 65
        E 0 90 65 65
        E 120 80 4d 00
        E 0 80 65 00
        E 120 90 4b 66
        E 0 90 63 66
        E 120 80 4b 00
        E 0 80 63 00
        E 120 90 62 67
        E 120 80 50 00
        E 0 80 68 00
        E 0 80 62 00
        E 120 90 32 66
        E 0 90 04 64
        E 0 90 1a 66
        E 0 90 4a 66
        E 0 90 50 64
        E 0 90 62 66
        E 0 90 68 64
        E 0 90 6c 66
        E 0 91 4b 64
        E 0 91 4d 64
        E 0 91 63 64
        E 0 91 65 64
        E 120 80 32 00
        E 0 80 04 00
        E 0 80 1a 00
        E 0 80 4a 00
        E 0 80 62 00
        E 0 80 6c 00
        E 0 81 4b 00
        E 0 81 4d 00
        E 0 81 63 00
        E 0 81 65 00
        E 120 90 4a 66
        E 0 90 62 66
        E 120 80 4a 00
        E 0 80 62 00
        E 120 90 4b 64
        E 0 90 63 64
        E 0 90 33 64
        E 120 80 4b 00
        E 0 80 63 00
        E 0 80 33 00
        E 120 90 4d 64
        E 0 90 65 64
        E 120 80 4d 00
        E 0 80 65 00
        E 120 90 4b 64
        E 0 90 63 64
        E 120 80 4b 00
        E 0 80 63 00
        E 120 90 62 66
        E 120 80 50 00
        E 0 80 68 00
        E 0 80 62 00
        E 120 90 31 69
        E 0 90 0e 64
        E 0 90 19 69
        E 0 90 49 69
        E 0 90 50 64
        E 0 90 61 69
        E 0 90 68 64
        E 0 90 6c 68
        E 0 90 74 64
        E 0 91 4a 68
        E 0 91 4b 69
        E 0 91 62 68
        E 0 91 63 69
        E 120 80 31 00
        E 0 80 0e 00
        E 0 80 19 00
        E 0 80 49 00
        E 0 80 61 00
        E 0 80 6c 00
        E 0 81 4a 00
        E 0 81 4b 00
        E 0 81 62 00
        E 0 81 63 00
        E 120 90 49 69
        E 0 90 61 69
        E 120 80 49 00
        E 0 80 61 00
        E 120 90 4a 68
        E 0 90 62 68
        E 0 90 32 68
        E 120 80 4a 00
        E 0 80 62 00
        E 0 80 32 00
        E 120 90 4b 69
        E 0 90 63 69
        E 120 80 4b 00
        E 0 80 63 00
        E 120 90 4a 68
        E 0 90 62 68
        E 120 80 4a 00
        E 0 80 62 00
        E 120 90 61 69
        E 120 80 50 00
        E 0 80 68 00
        E 0 80 61 00
        E 120 90 31 67
        E 0 90 0c 64
        E 0 90 19 67
        E 0 90 49 67
        E 0 90 50 64
        E 0 90 61 67
        E 0 90 68 64
        E 0 90 6c 66
        E 0 91 4a 66
        E 0 91 4b 64
        E 0 91 62 66
        E 0 91 63 64
        E 120 80 31 00
        E 0 80 0c 00
        E 0 80 19 00
        E 0 80 49 00
        E 0 80 61 00
        E 0 80 6c 00
        E 0 81 4a 00
        E 0 81 4b 00
        E 0 81 62 00
        E 0 81 63 00
        E 120 90 4a 66
        E 0 90 62 66
        E 120 80 4a 00
        E 0 80 62 00
        E 120 90 4b 64
        E 0 90 63 64
        E 120 80 4b 00
        E 0 80 63 00
        E 120 90 31 67
        E 0 90 49 67
        E 0 90 61 67
        E 120 80 31 00
        E 0 80 49 00
        E 0 80 61 00
        E 120 90 4a 66
        E 0 90 62 66
        E 120 80 4a 00
        E 0 80 62 00
        E 120 90 4b 64
        E 0 90 63 64
        E 120 80 50 00
        E 0 80 68 00
        E 0 80 4b 00
        E 0 80 63 00
        <X 120 0
          /wFbZW5kX3BnIHNvbmdfdHJhaW5lcl9wZ180XQ==
        >
        <X 0 0
          /wFbYmVnaW5fcGcgc29uZ190cmFpbmVyX3BnXzVd
        >
        E 0 80 74 00
        E 0 90 31 65
        E 0 90 0a 64
        E 0 90 19 65
        E 0 90 49 65
        E 0 90 50 64
        E 0 90 61 65
        E 0 90 68 64
        E 0 90 6c 65
        E 0 91 4a 67
        E 0 91 4b 66
        E 0 91 62 67
        E 0 91 63 66
        E 120 80 31 00
        E 0 80 0a 00
        E 0 80 19 00
        E 0 80 49 00
        E 0 80 61 00
        E 0 80 6c 00
        E 0 81 4a 00
        E 0 81 4b 00
        E 0 81 62 00
        E 0 81 63 00
        E 120 90 49 65
        E 0 90 61 65
        E 120 80 49 00
        E 0 80 61 00
        <X 120 0
          /wFbcGdfbm9ybSBzb25nX3RyYWluZXJfcGdfNV0=
        >
        E 0 90 4a 67
        E 0 90 62 67
        E 120 80 4a 00
        E 0 80 62 00
        E 120 90 33 66
        E 0 90 4b 66
        E 0 90 63 66
        E 120 80 33 00
        E 0 80 4b 00
        E 0 80 63 00
        E 120 90 4a 67
        E 0 90 62 67
        E 120 80 4a 00
        E 0 80 62 00
        E 120 90 61 65
        E 120 80 50 00
        E 0 80 68 00
        E 0 80 61 00
        E 120 90 31 67
        E 0 90 0c 64
        E 0 90 19 67
        E 0 90 49 67
        E 0 90 50 64
        E 0 90 61 67
        E 0 90 68 64
        E 0 90 6c 67
        E 0 91 4b 64
        E 0 91 4c 67
        E 0 91 63 64
        E 0 91 64 67
        E 120 80 31 00
        E 0 80 0c 00
        E 0 80 19 00
        E 0 80 49 00
        E 0 80 61 00
        E 0 80 6c 00
        E 0 81 4b 00
        E 0 81 4c 00
        E 0 81 63 00
        E 0 81 64 00
        E 120 90 49 67
        E 0 90 61 67
        E 120 80 49 00
        E 0 80 61 00
        E 120 90 4b 64
        E 0 90 63 64
        E 120 80 4b 00
        E 0 80 63 00
        E 120 90 34 67
        E 0 90 4c 67
        E 0 90 64 67
        E 120 80 34 00
        E 0 80 4c 00
        E 0 80 64 00
        E 120 90 4b 64
        E 0 90 63 64
        E 120 80 4b 00
        E 0 80 63 00
        E 120 90 61 67
        E 120 80 50 00
        E 0 80 68 00
        E 0 80 61 00
        E 120 90 32 64
        E 0 90 0e 64
        E 0 90 1a 64
        E 0 90 4a 64
        E 0 90 50 64
        E 0 90 62 64
        E 0 90 68 64
        E 0 90 6c 66
        E 0 91 4b 66
        E 0 91 4d 64
        E 0 91 63 66
        E 0 91 65 64
        E 120 80 32 00
        E 0 80 0e 00
        E 0 80 1a 00
        E 0 80 4a 00
        E 0 80 62 00
        E 0 80 6c 00
        E 0 81 4b 00
        E 0 81 4d 00
        E 0 81 63 00
        E 0 81 65 00
        E 120 90 4a 64
        E 0 90 62 64
        E 120 80 4a 00
        E 0 80 62 00
        E 120 90 4b 66
        E 0 90 63 66
        E 120 80 4b 00
        E 0 80 63 00
        E 120 90 35 64
        E 0 90 4d 64
        E 0 90 65 64
        E 120 80 35 00
        E 0 80 4d 00
        E 0 80 65 00
        E 120 90 4b 66
        E 0 90 63 66
        E 120 80 4b 00
        E 0 80 63 00
        E 120 90 62 64
        E 120 80 50 00
        E 0 80 68 00
        E 0 80 62 00
        E 120 90 32 67
        E 0 90 05 64
        E 0 90 1a 67
        E 0 90 4a 67
        E 0 90 50 64
        E 0 90 62 67
        E 0 90 68 64
        E 0 90 6c 65
        E 0 91 4b 66
        E 0 91 4d 65
        E 0 91 63 66
        E 0 91 65 65
        E 120 80 32 00
        E 0 80 05 00
        E 0 80 1a 00
        E 0 80 4a 00
        E 0 80 62 00
        E 0 80 6c 00
        E 0 81 4b 00
        E 0 81 4d 00
        E 0 81 63 00
        E 0 81 65 00
        E 120 90 4b 66
        E 0 90 63 66
        E 120 80 4b 00
        E 0 80 63 00
        E 120 90 4d 65
        E 0 90 65 65
        E 120 80 50 00
        E 0 80 68 00
        E 0 80 4d 00
        E 0 80 65 00
        E 120 90 0c 64
        E 0 90 10 64
        E 0 90 4a 66
        E 0 90 50 64
        E 0 90 62 66
        E 0 90 68 64
        E 0 90 32 66
        E 0 91 4b 64
        E 0 91 4c 65
        E 0 91 63 64
        E 0 91 64 65
        E 120 80 0c 00
        E 0 80 10 00
        E 0 80 4a 00
        E 0 80 62 00
        E 0 80 32 00
        E 0 81 4b 00
        E 0 81 4c 00
        E 0 81 63 00
        E 0 81 64 00
        E 120 90 4b 64
        E 0 90 63 64
        E 120 80 4b 00
        E 0 80 63 00
        E 120 90 4c 65
        E 0 90 64 65
        E 120 80 50 00
        E 0 80 68 00
        E 0 80 4c 00
        E 0 80 64 00
        <X 120 0
          /wFbZW5kX3BnIHNvbmdfdHJhaW5lcl9wZ181XQ==
        >
        E 0 90 31 65
        E 0 90 0a 64
        E 0 90 19 65
        E 0 90 49 65
        E 0 90 50 64
        E 0 90 61 65
        E 0 90 68 64
        E 0 91 4a 67
        E 0 91 4b 66
        E 0 91 62 67
        E 0 91 63 66
        E 120 80 31 00
        E 0 80 0a 00
        E 0 80 19 00
        E 0 80 49 00
        E 0 80 61 00
        E 0 81 4a 00
        E 0 81 4b 00
        E 0 81 62 00
        E 0 81 63 00
        E 120 90 49 65
        E 0 90 61 65
        E 120 80 49 00
        E 0 80 61 00
        E 120 90 4a 67
        E 0 90 62 67
        E 120 80 4a 00
        E 0 80 62 00
        E 120 90 4b 66
        E 0 90 63 66
        E 0 90 33 66
        E 120 80 4b 00
        E 0 80 63 00
        E 0 80 33 00
        E 120 90 4a 67
        E 0 90 62 67
        E 120 80 4a 00
        E 0 80 62 00
        E 120 90 61 65
        E 120 80 50 00
        E 0 80 68 00
        E 0 80 61 00
        E 120 90 0c 64
        E 0 90 19 67
        E 0 90 31 67
        E 0 90 49 67
        E 0 90 50 64
        E 0 90 61 67
        E 0 90 68 64
        E 0 90 6c 67
        E 0 91 4b 64
        E 0 91 4c 67
        E 0 91 63 64
        E 0 91 64 67
        E 120 80 0c 00
        E 0 80 19 00
        E 0 80 31 00
        E 0 80 49 00
        E 0 80 61 00
        E 0 80 6c 00
        E 0 81 4b 00
        E 0 81 4c 00
        E 0 81 63 00
        E 0 81 64 00
        E 120 90 49 67
        E 0 90 61 67
        E 120 80 49 00
        E 0 80 61 00
        E 120 90 4b 64
        E 0 90 63 64
        E 120 80 4b 00
        E 0 80 63 00
        E 120 90 4c 67
        E 0 90 64 67
        E 0 90 34 67
        E 120 80 4c 00
        E 0 80 64 00
        E 0 80 34 00
        E 120 90 4b 64
        E 0 90 63 64
        E 120 80 4b 00
        E 0 80 63 00
        E 120 90 61 67
        E 120 80 50 00
        E 0 80 68 00
        E 0 80 61 00
        E 120 90 0e 64
        E 0 90 1a 64
        E 0 90 4a 64
        E 0 90 50 64
        E 0 90 62 64
        E 0 90 68 64
        E 0 90 6c 66
        E 0 90 32 64
        E 0 91 4b 66
        E 0 91 4d 64
        E 0 91 63 66
        E 0 91 65 64
        E 120 80 0e 00
        E 0 80 1a 00
        E 0 80 4a 00
        E 0 80 62 00
        E 0 80 6c 00
        E 0 80 32 00
        E 0 81 4b 00
        E 0 81 4d 00
        E 0 81 63 00
        E 0 81 65 00
        E 120 90 4a 64
        E 0 90 62 64
        E 120 80 4a 00
        E 0 80 62 00
        E 120 90 4b 66
        E 0 90 63 66
        E 120 80 4b 00
        E 0 80 63 00
        E 120 90 4d 64
        E 0 90 65 64
        E 0 90 35 64
        E 120 80 4d 00
        E 0 80 65 00
        E 0 80 35 00
        E 120 90 4b 66
        E 0 90 63 66
        E 120 80 4b 00
        E 0 80 63 00
        E 120 90 62 64
        E 120 80 50 00
        E 0 80 68 00
        E 0 80 62 00
        E 120 90 05 64
        E 0 90 1a 67
        E 0 90 4a 67
        E 0 90 50 64
        E 0 90 62 67
        E 0 90 68 64
        E 0 90 6c 65
        E 0 90 32 67
        E 0 91 4b 66
        E 0 91 4d 65
        E 0 91 63 66
        E 0 91 65 65
        E 120 80 05 00
        E 0 80 1a 00
        E 0 80 4a 00
        E 0 80 62 00
        E 0 80 6c 00
        E 0 80 32 00
        E 0 81 4b 00
        E 0 81 4d 00
        E 0 81 63 00
        E 0 81 65 00
        E 120 90 4b 66
        E 0 90 63 66
        E 120 80 4b 00
        E 0 80 63 00
        E 120 90 4d 65
        E 0 90 65 65
        E 120 80 50 00
        E 0 80 68 00
        E 0 80 4d 00
        E 0 80 65 00
        E 120 90 0c 64
        E 0 90 10 64
        E 0 90 1a 66
        E 0 90 4a 66
        E 0 90 50 64
        E 0 90 62 66
        E 0 90 68 64
        E 0 90 32 66
        E 0 91 4b 64
        E 0 91 4c 65
        E 0 91 63 64
        E 0 91 64 65
        E 120 80 0c 00
        E 0 80 10 00
        E 0 80 1a 00
        E 0 80 4a 00
        E 0 80 62 00
        E 0 80 32 00
        E 0 81 4b 00
        E 0 81 4c 00
        E 0 81 63 00
        E 0 81 64 00
        E 120 90 4b 64
        E 0 90 63 64
        E 120 80 4b 00
        E 0 80 63 00
        E 120 90 4c 65
        E 0 90 64 65
        E 120 80 50 00
        E 0 80 68 00
        E 0 80 4c 00
        E 0 80 64 00
        E 120 90 0a 64
        E 0 90 31 65
        E 0 90 32 67
        E 0 90 3a 64
        E 0 90 49 65
        E 0 90 4a 67
        E 0 90 4b 67
        E 0 90 4c 65
        E 0 90 52 64
        E 0 90 61 65
        E 0 90 62 67
        E 0 90 63 67
        E 0 90 64 65
        E 0 90 65 65
        E 0 90 6a 64
        E 0 90 19 65
        E 120 80 0a 00
        E 2759 80 31 00
        E 0 80 32 00
        E 0 80 61 00
        E 0 80 62 00
        E 0 80 63 00
        E 0 80 64 00
        E 0 80 65 00
        E 0 80 3a 00
        E 0 80 49 00
        E 0 80 4a 00
        E 0 80 4b 00
        E 0 80 4c 00
        E 0 80 52 00
        E 0 80 6a 00
        E 0 80 19 00
        E 1440 b0 7b 00
        GUID {408A354A-AAEB-4FFB-AD05-299847C283AF}
        IGNTEMPO 0 120.00000000 4 4
        SRCCOLOR 5
        VELLANE 132 128 60
        COLORMAP "C:\Program Files\REAPER (x64)\Data\color_maps\rockband_guitarbass.png"
      >
    >
  >
  <TRACK '{73FDF93A-D5CA-4D4A-B802-41EF9247C6D6}'
    NAME "VENUE"
    PEAKCOL 16576
    BEAT -1
    AUTOMODE 0
    VOLPAN 1.00000000000000 0.00000000000000 -1.00000000000000 -1.00000000000000 1.00000000000000
    MUTESOLO 0 0 0
    IPHASE 0
    ISBUS 1 1
    BUSCOMP 1 0
    SHOWINMIX 1 0.666700 0.500000 1 0.500000 -1 -1 -1
    FREEMODE 0
    SEL 0
    REC 0 0 0 0 0 0 0
    VU 2
    TRACKHEIGHT 0 0
    INQ 0 0 0 0.5000000000 100 0 0 100
    NCHAN 2
    FX 1
    TRACKID {73FDF93A-D5CA-4D4A-B802-41EF9247C6D6}
    PERF 0
    MIDIOUT -1
    MAINSEND 1 0
    <ITEM
      POSITION 0.00000000000000
      SNAPOFFS 0.00000000000000
      LENGTH 67.30100000000000
      LOOP 0
      ALLTAKES 0
      SEL 0
      FADEIN 1 0.000000 0.000000 1 0
      FADEOUT 1 0.000000 0.000000 1 0
      MUTE 0
      IGUID {F048A93B-9ECC-4FCA-8D54-FE6E3F107E8C}
      IID 3
      NAME "VENUE"
      VOLPAN 1.000000 0.000000 1.000000 -1.000000
      SOFFS 0.00000000000000 0.00000000000000
      PLAYRATE 1.00000000000000 1 0.00000000000000 -1
      CHANMODE 0
      GUID {868A1137-C6A9-430D-B286-B85618A39CD2}
      <SOURCE MIDI
        HASDATA 1 480 QN
        POOLEDEVTS {A89FE65E-CB71-4D87-8561-D87437B2004D}
        <X 0 0
          /wNWRU5VRQ==
        >
        <X 0 0
          /wFbY29vcF9hbGxfZmFyXQ==
        >
        <X 0 0
          /wFbbGlnaHRpbmcgKGJsYWNrb3V0X2Zhc3QpXQ==
        >
        <X 0 0
          /wFbY29udHJhc3RfYS5wcF0=
        >
        E 3600 90 27 60
        <X 240 0
          /wFbY29vcF9nX25lYXJd
        >
        <X 2160 0
          /wFbY29vcF9nX25lYXJd
        >
        <X 1920 0
          /wFbY29vcF9nX25lYXJd
        >
        <X 1920 0
          /wFbY29vcF9nX25lYXJd
        >
        <X 1680 0
          /wFbY29vcF9nX2Nsb3NldXBfaGFuZF0=
        >
        <X 2160 0
          /wFbY29vcF9nX2JlaGluZF0=
        >
        <X 3600 0
          /wFbY29vcF9nX25lYXJd
        >
        <X 1920 0
          /wFbY29vcF9nX25lYXJd
        >
        <X 1440 0
          /wFbY29vcF9nX25lYXJd
        >
        <X 1440 0
          /wFbY29vcF9nX2Nsb3NldXBfaGVhZF0=
        >
        <X 1440 0
          /wFbY29vcF9nX25lYXJd
        >
        <X 1440 0
          /wFbY29vcF9nX25lYXJd
        >
        <X 2880 0
          /wFbY29vcF9hbGxfZmFyXQ==
        >
        <X 2880 0
          /wFbY29vcF9nX2Nsb3NldXBfaGFuZF0=
        >
        <X 2880 0
          /wFbY29vcF9nX2Nsb3NldXBfaGVhZF0=
        >
        <X 1440 0
          /wFbY29vcF9nX25lYXJd
        >
        <X 1440 0
          /wFbY29vcF9mcm9udF9iZWhpbmRd
        >
        <X 2880 0
          /wFbZGlyZWN0ZWRfZ3VpdGFyX2Nsc10=
        >
        <X 120 0
          /wFbZGlyZWN0ZWRfZ3VpdGFyX2Nsc10=
        >
        <X 2760 0
          /wFbY29vcF9nX2Nsb3NldXBfaGFuZF0=
        >
        <X 1440 0
          /wFbY29vcF9nX25lYXJd
        >
        <X 1440 0
          /wFbY29vcF9nX2JlaGluZF0=
        >
        <X 1440 0
          /wFbY29vcF9hbGxfZmFyXQ==
        >
        <X 2880 0
          /wFbY29vcF9nX25lYXJd
        >
        <X 1440 0
          /wFbY29vcF9nX25lYXJd
        >
        <X 1440 0
          /wFbY29vcF9nX2Nsb3NldXBfaGFuZF0=
        >
        <X 1440 0
          /wFbY29vcF9nX25lYXJd
        >
        <X 2880 0
          /wFbZGlyZWN0ZWRfZ3VpdGFyX2Nsc10=
        >
        <X 120 0
          /wFbZGlyZWN0ZWRfZ3VpdGFyX2Nsc10=
        >
        <X 2760 0
          /wFbY29vcF9hbGxfZmFyXQ==
        >
        E 2879 80 27 00
        E 1440 b0 7b 00
        GUID {33FB96A8-FF8A-41AC-AB0F-57D80596E87C}
        IGNTEMPO 0 120.00000000 4 4
        SRCCOLOR 6
        VELLANE 132 128 60
        COLORMAP "C:\Program Files\REAPER (x64)\Data\color_maps\rockband_guitarbass.png"
      >
    >
  >
  <TRACK '{1C9093AE-1806-423A-8699-04E222A631F4}'
    NAME "CAMERA"
    PEAKCOL 16576
    BEAT -1
    AUTOMODE 0
    VOLPAN 1.00000000000000 0.00000000000000 -1.00000000000000 -1.00000000000000 1.00000000000000
    MUTESOLO 1 0 0
    IPHASE 0
    ISBUS 0 0
    BUSCOMP 0 0
    SHOWINMIX 1 0.666700 0.500000 1 0.500000 -1 -1 -1
    FREEMODE 0
    SEL 0
    REC 0 0 0 0 0 0 0
    VU 2
    TRACKHEIGHT 0 1
    INQ 0 0 0 0.5000000000 100 0 0 100
    NCHAN 2
    FX 1
    TRACKID {1C9093AE-1806-423A-8699-04E222A631F4}
    PERF 0
    MIDIOUT -1
    MAINSEND 1 0
    <ITEM
      POSITION 0.00000000000000
      SNAPOFFS 0.00000000000000
      LENGTH 67.30106100000002
      LOOP 0
      ALLTAKES 0
      SEL 0
      FADEIN 1 0.000000 0.000000 1 0
      FADEOUT 1 0.000000 0.000000 1 0
      MUTE 0
      IGUID {191FE0A6-AE1F-4796-9162-924B95000F2C}
      IID 8
      NAME "CAMERA"
      VOLPAN 1.000000 0.000000 1.000000 -1.000000
      SOFFS 0.00000000000000 0.00000000000000
      PLAYRATE 1.00000000000000 1 0.00000000000000 -1
      CHANMODE 0
      GUID {9BA02534-332E-40C3-8FE5-E9815E83C293}
      <SOURCE MIDI
        HASDATA 1 480 QN
        POOLEDEVTS {B9560711-2DBB-4F6B-B09A-4FF81FA9B20A}
        E 0 90 63 40
        E 60 80 63 00
        E 3780 90 56 40
        E 60 80 56 00
        E 2100 90 56 40
        E 60 80 56 00
        E 1860 90 56 40
        E 60 80 56 00
        E 1860 90 56 40
        E 60 80 56 00
        E 1620 90 4d 40
        E 60 80 4d 00
        E 2100 90 57 40
        E 60 80 57 00
        E 3540 90 56 40
        E 60 80 56 00
        E 1860 90 56 40
        E 60 80 56 00
        E 1380 90 56 40
        E 60 80 56 00
        E 1380 90 4c 40
        E 60 80 4c 00
        E 1380 90 56 40
        E 60 80 56 00
        E 1380 90 56 40
        E 60 80 56 00
        E 2820 90 63 40
        E 60 80 63 00
        E 2820 90 4d 40
        E 60 80 4d 00
        E 2820 90 4c 40
        E 60 80 4c 00
        E 1380 90 56 40
        E 60 80 56 00
        E 1380 90 60 40
        E 60 80 60 00
        E 2820 90 18 40
        E 120 80 18 00
        E 2760 90 4d 40
        E 60 80 4d 00
        E 1380 90 56 40
        E 60 80 56 00
        E 1380 90 57 40
        E 60 80 57 00
        E 1380 90 63 40
        E 60 80 63 00
        E 2820 90 56 40
        E 60 80 56 00
        E 1380 90 56 40
        E 60 80 56 00
        E 1380 90 4d 40
        E 60 80 4d 00
        E 1380 90 56 40
        E 60 80 56 00
        E 2820 90 18 40
        E 120 80 18 00
        E 2760 90 63 40
        E 60 80 63 00
        GUID {96FCDB06-E871-4409-B6D3-DD1D57CE7335}
        IGNTEMPO 0 120.00000000 4 4
        SRCCOLOR 9
        VELLANE 132 128 60
        COLORMAP "C:\Program Files\REAPER (x64)\Data\color_maps\rockband_guitarbass.png"
      >
    >
  >
  <TRACK '{FF19D981-653D-4C98-BD30-E4B98C5D2C78}'
    NAME "LIGHTING"
    PEAKCOL 16576
    BEAT -1
    AUTOMODE 0
    VOLPAN 1.00000000000000 0.00000000000000 -1.00000000000000 -1.00000000000000 1.00000000000000
    MUTESOLO 1 0 0
    IPHASE 0
    ISBUS 2 -1
    BUSCOMP 0 0
    SHOWINMIX 1 0.666700 0.500000 1 0.500000 -1 -1 -1
    FREEMODE 0
    SEL 0
    REC 0 0 0 0 0 0 0
    VU 2
    TRACKHEIGHT 0 1
    INQ 0 0 0 0.5000000000 100 0 0 100
    NCHAN 2
    FX 1
    TRACKID {FF19D981-653D-4C98-BD30-E4B98C5D2C78}
    PERF 0
    MIDIOUT -1
    MAINSEND 1 0
    <ITEM
      POSITION 0.00000000000000
      SNAPOFFS 0.00000000000000
      LENGTH 67.30106100000002
      LOOP 0
      ALLTAKES 0
      SEL 0
      FADEIN 1 0.000000 0.000000 1 0
      FADEOUT 1 0.000000 0.000000 1 0
      MUTE 0
      IGUID {47F8C7B1-F7AF-4F73-9B93-BB8B543A0C62}
      IID 8
      NAME "LIGHTING"
      VOLPAN 1.000000 0.000000 1.000000 -1.000000
      SOFFS 0.00000000000000 0.00000000000000
      PLAYRATE 1.00000000000000 1 0.00000000000000 -1
      CHANMODE 0
      GUID {7CFD60B2-D8BF-4CDA-96E3-A410DDBC2856}
      <SOURCE MIDI
        HASDATA 1 480 QN
        POOLEDEVTS {5A3449C6-1A43-4902-BDAE-CBC2E010408D}
        E 0 90 3d 40
        E 0 90 11 40
        GUID {D384761C-8D41-4267-98F1-1586BAD6F228}
        IGNTEMPO 0 120.00000000 4 4
        SRCCOLOR 10
        VELLANE 132 128 60
        COLORMAP "C:\Program Files\REAPER (x64)\Data\color_maps\rockband_guitarbass.png"
      >
    >
  >
  <TRACK '{51961284-B96C-4A25-8FA0-D852F432D29C}'
    NAME "EVENTS"
    PEAKCOL 16576
    BEAT -1
    AUTOMODE 0
    VOLPAN 1.00000000000000 0.00000000000000 -1.00000000000000 -1.00000000000000 1.00000000000000
    MUTESOLO 0 0 0
    IPHASE 0
    ISBUS 0 0
    BUSCOMP 0 0
    SHOWINMIX 1 0.666700 0.500000 1 0.500000 -1 -1 -1
    FREEMODE 0
    SEL 0
    REC 0 0 0 0 0 0 0
    VU 2
    TRACKHEIGHT 0 0
    INQ 0 0 0 0.5000000000 100 0 0 100
    NCHAN 2
    FX 1
    TRACKID {51961284-B96C-4A25-8FA0-D852F432D29C}
    PERF 0
    MIDIOUT -1
    MAINSEND 1 0
    <ITEM
      POSITION 0.00000000000000
      SNAPOFFS 0.00000000000000
      LENGTH 67.30100000000000
      LOOP 0
      ALLTAKES 0
      SEL 0
      FADEIN 1 0.000000 0.000000 1 0
      FADEOUT 1 0.000000 0.000000 1 0
      MUTE 0
      IGUID {A642F654-F1ED-43E9-B506-777A504D77AF}
      IID 4
      NAME "EVENTS"
      VOLPAN 1.000000 0.000000 1.000000 -1.000000
      SOFFS 0.00000000000000 0.00000000000000
      PLAYRATE 1.00000000000000 1 0.00000000000000 -1
      CHANMODE 0
      GUID {023D08BF-FB48-419C-973A-F14E6C9DF693}
      <SOURCE MIDI
        HASDATA 1 480 QN
        POOLEDEVTS {4D0A3056-ED68-4B22-930E-3EA08C8D0716}
        <X 0 0
          /wNFVkVOVFM=
        >
        <X 0 0
          /wFbY3Jvd2Rfbm9jbGFwXQ==
        >
        <X 0 0
          /wFbY3Jvd2RfbWVsbG93XQ==
        >
        E 0 90 1a 60
        E 120 80 1a 00
        E 840 90 1a 60
        E 120 80 1a 00
        E 840 90 1a 60
        E 120 80 1a 00
        E 360 90 1a 60
        E 120 80 1a 00
        E 360 90 1a 60
        E 120 80 1a 00
        E 360 90 1a 60
        E 120 80 1a 00
        <X 360 0
          /wFbcHJjX21lbG9keV8xXQ==
        >
        <X 0 0
          /wFbbXVzaWNfc3RhcnRd
        >
        E 0 90 1a 60
        E 120 80 1a 00
        E 360 90 1a 60
        E 120 80 1a 00
        E 360 90 1a 60
        E 120 80 1a 00
        E 360 90 1a 60
        E 120 80 1a 00
        E 360 90 1a 60
        E 120 80 1a 00
        E 360 90 1a 60
        E 120 80 1a 00
        E 360 90 1a 60
        E 120 80 1a 00
        E 360 90 1a 60
        E 120 80 1a 00
        E 360 90 1a 60
        E 120 80 1a 00
        E 360 90 1a 60
        E 120 80 1a 00
        E 360 90 1a 60
        E 120 80 1a 00
        E 360 90 1a 60
        E 120 80 1a 00
        E 360 90 1a 60
        E 120 80 1a 00
        E 360 90 1a 60
        E 120 80 1a 00
        E 360 90 1a 60
        E 120 80 1a 00
        E 360 90 1a 60
        E 120 80 1a 00
        E 360 90 1a 60
        E 120 80 1a 00
        E 360 90 1a 60
        E 120 80 1a 00
        E 360 90 1a 60
        E 120 80 1a 00
        E 360 90 1a 60
        E 120 80 1a 00
        E 360 90 1a 60
        E 120 80 1a 00
        E 360 90 1a 60
        E 120 80 1a 00
        E 360 90 1a 60
        E 120 80 1a 00
        E 360 90 1a 60
        E 120 80 1a 00
        E 360 90 1a 60
        E 120 80 1a 00
        E 360 90 1a 60
        E 120 80 1a 00
        E 360 90 1a 60
        E 120 80 1a 00
        E 360 90 1a 60
        E 120 80 1a 00
        E 360 90 1a 60
        E 120 80 1a 00
        E 360 90 1a 60
        E 120 80 1a 00
        E 360 90 1a 60
        E 120 80 1a 00
        E 360 90 1a 60
        E 120 80 1a 00
        <X 360 0
          /wFbcHJjX21lbG9keV8yXQ==
        >
        E 0 90 1a 60
        E 120 80 1a 00
        E 360 90 1a 60
        E 120 80 1a 00
        E 360 90 1a 60
        E 120 80 1a 00
        E 360 90 1a 60
        E 120 80 1a 00
        E 360 90 1a 60
        E 120 80 1a 00
        E 360 90 1a 60
        E 120 80 1a 00
        E 360 90 1a 60
        E 120 80 1a 00
        E 360 90 1a 60
        E 120 80 1a 00
        E 360 90 1a 60
        E 120 80 1a 00
        E 360 90 1a 60
        E 120 80 1a 00
        E 360 90 1a 60
        E 120 80 1a 00
        E 360 90 1a 60
        E 120 80 1a 00
        E 360 90 1a 60
        E 120 80 1a 00
        E 360 90 1a 60
        E 120 80 1a 00
        E 360 90 1a 60
        E 120 80 1a 00
        E 360 90 1a 60
        E 120 80 1a 00
        E 360 90 1a 60
        E 120 80 1a 00
        E 360 90 1a 60
        E 120 80 1a 00
        E 360 90 1a 60
        E 120 80 1a 00
        E 360 90 1a 60
        E 120 80 1a 00
        E 360 90 1a 60
        E 120 80 1a 00
        E 360 90 1a 60
        E 120 80 1a 00
        E 360 90 1a 60
        E 120 80 1a 00
        E 360 90 1a 60
        E 120 80 1a 00
        <X 360 0
          /wFbcHJjX21lbG9keV8zXQ==
        >
        E 0 90 1a 60
        E 120 80 1a 00
        E 360 90 1a 60
        E 120 80 1a 00
        E 360 90 1a 60
        E 120 80 1a 00
        E 360 90 1a 60
        E 120 80 1a 00
        E 360 90 1a 60
        E 120 80 1a 00
        E 360 90 1a 60
        E 120 80 1a 00
        E 360 90 1a 60
        E 120 80 1a 00
        E 360 90 1a 60
        E 120 80 1a 00
        E 360 90 1a 60
        E 120 80 1a 00
        E 360 90 1a 60
        E 120 80 1a 00
        E 360 90 1a 60
        E 120 80 1a 00
        E 360 90 1a 60
        E 120 80 1a 00
        E 360 90 1a 60
        E 120 80 1a 00
        E 360 90 1a 60
        E 120 80 1a 00
        E 360 90 1a 60
        E 120 80 1a 00
        E 360 90 1a 60
        E 120 80 1a 00
        E 360 90 1a 60
        E 120 80 1a 00
        E 360 90 1a 60
        E 120 80 1a 00
        E 360 90 1a 60
        E 120 80 1a 00
        E 360 90 1a 60
        E 120 80 1a 00
        E 360 90 1a 60
        E 120 80 1a 00
        E 360 90 1a 60
        E 120 80 1a 00
        E 360 90 1a 60
        E 120 80 1a 00
        E 360 90 1a 60
        E 120 80 1a 00
        <X 360 0
          /wFbcHJjX21lbG9keV80XQ==
        >
        E 0 90 1a 60
        E 120 80 1a 00
        E 360 90 1a 60
        E 120 80 1a 00
        E 360 90 1a 60
        E 120 80 1a 00
        E 360 90 1a 60
        E 120 80 1a 00
        E 360 90 1a 60
        E 120 80 1a 00
        E 360 90 1a 60
        E 120 80 1a 00
        E 360 90 1a 60
        E 120 80 1a 00
        E 360 90 1a 60
        E 120 80 1a 00
        E 360 90 1a 60
        E 120 80 1a 00
        E 360 90 1a 60
        E 120 80 1a 00
        E 360 90 1a 60
        E 120 80 1a 00
        E 360 90 1a 60
        E 120 80 1a 00
        E 360 90 1a 60
        E 120 80 1a 00
        E 360 90 1a 60
        E 120 80 1a 00
        E 360 90 1a 60
        E 120 80 1a 00
        E 360 90 1a 60
        E 120 80 1a 00
        E 360 90 1a 60
        E 120 80 1a 00
        E 360 90 1a 60
        E 120 80 1a 00
        E 360 90 1a 60
        E 120 80 1a 00
        E 360 90 1a 60
        E 120 80 1a 00
        E 360 90 1a 60
        E 120 80 1a 00
        E 360 90 1a 60
        E 120 80 1a 00
        E 360 90 1a 60
        E 120 80 1a 00
        E 360 90 1a 60
        E 120 80 1a 00
        <X 360 0
          /wFbcHJjX291dHJvXQ==
        >
        E 0 90 1a 60
        E 120 80 1a 00
        E 360 90 1a 60
        E 120 80 1a 00
        E 360 90 1a 60
        E 120 80 1a 00
        E 360 90 1a 60
        E 120 80 1a 00
        E 360 90 1a 60
        E 120 80 1a 00
        E 360 90 1a 60
        E 120 80 1a 00
        E 360 90 1a 60
        E 120 80 1a 00
        E 360 90 1a 60
        E 120 80 1a 00
        E 360 90 1a 60
        E 120 80 1a 00
        E 360 90 1a 60
        E 120 80 1a 00
        E 360 90 1a 60
        E 120 80 1a 00
        E 360 90 1a 60
        E 120 80 1a 00
        E 360 90 1a 60
        E 120 80 1a 00
        <X 360 0
          /wFbbXVzaWNfZW5kXQ==
        >
        <X 3835 0
          /wFbZW5kXQ==
        >
        E 5 b0 7b 00
        GUID {3183A392-3DA0-4306-9418-7026DCA616AE}
        IGNTEMPO 0 120.00000000 4 4
        SRCCOLOR 7
        VELLANE 132 128 60
        COLORMAP "C:\Program Files\REAPER (x64)\Data\color_maps\rockband_guitarbass.png"
      >
    >
  >
  <TRACK '{CF0C768C-19E8-4C28-9305-4E60CBAA17BE}'
    NAME "BEAT"
    PEAKCOL 16576
    BEAT -1
    AUTOMODE 0
    VOLPAN 1.00000000000000 0.00000000000000 -1.00000000000000 -1.00000000000000 1.00000000000000
    MUTESOLO 0 0 0
    IPHASE 0
    ISBUS 0 0
    BUSCOMP 0 0
    SHOWINMIX 1 0.666700 0.500000 1 0.500000 -1 -1 -1
    FREEMODE 0
    SEL 0
    REC 0 0 0 0 0 0 0
    VU 2
    TRACKHEIGHT 0 0
    INQ 0 0 0 0.5000000000 100 0 0 100
    NCHAN 2
    FX 1
    TRACKID {CF0C768C-19E8-4C28-9305-4E60CBAA17BE}
    PERF 0
    MIDIOUT -1
    MAINSEND 1 0
    <ITEM
      POSITION 0.00000000000000
      SNAPOFFS 0.00000000000000
      LENGTH 67.30100000000000
      LOOP 0
      ALLTAKES 0
      SEL 0
      FADEIN 1 0.000000 0.000000 1 0
      FADEOUT 1 0.000000 0.000000 1 0
      MUTE 0
      IGUID {2842C134-CA68-4C68-8EA4-C5CFCAC3CAF5}
      IID 5
      NAME "BEAT"
      VOLPAN 1.000000 0.000000 1.000000 -1.000000
      SOFFS 0.00000000000000 0.00000000000000
      PLAYRATE 1.00000000000000 1 0.00000000000000 -1
      CHANMODE 0
      GUID {8A03E155-FAEC-485D-A237-101CD5596F36}
      <SOURCE MIDI
        HASDATA 1 480 QN
        POOLEDEVTS {37113DC8-C532-4717-B3C4-1DCE9854A4EC}
        <X 0 0
          /wNCRUFU
        >
        E 0 96 0c 64
        E 120 86 0c 00
        E 360 96 0d 64
        E 120 86 0d 00
        E 360 96 0d 64
        E 120 86 0d 00
        E 360 96 0d 64
        E 120 86 0d 00
        E 360 96 0c 64
        E 120 86 0c 00
        E 360 96 0d 64
        E 120 86 0d 00
        E 360 96 0d 64
        E 120 86 0d 00
        E 360 96 0d 64
        E 120 86 0d 00
        E 360 96 0c 64
        E 120 86 0c 00
        E 360 96 0d 64
        E 120 86 0d 00
        E 360 96 0d 64
        E 120 86 0d 00
        E 360 96 0d 64
        E 120 86 0d 00
        E 360 96 0c 64
        E 120 86 0c 00
        E 360 96 0d 64
        E 120 86 0d 00
        E 360 96 0d 64
        E 120 86 0d 00
        E 360 96 0d 64
        E 120 86 0d 00
        E 360 96 0c 64
        E 120 86 0c 00
        E 360 96 0d 64
        E 120 86 0d 00
        E 360 96 0d 64
        E 120 86 0d 00
        E 360 96 0d 64
        E 120 86 0d 00
        E 360 96 0c 64
        E 120 86 0c 00
        E 360 96 0d 64
        E 120 86 0d 00
        E 360 96 0d 64
        E 120 86 0d 00
        E 360 96 0d 64
        E 120 86 0d 00
        E 360 96 0c 64
        E 120 86 0c 00
        E 360 96 0d 64
        E 120 86 0d 00
        E 360 96 0d 64
        E 120 86 0d 00
        E 360 96 0d 64
        E 120 86 0d 00
        E 360 96 0c 64
        E 120 86 0c 00
        E 360 96 0d 64
        E 120 86 0d 00
        E 360 96 0d 64
        E 120 86 0d 00
        E 360 96 0d 64
        E 120 86 0d 00
        E 360 96 0c 64
        E 120 86 0c 00
        E 360 96 0d 64
        E 120 86 0d 00
        E 360 96 0d 64
        E 120 86 0d 00
        E 360 96 0d 64
        E 120 86 0d 00
        E 360 96 0c 64
        E 120 86 0c 00
        E 360 96 0d 64
        E 120 86 0d 00
        E 360 96 0d 64
        E 120 86 0d 00
        E 360 96 0d 64
        E 120 86 0d 00
        E 360 96 0c 64
        E 120 86 0c 00
        E 360 96 0d 64
        E 120 86 0d 00
        E 360 96 0d 64
        E 120 86 0d 00
        E 360 96 0c 64
        E 120 86 0c 00
        E 360 96 0d 64
        E 120 86 0d 00
        E 360 96 0d 64
        E 120 86 0d 00
        E 360 96 0c 64
        E 120 86 0c 00
        E 360 96 0d 64
        E 120 86 0d 00
        E 360 96 0d 64
        E 120 86 0d 00
        E 360 96 0c 64
        E 120 86 0c 00
        E 360 96 0d 64
        E 120 86 0d 00
        E 360 96 0d 64
        E 120 86 0d 00
        E 360 96 0c 64
        E 120 86 0c 00
        E 360 96 0d 64
        E 120 86 0d 00
        E 360 96 0d 64
        E 120 86 0d 00
        E 360 96 0c 64
        E 120 86 0c 00
        E 360 96 0d 64
        E 120 86 0d 00
        E 360 96 0d 64
        E 120 86 0d 00
        E 360 96 0c 64
        E 120 86 0c 00
        E 360 96 0d 64
        E 120 86 0d 00
        E 360 96 0d 64
        E 120 86 0d 00
        E 360 96 0c 64
        E 120 86 0c 00
        E 360 96 0d 64
        E 120 86 0d 00
        E 360 96 0d 64
        E 120 86 0d 00
        E 360 96 0c 64
        E 120 86 0c 00
        E 360 96 0d 64
        E 120 86 0d 00
        E 360 96 0d 64
        E 120 86 0d 00
        E 360 96 0c 64
        E 120 86 0c 00
        E 360 96 0d 64
        E 120 86 0d 00
        E 360 96 0d 64
        E 120 86 0d 00
        E 360 96 0c 64
        E 120 86 0c 00
        E 360 96 0d 64
        E 120 86 0d 00
        E 360 96 0d 64
        E 120 86 0d 00
        E 360 96 0c 64
        E 120 86 0c 00
        E 360 96 0d 64
        E 120 86 0d 00
        E 360 96 0d 64
        E 120 86 0d 00
        E 360 96 0c 64
        E 120 86 0c 00
        E 360 96 0d 64
        E 120 86 0d 00
        E 360 96 0d 64
        E 120 86 0d 00
        E 360 96 0c 64
        E 120 86 0c 00
        E 360 96 0d 64
        E 120 86 0d 00
        E 360 96 0d 64
        E 120 86 0d 00
        E 360 96 0c 64
        E 120 86 0c 00
        E 360 96 0d 64
        E 120 86 0d 00
        E 360 96 0d 64
        E 120 86 0d 00
        E 360 96 0c 64
        E 120 86 0c 00
        E 360 96 0d 64
        E 120 86 0d 00
        E 360 96 0d 64
        E 120 86 0d 00
        E 360 96 0c 64
        E 120 86 0c 00
        E 360 96 0d 64
        E 120 86 0d 00
        E 360 96 0d 64
        E 120 86 0d 00
        E 360 96 0c 64
        E 120 86 0c 00
        E 360 96 0d 64
        E 120 86 0d 00
        E 360 96 0d 64
        E 120 86 0d 00
        E 360 96 0c 64
        E 120 86 0c 00
        E 360 96 0d 64
        E 120 86 0d 00
        E 360 96 0d 64
        E 120 86 0d 00
        E 360 96 0c 64
        E 120 86 0c 00
        E 360 96 0d 64
        E 120 86 0d 00
        E 360 96 0d 64
        E 120 86 0d 00
        E 360 96 0c 64
        E 120 86 0c 00
        E 360 96 0d 64
        E 120 86 0d 00
        E 360 96 0d 64
        E 120 86 0d 00
        E 360 96 0c 64
        E 120 86 0c 00
        E 360 96 0d 64
        E 120 86 0d 00
        E 360 96 0d 64
        E 120 86 0d 00
        E 360 96 0c 64
        E 120 86 0c 00
        E 360 96 0d 64
        E 120 86 0d 00
        E 360 96 0d 64
        E 120 86 0d 00
        E 360 96 0c 64
        E 120 86 0c 00
        E 360 96 0d 64
        E 120 86 0d 00
        E 360 96 0d 64
        E 120 86 0d 00
        E 360 96 0c 64
        E 120 86 0c 00
        E 360 96 0d 64
        E 120 86 0d 00
        E 360 96 0d 64
        E 120 86 0d 00
        E 360 96 0c 64
        E 120 86 0c 00
        E 360 96 0d 64
        E 120 86 0d 00
        E 360 96 0d 64
        E 120 86 0d 00
        E 360 96 0c 64
        E 120 86 0c 00
        E 360 96 0d 64
        E 120 86 0d 00
        E 360 96 0d 64
        E 120 86 0d 00
        E 360 96 0c 64
        E 120 86 0c 00
        E 360 96 0d 64
        E 120 86 0d 00
        E 360 96 0d 64
        E 120 86 0d 00
        E 360 96 0c 64
        E 120 86 0c 00
        E 360 96 0d 64
        E 120 86 0d 00
        E 360 96 0d 64
        E 120 86 0d 00
        E 360 96 0c 64
        E 120 86 0c 00
        E 360 96 0d 64
        E 120 86 0d 00
        E 360 96 0d 64
        E 120 86 0d 00
        E 360 96 0c 64
        E 120 86 0c 00
        E 360 96 0d 64
        E 120 86 0d 00
        E 360 96 0d 64
        E 120 86 0d 00
        E 360 b0 7b 00
        GUID {5B318FA2-E9A5-4A20-B80B-0D8863359B7C}
        IGNTEMPO 0 120.00000000 4 4
        SRCCOLOR 8
        VELLANE 132 128 60
        COLORMAP "C:\Program Files\REAPER (x64)\Data\color_maps\rockband_guitarbass.png"
      >
    >
  >
  <TRACK '{646236E1-7D05-4FF4-A2AC-C2A7CB85E669}'
    NAME "backing"
    PEAKCOL 16576
    BEAT -1
    AUTOMODE 0
    VOLPAN 0.50118723362727 0.00000000000000 -1.00000000000000 -1.00000000000000 1.00000000000000
    MUTESOLO 0 0 0
    IPHASE 0
    ISBUS 0 0
    BUSCOMP 0 0
    SHOWINMIX 1 0.666700 0.500000 1 0.500000 -1 -1 -1
    FREEMODE 0
    SEL 0
    REC 0 0 0 0 0 0 0
    VU 2
    TRACKHEIGHT 0 0
    INQ 0 0 0 0.5000000000 100 0 0 100
    NCHAN 2
    FX 1
    TRACKID {646236E1-7D05-4FF4-A2AC-C2A7CB85E669}
    PERF 0
    MIDIOUT -1
    MAINSEND 1 0
    <ITEM
      POSITION 0.00000000000000
      SNAPOFFS 0.00000000000000
      LENGTH 67.30106575963718
      LOOP 0
      ALLTAKES 0
      SEL 0
      FADEIN 1 0.000000 0.000000 1 0
      FADEOUT 1 0.000000 0.000000 1 0
      MUTE 0
      IGUID {CE9AF829-D3E4-41D2-850E-EE7AEBC467A5}
      IID 6
      NAME "backing.wav"
      VOLPAN 1.000000 0.000000 1.000000 -1.000000
      SOFFS 0.00000000000000
      PLAYRATE 1.00000000000000 1 0.00000000000000 -1
      CHANMODE 0
      GUID {3C28C35C-A304-45C6-8A1B-7CB99B3FA083}
      <SOURCE WAVE
        FILE "wav\backing.wav"
      >
    >
  >
  <EXTENSIONS
  >
>
