<REAPER_PROJECT 0.1 "4.22/x64"
  RIPPLE 0
  GROUPOVERRIDE 0 0 0
  AUTOXFADE 1
  ENVATTACH 1
  MIXERUIFLAGS 11 48
  PEAKGAIN 1.00000000000000
  FEEDBACK 0
  PANLAW 1.00000000000000
  PROJOFFS 0.00000000000000 0
  MAXPROJLEN 0 600.00000000000000
  GRID 3199 8 1.00000000000000 8 1.00000000000000 0
  TIMEMODE 1 0 -1
  PANMODE 3
  CURSOR 55.83957562500324
  ZOOM 77.04505738959033 9906 0
  VZOOMEX 6
  USE_REC_CFG 0
  RECMODE 1
  SMPTESYNC 0 23.976024 100 40 1000 300 0 0.000000 1
  LOOP 1
  LOOPGRAN 0 4.00000000000000
  RECORD_PATH "" ""
  <RECORD_CFG
    ZXZhdxAD
  >
  <APPLYFX_CFG
  >
  RENDER_FILE ""
  RENDER_PATTERN ""
  RENDER_FMT 0 2 0
  RENDER_1X 0
  RENDER_RANGE 2 0.00000000000000 0.00000000000000
  RENDER_RESAMPLE 3 0 1
  RENDER_ADDTOPROJ 0
  RENDER_STEMS 0
  RENDER_DITHER 0
  TIMELOCKMODE 0
  ITEMMIX 0
  DEFPITCHMODE 393216
  TAKELANE 1
  SAMPLERATE 44100 0 0
  <RENDER_CFG
  >
  LOCK 1
  <METRONOME 6 2.000000
    VOL 0.250000 0.125000
    FREQ 800 1600 1
    BEATLEN 4
    SAMPLES "" ""
  >
  GLOBAL_AUTO -1
  TEMPO 120.00000000000000 4 4
  PLAYRATE 1.00000000000000 0 0.25000 4.00000
  SELECTION 145.04278800000000 0.00000000000000
  SELECTION2 145.04278800000000 0.00000000000000
  MASTERAUTOMODE 0
  MASTERTRACKHEIGHT 0
  MASTERPEAKCOL 16576
  MASTERMUTESOLO 0
  MASTERTRACKVIEW 0 0.666700 0.500000 0.500000 -1 -1 -1
  MASTERHWOUT 0 0 1.00000000000000 0.00000000000000 0 0 0 -1.00000000000000
  MASTER_NCH 2 2
  MASTER_VOLUME 1.00000000000000 0.00000000000000 -1.00000000000000 -1.00000000000000 1.00000000000000
  MASTER_PANMODE -1
  MASTER_FX 1
  MASTER_SEL 0
  <MASTERPLAYSPEEDENV
    ACT 0
    VIS 0 1 1.000000
    LANEHEIGHT 0 0
    ARM 0
    DEFSHAPE 0 -1 -1
  >
  <TEMPOENVEX
    ACT 1
    VIS 1 0 1.000000
    LANEHEIGHT 0 0
    ARM 0
    DEFSHAPE 1 -1 -1
    PT 0.000000000000 118.1179092343 1 262147
    PT 4.063736000000 105.8822906575 1
    PT 4.630403000000 112.4705467756 1
    PT 6.230822000000 119.0587217459 1
    PT 7.742681000000 113.4116882086 1
    PT 8.271727000000 118.1176767040 1
    PT 9.287663000000 113.4116882086 1
    PT 10.874801000000 122.8234658326 1
    PT 12.340319000000 115.2941538178 1
    PT 13.901543000000 120.0000000000 1
    PT 15.401543000000 116.2353688729 1
    PT 20.047289000000 118.1176767040 1
    PT 21.571193000000 107.7646205159 1
    PT 22.127962000000 117.1765147017 1
    PT 23.152058000000 111.5293461592 1
    PT 23.690033000000 116.2353688729 1
    PT 25.754809000000 117.1765147017 1
    PT 26.266857000000 120.0000000000 1
    PT 27.266857000000 113.4116882086 1
    PT 27.795903000000 118.1176767040 1
    PT 28.811839000000 112.4705467756 1
    PT 29.345312000000 116.2353688729 1
    PT 30.377700000000 119.0587217459 1
    PT 30.881653000000 117.1765147017 1
    PT 31.905749000000 115.2941538178 1
    PT 32.426157000000 120.9411641393 1
    PT 33.418375000000 118.1176767040 1
    PT 34.942279000000 123.7646738491 1
    PT 44.153308000000 120.0000000000 1
    PT 45.653308000000 115.2941538178 1
    PT 55.020652000000 119.0587217459 1
    PT 60.564135000000 122.8234658326 1
    PT 66.914713000000 120.9411641393 1
    PT 69.891367000000 116.2353688729 1
    PT 71.439949000000 119.0587217459 1
    PT 72.951808000000 109.6471190219 1
    PT 73.499018000000 122.8234658326 1
    PT 74.476030000000 114.3530192056 1
    PT 75.525412000000 124.7059019147 1
    PT 76.006544000000 119.0587217459 1
    PT 77.014450000000 120.0000000000 1
    PT 79.014450000000 117.1765147017 1
    PT 80.550594000000 119.0587217459 1
    PT 82.062453000000 115.2941538178 1
    PT 83.623677000000 110.5882743253 1
    PT 85.251336000000 119.0587217459 1
    PT 86.259242000000 124.7059019147 1
    PT 87.702638000000 122.8234658326 1
    PT 88.191144000000 116.2353688729 1
    PT 97.482636000000 119.0587217459 1
    PT 98.994495000000 120.9411641393 1
    PT 104.947803000000 124.7059019147 1
    PT 106.391199000000 120.9411641393 1
    PT 109.367853000000 122.8234658326 1
    PT 110.833371000000 120.9411641393 1
    PT 121.251660000000 121.8823510293 1
    PT 127.158996000000 118.1176767040 1
    PT 128.682900000000 120.0000000000 1
    PT 130.182900000000 121.8823510293 1
    PT 134.613402000000 118.1176767040 1
    PT 136.137306000000 120.4255840139 1
    PT 139.126704000000 121.7021259333 1
  >
  <PROJBAY
  >
  <TRACK '{62C90C6F-4C17-4BE1-98DE-462B4BAF2192}'
    NAME "PART DRUMS"
    PEAKCOL 16576
    BEAT -1
    AUTOMODE 0
    VOLPAN 1.00000000000000 0.00000000000000 -1.00000000000000 -1.00000000000000 1.00000000000000
    MUTESOLO 0 0 0
    IPHASE 0
    ISBUS 0 0
    BUSCOMP 0 0
    SHOWINMIX 1 0.666700 0.500000 1 0.500000 -1 -1 -1
    FREEMODE 0
    SEL 0
    REC 0 0 0 0 0 0 0
    VU 2
    TRACKHEIGHT 0 0
    INQ 0 0 0 0.5000000000 100 0 0 100
    NCHAN 2
    FX 1
    TRACKID {62C90C6F-4C17-4BE1-98DE-462B4BAF2192}
    PERF 0
    MIDIOUT -1
    <MIDINOTENAMES
      0 127 "CYMBAL SWELLS"
      0 126 "DRUM ROLL"
      0 125 "---"
      0 124 "DRUM FILL"
      0 123 "DRUM FILL"
      0 122 "DRUM FILL"
      0 121 "DRUM FILL"
      0 120 "DRUM FILL (use all 5)"
      0 118 "----"
      0 116 "OVERDRIVE"
      0 114 "----"
      0 112 "TOM GEMS PAD 4"
      0 111 "TOM GEMS PAD 3"
      0 110 "TOM GEMS PAD 2"
      0 103 "Solo Marker"
      0 102 "----"
      0 100 "EXPERT Green"
      0 99 "EXPERT Blue"
      0 98 "EXPERT Yellow"
      0 97 "EXPERT Red"
      0 96 "EXPERT Kick"
      0 92 "----"
      0 88 "HARD Green"
      0 87 "HARD Blue"
      0 86 "HARD Yellow"
      0 85 "HARD Red"
      0 84 "HARD Kick"
      0 80 "----"
      0 76 "MEDIUM Green"
      0 75 "MEDIUM Blue"
      0 74 "MEDIUM Yellow"
      0 73 "MEDIUM Red"
      0 72 "MEDIUM Kick"
      0 68 "----"
      0 64 "EASY Green"
      0 63 "EASY Blue"
      0 62 "EASY Yellow"
      0 61 "EASY Red"
      0 60 "EASY Kick"
      0 56 "----"
      0 52 "-- DRUM ANIMATION --"
      0 51 "FLOOR TOM RH"
      0 50 "FLOOR TOM LH"
      0 49 "TOM2 RH"
      0 48 "TOM2 LH"
      0 47 "TOM1 RH"
      0 46 "TOM1 LH"
      0 45 "SOFT CRASH 2 LH"
      0 44 "CRASH 2 LH"
      0 43 "RIDE LH"
      0 42 "RIDE CYM RH"
      0 41 "CRASH2 CHOKE"
      0 40 "CRASH1 CHOKE"
      0 39 "CRASH2 SOFT RH"
      0 38 "CRASH2 HARD RH"
      0 37 "CRASH1 SOFT RH"
      0 36 "CRASH1 HARD RH"
      0 35 "CRASH1 SOFT LH"
      0 34 "CRASH1 HARD LH"
      0 32 "PERCUSSION RH"
      0 31 "HI-HAT RH"
      0 30 "HI-HAT LH"
      0 29 "SOFT SNARE RH"
      0 28 "SOFT SNARE LH"
      0 27 "SNARE RH"
      0 26 "SNARE LH"
      0 25 "HI-HAT OPEN"
      0 24 "KICK RF"
    >
    MAINSEND 1 0
    <FXCHAIN
      WNDRECT 0 43 891 559
      SHOW 0
      LASTSEL 0
      DOCKED 0
      BYPASS 0 0
      <VST "VSTi: RBN Preview (RBN)" "rbprev_vst64.dll" 0 ""
        dnBicu5e7f4AAAAAAgAAAAEAAAAAAAAAAgAAAAAAAAAEAAAAAQAAAA==
        AAAQAAMBqgAAABAAAAA=
      >
      FLOATPOS 0 0 0 0
      FXID {F1B92843-09DE-4428-8C93-62C6C762A2BA}
      WAK 0
    >
    <ITEM
      POSITION 0.00000000000000
      SNAPOFFS 0.00000000000000
      LENGTH 145.04278911564626
      LOOP 0
      ALLTAKES 0
      SEL 0
      FADEIN 1 0.000000 0.000000 1 0
      FADEOUT 1 0.000000 0.000000 1 0
      MUTE 0
      IGUID {180ABA19-DF95-4DE4-9C83-58CA398F7BAC}
      IID 1
      NAME "PART DRUMS"
      VOLPAN 1.000000 0.000000 1.000000 -1.000000
      SOFFS 0.00000000000000 0.00000000000000
      PLAYRATE 1.00000000000000 1 0.00000000000000 -1
      CHANMODE 0
      GUID {5F3C29F7-E08A-4B3A-9BA0-CC1A1105CC1A}
      <SOURCE MIDI
        HASDATA 1 480 QN
        POOLEDEVTS {6CB8D49C-64C3-4FFE-A527-39A9A4CED8F0}
        <X 0 0
          /wNQQVJUIERSVU1T
        >
        E 0 90 19 60
        <X 120 0
          /wFbbWl4IDEgZHJ1bXMwXQ==
        >
        <X 0 0
          /wFbbWl4IDAgZHJ1bXMwXQ==
        >
        <X 120 0
          /wFbbWl4IDIgZHJ1bXMwXQ==
        >
        <X 120 0
          /wFbbWl4IDMgZHJ1bXMwXQ==
        >
        E 2520 80 19 00
        <X 360 0
          /wFbbWVsbG93XQ==
        >
        E 0 90 2f 64
        E 0 90 56 60
        E 0 90 62 64
        E 0 90 6e 64
        E 0 90 6f 64
        E 120 80 2f 00
        E 0 80 56 00
        E 0 80 62 00
        E 0 90 31 64
        E 0 90 4b 64
        E 0 90 57 64
        E 0 90 63 64
        E 120 80 31 00
        E 0 80 4b 00
        E 0 80 57 00
        E 0 80 63 00
        E 0 90 31 64
        E 0 90 63 64
        E 120 80 31 00
        E 0 80 63 00
        E 240 90 2f 64
        E 0 90 3e 64
        E 0 90 4a 64
        E 0 90 56 64
        E 0 90 62 64
        E 120 80 2f 00
        E 0 80 3e 00
        E 0 80 4a 00
        E 0 80 56 00
        E 0 80 62 00
        E 720 90 2f 64
        E 0 90 56 60
        E 0 90 62 64
        E 120 80 2f 00
        E 0 80 56 00
        E 0 80 62 00
        E 0 90 31 64
        E 0 90 4b 64
        E 0 90 57 64
        E 0 90 63 64
        E 120 80 31 00
        E 0 80 4b 00
        E 0 80 57 00
        E 0 80 63 00
        E 0 90 31 64
        E 0 90 63 64
        E 120 80 31 00
        E 0 80 63 00
        E 240 90 2f 64
        E 0 90 3e 64
        E 0 90 4a 64
        E 0 90 56 64
        E 0 90 62 64
        E 120 80 2f 00
        E 0 80 3e 00
        E 0 80 4a 00
        E 0 80 56 00
        E 0 80 62 00
        E 720 90 2f 64
        E 0 90 56 60
        E 0 90 62 64
        E 120 80 2f 00
        E 0 80 56 00
        E 0 80 62 00
        E 0 90 31 64
        E 0 90 4b 64
        E 0 90 57 64
        E 0 90 63 64
        E 120 80 31 00
        E 0 80 4b 00
        E 0 80 57 00
        E 0 80 63 00
        E 0 90 31 64
        E 0 90 63 64
        E 120 80 31 00
        E 0 80 63 00
        E 240 90 2f 64
        E 0 90 3e 64
        E 0 90 4a 64
        E 0 90 56 64
        E 0 90 62 64
        E 120 80 2f 00
        E 0 80 3e 00
        E 0 80 4a 00
        E 0 80 56 00
        E 0 80 62 00
        E 360 90 78 64
        E 0 90 79 64
        E 0 90 7a 64
        E 0 90 7b 64
        E 0 90 7c 64
        E 360 90 2f 64
        E 0 90 56 60
        E 0 90 62 64
        E 120 80 2f 00
        E 0 80 56 00
        E 0 80 62 00
        E 0 90 31 64
        E 0 90 4b 64
        E 0 90 57 64
        E 0 90 63 64
        E 120 80 31 00
        E 0 80 4b 00
        E 0 80 57 00
        E 0 80 63 00
        E 0 90 31 64
        E 0 90 63 64
        E 120 80 31 00
        E 0 80 63 00
        E 240 90 2f 64
        E 0 90 3e 64
        E 0 90 4a 64
        E 0 90 56 64
        E 0 90 62 64
        E 120 80 2f 00
        E 0 80 3e 00
        E 0 80 4a 00
        E 0 80 56 00
        E 0 80 62 00
        E 360 80 78 00
        E 0 80 79 00
        E 0 80 7a 00
        E 0 80 7b 00
        E 0 80 7c 00
        E 0 90 74 64
        E 360 90 2f 64
        E 0 90 56 60
        E 0 90 62 64
        E 120 80 2f 00
        E 0 80 56 00
        E 0 80 62 00
        E 0 90 31 64
        E 0 90 4b 64
        E 0 90 57 64
        E 0 90 63 64
        E 120 80 31 00
        E 0 80 4b 00
        E 0 80 57 00
        E 0 80 63 00
        E 0 90 31 64
        E 0 90 63 64
        E 120 80 31 00
        E 0 80 63 00
        E 240 90 2f 64
        E 0 90 3e 64
        E 0 90 4a 64
        E 0 90 56 64
        E 0 90 62 64
        E 120 80 2f 00
        E 0 80 3e 00
        E 0 80 4a 00
        E 0 80 56 00
        E 0 80 62 00
        E 720 90 2f 64
        E 0 90 56 60
        E 0 90 62 64
        E 120 80 2f 00
        E 0 80 56 00
        E 0 80 62 00
        E 0 90 31 64
        E 0 90 4b 64
        E 0 90 57 64
        E 0 90 63 64
        E 120 80 31 00
        E 0 80 4b 00
        E 0 80 57 00
        E 0 80 63 00
        E 0 90 31 64
        E 0 90 63 64
        E 120 80 31 00
        E 0 80 63 00
        E 240 90 2f 64
        E 0 90 3e 64
        E 0 90 4a 64
        E 0 90 56 64
        E 0 90 62 64
        E 120 80 74 00
        E 0 80 2f 00
        E 0 80 3e 00
        E 0 80 4a 00
        E 0 80 56 00
        E 0 80 62 00
        E 720 90 2f 64
        E 0 90 56 60
        E 0 90 62 64
        E 120 80 2f 00
        E 0 80 56 00
        E 0 80 62 00
        E 0 90 31 64
        E 0 90 4b 64
        E 0 90 57 64
        E 0 90 63 64
        E 120 80 31 00
        E 0 80 4b 00
        E 0 80 57 00
        E 0 80 63 00
        E 0 90 31 64
        E 0 90 63 64
        E 120 80 31 00
        E 0 80 63 00
        E 240 90 2f 64
        E 0 90 3e 64
        E 0 90 4a 64
        E 0 90 56 64
        E 0 90 62 64
        E 120 80 2f 00
        E 0 80 3e 00
        E 0 80 4a 00
        E 0 80 56 00
        E 0 80 62 00
        E 360 90 78 64
        E 0 90 79 64
        E 0 90 7a 64
        E 0 90 7b 64
        E 0 90 7c 64
        E 360 90 2f 64
        E 0 90 56 60
        E 0 90 62 64
        E 120 80 2f 00
        E 0 80 56 00
        E 0 80 62 00
        E 0 90 31 64
        E 0 90 4b 64
        E 0 90 57 64
        E 0 90 63 64
        E 120 80 31 00
        E 0 80 4b 00
        E 0 80 57 00
        E 0 80 63 00
        E 0 90 31 64
        E 0 90 63 64
        E 120 80 31 00
        E 0 80 63 00
        E 240 90 2f 64
        E 0 90 3e 64
        E 0 90 4a 64
        E 0 90 56 64
        E 0 90 62 64
        E 120 80 2f 00
        E 0 80 3e 00
        E 0 80 4a 00
        E 0 80 56 00
        E 0 80 62 00
        E 360 80 78 00
        E 0 80 79 00
        E 0 80 7a 00
        E 0 80 7b 00
        E 0 80 7c 00
        E 360 90 2f 64
        E 0 90 56 60
        E 0 90 62 64
        E 120 80 2f 00
        E 0 80 56 00
        E 0 80 62 00
        E 0 90 31 64
        E 0 90 4b 64
        E 0 90 57 64
        E 0 90 63 64
        E 120 80 31 00
        E 0 80 4b 00
        E 0 80 57 00
        E 0 80 63 00
        E 0 90 31 64
        E 0 90 63 64
        E 120 80 31 00
        E 0 80 63 00
        E 240 90 2f 64
        E 0 90 3e 64
        E 0 90 4a 64
        E 0 90 56 64
        E 0 90 62 64
        E 120 80 2f 00
        E 0 80 3e 00
        E 0 80 4a 00
        E 0 80 56 00
        E 0 80 62 00
        E 720 90 2f 64
        E 0 90 56 60
        E 0 90 62 64
        E 120 80 2f 00
        E 0 80 56 00
        E 0 80 62 00
        E 0 90 31 64
        E 0 90 4b 64
        E 0 90 57 64
        E 0 90 63 64
        E 120 80 31 00
        E 0 80 4b 00
        E 0 80 57 00
        E 0 80 63 00
        E 0 90 31 64
        E 0 90 63 64
        E 120 80 31 00
        E 0 80 63 00
        E 240 90 2f 64
        E 0 90 3e 64
        E 0 90 4a 64
        E 0 90 56 64
        E 0 90 62 64
        E 120 80 2f 00
        E 0 80 3e 00
        E 0 80 4a 00
        E 0 80 56 00
        E 0 80 62 00
        E 720 90 2f 64
        E 0 90 56 60
        E 0 90 62 64
        E 120 80 2f 00
        E 0 80 56 00
        E 0 80 62 00
        E 0 90 31 64
        E 0 90 4b 64
        E 0 90 57 64
        E 0 90 63 64
        E 120 80 31 00
        E 0 80 4b 00
        E 0 80 57 00
        E 0 80 63 00
        E 0 90 31 64
        E 0 90 63 64
        E 120 80 31 00
        E 0 80 63 00
        E 240 90 2f 64
        E 0 90 3e 64
        E 0 90 4a 64
        E 0 90 56 64
        E 0 90 62 64
        E 120 80 2f 00
        E 0 80 3e 00
        E 0 80 4a 00
        E 0 80 56 00
        E 0 80 62 00
        E 360 90 78 64
        E 0 90 79 64
        E 0 90 7a 64
        E 0 90 7b 64
        E 0 90 7c 64
        E 360 90 2f 64
        E 0 90 56 60
        E 0 90 62 64
        E 120 80 2f 00
        E 0 80 56 00
        E 0 80 62 00
        E 0 90 31 64
        E 0 90 4b 64
        E 0 90 57 64
        E 0 90 63 64
        E 120 80 31 00
        E 0 80 4b 00
        E 0 80 57 00
        E 0 80 63 00
        E 0 90 31 64
        E 0 90 63 64
        E 120 80 31 00
        E 0 80 63 00
        E 240 90 2f 64
        E 0 90 3e 64
        E 0 90 4a 64
        E 0 90 56 64
        E 0 90 62 64
        E 120 80 2f 00
        E 0 80 3e 00
        E 0 80 4a 00
        E 0 80 56 00
        E 0 80 62 00
        E 360 80 78 00
        E 0 80 79 00
        E 0 80 7a 00
        E 0 80 7b 00
        E 0 80 7c 00
        E 360 90 2f 64
        E 0 90 62 64
        E 120 80 2f 00
        E 0 80 62 00
        E 0 90 1c 64
        E 0 90 31 64
        E 0 90 49 64
        E 0 90 4b 64
        E 0 90 55 64
        E 0 90 57 64
        E 0 90 61 64
        E 0 90 63 64
        E 120 80 1c 00
        E 0 80 31 00
        E 0 80 49 00
        E 0 80 4b 00
        E 0 80 55 00
        E 0 80 57 00
        E 0 80 61 00
        E 0 80 63 00
        E 0 90 31 64
        E 0 90 63 64
        E 120 80 31 00
        E 0 80 63 00
        E 240 90 1c 64
        E 0 90 2f 64
        E 0 90 3d 64
        E 0 90 3e 64
        E 0 90 49 64
        E 0 90 4a 64
        E 0 90 55 64
        E 0 90 56 64
        E 0 90 61 64
        E 0 90 62 64
        E 120 80 1c 00
        E 0 80 2f 00
        E 0 80 3d 00
        E 0 80 3e 00
        E 0 80 49 00
        E 0 80 4a 00
        E 0 80 55 00
        E 0 80 56 00
        E 0 80 61 00
        E 0 80 62 00
        E 360 90 1c 64
        E 0 90 49 60
        E 0 90 55 64
        E 0 90 61 64
        E 0 90 74 64
        E 120 80 1c 00
        E 0 80 49 00
        E 0 80 55 00
        E 0 80 61 00
        E 240 90 2f 64
        E 0 90 56 60
        E 0 90 62 64
        E 120 80 2f 00
        E 0 80 56 00
        E 0 80 62 00
        E 0 90 1c 64
        E 0 90 31 64
        E 0 90 49 64
        E 0 90 4b 64
        E 0 90 55 64
        E 0 90 57 64
        E 0 90 61 64
        E 0 90 63 64
        E 120 80 1c 00
        E 0 80 31 00
        E 0 80 49 00
        E 0 80 4b 00
        E 0 80 55 00
        E 0 80 57 00
        E 0 80 61 00
        E 0 80 63 00
        E 0 90 31 64
        E 0 90 63 64
        E 120 80 31 00
        E 0 80 63 00
        E 240 90 1c 64
        E 0 90 2f 64
        E 0 90 3d 64
        E 0 90 3e 64
        E 0 90 49 64
        E 0 90 4a 64
        E 0 90 55 64
        E 0 90 56 64
        E 0 90 61 64
        E 0 90 62 64
        E 120 80 1c 00
        E 0 80 2f 00
        E 0 80 3d 00
        E 0 80 3e 00
        E 0 80 49 00
        E 0 80 4a 00
        E 0 80 55 00
        E 0 80 56 00
        E 0 80 61 00
        E 0 80 62 00
        E 360 90 1c 64
        E 0 90 55 64
        E 0 90 61 64
        E 120 80 1c 00
        E 0 80 55 00
        E 0 80 61 00
        E 240 90 2f 64
        E 0 90 56 60
        E 0 90 62 64
        E 120 80 2f 00
        E 0 80 56 00
        E 0 80 62 00
        E 0 90 1c 64
        E 0 90 31 64
        E 0 90 49 64
        E 0 90 4b 64
        E 0 90 55 64
        E 0 90 57 64
        E 0 90 61 64
        E 0 90 63 64
        E 120 80 1c 00
        E 0 80 31 00
        E 0 80 49 00
        E 0 80 4b 00
        E 0 80 55 00
        E 0 80 57 00
        E 0 80 61 00
        E 0 80 63 00
        E 0 90 31 64
        E 0 90 63 64
        E 120 80 31 00
        E 0 80 63 00
        E 240 90 1c 64
        E 0 90 2f 64
        E 0 90 3d 64
        E 0 90 3e 64
        E 0 90 49 64
        E 0 90 4a 64
        E 0 90 55 64
        E 0 90 56 64
        E 0 90 61 64
        E 0 90 62 64
        E 120 80 74 00
        E 0 80 1c 00
        E 0 80 2f 00
        E 0 80 3d 00
        E 0 80 3e 00
        E 0 80 49 00
        E 0 80 4a 00
        E 0 80 55 00
        E 0 80 56 00
        E 0 80 61 00
        E 0 80 62 00
        E 360 90 1c 64
        E 0 90 49 64
        E 0 90 55 64
        E 0 90 61 64
        E 0 90 78 64
        E 0 90 79 64
        E 0 90 7a 64
        E 0 90 7b 64
        E 0 90 7c 64
        E 120 80 1c 00
        E 0 80 49 00
        E 0 80 55 00
        E 0 80 61 00
        E 240 90 2f 64
        E 0 90 56 60
        E 0 90 62 64
        E 120 80 2f 00
        E 0 80 56 00
        E 0 80 62 00
        E 0 90 1c 64
        E 0 90 31 64
        E 0 90 49 64
        E 0 90 4b 64
        E 0 90 55 64
        E 0 90 57 64
        E 0 90 61 64
        E 0 90 63 64
        E 120 80 1c 00
        E 0 80 31 00
        E 0 80 49 00
        E 0 80 4b 00
        E 0 80 55 00
        E 0 80 57 00
        E 0 80 61 00
        E 0 80 63 00
        E 0 90 31 64
        E 0 90 63 64
        E 120 80 31 00
        E 0 80 63 00
        E 240 90 1c 64
        E 0 90 2f 64
        E 0 90 3d 64
        E 0 90 3e 64
        E 0 90 49 64
        E 0 90 4a 64
        E 0 90 55 64
        E 0 90 56 64
        E 0 90 61 64
        E 0 90 62 64
        E 120 80 1c 00
        E 0 80 2f 00
        E 0 80 3d 00
        E 0 80 3e 00
        E 0 80 49 00
        E 0 80 4a 00
        E 0 80 55 00
        E 0 80 56 00
        E 0 80 61 00
        E 0 80 62 00
        E 360 80 78 00
        E 0 80 79 00
        E 0 80 7a 00
        E 0 80 7b 00
        E 0 80 7c 00
        E 0 90 1c 64
        E 0 90 49 64
        E 0 90 55 64
        E 0 90 61 64
        E 120 80 1c 00
        E 0 80 49 00
        E 0 80 55 00
        E 0 80 61 00
        E 240 90 2f 64
        E 0 90 56 60
        E 0 90 62 64
        E 120 80 2f 00
        E 0 80 56 00
        E 0 80 62 00
        E 0 90 1c 64
        E 0 90 31 64
        E 0 90 49 64
        E 0 90 4b 64
        E 0 90 55 64
        E 0 90 57 64
        E 0 90 61 64
        E 0 90 63 64
        E 120 80 1c 00
        E 0 80 31 00
        E 0 80 49 00
        E 0 80 4b 00
        E 0 80 55 00
        E 0 80 57 00
        E 0 80 61 00
        E 0 80 63 00
        E 0 90 31 64
        E 0 90 63 64
        E 120 80 31 00
        E 0 80 63 00
        E 240 90 1c 64
        E 0 90 2f 64
        E 0 90 3d 64
        E 0 90 3e 64
        E 0 90 49 64
        E 0 90 4a 64
        E 0 90 55 64
        E 0 90 56 64
        E 0 90 61 64
        E 0 90 62 64
        E 120 80 1c 00
        E 0 80 2f 00
        E 0 80 3d 00
        E 0 80 3e 00
        E 0 80 49 00
        E 0 80 4a 00
        E 0 80 55 00
        E 0 80 56 00
        E 0 80 61 00
        E 0 80 62 00
        E 360 90 1c 64
        E 0 90 49 64
        E 0 90 55 64
        E 0 90 61 64
        E 120 80 1c 00
        E 0 80 49 00
        E 0 80 55 00
        E 0 80 61 00
        E 240 90 2f 64
        E 0 90 56 60
        E 0 90 62 64
        E 120 80 2f 00
        E 0 80 56 00
        E 0 80 62 00
        E 0 90 1c 64
        E 0 90 31 64
        E 0 90 49 64
        E 0 90 4b 64
        E 0 90 55 64
        E 0 90 57 64
        E 0 90 61 64
        E 0 90 63 64
        E 120 80 1c 00
        E 0 80 31 00
        E 0 80 49 00
        E 0 80 4b 00
        E 0 80 55 00
        E 0 80 57 00
        E 0 80 61 00
        E 0 80 63 00
        E 0 90 31 64
        E 0 90 63 64
        E 120 80 31 00
        E 0 80 63 00
        E 240 90 1c 64
        E 0 90 2f 64
        E 0 90 3d 64
        E 0 90 3e 64
        E 0 90 49 64
        E 0 90 4a 64
        E 0 90 55 64
        E 0 90 56 64
        E 0 90 61 64
        E 0 90 62 64
        E 120 80 1c 00
        E 0 80 2f 00
        E 0 80 3d 00
        E 0 80 3e 00
        E 0 80 49 00
        E 0 80 4a 00
        E 0 80 55 00
        E 0 80 56 00
        E 0 80 61 00
        E 0 80 62 00
        E 360 90 1c 64
        E 0 90 49 64
        E 0 90 55 64
        E 0 90 61 64
        E 120 80 1c 00
        E 0 80 49 00
        E 0 80 55 00
        E 0 80 61 00
        E 240 90 2f 64
        E 0 90 56 60
        E 0 90 62 64
        E 120 80 2f 00
        E 0 80 56 00
        E 0 80 62 00
        E 0 90 1c 64
        E 0 90 31 64
        E 0 90 49 64
        E 0 90 4b 64
        E 0 90 55 64
        E 0 90 57 64
        E 0 90 61 64
        E 0 90 63 64
        E 120 80 1c 00
        E 0 80 31 00
        E 0 80 49 00
        E 0 80 4b 00
        E 0 80 55 00
        E 0 80 57 00
        E 0 80 61 00
        E 0 80 63 00
        E 0 90 31 64
        E 0 90 63 64
        E 120 80 31 00
        E 0 80 63 00
        E 240 90 1c 64
        E 0 90 2f 64
        E 0 90 3d 64
        E 0 90 3e 64
        E 0 90 49 64
        E 0 90 4a 64
        E 0 90 55 64
        E 0 90 56 64
        E 0 90 61 64
        E 0 90 62 64
        E 120 80 1c 00
        E 0 80 2f 00
        E 0 80 3d 00
        E 0 80 3e 00
        E 0 80 49 00
        E 0 80 4a 00
        E 0 80 55 00
        E 0 80 56 00
        E 0 80 61 00
        E 0 80 62 00
        <X 360 0
          /wFbcGxheV0=
        >
        E 0 90 1d 64
        E 0 90 49 64
        E 0 90 55 64
        E 0 90 61 64
        E 0 90 78 64
        E 0 90 79 64
        E 0 90 7a 64
        E 0 90 7b 64
        E 0 90 7c 64
        E 120 80 1d 00
        E 0 80 49 00
        E 0 80 55 00
        E 0 80 61 00
        E 0 90 2e 64
        E 0 90 62 64
        E 120 80 2e 00
        E 0 80 62 00
        E 120 90 2f 64
        E 0 90 62 64
        E 120 80 2f 00
        E 0 80 62 00
        E 0 90 2e 64
        E 0 90 3e 64
        E 0 90 4a 64
        E 0 90 56 64
        E 0 90 62 64
        E 120 80 2e 00
        E 0 80 3e 00
        E 0 80 4a 00
        E 0 80 56 00
        E 0 80 62 00
        E 0 90 31 64
        E 0 90 63 64
        E 120 80 31 00
        E 0 80 63 00
        E 120 90 30 64
        E 0 90 63 64
        E 120 80 30 00
        E 0 80 63 00
        E 0 90 33 64
        E 0 90 4c 64
        E 0 90 58 64
        E 0 90 64 64
        E 0 90 70 64
        E 120 80 33 00
        E 0 80 4c 00
        E 0 80 58 00
        E 0 80 64 00
        E 0 80 70 00
        E 120 90 30 64
        E 0 90 57 64
        E 0 90 63 64
        E 120 80 30 00
        E 0 80 57 00
        E 0 80 63 00
        <X 120 0
          /wFbaW50ZW5zZV0=
        >
        E 0 80 78 00
        E 0 80 79 00
        E 0 80 7a 00
        E 0 80 7b 00
        E 0 80 7c 00
        E 0 90 18 64
        E 0 90 26 64
        E 0 90 40 64
        E 0 90 48 64
        E 0 90 4c 64
        E 0 90 54 64
        E 0 90 58 64
        E 0 90 60 64
        E 0 90 64 64
        E 120 80 18 00
        E 0 80 26 00
        E 0 80 40 00
        E 0 80 48 00
        E 0 80 4c 00
        E 0 80 54 00
        E 0 80 58 00
        E 0 80 60 00
        E 0 80 64 00
        E 120 90 19 60
        E 240 80 19 00
        E 0 90 18 64
        E 0 90 2f 64
        E 0 90 3e 64
        E 0 90 4a 64
        E 0 90 54 64
        E 0 90 56 64
        E 0 90 60 64
        E 0 90 62 64
        E 120 80 18 00
        E 0 80 2f 00
        E 0 80 3e 00
        E 0 80 4a 00
        E 0 80 54 00
        E 0 80 56 00
        E 0 80 60 00
        E 0 80 62 00
        E 0 90 2e 64
        E 0 90 62 64
        E 120 80 2e 00
        E 0 80 62 00
        E 0 90 19 60
        E 120 90 30 64
        E 0 90 63 64
        E 120 80 19 00
        E 0 80 30 00
        E 0 80 63 00
        E 0 90 18 64
        E 0 90 33 64
        E 0 90 4c 64
        E 0 90 54 64
        E 0 90 58 64
        E 0 90 60 64
        E 0 90 64 64
        E 0 90 70 64
        E 120 80 18 00
        E 0 80 33 00
        E 0 80 4c 00
        E 0 80 54 00
        E 0 80 58 00
        E 0 80 60 00
        E 0 80 64 00
        E 0 80 70 00
        E 120 90 19 60
        E 0 90 30 64
        E 0 90 57 64
        E 0 90 63 64
        E 120 80 30 00
        E 0 80 57 00
        E 0 80 63 00
        E 120 80 19 00
        E 0 90 18 64
        E 0 90 26 64
        E 0 90 40 64
        E 0 90 4c 64
        E 0 90 54 64
        E 0 90 58 64
        E 0 90 60 64
        E 0 90 64 64
        E 120 80 18 00
        E 0 80 26 00
        E 0 80 40 00
        E 0 80 4c 00
        E 0 80 54 00
        E 0 80 58 00
        E 0 80 60 00
        E 0 80 64 00
        E 0 90 2e 64
        E 0 90 62 64
        E 120 80 2e 00
        E 0 80 62 00
        E 0 90 19 60
        E 120 90 2f 64
        E 0 90 62 64
        E 120 80 19 00
        E 0 80 2f 00
        E 0 80 62 00
        E 0 90 18 64
        E 0 90 2e 64
        E 0 90 3e 64
        E 0 90 4a 64
        E 0 90 54 64
        E 0 90 56 64
        E 0 90 60 64
        E 0 90 62 64
        E 120 80 18 00
        E 0 80 2e 00
        E 0 80 3e 00
        E 0 80 4a 00
        E 0 80 54 00
        E 0 80 56 00
        E 0 80 60 00
        E 0 80 62 00
        E 0 90 31 64
        E 0 90 63 64
        E 120 80 31 00
        E 0 80 63 00
        E 0 90 19 60
        E 120 90 30 64
        E 0 90 63 64
        E 120 80 19 00
        E 0 80 30 00
        E 0 80 63 00
        E 0 90 18 64
        E 0 90 33 64
        E 0 90 4c 64
        E 0 90 54 64
        E 0 90 58 64
        E 0 90 60 64
        E 0 90 64 64
        E 0 90 70 64
        E 120 80 18 00
        E 0 80 33 00
        E 0 80 4c 00
        E 0 80 54 00
        E 0 80 58 00
        E 0 80 60 00
        E 0 80 64 00
        E 0 80 70 00
        E 120 90 19 60
        E 0 90 30 64
        E 0 90 57 64
        E 0 90 63 64
        E 120 80 30 00
        E 0 80 57 00
        E 0 80 63 00
        E 120 80 19 00
        E 0 90 18 64
        E 0 90 26 64
        E 0 90 40 64
        E 0 90 48 64
        E 0 90 4c 64
        E 0 90 54 64
        E 0 90 58 64
        E 0 90 60 64
        E 0 90 64 64
        E 120 80 18 00
        E 0 80 26 00
        E 0 80 40 00
        E 0 80 48 00
        E 0 80 4c 00
        E 0 80 54 00
        E 0 80 58 00
        E 0 80 60 00
        E 0 80 64 00
        E 0 90 2e 64
        E 0 90 62 64
        E 120 80 2e 00
        E 0 80 62 00
        E 0 90 19 60
        E 120 90 2f 64
        E 0 90 62 64
        E 120 80 19 00
        E 0 80 2f 00
        E 0 80 62 00
        E 0 90 18 64
        E 0 90 2e 64
        E 0 90 3e 64
        E 0 90 4a 64
        E 0 90 54 64
        E 0 90 56 64
        E 0 90 60 64
        E 0 90 62 64
        E 120 80 18 00
        E 0 80 2e 00
        E 0 80 3e 00
        E 0 80 4a 00
        E 0 80 54 00
        E 0 80 56 00
        E 0 80 60 00
        E 0 80 62 00
        E 0 90 31 64
        E 0 90 63 64
        E 120 80 31 00
        E 0 80 63 00
        E 0 90 19 60
        E 120 90 30 64
        E 0 90 63 64
        E 120 80 19 00
        E 0 80 30 00
        E 0 80 63 00
        E 0 90 18 64
        E 0 90 33 64
        E 0 90 4c 64
        E 0 90 54 64
        E 0 90 58 64
        E 0 90 60 64
        E 0 90 64 64
        E 0 90 70 64
        E 120 80 18 00
        E 0 80 33 00
        E 0 80 4c 00
        E 0 80 54 00
        E 0 80 58 00
        E 0 80 60 00
        E 0 80 64 00
        E 0 80 70 00
        E 120 90 19 60
        E 0 90 30 64
        E 0 90 57 64
        E 0 90 63 64
        E 120 80 30 00
        E 0 80 57 00
        E 0 80 63 00
        E 120 80 19 00
        E 0 90 18 64
        E 0 90 26 64
        E 0 90 40 64
        E 0 90 4c 64
        E 0 90 54 64
        E 0 90 58 64
        E 0 90 60 64
        E 0 90 64 64
        E 0 90 78 64
        E 0 90 79 64
        E 0 90 7a 64
        E 0 90 7b 64
        E 0 90 7c 64
        E 120 80 18 00
        E 0 80 26 00
        E 0 80 40 00
        E 0 80 4c 00
        E 0 80 54 00
        E 0 80 58 00
        E 0 80 60 00
        E 0 80 64 00
        E 0 90 2e 64
        E 0 90 62 64
        E 120 80 2e 00
        E 0 80 62 00
        E 0 90 19 60
        E 120 90 2f 64
        E 0 90 62 64
        E 120 80 19 00
        E 0 80 2f 00
        E 0 80 62 00
        E 0 90 18 64
        E 0 90 2e 64
        E 0 90 3e 64
        E 0 90 4a 64
        E 0 90 54 64
        E 0 90 56 64
        E 0 90 60 64
        E 0 90 62 64
        E 120 80 18 00
        E 0 80 2e 00
        E 0 80 3e 00
        E 0 80 4a 00
        E 0 80 54 00
        E 0 80 56 00
        E 0 80 60 00
        E 0 80 62 00
        E 0 90 31 64
        E 0 90 63 64
        E 120 80 31 00
        E 0 80 63 00
        E 0 90 19 60
        E 120 90 30 64
        E 0 90 63 64
        E 120 80 19 00
        E 0 80 30 00
        E 0 80 63 00
        E 0 90 18 64
        E 0 90 33 64
        E 0 90 4c 64
        E 0 90 54 64
        E 0 90 58 64
        E 0 90 60 64
        E 0 90 64 64
        E 0 90 70 64
        E 120 80 18 00
        E 0 80 33 00
        E 0 80 4c 00
        E 0 80 54 00
        E 0 80 58 00
        E 0 80 60 00
        E 0 80 64 00
        E 0 80 70 00
        E 120 90 19 60
        E 0 90 30 64
        E 0 90 57 64
        E 0 90 63 64
        E 120 80 30 00
        E 0 80 57 00
        E 0 80 63 00
        E 120 80 78 00
        E 0 80 79 00
        E 0 80 7a 00
        E 0 80 7b 00
        E 0 80 7c 00
        E 0 80 19 00
        E 0 90 18 64
        E 0 90 26 64
        E 0 90 40 64
        E 0 90 48 64
        E 0 90 4c 64
        E 0 90 54 64
        E 0 90 58 64
        E 0 90 60 64
        E 0 90 64 64
        E 120 80 18 00
        E 0 80 26 00
        E 0 80 40 00
        E 0 80 48 00
        E 0 80 4c 00
        E 0 80 54 00
        E 0 80 58 00
        E 0 80 60 00
        E 0 80 64 00
        E 0 90 2e 64
        E 0 90 62 64
        E 120 80 2e 00
        E 0 80 62 00
        E 0 90 19 60
        E 120 90 2f 64
        E 0 90 62 64
        E 120 80 19 00
        E 0 80 2f 00
        E 0 80 62 00
        E 0 90 18 64
        E 0 90 2e 64
        E 0 90 3e 64
        E 0 90 4a 64
        E 0 90 54 64
        E 0 90 56 64
        E 0 90 60 64
        E 0 90 62 64
        E 120 80 18 00
        E 0 80 2e 00
        E 0 80 3e 00
        E 0 80 4a 00
        E 0 80 54 00
        E 0 80 56 00
        E 0 80 60 00
        E 0 80 62 00
        E 0 90 31 64
        E 0 90 63 64
        E 120 80 31 00
        E 0 80 63 00
        E 0 90 19 60
        E 120 90 30 64
        E 0 90 63 64
        E 120 80 19 00
        E 0 80 30 00
        E 0 80 63 00
        E 0 90 18 64
        E 0 90 33 64
        E 0 90 4c 64
        E 0 90 54 64
        E 0 90 58 64
        E 0 90 60 64
        E 0 90 64 64
        E 0 90 70 64
        E 120 80 18 00
        E 0 80 33 00
        E 0 80 4c 00
        E 0 80 54 00
        E 0 80 58 00
        E 0 80 60 00
        E 0 80 64 00
        E 0 80 70 00
        E 120 90 19 60
        E 0 90 30 64
        E 0 90 57 64
        E 0 90 63 64
        E 120 80 30 00
        E 0 80 57 00
        E 0 80 63 00
        E 120 80 19 00
        E 0 90 18 64
        E 0 90 26 64
        E 0 90 40 64
        E 0 90 4c 64
        E 0 90 54 64
        E 0 90 58 64
        E 0 90 60 64
        E 0 90 64 64
        E 0 90 74 64
        E 120 80 18 00
        E 0 80 26 00
        E 0 80 40 00
        E 0 80 4c 00
        E 0 80 54 00
        E 0 80 58 00
        E 0 80 60 00
        E 0 80 64 00
        E 0 90 2e 64
        E 0 90 62 64
        E 120 80 2e 00
        E 0 80 62 00
        E 0 90 19 60
        E 120 90 2f 64
        E 0 90 62 64
        E 120 80 19 00
        E 0 80 2f 00
        E 0 80 62 00
        E 0 90 18 64
        E 0 90 2e 64
        E 0 90 3e 64
        E 0 90 4a 64
        E 0 90 54 64
        E 0 90 56 64
        E 0 90 60 64
        E 0 90 62 64
        E 120 80 18 00
        E 0 80 2e 00
        E 0 80 3e 00
        E 0 80 4a 00
        E 0 80 54 00
        E 0 80 56 00
        E 0 80 60 00
        E 0 80 62 00
        E 0 90 31 64
        E 0 90 63 64
        E 120 80 31 00
        E 0 80 63 00
        E 0 90 19 60
        E 120 90 30 64
        E 0 90 63 64
        E 120 80 19 00
        E 0 80 30 00
        E 0 80 63 00
        E 0 90 18 64
        E 0 90 33 64
        E 0 90 4c 64
        E 0 90 54 64
        E 0 90 58 64
        E 0 90 60 64
        E 0 90 64 64
        E 0 90 70 64
        E 120 80 18 00
        E 0 80 33 00
        E 0 80 4c 00
        E 0 80 54 00
        E 0 80 58 00
        E 0 80 60 00
        E 0 80 64 00
        E 0 80 70 00
        E 120 90 19 60
        E 0 90 30 64
        E 0 90 57 64
        E 0 90 63 64
        E 120 80 30 00
        E 0 80 57 00
        E 0 80 63 00
        E 120 80 19 00
        E 0 90 18 64
        E 0 90 26 64
        E 0 90 40 64
        E 0 90 48 64
        E 0 90 4c 64
        E 0 90 54 64
        E 0 90 58 64
        E 0 90 60 64
        E 0 90 64 64
        E 60 80 74 00
        E 60 80 18 00
        E 0 80 26 00
        E 0 80 40 00
        E 0 80 48 00
        E 0 80 4c 00
        E 0 80 54 00
        E 0 80 58 00
        E 0 80 60 00
        E 0 80 64 00
        E 0 90 2e 64
        E 0 90 62 64
        E 120 80 2e 00
        E 0 80 62 00
        E 0 90 19 60
        E 120 90 2f 64
        E 0 90 62 64
        E 120 80 19 00
        E 0 80 2f 00
        E 0 80 62 00
        E 0 90 18 64
        E 0 90 2e 64
        E 0 90 3e 64
        E 0 90 4a 64
        E 0 90 54 64
        E 0 90 56 64
        E 0 90 60 64
        E 0 90 62 64
        E 120 80 18 00
        E 0 80 2e 00
        E 0 80 3e 00
        E 0 80 4a 00
        E 0 80 54 00
        E 0 80 56 00
        E 0 80 60 00
        E 0 80 62 00
        E 0 90 31 64
        E 0 90 63 64
        E 120 80 31 00
        E 0 80 63 00
        E 0 90 19 60
        E 120 90 30 64
        E 0 90 63 64
        E 120 80 19 00
        E 0 80 30 00
        E 0 80 63 00
        E 0 90 18 64
        E 0 90 33 64
        E 0 90 4c 64
        E 0 90 54 64
        E 0 90 58 64
        E 0 90 60 64
        E 0 90 64 64
        E 0 90 70 64
        E 120 80 18 00
        E 0 80 33 00
        E 0 80 4c 00
        E 0 80 54 00
        E 0 80 58 00
        E 0 80 60 00
        E 0 80 64 00
        E 0 80 70 00
        E 120 90 19 60
        E 0 90 30 64
        E 0 90 57 64
        E 0 90 63 64
        E 120 80 30 00
        E 0 80 57 00
        E 0 80 63 00
        E 120 80 19 00
        E 0 90 18 64
        E 0 90 26 64
        E 0 90 40 64
        E 0 90 4c 64
        E 0 90 54 64
        E 0 90 58 64
        E 0 90 60 64
        E 0 90 64 64
        E 0 90 78 64
        E 0 90 79 64
        E 0 90 7a 64
        E 0 90 7b 64
        E 0 90 7c 64
        E 120 80 18 00
        E 0 80 26 00
        E 0 80 40 00
        E 0 80 4c 00
        E 0 80 54 00
        E 0 80 58 00
        E 0 80 60 00
        E 0 80 64 00
        E 0 90 2e 64
        E 0 90 62 64
        E 120 80 2e 00
        E 0 80 62 00
        E 0 90 19 60
        E 120 90 2f 64
        E 0 90 62 64
        E 120 80 19 00
        E 0 80 2f 00
        E 0 80 62 00
        E 0 90 18 64
        E 0 90 2e 64
        E 0 90 3e 64
        E 0 90 4a 64
        E 0 90 54 64
        E 0 90 56 64
        E 0 90 60 64
        E 0 90 62 64
        E 120 80 18 00
        E 0 80 2e 00
        E 0 80 3e 00
        E 0 80 4a 00
        E 0 80 54 00
        E 0 80 56 00
        E 0 80 60 00
        E 0 80 62 00
        E 0 90 31 64
        E 0 90 63 64
        E 120 80 31 00
        E 0 80 63 00
        E 0 90 19 60
        E 120 90 30 64
        E 0 90 63 64
        E 120 80 19 00
        E 0 80 30 00
        E 0 80 63 00
        E 0 90 18 64
        E 0 90 33 64
        E 0 90 4c 60
        E 0 90 54 64
        E 0 90 58 64
        E 0 90 60 64
        E 0 90 64 64
        E 0 90 70 64
        E 120 80 18 00
        E 0 80 33 00
        E 0 80 4c 00
        E 0 80 54 00
        E 0 80 58 00
        E 0 80 60 00
        E 0 80 64 00
        E 0 80 70 00
        E 240 80 6e 00
        <X 120 0
          /wFbcGxheV0=
        >
        <X 0 0
          /wFbbWl4IDMgZHJ1bXMwZF0=
        >
        E 0 80 78 00
        E 0 80 79 00
        E 0 80 7a 00
        E 0 80 7b 00
        E 0 80 7c 00
        E 0 90 1d 64
        E 0 90 3d 64
        E 0 90 3e 64
        E 0 90 49 64
        E 0 90 4a 64
        E 0 90 55 64
        E 0 90 56 64
        E 0 90 62 64
        E 120 80 1d 00
        E 0 80 3d 00
        E 0 80 3e 00
        E 0 80 49 00
        E 0 80 4a 00
        E 0 80 55 00
        E 0 80 56 00
        E 0 80 62 00
        E 0 90 1e 64
        E 0 90 61 64
        E 120 80 1e 00
        E 0 80 61 00
        E 0 90 1f 64
        E 0 90 56 64
        E 0 90 61 64
        E 120 80 1f 00
        E 0 80 56 00
        E 0 80 61 00
        E 0 90 1e 64
        E 0 90 61 64
        E 120 80 1e 00
        E 0 80 61 00
        E 0 90 1d 64
        E 0 90 49 64
        E 0 90 4a 64
        E 0 90 55 64
        E 0 90 56 64
        E 0 90 62 64
        E 120 80 1d 00
        E 0 80 49 00
        E 0 80 4a 00
        E 0 80 55 00
        E 0 80 56 00
        E 0 80 62 00
        E 0 90 1e 64
        E 0 90 61 64
        E 120 80 1e 00
        E 0 80 61 00
        E 0 90 1f 64
        E 0 90 56 64
        E 0 90 61 64
        E 120 80 1f 00
        E 0 80 56 00
        E 0 80 61 00
        E 0 90 1e 64
        E 0 90 61 64
        E 120 80 1e 00
        E 0 80 61 00
        E 0 90 1d 64
        E 0 90 49 64
        E 0 90 4a 64
        E 0 90 55 64
        E 0 90 56 64
        E 0 90 62 64
        E 120 80 1d 00
        E 0 80 49 00
        E 0 80 4a 00
        E 0 80 55 00
        E 0 80 56 00
        E 0 80 62 00
        E 0 90 1e 64
        E 0 90 61 64
        E 120 80 1e 00
        E 0 80 61 00
        E 0 90 18 64
        E 0 90 1f 64
        E 0 90 54 64
        E 0 90 56 64
        E 0 90 60 64
        E 0 90 61 64
        E 120 80 18 00
        E 0 80 1f 00
        E 0 80 54 00
        E 0 80 56 00
        E 0 80 60 00
        E 0 80 61 00
        E 0 90 1e 64
        E 0 90 61 64
        E 120 80 1e 00
        E 0 80 61 00
        E 0 90 1d 64
        E 0 90 3d 64
        E 0 90 3e 64
        E 0 90 49 64
        E 0 90 4a 64
        E 0 90 55 64
        E 0 90 56 64
        E 0 90 62 64
        E 120 80 1d 00
        E 0 80 3d 00
        E 0 80 3e 00
        E 0 80 49 00
        E 0 80 4a 00
        E 0 80 55 00
        E 0 80 56 00
        E 0 80 62 00
        E 0 90 1e 64
        E 0 90 61 64
        E 120 80 1e 00
        E 0 80 61 00
        E 0 90 1f 64
        E 0 90 56 64
        E 0 90 61 64
        E 120 80 1f 00
        E 0 80 56 00
        E 0 80 61 00
        E 0 90 1e 64
        E 0 90 61 64
        E 120 80 1e 00
        E 0 80 61 00
        E 0 90 1d 64
        E 0 90 49 64
        E 0 90 4a 64
        E 0 90 55 64
        E 0 90 56 64
        E 0 90 62 64
        E 120 80 1d 00
        E 0 80 49 00
        E 0 80 4a 00
        E 0 80 55 00
        E 0 80 56 00
        E 0 80 62 00
        E 0 90 1e 64
        E 0 90 61 64
        E 120 80 1e 00
        E 0 80 61 00
        E 0 90 1f 64
        E 0 90 56 64
        E 0 90 61 64
        E 120 80 1f 00
        E 0 80 56 00
        E 0 80 61 00
        E 0 90 1e 64
        E 0 90 61 64
        E 120 80 1e 00
        E 0 80 61 00
        E 0 90 1d 64
        E 0 90 49 64
        E 0 90 4a 64
        E 0 90 55 64
        E 0 90 56 64
        E 0 90 62 64
        E 120 80 1d 00
        E 0 80 49 00
        E 0 80 4a 00
        E 0 80 55 00
        E 0 80 56 00
        E 0 80 62 00
        E 0 90 1e 64
        E 0 90 61 64
        E 120 80 1e 00
        E 0 80 61 00
        E 0 90 18 64
        E 0 90 1f 64
        E 0 90 54 64
        E 0 90 56 64
        E 0 90 60 64
        E 0 90 61 64
        E 120 80 18 00
        E 0 80 1f 00
        E 0 80 54 00
        E 0 80 56 00
        E 0 80 60 00
        E 0 80 61 00
        E 0 90 1e 64
        E 0 90 61 64
        E 120 80 1e 00
        E 0 80 61 00
        E 0 90 1d 64
        E 0 90 3d 64
        E 0 90 3e 64
        E 0 90 49 64
        E 0 90 4a 64
        E 0 90 55 64
        E 0 90 56 64
        E 0 90 62 64
        E 120 80 1d 00
        E 0 80 3d 00
        E 0 80 3e 00
        E 0 80 49 00
        E 0 80 4a 00
        E 0 80 55 00
        E 0 80 56 00
        E 0 80 62 00
        E 0 90 1e 64
        E 0 90 61 64
        E 120 80 1e 00
        E 0 80 61 00
        E 0 90 1f 64
        E 0 90 56 64
        E 0 90 61 64
        E 120 80 1f 00
        E 0 80 56 00
        E 0 80 61 00
        E 0 90 1e 64
        E 0 90 61 64
        E 120 80 1e 00
        E 0 80 61 00
        E 0 90 1d 64
        E 0 90 49 64
        E 0 90 4a 64
        E 0 90 55 64
        E 0 90 56 64
        E 0 90 62 64
        E 120 80 1d 00
        E 0 80 49 00
        E 0 80 4a 00
        E 0 80 55 00
        E 0 80 56 00
        E 0 80 62 00
        E 0 90 1e 64
        E 0 90 61 64
        E 120 80 1e 00
        E 0 80 61 00
        E 0 90 1f 64
        E 0 90 56 64
        E 0 90 61 64
        E 120 80 1f 00
        E 0 80 56 00
        E 0 80 61 00
        E 0 90 1e 64
        E 0 90 61 64
        E 120 80 1e 00
        E 0 80 61 00
        E 0 90 1d 64
        E 0 90 49 64
        E 0 90 4a 64
        E 0 90 55 64
        E 0 90 56 64
        E 0 90 62 64
        E 120 80 1d 00
        E 0 80 49 00
        E 0 80 4a 00
        E 0 80 55 00
        E 0 80 56 00
        E 0 80 62 00
        E 0 90 1e 64
        E 0 90 61 64
        E 120 80 1e 00
        E 0 80 61 00
        E 0 90 18 64
        E 0 90 1f 64
        E 0 90 54 64
        E 0 90 56 64
        E 0 90 60 64
        E 0 90 61 64
        E 120 80 18 00
        E 0 80 1f 00
        E 0 80 54 00
        E 0 80 56 00
        E 0 80 60 00
        E 0 80 61 00
        E 0 90 1e 64
        E 0 90 61 64
        E 120 80 1e 00
        E 0 80 61 00
        E 0 90 1d 64
        E 0 90 3d 64
        E 0 90 3e 64
        E 0 90 49 64
        E 0 90 4a 64
        E 0 90 55 64
        E 0 90 56 64
        E 0 90 62 64
        E 0 90 78 64
        E 0 90 79 64
        E 0 90 7a 64
        E 0 90 7b 64
        E 0 90 7c 64
        E 120 80 1d 00
        E 0 80 3d 00
        E 0 80 3e 00
        E 0 80 49 00
        E 0 80 4a 00
        E 0 80 55 00
        E 0 80 56 00
        E 0 80 62 00
        E 0 90 1e 64
        E 0 90 61 64
        E 120 80 1e 00
        E 0 80 61 00
        E 0 90 1f 64
        E 0 90 56 64
        E 0 90 61 64
        E 120 80 1f 00
        E 0 80 56 00
        E 0 80 61 00
        E 0 90 1e 64
        E 0 90 61 64
        E 120 80 1e 00
        E 0 80 61 00
        E 0 90 1d 64
        E 0 90 49 64
        E 0 90 4a 64
        E 0 90 55 64
        E 0 90 56 64
        E 0 90 62 64
        E 120 80 1d 00
        E 0 80 49 00
        E 0 80 4a 00
        E 0 80 55 00
        E 0 80 56 00
        E 0 80 62 00
        E 0 90 1e 64
        E 0 90 61 64
        E 120 80 1e 00
        E 0 80 61 00
        E 0 90 1f 64
        E 0 90 56 64
        E 0 90 61 64
        E 120 80 1f 00
        E 0 80 56 00
        E 0 80 61 00
        E 0 90 1e 64
        E 0 90 61 64
        E 120 80 1e 00
        E 0 80 61 00
        E 0 90 1d 64
        E 0 90 49 64
        E 0 90 4a 64
        E 0 90 55 64
        E 0 90 56 64
        E 0 90 62 64
        E 120 80 1d 00
        E 0 80 49 00
        E 0 80 4a 00
        E 0 80 55 00
        E 0 80 56 00
        E 0 80 62 00
        E 0 90 1e 64
        E 0 90 61 64
        E 120 80 1e 00
        E 0 80 61 00
        E 0 90 18 64
        E 0 90 1f 64
        E 0 90 54 64
        E 0 90 56 64
        E 0 90 60 64
        E 0 90 61 64
        E 120 80 18 00
        E 0 80 1f 00
        E 0 80 54 00
        E 0 80 56 00
        E 0 80 60 00
        E 0 80 61 00
        E 0 90 1e 64
        E 0 90 61 64
        E 120 80 78 00
        E 0 80 79 00
        E 0 80 7a 00
        E 0 80 7b 00
        E 0 80 7c 00
        E 0 80 1e 00
        E 0 80 61 00
        E 0 90 1d 64
        E 0 90 3d 64
        E 0 90 3e 64
        E 0 90 49 64
        E 0 90 4a 64
        E 0 90 55 64
        E 0 90 56 64
        E 0 90 62 64
        E 120 80 1d 00
        E 0 80 3d 00
        E 0 80 3e 00
        E 0 80 49 00
        E 0 80 4a 00
        E 0 80 55 00
        E 0 80 56 00
        E 0 80 62 00
        E 0 90 1e 64
        E 0 90 61 64
        E 120 80 1e 00
        E 0 80 61 00
        E 0 90 1f 64
        E 0 90 56 64
        E 0 90 61 64
        E 120 80 1f 00
        E 0 80 56 00
        E 0 80 61 00
        E 0 90 1e 64
        E 0 90 61 64
        E 120 80 1e 00
        E 0 80 61 00
        E 0 90 1d 64
        E 0 90 49 64
        E 0 90 4a 64
        E 0 90 55 64
        E 0 90 56 64
        E 0 90 62 64
        E 120 80 1d 00
        E 0 80 49 00
        E 0 80 4a 00
        E 0 80 55 00
        E 0 80 56 00
        E 0 80 62 00
        E 0 90 1e 64
        E 0 90 61 64
        E 120 80 1e 00
        E 0 80 61 00
        E 0 90 1f 64
        E 0 90 56 64
        E 0 90 61 64
        E 120 80 1f 00
        E 0 80 56 00
        E 0 80 61 00
        E 0 90 1e 64
        E 0 90 61 64
        E 120 80 1e 00
        E 0 80 61 00
        E 0 90 1d 64
        E 0 90 49 64
        E 0 90 4a 64
        E 0 90 55 64
        E 0 90 56 64
        E 0 90 62 64
        E 120 80 1d 00
        E 0 80 49 00
        E 0 80 4a 00
        E 0 80 55 00
        E 0 80 56 00
        E 0 80 62 00
        E 0 90 1e 64
        E 0 90 61 64
        E 120 80 1e 00
        E 0 80 61 00
        E 0 90 18 64
        E 0 90 1f 64
        E 0 90 54 64
        E 0 90 56 64
        E 0 90 60 64
        E 0 90 61 64
        E 120 80 18 00
        E 0 80 1f 00
        E 0 80 54 00
        E 0 80 56 00
        E 0 80 60 00
        E 0 80 61 00
        E 0 90 1e 64
        E 0 90 61 64
        E 120 80 1e 00
        E 0 80 61 00
        E 0 90 1d 64
        E 0 90 3d 64
        E 0 90 3e 64
        E 0 90 49 64
        E 0 90 4a 64
        E 0 90 55 64
        E 0 90 56 64
        E 0 90 62 64
        E 120 80 1d 00
        E 0 80 3d 00
        E 0 80 3e 00
        E 0 80 49 00
        E 0 80 4a 00
        E 0 80 55 00
        E 0 80 56 00
        E 0 80 62 00
        E 0 90 1e 64
        E 0 90 61 64
        E 120 80 1e 00
        E 0 80 61 00
        E 0 90 1f 64
        E 0 90 56 64
        E 0 90 61 64
        E 120 80 1f 00
        E 0 80 56 00
        E 0 80 61 00
        E 0 90 1e 64
        E 0 90 61 64
        E 120 80 1e 00
        E 0 80 61 00
        E 0 90 1d 64
        E 0 90 49 64
        E 0 90 4a 64
        E 0 90 55 64
        E 0 90 56 64
        E 0 90 62 64
        E 120 80 1d 00
        E 0 80 49 00
        E 0 80 4a 00
        E 0 80 55 00
        E 0 80 56 00
        E 0 80 62 00
        E 0 90 1e 64
        E 0 90 61 64
        E 120 80 1e 00
        E 0 80 61 00
        E 0 90 1f 64
        E 0 90 56 64
        E 0 90 61 64
        E 120 80 1f 00
        E 0 80 56 00
        E 0 80 61 00
        E 0 90 1e 64
        E 0 90 61 64
        E 120 80 1e 00
        E 0 80 61 00
        E 0 90 1d 64
        E 0 90 49 64
        E 0 90 4a 64
        E 0 90 55 64
        E 0 90 56 64
        E 0 90 62 64
        E 120 80 1d 00
        E 0 80 49 00
        E 0 80 4a 00
        E 0 80 55 00
        E 0 80 56 00
        E 0 80 62 00
        E 0 90 1e 64
        E 0 90 61 64
        E 120 80 1e 00
        E 0 80 61 00
        E 0 90 18 64
        E 0 90 1f 64
        E 0 90 54 64
        E 0 90 56 64
        E 0 90 60 64
        E 0 90 61 64
        E 120 80 18 00
        E 0 80 1f 00
        E 0 80 54 00
        E 0 80 56 00
        E 0 80 60 00
        E 0 80 61 00
        E 0 90 1e 64
        E 0 90 61 64
        E 120 80 1e 00
        E 0 80 61 00
        E 0 90 1d 64
        E 0 90 3d 64
        E 0 90 3e 64
        E 0 90 49 64
        E 0 90 4a 64
        E 0 90 55 64
        E 0 90 56 64
        E 0 90 62 64
        E 120 80 1d 00
        E 0 80 3d 00
        E 0 80 3e 00
        E 0 80 49 00
        E 0 80 4a 00
        E 0 80 55 00
        E 0 80 56 00
        E 0 80 62 00
        E 0 90 1e 64
        E 0 90 61 64
        E 120 80 1e 00
        E 0 80 61 00
        E 0 90 1f 64
        E 0 90 56 64
        E 0 90 61 64
        E 120 80 1f 00
        E 0 80 56 00
        E 0 80 61 00
        E 0 90 1e 64
        E 0 90 61 64
        E 120 80 1e 00
        E 0 80 61 00
        E 0 90 1d 64
        E 0 90 49 64
        E 0 90 4a 64
        E 0 90 55 64
        E 0 90 56 64
        E 0 90 62 64
        E 120 80 1d 00
        E 0 80 49 00
        E 0 80 4a 00
        E 0 80 55 00
        E 0 80 56 00
        E 0 80 62 00
        E 0 90 1e 64
        E 0 90 61 64
        E 120 80 1e 00
        E 0 80 61 00
        E 0 90 1f 64
        E 0 90 56 64
        E 0 90 61 64
        E 120 80 1f 00
        E 0 80 56 00
        E 0 80 61 00
        E 0 90 1e 64
        E 0 90 61 64
        E 120 80 1e 00
        E 0 80 61 00
        E 0 90 1d 64
        E 0 90 49 64
        E 0 90 4a 64
        E 0 90 55 64
        E 0 90 56 64
        E 0 90 62 64
        E 120 80 1d 00
        E 0 80 49 00
        E 0 80 4a 00
        E 0 80 55 00
        E 0 80 56 00
        E 0 80 62 00
        E 0 90 1e 64
        E 0 90 61 64
        E 120 80 1e 00
        E 0 80 61 00
        E 0 90 18 64
        E 0 90 1f 64
        E 0 90 54 64
        E 0 90 56 64
        E 0 90 60 64
        E 0 90 61 64
        E 120 80 18 00
        E 0 80 1f 00
        E 0 80 54 00
        E 0 80 56 00
        E 0 80 60 00
        E 0 80 61 00
        <X 120 0
          /wFbbWl4IDMgZHJ1bXMwXQ==
        >
        E 0 90 2f 64
        E 0 90 3e 60
        E 0 90 4a 64
        E 0 90 56 64
        E 0 90 62 64
        E 0 90 6e 64
        E 0 90 78 64
        E 0 90 79 64
        E 0 90 7a 64
        E 0 90 7b 64
        E 0 90 7c 64
        E 120 80 2f 00
        E 0 80 3e 00
        E 0 80 4a 00
        E 0 80 56 00
        E 0 80 62 00
        E 0 90 2e 64
        E 0 90 62 64
        E 120 80 2e 00
        E 0 80 62 00
        E 120 90 2f 64
        E 0 90 62 64
        E 120 80 2f 00
        E 0 80 62 00
        E 0 90 2e 64
        E 0 90 56 64
        E 0 90 62 64
        E 120 80 2e 00
        E 0 80 56 00
        E 0 80 62 00
        E 0 90 31 64
        E 0 90 63 64
        E 120 80 31 00
        E 0 80 63 00
        E 120 90 30 64
        E 0 90 63 64
        E 120 80 30 00
        E 0 80 63 00
        E 0 90 33 64
        E 0 90 4c 64
        E 0 90 58 64
        E 0 90 64 64
        E 0 90 70 64
        E 120 80 33 00
        E 0 80 4c 00
        E 0 80 58 00
        E 0 80 64 00
        E 0 80 70 00
        E 120 90 31 64
        E 0 90 57 64
        E 0 90 63 64
        E 120 80 31 00
        E 0 80 57 00
        E 0 80 63 00
        <X 120 0
          /wFbaW50ZW5zZV0=
        >
        E 0 80 78 00
        E 0 80 79 00
        E 0 80 7a 00
        E 0 80 7b 00
        E 0 80 7c 00
        E 0 90 18 64
        E 0 90 26 64
        E 0 90 40 64
        E 0 90 48 64
        E 0 90 4c 64
        E 0 90 54 64
        E 0 90 58 64
        E 0 90 60 64
        E 0 90 64 64
        E 120 80 18 00
        E 0 80 26 00
        E 0 80 40 00
        E 0 80 48 00
        E 0 80 4c 00
        E 0 80 54 00
        E 0 80 58 00
        E 0 80 60 00
        E 0 80 64 00
        E 120 90 19 60
        E 240 80 19 00
        E 0 90 18 64
        E 0 90 2f 64
        E 0 90 3e 64
        E 0 90 4a 64
        E 0 90 54 64
        E 0 90 56 64
        E 0 90 60 64
        E 0 90 62 64
        E 0 90 74 64
        E 120 80 18 00
        E 0 80 2f 00
        E 0 80 3e 00
        E 0 80 4a 00
        E 0 80 54 00
        E 0 80 56 00
        E 0 80 60 00
        E 0 80 62 00
        E 0 90 2e 64
        E 0 90 62 64
        E 120 80 2e 00
        E 0 80 62 00
        E 0 90 19 60
        E 120 90 30 64
        E 0 90 63 64
        E 120 80 19 00
        E 0 80 30 00
        E 0 80 63 00
        E 0 90 18 64
        E 0 90 33 64
        E 0 90 4c 64
        E 0 90 54 64
        E 0 90 58 64
        E 0 90 60 64
        E 0 90 64 64
        E 0 90 70 64
        E 120 80 18 00
        E 0 80 33 00
        E 0 80 4c 00
        E 0 80 54 00
        E 0 80 58 00
        E 0 80 60 00
        E 0 80 64 00
        E 0 80 70 00
        E 120 90 19 60
        E 0 90 30 64
        E 0 90 57 64
        E 0 90 63 64
        E 120 80 30 00
        E 0 80 57 00
        E 0 80 63 00
        E 120 80 19 00
        E 0 90 18 64
        E 0 90 26 64
        E 0 90 40 64
        E 0 90 4c 64
        E 0 90 54 64
        E 0 90 58 64
        E 0 90 60 64
        E 0 90 64 64
        E 120 80 18 00
        E 0 80 26 00
        E 0 80 40 00
        E 0 80 4c 00
        E 0 80 54 00
        E 0 80 58 00
        E 0 80 60 00
        E 0 80 64 00
        E 0 90 2e 64
        E 0 90 62 64
        E 120 80 2e 00
        E 0 80 62 00
        E 0 90 19 60
        E 120 90 2f 64
        E 0 90 62 64
        E 120 80 19 00
        E 0 80 2f 00
        E 0 80 62 00
        E 0 90 18 64
        E 0 90 2e 64
        E 0 90 3e 64
        E 0 90 4a 64
        E 0 90 54 64
        E 0 90 56 64
        E 0 90 60 64
        E 0 90 62 64
        E 120 80 18 00
        E 0 80 2e 00
        E 0 80 3e 00
        E 0 80 4a 00
        E 0 80 54 00
        E 0 80 56 00
        E 0 80 60 00
        E 0 80 62 00
        E 0 90 31 64
        E 0 90 63 64
        E 120 80 31 00
        E 0 80 63 00
        E 0 90 19 60
        E 120 90 30 64
        E 0 90 63 64
        E 120 80 19 00
        E 0 80 30 00
        E 0 80 63 00
        E 0 90 18 64
        E 0 90 33 64
        E 0 90 4c 64
        E 0 90 54 64
        E 0 90 58 64
        E 0 90 60 64
        E 0 90 64 64
        E 0 90 70 64
        E 120 80 18 00
        E 0 80 33 00
        E 0 80 4c 00
        E 0 80 54 00
        E 0 80 58 00
        E 0 80 60 00
        E 0 80 64 00
        E 0 80 70 00
        E 120 90 19 60
        E 0 90 30 64
        E 0 90 57 64
        E 0 90 63 64
        E 120 80 30 00
        E 0 80 57 00
        E 0 80 63 00
        E 120 80 19 00
        E 0 90 18 64
        E 0 90 26 64
        E 0 90 40 64
        E 0 90 48 64
        E 0 90 4c 64
        E 0 90 54 64
        E 0 90 58 64
        E 0 90 60 64
        E 0 90 64 64
        E 120 80 74 00
        E 0 80 18 00
        E 0 80 26 00
        E 0 80 40 00
        E 0 80 48 00
        E 0 80 4c 00
        E 0 80 54 00
        E 0 80 58 00
        E 0 80 60 00
        E 0 80 64 00
        E 0 90 2e 64
        E 0 90 62 64
        E 120 80 2e 00
        E 0 80 62 00
        E 0 90 19 60
        E 120 90 2f 64
        E 0 90 62 64
        E 120 80 19 00
        E 0 80 2f 00
        E 0 80 62 00
        E 0 90 18 64
        E 0 90 2e 64
        E 0 90 3e 64
        E 0 90 4a 64
        E 0 90 54 64
        E 0 90 56 64
        E 0 90 60 64
        E 0 90 62 64
        E 120 80 18 00
        E 0 80 2e 00
        E 0 80 3e 00
        E 0 80 4a 00
        E 0 80 54 00
        E 0 80 56 00
        E 0 80 60 00
        E 0 80 62 00
        E 0 90 31 64
        E 0 90 63 64
        E 120 80 31 00
        E 0 80 63 00
        E 0 90 19 60
        E 120 90 30 64
        E 0 90 63 64
        E 120 80 19 00
        E 0 80 30 00
        E 0 80 63 00
        E 0 90 18 64
        E 0 90 33 64
        E 0 90 4c 64
        E 0 90 54 64
        E 0 90 58 64
        E 0 90 60 64
        E 0 90 64 64
        E 0 90 70 64
        E 120 80 18 00
        E 0 80 33 00
        E 0 80 4c 00
        E 0 80 54 00
        E 0 80 58 00
        E 0 80 60 00
        E 0 80 64 00
        E 0 80 70 00
        E 120 90 19 60
        E 0 90 30 64
        E 0 90 57 64
        E 0 90 63 64
        E 120 80 30 00
        E 0 80 57 00
        E 0 80 63 00
        E 120 80 19 00
        E 0 90 18 64
        E 0 90 26 64
        E 0 90 40 64
        E 0 90 4c 64
        E 0 90 54 64
        E 0 90 58 64
        E 0 90 60 64
        E 0 90 64 64
        E 0 90 78 64
        E 0 90 79 64
        E 0 90 7a 64
        E 0 90 7b 64
        E 0 90 7c 64
        E 120 80 18 00
        E 0 80 26 00
        E 0 80 40 00
        E 0 80 4c 00
        E 0 80 54 00
        E 0 80 58 00
        E 0 80 60 00
        E 0 80 64 00
        E 0 90 2e 64
        E 0 90 62 64
        E 120 80 2e 00
        E 0 80 62 00
        E 0 90 19 60
        E 120 90 2f 64
        E 0 90 62 64
        E 120 80 19 00
        E 0 80 2f 00
        E 0 80 62 00
        E 0 90 18 64
        E 0 90 2e 64
        E 0 90 3e 64
        E 0 90 4a 64
        E 0 90 54 64
        E 0 90 56 64
        E 0 90 60 64
        E 0 90 62 64
        E 120 80 18 00
        E 0 80 2e 00
        E 0 80 3e 00
        E 0 80 4a 00
        E 0 80 54 00
        E 0 80 56 00
        E 0 80 60 00
        E 0 80 62 00
        E 0 90 31 64
        E 0 90 63 64
        E 120 80 31 00
        E 0 80 63 00
        E 0 90 19 60
        E 120 90 30 64
        E 0 90 63 64
        E 120 80 19 00
        E 0 80 30 00
        E 0 80 63 00
        E 0 90 18 64
        E 0 90 33 64
        E 0 90 4c 64
        E 0 90 54 64
        E 0 90 58 64
        E 0 90 60 64
        E 0 90 64 64
        E 0 90 70 64
        E 120 80 18 00
        E 0 80 33 00
        E 0 80 4c 00
        E 0 80 54 00
        E 0 80 58 00
        E 0 80 60 00
        E 0 80 64 00
        E 0 80 70 00
        E 120 90 19 60
        E 0 90 30 64
        E 0 90 57 64
        E 0 90 63 64
        E 120 80 30 00
        E 0 80 57 00
        E 0 80 63 00
        E 120 80 78 00
        E 0 80 79 00
        E 0 80 7a 00
        E 0 80 7b 00
        E 0 80 7c 00
        E 0 80 19 00
        E 0 90 18 64
        E 0 90 26 64
        E 0 90 40 64
        E 0 90 48 64
        E 0 90 4c 64
        E 0 90 54 64
        E 0 90 58 64
        E 0 90 60 64
        E 0 90 64 64
        E 120 80 18 00
        E 0 80 26 00
        E 0 80 40 00
        E 0 80 48 00
        E 0 80 4c 00
        E 0 80 54 00
        E 0 80 58 00
        E 0 80 60 00
        E 0 80 64 00
        E 0 90 2e 64
        E 0 90 62 64
        E 120 80 2e 00
        E 0 80 62 00
        E 0 90 19 60
        E 120 90 2f 64
        E 0 90 62 64
        E 120 80 19 00
        E 0 80 2f 00
        E 0 80 62 00
        E 0 90 18 64
        E 0 90 2e 64
        E 0 90 3e 64
        E 0 90 4a 64
        E 0 90 54 64
        E 0 90 56 64
        E 0 90 60 64
        E 0 90 62 64
        E 120 80 18 00
        E 0 80 2e 00
        E 0 80 3e 00
        E 0 80 4a 00
        E 0 80 54 00
        E 0 80 56 00
        E 0 80 60 00
        E 0 80 62 00
        E 0 90 31 64
        E 0 90 63 64
        E 120 80 31 00
        E 0 80 63 00
        E 0 90 19 60
        E 120 90 30 64
        E 0 90 63 64
        E 120 80 19 00
        E 0 80 30 00
        E 0 80 63 00
        E 0 90 18 64
        E 0 90 33 64
        E 0 90 4c 64
        E 0 90 54 64
        E 0 90 58 64
        E 0 90 60 64
        E 0 90 64 64
        E 0 90 70 64
        E 120 80 18 00
        E 0 80 33 00
        E 0 80 4c 00
        E 0 80 54 00
        E 0 80 58 00
        E 0 80 60 00
        E 0 80 64 00
        E 0 80 70 00
        E 120 90 19 60
        E 0 90 30 64
        E 0 90 57 64
        E 0 90 63 64
        E 120 80 30 00
        E 0 80 57 00
        E 0 80 63 00
        E 120 80 19 00
        E 0 90 18 64
        E 0 90 26 64
        E 0 90 40 64
        E 0 90 4c 64
        E 0 90 54 64
        E 0 90 58 64
        E 0 90 60 64
        E 0 90 64 64
        E 120 80 18 00
        E 0 80 26 00
        E 0 80 40 00
        E 0 80 4c 00
        E 0 80 54 00
        E 0 80 58 00
        E 0 80 60 00
        E 0 80 64 00
        E 0 90 2e 64
        E 0 90 62 64
        E 120 80 2e 00
        E 0 80 62 00
        E 0 90 19 60
        E 120 90 2f 64
        E 0 90 62 64
        E 120 80 19 00
        E 0 80 2f 00
        E 0 80 62 00
        E 0 90 18 64
        E 0 90 2e 64
        E 0 90 3e 64
        E 0 90 4a 64
        E 0 90 54 64
        E 0 90 56 64
        E 0 90 60 64
        E 0 90 62 64
        E 120 80 18 00
        E 0 80 2e 00
        E 0 80 3e 00
        E 0 80 4a 00
        E 0 80 54 00
        E 0 80 56 00
        E 0 80 60 00
        E 0 80 62 00
        E 0 90 31 64
        E 0 90 63 64
        E 120 80 31 00
        E 0 80 63 00
        E 0 90 19 60
        E 120 90 30 64
        E 0 90 63 64
        E 120 80 19 00
        E 0 80 30 00
        E 0 80 63 00
        E 0 90 18 64
        E 0 90 33 64
        E 0 90 4c 64
        E 0 90 54 64
        E 0 90 58 64
        E 0 90 60 64
        E 0 90 64 64
        E 0 90 70 64
        E 120 80 18 00
        E 0 80 33 00
        E 0 80 4c 00
        E 0 80 54 00
        E 0 80 58 00
        E 0 80 60 00
        E 0 80 64 00
        E 0 80 70 00
        E 120 90 19 60
        E 0 90 30 64
        E 0 90 57 64
        E 0 90 63 64
        E 120 80 30 00
        E 0 80 57 00
        E 0 80 63 00
        E 120 80 19 00
        E 0 90 18 64
        E 0 90 26 64
        E 0 90 40 64
        E 0 90 48 64
        E 0 90 4c 64
        E 0 90 54 64
        E 0 90 58 64
        E 0 90 60 64
        E 0 90 64 64
        E 120 80 18 00
        E 0 80 26 00
        E 0 80 40 00
        E 0 80 48 00
        E 0 80 4c 00
        E 0 80 54 00
        E 0 80 58 00
        E 0 80 60 00
        E 0 80 64 00
        E 0 90 2e 64
        E 0 90 62 64
        E 120 80 2e 00
        E 0 80 62 00
        E 0 90 19 60
        E 120 90 2f 64
        E 0 90 62 64
        E 120 80 19 00
        E 0 80 2f 00
        E 0 80 62 00
        E 0 90 18 64
        E 0 90 2e 64
        E 0 90 3e 64
        E 0 90 4a 64
        E 0 90 54 64
        E 0 90 56 64
        E 0 90 60 64
        E 0 90 62 64
        E 120 80 18 00
        E 0 80 2e 00
        E 0 80 3e 00
        E 0 80 4a 00
        E 0 80 54 00
        E 0 80 56 00
        E 0 80 60 00
        E 0 80 62 00
        E 0 90 31 64
        E 0 90 63 64
        E 120 80 31 00
        E 0 80 63 00
        E 0 90 19 60
        E 120 90 30 64
        E 0 90 63 64
        E 120 80 19 00
        E 0 80 30 00
        E 0 80 63 00
        E 0 90 18 64
        E 0 90 33 64
        E 0 90 4c 64
        E 0 90 54 64
        E 0 90 58 64
        E 0 90 60 64
        E 0 90 64 64
        E 0 90 70 64
        E 120 80 18 00
        E 0 80 33 00
        E 0 80 4c 00
        E 0 80 54 00
        E 0 80 58 00
        E 0 80 60 00
        E 0 80 64 00
        E 0 80 70 00
        E 120 90 19 60
        E 0 90 30 64
        E 0 90 57 64
        E 0 90 63 64
        E 120 80 30 00
        E 0 80 57 00
        E 0 80 63 00
        E 120 80 19 00
        E 0 90 18 64
        E 0 90 26 64
        E 0 90 40 64
        E 0 90 4c 64
        E 0 90 54 64
        E 0 90 58 64
        E 0 90 60 64
        E 0 90 64 64
        E 0 90 78 64
        E 0 90 79 64
        E 0 90 7a 64
        E 0 90 7b 64
        E 0 90 7c 64
        E 120 80 18 00
        E 0 80 26 00
        E 0 80 40 00
        E 0 80 4c 00
        E 0 80 54 00
        E 0 80 58 00
        E 0 80 60 00
        E 0 80 64 00
        E 0 90 2e 64
        E 0 90 62 64
        E 120 80 2e 00
        E 0 80 62 00
        E 0 90 19 60
        E 120 90 2f 64
        E 0 90 62 64
        E 120 80 19 00
        E 0 80 2f 00
        E 0 80 62 00
        E 0 90 18 64
        E 0 90 2e 64
        E 0 90 3e 64
        E 0 90 4a 64
        E 0 90 54 64
        E 0 90 56 64
        E 0 90 60 64
        E 0 90 62 64
        E 120 80 18 00
        E 0 80 2e 00
        E 0 80 3e 00
        E 0 80 4a 00
        E 0 80 54 00
        E 0 80 56 00
        E 0 80 60 00
        E 0 80 62 00
        E 0 90 31 64
        E 0 90 63 64
        E 120 80 31 00
        E 0 80 63 00
        E 0 90 19 60
        E 120 90 30 64
        E 0 90 63 64
        E 120 80 19 00
        E 0 80 30 00
        E 0 80 63 00
        E 0 90 18 64
        E 0 90 33 64
        E 0 90 4c 64
        E 0 90 54 64
        E 0 90 58 64
        E 0 90 60 64
        E 0 90 64 64
        E 0 90 70 64
        E 120 80 18 00
        E 0 80 33 00
        E 0 80 4c 00
        E 0 80 54 00
        E 0 80 58 00
        E 0 80 60 00
        E 0 80 64 00
        E 0 80 70 00
        E 120 90 19 60
        E 240 80 78 00
        E 0 80 79 00
        E 0 80 7a 00
        E 0 80 7b 00
        E 0 80 7c 00
        E 0 80 19 00
        E 0 90 18 64
        E 0 90 3c 64
        E 0 90 48 64
        E 0 90 54 64
        E 0 90 60 64
        E 120 80 18 00
        E 0 80 3c 00
        E 0 80 48 00
        E 0 80 54 00
        E 0 80 60 00
        <X 240 0
          /wFbbWVsbG93XQ==
        >
        E 0 90 56 60
        E 0 90 2f 64
        E 0 90 62 64
        E 120 80 56 00
        E 0 80 2f 00
        E 0 80 62 00
        E 0 90 31 64
        E 0 90 4b 64
        E 0 90 57 64
        E 0 90 63 64
        E 120 80 31 00
        E 0 80 4b 00
        E 0 80 57 00
        E 0 80 63 00
        E 0 90 31 64
        E 0 90 63 64
        E 120 80 31 00
        E 0 80 63 00
        E 240 90 2f 64
        E 0 90 3e 64
        E 0 90 4a 64
        E 0 90 56 64
        E 0 90 62 64
        E 120 80 2f 00
        E 0 80 3e 00
        E 0 80 4a 00
        E 0 80 56 00
        E 0 80 62 00
        E 720 90 56 60
        E 0 90 2f 64
        E 0 90 62 64
        E 120 80 56 00
        E 0 80 2f 00
        E 0 80 62 00
        E 0 90 31 64
        E 0 90 4b 64
        E 0 90 57 64
        E 0 90 63 64
        E 120 80 31 00
        E 0 80 4b 00
        E 0 80 57 00
        E 0 80 63 00
        E 0 90 31 64
        E 0 90 63 64
        E 120 80 31 00
        E 0 80 63 00
        E 240 90 2f 64
        E 0 90 3e 64
        E 0 90 4a 64
        E 0 90 56 64
        E 0 90 62 64
        E 120 80 2f 00
        E 0 80 3e 00
        E 0 80 4a 00
        E 0 80 56 00
        E 0 80 62 00
        E 720 90 56 60
        E 0 90 2f 64
        E 0 90 62 64
        E 120 80 56 00
        E 0 80 2f 00
        E 0 80 62 00
        E 0 90 31 64
        E 0 90 4b 64
        E 0 90 57 64
        E 0 90 63 64
        E 120 80 31 00
        E 0 80 4b 00
        E 0 80 57 00
        E 0 80 63 00
        E 0 90 31 64
        E 0 90 63 64
        E 120 80 31 00
        E 0 80 63 00
        E 240 90 2f 64
        E 0 90 3e 64
        E 0 90 4a 64
        E 0 90 56 64
        E 0 90 62 64
        E 120 80 2f 00
        E 0 80 3e 00
        E 0 80 4a 00
        E 0 80 56 00
        E 0 80 62 00
        E 360 90 78 64
        E 0 90 79 64
        E 0 90 7a 64
        E 0 90 7b 64
        E 0 90 7c 64
        E 360 90 56 60
        E 0 90 2f 64
        E 0 90 62 64
        E 120 80 56 00
        E 0 80 2f 00
        E 0 80 62 00
        E 0 90 31 64
        E 0 90 4b 64
        E 0 90 57 64
        E 0 90 63 64
        E 120 80 31 00
        E 0 80 4b 00
        E 0 80 57 00
        E 0 80 63 00
        E 0 90 31 64
        E 0 90 63 64
        E 120 80 31 00
        E 0 80 63 00
        E 240 90 2f 64
        E 0 90 3e 64
        E 0 90 4a 64
        E 0 90 56 64
        E 0 90 62 64
        E 120 80 2f 00
        E 0 80 3e 00
        E 0 80 4a 00
        E 0 80 56 00
        E 0 80 62 00
        E 360 80 78 00
        E 0 80 79 00
        E 0 80 7a 00
        E 0 80 7b 00
        E 0 80 7c 00
        E 240 90 74 64
        E 120 90 56 60
        E 0 90 2f 64
        E 0 90 62 64
        E 120 80 56 00
        E 0 80 2f 00
        E 0 80 62 00
        E 0 90 31 64
        E 0 90 4b 64
        E 0 90 57 64
        E 0 90 63 64
        E 120 80 31 00
        E 0 80 4b 00
        E 0 80 57 00
        E 0 80 63 00
        E 0 90 31 64
        E 0 90 63 64
        E 120 80 31 00
        E 0 80 63 00
        E 240 90 2f 64
        E 0 90 3e 64
        E 0 90 4a 64
        E 0 90 56 64
        E 0 90 62 64
        E 120 80 2f 00
        E 0 80 3e 00
        E 0 80 4a 00
        E 0 80 56 00
        E 0 80 62 00
        E 720 90 56 60
        E 0 90 2f 64
        E 0 90 62 64
        E 120 80 56 00
        E 0 80 2f 00
        E 0 80 62 00
        E 0 90 31 64
        E 0 90 4b 64
        E 0 90 57 64
        E 0 90 63 64
        E 120 80 31 00
        E 0 80 4b 00
        E 0 80 57 00
        E 0 80 63 00
        E 0 90 31 64
        E 0 90 63 64
        E 120 80 31 00
        E 0 80 63 00
        E 240 90 2f 64
        E 0 90 3e 64
        E 0 90 4a 64
        E 0 90 56 64
        E 0 90 62 64
        E 120 80 2f 00
        E 0 80 3e 00
        E 0 80 4a 00
        E 0 80 56 00
        E 0 80 62 00
        E 360 80 74 00
        E 360 90 56 60
        E 0 90 2f 64
        E 0 90 62 64
        E 120 80 56 00
        E 0 80 2f 00
        E 0 80 62 00
        E 0 90 31 64
        E 0 90 4b 64
        E 0 90 57 64
        E 0 90 63 64
        E 120 80 31 00
        E 0 80 4b 00
        E 0 80 57 00
        E 0 80 63 00
        E 0 90 31 64
        E 0 90 63 64
        E 120 80 31 00
        E 0 80 63 00
        E 240 90 2f 64
        E 0 90 3e 64
        E 0 90 4a 64
        E 0 90 56 64
        E 0 90 62 64
        E 120 80 2f 00
        E 0 80 3e 00
        E 0 80 4a 00
        E 0 80 56 00
        E 0 80 62 00
        E 360 90 78 64
        E 0 90 79 64
        E 0 90 7a 64
        E 0 90 7b 64
        E 0 90 7c 64
        E 360 90 56 60
        E 0 90 2f 64
        E 0 90 62 64
        E 120 80 56 00
        E 0 80 2f 00
        E 0 80 62 00
        E 0 90 31 64
        E 0 90 4b 64
        E 0 90 57 64
        E 0 90 63 64
        E 120 80 31 00
        E 0 80 4b 00
        E 0 80 57 00
        E 0 80 63 00
        E 0 90 31 64
        E 0 90 63 64
        E 120 80 31 00
        E 0 80 63 00
        E 240 90 2f 64
        E 0 90 3e 64
        E 0 90 4a 64
        E 0 90 56 64
        E 0 90 62 64
        E 120 80 2f 00
        E 0 80 3e 00
        E 0 80 4a 00
        E 0 80 56 00
        E 0 80 62 00
        E 360 80 78 00
        E 0 80 79 00
        E 0 80 7a 00
        E 0 80 7b 00
        E 0 80 7c 00
        E 360 90 56 60
        E 0 90 2f 64
        E 0 90 62 64
        E 120 80 56 00
        E 0 80 2f 00
        E 0 80 62 00
        E 0 90 31 64
        E 0 90 4b 64
        E 0 90 57 64
        E 0 90 63 64
        E 120 80 31 00
        E 0 80 4b 00
        E 0 80 57 00
        E 0 80 63 00
        E 0 90 31 64
        E 0 90 63 64
        E 120 80 31 00
        E 0 80 63 00
        E 240 90 2f 64
        E 0 90 3e 64
        E 0 90 4a 64
        E 0 90 56 64
        E 0 90 62 64
        E 120 80 2f 00
        E 0 80 3e 00
        E 0 80 4a 00
        E 0 80 56 00
        E 0 80 62 00
        E 720 90 56 60
        E 0 90 2f 64
        E 0 90 62 64
        E 120 80 56 00
        E 0 80 2f 00
        E 0 80 62 00
        E 0 90 31 64
        E 0 90 4b 64
        E 0 90 57 64
        E 0 90 63 64
        E 120 80 31 00
        E 0 80 4b 00
        E 0 80 57 00
        E 0 80 63 00
        E 0 90 31 64
        E 0 90 63 64
        E 120 80 31 00
        E 0 80 63 00
        E 240 90 2f 64
        E 0 90 3e 64
        E 0 90 4a 64
        E 0 90 56 64
        E 0 90 62 64
        E 120 80 2f 00
        E 0 80 3e 00
        E 0 80 4a 00
        E 0 80 56 00
        E 0 80 62 00
        E 720 90 56 60
        E 0 90 2f 64
        E 0 90 62 64
        E 120 80 56 00
        E 0 80 2f 00
        E 0 80 62 00
        E 0 90 31 64
        E 0 90 4b 64
        E 0 90 57 64
        E 0 90 63 64
        E 120 80 31 00
        E 0 80 4b 00
        E 0 80 57 00
        E 0 80 63 00
        E 0 90 31 64
        E 0 90 63 64
        E 120 80 31 00
        E 0 80 63 00
        E 240 90 2f 64
        E 0 90 3e 64
        E 0 90 4a 64
        E 0 90 56 64
        E 0 90 62 64
        E 120 80 2f 00
        E 0 80 3e 00
        E 0 80 4a 00
        E 0 80 56 00
        E 0 80 62 00
        E 360 90 78 64
        E 0 90 79 64
        E 0 90 7a 64
        E 0 90 7b 64
        E 0 90 7c 64
        E 360 90 56 60
        E 0 90 2f 64
        E 0 90 62 64
        E 120 80 56 00
        E 0 80 2f 00
        E 0 80 62 00
        E 0 90 31 64
        E 0 90 4b 64
        E 0 90 57 64
        E 0 90 63 64
        E 120 80 31 00
        E 0 80 4b 00
        E 0 80 57 00
        E 0 80 63 00
        E 0 90 31 64
        E 0 90 63 64
        E 120 80 31 00
        E 0 80 63 00
        E 240 90 2f 64
        E 0 90 3e 64
        E 0 90 4a 64
        E 0 90 56 64
        E 0 90 62 64
        E 120 80 6e 00
        E 0 80 2f 00
        E 0 80 3e 00
        E 0 80 4a 00
        E 0 80 56 00
        E 0 80 62 00
        <X 360 0
          /wFbcGxheV0=
        >
        <X 0 0
          /wFbbWl4IDMgZHJ1bXMwZF0=
        >
        E 0 80 78 00
        E 0 80 79 00
        E 0 80 7a 00
        E 0 80 7b 00
        E 0 80 7c 00
        E 0 90 1d 64
        E 0 90 3d 64
        E 0 90 3e 64
        E 0 90 49 64
        E 0 90 4a 64
        E 0 90 55 64
        E 0 90 56 64
        E 0 90 62 64
        E 120 80 1d 00
        E 0 80 3d 00
        E 0 80 3e 00
        E 0 80 49 00
        E 0 80 4a 00
        E 0 80 55 00
        E 0 80 56 00
        E 0 80 62 00
        E 0 90 1e 64
        E 0 90 61 64
        E 120 80 1e 00
        E 0 80 61 00
        E 0 90 1f 64
        E 0 90 56 64
        E 0 90 61 64
        E 120 80 1f 00
        E 0 80 56 00
        E 0 80 61 00
        E 0 90 1e 64
        E 0 90 61 64
        E 120 80 1e 00
        E 0 80 61 00
        E 0 90 1d 64
        E 0 90 49 64
        E 0 90 4a 64
        E 0 90 55 64
        E 0 90 56 64
        E 0 90 62 64
        E 120 80 1d 00
        E 0 80 49 00
        E 0 80 4a 00
        E 0 80 55 00
        E 0 80 56 00
        E 0 80 62 00
        E 0 90 1e 64
        E 0 90 61 64
        E 120 80 1e 00
        E 0 80 61 00
        E 0 90 1f 64
        E 0 90 56 64
        E 0 90 61 64
        E 120 80 1f 00
        E 0 80 56 00
        E 0 80 61 00
        E 0 90 1e 64
        E 0 90 61 64
        E 120 80 1e 00
        E 0 80 61 00
        E 0 90 1d 64
        E 0 90 49 64
        E 0 90 4a 64
        E 0 90 55 64
        E 0 90 56 64
        E 0 90 62 64
        E 120 80 1d 00
        E 0 80 49 00
        E 0 80 4a 00
        E 0 80 55 00
        E 0 80 56 00
        E 0 80 62 00
        E 0 90 1e 64
        E 0 90 61 64
        E 120 80 1e 00
        E 0 80 61 00
        E 0 90 18 64
        E 0 90 1f 64
        E 0 90 54 64
        E 0 90 56 64
        E 0 90 60 64
        E 0 90 61 64
        E 120 80 18 00
        E 0 80 1f 00
        E 0 80 54 00
        E 0 80 56 00
        E 0 80 60 00
        E 0 80 61 00
        E 0 90 1e 64
        E 0 90 61 64
        E 120 80 1e 00
        E 0 80 61 00
        E 0 90 1d 64
        E 0 90 3d 64
        E 0 90 3e 64
        E 0 90 49 64
        E 0 90 4a 64
        E 0 90 55 64
        E 0 90 56 64
        E 0 90 62 64
        E 120 80 1d 00
        E 0 80 3d 00
        E 0 80 3e 00
        E 0 80 49 00
        E 0 80 4a 00
        E 0 80 55 00
        E 0 80 56 00
        E 0 80 62 00
        E 0 90 1e 64
        E 0 90 61 64
        E 120 80 1e 00
        E 0 80 61 00
        E 0 90 1f 64
        E 0 90 56 64
        E 0 90 61 64
        E 120 80 1f 00
        E 0 80 56 00
        E 0 80 61 00
        E 0 90 1e 64
        E 0 90 61 64
        E 120 80 1e 00
        E 0 80 61 00
        E 0 90 1d 64
        E 0 90 49 64
        E 0 90 4a 64
        E 0 90 55 64
        E 0 90 56 64
        E 0 90 62 64
        E 120 80 1d 00
        E 0 80 49 00
        E 0 80 4a 00
        E 0 80 55 00
        E 0 80 56 00
        E 0 80 62 00
        E 0 90 1e 64
        E 0 90 61 64
        E 120 80 1e 00
        E 0 80 61 00
        E 0 90 1f 64
        E 0 90 56 64
        E 0 90 61 64
        E 120 80 1f 00
        E 0 80 56 00
        E 0 80 61 00
        E 0 90 1e 64
        E 0 90 61 64
        E 120 80 1e 00
        E 0 80 61 00
        E 0 90 1d 64
        E 0 90 49 64
        E 0 90 4a 64
        E 0 90 55 64
        E 0 90 56 64
        E 0 90 62 64
        E 120 80 1d 00
        E 0 80 49 00
        E 0 80 4a 00
        E 0 80 55 00
        E 0 80 56 00
        E 0 80 62 00
        E 0 90 1e 64
        E 0 90 61 64
        E 120 80 1e 00
        E 0 80 61 00
        E 0 90 18 64
        E 0 90 1f 64
        E 0 90 54 64
        E 0 90 56 64
        E 0 90 60 64
        E 0 90 61 64
        E 120 80 18 00
        E 0 80 1f 00
        E 0 80 54 00
        E 0 80 56 00
        E 0 80 60 00
        E 0 80 61 00
        E 0 90 1e 64
        E 0 90 61 64
        E 120 80 1e 00
        E 0 80 61 00
        E 0 90 1d 64
        E 0 90 3d 64
        E 0 90 3e 64
        E 0 90 49 64
        E 0 90 4a 64
        E 0 90 55 64
        E 0 90 56 64
        E 0 90 62 64
        E 120 80 1d 00
        E 0 80 3d 00
        E 0 80 3e 00
        E 0 80 49 00
        E 0 80 4a 00
        E 0 80 55 00
        E 0 80 56 00
        E 0 80 62 00
        E 0 90 1e 64
        E 0 90 61 64
        E 120 80 1e 00
        E 0 80 61 00
        E 0 90 1f 64
        E 0 90 56 64
        E 0 90 61 64
        E 120 80 1f 00
        E 0 80 56 00
        E 0 80 61 00
        E 0 90 1e 64
        E 0 90 61 64
        E 120 80 1e 00
        E 0 80 61 00
        E 0 90 1d 64
        E 0 90 49 64
        E 0 90 4a 64
        E 0 90 55 64
        E 0 90 56 64
        E 0 90 62 64
        E 120 80 1d 00
        E 0 80 49 00
        E 0 80 4a 00
        E 0 80 55 00
        E 0 80 56 00
        E 0 80 62 00
        E 0 90 1e 64
        E 0 90 61 64
        E 120 80 1e 00
        E 0 80 61 00
        E 0 90 1f 64
        E 0 90 56 64
        E 0 90 61 64
        E 120 80 1f 00
        E 0 80 56 00
        E 0 80 61 00
        E 0 90 1e 64
        E 0 90 61 64
        E 120 80 1e 00
        E 0 80 61 00
        E 0 90 1d 64
        E 0 90 49 64
        E 0 90 4a 64
        E 0 90 55 64
        E 0 90 56 64
        E 0 90 62 64
        E 120 80 1d 00
        E 0 80 49 00
        E 0 80 4a 00
        E 0 80 55 00
        E 0 80 56 00
        E 0 80 62 00
        E 0 90 1e 64
        E 0 90 61 64
        E 120 80 1e 00
        E 0 80 61 00
        E 0 90 18 64
        E 0 90 1f 64
        E 0 90 54 64
        E 0 90 56 64
        E 0 90 60 64
        E 0 90 61 64
        E 120 80 18 00
        E 0 80 1f 00
        E 0 80 54 00
        E 0 80 56 00
        E 0 80 60 00
        E 0 80 61 00
        E 0 90 1e 64
        E 0 90 61 64
        E 120 80 1e 00
        E 0 80 61 00
        E 0 90 1d 64
        E 0 90 3d 64
        E 0 90 3e 64
        E 0 90 49 64
        E 0 90 4a 64
        E 0 90 55 64
        E 0 90 56 64
        E 0 90 62 64
        E 0 90 78 64
        E 0 90 79 64
        E 0 90 7a 64
        E 0 90 7b 64
        E 0 90 7c 64
        E 120 80 1d 00
        E 0 80 3d 00
        E 0 80 3e 00
        E 0 80 49 00
        E 0 80 4a 00
        E 0 80 55 00
        E 0 80 56 00
        E 0 80 62 00
        E 0 90 1e 64
        E 0 90 61 64
        E 120 80 1e 00
        E 0 80 61 00
        E 0 90 1f 64
        E 0 90 56 64
        E 0 90 61 64
        E 120 80 1f 00
        E 0 80 56 00
        E 0 80 61 00
        E 0 90 1e 64
        E 0 90 61 64
        E 120 80 1e 00
        E 0 80 61 00
        E 0 90 1d 64
        E 0 90 49 64
        E 0 90 4a 64
        E 0 90 55 64
        E 0 90 56 64
        E 0 90 62 64
        E 120 80 1d 00
        E 0 80 49 00
        E 0 80 4a 00
        E 0 80 55 00
        E 0 80 56 00
        E 0 80 62 00
        E 0 90 1e 64
        E 0 90 61 64
        E 120 80 1e 00
        E 0 80 61 00
        E 0 90 1f 64
        E 0 90 56 64
        E 0 90 61 64
        E 120 80 1f 00
        E 0 80 56 00
        E 0 80 61 00
        E 0 90 1e 64
        E 0 90 61 64
        E 120 80 1e 00
        E 0 80 61 00
        E 0 90 1d 64
        E 0 90 49 64
        E 0 90 4a 64
        E 0 90 55 64
        E 0 90 56 64
        E 0 90 62 64
        E 120 80 1d 00
        E 0 80 49 00
        E 0 80 4a 00
        E 0 80 55 00
        E 0 80 56 00
        E 0 80 62 00
        E 0 90 1e 64
        E 0 90 61 64
        E 120 80 1e 00
        E 0 80 61 00
        E 0 90 18 64
        E 0 90 1f 64
        E 0 90 54 64
        E 0 90 56 64
        E 0 90 60 64
        E 0 90 61 64
        E 120 80 18 00
        E 0 80 1f 00
        E 0 80 54 00
        E 0 80 56 00
        E 0 80 60 00
        E 0 80 61 00
        E 0 90 1e 64
        E 0 90 61 64
        E 120 80 78 00
        E 0 80 79 00
        E 0 80 7a 00
        E 0 80 7b 00
        E 0 80 7c 00
        E 0 80 1e 00
        E 0 80 61 00
        E 0 90 1d 64
        E 0 90 3d 64
        E 0 90 3e 64
        E 0 90 49 64
        E 0 90 4a 64
        E 0 90 55 64
        E 0 90 56 64
        E 0 90 62 64
        E 0 90 74 64
        E 120 80 1d 00
        E 0 80 3d 00
        E 0 80 3e 00
        E 0 80 49 00
        E 0 80 4a 00
        E 0 80 55 00
        E 0 80 56 00
        E 0 80 62 00
        E 0 90 1e 64
        E 0 90 61 64
        E 120 80 1e 00
        E 0 80 61 00
        E 0 90 1f 64
        E 0 90 56 64
        E 0 90 61 64
        E 120 80 1f 00
        E 0 80 56 00
        E 0 80 61 00
        E 0 90 1e 64
        E 0 90 61 64
        E 120 80 1e 00
        E 0 80 61 00
        E 0 90 1d 64
        E 0 90 49 64
        E 0 90 4a 64
        E 0 90 55 64
        E 0 90 56 64
        E 0 90 62 64
        E 120 80 1d 00
        E 0 80 49 00
        E 0 80 4a 00
        E 0 80 55 00
        E 0 80 56 00
        E 0 80 62 00
        E 0 90 1e 64
        E 0 90 61 64
        E 120 80 1e 00
        E 0 80 61 00
        E 0 90 1f 64
        E 0 90 56 64
        E 0 90 61 64
        E 120 80 1f 00
        E 0 80 56 00
        E 0 80 61 00
        E 0 90 1e 64
        E 0 90 61 64
        E 120 80 1e 00
        E 0 80 61 00
        E 0 90 1d 64
        E 0 90 49 64
        E 0 90 4a 64
        E 0 90 55 64
        E 0 90 56 64
        E 0 90 62 64
        E 120 80 1d 00
        E 0 80 49 00
        E 0 80 4a 00
        E 0 80 55 00
        E 0 80 56 00
        E 0 80 62 00
        E 0 90 1e 64
        E 0 90 61 64
        E 120 80 1e 00
        E 0 80 61 00
        E 0 90 18 64
        E 0 90 1f 64
        E 0 90 54 64
        E 0 90 56 64
        E 0 90 60 64
        E 0 90 61 64
        E 120 80 18 00
        E 0 80 1f 00
        E 0 80 54 00
        E 0 80 56 00
        E 0 80 60 00
        E 0 80 61 00
        E 0 90 1e 64
        E 0 90 61 64
        E 120 80 1e 00
        E 0 80 61 00
        E 0 90 1d 64
        E 0 90 3d 64
        E 0 90 3e 64
        E 0 90 49 64
        E 0 90 4a 64
        E 0 90 55 64
        E 0 90 56 64
        E 0 90 62 64
        E 120 80 1d 00
        E 0 80 3d 00
        E 0 80 3e 00
        E 0 80 49 00
        E 0 80 4a 00
        E 0 80 55 00
        E 0 80 56 00
        E 0 80 62 00
        E 0 90 1e 64
        E 0 90 61 64
        E 120 80 1e 00
        E 0 80 61 00
        E 0 90 1f 64
        E 0 90 56 64
        E 0 90 61 64
        E 120 80 1f 00
        E 0 80 56 00
        E 0 80 61 00
        E 0 90 1e 64
        E 0 90 61 64
        E 120 80 1e 00
        E 0 80 61 00
        E 0 90 1d 64
        E 0 90 49 64
        E 0 90 4a 64
        E 0 90 55 64
        E 0 90 56 64
        E 0 90 62 64
        E 120 80 1d 00
        E 0 80 49 00
        E 0 80 4a 00
        E 0 80 55 00
        E 0 80 56 00
        E 0 80 62 00
        E 0 90 1e 64
        E 0 90 61 64
        E 120 80 1e 00
        E 0 80 61 00
        E 0 90 1f 64
        E 0 90 56 64
        E 0 90 61 64
        E 120 80 1f 00
        E 0 80 56 00
        E 0 80 61 00
        E 0 90 1e 64
        E 0 90 61 64
        E 120 80 1e 00
        E 0 80 61 00
        E 0 90 1d 64
        E 0 90 49 64
        E 0 90 4a 64
        E 0 90 55 64
        E 0 90 56 64
        E 0 90 62 64
        E 120 80 1d 00
        E 0 80 49 00
        E 0 80 4a 00
        E 0 80 55 00
        E 0 80 56 00
        E 0 80 62 00
        E 0 90 1e 64
        E 0 90 61 64
        E 120 80 1e 00
        E 0 80 61 00
        E 0 90 18 64
        E 0 90 1f 64
        E 0 90 54 64
        E 0 90 56 64
        E 0 90 60 64
        E 0 90 61 64
        E 120 80 18 00
        E 0 80 1f 00
        E 0 80 54 00
        E 0 80 56 00
        E 0 80 60 00
        E 0 80 61 00
        E 0 90 1e 64
        E 0 90 61 64
        E 120 80 74 00
        E 0 80 1e 00
        E 0 80 61 00
        E 0 90 1d 64
        E 0 90 3d 64
        E 0 90 3e 64
        E 0 90 49 64
        E 0 90 4a 64
        E 0 90 55 64
        E 0 90 56 64
        E 0 90 62 64
        E 120 80 1d 00
        E 0 80 3d 00
        E 0 80 3e 00
        E 0 80 49 00
        E 0 80 4a 00
        E 0 80 55 00
        E 0 80 56 00
        E 0 80 62 00
        E 0 90 1e 64
        E 0 90 61 64
        E 120 80 1e 00
        E 0 80 61 00
        E 0 90 1f 64
        E 0 90 56 64
        E 0 90 61 64
        E 120 80 1f 00
        E 0 80 56 00
        E 0 80 61 00
        E 0 90 1e 64
        E 0 90 61 64
        E 120 80 1e 00
        E 0 80 61 00
        E 0 90 1d 64
        E 0 90 49 64
        E 0 90 4a 64
        E 0 90 55 64
        E 0 90 56 64
        E 0 90 62 64
        E 120 80 1d 00
        E 0 80 49 00
        E 0 80 4a 00
        E 0 80 55 00
        E 0 80 56 00
        E 0 80 62 00
        E 0 90 1e 64
        E 0 90 61 64
        E 120 80 1e 00
        E 0 80 61 00
        E 0 90 1f 64
        E 0 90 56 64
        E 0 90 61 64
        E 120 80 1f 00
        E 0 80 56 00
        E 0 80 61 00
        E 0 90 1e 64
        E 0 90 61 64
        E 120 80 1e 00
        E 0 80 61 00
        E 0 90 1d 64
        E 0 90 49 64
        E 0 90 4a 64
        E 0 90 55 64
        E 0 90 56 64
        E 0 90 62 64
        E 120 80 1d 00
        E 0 80 49 00
        E 0 80 4a 00
        E 0 80 55 00
        E 0 80 56 00
        E 0 80 62 00
        E 0 90 1e 64
        E 0 90 61 64
        E 120 80 1e 00
        E 0 80 61 00
        E 0 90 18 64
        E 0 90 1f 64
        E 0 90 54 64
        E 0 90 56 64
        E 0 90 60 64
        E 0 90 61 64
        E 120 80 18 00
        E 0 80 1f 00
        E 0 80 54 00
        E 0 80 56 00
        E 0 80 60 00
        E 0 80 61 00
        <X 120 0
          /wFbbWl4IDMgZHJ1bXMwXQ==
        >
        E 0 90 2f 64
        E 0 90 3e 64
        E 0 90 4a 64
        E 0 90 56 64
        E 0 90 62 64
        E 0 90 6e 64
        E 0 90 78 64
        E 0 90 79 64
        E 0 90 7a 64
        E 0 90 7b 64
        E 0 90 7c 64
        E 120 80 2f 00
        E 0 80 3e 00
        E 0 80 4a 00
        E 0 80 56 00
        E 0 80 62 00
        E 0 90 2e 64
        E 0 90 62 64
        E 120 80 2e 00
        E 0 80 62 00
        E 120 90 2f 64
        E 0 90 62 64
        E 120 80 2f 00
        E 0 80 62 00
        E 0 90 2e 64
        E 0 90 56 64
        E 0 90 62 64
        E 120 80 2e 00
        E 0 80 56 00
        E 0 80 62 00
        E 0 90 31 64
        E 0 90 63 64
        E 120 80 31 00
        E 0 80 63 00
        E 120 90 30 64
        E 0 90 63 64
        E 120 80 30 00
        E 0 80 63 00
        E 0 90 33 64
        E 0 90 4c 64
        E 0 90 58 64
        E 0 90 64 64
        E 0 90 70 64
        E 120 80 33 00
        E 0 80 4c 00
        E 0 80 58 00
        E 0 80 64 00
        E 0 80 70 00
        E 120 90 31 64
        E 0 90 57 64
        E 0 90 63 64
        E 120 80 31 00
        E 0 80 57 00
        E 0 80 63 00
        <X 120 0
          /wFbaW50ZW5zZV0=
        >
        E 0 80 78 00
        E 0 80 79 00
        E 0 80 7a 00
        E 0 80 7b 00
        E 0 80 7c 00
        E 0 90 18 64
        E 0 90 26 64
        E 0 90 40 64
        E 0 90 48 64
        E 0 90 4c 64
        E 0 90 54 64
        E 0 90 58 64
        E 0 90 60 64
        E 0 90 64 64
        E 120 80 18 00
        E 0 80 26 00
        E 0 80 40 00
        E 0 80 48 00
        E 0 80 4c 00
        E 0 80 54 00
        E 0 80 58 00
        E 0 80 60 00
        E 0 80 64 00
        E 120 90 19 60
        E 240 80 19 00
        E 0 90 18 64
        E 0 90 2f 64
        E 0 90 3e 64
        E 0 90 4a 64
        E 0 90 54 64
        E 0 90 56 64
        E 0 90 60 64
        E 0 90 62 64
        E 120 80 18 00
        E 0 80 2f 00
        E 0 80 3e 00
        E 0 80 4a 00
        E 0 80 54 00
        E 0 80 56 00
        E 0 80 60 00
        E 0 80 62 00
        E 0 90 2e 64
        E 0 90 62 64
        E 120 80 2e 00
        E 0 80 62 00
        E 0 90 19 60
        E 120 90 30 64
        E 0 90 63 64
        E 120 80 19 00
        E 0 80 30 00
        E 0 80 63 00
        E 0 90 18 64
        E 0 90 33 64
        E 0 90 4c 64
        E 0 90 54 64
        E 0 90 58 64
        E 0 90 60 64
        E 0 90 64 64
        E 0 90 70 64
        E 120 80 18 00
        E 0 80 33 00
        E 0 80 4c 00
        E 0 80 54 00
        E 0 80 58 00
        E 0 80 60 00
        E 0 80 64 00
        E 0 80 70 00
        E 120 90 19 60
        E 0 90 30 64
        E 0 90 57 64
        E 0 90 63 64
        E 120 80 30 00
        E 0 80 57 00
        E 0 80 63 00
        E 120 80 19 00
        E 0 90 18 64
        E 0 90 26 64
        E 0 90 40 64
        E 0 90 4c 64
        E 0 90 54 64
        E 0 90 58 64
        E 0 90 60 64
        E 0 90 64 64
        E 120 80 18 00
        E 0 80 26 00
        E 0 80 40 00
        E 0 80 4c 00
        E 0 80 54 00
        E 0 80 58 00
        E 0 80 60 00
        E 0 80 64 00
        E 0 90 2e 64
        E 0 90 62 64
        E 120 80 2e 00
        E 0 80 62 00
        E 0 90 19 60
        E 120 90 2f 64
        E 0 90 62 64
        E 120 80 19 00
        E 0 80 2f 00
        E 0 80 62 00
        E 0 90 18 64
        E 0 90 2e 64
        E 0 90 3e 64
        E 0 90 4a 64
        E 0 90 54 64
        E 0 90 56 64
        E 0 90 60 64
        E 0 90 62 64
        E 120 80 18 00
        E 0 80 2e 00
        E 0 80 3e 00
        E 0 80 4a 00
        E 0 80 54 00
        E 0 80 56 00
        E 0 80 60 00
        E 0 80 62 00
        E 0 90 31 64
        E 0 90 63 64
        E 120 80 31 00
        E 0 80 63 00
        E 0 90 19 60
        E 120 90 30 64
        E 0 90 63 64
        E 120 80 19 00
        E 0 80 30 00
        E 0 80 63 00
        E 0 90 18 64
        E 0 90 33 64
        E 0 90 4c 64
        E 0 90 54 64
        E 0 90 58 64
        E 0 90 60 64
        E 0 90 64 64
        E 0 90 70 64
        E 120 80 18 00
        E 0 80 33 00
        E 0 80 4c 00
        E 0 80 54 00
        E 0 80 58 00
        E 0 80 60 00
        E 0 80 64 00
        E 0 80 70 00
        E 120 90 19 60
        E 0 90 30 64
        E 0 90 57 64
        E 0 90 63 64
        E 120 80 30 00
        E 0 80 57 00
        E 0 80 63 00
        E 120 80 19 00
        E 0 90 18 64
        E 0 90 26 64
        E 0 90 40 64
        E 0 90 48 64
        E 0 90 4c 64
        E 0 90 54 64
        E 0 90 58 64
        E 0 90 60 64
        E 0 90 64 64
        E 120 80 18 00
        E 0 80 26 00
        E 0 80 40 00
        E 0 80 48 00
        E 0 80 4c 00
        E 0 80 54 00
        E 0 80 58 00
        E 0 80 60 00
        E 0 80 64 00
        E 0 90 2e 64
        E 0 90 62 64
        E 120 80 2e 00
        E 0 80 62 00
        E 0 90 19 60
        E 120 90 2f 64
        E 0 90 62 64
        E 120 80 19 00
        E 0 80 2f 00
        E 0 80 62 00
        E 0 90 18 64
        E 0 90 2e 64
        E 0 90 3e 64
        E 0 90 4a 64
        E 0 90 54 64
        E 0 90 56 64
        E 0 90 60 64
        E 0 90 62 64
        E 120 80 18 00
        E 0 80 2e 00
        E 0 80 3e 00
        E 0 80 4a 00
        E 0 80 54 00
        E 0 80 56 00
        E 0 80 60 00
        E 0 80 62 00
        E 0 90 31 64
        E 0 90 63 64
        E 120 80 31 00
        E 0 80 63 00
        E 0 90 19 60
        E 120 90 30 64
        E 0 90 63 64
        E 120 80 19 00
        E 0 80 30 00
        E 0 80 63 00
        E 0 90 18 64
        E 0 90 33 64
        E 0 90 4c 64
        E 0 90 54 64
        E 0 90 58 64
        E 0 90 60 64
        E 0 90 64 64
        E 0 90 70 64
        E 120 80 18 00
        E 0 80 33 00
        E 0 80 4c 00
        E 0 80 54 00
        E 0 80 58 00
        E 0 80 60 00
        E 0 80 64 00
        E 0 80 70 00
        E 120 90 19 60
        E 0 90 30 64
        E 0 90 57 64
        E 0 90 63 64
        E 120 80 30 00
        E 0 80 57 00
        E 0 80 63 00
        E 120 80 19 00
        E 0 90 18 64
        E 0 90 26 64
        E 0 90 40 64
        E 0 90 4c 64
        E 0 90 54 64
        E 0 90 58 64
        E 0 90 60 64
        E 0 90 64 64
        E 0 90 78 64
        E 0 90 79 64
        E 0 90 7a 64
        E 0 90 7b 64
        E 0 90 7c 64
        E 120 80 18 00
        E 0 80 26 00
        E 0 80 40 00
        E 0 80 4c 00
        E 0 80 54 00
        E 0 80 58 00
        E 0 80 60 00
        E 0 80 64 00
        E 0 90 2e 64
        E 0 90 62 64
        E 120 80 2e 00
        E 0 80 62 00
        E 0 90 19 60
        E 120 90 2f 64
        E 0 90 62 64
        E 120 80 19 00
        E 0 80 2f 00
        E 0 80 62 00
        E 0 90 18 64
        E 0 90 2e 64
        E 0 90 3e 64
        E 0 90 4a 64
        E 0 90 54 64
        E 0 90 56 64
        E 0 90 60 64
        E 0 90 62 64
        E 120 80 18 00
        E 0 80 2e 00
        E 0 80 3e 00
        E 0 80 4a 00
        E 0 80 54 00
        E 0 80 56 00
        E 0 80 60 00
        E 0 80 62 00
        E 0 90 31 64
        E 0 90 63 64
        E 120 80 31 00
        E 0 80 63 00
        E 0 90 19 60
        E 120 90 30 64
        E 0 90 63 64
        E 120 80 19 00
        E 0 80 30 00
        E 0 80 63 00
        E 0 90 18 64
        E 0 90 33 64
        E 0 90 4c 64
        E 0 90 54 64
        E 0 90 58 64
        E 0 90 60 64
        E 0 90 64 64
        E 0 90 70 64
        E 120 80 18 00
        E 0 80 33 00
        E 0 80 4c 00
        E 0 80 54 00
        E 0 80 58 00
        E 0 80 60 00
        E 0 80 64 00
        E 0 80 70 00
        E 120 90 19 60
        E 0 90 30 64
        E 0 90 57 64
        E 0 90 63 64
        E 120 80 30 00
        E 0 80 57 00
        E 0 80 63 00
        E 120 80 78 00
        E 0 80 79 00
        E 0 80 7a 00
        E 0 80 7b 00
        E 0 80 7c 00
        E 0 80 19 00
        E 0 90 18 64
        E 0 90 26 64
        E 0 90 40 64
        E 0 90 48 64
        E 0 90 4c 64
        E 0 90 54 64
        E 0 90 58 64
        E 0 90 60 64
        E 0 90 64 64
        E 120 80 18 00
        E 0 80 26 00
        E 0 80 40 00
        E 0 80 48 00
        E 0 80 4c 00
        E 0 80 54 00
        E 0 80 58 00
        E 0 80 60 00
        E 0 80 64 00
        E 0 90 2e 64
        E 0 90 62 64
        E 120 80 2e 00
        E 0 80 62 00
        E 0 90 19 60
        E 120 90 2f 64
        E 0 90 62 64
        E 120 80 19 00
        E 0 80 2f 00
        E 0 80 62 00
        E 0 90 18 64
        E 0 90 2e 64
        E 0 90 3e 64
        E 0 90 4a 64
        E 0 90 54 64
        E 0 90 56 64
        E 0 90 60 64
        E 0 90 62 64
        E 120 80 18 00
        E 0 80 2e 00
        E 0 80 3e 00
        E 0 80 4a 00
        E 0 80 54 00
        E 0 80 56 00
        E 0 80 60 00
        E 0 80 62 00
        E 0 90 31 64
        E 0 90 63 64
        E 120 80 31 00
        E 0 80 63 00
        E 0 90 19 60
        E 120 90 30 64
        E 0 90 63 64
        E 120 80 19 00
        E 0 80 30 00
        E 0 80 63 00
        E 0 90 18 64
        E 0 90 33 64
        E 0 90 4c 64
        E 0 90 54 64
        E 0 90 58 64
        E 0 90 60 64
        E 0 90 64 64
        E 0 90 70 64
        E 120 80 18 00
        E 0 80 33 00
        E 0 80 4c 00
        E 0 80 54 00
        E 0 80 58 00
        E 0 80 60 00
        E 0 80 64 00
        E 0 80 70 00
        E 120 90 19 60
        E 0 90 30 64
        E 0 90 57 64
        E 0 90 63 64
        E 120 80 30 00
        E 0 80 57 00
        E 0 80 63 00
        E 120 80 19 00
        E 0 90 18 64
        E 0 90 26 64
        E 0 90 40 64
        E 0 90 4c 64
        E 0 90 54 64
        E 0 90 58 64
        E 0 90 60 64
        E 0 90 64 64
        E 120 80 18 00
        E 0 80 26 00
        E 0 80 40 00
        E 0 80 4c 00
        E 0 80 54 00
        E 0 80 58 00
        E 0 80 60 00
        E 0 80 64 00
        E 0 90 2e 64
        E 0 90 62 64
        E 120 80 2e 00
        E 0 80 62 00
        E 0 90 19 60
        E 120 90 2f 64
        E 0 90 62 64
        E 120 80 19 00
        E 0 80 2f 00
        E 0 80 62 00
        E 0 90 18 64
        E 0 90 2e 64
        E 0 90 3e 64
        E 0 90 4a 64
        E 0 90 54 64
        E 0 90 56 64
        E 0 90 60 64
        E 0 90 62 64
        E 120 80 18 00
        E 0 80 2e 00
        E 0 80 3e 00
        E 0 80 4a 00
        E 0 80 54 00
        E 0 80 56 00
        E 0 80 60 00
        E 0 80 62 00
        E 0 90 31 64
        E 0 90 63 64
        E 120 80 31 00
        E 0 80 63 00
        E 0 90 19 60
        E 120 90 30 64
        E 0 90 63 64
        E 120 80 19 00
        E 0 80 30 00
        E 0 80 63 00
        E 0 90 18 64
        E 0 90 33 64
        E 0 90 4c 64
        E 0 90 54 64
        E 0 90 58 64
        E 0 90 60 64
        E 0 90 64 64
        E 0 90 70 64
        E 120 80 18 00
        E 0 80 33 00
        E 0 80 4c 00
        E 0 80 54 00
        E 0 80 58 00
        E 0 80 60 00
        E 0 80 64 00
        E 0 80 70 00
        E 120 90 19 60
        E 0 90 30 64
        E 0 90 57 64
        E 0 90 63 64
        E 120 80 30 00
        E 0 80 57 00
        E 0 80 63 00
        E 120 80 19 00
        E 0 90 18 64
        E 0 90 26 64
        E 0 90 40 64
        E 0 90 48 64
        E 0 90 4c 64
        E 0 90 54 64
        E 0 90 58 64
        E 0 90 60 64
        E 0 90 64 64
        E 0 90 78 64
        E 0 90 79 64
        E 0 90 7a 64
        E 0 90 7b 64
        E 0 90 7c 64
        E 120 80 18 00
        E 0 80 26 00
        E 0 80 40 00
        E 0 80 48 00
        E 0 80 4c 00
        E 0 80 54 00
        E 0 80 58 00
        E 0 80 60 00
        E 0 80 64 00
        E 0 90 2e 64
        E 0 90 62 64
        E 120 80 2e 00
        E 0 80 62 00
        E 0 90 19 60
        E 120 90 2f 64
        E 0 90 62 64
        E 120 80 19 00
        E 0 80 2f 00
        E 0 80 62 00
        E 0 90 18 64
        E 0 90 2e 64
        E 0 90 3e 64
        E 0 90 4a 64
        E 0 90 54 64
        E 0 90 56 64
        E 0 90 60 64
        E 0 90 62 64
        E 120 80 18 00
        E 0 80 2e 00
        E 0 80 3e 00
        E 0 80 4a 00
        E 0 80 54 00
        E 0 80 56 00
        E 0 80 60 00
        E 0 80 62 00
        E 0 90 31 64
        E 0 90 63 64
        E 120 80 31 00
        E 0 80 63 00
        E 0 90 19 60
        E 120 90 30 64
        E 0 90 63 64
        E 120 80 19 00
        E 0 80 30 00
        E 0 80 63 00
        E 0 90 18 64
        E 0 90 33 64
        E 0 90 4c 64
        E 0 90 54 64
        E 0 90 58 64
        E 0 90 60 64
        E 0 90 64 64
        E 0 90 70 64
        E 120 80 18 00
        E 0 80 33 00
        E 0 80 4c 00
        E 0 80 54 00
        E 0 80 58 00
        E 0 80 60 00
        E 0 80 64 00
        E 0 80 70 00
        E 120 90 19 60
        E 0 90 30 64
        E 0 90 57 64
        E 0 90 63 64
        E 120 80 30 00
        E 0 80 57 00
        E 0 80 63 00
        E 120 80 78 00
        E 0 80 79 00
        E 0 80 7a 00
        E 0 80 7b 00
        E 0 80 7c 00
        E 0 80 19 00
        E 0 90 18 64
        E 0 90 26 64
        E 0 90 40 64
        E 0 90 48 60
        E 0 90 4c 64
        E 0 90 54 64
        E 0 90 58 64
        E 0 90 60 64
        E 0 90 64 64
        E 0 90 74 64
        E 120 80 18 00
        E 0 80 26 00
        E 0 80 40 00
        E 0 80 48 00
        E 0 80 4c 00
        E 0 80 54 00
        E 0 80 58 00
        E 0 80 60 00
        E 0 80 64 00
        E 0 90 2e 64
        E 0 90 62 64
        E 120 80 2e 00
        E 0 80 62 00
        E 0 90 19 60
        E 120 90 2f 64
        E 0 90 62 64
        E 120 80 19 00
        E 0 80 2f 00
        E 0 80 62 00
        E 0 90 18 64
        E 0 90 2e 64
        E 0 90 3e 64
        E 0 90 4a 64
        E 0 90 54 64
        E 0 90 56 64
        E 0 90 60 64
        E 0 90 62 64
        E 120 80 18 00
        E 0 80 2e 00
        E 0 80 3e 00
        E 0 80 4a 00
        E 0 80 54 00
        E 0 80 56 00
        E 0 80 60 00
        E 0 80 62 00
        E 0 90 31 64
        E 0 90 63 64
        E 120 80 31 00
        E 0 80 63 00
        E 0 90 19 60
        E 120 90 30 64
        E 0 90 63 64
        E 120 80 19 00
        E 0 80 30 00
        E 0 80 63 00
        E 0 90 18 64
        E 0 90 33 64
        E 0 90 4c 64
        E 0 90 54 64
        E 0 90 58 64
        E 0 90 60 64
        E 0 90 64 64
        E 0 90 70 64
        E 120 80 18 00
        E 0 80 33 00
        E 0 80 4c 00
        E 0 80 54 00
        E 0 80 58 00
        E 0 80 60 00
        E 0 80 64 00
        E 0 80 70 00
        E 120 90 19 60
        E 0 90 30 64
        E 0 90 57 64
        E 0 90 63 64
        E 120 80 30 00
        E 0 80 57 00
        E 0 80 63 00
        E 120 80 19 00
        E 0 90 18 64
        E 0 90 26 64
        E 0 90 40 64
        E 0 90 4c 64
        E 0 90 54 64
        E 0 90 58 64
        E 0 90 60 64
        E 0 90 64 64
        E 120 80 74 00
        E 0 80 18 00
        E 0 80 26 00
        E 0 80 40 00
        E 0 80 4c 00
        E 0 80 54 00
        E 0 80 58 00
        E 0 80 60 00
        E 0 80 64 00
        E 0 90 2e 64
        E 0 90 62 64
        E 120 80 2e 00
        E 0 80 62 00
        E 0 90 19 60
        E 120 90 2f 64
        E 0 90 62 64
        E 120 80 19 00
        E 0 80 2f 00
        E 0 80 62 00
        E 0 90 18 64
        E 0 90 2e 64
        E 0 90 3e 64
        E 0 90 4a 64
        E 0 90 54 64
        E 0 90 56 64
        E 0 90 60 64
        E 0 90 62 64
        E 120 80 18 00
        E 0 80 2e 00
        E 0 80 3e 00
        E 0 80 4a 00
        E 0 80 54 00
        E 0 80 56 00
        E 0 80 60 00
        E 0 80 62 00
        E 0 90 31 64
        E 0 90 63 64
        E 120 80 31 00
        E 0 80 63 00
        E 0 90 19 60
        E 120 90 30 64
        E 0 90 63 64
        E 120 80 19 00
        E 0 80 30 00
        E 0 80 63 00
        E 0 90 18 64
        E 0 90 33 64
        E 0 90 4c 64
        E 0 90 54 64
        E 0 90 58 64
        E 0 90 60 64
        E 0 90 64 64
        E 0 90 70 64
        E 120 80 18 00
        E 0 80 33 00
        E 0 80 4c 00
        E 0 80 54 00
        E 0 80 58 00
        E 0 80 60 00
        E 0 80 64 00
        E 0 80 70 00
        E 120 90 19 60
        E 0 90 30 64
        E 0 90 57 64
        E 0 90 63 64
        E 120 80 30 00
        E 0 80 57 00
        E 0 80 63 00
        E 120 80 19 00
        E 0 90 18 64
        E 0 90 26 64
        E 0 90 40 64
        E 0 90 48 60
        E 0 90 4c 64
        E 0 90 54 64
        E 0 90 58 64
        E 0 90 60 64
        E 0 90 64 64
        E 120 80 18 00
        E 0 80 26 00
        E 0 80 40 00
        E 0 80 48 00
        E 0 80 4c 00
        E 0 80 54 00
        E 0 80 58 00
        E 0 80 60 00
        E 0 80 64 00
        E 0 90 2e 64
        E 0 90 62 64
        E 120 80 2e 00
        E 0 80 62 00
        E 0 90 19 60
        E 120 90 2f 64
        E 0 90 62 64
        E 120 80 19 00
        E 0 80 2f 00
        E 0 80 62 00
        E 0 90 18 64
        E 0 90 2e 64
        E 0 90 3e 64
        E 0 90 4a 64
        E 0 90 54 64
        E 0 90 56 64
        E 0 90 60 64
        E 0 90 62 64
        E 120 80 18 00
        E 0 80 2e 00
        E 0 80 3e 00
        E 0 80 4a 00
        E 0 80 54 00
        E 0 80 56 00
        E 0 80 60 00
        E 0 80 62 00
        E 0 90 31 64
        E 0 90 63 64
        E 120 80 31 00
        E 0 80 63 00
        E 0 90 19 60
        E 120 90 30 64
        E 0 90 63 64
        E 120 80 19 00
        E 0 80 30 00
        E 0 80 63 00
        E 0 90 18 64
        E 0 90 33 64
        E 0 90 4c 64
        E 0 90 54 64
        E 0 90 58 64
        E 0 90 60 64
        E 0 90 64 64
        E 0 90 70 64
        E 120 80 18 00
        E 0 80 33 00
        E 0 80 4c 00
        E 0 80 54 00
        E 0 80 58 00
        E 0 80 60 00
        E 0 80 64 00
        E 0 80 70 00
        E 120 90 19 60
        E 0 90 30 64
        E 0 90 57 64
        E 0 90 63 64
        E 120 80 30 00
        E 0 80 57 00
        E 0 80 63 00
        E 120 80 19 00
        E 0 90 18 64
        E 0 90 26 64
        E 0 90 40 64
        E 0 90 4c 64
        E 0 90 54 64
        E 0 90 58 64
        E 0 90 60 64
        E 0 90 64 64
        E 0 90 78 64
        E 0 90 79 64
        E 0 90 7a 64
        E 0 90 7b 64
        E 0 90 7c 64
        E 120 80 18 00
        E 0 80 26 00
        E 0 80 40 00
        E 0 80 4c 00
        E 0 80 54 00
        E 0 80 58 00
        E 0 80 60 00
        E 0 80 64 00
        E 0 90 2e 64
        E 0 90 62 64
        E 120 80 2e 00
        E 0 80 62 00
        E 0 90 19 60
        E 120 90 2f 64
        E 0 90 62 64
        E 120 80 19 00
        E 0 80 2f 00
        E 0 80 62 00
        E 0 90 18 64
        E 0 90 2e 64
        E 0 90 3e 64
        E 0 90 4a 64
        E 0 90 54 64
        E 0 90 56 64
        E 0 90 60 64
        E 0 90 62 64
        E 120 80 18 00
        E 0 80 2e 00
        E 0 80 3e 00
        E 0 80 4a 00
        E 0 80 54 00
        E 0 80 56 00
        E 0 80 60 00
        E 0 80 62 00
        E 0 90 31 64
        E 0 90 63 64
        E 120 80 31 00
        E 0 80 63 00
        E 0 90 19 60
        E 120 90 30 64
        E 0 90 63 64
        E 120 80 19 00
        E 0 80 30 00
        E 0 80 63 00
        E 0 90 18 64
        E 0 90 33 64
        E 0 90 4c 64
        E 0 90 54 64
        E 0 90 58 64
        E 0 90 60 64
        E 0 90 64 64
        E 0 90 70 64
        E 120 80 18 00
        E 0 80 33 00
        E 0 80 4c 00
        E 0 80 54 00
        E 0 80 58 00
        E 0 80 60 00
        E 0 80 64 00
        E 0 80 70 00
        E 120 90 19 60
        E 0 90 30 64
        E 0 90 57 64
        E 0 90 63 64
        E 120 80 30 00
        E 0 80 57 00
        E 0 80 63 00
        E 120 80 78 00
        E 0 80 79 00
        E 0 80 7a 00
        E 0 80 7b 00
        E 0 80 7c 00
        E 0 80 19 00
        E 0 90 18 64
        E 0 90 26 64
        E 0 90 40 64
        E 0 90 48 60
        E 0 90 4c 64
        E 0 90 54 64
        E 0 90 58 64
        E 0 90 60 64
        E 0 90 64 64
        E 120 80 18 00
        E 0 80 26 00
        E 0 80 40 00
        E 0 80 48 00
        E 0 80 4c 00
        E 0 80 54 00
        E 0 80 58 00
        E 0 80 60 00
        E 0 80 64 00
        E 0 90 2e 64
        E 0 90 62 64
        E 120 80 2e 00
        E 0 80 62 00
        E 0 90 19 60
        E 120 90 2f 64
        E 0 90 62 64
        E 120 80 19 00
        E 0 80 2f 00
        E 0 80 62 00
        E 0 90 18 64
        E 0 90 2e 64
        E 0 90 3e 64
        E 0 90 4a 64
        E 0 90 54 64
        E 0 90 56 64
        E 0 90 60 64
        E 0 90 62 64
        E 120 80 18 00
        E 0 80 2e 00
        E 0 80 3e 00
        E 0 80 4a 00
        E 0 80 54 00
        E 0 80 56 00
        E 0 80 60 00
        E 0 80 62 00
        E 0 90 31 64
        E 0 90 63 64
        E 120 80 31 00
        E 0 80 63 00
        E 0 90 19 60
        E 120 90 30 64
        E 0 90 63 64
        E 120 80 19 00
        E 0 80 30 00
        E 0 80 63 00
        E 0 90 18 64
        E 0 90 33 64
        E 0 90 4c 64
        E 0 90 54 64
        E 0 90 58 64
        E 0 90 60 64
        E 0 90 64 64
        E 0 90 70 64
        E 120 80 18 00
        E 0 80 33 00
        E 0 80 4c 00
        E 0 80 54 00
        E 0 80 58 00
        E 0 80 60 00
        E 0 80 64 00
        E 0 80 70 00
        E 120 90 19 60
        E 0 90 30 64
        E 0 90 57 64
        E 0 90 63 64
        E 120 80 30 00
        E 0 80 57 00
        E 0 80 63 00
        E 120 80 19 00
        E 0 90 18 64
        E 0 90 26 64
        E 0 90 40 64
        E 0 90 4c 64
        E 0 90 54 64
        E 0 90 58 64
        E 0 90 60 64
        E 0 90 64 64
        E 120 80 18 00
        E 0 80 26 00
        E 0 80 40 00
        E 0 80 4c 00
        E 0 80 54 00
        E 0 80 58 00
        E 0 80 60 00
        E 0 80 64 00
        E 0 90 2e 64
        E 0 90 62 64
        E 120 80 2e 00
        E 0 80 62 00
        E 0 90 19 60
        E 120 90 2f 64
        E 0 90 62 64
        E 120 80 19 00
        E 0 80 2f 00
        E 0 80 62 00
        E 0 90 18 64
        E 0 90 2e 64
        E 0 90 3e 64
        E 0 90 4a 64
        E 0 90 54 64
        E 0 90 56 64
        E 0 90 60 64
        E 0 90 62 64
        E 120 80 18 00
        E 0 80 2e 00
        E 0 80 3e 00
        E 0 80 4a 00
        E 0 80 54 00
        E 0 80 56 00
        E 0 80 60 00
        E 0 80 62 00
        E 0 90 31 64
        E 0 90 63 64
        E 120 80 31 00
        E 0 80 63 00
        E 0 90 19 60
        E 120 90 30 64
        E 0 90 63 64
        E 120 80 19 00
        E 0 80 30 00
        E 0 80 63 00
        E 0 90 18 64
        E 0 90 33 64
        E 0 90 4c 64
        E 0 90 54 64
        E 0 90 58 64
        E 0 90 60 64
        E 0 90 64 64
        E 0 90 70 64
        E 120 80 18 00
        E 0 80 33 00
        E 0 80 4c 00
        E 0 80 54 00
        E 0 80 58 00
        E 0 80 60 00
        E 0 80 64 00
        E 0 80 70 00
        E 120 90 19 60
        E 0 90 30 64
        E 0 90 57 64
        E 0 90 63 64
        E 120 80 30 00
        E 0 80 57 00
        E 0 80 63 00
        E 120 80 19 00
        E 0 90 18 64
        E 0 90 26 64
        E 0 90 40 64
        E 0 90 48 60
        E 0 90 4c 64
        E 0 90 54 64
        E 0 90 58 64
        E 0 90 60 64
        E 0 90 64 64
        E 0 90 78 64
        E 0 90 79 64
        E 0 90 7a 64
        E 0 90 7b 64
        E 0 90 7c 64
        E 120 80 18 00
        E 0 80 26 00
        E 0 80 40 00
        E 0 80 48 00
        E 0 80 4c 00
        E 0 80 54 00
        E 0 80 58 00
        E 0 80 60 00
        E 0 80 64 00
        E 0 90 2e 64
        E 0 90 62 64
        E 120 80 2e 00
        E 0 80 62 00
        E 0 90 19 60
        E 120 90 2f 64
        E 0 90 62 64
        E 120 80 19 00
        E 0 80 2f 00
        E 0 80 62 00
        E 0 90 18 64
        E 0 90 2e 64
        E 0 90 3e 64
        E 0 90 4a 64
        E 0 90 54 64
        E 0 90 56 64
        E 0 90 60 64
        E 0 90 62 64
        E 120 80 18 00
        E 0 80 2e 00
        E 0 80 3e 00
        E 0 80 4a 00
        E 0 80 54 00
        E 0 80 56 00
        E 0 80 60 00
        E 0 80 62 00
        E 0 90 31 64
        E 0 90 63 64
        E 120 80 31 00
        E 0 80 63 00
        E 0 90 19 60
        E 120 90 30 64
        E 0 90 63 64
        E 120 80 19 00
        E 0 80 30 00
        E 0 80 63 00
        E 0 90 18 64
        E 0 90 33 64
        E 0 90 4c 64
        E 0 90 54 64
        E 0 90 58 64
        E 0 90 60 64
        E 0 90 64 64
        E 0 90 70 64
        E 120 80 18 00
        E 0 80 33 00
        E 0 80 4c 00
        E 0 80 54 00
        E 0 80 58 00
        E 0 80 60 00
        E 0 80 64 00
        E 0 80 70 00
        E 120 90 19 60
        E 0 90 30 64
        E 0 90 57 64
        E 0 90 63 64
        E 120 80 30 00
        E 0 80 57 00
        E 0 80 63 00
        E 120 80 78 00
        E 0 80 79 00
        E 0 80 7a 00
        E 0 80 7b 00
        E 0 80 7c 00
        E 0 80 19 00
        E 0 90 18 64
        E 0 90 26 64
        E 0 90 40 64
        E 0 90 48 64
        E 0 90 4c 64
        E 0 90 54 64
        E 0 90 58 64
        E 0 90 60 64
        E 0 90 64 64
        E 120 80 18 00
        E 0 80 26 00
        E 0 80 40 00
        E 0 80 48 00
        E 0 80 4c 00
        E 0 80 54 00
        E 0 80 58 00
        E 0 80 60 00
        E 0 80 64 00
        E 0 90 2e 64
        E 0 90 62 64
        E 120 80 2e 00
        E 0 80 62 00
        E 0 90 19 60
        E 120 90 2f 64
        E 0 90 62 64
        E 120 80 19 00
        E 0 80 2f 00
        E 0 80 62 00
        E 0 90 18 64
        E 0 90 2e 64
        E 0 90 3e 64
        E 0 90 4a 64
        E 0 90 54 64
        E 0 90 56 64
        E 0 90 60 64
        E 0 90 62 64
        E 120 80 18 00
        E 0 80 2e 00
        E 0 80 3e 00
        E 0 80 4a 00
        E 0 80 54 00
        E 0 80 56 00
        E 0 80 60 00
        E 0 80 62 00
        E 0 90 31 64
        E 0 90 63 64
        E 120 80 31 00
        E 0 80 63 00
        E 0 90 19 60
        E 120 90 30 64
        E 0 90 63 64
        E 120 80 19 00
        E 0 80 30 00
        E 0 80 63 00
        E 0 90 18 64
        E 0 90 33 64
        E 0 90 4c 64
        E 0 90 54 64
        E 0 90 58 64
        E 0 90 60 64
        E 0 90 64 64
        E 0 90 70 64
        E 120 80 18 00
        E 0 80 33 00
        E 0 80 4c 00
        E 0 80 54 00
        E 0 80 58 00
        E 0 80 60 00
        E 0 80 64 00
        E 0 80 70 00
        E 120 90 19 60
        E 0 90 30 64
        E 0 90 57 64
        E 0 90 63 64
        E 120 80 30 00
        E 0 80 57 00
        E 0 80 63 00
        E 120 80 19 00
        E 0 90 18 64
        E 0 90 26 64
        E 0 90 40 64
        E 0 90 4c 64
        E 0 90 54 64
        E 0 90 58 64
        E 0 90 60 64
        E 0 90 64 64
        E 0 90 74 64
        E 120 80 18 00
        E 0 80 26 00
        E 0 80 40 00
        E 0 80 4c 00
        E 0 80 54 00
        E 0 80 58 00
        E 0 80 60 00
        E 0 80 64 00
        E 0 90 2e 64
        E 0 90 62 64
        E 120 80 2e 00
        E 0 80 62 00
        E 0 90 19 60
        E 120 90 2f 64
        E 0 90 62 64
        E 120 80 19 00
        E 0 80 2f 00
        E 0 80 62 00
        E 0 90 18 64
        E 0 90 2e 64
        E 0 90 3e 64
        E 0 90 4a 64
        E 0 90 54 64
        E 0 90 56 64
        E 0 90 60 64
        E 0 90 62 64
        E 120 80 18 00
        E 0 80 2e 00
        E 0 80 3e 00
        E 0 80 4a 00
        E 0 80 54 00
        E 0 80 56 00
        E 0 80 60 00
        E 0 80 62 00
        E 0 90 31 64
        E 0 90 63 64
        E 120 80 31 00
        E 0 80 63 00
        E 0 90 19 60
        E 120 90 30 64
        E 0 90 63 64
        E 120 80 19 00
        E 0 80 30 00
        E 0 80 63 00
        E 0 90 18 64
        E 0 90 33 64
        E 0 90 4c 64
        E 0 90 54 64
        E 0 90 58 64
        E 0 90 60 64
        E 0 90 64 64
        E 0 90 70 64
        E 120 80 18 00
        E 0 80 33 00
        E 0 80 4c 00
        E 0 80 54 00
        E 0 80 58 00
        E 0 80 60 00
        E 0 80 64 00
        E 0 80 70 00
        E 120 90 19 60
        E 0 90 30 64
        E 0 90 57 64
        E 0 90 63 64
        E 120 80 30 00
        E 0 80 57 00
        E 0 80 63 00
        E 120 80 19 00
        E 0 90 18 64
        E 0 90 26 64
        E 0 90 40 64
        E 0 90 48 64
        E 0 90 4c 64
        E 0 90 54 64
        E 0 90 58 64
        E 0 90 60 64
        E 0 90 64 64
        E 120 80 74 00
        E 0 80 18 00
        E 0 80 26 00
        E 0 80 40 00
        E 0 80 48 00
        E 0 80 4c 00
        E 0 80 54 00
        E 0 80 58 00
        E 0 80 60 00
        E 0 80 64 00
        E 0 90 2e 64
        E 0 90 62 64
        E 120 80 2e 00
        E 0 80 62 00
        E 0 90 19 60
        E 120 90 2f 64
        E 0 90 62 64
        E 120 80 19 00
        E 0 80 2f 00
        E 0 80 62 00
        E 0 90 18 64
        E 0 90 2e 64
        E 0 90 3e 64
        E 0 90 4a 64
        E 0 90 54 64
        E 0 90 56 64
        E 0 90 60 64
        E 0 90 62 64
        E 120 80 18 00
        E 0 80 2e 00
        E 0 80 3e 00
        E 0 80 4a 00
        E 0 80 54 00
        E 0 80 56 00
        E 0 80 60 00
        E 0 80 62 00
        E 0 90 31 64
        E 0 90 63 64
        E 120 80 31 00
        E 0 80 63 00
        E 0 90 19 60
        E 120 90 30 64
        E 0 90 63 64
        E 120 80 19 00
        E 0 80 30 00
        E 0 80 63 00
        E 0 90 18 64
        E 0 90 33 64
        E 0 90 4c 64
        E 0 90 54 64
        E 0 90 58 64
        E 0 90 60 64
        E 0 90 64 64
        E 0 90 70 64
        E 120 80 18 00
        E 0 80 33 00
        E 0 80 4c 00
        E 0 80 54 00
        E 0 80 58 00
        E 0 80 60 00
        E 0 80 64 00
        E 0 80 70 00
        E 120 90 19 60
        E 0 90 30 64
        E 0 90 57 64
        E 0 90 63 64
        E 120 80 30 00
        E 0 80 57 00
        E 0 80 63 00
        E 120 80 19 00
        E 0 90 18 64
        E 0 90 26 64
        E 0 90 40 64
        E 0 90 4c 64
        E 0 90 54 64
        E 0 90 58 64
        E 0 90 60 64
        E 0 90 64 64
        E 0 90 78 64
        E 0 90 79 64
        E 0 90 7a 64
        E 0 90 7b 64
        E 0 90 7c 64
        E 120 80 18 00
        E 0 80 26 00
        E 0 80 40 00
        E 0 80 4c 00
        E 0 80 54 00
        E 0 80 58 00
        E 0 80 60 00
        E 0 80 64 00
        E 0 90 2e 64
        E 0 90 62 64
        E 120 80 2e 00
        E 0 80 62 00
        E 0 90 19 60
        E 120 90 2f 64
        E 0 90 62 64
        E 120 80 19 00
        E 0 80 2f 00
        E 0 80 62 00
        E 0 90 18 64
        E 0 90 2e 64
        E 0 90 3e 64
        E 0 90 4a 64
        E 0 90 54 64
        E 0 90 56 64
        E 0 90 60 64
        E 0 90 62 64
        E 120 80 18 00
        E 0 80 2e 00
        E 0 80 3e 00
        E 0 80 4a 00
        E 0 80 54 00
        E 0 80 56 00
        E 0 80 60 00
        E 0 80 62 00
        E 0 90 31 64
        E 0 90 63 64
        E 120 80 31 00
        E 0 80 63 00
        E 0 90 19 60
        E 120 90 30 64
        E 0 90 63 64
        E 120 80 19 00
        E 0 80 30 00
        E 0 80 63 00
        E 0 90 18 64
        E 0 90 33 64
        E 0 90 4c 64
        E 0 90 54 64
        E 0 90 58 64
        E 0 90 60 64
        E 0 90 64 64
        E 0 90 70 64
        E 120 80 18 00
        E 0 80 33 00
        E 0 80 4c 00
        E 0 80 54 00
        E 0 80 58 00
        E 0 80 60 00
        E 0 80 64 00
        E 0 80 70 00
        E 120 90 19 60
        E 0 90 30 64
        E 0 90 57 64
        E 0 90 63 64
        E 120 80 30 00
        E 0 80 57 00
        E 0 80 63 00
        E 120 80 78 00
        E 0 80 79 00
        E 0 80 7a 00
        E 0 80 7b 00
        E 0 80 7c 00
        E 0 80 19 00
        E 0 90 18 64
        E 0 90 26 64
        E 0 90 40 64
        E 0 90 48 64
        E 0 90 4c 64
        E 0 90 54 64
        E 0 90 58 64
        E 0 90 60 64
        E 0 90 64 64
        E 120 80 18 00
        E 0 80 26 00
        E 0 80 40 00
        E 0 80 48 00
        E 0 80 4c 00
        E 0 80 54 00
        E 0 80 58 00
        E 0 80 60 00
        E 0 80 64 00
        E 0 90 2e 64
        E 0 90 62 64
        E 120 80 2e 00
        E 0 80 62 00
        E 0 90 19 60
        E 120 90 2f 64
        E 0 90 62 64
        E 120 80 19 00
        E 0 80 2f 00
        E 0 80 62 00
        E 0 90 18 64
        E 0 90 2e 64
        E 0 90 3e 64
        E 0 90 4a 64
        E 0 90 54 64
        E 0 90 56 64
        E 0 90 60 64
        E 0 90 62 64
        E 120 80 18 00
        E 0 80 2e 00
        E 0 80 3e 00
        E 0 80 4a 00
        E 0 80 54 00
        E 0 80 56 00
        E 0 80 60 00
        E 0 80 62 00
        E 0 90 31 64
        E 0 90 63 64
        E 120 80 31 00
        E 0 80 63 00
        E 0 90 19 60
        E 120 90 30 64
        E 0 90 63 64
        E 120 80 19 00
        E 0 80 30 00
        E 0 80 63 00
        E 0 90 18 64
        E 0 90 33 64
        E 0 90 4c 64
        E 0 90 54 64
        E 0 90 58 64
        E 0 90 60 64
        E 0 90 64 64
        E 0 90 70 64
        E 120 80 18 00
        E 0 80 33 00
        E 0 80 4c 00
        E 0 80 54 00
        E 0 80 58 00
        E 0 80 60 00
        E 0 80 64 00
        E 0 80 70 00
        E 120 90 19 60
        E 0 90 30 64
        E 0 90 57 64
        E 0 90 63 64
        E 120 80 30 00
        E 0 80 57 00
        E 0 80 63 00
        E 120 80 19 00
        E 0 90 18 64
        E 0 90 26 64
        E 0 90 40 64
        E 0 90 4c 64
        E 0 90 54 64
        E 0 90 58 64
        E 0 90 60 64
        E 0 90 64 64
        E 120 80 18 00
        E 0 80 26 00
        E 0 80 40 00
        E 0 80 4c 00
        E 0 80 54 00
        E 0 80 58 00
        E 0 80 60 00
        E 0 80 64 00
        E 0 90 2e 64
        E 0 90 62 64
        E 120 80 2e 00
        E 0 80 62 00
        E 0 90 19 60
        E 120 90 2f 64
        E 0 90 62 64
        E 120 80 19 00
        E 0 80 2f 00
        E 0 80 62 00
        E 0 90 18 64
        E 0 90 2e 64
        E 0 90 3e 64
        E 0 90 4a 64
        E 0 90 54 64
        E 0 90 56 64
        E 0 90 60 64
        E 0 90 62 64
        E 120 80 18 00
        E 0 80 2e 00
        E 0 80 3e 00
        E 0 80 4a 00
        E 0 80 54 00
        E 0 80 56 00
        E 0 80 60 00
        E 0 80 62 00
        E 0 90 31 64
        E 0 90 63 64
        E 120 80 31 00
        E 0 80 63 00
        E 0 90 19 60
        E 120 90 30 64
        E 0 90 63 64
        E 120 80 19 00
        E 0 80 30 00
        E 0 80 63 00
        E 0 90 18 64
        E 0 90 33 64
        E 0 90 4c 64
        E 0 90 54 64
        E 0 90 58 64
        E 0 90 60 64
        E 0 90 64 64
        E 0 90 70 64
        E 120 80 18 00
        E 0 80 33 00
        E 0 80 4c 00
        E 0 80 54 00
        E 0 80 58 00
        E 0 80 60 00
        E 0 80 64 00
        E 0 80 70 00
        E 120 90 19 60
        E 0 90 30 64
        E 0 90 57 64
        E 0 90 63 64
        E 120 80 30 00
        E 0 80 57 00
        E 0 80 63 00
        E 120 80 19 00
        E 0 90 18 64
        E 0 90 26 64
        E 0 90 40 64
        E 0 90 48 64
        E 0 90 4c 64
        E 0 90 54 64
        E 0 90 58 64
        E 0 90 60 64
        E 0 90 64 64
        E 0 90 78 64
        E 0 90 79 64
        E 0 90 7a 64
        E 0 90 7b 64
        E 0 90 7c 64
        E 120 80 18 00
        E 0 80 26 00
        E 0 80 40 00
        E 0 80 48 00
        E 0 80 4c 00
        E 0 80 54 00
        E 0 80 58 00
        E 0 80 60 00
        E 0 80 64 00
        E 0 90 2e 64
        E 0 90 62 64
        E 120 80 2e 00
        E 0 80 62 00
        E 0 90 19 60
        E 120 90 2f 64
        E 0 90 62 64
        E 120 80 19 00
        E 0 80 2f 00
        E 0 80 62 00
        E 0 90 18 64
        E 0 90 2e 64
        E 0 90 3e 64
        E 0 90 4a 64
        E 0 90 54 64
        E 0 90 56 64
        E 0 90 60 64
        E 0 90 62 64
        E 120 80 18 00
        E 0 80 2e 00
        E 0 80 3e 00
        E 0 80 4a 00
        E 0 80 54 00
        E 0 80 56 00
        E 0 80 60 00
        E 0 80 62 00
        E 0 90 31 64
        E 0 90 63 64
        E 120 80 31 00
        E 0 80 63 00
        E 0 90 19 60
        E 120 90 30 64
        E 0 90 63 64
        E 120 80 19 00
        E 0 80 30 00
        E 0 80 63 00
        E 0 90 18 64
        E 0 90 33 64
        E 0 90 4c 64
        E 0 90 54 64
        E 0 90 58 64
        E 0 90 60 64
        E 0 90 64 64
        E 0 90 70 64
        E 120 80 18 00
        E 0 80 33 00
        E 0 80 4c 00
        E 0 80 54 00
        E 0 80 58 00
        E 0 80 60 00
        E 0 80 64 00
        E 0 80 70 00
        E 120 90 19 60
        E 0 90 30 64
        E 0 90 57 64
        E 0 90 63 64
        E 120 80 30 00
        E 0 80 57 00
        E 0 80 63 00
        E 120 80 78 00
        E 0 80 79 00
        E 0 80 7a 00
        E 0 80 7b 00
        E 0 80 7c 00
        E 0 80 19 00
        E 0 90 18 64
        E 0 90 26 64
        E 0 90 40 64
        E 0 90 48 64
        E 0 90 4c 64
        E 0 90 54 64
        E 0 90 58 64
        E 0 90 60 64
        E 0 90 64 64
        E 120 80 18 00
        E 0 80 26 00
        E 0 80 40 00
        E 0 80 48 00
        E 0 80 4c 00
        E 0 80 54 00
        E 0 80 58 00
        E 0 80 60 00
        E 0 80 64 00
        E 0 90 2e 64
        E 0 90 62 64
        E 120 80 2e 00
        E 0 80 62 00
        E 0 90 19 60
        E 120 90 2f 64
        E 0 90 62 64
        E 120 80 19 00
        E 0 80 2f 00
        E 0 80 62 00
        E 0 90 18 64
        E 0 90 2e 64
        E 0 90 3e 64
        E 0 90 4a 64
        E 0 90 54 64
        E 0 90 56 64
        E 0 90 60 64
        E 0 90 62 64
        E 120 80 18 00
        E 0 80 2e 00
        E 0 80 3e 00
        E 0 80 4a 00
        E 0 80 54 00
        E 0 80 56 00
        E 0 80 60 00
        E 0 80 62 00
        E 0 90 31 64
        E 0 90 63 64
        E 120 80 31 00
        E 0 80 63 00
        E 0 90 19 60
        E 120 90 30 64
        E 0 90 63 64
        E 120 80 19 00
        E 0 80 30 00
        E 0 80 63 00
        E 0 90 18 64
        E 0 90 33 64
        E 0 90 4c 64
        E 0 90 54 64
        E 0 90 58 64
        E 0 90 60 64
        E 0 90 64 64
        E 0 90 70 64
        E 120 80 18 00
        E 0 80 33 00
        E 0 80 4c 00
        E 0 80 54 00
        E 0 80 58 00
        E 0 80 60 00
        E 0 80 64 00
        E 0 80 70 00
        E 120 90 19 60
        E 0 90 30 64
        E 0 90 57 64
        E 0 90 63 64
        E 120 80 30 00
        E 0 80 57 00
        E 0 80 63 00
        E 120 80 19 00
        E 0 90 18 64
        E 0 90 26 64
        E 0 90 40 64
        E 0 90 4c 64
        E 0 90 54 64
        E 0 90 58 64
        E 0 90 60 64
        E 0 90 64 64
        E 120 80 18 00
        E 0 80 26 00
        E 0 80 40 00
        E 0 80 4c 00
        E 0 80 54 00
        E 0 80 58 00
        E 0 80 60 00
        E 0 80 64 00
        E 0 90 2e 64
        E 0 90 62 64
        E 120 80 2e 00
        E 0 80 62 00
        E 0 90 19 60
        E 120 90 2f 64
        E 0 90 62 64
        E 120 80 19 00
        E 0 80 2f 00
        E 0 80 62 00
        E 0 90 18 64
        E 0 90 2e 64
        E 0 90 3e 64
        E 0 90 4a 64
        E 0 90 54 64
        E 0 90 56 64
        E 0 90 60 64
        E 0 90 62 64
        E 120 80 18 00
        E 0 80 2e 00
        E 0 80 3e 00
        E 0 80 4a 00
        E 0 80 54 00
        E 0 80 56 00
        E 0 80 60 00
        E 0 80 62 00
        E 0 90 31 64
        E 0 90 63 64
        E 120 80 31 00
        E 0 80 63 00
        E 0 90 19 60
        E 120 90 30 64
        E 0 90 63 64
        E 120 80 19 00
        E 0 80 30 00
        E 0 80 63 00
        E 0 90 18 64
        E 0 90 33 64
        E 0 90 4c 64
        E 0 90 54 64
        E 0 90 58 64
        E 0 90 60 64
        E 0 90 64 64
        E 0 90 70 64
        E 120 80 18 00
        E 0 80 33 00
        E 0 80 4c 00
        E 0 80 54 00
        E 0 80 58 00
        E 0 80 60 00
        E 0 80 64 00
        E 0 80 70 00
        E 120 90 19 60
        E 0 90 30 64
        E 0 90 57 64
        E 0 90 63 64
        E 120 80 30 00
        E 0 80 57 00
        E 0 80 63 00
        E 120 80 19 00
        E 0 90 18 64
        E 0 90 26 64
        E 0 90 40 64
        E 0 90 48 64
        E 0 90 4c 64
        E 0 90 54 64
        E 0 90 58 64
        E 0 90 60 64
        E 0 90 64 64
        E 120 80 18 00
        E 0 80 26 00
        E 0 80 40 00
        E 0 80 48 00
        E 0 80 4c 00
        E 0 80 54 00
        E 0 80 58 00
        E 0 80 60 00
        E 0 80 64 00
        E 0 90 2e 64
        E 0 90 62 64
        E 120 80 2e 00
        E 0 80 62 00
        E 0 90 19 60
        E 120 90 2f 64
        E 0 90 62 64
        E 120 80 19 00
        E 0 80 2f 00
        E 0 80 62 00
        E 0 90 18 64
        E 0 90 2e 64
        E 0 90 3e 64
        E 0 90 4a 64
        E 0 90 54 64
        E 0 90 56 64
        E 0 90 60 64
        E 0 90 62 64
        E 120 80 18 00
        E 0 80 2e 00
        E 0 80 3e 00
        E 0 80 4a 00
        E 0 80 54 00
        E 0 80 56 00
        E 0 80 60 00
        E 0 80 62 00
        E 0 90 31 64
        E 0 90 63 64
        E 120 80 31 00
        E 0 80 63 00
        E 0 90 19 60
        E 120 90 30 64
        E 0 90 63 64
        E 120 80 19 00
        E 0 80 30 00
        E 0 80 63 00
        E 0 90 18 64
        E 0 90 33 64
        E 0 90 4c 64
        E 0 90 54 64
        E 0 90 58 64
        E 0 90 60 64
        E 0 90 64 64
        E 0 90 70 64
        E 120 80 18 00
        E 0 80 33 00
        E 0 80 4c 00
        E 0 80 54 00
        E 0 80 58 00
        E 0 80 60 00
        E 0 80 64 00
        E 0 80 70 00
        E 120 90 19 60
        E 0 90 30 64
        E 0 90 57 64
        E 0 90 63 64
        E 120 80 30 00
        E 0 80 57 00
        E 0 80 63 00
        E 120 80 19 00
        E 0 90 18 64
        E 0 90 26 64
        E 0 90 40 64
        E 0 90 4c 64
        E 0 90 54 64
        E 0 90 58 64
        E 0 90 60 64
        E 0 90 64 64
        E 0 90 78 64
        E 0 90 79 64
        E 0 90 7a 64
        E 0 90 7b 64
        E 0 90 7c 64
        E 120 80 18 00
        E 0 80 26 00
        E 0 80 40 00
        E 0 80 4c 00
        E 0 80 54 00
        E 0 80 58 00
        E 0 80 60 00
        E 0 80 64 00
        E 0 90 2e 64
        E 0 90 62 64
        E 120 80 2e 00
        E 0 80 62 00
        E 0 90 19 60
        E 120 90 2f 64
        E 0 90 62 64
        E 120 80 19 00
        E 0 80 2f 00
        E 0 80 62 00
        E 0 90 18 64
        E 0 90 2e 64
        E 0 90 3e 64
        E 0 90 4a 64
        E 0 90 54 64
        E 0 90 56 64
        E 0 90 60 64
        E 0 90 62 64
        E 120 80 18 00
        E 0 80 2e 00
        E 0 80 3e 00
        E 0 80 4a 00
        E 0 80 54 00
        E 0 80 56 00
        E 0 80 60 00
        E 0 80 62 00
        E 0 90 31 64
        E 0 90 63 64
        E 120 80 31 00
        E 0 80 63 00
        E 0 90 19 60
        E 120 90 30 64
        E 0 90 63 64
        E 120 80 19 00
        E 0 80 30 00
        E 0 80 63 00
        E 0 90 18 64
        E 0 90 33 64
        E 0 90 4c 64
        E 0 90 54 64
        E 0 90 58 64
        E 0 90 60 64
        E 0 90 64 64
        E 0 90 70 64
        E 120 80 18 00
        E 0 80 33 00
        E 0 80 4c 00
        E 0 80 54 00
        E 0 80 58 00
        E 0 80 60 00
        E 0 80 64 00
        E 0 80 70 00
        E 120 90 19 60
        E 0 90 30 64
        E 0 90 57 64
        E 0 90 63 64
        E 120 80 30 00
        E 0 80 57 00
        E 0 80 63 00
        E 120 80 78 00
        E 0 80 79 00
        E 0 80 7a 00
        E 0 80 7b 00
        E 0 80 7c 00
        E 0 80 19 00
        E 0 90 18 64
        E 0 90 26 64
        E 0 90 40 64
        E 0 90 48 64
        E 0 90 4c 64
        E 0 90 54 64
        E 0 90 58 64
        E 0 90 60 64
        E 0 90 64 64
        E 120 80 18 00
        E 0 80 26 00
        E 0 80 40 00
        E 0 80 48 00
        E 0 80 4c 00
        E 0 80 54 00
        E 0 80 58 00
        E 0 80 60 00
        E 0 80 64 00
        E 0 90 2e 64
        E 0 90 62 64
        E 120 80 2e 00
        E 0 80 62 00
        E 0 90 19 60
        E 120 90 2f 64
        E 0 90 62 64
        E 120 80 19 00
        E 0 80 2f 00
        E 0 80 62 00
        E 0 90 18 64
        E 0 90 2e 64
        E 0 90 3e 64
        E 0 90 4a 64
        E 0 90 54 64
        E 0 90 56 64
        E 0 90 60 64
        E 0 90 62 64
        E 120 80 18 00
        E 0 80 2e 00
        E 0 80 3e 00
        E 0 80 4a 00
        E 0 80 54 00
        E 0 80 56 00
        E 0 80 60 00
        E 0 80 62 00
        E 0 90 31 64
        E 0 90 63 64
        E 120 80 31 00
        E 0 80 63 00
        E 0 90 19 60
        E 120 90 30 64
        E 0 90 63 64
        E 120 80 19 00
        E 0 80 30 00
        E 0 80 63 00
        E 0 90 18 64
        E 0 90 33 64
        E 0 90 4c 64
        E 0 90 54 64
        E 0 90 58 64
        E 0 90 60 64
        E 0 90 64 64
        E 0 90 70 64
        E 120 80 18 00
        E 0 80 33 00
        E 0 80 4c 00
        E 0 80 54 00
        E 0 80 58 00
        E 0 80 60 00
        E 0 80 64 00
        E 0 80 70 00
        E 120 90 19 60
        E 0 90 30 64
        E 0 90 57 64
        E 0 90 63 64
        E 120 80 30 00
        E 0 80 57 00
        E 0 80 63 00
        E 120 80 19 00
        E 0 90 18 64
        E 0 90 26 64
        E 0 90 40 64
        E 0 90 4c 64
        E 0 90 54 64
        E 0 90 58 64
        E 0 90 60 64
        E 0 90 64 64
        E 120 80 18 00
        E 0 80 26 00
        E 0 80 40 00
        E 0 80 4c 00
        E 0 80 54 00
        E 0 80 58 00
        E 0 80 60 00
        E 0 80 64 00
        E 0 90 2e 64
        E 0 90 62 64
        E 120 80 2e 00
        E 0 80 62 00
        E 0 90 19 60
        E 120 90 2f 64
        E 0 90 62 64
        E 120 80 19 00
        E 0 80 2f 00
        E 0 80 62 00
        E 0 90 18 64
        E 0 90 2e 64
        E 0 90 3e 64
        E 0 90 4a 64
        E 0 90 54 64
        E 0 90 56 64
        E 0 90 60 64
        E 0 90 62 64
        E 120 80 18 00
        E 0 80 2e 00
        E 0 80 3e 00
        E 0 80 4a 00
        E 0 80 54 00
        E 0 80 56 00
        E 0 80 60 00
        E 0 80 62 00
        E 0 90 31 64
        E 0 90 63 64
        E 120 80 31 00
        E 0 80 63 00
        E 0 90 19 60
        E 120 90 30 64
        E 0 90 63 64
        E 120 80 19 00
        E 0 80 30 00
        E 0 80 63 00
        E 0 90 18 64
        E 0 90 33 64
        E 0 90 4c 64
        E 0 90 54 64
        E 0 90 58 64
        E 0 90 60 64
        E 0 90 64 64
        E 0 90 70 64
        E 120 80 18 00
        E 0 80 33 00
        E 0 80 4c 00
        E 0 80 54 00
        E 0 80 58 00
        E 0 80 60 00
        E 0 80 64 00
        E 0 80 70 00
        E 120 90 19 60
        E 0 90 30 64
        E 0 90 57 64
        E 0 90 63 64
        E 120 80 30 00
        E 0 80 57 00
        E 0 80 63 00
        E 120 80 19 00
        E 0 90 18 64
        E 0 90 26 64
        E 0 90 40 64
        E 0 90 48 64
        E 0 90 4c 64
        E 0 90 54 64
        E 0 90 58 64
        E 0 90 60 64
        E 0 90 64 64
        E 120 80 18 00
        E 0 80 26 00
        E 0 80 40 00
        E 0 80 48 00
        E 0 80 4c 00
        E 0 80 54 00
        E 0 80 58 00
        E 0 80 60 00
        E 0 80 64 00
        E 0 90 2e 64
        E 0 90 62 64
        E 120 80 2e 00
        E 0 80 62 00
        E 0 90 19 60
        E 120 90 2f 64
        E 0 90 62 64
        E 120 80 19 00
        E 0 80 2f 00
        E 0 80 62 00
        E 0 90 18 64
        E 0 90 2e 64
        E 0 90 3e 64
        E 0 90 4a 64
        E 0 90 54 64
        E 0 90 56 64
        E 0 90 60 64
        E 0 90 62 64
        E 120 80 18 00
        E 0 80 2e 00
        E 0 80 3e 00
        E 0 80 4a 00
        E 0 80 54 00
        E 0 80 56 00
        E 0 80 60 00
        E 0 80 62 00
        E 0 90 31 64
        E 0 90 63 64
        E 120 80 31 00
        E 0 80 63 00
        E 0 90 19 60
        E 120 90 30 64
        E 0 90 63 64
        E 120 80 19 00
        E 0 80 30 00
        E 0 80 63 00
        E 0 90 18 64
        E 0 90 33 64
        E 0 90 4c 64
        E 0 90 54 64
        E 0 90 58 64
        E 0 90 60 64
        E 0 90 64 64
        E 0 90 70 64
        E 120 80 18 00
        E 0 80 33 00
        E 0 80 4c 00
        E 0 80 54 00
        E 0 80 58 00
        E 0 80 60 00
        E 0 80 64 00
        E 0 80 70 00
        E 120 90 19 60
        E 0 90 30 64
        E 0 90 57 64
        E 0 90 63 64
        E 120 80 30 00
        E 0 80 57 00
        E 0 80 63 00
        E 120 80 6f 00
        E 0 80 6e 00
        E 0 80 19 00
        E 0 90 18 64
        E 0 90 26 64
        E 0 90 40 64
        E 0 90 48 60
        E 0 90 4c 64
        E 0 90 54 64
        E 0 90 58 64
        E 0 90 60 64
        E 0 90 64 64
        <X 120 0
          /wFbaWRsZV9yZWFsdGltZV0=
        >
        E 0 80 18 00
        E 0 80 26 00
        E 0 80 40 00
        E 0 80 48 00
        E 0 80 4c 00
        E 0 80 54 00
        E 0 80 58 00
        E 0 80 60 00
        E 0 80 64 00
        E 2760 b0 7b 00
        GUID {DBC71F98-6F70-455B-B1EE-3D18DE83B7C9}
        IGNTEMPO 0 120.00000000 4 4
        SRCCOLOR 59
        VELLANE 132 128 60
        COLORMAP "C:\Program Files\REAPER (x64)\Data\color_maps\rockband_guitarbass.png"
        CFGEDITVIEW -8909.328748 7.742543 0 12 0 0 0
        CFGEDIT 1 1 0 1 1 0 1 1 1 1 1 0.12500000 53 44 1253 718 0 2 1 1 0.00000000 0 1 1 0 0.500000 0 0 1.000000 64
        KEYSNAP 0 7 "102030050700" 0 "Pentatonic"
        EVTFILTER 0 -1 -1 -1 -1 0 1 0 0 -1.00000000 -1.00000000
      >
    >
  >
  <TRACK '{BB40483E-73CD-45DF-85FA-7C27F272AD7C}'
    NAME "PART BASS"
    PEAKCOL 16576
    BEAT -1
    AUTOMODE 0
    VOLPAN 1.00000000000000 0.00000000000000 -1.00000000000000 -1.00000000000000 1.00000000000000
    MUTESOLO 0 0 0
    IPHASE 0
    ISBUS 0 0
    BUSCOMP 0 0
    SHOWINMIX 1 0.666700 0.500000 1 0.500000 -1 -1 -1
    FREEMODE 0
    SEL 0
    REC 0 0 0 0 0 0 0
    VU 2
    TRACKHEIGHT 0 0
    INQ 0 0 0 0.5000000000 100 0 0 100
    NCHAN 2
    FX 1
    TRACKID {BB40483E-73CD-45DF-85FA-7C27F272AD7C}
    PERF 0
    MIDIOUT -1
    <MIDINOTENAMES
      0 127 "TRILL MARKER"
      0 126 "TREMOLO MARKER"
      0 125 "---"
      0 124 "BRE"
      0 123 "BRE"
      0 122 "BRE"
      0 121 "BRE"
      0 120 "BRE (use all 5)"
      0 119 "----"
      0 116 "OVERDRIVE"
      0 115 "----"
      0 103 "Solo Marker"
      0 102 "Force HOPO Off"
      0 101 "Force HOPO On"
      0 100 "EXPERT Orange"
      0 99 "EXPERT Blue"
      0 98 "EXPERT Yellow"
      0 97 "EXPERT Red"
      0 96 "EXPERT Green"
      0 95 "----"
      0 90 "Force HOPO Off"
      0 89 "Force HOPO On"
      0 88 "HARD Orange"
      0 87 "HARD Blue"
      0 86 "HARD Yellow"
      0 85 "HARD Red"
      0 84 "HARD Green"
      0 77 "----"
      0 76 "MEDIUM Orange"
      0 75 "MEDIUM Blue"
      0 74 "MEDIUM Yellow"
      0 73 "MEDIUM Red"
      0 72 "MEDIUM Green"
      0 65 "----"
      0 64 "EASY Orange"
      0 63 "EASY Blue"
      0 62 "EASY Yellow"
      0 61 "EASY Red"
      0 60 "EASY Green"
      0 59 "Fret 12"
      0 57 "Fret 11"
      0 56 "Fret 10"
      0 55 "Fret 9"
      0 53 "Fret 8"
      0 52 "Fret 7"
      0 50 "Fret 6"
      0 49 "Fret 5"
      0 47 "Fret 4"
      0 45 "Fret 3"
      0 43 "Fret 2"
      0 40 "Fret 1"
    >
    MAINSEND 1 0
    <FXCHAIN
      WNDRECT 0 43 891 559
      SHOW 0
      LASTSEL 0
      DOCKED 0
      BYPASS 0 0
      <VST "VSTi: RBN Preview (RBN)" "rbprev_vst64.dll" 0 ""
        dnBicu5e7f4AAAAAAgAAAAEAAAAAAAAAAgAAAAAAAAAEAAAAAQAAAA==
        AAAQAAMAqgAAABAAAAA=
      >
      FLOATPOS 0 0 0 0
      FXID {E5F88371-8333-48DB-96CE-C9453B90D149}
      WAK 0
    >
    <ITEM
      POSITION 0.00000000000000
      SNAPOFFS 0.00000000000000
      LENGTH 145.04278911564626
      LOOP 0
      ALLTAKES 0
      SEL 0
      FADEIN 1 0.000000 0.000000 1 0
      FADEOUT 1 0.000000 0.000000 1 0
      MUTE 0
      IGUID {A35BD5BB-C9A6-466F-BC3B-9B8FEB09E278}
      IID 2
      NAME "PART BASS"
      VOLPAN 1.000000 0.000000 1.000000 -1.000000
      SOFFS 0.00000000000000 0.00000000000000
      PLAYRATE 1.00000000000000 1 0.00000000000000 -1
      CHANMODE 0
      GUID {5946D0C5-9F15-46DB-8C48-789502670146}
      <SOURCE MIDI
        HASDATA 1 480 QN
        POOLEDEVTS {DDD78FAB-6C1F-4520-A4E6-829EB5AD1A51}
        <X 0 0
          /wNQQVJUIEJBU1M=
        >
        <X 2880 0
          /wFbaWRsZV0=
        >
        <X 26880 0
          /wFbcGxheV0=
        >
        E 120 90 4a 60
        E 0 90 56 60
        E 0 90 62 60
        E 120 80 4a 00
        E 0 80 56 00
        E 0 80 62 00
        E 240 90 3c 60
        E 0 90 48 60
        E 0 90 54 60
        E 0 90 60 60
        E 120 80 3c 00
        E 0 80 48 00
        E 240 80 54 00
        E 0 80 60 00
        E 120 90 48 60
        E 0 90 54 60
        E 0 90 60 60
        E 120 80 48 00
        E 240 80 54 00
        E 0 80 60 00
        E 120 90 54 60
        E 0 90 60 60
        E 360 80 54 00
        E 0 80 60 00
        <X 120 0
          /wFbaW50ZW5zZV0=
        >
        E 0 90 32 60
        E 0 90 3d 60
        E 0 90 4a 60
        E 0 90 56 60
        E 0 90 62 60
        E 120 80 3d 00
        E 0 80 4a 00
        E 0 80 56 00
        E 0 80 62 00
        E 240 80 32 00
        E 0 90 60 60
        E 120 80 60 00
        E 0 90 2a 60
        E 0 90 48 60
        E 0 90 54 60
        E 0 90 60 60
        E 120 80 48 00
        E 0 80 54 00
        E 0 80 60 00
        E 120 90 54 60
        E 0 90 60 60
        E 120 80 2a 00
        E 0 80 54 00
        E 0 80 60 00
        E 120 90 35 60
        E 0 90 3e 60
        E 0 90 4b 60
        E 0 90 57 60
        E 0 90 63 60
        E 120 80 3e 00
        E 0 80 4b 00
        E 0 80 57 00
        E 0 80 63 00
        E 120 90 57 60
        E 0 90 63 60
        E 120 80 35 00
        E 0 80 57 00
        E 0 80 63 00
        E 120 90 32 60
        E 0 90 3d 60
        E 0 90 4a 60
        E 0 90 56 60
        E 0 90 62 60
        E 120 80 3d 00
        E 0 80 4a 00
        E 0 80 56 00
        E 0 80 62 00
        E 240 80 32 00
        E 0 90 60 60
        E 120 80 60 00
        E 0 90 2a 60
        E 0 90 48 60
        E 0 90 54 60
        E 0 90 60 60
        E 120 80 48 00
        E 0 80 54 00
        E 0 80 60 00
        E 120 90 54 60
        E 0 90 60 60
        E 120 80 2a 00
        E 0 80 54 00
        E 0 80 60 00
        E 120 90 35 60
        E 0 90 3e 60
        E 0 90 4b 60
        E 0 90 57 60
        E 0 90 63 60
        E 120 80 3e 00
        E 0 80 4b 00
        E 0 80 57 00
        E 0 80 63 00
        E 120 90 57 60
        E 0 90 63 60
        E 120 80 35 00
        E 0 80 57 00
        E 0 80 63 00
        E 120 90 32 60
        E 0 90 3d 60
        E 0 90 4a 60
        E 0 90 56 60
        E 0 90 62 60
        E 120 80 3d 00
        E 0 80 4a 00
        E 0 80 56 00
        E 0 80 62 00
        E 240 80 32 00
        E 0 90 60 60
        E 120 80 60 00
        E 0 90 2a 60
        E 0 90 48 60
        E 0 90 54 60
        E 0 90 60 60
        E 120 80 48 00
        E 0 80 54 00
        E 0 80 60 00
        E 120 90 54 60
        E 0 90 60 60
        E 120 80 2a 00
        E 0 80 54 00
        E 0 80 60 00
        E 120 90 35 60
        E 0 90 3e 60
        E 0 90 4b 60
        E 0 90 57 60
        E 0 90 63 60
        E 120 80 3e 00
        E 0 80 4b 00
        E 0 80 57 00
        E 0 80 63 00
        E 120 90 57 60
        E 0 90 63 60
        E 120 80 35 00
        E 0 80 57 00
        E 0 80 63 00
        E 120 90 32 60
        E 0 90 3d 60
        E 0 90 4a 60
        E 0 90 56 60
        E 0 90 62 60
        E 120 80 3d 00
        E 0 80 4a 00
        E 0 80 56 00
        E 0 80 62 00
        E 240 80 32 00
        E 0 90 60 60
        E 120 80 60 00
        E 0 90 2a 60
        E 0 90 48 60
        E 0 90 54 60
        E 0 90 60 60
        E 120 80 48 00
        E 0 80 54 00
        E 0 80 60 00
        E 120 90 54 60
        E 0 90 60 60
        E 120 80 2a 00
        E 0 80 54 00
        E 0 80 60 00
        E 120 90 35 60
        E 0 90 3e 60
        E 0 90 4b 60
        E 0 90 57 60
        E 0 90 63 60
        E 120 80 3e 00
        E 0 80 4b 00
        E 0 80 57 00
        E 0 80 63 00
        E 120 90 57 60
        E 0 90 63 60
        E 120 80 35 00
        E 0 80 57 00
        E 0 80 63 00
        E 120 90 32 60
        E 0 90 3d 60
        E 0 90 4a 60
        E 0 90 56 60
        E 0 90 62 60
        E 120 80 3d 00
        E 0 80 4a 00
        E 0 80 56 00
        E 0 80 62 00
        E 240 80 32 00
        E 0 90 60 60
        E 120 80 60 00
        E 0 90 2a 60
        E 0 90 48 60
        E 0 90 54 60
        E 0 90 60 60
        E 120 80 48 00
        E 0 80 54 00
        E 0 80 60 00
        E 120 90 54 60
        E 0 90 60 60
        E 120 80 2a 00
        E 0 80 54 00
        E 0 80 60 00
        E 120 90 35 60
        E 0 90 3e 60
        E 0 90 4b 60
        E 0 90 57 60
        E 0 90 63 60
        E 120 80 3e 00
        E 0 80 4b 00
        E 0 80 57 00
        E 0 80 63 00
        E 120 90 57 60
        E 0 90 63 60
        E 120 80 35 00
        E 0 80 57 00
        E 0 80 63 00
        E 120 90 32 60
        E 0 90 3d 60
        E 0 90 4a 60
        E 0 90 56 60
        E 0 90 62 60
        E 0 90 74 60
        E 120 80 3d 00
        E 0 80 4a 00
        E 0 80 56 00
        E 0 80 62 00
        E 240 80 32 00
        E 0 90 60 60
        E 120 80 60 00
        E 0 90 2a 60
        E 0 90 48 60
        E 0 90 54 60
        E 0 90 60 60
        E 120 80 48 00
        E 0 80 54 00
        E 0 80 60 00
        E 120 90 54 60
        E 0 90 60 60
        E 120 80 2a 00
        E 0 80 54 00
        E 0 80 60 00
        E 120 90 35 60
        E 0 90 3e 60
        E 0 90 4b 60
        E 0 90 57 60
        E 0 90 63 60
        E 120 80 3e 00
        E 0 80 4b 00
        E 0 80 57 00
        E 0 80 63 00
        E 120 90 57 60
        E 0 90 63 60
        E 120 80 35 00
        E 0 80 57 00
        E 0 80 63 00
        E 120 90 32 60
        E 0 90 3d 60
        E 0 90 4a 60
        E 0 90 56 60
        E 0 90 62 60
        E 120 80 74 00
        E 0 80 3d 00
        E 0 80 4a 00
        E 0 80 56 00
        E 0 80 62 00
        E 240 80 32 00
        E 0 90 60 60
        E 120 80 60 00
        E 0 90 2a 60
        E 0 90 48 60
        E 0 90 54 60
        E 0 90 60 60
        E 120 80 48 00
        E 0 80 54 00
        E 0 80 60 00
        E 120 90 54 60
        E 0 90 60 60
        E 120 80 2a 00
        E 0 80 54 00
        E 0 80 60 00
        E 120 90 35 60
        E 0 90 3e 60
        E 0 90 4b 60
        E 0 90 57 60
        E 0 90 63 60
        E 120 80 3e 00
        E 0 80 4b 00
        E 0 80 57 00
        E 0 80 63 00
        E 120 90 57 60
        E 0 90 63 60
        E 120 80 35 00
        E 0 80 57 00
        E 0 80 63 00
        E 120 90 32 60
        E 0 90 3d 60
        E 0 90 4a 60
        E 0 90 56 60
        E 0 90 62 60
        E 120 80 3d 00
        E 0 80 4a 00
        E 0 80 56 00
        E 0 80 62 00
        E 240 80 32 00
        E 0 90 60 60
        E 120 80 60 00
        E 0 90 2a 60
        E 0 90 48 60
        E 0 90 54 60
        E 0 90 60 60
        E 120 80 48 00
        E 0 80 54 00
        E 0 80 60 00
        E 120 90 54 60
        E 0 90 60 60
        E 120 80 2a 00
        E 0 80 54 00
        E 0 80 60 00
        E 120 90 35 60
        E 0 90 3e 60
        E 0 90 4b 60
        E 0 90 57 60
        E 0 90 63 60
        E 120 80 3e 00
        E 0 80 4b 00
        E 0 80 57 00
        E 0 80 63 00
        E 240 80 35 00
        <X 120 0
          /wFbcGxheV0=
        >
        E 0 90 32 60
        E 0 90 3e 60
        E 0 90 4a 60
        E 0 90 56 60
        E 0 90 62 60
        E 120 80 3e 00
        E 0 80 4a 00
        E 240 80 56 00
        E 0 80 62 00
        E 120 90 3e 60
        E 0 90 4a 60
        E 0 90 56 60
        E 0 90 62 60
        E 120 80 3e 00
        E 0 80 4a 00
        E 0 80 56 00
        E 0 80 62 00
        E 240 90 61 60
        E 120 80 61 00
        E 0 90 4a 60
        E 0 90 56 60
        E 0 90 62 60
        E 120 80 4a 00
        E 0 80 56 00
        E 0 80 62 00
        E 120 90 54 60
        E 0 90 60 60
        E 120 80 32 00
        E 0 80 54 00
        E 0 80 60 00
        E 120 90 36 60
        E 0 90 3d 60
        E 0 90 49 60
        E 0 90 55 60
        E 0 90 61 60
        E 120 80 3d 00
        E 0 80 49 00
        E 240 80 55 00
        E 0 80 61 00
        E 120 90 3d 60
        E 0 90 49 60
        E 0 90 55 60
        E 0 90 61 60
        E 120 80 3d 00
        E 0 80 49 00
        E 0 80 55 00
        E 0 80 61 00
        E 240 90 4b 60
        E 0 90 57 60
        E 0 90 63 60
        E 120 80 4b 00
        E 0 80 57 00
        E 0 80 63 00
        E 0 90 61 60
        E 120 80 61 00
        E 120 90 57 60
        E 0 90 63 60
        E 120 80 36 00
        E 0 80 57 00
        E 0 80 63 00
        E 120 90 34 60
        E 0 90 3c 60
        E 0 90 48 60
        E 0 90 54 60
        E 0 90 60 60
        E 120 80 3c 00
        E 0 80 48 00
        E 240 80 54 00
        E 0 80 60 00
        E 120 90 3c 60
        E 0 90 48 60
        E 0 90 54 60
        E 0 90 60 60
        E 120 80 3c 00
        E 0 80 48 00
        E 0 80 54 00
        E 0 80 60 00
        E 240 90 4a 60
        E 0 90 56 60
        E 0 90 62 60
        E 120 80 4a 00
        E 0 80 56 00
        E 0 80 62 00
        E 0 90 60 60
        E 120 80 60 00
        E 120 90 56 60
        E 0 90 62 60
        E 120 80 34 00
        E 0 80 56 00
        E 0 80 62 00
        E 120 90 36 60
        E 0 90 3d 60
        E 0 90 49 60
        E 0 90 55 60
        E 0 90 61 60
        E 120 80 3d 00
        E 0 80 49 00
        E 240 80 55 00
        E 0 80 61 00
        E 120 90 3d 60
        E 0 90 49 60
        E 0 90 55 60
        E 0 90 61 60
        E 120 80 3d 00
        E 0 80 49 00
        E 0 80 55 00
        E 0 80 61 00
        E 240 90 4b 60
        E 0 90 57 60
        E 0 90 63 60
        E 120 80 4b 00
        E 0 80 57 00
        E 0 80 63 00
        E 0 90 61 60
        E 120 80 61 00
        E 120 90 57 60
        E 0 90 63 60
        E 120 80 36 00
        E 0 80 57 00
        E 0 80 63 00
        E 120 90 38 60
        E 0 90 3e 60
        E 0 90 4a 60
        E 0 90 56 60
        E 0 90 62 60
        E 120 80 3e 00
        E 0 80 4a 00
        E 240 80 56 00
        E 0 80 62 00
        E 120 90 3e 60
        E 0 90 4a 60
        E 0 90 56 60
        E 0 90 62 60
        E 120 80 3e 00
        E 0 80 4a 00
        E 0 80 56 00
        E 0 80 62 00
        E 240 90 4b 60
        E 0 90 58 60
        E 0 90 64 60
        E 120 80 4b 00
        E 0 80 58 00
        E 0 80 64 00
        E 0 90 62 60
        E 120 80 62 00
        E 120 90 58 60
        E 0 90 64 60
        E 120 80 38 00
        E 0 80 58 00
        E 0 80 64 00
        E 120 90 36 60
        E 0 90 3d 60
        E 0 90 49 60
        E 0 90 55 60
        E 0 90 61 60
        E 120 80 3d 00
        E 0 80 49 00
        E 240 80 55 00
        E 0 80 61 00
        E 120 90 3d 60
        E 0 90 49 60
        E 0 90 55 60
        E 0 90 61 60
        E 120 80 3d 00
        E 0 80 49 00
        E 0 80 55 00
        E 0 80 61 00
        E 240 90 4b 60
        E 0 90 57 60
        E 0 90 63 60
        E 120 80 4b 00
        E 0 80 57 00
        E 0 80 63 00
        E 0 90 61 60
        E 120 80 61 00
        E 120 90 57 60
        E 0 90 63 60
        E 120 80 36 00
        E 0 80 57 00
        E 0 80 63 00
        E 120 90 34 60
        E 0 90 3c 60
        E 0 90 48 60
        E 0 90 54 60
        E 0 90 60 60
        E 120 80 3c 00
        E 0 80 48 00
        E 240 80 54 00
        E 0 80 60 00
        E 120 90 3c 60
        E 0 90 48 60
        E 0 90 54 60
        E 0 90 60 60
        E 120 80 3c 00
        E 0 80 48 00
        E 0 80 54 00
        E 0 80 60 00
        E 240 90 4a 60
        E 0 90 56 60
        E 0 90 62 60
        E 120 80 4a 00
        E 0 80 56 00
        E 0 80 62 00
        E 0 90 60 60
        E 120 80 60 00
        E 120 90 56 60
        E 0 90 62 60
        E 120 80 34 00
        E 0 80 56 00
        E 0 80 62 00
        E 120 90 36 60
        E 0 90 3d 60
        E 0 90 49 60
        E 0 90 55 60
        E 0 90 61 60
        E 120 80 3d 00
        E 0 80 49 00
        E 240 80 55 00
        E 0 80 61 00
        E 120 90 3d 60
        E 0 90 49 60
        E 0 90 55 60
        E 0 90 61 60
        E 120 80 3d 00
        E 0 80 49 00
        E 0 80 55 00
        E 0 80 61 00
        E 240 90 4b 60
        E 0 90 57 60
        E 0 90 63 60
        E 120 80 4b 00
        E 0 80 57 00
        E 0 80 63 00
        E 0 90 61 60
        E 120 80 61 00
        E 120 90 57 60
        E 0 90 63 60
        E 120 80 36 00
        E 0 80 57 00
        E 0 80 63 00
        <X 120 0
          /wFbaW50ZW5zZV0=
        >
        E 0 90 32 60
        E 0 90 3d 60
        E 0 90 4a 60
        E 0 90 56 60
        E 0 90 62 60
        E 120 80 3d 00
        E 0 80 4a 00
        E 0 80 56 00
        E 0 80 62 00
        E 240 80 32 00
        E 0 90 60 60
        E 120 80 60 00
        E 0 90 2a 60
        E 0 90 48 60
        E 0 90 54 60
        E 0 90 60 60
        E 0 90 74 60
        E 120 80 48 00
        E 0 80 54 00
        E 0 80 60 00
        E 120 90 54 60
        E 0 90 60 60
        E 120 80 2a 00
        E 0 80 54 00
        E 0 80 60 00
        E 120 90 35 60
        E 0 90 3e 60
        E 0 90 4b 60
        E 0 90 57 60
        E 0 90 63 60
        E 120 80 3e 00
        E 0 80 4b 00
        E 0 80 57 00
        E 0 80 63 00
        E 120 90 57 60
        E 0 90 63 60
        E 120 80 35 00
        E 0 80 57 00
        E 0 80 63 00
        E 120 90 32 60
        E 0 90 3d 60
        E 0 90 4a 60
        E 0 90 56 60
        E 0 90 62 60
        E 120 80 3d 00
        E 0 80 4a 00
        E 0 80 56 00
        E 0 80 62 00
        E 240 80 32 00
        E 0 90 60 60
        E 120 80 60 00
        E 0 90 2a 60
        E 0 90 48 60
        E 0 90 54 60
        E 0 90 60 60
        E 120 80 48 00
        E 0 80 54 00
        E 0 80 60 00
        E 120 90 54 60
        E 0 90 60 60
        E 120 80 2a 00
        E 0 80 54 00
        E 0 80 60 00
        E 120 90 35 60
        E 0 90 3e 60
        E 0 90 4b 60
        E 0 90 57 60
        E 0 90 63 60
        E 120 80 3e 00
        E 0 80 4b 00
        E 0 80 57 00
        E 0 80 63 00
        E 120 90 57 60
        E 0 90 63 60
        E 120 80 35 00
        E 0 80 57 00
        E 0 80 63 00
        E 120 90 32 60
        E 0 90 3d 60
        E 0 90 4a 60
        E 0 90 56 60
        E 0 90 62 60
        E 120 80 74 00
        E 0 80 3d 00
        E 0 80 4a 00
        E 0 80 56 00
        E 0 80 62 00
        E 240 80 32 00
        E 0 90 60 60
        E 120 80 60 00
        E 0 90 2a 60
        E 0 90 48 60
        E 0 90 54 60
        E 0 90 60 60
        E 120 80 48 00
        E 0 80 54 00
        E 0 80 60 00
        E 120 90 54 60
        E 0 90 60 60
        E 120 80 2a 00
        E 0 80 54 00
        E 0 80 60 00
        E 120 90 35 60
        E 0 90 3e 60
        E 0 90 4b 60
        E 0 90 57 60
        E 0 90 63 60
        E 120 80 3e 00
        E 0 80 4b 00
        E 0 80 57 00
        E 0 80 63 00
        E 120 90 57 60
        E 0 90 63 60
        E 120 80 35 00
        E 0 80 57 00
        E 0 80 63 00
        E 120 90 32 60
        E 0 90 3d 60
        E 0 90 4a 60
        E 0 90 56 60
        E 0 90 62 60
        E 120 80 3d 00
        E 0 80 4a 00
        E 0 80 56 00
        E 0 80 62 00
        E 240 80 32 00
        E 0 90 60 60
        E 120 80 60 00
        E 0 90 2a 60
        E 0 90 48 60
        E 0 90 54 60
        E 0 90 60 60
        E 120 80 48 00
        E 0 80 54 00
        E 0 80 60 00
        E 120 90 54 60
        E 0 90 60 60
        E 120 80 2a 00
        E 0 80 54 00
        E 0 80 60 00
        E 120 90 35 60
        E 0 90 3e 60
        E 0 90 4b 60
        E 0 90 57 60
        E 0 90 63 60
        E 120 80 3e 00
        E 0 80 4b 00
        E 0 80 57 00
        E 0 80 63 00
        E 120 90 57 60
        E 0 90 63 60
        E 120 80 35 00
        E 0 80 57 00
        E 0 80 63 00
        E 120 90 32 60
        E 0 90 3d 60
        E 0 90 4a 60
        E 0 90 56 60
        E 0 90 62 60
        E 120 80 3d 00
        E 0 80 4a 00
        E 0 80 56 00
        E 0 80 62 00
        E 240 80 32 00
        E 0 90 60 60
        E 120 80 60 00
        E 0 90 2a 60
        E 0 90 48 60
        E 0 90 54 60
        E 0 90 60 60
        E 120 80 48 00
        E 0 80 54 00
        E 0 80 60 00
        E 120 90 54 60
        E 0 90 60 60
        E 120 80 2a 00
        E 0 80 54 00
        E 0 80 60 00
        E 120 90 35 60
        E 0 90 3e 60
        E 0 90 4b 60
        E 0 90 57 60
        E 0 90 63 60
        E 120 80 3e 00
        E 0 80 4b 00
        E 0 80 57 00
        E 0 80 63 00
        E 120 90 57 60
        E 0 90 63 60
        E 120 80 35 00
        E 0 80 57 00
        E 0 80 63 00
        E 120 90 32 60
        E 0 90 3d 60
        E 0 90 4a 60
        E 0 90 56 60
        E 0 90 62 60
        E 120 80 3d 00
        E 0 80 4a 00
        E 0 80 56 00
        E 0 80 62 00
        E 240 80 32 00
        E 0 90 60 60
        E 120 80 60 00
        E 0 90 2a 60
        E 0 90 48 60
        E 0 90 54 60
        E 0 90 60 60
        E 120 80 48 00
        E 0 80 54 00
        E 0 80 60 00
        E 120 90 54 60
        E 0 90 60 60
        E 120 80 2a 00
        E 0 80 54 00
        E 0 80 60 00
        E 120 90 35 60
        E 0 90 3e 60
        E 0 90 4b 60
        E 0 90 57 60
        E 0 90 63 60
        E 120 80 3e 00
        E 0 80 4b 00
        E 0 80 57 00
        E 0 80 63 00
        E 120 90 57 60
        E 0 90 63 60
        E 120 80 35 00
        E 0 80 57 00
        E 0 80 63 00
        E 120 90 32 60
        E 0 90 3d 60
        E 0 90 4a 60
        E 0 90 56 60
        E 0 90 62 60
        E 120 80 3d 00
        E 0 80 4a 00
        E 0 80 56 00
        E 0 80 62 00
        E 240 80 32 00
        E 0 90 60 60
        E 120 80 60 00
        E 0 90 2a 60
        E 0 90 48 60
        E 0 90 54 60
        E 0 90 60 60
        E 120 80 48 00
        E 0 80 54 00
        E 0 80 60 00
        E 120 90 54 60
        E 0 90 60 60
        E 120 80 2a 00
        E 0 80 54 00
        E 0 80 60 00
        E 120 90 35 60
        E 0 90 3e 60
        E 0 90 4b 60
        E 0 90 57 60
        E 0 90 63 60
        E 120 80 3e 00
        E 0 80 4b 00
        E 0 80 57 00
        E 0 80 63 00
        E 120 90 57 60
        E 0 90 63 60
        E 120 80 35 00
        E 0 80 57 00
        E 0 80 63 00
        E 120 90 32 60
        E 0 90 3d 60
        E 0 90 4a 60
        E 0 90 56 60
        E 0 90 62 60
        E 120 80 3d 00
        E 0 80 4a 00
        E 0 80 56 00
        E 0 80 62 00
        E 240 80 32 00
        E 0 90 60 60
        E 120 80 60 00
        E 0 90 2a 60
        E 0 90 48 60
        E 0 90 54 60
        E 0 90 60 60
        E 120 80 48 00
        E 0 80 54 00
        E 0 80 60 00
        E 120 90 54 60
        E 0 90 60 60
        E 120 80 2a 00
        E 0 80 54 00
        E 0 80 60 00
        E 120 90 35 60
        E 0 90 3e 60
        E 0 90 4b 60
        E 0 90 57 60
        E 0 90 63 60
        E 120 80 3e 00
        E 0 80 4b 00
        E 0 80 57 00
        E 0 80 63 00
        E 240 80 35 00
        <X 120 0
          /wFbaWRsZV0=
        >
        <X 17280 0
          /wFbcGxheV0=
        >
        E 0 90 32 60
        E 0 90 3e 60
        E 0 90 4a 60
        E 0 90 56 60
        E 0 90 62 60
        E 0 90 74 60
        E 120 80 3e 00
        E 0 80 4a 00
        E 240 80 56 00
        E 0 80 62 00
        E 120 90 3e 60
        E 0 90 4a 60
        E 0 90 56 60
        E 0 90 62 60
        E 120 80 3e 00
        E 0 80 4a 00
        E 0 80 56 00
        E 0 80 62 00
        E 240 90 61 60
        E 120 80 61 00
        E 0 90 4a 60
        E 0 90 56 60
        E 0 90 62 60
        E 120 80 4a 00
        E 0 80 56 00
        E 0 80 62 00
        E 120 90 54 60
        E 0 90 60 60
        E 120 80 32 00
        E 0 80 54 00
        E 0 80 60 00
        E 120 90 36 60
        E 0 90 3d 60
        E 0 90 49 60
        E 0 90 55 60
        E 0 90 61 60
        E 120 80 3d 00
        E 0 80 49 00
        E 240 80 55 00
        E 0 80 61 00
        E 120 90 3d 60
        E 0 90 49 60
        E 0 90 55 60
        E 0 90 61 60
        E 120 80 3d 00
        E 0 80 49 00
        E 0 80 55 00
        E 0 80 61 00
        E 240 90 4b 60
        E 0 90 57 60
        E 0 90 63 60
        E 120 80 4b 00
        E 0 80 57 00
        E 0 80 63 00
        E 0 90 61 60
        E 120 80 61 00
        E 120 90 57 60
        E 0 90 63 60
        E 120 80 36 00
        E 0 80 57 00
        E 0 80 63 00
        E 120 80 74 00
        E 0 90 34 60
        E 0 90 3c 60
        E 0 90 48 60
        E 0 90 54 60
        E 0 90 60 60
        E 120 80 3c 00
        E 0 80 48 00
        E 240 80 54 00
        E 0 80 60 00
        E 120 90 3c 60
        E 0 90 48 60
        E 0 90 54 60
        E 0 90 60 60
        E 120 80 3c 00
        E 0 80 48 00
        E 0 80 54 00
        E 0 80 60 00
        E 240 90 4a 60
        E 0 90 56 60
        E 0 90 62 60
        E 120 80 4a 00
        E 0 80 56 00
        E 0 80 62 00
        E 0 90 60 60
        E 120 80 60 00
        E 120 90 56 60
        E 0 90 62 60
        E 120 80 34 00
        E 0 80 56 00
        E 0 80 62 00
        E 120 90 36 60
        E 0 90 3d 60
        E 0 90 49 60
        E 0 90 55 60
        E 0 90 61 60
        E 120 80 3d 00
        E 0 80 49 00
        E 240 80 55 00
        E 0 80 61 00
        E 120 90 3d 60
        E 0 90 49 60
        E 0 90 55 60
        E 0 90 61 60
        E 120 80 3d 00
        E 0 80 49 00
        E 0 80 55 00
        E 0 80 61 00
        E 240 90 4b 60
        E 0 90 57 60
        E 0 90 63 60
        E 120 80 4b 00
        E 0 80 57 00
        E 0 80 63 00
        E 0 90 61 60
        E 120 80 61 00
        E 120 90 57 60
        E 0 90 63 60
        E 120 80 36 00
        E 0 80 57 00
        E 0 80 63 00
        E 120 90 38 60
        E 0 90 3e 60
        E 0 90 4a 60
        E 0 90 56 60
        E 0 90 62 60
        E 120 80 3e 00
        E 0 80 4a 00
        E 240 80 56 00
        E 0 80 62 00
        E 120 90 3e 60
        E 0 90 4a 60
        E 0 90 56 60
        E 0 90 62 60
        E 120 80 3e 00
        E 0 80 4a 00
        E 0 80 56 00
        E 0 80 62 00
        E 240 90 4b 60
        E 0 90 58 60
        E 0 90 64 60
        E 120 80 4b 00
        E 0 80 58 00
        E 0 80 64 00
        E 0 90 62 60
        E 120 80 62 00
        E 120 90 58 60
        E 0 90 64 60
        E 120 80 38 00
        E 0 80 58 00
        E 0 80 64 00
        E 120 90 36 60
        E 0 90 3d 60
        E 0 90 49 60
        E 0 90 55 60
        E 0 90 61 60
        E 120 80 3d 00
        E 0 80 49 00
        E 240 80 55 00
        E 0 80 61 00
        E 120 90 3d 60
        E 0 90 49 60
        E 0 90 55 60
        E 0 90 61 60
        E 120 80 3d 00
        E 0 80 49 00
        E 0 80 55 00
        E 0 80 61 00
        E 240 90 4b 60
        E 0 90 57 60
        E 0 90 63 60
        E 120 80 4b 00
        E 0 80 57 00
        E 0 80 63 00
        E 0 90 61 60
        E 120 80 61 00
        E 120 90 57 60
        E 0 90 63 60
        E 120 80 36 00
        E 0 80 57 00
        E 0 80 63 00
        E 120 90 34 60
        E 0 90 3c 60
        E 0 90 48 60
        E 0 90 54 60
        E 0 90 60 60
        E 120 80 3c 00
        E 0 80 48 00
        E 240 80 54 00
        E 0 80 60 00
        E 120 90 3c 60
        E 0 90 48 60
        E 0 90 54 60
        E 0 90 60 60
        E 120 80 3c 00
        E 0 80 48 00
        E 0 80 54 00
        E 0 80 60 00
        E 240 90 4a 60
        E 0 90 56 60
        E 0 90 62 60
        E 120 80 4a 00
        E 0 80 56 00
        E 0 80 62 00
        E 0 90 60 60
        E 120 80 60 00
        E 120 90 56 60
        E 0 90 62 60
        E 120 80 34 00
        E 0 80 56 00
        E 0 80 62 00
        E 120 90 36 60
        E 0 90 3d 60
        E 0 90 49 60
        E 0 90 55 60
        E 0 90 61 60
        E 120 80 3d 00
        E 240 80 49 00
        E 0 80 55 00
        E 0 80 61 00
        E 120 90 3d 60
        E 0 90 49 60
        E 0 90 55 60
        E 0 90 61 60
        E 120 80 3d 00
        E 0 80 49 00
        E 0 80 55 00
        E 0 80 61 00
        E 240 90 4b 60
        E 0 90 57 60
        E 0 90 63 60
        E 120 80 4b 00
        E 0 80 57 00
        E 0 80 63 00
        E 0 90 61 60
        E 120 80 61 00
        E 120 90 57 60
        E 0 90 63 60
        E 120 80 36 00
        E 0 80 57 00
        E 0 80 63 00
        <X 119 0
          /wFbaW50ZW5zZV0=
        >
        E 1 90 32 60
        E 0 90 3d 60
        E 0 90 4a 60
        E 0 90 56 60
        E 0 90 62 60
        E 120 80 3d 00
        E 0 80 4a 00
        E 0 80 56 00
        E 0 80 62 00
        E 240 80 32 00
        E 0 90 56 60
        E 0 90 62 60
        E 120 80 56 00
        E 0 80 62 00
        E 0 90 2a 60
        E 0 90 48 60
        E 0 90 54 60
        E 0 90 60 60
        E 120 80 48 00
        E 0 80 54 00
        E 0 80 60 00
        E 120 90 60 60
        E 120 80 2a 00
        E 0 80 60 00
        E 0 90 57 60
        E 0 90 63 60
        E 120 80 57 00
        E 0 80 63 00
        E 0 90 35 60
        E 0 90 3e 60
        E 0 90 4b 60
        E 0 90 57 60
        E 0 90 63 60
        E 120 80 3e 00
        E 0 80 4b 00
        E 0 80 57 00
        E 0 80 63 00
        E 120 90 57 60
        E 0 90 63 60
        E 120 80 35 00
        E 0 80 57 00
        E 0 80 63 00
        E 120 90 32 60
        E 0 90 3d 60
        E 0 90 4a 60
        E 0 90 56 60
        E 0 90 62 60
        E 120 80 3d 00
        E 0 80 4a 00
        E 0 80 56 00
        E 0 80 62 00
        E 240 80 32 00
        E 0 90 56 60
        E 0 90 62 60
        E 120 80 56 00
        E 0 80 62 00
        E 0 90 2a 60
        E 0 90 48 60
        E 0 90 54 60
        E 0 90 60 60
        E 120 80 48 00
        E 0 80 54 00
        E 0 80 60 00
        E 120 90 60 60
        E 120 80 2a 00
        E 0 80 60 00
        E 0 90 57 60
        E 0 90 63 60
        E 120 80 57 00
        E 0 80 63 00
        E 0 90 35 60
        E 0 90 3e 60
        E 0 90 4b 60
        E 0 90 57 60
        E 0 90 63 60
        E 120 80 3e 00
        E 0 80 4b 00
        E 0 80 57 00
        E 0 80 63 00
        E 120 90 57 60
        E 0 90 63 60
        E 120 80 35 00
        E 0 80 57 00
        E 0 80 63 00
        E 120 90 32 60
        E 0 90 3d 60
        E 0 90 4a 60
        E 0 90 56 60
        E 0 90 62 60
        E 120 80 3d 00
        E 0 80 4a 00
        E 0 80 56 00
        E 0 80 62 00
        E 240 80 32 00
        E 0 90 56 60
        E 0 90 62 60
        E 120 80 56 00
        E 0 80 62 00
        E 0 90 2a 60
        E 0 90 48 60
        E 0 90 54 60
        E 0 90 60 60
        E 120 80 48 00
        E 0 80 54 00
        E 0 80 60 00
        E 120 90 60 60
        E 120 80 2a 00
        E 0 80 60 00
        E 0 90 57 60
        E 0 90 63 60
        E 120 80 57 00
        E 0 80 63 00
        E 0 90 35 60
        E 0 90 3e 60
        E 0 90 4b 60
        E 0 90 57 60
        E 0 90 63 60
        E 120 80 3e 00
        E 0 80 4b 00
        E 0 80 57 00
        E 0 80 63 00
        E 120 90 57 60
        E 0 90 63 60
        E 120 80 35 00
        E 0 80 57 00
        E 0 80 63 00
        E 120 90 32 60
        E 0 90 3d 60
        E 0 90 4a 60
        E 0 90 56 60
        E 0 90 62 60
        E 0 90 74 60
        E 120 80 3d 00
        E 0 80 4a 00
        E 0 80 56 00
        E 0 80 62 00
        E 240 80 32 00
        E 0 90 56 60
        E 0 90 62 60
        E 120 80 56 00
        E 0 80 62 00
        E 0 90 2a 60
        E 0 90 48 60
        E 0 90 54 60
        E 0 90 60 60
        E 120 80 48 00
        E 0 80 54 00
        E 0 80 60 00
        E 120 90 60 60
        E 120 80 2a 00
        E 0 80 60 00
        E 0 90 57 60
        E 0 90 63 60
        E 120 80 57 00
        E 0 80 63 00
        E 0 90 35 60
        E 0 90 3e 60
        E 0 90 4b 60
        E 0 90 57 60
        E 0 90 63 60
        E 120 80 3e 00
        E 0 80 4b 00
        E 0 80 57 00
        E 0 80 63 00
        E 120 90 57 60
        E 0 90 63 60
        E 120 80 74 00
        E 0 80 35 00
        E 0 80 57 00
        E 0 80 63 00
        E 120 90 32 60
        E 0 90 3d 60
        E 0 90 4a 60
        E 0 90 56 60
        E 0 90 62 60
        E 120 80 3d 00
        E 0 80 4a 00
        E 0 80 56 00
        E 0 80 62 00
        E 240 80 32 00
        E 0 90 56 60
        E 0 90 62 60
        E 120 80 56 00
        E 0 80 62 00
        E 0 90 2a 60
        E 0 90 48 60
        E 0 90 54 60
        E 0 90 60 60
        E 120 80 48 00
        E 0 80 54 00
        E 0 80 60 00
        E 120 90 60 60
        E 120 80 2a 00
        E 0 80 60 00
        E 0 90 57 60
        E 0 90 63 60
        E 120 80 57 00
        E 0 80 63 00
        E 0 90 35 60
        E 0 90 3e 60
        E 0 90 4b 60
        E 0 90 57 60
        E 0 90 63 60
        E 120 80 3e 00
        E 0 80 4b 00
        E 0 80 57 00
        E 0 80 63 00
        E 120 90 57 60
        E 0 90 63 60
        E 120 80 35 00
        E 0 80 57 00
        E 0 80 63 00
        E 120 90 32 60
        E 0 90 3d 60
        E 0 90 4a 60
        E 0 90 56 60
        E 0 90 62 60
        E 120 80 3d 00
        E 0 80 4a 00
        E 0 80 56 00
        E 0 80 62 00
        E 240 80 32 00
        E 0 90 56 60
        E 0 90 62 60
        E 120 80 56 00
        E 0 80 62 00
        E 0 90 2a 60
        E 0 90 48 60
        E 0 90 54 60
        E 0 90 60 60
        E 120 80 48 00
        E 0 80 54 00
        E 0 80 60 00
        E 120 90 60 60
        E 120 80 2a 00
        E 0 80 60 00
        E 0 90 57 60
        E 0 90 63 60
        E 120 80 57 00
        E 0 80 63 00
        E 0 90 35 60
        E 0 90 3e 60
        E 0 90 4b 60
        E 0 90 57 60
        E 0 90 63 60
        E 120 80 3e 00
        E 0 80 4b 00
        E 0 80 57 00
        E 0 80 63 00
        E 120 90 57 60
        E 0 90 63 60
        E 120 80 35 00
        E 0 80 57 00
        E 0 80 63 00
        E 120 90 32 60
        E 0 90 3d 60
        E 0 90 4a 60
        E 0 90 56 60
        E 0 90 62 60
        E 120 80 3d 00
        E 0 80 4a 00
        E 0 80 56 00
        E 0 80 62 00
        E 240 80 32 00
        E 0 90 56 60
        E 0 90 62 60
        E 120 80 56 00
        E 0 80 62 00
        E 0 90 2a 60
        E 0 90 48 60
        E 0 90 54 60
        E 0 90 60 60
        E 120 80 48 00
        E 0 80 54 00
        E 0 80 60 00
        E 120 90 60 60
        E 120 80 2a 00
        E 0 80 60 00
        E 0 90 57 60
        E 0 90 63 60
        E 120 80 57 00
        E 0 80 63 00
        E 0 90 35 60
        E 0 90 3e 60
        E 0 90 4b 60
        E 0 90 57 60
        E 0 90 63 60
        E 120 80 3e 00
        E 0 80 4b 00
        E 0 80 57 00
        E 0 80 63 00
        E 120 90 57 60
        E 0 90 63 60
        E 120 80 35 00
        E 0 80 57 00
        E 0 80 63 00
        E 120 90 32 60
        E 0 90 3d 60
        E 0 90 4a 60
        E 0 90 56 60
        E 0 90 62 60
        E 120 80 3d 00
        E 0 80 4a 00
        E 0 80 56 00
        E 0 80 62 00
        E 240 80 32 00
        E 0 90 56 60
        E 0 90 62 60
        E 120 80 56 00
        E 0 80 62 00
        E 0 90 2a 60
        E 0 90 48 60
        E 0 90 54 60
        E 0 90 60 60
        E 120 80 48 00
        E 0 80 54 00
        E 0 80 60 00
        E 120 90 60 60
        E 120 80 2a 00
        E 0 80 60 00
        E 0 90 57 60
        E 0 90 63 60
        E 120 80 57 00
        E 0 80 63 00
        E 0 90 35 60
        E 0 90 3e 60
        E 0 90 4b 60
        E 0 90 57 60
        E 0 90 63 60
        E 120 80 3e 00
        E 0 80 4b 00
        E 0 80 57 00
        E 0 80 63 00
        E 120 90 57 60
        E 0 90 63 60
        E 120 80 35 00
        E 0 80 57 00
        E 0 80 63 00
        E 120 90 32 60
        E 0 90 3d 60
        E 0 90 4a 60
        E 0 90 56 60
        E 0 90 62 60
        E 120 80 3d 00
        E 0 80 4a 00
        E 0 80 56 00
        E 0 80 62 00
        E 240 80 32 00
        E 0 90 56 60
        E 0 90 62 60
        E 120 80 56 00
        E 0 80 62 00
        E 0 90 2a 60
        E 0 90 48 60
        E 0 90 54 60
        E 0 90 60 60
        E 120 80 48 00
        E 0 80 54 00
        E 0 80 60 00
        E 120 90 60 60
        E 120 80 2a 00
        E 0 80 60 00
        E 0 90 57 60
        E 0 90 63 60
        E 120 80 57 00
        E 0 80 63 00
        E 0 90 35 60
        E 0 90 3e 60
        E 0 90 4b 60
        E 0 90 57 60
        E 0 90 63 60
        E 120 80 3e 00
        E 0 80 4b 00
        E 0 80 57 00
        E 0 80 63 00
        E 120 90 57 60
        E 0 90 63 60
        E 120 80 35 00
        E 0 80 57 00
        E 0 80 63 00
        E 120 90 32 60
        E 0 90 3d 60
        E 0 90 4a 60
        E 0 90 56 60
        E 0 90 62 60
        E 120 80 3d 00
        E 0 80 4a 00
        E 0 80 56 00
        E 0 80 62 00
        E 240 80 32 00
        E 0 90 56 60
        E 0 90 62 60
        E 120 80 56 00
        E 0 80 62 00
        E 0 90 2a 60
        E 0 90 48 60
        E 0 90 54 60
        E 0 90 60 60
        E 120 80 48 00
        E 0 80 54 00
        E 0 80 60 00
        E 120 90 60 60
        E 120 80 2a 00
        E 0 80 60 00
        E 0 90 57 60
        E 0 90 63 60
        E 120 80 57 00
        E 0 80 63 00
        E 0 90 35 60
        E 0 90 3e 60
        E 0 90 4b 60
        E 0 90 57 60
        E 0 90 63 60
        E 120 80 3e 00
        E 0 80 4b 00
        E 0 80 57 00
        E 0 80 63 00
        E 120 90 57 60
        E 0 90 63 60
        E 120 80 35 00
        E 0 80 57 00
        E 0 80 63 00
        E 120 90 32 60
        E 0 90 3d 60
        E 0 90 4a 60
        E 0 90 56 60
        E 0 90 62 60
        E 120 80 3d 00
        E 0 80 4a 00
        E 0 80 56 00
        E 0 80 62 00
        E 240 80 32 00
        E 0 90 56 60
        E 0 90 62 60
        E 120 80 56 00
        E 0 80 62 00
        E 0 90 2a 60
        E 0 90 48 60
        E 0 90 54 60
        E 0 90 60 60
        E 120 80 48 00
        E 0 80 54 00
        E 0 80 60 00
        E 120 90 60 60
        E 120 80 2a 00
        E 0 80 60 00
        E 0 90 57 60
        E 0 90 63 60
        E 120 80 57 00
        E 0 80 63 00
        E 0 90 35 60
        E 0 90 3e 60
        E 0 90 4b 60
        E 0 90 57 60
        E 0 90 63 60
        E 120 80 3e 00
        E 0 80 4b 00
        E 0 80 57 00
        E 0 80 63 00
        E 120 90 57 60
        E 0 90 63 60
        E 120 80 35 00
        E 0 80 57 00
        E 0 80 63 00
        E 120 90 32 60
        E 0 90 3d 60
        E 0 90 4a 60
        E 0 90 56 60
        E 0 90 62 60
        E 120 80 3d 00
        E 0 80 4a 00
        E 0 80 56 00
        E 0 80 62 00
        E 240 80 32 00
        E 0 90 56 60
        E 0 90 62 60
        E 120 80 56 00
        E 0 80 62 00
        E 0 90 2a 60
        E 0 90 48 60
        E 0 90 54 60
        E 0 90 60 60
        E 120 80 48 00
        E 0 80 54 00
        E 0 80 60 00
        E 120 90 60 60
        E 120 80 2a 00
        E 0 80 60 00
        E 0 90 57 60
        E 0 90 63 60
        E 120 80 57 00
        E 0 80 63 00
        E 0 90 35 60
        E 0 90 3e 60
        E 0 90 4b 60
        E 0 90 57 60
        E 0 90 63 60
        E 120 80 3e 00
        E 0 80 4b 00
        E 0 80 57 00
        E 0 80 63 00
        E 120 90 57 60
        E 0 90 63 60
        E 120 80 35 00
        E 0 80 57 00
        E 0 80 63 00
        E 120 90 32 60
        E 0 90 3d 60
        E 0 90 4a 60
        E 0 90 56 60
        E 0 90 62 60
        E 120 80 3d 00
        E 0 80 4a 00
        E 0 80 56 00
        E 0 80 62 00
        E 240 80 32 00
        E 0 90 56 60
        E 0 90 62 60
        E 120 80 56 00
        E 0 80 62 00
        E 0 90 2a 60
        E 0 90 48 60
        E 0 90 54 60
        E 0 90 60 60
        E 120 80 48 00
        E 0 80 54 00
        E 0 80 60 00
        E 120 90 60 60
        E 120 80 2a 00
        E 0 80 60 00
        E 0 90 57 60
        E 0 90 63 60
        E 120 80 57 00
        E 0 80 63 00
        E 0 90 35 60
        E 0 90 3e 60
        E 0 90 4b 60
        E 0 90 57 60
        E 0 90 63 60
        E 120 80 3e 00
        E 0 80 4b 00
        E 0 80 57 00
        E 0 80 63 00
        E 120 90 57 60
        E 0 90 63 60
        E 120 80 35 00
        E 0 80 57 00
        E 0 80 63 00
        E 120 90 32 60
        E 0 90 3d 60
        E 0 90 4a 60
        E 0 90 56 60
        E 0 90 62 60
        E 120 80 3d 00
        E 0 80 4a 00
        E 0 80 56 00
        E 0 80 62 00
        E 240 80 32 00
        E 0 90 56 60
        E 0 90 62 60
        E 120 80 56 00
        E 0 80 62 00
        E 0 90 2a 60
        E 0 90 48 60
        E 0 90 54 60
        E 0 90 60 60
        E 120 80 48 00
        E 0 80 54 00
        E 0 80 60 00
        E 120 90 60 60
        E 120 80 2a 00
        E 0 80 60 00
        E 0 90 57 60
        E 0 90 63 60
        E 120 80 57 00
        E 0 80 63 00
        E 0 90 35 60
        E 0 90 3e 60
        E 0 90 4b 60
        E 0 90 57 60
        E 0 90 63 60
        E 120 80 3e 00
        E 0 80 4b 00
        E 0 80 57 00
        E 0 80 63 00
        E 120 90 57 60
        E 0 90 63 60
        E 120 80 35 00
        E 0 80 57 00
        E 0 80 63 00
        E 120 90 32 60
        E 0 90 3d 60
        E 0 90 4a 60
        E 0 90 56 60
        E 0 90 62 60
        E 120 80 3d 00
        E 0 80 4a 00
        E 0 80 56 00
        E 0 80 62 00
        E 240 80 32 00
        E 0 90 56 60
        E 0 90 62 60
        E 120 80 56 00
        E 0 80 62 00
        E 0 90 2a 60
        E 0 90 48 60
        E 0 90 54 60
        E 0 90 60 60
        E 120 80 48 00
        E 0 80 54 00
        E 0 80 60 00
        E 120 90 60 60
        E 120 80 2a 00
        E 0 80 60 00
        E 0 90 57 60
        E 0 90 63 60
        E 120 80 57 00
        E 0 80 63 00
        E 0 90 35 60
        E 0 90 3e 60
        E 0 90 4b 60
        E 0 90 57 60
        E 0 90 63 60
        E 120 80 3e 00
        E 0 80 4b 00
        E 0 80 57 00
        E 0 80 63 00
        E 120 90 57 60
        E 0 90 63 60
        E 120 80 35 00
        E 0 80 57 00
        E 0 80 63 00
        E 120 90 32 60
        E 0 90 3d 60
        E 0 90 4a 60
        E 0 90 56 60
        E 0 90 62 60
        E 0 90 74 60
        E 120 80 3d 00
        E 0 80 4a 00
        E 0 80 56 00
        E 0 80 62 00
        E 240 80 32 00
        E 0 90 56 60
        E 0 90 62 60
        E 120 80 56 00
        E 0 80 62 00
        E 0 90 2a 60
        E 0 90 48 60
        E 0 90 54 60
        E 0 90 60 60
        E 120 80 48 00
        E 0 80 54 00
        E 0 80 60 00
        E 120 90 60 60
        E 120 80 2a 00
        E 0 80 60 00
        E 0 90 57 60
        E 0 90 63 60
        E 120 80 57 00
        E 0 80 63 00
        E 0 90 35 60
        E 0 90 3e 60
        E 0 90 4b 60
        E 0 90 57 60
        E 0 90 63 60
        E 120 80 3e 00
        E 0 80 4b 00
        E 0 80 57 00
        E 0 80 63 00
        E 120 90 57 60
        E 0 90 63 60
        E 120 80 35 00
        E 0 80 57 00
        E 0 80 63 00
        E 120 90 32 60
        E 0 90 3d 60
        E 0 90 4a 60
        E 0 90 56 60
        E 0 90 62 60
        E 120 80 74 00
        E 0 80 3d 00
        E 0 80 4a 00
        E 0 80 56 00
        E 0 80 62 00
        E 240 80 32 00
        E 0 90 56 60
        E 0 90 62 60
        E 120 80 56 00
        E 0 80 62 00
        E 0 90 2a 60
        E 0 90 48 60
        E 0 90 54 60
        E 0 90 60 60
        E 120 80 48 00
        E 0 80 54 00
        E 0 80 60 00
        E 120 90 60 60
        E 120 80 2a 00
        E 0 80 60 00
        E 0 90 57 60
        E 0 90 63 60
        E 120 80 57 00
        E 0 80 63 00
        E 0 90 35 60
        E 0 90 3e 60
        E 0 90 4b 60
        E 0 90 57 60
        E 0 90 63 60
        E 120 80 3e 00
        E 0 80 4b 00
        E 0 80 57 00
        E 0 80 63 00
        E 120 90 57 60
        E 0 90 63 60
        E 120 80 35 00
        E 0 80 57 00
        E 0 80 63 00
        E 120 90 32 60
        E 0 90 3d 60
        E 0 90 4a 60
        E 0 90 56 60
        E 0 90 62 60
        E 120 80 3d 00
        E 0 80 4a 00
        E 0 80 56 00
        E 0 80 62 00
        E 240 80 32 00
        E 0 90 56 60
        E 0 90 62 60
        E 120 80 56 00
        E 0 80 62 00
        E 0 90 2a 60
        E 0 90 48 60
        E 0 90 54 60
        E 0 90 60 60
        E 120 80 48 00
        E 0 80 54 00
        E 0 80 60 00
        E 120 90 60 60
        E 120 80 2a 00
        E 0 80 60 00
        E 0 90 57 60
        E 0 90 63 60
        E 120 80 57 00
        E 0 80 63 00
        E 0 90 35 60
        E 0 90 3e 60
        E 0 90 4b 60
        E 0 90 57 60
        E 0 90 63 60
        E 120 80 3e 00
        E 0 80 4b 00
        E 0 80 57 00
        E 0 80 63 00
        E 120 90 57 60
        E 0 90 63 60
        E 120 80 35 00
        E 0 80 57 00
        E 0 80 63 00
        E 120 90 32 60
        E 0 90 3d 60
        E 0 90 4a 60
        E 0 90 56 60
        E 0 90 62 60
        E 120 80 3d 00
        E 0 80 4a 00
        E 0 80 56 00
        E 0 80 62 00
        E 240 80 32 00
        E 0 90 56 60
        E 0 90 62 60
        E 120 80 56 00
        E 0 80 62 00
        E 0 90 2a 60
        E 0 90 48 60
        E 0 90 54 60
        E 0 90 60 60
        E 120 80 48 00
        E 0 80 54 00
        E 0 80 60 00
        E 120 90 60 60
        E 120 80 2a 00
        E 0 80 60 00
        E 0 90 57 60
        E 0 90 63 60
        E 120 80 57 00
        E 0 80 63 00
        E 0 90 35 60
        E 0 90 3e 60
        E 0 90 4b 60
        E 0 90 57 60
        E 0 90 63 60
        E 120 80 3e 00
        E 0 80 4b 00
        E 0 80 57 00
        E 0 80 63 00
        E 120 90 57 60
        E 0 90 63 60
        E 120 80 35 00
        E 0 80 57 00
        E 0 80 63 00
        E 120 90 32 60
        E 0 90 3d 60
        E 0 90 4a 60
        E 0 90 56 60
        E 0 90 62 60
        E 120 80 3d 00
        E 0 80 4a 00
        E 0 80 56 00
        E 0 80 62 00
        E 240 80 32 00
        E 0 90 56 60
        E 0 90 62 60
        E 120 80 56 00
        E 0 80 62 00
        E 0 90 2a 60
        E 0 90 48 60
        E 0 90 54 60
        E 0 90 60 60
        E 120 80 48 00
        E 0 80 54 00
        E 0 80 60 00
        E 120 90 60 60
        E 120 80 2a 00
        E 0 80 60 00
        E 0 90 57 60
        E 0 90 63 60
        E 120 80 57 00
        E 0 80 63 00
        E 0 90 35 60
        E 0 90 3e 60
        E 0 90 4b 60
        E 0 90 57 60
        E 0 90 63 60
        E 120 80 3e 00
        E 0 80 4b 00
        E 0 80 57 00
        E 0 80 63 00
        E 120 90 57 60
        E 0 90 63 60
        E 120 80 35 00
        E 0 80 57 00
        E 0 80 63 00
        E 120 90 32 60
        E 0 90 3d 60
        E 0 90 4a 60
        E 0 90 56 60
        E 0 90 62 60
        E 120 80 3d 00
        E 0 80 4a 00
        E 0 80 56 00
        E 0 80 62 00
        E 240 80 32 00
        E 0 90 56 60
        E 0 90 62 60
        E 120 80 56 00
        E 0 80 62 00
        E 0 90 2a 60
        E 0 90 48 60
        E 0 90 54 60
        E 0 90 60 60
        E 120 80 48 00
        E 0 80 54 00
        E 0 80 60 00
        E 120 90 60 60
        E 120 80 2a 00
        E 0 80 60 00
        E 0 90 57 60
        E 0 90 63 60
        E 120 80 57 00
        E 0 80 63 00
        E 0 90 35 60
        E 0 90 3e 60
        E 0 90 4b 60
        E 0 90 57 60
        E 0 90 63 60
        E 120 80 3e 00
        E 0 80 4b 00
        E 0 80 57 00
        E 0 80 63 00
        E 120 90 57 60
        E 0 90 63 60
        E 120 80 35 00
        E 0 80 57 00
        E 0 80 63 00
        E 120 90 32 60
        E 0 90 3d 60
        E 0 90 4a 60
        E 0 90 56 60
        E 0 90 62 60
        E 120 80 3d 00
        E 0 80 4a 00
        E 0 80 56 00
        E 0 80 62 00
        E 240 80 32 00
        E 0 90 56 60
        E 0 90 62 60
        E 120 80 56 00
        E 0 80 62 00
        E 0 90 2a 60
        E 0 90 48 60
        E 0 90 54 60
        E 0 90 60 60
        E 120 80 48 00
        E 0 80 54 00
        E 0 80 60 00
        E 120 90 60 60
        E 120 80 2a 00
        E 0 80 60 00
        E 0 90 57 60
        E 0 90 63 60
        E 120 80 57 00
        E 0 80 63 00
        E 0 90 35 60
        E 0 90 3e 60
        E 0 90 4b 60
        E 0 90 57 60
        E 0 90 63 60
        E 120 80 3e 00
        E 0 80 4b 00
        E 0 80 57 00
        E 0 80 63 00
        E 120 90 57 60
        E 0 90 63 60
        E 120 80 35 00
        E 0 80 57 00
        E 0 80 63 00
        E 120 90 32 60
        E 0 90 3d 60
        E 0 90 4a 60
        E 0 90 56 60
        E 0 90 62 60
        E 120 80 3d 00
        E 0 80 4a 00
        E 0 80 56 00
        E 0 80 62 00
        E 240 80 32 00
        E 0 90 56 60
        E 0 90 62 60
        E 120 80 56 00
        E 0 80 62 00
        E 0 90 2a 60
        E 0 90 48 60
        E 0 90 54 60
        E 0 90 60 60
        E 120 80 48 00
        E 0 80 54 00
        E 0 80 60 00
        E 120 90 60 60
        E 120 80 2a 00
        E 0 80 60 00
        E 0 90 57 60
        E 0 90 63 60
        E 120 80 57 00
        E 0 80 63 00
        E 0 90 35 60
        E 0 90 3e 60
        E 0 90 4b 60
        E 0 90 57 60
        E 0 90 63 60
        E 120 80 3e 00
        E 0 80 4b 00
        E 0 80 57 00
        E 0 80 63 00
        E 120 90 57 60
        E 0 90 63 60
        E 120 80 35 00
        E 0 80 57 00
        E 0 80 63 00
        E 120 90 32 60
        E 0 90 3d 60
        E 0 90 4a 60
        E 0 90 56 60
        E 0 90 62 60
        E 120 80 3d 00
        E 0 80 4a 00
        E 0 80 56 00
        E 0 80 62 00
        E 240 80 32 00
        E 0 90 56 60
        E 0 90 62 60
        E 120 80 56 00
        E 0 80 62 00
        E 0 90 2a 60
        E 0 90 48 60
        E 0 90 54 60
        E 0 90 60 60
        E 120 80 48 00
        E 0 80 54 00
        E 0 80 60 00
        E 120 90 60 60
        E 120 80 2a 00
        E 0 80 60 00
        E 0 90 57 60
        E 0 90 63 60
        E 120 80 57 00
        E 0 80 63 00
        E 0 90 35 60
        E 0 90 3e 60
        E 0 90 4b 60
        E 0 90 57 60
        E 0 90 63 60
        E 120 80 3e 00
        E 0 80 4b 00
        E 0 80 57 00
        E 0 80 63 00
        E 120 90 57 60
        E 0 90 63 60
        E 120 80 35 00
        E 0 80 57 00
        E 0 80 63 00
        E 120 90 32 60
        E 0 90 3d 60
        E 0 90 4a 60
        E 0 90 56 60
        E 0 90 62 60
        E 120 80 3d 00
        E 0 80 4a 00
        E 0 80 56 00
        E 0 80 62 00
        E 240 80 32 00
        E 0 90 56 60
        E 0 90 62 60
        E 120 80 56 00
        E 0 80 62 00
        E 0 90 2a 60
        E 0 90 48 60
        E 0 90 54 60
        E 0 90 60 60
        E 120 80 48 00
        E 0 80 54 00
        E 0 80 60 00
        E 120 90 60 60
        E 120 80 2a 00
        E 0 80 60 00
        E 0 90 57 60
        E 0 90 63 60
        E 120 80 57 00
        E 0 80 63 00
        E 0 90 35 60
        E 0 90 3e 60
        E 0 90 4b 60
        E 0 90 57 60
        E 0 90 63 60
        E 120 80 3e 00
        E 0 80 4b 00
        E 0 80 57 00
        E 0 80 63 00
        E 120 90 57 60
        E 0 90 63 60
        E 120 80 35 00
        E 0 80 57 00
        E 0 80 63 00
        E 120 90 32 60
        E 0 90 3d 60
        E 0 90 4a 60
        E 0 90 56 60
        E 0 90 62 60
        E 120 80 3d 00
        E 0 80 4a 00
        E 0 80 56 00
        E 0 80 62 00
        E 240 80 32 00
        E 0 90 56 60
        E 0 90 62 60
        E 120 80 56 00
        E 0 80 62 00
        E 0 90 2a 60
        E 0 90 48 60
        E 0 90 54 60
        E 0 90 60 60
        E 120 80 48 00
        E 0 80 54 00
        E 0 80 60 00
        E 120 90 60 60
        E 120 80 2a 00
        E 0 80 60 00
        E 0 90 57 60
        E 0 90 63 60
        E 120 80 57 00
        E 0 80 63 00
        E 0 90 35 60
        E 0 90 3e 60
        E 0 90 4b 60
        E 0 90 57 60
        E 0 90 63 60
        E 120 80 3e 00
        E 0 80 4b 00
        E 0 80 57 00
        E 0 80 63 00
        E 120 90 57 60
        E 0 90 63 60
        E 120 80 35 00
        E 0 80 57 00
        E 0 80 63 00
        E 120 90 32 60
        E 0 90 3d 60
        E 0 90 4a 60
        E 0 90 56 60
        E 0 90 62 60
        E 120 80 3d 00
        E 0 80 4a 00
        E 0 80 56 00
        E 0 80 62 00
        E 240 80 32 00
        E 0 90 56 60
        E 0 90 62 60
        E 120 80 56 00
        E 0 80 62 00
        E 0 90 2a 60
        E 0 90 48 60
        E 0 90 54 60
        E 0 90 60 60
        E 120 80 48 00
        E 0 80 54 00
        E 0 80 60 00
        E 120 90 60 60
        E 120 80 2a 00
        E 0 80 60 00
        E 0 90 57 60
        E 0 90 63 60
        E 120 80 57 00
        E 0 80 63 00
        E 0 90 35 60
        E 0 90 3e 60
        E 0 90 4b 60
        E 0 90 57 60
        E 0 90 63 60
        E 120 80 3e 00
        E 0 80 4b 00
        E 0 80 57 00
        E 0 80 63 00
        E 120 90 57 60
        E 0 90 63 60
        E 120 80 35 00
        E 0 80 57 00
        E 0 80 63 00
        E 120 90 32 60
        E 0 90 3d 60
        E 0 90 4a 60
        E 0 90 56 60
        E 0 90 62 60
        E 120 80 3d 00
        E 0 80 4a 00
        E 0 80 56 00
        E 0 80 62 00
        E 240 80 32 00
        E 0 90 56 60
        E 0 90 62 60
        E 120 80 56 00
        E 0 80 62 00
        E 0 90 2a 60
        E 0 90 48 60
        E 0 90 54 60
        E 0 90 60 60
        E 120 80 48 00
        E 0 80 54 00
        E 0 80 60 00
        E 120 90 60 60
        E 120 80 2a 00
        E 0 80 60 00
        E 0 90 57 60
        E 0 90 63 60
        E 120 80 57 00
        E 0 80 63 00
        E 0 90 35 60
        E 0 90 3e 60
        E 0 90 4b 60
        E 0 90 57 60
        E 0 90 63 60
        E 120 80 3e 00
        E 0 80 4b 00
        E 0 80 57 00
        E 0 80 63 00
        E 120 90 57 60
        E 0 90 63 60
        E 120 80 35 00
        E 0 80 57 00
        E 0 80 63 00
        E 120 90 32 60
        E 0 90 3d 60
        E 0 90 4a 60
        E 0 90 56 60
        E 0 90 62 60
        E 120 80 3d 00
        E 0 80 4a 00
        E 0 80 56 00
        E 0 80 62 00
        E 240 80 32 00
        E 2520 b0 7b 00
        GUID {BF1106A8-C575-42E8-9980-77DAE3F207DF}
        IGNTEMPO 0 120.00000000 4 4
        SRCCOLOR 60
        VELLANE 132 128 60
        COLORMAP "C:\Program Files\REAPER (x64)\Data\color_maps\rockband_guitarbass.png"
        CFGEDITVIEW -8909.328748 7.742543 11 12 0 0 0
        CFGEDIT 1 1 0 1 1 0 1 1 1 1 1 0.12500000 53 44 1253 718 0 0 1 1 0.00000000 0 1 1 0 0.500000 0 0 1.000000 64
        KEYSNAP 0 7 "102030050700" 0 "Pentatonic"
        EVTFILTER 0 -1 -1 -1 -1 0 1 0 0 -1.00000000 -1.00000000
      >
    >
  >
  <TRACK '{F97C5AC9-4C27-4797-8189-56B09EA228A3}'
    NAME "PART GUITAR"
    PEAKCOL 16576
    BEAT -1
    AUTOMODE 0
    VOLPAN 1.00000000000000 0.00000000000000 -1.00000000000000 -1.00000000000000 1.00000000000000
    MUTESOLO 0 0 0
    IPHASE 0
    ISBUS 0 0
    BUSCOMP 0 0
    SHOWINMIX 1 0.666700 0.500000 1 0.500000 -1 -1 -1
    FREEMODE 0
    SEL 0
    REC 0 0 0 0 0 0 0
    VU 2
    TRACKHEIGHT 0 0
    INQ 0 0 0 0.5000000000 100 0 0 100
    NCHAN 2
    FX 1
    TRACKID {F97C5AC9-4C27-4797-8189-56B09EA228A3}
    PERF 0
    MIDIOUT -1
    <MIDINOTENAMES
      0 127 "TRILL MARKER"
      0 126 "TREMOLO MARKER"
      0 125 "---"
      0 124 "BRE"
      0 123 "BRE"
      0 122 "BRE"
      0 121 "BRE"
      0 120 "BRE (use all 5)"
      0 119 "----"
      0 116 "OVERDRIVE"
      0 115 "----"
      0 103 "Solo Marker"
      0 102 "Force HOPO Off"
      0 101 "Force HOPO On"
      0 100 "EXPERT Orange"
      0 99 "EXPERT Blue"
      0 98 "EXPERT Yellow"
      0 97 "EXPERT Red"
      0 96 "EXPERT Green"
      0 95 "----"
      0 90 "Force HOPO Off"
      0 89 "Force HOPO On"
      0 88 "HARD Orange"
      0 87 "HARD Blue"
      0 86 "HARD Yellow"
      0 85 "HARD Red"
      0 84 "HARD Green"
      0 77 "----"
      0 76 "MEDIUM Orange"
      0 75 "MEDIUM Blue"
      0 74 "MEDIUM Yellow"
      0 73 "MEDIUM Red"
      0 72 "MEDIUM Green"
      0 65 "----"
      0 64 "EASY Orange"
      0 63 "EASY Blue"
      0 62 "EASY Yellow"
      0 61 "EASY Red"
      0 60 "EASY Green"
      0 59 "Fret 12"
      0 57 "Fret 11"
      0 56 "Fret 10"
      0 55 "Fret 9"
      0 53 "Fret 8"
      0 52 "Fret 7"
      0 50 "Fret 6"
      0 49 "Fret 5"
      0 47 "Fret 4"
      0 45 "Fret 3"
      0 43 "Fret 2"
      0 40 "Fret 1"
    >
    MAINSEND 1 0
    <FXCHAIN
      WNDRECT 0 43 891 559
      SHOW 0
      LASTSEL 0
      DOCKED 0
      BYPASS 0 0
      <VST "VSTi: RBN Preview (RBN)" "rbprev_vst64.dll" 0 ""
        dnBicu5e7f4AAAAAAgAAAAEAAAAAAAAAAgAAAAAAAAAEAAAAAQAAAA==
        AAAQAAMAqgAAABAAAAA=
      >
      FLOATPOS 0 0 0 0
      FXID {1A6218D3-2CC7-48DC-A995-92B9F8178F71}
      WAK 0
    >
    <ITEM
      POSITION 0.00000000000000
      SNAPOFFS 0.00000000000000
      LENGTH 145.04278911564626
      LOOP 0
      ALLTAKES 0
      SEL 0
      FADEIN 1 0.000000 0.000000 1 0
      FADEOUT 1 0.000000 0.000000 1 0
      MUTE 0
      IGUID {CBB07957-E728-405A-B18A-494FBB95C4B3}
      IID 3
      NAME "PART GUITAR"
      VOLPAN 1.000000 0.000000 1.000000 -1.000000
      SOFFS 0.00000000000000 0.00000000000000
      PLAYRATE 1.00000000000000 1 0.00000000000000 -1
      CHANMODE 0
      GUID {94A70A0A-A2F5-4AFE-BBD2-B2A5D87435F5}
      <SOURCE MIDI
        HASDATA 1 480 QN
        POOLEDEVTS {15B64BB2-B1F2-4C3F-9B72-D344AA1F0022}
        <X 0 0
          /wNQQVJUIEdVSVRBUg==
        >
        <X 2880 0
          /wFbbWVsbG93XQ==
        >
        E 0 90 33 64
        E 0 90 3c 60
        E 0 90 48 64
        E 0 90 49 64
        E 0 90 54 64
        E 0 90 56 64
        E 0 90 60 64
        E 0 90 62 64
        E 120 80 3c 00
        E 0 80 48 00
        E 0 80 49 00
        E 0 80 54 00
        E 0 80 56 00
        E 0 80 60 00
        E 0 80 62 00
        E 120 80 33 00
        E 120 90 2d 64
        E 0 90 56 64
        E 0 90 57 64
        E 0 90 62 64
        E 0 90 63 64
        E 120 80 56 00
        E 0 80 57 00
        E 0 80 62 00
        E 0 80 63 00
        E 120 90 56 64
        E 0 90 57 64
        E 0 90 62 64
        E 0 90 63 64
        E 120 80 56 00
        E 0 80 57 00
        E 0 80 62 00
        E 0 80 63 00
        E 120 90 62 64
        E 0 90 63 64
        E 120 80 2d 00
        E 0 80 62 00
        E 0 80 63 00
        E 0 90 36 64
        E 0 90 3d 60
        E 0 90 49 64
        E 0 90 4a 64
        E 0 90 55 64
        E 0 90 57 64
        E 0 90 61 64
        E 0 90 63 64
        E 120 80 3d 00
        E 0 80 49 00
        E 0 80 4a 00
        E 0 80 55 00
        E 0 80 57 00
        E 0 80 61 00
        E 0 80 63 00
        E 120 90 55 64
        E 0 90 57 64
        E 0 90 61 64
        E 0 90 63 64
        E 120 80 36 00
        E 0 80 55 00
        E 0 80 57 00
        E 0 80 61 00
        E 0 80 63 00
        E 120 90 33 64
        E 0 90 3c 60
        E 0 90 48 64
        E 0 90 49 64
        E 0 90 54 64
        E 0 90 56 64
        E 0 90 60 64
        E 0 90 62 64
        E 120 80 3c 00
        E 0 80 48 00
        E 0 80 49 00
        E 0 80 54 00
        E 0 80 56 00
        E 0 80 60 00
        E 0 80 62 00
        E 120 80 33 00
        E 120 90 2d 64
        E 0 90 56 64
        E 0 90 57 64
        E 0 90 62 64
        E 0 90 63 64
        E 120 80 56 00
        E 0 80 57 00
        E 0 80 62 00
        E 0 80 63 00
        E 120 90 56 64
        E 0 90 57 64
        E 0 90 62 64
        E 0 90 63 64
        E 120 80 56 00
        E 0 80 57 00
        E 0 80 62 00
        E 0 80 63 00
        E 120 90 62 64
        E 0 90 63 64
        E 120 80 2d 00
        E 0 80 62 00
        E 0 80 63 00
        E 0 90 36 64
        E 0 90 3d 60
        E 0 90 49 64
        E 0 90 4a 64
        E 0 90 55 64
        E 0 90 57 64
        E 0 90 61 64
        E 0 90 63 64
        E 120 80 3d 00
        E 0 80 49 00
        E 0 80 4a 00
        E 0 80 55 00
        E 0 80 57 00
        E 0 80 61 00
        E 0 80 63 00
        E 240 80 36 00
        E 120 90 33 64
        E 0 90 3c 60
        E 0 90 48 64
        E 0 90 49 64
        E 0 90 54 64
        E 0 90 56 64
        E 0 90 60 64
        E 0 90 62 64
        E 0 90 74 64
        E 120 80 3c 00
        E 0 80 48 00
        E 0 80 49 00
        E 0 80 54 00
        E 0 80 56 00
        E 0 80 60 00
        E 0 80 62 00
        E 120 80 33 00
        E 120 90 2d 64
        E 0 90 56 64
        E 0 90 57 64
        E 0 90 62 64
        E 0 90 63 64
        E 120 80 56 00
        E 0 80 57 00
        E 0 80 62 00
        E 0 80 63 00
        E 120 90 56 64
        E 0 90 57 64
        E 0 90 62 64
        E 0 90 63 64
        E 120 80 56 00
        E 0 80 57 00
        E 0 80 62 00
        E 0 80 63 00
        E 120 90 62 64
        E 0 90 63 64
        E 120 80 2d 00
        E 0 80 62 00
        E 0 80 63 00
        E 0 90 36 64
        E 0 90 3d 60
        E 0 90 49 64
        E 0 90 4a 64
        E 0 90 55 64
        E 0 90 57 64
        E 0 90 59 60
        E 0 90 61 64
        E 0 90 63 64
        E 0 90 65 64
        E 120 80 3d 00
        E 0 80 49 00
        E 0 80 4a 00
        E 0 80 55 00
        E 0 80 57 00
        E 0 80 59 00
        E 0 80 61 00
        E 0 80 63 00
        E 0 80 65 00
        E 120 90 55 64
        E 0 90 57 64
        E 0 90 61 64
        E 0 90 63 64
        E 120 80 74 00
        E 0 80 36 00
        E 0 80 55 00
        E 0 80 57 00
        E 0 80 61 00
        E 0 80 63 00
        E 120 90 33 64
        E 0 90 3c 60
        E 0 90 48 64
        E 0 90 49 64
        E 0 90 54 64
        E 0 90 56 64
        E 0 90 60 64
        E 0 90 62 64
        E 120 80 3c 00
        E 0 80 48 00
        E 0 80 49 00
        E 0 80 54 00
        E 0 80 56 00
        E 0 80 60 00
        E 0 80 62 00
        E 120 80 33 00
        E 120 90 2d 64
        E 0 90 56 64
        E 0 90 57 64
        E 0 90 62 64
        E 0 90 63 64
        E 120 80 56 00
        E 0 80 57 00
        E 0 80 62 00
        E 0 80 63 00
        E 120 90 56 64
        E 0 90 57 64
        E 0 90 62 64
        E 0 90 63 64
        E 120 80 56 00
        E 0 80 57 00
        E 0 80 62 00
        E 0 80 63 00
        E 120 90 62 64
        E 0 90 63 64
        E 120 80 2d 00
        E 0 80 62 00
        E 0 80 63 00
        E 0 90 36 64
        E 0 90 3d 60
        E 0 90 49 64
        E 0 90 4a 64
        E 0 90 55 64
        E 0 90 57 64
        E 0 90 61 64
        E 0 90 63 64
        E 120 80 3d 00
        E 0 80 49 00
        E 0 80 4a 00
        E 0 80 55 00
        E 0 80 57 00
        E 0 80 61 00
        E 0 80 63 00
        E 240 80 36 00
        E 120 90 33 64
        E 0 90 3c 60
        E 0 90 48 64
        E 0 90 49 64
        E 0 90 54 64
        E 0 90 56 64
        E 0 90 60 64
        E 0 90 62 64
        E 120 80 3c 00
        E 0 80 48 00
        E 0 80 49 00
        E 0 80 54 00
        E 0 80 56 00
        E 0 80 60 00
        E 0 80 62 00
        E 120 80 33 00
        E 120 90 2d 64
        E 0 90 56 64
        E 0 90 57 64
        E 0 90 62 64
        E 0 90 63 64
        E 120 80 56 00
        E 0 80 57 00
        E 0 80 62 00
        E 0 80 63 00
        E 120 90 56 64
        E 0 90 57 64
        E 0 90 62 64
        E 0 90 63 64
        E 120 80 56 00
        E 0 80 57 00
        E 0 80 62 00
        E 0 80 63 00
        E 120 90 62 64
        E 0 90 63 64
        E 120 80 2d 00
        E 0 80 62 00
        E 0 80 63 00
        E 0 90 36 64
        E 0 90 3d 60
        E 0 90 49 64
        E 0 90 4a 64
        E 0 90 55 64
        E 0 90 57 64
        E 0 90 59 60
        E 0 90 61 64
        E 0 90 63 64
        E 0 90 65 64
        E 120 80 3d 00
        E 0 80 49 00
        E 0 80 4a 00
        E 0 80 55 00
        E 0 80 57 00
        E 0 80 59 00
        E 0 80 61 00
        E 0 80 63 00
        E 0 80 65 00
        E 120 90 55 64
        E 0 90 57 64
        E 0 90 61 64
        E 0 90 63 64
        E 120 80 36 00
        E 0 80 55 00
        E 0 80 57 00
        E 0 80 61 00
        E 0 80 63 00
        E 120 90 33 64
        E 0 90 3c 60
        E 0 90 48 64
        E 0 90 49 64
        E 0 90 54 64
        E 0 90 56 64
        E 0 90 60 64
        E 0 90 62 64
        E 120 80 3c 00
        E 0 80 48 00
        E 0 80 49 00
        E 0 80 54 00
        E 0 80 56 00
        E 0 80 60 00
        E 0 80 62 00
        E 120 80 33 00
        E 120 90 2d 64
        E 0 90 56 64
        E 0 90 57 64
        E 0 90 62 64
        E 0 90 63 64
        E 120 80 56 00
        E 0 80 57 00
        E 0 80 62 00
        E 0 80 63 00
        E 120 90 56 64
        E 0 90 57 64
        E 0 90 62 64
        E 0 90 63 64
        E 120 80 56 00
        E 0 80 57 00
        E 0 80 62 00
        E 0 80 63 00
        E 120 90 62 64
        E 0 90 63 64
        E 120 80 2d 00
        E 0 80 62 00
        E 0 80 63 00
        E 0 90 36 64
        E 0 90 3d 60
        E 0 90 49 64
        E 0 90 4a 64
        E 0 90 55 64
        E 0 90 57 64
        E 0 90 59 60
        E 0 90 61 64
        E 0 90 63 64
        E 0 90 65 64
        E 120 80 3d 00
        E 0 80 49 00
        E 0 80 4a 00
        E 0 80 55 00
        E 0 80 57 00
        E 0 80 59 00
        E 0 80 61 00
        E 0 80 63 00
        E 0 80 65 00
        E 240 80 36 00
        E 120 90 33 64
        E 0 90 3c 60
        E 0 90 48 64
        E 0 90 49 64
        E 0 90 54 64
        E 0 90 56 64
        E 0 90 60 64
        E 0 90 62 64
        E 120 80 3c 00
        E 0 80 48 00
        E 0 80 49 00
        E 0 80 54 00
        E 0 80 56 00
        E 0 80 60 00
        E 0 80 62 00
        E 120 80 33 00
        E 120 90 2d 64
        E 0 90 56 64
        E 0 90 57 64
        E 0 90 62 64
        E 0 90 63 64
        E 120 80 56 00
        E 0 80 57 00
        E 0 80 62 00
        E 0 80 63 00
        E 120 90 56 64
        E 0 90 57 64
        E 0 90 62 64
        E 0 90 63 64
        E 120 80 56 00
        E 0 80 57 00
        E 0 80 62 00
        E 0 80 63 00
        E 120 90 62 64
        E 0 90 63 64
        E 120 80 2d 00
        E 0 80 62 00
        E 0 80 63 00
        E 0 90 36 64
        E 0 90 3d 60
        E 0 90 49 64
        E 0 90 4a 64
        E 0 90 55 64
        E 0 90 57 64
        E 0 90 59 60
        E 0 90 61 64
        E 0 90 63 64
        E 0 90 65 64
        E 120 80 3d 00
        E 0 80 49 00
        E 0 80 4a 00
        E 0 80 55 00
        E 0 80 57 00
        E 0 80 59 00
        E 0 80 61 00
        E 0 80 63 00
        E 0 80 65 00
        E 120 90 55 64
        E 0 90 57 64
        E 0 90 61 64
        E 0 90 63 64
        E 120 80 36 00
        E 0 80 55 00
        E 0 80 57 00
        E 0 80 61 00
        E 0 80 63 00
        E 120 90 33 64
        E 0 90 3c 60
        E 0 90 48 64
        E 0 90 49 64
        E 0 90 54 64
        E 0 90 56 64
        E 0 90 60 64
        E 0 90 62 64
        E 120 80 3c 00
        E 0 80 48 00
        E 0 80 49 00
        E 0 80 54 00
        E 0 80 56 00
        E 0 80 60 00
        E 0 80 62 00
        E 120 80 33 00
        E 120 90 2d 64
        E 0 90 56 64
        E 0 90 57 64
        E 0 90 62 64
        E 0 90 63 64
        E 120 80 56 00
        E 0 80 57 00
        E 0 80 62 00
        E 0 80 63 00
        E 120 90 56 64
        E 0 90 57 64
        E 0 90 62 64
        E 0 90 63 64
        E 120 80 56 00
        E 0 80 57 00
        E 0 80 62 00
        E 0 80 63 00
        E 120 90 62 64
        E 0 90 63 64
        E 120 80 2d 00
        E 0 80 62 00
        E 0 80 63 00
        E 0 90 36 64
        E 0 90 3d 60
        E 0 90 49 64
        E 0 90 4a 64
        E 0 90 55 64
        E 0 90 57 64
        E 0 90 61 64
        E 0 90 63 64
        E 120 80 3d 00
        E 0 80 49 00
        E 0 80 4a 00
        E 0 80 55 00
        E 0 80 57 00
        E 0 80 61 00
        E 0 80 63 00
        E 240 80 36 00
        E 120 90 33 64
        E 0 90 3c 60
        E 0 90 48 64
        E 0 90 49 64
        E 0 90 54 64
        E 0 90 56 64
        E 0 90 60 64
        E 0 90 62 64
        E 120 80 3c 00
        E 0 80 48 00
        E 0 80 49 00
        E 0 80 54 00
        E 0 80 56 00
        E 0 80 60 00
        E 0 80 62 00
        E 120 80 33 00
        E 120 90 2d 64
        E 0 90 56 64
        E 0 90 57 64
        E 0 90 62 64
        E 0 90 63 64
        E 120 80 56 00
        E 0 80 57 00
        E 0 80 62 00
        E 0 80 63 00
        E 120 90 56 64
        E 0 90 57 64
        E 0 90 62 64
        E 0 90 63 64
        E 120 80 56 00
        E 0 80 57 00
        E 0 80 62 00
        E 0 80 63 00
        E 120 90 62 64
        E 0 90 63 64
        E 120 80 2d 00
        E 0 80 62 00
        E 0 80 63 00
        E 0 90 36 64
        E 0 90 3d 60
        E 0 90 49 64
        E 0 90 4a 64
        E 0 90 55 64
        E 0 90 57 64
        E 0 90 59 60
        E 0 90 61 64
        E 0 90 63 64
        E 0 90 65 64
        E 120 80 3d 00
        E 0 80 49 00
        E 0 80 4a 00
        E 0 80 55 00
        E 0 80 57 00
        E 0 80 59 00
        E 0 80 61 00
        E 0 80 63 00
        E 0 80 65 00
        E 120 90 55 64
        E 0 90 57 64
        E 0 90 61 64
        E 0 90 63 64
        E 120 80 36 00
        E 0 80 55 00
        E 0 80 57 00
        E 0 80 61 00
        E 0 80 63 00
        E 120 90 33 64
        E 0 90 3c 60
        E 0 90 48 64
        E 0 90 49 64
        E 0 90 54 64
        E 0 90 56 64
        E 0 90 60 64
        E 0 90 62 64
        E 120 80 3c 00
        E 0 80 48 00
        E 0 80 49 00
        E 0 80 54 00
        E 0 80 56 00
        E 0 80 60 00
        E 0 80 62 00
        E 120 80 33 00
        E 120 90 2d 64
        E 0 90 56 64
        E 0 90 57 64
        E 0 90 62 64
        E 0 90 63 64
        E 120 80 56 00
        E 0 80 57 00
        E 0 80 62 00
        E 0 80 63 00
        E 120 90 56 64
        E 0 90 57 64
        E 0 90 62 64
        E 0 90 63 64
        E 120 80 56 00
        E 0 80 57 00
        E 0 80 62 00
        E 0 80 63 00
        E 120 90 62 64
        E 0 90 63 64
        E 120 80 2d 00
        E 0 80 62 00
        E 0 80 63 00
        E 0 90 36 64
        E 0 90 3d 60
        E 0 90 49 64
        E 0 90 4a 64
        E 0 90 55 64
        E 0 90 57 64
        E 0 90 61 64
        E 0 90 63 64
        E 120 80 3d 00
        E 0 80 49 00
        E 0 80 4a 00
        E 0 80 55 00
        E 0 80 57 00
        E 0 80 61 00
        E 0 80 63 00
        E 240 80 36 00
        E 120 90 33 64
        E 0 90 3c 60
        E 0 90 48 64
        E 0 90 49 64
        E 0 90 54 64
        E 0 90 56 64
        E 0 90 60 64
        E 0 90 62 64
        E 120 80 3c 00
        E 0 80 48 00
        E 0 80 49 00
        E 0 80 54 00
        E 0 80 56 00
        E 0 80 60 00
        E 0 80 62 00
        E 120 80 33 00
        E 120 90 2d 64
        E 0 90 56 64
        E 0 90 57 64
        E 0 90 62 64
        E 0 90 63 64
        E 120 80 56 00
        E 0 80 57 00
        E 0 80 62 00
        E 0 80 63 00
        E 120 90 56 64
        E 0 90 57 64
        E 0 90 62 64
        E 0 90 63 64
        E 120 80 56 00
        E 0 80 57 00
        E 0 80 62 00
        E 0 80 63 00
        E 120 90 62 64
        E 0 90 63 64
        E 120 80 2d 00
        E 0 80 62 00
        E 0 80 63 00
        E 0 90 36 64
        E 0 90 3d 60
        E 0 90 49 64
        E 0 90 4a 64
        E 0 90 55 64
        E 0 90 57 64
        E 0 90 59 60
        E 0 90 61 64
        E 0 90 63 64
        E 0 90 65 64
        E 120 80 3d 00
        E 0 80 49 00
        E 0 80 4a 00
        E 0 80 55 00
        E 0 80 57 00
        E 0 80 59 00
        E 0 80 61 00
        E 0 80 63 00
        E 0 80 65 00
        E 120 90 55 64
        E 0 90 57 64
        E 0 90 61 64
        E 0 90 63 64
        E 120 80 36 00
        E 0 80 55 00
        E 0 80 57 00
        E 0 80 61 00
        E 0 80 63 00
        E 120 90 33 64
        E 0 90 3c 60
        E 0 90 48 64
        E 0 90 49 64
        E 0 90 54 64
        E 0 90 56 64
        E 0 90 60 64
        E 0 90 62 64
        E 120 80 3c 00
        E 0 80 48 00
        E 0 80 49 00
        E 0 80 54 00
        E 0 80 56 00
        E 0 80 60 00
        E 0 80 62 00
        E 120 80 33 00
        E 120 90 2d 64
        E 0 90 56 64
        E 0 90 57 64
        E 0 90 62 64
        E 0 90 63 64
        E 120 80 56 00
        E 0 80 57 00
        E 0 80 62 00
        E 0 80 63 00
        E 120 90 56 64
        E 0 90 57 64
        E 0 90 62 64
        E 0 90 63 64
        E 120 80 56 00
        E 0 80 57 00
        E 0 80 62 00
        E 0 80 63 00
        E 120 90 62 64
        E 0 90 63 64
        E 120 80 2d 00
        E 0 80 62 00
        E 0 80 63 00
        E 0 90 36 64
        E 0 90 3d 60
        E 0 90 49 64
        E 0 90 4a 64
        E 0 90 55 64
        E 0 90 57 64
        E 0 90 61 64
        E 0 90 63 64
        E 120 80 3d 00
        E 0 80 49 00
        E 0 80 4a 00
        E 0 80 55 00
        E 0 80 57 00
        E 0 80 61 00
        E 0 80 63 00
        E 240 80 36 00
        E 120 90 34 64
        E 0 90 3d 60
        E 0 90 48 64
        E 0 90 4a 64
        E 0 90 56 64
        E 0 90 58 64
        E 0 90 62 64
        E 0 90 64 64
        E 120 80 3d 00
        E 0 80 48 00
        E 0 80 4a 00
        E 0 80 56 00
        E 0 80 58 00
        E 0 80 62 00
        E 0 80 64 00
        E 120 90 62 64
        E 120 80 62 00
        E 0 90 56 64
        E 0 90 58 64
        E 0 90 62 64
        E 0 90 64 64
        E 120 80 56 00
        E 0 80 58 00
        E 0 80 62 00
        E 0 80 64 00
        E 120 90 62 64
        E 120 80 62 00
        E 0 90 3d 60
        E 0 90 48 64
        E 0 90 4a 64
        E 0 90 56 64
        E 0 90 58 64
        E 0 90 62 64
        E 0 90 64 64
        E 120 80 3d 00
        E 0 80 48 00
        E 0 80 4a 00
        E 0 80 56 00
        E 0 80 58 00
        E 0 80 62 00
        E 0 80 64 00
        E 120 90 62 64
        E 120 80 62 00
        E 0 90 56 64
        E 0 90 58 64
        E 0 90 62 64
        E 0 90 64 64
        E 120 80 56 00
        E 0 80 58 00
        E 0 80 62 00
        E 0 80 64 00
        E 120 80 34 00
        E 0 90 62 64
        E 120 80 62 00
        E 0 90 36 64
        E 0 90 57 64
        E 0 90 58 64
        E 0 90 63 64
        E 0 90 64 64
        E 120 80 57 00
        E 0 80 58 00
        E 0 80 63 00
        E 0 80 64 00
        E 120 90 3e 60
        E 0 90 4a 64
        E 0 90 4b 64
        E 0 90 57 64
        E 0 90 58 64
        E 0 90 63 64
        E 0 90 64 64
        E 120 80 3e 00
        E 0 80 4a 00
        E 0 80 4b 00
        E 0 80 57 00
        E 0 80 58 00
        E 0 80 63 00
        E 0 80 64 00
        E 120 90 63 64
        E 120 80 63 00
        E 0 90 57 64
        E 0 90 58 64
        E 0 90 63 64
        E 0 90 64 64
        E 120 80 57 00
        E 0 80 58 00
        E 0 80 63 00
        E 0 80 64 00
        E 120 90 63 64
        E 120 80 63 00
        E 0 90 4a 64
        E 0 90 4b 64
        E 0 90 57 64
        E 0 90 58 64
        E 0 90 63 64
        E 0 90 64 64
        E 120 80 4a 00
        E 0 80 4b 00
        E 0 80 57 00
        E 0 80 58 00
        E 0 80 63 00
        E 0 80 64 00
        E 120 90 62 64
        E 120 80 36 00
        E 0 80 62 00
        E 0 90 56 64
        E 0 90 58 64
        E 0 90 62 64
        E 0 90 64 64
        E 120 80 56 00
        E 0 80 58 00
        E 0 80 62 00
        E 0 80 64 00
        E 0 90 34 64
        E 120 90 62 64
        E 120 80 62 00
        E 0 90 3d 60
        E 0 90 48 64
        E 0 90 4a 64
        E 0 90 56 64
        E 0 90 58 64
        E 0 90 62 64
        E 0 90 64 64
        E 120 80 3d 00
        E 0 80 48 00
        E 0 80 4a 00
        E 0 80 56 00
        E 0 80 58 00
        E 0 80 62 00
        E 0 80 64 00
        E 120 90 62 64
        E 120 80 62 00
        E 0 90 56 64
        E 0 90 58 64
        E 0 90 62 64
        E 0 90 64 64
        E 120 80 56 00
        E 0 80 58 00
        E 0 80 62 00
        E 0 80 64 00
        E 120 90 56 64
        E 0 90 58 64
        E 0 90 62 64
        E 0 90 64 64
        E 120 80 56 00
        E 0 80 58 00
        E 0 80 62 00
        E 0 80 64 00
        E 120 90 56 64
        E 0 90 58 64
        E 0 90 62 64
        E 0 90 64 64
        E 120 80 56 00
        E 0 80 58 00
        E 0 80 62 00
        E 0 80 64 00
        E 120 80 34 00
        E 0 90 3e 60
        E 0 90 4a 64
        E 0 90 4b 64
        E 0 90 57 64
        E 0 90 58 64
        E 0 90 63 64
        E 0 90 64 64
        E 120 80 3e 00
        E 0 80 4a 00
        E 0 80 4b 00
        E 0 80 57 00
        E 0 80 58 00
        E 0 80 63 00
        E 0 80 64 00
        E 0 90 36 64
        E 240 90 57 64
        E 0 90 58 64
        E 0 90 63 64
        E 0 90 64 64
        E 120 80 57 00
        E 0 80 58 00
        E 0 80 63 00
        E 0 80 64 00
        E 240 90 3e 60
        E 0 90 4a 64
        E 0 90 4b 64
        E 0 90 57 64
        E 0 90 58 64
        E 0 90 63 64
        E 0 90 64 64
        E 120 80 3e 00
        E 0 80 4a 00
        E 0 80 4b 00
        E 0 80 57 00
        E 0 80 58 00
        E 0 80 63 00
        E 0 80 64 00
        E 240 90 57 64
        E 0 90 58 64
        E 0 90 63 64
        E 0 90 64 64
        E 120 80 57 00
        E 0 80 58 00
        E 0 80 63 00
        E 0 80 64 00
        E 120 90 56 64
        E 0 90 62 64
        E 120 80 36 00
        E 0 80 56 00
        E 0 80 62 00
        E 0 90 48 64
        E 0 90 56 64
        E 0 90 62 64
        E 120 80 48 00
        E 0 80 56 00
        E 0 80 62 00
        E 0 90 34 64
        E 0 90 74 64
        E 120 90 62 64
        E 120 80 62 00
        E 0 90 3d 60
        E 0 90 48 64
        E 0 90 4a 64
        E 0 90 56 64
        E 0 90 58 64
        E 0 90 62 64
        E 0 90 64 64
        E 120 80 3d 00
        E 0 80 48 00
        E 0 80 4a 00
        E 0 80 56 00
        E 0 80 58 00
        E 0 80 62 00
        E 0 80 64 00
        E 120 90 62 64
        E 120 80 62 00
        E 0 90 56 64
        E 0 90 58 64
        E 0 90 62 64
        E 0 90 64 64
        E 120 80 56 00
        E 0 80 58 00
        E 0 80 62 00
        E 0 80 64 00
        E 120 90 62 64
        E 120 80 62 00
        E 0 90 3d 60
        E 0 90 48 64
        E 0 90 4a 64
        E 0 90 56 64
        E 0 90 58 64
        E 0 90 62 64
        E 0 90 64 64
        E 120 80 3d 00
        E 0 80 48 00
        E 0 80 4a 00
        E 0 80 56 00
        E 0 80 58 00
        E 0 80 62 00
        E 0 80 64 00
        E 120 90 62 64
        E 120 80 34 00
        E 0 80 62 00
        E 0 90 4a 64
        E 0 90 4b 64
        E 0 90 57 64
        E 0 90 58 64
        E 0 90 63 64
        E 0 90 64 64
        E 120 80 4a 00
        E 0 80 4b 00
        E 0 80 57 00
        E 0 80 58 00
        E 0 80 63 00
        E 0 80 64 00
        E 0 90 36 64
        E 120 90 63 64
        E 120 80 63 00
        E 0 90 3e 60
        E 0 90 57 64
        E 0 90 58 64
        E 0 90 63 64
        E 0 90 64 64
        E 120 80 3e 00
        E 0 80 57 00
        E 0 80 58 00
        E 0 80 63 00
        E 0 80 64 00
        E 120 90 63 64
        E 120 80 63 00
        E 0 90 3e 60
        E 0 90 4a 64
        E 0 90 4b 64
        E 0 90 57 64
        E 0 90 58 64
        E 0 90 63 64
        E 0 90 64 64
        E 120 80 3e 00
        E 0 80 4a 00
        E 0 80 4b 00
        E 0 80 57 00
        E 0 80 58 00
        E 0 80 63 00
        E 0 80 64 00
        E 120 90 57 64
        E 0 90 58 64
        E 0 90 63 64
        E 0 90 64 64
        E 120 80 57 00
        E 0 80 58 00
        E 0 80 63 00
        E 0 80 64 00
        E 120 90 57 64
        E 0 90 58 64
        E 0 90 63 64
        E 0 90 64 64
        E 120 80 57 00
        E 0 80 58 00
        E 0 80 63 00
        E 0 80 64 00
        E 120 80 36 00
        E 0 90 3d 60
        E 0 90 56 64
        E 0 90 58 64
        E 0 90 62 64
        E 0 90 64 64
        E 120 80 74 00
        E 0 80 3d 00
        E 0 80 56 00
        E 0 80 58 00
        E 0 80 62 00
        E 0 80 64 00
        E 0 90 34 64
        E 120 90 62 64
        E 120 80 62 00
        E 0 90 48 64
        E 0 90 4a 64
        E 0 90 56 64
        E 0 90 58 64
        E 0 90 62 64
        E 0 90 64 64
        E 120 80 48 00
        E 0 80 4a 00
        E 0 80 56 00
        E 0 80 58 00
        E 0 80 62 00
        E 0 80 64 00
        E 120 90 62 64
        E 120 80 62 00
        E 0 90 56 64
        E 0 90 58 64
        E 0 90 62 64
        E 0 90 64 64
        E 120 80 56 00
        E 0 80 58 00
        E 0 80 62 00
        E 0 80 64 00
        E 120 90 62 64
        E 120 80 62 00
        E 0 90 48 64
        E 0 90 4a 64
        E 0 90 56 64
        E 0 90 58 64
        E 0 90 62 64
        E 0 90 64 64
        E 120 80 48 00
        E 0 80 4a 00
        E 0 80 56 00
        E 0 80 58 00
        E 0 80 62 00
        E 0 80 64 00
        E 120 90 61 64
        E 120 80 34 00
        E 0 80 61 00
        E 0 90 3e 60
        E 0 90 55 64
        E 0 90 58 64
        E 0 90 61 64
        E 0 90 64 64
        <X 120 0
          /wFbcGxheV0=
        >
        E 0 80 3e 00
        E 0 80 55 00
        E 0 80 58 00
        E 0 80 61 00
        E 0 80 64 00
        E 0 90 36 64
        E 120 90 61 64
        E 120 80 61 00
        E 0 90 48 64
        E 0 90 4b 64
        E 0 90 55 64
        E 0 90 58 64
        E 0 90 61 64
        E 0 90 64 64
        E 120 80 48 00
        E 0 80 4b 00
        E 0 80 55 00
        E 0 80 58 00
        E 0 80 61 00
        E 0 80 64 00
        E 120 90 61 64
        E 120 80 61 00
        E 0 90 55 64
        E 0 90 58 64
        E 0 90 61 64
        E 0 90 64 64
        E 120 80 55 00
        E 0 80 58 00
        E 0 80 61 00
        E 0 80 64 00
        E 120 90 61 64
        E 120 80 61 00
        E 0 90 3e 60
        E 0 90 48 64
        E 0 90 4b 64
        E 0 90 55 64
        E 0 90 58 64
        E 0 90 61 64
        E 0 90 64 64
        E 120 80 3e 00
        E 0 80 48 00
        E 0 80 4b 00
        E 0 80 55 00
        E 0 80 58 00
        E 0 80 61 00
        E 0 80 64 00
        E 240 80 36 00
        <X 120 0
          /wFbaW50ZW5zZV0=
        >
        E 0 90 39 64
        E 0 90 57 64
        E 0 90 63 64
        E 120 80 57 00
        E 0 80 63 00
        E 0 90 63 64
        E 120 80 63 00
        E 0 90 3e 60
        E 0 90 4a 64
        E 0 90 4b 64
        E 0 90 57 64
        E 0 90 58 64
        E 0 90 63 64
        E 0 90 64 64
        E 120 80 39 00
        E 0 80 3e 00
        E 0 80 4a 00
        E 0 80 4b 00
        E 0 80 57 00
        E 0 80 58 00
        E 0 80 63 00
        E 0 80 64 00
        E 0 90 63 64
        E 0 90 64 64
        E 120 80 63 00
        E 0 80 64 00
        E 0 90 36 64
        E 0 90 56 64
        E 0 90 62 64
        E 120 80 56 00
        E 0 80 62 00
        E 0 90 62 64
        E 120 80 62 00
        E 0 90 3d 60
        E 0 90 49 64
        E 0 90 4a 64
        E 0 90 56 64
        E 0 90 57 64
        E 0 90 62 64
        E 0 90 63 64
        E 120 80 36 00
        E 0 80 3d 00
        E 0 80 49 00
        E 0 80 4a 00
        E 0 80 56 00
        E 0 80 57 00
        E 0 80 62 00
        E 0 80 63 00
        E 0 90 62 64
        E 0 90 63 64
        E 120 80 62 00
        E 0 80 63 00
        E 0 90 32 64
        E 0 90 55 64
        E 0 90 61 64
        E 120 80 55 00
        E 0 80 61 00
        E 0 90 61 64
        E 120 80 61 00
        E 0 90 3c 60
        E 0 90 48 64
        E 0 90 49 64
        E 0 90 55 64
        E 0 90 56 64
        E 0 90 61 64
        E 0 90 62 64
        E 120 80 32 00
        E 0 80 3c 00
        E 0 80 48 00
        E 0 80 49 00
        E 0 80 55 00
        E 0 80 56 00
        E 0 80 61 00
        E 0 80 62 00
        E 0 90 61 64
        E 0 90 62 64
        E 120 80 61 00
        E 0 80 62 00
        E 0 90 39 64
        E 0 90 57 64
        E 0 90 63 64
        E 120 80 57 00
        E 0 80 63 00
        E 0 90 63 64
        E 120 80 63 00
        E 0 90 3e 60
        E 0 90 4a 64
        E 0 90 4b 64
        E 0 90 57 64
        E 0 90 58 64
        E 0 90 63 64
        E 0 90 64 64
        E 119 80 39 00
        E 1 80 3e 00
        E 0 80 4a 00
        E 0 80 4b 00
        E 0 80 57 00
        E 0 80 58 00
        E 0 80 63 00
        E 0 80 64 00
        E 0 90 63 64
        E 0 90 64 64
        E 119 90 36 64
        E 1 80 63 00
        E 0 80 64 00
        E 0 90 56 64
        E 0 90 62 64
        E 120 80 56 00
        E 0 80 62 00
        E 0 90 62 64
        E 120 80 62 00
        E 0 90 3d 60
        E 0 90 49 64
        E 0 90 4a 64
        E 0 90 56 64
        E 0 90 57 64
        E 0 90 62 64
        E 0 90 63 64
        E 119 80 36 00
        E 1 80 3d 00
        E 0 80 49 00
        E 0 80 4a 00
        E 0 80 56 00
        E 0 80 57 00
        E 0 80 62 00
        E 0 80 63 00
        E 0 90 62 64
        E 0 90 63 64
        E 119 90 32 64
        E 1 80 62 00
        E 0 80 63 00
        E 0 90 55 64
        E 0 90 61 64
        E 120 80 55 00
        E 0 80 61 00
        E 0 90 61 64
        E 120 80 61 00
        E 0 90 3c 60
        E 0 90 48 64
        E 0 90 49 64
        E 0 90 55 64
        E 0 90 56 64
        E 0 90 61 64
        E 0 90 62 64
        E 119 80 32 00
        E 1 80 3c 00
        E 0 80 48 00
        E 0 80 49 00
        E 0 80 55 00
        E 0 80 56 00
        E 0 80 61 00
        E 0 80 62 00
        E 0 90 61 64
        E 0 90 62 64
        E 120 80 61 00
        E 0 80 62 00
        E 0 90 39 64
        E 0 90 57 64
        E 0 90 63 64
        E 120 80 57 00
        E 0 80 63 00
        E 0 90 63 64
        E 120 80 63 00
        E 0 90 3e 60
        E 0 90 4a 64
        E 0 90 4b 64
        E 0 90 57 64
        E 0 90 58 64
        E 0 90 63 64
        E 0 90 64 64
        E 120 80 39 00
        E 0 80 3e 00
        E 0 80 4a 00
        E 0 80 4b 00
        E 0 80 57 00
        E 0 80 58 00
        E 0 80 63 00
        E 0 80 64 00
        E 0 90 63 64
        E 0 90 64 64
        E 120 80 63 00
        E 0 80 64 00
        E 0 90 36 64
        E 0 90 56 64
        E 0 90 62 64
        E 120 80 56 00
        E 0 80 62 00
        E 0 90 62 64
        E 120 80 62 00
        E 0 90 3d 60
        E 0 90 49 64
        E 0 90 4a 64
        E 0 90 56 64
        E 0 90 57 64
        E 0 90 62 64
        E 0 90 63 64
        E 120 80 36 00
        E 0 80 3d 00
        E 0 80 49 00
        E 0 80 4a 00
        E 0 80 56 00
        E 0 80 57 00
        E 0 80 62 00
        E 0 80 63 00
        E 0 90 62 64
        E 0 90 63 64
        E 120 80 62 00
        E 0 80 63 00
        E 0 90 32 64
        E 0 90 55 64
        E 0 90 61 64
        E 120 80 55 00
        E 0 80 61 00
        E 0 90 61 64
        E 120 80 61 00
        E 0 90 3c 60
        E 0 90 48 64
        E 0 90 49 64
        E 0 90 55 64
        E 0 90 56 64
        E 0 90 61 64
        E 0 90 62 64
        E 120 80 32 00
        E 0 80 3c 00
        E 0 80 48 00
        E 0 80 49 00
        E 0 80 55 00
        E 0 80 56 00
        E 0 80 61 00
        E 0 80 62 00
        E 0 90 61 64
        E 0 90 62 64
        E 120 80 61 00
        E 0 80 62 00
        E 0 90 39 64
        E 0 90 57 64
        E 0 90 63 64
        E 0 90 74 64
        E 120 80 57 00
        E 0 80 63 00
        E 0 90 63 64
        E 120 80 63 00
        E 0 90 3e 60
        E 0 90 4a 64
        E 0 90 4b 64
        E 0 90 57 64
        E 0 90 58 64
        E 0 90 63 64
        E 0 90 64 64
        E 119 80 39 00
        E 1 80 3e 00
        E 0 80 4a 00
        E 0 80 4b 00
        E 0 80 57 00
        E 0 80 58 00
        E 0 80 63 00
        E 0 80 64 00
        E 0 90 63 64
        E 0 90 64 64
        E 119 90 36 64
        E 1 80 63 00
        E 0 80 64 00
        E 0 90 56 64
        E 0 90 62 64
        E 120 80 56 00
        E 0 80 62 00
        E 0 90 62 64
        E 120 80 62 00
        E 0 90 3d 60
        E 0 90 49 64
        E 0 90 4a 64
        E 0 90 56 64
        E 0 90 57 64
        E 0 90 62 64
        E 0 90 63 64
        E 119 80 36 00
        E 1 80 3d 00
        E 0 80 49 00
        E 0 80 4a 00
        E 0 80 56 00
        E 0 80 57 00
        E 0 80 62 00
        E 0 80 63 00
        E 0 90 62 64
        E 0 90 63 64
        E 119 90 32 64
        E 1 80 62 00
        E 0 80 63 00
        E 0 90 55 64
        E 0 90 61 64
        E 120 80 55 00
        E 0 80 61 00
        E 0 90 61 64
        E 120 80 61 00
        E 0 90 3c 60
        E 0 90 48 64
        E 0 90 49 64
        E 0 90 55 64
        E 0 90 56 64
        E 0 90 61 64
        E 0 90 62 64
        E 119 80 32 00
        E 1 80 3c 00
        E 0 80 48 00
        E 0 80 49 00
        E 0 80 55 00
        E 0 80 56 00
        E 0 80 61 00
        E 0 80 62 00
        E 0 90 61 64
        E 0 90 62 64
        E 120 80 74 00
        E 0 80 61 00
        E 0 80 62 00
        E 0 90 39 64
        E 0 90 57 64
        E 0 90 63 64
        E 120 80 57 00
        E 0 80 63 00
        E 0 90 63 64
        E 120 80 63 00
        E 0 90 3e 60
        E 0 90 4a 64
        E 0 90 4b 64
        E 0 90 57 64
        E 0 90 58 64
        E 0 90 63 64
        E 0 90 64 64
        E 120 80 39 00
        E 0 80 3e 00
        E 0 80 4a 00
        E 0 80 4b 00
        E 0 80 57 00
        E 0 80 58 00
        E 0 80 63 00
        E 0 80 64 00
        E 0 90 63 64
        E 0 90 64 64
        E 120 80 63 00
        E 0 80 64 00
        E 0 90 36 64
        E 0 90 56 64
        E 0 90 62 64
        E 120 80 56 00
        E 0 80 62 00
        E 0 90 62 64
        E 120 80 62 00
        E 0 90 3d 60
        E 0 90 49 64
        E 0 90 4a 64
        E 0 90 56 64
        E 0 90 57 64
        E 0 90 62 64
        E 0 90 63 64
        E 120 80 36 00
        E 0 80 3d 00
        E 0 80 49 00
        E 0 80 4a 00
        E 0 80 56 00
        E 0 80 57 00
        E 0 80 62 00
        E 0 80 63 00
        E 0 90 62 64
        E 0 90 63 64
        E 120 80 62 00
        E 0 80 63 00
        E 0 90 32 64
        E 0 90 55 64
        E 0 90 61 64
        E 120 80 55 00
        E 0 80 61 00
        E 0 90 61 64
        E 120 80 61 00
        E 0 90 3c 60
        E 0 90 48 64
        E 0 90 49 64
        E 0 90 55 64
        E 0 90 56 64
        E 0 90 61 64
        E 0 90 62 64
        E 120 80 32 00
        E 0 80 3c 00
        E 0 80 48 00
        E 0 80 49 00
        E 0 80 55 00
        E 0 80 56 00
        E 0 80 61 00
        E 0 80 62 00
        E 0 90 61 64
        E 0 90 62 64
        E 120 80 61 00
        E 0 80 62 00
        E 0 90 39 64
        E 0 90 57 64
        E 0 90 63 64
        E 120 80 57 00
        E 0 80 63 00
        E 0 90 63 64
        E 120 80 63 00
        E 0 90 3e 60
        E 0 90 4a 64
        E 0 90 4b 64
        E 0 90 57 64
        E 0 90 58 64
        E 0 90 63 64
        E 0 90 64 64
        E 119 80 39 00
        E 1 80 3e 00
        E 0 80 4a 00
        E 0 80 4b 00
        E 0 80 57 00
        E 0 80 58 00
        E 0 80 63 00
        E 0 80 64 00
        E 0 90 63 64
        E 0 90 64 64
        E 119 90 36 64
        E 1 80 63 00
        E 0 80 64 00
        E 0 90 56 64
        E 0 90 62 64
        E 120 80 56 00
        E 0 80 62 00
        E 0 90 62 64
        E 120 80 62 00
        E 0 90 3d 60
        E 0 90 49 64
        E 0 90 4a 64
        E 0 90 56 64
        E 0 90 57 64
        E 0 90 62 64
        E 0 90 63 64
        E 119 80 36 00
        E 1 80 3d 00
        E 0 80 49 00
        E 0 80 4a 00
        E 0 80 56 00
        E 0 80 57 00
        E 0 80 62 00
        E 0 80 63 00
        E 0 90 62 64
        E 0 90 63 64
        E 119 90 32 64
        E 1 80 62 00
        E 0 80 63 00
        E 0 90 55 64
        E 0 90 61 64
        E 120 80 55 00
        E 0 80 61 00
        E 0 90 61 64
        E 120 80 61 00
        E 0 90 3c 60
        E 0 90 48 64
        E 0 90 49 64
        E 0 90 55 64
        E 0 90 56 64
        E 0 90 61 64
        E 0 90 62 64
        E 119 80 32 00
        E 1 80 3c 00
        E 0 80 48 00
        E 0 80 49 00
        E 0 80 55 00
        E 0 80 56 00
        E 0 80 61 00
        E 0 80 62 00
        E 0 90 61 64
        E 0 90 62 64
        E 120 80 61 00
        E 0 80 62 00
        E 0 90 39 64
        E 0 90 57 64
        E 0 90 63 64
        E 120 80 57 00
        E 0 80 63 00
        E 0 90 63 64
        E 120 80 63 00
        E 0 90 3e 60
        E 0 90 4a 64
        E 0 90 4b 64
        E 0 90 57 64
        E 0 90 58 64
        E 0 90 63 64
        E 0 90 64 64
        E 120 80 39 00
        E 0 80 3e 00
        E 0 80 4a 00
        E 0 80 4b 00
        E 0 80 57 00
        E 0 80 58 00
        E 0 80 63 00
        E 0 80 64 00
        E 0 90 63 64
        E 0 90 64 64
        E 120 80 63 00
        E 0 80 64 00
        E 0 90 36 64
        E 0 90 56 64
        E 0 90 62 64
        E 120 80 56 00
        E 0 80 62 00
        E 0 90 62 64
        E 120 80 62 00
        E 0 90 3d 60
        E 0 90 49 64
        E 0 90 4a 64
        E 0 90 56 64
        E 0 90 57 64
        E 0 90 62 64
        E 0 90 63 64
        E 120 80 36 00
        E 0 80 3d 00
        E 0 80 49 00
        E 0 80 4a 00
        E 0 80 56 00
        E 0 80 57 00
        E 0 80 62 00
        E 0 80 63 00
        E 0 90 62 64
        E 0 90 63 64
        E 120 80 62 00
        E 0 80 63 00
        E 0 90 32 64
        E 0 90 55 64
        E 0 90 61 64
        E 120 80 55 00
        E 0 80 61 00
        E 0 90 61 64
        E 120 80 61 00
        E 0 90 3c 60
        E 0 90 48 64
        E 0 90 49 64
        E 0 90 55 64
        E 0 90 56 64
        E 0 90 61 64
        E 0 90 62 64
        E 120 80 32 00
        E 0 80 3c 00
        E 0 80 48 00
        E 0 80 49 00
        E 0 80 55 00
        E 0 80 56 00
        E 0 80 61 00
        E 0 80 62 00
        E 0 90 61 64
        E 0 90 62 64
        E 120 80 61 00
        E 0 80 62 00
        E 0 90 39 64
        E 0 90 57 64
        E 0 90 63 64
        E 120 80 57 00
        E 0 80 63 00
        E 0 90 63 64
        E 120 80 63 00
        E 0 90 3e 60
        E 0 90 4a 64
        E 0 90 4b 64
        E 0 90 57 64
        E 0 90 58 64
        E 0 90 63 64
        E 0 90 64 64
        E 119 80 39 00
        E 1 80 3e 00
        E 0 80 4a 00
        E 0 80 4b 00
        E 0 80 57 00
        E 0 80 58 00
        E 0 80 63 00
        E 0 80 64 00
        E 0 90 63 64
        E 0 90 64 64
        E 119 90 36 64
        E 1 80 63 00
        E 0 80 64 00
        E 0 90 56 64
        E 0 90 62 64
        E 120 80 56 00
        E 0 80 62 00
        E 0 90 62 64
        E 120 80 62 00
        E 0 90 3d 60
        E 0 90 49 64
        E 0 90 4a 64
        E 0 90 56 64
        E 0 90 57 64
        E 0 90 62 64
        E 0 90 63 64
        E 119 80 36 00
        E 1 80 3d 00
        E 0 80 49 00
        E 0 80 4a 00
        E 0 80 56 00
        E 0 80 57 00
        E 0 80 62 00
        E 0 80 63 00
        E 0 90 62 64
        E 0 90 63 64
        E 119 90 32 64
        E 1 80 62 00
        E 0 80 63 00
        E 0 90 55 64
        E 0 90 61 64
        E 120 80 55 00
        E 0 80 61 00
        E 0 90 61 64
        E 120 80 61 00
        E 0 90 48 64
        E 0 90 49 64
        E 0 90 55 64
        E 0 90 56 64
        E 0 90 61 64
        E 0 90 62 64
        E 119 80 32 00
        E 1 80 48 00
        E 0 80 49 00
        E 0 80 55 00
        E 0 80 56 00
        E 0 80 61 00
        E 0 80 62 00
        <X 120 0
          /wFbcGxheV0=
        >
        E 0 90 2b 64
        E 0 90 3d 60
        E 0 90 48 64
        E 0 90 54 64
        E 0 90 60 64
        E 120 80 3d 00
        E 0 80 48 00
        E 0 80 54 00
        E 0 80 60 00
        E 0 90 61 64
        E 120 80 61 00
        E 0 90 56 64
        E 0 90 62 64
        E 120 80 56 00
        E 0 80 62 00
        E 240 90 56 64
        E 0 90 62 64
        E 120 80 56 00
        E 0 80 62 00
        E 120 90 3f 60
        E 0 90 4a 64
        E 0 90 56 64
        E 0 90 62 64
        E 120 80 3f 00
        E 0 80 4a 00
        E 0 80 56 00
        E 0 80 62 00
        E 120 90 56 64
        E 0 90 62 64
        E 120 80 56 00
        E 0 80 62 00
        E 120 80 2b 00
        E 0 90 60 64
        E 120 80 60 00
        E 0 90 32 64
        E 0 90 3c 60
        E 0 90 48 64
        E 0 90 4a 64
        E 0 90 54 64
        E 0 90 56 64
        E 0 90 60 64
        E 0 90 62 64
        E 120 80 3c 00
        E 0 80 48 00
        E 0 80 4a 00
        E 0 80 54 00
        E 0 80 56 00
        E 0 80 60 00
        E 0 80 62 00
        E 360 90 3e 60
        E 0 90 49 64
        E 0 90 4b 64
        E 0 90 55 64
        E 0 90 57 64
        E 0 90 61 64
        E 0 90 62 64
        E 0 90 63 64
        E 120 80 3e 00
        E 0 80 49 00
        E 0 80 4b 00
        E 0 80 55 00
        E 0 80 57 00
        E 0 80 61 00
        E 0 80 62 00
        E 0 80 63 00
        E 240 90 57 64
        E 0 90 63 64
        E 120 80 57 00
        E 0 80 63 00
        E 120 90 57 64
        E 0 90 63 64
        E 120 80 57 00
        E 0 80 63 00
        E 120 80 32 00
        E 0 90 60 64
        E 120 80 60 00
        E 0 90 2b 64
        E 0 90 3c 60
        E 0 90 48 64
        E 0 90 49 64
        E 0 90 54 64
        E 0 90 55 64
        E 0 90 60 64
        E 0 90 61 64
        E 120 80 3c 00
        E 0 80 48 00
        E 0 80 49 00
        E 0 80 54 00
        E 0 80 55 00
        E 0 80 60 00
        E 0 80 61 00
        E 360 90 3d 60
        E 0 90 49 64
        E 0 90 4a 64
        E 0 90 54 64
        E 0 90 57 64
        E 0 90 60 64
        E 0 90 62 64
        E 0 90 63 64
        E 120 80 3d 00
        E 0 80 49 00
        E 0 80 4a 00
        E 0 80 54 00
        E 0 80 57 00
        E 0 80 60 00
        E 0 80 62 00
        E 0 80 63 00
        E 240 90 57 64
        E 0 90 63 64
        E 120 80 57 00
        E 0 80 63 00
        E 120 90 57 64
        E 0 90 63 64
        E 120 80 57 00
        E 0 80 63 00
        E 120 80 2b 00
        E 0 90 60 64
        E 120 80 60 00
        E 0 90 32 64
        E 0 90 3e 60
        E 0 90 48 64
        E 0 90 4a 64
        E 0 90 54 64
        E 0 90 56 64
        E 0 90 60 64
        E 0 90 62 64
        E 120 80 3e 00
        E 0 80 48 00
        E 0 80 4a 00
        E 0 80 54 00
        E 0 80 56 00
        E 0 80 60 00
        E 0 80 62 00
        E 360 90 3f 60
        E 0 90 4a 64
        E 0 90 4b 64
        E 0 90 57 64
        E 0 90 58 64
        E 0 90 62 64
        E 0 90 63 64
        E 0 90 64 64
        E 120 80 3f 00
        E 0 80 4a 00
        E 0 80 4b 00
        E 0 80 57 00
        E 0 80 58 00
        E 0 80 62 00
        E 0 80 63 00
        E 0 80 64 00
        E 240 90 57 64
        E 0 90 63 64
        E 120 80 57 00
        E 0 80 63 00
        E 120 90 57 64
        E 0 90 63 64
        E 120 80 57 00
        E 0 80 63 00
        E 120 80 32 00
        E 0 90 60 64
        E 120 80 60 00
        E 0 90 2b 64
        E 0 90 3d 60
        E 0 90 48 64
        E 0 90 49 64
        E 0 90 54 64
        E 0 90 55 64
        E 0 90 60 64
        E 0 90 61 64
        E 120 80 3d 00
        E 0 80 48 00
        E 0 80 49 00
        E 0 80 54 00
        E 0 80 55 00
        E 0 80 60 00
        E 0 80 61 00
        E 360 90 49 64
        E 0 90 4b 64
        E 0 90 55 64
        E 0 90 57 64
        E 0 90 61 64
        E 0 90 62 64
        E 0 90 63 64
        E 120 80 49 00
        E 0 80 4b 00
        E 0 80 55 00
        E 0 80 57 00
        E 0 80 61 00
        E 0 80 62 00
        E 0 80 63 00
        E 240 90 3f 60
        E 0 90 57 64
        E 0 90 63 64
        E 120 80 3f 00
        E 0 80 57 00
        E 0 80 63 00
        E 120 90 57 64
        E 0 90 63 64
        E 120 80 57 00
        E 0 80 63 00
        E 120 80 2b 00
        E 0 90 60 64
        E 120 80 60 00
        E 0 90 32 64
        E 0 90 3c 60
        E 0 90 48 64
        E 0 90 4a 64
        E 0 90 54 64
        E 0 90 56 64
        E 0 90 60 64
        E 0 90 62 64
        E 120 80 3c 00
        E 0 80 48 00
        E 0 80 4a 00
        E 0 80 54 00
        E 0 80 56 00
        E 0 80 60 00
        E 0 80 62 00
        E 360 90 3e 60
        E 0 90 49 64
        E 0 90 4b 64
        E 0 90 55 64
        E 0 90 57 64
        E 0 90 61 64
        E 0 90 62 64
        E 0 90 63 64
        E 120 80 3e 00
        E 0 80 49 00
        E 0 80 4b 00
        E 0 80 55 00
        E 0 80 57 00
        E 0 80 61 00
        E 0 80 62 00
        E 0 80 63 00
        E 240 90 57 64
        E 0 90 63 64
        E 120 80 57 00
        E 0 80 63 00
        E 120 90 57 64
        E 0 90 63 64
        E 120 80 57 00
        E 0 80 63 00
        E 120 80 32 00
        E 0 90 60 64
        E 120 80 60 00
        E 0 90 2b 64
        E 0 90 3c 60
        E 0 90 48 64
        E 0 90 49 64
        E 0 90 54 64
        E 0 90 55 64
        E 0 90 60 64
        E 0 90 61 64
        E 120 80 3c 00
        E 0 80 48 00
        E 0 80 49 00
        E 0 80 54 00
        E 0 80 55 00
        E 0 80 60 00
        E 0 80 61 00
        E 360 90 3d 60
        E 0 90 49 64
        E 0 90 4a 64
        E 0 90 54 64
        E 0 90 57 64
        E 0 90 60 64
        E 0 90 62 64
        E 0 90 63 64
        E 120 80 3d 00
        E 0 80 49 00
        E 0 80 4a 00
        E 0 80 54 00
        E 0 80 57 00
        E 0 80 60 00
        E 0 80 62 00
        E 0 80 63 00
        E 240 90 57 64
        E 0 90 63 64
        E 120 80 57 00
        E 0 80 63 00
        E 120 90 57 64
        E 0 90 63 64
        E 120 80 57 00
        E 0 80 63 00
        E 120 80 2b 00
        E 0 90 60 64
        E 120 80 60 00
        E 0 90 32 64
        E 0 90 3e 60
        E 0 90 48 64
        E 0 90 4a 64
        E 0 90 54 64
        E 0 90 56 64
        E 0 90 60 64
        E 0 90 62 64
        E 120 80 3e 00
        E 0 80 48 00
        E 0 80 4a 00
        E 0 80 54 00
        E 0 80 56 00
        E 0 80 60 00
        E 0 80 62 00
        E 360 90 3f 60
        E 0 90 4a 64
        E 0 90 4b 64
        E 0 90 57 64
        E 0 90 58 64
        E 0 90 62 64
        E 0 90 63 64
        E 0 90 64 64
        E 120 80 3f 00
        E 0 80 4a 00
        E 0 80 4b 00
        E 0 80 57 00
        E 0 80 58 00
        E 0 80 62 00
        E 0 80 63 00
        E 0 80 64 00
        E 240 90 57 64
        E 0 90 63 64
        E 120 80 57 00
        E 0 80 63 00
        E 120 90 57 64
        E 0 90 63 64
        E 120 80 57 00
        E 0 80 63 00
        E 120 80 32 00
        E 0 90 60 64
        <X 120 0
          /wFbaW50ZW5zZV0=
        >
        E 0 80 60 00
        E 0 90 39 64
        E 0 90 57 64
        E 0 90 63 64
        E 120 80 57 00
        E 0 80 63 00
        E 0 90 63 64
        E 120 80 63 00
        E 0 90 3e 60
        E 0 90 4a 64
        E 0 90 4b 64
        E 0 90 57 64
        E 0 90 58 64
        E 0 90 63 64
        E 0 90 64 64
        E 120 80 39 00
        E 0 80 3e 00
        E 0 80 4a 00
        E 0 80 4b 00
        E 0 80 57 00
        E 0 80 58 00
        E 0 80 63 00
        E 0 80 64 00
        E 0 90 63 64
        E 0 90 64 64
        E 120 80 63 00
        E 0 80 64 00
        E 0 90 36 64
        E 0 90 56 64
        E 0 90 62 64
        E 0 90 74 64
        E 120 80 56 00
        E 0 80 62 00
        E 0 90 62 64
        E 120 80 62 00
        E 0 90 3d 60
        E 0 90 49 64
        E 0 90 4a 64
        E 0 90 56 64
        E 0 90 57 64
        E 0 90 62 64
        E 0 90 63 64
        E 120 80 36 00
        E 0 80 3d 00
        E 0 80 49 00
        E 0 80 4a 00
        E 0 80 56 00
        E 0 80 57 00
        E 0 80 62 00
        E 0 80 63 00
        E 0 90 62 64
        E 0 90 63 64
        E 120 80 62 00
        E 0 80 63 00
        E 0 90 32 64
        E 0 90 55 64
        E 0 90 61 64
        E 120 80 55 00
        E 0 80 61 00
        E 0 90 61 64
        E 120 80 61 00
        E 0 90 3c 60
        E 0 90 48 64
        E 0 90 49 64
        E 0 90 55 64
        E 0 90 56 64
        E 0 90 61 64
        E 0 90 62 64
        E 120 80 32 00
        E 0 80 3c 00
        E 0 80 48 00
        E 0 80 49 00
        E 0 80 55 00
        E 0 80 56 00
        E 0 80 61 00
        E 0 80 62 00
        E 0 90 61 64
        E 0 90 62 64
        E 120 80 61 00
        E 0 80 62 00
        E 0 90 39 64
        E 0 90 57 64
        E 0 90 63 64
        E 120 80 57 00
        E 0 80 63 00
        E 0 90 63 64
        E 120 80 63 00
        E 0 90 3e 60
        E 0 90 4a 64
        E 0 90 4b 64
        E 0 90 57 64
        E 0 90 58 64
        E 0 90 63 64
        E 0 90 64 64
        E 119 80 39 00
        E 1 80 3e 00
        E 0 80 4a 00
        E 0 80 4b 00
        E 0 80 57 00
        E 0 80 58 00
        E 0 80 63 00
        E 0 80 64 00
        E 0 90 63 64
        E 0 90 64 64
        E 119 90 36 64
        E 1 80 63 00
        E 0 80 64 00
        E 0 90 56 64
        E 0 90 62 64
        E 120 80 56 00
        E 0 80 62 00
        E 0 90 62 64
        E 120 80 62 00
        E 0 90 3d 60
        E 0 90 49 64
        E 0 90 4a 64
        E 0 90 56 64
        E 0 90 57 64
        E 0 90 62 64
        E 0 90 63 64
        E 119 80 36 00
        E 1 80 3d 00
        E 0 80 49 00
        E 0 80 4a 00
        E 0 80 56 00
        E 0 80 57 00
        E 0 80 62 00
        E 0 80 63 00
        E 0 90 62 64
        E 0 90 63 64
        E 119 90 32 64
        E 1 80 62 00
        E 0 80 63 00
        E 0 90 55 64
        E 0 90 61 64
        E 120 80 55 00
        E 0 80 61 00
        E 0 90 61 64
        E 120 80 61 00
        E 0 90 3c 60
        E 0 90 48 64
        E 0 90 49 64
        E 0 90 55 64
        E 0 90 56 64
        E 0 90 61 64
        E 0 90 62 64
        E 119 80 32 00
        E 1 80 3c 00
        E 0 80 48 00
        E 0 80 49 00
        E 0 80 55 00
        E 0 80 56 00
        E 0 80 61 00
        E 0 80 62 00
        E 0 90 61 64
        E 0 90 62 64
        E 120 80 61 00
        E 0 80 62 00
        E 0 90 39 64
        E 0 90 57 64
        E 0 90 63 64
        E 120 80 74 00
        E 0 80 57 00
        E 0 80 63 00
        E 0 90 63 64
        E 120 80 63 00
        E 0 90 3e 60
        E 0 90 4a 64
        E 0 90 4b 64
        E 0 90 57 64
        E 0 90 58 64
        E 0 90 63 64
        E 0 90 64 64
        E 120 80 39 00
        E 0 80 3e 00
        E 0 80 4a 00
        E 0 80 4b 00
        E 0 80 57 00
        E 0 80 58 00
        E 0 80 63 00
        E 0 80 64 00
        E 0 90 63 64
        E 0 90 64 64
        E 120 80 63 00
        E 0 80 64 00
        E 0 90 36 64
        E 0 90 56 64
        E 0 90 62 64
        E 120 80 56 00
        E 0 80 62 00
        E 0 90 62 64
        E 120 80 62 00
        E 0 90 3d 60
        E 0 90 49 64
        E 0 90 4a 64
        E 0 90 56 64
        E 0 90 57 64
        E 0 90 62 64
        E 0 90 63 64
        E 120 80 36 00
        E 0 80 3d 00
        E 0 80 49 00
        E 0 80 4a 00
        E 0 80 56 00
        E 0 80 57 00
        E 0 80 62 00
        E 0 80 63 00
        E 0 90 62 64
        E 0 90 63 64
        E 120 80 62 00
        E 0 80 63 00
        E 0 90 32 64
        E 0 90 55 64
        E 0 90 61 64
        E 120 80 55 00
        E 0 80 61 00
        E 0 90 61 64
        E 120 80 61 00
        E 0 90 3c 60
        E 0 90 48 64
        E 0 90 49 64
        E 0 90 55 64
        E 0 90 56 64
        E 0 90 61 64
        E 0 90 62 64
        E 120 80 32 00
        E 0 80 3c 00
        E 0 80 48 00
        E 0 80 49 00
        E 0 80 55 00
        E 0 80 56 00
        E 0 80 61 00
        E 0 80 62 00
        E 0 90 61 64
        E 0 90 62 64
        E 120 80 61 00
        E 0 80 62 00
        E 0 90 39 64
        E 0 90 57 64
        E 0 90 63 64
        E 120 80 57 00
        E 0 80 63 00
        E 0 90 63 64
        E 120 80 63 00
        E 0 90 3e 60
        E 0 90 4a 64
        E 0 90 4b 64
        E 0 90 57 64
        E 0 90 58 64
        E 0 90 63 64
        E 0 90 64 64
        E 119 80 39 00
        E 1 80 3e 00
        E 0 80 4a 00
        E 0 80 4b 00
        E 0 80 57 00
        E 0 80 58 00
        E 0 80 63 00
        E 0 80 64 00
        E 0 90 63 64
        E 0 90 64 64
        E 119 90 36 64
        E 1 80 63 00
        E 0 80 64 00
        E 0 90 56 64
        E 0 90 62 64
        E 120 80 56 00
        E 0 80 62 00
        E 0 90 62 64
        E 120 80 62 00
        E 0 90 3d 60
        E 0 90 49 64
        E 0 90 4a 64
        E 0 90 56 64
        E 0 90 57 64
        E 0 90 62 64
        E 0 90 63 64
        E 119 80 36 00
        E 1 80 3d 00
        E 0 80 49 00
        E 0 80 4a 00
        E 0 80 56 00
        E 0 80 57 00
        E 0 80 62 00
        E 0 80 63 00
        E 0 90 62 64
        E 0 90 63 64
        E 119 90 32 64
        E 1 80 62 00
        E 0 80 63 00
        E 0 90 55 64
        E 0 90 61 64
        E 120 80 55 00
        E 0 80 61 00
        E 0 90 61 64
        E 120 80 61 00
        E 0 90 3c 60
        E 0 90 48 64
        E 0 90 49 64
        E 0 90 55 64
        E 0 90 56 64
        E 0 90 61 64
        E 0 90 62 64
        E 119 80 32 00
        E 1 80 3c 00
        E 0 80 48 00
        E 0 80 49 00
        E 0 80 55 00
        E 0 80 56 00
        E 0 80 61 00
        E 0 80 62 00
        E 0 90 61 64
        E 0 90 62 64
        E 120 80 61 00
        E 0 80 62 00
        E 0 90 39 64
        E 0 90 57 64
        E 0 90 63 64
        E 120 80 57 00
        E 0 80 63 00
        E 0 90 63 64
        E 120 80 63 00
        E 0 90 3e 60
        E 0 90 4a 64
        E 0 90 4b 64
        E 0 90 57 64
        E 0 90 58 64
        E 0 90 63 64
        E 0 90 64 64
        E 120 80 39 00
        E 0 80 3e 00
        E 0 80 4a 00
        E 0 80 4b 00
        E 0 80 57 00
        E 0 80 58 00
        E 0 80 63 00
        E 0 80 64 00
        E 0 90 63 64
        E 0 90 64 64
        E 120 80 63 00
        E 0 80 64 00
        E 0 90 36 64
        E 0 90 56 64
        E 0 90 62 64
        E 120 80 56 00
        E 0 80 62 00
        E 0 90 62 64
        E 120 80 62 00
        E 0 90 3d 60
        E 0 90 49 64
        E 0 90 4a 64
        E 0 90 56 64
        E 0 90 57 64
        E 0 90 62 64
        E 0 90 63 64
        E 120 80 36 00
        E 0 80 3d 00
        E 0 80 49 00
        E 0 80 4a 00
        E 0 80 56 00
        E 0 80 57 00
        E 0 80 62 00
        E 0 80 63 00
        E 0 90 62 64
        E 0 90 63 64
        E 120 80 62 00
        E 0 80 63 00
        E 0 90 32 64
        E 0 90 55 64
        E 0 90 61 64
        E 120 80 55 00
        E 0 80 61 00
        E 0 90 61 64
        E 120 80 61 00
        E 0 90 3c 60
        E 0 90 48 64
        E 0 90 49 64
        E 0 90 55 64
        E 0 90 56 64
        E 0 90 61 64
        E 0 90 62 64
        E 120 80 32 00
        E 0 80 3c 00
        E 0 80 48 00
        E 0 80 49 00
        E 0 80 55 00
        E 0 80 56 00
        E 0 80 61 00
        E 0 80 62 00
        E 0 90 61 64
        E 0 90 62 64
        E 120 80 61 00
        E 0 80 62 00
        E 0 90 39 64
        E 0 90 57 64
        E 0 90 63 64
        E 120 80 57 00
        E 0 80 63 00
        E 0 90 63 64
        E 120 80 63 00
        E 0 90 3e 60
        E 0 90 4a 64
        E 0 90 4b 64
        E 0 90 57 64
        E 0 90 58 64
        E 0 90 63 64
        E 0 90 64 64
        E 119 80 39 00
        E 1 80 3e 00
        E 0 80 4a 00
        E 0 80 4b 00
        E 0 80 57 00
        E 0 80 58 00
        E 0 80 63 00
        E 0 80 64 00
        E 0 90 63 64
        E 0 90 64 64
        E 119 90 36 64
        E 1 80 63 00
        E 0 80 64 00
        E 0 90 56 64
        E 0 90 62 64
        E 120 80 56 00
        E 0 80 62 00
        E 0 90 62 64
        E 120 80 62 00
        E 0 90 3d 60
        E 0 90 49 64
        E 0 90 4a 64
        E 0 90 56 64
        E 0 90 57 64
        E 0 90 62 64
        E 0 90 63 64
        E 119 80 36 00
        E 1 80 3d 00
        E 0 80 49 00
        E 0 80 4a 00
        E 0 80 56 00
        E 0 80 57 00
        E 0 80 62 00
        E 0 80 63 00
        E 0 90 62 64
        E 0 90 63 64
        E 119 90 32 64
        E 1 80 62 00
        E 0 80 63 00
        E 0 90 55 64
        E 0 90 61 64
        E 120 80 55 00
        E 0 80 61 00
        E 0 90 61 64
        E 120 80 61 00
        E 0 90 3c 60
        E 0 90 48 64
        E 0 90 49 64
        E 0 90 55 64
        E 0 90 56 64
        E 0 90 61 64
        E 0 90 62 64
        E 119 80 32 00
        E 1 80 3c 00
        E 0 80 48 00
        E 0 80 49 00
        E 0 80 55 00
        E 0 80 56 00
        E 0 80 61 00
        E 0 80 62 00
        E 0 90 61 64
        E 0 90 62 64
        E 120 80 61 00
        E 0 80 62 00
        E 0 90 39 64
        E 0 90 57 64
        E 0 90 63 64
        E 120 80 57 00
        E 0 80 63 00
        E 0 90 63 64
        E 120 80 63 00
        E 0 90 3e 60
        E 0 90 4a 64
        E 0 90 4b 64
        E 0 90 57 64
        E 0 90 58 64
        E 0 90 63 64
        E 0 90 64 64
        E 120 80 39 00
        E 0 80 3e 00
        E 0 80 4a 00
        E 0 80 4b 00
        E 0 80 57 00
        E 0 80 58 00
        E 0 80 63 00
        E 0 80 64 00
        E 0 90 63 64
        E 0 90 64 64
        E 120 80 63 00
        E 0 80 64 00
        E 0 90 36 64
        E 0 90 56 64
        E 0 90 62 64
        E 120 80 56 00
        E 0 80 62 00
        E 0 90 62 64
        E 120 80 62 00
        E 0 90 3d 60
        E 0 90 49 64
        E 0 90 4a 64
        E 0 90 56 64
        E 0 90 57 64
        E 0 90 62 64
        E 0 90 63 64
        E 120 80 36 00
        E 0 80 3d 00
        E 0 80 49 00
        E 0 80 4a 00
        E 0 80 56 00
        E 0 80 57 00
        E 0 80 62 00
        E 0 80 63 00
        E 0 90 62 64
        E 0 90 63 64
        E 120 80 62 00
        E 0 80 63 00
        E 0 90 32 64
        E 0 90 55 64
        E 0 90 61 64
        E 120 80 55 00
        E 0 80 61 00
        E 0 90 61 64
        E 120 80 61 00
        E 0 90 3c 60
        E 0 90 48 64
        E 0 90 49 64
        E 0 90 55 64
        E 0 90 56 64
        E 0 90 61 64
        E 0 90 62 64
        E 120 80 32 00
        E 0 80 3c 00
        E 0 80 48 00
        E 0 80 49 00
        E 0 80 55 00
        E 0 80 56 00
        E 0 80 61 00
        E 0 80 62 00
        E 0 90 61 64
        E 0 90 62 64
        E 120 80 61 00
        E 0 80 62 00
        E 0 90 39 64
        E 0 90 57 64
        E 0 90 63 64
        E 120 80 57 00
        E 0 80 63 00
        E 0 90 63 64
        E 120 80 63 00
        E 0 90 3e 60
        E 0 90 4a 64
        E 0 90 4b 64
        E 0 90 57 64
        E 0 90 58 64
        E 0 90 63 64
        E 0 90 64 64
        E 119 80 39 00
        E 1 80 3e 00
        E 0 80 4a 00
        E 0 80 4b 00
        E 0 80 57 00
        E 0 80 58 00
        E 0 80 63 00
        E 0 80 64 00
        E 0 90 63 64
        E 0 90 64 64
        E 119 90 36 64
        E 1 80 63 00
        E 0 80 64 00
        E 0 90 56 64
        E 0 90 62 64
        E 120 80 56 00
        E 0 80 62 00
        E 0 90 62 64
        E 120 80 62 00
        E 0 90 3d 60
        E 0 90 49 64
        E 0 90 4a 64
        E 0 90 56 64
        E 0 90 57 64
        E 0 90 62 64
        E 0 90 63 64
        E 119 80 36 00
        E 1 80 3d 00
        E 0 80 49 00
        E 0 80 4a 00
        E 0 80 56 00
        E 0 80 57 00
        E 0 80 62 00
        E 0 80 63 00
        E 0 90 62 64
        E 0 90 63 64
        E 119 90 32 64
        E 1 80 62 00
        E 0 80 63 00
        E 0 90 55 64
        E 0 90 61 64
        E 120 80 55 00
        E 0 80 61 00
        E 0 90 61 64
        E 120 80 61 00
        E 0 90 3c 60
        E 0 90 48 64
        E 0 90 49 64
        E 0 90 55 64
        E 0 90 56 64
        E 0 90 61 64
        E 0 90 62 64
        E 119 80 32 00
        E 1 80 3c 00
        E 0 80 48 00
        E 0 80 49 00
        E 0 80 55 00
        E 0 80 56 00
        E 0 80 61 00
        E 0 80 62 00
        <X 120 0
          /wFbbWVsbG93XQ==
        >
        E 0 90 33 64
        E 0 90 3c 60
        E 0 90 48 64
        E 0 90 4a 64
        E 0 90 54 64
        E 0 90 56 64
        E 0 90 60 64
        E 0 90 62 64
        E 120 80 3c 00
        E 0 80 48 00
        E 0 80 4a 00
        E 0 80 54 00
        E 0 80 56 00
        E 0 80 60 00
        E 0 80 62 00
        E 120 80 33 00
        E 120 90 2d 64
        E 0 90 56 64
        E 0 90 57 64
        E 0 90 62 64
        E 0 90 63 64
        E 120 80 56 00
        E 0 80 57 00
        E 0 80 62 00
        E 0 80 63 00
        E 120 90 56 64
        E 0 90 57 64
        E 0 90 62 64
        E 0 90 63 64
        E 120 80 56 00
        E 0 80 57 00
        E 0 80 62 00
        E 0 80 63 00
        E 120 90 62 64
        E 0 90 63 64
        E 120 80 2d 00
        E 0 80 62 00
        E 0 80 63 00
        E 0 90 36 64
        E 0 90 3d 60
        E 0 90 49 64
        E 0 90 4b 64
        E 0 90 55 64
        E 0 90 57 64
        E 0 90 61 64
        E 0 90 63 64
        E 0 90 65 64
        E 120 80 3d 00
        E 0 80 49 00
        E 0 80 4b 00
        E 0 80 55 00
        E 0 80 57 00
        E 0 80 61 00
        E 0 80 63 00
        E 0 80 65 00
        E 120 90 55 64
        E 0 90 57 64
        E 0 90 61 64
        E 0 90 63 64
        E 120 80 36 00
        E 0 80 55 00
        E 0 80 57 00
        E 0 80 61 00
        E 0 80 63 00
        E 120 90 33 64
        E 0 90 3c 60
        E 0 90 48 64
        E 0 90 4a 64
        E 0 90 54 64
        E 0 90 56 64
        E 0 90 60 64
        E 0 90 62 64
        E 120 80 3c 00
        E 0 80 48 00
        E 0 80 4a 00
        E 0 80 54 00
        E 0 80 56 00
        E 0 80 60 00
        E 0 80 62 00
        E 120 80 33 00
        E 120 90 2d 64
        E 0 90 56 64
        E 0 90 57 64
        E 0 90 62 64
        E 0 90 63 64
        E 120 80 56 00
        E 0 80 57 00
        E 0 80 62 00
        E 0 80 63 00
        E 120 90 56 64
        E 0 90 57 64
        E 0 90 62 64
        E 0 90 63 64
        E 120 80 56 00
        E 0 80 57 00
        E 0 80 62 00
        E 0 80 63 00
        E 120 90 62 64
        E 0 90 63 64
        E 120 80 2d 00
        E 0 80 62 00
        E 0 80 63 00
        E 0 90 36 64
        E 0 90 3d 60
        E 0 90 49 64
        E 0 90 4b 64
        E 0 90 55 64
        E 0 90 57 64
        E 0 90 61 64
        E 0 90 63 64
        E 120 80 3d 00
        E 0 80 49 00
        E 0 80 4b 00
        E 0 80 55 00
        E 0 80 57 00
        E 0 80 61 00
        E 0 80 63 00
        E 240 80 36 00
        E 120 90 33 64
        E 0 90 3c 60
        E 0 90 48 64
        E 0 90 4a 64
        E 0 90 54 64
        E 0 90 56 64
        E 0 90 60 64
        E 0 90 62 64
        E 0 90 74 64
        E 120 80 3c 00
        E 0 80 48 00
        E 0 80 4a 00
        E 0 80 54 00
        E 0 80 56 00
        E 0 80 60 00
        E 0 80 62 00
        E 120 80 33 00
        E 120 90 2d 64
        E 0 90 56 64
        E 0 90 57 64
        E 0 90 62 64
        E 0 90 63 64
        E 120 80 56 00
        E 0 80 57 00
        E 0 80 62 00
        E 0 80 63 00
        E 120 90 56 64
        E 0 90 57 64
        E 0 90 62 64
        E 0 90 63 64
        E 120 80 56 00
        E 0 80 57 00
        E 0 80 62 00
        E 0 80 63 00
        E 120 90 62 64
        E 0 90 63 64
        E 120 80 2d 00
        E 0 80 62 00
        E 0 80 63 00
        E 0 90 36 64
        E 0 90 3d 60
        E 0 90 49 64
        E 0 90 4b 64
        E 0 90 55 64
        E 0 90 57 64
        E 0 90 61 64
        E 0 90 63 64
        E 0 90 65 64
        E 120 80 3d 00
        E 0 80 49 00
        E 0 80 4b 00
        E 0 80 55 00
        E 0 80 57 00
        E 0 80 61 00
        E 0 80 63 00
        E 0 80 65 00
        E 120 90 55 64
        E 0 90 57 64
        E 0 90 61 64
        E 0 90 63 64
        E 120 80 36 00
        E 0 80 55 00
        E 0 80 57 00
        E 0 80 61 00
        E 0 80 63 00
        E 120 90 33 64
        E 0 90 3c 60
        E 0 90 48 64
        E 0 90 4a 64
        E 0 90 54 64
        E 0 90 56 64
        E 0 90 60 64
        E 0 90 62 64
        E 120 80 3c 00
        E 0 80 48 00
        E 0 80 4a 00
        E 0 80 54 00
        E 0 80 56 00
        E 0 80 60 00
        E 0 80 62 00
        E 120 80 33 00
        E 120 90 2d 64
        E 0 90 56 64
        E 0 90 57 64
        E 0 90 62 64
        E 0 90 63 64
        E 120 80 56 00
        E 0 80 57 00
        E 0 80 62 00
        E 0 80 63 00
        E 120 90 56 64
        E 0 90 57 64
        E 0 90 62 64
        E 0 90 63 64
        E 120 80 56 00
        E 0 80 57 00
        E 0 80 62 00
        E 0 80 63 00
        E 120 90 62 64
        E 0 90 63 64
        E 120 80 2d 00
        E 0 80 62 00
        E 0 80 63 00
        E 0 90 36 64
        E 0 90 3d 60
        E 0 90 49 64
        E 0 90 4b 64
        E 0 90 55 64
        E 0 90 57 64
        E 0 90 61 64
        E 0 90 63 64
        E 120 80 74 00
        E 0 80 3d 00
        E 0 80 49 00
        E 0 80 4b 00
        E 0 80 55 00
        E 0 80 57 00
        E 0 80 61 00
        E 0 80 63 00
        E 240 80 36 00
        E 120 90 33 64
        E 0 90 3c 60
        E 0 90 48 64
        E 0 90 4a 64
        E 0 90 54 64
        E 0 90 56 64
        E 0 90 60 64
        E 0 90 62 64
        E 120 80 3c 00
        E 0 80 48 00
        E 0 80 4a 00
        E 0 80 54 00
        E 0 80 56 00
        E 0 80 60 00
        E 0 80 62 00
        E 120 80 33 00
        E 120 90 2d 64
        E 0 90 56 64
        E 0 90 57 64
        E 0 90 62 64
        E 0 90 63 64
        E 120 80 56 00
        E 0 80 57 00
        E 0 80 62 00
        E 0 80 63 00
        E 120 90 56 64
        E 0 90 57 64
        E 0 90 62 64
        E 0 90 63 64
        E 120 80 56 00
        E 0 80 57 00
        E 0 80 62 00
        E 0 80 63 00
        E 120 90 62 64
        E 0 90 63 64
        E 120 80 2d 00
        E 0 80 62 00
        E 0 80 63 00
        E 0 90 36 64
        E 0 90 3d 60
        E 0 90 49 64
        E 0 90 4b 64
        E 0 90 55 64
        E 0 90 57 64
        E 0 90 61 64
        E 0 90 63 64
        E 0 90 65 64
        E 120 80 3d 00
        E 0 80 49 00
        E 0 80 4b 00
        E 0 80 55 00
        E 0 80 57 00
        E 0 80 61 00
        E 0 80 63 00
        E 0 80 65 00
        E 120 90 55 64
        E 0 90 57 64
        E 0 90 61 64
        E 0 90 63 64
        E 120 80 36 00
        E 0 80 55 00
        E 0 80 57 00
        E 0 80 61 00
        E 0 80 63 00
        E 120 90 33 64
        E 0 90 3c 60
        E 0 90 48 64
        E 0 90 4a 64
        E 0 90 54 64
        E 0 90 56 64
        E 0 90 60 64
        E 0 90 62 64
        E 120 80 3c 00
        E 0 80 48 00
        E 0 80 4a 00
        E 0 80 54 00
        E 0 80 56 00
        E 0 80 60 00
        E 0 80 62 00
        E 120 80 33 00
        E 120 90 2d 64
        E 0 90 56 64
        E 0 90 57 64
        E 0 90 62 64
        E 0 90 63 64
        E 120 80 56 00
        E 0 80 57 00
        E 0 80 62 00
        E 0 80 63 00
        E 120 90 56 64
        E 0 90 57 64
        E 0 90 62 64
        E 0 90 63 64
        E 120 80 56 00
        E 0 80 57 00
        E 0 80 62 00
        E 0 80 63 00
        E 120 90 62 64
        E 0 90 63 64
        E 120 80 2d 00
        E 0 80 62 00
        E 0 80 63 00
        E 0 90 36 64
        E 0 90 3d 60
        E 0 90 49 64
        E 0 90 4b 64
        E 0 90 55 64
        E 0 90 57 64
        E 0 90 61 64
        E 0 90 63 64
        E 120 80 3d 00
        E 0 80 49 00
        E 0 80 4b 00
        E 0 80 55 00
        E 0 80 57 00
        E 0 80 61 00
        E 0 80 63 00
        E 240 80 36 00
        E 120 90 33 64
        E 0 90 3c 60
        E 0 90 48 64
        E 0 90 4a 64
        E 0 90 54 64
        E 0 90 56 64
        E 0 90 60 64
        E 0 90 62 64
        E 120 80 3c 00
        E 0 80 48 00
        E 0 80 4a 00
        E 0 80 54 00
        E 0 80 56 00
        E 0 80 60 00
        E 0 80 62 00
        E 120 80 33 00
        E 120 90 2d 64
        E 0 90 56 64
        E 0 90 57 64
        E 0 90 62 64
        E 0 90 63 64
        E 120 80 56 00
        E 0 80 57 00
        E 0 80 62 00
        E 0 80 63 00
        E 120 90 56 64
        E 0 90 57 64
        E 0 90 62 64
        E 0 90 63 64
        E 120 80 56 00
        E 0 80 57 00
        E 0 80 62 00
        E 0 80 63 00
        E 120 90 62 64
        E 0 90 63 64
        E 120 80 2d 00
        E 0 80 62 00
        E 0 80 63 00
        E 0 90 36 64
        E 0 90 3d 60
        E 0 90 49 64
        E 0 90 4b 64
        E 0 90 55 64
        E 0 90 57 64
        E 0 90 61 64
        E 0 90 63 64
        E 0 90 65 64
        E 120 80 3d 00
        E 0 80 49 00
        E 0 80 4b 00
        E 0 80 55 00
        E 0 80 57 00
        E 0 80 61 00
        E 0 80 63 00
        E 0 80 65 00
        E 120 90 55 64
        E 0 90 57 64
        E 0 90 61 64
        E 0 90 63 64
        E 120 80 36 00
        E 0 80 55 00
        E 0 80 57 00
        E 0 80 61 00
        E 0 80 63 00
        E 120 90 33 64
        E 0 90 3c 60
        E 0 90 48 64
        E 0 90 4a 64
        E 0 90 54 64
        E 0 90 56 64
        E 0 90 60 64
        E 0 90 62 64
        E 120 80 3c 00
        E 0 80 48 00
        E 0 80 4a 00
        E 0 80 54 00
        E 0 80 56 00
        E 0 80 60 00
        E 0 80 62 00
        E 120 80 33 00
        E 120 90 2d 64
        E 0 90 56 64
        E 0 90 57 64
        E 0 90 62 64
        E 0 90 63 64
        E 120 80 56 00
        E 0 80 57 00
        E 0 80 62 00
        E 0 80 63 00
        E 120 90 56 64
        E 0 90 57 64
        E 0 90 62 64
        E 0 90 63 64
        E 120 80 56 00
        E 0 80 57 00
        E 0 80 62 00
        E 0 80 63 00
        E 120 90 62 64
        E 0 90 63 64
        E 120 80 2d 00
        E 0 80 62 00
        E 0 80 63 00
        E 0 90 36 64
        E 0 90 3d 60
        E 0 90 49 64
        E 0 90 4b 64
        E 0 90 55 64
        E 0 90 57 64
        E 0 90 61 64
        E 0 90 63 64
        E 0 90 65 64
        E 120 80 3d 00
        E 0 80 49 00
        E 0 80 4b 00
        E 0 80 55 00
        E 0 80 57 00
        E 0 80 61 00
        E 0 80 63 00
        E 0 80 65 00
        E 240 80 36 00
        E 120 90 33 64
        E 0 90 3c 60
        E 0 90 48 64
        E 0 90 4a 64
        E 0 90 54 64
        E 0 90 56 64
        E 0 90 60 64
        E 0 90 62 64
        E 120 80 3c 00
        E 0 80 48 00
        E 0 80 4a 00
        E 0 80 54 00
        E 0 80 56 00
        E 0 80 60 00
        E 0 80 62 00
        E 120 80 33 00
        E 120 90 2d 64
        E 0 90 56 64
        E 0 90 57 64
        E 0 90 62 64
        E 0 90 63 64
        E 120 80 56 00
        E 0 80 57 00
        E 0 80 62 00
        E 0 80 63 00
        E 120 90 56 64
        E 0 90 57 64
        E 0 90 62 64
        E 0 90 63 64
        E 120 80 56 00
        E 0 80 57 00
        E 0 80 62 00
        E 0 80 63 00
        E 120 90 62 64
        E 0 90 63 64
        E 120 80 2d 00
        E 0 80 62 00
        E 0 80 63 00
        E 0 90 36 64
        E 0 90 3d 60
        E 0 90 49 64
        E 0 90 4b 64
        E 0 90 55 64
        E 0 90 57 64
        E 0 90 61 64
        E 0 90 63 64
        E 0 90 65 64
        E 120 80 3d 00
        E 0 80 49 00
        E 0 80 4b 00
        E 0 80 55 00
        E 0 80 57 00
        E 0 80 61 00
        E 0 80 63 00
        E 0 80 65 00
        E 120 90 55 64
        E 0 90 57 64
        E 0 90 61 64
        E 0 90 63 64
        E 120 80 36 00
        E 0 80 55 00
        E 0 80 57 00
        E 0 80 61 00
        E 0 80 63 00
        E 120 90 33 64
        E 0 90 3c 60
        E 0 90 48 64
        E 0 90 4a 64
        E 0 90 54 64
        E 0 90 56 64
        E 0 90 60 64
        E 0 90 62 64
        E 120 80 3c 00
        E 0 80 48 00
        E 0 80 4a 00
        E 0 80 54 00
        E 0 80 56 00
        E 0 80 60 00
        E 0 80 62 00
        E 120 80 33 00
        E 120 90 2d 64
        E 0 90 56 64
        E 0 90 57 64
        E 0 90 62 64
        E 0 90 63 64
        E 120 80 56 00
        E 0 80 57 00
        E 0 80 62 00
        E 0 80 63 00
        E 120 90 56 64
        E 0 90 57 64
        E 0 90 62 64
        E 0 90 63 64
        E 120 80 56 00
        E 0 80 57 00
        E 0 80 62 00
        E 0 80 63 00
        E 120 90 62 64
        E 0 90 63 64
        E 120 80 2d 00
        E 0 80 62 00
        E 0 80 63 00
        E 0 90 36 64
        E 0 90 3d 60
        E 0 90 49 64
        E 0 90 4b 64
        E 0 90 55 64
        E 0 90 57 64
        E 0 90 61 64
        E 0 90 63 64
        E 120 80 3d 00
        E 0 80 49 00
        E 0 80 4b 00
        E 0 80 55 00
        E 0 80 57 00
        E 0 80 61 00
        E 0 80 63 00
        E 240 80 36 00
        E 120 90 33 64
        E 0 90 3c 60
        E 0 90 48 64
        E 0 90 4a 64
        E 0 90 54 64
        E 0 90 56 64
        E 0 90 60 64
        E 0 90 62 64
        E 120 80 3c 00
        E 0 80 48 00
        E 0 80 4a 00
        E 0 80 54 00
        E 0 80 56 00
        E 0 80 60 00
        E 0 80 62 00
        E 120 80 33 00
        E 120 90 2d 64
        E 0 90 56 64
        E 0 90 57 64
        E 0 90 62 64
        E 0 90 63 64
        E 120 80 56 00
        E 0 80 57 00
        E 0 80 62 00
        E 0 80 63 00
        E 120 90 56 64
        E 0 90 57 64
        E 0 90 62 64
        E 0 90 63 64
        E 120 80 56 00
        E 0 80 57 00
        E 0 80 62 00
        E 0 80 63 00
        E 120 90 62 64
        E 0 90 63 64
        E 120 80 2d 00
        E 0 80 62 00
        E 0 80 63 00
        E 0 90 36 64
        E 0 90 3d 60
        E 0 90 49 64
        E 0 90 4b 64
        E 0 90 55 64
        E 0 90 57 64
        E 0 90 61 64
        E 0 90 63 64
        E 120 80 3d 00
        E 0 80 49 00
        E 0 80 4b 00
        E 0 80 55 00
        E 0 80 57 00
        E 0 80 61 00
        E 0 80 63 00
        E 120 90 55 64
        E 0 90 57 64
        E 0 90 61 64
        E 0 90 63 64
        E 120 80 36 00
        E 0 80 55 00
        E 0 80 57 00
        E 0 80 61 00
        E 0 80 63 00
        E 120 90 33 64
        E 0 90 3c 60
        E 0 90 48 64
        E 0 90 4a 64
        E 0 90 54 64
        E 0 90 56 64
        E 0 90 60 64
        E 0 90 62 64
        E 120 80 3c 00
        E 0 80 48 00
        E 0 80 4a 00
        E 0 80 54 00
        E 0 80 56 00
        E 0 80 60 00
        E 0 80 62 00
        E 120 80 33 00
        E 120 90 2d 64
        E 0 90 56 64
        E 0 90 57 64
        E 0 90 62 64
        E 0 90 63 64
        E 120 80 56 00
        E 0 80 57 00
        E 0 80 62 00
        E 0 80 63 00
        E 120 90 56 64
        E 0 90 57 64
        E 0 90 62 64
        E 0 90 63 64
        E 120 80 56 00
        E 0 80 57 00
        E 0 80 62 00
        E 0 80 63 00
        E 120 90 62 64
        E 0 90 63 64
        E 120 80 2d 00
        E 0 80 62 00
        E 0 80 63 00
        E 0 90 36 64
        E 0 90 3d 60
        E 0 90 49 64
        E 0 90 4b 64
        E 0 90 55 64
        E 0 90 57 64
        E 0 90 61 64
        E 0 90 63 64
        E 120 80 3d 00
        E 0 80 49 00
        E 0 80 4b 00
        E 0 80 55 00
        E 0 80 57 00
        E 0 80 61 00
        E 0 80 63 00
        E 240 80 36 00
        <X 120 0
          /wFbcGxheV0=
        >
        E 0 90 2b 64
        E 0 90 3c 60
        E 0 90 3d 60
        E 0 90 48 64
        E 0 90 49 64
        E 0 90 54 64
        E 0 90 55 64
        E 0 90 60 64
        E 0 90 61 64
        E 0 90 62 64
        E 0 90 74 64
        E 720 80 3c 00
        E 0 80 3d 00
        E 240 80 48 00
        E 0 80 49 00
        E 240 80 54 00
        E 0 80 55 00
        E 120 80 2b 00
        E 0 80 60 00
        E 0 80 61 00
        E 0 80 62 00
        E 120 90 32 64
        E 0 90 3c 60
        E 0 90 3e 60
        E 0 90 48 64
        E 0 90 4a 64
        E 0 90 54 64
        E 0 90 56 64
        E 0 90 60 64
        E 0 90 61 64
        E 0 90 63 64
        E 720 80 3c 00
        E 0 80 3e 00
        E 240 80 48 00
        E 0 80 4a 00
        E 240 80 54 00
        E 0 80 56 00
        E 120 80 32 00
        E 0 80 60 00
        E 0 80 61 00
        E 0 80 63 00
        E 120 80 74 00
        E 0 90 2b 64
        E 0 90 3c 60
        E 0 90 3d 60
        E 0 90 48 64
        E 0 90 49 64
        E 0 90 54 64
        E 0 90 55 64
        E 0 90 60 64
        E 0 90 61 64
        E 0 90 62 64
        E 720 80 3c 00
        E 0 80 3d 00
        E 240 80 48 00
        E 0 80 49 00
        E 240 80 54 00
        E 0 80 55 00
        E 120 80 2b 00
        E 0 80 60 00
        E 0 80 61 00
        E 0 80 62 00
        E 120 90 32 64
        E 0 90 3c 60
        E 0 90 3e 60
        E 0 90 48 64
        E 0 90 4a 64
        E 0 90 54 64
        E 0 90 56 64
        E 0 90 60 64
        E 0 90 61 64
        E 0 90 63 64
        E 720 80 3c 00
        E 0 80 3e 00
        E 240 80 48 00
        E 0 80 4a 00
        E 240 80 54 00
        E 0 80 56 00
        E 120 80 32 00
        E 0 80 60 00
        E 0 80 61 00
        E 0 80 63 00
        E 120 90 2b 64
        E 0 90 3c 60
        E 0 90 3d 60
        E 0 90 48 64
        E 0 90 49 64
        E 0 90 54 64
        E 0 90 55 64
        E 0 90 60 64
        E 0 90 61 64
        E 0 90 62 64
        E 720 80 3c 00
        E 0 80 3d 00
        E 240 80 48 00
        E 0 80 49 00
        E 240 80 54 00
        E 0 80 55 00
        E 120 80 2b 00
        E 0 80 60 00
        E 0 80 61 00
        E 0 80 62 00
        E 120 90 32 64
        E 0 90 3c 60
        E 0 90 3e 60
        E 0 90 48 64
        E 0 90 4a 64
        E 0 90 54 64
        E 0 90 56 64
        E 0 90 60 64
        E 0 90 61 64
        E 0 90 63 64
        E 720 80 3c 00
        E 0 80 3e 00
        E 240 80 48 00
        E 0 80 4a 00
        E 240 80 54 00
        E 0 80 56 00
        E 120 80 32 00
        E 0 80 60 00
        E 0 80 61 00
        E 0 80 63 00
        E 120 90 2b 64
        E 0 90 3c 60
        E 0 90 3d 60
        E 0 90 48 64
        E 0 90 49 64
        E 0 90 54 64
        E 0 90 55 64
        E 0 90 60 64
        E 0 90 61 64
        E 0 90 62 64
        E 720 80 3c 00
        E 0 80 3d 00
        E 240 80 48 00
        E 0 80 49 00
        E 240 80 54 00
        E 0 80 55 00
        E 120 80 2b 00
        E 0 80 60 00
        E 0 80 61 00
        E 0 80 62 00
        E 120 90 32 64
        E 0 90 3c 60
        E 0 90 3e 60
        E 0 90 48 64
        E 0 90 4a 64
        E 0 90 54 64
        E 0 90 56 64
        E 0 90 60 64
        E 0 90 61 64
        E 0 90 63 64
        E 720 80 3c 00
        E 0 80 3e 00
        E 240 80 48 00
        E 0 80 4a 00
        E 240 80 54 00
        E 0 80 56 00
        E 120 80 32 00
        E 0 80 60 00
        E 0 80 61 00
        E 0 80 63 00
        <X 120 0
          /wFbaW50ZW5zZV0=
        >
        E 0 90 39 64
        E 0 90 57 64
        E 0 90 63 64
        E 120 80 57 00
        E 0 80 63 00
        E 0 90 63 64
        E 120 80 63 00
        E 0 90 3e 60
        E 0 90 4a 64
        E 0 90 4b 64
        E 0 90 57 64
        E 0 90 58 64
        E 0 90 63 64
        E 0 90 64 64
        E 120 80 39 00
        E 0 80 3e 00
        E 0 80 4a 00
        E 0 80 4b 00
        E 0 80 57 00
        E 0 80 58 00
        E 0 80 63 00
        E 0 80 64 00
        E 0 90 63 64
        E 0 90 64 64
        E 120 80 63 00
        E 0 80 64 00
        E 0 90 36 64
        E 0 90 56 64
        E 0 90 62 64
        E 120 80 56 00
        E 0 80 62 00
        E 0 90 62 64
        E 120 80 62 00
        E 0 90 3d 60
        E 0 90 49 64
        E 0 90 4a 64
        E 0 90 56 64
        E 0 90 57 64
        E 0 90 62 64
        E 0 90 63 64
        E 120 80 36 00
        E 0 80 3d 00
        E 0 80 49 00
        E 0 80 4a 00
        E 0 80 56 00
        E 0 80 57 00
        E 0 80 62 00
        E 0 80 63 00
        E 0 90 62 64
        E 0 90 63 64
        E 120 80 62 00
        E 0 80 63 00
        E 0 90 32 64
        E 0 90 55 64
        E 0 90 61 64
        E 120 80 55 00
        E 0 80 61 00
        E 0 90 61 64
        E 120 80 61 00
        E 0 90 3c 60
        E 0 90 48 64
        E 0 90 49 64
        E 0 90 55 64
        E 0 90 56 64
        E 0 90 61 64
        E 0 90 62 64
        E 120 80 32 00
        E 0 80 3c 00
        E 0 80 48 00
        E 0 80 49 00
        E 0 80 55 00
        E 0 80 56 00
        E 0 80 61 00
        E 0 80 62 00
        E 0 90 61 64
        E 0 90 62 64
        E 120 80 61 00
        E 0 80 62 00
        E 0 90 39 64
        E 0 90 57 64
        E 0 90 63 64
        E 120 80 57 00
        E 0 80 63 00
        E 0 90 63 64
        E 120 80 63 00
        E 0 90 3e 60
        E 0 90 4a 64
        E 0 90 4b 64
        E 0 90 57 64
        E 0 90 58 64
        E 0 90 63 64
        E 0 90 64 64
        E 119 80 39 00
        E 1 80 3e 00
        E 0 80 4a 00
        E 0 80 4b 00
        E 0 80 57 00
        E 0 80 58 00
        E 0 80 63 00
        E 0 80 64 00
        E 0 90 63 64
        E 0 90 64 64
        E 119 90 36 64
        E 1 80 63 00
        E 0 80 64 00
        E 0 90 56 64
        E 0 90 62 64
        E 120 80 56 00
        E 0 80 62 00
        E 0 90 62 64
        E 120 80 62 00
        E 0 90 3d 60
        E 0 90 49 64
        E 0 90 4a 64
        E 0 90 56 64
        E 0 90 57 64
        E 0 90 62 64
        E 0 90 63 64
        E 119 80 36 00
        E 1 80 3d 00
        E 0 80 49 00
        E 0 80 4a 00
        E 0 80 56 00
        E 0 80 57 00
        E 0 80 62 00
        E 0 80 63 00
        E 0 90 62 64
        E 0 90 63 64
        E 119 90 32 64
        E 1 80 62 00
        E 0 80 63 00
        E 0 90 55 64
        E 0 90 61 64
        E 120 80 55 00
        E 0 80 61 00
        E 0 90 61 64
        E 120 80 61 00
        E 0 90 3c 60
        E 0 90 48 64
        E 0 90 49 64
        E 0 90 55 64
        E 0 90 56 64
        E 0 90 61 64
        E 0 90 62 64
        E 119 80 32 00
        E 1 80 3c 00
        E 0 80 48 00
        E 0 80 49 00
        E 0 80 55 00
        E 0 80 56 00
        E 0 80 61 00
        E 0 80 62 00
        E 0 90 61 64
        E 0 90 62 64
        E 120 80 61 00
        E 0 80 62 00
        E 0 90 39 64
        E 0 90 57 64
        E 0 90 63 64
        E 120 80 57 00
        E 0 80 63 00
        E 0 90 63 64
        E 120 80 63 00
        E 0 90 3e 60
        E 0 90 4a 64
        E 0 90 4b 64
        E 0 90 57 64
        E 0 90 58 64
        E 0 90 63 64
        E 0 90 64 64
        E 120 80 39 00
        E 0 80 3e 00
        E 0 80 4a 00
        E 0 80 4b 00
        E 0 80 57 00
        E 0 80 58 00
        E 0 80 63 00
        E 0 80 64 00
        E 0 90 63 64
        E 0 90 64 64
        E 120 80 63 00
        E 0 80 64 00
        E 0 90 36 64
        E 0 90 56 64
        E 0 90 62 64
        E 120 80 56 00
        E 0 80 62 00
        E 0 90 62 64
        E 120 80 62 00
        E 0 90 3d 60
        E 0 90 49 64
        E 0 90 4a 64
        E 0 90 56 64
        E 0 90 57 64
        E 0 90 62 64
        E 0 90 63 64
        E 120 80 36 00
        E 0 80 3d 00
        E 0 80 49 00
        E 0 80 4a 00
        E 0 80 56 00
        E 0 80 57 00
        E 0 80 62 00
        E 0 80 63 00
        E 0 90 62 64
        E 0 90 63 64
        E 120 80 62 00
        E 0 80 63 00
        E 0 90 32 64
        E 0 90 55 64
        E 0 90 61 64
        E 120 80 55 00
        E 0 80 61 00
        E 0 90 61 64
        E 120 80 61 00
        E 0 90 3c 60
        E 0 90 48 64
        E 0 90 49 64
        E 0 90 55 64
        E 0 90 56 64
        E 0 90 61 64
        E 0 90 62 64
        E 120 80 32 00
        E 0 80 3c 00
        E 0 80 48 00
        E 0 80 49 00
        E 0 80 55 00
        E 0 80 56 00
        E 0 80 61 00
        E 0 80 62 00
        E 0 90 61 64
        E 0 90 62 64
        E 120 80 61 00
        E 0 80 62 00
        E 0 90 39 64
        E 0 90 57 64
        E 0 90 63 64
        E 120 80 57 00
        E 0 80 63 00
        E 0 90 63 64
        E 120 80 63 00
        E 0 90 3e 60
        E 0 90 4a 64
        E 0 90 4b 64
        E 0 90 57 64
        E 0 90 58 64
        E 0 90 63 64
        E 0 90 64 64
        E 119 80 39 00
        E 1 80 3e 00
        E 0 80 4a 00
        E 0 80 4b 00
        E 0 80 57 00
        E 0 80 58 00
        E 0 80 63 00
        E 0 80 64 00
        E 0 90 63 64
        E 0 90 64 64
        E 119 90 36 64
        E 1 80 63 00
        E 0 80 64 00
        E 0 90 56 64
        E 0 90 62 64
        E 120 80 56 00
        E 0 80 62 00
        E 0 90 62 64
        E 120 80 62 00
        E 0 90 3d 60
        E 0 90 49 64
        E 0 90 4a 64
        E 0 90 56 64
        E 0 90 57 64
        E 0 90 62 64
        E 0 90 63 64
        E 119 80 36 00
        E 1 80 3d 00
        E 0 80 49 00
        E 0 80 4a 00
        E 0 80 56 00
        E 0 80 57 00
        E 0 80 62 00
        E 0 80 63 00
        E 0 90 62 64
        E 0 90 63 64
        E 119 90 32 64
        E 1 80 62 00
        E 0 80 63 00
        E 0 90 55 64
        E 0 90 61 64
        E 120 80 55 00
        E 0 80 61 00
        E 0 90 61 64
        E 120 80 61 00
        E 0 90 3c 60
        E 0 90 48 64
        E 0 90 49 64
        E 0 90 55 64
        E 0 90 56 64
        E 0 90 61 64
        E 0 90 62 64
        E 119 80 32 00
        E 1 80 3c 00
        E 0 80 48 00
        E 0 80 49 00
        E 0 80 55 00
        E 0 80 56 00
        E 0 80 61 00
        E 0 80 62 00
        E 0 90 61 64
        E 0 90 62 64
        E 120 80 61 00
        E 0 80 62 00
        E 0 90 39 64
        E 0 90 57 64
        E 0 90 63 64
        E 0 90 74 64
        E 120 80 57 00
        E 0 80 63 00
        E 0 90 63 64
        E 120 80 63 00
        E 0 90 3e 60
        E 0 90 4a 64
        E 0 90 4b 64
        E 0 90 57 64
        E 0 90 58 64
        E 0 90 63 64
        E 0 90 64 64
        E 120 80 39 00
        E 0 80 3e 00
        E 0 80 4a 00
        E 0 80 4b 00
        E 0 80 57 00
        E 0 80 58 00
        E 0 80 63 00
        E 0 80 64 00
        E 0 90 63 64
        E 0 90 64 64
        E 120 80 63 00
        E 0 80 64 00
        E 0 90 36 64
        E 0 90 56 64
        E 0 90 62 64
        E 120 80 56 00
        E 0 80 62 00
        E 0 90 62 64
        E 120 80 62 00
        E 0 90 3d 60
        E 0 90 49 64
        E 0 90 4a 64
        E 0 90 56 64
        E 0 90 57 64
        E 0 90 62 64
        E 0 90 63 64
        E 120 80 36 00
        E 0 80 3d 00
        E 0 80 49 00
        E 0 80 4a 00
        E 0 80 56 00
        E 0 80 57 00
        E 0 80 62 00
        E 0 80 63 00
        E 0 90 62 64
        E 0 90 63 64
        E 120 80 62 00
        E 0 80 63 00
        E 0 90 32 64
        E 0 90 55 64
        E 0 90 61 64
        E 120 80 55 00
        E 0 80 61 00
        E 0 90 61 64
        E 120 80 61 00
        E 0 90 3c 60
        E 0 90 48 64
        E 0 90 49 64
        E 0 90 55 64
        E 0 90 56 64
        E 0 90 61 64
        E 0 90 62 64
        E 120 80 32 00
        E 0 80 3c 00
        E 0 80 48 00
        E 0 80 49 00
        E 0 80 55 00
        E 0 80 56 00
        E 0 80 61 00
        E 0 80 62 00
        E 0 90 61 64
        E 0 90 62 64
        E 120 80 61 00
        E 0 80 62 00
        E 0 90 39 64
        E 0 90 57 64
        E 0 90 63 64
        E 120 80 57 00
        E 0 80 63 00
        E 0 90 63 64
        E 120 80 63 00
        E 0 90 3e 60
        E 0 90 4a 64
        E 0 90 4b 64
        E 0 90 57 64
        E 0 90 58 64
        E 0 90 63 64
        E 0 90 64 64
        E 119 80 39 00
        E 1 80 3e 00
        E 0 80 4a 00
        E 0 80 4b 00
        E 0 80 57 00
        E 0 80 58 00
        E 0 80 63 00
        E 0 80 64 00
        E 0 90 63 64
        E 0 90 64 64
        E 119 90 36 64
        E 1 80 63 00
        E 0 80 64 00
        E 0 90 56 64
        E 0 90 62 64
        E 120 80 56 00
        E 0 80 62 00
        E 0 90 62 64
        E 120 80 62 00
        E 0 90 3d 60
        E 0 90 49 64
        E 0 90 4a 64
        E 0 90 56 64
        E 0 90 57 64
        E 0 90 62 64
        E 0 90 63 64
        E 119 80 36 00
        E 1 80 3d 00
        E 0 80 49 00
        E 0 80 4a 00
        E 0 80 56 00
        E 0 80 57 00
        E 0 80 62 00
        E 0 80 63 00
        E 0 90 62 64
        E 0 90 63 64
        E 119 90 32 64
        E 1 80 62 00
        E 0 80 63 00
        E 0 90 55 64
        E 0 90 61 64
        E 120 80 55 00
        E 0 80 61 00
        E 0 90 61 64
        E 120 80 61 00
        E 0 90 3c 60
        E 0 90 48 64
        E 0 90 49 64
        E 0 90 55 64
        E 0 90 56 64
        E 0 90 61 64
        E 0 90 62 64
        E 119 80 32 00
        E 1 80 3c 00
        E 0 80 48 00
        E 0 80 49 00
        E 0 80 55 00
        E 0 80 56 00
        E 0 80 61 00
        E 0 80 62 00
        E 0 90 61 64
        E 0 90 62 64
        E 120 80 74 00
        E 0 80 61 00
        E 0 80 62 00
        E 0 90 39 64
        E 0 90 57 64
        E 0 90 63 64
        E 120 80 57 00
        E 0 80 63 00
        E 0 90 63 64
        E 120 80 63 00
        E 0 90 3e 60
        E 0 90 4a 64
        E 0 90 4b 64
        E 0 90 57 64
        E 0 90 58 64
        E 0 90 63 64
        E 0 90 64 64
        E 120 80 39 00
        E 0 80 3e 00
        E 0 80 4a 00
        E 0 80 4b 00
        E 0 80 57 00
        E 0 80 58 00
        E 0 80 63 00
        E 0 80 64 00
        E 0 90 63 64
        E 0 90 64 64
        E 120 80 63 00
        E 0 80 64 00
        E 0 90 36 64
        E 0 90 56 64
        E 0 90 62 64
        E 120 80 56 00
        E 0 80 62 00
        E 0 90 62 64
        E 120 80 62 00
        E 0 90 3d 60
        E 0 90 49 64
        E 0 90 4a 64
        E 0 90 56 64
        E 0 90 57 64
        E 0 90 62 64
        E 0 90 63 64
        E 120 80 36 00
        E 0 80 3d 00
        E 0 80 49 00
        E 0 80 4a 00
        E 0 80 56 00
        E 0 80 57 00
        E 0 80 62 00
        E 0 80 63 00
        E 0 90 62 64
        E 0 90 63 64
        E 120 80 62 00
        E 0 80 63 00
        E 0 90 32 64
        E 0 90 55 64
        E 0 90 61 64
        E 120 80 55 00
        E 0 80 61 00
        E 0 90 61 64
        E 120 80 61 00
        E 0 90 3c 60
        E 0 90 48 64
        E 0 90 49 64
        E 0 90 55 64
        E 0 90 56 64
        E 0 90 61 64
        E 0 90 62 64
        E 120 80 32 00
        E 0 80 3c 00
        E 0 80 48 00
        E 0 80 49 00
        E 0 80 55 00
        E 0 80 56 00
        E 0 80 61 00
        E 0 80 62 00
        E 0 90 61 64
        E 0 90 62 64
        E 120 80 61 00
        E 0 80 62 00
        E 0 90 39 64
        E 0 90 57 64
        E 0 90 63 64
        E 120 80 57 00
        E 0 80 63 00
        E 0 90 63 64
        E 120 80 63 00
        E 0 90 3e 60
        E 0 90 4a 64
        E 0 90 4b 64
        E 0 90 57 64
        E 0 90 58 64
        E 0 90 63 64
        E 0 90 64 64
        E 119 80 39 00
        E 1 80 3e 00
        E 0 80 4a 00
        E 0 80 4b 00
        E 0 80 57 00
        E 0 80 58 00
        E 0 80 63 00
        E 0 80 64 00
        E 0 90 63 64
        E 0 90 64 64
        E 119 90 36 64
        E 1 80 63 00
        E 0 80 64 00
        E 0 90 56 64
        E 0 90 62 64
        E 120 80 56 00
        E 0 80 62 00
        E 0 90 62 64
        E 120 80 62 00
        E 0 90 3d 60
        E 0 90 49 64
        E 0 90 4a 64
        E 0 90 56 64
        E 0 90 57 64
        E 0 90 62 64
        E 0 90 63 64
        E 119 80 36 00
        E 1 80 3d 00
        E 0 80 49 00
        E 0 80 4a 00
        E 0 80 56 00
        E 0 80 57 00
        E 0 80 62 00
        E 0 80 63 00
        E 0 90 62 64
        E 0 90 63 64
        E 119 90 32 64
        E 1 80 62 00
        E 0 80 63 00
        E 0 90 55 64
        E 0 90 61 64
        E 120 80 55 00
        E 0 80 61 00
        E 0 90 61 64
        E 120 80 61 00
        E 0 90 3c 60
        E 0 90 48 64
        E 0 90 49 64
        E 0 90 55 64
        E 0 90 56 64
        E 0 90 61 64
        E 0 90 62 64
        E 119 80 32 00
        E 1 80 3c 00
        E 0 80 48 00
        E 0 80 49 00
        E 0 80 55 00
        E 0 80 56 00
        E 0 80 61 00
        E 0 80 62 00
        E 0 90 61 64
        E 0 90 62 64
        E 120 80 61 00
        E 0 80 62 00
        E 0 90 39 64
        E 0 90 57 64
        E 0 90 63 64
        E 120 80 57 00
        E 0 80 63 00
        E 0 90 63 64
        E 120 80 63 00
        E 0 90 3e 60
        E 0 90 4a 64
        E 0 90 4b 64
        E 0 90 57 64
        E 0 90 58 64
        E 0 90 63 64
        E 0 90 64 64
        E 120 80 39 00
        E 0 80 3e 00
        E 0 80 4a 00
        E 0 80 4b 00
        E 0 80 57 00
        E 0 80 58 00
        E 0 80 63 00
        E 0 80 64 00
        E 0 90 63 64
        E 0 90 64 64
        E 120 80 63 00
        E 0 80 64 00
        E 0 90 36 64
        E 0 90 56 64
        E 0 90 62 64
        E 120 80 56 00
        E 0 80 62 00
        E 0 90 62 64
        E 120 80 62 00
        E 0 90 3d 60
        E 0 90 49 64
        E 0 90 4a 64
        E 0 90 56 64
        E 0 90 57 64
        E 0 90 62 64
        E 0 90 63 64
        E 120 80 36 00
        E 0 80 3d 00
        E 0 80 49 00
        E 0 80 4a 00
        E 0 80 56 00
        E 0 80 57 00
        E 0 80 62 00
        E 0 80 63 00
        E 0 90 62 64
        E 0 90 63 64
        E 120 80 62 00
        E 0 80 63 00
        E 0 90 32 64
        E 0 90 55 64
        E 0 90 61 64
        E 120 80 55 00
        E 0 80 61 00
        E 0 90 61 64
        E 120 80 61 00
        E 0 90 3c 60
        E 0 90 48 64
        E 0 90 49 64
        E 0 90 55 64
        E 0 90 56 64
        E 0 90 61 64
        E 0 90 62 64
        E 120 80 32 00
        E 0 80 3c 00
        E 0 80 48 00
        E 0 80 49 00
        E 0 80 55 00
        E 0 80 56 00
        E 0 80 61 00
        E 0 80 62 00
        E 0 90 61 64
        E 0 90 62 64
        E 120 80 61 00
        E 0 80 62 00
        E 0 90 39 64
        E 0 90 57 64
        E 0 90 63 64
        E 120 80 57 00
        E 0 80 63 00
        E 0 90 63 64
        E 120 80 63 00
        E 0 90 3e 60
        E 0 90 4a 64
        E 0 90 4b 64
        E 0 90 57 64
        E 0 90 58 64
        E 0 90 63 64
        E 0 90 64 64
        E 119 80 39 00
        E 1 80 3e 00
        E 0 80 4a 00
        E 0 80 4b 00
        E 0 80 57 00
        E 0 80 58 00
        E 0 80 63 00
        E 0 80 64 00
        E 0 90 63 64
        E 0 90 64 64
        E 119 90 36 64
        E 1 80 63 00
        E 0 80 64 00
        E 0 90 56 64
        E 0 90 62 64
        E 120 80 56 00
        E 0 80 62 00
        E 0 90 62 64
        E 120 80 62 00
        E 0 90 3d 60
        E 0 90 49 64
        E 0 90 4a 64
        E 0 90 56 64
        E 0 90 57 64
        E 0 90 62 64
        E 0 90 63 64
        E 119 80 36 00
        E 1 80 3d 00
        E 0 80 49 00
        E 0 80 4a 00
        E 0 80 56 00
        E 0 80 57 00
        E 0 80 62 00
        E 0 80 63 00
        E 0 90 62 64
        E 0 90 63 64
        E 119 90 32 64
        E 1 80 62 00
        E 0 80 63 00
        E 0 90 55 64
        E 0 90 61 64
        E 120 80 55 00
        E 0 80 61 00
        E 0 90 61 64
        E 120 80 61 00
        E 0 90 3c 60
        E 0 90 48 64
        E 0 90 49 64
        E 0 90 55 64
        E 0 90 56 64
        E 0 90 61 64
        E 0 90 62 64
        E 119 80 32 00
        E 1 80 3c 00
        E 0 80 48 00
        E 0 80 49 00
        E 0 80 55 00
        E 0 80 56 00
        E 0 80 61 00
        E 0 80 62 00
        E 0 90 61 64
        E 0 90 62 64
        E 120 80 61 00
        E 0 80 62 00
        E 0 90 39 64
        E 0 90 57 64
        E 0 90 63 64
        E 120 80 57 00
        E 0 80 63 00
        E 0 90 63 64
        E 120 80 63 00
        E 0 90 3e 60
        E 0 90 4a 64
        E 0 90 4b 64
        E 0 90 57 64
        E 0 90 58 64
        E 0 90 63 64
        E 0 90 64 64
        E 120 80 39 00
        E 0 80 3e 00
        E 0 80 4a 00
        E 0 80 4b 00
        E 0 80 57 00
        E 0 80 58 00
        E 0 80 63 00
        E 0 80 64 00
        E 0 90 63 64
        E 0 90 64 64
        E 120 80 63 00
        E 0 80 64 00
        E 0 90 36 64
        E 0 90 56 64
        E 0 90 62 64
        E 120 80 56 00
        E 0 80 62 00
        E 0 90 62 64
        E 120 80 62 00
        E 0 90 3d 60
        E 0 90 49 64
        E 0 90 4a 64
        E 0 90 56 64
        E 0 90 57 64
        E 0 90 62 64
        E 0 90 63 64
        E 120 80 36 00
        E 0 80 3d 00
        E 0 80 49 00
        E 0 80 4a 00
        E 0 80 56 00
        E 0 80 57 00
        E 0 80 62 00
        E 0 80 63 00
        E 0 90 62 64
        E 0 90 63 64
        E 120 80 62 00
        E 0 80 63 00
        E 0 90 32 64
        E 0 90 55 64
        E 0 90 61 64
        E 120 80 55 00
        E 0 80 61 00
        E 0 90 61 64
        E 120 80 61 00
        E 0 90 3c 60
        E 0 90 48 64
        E 0 90 49 64
        E 0 90 55 64
        E 0 90 56 64
        E 0 90 61 64
        E 0 90 62 64
        E 120 80 32 00
        E 0 80 3c 00
        E 0 80 48 00
        E 0 80 49 00
        E 0 80 55 00
        E 0 80 56 00
        E 0 80 61 00
        E 0 80 62 00
        E 0 90 61 64
        E 0 90 62 64
        E 120 80 61 00
        E 0 80 62 00
        E 0 90 39 64
        E 0 90 57 64
        E 0 90 63 64
        E 120 80 57 00
        E 0 80 63 00
        E 0 90 63 64
        E 120 80 63 00
        E 0 90 3e 60
        E 0 90 4a 64
        E 0 90 4b 64
        E 0 90 57 64
        E 0 90 58 64
        E 0 90 63 64
        E 0 90 64 64
        E 119 80 39 00
        E 1 80 3e 00
        E 0 80 4a 00
        E 0 80 4b 00
        E 0 80 57 00
        E 0 80 58 00
        E 0 80 63 00
        E 0 80 64 00
        E 0 90 63 64
        E 0 90 64 64
        E 119 90 36 64
        E 1 80 63 00
        E 0 80 64 00
        E 0 90 56 64
        E 0 90 62 64
        E 120 80 56 00
        E 0 80 62 00
        E 0 90 62 64
        E 120 80 62 00
        E 0 90 3d 60
        E 0 90 49 64
        E 0 90 4a 64
        E 0 90 56 64
        E 0 90 57 64
        E 0 90 62 64
        E 0 90 63 64
        E 119 80 36 00
        E 1 80 3d 00
        E 0 80 49 00
        E 0 80 4a 00
        E 0 80 56 00
        E 0 80 57 00
        E 0 80 62 00
        E 0 80 63 00
        E 0 90 62 64
        E 0 90 63 64
        E 119 90 32 64
        E 1 80 62 00
        E 0 80 63 00
        E 0 90 55 64
        E 0 90 61 64
        E 120 80 55 00
        E 0 80 61 00
        E 0 90 61 64
        E 120 80 61 00
        E 0 90 3c 60
        E 0 90 48 64
        E 0 90 49 64
        E 0 90 55 64
        E 0 90 56 64
        E 0 90 61 64
        E 0 90 62 64
        E 119 80 32 00
        E 1 80 3c 00
        E 0 80 48 00
        E 0 80 49 00
        E 0 80 55 00
        E 0 80 56 00
        E 0 80 61 00
        E 0 80 62 00
        E 0 90 61 64
        E 0 90 62 64
        E 120 80 61 00
        E 0 80 62 00
        E 0 90 39 64
        E 0 90 57 64
        E 0 90 63 64
        E 120 80 57 00
        E 0 80 63 00
        E 0 90 63 64
        E 120 80 63 00
        E 0 90 3e 60
        E 0 90 4a 64
        E 0 90 4b 64
        E 0 90 57 64
        E 0 90 58 64
        E 0 90 63 64
        E 0 90 64 64
        E 120 80 39 00
        E 0 80 3e 00
        E 0 80 4a 00
        E 0 80 4b 00
        E 0 80 57 00
        E 0 80 58 00
        E 0 80 63 00
        E 0 80 64 00
        E 0 90 63 64
        E 0 90 64 64
        E 120 80 63 00
        E 0 80 64 00
        E 0 90 36 64
        E 0 90 56 64
        E 0 90 62 64
        E 120 80 56 00
        E 0 80 62 00
        E 0 90 62 64
        E 120 80 62 00
        E 0 90 3d 60
        E 0 90 49 64
        E 0 90 4a 64
        E 0 90 56 64
        E 0 90 57 64
        E 0 90 62 64
        E 0 90 63 64
        E 120 80 36 00
        E 0 80 3d 00
        E 0 80 49 00
        E 0 80 4a 00
        E 0 80 56 00
        E 0 80 57 00
        E 0 80 62 00
        E 0 80 63 00
        E 0 90 62 64
        E 0 90 63 64
        E 120 80 62 00
        E 0 80 63 00
        E 0 90 32 64
        E 0 90 55 64
        E 0 90 61 64
        E 120 80 55 00
        E 0 80 61 00
        E 0 90 61 64
        E 120 80 61 00
        E 0 90 3c 60
        E 0 90 48 64
        E 0 90 49 64
        E 0 90 55 64
        E 0 90 56 64
        E 0 90 61 64
        E 0 90 62 64
        E 120 80 32 00
        E 0 80 3c 00
        E 0 80 48 00
        E 0 80 49 00
        E 0 80 55 00
        E 0 80 56 00
        E 0 80 61 00
        E 0 80 62 00
        E 0 90 61 64
        E 0 90 62 64
        E 120 80 61 00
        E 0 80 62 00
        E 0 90 39 64
        E 0 90 57 64
        E 0 90 63 64
        E 120 80 57 00
        E 0 80 63 00
        E 0 90 63 64
        E 120 80 63 00
        E 0 90 3e 60
        E 0 90 4a 64
        E 0 90 4b 64
        E 0 90 57 64
        E 0 90 58 64
        E 0 90 63 64
        E 0 90 64 64
        E 119 80 39 00
        E 1 80 3e 00
        E 0 80 4a 00
        E 0 80 4b 00
        E 0 80 57 00
        E 0 80 58 00
        E 0 80 63 00
        E 0 80 64 00
        E 0 90 63 64
        E 0 90 64 64
        E 119 90 36 64
        E 1 80 63 00
        E 0 80 64 00
        E 0 90 56 64
        E 0 90 62 64
        E 120 80 56 00
        E 0 80 62 00
        E 0 90 62 64
        E 120 80 62 00
        E 0 90 3d 60
        E 0 90 49 64
        E 0 90 4a 64
        E 0 90 56 64
        E 0 90 57 64
        E 0 90 62 64
        E 0 90 63 64
        E 119 80 36 00
        E 1 80 3d 00
        E 0 80 49 00
        E 0 80 4a 00
        E 0 80 56 00
        E 0 80 57 00
        E 0 80 62 00
        E 0 80 63 00
        E 0 90 62 64
        E 0 90 63 64
        E 119 90 32 64
        E 1 80 62 00
        E 0 80 63 00
        E 0 90 55 64
        E 0 90 61 64
        E 120 80 55 00
        E 0 80 61 00
        E 0 90 61 64
        E 120 80 61 00
        E 0 90 3c 60
        E 0 90 48 64
        E 0 90 49 64
        E 0 90 55 64
        E 0 90 56 64
        E 0 90 61 64
        E 0 90 62 64
        E 119 80 32 00
        E 1 80 3c 00
        E 0 80 48 00
        E 0 80 49 00
        E 0 80 55 00
        E 0 80 56 00
        E 0 80 61 00
        E 0 80 62 00
        E 0 90 61 64
        E 0 90 62 64
        E 120 80 61 00
        E 0 80 62 00
        E 0 90 39 64
        E 0 90 57 64
        E 0 90 63 64
        E 120 80 57 00
        E 0 80 63 00
        E 0 90 63 64
        E 120 80 63 00
        E 0 90 3e 60
        E 0 90 4a 64
        E 0 90 4b 64
        E 0 90 57 64
        E 0 90 58 64
        E 0 90 63 64
        E 0 90 64 64
        E 120 80 39 00
        E 0 80 3e 00
        E 0 80 4a 00
        E 0 80 4b 00
        E 0 80 57 00
        E 0 80 58 00
        E 0 80 63 00
        E 0 80 64 00
        E 0 90 63 64
        E 0 90 64 64
        E 120 80 63 00
        E 0 80 64 00
        E 0 90 36 64
        E 0 90 56 64
        E 0 90 62 64
        E 120 80 56 00
        E 0 80 62 00
        E 0 90 62 64
        E 120 80 62 00
        E 0 90 3d 60
        E 0 90 49 64
        E 0 90 4a 64
        E 0 90 56 64
        E 0 90 57 64
        E 0 90 62 64
        E 0 90 63 64
        E 120 80 36 00
        E 0 80 3d 00
        E 0 80 49 00
        E 0 80 4a 00
        E 0 80 56 00
        E 0 80 57 00
        E 0 80 62 00
        E 0 80 63 00
        E 0 90 62 64
        E 0 90 63 64
        E 120 80 62 00
        E 0 80 63 00
        E 0 90 32 64
        E 0 90 55 64
        E 0 90 61 64
        E 120 80 55 00
        E 0 80 61 00
        E 0 90 61 64
        E 120 80 61 00
        E 0 90 3c 60
        E 0 90 48 64
        E 0 90 49 64
        E 0 90 55 64
        E 0 90 56 64
        E 0 90 61 64
        E 0 90 62 64
        E 120 80 32 00
        E 0 80 3c 00
        E 0 80 48 00
        E 0 80 49 00
        E 0 80 55 00
        E 0 80 56 00
        E 0 80 61 00
        E 0 80 62 00
        E 0 90 61 64
        E 0 90 62 64
        E 120 80 61 00
        E 0 80 62 00
        E 0 90 39 64
        E 0 90 57 64
        E 0 90 63 64
        E 0 90 74 64
        E 120 80 57 00
        E 0 80 63 00
        E 0 90 63 64
        E 120 80 63 00
        E 0 90 3e 60
        E 0 90 4a 64
        E 0 90 4b 64
        E 0 90 57 64
        E 0 90 58 64
        E 0 90 63 64
        E 0 90 64 64
        E 119 80 39 00
        E 1 80 3e 00
        E 0 80 4a 00
        E 0 80 4b 00
        E 0 80 57 00
        E 0 80 58 00
        E 0 80 63 00
        E 0 80 64 00
        E 0 90 63 64
        E 0 90 64 64
        E 119 90 36 64
        E 1 80 63 00
        E 0 80 64 00
        E 0 90 56 64
        E 0 90 62 64
        E 120 80 56 00
        E 0 80 62 00
        E 0 90 62 64
        E 120 80 62 00
        E 0 90 3d 60
        E 0 90 49 64
        E 0 90 4a 64
        E 0 90 56 64
        E 0 90 57 64
        E 0 90 62 64
        E 0 90 63 64
        E 119 80 36 00
        E 1 80 3d 00
        E 0 80 49 00
        E 0 80 4a 00
        E 0 80 56 00
        E 0 80 57 00
        E 0 80 62 00
        E 0 80 63 00
        E 0 90 62 64
        E 0 90 63 64
        E 119 90 32 64
        E 1 80 62 00
        E 0 80 63 00
        E 0 90 55 64
        E 0 90 61 64
        E 120 80 55 00
        E 0 80 61 00
        E 0 90 61 64
        E 120 80 61 00
        E 0 90 3c 60
        E 0 90 48 64
        E 0 90 49 64
        E 0 90 55 64
        E 0 90 56 64
        E 0 90 61 64
        E 0 90 62 64
        E 119 80 32 00
        E 1 80 3c 00
        E 0 80 48 00
        E 0 80 49 00
        E 0 80 55 00
        E 0 80 56 00
        E 0 80 61 00
        E 0 80 62 00
        E 0 90 61 64
        E 0 90 62 64
        E 120 80 61 00
        E 0 80 62 00
        E 0 90 39 64
        E 0 90 57 64
        E 0 90 63 64
        E 120 80 74 00
        E 0 80 57 00
        E 0 80 63 00
        E 0 90 63 64
        E 120 80 63 00
        E 0 90 3e 60
        E 0 90 4a 64
        E 0 90 4b 64
        E 0 90 57 64
        E 0 90 58 64
        E 0 90 63 64
        E 0 90 64 64
        E 120 80 39 00
        E 0 80 3e 00
        E 0 80 4a 00
        E 0 80 4b 00
        E 0 80 57 00
        E 0 80 58 00
        E 0 80 63 00
        E 0 80 64 00
        E 0 90 63 64
        E 0 90 64 64
        E 120 80 63 00
        E 0 80 64 00
        E 0 90 36 64
        E 0 90 56 64
        E 0 90 62 64
        E 120 80 56 00
        E 0 80 62 00
        E 0 90 62 64
        E 120 80 62 00
        E 0 90 3d 60
        E 0 90 49 64
        E 0 90 4a 64
        E 0 90 56 64
        E 0 90 57 64
        E 0 90 62 64
        E 0 90 63 64
        E 120 80 36 00
        E 0 80 3d 00
        E 0 80 49 00
        E 0 80 4a 00
        E 0 80 56 00
        E 0 80 57 00
        E 0 80 62 00
        E 0 80 63 00
        E 0 90 62 64
        E 0 90 63 64
        E 120 80 62 00
        E 0 80 63 00
        E 0 90 32 64
        E 0 90 55 64
        E 0 90 61 64
        E 120 80 55 00
        E 0 80 61 00
        E 0 90 61 64
        E 120 80 61 00
        E 0 90 3c 60
        E 0 90 48 64
        E 0 90 49 64
        E 0 90 55 64
        E 0 90 56 64
        E 0 90 61 64
        E 0 90 62 64
        E 120 80 32 00
        E 0 80 3c 00
        E 0 80 48 00
        E 0 80 49 00
        E 0 80 55 00
        E 0 80 56 00
        E 0 80 61 00
        E 0 80 62 00
        E 0 90 61 64
        E 0 90 62 64
        E 120 80 61 00
        E 0 80 62 00
        E 0 90 39 64
        E 0 90 57 64
        E 0 90 63 64
        E 120 80 57 00
        E 0 80 63 00
        E 0 90 63 64
        E 120 80 63 00
        E 0 90 3e 60
        E 0 90 4a 64
        E 0 90 4b 64
        E 0 90 57 64
        E 0 90 58 64
        E 0 90 63 64
        E 0 90 64 64
        E 119 80 39 00
        E 1 80 3e 00
        E 0 80 4a 00
        E 0 80 4b 00
        E 0 80 57 00
        E 0 80 58 00
        E 0 80 63 00
        E 0 80 64 00
        E 0 90 63 64
        E 0 90 64 64
        E 119 90 36 64
        E 1 80 63 00
        E 0 80 64 00
        E 0 90 56 64
        E 0 90 62 64
        E 120 80 56 00
        E 0 80 62 00
        E 0 90 62 64
        E 120 80 62 00
        E 0 90 3d 60
        E 0 90 49 64
        E 0 90 4a 64
        E 0 90 56 64
        E 0 90 57 64
        E 0 90 62 64
        E 0 90 63 64
        E 119 80 36 00
        E 1 80 3d 00
        E 0 80 49 00
        E 0 80 4a 00
        E 0 80 56 00
        E 0 80 57 00
        E 0 80 62 00
        E 0 80 63 00
        E 0 90 62 64
        E 0 90 63 64
        E 119 90 32 64
        E 1 80 62 00
        E 0 80 63 00
        E 0 90 55 64
        E 0 90 61 64
        E 120 80 55 00
        E 0 80 61 00
        E 0 90 61 64
        E 120 80 61 00
        E 0 90 3c 60
        E 0 90 48 64
        E 0 90 49 64
        E 0 90 55 64
        E 0 90 56 64
        E 0 90 61 64
        E 0 90 62 64
        E 119 80 32 00
        E 1 80 3c 00
        E 0 80 48 00
        E 0 80 49 00
        E 0 80 55 00
        E 0 80 56 00
        E 0 80 61 00
        E 0 80 62 00
        E 0 90 61 64
        E 0 90 62 64
        E 120 80 61 00
        E 0 80 62 00
        E 0 90 39 64
        E 0 90 57 64
        E 0 90 63 64
        E 120 80 57 00
        E 0 80 63 00
        E 0 90 63 64
        E 120 80 63 00
        E 0 90 3e 60
        E 0 90 4a 64
        E 0 90 4b 64
        E 0 90 57 64
        E 0 90 58 64
        E 0 90 63 64
        E 0 90 64 64
        E 120 80 39 00
        E 0 80 3e 00
        E 0 80 4a 00
        E 0 80 4b 00
        E 0 80 57 00
        E 0 80 58 00
        E 0 80 63 00
        E 0 80 64 00
        E 0 90 63 64
        E 0 90 64 64
        E 120 80 63 00
        E 0 80 64 00
        E 0 90 36 64
        E 0 90 56 64
        E 0 90 62 64
        E 120 80 56 00
        E 0 80 62 00
        E 0 90 62 64
        E 120 80 62 00
        E 0 90 3d 60
        E 0 90 49 64
        E 0 90 4a 64
        E 0 90 56 64
        E 0 90 57 64
        E 0 90 62 64
        E 0 90 63 64
        E 120 80 36 00
        E 0 80 3d 00
        E 0 80 49 00
        E 0 80 4a 00
        E 0 80 56 00
        E 0 80 57 00
        E 0 80 62 00
        E 0 80 63 00
        E 0 90 62 64
        E 0 90 63 64
        E 120 80 62 00
        E 0 80 63 00
        E 0 90 32 64
        E 0 90 55 64
        E 0 90 61 64
        E 120 80 55 00
        E 0 80 61 00
        E 0 90 61 64
        E 120 80 61 00
        E 0 90 3c 60
        E 0 90 48 64
        E 0 90 49 64
        E 0 90 55 64
        E 0 90 56 64
        E 0 90 61 64
        E 0 90 62 64
        E 120 80 32 00
        E 0 80 3c 00
        E 0 80 48 00
        E 0 80 49 00
        E 0 80 55 00
        E 0 80 56 00
        E 0 80 61 00
        E 0 80 62 00
        E 0 90 61 64
        E 0 90 62 64
        E 120 80 61 00
        E 0 80 62 00
        E 0 90 39 64
        E 0 90 57 64
        E 0 90 63 64
        E 120 80 57 00
        E 0 80 63 00
        E 0 90 63 64
        E 120 80 63 00
        E 0 90 3e 60
        E 0 90 4a 64
        E 0 90 4b 64
        E 0 90 57 64
        E 0 90 58 64
        E 0 90 63 64
        E 0 90 64 64
        E 119 80 39 00
        E 1 80 3e 00
        E 0 80 4a 00
        E 0 80 4b 00
        E 0 80 57 00
        E 0 80 58 00
        E 0 80 63 00
        E 0 80 64 00
        E 0 90 63 64
        E 0 90 64 64
        E 119 90 36 64
        E 1 80 63 00
        E 0 80 64 00
        E 0 90 56 64
        E 0 90 62 64
        E 120 80 56 00
        E 0 80 62 00
        E 0 90 62 64
        E 120 80 62 00
        E 0 90 3d 60
        E 0 90 49 64
        E 0 90 4a 64
        E 0 90 56 64
        E 0 90 57 64
        E 0 90 62 64
        E 0 90 63 64
        E 119 80 36 00
        E 1 80 3d 00
        E 0 80 49 00
        E 0 80 4a 00
        E 0 80 56 00
        E 0 80 57 00
        E 0 80 62 00
        E 0 80 63 00
        E 0 90 62 64
        E 0 90 63 64
        E 119 90 32 64
        E 1 80 62 00
        E 0 80 63 00
        E 0 90 55 64
        E 0 90 61 64
        E 120 80 55 00
        E 0 80 61 00
        E 0 90 61 64
        E 120 80 61 00
        E 0 90 3c 60
        E 0 90 48 64
        E 0 90 49 64
        E 0 90 55 64
        E 0 90 56 64
        E 0 90 61 64
        E 0 90 62 64
        E 119 80 32 00
        E 1 80 3c 00
        E 0 80 48 00
        E 0 80 49 00
        E 0 80 55 00
        E 0 80 56 00
        E 0 80 61 00
        E 0 80 62 00
        E 0 90 61 64
        E 0 90 62 64
        E 120 80 61 00
        E 0 80 62 00
        E 0 90 39 64
        E 0 90 57 64
        E 0 90 63 64
        E 120 80 57 00
        E 0 80 63 00
        E 0 90 63 64
        E 120 80 63 00
        E 0 90 3e 60
        E 0 90 4a 64
        E 0 90 4b 64
        E 0 90 57 64
        E 0 90 58 64
        E 0 90 63 64
        E 0 90 64 64
        E 120 80 39 00
        E 0 80 3e 00
        E 0 80 4a 00
        E 0 80 4b 00
        E 0 80 57 00
        E 0 80 58 00
        E 0 80 63 00
        E 0 80 64 00
        E 0 90 63 64
        E 0 90 64 64
        E 120 80 63 00
        E 0 80 64 00
        E 0 90 36 64
        E 0 90 56 64
        E 0 90 62 64
        E 120 80 56 00
        E 0 80 62 00
        E 0 90 62 64
        E 120 80 62 00
        E 0 90 3d 60
        E 0 90 49 64
        E 0 90 4a 64
        E 0 90 56 64
        E 0 90 57 64
        E 0 90 62 64
        E 0 90 63 64
        E 120 80 36 00
        E 0 80 3d 00
        E 0 80 49 00
        E 0 80 4a 00
        E 0 80 56 00
        E 0 80 57 00
        E 0 80 62 00
        E 0 80 63 00
        E 0 90 62 64
        E 0 90 63 64
        E 120 80 62 00
        E 0 80 63 00
        E 0 90 32 64
        E 0 90 55 64
        E 0 90 61 64
        E 120 80 55 00
        E 0 80 61 00
        E 0 90 61 64
        E 120 80 61 00
        E 0 90 3c 60
        E 0 90 48 64
        E 0 90 49 64
        E 0 90 55 64
        E 0 90 56 64
        E 0 90 61 64
        E 0 90 62 64
        E 120 80 32 00
        E 0 80 3c 00
        E 0 80 48 00
        E 0 80 49 00
        E 0 80 55 00
        E 0 80 56 00
        E 0 80 61 00
        E 0 80 62 00
        E 0 90 61 64
        E 0 90 62 64
        E 120 80 61 00
        E 0 80 62 00
        E 0 90 39 64
        E 0 90 57 64
        E 0 90 63 64
        E 120 80 57 00
        E 0 80 63 00
        E 0 90 63 64
        E 120 80 63 00
        E 0 90 3e 60
        E 0 90 4a 64
        E 0 90 4b 64
        E 0 90 57 64
        E 0 90 58 64
        E 0 90 63 64
        E 0 90 64 64
        E 119 80 39 00
        E 1 80 3e 00
        E 0 80 4a 00
        E 0 80 4b 00
        E 0 80 57 00
        E 0 80 58 00
        E 0 80 63 00
        E 0 80 64 00
        E 0 90 63 64
        E 0 90 64 64
        E 119 90 36 64
        E 1 80 63 00
        E 0 80 64 00
        E 0 90 56 64
        E 0 90 62 64
        E 120 80 56 00
        E 0 80 62 00
        E 0 90 62 64
        E 120 80 62 00
        E 0 90 3d 60
        E 0 90 49 64
        E 0 90 4a 64
        E 0 90 56 64
        E 0 90 57 64
        E 0 90 62 64
        E 0 90 63 64
        E 119 80 36 00
        E 1 80 3d 00
        E 0 80 49 00
        E 0 80 4a 00
        E 0 80 56 00
        E 0 80 57 00
        E 0 80 62 00
        E 0 80 63 00
        E 0 90 62 64
        E 0 90 63 64
        E 119 90 32 64
        E 1 80 62 00
        E 0 80 63 00
        E 0 90 55 64
        E 0 90 61 64
        E 120 80 55 00
        E 0 80 61 00
        E 0 90 61 64
        E 120 80 61 00
        E 0 90 3c 60
        E 0 90 48 64
        E 0 90 49 64
        E 0 90 55 64
        E 0 90 56 64
        E 0 90 61 64
        E 0 90 62 64
        E 119 80 32 00
        E 1 80 3c 00
        E 0 80 48 00
        E 0 80 49 00
        E 0 80 55 00
        E 0 80 56 00
        E 0 80 61 00
        E 0 80 62 00
        E 0 90 61 64
        E 0 90 62 64
        E 120 80 61 00
        E 0 80 62 00
        E 0 90 39 64
        E 0 90 57 64
        E 0 90 63 64
        E 120 80 57 00
        E 0 80 63 00
        E 0 90 63 64
        E 120 80 63 00
        E 0 90 3e 60
        E 0 90 4a 64
        E 0 90 4b 64
        E 0 90 57 64
        E 0 90 58 64
        E 0 90 63 64
        E 0 90 64 64
        E 120 80 39 00
        E 0 80 3e 00
        E 0 80 4a 00
        E 0 80 4b 00
        E 0 80 57 00
        E 0 80 58 00
        E 0 80 63 00
        E 0 80 64 00
        E 0 90 63 64
        E 0 90 64 64
        E 120 80 63 00
        E 0 80 64 00
        E 0 90 36 64
        E 0 90 56 64
        E 0 90 62 64
        E 120 80 56 00
        E 0 80 62 00
        E 0 90 62 64
        E 120 80 62 00
        E 0 90 3d 60
        E 0 90 49 64
        E 0 90 4a 64
        E 0 90 56 64
        E 0 90 57 64
        E 0 90 62 64
        E 0 90 63 64
        E 120 80 36 00
        E 0 80 3d 00
        E 0 80 49 00
        E 0 80 4a 00
        E 0 80 56 00
        E 0 80 57 00
        E 0 80 62 00
        E 0 80 63 00
        E 0 90 62 64
        E 0 90 63 64
        E 120 80 62 00
        E 0 80 63 00
        E 0 90 32 64
        E 0 90 55 64
        E 0 90 61 64
        E 120 80 55 00
        E 0 80 61 00
        E 0 90 61 64
        E 120 80 61 00
        E 0 90 3c 60
        E 0 90 48 64
        E 0 90 49 64
        E 0 90 55 64
        E 0 90 56 64
        E 0 90 61 64
        E 0 90 62 64
        E 120 80 32 00
        E 0 80 3c 00
        E 0 80 48 00
        E 0 80 49 00
        E 0 80 55 00
        E 0 80 56 00
        E 0 80 61 00
        E 0 80 62 00
        E 0 90 61 64
        E 0 90 62 64
        E 120 80 61 00
        E 0 80 62 00
        E 0 90 39 64
        E 0 90 57 64
        E 0 90 63 64
        E 120 80 57 00
        E 0 80 63 00
        E 0 90 63 64
        E 120 80 63 00
        E 0 90 3e 60
        E 0 90 4a 64
        E 0 90 4b 64
        E 0 90 57 64
        E 0 90 58 64
        E 0 90 63 64
        E 0 90 64 64
        E 119 80 39 00
        E 1 80 3e 00
        E 0 80 4a 00
        E 0 80 4b 00
        E 0 80 57 00
        E 0 80 58 00
        E 0 80 63 00
        E 0 80 64 00
        E 0 90 63 64
        E 0 90 64 64
        E 119 90 36 64
        E 1 80 63 00
        E 0 80 64 00
        E 0 90 56 64
        E 0 90 62 64
        E 120 80 56 00
        E 0 80 62 00
        E 0 90 62 64
        E 120 80 62 00
        E 0 90 3d 60
        E 0 90 49 64
        E 0 90 4a 64
        E 0 90 56 64
        E 0 90 57 64
        E 0 90 62 64
        E 0 90 63 64
        E 119 80 36 00
        E 1 80 3d 00
        E 0 80 49 00
        E 0 80 4a 00
        E 0 80 56 00
        E 0 80 57 00
        E 0 80 62 00
        E 0 80 63 00
        E 0 90 62 64
        E 0 90 63 64
        E 119 90 32 64
        E 1 80 62 00
        E 0 80 63 00
        E 0 90 55 64
        E 0 90 61 64
        E 120 80 55 00
        E 0 80 61 00
        E 0 90 61 64
        E 120 80 61 00
        E 0 90 3c 60
        E 0 90 48 64
        E 0 90 49 64
        E 0 90 55 64
        E 0 90 56 64
        E 0 90 61 64
        E 0 90 62 64
        E 119 80 32 00
        E 1 80 3c 00
        E 0 80 48 00
        E 0 80 49 00
        E 0 80 55 00
        E 0 80 56 00
        E 0 80 61 00
        E 0 80 62 00
        E 0 90 61 64
        E 0 90 62 64
        E 120 80 61 00
        E 0 80 62 00
        E 0 90 39 64
        E 0 90 57 64
        E 0 90 63 64
        E 120 80 57 00
        E 0 80 63 00
        E 0 90 63 64
        E 120 80 63 00
        E 0 90 3e 60
        E 0 90 4a 64
        E 0 90 4b 64
        E 0 90 57 64
        E 0 90 58 64
        E 0 90 63 64
        E 0 90 64 64
        E 120 80 39 00
        E 0 80 3e 00
        E 0 80 4a 00
        E 0 80 4b 00
        E 0 80 57 00
        E 0 80 58 00
        E 0 80 63 00
        E 0 80 64 00
        E 0 90 63 64
        E 0 90 64 64
        E 120 80 63 00
        E 0 80 64 00
        E 0 90 36 64
        E 0 90 56 64
        E 0 90 62 64
        E 120 80 56 00
        E 0 80 62 00
        E 0 90 62 64
        E 120 80 62 00
        E 0 90 3d 60
        E 0 90 49 64
        E 0 90 4a 64
        E 0 90 56 64
        E 0 90 57 64
        E 0 90 62 64
        E 0 90 63 64
        E 120 80 36 00
        E 0 80 3d 00
        E 0 80 49 00
        E 0 80 4a 00
        E 0 80 56 00
        E 0 80 57 00
        E 0 80 62 00
        E 0 80 63 00
        E 0 90 62 64
        E 0 90 63 64
        E 120 80 62 00
        E 0 80 63 00
        E 0 90 32 64
        E 0 90 55 64
        E 0 90 61 64
        E 120 80 55 00
        E 0 80 61 00
        E 0 90 61 64
        E 120 80 61 00
        E 0 90 3c 60
        E 0 90 48 64
        E 0 90 49 64
        E 0 90 55 64
        E 0 90 56 64
        E 0 90 61 64
        E 0 90 62 64
        E 120 80 32 00
        E 0 80 3c 00
        E 0 80 48 00
        E 0 80 49 00
        E 0 80 55 00
        E 0 80 56 00
        E 0 80 61 00
        E 0 80 62 00
        E 0 90 61 64
        E 0 90 62 64
        E 120 80 61 00
        E 0 80 62 00
        E 0 90 39 64
        E 0 90 57 64
        E 0 90 63 64
        E 120 80 57 00
        E 0 80 63 00
        E 0 90 63 64
        E 120 80 63 00
        E 0 90 3e 60
        E 0 90 4a 64
        E 0 90 4b 64
        E 0 90 57 64
        E 0 90 58 64
        E 0 90 63 64
        E 0 90 64 64
        E 119 80 39 00
        E 1 80 3e 00
        E 0 80 4a 00
        E 0 80 4b 00
        E 0 80 57 00
        E 0 80 58 00
        E 0 80 63 00
        E 0 80 64 00
        E 0 90 63 64
        E 0 90 64 64
        E 119 90 36 64
        E 1 80 63 00
        E 0 80 64 00
        E 0 90 56 64
        E 0 90 62 64
        E 120 80 56 00
        E 0 80 62 00
        E 0 90 62 64
        E 120 80 62 00
        E 0 90 3d 60
        E 0 90 49 64
        E 0 90 4a 64
        E 0 90 56 64
        E 0 90 57 64
        E 0 90 62 64
        E 0 90 63 64
        E 119 80 36 00
        E 1 80 3d 00
        E 0 80 49 00
        E 0 80 4a 00
        E 0 80 56 00
        E 0 80 57 00
        E 0 80 62 00
        E 0 80 63 00
        E 0 90 62 64
        E 0 90 63 64
        E 119 90 32 64
        E 1 80 62 00
        E 0 80 63 00
        E 0 90 55 64
        E 0 90 61 64
        E 120 80 55 00
        E 0 80 61 00
        E 0 90 61 64
        E 120 80 61 00
        E 0 90 3c 60
        E 0 90 48 64
        E 0 90 49 64
        E 0 90 55 64
        E 0 90 56 64
        E 0 90 61 64
        E 0 90 62 64
        E 119 80 32 00
        E 1 80 3c 00
        E 0 80 48 00
        E 0 80 49 00
        E 0 80 55 00
        E 0 80 56 00
        E 0 80 61 00
        E 0 80 62 00
        E 0 90 61 64
        E 0 90 62 64
        E 120 80 61 00
        E 0 80 62 00
        E 0 90 39 64
        E 0 90 57 64
        E 0 90 63 64
        E 120 80 57 00
        E 0 80 63 00
        E 0 90 63 64
        E 120 80 63 00
        E 0 90 3e 60
        E 0 90 4a 64
        E 0 90 4b 64
        E 0 90 57 64
        E 0 90 58 64
        E 0 90 63 64
        E 0 90 64 64
        E 120 80 39 00
        E 0 80 3e 00
        E 0 80 4a 00
        E 0 80 4b 00
        E 0 80 57 00
        E 0 80 58 00
        E 0 80 63 00
        E 0 80 64 00
        E 0 90 63 64
        E 0 90 64 64
        E 120 80 63 00
        E 0 80 64 00
        E 0 90 36 64
        E 0 90 56 64
        E 0 90 62 64
        E 120 80 56 00
        E 0 80 62 00
        E 0 90 62 64
        E 120 80 62 00
        E 0 90 3d 60
        E 0 90 49 64
        E 0 90 4a 64
        E 0 90 56 64
        E 0 90 57 64
        E 0 90 62 64
        E 0 90 63 64
        E 120 80 36 00
        E 0 80 3d 00
        E 0 80 49 00
        E 0 80 4a 00
        E 0 80 56 00
        E 0 80 57 00
        E 0 80 62 00
        E 0 80 63 00
        E 0 90 62 64
        E 0 90 63 64
        E 120 80 62 00
        E 0 80 63 00
        E 0 90 32 64
        E 0 90 55 64
        E 0 90 61 64
        E 120 80 55 00
        E 0 80 61 00
        E 0 90 61 64
        E 120 80 61 00
        E 0 90 3c 60
        E 0 90 48 64
        E 0 90 49 64
        E 0 90 55 64
        E 0 90 56 64
        E 0 90 61 64
        E 0 90 62 64
        E 120 80 32 00
        E 0 80 3c 00
        E 0 80 48 00
        E 0 80 49 00
        E 0 80 55 00
        E 0 80 56 00
        E 0 80 61 00
        E 0 80 62 00
        E 0 90 61 64
        E 0 90 62 64
        E 120 80 61 00
        E 0 80 62 00
        E 0 90 39 64
        E 0 90 57 64
        E 0 90 63 64
        E 120 80 57 00
        E 0 80 63 00
        E 0 90 63 64
        E 120 80 63 00
        E 0 90 3e 60
        E 0 90 4a 64
        E 0 90 4b 64
        E 0 90 57 64
        E 0 90 58 64
        E 0 90 63 64
        E 0 90 64 64
        E 119 80 39 00
        E 1 80 3e 00
        E 0 80 4a 00
        E 0 80 4b 00
        E 0 80 57 00
        E 0 80 58 00
        E 0 80 63 00
        E 0 80 64 00
        E 0 90 63 64
        E 0 90 64 64
        E 119 90 36 64
        E 1 80 63 00
        E 0 80 64 00
        E 0 90 56 64
        E 0 90 62 64
        E 120 80 56 00
        E 0 80 62 00
        E 0 90 62 64
        E 120 80 62 00
        E 0 90 3d 60
        E 0 90 49 64
        E 0 90 4a 64
        E 0 90 56 64
        E 0 90 57 64
        E 0 90 62 64
        E 0 90 63 64
        E 119 80 36 00
        E 1 80 3d 00
        E 0 80 49 00
        E 0 80 4a 00
        E 0 80 56 00
        E 0 80 57 00
        E 0 80 62 00
        E 0 80 63 00
        E 0 90 62 64
        E 0 90 63 64
        E 119 90 32 64
        E 1 80 62 00
        E 0 80 63 00
        E 0 90 55 64
        E 0 90 61 64
        E 120 80 55 00
        E 0 80 61 00
        E 0 90 61 64
        E 120 80 61 00
        E 0 90 3c 60
        E 0 90 48 64
        E 0 90 49 64
        E 0 90 55 64
        E 0 90 56 64
        E 0 90 61 64
        E 0 90 62 64
        E 119 80 32 00
        E 1 80 3c 00
        E 0 80 48 00
        E 0 80 49 00
        E 0 80 55 00
        E 0 80 56 00
        E 0 80 61 00
        E 0 80 62 00
        E 0 90 61 64
        E 0 90 62 64
        E 120 80 61 00
        E 0 80 62 00
        <X 120 0
          /wFbaWRsZV9yZWFsdGltZV0=
        >
        E 2760 b0 7b 00
        GUID {4D1172A2-0185-4896-A755-9ED58F04AD5D}
        IGNTEMPO 0 120.00000000 4 4
        SRCCOLOR 61
        VELLANE 132 128 60
        COLORMAP "C:\Program Files\REAPER (x64)\Data\color_maps\rockband_guitarbass.png"
        CFGEDITVIEW -8909.328748 7.742543 0 12 0 0 0
        CFGEDIT 1 1 0 1 1 0 1 1 1 1 1 0.12500000 53 44 1253 718 0 2 1 1 0.00000000 0 1 1 0 0.500000 0 0 1.000000 64
        KEYSNAP 0 7 "102030050700" 0 "Pentatonic"
        EVTFILTER 0 -1 -1 -1 -1 0 1 0 0 -1.00000000 -1.00000000
      >
    >
  >
  <TRACK '{0516B1BC-5FAF-4C46-9843-70DCD978F071}'
    NAME "PART VOCALS"
    PEAKCOL 16576
    BEAT -1
    AUTOMODE 0
    VOLPAN 1.00000000000000 0.00000000000000 -1.00000000000000 -1.00000000000000 1.00000000000000
    MUTESOLO 0 0 0
    IPHASE 0
    ISBUS 1 1
    BUSCOMP 0 0
    SHOWINMIX 1 0.666700 0.500000 1 0.500000 -1 -1 -1
    FREEMODE 0
    SEL 1
    REC 0 0 0 0 0 0 0
    VU 2
    TRACKHEIGHT 0 0
    INQ 0 0 0 0.5000000000 100 0 0 100
    NCHAN 2
    FX 1
    TRACKID {0516B1BC-5FAF-4C46-9843-70DCD978F071}
    PERF 0
    MIDIOUT -1
    <MIDINOTENAMES
      0 116 "OVERDRIVE"
      0 115 "----"
      0 105 "Phrase Marker"
      0 104 "----"
      0 97 "Non-Displayed Percussion"
      0 96 "Displayed Percussion"
      0 95 "----"
      0 84 "C6 (Unused Highest Note)"
      0 83 "B5"
      0 82 "A#4"
      0 81 "A4"
      0 80 "G#4"
      0 79 "G4"
      0 78 "F#4"
      0 77 "F4"
      0 76 "E4"
      0 75 "D#4"
      0 74 "D4"
      0 73 "C#4"
      0 72 "C4"
      0 71 "B3"
      0 70 "A#3"
      0 69 "A3"
      0 68 "G#3"
      0 67 "G3"
      0 66 "F#3"
      0 65 "F3"
      0 64 "E3"
      0 63 "D#3"
      0 62 "D3"
      0 61 "C#3"
      0 60 "C3"
      0 59 "B2"
      0 58 "A#2"
      0 57 "A2"
      0 56 "G#2"
      0 55 "G2"
      0 54 "F#2"
      0 53 "F2"
      0 52 "E2"
      0 51 "D#2"
      0 50 "D2"
      0 49 "C#2"
      0 48 "C2"
      0 47 "B1"
      0 46 "A#1"
      0 45 "A1"
      0 44 "G#1"
      0 43 "G1"
      0 42 "F#1"
      0 41 "F1"
      0 40 "E1"
      0 39 "D#1"
      0 38 "D1"
      0 37 "C#1"
      0 36 "Lowest Note C1"
      0 2 "---"
      0 1 "Lyric Shift"
      0 0 "Range Shift"
    >
    MAINSEND 1 0
    <FXCHAIN
      SHOW 0
      LASTSEL 0
      DOCKED 0
    >
    <ITEM
      POSITION 0.00000000000000
      SNAPOFFS 0.00000000000000
      LENGTH 145.04278911564626
      LOOP 0
      ALLTAKES 0
      SEL 1
      FADEIN 1 0.000000 0.000000 1 0
      FADEOUT 1 0.000000 0.000000 1 0
      MUTE 0
      IGUID {2B5CACFB-B5D3-45ED-A7F7-E1744075D994}
      IID 4
      NAME "PART VOCALS"
      VOLPAN 1.000000 0.000000 1.000000 -1.000000
      SOFFS 0.00000000000000 0.00000000000000
      PLAYRATE 1.00000000000000 1 0.00000000000000 -1
      CHANMODE 0
      GUID {20AB3868-4E92-4C59-9ABD-24A236CC410B}
      <SOURCE MIDI
        HASDATA 1 480 QN
        POOLEDEVTS {3A8B7D88-E353-4259-99C9-A5FCA18F2823}
        <X 0 0
          /wNQQVJUIFZPQ0FMUw==
        >
        <X 2880 0
          /wFbaWRsZV0=
        >
        <X 28320 0
          /wFbcGxheV0=
        >
        <X 0 0
          /wFbaW50ZW5zZV0=
        >
        E 0 90 69 64
        E 0 90 74 64
        <X 480 0
          /wXK
        >
        E 0 90 39 64
        E 270 80 39 00
        <X 90 0
          /wVtby0=
        >
        E 0 90 37 64
        E 90 80 37 00
        <X 30 0
          /wVyZS0=
        >
        E 0 90 37 64
        E 90 80 37 00
        <X 30 0
          /wVuYQ==
        >
        E 0 90 37 64
        E 150 80 37 00
        <X 90 0
          /wVxdWVt
        >
        E 0 90 37 64
        E 90 80 37 00
        <X 30 0
          /wV0ZW0t
        >
        E 0 90 40 64
        E 180 80 40 00
        <X 30 0
          /wVwZS0=
        >
        E 0 90 40 64
        E 180 80 40 00
        <X 60 0
          /wVyb3U=
        >
        E 0 90 3e 64
        E 270 80 3e 00
        E 60 90 01 64
        E 30 80 01 00
        <X 30 0
          /wVjaS0=
        >
        E 0 90 3c 64
        E 90 80 3c 00
        <X 30 0
          /wVnYS0=
        >
        E 0 90 40 64
        E 90 80 40 00
        <X 30 0
          /wVuYQ==
        >
        E 0 90 40 64
        E 120 80 40 00
        <X 120 0
          /wVxdWVt
        >
        E 0 90 3e 64
        E 180 80 3e 00
        <X 60 0
          /wV0ZW0t
        >
        E 0 90 3e 64
        E 150 80 3e 00
        <X 60 0
          /wVwZS0=
        >
        E 0 90 3c 64
        E 90 80 3c 00
        <X 60 0
          /wVyb3U=
        >
        E 0 90 3c 64
        E 300 80 69 00
        E 0 80 74 00
        E 0 80 3c 00
        E 0 90 69 64
        <X 65 0
          /wVP
        >
        E 0 90 37 64
        E 90 80 37 00
        <X 25 0
          /wVjaGVpLQ==
        >
        E 0 90 3c 64
        E 90 80 3c 00
        <X 30 0
          /wVybw==
        >
        E 0 90 3c 64
        E 210 80 3c 00
        <X 30 0
          /wVkbw==
        >
        E 0 90 3b 64
        E 90 80 3b 00
        <X 30 0
          /wVjcmEt
        >
        E 0 90 3b 64
        E 150 80 3b 00
        <X 90 0
          /wV2bw==
        >
        E 0 90 39 64
        E 960 80 39 00
        E 240 80 69 00
        E 480 90 69 64
        <X 360 0
          /wVDaS0=
        >
        E 0 90 37 64
        E 90 80 37 00
        <X 30 0
          /wVnYS0=
        >
        E 0 90 37 64
        E 89 80 37 00
        <X 30 0
          /wVuYQ==
        >
        E 0 90 37 64
        E 150 80 37 00
        <X 90 0
          /wVxdWVt
        >
        E 0 90 37 64
        E 90 80 37 00
        <X 30 0
          /wV0ZW0t
        >
        E 0 90 40 64
        E 150 80 40 00
        <X 60 0
          /wVwZS0=
        >
        E 0 90 40 64
        E 151 80 40 00
        <X 119 0
          /wVyb3U=
        >
        E 0 90 3e 64
        E 270 80 3e 00
        E 31 90 01 64
        E 30 80 01 00
        <X 29 0
          /wVtby0=
        >
        E 0 90 3c 64
        E 90 80 3c 00
        <X 30 0
          /wVyZS0=
        >
        E 0 90 40 64
        E 90 80 40 00
        <X 30 0
          /wVuYQ==
        >
        E 0 90 40 64
        E 120 80 40 00
        <X 120 0
          /wVxdWVt
        >
        E 0 90 3e 64
        E 180 80 3e 00
        <X 60 0
          /wV0ZW0t
        >
        E 0 90 3e 64
        E 150 80 3e 00
        <X 60 0
          /wVwZS0=
        >
        E 0 90 3c 64
        E 90 80 3c 00
        <X 61 0
          /wVyb3U=
        >
        E 0 90 3c 64
        E 300 80 3c 00
        E 60 80 69 00
        E 0 90 69 64
        <X 34 0
          /wVB
        >
        E 0 90 37 64
        E 90 80 37 00
        <X 25 0
          /wVjb3I=
        >
        E 0 90 3c 64
        E 90 80 3c 00
        <X 31 0
          /wVkZQ==
        >
        E 0 90 3c 64
        E 209 80 3c 00
        <X 30 0
          /wVjYS0=
        >
        E 0 90 3b 64
        E 90 80 3b 00
        <X 30 0
          /wVuZS0=
        >
        E 0 90 3b 64
        E 151 80 3b 00
        <X 89 0
          /wVsYQ==
        >
        E 0 90 39 64
        E 691 80 39 00
        E 480 80 69 00
        <X 480 0
          /wFbcGxheV0=
        >
        E 0 90 69 64
        <X 360 0
          /wVB
        >
        E 0 90 39 64
        E 90 80 39 00
        <X 30 0
          /wVsdS0=
        >
        E 0 90 39 64
        E 90 80 39 00
        <X 30 0
          /wVh
        >
        E 0 90 39 64
        E 150 80 39 00
        <X 90 0
          /wVtby0=
        >
        E 0 90 37 64
        E 90 80 37 00
        <X 30 0
          /wVyZS0=
        >
        E 0 90 39 64
        E 90 80 39 00
        <X 30 0
          /wVuYQ==
        >
        E 0 90 39 64
        E 180 80 39 00
        E 0 90 01 64
        E 30 80 01 00
        <X 30 0
          /wVh
        >
        E 0 90 37 64
        E 90 80 37 00
        <X 30 0
          /wVkYW4t
        >
        E 0 90 3c 64
        E 90 80 3c 00
        <X 30 0
          /wXnYQ==
        >
        E 0 90 3c 64
        E 210 80 3c 00
        <X 30 0
          /wVkbw==
        >
        E 0 90 3b 64
        E 90 80 3b 00
        <X 30 0
          /wV2ZW4t
        >
        E 0 90 39 64
        E 210 80 39 00
        <X 30 0
          /wV0bw==
        >
        E 0 90 39 64
        E 144 80 39 00
        E 6 80 69 00
        E 0 90 69 64
        E 0 90 74 64
        <X 32 0
          /wVP
        >
        E 0 90 37 64
        E 30 80 37 00
        <X 28 0
          /wV2ZW4t
        >
        E 0 90 3c 64
        E 90 80 3c 00
        <X 30 0
          /wV0cmU=
        >
        E 0 90 3c 64
        E 210 80 3c 00
        <X 30 0
          /wVkYQ==
        >
        E 0 90 3b 64
        E 90 80 3b 00
        <X 30 0
          /wVub2kt
        >
        E 0 90 39 64
        E 210 80 39 00
        <X 30 0
          /wV0ZcKnZQ==
        >
        E 0 90 39 64
        E 120 80 39 00
        E 0 90 01 64
        <X 30 0
          /wVv
        >
        E 0 80 01 00
        E 0 90 39 64
        E 30 80 39 00
        <X 60 0
          /wVzb2w=
        >
        E 0 90 37 64
        E 150 80 37 00
        <X 90 0
          /wVkYQ==
        >
        E 0 90 39 64
        E 150 80 39 00
        <X 60 0
          /wVtYS0=
        >
        E 0 90 39 64
        E 180 80 39 00
        <X 60 0
          /wVuaOM=
        >
        E 0 90 39 64
        E 360 80 39 00
        <X 60 0
          /wUr
        >
        E 0 90 37 64
        E 60 80 37 00
        <X 30 0
          /wUr
        >
        E 0 90 34 64
        E 60 80 34 00
        E 180 80 69 00
        E 0 80 74 00
        E 960 90 69 64
        <X 360 0
          /wVB
        >
        E 0 90 39 64
        E 89 80 39 00
        <X 30 0
          /wVjaHUt
        >
        E 0 90 39 64
        E 90 80 39 00
        <X 30 0
          /wV2YQ==
        >
        E 0 90 39 64
        E 150 80 39 00
        <X 90 0
          /wVjaS0=
        >
        E 0 90 37 64
        E 90 80 37 00
        <X 30 0
          /wVnYS0=
        >
        E 0 90 39 64
        E 90 80 39 00
        <X 30 0
          /wVuYQ==
        >
        E 0 90 39 64
        E 180 80 39 00
        E 1 90 01 64
        E 30 80 01 00
        <X 29 0
          /wVh
        >
        E 0 90 37 64
        E 90 80 37 00
        <X 30 0
          /wVkYW4t
        >
        E 0 90 3c 64
        E 90 80 3c 00
        <X 30 0
          /wXnYQ==
        >
        E 0 90 3c 64
        E 210 80 3c 00
        <X 30 0
          /wVkb3M=
        >
        E 0 90 3b 64
        E 90 80 3b 00
        <X 30 0
          /wVyaS0=
        >
        E 0 90 39 64
        E 210 80 39 00
        <X 30 0
          /wVvcw==
        >
        E 0 90 39 64
        E 61 80 39 00
        E 60 80 69 00
        E 0 90 69 64
        <X 29 0
          /wVP
        >
        E 0 90 37 64
        E 30 80 37 00
        <X 60 0
          /wVtZWw=
        >
        E 0 90 3c 64
        E 90 80 3c 00
        <X 30 0
          /wVkZQ==
        >
        E 0 90 3c 64
        E 210 80 3c 00
        <X 30 0
          /wVjYS0=
        >
        E 0 90 3b 64
        E 90 80 3b 00
        <X 30 0
          /wVjYXU=
        >
        E 0 90 39 64
        E 241 80 39 00
        E 60 90 01 64
        E 30 80 01 00
        <X 30 0
          /wVlp28=
        >
        E 0 90 39 64
        E 60 80 39 00
        <X 59 0
          /wVzb2w=
        >
        E 0 90 37 64
        E 150 80 37 00
        <X 90 0
          /wVkYQ==
        >
        E 0 90 39 64
        E 150 80 39 00
        <X 60 0
          /wVtYS0=
        >
        E 0 90 39 64
        E 180 80 39 00
        <X 60 0
          /wVuaOM=
        >
        E 0 90 39 64
        E 601 80 39 00
        E 150 80 69 00
        <X 480 0
          /wFbaW50ZW5zZV0=
        >
        E 0 90 69 64
        <X 480 0
          /wXK
        >
        E 0 90 39 64
        E 270 80 39 00
        <X 90 0
          /wVtby0=
        >
        E 0 90 37 64
        E 90 80 37 00
        <X 30 0
          /wVyZS0=
        >
        E 0 90 37 64
        E 90 80 37 00
        <X 30 0
          /wVuYQ==
        >
        E 0 90 37 64
        E 150 80 37 00
        <X 90 0
          /wVxdWVt
        >
        E 0 90 37 64
        E 90 80 37 00
        <X 30 0
          /wV0ZW0t
        >
        E 0 90 40 64
        E 150 80 40 00
        <X 90 0
          /wVwZS0=
        >
        E 0 90 40 64
        E 120 80 40 00
        <X 90 0
          /wVyb3U=
        >
        E 0 90 3e 64
        E 240 80 3e 00
        E 60 90 01 64
        E 30 80 01 00
        <X 60 0
          /wVjaS0=
        >
        E 0 90 3c 64
        E 90 80 3c 00
        <X 30 0
          /wVnYS0=
        >
        E 0 90 40 64
        E 90 80 40 00
        <X 30 0
          /wVuYQ==
        >
        E 0 90 40 64
        E 120 80 40 00
        <X 120 0
          /wVxdWVt
        >
        E 0 90 3e 64
        E 180 80 3e 00
        <X 60 0
          /wV0ZW0t
        >
        E 0 90 3e 64
        E 150 80 3e 00
        <X 60 0
          /wVwZS0=
        >
        E 0 90 3c 64
        E 90 80 3c 00
        <X 60 0
          /wVyb3U=
        >
        E 0 90 3c 64
        E 300 80 3c 00
        E 30 80 69 00
        E 0 90 69 64
        <X 35 0
          /wVP
        >
        E 0 90 37 64
        E 90 80 37 00
        <X 25 0
          /wVjaGVpLQ==
        >
        E 0 90 3c 64
        E 90 80 3c 00
        <X 30 0
          /wVybw==
        >
        E 0 90 3c 64
        E 210 80 3c 00
        <X 30 0
          /wVkbw==
        >
        E 0 90 3b 64
        E 90 80 3b 00
        <X 30 0
          /wVjcmEt
        >
        E 0 90 3b 64
        E 150 80 3b 00
        <X 90 0
          /wV2bw==
        >
        E 0 90 39 64
        E 960 80 39 00
        E 240 80 69 00
        E 480 90 69 64
        E 0 90 74 64
        <X 360 0
          /wVDaS0=
        >
        E 0 90 37 64
        E 90 80 37 00
        <X 30 0
          /wVnYS0=
        >
        E 0 90 37 64
        E 89 80 37 00
        <X 30 0
          /wVuYQ==
        >
        E 0 90 37 64
        E 150 80 37 00
        <X 90 0
          /wVxdWVt
        >
        E 0 90 37 64
        E 90 80 37 00
        <X 30 0
          /wV0ZW0t
        >
        E 0 90 40 64
        E 181 80 40 00
        <X 59 0
          /wVwZS0=
        >
        E 0 90 40 64
        E 181 80 40 00
        <X 59 0
          /wVyb3U=
        >
        E 0 90 3e 64
        E 270 80 3e 00
        E 31 90 01 64
        E 30 80 01 00
        <X 29 0
          /wVtby0=
        >
        E 0 90 3c 64
        E 90 80 3c 00
        <X 30 0
          /wVyZS0=
        >
        E 0 90 40 64
        E 90 80 40 00
        <X 30 0
          /wVuYQ==
        >
        E 0 90 40 64
        E 120 80 40 00
        <X 120 0
          /wVxdWVt
        >
        E 0 90 3e 64
        E 180 80 3e 00
        <X 60 0
          /wV0ZW0t
        >
        E 0 90 3e 64
        E 150 80 3e 00
        <X 90 0
          /wVwZS0=
        >
        E 0 90 3c 64
        E 90 80 3c 00
        <X 31 0
          /wVyb3U=
        >
        E 0 90 3c 64
        E 300 80 3c 00
        E 30 80 69 00
        E 0 80 74 00
        E 0 90 69 64
        <X 64 0
          /wVB
        >
        E 0 90 37 64
        E 90 80 37 00
        <X 25 0
          /wVjb3I=
        >
        E 0 90 3c 64
        E 90 80 3c 00
        <X 31 0
          /wVkZQ==
        >
        E 0 90 3c 64
        E 209 80 3c 00
        <X 30 0
          /wVjYS0=
        >
        E 0 90 3b 64
        E 90 80 3b 00
        <X 30 0
          /wVuZS0=
        >
        E 0 90 3b 64
        E 151 80 3b 00
        <X 89 0
          /wVsYQ==
        >
        E 0 90 39 64
        E 691 80 39 00
        <X 480 0
          /wFbaWRsZV0=
        >
        E 480 80 69 00
        E 5280 90 69 64
        <X 240 0
          /wFbbWVsbG93XQ==
        >
        <X 240 0
          /wXKPQ==
        >
        E 0 90 40 64
        E 150 80 40 00
        <X 90 0
          /wUr
        >
        E 0 90 3e 64
        E 30 80 3e 00
        <X 90 0
          /wVyYT0=
        >
        E 0 90 3e 64
        E 180 80 3e 00
        <X 60 0
          /wVy6j0=
        >
        E 0 90 3e 64
        E 330 80 3e 00
        <X 30 0
          /wVy6j0=
        >
        E 0 90 3e 64
        E 180 80 3e 00
        <X 60 0
          /wVyYQ==
        >
        E 0 90 3e 64
        E 180 80 3e 00
        E 0 90 01 64
        E 30 80 01 00
        <X 30 0
          /wVBPQ==
        >
        E 0 90 3e 64
        E 30 80 3e 00
        <X 30 0
          /wUr
        >
        E 0 90 40 64
        E 120 80 40 00
        <X 60 0
          /wUr
        >
        E 0 90 3e 64
        E 30 80 3e 00
        <X 90 0
          /wVyYT0=
        >
        E 0 90 3e 64
        E 150 80 3e 00
        <X 90 0
          /wVy6j0=
        >
        E 0 90 3e 64
        E 180 80 3e 00
        <X 60 0
          /wVobW09
        >
        E 0 90 3e 64
        E 60 80 3e 00
        <X 60 0
          /wVyYQ==
        >
        E 0 90 3e 64
        E 150 80 3e 00
        E 90 80 69 00
        E 0 90 69 64
        <X 240 0
          /wXKPQ==
        >
        E 0 90 40 64
        E 150 80 40 00
        <X 90 0
          /wUr
        >
        E 0 90 3e 64
        E 30 80 3e 00
        <X 90 0
          /wVyYT0=
        >
        E 0 90 3e 64
        E 180 80 3e 00
        <X 60 0
          /wVy6j0=
        >
        E 0 90 3e 64
        E 330 80 3e 00
        <X 30 0
          /wVy6j0=
        >
        E 0 90 3e 64
        E 180 80 3e 00
        <X 60 0
          /wVyYQ==
        >
        E 0 90 3e 64
        E 180 80 3e 00
        E 0 90 01 64
        E 30 80 01 00
        <X 30 0
          /wVBPQ==
        >
        E 0 90 3e 64
        E 30 80 3e 00
        <X 30 0
          /wUr
        >
        E 0 90 40 64
        E 120 80 40 00
        <X 60 0
          /wUr
        >
        E 0 90 3e 64
        E 30 80 3e 00
        <X 90 0
          /wVhaD0=
        >
        E 0 90 3e 64
        E 150 80 3e 00
        <X 90 0
          /wVy6j0=
        >
        E 0 90 3e 64
        E 180 80 3e 00
        <X 60 0
          /wVobW09
        >
        E 0 90 3e 64
        E 60 80 3e 00
        <X 60 0
          /wVyYQ==
        >
        E 0 90 3e 64
        E 150 80 3e 00
        E 90 80 69 00
        E 0 90 69 64
        E 0 90 74 64
        <X 270 0
          /wVBaD0=
        >
        E 0 90 40 64
        E 150 80 40 00
        <X 90 0
          /wUr
        >
        E 0 90 3e 64
        E 30 80 3e 00
        <X 90 0
          /wVyYT0=
        >
        E 0 90 3e 64
        E 180 80 3e 00
        <X 60 0
          /wVyYT0=
        >
        E 0 90 3e 64
        E 180 80 3e 00
        <X 60 0
          /wVyYT0=
        >
        E 0 90 3e 64
        E 90 80 3e 00
        <X 30 0
          /wVyYT0=
        >
        E 0 90 3e 64
        E 180 80 3e 00
        <X 60 0
          /wVyYQ==
        >
        E 0 90 3e 64
        E 180 80 3e 00
        E 0 90 01 64
        E 30 80 01 00
        <X 30 0
          /wVBPQ==
        >
        E 0 90 3e 64
        E 30 80 3e 00
        <X 30 0
          /wUr
        >
        E 0 90 40 64
        E 120 80 40 00
        <X 60 0
          /wUr
        >
        E 0 90 3e 64
        E 30 80 3e 00
        <X 90 0
          /wVyYT0=
        >
        E 0 90 3e 64
        E 150 80 3e 00
        <X 90 0
          /wVyYT0=
        >
        E 0 90 3e 64
        E 180 80 3e 00
        <X 60 0
          /wVyYT0=
        >
        E 0 90 3e 64
        E 60 80 3e 00
        <X 60 0
          /wVyYQ==
        >
        E 0 90 3e 64
        E 150 80 3e 00
        E 90 80 69 00
        E 0 80 74 00
        E 0 90 69 64
        <X 210 0
          /wVBaD0=
        >
        E 0 90 40 64
        E 150 80 40 00
        <X 90 0
          /wUr
        >
        E 0 90 3e 64
        E 30 80 3e 00
        <X 90 0
          /wVyYT0=
        >
        E 0 90 3e 64
        E 180 80 3e 00
        <X 60 0
          /wVyYT0=
        >
        E 0 90 3e 64
        E 180 80 3e 00
        <X 60 0
          /wVyYT0=
        >
        E 0 90 3e 64
        E 90 80 3e 00
        <X 30 0
          /wVyYT0=
        >
        E 0 90 3e 64
        E 180 80 3e 00
        <X 60 0
          /wVyYQ==
        >
        E 0 90 3e 64
        E 180 80 3e 00
        E 0 90 01 64
        E 30 80 01 00
        <X 30 0
          /wVBPQ==
        >
        E 0 90 3e 64
        E 30 80 3e 00
        <X 30 0
          /wUr
        >
        E 0 90 40 64
        E 120 80 40 00
        <X 60 0
          /wUr
        >
        E 0 90 3e 64
        E 30 80 3e 00
        <X 90 0
          /wVyYT0=
        >
        E 0 90 3e 64
        E 150 80 3e 00
        <X 90 0
          /wVyYT0=
        >
        E 0 90 3e 64
        E 180 80 3e 00
        <X 60 0
          /wVyYT0=
        >
        E 0 90 3e 64
        E 60 80 3e 00
        <X 60 0
          /wVyYQ==
        >
        E 0 90 3e 64
        E 150 80 3e 00
        E 330 80 69 00
        <X 240 0
          /wFbcGxheV0=
        >
        E 0 90 69 64
        <X 120 0
          /wVB
        >
        E 0 90 39 64
        E 90 80 39 00
        <X 30 0
          /wVsdS0=
        >
        E 0 90 39 64
        E 90 80 39 00
        <X 30 0
          /wVh
        >
        E 0 90 39 64
        E 150 80 39 00
        <X 90 0
          /wVtby0=
        >
        E 0 90 37 64
        E 90 80 37 00
        <X 30 0
          /wVyZS0=
        >
        E 0 90 39 64
        E 90 80 39 00
        <X 30 0
          /wVuYQ==
        >
        E 0 90 39 64
        E 180 80 39 00
        E 0 90 01 64
        E 30 80 01 00
        <X 30 0
          /wVh
        >
        E 0 90 37 64
        E 90 80 37 00
        <X 30 0
          /wVkYW4t
        >
        E 0 90 3c 64
        E 90 80 3c 00
        <X 30 0
          /wXnYQ==
        >
        E 0 90 3c 64
        E 210 80 3c 00
        <X 30 0
          /wVkbw==
        >
        E 0 90 3b 64
        E 90 80 3b 00
        <X 30 0
          /wV2ZW4t
        >
        E 0 90 39 64
        E 210 80 39 00
        <X 30 0
          /wV0bw==
        >
        E 0 90 39 64
        E 150 80 69 00
        E 0 80 39 00
        E 0 90 69 64
        <X 30 0
          /wVP
        >
        E 0 90 37 64
        E 30 80 37 00
        <X 30 0
          /wV2ZW4t
        >
        E 0 90 3c 64
        E 90 80 3c 00
        <X 30 0
          /wV0cmU=
        >
        E 0 90 3c 64
        E 210 80 3c 00
        <X 30 0
          /wVkYQ==
        >
        E 0 90 3b 64
        E 90 80 3b 00
        <X 30 0
          /wVub2kt
        >
        E 0 90 39 64
        E 210 80 39 00
        <X 30 0
          /wV0Zadl
        >
        E 0 90 39 64
        E 120 80 39 00
        E 0 90 01 64
        <X 30 0
          /wVv
        >
        E 0 80 01 00
        E 0 90 39 64
        E 30 80 39 00
        <X 60 0
          /wVzb2w=
        >
        E 0 90 37 64
        E 150 80 37 00
        <X 90 0
          /wVkYQ==
        >
        E 0 90 39 64
        E 150 80 39 00
        <X 60 0
          /wVtYS0=
        >
        E 0 90 39 64
        E 180 80 39 00
        <X 60 0
          /wVuaOM=
        >
        E 0 90 39 64
        E 330 80 39 00
        <X 90 0
          /wUr
        >
        E 0 90 37 64
        E 30 80 37 00
        <X 60 0
          /wUr
        >
        E 0 90 34 64
        E 30 80 34 00
        E 210 80 69 00
        E 960 90 69 64
        <X 360 0
          /wVB
        >
        E 0 90 39 64
        E 89 80 39 00
        <X 30 0
          /wVjaHUt
        >
        E 0 90 39 64
        E 90 80 39 00
        <X 30 0
          /wV2YQ==
        >
        E 0 90 39 64
        E 150 80 39 00
        <X 90 0
          /wVjaS0=
        >
        E 0 90 37 64
        E 90 80 37 00
        <X 30 0
          /wVnYS0=
        >
        E 0 90 39 64
        E 90 80 39 00
        <X 30 0
          /wVuYQ==
        >
        E 0 90 39 64
        E 180 80 39 00
        E 1 90 01 64
        E 30 80 01 00
        <X 29 0
          /wVh
        >
        E 0 90 37 64
        E 90 80 37 00
        <X 30 0
          /wVkYW4t
        >
        E 0 90 3c 64
        E 90 80 3c 00
        <X 30 0
          /wXnYQ==
        >
        E 0 90 3c 64
        E 210 80 3c 00
        <X 30 0
          /wVkb3M=
        >
        E 0 90 3b 64
        E 90 80 3b 00
        <X 30 0
          /wVyaS0=
        >
        E 0 90 39 64
        E 210 80 39 00
        <X 30 0
          /wVvcw==
        >
        E 0 90 39 64
        E 61 80 39 00
        E 30 80 69 00
        E 0 90 69 64
        E 0 90 74 64
        <X 59 0
          /wVP
        >
        E 0 90 37 64
        E 30 80 37 00
        <X 60 0
          /wVtZWw=
        >
        E 0 90 3c 64
        E 90 80 3c 00
        <X 30 0
          /wVkZQ==
        >
        E 0 90 3c 64
        E 210 80 3c 00
        <X 30 0
          /wVjYS0=
        >
        E 0 90 3b 64
        E 90 80 3b 00
        <X 30 0
          /wVjYXU=
        >
        E 0 90 39 64
        E 241 80 39 00
        E 0 90 01 64
        E 30 80 01 00
        <X 90 0
          /wVlp28=
        >
        E 0 90 39 64
        E 60 80 39 00
        <X 59 0
          /wVzb2w=
        >
        E 0 90 37 64
        E 150 80 37 00
        <X 90 0
          /wVkYQ==
        >
        E 0 90 39 64
        E 150 80 39 00
        <X 60 0
          /wVtYS0=
        >
        E 0 90 39 64
        E 180 80 39 00
        <X 60 0
          /wVuaOM=
        >
        E 0 90 39 64
        E 601 80 39 00
        E 150 80 69 00
        E 0 80 74 00
        E 480 90 69 64
        <X 240 0
          /wFbaW50ZW5zZV0=
        >
        <X 240 0
          /wXK
        >
        E 0 90 39 64
        E 270 80 39 00
        <X 90 0
          /wVtby0=
        >
        E 0 90 37 64
        E 90 80 37 00
        <X 30 0
          /wVyZS0=
        >
        E 0 90 37 64
        E 90 80 37 00
        <X 30 0
          /wVuYQ==
        >
        E 0 90 37 64
        E 150 80 37 00
        <X 90 0
          /wVxdWVt
        >
        E 0 90 37 64
        E 90 80 37 00
        <X 30 0
          /wV0ZW0t
        >
        E 0 90 40 64
        E 180 80 40 00
        <X 30 0
          /wVwZS0=
        >
        E 0 90 40 64
        E 180 80 40 00
        <X 60 0
          /wVyb3U=
        >
        E 0 90 3e 64
        E 270 80 3e 00
        E 60 90 01 64
        E 30 80 01 00
        <X 30 0
          /wVjaS0=
        >
        E 0 90 3c 64
        E 90 80 3c 00
        <X 30 0
          /wVnYS0=
        >
        E 0 90 40 64
        E 90 80 40 00
        <X 30 0
          /wVuYQ==
        >
        E 0 90 40 64
        E 120 80 40 00
        <X 120 0
          /wVxdWVt
        >
        E 0 90 3e 64
        E 180 80 3e 00
        <X 60 0
          /wV0ZW0t
        >
        E 0 90 3e 64
        E 150 80 3e 00
        <X 60 0
          /wVwZS0=
        >
        E 0 90 3c 64
        E 90 80 3c 00
        <X 60 0
          /wVyb3U=
        >
        E 0 90 3c 64
        E 300 80 69 00
        E 0 80 3c 00
        E 0 90 69 64
        <X 65 0
          /wVP
        >
        E 0 90 37 64
        E 90 80 37 00
        <X 25 0
          /wVjaGVpLQ==
        >
        E 0 90 3c 64
        E 90 80 3c 00
        <X 30 0
          /wVybw==
        >
        E 0 90 3c 64
        E 210 80 3c 00
        <X 30 0
          /wVkbw==
        >
        E 0 90 3b 64
        E 90 80 3b 00
        <X 30 0
          /wVjcmEt
        >
        E 0 90 3b 64
        E 150 80 3b 00
        <X 90 0
          /wV2bw==
        >
        E 0 90 39 64
        E 960 80 39 00
        E 240 80 69 00
        E 480 90 69 64
        <X 360 0
          /wVDaS0=
        >
        E 0 90 37 64
        E 90 80 37 00
        <X 30 0
          /wVnYS0=
        >
        E 0 90 37 64
        E 89 80 37 00
        <X 30 0
          /wVuYQ==
        >
        E 0 90 37 64
        E 150 80 37 00
        <X 90 0
          /wVxdWVt
        >
        E 0 90 37 64
        E 90 80 37 00
        <X 30 0
          /wV0ZW0t
        >
        E 0 90 40 64
        E 150 80 40 00
        <X 60 0
          /wVwZS0=
        >
        E 0 90 40 64
        E 151 80 40 00
        <X 119 0
          /wVyb3U=
        >
        E 0 90 3e 64
        E 270 80 3e 00
        E 31 90 01 64
        E 30 80 01 00
        <X 29 0
          /wVtby0=
        >
        E 0 90 3c 64
        E 90 80 3c 00
        <X 30 0
          /wVyZS0=
        >
        E 0 90 40 64
        E 90 80 40 00
        <X 30 0
          /wVuYQ==
        >
        E 0 90 40 64
        E 120 80 40 00
        <X 120 0
          /wVxdWVt
        >
        E 0 90 3e 64
        E 180 80 3e 00
        <X 60 0
          /wV0ZW0t
        >
        E 0 90 3e 64
        E 150 80 3e 00
        <X 60 0
          /wVwZS0=
        >
        E 0 90 3c 64
        E 90 80 3c 00
        <X 61 0
          /wVyb3U=
        >
        E 0 90 3c 64
        E 300 80 3c 00
        E 60 80 69 00
        E 0 90 69 64
        <X 34 0
          /wVB
        >
        E 0 90 37 64
        E 90 80 37 00
        <X 25 0
          /wVjb3I=
        >
        E 0 90 3c 64
        E 90 80 3c 00
        <X 31 0
          /wVkZQ==
        >
        E 0 90 3c 64
        E 209 80 3c 00
        <X 30 0
          /wVjYS0=
        >
        E 0 90 3b 64
        E 90 80 3b 00
        <X 30 0
          /wVuZS0=
        >
        E 0 90 3b 64
        E 151 80 3b 00
        <X 89 0
          /wVsYQ==
        >
        E 0 90 39 64
        E 181 80 39 00
        E 30 80 69 00
        E 0 90 69 64
        E 0 90 74 64
        <X 360 0
          /wVNby0=
        >
        E 0 90 37 64
        E 90 80 37 00
        <X 30 0
          /wVyZS0=
        >
        E 0 90 37 64
        E 90 80 37 00
        <X 30 0
          /wVuYQ==
        >
        E 0 90 37 64
        E 150 80 37 00
        <X 90 0
          /wVxdWVt
        >
        E 0 90 37 64
        E 90 80 37 00
        <X 30 0
          /wV0ZW0t
        >
        E 0 90 40 64
        E 180 80 40 00
        <X 30 0
          /wVwZS0=
        >
        E 0 90 40 64
        E 180 80 40 00
        <X 60 0
          /wVyb3U=
        >
        E 0 90 3e 64
        E 270 80 3e 00
        E 0 90 01 64
        E 30 80 01 00
        <X 90 0
          /wVjaS0=
        >
        E 0 90 3c 64
        E 90 80 3c 00
        <X 30 0
          /wVnYS0=
        >
        E 0 90 40 64
        E 90 80 40 00
        <X 30 0
          /wVuYQ==
        >
        E 0 90 40 64
        E 120 80 40 00
        <X 120 0
          /wVxdWVt
        >
        E 0 90 3e 64
        E 180 80 3e 00
        <X 60 0
          /wV0ZW0t
        >
        E 0 90 3e 64
        E 150 80 3e 00
        <X 60 0
          /wVwZS0=
        >
        E 0 90 3c 64
        E 90 80 3c 00
        <X 60 0
          /wVyb3U=
        >
        E 0 90 3c 64
        E 300 80 69 00
        E 0 80 74 00
        E 0 80 3c 00
        E 0 90 69 64
        <X 65 0
          /wVP
        >
        E 0 90 37 64
        E 90 80 37 00
        <X 25 0
          /wVjaGVpLQ==
        >
        E 0 90 3c 64
        E 90 80 3c 00
        <X 30 0
          /wVybw==
        >
        E 0 90 3c 64
        E 210 80 3c 00
        <X 30 0
          /wVkbw==
        >
        E 0 90 3b 64
        E 90 80 3b 00
        <X 30 0
          /wVjcmEt
        >
        E 0 90 3b 64
        E 150 80 3b 00
        <X 90 0
          /wV2bw==
        >
        E 0 90 39 64
        E 960 80 39 00
        E 240 80 69 00
        E 480 90 69 64
        <X 360 0
          /wVDaS0=
        >
        E 0 90 37 64
        E 90 80 37 00
        <X 30 0
          /wVnYS0=
        >
        E 0 90 37 64
        E 89 80 37 00
        <X 30 0
          /wVuYQ==
        >
        E 0 90 37 64
        E 150 80 37 00
        <X 90 0
          /wVxdWVt
        >
        E 0 90 37 64
        E 90 80 37 00
        <X 30 0
          /wV0ZW0t
        >
        E 0 90 40 64
        E 150 80 40 00
        <X 60 0
          /wVwZS0=
        >
        E 0 90 40 64
        E 151 80 40 00
        <X 119 0
          /wVyb3U=
        >
        E 0 90 3e 64
        E 270 80 3e 00
        E 31 90 01 64
        E 30 80 01 00
        <X 29 0
          /wVtby0=
        >
        E 0 90 3c 64
        E 90 80 3c 00
        <X 30 0
          /wVyZS0=
        >
        E 0 90 40 64
        E 90 80 40 00
        <X 30 0
          /wVuYQ==
        >
        E 0 90 40 64
        E 120 80 40 00
        <X 120 0
          /wVxdWVt
        >
        E 0 90 3e 64
        E 180 80 3e 00
        <X 60 0
          /wV0ZW0t
        >
        E 0 90 3e 64
        E 150 80 3e 00
        <X 60 0
          /wVwZS0=
        >
        E 0 90 3c 64
        E 90 80 3c 00
        <X 61 0
          /wVyb3U=
        >
        E 0 90 3c 64
        E 300 80 69 00
        E 0 80 3c 00
        E 0 90 69 64
        <X 94 0
          /wVB
        >
        E 0 90 37 64
        E 90 80 37 00
        <X 25 0
          /wVjb3I=
        >
        E 0 90 3c 64
        E 90 80 3c 00
        <X 31 0
          /wVkZQ==
        >
        E 0 90 3c 64
        E 209 80 3c 00
        <X 30 0
          /wVjYS0=
        >
        E 0 90 3b 64
        E 90 80 3b 00
        <X 30 0
          /wVuZS0=
        >
        E 0 90 3b 64
        E 151 80 3b 00
        <X 89 0
          /wVsYQ==
        >
        E 0 90 39 64
        E 181 80 39 00
        E 30 80 69 00
        E 0 90 69 64
        <X 360 0
          /wVNby0=
        >
        E 0 90 37 64
        E 90 80 37 00
        <X 30 0
          /wVyZS0=
        >
        E 0 90 37 64
        E 90 80 37 00
        <X 30 0
          /wVuYQ==
        >
        E 0 90 37 64
        E 150 80 37 00
        <X 90 0
          /wVxdWVt
        >
        E 0 90 37 64
        E 90 80 37 00
        <X 30 0
          /wV0ZW0t
        >
        E 0 90 40 64
        E 180 80 40 00
        <X 30 0
          /wVwZS0=
        >
        E 0 90 40 64
        E 180 80 40 00
        <X 60 0
          /wVyb3U=
        >
        E 0 90 3e 64
        E 270 80 3e 00
        E 0 90 01 64
        E 30 80 01 00
        <X 90 0
          /wVjaS0=
        >
        E 0 90 3c 64
        E 90 80 3c 00
        <X 30 0
          /wVnYS0=
        >
        E 0 90 40 64
        E 90 80 40 00
        <X 30 0
          /wVuYQ==
        >
        E 0 90 40 64
        E 120 80 40 00
        <X 120 0
          /wVxdWVt
        >
        E 0 90 3e 64
        E 180 80 3e 00
        <X 60 0
          /wV0ZW0t
        >
        E 0 90 3e 64
        E 150 80 3e 00
        <X 60 0
          /wVwZS0=
        >
        E 0 90 3c 64
        E 90 80 3c 00
        <X 60 0
          /wVyb3U=
        >
        E 0 90 3c 64
        E 293 80 3c 00
        E 7 80 69 00
        E 0 90 69 64
        E 0 90 74 64
        <X 65 0
          /wVP
        >
        E 0 90 37 64
        E 90 80 37 00
        <X 25 0
          /wVjaGVpLQ==
        >
        E 0 90 3c 64
        E 90 80 3c 00
        <X 30 0
          /wVybw==
        >
        E 0 90 3c 64
        E 210 80 3c 00
        <X 30 0
          /wVkbw==
        >
        E 0 90 3b 64
        E 90 80 3b 00
        <X 30 0
          /wVjcmEt
        >
        E 0 90 3b 64
        E 150 80 3b 00
        <X 90 0
          /wV2bw==
        >
        E 0 90 39 64
        E 720 80 39 00
        E 480 80 69 00
        E 0 80 74 00
        E 240 90 69 64
        <X 240 0
          /wXK
        >
        E 0 90 39 64
        E 270 80 39 00
        <X 90 0
          /wVjaS0=
        >
        E 0 90 37 64
        E 90 80 37 00
        <X 30 0
          /wVnYS0=
        >
        E 0 90 37 64
        E 89 80 37 00
        <X 30 0
          /wVuYQ==
        >
        E 0 90 37 64
        E 150 80 37 00
        <X 90 0
          /wVxdWVt
        >
        E 0 90 37 64
        E 90 80 37 00
        <X 30 0
          /wV0ZW0t
        >
        E 0 90 40 64
        E 150 80 40 00
        <X 60 0
          /wVwZS0=
        >
        E 0 90 40 64
        E 151 80 40 00
        <X 119 0
          /wVyb3U=
        >
        E 0 90 3e 64
        E 270 80 3e 00
        E 31 90 01 64
        E 30 80 01 00
        <X 29 0
          /wVtby0=
        >
        E 0 90 3c 64
        E 90 80 3c 00
        <X 30 0
          /wVyZS0=
        >
        E 0 90 40 64
        E 90 80 40 00
        <X 30 0
          /wVuYQ==
        >
        E 0 90 40 64
        E 120 80 40 00
        <X 120 0
          /wVxdWVt
        >
        E 0 90 3e 64
        E 180 80 3e 00
        <X 60 0
          /wV0ZW0t
        >
        E 0 90 3e 64
        E 150 80 3e 00
        <X 60 0
          /wVwZS0=
        >
        E 0 90 3c 64
        E 90 80 3c 00
        <X 61 0
          /wVyb3U=
        >
        E 0 90 3c 64
        E 300 80 69 00
        E 0 80 3c 00
        E 0 90 69 64
        <X 94 0
          /wVB
        >
        E 0 90 37 64
        E 90 80 37 00
        <X 25 0
          /wVjb3I=
        >
        E 0 90 3c 64
        E 90 80 3c 00
        <X 31 0
          /wVkZQ==
        >
        E 0 90 3c 64
        E 209 80 3c 00
        <X 30 0
          /wVjYS0=
        >
        E 0 90 3b 64
        E 90 80 3b 00
        <X 30 0
          /wVuZS0=
        >
        E 0 90 3b 64
        E 151 80 3b 00
        <X 89 0
          /wVsYQ==
        >
        E 0 90 39 64
        E 181 80 39 00
        E 30 80 69 00
        E 240 90 69 64
        <X 120 0
          /wVNby0=
        >
        E 0 90 37 64
        E 90 80 37 00
        <X 30 0
          /wVyZS0=
        >
        E 0 90 37 64
        E 90 80 37 00
        <X 30 0
          /wVuYQ==
        >
        E 0 90 37 64
        E 150 80 37 00
        <X 90 0
          /wVxdWVt
        >
        E 0 90 37 64
        E 90 80 37 00
        <X 30 0
          /wV0ZW0t
        >
        E 0 90 40 64
        E 180 80 40 00
        <X 30 0
          /wVwZS0=
        >
        E 0 90 40 64
        E 180 80 40 00
        <X 60 0
          /wVyb3U=
        >
        E 0 90 3e 64
        E 270 80 3e 00
        E 0 90 01 64
        E 30 80 01 00
        <X 90 0
          /wVjaS0=
        >
        E 0 90 3c 64
        E 90 80 3c 00
        <X 30 0
          /wVnYS0=
        >
        E 0 90 40 64
        E 90 80 40 00
        <X 30 0
          /wVuYQ==
        >
        E 0 90 40 64
        E 120 80 40 00
        <X 120 0
          /wVxdWVt
        >
        E 0 90 3e 64
        E 180 80 3e 00
        <X 60 0
          /wV0ZW0t
        >
        E 0 90 3e 64
        E 150 80 3e 00
        <X 60 0
          /wVwZS0=
        >
        E 0 90 3c 64
        E 90 80 3c 00
        <X 60 0
          /wVyb3U=
        >
        E 0 90 3c 64
        E 300 80 69 00
        E 0 80 3c 00
        E 0 90 69 64
        <X 65 0
          /wVP
        >
        E 0 90 37 64
        E 90 80 37 00
        <X 25 0
          /wVjaGVpLQ==
        >
        E 0 90 3c 64
        E 90 80 3c 00
        <X 30 0
          /wVybw==
        >
        E 0 90 3c 64
        E 210 80 3c 00
        <X 30 0
          /wVkbw==
        >
        E 0 90 3b 64
        E 90 80 3b 00
        <X 30 0
          /wVjcmEt
        >
        E 0 90 3b 64
        E 150 80 3b 00
        <X 90 0
          /wV2bw==
        >
        E 0 90 39 64
        E 720 80 39 00
        E 480 80 69 00
        E 480 90 69 64
        <X 360 0
          /wVDaS0=
        >
        E 0 90 37 64
        E 90 80 37 00
        <X 30 0
          /wVnYS0=
        >
        E 0 90 37 64
        E 89 80 37 00
        <X 30 0
          /wVuYQ==
        >
        E 0 90 37 64
        E 150 80 37 00
        <X 90 0
          /wVxdWVt
        >
        E 0 90 37 64
        E 90 80 37 00
        <X 30 0
          /wV0ZW0t
        >
        E 0 90 40 64
        E 150 80 40 00
        <X 60 0
          /wVwZS0=
        >
        E 0 90 40 64
        E 151 80 40 00
        <X 119 0
          /wVyb3U=
        >
        E 0 90 3e 64
        E 270 80 3e 00
        E 31 90 01 64
        E 30 80 01 00
        <X 29 0
          /wVtby0=
        >
        E 0 90 3c 64
        E 90 80 3c 00
        <X 30 0
          /wVyZS0=
        >
        E 0 90 40 64
        E 90 80 40 00
        <X 30 0
          /wVuYQ==
        >
        E 0 90 40 64
        E 120 80 40 00
        <X 120 0
          /wVxdWVt
        >
        E 0 90 3e 64
        E 180 80 3e 00
        <X 60 0
          /wV0ZW0t
        >
        E 0 90 3e 64
        E 150 80 3e 00
        <X 60 0
          /wVwZS0=
        >
        E 0 90 3c 64
        E 90 80 3c 00
        <X 61 0
          /wVyb3U=
        >
        E 0 90 3c 64
        E 300 80 69 00
        E 0 80 3c 00
        E 0 90 69 64
        <X 94 0
          /wVB
        >
        E 0 90 37 64
        E 90 80 37 00
        <X 25 0
          /wVjb3I=
        >
        E 0 90 3c 64
        E 90 80 3c 00
        <X 31 0
          /wVkZQ==
        >
        E 0 90 3c 64
        E 209 80 3c 00
        <X 30 0
          /wVjYS0=
        >
        E 0 90 3b 64
        E 90 80 3b 00
        <X 30 0
          /wVuZS0=
        >
        E 0 90 3b 64
        E 151 80 3b 00
        <X 89 0
          /wVsYQ==
        >
        E 0 90 39 64
        E 181 80 39 00
        <X 29 0
          /wFbaWRsZV9yZWFsdGltZV0=
        >
        E 0 80 69 00
        E 2881 b0 7b 00
        GUID {74D154B5-4669-4DD1-913C-71AA2346F716}
        IGNTEMPO 0 120.00000000 4 4
        SRCCOLOR 62
        VELLANE 132 128 60
        COLORMAP "C:\Program Files\REAPER (x64)\Data\color_maps\rockband_guitarbass.png"
        CFGEDITVIEW 121401.874066 77.045057 0 12 0 0 0
        CFGEDIT 1 1 0 1 1 0 1 1 1 1 1 0.12500000 -8 -8 1544 872 0 2 1 1 0.00000000 0 1 0 0 0.500000 0 0 1.000000 64
        KEYSNAP 0 7 "102030050700" 0 "Pentatonic"
        EVTFILTER 0 -1 -1 -1 -1 0 1 0 0 -1.00000000 -1.00000000
      >
    >
  >
  <TRACK '{E8E6EA02-6AB6-46D2-9C00-AC46F2781AB9}'
    NAME "HARM1"
    PEAKCOL 16576
    BEAT -1
    AUTOMODE 0
    VOLPAN 1.00000000000000 0.00000000000000 -1.00000000000000 -1.00000000000000 1.00000000000000
    MUTESOLO 0 0 0
    IPHASE 0
    ISBUS 0 0
    BUSCOMP 0 0
    SHOWINMIX 1 0.666700 0.500000 1 0.500000 -1 -1 -1
    FREEMODE 0
    SEL 1
    REC 0 0 0 0 0 0 0
    VU 2
    TRACKHEIGHT 0 0
    INQ 0 0 0 0.5000000000 100 0 0 100
    NCHAN 2
    FX 0
    TRACKID {E8E6EA02-6AB6-46D2-9C00-AC46F2781AB9}
    PERF 0
    MIDIOUT -1
    <MIDINOTENAMES
      0 116 "OVERDRIVE"
      0 115 "----"
      0 105 "Phrase Marker"
      0 104 "----"
      0 84 "C6 (Unused Highest Note)"
      0 83 "B5"
      0 82 "A#4"
      0 81 "A4"
      0 80 "G#4"
      0 79 "G4"
      0 78 "F#4"
      0 77 "F4"
      0 76 "E4"
      0 75 "D#4"
      0 74 "D4"
      0 73 "C#4"
      0 72 "C4"
      0 71 "B3"
      0 70 "A#3"
      0 69 "A3"
      0 68 "G#3"
      0 67 "G3"
      0 66 "F#3"
      0 65 "F3"
      0 64 "E3"
      0 63 "D#3"
      0 62 "D3"
      0 61 "C#3"
      0 60 "C3"
      0 59 "B2"
      0 58 "A#2"
      0 57 "A2"
      0 56 "G#2"
      0 55 "G2"
      0 54 "F#2"
      0 53 "F2"
      0 52 "E2"
      0 51 "D#2"
      0 50 "D2"
      0 49 "C#2"
      0 48 "C2"
      0 47 "B1"
      0 46 "A#1"
      0 45 "A1"
      0 44 "G#1"
      0 43 "G1"
      0 42 "F#1"
      0 41 "F1"
      0 40 "E1"
      0 39 "D#1"
      0 38 "D1"
      0 37 "C#1"
      0 36 "Lowest Note C1"
      0 2 "---"
      0 1 "Lyric Shift"
      0 0 "Range Shift"
    >
    MAINSEND 1 0
    <FXCHAIN
      WNDRECT 0 43 655 467
      SHOW 0
      LASTSEL 1
      DOCKED 0
      BYPASS 0 0
      <JS "MIDI/midi_note_filter" ""
        36.000000 84.000000 - - - - - - - - - - - - - - - - - - - - - - - - - - - - - - - - - - - - - - - - - - - - - - - - - - - - - - - - - - - - - - 
      >
      FLOATPOS 0 0 0 0
      FXID {C04F0A37-7522-4AEE-88F0-ACCEFA0611FC}
      WAK 0
      BYPASS 0 0
      <VST "VSTi: ReaSynth (Cockos)" "reasynth.dll" 0 ""
        eXNlcu9e7f4AAAAAAgAAAAEAAAAAAAAAAgAAAAAAAAA4AAAAAAAAAA==
        AAAQAO++rd4N8K3eppvEOxe30ToAAIA/AAAAAAAAAADMm4A+6WeIPQ==
        AAAAAAAAAD8AAIA/AACAPwAAAD8AABAAAAA=
      >
      FLOATPOS 0 0 0 0
      FXID {32A02FC2-8C34-4DA8-A925-A4CC8C5CFDC6}
      WAK 0
    >
    <ITEM
      POSITION 0.00000000000000
      SNAPOFFS 0.00000000000000
      LENGTH 145.04278800000000
      LOOP 0
      ALLTAKES 0
      SEL 0
      FADEIN 1 0.000000 0.000000 1 0
      FADEOUT 1 0.000000 0.000000 1 0
      MUTE 0
      IGUID {A0261745-26F3-4BA8-8CAD-978CAE32FDAB}
      IID 5
      NAME "HARM1"
      VOLPAN 1.000000 0.000000 1.000000 -1.000000
      SOFFS 0.00000000000000 0.00000000000000
      PLAYRATE 1.00000000000000 1 0.00000000000000 -1
      CHANMODE 0
      GUID {B11B96C7-C0FA-446C-AC06-4CE468A39E80}
      <SOURCE MIDI
        HASDATA 1 480 QN
        POOLEDEVTS {7DDA37BE-01C2-4E6D-A350-D00EA30B7BF5}
        <X 0 0
          /wNIQVJNMQ==
        >
        <X 2880 0
          /wFbaWRsZV0=
        >
        E 28320 90 69 64
        E 0 90 74 64
        <X 1 0
          /wFbaW50ZW5zZV0=
        >
        <X 479 0
          /wXK
        >
        E 0 90 39 64
        E 270 80 39 00
        <X 90 0
          /wVtby0=
        >
        E 0 90 37 64
        E 90 80 37 00
        <X 30 0
          /wVyZS0=
        >
        E 0 90 37 64
        E 90 80 37 00
        <X 30 0
          /wVuYQ==
        >
        E 0 90 37 64
        E 150 80 37 00
        <X 90 0
          /wVxdWVt
        >
        E 0 90 37 64
        E 90 80 37 00
        <X 30 0
          /wV0ZW0t
        >
        E 0 90 40 64
        E 180 80 40 00
        <X 30 0
          /wVwZS0=
        >
        E 0 90 40 64
        E 180 80 40 00
        <X 60 0
          /wVyb3U=
        >
        E 0 90 3e 64
        E 270 80 3e 00
        E 60 90 01 64
        E 30 80 01 00
        <X 30 0
          /wVjaS0=
        >
        E 0 90 3c 64
        E 90 80 3c 00
        <X 30 0
          /wVnYS0=
        >
        E 0 90 40 64
        E 90 80 40 00
        <X 30 0
          /wVuYQ==
        >
        E 0 90 40 64
        E 120 80 40 00
        <X 120 0
          /wVxdWVt
        >
        E 0 90 3e 64
        E 180 80 3e 00
        <X 60 0
          /wV0ZW0t
        >
        E 0 90 3e 64
        E 150 80 3e 00
        <X 60 0
          /wVwZS0=
        >
        E 0 90 3c 64
        E 90 80 3c 00
        <X 60 0
          /wVyb3U=
        >
        E 0 90 3c 64
        E 300 80 69 00
        E 0 80 74 00
        E 0 80 3c 00
        E 0 90 69 64
        <X 65 0
          /wVP
        >
        E 0 90 37 64
        E 90 80 37 00
        <X 25 0
          /wVjaGVpLQ==
        >
        E 0 90 3c 64
        E 90 80 3c 00
        <X 30 0
          /wVybw==
        >
        E 0 90 3c 64
        E 210 80 3c 00
        <X 30 0
          /wVkbw==
        >
        E 0 90 3b 64
        E 90 80 3b 00
        <X 30 0
          /wVjcmEt
        >
        E 0 90 3b 64
        E 150 80 3b 00
        <X 90 0
          /wV2bw==
        >
        E 0 90 39 64
        E 960 80 39 00
        E 240 80 69 00
        E 480 90 69 64
        <X 360 0
          /wVDaS0=
        >
        E 0 90 37 64
        E 90 80 37 00
        <X 30 0
          /wVnYS0=
        >
        E 0 90 37 64
        E 89 80 37 00
        <X 30 0
          /wVuYQ==
        >
        E 0 90 37 64
        E 150 80 37 00
        <X 90 0
          /wVxdWVt
        >
        E 0 90 37 64
        E 90 80 37 00
        <X 30 0
          /wV0ZW0t
        >
        E 0 90 40 64
        E 150 80 40 00
        <X 60 0
          /wVwZS0=
        >
        E 0 90 40 64
        E 151 80 40 00
        <X 119 0
          /wVyb3U=
        >
        E 0 90 3e 64
        E 270 80 3e 00
        E 31 90 01 64
        E 30 80 01 00
        <X 29 0
          /wVtby0=
        >
        E 0 90 3c 64
        E 90 80 3c 00
        <X 30 0
          /wVyZS0=
        >
        E 0 90 40 64
        E 90 80 40 00
        <X 30 0
          /wVuYQ==
        >
        E 0 90 40 64
        E 120 80 40 00
        <X 120 0
          /wVxdWVt
        >
        E 0 90 3e 64
        E 180 80 3e 00
        <X 60 0
          /wV0ZW0t
        >
        E 0 90 3e 64
        E 150 80 3e 00
        <X 60 0
          /wVwZS0=
        >
        E 0 90 3c 64
        E 90 80 3c 00
        <X 61 0
          /wVyb3U=
        >
        E 0 90 3c 64
        E 300 80 3c 00
        E 60 80 69 00
        E 0 90 69 64
        <X 34 0
          /wVB
        >
        E 0 90 37 64
        E 90 80 37 00
        <X 25 0
          /wVjb3I=
        >
        E 0 90 3c 64
        E 90 80 3c 00
        <X 31 0
          /wVkZQ==
        >
        E 0 90 3c 64
        E 209 80 3c 00
        <X 30 0
          /wVjYS0=
        >
        E 0 90 3b 64
        E 90 80 3b 00
        <X 30 0
          /wVuZS0=
        >
        E 0 90 3b 64
        E 151 80 3b 00
        <X 89 0
          /wVsYQ==
        >
        E 0 90 39 64
        E 691 80 39 00
        E 480 80 69 00
        <X 480 0
          /wFbcGxheV0=
        >
        E 0 90 69 64
        <X 360 0
          /wVB
        >
        E 0 90 39 64
        E 90 80 39 00
        <X 30 0
          /wVsdS0=
        >
        E 0 90 39 64
        E 90 80 39 00
        <X 30 0
          /wVh
        >
        E 0 90 39 64
        E 150 80 39 00
        <X 90 0
          /wVtby0=
        >
        E 0 90 37 64
        E 90 80 37 00
        <X 30 0
          /wVyZS0=
        >
        E 0 90 39 64
        E 90 80 39 00
        <X 30 0
          /wVuYQ==
        >
        E 0 90 39 64
        E 180 80 39 00
        E 0 90 01 64
        E 30 80 01 00
        <X 30 0
          /wVh
        >
        E 0 90 37 64
        E 90 80 37 00
        <X 30 0
          /wVkYW4t
        >
        E 0 90 3c 64
        E 90 80 3c 00
        <X 30 0
          /wXnYQ==
        >
        E 0 90 3c 64
        E 210 80 3c 00
        <X 30 0
          /wVkbw==
        >
        E 0 90 3b 64
        E 90 80 3b 00
        <X 30 0
          /wV2ZW4t
        >
        E 0 90 39 64
        E 210 80 39 00
        <X 30 0
          /wV0bw==
        >
        E 0 90 39 64
        E 144 80 39 00
        E 6 80 69 00
        E 0 90 69 64
        E 0 90 74 64
        <X 32 0
          /wVP
        >
        E 0 90 37 64
        E 30 80 37 00
        <X 28 0
          /wV2ZW4t
        >
        E 0 90 3c 64
        E 90 80 3c 00
        <X 30 0
          /wV0cmU=
        >
        E 0 90 3c 64
        E 210 80 3c 00
        <X 30 0
          /wVkYQ==
        >
        E 0 90 3b 64
        E 90 80 3b 00
        <X 30 0
          /wVub2kt
        >
        E 0 90 39 64
        E 210 80 39 00
        <X 30 0
          /wV0Zadl
        >
        E 0 90 39 64
        E 120 80 39 00
        E 0 90 01 64
        <X 30 0
          /wVv
        >
        E 0 80 01 00
        E 0 90 39 64
        E 30 80 39 00
        <X 60 0
          /wVzb2w=
        >
        E 0 90 37 64
        E 150 80 37 00
        <X 90 0
          /wVkYQ==
        >
        E 0 90 39 64
        E 150 80 39 00
        <X 60 0
          /wVtYS0=
        >
        E 0 90 39 64
        E 180 80 39 00
        <X 60 0
          /wVuaOM=
        >
        E 0 90 39 64
        E 330 80 39 00
        <X 90 0
          /wUr
        >
        E 0 90 37 64
        E 30 80 37 00
        <X 60 0
          /wUr
        >
        E 0 90 34 64
        E 30 80 34 00
        E 210 80 69 00
        E 0 80 74 00
        E 960 90 69 64
        <X 360 0
          /wVB
        >
        E 0 90 39 64
        E 89 80 39 00
        <X 30 0
          /wVjaHUt
        >
        E 0 90 39 64
        E 90 80 39 00
        <X 30 0
          /wV2YQ==
        >
        E 0 90 39 64
        E 150 80 39 00
        <X 90 0
          /wVjaS0=
        >
        E 0 90 37 64
        E 90 80 37 00
        <X 30 0
          /wVnYS0=
        >
        E 0 90 39 64
        E 90 80 39 00
        <X 30 0
          /wVuYQ==
        >
        E 0 90 39 64
        E 180 80 39 00
        E 1 90 01 64
        E 30 80 01 00
        <X 29 0
          /wVh
        >
        E 0 90 37 64
        E 90 80 37 00
        <X 30 0
          /wVkYW4t
        >
        E 0 90 3c 64
        E 90 80 3c 00
        <X 30 0
          /wXnYQ==
        >
        E 0 90 3c 64
        E 210 80 3c 00
        <X 30 0
          /wVkb3M=
        >
        E 0 90 3b 64
        E 90 80 3b 00
        <X 30 0
          /wVyaS0=
        >
        E 0 90 39 64
        E 210 80 39 00
        <X 30 0
          /wVvcw==
        >
        E 0 90 39 64
        E 61 80 39 00
        E 60 80 69 00
        E 0 90 69 64
        <X 29 0
          /wVP
        >
        E 0 90 37 64
        E 30 80 37 00
        <X 60 0
          /wVtZWw=
        >
        E 0 90 3c 64
        E 90 80 3c 00
        <X 30 0
          /wVkZQ==
        >
        E 0 90 3c 64
        E 210 80 3c 00
        <X 30 0
          /wVjYS0=
        >
        E 0 90 3b 64
        E 90 80 3b 00
        <X 30 0
          /wVjYXU=
        >
        E 0 90 39 64
        E 241 80 39 00
        E 60 90 01 64
        E 30 80 01 00
        <X 30 0
          /wVlp28=
        >
        E 0 90 39 64
        E 60 80 39 00
        <X 59 0
          /wVzb2w=
        >
        E 0 90 37 64
        E 150 80 37 00
        <X 90 0
          /wVkYQ==
        >
        E 0 90 39 64
        E 150 80 39 00
        <X 60 0
          /wVtYS0=
        >
        E 0 90 39 64
        E 180 80 39 00
        <X 60 0
          /wVuaOM=
        >
        E 0 90 39 64
        E 601 80 39 00
        E 150 80 69 00
        E 480 90 69 64
        <X 1 0
          /wFbaW50ZW5zZV0=
        >
        <X 479 0
          /wXK
        >
        E 0 90 39 64
        E 270 80 39 00
        <X 90 0
          /wVtby0=
        >
        E 0 90 37 64
        E 90 80 37 00
        <X 30 0
          /wVyZS0=
        >
        E 0 90 37 64
        E 90 80 37 00
        <X 30 0
          /wVuYQ==
        >
        E 0 90 37 64
        E 150 80 37 00
        <X 90 0
          /wVxdWVt
        >
        E 0 90 37 64
        E 90 80 37 00
        <X 30 0
          /wV0ZW0t
        >
        E 0 90 40 64
        E 150 80 40 00
        <X 90 0
          /wVwZS0=
        >
        E 0 90 40 64
        E 120 80 40 00
        <X 90 0
          /wVyb3U=
        >
        E 0 90 3e 64
        E 240 80 3e 00
        E 60 90 01 64
        E 30 80 01 00
        <X 60 0
          /wVjaS0=
        >
        E 0 90 3c 64
        E 90 80 3c 00
        <X 30 0
          /wVnYS0=
        >
        E 0 90 40 64
        E 90 80 40 00
        <X 30 0
          /wVuYQ==
        >
        E 0 90 40 64
        E 120 80 40 00
        <X 120 0
          /wVxdWVt
        >
        E 0 90 3e 64
        E 180 80 3e 00
        <X 60 0
          /wV0ZW0t
        >
        E 0 90 3e 64
        E 150 80 3e 00
        <X 60 0
          /wVwZS0=
        >
        E 0 90 3c 64
        E 90 80 3c 00
        <X 60 0
          /wVyb3U=
        >
        E 0 90 3c 64
        E 300 80 3c 00
        E 30 80 69 00
        E 0 90 69 64
        <X 35 0
          /wVP
        >
        E 0 90 37 64
        E 90 80 37 00
        <X 25 0
          /wVjaGVpLQ==
        >
        E 0 90 3c 64
        E 90 80 3c 00
        <X 30 0
          /wVybw==
        >
        E 0 90 3c 64
        E 210 80 3c 00
        <X 30 0
          /wVkbw==
        >
        E 0 90 3b 64
        E 90 80 3b 00
        <X 30 0
          /wVjcmEt
        >
        E 0 90 3b 64
        E 150 80 3b 00
        <X 90 0
          /wV2bw==
        >
        E 0 90 39 64
        E 960 80 39 00
        E 240 80 69 00
        E 480 90 69 64
        E 0 90 74 64
        <X 360 0
          /wVDaS0=
        >
        E 0 90 37 64
        E 90 80 37 00
        <X 30 0
          /wVnYS0=
        >
        E 0 90 37 64
        E 89 80 37 00
        <X 30 0
          /wVuYQ==
        >
        E 0 90 37 64
        E 150 80 37 00
        <X 90 0
          /wVxdWVt
        >
        E 0 90 37 64
        E 90 80 37 00
        <X 30 0
          /wV0ZW0t
        >
        E 0 90 40 64
        E 181 80 40 00
        <X 59 0
          /wVwZS0=
        >
        E 0 90 40 64
        E 181 80 40 00
        <X 59 0
          /wVyb3U=
        >
        E 0 90 3e 64
        E 270 80 3e 00
        E 31 90 01 64
        E 30 80 01 00
        <X 29 0
          /wVtby0=
        >
        E 0 90 3c 64
        E 90 80 3c 00
        <X 30 0
          /wVyZS0=
        >
        E 0 90 40 64
        E 90 80 40 00
        <X 30 0
          /wVuYQ==
        >
        E 0 90 40 64
        E 120 80 40 00
        <X 120 0
          /wVxdWVt
        >
        E 0 90 3e 64
        E 180 80 3e 00
        <X 60 0
          /wV0ZW0t
        >
        E 0 90 3e 64
        E 150 80 3e 00
        <X 90 0
          /wVwZS0=
        >
        E 0 90 3c 64
        E 90 80 3c 00
        <X 31 0
          /wVyb3U=
        >
        E 0 90 3c 64
        E 300 80 3c 00
        E 30 80 69 00
        E 0 80 74 00
        E 0 90 69 64
        <X 64 0
          /wVB
        >
        E 0 90 37 64
        E 90 80 37 00
        <X 25 0
          /wVjb3I=
        >
        E 0 90 3c 64
        E 90 80 3c 00
        <X 31 0
          /wVkZQ==
        >
        E 0 90 3c 64
        E 209 80 3c 00
        <X 30 0
          /wVjYS0=
        >
        E 0 90 3b 64
        E 90 80 3b 00
        <X 30 0
          /wVuZS0=
        >
        E 0 90 3b 64
        E 151 80 3b 00
        <X 89 0
          /wVsYQ==
        >
        E 0 90 39 64
        E 691 80 39 00
        <X 481 0
          /wFbaWRsZV0=
        >
        E 479 80 69 00
        E 5280 90 69 64
        <X 241 0
          /wFbbWVsbG93XQ==
        >
        <X 239 0
          /wXKPQ==
        >
        E 0 90 40 64
        E 150 80 40 00
        <X 90 0
          /wUr
        >
        E 0 90 3e 64
        E 30 80 3e 00
        <X 90 0
          /wVyYT0=
        >
        E 0 90 3e 64
        E 180 80 3e 00
        <X 60 0
          /wVy6j0=
        >
        E 0 90 3e 64
        E 330 80 3e 00
        <X 30 0
          /wVy6j0=
        >
        E 0 90 3e 64
        E 180 80 3e 00
        <X 60 0
          /wVyYQ==
        >
        E 0 90 3e 64
        E 180 80 3e 00
        E 0 90 01 64
        E 30 80 01 00
        <X 30 0
          /wVBPQ==
        >
        E 0 90 3e 64
        E 30 80 3e 00
        <X 30 0
          /wUr
        >
        E 0 90 40 64
        E 120 80 40 00
        <X 60 0
          /wUr
        >
        E 0 90 3e 64
        E 30 80 3e 00
        <X 90 0
          /wVyYT0=
        >
        E 0 90 3e 64
        E 150 80 3e 00
        <X 90 0
          /wVy6j0=
        >
        E 0 90 3e 64
        E 180 80 3e 00
        <X 60 0
          /wVobW09
        >
        E 0 90 3e 64
        E 60 80 3e 00
        <X 60 0
          /wVyYQ==
        >
        E 0 90 3e 64
        E 150 80 3e 00
        E 90 80 69 00
        E 0 90 69 64
        <X 240 0
          /wXKPQ==
        >
        E 0 90 40 64
        E 150 80 40 00
        <X 90 0
          /wUr
        >
        E 0 90 3e 64
        E 30 80 3e 00
        <X 90 0
          /wVyYT0=
        >
        E 0 90 3e 64
        E 180 80 3e 00
        <X 60 0
          /wVy6j0=
        >
        E 0 90 3e 64
        E 330 80 3e 00
        <X 30 0
          /wVy6j0=
        >
        E 0 90 3e 64
        E 180 80 3e 00
        <X 60 0
          /wVyYQ==
        >
        E 0 90 3e 64
        E 180 80 3e 00
        E 0 90 01 64
        E 30 80 01 00
        <X 30 0
          /wVBPQ==
        >
        E 0 90 3e 64
        E 30 80 3e 00
        <X 30 0
          /wUr
        >
        E 0 90 40 64
        E 120 80 40 00
        <X 60 0
          /wUr
        >
        E 0 90 3e 64
        E 30 80 3e 00
        <X 90 0
          /wVhaD0=
        >
        E 0 90 3e 64
        E 150 80 3e 00
        <X 90 0
          /wVy6j0=
        >
        E 0 90 3e 64
        E 180 80 3e 00
        <X 60 0
          /wVobW09
        >
        E 0 90 3e 64
        E 60 80 3e 00
        <X 60 0
          /wVyYQ==
        >
        E 0 90 3e 64
        E 150 80 3e 00
        E 90 80 69 00
        E 0 90 69 64
        E 0 90 74 64
        <X 270 0
          /wVBaD0=
        >
        E 0 90 40 64
        E 150 80 40 00
        <X 90 0
          /wUr
        >
        E 0 90 3e 64
        E 30 80 3e 00
        <X 90 0
          /wVyYT0=
        >
        E 0 90 3e 64
        E 180 80 3e 00
        <X 60 0
          /wVyYT0=
        >
        E 0 90 3e 64
        E 180 80 3e 00
        <X 60 0
          /wVyYT0=
        >
        E 0 90 3e 64
        E 90 80 3e 00
        <X 30 0
          /wVyYT0=
        >
        E 0 90 3e 64
        E 180 80 3e 00
        <X 60 0
          /wVyYQ==
        >
        E 0 90 3e 64
        E 180 80 3e 00
        E 0 90 01 64
        E 30 80 01 00
        <X 30 0
          /wVBPQ==
        >
        E 0 90 3e 64
        E 30 80 3e 00
        <X 30 0
          /wUr
        >
        E 0 90 40 64
        E 120 80 40 00
        <X 60 0
          /wUr
        >
        E 0 90 3e 64
        E 30 80 3e 00
        <X 90 0
          /wVyYT0=
        >
        E 0 90 3e 64
        E 150 80 3e 00
        <X 90 0
          /wVyYT0=
        >
        E 0 90 3e 64
        E 180 80 3e 00
        <X 60 0
          /wVyYT0=
        >
        E 0 90 3e 64
        E 60 80 3e 00
        <X 60 0
          /wVyYQ==
        >
        E 0 90 3e 64
        E 150 80 3e 00
        E 90 80 69 00
        E 0 80 74 00
        E 0 90 69 64
        <X 210 0
          /wVBaD0=
        >
        E 0 90 40 64
        E 150 80 40 00
        <X 90 0
          /wUr
        >
        E 0 90 3e 64
        E 30 80 3e 00
        <X 90 0
          /wVyYT0=
        >
        E 0 90 3e 64
        E 180 80 3e 00
        <X 60 0
          /wVyYT0=
        >
        E 0 90 3e 64
        E 180 80 3e 00
        <X 60 0
          /wVyYT0=
        >
        E 0 90 3e 64
        E 90 80 3e 00
        <X 30 0
          /wVyYT0=
        >
        E 0 90 3e 64
        E 180 80 3e 00
        <X 60 0
          /wVyYQ==
        >
        E 0 90 3e 64
        E 180 80 3e 00
        E 0 90 01 64
        E 30 80 01 00
        <X 30 0
          /wVBPQ==
        >
        E 0 90 3e 64
        E 30 80 3e 00
        <X 30 0
          /wUr
        >
        E 0 90 40 64
        E 120 80 40 00
        <X 60 0
          /wUr
        >
        E 0 90 3e 64
        E 30 80 3e 00
        <X 90 0
          /wVyYT0=
        >
        E 0 90 3e 64
        E 150 80 3e 00
        <X 90 0
          /wVyYT0=
        >
        E 0 90 3e 64
        E 180 80 3e 00
        <X 60 0
          /wVyYT0=
        >
        E 0 90 3e 64
        E 60 80 3e 00
        <X 60 0
          /wVyYQ==
        >
        E 0 90 3e 64
        E 150 80 3e 00
        E 330 80 69 00
        <X 240 0
          /wFbcGxheV0=
        >
        E 0 90 69 64
        <X 120 0
          /wVB
        >
        E 0 90 39 64
        E 90 80 39 00
        <X 30 0
          /wVsdS0=
        >
        E 0 90 39 64
        E 90 80 39 00
        <X 30 0
          /wVh
        >
        E 0 90 39 64
        E 150 80 39 00
        <X 90 0
          /wVtby0=
        >
        E 0 90 37 64
        E 90 80 37 00
        <X 30 0
          /wVyZS0=
        >
        E 0 90 39 64
        E 90 80 39 00
        <X 30 0
          /wVuYQ==
        >
        E 0 90 39 64
        E 180 80 39 00
        E 0 90 01 64
        E 30 80 01 00
        <X 30 0
          /wVh
        >
        E 0 90 37 64
        E 90 80 37 00
        <X 30 0
          /wVkYW4t
        >
        E 0 90 3c 64
        E 90 80 3c 00
        <X 30 0
          /wXnYQ==
        >
        E 0 90 3c 64
        E 210 80 3c 00
        <X 30 0
          /wVkbw==
        >
        E 0 90 3b 64
        E 90 80 3b 00
        <X 30 0
          /wV2ZW4t
        >
        E 0 90 39 64
        E 210 80 39 00
        <X 30 0
          /wV0bw==
        >
        E 0 90 39 64
        E 150 80 69 00
        E 0 80 39 00
        E 0 90 69 64
        <X 30 0
          /wVP
        >
        E 0 90 37 64
        E 30 80 37 00
        <X 30 0
          /wV2ZW4t
        >
        E 0 90 3c 64
        E 90 80 3c 00
        <X 30 0
          /wV0cmU=
        >
        E 0 90 3c 64
        E 210 80 3c 00
        <X 30 0
          /wVkYQ==
        >
        E 0 90 3b 64
        E 90 80 3b 00
        <X 30 0
          /wVub2kt
        >
        E 0 90 39 64
        E 210 80 39 00
        <X 30 0
          /wV0Zadl
        >
        E 0 90 39 64
        E 120 80 39 00
        E 0 90 01 64
        <X 30 0
          /wVv
        >
        E 0 80 01 00
        E 0 90 39 64
        E 30 80 39 00
        <X 60 0
          /wVzb2w=
        >
        E 0 90 37 64
        E 150 80 37 00
        <X 90 0
          /wVkYQ==
        >
        E 0 90 39 64
        E 150 80 39 00
        <X 60 0
          /wVtYS0=
        >
        E 0 90 39 64
        E 180 80 39 00
        <X 60 0
          /wVuaOM=
        >
        E 0 90 39 64
        E 330 80 39 00
        <X 90 0
          /wUr
        >
        E 0 90 37 64
        E 30 80 37 00
        <X 60 0
          /wUr
        >
        E 0 90 34 64
        E 30 80 34 00
        E 210 80 69 00
        E 960 90 69 64
        <X 360 0
          /wVB
        >
        E 0 90 39 64
        E 89 80 39 00
        <X 30 0
          /wVjaHUt
        >
        E 0 90 39 64
        E 90 80 39 00
        <X 30 0
          /wV2YQ==
        >
        E 0 90 39 64
        E 150 80 39 00
        <X 90 0
          /wVjaS0=
        >
        E 0 90 37 64
        E 90 80 37 00
        <X 30 0
          /wVnYS0=
        >
        E 0 90 39 64
        E 90 80 39 00
        <X 30 0
          /wVuYQ==
        >
        E 0 90 39 64
        E 180 80 39 00
        E 1 90 01 64
        E 30 80 01 00
        <X 29 0
          /wVh
        >
        E 0 90 37 64
        E 90 80 37 00
        <X 30 0
          /wVkYW4t
        >
        E 0 90 3c 64
        E 90 80 3c 00
        <X 30 0
          /wXnYQ==
        >
        E 0 90 3c 64
        E 210 80 3c 00
        <X 30 0
          /wVkb3M=
        >
        E 0 90 3b 64
        E 90 80 3b 00
        <X 30 0
          /wVyaS0=
        >
        E 0 90 39 64
        E 210 80 39 00
        <X 30 0
          /wVvcw==
        >
        E 0 90 39 64
        E 61 80 39 00
        E 30 80 69 00
        E 0 90 69 64
        E 0 90 74 64
        <X 59 0
          /wVP
        >
        E 0 90 37 64
        E 30 80 37 00
        <X 60 0
          /wVtZWw=
        >
        E 0 90 3c 64
        E 90 80 3c 00
        <X 30 0
          /wVkZQ==
        >
        E 0 90 3c 64
        E 210 80 3c 00
        <X 30 0
          /wVjYS0=
        >
        E 0 90 3b 64
        E 90 80 3b 00
        <X 30 0
          /wVjYXU=
        >
        E 0 90 39 64
        E 241 80 39 00
        E 0 90 01 64
        E 30 80 01 00
        <X 90 0
          /wVlp28=
        >
        E 0 90 39 64
        E 60 80 39 00
        <X 59 0
          /wVzb2w=
        >
        E 0 90 37 64
        E 150 80 37 00
        <X 90 0
          /wVkYQ==
        >
        E 0 90 39 64
        E 150 80 39 00
        <X 60 0
          /wVtYS0=
        >
        E 0 90 39 64
        E 180 80 39 00
        <X 60 0
          /wVuaOM=
        >
        E 0 90 39 64
        E 601 80 39 00
        E 150 80 69 00
        E 0 80 74 00
        E 480 90 69 64
        <X 241 0
          /wFbaW50ZW5zZV0=
        >
        <X 599 0
          /wVNby0=
        >
        E 0 90 37 64
        E 90 80 37 00
        <X 30 0
          /wVyZS0=
        >
        E 0 90 37 64
        E 90 80 37 00
        <X 30 0
          /wVuYQ==
        >
        E 0 90 37 64
        E 150 80 37 00
        <X 90 0
          /wVxdWVt
        >
        E 0 90 37 64
        E 90 80 37 00
        <X 30 0
          /wV0ZW0t
        >
        E 0 90 40 64
        E 180 80 40 00
        <X 30 0
          /wVwZS0=
        >
        E 0 90 40 64
        E 180 80 40 00
        <X 60 0
          /wVyb3U=
        >
        E 0 90 3e 64
        E 270 80 3e 00
        E 60 90 01 64
        E 30 80 01 00
        <X 30 0
          /wVjaS0=
        >
        E 0 90 3c 64
        E 90 80 3c 00
        <X 30 0
          /wVnYS0=
        >
        E 0 90 40 64
        E 90 80 40 00
        <X 30 0
          /wVuYQ==
        >
        E 0 90 40 64
        E 120 80 40 00
        <X 120 0
          /wVxdWVt
        >
        E 0 90 3e 64
        E 180 80 3e 00
        <X 60 0
          /wV0ZW0t
        >
        E 0 90 3e 64
        E 150 80 3e 00
        <X 60 0
          /wVwZS0=
        >
        E 0 90 3c 64
        E 90 80 3c 00
        <X 60 0
          /wVyb3U=
        >
        E 0 90 3c 64
        E 300 80 69 00
        E 0 80 3c 00
        E 0 90 69 64
        <X 65 0
          /wVP
        >
        E 0 90 37 64
        E 90 80 37 00
        <X 25 0
          /wVjaGVpLQ==
        >
        E 0 90 3c 64
        E 90 80 3c 00
        <X 30 0
          /wVybw==
        >
        E 0 90 3c 64
        E 210 80 3c 00
        <X 30 0
          /wVkbw==
        >
        E 0 90 3b 64
        E 90 80 3b 00
        <X 30 0
          /wVjcmEt
        >
        E 0 90 3b 64
        E 150 80 3b 00
        <X 90 0
          /wV2bw==
        >
        E 0 90 39 64
        E 960 80 39 00
        E 240 80 69 00
        E 480 90 69 64
        <X 360 0
          /wVDaS0=
        >
        E 0 90 37 64
        E 90 80 37 00
        <X 30 0
          /wVnYS0=
        >
        E 0 90 37 64
        E 89 80 37 00
        <X 30 0
          /wVuYQ==
        >
        E 0 90 37 64
        E 150 80 37 00
        <X 90 0
          /wVxdWVt
        >
        E 0 90 37 64
        E 90 80 37 00
        <X 30 0
          /wV0ZW0t
        >
        E 0 90 40 64
        E 150 80 40 00
        <X 60 0
          /wVwZS0=
        >
        E 0 90 40 64
        E 151 80 40 00
        <X 119 0
          /wVyb3U=
        >
        E 0 90 3e 64
        E 270 80 3e 00
        E 31 90 01 64
        E 30 80 01 00
        <X 29 0
          /wVtby0=
        >
        E 0 90 3c 64
        E 90 80 3c 00
        <X 30 0
          /wVyZS0=
        >
        E 0 90 40 64
        E 90 80 40 00
        <X 30 0
          /wVuYQ==
        >
        E 0 90 40 64
        E 120 80 40 00
        <X 120 0
          /wVxdWVt
        >
        E 0 90 3e 64
        E 180 80 3e 00
        <X 60 0
          /wV0ZW0t
        >
        E 0 90 3e 64
        E 150 80 3e 00
        <X 60 0
          /wVwZS0=
        >
        E 0 90 3c 64
        E 90 80 3c 00
        <X 61 0
          /wVyb3U=
        >
        E 0 90 3c 64
        E 300 80 3c 00
        E 60 80 69 00
        E 0 90 69 64
        <X 34 0
          /wVB
        >
        E 0 90 37 64
        E 90 80 37 00
        <X 25 0
          /wVjb3I=
        >
        E 0 90 3c 64
        E 90 80 3c 00
        <X 31 0
          /wVkZQ==
        >
        E 0 90 3c 64
        E 209 80 3c 00
        <X 30 0
          /wVjYS0=
        >
        E 0 90 3b 64
        E 90 80 3b 00
        <X 30 0
          /wVuZS0=
        >
        E 0 90 3b 64
        E 151 80 3b 00
        <X 89 0
          /wVsYQ==
        >
        E 0 90 39 64
        E 181 80 39 00
        E 30 80 69 00
        E 0 90 69 64
        E 0 90 74 64
        <X 360 0
          /wVNby0=
        >
        E 0 90 37 64
        E 90 80 37 00
        <X 30 0
          /wVyZS0=
        >
        E 0 90 37 64
        E 90 80 37 00
        <X 30 0
          /wVuYQ==
        >
        E 0 90 37 64
        E 150 80 37 00
        <X 90 0
          /wVxdWVt
        >
        E 0 90 37 64
        E 90 80 37 00
        <X 30 0
          /wV0ZW0t
        >
        E 0 90 40 64
        E 180 80 40 00
        <X 30 0
          /wVwZS0=
        >
        E 0 90 40 64
        E 180 80 40 00
        <X 60 0
          /wVyb3U=
        >
        E 0 90 3e 64
        E 270 80 3e 00
        E 0 90 01 64
        E 30 80 01 00
        <X 90 0
          /wVjaS0=
        >
        E 0 90 3c 64
        E 90 80 3c 00
        <X 30 0
          /wVnYS0=
        >
        E 0 90 40 64
        E 90 80 40 00
        <X 30 0
          /wVuYQ==
        >
        E 0 90 40 64
        E 120 80 40 00
        <X 120 0
          /wVxdWVt
        >
        E 0 90 3e 64
        E 180 80 3e 00
        <X 60 0
          /wV0ZW0t
        >
        E 0 90 3e 64
        E 150 80 3e 00
        <X 60 0
          /wVwZS0=
        >
        E 0 90 3c 64
        E 90 80 3c 00
        <X 60 0
          /wVyb3U=
        >
        E 0 90 3c 64
        E 300 80 69 00
        E 0 80 74 00
        E 0 80 3c 00
        E 0 90 69 64
        <X 65 0
          /wVP
        >
        E 0 90 37 64
        E 90 80 37 00
        <X 25 0
          /wVjaGVpLQ==
        >
        E 0 90 3c 64
        E 90 80 3c 00
        <X 30 0
          /wVybw==
        >
        E 0 90 3c 64
        E 210 80 3c 00
        <X 30 0
          /wVkbw==
        >
        E 0 90 3b 64
        E 90 80 3b 00
        <X 30 0
          /wVjcmEt
        >
        E 0 90 3b 64
        E 150 80 3b 00
        <X 90 0
          /wV2bw==
        >
        E 0 90 39 64
        E 960 80 39 00
        E 240 80 69 00
        E 480 90 69 64
        <X 360 0
          /wVDaS0=
        >
        E 0 90 37 64
        E 90 80 37 00
        <X 30 0
          /wVnYS0=
        >
        E 0 90 37 64
        E 89 80 37 00
        <X 30 0
          /wVuYQ==
        >
        E 0 90 37 64
        E 150 80 37 00
        <X 90 0
          /wVxdWVt
        >
        E 0 90 37 64
        E 90 80 37 00
        <X 30 0
          /wV0ZW0t
        >
        E 0 90 40 64
        E 150 80 40 00
        <X 60 0
          /wVwZS0=
        >
        E 0 90 40 64
        E 151 80 40 00
        <X 119 0
          /wVyb3U=
        >
        E 0 90 3e 64
        E 270 80 3e 00
        E 31 90 01 64
        E 30 80 01 00
        <X 29 0
          /wVtby0=
        >
        E 0 90 3c 64
        E 90 80 3c 00
        <X 30 0
          /wVyZS0=
        >
        E 0 90 40 64
        E 90 80 40 00
        <X 30 0
          /wVuYQ==
        >
        E 0 90 40 64
        E 120 80 40 00
        <X 120 0
          /wVxdWVt
        >
        E 0 90 3e 64
        E 180 80 3e 00
        <X 60 0
          /wV0ZW0t
        >
        E 0 90 3e 64
        E 150 80 3e 00
        <X 60 0
          /wVwZS0=
        >
        E 0 90 3c 64
        E 90 80 3c 00
        <X 61 0
          /wVyb3U=
        >
        E 0 90 3c 64
        E 300 80 69 00
        E 0 80 3c 00
        E 0 90 69 64
        <X 94 0
          /wVB
        >
        E 0 90 37 64
        E 90 80 37 00
        <X 25 0
          /wVjb3I=
        >
        E 0 90 3c 64
        E 90 80 3c 00
        <X 31 0
          /wVkZQ==
        >
        E 0 90 3c 64
        E 209 80 3c 00
        <X 30 0
          /wVjYS0=
        >
        E 0 90 3b 64
        E 90 80 3b 00
        <X 30 0
          /wVuZS0=
        >
        E 0 90 3b 64
        E 151 80 3b 00
        <X 89 0
          /wVsYQ==
        >
        E 0 90 39 64
        E 181 80 39 00
        E 30 80 69 00
        E 0 90 69 64
        <X 360 0
          /wVNby0=
        >
        E 0 90 37 64
        E 90 80 37 00
        <X 30 0
          /wVyZS0=
        >
        E 0 90 37 64
        E 90 80 37 00
        <X 30 0
          /wVuYQ==
        >
        E 0 90 37 64
        E 150 80 37 00
        <X 90 0
          /wVxdWVt
        >
        E 0 90 37 64
        E 90 80 37 00
        <X 30 0
          /wV0ZW0t
        >
        E 0 90 40 64
        E 180 80 40 00
        <X 30 0
          /wVwZS0=
        >
        E 0 90 40 64
        E 180 80 40 00
        <X 60 0
          /wVyb3U=
        >
        E 0 90 3e 64
        E 270 80 3e 00
        E 0 90 01 64
        E 30 80 01 00
        <X 90 0
          /wVjaS0=
        >
        E 0 90 3c 64
        E 90 80 3c 00
        <X 30 0
          /wVnYS0=
        >
        E 0 90 40 64
        E 90 80 40 00
        <X 30 0
          /wVuYQ==
        >
        E 0 90 40 64
        E 120 80 40 00
        <X 120 0
          /wVxdWVt
        >
        E 0 90 3e 64
        E 180 80 3e 00
        <X 60 0
          /wV0ZW0t
        >
        E 0 90 3e 64
        E 150 80 3e 00
        <X 60 0
          /wVwZS0=
        >
        E 0 90 3c 64
        E 90 80 3c 00
        <X 60 0
          /wVyb3U=
        >
        E 0 90 3c 64
        E 293 80 3c 00
        E 7 80 69 00
        E 0 90 69 64
        E 0 90 74 64
        <X 65 0
          /wVP
        >
        E 0 90 37 64
        E 90 80 37 00
        <X 25 0
          /wVjaGVpLQ==
        >
        E 0 90 3c 64
        E 90 80 3c 00
        <X 30 0
          /wVybw==
        >
        E 0 90 3c 64
        E 210 80 3c 00
        <X 30 0
          /wVkbw==
        >
        E 0 90 3b 64
        E 90 80 3b 00
        <X 30 0
          /wVjcmEt
        >
        E 0 90 3b 64
        E 150 80 3b 00
        <X 90 0
          /wV2bw==
        >
        E 0 90 39 64
        E 720 80 39 00
        E 480 80 69 00
        E 0 80 74 00
        E 240 90 69 64
        <X 240 0
          /wXK
        >
        E 0 90 39 64
        E 270 80 39 00
        <X 90 0
          /wVjaS0=
        >
        E 0 90 37 64
        E 90 80 37 00
        <X 30 0
          /wVnYS0=
        >
        E 0 90 37 64
        E 89 80 37 00
        <X 30 0
          /wVuYQ==
        >
        E 0 90 37 64
        E 150 80 37 00
        <X 90 0
          /wVxdWVt
        >
        E 0 90 37 64
        E 90 80 37 00
        <X 30 0
          /wV0ZW0t
        >
        E 0 90 40 64
        E 150 80 40 00
        <X 60 0
          /wVwZS0=
        >
        E 0 90 40 64
        E 151 80 40 00
        <X 119 0
          /wVyb3U=
        >
        E 0 90 3e 64
        E 270 80 3e 00
        E 31 90 01 64
        E 30 80 01 00
        <X 29 0
          /wVtby0=
        >
        E 0 90 3c 64
        E 90 80 3c 00
        <X 30 0
          /wVyZS0=
        >
        E 0 90 40 64
        E 90 80 40 00
        <X 30 0
          /wVuYQ==
        >
        E 0 90 40 64
        E 120 80 40 00
        <X 120 0
          /wVxdWVt
        >
        E 0 90 3e 64
        E 180 80 3e 00
        <X 60 0
          /wV0ZW0t
        >
        E 0 90 3e 64
        E 150 80 3e 00
        <X 60 0
          /wVwZS0=
        >
        E 0 90 3c 64
        E 90 80 3c 00
        <X 61 0
          /wVyb3U=
        >
        E 0 90 3c 64
        E 300 80 69 00
        E 0 80 3c 00
        E 0 90 69 64
        <X 94 0
          /wVB
        >
        E 0 90 37 64
        E 90 80 37 00
        <X 25 0
          /wVjb3I=
        >
        E 0 90 3c 64
        E 90 80 3c 00
        <X 31 0
          /wVkZQ==
        >
        E 0 90 3c 64
        E 209 80 3c 00
        <X 30 0
          /wVjYS0=
        >
        E 0 90 3b 64
        E 90 80 3b 00
        <X 30 0
          /wVuZS0=
        >
        E 0 90 3b 64
        E 151 80 3b 00
        <X 89 0
          /wVsYQ==
        >
        E 0 90 39 64
        E 181 80 39 00
        E 30 80 69 00
        E 240 90 69 64
        <X 120 0
          /wVNby0=
        >
        E 0 90 37 64
        E 90 80 37 00
        <X 30 0
          /wVyZS0=
        >
        E 0 90 37 64
        E 90 80 37 00
        <X 30 0
          /wVuYQ==
        >
        E 0 90 37 64
        E 150 80 37 00
        <X 90 0
          /wVxdWVt
        >
        E 0 90 37 64
        E 90 80 37 00
        <X 30 0
          /wV0ZW0t
        >
        E 0 90 40 64
        E 180 80 40 00
        <X 30 0
          /wVwZS0=
        >
        E 0 90 40 64
        E 180 80 40 00
        <X 60 0
          /wVyb3U=
        >
        E 0 90 3e 64
        E 270 80 3e 00
        E 0 90 01 64
        E 30 80 01 00
        <X 90 0
          /wVjaS0=
        >
        E 0 90 3c 64
        E 90 80 3c 00
        <X 30 0
          /wVnYS0=
        >
        E 0 90 40 64
        E 90 80 40 00
        <X 30 0
          /wVuYQ==
        >
        E 0 90 40 64
        E 120 80 40 00
        <X 120 0
          /wVxdWVt
        >
        E 0 90 3e 64
        E 180 80 3e 00
        <X 60 0
          /wV0ZW0t
        >
        E 0 90 3e 64
        E 150 80 3e 00
        <X 60 0
          /wVwZS0=
        >
        E 0 90 3c 64
        E 90 80 3c 00
        <X 60 0
          /wVyb3U=
        >
        E 0 90 3c 64
        E 300 80 69 00
        E 0 80 3c 00
        E 0 90 69 64
        <X 65 0
          /wVP
        >
        E 0 90 37 64
        E 90 80 37 00
        <X 25 0
          /wVjaGVpLQ==
        >
        E 0 90 3c 64
        E 90 80 3c 00
        <X 30 0
          /wVybw==
        >
        E 0 90 3c 64
        E 210 80 3c 00
        <X 30 0
          /wVkbw==
        >
        E 0 90 3b 64
        E 90 80 3b 00
        <X 30 0
          /wVjcmEt
        >
        E 0 90 3b 64
        E 150 80 3b 00
        <X 90 0
          /wV2bw==
        >
        E 0 90 39 64
        E 720 80 39 00
        E 480 80 69 00
        E 480 90 69 64
        <X 360 0
          /wVDaS0=
        >
        E 0 90 37 64
        E 90 80 37 00
        <X 30 0
          /wVnYS0=
        >
        E 0 90 37 64
        E 89 80 37 00
        <X 30 0
          /wVuYQ==
        >
        E 0 90 37 64
        E 150 80 37 00
        <X 90 0
          /wVxdWVt
        >
        E 0 90 37 64
        E 90 80 37 00
        <X 30 0
          /wV0ZW0t
        >
        E 0 90 40 64
        E 150 80 40 00
        <X 60 0
          /wVwZS0=
        >
        E 0 90 40 64
        E 151 80 40 00
        <X 119 0
          /wVyb3U=
        >
        E 0 90 3e 64
        E 270 80 3e 00
        E 31 90 01 64
        E 30 80 01 00
        <X 29 0
          /wVtby0=
        >
        E 0 90 3c 64
        E 90 80 3c 00
        <X 30 0
          /wVyZS0=
        >
        E 0 90 40 64
        E 90 80 40 00
        <X 30 0
          /wVuYQ==
        >
        E 0 90 40 64
        E 120 80 40 00
        <X 120 0
          /wVxdWVt
        >
        E 0 90 3e 64
        E 180 80 3e 00
        <X 60 0
          /wV0ZW0t
        >
        E 0 90 3e 64
        E 150 80 3e 00
        <X 60 0
          /wVwZS0=
        >
        E 0 90 3c 64
        E 90 80 3c 00
        <X 61 0
          /wVyb3U=
        >
        E 0 90 3c 64
        E 300 80 69 00
        E 0 80 3c 00
        E 0 90 69 64
        <X 94 0
          /wVB
        >
        E 0 90 37 64
        E 90 80 37 00
        <X 25 0
          /wVjb3I=
        >
        E 0 90 3c 64
        E 90 80 3c 00
        <X 31 0
          /wVkZQ==
        >
        E 0 90 3c 64
        E 209 80 3c 00
        <X 30 0
          /wVjYS0=
        >
        E 0 90 3b 64
        E 90 80 3b 00
        <X 30 0
          /wVuZS0=
        >
        E 0 90 3b 64
        E 151 80 3b 00
        <X 89 0
          /wVsYQ==
        >
        E 0 90 39 64
        E 181 80 39 00
        E 30 80 69 00
        <X 1 0
          /wFbaWRsZV9yZWFsdGltZV0=
        >
        E 2879 b0 7b 00
        GUID {6212B98E-44B2-4A73-AE9E-466F0D166ED4}
        IGNTEMPO 0 120.00000000 4 4
        SRCCOLOR 63
        VELLANE 132 128 60
        COLORMAP "C:\Program Files\REAPER (x64)\Data\color_maps\rockband_guitarbass.png"
        CFGEDITVIEW 121401.874066 77.045057 0 12 0 0 0
        CFGEDIT 1 1 0 1 1 0 1 1 1 1 1 0.12500000 -8 -8 1544 872 0 2 1 1 0.00000000 0 1 0 0 0.500000 0 0 1.000000 64
        KEYSNAP 0 7 "102030050700" 0 "Pentatonic"
        EVTFILTER 0 -1 -1 -1 -1 0 1 0 0 -1.00000000 -1.00000000
      >
    >
  >
  <TRACK '{A4716EDF-BB2C-467D-B843-3D562D83CB9E}'
    NAME "HARM2"
    PEAKCOL 16576
    BEAT -1
    AUTOMODE 0
    VOLPAN 1.00000000000000 0.00000000000000 -1.00000000000000 -1.00000000000000 1.00000000000000
    MUTESOLO 0 0 0
    IPHASE 0
    ISBUS 2 -1
    BUSCOMP 0 0
    SHOWINMIX 1 0.666700 0.500000 1 0.500000 -1 -1 -1
    FREEMODE 0
    SEL 1
    REC 0 0 0 0 0 0 0
    VU 2
    TRACKHEIGHT 0 0
    INQ 0 0 0 0.5000000000 100 0 0 100
    NCHAN 2
    FX 0
    TRACKID {A4716EDF-BB2C-467D-B843-3D562D83CB9E}
    PERF 0
    MIDIOUT -1
    <MIDINOTENAMES
      0 105 "Phrase Marker"
      0 104 "----"
      0 84 "C6 (Unused Highest Note)"
      0 83 "B5"
      0 82 "A#4"
      0 81 "A4"
      0 80 "G#4"
      0 79 "G4"
      0 78 "F#4"
      0 77 "F4"
      0 76 "E4"
      0 75 "D#4"
      0 74 "D4"
      0 73 "C#4"
      0 72 "C4"
      0 71 "B3"
      0 70 "A#3"
      0 69 "A3"
      0 68 "G#3"
      0 67 "G3"
      0 66 "F#3"
      0 65 "F3"
      0 64 "E3"
      0 63 "D#3"
      0 62 "D3"
      0 61 "C#3"
      0 60 "C3"
      0 59 "B2"
      0 58 "A#2"
      0 57 "A2"
      0 56 "G#2"
      0 55 "G2"
      0 54 "F#2"
      0 53 "F2"
      0 52 "E2"
      0 51 "D#2"
      0 50 "D2"
      0 49 "C#2"
      0 48 "C2"
      0 47 "B1"
      0 46 "A#1"
      0 45 "A1"
      0 44 "G#1"
      0 43 "G1"
      0 42 "F#1"
      0 41 "F1"
      0 40 "E1"
      0 39 "D#1"
      0 38 "D1"
      0 37 "C#1"
      0 36 "Lowest Note C1"
    >
    MAINSEND 1 0
    <FXCHAIN
      WNDRECT 0 43 655 467
      SHOW 0
      LASTSEL 1
      DOCKED 0
      BYPASS 0 0
      <JS "MIDI/midi_note_filter" ""
        36.000000 84.000000 - - - - - - - - - - - - - - - - - - - - - - - - - - - - - - - - - - - - - - - - - - - - - - - - - - - - - - - - - - - - - - 
      >
      FLOATPOS 0 0 0 0
      FXID {7F1CBC70-4BE4-4709-B565-7841A11E66D4}
      WAK 0
      BYPASS 0 0
      <VST "VSTi: ReaSynth (Cockos)" "reasynth.dll" 0 ""
        eXNlcu9e7f4AAAAAAgAAAAEAAAAAAAAAAgAAAAAAAAA4AAAAAAAAAA==
        AAAQAO++rd4N8K3eppvEOxe30ToAAIA/AAAAAAAAAADMm4A+6WeIPQ==
        AAAAAAAAAD8AAIA/AACAPwAAAD8AABAAAAA=
      >
      FLOATPOS 0 0 0 0
      FXID {F8446969-7B97-4463-B748-AC4BFD9A8B6E}
      WAK 0
    >
    <ITEM
      POSITION 0.00000000000000
      SNAPOFFS 0.00000000000000
      LENGTH 145.04278911564626
      LOOP 0
      ALLTAKES 0
      SEL 0
      FADEIN 1 0.000000 0.000000 1 0
      FADEOUT 1 0.000000 0.000000 1 0
      MUTE 0
      IGUID {CA2550C0-E753-4F2A-A37E-81094974AF43}
      IID 6
      NAME "HARM2"
      VOLPAN 1.000000 0.000000 1.000000 -1.000000
      SOFFS 0.00000000000000 0.00000000000000
      PLAYRATE 1.00000000000000 1 0.00000000000000 -1
      CHANMODE 0
      GUID {AEDE042D-3DFD-4436-BF07-833DD4AE181C}
      <SOURCE MIDI
        HASDATA 1 480 QN
        POOLEDEVTS {0F644E62-244D-4AD4-8488-1A2DA841725A}
        <X 0 0
          /wNIQVJNMg==
        >
        E 54240 90 69 64
        <X 480 0
          /wXK
        >
        E 0 90 39 64
        E 270 80 39 00
        <X 90 0
          /wVtby0=
        >
        E 0 90 37 64
        E 90 80 37 00
        <X 30 0
          /wVyZS0=
        >
        E 0 90 37 64
        E 90 80 37 00
        <X 30 0
          /wVuYQ==
        >
        E 0 90 37 64
        E 150 80 37 00
        <X 90 0
          /wVxdWVt
        >
        E 0 90 37 64
        E 90 80 37 00
        <X 30 0
          /wV0ZW0t
        >
        E 0 90 40 64
        E 150 80 40 00
        <X 90 0
          /wVwZS0=
        >
        E 0 90 40 64
        E 120 80 40 00
        <X 90 0
          /wVyb3U=
        >
        E 0 90 3e 64
        E 240 80 3e 00
        E 60 80 69 00
        E 0 90 68 64
        E 0 90 69 64
        E 30 80 68 00
        <X 60 0
          /wVjaS0=
        >
        E 0 90 3c 64
        E 90 80 3c 00
        <X 30 0
          /wVnYS0=
        >
        E 0 90 40 64
        E 90 80 40 00
        <X 30 0
          /wVuYQ==
        >
        E 0 90 40 64
        E 120 80 40 00
        <X 120 0
          /wVxdWVt
        >
        E 0 90 3e 64
        E 180 80 3e 00
        <X 60 0
          /wV0ZW0t
        >
        E 0 90 3e 64
        E 150 80 3e 00
        <X 60 0
          /wVwZS0=
        >
        E 0 90 3c 64
        E 90 80 3c 00
        <X 60 0
          /wVyb3U=
        >
        E 0 90 3c 64
        E 300 80 3c 00
        E 30 80 69 00
        E 0 90 69 64
        <X 35 0
          /wVP
        >
        E 0 90 37 64
        E 90 80 37 00
        <X 25 0
          /wVjaGVpLQ==
        >
        E 0 90 3c 64
        E 90 80 3c 00
        <X 30 0
          /wVybw==
        >
        E 0 90 3c 64
        E 210 80 3c 00
        <X 30 0
          /wVkbw==
        >
        E 0 90 3b 64
        E 90 80 3b 00
        <X 30 0
          /wVjcmEt
        >
        E 0 90 3b 64
        E 150 80 3b 00
        <X 90 0
          /wV2bw==
        >
        E 0 90 39 64
        E 960 80 39 00
        E 240 80 69 00
        E 480 90 69 64
        <X 360 0
          /wVDaS0=
        >
        E 0 90 37 64
        E 90 80 37 00
        <X 30 0
          /wVnYS0=
        >
        E 0 90 37 64
        E 89 80 37 00
        <X 30 0
          /wVuYQ==
        >
        E 0 90 37 64
        E 150 80 37 00
        <X 90 0
          /wVxdWVt
        >
        E 0 90 37 64
        E 90 80 37 00
        <X 30 0
          /wV0ZW0t
        >
        E 0 90 40 64
        E 181 80 40 00
        <X 59 0
          /wVwZS0=
        >
        E 0 90 40 64
        E 181 80 40 00
        <X 59 0
          /wVyb3U=
        >
        E 0 90 3e 64
        E 270 80 3e 00
        E 31 80 69 00
        E 0 90 68 64
        E 0 90 69 64
        E 30 80 68 00
        <X 29 0
          /wVtby0=
        >
        E 0 90 3c 64
        E 90 80 3c 00
        <X 30 0
          /wVyZS0=
        >
        E 0 90 40 64
        E 90 80 40 00
        <X 30 0
          /wVuYQ==
        >
        E 0 90 40 64
        E 120 80 40 00
        <X 120 0
          /wVxdWVt
        >
        E 0 90 3e 64
        E 180 80 3e 00
        <X 60 0
          /wV0ZW0t
        >
        E 0 90 3e 64
        E 150 80 3e 00
        <X 90 0
          /wVwZS0=
        >
        E 0 90 3c 64
        E 90 80 3c 00
        <X 31 0
          /wVyb3U=
        >
        E 0 90 3c 64
        E 300 80 3c 00
        E 30 80 69 00
        E 0 90 69 64
        <X 64 0
          /wVB
        >
        E 0 90 37 64
        E 90 80 37 00
        <X 25 0
          /wVjb3I=
        >
        E 0 90 3c 64
        E 90 80 3c 00
        <X 31 0
          /wVkZQ==
        >
        E 0 90 3c 64
        E 209 80 3c 00
        <X 30 0
          /wVjYS0=
        >
        E 0 90 3b 64
        E 90 80 3b 00
        <X 30 0
          /wVuZS0=
        >
        E 0 90 3b 64
        E 151 80 3b 00
        <X 89 0
          /wVsYQ==
        >
        E 0 90 39 64
        E 691 80 39 00
        E 960 80 69 00
        E 11280 90 69 64
        <X 270 0
          /wVBaD0=
        >
        E 0 90 48 64
        E 150 80 48 00
        <X 90 0
          /wUr
        >
        E 0 90 47 64
        E 30 80 47 00
        <X 90 0
          /wVyYT0=
        >
        E 0 90 47 64
        E 180 80 47 00
        <X 60 0
          /wVyYT0=
        >
        E 0 90 47 64
        E 180 80 47 00
        <X 60 0
          /wVyYT0=
        >
        E 0 90 47 64
        E 90 80 47 00
        <X 30 0
          /wVyYT0=
        >
        E 0 90 47 64
        E 180 80 47 00
        <X 60 0
          /wVyYQ==
        >
        E 0 90 45 64
        E 180 80 69 00
        E 0 80 45 00
        E 0 90 69 64
        <X 60 0
          /wVBPQ==
        >
        E 0 90 47 64
        E 30 80 47 00
        <X 30 0
          /wUr
        >
        E 0 90 48 64
        E 120 80 48 00
        <X 60 0
          /wUr
        >
        E 0 90 47 64
        E 30 80 47 00
        <X 90 0
          /wVyYT0=
        >
        E 0 90 47 64
        E 150 80 47 00
        <X 90 0
          /wVyYT0=
        >
        E 0 90 47 64
        E 180 80 47 00
        <X 60 0
          /wVyYT0=
        >
        E 0 90 45 64
        E 60 80 45 00
        <X 60 0
          /wVyYQ==
        >
        E 0 90 45 64
        E 150 80 45 00
        E 90 80 69 00
        E 0 90 69 64
        <X 210 0
          /wVBaD0=
        >
        E 0 90 48 64
        E 150 80 48 00
        <X 90 0
          /wUr
        >
        E 0 90 47 64
        E 30 80 47 00
        <X 90 0
          /wVyYT0=
        >
        E 0 90 47 64
        E 180 80 47 00
        <X 60 0
          /wVyYT0=
        >
        E 0 90 47 64
        E 180 80 47 00
        <X 60 0
          /wVyYT0=
        >
        E 0 90 47 64
        E 90 80 47 00
        <X 30 0
          /wVyYT0=
        >
        E 0 90 47 64
        E 180 80 47 00
        <X 60 0
          /wVyYQ==
        >
        E 0 90 45 64
        E 180 80 69 00
        E 0 80 45 00
        E 0 90 69 64
        <X 60 0
          /wVBPQ==
        >
        E 0 90 47 64
        E 30 80 47 00
        <X 30 0
          /wUr
        >
        E 0 90 48 64
        E 120 80 48 00
        <X 60 0
          /wUr
        >
        E 0 90 47 64
        E 30 80 47 00
        <X 90 0
          /wVyYT0=
        >
        E 0 90 47 64
        E 150 80 47 00
        <X 90 0
          /wVyYT0=
        >
        E 0 90 47 64
        E 180 80 47 00
        <X 60 0
          /wVyYT0=
        >
        E 0 90 45 64
        E 60 80 45 00
        <X 60 0
          /wVyYQ==
        >
        E 0 90 45 64
        E 150 80 45 00
        E 330 80 69 00
        E 11040 90 69 64
        <X 480 0
          /wXK
        >
        E 0 90 39 64
        E 270 80 69 00
        E 0 80 39 00
        E 0 90 69 64
        <X 90 0
          /wVtby0=
        >
        E 0 90 37 64
        E 90 80 37 00
        <X 30 0
          /wVyZS0=
        >
        E 0 90 37 64
        E 90 80 37 00
        <X 30 0
          /wVuYQ==
        >
        E 0 90 37 64
        E 150 80 37 00
        <X 90 0
          /wVxdWVt
        >
        E 0 90 37 64
        E 90 80 37 00
        <X 30 0
          /wV0ZW0t
        >
        E 0 90 40 64
        E 180 80 40 00
        <X 30 0
          /wVwZS0=
        >
        E 0 90 40 64
        E 180 80 40 00
        <X 60 0
          /wVyb3U=
        >
        E 0 90 3e 64
        E 270 80 3e 00
        E 60 80 69 00
        E 0 90 69 64
        <X 60 0
          /wVjaS0=
        >
        E 0 90 3c 64
        E 90 80 3c 00
        <X 30 0
          /wVnYS0=
        >
        E 0 90 40 64
        E 90 80 40 00
        <X 30 0
          /wVuYQ==
        >
        E 0 90 40 64
        E 120 80 40 00
        <X 120 0
          /wVxdWVt
        >
        E 0 90 3e 64
        E 180 80 3e 00
        <X 60 0
          /wV0ZW0t
        >
        E 0 90 3e 64
        E 150 80 3e 00
        <X 60 0
          /wVwZS0=
        >
        E 0 90 3c 64
        E 90 80 3c 00
        <X 60 0
          /wVyb3U=
        >
        E 0 90 3c 64
        E 300 80 69 00
        E 0 80 3c 00
        E 0 90 69 64
        <X 65 0
          /wVP
        >
        E 0 90 37 64
        E 90 80 37 00
        <X 25 0
          /wVjaGVpLQ==
        >
        E 0 90 3c 64
        E 90 80 3c 00
        <X 30 0
          /wVybw==
        >
        E 0 90 3c 64
        E 210 80 3c 00
        <X 30 0
          /wVkbw==
        >
        E 0 90 3b 64
        E 90 80 3b 00
        <X 30 0
          /wVjcmEt
        >
        E 0 90 3b 64
        E 150 80 3b 00
        <X 90 0
          /wV2bw==
        >
        E 0 90 39 64
        E 960 80 39 00
        E 240 80 69 00
        E 480 90 69 64
        <X 360 0
          /wVDaS0=
        >
        E 0 90 37 64
        E 90 80 37 00
        <X 30 0
          /wVnYS0=
        >
        E 0 90 37 64
        E 89 80 37 00
        <X 30 0
          /wVuYQ==
        >
        E 0 90 37 64
        E 150 80 37 00
        <X 90 0
          /wVxdWVt
        >
        E 0 90 37 64
        E 90 80 37 00
        <X 30 0
          /wV0ZW0t
        >
        E 0 90 40 64
        E 150 80 40 00
        <X 60 0
          /wVwZS0=
        >
        E 0 90 40 64
        E 151 80 40 00
        <X 119 0
          /wVyb3U=
        >
        E 0 90 3e 64
        E 270 80 3e 00
        E 31 80 69 00
        E 0 90 69 64
        <X 59 0
          /wVtby0=
        >
        E 0 90 3c 64
        E 90 80 3c 00
        <X 30 0
          /wVyZS0=
        >
        E 0 90 40 64
        E 90 80 40 00
        <X 30 0
          /wVuYQ==
        >
        E 0 90 40 64
        E 120 80 40 00
        <X 120 0
          /wVxdWVt
        >
        E 0 90 3e 64
        E 180 80 3e 00
        <X 60 0
          /wV0ZW0t
        >
        E 0 90 3e 64
        E 150 80 3e 00
        <X 60 0
          /wVwZS0=
        >
        E 0 90 3c 64
        E 90 80 3c 00
        <X 61 0
          /wVyb3U=
        >
        E 0 90 3c 64
        E 300 80 3c 00
        E 60 80 69 00
        E 0 90 69 64
        <X 34 0
          /wVB
        >
        E 0 90 37 64
        E 90 80 37 00
        <X 25 0
          /wVjb3I=
        >
        E 0 90 3c 64
        E 90 80 3c 00
        <X 31 0
          /wVkZQ==
        >
        E 0 90 3c 64
        E 209 80 3c 00
        <X 30 0
          /wVjYS0=
        >
        E 0 90 3b 64
        E 90 80 3b 00
        <X 30 0
          /wVuZS0=
        >
        E 0 90 3b 64
        E 151 80 3b 00
        <X 89 0
          /wVsYQ==
        >
        E 0 90 39 64
        E 181 80 39 00
        E 30 80 69 00
        E 5760 90 69 64
        <X 360 0
          /wVDaS0=
        >
        E 0 90 37 64
        E 90 80 37 00
        <X 30 0
          /wVnYS0=
        >
        E 0 90 37 64
        E 89 80 37 00
        <X 30 0
          /wVuYQ==
        >
        E 0 90 37 64
        E 150 80 37 00
        <X 90 0
          /wVxdWVt
        >
        E 0 90 37 64
        E 90 80 37 00
        <X 30 0
          /wV0ZW0t
        >
        E 0 90 40 64
        E 150 80 40 00
        <X 60 0
          /wVwZS0=
        >
        E 0 90 40 64
        E 151 80 40 00
        <X 119 0
          /wVyb3U=
        >
        E 0 90 3e 64
        E 270 80 3e 00
        E 31 80 69 00
        E 0 90 69 64
        <X 59 0
          /wVtby0=
        >
        E 0 90 3c 64
        E 90 80 3c 00
        <X 30 0
          /wVyZS0=
        >
        E 0 90 40 64
        E 90 80 40 00
        <X 30 0
          /wVuYQ==
        >
        E 0 90 40 64
        E 120 80 40 00
        <X 120 0
          /wVxdWVt
        >
        E 0 90 3e 64
        E 180 80 3e 00
        <X 60 0
          /wV0ZW0t
        >
        E 0 90 3e 64
        E 150 80 3e 00
        <X 60 0
          /wVwZQ==
        >
        E 0 90 3c 64
        E 90 80 3c 00
        <X 61 0
          /wVyb3U=
        >
        E 0 90 3c 64
        E 300 80 69 00
        E 0 80 3c 00
        E 0 90 69 64
        <X 94 0
          /wVB
        >
        E 0 90 37 64
        E 90 80 37 00
        <X 25 0
          /wVjb3I=
        >
        E 0 90 3c 64
        E 90 80 3c 00
        <X 31 0
          /wVkZQ==
        >
        E 0 90 3c 64
        E 209 80 3c 00
        <X 30 0
          /wVjYS0=
        >
        E 0 90 3b 64
        E 90 80 3b 00
        <X 30 0
          /wVuZS0=
        >
        E 0 90 3b 64
        E 151 80 3b 00
        <X 89 0
          /wVsYQ==
        >
        E 0 90 39 64
        E 181 80 39 00
        E 30 80 69 00
        E 5520 90 69 64
        <X 240 0
          /wXK
        >
        E 0 90 39 64
        E 270 80 39 00
        <X 90 0
          /wVjaS0=
        >
        E 0 90 37 64
        E 90 80 37 00
        <X 30 0
          /wVnYS0=
        >
        E 0 90 37 64
        E 89 80 37 00
        <X 30 0
          /wVuYQ==
        >
        E 0 90 37 64
        E 150 80 37 00
        <X 90 0
          /wVxdWVt
        >
        E 0 90 37 64
        E 90 80 37 00
        <X 30 0
          /wV0ZW0t
        >
        E 0 90 40 64
        E 150 80 40 00
        <X 60 0
          /wVwZS0=
        >
        E 0 90 40 64
        E 151 80 40 00
        <X 119 0
          /wVyb3U=
        >
        E 0 90 3e 64
        E 270 80 3e 00
        E 31 80 69 00
        E 0 90 69 64
        <X 59 0
          /wVtby0=
        >
        E 0 90 3c 64
        E 90 80 3c 00
        <X 30 0
          /wVyZS0=
        >
        E 0 90 40 64
        E 90 80 40 00
        <X 30 0
          /wVuYQ==
        >
        E 0 90 40 64
        E 120 80 40 00
        <X 120 0
          /wVxdWVt
        >
        E 0 90 3e 64
        E 180 80 3e 00
        <X 60 0
          /wV0ZW0t
        >
        E 0 90 3e 64
        E 150 80 3e 00
        <X 60 0
          /wVwZS0=
        >
        E 0 90 3c 64
        E 90 80 3c 00
        <X 61 0
          /wVyb3U=
        >
        E 0 90 3c 64
        E 300 80 69 00
        E 0 80 3c 00
        E 0 90 69 64
        <X 94 0
          /wVB
        >
        E 0 90 37 64
        E 90 80 37 00
        <X 25 0
          /wVjb3I=
        >
        E 0 90 3c 64
        E 90 80 3c 00
        <X 31 0
          /wVkZQ==
        >
        E 0 90 3c 64
        E 209 80 3c 00
        <X 30 0
          /wVjYS0=
        >
        E 0 90 3b 64
        E 90 80 3b 00
        <X 30 0
          /wVuZS0=
        >
        E 0 90 3b 64
        E 151 80 3b 00
        <X 89 0
          /wVsYQ==
        >
        E 0 90 39 64
        E 181 80 39 00
        E 30 80 69 00
        E 5760 90 69 64
        <X 360 0
          /wVDaS0=
        >
        E 0 90 37 64
        E 90 80 37 00
        <X 30 0
          /wVnYS0=
        >
        E 0 90 37 64
        E 89 80 37 00
        <X 30 0
          /wVuYQ==
        >
        E 0 90 37 64
        E 150 80 37 00
        <X 90 0
          /wVxdWVt
        >
        E 0 90 37 64
        E 90 80 37 00
        <X 30 0
          /wV0ZW0t
        >
        E 0 90 40 64
        E 150 80 40 00
        <X 60 0
          /wVwZS0=
        >
        E 0 90 40 64
        E 151 80 40 00
        <X 119 0
          /wVyb3U=
        >
        E 0 90 3e 64
        E 270 80 3e 00
        E 31 80 69 00
        E 0 90 69 64
        <X 59 0
          /wVtby0=
        >
        E 0 90 3c 64
        E 90 80 3c 00
        <X 30 0
          /wVyZS0=
        >
        E 0 90 40 64
        E 90 80 40 00
        <X 30 0
          /wVuYQ==
        >
        E 0 90 40 64
        E 120 80 40 00
        <X 120 0
          /wVxdWVt
        >
        E 0 90 3e 64
        E 180 80 3e 00
        <X 60 0
          /wV0ZW0t
        >
        E 0 90 3e 64
        E 150 80 3e 00
        <X 60 0
          /wVwZS0=
        >
        E 0 90 3c 64
        E 90 80 3c 00
        <X 61 0
          /wVyb3U=
        >
        E 0 90 3c 64
        E 300 80 69 00
        E 0 80 3c 00
        E 0 90 69 64
        <X 94 0
          /wVB
        >
        E 0 90 37 64
        E 90 80 37 00
        <X 25 0
          /wVjb3I=
        >
        E 0 90 3c 64
        E 90 80 3c 00
        <X 31 0
          /wVkZQ==
        >
        E 0 90 3c 64
        E 209 80 3c 00
        <X 30 0
          /wVjYS0=
        >
        E 0 90 3b 64
        E 90 80 3b 00
        <X 30 0
          /wVuZS0=
        >
        E 0 90 3b 64
        E 151 80 3b 00
        <X 89 0
          /wVsYQ==
        >
        E 0 90 39 64
        E 181 80 39 00
        E 29 80 69 00
        E 2881 b0 7b 00
        GUID {C095612C-FC38-4E26-9332-5077A622AC1E}
        IGNTEMPO 0 120.00000000 4 4
        SRCCOLOR 64
        VELLANE 132 128 60
        COLORMAP "C:\Program Files\REAPER (x64)\Data\color_maps\rockband_guitarbass.png"
        CFGEDITVIEW 121401.874066 77.045057 0 12 0 0 0
        CFGEDIT 1 1 0 1 1 0 1 1 1 1 1 0.12500000 -8 -8 1544 872 0 2 1 1 0.00000000 0 1 0 0 0.500000 0 0 1.000000 64
        KEYSNAP 0 7 "102030050700" 0 "Pentatonic"
        EVTFILTER 0 -1 -1 -1 -1 0 1 0 0 -1.00000000 -1.00000000
      >
    >
  >
  <TRACK '{400C3742-F7FE-427A-8DD4-4BA4562DB173}'
    NAME "PART KEYS"
    PEAKCOL 16576
    BEAT -1
    AUTOMODE 0
    VOLPAN 1.00000000000000 0.00000000000000 -1.00000000000000 -1.00000000000000 1.00000000000000
    MUTESOLO 0 0 0
    IPHASE 0
    ISBUS 1 1
    BUSCOMP 0 0
    SHOWINMIX 1 0.666700 0.500000 1 0.500000 -1 -1 -1
    FREEMODE 0
    SEL 0
    REC 0 0 0 0 0 0 0
    VU 2
    TRACKHEIGHT 0 0
    INQ 0 0 0 0.5000000000 100 0 0 100
    NCHAN 2
    FX 1
    TRACKID {400C3742-F7FE-427A-8DD4-4BA4562DB173}
    PERF 0
    MIDIOUT -1
    <MIDINOTENAMES
      0 127 "TRILL MARKER"
      0 125 "---"
      0 124 "BRE"
      0 123 "BRE"
      0 122 "BRE"
      0 121 "BRE"
      0 120 "BRE (use all 5)"
      0 119 "----"
      0 116 "OVERDRIVE"
      0 115 "----"
      0 103 "Solo Marker"
      0 102 "Force HOPO Off"
      0 101 "Force HOPO On"
      0 100 "EXPERT Orange"
      0 99 "EXPERT Blue"
      0 98 "EXPERT Yellow"
      0 97 "EXPERT Red"
      0 96 "EXPERT Green"
      0 95 "----"
      0 90 "Force HOPO Off"
      0 89 "Force HOPO On"
      0 88 "HARD Orange"
      0 87 "HARD Blue"
      0 86 "HARD Yellow"
      0 85 "HARD Red"
      0 84 "HARD Green"
      0 77 "----"
      0 76 "MEDIUM Orange"
      0 75 "MEDIUM Blue"
      0 74 "MEDIUM Yellow"
      0 73 "MEDIUM Red"
      0 72 "MEDIUM Green"
      0 65 "----"
      0 64 "EASY Orange"
      0 63 "EASY Blue"
      0 62 "EASY Yellow"
      0 61 "EASY Red"
      0 60 "EASY Green"
    >
    MAINSEND 1 0
    <FXCHAIN
      WNDRECT 0 43 891 559
      SHOW 0
      LASTSEL 0
      DOCKED 0
      BYPASS 0 0
      <VST "VSTi: RBN Preview (RBN)" "rbprev_vst64.dll" 0 ""
        dnBicu5e7f4AAAAAAgAAAAEAAAAAAAAAAgAAAAAAAAAEAAAAAQAAAA==
        AAAQAAMAqgAAABAAAAA=
      >
      FLOATPOS 0 0 0 0
      FXID {58D0BC6D-4B1D-41B2-B82D-302B371AEB57}
      WAK 0
    >
    <ITEM
      POSITION 0.00000000000000
      SNAPOFFS 0.00000000000000
      LENGTH 145.04278911564626
      LOOP 0
      ALLTAKES 0
      SEL 0
      FADEIN 1 0.000000 0.000000 1 0
      FADEOUT 1 0.000000 0.000000 1 0
      MUTE 0
      IGUID {43D40057-6202-4249-943E-0915345AE49A}
      IID 7
      NAME "PART KEYS"
      VOLPAN 1.000000 0.000000 1.000000 -1.000000
      SOFFS 0.00000000000000 0.00000000000000
      PLAYRATE 1.00000000000000 1 0.00000000000000 -1
      CHANMODE 0
      GUID {5D9B1E95-8E1A-4061-87EC-47E7C488CFF1}
      <SOURCE MIDI
        HASDATA 1 480 QN
        POOLEDEVTS {08362351-ADE1-465E-8A7D-B204233DECE0}
        <X 0 0
          /wNQQVJUIEtFWVM=
        >
        <X 2880 0
          /wFbaWRsZV0=
        >
        <X 5760 0
          /wFbcGxheV0=
        >
        E 0 90 3d 60
        E 0 90 49 60
        E 0 90 56 60
        E 0 90 62 60
        E 0 90 67 60
        E 0 90 74 60
        E 120 80 3d 00
        E 0 80 49 00
        E 0 80 56 00
        E 0 80 62 00
        E 240 90 55 60
        E 0 90 61 60
        E 120 80 55 00
        E 0 80 61 00
        E 120 90 48 60
        E 0 90 55 60
        E 0 90 61 60
        E 120 80 48 00
        E 0 80 55 00
        E 0 80 61 00
        E 120 90 61 60
        E 120 80 61 00
        E 0 90 3e 60
        E 0 90 4b 60
        E 0 90 58 60
        E 0 90 64 60
        E 120 80 3e 00
        E 0 80 4b 00
        E 0 80 58 00
        E 0 80 64 00
        E 120 90 58 60
        E 0 90 64 60
        E 120 80 58 00
        E 0 80 64 00
        E 120 90 3d 60
        E 0 90 4a 60
        E 0 90 57 60
        E 0 90 63 60
        E 120 80 3d 00
        E 0 80 4a 00
        E 0 80 57 00
        E 0 80 63 00
        E 240 90 63 60
        E 120 80 63 00
        E 0 90 4b 60
        E 0 90 58 60
        E 0 90 64 60
        E 120 80 4b 00
        E 0 80 58 00
        E 0 80 64 00
        E 0 90 64 60
        E 120 80 64 00
        E 120 90 64 60
        E 120 80 64 00
        E 0 90 3d 60
        E 0 90 4a 60
        E 0 90 57 60
        E 0 90 63 60
        E 120 80 74 00
        E 0 80 3d 00
        E 0 80 4a 00
        E 0 80 57 00
        E 0 80 63 00
        E 120 90 57 60
        E 0 90 63 60
        E 120 80 57 00
        E 0 80 63 00
        E 120 90 3c 60
        E 0 90 49 60
        E 0 90 56 60
        E 0 90 62 60
        E 120 80 3c 00
        E 0 80 49 00
        E 0 80 56 00
        E 0 80 62 00
        E 240 90 62 60
        E 120 80 62 00
        E 0 90 4a 60
        E 0 90 57 60
        E 0 90 63 60
        E 120 80 4a 00
        E 0 80 57 00
        E 0 80 63 00
        E 0 90 63 60
        E 120 80 63 00
        E 120 90 63 60
        E 120 80 63 00
        E 0 90 3e 60
        E 0 90 49 60
        E 0 90 56 60
        E 0 90 62 60
        E 120 80 3e 00
        E 0 80 49 00
        E 0 80 56 00
        E 0 80 62 00
        E 120 90 55 60
        E 0 90 61 60
        E 120 80 55 00
        E 0 80 61 00
        E 120 90 3c 60
        E 0 90 48 60
        E 0 90 55 60
        E 0 90 61 60
        E 120 80 3c 00
        E 600 80 48 00
        E 240 80 55 00
        E 0 80 61 00
        E 480 90 3d 60
        E 0 90 49 60
        E 0 90 55 60
        E 0 90 62 60
        E 120 80 3d 00
        E 0 80 49 00
        E 0 80 55 00
        E 0 80 62 00
        E 0 90 61 60
        E 120 80 61 00
        E 120 90 61 60
        E 120 80 61 00
        E 0 90 55 60
        E 0 90 61 60
        E 120 80 55 00
        E 0 80 61 00
        E 0 90 48 60
        E 0 90 61 60
        E 120 80 48 00
        E 0 80 61 00
        E 120 90 61 60
        E 120 80 61 00
        E 0 90 3e 60
        E 0 90 4b 60
        E 0 90 58 60
        E 0 90 64 60
        E 120 80 3e 00
        E 0 80 4b 00
        E 0 80 58 00
        E 0 80 64 00
        E 120 90 58 60
        E 0 90 64 60
        E 120 80 58 00
        E 0 80 64 00
        E 120 90 3d 60
        E 0 90 4a 60
        E 0 90 57 60
        E 0 90 63 60
        E 120 80 3d 00
        E 0 80 4a 00
        E 0 80 57 00
        E 120 80 63 00
        E 120 90 63 60
        E 120 80 63 00
        E 0 90 4b 60
        E 0 90 58 60
        E 0 90 64 60
        E 120 80 4b 00
        E 0 80 58 00
        E 0 80 64 00
        E 0 90 64 60
        E 120 80 64 00
        E 120 90 64 60
        E 120 80 64 00
        E 0 90 3d 60
        E 0 90 4a 60
        E 0 90 57 60
        E 0 90 63 60
        E 120 80 3d 00
        E 0 80 4a 00
        E 0 80 57 00
        E 0 80 63 00
        E 120 90 57 60
        E 0 90 63 60
        E 120 80 57 00
        E 0 80 63 00
        E 120 90 3c 60
        E 0 90 49 60
        E 0 90 56 60
        E 0 90 62 60
        E 120 80 3c 00
        E 0 80 49 00
        E 0 80 56 00
        E 120 80 62 00
        E 120 90 62 60
        E 0 90 74 60
        E 120 80 62 00
        E 0 90 4a 60
        E 0 90 57 60
        E 0 90 63 60
        E 120 80 4a 00
        E 0 80 57 00
        E 0 80 63 00
        E 0 90 63 60
        E 120 80 63 00
        E 120 90 63 60
        E 120 80 63 00
        E 0 90 3e 60
        E 0 90 49 60
        E 0 90 56 60
        E 0 90 62 60
        E 120 80 3e 00
        E 0 80 49 00
        E 0 80 56 00
        E 0 80 62 00
        E 0 90 60 60
        E 120 80 60 00
        E 0 90 55 60
        E 0 90 61 60
        E 120 80 55 00
        E 0 80 61 00
        E 120 90 3c 60
        E 0 90 48 60
        E 0 90 55 60
        E 0 90 61 60
        E 120 80 3c 00
        E 600 80 74 00
        E 0 80 48 00
        E 0 80 55 00
        E 0 80 61 00
        E 1080 90 60 60
        E 120 80 60 00
        E 0 90 3c 60
        E 0 90 48 60
        E 0 90 55 60
        E 0 90 61 60
        E 120 80 3c 00
        E 0 80 48 00
        E 0 80 55 00
        E 0 80 61 00
        E 0 90 55 60
        E 0 90 61 60
        E 120 80 55 00
        E 0 80 61 00
        E 120 90 60 60
        E 120 80 60 00
        E 0 90 3c 60
        E 0 90 48 60
        E 0 90 55 60
        E 0 90 61 60
        E 120 80 3c 00
        E 0 80 48 00
        E 0 80 55 00
        E 0 80 61 00
        E 0 90 55 60
        E 0 90 61 60
        E 120 80 55 00
        E 0 80 61 00
        E 120 90 60 60
        E 120 80 60 00
        E 0 90 3e 60
        E 0 90 4b 60
        E 0 90 56 60
        E 0 90 62 60
        E 120 80 3e 00
        E 0 80 4b 00
        E 0 80 56 00
        E 0 80 62 00
        E 0 90 56 60
        E 0 90 62 60
        E 120 80 56 00
        E 0 80 62 00
        E 120 90 60 60
        E 120 80 60 00
        E 0 90 4a 60
        E 0 90 55 60
        E 0 90 61 60
        E 120 80 4a 00
        E 0 80 55 00
        E 0 80 61 00
        E 240 90 60 60
        E 120 80 60 00
        E 0 90 3e 60
        E 0 90 4b 60
        E 0 90 56 60
        E 0 90 62 60
        E 120 80 3e 00
        E 0 80 4b 00
        E 0 80 56 00
        E 0 80 62 00
        E 0 90 56 60
        E 0 90 62 60
        E 120 80 56 00
        E 0 80 62 00
        E 120 90 60 60
        E 120 80 60 00
        E 0 90 3d 60
        E 0 90 4a 60
        E 0 90 55 60
        E 0 90 61 60
        E 120 80 3d 00
        E 0 80 4a 00
        E 0 80 55 00
        E 0 80 61 00
        E 240 90 60 60
        E 120 80 60 00
        E 0 90 3c 60
        E 0 90 48 60
        E 0 90 54 60
        E 0 90 60 60
        E 120 80 3c 00
        E 0 80 48 00
        E 0 80 54 00
        E 0 80 60 00
        E 200 90 61 60
        E 120 80 61 00
        E 40 90 49 60
        E 0 90 56 60
        E 0 90 62 60
        E 0 90 65 60
        E 120 80 49 00
        E 0 80 56 00
        E 0 80 62 00
        E 0 80 65 00
        E 120 90 3d 60
        E 0 90 49 60
        E 0 90 56 60
        E 0 90 62 60
        E 480 80 3d 00
        E 0 80 49 00
        E 0 80 56 00
        E 0 80 62 00
        E 1560 90 60 60
        E 120 80 60 00
        E 0 90 3c 60
        E 0 90 48 60
        E 0 90 55 60
        E 0 90 61 60
        E 120 80 3c 00
        E 0 80 48 00
        E 0 80 55 00
        E 0 80 61 00
        E 0 90 55 60
        E 0 90 61 60
        E 120 80 55 00
        E 0 80 61 00
        E 120 90 60 60
        E 120 80 60 00
        E 0 90 3c 60
        E 0 90 48 60
        E 0 90 55 60
        E 0 90 61 60
        E 120 80 3c 00
        E 0 80 48 00
        E 0 80 55 00
        E 0 80 61 00
        E 0 90 55 60
        E 0 90 61 60
        E 120 80 55 00
        E 0 80 61 00
        E 120 90 60 60
        E 120 80 60 00
        E 0 90 3e 60
        E 0 90 4b 60
        E 0 90 56 60
        E 0 90 62 60
        E 120 80 3e 00
        E 0 80 4b 00
        E 0 80 56 00
        E 0 80 62 00
        E 0 90 56 60
        E 0 90 62 60
        E 120 80 56 00
        E 0 80 62 00
        E 120 90 60 60
        E 120 80 60 00
        E 0 90 4a 60
        E 0 90 55 60
        E 0 90 61 60
        E 120 80 4a 00
        E 0 80 55 00
        E 0 80 61 00
        E 240 90 60 60
        E 120 80 60 00
        E 0 90 3e 60
        E 0 90 4b 60
        E 0 90 56 60
        E 0 90 62 60
        E 120 80 3e 00
        E 0 80 4b 00
        E 0 80 56 00
        E 0 80 62 00
        E 0 90 56 60
        E 0 90 62 60
        E 120 80 56 00
        E 0 80 62 00
        E 120 90 60 60
        E 120 80 60 00
        E 0 90 3d 60
        E 0 90 4a 60
        E 0 90 55 60
        E 0 90 61 60
        E 120 80 3d 00
        E 0 80 4a 00
        E 0 80 55 00
        E 0 80 61 00
        E 240 90 61 60
        E 120 80 61 00
        E 0 90 3c 60
        E 0 90 48 60
        E 0 90 54 60
        E 0 90 60 60
        E 120 80 3c 00
        E 0 80 48 00
        E 0 80 54 00
        E 0 80 60 00
        E 200 90 61 60
        E 120 80 61 00
        E 40 90 49 60
        E 0 90 56 60
        E 0 90 62 60
        E 0 90 65 60
        E 120 80 49 00
        E 0 80 56 00
        E 0 80 62 00
        E 0 80 65 00
        E 120 90 3d 60
        E 0 90 49 60
        E 0 90 56 60
        E 0 90 62 60
        E 480 80 3d 00
        E 0 80 49 00
        E 0 80 56 00
        E 0 80 62 00
        <X 240 0
          /wFbaWRsZV0=
        >
        E 0 80 67 00
        <X 960 0
          /wFbaWRsZV9pbnRlbnNlXQ==
        >
        <X 11520 0
          /wFbcGxheV0=
        >
        E 0 90 74 60
        E 360 90 55 60
        E 0 90 61 60
        E 60 90 63 60
        E 60 90 3d 60
        E 0 90 49 60
        E 0 90 58 60
        E 0 90 64 60
        E 960 80 55 00
        E 0 80 61 00
        E 0 80 63 00
        E 0 80 3d 00
        E 0 80 49 00
        E 0 80 58 00
        E 0 80 64 00
        E 360 90 55 60
        E 0 90 60 60
        E 60 90 61 60
        E 60 90 3f 60
        E 0 90 4b 60
        E 0 90 57 60
        E 0 90 64 60
        E 960 80 74 00
        E 0 80 55 00
        E 0 80 60 00
        E 0 80 61 00
        E 0 80 3f 00
        E 0 80 4b 00
        E 0 80 57 00
        E 0 80 64 00
        E 360 90 56 60
        E 0 90 60 60
        E 60 90 62 60
        E 60 90 3e 60
        E 0 90 4a 60
        E 0 90 57 60
        E 0 90 63 60
        E 960 80 56 00
        E 0 80 60 00
        E 0 80 62 00
        E 0 80 3e 00
        E 0 80 4a 00
        E 0 80 57 00
        E 0 80 63 00
        E 360 90 62 60
        E 60 90 63 60
        E 60 90 40 60
        E 0 90 4c 60
        E 0 90 58 60
        E 0 90 64 60
        E 960 80 62 00
        E 0 80 63 00
        E 0 80 40 00
        E 0 80 4c 00
        E 0 80 58 00
        E 0 80 64 00
        E 360 90 61 60
        E 60 90 63 60
        E 60 90 3d 60
        E 0 90 49 60
        E 0 90 58 60
        E 0 90 64 60
        E 960 80 61 00
        E 0 80 63 00
        E 0 80 3d 00
        E 0 80 49 00
        E 0 80 58 00
        E 0 80 64 00
        E 360 90 60 60
        E 60 90 61 60
        E 60 90 3f 60
        E 0 90 4b 60
        E 0 90 58 60
        E 0 90 64 60
        E 960 80 60 00
        E 0 80 61 00
        E 0 80 3f 00
        E 0 80 4b 00
        E 0 80 58 00
        E 0 80 64 00
        E 360 90 60 60
        E 60 90 62 60
        E 60 90 3e 60
        E 0 90 4a 60
        E 0 90 57 60
        E 0 90 63 60
        E 960 80 60 00
        E 0 80 62 00
        E 0 80 3e 00
        E 0 80 4a 00
        E 0 80 57 00
        E 0 80 63 00
        E 360 90 62 60
        E 60 90 63 60
        E 60 90 40 60
        E 0 90 4c 60
        E 0 90 58 60
        E 0 90 64 60
        <X 960 0
          /wFbaWRsZV9pbnRlbnNlXQ==
        >
        E 0 80 62 00
        E 0 80 63 00
        E 0 80 40 00
        E 0 80 4c 00
        E 0 80 58 00
        E 0 80 64 00
        <X 11520 0
          /wFbaWRsZV0=
        >
        <X 17280 0
          /wFbcGxheV0=
        >
        E 0 90 55 60
        E 0 90 61 60
        E 0 90 74 60
        E 120 80 55 00
        E 0 80 61 00
        E 120 90 3e 60
        E 0 90 4a 60
        E 0 90 4b 60
        E 0 90 56 60
        E 0 90 58 60
        E 0 90 61 60
        E 0 90 63 60
        E 0 90 64 60
        E 120 80 3e 00
        E 0 80 4a 00
        E 0 80 4b 00
        E 0 80 56 00
        E 0 80 58 00
        E 0 80 61 00
        E 0 80 63 00
        E 0 80 64 00
        E 120 90 61 60
        E 120 80 61 00
        E 0 90 3e 60
        E 0 90 4a 60
        E 0 90 4b 60
        E 0 90 56 60
        E 0 90 58 60
        E 0 90 61 60
        E 0 90 63 60
        E 0 90 64 60
        E 120 80 3e 00
        E 0 80 4a 00
        E 0 80 4b 00
        E 0 80 56 00
        E 0 80 58 00
        E 0 80 61 00
        E 0 80 63 00
        E 0 80 64 00
        E 120 90 61 60
        E 120 80 61 00
        E 0 90 4a 60
        E 0 90 4b 60
        E 0 90 56 60
        E 0 90 58 60
        E 0 90 61 60
        E 0 90 63 60
        E 0 90 64 60
        E 120 80 4a 00
        E 0 80 4b 00
        E 0 80 56 00
        E 0 80 58 00
        E 0 80 61 00
        E 0 80 63 00
        E 0 80 64 00
        E 240 90 54 60
        E 0 90 57 60
        E 0 90 60 60
        E 0 90 61 60
        E 0 90 64 60
        E 120 80 54 00
        E 0 80 57 00
        E 0 80 60 00
        E 0 80 61 00
        E 0 80 64 00
        E 240 90 3d 60
        E 0 90 49 60
        E 0 90 4b 60
        E 0 90 54 60
        E 0 90 57 60
        E 0 90 60 60
        E 0 90 61 60
        E 0 90 64 60
        E 120 80 3d 00
        E 0 80 49 00
        E 0 80 4b 00
        E 0 80 54 00
        E 0 80 57 00
        E 0 80 60 00
        E 0 80 61 00
        E 0 80 64 00
        E 240 90 3d 60
        E 0 90 49 60
        E 0 90 4b 60
        E 0 90 54 60
        E 0 90 57 60
        E 0 90 60 60
        E 0 90 61 60
        E 0 90 64 60
        E 120 80 3d 00
        E 0 80 49 00
        E 0 80 4b 00
        E 0 80 54 00
        E 0 80 57 00
        E 0 80 60 00
        E 0 80 61 00
        E 0 80 64 00
        E 240 90 49 60
        E 0 90 4b 60
        E 0 90 54 60
        E 0 90 57 60
        E 0 90 60 60
        E 0 90 61 60
        E 0 90 64 60
        E 120 80 49 00
        E 0 80 4b 00
        E 0 80 54 00
        E 0 80 57 00
        E 0 80 60 00
        E 0 80 61 00
        E 0 80 64 00
        E 360 80 74 00
        E 240 90 3c 60
        E 0 90 49 60
        E 0 90 4a 60
        E 0 90 54 60
        E 0 90 56 60
        E 0 90 60 60
        E 0 90 62 60
        E 0 90 63 60
        E 120 80 3c 00
        E 0 80 49 00
        E 0 80 4a 00
        E 0 80 54 00
        E 0 80 56 00
        E 0 80 60 00
        E 0 80 62 00
        E 0 80 63 00
        E 960 90 3d 60
        E 0 90 49 60
        E 0 90 4b 60
        E 0 90 54 60
        E 0 90 57 60
        E 0 90 60 60
        E 0 90 61 60
        E 0 90 64 60
        E 120 80 3d 00
        E 0 80 49 00
        E 0 80 4b 00
        E 0 80 54 00
        E 0 80 57 00
        E 0 80 60 00
        E 0 80 61 00
        E 0 80 64 00
        E 240 90 3d 60
        E 0 90 49 60
        E 0 90 4b 60
        E 0 90 54 60
        E 0 90 57 60
        E 0 90 60 60
        E 0 90 61 60
        E 0 90 64 60
        E 120 80 3d 00
        E 0 80 49 00
        E 0 80 4b 00
        E 0 80 54 00
        E 0 80 57 00
        E 0 80 60 00
        E 0 80 61 00
        E 0 80 64 00
        E 240 90 49 60
        E 0 90 4b 60
        E 0 90 54 60
        E 0 90 57 60
        E 0 90 60 60
        E 0 90 61 60
        E 0 90 64 60
        E 120 80 49 00
        E 0 80 4b 00
        E 0 80 54 00
        E 0 80 57 00
        E 0 80 60 00
        E 0 80 61 00
        E 0 80 64 00
        E 240 90 54 60
        E 0 90 57 60
        E 0 90 60 60
        E 0 90 61 60
        E 0 90 64 60
        E 120 80 54 00
        E 0 80 57 00
        E 0 80 60 00
        E 0 80 61 00
        E 0 80 64 00
        E 240 90 3e 60
        E 0 90 4a 60
        E 0 90 4b 60
        E 0 90 56 60
        E 0 90 58 60
        E 0 90 61 60
        E 0 90 63 60
        E 0 90 64 60
        E 120 80 3e 00
        E 0 80 4a 00
        E 0 80 4b 00
        E 0 80 56 00
        E 0 80 58 00
        E 0 80 61 00
        E 0 80 63 00
        E 0 80 64 00
        E 240 90 3e 60
        E 0 90 4a 60
        E 0 90 4b 60
        E 0 90 56 60
        E 0 90 58 60
        E 0 90 61 60
        E 0 90 63 60
        E 0 90 64 60
        E 120 80 3e 00
        E 0 80 4a 00
        E 0 80 4b 00
        E 0 80 56 00
        E 0 80 58 00
        E 0 80 61 00
        E 0 80 63 00
        E 0 80 64 00
        E 240 90 4a 60
        E 0 90 4b 60
        E 0 90 56 60
        E 0 90 58 60
        E 0 90 61 60
        E 0 90 63 60
        E 0 90 64 60
        E 120 80 4a 00
        E 0 80 4b 00
        E 0 80 56 00
        E 0 80 58 00
        E 0 80 61 00
        E 0 80 63 00
        E 0 80 64 00
        E 240 90 56 60
        E 0 90 58 60
        E 0 90 61 60
        E 0 90 63 60
        E 0 90 64 60
        E 120 80 56 00
        E 0 80 58 00
        E 0 80 61 00
        E 0 80 63 00
        E 0 80 64 00
        E 240 90 3d 60
        E 0 90 49 60
        E 0 90 4b 60
        E 0 90 54 60
        E 0 90 57 60
        E 0 90 60 60
        E 0 90 61 60
        E 0 90 64 60
        E 120 80 3d 00
        E 0 80 49 00
        E 0 80 4b 00
        E 0 80 54 00
        E 0 80 57 00
        E 0 80 60 00
        E 0 80 61 00
        E 0 80 64 00
        E 240 90 3d 60
        E 0 90 49 60
        E 0 90 4b 60
        E 0 90 54 60
        E 0 90 57 60
        E 0 90 60 60
        E 0 90 61 60
        E 0 90 64 60
        E 120 80 3d 00
        E 0 80 49 00
        E 0 80 4b 00
        E 0 80 54 00
        E 0 80 57 00
        E 0 80 60 00
        E 0 80 61 00
        E 0 80 64 00
        E 240 90 49 60
        E 0 90 4b 60
        E 0 90 54 60
        E 0 90 57 60
        E 0 90 60 60
        E 0 90 61 60
        E 0 90 64 60
        E 120 80 49 00
        E 0 80 4b 00
        E 0 80 54 00
        E 0 80 57 00
        E 0 80 60 00
        E 0 80 61 00
        E 0 80 64 00
        E 240 90 54 60
        E 0 90 57 60
        E 0 90 60 60
        E 0 90 61 60
        E 0 90 64 60
        E 120 80 54 00
        E 0 80 57 00
        E 0 80 60 00
        E 0 80 61 00
        E 0 80 64 00
        E 240 90 3c 60
        E 0 90 49 60
        E 0 90 4a 60
        E 0 90 54 60
        E 0 90 56 60
        E 0 90 60 60
        E 0 90 62 60
        E 0 90 63 60
        E 120 80 3c 00
        E 0 80 49 00
        E 0 80 4a 00
        E 0 80 54 00
        E 0 80 56 00
        E 0 80 60 00
        E 0 80 62 00
        E 0 80 63 00
        E 240 90 3c 60
        E 0 90 49 60
        E 0 90 4a 60
        E 0 90 54 60
        E 0 90 56 60
        E 0 90 60 60
        E 0 90 62 60
        E 0 90 63 60
        E 120 80 3c 00
        E 0 80 49 00
        E 0 80 4a 00
        E 0 80 54 00
        E 0 80 56 00
        E 0 80 60 00
        E 0 80 62 00
        E 0 80 63 00
        E 240 90 49 60
        E 0 90 4a 60
        E 0 90 54 60
        E 0 90 56 60
        E 0 90 60 60
        E 0 90 62 60
        E 0 90 63 60
        E 120 80 49 00
        E 0 80 4a 00
        E 0 80 54 00
        E 0 80 56 00
        E 0 80 60 00
        E 0 80 62 00
        E 0 80 63 00
        E 240 90 54 60
        E 0 90 56 60
        E 0 90 60 60
        E 0 90 62 60
        E 0 90 63 60
        E 120 80 54 00
        E 0 80 56 00
        E 0 80 60 00
        E 0 80 62 00
        E 0 80 63 00
        E 240 90 3d 60
        E 0 90 49 60
        E 0 90 4b 60
        E 0 90 54 60
        E 0 90 57 60
        E 0 90 60 60
        E 0 90 61 60
        E 0 90 64 60
        E 120 80 3d 00
        E 0 80 49 00
        E 0 80 4b 00
        E 0 80 54 00
        E 0 80 57 00
        E 0 80 60 00
        E 0 80 61 00
        E 0 80 64 00
        E 360 90 3d 60
        E 0 90 49 60
        E 0 90 4b 60
        E 0 90 54 60
        E 0 90 57 60
        E 0 90 60 60
        E 0 90 61 60
        E 0 90 64 60
        E 120 80 3d 00
        E 0 80 49 00
        E 0 80 4b 00
        E 0 80 54 00
        E 0 80 57 00
        E 0 80 60 00
        E 0 80 61 00
        E 0 80 64 00
        E 360 90 3d 60
        E 0 90 49 60
        E 0 90 4b 60
        E 0 90 54 60
        E 0 90 57 60
        E 0 90 60 60
        E 0 90 61 60
        E 0 90 64 60
        E 120 80 3d 00
        E 0 80 49 00
        E 0 80 4b 00
        E 0 80 54 00
        E 0 80 57 00
        E 0 80 60 00
        E 0 80 61 00
        E 0 80 64 00
        <X 480 0
          /wFbaWRsZV9pbnRlbnNlXQ==
        >
        <X 40319 0
          /wFbaWRsZV9yZWFsdGltZV0=
        >
        E 2881 b0 7b 00
        GUID {A809E81E-3CD5-4C95-8A20-8DC232BD0752}
        IGNTEMPO 0 120.00000000 4 4
        SRCCOLOR 65
        VELLANE 132 128 60
        COLORMAP "C:\Program Files\REAPER (x64)\Data\color_maps\rockband_guitarbass.png"
        CFGEDITVIEW -8909.328748 7.742543 0 14 0 0 0
        CFGEDIT 1 1 0 1 1 0 1 1 1 1 1 0.12500000 53 44 1253 718 0 2 1 1 0.00000000 0 1 1 0 0.500000 0 0 1.000000 64
        KEYSNAP 0 7 "102030050700" 0 "Pentatonic"
        EVTFILTER 0 -1 -1 -1 -1 0 1 0 0 -1.00000000 -1.00000000
      >
    >
  >
  <TRACK '{701C52A2-4BA7-4D8C-8A9D-5551392A5137}'
    NAME "PART REAL_KEYS_X"
    PEAKCOL 16576
    BEAT -1
    AUTOMODE 0
    VOLPAN 1.00000000000000 0.00000000000000 -1.00000000000000 -1.00000000000000 1.00000000000000
    MUTESOLO 0 0 0
    IPHASE 0
    ISBUS 0 0
    BUSCOMP 0 0
    SHOWINMIX 1 0.666700 0.500000 1 0.500000 -1 -1 -1
    FREEMODE 0
    SEL 0
    REC 0 0 0 0 0 0 0
    VU 2
    TRACKHEIGHT 0 0
    INQ 0 0 0 0.5000000000 100 0 0 100
    NCHAN 2
    FX 0
    TRACKID {701C52A2-4BA7-4D8C-8A9D-5551392A5137}
    PERF 0
    MIDIOUT -1
    <MIDINOTENAMES
      0 127 "TRILL MARKER"
      0 126 "GLISSANDO MARKER"
      0 125 "---"
      0 116 "OVERDRIVE"
      0 115 "SOLO"
      0 114 "---"
      0 72 "Highest playable note B#3"
      0 71 "B3"
      0 70 "A#3"
      0 69 "A3"
      0 68 "G#3"
      0 67 "G3"
      0 66 "F#3"
      0 65 "F3"
      0 64 "E3"
      0 63 "D#3"
      0 62 "D3"
      0 61 "C#3"
      0 60 "C3"
      0 59 "B2"
      0 58 "A#2"
      0 57 "A2"
      0 56 "G#2"
      0 55 "G2"
      0 54 "F#2"
      0 53 "F2"
      0 52 "E2"
      0 51 "D#2"
      0 50 "D2"
      0 49 "C#2"
      0 48 "Lowest playable note C2"
      0 10 "---"
      0 9 "Range A2-C4"
      0 8 "Range"
      0 7 "Range"
      0 6 "Range"
      0 5 "Range F2-A3"
      0 4 "Range"
      0 3 "Range"
      0 2 "Range"
      0 1 "Range"
      0 0 "Range C2-E3"
    >
    MAINSEND 1 0
    <FXCHAIN
      WNDRECT 0 43 655 467
      SHOW 0
      LASTSEL 1
      DOCKED 0
      BYPASS 0 0
      <JS "MIDI/midi_note_filter" ""
        48.000000 72.000000 - - - - - - - - - - - - - - - - - - - - - - - - - - - - - - - - - - - - - - - - - - - - - - - - - - - - - - - - - - - - - - 
      >
      FLOATPOS 0 0 0 0
      FXID {D0B6A6F1-03AD-4D23-9FB4-428ABEC0C461}
      WAK 0
      BYPASS 0 0
      <VST "VSTi: ReaSynth (Cockos)" "reasynth.dll" 0 ""
        eXNlcu9e7f4AAAAAAgAAAAEAAAAAAAAAAgAAAAAAAAA4AAAAAAAAAA==
        AAAQAO++rd4N8K3eppvEO0QvRj0AAIA/AAAAAAAAAADMm4A+6WeIPQ==
        AAAAAAAAAD8AAIA/AACAPwAAAD8AABAAAAA=
      >
      FLOATPOS 0 0 0 0
      FXID {CED7D399-6089-4941-BD4D-D874E752B03B}
      WAK 0
    >
    <ITEM
      POSITION 0.00000000000000
      SNAPOFFS 0.00000000000000
      LENGTH 145.04278911564626
      LOOP 0
      ALLTAKES 0
      SEL 0
      FADEIN 1 0.000000 0.000000 1 0
      FADEOUT 1 0.000000 0.000000 1 0
      MUTE 0
      IGUID {580DC71D-1597-4D93-8996-9FBB9BDDFA03}
      IID 8
      NAME "PART REAL_KEYS_X"
      VOLPAN 1.000000 0.000000 1.000000 -1.000000
      SOFFS 0.00000000000000 0.00000000000000
      PLAYRATE 1.00000000000000 1 0.00000000000000 -1
      CHANMODE 0
      GUID {5BD290AE-8E5A-4284-9705-BD7334A66A2F}
      <SOURCE MIDI
        HASDATA 1 480 QN
        POOLEDEVTS {A356C643-1E3F-4F0C-90AA-E855A4266C22}
        <X 0 0
          /wNQQVJUIFJFQUxfS0VZU19Y
        >
        E 0 90 05 64
        E 120 80 05 00
        <X 8520 0
          /wFbYmVnaW5fa2V5IHNvbmdfdHJhaW5lcl9rZXlfMV0=
        >
        E 0 90 39 64
        E 0 90 73 64
        E 0 90 74 64
        E 120 80 39 00
        E 240 90 37 64
        E 120 80 37 00
        E 120 90 37 64
        E 120 80 37 00
        E 120 90 37 64
        E 120 80 37 00
        E 0 90 40 64
        E 120 80 40 00
        E 120 90 40 64
        E 120 80 40 00
        E 120 90 3e 64
        E 120 80 3e 00
        E 240 90 3e 64
        E 120 80 3e 00
        E 0 90 40 64
        E 120 80 40 00
        E 0 90 40 64
        E 120 80 40 00
        E 120 90 40 64
        E 120 80 40 00
        E 0 90 3e 64
        E 120 80 74 00
        E 0 80 3e 00
        E 120 90 3e 64
        E 120 80 3e 00
        <X 120 0
          /wFba2V5X25vcm0gc29uZ190cmFpbmVyX2tleV8xXQ==
        >
        E 0 90 3c 64
        E 120 80 3c 00
        E 360 90 3c 64
        E 120 80 3c 00
        E 0 90 3c 64
        E 120 80 3c 00
        E 120 90 3c 64
        E 120 80 3c 00
        E 0 90 3b 64
        E 120 80 3b 00
        E 120 90 39 64
        E 120 80 39 00
        E 120 90 39 64
        E 960 80 39 00
        E 480 90 39 64
        E 120 80 39 00
        E 240 90 37 64
        E 120 80 37 00
        E 0 90 37 64
        E 120 80 37 00
        E 0 90 37 64
        E 120 80 37 00
        E 120 90 37 64
        E 120 80 37 00
        E 0 90 40 64
        E 120 80 40 00
        E 120 90 40 64
        E 120 80 40 00
        E 120 90 3e 64
        E 120 80 3e 00
        E 240 90 3e 64
        E 120 80 3e 00
        E 0 90 40 64
        E 120 80 40 00
        E 0 90 40 64
        E 120 80 40 00
        E 120 90 40 64
        E 120 80 40 00
        E 0 90 3e 64
        E 120 80 3e 00
        E 120 90 3e 64
        E 120 80 3e 00
        E 120 90 3c 64
        E 120 80 3c 00
        E 240 90 39 64
        E 0 90 74 64
        E 120 80 39 00
        E 0 90 3c 64
        E 120 80 3c 00
        E 0 90 3c 64
        E 120 80 3c 00
        E 120 90 3c 64
        E 120 80 3c 00
        E 0 90 3b 64
        E 120 80 3b 00
        E 0 90 37 64
        E 120 80 37 00
        E 0 90 39 64
        E 120 80 39 00
        E 120 90 39 64
        E 720 80 74 00
        E 0 80 39 00
        <X 720 0
          /wFbZW5kX2tleSBzb25nX3RyYWluZXJfa2V5XzFd
        >
        <X 0 0
          /wFbYmVnaW5fa2V5IHNvbmdfdHJhaW5lcl9rZXlfMl0=
        >
        E 360 90 39 64
        E 120 80 39 00
        E 0 90 39 64
        E 120 80 39 00
        E 0 90 39 64
        E 120 80 39 00
        E 120 90 37 64
        E 120 80 37 00
        E 0 90 39 64
        E 120 80 39 00
        E 0 90 39 64
        E 120 80 39 00
        E 120 90 37 64
        E 120 80 37 00
        E 0 90 3c 64
        E 120 80 3c 00
        E 0 90 3c 64
        E 120 80 3c 00
        E 120 90 37 64
        E 120 80 37 00
        E 0 90 39 64
        E 120 80 39 00
        E 240 90 37 64
        E 120 80 37 00
        E 0 90 3c 64
        E 120 80 3c 00
        E 0 90 3c 64
        E 120 80 3c 00
        E 120 90 37 64
        <X 120 0
          /wFba2V5X25vcm0gc29uZ190cmFpbmVyX2tleV8yXQ==
        >
        E 0 80 37 00
        E 0 90 39 64
        E 120 80 39 00
        E 240 90 37 64
        E 120 80 37 00
        E 0 90 37 64
        E 120 80 37 00
        E 120 90 39 64
        E 120 80 39 00
        E 120 90 39 64
        E 120 80 39 00
        E 120 90 39 64
        E 480 80 39 00
        E 1560 90 39 64
        E 120 80 39 00
        E 0 90 39 64
        E 120 80 39 00
        E 0 90 39 64
        E 120 80 39 00
        E 120 90 37 64
        E 120 80 37 00
        E 0 90 39 64
        E 120 80 39 00
        E 0 90 39 64
        E 120 80 39 00
        E 120 90 37 64
        E 120 80 37 00
        E 0 90 3c 64
        E 120 80 3c 00
        E 0 90 3c 64
        E 120 80 3c 00
        E 120 90 37 64
        E 120 80 37 00
        E 0 90 39 64
        E 120 80 39 00
        E 240 90 37 64
        E 120 80 37 00
        E 0 90 3c 64
        E 120 80 3c 00
        E 0 90 3c 64
        E 120 80 3c 00
        E 120 90 37 64
        E 120 80 37 00
        E 0 90 39 64
        E 120 80 39 00
        E 240 90 37 64
        E 120 80 37 00
        E 0 90 37 64
        E 120 80 37 00
        E 120 90 39 64
        E 120 80 39 00
        E 120 90 39 64
        E 120 80 39 00
        E 120 90 39 64
        E 480 80 39 00
        E 240 80 73 00
        <X 480 0
          /wFbZW5kX2tleSBzb25nX3RyYWluZXJfa2V5XzJd
        >
        <X 12000 0
          /wFbYmVnaW5fa2V5IHNvbmdfdHJhaW5lcl9rZXlfM10=
        >
        E 0 90 74 64
        E 360 90 35 64
        E 60 90 39 64
        E 60 90 3c 64
        E 0 90 40 64
        E 960 80 35 00
        E 0 80 39 00
        E 0 80 3c 00
        E 0 80 40 00
        E 360 90 37 64
        E 60 90 3e 64
        E 60 90 40 64
        E 0 90 45 64
        <X 960 0
          /wFba2V5X25vcm0gc29uZ190cmFpbmVyX2tleV8zXQ==
        >
        E 0 80 74 00
        E 0 80 37 00
        E 0 80 3e 00
        E 0 80 40 00
        E 0 80 45 00
        E 360 90 35 64
        E 60 90 39 64
        E 60 90 3e 64
        E 0 90 43 64
        E 960 80 35 00
        E 0 80 39 00
        E 0 80 3e 00
        E 0 80 43 00
        E 360 90 37 64
        E 60 90 3b 64
        E 60 90 3e 64
        E 960 80 37 00
        E 0 80 3b 00
        E 0 80 3e 00
        E 360 90 35 64
        E 60 90 39 64
        E 60 90 3c 64
        E 0 90 40 64
        E 960 80 35 00
        E 0 80 39 00
        E 0 80 3c 00
        E 0 80 40 00
        E 360 90 37 64
        E 60 90 3b 64
        E 60 90 40 64
        E 0 90 45 64
        E 960 80 37 00
        E 0 80 3b 00
        E 0 80 40 00
        E 0 80 45 00
        E 360 90 35 64
        E 60 90 39 64
        E 60 90 3e 64
        E 0 90 43 64
        E 960 80 35 00
        E 0 80 39 00
        E 0 80 3e 00
        E 0 80 43 00
        E 360 90 37 64
        E 60 90 3b 64
        E 60 90 3e 64
        <X 960 0
          /wFbZW5kX2tleSBzb25nX3RyYWluZXJfa2V5XzNd
        >
        E 0 80 37 00
        E 0 80 3b 00
        E 0 80 3e 00
        E 0 90 00 64
        E 120 80 00 00
        <X 28680 0
          /wFbYmVnaW5fa2V5IHNvbmdfdHJhaW5lcl9rZXlfNF0=
        >
        E 0 90 35 64
        E 0 90 74 64
        E 120 80 35 00
        E 120 90 35 64
        E 0 90 39 64
        E 0 90 3c 64
        E 0 90 40 64
        E 120 80 35 00
        E 0 80 39 00
        E 0 80 3c 00
        E 0 80 40 00
        E 120 90 35 64
        E 120 80 35 00
        E 0 90 35 64
        E 0 90 39 64
        E 0 90 3c 64
        E 0 90 40 64
        E 120 80 35 00
        E 0 80 39 00
        E 0 80 3c 00
        E 0 80 40 00
        E 120 90 35 64
        E 120 80 35 00
        E 0 90 35 64
        E 0 90 39 64
        E 0 90 3c 64
        E 0 90 40 64
        E 120 80 35 00
        E 0 80 39 00
        E 0 80 3c 00
        E 0 80 40 00
        E 240 90 34 64
        E 0 90 37 64
        E 0 90 3b 64
        E 0 90 3e 64
        E 120 80 34 00
        E 0 80 37 00
        E 0 80 3b 00
        E 0 80 3e 00
        E 240 90 34 64
        E 0 90 37 64
        E 0 90 3b 64
        E 0 90 3e 64
        E 120 80 34 00
        E 0 80 37 00
        E 0 80 3b 00
        E 0 80 3e 00
        E 240 90 34 64
        E 0 90 37 64
        E 0 90 3b 64
        E 0 90 3e 64
        E 120 80 34 00
        E 0 80 37 00
        E 0 80 3b 00
        E 0 80 3e 00
        E 240 90 34 64
        E 0 90 37 64
        E 0 90 3b 64
        E 0 90 3e 64
        E 120 80 34 00
        E 0 80 37 00
        E 0 80 3b 00
        E 0 80 3e 00
        <X 360 0
          /wFba2V5X25vcm0gc29uZ190cmFpbmVyX2tleV80XQ==
        >
        E 0 80 74 00
        E 240 90 32 64
        E 0 90 35 64
        E 0 90 39 64
        E 0 90 3c 64
        E 120 80 32 00
        E 0 80 35 00
        E 0 80 39 00
        E 0 80 3c 00
        E 960 90 34 64
        E 0 90 37 64
        E 0 90 3b 64
        E 0 90 3e 64
        E 120 80 34 00
        E 0 80 37 00
        E 0 80 3b 00
        E 0 80 3e 00
        E 240 90 34 64
        E 0 90 37 64
        E 0 90 3b 64
        E 0 90 3e 64
        E 120 80 34 00
        E 0 80 37 00
        E 0 80 3b 00
        E 0 80 3e 00
        E 240 90 34 64
        E 0 90 37 64
        E 0 90 3b 64
        E 0 90 3e 64
        E 120 80 34 00
        E 0 80 37 00
        E 0 80 3b 00
        E 0 80 3e 00
        E 240 90 34 64
        E 0 90 37 64
        E 0 90 3b 64
        E 0 90 3e 64
        E 120 80 34 00
        E 0 80 37 00
        E 0 80 3b 00
        E 0 80 3e 00
        E 240 90 35 64
        E 0 90 39 64
        E 0 90 3c 64
        E 0 90 40 64
        E 120 80 35 00
        E 0 80 39 00
        E 0 80 3c 00
        E 0 80 40 00
        E 240 90 35 64
        E 0 90 39 64
        E 0 90 3c 64
        E 0 90 40 64
        E 120 80 35 00
        E 0 80 39 00
        E 0 80 3c 00
        E 0 80 40 00
        E 240 90 35 64
        E 0 90 39 64
        E 0 90 3c 64
        E 0 90 40 64
        E 120 80 35 00
        E 0 80 39 00
        E 0 80 3c 00
        E 0 80 40 00
        E 240 90 35 64
        E 0 90 39 64
        E 0 90 3c 64
        E 0 90 40 64
        E 120 80 35 00
        E 0 80 39 00
        E 0 80 3c 00
        E 0 80 40 00
        E 240 90 34 64
        E 0 90 37 64
        E 0 90 3b 64
        E 0 90 3e 64
        E 120 80 34 00
        E 0 80 37 00
        E 0 80 3b 00
        E 0 80 3e 00
        E 240 90 34 64
        E 0 90 37 64
        E 0 90 3b 64
        E 0 90 3e 64
        E 120 80 34 00
        E 0 80 37 00
        E 0 80 3b 00
        E 0 80 3e 00
        E 240 90 34 64
        E 0 90 37 64
        E 0 90 3b 64
        E 0 90 3e 64
        E 120 80 34 00
        E 0 80 37 00
        E 0 80 3b 00
        E 0 80 3e 00
        E 240 90 34 64
        E 0 90 37 64
        E 0 90 3b 64
        E 0 90 3e 64
        E 120 80 34 00
        E 0 80 37 00
        E 0 80 3b 00
        E 0 80 3e 00
        E 240 90 32 64
        E 0 90 35 64
        E 0 90 39 64
        E 0 90 3c 64
        E 120 80 32 00
        E 0 80 35 00
        E 0 80 39 00
        E 0 80 3c 00
        E 240 90 32 64
        E 0 90 35 64
        E 0 90 39 64
        E 0 90 3c 64
        E 120 80 32 00
        E 0 80 35 00
        E 0 80 39 00
        E 0 80 3c 00
        E 240 90 32 64
        E 0 90 35 64
        E 0 90 39 64
        E 0 90 3c 64
        E 120 80 32 00
        E 0 80 35 00
        E 0 80 39 00
        E 0 80 3c 00
        E 240 90 32 64
        E 0 90 35 64
        E 0 90 39 64
        E 0 90 3c 64
        E 120 80 32 00
        E 0 80 35 00
        E 0 80 39 00
        E 0 80 3c 00
        E 240 90 34 64
        E 0 90 37 64
        E 0 90 3b 64
        E 0 90 3e 64
        E 120 80 34 00
        E 0 80 37 00
        E 0 80 3b 00
        E 0 80 3e 00
        E 0 90 34 64
        E 120 80 34 00
        E 240 90 34 64
        E 0 90 37 64
        E 0 90 3b 64
        E 0 90 3e 64
        E 120 80 34 00
        E 0 80 37 00
        E 0 80 3b 00
        E 0 80 3e 00
        E 0 90 34 64
        E 120 80 34 00
        E 240 90 34 64
        E 0 90 37 64
        E 0 90 3b 64
        E 0 90 3e 64
        E 120 80 34 00
        E 0 80 37 00
        E 0 80 3b 00
        E 0 80 3e 00
        E 0 90 34 64
        E 120 80 34 00
        <X 359 0
          /wFbZW5kX2tleSBzb25nX3RyYWluZXJfa2V5XzRd
        >
        E 43201 b0 7b 00
        GUID {4457FCE7-0E57-46AA-9339-07A0E81B6183}
        IGNTEMPO 0 120.00000000 4 4
        SRCCOLOR 66
        VELLANE 132 128 60
        COLORMAP "C:\Program Files\REAPER (x64)\Data\color_maps\rockband_guitarbass.png"
        CFGEDITVIEW -8909.328748 7.742543 0 13 0 0 0
        CFGEDIT 1 1 0 1 1 0 1 1 1 1 1 0.12500000 53 44 1253 718 0 2 1 1 0.00000000 0 1 1 0 0.500000 0 0 1.000000 64
        KEYSNAP 0 7 "102030050700" 0 "Pentatonic"
        EVTFILTER 0 -1 -1 -1 -1 0 1 0 0 -1.00000000 -1.00000000
      >
    >
  >
  <TRACK '{1060CDD2-2081-4979-8657-D115C428E72F}'
    NAME "PART REAL_KEYS_H"
    PEAKCOL 16576
    BEAT -1
    AUTOMODE 0
    VOLPAN 1.00000000000000 0.00000000000000 -1.00000000000000 -1.00000000000000 1.00000000000000
    MUTESOLO 0 0 0
    IPHASE 0
    ISBUS 0 0
    BUSCOMP 0 0
    SHOWINMIX 1 0.666700 0.500000 1 0.500000 -1 -1 -1
    FREEMODE 0
    SEL 0
    REC 0 0 0 0 0 0 0
    VU 2
    TRACKHEIGHT 0 0
    INQ 0 0 0 0.5000000000 100 0 0 100
    NCHAN 2
    FX 1
    TRACKID {1060CDD2-2081-4979-8657-D115C428E72F}
    PERF 0
    MIDIOUT -1
    <MIDINOTENAMES
      0 72 "Highest playable note B#3"
      0 71 "B3"
      0 70 "A#3"
      0 69 "A3"
      0 68 "G#3"
      0 67 "G3"
      0 66 "F#3"
      0 65 "F3"
      0 64 "E3"
      0 63 "D#3"
      0 62 "D3"
      0 61 "C#3"
      0 60 "C3"
      0 59 "B2"
      0 58 "A#2"
      0 57 "A2"
      0 56 "G#2"
      0 55 "G2"
      0 54 "F#2"
      0 53 "F2"
      0 52 "E2"
      0 51 "D#2"
      0 50 "D2"
      0 49 "C#2"
      0 48 "Lowest playable note C2"
      0 10 "---"
      0 9 "Range A2-C4"
      0 8 "Range"
      0 7 "Range"
      0 6 "Range"
      0 5 "Range F2-A3"
      0 4 "Range"
      0 3 "Range"
      0 2 "Range"
      0 1 "Range"
      0 0 "Range C2-E3"
    >
    MAINSEND 1 0
    <FXCHAIN
      SHOW 0
      LASTSEL 0
      DOCKED 0
    >
    <ITEM
      POSITION 0.00000000000000
      SNAPOFFS 0.00000000000000
      LENGTH 145.04278911564626
      LOOP 0
      ALLTAKES 0
      SEL 0
      FADEIN 1 0.000000 0.000000 1 0
      FADEOUT 1 0.000000 0.000000 1 0
      MUTE 0
      IGUID {8AB3E158-E0D3-479D-84D3-7D5F8833F5B2}
      IID 9
      NAME "PART REAL_KEYS_H"
      VOLPAN 1.000000 0.000000 1.000000 -1.000000
      SOFFS 0.00000000000000 0.00000000000000
      PLAYRATE 1.00000000000000 1 0.00000000000000 -1
      CHANMODE 0
      GUID {3EFFAA73-FF1E-4B60-8DA5-14741B11CBB0}
      <SOURCE MIDI
        HASDATA 1 480 QN
        POOLEDEVTS {B4EA8C92-E007-4713-9316-A2050E049A1A}
        <X 0 0
          /wNQQVJUIFJFQUxfS0VZU19I
        >
        E 0 90 05 64
        E 60 80 05 00
        E 8580 90 39 64
        E 120 80 39 00
        E 240 90 37 64
        E 120 80 37 00
        E 120 90 37 64
        E 120 80 37 00
        E 240 90 40 60
        E 120 80 40 00
        E 120 90 40 64
        E 120 80 40 00
        E 120 90 3e 64
        E 120 80 3e 00
        E 360 90 40 64
        E 120 80 40 00
        E 240 90 40 64
        E 120 80 40 00
        E 240 90 3e 64
        E 120 80 3e 00
        E 120 90 3c 64
        E 120 80 3c 00
        E 360 90 3c 64
        E 120 80 3c 00
        E 240 90 3c 64
        E 120 80 3c 00
        E 240 90 39 64
        E 120 80 39 00
        E 120 90 39 64
        E 960 80 39 00
        E 480 90 39 64
        E 120 80 39 00
        E 360 90 37 64
        E 120 80 37 00
        E 360 90 40 60
        E 120 80 40 00
        E 120 90 40 60
        E 120 80 40 00
        E 120 90 3e 64
        E 120 80 3e 00
        E 360 90 40 64
        E 120 80 40 00
        E 240 90 40 64
        E 120 80 40 00
        E 240 90 3e 64
        E 120 80 3e 00
        E 120 90 3c 64
        E 120 80 3c 00
        E 360 90 3c 64
        E 120 80 3c 00
        E 360 90 3b 64
        E 120 80 3b 00
        E 120 90 39 64
        E 120 80 39 00
        E 120 90 39 64
        E 720 80 39 00
        E 1200 90 39 64
        E 120 80 39 00
        E 0 90 39 60
        E 120 80 39 00
        E 240 90 39 64
        E 120 80 39 00
        E 0 90 39 60
        E 120 80 39 00
        E 240 90 3c 64
        E 120 80 3c 00
        E 0 90 3c 60
        E 120 80 3c 00
        E 120 90 37 60
        E 120 80 37 00
        E 0 90 39 60
        E 120 80 39 00
        E 360 90 3c 64
        E 120 80 3c 00
        E 0 90 3c 60
        E 120 80 3c 00
        E 120 90 37 64
        E 120 80 37 00
        E 0 90 39 60
        E 120 80 39 00
        E 360 90 37 64
        E 120 80 37 00
        E 120 90 39 64
        E 120 80 39 00
        E 120 90 39 64
        E 120 80 39 00
        E 120 90 39 64
        E 480 80 39 00
        E 1680 90 39 64
        E 120 80 39 00
        E 0 90 39 60
        E 120 80 39 00
        E 240 90 39 64
        E 120 80 39 00
        E 0 90 39 60
        E 120 80 39 00
        E 240 90 3c 64
        E 120 80 3c 00
        E 0 90 3c 60
        E 120 80 3c 00
        E 120 90 37 60
        E 120 80 37 00
        E 0 90 39 60
        E 120 80 39 00
        E 360 90 3c 64
        E 120 80 3c 00
        E 0 90 3c 60
        E 120 80 3c 00
        E 120 90 37 64
        E 120 80 37 00
        E 0 90 39 60
        E 120 80 39 00
        E 360 90 37 64
        E 120 80 37 00
        E 120 90 39 64
        E 120 80 39 00
        E 120 90 39 64
        E 120 80 39 00
        E 120 90 39 64
        E 480 80 39 00
        E 13200 90 35 60
        E 0 90 39 60
        E 0 90 3c 60
        E 960 80 35 00
        E 0 80 39 00
        E 0 80 3c 00
        E 480 90 37 60
        E 0 90 3e 60
        E 0 90 40 64
        E 960 80 37 00
        E 0 80 3e 00
        E 0 80 40 00
        E 480 90 35 60
        E 0 90 37 64
        E 0 90 3e 60
        E 960 80 35 00
        E 0 80 37 00
        E 0 80 3e 00
        E 480 90 37 60
        E 0 90 3b 60
        E 0 90 3e 64
        E 960 80 37 00
        E 0 80 3b 00
        E 0 80 3e 00
        E 480 90 35 60
        E 0 90 39 60
        E 0 90 3c 60
        E 960 80 35 00
        E 0 80 39 00
        E 0 80 3c 00
        E 480 90 37 60
        E 0 90 3e 60
        E 0 90 40 64
        E 960 80 37 00
        E 0 80 3e 00
        E 0 80 40 00
        E 480 90 35 60
        E 0 90 37 64
        E 0 90 3e 60
        E 960 80 35 00
        E 0 80 37 00
        E 0 80 3e 00
        E 480 90 37 60
        E 0 90 3b 60
        E 0 90 3e 64
        E 960 80 37 00
        E 0 80 3b 00
        E 0 80 3e 00
        E 0 90 00 64
        E 120 80 00 00
        E 28680 90 35 64
        E 120 80 35 00
        E 120 90 35 64
        E 0 90 39 64
        E 0 90 3c 64
        E 120 80 35 00
        E 0 80 39 00
        E 0 80 3c 00
        E 240 90 35 64
        E 0 90 39 64
        E 0 90 3c 64
        E 120 80 35 00
        E 0 80 39 00
        E 0 80 3c 00
        E 240 90 35 64
        E 0 90 39 64
        E 0 90 3c 64
        E 120 80 35 00
        E 0 80 39 00
        E 0 80 3c 00
        E 240 90 34 64
        E 0 90 37 64
        E 0 90 3b 64
        E 120 80 34 00
        E 0 80 37 00
        E 0 80 3b 00
        E 240 90 34 64
        E 0 90 37 64
        E 0 90 3b 64
        E 120 80 34 00
        E 0 80 37 00
        E 0 80 3b 00
        E 240 90 34 64
        E 0 90 37 64
        E 0 90 3b 64
        E 120 80 34 00
        E 0 80 37 00
        E 0 80 3b 00
        E 240 90 34 64
        E 0 90 37 64
        E 0 90 3b 64
        E 120 80 34 00
        E 0 80 37 00
        E 0 80 3b 00
        E 600 90 32 64
        E 0 90 35 64
        E 0 90 39 64
        E 120 80 32 00
        E 0 80 35 00
        E 0 80 39 00
        E 960 90 34 64
        E 0 90 37 64
        E 0 90 3b 64
        E 120 80 34 00
        E 0 80 37 00
        E 0 80 3b 00
        E 240 90 34 64
        E 0 90 37 64
        E 0 90 3b 64
        E 120 80 34 00
        E 0 80 37 00
        E 0 80 3b 00
        E 240 90 34 64
        E 0 90 37 64
        E 0 90 3b 64
        E 120 80 34 00
        E 0 80 37 00
        E 0 80 3b 00
        E 240 90 34 64
        E 0 90 37 64
        E 0 90 3b 64
        E 120 80 34 00
        E 0 80 37 00
        E 0 80 3b 00
        E 240 90 35 64
        E 0 90 39 64
        E 0 90 3c 64
        E 120 80 35 00
        E 0 80 39 00
        E 0 80 3c 00
        E 240 90 35 64
        E 0 90 39 64
        E 0 90 3c 64
        E 120 80 35 00
        E 0 80 39 00
        E 0 80 3c 00
        E 240 90 35 64
        E 0 90 39 64
        E 0 90 3c 64
        E 120 80 35 00
        E 0 80 39 00
        E 0 80 3c 00
        E 240 90 35 64
        E 0 90 39 64
        E 0 90 3c 64
        E 120 80 35 00
        E 0 80 39 00
        E 0 80 3c 00
        E 240 90 34 64
        E 0 90 37 64
        E 0 90 3b 64
        E 120 80 34 00
        E 0 80 37 00
        E 0 80 3b 00
        E 240 90 34 64
        E 0 90 37 64
        E 0 90 3b 64
        E 120 80 34 00
        E 0 80 37 00
        E 0 80 3b 00
        E 240 90 34 64
        E 0 90 37 64
        E 0 90 3b 64
        E 120 80 34 00
        E 0 80 37 00
        E 0 80 3b 00
        E 240 90 34 64
        E 0 90 37 64
        E 0 90 3b 64
        E 120 80 34 00
        E 0 80 37 00
        E 0 80 3b 00
        E 240 90 32 64
        E 0 90 35 64
        E 0 90 39 64
        E 120 80 32 00
        E 0 80 35 00
        E 0 80 39 00
        E 240 90 32 64
        E 0 90 35 64
        E 0 90 39 64
        E 120 80 32 00
        E 0 80 35 00
        E 0 80 39 00
        E 240 90 32 64
        E 0 90 35 64
        E 0 90 39 64
        E 120 80 32 00
        E 0 80 35 00
        E 0 80 39 00
        E 240 90 32 64
        E 0 90 35 64
        E 0 90 39 64
        E 120 80 32 00
        E 0 80 35 00
        E 0 80 39 00
        E 240 90 34 64
        E 0 90 37 64
        E 0 90 3b 64
        E 120 80 34 00
        E 0 80 37 00
        E 0 80 3b 00
        E 360 90 34 64
        E 0 90 37 64
        E 0 90 3b 64
        E 120 80 34 00
        E 0 80 37 00
        E 0 80 3b 00
        E 360 90 34 64
        E 0 90 37 64
        E 0 90 3b 64
        E 119 80 34 00
        E 0 80 37 00
        E 0 80 3b 00
        E 43681 b0 7b 00
        GUID {6A4A7344-8B08-4654-9187-F907A329F36A}
        IGNTEMPO 0 120.00000000 4 4
        SRCCOLOR 67
        VELLANE 132 128 60
        COLORMAP "C:\Program Files\REAPER (x64)\Data\color_maps\rockband_guitarbass.png"
        CFGEDITVIEW -8909.328748 7.742543 8 15 0 0 0
        CFGEDIT 1 1 0 1 1 0 1 1 1 1 1 0.12500000 53 44 1253 718 0 2 1 1 0.00000000 0 1 1 0 0.500000 0 0 1.000000 64
        KEYSNAP 0 7 "102030050700" 0 "Pentatonic"
        EVTFILTER 0 -1 -1 -1 -1 0 1 0 0 -1.00000000 -1.00000000
      >
    >
  >
  <TRACK '{F153FB71-D968-4371-ADB1-BF1A9ED13C4B}'
    NAME "PART REAL_KEYS_M"
    PEAKCOL 16576
    BEAT -1
    AUTOMODE 0
    VOLPAN 1.00000000000000 0.00000000000000 -1.00000000000000 -1.00000000000000 1.00000000000000
    MUTESOLO 0 0 0
    IPHASE 0
    ISBUS 0 0
    BUSCOMP 0 0
    SHOWINMIX 1 0.666700 0.500000 1 0.500000 -1 -1 -1
    FREEMODE 0
    SEL 0
    REC 0 0 0 0 0 0 0
    VU 2
    TRACKHEIGHT 0 0
    INQ 0 0 0 0.5000000000 100 0 0 100
    NCHAN 2
    FX 1
    TRACKID {F153FB71-D968-4371-ADB1-BF1A9ED13C4B}
    PERF 0
    MIDIOUT -1
    <MIDINOTENAMES
      0 72 "Highest playable note B#3"
      0 71 "B3"
      0 70 "A#3"
      0 69 "A3"
      0 68 "G#3"
      0 67 "G3"
      0 66 "F#3"
      0 65 "F3"
      0 64 "E3"
      0 63 "D#3"
      0 62 "D3"
      0 61 "C#3"
      0 60 "C3"
      0 59 "B2"
      0 58 "A#2"
      0 57 "A2"
      0 56 "G#2"
      0 55 "G2"
      0 54 "F#2"
      0 53 "F2"
      0 52 "E2"
      0 51 "D#2"
      0 50 "D2"
      0 49 "C#2"
      0 48 "Lowest playable note C2"
      0 10 "---"
      0 9 "Range A2-C4"
      0 8 "Range"
      0 7 "Range"
      0 6 "Range"
      0 5 "Range F2-A3"
      0 4 "Range"
      0 3 "Range"
      0 2 "Range"
      0 1 "Range"
      0 0 "Range C2-E3"
    >
    MAINSEND 1 0
    <FXCHAIN
      SHOW 0
      LASTSEL 0
      DOCKED 0
    >
    <ITEM
      POSITION 0.00000000000000
      SNAPOFFS 0.00000000000000
      LENGTH 145.04278800000000
      LOOP 0
      ALLTAKES 0
      SEL 0
      FADEIN 1 0.000000 0.000000 1 0
      FADEOUT 1 0.000000 0.000000 1 0
      MUTE 0
      IGUID {0A86E74A-F5E4-4A6B-99BF-D206C9E84493}
      IID 10
      NAME "PART REAL_KEYS_M"
      VOLPAN 1.000000 0.000000 1.000000 -1.000000
      SOFFS 0.00000000000000 0.00000000000000
      PLAYRATE 1.00000000000000 1 0.00000000000000 -1
      CHANMODE 0
      GUID {9FD42CA9-4E50-4418-892A-1A3116DD0FBF}
      <SOURCE MIDI
        HASDATA 1 480 QN
        POOLEDEVTS {89DE7C03-8B5F-4371-9038-1BD4A928D082}
        <X 0 0
          /wNQQVJUIFJFQUxfS0VZU19N
        >
        E 0 90 00 64
        E 120 80 00 00
        E 8520 90 39 64
        E 120 80 39 00
        E 240 90 37 64
        E 120 80 37 00
        E 480 90 40 64
        E 120 80 40 00
        E 360 90 3e 64
        E 120 80 3e 00
        E 360 90 40 64
        E 120 80 40 00
        E 360 90 3e 64
        E 120 80 3e 00
        E 360 90 3c 64
        E 120 80 3c 00
        E 360 90 3c 64
        E 120 80 3c 00
        E 360 90 3b 64
        E 120 80 3b 00
        E 360 90 39 64
        E 960 80 39 00
        E 480 90 39 64
        E 120 80 39 00
        E 360 90 37 64
        E 120 80 37 00
        E 360 90 40 64
        E 120 80 40 00
        E 360 90 3e 64
        E 120 80 3e 00
        E 360 90 40 64
        E 120 80 40 00
        E 360 90 3e 64
        E 120 80 3e 00
        E 360 90 3c 64
        E 120 80 3c 00
        E 360 90 3c 64
        E 120 80 3c 00
        E 360 90 3b 64
        E 120 80 3b 00
        E 360 90 39 64
        E 720 80 39 00
        E 1200 90 39 64
        E 120 80 39 00
        E 360 90 39 64
        E 120 80 39 00
        E 360 90 3c 64
        E 120 80 3c 00
        E 360 90 39 64
        E 120 80 39 00
        E 360 90 3c 64
        E 120 80 3c 00
        E 360 90 39 64
        E 120 80 39 00
        E 360 90 37 60
        E 120 80 37 00
        E 360 90 39 60
        E 120 80 39 00
        E 120 90 39 64
        E 480 80 39 00
        E 1680 90 39 64
        E 120 80 39 00
        E 360 90 39 64
        E 120 80 39 00
        E 360 90 3c 64
        E 120 80 3c 00
        E 360 90 39 64
        E 120 80 39 00
        E 360 90 3c 64
        E 120 80 3c 00
        E 360 90 39 64
        E 120 80 39 00
        E 360 90 37 60
        E 120 80 37 00
        E 360 90 39 60
        E 120 80 39 00
        E 120 90 39 64
        E 480 80 39 00
        E 13200 90 35 60
        E 0 90 39 60
        E 720 80 35 00
        E 0 80 39 00
        E 720 90 37 60
        E 0 90 39 60
        E 720 80 37 00
        E 0 80 39 00
        E 720 90 35 60
        E 0 90 39 60
        E 720 80 35 00
        E 0 80 39 00
        E 720 90 37 60
        E 0 90 3e 60
        E 720 80 37 00
        E 0 80 3e 00
        E 720 90 35 60
        E 0 90 39 60
        E 720 80 35 00
        E 0 80 39 00
        E 720 90 37 60
        E 0 90 39 60
        E 720 80 37 00
        E 0 80 39 00
        E 720 90 35 60
        E 0 90 39 60
        E 720 80 35 00
        E 0 80 39 00
        E 720 90 37 60
        E 0 90 3e 60
        E 720 80 37 00
        E 0 80 3e 00
        E 29280 90 35 64
        E 0 90 39 64
        E 120 80 35 00
        E 0 80 39 00
        E 240 90 35 64
        E 0 90 39 64
        E 120 80 35 00
        E 0 80 39 00
        E 600 90 34 64
        E 0 90 37 64
        E 120 80 34 00
        E 0 80 37 00
        E 600 90 34 64
        E 0 90 37 64
        E 120 80 34 00
        E 0 80 37 00
        E 960 90 32 64
        E 0 90 35 64
        E 120 80 32 00
        E 0 80 35 00
        E 960 90 34 64
        E 0 90 37 64
        E 120 80 34 00
        E 0 80 37 00
        E 600 90 34 64
        E 0 90 37 64
        E 120 80 34 00
        E 0 80 37 00
        E 600 90 35 64
        E 0 90 39 64
        E 120 80 35 00
        E 0 80 39 00
        E 600 90 35 64
        E 0 90 39 64
        E 120 80 35 00
        E 0 80 39 00
        E 600 90 34 64
        E 0 90 37 64
        E 120 80 34 00
        E 0 80 37 00
        E 600 90 34 64
        E 0 90 37 64
        E 120 80 34 00
        E 0 80 37 00
        E 600 90 32 64
        E 0 90 35 64
        E 120 80 32 00
        E 0 80 35 00
        E 600 90 32 64
        E 0 90 35 64
        E 120 80 32 00
        E 0 80 35 00
        E 600 90 34 64
        E 0 90 37 64
        E 120 80 34 00
        E 0 80 37 00
        E 360 90 34 64
        E 0 90 37 64
        E 120 80 34 00
        E 0 80 37 00
        E 360 90 34 64
        E 0 90 37 64
        E 119 80 34 00
        E 0 80 37 00
        E 43681 b0 7b 00
        GUID {D0ADCB61-9DF5-42B6-969F-18F057F3B81C}
        IGNTEMPO 0 120.00000000 4 4
        SRCCOLOR 68
        VELLANE 132 128 60
        COLORMAP "C:\Program Files\REAPER (x64)\Data\color_maps\rockband_guitarbass.png"
        CFGEDITVIEW -8909.328748 7.742543 8 15 0 0 0
        CFGEDIT 1 1 0 1 1 0 1 1 1 1 1 0.12500000 53 44 1253 718 0 2 1 1 0.00000000 0 1 1 0 0.500000 0 0 1.000000 64
        KEYSNAP 0 7 "102030050700" 0 "Pentatonic"
        EVTFILTER 0 -1 -1 -1 -1 0 1 0 0 -1.00000000 -1.00000000
      >
    >
  >
  <TRACK '{E2FCEEE4-4F6C-4450-A57E-8B4D6F22C6E4}'
    NAME "PART REAL_KEYS_E"
    PEAKCOL 16576
    BEAT -1
    AUTOMODE 0
    VOLPAN 1.00000000000000 0.00000000000000 -1.00000000000000 -1.00000000000000 1.00000000000000
    MUTESOLO 0 0 0
    IPHASE 0
    ISBUS 0 0
    BUSCOMP 0 0
    SHOWINMIX 1 0.666700 0.500000 1 0.500000 -1 -1 -1
    FREEMODE 0
    SEL 0
    REC 0 0 0 0 0 0 0
    VU 2
    TRACKHEIGHT 0 0
    INQ 0 0 0 0.5000000000 100 0 0 100
    NCHAN 2
    FX 1
    TRACKID {E2FCEEE4-4F6C-4450-A57E-8B4D6F22C6E4}
    PERF 0
    MIDIOUT -1
    <MIDINOTENAMES
      0 72 "Highest playable note B#3"
      0 71 "B3"
      0 70 "A#3"
      0 69 "A3"
      0 68 "G#3"
      0 67 "G3"
      0 66 "F#3"
      0 65 "F3"
      0 64 "E3"
      0 63 "D#3"
      0 62 "D3"
      0 61 "C#3"
      0 60 "C3"
      0 59 "B2"
      0 58 "A#2"
      0 57 "A2"
      0 56 "G#2"
      0 55 "G2"
      0 54 "F#2"
      0 53 "F2"
      0 52 "E2"
      0 51 "D#2"
      0 50 "D2"
      0 49 "C#2"
      0 48 "Lowest playable note C2"
      0 10 "---"
      0 9 "Range A2-C4"
      0 8 "Range"
      0 7 "Range"
      0 6 "Range"
      0 5 "Range F2-A3"
      0 4 "Range"
      0 3 "Range"
      0 2 "Range"
      0 1 "Range"
      0 0 "Range C2-E3"
    >
    MAINSEND 1 0
    <FXCHAIN
      SHOW 0
      LASTSEL 0
      DOCKED 0
    >
    <ITEM
      POSITION 0.00000000000000
      SNAPOFFS 0.00000000000000
      LENGTH 145.04278911564626
      LOOP 0
      ALLTAKES 0
      SEL 0
      FADEIN 1 0.000000 0.000000 1 0
      FADEOUT 1 0.000000 0.000000 1 0
      MUTE 0
      IGUID {0D4A201E-B597-45D3-9BE7-4B46B1723AEA}
      IID 11
      NAME "PART REAL_KEYS_E"
      VOLPAN 1.000000 0.000000 1.000000 -1.000000
      SOFFS 0.00000000000000 0.00000000000000
      PLAYRATE 1.00000000000000 1 0.00000000000000 -1
      CHANMODE 0
      GUID {728A745C-0F5F-4883-9B6F-32F66389FDDC}
      <SOURCE MIDI
        HASDATA 1 480 QN
        POOLEDEVTS {DCD65706-1AD8-4750-8165-7AA357E6E404}
        <X 0 0
          /wNQQVJUIFJFQUxfS0VZU19F
        >
        E 0 90 00 64
        E 120 80 00 00
        E 8520 90 39 64
        E 120 80 39 00
        E 840 90 40 60
        E 120 80 40 00
        E 360 90 3e 64
        E 120 80 3e 00
        E 840 90 3e 60
        E 120 80 3e 00
        E 360 90 3c 64
        E 120 80 3c 00
        E 840 90 3b 64
        E 120 80 3b 00
        E 360 90 39 64
        E 720 80 39 00
        E 720 90 39 64
        E 120 80 39 00
        E 840 90 40 60
        E 120 80 40 00
        E 360 90 3e 64
        E 120 80 3e 00
        E 840 90 3e 64
        E 120 80 3e 00
        E 360 90 3c 64
        E 120 80 3c 00
        E 840 90 3b 64
        E 120 80 3b 00
        E 360 90 39 64
        E 720 80 39 00
        E 1200 90 39 64
        E 120 80 39 00
        E 840 90 3c 64
        E 120 80 3c 00
        E 840 90 3c 64
        E 120 80 3c 00
        E 840 90 37 64
        E 120 80 37 00
        E 600 90 39 64
        E 480 80 39 00
        E 1680 90 39 64
        E 120 80 39 00
        E 840 90 3c 64
        E 120 80 3c 00
        E 840 90 3c 64
        E 120 80 3c 00
        E 840 90 37 60
        E 120 80 37 00
        E 600 90 39 64
        E 480 80 39 00
        E 13200 90 34 64
        E 480 80 34 00
        E 960 90 39 64
        E 480 80 39 00
        E 960 90 37 64
        E 480 80 37 00
        E 960 90 3e 64
        E 480 80 3e 00
        E 960 90 34 64
        E 480 80 34 00
        E 960 90 39 64
        E 480 80 39 00
        E 960 90 37 64
        E 480 80 37 00
        E 960 90 3e 64
        E 480 80 3e 00
        E 29520 90 35 60
        E 120 80 35 00
        E 960 90 34 60
        E 120 80 34 00
        E 600 90 34 60
        E 120 80 34 00
        E 960 90 32 60
        E 120 80 32 00
        E 960 90 34 60
        E 120 80 34 00
        E 600 90 34 60
        E 120 80 34 00
        E 600 90 35 60
        E 120 80 35 00
        E 600 90 35 60
        E 120 80 35 00
        E 600 90 34 60
        E 120 80 34 00
        E 600 90 34 60
        E 120 80 34 00
        E 600 90 32 60
        E 120 80 32 00
        E 600 90 32 60
        E 120 80 32 00
        E 600 90 34 60
        E 120 80 34 00
        E 360 90 34 60
        E 120 80 34 00
        E 360 90 34 60
        E 119 80 34 00
        E 43681 b0 7b 00
        GUID {D4194AE9-2460-42A8-AD35-3ED972816475}
        IGNTEMPO 0 120.00000000 4 4
        SRCCOLOR 69
        VELLANE 132 128 60
        COLORMAP "C:\Program Files\REAPER (x64)\Data\color_maps\rockband_guitarbass.png"
        CFGEDITVIEW -8909.328748 7.742543 0 15 0 0 0
        CFGEDIT 1 1 0 1 1 0 1 1 1 1 1 0.12500000 53 44 1253 718 0 2 1 1 0.00000000 0 1 1 0 0.500000 0 0 1.000000 64
        KEYSNAP 0 7 "102030050700" 0 "Pentatonic"
        EVTFILTER 0 -1 -1 -1 -1 0 1 0 0 -1.00000000 -1.00000000
      >
    >
  >
  <TRACK '{D322FAAF-85F5-46F8-823F-D01753341660}'
    NAME "PART KEYS_ANIM_RH"
    PEAKCOL 16576
    BEAT -1
    AUTOMODE 0
    VOLPAN 1.00000000000000 0.00000000000000 -1.00000000000000 -1.00000000000000 1.00000000000000
    MUTESOLO 0 0 0
    IPHASE 0
    ISBUS 2 -1
    BUSCOMP 0 0
    SHOWINMIX 1 0.666700 0.500000 1 0.500000 -1 -1 -1
    FREEMODE 0
    SEL 0
    REC 0 0 0 0 0 0 0
    VU 2
    TRACKHEIGHT 0 0
    INQ 0 0 0 0.5000000000 100 0 0 100
    NCHAN 2
    FX 1
    TRACKID {D322FAAF-85F5-46F8-823F-D01753341660}
    PERF 0
    MIDIOUT -1
    <MIDINOTENAMES
      0 72 "Highest playable note B#3"
      0 71 "B3"
      0 70 "A#3"
      0 69 "A3"
      0 68 "G#3"
      0 67 "G3"
      0 66 "F#3"
      0 65 "F3"
      0 64 "E3"
      0 63 "D#3"
      0 62 "D3"
      0 61 "C#3"
      0 60 "C3"
      0 59 "B2"
      0 58 "A#2"
      0 57 "A2"
      0 56 "G#2"
      0 55 "G2"
      0 54 "F#2"
      0 53 "F2"
      0 52 "E2"
      0 51 "D#2"
      0 50 "D2"
      0 49 "C#2"
      0 48 "Lowest playable note C2"
    >
    MAINSEND 1 0
    <FXCHAIN
      SHOW 0
      LASTSEL 0
      DOCKED 0
    >
    <ITEM
      POSITION 0.00000000000000
      SNAPOFFS 0.00000000000000
      LENGTH 145.04278800000000
      LOOP 0
      ALLTAKES 0
      SEL 0
      FADEIN 1 0.000000 0.000000 1 0
      FADEOUT 1 0.000000 0.000000 1 0
      MUTE 0
      IGUID {CD8602E1-4E8D-46E2-8925-5ADF930B90BC}
      IID 12
      NAME "PART KEYS_ANIM_RH"
      VOLPAN 1.000000 0.000000 1.000000 -1.000000
      SOFFS 0.00000000000000 0.00000000000000
      PLAYRATE 1.00000000000000 1 0.00000000000000 -1
      CHANMODE 0
      GUID {A1582FD3-4226-4CCA-9979-AEA5085E2D1D}
      <SOURCE MIDI
        HASDATA 1 480 QN
        POOLEDEVTS {4D39D7CA-0A0E-4DE3-8F00-0C05C6E90BFD}
        <X 0 0
          /wNQQVJUIEtFWVNfQU5JTV9SSA==
        >
        E 8640 90 39 64
        E 120 80 39 00
        E 240 90 37 64
        E 120 80 37 00
        E 120 90 37 64
        E 120 80 37 00
        E 120 90 37 64
        E 120 80 37 00
        E 0 90 40 64
        E 120 80 40 00
        E 120 90 40 64
        E 120 80 40 00
        E 120 90 3e 64
        E 120 80 3e 00
        E 240 90 3e 64
        E 120 80 3e 00
        E 0 90 40 64
        E 120 80 40 00
        E 0 90 40 64
        E 120 80 40 00
        E 120 90 40 64
        E 120 80 40 00
        E 0 90 3e 64
        E 120 80 3e 00
        E 120 90 3e 64
        E 120 80 3e 00
        E 120 90 3c 64
        E 120 80 3c 00
        E 360 90 3c 64
        E 120 80 3c 00
        E 0 90 3c 64
        E 120 80 3c 00
        E 120 90 3c 64
        E 120 80 3c 00
        E 0 90 3b 64
        E 120 80 3b 00
        E 120 90 39 64
        E 120 80 39 00
        E 120 90 39 64
        E 960 80 39 00
        E 480 90 39 64
        E 120 80 39 00
        E 240 90 37 64
        E 120 80 37 00
        E 0 90 37 64
        E 120 80 37 00
        E 0 90 37 64
        E 120 80 37 00
        E 120 90 37 64
        E 120 80 37 00
        E 0 90 40 64
        E 120 80 40 00
        E 120 90 40 64
        E 120 80 40 00
        E 120 90 3e 64
        E 120 80 3e 00
        E 240 90 3e 64
        E 120 80 3e 00
        E 0 90 40 64
        E 120 80 40 00
        E 0 90 40 64
        E 120 80 40 00
        E 120 90 40 64
        E 120 80 40 00
        E 0 90 3e 64
        E 120 80 3e 00
        E 120 90 3e 64
        E 120 80 3e 00
        E 120 90 3c 64
        E 120 80 3c 00
        E 240 90 39 64
        E 120 80 39 00
        E 0 90 3c 64
        E 120 80 3c 00
        E 0 90 3c 64
        E 120 80 3c 00
        E 120 90 3c 64
        E 120 80 3c 00
        E 0 90 3b 64
        E 120 80 3b 00
        E 0 90 37 64
        E 120 80 37 00
        E 0 90 39 64
        E 120 80 39 00
        E 120 90 39 64
        E 720 80 39 00
        E 1080 90 39 64
        E 120 80 39 00
        E 0 90 39 64
        E 120 80 39 00
        E 0 90 39 64
        E 120 80 39 00
        E 120 90 37 64
        E 120 80 37 00
        E 0 90 39 64
        E 120 80 39 00
        E 0 90 39 64
        E 120 80 39 00
        E 120 90 37 64
        E 120 80 37 00
        E 0 90 3c 64
        E 120 80 3c 00
        E 0 90 3c 64
        E 120 80 3c 00
        E 120 90 37 64
        E 120 80 37 00
        E 0 90 39 64
        E 120 80 39 00
        E 240 90 37 64
        E 120 80 37 00
        E 0 90 3c 64
        E 120 80 3c 00
        E 0 90 3c 64
        E 120 80 3c 00
        E 120 90 37 64
        E 120 80 37 00
        E 0 90 39 64
        E 120 80 39 00
        E 240 90 37 64
        E 120 80 37 00
        E 0 90 37 64
        E 120 80 37 00
        E 120 90 39 64
        E 120 80 39 00
        E 120 90 39 64
        E 120 80 39 00
        E 120 90 39 64
        E 480 80 39 00
        E 1560 90 39 64
        E 120 80 39 00
        E 0 90 39 64
        E 120 80 39 00
        E 0 90 39 64
        E 120 80 39 00
        E 120 90 37 64
        E 120 80 37 00
        E 0 90 39 64
        E 120 80 39 00
        E 0 90 39 64
        E 120 80 39 00
        E 120 90 37 64
        E 120 80 37 00
        E 0 90 3c 64
        E 120 80 3c 00
        E 0 90 3c 64
        E 120 80 3c 00
        E 120 90 37 64
        E 120 80 37 00
        E 0 90 39 64
        E 120 80 39 00
        E 240 90 37 64
        E 120 80 37 00
        E 0 90 3c 64
        E 120 80 3c 00
        E 0 90 3c 64
        E 120 80 3c 00
        E 120 90 37 64
        E 120 80 37 00
        E 0 90 39 64
        E 120 80 39 00
        E 240 90 37 64
        E 120 80 37 00
        E 0 90 37 64
        E 120 80 37 00
        E 120 90 39 64
        E 120 80 39 00
        E 120 90 39 64
        E 120 80 39 00
        E 120 90 39 64
        E 480 80 39 00
        E 13080 90 35 64
        E 60 90 39 64
        E 60 90 3c 64
        E 0 90 40 64
        E 960 80 35 00
        E 0 80 39 00
        E 0 80 3c 00
        E 0 80 40 00
        E 360 90 37 64
        E 60 90 3e 64
        E 60 90 40 64
        E 0 90 45 64
        E 960 80 37 00
        E 0 80 3e 00
        E 0 80 40 00
        E 0 80 45 00
        E 360 90 35 64
        E 60 90 39 64
        E 60 90 3e 64
        E 0 90 43 64
        E 960 80 35 00
        E 0 80 39 00
        E 0 80 3e 00
        E 0 80 43 00
        E 360 90 37 64
        E 60 90 3b 64
        E 60 90 3e 64
        E 960 80 37 00
        E 0 80 3b 00
        E 0 80 3e 00
        E 360 90 35 64
        E 60 90 39 64
        E 60 90 3c 64
        E 0 90 40 64
        E 960 80 35 00
        E 0 80 39 00
        E 0 80 3c 00
        E 0 80 40 00
        E 360 90 37 64
        E 60 90 3b 64
        E 60 90 40 64
        E 0 90 45 64
        E 960 80 37 00
        E 0 80 3b 00
        E 0 80 40 00
        E 0 80 45 00
        E 360 90 35 64
        E 60 90 39 64
        E 60 90 3e 64
        E 0 90 43 64
        E 960 80 35 00
        E 0 80 39 00
        E 0 80 3e 00
        E 0 80 43 00
        E 360 90 37 64
        E 60 90 3b 64
        E 60 90 3e 64
        E 960 80 37 00
        E 0 80 3b 00
        E 0 80 3e 00
        E 28800 90 35 64
        E 120 80 35 00
        E 120 90 35 64
        E 0 90 39 64
        E 0 90 3c 64
        E 0 90 40 64
        E 120 80 35 00
        E 0 80 39 00
        E 0 80 3c 00
        E 0 80 40 00
        E 120 90 35 64
        E 120 80 35 00
        E 0 90 35 64
        E 0 90 39 64
        E 0 90 3c 64
        E 0 90 40 64
        E 120 80 35 00
        E 0 80 39 00
        E 0 80 3c 00
        E 0 80 40 00
        E 120 90 35 64
        E 120 80 35 00
        E 0 90 35 64
        E 0 90 39 64
        E 0 90 3c 64
        E 0 90 40 64
        E 120 80 35 00
        E 0 80 39 00
        E 0 80 3c 00
        E 0 80 40 00
        E 240 90 34 64
        E 0 90 37 64
        E 0 90 3b 64
        E 0 90 3e 64
        E 120 80 34 00
        E 0 80 37 00
        E 0 80 3b 00
        E 0 80 3e 00
        E 240 90 34 64
        E 0 90 37 64
        E 0 90 3b 64
        E 0 90 3e 64
        E 120 80 34 00
        E 0 80 37 00
        E 0 80 3b 00
        E 0 80 3e 00
        E 240 90 34 64
        E 0 90 37 64
        E 0 90 3b 64
        E 0 90 3e 64
        E 120 80 34 00
        E 0 80 37 00
        E 0 80 3b 00
        E 0 80 3e 00
        E 240 90 34 64
        E 0 90 37 64
        E 0 90 3b 64
        E 0 90 3e 64
        E 120 80 34 00
        E 0 80 37 00
        E 0 80 3b 00
        E 0 80 3e 00
        E 600 90 32 64
        E 0 90 35 64
        E 0 90 39 64
        E 0 90 3c 64
        E 120 80 32 00
        E 0 80 35 00
        E 0 80 39 00
        E 0 80 3c 00
        E 960 90 34 64
        E 0 90 37 64
        E 0 90 3b 64
        E 0 90 3e 64
        E 120 80 34 00
        E 0 80 37 00
        E 0 80 3b 00
        E 0 80 3e 00
        E 240 90 34 64
        E 0 90 37 64
        E 0 90 3b 64
        E 0 90 3e 64
        E 120 80 34 00
        E 0 80 37 00
        E 0 80 3b 00
        E 0 80 3e 00
        E 240 90 34 64
        E 0 90 37 64
        E 0 90 3b 64
        E 0 90 3e 64
        E 120 80 34 00
        E 0 80 37 00
        E 0 80 3b 00
        E 0 80 3e 00
        E 240 90 34 64
        E 0 90 37 64
        E 0 90 3b 64
        E 0 90 3e 64
        E 120 80 34 00
        E 0 80 37 00
        E 0 80 3b 00
        E 0 80 3e 00
        E 240 90 35 64
        E 0 90 39 64
        E 0 90 3c 64
        E 0 90 40 64
        E 120 80 35 00
        E 0 80 39 00
        E 0 80 3c 00
        E 0 80 40 00
        E 240 90 35 64
        E 0 90 39 64
        E 0 90 3c 64
        E 0 90 40 64
        E 120 80 35 00
        E 0 80 39 00
        E 0 80 3c 00
        E 0 80 40 00
        E 240 90 35 64
        E 0 90 39 64
        E 0 90 3c 64
        E 0 90 40 64
        E 120 80 35 00
        E 0 80 39 00
        E 0 80 3c 00
        E 0 80 40 00
        E 240 90 35 64
        E 0 90 39 64
        E 0 90 3c 64
        E 0 90 40 64
        E 120 80 35 00
        E 0 80 39 00
        E 0 80 3c 00
        E 0 80 40 00
        E 240 90 34 64
        E 0 90 37 64
        E 0 90 3b 64
        E 0 90 3e 64
        E 120 80 34 00
        E 0 80 37 00
        E 0 80 3b 00
        E 0 80 3e 00
        E 240 90 34 64
        E 0 90 37 64
        E 0 90 3b 64
        E 0 90 3e 64
        E 120 80 34 00
        E 0 80 37 00
        E 0 80 3b 00
        E 0 80 3e 00
        E 240 90 34 64
        E 0 90 37 64
        E 0 90 3b 64
        E 0 90 3e 64
        E 120 80 34 00
        E 0 80 37 00
        E 0 80 3b 00
        E 0 80 3e 00
        E 240 90 34 64
        E 0 90 37 64
        E 0 90 3b 64
        E 0 90 3e 64
        E 120 80 34 00
        E 0 80 37 00
        E 0 80 3b 00
        E 0 80 3e 00
        E 240 90 32 64
        E 0 90 35 64
        E 0 90 39 64
        E 0 90 3c 64
        E 120 80 32 00
        E 0 80 35 00
        E 0 80 39 00
        E 0 80 3c 00
        E 240 90 32 64
        E 0 90 35 64
        E 0 90 39 64
        E 0 90 3c 64
        E 120 80 32 00
        E 0 80 35 00
        E 0 80 39 00
        E 0 80 3c 00
        E 240 90 32 64
        E 0 90 35 64
        E 0 90 39 64
        E 0 90 3c 64
        E 120 80 32 00
        E 0 80 35 00
        E 0 80 39 00
        E 0 80 3c 00
        E 240 90 32 64
        E 0 90 35 64
        E 0 90 39 64
        E 0 90 3c 64
        E 120 80 32 00
        E 0 80 35 00
        E 0 80 39 00
        E 0 80 3c 00
        E 240 90 34 64
        E 0 90 37 64
        E 0 90 3b 64
        E 0 90 3e 64
        E 120 80 34 00
        E 0 80 37 00
        E 0 80 3b 00
        E 0 80 3e 00
        E 0 90 34 64
        E 120 80 34 00
        E 240 90 34 64
        E 0 90 37 64
        E 0 90 3b 64
        E 0 90 3e 64
        E 120 80 34 00
        E 0 80 37 00
        E 0 80 3b 00
        E 0 80 3e 00
        E 0 90 34 64
        E 120 80 34 00
        E 240 90 34 64
        E 0 90 37 64
        E 0 90 3b 64
        E 0 90 3e 64
        E 120 80 34 00
        E 0 80 37 00
        E 0 80 3b 00
        E 0 80 3e 00
        E 0 90 34 64
        E 120 80 34 00
        E 43560 b0 7b 00
        GUID {1BB5D00F-8263-4559-B2DE-E49EFA928DDA}
        IGNTEMPO 0 120.00000000 4 4
        SRCCOLOR 70
        VELLANE 132 128 60
        COLORMAP "C:\Program Files\REAPER (x64)\Data\color_maps\rockband_guitarbass.png"
        CFGEDITVIEW -8909.328748 7.742543 0 22 0 0 0
        CFGEDIT 1 1 0 1 1 0 1 1 1 1 1 0.12500000 53 44 1253 718 0 2 1 1 0.00000000 0 1 1 0 0.500000 0 0 1.000000 64
        KEYSNAP 0 7 "102030050700" 0 "Pentatonic"
        EVTFILTER 0 -1 -1 -1 -1 0 1 0 0 -1.00000000 -1.00000000
      >
    >
  >
  <TRACK '{841EDC2A-D60B-4073-8DC3-33C95125E7C3}'
    NAME "EVENTS"
    PEAKCOL 16576
    BEAT -1
    AUTOMODE 0
    VOLPAN 1.00000000000000 0.00000000000000 -1.00000000000000 -1.00000000000000 1.00000000000000
    MUTESOLO 0 0 0
    IPHASE 0
    ISBUS 0 0
    BUSCOMP 0 0
    SHOWINMIX 1 0.666700 0.500000 1 0.500000 -1 -1 -1
    FREEMODE 0
    SEL 0
    REC 0 0 0 0 0 0 0
    VU 2
    TRACKHEIGHT 0 0
    INQ 0 0 0 0.5000000000 100 0 0 100
    NCHAN 2
    FX 1
    TRACKID {841EDC2A-D60B-4073-8DC3-33C95125E7C3}
    PERF 0
    MIDIOUT -1
    <MIDINOTENAMES
      0 26 "Hi-Hat"
      0 25 "Snare"
      0 24 "Kick"
    >
    MAINSEND 1 0
    <FXCHAIN
      SHOW 0
      LASTSEL 0
      DOCKED 0
    >
    <ITEM
      POSITION 0.00000000000000
      SNAPOFFS 0.00000000000000
      LENGTH 145.04278800000000
      LOOP 0
      ALLTAKES 0
      SEL 0
      FADEIN 1 0.000000 0.000000 1 0
      FADEOUT 1 0.000000 0.000000 1 0
      MUTE 0
      IGUID {AC192EB5-DD54-4DE3-B8C2-B5AEAFD9EB16}
      IID 14
      NAME "EVENTS"
      VOLPAN 1.000000 0.000000 1.000000 -1.000000
      SOFFS 0.00000000000000 0.00000000000000
      PLAYRATE 1.00000000000000 1 0.00000000000000 -1
      CHANMODE 0
      GUID {02D7B4AB-B361-458D-9D30-DB372CD07A21}
      <SOURCE MIDI
        HASDATA 1 480 QN
        POOLEDEVTS {9776573B-0EF6-4048-A39B-7AA221B24D17}
        <X 0 0
          /wNFVkVOVFM=
        >
        <X 2880 0
          /wFbcHJjX2ludHJvX2Fd
        >
        <X 0 0
          /wFbbXVzaWNfc3RhcnRd
        >
        <X 0 0
          /wFbY3Jvd2Rfbm9jbGFwXQ==
        >
        <X 0 0
          /wFbY3Jvd2RfbWVsbG93XQ==
        >
        <X 17280 0
          /wFbcHJjX2ludHJvX2Jd
        >
        <X 1440 0
          /wFbY3Jvd2RfY2xhcF0=
        >
        <X 10080 0
          /wFbcHJjX2Nob3J1c18xXQ==
        >
        <X 0 0
          /wFbY3Jvd2RfaW50ZW5zZV0=
        >
        <X 11520 0
          /wFbcHJjX3ZlcnNlXzFd
        >
        <X 0 0
          /wFbY3Jvd2Rfbm9ybWFsXQ==
        >
        <X 11520 0
          /wFbY3Jvd2RfaW50ZW5zZV0=
        >
        <X 0 0
          /wFbcHJjX2Nob3J1c18yXQ==
        >
        <X 11520 0
          /wFbcHJjX2JyZWFrXQ==
        >
        <X 0 0
          /wFbY3Jvd2Rfbm9jbGFwXQ==
        >
        <X 0 0
          /wFbY3Jvd2RfbWVsbG93XQ==
        >
        <X 17280 0
          /wFbY3Jvd2RfY2xhcF0=
        >
        <X 0 0
          /wFbcHJjX3ZlcnNlXzJd
        >
        <X 11520 0
          /wFbcHJjX2Nob3J1c18zYV0=
        >
        <X 0 0
          /wFbY3Jvd2RfaW50ZW5zZV0=
        >
        <X 20160 0
          /wFbcHJjX2Nob3J1c18zYl0=
        >
        <X 20640 0
          /wFbbXVzaWNfZW5kXQ==
        >
        <X 0 0
          /wFbY3Jvd2RfcmVhbHRpbWVd
        >
        <X 2395 0
          /wFbZW5kXQ==
        >
        E 5 b0 7b 00
        GUID {D37B1F31-3C9F-4B56-A994-498842826CD9}
        IGNTEMPO 0 120.00000000 4 4
        SRCCOLOR 72
        VELLANE 132 128 60
        COLORMAP "C:\Program Files\REAPER (x64)\Data\color_maps\rockband_guitarbass.png"
        CFGEDITVIEW -8909.328748 7.742543 0 48 0 0 0
        CFGEDIT 1 1 0 1 1 0 1 1 1 1 1 0.12500000 53 44 1253 718 0 2 1 1 0.00000000 0 1 1 0 0.500000 0 0 1.000000 64
        KEYSNAP 0 7 "102030050700" 0 "Pentatonic"
        EVTFILTER 0 -1 -1 -1 -1 0 1 0 0 -1.00000000 -1.00000000
      >
    >
  >
  <TRACK '{AD641570-18D0-47E5-92AF-084DEC27B575}'
    NAME "BEAT"
    PEAKCOL 16576
    BEAT -1
    AUTOMODE 0
    VOLPAN 1.00000000000000 0.00000000000000 -1.00000000000000 -1.00000000000000 1.00000000000000
    MUTESOLO 0 0 0
    IPHASE 0
    ISBUS 0 0
    BUSCOMP 0 0
    SHOWINMIX 1 0.666700 0.500000 1 0.500000 -1 -1 -1
    FREEMODE 0
    SEL 0
    REC 0 0 0 0 0 0 0
    VU 2
    TRACKHEIGHT 0 0
    INQ 0 0 0 0.5000000000 100 0 0 100
    NCHAN 2
    FX 1
    TRACKID {AD641570-18D0-47E5-92AF-084DEC27B575}
    PERF 0
    MIDIOUT -1
    <MIDINOTENAMES
      0 13 "Up Beats"
      0 12 "Downbeat"
    >
    MAINSEND 1 0
    <FXCHAIN
      SHOW 0
      LASTSEL 0
      DOCKED 0
    >
    <ITEM
      POSITION 0.00000000000000
      SNAPOFFS 0.00000000000000
      LENGTH 145.04278800000000
      LOOP 0
      ALLTAKES 0
      SEL 0
      FADEIN 1 0.000000 0.000000 1 0
      FADEOUT 1 0.000000 0.000000 1 0
      MUTE 0
      IGUID {1C1D3AAA-CCF8-4B24-A734-B67D53FD832E}
      IID 15
      NAME "BEAT"
      VOLPAN 1.000000 0.000000 1.000000 -1.000000
      SOFFS 0.00000000000000 0.00000000000000
      PLAYRATE 1.00000000000000 1 0.00000000000000 -1
      CHANMODE 0
      GUID {8AD842E4-BB9E-4BCB-B693-BD623C6D1BC3}
      <SOURCE MIDI
        HASDATA 1 480 QN
        POOLEDEVTS {26B7B51B-8784-433E-820E-B2C119E176BB}
        <X 0 0
          /wNCRUFU
        >
        E 0 96 0c 64
        E 120 86 0c 00
        E 360 96 0d 64
        E 120 86 0d 00
        E 360 96 0d 64
        E 120 86 0d 00
        E 360 96 0d 64
        E 120 86 0d 00
        E 360 96 0c 64
        E 120 86 0c 00
        E 360 96 0d 64
        E 120 86 0d 00
        E 360 96 0d 64
        E 120 86 0d 00
        E 360 96 0d 64
        E 120 86 0d 00
        E 360 96 0c 64
        E 120 86 0c 00
        E 360 96 0d 64
        E 120 86 0d 00
        E 360 96 0d 64
        E 120 86 0d 00
        E 360 96 0d 64
        E 120 86 0d 00
        E 360 96 0c 64
        E 120 86 0c 00
        E 360 96 0d 64
        E 120 86 0d 00
        E 360 96 0d 64
        E 120 86 0d 00
        E 360 96 0d 64
        E 120 86 0d 00
        E 360 96 0c 64
        E 120 86 0c 00
        E 360 96 0d 64
        E 120 86 0d 00
        E 360 96 0d 64
        E 120 86 0d 00
        E 360 96 0d 64
        E 120 86 0d 00
        E 360 96 0c 64
        E 120 86 0c 00
        E 360 96 0d 64
        E 120 86 0d 00
        E 360 96 0d 64
        E 120 86 0d 00
        E 360 96 0d 64
        E 120 86 0d 00
        E 360 96 0c 64
        E 120 86 0c 00
        E 360 96 0d 64
        E 120 86 0d 00
        E 360 96 0d 64
        E 120 86 0d 00
        E 360 96 0d 64
        E 120 86 0d 00
        E 360 96 0c 64
        E 120 86 0c 00
        E 360 96 0d 64
        E 120 86 0d 00
        E 360 96 0d 64
        E 120 86 0d 00
        E 360 96 0d 64
        E 120 86 0d 00
        E 360 96 0c 64
        E 120 86 0c 00
        E 360 96 0d 64
        E 120 86 0d 00
        E 360 96 0d 64
        E 120 86 0d 00
        E 360 96 0d 64
        E 120 86 0d 00
        E 360 96 0c 64
        E 120 86 0c 00
        E 360 96 0d 64
        E 120 86 0d 00
        E 360 96 0d 64
        E 120 86 0d 00
        E 360 96 0d 64
        E 120 86 0d 00
        E 360 96 0c 64
        E 120 86 0c 00
        E 360 96 0d 64
        E 120 86 0d 00
        E 360 96 0d 64
        E 120 86 0d 00
        E 360 96 0d 64
        E 120 86 0d 00
        E 360 96 0c 64
        E 120 86 0c 00
        E 360 96 0d 64
        E 120 86 0d 00
        E 360 96 0d 64
        E 120 86 0d 00
        E 360 96 0d 64
        E 120 86 0d 00
        E 360 96 0c 64
        E 120 86 0c 00
        E 360 96 0d 64
        E 120 86 0d 00
        E 360 96 0d 64
        E 120 86 0d 00
        E 360 96 0d 64
        E 120 86 0d 00
        E 360 96 0c 64
        E 120 86 0c 00
        E 360 96 0d 64
        E 120 86 0d 00
        E 360 96 0d 64
        E 120 86 0d 00
        E 360 96 0d 64
        E 120 86 0d 00
        E 360 96 0c 64
        E 120 86 0c 00
        E 360 96 0d 64
        E 120 86 0d 00
        E 360 96 0d 64
        E 120 86 0d 00
        E 360 96 0d 64
        E 120 86 0d 00
        E 360 96 0c 64
        E 120 86 0c 00
        E 360 96 0d 64
        E 120 86 0d 00
        E 360 96 0d 64
        E 120 86 0d 00
        E 360 96 0d 64
        E 120 86 0d 00
        E 360 96 0c 64
        E 120 86 0c 00
        E 360 96 0d 64
        E 120 86 0d 00
        E 360 96 0d 64
        E 120 86 0d 00
        E 360 96 0d 64
        E 120 86 0d 00
        E 360 96 0c 64
        E 120 86 0c 00
        E 360 96 0d 64
        E 120 86 0d 00
        E 360 96 0d 64
        E 120 86 0d 00
        E 360 96 0d 64
        E 120 86 0d 00
        E 360 96 0c 64
        E 120 86 0c 00
        E 360 96 0d 64
        E 120 86 0d 00
        E 360 96 0d 64
        E 120 86 0d 00
        E 360 96 0d 64
        E 120 86 0d 00
        E 360 96 0c 64
        E 120 86 0c 00
        E 360 96 0d 64
        E 120 86 0d 00
        E 360 96 0d 64
        E 120 86 0d 00
        E 360 96 0d 64
        E 120 86 0d 00
        E 360 96 0c 64
        E 120 86 0c 00
        E 360 96 0d 64
        E 120 86 0d 00
        E 360 96 0d 64
        E 120 86 0d 00
        E 360 96 0d 64
        E 120 86 0d 00
        E 360 96 0c 64
        E 120 86 0c 00
        E 360 96 0d 64
        E 120 86 0d 00
        E 360 96 0d 64
        E 120 86 0d 00
        E 360 96 0d 64
        E 120 86 0d 00
        E 360 96 0c 64
        E 120 86 0c 00
        E 360 96 0d 64
        E 120 86 0d 00
        E 360 96 0d 64
        E 120 86 0d 00
        E 360 96 0d 64
        E 120 86 0d 00
        E 360 96 0c 64
        E 120 86 0c 00
        E 360 96 0d 64
        E 120 86 0d 00
        E 360 96 0d 64
        E 120 86 0d 00
        E 360 96 0d 64
        E 120 86 0d 00
        E 360 96 0c 64
        E 120 86 0c 00
        E 360 96 0d 64
        E 120 86 0d 00
        E 360 96 0d 64
        E 120 86 0d 00
        E 360 96 0d 64
        E 120 86 0d 00
        E 360 96 0c 64
        E 120 86 0c 00
        E 360 96 0d 64
        E 120 86 0d 00
        E 360 96 0d 64
        E 120 86 0d 00
        E 360 96 0d 64
        E 120 86 0d 00
        E 360 96 0c 64
        E 120 86 0c 00
        E 360 96 0d 64
        E 120 86 0d 00
        E 360 96 0d 64
        E 120 86 0d 00
        E 360 96 0d 64
        E 120 86 0d 00
        E 360 96 0c 64
        E 120 86 0c 00
        E 360 96 0d 64
        E 120 86 0d 00
        E 360 96 0d 64
        E 120 86 0d 00
        E 360 96 0d 64
        E 120 86 0d 00
        E 360 96 0c 64
        E 120 86 0c 00
        E 360 96 0d 64
        E 120 86 0d 00
        E 360 96 0d 64
        E 120 86 0d 00
        E 360 96 0d 64
        E 120 86 0d 00
        E 360 96 0c 64
        E 120 86 0c 00
        E 360 96 0d 64
        E 120 86 0d 00
        E 360 96 0d 64
        E 120 86 0d 00
        E 360 96 0d 64
        E 120 86 0d 00
        E 360 96 0c 64
        E 120 86 0c 00
        E 360 96 0d 64
        E 120 86 0d 00
        E 360 96 0d 64
        E 120 86 0d 00
        E 360 96 0d 64
        E 120 86 0d 00
        E 360 96 0c 64
        E 120 86 0c 00
        E 360 96 0d 64
        E 120 86 0d 00
        E 360 96 0d 64
        E 120 86 0d 00
        E 360 96 0d 64
        E 120 86 0d 00
        E 360 96 0c 64
        E 120 86 0c 00
        E 360 96 0d 64
        E 120 86 0d 00
        E 360 96 0d 64
        E 120 86 0d 00
        E 360 96 0d 64
        E 120 86 0d 00
        E 360 96 0c 64
        E 120 86 0c 00
        E 360 96 0d 64
        E 120 86 0d 00
        E 360 96 0d 64
        E 120 86 0d 00
        E 360 96 0d 64
        E 120 86 0d 00
        E 360 96 0c 64
        E 120 86 0c 00
        E 360 96 0d 64
        E 120 86 0d 00
        E 360 96 0d 64
        E 120 86 0d 00
        E 360 96 0d 64
        E 120 86 0d 00
        E 360 96 0c 64
        E 120 86 0c 00
        E 360 96 0d 64
        E 120 86 0d 00
        E 360 96 0d 64
        E 120 86 0d 00
        E 360 96 0d 64
        E 120 86 0d 00
        E 360 96 0c 64
        E 120 86 0c 00
        E 360 96 0d 64
        E 120 86 0d 00
        E 360 96 0d 64
        E 120 86 0d 00
        E 360 96 0d 64
        E 120 86 0d 00
        E 360 96 0c 64
        E 120 86 0c 00
        E 360 96 0d 64
        E 120 86 0d 00
        E 360 96 0d 64
        E 120 86 0d 00
        E 360 96 0d 64
        E 120 86 0d 00
        E 360 96 0c 64
        E 120 86 0c 00
        E 360 96 0d 64
        E 120 86 0d 00
        E 360 96 0d 64
        E 120 86 0d 00
        E 360 96 0d 64
        E 120 86 0d 00
        E 360 96 0c 64
        E 120 86 0c 00
        E 360 96 0d 64
        E 120 86 0d 00
        E 360 96 0d 64
        E 120 86 0d 00
        E 360 96 0d 64
        E 120 86 0d 00
        E 360 96 0c 64
        E 120 86 0c 00
        E 360 96 0d 64
        E 120 86 0d 00
        E 360 96 0d 64
        E 120 86 0d 00
        E 360 96 0d 64
        E 120 86 0d 00
        E 360 96 0c 64
        E 120 86 0c 00
        E 360 96 0d 64
        E 120 86 0d 00
        E 360 96 0d 64
        E 120 86 0d 00
        E 360 96 0d 64
        E 120 86 0d 00
        E 360 96 0c 64
        E 120 86 0c 00
        E 360 96 0d 64
        E 120 86 0d 00
        E 360 96 0d 64
        E 120 86 0d 00
        E 360 96 0d 64
        E 120 86 0d 00
        E 360 96 0c 64
        E 120 86 0c 00
        E 360 96 0d 64
        E 120 86 0d 00
        E 360 96 0d 64
        E 120 86 0d 00
        E 360 96 0d 64
        E 120 86 0d 00
        E 360 96 0c 64
        E 120 86 0c 00
        E 360 96 0d 64
        E 120 86 0d 00
        E 360 96 0d 64
        E 120 86 0d 00
        E 360 96 0d 64
        E 120 86 0d 00
        E 360 96 0c 64
        E 120 86 0c 00
        E 360 96 0d 64
        E 120 86 0d 00
        E 360 96 0d 64
        E 120 86 0d 00
        E 360 96 0d 64
        E 120 86 0d 00
        E 360 96 0c 64
        E 120 86 0c 00
        E 360 96 0d 64
        E 120 86 0d 00
        E 360 96 0d 64
        E 120 86 0d 00
        E 360 96 0d 64
        E 120 86 0d 00
        E 360 96 0c 64
        E 120 86 0c 00
        E 360 96 0d 64
        E 120 86 0d 00
        E 360 96 0d 64
        E 120 86 0d 00
        E 360 96 0d 64
        E 120 86 0d 00
        E 360 96 0c 64
        E 120 86 0c 00
        E 360 96 0d 64
        E 120 86 0d 00
        E 360 96 0d 64
        E 120 86 0d 00
        E 360 96 0d 64
        E 120 86 0d 00
        E 360 96 0c 64
        E 120 86 0c 00
        E 360 96 0d 64
        E 120 86 0d 00
        E 360 96 0d 64
        E 120 86 0d 00
        E 360 96 0d 64
        E 120 86 0d 00
        E 360 96 0c 64
        E 120 86 0c 00
        E 360 96 0d 64
        E 120 86 0d 00
        E 360 96 0d 64
        E 120 86 0d 00
        E 360 96 0d 64
        E 120 86 0d 00
        E 360 96 0c 64
        E 120 86 0c 00
        E 360 96 0d 64
        E 120 86 0d 00
        E 360 96 0d 64
        E 120 86 0d 00
        E 360 96 0d 64
        E 120 86 0d 00
        E 360 96 0c 64
        E 120 86 0c 00
        E 360 96 0d 64
        E 120 86 0d 00
        E 360 96 0d 64
        E 120 86 0d 00
        E 360 96 0d 64
        E 120 86 0d 00
        E 360 96 0c 64
        E 120 86 0c 00
        E 360 96 0d 64
        E 120 86 0d 00
        E 360 96 0d 64
        E 120 86 0d 00
        E 360 96 0d 64
        E 120 86 0d 00
        E 360 96 0c 64
        E 120 86 0c 00
        E 360 96 0d 64
        E 120 86 0d 00
        E 360 96 0d 64
        E 120 86 0d 00
        E 360 96 0d 64
        E 120 86 0d 00
        E 360 96 0c 64
        E 120 86 0c 00
        E 360 96 0d 64
        E 120 86 0d 00
        E 360 96 0d 64
        E 120 86 0d 00
        E 360 96 0d 64
        E 120 86 0d 00
        E 360 96 0c 64
        E 120 86 0c 00
        E 360 96 0d 64
        E 120 86 0d 00
        E 360 96 0d 64
        E 120 86 0d 00
        E 360 96 0d 64
        E 120 86 0d 00
        E 360 96 0c 64
        E 120 86 0c 00
        E 360 96 0d 64
        E 120 86 0d 00
        E 360 96 0d 64
        E 120 86 0d 00
        E 360 96 0d 64
        E 120 86 0d 00
        E 360 96 0c 64
        E 120 86 0c 00
        E 360 96 0d 64
        E 120 86 0d 00
        E 360 96 0d 64
        E 120 86 0d 00
        E 360 96 0d 64
        E 120 86 0d 00
        E 360 96 0c 64
        E 120 86 0c 00
        E 360 96 0d 64
        E 120 86 0d 00
        E 360 96 0d 64
        E 120 86 0d 00
        E 360 96 0d 64
        E 120 86 0d 00
        E 360 96 0c 64
        E 120 86 0c 00
        E 360 96 0d 64
        E 120 86 0d 00
        E 360 96 0d 64
        E 120 86 0d 00
        E 360 96 0d 64
        E 120 86 0d 00
        E 360 96 0c 64
        E 120 86 0c 00
        E 360 96 0d 64
        E 120 86 0d 00
        E 360 96 0d 64
        E 120 86 0d 00
        E 360 96 0d 64
        E 120 86 0d 00
        E 360 96 0c 64
        E 120 86 0c 00
        E 360 96 0d 64
        E 120 86 0d 00
        E 360 96 0d 64
        E 120 86 0d 00
        E 360 96 0d 64
        E 120 86 0d 00
        E 360 96 0c 64
        E 120 86 0c 00
        E 360 96 0d 64
        E 120 86 0d 00
        E 360 96 0d 64
        E 120 86 0d 00
        E 360 96 0d 64
        E 120 86 0d 00
        E 360 96 0c 64
        E 120 86 0c 00
        E 360 96 0d 64
        E 120 86 0d 00
        E 360 96 0d 64
        E 120 86 0d 00
        E 360 96 0d 64
        E 120 86 0d 00
        E 360 96 0c 64
        E 120 86 0c 00
        E 360 96 0d 64
        E 120 86 0d 00
        E 360 96 0d 64
        E 120 86 0d 00
        E 360 96 0d 64
        E 120 86 0d 00
        E 360 96 0c 64
        E 120 86 0c 00
        E 360 96 0d 64
        E 120 86 0d 00
        E 360 96 0d 64
        E 120 86 0d 00
        E 360 96 0d 64
        E 120 86 0d 00
        E 360 96 0c 64
        E 120 86 0c 00
        E 360 96 0d 64
        E 120 86 0d 00
        E 360 96 0d 64
        E 120 86 0d 00
        E 360 96 0d 64
        E 120 86 0d 00
        E 360 96 0c 64
        E 120 86 0c 00
        E 360 96 0d 64
        E 120 86 0d 00
        E 360 96 0d 64
        E 120 86 0d 00
        E 360 96 0d 64
        E 120 86 0d 00
        E 360 96 0c 64
        E 120 86 0c 00
        E 360 96 0d 64
        E 120 86 0d 00
        E 360 96 0d 64
        E 120 86 0d 00
        E 360 96 0d 64
        E 120 86 0d 00
        E 360 96 0c 64
        E 120 86 0c 00
        E 360 96 0d 64
        E 120 86 0d 00
        E 360 96 0d 64
        E 120 86 0d 00
        E 360 96 0d 64
        E 120 86 0d 00
        E 360 96 0c 64
        E 120 86 0c 00
        E 360 96 0d 64
        E 120 86 0d 00
        E 360 96 0d 64
        E 120 86 0d 00
        E 360 96 0d 64
        E 120 86 0d 00
        E 360 b0 7b 00
        GUID {D96A6C77-4F7D-485B-9598-74FB6A9494BC}
        IGNTEMPO 0 120.00000000 4 4
        SRCCOLOR 73
        VELLANE 132 128 60
        COLORMAP "C:\Program Files\REAPER (x64)\Data\color_maps\rockband_guitarbass.png"
        CFGEDITVIEW -8909.328748 7.742543 0 48 0 0 0
        CFGEDIT 1 1 0 1 1 0 1 1 1 1 1 0.12500000 53 44 1253 718 0 2 1 1 0.00000000 0 1 1 0 0.500000 0 0 1.000000 64
        KEYSNAP 0 7 "102030050700" 0 "Pentatonic"
        EVTFILTER 0 -1 -1 -1 -1 0 1 0 0 -1.00000000 -1.00000000
      >
    >
  >
  <TRACK '{BAD3D282-4139-4E2A-AEE9-3F3CBC16365A}'
    NAME "backing"
    PEAKCOL 16576
    BEAT -1
    AUTOMODE 0
    VOLPAN 1.00000000000000 0.00000000000000 -1.00000000000000 -1.00000000000000 1.00000000000000
    MUTESOLO 0 0 0
    IPHASE 0
    ISBUS 0 0
    BUSCOMP 0 0
    SHOWINMIX 1 0.666700 0.500000 1 0.500000 -1 -1 -1
    FREEMODE 0
    SEL 0
    REC 0 0 0 0 0 0 0
    VU 2
    TRACKHEIGHT 0 0
    INQ 0 0 0 0.5000000000 100 0 0 100
    NCHAN 2
    FX 1
    TRACKID {BAD3D282-4139-4E2A-AEE9-3F3CBC16365A}
    PERF 0
    MIDIOUT -1
    MAINSEND 1 0
    <ITEM
      POSITION 0.00000000000000
      SNAPOFFS 0.00000000000000
      LENGTH 145.04278911564626
      LOOP 0
      ALLTAKES 0
      SEL 0
      FADEIN 1 0.000000 0.000000 1 0
      FADEOUT 1 0.000000 0.000000 1 0
      MUTE 0
      IGUID {F233BFFA-474A-4EC7-89EC-0BF7540273BF}
      IID 16
      NAME "backing.wav"
      VOLPAN 1.000000 0.000000 1.000000 -1.000000
      SOFFS 0.00000000000000
      PLAYRATE 1.00000000000000 1 0.00000000000000 -1
      CHANMODE 0
      GUID {F1AB9546-1130-42E3-91E5-1D725959BD51}
      <SOURCE WAVE
        FILE "wav\backing.wav"
      >
    >
  >
  <EXTENSIONS
  >
>
