<REAPER_PROJECT 0.1 "4.22/x64"
  RIPPLE 0
  GROUPOVERRIDE 0 0 0
  AUTOXFADE 1
  ENVATTACH 1
  MIXERUIFLAGS 11 48
  PEAKGAIN 1.00000000000000
  FEEDBACK 0
  PANLAW 1.00000000000000
  PROJOFFS 0.00000000000000 0
  MAXPROJLEN 0 600.00000000000000
  GRID 3199 8 1.00000000000000 8 1.00000000000000 0
  TIMEMODE 1 0 -1
  PANMODE 3
  CURSOR 0.00000000000000
  ZOOM 5.31772485642779 0 0
  VZOOMEX 5
  USE_REC_CFG 0
  RECMODE 1
  SMPTESYNC 0 23.976024 100 40 1000 300 0 0.000000 1
  LOOP 1
  LOOPGRAN 0 4.00000000000000
  RECORD_PATH "" ""
  <RECORD_CFG
    ZXZhdxAD
  >
  <APPLYFX_CFG
  >
  RENDER_FILE ""
  RENDER_PATTERN ""
  RENDER_FMT 0 2 0
  RENDER_1X 0
  RENDER_RANGE 2 0.00000000000000 0.00000000000000
  RENDER_RESAMPLE 3 0 1
  RENDER_ADDTOPROJ 0
  RENDER_STEMS 0
  RENDER_DITHER 0
  TIMELOCKMODE 0
  ITEMMIX 0
  DEFPITCHMODE 393216
  TAKELANE 1
  SAMPLERATE 44100 0 0
  <RENDER_CFG
  >
  LOCK 1
  <METRONOME 6 2.000000
    VOL 0.250000 0.125000
    FREQ 800 1600 1
    BEATLEN 4
    SAMPLES "" ""
  >
  GLOBAL_AUTO -1
  TEMPO 120.00000000000000 4 4
  PLAYRATE 1.00000000000000 0 0.25000 4.00000
  SELECTION 236.43057157291659 0.00000000000000
  SELECTION2 236.43057157291659 0.00000000000000
  MASTERAUTOMODE 0
  MASTERTRACKHEIGHT 0
  MASTERPEAKCOL 16576
  MASTERMUTESOLO 0
  MASTERTRACKVIEW 0 0.666700 0.500000 0.500000 -1 -1 -1
  MASTERHWOUT 0 0 1.00000000000000 0.00000000000000 0 0 0 -1.00000000000000
  MASTER_NCH 2 2
  MASTER_VOLUME 1.00000000000000 0.00000000000000 -1.00000000000000 -1.00000000000000 1.00000000000000
  MASTER_PANMODE -1
  MASTER_FX 1
  MASTER_SEL 0
  <MASTERPLAYSPEEDENV
    ACT 0
    VIS 0 1 1.000000
    LANEHEIGHT 0 0
    ARM 0
    DEFSHAPE 0 -1 -1
  >
  <TEMPOENVEX
    ACT 1
    VIS 1 0 1.000000
    LANEHEIGHT 0 0
    ARM 0
    DEFSHAPE 1 -1 -1
    PT 0.000000000000 121.6670823625 1
    PT 4.931490000000 129.4445319394 1
    PT 5.858528000000 125.0000000000 1
    PT 6.818528000000 129.4445319394 1
    PT 7.745566000000 125.0000000000 1
    PT 8.705566000000 126.6667229630 1
    PT 9.652934000000 123.3334566668 1
    PT 12.571850000000 125.5555834568 1
    PT 13.527602000000 122.7777232099 1
    PT 15.482354000000 126.1110912603 1
    PT 17.385438000000 123.8888716821 1
    PT 18.354048000000 126.6667229630 1
    PT 19.301416000000 125.0000000000 1
    PT 22.181416000000 127.2221468313 1
    PT 23.124648000000 124.4444075720 1
    PT 26.017506000000 126.6667229630 1
    PT 26.964874000000 119.4443449075 1
    PT 27.467200000000 121.6665889352 1
    PT 27.960351000000 128.8889557202 1
    PT 28.891385000000 123.8888716821 1
    PT 29.859995000000 126.1110912603 1
    PT 30.811537000000 123.8888716821 1
    PT 33.717367000000 125.0000000000 1
    PT 35.637367000000 128.8889557202 1
    PT 36.568401000000 123.8888716821 1
    PT 37.537011000000 128.8889557202 1
    PT 38.468045000000 121.1110729836 1
    PT 39.458871000000 127.2221468313 1
    PT 40.402103000000 121.6665889352 1
    PT 41.388405000000 128.3334616668 1
    PT 42.323469000000 123.3334566668 1
    PT 43.296441000000 130.0001300001 1
    PT 44.219517000000 126.6667229630 1
    PT 45.166885000000 121.6665889352 1
    PT 47.139489000000 127.7778369342 1
    PT 48.078619000000 121.6665889352 1
    PT 49.064921000000 123.8888716821 1
    PT 49.549226000000 127.7778369342 1
    PT 50.018791000000 122.7777232099 1
    PT 50.996167000000 127.2221468313 1
    PT 51.939399000000 123.8888716821 1
    PT 52.908009000000 126.1110912603 1
    PT 55.286864000000 130.5556885289 1
    PT 55.746438000000 122.7777232099 1
    PT 57.212502000000 127.2221468313 1
    PT 57.684118000000 123.8888716821 1
    PT 58.652728000000 126.1110912603 1
    PT 59.604270000000 124.4444075720 1
    PT 62.014985000000 120.5555198354 1
    PT 62.512681000000 126.6667229630 1
    PT 63.460049000000 125.0000000000 1
    PT 69.220049000000 123.3334566668 1
    PT 70.193021000000 127.2221468313 1
    PT 72.079485000000 124.4444075720 1
    PT 72.561628000000 127.7778369342 1
    PT 73.031193000000 118.8888646708 1
    PT 73.535866000000 122.7777232099 1
    PT 74.513242000000 132.2220802059 1
    PT 74.967024000000 126.1110912603 1
    PT 75.442795000000 121.6665889352 1
    PT 75.935946000000 124.4444075720 1
    PT 77.864518000000 126.6667229630 1
    PT 78.811886000000 123.3334566668 1
    PT 80.271344000000 132.7777322891 1
    PT 80.723227000000 124.4444075720 1
    PT 87.473229000000 126.1110912603 1
    PT 88.424771000000 125.0000000000 1
    PT 91.784771000000 125.8560835684 1
    PT 96.075386000000 121.6665889352 1
    PT 98.047990000000 128.3334616668 1
    PT 98.983054000000 129.4445319394 1
    PT 99.910092000000 120.5555198354 1
    PT 101.403180000000 129.4445319394 1
    PT 101.866699000000 125.0000000000 1
    PT 103.786699000000 123.8888716821 1
    PT 104.755309000000 126.6667229630 1
    PT 106.176361000000 126.1110912603 1
    PT 106.652132000000 125.0000000000 1
    PT 113.372132000000 122.2222448560 1
    PT 113.863041000000 128.8889557202 1
    PT 114.328558000000 122.7777232099 1
    PT 114.817246000000 123.3334566668 1
    PT 118.222648000000 125.5555834568 1
    PT 120.612028000000 130.0001300001 1
    PT 121.073566000000 124.4444075720 1
    PT 124.448567000000 132.2220802059 1
    PT 124.907075895833 124.4444075720 1
    PT 125.866339572917 126.1110912603 1
    PT 128.720965572917 123.3334566668 1
    PT 129.693937572917 125.0000000000 1
    PT 133.533937572917 124.4444075720 1
    PT 134.498223572917 121.6665889352 1
    PT 135.484525572917 127.7778369342 1
    PT 135.954090572917 133.3333333333 1
    PT 136.404090572917 124.4444075720 1
    PT 139.296948572917 126.6667229630 1
    PT 140.244316572917 123.3334566668 1
    PT 141.703774572917 125.1559234213 1
    PT 143.621382572917 127.2221468313 1
    PT 145.036230572917 120.0000000000 1
    PT 145.536230572917 133.3333333333 1
    PT 145.986230572917 121.6665889352 1
    PT 146.972532572917 125.5555834568 1
    PT 149.361912572917 122.2222448560 1
    PT 150.834639572917 126.6667229630 1
    PT 152.729375572917 120.0000000000 1
    PT 153.229375572917 125.0000000000 1
    PT 156.589375572917 125.7561086030 1
    PT 159.452059572917 123.8888716821 1
    PT 161.389279572917 125.5555834568 1
    PT 164.256535572917 123.8888716821 1
    PT 166.678060572917 132.2220802059 1
    PT 167.131842572917 123.3334566668 1
    PT 168.104814572917 126.6667229630 1
    PT 168.578498572917 123.8888716821 1
    PT 170.031413572917 125.5555834568 1
    PT 170.987165572917 122.2222448560 1
    PT 171.968983572917 128.3334616668 1
    PT 172.904047572917 124.4444075720 1
    PT 173.868333572917 129.4445319394 1
    PT 174.795371572917 122.7777232099 1
    PT 175.284059572917 125.0000000000 1
    PT 176.244059572917 131.6667251852 1
    PT 176.699755572917 124.4444075720 1
    PT 178.628327572917 122.7777232099 1
    PT 179.605703572917 126.1110912603 1
    PT 181.508787572917 122.2222448560 1
    PT 183.472423572917 131.1111451029 1
    PT 184.387677572917 118.8888646708 1
    PT 185.397023572917 122.7777232099 1
    PT 185.885711572917 132.7777322891 1
    PT 186.337594572917 122.7777232099 1
    PT 187.314970572917 127.7778369342 1
    PT 187.784535572917 125.0000000000 1
    PT 190.184535572917 126.6667229630 1
    PT 191.605587572917 129.4445319394 1
    PT 192.069106572917 122.7777232099 1
    PT 193.046482572917 123.8888716821 1
    PT 193.530787572917 118.3333925000 1
    PT 194.037829572917 121.1110729836 1
    PT 194.533242572917 125.0000000000 1
    PT 195.013242572917 134.4444419547 1
    PT 195.905804572917 122.2222448560 1
    PT 196.887622572917 123.8888716821 1
    PT 198.824842572917 128.3334616668 1
    PT 199.759906572917 123.3334566668 1
    PT 200.732878572917 123.8888716821 1
    PT 202.670098572917 126.1110912603 1
    PT 204.573182572917 123.3334566668 1
    PT 206.519126572917 126.6667229630 1
    PT 207.466494572917 125.0000000000 1
    PT 211.306494572917 123.8888716821 1
    PT 212.275104572917 125.0000000000 1
    PT 214.195104572917 126.6667229630 1
    PT 217.037208572917 123.3334566668 1
    PT 218.983152572917 123.8888716821 1
    PT 219.951762572917 127.2221468313 1
    PT 220.894994572917 121.1110729836 1
    PT 221.390407572917 126.6667229630 1
    PT 223.758827572917 127.2221468313 1
    PT 224.702059572917 122.7777232099 1
  >
  <PROJBAY
  >
  <TRACK '{F327141D-BF40-444A-921D-DB7CDF6DA769}'
    NAME "PART DRUMS"
    PEAKCOL 16576
    BEAT -1
    AUTOMODE 0
    VOLPAN 1.00000000000000 0.00000000000000 -1.00000000000000 -1.00000000000000 1.00000000000000
    MUTESOLO 0 0 0
    IPHASE 0
    ISBUS 0 0
    BUSCOMP 0 0
    SHOWINMIX 1 0.666700 0.500000 1 0.500000 -1 -1 -1
    FREEMODE 0
    SEL 0
    REC 0 0 0 0 0 0 0
    VU 2
    TRACKHEIGHT 0 0
    INQ 0 0 0 0.5000000000 100 0 0 100
    NCHAN 2
    FX 1
    TRACKID {F327141D-BF40-444A-921D-DB7CDF6DA769}
    PERF 0
    MIDIOUT -1
    <MIDINOTENAMES
      0 127 "CYMBAL SWELLS"
      0 126 "DRUM ROLL"
      0 125 "---"
      0 124 "DRUM FILL"
      0 123 "DRUM FILL"
      0 122 "DRUM FILL"
      0 121 "DRUM FILL"
      0 120 "DRUM FILL (use all 5)"
      0 118 "----"
      0 116 "OVERDRIVE"
      0 114 "----"
      0 112 "TOM GEMS PAD 4"
      0 111 "TOM GEMS PAD 3"
      0 110 "TOM GEMS PAD 2"
      0 103 "Solo Marker"
      0 102 "----"
      0 100 "EXPERT Green"
      0 99 "EXPERT Blue"
      0 98 "EXPERT Yellow"
      0 97 "EXPERT Red"
      0 96 "EXPERT Kick"
      0 92 "----"
      0 88 "HARD Green"
      0 87 "HARD Blue"
      0 86 "HARD Yellow"
      0 85 "HARD Red"
      0 84 "HARD Kick"
      0 80 "----"
      0 76 "MEDIUM Green"
      0 75 "MEDIUM Blue"
      0 74 "MEDIUM Yellow"
      0 73 "MEDIUM Red"
      0 72 "MEDIUM Kick"
      0 68 "----"
      0 64 "EASY Green"
      0 63 "EASY Blue"
      0 62 "EASY Yellow"
      0 61 "EASY Red"
      0 60 "EASY Kick"
      0 56 "----"
      0 52 "-- DRUM ANIMATION --"
      0 51 "FLOOR TOM RH"
      0 50 "FLOOR TOM LH"
      0 49 "TOM2 RH"
      0 48 "TOM2 LH"
      0 47 "TOM1 RH"
      0 46 "TOM1 LH"
      0 45 "SOFT CRASH 2 LH"
      0 44 "CRASH 2 LH"
      0 43 "RIDE LH"
      0 42 "RIDE CYM RH"
      0 41 "CRASH2 CHOKE"
      0 40 "CRASH1 CHOKE"
      0 39 "CRASH2 SOFT RH"
      0 38 "CRASH2 HARD RH"
      0 37 "CRASH1 SOFT RH"
      0 36 "CRASH1 HARD RH"
      0 35 "CRASH1 SOFT LH"
      0 34 "CRASH1 HARD LH"
      0 32 "PERCUSSION RH"
      0 31 "HI-HAT RH"
      0 30 "HI-HAT LH"
      0 29 "SOFT SNARE RH"
      0 28 "SOFT SNARE LH"
      0 27 "SNARE RH"
      0 26 "SNARE LH"
      0 25 "HI-HAT OPEN"
      0 24 "KICK RF"
    >
    MAINSEND 1 0
    <FXCHAIN
      WNDRECT 0 43 891 559
      SHOW 0
      LASTSEL 0
      DOCKED 0
      BYPASS 0 0
      <VST "VSTi: RBN Preview (RBN)" "rbprev_vst64.dll" 0 ""
        dnBicu5e7f4AAAAAAgAAAAEAAAAAAAAAAgAAAAAAAAAEAAAAAQAAAA==
        AAAQAAMBqgAAABAAAAA=
      >
      FLOATPOS 0 0 0 0
      FXID {3D128D99-4073-4886-BCE1-01D13A8D0478}
      WAK 0
    >
    <ITEM
      POSITION 0.00000000000000
      SNAPOFFS 0.00000000000000
      LENGTH 236.43058956916099
      LOOP 0
      ALLTAKES 0
      SEL 0
      FADEIN 1 0.000000 0.000000 1 0
      FADEOUT 1 0.000000 0.000000 1 0
      MUTE 0
      IGUID {98AFF17C-DB7B-48B2-809A-57076F6F40B1}
      IID 1
      NAME "PART DRUMS"
      VOLPAN 1.000000 0.000000 1.000000 -1.000000
      SOFFS 0.00000000000000 0.00000000000000
      PLAYRATE 1.00000000000000 1 0.00000000000000 -1
      CHANMODE 0
      GUID {6A3905EE-148D-424B-8263-5542AAF37C5D}
      <SOURCE MIDI
        HASDATA 1 480 QN
        POOLEDEVTS {6977DE26-F556-402E-8360-9A777A93C458}
        <X 0 0
          /wNQQVJUIERSVU1T
        >
        <X 120 0
          /wFbbWl4IDAgZHJ1bXMwXQ==
        >
        <X 120 0
          /wFbbWl4IDEgZHJ1bXMwXQ==
        >
        <X 120 0
          /wFbbWl4IDIgZHJ1bXMwXQ==
        >
        <X 120 0
          /wFbbWl4IDMgZHJ1bXMwXQ==
        >
        <X 3360 0
          /wFbbWVsbG93XQ==
        >
        E 0 90 18 60
        E 0 90 1f 60
        E 0 90 3e 60
        E 0 90 48 60
        E 0 90 4a 60
        E 0 90 54 60
        E 0 90 56 60
        E 0 90 60 60
        E 0 90 62 60
        E 120 80 18 00
        E 0 80 1f 00
        E 0 80 3e 00
        E 0 80 48 00
        E 0 80 4a 00
        E 0 80 54 00
        E 0 80 56 00
        E 0 80 60 00
        E 0 80 62 00
        E 360 90 1f 60
        E 0 90 3e 60
        E 0 90 4a 60
        E 0 90 56 60
        E 0 90 62 60
        E 120 80 1f 00
        E 0 80 3e 00
        E 0 80 4a 00
        E 0 80 56 00
        E 0 80 62 00
        E 360 90 1a 60
        E 0 90 1f 60
        E 0 90 3d 60
        E 0 90 3e 60
        E 0 90 49 60
        E 0 90 4a 60
        E 0 90 55 60
        E 0 90 56 60
        E 0 90 61 60
        E 0 90 62 60
        E 120 80 1a 00
        E 0 80 1f 00
        E 0 80 3d 00
        E 0 80 3e 00
        E 0 80 49 00
        E 0 80 4a 00
        E 0 80 55 00
        E 0 80 56 00
        E 0 80 61 00
        E 0 80 62 00
        E 360 90 1f 60
        E 0 90 3e 60
        E 0 90 4a 60
        E 0 90 56 60
        E 0 90 62 60
        E 120 80 1f 00
        E 0 80 3e 00
        E 0 80 4a 00
        E 0 80 56 00
        E 0 80 62 00
        E 120 90 18 60
        E 0 90 54 60
        E 0 90 60 60
        E 120 80 18 00
        E 0 80 54 00
        E 0 80 60 00
        E 120 90 18 60
        E 0 90 1f 60
        E 0 90 3e 60
        E 0 90 48 60
        E 0 90 4a 60
        E 0 90 54 60
        E 0 90 56 60
        E 0 90 60 60
        E 0 90 62 60
        E 120 80 18 00
        E 0 80 1f 00
        E 0 80 3e 00
        E 0 80 48 00
        E 0 80 4a 00
        E 0 80 54 00
        E 0 80 56 00
        E 0 80 60 00
        E 0 80 62 00
        E 360 90 1f 60
        E 0 90 3e 60
        E 0 90 4a 60
        E 0 90 56 60
        E 0 90 62 60
        E 120 80 1f 00
        E 0 80 3e 00
        E 0 80 4a 00
        E 0 80 56 00
        E 0 80 62 00
        E 360 90 1a 60
        E 0 90 1f 60
        E 0 90 3d 60
        E 0 90 3e 60
        E 0 90 49 60
        E 0 90 4a 60
        E 0 90 55 60
        E 0 90 56 60
        E 0 90 61 60
        E 0 90 62 60
        E 120 80 1a 00
        E 0 80 1f 00
        E 0 80 3d 00
        E 0 80 3e 00
        E 0 80 49 00
        E 0 80 4a 00
        E 0 80 55 00
        E 0 80 56 00
        E 0 80 61 00
        E 0 80 62 00
        E 360 90 1f 60
        E 0 90 3e 60
        E 0 90 4a 60
        E 0 90 56 60
        E 0 90 62 60
        E 120 80 1f 00
        E 0 80 3e 00
        E 0 80 4a 00
        E 0 80 56 00
        E 0 80 62 00
        E 120 90 18 60
        E 0 90 54 60
        E 0 90 60 60
        E 120 80 18 00
        E 0 80 54 00
        E 0 80 60 00
        E 120 90 18 60
        E 0 90 1f 60
        E 0 90 3e 60
        E 0 90 48 60
        E 0 90 4a 60
        E 0 90 54 60
        E 0 90 56 60
        E 0 90 60 60
        E 0 90 62 60
        E 120 80 18 00
        E 0 80 1f 00
        E 0 80 3e 00
        E 0 80 48 00
        E 0 80 4a 00
        E 0 80 54 00
        E 0 80 56 00
        E 0 80 60 00
        E 0 80 62 00
        E 360 90 1f 60
        E 0 90 3e 60
        E 0 90 4a 60
        E 0 90 56 60
        E 0 90 62 60
        E 120 80 1f 00
        E 0 80 3e 00
        E 0 80 4a 00
        E 0 80 56 00
        E 0 80 62 00
        E 360 90 1a 60
        E 0 90 1f 60
        E 0 90 3d 60
        E 0 90 3e 60
        E 0 90 49 60
        E 0 90 4a 60
        E 0 90 55 60
        E 0 90 56 60
        E 0 90 61 60
        E 0 90 62 60
        E 120 80 1a 00
        E 0 80 1f 00
        E 0 80 3d 00
        E 0 80 3e 00
        E 0 80 49 00
        E 0 80 4a 00
        E 0 80 55 00
        E 0 80 56 00
        E 0 80 61 00
        E 0 80 62 00
        E 360 90 1f 60
        E 0 90 3e 60
        E 0 90 4a 60
        E 0 90 56 60
        E 0 90 62 60
        E 120 80 1f 00
        E 0 80 3e 00
        E 0 80 4a 00
        E 0 80 56 00
        E 0 80 62 00
        E 120 90 18 60
        E 0 90 54 60
        E 0 90 60 60
        E 120 80 18 00
        E 0 80 54 00
        E 0 80 60 00
        E 120 90 18 60
        E 0 90 1f 60
        E 0 90 3e 60
        E 0 90 48 60
        E 0 90 4a 60
        E 0 90 54 60
        E 0 90 56 60
        E 0 90 60 60
        E 0 90 62 60
        E 0 90 74 60
        E 120 80 18 00
        E 0 80 1f 00
        E 0 80 3e 00
        E 0 80 48 00
        E 0 80 4a 00
        E 0 80 54 00
        E 0 80 56 00
        E 0 80 60 00
        E 0 80 62 00
        E 360 90 1f 60
        E 0 90 3e 60
        E 0 90 4a 60
        E 0 90 56 60
        E 0 90 62 60
        E 120 80 1f 00
        E 0 80 3e 00
        E 0 80 4a 00
        E 0 80 56 00
        E 0 80 62 00
        E 360 90 1a 60
        E 0 90 1f 60
        E 0 90 3d 60
        E 0 90 3e 60
        E 0 90 49 60
        E 0 90 4a 60
        E 0 90 55 60
        E 0 90 56 60
        E 0 90 61 60
        E 0 90 62 60
        E 120 80 1a 00
        E 0 80 1f 00
        E 0 80 3d 00
        E 0 80 3e 00
        E 0 80 49 00
        E 0 80 4a 00
        E 0 80 55 00
        E 0 80 56 00
        E 0 80 61 00
        E 0 80 62 00
        E 360 90 1f 60
        E 0 90 3e 60
        E 0 90 4a 60
        E 0 90 56 60
        E 0 90 62 60
        E 120 80 1f 00
        E 0 80 3e 00
        E 0 80 4a 00
        E 0 80 56 00
        E 0 80 62 00
        E 120 90 18 60
        E 0 90 54 60
        E 0 90 60 60
        E 120 80 18 00
        E 0 80 54 00
        E 0 80 60 00
        E 120 80 74 00
        E 0 90 18 60
        E 0 90 1f 60
        E 0 90 3e 60
        E 0 90 48 60
        E 0 90 4a 60
        E 0 90 54 60
        E 0 90 56 60
        E 0 90 60 60
        E 0 90 62 60
        E 120 80 18 00
        E 0 80 1f 00
        E 0 80 3e 00
        E 0 80 48 00
        E 0 80 4a 00
        E 0 80 54 00
        E 0 80 56 00
        E 0 80 60 00
        E 0 80 62 00
        E 360 90 1f 60
        E 0 90 3e 60
        E 0 90 4a 60
        E 0 90 56 60
        E 0 90 62 60
        E 120 80 1f 00
        E 0 80 3e 00
        E 0 80 4a 00
        E 0 80 56 00
        E 0 80 62 00
        E 360 90 1a 60
        E 0 90 1f 60
        E 0 90 3d 60
        E 0 90 3e 60
        E 0 90 49 60
        E 0 90 4a 60
        E 0 90 55 60
        E 0 90 56 60
        E 0 90 61 60
        E 0 90 62 60
        E 120 80 1a 00
        E 0 80 1f 00
        E 0 80 3d 00
        E 0 80 3e 00
        E 0 80 49 00
        E 0 80 4a 00
        E 0 80 55 00
        E 0 80 56 00
        E 0 80 61 00
        E 0 80 62 00
        E 360 90 1f 60
        E 0 90 3e 60
        E 0 90 4a 60
        E 0 90 56 60
        E 0 90 62 60
        E 120 80 1f 00
        E 0 80 3e 00
        E 0 80 4a 00
        E 0 80 56 00
        E 0 80 62 00
        E 120 90 18 60
        E 0 90 54 60
        E 0 90 60 60
        E 120 80 18 00
        E 0 80 54 00
        E 0 80 60 00
        E 120 90 18 60
        E 0 90 1f 60
        E 0 90 3e 60
        E 0 90 48 60
        E 0 90 4a 60
        E 0 90 54 60
        E 0 90 56 60
        E 0 90 60 60
        E 0 90 62 60
        E 120 80 18 00
        E 0 80 1f 00
        E 0 80 3e 00
        E 0 80 48 00
        E 0 80 4a 00
        E 0 80 54 00
        E 0 80 56 00
        E 0 80 60 00
        E 0 80 62 00
        E 360 90 18 60
        E 0 90 1f 60
        E 0 90 3e 60
        E 0 90 48 60
        E 0 90 4a 60
        E 0 90 54 60
        E 0 90 56 60
        E 0 90 60 60
        E 0 90 62 60
        E 120 80 18 00
        E 0 80 1f 00
        E 0 80 3e 00
        E 0 80 48 00
        E 0 80 4a 00
        E 0 80 54 00
        E 0 80 56 00
        E 0 80 60 00
        E 0 80 62 00
        E 360 90 1a 60
        E 0 90 1f 60
        E 0 90 3d 60
        E 0 90 3e 60
        E 0 90 49 60
        E 0 90 4a 60
        E 0 90 55 60
        E 0 90 56 60
        E 0 90 61 60
        E 0 90 62 60
        E 120 80 1a 00
        E 0 80 1f 00
        E 0 80 3d 00
        E 0 80 3e 00
        E 0 80 49 00
        E 0 80 4a 00
        E 0 80 55 00
        E 0 80 56 00
        E 0 80 61 00
        E 0 80 62 00
        E 360 90 1f 60
        E 0 90 3e 60
        E 0 90 4a 60
        E 0 90 56 60
        E 0 90 62 60
        E 120 80 1f 00
        E 0 80 3e 00
        E 0 80 4a 00
        E 0 80 56 00
        E 0 80 62 00
        E 120 90 18 60
        E 0 90 54 60
        E 0 90 60 60
        E 120 80 18 00
        E 0 80 54 00
        E 0 80 60 00
        E 120 90 18 60
        E 0 90 1f 60
        E 0 90 3e 60
        E 0 90 48 60
        E 0 90 4a 60
        E 0 90 54 60
        E 0 90 56 60
        E 0 90 60 60
        E 0 90 62 60
        E 120 80 18 00
        E 0 80 1f 00
        E 0 80 3e 00
        E 0 80 48 00
        E 0 80 4a 00
        E 0 80 54 00
        E 0 80 56 00
        E 0 80 60 00
        E 0 80 62 00
        E 360 90 1f 60
        E 0 90 3e 60
        E 0 90 4a 60
        E 0 90 56 60
        E 0 90 62 60
        E 120 80 1f 00
        E 0 80 3e 00
        E 0 80 4a 00
        E 0 80 56 00
        E 0 80 62 00
        E 360 90 1a 60
        E 0 90 1f 60
        E 0 90 3d 60
        E 0 90 3e 60
        E 0 90 49 60
        E 0 90 4a 60
        E 0 90 55 60
        E 0 90 56 60
        E 0 90 61 60
        E 0 90 62 60
        E 120 80 1a 00
        E 0 80 1f 00
        E 0 80 3d 00
        E 0 80 3e 00
        E 0 80 49 00
        E 0 80 4a 00
        E 0 80 55 00
        E 0 80 56 00
        E 0 80 61 00
        E 0 80 62 00
        E 360 90 1f 60
        E 0 90 3e 60
        E 0 90 4a 60
        E 0 90 56 60
        E 0 90 62 60
        E 120 80 1f 00
        E 0 80 3e 00
        E 0 80 4a 00
        E 0 80 56 00
        E 0 80 62 00
        E 360 90 18 60
        E 0 90 1f 60
        E 0 90 3e 60
        E 0 90 48 60
        E 0 90 4a 60
        E 0 90 54 60
        E 0 90 56 60
        E 0 90 60 60
        E 0 90 62 60
        E 0 90 78 60
        E 0 90 79 60
        E 0 90 7a 60
        E 0 90 7b 60
        E 0 90 7c 60
        E 120 80 18 00
        E 0 80 1f 00
        E 0 80 3e 00
        E 0 80 48 00
        E 0 80 4a 00
        E 0 80 54 00
        E 0 80 56 00
        E 0 80 60 00
        E 0 80 62 00
        E 120 90 18 60
        E 0 90 54 60
        E 0 90 60 60
        E 120 80 18 00
        E 0 80 54 00
        E 0 80 60 00
        E 120 90 1f 60
        E 0 90 3e 60
        E 0 90 4a 60
        E 0 90 56 60
        E 0 90 62 60
        E 120 80 1f 00
        E 0 80 3e 00
        E 0 80 4a 00
        E 0 80 56 00
        E 0 80 62 00
        E 120 90 18 60
        E 0 90 54 60
        E 0 90 60 60
        E 120 80 18 00
        E 0 80 54 00
        E 0 80 60 00
        E 120 90 1a 60
        E 0 90 1f 60
        E 0 90 3d 60
        E 0 90 3e 60
        E 0 90 49 60
        E 0 90 4a 60
        E 0 90 55 60
        E 0 90 56 60
        E 0 90 61 60
        E 0 90 62 60
        E 120 80 1a 00
        E 0 80 1f 00
        E 0 80 3d 00
        E 0 80 3e 00
        E 0 80 49 00
        E 0 80 4a 00
        E 0 80 55 00
        E 0 80 56 00
        E 0 80 61 00
        E 0 80 62 00
        E 360 90 1f 60
        E 0 90 3e 60
        E 0 90 4a 60
        E 0 90 56 60
        E 0 90 62 60
        E 120 80 1f 00
        E 0 80 3e 00
        E 0 80 4a 00
        E 0 80 56 00
        E 0 80 62 00
        E 120 90 18 60
        E 0 90 54 60
        E 0 90 60 60
        E 120 80 18 00
        E 0 80 54 00
        E 0 80 60 00
        E 120 80 78 00
        E 0 80 79 00
        E 0 80 7a 00
        E 0 80 7b 00
        E 0 80 7c 00
        E 0 90 18 60
        E 0 90 1f 60
        E 0 90 3e 60
        E 0 90 48 60
        E 0 90 4a 60
        E 0 90 54 60
        E 0 90 56 60
        E 0 90 60 60
        E 0 90 62 60
        E 120 80 18 00
        E 0 80 1f 00
        E 0 80 3e 00
        E 0 80 48 00
        E 0 80 4a 00
        E 0 80 54 00
        E 0 80 56 00
        E 0 80 60 00
        E 0 80 62 00
        E 360 90 1f 60
        E 0 90 3e 60
        E 0 90 4a 60
        E 0 90 56 60
        E 0 90 62 60
        E 120 80 1f 00
        E 0 80 3e 00
        E 0 80 4a 00
        E 0 80 56 00
        E 0 80 62 00
        E 120 90 18 60
        E 0 90 54 60
        E 0 90 60 60
        E 120 80 18 00
        E 0 80 54 00
        E 0 80 60 00
        E 120 90 1a 60
        E 0 90 1f 60
        E 0 90 3d 60
        E 0 90 3e 60
        E 0 90 49 60
        E 0 90 4a 60
        E 0 90 55 60
        E 0 90 56 60
        E 0 90 61 60
        E 0 90 62 60
        E 120 80 1a 00
        E 0 80 1f 00
        E 0 80 3d 00
        E 0 80 3e 00
        E 0 80 49 00
        E 0 80 4a 00
        E 0 80 55 00
        E 0 80 56 00
        E 0 80 61 00
        E 0 80 62 00
        E 360 90 1f 60
        E 0 90 3e 60
        E 0 90 4a 60
        E 0 90 56 60
        E 0 90 62 60
        E 120 80 1f 00
        E 0 80 3e 00
        E 0 80 4a 00
        E 0 80 56 00
        E 0 80 62 00
        E 120 90 18 60
        E 0 90 54 60
        E 0 90 60 60
        E 120 80 18 00
        E 0 80 54 00
        E 0 80 60 00
        E 120 90 18 60
        E 0 90 1f 60
        E 0 90 3e 60
        E 0 90 48 60
        E 0 90 4a 60
        E 0 90 54 60
        E 0 90 56 60
        E 0 90 60 60
        E 0 90 62 60
        E 120 80 18 00
        E 0 80 1f 00
        E 0 80 3e 00
        E 0 80 48 00
        E 0 80 4a 00
        E 0 80 54 00
        E 0 80 56 00
        E 0 80 60 00
        E 0 80 62 00
        E 360 90 1f 60
        E 0 90 3e 60
        E 0 90 4a 60
        E 0 90 56 60
        E 0 90 62 60
        E 120 80 1f 00
        E 0 80 3e 00
        E 0 80 4a 00
        E 0 80 56 00
        E 0 80 62 00
        E 360 90 1a 60
        E 0 90 1f 60
        E 0 90 3d 60
        E 0 90 3e 60
        E 0 90 49 60
        E 0 90 4a 60
        E 0 90 55 60
        E 0 90 56 60
        E 0 90 61 60
        E 0 90 62 60
        E 120 80 1a 00
        E 0 80 1f 00
        E 0 80 3d 00
        E 0 80 3e 00
        E 0 80 49 00
        E 0 80 4a 00
        E 0 80 55 00
        E 0 80 56 00
        E 0 80 61 00
        E 0 80 62 00
        E 360 90 1f 60
        E 0 90 3e 60
        E 0 90 4a 60
        E 0 90 56 60
        E 0 90 62 60
        E 120 80 1f 00
        E 0 80 3e 00
        E 0 80 4a 00
        E 0 80 56 00
        E 0 80 62 00
        E 120 90 18 60
        E 0 90 54 60
        E 0 90 60 60
        E 120 80 18 00
        E 0 80 54 00
        E 0 80 60 00
        E 120 90 18 60
        E 0 90 1f 60
        E 0 90 3e 60
        E 0 90 48 60
        E 0 90 4a 60
        E 0 90 54 60
        E 0 90 56 60
        E 0 90 60 60
        E 0 90 62 60
        E 120 80 18 00
        E 0 80 1f 00
        E 0 80 3e 00
        E 0 80 48 00
        E 0 80 4a 00
        E 0 80 54 00
        E 0 80 56 00
        E 0 80 60 00
        E 0 80 62 00
        E 360 90 1f 60
        E 0 90 3e 60
        E 0 90 4a 60
        E 0 90 56 60
        E 0 90 62 60
        E 120 80 1f 00
        E 0 80 3e 00
        E 0 80 4a 00
        E 0 80 56 00
        E 0 80 62 00
        E 360 90 1a 60
        E 0 90 1f 60
        E 0 90 3d 60
        E 0 90 3e 60
        E 0 90 49 60
        E 0 90 4a 60
        E 0 90 55 60
        E 0 90 56 60
        E 0 90 61 60
        E 0 90 62 60
        E 120 80 1a 00
        E 0 80 1f 00
        E 0 80 3d 00
        E 0 80 3e 00
        E 0 80 49 00
        E 0 80 4a 00
        E 0 80 55 00
        E 0 80 56 00
        E 0 80 61 00
        E 0 80 62 00
        E 360 90 1f 60
        E 0 90 3e 60
        E 0 90 4a 60
        E 0 90 56 60
        E 0 90 62 60
        E 120 80 1f 00
        E 0 80 3e 00
        E 0 80 4a 00
        E 0 80 56 00
        E 0 80 62 00
        E 120 90 18 60
        E 0 90 54 60
        E 0 90 60 60
        E 120 80 18 00
        E 0 80 54 00
        E 0 80 60 00
        E 120 90 18 60
        E 0 90 1f 60
        E 0 90 3e 60
        E 0 90 48 60
        E 0 90 4a 60
        E 0 90 54 60
        E 0 90 56 60
        E 0 90 60 60
        E 0 90 62 60
        E 0 90 78 60
        E 0 90 79 60
        E 0 90 7a 60
        E 0 90 7b 60
        E 0 90 7c 60
        E 120 80 18 00
        E 0 80 1f 00
        E 0 80 3e 00
        E 0 80 48 00
        E 0 80 4a 00
        E 0 80 54 00
        E 0 80 56 00
        E 0 80 60 00
        E 0 80 62 00
        E 360 90 1f 60
        E 0 90 3e 60
        E 0 90 4a 60
        E 0 90 56 60
        E 0 90 62 60
        E 120 80 1f 00
        E 0 80 3e 00
        E 0 80 4a 00
        E 0 80 56 00
        E 0 80 62 00
        E 120 90 18 60
        E 0 90 54 60
        E 0 90 60 60
        E 120 80 18 00
        E 0 80 54 00
        E 0 80 60 00
        E 120 90 1a 60
        E 0 90 1f 60
        E 0 90 3d 60
        E 0 90 3e 60
        E 0 90 49 60
        E 0 90 4a 60
        E 0 90 55 60
        E 0 90 56 60
        E 0 90 61 60
        E 0 90 62 60
        E 120 80 1a 00
        E 0 80 1f 00
        E 0 80 3d 00
        E 0 80 3e 00
        E 0 80 49 00
        E 0 80 4a 00
        E 0 80 55 00
        E 0 80 56 00
        E 0 80 61 00
        E 0 80 62 00
        E 360 90 1f 60
        E 0 90 3e 60
        E 0 90 4a 60
        E 0 90 56 60
        E 0 90 62 60
        E 120 80 1f 00
        E 0 80 3e 00
        E 0 80 4a 00
        E 0 80 56 00
        E 0 80 62 00
        E 360 80 78 00
        E 0 80 79 00
        E 0 80 7a 00
        E 0 80 7b 00
        E 0 80 7c 00
        E 0 90 18 60
        E 0 90 1f 60
        E 0 90 3e 60
        E 0 90 48 60
        E 0 90 4a 60
        E 0 90 54 60
        E 0 90 56 60
        E 0 90 60 60
        E 0 90 62 60
        E 0 90 74 60
        E 120 80 18 00
        E 0 80 1f 00
        E 0 80 3e 00
        E 0 80 48 00
        E 0 80 4a 00
        E 0 80 54 00
        E 0 80 56 00
        E 0 80 60 00
        E 0 80 62 00
        E 360 90 1f 60
        E 0 90 3e 60
        E 0 90 4a 60
        E 0 90 56 60
        E 0 90 62 60
        E 120 80 1f 00
        E 0 80 3e 00
        E 0 80 4a 00
        E 0 80 56 00
        E 0 80 62 00
        E 120 90 18 60
        E 0 90 54 60
        E 0 90 60 60
        E 120 80 18 00
        E 0 80 54 00
        E 0 80 60 00
        E 120 90 1a 60
        E 0 90 1f 60
        E 0 90 3d 60
        E 0 90 3e 60
        E 0 90 49 60
        E 0 90 4a 60
        E 0 90 55 60
        E 0 90 56 60
        E 0 90 61 60
        E 0 90 62 60
        E 120 80 1a 00
        E 0 80 1f 00
        E 0 80 3d 00
        E 0 80 3e 00
        E 0 80 49 00
        E 0 80 4a 00
        E 0 80 55 00
        E 0 80 56 00
        E 0 80 61 00
        E 0 80 62 00
        E 360 90 1f 60
        E 0 90 3e 60
        E 0 90 4a 60
        E 0 90 56 60
        E 0 90 62 60
        E 120 80 1f 00
        E 0 80 3e 00
        E 0 80 4a 00
        E 0 80 56 00
        E 0 80 62 00
        E 120 90 18 60
        E 0 90 54 60
        E 0 90 60 60
        E 120 80 18 00
        E 0 80 54 00
        E 0 80 60 00
        E 120 80 74 00
        E 0 90 18 60
        E 0 90 1f 60
        E 0 90 3e 60
        E 0 90 48 60
        E 0 90 4a 60
        E 0 90 54 60
        E 0 90 56 60
        E 0 90 60 60
        E 0 90 62 60
        E 120 80 18 00
        E 0 80 1f 00
        E 0 80 3e 00
        E 0 80 48 00
        E 0 80 4a 00
        E 0 80 54 00
        E 0 80 56 00
        E 0 80 60 00
        E 0 80 62 00
        E 360 90 1f 60
        E 0 90 3e 60
        E 0 90 4a 60
        E 0 90 56 60
        E 0 90 62 60
        E 120 80 1f 00
        E 0 80 3e 00
        E 0 80 4a 00
        E 0 80 56 00
        E 0 80 62 00
        E 120 90 18 60
        E 0 90 54 60
        E 0 90 60 60
        E 120 80 18 00
        E 0 80 54 00
        E 0 80 60 00
        E 120 90 1a 60
        E 0 90 1f 60
        E 0 90 3d 60
        E 0 90 3e 60
        E 0 90 49 60
        E 0 90 4a 60
        E 0 90 55 60
        E 0 90 56 60
        E 0 90 61 60
        E 0 90 62 60
        E 120 80 1a 00
        E 0 80 1f 00
        E 0 80 3d 00
        E 0 80 3e 00
        E 0 80 49 00
        E 0 80 4a 00
        E 0 80 55 00
        E 0 80 56 00
        E 0 80 61 00
        E 0 80 62 00
        E 360 90 1f 60
        E 0 90 3e 60
        E 0 90 4a 60
        E 0 90 56 60
        E 0 90 62 60
        E 120 80 1f 00
        E 0 80 3e 00
        E 0 80 4a 00
        E 0 80 56 00
        E 0 80 62 00
        E 120 90 18 60
        E 0 90 54 60
        E 0 90 60 60
        E 120 80 18 00
        E 0 80 54 00
        E 0 80 60 00
        E 120 90 18 60
        E 0 90 1f 60
        E 0 90 3e 60
        E 0 90 48 60
        E 0 90 4a 60
        E 0 90 54 60
        E 0 90 56 60
        E 0 90 60 60
        E 0 90 62 60
        E 120 80 18 00
        E 0 80 1f 00
        E 0 80 3e 00
        E 0 80 48 00
        E 0 80 4a 00
        E 0 80 54 00
        E 0 80 56 00
        E 0 80 60 00
        E 0 80 62 00
        E 360 90 1f 60
        E 0 90 3e 60
        E 0 90 4a 60
        E 0 90 56 60
        E 0 90 62 60
        E 120 80 1f 00
        E 0 80 3e 00
        E 0 80 4a 00
        E 0 80 56 00
        E 0 80 62 00
        E 120 90 18 60
        E 0 90 54 60
        E 0 90 60 60
        E 120 80 18 00
        E 0 80 54 00
        E 0 80 60 00
        E 120 90 1a 60
        E 0 90 1f 60
        E 0 90 3d 60
        E 0 90 3e 60
        E 0 90 49 60
        E 0 90 4a 60
        E 0 90 55 60
        E 0 90 56 60
        E 0 90 61 60
        E 0 90 62 60
        E 120 80 1a 00
        E 0 80 1f 00
        E 0 80 3d 00
        E 0 80 3e 00
        E 0 80 49 00
        E 0 80 4a 00
        E 0 80 55 00
        E 0 80 56 00
        E 0 80 61 00
        E 0 80 62 00
        E 360 90 1f 60
        E 0 90 3e 60
        E 0 90 4a 60
        E 0 90 56 60
        E 0 90 62 60
        E 120 80 1f 00
        E 0 80 3e 00
        E 0 80 4a 00
        E 0 80 56 00
        E 0 80 62 00
        E 120 90 18 60
        E 0 90 54 60
        E 0 90 60 60
        E 120 80 18 00
        E 0 80 54 00
        E 0 80 60 00
        E 120 90 18 60
        E 0 90 1f 60
        E 0 90 3e 60
        E 0 90 48 60
        E 0 90 4a 60
        E 0 90 54 60
        E 0 90 56 60
        E 0 90 60 60
        E 0 90 62 60
        E 0 90 78 60
        E 0 90 79 60
        E 0 90 7a 60
        E 0 90 7b 60
        E 0 90 7c 60
        E 120 80 18 00
        E 0 80 1f 00
        E 0 80 3e 00
        E 0 80 48 00
        E 0 80 4a 00
        E 0 80 54 00
        E 0 80 56 00
        E 0 80 60 00
        E 0 80 62 00
        E 360 90 1f 60
        E 0 90 3e 60
        E 0 90 4a 60
        E 0 90 56 60
        E 0 90 62 60
        E 120 80 1f 00
        E 0 80 3e 00
        E 0 80 4a 00
        E 0 80 56 00
        E 0 80 62 00
        E 120 90 18 60
        E 0 90 54 60
        E 0 90 60 60
        E 120 80 18 00
        E 0 80 54 00
        E 0 80 60 00
        E 120 90 1a 60
        E 0 90 1f 60
        E 0 90 3d 60
        E 0 90 3e 60
        E 0 90 49 60
        E 0 90 4a 60
        E 0 90 55 60
        E 0 90 56 60
        E 0 90 61 60
        E 0 90 62 60
        E 120 80 1a 00
        E 0 80 1f 00
        E 0 80 3d 00
        E 0 80 3e 00
        E 0 80 49 00
        E 0 80 4a 00
        E 0 80 55 00
        E 0 80 56 00
        E 0 80 61 00
        E 0 80 62 00
        E 120 90 18 60
        E 0 90 54 60
        E 0 90 60 60
        E 120 80 18 00
        E 0 80 54 00
        E 0 80 60 00
        E 120 90 1f 60
        E 0 90 3e 60
        E 0 90 4a 60
        E 0 90 56 60
        E 0 90 62 60
        E 120 80 1f 00
        E 0 80 3e 00
        E 0 80 4a 00
        E 0 80 56 00
        E 0 80 62 00
        E 120 90 18 60
        E 0 90 54 60
        E 0 90 60 60
        E 120 80 18 00
        E 0 80 54 00
        E 0 80 60 00
        E 120 80 78 00
        E 0 80 79 00
        E 0 80 7a 00
        E 0 80 7b 00
        E 0 80 7c 00
        E 0 90 18 60
        E 0 90 1f 60
        E 0 90 3e 60
        E 0 90 48 60
        E 0 90 4a 60
        E 0 90 54 60
        E 0 90 56 60
        E 0 90 60 60
        E 0 90 62 60
        E 120 80 18 00
        E 0 80 1f 00
        E 0 80 3e 00
        E 0 80 48 00
        E 0 80 4a 00
        E 0 80 54 00
        E 0 80 56 00
        E 0 80 60 00
        E 0 80 62 00
        E 360 90 1f 60
        E 0 90 3e 60
        E 0 90 4a 60
        E 0 90 56 60
        E 0 90 62 60
        E 120 80 1f 00
        E 0 80 3e 00
        E 0 80 4a 00
        E 0 80 56 00
        E 0 80 62 00
        E 360 90 1a 60
        E 0 90 1f 60
        E 0 90 3d 60
        E 0 90 3e 60
        E 0 90 49 60
        E 0 90 4a 60
        E 0 90 55 60
        E 0 90 56 60
        E 0 90 61 60
        E 0 90 62 60
        E 120 80 1a 00
        E 0 80 1f 00
        E 0 80 3d 00
        E 0 80 3e 00
        E 0 80 49 00
        E 0 80 4a 00
        E 0 80 55 00
        E 0 80 56 00
        E 0 80 61 00
        E 0 80 62 00
        E 360 90 1f 60
        E 0 90 3e 60
        E 0 90 4a 60
        E 0 90 56 60
        E 0 90 62 60
        E 120 80 1f 00
        E 0 80 3e 00
        E 0 80 4a 00
        E 0 80 56 00
        E 0 80 62 00
        E 120 90 18 60
        E 0 90 54 60
        E 0 90 60 60
        E 120 80 18 00
        E 0 80 54 00
        E 0 80 60 00
        E 120 90 18 60
        E 0 90 1f 60
        E 0 90 3e 60
        E 0 90 48 60
        E 0 90 4a 60
        E 0 90 54 60
        E 0 90 56 60
        E 0 90 60 60
        E 0 90 62 60
        E 120 80 18 00
        E 0 80 1f 00
        E 0 80 3e 00
        E 0 80 48 00
        E 0 80 4a 00
        E 0 80 54 00
        E 0 80 56 00
        E 0 80 60 00
        E 0 80 62 00
        E 360 90 1f 60
        E 0 90 3e 60
        E 0 90 4a 60
        E 0 90 56 60
        E 0 90 62 60
        E 120 80 1f 00
        E 0 80 3e 00
        E 0 80 4a 00
        E 0 80 56 00
        E 0 80 62 00
        E 360 90 1a 60
        E 0 90 1f 60
        E 0 90 3d 60
        E 0 90 3e 60
        E 0 90 49 60
        E 0 90 4a 60
        E 0 90 55 60
        E 0 90 56 60
        E 0 90 61 60
        E 0 90 62 60
        E 120 80 1a 00
        E 0 80 1f 00
        E 0 80 3d 00
        E 0 80 3e 00
        E 0 80 49 00
        E 0 80 4a 00
        E 0 80 55 00
        E 0 80 56 00
        E 0 80 61 00
        E 0 80 62 00
        E 360 90 1f 60
        E 0 90 3e 60
        E 0 90 4a 60
        E 0 90 56 60
        E 0 90 62 60
        E 120 80 1f 00
        E 0 80 3e 00
        E 0 80 4a 00
        E 0 80 56 00
        E 0 80 62 00
        E 120 90 18 60
        E 0 90 54 60
        E 0 90 60 60
        E 120 80 18 00
        E 0 80 54 00
        E 0 80 60 00
        E 120 90 18 60
        E 0 90 1f 60
        E 0 90 3e 60
        E 0 90 48 60
        E 0 90 4a 60
        E 0 90 54 60
        E 0 90 56 60
        E 0 90 60 60
        E 0 90 62 60
        E 120 80 18 00
        E 0 80 1f 00
        E 0 80 3e 00
        E 0 80 48 00
        E 0 80 4a 00
        E 0 80 54 00
        E 0 80 56 00
        E 0 80 60 00
        E 0 80 62 00
        E 360 90 1f 60
        E 0 90 3e 60
        E 0 90 4a 60
        E 0 90 56 60
        E 0 90 62 60
        E 120 80 1f 00
        E 0 80 3e 00
        E 0 80 4a 00
        E 0 80 56 00
        E 0 80 62 00
        E 360 90 1a 60
        E 0 90 1f 60
        E 0 90 3d 60
        E 0 90 3e 60
        E 0 90 49 60
        E 0 90 4a 60
        E 0 90 55 60
        E 0 90 56 60
        E 0 90 61 60
        E 0 90 62 60
        E 120 80 1a 00
        E 0 80 1f 00
        E 0 80 3d 00
        E 0 80 3e 00
        E 0 80 49 00
        E 0 80 4a 00
        E 0 80 55 00
        E 0 80 56 00
        E 0 80 61 00
        E 0 80 62 00
        E 360 90 1f 60
        E 0 90 3e 60
        E 0 90 4a 60
        E 0 90 56 60
        E 0 90 62 60
        E 120 80 1f 00
        E 0 80 3e 00
        E 0 80 4a 00
        E 0 80 56 00
        E 0 80 62 00
        E 120 90 18 60
        E 0 90 54 60
        E 0 90 60 60
        E 120 80 18 00
        E 0 80 54 00
        E 0 80 60 00
        E 120 90 18 60
        E 0 90 1f 60
        E 0 90 3e 60
        E 0 90 48 60
        E 0 90 4a 60
        E 0 90 54 60
        E 0 90 56 60
        E 0 90 60 60
        E 0 90 62 60
        E 0 90 78 60
        E 0 90 79 60
        E 0 90 7a 60
        E 0 90 7b 60
        E 0 90 7c 60
        E 120 80 18 00
        E 0 80 1f 00
        E 0 80 3e 00
        E 0 80 48 00
        E 0 80 4a 00
        E 0 80 54 00
        E 0 80 56 00
        E 0 80 60 00
        E 0 80 62 00
        E 120 90 18 60
        E 0 90 54 60
        E 0 90 60 60
        E 120 80 18 00
        E 0 80 54 00
        E 0 80 60 00
        E 120 90 1f 60
        E 0 90 3e 60
        E 0 90 4a 60
        E 0 90 56 60
        E 0 90 62 60
        E 120 80 1f 00
        E 0 80 3e 00
        E 0 80 4a 00
        E 0 80 56 00
        E 0 80 62 00
        E 120 90 18 60
        E 0 90 54 60
        E 0 90 60 60
        E 120 80 18 00
        E 0 80 54 00
        E 0 80 60 00
        E 120 90 1a 60
        E 0 90 1f 60
        E 0 90 3d 60
        E 0 90 3e 60
        E 0 90 49 60
        E 0 90 4a 60
        E 0 90 55 60
        E 0 90 56 60
        E 0 90 61 60
        E 0 90 62 60
        E 120 80 1a 00
        E 0 80 1f 00
        E 0 80 3d 00
        E 0 80 3e 00
        E 0 80 49 00
        E 0 80 4a 00
        E 0 80 55 00
        E 0 80 56 00
        E 0 80 61 00
        E 0 80 62 00
        E 360 90 1f 60
        E 0 90 3e 60
        E 0 90 4a 60
        E 0 90 56 60
        E 0 90 62 60
        E 120 80 1f 00
        E 0 80 3e 00
        E 0 80 4a 00
        E 0 80 56 00
        E 0 80 62 00
        E 120 90 18 60
        E 0 90 54 60
        E 0 90 60 60
        E 120 80 18 00
        E 0 80 54 00
        E 0 80 60 00
        E 120 80 78 00
        E 0 80 79 00
        E 0 80 7a 00
        E 0 80 7b 00
        E 0 80 7c 00
        E 0 90 18 60
        E 0 90 1f 60
        E 0 90 3e 60
        E 0 90 48 60
        E 0 90 4a 60
        E 0 90 54 60
        E 0 90 56 60
        E 0 90 60 60
        E 0 90 62 60
        E 120 80 18 00
        E 0 80 1f 00
        E 0 80 3e 00
        E 0 80 48 00
        E 0 80 4a 00
        E 0 80 54 00
        E 0 80 56 00
        E 0 80 60 00
        E 0 80 62 00
        E 360 90 1f 60
        E 0 90 3e 60
        E 0 90 4a 60
        E 0 90 56 60
        E 0 90 62 60
        E 120 80 1f 00
        E 0 80 3e 00
        E 0 80 4a 00
        E 0 80 56 00
        E 0 80 62 00
        E 360 90 1a 60
        E 0 90 1f 60
        E 0 90 3d 60
        E 0 90 3e 60
        E 0 90 49 60
        E 0 90 4a 60
        E 0 90 55 60
        E 0 90 56 60
        E 0 90 61 60
        E 0 90 62 60
        E 120 80 1a 00
        E 0 80 1f 00
        E 0 80 3d 00
        E 0 80 3e 00
        E 0 80 49 00
        E 0 80 4a 00
        E 0 80 55 00
        E 0 80 56 00
        E 0 80 61 00
        E 0 80 62 00
        E 360 90 1f 60
        E 0 90 3e 60
        E 0 90 4a 60
        E 0 90 56 60
        E 0 90 62 60
        E 120 80 1f 00
        E 0 80 3e 00
        E 0 80 4a 00
        E 0 80 56 00
        E 0 80 62 00
        E 120 90 18 60
        E 0 90 54 60
        E 0 90 60 60
        E 120 80 18 00
        E 0 80 54 00
        E 0 80 60 00
        E 120 90 18 60
        E 0 90 1f 60
        E 0 90 3e 60
        E 0 90 48 60
        E 0 90 4a 60
        E 0 90 54 60
        E 0 90 56 60
        E 0 90 60 60
        E 0 90 62 60
        E 120 80 18 00
        E 0 80 1f 00
        E 0 80 3e 00
        E 0 80 48 00
        E 0 80 4a 00
        E 0 80 54 00
        E 0 80 56 00
        E 0 80 60 00
        E 0 80 62 00
        E 360 90 1f 60
        E 0 90 3e 60
        E 0 90 4a 60
        E 0 90 56 60
        E 0 90 62 60
        E 120 80 1f 00
        E 0 80 3e 00
        E 0 80 4a 00
        E 0 80 56 00
        E 0 80 62 00
        E 360 90 1a 60
        E 0 90 1f 60
        E 0 90 3d 60
        E 0 90 3e 60
        E 0 90 49 60
        E 0 90 4a 60
        E 0 90 55 60
        E 0 90 56 60
        E 0 90 61 60
        E 0 90 62 60
        E 120 80 1a 00
        E 0 80 1f 00
        E 0 80 3d 00
        E 0 80 3e 00
        E 0 80 49 00
        E 0 80 4a 00
        E 0 80 55 00
        E 0 80 56 00
        E 0 80 61 00
        E 0 80 62 00
        E 360 90 1f 60
        E 0 90 3e 60
        E 0 90 4a 60
        E 0 90 56 60
        E 0 90 62 60
        E 120 80 1f 00
        E 0 80 3e 00
        E 0 80 4a 00
        E 0 80 56 00
        E 0 80 62 00
        E 120 90 18 60
        E 0 90 54 60
        E 0 90 60 60
        E 120 80 18 00
        E 0 80 54 00
        E 0 80 60 00
        E 120 90 18 60
        E 0 90 1f 60
        E 0 90 3e 60
        E 0 90 48 60
        E 0 90 4a 60
        E 0 90 54 60
        E 0 90 56 60
        E 0 90 60 60
        E 0 90 62 60
        E 120 80 18 00
        E 0 80 1f 00
        E 0 80 3e 00
        E 0 80 48 00
        E 0 80 4a 00
        E 0 80 54 00
        E 0 80 56 00
        E 0 80 60 00
        E 0 80 62 00
        E 360 90 1f 60
        E 0 90 3e 60
        E 0 90 4a 60
        E 0 90 56 60
        E 0 90 62 60
        E 120 80 1f 00
        E 0 80 3e 00
        E 0 80 4a 00
        E 0 80 56 00
        E 0 80 62 00
        E 120 90 18 60
        E 0 90 54 60
        E 0 90 60 60
        E 120 80 18 00
        E 0 80 54 00
        E 0 80 60 00
        E 120 90 1a 60
        E 0 90 1f 60
        E 0 90 3d 60
        E 0 90 3e 60
        E 0 90 49 60
        E 0 90 4a 60
        E 0 90 55 60
        E 0 90 56 60
        E 0 90 61 60
        E 0 90 62 60
        E 120 80 1a 00
        E 0 80 1f 00
        E 0 80 3d 00
        E 0 80 3e 00
        E 0 80 49 00
        E 0 80 4a 00
        E 0 80 55 00
        E 0 80 56 00
        E 0 80 61 00
        E 0 80 62 00
        E 360 90 1f 60
        E 0 90 3e 60
        E 0 90 4a 60
        E 0 90 56 60
        E 0 90 62 60
        E 120 80 1f 00
        E 0 80 3e 00
        E 0 80 4a 00
        E 0 80 56 00
        E 0 80 62 00
        E 120 90 18 60
        E 0 90 54 60
        E 0 90 60 60
        E 120 80 18 00
        E 0 80 54 00
        E 0 80 60 00
        E 120 90 18 60
        E 0 90 1f 60
        E 0 90 3e 60
        E 0 90 48 60
        E 0 90 4a 60
        E 0 90 54 60
        E 0 90 56 60
        E 0 90 60 60
        E 0 90 62 60
        E 0 90 74 60
        E 120 80 18 00
        E 0 80 1f 00
        E 0 80 3e 00
        E 0 80 48 00
        E 0 80 4a 00
        E 0 80 54 00
        E 0 80 56 00
        E 0 80 60 00
        E 0 80 62 00
        E 360 90 1f 60
        E 0 90 3e 60
        E 0 90 4a 60
        E 0 90 56 60
        E 0 90 62 60
        E 120 80 1f 00
        E 0 80 3e 00
        E 0 80 4a 00
        E 0 80 56 00
        E 0 80 62 00
        E 120 90 18 60
        E 0 90 54 60
        E 0 90 60 60
        E 120 80 18 00
        E 0 80 54 00
        E 0 80 60 00
        E 120 90 1a 60
        E 0 90 1f 60
        E 0 90 3d 60
        E 0 90 3e 60
        E 0 90 49 60
        E 0 90 4a 60
        E 0 90 55 60
        E 0 90 56 60
        E 0 90 61 60
        E 0 90 62 60
        E 120 80 1a 00
        E 0 80 1f 00
        E 0 80 3d 00
        E 0 80 3e 00
        E 0 80 49 00
        E 0 80 4a 00
        E 0 80 55 00
        E 0 80 56 00
        E 0 80 61 00
        E 0 80 62 00
        E 360 90 1a 60
        E 0 90 3d 60
        E 0 90 49 60
        E 0 90 55 60
        E 0 90 61 60
        E 120 80 1a 00
        E 0 80 3d 00
        E 0 80 49 00
        E 0 80 55 00
        E 0 80 61 00
        E 120 90 1a 60
        E 0 90 55 60
        E 0 90 61 60
        E 120 80 1a 00
        E 0 80 55 00
        E 0 80 61 00
        E 120 80 74 00
        E 0 90 18 60
        E 0 90 1f 60
        E 0 90 3e 60
        E 0 90 48 60
        E 0 90 4a 60
        E 0 90 54 60
        E 0 90 56 60
        E 0 90 60 60
        E 0 90 62 60
        E 120 80 18 00
        E 0 80 1f 00
        E 0 80 3e 00
        E 0 80 48 00
        E 0 80 4a 00
        E 0 80 54 00
        E 0 80 56 00
        E 0 80 60 00
        E 0 80 62 00
        E 360 90 1f 60
        E 0 90 3e 60
        E 0 90 4a 60
        E 0 90 56 60
        E 0 90 62 60
        E 120 80 1f 00
        E 0 80 3e 00
        E 0 80 4a 00
        E 0 80 56 00
        E 0 80 62 00
        E 360 90 1a 60
        E 0 90 1f 60
        E 0 90 3d 60
        E 0 90 3e 60
        E 0 90 49 60
        E 0 90 4a 60
        E 0 90 55 60
        E 0 90 56 60
        E 0 90 61 60
        E 0 90 62 60
        E 120 80 1a 00
        E 0 80 1f 00
        E 0 80 3d 00
        E 0 80 3e 00
        E 0 80 49 00
        E 0 80 4a 00
        E 0 80 55 00
        E 0 80 56 00
        E 0 80 61 00
        E 0 80 62 00
        E 360 90 1f 60
        E 0 90 3e 60
        E 0 90 4a 60
        E 0 90 56 60
        E 0 90 62 60
        E 120 80 1f 00
        E 0 80 3e 00
        E 0 80 4a 00
        E 0 80 56 00
        E 0 80 62 00
        E 120 90 18 60
        E 0 90 54 60
        E 0 90 60 60
        E 120 80 18 00
        E 0 80 54 00
        E 0 80 60 00
        E 120 90 18 60
        E 0 90 1f 60
        E 0 90 3e 60
        E 0 90 48 60
        E 0 90 4a 60
        E 0 90 54 60
        E 0 90 56 60
        E 0 90 60 60
        E 0 90 62 60
        E 120 80 18 00
        E 0 80 1f 00
        E 0 80 3e 00
        E 0 80 48 00
        E 0 80 4a 00
        E 0 80 54 00
        E 0 80 56 00
        E 0 80 60 00
        E 0 80 62 00
        E 360 90 1f 60
        E 0 90 3e 60
        E 0 90 4a 60
        E 0 90 56 60
        E 0 90 62 60
        E 120 80 1f 00
        E 0 80 3e 00
        E 0 80 4a 00
        E 0 80 56 00
        E 0 80 62 00
        E 360 90 1a 60
        E 0 90 1f 60
        E 0 90 3d 60
        E 0 90 3e 60
        E 0 90 49 60
        E 0 90 4a 60
        E 0 90 55 60
        E 0 90 56 60
        E 0 90 61 60
        E 0 90 62 60
        E 120 80 1a 00
        E 0 80 1f 00
        E 0 80 3d 00
        E 0 80 3e 00
        E 0 80 49 00
        E 0 80 4a 00
        E 0 80 55 00
        E 0 80 56 00
        E 0 80 61 00
        E 0 80 62 00
        E 360 90 1f 60
        E 0 90 3e 60
        E 0 90 4a 60
        E 0 90 56 60
        E 0 90 62 60
        E 120 80 1f 00
        E 0 80 3e 00
        E 0 80 4a 00
        E 0 80 56 00
        E 0 80 62 00
        E 120 90 18 60
        E 0 90 54 60
        E 0 90 60 60
        E 120 80 18 00
        E 0 80 54 00
        E 0 80 60 00
        E 120 90 18 60
        E 0 90 1f 60
        E 0 90 3e 60
        E 0 90 48 60
        E 0 90 4a 60
        E 0 90 54 60
        E 0 90 56 60
        E 0 90 60 60
        E 0 90 62 60
        E 120 80 18 00
        E 0 80 1f 00
        E 0 80 3e 00
        E 0 80 48 00
        E 0 80 4a 00
        E 0 80 54 00
        E 0 80 56 00
        E 0 80 60 00
        E 0 80 62 00
        E 360 90 1f 60
        E 0 90 3e 60
        E 0 90 4a 60
        E 0 90 56 60
        E 0 90 62 60
        E 120 80 1f 00
        E 0 80 3e 00
        E 0 80 4a 00
        E 0 80 56 00
        E 0 80 62 00
        E 120 90 18 60
        E 0 90 54 60
        E 0 90 60 60
        E 120 80 18 00
        E 0 80 54 00
        E 0 80 60 00
        E 120 90 1a 60
        E 0 90 1f 60
        E 0 90 3d 60
        E 0 90 3e 60
        E 0 90 49 60
        E 0 90 4a 60
        E 0 90 55 60
        E 0 90 56 60
        E 0 90 61 60
        E 0 90 62 60
        E 120 80 1a 00
        E 0 80 1f 00
        E 0 80 3d 00
        E 0 80 3e 00
        E 0 80 49 00
        E 0 80 4a 00
        E 0 80 55 00
        E 0 80 56 00
        E 0 80 61 00
        E 0 80 62 00
        E 360 90 1f 60
        E 0 90 3e 60
        E 0 90 4a 60
        E 0 90 56 60
        E 0 90 62 60
        E 120 80 1f 00
        E 0 80 3e 00
        E 0 80 4a 00
        E 0 80 56 00
        E 0 80 62 00
        E 120 90 18 60
        E 0 90 54 60
        E 0 90 60 60
        E 120 80 18 00
        E 0 80 54 00
        E 0 80 60 00
        E 120 90 18 60
        E 0 90 1f 60
        E 0 90 3e 60
        E 0 90 48 60
        E 0 90 4a 60
        E 0 90 54 60
        E 0 90 56 60
        E 0 90 60 60
        E 0 90 62 60
        E 0 90 78 60
        E 0 90 79 60
        E 0 90 7a 60
        E 0 90 7b 60
        E 0 90 7c 60
        E 120 80 18 00
        E 0 80 1f 00
        E 0 80 3e 00
        E 0 80 48 00
        E 0 80 4a 00
        E 0 80 54 00
        E 0 80 56 00
        E 0 80 60 00
        E 0 80 62 00
        E 360 90 1f 60
        E 0 90 3e 60
        E 0 90 4a 60
        E 0 90 56 60
        E 0 90 62 60
        E 120 80 1f 00
        E 0 80 3e 00
        E 0 80 4a 00
        E 0 80 56 00
        E 0 80 62 00
        E 360 90 1a 60
        E 0 90 1f 60
        E 0 90 3d 60
        E 0 90 3e 60
        E 0 90 49 60
        E 0 90 4a 60
        E 0 90 55 60
        E 0 90 56 60
        E 0 90 61 60
        E 0 90 62 60
        E 120 80 1a 00
        E 0 80 1f 00
        E 0 80 3d 00
        E 0 80 3e 00
        E 0 80 49 00
        E 0 80 4a 00
        E 0 80 55 00
        E 0 80 56 00
        E 0 80 61 00
        E 0 80 62 00
        E 120 90 18 60
        E 0 90 54 60
        E 0 90 60 60
        E 120 80 18 00
        E 0 80 54 00
        E 0 80 60 00
        E 120 90 1f 60
        E 0 90 3e 60
        E 0 90 4a 60
        E 0 90 56 60
        E 0 90 62 60
        E 120 80 1f 00
        E 0 80 3e 00
        E 0 80 4a 00
        E 0 80 56 00
        E 0 80 62 00
        E 120 90 18 60
        E 0 90 54 60
        E 0 90 60 60
        E 120 80 18 00
        E 0 80 54 00
        E 0 80 60 00
        E 120 80 78 00
        E 0 80 79 00
        E 0 80 7a 00
        E 0 80 7b 00
        E 0 80 7c 00
        E 0 90 18 60
        E 0 90 1f 60
        E 0 90 3e 60
        E 0 90 48 60
        E 0 90 4a 60
        E 0 90 54 60
        E 0 90 56 60
        E 0 90 60 60
        E 0 90 62 60
        E 120 80 18 00
        E 0 80 1f 00
        E 0 80 3e 00
        E 0 80 48 00
        E 0 80 4a 00
        E 0 80 54 00
        E 0 80 56 00
        E 0 80 60 00
        E 0 80 62 00
        E 360 90 1f 60
        E 0 90 3e 60
        E 0 90 4a 60
        E 0 90 56 60
        E 0 90 62 60
        E 120 80 1f 00
        E 0 80 3e 00
        E 0 80 4a 00
        E 0 80 56 00
        E 0 80 62 00
        E 120 90 18 60
        E 0 90 54 60
        E 0 90 60 60
        E 120 80 18 00
        E 0 80 54 00
        E 0 80 60 00
        E 120 90 1a 60
        E 0 90 1f 60
        E 0 90 3d 60
        E 0 90 3e 60
        E 0 90 49 60
        E 0 90 4a 60
        E 0 90 55 60
        E 0 90 56 60
        E 0 90 61 60
        E 0 90 62 60
        E 120 80 1a 00
        E 0 80 1f 00
        E 0 80 3d 00
        E 0 80 3e 00
        E 0 80 49 00
        E 0 80 4a 00
        E 0 80 55 00
        E 0 80 56 00
        E 0 80 61 00
        E 0 80 62 00
        E 360 90 1f 60
        E 0 90 3e 60
        E 0 90 4a 60
        E 0 90 56 60
        E 0 90 62 60
        E 120 80 1f 00
        E 0 80 3e 00
        E 0 80 4a 00
        E 0 80 56 00
        E 0 80 62 00
        E 120 90 18 60
        E 0 90 54 60
        E 0 90 60 60
        E 120 80 18 00
        E 0 80 54 00
        E 0 80 60 00
        E 120 90 18 60
        E 0 90 1f 60
        E 0 90 3e 60
        E 0 90 48 60
        E 0 90 4a 60
        E 0 90 54 60
        E 0 90 56 60
        E 0 90 60 60
        E 0 90 62 60
        E 120 80 18 00
        E 0 80 1f 00
        E 0 80 3e 00
        E 0 80 48 00
        E 0 80 4a 00
        E 0 80 54 00
        E 0 80 56 00
        E 0 80 60 00
        E 0 80 62 00
        E 360 90 1f 60
        E 0 90 3e 60
        E 0 90 4a 60
        E 0 90 56 60
        E 0 90 62 60
        E 120 80 1f 00
        E 0 80 3e 00
        E 0 80 4a 00
        E 0 80 56 00
        E 0 80 62 00
        E 120 90 18 60
        E 0 90 54 60
        E 0 90 60 60
        E 120 80 18 00
        E 0 80 54 00
        E 0 80 60 00
        E 120 90 1a 60
        E 0 90 1f 60
        E 0 90 3d 60
        E 0 90 3e 60
        E 0 90 49 60
        E 0 90 4a 60
        E 0 90 55 60
        E 0 90 56 60
        E 0 90 61 60
        E 0 90 62 60
        E 120 80 1a 00
        E 0 80 1f 00
        E 0 80 3d 00
        E 0 80 3e 00
        E 0 80 49 00
        E 0 80 4a 00
        E 0 80 55 00
        E 0 80 56 00
        E 0 80 61 00
        E 0 80 62 00
        E 360 90 1f 60
        E 0 90 3e 60
        E 0 90 4a 60
        E 0 90 56 60
        E 0 90 62 60
        E 120 80 1f 00
        E 0 80 3e 00
        E 0 80 4a 00
        E 0 80 56 00
        E 0 80 62 00
        E 120 90 18 60
        E 0 90 54 60
        E 0 90 60 60
        E 120 80 18 00
        E 0 80 54 00
        E 0 80 60 00
        E 120 90 18 60
        E 0 90 1f 60
        E 0 90 3e 60
        E 0 90 48 60
        E 0 90 4a 60
        E 0 90 54 60
        E 0 90 56 60
        E 0 90 60 60
        E 0 90 62 60
        E 120 80 18 00
        E 0 80 1f 00
        E 0 80 3e 00
        E 0 80 48 00
        E 0 80 4a 00
        E 0 80 54 00
        E 0 80 56 00
        E 0 80 60 00
        E 0 80 62 00
        E 360 90 1f 60
        E 0 90 3e 60
        E 0 90 4a 60
        E 0 90 56 60
        E 0 90 62 60
        E 120 80 1f 00
        E 0 80 3e 00
        E 0 80 4a 00
        E 0 80 56 00
        E 0 80 62 00
        E 120 90 18 60
        E 0 90 54 60
        E 0 90 60 60
        E 120 80 18 00
        E 0 80 54 00
        E 0 80 60 00
        E 120 90 1a 60
        E 0 90 1f 60
        E 0 90 3d 60
        E 0 90 3e 60
        E 0 90 49 60
        E 0 90 4a 60
        E 0 90 55 60
        E 0 90 56 60
        E 0 90 61 60
        E 0 90 62 60
        E 120 80 1a 00
        E 0 80 1f 00
        E 0 80 3d 00
        E 0 80 3e 00
        E 0 80 49 00
        E 0 80 4a 00
        E 0 80 55 00
        E 0 80 56 00
        E 0 80 61 00
        E 0 80 62 00
        E 360 90 1f 60
        E 0 90 3e 60
        E 0 90 4a 60
        E 0 90 56 60
        E 0 90 62 60
        E 120 80 1f 00
        E 0 80 3e 00
        E 0 80 4a 00
        E 0 80 56 00
        E 0 80 62 00
        E 120 90 18 60
        E 0 90 54 60
        E 0 90 60 60
        E 120 80 18 00
        E 0 80 54 00
        E 0 80 60 00
        E 120 90 18 60
        E 0 90 1f 60
        E 0 90 3e 60
        E 0 90 48 60
        E 0 90 4a 60
        E 0 90 54 60
        E 0 90 56 60
        E 0 90 60 60
        E 0 90 62 60
        E 0 90 78 60
        E 0 90 79 60
        E 0 90 7a 60
        E 0 90 7b 60
        E 0 90 7c 60
        E 120 80 18 00
        E 0 80 1f 00
        E 0 80 3e 00
        E 0 80 48 00
        E 0 80 4a 00
        E 0 80 54 00
        E 0 80 56 00
        E 0 80 60 00
        E 0 80 62 00
        E 360 90 1f 60
        E 0 90 3e 60
        E 0 90 4a 60
        E 0 90 56 60
        E 0 90 62 60
        E 120 80 1f 00
        E 0 80 3e 00
        E 0 80 4a 00
        E 0 80 56 00
        E 0 80 62 00
        E 120 90 18 60
        E 0 90 54 60
        E 0 90 60 60
        E 120 80 18 00
        E 0 80 54 00
        E 0 80 60 00
        E 120 90 1a 60
        E 0 90 1f 60
        E 0 90 3d 60
        E 0 90 3e 60
        E 0 90 49 60
        E 0 90 4a 60
        E 0 90 55 60
        E 0 90 56 60
        E 0 90 61 60
        E 0 90 62 60
        E 120 80 1a 00
        E 0 80 1f 00
        E 0 80 3d 00
        E 0 80 3e 00
        E 0 80 49 00
        E 0 80 4a 00
        E 0 80 55 00
        E 0 80 56 00
        E 0 80 61 00
        E 0 80 62 00
        E 120 90 18 60
        E 0 90 54 60
        E 0 90 60 60
        E 120 80 18 00
        E 0 80 54 00
        E 0 80 60 00
        E 120 90 1a 60
        E 0 90 3d 60
        E 0 90 49 60
        E 0 90 55 60
        E 0 90 61 60
        E 120 80 1a 00
        E 0 80 3d 00
        E 0 80 49 00
        E 0 80 55 00
        E 0 80 61 00
        E 120 90 1a 60
        E 0 90 55 60
        E 0 90 61 60
        E 120 80 1a 00
        E 0 80 55 00
        E 0 80 61 00
        E 120 80 78 00
        E 0 80 79 00
        E 0 80 7a 00
        E 0 80 7b 00
        E 0 80 7c 00
        E 0 90 18 60
        E 0 90 1f 60
        E 0 90 3e 60
        E 0 90 48 60
        E 0 90 4a 60
        E 0 90 54 60
        E 0 90 56 60
        E 0 90 60 60
        E 0 90 62 60
        E 120 80 18 00
        E 0 80 1f 00
        E 0 80 3e 00
        E 0 80 48 00
        E 0 80 4a 00
        E 0 80 54 00
        E 0 80 56 00
        E 0 80 60 00
        E 0 80 62 00
        E 360 90 1f 60
        E 0 90 3e 60
        E 0 90 4a 60
        E 0 90 56 60
        E 0 90 62 60
        E 120 80 1f 00
        E 0 80 3e 00
        E 0 80 4a 00
        E 0 80 56 00
        E 0 80 62 00
        E 120 90 18 60
        E 0 90 54 60
        E 0 90 60 60
        E 120 80 18 00
        E 0 80 54 00
        E 0 80 60 00
        E 120 90 1a 60
        E 0 90 1f 60
        E 0 90 3d 60
        E 0 90 3e 60
        E 0 90 49 60
        E 0 90 4a 60
        E 0 90 55 60
        E 0 90 56 60
        E 0 90 61 60
        E 0 90 62 60
        E 120 80 1a 00
        E 0 80 1f 00
        E 0 80 3d 00
        E 0 80 3e 00
        E 0 80 49 00
        E 0 80 4a 00
        E 0 80 55 00
        E 0 80 56 00
        E 0 80 61 00
        E 0 80 62 00
        E 360 90 1f 60
        E 0 90 3e 60
        E 0 90 4a 60
        E 0 90 56 60
        E 0 90 62 60
        E 120 80 1f 00
        E 0 80 3e 00
        E 0 80 4a 00
        E 0 80 56 00
        E 0 80 62 00
        E 120 90 18 60
        E 0 90 54 60
        E 0 90 60 60
        E 120 80 18 00
        E 0 80 54 00
        E 0 80 60 00
        E 120 90 18 60
        E 0 90 1f 60
        E 0 90 3e 60
        E 0 90 48 60
        E 0 90 4a 60
        E 0 90 54 60
        E 0 90 56 60
        E 0 90 60 60
        E 0 90 62 60
        E 120 80 18 00
        E 0 80 1f 00
        E 0 80 3e 00
        E 0 80 48 00
        E 0 80 4a 00
        E 0 80 54 00
        E 0 80 56 00
        E 0 80 60 00
        E 0 80 62 00
        E 360 90 1f 60
        E 0 90 3e 60
        E 0 90 4a 60
        E 0 90 56 60
        E 0 90 62 60
        E 120 80 1f 00
        E 0 80 3e 00
        E 0 80 4a 00
        E 0 80 56 00
        E 0 80 62 00
        E 360 90 1a 60
        E 0 90 1f 60
        E 0 90 3d 60
        E 0 90 3e 60
        E 0 90 49 60
        E 0 90 4a 60
        E 0 90 55 60
        E 0 90 56 60
        E 0 90 61 60
        E 0 90 62 60
        E 120 80 1a 00
        E 0 80 1f 00
        E 0 80 3d 00
        E 0 80 3e 00
        E 0 80 49 00
        E 0 80 4a 00
        E 0 80 55 00
        E 0 80 56 00
        E 0 80 61 00
        E 0 80 62 00
        E 120 90 18 60
        E 0 90 54 60
        E 0 90 60 60
        E 120 80 18 00
        E 0 80 54 00
        E 0 80 60 00
        E 120 90 1f 60
        E 0 90 3e 60
        E 0 90 4a 60
        E 0 90 56 60
        E 0 90 62 60
        E 120 80 1f 00
        E 0 80 3e 00
        E 0 80 4a 00
        E 0 80 56 00
        E 0 80 62 00
        E 120 90 18 60
        E 0 90 54 60
        E 0 90 60 60
        E 120 80 18 00
        E 0 80 54 00
        E 0 80 60 00
        E 120 90 18 60
        E 0 90 1f 60
        E 0 90 3e 60
        E 0 90 48 60
        E 0 90 4a 60
        E 0 90 54 60
        E 0 90 56 60
        E 0 90 60 60
        E 0 90 62 60
        E 120 80 18 00
        E 0 80 1f 00
        E 0 80 3e 00
        E 0 80 48 00
        E 0 80 4a 00
        E 0 80 54 00
        E 0 80 56 00
        E 0 80 60 00
        E 0 80 62 00
        E 360 90 1f 60
        E 0 90 3e 60
        E 0 90 4a 60
        E 0 90 56 60
        E 0 90 62 60
        E 120 80 1f 00
        E 0 80 3e 00
        E 0 80 4a 00
        E 0 80 56 00
        E 0 80 62 00
        E 120 90 18 60
        E 0 90 54 60
        E 0 90 60 60
        E 120 80 18 00
        E 0 80 54 00
        E 0 80 60 00
        E 120 90 1a 60
        E 0 90 1f 60
        E 0 90 3d 60
        E 0 90 3e 60
        E 0 90 49 60
        E 0 90 4a 60
        E 0 90 55 60
        E 0 90 56 60
        E 0 90 61 60
        E 0 90 62 60
        E 120 80 1a 00
        E 0 80 1f 00
        E 0 80 3d 00
        E 0 80 3e 00
        E 0 80 49 00
        E 0 80 4a 00
        E 0 80 55 00
        E 0 80 56 00
        E 0 80 61 00
        E 0 80 62 00
        E 360 90 1f 60
        E 0 90 3e 60
        E 0 90 4a 60
        E 0 90 56 60
        E 0 90 62 60
        E 120 80 1f 00
        E 0 80 3e 00
        E 0 80 4a 00
        E 0 80 56 00
        E 0 80 62 00
        E 120 90 18 60
        E 0 90 54 60
        E 0 90 60 60
        E 120 80 18 00
        E 0 80 54 00
        E 0 80 60 00
        E 120 90 18 60
        E 0 90 1f 60
        E 0 90 3e 60
        E 0 90 48 60
        E 0 90 4a 60
        E 0 90 54 60
        E 0 90 56 60
        E 0 90 60 60
        E 0 90 62 60
        E 0 90 78 60
        E 0 90 79 60
        E 0 90 7a 60
        E 0 90 7b 60
        E 0 90 7c 60
        E 120 80 18 00
        E 0 80 1f 00
        E 0 80 3e 00
        E 0 80 48 00
        E 0 80 4a 00
        E 0 80 54 00
        E 0 80 56 00
        E 0 80 60 00
        E 0 80 62 00
        E 360 90 1f 60
        E 0 90 3e 60
        E 0 90 4a 60
        E 0 90 56 60
        E 0 90 62 60
        E 120 80 1f 00
        E 0 80 3e 00
        E 0 80 4a 00
        E 0 80 56 00
        E 0 80 62 00
        E 120 90 18 60
        E 0 90 54 60
        E 0 90 60 60
        E 120 80 18 00
        E 0 80 54 00
        E 0 80 60 00
        E 120 90 1a 60
        E 0 90 1f 60
        E 0 90 3d 60
        E 0 90 3e 60
        E 0 90 49 60
        E 0 90 4a 60
        E 0 90 55 60
        E 0 90 56 60
        E 0 90 61 60
        E 0 90 62 60
        E 120 80 1a 00
        E 0 80 1f 00
        E 0 80 3d 00
        E 0 80 3e 00
        E 0 80 49 00
        E 0 80 4a 00
        E 0 80 55 00
        E 0 80 56 00
        E 0 80 61 00
        E 0 80 62 00
        E 360 90 1a 60
        E 0 90 1f 60
        E 0 90 3d 60
        E 0 90 3e 60
        E 0 90 49 60
        E 0 90 4a 60
        E 0 90 55 60
        E 0 90 56 60
        E 0 90 61 60
        E 0 90 62 60
        E 120 80 1a 00
        E 0 80 1f 00
        E 0 80 3d 00
        E 0 80 3e 00
        E 0 80 49 00
        E 0 80 4a 00
        E 0 80 55 00
        E 0 80 56 00
        E 0 80 61 00
        E 0 80 62 00
        E 120 90 18 60
        E 0 90 54 60
        E 0 90 60 60
        E 120 80 18 00
        E 0 80 54 00
        E 0 80 60 00
        E 120 80 78 00
        E 0 80 79 00
        E 0 80 7a 00
        E 0 80 7b 00
        E 0 80 7c 00
        E 0 90 18 60
        E 0 90 1f 60
        E 0 90 3e 60
        E 0 90 48 60
        E 0 90 4a 60
        E 0 90 54 60
        E 0 90 56 60
        E 0 90 60 60
        E 0 90 62 60
        E 120 80 18 00
        E 0 80 1f 00
        E 0 80 3e 00
        E 0 80 48 00
        E 0 80 4a 00
        E 0 80 54 00
        E 0 80 56 00
        E 0 80 60 00
        E 0 80 62 00
        E 360 90 1f 60
        E 0 90 3e 60
        E 0 90 4a 60
        E 0 90 56 60
        E 0 90 62 60
        E 120 80 1f 00
        E 0 80 3e 00
        E 0 80 4a 00
        E 0 80 56 00
        E 0 80 62 00
        E 360 90 1a 60
        E 0 90 1f 60
        E 0 90 3d 60
        E 0 90 3e 60
        E 0 90 49 60
        E 0 90 4a 60
        E 0 90 55 60
        E 0 90 56 60
        E 0 90 61 60
        E 0 90 62 60
        E 120 80 1a 00
        E 0 80 1f 00
        E 0 80 3d 00
        E 0 80 3e 00
        E 0 80 49 00
        E 0 80 4a 00
        E 0 80 55 00
        E 0 80 56 00
        E 0 80 61 00
        E 0 80 62 00
        E 360 90 1f 60
        E 0 90 3e 60
        E 0 90 4a 60
        E 0 90 56 60
        E 0 90 62 60
        E 120 80 1f 00
        E 0 80 3e 00
        E 0 80 4a 00
        E 0 80 56 00
        E 0 80 62 00
        E 120 90 18 60
        E 0 90 54 60
        E 0 90 60 60
        E 120 80 18 00
        E 0 80 54 00
        E 0 80 60 00
        E 120 90 18 60
        E 0 90 1f 60
        E 0 90 3e 60
        E 0 90 48 60
        E 0 90 4a 60
        E 0 90 54 60
        E 0 90 56 60
        E 0 90 60 60
        E 0 90 62 60
        E 120 80 18 00
        E 0 80 1f 00
        E 0 80 3e 00
        E 0 80 48 00
        E 0 80 4a 00
        E 0 80 54 00
        E 0 80 56 00
        E 0 80 60 00
        E 0 80 62 00
        E 360 90 1f 60
        E 0 90 3e 60
        E 0 90 4a 60
        E 0 90 56 60
        E 0 90 62 60
        E 120 80 1f 00
        E 0 80 3e 00
        E 0 80 4a 00
        E 0 80 56 00
        E 0 80 62 00
        E 120 90 18 60
        E 0 90 54 60
        E 0 90 60 60
        E 120 80 18 00
        E 0 80 54 00
        E 0 80 60 00
        E 120 90 1a 60
        E 0 90 1f 60
        E 0 90 3d 60
        E 0 90 3e 60
        E 0 90 49 60
        E 0 90 4a 60
        E 0 90 55 60
        E 0 90 56 60
        E 0 90 61 60
        E 0 90 62 60
        E 120 80 1a 00
        E 0 80 1f 00
        E 0 80 3d 00
        E 0 80 3e 00
        E 0 80 49 00
        E 0 80 4a 00
        E 0 80 55 00
        E 0 80 56 00
        E 0 80 61 00
        E 0 80 62 00
        E 360 90 1f 60
        E 0 90 3e 60
        E 0 90 4a 60
        E 0 90 56 60
        E 0 90 62 60
        E 120 80 1f 00
        E 0 80 3e 00
        E 0 80 4a 00
        E 0 80 56 00
        E 0 80 62 00
        E 120 90 18 60
        E 0 90 54 60
        E 0 90 60 60
        E 120 80 18 00
        E 0 80 54 00
        E 0 80 60 00
        E 120 90 18 60
        E 0 90 1f 60
        E 0 90 3e 60
        E 0 90 48 60
        E 0 90 4a 60
        E 0 90 54 60
        E 0 90 56 60
        E 0 90 60 60
        E 0 90 62 60
        E 120 80 18 00
        E 0 80 1f 00
        E 0 80 3e 00
        E 0 80 48 00
        E 0 80 4a 00
        E 0 80 54 00
        E 0 80 56 00
        E 0 80 60 00
        E 0 80 62 00
        E 360 90 1f 60
        E 0 90 3e 60
        E 0 90 4a 60
        E 0 90 56 60
        E 0 90 62 60
        E 120 80 1f 00
        E 0 80 3e 00
        E 0 80 4a 00
        E 0 80 56 00
        E 0 80 62 00
        E 120 90 18 60
        E 0 90 54 60
        E 0 90 60 60
        E 120 80 18 00
        E 0 80 54 00
        E 0 80 60 00
        E 120 90 1a 60
        E 0 90 1f 60
        E 0 90 3d 60
        E 0 90 3e 60
        E 0 90 49 60
        E 0 90 4a 60
        E 0 90 55 60
        E 0 90 56 60
        E 0 90 61 60
        E 0 90 62 60
        E 120 80 1a 00
        E 0 80 1f 00
        E 0 80 3d 00
        E 0 80 3e 00
        E 0 80 49 00
        E 0 80 4a 00
        E 0 80 55 00
        E 0 80 56 00
        E 0 80 61 00
        E 0 80 62 00
        E 360 90 1f 60
        E 0 90 3e 60
        E 0 90 4a 60
        E 0 90 56 60
        E 0 90 62 60
        E 120 80 1f 00
        E 0 80 3e 00
        E 0 80 4a 00
        E 0 80 56 00
        E 0 80 62 00
        E 120 90 18 60
        E 0 90 54 60
        E 0 90 60 60
        E 120 80 18 00
        E 0 80 54 00
        E 0 80 60 00
        E 120 90 18 60
        E 0 90 1f 60
        E 0 90 3e 60
        E 0 90 48 60
        E 0 90 4a 60
        E 0 90 54 60
        E 0 90 56 60
        E 0 90 60 60
        E 0 90 62 60
        E 0 90 78 60
        E 0 90 79 60
        E 0 90 7a 60
        E 0 90 7b 60
        E 0 90 7c 60
        E 120 80 18 00
        E 0 80 1f 00
        E 0 80 3e 00
        E 0 80 48 00
        E 0 80 4a 00
        E 0 80 54 00
        E 0 80 56 00
        E 0 80 60 00
        E 0 80 62 00
        E 360 90 1f 60
        E 0 90 3e 60
        E 0 90 4a 60
        E 0 90 56 60
        E 0 90 62 60
        E 120 80 1f 00
        E 0 80 3e 00
        E 0 80 4a 00
        E 0 80 56 00
        E 0 80 62 00
        E 120 90 18 60
        E 0 90 54 60
        E 0 90 60 60
        E 120 80 18 00
        E 0 80 54 00
        E 0 80 60 00
        E 120 90 1a 60
        E 0 90 1f 60
        E 0 90 3d 60
        E 0 90 3e 60
        E 0 90 49 60
        E 0 90 4a 60
        E 0 90 55 60
        E 0 90 56 60
        E 0 90 61 60
        E 0 90 62 60
        E 120 80 1a 00
        E 0 80 1f 00
        E 0 80 3d 00
        E 0 80 3e 00
        E 0 80 49 00
        E 0 80 4a 00
        E 0 80 55 00
        E 0 80 56 00
        E 0 80 61 00
        E 0 80 62 00
        E 360 90 1a 60
        E 0 90 3d 60
        E 0 90 49 60
        E 0 90 55 60
        E 0 90 61 60
        E 120 80 1a 00
        E 0 80 3d 00
        E 0 80 49 00
        E 0 80 55 00
        E 0 80 61 00
        E 120 90 19 60
        E 0 90 1a 60
        E 0 90 55 60
        E 0 90 61 60
        E 120 80 1a 00
        E 0 80 55 00
        E 0 80 61 00
        <X 120 0
          /wFbcGxheV0=
        >
        E 0 80 78 00
        E 0 80 79 00
        E 0 80 7a 00
        E 0 80 7b 00
        E 0 80 7c 00
        E 0 80 19 00
        E 0 90 18 60
        E 0 90 2a 60
        E 0 90 3f 60
        E 0 90 48 60
        E 0 90 4b 60
        E 0 90 54 60
        E 0 90 57 60
        E 0 90 60 60
        E 0 90 63 60
        E 120 80 18 00
        E 0 80 2a 00
        E 0 80 3f 00
        E 0 80 48 00
        E 0 80 4b 00
        E 0 80 54 00
        E 0 80 57 00
        E 0 80 60 00
        E 0 80 63 00
        E 360 90 2a 60
        E 0 90 3f 60
        E 0 90 4b 60
        E 0 90 57 60
        E 0 90 63 60
        E 120 80 2a 00
        E 0 80 3f 00
        E 0 80 4b 00
        E 0 80 57 00
        E 0 80 63 00
        E 120 90 19 60
        E 240 80 19 00
        E 0 90 1a 60
        E 0 90 2a 60
        E 0 90 3d 60
        E 0 90 3f 60
        E 0 90 49 60
        E 0 90 4b 60
        E 0 90 55 60
        E 0 90 57 60
        E 0 90 61 60
        E 0 90 63 60
        E 120 80 1a 00
        E 0 80 2a 00
        E 0 80 3d 00
        E 0 80 3f 00
        E 0 80 49 00
        E 0 80 4b 00
        E 0 80 55 00
        E 0 80 57 00
        E 0 80 61 00
        E 0 80 63 00
        E 360 90 2a 60
        E 0 90 3f 60
        E 0 90 4b 60
        E 0 90 57 60
        E 0 90 63 60
        E 120 80 2a 00
        E 0 80 3f 00
        E 0 80 4b 00
        E 0 80 57 00
        E 0 80 63 00
        E 120 90 18 60
        E 0 90 19 60
        E 0 90 54 60
        E 0 90 60 60
        E 120 80 18 00
        E 0 80 54 00
        E 0 80 60 00
        E 120 80 19 00
        E 0 90 18 60
        E 0 90 2a 60
        E 0 90 3f 60
        E 0 90 48 60
        E 0 90 4b 60
        E 0 90 54 60
        E 0 90 57 60
        E 0 90 60 60
        E 0 90 63 60
        E 120 80 18 00
        E 0 80 2a 00
        E 0 80 3f 00
        E 0 80 48 00
        E 0 80 4b 00
        E 0 80 54 00
        E 0 80 57 00
        E 0 80 60 00
        E 0 80 63 00
        E 360 90 18 60
        E 0 90 2a 60
        E 0 90 3f 60
        E 0 90 48 60
        E 0 90 4b 60
        E 0 90 54 60
        E 0 90 57 60
        E 0 90 60 60
        E 0 90 63 60
        E 120 80 18 00
        E 0 80 2a 00
        E 0 80 3f 00
        E 0 80 48 00
        E 0 80 4b 00
        E 0 80 54 00
        E 0 80 57 00
        E 0 80 60 00
        E 0 80 63 00
        E 120 90 19 60
        E 240 80 19 00
        E 0 90 1a 60
        E 0 90 2a 60
        E 0 90 3d 60
        E 0 90 3f 60
        E 0 90 49 60
        E 0 90 4b 60
        E 0 90 55 60
        E 0 90 57 60
        E 0 90 61 60
        E 0 90 63 60
        E 120 80 1a 00
        E 0 80 2a 00
        E 0 80 3d 00
        E 0 80 3f 00
        E 0 80 49 00
        E 0 80 4b 00
        E 0 80 55 00
        E 0 80 57 00
        E 0 80 61 00
        E 0 80 63 00
        E 360 90 2a 60
        E 0 90 3f 60
        E 0 90 4b 60
        E 0 90 57 60
        E 0 90 63 60
        E 120 80 2a 00
        E 0 80 3f 00
        E 0 80 4b 00
        E 0 80 57 00
        E 0 80 63 00
        E 120 90 18 60
        E 0 90 19 60
        E 0 90 54 60
        E 0 90 60 60
        E 120 80 18 00
        E 0 80 54 00
        E 0 80 60 00
        E 120 80 19 00
        E 0 90 18 60
        E 0 90 2a 60
        E 0 90 3f 60
        E 0 90 48 60
        E 0 90 4b 60
        E 0 90 54 60
        E 0 90 57 60
        E 0 90 60 60
        E 0 90 63 60
        E 120 80 18 00
        E 0 80 2a 00
        E 0 80 3f 00
        E 0 80 48 00
        E 0 80 4b 00
        E 0 80 54 00
        E 0 80 57 00
        E 0 80 60 00
        E 0 80 63 00
        E 360 90 2a 60
        E 0 90 3f 60
        E 0 90 4b 60
        E 0 90 57 60
        E 0 90 63 60
        E 120 80 2a 00
        E 0 80 3f 00
        E 0 80 4b 00
        E 0 80 57 00
        E 0 80 63 00
        E 120 90 19 60
        E 240 80 19 00
        E 0 90 1a 60
        E 0 90 2a 60
        E 0 90 3d 60
        E 0 90 3f 60
        E 0 90 49 60
        E 0 90 4b 60
        E 0 90 55 60
        E 0 90 57 60
        E 0 90 61 60
        E 0 90 63 60
        E 120 80 1a 00
        E 0 80 2a 00
        E 0 80 3d 00
        E 0 80 3f 00
        E 0 80 49 00
        E 0 80 4b 00
        E 0 80 55 00
        E 0 80 57 00
        E 0 80 61 00
        E 0 80 63 00
        E 360 90 2a 60
        E 0 90 3f 60
        E 0 90 4b 60
        E 0 90 57 60
        E 0 90 63 60
        E 120 80 2a 00
        E 0 80 3f 00
        E 0 80 4b 00
        E 0 80 57 00
        E 0 80 63 00
        E 120 90 18 60
        E 0 90 19 60
        E 0 90 54 60
        E 0 90 60 60
        E 120 80 18 00
        E 0 80 54 00
        E 0 80 60 00
        E 120 80 19 00
        E 0 90 2a 60
        E 0 90 3f 60
        E 0 90 4b 60
        E 0 90 57 60
        E 0 90 63 60
        E 0 90 78 60
        E 0 90 79 60
        E 0 90 7a 60
        E 0 90 7b 60
        E 0 90 7c 60
        E 120 80 2a 00
        E 0 80 3f 00
        E 0 80 4b 00
        E 0 80 57 00
        E 0 80 63 00
        E 120 90 18 60
        E 0 90 54 60
        E 0 90 60 60
        E 120 80 18 00
        E 0 80 54 00
        E 0 80 60 00
        E 120 90 2a 60
        E 0 90 3f 60
        E 0 90 4b 60
        E 0 90 57 60
        E 0 90 63 60
        E 120 80 2a 00
        E 0 80 3f 00
        E 0 80 4b 00
        E 0 80 57 00
        E 0 80 63 00
        E 120 90 18 60
        E 0 90 19 60
        E 0 90 54 60
        E 0 90 60 60
        E 120 80 18 00
        E 0 80 54 00
        E 0 80 60 00
        E 120 80 19 00
        E 0 90 1a 60
        E 0 90 2a 60
        E 0 90 3d 60
        E 0 90 3f 60
        E 0 90 49 60
        E 0 90 4b 60
        E 0 90 55 60
        E 0 90 57 60
        E 0 90 61 60
        E 0 90 63 60
        E 120 80 1a 00
        E 0 80 2a 00
        E 0 80 3d 00
        E 0 80 3f 00
        E 0 80 49 00
        E 0 80 4b 00
        E 0 80 55 00
        E 0 80 57 00
        E 0 80 61 00
        E 0 80 63 00
        E 360 90 2a 60
        E 0 90 3f 60
        E 0 90 4b 60
        E 0 90 57 60
        E 0 90 63 60
        E 120 80 2a 00
        E 0 80 3f 00
        E 0 80 4b 00
        E 0 80 57 00
        E 0 80 63 00
        E 120 90 18 60
        E 0 90 19 60
        E 0 90 54 60
        E 0 90 60 60
        E 120 80 18 00
        E 0 80 54 00
        E 0 80 60 00
        E 120 80 78 00
        E 0 80 79 00
        E 0 80 7a 00
        E 0 80 7b 00
        E 0 80 7c 00
        E 0 80 19 00
        E 0 90 18 60
        E 0 90 2a 60
        E 0 90 3f 60
        E 0 90 48 60
        E 0 90 4b 60
        E 0 90 54 60
        E 0 90 57 60
        E 0 90 60 60
        E 0 90 63 60
        E 0 90 74 60
        E 120 80 18 00
        E 0 80 2a 00
        E 0 80 3f 00
        E 0 80 48 00
        E 0 80 4b 00
        E 0 80 54 00
        E 0 80 57 00
        E 0 80 60 00
        E 0 80 63 00
        E 360 90 2a 60
        E 0 90 3f 60
        E 0 90 4b 60
        E 0 90 57 60
        E 0 90 63 60
        E 120 80 2a 00
        E 0 80 3f 00
        E 0 80 4b 00
        E 0 80 57 00
        E 0 80 63 00
        E 120 90 18 60
        E 0 90 19 60
        E 0 90 54 60
        E 0 90 60 60
        E 120 80 18 00
        E 0 80 54 00
        E 0 80 60 00
        E 120 80 19 00
        E 0 90 1a 60
        E 0 90 2a 60
        E 0 90 3d 60
        E 0 90 3f 60
        E 0 90 49 60
        E 0 90 4b 60
        E 0 90 55 60
        E 0 90 57 60
        E 0 90 61 60
        E 0 90 63 60
        E 120 80 1a 00
        E 0 80 2a 00
        E 0 80 3d 00
        E 0 80 3f 00
        E 0 80 49 00
        E 0 80 4b 00
        E 0 80 55 00
        E 0 80 57 00
        E 0 80 61 00
        E 0 80 63 00
        E 360 90 2a 60
        E 0 90 3f 60
        E 0 90 4b 60
        E 0 90 57 60
        E 0 90 63 60
        E 120 80 2a 00
        E 0 80 3f 00
        E 0 80 4b 00
        E 0 80 57 00
        E 0 80 63 00
        E 120 90 18 60
        E 0 90 19 60
        E 0 90 54 60
        E 0 90 60 60
        E 120 80 18 00
        E 0 80 54 00
        E 0 80 60 00
        E 120 80 19 00
        E 0 90 18 60
        E 0 90 2a 60
        E 0 90 3f 60
        E 0 90 48 60
        E 0 90 4b 60
        E 0 90 54 60
        E 0 90 57 60
        E 0 90 60 60
        E 0 90 63 60
        E 120 80 18 00
        E 0 80 2a 00
        E 0 80 3f 00
        E 0 80 48 00
        E 0 80 4b 00
        E 0 80 54 00
        E 0 80 57 00
        E 0 80 60 00
        E 0 80 63 00
        E 360 90 18 60
        E 0 90 2a 60
        E 0 90 3f 60
        E 0 90 48 60
        E 0 90 4b 60
        E 0 90 54 60
        E 0 90 57 60
        E 0 90 60 60
        E 0 90 63 60
        E 120 80 18 00
        E 0 80 2a 00
        E 0 80 3f 00
        E 0 80 48 00
        E 0 80 4b 00
        E 0 80 54 00
        E 0 80 57 00
        E 0 80 60 00
        E 0 80 63 00
        E 120 90 19 60
        E 240 80 19 00
        E 0 90 1a 60
        E 0 90 2a 60
        E 0 90 3d 60
        E 0 90 3f 60
        E 0 90 49 60
        E 0 90 4b 60
        E 0 90 55 60
        E 0 90 57 60
        E 0 90 61 60
        E 0 90 63 60
        E 120 80 1a 00
        E 0 80 2a 00
        E 0 80 3d 00
        E 0 80 3f 00
        E 0 80 49 00
        E 0 80 4b 00
        E 0 80 55 00
        E 0 80 57 00
        E 0 80 61 00
        E 0 80 63 00
        E 360 90 2a 60
        E 0 90 3f 60
        E 0 90 4b 60
        E 0 90 57 60
        E 0 90 63 60
        E 120 80 2a 00
        E 0 80 3f 00
        E 0 80 4b 00
        E 0 80 57 00
        E 0 80 63 00
        E 120 90 18 60
        E 0 90 19 60
        E 0 90 54 60
        E 0 90 60 60
        E 120 80 18 00
        E 0 80 54 00
        E 0 80 60 00
        E 120 80 19 00
        E 0 90 18 60
        E 0 90 24 60
        E 0 90 40 60
        E 0 90 48 60
        E 0 90 4c 60
        E 0 90 54 60
        E 0 90 58 60
        E 0 90 60 60
        E 0 90 64 60
        E 120 80 74 00
        E 0 80 18 00
        E 0 80 24 00
        E 0 80 40 00
        E 0 80 48 00
        E 0 80 4c 00
        E 0 80 54 00
        E 0 80 58 00
        E 0 80 60 00
        E 0 80 64 00
        E 600 90 19 60
        E 240 80 19 00
        E 720 90 19 60
        E 240 80 19 00
        E 720 90 19 60
        E 240 80 19 00
        E 720 90 19 60
        E 240 80 19 00
        E 0 90 18 60
        E 0 90 26 60
        E 0 90 40 60
        E 0 90 48 60
        E 0 90 4c 60
        E 0 90 54 60
        E 0 90 58 60
        E 0 90 60 60
        E 0 90 64 60
        E 120 80 18 00
        E 0 80 26 00
        E 0 80 40 00
        E 0 80 48 00
        E 0 80 4c 00
        E 0 80 54 00
        E 0 80 58 00
        E 0 80 60 00
        E 0 80 64 00
        E 600 90 19 60
        E 240 80 19 00
        E 720 90 19 60
        E 240 80 19 00
        E 0 90 1a 60
        E 0 90 3d 60
        E 0 90 49 60
        E 0 90 55 60
        E 0 90 61 60
        E 0 90 78 60
        E 0 90 79 60
        E 0 90 7a 60
        E 0 90 7b 60
        E 0 90 7c 60
        E 120 80 1a 00
        E 0 80 3d 00
        E 0 80 49 00
        E 0 80 55 00
        E 0 80 61 00
        E 120 90 1a 60
        E 0 90 55 60
        E 0 90 61 60
        E 120 80 1a 00
        E 0 80 55 00
        E 0 80 61 00
        E 360 90 19 60
        E 0 90 2f 60
        E 0 90 3e 60
        E 0 90 4a 60
        E 0 90 56 60
        E 0 90 62 60
        E 0 90 6e 60
        E 120 80 2f 00
        E 0 80 3e 00
        E 0 80 4a 00
        E 0 80 56 00
        E 0 80 62 00
        E 0 80 6e 00
        E 120 80 19 00
        E 240 90 31 60
        E 0 90 57 60
        E 0 90 63 60
        E 0 90 6f 60
        E 120 80 31 00
        E 0 80 57 00
        E 0 80 63 00
        E 0 80 6f 00
        E 120 90 31 60
        E 0 90 3f 60
        E 0 90 4b 60
        E 0 90 57 60
        E 0 90 63 60
        E 0 90 6f 60
        E 120 80 31 00
        E 0 80 3f 00
        E 0 80 4b 00
        E 0 80 57 00
        E 0 80 63 00
        E 0 80 6f 00
        E 120 90 18 60
        E 0 90 19 60
        E 0 90 54 60
        E 0 90 60 60
        E 120 80 18 00
        E 0 80 54 00
        E 0 80 60 00
        <X 120 0
          /wFbbWVsbG93XQ==
        >
        E 0 80 78 00
        E 0 80 79 00
        E 0 80 7a 00
        E 0 80 7b 00
        E 0 80 7c 00
        E 0 80 19 00
        E 0 90 18 60
        E 0 90 27 60
        E 0 90 40 60
        E 0 90 48 60
        E 0 90 4c 60
        E 0 90 54 60
        E 0 90 58 60
        E 0 90 60 60
        E 0 90 64 60
        E 120 80 18 00
        E 0 80 27 00
        E 0 80 40 00
        E 0 80 48 00
        E 0 80 4c 00
        E 0 80 54 00
        E 0 80 58 00
        E 0 80 60 00
        E 0 80 64 00
        E 360 90 1f 60
        E 0 90 3e 60
        E 0 90 4a 60
        E 0 90 56 60
        E 0 90 62 60
        E 120 80 1f 00
        E 0 80 3e 00
        E 0 80 4a 00
        E 0 80 56 00
        E 0 80 62 00
        E 360 90 1a 60
        E 0 90 1f 60
        E 0 90 3d 60
        E 0 90 3e 60
        E 0 90 49 60
        E 0 90 4a 60
        E 0 90 55 60
        E 0 90 56 60
        E 0 90 61 60
        E 0 90 62 60
        E 120 80 1a 00
        E 0 80 1f 00
        E 0 80 3d 00
        E 0 80 3e 00
        E 0 80 49 00
        E 0 80 4a 00
        E 0 80 55 00
        E 0 80 56 00
        E 0 80 61 00
        E 0 80 62 00
        E 360 90 1f 60
        E 0 90 3e 60
        E 0 90 4a 60
        E 0 90 56 60
        E 0 90 62 60
        E 120 80 1f 00
        E 0 80 3e 00
        E 0 80 4a 00
        E 0 80 56 00
        E 0 80 62 00
        E 120 90 18 60
        E 0 90 54 60
        E 0 90 60 60
        E 120 80 18 00
        E 0 80 54 00
        E 0 80 60 00
        E 120 90 18 60
        E 0 90 1f 60
        E 0 90 3e 60
        E 0 90 48 60
        E 0 90 4a 60
        E 0 90 54 60
        E 0 90 56 60
        E 0 90 60 60
        E 0 90 62 60
        E 120 80 18 00
        E 0 80 1f 00
        E 0 80 3e 00
        E 0 80 48 00
        E 0 80 4a 00
        E 0 80 54 00
        E 0 80 56 00
        E 0 80 60 00
        E 0 80 62 00
        E 360 90 1f 60
        E 0 90 3e 60
        E 0 90 4a 60
        E 0 90 56 60
        E 0 90 62 60
        E 120 80 1f 00
        E 0 80 3e 00
        E 0 80 4a 00
        E 0 80 56 00
        E 0 80 62 00
        E 360 90 1a 60
        E 0 90 1f 60
        E 0 90 3d 60
        E 0 90 3e 60
        E 0 90 49 60
        E 0 90 4a 60
        E 0 90 55 60
        E 0 90 56 60
        E 0 90 61 60
        E 0 90 62 60
        E 120 80 1a 00
        E 0 80 1f 00
        E 0 80 3d 00
        E 0 80 3e 00
        E 0 80 49 00
        E 0 80 4a 00
        E 0 80 55 00
        E 0 80 56 00
        E 0 80 61 00
        E 0 80 62 00
        E 360 90 1f 60
        E 0 90 3e 60
        E 0 90 4a 60
        E 0 90 56 60
        E 0 90 62 60
        E 120 80 1f 00
        E 0 80 3e 00
        E 0 80 4a 00
        E 0 80 56 00
        E 0 80 62 00
        E 120 90 18 60
        E 0 90 54 60
        E 0 90 60 60
        E 120 80 18 00
        E 0 80 54 00
        E 0 80 60 00
        E 120 90 18 60
        E 0 90 1f 60
        E 0 90 3e 60
        E 0 90 48 60
        E 0 90 4a 60
        E 0 90 54 60
        E 0 90 56 60
        E 0 90 60 60
        E 0 90 62 60
        E 120 80 18 00
        E 0 80 1f 00
        E 0 80 3e 00
        E 0 80 48 00
        E 0 80 4a 00
        E 0 80 54 00
        E 0 80 56 00
        E 0 80 60 00
        E 0 80 62 00
        E 360 90 1f 60
        E 0 90 3e 60
        E 0 90 4a 60
        E 0 90 56 60
        E 0 90 62 60
        E 120 80 1f 00
        E 0 80 3e 00
        E 0 80 4a 00
        E 0 80 56 00
        E 0 80 62 00
        E 360 90 1a 60
        E 0 90 1f 60
        E 0 90 3d 60
        E 0 90 3e 60
        E 0 90 49 60
        E 0 90 4a 60
        E 0 90 55 60
        E 0 90 56 60
        E 0 90 61 60
        E 0 90 62 60
        E 120 80 1a 00
        E 0 80 1f 00
        E 0 80 3d 00
        E 0 80 3e 00
        E 0 80 49 00
        E 0 80 4a 00
        E 0 80 55 00
        E 0 80 56 00
        E 0 80 61 00
        E 0 80 62 00
        E 360 90 1f 60
        E 0 90 3e 60
        E 0 90 4a 60
        E 0 90 56 60
        E 0 90 62 60
        E 120 80 1f 00
        E 0 80 3e 00
        E 0 80 4a 00
        E 0 80 56 00
        E 0 80 62 00
        E 120 90 18 60
        E 0 90 54 60
        E 0 90 60 60
        E 120 80 18 00
        E 0 80 54 00
        E 0 80 60 00
        E 120 90 18 60
        E 0 90 1f 60
        E 0 90 3e 60
        E 0 90 48 60
        E 0 90 4a 60
        E 0 90 54 60
        E 0 90 56 60
        E 0 90 60 60
        E 0 90 62 60
        E 0 90 78 60
        E 0 90 79 60
        E 0 90 7a 60
        E 0 90 7b 60
        E 0 90 7c 60
        E 120 80 18 00
        E 0 80 1f 00
        E 0 80 3e 00
        E 0 80 48 00
        E 0 80 4a 00
        E 0 80 54 00
        E 0 80 56 00
        E 0 80 60 00
        E 0 80 62 00
        E 360 90 1f 60
        E 0 90 3e 60
        E 0 90 4a 60
        E 0 90 56 60
        E 0 90 62 60
        E 120 80 1f 00
        E 0 80 3e 00
        E 0 80 4a 00
        E 0 80 56 00
        E 0 80 62 00
        E 360 90 1a 60
        E 0 90 1f 60
        E 0 90 3d 60
        E 0 90 3e 60
        E 0 90 49 60
        E 0 90 4a 60
        E 0 90 55 60
        E 0 90 56 60
        E 0 90 61 60
        E 0 90 62 60
        E 120 80 1a 00
        E 0 80 1f 00
        E 0 80 3d 00
        E 0 80 3e 00
        E 0 80 49 00
        E 0 80 4a 00
        E 0 80 55 00
        E 0 80 56 00
        E 0 80 61 00
        E 0 80 62 00
        E 120 90 18 60
        E 0 90 54 60
        E 0 90 60 60
        E 120 80 18 00
        E 0 80 54 00
        E 0 80 60 00
        E 120 90 1f 60
        E 0 90 3e 60
        E 0 90 4a 60
        E 0 90 56 60
        E 0 90 62 60
        E 120 80 1f 00
        E 0 80 3e 00
        E 0 80 4a 00
        E 0 80 56 00
        E 0 80 62 00
        E 120 90 18 60
        E 0 90 54 60
        E 0 90 60 60
        E 120 80 18 00
        E 0 80 54 00
        E 0 80 60 00
        E 120 80 78 00
        E 0 80 79 00
        E 0 80 7a 00
        E 0 80 7b 00
        E 0 80 7c 00
        E 0 90 18 60
        E 0 90 1f 60
        E 0 90 3e 60
        E 0 90 48 60
        E 0 90 4a 60
        E 0 90 54 60
        E 0 90 56 60
        E 0 90 60 60
        E 0 90 62 60
        E 120 80 18 00
        E 0 80 1f 00
        E 0 80 3e 00
        E 0 80 48 00
        E 0 80 4a 00
        E 0 80 54 00
        E 0 80 56 00
        E 0 80 60 00
        E 0 80 62 00
        E 360 90 1f 60
        E 0 90 3e 60
        E 0 90 4a 60
        E 0 90 56 60
        E 0 90 62 60
        E 120 80 1f 00
        E 0 80 3e 00
        E 0 80 4a 00
        E 0 80 56 00
        E 0 80 62 00
        E 120 90 18 60
        E 0 90 54 60
        E 0 90 60 60
        E 120 80 18 00
        E 0 80 54 00
        E 0 80 60 00
        E 120 90 1a 60
        E 0 90 1f 60
        E 0 90 3d 60
        E 0 90 3e 60
        E 0 90 49 60
        E 0 90 4a 60
        E 0 90 55 60
        E 0 90 56 60
        E 0 90 61 60
        E 0 90 62 60
        E 120 80 1a 00
        E 0 80 1f 00
        E 0 80 3d 00
        E 0 80 3e 00
        E 0 80 49 00
        E 0 80 4a 00
        E 0 80 55 00
        E 0 80 56 00
        E 0 80 61 00
        E 0 80 62 00
        E 360 90 1f 60
        E 0 90 3e 60
        E 0 90 4a 60
        E 0 90 56 60
        E 0 90 62 60
        E 120 80 1f 00
        E 0 80 3e 00
        E 0 80 4a 00
        E 0 80 56 00
        E 0 80 62 00
        E 360 90 18 60
        E 0 90 1f 60
        E 0 90 3e 60
        E 0 90 48 60
        E 0 90 4a 60
        E 0 90 54 60
        E 0 90 56 60
        E 0 90 60 60
        E 0 90 62 60
        E 120 80 18 00
        E 0 80 1f 00
        E 0 80 3e 00
        E 0 80 48 00
        E 0 80 4a 00
        E 0 80 54 00
        E 0 80 56 00
        E 0 80 60 00
        E 0 80 62 00
        E 120 90 18 60
        E 0 90 54 60
        E 0 90 60 60
        E 120 80 18 00
        E 0 80 54 00
        E 0 80 60 00
        E 120 90 1f 60
        E 0 90 3e 60
        E 0 90 4a 60
        E 0 90 56 60
        E 0 90 62 60
        E 120 80 1f 00
        E 0 80 3e 00
        E 0 80 4a 00
        E 0 80 56 00
        E 0 80 62 00
        E 120 90 18 60
        E 0 90 54 60
        E 0 90 60 60
        E 120 80 18 00
        E 0 80 54 00
        E 0 80 60 00
        E 120 90 1a 60
        E 0 90 1f 60
        E 0 90 3d 60
        E 0 90 3e 60
        E 0 90 49 60
        E 0 90 4a 60
        E 0 90 55 60
        E 0 90 56 60
        E 0 90 61 60
        E 0 90 62 60
        E 120 80 1a 00
        E 0 80 1f 00
        E 0 80 3d 00
        E 0 80 3e 00
        E 0 80 49 00
        E 0 80 4a 00
        E 0 80 55 00
        E 0 80 56 00
        E 0 80 61 00
        E 0 80 62 00
        E 360 90 1f 60
        E 0 90 3e 60
        E 0 90 4a 60
        E 0 90 56 60
        E 0 90 62 60
        E 120 80 1f 00
        E 0 80 3e 00
        E 0 80 4a 00
        E 0 80 56 00
        E 0 80 62 00
        E 120 90 18 60
        E 0 90 54 60
        E 0 90 60 60
        E 120 80 18 00
        E 0 80 54 00
        E 0 80 60 00
        E 120 90 18 60
        E 0 90 1f 60
        E 0 90 3e 60
        E 0 90 48 60
        E 0 90 4a 60
        E 0 90 54 60
        E 0 90 56 60
        E 0 90 60 60
        E 0 90 62 60
        E 120 80 18 00
        E 0 80 1f 00
        E 0 80 3e 00
        E 0 80 48 00
        E 0 80 4a 00
        E 0 80 54 00
        E 0 80 56 00
        E 0 80 60 00
        E 0 80 62 00
        E 360 90 18 60
        E 0 90 1f 60
        E 0 90 3e 60
        E 0 90 48 60
        E 0 90 4a 60
        E 0 90 54 60
        E 0 90 56 60
        E 0 90 60 60
        E 0 90 62 60
        E 120 80 18 00
        E 0 80 1f 00
        E 0 80 3e 00
        E 0 80 48 00
        E 0 80 4a 00
        E 0 80 54 00
        E 0 80 56 00
        E 0 80 60 00
        E 0 80 62 00
        E 360 90 1a 60
        E 0 90 1f 60
        E 0 90 3d 60
        E 0 90 3e 60
        E 0 90 49 60
        E 0 90 4a 60
        E 0 90 55 60
        E 0 90 56 60
        E 0 90 61 60
        E 0 90 62 60
        E 120 80 1a 00
        E 0 80 1f 00
        E 0 80 3d 00
        E 0 80 3e 00
        E 0 80 49 00
        E 0 80 4a 00
        E 0 80 55 00
        E 0 80 56 00
        E 0 80 61 00
        E 0 80 62 00
        E 360 90 1f 60
        E 0 90 3e 60
        E 0 90 4a 60
        E 0 90 56 60
        E 0 90 62 60
        E 120 80 1f 00
        E 0 80 3e 00
        E 0 80 4a 00
        E 0 80 56 00
        E 0 80 62 00
        E 120 90 18 60
        E 0 90 54 60
        E 0 90 60 60
        E 120 80 18 00
        E 0 80 54 00
        E 0 80 60 00
        E 120 90 18 60
        E 0 90 1f 60
        E 0 90 3e 60
        E 0 90 48 60
        E 0 90 4a 60
        E 0 90 54 60
        E 0 90 56 60
        E 0 90 60 60
        E 0 90 62 60
        E 0 90 78 60
        E 0 90 79 60
        E 0 90 7a 60
        E 0 90 7b 60
        E 0 90 7c 60
        E 120 80 18 00
        E 0 80 1f 00
        E 0 80 3e 00
        E 0 80 48 00
        E 0 80 4a 00
        E 0 80 54 00
        E 0 80 56 00
        E 0 80 60 00
        E 0 80 62 00
        E 360 90 1f 60
        E 0 90 3e 60
        E 0 90 4a 60
        E 0 90 56 60
        E 0 90 62 60
        E 120 80 1f 00
        E 0 80 3e 00
        E 0 80 4a 00
        E 0 80 56 00
        E 0 80 62 00
        E 120 90 1a 60
        E 0 90 55 60
        E 0 90 61 60
        E 120 80 1a 00
        E 0 80 55 00
        E 0 80 61 00
        E 120 90 1a 60
        E 0 90 1f 60
        E 0 90 3d 60
        E 0 90 3e 60
        E 0 90 49 60
        E 0 90 4a 60
        E 0 90 55 60
        E 0 90 56 60
        E 0 90 61 60
        E 0 90 62 60
        E 120 80 1a 00
        E 0 80 1f 00
        E 0 80 3d 00
        E 0 80 3e 00
        E 0 80 49 00
        E 0 80 4a 00
        E 0 80 55 00
        E 0 80 56 00
        E 0 80 61 00
        E 0 80 62 00
        E 120 90 18 60
        E 0 90 54 60
        E 0 90 60 60
        E 120 80 18 00
        E 0 80 54 00
        E 0 80 60 00
        E 120 90 1f 60
        E 0 90 3e 60
        E 0 90 4a 60
        E 0 90 56 60
        E 0 90 62 60
        E 120 80 1f 00
        E 0 80 3e 00
        E 0 80 4a 00
        E 0 80 56 00
        E 0 80 62 00
        E 120 90 18 60
        E 0 90 54 60
        E 0 90 60 60
        E 120 80 18 00
        E 0 80 54 00
        E 0 80 60 00
        E 120 80 78 00
        E 0 80 79 00
        E 0 80 7a 00
        E 0 80 7b 00
        E 0 80 7c 00
        E 0 90 18 60
        E 0 90 1f 60
        E 0 90 3e 60
        E 0 90 48 60
        E 0 90 4a 60
        E 0 90 54 60
        E 0 90 56 60
        E 0 90 60 60
        E 0 90 62 60
        E 120 80 18 00
        E 0 80 1f 00
        E 0 80 3e 00
        E 0 80 48 00
        E 0 80 4a 00
        E 0 80 54 00
        E 0 80 56 00
        E 0 80 60 00
        E 0 80 62 00
        E 360 90 1f 60
        E 0 90 3e 60
        E 0 90 4a 60
        E 0 90 56 60
        E 0 90 62 60
        E 120 80 1f 00
        E 0 80 3e 00
        E 0 80 4a 00
        E 0 80 56 00
        E 0 80 62 00
        E 120 90 18 60
        E 0 90 54 60
        E 0 90 60 60
        E 120 80 18 00
        E 0 80 54 00
        E 0 80 60 00
        E 120 90 1a 60
        E 0 90 1f 60
        E 0 90 3d 60
        E 0 90 3e 60
        E 0 90 49 60
        E 0 90 4a 60
        E 0 90 55 60
        E 0 90 56 60
        E 0 90 61 60
        E 0 90 62 60
        E 120 80 1a 00
        E 0 80 1f 00
        E 0 80 3d 00
        E 0 80 3e 00
        E 0 80 49 00
        E 0 80 4a 00
        E 0 80 55 00
        E 0 80 56 00
        E 0 80 61 00
        E 0 80 62 00
        E 360 90 1f 60
        E 0 90 3e 60
        E 0 90 4a 60
        E 0 90 56 60
        E 0 90 62 60
        E 120 80 1f 00
        E 0 80 3e 00
        E 0 80 4a 00
        E 0 80 56 00
        E 0 80 62 00
        E 120 90 18 60
        E 0 90 54 60
        E 0 90 60 60
        E 120 80 18 00
        E 0 80 54 00
        E 0 80 60 00
        E 120 90 18 60
        E 0 90 1f 60
        E 0 90 3e 60
        E 0 90 48 60
        E 0 90 4a 60
        E 0 90 54 60
        E 0 90 56 60
        E 0 90 60 60
        E 0 90 62 60
        E 120 80 18 00
        E 0 80 1f 00
        E 0 80 3e 00
        E 0 80 48 00
        E 0 80 4a 00
        E 0 80 54 00
        E 0 80 56 00
        E 0 80 60 00
        E 0 80 62 00
        E 360 90 1f 60
        E 0 90 3e 60
        E 0 90 4a 60
        E 0 90 56 60
        E 0 90 62 60
        E 120 80 1f 00
        E 0 80 3e 00
        E 0 80 4a 00
        E 0 80 56 00
        E 0 80 62 00
        E 360 90 1a 60
        E 0 90 1f 60
        E 0 90 3d 60
        E 0 90 3e 60
        E 0 90 49 60
        E 0 90 4a 60
        E 0 90 55 60
        E 0 90 56 60
        E 0 90 61 60
        E 0 90 62 60
        E 120 80 1a 00
        E 0 80 1f 00
        E 0 80 3d 00
        E 0 80 3e 00
        E 0 80 49 00
        E 0 80 4a 00
        E 0 80 55 00
        E 0 80 56 00
        E 0 80 61 00
        E 0 80 62 00
        E 360 90 1f 60
        E 0 90 3e 60
        E 0 90 4a 60
        E 0 90 56 60
        E 0 90 62 60
        E 120 80 1f 00
        E 0 80 3e 00
        E 0 80 4a 00
        E 0 80 56 00
        E 0 80 62 00
        E 120 90 18 60
        E 0 90 54 60
        E 0 90 60 60
        E 120 80 18 00
        E 0 80 54 00
        E 0 80 60 00
        E 120 90 18 60
        E 0 90 1f 60
        E 0 90 3e 60
        E 0 90 48 60
        E 0 90 4a 60
        E 0 90 54 60
        E 0 90 56 60
        E 0 90 60 60
        E 0 90 62 60
        E 120 80 18 00
        E 0 80 1f 00
        E 0 80 3e 00
        E 0 80 48 00
        E 0 80 4a 00
        E 0 80 54 00
        E 0 80 56 00
        E 0 80 60 00
        E 0 80 62 00
        E 360 90 1f 60
        E 0 90 3e 60
        E 0 90 4a 60
        E 0 90 56 60
        E 0 90 62 60
        E 120 80 1f 00
        E 0 80 3e 00
        E 0 80 4a 00
        E 0 80 56 00
        E 0 80 62 00
        E 120 90 18 60
        E 0 90 54 60
        E 0 90 60 60
        E 120 80 18 00
        E 0 80 54 00
        E 0 80 60 00
        E 120 90 1a 60
        E 0 90 1f 60
        E 0 90 3d 60
        E 0 90 3e 60
        E 0 90 49 60
        E 0 90 4a 60
        E 0 90 55 60
        E 0 90 56 60
        E 0 90 61 60
        E 0 90 62 60
        E 120 80 1a 00
        E 0 80 1f 00
        E 0 80 3d 00
        E 0 80 3e 00
        E 0 80 49 00
        E 0 80 4a 00
        E 0 80 55 00
        E 0 80 56 00
        E 0 80 61 00
        E 0 80 62 00
        E 360 90 1f 60
        E 0 90 3e 60
        E 0 90 4a 60
        E 0 90 56 60
        E 0 90 62 60
        E 120 80 1f 00
        E 0 80 3e 00
        E 0 80 4a 00
        E 0 80 56 00
        E 0 80 62 00
        E 120 90 18 60
        E 0 90 54 60
        E 0 90 60 60
        E 120 80 18 00
        E 0 80 54 00
        E 0 80 60 00
        E 120 90 18 60
        E 0 90 1f 60
        E 0 90 3e 60
        E 0 90 48 60
        E 0 90 4a 60
        E 0 90 54 60
        E 0 90 56 60
        E 0 90 60 60
        E 0 90 62 60
        E 0 90 78 60
        E 0 90 79 60
        E 0 90 7a 60
        E 0 90 7b 60
        E 0 90 7c 60
        E 120 80 18 00
        E 0 80 1f 00
        E 0 80 3e 00
        E 0 80 48 00
        E 0 80 4a 00
        E 0 80 54 00
        E 0 80 56 00
        E 0 80 60 00
        E 0 80 62 00
        E 360 90 1f 60
        E 0 90 3e 60
        E 0 90 4a 60
        E 0 90 56 60
        E 0 90 62 60
        E 120 80 1f 00
        E 0 80 3e 00
        E 0 80 4a 00
        E 0 80 56 00
        E 0 80 62 00
        E 360 90 1a 60
        E 0 90 1f 60
        E 0 90 3d 60
        E 0 90 3e 60
        E 0 90 49 60
        E 0 90 4a 60
        E 0 90 55 60
        E 0 90 56 60
        E 0 90 61 60
        E 0 90 62 60
        E 120 80 1a 00
        E 0 80 1f 00
        E 0 80 3d 00
        E 0 80 3e 00
        E 0 80 49 00
        E 0 80 4a 00
        E 0 80 55 00
        E 0 80 56 00
        E 0 80 61 00
        E 0 80 62 00
        E 120 90 18 60
        E 0 90 54 60
        E 0 90 60 60
        E 120 80 18 00
        E 0 80 54 00
        E 0 80 60 00
        E 120 90 1f 60
        E 0 90 3e 60
        E 0 90 4a 60
        E 0 90 56 60
        E 0 90 62 60
        E 120 80 1f 00
        E 0 80 3e 00
        E 0 80 4a 00
        E 0 80 56 00
        E 0 80 62 00
        E 120 90 18 60
        E 0 90 54 60
        E 0 90 60 60
        E 120 80 18 00
        E 0 80 54 00
        E 0 80 60 00
        E 120 80 78 00
        E 0 80 79 00
        E 0 80 7a 00
        E 0 80 7b 00
        E 0 80 7c 00
        E 0 90 18 60
        E 0 90 1f 60
        E 0 90 3e 60
        E 0 90 48 60
        E 0 90 4a 60
        E 0 90 54 60
        E 0 90 56 60
        E 0 90 60 60
        E 0 90 62 60
        E 0 90 74 60
        E 120 80 18 00
        E 0 80 1f 00
        E 0 80 3e 00
        E 0 80 48 00
        E 0 80 4a 00
        E 0 80 54 00
        E 0 80 56 00
        E 0 80 60 00
        E 0 80 62 00
        E 360 90 1f 60
        E 0 90 3e 60
        E 0 90 4a 60
        E 0 90 56 60
        E 0 90 62 60
        E 120 80 1f 00
        E 0 80 3e 00
        E 0 80 4a 00
        E 0 80 56 00
        E 0 80 62 00
        E 120 90 18 60
        E 0 90 54 60
        E 0 90 60 60
        E 120 80 18 00
        E 0 80 54 00
        E 0 80 60 00
        E 120 90 1a 60
        E 0 90 1f 60
        E 0 90 3d 60
        E 0 90 3e 60
        E 0 90 49 60
        E 0 90 4a 60
        E 0 90 55 60
        E 0 90 56 60
        E 0 90 61 60
        E 0 90 62 60
        E 120 80 1a 00
        E 0 80 1f 00
        E 0 80 3d 00
        E 0 80 3e 00
        E 0 80 49 00
        E 0 80 4a 00
        E 0 80 55 00
        E 0 80 56 00
        E 0 80 61 00
        E 0 80 62 00
        E 360 90 1f 60
        E 0 90 3e 60
        E 0 90 4a 60
        E 0 90 56 60
        E 0 90 62 60
        E 120 80 1f 00
        E 0 80 3e 00
        E 0 80 4a 00
        E 0 80 56 00
        E 0 80 62 00
        E 120 90 18 60
        E 0 90 54 60
        E 0 90 60 60
        E 120 80 18 00
        E 0 80 54 00
        E 0 80 60 00
        E 120 80 74 00
        E 0 90 18 60
        E 0 90 1f 60
        E 0 90 3e 60
        E 0 90 48 60
        E 0 90 4a 60
        E 0 90 54 60
        E 0 90 56 60
        E 0 90 60 60
        E 0 90 62 60
        E 120 80 18 00
        E 0 80 1f 00
        E 0 80 3e 00
        E 0 80 48 00
        E 0 80 4a 00
        E 0 80 54 00
        E 0 80 56 00
        E 0 80 60 00
        E 0 80 62 00
        E 360 90 1f 60
        E 0 90 3e 60
        E 0 90 4a 60
        E 0 90 56 60
        E 0 90 62 60
        E 120 80 1f 00
        E 0 80 3e 00
        E 0 80 4a 00
        E 0 80 56 00
        E 0 80 62 00
        E 120 90 18 60
        E 0 90 54 60
        E 0 90 60 60
        E 120 80 18 00
        E 0 80 54 00
        E 0 80 60 00
        E 120 90 1a 60
        E 0 90 1f 60
        E 0 90 3d 60
        E 0 90 3e 60
        E 0 90 49 60
        E 0 90 4a 60
        E 0 90 55 60
        E 0 90 56 60
        E 0 90 61 60
        E 0 90 62 60
        E 120 80 1a 00
        E 0 80 1f 00
        E 0 80 3d 00
        E 0 80 3e 00
        E 0 80 49 00
        E 0 80 4a 00
        E 0 80 55 00
        E 0 80 56 00
        E 0 80 61 00
        E 0 80 62 00
        E 360 90 1f 60
        E 0 90 3e 60
        E 0 90 4a 60
        E 0 90 56 60
        E 0 90 62 60
        E 120 80 1f 00
        E 0 80 3e 00
        E 0 80 4a 00
        E 0 80 56 00
        E 0 80 62 00
        E 120 90 18 60
        E 0 90 54 60
        E 0 90 60 60
        E 120 80 18 00
        E 0 80 54 00
        E 0 80 60 00
        E 120 90 18 60
        E 0 90 1f 60
        E 0 90 3e 60
        E 0 90 48 60
        E 0 90 4a 60
        E 0 90 54 60
        E 0 90 56 60
        E 0 90 60 60
        E 0 90 62 60
        E 120 80 18 00
        E 0 80 1f 00
        E 0 80 3e 00
        E 0 80 48 00
        E 0 80 4a 00
        E 0 80 54 00
        E 0 80 56 00
        E 0 80 60 00
        E 0 80 62 00
        E 360 90 1f 60
        E 0 90 3e 60
        E 0 90 4a 60
        E 0 90 56 60
        E 0 90 62 60
        E 120 80 1f 00
        E 0 80 3e 00
        E 0 80 4a 00
        E 0 80 56 00
        E 0 80 62 00
        E 120 90 18 60
        E 0 90 54 60
        E 0 90 60 60
        E 120 80 18 00
        E 0 80 54 00
        E 0 80 60 00
        E 120 90 1a 60
        E 0 90 1f 60
        E 0 90 3d 60
        E 0 90 3e 60
        E 0 90 49 60
        E 0 90 4a 60
        E 0 90 55 60
        E 0 90 56 60
        E 0 90 61 60
        E 0 90 62 60
        E 120 80 1a 00
        E 0 80 1f 00
        E 0 80 3d 00
        E 0 80 3e 00
        E 0 80 49 00
        E 0 80 4a 00
        E 0 80 55 00
        E 0 80 56 00
        E 0 80 61 00
        E 0 80 62 00
        E 360 90 1f 60
        E 0 90 3e 60
        E 0 90 4a 60
        E 0 90 56 60
        E 0 90 62 60
        E 120 80 1f 00
        E 0 80 3e 00
        E 0 80 4a 00
        E 0 80 56 00
        E 0 80 62 00
        E 120 90 18 60
        E 0 90 54 60
        E 0 90 60 60
        E 120 80 18 00
        E 0 80 54 00
        E 0 80 60 00
        E 120 90 18 60
        E 0 90 1f 60
        E 0 90 3e 60
        E 0 90 48 60
        E 0 90 4a 60
        E 0 90 54 60
        E 0 90 56 60
        E 0 90 60 60
        E 0 90 62 60
        E 0 90 78 60
        E 0 90 79 60
        E 0 90 7a 60
        E 0 90 7b 60
        E 0 90 7c 60
        E 120 80 18 00
        E 0 80 1f 00
        E 0 80 3e 00
        E 0 80 48 00
        E 0 80 4a 00
        E 0 80 54 00
        E 0 80 56 00
        E 0 80 60 00
        E 0 80 62 00
        E 360 90 1f 60
        E 0 90 3e 60
        E 0 90 4a 60
        E 0 90 56 60
        E 0 90 62 60
        E 120 80 1f 00
        E 0 80 3e 00
        E 0 80 4a 00
        E 0 80 56 00
        E 0 80 62 00
        E 120 90 18 60
        E 0 90 54 60
        E 0 90 60 60
        E 120 80 18 00
        E 0 80 54 00
        E 0 80 60 00
        E 120 90 1a 60
        E 0 90 1f 60
        E 0 90 3d 60
        E 0 90 3e 60
        E 0 90 49 60
        E 0 90 4a 60
        E 0 90 55 60
        E 0 90 56 60
        E 0 90 61 60
        E 0 90 62 60
        E 120 80 1a 00
        E 0 80 1f 00
        E 0 80 3d 00
        E 0 80 3e 00
        E 0 80 49 00
        E 0 80 4a 00
        E 0 80 55 00
        E 0 80 56 00
        E 0 80 61 00
        E 0 80 62 00
        E 360 90 1f 60
        E 0 90 3e 60
        E 0 90 4a 60
        E 0 90 56 60
        E 0 90 62 60
        E 120 80 1f 00
        E 0 80 3e 00
        E 0 80 4a 00
        E 0 80 56 00
        E 0 80 62 00
        E 120 90 18 60
        E 0 90 54 60
        E 0 90 60 60
        E 120 80 18 00
        E 0 80 54 00
        E 0 80 60 00
        E 120 80 78 00
        E 0 80 79 00
        E 0 80 7a 00
        E 0 80 7b 00
        E 0 80 7c 00
        E 0 90 18 60
        E 0 90 27 60
        E 0 90 40 60
        E 0 90 48 60
        E 0 90 4c 60
        E 0 90 54 60
        E 0 90 58 60
        E 0 90 60 60
        E 0 90 64 60
        E 120 80 18 00
        E 0 80 27 00
        E 0 80 40 00
        E 0 80 48 00
        E 0 80 4c 00
        E 0 80 54 00
        E 0 80 58 00
        E 0 80 60 00
        E 0 80 64 00
        E 360 90 1f 60
        E 0 90 3e 60
        E 0 90 4a 60
        E 0 90 56 60
        E 0 90 62 60
        E 120 80 1f 00
        E 0 80 3e 00
        E 0 80 4a 00
        E 0 80 56 00
        E 0 80 62 00
        E 120 90 18 60
        E 0 90 54 60
        E 0 90 60 60
        E 120 80 18 00
        E 0 80 54 00
        E 0 80 60 00
        E 120 90 1a 60
        E 0 90 1f 60
        E 0 90 3d 60
        E 0 90 3e 60
        E 0 90 49 60
        E 0 90 4a 60
        E 0 90 55 60
        E 0 90 56 60
        E 0 90 61 60
        E 0 90 62 60
        E 120 80 1a 00
        E 0 80 1f 00
        E 0 80 3d 00
        E 0 80 3e 00
        E 0 80 49 00
        E 0 80 4a 00
        E 0 80 55 00
        E 0 80 56 00
        E 0 80 61 00
        E 0 80 62 00
        E 360 90 1f 60
        E 0 90 3e 60
        E 0 90 4a 60
        E 0 90 56 60
        E 0 90 62 60
        E 120 80 1f 00
        E 0 80 3e 00
        E 0 80 4a 00
        E 0 80 56 00
        E 0 80 62 00
        E 120 90 18 60
        E 0 90 54 60
        E 0 90 60 60
        E 120 80 18 00
        E 0 80 54 00
        E 0 80 60 00
        E 120 90 18 60
        E 0 90 1f 60
        E 0 90 3e 60
        E 0 90 48 60
        E 0 90 4a 60
        E 0 90 54 60
        E 0 90 56 60
        E 0 90 60 60
        E 0 90 62 60
        E 120 80 18 00
        E 0 80 1f 00
        E 0 80 3e 00
        E 0 80 48 00
        E 0 80 4a 00
        E 0 80 54 00
        E 0 80 56 00
        E 0 80 60 00
        E 0 80 62 00
        E 360 90 1f 60
        E 0 90 3e 60
        E 0 90 4a 60
        E 0 90 56 60
        E 0 90 62 60
        E 120 80 1f 00
        E 0 80 3e 00
        E 0 80 4a 00
        E 0 80 56 00
        E 0 80 62 00
        E 360 90 1a 60
        E 0 90 1f 60
        E 0 90 3d 60
        E 0 90 3e 60
        E 0 90 49 60
        E 0 90 4a 60
        E 0 90 55 60
        E 0 90 56 60
        E 0 90 61 60
        E 0 90 62 60
        E 120 80 1a 00
        E 0 80 1f 00
        E 0 80 3d 00
        E 0 80 3e 00
        E 0 80 49 00
        E 0 80 4a 00
        E 0 80 55 00
        E 0 80 56 00
        E 0 80 61 00
        E 0 80 62 00
        E 360 90 1f 60
        E 0 90 3e 60
        E 0 90 4a 60
        E 0 90 56 60
        E 0 90 62 60
        E 120 80 1f 00
        E 0 80 3e 00
        E 0 80 4a 00
        E 0 80 56 00
        E 0 80 62 00
        E 120 90 18 60
        E 0 90 54 60
        E 0 90 60 60
        E 120 80 18 00
        E 0 80 54 00
        E 0 80 60 00
        E 120 90 18 60
        E 0 90 1f 60
        E 0 90 3e 60
        E 0 90 48 60
        E 0 90 4a 60
        E 0 90 54 60
        E 0 90 56 60
        E 0 90 60 60
        E 0 90 62 60
        E 120 80 18 00
        E 0 80 1f 00
        E 0 80 3e 00
        E 0 80 48 00
        E 0 80 4a 00
        E 0 80 54 00
        E 0 80 56 00
        E 0 80 60 00
        E 0 80 62 00
        E 360 90 1f 60
        E 0 90 3e 60
        E 0 90 4a 60
        E 0 90 56 60
        E 0 90 62 60
        E 120 80 1f 00
        E 0 80 3e 00
        E 0 80 4a 00
        E 0 80 56 00
        E 0 80 62 00
        E 120 90 18 60
        E 0 90 54 60
        E 0 90 60 60
        E 120 80 18 00
        E 0 80 54 00
        E 0 80 60 00
        E 120 90 1a 60
        E 0 90 1f 60
        E 0 90 3d 60
        E 0 90 3e 60
        E 0 90 49 60
        E 0 90 4a 60
        E 0 90 55 60
        E 0 90 56 60
        E 0 90 61 60
        E 0 90 62 60
        E 120 80 1a 00
        E 0 80 1f 00
        E 0 80 3d 00
        E 0 80 3e 00
        E 0 80 49 00
        E 0 80 4a 00
        E 0 80 55 00
        E 0 80 56 00
        E 0 80 61 00
        E 0 80 62 00
        E 360 90 1f 60
        E 0 90 3e 60
        E 0 90 4a 60
        E 0 90 56 60
        E 0 90 62 60
        E 120 80 1f 00
        E 0 80 3e 00
        E 0 80 4a 00
        E 0 80 56 00
        E 0 80 62 00
        E 120 90 18 60
        E 0 90 54 60
        E 0 90 60 60
        E 120 80 18 00
        E 0 80 54 00
        E 0 80 60 00
        E 120 90 18 60
        E 0 90 1f 60
        E 0 90 3e 60
        E 0 90 48 60
        E 0 90 4a 60
        E 0 90 54 60
        E 0 90 56 60
        E 0 90 60 60
        E 0 90 62 60
        E 0 90 78 60
        E 0 90 79 60
        E 0 90 7a 60
        E 0 90 7b 60
        E 0 90 7c 60
        E 120 80 18 00
        E 0 80 1f 00
        E 0 80 3e 00
        E 0 80 48 00
        E 0 80 4a 00
        E 0 80 54 00
        E 0 80 56 00
        E 0 80 60 00
        E 0 80 62 00
        E 120 90 1a 60
        E 0 90 55 60
        E 0 90 61 60
        E 120 80 1a 00
        E 0 80 55 00
        E 0 80 61 00
        E 120 90 1f 60
        E 0 90 3e 60
        E 0 90 4a 60
        E 0 90 56 60
        E 0 90 62 60
        E 120 80 1f 00
        E 0 80 3e 00
        E 0 80 4a 00
        E 0 80 56 00
        E 0 80 62 00
        E 120 90 18 60
        E 0 90 54 60
        E 0 90 60 60
        E 120 80 18 00
        E 0 80 54 00
        E 0 80 60 00
        E 120 90 1a 60
        E 0 90 1f 60
        E 0 90 3d 60
        E 0 90 3e 60
        E 0 90 49 60
        E 0 90 4a 60
        E 0 90 55 60
        E 0 90 56 60
        E 0 90 61 60
        E 0 90 62 60
        E 120 80 1a 00
        E 0 80 1f 00
        E 0 80 3d 00
        E 0 80 3e 00
        E 0 80 49 00
        E 0 80 4a 00
        E 0 80 55 00
        E 0 80 56 00
        E 0 80 61 00
        E 0 80 62 00
        E 360 90 1f 60
        E 0 90 3e 60
        E 0 90 4a 60
        E 0 90 56 60
        E 0 90 62 60
        E 120 80 1f 00
        E 0 80 3e 00
        E 0 80 4a 00
        E 0 80 56 00
        E 0 80 62 00
        E 120 90 18 60
        E 0 90 54 60
        E 0 90 60 60
        E 120 80 18 00
        E 0 80 54 00
        E 0 80 60 00
        E 120 80 78 00
        E 0 80 79 00
        E 0 80 7a 00
        E 0 80 7b 00
        E 0 80 7c 00
        E 0 90 18 60
        E 0 90 1f 60
        E 0 90 3e 60
        E 0 90 48 60
        E 0 90 4a 60
        E 0 90 54 60
        E 0 90 56 60
        E 0 90 60 60
        E 0 90 62 60
        E 120 80 18 00
        E 0 80 1f 00
        E 0 80 3e 00
        E 0 80 48 00
        E 0 80 4a 00
        E 0 80 54 00
        E 0 80 56 00
        E 0 80 60 00
        E 0 80 62 00
        E 360 90 1f 60
        E 0 90 3e 60
        E 0 90 4a 60
        E 0 90 56 60
        E 0 90 62 60
        E 120 80 1f 00
        E 0 80 3e 00
        E 0 80 4a 00
        E 0 80 56 00
        E 0 80 62 00
        E 360 90 1a 60
        E 0 90 1f 60
        E 0 90 3d 60
        E 0 90 3e 60
        E 0 90 49 60
        E 0 90 4a 60
        E 0 90 55 60
        E 0 90 56 60
        E 0 90 61 60
        E 0 90 62 60
        E 120 80 1a 00
        E 0 80 1f 00
        E 0 80 3d 00
        E 0 80 3e 00
        E 0 80 49 00
        E 0 80 4a 00
        E 0 80 55 00
        E 0 80 56 00
        E 0 80 61 00
        E 0 80 62 00
        E 360 90 1f 60
        E 0 90 3e 60
        E 0 90 4a 60
        E 0 90 56 60
        E 0 90 62 60
        E 120 80 1f 00
        E 0 80 3e 00
        E 0 80 4a 00
        E 0 80 56 00
        E 0 80 62 00
        E 120 90 18 60
        E 0 90 54 60
        E 0 90 60 60
        E 120 80 18 00
        E 0 80 54 00
        E 0 80 60 00
        E 120 90 18 60
        E 0 90 1f 60
        E 0 90 3e 60
        E 0 90 48 60
        E 0 90 4a 60
        E 0 90 54 60
        E 0 90 56 60
        E 0 90 60 60
        E 0 90 62 60
        E 120 80 18 00
        E 0 80 1f 00
        E 0 80 3e 00
        E 0 80 48 00
        E 0 80 4a 00
        E 0 80 54 00
        E 0 80 56 00
        E 0 80 60 00
        E 0 80 62 00
        E 360 90 1f 60
        E 0 90 3e 60
        E 0 90 4a 60
        E 0 90 56 60
        E 0 90 62 60
        E 120 80 1f 00
        E 0 80 3e 00
        E 0 80 4a 00
        E 0 80 56 00
        E 0 80 62 00
        E 120 90 18 60
        E 0 90 54 60
        E 0 90 60 60
        E 120 80 18 00
        E 0 80 54 00
        E 0 80 60 00
        E 120 90 1a 60
        E 0 90 1f 60
        E 0 90 3d 60
        E 0 90 3e 60
        E 0 90 49 60
        E 0 90 4a 60
        E 0 90 55 60
        E 0 90 56 60
        E 0 90 61 60
        E 0 90 62 60
        E 120 80 1a 00
        E 0 80 1f 00
        E 0 80 3d 00
        E 0 80 3e 00
        E 0 80 49 00
        E 0 80 4a 00
        E 0 80 55 00
        E 0 80 56 00
        E 0 80 61 00
        E 0 80 62 00
        E 360 90 1f 60
        E 0 90 3e 60
        E 0 90 4a 60
        E 0 90 56 60
        E 0 90 62 60
        E 120 80 1f 00
        E 0 80 3e 00
        E 0 80 4a 00
        E 0 80 56 00
        E 0 80 62 00
        E 120 90 18 60
        E 0 90 54 60
        E 0 90 60 60
        E 120 80 18 00
        E 0 80 54 00
        E 0 80 60 00
        E 120 90 18 60
        E 0 90 1f 60
        E 0 90 3e 60
        E 0 90 48 60
        E 0 90 4a 60
        E 0 90 54 60
        E 0 90 56 60
        E 0 90 60 60
        E 0 90 62 60
        E 120 80 18 00
        E 0 80 1f 00
        E 0 80 3e 00
        E 0 80 48 00
        E 0 80 4a 00
        E 0 80 54 00
        E 0 80 56 00
        E 0 80 60 00
        E 0 80 62 00
        E 360 90 1f 60
        E 0 90 3e 60
        E 0 90 4a 60
        E 0 90 56 60
        E 0 90 62 60
        E 120 80 1f 00
        E 0 80 3e 00
        E 0 80 4a 00
        E 0 80 56 00
        E 0 80 62 00
        E 120 90 18 60
        E 0 90 54 60
        E 0 90 60 60
        E 120 80 18 00
        E 0 80 54 00
        E 0 80 60 00
        E 120 90 1a 60
        E 0 90 1f 60
        E 0 90 3d 60
        E 0 90 3e 60
        E 0 90 49 60
        E 0 90 4a 60
        E 0 90 55 60
        E 0 90 56 60
        E 0 90 61 60
        E 0 90 62 60
        E 120 80 1a 00
        E 0 80 1f 00
        E 0 80 3d 00
        E 0 80 3e 00
        E 0 80 49 00
        E 0 80 4a 00
        E 0 80 55 00
        E 0 80 56 00
        E 0 80 61 00
        E 0 80 62 00
        E 360 90 1f 60
        E 0 90 3e 60
        E 0 90 4a 60
        E 0 90 56 60
        E 0 90 62 60
        E 120 80 1f 00
        E 0 80 3e 00
        E 0 80 4a 00
        E 0 80 56 00
        E 0 80 62 00
        E 120 90 18 60
        E 0 90 54 60
        E 0 90 60 60
        E 120 80 18 00
        E 0 80 54 00
        E 0 80 60 00
        E 120 90 18 60
        E 0 90 1f 60
        E 0 90 3e 60
        E 0 90 48 60
        E 0 90 4a 60
        E 0 90 54 60
        E 0 90 56 60
        E 0 90 60 60
        E 0 90 62 60
        E 0 90 78 60
        E 0 90 79 60
        E 0 90 7a 60
        E 0 90 7b 60
        E 0 90 7c 60
        E 120 80 18 00
        E 0 80 1f 00
        E 0 80 3e 00
        E 0 80 48 00
        E 0 80 4a 00
        E 0 80 54 00
        E 0 80 56 00
        E 0 80 60 00
        E 0 80 62 00
        E 120 90 1a 60
        E 0 90 55 60
        E 0 90 61 60
        E 120 80 1a 00
        E 0 80 55 00
        E 0 80 61 00
        E 120 90 1f 60
        E 0 90 3e 60
        E 0 90 4a 60
        E 0 90 56 60
        E 0 90 62 60
        E 120 80 1f 00
        E 0 80 3e 00
        E 0 80 4a 00
        E 0 80 56 00
        E 0 80 62 00
        E 120 90 18 60
        E 0 90 54 60
        E 0 90 60 60
        E 120 80 18 00
        E 0 80 54 00
        E 0 80 60 00
        E 120 90 1a 60
        E 0 90 1f 60
        E 0 90 3d 60
        E 0 90 3e 60
        E 0 90 49 60
        E 0 90 4a 60
        E 0 90 55 60
        E 0 90 56 60
        E 0 90 61 60
        E 0 90 62 60
        E 120 80 1a 00
        E 0 80 1f 00
        E 0 80 3d 00
        E 0 80 3e 00
        E 0 80 49 00
        E 0 80 4a 00
        E 0 80 55 00
        E 0 80 56 00
        E 0 80 61 00
        E 0 80 62 00
        E 360 90 1a 60
        E 0 90 3d 60
        E 0 90 49 60
        E 0 90 55 60
        E 0 90 61 60
        E 120 80 1a 00
        E 0 80 3d 00
        E 0 80 49 00
        E 0 80 55 00
        E 0 80 61 00
        E 120 90 1a 60
        E 0 90 55 60
        E 0 90 61 60
        E 120 80 1a 00
        E 0 80 55 00
        E 0 80 61 00
        E 120 80 78 00
        E 0 80 79 00
        E 0 80 7a 00
        E 0 80 7b 00
        E 0 80 7c 00
        E 0 90 18 60
        E 0 90 1f 60
        E 0 90 3e 60
        E 0 90 48 60
        E 0 90 4a 60
        E 0 90 54 60
        E 0 90 56 60
        E 0 90 60 60
        E 0 90 62 60
        E 120 80 18 00
        E 0 80 1f 00
        E 0 80 3e 00
        E 0 80 48 00
        E 0 80 4a 00
        E 0 80 54 00
        E 0 80 56 00
        E 0 80 60 00
        E 0 80 62 00
        E 360 90 1f 60
        E 0 90 3e 60
        E 0 90 4a 60
        E 0 90 56 60
        E 0 90 62 60
        E 120 80 1f 00
        E 0 80 3e 00
        E 0 80 4a 00
        E 0 80 56 00
        E 0 80 62 00
        E 360 90 1a 60
        E 0 90 1f 60
        E 0 90 3d 60
        E 0 90 3e 60
        E 0 90 49 60
        E 0 90 4a 60
        E 0 90 55 60
        E 0 90 56 60
        E 0 90 61 60
        E 0 90 62 60
        E 120 80 1a 00
        E 0 80 1f 00
        E 0 80 3d 00
        E 0 80 3e 00
        E 0 80 49 00
        E 0 80 4a 00
        E 0 80 55 00
        E 0 80 56 00
        E 0 80 61 00
        E 0 80 62 00
        E 360 90 1f 60
        E 0 90 3e 60
        E 0 90 4a 60
        E 0 90 56 60
        E 0 90 62 60
        E 120 80 1f 00
        E 0 80 3e 00
        E 0 80 4a 00
        E 0 80 56 00
        E 0 80 62 00
        E 120 90 18 60
        E 0 90 54 60
        E 0 90 60 60
        E 120 80 18 00
        E 0 80 54 00
        E 0 80 60 00
        E 120 90 18 60
        E 0 90 1f 60
        E 0 90 3e 60
        E 0 90 48 60
        E 0 90 4a 60
        E 0 90 54 60
        E 0 90 56 60
        E 0 90 60 60
        E 0 90 62 60
        E 0 90 74 60
        E 120 80 18 00
        E 0 80 1f 00
        E 0 80 3e 00
        E 0 80 48 00
        E 0 80 4a 00
        E 0 80 54 00
        E 0 80 56 00
        E 0 80 60 00
        E 0 80 62 00
        E 360 90 18 60
        E 0 90 1f 60
        E 0 90 3e 60
        E 0 90 48 60
        E 0 90 4a 60
        E 0 90 54 60
        E 0 90 56 60
        E 0 90 60 60
        E 0 90 62 60
        E 120 80 18 00
        E 0 80 1f 00
        E 0 80 3e 00
        E 0 80 48 00
        E 0 80 4a 00
        E 0 80 54 00
        E 0 80 56 00
        E 0 80 60 00
        E 0 80 62 00
        E 360 90 1a 60
        E 0 90 1f 60
        E 0 90 3d 60
        E 0 90 3e 60
        E 0 90 49 60
        E 0 90 4a 60
        E 0 90 55 60
        E 0 90 56 60
        E 0 90 61 60
        E 0 90 62 60
        E 120 80 1a 00
        E 0 80 1f 00
        E 0 80 3d 00
        E 0 80 3e 00
        E 0 80 49 00
        E 0 80 4a 00
        E 0 80 55 00
        E 0 80 56 00
        E 0 80 61 00
        E 0 80 62 00
        E 360 90 1f 60
        E 0 90 3e 60
        E 0 90 4a 60
        E 0 90 56 60
        E 0 90 62 60
        E 120 80 1f 00
        E 0 80 3e 00
        E 0 80 4a 00
        E 0 80 56 00
        E 0 80 62 00
        E 120 90 18 60
        E 0 90 54 60
        E 0 90 60 60
        E 120 80 18 00
        E 0 80 54 00
        E 0 80 60 00
        E 120 80 74 00
        E 0 90 18 60
        E 0 90 1f 60
        E 0 90 3e 60
        E 0 90 48 60
        E 0 90 4a 60
        E 0 90 54 60
        E 0 90 56 60
        E 0 90 60 60
        E 0 90 62 60
        E 120 80 18 00
        E 0 80 1f 00
        E 0 80 3e 00
        E 0 80 48 00
        E 0 80 4a 00
        E 0 80 54 00
        E 0 80 56 00
        E 0 80 60 00
        E 0 80 62 00
        E 360 90 1f 60
        E 0 90 3e 60
        E 0 90 4a 60
        E 0 90 56 60
        E 0 90 62 60
        E 120 80 1f 00
        E 0 80 3e 00
        E 0 80 4a 00
        E 0 80 56 00
        E 0 80 62 00
        E 120 90 18 60
        E 0 90 54 60
        E 0 90 60 60
        E 120 80 18 00
        E 0 80 54 00
        E 0 80 60 00
        E 120 90 1a 60
        E 0 90 1f 60
        E 0 90 3d 60
        E 0 90 3e 60
        E 0 90 49 60
        E 0 90 4a 60
        E 0 90 55 60
        E 0 90 56 60
        E 0 90 61 60
        E 0 90 62 60
        E 120 80 1a 00
        E 0 80 1f 00
        E 0 80 3d 00
        E 0 80 3e 00
        E 0 80 49 00
        E 0 80 4a 00
        E 0 80 55 00
        E 0 80 56 00
        E 0 80 61 00
        E 0 80 62 00
        E 360 90 1f 60
        E 0 90 3e 60
        E 0 90 4a 60
        E 0 90 56 60
        E 0 90 62 60
        E 120 80 1f 00
        E 0 80 3e 00
        E 0 80 4a 00
        E 0 80 56 00
        E 0 80 62 00
        E 120 90 18 60
        E 0 90 54 60
        E 0 90 60 60
        E 120 80 18 00
        E 0 80 54 00
        E 0 80 60 00
        E 120 90 18 60
        E 0 90 1f 60
        E 0 90 3e 60
        E 0 90 48 60
        E 0 90 4a 60
        E 0 90 54 60
        E 0 90 56 60
        E 0 90 60 60
        E 0 90 62 60
        E 0 90 78 60
        E 0 90 79 60
        E 0 90 7a 60
        E 0 90 7b 60
        E 0 90 7c 60
        E 120 80 18 00
        E 0 80 1f 00
        E 0 80 3e 00
        E 0 80 48 00
        E 0 80 4a 00
        E 0 80 54 00
        E 0 80 56 00
        E 0 80 60 00
        E 0 80 62 00
        E 360 90 1f 60
        E 0 90 3e 60
        E 0 90 4a 60
        E 0 90 56 60
        E 0 90 62 60
        E 120 80 1f 00
        E 0 80 3e 00
        E 0 80 4a 00
        E 0 80 56 00
        E 0 80 62 00
        E 120 90 18 60
        E 0 90 54 60
        E 0 90 60 60
        E 120 80 18 00
        E 0 80 54 00
        E 0 80 60 00
        E 120 90 1a 60
        E 0 90 1f 60
        E 0 90 3d 60
        E 0 90 3e 60
        E 0 90 49 60
        E 0 90 4a 60
        E 0 90 55 60
        E 0 90 56 60
        E 0 90 61 60
        E 0 90 62 60
        E 120 80 1a 00
        E 0 80 1f 00
        E 0 80 3d 00
        E 0 80 3e 00
        E 0 80 49 00
        E 0 80 4a 00
        E 0 80 55 00
        E 0 80 56 00
        E 0 80 61 00
        E 0 80 62 00
        E 360 90 1f 60
        E 0 90 3e 60
        E 0 90 4a 60
        E 0 90 56 60
        E 0 90 62 60
        E 120 80 1f 00
        E 0 80 3e 00
        E 0 80 4a 00
        E 0 80 56 00
        E 0 80 62 00
        E 120 90 18 60
        E 0 90 54 60
        E 0 90 60 60
        E 120 80 18 00
        E 0 80 54 00
        E 0 80 60 00
        E 120 80 78 00
        E 0 80 79 00
        E 0 80 7a 00
        E 0 80 7b 00
        E 0 80 7c 00
        E 0 90 18 60
        E 0 90 1f 60
        E 0 90 3e 60
        E 0 90 48 60
        E 0 90 4a 60
        E 0 90 54 60
        E 0 90 56 60
        E 0 90 60 60
        E 0 90 62 60
        E 120 80 18 00
        E 0 80 1f 00
        E 0 80 3e 00
        E 0 80 48 00
        E 0 80 4a 00
        E 0 80 54 00
        E 0 80 56 00
        E 0 80 60 00
        E 0 80 62 00
        E 360 90 1f 60
        E 0 90 3e 60
        E 0 90 4a 60
        E 0 90 56 60
        E 0 90 62 60
        E 120 80 1f 00
        E 0 80 3e 00
        E 0 80 4a 00
        E 0 80 56 00
        E 0 80 62 00
        E 120 90 18 60
        E 0 90 54 60
        E 0 90 60 60
        E 120 80 18 00
        E 0 80 54 00
        E 0 80 60 00
        E 120 90 1a 60
        E 0 90 1f 60
        E 0 90 3d 60
        E 0 90 3e 60
        E 0 90 49 60
        E 0 90 4a 60
        E 0 90 55 60
        E 0 90 56 60
        E 0 90 61 60
        E 0 90 62 60
        E 120 80 1a 00
        E 0 80 1f 00
        E 0 80 3d 00
        E 0 80 3e 00
        E 0 80 49 00
        E 0 80 4a 00
        E 0 80 55 00
        E 0 80 56 00
        E 0 80 61 00
        E 0 80 62 00
        E 360 90 1f 60
        E 0 90 3e 60
        E 0 90 4a 60
        E 0 90 56 60
        E 0 90 62 60
        E 120 80 1f 00
        E 0 80 3e 00
        E 0 80 4a 00
        E 0 80 56 00
        E 0 80 62 00
        E 120 90 18 60
        E 0 90 54 60
        E 0 90 60 60
        E 120 80 18 00
        E 0 80 54 00
        E 0 80 60 00
        E 120 90 18 60
        E 0 90 1f 60
        E 0 90 3e 60
        E 0 90 48 60
        E 0 90 4a 60
        E 0 90 54 60
        E 0 90 56 60
        E 0 90 60 60
        E 0 90 62 60
        E 120 80 18 00
        E 0 80 1f 00
        E 0 80 3e 00
        E 0 80 48 00
        E 0 80 4a 00
        E 0 80 54 00
        E 0 80 56 00
        E 0 80 60 00
        E 0 80 62 00
        E 360 90 1f 60
        E 0 90 3e 60
        E 0 90 4a 60
        E 0 90 56 60
        E 0 90 62 60
        E 120 80 1f 00
        E 0 80 3e 00
        E 0 80 4a 00
        E 0 80 56 00
        E 0 80 62 00
        E 120 90 18 60
        E 0 90 54 60
        E 0 90 60 60
        E 120 80 18 00
        E 0 80 54 00
        E 0 80 60 00
        E 120 90 1a 60
        E 0 90 1f 60
        E 0 90 3d 60
        E 0 90 3e 60
        E 0 90 49 60
        E 0 90 4a 60
        E 0 90 55 60
        E 0 90 56 60
        E 0 90 61 60
        E 0 90 62 60
        E 120 80 1a 00
        E 0 80 1f 00
        E 0 80 3d 00
        E 0 80 3e 00
        E 0 80 49 00
        E 0 80 4a 00
        E 0 80 55 00
        E 0 80 56 00
        E 0 80 61 00
        E 0 80 62 00
        E 360 90 1f 60
        E 0 90 3e 60
        E 0 90 4a 60
        E 0 90 56 60
        E 0 90 62 60
        E 120 80 1f 00
        E 0 80 3e 00
        E 0 80 4a 00
        E 0 80 56 00
        E 0 80 62 00
        E 120 90 18 60
        E 0 90 54 60
        E 0 90 60 60
        E 120 80 18 00
        E 0 80 54 00
        E 0 80 60 00
        E 120 90 18 60
        E 0 90 1f 60
        E 0 90 3e 60
        E 0 90 48 60
        E 0 90 4a 60
        E 0 90 54 60
        E 0 90 56 60
        E 0 90 60 60
        E 0 90 62 60
        E 120 80 18 00
        E 0 80 1f 00
        E 0 80 3e 00
        E 0 80 48 00
        E 0 80 4a 00
        E 0 80 54 00
        E 0 80 56 00
        E 0 80 60 00
        E 0 80 62 00
        E 360 90 1f 60
        E 0 90 3e 60
        E 0 90 4a 60
        E 0 90 56 60
        E 0 90 62 60
        E 120 80 1f 00
        E 0 80 3e 00
        E 0 80 4a 00
        E 0 80 56 00
        E 0 80 62 00
        E 120 90 18 60
        E 0 90 54 60
        E 0 90 60 60
        E 120 80 18 00
        E 0 80 54 00
        E 0 80 60 00
        E 120 90 1a 60
        E 0 90 1f 60
        E 0 90 3d 60
        E 0 90 3e 60
        E 0 90 49 60
        E 0 90 4a 60
        E 0 90 55 60
        E 0 90 56 60
        E 0 90 61 60
        E 0 90 62 60
        E 120 80 1a 00
        E 0 80 1f 00
        E 0 80 3d 00
        E 0 80 3e 00
        E 0 80 49 00
        E 0 80 4a 00
        E 0 80 55 00
        E 0 80 56 00
        E 0 80 61 00
        E 0 80 62 00
        E 360 90 1f 60
        E 0 90 3e 60
        E 0 90 4a 60
        E 0 90 56 60
        E 0 90 62 60
        E 120 80 1f 00
        E 0 80 3e 00
        E 0 80 4a 00
        E 0 80 56 00
        E 0 80 62 00
        E 120 90 18 60
        E 0 90 54 60
        E 0 90 60 60
        E 120 80 18 00
        E 0 80 54 00
        E 0 80 60 00
        E 120 90 18 60
        E 0 90 1f 60
        E 0 90 3e 60
        E 0 90 48 60
        E 0 90 4a 60
        E 0 90 54 60
        E 0 90 56 60
        E 0 90 60 60
        E 0 90 62 60
        E 0 90 78 60
        E 0 90 79 60
        E 0 90 7a 60
        E 0 90 7b 60
        E 0 90 7c 60
        E 120 80 18 00
        E 0 80 1f 00
        E 0 80 3e 00
        E 0 80 48 00
        E 0 80 4a 00
        E 0 80 54 00
        E 0 80 56 00
        E 0 80 60 00
        E 0 80 62 00
        E 360 90 1f 60
        E 0 90 3e 60
        E 0 90 4a 60
        E 0 90 56 60
        E 0 90 62 60
        E 120 80 1f 00
        E 0 80 3e 00
        E 0 80 4a 00
        E 0 80 56 00
        E 0 80 62 00
        E 120 90 18 60
        E 0 90 54 60
        E 0 90 60 60
        E 120 80 18 00
        E 0 80 54 00
        E 0 80 60 00
        E 120 90 1a 60
        E 0 90 1f 60
        E 0 90 3d 60
        E 0 90 3e 60
        E 0 90 49 60
        E 0 90 4a 60
        E 0 90 55 60
        E 0 90 56 60
        E 0 90 61 60
        E 0 90 62 60
        E 120 80 1a 00
        E 0 80 1f 00
        E 0 80 3d 00
        E 0 80 3e 00
        E 0 80 49 00
        E 0 80 4a 00
        E 0 80 55 00
        E 0 80 56 00
        E 0 80 61 00
        E 0 80 62 00
        E 120 90 18 60
        E 0 90 54 60
        E 0 90 60 60
        E 120 80 18 00
        E 0 80 54 00
        E 0 80 60 00
        E 120 90 1a 60
        E 0 90 3d 60
        E 0 90 49 60
        E 0 90 55 60
        E 0 90 61 60
        E 120 80 1a 00
        E 0 80 3d 00
        E 0 80 49 00
        E 0 80 55 00
        E 0 80 61 00
        E 120 90 1a 60
        E 0 90 55 60
        E 0 90 61 60
        E 120 80 1a 00
        E 0 80 55 00
        E 0 80 61 00
        E 120 80 78 00
        E 0 80 79 00
        E 0 80 7a 00
        E 0 80 7b 00
        E 0 80 7c 00
        E 0 90 18 60
        E 0 90 1f 60
        E 0 90 3e 60
        E 0 90 48 60
        E 0 90 4a 60
        E 0 90 54 60
        E 0 90 56 60
        E 0 90 60 60
        E 0 90 62 60
        E 120 80 18 00
        E 0 80 1f 00
        E 0 80 3e 00
        E 0 80 48 00
        E 0 80 4a 00
        E 0 80 54 00
        E 0 80 56 00
        E 0 80 60 00
        E 0 80 62 00
        E 360 90 1f 60
        E 0 90 3e 60
        E 0 90 4a 60
        E 0 90 56 60
        E 0 90 62 60
        E 120 80 1f 00
        E 0 80 3e 00
        E 0 80 4a 00
        E 0 80 56 00
        E 0 80 62 00
        E 120 90 18 60
        E 0 90 54 60
        E 0 90 60 60
        E 120 80 18 00
        E 0 80 54 00
        E 0 80 60 00
        E 120 90 1a 60
        E 0 90 1f 60
        E 0 90 3d 60
        E 0 90 3e 60
        E 0 90 49 60
        E 0 90 4a 60
        E 0 90 55 60
        E 0 90 56 60
        E 0 90 61 60
        E 0 90 62 60
        E 120 80 1a 00
        E 0 80 1f 00
        E 0 80 3d 00
        E 0 80 3e 00
        E 0 80 49 00
        E 0 80 4a 00
        E 0 80 55 00
        E 0 80 56 00
        E 0 80 61 00
        E 0 80 62 00
        E 360 90 1f 60
        E 0 90 3e 60
        E 0 90 4a 60
        E 0 90 56 60
        E 0 90 62 60
        E 120 80 1f 00
        E 0 80 3e 00
        E 0 80 4a 00
        E 0 80 56 00
        E 0 80 62 00
        E 120 90 18 60
        E 0 90 54 60
        E 0 90 60 60
        E 120 80 18 00
        E 0 80 54 00
        E 0 80 60 00
        E 120 90 18 60
        E 0 90 1f 60
        E 0 90 3e 60
        E 0 90 48 60
        E 0 90 4a 60
        E 0 90 54 60
        E 0 90 56 60
        E 0 90 60 60
        E 0 90 62 60
        E 120 80 18 00
        E 0 80 1f 00
        E 0 80 3e 00
        E 0 80 48 00
        E 0 80 4a 00
        E 0 80 54 00
        E 0 80 56 00
        E 0 80 60 00
        E 0 80 62 00
        E 360 90 18 60
        E 0 90 1f 60
        E 0 90 3e 60
        E 0 90 48 60
        E 0 90 4a 60
        E 0 90 54 60
        E 0 90 56 60
        E 0 90 60 60
        E 0 90 62 60
        E 120 80 18 00
        E 0 80 1f 00
        E 0 80 3e 00
        E 0 80 48 00
        E 0 80 4a 00
        E 0 80 54 00
        E 0 80 56 00
        E 0 80 60 00
        E 0 80 62 00
        E 360 90 1a 60
        E 0 90 1f 60
        E 0 90 3d 60
        E 0 90 3e 60
        E 0 90 49 60
        E 0 90 4a 60
        E 0 90 55 60
        E 0 90 56 60
        E 0 90 61 60
        E 0 90 62 60
        E 120 80 1a 00
        E 0 80 1f 00
        E 0 80 3d 00
        E 0 80 3e 00
        E 0 80 49 00
        E 0 80 4a 00
        E 0 80 55 00
        E 0 80 56 00
        E 0 80 61 00
        E 0 80 62 00
        E 360 90 1f 60
        E 0 90 3e 60
        E 0 90 4a 60
        E 0 90 56 60
        E 0 90 62 60
        E 120 80 1f 00
        E 0 80 3e 00
        E 0 80 4a 00
        E 0 80 56 00
        E 0 80 62 00
        E 120 90 18 60
        E 0 90 54 60
        E 0 90 60 60
        E 120 80 18 00
        E 0 80 54 00
        E 0 80 60 00
        E 120 90 18 60
        E 0 90 1f 60
        E 0 90 3e 60
        E 0 90 48 60
        E 0 90 4a 60
        E 0 90 54 60
        E 0 90 56 60
        E 0 90 60 60
        E 0 90 62 60
        E 120 80 18 00
        E 0 80 1f 00
        E 0 80 3e 00
        E 0 80 48 00
        E 0 80 4a 00
        E 0 80 54 00
        E 0 80 56 00
        E 0 80 60 00
        E 0 80 62 00
        E 360 90 1f 60
        E 0 90 3e 60
        E 0 90 4a 60
        E 0 90 56 60
        E 0 90 62 60
        E 120 80 1f 00
        E 0 80 3e 00
        E 0 80 4a 00
        E 0 80 56 00
        E 0 80 62 00
        E 120 90 18 60
        E 0 90 54 60
        E 0 90 60 60
        E 120 80 18 00
        E 0 80 54 00
        E 0 80 60 00
        E 120 90 1a 60
        E 0 90 1f 60
        E 0 90 3d 60
        E 0 90 3e 60
        E 0 90 49 60
        E 0 90 4a 60
        E 0 90 55 60
        E 0 90 56 60
        E 0 90 61 60
        E 0 90 62 60
        E 120 80 1a 00
        E 0 80 1f 00
        E 0 80 3d 00
        E 0 80 3e 00
        E 0 80 49 00
        E 0 80 4a 00
        E 0 80 55 00
        E 0 80 56 00
        E 0 80 61 00
        E 0 80 62 00
        E 360 90 1f 60
        E 0 90 3e 60
        E 0 90 4a 60
        E 0 90 56 60
        E 0 90 62 60
        E 120 80 1f 00
        E 0 80 3e 00
        E 0 80 4a 00
        E 0 80 56 00
        E 0 80 62 00
        E 120 90 18 60
        E 0 90 54 60
        E 0 90 60 60
        E 120 80 18 00
        E 0 80 54 00
        E 0 80 60 00
        E 120 90 18 60
        E 0 90 1f 60
        E 0 90 3e 60
        E 0 90 48 60
        E 0 90 4a 60
        E 0 90 54 60
        E 0 90 56 60
        E 0 90 60 60
        E 0 90 62 60
        E 120 80 18 00
        E 0 80 1f 00
        E 0 80 3e 00
        E 0 80 48 00
        E 0 80 4a 00
        E 0 80 54 00
        E 0 80 56 00
        E 0 80 60 00
        E 0 80 62 00
        E 120 90 1a 60
        E 0 90 55 60
        E 0 90 61 60
        E 120 80 1a 00
        E 0 80 55 00
        E 0 80 61 00
        E 120 90 1f 60
        E 0 90 3e 60
        E 0 90 4a 60
        E 0 90 56 60
        E 0 90 62 60
        E 120 80 1f 00
        E 0 80 3e 00
        E 0 80 4a 00
        E 0 80 56 00
        E 0 80 62 00
        E 120 90 18 60
        E 0 90 54 60
        E 0 90 60 60
        E 120 80 18 00
        E 0 80 54 00
        E 0 80 60 00
        E 120 90 1a 60
        E 0 90 1f 60
        E 0 90 3d 60
        E 0 90 3e 60
        E 0 90 49 60
        E 0 90 4a 60
        E 0 90 55 60
        E 0 90 56 60
        E 0 90 61 60
        E 0 90 62 60
        E 120 80 1a 00
        E 0 80 1f 00
        E 0 80 3d 00
        E 0 80 3e 00
        E 0 80 49 00
        E 0 80 4a 00
        E 0 80 55 00
        E 0 80 56 00
        E 0 80 61 00
        E 0 80 62 00
        E 360 90 1f 60
        E 0 90 3e 60
        E 0 90 4a 60
        E 0 90 56 60
        E 0 90 62 60
        E 120 80 1f 00
        E 0 80 3e 00
        E 0 80 4a 00
        E 0 80 56 00
        E 0 80 62 00
        E 120 90 18 60
        E 0 90 54 60
        E 0 90 60 60
        E 120 80 18 00
        E 0 80 54 00
        E 0 80 60 00
        E 120 90 18 60
        E 0 90 1f 60
        E 0 90 3e 60
        E 0 90 48 60
        E 0 90 4a 60
        E 0 90 54 60
        E 0 90 56 60
        E 0 90 60 60
        E 0 90 62 60
        E 120 80 18 00
        E 0 80 1f 00
        E 0 80 3e 00
        E 0 80 48 00
        E 0 80 4a 00
        E 0 80 54 00
        E 0 80 56 00
        E 0 80 60 00
        E 0 80 62 00
        E 360 90 1f 60
        E 0 90 3e 60
        E 0 90 4a 60
        E 0 90 56 60
        E 0 90 62 60
        E 120 80 1f 00
        E 0 80 3e 00
        E 0 80 4a 00
        E 0 80 56 00
        E 0 80 62 00
        E 120 90 18 60
        E 0 90 54 60
        E 0 90 60 60
        E 120 80 18 00
        E 0 80 54 00
        E 0 80 60 00
        E 120 90 1a 60
        E 0 90 1f 60
        E 0 90 3d 60
        E 0 90 3e 60
        E 0 90 49 60
        E 0 90 4a 60
        E 0 90 55 60
        E 0 90 56 60
        E 0 90 61 60
        E 0 90 62 60
        E 120 80 1a 00
        E 0 80 1f 00
        E 0 80 3d 00
        E 0 80 3e 00
        E 0 80 49 00
        E 0 80 4a 00
        E 0 80 55 00
        E 0 80 56 00
        E 0 80 61 00
        E 0 80 62 00
        E 360 90 1f 60
        E 0 90 3e 60
        E 0 90 4a 60
        E 0 90 56 60
        E 0 90 62 60
        E 120 80 1f 00
        E 0 80 3e 00
        E 0 80 4a 00
        E 0 80 56 00
        E 0 80 62 00
        E 120 90 18 60
        E 0 90 54 60
        E 0 90 60 60
        E 120 80 18 00
        E 0 80 54 00
        E 0 80 60 00
        E 120 90 18 60
        E 0 90 1f 60
        E 0 90 3e 60
        E 0 90 48 60
        E 0 90 4a 60
        E 0 90 54 60
        E 0 90 56 60
        E 0 90 60 60
        E 0 90 62 60
        E 120 80 18 00
        E 0 80 1f 00
        E 0 80 3e 00
        E 0 80 48 00
        E 0 80 4a 00
        E 0 80 54 00
        E 0 80 56 00
        E 0 80 60 00
        E 0 80 62 00
        E 360 90 1f 60
        E 0 90 3e 60
        E 0 90 4a 60
        E 0 90 56 60
        E 0 90 62 60
        E 120 80 1f 00
        E 0 80 3e 00
        E 0 80 4a 00
        E 0 80 56 00
        E 0 80 62 00
        E 120 90 18 60
        E 0 90 54 60
        E 0 90 60 60
        E 120 80 18 00
        E 0 80 54 00
        E 0 80 60 00
        E 120 90 1a 60
        E 0 90 1f 60
        E 0 90 3d 60
        E 0 90 3e 60
        E 0 90 49 60
        E 0 90 4a 60
        E 0 90 55 60
        E 0 90 56 60
        E 0 90 61 60
        E 0 90 62 60
        E 120 80 1a 00
        E 0 80 1f 00
        E 0 80 3d 00
        E 0 80 3e 00
        E 0 80 49 00
        E 0 80 4a 00
        E 0 80 55 00
        E 0 80 56 00
        E 0 80 61 00
        E 0 80 62 00
        E 360 90 1f 60
        E 0 90 3e 60
        E 0 90 4a 60
        E 0 90 56 60
        E 0 90 62 60
        E 120 80 1f 00
        E 0 80 3e 00
        E 0 80 4a 00
        E 0 80 56 00
        E 0 80 62 00
        E 120 90 18 60
        E 0 90 54 60
        E 0 90 60 60
        E 120 80 18 00
        E 0 80 54 00
        E 0 80 60 00
        E 120 90 18 60
        E 0 90 1f 60
        E 0 90 3e 60
        E 0 90 48 60
        E 0 90 4a 60
        E 0 90 54 60
        E 0 90 56 60
        E 0 90 60 60
        E 0 90 62 60
        E 120 80 18 00
        E 0 80 1f 00
        E 0 80 3e 00
        E 0 80 48 00
        E 0 80 4a 00
        E 0 80 54 00
        E 0 80 56 00
        E 0 80 60 00
        E 0 80 62 00
        E 360 90 1f 60
        E 0 90 3e 60
        E 0 90 4a 60
        E 0 90 56 60
        E 0 90 62 60
        E 120 80 1f 00
        E 0 80 3e 00
        E 0 80 4a 00
        E 0 80 56 00
        E 0 80 62 00
        E 120 90 18 60
        E 0 90 54 60
        E 0 90 60 60
        E 120 80 18 00
        E 0 80 54 00
        E 0 80 60 00
        E 120 90 1a 60
        E 0 90 1f 60
        E 0 90 3d 60
        E 0 90 3e 60
        E 0 90 49 60
        E 0 90 4a 60
        E 0 90 55 60
        E 0 90 56 60
        E 0 90 61 60
        E 0 90 62 60
        E 120 80 1a 00
        E 0 80 1f 00
        E 0 80 3d 00
        E 0 80 3e 00
        E 0 80 49 00
        E 0 80 4a 00
        E 0 80 55 00
        E 0 80 56 00
        E 0 80 61 00
        E 0 80 62 00
        E 360 90 1f 60
        E 0 90 3e 60
        E 0 90 4a 60
        E 0 90 56 60
        E 0 90 62 60
        E 120 80 1f 00
        E 0 80 3e 00
        E 0 80 4a 00
        E 0 80 56 00
        E 0 80 62 00
        E 120 90 18 60
        E 0 90 54 60
        E 0 90 60 60
        E 120 80 18 00
        E 0 80 54 00
        E 0 80 60 00
        E 120 90 18 60
        E 0 90 1f 60
        E 0 90 3e 60
        E 0 90 48 60
        E 0 90 4a 60
        E 0 90 54 60
        E 0 90 56 60
        E 0 90 60 60
        E 0 90 62 60
        E 0 90 78 60
        E 0 90 79 60
        E 0 90 7a 60
        E 0 90 7b 60
        E 0 90 7c 60
        E 120 80 18 00
        E 0 80 1f 00
        E 0 80 3e 00
        E 0 80 48 00
        E 0 80 4a 00
        E 0 80 54 00
        E 0 80 56 00
        E 0 80 60 00
        E 0 80 62 00
        E 120 90 1a 60
        E 0 90 55 60
        E 0 90 61 60
        E 120 80 1a 00
        E 0 80 55 00
        E 0 80 61 00
        E 120 90 1f 60
        E 0 90 3e 60
        E 0 90 4a 60
        E 0 90 56 60
        E 0 90 62 60
        E 120 80 1f 00
        E 0 80 3e 00
        E 0 80 4a 00
        E 0 80 56 00
        E 0 80 62 00
        E 120 90 18 60
        E 0 90 54 60
        E 0 90 60 60
        E 120 80 18 00
        E 0 80 54 00
        E 0 80 60 00
        E 120 90 1a 60
        E 0 90 1f 60
        E 0 90 3d 60
        E 0 90 3e 60
        E 0 90 49 60
        E 0 90 4a 60
        E 0 90 55 60
        E 0 90 56 60
        E 0 90 61 60
        E 0 90 62 60
        E 120 80 1a 00
        E 0 80 1f 00
        E 0 80 3d 00
        E 0 80 3e 00
        E 0 80 49 00
        E 0 80 4a 00
        E 0 80 55 00
        E 0 80 56 00
        E 0 80 61 00
        E 0 80 62 00
        E 120 90 1a 60
        E 0 90 55 60
        E 0 90 61 60
        E 120 80 1a 00
        E 0 80 55 00
        E 0 80 61 00
        E 120 90 1a 60
        E 0 90 3d 60
        E 0 90 49 60
        E 0 90 55 60
        E 0 90 61 60
        E 120 80 1a 00
        E 0 80 3d 00
        E 0 80 49 00
        E 0 80 55 00
        E 0 80 61 00
        E 120 90 18 60
        E 0 90 19 60
        E 0 90 54 60
        E 0 90 60 60
        E 120 80 18 00
        E 0 80 54 00
        E 0 80 60 00
        <X 120 0
          /wFbcGxheV0=
        >
        E 0 80 78 00
        E 0 80 79 00
        E 0 80 7a 00
        E 0 80 7b 00
        E 0 80 7c 00
        E 0 80 19 00
        E 0 90 18 60
        E 0 90 2a 60
        E 0 90 3f 60
        E 0 90 48 60
        E 0 90 4b 60
        E 0 90 54 60
        E 0 90 57 60
        E 0 90 60 60
        E 0 90 63 60
        E 120 80 18 00
        E 0 80 2a 00
        E 0 80 3f 00
        E 0 80 48 00
        E 0 80 4b 00
        E 0 80 54 00
        E 0 80 57 00
        E 0 80 60 00
        E 0 80 63 00
        E 360 90 2a 60
        E 0 90 3f 60
        E 0 90 4b 60
        E 0 90 57 60
        E 0 90 63 60
        E 120 80 2a 00
        E 0 80 3f 00
        E 0 80 4b 00
        E 0 80 57 00
        E 0 80 63 00
        E 120 90 19 60
        E 240 80 19 00
        E 0 90 1a 60
        E 0 90 2a 60
        E 0 90 3d 60
        E 0 90 3f 60
        E 0 90 49 60
        E 0 90 4b 60
        E 0 90 55 60
        E 0 90 57 60
        E 0 90 61 60
        E 0 90 63 60
        E 120 80 1a 00
        E 0 80 2a 00
        E 0 80 3d 00
        E 0 80 3f 00
        E 0 80 49 00
        E 0 80 4b 00
        E 0 80 55 00
        E 0 80 57 00
        E 0 80 61 00
        E 0 80 63 00
        E 360 90 2a 60
        E 0 90 3f 60
        E 0 90 4b 60
        E 0 90 57 60
        E 0 90 63 60
        E 120 80 2a 00
        E 0 80 3f 00
        E 0 80 4b 00
        E 0 80 57 00
        E 0 80 63 00
        E 120 90 18 60
        E 0 90 19 60
        E 0 90 54 60
        E 0 90 60 60
        E 120 80 18 00
        E 0 80 54 00
        E 0 80 60 00
        E 120 80 19 00
        E 0 90 18 60
        E 0 90 2a 60
        E 0 90 3f 60
        E 0 90 48 60
        E 0 90 4b 60
        E 0 90 54 60
        E 0 90 57 60
        E 0 90 60 60
        E 0 90 63 60
        E 120 80 18 00
        E 0 80 2a 00
        E 0 80 3f 00
        E 0 80 48 00
        E 0 80 4b 00
        E 0 80 54 00
        E 0 80 57 00
        E 0 80 60 00
        E 0 80 63 00
        E 360 90 18 60
        E 0 90 2a 60
        E 0 90 3f 60
        E 0 90 48 60
        E 0 90 4b 60
        E 0 90 54 60
        E 0 90 57 60
        E 0 90 60 60
        E 0 90 63 60
        E 120 80 18 00
        E 0 80 2a 00
        E 0 80 3f 00
        E 0 80 48 00
        E 0 80 4b 00
        E 0 80 54 00
        E 0 80 57 00
        E 0 80 60 00
        E 0 80 63 00
        E 120 90 19 60
        E 240 80 19 00
        E 0 90 1a 60
        E 0 90 2a 60
        E 0 90 3d 60
        E 0 90 3f 60
        E 0 90 49 60
        E 0 90 4b 60
        E 0 90 55 60
        E 0 90 57 60
        E 0 90 61 60
        E 0 90 63 60
        E 120 80 1a 00
        E 0 80 2a 00
        E 0 80 3d 00
        E 0 80 3f 00
        E 0 80 49 00
        E 0 80 4b 00
        E 0 80 55 00
        E 0 80 57 00
        E 0 80 61 00
        E 0 80 63 00
        E 360 90 2a 60
        E 0 90 3f 60
        E 0 90 4b 60
        E 0 90 57 60
        E 0 90 63 60
        E 120 80 2a 00
        E 0 80 3f 00
        E 0 80 4b 00
        E 0 80 57 00
        E 0 80 63 00
        E 120 90 18 60
        E 0 90 19 60
        E 0 90 54 60
        E 0 90 60 60
        E 120 80 18 00
        E 0 80 54 00
        E 0 80 60 00
        E 120 80 19 00
        E 0 90 18 60
        E 0 90 27 60
        E 0 90 40 60
        E 0 90 48 60
        E 0 90 4c 60
        E 0 90 54 60
        E 0 90 58 60
        E 0 90 60 60
        E 0 90 64 60
        E 120 80 18 00
        E 0 80 27 00
        E 0 80 40 00
        E 0 80 48 00
        E 0 80 4c 00
        E 0 80 54 00
        E 0 80 58 00
        E 0 80 60 00
        E 0 80 64 00
        E 360 90 2a 60
        E 0 90 3f 60
        E 0 90 4b 60
        E 0 90 57 60
        E 0 90 63 60
        E 120 80 2a 00
        E 0 80 3f 00
        E 0 80 4b 00
        E 0 80 57 00
        E 0 80 63 00
        E 120 90 19 60
        E 240 80 19 00
        E 0 90 1a 60
        E 0 90 2a 60
        E 0 90 3d 60
        E 0 90 3f 60
        E 0 90 49 60
        E 0 90 4b 60
        E 0 90 55 60
        E 0 90 57 60
        E 0 90 61 60
        E 0 90 63 60
        E 120 80 1a 00
        E 0 80 2a 00
        E 0 80 3d 00
        E 0 80 3f 00
        E 0 80 49 00
        E 0 80 4b 00
        E 0 80 55 00
        E 0 80 57 00
        E 0 80 61 00
        E 0 80 63 00
        E 360 90 2a 60
        E 0 90 3f 60
        E 0 90 4b 60
        E 0 90 57 60
        E 0 90 63 60
        E 120 80 2a 00
        E 0 80 3f 00
        E 0 80 4b 00
        E 0 80 57 00
        E 0 80 63 00
        E 120 90 18 60
        E 0 90 19 60
        E 0 90 54 60
        E 0 90 60 60
        E 120 80 18 00
        E 0 80 54 00
        E 0 80 60 00
        E 120 80 19 00
        E 0 90 18 60
        E 0 90 2a 60
        E 0 90 3f 60
        E 0 90 48 60
        E 0 90 4b 60
        E 0 90 54 60
        E 0 90 57 60
        E 0 90 60 60
        E 0 90 63 60
        E 0 90 78 60
        E 0 90 79 60
        E 0 90 7a 60
        E 0 90 7b 60
        E 0 90 7c 60
        E 120 80 18 00
        E 0 80 2a 00
        E 0 80 3f 00
        E 0 80 48 00
        E 0 80 4b 00
        E 0 80 54 00
        E 0 80 57 00
        E 0 80 60 00
        E 0 80 63 00
        E 360 90 2a 60
        E 0 90 3f 60
        E 0 90 4b 60
        E 0 90 57 60
        E 0 90 63 60
        E 120 80 2a 00
        E 0 80 3f 00
        E 0 80 4b 00
        E 0 80 57 00
        E 0 80 63 00
        E 120 90 18 60
        E 0 90 19 60
        E 0 90 54 60
        E 0 90 60 60
        E 120 80 18 00
        E 0 80 54 00
        E 0 80 60 00
        E 120 80 19 00
        E 0 90 1a 60
        E 0 90 2a 60
        E 0 90 3d 60
        E 0 90 3f 60
        E 0 90 49 60
        E 0 90 4b 60
        E 0 90 55 60
        E 0 90 57 60
        E 0 90 61 60
        E 0 90 63 60
        E 120 80 1a 00
        E 0 80 2a 00
        E 0 80 3d 00
        E 0 80 3f 00
        E 0 80 49 00
        E 0 80 4b 00
        E 0 80 55 00
        E 0 80 57 00
        E 0 80 61 00
        E 0 80 63 00
        E 360 90 2a 60
        E 0 90 3f 60
        E 0 90 4b 60
        E 0 90 57 60
        E 0 90 63 60
        E 120 80 2a 00
        E 0 80 3f 00
        E 0 80 4b 00
        E 0 80 57 00
        E 0 80 63 00
        E 120 90 18 60
        E 0 90 19 60
        E 0 90 54 60
        E 0 90 60 60
        E 120 80 18 00
        E 0 80 54 00
        E 0 80 60 00
        E 120 80 78 00
        E 0 80 79 00
        E 0 80 7a 00
        E 0 80 7b 00
        E 0 80 7c 00
        E 0 80 19 00
        E 0 90 18 60
        E 0 90 27 60
        E 0 90 40 60
        E 0 90 48 60
        E 0 90 4c 60
        E 0 90 54 60
        E 0 90 58 60
        E 0 90 60 60
        E 0 90 64 60
        E 120 80 18 00
        E 0 80 27 00
        E 0 80 40 00
        E 0 80 48 00
        E 0 80 4c 00
        E 0 80 54 00
        E 0 80 58 00
        E 0 80 60 00
        E 0 80 64 00
        E 360 90 2a 60
        E 0 90 3f 60
        E 0 90 4b 60
        E 0 90 57 60
        E 0 90 63 60
        E 120 80 2a 00
        E 0 80 3f 00
        E 0 80 4b 00
        E 0 80 57 00
        E 0 80 63 00
        E 120 90 18 60
        E 0 90 19 60
        E 0 90 54 60
        E 0 90 60 60
        E 120 80 18 00
        E 0 80 54 00
        E 0 80 60 00
        E 120 80 19 00
        E 0 90 1a 60
        E 0 90 2a 60
        E 0 90 3d 60
        E 0 90 3f 60
        E 0 90 49 60
        E 0 90 4b 60
        E 0 90 55 60
        E 0 90 57 60
        E 0 90 61 60
        E 0 90 63 60
        E 120 80 1a 00
        E 0 80 2a 00
        E 0 80 3d 00
        E 0 80 3f 00
        E 0 80 49 00
        E 0 80 4b 00
        E 0 80 55 00
        E 0 80 57 00
        E 0 80 61 00
        E 0 80 63 00
        E 360 90 2a 60
        E 0 90 3f 60
        E 0 90 4b 60
        E 0 90 57 60
        E 0 90 63 60
        E 120 80 2a 00
        E 0 80 3f 00
        E 0 80 4b 00
        E 0 80 57 00
        E 0 80 63 00
        E 120 90 18 60
        E 0 90 19 60
        E 0 90 54 60
        E 0 90 60 60
        E 120 80 18 00
        E 0 80 54 00
        E 0 80 60 00
        E 120 80 19 00
        E 0 90 18 60
        E 0 90 2a 60
        E 0 90 3f 60
        E 0 90 48 60
        E 0 90 4b 60
        E 0 90 54 60
        E 0 90 57 60
        E 0 90 60 60
        E 0 90 63 60
        E 120 80 18 00
        E 0 80 2a 00
        E 0 80 3f 00
        E 0 80 48 00
        E 0 80 4b 00
        E 0 80 54 00
        E 0 80 57 00
        E 0 80 60 00
        E 0 80 63 00
        E 360 90 2a 60
        E 0 90 3f 60
        E 0 90 4b 60
        E 0 90 57 60
        E 0 90 63 60
        E 120 80 2a 00
        E 0 80 3f 00
        E 0 80 4b 00
        E 0 80 57 00
        E 0 80 63 00
        E 120 90 18 60
        E 0 90 19 60
        E 0 90 54 60
        E 0 90 60 60
        E 120 80 18 00
        E 0 80 54 00
        E 0 80 60 00
        E 120 80 19 00
        E 0 90 1a 60
        E 0 90 2a 60
        E 0 90 3d 60
        E 0 90 3f 60
        E 0 90 49 60
        E 0 90 4b 60
        E 0 90 55 60
        E 0 90 57 60
        E 0 90 61 60
        E 0 90 63 60
        E 120 80 1a 00
        E 0 80 2a 00
        E 0 80 3d 00
        E 0 80 3f 00
        E 0 80 49 00
        E 0 80 4b 00
        E 0 80 55 00
        E 0 80 57 00
        E 0 80 61 00
        E 0 80 63 00
        E 360 90 2a 60
        E 0 90 3f 60
        E 0 90 4b 60
        E 0 90 57 60
        E 0 90 63 60
        E 120 80 2a 00
        E 0 80 3f 00
        E 0 80 4b 00
        E 0 80 57 00
        E 0 80 63 00
        E 120 90 18 60
        E 0 90 19 60
        E 0 90 54 60
        E 0 90 60 60
        E 120 80 18 00
        E 0 80 54 00
        E 0 80 60 00
        E 120 80 19 00
        E 0 90 18 60
        E 0 90 26 60
        E 0 90 40 60
        E 0 90 48 60
        E 0 90 4c 60
        E 0 90 54 60
        E 0 90 58 60
        E 0 90 60 60
        E 0 90 64 60
        E 120 80 18 00
        E 0 80 26 00
        E 0 80 40 00
        E 0 80 48 00
        E 0 80 4c 00
        E 0 80 54 00
        E 0 80 58 00
        E 0 80 60 00
        E 0 80 64 00
        E 600 90 19 60
        E 240 80 19 00
        E 720 90 19 60
        E 240 80 19 00
        E 720 90 19 60
        E 240 80 19 00
        E 480 90 1a 60
        E 0 90 1b 60
        E 0 90 3d 60
        E 0 90 3e 60
        E 0 90 49 60
        E 0 90 4a 60
        E 0 90 55 60
        E 0 90 56 60
        E 0 90 61 60
        E 0 90 62 60
        E 0 90 6e 60
        E 120 80 1a 00
        E 0 80 1b 00
        E 0 80 3d 00
        E 0 80 3e 00
        E 0 80 49 00
        E 0 80 4a 00
        E 0 80 55 00
        E 0 80 56 00
        E 0 80 61 00
        E 0 80 62 00
        E 0 80 6e 00
        E 120 90 19 60
        E 240 80 19 00
        E 0 90 18 60
        E 0 90 2a 60
        E 0 90 3f 60
        E 0 90 48 60
        E 0 90 4b 60
        E 0 90 54 60
        E 0 90 57 60
        E 0 90 60 60
        E 0 90 63 60
        E 120 80 18 00
        E 0 80 2a 00
        E 0 80 3f 00
        E 0 80 48 00
        E 0 80 4b 00
        E 0 80 54 00
        E 0 80 57 00
        E 0 80 60 00
        E 0 80 63 00
        E 600 90 19 60
        E 240 80 19 00
        E 0 90 1a 60
        E 0 90 3d 60
        E 0 90 49 60
        E 0 90 55 60
        E 0 90 61 60
        E 120 80 1a 00
        E 0 80 3d 00
        E 0 80 49 00
        E 0 80 55 00
        E 0 80 61 00
        E 360 90 18 60
        E 0 90 3c 60
        E 0 90 48 60
        E 0 90 54 60
        E 0 90 60 60
        E 120 80 18 00
        E 0 80 3c 00
        E 0 80 48 00
        E 0 80 54 00
        E 0 80 60 00
        E 120 90 19 60
        E 240 80 19 00
        E 0 90 1a 60
        E 0 90 3d 60
        E 0 90 49 60
        E 0 90 55 60
        E 0 90 61 60
        E 0 90 78 60
        E 0 90 79 60
        E 0 90 7a 60
        E 0 90 7b 60
        E 0 90 7c 60
        E 120 80 1a 00
        E 0 80 3d 00
        E 0 80 49 00
        E 0 80 55 00
        E 0 80 61 00
        E 120 90 1a 60
        E 0 90 55 60
        E 0 90 61 60
        E 120 80 1a 00
        E 0 80 55 00
        E 0 80 61 00
        E 360 90 19 60
        E 0 90 2f 60
        E 0 90 3e 60
        E 0 90 4a 60
        E 0 90 56 60
        E 0 90 62 60
        E 0 90 6e 60
        E 120 80 2f 00
        E 0 80 3e 00
        E 0 80 4a 00
        E 0 80 56 00
        E 0 80 62 00
        E 0 80 6e 00
        E 120 80 19 00
        E 240 90 31 60
        E 0 90 57 60
        E 0 90 63 60
        E 0 90 6f 60
        E 120 80 31 00
        E 0 80 57 00
        E 0 80 63 00
        E 0 80 6f 00
        E 120 90 30 60
        E 0 90 3f 60
        E 0 90 4b 60
        E 0 90 57 60
        E 0 90 63 60
        E 0 90 6f 60
        E 120 80 30 00
        E 0 80 3f 00
        E 0 80 4b 00
        E 0 80 57 00
        E 0 80 63 00
        E 0 80 6f 00
        E 120 90 18 60
        E 0 90 19 60
        E 0 90 54 60
        E 0 90 60 60
        E 120 80 18 00
        E 0 80 54 00
        E 0 80 60 00
        E 120 80 78 00
        E 0 80 79 00
        E 0 80 7a 00
        E 0 80 7b 00
        E 0 80 7c 00
        E 0 80 19 00
        E 0 90 18 60
        E 0 90 26 60
        E 0 90 40 60
        E 0 90 48 60
        E 0 90 4c 60
        E 0 90 54 60
        E 0 90 58 60
        E 0 90 60 60
        E 0 90 64 60
        E 120 80 18 00
        E 0 80 26 00
        E 0 80 40 00
        E 0 80 48 00
        E 0 80 4c 00
        E 0 80 54 00
        E 0 80 58 00
        E 0 80 60 00
        E 0 80 64 00
        E 360 90 1f 60
        E 0 90 3e 60
        E 0 90 4a 60
        E 0 90 56 60
        E 0 90 62 60
        E 120 80 1f 00
        E 0 80 3e 00
        E 0 80 4a 00
        E 0 80 56 00
        E 0 80 62 00
        E 360 90 1a 60
        E 0 90 2a 60
        E 0 90 3d 60
        E 0 90 3f 60
        E 0 90 49 60
        E 0 90 4b 60
        E 0 90 55 60
        E 0 90 57 60
        E 0 90 61 60
        E 0 90 63 60
        E 0 90 74 60
        E 120 80 1a 00
        E 0 80 2a 00
        E 0 80 3d 00
        E 0 80 3f 00
        E 0 80 49 00
        E 0 80 4b 00
        E 0 80 55 00
        E 0 80 57 00
        E 0 80 61 00
        E 0 80 63 00
        E 360 90 1f 60
        E 0 90 3e 60
        E 0 90 4a 60
        E 0 90 56 60
        E 0 90 62 60
        E 120 80 1f 00
        E 0 80 3e 00
        E 0 80 4a 00
        E 0 80 56 00
        E 0 80 62 00
        E 120 90 18 60
        E 0 90 54 60
        E 0 90 60 60
        E 120 80 18 00
        E 0 80 54 00
        E 0 80 60 00
        E 120 90 18 60
        E 0 90 1f 60
        E 0 90 3e 60
        E 0 90 48 60
        E 0 90 4a 60
        E 0 90 54 60
        E 0 90 56 60
        E 0 90 60 60
        E 0 90 62 60
        E 120 80 18 00
        E 0 80 1f 00
        E 0 80 3e 00
        E 0 80 48 00
        E 0 80 4a 00
        E 0 80 54 00
        E 0 80 56 00
        E 0 80 60 00
        E 0 80 62 00
        E 360 90 1f 60
        E 0 90 3e 60
        E 0 90 4a 60
        E 0 90 56 60
        E 0 90 62 60
        E 120 80 1f 00
        E 0 80 3e 00
        E 0 80 4a 00
        E 0 80 56 00
        E 0 80 62 00
        E 120 90 18 60
        E 0 90 54 60
        E 0 90 60 60
        E 120 80 18 00
        E 0 80 54 00
        E 0 80 60 00
        E 120 90 1a 60
        E 0 90 2a 60
        E 0 90 3d 60
        E 0 90 3f 60
        E 0 90 49 60
        E 0 90 4b 60
        E 0 90 55 60
        E 0 90 57 60
        E 0 90 61 60
        E 0 90 63 60
        E 120 80 1a 00
        E 0 80 2a 00
        E 0 80 3d 00
        E 0 80 3f 00
        E 0 80 49 00
        E 0 80 4b 00
        E 0 80 55 00
        E 0 80 57 00
        E 0 80 61 00
        E 0 80 63 00
        E 360 90 1f 60
        E 0 90 3e 60
        E 0 90 4a 60
        E 0 90 56 60
        E 0 90 62 60
        E 120 80 1f 00
        E 0 80 3e 00
        E 0 80 4a 00
        E 0 80 56 00
        E 0 80 62 00
        E 120 90 18 60
        E 0 90 54 60
        E 0 90 60 60
        E 120 80 18 00
        E 0 80 54 00
        E 0 80 60 00
        E 120 90 18 60
        E 0 90 1f 60
        E 0 90 3e 60
        E 0 90 48 60
        E 0 90 4a 60
        E 0 90 54 60
        E 0 90 56 60
        E 0 90 60 60
        E 0 90 62 60
        E 120 80 74 00
        E 0 80 18 00
        E 0 80 1f 00
        E 0 80 3e 00
        E 0 80 48 00
        E 0 80 4a 00
        E 0 80 54 00
        E 0 80 56 00
        E 0 80 60 00
        E 0 80 62 00
        E 360 90 1f 60
        E 0 90 3e 60
        E 0 90 4a 60
        E 0 90 56 60
        E 0 90 62 60
        E 120 80 1f 00
        E 0 80 3e 00
        E 0 80 4a 00
        E 0 80 56 00
        E 0 80 62 00
        E 120 90 18 60
        E 0 90 54 60
        E 0 90 60 60
        E 120 80 18 00
        E 0 80 54 00
        E 0 80 60 00
        E 120 90 1a 60
        E 0 90 2a 60
        E 0 90 3d 60
        E 0 90 3f 60
        E 0 90 49 60
        E 0 90 4b 60
        E 0 90 55 60
        E 0 90 57 60
        E 0 90 61 60
        E 0 90 63 60
        E 120 80 1a 00
        E 0 80 2a 00
        E 0 80 3d 00
        E 0 80 3f 00
        E 0 80 49 00
        E 0 80 4b 00
        E 0 80 55 00
        E 0 80 57 00
        E 0 80 61 00
        E 0 80 63 00
        E 360 90 1f 60
        E 0 90 3e 60
        E 0 90 4a 60
        E 0 90 56 60
        E 0 90 62 60
        E 120 80 1f 00
        E 0 80 3e 00
        E 0 80 4a 00
        E 0 80 56 00
        E 0 80 62 00
        E 120 90 18 60
        E 0 90 54 60
        E 0 90 60 60
        E 120 80 18 00
        E 0 80 54 00
        E 0 80 60 00
        E 120 90 18 60
        E 0 90 1f 60
        E 0 90 3e 60
        E 0 90 48 60
        E 0 90 4a 60
        E 0 90 54 60
        E 0 90 56 60
        E 0 90 60 60
        E 0 90 62 60
        E 0 90 78 60
        E 0 90 79 60
        E 0 90 7a 60
        E 0 90 7b 60
        E 0 90 7c 60
        E 120 80 18 00
        E 0 80 1f 00
        E 0 80 3e 00
        E 0 80 48 00
        E 0 80 4a 00
        E 0 80 54 00
        E 0 80 56 00
        E 0 80 60 00
        E 0 80 62 00
        E 360 90 1f 60
        E 0 90 3e 60
        E 0 90 4a 60
        E 0 90 56 60
        E 0 90 62 60
        E 120 80 1f 00
        E 0 80 3e 00
        E 0 80 4a 00
        E 0 80 56 00
        E 0 80 62 00
        E 120 90 18 60
        E 0 90 54 60
        E 0 90 60 60
        E 120 80 18 00
        E 0 80 54 00
        E 0 80 60 00
        E 120 90 1a 60
        E 0 90 2a 60
        E 0 90 3d 60
        E 0 90 3f 60
        E 0 90 49 60
        E 0 90 4b 60
        E 0 90 55 60
        E 0 90 57 60
        E 0 90 61 60
        E 0 90 63 60
        E 120 80 1a 00
        E 0 80 2a 00
        E 0 80 3d 00
        E 0 80 3f 00
        E 0 80 49 00
        E 0 80 4b 00
        E 0 80 55 00
        E 0 80 57 00
        E 0 80 61 00
        E 0 80 63 00
        E 360 90 1f 60
        E 0 90 3e 60
        E 0 90 4a 60
        E 0 90 56 60
        E 0 90 62 60
        E 120 80 1f 00
        E 0 80 3e 00
        E 0 80 4a 00
        E 0 80 56 00
        E 0 80 62 00
        E 120 90 18 60
        E 0 90 54 60
        E 0 90 60 60
        E 120 80 18 00
        E 0 80 54 00
        E 0 80 60 00
        E 120 80 78 00
        E 0 80 79 00
        E 0 80 7a 00
        E 0 80 7b 00
        E 0 80 7c 00
        E 0 90 18 60
        E 0 90 1f 60
        E 0 90 3e 60
        E 0 90 48 60
        E 0 90 4a 60
        E 0 90 54 60
        E 0 90 56 60
        E 0 90 60 60
        E 0 90 62 60
        E 120 80 18 00
        E 0 80 1f 00
        E 0 80 3e 00
        E 0 80 48 00
        E 0 80 4a 00
        E 0 80 54 00
        E 0 80 56 00
        E 0 80 60 00
        E 0 80 62 00
        E 120 90 1a 60
        E 0 90 55 60
        E 0 90 61 60
        E 120 80 1a 00
        E 0 80 55 00
        E 0 80 61 00
        E 120 90 1a 60
        E 0 90 3d 60
        E 0 90 49 60
        E 0 90 55 60
        E 0 90 61 60
        E 120 80 1a 00
        E 0 80 3d 00
        E 0 80 49 00
        E 0 80 55 00
        E 0 80 61 00
        E 120 90 18 60
        E 0 90 54 60
        E 0 90 60 60
        E 120 80 18 00
        E 0 80 54 00
        E 0 80 60 00
        E 120 90 1a 60
        E 0 90 2a 60
        E 0 90 3d 60
        E 0 90 3f 60
        E 0 90 49 60
        E 0 90 4b 60
        E 0 90 55 60
        E 0 90 57 60
        E 0 90 61 60
        E 0 90 63 60
        E 120 80 1a 00
        E 0 80 2a 00
        E 0 80 3d 00
        E 0 80 3f 00
        E 0 80 49 00
        E 0 80 4b 00
        E 0 80 55 00
        E 0 80 57 00
        E 0 80 61 00
        E 0 80 63 00
        E 360 90 1f 60
        E 0 90 3e 60
        E 0 90 4a 60
        E 0 90 56 60
        E 0 90 62 60
        E 120 80 1f 00
        E 0 80 3e 00
        E 0 80 4a 00
        E 0 80 56 00
        E 0 80 62 00
        E 120 90 18 60
        E 0 90 54 60
        E 0 90 60 60
        E 120 80 18 00
        E 0 80 54 00
        E 0 80 60 00
        E 120 90 18 60
        E 0 90 1f 60
        E 0 90 3e 60
        E 0 90 48 60
        E 0 90 4a 60
        E 0 90 54 60
        E 0 90 56 60
        E 0 90 60 60
        E 0 90 62 60
        E 120 80 18 00
        E 0 80 1f 00
        E 0 80 3e 00
        E 0 80 48 00
        E 0 80 4a 00
        E 0 80 54 00
        E 0 80 56 00
        E 0 80 60 00
        E 0 80 62 00
        E 360 90 1f 60
        E 0 90 3e 60
        E 0 90 4a 60
        E 0 90 56 60
        E 0 90 62 60
        E 120 80 1f 00
        E 0 80 3e 00
        E 0 80 4a 00
        E 0 80 56 00
        E 0 80 62 00
        E 120 90 18 60
        E 0 90 54 60
        E 0 90 60 60
        E 120 80 18 00
        E 0 80 54 00
        E 0 80 60 00
        E 120 90 1a 60
        E 0 90 2a 60
        E 0 90 3d 60
        E 0 90 3f 60
        E 0 90 49 60
        E 0 90 4b 60
        E 0 90 55 60
        E 0 90 57 60
        E 0 90 61 60
        E 0 90 63 60
        E 120 80 1a 00
        E 0 80 2a 00
        E 0 80 3d 00
        E 0 80 3f 00
        E 0 80 49 00
        E 0 80 4b 00
        E 0 80 55 00
        E 0 80 57 00
        E 0 80 61 00
        E 0 80 63 00
        E 360 90 1f 60
        E 0 90 3e 60
        E 0 90 4a 60
        E 0 90 56 60
        E 0 90 62 60
        E 120 80 1f 00
        E 0 80 3e 00
        E 0 80 4a 00
        E 0 80 56 00
        E 0 80 62 00
        E 120 90 18 60
        E 0 90 54 60
        E 0 90 60 60
        E 120 80 18 00
        E 0 80 54 00
        E 0 80 60 00
        E 120 90 18 60
        E 0 90 1f 60
        E 0 90 3e 60
        E 0 90 48 60
        E 0 90 4a 60
        E 0 90 54 60
        E 0 90 56 60
        E 0 90 60 60
        E 0 90 62 60
        E 120 80 18 00
        E 0 80 1f 00
        E 0 80 3e 00
        E 0 80 48 00
        E 0 80 4a 00
        E 0 80 54 00
        E 0 80 56 00
        E 0 80 60 00
        E 0 80 62 00
        E 360 90 1f 60
        E 0 90 3e 60
        E 0 90 4a 60
        E 0 90 56 60
        E 0 90 62 60
        E 120 80 1f 00
        E 0 80 3e 00
        E 0 80 4a 00
        E 0 80 56 00
        E 0 80 62 00
        E 120 90 18 60
        E 0 90 54 60
        E 0 90 60 60
        E 120 80 18 00
        E 0 80 54 00
        E 0 80 60 00
        E 120 90 1a 60
        E 0 90 2a 60
        E 0 90 3d 60
        E 0 90 3f 60
        E 0 90 49 60
        E 0 90 4b 60
        E 0 90 55 60
        E 0 90 57 60
        E 0 90 61 60
        E 0 90 63 60
        E 120 80 1a 00
        E 0 80 2a 00
        E 0 80 3d 00
        E 0 80 3f 00
        E 0 80 49 00
        E 0 80 4b 00
        E 0 80 55 00
        E 0 80 57 00
        E 0 80 61 00
        E 0 80 63 00
        E 360 90 1f 60
        E 0 90 3e 60
        E 0 90 4a 60
        E 0 90 56 60
        E 0 90 62 60
        E 120 80 1f 00
        E 0 80 3e 00
        E 0 80 4a 00
        E 0 80 56 00
        E 0 80 62 00
        E 120 90 18 60
        E 0 90 54 60
        E 0 90 60 60
        E 120 80 18 00
        E 0 80 54 00
        E 0 80 60 00
        E 120 90 18 60
        E 0 90 1f 60
        E 0 90 3e 60
        E 0 90 48 60
        E 0 90 4a 60
        E 0 90 54 60
        E 0 90 56 60
        E 0 90 60 60
        E 0 90 62 60
        E 0 90 78 60
        E 0 90 79 60
        E 0 90 7a 60
        E 0 90 7b 60
        E 0 90 7c 60
        E 120 80 18 00
        E 0 80 1f 00
        E 0 80 3e 00
        E 0 80 48 00
        E 0 80 4a 00
        E 0 80 54 00
        E 0 80 56 00
        E 0 80 60 00
        E 0 80 62 00
        E 360 90 1a 60
        E 0 90 1f 60
        E 0 90 3d 60
        E 0 90 3e 60
        E 0 90 49 60
        E 0 90 4a 60
        E 0 90 55 60
        E 0 90 56 60
        E 0 90 61 60
        E 0 90 62 60
        E 120 80 1a 00
        E 0 80 1f 00
        E 0 80 3d 00
        E 0 80 3e 00
        E 0 80 49 00
        E 0 80 4a 00
        E 0 80 55 00
        E 0 80 56 00
        E 0 80 61 00
        E 0 80 62 00
        E 120 90 18 60
        E 0 90 54 60
        E 0 90 60 60
        E 120 80 18 00
        E 0 80 54 00
        E 0 80 60 00
        E 120 90 1a 60
        E 0 90 2a 60
        E 0 90 3d 60
        E 0 90 3f 60
        E 0 90 49 60
        E 0 90 4b 60
        E 0 90 55 60
        E 0 90 57 60
        E 0 90 61 60
        E 0 90 63 60
        E 120 80 1a 00
        E 0 80 2a 00
        E 0 80 3d 00
        E 0 80 3f 00
        E 0 80 49 00
        E 0 80 4b 00
        E 0 80 55 00
        E 0 80 57 00
        E 0 80 61 00
        E 0 80 63 00
        E 360 90 1f 60
        E 0 90 3e 60
        E 0 90 4a 60
        E 0 90 56 60
        E 0 90 62 60
        E 120 80 1f 00
        E 0 80 3e 00
        E 0 80 4a 00
        E 0 80 56 00
        E 0 80 62 00
        E 120 90 18 60
        E 0 90 54 60
        E 0 90 60 60
        E 120 80 18 00
        E 0 80 54 00
        E 0 80 60 00
        E 120 80 78 00
        E 0 80 79 00
        E 0 80 7a 00
        E 0 80 7b 00
        E 0 80 7c 00
        E 0 90 18 60
        E 0 90 27 60
        E 0 90 40 60
        E 0 90 48 60
        E 0 90 4c 60
        E 0 90 54 60
        E 0 90 58 60
        E 0 90 60 60
        E 0 90 64 60
        E 120 80 18 00
        E 0 80 27 00
        E 0 80 40 00
        E 0 80 48 00
        E 0 80 4c 00
        E 0 80 54 00
        E 0 80 58 00
        E 0 80 60 00
        E 0 80 64 00
        E 360 90 2a 60
        E 0 90 3f 60
        E 0 90 4b 60
        E 0 90 57 60
        E 0 90 63 60
        E 120 80 2a 00
        E 0 80 3f 00
        E 0 80 4b 00
        E 0 80 57 00
        E 0 80 63 00
        E 120 90 18 60
        E 0 90 54 60
        E 0 90 60 60
        E 120 80 18 00
        E 0 80 54 00
        E 0 80 60 00
        E 120 90 1a 60
        E 0 90 2a 60
        E 0 90 3d 60
        E 0 90 3f 60
        E 0 90 49 60
        E 0 90 4b 60
        E 0 90 55 60
        E 0 90 57 60
        E 0 90 61 60
        E 0 90 63 60
        E 120 80 1a 00
        E 0 80 2a 00
        E 0 80 3d 00
        E 0 80 3f 00
        E 0 80 49 00
        E 0 80 4b 00
        E 0 80 55 00
        E 0 80 57 00
        E 0 80 61 00
        E 0 80 63 00
        E 360 90 2a 60
        E 0 90 3f 60
        E 0 90 4b 60
        E 0 90 57 60
        E 0 90 63 60
        E 120 80 2a 00
        E 0 80 3f 00
        E 0 80 4b 00
        E 0 80 57 00
        E 0 80 63 00
        E 120 90 18 60
        E 0 90 54 60
        E 0 90 60 60
        E 120 80 18 00
        E 0 80 54 00
        E 0 80 60 00
        E 120 90 18 60
        E 0 90 2a 60
        E 0 90 3f 60
        E 0 90 48 60
        E 0 90 4b 60
        E 0 90 54 60
        E 0 90 57 60
        E 0 90 60 60
        E 0 90 63 60
        E 120 80 18 00
        E 0 80 2a 00
        E 0 80 3f 00
        E 0 80 48 00
        E 0 80 4b 00
        E 0 80 54 00
        E 0 80 57 00
        E 0 80 60 00
        E 0 80 63 00
        E 360 90 2a 60
        E 0 90 3f 60
        E 0 90 4b 60
        E 0 90 57 60
        E 0 90 63 60
        E 120 80 2a 00
        E 0 80 3f 00
        E 0 80 4b 00
        E 0 80 57 00
        E 0 80 63 00
        E 120 90 18 60
        E 0 90 54 60
        E 0 90 60 60
        E 120 80 18 00
        E 0 80 54 00
        E 0 80 60 00
        E 120 90 1a 60
        E 0 90 2a 60
        E 0 90 3d 60
        E 0 90 3f 60
        E 0 90 49 60
        E 0 90 4b 60
        E 0 90 55 60
        E 0 90 57 60
        E 0 90 61 60
        E 0 90 63 60
        E 120 80 1a 00
        E 0 80 2a 00
        E 0 80 3d 00
        E 0 80 3f 00
        E 0 80 49 00
        E 0 80 4b 00
        E 0 80 55 00
        E 0 80 57 00
        E 0 80 61 00
        E 0 80 63 00
        E 360 90 2a 60
        E 0 90 3f 60
        E 0 90 4b 60
        E 0 90 57 60
        E 0 90 63 60
        E 120 80 2a 00
        E 0 80 3f 00
        E 0 80 4b 00
        E 0 80 57 00
        E 0 80 63 00
        E 120 90 18 60
        E 0 90 54 60
        E 0 90 60 60
        E 120 80 18 00
        E 0 80 54 00
        E 0 80 60 00
        E 120 90 18 60
        E 0 90 2a 60
        E 0 90 3f 60
        E 0 90 48 60
        E 0 90 4b 60
        E 0 90 54 60
        E 0 90 57 60
        E 0 90 60 60
        E 0 90 63 60
        E 120 80 18 00
        E 0 80 2a 00
        E 0 80 3f 00
        E 0 80 48 00
        E 0 80 4b 00
        E 0 80 54 00
        E 0 80 57 00
        E 0 80 60 00
        E 0 80 63 00
        E 360 90 2a 60
        E 0 90 3f 60
        E 0 90 4b 60
        E 0 90 57 60
        E 0 90 63 60
        E 120 80 2a 00
        E 0 80 3f 00
        E 0 80 4b 00
        E 0 80 57 00
        E 0 80 63 00
        E 120 90 18 60
        E 0 90 54 60
        E 0 90 60 60
        E 120 80 18 00
        E 0 80 54 00
        E 0 80 60 00
        E 120 90 1a 60
        E 0 90 2a 60
        E 0 90 3d 60
        E 0 90 3f 60
        E 0 90 49 60
        E 0 90 4b 60
        E 0 90 55 60
        E 0 90 57 60
        E 0 90 61 60
        E 0 90 63 60
        E 120 80 1a 00
        E 0 80 2a 00
        E 0 80 3d 00
        E 0 80 3f 00
        E 0 80 49 00
        E 0 80 4b 00
        E 0 80 55 00
        E 0 80 57 00
        E 0 80 61 00
        E 0 80 63 00
        E 360 90 2a 60
        E 0 90 3f 60
        E 0 90 4b 60
        E 0 90 57 60
        E 0 90 63 60
        E 120 80 2a 00
        E 0 80 3f 00
        E 0 80 4b 00
        E 0 80 57 00
        E 0 80 63 00
        E 120 90 18 60
        E 0 90 54 60
        E 0 90 60 60
        E 120 80 18 00
        E 0 80 54 00
        E 0 80 60 00
        E 120 90 18 60
        E 0 90 2a 60
        E 0 90 3f 60
        E 0 90 48 60
        E 0 90 4b 60
        E 0 90 54 60
        E 0 90 57 60
        E 0 90 60 60
        E 0 90 63 60
        E 0 90 78 60
        E 0 90 79 60
        E 0 90 7a 60
        E 0 90 7b 60
        E 0 90 7c 60
        E 120 80 18 00
        E 0 80 2a 00
        E 0 80 3f 00
        E 0 80 48 00
        E 0 80 4b 00
        E 0 80 54 00
        E 0 80 57 00
        E 0 80 60 00
        E 0 80 63 00
        E 360 90 2a 60
        E 0 90 3f 60
        E 0 90 4b 60
        E 0 90 57 60
        E 0 90 63 60
        E 120 80 2a 00
        E 0 80 3f 00
        E 0 80 4b 00
        E 0 80 57 00
        E 0 80 63 00
        E 120 90 18 60
        E 0 90 54 60
        E 0 90 60 60
        E 120 80 18 00
        E 0 80 54 00
        E 0 80 60 00
        E 120 90 1a 60
        E 0 90 2a 60
        E 0 90 3d 60
        E 0 90 3f 60
        E 0 90 49 60
        E 0 90 4b 60
        E 0 90 55 60
        E 0 90 57 60
        E 0 90 61 60
        E 0 90 63 60
        E 120 80 1a 00
        E 0 80 2a 00
        E 0 80 3d 00
        E 0 80 3f 00
        E 0 80 49 00
        E 0 80 4b 00
        E 0 80 55 00
        E 0 80 57 00
        E 0 80 61 00
        E 0 80 63 00
        E 120 90 18 60
        E 0 90 54 60
        E 0 90 60 60
        E 120 80 18 00
        E 0 80 54 00
        E 0 80 60 00
        E 120 90 2a 60
        E 0 90 3f 60
        E 0 90 4b 60
        E 0 90 57 60
        E 0 90 63 60
        E 120 80 2a 00
        E 0 80 3f 00
        E 0 80 4b 00
        E 0 80 57 00
        E 0 80 63 00
        E 120 90 18 60
        E 0 90 54 60
        E 0 90 60 60
        E 120 80 18 00
        E 0 80 54 00
        E 0 80 60 00
        E 120 80 78 00
        E 0 80 79 00
        E 0 80 7a 00
        E 0 80 7b 00
        E 0 80 7c 00
        E 0 90 18 60
        E 0 90 2a 60
        E 0 90 3f 60
        E 0 90 48 60
        E 0 90 4b 60
        E 0 90 54 60
        E 0 90 57 60
        E 0 90 60 60
        E 0 90 63 60
        E 120 80 18 00
        E 0 80 2a 00
        E 0 80 3f 00
        E 0 80 48 00
        E 0 80 4b 00
        E 0 80 54 00
        E 0 80 57 00
        E 0 80 60 00
        E 0 80 63 00
        E 360 90 2a 60
        E 0 90 3f 60
        E 0 90 4b 60
        E 0 90 57 60
        E 0 90 63 60
        E 120 80 2a 00
        E 0 80 3f 00
        E 0 80 4b 00
        E 0 80 57 00
        E 0 80 63 00
        E 120 90 18 60
        E 0 90 54 60
        E 0 90 60 60
        E 120 80 18 00
        E 0 80 54 00
        E 0 80 60 00
        E 120 90 1a 60
        E 0 90 2a 60
        E 0 90 3d 60
        E 0 90 3f 60
        E 0 90 49 60
        E 0 90 4b 60
        E 0 90 55 60
        E 0 90 57 60
        E 0 90 61 60
        E 0 90 63 60
        E 120 80 1a 00
        E 0 80 2a 00
        E 0 80 3d 00
        E 0 80 3f 00
        E 0 80 49 00
        E 0 80 4b 00
        E 0 80 55 00
        E 0 80 57 00
        E 0 80 61 00
        E 0 80 63 00
        E 360 90 2a 60
        E 0 90 3f 60
        E 0 90 4b 60
        E 0 90 57 60
        E 0 90 63 60
        E 120 80 2a 00
        E 0 80 3f 00
        E 0 80 4b 00
        E 0 80 57 00
        E 0 80 63 00
        E 120 90 18 60
        E 0 90 54 60
        E 0 90 60 60
        E 120 80 18 00
        E 0 80 54 00
        E 0 80 60 00
        E 120 90 18 60
        E 0 90 2a 60
        E 0 90 3f 60
        E 0 90 48 60
        E 0 90 4b 60
        E 0 90 54 60
        E 0 90 57 60
        E 0 90 60 60
        E 0 90 63 60
        E 120 80 18 00
        E 0 80 2a 00
        E 0 80 3f 00
        E 0 80 48 00
        E 0 80 4b 00
        E 0 80 54 00
        E 0 80 57 00
        E 0 80 60 00
        E 0 80 63 00
        E 360 90 2a 60
        E 0 90 3f 60
        E 0 90 4b 60
        E 0 90 57 60
        E 0 90 63 60
        E 120 80 2a 00
        E 0 80 3f 00
        E 0 80 4b 00
        E 0 80 57 00
        E 0 80 63 00
        E 120 90 18 60
        E 0 90 54 60
        E 0 90 60 60
        E 120 80 18 00
        E 0 80 54 00
        E 0 80 60 00
        E 120 90 1a 60
        E 0 90 2a 60
        E 0 90 3d 60
        E 0 90 3f 60
        E 0 90 49 60
        E 0 90 4b 60
        E 0 90 55 60
        E 0 90 57 60
        E 0 90 61 60
        E 0 90 63 60
        E 120 80 1a 00
        E 0 80 2a 00
        E 0 80 3d 00
        E 0 80 3f 00
        E 0 80 49 00
        E 0 80 4b 00
        E 0 80 55 00
        E 0 80 57 00
        E 0 80 61 00
        E 0 80 63 00
        E 360 90 2a 60
        E 0 90 3f 60
        E 0 90 4b 60
        E 0 90 57 60
        E 0 90 63 60
        E 120 80 2a 00
        E 0 80 3f 00
        E 0 80 4b 00
        E 0 80 57 00
        E 0 80 63 00
        E 120 90 18 60
        E 0 90 54 60
        E 0 90 60 60
        E 120 80 18 00
        E 0 80 54 00
        E 0 80 60 00
        E 120 90 18 60
        E 0 90 2a 60
        E 0 90 3f 60
        E 0 90 48 60
        E 0 90 4b 60
        E 0 90 54 60
        E 0 90 57 60
        E 0 90 60 60
        E 0 90 63 60
        E 120 80 18 00
        E 0 80 2a 00
        E 0 80 3f 00
        E 0 80 48 00
        E 0 80 4b 00
        E 0 80 54 00
        E 0 80 57 00
        E 0 80 60 00
        E 0 80 63 00
        E 360 90 1a 60
        E 0 90 2a 60
        E 0 90 3d 60
        E 0 90 3f 60
        E 0 90 49 60
        E 0 90 4b 60
        E 0 90 55 60
        E 0 90 57 60
        E 0 90 61 60
        E 0 90 63 60
        E 120 80 1a 00
        E 0 80 2a 00
        E 0 80 3d 00
        E 0 80 3f 00
        E 0 80 49 00
        E 0 80 4b 00
        E 0 80 55 00
        E 0 80 57 00
        E 0 80 61 00
        E 0 80 63 00
        E 360 90 1a 60
        E 0 90 2a 60
        E 0 90 3d 60
        E 0 90 3f 60
        E 0 90 49 60
        E 0 90 4b 60
        E 0 90 55 60
        E 0 90 57 60
        E 0 90 61 60
        E 0 90 63 60
        E 120 80 1a 00
        E 0 80 2a 00
        E 0 80 3d 00
        E 0 80 3f 00
        E 0 80 49 00
        E 0 80 4b 00
        E 0 80 55 00
        E 0 80 57 00
        E 0 80 61 00
        E 0 80 63 00
        E 120 90 18 60
        E 0 90 54 60
        E 0 90 60 60
        E 120 80 18 00
        E 0 80 54 00
        E 0 80 60 00
        E 120 90 2a 60
        E 0 90 3f 60
        E 0 90 4b 60
        E 0 90 57 60
        E 0 90 63 60
        E 120 80 2a 00
        E 0 80 3f 00
        E 0 80 4b 00
        E 0 80 57 00
        E 0 80 63 00
        E 120 90 18 60
        E 0 90 54 60
        E 0 90 60 60
        E 120 80 18 00
        E 0 80 54 00
        E 0 80 60 00
        E 120 90 18 60
        E 0 90 2a 60
        E 0 90 3f 60
        E 0 90 48 60
        E 0 90 4b 60
        E 0 90 54 60
        E 0 90 57 60
        E 0 90 60 60
        E 0 90 63 60
        E 120 80 18 00
        E 0 80 2a 00
        E 0 80 3f 00
        E 0 80 48 00
        E 0 80 4b 00
        E 0 80 54 00
        E 0 80 57 00
        E 0 80 60 00
        E 0 80 63 00
        E 360 90 2a 60
        E 0 90 3f 60
        E 0 90 4b 60
        E 0 90 57 60
        E 0 90 63 60
        E 120 80 2a 00
        E 0 80 3f 00
        E 0 80 4b 00
        E 0 80 57 00
        E 0 80 63 00
        E 120 90 1a 60
        E 0 90 55 60
        E 0 90 61 60
        E 120 80 1a 00
        E 0 80 55 00
        E 0 80 61 00
        E 120 90 2a 60
        E 0 90 3f 60
        E 0 90 4b 60
        E 0 90 57 60
        E 0 90 63 60
        E 120 80 2a 00
        E 0 80 3f 00
        E 0 80 4b 00
        E 0 80 57 00
        E 0 80 63 00
        E 120 90 2f 60
        E 0 90 56 60
        E 0 90 62 60
        E 0 90 6e 60
        E 120 80 2f 00
        E 0 80 56 00
        E 0 80 62 00
        E 0 80 6e 00
        E 120 90 2e 60
        E 0 90 3e 60
        E 0 90 4a 60
        E 0 90 56 60
        E 0 90 62 60
        E 0 90 6e 60
        E 120 80 2e 00
        E 0 80 3e 00
        E 0 80 4a 00
        E 0 80 56 00
        E 0 80 62 00
        E 0 80 6e 00
        E 120 90 18 60
        E 0 90 54 60
        E 0 90 60 60
        E 120 80 18 00
        E 0 80 54 00
        E 0 80 60 00
        E 120 90 18 60
        E 0 90 26 60
        E 0 90 40 60
        E 0 90 48 60
        E 0 90 4c 60
        E 0 90 54 60
        E 0 90 58 60
        E 0 90 60 60
        E 0 90 64 60
        E 120 80 18 00
        E 0 80 26 00
        E 0 80 40 00
        E 0 80 48 00
        E 0 80 4c 00
        E 0 80 54 00
        E 0 80 58 00
        E 0 80 60 00
        E 0 80 64 00
        <X 120 0
          /wFbaWRsZV9yZWFsdGltZV0=
        >
        E 9360 b0 7b 00
        GUID {F4B0F6AF-EBB8-49E1-BFFA-1CEAF612B6BF}
        IGNTEMPO 0 120.00000000 4 4
        SRCCOLOR 41
        VELLANE 132 128 60
        COLORMAP "C:\Program Files\REAPER (x64)\Data\color_maps\rockband_guitarbass.png"
        CFGEDITVIEW -12864.530280 5.523216 0 12 0 0 0
        CFGEDIT 1 1 0 1 1 0 1 1 1 1 1 0.12500000 53 44 1253 718 0 2 1 1 0.00000000 0 1 1 0 0.500000 0 0 1.000000 64
        KEYSNAP 0 7 "102030050700" 0 "Pentatonic"
        EVTFILTER 0 -1 -1 -1 -1 0 1 0 0 -1.00000000 -1.00000000
      >
    >
  >
  <TRACK '{C3995FC0-2261-4407-8622-BF2AC59A1FC6}'
    NAME "PART BASS"
    PEAKCOL 16576
    BEAT -1
    AUTOMODE 0
    VOLPAN 1.00000000000000 0.00000000000000 -1.00000000000000 -1.00000000000000 1.00000000000000
    MUTESOLO 0 0 0
    IPHASE 0
    ISBUS 0 0
    BUSCOMP 0 0
    SHOWINMIX 1 0.666700 0.500000 1 0.500000 -1 -1 -1
    FREEMODE 0
    SEL 0
    REC 0 0 0 0 0 0 0
    VU 2
    TRACKHEIGHT 0 0
    INQ 0 0 0 0.5000000000 100 0 0 100
    NCHAN 2
    FX 1
    TRACKID {C3995FC0-2261-4407-8622-BF2AC59A1FC6}
    PERF 0
    MIDIOUT -1
    <MIDINOTENAMES
      0 127 "TRILL MARKER"
      0 126 "TREMOLO MARKER"
      0 125 "---"
      0 124 "BRE"
      0 123 "BRE"
      0 122 "BRE"
      0 121 "BRE"
      0 120 "BRE (use all 5)"
      0 119 "----"
      0 116 "OVERDRIVE"
      0 115 "----"
      0 103 "Solo Marker"
      0 102 "Force HOPO Off"
      0 101 "Force HOPO On"
      0 100 "EXPERT Orange"
      0 99 "EXPERT Blue"
      0 98 "EXPERT Yellow"
      0 97 "EXPERT Red"
      0 96 "EXPERT Green"
      0 95 "----"
      0 90 "Force HOPO Off"
      0 89 "Force HOPO On"
      0 88 "HARD Orange"
      0 87 "HARD Blue"
      0 86 "HARD Yellow"
      0 85 "HARD Red"
      0 84 "HARD Green"
      0 77 "----"
      0 76 "MEDIUM Orange"
      0 75 "MEDIUM Blue"
      0 74 "MEDIUM Yellow"
      0 73 "MEDIUM Red"
      0 72 "MEDIUM Green"
      0 65 "----"
      0 64 "EASY Orange"
      0 63 "EASY Blue"
      0 62 "EASY Yellow"
      0 61 "EASY Red"
      0 60 "EASY Green"
      0 59 "Fret 12"
      0 57 "Fret 11"
      0 56 "Fret 10"
      0 55 "Fret 9"
      0 53 "Fret 8"
      0 52 "Fret 7"
      0 50 "Fret 6"
      0 49 "Fret 5"
      0 47 "Fret 4"
      0 45 "Fret 3"
      0 43 "Fret 2"
      0 40 "Fret 1"
    >
    MAINSEND 1 0
    <FXCHAIN
      WNDRECT 0 43 891 559
      SHOW 0
      LASTSEL 0
      DOCKED 0
      BYPASS 0 0
      <VST "VSTi: RBN Preview (RBN)" "rbprev_vst64.dll" 0 ""
        dnBicu5e7f4AAAAAAgAAAAEAAAAAAAAAAgAAAAAAAAAEAAAAAQAAAA==
        AAAQAAMAqgAAABAAAAA=
      >
      FLOATPOS 0 0 0 0
      FXID {BEB61727-2F0D-4B6D-BE4A-151A625C1489}
      WAK 0
    >
    <ITEM
      POSITION 0.00000000000000
      SNAPOFFS 0.00000000000000
      LENGTH 236.43057157291659
      LOOP 0
      ALLTAKES 0
      SEL 0
      FADEIN 1 0.000000 0.000000 1 0
      FADEOUT 1 0.000000 0.000000 1 0
      MUTE 0
      IGUID {FB1C5056-2172-4F0A-BD12-139D5526BF45}
      IID 2
      NAME "PART BASS"
      VOLPAN 1.000000 0.000000 1.000000 -1.000000
      SOFFS 0.00000000000000 0.00000000000000
      PLAYRATE 1.00000000000000 1 0.00000000000000 -1
      CHANMODE 0
      GUID {09C7406F-281D-4912-94EB-DC8B425E3C75}
      <SOURCE MIDI
        HASDATA 1 480 QN
        POOLEDEVTS {5900C6A7-09F3-4D56-873D-D04DA9F77242}
        <X 0 0
          /wNQQVJUIEJBU1M=
        >
        <X 3840 0
          /wFbbWVsbG93XQ==
        >
        E 0 90 35 60
        E 0 90 3e 60
        E 0 90 4b 60
        E 0 90 58 60
        E 0 90 64 60
        E 480 80 3e 00
        E 0 80 4b 00
        E 0 80 58 00
        E 0 80 64 00
        E 480 90 3e 60
        E 0 90 4b 60
        E 0 90 57 60
        E 0 90 63 60
        E 480 80 3e 00
        E 0 80 4b 00
        E 0 80 57 00
        E 0 80 63 00
        E 360 80 35 00
        E 120 90 31 60
        E 0 90 3d 60
        E 0 90 49 60
        E 0 90 55 60
        E 0 90 61 60
        E 480 80 3d 00
        E 0 80 49 00
        E 0 80 55 00
        E 0 80 61 00
        E 480 90 3c 60
        E 0 90 48 60
        E 0 90 54 60
        E 0 90 60 60
        E 480 80 3c 00
        E 0 80 48 00
        E 0 80 54 00
        E 0 80 60 00
        E 360 80 31 00
        E 120 90 2b 60
        E 0 90 3e 60
        E 0 90 4a 60
        E 0 90 56 60
        E 0 90 62 60
        E 480 80 3e 00
        E 0 80 4a 00
        E 0 80 56 00
        E 0 80 62 00
        E 480 90 3d 60
        E 0 90 49 60
        E 0 90 55 60
        E 0 90 61 60
        E 480 80 3d 00
        E 0 80 49 00
        E 0 80 55 00
        E 0 80 61 00
        E 480 90 3c 60
        E 0 90 48 60
        E 0 90 54 60
        E 0 90 60 60
        E 0 90 74 60
        E 1440 80 3c 00
        E 0 80 48 00
        E 0 80 54 00
        E 0 80 60 00
        E 120 80 2b 00
        E 120 90 34 60
        E 0 90 54 60
        E 0 90 60 60
        E 120 80 34 00
        E 0 80 54 00
        E 0 80 60 00
        E 120 80 74 00
        E 0 90 35 60
        E 0 90 3e 60
        E 0 90 4b 60
        E 0 90 58 60
        E 0 90 64 60
        E 480 80 3e 00
        E 0 80 4b 00
        E 0 80 58 00
        E 0 80 64 00
        E 480 90 3e 60
        E 0 90 4b 60
        E 0 90 57 60
        E 0 90 63 60
        E 480 80 3e 00
        E 0 80 4b 00
        E 0 80 57 00
        E 0 80 63 00
        E 360 80 35 00
        E 120 90 31 60
        E 0 90 3d 60
        E 0 90 49 60
        E 0 90 55 60
        E 0 90 61 60
        E 480 80 3d 00
        E 0 80 49 00
        E 0 80 55 00
        E 0 80 61 00
        E 480 90 3c 60
        E 0 90 48 60
        E 0 90 54 60
        E 0 90 60 60
        E 480 80 3c 00
        E 0 80 48 00
        E 0 80 54 00
        E 0 80 60 00
        E 360 80 31 00
        E 120 90 2b 60
        E 0 90 3e 60
        E 0 90 4a 60
        E 0 90 56 60
        E 0 90 62 60
        E 120 80 3e 00
        E 0 80 4a 00
        E 0 80 56 00
        E 0 80 62 00
        E 360 90 4a 60
        E 0 90 56 60
        E 0 90 62 60
        E 120 80 4a 00
        E 0 80 56 00
        E 0 80 62 00
        E 360 90 3d 60
        E 0 90 49 60
        E 0 90 55 60
        E 0 90 61 60
        E 480 80 3d 00
        E 0 80 49 00
        E 0 80 55 00
        E 0 80 61 00
        E 480 90 3c 60
        E 0 90 48 60
        E 0 90 54 60
        E 0 90 60 60
        E 120 80 3c 00
        E 0 80 48 00
        E 0 80 54 00
        E 0 80 60 00
        E 120 90 48 60
        E 0 90 54 60
        E 0 90 60 60
        E 120 80 48 00
        E 0 80 54 00
        E 0 80 60 00
        E 360 90 54 60
        E 0 90 60 60
        E 120 80 2b 00
        E 0 80 54 00
        E 0 80 60 00
        E 120 90 31 60
        E 0 90 3e 60
        E 0 90 4a 60
        E 0 90 56 60
        E 0 90 62 60
        E 120 80 3e 00
        E 0 80 4a 00
        E 0 80 56 00
        E 0 80 62 00
        E 360 90 3e 60
        E 0 90 4a 60
        E 0 90 56 60
        E 0 90 62 60
        E 120 80 3e 00
        E 0 80 4a 00
        E 0 80 56 00
        E 0 80 62 00
        E 240 80 31 00
        E 120 90 35 60
        E 0 90 3e 60
        E 0 90 4b 60
        E 0 90 58 60
        E 0 90 64 60
        E 480 80 3e 00
        E 0 80 4b 00
        E 0 80 58 00
        E 0 80 64 00
        E 480 90 3e 60
        E 0 90 4b 60
        E 0 90 57 60
        E 0 90 63 60
        E 480 80 3e 00
        E 0 80 4b 00
        E 0 80 57 00
        E 0 80 63 00
        E 360 80 35 00
        E 120 90 31 60
        E 0 90 3d 60
        E 0 90 49 60
        E 0 90 55 60
        E 0 90 61 60
        E 720 80 3d 00
        E 0 80 49 00
        E 0 80 55 00
        E 0 80 61 00
        E 480 90 54 60
        E 0 90 60 60
        E 0 90 74 60
        E 120 80 54 00
        E 0 80 60 00
        E 120 90 3e 60
        E 0 90 4b 60
        E 0 90 57 60
        E 0 90 63 60
        E 120 80 3e 00
        E 0 80 4b 00
        E 0 80 57 00
        E 0 80 63 00
        E 120 90 54 60
        E 0 90 60 60
        E 120 80 31 00
        E 0 80 54 00
        E 0 80 60 00
        E 120 90 2b 60
        E 0 90 3e 60
        E 0 90 4a 60
        E 0 90 56 60
        E 0 90 62 60
        E 480 80 3e 00
        E 0 80 4a 00
        E 0 80 56 00
        E 0 80 62 00
        E 480 90 3d 60
        E 0 90 49 60
        E 0 90 55 60
        E 0 90 61 60
        E 480 80 3d 00
        E 0 80 49 00
        E 0 80 55 00
        E 0 80 61 00
        E 480 90 3c 60
        E 0 90 48 60
        E 0 90 54 60
        E 0 90 60 60
        E 120 80 74 00
        E 1320 80 3c 00
        E 0 80 48 00
        E 0 80 54 00
        E 0 80 60 00
        E 360 80 2b 00
        E 120 90 35 60
        E 0 90 3e 60
        E 0 90 4b 60
        E 0 90 58 60
        E 0 90 64 60
        E 480 80 3e 00
        E 0 80 4b 00
        E 0 80 58 00
        E 0 80 64 00
        E 480 90 3e 60
        E 0 90 4b 60
        E 0 90 57 60
        E 0 90 63 60
        E 480 80 3e 00
        E 0 80 4b 00
        E 0 80 57 00
        E 0 80 63 00
        E 360 80 35 00
        E 120 90 31 60
        E 0 90 3d 60
        E 0 90 49 60
        E 0 90 55 60
        E 0 90 61 60
        E 480 80 3d 00
        E 0 80 49 00
        E 0 80 55 00
        E 0 80 61 00
        E 480 90 3c 60
        E 0 90 48 60
        E 0 90 54 60
        E 0 90 60 60
        E 480 80 3c 00
        E 0 80 48 00
        E 0 80 54 00
        E 0 80 60 00
        E 360 80 31 00
        E 120 90 2b 60
        E 0 90 3e 60
        E 0 90 4a 60
        E 0 90 56 60
        E 0 90 62 60
        E 480 80 3e 00
        E 0 80 4a 00
        E 0 80 56 00
        E 0 80 62 00
        E 480 90 3d 60
        E 0 90 49 60
        E 0 90 55 60
        E 0 90 61 60
        E 480 80 3d 00
        E 0 80 49 00
        E 0 80 55 00
        E 0 80 61 00
        E 480 90 3c 60
        E 0 90 48 60
        E 0 90 54 60
        E 0 90 60 60
        E 1440 80 3c 00
        E 0 80 48 00
        E 0 80 54 00
        E 0 80 60 00
        E 120 80 2b 00
        E 120 90 35 60
        E 0 90 54 60
        E 0 90 60 60
        E 120 80 54 00
        E 0 80 60 00
        E 120 90 3e 60
        E 0 90 4b 60
        E 0 90 58 60
        E 0 90 64 60
        E 480 80 3e 00
        E 0 80 4b 00
        E 0 80 58 00
        E 0 80 64 00
        E 480 90 3e 60
        E 0 90 4b 60
        E 0 90 57 60
        E 0 90 63 60
        E 480 80 3e 00
        E 0 80 4b 00
        E 0 80 57 00
        E 0 80 63 00
        E 360 80 35 00
        E 120 90 31 60
        E 0 90 3d 60
        E 0 90 49 60
        E 0 90 55 60
        E 0 90 61 60
        E 960 80 3d 00
        E 0 80 49 00
        E 0 80 55 00
        E 0 80 61 00
        E 240 90 54 60
        E 0 90 60 60
        E 120 80 54 00
        E 0 80 60 00
        E 120 90 3e 60
        E 0 90 4b 60
        E 0 90 57 60
        E 0 90 63 60
        E 120 80 3e 00
        E 0 80 4b 00
        E 0 80 57 00
        E 0 80 63 00
        E 120 90 54 60
        E 0 90 60 60
        E 120 80 31 00
        E 0 80 54 00
        E 0 80 60 00
        E 120 90 2b 60
        E 0 90 3e 60
        E 0 90 4a 60
        E 0 90 56 60
        E 0 90 62 60
        E 1440 80 3e 00
        E 0 80 4a 00
        E 0 80 56 00
        E 0 80 62 00
        E 360 80 2b 00
        E 120 90 31 60
        E 0 90 3e 60
        E 0 90 4b 60
        E 0 90 57 60
        E 0 90 63 60
        E 120 80 3e 00
        E 0 80 4b 00
        E 0 80 57 00
        E 0 80 63 00
        E 120 90 54 60
        E 0 90 60 60
        E 120 80 54 00
        E 0 80 60 00
        E 120 90 3e 60
        E 0 90 4b 60
        E 0 90 57 60
        E 0 90 63 60
        E 960 80 3e 00
        E 0 80 4b 00
        E 0 80 57 00
        E 0 80 63 00
        E 360 80 31 00
        E 120 90 35 60
        E 0 90 3e 60
        E 0 90 4b 60
        E 0 90 58 60
        E 0 90 64 60
        E 480 80 3e 00
        E 0 80 4b 00
        E 0 80 58 00
        E 0 80 64 00
        E 480 90 3e 60
        E 0 90 4b 60
        E 0 90 57 60
        E 0 90 63 60
        E 480 80 3e 00
        E 0 80 4b 00
        E 0 80 57 00
        E 0 80 63 00
        E 360 80 35 00
        E 120 90 31 60
        E 0 90 3d 60
        E 0 90 49 60
        E 0 90 55 60
        E 0 90 61 60
        E 480 80 3d 00
        E 0 80 49 00
        E 0 80 55 00
        E 0 80 61 00
        E 480 90 3c 60
        E 0 90 48 60
        E 0 90 54 60
        E 0 90 60 60
        E 480 80 3c 00
        E 0 80 48 00
        E 0 80 54 00
        E 0 80 60 00
        E 360 80 31 00
        E 120 90 2b 60
        E 0 90 3e 60
        E 0 90 4a 60
        E 0 90 56 60
        E 0 90 62 60
        E 480 80 3e 00
        E 0 80 4a 00
        E 0 80 56 00
        E 0 80 62 00
        E 480 90 3d 60
        E 0 90 49 60
        E 0 90 55 60
        E 0 90 61 60
        E 480 80 3d 00
        E 0 80 49 00
        E 0 80 55 00
        E 0 80 61 00
        E 480 90 3c 60
        E 0 90 48 60
        E 0 90 54 60
        E 0 90 60 60
        E 960 80 3c 00
        E 0 80 48 00
        E 0 80 54 00
        E 0 80 60 00
        E 120 80 2b 00
        E 120 90 31 60
        E 0 90 54 60
        E 0 90 60 60
        E 120 80 54 00
        E 0 80 60 00
        E 120 90 3e 60
        E 0 90 4b 60
        E 0 90 57 60
        E 0 90 63 60
        E 120 80 3e 00
        E 0 80 4b 00
        E 0 80 57 00
        E 0 80 63 00
        E 240 80 31 00
        E 120 90 35 60
        E 0 90 3e 60
        E 0 90 4b 60
        E 0 90 58 60
        E 0 90 64 60
        E 0 90 74 60
        E 480 80 3e 00
        E 0 80 4b 00
        E 0 80 58 00
        E 0 80 64 00
        E 480 90 3e 60
        E 0 90 4b 60
        E 0 90 57 60
        E 0 90 63 60
        E 480 80 3e 00
        E 0 80 4b 00
        E 0 80 57 00
        E 0 80 63 00
        E 360 80 35 00
        E 120 90 31 60
        E 0 90 3d 60
        E 0 90 49 60
        E 0 90 55 60
        E 0 90 61 60
        E 120 80 74 00
        E 1320 80 3d 00
        E 0 80 49 00
        E 0 80 55 00
        E 0 80 61 00
        E 360 80 31 00
        E 120 90 2b 60
        E 0 90 3e 60
        E 0 90 4a 60
        E 0 90 56 60
        E 0 90 62 60
        E 120 80 3e 00
        E 0 80 4a 00
        E 0 80 56 00
        E 0 80 62 00
        E 360 90 4a 60
        E 0 90 56 60
        E 0 90 62 60
        E 120 80 4a 00
        E 0 80 56 00
        E 0 80 62 00
        E 360 90 3d 60
        E 0 90 49 60
        E 0 90 55 60
        E 0 90 61 60
        E 480 80 3d 00
        E 0 80 49 00
        E 0 80 55 00
        E 0 80 61 00
        E 480 90 3c 60
        E 0 90 48 60
        E 0 90 54 60
        E 0 90 60 60
        E 1440 80 3c 00
        E 0 80 48 00
        E 0 80 54 00
        E 0 80 60 00
        E 240 90 54 60
        E 0 90 60 60
        E 120 80 2b 00
        E 0 80 54 00
        E 0 80 60 00
        E 120 90 35 60
        E 0 90 3e 60
        E 0 90 4b 60
        E 0 90 58 60
        E 0 90 64 60
        E 480 80 3e 00
        E 0 80 4b 00
        E 0 80 58 00
        E 0 80 64 00
        E 480 90 3e 60
        E 0 90 4b 60
        E 0 90 57 60
        E 0 90 63 60
        E 480 80 3e 00
        E 0 80 4b 00
        E 0 80 57 00
        E 0 80 63 00
        E 360 80 35 00
        E 120 90 31 60
        E 0 90 3d 60
        E 0 90 49 60
        E 0 90 55 60
        E 0 90 61 60
        E 480 80 3d 00
        E 0 80 49 00
        E 0 80 55 00
        E 0 80 61 00
        E 480 90 3c 60
        E 0 90 48 60
        E 0 90 54 60
        E 0 90 60 60
        E 480 80 3c 00
        E 0 80 48 00
        E 0 80 54 00
        E 0 80 60 00
        E 360 80 31 00
        E 120 90 2b 60
        E 0 90 3e 60
        E 0 90 4a 60
        E 0 90 56 60
        E 0 90 62 60
        E 480 80 3e 00
        E 0 80 4a 00
        E 0 80 56 00
        E 0 80 62 00
        E 480 90 3d 60
        E 0 90 49 60
        E 0 90 55 60
        E 0 90 61 60
        E 480 80 3d 00
        E 0 80 49 00
        E 0 80 55 00
        E 0 80 61 00
        E 480 90 3c 60
        E 0 90 48 60
        E 0 90 54 60
        E 0 90 60 60
        E 1440 80 3c 00
        E 0 80 48 00
        E 0 80 54 00
        E 0 80 60 00
        E 360 80 2b 00
        E 120 90 35 60
        E 0 90 3e 60
        E 0 90 4b 60
        E 0 90 58 60
        E 0 90 64 60
        E 480 80 3e 00
        E 0 80 4b 00
        E 0 80 58 00
        E 0 80 64 00
        E 480 90 3e 60
        E 0 90 4b 60
        E 0 90 57 60
        E 0 90 63 60
        E 480 80 3e 00
        E 0 80 4b 00
        E 0 80 57 00
        E 0 80 63 00
        E 360 80 35 00
        E 120 90 31 60
        E 0 90 3d 60
        E 0 90 49 60
        E 0 90 55 60
        E 0 90 61 60
        E 960 80 3d 00
        E 0 80 49 00
        E 0 80 55 00
        E 0 80 61 00
        E 480 90 48 60
        E 0 90 54 60
        E 0 90 60 60
        E 120 80 48 00
        E 0 80 54 00
        E 0 80 60 00
        E 240 80 31 00
        E 120 90 2d 60
        E 0 90 3e 60
        E 0 90 4a 60
        E 0 90 56 60
        E 0 90 62 60
        E 480 80 3e 00
        E 0 80 4a 00
        E 240 80 56 00
        E 0 80 62 00
        E 240 90 3e 60
        E 0 90 4a 60
        E 0 90 56 60
        E 0 90 62 60
        E 480 80 3e 00
        E 0 80 4a 00
        E 0 80 56 00
        E 0 80 62 00
        E 480 90 3e 60
        E 0 90 4b 60
        E 0 90 57 60
        E 0 90 63 60
        E 120 80 3e 00
        E 0 80 4b 00
        E 0 80 57 00
        E 0 80 63 00
        E 120 90 54 60
        E 0 90 60 60
        E 120 80 54 00
        E 0 80 60 00
        E 120 90 3e 60
        E 0 90 4b 60
        E 0 90 57 60
        E 0 90 63 60
        E 480 80 3e 00
        E 0 80 4b 00
        E 240 80 57 00
        E 0 80 63 00
        E 240 90 3e 60
        E 0 90 4b 60
        E 0 90 57 60
        E 0 90 63 60
        E 120 80 3e 00
        E 0 80 4b 00
        E 0 80 57 00
        E 0 80 63 00
        E 120 90 54 60
        E 0 90 60 60
        E 120 80 2d 00
        E 0 80 54 00
        E 0 80 60 00
        E 120 90 35 60
        E 0 90 3e 60
        E 0 90 4b 60
        E 0 90 58 60
        E 0 90 64 60
        E 1440 80 3e 00
        E 0 80 4b 00
        E 0 80 58 00
        E 0 80 64 00
        E 480 90 3d 60
        E 0 90 49 60
        E 0 90 55 60
        E 0 90 61 60
        E 1440 80 3d 00
        E 0 80 49 00
        E 0 80 55 00
        E 0 80 61 00
        E 480 90 3e 60
        E 0 90 4b 60
        E 0 90 58 60
        E 0 90 64 60
        E 1680 80 3e 00
        E 0 80 4b 00
        E 240 80 58 00
        E 0 80 64 00
        E 120 80 35 00
        E 120 90 2d 60
        E 0 90 48 60
        E 0 90 54 60
        E 0 90 60 60
        E 120 80 48 00
        E 0 80 54 00
        E 0 80 60 00
        E 120 90 3c 60
        E 0 90 48 60
        E 0 90 54 60
        E 0 90 60 60
        E 120 80 3c 00
        E 0 80 48 00
        E 360 80 54 00
        E 0 80 60 00
        E 240 90 48 60
        E 0 90 54 60
        E 0 90 60 60
        E 120 80 48 00
        E 0 80 54 00
        E 0 80 60 00
        E 120 90 48 60
        E 0 90 54 60
        E 0 90 60 60
        E 120 80 48 00
        E 0 80 54 00
        E 0 80 60 00
        E 120 90 54 60
        E 0 90 60 60
        E 120 80 54 00
        E 0 80 60 00
        <X 120 0
          /wFbcGxheV0=
        >
        E 0 90 3e 60
        E 0 90 4a 60
        E 0 90 56 60
        E 0 90 62 60
        E 480 80 3e 00
        E 0 80 4a 00
        E 240 80 56 00
        E 0 80 62 00
        E 240 90 3e 60
        E 0 90 4a 60
        E 0 90 56 60
        E 0 90 62 60
        E 960 80 3e 00
        E 0 80 4a 00
        E 240 80 56 00
        E 0 80 62 00
        E 240 90 3c 60
        E 0 90 48 60
        E 0 90 54 60
        E 0 90 60 60
        E 120 80 3c 00
        E 0 80 48 00
        E 0 80 54 00
        E 0 80 60 00
        E 120 90 55 60
        E 0 90 61 60
        E 120 80 55 00
        E 0 80 61 00
        E 360 90 4a 60
        E 0 90 56 60
        E 0 90 62 60
        E 120 80 4a 00
        E 0 80 56 00
        E 0 80 62 00
        E 360 90 54 60
        E 0 90 60 60
        E 120 80 54 00
        E 0 80 60 00
        E 120 90 3e 60
        E 0 90 4b 60
        E 0 90 57 60
        E 0 90 63 60
        E 480 80 3e 00
        E 0 80 4b 00
        E 240 80 57 00
        E 0 80 63 00
        E 240 90 3e 60
        E 0 90 4b 60
        E 0 90 57 60
        E 0 90 63 60
        E 1920 80 3e 00
        E 0 80 4b 00
        E 0 80 57 00
        E 0 80 63 00
        E 240 90 54 60
        E 0 90 60 60
        E 120 80 54 00
        E 0 80 60 00
        E 120 90 3e 60
        E 0 90 4b 60
        E 0 90 57 60
        E 0 90 63 60
        E 120 80 3e 00
        E 0 80 4b 00
        E 0 80 57 00
        E 0 80 63 00
        E 120 90 54 60
        E 0 90 60 60
        E 120 80 54 00
        E 0 80 60 00
        E 120 90 3e 60
        E 0 90 4a 60
        E 0 90 56 60
        E 0 90 62 60
        E 0 90 74 60
        E 480 80 3e 00
        E 0 80 4a 00
        E 240 80 56 00
        E 0 80 62 00
        E 240 90 3e 60
        E 0 90 4a 60
        E 0 90 56 60
        E 0 90 62 60
        E 1200 80 3e 00
        E 0 80 4a 00
        E 240 80 56 00
        E 0 80 62 00
        E 240 90 3e 60
        E 0 90 4b 60
        E 0 90 58 60
        E 0 90 64 60
        E 120 80 3e 00
        E 0 80 4b 00
        E 0 80 58 00
        E 0 80 64 00
        E 360 90 4a 60
        E 0 90 56 60
        E 0 90 62 60
        E 120 80 4a 00
        E 0 80 56 00
        E 0 80 62 00
        E 480 80 2d 00
        E 120 90 31 60
        E 0 90 3e 60
        E 0 90 4b 60
        E 0 90 57 60
        E 0 90 63 60
        E 120 80 74 00
        E 3240 80 3e 00
        E 0 80 4b 00
        E 0 80 57 00
        E 0 80 63 00
        E 480 90 3e 60
        E 0 90 4b 60
        E 0 90 58 60
        E 0 90 64 60
        E 3360 80 3e 00
        E 0 80 4b 00
        E 0 80 58 00
        E 0 80 64 00
        E 360 80 31 00
        <X 120 0
          /wFbbWVsbG93XQ==
        >
        E 0 90 35 60
        E 0 90 3e 60
        E 0 90 4b 60
        E 0 90 58 60
        E 0 90 64 60
        E 480 80 3e 00
        E 0 80 4b 00
        E 0 80 58 00
        E 0 80 64 00
        E 480 90 3e 60
        E 0 90 4b 60
        E 0 90 57 60
        E 0 90 63 60
        E 480 80 3e 00
        E 0 80 4b 00
        E 0 80 57 00
        E 0 80 63 00
        E 360 80 35 00
        E 120 90 31 60
        E 0 90 3d 60
        E 0 90 49 60
        E 0 90 55 60
        E 0 90 61 60
        E 480 80 3d 00
        E 0 80 49 00
        E 0 80 55 00
        E 0 80 61 00
        E 480 90 3c 60
        E 0 90 48 60
        E 0 90 54 60
        E 0 90 60 60
        E 480 80 3c 00
        E 0 80 48 00
        E 0 80 54 00
        E 0 80 60 00
        E 360 80 31 00
        E 120 90 2b 60
        E 0 90 3e 60
        E 0 90 4a 60
        E 0 90 56 60
        E 0 90 62 60
        E 480 80 3e 00
        E 0 80 4a 00
        E 0 80 56 00
        E 0 80 62 00
        E 480 90 3d 60
        E 0 90 49 60
        E 0 90 55 60
        E 0 90 61 60
        E 480 80 3d 00
        E 0 80 49 00
        E 0 80 55 00
        E 0 80 61 00
        E 480 90 3c 60
        E 0 90 48 60
        E 0 90 54 60
        E 0 90 60 60
        E 960 80 3c 00
        E 0 80 48 00
        E 0 80 54 00
        E 0 80 60 00
        E 360 80 2b 00
        E 120 90 31 60
        E 0 90 48 60
        E 0 90 54 60
        E 0 90 60 60
        E 120 80 48 00
        E 0 80 54 00
        E 0 80 60 00
        E 240 80 31 00
        E 120 90 35 60
        E 0 90 3e 60
        E 0 90 4b 60
        E 0 90 58 60
        E 0 90 64 60
        E 480 80 3e 00
        E 0 80 4b 00
        E 0 80 58 00
        E 0 80 64 00
        E 480 90 3e 60
        E 0 90 4b 60
        E 0 90 57 60
        E 0 90 63 60
        E 480 80 3e 00
        E 0 80 4b 00
        E 0 80 57 00
        E 0 80 63 00
        E 360 80 35 00
        E 120 90 31 60
        E 0 90 3d 60
        E 0 90 49 60
        E 0 90 55 60
        E 0 90 61 60
        E 480 80 3d 00
        E 0 80 49 00
        E 0 80 55 00
        E 0 80 61 00
        E 480 90 3c 60
        E 0 90 48 60
        E 0 90 54 60
        E 0 90 60 60
        E 480 80 3c 00
        E 0 80 48 00
        E 0 80 54 00
        E 0 80 60 00
        E 360 80 31 00
        E 120 90 2b 60
        E 0 90 3e 60
        E 0 90 4a 60
        E 0 90 56 60
        E 0 90 62 60
        E 480 80 3e 00
        E 0 80 4a 00
        E 0 80 56 00
        E 0 80 62 00
        E 480 90 3d 60
        E 0 90 49 60
        E 0 90 55 60
        E 0 90 61 60
        E 480 80 3d 00
        E 0 80 49 00
        E 0 80 55 00
        E 0 80 61 00
        E 480 90 3c 60
        E 0 90 48 60
        E 0 90 54 60
        E 0 90 60 60
        E 120 80 3c 00
        E 0 80 48 00
        E 0 80 54 00
        E 0 80 60 00
        E 360 90 3c 60
        E 0 90 48 60
        E 0 90 54 60
        E 0 90 60 60
        E 960 80 3c 00
        E 0 80 48 00
        E 240 80 54 00
        E 0 80 60 00
        E 120 80 2b 00
        E 120 90 35 60
        E 0 90 3e 60
        E 0 90 4b 60
        E 0 90 58 60
        E 0 90 64 60
        E 480 80 3e 00
        E 0 80 4b 00
        E 0 80 58 00
        E 0 80 64 00
        E 480 90 3e 60
        E 0 90 4b 60
        E 0 90 57 60
        E 0 90 63 60
        E 480 80 3e 00
        E 0 80 4b 00
        E 0 80 57 00
        E 0 80 63 00
        E 360 80 35 00
        E 120 90 31 60
        E 0 90 3d 60
        E 0 90 49 60
        E 0 90 55 60
        E 0 90 61 60
        E 960 80 3d 00
        E 0 80 49 00
        E 0 80 55 00
        E 0 80 61 00
        E 240 90 54 60
        E 0 90 60 60
        E 120 80 54 00
        E 0 80 60 00
        E 120 90 3e 60
        E 0 90 4b 60
        E 0 90 57 60
        E 0 90 63 60
        E 120 80 31 00
        E 0 80 3e 00
        E 0 80 4b 00
        E 0 80 57 00
        E 0 80 63 00
        E 120 90 2b 60
        E 0 90 54 60
        E 0 90 60 60
        E 120 80 54 00
        E 0 80 60 00
        E 120 90 3e 60
        E 0 90 4a 60
        E 0 90 56 60
        E 0 90 62 60
        E 480 80 3e 00
        E 0 80 4a 00
        E 0 80 56 00
        E 0 80 62 00
        E 480 90 3d 60
        E 0 90 49 60
        E 0 90 55 60
        E 0 90 61 60
        E 480 80 3d 00
        E 0 80 49 00
        E 0 80 55 00
        E 0 80 61 00
        E 480 90 3c 60
        E 0 90 48 60
        E 0 90 54 60
        E 0 90 60 60
        E 960 80 3c 00
        E 0 80 48 00
        E 240 80 54 00
        E 0 80 60 00
        E 240 90 48 60
        E 0 90 54 60
        E 0 90 60 60
        E 120 80 48 00
        E 0 80 54 00
        E 0 80 60 00
        E 240 80 2b 00
        E 120 90 35 60
        E 0 90 3e 60
        E 0 90 4b 60
        E 0 90 58 60
        E 0 90 64 60
        E 480 80 3e 00
        E 0 80 4b 00
        E 0 80 58 00
        E 0 80 64 00
        E 480 90 3e 60
        E 0 90 4b 60
        E 0 90 57 60
        E 0 90 63 60
        E 480 80 3e 00
        E 0 80 4b 00
        E 0 80 57 00
        E 0 80 63 00
        E 360 80 35 00
        E 120 90 31 60
        E 0 90 3d 60
        E 0 90 49 60
        E 0 90 55 60
        E 0 90 61 60
        E 480 80 3d 00
        E 0 80 49 00
        E 0 80 55 00
        E 0 80 61 00
        E 480 90 3c 60
        E 0 90 48 60
        E 0 90 54 60
        E 0 90 60 60
        E 480 80 3c 00
        E 0 80 48 00
        E 0 80 54 00
        E 0 80 60 00
        E 360 80 31 00
        E 120 90 2b 60
        E 0 90 3e 60
        E 0 90 4a 60
        E 0 90 56 60
        E 0 90 62 60
        E 480 80 3e 00
        E 0 80 4a 00
        E 0 80 56 00
        E 0 80 62 00
        E 480 90 3d 60
        E 0 90 49 60
        E 0 90 55 60
        E 0 90 61 60
        E 480 80 3d 00
        E 0 80 49 00
        E 0 80 55 00
        E 0 80 61 00
        E 480 90 3c 60
        E 0 90 48 60
        E 0 90 54 60
        E 0 90 60 60
        E 0 90 74 60
        E 120 80 3c 00
        E 0 80 48 00
        E 0 80 54 00
        E 0 80 60 00
        E 360 90 3c 60
        E 0 90 48 60
        E 0 90 54 60
        E 0 90 60 60
        E 480 80 3c 00
        E 0 80 48 00
        E 0 80 54 00
        E 0 80 60 00
        E 240 90 54 60
        E 0 90 60 60
        E 120 80 54 00
        E 0 80 60 00
        E 120 90 3e 60
        E 0 90 4a 60
        E 0 90 56 60
        E 0 90 62 60
        E 120 80 3e 00
        E 0 80 4a 00
        E 0 80 56 00
        E 0 80 62 00
        E 120 90 63 60
        E 120 80 2b 00
        E 0 80 63 00
        E 120 90 35 60
        E 0 90 3e 60
        E 0 90 4b 60
        E 0 90 58 60
        E 0 90 64 60
        E 480 80 74 00
        E 0 80 3e 00
        E 0 80 4b 00
        E 0 80 58 00
        E 0 80 64 00
        E 480 90 3e 60
        E 0 90 4b 60
        E 0 90 57 60
        E 0 90 63 60
        E 480 80 3e 00
        E 0 80 4b 00
        E 0 80 57 00
        E 0 80 63 00
        E 360 80 35 00
        E 120 90 31 60
        E 0 90 3d 60
        E 0 90 49 60
        E 0 90 55 60
        E 0 90 61 60
        E 480 80 3d 00
        E 0 80 49 00
        E 0 80 55 00
        E 0 80 61 00
        E 480 90 3c 60
        E 0 90 48 60
        E 0 90 54 60
        E 0 90 60 60
        E 480 80 3c 00
        E 0 80 48 00
        E 0 80 54 00
        E 0 80 60 00
        E 360 80 31 00
        E 120 90 2d 60
        E 0 90 3e 60
        E 0 90 4a 60
        E 0 90 56 60
        E 0 90 62 60
        E 1440 80 3e 00
        E 0 80 4a 00
        E 0 80 56 00
        E 0 80 62 00
        E 480 90 3e 60
        E 0 90 4b 60
        E 0 90 57 60
        E 0 90 63 60
        E 120 80 3e 00
        E 0 80 4b 00
        E 0 80 57 00
        E 0 80 63 00
        E 360 90 3e 60
        E 0 90 4b 60
        E 0 90 57 60
        E 0 90 63 60
        E 120 80 3e 00
        E 0 80 4b 00
        E 480 80 57 00
        E 0 80 63 00
        E 120 90 4b 60
        E 0 90 57 60
        E 0 90 63 60
        E 120 80 4b 00
        E 0 80 57 00
        E 0 80 63 00
        E 360 90 54 60
        E 0 90 60 60
        E 120 80 2d 00
        E 0 80 54 00
        E 0 80 60 00
        E 120 90 35 60
        E 0 90 3e 60
        E 0 90 4b 60
        E 0 90 58 60
        E 0 90 64 60
        E 480 80 3e 00
        E 0 80 4b 00
        E 0 80 58 00
        E 0 80 64 00
        E 480 90 3e 60
        E 0 90 4b 60
        E 0 90 57 60
        E 0 90 63 60
        E 480 80 3e 00
        E 0 80 4b 00
        E 0 80 57 00
        E 0 80 63 00
        E 360 80 35 00
        E 120 90 31 60
        E 0 90 3d 60
        E 0 90 49 60
        E 0 90 55 60
        E 0 90 61 60
        E 960 80 3d 00
        E 0 80 49 00
        E 0 80 55 00
        E 0 80 61 00
        E 240 90 54 60
        E 0 90 60 60
        E 120 80 54 00
        E 0 80 60 00
        E 120 90 3e 60
        E 0 90 4b 60
        E 0 90 57 60
        E 0 90 63 60
        E 120 80 31 00
        E 0 80 3e 00
        E 0 80 4b 00
        E 0 80 57 00
        E 0 80 63 00
        E 120 90 2b 60
        E 0 90 54 60
        E 0 90 60 60
        E 120 80 54 00
        E 0 80 60 00
        E 120 90 3e 60
        E 0 90 4a 60
        E 0 90 56 60
        E 0 90 62 60
        E 1440 80 3e 00
        E 0 80 4a 00
        E 0 80 56 00
        E 0 80 62 00
        E 240 90 54 60
        E 0 90 60 60
        E 120 80 54 00
        E 0 80 60 00
        E 120 90 3e 60
        E 0 90 4b 60
        E 0 90 57 60
        E 0 90 63 60
        E 1440 80 3e 00
        E 0 80 4b 00
        E 0 80 57 00
        E 0 80 63 00
        E 360 80 2b 00
        E 120 90 35 60
        E 0 90 3e 60
        E 0 90 4b 60
        E 0 90 58 60
        E 0 90 64 60
        E 480 80 3e 00
        E 0 80 4b 00
        E 0 80 58 00
        E 0 80 64 00
        E 480 90 3e 60
        E 0 90 4b 60
        E 0 90 57 60
        E 0 90 63 60
        E 480 80 3e 00
        E 0 80 4b 00
        E 0 80 57 00
        E 0 80 63 00
        E 360 80 35 00
        E 120 90 31 60
        E 0 90 3d 60
        E 0 90 49 60
        E 0 90 55 60
        E 0 90 61 60
        E 960 80 3d 00
        E 0 80 49 00
        E 0 80 55 00
        E 0 80 61 00
        E 240 90 54 60
        E 0 90 60 60
        E 120 80 54 00
        E 0 80 60 00
        E 120 90 3e 60
        E 0 90 4b 60
        E 0 90 57 60
        E 0 90 63 60
        E 120 80 31 00
        E 0 80 3e 00
        E 0 80 4b 00
        E 0 80 57 00
        E 0 80 63 00
        E 120 90 2b 60
        E 0 90 54 60
        E 0 90 60 60
        E 120 80 54 00
        E 0 80 60 00
        E 120 90 3e 60
        E 0 90 4a 60
        E 0 90 56 60
        E 0 90 62 60
        E 480 80 3e 00
        E 0 80 4a 00
        E 0 80 56 00
        E 0 80 62 00
        E 480 90 3d 60
        E 0 90 49 60
        E 0 90 55 60
        E 0 90 61 60
        E 480 80 3d 00
        E 0 80 49 00
        E 0 80 55 00
        E 0 80 61 00
        E 480 90 3c 60
        E 0 90 48 60
        E 0 90 54 60
        E 0 90 60 60
        E 1440 80 3c 00
        E 0 80 48 00
        E 0 80 54 00
        E 0 80 60 00
        E 360 80 2b 00
        E 120 90 35 60
        E 0 90 3e 60
        E 0 90 4b 60
        E 0 90 58 60
        E 0 90 64 60
        E 0 90 74 60
        E 480 80 3e 00
        E 0 80 4b 00
        E 0 80 58 00
        E 0 80 64 00
        E 480 90 3e 60
        E 0 90 4b 60
        E 0 90 57 60
        E 0 90 63 60
        E 480 80 3e 00
        E 0 80 4b 00
        E 0 80 57 00
        E 0 80 63 00
        E 360 80 35 00
        E 120 90 31 60
        E 0 90 3d 60
        E 0 90 49 60
        E 0 90 55 60
        E 0 90 61 60
        E 480 80 3d 00
        E 0 80 49 00
        E 0 80 55 00
        E 0 80 61 00
        E 480 90 3c 60
        E 0 90 48 60
        E 0 90 54 60
        E 0 90 60 60
        E 120 80 74 00
        E 360 80 3c 00
        E 0 80 48 00
        E 0 80 54 00
        E 0 80 60 00
        E 360 80 31 00
        E 120 90 2b 60
        E 0 90 3e 60
        E 0 90 4a 60
        E 0 90 56 60
        E 0 90 62 60
        E 480 80 3e 00
        E 0 80 4a 00
        E 0 80 56 00
        E 0 80 62 00
        E 480 90 3d 60
        E 0 90 49 60
        E 0 90 55 60
        E 0 90 61 60
        E 480 80 3d 00
        E 0 80 49 00
        E 0 80 55 00
        E 0 80 61 00
        E 480 90 3c 60
        E 0 90 48 60
        E 0 90 54 60
        E 0 90 60 60
        E 120 80 3c 00
        E 0 80 48 00
        E 0 80 54 00
        E 0 80 60 00
        E 360 90 3c 60
        E 0 90 48 60
        E 0 90 54 60
        E 0 90 60 60
        E 960 80 3c 00
        E 0 80 48 00
        E 0 80 54 00
        E 0 80 60 00
        E 360 80 2b 00
        E 120 90 35 60
        E 0 90 3e 60
        E 0 90 4b 60
        E 0 90 58 60
        E 0 90 64 60
        E 480 80 3e 00
        E 0 80 4b 00
        E 0 80 58 00
        E 0 80 64 00
        E 480 90 3e 60
        E 0 90 4b 60
        E 0 90 57 60
        E 0 90 63 60
        E 480 80 3e 00
        E 0 80 4b 00
        E 0 80 57 00
        E 0 80 63 00
        E 360 80 35 00
        E 120 90 31 60
        E 0 90 3d 60
        E 0 90 49 60
        E 0 90 55 60
        E 0 90 61 60
        E 480 80 3d 00
        E 0 80 49 00
        E 0 80 55 00
        E 0 80 61 00
        E 480 90 3c 60
        E 0 90 48 60
        E 0 90 54 60
        E 0 90 60 60
        E 480 80 3c 00
        E 0 80 48 00
        E 0 80 54 00
        E 0 80 60 00
        E 360 80 31 00
        E 120 90 2d 60
        E 0 90 3e 60
        E 0 90 4a 60
        E 0 90 56 60
        E 0 90 62 60
        E 480 80 3e 00
        E 0 80 4a 00
        E 240 80 56 00
        E 0 80 62 00
        E 240 90 3e 60
        E 0 90 4a 60
        E 0 90 56 60
        E 0 90 62 60
        E 480 80 3e 00
        E 0 80 4a 00
        E 0 80 56 00
        E 0 80 62 00
        E 480 90 3e 60
        E 0 90 4b 60
        E 0 90 57 60
        E 0 90 63 60
        E 120 80 3e 00
        E 0 80 4b 00
        E 0 80 57 00
        E 0 80 63 00
        E 360 90 3e 60
        E 0 90 4b 60
        E 0 90 57 60
        E 0 90 63 60
        E 960 80 3e 00
        E 0 80 4b 00
        E 0 80 57 00
        E 0 80 63 00
        E 240 90 54 60
        E 0 90 60 60
        E 120 80 2d 00
        E 0 80 54 00
        E 0 80 60 00
        E 120 90 35 60
        E 0 90 3e 60
        E 0 90 49 60
        E 0 90 55 60
        E 0 90 61 60
        E 720 80 49 00
        E 120 80 3e 00
        E 0 80 55 00
        E 0 80 61 00
        E 120 90 4b 60
        E 0 90 58 60
        E 0 90 64 60
        E 480 80 4b 00
        E 0 80 58 00
        E 0 80 64 00
        E 480 90 3d 60
        E 0 90 49 60
        E 0 90 55 60
        E 0 90 61 60
        E 960 80 3d 00
        E 0 80 49 00
        E 0 80 55 00
        E 0 80 61 00
        E 240 90 54 60
        E 0 90 60 60
        E 120 80 54 00
        E 0 80 60 00
        E 120 90 49 60
        E 0 90 55 60
        E 0 90 61 60
        E 120 80 49 00
        E 0 80 55 00
        E 0 80 61 00
        E 120 90 54 60
        E 0 90 60 60
        E 120 80 54 00
        E 0 80 60 00
        E 120 90 3e 60
        E 0 90 4b 60
        E 0 90 58 60
        E 0 90 64 60
        E 2160 80 3e 00
        E 0 80 4b 00
        E 240 80 58 00
        E 0 80 64 00
        E 120 80 35 00
        E 120 90 31 60
        E 0 90 3e 60
        E 0 90 4b 60
        E 0 90 57 60
        E 0 90 63 60
        E 120 80 3e 00
        E 0 80 4b 00
        E 0 80 57 00
        E 0 80 63 00
        E 360 90 4a 60
        E 0 90 56 60
        E 0 90 62 60
        E 120 80 4a 00
        E 0 80 56 00
        E 0 80 62 00
        E 240 80 31 00
        E 120 90 2d 60
        E 0 90 54 60
        E 0 90 60 60
        E 120 80 54 00
        E 0 80 60 00
        <X 120 0
          /wFbcGxheV0=
        >
        E 0 90 3e 60
        E 0 90 4a 60
        E 0 90 56 60
        E 0 90 62 60
        E 480 80 3e 00
        E 0 80 4a 00
        E 360 80 56 00
        E 0 80 62 00
        E 120 90 3e 60
        E 0 90 4a 60
        E 0 90 56 60
        E 0 90 62 60
        E 1440 80 3e 00
        E 0 80 4a 00
        E 240 80 56 00
        E 0 80 62 00
        E 240 90 3c 60
        E 0 90 48 60
        E 0 90 54 60
        E 0 90 60 60
        E 0 90 74 60
        E 120 80 3c 00
        E 0 80 48 00
        E 0 80 54 00
        E 0 80 60 00
        E 120 90 55 60
        E 0 90 61 60
        E 120 80 55 00
        E 0 80 61 00
        E 600 90 3e 60
        E 0 90 4b 60
        E 0 90 57 60
        E 0 90 63 60
        E 480 80 3e 00
        E 0 80 4b 00
        E 360 80 57 00
        E 0 80 63 00
        E 120 90 3e 60
        E 0 90 4b 60
        E 0 90 57 60
        E 0 90 63 60
        E 120 80 74 00
        E 1800 80 3e 00
        E 0 80 4b 00
        E 0 80 57 00
        E 0 80 63 00
        E 960 90 3e 60
        E 0 90 4a 60
        E 0 90 56 60
        E 0 90 62 60
        E 2160 80 3e 00
        E 0 80 4a 00
        E 0 80 56 00
        E 0 80 62 00
        E 480 90 3e 60
        E 0 90 4b 60
        E 0 90 58 60
        E 0 90 64 60
        E 120 80 3e 00
        E 0 80 4b 00
        E 0 80 58 00
        E 0 80 64 00
        E 360 90 48 60
        E 0 90 54 60
        E 0 90 60 60
        E 120 80 48 00
        E 0 80 54 00
        E 0 80 60 00
        E 360 90 54 60
        E 0 90 60 60
        E 120 80 2d 00
        E 0 80 54 00
        E 0 80 60 00
        E 120 90 31 60
        E 0 90 3e 60
        E 0 90 4b 60
        E 0 90 57 60
        E 0 90 63 60
        E 3360 80 3e 00
        E 0 80 4b 00
        E 0 80 57 00
        E 0 80 63 00
        E 480 90 3e 60
        E 0 90 4b 60
        E 0 90 58 60
        E 0 90 64 60
        E 3360 80 3e 00
        E 0 80 4b 00
        E 0 80 58 00
        E 0 80 64 00
        E 120 80 31 00
        E 120 90 35 60
        E 0 90 54 60
        E 0 90 60 60
        E 120 80 54 00
        E 0 80 60 00
        E 120 90 3e 60
        E 0 90 4b 60
        E 0 90 58 60
        E 0 90 64 60
        E 480 80 3e 00
        E 0 80 4b 00
        E 240 80 58 00
        E 0 80 64 00
        E 240 90 3e 60
        E 0 90 4b 60
        E 0 90 57 60
        E 0 90 63 60
        E 0 90 74 60
        E 480 80 3e 00
        E 0 80 4b 00
        E 0 80 57 00
        E 0 80 63 00
        E 360 80 35 00
        E 120 90 31 60
        E 0 90 3d 60
        E 0 90 49 60
        E 0 90 55 60
        E 0 90 61 60
        E 480 80 3d 00
        E 0 80 49 00
        E 0 80 55 00
        E 0 80 61 00
        E 480 90 3c 60
        E 0 90 48 60
        E 0 90 54 60
        E 0 90 60 60
        E 480 80 3c 00
        E 0 80 48 00
        E 0 80 54 00
        E 0 80 60 00
        E 360 80 31 00
        E 120 90 2b 60
        E 0 90 3e 60
        E 0 90 4a 60
        E 0 90 56 60
        E 0 90 62 60
        E 120 80 74 00
        E 360 80 3e 00
        E 0 80 4a 00
        E 0 80 56 00
        E 0 80 62 00
        E 480 90 3d 60
        E 0 90 49 60
        E 0 90 55 60
        E 0 90 61 60
        E 480 80 3d 00
        E 0 80 49 00
        E 0 80 55 00
        E 0 80 61 00
        E 480 90 3c 60
        E 0 90 48 60
        E 0 90 54 60
        E 0 90 60 60
        E 1440 80 3c 00
        E 0 80 48 00
        E 0 80 54 00
        E 0 80 60 00
        E 360 80 2b 00
        E 120 90 35 60
        E 0 90 3e 60
        E 0 90 4b 60
        E 0 90 58 60
        E 0 90 64 60
        E 480 80 3e 00
        E 0 80 4b 00
        E 240 80 58 00
        E 0 80 64 00
        E 240 90 3e 60
        E 0 90 4b 60
        E 0 90 57 60
        E 0 90 63 60
        E 480 80 3e 00
        E 0 80 4b 00
        E 0 80 57 00
        E 0 80 63 00
        E 360 80 35 00
        E 120 90 31 60
        E 0 90 3d 60
        E 0 90 49 60
        E 0 90 55 60
        E 0 90 61 60
        E 480 80 3d 00
        E 0 80 49 00
        E 0 80 55 00
        E 0 80 61 00
        E 480 90 3c 60
        E 0 90 48 60
        E 0 90 54 60
        E 0 90 60 60
        E 480 80 3c 00
        E 0 80 48 00
        E 0 80 54 00
        E 0 80 60 00
        E 360 80 31 00
        E 120 90 2b 60
        E 0 90 3e 60
        E 0 90 4a 60
        E 0 90 56 60
        E 0 90 62 60
        E 480 80 3e 00
        E 0 80 4a 00
        E 0 80 56 00
        E 0 80 62 00
        E 480 90 3d 60
        E 0 90 49 60
        E 0 90 55 60
        E 0 90 61 60
        E 480 80 3d 00
        E 0 80 49 00
        E 0 80 55 00
        E 0 80 61 00
        E 480 90 3c 60
        E 0 90 48 60
        E 0 90 54 60
        E 0 90 60 60
        E 120 80 3c 00
        E 0 80 48 00
        E 0 80 54 00
        E 0 80 60 00
        E 360 90 3c 60
        E 0 90 48 60
        E 0 90 54 60
        E 0 90 60 60
        E 480 80 3c 00
        E 0 80 48 00
        E 0 80 54 00
        E 0 80 60 00
        E 240 90 54 60
        E 0 90 60 60
        E 120 80 2b 00
        E 0 80 54 00
        E 0 80 60 00
        E 120 90 31 60
        E 0 90 3e 60
        E 0 90 4a 60
        E 0 90 56 60
        E 0 90 62 60
        E 120 80 3e 00
        E 0 80 4a 00
        E 0 80 56 00
        E 0 80 62 00
        E 120 90 57 60
        E 0 90 63 60
        E 120 80 57 00
        E 0 80 63 00
        E 120 90 3e 60
        E 0 90 4b 60
        E 0 90 58 60
        E 0 90 64 60
        E 480 80 3e 00
        E 0 80 4b 00
        E 240 80 58 00
        E 0 80 64 00
        E 240 90 3e 60
        E 0 90 4b 60
        E 0 90 57 60
        E 0 90 63 60
        E 480 80 3e 00
        E 0 80 4b 00
        E 0 80 57 00
        E 0 80 63 00
        E 360 80 31 00
        E 120 90 31 60
        E 0 90 3d 60
        E 0 90 49 60
        E 0 90 55 60
        E 0 90 61 60
        E 480 80 3d 00
        E 0 80 49 00
        E 0 80 55 00
        E 0 80 61 00
        E 480 90 3c 60
        E 0 90 48 60
        E 0 90 54 60
        E 0 90 60 60
        E 480 80 3c 00
        E 0 80 48 00
        E 0 80 54 00
        E 0 80 60 00
        E 360 80 31 00
        E 120 90 2b 60
        E 0 90 3e 60
        E 0 90 4a 60
        E 0 90 56 60
        E 0 90 62 60
        E 480 80 3e 00
        E 0 80 4a 00
        E 0 80 56 00
        E 0 80 62 00
        E 480 90 3d 60
        E 0 90 49 60
        E 0 90 55 60
        E 0 90 61 60
        E 480 80 3d 00
        E 0 80 49 00
        E 0 80 55 00
        E 0 80 61 00
        E 480 90 3c 60
        E 0 90 48 60
        E 0 90 54 60
        E 0 90 60 60
        E 1440 80 3c 00
        E 0 80 48 00
        E 0 80 54 00
        E 0 80 60 00
        E 480 90 3e 60
        E 0 90 4b 60
        E 0 90 58 60
        E 0 90 64 60
        E 480 80 3e 00
        E 0 80 4b 00
        E 0 80 58 00
        E 0 80 64 00
        E 480 90 3e 60
        E 0 90 4b 60
        E 0 90 57 60
        E 0 90 63 60
        E 480 80 3e 00
        E 0 80 4b 00
        E 0 80 57 00
        E 0 80 63 00
        E 360 80 2b 00
        E 120 90 31 60
        E 0 90 3d 60
        E 0 90 49 60
        E 0 90 55 60
        E 0 90 61 60
        E 480 80 3d 00
        E 0 80 49 00
        E 0 80 55 00
        E 0 80 61 00
        E 480 90 3c 60
        E 0 90 48 60
        E 0 90 54 60
        E 0 90 60 60
        E 480 80 3c 00
        E 0 80 48 00
        E 0 80 54 00
        E 0 80 60 00
        E 360 80 31 00
        E 120 90 2b 60
        E 0 90 3e 60
        E 0 90 4b 60
        E 0 90 57 60
        E 0 90 63 60
        E 480 80 3e 00
        E 0 80 4b 00
        E 0 80 57 00
        E 0 80 63 00
        E 480 90 3e 60
        E 0 90 4a 60
        E 0 90 56 60
        E 0 90 62 60
        E 480 80 3e 00
        E 0 80 4a 00
        E 0 80 56 00
        E 0 80 62 00
        E 480 90 3d 60
        E 0 90 49 60
        E 0 90 55 60
        E 0 90 61 60
        E 480 80 3d 00
        E 0 80 49 00
        E 0 80 55 00
        E 0 80 61 00
        E 480 90 3e 60
        E 0 90 4a 60
        E 0 90 56 60
        E 0 90 62 60
        E 480 80 3e 00
        E 0 80 4a 00
        E 0 80 56 00
        E 0 80 62 00
        E 360 80 2b 00
        E 120 90 2d 60
        E 0 90 3c 60
        E 0 90 48 60
        E 0 90 54 60
        E 0 90 60 60
        <X 6719 0
          /wFbaWRsZV9yZWFsdGltZV0=
        >
        E 0 80 2d 00
        E 0 80 3c 00
        E 0 80 48 00
        E 0 80 54 00
        E 0 80 60 00
        E 2881 b0 7b 00
        GUID {A8CF3397-45D0-468E-9A1C-5B757A46E0B0}
        IGNTEMPO 0 120.00000000 4 4
        SRCCOLOR 42
        VELLANE 132 128 60
        COLORMAP "C:\Program Files\REAPER (x64)\Data\color_maps\rockband_guitarbass.png"
        CFGEDITVIEW -12864.530280 5.523216 6 12 0 0 0
        CFGEDIT 1 1 0 1 1 0 1 1 1 1 1 0.12500000 53 44 1253 718 0 2 1 1 0.00000000 0 1 1 0 0.500000 0 0 1.000000 64
        KEYSNAP 0 7 "102030050700" 0 "Pentatonic"
        EVTFILTER 0 -1 -1 -1 -1 0 1 0 0 -1.00000000 -1.00000000
      >
    >
  >
  <TRACK '{C3EE87A1-12DE-4E1D-B32B-A10333911BC7}'
    NAME "PART GUITAR"
    PEAKCOL 16576
    BEAT -1
    AUTOMODE 0
    VOLPAN 1.00000000000000 0.00000000000000 -1.00000000000000 -1.00000000000000 1.00000000000000
    MUTESOLO 0 0 0
    IPHASE 0
    ISBUS 0 0
    BUSCOMP 0 0
    SHOWINMIX 1 0.666700 0.500000 1 0.500000 -1 -1 -1
    FREEMODE 0
    SEL 0
    REC 0 0 0 0 0 0 0
    VU 2
    TRACKHEIGHT 0 0
    INQ 0 0 0 0.5000000000 100 0 0 100
    NCHAN 2
    FX 1
    TRACKID {C3EE87A1-12DE-4E1D-B32B-A10333911BC7}
    PERF 0
    MIDIOUT -1
    <MIDINOTENAMES
      0 127 "TRILL MARKER"
      0 126 "TREMOLO MARKER"
      0 125 "---"
      0 124 "BRE"
      0 123 "BRE"
      0 122 "BRE"
      0 121 "BRE"
      0 120 "BRE (use all 5)"
      0 119 "----"
      0 116 "OVERDRIVE"
      0 115 "----"
      0 103 "Solo Marker"
      0 102 "Force HOPO Off"
      0 101 "Force HOPO On"
      0 100 "EXPERT Orange"
      0 99 "EXPERT Blue"
      0 98 "EXPERT Yellow"
      0 97 "EXPERT Red"
      0 96 "EXPERT Green"
      0 95 "----"
      0 90 "Force HOPO Off"
      0 89 "Force HOPO On"
      0 88 "HARD Orange"
      0 87 "HARD Blue"
      0 86 "HARD Yellow"
      0 85 "HARD Red"
      0 84 "HARD Green"
      0 77 "----"
      0 76 "MEDIUM Orange"
      0 75 "MEDIUM Blue"
      0 74 "MEDIUM Yellow"
      0 73 "MEDIUM Red"
      0 72 "MEDIUM Green"
      0 65 "----"
      0 64 "EASY Orange"
      0 63 "EASY Blue"
      0 62 "EASY Yellow"
      0 61 "EASY Red"
      0 60 "EASY Green"
      0 59 "Fret 12"
      0 57 "Fret 11"
      0 56 "Fret 10"
      0 55 "Fret 9"
      0 53 "Fret 8"
      0 52 "Fret 7"
      0 50 "Fret 6"
      0 49 "Fret 5"
      0 47 "Fret 4"
      0 45 "Fret 3"
      0 43 "Fret 2"
      0 40 "Fret 1"
    >
    MAINSEND 1 0
    <FXCHAIN
      WNDRECT 0 43 891 559
      SHOW 0
      LASTSEL 0
      DOCKED 0
      BYPASS 0 0
      <VST "VSTi: RBN Preview (RBN)" "rbprev_vst64.dll" 0 ""
        dnBicu5e7f4AAAAAAgAAAAEAAAAAAAAAAgAAAAAAAAAEAAAAAQAAAA==
        AAAQAAMAqgAAABAAAAA=
      >
      FLOATPOS 0 0 0 0
      FXID {CF4C8668-F880-4B3E-9B4D-F245ED9DF110}
      WAK 0
    >
    <ITEM
      POSITION 0.00000000000000
      SNAPOFFS 0.00000000000000
      LENGTH 236.43057157291659
      LOOP 0
      ALLTAKES 0
      SEL 0
      FADEIN 1 0.000000 0.000000 1 0
      FADEOUT 1 0.000000 0.000000 1 0
      MUTE 0
      IGUID {1ADF95EB-EFC4-4E6A-8B3F-0D364DC67B33}
      IID 3
      NAME "PART GUITAR"
      VOLPAN 1.000000 0.000000 1.000000 -1.000000
      SOFFS 0.00000000000000 0.00000000000000
      PLAYRATE 1.00000000000000 1 0.00000000000000 -1
      CHANMODE 0
      GUID {6A80BAA7-007B-49F2-AD76-C3606A34D80D}
      <SOURCE MIDI
        HASDATA 1 480 QN
        POOLEDEVTS {39BE8DDF-9922-4DDE-9097-EC04FB82A898}
        <X 0 0
          /wNQQVJUIEdVSVRBUg==
        >
        <X 3840 0
          /wFbbWVsbG93XQ==
        >
        E 0 90 2b 60
        E 0 90 3e 60
        E 0 90 49 60
        E 0 90 4a 60
        E 0 90 54 60
        E 0 90 57 60
        E 0 90 60 60
        E 0 90 62 60
        E 0 90 63 60
        E 120 80 3e 00
        E 0 80 49 00
        E 0 80 4a 00
        E 240 80 54 00
        E 0 80 57 00
        E 0 80 60 00
        E 0 80 62 00
        E 0 80 63 00
        E 120 90 49 60
        E 0 90 4a 60
        E 0 90 54 60
        E 0 90 57 60
        E 0 90 60 60
        E 0 90 62 60
        E 0 90 63 60
        E 120 80 49 00
        E 0 80 4a 00
        E 0 80 54 00
        E 0 80 57 00
        E 0 80 60 00
        E 0 80 62 00
        E 0 80 63 00
        E 120 90 54 60
        E 0 90 60 60
        E 120 80 54 00
        E 0 80 60 00
        E 120 90 3d 60
        E 0 90 48 60
        E 0 90 4a 60
        E 0 90 54 60
        E 0 90 56 60
        E 0 90 60 60
        E 0 90 61 60
        E 0 90 63 60
        E 120 80 3d 00
        E 0 80 48 00
        E 0 80 4a 00
        E 240 80 54 00
        E 0 80 56 00
        E 0 80 60 00
        E 0 80 61 00
        E 0 80 63 00
        E 120 90 48 60
        E 0 90 4a 60
        E 0 90 54 60
        E 0 90 56 60
        E 0 90 60 60
        E 0 90 61 60
        E 0 90 63 60
        E 120 80 48 00
        E 0 80 4a 00
        E 0 80 54 00
        E 0 80 56 00
        E 0 80 60 00
        E 0 80 61 00
        E 0 80 63 00
        E 120 90 54 60
        E 0 90 60 60
        E 120 80 54 00
        E 0 80 60 00
        E 120 90 3c 60
        E 0 90 48 60
        E 0 90 49 60
        E 0 90 54 60
        E 0 90 55 60
        E 0 90 60 60
        E 0 90 61 60
        E 0 90 62 60
        E 120 80 3c 00
        E 0 80 48 00
        E 0 80 49 00
        E 240 80 54 00
        E 0 80 55 00
        E 0 80 60 00
        E 0 80 61 00
        E 0 80 62 00
        E 120 90 3c 60
        E 0 90 48 60
        E 0 90 49 60
        E 0 90 54 60
        E 0 90 55 60
        E 0 90 60 60
        E 0 90 61 60
        E 0 90 62 60
        E 120 80 3c 00
        E 0 80 48 00
        E 0 80 49 00
        E 240 80 54 00
        E 0 80 55 00
        E 0 80 60 00
        E 0 80 61 00
        E 0 80 62 00
        E 120 90 3c 60
        E 0 90 48 60
        E 0 90 49 60
        E 0 90 54 60
        E 0 90 55 60
        E 0 90 60 60
        E 0 90 61 60
        E 0 90 62 60
        E 120 80 3c 00
        E 0 80 48 00
        E 0 80 49 00
        E 240 80 54 00
        E 0 80 55 00
        E 0 80 60 00
        E 0 80 61 00
        E 0 80 62 00
        E 120 90 48 60
        E 0 90 49 60
        E 0 90 54 60
        E 0 90 55 60
        E 0 90 60 60
        E 0 90 61 60
        E 0 90 62 60
        E 120 80 2b 00
        E 0 80 48 00
        E 0 80 49 00
        E 0 80 54 00
        E 0 80 55 00
        E 0 80 60 00
        E 0 80 61 00
        E 0 80 62 00
        E 120 90 28 60
        E 0 90 55 60
        E 0 90 61 60
        E 120 80 55 00
        E 0 80 61 00
        E 120 90 40 60
        E 0 90 4b 60
        E 0 90 4c 60
        E 0 90 56 60
        E 0 90 58 60
        E 0 90 61 60
        E 0 90 63 60
        E 0 90 64 60
        E 120 80 40 00
        E 0 80 4b 00
        E 0 80 4c 00
        E 240 80 56 00
        E 0 80 58 00
        E 0 80 61 00
        E 0 80 63 00
        E 0 80 64 00
        E 120 90 4b 60
        E 0 90 4c 60
        E 0 90 56 60
        E 0 90 58 60
        E 0 90 61 60
        E 0 90 63 60
        E 0 90 64 60
        E 120 80 4b 00
        E 0 80 4c 00
        E 0 80 56 00
        E 0 80 58 00
        E 0 80 61 00
        E 0 80 63 00
        E 0 80 64 00
        E 120 90 55 60
        E 0 90 61 60
        E 120 80 55 00
        E 0 80 61 00
        E 120 90 3f 60
        E 0 90 4a 60
        E 0 90 4b 60
        E 0 90 55 60
        E 0 90 58 60
        E 0 90 61 60
        E 0 90 62 60
        E 0 90 64 60
        E 120 80 3f 00
        E 0 80 4a 00
        E 0 80 4b 00
        E 0 80 55 00
        E 0 80 58 00
        E 0 80 61 00
        E 0 80 62 00
        E 0 80 64 00
        E 120 90 4a 60
        E 0 90 4b 60
        E 0 90 55 60
        E 0 90 58 60
        E 0 90 61 60
        E 0 90 62 60
        E 0 90 64 60
        E 120 80 4a 00
        E 0 80 4b 00
        E 0 80 55 00
        E 0 80 58 00
        E 0 80 61 00
        E 0 80 62 00
        E 0 80 64 00
        E 120 90 4a 60
        E 0 90 4b 60
        E 0 90 55 60
        E 0 90 58 60
        E 0 90 61 60
        E 0 90 62 60
        E 0 90 64 60
        E 120 80 4a 00
        E 0 80 4b 00
        E 0 80 55 00
        E 0 80 58 00
        E 0 80 61 00
        E 0 80 62 00
        E 0 80 64 00
        E 120 90 55 60
        E 0 90 61 60
        E 120 80 55 00
        E 0 80 61 00
        E 120 90 3e 60
        E 0 90 49 60
        E 0 90 4b 60
        E 0 90 55 60
        E 0 90 57 60
        E 0 90 61 60
        E 0 90 62 60
        E 0 90 63 60
        E 0 90 74 60
        E 120 80 3e 00
        E 0 80 49 00
        E 0 80 4b 00
        E 240 80 55 00
        E 0 80 57 00
        E 0 80 61 00
        E 0 80 62 00
        E 0 80 63 00
        E 120 90 3e 60
        E 0 90 49 60
        E 0 90 4b 60
        E 0 90 55 60
        E 0 90 57 60
        E 0 90 61 60
        E 0 90 62 60
        E 0 90 63 60
        E 120 80 3e 00
        E 0 80 49 00
        E 0 80 4b 00
        E 0 80 55 00
        E 0 80 57 00
        E 0 80 61 00
        E 0 80 62 00
        E 0 80 63 00
        E 120 90 49 60
        E 0 90 4b 60
        E 0 90 55 60
        E 0 90 57 60
        E 0 90 61 60
        E 0 90 62 60
        E 0 90 63 60
        E 120 80 49 00
        E 0 80 4b 00
        E 0 80 55 00
        E 0 80 57 00
        E 0 80 61 00
        E 0 80 62 00
        E 0 80 63 00
        E 120 90 3e 60
        E 0 90 49 60
        E 0 90 4b 60
        E 0 90 55 60
        E 0 90 57 60
        E 0 90 61 60
        E 0 90 62 60
        E 0 90 63 60
        E 120 80 3e 00
        E 0 80 49 00
        E 0 80 4b 00
        E 0 80 55 00
        E 0 80 57 00
        E 0 80 61 00
        E 0 80 62 00
        E 0 80 63 00
        E 120 90 49 60
        E 0 90 4b 60
        E 0 90 55 60
        E 0 90 57 60
        E 0 90 61 60
        E 0 90 62 60
        E 0 90 63 60
        E 120 80 49 00
        E 0 80 4b 00
        E 0 80 55 00
        E 0 80 57 00
        E 0 80 61 00
        E 0 80 62 00
        E 0 80 63 00
        E 120 90 3e 60
        E 0 90 49 60
        E 0 90 4b 60
        E 0 90 55 60
        E 0 90 57 60
        E 0 90 61 60
        E 0 90 62 60
        E 0 90 63 60
        E 120 80 28 00
        E 0 80 3e 00
        E 0 80 49 00
        E 0 80 4b 00
        E 0 80 55 00
        E 0 80 57 00
        E 0 80 61 00
        E 0 80 62 00
        E 0 80 63 00
        E 120 90 2b 60
        E 0 90 54 60
        E 0 90 60 60
        E 120 80 54 00
        E 0 80 60 00
        E 120 80 74 00
        E 0 90 3e 60
        E 0 90 49 60
        E 0 90 4a 60
        E 0 90 54 60
        E 0 90 57 60
        E 0 90 60 60
        E 0 90 62 60
        E 0 90 63 60
        E 120 80 3e 00
        E 0 80 49 00
        E 0 80 4a 00
        E 240 80 54 00
        E 0 80 57 00
        E 0 80 60 00
        E 0 80 62 00
        E 0 80 63 00
        E 120 90 49 60
        E 0 90 4a 60
        E 0 90 54 60
        E 0 90 57 60
        E 0 90 60 60
        E 0 90 62 60
        E 0 90 63 60
        E 120 80 49 00
        E 0 80 4a 00
        E 0 80 54 00
        E 0 80 57 00
        E 0 80 60 00
        E 0 80 62 00
        E 0 80 63 00
        E 120 90 54 60
        E 0 90 60 60
        E 120 80 54 00
        E 0 80 60 00
        E 120 90 3d 60
        E 0 90 48 60
        E 0 90 4a 60
        E 0 90 54 60
        E 0 90 56 60
        E 0 90 60 60
        E 0 90 61 60
        E 0 90 63 60
        E 120 80 3d 00
        E 0 80 48 00
        E 0 80 4a 00
        E 240 80 54 00
        E 0 80 56 00
        E 0 80 60 00
        E 0 80 61 00
        E 0 80 63 00
        E 120 90 48 60
        E 0 90 4a 60
        E 0 90 54 60
        E 0 90 56 60
        E 0 90 60 60
        E 0 90 61 60
        E 0 90 63 60
        E 120 80 48 00
        E 0 80 4a 00
        E 0 80 54 00
        E 0 80 56 00
        E 0 80 60 00
        E 0 80 61 00
        E 0 80 63 00
        E 120 90 54 60
        E 0 90 60 60
        E 120 80 54 00
        E 0 80 60 00
        E 120 90 3c 60
        E 0 90 48 60
        E 0 90 49 60
        E 0 90 54 60
        E 0 90 55 60
        E 0 90 60 60
        E 0 90 61 60
        E 0 90 62 60
        E 120 80 3c 00
        E 0 80 48 00
        E 0 80 49 00
        E 240 80 54 00
        E 0 80 55 00
        E 0 80 60 00
        E 0 80 61 00
        E 0 80 62 00
        E 120 90 3c 60
        E 0 90 48 60
        E 0 90 49 60
        E 0 90 54 60
        E 0 90 55 60
        E 0 90 60 60
        E 0 90 61 60
        E 120 80 3c 00
        E 0 80 48 00
        E 0 80 49 00
        E 0 80 54 00
        E 0 80 55 00
        E 0 80 60 00
        E 0 80 61 00
        E 120 90 48 60
        E 0 90 49 60
        E 0 90 54 60
        E 0 90 55 60
        E 0 90 60 60
        E 0 90 61 60
        E 0 90 62 60
        E 120 80 48 00
        E 0 80 49 00
        E 0 80 54 00
        E 0 80 55 00
        E 0 80 60 00
        E 0 80 61 00
        E 0 80 62 00
        E 120 90 3c 60
        E 0 90 48 60
        E 0 90 49 60
        E 0 90 54 60
        E 0 90 55 60
        E 0 90 60 60
        E 0 90 61 60
        E 120 80 3c 00
        E 0 80 48 00
        E 0 80 49 00
        E 0 80 54 00
        E 0 80 55 00
        E 0 80 60 00
        E 0 80 61 00
        E 120 90 48 60
        E 0 90 49 60
        E 0 90 54 60
        E 0 90 55 60
        E 0 90 60 60
        E 0 90 61 60
        E 0 90 62 60
        E 120 80 48 00
        E 0 80 49 00
        E 0 80 54 00
        E 0 80 55 00
        E 0 80 60 00
        E 0 80 61 00
        E 0 80 62 00
        E 120 90 48 60
        E 0 90 49 60
        E 0 90 54 60
        E 0 90 55 60
        E 0 90 60 60
        E 0 90 61 60
        E 120 80 2b 00
        E 0 80 48 00
        E 0 80 49 00
        E 0 80 54 00
        E 0 80 55 00
        E 0 80 60 00
        E 0 80 61 00
        E 120 90 28 60
        E 0 90 55 60
        E 0 90 61 60
        E 120 80 55 00
        E 0 80 61 00
        E 120 90 40 60
        E 0 90 4b 60
        E 0 90 4c 60
        E 0 90 56 60
        E 0 90 58 60
        E 0 90 61 60
        E 0 90 63 60
        E 0 90 64 60
        E 120 80 40 00
        E 0 80 4b 00
        E 0 80 4c 00
        E 240 80 56 00
        E 0 80 58 00
        E 0 80 61 00
        E 0 80 63 00
        E 0 80 64 00
        E 120 90 4b 60
        E 0 90 4c 60
        E 0 90 56 60
        E 0 90 58 60
        E 0 90 61 60
        E 0 90 63 60
        E 0 90 64 60
        E 120 80 4b 00
        E 0 80 4c 00
        E 0 80 56 00
        E 0 80 58 00
        E 0 80 61 00
        E 0 80 63 00
        E 0 80 64 00
        E 120 90 55 60
        E 0 90 61 60
        E 120 80 55 00
        E 0 80 61 00
        E 120 90 3f 60
        E 0 90 4a 60
        E 0 90 4b 60
        E 0 90 55 60
        E 0 90 58 60
        E 0 90 61 60
        E 0 90 62 60
        E 0 90 64 60
        E 120 80 3f 00
        E 0 80 4a 00
        E 0 80 4b 00
        E 240 80 55 00
        E 0 80 58 00
        E 0 80 61 00
        E 0 80 62 00
        E 0 80 64 00
        E 120 90 4a 60
        E 0 90 4b 60
        E 0 90 55 60
        E 0 90 58 60
        E 0 90 61 60
        E 0 90 62 60
        E 0 90 64 60
        E 120 80 4a 00
        E 0 80 4b 00
        E 0 80 55 00
        E 0 80 58 00
        E 0 80 61 00
        E 0 80 62 00
        E 0 80 64 00
        E 120 90 55 60
        E 0 90 61 60
        E 120 80 55 00
        E 0 80 61 00
        E 120 90 3e 60
        E 0 90 49 60
        E 0 90 4b 60
        E 0 90 55 60
        E 0 90 57 60
        E 0 90 61 60
        E 0 90 62 60
        E 0 90 63 60
        E 120 80 3e 00
        E 0 80 49 00
        E 0 80 4b 00
        E 240 80 55 00
        E 0 80 57 00
        E 0 80 61 00
        E 0 80 62 00
        E 0 80 63 00
        E 120 90 3e 60
        E 0 90 49 60
        E 0 90 4a 60
        E 0 90 55 60
        E 0 90 56 60
        E 0 90 61 60
        E 0 90 62 60
        E 120 80 3e 00
        E 0 80 49 00
        E 0 80 4a 00
        E 0 80 55 00
        E 0 80 56 00
        E 0 80 61 00
        E 0 80 62 00
        E 120 90 49 60
        E 0 90 4a 60
        E 0 90 55 60
        E 0 90 56 60
        E 0 90 61 60
        E 0 90 62 60
        E 120 80 49 00
        E 0 80 4a 00
        E 0 80 55 00
        E 0 80 56 00
        E 0 80 61 00
        E 0 80 62 00
        E 120 90 3e 60
        E 0 90 49 60
        E 0 90 4a 60
        E 0 90 55 60
        E 0 90 56 60
        E 0 90 61 60
        E 0 90 62 60
        E 120 80 3e 00
        E 0 80 49 00
        E 0 80 4a 00
        E 0 80 55 00
        E 0 80 56 00
        E 0 80 61 00
        E 0 80 62 00
        E 120 90 49 60
        E 0 90 4a 60
        E 0 90 55 60
        E 0 90 56 60
        E 0 90 61 60
        E 0 90 62 60
        E 120 80 49 00
        E 0 80 4a 00
        E 0 80 55 00
        E 0 80 56 00
        E 0 80 61 00
        E 0 80 62 00
        E 120 90 3e 60
        E 0 90 49 60
        E 0 90 4a 60
        E 0 90 55 60
        E 0 90 56 60
        E 0 90 61 60
        E 0 90 62 60
        E 120 80 28 00
        E 0 80 3e 00
        E 0 80 49 00
        E 0 80 4a 00
        E 0 80 55 00
        E 0 80 56 00
        E 0 80 61 00
        E 0 80 62 00
        E 120 90 2b 60
        E 0 90 54 60
        E 0 90 60 60
        E 120 80 54 00
        E 0 80 60 00
        E 120 90 3e 60
        E 0 90 49 60
        E 0 90 4a 60
        E 0 90 54 60
        E 0 90 57 60
        E 0 90 60 60
        E 0 90 62 60
        E 0 90 63 60
        E 120 80 3e 00
        E 0 80 49 00
        E 0 80 4a 00
        E 240 80 54 00
        E 0 80 57 00
        E 0 80 60 00
        E 0 80 62 00
        E 0 80 63 00
        E 120 90 49 60
        E 0 90 4a 60
        E 0 90 54 60
        E 0 90 57 60
        E 0 90 60 60
        E 0 90 62 60
        E 0 90 63 60
        E 120 80 49 00
        E 0 80 4a 00
        E 0 80 54 00
        E 0 80 57 00
        E 0 80 60 00
        E 0 80 62 00
        E 0 80 63 00
        E 120 90 54 60
        E 0 90 60 60
        E 120 80 54 00
        E 0 80 60 00
        E 120 90 3d 60
        E 0 90 48 60
        E 0 90 4a 60
        E 0 90 54 60
        E 0 90 56 60
        E 0 90 60 60
        E 0 90 61 60
        E 0 90 63 60
        E 120 80 3d 00
        E 0 80 48 00
        E 0 80 4a 00
        E 0 80 54 00
        E 0 80 56 00
        E 0 80 60 00
        E 0 80 61 00
        E 0 80 63 00
        E 120 90 48 60
        E 0 90 4a 60
        E 0 90 54 60
        E 0 90 56 60
        E 0 90 60 60
        E 0 90 61 60
        E 0 90 63 60
        E 120 80 48 00
        E 0 80 4a 00
        E 0 80 54 00
        E 0 80 56 00
        E 0 80 60 00
        E 0 80 61 00
        E 0 80 63 00
        E 120 90 48 60
        E 0 90 4a 60
        E 0 90 54 60
        E 0 90 56 60
        E 0 90 60 60
        E 0 90 61 60
        E 0 90 63 60
        E 120 80 48 00
        E 0 80 4a 00
        E 0 80 54 00
        E 0 80 56 00
        E 0 80 60 00
        E 0 80 61 00
        E 0 80 63 00
        E 120 90 54 60
        E 0 90 60 60
        E 120 80 54 00
        E 0 80 60 00
        E 120 90 3c 60
        E 0 90 48 60
        E 0 90 49 60
        E 0 90 54 60
        E 0 90 55 60
        E 0 90 60 60
        E 0 90 61 60
        E 0 90 62 60
        E 120 80 3c 00
        E 0 80 48 00
        E 0 80 49 00
        E 240 80 54 00
        E 0 80 55 00
        E 0 80 60 00
        E 0 80 61 00
        E 0 80 62 00
        E 120 90 3c 60
        E 0 90 48 60
        E 0 90 49 60
        E 0 90 54 60
        E 0 90 55 60
        E 0 90 60 60
        E 0 90 61 60
        E 120 80 3c 00
        E 0 80 48 00
        E 0 80 49 00
        E 0 80 54 00
        E 0 80 55 00
        E 0 80 60 00
        E 0 80 61 00
        E 120 90 48 60
        E 0 90 49 60
        E 0 90 54 60
        E 0 90 55 60
        E 0 90 60 60
        E 0 90 61 60
        E 0 90 62 60
        E 120 80 48 00
        E 0 80 49 00
        E 0 80 54 00
        E 0 80 55 00
        E 0 80 60 00
        E 0 80 61 00
        E 0 80 62 00
        E 120 90 3c 60
        E 0 90 48 60
        E 0 90 49 60
        E 0 90 54 60
        E 0 90 55 60
        E 0 90 60 60
        E 0 90 61 60
        E 120 80 3c 00
        E 0 80 48 00
        E 0 80 49 00
        E 0 80 54 00
        E 0 80 55 00
        E 0 80 60 00
        E 0 80 61 00
        E 120 90 48 60
        E 0 90 49 60
        E 0 90 54 60
        E 0 90 55 60
        E 0 90 60 60
        E 0 90 61 60
        E 0 90 62 60
        E 120 80 48 00
        E 0 80 49 00
        E 0 80 54 00
        E 0 80 55 00
        E 0 80 60 00
        E 0 80 61 00
        E 0 80 62 00
        E 120 90 48 60
        E 0 90 49 60
        E 0 90 54 60
        E 0 90 55 60
        E 0 90 60 60
        E 0 90 61 60
        E 120 80 2b 00
        E 0 80 48 00
        E 0 80 49 00
        E 0 80 54 00
        E 0 80 55 00
        E 0 80 60 00
        E 0 80 61 00
        E 120 90 28 60
        E 0 90 55 60
        E 0 90 61 60
        E 120 80 55 00
        E 0 80 61 00
        E 120 90 40 60
        E 0 90 4b 60
        E 0 90 4c 60
        E 0 90 56 60
        E 0 90 58 60
        E 0 90 61 60
        E 0 90 63 60
        E 0 90 64 60
        E 120 80 40 00
        E 0 80 4b 00
        E 0 80 4c 00
        E 240 80 56 00
        E 0 80 58 00
        E 0 80 61 00
        E 0 80 63 00
        E 0 80 64 00
        E 120 90 4b 60
        E 0 90 4c 60
        E 0 90 56 60
        E 0 90 58 60
        E 0 90 61 60
        E 0 90 63 60
        E 0 90 64 60
        E 120 80 4b 00
        E 0 80 4c 00
        E 0 80 56 00
        E 0 80 58 00
        E 0 80 61 00
        E 0 80 63 00
        E 0 80 64 00
        E 120 90 55 60
        E 0 90 61 60
        E 120 80 55 00
        E 0 80 61 00
        E 120 90 3f 60
        E 0 90 4a 60
        E 0 90 4b 60
        E 0 90 55 60
        E 0 90 58 60
        E 0 90 61 60
        E 0 90 62 60
        E 0 90 64 60
        E 120 80 3f 00
        E 0 80 4a 00
        E 0 80 4b 00
        E 240 80 55 00
        E 0 80 58 00
        E 0 80 61 00
        E 0 80 62 00
        E 0 80 64 00
        E 120 90 4a 60
        E 0 90 4b 60
        E 0 90 55 60
        E 0 90 58 60
        E 0 90 61 60
        E 0 90 62 60
        E 0 90 64 60
        E 120 80 4a 00
        E 0 80 4b 00
        E 0 80 55 00
        E 0 80 58 00
        E 0 80 61 00
        E 0 80 62 00
        E 0 80 64 00
        E 120 90 55 60
        E 0 90 61 60
        E 120 80 55 00
        E 0 80 61 00
        E 120 90 3e 60
        E 0 90 49 60
        E 0 90 4b 60
        E 0 90 55 60
        E 0 90 57 60
        E 0 90 61 60
        E 0 90 62 60
        E 0 90 63 60
        E 120 80 3e 00
        E 0 80 49 00
        E 0 80 4b 00
        E 240 80 55 00
        E 0 80 57 00
        E 0 80 61 00
        E 0 80 62 00
        E 0 80 63 00
        E 120 90 3e 60
        E 0 90 49 60
        E 0 90 4a 60
        E 0 90 55 60
        E 0 90 56 60
        E 0 90 61 60
        E 0 90 62 60
        E 120 80 3e 00
        E 0 80 49 00
        E 0 80 4a 00
        E 0 80 55 00
        E 0 80 56 00
        E 0 80 61 00
        E 0 80 62 00
        E 120 90 55 60
        E 0 90 57 60
        E 0 90 61 60
        E 0 90 62 60
        E 0 90 63 60
        E 120 80 55 00
        E 0 80 57 00
        E 0 80 61 00
        E 0 80 62 00
        E 0 80 63 00
        E 120 90 3e 60
        E 0 90 49 60
        E 0 90 4a 60
        E 0 90 55 60
        E 0 90 56 60
        E 0 90 61 60
        E 0 90 62 60
        E 120 80 3e 00
        E 0 80 49 00
        E 0 80 4a 00
        E 0 80 55 00
        E 0 80 56 00
        E 0 80 61 00
        E 0 80 62 00
        E 120 90 54 60
        E 0 90 56 60
        E 0 90 60 60
        E 0 90 62 60
        E 120 80 54 00
        E 0 80 56 00
        E 0 80 60 00
        E 0 80 62 00
        E 120 90 3e 60
        E 0 90 48 60
        E 0 90 4a 60
        E 0 90 54 60
        E 0 90 56 60
        E 0 90 60 60
        E 0 90 62 60
        E 120 80 28 00
        E 0 80 3e 00
        E 0 80 48 00
        E 0 80 4a 00
        E 0 80 54 00
        E 0 80 56 00
        E 0 80 60 00
        E 0 80 62 00
        E 120 90 2b 60
        E 0 90 54 60
        E 0 90 60 60
        E 120 80 54 00
        E 0 80 60 00
        E 120 90 3e 60
        E 0 90 49 60
        E 0 90 4a 60
        E 0 90 54 60
        E 0 90 57 60
        E 0 90 60 60
        E 0 90 62 60
        E 0 90 63 60
        E 120 80 3e 00
        E 0 80 49 00
        E 0 80 4a 00
        E 240 80 54 00
        E 0 80 57 00
        E 0 80 60 00
        E 0 80 62 00
        E 0 80 63 00
        E 120 90 49 60
        E 0 90 4a 60
        E 0 90 54 60
        E 0 90 57 60
        E 0 90 60 60
        E 0 90 62 60
        E 0 90 63 60
        E 120 80 49 00
        E 0 80 4a 00
        E 0 80 54 00
        E 0 80 57 00
        E 0 80 60 00
        E 0 80 62 00
        E 0 80 63 00
        E 120 90 54 60
        E 0 90 60 60
        E 120 80 54 00
        E 0 80 60 00
        E 120 90 3d 60
        E 0 90 48 60
        E 0 90 4a 60
        E 0 90 54 60
        E 0 90 56 60
        E 0 90 60 60
        E 0 90 61 60
        E 0 90 63 60
        E 120 80 3d 00
        E 0 80 48 00
        E 0 80 4a 00
        E 240 80 54 00
        E 0 80 56 00
        E 0 80 60 00
        E 0 80 61 00
        E 0 80 63 00
        E 120 90 48 60
        E 0 90 4a 60
        E 0 90 54 60
        E 0 90 56 60
        E 0 90 60 60
        E 0 90 61 60
        E 0 90 63 60
        E 120 80 48 00
        E 0 80 4a 00
        E 0 80 54 00
        E 0 80 56 00
        E 0 80 60 00
        E 0 80 61 00
        E 0 80 63 00
        E 120 90 54 60
        E 0 90 60 60
        E 120 80 54 00
        E 0 80 60 00
        E 120 90 3c 60
        E 0 90 48 60
        E 0 90 49 60
        E 0 90 54 60
        E 0 90 55 60
        E 0 90 60 60
        E 0 90 61 60
        E 0 90 62 60
        E 0 90 74 60
        E 120 80 3c 00
        E 0 80 48 00
        E 0 80 49 00
        E 240 80 54 00
        E 0 80 55 00
        E 0 80 60 00
        E 0 80 61 00
        E 0 80 62 00
        E 120 90 3c 60
        E 0 90 48 60
        E 0 90 49 60
        E 0 90 54 60
        E 0 90 55 60
        E 0 90 60 60
        E 0 90 61 60
        E 120 80 3c 00
        E 0 80 48 00
        E 0 80 49 00
        E 0 80 54 00
        E 0 80 55 00
        E 0 80 60 00
        E 0 80 61 00
        E 120 90 48 60
        E 0 90 49 60
        E 0 90 54 60
        E 0 90 55 60
        E 0 90 60 60
        E 0 90 61 60
        E 0 90 62 60
        E 120 80 48 00
        E 0 80 49 00
        E 0 80 54 00
        E 0 80 55 00
        E 0 80 60 00
        E 0 80 61 00
        E 0 80 62 00
        E 120 90 3c 60
        E 0 90 48 60
        E 0 90 49 60
        E 0 90 54 60
        E 0 90 55 60
        E 0 90 60 60
        E 0 90 61 60
        E 120 80 3c 00
        E 0 80 48 00
        E 0 80 49 00
        E 0 80 54 00
        E 0 80 55 00
        E 0 80 60 00
        E 0 80 61 00
        E 120 90 48 60
        E 0 90 49 60
        E 0 90 54 60
        E 0 90 55 60
        E 0 90 60 60
        E 0 90 61 60
        E 120 80 48 00
        E 0 80 49 00
        E 0 80 54 00
        E 0 80 55 00
        E 0 80 60 00
        E 0 80 61 00
        E 120 90 48 60
        E 0 90 49 60
        E 0 90 54 60
        E 0 90 55 60
        E 0 90 60 60
        E 0 90 61 60
        E 120 80 2b 00
        E 0 80 48 00
        E 0 80 49 00
        E 0 80 54 00
        E 0 80 55 00
        E 0 80 60 00
        E 0 80 61 00
        E 120 90 28 60
        E 0 90 55 60
        E 0 90 61 60
        E 120 80 55 00
        E 0 80 61 00
        E 120 80 74 00
        E 0 90 40 60
        E 0 90 4b 60
        E 0 90 4c 60
        E 0 90 56 60
        E 0 90 58 60
        E 0 90 61 60
        E 0 90 63 60
        E 0 90 64 60
        E 120 80 40 00
        E 0 80 4b 00
        E 0 80 4c 00
        E 240 80 56 00
        E 0 80 58 00
        E 0 80 61 00
        E 0 80 63 00
        E 0 80 64 00
        E 120 90 4b 60
        E 0 90 4c 60
        E 0 90 56 60
        E 0 90 58 60
        E 0 90 61 60
        E 0 90 63 60
        E 0 90 64 60
        E 120 80 4b 00
        E 0 80 4c 00
        E 0 80 56 00
        E 0 80 58 00
        E 0 80 61 00
        E 0 80 63 00
        E 0 80 64 00
        E 120 90 55 60
        E 0 90 61 60
        E 120 80 55 00
        E 0 80 61 00
        E 120 90 3f 60
        E 0 90 4a 60
        E 0 90 4b 60
        E 0 90 55 60
        E 0 90 58 60
        E 0 90 61 60
        E 0 90 62 60
        E 0 90 64 60
        E 120 80 3f 00
        E 0 80 4a 00
        E 0 80 4b 00
        E 240 80 55 00
        E 0 80 58 00
        E 0 80 61 00
        E 0 80 62 00
        E 0 80 64 00
        E 120 90 4a 60
        E 0 90 4b 60
        E 0 90 55 60
        E 0 90 58 60
        E 0 90 61 60
        E 0 90 62 60
        E 0 90 64 60
        E 120 80 4a 00
        E 0 80 4b 00
        E 0 80 55 00
        E 0 80 58 00
        E 0 80 61 00
        E 0 80 62 00
        E 0 80 64 00
        E 120 90 55 60
        E 0 90 61 60
        E 120 80 55 00
        E 0 80 61 00
        E 120 90 3e 60
        E 0 90 49 60
        E 0 90 4b 60
        E 0 90 55 60
        E 0 90 57 60
        E 0 90 61 60
        E 0 90 62 60
        E 0 90 63 60
        E 120 80 3e 00
        E 0 80 49 00
        E 0 80 4b 00
        E 240 80 55 00
        E 0 80 57 00
        E 0 80 61 00
        E 0 80 62 00
        E 0 80 63 00
        E 120 90 3e 60
        E 0 90 49 60
        E 0 90 4a 60
        E 0 90 55 60
        E 0 90 56 60
        E 0 90 61 60
        E 0 90 62 60
        E 120 80 3e 00
        E 0 80 49 00
        E 0 80 4a 00
        E 0 80 55 00
        E 0 80 56 00
        E 0 80 61 00
        E 0 80 62 00
        E 120 90 55 60
        E 0 90 57 60
        E 0 90 61 60
        E 0 90 62 60
        E 0 90 63 60
        E 120 80 55 00
        E 0 80 57 00
        E 0 80 61 00
        E 0 80 62 00
        E 0 80 63 00
        E 120 90 3e 60
        E 0 90 49 60
        E 0 90 4a 60
        E 0 90 55 60
        E 0 90 56 60
        E 0 90 61 60
        E 0 90 62 60
        E 120 80 3e 00
        E 0 80 49 00
        E 0 80 4a 00
        E 0 80 55 00
        E 0 80 56 00
        E 0 80 61 00
        E 0 80 62 00
        E 120 90 49 60
        E 0 90 4a 60
        E 0 90 55 60
        E 0 90 56 60
        E 0 90 61 60
        E 0 90 62 60
        E 120 80 49 00
        E 0 80 4a 00
        E 0 80 55 00
        E 0 80 56 00
        E 0 80 61 00
        E 0 80 62 00
        E 120 90 3e 60
        E 0 90 49 60
        E 0 90 4a 60
        E 0 90 55 60
        E 0 90 56 60
        E 0 90 61 60
        E 0 90 62 60
        E 120 80 28 00
        E 0 80 3e 00
        E 0 80 49 00
        E 0 80 4a 00
        E 0 80 55 00
        E 0 80 56 00
        E 0 80 61 00
        E 0 80 62 00
        E 120 90 2b 60
        E 0 90 54 60
        E 0 90 60 60
        E 120 80 54 00
        E 0 80 60 00
        E 120 90 3e 60
        E 0 90 49 60
        E 0 90 4a 60
        E 0 90 54 60
        E 0 90 57 60
        E 0 90 60 60
        E 0 90 62 60
        E 0 90 63 60
        E 120 80 3e 00
        E 0 80 49 00
        E 0 80 4a 00
        E 240 80 54 00
        E 0 80 57 00
        E 0 80 60 00
        E 0 80 62 00
        E 0 80 63 00
        E 120 90 49 60
        E 0 90 4a 60
        E 0 90 54 60
        E 0 90 57 60
        E 0 90 60 60
        E 0 90 62 60
        E 0 90 63 60
        E 120 80 49 00
        E 0 80 4a 00
        E 0 80 54 00
        E 0 80 57 00
        E 0 80 60 00
        E 0 80 62 00
        E 0 80 63 00
        E 120 90 54 60
        E 0 90 60 60
        E 120 80 54 00
        E 0 80 60 00
        E 120 90 3d 60
        E 0 90 48 60
        E 0 90 4a 60
        E 0 90 54 60
        E 0 90 56 60
        E 0 90 60 60
        E 0 90 61 60
        E 0 90 63 60
        E 120 80 3d 00
        E 0 80 48 00
        E 0 80 4a 00
        E 0 80 54 00
        E 0 80 56 00
        E 0 80 60 00
        E 0 80 61 00
        E 0 80 63 00
        E 120 90 48 60
        E 0 90 4a 60
        E 0 90 54 60
        E 0 90 56 60
        E 0 90 60 60
        E 0 90 61 60
        E 0 90 63 60
        E 120 80 48 00
        E 0 80 4a 00
        E 0 80 54 00
        E 0 80 56 00
        E 0 80 60 00
        E 0 80 61 00
        E 0 80 63 00
        E 120 90 48 60
        E 0 90 4a 60
        E 0 90 54 60
        E 0 90 56 60
        E 0 90 60 60
        E 0 90 61 60
        E 0 90 63 60
        E 120 80 48 00
        E 0 80 4a 00
        E 0 80 54 00
        E 0 80 56 00
        E 0 80 60 00
        E 0 80 61 00
        E 0 80 63 00
        E 120 90 54 60
        E 0 90 60 60
        E 120 80 54 00
        E 0 80 60 00
        E 120 90 3c 60
        E 0 90 48 60
        E 0 90 49 60
        E 0 90 54 60
        E 0 90 55 60
        E 0 90 60 60
        E 0 90 61 60
        E 0 90 62 60
        E 120 80 3c 00
        E 0 80 48 00
        E 0 80 49 00
        E 240 80 54 00
        E 0 80 55 00
        E 0 80 60 00
        E 0 80 61 00
        E 0 80 62 00
        E 120 90 3c 60
        E 0 90 48 60
        E 0 90 49 60
        E 0 90 54 60
        E 0 90 55 60
        E 0 90 60 60
        E 0 90 61 60
        E 120 80 3c 00
        E 0 80 48 00
        E 0 80 49 00
        E 0 80 54 00
        E 0 80 55 00
        E 0 80 60 00
        E 0 80 61 00
        E 120 90 48 60
        E 0 90 49 60
        E 0 90 54 60
        E 0 90 55 60
        E 0 90 60 60
        E 0 90 61 60
        E 0 90 62 60
        E 120 80 48 00
        E 0 80 49 00
        E 0 80 54 00
        E 0 80 55 00
        E 0 80 60 00
        E 0 80 61 00
        E 0 80 62 00
        E 120 90 3c 60
        E 0 90 48 60
        E 0 90 49 60
        E 0 90 54 60
        E 0 90 55 60
        E 0 90 60 60
        E 0 90 61 60
        E 120 80 3c 00
        E 0 80 48 00
        E 0 80 49 00
        E 0 80 54 00
        E 0 80 55 00
        E 0 80 60 00
        E 0 80 61 00
        E 120 90 48 60
        E 0 90 49 60
        E 0 90 54 60
        E 0 90 55 60
        E 0 90 60 60
        E 0 90 61 60
        E 0 90 62 60
        E 120 80 48 00
        E 0 80 49 00
        E 0 80 54 00
        E 0 80 55 00
        E 0 80 60 00
        E 0 80 61 00
        E 0 80 62 00
        E 120 90 48 60
        E 0 90 49 60
        E 0 90 54 60
        E 0 90 55 60
        E 0 90 60 60
        E 0 90 61 60
        E 120 80 2b 00
        E 0 80 48 00
        E 0 80 49 00
        E 0 80 54 00
        E 0 80 55 00
        E 0 80 60 00
        E 0 80 61 00
        E 120 90 28 60
        E 0 90 55 60
        E 0 90 61 60
        E 120 80 55 00
        E 0 80 61 00
        E 120 90 40 60
        E 0 90 4b 60
        E 0 90 4c 60
        E 0 90 56 60
        E 0 90 58 60
        E 0 90 61 60
        E 0 90 63 60
        E 0 90 64 60
        E 120 80 40 00
        E 0 80 4b 00
        E 0 80 4c 00
        E 240 80 56 00
        E 0 80 58 00
        E 0 80 61 00
        E 0 80 63 00
        E 0 80 64 00
        E 120 90 49 60
        E 0 90 4b 60
        E 0 90 55 60
        E 0 90 57 60
        E 0 90 61 60
        E 0 90 63 60
        E 120 80 49 00
        E 0 80 4b 00
        E 240 80 55 00
        E 0 80 57 00
        E 0 80 61 00
        E 0 80 63 00
        E 120 90 40 60
        E 0 90 4b 60
        E 0 90 4c 60
        E 0 90 56 60
        E 0 90 58 60
        E 0 90 61 60
        E 0 90 63 60
        E 0 90 64 60
        E 120 80 40 00
        E 0 80 4b 00
        E 0 80 4c 00
        E 240 80 56 00
        E 0 80 58 00
        E 0 80 61 00
        E 0 80 63 00
        E 0 80 64 00
        E 120 90 49 60
        E 0 90 4b 60
        E 0 90 55 60
        E 0 90 57 60
        E 0 90 61 60
        E 0 90 63 60
        E 120 80 28 00
        E 0 80 49 00
        E 0 80 4b 00
        E 0 80 55 00
        E 0 80 57 00
        E 0 80 61 00
        E 0 80 63 00
        E 120 90 2b 60
        E 0 90 56 60
        E 0 90 62 60
        E 120 80 56 00
        E 0 80 62 00
        E 120 90 40 60
        E 0 90 4b 60
        E 0 90 4c 60
        E 0 90 57 60
        E 0 90 58 60
        E 0 90 62 60
        E 0 90 63 60
        E 0 90 64 60
        E 120 80 40 00
        E 0 80 4b 00
        E 0 80 4c 00
        E 0 80 57 00
        E 0 80 58 00
        E 0 80 62 00
        E 0 80 63 00
        E 0 80 64 00
        E 120 90 56 60
        E 0 90 57 60
        E 0 90 62 60
        E 0 90 63 60
        E 120 80 56 00
        E 0 80 57 00
        E 0 80 62 00
        E 0 80 63 00
        E 120 90 4a 60
        E 0 90 4b 60
        E 0 90 56 60
        E 0 90 57 60
        E 0 90 62 60
        E 0 90 63 60
        E 120 80 4a 00
        E 0 80 4b 00
        E 240 80 56 00
        E 0 80 57 00
        E 0 80 62 00
        E 0 80 63 00
        E 120 90 40 60
        E 0 90 4b 60
        E 0 90 4c 60
        E 0 90 57 60
        E 0 90 58 60
        E 0 90 62 60
        E 0 90 63 60
        E 0 90 64 60
        E 120 80 40 00
        E 0 80 4b 00
        E 0 80 4c 00
        E 240 80 57 00
        E 0 80 58 00
        E 0 80 62 00
        E 0 80 63 00
        E 0 80 64 00
        E 120 90 4a 60
        E 0 90 4b 60
        E 0 90 56 60
        E 0 90 57 60
        E 0 90 62 60
        E 0 90 63 60
        E 120 80 2b 00
        E 0 80 4a 00
        E 0 80 4b 00
        E 0 80 56 00
        E 0 80 57 00
        E 0 80 62 00
        E 0 80 63 00
        E 120 90 2b 60
        E 0 90 54 60
        E 0 90 60 60
        E 120 80 54 00
        E 0 80 60 00
        E 120 90 3e 60
        E 0 90 49 60
        E 0 90 4a 60
        E 0 90 54 60
        E 0 90 57 60
        E 0 90 60 60
        E 0 90 62 60
        E 0 90 63 60
        E 120 80 3e 00
        E 0 80 49 00
        E 0 80 4a 00
        E 240 80 54 00
        E 0 80 57 00
        E 0 80 60 00
        E 0 80 62 00
        E 0 80 63 00
        E 120 90 49 60
        E 0 90 4a 60
        E 0 90 54 60
        E 0 90 57 60
        E 0 90 60 60
        E 0 90 62 60
        E 0 90 63 60
        E 120 80 49 00
        E 0 80 4a 00
        E 0 80 54 00
        E 0 80 57 00
        E 0 80 60 00
        E 0 80 62 00
        E 0 80 63 00
        E 120 90 54 60
        E 0 90 60 60
        E 120 80 54 00
        E 0 80 60 00
        E 120 90 3d 60
        E 0 90 48 60
        E 0 90 4a 60
        E 0 90 54 60
        E 0 90 56 60
        E 0 90 60 60
        E 0 90 61 60
        E 0 90 63 60
        E 120 80 3d 00
        E 0 80 48 00
        E 0 80 4a 00
        E 0 80 54 00
        E 0 80 56 00
        E 0 80 60 00
        E 0 80 61 00
        E 0 80 63 00
        E 120 90 48 60
        E 0 90 4a 60
        E 0 90 54 60
        E 0 90 56 60
        E 0 90 60 60
        E 0 90 61 60
        E 0 90 63 60
        E 120 80 48 00
        E 0 80 4a 00
        E 0 80 54 00
        E 0 80 56 00
        E 0 80 60 00
        E 0 80 61 00
        E 0 80 63 00
        E 120 90 48 60
        E 0 90 4a 60
        E 0 90 54 60
        E 0 90 56 60
        E 0 90 60 60
        E 0 90 61 60
        E 0 90 63 60
        E 120 80 48 00
        E 0 80 4a 00
        E 0 80 54 00
        E 0 80 56 00
        E 0 80 60 00
        E 0 80 61 00
        E 0 80 63 00
        E 120 90 54 60
        E 0 90 60 60
        E 120 80 54 00
        E 0 80 60 00
        E 120 90 3c 60
        E 0 90 48 60
        E 0 90 49 60
        E 0 90 54 60
        E 0 90 55 60
        E 0 90 60 60
        E 0 90 61 60
        E 0 90 62 60
        E 120 80 3c 00
        E 0 80 48 00
        E 0 80 49 00
        E 240 80 54 00
        E 0 80 55 00
        E 0 80 60 00
        E 0 80 61 00
        E 0 80 62 00
        E 120 90 3c 60
        E 0 90 48 60
        E 0 90 49 60
        E 0 90 54 60
        E 0 90 55 60
        E 0 90 60 60
        E 0 90 61 60
        E 120 80 3c 00
        E 0 80 48 00
        E 0 80 49 00
        E 0 80 54 00
        E 0 80 55 00
        E 0 80 60 00
        E 0 80 61 00
        E 120 90 48 60
        E 0 90 49 60
        E 0 90 54 60
        E 0 90 55 60
        E 0 90 60 60
        E 0 90 61 60
        E 0 90 62 60
        E 120 80 48 00
        E 0 80 49 00
        E 0 80 54 00
        E 0 80 55 00
        E 0 80 60 00
        E 0 80 61 00
        E 0 80 62 00
        E 120 90 3c 60
        E 0 90 48 60
        E 0 90 49 60
        E 0 90 54 60
        E 0 90 55 60
        E 0 90 60 60
        E 0 90 61 60
        E 120 80 3c 00
        E 0 80 48 00
        E 0 80 49 00
        E 0 80 54 00
        E 0 80 55 00
        E 0 80 60 00
        E 0 80 61 00
        E 120 90 48 60
        E 0 90 49 60
        E 0 90 54 60
        E 0 90 55 60
        E 0 90 60 60
        E 0 90 61 60
        E 0 90 62 60
        E 120 80 48 00
        E 0 80 49 00
        E 0 80 54 00
        E 0 80 55 00
        E 0 80 60 00
        E 0 80 61 00
        E 0 80 62 00
        E 120 90 48 60
        E 0 90 49 60
        E 0 90 54 60
        E 0 90 55 60
        E 0 90 60 60
        E 0 90 61 60
        E 120 80 2b 00
        E 0 80 48 00
        E 0 80 49 00
        E 0 80 54 00
        E 0 80 55 00
        E 0 80 60 00
        E 0 80 61 00
        E 120 90 28 60
        E 0 90 55 60
        E 0 90 61 60
        E 120 80 55 00
        E 0 80 61 00
        E 120 90 40 60
        E 0 90 4b 60
        E 0 90 4c 60
        E 0 90 56 60
        E 0 90 58 60
        E 0 90 61 60
        E 0 90 63 60
        E 0 90 64 60
        E 0 90 74 60
        E 120 80 40 00
        E 0 80 4b 00
        E 0 80 4c 00
        E 240 80 56 00
        E 0 80 58 00
        E 0 80 61 00
        E 0 80 63 00
        E 0 80 64 00
        E 120 90 4b 60
        E 0 90 4c 60
        E 0 90 56 60
        E 0 90 58 60
        E 0 90 61 60
        E 0 90 63 60
        E 0 90 64 60
        E 120 80 4b 00
        E 0 80 4c 00
        E 0 80 56 00
        E 0 80 58 00
        E 0 80 61 00
        E 0 80 63 00
        E 0 80 64 00
        E 120 90 55 60
        E 0 90 61 60
        E 120 80 55 00
        E 0 80 61 00
        E 120 90 3f 60
        E 0 90 4a 60
        E 0 90 4b 60
        E 0 90 55 60
        E 0 90 58 60
        E 0 90 61 60
        E 0 90 62 60
        E 0 90 64 60
        E 120 80 3f 00
        E 0 80 4a 00
        E 0 80 4b 00
        E 240 80 55 00
        E 0 80 58 00
        E 0 80 61 00
        E 0 80 62 00
        E 0 80 64 00
        E 120 90 4a 60
        E 0 90 4b 60
        E 0 90 55 60
        E 0 90 58 60
        E 0 90 61 60
        E 0 90 62 60
        E 0 90 64 60
        E 120 80 4a 00
        E 0 80 4b 00
        E 0 80 55 00
        E 0 80 58 00
        E 0 80 61 00
        E 0 80 62 00
        E 0 80 64 00
        E 120 90 55 60
        E 0 90 61 60
        E 120 80 55 00
        E 0 80 61 00
        E 120 80 74 00
        E 0 90 3e 60
        E 0 90 49 60
        E 0 90 4b 60
        E 0 90 55 60
        E 0 90 57 60
        E 0 90 61 60
        E 0 90 62 60
        E 0 90 63 60
        E 120 80 3e 00
        E 0 80 49 00
        E 0 80 4b 00
        E 240 80 55 00
        E 0 80 57 00
        E 0 80 61 00
        E 0 80 62 00
        E 0 80 63 00
        E 120 90 3e 60
        E 0 90 49 60
        E 0 90 4a 60
        E 0 90 55 60
        E 0 90 56 60
        E 0 90 61 60
        E 0 90 62 60
        E 120 80 3e 00
        E 0 80 49 00
        E 0 80 4a 00
        E 0 80 55 00
        E 0 80 56 00
        E 0 80 61 00
        E 0 80 62 00
        E 120 90 55 60
        E 0 90 57 60
        E 0 90 61 60
        E 0 90 62 60
        E 0 90 63 60
        E 120 80 55 00
        E 0 80 57 00
        E 0 80 61 00
        E 0 80 62 00
        E 0 80 63 00
        E 120 90 3e 60
        E 0 90 49 60
        E 0 90 4a 60
        E 0 90 55 60
        E 0 90 56 60
        E 0 90 61 60
        E 0 90 62 60
        E 120 80 3e 00
        E 0 80 49 00
        E 0 80 4a 00
        E 0 80 55 00
        E 0 80 56 00
        E 0 80 61 00
        E 0 80 62 00
        E 120 90 54 60
        E 0 90 56 60
        E 0 90 60 60
        E 0 90 62 60
        E 120 80 54 00
        E 0 80 56 00
        E 0 80 60 00
        E 0 80 62 00
        E 120 90 3e 60
        E 0 90 48 60
        E 0 90 4a 60
        E 0 90 54 60
        E 0 90 56 60
        E 0 90 60 60
        E 0 90 62 60
        E 120 80 28 00
        E 0 80 3e 00
        E 0 80 48 00
        E 0 80 4a 00
        E 0 80 54 00
        E 0 80 56 00
        E 0 80 60 00
        E 0 80 62 00
        E 120 90 2b 60
        E 0 90 54 60
        E 0 90 60 60
        E 120 80 54 00
        E 0 80 60 00
        E 120 90 3e 60
        E 0 90 49 60
        E 0 90 4a 60
        E 0 90 54 60
        E 0 90 57 60
        E 0 90 60 60
        E 0 90 62 60
        E 0 90 63 60
        E 120 80 3e 00
        E 0 80 49 00
        E 0 80 4a 00
        E 240 80 54 00
        E 0 80 57 00
        E 0 80 60 00
        E 0 80 62 00
        E 0 80 63 00
        E 120 90 49 60
        E 0 90 4a 60
        E 0 90 54 60
        E 0 90 57 60
        E 0 90 60 60
        E 0 90 62 60
        E 0 90 63 60
        E 120 80 49 00
        E 0 80 4a 00
        E 0 80 54 00
        E 0 80 57 00
        E 0 80 60 00
        E 0 80 62 00
        E 0 80 63 00
        E 120 90 54 60
        E 0 90 60 60
        E 120 80 54 00
        E 0 80 60 00
        E 120 90 3d 60
        E 0 90 48 60
        E 0 90 4a 60
        E 0 90 54 60
        E 0 90 56 60
        E 0 90 60 60
        E 0 90 61 60
        E 0 90 63 60
        E 120 80 3d 00
        E 0 80 48 00
        E 0 80 4a 00
        E 0 80 54 00
        E 0 80 56 00
        E 0 80 60 00
        E 0 80 61 00
        E 0 80 63 00
        E 120 90 48 60
        E 0 90 4a 60
        E 0 90 54 60
        E 0 90 56 60
        E 0 90 60 60
        E 0 90 61 60
        E 0 90 63 60
        E 120 80 48 00
        E 0 80 4a 00
        E 0 80 54 00
        E 0 80 56 00
        E 0 80 60 00
        E 0 80 61 00
        E 0 80 63 00
        E 120 90 48 60
        E 0 90 4a 60
        E 0 90 54 60
        E 0 90 56 60
        E 0 90 60 60
        E 0 90 61 60
        E 0 90 63 60
        E 120 80 48 00
        E 0 80 4a 00
        E 0 80 54 00
        E 0 80 56 00
        E 0 80 60 00
        E 0 80 61 00
        E 0 80 63 00
        E 120 90 54 60
        E 0 90 60 60
        E 120 80 54 00
        E 0 80 60 00
        E 120 90 3c 60
        E 0 90 48 60
        E 0 90 49 60
        E 0 90 54 60
        E 0 90 55 60
        E 0 90 60 60
        E 0 90 61 60
        E 0 90 62 60
        E 120 80 3c 00
        E 0 80 48 00
        E 0 80 49 00
        E 240 80 54 00
        E 0 80 55 00
        E 0 80 60 00
        E 0 80 61 00
        E 0 80 62 00
        E 120 90 3c 60
        E 0 90 48 60
        E 0 90 49 60
        E 0 90 54 60
        E 0 90 55 60
        E 0 90 60 60
        E 0 90 61 60
        E 120 80 3c 00
        E 0 80 48 00
        E 0 80 49 00
        E 0 80 54 00
        E 0 80 55 00
        E 0 80 60 00
        E 0 80 61 00
        E 120 90 48 60
        E 0 90 49 60
        E 0 90 54 60
        E 0 90 55 60
        E 0 90 60 60
        E 0 90 61 60
        E 0 90 62 60
        E 120 80 48 00
        E 0 80 49 00
        E 0 80 54 00
        E 0 80 55 00
        E 0 80 60 00
        E 0 80 61 00
        E 0 80 62 00
        E 120 90 3c 60
        E 0 90 48 60
        E 0 90 49 60
        E 0 90 54 60
        E 0 90 55 60
        E 0 90 60 60
        E 0 90 61 60
        E 120 80 3c 00
        E 0 80 48 00
        E 0 80 49 00
        E 0 80 54 00
        E 0 80 55 00
        E 0 80 60 00
        E 0 80 61 00
        E 120 90 48 60
        E 0 90 49 60
        E 0 90 54 60
        E 0 90 55 60
        E 0 90 60 60
        E 0 90 61 60
        E 0 90 62 60
        E 120 80 48 00
        E 0 80 49 00
        E 0 80 54 00
        E 0 80 55 00
        E 0 80 60 00
        E 0 80 61 00
        E 0 80 62 00
        E 120 90 48 60
        E 0 90 49 60
        E 0 90 54 60
        E 0 90 55 60
        E 0 90 60 60
        E 0 90 61 60
        E 120 80 2b 00
        E 0 80 48 00
        E 0 80 49 00
        E 0 80 54 00
        E 0 80 55 00
        E 0 80 60 00
        E 0 80 61 00
        E 120 90 28 60
        E 0 90 55 60
        E 0 90 61 60
        E 120 80 55 00
        E 0 80 61 00
        E 120 90 40 60
        E 0 90 4b 60
        E 0 90 4c 60
        E 0 90 56 60
        E 0 90 58 60
        E 0 90 61 60
        E 0 90 63 60
        E 0 90 64 60
        E 120 80 40 00
        E 0 80 4b 00
        E 0 80 4c 00
        E 240 80 56 00
        E 0 80 58 00
        E 0 80 61 00
        E 0 80 63 00
        E 0 80 64 00
        E 120 90 4b 60
        E 0 90 4c 60
        E 0 90 56 60
        E 0 90 58 60
        E 0 90 61 60
        E 0 90 63 60
        E 0 90 64 60
        E 120 80 4b 00
        E 0 80 4c 00
        E 0 80 56 00
        E 0 80 58 00
        E 0 80 61 00
        E 0 80 63 00
        E 0 80 64 00
        E 120 90 55 60
        E 0 90 61 60
        E 120 80 55 00
        E 0 80 61 00
        E 120 90 3f 60
        E 0 90 4a 60
        E 0 90 4b 60
        E 0 90 55 60
        E 0 90 58 60
        E 0 90 61 60
        E 0 90 62 60
        E 0 90 64 60
        E 120 80 3f 00
        E 0 80 4a 00
        E 0 80 4b 00
        E 240 80 55 00
        E 0 80 58 00
        E 0 80 61 00
        E 0 80 62 00
        E 0 80 64 00
        E 120 90 4a 60
        E 0 90 4b 60
        E 0 90 55 60
        E 0 90 58 60
        E 0 90 61 60
        E 0 90 62 60
        E 0 90 64 60
        E 120 80 4a 00
        E 0 80 4b 00
        E 0 80 55 00
        E 0 80 58 00
        E 0 80 61 00
        E 0 80 62 00
        E 0 80 64 00
        E 120 90 55 60
        E 0 90 61 60
        E 120 80 55 00
        E 0 80 61 00
        E 120 90 3e 60
        E 0 90 49 60
        E 0 90 4b 60
        E 0 90 55 60
        E 0 90 57 60
        E 0 90 61 60
        E 0 90 62 60
        E 0 90 63 60
        E 120 80 3e 00
        E 0 80 49 00
        E 0 80 4b 00
        E 240 80 55 00
        E 0 80 57 00
        E 0 80 61 00
        E 0 80 62 00
        E 0 80 63 00
        E 120 90 3e 60
        E 0 90 49 60
        E 0 90 4a 60
        E 0 90 55 60
        E 0 90 56 60
        E 0 90 61 60
        E 0 90 62 60
        E 120 80 3e 00
        E 0 80 49 00
        E 0 80 4a 00
        E 0 80 55 00
        E 0 80 56 00
        E 0 80 61 00
        E 0 80 62 00
        E 120 90 55 60
        E 0 90 57 60
        E 0 90 61 60
        E 0 90 62 60
        E 0 90 63 60
        E 120 80 55 00
        E 0 80 57 00
        E 0 80 61 00
        E 0 80 62 00
        E 0 80 63 00
        E 120 90 3e 60
        E 0 90 49 60
        E 0 90 4a 60
        E 0 90 55 60
        E 0 90 56 60
        E 0 90 61 60
        E 0 90 62 60
        E 120 80 3e 00
        E 0 80 49 00
        E 0 80 4a 00
        E 0 80 55 00
        E 0 80 56 00
        E 0 80 61 00
        E 0 80 62 00
        E 120 90 54 60
        E 0 90 56 60
        E 0 90 60 60
        E 0 90 62 60
        E 120 80 54 00
        E 0 80 56 00
        E 0 80 60 00
        E 0 80 62 00
        E 120 90 3e 60
        E 0 90 48 60
        E 0 90 4a 60
        E 0 90 54 60
        E 0 90 56 60
        E 0 90 60 60
        E 0 90 62 60
        E 120 80 28 00
        E 0 80 3e 00
        E 0 80 48 00
        E 0 80 4a 00
        E 0 80 54 00
        E 0 80 56 00
        E 0 80 60 00
        E 0 80 62 00
        E 120 90 2b 60
        E 0 90 54 60
        E 0 90 60 60
        E 120 80 54 00
        E 0 80 60 00
        E 120 90 3e 60
        E 0 90 49 60
        E 0 90 4a 60
        E 0 90 54 60
        E 0 90 57 60
        E 0 90 60 60
        E 0 90 62 60
        E 0 90 63 60
        E 120 80 3e 00
        E 0 80 49 00
        E 0 80 4a 00
        E 240 80 54 00
        E 0 80 57 00
        E 0 80 60 00
        E 0 80 62 00
        E 0 80 63 00
        E 120 90 49 60
        E 0 90 4a 60
        E 0 90 54 60
        E 0 90 57 60
        E 0 90 60 60
        E 0 90 62 60
        E 0 90 63 60
        E 120 80 49 00
        E 0 80 4a 00
        E 0 80 54 00
        E 0 80 57 00
        E 0 80 60 00
        E 0 80 62 00
        E 0 80 63 00
        E 120 90 54 60
        E 0 90 60 60
        E 120 80 54 00
        E 0 80 60 00
        E 120 90 3d 60
        E 0 90 48 60
        E 0 90 4a 60
        E 0 90 54 60
        E 0 90 56 60
        E 0 90 60 60
        E 0 90 61 60
        E 0 90 63 60
        E 120 80 3d 00
        E 0 80 48 00
        E 0 80 4a 00
        E 0 80 54 00
        E 0 80 56 00
        E 0 80 60 00
        E 0 80 61 00
        E 0 80 63 00
        E 120 90 48 60
        E 0 90 4a 60
        E 0 90 54 60
        E 0 90 56 60
        E 0 90 60 60
        E 0 90 61 60
        E 0 90 63 60
        E 120 80 48 00
        E 0 80 4a 00
        E 0 80 54 00
        E 0 80 56 00
        E 0 80 60 00
        E 0 80 61 00
        E 0 80 63 00
        E 120 90 48 60
        E 0 90 4a 60
        E 0 90 54 60
        E 0 90 56 60
        E 0 90 60 60
        E 0 90 61 60
        E 0 90 63 60
        E 120 80 48 00
        E 0 80 4a 00
        E 0 80 54 00
        E 0 80 56 00
        E 0 80 60 00
        E 0 80 61 00
        E 0 80 63 00
        E 120 90 54 60
        E 0 90 60 60
        E 120 80 54 00
        E 0 80 60 00
        E 120 90 3c 60
        E 0 90 48 60
        E 0 90 49 60
        E 0 90 54 60
        E 0 90 55 60
        E 0 90 60 60
        E 0 90 61 60
        E 0 90 62 60
        E 120 80 3c 00
        E 0 80 48 00
        E 0 80 49 00
        E 240 80 54 00
        E 0 80 55 00
        E 0 80 60 00
        E 0 80 61 00
        E 0 80 62 00
        E 120 90 3c 60
        E 0 90 48 60
        E 0 90 49 60
        E 0 90 54 60
        E 0 90 55 60
        E 0 90 60 60
        E 0 90 61 60
        E 120 80 3c 00
        E 0 80 48 00
        E 0 80 49 00
        E 0 80 54 00
        E 0 80 55 00
        E 0 80 60 00
        E 0 80 61 00
        E 120 90 48 60
        E 0 90 49 60
        E 0 90 54 60
        E 0 90 55 60
        E 0 90 60 60
        E 0 90 61 60
        E 0 90 62 60
        E 120 80 48 00
        E 0 80 49 00
        E 0 80 54 00
        E 0 80 55 00
        E 0 80 60 00
        E 0 80 61 00
        E 0 80 62 00
        E 120 90 3c 60
        E 0 90 48 60
        E 0 90 49 60
        E 0 90 54 60
        E 0 90 55 60
        E 0 90 60 60
        E 0 90 61 60
        E 120 80 3c 00
        E 0 80 48 00
        E 0 80 49 00
        E 0 80 54 00
        E 0 80 55 00
        E 0 80 60 00
        E 0 80 61 00
        E 120 90 48 60
        E 0 90 49 60
        E 0 90 54 60
        E 0 90 55 60
        E 0 90 60 60
        E 0 90 61 60
        E 120 80 48 00
        E 0 80 49 00
        E 0 80 54 00
        E 0 80 55 00
        E 0 80 60 00
        E 0 80 61 00
        E 120 90 48 60
        E 0 90 49 60
        E 0 90 54 60
        E 0 90 55 60
        E 0 90 60 60
        E 0 90 61 60
        E 120 80 2b 00
        E 0 80 48 00
        E 0 80 49 00
        E 0 80 54 00
        E 0 80 55 00
        E 0 80 60 00
        E 0 80 61 00
        E 120 90 28 60
        E 0 90 55 60
        E 0 90 61 60
        E 120 80 55 00
        E 0 80 61 00
        E 120 90 40 60
        E 0 90 4b 60
        E 0 90 4c 60
        E 0 90 56 60
        E 0 90 58 60
        E 0 90 61 60
        E 0 90 63 60
        E 0 90 64 60
        E 120 80 40 00
        E 0 80 4b 00
        E 0 80 4c 00
        E 240 80 56 00
        E 0 80 58 00
        E 0 80 61 00
        E 0 80 63 00
        E 0 80 64 00
        E 120 90 4b 60
        E 0 90 4c 60
        E 0 90 56 60
        E 0 90 58 60
        E 0 90 61 60
        E 0 90 63 60
        E 0 90 64 60
        E 120 80 4b 00
        E 0 80 4c 00
        E 0 80 56 00
        E 0 80 58 00
        E 0 80 61 00
        E 0 80 63 00
        E 0 80 64 00
        E 120 90 55 60
        E 0 90 61 60
        E 120 80 55 00
        E 0 80 61 00
        E 120 90 3f 60
        E 0 90 4a 60
        E 0 90 4b 60
        E 0 90 55 60
        E 0 90 58 60
        E 0 90 61 60
        E 0 90 62 60
        E 0 90 64 60
        E 120 80 3f 00
        E 0 80 4a 00
        E 0 80 4b 00
        E 240 80 55 00
        E 0 80 58 00
        E 0 80 61 00
        E 0 80 62 00
        E 0 80 64 00
        E 120 90 4a 60
        E 0 90 4b 60
        E 0 90 55 60
        E 0 90 58 60
        E 0 90 61 60
        E 0 90 62 60
        E 0 90 64 60
        E 120 80 4a 00
        E 0 80 4b 00
        E 0 80 55 00
        E 0 80 58 00
        E 0 80 61 00
        E 0 80 62 00
        E 0 80 64 00
        E 120 90 55 60
        E 0 90 61 60
        E 120 80 55 00
        E 0 80 61 00
        E 120 90 3e 60
        E 0 90 49 60
        E 0 90 4b 60
        E 0 90 55 60
        E 0 90 57 60
        E 0 90 61 60
        E 0 90 62 60
        E 0 90 63 60
        E 120 80 3e 00
        E 0 80 49 00
        E 0 80 4b 00
        E 240 80 55 00
        E 0 80 57 00
        E 0 80 61 00
        E 0 80 62 00
        E 0 80 63 00
        E 120 90 3e 60
        E 0 90 49 60
        E 0 90 4a 60
        E 0 90 55 60
        E 0 90 56 60
        E 0 90 61 60
        E 0 90 62 60
        E 120 80 3e 00
        E 0 80 49 00
        E 0 80 4a 00
        E 0 80 55 00
        E 0 80 56 00
        E 0 80 61 00
        E 0 80 62 00
        E 120 90 49 60
        E 0 90 4a 60
        E 0 90 55 60
        E 0 90 56 60
        E 0 90 61 60
        E 0 90 62 60
        E 120 80 49 00
        E 0 80 4a 00
        E 0 80 55 00
        E 0 80 56 00
        E 0 80 61 00
        E 0 80 62 00
        E 120 90 3e 60
        E 0 90 49 60
        E 0 90 4a 60
        E 0 90 55 60
        E 0 90 56 60
        E 0 90 61 60
        E 0 90 62 60
        E 120 80 3e 00
        E 0 80 49 00
        E 0 80 4a 00
        E 0 80 55 00
        E 0 80 56 00
        E 0 80 61 00
        E 0 80 62 00
        E 120 90 54 60
        E 0 90 56 60
        E 0 90 60 60
        E 0 90 62 60
        E 120 80 54 00
        E 0 80 56 00
        E 0 80 60 00
        E 0 80 62 00
        E 120 90 3e 60
        E 0 90 48 60
        E 0 90 4a 60
        E 0 90 54 60
        E 0 90 56 60
        E 0 90 60 60
        E 0 90 62 60
        E 120 80 28 00
        E 0 80 3e 00
        E 0 80 48 00
        E 0 80 4a 00
        E 0 80 54 00
        E 0 80 56 00
        E 0 80 60 00
        E 0 80 62 00
        E 120 90 2b 60
        E 0 90 54 60
        E 0 90 60 60
        E 120 80 54 00
        E 0 80 60 00
        E 120 90 3e 60
        E 0 90 49 60
        E 0 90 4a 60
        E 0 90 54 60
        E 0 90 57 60
        E 0 90 60 60
        E 0 90 62 60
        E 0 90 63 60
        E 120 80 3e 00
        E 0 80 49 00
        E 0 80 4a 00
        E 240 80 54 00
        E 0 80 57 00
        E 0 80 60 00
        E 0 80 62 00
        E 0 80 63 00
        E 120 90 49 60
        E 0 90 4a 60
        E 0 90 54 60
        E 0 90 57 60
        E 0 90 60 60
        E 0 90 62 60
        E 0 90 63 60
        E 120 80 49 00
        E 0 80 4a 00
        E 0 80 54 00
        E 0 80 57 00
        E 0 80 60 00
        E 0 80 62 00
        E 0 80 63 00
        E 120 90 54 60
        E 0 90 60 60
        E 120 80 54 00
        E 0 80 60 00
        E 120 90 3d 60
        E 0 90 48 60
        E 0 90 4a 60
        E 0 90 54 60
        E 0 90 56 60
        E 0 90 60 60
        E 0 90 61 60
        E 0 90 63 60
        E 120 80 3d 00
        E 0 80 48 00
        E 0 80 4a 00
        E 0 80 54 00
        E 0 80 56 00
        E 0 80 60 00
        E 0 80 61 00
        E 0 80 63 00
        E 120 90 48 60
        E 0 90 4a 60
        E 0 90 54 60
        E 0 90 56 60
        E 0 90 60 60
        E 0 90 61 60
        E 0 90 63 60
        E 120 80 48 00
        E 0 80 4a 00
        E 0 80 54 00
        E 0 80 56 00
        E 0 80 60 00
        E 0 80 61 00
        E 0 80 63 00
        E 120 90 48 60
        E 0 90 4a 60
        E 0 90 54 60
        E 0 90 56 60
        E 0 90 60 60
        E 0 90 61 60
        E 0 90 63 60
        E 120 80 48 00
        E 0 80 4a 00
        E 0 80 54 00
        E 0 80 56 00
        E 0 80 60 00
        E 0 80 61 00
        E 0 80 63 00
        E 120 90 54 60
        E 0 90 60 60
        E 120 80 54 00
        E 0 80 60 00
        E 120 90 3c 60
        E 0 90 48 60
        E 0 90 49 60
        E 0 90 54 60
        E 0 90 55 60
        E 0 90 60 60
        E 0 90 61 60
        E 0 90 62 60
        E 120 80 3c 00
        E 0 80 48 00
        E 0 80 49 00
        E 240 80 54 00
        E 0 80 55 00
        E 0 80 60 00
        E 0 80 61 00
        E 0 80 62 00
        E 120 90 3c 60
        E 0 90 48 60
        E 0 90 49 60
        E 0 90 54 60
        E 0 90 55 60
        E 0 90 60 60
        E 0 90 61 60
        E 120 80 3c 00
        E 0 80 48 00
        E 0 80 49 00
        E 0 80 54 00
        E 0 80 55 00
        E 0 80 60 00
        E 0 80 61 00
        E 120 90 48 60
        E 0 90 49 60
        E 0 90 54 60
        E 0 90 55 60
        E 0 90 60 60
        E 0 90 61 60
        E 0 90 62 60
        E 120 80 48 00
        E 0 80 49 00
        E 0 80 54 00
        E 0 80 55 00
        E 0 80 60 00
        E 0 80 61 00
        E 0 80 62 00
        E 120 90 3c 60
        E 0 90 48 60
        E 0 90 49 60
        E 0 90 54 60
        E 0 90 55 60
        E 0 90 60 60
        E 0 90 61 60
        E 120 80 3c 00
        E 0 80 48 00
        E 0 80 49 00
        E 0 80 54 00
        E 0 80 55 00
        E 0 80 60 00
        E 0 80 61 00
        E 120 90 48 60
        E 0 90 49 60
        E 0 90 54 60
        E 0 90 55 60
        E 0 90 60 60
        E 0 90 61 60
        E 0 90 62 60
        E 120 80 48 00
        E 0 80 49 00
        E 0 80 54 00
        E 0 80 55 00
        E 0 80 60 00
        E 0 80 61 00
        E 0 80 62 00
        E 120 90 48 60
        E 0 90 49 60
        E 0 90 54 60
        E 0 90 55 60
        E 0 90 60 60
        E 0 90 61 60
        E 120 80 2b 00
        E 0 80 48 00
        E 0 80 49 00
        E 0 80 54 00
        E 0 80 55 00
        E 0 80 60 00
        E 0 80 61 00
        E 120 90 28 60
        E 0 90 55 60
        E 0 90 61 60
        E 120 80 55 00
        E 0 80 61 00
        E 120 90 40 60
        E 0 90 4b 60
        E 0 90 4c 60
        E 0 90 56 60
        E 0 90 58 60
        E 0 90 61 60
        E 0 90 63 60
        E 0 90 64 60
        E 120 80 40 00
        E 0 80 4b 00
        E 0 80 4c 00
        E 240 80 56 00
        E 0 80 58 00
        E 0 80 61 00
        E 0 80 63 00
        E 0 80 64 00
        E 120 90 49 60
        E 0 90 4b 60
        E 0 90 55 60
        E 0 90 57 60
        E 0 90 61 60
        E 0 90 63 60
        E 120 80 49 00
        E 0 80 4b 00
        E 240 80 55 00
        E 0 80 57 00
        E 0 80 61 00
        E 0 80 63 00
        E 120 90 40 60
        E 0 90 4b 60
        E 0 90 4c 60
        E 0 90 56 60
        E 0 90 58 60
        E 0 90 61 60
        E 0 90 63 60
        E 0 90 64 60
        E 120 80 40 00
        E 0 80 4b 00
        E 0 80 4c 00
        E 240 80 56 00
        E 0 80 58 00
        E 0 80 61 00
        E 0 80 63 00
        E 0 80 64 00
        E 120 90 49 60
        E 0 90 4b 60
        E 0 90 55 60
        E 0 90 57 60
        E 0 90 61 60
        E 0 90 63 60
        E 120 80 28 00
        E 0 80 49 00
        E 0 80 4b 00
        E 0 80 55 00
        E 0 80 57 00
        E 0 80 61 00
        E 0 80 63 00
        E 120 90 2b 60
        E 0 90 56 60
        E 0 90 62 60
        E 120 80 56 00
        E 0 80 62 00
        E 120 90 40 60
        E 0 90 4b 60
        E 0 90 4c 60
        E 0 90 57 60
        E 0 90 58 60
        E 0 90 62 60
        E 0 90 63 60
        E 0 90 64 60
        E 120 80 40 00
        E 0 80 4b 00
        E 0 80 4c 00
        E 240 80 57 00
        E 0 80 58 00
        E 0 80 62 00
        E 0 80 63 00
        E 0 80 64 00
        E 120 90 4a 60
        E 0 90 4b 60
        E 0 90 56 60
        E 0 90 57 60
        E 0 90 62 60
        E 0 90 63 60
        E 120 80 4a 00
        E 0 80 4b 00
        E 240 80 56 00
        E 0 80 57 00
        E 0 80 62 00
        E 0 80 63 00
        E 120 90 40 60
        E 0 90 4b 60
        E 0 90 4c 60
        E 0 90 57 60
        E 0 90 58 60
        E 0 90 62 60
        E 0 90 63 60
        E 0 90 64 60
        E 120 80 40 00
        E 0 80 4b 00
        E 0 80 4c 00
        E 240 80 57 00
        E 0 80 58 00
        E 0 80 62 00
        E 0 80 63 00
        E 0 80 64 00
        E 120 90 4a 60
        E 0 90 4b 60
        E 0 90 56 60
        E 0 90 57 60
        E 0 90 62 60
        E 0 90 63 60
        E 120 80 4a 00
        E 0 80 4b 00
        E 0 80 56 00
        E 0 80 57 00
        E 0 80 62 00
        E 0 80 63 00
        E 120 90 54 60
        E 0 90 60 60
        E 120 80 54 00
        E 0 80 60 00
        E 120 90 3e 60
        E 0 90 49 60
        E 0 90 4a 60
        E 0 90 54 60
        E 0 90 57 60
        E 0 90 60 60
        E 0 90 62 60
        E 0 90 63 60
        E 120 80 3e 00
        E 0 80 49 00
        E 0 80 4a 00
        E 240 80 54 00
        E 0 80 57 00
        E 0 80 60 00
        E 0 80 62 00
        E 0 80 63 00
        E 120 90 3e 60
        E 0 90 49 60
        E 0 90 4a 60
        E 0 90 54 60
        E 0 90 57 60
        E 0 90 60 60
        E 0 90 62 60
        E 0 90 63 60
        E 120 80 3e 00
        E 0 80 49 00
        E 0 80 4a 00
        E 240 80 54 00
        E 0 80 57 00
        E 0 80 60 00
        E 0 80 62 00
        E 0 80 63 00
        E 120 90 3e 60
        E 0 90 49 60
        E 0 90 4a 60
        E 0 90 54 60
        E 0 90 57 60
        E 0 90 60 60
        E 0 90 62 60
        E 0 90 63 60
        E 120 80 3e 00
        E 0 80 49 00
        E 0 80 4a 00
        E 240 80 54 00
        E 0 80 57 00
        E 0 80 60 00
        E 0 80 62 00
        E 0 80 63 00
        E 120 90 3e 60
        E 0 90 49 60
        E 0 90 4a 60
        E 0 90 54 60
        E 0 90 57 60
        E 0 90 60 60
        E 0 90 62 60
        E 0 90 63 60
        E 120 80 2b 00
        E 0 80 3e 00
        E 0 80 49 00
        E 0 80 4a 00
        E 0 80 54 00
        E 0 80 57 00
        E 0 80 60 00
        E 0 80 62 00
        E 0 80 63 00
        E 120 90 28 60
        E 0 90 55 60
        E 0 90 61 60
        E 120 80 55 00
        E 0 80 61 00
        E 120 90 3e 60
        E 0 90 49 60
        E 0 90 4b 60
        E 0 90 55 60
        E 0 90 57 60
        E 0 90 61 60
        E 0 90 63 60
        E 120 80 3e 00
        E 0 80 49 00
        E 0 80 4b 00
        E 0 80 55 00
        E 0 80 57 00
        E 0 80 61 00
        E 0 80 63 00
        E 120 90 56 60
        E 0 90 58 60
        E 0 90 61 60
        E 0 90 63 60
        E 0 90 64 60
        E 120 80 56 00
        E 0 80 58 00
        E 0 80 61 00
        E 0 80 63 00
        E 0 80 64 00
        E 120 90 3e 60
        E 0 90 49 60
        E 0 90 4b 60
        E 0 90 55 60
        E 0 90 57 60
        E 0 90 61 60
        E 0 90 63 60
        E 120 80 3e 00
        E 0 80 49 00
        E 0 80 4b 00
        E 240 80 55 00
        E 0 80 57 00
        E 0 80 61 00
        E 0 80 63 00
        E 120 90 3e 60
        E 0 90 49 60
        E 0 90 4b 60
        E 0 90 55 60
        E 0 90 57 60
        E 0 90 61 60
        E 0 90 63 60
        E 120 80 3e 00
        E 0 80 49 00
        E 0 80 4b 00
        E 240 80 55 00
        E 0 80 57 00
        E 0 80 61 00
        E 0 80 63 00
        E 120 90 3e 60
        E 0 90 49 60
        E 0 90 4b 60
        E 0 90 55 60
        E 0 90 57 60
        E 0 90 61 60
        E 0 90 63 60
        E 120 80 28 00
        E 0 80 3e 00
        E 0 80 49 00
        E 0 80 4b 00
        E 0 80 55 00
        E 0 80 57 00
        E 0 80 61 00
        E 0 80 63 00
        E 120 90 2b 60
        E 0 90 56 60
        E 0 90 62 60
        E 120 80 56 00
        E 0 80 62 00
        E 120 90 3e 60
        E 0 90 49 60
        E 0 90 4a 60
        E 0 90 54 60
        E 0 90 57 60
        E 0 90 60 60
        E 0 90 62 60
        E 0 90 63 60
        E 120 80 3e 00
        E 0 80 49 00
        E 0 80 4a 00
        E 240 80 54 00
        E 0 80 57 00
        E 0 80 60 00
        E 0 80 62 00
        E 0 80 63 00
        E 120 90 48 60
        E 0 90 4a 60
        E 0 90 54 60
        E 0 90 56 60
        E 0 90 60 60
        E 0 90 62 60
        E 120 80 48 00
        E 0 80 4a 00
        E 240 80 54 00
        E 0 80 56 00
        E 0 80 60 00
        E 0 80 62 00
        E 120 90 3e 60
        E 0 90 49 60
        E 0 90 4a 60
        E 0 90 54 60
        E 0 90 57 60
        E 0 90 60 60
        E 0 90 62 60
        E 0 90 63 60
        E 120 80 3e 00
        E 0 80 49 00
        E 0 80 4a 00
        E 240 80 54 00
        E 0 80 57 00
        E 0 80 60 00
        E 0 80 62 00
        E 0 80 63 00
        E 120 90 48 60
        E 0 90 4a 60
        E 0 90 54 60
        E 0 90 56 60
        E 0 90 60 60
        E 0 90 62 60
        E 120 80 2b 00
        E 0 80 48 00
        E 0 80 4a 00
        E 0 80 54 00
        E 0 80 56 00
        E 0 80 60 00
        E 0 80 62 00
        E 120 90 28 60
        E 0 90 57 60
        E 0 90 63 60
        E 120 80 57 00
        E 0 80 63 00
        E 120 90 3c 60
        E 0 90 48 60
        E 0 90 49 60
        E 0 90 54 60
        E 0 90 55 60
        E 0 90 60 60
        E 0 90 61 60
        E 120 80 3c 00
        E 0 80 48 00
        E 0 80 49 00
        E 0 80 54 00
        E 0 80 55 00
        E 0 80 60 00
        E 0 80 61 00
        E 120 90 54 60
        E 0 90 56 60
        E 0 90 60 60
        E 0 90 61 60
        E 0 90 63 60
        E 120 80 54 00
        E 0 80 56 00
        E 0 80 60 00
        E 0 80 61 00
        E 0 80 63 00
        E 120 90 3c 60
        E 0 90 48 60
        E 0 90 49 60
        E 0 90 54 60
        E 0 90 55 60
        E 0 90 60 60
        E 0 90 61 60
        E 120 80 3c 00
        E 0 80 48 00
        E 0 80 49 00
        E 0 80 54 00
        E 0 80 55 00
        E 0 80 60 00
        E 0 80 61 00
        E 120 90 54 60
        E 0 90 56 60
        E 0 90 60 60
        E 0 90 61 60
        E 0 90 63 60
        E 120 80 54 00
        E 0 80 56 00
        E 0 80 60 00
        E 0 80 61 00
        E 0 80 63 00
        E 120 90 3c 60
        E 0 90 48 60
        E 0 90 49 60
        E 0 90 54 60
        E 0 90 55 60
        E 0 90 60 60
        E 0 90 61 60
        E 120 80 3c 00
        E 0 80 48 00
        E 0 80 49 00
        E 0 80 54 00
        E 0 80 55 00
        E 0 80 60 00
        E 0 80 61 00
        E 120 90 54 60
        E 0 90 56 60
        E 0 90 60 60
        E 0 90 61 60
        E 0 90 63 60
        E 120 80 54 00
        E 0 80 56 00
        E 0 80 60 00
        E 0 80 61 00
        E 0 80 63 00
        E 120 90 48 60
        E 0 90 49 60
        E 0 90 54 60
        E 0 90 55 60
        E 0 90 60 60
        E 0 90 61 60
        E 120 80 48 00
        E 0 80 49 00
        E 0 80 54 00
        E 0 80 55 00
        E 0 80 60 00
        E 0 80 61 00
        E 120 90 55 60
        E 0 90 61 60
        E 120 80 55 00
        E 0 80 61 00
        <X 120 0
          /wFbcGxheV0=
        >
        E 0 90 40 60
        E 0 90 4b 60
        E 0 90 4c 60
        E 0 90 56 60
        E 0 90 58 60
        E 0 90 61 60
        E 0 90 63 60
        E 0 90 64 60
        E 120 80 40 00
        E 0 80 4b 00
        E 0 80 4c 00
        E 240 80 56 00
        E 0 80 58 00
        E 0 80 61 00
        E 0 80 63 00
        E 0 80 64 00
        E 120 90 4b 60
        E 0 90 4c 60
        E 0 90 56 60
        E 0 90 58 60
        E 0 90 61 60
        E 0 90 63 60
        E 0 90 64 60
        E 120 80 4b 00
        E 0 80 4c 00
        E 240 80 56 00
        E 0 80 58 00
        E 0 80 61 00
        E 0 80 63 00
        E 0 80 64 00
        E 120 90 3e 60
        E 0 90 49 60
        E 0 90 4b 60
        E 0 90 55 60
        E 0 90 57 60
        E 0 90 61 60
        E 0 90 63 60
        E 120 80 3e 00
        E 0 80 49 00
        E 0 80 4b 00
        E 240 80 55 00
        E 0 80 57 00
        E 0 80 61 00
        E 0 80 63 00
        E 120 90 3e 60
        E 0 90 49 60
        E 0 90 4b 60
        E 0 90 55 60
        E 0 90 57 60
        E 0 90 61 60
        E 0 90 63 60
        E 120 80 3e 00
        E 0 80 49 00
        E 0 80 4b 00
        E 0 80 55 00
        E 0 80 57 00
        E 0 80 61 00
        E 0 80 63 00
        E 120 90 56 60
        E 0 90 58 60
        E 0 90 61 60
        E 0 90 63 60
        E 0 90 64 60
        E 120 80 56 00
        E 0 80 58 00
        E 0 80 61 00
        E 0 80 63 00
        E 0 80 64 00
        E 120 90 3e 60
        E 0 90 49 60
        E 0 90 4b 60
        E 0 90 55 60
        E 0 90 57 60
        E 0 90 61 60
        E 0 90 63 60
        E 120 80 3e 00
        E 0 80 49 00
        E 0 80 4b 00
        E 0 80 55 00
        E 0 80 57 00
        E 0 80 61 00
        E 0 80 63 00
        E 120 90 56 60
        E 0 90 58 60
        E 0 90 61 60
        E 0 90 63 60
        E 0 90 64 60
        E 120 80 56 00
        E 0 80 58 00
        E 0 80 61 00
        E 0 80 63 00
        E 0 80 64 00
        E 120 90 49 60
        E 0 90 4b 60
        E 0 90 55 60
        E 0 90 57 60
        E 0 90 61 60
        E 0 90 63 60
        E 120 80 49 00
        E 0 80 4b 00
        E 240 80 55 00
        E 0 80 57 00
        E 0 80 61 00
        E 0 80 63 00
        E 120 90 40 60
        E 0 90 4b 60
        E 0 90 4c 60
        E 0 90 56 60
        E 0 90 58 60
        E 0 90 61 60
        E 0 90 63 60
        E 0 90 64 60
        E 120 80 40 00
        E 0 80 4b 00
        E 0 80 4c 00
        E 0 80 56 00
        E 0 80 58 00
        E 0 80 61 00
        E 0 80 63 00
        E 0 80 64 00
        E 120 90 4b 60
        E 0 90 4c 60
        E 0 90 56 60
        E 0 90 58 60
        E 0 90 61 60
        E 0 90 63 60
        E 0 90 64 60
        E 120 80 4b 00
        E 0 80 4c 00
        E 0 80 56 00
        E 0 80 58 00
        E 0 80 61 00
        E 0 80 63 00
        E 0 80 64 00
        E 120 90 4b 60
        E 0 90 4c 60
        E 0 90 56 60
        E 0 90 58 60
        E 0 90 61 60
        E 0 90 63 60
        E 0 90 64 60
        E 120 80 28 00
        E 0 80 4b 00
        E 0 80 4c 00
        E 0 80 56 00
        E 0 80 58 00
        E 0 80 61 00
        E 0 80 63 00
        E 0 80 64 00
        E 120 90 2b 60
        E 0 90 56 60
        E 0 90 62 60
        E 120 80 56 00
        E 0 80 62 00
        E 120 90 3f 60
        E 0 90 4a 60
        E 0 90 4b 60
        E 0 90 56 60
        E 0 90 57 60
        E 0 90 62 60
        E 0 90 63 60
        E 120 80 3f 00
        E 0 80 4a 00
        E 0 80 4b 00
        E 240 80 56 00
        E 0 80 57 00
        E 0 80 62 00
        E 0 80 63 00
        E 120 90 3f 60
        E 0 90 4a 60
        E 0 90 4b 60
        E 0 90 56 60
        E 0 90 57 60
        E 0 90 62 60
        E 0 90 63 60
        E 120 80 3f 00
        E 0 80 4a 00
        E 0 80 4b 00
        E 240 80 56 00
        E 0 80 57 00
        E 0 80 62 00
        E 0 80 63 00
        E 120 90 3f 60
        E 0 90 4a 60
        E 0 90 4b 60
        E 0 90 56 60
        E 0 90 57 60
        E 0 90 62 60
        E 0 90 63 60
        E 120 80 3f 00
        E 0 80 4a 00
        E 0 80 4b 00
        E 240 80 56 00
        E 0 80 57 00
        E 0 80 62 00
        E 0 80 63 00
        E 120 90 4a 60
        E 0 90 4b 60
        E 0 90 56 60
        E 0 90 57 60
        E 0 90 62 60
        E 0 90 63 60
        E 120 80 4a 00
        E 0 80 4b 00
        E 0 80 56 00
        E 0 80 57 00
        E 0 80 62 00
        E 0 80 63 00
        E 120 90 57 60
        E 0 90 58 60
        E 0 90 62 60
        E 0 90 63 60
        E 0 90 64 60
        E 120 80 57 00
        E 0 80 58 00
        E 0 80 62 00
        E 0 80 63 00
        E 0 80 64 00
        E 120 90 40 60
        E 0 90 4b 60
        E 0 90 4c 60
        E 0 90 57 60
        E 0 90 58 60
        E 0 90 62 60
        E 0 90 63 60
        E 0 90 64 60
        E 120 80 40 00
        E 0 80 4b 00
        E 0 80 4c 00
        E 0 80 57 00
        E 0 80 58 00
        E 0 80 62 00
        E 0 80 63 00
        E 0 80 64 00
        E 120 90 4b 60
        E 0 90 4c 60
        E 0 90 57 60
        E 0 90 58 60
        E 0 90 62 60
        E 0 90 63 60
        E 0 90 64 60
        E 120 80 4b 00
        E 0 80 4c 00
        E 0 80 57 00
        E 0 80 58 00
        E 0 80 62 00
        E 0 80 63 00
        E 0 80 64 00
        E 120 90 40 60
        E 0 90 4b 60
        E 0 90 4c 60
        E 0 90 57 60
        E 0 90 58 60
        E 0 90 62 60
        E 0 90 63 60
        E 0 90 64 60
        E 120 80 40 00
        E 0 80 4b 00
        E 0 80 4c 00
        E 240 80 57 00
        E 0 80 58 00
        E 0 80 62 00
        E 0 80 63 00
        E 0 80 64 00
        E 120 90 40 60
        E 0 90 4b 60
        E 0 90 4c 60
        E 0 90 57 60
        E 0 90 58 60
        E 0 90 62 60
        E 0 90 63 60
        E 0 90 64 60
        E 120 80 40 00
        E 0 80 4b 00
        E 0 80 4c 00
        E 240 80 2b 00
        E 0 80 57 00
        E 0 80 58 00
        E 0 80 62 00
        E 0 80 63 00
        E 0 80 64 00
        E 120 90 28 60
        E 0 90 49 60
        E 0 90 55 60
        E 0 90 61 60
        E 120 80 49 00
        E 0 80 55 00
        E 0 80 61 00
        E 120 90 55 60
        E 0 90 61 60
        E 120 80 55 00
        E 0 80 61 00
        E 120 90 40 60
        E 0 90 4b 60
        E 0 90 4c 60
        E 0 90 56 60
        E 0 90 58 60
        E 0 90 61 60
        E 0 90 63 60
        E 0 90 64 60
        E 0 90 74 60
        E 120 80 40 00
        E 0 80 4b 00
        E 0 80 4c 00
        E 240 80 56 00
        E 0 80 58 00
        E 0 80 61 00
        E 0 80 63 00
        E 0 80 64 00
        E 120 90 4b 60
        E 0 90 4c 60
        E 0 90 56 60
        E 0 90 58 60
        E 0 90 61 60
        E 0 90 63 60
        E 0 90 64 60
        E 120 80 4b 00
        E 0 80 4c 00
        E 240 80 56 00
        E 0 80 58 00
        E 0 80 61 00
        E 0 80 63 00
        E 0 80 64 00
        E 120 90 3e 60
        E 0 90 49 60
        E 0 90 4b 60
        E 0 90 55 60
        E 0 90 57 60
        E 0 90 61 60
        E 0 90 63 60
        E 120 80 3e 00
        E 0 80 49 00
        E 0 80 4b 00
        E 240 80 55 00
        E 0 80 57 00
        E 0 80 61 00
        E 0 80 63 00
        E 120 90 3e 60
        E 0 90 49 60
        E 0 90 4b 60
        E 0 90 55 60
        E 0 90 57 60
        E 0 90 61 60
        E 0 90 63 60
        E 120 80 3e 00
        E 0 80 49 00
        E 0 80 4b 00
        E 0 80 55 00
        E 0 80 57 00
        E 0 80 61 00
        E 0 80 63 00
        E 120 90 56 60
        E 0 90 58 60
        E 0 90 61 60
        E 0 90 63 60
        E 0 90 64 60
        E 120 80 56 00
        E 0 80 58 00
        E 0 80 61 00
        E 0 80 63 00
        E 0 80 64 00
        E 120 90 3e 60
        E 0 90 49 60
        E 0 90 4b 60
        E 0 90 55 60
        E 0 90 57 60
        E 0 90 61 60
        E 0 90 63 60
        E 120 80 3e 00
        E 0 80 49 00
        E 0 80 4b 00
        E 0 80 55 00
        E 0 80 57 00
        E 0 80 61 00
        E 0 80 63 00
        E 120 90 56 60
        E 0 90 58 60
        E 0 90 61 60
        E 0 90 63 60
        E 0 90 64 60
        E 120 80 56 00
        E 0 80 58 00
        E 0 80 61 00
        E 0 80 63 00
        E 0 80 64 00
        E 120 90 49 60
        E 0 90 4b 60
        E 0 90 55 60
        E 0 90 57 60
        E 0 90 61 60
        E 0 90 63 60
        E 120 80 49 00
        E 0 80 4b 00
        E 240 80 55 00
        E 0 80 57 00
        E 0 80 61 00
        E 0 80 63 00
        E 120 90 40 60
        E 0 90 4b 60
        E 0 90 4c 60
        E 0 90 56 60
        E 0 90 58 60
        E 0 90 61 60
        E 0 90 63 60
        E 0 90 64 60
        E 120 80 40 00
        E 0 80 4b 00
        E 0 80 4c 00
        E 0 80 56 00
        E 0 80 58 00
        E 0 80 61 00
        E 0 80 63 00
        E 0 80 64 00
        E 120 90 56 60
        E 0 90 58 60
        E 0 90 61 60
        E 0 90 63 60
        E 0 90 64 60
        E 120 80 56 00
        E 0 80 58 00
        E 0 80 61 00
        E 0 80 63 00
        E 0 80 64 00
        E 120 90 49 60
        E 0 90 55 60
        E 0 90 61 60
        E 120 80 49 00
        E 0 80 55 00
        E 0 80 61 00
        E 240 80 28 00
        E 120 90 2b 60
        E 0 90 40 60
        E 0 90 4b 60
        E 0 90 4c 60
        E 0 90 57 60
        E 0 90 58 60
        E 0 90 62 60
        E 0 90 63 60
        E 0 90 64 60
        E 120 80 74 00
        E 3240 80 40 00
        E 0 80 4b 00
        E 0 80 4c 00
        E 0 80 57 00
        E 0 80 58 00
        E 0 80 62 00
        E 0 80 63 00
        E 0 80 64 00
        E 360 80 2b 00
        E 120 90 28 60
        E 0 90 3f 60
        E 0 90 4a 60
        E 0 90 4b 60
        E 0 90 55 60
        E 0 90 58 60
        E 0 90 61 60
        E 0 90 62 60
        E 0 90 64 60
        E 3360 80 3f 00
        E 0 80 4a 00
        E 0 80 4b 00
        E 0 80 55 00
        E 0 80 58 00
        E 0 80 61 00
        E 0 80 62 00
        E 0 80 64 00
        E 120 80 28 00
        E 120 90 2b 60
        E 0 90 54 60
        E 0 90 60 60
        E 120 80 54 00
        E 0 80 60 00
        <X 120 0
          /wFbbWVsbG93XQ==
        >
        E 0 90 3e 60
        E 0 90 49 60
        E 0 90 4a 60
        E 0 90 54 60
        E 0 90 57 60
        E 0 90 60 60
        E 0 90 62 60
        E 0 90 63 60
        E 120 80 3e 00
        E 0 80 49 00
        E 0 80 4a 00
        E 240 80 54 00
        E 0 80 57 00
        E 0 80 60 00
        E 0 80 62 00
        E 0 80 63 00
        E 120 90 49 60
        E 0 90 4a 60
        E 0 90 54 60
        E 0 90 57 60
        E 0 90 60 60
        E 0 90 62 60
        E 0 90 63 60
        E 120 80 49 00
        E 0 80 4a 00
        E 0 80 54 00
        E 0 80 57 00
        E 0 80 60 00
        E 0 80 62 00
        E 0 80 63 00
        E 120 90 54 60
        E 0 90 60 60
        E 120 80 54 00
        E 0 80 60 00
        E 120 90 3d 60
        E 0 90 48 60
        E 0 90 4a 60
        E 0 90 54 60
        E 0 90 56 60
        E 0 90 60 60
        E 0 90 61 60
        E 0 90 63 60
        E 120 80 3d 00
        E 0 80 48 00
        E 0 80 4a 00
        E 240 80 54 00
        E 0 80 56 00
        E 0 80 60 00
        E 0 80 61 00
        E 0 80 63 00
        E 120 90 48 60
        E 0 90 4a 60
        E 0 90 54 60
        E 0 90 56 60
        E 0 90 60 60
        E 0 90 61 60
        E 0 90 63 60
        E 120 80 48 00
        E 0 80 4a 00
        E 0 80 54 00
        E 0 80 56 00
        E 0 80 60 00
        E 0 80 61 00
        E 0 80 63 00
        E 120 90 54 60
        E 0 90 60 60
        E 120 80 54 00
        E 0 80 60 00
        E 120 90 3c 60
        E 0 90 48 60
        E 0 90 49 60
        E 0 90 54 60
        E 0 90 55 60
        E 0 90 60 60
        E 0 90 61 60
        E 0 90 62 60
        E 120 80 3c 00
        E 0 80 48 00
        E 0 80 49 00
        E 240 80 54 00
        E 0 80 55 00
        E 0 80 60 00
        E 0 80 61 00
        E 0 80 62 00
        E 120 90 3c 60
        E 0 90 48 60
        E 0 90 49 60
        E 0 90 54 60
        E 0 90 55 60
        E 0 90 60 60
        E 0 90 61 60
        E 0 90 62 60
        E 120 80 3c 00
        E 0 80 48 00
        E 0 80 49 00
        E 240 80 54 00
        E 0 80 55 00
        E 0 80 60 00
        E 0 80 61 00
        E 0 80 62 00
        E 120 90 3c 60
        E 0 90 48 60
        E 0 90 49 60
        E 0 90 54 60
        E 0 90 55 60
        E 0 90 60 60
        E 0 90 61 60
        E 0 90 62 60
        E 120 80 3c 00
        E 0 80 48 00
        E 0 80 49 00
        E 240 80 54 00
        E 0 80 55 00
        E 0 80 60 00
        E 0 80 61 00
        E 0 80 62 00
        E 120 90 48 60
        E 0 90 49 60
        E 0 90 54 60
        E 0 90 55 60
        E 0 90 60 60
        E 0 90 61 60
        E 0 90 62 60
        E 120 80 2b 00
        E 0 80 48 00
        E 0 80 49 00
        E 0 80 54 00
        E 0 80 55 00
        E 0 80 60 00
        E 0 80 61 00
        E 0 80 62 00
        E 120 90 28 60
        E 0 90 55 60
        E 0 90 61 60
        E 120 80 55 00
        E 0 80 61 00
        E 120 90 40 60
        E 0 90 4b 60
        E 0 90 4c 60
        E 0 90 56 60
        E 0 90 58 60
        E 0 90 61 60
        E 0 90 63 60
        E 0 90 64 60
        E 120 80 40 00
        E 0 80 4b 00
        E 0 80 4c 00
        E 240 80 56 00
        E 0 80 58 00
        E 0 80 61 00
        E 0 80 63 00
        E 0 80 64 00
        E 120 90 4b 60
        E 0 90 4c 60
        E 0 90 56 60
        E 0 90 58 60
        E 0 90 61 60
        E 0 90 63 60
        E 0 90 64 60
        E 120 80 4b 00
        E 0 80 4c 00
        E 0 80 56 00
        E 0 80 58 00
        E 0 80 61 00
        E 0 80 63 00
        E 0 80 64 00
        E 120 90 55 60
        E 0 90 61 60
        E 120 80 55 00
        E 0 80 61 00
        E 120 90 3f 60
        E 0 90 4a 60
        E 0 90 4b 60
        E 0 90 55 60
        E 0 90 58 60
        E 0 90 61 60
        E 0 90 62 60
        E 0 90 64 60
        E 120 80 3f 00
        E 0 80 4a 00
        E 0 80 4b 00
        E 0 80 55 00
        E 0 80 58 00
        E 0 80 61 00
        E 0 80 62 00
        E 0 80 64 00
        E 120 90 4a 60
        E 0 90 4b 60
        E 0 90 55 60
        E 0 90 58 60
        E 0 90 61 60
        E 0 90 62 60
        E 0 90 64 60
        E 120 80 4a 00
        E 0 80 4b 00
        E 0 80 55 00
        E 0 80 58 00
        E 0 80 61 00
        E 0 80 62 00
        E 0 80 64 00
        E 120 90 4a 60
        E 0 90 4b 60
        E 0 90 55 60
        E 0 90 58 60
        E 0 90 61 60
        E 0 90 62 60
        E 0 90 64 60
        E 120 80 4a 00
        E 0 80 4b 00
        E 0 80 55 00
        E 0 80 58 00
        E 0 80 61 00
        E 0 80 62 00
        E 0 80 64 00
        E 120 90 55 60
        E 0 90 61 60
        E 120 80 55 00
        E 0 80 61 00
        E 120 90 3e 60
        E 0 90 49 60
        E 0 90 4b 60
        E 0 90 55 60
        E 0 90 57 60
        E 0 90 61 60
        E 0 90 62 60
        E 0 90 63 60
        E 120 80 3e 00
        E 0 80 49 00
        E 0 80 4b 00
        E 240 80 55 00
        E 0 80 57 00
        E 0 80 61 00
        E 0 80 62 00
        E 0 80 63 00
        E 120 90 3e 60
        E 0 90 49 60
        E 0 90 4a 60
        E 0 90 55 60
        E 0 90 56 60
        E 0 90 61 60
        E 0 90 62 60
        E 120 80 3e 00
        E 0 80 49 00
        E 0 80 4a 00
        E 0 80 55 00
        E 0 80 56 00
        E 0 80 61 00
        E 0 80 62 00
        E 120 90 55 60
        E 0 90 57 60
        E 0 90 61 60
        E 0 90 62 60
        E 0 90 63 60
        E 120 80 55 00
        E 0 80 57 00
        E 0 80 61 00
        E 0 80 62 00
        E 0 80 63 00
        E 120 90 3e 60
        E 0 90 49 60
        E 0 90 4a 60
        E 0 90 55 60
        E 0 90 56 60
        E 0 90 61 60
        E 0 90 62 60
        E 120 80 3e 00
        E 0 80 49 00
        E 0 80 4a 00
        E 0 80 55 00
        E 0 80 56 00
        E 0 80 61 00
        E 0 80 62 00
        E 120 90 54 60
        E 0 90 56 60
        E 0 90 60 60
        E 0 90 62 60
        E 120 80 54 00
        E 0 80 56 00
        E 0 80 60 00
        E 0 80 62 00
        E 120 90 3e 60
        E 0 90 48 60
        E 0 90 4a 60
        E 0 90 54 60
        E 0 90 56 60
        E 0 90 60 60
        E 0 90 62 60
        E 120 80 28 00
        E 0 80 3e 00
        E 0 80 48 00
        E 0 80 4a 00
        E 0 80 54 00
        E 0 80 56 00
        E 0 80 60 00
        E 0 80 62 00
        E 120 90 2b 60
        E 0 90 54 60
        E 0 90 60 60
        E 120 80 54 00
        E 0 80 60 00
        E 120 90 3e 60
        E 0 90 49 60
        E 0 90 4a 60
        E 0 90 54 60
        E 0 90 57 60
        E 0 90 60 60
        E 0 90 62 60
        E 0 90 63 60
        E 120 80 3e 00
        E 0 80 49 00
        E 0 80 4a 00
        E 240 80 54 00
        E 0 80 57 00
        E 0 80 60 00
        E 0 80 62 00
        E 0 80 63 00
        E 120 90 49 60
        E 0 90 4a 60
        E 0 90 54 60
        E 0 90 57 60
        E 0 90 60 60
        E 0 90 62 60
        E 0 90 63 60
        E 120 80 49 00
        E 0 80 4a 00
        E 0 80 54 00
        E 0 80 57 00
        E 0 80 60 00
        E 0 80 62 00
        E 0 80 63 00
        E 120 90 54 60
        E 0 90 60 60
        E 120 80 54 00
        E 0 80 60 00
        E 120 90 3d 60
        E 0 90 48 60
        E 0 90 4a 60
        E 0 90 54 60
        E 0 90 56 60
        E 0 90 60 60
        E 0 90 61 60
        E 0 90 63 60
        E 120 80 3d 00
        E 0 80 48 00
        E 0 80 4a 00
        E 240 80 54 00
        E 0 80 56 00
        E 0 80 60 00
        E 0 80 61 00
        E 0 80 63 00
        E 120 90 48 60
        E 0 90 4a 60
        E 0 90 54 60
        E 0 90 56 60
        E 0 90 60 60
        E 0 90 61 60
        E 0 90 63 60
        E 120 80 48 00
        E 0 80 4a 00
        E 0 80 54 00
        E 0 80 56 00
        E 0 80 60 00
        E 0 80 61 00
        E 0 80 63 00
        E 120 90 54 60
        E 0 90 60 60
        E 120 80 54 00
        E 0 80 60 00
        E 120 90 3c 60
        E 0 90 48 60
        E 0 90 49 60
        E 0 90 54 60
        E 0 90 55 60
        E 0 90 60 60
        E 0 90 61 60
        E 0 90 62 60
        E 120 80 3c 00
        E 0 80 48 00
        E 0 80 49 00
        E 240 80 54 00
        E 0 80 55 00
        E 0 80 60 00
        E 0 80 61 00
        E 0 80 62 00
        E 120 90 3c 60
        E 0 90 48 60
        E 0 90 49 60
        E 0 90 54 60
        E 0 90 55 60
        E 0 90 60 60
        E 0 90 61 60
        E 120 80 3c 00
        E 0 80 48 00
        E 0 80 49 00
        E 0 80 54 00
        E 0 80 55 00
        E 0 80 60 00
        E 0 80 61 00
        E 120 90 48 60
        E 0 90 49 60
        E 0 90 54 60
        E 0 90 55 60
        E 0 90 60 60
        E 0 90 61 60
        E 0 90 62 60
        E 120 80 48 00
        E 0 80 49 00
        E 0 80 54 00
        E 0 80 55 00
        E 0 80 60 00
        E 0 80 61 00
        E 0 80 62 00
        E 120 90 3c 60
        E 0 90 48 60
        E 0 90 49 60
        E 0 90 54 60
        E 0 90 55 60
        E 0 90 60 60
        E 0 90 61 60
        E 120 80 3c 00
        E 0 80 48 00
        E 0 80 49 00
        E 0 80 54 00
        E 0 80 55 00
        E 0 80 60 00
        E 0 80 61 00
        E 120 90 48 60
        E 0 90 49 60
        E 0 90 54 60
        E 0 90 55 60
        E 0 90 60 60
        E 0 90 61 60
        E 0 90 62 60
        E 120 80 48 00
        E 0 80 49 00
        E 0 80 54 00
        E 0 80 55 00
        E 0 80 60 00
        E 0 80 61 00
        E 0 80 62 00
        E 120 90 48 60
        E 0 90 49 60
        E 0 90 54 60
        E 0 90 55 60
        E 0 90 60 60
        E 0 90 61 60
        E 120 80 2b 00
        E 0 80 48 00
        E 0 80 49 00
        E 0 80 54 00
        E 0 80 55 00
        E 0 80 60 00
        E 0 80 61 00
        E 120 90 28 60
        E 0 90 55 60
        E 0 90 61 60
        E 120 80 55 00
        E 0 80 61 00
        E 120 90 40 60
        E 0 90 4b 60
        E 0 90 4c 60
        E 0 90 56 60
        E 0 90 58 60
        E 0 90 61 60
        E 0 90 63 60
        E 0 90 64 60
        E 120 80 40 00
        E 0 80 4b 00
        E 0 80 4c 00
        E 240 80 56 00
        E 0 80 58 00
        E 0 80 61 00
        E 0 80 63 00
        E 0 80 64 00
        E 120 90 4b 60
        E 0 90 4c 60
        E 0 90 56 60
        E 0 90 58 60
        E 0 90 61 60
        E 0 90 63 60
        E 0 90 64 60
        E 120 80 4b 00
        E 0 80 4c 00
        E 0 80 56 00
        E 0 80 58 00
        E 0 80 61 00
        E 0 80 63 00
        E 0 80 64 00
        E 120 90 55 60
        E 0 90 61 60
        E 120 80 55 00
        E 0 80 61 00
        E 120 90 3f 60
        E 0 90 4a 60
        E 0 90 4b 60
        E 0 90 55 60
        E 0 90 58 60
        E 0 90 61 60
        E 0 90 62 60
        E 0 90 64 60
        E 120 80 3f 00
        E 0 80 4a 00
        E 0 80 4b 00
        E 240 80 55 00
        E 0 80 58 00
        E 0 80 61 00
        E 0 80 62 00
        E 0 80 64 00
        E 120 90 4a 60
        E 0 90 4b 60
        E 0 90 55 60
        E 0 90 58 60
        E 0 90 61 60
        E 0 90 62 60
        E 0 90 64 60
        E 120 80 4a 00
        E 0 80 4b 00
        E 0 80 55 00
        E 0 80 58 00
        E 0 80 61 00
        E 0 80 62 00
        E 0 80 64 00
        E 120 90 55 60
        E 0 90 61 60
        E 120 80 55 00
        E 0 80 61 00
        E 120 90 3e 60
        E 0 90 49 60
        E 0 90 4b 60
        E 0 90 55 60
        E 0 90 57 60
        E 0 90 61 60
        E 0 90 62 60
        E 0 90 63 60
        E 120 80 3e 00
        E 0 80 49 00
        E 0 80 4b 00
        E 240 80 55 00
        E 0 80 57 00
        E 0 80 61 00
        E 0 80 62 00
        E 0 80 63 00
        E 120 90 3e 60
        E 0 90 49 60
        E 0 90 4a 60
        E 0 90 55 60
        E 0 90 56 60
        E 0 90 61 60
        E 0 90 62 60
        E 120 80 3e 00
        E 0 80 49 00
        E 0 80 4a 00
        E 0 80 55 00
        E 0 80 56 00
        E 0 80 61 00
        E 0 80 62 00
        E 120 90 55 60
        E 0 90 57 60
        E 0 90 61 60
        E 0 90 62 60
        E 0 90 63 60
        E 120 80 55 00
        E 0 80 57 00
        E 0 80 61 00
        E 0 80 62 00
        E 0 80 63 00
        E 120 90 3e 60
        E 0 90 49 60
        E 0 90 4a 60
        E 0 90 55 60
        E 0 90 56 60
        E 0 90 61 60
        E 0 90 62 60
        E 120 80 3e 00
        E 0 80 49 00
        E 0 80 4a 00
        E 0 80 55 00
        E 0 80 56 00
        E 0 80 61 00
        E 0 80 62 00
        E 120 90 54 60
        E 0 90 56 60
        E 0 90 60 60
        E 0 90 62 60
        E 120 80 54 00
        E 0 80 56 00
        E 0 80 60 00
        E 0 80 62 00
        E 120 90 3e 60
        E 0 90 48 60
        E 0 90 4a 60
        E 0 90 54 60
        E 0 90 56 60
        E 0 90 60 60
        E 0 90 62 60
        E 120 80 28 00
        E 0 80 3e 00
        E 0 80 48 00
        E 0 80 4a 00
        E 0 80 54 00
        E 0 80 56 00
        E 0 80 60 00
        E 0 80 62 00
        E 120 90 2b 60
        E 0 90 54 60
        E 0 90 60 60
        E 120 80 54 00
        E 0 80 60 00
        E 120 90 3e 60
        E 0 90 49 60
        E 0 90 4a 60
        E 0 90 54 60
        E 0 90 57 60
        E 0 90 60 60
        E 0 90 62 60
        E 0 90 63 60
        E 120 80 3e 00
        E 0 80 49 00
        E 0 80 4a 00
        E 240 80 54 00
        E 0 80 57 00
        E 0 80 60 00
        E 0 80 62 00
        E 0 80 63 00
        E 120 90 49 60
        E 0 90 4a 60
        E 0 90 54 60
        E 0 90 57 60
        E 0 90 60 60
        E 0 90 62 60
        E 0 90 63 60
        E 120 80 49 00
        E 0 80 4a 00
        E 0 80 54 00
        E 0 80 57 00
        E 0 80 60 00
        E 0 80 62 00
        E 0 80 63 00
        E 120 90 54 60
        E 0 90 60 60
        E 120 80 54 00
        E 0 80 60 00
        E 120 90 3d 60
        E 0 90 48 60
        E 0 90 4a 60
        E 0 90 54 60
        E 0 90 56 60
        E 0 90 60 60
        E 0 90 61 60
        E 0 90 63 60
        E 120 80 3d 00
        E 0 80 48 00
        E 0 80 4a 00
        E 0 80 54 00
        E 0 80 56 00
        E 0 80 60 00
        E 0 80 61 00
        E 0 80 63 00
        E 120 90 48 60
        E 0 90 4a 60
        E 0 90 54 60
        E 0 90 56 60
        E 0 90 60 60
        E 0 90 61 60
        E 0 90 63 60
        E 120 80 48 00
        E 0 80 4a 00
        E 0 80 54 00
        E 0 80 56 00
        E 0 80 60 00
        E 0 80 61 00
        E 0 80 63 00
        E 120 90 48 60
        E 0 90 4a 60
        E 0 90 54 60
        E 0 90 56 60
        E 0 90 60 60
        E 0 90 61 60
        E 0 90 63 60
        E 120 80 48 00
        E 0 80 4a 00
        E 0 80 54 00
        E 0 80 56 00
        E 0 80 60 00
        E 0 80 61 00
        E 0 80 63 00
        E 120 90 54 60
        E 0 90 60 60
        E 120 80 54 00
        E 0 80 60 00
        E 120 90 3c 60
        E 0 90 48 60
        E 0 90 49 60
        E 0 90 54 60
        E 0 90 55 60
        E 0 90 60 60
        E 0 90 61 60
        E 0 90 62 60
        E 120 80 3c 00
        E 0 80 48 00
        E 0 80 49 00
        E 240 80 54 00
        E 0 80 55 00
        E 0 80 60 00
        E 0 80 61 00
        E 0 80 62 00
        E 120 90 3c 60
        E 0 90 48 60
        E 0 90 49 60
        E 0 90 54 60
        E 0 90 55 60
        E 0 90 60 60
        E 0 90 61 60
        E 120 80 3c 00
        E 0 80 48 00
        E 0 80 49 00
        E 0 80 54 00
        E 0 80 55 00
        E 0 80 60 00
        E 0 80 61 00
        E 120 90 48 60
        E 0 90 49 60
        E 0 90 54 60
        E 0 90 55 60
        E 0 90 60 60
        E 0 90 61 60
        E 0 90 62 60
        E 120 80 48 00
        E 0 80 49 00
        E 0 80 54 00
        E 0 80 55 00
        E 0 80 60 00
        E 0 80 61 00
        E 0 80 62 00
        E 120 90 3c 60
        E 0 90 48 60
        E 0 90 49 60
        E 0 90 54 60
        E 0 90 55 60
        E 0 90 60 60
        E 0 90 61 60
        E 120 80 3c 00
        E 0 80 48 00
        E 0 80 49 00
        E 0 80 54 00
        E 0 80 55 00
        E 0 80 60 00
        E 0 80 61 00
        E 120 90 48 60
        E 0 90 49 60
        E 0 90 54 60
        E 0 90 55 60
        E 0 90 60 60
        E 0 90 61 60
        E 0 90 62 60
        E 120 80 48 00
        E 0 80 49 00
        E 0 80 54 00
        E 0 80 55 00
        E 0 80 60 00
        E 0 80 61 00
        E 0 80 62 00
        E 120 90 48 60
        E 0 90 49 60
        E 0 90 54 60
        E 0 90 55 60
        E 0 90 60 60
        E 0 90 61 60
        E 120 80 2b 00
        E 0 80 48 00
        E 0 80 49 00
        E 0 80 54 00
        E 0 80 55 00
        E 0 80 60 00
        E 0 80 61 00
        E 120 90 28 60
        E 0 90 55 60
        E 0 90 61 60
        E 120 80 55 00
        E 0 80 61 00
        E 120 90 40 60
        E 0 90 4b 60
        E 0 90 4c 60
        E 0 90 56 60
        E 0 90 58 60
        E 0 90 61 60
        E 0 90 63 60
        E 0 90 64 60
        E 120 80 40 00
        E 0 80 4b 00
        E 0 80 4c 00
        E 240 80 56 00
        E 0 80 58 00
        E 0 80 61 00
        E 0 80 63 00
        E 0 80 64 00
        E 120 90 4b 60
        E 0 90 4c 60
        E 0 90 56 60
        E 0 90 58 60
        E 0 90 61 60
        E 0 90 63 60
        E 0 90 64 60
        E 120 80 4b 00
        E 0 80 4c 00
        E 0 80 56 00
        E 0 80 58 00
        E 0 80 61 00
        E 0 80 63 00
        E 0 80 64 00
        E 120 90 55 60
        E 0 90 61 60
        E 120 80 55 00
        E 0 80 61 00
        E 120 90 3f 60
        E 0 90 4a 60
        E 0 90 4b 60
        E 0 90 55 60
        E 0 90 58 60
        E 0 90 61 60
        E 0 90 62 60
        E 0 90 64 60
        E 120 80 3f 00
        E 0 80 4a 00
        E 0 80 4b 00
        E 240 80 55 00
        E 0 80 58 00
        E 0 80 61 00
        E 0 80 62 00
        E 0 80 64 00
        E 120 90 4a 60
        E 0 90 4b 60
        E 0 90 55 60
        E 0 90 58 60
        E 0 90 61 60
        E 0 90 62 60
        E 0 90 64 60
        E 120 80 4a 00
        E 0 80 4b 00
        E 0 80 55 00
        E 0 80 58 00
        E 0 80 61 00
        E 0 80 62 00
        E 0 80 64 00
        E 120 90 55 60
        E 0 90 61 60
        E 120 80 55 00
        E 0 80 61 00
        E 120 90 3e 60
        E 0 90 49 60
        E 0 90 4b 60
        E 0 90 55 60
        E 0 90 57 60
        E 0 90 61 60
        E 0 90 62 60
        E 0 90 63 60
        E 120 80 3e 00
        E 0 80 49 00
        E 0 80 4b 00
        E 240 80 55 00
        E 0 80 57 00
        E 0 80 61 00
        E 0 80 62 00
        E 0 80 63 00
        E 120 90 3e 60
        E 0 90 49 60
        E 0 90 4a 60
        E 0 90 55 60
        E 0 90 56 60
        E 0 90 61 60
        E 0 90 62 60
        E 120 80 3e 00
        E 0 80 49 00
        E 0 80 4a 00
        E 0 80 55 00
        E 0 80 56 00
        E 0 80 61 00
        E 0 80 62 00
        E 120 90 55 60
        E 0 90 57 60
        E 0 90 61 60
        E 0 90 62 60
        E 0 90 63 60
        E 120 80 55 00
        E 0 80 57 00
        E 0 80 61 00
        E 0 80 62 00
        E 0 80 63 00
        E 120 90 3e 60
        E 0 90 49 60
        E 0 90 4a 60
        E 0 90 55 60
        E 0 90 56 60
        E 0 90 61 60
        E 0 90 62 60
        E 120 80 3e 00
        E 0 80 49 00
        E 0 80 4a 00
        E 0 80 55 00
        E 0 80 56 00
        E 0 80 61 00
        E 0 80 62 00
        E 120 90 54 60
        E 0 90 56 60
        E 0 90 60 60
        E 0 90 62 60
        E 120 80 54 00
        E 0 80 56 00
        E 0 80 60 00
        E 0 80 62 00
        E 120 90 3e 60
        E 0 90 48 60
        E 0 90 4a 60
        E 0 90 54 60
        E 0 90 56 60
        E 0 90 60 60
        E 0 90 62 60
        E 120 80 28 00
        E 0 80 3e 00
        E 0 80 48 00
        E 0 80 4a 00
        E 0 80 54 00
        E 0 80 56 00
        E 0 80 60 00
        E 0 80 62 00
        E 120 90 2b 60
        E 0 90 54 60
        E 0 90 60 60
        E 120 80 54 00
        E 0 80 60 00
        E 120 90 3e 60
        E 0 90 49 60
        E 0 90 4a 60
        E 0 90 54 60
        E 0 90 57 60
        E 0 90 60 60
        E 0 90 62 60
        E 0 90 63 60
        E 120 80 3e 00
        E 0 80 49 00
        E 0 80 4a 00
        E 240 80 54 00
        E 0 80 57 00
        E 0 80 60 00
        E 0 80 62 00
        E 0 80 63 00
        E 120 90 49 60
        E 0 90 4a 60
        E 0 90 54 60
        E 0 90 57 60
        E 0 90 60 60
        E 0 90 62 60
        E 0 90 63 60
        E 120 80 49 00
        E 0 80 4a 00
        E 0 80 54 00
        E 0 80 57 00
        E 0 80 60 00
        E 0 80 62 00
        E 0 80 63 00
        E 120 90 54 60
        E 0 90 60 60
        E 120 80 54 00
        E 0 80 60 00
        E 120 90 3d 60
        E 0 90 48 60
        E 0 90 4a 60
        E 0 90 54 60
        E 0 90 56 60
        E 0 90 60 60
        E 0 90 61 60
        E 0 90 63 60
        E 120 80 3d 00
        E 0 80 48 00
        E 0 80 4a 00
        E 240 80 54 00
        E 0 80 56 00
        E 0 80 60 00
        E 0 80 61 00
        E 0 80 63 00
        E 120 90 48 60
        E 0 90 4a 60
        E 0 90 54 60
        E 0 90 56 60
        E 0 90 60 60
        E 0 90 61 60
        E 0 90 63 60
        E 120 80 48 00
        E 0 80 4a 00
        E 0 80 54 00
        E 0 80 56 00
        E 0 80 60 00
        E 0 80 61 00
        E 0 80 63 00
        E 120 90 54 60
        E 0 90 60 60
        E 120 80 54 00
        E 0 80 60 00
        E 120 90 3c 60
        E 0 90 48 60
        E 0 90 49 60
        E 0 90 54 60
        E 0 90 55 60
        E 0 90 60 60
        E 0 90 61 60
        E 0 90 62 60
        E 0 90 74 60
        E 120 80 3c 00
        E 0 80 48 00
        E 0 80 49 00
        E 240 80 54 00
        E 0 80 55 00
        E 0 80 60 00
        E 0 80 61 00
        E 0 80 62 00
        E 120 90 3c 60
        E 0 90 48 60
        E 0 90 49 60
        E 0 90 54 60
        E 0 90 55 60
        E 0 90 60 60
        E 0 90 61 60
        E 120 80 3c 00
        E 0 80 48 00
        E 0 80 49 00
        E 0 80 54 00
        E 0 80 55 00
        E 0 80 60 00
        E 0 80 61 00
        E 120 90 48 60
        E 0 90 49 60
        E 0 90 54 60
        E 0 90 55 60
        E 0 90 60 60
        E 0 90 61 60
        E 0 90 62 60
        E 120 80 48 00
        E 0 80 49 00
        E 0 80 54 00
        E 0 80 55 00
        E 0 80 60 00
        E 0 80 61 00
        E 0 80 62 00
        E 120 90 3c 60
        E 0 90 48 60
        E 0 90 49 60
        E 0 90 54 60
        E 0 90 55 60
        E 0 90 60 60
        E 0 90 61 60
        E 120 80 3c 00
        E 0 80 48 00
        E 0 80 49 00
        E 0 80 54 00
        E 0 80 55 00
        E 0 80 60 00
        E 0 80 61 00
        E 120 90 48 60
        E 0 90 49 60
        E 0 90 54 60
        E 0 90 55 60
        E 0 90 60 60
        E 0 90 61 60
        E 0 90 62 60
        E 120 80 48 00
        E 0 80 49 00
        E 0 80 54 00
        E 0 80 55 00
        E 0 80 60 00
        E 0 80 61 00
        E 0 80 62 00
        E 120 90 48 60
        E 0 90 49 60
        E 0 90 54 60
        E 0 90 55 60
        E 0 90 60 60
        E 0 90 61 60
        E 120 80 2b 00
        E 0 80 48 00
        E 0 80 49 00
        E 0 80 54 00
        E 0 80 55 00
        E 0 80 60 00
        E 0 80 61 00
        E 120 90 28 60
        E 0 90 55 60
        E 0 90 61 60
        E 120 80 55 00
        E 0 80 61 00
        E 120 90 40 60
        E 0 90 4b 60
        E 0 90 4c 60
        E 0 90 56 60
        E 0 90 58 60
        E 0 90 61 60
        E 0 90 63 60
        E 0 90 64 60
        E 120 80 74 00
        E 0 80 40 00
        E 0 80 4b 00
        E 0 80 4c 00
        E 240 80 56 00
        E 0 80 58 00
        E 0 80 61 00
        E 0 80 63 00
        E 0 80 64 00
        E 120 90 4b 60
        E 0 90 4c 60
        E 0 90 56 60
        E 0 90 58 60
        E 0 90 61 60
        E 0 90 63 60
        E 0 90 64 60
        E 120 80 4b 00
        E 0 80 4c 00
        E 0 80 56 00
        E 0 80 58 00
        E 0 80 61 00
        E 0 80 63 00
        E 0 80 64 00
        E 120 90 55 60
        E 0 90 61 60
        E 120 80 55 00
        E 0 80 61 00
        E 120 90 3f 60
        E 0 90 4a 60
        E 0 90 4b 60
        E 0 90 55 60
        E 0 90 58 60
        E 0 90 61 60
        E 0 90 62 60
        E 0 90 64 60
        E 120 80 3f 00
        E 0 80 4a 00
        E 0 80 4b 00
        E 240 80 55 00
        E 0 80 58 00
        E 0 80 61 00
        E 0 80 62 00
        E 0 80 64 00
        E 120 90 4a 60
        E 0 90 4b 60
        E 0 90 55 60
        E 0 90 58 60
        E 0 90 61 60
        E 0 90 62 60
        E 0 90 64 60
        E 120 80 4a 00
        E 0 80 4b 00
        E 0 80 55 00
        E 0 80 58 00
        E 0 80 61 00
        E 0 80 62 00
        E 0 80 64 00
        E 120 90 55 60
        E 0 90 61 60
        E 120 80 55 00
        E 0 80 61 00
        E 120 90 3e 60
        E 0 90 49 60
        E 0 90 4b 60
        E 0 90 55 60
        E 0 90 57 60
        E 0 90 61 60
        E 0 90 62 60
        E 0 90 63 60
        E 120 80 3e 00
        E 0 80 49 00
        E 0 80 4b 00
        E 240 80 55 00
        E 0 80 57 00
        E 0 80 61 00
        E 0 80 62 00
        E 0 80 63 00
        E 120 90 3e 60
        E 0 90 49 60
        E 0 90 4a 60
        E 0 90 55 60
        E 0 90 56 60
        E 0 90 61 60
        E 0 90 62 60
        E 120 80 3e 00
        E 0 80 49 00
        E 0 80 4a 00
        E 0 80 55 00
        E 0 80 56 00
        E 0 80 61 00
        E 0 80 62 00
        E 120 90 55 60
        E 0 90 57 60
        E 0 90 61 60
        E 0 90 62 60
        E 0 90 63 60
        E 120 80 55 00
        E 0 80 57 00
        E 0 80 61 00
        E 0 80 62 00
        E 0 80 63 00
        E 120 90 3e 60
        E 0 90 49 60
        E 0 90 4a 60
        E 0 90 55 60
        E 0 90 56 60
        E 0 90 61 60
        E 0 90 62 60
        E 120 80 3e 00
        E 0 80 49 00
        E 0 80 4a 00
        E 0 80 55 00
        E 0 80 56 00
        E 0 80 61 00
        E 0 80 62 00
        E 120 90 54 60
        E 0 90 56 60
        E 0 90 60 60
        E 0 90 62 60
        E 120 80 54 00
        E 0 80 56 00
        E 0 80 60 00
        E 0 80 62 00
        E 120 90 3e 60
        E 0 90 48 60
        E 0 90 4a 60
        E 0 90 54 60
        E 0 90 56 60
        E 0 90 60 60
        E 0 90 62 60
        E 120 80 28 00
        E 0 80 3e 00
        E 0 80 48 00
        E 0 80 4a 00
        E 0 80 54 00
        E 0 80 56 00
        E 0 80 60 00
        E 0 80 62 00
        E 120 90 2b 60
        E 0 90 54 60
        E 0 90 60 60
        E 120 80 54 00
        E 0 80 60 00
        E 120 90 3e 60
        E 0 90 49 60
        E 0 90 4a 60
        E 0 90 54 60
        E 0 90 57 60
        E 0 90 60 60
        E 0 90 62 60
        E 0 90 63 60
        E 120 80 3e 00
        E 0 80 49 00
        E 0 80 4a 00
        E 240 80 54 00
        E 0 80 57 00
        E 0 80 60 00
        E 0 80 62 00
        E 0 80 63 00
        E 120 90 49 60
        E 0 90 4a 60
        E 0 90 54 60
        E 0 90 57 60
        E 0 90 60 60
        E 0 90 62 60
        E 0 90 63 60
        E 120 80 49 00
        E 0 80 4a 00
        E 0 80 54 00
        E 0 80 57 00
        E 0 80 60 00
        E 0 80 62 00
        E 0 80 63 00
        E 120 90 54 60
        E 0 90 60 60
        E 120 80 54 00
        E 0 80 60 00
        E 120 90 3d 60
        E 0 90 48 60
        E 0 90 4a 60
        E 0 90 54 60
        E 0 90 56 60
        E 0 90 60 60
        E 0 90 61 60
        E 0 90 63 60
        E 120 80 3d 00
        E 0 80 48 00
        E 0 80 4a 00
        E 0 80 54 00
        E 0 80 56 00
        E 0 80 60 00
        E 0 80 61 00
        E 0 80 63 00
        E 120 90 48 60
        E 0 90 4a 60
        E 0 90 54 60
        E 0 90 56 60
        E 0 90 60 60
        E 0 90 61 60
        E 0 90 63 60
        E 120 80 48 00
        E 0 80 4a 00
        E 0 80 54 00
        E 0 80 56 00
        E 0 80 60 00
        E 0 80 61 00
        E 0 80 63 00
        E 120 90 48 60
        E 0 90 4a 60
        E 0 90 54 60
        E 0 90 56 60
        E 0 90 60 60
        E 0 90 61 60
        E 0 90 63 60
        E 120 80 48 00
        E 0 80 4a 00
        E 0 80 54 00
        E 0 80 56 00
        E 0 80 60 00
        E 0 80 61 00
        E 0 80 63 00
        E 120 90 54 60
        E 0 90 60 60
        E 120 80 54 00
        E 0 80 60 00
        E 120 90 3c 60
        E 0 90 48 60
        E 0 90 49 60
        E 0 90 54 60
        E 0 90 55 60
        E 0 90 60 60
        E 0 90 61 60
        E 0 90 62 60
        E 120 80 3c 00
        E 0 80 48 00
        E 0 80 49 00
        E 240 80 54 00
        E 0 80 55 00
        E 0 80 60 00
        E 0 80 61 00
        E 0 80 62 00
        E 120 90 3c 60
        E 0 90 48 60
        E 0 90 49 60
        E 0 90 54 60
        E 0 90 55 60
        E 0 90 60 60
        E 0 90 61 60
        E 120 80 3c 00
        E 0 80 48 00
        E 0 80 49 00
        E 0 80 54 00
        E 0 80 55 00
        E 0 80 60 00
        E 0 80 61 00
        E 120 90 48 60
        E 0 90 49 60
        E 0 90 54 60
        E 0 90 55 60
        E 0 90 60 60
        E 0 90 61 60
        E 0 90 62 60
        E 120 80 48 00
        E 0 80 49 00
        E 0 80 54 00
        E 0 80 55 00
        E 0 80 60 00
        E 0 80 61 00
        E 0 80 62 00
        E 120 90 3c 60
        E 0 90 48 60
        E 0 90 49 60
        E 0 90 54 60
        E 0 90 55 60
        E 0 90 60 60
        E 0 90 61 60
        E 120 80 3c 00
        E 0 80 48 00
        E 0 80 49 00
        E 0 80 54 00
        E 0 80 55 00
        E 0 80 60 00
        E 0 80 61 00
        E 120 90 48 60
        E 0 90 49 60
        E 0 90 54 60
        E 0 90 55 60
        E 0 90 60 60
        E 0 90 61 60
        E 0 90 62 60
        E 120 80 48 00
        E 0 80 49 00
        E 0 80 54 00
        E 0 80 55 00
        E 0 80 60 00
        E 0 80 61 00
        E 0 80 62 00
        E 120 90 48 60
        E 0 90 49 60
        E 0 90 54 60
        E 0 90 55 60
        E 0 90 60 60
        E 0 90 61 60
        E 120 80 2b 00
        E 0 80 48 00
        E 0 80 49 00
        E 0 80 54 00
        E 0 80 55 00
        E 0 80 60 00
        E 0 80 61 00
        E 120 90 28 60
        E 0 90 55 60
        E 0 90 61 60
        E 120 80 55 00
        E 0 80 61 00
        E 120 90 40 60
        E 0 90 4b 60
        E 0 90 4c 60
        E 0 90 56 60
        E 0 90 58 60
        E 0 90 61 60
        E 0 90 63 60
        E 0 90 64 60
        E 120 80 40 00
        E 0 80 4b 00
        E 0 80 4c 00
        E 240 80 56 00
        E 0 80 58 00
        E 0 80 61 00
        E 0 80 63 00
        E 0 80 64 00
        E 120 90 49 60
        E 0 90 4b 60
        E 0 90 55 60
        E 0 90 57 60
        E 0 90 61 60
        E 0 90 63 60
        E 120 80 49 00
        E 0 80 4b 00
        E 240 80 55 00
        E 0 80 57 00
        E 0 80 61 00
        E 0 80 63 00
        E 120 90 40 60
        E 0 90 4b 60
        E 0 90 4c 60
        E 0 90 56 60
        E 0 90 58 60
        E 0 90 61 60
        E 0 90 63 60
        E 0 90 64 60
        E 120 80 40 00
        E 0 80 4b 00
        E 0 80 4c 00
        E 240 80 56 00
        E 0 80 58 00
        E 0 80 61 00
        E 0 80 63 00
        E 0 80 64 00
        E 120 90 49 60
        E 0 90 4b 60
        E 0 90 55 60
        E 0 90 57 60
        E 0 90 61 60
        E 0 90 63 60
        E 120 80 28 00
        E 0 80 49 00
        E 0 80 4b 00
        E 0 80 55 00
        E 0 80 57 00
        E 0 80 61 00
        E 0 80 63 00
        E 120 90 2b 60
        E 0 90 56 60
        E 0 90 62 60
        E 120 80 56 00
        E 0 80 62 00
        E 120 90 3f 60
        E 0 90 4a 60
        E 0 90 4b 60
        E 0 90 56 60
        E 0 90 57 60
        E 0 90 62 60
        E 0 90 63 60
        E 120 80 3f 00
        E 0 80 4a 00
        E 0 80 4b 00
        E 0 80 56 00
        E 0 80 57 00
        E 0 80 62 00
        E 0 80 63 00
        E 120 90 57 60
        E 0 90 58 60
        E 0 90 62 60
        E 0 90 63 60
        E 0 90 64 60
        E 120 80 57 00
        E 0 80 58 00
        E 0 80 62 00
        E 0 80 63 00
        E 0 80 64 00
        E 120 90 4a 60
        E 0 90 4b 60
        E 0 90 56 60
        E 0 90 57 60
        E 0 90 62 60
        E 0 90 63 60
        E 120 80 4a 00
        E 0 80 4b 00
        E 240 80 56 00
        E 0 80 57 00
        E 0 80 62 00
        E 0 80 63 00
        E 120 90 40 60
        E 0 90 4b 60
        E 0 90 4c 60
        E 0 90 57 60
        E 0 90 58 60
        E 0 90 62 60
        E 0 90 63 60
        E 0 90 64 60
        E 120 80 40 00
        E 0 80 4b 00
        E 0 80 4c 00
        E 240 80 57 00
        E 0 80 58 00
        E 0 80 62 00
        E 0 80 63 00
        E 0 80 64 00
        E 120 90 4a 60
        E 0 90 4b 60
        E 0 90 56 60
        E 0 90 57 60
        E 0 90 62 60
        E 0 90 63 60
        E 120 80 4a 00
        E 0 80 4b 00
        E 0 80 56 00
        E 0 80 57 00
        E 0 80 62 00
        E 0 80 63 00
        E 120 90 54 60
        E 0 90 60 60
        E 120 80 2b 00
        E 0 80 54 00
        E 0 80 60 00
        E 120 90 2b 60
        E 0 90 3e 60
        E 0 90 49 60
        E 0 90 4a 60
        E 0 90 54 60
        E 0 90 57 60
        E 0 90 60 60
        E 0 90 62 60
        E 0 90 63 60
        E 120 80 3e 00
        E 0 80 49 00
        E 0 80 4a 00
        E 240 80 54 00
        E 0 80 57 00
        E 0 80 60 00
        E 0 80 62 00
        E 0 80 63 00
        E 120 90 49 60
        E 0 90 4a 60
        E 0 90 54 60
        E 0 90 57 60
        E 0 90 60 60
        E 0 90 62 60
        E 0 90 63 60
        E 120 80 49 00
        E 0 80 4a 00
        E 0 80 54 00
        E 0 80 57 00
        E 0 80 60 00
        E 0 80 62 00
        E 0 80 63 00
        E 120 90 54 60
        E 0 90 60 60
        E 120 80 54 00
        E 0 80 60 00
        E 120 90 3d 60
        E 0 90 48 60
        E 0 90 4a 60
        E 0 90 54 60
        E 0 90 56 60
        E 0 90 60 60
        E 0 90 61 60
        E 0 90 63 60
        E 120 80 3d 00
        E 0 80 48 00
        E 0 80 4a 00
        E 0 80 54 00
        E 0 80 56 00
        E 0 80 60 00
        E 0 80 61 00
        E 0 80 63 00
        E 120 90 48 60
        E 0 90 4a 60
        E 0 90 54 60
        E 0 90 56 60
        E 0 90 60 60
        E 0 90 61 60
        E 0 90 63 60
        E 120 80 48 00
        E 0 80 4a 00
        E 0 80 54 00
        E 0 80 56 00
        E 0 80 60 00
        E 0 80 61 00
        E 0 80 63 00
        E 120 90 48 60
        E 0 90 4a 60
        E 0 90 54 60
        E 0 90 56 60
        E 0 90 60 60
        E 0 90 61 60
        E 0 90 63 60
        E 120 80 48 00
        E 0 80 4a 00
        E 0 80 54 00
        E 0 80 56 00
        E 0 80 60 00
        E 0 80 61 00
        E 0 80 63 00
        E 120 90 54 60
        E 0 90 60 60
        E 120 80 54 00
        E 0 80 60 00
        E 120 90 3c 60
        E 0 90 48 60
        E 0 90 49 60
        E 0 90 54 60
        E 0 90 55 60
        E 0 90 60 60
        E 0 90 61 60
        E 120 80 3c 00
        E 0 80 48 00
        E 0 80 49 00
        E 240 80 54 00
        E 0 80 55 00
        E 0 80 60 00
        E 0 80 61 00
        E 120 90 3c 60
        E 0 90 48 60
        E 0 90 49 60
        E 0 90 54 60
        E 0 90 55 60
        E 0 90 60 60
        E 0 90 61 60
        E 120 80 3c 00
        E 0 80 48 00
        E 0 80 49 00
        E 240 80 54 00
        E 0 80 55 00
        E 0 80 60 00
        E 0 80 61 00
        E 120 90 3c 60
        E 0 90 48 60
        E 0 90 49 60
        E 0 90 54 60
        E 0 90 55 60
        E 0 90 60 60
        E 0 90 61 60
        E 120 80 3c 00
        E 0 80 48 00
        E 0 80 49 00
        E 0 80 54 00
        E 0 80 55 00
        E 0 80 60 00
        E 0 80 61 00
        E 120 90 48 60
        E 0 90 49 60
        E 0 90 54 60
        E 0 90 55 60
        E 0 90 60 60
        E 0 90 61 60
        E 0 90 62 60
        E 120 80 48 00
        E 0 80 49 00
        E 0 80 54 00
        E 0 80 55 00
        E 0 80 60 00
        E 0 80 61 00
        E 0 80 62 00
        E 120 90 48 60
        E 0 90 49 60
        E 0 90 54 60
        E 0 90 55 60
        E 0 90 60 60
        E 0 90 61 60
        E 120 80 2b 00
        E 0 80 48 00
        E 0 80 49 00
        E 0 80 54 00
        E 0 80 55 00
        E 0 80 60 00
        E 0 80 61 00
        E 120 90 28 60
        E 0 90 55 60
        E 0 90 61 60
        E 120 80 55 00
        E 0 80 61 00
        E 120 90 40 60
        E 0 90 4b 60
        E 0 90 4c 60
        E 0 90 56 60
        E 0 90 58 60
        E 0 90 61 60
        E 0 90 63 60
        E 0 90 64 60
        E 120 80 40 00
        E 0 80 4b 00
        E 0 80 4c 00
        E 240 80 56 00
        E 0 80 58 00
        E 0 80 61 00
        E 0 80 63 00
        E 0 80 64 00
        E 120 90 40 60
        E 0 90 4b 60
        E 0 90 4c 60
        E 0 90 56 60
        E 0 90 58 60
        E 0 90 61 60
        E 0 90 63 60
        E 0 90 64 60
        E 120 80 40 00
        E 0 80 4b 00
        E 0 80 4c 00
        E 240 80 56 00
        E 0 80 58 00
        E 0 80 61 00
        E 0 80 63 00
        E 0 80 64 00
        E 120 90 40 60
        E 0 90 4b 60
        E 0 90 4c 60
        E 0 90 56 60
        E 0 90 58 60
        E 0 90 61 60
        E 0 90 63 60
        E 0 90 64 60
        E 120 80 40 00
        E 0 80 4b 00
        E 0 80 4c 00
        E 0 80 56 00
        E 0 80 58 00
        E 0 80 61 00
        E 0 80 63 00
        E 0 80 64 00
        E 120 90 4b 60
        E 0 90 4c 60
        E 0 90 56 60
        E 0 90 58 60
        E 0 90 61 60
        E 0 90 63 60
        E 0 90 64 60
        E 120 80 4b 00
        E 0 80 4c 00
        E 0 80 56 00
        E 0 80 58 00
        E 0 80 61 00
        E 0 80 63 00
        E 0 80 64 00
        E 120 90 40 60
        E 0 90 4b 60
        E 0 90 4c 60
        E 0 90 56 60
        E 0 90 58 60
        E 0 90 61 60
        E 0 90 63 60
        E 0 90 64 60
        E 120 80 28 00
        E 0 80 40 00
        E 0 80 4b 00
        E 0 80 4c 00
        E 0 80 56 00
        E 0 80 58 00
        E 0 80 61 00
        E 0 80 63 00
        E 0 80 64 00
        E 120 90 2b 60
        E 0 90 56 60
        E 0 90 62 60
        E 120 80 56 00
        E 0 80 62 00
        E 120 90 40 60
        E 0 90 4b 60
        E 0 90 4c 60
        E 0 90 57 60
        E 0 90 58 60
        E 0 90 62 60
        E 0 90 63 60
        E 0 90 64 60
        E 120 80 40 00
        E 0 80 4b 00
        E 0 80 4c 00
        E 240 80 57 00
        E 0 80 58 00
        E 0 80 62 00
        E 0 80 63 00
        E 0 80 64 00
        E 120 90 4b 60
        E 0 90 4c 60
        E 0 90 57 60
        E 0 90 58 60
        E 0 90 62 60
        E 0 90 63 60
        E 0 90 64 60
        E 120 80 4b 00
        E 0 80 4c 00
        E 240 80 2b 00
        E 0 80 57 00
        E 0 80 58 00
        E 0 80 62 00
        E 0 80 63 00
        E 0 80 64 00
        E 120 90 28 60
        E 0 90 3f 60
        E 0 90 4a 60
        E 0 90 4b 60
        E 0 90 55 60
        E 0 90 58 60
        E 0 90 61 60
        E 0 90 62 60
        E 0 90 64 60
        E 120 80 3f 00
        E 0 80 4a 00
        E 0 80 4b 00
        E 0 80 55 00
        E 0 80 58 00
        E 0 80 61 00
        E 0 80 62 00
        E 0 80 64 00
        E 120 90 4a 60
        E 0 90 4b 60
        E 0 90 55 60
        E 0 90 58 60
        E 0 90 61 60
        E 0 90 62 60
        E 0 90 64 60
        E 120 80 4a 00
        E 0 80 4b 00
        E 0 80 55 00
        E 0 80 58 00
        E 0 80 61 00
        E 0 80 62 00
        E 0 80 64 00
        E 120 90 4a 60
        E 0 90 4b 60
        E 0 90 55 60
        E 0 90 58 60
        E 0 90 61 60
        E 0 90 62 60
        E 0 90 64 60
        E 120 80 28 00
        E 0 80 4a 00
        E 0 80 4b 00
        E 0 80 55 00
        E 0 80 58 00
        E 0 80 61 00
        E 0 80 62 00
        E 0 80 64 00
        E 120 90 2b 60
        E 0 90 54 60
        E 0 90 60 60
        E 120 80 54 00
        E 0 80 60 00
        E 120 90 3e 60
        E 0 90 49 60
        E 0 90 4a 60
        E 0 90 54 60
        E 0 90 57 60
        E 0 90 60 60
        E 0 90 62 60
        E 0 90 63 60
        E 120 80 3e 00
        E 0 80 49 00
        E 0 80 4a 00
        E 240 80 54 00
        E 0 80 57 00
        E 0 80 60 00
        E 0 80 62 00
        E 0 80 63 00
        E 120 90 49 60
        E 0 90 4a 60
        E 0 90 54 60
        E 0 90 57 60
        E 0 90 60 60
        E 0 90 62 60
        E 0 90 63 60
        E 120 80 49 00
        E 0 80 4a 00
        E 0 80 54 00
        E 0 80 57 00
        E 0 80 60 00
        E 0 80 62 00
        E 0 80 63 00
        E 120 90 54 60
        E 0 90 60 60
        E 120 80 54 00
        E 0 80 60 00
        E 120 90 3d 60
        E 0 90 48 60
        E 0 90 4a 60
        E 0 90 54 60
        E 0 90 56 60
        E 0 90 60 60
        E 0 90 61 60
        E 0 90 63 60
        E 120 80 3d 00
        E 0 80 48 00
        E 0 80 4a 00
        E 0 80 54 00
        E 0 80 56 00
        E 0 80 60 00
        E 0 80 61 00
        E 0 80 63 00
        E 120 90 48 60
        E 0 90 4a 60
        E 0 90 54 60
        E 0 90 56 60
        E 0 90 60 60
        E 0 90 61 60
        E 0 90 63 60
        E 120 80 48 00
        E 0 80 4a 00
        E 0 80 54 00
        E 0 80 56 00
        E 0 80 60 00
        E 0 80 61 00
        E 0 80 63 00
        E 120 90 48 60
        E 0 90 4a 60
        E 0 90 54 60
        E 0 90 56 60
        E 0 90 60 60
        E 0 90 61 60
        E 0 90 63 60
        E 120 80 48 00
        E 0 80 4a 00
        E 0 80 54 00
        E 0 80 56 00
        E 0 80 60 00
        E 0 80 61 00
        E 0 80 63 00
        E 120 90 54 60
        E 0 90 60 60
        E 120 80 54 00
        E 0 80 60 00
        E 120 90 3c 60
        E 0 90 48 60
        E 0 90 49 60
        E 0 90 54 60
        E 0 90 55 60
        E 0 90 60 60
        E 0 90 61 60
        E 0 90 62 60
        E 120 80 3c 00
        E 0 80 48 00
        E 0 80 49 00
        E 240 80 54 00
        E 0 80 55 00
        E 0 80 60 00
        E 0 80 61 00
        E 0 80 62 00
        E 120 90 3c 60
        E 0 90 48 60
        E 0 90 49 60
        E 0 90 54 60
        E 0 90 55 60
        E 0 90 60 60
        E 0 90 61 60
        E 120 80 3c 00
        E 0 80 48 00
        E 0 80 49 00
        E 0 80 54 00
        E 0 80 55 00
        E 0 80 60 00
        E 0 80 61 00
        E 120 90 48 60
        E 0 90 49 60
        E 0 90 54 60
        E 0 90 55 60
        E 0 90 60 60
        E 0 90 61 60
        E 0 90 62 60
        E 120 80 48 00
        E 0 80 49 00
        E 0 80 54 00
        E 0 80 55 00
        E 0 80 60 00
        E 0 80 61 00
        E 0 80 62 00
        E 120 90 3c 60
        E 0 90 48 60
        E 0 90 49 60
        E 0 90 54 60
        E 0 90 55 60
        E 0 90 60 60
        E 0 90 61 60
        E 120 80 3c 00
        E 0 80 48 00
        E 0 80 49 00
        E 0 80 54 00
        E 0 80 55 00
        E 0 80 60 00
        E 0 80 61 00
        E 120 90 48 60
        E 0 90 49 60
        E 0 90 54 60
        E 0 90 55 60
        E 0 90 60 60
        E 0 90 61 60
        E 0 90 62 60
        E 120 80 48 00
        E 0 80 49 00
        E 0 80 54 00
        E 0 80 55 00
        E 0 80 60 00
        E 0 80 61 00
        E 0 80 62 00
        E 120 90 48 60
        E 0 90 49 60
        E 0 90 54 60
        E 0 90 55 60
        E 0 90 60 60
        E 0 90 61 60
        E 120 80 2b 00
        E 0 80 48 00
        E 0 80 49 00
        E 0 80 54 00
        E 0 80 55 00
        E 0 80 60 00
        E 0 80 61 00
        E 120 90 28 60
        E 0 90 55 60
        E 0 90 61 60
        E 120 80 55 00
        E 0 80 61 00
        E 120 90 40 60
        E 0 90 4b 60
        E 0 90 4c 60
        E 0 90 56 60
        E 0 90 58 60
        E 0 90 61 60
        E 0 90 63 60
        E 0 90 64 60
        E 0 90 74 60
        E 120 80 40 00
        E 0 80 4b 00
        E 0 80 4c 00
        E 240 80 56 00
        E 0 80 58 00
        E 0 80 61 00
        E 0 80 63 00
        E 0 80 64 00
        E 120 90 4b 60
        E 0 90 4c 60
        E 0 90 56 60
        E 0 90 58 60
        E 0 90 61 60
        E 0 90 63 60
        E 0 90 64 60
        E 120 80 4b 00
        E 0 80 4c 00
        E 0 80 56 00
        E 0 80 58 00
        E 0 80 61 00
        E 0 80 63 00
        E 0 80 64 00
        E 120 90 55 60
        E 0 90 61 60
        E 120 80 55 00
        E 0 80 61 00
        E 120 90 3f 60
        E 0 90 4a 60
        E 0 90 4b 60
        E 0 90 55 60
        E 0 90 58 60
        E 0 90 61 60
        E 0 90 62 60
        E 0 90 64 60
        E 120 80 3f 00
        E 0 80 4a 00
        E 0 80 4b 00
        E 0 80 55 00
        E 0 80 58 00
        E 0 80 61 00
        E 0 80 62 00
        E 0 80 64 00
        E 120 90 55 60
        E 0 90 56 60
        E 0 90 61 60
        E 0 90 62 60
        E 120 80 55 00
        E 0 80 56 00
        E 0 80 61 00
        E 0 80 62 00
        E 120 90 4a 60
        E 0 90 4b 60
        E 0 90 55 60
        E 0 90 58 60
        E 0 90 61 60
        E 0 90 62 60
        E 0 90 64 60
        E 120 80 4a 00
        E 0 80 4b 00
        E 0 80 55 00
        E 0 80 58 00
        E 0 80 61 00
        E 0 80 62 00
        E 0 80 64 00
        E 120 90 55 60
        E 0 90 61 60
        E 120 80 55 00
        E 0 80 61 00
        E 120 90 3e 60
        E 0 90 49 60
        E 0 90 4b 60
        E 0 90 55 60
        E 0 90 57 60
        E 0 90 61 60
        E 0 90 62 60
        E 0 90 63 60
        E 120 80 3e 00
        E 0 80 49 00
        E 0 80 4b 00
        E 240 80 55 00
        E 0 80 57 00
        E 0 80 61 00
        E 0 80 62 00
        E 0 80 63 00
        E 120 90 3e 60
        E 0 90 49 60
        E 0 90 4a 60
        E 0 90 55 60
        E 0 90 56 60
        E 0 90 61 60
        E 0 90 62 60
        E 120 80 3e 00
        E 0 80 49 00
        E 0 80 4a 00
        E 0 80 55 00
        E 0 80 56 00
        E 0 80 61 00
        E 0 80 62 00
        E 120 90 55 60
        E 0 90 57 60
        E 0 90 61 60
        E 0 90 62 60
        E 0 90 63 60
        E 120 80 55 00
        E 0 80 57 00
        E 0 80 61 00
        E 0 80 62 00
        E 0 80 63 00
        E 120 90 3e 60
        E 0 90 49 60
        E 0 90 4a 60
        E 0 90 55 60
        E 0 90 56 60
        E 0 90 61 60
        E 0 90 62 60
        E 120 80 3e 00
        E 0 80 49 00
        E 0 80 4a 00
        E 0 80 55 00
        E 0 80 56 00
        E 0 80 61 00
        E 0 80 62 00
        E 120 90 54 60
        E 0 90 56 60
        E 0 90 60 60
        E 0 90 62 60
        E 120 80 54 00
        E 0 80 56 00
        E 0 80 60 00
        E 0 80 62 00
        E 120 90 3e 60
        E 0 90 48 60
        E 0 90 4a 60
        E 0 90 54 60
        E 0 90 56 60
        E 0 90 60 60
        E 0 90 62 60
        E 120 80 28 00
        E 0 80 3e 00
        E 0 80 48 00
        E 0 80 4a 00
        E 0 80 54 00
        E 0 80 56 00
        E 0 80 60 00
        E 0 80 62 00
        E 120 90 2b 60
        E 0 90 54 60
        E 0 90 60 60
        E 120 80 54 00
        E 0 80 60 00
        E 120 80 74 00
        E 0 90 3e 60
        E 0 90 49 60
        E 0 90 4a 60
        E 0 90 54 60
        E 0 90 57 60
        E 0 90 60 60
        E 0 90 62 60
        E 0 90 63 60
        E 120 80 3e 00
        E 0 80 49 00
        E 0 80 4a 00
        E 240 80 54 00
        E 0 80 57 00
        E 0 80 60 00
        E 0 80 62 00
        E 0 80 63 00
        E 120 90 49 60
        E 0 90 4a 60
        E 0 90 54 60
        E 0 90 57 60
        E 0 90 60 60
        E 0 90 62 60
        E 0 90 63 60
        E 120 80 49 00
        E 0 80 4a 00
        E 0 80 54 00
        E 0 80 57 00
        E 0 80 60 00
        E 0 80 62 00
        E 0 80 63 00
        E 120 90 54 60
        E 0 90 60 60
        E 120 80 54 00
        E 0 80 60 00
        E 120 90 3d 60
        E 0 90 48 60
        E 0 90 4a 60
        E 0 90 54 60
        E 0 90 56 60
        E 0 90 60 60
        E 0 90 61 60
        E 0 90 63 60
        E 120 80 3d 00
        E 0 80 48 00
        E 0 80 4a 00
        E 240 80 54 00
        E 0 80 56 00
        E 0 80 60 00
        E 0 80 61 00
        E 0 80 63 00
        E 120 90 48 60
        E 0 90 49 60
        E 0 90 54 60
        E 0 90 55 60
        E 0 90 60 60
        E 0 90 61 60
        E 120 80 48 00
        E 0 80 49 00
        E 0 80 54 00
        E 0 80 55 00
        E 0 80 60 00
        E 0 80 61 00
        E 120 90 54 60
        E 0 90 60 60
        E 120 80 54 00
        E 0 80 60 00
        E 120 90 3c 60
        E 0 90 48 60
        E 0 90 49 60
        E 0 90 54 60
        E 0 90 55 60
        E 0 90 60 60
        E 0 90 61 60
        E 0 90 62 60
        E 120 80 3c 00
        E 0 80 48 00
        E 0 80 49 00
        E 240 80 54 00
        E 0 80 55 00
        E 0 80 60 00
        E 0 80 61 00
        E 0 80 62 00
        E 120 90 3c 60
        E 0 90 48 60
        E 0 90 49 60
        E 0 90 54 60
        E 0 90 55 60
        E 0 90 60 60
        E 0 90 61 60
        E 120 80 3c 00
        E 0 80 48 00
        E 0 80 49 00
        E 0 80 54 00
        E 0 80 55 00
        E 0 80 60 00
        E 0 80 61 00
        E 120 90 48 60
        E 0 90 49 60
        E 0 90 54 60
        E 0 90 55 60
        E 0 90 60 60
        E 0 90 61 60
        E 0 90 62 60
        E 120 80 48 00
        E 0 80 49 00
        E 0 80 54 00
        E 0 80 55 00
        E 0 80 60 00
        E 0 80 61 00
        E 0 80 62 00
        E 120 90 3c 60
        E 0 90 48 60
        E 0 90 49 60
        E 0 90 54 60
        E 0 90 55 60
        E 0 90 60 60
        E 0 90 61 60
        E 120 80 3c 00
        E 0 80 48 00
        E 0 80 49 00
        E 0 80 54 00
        E 0 80 55 00
        E 0 80 60 00
        E 0 80 61 00
        E 120 90 48 60
        E 0 90 49 60
        E 0 90 54 60
        E 0 90 55 60
        E 0 90 60 60
        E 0 90 61 60
        E 120 80 48 00
        E 0 80 49 00
        E 0 80 54 00
        E 0 80 55 00
        E 0 80 60 00
        E 0 80 61 00
        E 120 90 48 60
        E 0 90 49 60
        E 0 90 54 60
        E 0 90 55 60
        E 0 90 60 60
        E 0 90 61 60
        E 120 80 2b 00
        E 0 80 48 00
        E 0 80 49 00
        E 0 80 54 00
        E 0 80 55 00
        E 0 80 60 00
        E 0 80 61 00
        E 120 90 28 60
        E 0 90 55 60
        E 0 90 61 60
        E 120 80 55 00
        E 0 80 61 00
        E 120 90 40 60
        E 0 90 4b 60
        E 0 90 4c 60
        E 0 90 56 60
        E 0 90 58 60
        E 0 90 61 60
        E 0 90 63 60
        E 0 90 64 60
        E 120 80 40 00
        E 0 80 4b 00
        E 0 80 4c 00
        E 240 80 56 00
        E 0 80 58 00
        E 0 80 61 00
        E 0 80 63 00
        E 0 80 64 00
        E 120 90 4b 60
        E 0 90 4c 60
        E 0 90 56 60
        E 0 90 58 60
        E 0 90 61 60
        E 0 90 63 60
        E 0 90 64 60
        E 120 80 4b 00
        E 0 80 4c 00
        E 0 80 56 00
        E 0 80 58 00
        E 0 80 61 00
        E 0 80 63 00
        E 0 80 64 00
        E 120 90 55 60
        E 0 90 61 60
        E 120 80 55 00
        E 0 80 61 00
        E 120 90 3f 60
        E 0 90 4a 60
        E 0 90 4b 60
        E 0 90 55 60
        E 0 90 58 60
        E 0 90 61 60
        E 0 90 62 60
        E 0 90 64 60
        E 120 80 3f 00
        E 0 80 4a 00
        E 0 80 4b 00
        E 240 80 55 00
        E 0 80 58 00
        E 0 80 61 00
        E 0 80 62 00
        E 0 80 64 00
        E 120 90 4a 60
        E 0 90 4b 60
        E 0 90 55 60
        E 0 90 58 60
        E 0 90 61 60
        E 0 90 62 60
        E 0 90 64 60
        E 120 80 4a 00
        E 0 80 4b 00
        E 0 80 55 00
        E 0 80 58 00
        E 0 80 61 00
        E 0 80 62 00
        E 0 80 64 00
        E 120 90 55 60
        E 0 90 61 60
        E 120 80 55 00
        E 0 80 61 00
        E 120 90 3e 60
        E 0 90 49 60
        E 0 90 4b 60
        E 0 90 55 60
        E 0 90 57 60
        E 0 90 61 60
        E 0 90 62 60
        E 0 90 63 60
        E 120 80 3e 00
        E 0 80 49 00
        E 0 80 4b 00
        E 240 80 55 00
        E 0 80 57 00
        E 0 80 61 00
        E 0 80 62 00
        E 0 80 63 00
        E 120 90 3e 60
        E 0 90 49 60
        E 0 90 4a 60
        E 0 90 55 60
        E 0 90 56 60
        E 0 90 61 60
        E 0 90 62 60
        E 120 80 3e 00
        E 0 80 49 00
        E 0 80 4a 00
        E 0 80 55 00
        E 0 80 56 00
        E 0 80 61 00
        E 0 80 62 00
        E 120 90 55 60
        E 0 90 57 60
        E 0 90 61 60
        E 0 90 62 60
        E 0 90 63 60
        E 120 80 55 00
        E 0 80 57 00
        E 0 80 61 00
        E 0 80 62 00
        E 0 80 63 00
        E 120 90 3e 60
        E 0 90 49 60
        E 0 90 4b 60
        E 0 90 55 60
        E 0 90 57 60
        E 0 90 61 60
        E 0 90 63 60
        E 120 80 3e 00
        E 0 80 49 00
        E 0 80 4b 00
        E 0 80 55 00
        E 0 80 57 00
        E 0 80 61 00
        E 0 80 63 00
        E 120 90 54 60
        E 0 90 56 60
        E 0 90 60 60
        E 0 90 62 60
        E 120 80 54 00
        E 0 80 56 00
        E 0 80 60 00
        E 0 80 62 00
        E 120 90 3e 60
        E 0 90 48 60
        E 0 90 4a 60
        E 0 90 54 60
        E 0 90 56 60
        E 0 90 60 60
        E 0 90 62 60
        E 120 80 28 00
        E 0 80 3e 00
        E 0 80 48 00
        E 0 80 4a 00
        E 0 80 54 00
        E 0 80 56 00
        E 0 80 60 00
        E 0 80 62 00
        E 120 90 2b 60
        E 0 90 57 60
        E 0 90 63 60
        E 120 80 57 00
        E 0 80 63 00
        E 120 90 3e 60
        E 0 90 49 60
        E 0 90 4a 60
        E 0 90 54 60
        E 0 90 57 60
        E 0 90 60 60
        E 0 90 62 60
        E 0 90 63 60
        E 120 80 3e 00
        E 0 80 49 00
        E 0 80 4a 00
        E 240 80 54 00
        E 0 80 57 00
        E 0 80 60 00
        E 0 80 62 00
        E 0 80 63 00
        E 120 90 49 60
        E 0 90 4a 60
        E 0 90 54 60
        E 0 90 57 60
        E 0 90 60 60
        E 0 90 62 60
        E 0 90 63 60
        E 120 80 49 00
        E 0 80 4a 00
        E 0 80 54 00
        E 0 80 57 00
        E 0 80 60 00
        E 0 80 62 00
        E 0 80 63 00
        E 120 90 54 60
        E 0 90 60 60
        E 120 80 54 00
        E 0 80 60 00
        E 120 90 3d 60
        E 0 90 48 60
        E 0 90 4a 60
        E 0 90 54 60
        E 0 90 56 60
        E 0 90 60 60
        E 0 90 61 60
        E 0 90 63 60
        E 120 80 3d 00
        E 0 80 48 00
        E 0 80 4a 00
        E 0 80 54 00
        E 0 80 56 00
        E 0 80 60 00
        E 0 80 61 00
        E 0 80 63 00
        E 120 90 48 60
        E 0 90 4a 60
        E 0 90 54 60
        E 0 90 56 60
        E 0 90 60 60
        E 0 90 61 60
        E 0 90 63 60
        E 120 80 48 00
        E 0 80 4a 00
        E 0 80 54 00
        E 0 80 56 00
        E 0 80 60 00
        E 0 80 61 00
        E 0 80 63 00
        E 120 90 48 60
        E 0 90 4a 60
        E 0 90 54 60
        E 0 90 56 60
        E 0 90 60 60
        E 0 90 61 60
        E 0 90 63 60
        E 120 80 48 00
        E 0 80 4a 00
        E 0 80 54 00
        E 0 80 56 00
        E 0 80 60 00
        E 0 80 61 00
        E 0 80 63 00
        E 120 90 54 60
        E 0 90 60 60
        E 120 80 54 00
        E 0 80 60 00
        E 120 90 3c 60
        E 0 90 48 60
        E 0 90 49 60
        E 0 90 54 60
        E 0 90 55 60
        E 0 90 60 60
        E 0 90 61 60
        E 0 90 62 60
        E 120 80 3c 00
        E 0 80 48 00
        E 0 80 49 00
        E 240 80 54 00
        E 0 80 55 00
        E 0 80 60 00
        E 0 80 61 00
        E 0 80 62 00
        E 120 90 3c 60
        E 0 90 48 60
        E 0 90 49 60
        E 0 90 54 60
        E 0 90 55 60
        E 0 90 60 60
        E 0 90 61 60
        E 120 80 3c 00
        E 0 80 48 00
        E 0 80 49 00
        E 0 80 54 00
        E 0 80 55 00
        E 0 80 60 00
        E 0 80 61 00
        E 120 90 48 60
        E 0 90 49 60
        E 0 90 54 60
        E 0 90 55 60
        E 0 90 60 60
        E 0 90 61 60
        E 0 90 62 60
        E 120 80 48 00
        E 0 80 49 00
        E 0 80 54 00
        E 0 80 55 00
        E 0 80 60 00
        E 0 80 61 00
        E 0 80 62 00
        E 120 90 3c 60
        E 0 90 48 60
        E 0 90 49 60
        E 0 90 54 60
        E 0 90 55 60
        E 0 90 60 60
        E 0 90 61 60
        E 120 80 3c 00
        E 0 80 48 00
        E 0 80 49 00
        E 0 80 54 00
        E 0 80 55 00
        E 0 80 60 00
        E 0 80 61 00
        E 120 90 48 60
        E 0 90 49 60
        E 0 90 54 60
        E 0 90 55 60
        E 0 90 60 60
        E 0 90 61 60
        E 0 90 62 60
        E 120 80 48 00
        E 0 80 49 00
        E 0 80 54 00
        E 0 80 55 00
        E 0 80 60 00
        E 0 80 61 00
        E 0 80 62 00
        E 120 90 48 60
        E 0 90 49 60
        E 0 90 54 60
        E 0 90 55 60
        E 0 90 60 60
        E 0 90 61 60
        E 120 80 2b 00
        E 0 80 48 00
        E 0 80 49 00
        E 0 80 54 00
        E 0 80 55 00
        E 0 80 60 00
        E 0 80 61 00
        E 120 90 28 60
        E 0 90 55 60
        E 0 90 61 60
        E 120 80 55 00
        E 0 80 61 00
        E 120 90 40 60
        E 0 90 49 60
        E 0 90 4b 60
        E 0 90 55 60
        E 0 90 57 60
        E 0 90 61 60
        E 0 90 63 60
        E 0 90 64 60
        E 120 80 40 00
        E 600 80 49 00
        E 0 80 4b 00
        E 120 80 55 00
        E 0 80 57 00
        E 0 80 61 00
        E 0 80 63 00
        E 0 80 64 00
        E 120 90 40 60
        E 0 90 49 60
        E 0 90 4b 60
        E 0 90 55 60
        E 0 90 57 60
        E 0 90 61 60
        E 0 90 63 60
        E 0 90 64 60
        E 120 80 40 00
        E 0 80 49 00
        E 0 80 4b 00
        E 240 80 55 00
        E 0 80 57 00
        E 0 80 61 00
        E 0 80 63 00
        E 0 80 64 00
        E 120 90 49 60
        E 0 90 4b 60
        E 0 90 55 60
        E 0 90 57 60
        E 0 90 61 60
        E 0 90 63 60
        E 120 80 28 00
        E 0 80 49 00
        E 0 80 4b 00
        E 0 80 55 00
        E 0 80 57 00
        E 0 80 61 00
        E 0 80 63 00
        E 120 90 2b 60
        E 0 90 56 60
        E 0 90 62 60
        E 120 80 56 00
        E 0 80 62 00
        E 120 90 40 60
        E 0 90 4b 60
        E 0 90 4c 60
        E 0 90 57 60
        E 0 90 58 60
        E 0 90 62 60
        E 0 90 63 60
        E 0 90 64 60
        E 120 80 40 00
        E 0 80 4b 00
        E 0 80 4c 00
        E 240 80 57 00
        E 0 80 58 00
        E 0 80 62 00
        E 0 80 63 00
        E 0 80 64 00
        E 120 90 4a 60
        E 0 90 4b 60
        E 0 90 56 60
        E 0 90 57 60
        E 0 90 62 60
        E 0 90 63 60
        E 120 80 4a 00
        E 0 80 4b 00
        E 240 80 56 00
        E 0 80 57 00
        E 0 80 62 00
        E 0 80 63 00
        E 120 90 40 60
        E 0 90 4b 60
        E 0 90 4c 60
        E 0 90 57 60
        E 0 90 58 60
        E 0 90 62 60
        E 0 90 63 60
        E 0 90 64 60
        E 120 80 40 00
        E 0 80 4b 00
        E 0 80 4c 00
        E 0 80 57 00
        E 0 80 58 00
        E 0 80 62 00
        E 0 80 63 00
        E 0 80 64 00
        E 120 90 57 60
        E 0 90 58 60
        E 0 90 62 60
        E 0 90 63 60
        E 0 90 64 60
        E 120 80 57 00
        E 0 80 58 00
        E 0 80 62 00
        E 0 80 63 00
        E 0 80 64 00
        E 120 90 4a 60
        E 0 90 4b 60
        E 0 90 56 60
        E 0 90 57 60
        E 0 90 62 60
        E 0 90 63 60
        E 120 80 4a 00
        E 0 80 4b 00
        E 0 80 56 00
        E 0 80 57 00
        E 0 80 62 00
        E 0 80 63 00
        E 120 90 54 60
        E 0 90 60 60
        E 120 80 54 00
        E 0 80 60 00
        E 120 90 3e 60
        E 0 90 49 60
        E 0 90 4a 60
        E 0 90 54 60
        E 0 90 57 60
        E 0 90 60 60
        E 0 90 62 60
        E 0 90 63 60
        E 120 80 3e 00
        E 0 80 49 00
        E 0 80 4a 00
        E 240 80 54 00
        E 0 80 57 00
        E 0 80 60 00
        E 0 80 62 00
        E 0 80 63 00
        E 120 90 3e 60
        E 0 90 49 60
        E 0 90 4a 60
        E 0 90 54 60
        E 0 90 57 60
        E 0 90 60 60
        E 0 90 62 60
        E 0 90 63 60
        E 120 80 3e 00
        E 0 80 49 00
        E 0 80 4a 00
        E 240 80 54 00
        E 0 80 57 00
        E 0 80 60 00
        E 0 80 62 00
        E 0 80 63 00
        E 120 90 3e 60
        E 0 90 49 60
        E 0 90 4a 60
        E 0 90 54 60
        E 0 90 57 60
        E 0 90 60 60
        E 0 90 62 60
        E 0 90 63 60
        E 120 80 3e 00
        E 0 80 49 00
        E 0 80 4a 00
        E 240 80 54 00
        E 0 80 57 00
        E 0 80 60 00
        E 0 80 62 00
        E 0 80 63 00
        E 120 90 3e 60
        E 0 90 49 60
        E 0 90 4a 60
        E 0 90 54 60
        E 0 90 57 60
        E 0 90 60 60
        E 0 90 62 60
        E 0 90 63 60
        E 120 80 2b 00
        E 0 80 3e 00
        E 0 80 49 00
        E 0 80 4a 00
        E 0 80 54 00
        E 0 80 57 00
        E 0 80 60 00
        E 0 80 62 00
        E 0 80 63 00
        E 120 90 28 60
        E 0 90 55 60
        E 0 90 61 60
        E 120 80 55 00
        E 0 80 61 00
        E 120 90 3e 60
        E 0 90 49 60
        E 0 90 4b 60
        E 0 90 55 60
        E 0 90 57 60
        E 0 90 61 60
        E 0 90 63 60
        E 120 80 3e 00
        E 0 80 49 00
        E 0 80 4b 00
        E 0 80 55 00
        E 0 80 57 00
        E 0 80 61 00
        E 0 80 63 00
        E 120 90 56 60
        E 0 90 58 60
        E 0 90 61 60
        E 0 90 63 60
        E 0 90 64 60
        E 120 80 56 00
        E 0 80 58 00
        E 0 80 61 00
        E 0 80 63 00
        E 0 80 64 00
        E 120 90 3e 60
        E 0 90 49 60
        E 0 90 4b 60
        E 0 90 55 60
        E 0 90 57 60
        E 0 90 61 60
        E 0 90 63 60
        E 120 80 3e 00
        E 0 80 49 00
        E 0 80 4b 00
        E 240 80 55 00
        E 0 80 57 00
        E 0 80 61 00
        E 0 80 63 00
        E 120 90 3e 60
        E 0 90 49 60
        E 0 90 4b 60
        E 0 90 55 60
        E 0 90 57 60
        E 0 90 61 60
        E 0 90 63 60
        E 120 80 3e 00
        E 0 80 49 00
        E 0 80 4b 00
        E 0 80 55 00
        E 0 80 57 00
        E 0 80 61 00
        E 0 80 63 00
        E 120 90 56 60
        E 0 90 58 60
        E 0 90 61 60
        E 0 90 63 60
        E 0 90 64 60
        E 120 80 56 00
        E 0 80 58 00
        E 0 80 61 00
        E 0 80 63 00
        E 0 80 64 00
        E 120 90 3e 60
        E 0 90 49 60
        E 0 90 4b 60
        E 0 90 55 60
        E 0 90 57 60
        E 0 90 61 60
        E 0 90 63 60
        E 120 80 28 00
        E 0 80 3e 00
        E 0 80 49 00
        E 0 80 4b 00
        E 0 80 55 00
        E 0 80 57 00
        E 0 80 61 00
        E 0 80 63 00
        E 120 90 2b 60
        E 0 90 56 60
        E 0 90 62 60
        E 120 80 56 00
        E 0 80 62 00
        E 120 90 3e 60
        E 0 90 49 60
        E 0 90 4a 60
        E 0 90 54 60
        E 0 90 57 60
        E 0 90 60 60
        E 0 90 62 60
        E 0 90 63 60
        E 120 80 3e 00
        E 0 80 49 00
        E 0 80 4a 00
        E 240 80 54 00
        E 0 80 57 00
        E 0 80 60 00
        E 0 80 62 00
        E 0 80 63 00
        E 120 90 48 60
        E 0 90 4a 60
        E 0 90 54 60
        E 0 90 56 60
        E 0 90 60 60
        E 0 90 62 60
        E 120 80 48 00
        E 0 80 4a 00
        E 240 80 54 00
        E 0 80 56 00
        E 0 80 60 00
        E 0 80 62 00
        E 120 90 3e 60
        E 0 90 49 60
        E 0 90 4a 60
        E 0 90 54 60
        E 0 90 57 60
        E 0 90 60 60
        E 0 90 62 60
        E 0 90 63 60
        E 120 80 3e 00
        E 0 80 49 00
        E 0 80 4a 00
        E 240 80 54 00
        E 0 80 57 00
        E 0 80 60 00
        E 0 80 62 00
        E 0 80 63 00
        E 120 90 48 60
        E 0 90 4a 60
        E 0 90 54 60
        E 0 90 56 60
        E 0 90 60 60
        E 0 90 62 60
        E 120 80 2b 00
        E 0 80 48 00
        E 0 80 4a 00
        E 0 80 54 00
        E 0 80 56 00
        E 0 80 60 00
        E 0 80 62 00
        E 120 90 28 60
        E 0 90 54 60
        E 0 90 60 60
        E 0 90 74 60
        E 120 80 54 00
        E 0 80 60 00
        E 120 90 3f 60
        E 0 90 4b 60
        E 0 90 57 60
        E 0 90 63 60
        E 0 9e 54 60
        E 0 9e 60 60
        E 0 9e 61 60
        E 120 80 3f 00
        E 0 80 4b 00
        E 0 80 57 00
        E 0 80 63 00
        E 0 8e 54 00
        E 0 8e 60 00
        E 0 8e 61 00
        E 120 90 54 60
        E 0 90 56 60
        E 0 90 60 60
        E 0 90 61 60
        E 0 90 63 60
        E 120 80 54 00
        E 0 80 56 00
        E 0 80 60 00
        E 0 80 61 00
        E 0 80 63 00
        E 120 90 3c 60
        E 0 90 48 60
        E 0 90 49 60
        E 0 90 54 60
        E 0 90 55 60
        E 0 90 60 60
        E 0 90 61 60
        E 120 80 3c 00
        E 0 80 48 00
        E 0 80 49 00
        E 0 80 54 00
        E 0 80 55 00
        E 0 80 60 00
        E 0 80 61 00
        E 120 90 54 60
        E 0 90 56 60
        E 0 90 60 60
        E 0 90 61 60
        E 0 90 63 60
        E 120 80 54 00
        E 0 80 56 00
        E 0 80 60 00
        E 0 80 61 00
        E 0 80 63 00
        E 120 90 3c 60
        E 0 90 48 60
        E 0 90 49 60
        E 0 90 54 60
        E 0 90 55 60
        E 0 90 60 60
        E 0 90 61 60
        E 120 80 3c 00
        E 0 80 48 00
        E 0 80 49 00
        E 0 80 54 00
        E 0 80 55 00
        E 0 80 60 00
        E 0 80 61 00
        E 120 90 54 60
        E 0 90 56 60
        E 0 90 60 60
        E 0 90 61 60
        E 0 90 63 60
        E 120 80 54 00
        E 0 80 56 00
        E 0 80 60 00
        E 0 80 61 00
        E 0 80 63 00
        E 120 90 48 60
        E 0 90 49 60
        E 0 90 54 60
        E 0 90 55 60
        E 0 90 60 60
        E 0 90 61 60
        E 120 80 48 00
        E 0 80 49 00
        E 0 80 54 00
        E 0 80 55 00
        E 0 80 60 00
        E 0 80 61 00
        E 120 90 55 60
        E 0 90 61 60
        E 120 80 55 00
        E 0 80 61 00
        <X 120 0
          /wFbcGxheV0=
        >
        E 0 80 74 00
        E 0 90 40 60
        E 0 90 4b 60
        E 0 90 4c 60
        E 0 90 56 60
        E 0 90 58 60
        E 0 90 61 60
        E 0 90 63 60
        E 0 90 64 60
        E 120 80 40 00
        E 0 80 4b 00
        E 0 80 4c 00
        E 240 80 56 00
        E 0 80 58 00
        E 0 80 61 00
        E 0 80 63 00
        E 0 80 64 00
        E 120 90 4b 60
        E 0 90 4c 60
        E 0 90 56 60
        E 0 90 58 60
        E 0 90 61 60
        E 0 90 63 60
        E 0 90 64 60
        E 120 80 4b 00
        E 0 80 4c 00
        E 240 80 56 00
        E 0 80 58 00
        E 0 80 61 00
        E 0 80 63 00
        E 0 80 64 00
        E 120 90 3e 60
        E 0 90 49 60
        E 0 90 4b 60
        E 0 90 55 60
        E 0 90 57 60
        E 0 90 61 60
        E 0 90 63 60
        E 120 80 3e 00
        E 0 80 49 00
        E 0 80 4b 00
        E 240 80 55 00
        E 0 80 57 00
        E 0 80 61 00
        E 0 80 63 00
        E 120 90 3e 60
        E 0 90 49 60
        E 0 90 4b 60
        E 0 90 55 60
        E 0 90 57 60
        E 0 90 61 60
        E 0 90 63 60
        E 120 80 3e 00
        E 0 80 49 00
        E 0 80 4b 00
        E 0 80 55 00
        E 0 80 57 00
        E 0 80 61 00
        E 0 80 63 00
        E 120 90 56 60
        E 0 90 58 60
        E 0 90 61 60
        E 0 90 63 60
        E 0 90 64 60
        E 120 80 56 00
        E 0 80 58 00
        E 0 80 61 00
        E 0 80 63 00
        E 0 80 64 00
        E 120 90 3e 60
        E 0 90 49 60
        E 0 90 4b 60
        E 0 90 55 60
        E 0 90 57 60
        E 0 90 61 60
        E 0 90 63 60
        E 120 80 3e 00
        E 0 80 49 00
        E 0 80 4b 00
        E 0 80 55 00
        E 0 80 57 00
        E 0 80 61 00
        E 0 80 63 00
        E 120 90 56 60
        E 0 90 58 60
        E 0 90 61 60
        E 0 90 63 60
        E 0 90 64 60
        E 120 80 56 00
        E 0 80 58 00
        E 0 80 61 00
        E 0 80 63 00
        E 0 80 64 00
        E 120 90 49 60
        E 0 90 4b 60
        E 0 90 55 60
        E 0 90 57 60
        E 0 90 61 60
        E 0 90 63 60
        E 120 80 49 00
        E 0 80 4b 00
        E 240 80 55 00
        E 0 80 57 00
        E 0 80 61 00
        E 0 80 63 00
        E 120 90 40 60
        E 0 90 4b 60
        E 0 90 4c 60
        E 0 90 56 60
        E 0 90 58 60
        E 0 90 61 60
        E 0 90 63 60
        E 0 90 64 60
        E 120 80 40 00
        E 0 80 4b 00
        E 0 80 4c 00
        E 0 80 56 00
        E 0 80 58 00
        E 0 80 61 00
        E 0 80 63 00
        E 0 80 64 00
        E 120 90 4b 60
        E 0 90 4c 60
        E 0 90 56 60
        E 0 90 58 60
        E 0 90 61 60
        E 0 90 63 60
        E 0 90 64 60
        E 120 80 4b 00
        E 0 80 4c 00
        E 0 80 56 00
        E 0 80 58 00
        E 0 80 61 00
        E 0 80 63 00
        E 0 80 64 00
        E 120 90 40 60
        E 0 90 4b 60
        E 0 90 4c 60
        E 0 90 56 60
        E 0 90 58 60
        E 0 90 61 60
        E 0 90 63 60
        E 0 90 64 60
        E 120 80 28 00
        E 0 80 40 00
        E 0 80 4b 00
        E 0 80 4c 00
        E 0 80 56 00
        E 0 80 58 00
        E 0 80 61 00
        E 0 80 63 00
        E 0 80 64 00
        E 120 90 2b 60
        E 0 90 56 60
        E 0 90 62 60
        E 120 80 56 00
        E 0 80 62 00
        E 120 90 40 60
        E 0 90 4b 60
        E 0 90 4c 60
        E 0 90 57 60
        E 0 90 58 60
        E 0 90 62 60
        E 0 90 63 60
        E 0 90 64 60
        E 120 80 40 00
        E 0 80 4b 00
        E 0 80 4c 00
        E 240 80 57 00
        E 0 80 58 00
        E 0 80 62 00
        E 0 80 63 00
        E 0 80 64 00
        E 120 90 4a 60
        E 0 90 4b 60
        E 0 90 56 60
        E 0 90 57 60
        E 0 90 62 60
        E 0 90 63 60
        E 120 80 4a 00
        E 0 80 4b 00
        E 240 80 56 00
        E 0 80 57 00
        E 0 80 62 00
        E 0 80 63 00
        E 120 90 3f 60
        E 0 90 4a 60
        E 0 90 4b 60
        E 0 90 56 60
        E 0 90 57 60
        E 0 90 62 60
        E 0 90 63 60
        E 120 80 3f 00
        E 0 80 4a 00
        E 0 80 4b 00
        E 240 80 56 00
        E 0 80 57 00
        E 0 80 62 00
        E 0 80 63 00
        E 120 90 3f 60
        E 0 90 4a 60
        E 0 90 4b 60
        E 0 90 56 60
        E 0 90 57 60
        E 0 90 62 60
        E 0 90 63 60
        E 120 80 3f 00
        E 0 80 4a 00
        E 0 80 4b 00
        E 0 80 56 00
        E 0 80 57 00
        E 0 80 62 00
        E 0 80 63 00
        E 120 90 4a 60
        E 0 90 4b 60
        E 0 90 56 60
        E 0 90 57 60
        E 0 90 62 60
        E 0 90 63 60
        E 120 80 4a 00
        E 0 80 4b 00
        E 0 80 56 00
        E 0 80 57 00
        E 0 80 62 00
        E 0 80 63 00
        E 120 90 3f 60
        E 0 90 4a 60
        E 0 90 4b 60
        E 0 90 56 60
        E 0 90 57 60
        E 0 90 62 60
        E 0 90 63 60
        E 120 80 3f 00
        E 0 80 4a 00
        E 0 80 4b 00
        E 0 80 56 00
        E 0 80 57 00
        E 0 80 62 00
        E 0 80 63 00
        E 120 90 57 60
        E 0 90 58 60
        E 0 90 62 60
        E 0 90 63 60
        E 0 90 64 60
        E 120 80 57 00
        E 0 80 58 00
        E 0 80 62 00
        E 0 80 63 00
        E 0 80 64 00
        E 120 90 3f 60
        E 0 90 4a 60
        E 0 90 4b 60
        E 0 90 56 60
        E 0 90 57 60
        E 0 90 62 60
        E 0 90 63 60
        E 120 80 3f 00
        E 0 80 4a 00
        E 0 80 4b 00
        E 0 80 56 00
        E 0 80 57 00
        E 0 80 62 00
        E 0 80 63 00
        E 120 90 57 60
        E 0 90 58 60
        E 0 90 62 60
        E 0 90 63 60
        E 0 90 64 60
        E 120 80 57 00
        E 0 80 58 00
        E 0 80 62 00
        E 0 80 63 00
        E 0 80 64 00
        E 120 90 3f 60
        E 0 90 4a 60
        E 0 90 4b 60
        E 0 90 56 60
        E 0 90 57 60
        E 0 90 62 60
        E 0 90 63 60
        E 120 80 3f 00
        E 0 80 4a 00
        E 0 80 4b 00
        E 0 80 56 00
        E 0 80 57 00
        E 0 80 62 00
        E 0 80 63 00
        E 120 90 57 60
        E 0 90 58 60
        E 0 90 62 60
        E 0 90 63 60
        E 0 90 64 60
        E 120 80 57 00
        E 0 80 58 00
        E 0 80 62 00
        E 0 80 63 00
        E 0 80 64 00
        E 120 90 4a 60
        E 0 90 4b 60
        E 0 90 56 60
        E 0 90 57 60
        E 0 90 62 60
        E 0 90 63 60
        E 120 80 2b 00
        E 0 80 4a 00
        E 0 80 4b 00
        E 0 80 56 00
        E 0 80 57 00
        E 0 80 62 00
        E 0 80 63 00
        E 120 90 28 60
        E 0 90 55 60
        E 0 90 61 60
        E 120 80 55 00
        E 0 80 61 00
        E 120 90 40 60
        E 0 90 4b 60
        E 0 90 4c 60
        E 0 90 56 60
        E 0 90 58 60
        E 0 90 61 60
        E 0 90 63 60
        E 0 90 64 60
        E 120 80 40 00
        E 0 80 4b 00
        E 0 80 4c 00
        E 240 80 56 00
        E 0 80 58 00
        E 0 80 61 00
        E 0 80 63 00
        E 0 80 64 00
        E 120 90 4b 60
        E 0 90 4c 60
        E 0 90 56 60
        E 0 90 58 60
        E 0 90 61 60
        E 0 90 63 60
        E 0 90 64 60
        E 120 80 4b 00
        E 0 80 4c 00
        E 240 80 56 00
        E 0 80 58 00
        E 0 80 61 00
        E 0 80 63 00
        E 0 80 64 00
        E 120 90 3e 60
        E 0 90 49 60
        E 0 90 4b 60
        E 0 90 55 60
        E 0 90 57 60
        E 0 90 61 60
        E 0 90 63 60
        E 120 80 3e 00
        E 0 80 49 00
        E 0 80 4b 00
        E 240 80 55 00
        E 0 80 57 00
        E 0 80 61 00
        E 0 80 63 00
        E 120 90 3e 60
        E 0 90 49 60
        E 0 90 4b 60
        E 0 90 55 60
        E 0 90 57 60
        E 0 90 61 60
        E 0 90 63 60
        E 120 80 3e 00
        E 0 80 49 00
        E 0 80 4b 00
        E 0 80 55 00
        E 0 80 57 00
        E 0 80 61 00
        E 0 80 63 00
        E 120 90 56 60
        E 0 90 58 60
        E 0 90 61 60
        E 0 90 63 60
        E 0 90 64 60
        E 120 80 56 00
        E 0 80 58 00
        E 0 80 61 00
        E 0 80 63 00
        E 0 80 64 00
        E 120 90 3e 60
        E 0 90 49 60
        E 0 90 4b 60
        E 0 90 55 60
        E 0 90 57 60
        E 0 90 61 60
        E 0 90 63 60
        E 120 80 3e 00
        E 0 80 49 00
        E 0 80 4b 00
        E 0 80 55 00
        E 0 80 57 00
        E 0 80 61 00
        E 0 80 63 00
        E 120 90 56 60
        E 0 90 58 60
        E 0 90 61 60
        E 0 90 63 60
        E 0 90 64 60
        E 120 80 56 00
        E 0 80 58 00
        E 0 80 61 00
        E 0 80 63 00
        E 0 80 64 00
        E 120 90 49 60
        E 0 90 4b 60
        E 0 90 55 60
        E 0 90 57 60
        E 0 90 61 60
        E 0 90 63 60
        E 120 80 49 00
        E 0 80 4b 00
        E 240 80 55 00
        E 0 80 57 00
        E 0 80 61 00
        E 0 80 63 00
        E 120 90 40 60
        E 0 90 4b 60
        E 0 90 4c 60
        E 0 90 56 60
        E 0 90 58 60
        E 0 90 61 60
        E 0 90 63 60
        E 0 90 64 60
        E 120 80 40 00
        E 0 80 4b 00
        E 0 80 4c 00
        E 0 80 56 00
        E 0 80 58 00
        E 0 80 61 00
        E 0 80 63 00
        E 0 80 64 00
        E 120 90 56 60
        E 0 90 58 60
        E 0 90 61 60
        E 0 90 63 60
        E 0 90 64 60
        E 120 80 56 00
        E 0 80 58 00
        E 0 80 61 00
        E 0 80 63 00
        E 0 80 64 00
        E 120 90 49 60
        E 0 90 4b 60
        E 0 90 55 60
        E 0 90 57 60
        E 0 90 61 60
        E 0 90 63 60
        E 120 80 49 00
        E 0 80 4b 00
        E 0 80 55 00
        E 0 80 57 00
        E 0 80 61 00
        E 0 80 63 00
        E 240 80 28 00
        E 120 90 2b 60
        E 0 90 40 60
        E 0 90 4b 60
        E 0 90 4c 60
        E 0 90 57 60
        E 0 90 58 60
        E 0 90 62 60
        E 0 90 63 60
        E 0 90 64 60
        E 480 80 40 00
        E 0 80 4b 00
        E 0 80 4c 00
        E 360 80 57 00
        E 0 80 58 00
        E 0 80 62 00
        E 0 80 63 00
        E 0 80 64 00
        E 120 90 40 60
        E 0 90 4b 60
        E 0 90 4c 60
        E 0 90 57 60
        E 0 90 58 60
        E 0 90 62 60
        E 0 90 63 60
        E 0 90 64 60
        E 1920 80 40 00
        E 0 80 4b 00
        E 0 80 4c 00
        E 360 80 2b 00
        E 0 80 57 00
        E 0 80 58 00
        E 0 80 62 00
        E 0 80 63 00
        E 0 80 64 00
        E 120 90 28 60
        E 0 90 49 60
        E 0 90 55 60
        E 0 90 61 60
        E 120 80 49 00
        E 0 80 55 00
        E 0 80 61 00
        E 120 90 55 60
        E 0 90 61 60
        E 120 80 55 00
        E 0 80 61 00
        E 120 90 3f 60
        E 0 90 4a 60
        E 0 90 4b 60
        E 0 90 55 60
        E 0 90 58 60
        E 0 90 61 60
        E 0 90 62 60
        E 0 90 64 60
        E 480 80 3f 00
        E 0 80 4a 00
        E 0 80 4b 00
        E 360 80 55 00
        E 0 80 58 00
        E 0 80 61 00
        E 0 80 62 00
        E 0 80 64 00
        E 120 90 3f 60
        E 0 90 4a 60
        E 0 90 4b 60
        E 0 90 55 60
        E 0 90 58 60
        E 0 90 61 60
        E 0 90 62 60
        E 0 90 64 60
        E 480 80 3f 00
        E 0 80 4a 00
        E 0 80 4b 00
        E 120 80 55 00
        E 0 80 58 00
        E 0 80 61 00
        E 0 80 62 00
        E 0 80 64 00
        E 120 90 55 60
        E 0 90 56 60
        E 0 90 61 60
        E 0 90 62 60
        E 120 80 55 00
        E 0 80 56 00
        E 0 80 61 00
        E 0 80 62 00
        E 120 90 3f 60
        E 0 90 4a 60
        E 0 90 4b 60
        E 0 90 55 60
        E 0 90 58 60
        E 0 90 61 60
        E 0 90 62 60
        E 0 90 64 60
        E 120 80 3f 00
        E 0 80 4a 00
        E 0 80 4b 00
        E 0 80 55 00
        E 0 80 58 00
        E 0 80 61 00
        E 0 80 62 00
        E 0 80 64 00
        E 120 90 55 60
        E 0 90 56 60
        E 0 90 61 60
        E 0 90 62 60
        E 120 80 55 00
        E 0 80 56 00
        E 0 80 61 00
        E 0 80 62 00
        E 120 90 3f 60
        E 0 90 4a 60
        E 0 90 4b 60
        E 0 90 55 60
        E 0 90 58 60
        E 0 90 61 60
        E 0 90 62 60
        E 0 90 64 60
        E 120 80 3f 00
        E 0 80 4a 00
        E 0 80 4b 00
        E 0 80 55 00
        E 0 80 58 00
        E 0 80 61 00
        E 0 80 62 00
        E 0 80 64 00
        E 120 90 55 60
        E 0 90 56 60
        E 0 90 61 60
        E 0 90 62 60
        E 120 80 55 00
        E 0 80 56 00
        E 0 80 61 00
        E 0 80 62 00
        E 120 90 3f 60
        E 0 90 4a 60
        E 0 90 4b 60
        E 0 90 55 60
        E 0 90 58 60
        E 0 90 61 60
        E 0 90 62 60
        E 0 90 64 60
        E 120 80 3f 00
        E 0 80 4a 00
        E 0 80 4b 00
        E 0 80 55 00
        E 0 80 58 00
        E 0 80 61 00
        E 0 80 62 00
        E 0 80 64 00
        E 120 90 55 60
        E 0 90 56 60
        E 0 90 61 60
        E 0 90 62 60
        E 120 80 55 00
        E 0 80 56 00
        E 0 80 61 00
        E 0 80 62 00
        E 120 90 4a 60
        E 0 90 4b 60
        E 0 90 55 60
        E 0 90 58 60
        E 0 90 61 60
        E 0 90 62 60
        E 0 90 64 60
        E 120 80 28 00
        E 0 80 4a 00
        E 0 80 4b 00
        E 0 80 55 00
        E 0 80 58 00
        E 0 80 61 00
        E 0 80 62 00
        E 0 80 64 00
        E 120 90 2b 60
        E 0 90 54 60
        E 0 90 60 60
        E 120 80 54 00
        E 0 80 60 00
        E 120 90 3e 60
        E 0 90 49 60
        E 0 90 4a 60
        E 0 90 54 60
        E 0 90 57 60
        E 0 90 60 60
        E 0 90 62 60
        E 0 90 63 60
        E 120 80 3e 00
        E 0 80 49 00
        E 0 80 4a 00
        E 240 80 54 00
        E 0 80 57 00
        E 0 80 60 00
        E 0 80 62 00
        E 0 80 63 00
        E 120 90 49 60
        E 0 90 4a 60
        E 0 90 54 60
        E 0 90 57 60
        E 0 90 60 60
        E 0 90 62 60
        E 0 90 63 60
        E 120 80 49 00
        E 0 80 4a 00
        E 0 80 54 00
        E 0 80 57 00
        E 0 80 60 00
        E 0 80 62 00
        E 0 80 63 00
        E 120 90 54 60
        E 0 90 60 60
        E 120 80 54 00
        E 0 80 60 00
        E 120 90 3d 60
        E 0 90 48 60
        E 0 90 4a 60
        E 0 90 54 60
        E 0 90 56 60
        E 0 90 60 60
        E 0 90 61 60
        E 0 90 63 60
        E 0 90 74 60
        E 120 80 3d 00
        E 0 80 48 00
        E 0 80 4a 00
        E 0 80 54 00
        E 0 80 56 00
        E 0 80 60 00
        E 0 80 61 00
        E 0 80 63 00
        E 120 90 48 60
        E 0 90 4a 60
        E 0 90 54 60
        E 0 90 56 60
        E 0 90 60 60
        E 0 90 61 60
        E 0 90 63 60
        E 120 80 48 00
        E 0 80 4a 00
        E 0 80 54 00
        E 0 80 56 00
        E 0 80 60 00
        E 0 80 61 00
        E 0 80 63 00
        E 120 90 48 60
        E 0 90 4a 60
        E 0 90 54 60
        E 0 90 56 60
        E 0 90 60 60
        E 0 90 61 60
        E 0 90 63 60
        E 120 80 48 00
        E 0 80 4a 00
        E 0 80 54 00
        E 0 80 56 00
        E 0 80 60 00
        E 0 80 61 00
        E 0 80 63 00
        E 120 90 54 60
        E 0 90 60 60
        E 120 80 54 00
        E 0 80 60 00
        E 120 90 3c 60
        E 0 90 48 60
        E 0 90 49 60
        E 0 90 54 60
        E 0 90 55 60
        E 0 90 60 60
        E 0 90 61 60
        E 0 90 62 60
        E 120 80 3c 00
        E 0 80 48 00
        E 0 80 49 00
        E 240 80 54 00
        E 0 80 55 00
        E 0 80 60 00
        E 0 80 61 00
        E 0 80 62 00
        E 120 90 3c 60
        E 0 90 48 60
        E 0 90 49 60
        E 0 90 54 60
        E 0 90 55 60
        E 0 90 60 60
        E 0 90 61 60
        E 120 80 3c 00
        E 0 80 48 00
        E 0 80 49 00
        E 0 80 54 00
        E 0 80 55 00
        E 0 80 60 00
        E 0 80 61 00
        E 120 90 48 60
        E 0 90 49 60
        E 0 90 54 60
        E 0 90 55 60
        E 0 90 60 60
        E 0 90 61 60
        E 0 90 62 60
        E 120 80 48 00
        E 0 80 49 00
        E 0 80 54 00
        E 0 80 55 00
        E 0 80 60 00
        E 0 80 61 00
        E 0 80 62 00
        E 120 90 3c 60
        E 0 90 48 60
        E 0 90 49 60
        E 0 90 54 60
        E 0 90 55 60
        E 0 90 60 60
        E 0 90 61 60
        E 120 80 3c 00
        E 0 80 48 00
        E 0 80 49 00
        E 240 80 54 00
        E 0 80 55 00
        E 0 80 60 00
        E 0 80 61 00
        E 120 90 48 60
        E 0 90 49 60
        E 0 90 54 60
        E 0 90 55 60
        E 0 90 60 60
        E 0 90 61 60
        E 120 80 2b 00
        E 0 80 48 00
        E 0 80 49 00
        E 0 80 54 00
        E 0 80 55 00
        E 0 80 60 00
        E 0 80 61 00
        E 120 90 28 60
        E 0 90 55 60
        E 0 90 61 60
        E 120 80 55 00
        E 0 80 61 00
        E 120 90 40 60
        E 0 90 4b 60
        E 0 90 4c 60
        E 0 90 56 60
        E 0 90 58 60
        E 0 90 61 60
        E 0 90 63 60
        E 0 90 64 60
        E 120 80 74 00
        E 0 80 40 00
        E 0 80 4b 00
        E 0 80 4c 00
        E 240 80 56 00
        E 0 80 58 00
        E 0 80 61 00
        E 0 80 63 00
        E 0 80 64 00
        E 120 90 4b 60
        E 0 90 4c 60
        E 0 90 56 60
        E 0 90 58 60
        E 0 90 61 60
        E 0 90 63 60
        E 0 90 64 60
        E 120 80 4b 00
        E 0 80 4c 00
        E 0 80 56 00
        E 0 80 58 00
        E 0 80 61 00
        E 0 80 63 00
        E 0 80 64 00
        E 120 90 55 60
        E 0 90 61 60
        E 120 80 55 00
        E 0 80 61 00
        E 120 90 3f 60
        E 0 90 4a 60
        E 0 90 4b 60
        E 0 90 55 60
        E 0 90 58 60
        E 0 90 61 60
        E 0 90 62 60
        E 0 90 64 60
        E 120 80 3f 00
        E 0 80 4a 00
        E 0 80 4b 00
        E 240 80 55 00
        E 0 80 58 00
        E 0 80 61 00
        E 0 80 62 00
        E 0 80 64 00
        E 120 90 4a 60
        E 0 90 4b 60
        E 0 90 55 60
        E 0 90 58 60
        E 0 90 61 60
        E 0 90 62 60
        E 0 90 64 60
        E 120 80 4a 00
        E 0 80 4b 00
        E 0 80 55 00
        E 0 80 58 00
        E 0 80 61 00
        E 0 80 62 00
        E 0 80 64 00
        E 120 90 55 60
        E 0 90 61 60
        E 120 80 55 00
        E 0 80 61 00
        E 120 90 3e 60
        E 0 90 49 60
        E 0 90 4b 60
        E 0 90 55 60
        E 0 90 57 60
        E 0 90 61 60
        E 0 90 62 60
        E 0 90 63 60
        E 120 80 3e 00
        E 0 80 49 00
        E 0 80 4b 00
        E 240 80 55 00
        E 0 80 57 00
        E 0 80 61 00
        E 0 80 62 00
        E 0 80 63 00
        E 120 90 3e 60
        E 0 90 49 60
        E 0 90 4a 60
        E 0 90 55 60
        E 0 90 56 60
        E 0 90 61 60
        E 0 90 62 60
        E 120 80 3e 00
        E 0 80 49 00
        E 0 80 4a 00
        E 0 80 55 00
        E 0 80 56 00
        E 0 80 61 00
        E 0 80 62 00
        E 120 90 55 60
        E 0 90 57 60
        E 0 90 61 60
        E 0 90 62 60
        E 0 90 63 60
        E 120 80 55 00
        E 0 80 57 00
        E 0 80 61 00
        E 0 80 62 00
        E 0 80 63 00
        E 120 90 3e 60
        E 0 90 49 60
        E 0 90 4a 60
        E 0 90 55 60
        E 0 90 56 60
        E 0 90 61 60
        E 0 90 62 60
        E 120 80 3e 00
        E 0 80 49 00
        E 0 80 4a 00
        E 0 80 55 00
        E 0 80 56 00
        E 0 80 61 00
        E 0 80 62 00
        E 120 90 49 60
        E 0 90 4a 60
        E 0 90 55 60
        E 0 90 56 60
        E 0 90 61 60
        E 0 90 62 60
        E 120 80 49 00
        E 0 80 4a 00
        E 0 80 55 00
        E 0 80 56 00
        E 0 80 61 00
        E 0 80 62 00
        E 120 90 3e 60
        E 0 90 49 60
        E 0 90 4a 60
        E 0 90 55 60
        E 0 90 56 60
        E 0 90 61 60
        E 0 90 62 60
        E 120 80 28 00
        E 0 80 3e 00
        E 0 80 49 00
        E 0 80 4a 00
        E 0 80 55 00
        E 0 80 56 00
        E 0 80 61 00
        E 0 80 62 00
        E 120 90 2b 60
        E 0 90 54 60
        E 0 90 60 60
        E 120 80 2b 00
        E 0 80 54 00
        E 0 80 60 00
        E 120 90 2b 60
        E 0 90 3e 60
        E 0 90 49 60
        E 0 90 4a 60
        E 0 90 54 60
        E 0 90 57 60
        E 0 90 60 60
        E 0 90 62 60
        E 0 90 63 60
        E 120 80 3e 00
        E 0 80 49 00
        E 0 80 4a 00
        E 240 80 54 00
        E 0 80 57 00
        E 0 80 60 00
        E 0 80 62 00
        E 0 80 63 00
        E 120 90 49 60
        E 0 90 4a 60
        E 0 90 54 60
        E 0 90 57 60
        E 0 90 60 60
        E 0 90 62 60
        E 0 90 63 60
        E 120 80 49 00
        E 0 80 4a 00
        E 0 80 54 00
        E 0 80 57 00
        E 0 80 60 00
        E 0 80 62 00
        E 0 80 63 00
        E 120 90 54 60
        E 0 90 60 60
        E 120 80 54 00
        E 0 80 60 00
        E 120 90 3d 60
        E 0 90 48 60
        E 0 90 4a 60
        E 0 90 54 60
        E 0 90 56 60
        E 0 90 60 60
        E 0 90 61 60
        E 0 90 63 60
        E 120 80 3d 00
        E 0 80 48 00
        E 0 80 4a 00
        E 240 80 54 00
        E 0 80 56 00
        E 0 80 60 00
        E 0 80 61 00
        E 0 80 63 00
        E 120 90 48 60
        E 0 90 4a 60
        E 0 90 54 60
        E 0 90 56 60
        E 0 90 60 60
        E 0 90 61 60
        E 0 90 63 60
        E 120 80 48 00
        E 0 80 4a 00
        E 0 80 54 00
        E 0 80 56 00
        E 0 80 60 00
        E 0 80 61 00
        E 0 80 63 00
        E 120 90 54 60
        E 0 90 60 60
        E 120 80 54 00
        E 0 80 60 00
        E 120 90 3c 60
        E 0 90 48 60
        E 0 90 49 60
        E 0 90 54 60
        E 0 90 55 60
        E 0 90 60 60
        E 0 90 61 60
        E 0 90 62 60
        E 120 80 3c 00
        E 0 80 48 00
        E 0 80 49 00
        E 240 80 54 00
        E 0 80 55 00
        E 0 80 60 00
        E 0 80 61 00
        E 0 80 62 00
        E 120 90 3c 60
        E 0 90 48 60
        E 0 90 49 60
        E 0 90 54 60
        E 0 90 55 60
        E 0 90 60 60
        E 0 90 61 60
        E 120 80 3c 00
        E 0 80 48 00
        E 0 80 49 00
        E 0 80 54 00
        E 0 80 55 00
        E 0 80 60 00
        E 0 80 61 00
        E 120 90 48 60
        E 0 90 49 60
        E 0 90 54 60
        E 0 90 55 60
        E 0 90 60 60
        E 0 90 61 60
        E 0 90 62 60
        E 120 80 48 00
        E 0 80 49 00
        E 0 80 54 00
        E 0 80 55 00
        E 0 80 60 00
        E 0 80 61 00
        E 0 80 62 00
        E 120 90 3c 60
        E 0 90 48 60
        E 0 90 49 60
        E 0 90 54 60
        E 0 90 55 60
        E 0 90 60 60
        E 0 90 61 60
        E 120 80 3c 00
        E 0 80 48 00
        E 0 80 49 00
        E 240 80 54 00
        E 0 80 55 00
        E 0 80 60 00
        E 0 80 61 00
        E 120 90 48 60
        E 0 90 49 60
        E 0 90 54 60
        E 0 90 55 60
        E 0 90 60 60
        E 0 90 61 60
        E 120 80 2b 00
        E 0 80 48 00
        E 0 80 49 00
        E 0 80 54 00
        E 0 80 55 00
        E 0 80 60 00
        E 0 80 61 00
        E 120 90 28 60
        E 0 90 55 60
        E 0 90 61 60
        E 120 80 55 00
        E 0 80 61 00
        E 120 90 40 60
        E 0 90 4b 60
        E 0 90 4c 60
        E 0 90 56 60
        E 0 90 58 60
        E 0 90 61 60
        E 0 90 63 60
        E 0 90 64 60
        E 120 80 40 00
        E 0 80 4b 00
        E 0 80 4c 00
        E 240 80 56 00
        E 0 80 58 00
        E 0 80 61 00
        E 0 80 63 00
        E 0 80 64 00
        E 120 90 4b 60
        E 0 90 4c 60
        E 0 90 56 60
        E 0 90 58 60
        E 0 90 61 60
        E 0 90 63 60
        E 0 90 64 60
        E 120 80 4b 00
        E 0 80 4c 00
        E 0 80 56 00
        E 0 80 58 00
        E 0 80 61 00
        E 0 80 63 00
        E 0 80 64 00
        E 120 90 55 60
        E 0 90 61 60
        E 120 80 55 00
        E 0 80 61 00
        E 120 90 3f 60
        E 0 90 4a 60
        E 0 90 4b 60
        E 0 90 55 60
        E 0 90 58 60
        E 0 90 61 60
        E 0 90 62 60
        E 0 90 64 60
        E 120 80 3f 00
        E 0 80 4a 00
        E 0 80 4b 00
        E 240 80 55 00
        E 0 80 58 00
        E 0 80 61 00
        E 0 80 62 00
        E 0 80 64 00
        E 120 90 4a 60
        E 0 90 4b 60
        E 0 90 55 60
        E 0 90 58 60
        E 0 90 61 60
        E 0 90 62 60
        E 0 90 64 60
        E 120 80 4a 00
        E 0 80 4b 00
        E 0 80 55 00
        E 0 80 58 00
        E 0 80 61 00
        E 0 80 62 00
        E 0 80 64 00
        E 120 90 55 60
        E 0 90 61 60
        E 120 80 55 00
        E 0 80 61 00
        E 120 90 3e 60
        E 0 90 49 60
        E 0 90 4b 60
        E 0 90 55 60
        E 0 90 57 60
        E 0 90 61 60
        E 0 90 62 60
        E 0 90 63 60
        E 120 80 3e 00
        E 0 80 49 00
        E 0 80 4b 00
        E 240 80 55 00
        E 0 80 57 00
        E 0 80 61 00
        E 0 80 62 00
        E 0 80 63 00
        E 120 90 3e 60
        E 0 90 49 60
        E 0 90 4a 60
        E 0 90 55 60
        E 0 90 56 60
        E 0 90 61 60
        E 0 90 62 60
        E 120 80 3e 00
        E 0 80 49 00
        E 0 80 4a 00
        E 0 80 55 00
        E 0 80 56 00
        E 0 80 61 00
        E 0 80 62 00
        E 120 90 55 60
        E 0 90 57 60
        E 0 90 61 60
        E 0 90 62 60
        E 0 90 63 60
        E 120 80 55 00
        E 0 80 57 00
        E 0 80 61 00
        E 0 80 62 00
        E 0 80 63 00
        E 120 90 3e 60
        E 0 90 49 60
        E 0 90 4a 60
        E 0 90 55 60
        E 0 90 56 60
        E 0 90 61 60
        E 0 90 62 60
        E 120 80 3e 00
        E 0 80 49 00
        E 0 80 4a 00
        E 0 80 55 00
        E 0 80 56 00
        E 0 80 61 00
        E 0 80 62 00
        E 120 90 55 60
        E 0 90 57 60
        E 0 90 61 60
        E 0 90 62 60
        E 0 90 63 60
        E 120 80 55 00
        E 0 80 57 00
        E 0 80 61 00
        E 0 80 62 00
        E 0 80 63 00
        E 120 90 3e 60
        E 0 90 49 60
        E 0 90 4a 60
        E 0 90 55 60
        E 0 90 56 60
        E 0 90 61 60
        E 0 90 62 60
        E 120 80 28 00
        E 0 80 3e 00
        E 0 80 49 00
        E 0 80 4a 00
        E 0 80 55 00
        E 0 80 56 00
        E 0 80 61 00
        E 0 80 62 00
        E 120 90 2b 60
        E 0 90 54 60
        E 0 90 60 60
        E 120 80 2b 00
        E 0 80 54 00
        E 0 80 60 00
        E 120 90 2b 60
        E 0 90 3e 60
        E 0 90 49 60
        E 0 90 4a 60
        E 0 90 54 60
        E 0 90 57 60
        E 0 90 60 60
        E 0 90 62 60
        E 0 90 63 60
        E 120 80 3e 00
        E 0 80 49 00
        E 0 80 4a 00
        E 240 80 54 00
        E 0 80 57 00
        E 0 80 60 00
        E 0 80 62 00
        E 0 80 63 00
        E 120 90 49 60
        E 0 90 4a 60
        E 0 90 54 60
        E 0 90 57 60
        E 0 90 60 60
        E 0 90 62 60
        E 0 90 63 60
        E 120 80 49 00
        E 0 80 4a 00
        E 0 80 54 00
        E 0 80 57 00
        E 0 80 60 00
        E 0 80 62 00
        E 0 80 63 00
        E 120 90 54 60
        E 0 90 60 60
        E 120 80 54 00
        E 0 80 60 00
        E 120 90 3d 60
        E 0 90 48 60
        E 0 90 4a 60
        E 0 90 54 60
        E 0 90 56 60
        E 0 90 60 60
        E 0 90 61 60
        E 0 90 63 60
        E 120 80 3d 00
        E 0 80 48 00
        E 0 80 4a 00
        E 240 80 54 00
        E 0 80 56 00
        E 0 80 60 00
        E 0 80 61 00
        E 0 80 63 00
        E 120 90 48 60
        E 0 90 4a 60
        E 0 90 54 60
        E 0 90 56 60
        E 0 90 60 60
        E 0 90 61 60
        E 0 90 63 60
        E 120 80 48 00
        E 0 80 4a 00
        E 0 80 54 00
        E 0 80 56 00
        E 0 80 60 00
        E 0 80 61 00
        E 0 80 63 00
        E 120 90 54 60
        E 0 90 60 60
        E 120 80 54 00
        E 0 80 60 00
        E 120 90 3c 60
        E 0 90 48 60
        E 0 90 49 60
        E 0 90 54 60
        E 0 90 55 60
        E 0 90 60 60
        E 0 90 61 60
        E 0 90 62 60
        E 120 80 3c 00
        E 0 80 48 00
        E 0 80 49 00
        E 240 80 54 00
        E 0 80 55 00
        E 0 80 60 00
        E 0 80 61 00
        E 0 80 62 00
        E 120 90 3c 60
        E 0 90 48 60
        E 0 90 49 60
        E 0 90 54 60
        E 0 90 55 60
        E 0 90 60 60
        E 0 90 61 60
        E 120 80 3c 00
        E 0 80 48 00
        E 0 80 49 00
        E 0 80 54 00
        E 0 80 55 00
        E 0 80 60 00
        E 0 80 61 00
        E 120 90 48 60
        E 0 90 49 60
        E 0 90 54 60
        E 0 90 55 60
        E 0 90 60 60
        E 0 90 61 60
        E 0 90 62 60
        E 120 80 48 00
        E 0 80 49 00
        E 0 80 54 00
        E 0 80 55 00
        E 0 80 60 00
        E 0 80 61 00
        E 0 80 62 00
        E 120 90 3c 60
        E 0 90 48 60
        E 0 90 49 60
        E 0 90 54 60
        E 0 90 55 60
        E 0 90 60 60
        E 0 90 61 60
        E 120 80 3c 00
        E 0 80 48 00
        E 0 80 49 00
        E 0 80 54 00
        E 0 80 55 00
        E 0 80 60 00
        E 0 80 61 00
        E 120 90 48 60
        E 0 90 49 60
        E 0 90 54 60
        E 0 90 55 60
        E 0 90 60 60
        E 0 90 61 60
        E 0 90 62 60
        E 120 80 48 00
        E 0 80 49 00
        E 0 80 54 00
        E 0 80 55 00
        E 0 80 60 00
        E 0 80 61 00
        E 0 80 62 00
        E 120 90 48 60
        E 0 90 49 60
        E 0 90 54 60
        E 0 90 55 60
        E 0 90 60 60
        E 0 90 61 60
        E 120 80 2b 00
        E 0 80 48 00
        E 0 80 49 00
        E 0 80 54 00
        E 0 80 55 00
        E 0 80 60 00
        E 0 80 61 00
        E 120 90 28 60
        E 0 90 55 60
        E 0 90 61 60
        E 120 80 55 00
        E 0 80 61 00
        E 120 90 40 60
        E 0 90 4b 60
        E 0 90 4c 60
        E 0 90 56 60
        E 0 90 58 60
        E 0 90 61 60
        E 0 90 63 60
        E 0 90 64 60
        E 120 80 40 00
        E 0 80 4b 00
        E 0 80 4c 00
        E 240 80 56 00
        E 0 80 58 00
        E 0 80 61 00
        E 0 80 63 00
        E 0 80 64 00
        E 120 90 4b 60
        E 0 90 4c 60
        E 0 90 56 60
        E 0 90 58 60
        E 0 90 61 60
        E 0 90 63 60
        E 0 90 64 60
        E 120 80 4b 00
        E 0 80 4c 00
        E 0 80 56 00
        E 0 80 58 00
        E 0 80 61 00
        E 0 80 63 00
        E 0 80 64 00
        E 120 90 55 60
        E 0 90 61 60
        E 120 80 55 00
        E 0 80 61 00
        E 120 90 3f 60
        E 0 90 4a 60
        E 0 90 4b 60
        E 0 90 55 60
        E 0 90 58 60
        E 0 90 61 60
        E 0 90 62 60
        E 0 90 64 60
        E 120 80 3f 00
        E 0 80 4a 00
        E 0 80 4b 00
        E 240 80 55 00
        E 0 80 58 00
        E 0 80 61 00
        E 0 80 62 00
        E 0 80 64 00
        E 120 90 4a 60
        E 0 90 4b 60
        E 0 90 55 60
        E 0 90 58 60
        E 0 90 61 60
        E 0 90 62 60
        E 0 90 64 60
        E 120 80 4a 00
        E 0 80 4b 00
        E 0 80 55 00
        E 0 80 58 00
        E 0 80 61 00
        E 0 80 62 00
        E 0 80 64 00
        E 120 90 55 60
        E 0 90 61 60
        E 120 80 55 00
        E 0 80 61 00
        E 120 90 3e 60
        E 0 90 49 60
        E 0 90 4b 60
        E 0 90 55 60
        E 0 90 57 60
        E 0 90 61 60
        E 0 90 62 60
        E 0 90 63 60
        E 120 80 3e 00
        E 0 80 49 00
        E 0 80 4b 00
        E 240 80 55 00
        E 0 80 57 00
        E 0 80 61 00
        E 0 80 62 00
        E 0 80 63 00
        E 120 90 3e 60
        E 0 90 49 60
        E 0 90 4a 60
        E 0 90 55 60
        E 0 90 56 60
        E 0 90 61 60
        E 0 90 62 60
        E 120 80 3e 00
        E 0 80 49 00
        E 0 80 4a 00
        E 0 80 55 00
        E 0 80 56 00
        E 0 80 61 00
        E 0 80 62 00
        E 120 90 49 60
        E 0 90 4a 60
        E 0 90 55 60
        E 0 90 56 60
        E 0 90 61 60
        E 0 90 62 60
        E 120 80 49 00
        E 0 80 4a 00
        E 0 80 55 00
        E 0 80 56 00
        E 0 80 61 00
        E 0 80 62 00
        E 120 90 3e 60
        E 0 90 49 60
        E 0 90 4a 60
        E 0 90 55 60
        E 0 90 56 60
        E 0 90 61 60
        E 0 90 62 60
        E 120 80 3e 00
        E 0 80 49 00
        E 0 80 4a 00
        E 0 80 55 00
        E 0 80 56 00
        E 0 80 61 00
        E 0 80 62 00
        E 120 90 55 60
        E 0 90 57 60
        E 0 90 61 60
        E 0 90 62 60
        E 0 90 63 60
        E 120 80 55 00
        E 0 80 57 00
        E 0 80 61 00
        E 0 80 62 00
        E 0 80 63 00
        E 120 90 3e 60
        E 0 90 49 60
        E 0 90 4a 60
        E 0 90 55 60
        E 0 90 56 60
        E 0 90 61 60
        E 0 90 62 60
        E 120 80 28 00
        E 0 80 3e 00
        E 0 80 49 00
        E 0 80 4a 00
        E 0 80 55 00
        E 0 80 56 00
        E 0 80 61 00
        E 0 80 62 00
        E 120 90 2b 60
        E 0 90 54 60
        E 0 90 60 60
        E 120 80 2b 00
        E 0 80 54 00
        E 0 80 60 00
        E 120 90 2b 60
        E 0 90 3e 60
        E 0 90 49 60
        E 0 90 4a 60
        E 0 90 54 60
        E 0 90 57 60
        E 0 90 60 60
        E 0 90 62 60
        E 0 90 63 60
        E 120 80 3e 00
        E 0 80 49 00
        E 0 80 4a 00
        E 240 80 54 00
        E 0 80 57 00
        E 0 80 60 00
        E 0 80 62 00
        E 0 80 63 00
        E 120 90 49 60
        E 0 90 4a 60
        E 0 90 54 60
        E 0 90 57 60
        E 0 90 60 60
        E 0 90 62 60
        E 0 90 63 60
        E 120 80 49 00
        E 0 80 4a 00
        E 0 80 54 00
        E 0 80 57 00
        E 0 80 60 00
        E 0 80 62 00
        E 0 80 63 00
        E 120 90 54 60
        E 0 90 60 60
        E 120 80 54 00
        E 0 80 60 00
        E 120 90 3d 60
        E 0 90 48 60
        E 0 90 4a 60
        E 0 90 54 60
        E 0 90 56 60
        E 0 90 60 60
        E 0 90 61 60
        E 0 90 63 60
        E 120 80 3d 00
        E 0 80 48 00
        E 0 80 4a 00
        E 240 80 54 00
        E 0 80 56 00
        E 0 80 60 00
        E 0 80 61 00
        E 0 80 63 00
        E 120 90 48 60
        E 0 90 4a 60
        E 0 90 54 60
        E 0 90 56 60
        E 0 90 60 60
        E 0 90 61 60
        E 0 90 63 60
        E 120 80 48 00
        E 0 80 4a 00
        E 0 80 54 00
        E 0 80 56 00
        E 0 80 60 00
        E 0 80 61 00
        E 0 80 63 00
        E 120 90 54 60
        E 0 90 60 60
        E 120 80 54 00
        E 0 80 60 00
        E 120 90 3c 60
        E 0 90 48 60
        E 0 90 49 60
        E 0 90 54 60
        E 0 90 55 60
        E 0 90 60 60
        E 0 90 61 60
        E 0 90 62 60
        E 120 80 3c 00
        E 0 80 48 00
        E 0 80 49 00
        E 240 80 54 00
        E 0 80 55 00
        E 0 80 60 00
        E 0 80 61 00
        E 0 80 62 00
        E 120 90 3c 60
        E 0 90 48 60
        E 0 90 49 60
        E 0 90 54 60
        E 0 90 55 60
        E 0 90 60 60
        E 0 90 61 60
        E 120 80 3c 00
        E 0 80 48 00
        E 0 80 49 00
        E 0 80 54 00
        E 0 80 55 00
        E 0 80 60 00
        E 0 80 61 00
        E 120 90 48 60
        E 0 90 49 60
        E 0 90 54 60
        E 0 90 55 60
        E 0 90 60 60
        E 0 90 61 60
        E 0 90 62 60
        E 120 80 48 00
        E 0 80 49 00
        E 0 80 54 00
        E 0 80 55 00
        E 0 80 60 00
        E 0 80 61 00
        E 0 80 62 00
        E 120 90 3c 60
        E 0 90 48 60
        E 0 90 49 60
        E 0 90 54 60
        E 0 90 55 60
        E 0 90 60 60
        E 0 90 61 60
        E 120 80 3c 00
        E 0 80 48 00
        E 0 80 49 00
        E 0 80 54 00
        E 0 80 55 00
        E 0 80 60 00
        E 0 80 61 00
        E 120 90 48 60
        E 0 90 49 60
        E 0 90 54 60
        E 0 90 55 60
        E 0 90 60 60
        E 0 90 61 60
        E 120 80 48 00
        E 0 80 49 00
        E 0 80 54 00
        E 0 80 55 00
        E 0 80 60 00
        E 0 80 61 00
        E 120 90 48 60
        E 0 90 49 60
        E 0 90 54 60
        E 0 90 55 60
        E 0 90 60 60
        E 0 90 61 60
        E 120 80 2b 00
        E 0 80 48 00
        E 0 80 49 00
        E 0 80 54 00
        E 0 80 55 00
        E 0 80 60 00
        E 0 80 61 00
        E 120 90 28 60
        E 0 90 55 60
        E 0 90 61 60
        E 120 80 55 00
        E 0 80 61 00
        E 120 90 40 60
        E 0 90 4b 60
        E 0 90 4c 60
        E 0 90 56 60
        E 0 90 58 60
        E 0 90 61 60
        E 0 90 63 60
        E 0 90 64 60
        E 120 80 40 00
        E 0 80 4b 00
        E 0 80 4c 00
        E 240 80 56 00
        E 0 80 58 00
        E 0 80 61 00
        E 0 80 63 00
        E 0 80 64 00
        E 120 90 4b 60
        E 0 90 4c 60
        E 0 90 56 60
        E 0 90 58 60
        E 0 90 61 60
        E 0 90 63 60
        E 0 90 64 60
        E 120 80 4b 00
        E 0 80 4c 00
        E 0 80 56 00
        E 0 80 58 00
        E 0 80 61 00
        E 0 80 63 00
        E 0 80 64 00
        E 120 90 55 60
        E 0 90 61 60
        E 120 80 55 00
        E 0 80 61 00
        E 120 90 3f 60
        E 0 90 4a 60
        E 0 90 4b 60
        E 0 90 55 60
        E 0 90 58 60
        E 0 90 61 60
        E 0 90 62 60
        E 0 90 64 60
        E 120 80 3f 00
        E 0 80 4a 00
        E 0 80 4b 00
        E 240 80 55 00
        E 0 80 58 00
        E 0 80 61 00
        E 0 80 62 00
        E 0 80 64 00
        E 120 90 4a 60
        E 0 90 4b 60
        E 0 90 55 60
        E 0 90 58 60
        E 0 90 61 60
        E 0 90 62 60
        E 0 90 64 60
        E 120 80 4a 00
        E 0 80 4b 00
        E 0 80 55 00
        E 0 80 58 00
        E 0 80 61 00
        E 0 80 62 00
        E 0 80 64 00
        E 120 90 55 60
        E 0 90 61 60
        E 120 80 55 00
        E 0 80 61 00
        E 120 90 3e 60
        E 0 90 49 60
        E 0 90 4b 60
        E 0 90 55 60
        E 0 90 57 60
        E 0 90 61 60
        E 0 90 62 60
        E 0 90 63 60
        E 120 80 3e 00
        E 0 80 49 00
        E 0 80 4b 00
        E 240 80 55 00
        E 0 80 57 00
        E 0 80 61 00
        E 0 80 62 00
        E 0 80 63 00
        E 120 90 3e 60
        E 0 90 49 60
        E 0 90 4a 60
        E 0 90 55 60
        E 0 90 56 60
        E 0 90 61 60
        E 0 90 62 60
        E 120 80 3e 00
        E 0 80 49 00
        E 0 80 4a 00
        E 0 80 55 00
        E 0 80 56 00
        E 0 80 61 00
        E 0 80 62 00
        E 120 90 49 60
        E 0 90 4a 60
        E 0 90 55 60
        E 0 90 56 60
        E 0 90 61 60
        E 0 90 62 60
        E 120 80 49 00
        E 0 80 4a 00
        E 0 80 55 00
        E 0 80 56 00
        E 0 80 61 00
        E 0 80 62 00
        E 120 90 3e 60
        E 0 90 49 60
        E 0 90 4a 60
        E 0 90 55 60
        E 0 90 56 60
        E 0 90 61 60
        E 0 90 62 60
        E 120 80 3e 00
        E 0 80 49 00
        E 0 80 4a 00
        E 0 80 55 00
        E 0 80 56 00
        E 0 80 61 00
        E 0 80 62 00
        E 120 90 49 60
        E 0 90 4a 60
        E 0 90 55 60
        E 0 90 56 60
        E 0 90 61 60
        E 0 90 62 60
        E 120 80 49 00
        E 0 80 4a 00
        E 0 80 55 00
        E 0 80 56 00
        E 0 80 61 00
        E 0 80 62 00
        E 120 90 3e 60
        E 0 90 49 60
        E 0 90 4a 60
        E 0 90 55 60
        E 0 90 56 60
        E 0 90 61 60
        E 0 90 62 60
        E 120 80 28 00
        E 0 80 3e 00
        E 0 80 49 00
        E 0 80 4a 00
        E 0 80 55 00
        E 0 80 56 00
        E 0 80 61 00
        E 0 80 62 00
        E 120 90 2b 60
        E 0 90 54 60
        E 0 90 60 60
        E 120 80 54 00
        E 0 80 60 00
        E 120 90 3e 60
        E 0 90 49 60
        E 0 90 4a 60
        E 0 90 54 60
        E 0 90 57 60
        E 0 90 60 60
        E 0 90 62 60
        E 0 90 63 60
        E 5760 80 2b 00
        E 0 80 3e 00
        E 0 80 49 00
        E 0 80 4a 00
        E 0 80 54 00
        E 0 80 57 00
        E 0 80 60 00
        E 0 80 62 00
        E 0 80 63 00
        <X 959 0
          /wFbaWRsZV9yZWFsdGltZV0=
        >
        E 2881 b0 7b 00
        GUID {9617AB6F-E0E2-4C20-8395-78FE46FB80A3}
        IGNTEMPO 0 120.00000000 4 4
        SRCCOLOR 43
        VELLANE 132 128 60
        COLORMAP "C:\Program Files\REAPER (x64)\Data\color_maps\rockband_guitarbass.png"
        CFGEDITVIEW -12864.530280 5.523216 0 12 0 0 0
        CFGEDIT 1 1 0 1 1 0 1 1 1 1 1 0.12500000 53 44 1253 718 0 2 1 1 0.00000000 0 1 1 0 0.500000 0 0 1.000000 64
        KEYSNAP 0 7 "102030050700" 0 "Pentatonic"
        EVTFILTER 0 -1 -1 -1 -1 0 1 0 0 -1.00000000 -1.00000000
      >
    >
  >
  <TRACK '{3A5128FF-8C6D-452A-BA11-98BE917DC823}'
    NAME "PART VOCALS"
    PEAKCOL 16576
    BEAT -1
    AUTOMODE 0
    VOLPAN 1.00000000000000 0.00000000000000 -1.00000000000000 -1.00000000000000 1.00000000000000
    MUTESOLO 0 0 0
    IPHASE 0
    ISBUS 0 0
    BUSCOMP 0 0
    SHOWINMIX 1 0.666700 0.500000 1 0.500000 -1 -1 -1
    FREEMODE 0
    SEL 0
    REC 0 0 0 0 0 0 0
    VU 2
    TRACKHEIGHT 0 0
    INQ 0 0 0 0.5000000000 100 0 0 100
    NCHAN 2
    FX 0
    TRACKID {3A5128FF-8C6D-452A-BA11-98BE917DC823}
    PERF 0
    MIDIOUT -1
    <MIDINOTENAMES
      0 116 "OVERDRIVE"
      0 115 "----"
      0 105 "Phrase Marker"
      0 104 "----"
      0 97 "Non-Displayed Percussion"
      0 96 "Displayed Percussion"
      0 95 "----"
      0 84 "C6 (Unused Highest Note)"
      0 83 "B5"
      0 82 "A#4"
      0 81 "A4"
      0 80 "G#4"
      0 79 "G4"
      0 78 "F#4"
      0 77 "F4"
      0 76 "E4"
      0 75 "D#4"
      0 74 "D4"
      0 73 "C#4"
      0 72 "C4"
      0 71 "B3"
      0 70 "A#3"
      0 69 "A3"
      0 68 "G#3"
      0 67 "G3"
      0 66 "F#3"
      0 65 "F3"
      0 64 "E3"
      0 63 "D#3"
      0 62 "D3"
      0 61 "C#3"
      0 60 "C3"
      0 59 "B2"
      0 58 "A#2"
      0 57 "A2"
      0 56 "G#2"
      0 55 "G2"
      0 54 "F#2"
      0 53 "F2"
      0 52 "E2"
      0 51 "D#2"
      0 50 "D2"
      0 49 "C#2"
      0 48 "C2"
      0 47 "B1"
      0 46 "A#1"
      0 45 "A1"
      0 44 "G#1"
      0 43 "G1"
      0 42 "F#1"
      0 41 "F1"
      0 40 "E1"
      0 39 "D#1"
      0 38 "D1"
      0 37 "C#1"
      0 36 "Lowest Note C1"
      0 2 "---"
      0 1 "Lyric Shift"
      0 0 "Range Shift"
    >
    MAINSEND 1 0
    <FXCHAIN
      WNDRECT 0 43 655 467
      SHOW 0
      LASTSEL 1
      DOCKED 0
      BYPASS 0 0
      <JS "MIDI/midi_note_filter" ""
        36.000000 84.000000 - - - - - - - - - - - - - - - - - - - - - - - - - - - - - - - - - - - - - - - - - - - - - - - - - - - - - - - - - - - - - - 
      >
      FLOATPOS 0 0 0 0
      FXID {16493EBB-3414-4FBC-BCB1-018650ADC208}
      WAK 0
      BYPASS 0 0
      <VST "VSTi: ReaSynth (Cockos)" "reasynth.dll" 0 ""
        eXNlcu9e7f4AAAAAAgAAAAEAAAAAAAAAAgAAAAAAAAA4AAAAAAAAAA==
        AAAQAO++rd4N8K3eppvEOxe30ToAAIA/AAAAAAAAAADMm4A+6WeIPQ==
        AAAAAAAAAD8AAIA/AACAPwAAAD8AABAAAAA=
      >
      FLOATPOS 0 0 0 0
      FXID {755EE7CE-DF41-462B-B648-90E3A0BBFF52}
      WAK 0
    >
    <ITEM
      POSITION 0.00000000000000
      SNAPOFFS 0.00000000000000
      LENGTH 236.43057157291659
      LOOP 0
      ALLTAKES 0
      SEL 0
      FADEIN 1 0.000000 0.000000 1 0
      FADEOUT 1 0.000000 0.000000 1 0
      MUTE 0
      IGUID {9294456D-1A26-4E1A-9EC7-1F838526D70C}
      IID 4
      NAME "PART VOCALS"
      VOLPAN 1.000000 0.000000 1.000000 -1.000000
      SOFFS 0.00000000000000 0.00000000000000
      PLAYRATE 1.00000000000000 1 0.00000000000000 -1
      CHANMODE 0
      GUID {D600D735-E239-4D45-8D45-4FBF31A13343}
      <SOURCE MIDI
        HASDATA 1 480 QN
        POOLEDEVTS {1674DB02-70D1-44E3-A1D3-74D206E147D7}
        <X 0 0
          /wNQQVJUIFZPQ0FMUw==
        >
        <X 3840 0
          /wFbaWRsZV0=
        >
        <X 1920 0
          /wFbbWVsbG93XQ==
        >
        <X 0 0
          /wFbdGFtYm91cmluZV9zdGFydF0=
        >
        E 720 90 69 60
        E 240 90 60 60
        E 120 80 60 00
        E 1800 90 60 60
        E 120 80 60 00
        E 1800 90 60 60
        E 120 80 60 00
        E 120 80 69 00
        E 1440 90 69 60
        E 240 90 60 60
        E 120 80 60 00
        E 1800 90 60 60
        E 120 80 60 00
        E 1800 90 60 60
        E 120 80 60 00
        E 1800 90 60 60
        E 120 80 60 00
        E 120 80 69 00
        <X 720 0
          /wFbdGFtYm91cmluZV9lbmRd
        >
        E 480 90 69 60
        <X 240 0
          /wVEZWFk
        >
        E 0 90 2f 60
        E 390 80 2f 00
        <X 90 0
          /wVpbg==
        >
        E 0 90 2f 60
        E 150 80 2f 00
        <X 90 0
          /wV0aGU=
        >
        E 0 90 2f 60
        E 120 80 2f 00
        <X 120 0
          /wV3YS0=
        >
        E 0 90 2f 60
        E 30 80 2f 00
        <X 60 0
          /wUr
        >
        E 0 90 36 60
        E 270 80 36 00
        <X 120 0
          /wV0ZXI=
        >
        E 0 90 37 60
        E 810 80 37 00
        E 150 80 69 00
        E 720 90 69 60
        <X 240 0
          /wVJdCdz
        >
        E 0 90 37 60
        E 90 80 37 00
        <X 150 0
          /wVub3Q=
        >
        E 0 90 39 60
        E 180 80 39 00
        <X 60 0
          /wVh
        >
        E 0 90 39 60
        E 60 80 39 00
        <X 180 0
          /wVwYWlk
        >
        E 0 90 39 60
        E 120 80 39 00
        <X 360 0
          /wV2YS0=
        >
        E 0 90 39 60
        E 120 80 39 00
        <X 120 0
          /wVjYS0=
        >
        E 0 90 3b 60
        E 210 80 3b 00
        <X 270 0
          /wV0aW9u
        >
        E 0 90 39 60
        E 960 80 39 00
        E 240 80 69 00
        E 960 90 69 60
        E 0 90 74 60
        <X 240 0
          /wVUaGU=
        >
        E 0 90 2f 60
        E 90 80 2f 00
        <X 150 0
          /wVzb25z
        >
        E 0 90 2f 60
        E 390 80 2f 00
        <X 90 0
          /wVhbmQ=
        >
        E 0 90 2f 60
        E 90 80 2f 00
        <X 150 0
          /wVkYXVnaC0=
        >
        E 0 90 39 60
        E 390 80 39 00
        <X 90 0
          /wV0ZXJz
        >
        E 0 90 37 60
        E 420 80 37 00
        <X 60 0
          /wVvZg==
        >
        E 0 90 37 60
        E 90 80 37 00
        <X 150 0
          /wVjaS0=
        >
        E 0 90 39 60
        E 150 80 39 00
        <X 90 0
          /wV0eQ==
        >
        E 0 90 39 60
        E 150 80 39 00
        <X 90 0
          /wVvZi0=
        >
        E 0 90 39 60
        E 120 80 39 00
        <X 120 0
          /wVmaS0=
        >
        E 0 90 3b 60
        E 360 80 3b 00
        <X 120 0
          /wVjaWFscw==
        >
        E 0 90 39 60
        E 210 80 39 00
        E 10 90 01 60
        E 15 80 01 00
        <X 5 0
          /wVhdC0=
        >
        E 0 90 39 60
        E 60 80 39 00
        <X 180 0
          /wV0ZW5k
        >
        E 0 90 39 60
        E 270 80 39 00
        <X 210 0
          /wVkZW0t
        >
        E 0 90 39 60
        E 150 80 39 00
        <X 90 0
          /wVvbi0=
        >
        E 0 90 37 60
        E 90 80 37 00
        <X 150 0
          /wVzdHJhLQ==
        >
        E 0 90 3b 60
        E 330 80 3b 00
        <X 150 0
          /wV0aW9ucw==
        >
        E 0 90 39 60
        E 720 80 39 00
        E 240 80 69 00
        E 0 80 74 00
        E 960 90 69 60
        <X 240 0
          /wVJdCdz
        >
        E 0 90 3b 60
        E 120 80 3b 00
        <X 120 0
          /wVoYXJkLQ==
        >
        E 0 90 3e 60
        E 330 80 3e 00
        <X 150 0
          /wVseQ==
        >
        E 0 90 3e 60
        E 210 80 3e 00
        <X 30 0
          /wVh
        >
        E 0 90 3e 60
        E 30 80 3e 00
        <X 210 0
          /wVzaW5r
        >
        E 0 90 40 60
        E 180 80 40 00
        <X 60 0
          /wUr
        >
        E 0 90 3e 60
        E 30 80 3e 00
        <X 210 0
          /wVvcg==
        >
        E 0 90 3b 60
        E 330 80 3b 00
        <X 150 0
          /wVzd2lt
        >
        E 0 90 3b 60
        E 630 80 3b 00
        E 30 90 01 60
        E 30 80 01 00
        <X 30 0
          /wV3aGVu
        >
        E 0 90 3c 60
        E 150 80 3c 00
        <X 90 0
          /wVhbGw=
        >
        E 0 90 3b 60
        E 420 80 3b 00
        <X 60 0
          /wVpcw==
        >
        E 0 90 39 60
        E 300 80 39 00
        <X 180 0
          /wV3ZWxs
        >
        E 0 90 39 60
        E 570 80 39 00
        <X 150 0
          /wVpZg==
        >
        E 0 90 39 60
        E 90 80 39 00
        <X 150 0
          /wV0aGU=
        >
        E 0 90 39 60
        E 60 80 39 00
        <X 180 0
          /wV0aWNrLQ==
        >
        E 0 90 3b 60
        E 90 80 3b 00
        <X 120 0
          /wVldA==
        >
        E 0 90 39 60
        E 120 80 39 00
        <X 150 0
          /wVzZWxscw==
        >
        E 0 90 39 60
        E 1470 80 39 00
        <X 210 0
          /wFbaWRsZV0=
        >
        E 0 80 69 00
        <X 7440 0
          /wFbbWVsbG93XQ==
        >
        E 480 90 69 60
        <X 240 0
          /wVPdXQ=
        >
        E 0 90 2f 60
        E 360 80 2f 00
        <X 120 0
          /wV3aXRo
        >
        E 0 90 2f 60
        E 90 80 2f 00
        <X 150 0
          /wVh
        >
        E 0 90 2f 60
        E 150 80 2f 00
        <X 90 0
          /wV3aGltLQ==
        >
        E 0 90 36 60
        E 300 80 36 00
        <X 180 0
          /wVwZXI=
        >
        E 0 90 36 60
        E 570 80 36 00
        E 150 80 69 00
        E 960 90 69 60
        <X 240 0
          /wVJdCdz
        >
        E 0 90 37 60
        E 120 80 37 00
        <X 120 0
          /wVub3Q=
        >
        E 0 90 39 60
        E 120 80 39 00
        <X 120 0
          /wVh
        >
        E 0 90 39 60
        E 60 80 39 00
        <X 180 0
          /wVibGF6ZQ==
        >
        E 0 90 39 60
        E 390 80 39 00
        <X 90 0
          /wVmb3I=
        >
        E 0 90 39 60
        E 90 80 39 00
        <X 150 0
          /wVnbG8t
        >
        E 0 90 39 60
        E 60 80 39 00
        <X 60 0
          /wUr
        >
        E 0 90 3b 60
        E 300 80 3b 00
        <X 60 0
          /wVyeQ==
        >
        E 0 90 39 60
        E 690 80 39 00
        E 30 80 69 00
        E 960 90 69 60
        <X 240 0
          /wVZb3U=
        >
        E 0 90 2f 60
        E 120 80 2f 00
        <X 120 0
          /wVsb29r
        >
        E 0 90 2f 60
        E 90 80 2f 00
        <X 150 0
          /wVkb3du
        >
        E 0 90 2f 60
        E 360 80 2f 00
        <X 120 0
          /wVmcm9t
        >
        E 0 90 2f 60
        E 90 80 2f 00
        <X 150 0
          /wV5b3Vy
        >
        E 0 90 2f 60
        E 90 80 2f 00
        <X 150 0
          /wV0ZW0t
        >
        E 0 90 39 60
        E 360 80 39 00
        <X 120 0
          /wVwbGU=
        >
        E 0 90 37 60
        E 360 80 37 00
        E 30 80 69 00
        E 60 90 69 60
        <X 30 0
          /wVBcw==
        >
        E 0 90 32 60
        E 90 80 32 00
        <X 150 0
          /wVwZW8t
        >
        E 0 90 39 60
        E 180 80 39 00
        <X 60 0
          /wVwbGU=
        >
        E 0 90 39 60
        E 150 80 39 00
        <X 90 0
          /wVlbi0=
        >
        E 0 90 39 60
        E 150 80 39 00
        <X 90 0
          /wVkZWF2LQ==
        >
        E 0 90 3b 60
        E 360 80 3b 00
        <X 120 0
          /wVvcg==
        >
        E 0 90 39 60
        E 120 80 39 00
        <X 120 0
          /wV0bw==
        >
        E 0 90 39 60
        E 90 80 39 00
        <X 150 0
          /wVtYWtl
        >
        E 0 90 39 60
        E 360 80 39 00
        <X 120 0
          /wVpdA==
        >
        E 0 90 39 60
        E 60 80 39 00
        <X 180 0
          /wVh
        >
        E 0 90 39 60
        E 120 80 39 00
        <X 120 0
          /wVzdG8t
        >
        E 0 90 39 60
        E 30 80 39 00
        <X 30 0
          /wUr
        >
        E 0 90 3b 60
        E 300 80 3b 00
        <X 120 0
          /wVyeQ==
        >
        E 0 90 39 60
        E 390 80 39 00
        E 90 80 69 00
        E 1440 90 69 60
        E 0 90 74 60
        <X 240 0
          /wVBbmQ=
        >
        E 0 90 3b 60
        E 90 80 3b 00
        <X 150 0
          /wVjaGkt
        >
        E 0 90 3e 60
        E 360 80 3e 00
        <X 120 0
          /wVzZWw=
        >
        E 0 90 3e 60
        E 120 80 3e 00
        <X 120 0
          /wVh
        >
        E 0 90 3e 60
        E 90 80 3e 00
        <X 150 0
          /wVtYXIt
        >
        E 0 90 3e 60
        E 60 80 3e 00
        <X 30 0
          /wUr
        >
        E 0 90 40 60
        E 150 80 40 00
        <X 60 0
          /wUr
        >
        E 0 90 3b 60
        E 90 80 3b 00
        <X 90 0
          /wVibGU=
        >
        E 0 90 3b 60
        E 330 80 3b 00
        <X 150 0
          /wV3b3Jk
        >
        E 0 90 3b 60
        E 540 80 3b 00
        E 60 90 01 60
        E 30 80 01 00
        <X 90 0
          /wVidXQ=
        >
        E 0 90 3c 60
        E 120 80 3c 00
        <X 120 0
          /wVhbGw=
        >
        E 0 90 3b 60
        E 330 80 3b 00
        <X 150 0
          /wVpcw==
        >
        E 0 90 39 60
        E 330 80 39 00
        <X 150 0
          /wVsb3N0
        >
        E 0 90 39 60
        E 540 80 39 00
        <X 180 0
          /wVpZg==
        >
        E 0 90 39 60
        E 60 80 39 00
        <X 180 0
          /wVpdCdz
        >
        E 0 90 39 60
        E 60 80 39 00
        <X 180 0
          /wVuZXYt
        >
        E 0 90 3b 60
        E 150 80 3b 00
        <X 90 0
          /wVlcg==
        >
        E 0 90 39 60
        E 120 80 39 00
        <X 120 0
          /wVoZWFyZA==
        >
        E 0 90 39 60
        E 600 80 39 00
        <X 120 0
          /wUr
        >
        E 0 90 3b 60
        E 990 80 3b 00
        <X 210 0
          /wFbaWRsZV0=
        >
        E 0 80 69 00
        E 0 80 74 00
        <X 6480 0
          /wFbcGxheV0=
        >
        E 240 90 69 60
        <X 240 0
          /wVCdXQ=
        >
        E 0 90 3c 60
        E 90 80 3c 00
        <X 150 0
          /wVJJ3Zl
        >
        E 0 90 43 60
        E 300 80 43 00
        <X 180 0
          /wVnb3Q=
        >
        E 0 90 43 60
        E 210 80 43 00
        <X 270 0
          /wVzb21lLQ==
        >
        E 0 90 40 60
        E 180 80 40 00
        <X 60 0
          /wVvbmU=
        >
        E 0 90 3e 60
        E 120 80 3e 00
        <X 120 0
          /wV0bw==
        >
        E 0 90 3e 60
        E 68 80 3e 00
        <X 172 0
          /wVtYWtl
        >
        E 0 90 41 60
        E 30 80 41 00
        <X 30 0
          /wUr
        >
        E 0 90 43 60
        E 210 80 43 00
        <X 210 0
          /wVyZS0=
        >
        E 0 90 43 60
        E 300 80 43 00
        <X 180 0
          /wVwb3J0cw==
        >
        E 0 90 40 60
        E 90 80 40 00
        <X 150 0
          /wUr
        >
        E 0 90 3e 60
        E 150 80 3e 00
        E 90 80 69 00
        E 240 90 69 60
        <X 240 0
          /wVBbmRe
        >
        E 0 90 40 60
        E 90 80 40 00
        <X 150 0
          /wV0ZWxs
        >
        E 0 90 40 60
        E 90 80 40 00
        <X 150 0
          /wUr
        >
        E 0 90 39 60
        E 120 80 39 00
        <X 120 0
          /wVtZQ==
        >
        E 0 90 39 60
        E 150 80 39 00
        <X 330 0
          /wVob3c=
        >
        E 0 90 39 60
        E 360 80 39 00
        <X 120 0
          /wVteQ==
        >
        E 0 90 3c 60
        E 150 80 3c 00
        <X 90 0
          /wVtb24t
        >
        E 0 90 3c 60
        E 330 80 3c 00
        <X 150 0
          /wVleSdz
        >
        E 0 90 3e 60
        E 240 80 3e 00
        <X 240 0
          /wVzcGVudA==
        >
        E 0 90 40 60
        E 270 80 40 00
        E 210 80 69 00
        E 240 90 69 60
        <X 240 0
          /wVUbw==
        >
        E 0 90 3c 60
        E 90 80 3c 00
        <X 150 0
          /wVib29r
        >
        E 0 90 43 60
        E 300 80 43 00
        <X 180 0
          /wVteQ==
        >
        E 0 90 43 60
        E 240 80 43 00
        <X 240 0
          /wVzdGF5cw==
        >
        E 0 90 40 60
        E 120 80 40 00
        <X 120 0
          /wUr
        >
        E 0 90 3e 60
        E 120 80 3e 00
        <X 120 0
          /wVhbmQ=
        >
        E 0 90 3e 60
        E 90 80 3e 00
        <X 150 0
          /wVkcmF3
        >
        E 0 90 43 60
        E 270 80 43 00
        <X 210 0
          /wVteQ==
        >
        E 0 90 43 60
        E 300 80 43 00
        <X 180 0
          /wVibGluZHM=
        >
        E 0 90 40 60
        E 90 80 40 00
        <X 150 0
          /wUr
        >
        E 0 90 3e 60
        E 150 80 3e 00
        E 90 80 69 00
        E 240 90 69 60
        <X 240 0
          /wVTbw==
        >
        E 0 90 3e 60
        E 120 80 3e 00
        <X 120 0
          /wVJXg==
        >
        E 0 90 3e 60
        E 150 80 3e 00
        <X 90 0
          /wVjYW4ndA==
        >
        E 0 90 3c 60
        E 180 80 3c 00
        <X 540 0
          /wV0ZWxs
        >
        E 0 90 3c 60
        E 360 80 3c 00
        <X 120 0
          /wV3aGF0J3M=
        >
        E 0 90 3b 60
        E 150 80 3b 00
        <X 90 0
          /wVyZWFsLQ==
        >
        E 0 90 3c 60
        E 330 80 3c 00
        <X 150 0
          /wVseQ==
        >
        E 0 90 3b 60
        E 120 80 3b 00
        <X 120 0
          /wV0aGVyZSM=
        >
        E 0 90 3e 60
        E 450 80 3e 00
        E 30 80 69 00
        E 480 90 69 60
        E 0 90 74 60
        <X 240 0
          /wVBbmQ=
        >
        E 0 90 3e 60
        E 120 80 3e 00
        <X 120 0
          /wVhbGw=
        >
        E 0 90 43 60
        E 330 80 43 00
        <X 120 0
          /wVJ
        >
        E 0 90 43 60
        E 300 80 43 00
        <X 210 0
          /wVuZWVkJ3M=
        >
        E 0 90 3e 60
        E 330 80 3e 00
        <X 150 0
          /wVh
        >
        E 0 90 3e 60
        E 90 80 3e 00
        <X 150 0
          /wVncmVhdCM=
        >
        E 0 90 43 60
        E 390 80 43 00
        <X 90 0
          /wViaWc=
        >
        E 0 90 3c 60
        E 240 80 3c 00
        <X 240 0
          /wVjb24t
        >
        E 0 90 3c 60
        E 180 80 3c 00
        <X 60 0
          /wVncmF0LQ==
        >
        E 0 90 3c 60
        E 330 80 3c 00
        <X 150 0
          /wV1LQ==
        >
        E 0 90 3c 60
        E 150 80 3c 00
        <X 90 0
          /wVsYS0=
        >
        E 0 90 45 60
        E 90 80 45 00
        <X 150 0
          /wUr
        >
        E 0 90 43 60
        E 90 80 43 00
        <X 150 0
          /wV0aW9ucw==
        >
        E 0 90 43 60
        E 1530 80 43 00
        <X 150 0
          /wFbdGFtYm91cmluZV9zdGFydF0=
        >
        <X 0 0
          /wFbbWVsbG93XQ==
        >
        E 0 80 69 00
        E 0 80 74 00
        E 720 90 69 60
        E 240 90 60 60
        E 120 80 60 00
        E 1800 90 60 60
        E 120 80 60 00
        E 1800 90 60 60
        E 120 80 60 00
        E 120 80 69 00
        E 1440 90 69 60
        E 240 90 60 60
        E 120 80 60 00
        E 1800 90 60 60
        E 120 80 60 00
        E 1800 90 60 60
        E 120 80 60 00
        E 1800 90 60 60
        E 120 80 60 00
        E 120 80 69 00
        <X 720 0
          /wFbdGFtYm91cmluZV9lbmRd
        >
        E 480 90 69 60
        <X 240 0
          /wVJJ2xs
        >
        E 0 90 2f 60
        E 120 80 2f 00
        <X 120 0
          /wVrZWVw
        >
        E 0 90 2f 60
        E 390 80 2f 00
        <X 90 0
          /wV5b3Vy
        >
        E 0 90 2f 60
        E 120 80 2f 00
        <X 120 0
          /wVkcmVhbXM=
        >
        E 0 90 36 60
        E 360 80 36 00
        <X 120 0
          /wUr
        >
        E 0 90 37 60
        E 930 80 37 00
        E 270 80 69 00
        E 480 90 69 60
        <X 240 0
          /wVZb3U=
        >
        E 0 90 30 60
        E 90 80 30 00
        <X 150 0
          /wVwYXk=
        >
        E 0 90 39 60
        E 180 80 39 00
        <X 60 0
          /wVhdC0=
        >
        E 0 90 39 60
        E 60 80 39 00
        <X 180 0
          /wV0ZW4t
        >
        E 0 90 39 60
        E 120 80 39 00
        <X 360 0
          /wV0aW9u
        >
        E 0 90 39 60
        E 120 80 39 00
        <X 120 0
          /wVmb3I=
        >
        E 0 90 3b 60
        E 210 80 3b 00
        <X 270 0
          /wVtZQ==
        >
        E 0 90 39 60
        E 1050 80 39 00
        E 150 80 69 00
        E 960 90 69 60
        <X 210 0
          /wVTdHJhbmdl
        >
        E 0 90 2f 60
        E 360 80 2f 00
        <X 150 0
          /wVhcw==
        >
        E 0 90 2f 60
        E 120 80 2f 00
        <X 120 0
          /wVpdA==
        >
        E 0 90 2f 60
        E 90 80 2f 00
        <X 150 0
          /wVzZWVtcw==
        >
        E 0 90 39 60
        E 390 80 39 00
        <X 90 0
          /wUr
        >
        E 0 90 37 60
        E 360 80 37 00
        E 0 90 01 60
        E 30 80 01 00
        <X 90 0
          /wVJJ2Qj
        >
        E 0 90 37 60
        E 90 80 37 00
        <X 150 0
          /wVyYXRoLQ==
        >
        E 0 90 39 60
        E 150 80 39 00
        <X 90 0
          /wVlcg==
        >
        E 0 90 39 60
        E 150 80 39 00
        <X 90 0
          /wVkaXMt
        >
        E 0 90 39 60
        E 120 80 39 00
        <X 120 0
          /wVzb2x2ZQ==
        >
        E 0 90 3b 60
        E 600 80 3b 00
        <X 120 0
          /wV0aGFu
        >
        E 0 90 39 60
        E 60 80 39 00
        <X 180 0
          /wVoYXZl
        >
        E 0 90 39 60
        E 270 80 39 00
        <X 210 0
          /wV5b3U=
        >
        E 0 90 39 60
        E 150 80 39 00
        <X 90 0
          /wVpZy0=
        >
        E 0 90 37 60
        E 90 80 37 00
        <X 150 0
          /wVub3Jl
        >
        E 0 90 39 60
        E 30 80 39 00
        <X 30 0
          /wUr
        >
        E 0 90 3b 60
        E 270 80 3b 00
        <X 120 0
          /wVtZQ==
        >
        E 0 90 39 60
        E 510 80 39 00
        E 240 80 69 00
        E 1200 90 69 60
        <X 240 0
          /wVUaGU=
        >
        E 0 90 3b 60
        E 120 80 3b 00
        <X 120 0
          /wVncm91bmQ=
        >
        E 0 90 3e 60
        E 330 80 3e 00
        <X 150 0
          /wVtYXk=
        >
        E 0 90 3e 60
        E 180 80 3e 00
        <X 60 0
          /wViZQ==
        >
        E 0 90 3e 60
        E 120 80 3e 00
        <X 120 0
          /wVtb3Yt
        >
        E 0 90 40 60
        E 180 80 40 00
        <X 60 0
          /wUr
        >
        E 0 90 3e 60
        E 30 80 3e 00
        <X 210 0
          /wVpbmc=
        >
        E 0 90 3b 60
        E 330 80 3b 00
        <X 150 0
          /wVmYXN0
        >
        E 0 90 3b 60
        E 630 80 3b 00
        E 30 80 69 00
        E 30 90 69 60
        E 0 90 74 60
        <X 30 0
          /wVCdXQ=
        >
        E 0 90 3b 60
        E 150 80 3b 00
        <X 90 0
          /wVJ
        >
        E 0 90 3c 60
        E 120 80 3c 00
        <X 120 0
          /wV0aWVk
        >
        E 0 90 3b 60
        E 330 80 3b 00
        <X 150 0
          /wVteQ==
        >
        E 0 90 39 60
        E 300 80 39 00
        <X 180 0
          /wVib290cw==
        >
        E 0 90 39 60
        E 330 80 39 00
        <X 150 0
          /wV0bw==
        >
        E 0 90 39 60
        E 120 80 39 00
        <X 120 0
          /wVh
        >
        E 0 90 39 60
        E 60 80 39 00
        <X 180 0
          /wVicm8t
        >
        E 0 90 3b 60
        E 90 80 3b 00
        <X 120 0
          /wVrZW4=
        >
        E 0 90 39 60
        E 120 80 39 00
        <X 150 0
          /wVtYXN0
        >
        E 0 90 39 60
        E 1440 80 39 00
        <X 240 0
          /wFbaWRsZV0=
        >
        E 0 80 69 00
        E 0 80 74 00
        <X 7680 0
          /wFbbWVsbG93XQ==
        >
        E 0 90 69 60
        <X 240 0
          /wVUaGU=
        >
        E 0 90 2f 60
        E 90 80 2f 00
        <X 150 0
          /wVkaWYt
        >
        E 0 90 2f 60
        E 360 80 2f 00
        <X 120 0
          /wVmZXJlbmNl
        >
        E 0 90 2f 60
        E 120 80 2f 00
        <X 120 0
          /wVpcw==
        >
        E 0 90 2f 60
        E 120 80 2f 00
        <X 120 0
          /wVjbGVhcg==
        >
        E 0 90 39 60
        E 360 80 39 00
        <X 120 0
          /wUr
        >
        E 0 90 37 60
        E 600 80 37 00
        E 120 80 69 00
        E 960 90 69 60
        <X 240 0
          /wVZb3U=
        >
        E 0 90 37 60
        E 90 80 37 00
        <X 150 0
          /wV0aHJvdw==
        >
        E 0 90 39 60
        E 120 80 39 00
        <X 120 0
          /wVpdA==
        >
        E 0 90 39 60
        E 120 80 39 00
        <X 120 0
          /wVpbg==
        >
        E 0 90 39 60
        E 390 80 39 00
        <X 90 0
          /wV5b3Vy
        >
        E 0 90 39 60
        E 90 80 39 00
        <X 150 0
          /wVjYXVsLQ==
        >
        E 0 90 3b 60
        E 390 80 3b 00
        <X 90 0
          /wVkcm9u
        >
        E 0 90 39 60
        E 870 80 39 00
        E 90 80 69 00
        E 1200 90 69 60
        <X 240 0
          /wVSdXN0
        >
        E 0 90 2f 60
        E 360 80 2f 00
        <X 120 0
          /wVhbmQ=
        >
        E 0 90 2f 60
        E 90 80 2f 00
        <X 150 0
          /wV2ZS0=
        >
        E 0 90 2f 60
        E 90 80 2f 00
        <X 150 0
          /wVuZWVy
        >
        E 0 90 36 60
        E 360 80 36 00
        <X 120 0
          /wUr
        >
        E 0 90 37 60
        E 360 80 37 00
        E 120 90 01 60
        E 30 80 01 00
        <X 210 0
          /wVkdXNr
        >
        E 0 90 39 60
        E 360 80 39 00
        <X 120 0
          /wVhbmQ=
        >
        E 0 90 39 60
        E 150 80 39 00
        <X 90 0
          /wVkYXdu
        >
        E 0 90 3b 60
        E 600 80 3b 00
        E 30 80 69 00
        E 60 90 69 60
        <X 30 0
          /wVTdGVpbi0=
        >
        E 0 90 39 60
        E 390 80 39 00
        <X 90 0
          /wV3YXlz
        >
        E 0 90 39 60
        E 360 80 39 00
        <X 120 0
          /wVhbmQ=
        >
        E 0 90 37 60
        E 120 80 37 00
        <X 120 0
          /wVCYWxkLQ==
        >
        E 0 90 39 60
        E 30 80 39 00
        <X 30 0
          /wUr
        >
        E 0 90 3b 60
        E 300 80 3b 00
        <X 120 0
          /wV3aW5z
        >
        E 0 90 39 60
        E 1080 80 39 00
        E 120 80 69 00
        E 720 90 69 60
        E 0 90 74 60
        <X 240 0
          /wVZb3U=
        >
        E 0 90 3b 60
        E 90 80 3b 00
        <X 150 0
          /wVzdGFydA==
        >
        E 0 90 3e 60
        E 360 80 3e 00
        <X 120 0
          /wV3aXRo
        >
        E 0 90 3e 60
        E 120 80 3e 00
        <X 120 0
          /wVh
        >
        E 0 90 3e 60
        E 90 80 3e 00
        <X 150 0
          /wVzaW0t
        >
        E 0 90 40 60
        E 330 80 40 00
        <X 150 0
          /wVwbGU=
        >
        E 0 90 3b 60
        E 330 80 3b 00
        <X 150 0
          /wVzdG9jaw==
        >
        E 0 90 3b 60
        E 540 80 3b 00
        <X 180 0
          /wVvZg==
        >
        E 0 90 3c 60
        E 120 80 3c 00
        <X 120 0
          /wVhbGw=
        >
        E 0 90 3b 60
        E 600 80 3b 00
        <X 120 0
          /wV0aGU=
        >
        E 0 90 39 60
        E 90 80 39 00
        <X 150 0
          /wV3YXN0ZQ==
        >
        E 0 90 39 60
        E 540 80 39 00
        E 180 90 01 60
        E 30 80 01 00
        <X 210 0
          /wVhbmQ=
        >
        E 0 90 39 60
        E 60 80 39 00
        <X 180 0
          /wVzYWx0
        >
        E 0 90 3b 60
        E 330 80 3b 00
        <X 150 0
          /wV0bw==
        >
        E 0 90 39 60
        E 90 80 39 00
        <X 150 0
          /wV0YXN0ZQ==
        >
        E 0 90 39 60
        E 1170 80 39 00
        E 30 80 69 00
        E 0 80 74 00
        <X 240 0
          /wFbaWRsZV0=
        >
        <X 6720 0
          /wFbcGxheV0=
        >
        E 240 90 69 60
        <X 240 0
          /wVCdXQ=
        >
        E 0 90 3c 60
        E 90 80 3c 00
        <X 150 0
          /wVkYW1u
        >
        E 0 90 43 60
        E 300 80 43 00
        <X 180 0
          /wVteQ==
        >
        E 0 90 43 60
        E 210 80 43 00
        <X 270 0
          /wVsdWNr
        >
        E 0 90 40 60
        E 240 80 40 00
        <X 240 0
          /wVhbmQ=
        >
        E 0 90 3e 60
        E 60 80 3e 00
        <X 180 0
          /wVkYW1u
        >
        E 0 90 43 60
        E 270 80 43 00
        <X 210 0
          /wV0aGVzZQ==
        >
        E 0 90 43 60
        E 300 80 43 00
        <X 180 0
          /wVmcmllbmRz
        >
        E 0 90 40 60
        E 150 80 40 00
        <X 90 0
          /wUr
        >
        E 0 90 3e 60
        E 150 80 3e 00
        E 90 80 69 00
        E 240 90 69 60
        <X 240 0
          /wVUaGF0
        >
        E 0 90 3e 60
        E 90 80 3e 00
        <X 150 0
          /wVrZWVw
        >
        E 0 90 40 60
        E 90 80 40 00
        <X 150 0
          /wVvbg==
        >
        E 0 90 39 60
        E 480 80 39 00
        <X 240 0
          /wVjb21iLQ==
        >
        E 0 90 39 60
        E 360 80 39 00
        <X 120 0
          /wVpbmc=
        >
        E 0 90 3c 60
        E 150 80 3c 00
        <X 90 0
          /wViYWNr
        >
        E 0 90 3c 60
        E 330 80 3c 00
        <X 150 0
          /wV0aGVpcg==
        >
        E 0 90 3e 60
        E 240 80 3e 00
        <X 240 0
          /wVzbWlsZXM=
        >
        E 0 90 40 60
        E 270 80 40 00
        E 210 80 69 00
        E 240 90 69 60
        E 0 90 74 60
        <X 240 0
          /wVJ
        >
        E 0 90 3c 60
        E 90 80 3c 00
        <X 150 0
          /wVzYXZl
        >
        E 0 90 43 60
        E 300 80 43 00
        <X 180 0
          /wVteQ==
        >
        E 0 90 43 60
        E 240 80 43 00
        <X 240 0
          /wVncmFjZQ==
        >
        E 0 90 40 60
        E 120 80 40 00
        <X 120 0
          /wUr
        >
        E 0 90 3e 60
        E 120 80 3e 00
        <X 120 0
          /wV3aXRo
        >
        E 0 90 3e 60
        E 90 80 3e 00
        <X 150 0
          /wVoYWxmPQ==
        >
        E 0 90 43 60
        E 270 80 43 00
        <X 210 0
          /wVhc3NlZA==
        >
        E 0 90 43 60
        E 300 80 43 00
        <X 180 0
          /wVndWlsdA==
        >
        E 0 90 40 60
        E 90 80 40 00
        <X 150 0
          /wUr
        >
        E 0 90 3e 60
        E 150 80 3e 00
        E 90 80 69 00
        E 0 80 74 00
        E 240 90 69 60
        <X 240 0
          /wVBbmQ=
        >
        E 0 90 3e 60
        E 120 80 3e 00
        <X 120 0
          /wVsYXkj
        >
        E 0 90 40 60
        E 150 80 40 00
        <X 90 0
          /wVkb3duIw==
        >
        E 0 90 3c 60
        E 390 80 3c 00
        <X 90 0
          /wV0aGU=
        >
        E 0 90 3b 60
        E 60 80 3b 00
        <X 180 0
          /wVxdWlsdA==
        >
        E 0 90 3c 60
        E 360 80 3c 00
        <X 120 0
          /wV1cC0=
        >
        E 0 90 3b 60
        E 150 80 3b 00
        <X 90 0
          /wVvbg==
        >
        E 0 90 3c 60
        E 330 80 3c 00
        <X 150 0
          /wV0aGU=
        >
        E 0 90 3b 60
        E 120 80 3b 00
        <X 120 0
          /wVsYXdu
        >
        E 0 90 3e 60
        E 630 80 3e 00
        <X 90 0
          /wUr
        >
        E 0 90 40 60
        E 150 80 40 00
        E 90 80 69 00
        E 240 90 69 60
        <X 240 0
          /wVTcHJlYWQ=
        >
        E 0 90 43 60
        E 330 80 43 00
        <X 120 0
          /wVteQ==
        >
        E 0 90 43 60
        E 300 80 43 00
        <X 210 0
          /wVhcm1z
        >
        E 0 90 3e 60
        E 330 80 3e 00
        <X 150 0
          /wVhbmQ=
        >
        E 0 90 3e 60
        E 90 80 3e 00
        <X 150 0
          /wVzb2FrIw==
        >
        E 0 90 43 60
        E 390 80 43 00
        <X 90 0
          /wV1cA==
        >
        E 0 90 3c 60
        E 150 80 3c 00
        E 90 90 01 60
        E 30 80 01 00
        <X 210 0
          /wVjb24t
        >
        E 0 90 3c 60
        E 150 80 3c 00
        <X 90 0
          /wVncmF0LQ==
        >
        E 0 90 3c 60
        E 330 80 3c 00
        <X 150 0
          /wV1LQ==
        >
        E 0 90 3c 60
        E 150 80 3c 00
        <X 90 0
          /wVsYS0=
        >
        E 0 90 45 60
        E 90 80 45 00
        <X 150 0
          /wUr
        >
        E 0 90 43 60
        E 90 80 43 00
        <X 150 0
          /wV0aW9ucw==
        >
        E 0 90 43 60
        E 1530 80 43 00
        <X 150 0
          /wFbdGFtYm91cmluZV9zdGFydF0=
        >
        E 0 80 69 00
        E 720 90 69 60
        E 240 90 60 60
        E 120 80 60 00
        E 1800 90 60 60
        E 120 80 60 00
        E 1800 90 60 60
        E 120 80 60 00
        E 120 80 69 00
        E 1440 90 69 60
        E 240 90 60 60
        E 120 80 60 00
        E 1800 90 60 60
        E 120 80 60 00
        E 1800 90 60 60
        E 120 80 60 00
        E 120 80 69 00
        E 1440 90 69 60
        E 240 90 60 60
        E 120 80 60 00
        E 1800 90 60 60
        E 120 80 60 00
        E 1800 90 60 60
        E 120 80 60 00
        E 120 80 69 00
        E 1440 90 69 60
        E 240 90 60 60
        E 120 80 60 00
        E 1800 90 60 60
        E 120 80 60 00
        E 1800 90 60 60
        E 120 80 60 00
        E 120 80 69 00
        E 1440 90 69 60
        E 240 90 60 60
        E 120 80 60 00
        E 1800 90 60 60
        E 120 80 60 00
        E 1800 90 60 60
        E 120 80 60 00
        <X 1799 0
          /wFbaWRsZV9yZWFsdGltZV0=
        >
        <X 0 0
          /wFbdGFtYm91cmluZV9lbmRd
        >
        E 0 80 69 00
        E 8641 b0 7b 00
        GUID {CEFD327E-3C72-4795-ABE8-F69F2688135E}
        IGNTEMPO 0 120.00000000 4 4
        SRCCOLOR 44
        VELLANE 132 128 60
        COLORMAP "C:\Program Files\REAPER (x64)\Data\color_maps\rockband_guitarbass.png"
        CFGEDITVIEW -11808.000000 5.317725 12 12 0 0 0
        CFGEDIT 1 1 0 1 1 0 1 1 1 1 1 0.06250000 53 44 1253 718 0 2 1 1 0.00000000 0 1 1 0 0.500000 0 0 1.000000 64
        KEYSNAP 0 7 "102030050700" 0 "Pentatonic"
        EVTFILTER 0 -1 -1 -1 -1 0 1 0 0 -1.00000000 -1.00000000
      >
    >
  >
  <TRACK '{E34E4EC4-EA34-4E0D-9FAB-1973C71161FB}'
    NAME "PART KEYS"
    PEAKCOL 16576
    BEAT -1
    AUTOMODE 0
    VOLPAN 1.00000000000000 0.00000000000000 -1.00000000000000 -1.00000000000000 1.00000000000000
    MUTESOLO 0 0 0
    IPHASE 0
    ISBUS 1 1
    BUSCOMP 0 0
    SHOWINMIX 1 0.666700 0.500000 1 0.500000 -1 -1 -1
    FREEMODE 0
    SEL 0
    REC 0 0 0 0 0 0 0
    VU 2
    TRACKHEIGHT 0 0
    INQ 0 0 0 0.5000000000 100 0 0 100
    NCHAN 2
    FX 1
    TRACKID {E34E4EC4-EA34-4E0D-9FAB-1973C71161FB}
    PERF 0
    MIDIOUT -1
    <MIDINOTENAMES
      0 127 "TRILL MARKER"
      0 125 "---"
      0 124 "BRE"
      0 123 "BRE"
      0 122 "BRE"
      0 121 "BRE"
      0 120 "BRE (use all 5)"
      0 119 "----"
      0 116 "OVERDRIVE"
      0 115 "----"
      0 103 "Solo Marker"
      0 102 "Force HOPO Off"
      0 101 "Force HOPO On"
      0 100 "EXPERT Orange"
      0 99 "EXPERT Blue"
      0 98 "EXPERT Yellow"
      0 97 "EXPERT Red"
      0 96 "EXPERT Green"
      0 95 "----"
      0 90 "Force HOPO Off"
      0 89 "Force HOPO On"
      0 88 "HARD Orange"
      0 87 "HARD Blue"
      0 86 "HARD Yellow"
      0 85 "HARD Red"
      0 84 "HARD Green"
      0 77 "----"
      0 76 "MEDIUM Orange"
      0 75 "MEDIUM Blue"
      0 74 "MEDIUM Yellow"
      0 73 "MEDIUM Red"
      0 72 "MEDIUM Green"
      0 65 "----"
      0 64 "EASY Orange"
      0 63 "EASY Blue"
      0 62 "EASY Yellow"
      0 61 "EASY Red"
      0 60 "EASY Green"
    >
    MAINSEND 1 0
    <FXCHAIN
      WNDRECT 0 43 891 559
      SHOW 0
      LASTSEL 0
      DOCKED 0
      BYPASS 0 0
      <VST "VSTi: RBN Preview (RBN)" "rbprev_vst64.dll" 0 ""
        dnBicu5e7f4AAAAAAgAAAAEAAAAAAAAAAgAAAAAAAAAEAAAAAQAAAA==
        AAAQAAMAqgAAABAAAAA=
      >
      FLOATPOS 0 0 0 0
      FXID {485C94A6-B312-435B-BA82-0B65545105EF}
      WAK 0
    >
    <ITEM
      POSITION 0.00000000000000
      SNAPOFFS 0.00000000000000
      LENGTH 236.43058956916099
      LOOP 0
      ALLTAKES 0
      SEL 0
      FADEIN 1 0.000000 0.000000 1 0
      FADEOUT 1 0.000000 0.000000 1 0
      MUTE 0
      IGUID {A9D86058-BDEC-4FEE-8556-D478EF3F89DF}
      IID 5
      NAME "PART KEYS"
      VOLPAN 1.000000 0.000000 1.000000 -1.000000
      SOFFS 0.00000000000000 0.00000000000000
      PLAYRATE 1.00000000000000 1 0.00000000000000 -1
      CHANMODE 0
      GUID {C9CC782E-2FBA-472C-9C87-15404DD79A4F}
      <SOURCE MIDI
        HASDATA 1 480 QN
        POOLEDEVTS {A5A7B76C-31DC-45A5-AD46-BE00BFB610C6}
        <X 0 0
          /wNQQVJUIEtFWVM=
        >
        <X 3840 0
          /wFbcGxheV0=
        >
        E 0 90 3e 60
        E 0 90 4b 60
        E 0 90 57 60
        E 0 90 63 60
        E 0 90 67 60
        E 120 80 3e 00
        E 0 80 4b 00
        E 0 80 57 00
        E 0 80 63 00
        E 2760 90 3e 60
        E 0 90 4b 60
        E 0 90 58 60
        E 0 90 64 60
        E 120 80 3e 00
        E 0 80 4b 00
        E 0 80 58 00
        E 0 80 64 00
        E 840 90 3c 60
        E 0 90 48 60
        E 0 90 54 60
        E 0 90 60 60
        E 120 80 3c 00
        E 0 80 48 00
        E 0 80 54 00
        E 0 80 60 00
        E 1800 90 74 60
        E 240 90 3e 60
        E 0 90 4b 60
        E 0 90 58 60
        E 0 90 64 60
        E 120 80 3e 00
        E 0 80 4b 00
        E 0 80 58 00
        E 0 80 64 00
        E 200 90 64 60
        E 80 80 64 00
        E 80 90 4b 60
        E 0 90 57 60
        E 0 90 63 60
        E 0 90 65 60
        E 80 80 4b 00
        E 0 80 57 00
        E 0 80 63 00
        E 0 90 62 60
        E 80 80 62 00
        E 0 90 61 60
        E 80 80 61 00
        E 0 90 3e 60
        E 0 90 4b 60
        E 0 90 58 60
        E 0 90 64 60
        E 120 80 3e 00
        E 0 80 4b 00
        E 0 80 58 00
        E 0 80 64 00
        E 0 90 63 60
        E 120 80 63 00
        E 0 90 56 60
        E 0 90 62 60
        E 120 80 65 00
        E 0 80 56 00
        E 0 80 62 00
        E 360 90 49 60
        E 0 90 55 60
        E 0 90 60 60
        E 120 80 49 00
        E 0 80 55 00
        E 0 80 60 00
        E 0 90 61 60
        E 0 90 65 60
        E 120 80 74 00
        E 0 80 61 00
        E 0 80 65 00
        E 120 90 56 60
        E 0 90 62 60
        E 120 80 56 00
        E 0 80 62 00
        E 3240 90 60 60
        E 120 80 60 00
        E 0 90 55 60
        E 0 90 61 60
        E 0 90 65 60
        E 80 80 55 00
        E 0 80 61 00
        E 0 90 62 60
        E 80 80 62 00
        E 0 90 61 60
        E 80 80 61 00
        E 0 90 3e 60
        E 0 90 4b 60
        E 0 90 57 60
        E 0 90 63 60
        E 120 80 65 00
        E 0 80 3e 00
        E 0 80 4b 00
        E 0 80 57 00
        E 0 80 63 00
        E 1320 90 3e 60
        E 0 90 4b 60
        E 0 90 58 60
        E 0 90 64 60
        E 120 80 3e 00
        E 0 80 4b 00
        E 0 80 58 00
        E 0 80 64 00
        E 360 90 3e 60
        E 0 90 4b 60
        E 0 90 57 60
        E 0 90 63 60
        E 120 80 3e 00
        E 0 80 4b 00
        E 0 80 57 00
        E 0 80 63 00
        E 1080 90 4b 60
        E 0 90 58 60
        E 0 90 64 60
        E 120 80 4b 00
        E 0 80 58 00
        E 0 80 64 00
        E 200 90 64 60
        E 80 80 64 00
        E 80 90 57 60
        E 0 90 63 60
        E 0 90 65 60
        E 80 80 57 00
        E 0 80 63 00
        E 0 90 62 60
        E 80 80 62 00
        E 0 90 61 60
        E 80 80 61 00
        E 0 90 3c 60
        E 0 90 48 60
        E 0 90 54 60
        E 0 90 60 60
        E 80 80 65 00
        E 0 80 3c 00
        E 0 80 48 00
        E 0 80 54 00
        E 0 80 60 00
        <X 880 0
          /wFbaWRsZV0=
        >
        E 0 80 67 00
        <X 60480 0
          /wFbcGxheV0=
        >
        E 0 90 3d 60
        E 0 90 4a 60
        E 0 90 56 60
        E 0 90 62 60
        E 120 80 3d 00
        E 0 80 4a 00
        E 0 80 56 00
        E 0 80 62 00
        <X 240 0
          /wFbaWRsZV0=
        >
        <X 7320 0
          /wFbcGxheV0=
        >
        E 0 90 3d 60
        E 0 90 4a 60
        E 0 90 56 60
        E 0 90 62 60
        E 0 90 74 60
        E 120 80 3d 00
        E 0 80 4a 00
        E 0 80 56 00
        E 0 80 62 00
        <X 360 0
          /wFbaWRsZV0=
        >
        <X 3360 0
          /wFbcGxheV0=
        >
        E 0 90 3e 60
        E 0 90 4b 60
        E 0 90 58 60
        E 0 90 64 60
        E 120 80 74 00
        E 0 80 3e 00
        E 0 80 4b 00
        E 0 80 58 00
        E 0 80 64 00
        <X 240 0
          /wFbaWRsZV0=
        >
        <X 7320 0
          /wFbcGxheV0=
        >
        E 0 90 3d 60
        E 0 90 4a 60
        E 0 90 56 60
        E 0 90 62 60
        E 120 80 3d 00
        E 0 80 4a 00
        E 0 80 56 00
        E 0 80 62 00
        <X 240 0
          /wFbaWRsZV0=
        >
        <X 76440 0
          /wFbcGxheV0=
        >
        E 0 90 3d 60
        E 0 90 4a 60
        E 0 90 56 60
        E 0 90 62 60
        E 120 80 3d 00
        E 0 80 4a 00
        E 0 80 56 00
        E 0 80 62 00
        <X 240 0
          /wFbaWRsZV0=
        >
        <X 6360 0
          /wFbcGxheV0=
        >
        E 0 90 3e 60
        E 0 90 4b 60
        E 0 90 58 60
        E 0 90 64 60
        E 0 90 74 60
        E 120 80 3e 00
        E 0 80 4b 00
        E 0 80 58 00
        E 0 80 64 00
        E 120 90 4b 60
        E 0 90 57 60
        E 0 90 63 60
        E 120 80 4b 00
        E 0 80 57 00
        E 0 80 63 00
        E 600 90 3d 60
        E 0 90 4a 60
        E 0 90 56 60
        E 0 90 62 60
        E 120 80 3d 00
        E 0 80 4a 00
        E 0 80 56 00
        E 0 80 62 00
        <X 120 0
          /wFbaWRsZV0=
        >
        E 240 80 74 00
        <X 3360 0
          /wFbcGxheV0=
        >
        E 0 90 3e 60
        E 0 90 4b 60
        E 0 90 57 60
        E 0 90 63 60
        E 120 80 3e 00
        E 0 80 4b 00
        E 0 80 57 00
        E 0 80 63 00
        <X 240 0
          /wFbaWRsZV0=
        >
        <X 6360 0
          /wFbcGxheV0=
        >
        E 0 90 67 60
        E 480 90 48 60
        E 0 90 54 60
        E 0 90 60 60
        E 120 80 48 00
        E 0 80 54 00
        E 0 80 60 00
        E 0 90 61 60
        E 0 90 65 60
        E 120 80 61 00
        E 0 90 56 60
        E 0 90 62 60
        E 120 80 56 00
        E 0 80 62 00
        E 0 90 63 60
        E 120 80 63 00
        E 0 90 3e 60
        E 0 90 4b 60
        E 0 90 58 60
        E 0 90 64 60
        E 120 80 65 00
        E 0 80 3e 00
        E 0 80 4b 00
        E 0 80 58 00
        E 0 80 64 00
        E 840 90 3e 60
        E 0 90 4b 60
        E 0 90 57 60
        E 0 90 63 60
        E 0 90 74 60
        E 120 80 3e 00
        E 0 80 4b 00
        E 0 80 57 00
        E 0 80 63 00
        E 120 90 58 60
        E 0 90 64 60
        E 120 80 58 00
        E 0 80 64 00
        E 120 90 4a 60
        E 0 90 56 60
        E 0 90 62 60
        E 120 80 4a 00
        E 0 80 56 00
        E 0 80 62 00
        E 120 90 57 60
        E 0 90 63 60
        E 120 80 57 00
        E 0 80 63 00
        E 360 90 54 60
        E 0 90 60 60
        E 120 80 54 00
        E 0 80 60 00
        E 120 90 3c 60
        E 0 90 49 60
        E 0 90 55 60
        E 0 90 61 60
        E 120 80 3c 00
        E 0 80 49 00
        E 0 80 55 00
        E 0 80 61 00
        E 120 90 56 60
        E 0 90 62 60
        E 120 80 56 00
        E 0 80 62 00
        E 360 90 55 60
        E 0 90 61 60
        E 120 80 55 00
        E 0 80 61 00
        E 120 90 4a 60
        E 0 90 56 60
        E 0 90 62 60
        E 120 80 4a 00
        E 0 80 56 00
        E 0 80 62 00
        E 360 90 3e 60
        E 0 90 4b 60
        E 0 90 57 60
        E 0 90 63 60
        E 120 80 74 00
        E 0 80 3e 00
        E 0 80 4b 00
        E 0 80 57 00
        E 0 80 63 00
        E 1560 90 55 60
        E 0 90 61 60
        E 80 80 55 00
        E 0 80 61 00
        E 0 90 62 60
        E 0 90 65 60
        E 80 80 62 00
        E 0 90 63 60
        E 80 80 63 00
        E 0 90 3e 60
        E 0 90 4b 60
        E 0 90 58 60
        E 0 90 64 60
        E 120 80 65 00
        E 0 80 3e 00
        E 0 80 4b 00
        E 0 80 58 00
        E 0 80 64 00
        E 120 90 57 60
        E 0 90 63 60
        E 120 80 57 00
        E 0 80 63 00
        E 120 90 4a 60
        E 0 90 56 60
        E 0 90 62 60
        E 120 80 4a 00
        E 0 80 56 00
        E 0 80 62 00
        E 120 90 55 60
        E 0 90 61 60
        E 120 80 55 00
        E 0 80 61 00
        E 120 90 3c 60
        E 0 90 48 60
        E 0 90 54 60
        E 0 90 60 60
        E 120 80 3c 00
        E 0 80 48 00
        E 0 80 54 00
        E 0 80 60 00
        E 120 90 55 60
        E 0 90 61 60
        E 120 80 55 00
        E 0 80 61 00
        E 120 90 4a 60
        E 0 90 56 60
        E 0 90 62 60
        E 120 80 4a 00
        E 0 80 56 00
        E 0 80 62 00
        E 120 90 54 60
        E 0 90 60 60
        E 120 80 54 00
        E 0 80 60 00
        E 120 90 3c 60
        E 0 90 49 60
        E 0 90 55 60
        E 0 90 61 60
        E 120 80 3c 00
        E 0 80 49 00
        E 0 80 55 00
        E 0 80 61 00
        E 1320 90 3c 60
        E 0 90 48 60
        E 0 90 54 60
        E 0 90 60 60
        E 80 80 3c 00
        E 0 80 48 00
        E 0 80 54 00
        E 0 80 60 00
        E 0 90 61 60
        E 0 90 65 60
        E 80 80 61 00
        E 0 90 62 60
        E 80 80 62 00
        E 0 90 57 60
        E 0 90 63 60
        E 80 80 57 00
        E 0 80 63 00
        E 0 90 64 60
        E 80 80 65 00
        E 0 80 64 00
        E 800 90 3d 60
        E 0 90 4a 60
        E 0 90 56 60
        E 0 90 62 60
        E 120 80 3d 00
        E 0 80 4a 00
        E 0 80 56 00
        E 0 80 62 00
        E 360 90 4b 60
        E 0 90 57 60
        E 0 90 63 60
        E 120 80 4b 00
        E 0 80 57 00
        E 0 80 63 00
        E 280 90 60 60
        E 80 80 60 00
        E 0 90 55 60
        E 0 90 61 60
        E 0 90 65 60
        E 80 80 55 00
        E 0 80 61 00
        E 0 90 62 60
        E 80 80 62 00
        E 0 90 63 60
        E 80 80 63 00
        E 0 90 3e 60
        E 0 90 4b 60
        E 0 90 58 60
        E 0 90 64 60
        E 120 80 65 00
        E 0 80 3e 00
        E 0 80 4b 00
        E 0 80 58 00
        E 0 80 64 00
        E 240 90 57 60
        E 0 90 63 60
        E 120 80 57 00
        E 0 80 63 00
        E 240 90 4a 60
        E 0 90 56 60
        E 0 90 62 60
        E 120 80 4a 00
        E 0 80 56 00
        E 0 80 62 00
        E 360 90 3c 60
        E 0 90 49 60
        E 0 90 55 60
        E 0 90 61 60
        E 120 80 3c 00
        E 0 80 49 00
        E 0 80 55 00
        E 0 80 61 00
        E 360 90 48 60
        E 0 90 54 60
        E 0 90 60 60
        E 120 80 48 00
        E 0 80 54 00
        E 0 80 60 00
        E 280 90 54 60
        E 0 90 60 60
        E 80 80 54 00
        E 0 80 60 00
        E 80 90 61 60
        E 80 80 61 00
        E 80 90 3d 60
        E 0 90 4a 60
        E 0 90 56 60
        E 0 90 62 60
        E 80 80 3d 00
        E 0 80 4a 00
        E 0 80 56 00
        E 0 80 62 00
        E 80 90 60 60
        E 80 80 60 00
        E 0 90 55 60
        E 0 90 61 60
        E 0 90 65 60
        E 80 80 55 00
        E 0 80 61 00
        E 0 90 62 60
        E 80 80 62 00
        E 0 90 63 60
        E 80 80 63 00
        E 0 90 3d 60
        E 0 90 4a 60
        E 0 90 56 60
        E 0 90 62 60
        E 80 80 3d 00
        E 0 80 4a 00
        E 0 80 56 00
        E 0 80 62 00
        E 0 90 63 60
        E 80 80 63 00
        E 0 90 64 60
        E 80 80 64 00
        E 0 90 57 60
        E 0 90 63 60
        E 80 80 57 00
        E 0 80 63 00
        E 0 90 64 60
        E 80 80 64 00
        E 0 90 63 60
        E 80 80 63 00
        E 0 90 3d 60
        E 0 90 4a 60
        E 0 90 56 60
        E 0 90 62 60
        E 80 80 3d 00
        E 0 80 4a 00
        E 0 80 56 00
        E 0 80 62 00
        E 0 90 63 60
        E 80 80 63 00
        E 0 90 62 60
        E 80 80 62 00
        E 0 90 57 60
        E 0 90 63 60
        E 80 80 57 00
        E 0 80 63 00
        E 0 90 64 60
        E 80 80 65 00
        E 0 80 64 00
        E 740 90 3e 60
        E 0 90 4b 60
        E 0 90 58 60
        E 0 90 64 60
        E 60 80 3e 00
        E 0 80 4b 00
        E 0 80 58 00
        E 0 80 64 00
        E 180 90 57 60
        E 0 90 63 60
        E 60 80 57 00
        E 0 80 63 00
        E 240 90 55 60
        E 0 90 61 60
        E 120 80 55 00
        E 0 80 61 00
        E 120 90 48 60
        E 0 90 54 60
        E 0 90 60 60
        E 120 80 48 00
        E 0 80 54 00
        E 0 80 60 00
        E 120 90 56 60
        E 0 90 62 60
        E 120 80 56 00
        E 0 80 62 00
        E 120 90 3c 60
        E 0 90 49 60
        E 0 90 55 60
        E 0 90 61 60
        E 120 80 3c 00
        E 0 80 49 00
        E 0 80 55 00
        E 0 80 61 00
        E 120 90 57 60
        E 0 90 63 60
        E 120 80 57 00
        E 0 80 63 00
        E 120 90 4a 60
        E 0 90 56 60
        E 0 90 62 60
        E 120 80 4a 00
        E 0 80 56 00
        E 0 80 62 00
        E 40 90 62 60
        E 80 80 62 00
        E 0 90 57 60
        E 0 90 63 60
        E 0 90 65 60
        E 80 80 57 00
        E 0 80 63 00
        E 0 90 64 60
        E 80 80 64 00
        E 0 90 63 60
        E 80 80 63 00
        E 0 90 3d 60
        E 0 90 4a 60
        E 0 90 56 60
        E 0 90 62 60
        E 80 80 65 00
        E 0 80 3d 00
        E 0 80 4a 00
        E 0 80 56 00
        E 0 80 62 00
        E 160 90 55 60
        E 0 90 61 60
        E 120 80 55 00
        E 0 80 61 00
        E 120 90 4a 60
        E 0 90 56 60
        E 0 90 62 60
        E 120 80 4a 00
        E 0 80 56 00
        E 0 80 62 00
        E 120 90 54 60
        E 0 90 60 60
        E 120 80 54 00
        E 0 80 60 00
        E 120 90 3c 60
        E 0 90 49 60
        E 0 90 55 60
        E 0 90 61 60
        E 120 80 3c 00
        E 0 80 49 00
        E 0 80 55 00
        E 0 80 61 00
        E 360 90 3c 60
        E 0 90 48 60
        E 0 90 54 60
        E 0 90 60 60
        E 120 80 3c 00
        E 0 80 48 00
        E 0 80 54 00
        E 0 80 60 00
        E 1080 90 54 60
        E 0 90 60 60
        E 80 80 54 00
        E 0 80 60 00
        E 0 90 61 60
        E 0 90 65 60
        E 80 80 61 00
        E 0 90 62 60
        E 80 80 62 00
        E 0 90 3e 60
        E 0 90 4b 60
        E 0 90 57 60
        E 0 90 63 60
        E 80 80 3e 00
        E 0 80 4b 00
        E 0 80 57 00
        E 0 80 63 00
        E 0 90 61 60
        E 80 80 61 00
        E 0 90 62 60
        E 80 80 62 00
        E 0 90 57 60
        E 0 90 63 60
        E 80 80 57 00
        E 0 80 63 00
        E 0 90 64 60
        E 80 80 64 00
        E 0 90 60 60
        E 80 80 60 00
        E 0 90 49 60
        E 0 90 55 60
        E 0 90 61 60
        E 80 80 49 00
        E 0 80 55 00
        E 0 80 61 00
        E 0 90 62 60
        E 80 80 62 00
        E 0 90 63 60
        E 80 80 63 00
        E 0 90 56 60
        E 0 90 62 60
        E 80 80 56 00
        E 0 80 62 00
        E 0 90 63 60
        E 80 80 63 00
        E 0 90 64 60
        E 80 80 64 00
        E 0 90 3c 60
        E 0 90 49 60
        E 0 90 55 60
        E 0 90 61 60
        E 80 80 3c 00
        E 0 80 49 00
        E 0 80 55 00
        E 0 80 61 00
        E 0 90 62 60
        E 80 80 62 00
        E 0 90 63 60
        E 80 80 63 00
        E 0 90 54 60
        E 0 90 60 60
        E 80 80 54 00
        E 0 80 60 00
        E 0 90 61 60
        E 80 80 61 00
        E 0 90 60 60
        E 80 80 60 00
        E 0 90 49 60
        E 0 90 55 60
        E 0 90 61 60
        E 80 80 49 00
        E 0 80 55 00
        E 0 80 61 00
        E 0 90 62 60
        E 80 80 62 00
        E 0 90 63 60
        E 80 80 63 00
        E 0 90 58 60
        E 0 90 64 60
        E 80 80 65 00
        E 0 80 58 00
        E 0 80 64 00
        E 160 90 3d 60
        E 0 90 4a 60
        E 0 90 56 60
        E 0 90 62 60
        E 80 80 3d 00
        E 0 80 4a 00
        E 0 80 56 00
        E 0 80 62 00
        E 1120 90 56 60
        E 0 90 62 60
        E 80 80 56 00
        E 0 80 62 00
        E 160 90 4b 60
        E 0 90 58 60
        E 0 90 64 60
        E 80 80 4b 00
        E 0 80 58 00
        E 0 80 64 00
        E 160 90 56 60
        E 0 90 62 60
        E 80 80 56 00
        E 0 80 62 00
        E 160 90 3c 60
        E 0 90 49 60
        E 0 90 55 60
        E 0 90 61 60
        E 80 80 3c 00
        E 0 80 49 00
        E 0 80 55 00
        E 0 80 61 00
        E 160 90 56 60
        E 0 90 62 60
        E 80 80 56 00
        E 0 80 62 00
        E 160 90 48 60
        E 0 90 54 60
        E 0 90 60 60
        E 80 80 48 00
        E 0 80 54 00
        E 0 80 60 00
        E 160 90 55 60
        E 0 90 61 60
        E 80 80 55 00
        E 0 80 61 00
        E 160 90 3d 60
        E 0 90 4a 60
        E 0 90 56 60
        E 0 90 62 60
        E 80 80 3d 00
        E 0 80 4a 00
        E 0 80 56 00
        E 0 80 62 00
        E 160 90 57 60
        E 0 90 63 60
        E 80 80 57 00
        E 0 80 63 00
        E 160 90 48 60
        E 0 90 54 60
        E 0 90 60 60
        E 80 80 48 00
        E 0 80 54 00
        E 0 80 60 00
        E 160 90 56 60
        E 0 90 62 60
        E 80 80 56 00
        E 0 80 62 00
        E 0 90 61 60
        E 0 90 65 60
        E 80 80 61 00
        E 0 90 60 60
        E 80 80 60 00
        E 0 90 3c 60
        E 0 90 49 60
        E 0 90 55 60
        E 0 90 61 60
        E 80 80 65 00
        E 0 80 3c 00
        E 0 80 49 00
        E 0 80 55 00
        E 0 80 61 00
        E 2080 90 54 60
        E 0 90 60 60
        E 80 80 54 00
        E 0 80 60 00
        E 0 90 61 60
        E 0 90 65 60
        E 80 80 61 00
        E 0 90 62 60
        E 80 80 62 00
        E 0 90 4b 60
        E 0 90 57 60
        E 0 90 63 60
        E 80 80 4b 00
        E 0 80 57 00
        E 0 80 63 00
        E 0 90 60 60
        E 80 80 60 00
        E 0 90 61 60
        E 80 80 61 00
        E 0 90 56 60
        E 0 90 62 60
        E 80 80 56 00
        E 0 80 62 00
        E 0 90 63 60
        E 80 80 63 00
        E 0 90 64 60
        E 80 80 64 00
        E 0 90 3c 60
        E 0 90 49 60
        E 0 90 55 60
        E 0 90 61 60
        E 80 80 3c 00
        E 0 80 49 00
        E 0 80 55 00
        E 0 80 61 00
        E 0 90 62 60
        E 80 80 62 00
        E 0 90 63 60
        E 80 80 63 00
        E 0 90 58 60
        E 0 90 64 60
        E 80 80 58 00
        E 0 80 64 00
        E 0 90 62 60
        E 80 80 62 00
        E 0 90 63 60
        E 80 80 63 00
        E 0 90 4a 60
        E 0 90 56 60
        E 0 90 62 60
        E 80 80 4a 00
        E 0 80 56 00
        E 0 80 62 00
        E 0 90 61 60
        E 80 80 61 00
        E 0 90 62 60
        E 80 80 62 00
        E 0 90 55 60
        E 0 90 61 60
        E 80 80 55 00
        E 0 80 61 00
        E 0 90 62 60
        E 80 80 62 00
        E 0 90 63 60
        E 80 80 63 00
        E 0 90 3d 60
        E 0 90 4a 60
        E 0 90 56 60
        E 0 90 62 60
        E 80 80 65 00
        E 0 80 3d 00
        E 0 80 4a 00
        E 0 80 56 00
        E 0 80 62 00
        E 400 80 67 00
        <X 479 0
          /wFbaWRsZV9yZWFsdGltZV0=
        >
        E 8641 b0 7b 00
        GUID {4A7A1C7A-C11F-498F-BE1B-2A18BC5A2E7B}
        IGNTEMPO 0 120.00000000 4 4
        SRCCOLOR 45
        VELLANE 132 128 60
        COLORMAP "C:\Program Files\REAPER (x64)\Data\color_maps\rockband_guitarbass.png"
        CFGEDITVIEW -12864.530280 5.523216 0 14 0 0 0
        CFGEDIT 1 1 0 1 1 0 1 1 1 1 1 0.12500000 53 44 1253 718 0 2 1 1 0.00000000 0 1 1 0 0.500000 0 0 1.000000 64
        KEYSNAP 0 7 "102030050700" 0 "Pentatonic"
        EVTFILTER 0 -1 -1 -1 -1 0 1 0 0 -1.00000000 -1.00000000
      >
    >
  >
  <TRACK '{5BBC866D-5F01-4412-AA42-EFB483BBC7E2}'
    NAME "PART REAL_KEYS_X"
    PEAKCOL 16576
    BEAT -1
    AUTOMODE 0
    VOLPAN 1.00000000000000 0.00000000000000 -1.00000000000000 -1.00000000000000 1.00000000000000
    MUTESOLO 0 0 0
    IPHASE 0
    ISBUS 0 0
    BUSCOMP 0 0
    SHOWINMIX 1 0.666700 0.500000 1 0.500000 -1 -1 -1
    FREEMODE 0
    SEL 0
    REC 0 0 0 0 0 0 0
    VU 2
    TRACKHEIGHT 0 0
    INQ 0 0 0 0.5000000000 100 0 0 100
    NCHAN 2
    FX 0
    TRACKID {5BBC866D-5F01-4412-AA42-EFB483BBC7E2}
    PERF 0
    MIDIOUT -1
    <MIDINOTENAMES
      0 127 "TRILL MARKER"
      0 126 "GLISSANDO MARKER"
      0 125 "---"
      0 116 "OVERDRIVE"
      0 115 "SOLO"
      0 114 "---"
      0 72 "Highest playable note B#3"
      0 71 "B3"
      0 70 "A#3"
      0 69 "A3"
      0 68 "G#3"
      0 67 "G3"
      0 66 "F#3"
      0 65 "F3"
      0 64 "E3"
      0 63 "D#3"
      0 62 "D3"
      0 61 "C#3"
      0 60 "C3"
      0 59 "B2"
      0 58 "A#2"
      0 57 "A2"
      0 56 "G#2"
      0 55 "G2"
      0 54 "F#2"
      0 53 "F2"
      0 52 "E2"
      0 51 "D#2"
      0 50 "D2"
      0 49 "C#2"
      0 48 "Lowest playable note C2"
      0 10 "---"
      0 9 "Range A2-C4"
      0 8 "Range"
      0 7 "Range"
      0 6 "Range"
      0 5 "Range F2-A3"
      0 4 "Range"
      0 3 "Range"
      0 2 "Range"
      0 1 "Range"
      0 0 "Range C2-E3"
    >
    MAINSEND 1 0
    <FXCHAIN
      WNDRECT 0 43 695 467
      SHOW 0
      LASTSEL 2
      DOCKED 0
      BYPASS 0 0
      <JS "MIDI/midi_note_filter" ""
        48.000000 72.000000 - - - - - - - - - - - - - - - - - - - - - - - - - - - - - - - - - - - - - - - - - - - - - - - - - - - - - - - - - - - - - - 
      >
      FLOATPOS 0 0 0 0
      FXID {C418152E-1229-4CFE-B6F7-1254A486210C}
      WAK 0
      BYPASS 0 0
      <JS "MIDI/midi_transpose" ""
        12.000000 1.000000 0.000000 127.000000 - - - - - - - - - - - - - - - - - - - - - - - - - - - - - - - - - - - - - - - - - - - - - - - - - - - - - - - - - - - - 
      >
      FLOATPOS 0 0 0 0
      FXID {9FE476BB-22B0-409C-869B-8D713DFF3149}
      WAK 0
      BYPASS 0 0
      <VST "VSTi: ReaSynth (Cockos)" "reasynth.dll" 0 ""
        eXNlcu9e7f4AAAAAAgAAAAEAAAAAAAAAAgAAAAAAAAA4AAAAAAAAAA==
        AAAQAO++rd4N8K3eppvEO1GmKz4AAAAAAAAAAAAAgD8Gn+E/6WeIPQ==
        AAAAAAAAAD8AAIA/AACAPwAAAD8AABAAAAA=
      >
      FLOATPOS 0 0 0 0
      FXID {ED538544-13B4-4060-BB0E-85FE27FBAEB0}
      WAK 0
    >
    <ITEM
      POSITION 0.00000000000000
      SNAPOFFS 0.00000000000000
      LENGTH 236.43057157291659
      LOOP 0
      ALLTAKES 0
      SEL 0
      FADEIN 1 0.000000 0.000000 1 0
      FADEOUT 1 0.000000 0.000000 1 0
      MUTE 0
      IGUID {BEEDF96F-7F77-4907-983B-776D333C3953}
      IID 6
      NAME "PART REAL_KEYS_X"
      VOLPAN 1.000000 0.000000 1.000000 -1.000000
      SOFFS 0.00000000000000 0.00000000000000
      PLAYRATE 1.00000000000000 1 0.00000000000000 -1
      CHANMODE 0
      GUID {70536CC9-A27C-4CE4-AD35-120E402AB643}
      <SOURCE MIDI
        HASDATA 1 480 QN
        POOLEDEVTS {5F96D8EE-19C2-4AA3-B103-4BA31163E1BB}
        <X 0 0
          /wNQQVJUIFJFQUxfS0VZU19Y
        >
        E 0 90 00 60
        E 120 80 00 00
        <X 3720 0
          /wFbYmVnaW5fa2V5IHNvbmdfdHJhaW5lcl9rZXlfMV0=
        >
        E 0 90 3e 60
        E 0 90 73 60
        E 120 80 3e 00
        E 2760 90 40 60
        E 120 80 40 00
        E 840 90 37 60
        E 120 80 37 00
        <X 1800 0
          /wFbZW5kX2tleSBzb25nX3RyYWluZXJfa2V5XzFd
        >
        <X 0 0
          /wFbYmVnaW5fa2V5IHNvbmdfdHJhaW5lcl9rZXlfMl0=
        >
        E 0 90 74 60
        E 240 90 37 60
        E 120 80 37 00
        E 200 90 37 60
        E 80 80 37 00
        E 80 90 40 60
        E 80 80 40 00
        E 0 90 3e 60
        E 80 80 3e 00
        E 0 90 3c 60
        E 80 80 3c 00
        E 0 90 37 60
        E 120 80 37 00
        E 0 90 34 60
        E 120 80 34 00
        E 0 90 32 60
        E 120 80 32 00
        E 360 90 09 60
        E 0 90 39 60
        E 120 80 09 00
        E 0 80 39 00
        E 0 90 3b 60
        E 120 80 74 00
        E 0 80 3b 00
        E 120 90 3e 60
        E 120 80 3e 00
        <X 1680 0
          /wFbZW5kX2tleSBzb25nX3RyYWluZXJfa2V5XzJd
        >
        <X 960 0
          /wFbYmVnaW5fa2V5IHNvbmdfdHJhaW5lcl9rZXlfM10=
        >
        E 600 90 3b 60
        E 120 80 3b 00
        E 0 90 3c 60
        E 80 80 3c 00
        E 0 90 3e 60
        E 80 80 3e 00
        E 0 90 43 60
        E 80 80 43 00
        E 0 90 45 60
        E 120 80 45 00
        E 1320 90 47 60
        E 80 80 47 00
        E 400 90 45 60
        E 80 80 45 00
        E 1120 90 47 60
        E 80 80 47 00
        E 240 90 45 60
        E 80 80 45 00
        E 80 90 43 60
        E 80 80 43 00
        E 0 90 40 60
        E 80 80 40 00
        E 0 90 3e 60
        E 80 80 3e 00
        E 0 90 3b 60
        E 80 80 3b 00
        <X 880 0
          /wFbZW5kX2tleSBzb25nX3RyYWluZXJfa2V5XzNd
        >
        E 0 80 73 00
        E 60480 90 43 60
        E 120 80 43 00
        E 7560 90 43 60
        E 0 90 74 60
        E 120 80 43 00
        E 1800 90 00 60
        E 120 80 00 00
        E 1800 90 3e 60
        E 120 80 74 00
        E 0 80 3e 00
        E 7560 90 37 60
        E 120 80 37 00
        E 76680 90 37 60
        E 120 80 37 00
        E 6600 90 40 60
        E 0 90 74 60
        E 120 80 40 00
        E 120 90 3e 60
        E 120 80 3e 00
        E 600 90 37 60
        E 120 80 37 00
        E 360 80 74 00
        E 3360 90 3e 60
        E 120 80 3e 00
        <X 6600 0
          /wFbYmVnaW5fa2V5IHNvbmdfdHJhaW5lcl9rZXlfNF0=
        >
        E 0 90 73 60
        E 480 90 30 60
        E 120 80 30 00
        E 0 90 32 60
        E 120 80 32 00
        E 0 90 34 60
        E 120 80 34 00
        E 0 90 37 60
        E 120 80 37 00
        E 0 90 39 60
        E 120 80 39 00
        E 840 90 37 60
        E 0 90 74 60
        E 120 80 37 00
        E 120 90 39 60
        E 120 80 39 00
        E 120 90 34 60
        E 120 80 34 00
        E 120 90 37 60
        E 120 80 37 00
        E 360 90 30 60
        E 120 80 30 00
        E 120 90 32 60
        E 120 80 32 00
        E 120 90 34 60
        E 120 80 34 00
        E 360 90 32 60
        E 120 80 32 00
        E 120 90 34 60
        E 120 80 34 00
        E 360 90 37 60
        E 120 80 74 00
        E 0 80 37 00
        E 360 90 05 60
        E 120 80 05 00
        E 1080 90 3e 60
        E 80 80 3e 00
        E 0 90 40 60
        E 80 80 40 00
        E 0 90 43 60
        E 80 80 43 00
        E 0 90 45 60
        E 120 80 45 00
        E 120 90 43 60
        E 120 80 43 00
        E 120 90 40 60
        E 120 80 40 00
        E 120 90 3e 60
        E 120 80 3e 00
        E 120 90 00 60
        E 0 90 3b 60
        E 120 80 00 00
        E 0 80 3b 00
        E 120 90 3e 60
        E 120 80 3e 00
        E 120 90 40 60
        E 120 80 40 00
        E 120 90 3b 60
        E 120 80 3b 00
        E 120 90 3e 60
        E 120 80 3e 00
        <X 840 0
          /wFbZW5kX2tleSBzb25nX3RyYWluZXJfa2V5XzRd
        >
        <X 0 0
          /wFbYmVnaW5fa2V5IHNvbmdfdHJhaW5lcl9rZXlfNV0=
        >
        E 480 90 37 60
        E 80 80 37 00
        E 0 90 39 60
        E 80 80 39 00
        E 0 90 3b 60
        E 80 80 3b 00
        E 0 90 3e 60
        E 80 80 3e 00
        E 0 90 40 60
        E 80 80 40 00
        E 800 90 37 60
        E 120 80 37 00
        E 360 90 39 60
        E 120 80 39 00
        E 280 90 34 60
        E 80 80 34 00
        E 0 90 37 60
        E 80 80 37 00
        E 0 90 39 60
        E 80 80 39 00
        E 0 90 3b 60
        E 80 80 3b 00
        E 0 90 3e 60
        E 120 80 3e 00
        E 240 90 3c 60
        E 120 80 3c 00
        E 240 90 39 60
        E 120 80 39 00
        E 360 90 37 60
        E 120 80 37 00
        E 360 90 34 60
        E 120 80 34 00
        E 120 90 09 60
        E 120 80 09 00
        E 40 90 39 60
        E 80 80 39 00
        E 80 90 3b 60
        E 80 80 3b 00
        E 80 90 3e 60
        E 80 80 3e 00
        E 80 90 39 60
        E 80 80 39 00
        E 0 90 3b 60
        E 80 80 3b 00
        E 0 90 3e 60
        E 80 80 3e 00
        E 0 90 40 60
        E 80 80 40 00
        E 0 90 3e 60
        E 80 80 3e 00
        E 0 90 40 60
        E 80 80 40 00
        E 0 90 43 60
        E 80 80 43 00
        E 0 90 40 60
        E 80 80 40 00
        E 0 90 43 60
        E 80 80 43 00
        E 0 90 45 60
        E 80 80 45 00
        E 0 90 43 60
        E 80 80 43 00
        E 0 90 45 60
        E 80 80 45 00
        E 0 90 43 60
        E 80 80 43 00
        E 0 90 45 60
        E 80 80 45 00
        E 0 90 47 60
        E 80 80 47 00
        <X 80 0
          /wFbZW5kX2tleSBzb25nX3RyYWluZXJfa2V5XzVd
        >
        E 0 90 04 60
        E 120 80 04 00
        <X 360 0
          /wFbYmVnaW5fa2V5IHNvbmdfdHJhaW5lcl9rZXlfNl0=
        >
        E 180 90 43 60
        E 60 80 43 00
        E 180 90 40 60
        E 60 80 40 00
        E 240 90 3e 60
        E 120 80 3e 00
        E 120 90 3b 60
        E 120 80 3b 00
        E 120 90 39 60
        E 120 80 39 00
        E 120 90 37 60
        E 120 80 37 00
        E 120 90 40 60
        E 120 80 40 00
        E 120 90 3e 60
        E 120 80 3e 00
        E 40 90 3e 60
        E 80 80 3e 00
        E 0 90 40 60
        E 80 80 40 00
        E 0 90 43 60
        E 80 80 43 00
        E 0 90 40 60
        E 80 80 40 00
        E 0 90 3e 60
        E 120 80 3e 00
        E 120 90 3b 60
        E 120 80 3b 00
        E 120 90 3e 60
        E 120 80 3e 00
        E 120 90 37 60
        E 120 80 37 00
        E 120 90 39 60
        E 120 80 39 00
        E 360 90 37 60
        E 120 80 37 00
        E 360 90 34 60
        E 120 80 34 00
        E 600 90 34 60
        E 80 80 34 00
        E 0 90 37 60
        E 80 80 37 00
        E 0 90 39 60
        E 80 80 39 00
        E 0 90 07 60
        E 0 90 3b 60
        E 80 80 3b 00
        E 0 90 37 60
        E 40 80 07 00
        E 40 80 37 00
        E 0 90 39 60
        E 80 80 39 00
        E 0 90 3b 60
        E 80 80 3b 00
        E 0 90 3e 60
        E 80 80 3e 00
        E 0 90 39 60
        E 80 80 39 00
        E 0 90 3b 60
        E 80 80 3b 00
        E 0 90 3e 60
        E 80 80 3e 00
        E 0 90 40 60
        E 80 80 40 00
        E 0 90 3b 60
        E 80 80 3b 00
        E 0 90 3e 60
        E 80 80 3e 00
        E 0 90 40 60
        E 80 80 40 00
        E 0 90 43 60
        E 80 80 43 00
        E 0 90 40 60
        E 80 80 40 00
        E 0 90 43 60
        E 80 80 43 00
        E 0 90 45 60
        E 80 80 45 00
        E 0 90 43 60
        E 80 80 43 00
        E 0 90 45 60
        E 80 80 45 00
        E 0 90 47 60
        E 80 80 47 00
        E 0 90 39 60
        E 80 80 39 00
        E 0 90 3b 60
        E 80 80 3b 00
        E 0 90 3e 60
        E 80 80 3e 00
        E 160 90 43 60
        E 80 80 43 00
        <X 400 0
          /wFbZW5kX2tleSBzb25nX3RyYWluZXJfa2V5XzZd
        >
        <X 480 0
          /wFbYmVnaW5fa2V5IHNvbmdfdHJhaW5lcl9rZXlfN10=
        >
        E 240 90 43 60
        E 80 80 43 00
        E 160 90 45 60
        E 80 80 45 00
        E 160 90 43 60
        E 80 80 43 00
        E 160 90 40 60
        E 80 80 40 00
        E 160 90 43 60
        E 80 80 43 00
        E 160 90 3e 60
        E 80 80 3e 00
        E 160 90 40 60
        E 80 80 40 00
        E 160 90 3b 60
        E 80 80 3b 00
        E 160 90 3e 60
        E 80 80 3e 00
        E 160 90 39 60
        E 80 80 39 00
        E 160 90 3e 60
        E 80 80 3e 00
        E 0 90 3b 60
        E 80 80 3b 00
        E 0 90 39 60
        E 80 80 39 00
        E 0 90 3b 60
        E 80 80 3b 00
        E 2080 90 37 60
        E 80 80 37 00
        E 0 90 39 60
        E 80 80 39 00
        E 0 90 3b 60
        E 80 80 3b 00
        E 0 90 39 60
        E 80 80 39 00
        E 0 90 3b 60
        E 80 80 3b 00
        E 0 90 3e 60
        E 80 80 3e 00
        E 0 90 3b 60
        E 80 80 3b 00
        E 0 90 3e 60
        E 80 80 3e 00
        E 0 90 40 60
        E 80 80 40 00
        E 0 90 3e 60
        E 80 80 3e 00
        E 0 90 40 60
        E 80 80 40 00
        E 0 90 43 60
        E 80 80 43 00
        E 0 90 40 60
        E 80 80 40 00
        E 0 90 43 60
        E 80 80 43 00
        E 0 90 45 60
        E 80 80 45 00
        E 0 90 43 60
        E 80 80 43 00
        E 0 90 40 60
        E 80 80 40 00
        E 0 90 43 60
        E 80 80 43 00
        E 0 90 40 60
        E 80 80 40 00
        E 0 90 43 60
        E 80 80 43 00
        E 0 90 45 60
        E 80 80 45 00
        E 0 90 43 60
        E 80 80 43 00
        <X 399 0
          /wFbZW5kX2tleSBzb25nX3RyYWluZXJfa2V5Xzdd
        >
        E 0 80 73 00
        E 9121 b0 7b 00
        GUID {EB1C118C-5AA9-43A3-B116-5D59914A4407}
        IGNTEMPO 0 120.00000000 4 4
        SRCCOLOR 46
        VELLANE 132 128 60
        COLORMAP "C:\Program Files\REAPER (x64)\Data\color_maps\rockband_guitarbass.png"
        CFGEDITVIEW -12864.530280 5.523216 0 13 0 0 0
        CFGEDIT 1 1 0 1 1 0 1 1 1 1 1 0.12500000 53 44 1253 718 0 2 1 1 0.00000000 0 1 1 0 0.500000 0 0 1.000000 64
        KEYSNAP 0 7 "102030050700" 0 "Pentatonic"
        EVTFILTER 0 -1 -1 -1 -1 0 1 0 0 -1.00000000 -1.00000000
      >
    >
  >
  <TRACK '{F862079F-26B9-4BC7-A9A9-6C61C3C9E878}'
    NAME "PART REAL_KEYS_H"
    PEAKCOL 16576
    BEAT -1
    AUTOMODE 0
    VOLPAN 1.00000000000000 0.00000000000000 -1.00000000000000 -1.00000000000000 1.00000000000000
    MUTESOLO 0 0 0
    IPHASE 0
    ISBUS 0 0
    BUSCOMP 0 0
    SHOWINMIX 1 0.666700 0.500000 1 0.500000 -1 -1 -1
    FREEMODE 0
    SEL 0
    REC 0 0 0 0 0 0 0
    VU 2
    TRACKHEIGHT 0 0
    INQ 0 0 0 0.5000000000 100 0 0 100
    NCHAN 2
    FX 1
    TRACKID {F862079F-26B9-4BC7-A9A9-6C61C3C9E878}
    PERF 0
    MIDIOUT -1
    <MIDINOTENAMES
      0 72 "Highest playable note B#3"
      0 71 "B3"
      0 70 "A#3"
      0 69 "A3"
      0 68 "G#3"
      0 67 "G3"
      0 66 "F#3"
      0 65 "F3"
      0 64 "E3"
      0 63 "D#3"
      0 62 "D3"
      0 61 "C#3"
      0 60 "C3"
      0 59 "B2"
      0 58 "A#2"
      0 57 "A2"
      0 56 "G#2"
      0 55 "G2"
      0 54 "F#2"
      0 53 "F2"
      0 52 "E2"
      0 51 "D#2"
      0 50 "D2"
      0 49 "C#2"
      0 48 "Lowest playable note C2"
      0 10 "---"
      0 9 "Range A2-C4"
      0 8 "Range"
      0 7 "Range"
      0 6 "Range"
      0 5 "Range F2-A3"
      0 4 "Range"
      0 3 "Range"
      0 2 "Range"
      0 1 "Range"
      0 0 "Range C2-E3"
    >
    MAINSEND 1 0
    <FXCHAIN
      SHOW 0
      LASTSEL 0
      DOCKED 0
    >
    <ITEM
      POSITION 0.00000000000000
      SNAPOFFS 0.00000000000000
      LENGTH 236.43057157291659
      LOOP 0
      ALLTAKES 0
      SEL 0
      FADEIN 1 0.000000 0.000000 1 0
      FADEOUT 1 0.000000 0.000000 1 0
      MUTE 0
      IGUID {32C543FD-5A16-4623-A0CE-2749943081CE}
      IID 7
      NAME "PART REAL_KEYS_H"
      VOLPAN 1.000000 0.000000 1.000000 -1.000000
      SOFFS 0.00000000000000 0.00000000000000
      PLAYRATE 1.00000000000000 1 0.00000000000000 -1
      CHANMODE 0
      GUID {90C06937-5020-4E2E-8BB2-1EA20081F8B1}
      <SOURCE MIDI
        HASDATA 1 480 QN
        POOLEDEVTS {563E768C-CA0C-4358-A345-E7A5F0EB6A20}
        <X 0 0
          /wNQQVJUIFJFQUxfS0VZU19I
        >
        E 0 90 00 60
        E 120 80 00 00
        E 3720 90 3e 60
        E 120 80 3e 00
        E 2760 90 40 60
        E 120 80 40 00
        E 840 90 37 60
        E 120 80 37 00
        E 2040 90 37 60
        E 120 80 37 00
        E 360 90 40 60
        E 80 80 40 00
        E 160 90 37 60
        E 120 80 37 00
        E 120 90 32 60
        E 120 80 32 00
        E 360 90 09 60
        E 0 90 39 60
        E 120 80 09 00
        E 0 80 39 00
        E 240 90 3e 60
        E 120 80 3e 00
        E 3360 90 3c 60
        E 80 80 3c 00
        E 160 90 45 60
        E 120 80 45 00
        E 1320 90 47 60
        E 80 80 47 00
        E 400 90 45 60
        E 80 80 45 00
        E 1120 90 47 60
        E 80 80 47 00
        E 400 90 43 60
        E 80 80 43 00
        E 160 90 3b 60
        E 80 80 3b 00
        E 61360 90 43 60
        E 120 80 43 00
        E 7560 90 43 60
        E 120 80 43 00
        E 1800 90 00 60
        E 120 80 00 00
        E 1800 90 3e 60
        E 120 80 3e 00
        E 7560 90 37 60
        E 120 80 37 00
        E 76680 90 37 60
        E 120 80 37 00
        E 6600 90 40 60
        E 120 80 40 00
        E 120 90 3e 60
        E 120 80 3e 00
        E 600 90 37 60
        E 120 80 37 00
        E 3720 90 3e 60
        E 120 80 3e 00
        E 7080 90 30 60
        E 120 80 30 00
        E 120 90 34 60
        E 120 80 34 00
        E 120 90 39 60
        E 120 80 39 00
        E 840 90 37 60
        E 120 80 37 00
        E 120 90 39 60
        E 120 80 39 00
        E 120 90 34 60
        E 120 80 34 00
        E 120 90 37 60
        E 120 80 37 00
        E 360 90 30 60
        E 120 80 30 00
        E 120 90 32 60
        E 120 80 32 00
        E 120 90 34 60
        E 120 80 34 00
        E 360 90 32 60
        E 120 80 32 00
        E 120 90 34 60
        E 120 80 34 00
        E 360 90 37 60
        E 120 80 37 00
        E 360 90 05 60
        E 120 80 05 00
        E 1080 90 3e 60
        E 80 80 3e 00
        E 160 90 45 60
        E 120 80 45 00
        E 120 90 43 60
        E 120 80 43 00
        E 120 90 40 60
        E 120 80 40 00
        E 120 90 3e 60
        E 120 80 3e 00
        E 120 90 3b 60
        E 120 80 3b 00
        E 120 90 3e 60
        E 120 80 3e 00
        E 120 90 40 60
        E 120 80 40 00
        E 120 90 3b 60
        E 120 80 3b 00
        E 120 90 00 60
        E 0 90 3e 60
        E 120 80 00 00
        E 0 80 3e 00
        E 1320 90 37 60
        E 80 80 37 00
        E 160 90 3e 60
        E 80 80 3e 00
        E 880 90 37 60
        E 120 80 37 00
        E 360 90 39 60
        E 120 80 39 00
        E 360 90 37 60
        E 80 80 37 00
        E 160 90 3e 60
        E 120 80 3e 00
        E 240 90 3c 60
        E 120 80 3c 00
        E 240 90 39 60
        E 120 80 39 00
        E 360 90 37 60
        E 120 80 37 00
        E 360 90 34 60
        E 120 80 34 00
        E 120 90 09 60
        E 120 80 09 00
        E 40 90 39 60
        E 80 80 39 00
        E 240 90 3e 60
        E 80 80 3e 00
        E 160 90 3b 60
        E 80 80 3b 00
        E 160 90 3e 60
        E 80 80 3e 00
        E 160 90 40 60
        E 80 80 40 00
        E 160 90 43 60
        E 80 80 43 00
        E 160 90 45 60
        E 80 80 45 00
        E 640 90 05 60
        E 120 80 05 00
        E 60 90 43 60
        E 60 80 43 00
        E 180 90 40 60
        E 60 80 40 00
        E 240 90 3e 60
        E 120 80 3e 00
        E 120 90 3b 60
        E 120 80 3b 00
        E 120 90 39 60
        E 120 80 39 00
        E 120 90 37 60
        E 120 80 37 00
        E 120 90 40 60
        E 120 80 40 00
        E 120 90 3e 60
        E 120 80 3e 00
        E 120 90 40 60
        E 80 80 40 00
        E 160 90 3e 60
        E 120 80 3e 00
        E 120 90 3b 60
        E 120 80 3b 00
        E 120 90 00 60
        E 0 90 3e 60
        E 120 80 00 00
        E 0 80 3e 00
        E 120 90 37 60
        E 120 80 37 00
        E 120 90 39 60
        E 120 80 39 00
        E 360 90 37 60
        E 120 80 37 00
        E 1080 90 34 60
        E 80 80 34 00
        E 160 90 3b 60
        E 80 80 3b 00
        E 160 90 3b 60
        E 80 80 3b 00
        E 160 90 05 60
        E 0 90 3b 60
        E 60 80 05 00
        E 20 80 3b 00
        E 160 90 3b 60
        E 80 80 3b 00
        E 160 90 43 60
        E 80 80 43 00
        E 160 90 45 60
        E 80 80 45 00
        E 160 90 3b 60
        E 80 80 3b 00
        E 160 90 3e 60
        E 80 80 3e 00
        E 160 90 43 60
        E 80 80 43 00
        E 1120 90 43 60
        E 80 80 43 00
        E 160 90 45 60
        E 80 80 45 00
        E 160 90 43 60
        E 80 80 43 00
        E 160 90 40 60
        E 80 80 40 00
        E 160 90 43 60
        E 80 80 43 00
        E 160 90 3e 60
        E 80 80 3e 00
        E 160 90 40 60
        E 80 80 40 00
        E 160 90 3b 60
        E 80 80 3b 00
        E 160 90 3e 60
        E 80 80 3e 00
        E 160 90 39 60
        E 80 80 39 00
        E 160 90 3e 60
        E 80 80 3e 00
        E 160 90 3b 60
        E 80 80 3b 00
        E 2080 90 37 60
        E 80 80 37 00
        E 160 90 39 60
        E 80 80 39 00
        E 160 90 3b 60
        E 80 80 3b 00
        E 160 90 3e 60
        E 80 80 3e 00
        E 160 90 40 60
        E 80 80 40 00
        E 160 90 43 60
        E 80 80 43 00
        E 160 90 40 60
        E 80 80 40 00
        E 160 90 43 60
        E 80 80 43 00
        E 9520 b0 7b 00
        GUID {20492CD0-1C69-43D1-A0F5-D3CB6A3D9853}
        IGNTEMPO 0 120.00000000 4 4
        SRCCOLOR 47
        VELLANE 132 128 60
        COLORMAP "C:\Program Files\REAPER (x64)\Data\color_maps\rockband_guitarbass.png"
        CFGEDITVIEW -12864.530280 5.523216 0 15 0 0 0
        CFGEDIT 1 1 0 1 1 0 1 1 1 1 1 0.12500000 53 44 1253 718 0 2 1 1 0.00000000 0 1 1 0 0.500000 0 0 1.000000 64
        KEYSNAP 0 7 "102030050700" 0 "Pentatonic"
        EVTFILTER 0 -1 -1 -1 -1 0 1 0 0 -1.00000000 -1.00000000
      >
    >
  >
  <TRACK '{086C908C-9359-410C-BA6E-F4C07787590D}'
    NAME "PART REAL_KEYS_M"
    PEAKCOL 16576
    BEAT -1
    AUTOMODE 0
    VOLPAN 1.00000000000000 0.00000000000000 -1.00000000000000 -1.00000000000000 1.00000000000000
    MUTESOLO 0 0 0
    IPHASE 0
    ISBUS 0 0
    BUSCOMP 0 0
    SHOWINMIX 1 0.666700 0.500000 1 0.500000 -1 -1 -1
    FREEMODE 0
    SEL 0
    REC 0 0 0 0 0 0 0
    VU 2
    TRACKHEIGHT 0 0
    INQ 0 0 0 0.5000000000 100 0 0 100
    NCHAN 2
    FX 1
    TRACKID {086C908C-9359-410C-BA6E-F4C07787590D}
    PERF 0
    MIDIOUT -1
    <MIDINOTENAMES
      0 72 "Highest playable note B#3"
      0 71 "B3"
      0 70 "A#3"
      0 69 "A3"
      0 68 "G#3"
      0 67 "G3"
      0 66 "F#3"
      0 65 "F3"
      0 64 "E3"
      0 63 "D#3"
      0 62 "D3"
      0 61 "C#3"
      0 60 "C3"
      0 59 "B2"
      0 58 "A#2"
      0 57 "A2"
      0 56 "G#2"
      0 55 "G2"
      0 54 "F#2"
      0 53 "F2"
      0 52 "E2"
      0 51 "D#2"
      0 50 "D2"
      0 49 "C#2"
      0 48 "Lowest playable note C2"
      0 10 "---"
      0 9 "Range A2-C4"
      0 8 "Range"
      0 7 "Range"
      0 6 "Range"
      0 5 "Range F2-A3"
      0 4 "Range"
      0 3 "Range"
      0 2 "Range"
      0 1 "Range"
      0 0 "Range C2-E3"
    >
    MAINSEND 1 0
    <FXCHAIN
      SHOW 0
      LASTSEL 0
      DOCKED 0
    >
    <ITEM
      POSITION 0.00000000000000
      SNAPOFFS 0.00000000000000
      LENGTH 236.43057157291659
      LOOP 0
      ALLTAKES 0
      SEL 0
      FADEIN 1 0.000000 0.000000 1 0
      FADEOUT 1 0.000000 0.000000 1 0
      MUTE 0
      IGUID {6F9F8B67-A1F1-4C27-90F2-CD04FEE8C5F2}
      IID 8
      NAME "PART REAL_KEYS_M"
      VOLPAN 1.000000 0.000000 1.000000 -1.000000
      SOFFS 0.00000000000000 0.00000000000000
      PLAYRATE 1.00000000000000 1 0.00000000000000 -1
      CHANMODE 0
      GUID {37D0F168-C47C-46A2-93D5-401F6B434870}
      <SOURCE MIDI
        HASDATA 1 480 QN
        POOLEDEVTS {6F066022-50A4-4D7B-B83C-7B24F128F970}
        <X 0 0
          /wNQQVJUIFJFQUxfS0VZU19N
        >
        E 0 90 00 60
        E 120 80 00 00
        E 3720 90 3e 60
        E 120 80 3e 00
        E 2760 90 40 60
        E 120 80 40 00
        E 840 90 37 60
        E 120 80 37 00
        E 2040 90 37 60
        E 120 80 37 00
        E 360 90 40 60
        E 80 80 40 00
        E 160 90 37 60
        E 120 80 37 00
        E 600 90 39 60
        E 120 80 39 00
        E 3960 90 39 60
        E 120 80 39 00
        E 1320 90 3b 60
        E 80 80 3b 00
        E 400 90 39 60
        E 80 80 39 00
        E 1120 90 3b 60
        E 80 80 3b 00
        E 640 90 3b 60
        E 80 80 3b 00
        E 61360 90 37 60
        E 120 80 37 00
        E 7560 90 37 60
        E 120 80 37 00
        E 3720 90 3e 60
        E 120 80 3e 00
        E 7560 90 37 60
        E 120 80 37 00
        E 76680 90 37 60
        E 120 80 37 00
        E 6600 90 40 60
        E 120 80 40 00
        E 120 90 3e 60
        E 120 80 3e 00
        E 600 90 37 60
        E 120 80 37 00
        E 3720 90 3e 60
        E 120 80 3e 00
        E 7080 90 30 60
        E 120 80 30 00
        E 360 90 39 60
        E 120 80 39 00
        E 840 90 37 60
        E 120 80 37 00
        E 360 90 34 60
        E 120 80 34 00
        E 840 90 32 60
        E 120 80 32 00
        E 840 90 34 60
        E 120 80 34 00
        E 360 90 37 60
        E 120 80 37 00
        E 1800 90 39 60
        E 120 80 39 00
        E 360 90 40 60
        E 120 80 40 00
        E 360 90 3b 60
        E 120 80 3b 00
        E 360 90 40 60
        E 120 80 40 00
        E 360 90 3e 60
        E 120 80 3e 00
        E 1320 90 37 60
        E 80 80 37 00
        E 1120 90 37 60
        E 120 80 37 00
        E 360 90 39 60
        E 120 80 39 00
        E 600 90 3e 60
        E 120 80 3e 00
        E 600 90 39 60
        E 120 80 39 00
        E 360 90 37 60
        E 120 80 37 00
        E 360 90 34 60
        E 120 80 34 00
        E 600 90 3e 60
        E 80 80 3e 00
        E 400 90 3e 60
        E 80 80 3e 00
        E 400 90 37 60
        E 80 80 37 00
        E 1060 90 37 60
        E 60 80 37 00
        E 720 90 3b 60
        E 120 80 3b 00
        E 360 90 37 60
        E 120 80 37 00
        E 360 90 3e 60
        E 120 80 3e 00
        E 360 90 3e 60
        E 120 80 3e 00
        E 360 90 3e 60
        E 120 80 3e 00
        E 360 90 39 60
        E 120 80 39 00
        E 360 90 37 60
        E 120 80 37 00
        E 1320 90 3b 60
        E 80 80 3b 00
        E 400 90 3b 60
        E 80 80 3b 00
        E 400 90 37 60
        E 80 80 37 00
        E 400 90 3b 60
        E 80 80 3b 00
        E 400 90 37 60
        E 80 80 37 00
        E 1360 90 39 60
        E 80 80 39 00
        E 400 90 40 60
        E 80 80 40 00
        E 400 90 3e 60
        E 80 80 3e 00
        E 400 90 3b 60
        E 80 80 3b 00
        E 400 90 39 60
        E 80 80 39 00
        E 400 90 3b 60
        E 80 80 3b 00
        E 2320 90 39 60
        E 80 80 39 00
        E 400 90 3e 60
        E 80 80 3e 00
        E 400 90 37 60
        E 80 80 37 00
        E 400 90 37 60
        E 80 80 37 00
        E 9520 b0 7b 00
        GUID {497A3A9C-F4E3-4974-B53B-5791A25EE615}
        IGNTEMPO 0 120.00000000 4 4
        SRCCOLOR 48
        VELLANE 132 128 60
        COLORMAP "C:\Program Files\REAPER (x64)\Data\color_maps\rockband_guitarbass.png"
        CFGEDITVIEW -12864.530280 5.523216 0 15 0 0 0
        CFGEDIT 1 1 0 1 1 0 1 1 1 1 1 0.12500000 53 44 1253 718 0 2 1 1 0.00000000 0 1 1 0 0.500000 0 0 1.000000 64
        KEYSNAP 0 7 "102030050700" 0 "Pentatonic"
        EVTFILTER 0 -1 -1 -1 -1 0 1 0 0 -1.00000000 -1.00000000
      >
    >
  >
  <TRACK '{4A87E0E8-DA2E-4854-BAF9-C5DAB492F9C0}'
    NAME "PART REAL_KEYS_E"
    PEAKCOL 16576
    BEAT -1
    AUTOMODE 0
    VOLPAN 1.00000000000000 0.00000000000000 -1.00000000000000 -1.00000000000000 1.00000000000000
    MUTESOLO 0 0 0
    IPHASE 0
    ISBUS 0 0
    BUSCOMP 0 0
    SHOWINMIX 1 0.666700 0.500000 1 0.500000 -1 -1 -1
    FREEMODE 0
    SEL 0
    REC 0 0 0 0 0 0 0
    VU 2
    TRACKHEIGHT 0 0
    INQ 0 0 0 0.5000000000 100 0 0 100
    NCHAN 2
    FX 1
    TRACKID {4A87E0E8-DA2E-4854-BAF9-C5DAB492F9C0}
    PERF 0
    MIDIOUT -1
    <MIDINOTENAMES
      0 72 "Highest playable note B#3"
      0 71 "B3"
      0 70 "A#3"
      0 69 "A3"
      0 68 "G#3"
      0 67 "G3"
      0 66 "F#3"
      0 65 "F3"
      0 64 "E3"
      0 63 "D#3"
      0 62 "D3"
      0 61 "C#3"
      0 60 "C3"
      0 59 "B2"
      0 58 "A#2"
      0 57 "A2"
      0 56 "G#2"
      0 55 "G2"
      0 54 "F#2"
      0 53 "F2"
      0 52 "E2"
      0 51 "D#2"
      0 50 "D2"
      0 49 "C#2"
      0 48 "Lowest playable note C2"
      0 10 "---"
      0 9 "Range A2-C4"
      0 8 "Range"
      0 7 "Range"
      0 6 "Range"
      0 5 "Range F2-A3"
      0 4 "Range"
      0 3 "Range"
      0 2 "Range"
      0 1 "Range"
      0 0 "Range C2-E3"
    >
    MAINSEND 1 0
    <FXCHAIN
      SHOW 0
      LASTSEL 0
      DOCKED 0
    >
    <ITEM
      POSITION 0.00000000000000
      SNAPOFFS 0.00000000000000
      LENGTH 236.43057157291659
      LOOP 0
      ALLTAKES 0
      SEL 0
      FADEIN 1 0.000000 0.000000 1 0
      FADEOUT 1 0.000000 0.000000 1 0
      MUTE 0
      IGUID {FD94455B-6FAC-4E29-BAE1-6B4A806CBE04}
      IID 9
      NAME "PART REAL_KEYS_E"
      VOLPAN 1.000000 0.000000 1.000000 -1.000000
      SOFFS 0.00000000000000 0.00000000000000
      PLAYRATE 1.00000000000000 1 0.00000000000000 -1
      CHANMODE 0
      GUID {C37F64FD-9208-4FB6-9563-4C603F7A8492}
      <SOURCE MIDI
        HASDATA 1 480 QN
        POOLEDEVTS {FA92BEB9-3C4A-4027-864F-A99DC9E6B1F2}
        <X 0 0
          /wNQQVJUIFJFQUxfS0VZU19F
        >
        E 0 90 00 60
        E 120 80 00 00
        E 3720 90 3e 60
        E 120 80 3e 00
        E 2760 90 40 60
        E 120 80 40 00
        E 840 90 37 60
        E 120 80 37 00
        E 2040 90 37 60
        E 120 80 37 00
        E 600 90 37 60
        E 120 80 37 00
        E 4680 90 39 60
        E 120 80 39 00
        E 1320 90 3b 60
        E 80 80 3b 00
        E 400 90 39 60
        E 80 80 39 00
        E 1840 90 3b 60
        E 80 80 3b 00
        E 61360 90 37 60
        E 120 80 37 00
        E 7560 90 37 60
        E 120 80 37 00
        E 3720 90 3e 60
        E 120 80 3e 00
        E 7560 90 37 60
        E 120 80 37 00
        E 76680 90 37 60
        E 120 80 37 00
        E 6600 90 40 60
        E 120 80 40 00
        E 840 90 37 60
        E 120 80 37 00
        E 3720 90 3e 60
        E 120 80 3e 00
        E 7560 90 39 60
        E 120 80 39 00
        E 840 90 37 60
        E 120 80 37 00
        E 1320 90 32 60
        E 120 80 32 00
        E 1320 90 37 60
        E 120 80 37 00
        E 1800 90 39 60
        E 120 80 39 00
        E 840 90 3b 60
        E 120 80 3b 00
        E 840 90 3e 60
        E 120 80 3e 00
        E 1320 90 37 60
        E 80 80 37 00
        E 1120 90 37 60
        E 120 80 37 00
        E 1080 90 3e 60
        E 120 80 3e 00
        E 1080 90 37 60
        E 120 80 37 00
        E 1080 90 3e 60
        E 80 80 3e 00
        E 400 90 3e 60
        E 80 80 3e 00
        E 400 90 37 60
        E 80 80 37 00
        E 1060 90 37 60
        E 60 80 37 00
        E 1200 90 37 60
        E 120 80 37 00
        E 840 90 3e 60
        E 120 80 3e 00
        E 840 90 39 60
        E 120 80 39 00
        E 360 90 37 60
        E 120 80 37 00
        E 1320 90 3b 60
        E 80 80 3b 00
        E 880 90 37 60
        E 80 80 37 00
        E 880 90 37 60
        E 80 80 37 00
        E 1840 90 40 60
        E 80 80 40 00
        E 880 90 3b 60
        E 80 80 3b 00
        E 880 90 3b 60
        E 80 80 3b 00
        E 2800 90 3e 60
        E 80 80 3e 00
        E 880 90 37 60
        E 80 80 37 00
        E 9520 b0 7b 00
        GUID {250932E5-D447-4265-BB00-DF361047D7BF}
        IGNTEMPO 0 120.00000000 4 4
        SRCCOLOR 49
        VELLANE 132 128 60
        COLORMAP "C:\Program Files\REAPER (x64)\Data\color_maps\rockband_guitarbass.png"
        CFGEDITVIEW -12864.530280 5.523216 8 15 0 0 0
        CFGEDIT 1 1 0 1 1 0 1 1 1 1 1 0.12500000 53 44 1253 718 0 2 1 1 0.00000000 0 1 1 0 0.500000 0 0 1.000000 64
        KEYSNAP 0 7 "102030050700" 0 "Pentatonic"
        EVTFILTER 0 -1 -1 -1 -1 0 1 0 0 -1.00000000 -1.00000000
      >
    >
  >
  <TRACK '{61E4630A-5C6E-4238-9450-4AEFD9CA78F1}'
    NAME "PART KEYS_ANIM_RH"
    PEAKCOL 16576
    BEAT -1
    AUTOMODE 0
    VOLPAN 1.00000000000000 0.00000000000000 -1.00000000000000 -1.00000000000000 1.00000000000000
    MUTESOLO 0 0 0
    IPHASE 0
    ISBUS 2 -1
    BUSCOMP 0 0
    SHOWINMIX 1 0.666700 0.500000 1 0.500000 -1 -1 -1
    FREEMODE 0
    SEL 0
    REC 0 0 0 0 0 0 0
    VU 2
    TRACKHEIGHT 0 0
    INQ 0 0 0 0.5000000000 100 0 0 100
    NCHAN 2
    FX 1
    TRACKID {61E4630A-5C6E-4238-9450-4AEFD9CA78F1}
    PERF 0
    MIDIOUT -1
    <MIDINOTENAMES
      0 72 "Highest playable note B#3"
      0 71 "B3"
      0 70 "A#3"
      0 69 "A3"
      0 68 "G#3"
      0 67 "G3"
      0 66 "F#3"
      0 65 "F3"
      0 64 "E3"
      0 63 "D#3"
      0 62 "D3"
      0 61 "C#3"
      0 60 "C3"
      0 59 "B2"
      0 58 "A#2"
      0 57 "A2"
      0 56 "G#2"
      0 55 "G2"
      0 54 "F#2"
      0 53 "F2"
      0 52 "E2"
      0 51 "D#2"
      0 50 "D2"
      0 49 "C#2"
      0 48 "Lowest playable note C2"
    >
    MAINSEND 1 0
    <FXCHAIN
      SHOW 0
      LASTSEL 0
      DOCKED 0
    >
    <ITEM
      POSITION 0.00000000000000
      SNAPOFFS 0.00000000000000
      LENGTH 236.43057157291659
      LOOP 0
      ALLTAKES 0
      SEL 0
      FADEIN 1 0.000000 0.000000 1 0
      FADEOUT 1 0.000000 0.000000 1 0
      MUTE 0
      IGUID {22320A73-BC25-4A54-85FC-FA3E25E00751}
      IID 10
      NAME "PART KEYS_ANIM_RH"
      VOLPAN 1.000000 0.000000 1.000000 -1.000000
      SOFFS 0.00000000000000 0.00000000000000
      PLAYRATE 1.00000000000000 1 0.00000000000000 -1
      CHANMODE 0
      GUID {8D4E26D6-C1AA-4C46-A1AB-39ED43106F08}
      <SOURCE MIDI
        HASDATA 1 480 QN
        POOLEDEVTS {5BC26E19-0A8A-4F59-87E5-C23903B162C4}
        <X 0 0
          /wNQQVJUIEtFWVNfQU5JTV9SSA==
        >
        E 3840 90 3e 60
        E 120 80 3e 00
        E 2760 90 40 60
        E 120 80 40 00
        E 840 90 37 60
        E 120 80 37 00
        E 2040 90 37 60
        E 120 80 37 00
        E 200 90 37 60
        E 80 80 37 00
        E 80 90 40 60
        E 80 80 40 00
        E 0 90 3e 60
        E 80 80 3e 00
        E 0 90 3c 60
        E 80 80 3c 00
        E 0 90 37 60
        E 120 80 37 00
        E 0 90 34 60
        E 120 80 34 00
        E 0 90 32 60
        E 120 80 32 00
        E 360 90 39 60
        E 120 80 39 00
        E 0 90 3b 60
        E 120 80 3b 00
        E 120 90 3e 60
        E 120 80 3e 00
        E 3240 90 3b 60
        E 120 80 3b 00
        E 0 90 3c 60
        E 80 80 3c 00
        E 0 90 3e 60
        E 80 80 3e 00
        E 0 90 43 60
        E 80 80 43 00
        E 0 90 45 60
        E 120 80 45 00
        E 1320 90 47 60
        E 80 80 47 00
        E 400 90 45 60
        E 80 80 45 00
        E 1120 90 47 60
        E 80 80 47 00
        E 240 90 45 60
        E 80 80 45 00
        E 80 90 43 60
        E 80 80 43 00
        E 0 90 40 60
        E 80 80 40 00
        E 0 90 3e 60
        E 80 80 3e 00
        E 0 90 3b 60
        E 80 80 3b 00
        E 61360 90 43 60
        E 120 80 43 00
        E 7560 90 43 60
        E 120 80 43 00
        E 3720 90 3e 60
        E 120 80 3e 00
        E 7560 90 37 60
        E 120 80 37 00
        E 76680 90 37 60
        E 120 80 37 00
        E 6600 90 40 60
        E 120 80 40 00
        E 120 90 3e 60
        E 120 80 3e 00
        E 600 90 37 60
        E 120 80 37 00
        E 3720 90 3e 60
        E 120 80 3e 00
        E 7080 90 30 60
        E 120 80 30 00
        E 0 90 32 60
        E 120 80 32 00
        E 0 90 34 60
        E 120 80 34 00
        E 0 90 37 60
        E 120 80 37 00
        E 0 90 39 60
        E 120 80 39 00
        E 840 90 37 60
        E 120 80 37 00
        E 120 90 39 60
        E 120 80 39 00
        E 120 90 34 60
        E 120 80 34 00
        E 120 90 37 60
        E 120 80 37 00
        E 360 90 30 60
        E 120 80 30 00
        E 120 90 32 60
        E 120 80 32 00
        E 120 90 34 60
        E 120 80 34 00
        E 360 90 32 60
        E 120 80 32 00
        E 120 90 34 60
        E 120 80 34 00
        E 360 90 37 60
        E 120 80 37 00
        E 1560 90 3e 60
        E 80 80 3e 00
        E 0 90 40 60
        E 80 80 40 00
        E 0 90 43 60
        E 80 80 43 00
        E 0 90 45 60
        E 120 80 45 00
        E 120 90 43 60
        E 120 80 43 00
        E 120 90 40 60
        E 120 80 40 00
        E 120 90 3e 60
        E 120 80 3e 00
        E 120 90 3b 60
        E 120 80 3b 00
        E 120 90 3e 60
        E 120 80 3e 00
        E 120 90 40 60
        E 120 80 40 00
        E 120 90 3b 60
        E 120 80 3b 00
        E 120 90 3e 60
        E 120 80 3e 00
        E 1320 90 37 60
        E 80 80 37 00
        E 0 90 39 60
        E 80 80 39 00
        E 0 90 3b 60
        E 80 80 3b 00
        E 0 90 3e 60
        E 80 80 3e 00
        E 0 90 40 60
        E 80 80 40 00
        E 800 90 37 60
        E 120 80 37 00
        E 360 90 39 60
        E 120 80 39 00
        E 280 90 34 60
        E 80 80 34 00
        E 0 90 37 60
        E 80 80 37 00
        E 0 90 39 60
        E 80 80 39 00
        E 0 90 3b 60
        E 80 80 3b 00
        E 0 90 3e 60
        E 120 80 3e 00
        E 240 90 3c 60
        E 120 80 3c 00
        E 240 90 39 60
        E 120 80 39 00
        E 360 90 37 60
        E 120 80 37 00
        E 360 90 34 60
        E 120 80 34 00
        E 280 90 39 60
        E 80 80 39 00
        E 80 90 3b 60
        E 80 80 3b 00
        E 80 90 3e 60
        E 80 80 3e 00
        E 80 90 39 60
        E 80 80 39 00
        E 0 90 3b 60
        E 80 80 3b 00
        E 0 90 3e 60
        E 80 80 3e 00
        E 0 90 40 60
        E 80 80 40 00
        E 0 90 3e 60
        E 80 80 3e 00
        E 0 90 40 60
        E 80 80 40 00
        E 0 90 43 60
        E 80 80 43 00
        E 0 90 40 60
        E 80 80 40 00
        E 0 90 43 60
        E 80 80 43 00
        E 0 90 45 60
        E 80 80 45 00
        E 0 90 43 60
        E 80 80 43 00
        E 0 90 45 60
        E 80 80 45 00
        E 0 90 43 60
        E 80 80 43 00
        E 0 90 45 60
        E 80 80 45 00
        E 0 90 47 60
        E 80 80 47 00
        E 740 90 43 60
        E 60 80 43 00
        E 180 90 40 60
        E 60 80 40 00
        E 240 90 3e 60
        E 120 80 3e 00
        E 120 90 3b 60
        E 120 80 3b 00
        E 120 90 39 60
        E 120 80 39 00
        E 120 90 37 60
        E 120 80 37 00
        E 120 90 40 60
        E 120 80 40 00
        E 120 90 3e 60
        E 120 80 3e 00
        E 40 90 3e 60
        E 80 80 3e 00
        E 0 90 40 60
        E 80 80 40 00
        E 0 90 43 60
        E 80 80 43 00
        E 0 90 40 60
        E 80 80 40 00
        E 0 90 3e 60
        E 120 80 3e 00
        E 120 90 3b 60
        E 120 80 3b 00
        E 120 90 3e 60
        E 120 80 3e 00
        E 120 90 37 60
        E 120 80 37 00
        E 120 90 39 60
        E 120 80 39 00
        E 360 90 37 60
        E 120 80 37 00
        E 360 90 34 60
        E 120 80 34 00
        E 600 90 34 60
        E 80 80 34 00
        E 0 90 37 60
        E 80 80 37 00
        E 0 90 39 60
        E 80 80 39 00
        E 0 90 3b 60
        E 80 80 3b 00
        E 0 90 37 60
        E 80 80 37 00
        E 0 90 39 60
        E 80 80 39 00
        E 0 90 3b 60
        E 80 80 3b 00
        E 0 90 3e 60
        E 80 80 3e 00
        E 0 90 39 60
        E 80 80 39 00
        E 0 90 3b 60
        E 80 80 3b 00
        E 0 90 3e 60
        E 80 80 3e 00
        E 0 90 40 60
        E 80 80 40 00
        E 0 90 3b 60
        E 80 80 3b 00
        E 0 90 3e 60
        E 80 80 3e 00
        E 0 90 40 60
        E 80 80 40 00
        E 0 90 43 60
        E 80 80 43 00
        E 0 90 40 60
        E 80 80 40 00
        E 0 90 43 60
        E 80 80 43 00
        E 0 90 45 60
        E 80 80 45 00
        E 0 90 43 60
        E 80 80 43 00
        E 0 90 45 60
        E 80 80 45 00
        E 0 90 47 60
        E 80 80 47 00
        E 0 90 39 60
        E 80 80 39 00
        E 0 90 3b 60
        E 80 80 3b 00
        E 0 90 3e 60
        E 80 80 3e 00
        E 160 90 43 60
        E 80 80 43 00
        E 1120 90 43 60
        E 80 80 43 00
        E 160 90 45 60
        E 80 80 45 00
        E 160 90 43 60
        E 80 80 43 00
        E 160 90 40 60
        E 80 80 40 00
        E 160 90 43 60
        E 80 80 43 00
        E 160 90 3e 60
        E 80 80 3e 00
        E 160 90 40 60
        E 80 80 40 00
        E 160 90 3b 60
        E 80 80 3b 00
        E 160 90 3e 60
        E 80 80 3e 00
        E 160 90 39 60
        E 80 80 39 00
        E 160 90 3e 60
        E 80 80 3e 00
        E 0 90 3b 60
        E 80 80 3b 00
        E 0 90 39 60
        E 80 80 39 00
        E 0 90 3b 60
        E 80 80 3b 00
        E 2080 90 37 60
        E 80 80 37 00
        E 0 90 39 60
        E 80 80 39 00
        E 0 90 3b 60
        E 80 80 3b 00
        E 0 90 39 60
        E 80 80 39 00
        E 0 90 3b 60
        E 80 80 3b 00
        E 0 90 3e 60
        E 80 80 3e 00
        E 0 90 3b 60
        E 80 80 3b 00
        E 0 90 3e 60
        E 80 80 3e 00
        E 0 90 40 60
        E 80 80 40 00
        E 0 90 3e 60
        E 80 80 3e 00
        E 0 90 40 60
        E 80 80 40 00
        E 0 90 43 60
        E 80 80 43 00
        E 0 90 40 60
        E 80 80 40 00
        E 0 90 43 60
        E 80 80 43 00
        E 0 90 45 60
        E 80 80 45 00
        E 0 90 43 60
        E 80 80 43 00
        E 0 90 40 60
        E 80 80 40 00
        E 0 90 43 60
        E 80 80 43 00
        E 0 90 40 60
        E 80 80 40 00
        E 0 90 43 60
        E 80 80 43 00
        E 0 90 45 60
        E 80 80 45 00
        E 0 90 43 60
        E 80 80 43 00
        E 9520 b0 7b 00
        GUID {9BAB89BD-DD41-458A-B3C3-5BA516402BBC}
        IGNTEMPO 0 120.00000000 4 4
        SRCCOLOR 50
        VELLANE 132 128 60
        COLORMAP "C:\Program Files\REAPER (x64)\Data\color_maps\rockband_guitarbass.png"
        CFGEDITVIEW -12864.530280 5.523216 0 22 0 0 0
        CFGEDIT 1 1 0 1 1 0 1 1 1 1 1 0.12500000 53 44 1253 718 0 2 1 1 0.00000000 0 1 1 0 0.500000 0 0 1.000000 64
        KEYSNAP 0 7 "102030050700" 0 "Pentatonic"
        EVTFILTER 0 -1 -1 -1 -1 0 1 0 0 -1.00000000 -1.00000000
      >
    >
  >
  <TRACK '{2EA44BDF-6D6C-4E98-B74E-4DD280D51154}'
    NAME "PART REAL_BASS"
    PEAKCOL 16576
    BEAT -1
    AUTOMODE 0
    VOLPAN 1.00000000000000 0.00000000000000 -1.00000000000000 -1.00000000000000 1.00000000000000
    MUTESOLO 0 0 0
    IPHASE 0
    ISBUS 0 0
    BUSCOMP 0 0
    SHOWINMIX 1 0.666700 0.500000 1 0.500000 -1 -1 -1
    FREEMODE 0
    SEL 0
    REC 0 0 0 0 0 0 0
    VU 2
    TRACKHEIGHT 0 0
    INQ 0 0 0 0.5000000000 100 0 0 100
    NCHAN 2
    FX 0
    TRACKID {2EA44BDF-6D6C-4E98-B74E-4DD280D51154}
    PERF 0
    MIDIOUT -1
    <MIDINOTENAMES
      0 127 "Trill Marker"
      0 126 "Tremolo Marker"
      0 125 "BRE"
      0 124 "BRE"
      0 123 "BRE"
      0 122 "BRE"
      0 121 "BRE"
      0 120 "BRE (use all 6)"
      0 119 "-----------"
      0 116 "OVERDRIVE"
      0 115 "Solo Marker"
      0 109 "-----------"
      0 108 "Fret Hand Position"
      0 107 "Force Chord Numbering"
      0 106 "Loose Strumming"
      0 105 "Strum Direction"
      0 104 "Arpeggio Marker"
      0 103 "Slide Marker"
      0 102 "Force HOPO"
      0 101 "EXPERT e String"
      0 100 "EXPERT B String"
      0 99 "EXPERT G String"
      0 98 "EXPERT D String"
      0 97 "EXPERT A String"
      0 96 "EXPERT E String"
      0 95 "-----------"
      0 82 "Loose Strumming"
      0 81 "Strum Direction"
      0 80 "Arpeggio Marker"
      0 79 "Slide Marker"
      0 78 "Force HOPO"
      0 77 "HARD e String"
      0 76 "HARD B String"
      0 75 "HARD G String"
      0 74 "HARD D String"
      0 73 "HARD A String"
      0 72 "HARD E String"
      0 71 "-----------"
      0 58 "Loose Strumming"
      0 56 "Arpeggio Marker"
      0 55 "Slide Marker"
      0 53 "MEDIUM e String"
      0 52 "MEDIUM B String"
      0 51 "MEDIUM G String"
      0 50 "MEDIUM D String"
      0 49 "MEDIUM A String"
      0 48 "MEDIUM E String"
      0 47 "-----------"
      0 32 "Arpeggio Marker"
      0 31 "Slide Marker"
      0 29 "EASY e String"
      0 28 "EASY B String"
      0 27 "EASY G String"
      0 26 "EASY D String"
      0 25 "EASY A String"
      0 24 "EASY E String"
      0 21 "-----------"
      0 18 "Flat/Sharp Swap"
      0 17 "Hide Chord Names"
      0 16 "Slash Chord"
      0 15 "D#"
      0 14 "D"
      0 13 "C#"
      0 12 "C"
      0 11 "B"
      0 10 "A#"
      0 9 "A"
      0 8 "G#"
      0 7 "G"
      0 6 "F#"
      0 5 "F"
      0 4 "E"
    >
    MAINSEND 1 0
    <FXCHAIN
      WNDRECT 0 43 655 467
      SHOW 0
      LASTSEL 2
      DOCKED 0
      BYPASS 0 0
      <JS "c3/progtr" ""
        0.000000 3.000000 0.000000 0.000000 0.000000 0.000000 0.000000 0.000000 0.000000 1.000000 - - - - - - - - - - - - - - - - - - - - - - - - - - - - - - - - - - - - - - - - - - - - - - - - - - - - - - 
      >
      FLOATPOS 0 0 0 0
      FXID {F70B4A0B-FE2C-459E-B4F3-29FEABFEAB6C}
      WAK 0
      BYPASS 0 0
      <JS "MIDI/midi_transpose" ""
        -12.000000 1.000000 0.000000 127.000000 - - - - - - - - - - - - - - - - - - - - - - - - - - - - - - - - - - - - - - - - - - - - - - - - - - - - - - - - - - - - 
      >
      FLOATPOS 0 0 0 0
      FXID {D60ACCAC-FD79-44D1-9637-49AEBADC25A4}
      WAK 0
      BYPASS 0 0
      <VST "VSTi: ReaSynth (Cockos)" "reasynth.dll" 0 ""
        eXNlcu9e7f4AAAAAAgAAAAEAAAAAAAAAAgAAAAAAAAA4AAAAAAAAAA==
        AAAQAO++rd4N8K3eppvEO+gJMjwAAAAAAAAAAAAAgD8AAIA/4jAEPA==
        AAAAAAAAAD+01hM+j8L1PQAAAD8AABAAAAA=
      >
      FLOATPOS 0 0 0 0
      FXID {8F9955D8-A857-4C36-9A6F-DE9C9A9EA0EC}
      WAK 0
    >
    <ITEM
      POSITION 0.00000000000000
      SNAPOFFS 0.00000000000000
      LENGTH 236.43057157291659
      LOOP 0
      ALLTAKES 0
      SEL 0
      FADEIN 1 0.000000 0.000000 1 0
      FADEOUT 1 0.000000 0.000000 1 0
      MUTE 0
      IGUID {A73D865D-24FC-4D7E-94FD-F014253D4503}
      IID 12
      NAME "PART REAL_BASS"
      VOLPAN 1.000000 0.000000 1.000000 -1.000000
      SOFFS 0.00000000000000 0.00000000000000
      PLAYRATE 1.00000000000000 1 0.00000000000000 -1
      CHANMODE 0
      GUID {873F1B76-8065-4B22-8793-8686C3322EF8}
      <SOURCE MIDI
        HASDATA 1 480 QN
        POOLEDEVTS {DF10A573-F8AC-46F5-900B-59AF6CCB40B6}
        <X 0 0
          /wNQQVJUIFJFQUxfQkFTUw==
        >
        <X 3840 0
          /wFbYmVnaW5fcGIgc29uZ190cmFpbmVyX3BiXzFd
        >
        E 0 90 19 6e
        E 0 90 31 6e
        E 0 90 49 6e
        E 0 90 61 6e
        E 0 90 6c 6c
        E 120 80 6c 00
        E 360 80 19 00
        E 0 80 31 00
        E 0 80 49 00
        E 0 80 61 00
        E 480 90 19 6d
        E 0 90 31 6d
        E 0 90 49 6d
        E 0 90 61 6d
        E 480 80 19 00
        E 0 80 31 00
        E 0 80 49 00
        E 0 80 61 00
        <X 480 0
          /wFbcGJfbm9ybSBzb25nX3RyYWluZXJfcGJfMV0=
        >
        E 0 90 19 6b
        E 0 90 31 6b
        E 0 90 49 6b
        E 0 90 61 6b
        E 0 90 6c 69
        E 120 80 6c 00
        E 360 80 19 00
        E 0 80 31 00
        E 0 80 49 00
        E 0 80 61 00
        E 480 90 19 69
        E 0 90 31 69
        E 0 90 49 69
        E 0 90 61 69
        E 480 80 19 00
        E 0 80 31 00
        E 0 80 49 00
        E 0 80 61 00
        E 480 90 19 67
        E 0 90 31 67
        E 0 90 49 67
        E 0 90 61 67
        E 0 90 6c 66
        E 120 80 6c 00
        E 360 80 19 00
        E 0 80 31 00
        E 0 80 49 00
        E 0 80 61 00
        E 480 90 19 66
        E 0 90 31 66
        E 0 90 49 66
        E 0 90 61 66
        E 480 80 19 00
        E 0 80 31 00
        E 0 80 49 00
        E 0 80 61 00
        E 480 90 19 64
        E 0 90 31 64
        E 0 90 49 64
        E 0 90 61 64
        E 0 90 74 60
        E 1440 80 19 00
        E 0 80 31 00
        E 0 80 49 00
        E 0 80 61 00
        E 240 90 6c 6b
        E 0 93 49 6b
        E 0 93 61 6b
        E 120 80 6c 00
        E 0 83 49 00
        E 0 83 61 00
        <X 120 0
          /wFbZW5kX3BiIHNvbmdfdHJhaW5lcl9wYl8xXQ==
        >
        E 0 80 74 00
        E 0 90 19 6e
        E 0 90 31 6e
        E 0 90 49 6e
        E 0 90 61 6e
        E 0 90 6c 6c
        E 120 80 6c 00
        E 360 80 19 00
        E 0 80 31 00
        E 0 80 49 00
        E 0 80 61 00
        E 480 90 19 6d
        E 0 90 31 6d
        E 0 90 49 6d
        E 0 90 61 6d
        E 480 80 19 00
        E 0 80 31 00
        E 0 80 49 00
        E 0 80 61 00
        E 480 90 19 6b
        E 0 90 31 6b
        E 0 90 49 6b
        E 0 90 61 6b
        E 0 90 6c 69
        E 120 80 6c 00
        E 360 80 19 00
        E 0 80 31 00
        E 0 80 49 00
        E 0 80 61 00
        E 480 90 19 69
        E 0 90 31 69
        E 0 90 49 69
        E 0 90 61 69
        E 480 80 19 00
        E 0 80 31 00
        E 0 80 49 00
        E 0 80 61 00
        E 480 90 19 67
        E 0 90 31 67
        E 0 90 49 67
        E 0 90 61 67
        E 0 90 6c 66
        E 120 80 19 00
        E 0 80 31 00
        E 0 80 49 00
        E 0 80 61 00
        E 0 80 6c 00
        E 360 90 31 67
        E 0 90 49 67
        E 0 90 61 67
        E 120 80 31 00
        E 0 80 49 00
        E 0 80 61 00
        E 360 90 19 66
        E 0 90 31 66
        E 0 90 49 66
        E 0 90 61 66
        E 480 80 19 00
        E 0 80 31 00
        E 0 80 49 00
        E 0 80 61 00
        E 480 90 19 64
        E 0 90 31 64
        E 0 90 49 64
        E 0 90 61 64
        E 120 80 19 00
        E 0 80 31 00
        E 0 80 49 00
        E 0 80 61 00
        E 120 90 31 64
        E 0 90 49 64
        E 0 90 61 64
        E 120 80 31 00
        E 0 80 49 00
        E 0 80 61 00
        E 360 93 49 64
        E 0 93 61 64
        E 120 83 49 00
        E 0 83 61 00
        E 120 90 19 69
        E 0 90 31 69
        E 0 90 49 69
        E 0 90 61 69
        E 0 90 6c 69
        E 120 80 19 00
        E 0 80 31 00
        E 0 80 49 00
        E 0 80 61 00
        E 0 80 6c 00
        E 360 90 19 69
        E 0 90 31 69
        E 0 90 49 69
        E 0 90 61 69
        E 120 80 19 00
        E 0 80 31 00
        E 0 80 49 00
        E 0 80 61 00
        E 360 90 19 6e
        E 0 90 31 6e
        E 0 90 49 6e
        E 0 90 61 6e
        E 0 90 6c 6c
        E 120 80 6c 00
        E 360 80 19 00
        E 0 80 31 00
        E 0 80 49 00
        E 0 80 61 00
        E 480 90 19 6d
        E 0 90 31 6d
        E 0 90 49 6d
        E 0 90 61 6d
        E 480 80 19 00
        E 0 80 31 00
        E 0 80 49 00
        E 0 80 61 00
        E 480 90 19 6b
        E 0 90 31 6b
        E 0 90 49 6b
        E 0 90 61 6b
        E 0 90 6c 69
        E 120 80 6c 00
        E 600 80 19 00
        E 0 80 31 00
        E 0 80 49 00
        E 0 80 61 00
        E 480 90 74 60
        E 0 93 49 69
        E 0 93 61 69
        E 120 83 49 00
        E 0 83 61 00
        E 120 90 19 69
        E 0 90 31 69
        E 0 90 49 69
        E 0 90 61 69
        E 120 80 19 00
        E 0 80 31 00
        E 0 80 49 00
        E 0 80 61 00
        E 120 90 6c 66
        E 0 93 49 67
        E 0 93 61 67
        E 120 80 6c 00
        E 0 83 49 00
        E 0 83 61 00
        E 120 90 19 67
        E 0 90 31 67
        E 0 90 49 67
        E 0 90 61 67
        E 480 80 19 00
        E 0 80 31 00
        E 0 80 49 00
        E 0 80 61 00
        E 480 90 19 66
        E 0 90 31 66
        E 0 90 49 66
        E 0 90 61 66
        E 480 80 19 00
        E 0 80 31 00
        E 0 80 49 00
        E 0 80 61 00
        E 480 90 19 64
        E 0 90 31 64
        E 0 90 49 64
        E 0 90 61 64
        E 120 80 74 00
        E 1320 80 19 00
        E 0 80 31 00
        E 0 80 49 00
        E 0 80 61 00
        E 480 90 19 6e
        E 0 90 31 6e
        E 0 90 49 6e
        E 0 90 61 6e
        E 0 90 6c 6c
        E 120 80 6c 00
        E 360 80 19 00
        E 0 80 31 00
        E 0 80 49 00
        E 0 80 61 00
        E 480 90 19 6d
        E 0 90 31 6d
        E 0 90 49 6d
        E 0 90 61 6d
        E 480 80 19 00
        E 0 80 31 00
        E 0 80 49 00
        E 0 80 61 00
        E 480 90 19 6b
        E 0 90 31 6b
        E 0 90 49 6b
        E 0 90 61 6b
        E 0 90 6c 69
        E 120 80 6c 00
        E 360 80 19 00
        E 0 80 31 00
        E 0 80 49 00
        E 0 80 61 00
        E 480 90 19 69
        E 0 90 31 69
        E 0 90 49 69
        E 0 90 61 69
        E 480 80 19 00
        E 0 80 31 00
        E 0 80 49 00
        E 0 80 61 00
        E 480 90 19 67
        E 0 90 31 67
        E 0 90 49 67
        E 0 90 61 67
        E 0 90 6c 66
        E 120 80 6c 00
        E 360 80 19 00
        E 0 80 31 00
        E 0 80 49 00
        E 0 80 61 00
        E 480 90 19 66
        E 0 90 31 66
        E 0 90 49 66
        E 0 90 61 66
        E 480 80 19 00
        E 0 80 31 00
        E 0 80 49 00
        E 0 80 61 00
        E 480 90 19 64
        E 0 90 31 64
        E 0 90 49 64
        E 0 90 61 64
        E 1440 80 19 00
        E 0 80 31 00
        E 0 80 49 00
        E 0 80 61 00
        E 240 90 6c 6c
        E 0 93 49 6e
        E 0 93 61 6e
        E 120 80 6c 00
        E 0 83 49 00
        E 0 83 61 00
        E 120 90 19 6e
        E 0 90 31 6e
        E 0 90 49 6e
        E 0 90 61 6e
        E 480 80 19 00
        E 0 80 31 00
        E 0 80 49 00
        E 0 80 61 00
        E 480 90 19 6d
        E 0 90 31 6d
        E 0 90 49 6d
        E 0 90 61 6d
        E 480 80 19 00
        E 0 80 31 00
        E 0 80 49 00
        E 0 80 61 00
        E 480 90 19 6b
        E 0 90 31 6b
        E 0 90 49 6b
        E 0 90 61 6b
        E 0 90 6c 69
        E 120 80 6c 00
        E 840 80 19 00
        E 0 80 31 00
        E 0 80 49 00
        E 0 80 61 00
        E 240 93 49 69
        E 0 93 61 69
        E 120 83 49 00
        E 0 83 61 00
        E 120 90 19 69
        E 0 90 31 69
        E 0 90 49 69
        E 0 90 61 69
        E 120 80 19 00
        E 0 80 31 00
        E 0 80 49 00
        E 0 80 61 00
        E 120 93 49 69
        E 0 93 61 69
        E 120 83 49 00
        E 0 83 61 00
        E 120 90 19 67
        E 0 90 31 67
        E 0 90 49 67
        E 0 90 61 67
        E 0 90 6c 66
        E 120 80 6c 00
        E 1320 80 19 00
        E 0 80 31 00
        E 0 80 49 00
        E 0 80 61 00
        E 480 90 19 69
        E 0 90 31 69
        E 0 90 49 69
        E 0 90 61 69
        E 0 90 6c 69
        E 120 80 19 00
        E 0 80 31 00
        E 0 80 49 00
        E 0 80 61 00
        E 0 80 6c 00
        E 120 93 49 69
        E 0 93 61 69
        E 120 83 49 00
        E 0 83 61 00
        E 120 90 19 69
        E 0 90 31 69
        E 0 90 49 69
        E 0 90 61 69
        E 960 80 19 00
        E 0 80 31 00
        E 0 80 49 00
        E 0 80 61 00
        E 480 90 19 6e
        E 0 90 31 6e
        E 0 90 49 6e
        E 0 90 61 6e
        E 0 90 6c 6c
        E 120 80 6c 00
        E 360 80 19 00
        E 0 80 31 00
        E 0 80 49 00
        E 0 80 61 00
        E 480 90 19 6d
        E 0 90 31 6d
        E 0 90 49 6d
        E 0 90 61 6d
        E 480 80 19 00
        E 0 80 31 00
        E 0 80 49 00
        E 0 80 61 00
        E 480 90 19 6b
        E 0 90 31 6b
        E 0 90 49 6b
        E 0 90 61 6b
        E 0 90 6c 69
        E 120 80 6c 00
        E 360 80 19 00
        E 0 80 31 00
        E 0 80 49 00
        E 0 80 61 00
        E 480 90 19 69
        E 0 90 31 69
        E 0 90 49 69
        E 0 90 61 69
        E 480 80 19 00
        E 0 80 31 00
        E 0 80 49 00
        E 0 80 61 00
        E 480 90 19 67
        E 0 90 31 67
        E 0 90 49 67
        E 0 90 61 67
        E 0 90 6c 66
        E 120 80 6c 00
        E 360 80 19 00
        E 0 80 31 00
        E 0 80 49 00
        E 0 80 61 00
        E 480 90 19 66
        E 0 90 31 66
        E 0 90 49 66
        E 0 90 61 66
        E 480 80 19 00
        E 0 80 31 00
        E 0 80 49 00
        E 0 80 61 00
        E 480 90 19 64
        E 0 90 31 64
        E 0 90 49 64
        E 0 90 61 64
        E 960 80 19 00
        E 0 80 31 00
        E 0 80 49 00
        E 0 80 61 00
        E 240 90 49 69
        E 0 90 61 69
        E 0 90 6c 69
        E 120 80 49 00
        E 0 80 61 00
        E 0 80 6c 00
        E 120 90 19 6b
        E 0 90 31 6b
        E 0 90 49 6b
        E 0 90 61 6b
        E 120 80 19 00
        E 0 80 31 00
        E 0 80 49 00
        E 0 80 61 00
        E 360 90 19 6e
        E 0 90 31 6e
        E 0 90 49 6e
        E 0 90 61 6e
        E 0 90 6c 6c
        E 0 90 74 60
        E 120 80 6c 00
        E 360 80 19 00
        E 0 80 31 00
        E 0 80 49 00
        E 0 80 61 00
        E 480 90 19 6d
        E 0 90 31 6d
        E 0 90 49 6d
        E 0 90 61 6d
        E 480 80 19 00
        E 0 80 31 00
        E 0 80 49 00
        E 0 80 61 00
        E 480 90 19 6b
        E 0 90 31 6b
        E 0 90 49 6b
        E 0 90 61 6b
        E 0 90 6c 69
        E 120 80 74 00
        E 0 80 6c 00
        E 1320 80 19 00
        E 0 80 31 00
        E 0 80 49 00
        E 0 80 61 00
        E 480 90 19 67
        E 0 90 31 67
        E 0 90 49 67
        E 0 90 61 67
        E 0 90 6c 66
        E 120 80 19 00
        E 0 80 31 00
        E 0 80 49 00
        E 0 80 61 00
        E 0 80 6c 00
        E 360 90 31 67
        E 0 90 49 67
        E 0 90 61 67
        E 120 80 31 00
        E 0 80 49 00
        E 0 80 61 00
        E 360 90 19 66
        E 0 90 31 66
        E 0 90 49 66
        E 0 90 61 66
        E 480 80 19 00
        E 0 80 31 00
        E 0 80 49 00
        E 0 80 61 00
        E 480 90 19 64
        E 0 90 31 64
        E 0 90 49 64
        E 0 90 61 64
        E 1440 80 19 00
        E 0 80 31 00
        E 0 80 49 00
        E 0 80 61 00
        E 240 93 49 6b
        E 0 93 61 6b
        E 120 83 49 00
        E 0 83 61 00
        E 120 90 19 6e
        E 0 90 31 6e
        E 0 90 49 6e
        E 0 90 61 6e
        E 0 90 6c 6c
        E 120 80 6c 00
        E 360 80 19 00
        E 0 80 31 00
        E 0 80 49 00
        E 0 80 61 00
        E 480 90 19 6d
        E 0 90 31 6d
        E 0 90 49 6d
        E 0 90 61 6d
        E 480 80 19 00
        E 0 80 31 00
        E 0 80 49 00
        E 0 80 61 00
        E 480 90 19 6b
        E 0 90 31 6b
        E 0 90 49 6b
        E 0 90 61 6b
        E 0 90 6c 69
        E 120 80 6c 00
        E 360 80 19 00
        E 0 80 31 00
        E 0 80 49 00
        E 0 80 61 00
        E 480 90 19 69
        E 0 90 31 69
        E 0 90 49 69
        E 0 90 61 69
        E 480 80 19 00
        E 0 80 31 00
        E 0 80 49 00
        E 0 80 61 00
        E 480 90 19 67
        E 0 90 31 67
        E 0 90 49 67
        E 0 90 61 67
        E 0 90 6c 66
        E 120 80 6c 00
        E 360 80 19 00
        E 0 80 31 00
        E 0 80 49 00
        E 0 80 61 00
        E 480 90 19 66
        E 0 90 31 66
        E 0 90 49 66
        E 0 90 61 66
        E 480 80 19 00
        E 0 80 31 00
        E 0 80 49 00
        E 0 80 61 00
        E 480 90 19 64
        E 0 90 31 64
        E 0 90 49 64
        E 0 90 61 64
        E 1440 80 19 00
        E 0 80 31 00
        E 0 80 49 00
        E 0 80 61 00
        E 480 90 19 6e
        E 0 90 31 6e
        E 0 90 49 6e
        E 0 90 61 6e
        E 0 90 6c 6c
        E 120 80 6c 00
        E 360 80 19 00
        E 0 80 31 00
        E 0 80 49 00
        E 0 80 61 00
        E 480 90 19 6d
        E 0 90 31 6d
        E 0 90 49 6d
        E 0 90 61 6d
        E 480 80 19 00
        E 0 80 31 00
        E 0 80 49 00
        E 0 80 61 00
        E 480 90 19 6b
        E 0 90 31 6b
        E 0 90 49 6b
        E 0 90 61 6b
        E 0 90 6c 69
        E 120 80 6c 00
        E 840 80 19 00
        E 0 80 31 00
        E 0 80 49 00
        E 0 80 61 00
        E 480 90 31 69
        E 0 90 49 69
        E 0 90 61 69
        E 120 80 31 00
        E 0 80 49 00
        E 0 80 61 00
        E 360 90 19 67
        E 0 90 31 67
        E 0 90 49 67
        E 0 90 61 67
        E 0 90 6c 67
        E 120 80 6c 00
        E 360 80 19 00
        E 0 80 31 00
        E 240 80 49 00
        E 0 80 61 00
        E 240 90 19 67
        E 0 90 31 67
        E 0 90 49 67
        E 0 90 61 67
        E 480 80 19 00
        E 0 80 31 00
        E 0 80 49 00
        E 0 80 61 00
        E 480 90 19 69
        E 0 90 31 69
        E 0 90 49 69
        E 0 90 61 69
        E 120 80 19 00
        E 0 80 31 00
        E 0 80 49 00
        E 0 80 61 00
        E 120 93 49 69
        E 0 93 61 69
        E 120 83 49 00
        E 0 83 61 00
        E 120 90 19 69
        E 0 90 31 69
        E 0 90 49 69
        E 0 90 61 69
        E 480 80 19 00
        E 0 80 31 00
        E 240 80 49 00
        E 0 80 61 00
        E 240 90 19 69
        E 0 90 31 69
        E 0 90 49 69
        E 0 90 61 69
        E 120 80 19 00
        E 0 80 31 00
        E 0 80 49 00
        E 0 80 61 00
        <X 360 0
          /wFbYmVnaW5fcGIgc29uZ190cmFpbmVyX3BiXzJd
        >
        E 0 90 19 6e
        E 0 90 31 6e
        E 0 90 49 6e
        E 0 90 61 6e
        E 0 90 6c 6c
        E 120 80 6c 00
        E 1320 80 19 00
        E 0 80 31 00
        E 0 80 49 00
        E 0 80 61 00
        <X 480 0
          /wFbcGJfbm9ybSBzb25nX3RyYWluZXJfcGJfMl0=
        >
        E 0 90 18 6c
        E 0 90 30 6c
        E 0 90 48 6c
        E 0 90 60 6c
        E 1440 80 18 00
        E 0 80 30 00
        E 0 80 48 00
        E 0 80 60 00
        E 480 90 19 6e
        E 0 90 31 6e
        E 0 90 49 6e
        E 0 90 61 6e
        E 1680 80 19 00
        E 0 80 31 00
        E 240 80 49 00
        E 0 80 61 00
        E 240 90 6c 67
        E 0 93 30 67
        E 0 93 48 67
        E 0 93 60 67
        E 120 80 6c 00
        E 0 83 30 00
        E 0 83 48 00
        E 0 83 60 00
        E 120 90 18 67
        E 0 90 30 67
        E 0 90 48 67
        E 0 90 60 67
        E 120 80 18 00
        E 0 80 30 00
        E 360 80 48 00
        E 0 80 60 00
        E 240 93 30 67
        E 0 93 48 67
        E 0 93 60 67
        E 120 83 30 00
        E 0 83 48 00
        E 0 83 60 00
        E 120 93 30 67
        E 0 93 48 67
        E 0 93 60 67
        E 120 83 30 00
        E 0 83 48 00
        E 0 83 60 00
        E 120 93 48 67
        E 0 93 60 67
        E 120 83 48 00
        E 0 83 60 00
        <X 120 0
          /wFbZW5kX3BiIHNvbmdfdHJhaW5lcl9wYl8yXQ==
        >
        <X 0 0
          /wFbYmVnaW5fcGIgc29uZ190cmFpbmVyX3BiXzNd
        >
        E 0 90 19 67
        E 0 90 31 67
        E 0 90 49 67
        E 0 90 61 67
        E 480 80 19 00
        E 0 80 31 00
        E 240 80 49 00
        E 0 80 61 00
        E 240 90 19 67
        E 0 90 31 67
        E 0 90 49 67
        E 0 90 61 67
        <X 960 0
          /wFbcGJfbm9ybSBzb25nX3RyYWluZXJfcGJfM10=
        >
        E 0 80 19 00
        E 0 80 31 00
        E 240 80 49 00
        E 0 80 61 00
        E 240 90 18 67
        E 0 90 30 67
        E 0 90 48 67
        E 0 90 60 67
        E 120 80 18 00
        E 0 80 30 00
        E 0 80 48 00
        E 0 80 60 00
        E 120 90 48 69
        E 0 90 60 69
        E 120 80 48 00
        E 0 80 60 00
        E 360 90 31 67
        E 0 90 49 67
        E 0 90 61 67
        E 120 80 31 00
        E 0 80 49 00
        E 0 80 61 00
        E 360 93 49 69
        E 0 93 61 69
        E 120 83 49 00
        E 0 83 61 00
        E 120 90 19 69
        E 0 90 31 69
        E 0 90 49 69
        E 0 90 61 69
        E 480 80 19 00
        E 0 80 31 00
        E 240 80 49 00
        E 0 80 61 00
        E 240 90 19 69
        E 0 90 31 69
        E 0 90 49 69
        E 0 90 61 69
        E 1920 80 19 00
        E 0 80 31 00
        E 0 80 49 00
        E 0 80 61 00
        E 240 93 49 69
        E 0 93 61 69
        E 120 83 49 00
        E 0 83 61 00
        E 120 90 19 69
        E 0 90 31 69
        E 0 90 49 69
        E 0 90 61 69
        E 120 80 19 00
        E 0 80 31 00
        E 0 80 49 00
        E 0 80 61 00
        E 120 93 49 67
        E 0 93 61 67
        E 120 83 49 00
        E 0 83 61 00
        <X 120 0
          /wFbYmVnaW5fcGIgc29uZ190cmFpbmVyX3BiXzRd
        >
        <X 0 0
          /wFbZW5kX3BiIHNvbmdfdHJhaW5lcl9wYl8zXQ==
        >
        E 0 90 19 67
        E 0 90 31 67
        E 0 90 49 67
        E 0 90 61 67
        E 0 90 74 60
        E 480 80 19 00
        E 0 80 31 00
        E 240 80 49 00
        E 0 80 61 00
        E 240 90 19 67
        E 0 90 31 67
        E 0 90 49 67
        E 0 90 61 67
        E 1200 80 19 00
        E 0 80 31 00
        <X 240 0
          /wFbcGJfbm9ybSBzb25nX3RyYWluZXJfcGJfNF0=
        >
        E 0 80 49 00
        E 0 80 61 00
        E 240 90 1b 69
        E 0 90 33 69
        E 0 90 4b 69
        E 0 90 63 69
        E 120 80 1b 00
        E 0 80 33 00
        E 0 80 4b 00
        E 0 80 63 00
        E 360 90 31 67
        E 0 90 49 67
        E 0 90 61 67
        E 120 80 31 00
        E 0 80 49 00
        E 0 80 61 00
        E 600 90 19 69
        E 0 90 31 69
        E 0 90 49 69
        E 0 90 61 69
        E 0 90 6c 69
        E 120 80 74 00
        E 0 80 6c 00
        E 3240 80 19 00
        E 0 80 31 00
        E 0 80 49 00
        E 0 80 61 00
        E 480 90 1b 6b
        E 0 90 33 6b
        E 0 90 4b 6b
        E 0 90 63 6b
        E 3360 80 1b 00
        E 0 80 33 00
        E 0 80 4b 00
        E 0 80 63 00
        <X 480 0
          /wFbZW5kX3BiIHNvbmdfdHJhaW5lcl9wYl80XQ==
        >
        E 0 90 19 6e
        E 0 90 31 6e
        E 0 90 49 6e
        E 0 90 61 6e
        E 0 90 6c 6c
        E 120 80 6c 00
        E 360 80 19 00
        E 0 80 31 00
        E 0 80 49 00
        E 0 80 61 00
        E 480 90 19 6d
        E 0 90 31 6d
        E 0 90 49 6d
        E 0 90 61 6d
        E 480 80 19 00
        E 0 80 31 00
        E 0 80 49 00
        E 0 80 61 00
        E 480 90 19 6b
        E 0 90 31 6b
        E 0 90 49 6b
        E 0 90 61 6b
        E 0 90 6c 69
        E 120 80 6c 00
        E 360 80 19 00
        E 0 80 31 00
        E 0 80 49 00
        E 0 80 61 00
        E 480 90 19 69
        E 0 90 31 69
        E 0 90 49 69
        E 0 90 61 69
        E 480 80 19 00
        E 0 80 31 00
        E 0 80 49 00
        E 0 80 61 00
        E 480 90 19 67
        E 0 90 31 67
        E 0 90 49 67
        E 0 90 61 67
        E 0 90 6c 66
        E 120 80 6c 00
        E 360 80 19 00
        E 0 80 31 00
        E 0 80 49 00
        E 0 80 61 00
        E 480 90 19 66
        E 0 90 31 66
        E 0 90 49 66
        E 0 90 61 66
        E 480 80 19 00
        E 0 80 31 00
        E 0 80 49 00
        E 0 80 61 00
        E 480 90 19 64
        E 0 90 31 64
        E 0 90 49 64
        E 0 90 61 64
        E 960 80 19 00
        E 0 80 31 00
        E 0 80 49 00
        E 0 80 61 00
        E 480 90 31 69
        E 0 90 49 69
        E 0 90 61 69
        E 0 90 6c 69
        E 120 80 31 00
        E 0 80 49 00
        E 0 80 61 00
        E 0 80 6c 00
        E 360 90 19 6e
        E 0 90 31 6e
        E 0 90 49 6e
        E 0 90 61 6e
        E 0 90 6c 6c
        E 120 80 6c 00
        E 360 80 19 00
        E 0 80 31 00
        E 0 80 49 00
        E 0 80 61 00
        E 480 90 19 6d
        E 0 90 31 6d
        E 0 90 49 6d
        E 0 90 61 6d
        E 480 80 19 00
        E 0 80 31 00
        E 0 80 49 00
        E 0 80 61 00
        E 480 90 19 6b
        E 0 90 31 6b
        E 0 90 49 6b
        E 0 90 61 6b
        E 0 90 6c 69
        E 120 80 6c 00
        E 360 80 19 00
        E 0 80 31 00
        E 0 80 49 00
        E 0 80 61 00
        E 480 90 19 69
        E 0 90 31 69
        E 0 90 49 69
        E 0 90 61 69
        E 480 80 19 00
        E 0 80 31 00
        E 0 80 49 00
        E 0 80 61 00
        E 480 90 19 67
        E 0 90 31 67
        E 0 90 49 67
        E 0 90 61 67
        E 0 90 6c 66
        E 120 80 6c 00
        E 360 80 19 00
        E 0 80 31 00
        E 0 80 49 00
        E 0 80 61 00
        E 480 90 19 66
        E 0 90 31 66
        E 0 90 49 66
        E 0 90 61 66
        E 480 80 19 00
        E 0 80 31 00
        E 0 80 49 00
        E 0 80 61 00
        E 480 90 19 64
        E 0 90 31 64
        E 0 90 49 64
        E 0 90 61 64
        E 120 80 19 00
        E 0 80 31 00
        E 0 80 49 00
        E 0 80 61 00
        E 360 90 19 64
        E 0 90 31 64
        E 0 90 49 64
        E 0 90 61 64
        E 960 80 19 00
        E 0 80 31 00
        E 240 80 49 00
        E 0 80 61 00
        E 240 90 19 6e
        E 0 90 31 6e
        E 0 90 49 6e
        E 0 90 61 6e
        E 0 90 6c 6c
        E 120 80 6c 00
        E 360 80 19 00
        E 0 80 31 00
        E 0 80 49 00
        E 0 80 61 00
        E 480 90 19 6d
        E 0 90 31 6d
        E 0 90 49 6d
        E 0 90 61 6d
        E 480 80 19 00
        E 0 80 31 00
        E 0 80 49 00
        E 0 80 61 00
        E 480 90 19 6b
        E 0 90 31 6b
        E 0 90 49 6b
        E 0 90 61 6b
        E 0 90 6c 69
        E 120 80 6c 00
        E 840 80 19 00
        E 0 80 31 00
        E 0 80 49 00
        E 0 80 61 00
        E 240 93 49 69
        E 0 93 61 69
        E 120 83 49 00
        E 0 83 61 00
        E 120 90 19 69
        E 0 90 31 69
        E 0 90 49 69
        E 0 90 61 69
        E 120 80 19 00
        E 0 80 31 00
        E 0 80 49 00
        E 0 80 61 00
        E 120 90 6c 66
        E 0 93 49 67
        E 0 93 61 67
        E 120 80 6c 00
        E 0 83 49 00
        E 0 83 61 00
        E 120 90 19 67
        E 0 90 31 67
        E 0 90 49 67
        E 0 90 61 67
        E 480 80 19 00
        E 0 80 31 00
        E 0 80 49 00
        E 0 80 61 00
        E 480 90 19 66
        E 0 90 31 66
        E 0 90 49 66
        E 0 90 61 66
        E 480 80 19 00
        E 0 80 31 00
        E 0 80 49 00
        E 0 80 61 00
        E 480 90 19 64
        E 0 90 31 64
        E 0 90 49 64
        E 0 90 61 64
        E 960 80 19 00
        E 0 80 31 00
        E 240 80 49 00
        E 0 80 61 00
        E 240 93 31 64
        E 0 93 49 64
        E 0 93 61 64
        E 120 83 31 00
        E 0 83 49 00
        E 0 83 61 00
        E 360 90 19 6e
        E 0 90 31 6e
        E 0 90 49 6e
        E 0 90 61 6e
        E 0 90 6c 6c
        E 120 80 6c 00
        E 360 80 19 00
        E 0 80 31 00
        E 0 80 49 00
        E 0 80 61 00
        E 480 90 19 6d
        E 0 90 31 6d
        E 0 90 49 6d
        E 0 90 61 6d
        E 480 80 19 00
        E 0 80 31 00
        E 0 80 49 00
        E 0 80 61 00
        E 480 90 19 6b
        E 0 90 31 6b
        E 0 90 49 6b
        E 0 90 61 6b
        E 0 90 6c 69
        E 120 80 6c 00
        E 360 80 19 00
        E 0 80 31 00
        E 0 80 49 00
        E 0 80 61 00
        E 480 90 19 69
        E 0 90 31 69
        E 0 90 49 69
        E 0 90 61 69
        E 480 80 19 00
        E 0 80 31 00
        E 0 80 49 00
        E 0 80 61 00
        E 480 90 19 67
        E 0 90 31 67
        E 0 90 49 67
        E 0 90 61 67
        E 0 90 6c 66
        E 120 80 6c 00
        E 360 80 19 00
        E 0 80 31 00
        E 0 80 49 00
        E 0 80 61 00
        E 480 90 19 66
        E 0 90 31 66
        E 0 90 49 66
        E 0 90 61 66
        E 480 80 19 00
        E 0 80 31 00
        E 0 80 49 00
        E 0 80 61 00
        E 480 90 19 64
        E 0 90 31 64
        E 0 90 49 64
        E 0 90 61 64
        E 0 90 6c 69
        E 0 90 74 60
        E 120 80 19 00
        E 0 80 31 00
        E 0 80 49 00
        E 0 80 61 00
        E 0 80 6c 00
        E 360 90 19 64
        E 0 90 31 64
        E 0 90 49 64
        E 0 90 61 64
        E 480 80 19 00
        E 0 80 31 00
        E 0 80 49 00
        E 0 80 61 00
        E 240 93 49 64
        E 0 93 61 64
        E 120 83 49 00
        E 0 83 61 00
        E 120 90 19 69
        E 0 90 31 69
        E 0 90 49 69
        E 0 90 61 69
        E 120 80 19 00
        E 0 80 31 00
        E 0 80 49 00
        E 0 80 61 00
        E 120 90 49 69
        E 0 90 61 6b
        E 120 80 49 00
        E 0 80 61 00
        E 120 90 19 6e
        E 0 90 31 6e
        E 0 90 49 6e
        E 0 90 61 6e
        E 0 90 6c 6c
        E 120 80 6c 00
        E 360 80 74 00
        E 0 80 19 00
        E 0 80 31 00
        E 0 80 49 00
        E 0 80 61 00
        E 480 90 19 6d
        E 0 90 31 6d
        E 0 90 49 6d
        E 0 90 61 6d
        E 480 80 19 00
        E 0 80 31 00
        E 0 80 49 00
        E 0 80 61 00
        E 480 90 19 6b
        E 0 90 31 6b
        E 0 90 49 6b
        E 0 90 61 6b
        E 0 90 6c 69
        E 120 80 6c 00
        E 360 80 19 00
        E 0 80 31 00
        E 0 80 49 00
        E 0 80 61 00
        E 480 90 19 69
        E 0 90 31 69
        E 0 90 49 69
        E 0 90 61 69
        E 480 80 19 00
        E 0 80 31 00
        E 0 80 49 00
        E 0 80 61 00
        E 480 90 19 67
        E 0 90 31 67
        E 0 90 49 67
        E 0 90 61 67
        E 0 90 6c 67
        E 120 80 6c 00
        E 1320 80 19 00
        E 0 80 31 00
        E 0 80 49 00
        E 0 80 61 00
        E 480 90 19 69
        E 0 90 31 69
        E 0 90 49 69
        E 0 90 61 69
        E 120 80 19 00
        E 0 80 31 00
        E 0 80 49 00
        E 0 80 61 00
        E 360 90 19 69
        E 0 90 31 69
        E 0 90 49 69
        E 0 90 61 69
        E 120 80 19 00
        E 0 80 31 00
        E 480 80 49 00
        E 0 80 61 00
        E 120 90 31 69
        E 0 90 49 69
        E 0 90 61 69
        E 120 80 31 00
        E 0 80 49 00
        E 0 80 61 00
        E 360 93 49 69
        E 0 93 61 69
        E 120 83 49 00
        E 0 83 61 00
        E 120 90 19 6e
        E 0 90 31 6e
        E 0 90 49 6e
        E 0 90 61 6e
        E 0 90 6c 6c
        E 120 80 6c 00
        E 360 80 19 00
        E 0 80 31 00
        E 0 80 49 00
        E 0 80 61 00
        E 480 90 19 6d
        E 0 90 31 6d
        E 0 90 49 6d
        E 0 90 61 6d
        E 480 80 19 00
        E 0 80 31 00
        E 0 80 49 00
        E 0 80 61 00
        E 480 90 19 6b
        E 0 90 31 6b
        E 0 90 49 6b
        E 0 90 61 6b
        E 0 90 6c 69
        E 120 80 6c 00
        E 840 80 19 00
        E 0 80 31 00
        E 0 80 49 00
        E 0 80 61 00
        E 240 93 49 69
        E 0 93 61 69
        E 120 83 49 00
        E 0 83 61 00
        E 120 90 19 69
        E 0 90 31 69
        E 0 90 49 69
        E 0 90 61 69
        E 120 80 19 00
        E 0 80 31 00
        E 0 80 49 00
        E 0 80 61 00
        E 120 90 6c 67
        E 0 93 49 67
        E 0 93 61 67
        E 120 80 6c 00
        E 0 83 49 00
        E 0 83 61 00
        E 120 90 19 67
        E 0 90 31 67
        E 0 90 49 67
        E 0 90 61 67
        E 1440 80 19 00
        E 0 80 31 00
        E 0 80 49 00
        E 0 80 61 00
        E 240 93 49 69
        E 0 93 61 69
        E 120 83 49 00
        E 0 83 61 00
        E 120 90 19 69
        E 0 90 31 69
        E 0 90 49 69
        E 0 90 61 69
        E 1440 80 19 00
        E 0 80 31 00
        E 0 80 49 00
        E 0 80 61 00
        E 480 90 19 6e
        E 0 90 31 6e
        E 0 90 49 6e
        E 0 90 61 6e
        E 0 90 6c 6c
        E 120 80 6c 00
        E 360 80 19 00
        E 0 80 31 00
        E 0 80 49 00
        E 0 80 61 00
        E 480 90 19 6d
        E 0 90 31 6d
        E 0 90 49 6d
        E 0 90 61 6d
        E 480 80 19 00
        E 0 80 31 00
        E 0 80 49 00
        E 0 80 61 00
        E 480 90 19 6b
        E 0 90 31 6b
        E 0 90 49 6b
        E 0 90 61 6b
        E 0 90 6c 69
        E 120 80 6c 00
        E 840 80 19 00
        E 0 80 31 00
        E 0 80 49 00
        E 0 80 61 00
        E 240 93 49 69
        E 0 93 61 69
        E 120 83 49 00
        E 0 83 61 00
        E 120 90 19 69
        E 0 90 31 69
        E 0 90 49 69
        E 0 90 61 69
        E 120 80 19 00
        E 0 80 31 00
        E 0 80 49 00
        E 0 80 61 00
        E 120 90 6c 66
        E 0 93 49 67
        E 0 93 61 67
        E 120 80 6c 00
        E 0 83 49 00
        E 0 83 61 00
        E 120 90 19 67
        E 0 90 31 67
        E 0 90 49 67
        E 0 90 61 67
        E 480 80 19 00
        E 0 80 31 00
        E 0 80 49 00
        E 0 80 61 00
        E 480 90 19 66
        E 0 90 31 66
        E 0 90 49 66
        E 0 90 61 66
        E 480 80 19 00
        E 0 80 31 00
        E 0 80 49 00
        E 0 80 61 00
        E 480 90 19 64
        E 0 90 31 64
        E 0 90 49 64
        E 0 90 61 64
        E 1440 80 19 00
        E 0 80 31 00
        E 0 80 49 00
        E 0 80 61 00
        E 480 90 19 6e
        E 0 90 31 6e
        E 0 90 49 6e
        E 0 90 61 6e
        E 0 90 6c 6c
        E 0 90 74 60
        E 120 80 6c 00
        E 360 80 19 00
        E 0 80 31 00
        E 0 80 49 00
        E 0 80 61 00
        E 480 90 19 6d
        E 0 90 31 6d
        E 0 90 49 6d
        E 0 90 61 6d
        E 480 80 19 00
        E 0 80 31 00
        E 0 80 49 00
        E 0 80 61 00
        E 480 90 19 6b
        E 0 90 31 6b
        E 0 90 49 6b
        E 0 90 61 6b
        E 0 90 6c 69
        E 120 80 6c 00
        E 360 80 19 00
        E 0 80 31 00
        E 0 80 49 00
        E 0 80 61 00
        E 480 90 19 69
        E 0 90 31 69
        E 0 90 49 69
        E 0 90 61 69
        E 120 80 74 00
        E 360 80 19 00
        E 0 80 31 00
        E 0 80 49 00
        E 0 80 61 00
        E 480 90 19 67
        E 0 90 31 67
        E 0 90 49 67
        E 0 90 61 67
        E 0 90 6c 66
        E 120 80 6c 00
        E 360 80 19 00
        E 0 80 31 00
        E 0 80 49 00
        E 0 80 61 00
        E 480 90 19 66
        E 0 90 31 66
        E 0 90 49 66
        E 0 90 61 66
        E 480 80 19 00
        E 0 80 31 00
        E 0 80 49 00
        E 0 80 61 00
        E 480 90 19 64
        E 0 90 31 64
        E 0 90 49 64
        E 0 90 61 64
        E 120 80 19 00
        E 0 80 31 00
        E 0 80 49 00
        E 0 80 61 00
        E 360 90 19 64
        E 0 90 31 64
        E 0 90 49 64
        E 0 90 61 64
        E 960 80 19 00
        E 0 80 31 00
        E 0 80 49 00
        E 0 80 61 00
        E 480 90 19 6e
        E 0 90 31 6e
        E 0 90 49 6e
        E 0 90 61 6e
        E 0 90 6c 6c
        E 120 80 6c 00
        E 360 80 19 00
        E 0 80 31 00
        E 0 80 49 00
        E 0 80 61 00
        E 480 90 19 6d
        E 0 90 31 6d
        E 0 90 49 6d
        E 0 90 61 6d
        E 480 80 19 00
        E 0 80 31 00
        E 0 80 49 00
        E 0 80 61 00
        E 480 90 19 6b
        E 0 90 31 6b
        E 0 90 49 6b
        E 0 90 61 6b
        E 0 90 6c 69
        E 120 80 6c 00
        E 360 80 19 00
        E 0 80 31 00
        E 0 80 49 00
        E 0 80 61 00
        E 480 90 19 69
        E 0 90 31 69
        E 0 90 49 69
        E 0 90 61 69
        E 480 80 19 00
        E 0 80 31 00
        E 0 80 49 00
        E 0 80 61 00
        E 480 90 19 67
        E 0 90 31 67
        E 0 90 49 67
        E 0 90 61 67
        E 0 90 6c 67
        E 120 80 6c 00
        E 360 80 19 00
        E 0 80 31 00
        E 240 80 49 00
        E 0 80 61 00
        E 240 90 19 67
        E 0 90 31 67
        E 0 90 49 67
        E 0 90 61 67
        E 480 80 19 00
        E 0 80 31 00
        E 0 80 49 00
        E 0 80 61 00
        E 480 90 19 69
        E 0 90 31 69
        E 0 90 49 69
        E 0 90 61 69
        E 120 80 19 00
        E 0 80 31 00
        E 0 80 49 00
        E 0 80 61 00
        E 360 90 19 69
        E 0 90 31 69
        E 0 90 49 69
        E 0 90 61 69
        E 960 80 19 00
        E 0 80 31 00
        E 0 80 49 00
        E 0 80 61 00
        E 240 90 61 69
        E 0 93 49 69
        E 120 80 61 00
        E 0 83 49 00
        E 120 90 18 67
        E 0 90 30 67
        E 0 90 48 67
        E 0 90 60 67
        E 0 90 6c 67
        E 120 80 6c 00
        E 360 80 18 00
        E 240 80 30 00
        E 120 80 48 00
        E 0 80 60 00
        E 120 90 1a 69
        E 0 90 32 69
        E 0 90 4a 69
        E 0 90 62 69
        E 480 80 1a 00
        E 0 80 32 00
        E 0 80 4a 00
        E 0 80 62 00
        E 480 90 18 6c
        E 0 90 30 6c
        E 0 90 48 6c
        E 0 90 60 6c
        E 0 90 6c 6c
        E 120 80 6c 00
        E 840 80 18 00
        E 0 80 30 00
        E 0 80 48 00
        E 0 80 60 00
        E 240 93 48 6e
        E 0 93 60 6e
        E 120 83 48 00
        E 0 83 60 00
        E 120 90 30 6e
        E 0 90 48 6e
        E 0 90 60 6e
        E 120 80 30 00
        E 0 80 48 00
        E 0 80 60 00
        E 120 93 48 6e
        E 0 93 60 6e
        E 120 83 48 00
        E 0 83 60 00
        E 120 90 19 6e
        E 0 90 31 6e
        E 0 90 49 6e
        E 0 90 61 6e
        E 2160 80 19 00
        E 0 80 31 00
        E 240 80 49 00
        E 0 80 61 00
        E 240 90 19 6b
        E 0 90 31 6b
        E 0 90 49 6b
        E 0 90 61 6b
        E 0 90 6c 69
        E 120 80 19 00
        E 0 80 31 00
        E 0 80 49 00
        E 0 80 61 00
        E 0 80 6c 00
        E 360 90 31 69
        E 0 90 49 69
        E 0 90 61 69
        E 120 80 31 00
        E 0 80 49 00
        E 0 80 61 00
        E 360 90 6c 67
        E 0 93 49 67
        E 0 93 61 67
        E 120 80 6c 00
        E 0 83 49 00
        E 0 83 61 00
        E 120 90 19 67
        E 0 90 31 67
        E 0 90 49 67
        E 0 90 61 67
        E 480 80 19 00
        E 0 80 31 00
        E 360 80 49 00
        E 0 80 61 00
        E 120 90 19 67
        E 0 90 31 67
        E 0 90 49 67
        E 0 90 61 67
        E 1440 80 19 00
        E 0 80 31 00
        E 240 80 49 00
        E 0 80 61 00
        E 240 90 74 60
        E 0 90 18 67
        E 0 90 30 67
        E 0 90 48 67
        E 0 90 60 67
        E 120 80 18 00
        E 0 80 30 00
        E 0 80 48 00
        E 0 80 60 00
        E 120 90 48 69
        E 0 90 60 69
        E 120 80 48 00
        E 0 80 60 00
        E 600 90 19 69
        E 0 90 31 69
        E 0 90 49 69
        E 0 90 61 69
        E 480 80 19 00
        E 0 80 31 00
        E 360 80 49 00
        E 0 80 61 00
        E 120 90 19 69
        E 0 90 31 69
        E 0 90 49 69
        E 0 90 61 69
        E 120 80 74 00
        E 1800 80 19 00
        E 0 80 31 00
        E 0 80 49 00
        E 0 80 61 00
        E 960 90 19 67
        E 0 90 31 67
        E 0 90 49 67
        E 0 90 61 67
        E 2160 80 19 00
        E 0 80 31 00
        E 0 80 49 00
        E 0 80 61 00
        E 480 90 1b 69
        E 0 90 33 69
        E 0 90 4b 69
        E 0 90 63 69
        E 120 80 1b 00
        E 0 80 33 00
        E 0 80 4b 00
        E 0 80 63 00
        E 360 93 31 67
        E 0 93 49 67
        E 0 93 61 67
        E 120 83 31 00
        E 0 83 49 00
        E 0 83 61 00
        E 360 93 49 67
        E 0 93 61 67
        E 120 83 49 00
        E 0 83 61 00
        E 120 90 19 69
        E 0 90 31 69
        E 0 90 49 69
        E 0 90 61 69
        E 0 90 6c 69
        E 120 80 6c 00
        E 3240 80 19 00
        E 0 80 31 00
        E 0 80 49 00
        E 0 80 61 00
        E 480 90 1b 6b
        E 0 90 33 6b
        E 0 90 4b 6b
        E 0 90 63 6b
        E 3360 80 1b 00
        E 0 80 33 00
        E 0 80 4b 00
        E 0 80 63 00
        E 240 90 6c 6c
        E 0 93 49 6e
        E 0 93 61 6e
        E 120 80 6c 00
        E 0 83 49 00
        E 0 83 61 00
        E 120 90 19 6e
        E 0 90 31 6e
        E 0 90 49 6e
        E 0 90 61 6e
        E 480 80 19 00
        E 0 80 31 00
        E 240 80 49 00
        E 0 80 61 00
        E 240 90 74 60
        E 0 90 19 6d
        E 0 90 31 6d
        E 0 90 49 6d
        E 0 90 61 6d
        E 480 80 19 00
        E 0 80 31 00
        E 0 80 49 00
        E 0 80 61 00
        E 480 90 19 6b
        E 0 90 31 6b
        E 0 90 49 6b
        E 0 90 61 6b
        E 0 90 6c 69
        E 120 80 6c 00
        E 360 80 19 00
        E 0 80 31 00
        E 0 80 49 00
        E 0 80 61 00
        E 480 90 19 69
        E 0 90 31 69
        E 0 90 49 69
        E 0 90 61 69
        E 480 80 19 00
        E 0 80 31 00
        E 0 80 49 00
        E 0 80 61 00
        E 480 90 19 67
        E 0 90 31 67
        E 0 90 49 67
        E 0 90 61 67
        E 0 90 6c 66
        E 120 80 74 00
        E 0 80 6c 00
        E 360 80 19 00
        E 0 80 31 00
        E 0 80 49 00
        E 0 80 61 00
        E 480 90 19 66
        E 0 90 31 66
        E 0 90 49 66
        E 0 90 61 66
        E 480 80 19 00
        E 0 80 31 00
        E 0 80 49 00
        E 0 80 61 00
        E 480 90 19 64
        E 0 90 31 64
        E 0 90 49 64
        E 0 90 61 64
        E 1440 80 19 00
        E 0 80 31 00
        E 0 80 49 00
        E 0 80 61 00
        E 480 90 19 6e
        E 0 90 31 6e
        E 0 90 49 6e
        E 0 90 61 6e
        E 0 90 6c 6c
        E 120 80 6c 00
        E 360 80 19 00
        E 0 80 31 00
        E 240 80 49 00
        E 0 80 61 00
        E 240 90 19 6d
        E 0 90 31 6d
        E 0 90 49 6d
        E 0 90 61 6d
        E 480 80 19 00
        E 0 80 31 00
        E 0 80 49 00
        E 0 80 61 00
        E 480 90 19 6b
        E 0 90 31 6b
        E 0 90 49 6b
        E 0 90 61 6b
        E 0 90 6c 69
        E 120 80 6c 00
        E 360 80 19 00
        E 0 80 31 00
        E 0 80 49 00
        E 0 80 61 00
        E 480 90 19 69
        E 0 90 31 69
        E 0 90 49 69
        E 0 90 61 69
        E 480 80 19 00
        E 0 80 31 00
        E 0 80 49 00
        E 0 80 61 00
        E 480 90 19 67
        E 0 90 31 67
        E 0 90 49 67
        E 0 90 61 67
        E 0 90 6c 66
        E 120 80 6c 00
        E 360 80 19 00
        E 0 80 31 00
        E 0 80 49 00
        E 0 80 61 00
        E 480 90 19 66
        E 0 90 31 66
        E 0 90 49 66
        E 0 90 61 66
        E 480 80 19 00
        E 0 80 31 00
        E 0 80 49 00
        E 0 80 61 00
        E 480 90 19 64
        E 0 90 31 64
        E 0 90 49 64
        E 0 90 61 64
        E 120 80 19 00
        E 0 80 31 00
        E 0 80 49 00
        E 0 80 61 00
        E 360 90 19 64
        E 0 90 31 64
        E 0 90 49 64
        E 0 90 61 64
        E 480 80 19 00
        E 0 80 31 00
        E 0 80 49 00
        E 0 80 61 00
        E 240 93 49 64
        E 0 93 61 64
        E 120 83 49 00
        E 0 83 61 00
        E 120 90 19 69
        E 0 90 31 69
        E 0 90 49 69
        E 0 90 61 69
        E 0 90 6c 69
        E 120 80 19 00
        E 0 80 31 00
        E 0 80 49 00
        E 0 80 61 00
        E 0 80 6c 00
        E 120 90 49 6b
        E 0 90 61 6b
        E 120 80 49 00
        E 0 80 61 00
        E 120 90 19 6e
        E 0 90 31 6e
        E 0 90 49 6e
        E 0 90 61 6e
        E 480 80 19 00
        E 0 80 31 00
        E 240 80 49 00
        E 0 80 61 00
        E 240 90 19 6d
        E 0 90 31 6d
        E 0 90 49 6d
        E 0 90 61 6d
        E 480 80 19 00
        E 0 80 31 00
        E 0 80 49 00
        E 0 80 61 00
        E 480 90 19 6b
        E 0 90 31 6b
        E 0 90 49 6b
        E 0 90 61 6b
        E 0 90 6c 69
        E 120 80 6c 00
        E 360 80 19 00
        E 0 80 31 00
        E 0 80 49 00
        E 0 80 61 00
        E 480 90 19 69
        E 0 90 31 69
        E 0 90 49 69
        E 0 90 61 69
        E 480 80 19 00
        E 0 80 31 00
        E 0 80 49 00
        E 0 80 61 00
        E 480 90 19 67
        E 0 90 31 67
        E 0 90 49 67
        E 0 90 61 67
        E 0 90 6c 66
        E 120 80 6c 00
        E 360 80 19 00
        E 0 80 31 00
        E 0 80 49 00
        E 0 80 61 00
        E 480 90 19 66
        E 0 90 31 66
        E 0 90 49 66
        E 0 90 61 66
        E 480 80 19 00
        E 0 80 31 00
        E 0 80 49 00
        E 0 80 61 00
        E 480 90 19 64
        E 0 90 31 64
        E 0 90 49 64
        E 0 90 61 64
        E 1440 80 19 00
        E 0 80 31 00
        E 0 80 49 00
        E 0 80 61 00
        E 480 90 19 6e
        E 0 90 31 6e
        E 0 90 49 6e
        E 0 90 61 6e
        E 480 80 19 00
        E 0 80 31 00
        E 0 80 49 00
        E 240 80 61 00
        E 240 90 19 6d
        E 0 90 31 6d
        E 0 90 49 6d
        E 0 90 61 6d
        E 480 80 19 00
        E 0 80 31 00
        E 0 80 49 00
        E 0 80 61 00
        E 480 90 19 6b
        E 0 90 31 6b
        E 0 90 49 6b
        E 0 90 61 6b
        E 0 90 6c 69
        E 120 80 6c 00
        E 360 80 19 00
        E 0 80 31 00
        E 0 80 49 00
        E 0 80 61 00
        E 480 90 19 69
        E 0 90 31 69
        E 0 90 49 69
        E 0 90 61 69
        E 480 80 19 00
        E 0 80 31 00
        E 0 80 49 00
        E 0 80 61 00
        E 480 90 19 67
        E 0 90 31 67
        E 0 90 49 67
        E 0 90 61 67
        E 0 90 6c 66
        E 120 80 6c 00
        E 360 80 19 00
        E 0 80 31 00
        E 0 80 49 00
        E 0 80 61 00
        E 480 90 19 66
        E 0 90 31 66
        E 0 90 49 66
        E 0 90 61 66
        E 480 80 19 00
        E 0 80 31 00
        E 0 80 49 00
        E 0 80 61 00
        E 480 90 19 64
        E 0 90 31 64
        E 0 90 49 64
        E 0 90 61 64
        E 480 80 19 00
        E 0 80 31 00
        E 0 80 49 00
        E 0 80 61 00
        E 480 90 1a 64
        E 0 90 32 64
        E 0 90 4a 64
        E 0 90 62 64
        E 480 80 1a 00
        E 0 80 32 00
        E 0 80 4a 00
        E 0 80 62 00
        E 480 90 18 67
        E 0 90 30 67
        E 0 90 48 67
        E 0 90 60 67
        E 0 90 6c 67
        E 120 80 6c 00
        E 6599 80 18 00
        E 0 80 30 00
        E 0 80 48 00
        E 0 80 60 00
        E 2881 b0 7b 00
        GUID {E0C384EB-F1D6-4578-BCDD-81C66433D2A7}
        IGNTEMPO 0 120.00000000 4 4
        SRCCOLOR 52
        VELLANE 132 128 60
        COLORMAP "C:\Program Files\REAPER (x64)\Data\color_maps\rockband_guitarbass.png"
        CFGEDITVIEW -12864.530280 5.523216 7 12 0 0 0
        CFGEDIT 1 1 0 1 1 0 1 1 1 1 1 0.12500000 53 44 1253 718 0 2 1 1 0.00000000 0 1 1 0 0.500000 0 0 1.000000 64
        KEYSNAP 0 7 "102030050700" 0 "Pentatonic"
        EVTFILTER 0 -1 -1 -1 -1 0 1 0 0 -1.00000000 -1.00000000
      >
    >
  >
  <TRACK '{EE0DEB2F-E892-4921-815A-BC7462308ACF}'
    NAME "PART REAL_GUITAR"
    PEAKCOL 16576
    BEAT -1
    AUTOMODE 0
    VOLPAN 1.00000000000000 0.00000000000000 -1.00000000000000 -1.00000000000000 1.00000000000000
    MUTESOLO 0 0 0
    IPHASE 0
    ISBUS 0 0
    BUSCOMP 0 0
    SHOWINMIX 1 0.666700 0.500000 1 0.500000 -1 -1 -1
    FREEMODE 0
    SEL 0
    REC 0 0 0 0 0 0 0
    VU 2
    TRACKHEIGHT 0 0
    INQ 0 0 0 0.5000000000 100 0 0 100
    NCHAN 2
    FX 0
    TRACKID {EE0DEB2F-E892-4921-815A-BC7462308ACF}
    PERF 0
    MIDIOUT -1
    <MIDINOTENAMES
      0 127 "Trill Marker"
      0 126 "Tremolo Marker"
      0 125 "BRE"
      0 124 "BRE"
      0 123 "BRE"
      0 122 "BRE"
      0 121 "BRE"
      0 120 "BRE (use all 6)"
      0 119 "-----------"
      0 116 "OVERDRIVE"
      0 115 "Solo Marker"
      0 109 "-----------"
      0 108 "Fret Hand Position"
      0 107 "Force Chord Numbering"
      0 106 "Loose Strumming"
      0 105 "Strum Direction"
      0 104 "Arpeggio Marker"
      0 103 "Slide Marker"
      0 102 "Force HOPO"
      0 101 "EXPERT e String"
      0 100 "EXPERT B String"
      0 99 "EXPERT G String"
      0 98 "EXPERT D String"
      0 97 "EXPERT A String"
      0 96 "EXPERT E String"
      0 95 "-----------"
      0 82 "Loose Strumming"
      0 81 "Strum Direction"
      0 80 "Arpeggio Marker"
      0 79 "Slide Marker"
      0 78 "Force HOPO"
      0 77 "HARD e String"
      0 76 "HARD B String"
      0 75 "HARD G String"
      0 74 "HARD D String"
      0 73 "HARD A String"
      0 72 "HARD E String"
      0 71 "-----------"
      0 58 "Loose Strumming"
      0 56 "Arpeggio Marker"
      0 55 "Slide Marker"
      0 53 "MEDIUM e String"
      0 52 "MEDIUM B String"
      0 51 "MEDIUM G String"
      0 50 "MEDIUM D String"
      0 49 "MEDIUM A String"
      0 48 "MEDIUM E String"
      0 47 "-----------"
      0 32 "Arpeggio Marker"
      0 31 "Slide Marker"
      0 29 "EASY e String"
      0 28 "EASY B String"
      0 27 "EASY G String"
      0 26 "EASY D String"
      0 25 "EASY A String"
      0 24 "EASY E String"
      0 21 "-----------"
      0 18 "Flat/Sharp Swap"
      0 17 "Hide Chord Names"
      0 16 "Slash Chord"
      0 15 "D#"
      0 14 "D"
      0 13 "C#"
      0 12 "C"
      0 11 "B"
      0 10 "A#"
      0 9 "A"
      0 8 "G#"
      0 7 "G"
      0 6 "F#"
      0 5 "F"
      0 4 "E"
    >
    MAINSEND 1 0
    <FXCHAIN
      WNDRECT 0 43 655 467
      SHOW 0
      LASTSEL 1
      DOCKED 0
      BYPASS 0 0
      <JS "c3/progtr" ""
        0.000000 3.000000 0.000000 0.000000 0.000000 0.000000 0.000000 0.000000 0.000000 1.000000 - - - - - - - - - - - - - - - - - - - - - - - - - - - - - - - - - - - - - - - - - - - - - - - - - - - - - - 
      >
      FLOATPOS 0 0 0 0
      FXID {41E00980-CB20-4023-AF70-313CB722C814}
      WAK 0
      BYPASS 0 0
      <VST "VSTi: ReaSynth (Cockos)" "reasynth.dll" 0 ""
        eXNlcu9e7f4AAAAAAgAAAAEAAAAAAAAAAgAAAAAAAAA4AAAAAAAAAA==
        AAAQAO++rd4N8K3eppvEO56v5DyHFlk/AAAAAAAAAADMm4A+4jAEPA==
        AAAAAAAAAD+01hM+j8L1PQAAAD8AABAAAAA=
      >
      FLOATPOS 0 0 0 0
      FXID {C10DE816-D01D-4180-B065-418961301DD5}
      WAK 0
    >
    <ITEM
      POSITION 0.00000000000000
      SNAPOFFS 0.00000000000000
      LENGTH 236.43057157291659
      LOOP 0
      ALLTAKES 0
      SEL 0
      FADEIN 1 0.000000 0.000000 1 0
      FADEOUT 1 0.000000 0.000000 1 0
      MUTE 0
      IGUID {4B6E3BFE-B741-40FC-BC6A-BDF8A71E5946}
      IID 13
      NAME "PART REAL_GUITAR"
      VOLPAN 1.000000 0.000000 1.000000 -1.000000
      SOFFS 0.00000000000000 0.00000000000000
      PLAYRATE 1.00000000000000 1 0.00000000000000 -1
      CHANMODE 0
      GUID {7EE67041-A3B2-4E7D-AC8F-DCD9B0FBD01A}
      <SOURCE MIDI
        HASDATA 1 480 QN
        POOLEDEVTS {FC885C9F-5069-45CF-8609-2AF476DFA26B}
        <X 0 0
          /wNQQVJUIFJFQUxfR1VJVEFS
        >
        <X 3840 0
          /wFbYmVnaW5fcGcgc29uZ190cmFpbmVyX3BnXzFd
        >
        E 0 90 07 64
        E 0 90 18 67
        E 0 90 30 67
        E 0 90 31 66
        E 0 90 48 67
        E 0 90 49 66
        E 0 90 4a 64
        E 0 90 4b 64
        E 0 90 4c 64
        E 0 90 4d 67
        E 0 90 60 67
        E 0 90 61 66
        E 0 90 62 64
        E 0 90 63 64
        E 0 90 64 64
        E 0 90 65 67
        E 0 90 6c 66
        E 0 9f 51 64
        E 0 9f 69 64
        E 120 80 07 00
        E 0 80 18 00
        E 0 80 30 00
        E 0 80 31 00
        E 0 80 6c 00
        E 240 80 48 00
        E 0 80 49 00
        E 0 80 4a 00
        E 0 80 4b 00
        E 0 80 4c 00
        E 0 80 4d 00
        E 0 80 60 00
        E 0 80 61 00
        E 0 80 62 00
        E 0 80 63 00
        E 0 80 64 00
        E 0 80 65 00
        E 0 8f 51 00
        E 0 8f 69 00
        E 120 90 30 67
        E 0 90 31 66
        E 0 90 48 67
        E 0 90 49 66
        E 0 90 4a 64
        E 0 90 4b 64
        E 0 90 4c 64
        E 0 90 4d 67
        E 0 90 60 67
        E 0 90 61 66
        E 0 90 62 64
        E 0 90 63 64
        E 0 90 64 64
        E 0 90 65 67
        E 0 9f 51 64
        E 0 9f 69 64
        E 120 80 30 00
        E 0 80 31 00
        E 0 80 48 00
        E 0 80 49 00
        E 0 80 4a 00
        E 0 80 4b 00
        E 0 80 4c 00
        E 0 80 4d 00
        E 0 80 60 00
        E 0 80 61 00
        E 0 80 62 00
        E 0 80 63 00
        E 0 80 64 00
        E 0 80 65 00
        E 0 8f 51 00
        E 0 8f 69 00
        E 120 93 48 66
        E 0 93 49 66
        E 0 93 4a 64
        E 0 93 4b 64
        E 0 93 4c 64
        E 0 93 4d 67
        E 0 93 60 66
        E 0 93 61 66
        E 0 93 62 64
        E 0 93 63 64
        E 0 93 64 64
        E 0 93 65 67
        E 120 83 48 00
        E 0 83 49 00
        E 0 83 4a 00
        E 0 83 4b 00
        E 0 83 4c 00
        E 0 83 4d 00
        E 0 83 60 00
        E 0 83 61 00
        E 0 83 62 00
        E 0 83 63 00
        E 0 83 64 00
        E 0 83 65 00
        E 120 90 07 64
        E 0 90 10 64
        E 0 90 18 66
        E 0 90 30 66
        E 0 90 31 66
        E 0 90 48 66
        E 0 90 49 66
        E 0 90 4a 64
        E 0 90 4b 64
        E 0 90 4c 64
        E 0 90 4d 67
        E 0 90 60 66
        E 0 90 61 66
        E 0 90 62 64
        E 0 90 63 64
        E 0 90 64 64
        E 0 90 65 67
        E 0 9f 51 64
        E 0 9f 69 64
        E 120 80 07 00
        E 0 80 10 00
        E 0 80 18 00
        E 0 80 30 00
        E 0 80 31 00
        E 240 80 48 00
        E 0 80 49 00
        E 0 80 4a 00
        E 0 80 4b 00
        E 0 80 4c 00
        E 0 80 4d 00
        E 0 80 60 00
        E 0 80 61 00
        E 0 80 62 00
        E 0 80 63 00
        E 0 80 64 00
        E 0 80 65 00
        E 0 8f 51 00
        E 0 8f 69 00
        E 120 90 30 66
        E 0 90 31 66
        E 0 90 48 66
        E 0 90 49 66
        E 0 90 4a 64
        E 0 90 4b 64
        E 0 90 4c 64
        E 0 90 4d 67
        E 0 90 60 66
        E 0 90 61 66
        E 0 90 62 64
        E 0 90 63 64
        E 0 90 64 64
        E 0 90 65 67
        E 0 9f 51 64
        E 0 9f 69 64
        E 120 80 30 00
        E 0 80 31 00
        E 0 80 48 00
        E 0 80 49 00
        E 0 80 4a 00
        E 0 80 4b 00
        E 0 80 4c 00
        E 0 80 4d 00
        E 0 80 60 00
        E 0 80 61 00
        E 0 80 62 00
        E 0 80 63 00
        E 0 80 64 00
        E 0 80 65 00
        E 0 8f 51 00
        E 0 8f 69 00
        E 120 93 48 64
        E 0 93 49 66
        E 0 93 4a 66
        E 0 93 4b 64
        E 0 93 4c 64
        E 0 93 4d 64
        E 0 93 60 64
        E 0 93 61 66
        E 0 93 62 66
        E 0 93 63 64
        E 0 93 64 64
        E 0 93 65 64
        E 120 83 48 00
        E 0 83 49 00
        E 0 83 4a 00
        E 0 83 4b 00
        E 0 83 4c 00
        E 0 83 4d 00
        E 0 83 60 00
        E 0 83 61 00
        E 0 83 62 00
        E 0 83 63 00
        E 0 83 64 00
        E 0 83 65 00
        <X 120 0
          /wFbcGdfbm9ybSBzb25nX3RyYWluZXJfcGdfMV0=
        >
        E 0 90 04 64
        E 0 90 19 66
        E 0 90 31 66
        E 0 90 32 66
        E 0 90 48 64
        E 0 90 49 66
        E 0 90 4a 66
        E 0 90 4b 64
        E 0 90 4c 64
        E 0 90 4d 64
        E 0 90 60 64
        E 0 90 61 66
        E 0 90 62 66
        E 0 90 63 64
        E 0 90 64 64
        E 0 90 65 64
        E 0 9f 51 64
        E 0 9f 69 64
        E 120 80 04 00
        E 0 80 19 00
        E 0 80 31 00
        E 0 80 32 00
        E 240 80 48 00
        E 0 80 49 00
        E 0 80 4a 00
        E 0 80 4b 00
        E 0 80 4c 00
        E 0 80 4d 00
        E 0 80 60 00
        E 0 80 61 00
        E 0 80 62 00
        E 0 80 63 00
        E 0 80 64 00
        E 0 80 65 00
        E 0 8f 51 00
        E 0 8f 69 00
        E 120 90 19 66
        E 0 90 31 66
        E 0 90 32 66
        E 0 90 48 64
        E 0 90 49 66
        E 0 90 4a 66
        E 0 90 4b 64
        E 0 90 4c 64
        E 0 90 4d 64
        E 0 90 60 64
        E 0 90 61 66
        E 0 90 62 66
        E 0 90 63 64
        E 0 90 64 64
        E 0 90 65 64
        E 0 9f 51 64
        E 0 9f 69 64
        E 120 80 19 00
        E 0 80 31 00
        E 0 80 32 00
        E 240 80 48 00
        E 0 80 49 00
        E 0 80 4a 00
        E 0 80 4b 00
        E 0 80 4c 00
        E 0 80 4d 00
        E 0 80 60 00
        E 0 80 61 00
        E 0 80 62 00
        E 0 80 63 00
        E 0 80 64 00
        E 0 80 65 00
        E 0 8f 51 00
        E 0 8f 69 00
        E 120 90 19 66
        E 0 90 31 66
        E 0 90 32 66
        E 0 90 48 64
        E 0 90 49 66
        E 0 90 4a 66
        E 0 90 4b 64
        E 0 90 4c 64
        E 0 90 4d 64
        E 0 90 60 64
        E 0 90 61 66
        E 0 90 62 66
        E 0 90 63 64
        E 0 90 64 64
        E 0 90 65 64
        E 0 9f 51 64
        E 0 9f 69 64
        E 120 80 19 00
        E 0 80 31 00
        E 0 80 32 00
        E 240 80 48 00
        E 0 80 49 00
        E 0 80 4a 00
        E 0 80 4b 00
        E 0 80 4c 00
        E 0 80 4d 00
        E 0 80 60 00
        E 0 80 61 00
        E 0 80 62 00
        E 0 80 63 00
        E 0 80 64 00
        E 0 80 65 00
        E 0 8f 51 00
        E 0 8f 69 00
        E 120 90 31 66
        E 0 90 32 66
        E 0 90 48 64
        E 0 90 49 66
        E 0 90 4a 66
        E 0 90 4b 64
        E 0 90 4c 64
        E 0 90 4d 64
        E 0 90 60 64
        E 0 90 61 66
        E 0 90 62 66
        E 0 90 63 64
        E 0 90 64 64
        E 0 90 65 64
        E 0 9f 51 64
        E 0 9f 69 64
        E 120 80 31 00
        E 0 80 32 00
        E 0 80 48 00
        E 0 80 49 00
        E 0 80 4a 00
        E 0 80 4b 00
        E 0 80 4c 00
        E 0 80 4d 00
        E 0 80 60 00
        E 0 80 61 00
        E 0 80 62 00
        E 0 80 63 00
        E 0 80 64 00
        E 0 80 65 00
        E 0 8f 51 00
        E 0 8f 69 00
        E 120 90 6c 65
        E 0 93 49 67
        E 0 93 4a 66
        E 0 93 4b 64
        E 0 93 4c 65
        E 0 93 4d 64
        E 0 93 61 67
        E 0 93 62 66
        E 0 93 63 64
        E 0 93 64 65
        E 0 93 65 64
        E 120 80 6c 00
        E 0 83 49 00
        E 0 83 4a 00
        E 0 83 4b 00
        E 0 83 4c 00
        E 0 83 4d 00
        E 0 83 61 00
        E 0 83 62 00
        E 0 83 63 00
        E 0 83 64 00
        E 0 83 65 00
        E 120 90 0c 64
        E 0 90 31 67
        E 0 90 32 66
        E 0 90 49 67
        E 0 90 4a 66
        E 0 90 4b 64
        E 0 90 4c 65
        E 0 90 4d 64
        E 0 90 61 67
        E 0 90 62 66
        E 0 90 63 64
        E 0 90 64 65
        E 0 90 65 64
        E 0 9f 51 64
        E 0 9f 69 64
        E 120 80 0c 00
        E 0 80 31 00
        E 0 80 32 00
        E 240 80 49 00
        E 0 80 4a 00
        E 0 80 4b 00
        E 0 80 4c 00
        E 0 80 4d 00
        E 0 80 61 00
        E 0 80 62 00
        E 0 80 63 00
        E 0 80 64 00
        E 0 80 65 00
        E 0 8f 51 00
        E 0 8f 69 00
        E 120 90 31 67
        E 0 90 32 66
        E 0 90 49 67
        E 0 90 4a 66
        E 0 90 4b 64
        E 0 90 4c 65
        E 0 90 4d 64
        E 0 90 61 67
        E 0 90 62 66
        E 0 90 63 64
        E 0 90 64 65
        E 0 90 65 64
        E 0 9f 51 64
        E 0 9f 69 64
        E 120 80 31 00
        E 0 80 32 00
        E 0 80 49 00
        E 0 80 4a 00
        E 0 80 4b 00
        E 0 80 4c 00
        E 0 80 4d 00
        E 0 80 61 00
        E 0 80 62 00
        E 0 80 63 00
        E 0 80 64 00
        E 0 80 65 00
        E 0 8f 51 00
        E 0 8f 69 00
        E 120 93 49 67
        E 0 93 4a 66
        E 0 93 4b 64
        E 0 93 4c 65
        E 0 93 4d 64
        E 0 93 61 67
        E 0 93 62 66
        E 0 93 63 64
        E 0 93 64 65
        E 0 93 65 64
        E 120 83 49 00
        E 0 83 4a 00
        E 0 83 4b 00
        E 0 83 4c 00
        E 0 83 4d 00
        E 0 83 61 00
        E 0 83 62 00
        E 0 83 63 00
        E 0 83 64 00
        E 0 83 65 00
        E 120 90 0c 64
        E 0 90 10 64
        E 0 90 31 66
        E 0 90 32 66
        E 0 90 49 66
        E 0 90 4a 66
        E 0 90 4b 64
        E 0 90 4c 65
        E 0 90 4d 64
        E 0 90 61 66
        E 0 90 62 66
        E 0 90 63 64
        E 0 90 64 65
        E 0 90 65 64
        E 0 9f 51 64
        E 0 9f 69 64
        E 120 80 0c 00
        E 0 80 10 00
        E 0 80 31 00
        E 0 80 32 00
        E 0 80 49 00
        E 0 80 4a 00
        E 0 80 4b 00
        E 0 80 4c 00
        E 0 80 4d 00
        E 0 80 61 00
        E 0 80 62 00
        E 0 80 63 00
        E 0 80 64 00
        E 0 80 65 00
        E 0 8f 51 00
        E 0 8f 69 00
        E 120 90 31 66
        E 0 90 32 66
        E 0 90 49 66
        E 0 90 4a 66
        E 0 90 4b 64
        E 0 90 4c 65
        E 0 90 4d 64
        E 0 90 61 66
        E 0 90 62 66
        E 0 90 63 64
        E 0 90 64 65
        E 0 90 65 64
        E 0 9d 51 64
        E 0 9d 69 64
        E 120 80 31 00
        E 0 80 32 00
        E 0 80 49 00
        E 0 80 4a 00
        E 0 80 4b 00
        E 0 80 4c 00
        E 0 80 4d 00
        E 0 80 61 00
        E 0 80 62 00
        E 0 80 63 00
        E 0 80 64 00
        E 0 80 65 00
        E 0 8d 51 00
        E 0 8d 69 00
        E 120 90 31 66
        E 0 90 32 66
        E 0 90 49 66
        E 0 90 4a 66
        E 0 90 4b 64
        E 0 90 4c 65
        E 0 90 4d 64
        E 0 90 61 66
        E 0 90 62 66
        E 0 90 63 64
        E 0 90 64 65
        E 0 90 65 64
        E 0 9f 51 64
        E 0 9f 69 64
        E 120 80 31 00
        E 0 80 32 00
        E 0 80 49 00
        E 0 80 4a 00
        E 0 80 4b 00
        E 0 80 4c 00
        E 0 80 4d 00
        E 0 80 61 00
        E 0 80 62 00
        E 0 80 63 00
        E 0 80 64 00
        E 0 80 65 00
        E 0 8f 51 00
        E 0 8f 69 00
        E 120 93 49 66
        E 0 93 4a 66
        E 0 93 4b 64
        E 0 93 4c 65
        E 0 93 4d 64
        E 0 93 61 66
        E 0 93 62 66
        E 0 93 63 64
        E 0 93 64 65
        E 0 93 65 64
        E 120 83 49 00
        E 0 83 4a 00
        E 0 83 4b 00
        E 0 83 4c 00
        E 0 83 4d 00
        E 0 83 61 00
        E 0 83 62 00
        E 0 83 63 00
        E 0 83 64 00
        E 0 83 65 00
        E 120 90 09 64
        E 0 90 1a 66
        E 0 90 32 66
        E 0 90 33 66
        E 0 90 49 64
        E 0 90 4a 66
        E 0 90 4b 66
        E 0 90 4c 65
        E 0 90 4d 64
        E 0 90 61 64
        E 0 90 62 66
        E 0 90 63 66
        E 0 90 64 65
        E 0 90 65 64
        E 0 90 74 60
        E 0 9f 51 64
        E 0 9f 69 64
        E 120 80 09 00
        E 0 80 1a 00
        E 0 80 32 00
        E 0 80 33 00
        E 240 80 49 00
        E 0 80 4a 00
        E 0 80 4b 00
        E 0 80 4c 00
        E 0 80 4d 00
        E 0 80 61 00
        E 0 80 62 00
        E 0 80 63 00
        E 0 80 64 00
        E 0 80 65 00
        E 0 8f 51 00
        E 0 8f 69 00
        E 120 90 1a 66
        E 0 90 32 66
        E 0 90 33 66
        E 0 90 49 64
        E 0 90 4a 66
        E 0 90 4b 66
        E 0 90 4c 65
        E 0 90 4d 64
        E 0 90 61 64
        E 0 90 62 66
        E 0 90 63 66
        E 0 90 64 65
        E 0 90 65 64
        E 0 9f 51 64
        E 0 9f 69 64
        E 120 80 1a 00
        E 0 80 32 00
        E 0 80 33 00
        E 0 80 49 00
        E 0 80 4a 00
        E 0 80 4b 00
        E 0 80 4c 00
        E 0 80 4d 00
        E 0 80 61 00
        E 0 80 62 00
        E 0 80 63 00
        E 0 80 64 00
        E 0 80 65 00
        E 0 8f 51 00
        E 0 8f 69 00
        E 120 90 32 66
        E 0 90 33 66
        E 0 90 49 64
        E 0 90 4a 66
        E 0 90 4b 66
        E 0 90 4c 65
        E 0 90 4d 64
        E 0 90 61 64
        E 0 90 62 66
        E 0 90 63 66
        E 0 90 64 65
        E 0 90 65 64
        E 0 9d 51 64
        E 0 9d 69 64
        E 120 80 32 00
        E 0 80 33 00
        E 0 80 49 00
        E 0 80 4a 00
        E 0 80 4b 00
        E 0 80 4c 00
        E 0 80 4d 00
        E 0 80 61 00
        E 0 80 62 00
        E 0 80 63 00
        E 0 80 64 00
        E 0 80 65 00
        E 0 8d 51 00
        E 0 8d 69 00
        E 120 90 1a 66
        E 0 90 32 66
        E 0 90 33 66
        E 0 90 49 64
        E 0 90 4a 66
        E 0 90 4b 66
        E 0 90 4c 65
        E 0 90 4d 64
        E 0 90 61 64
        E 0 90 62 66
        E 0 90 63 66
        E 0 90 64 65
        E 0 90 65 64
        E 0 9f 51 64
        E 0 9f 69 64
        E 120 80 1a 00
        E 0 80 32 00
        E 0 80 33 00
        E 0 80 49 00
        E 0 80 4a 00
        E 0 80 4b 00
        E 0 80 4c 00
        E 0 80 4d 00
        E 0 80 61 00
        E 0 80 62 00
        E 0 80 63 00
        E 0 80 64 00
        E 0 80 65 00
        E 0 8f 51 00
        E 0 8f 69 00
        E 120 90 32 66
        E 0 90 33 66
        E 0 90 49 64
        E 0 90 4a 66
        E 0 90 4b 66
        E 0 90 4c 65
        E 0 90 4d 64
        E 0 90 61 64
        E 0 90 62 66
        E 0 90 63 66
        E 0 90 64 65
        E 0 90 65 64
        E 0 9d 51 64
        E 0 9d 69 64
        E 120 80 32 00
        E 0 80 33 00
        E 0 80 49 00
        E 0 80 4a 00
        E 0 80 4b 00
        E 0 80 4c 00
        E 0 80 4d 00
        E 0 80 61 00
        E 0 80 62 00
        E 0 80 63 00
        E 0 80 64 00
        E 0 80 65 00
        E 0 8d 51 00
        E 0 8d 69 00
        E 120 90 1a 66
        E 0 90 32 66
        E 0 90 33 66
        E 0 90 49 64
        E 0 90 4a 66
        E 0 90 4b 66
        E 0 90 4c 65
        E 0 90 4d 64
        E 0 90 61 64
        E 0 90 62 66
        E 0 90 63 66
        E 0 90 64 65
        E 0 90 65 64
        E 0 9f 51 64
        E 0 9f 69 64
        E 120 80 1a 00
        E 0 80 32 00
        E 0 80 33 00
        E 0 80 49 00
        E 0 80 4a 00
        E 0 80 4b 00
        E 0 80 4c 00
        E 0 80 4d 00
        E 0 80 61 00
        E 0 80 62 00
        E 0 80 63 00
        E 0 80 64 00
        E 0 80 65 00
        E 0 8f 51 00
        E 0 8f 69 00
        E 120 90 6c 66
        E 0 93 48 67
        E 0 93 49 66
        E 0 93 4a 64
        E 0 93 4b 64
        E 0 93 4c 64
        E 0 93 4d 67
        E 0 93 60 67
        E 0 93 61 66
        E 0 93 62 64
        E 0 93 63 64
        E 0 93 64 64
        E 0 93 65 67
        E 120 80 6c 00
        E 0 83 48 00
        E 0 83 49 00
        E 0 83 4a 00
        E 0 83 4b 00
        E 0 83 4c 00
        E 0 83 4d 00
        E 0 83 60 00
        E 0 83 61 00
        E 0 83 62 00
        E 0 83 63 00
        E 0 83 64 00
        E 0 83 65 00
        <X 120 0
          /wFbZW5kX3BnIHNvbmdfdHJhaW5lcl9wZ18xXQ==
        >
        E 0 80 74 00
        E 0 90 07 64
        E 0 90 18 67
        E 0 90 30 67
        E 0 90 31 66
        E 0 90 48 67
        E 0 90 49 66
        E 0 90 4a 64
        E 0 90 4b 64
        E 0 90 4c 64
        E 0 90 4d 67
        E 0 90 60 67
        E 0 90 61 66
        E 0 90 62 64
        E 0 90 63 64
        E 0 90 64 64
        E 0 90 65 67
        E 0 9f 51 64
        E 0 9f 69 64
        E 120 80 07 00
        E 0 80 18 00
        E 0 80 30 00
        E 0 80 31 00
        E 240 80 48 00
        E 0 80 49 00
        E 0 80 4a 00
        E 0 80 4b 00
        E 0 80 4c 00
        E 0 80 4d 00
        E 0 80 60 00
        E 0 80 61 00
        E 0 80 62 00
        E 0 80 63 00
        E 0 80 64 00
        E 0 80 65 00
        E 0 8f 51 00
        E 0 8f 69 00
        E 120 90 30 67
        E 0 90 31 66
        E 0 90 48 67
        E 0 90 49 66
        E 0 90 4a 64
        E 0 90 4b 64
        E 0 90 4c 64
        E 0 90 4d 67
        E 0 90 60 67
        E 0 90 61 66
        E 0 90 62 64
        E 0 90 63 64
        E 0 90 64 64
        E 0 90 65 67
        E 0 9f 51 64
        E 0 9f 69 64
        E 120 80 30 00
        E 0 80 31 00
        E 0 80 48 00
        E 0 80 49 00
        E 0 80 4a 00
        E 0 80 4b 00
        E 0 80 4c 00
        E 0 80 4d 00
        E 0 80 60 00
        E 0 80 61 00
        E 0 80 62 00
        E 0 80 63 00
        E 0 80 64 00
        E 0 80 65 00
        E 0 8f 51 00
        E 0 8f 69 00
        E 120 93 48 66
        E 0 93 49 66
        E 0 93 4a 64
        E 0 93 4b 64
        E 0 93 4c 64
        E 0 93 4d 67
        E 0 93 60 66
        E 0 93 61 66
        E 0 93 62 64
        E 0 93 63 64
        E 0 93 64 64
        E 0 93 65 67
        E 120 83 48 00
        E 0 83 49 00
        E 0 83 4a 00
        E 0 83 4b 00
        E 0 83 4c 00
        E 0 83 4d 00
        E 0 83 60 00
        E 0 83 61 00
        E 0 83 62 00
        E 0 83 63 00
        E 0 83 64 00
        E 0 83 65 00
        E 120 90 07 64
        E 0 90 10 64
        E 0 90 18 66
        E 0 90 30 66
        E 0 90 31 66
        E 0 90 48 66
        E 0 90 49 66
        E 0 90 4a 64
        E 0 90 4b 64
        E 0 90 4c 64
        E 0 90 4d 67
        E 0 90 60 66
        E 0 90 61 66
        E 0 90 62 64
        E 0 90 63 64
        E 0 90 64 64
        E 0 90 65 67
        E 0 9f 51 64
        E 0 9f 69 64
        E 120 80 07 00
        E 0 80 10 00
        E 0 80 18 00
        E 0 80 30 00
        E 0 80 31 00
        E 240 80 48 00
        E 0 80 49 00
        E 0 80 4a 00
        E 0 80 4b 00
        E 0 80 4c 00
        E 0 80 4d 00
        E 0 80 60 00
        E 0 80 61 00
        E 0 80 62 00
        E 0 80 63 00
        E 0 80 64 00
        E 0 80 65 00
        E 0 8f 51 00
        E 0 8f 69 00
        E 120 90 30 66
        E 0 90 31 66
        E 0 90 48 66
        E 0 90 49 66
        E 0 90 4a 64
        E 0 90 4b 64
        E 0 90 4c 64
        E 0 90 4d 67
        E 0 90 60 66
        E 0 90 61 66
        E 0 90 62 64
        E 0 90 63 64
        E 0 90 64 64
        E 0 90 65 67
        E 0 9f 51 64
        E 0 9f 69 64
        E 120 80 30 00
        E 0 80 31 00
        E 0 80 48 00
        E 0 80 49 00
        E 0 80 4a 00
        E 0 80 4b 00
        E 0 80 4c 00
        E 0 80 4d 00
        E 0 80 60 00
        E 0 80 61 00
        E 0 80 62 00
        E 0 80 63 00
        E 0 80 64 00
        E 0 80 65 00
        E 0 8f 51 00
        E 0 8f 69 00
        E 120 93 48 64
        E 0 93 49 66
        E 0 93 4a 66
        E 0 93 4b 64
        E 0 93 4c 64
        E 0 93 4d 64
        E 0 93 60 64
        E 0 93 61 66
        E 0 93 62 66
        E 0 93 63 64
        E 0 93 64 64
        E 0 93 65 64
        E 120 83 48 00
        E 0 83 49 00
        E 0 83 4a 00
        E 0 83 4b 00
        E 0 83 4c 00
        E 0 83 4d 00
        E 0 83 60 00
        E 0 83 61 00
        E 0 83 62 00
        E 0 83 63 00
        E 0 83 64 00
        E 0 83 65 00
        E 120 90 04 64
        E 0 90 19 66
        E 0 90 31 66
        E 0 90 32 66
        E 0 90 48 64
        E 0 90 49 66
        E 0 90 4a 66
        E 0 90 4b 64
        E 0 90 4c 64
        E 0 90 4d 64
        E 0 90 60 64
        E 0 90 61 66
        E 0 90 62 66
        E 0 90 63 64
        E 0 90 64 64
        E 0 90 65 64
        E 0 9f 51 64
        E 0 9f 69 64
        E 120 80 04 00
        E 0 80 19 00
        E 0 80 31 00
        E 0 80 32 00
        E 240 80 48 00
        E 0 80 49 00
        E 0 80 4a 00
        E 0 80 4b 00
        E 0 80 4c 00
        E 0 80 4d 00
        E 0 80 60 00
        E 0 80 61 00
        E 0 80 62 00
        E 0 80 63 00
        E 0 80 64 00
        E 0 80 65 00
        E 0 8f 51 00
        E 0 8f 69 00
        E 120 90 19 66
        E 0 90 31 66
        E 0 90 32 66
        E 0 90 48 64
        E 0 90 49 66
        E 0 90 4a 66
        E 0 90 4b 64
        E 0 90 4c 64
        E 0 90 4d 64
        E 0 90 60 64
        E 0 90 61 66
        E 0 90 62 66
        E 0 90 63 64
        E 0 90 64 64
        E 0 90 65 64
        E 0 9f 51 64
        E 0 9f 69 64
        E 120 80 19 00
        E 0 80 31 00
        E 0 80 32 00
        E 0 80 48 00
        E 0 80 49 00
        E 0 80 4a 00
        E 0 80 4b 00
        E 0 80 4c 00
        E 0 80 4d 00
        E 0 80 60 00
        E 0 80 61 00
        E 0 80 62 00
        E 0 80 63 00
        E 0 80 64 00
        E 0 80 65 00
        E 0 8f 51 00
        E 0 8f 69 00
        E 120 90 31 66
        E 0 90 32 66
        E 0 90 48 64
        E 0 90 49 66
        E 0 90 4a 66
        E 0 90 4b 64
        E 0 90 4c 64
        E 0 90 4d 64
        E 0 90 60 64
        E 0 90 61 66
        E 0 90 62 66
        E 0 90 63 64
        E 0 90 64 64
        E 0 90 65 64
        E 0 9d 51 64
        E 0 9d 69 64
        E 120 80 31 00
        E 0 80 32 00
        E 0 80 48 00
        E 0 80 49 00
        E 0 80 4a 00
        E 0 80 4b 00
        E 0 80 4c 00
        E 0 80 4d 00
        E 0 80 60 00
        E 0 80 61 00
        E 0 80 62 00
        E 0 80 63 00
        E 0 80 64 00
        E 0 80 65 00
        E 0 8d 51 00
        E 0 8d 69 00
        E 120 90 19 66
        E 0 90 31 66
        E 0 90 32 66
        E 0 90 48 64
        E 0 90 49 66
        E 0 90 4a 66
        E 0 90 4b 64
        E 0 90 4c 64
        E 0 90 4d 64
        E 0 90 60 64
        E 0 90 61 66
        E 0 90 62 66
        E 0 90 63 64
        E 0 90 64 64
        E 0 90 65 64
        E 0 9f 51 64
        E 0 9f 69 64
        E 120 80 19 00
        E 0 80 31 00
        E 0 80 32 00
        E 0 80 48 00
        E 0 80 49 00
        E 0 80 4a 00
        E 0 80 4b 00
        E 0 80 4c 00
        E 0 80 4d 00
        E 0 80 60 00
        E 0 80 61 00
        E 0 80 62 00
        E 0 80 63 00
        E 0 80 64 00
        E 0 80 65 00
        E 0 8f 51 00
        E 0 8f 69 00
        E 120 90 31 66
        E 0 90 32 66
        E 0 90 48 64
        E 0 90 49 66
        E 0 90 4a 66
        E 0 90 4b 64
        E 0 90 4c 64
        E 0 90 4d 64
        E 0 90 60 64
        E 0 90 61 66
        E 0 90 62 66
        E 0 90 63 64
        E 0 90 64 64
        E 0 90 65 64
        E 0 9d 51 64
        E 0 9d 69 64
        E 120 80 31 00
        E 0 80 32 00
        E 0 80 48 00
        E 0 80 49 00
        E 0 80 4a 00
        E 0 80 4b 00
        E 0 80 4c 00
        E 0 80 4d 00
        E 0 80 60 00
        E 0 80 61 00
        E 0 80 62 00
        E 0 80 63 00
        E 0 80 64 00
        E 0 80 65 00
        E 0 8d 51 00
        E 0 8d 69 00
        E 120 90 31 66
        E 0 90 32 66
        E 0 90 48 64
        E 0 90 49 66
        E 0 90 4a 66
        E 0 90 4b 64
        E 0 90 4c 64
        E 0 90 4d 64
        E 0 90 60 64
        E 0 90 61 66
        E 0 90 62 66
        E 0 90 63 64
        E 0 90 64 64
        E 0 90 65 64
        E 0 9f 51 64
        E 0 9f 69 64
        E 120 80 31 00
        E 0 80 32 00
        E 0 80 48 00
        E 0 80 49 00
        E 0 80 4a 00
        E 0 80 4b 00
        E 0 80 4c 00
        E 0 80 4d 00
        E 0 80 60 00
        E 0 80 61 00
        E 0 80 62 00
        E 0 80 63 00
        E 0 80 64 00
        E 0 80 65 00
        E 0 8f 51 00
        E 0 8f 69 00
        E 120 90 6c 65
        E 0 93 49 67
        E 0 93 4a 66
        E 0 93 4b 64
        E 0 93 4c 65
        E 0 93 4d 64
        E 0 93 61 67
        E 0 93 62 66
        E 0 93 63 64
        E 0 93 64 65
        E 0 93 65 64
        E 0 9d 51 64
        E 0 9d 69 64
        E 120 80 6c 00
        E 0 83 49 00
        E 0 83 4a 00
        E 0 83 4b 00
        E 0 83 4c 00
        E 0 83 4d 00
        E 0 83 61 00
        E 0 83 62 00
        E 0 83 63 00
        E 0 83 64 00
        E 0 83 65 00
        E 0 8d 51 00
        E 0 8d 69 00
        E 120 90 0c 64
        E 0 90 31 67
        E 0 90 32 66
        E 0 90 49 67
        E 0 90 4a 66
        E 0 90 4b 64
        E 0 90 4c 65
        E 0 90 4d 64
        E 0 90 61 67
        E 0 90 62 66
        E 0 90 63 64
        E 0 90 64 65
        E 0 90 65 64
        E 0 9f 51 64
        E 0 9f 69 64
        E 120 80 0c 00
        E 0 80 31 00
        E 0 80 32 00
        E 240 80 49 00
        E 0 80 4a 00
        E 0 80 4b 00
        E 0 80 4c 00
        E 0 80 4d 00
        E 0 80 61 00
        E 0 80 62 00
        E 0 80 63 00
        E 0 80 64 00
        E 0 80 65 00
        E 0 8f 51 00
        E 0 8f 69 00
        E 120 90 31 67
        E 0 90 32 66
        E 0 90 49 67
        E 0 90 4a 66
        E 0 90 4b 64
        E 0 90 4c 65
        E 0 90 4d 64
        E 0 90 61 67
        E 0 90 62 66
        E 0 90 63 64
        E 0 90 64 65
        E 0 90 65 64
        E 0 9f 51 64
        E 0 9f 69 64
        E 120 80 31 00
        E 0 80 32 00
        E 0 80 49 00
        E 0 80 4a 00
        E 0 80 4b 00
        E 0 80 4c 00
        E 0 80 4d 00
        E 0 80 61 00
        E 0 80 62 00
        E 0 80 63 00
        E 0 80 64 00
        E 0 80 65 00
        E 0 8f 51 00
        E 0 8f 69 00
        E 120 93 49 67
        E 0 93 4a 66
        E 0 93 4b 64
        E 0 93 4c 65
        E 0 93 4d 64
        E 0 93 61 67
        E 0 93 62 66
        E 0 93 63 64
        E 0 93 64 65
        E 0 93 65 64
        E 120 83 49 00
        E 0 83 4a 00
        E 0 83 4b 00
        E 0 83 4c 00
        E 0 83 4d 00
        E 0 83 61 00
        E 0 83 62 00
        E 0 83 63 00
        E 0 83 64 00
        E 0 83 65 00
        E 120 90 0c 64
        E 0 90 10 64
        E 0 90 31 66
        E 0 90 32 66
        E 0 90 49 66
        E 0 90 4a 66
        E 0 90 4b 64
        E 0 90 4c 65
        E 0 90 4d 64
        E 0 90 61 66
        E 0 90 62 66
        E 0 90 63 64
        E 0 90 64 65
        E 0 90 65 64
        E 0 9f 51 64
        E 0 9f 69 64
        E 120 80 0c 00
        E 0 80 10 00
        E 0 80 31 00
        E 0 80 32 00
        E 240 80 49 00
        E 0 80 4a 00
        E 0 80 4b 00
        E 0 80 4c 00
        E 0 80 4d 00
        E 0 80 61 00
        E 0 80 62 00
        E 0 80 63 00
        E 0 80 64 00
        E 0 80 65 00
        E 0 8f 51 00
        E 0 8f 69 00
        E 120 90 31 66
        E 0 90 32 66
        E 0 90 49 66
        E 0 90 4a 66
        E 0 90 4b 64
        E 0 90 4c 65
        E 0 90 4d 64
        E 0 90 61 66
        E 0 90 62 66
        E 0 90 63 64
        E 0 90 64 65
        E 0 90 65 64
        E 0 9f 51 64
        E 0 9f 69 64
        E 120 80 31 00
        E 0 80 32 00
        E 0 80 49 00
        E 0 80 4a 00
        E 0 80 4b 00
        E 0 80 4c 00
        E 0 80 4d 00
        E 0 80 61 00
        E 0 80 62 00
        E 0 80 63 00
        E 0 80 64 00
        E 0 80 65 00
        E 0 8f 51 00
        E 0 8f 69 00
        E 120 93 49 66
        E 0 93 4a 66
        E 0 93 4b 64
        E 0 93 4c 65
        E 0 93 4d 64
        E 0 93 61 66
        E 0 93 62 66
        E 0 93 63 64
        E 0 93 64 65
        E 0 93 65 64
        E 120 83 49 00
        E 0 83 4a 00
        E 0 83 4b 00
        E 0 83 4c 00
        E 0 83 4d 00
        E 0 83 61 00
        E 0 83 62 00
        E 0 83 63 00
        E 0 83 64 00
        E 0 83 65 00
        E 120 90 09 64
        E 0 90 1a 66
        E 0 90 32 66
        E 0 90 33 66
        E 0 90 49 64
        E 0 90 4a 66
        E 0 90 4b 66
        E 0 90 4c 65
        E 0 90 4d 64
        E 0 90 61 64
        E 0 90 62 66
        E 0 90 63 66
        E 0 90 64 65
        E 0 90 65 64
        E 0 9f 51 64
        E 0 9f 69 64
        E 120 80 09 00
        E 0 80 1a 00
        E 0 80 32 00
        E 0 80 33 00
        E 240 80 49 00
        E 0 80 4a 00
        E 0 80 4b 00
        E 0 80 4c 00
        E 0 80 4d 00
        E 0 80 61 00
        E 0 80 62 00
        E 0 80 63 00
        E 0 80 64 00
        E 0 80 65 00
        E 0 8f 51 00
        E 0 8f 69 00
        E 120 90 1a 66
        E 0 90 32 66
        E 0 90 33 66
        E 0 90 49 64
        E 0 90 4a 66
        E 0 90 4b 66
        E 0 90 4c 65
        E 0 90 4d 64
        E 0 90 61 64
        E 0 90 62 66
        E 0 90 63 66
        E 0 90 64 65
        E 0 90 65 64
        E 0 9f 51 64
        E 0 9f 69 64
        E 120 80 1a 00
        E 0 80 32 00
        E 0 80 33 00
        E 0 80 49 00
        E 0 80 4a 00
        E 0 80 4b 00
        E 0 80 4c 00
        E 0 80 4d 00
        E 0 80 61 00
        E 0 80 62 00
        E 0 80 63 00
        E 0 80 64 00
        E 0 80 65 00
        E 0 8f 51 00
        E 0 8f 69 00
        E 120 90 32 66
        E 0 90 33 66
        E 0 90 49 64
        E 0 90 4a 66
        E 0 90 4b 66
        E 0 90 4c 65
        E 0 90 4d 64
        E 0 90 61 64
        E 0 90 62 66
        E 0 90 63 66
        E 0 90 64 65
        E 0 90 65 64
        E 0 9d 51 64
        E 0 9d 69 64
        E 120 80 32 00
        E 0 80 33 00
        E 0 80 49 00
        E 0 80 4a 00
        E 0 80 4b 00
        E 0 80 4c 00
        E 0 80 4d 00
        E 0 80 61 00
        E 0 80 62 00
        E 0 80 63 00
        E 0 80 64 00
        E 0 80 65 00
        E 0 8d 51 00
        E 0 8d 69 00
        E 120 90 1a 66
        E 0 90 32 66
        E 0 90 33 66
        E 0 90 49 64
        E 0 90 4a 66
        E 0 90 4b 66
        E 0 90 4c 65
        E 0 90 4d 64
        E 0 90 61 64
        E 0 90 62 66
        E 0 90 63 66
        E 0 90 64 65
        E 0 90 65 64
        E 0 9f 51 64
        E 0 9f 69 64
        E 120 80 1a 00
        E 0 80 32 00
        E 0 80 33 00
        E 0 80 49 00
        E 0 80 4a 00
        E 0 80 4b 00
        E 0 80 4c 00
        E 0 80 4d 00
        E 0 80 61 00
        E 0 80 62 00
        E 0 80 63 00
        E 0 80 64 00
        E 0 80 65 00
        E 0 8f 51 00
        E 0 8f 69 00
        E 120 90 32 66
        E 0 90 33 66
        E 0 90 49 64
        E 0 90 4a 66
        E 0 90 4b 66
        E 0 90 4c 65
        E 0 90 4d 64
        E 0 90 61 64
        E 0 90 62 66
        E 0 90 63 66
        E 0 90 64 65
        E 0 90 65 64
        E 0 9d 51 64
        E 0 9d 69 64
        E 120 80 32 00
        E 0 80 33 00
        E 0 80 49 00
        E 0 80 4a 00
        E 0 80 4b 00
        E 0 80 4c 00
        E 0 80 4d 00
        E 0 80 61 00
        E 0 80 62 00
        E 0 80 63 00
        E 0 80 64 00
        E 0 80 65 00
        E 0 8d 51 00
        E 0 8d 69 00
        E 120 90 1a 66
        E 0 90 32 66
        E 0 90 33 66
        E 0 90 49 64
        E 0 90 4a 66
        E 0 90 4b 66
        E 0 90 4c 65
        E 0 90 4d 64
        E 0 90 61 64
        E 0 90 62 66
        E 0 90 63 66
        E 0 90 64 65
        E 0 90 65 64
        E 0 9f 51 64
        E 0 9f 69 64
        E 120 80 1a 00
        E 0 80 32 00
        E 0 80 33 00
        E 0 80 49 00
        E 0 80 4a 00
        E 0 80 4b 00
        E 0 80 4c 00
        E 0 80 4d 00
        E 0 80 61 00
        E 0 80 62 00
        E 0 80 63 00
        E 0 80 64 00
        E 0 80 65 00
        E 0 8f 51 00
        E 0 8f 69 00
        E 120 90 6c 66
        E 0 93 48 67
        E 0 93 49 66
        E 0 93 4a 64
        E 0 93 4b 64
        E 0 93 4c 64
        E 0 93 4d 67
        E 0 93 60 67
        E 0 93 61 66
        E 0 93 62 64
        E 0 93 63 64
        E 0 93 64 64
        E 0 93 65 67
        E 120 80 6c 00
        E 0 83 48 00
        E 0 83 49 00
        E 0 83 4a 00
        E 0 83 4b 00
        E 0 83 4c 00
        E 0 83 4d 00
        E 0 83 60 00
        E 0 83 61 00
        E 0 83 62 00
        E 0 83 63 00
        E 0 83 64 00
        E 0 83 65 00
        E 120 90 07 64
        E 0 90 18 67
        E 0 90 30 67
        E 0 90 31 66
        E 0 90 48 67
        E 0 90 49 66
        E 0 90 4a 64
        E 0 90 4b 64
        E 0 90 4c 64
        E 0 90 4d 67
        E 0 90 60 67
        E 0 90 61 66
        E 0 90 62 64
        E 0 90 63 64
        E 0 90 64 64
        E 0 90 65 67
        E 0 9f 51 64
        E 0 9f 69 64
        E 120 80 07 00
        E 0 80 18 00
        E 0 80 30 00
        E 0 80 31 00
        E 240 80 48 00
        E 0 80 49 00
        E 0 80 4a 00
        E 0 80 4b 00
        E 0 80 4c 00
        E 0 80 4d 00
        E 0 80 60 00
        E 0 80 61 00
        E 0 80 62 00
        E 0 80 63 00
        E 0 80 64 00
        E 0 80 65 00
        E 0 8f 51 00
        E 0 8f 69 00
        E 120 90 30 67
        E 0 90 31 66
        E 0 90 48 67
        E 0 90 49 66
        E 0 90 4a 64
        E 0 90 4b 64
        E 0 90 4c 64
        E 0 90 4d 67
        E 0 90 60 67
        E 0 90 61 66
        E 0 90 62 64
        E 0 90 63 64
        E 0 90 64 64
        E 0 90 65 67
        E 0 9f 51 64
        E 0 9f 69 64
        E 120 80 30 00
        E 0 80 31 00
        E 0 80 48 00
        E 0 80 49 00
        E 0 80 4a 00
        E 0 80 4b 00
        E 0 80 4c 00
        E 0 80 4d 00
        E 0 80 60 00
        E 0 80 61 00
        E 0 80 62 00
        E 0 80 63 00
        E 0 80 64 00
        E 0 80 65 00
        E 0 8f 51 00
        E 0 8f 69 00
        E 120 93 48 66
        E 0 93 49 66
        E 0 93 4a 64
        E 0 93 4b 64
        E 0 93 4c 64
        E 0 93 4d 67
        E 0 93 60 66
        E 0 93 61 66
        E 0 93 62 64
        E 0 93 63 64
        E 0 93 64 64
        E 0 93 65 67
        E 120 83 48 00
        E 0 83 49 00
        E 0 83 4a 00
        E 0 83 4b 00
        E 0 83 4c 00
        E 0 83 4d 00
        E 0 83 60 00
        E 0 83 61 00
        E 0 83 62 00
        E 0 83 63 00
        E 0 83 64 00
        E 0 83 65 00
        E 120 90 07 64
        E 0 90 10 64
        E 0 90 18 66
        E 0 90 30 66
        E 0 90 31 66
        E 0 90 48 66
        E 0 90 49 66
        E 0 90 4a 64
        E 0 90 4b 64
        E 0 90 4c 64
        E 0 90 4d 67
        E 0 90 60 66
        E 0 90 61 66
        E 0 90 62 64
        E 0 90 63 64
        E 0 90 64 64
        E 0 90 65 67
        E 0 9f 51 64
        E 0 9f 69 64
        E 120 80 07 00
        E 0 80 10 00
        E 0 80 18 00
        E 0 80 30 00
        E 0 80 31 00
        E 0 80 48 00
        E 0 80 49 00
        E 0 80 4a 00
        E 0 80 4b 00
        E 0 80 4c 00
        E 0 80 4d 00
        E 0 80 60 00
        E 0 80 61 00
        E 0 80 62 00
        E 0 80 63 00
        E 0 80 64 00
        E 0 80 65 00
        E 0 8f 51 00
        E 0 8f 69 00
        E 120 90 30 66
        E 0 90 31 66
        E 0 90 48 66
        E 0 90 49 66
        E 0 90 4a 64
        E 0 90 4b 64
        E 0 90 4c 64
        E 0 90 4d 67
        E 0 90 60 66
        E 0 90 61 66
        E 0 90 62 64
        E 0 90 63 64
        E 0 90 64 64
        E 0 90 65 67
        E 0 9d 51 64
        E 0 9d 69 64
        E 120 80 30 00
        E 0 80 31 00
        E 0 80 48 00
        E 0 80 49 00
        E 0 80 4a 00
        E 0 80 4b 00
        E 0 80 4c 00
        E 0 80 4d 00
        E 0 80 60 00
        E 0 80 61 00
        E 0 80 62 00
        E 0 80 63 00
        E 0 80 64 00
        E 0 80 65 00
        E 0 8d 51 00
        E 0 8d 69 00
        E 120 90 30 66
        E 0 90 31 66
        E 0 90 48 66
        E 0 90 49 66
        E 0 90 4a 64
        E 0 90 4b 64
        E 0 90 4c 64
        E 0 90 4d 67
        E 0 90 60 66
        E 0 90 61 66
        E 0 90 62 64
        E 0 90 63 64
        E 0 90 64 64
        E 0 90 65 67
        E 0 9f 51 64
        E 0 9f 69 64
        E 120 80 30 00
        E 0 80 31 00
        E 0 80 48 00
        E 0 80 49 00
        E 0 80 4a 00
        E 0 80 4b 00
        E 0 80 4c 00
        E 0 80 4d 00
        E 0 80 60 00
        E 0 80 61 00
        E 0 80 62 00
        E 0 80 63 00
        E 0 80 64 00
        E 0 80 65 00
        E 0 8f 51 00
        E 0 8f 69 00
        E 120 93 48 64
        E 0 93 49 66
        E 0 93 4a 66
        E 0 93 4b 64
        E 0 93 4c 64
        E 0 93 4d 64
        E 0 93 60 64
        E 0 93 61 66
        E 0 93 62 66
        E 0 93 63 64
        E 0 93 64 64
        E 0 93 65 64
        E 120 83 48 00
        E 0 83 49 00
        E 0 83 4a 00
        E 0 83 4b 00
        E 0 83 4c 00
        E 0 83 4d 00
        E 0 83 60 00
        E 0 83 61 00
        E 0 83 62 00
        E 0 83 63 00
        E 0 83 64 00
        E 0 83 65 00
        E 120 90 04 64
        E 0 90 19 66
        E 0 90 31 66
        E 0 90 32 66
        E 0 90 48 64
        E 0 90 49 66
        E 0 90 4a 66
        E 0 90 4b 64
        E 0 90 4c 64
        E 0 90 4d 64
        E 0 90 60 64
        E 0 90 61 66
        E 0 90 62 66
        E 0 90 63 64
        E 0 90 64 64
        E 0 90 65 64
        E 0 9f 51 64
        E 0 9f 69 64
        E 120 80 04 00
        E 0 80 19 00
        E 0 80 31 00
        E 0 80 32 00
        E 240 80 48 00
        E 0 80 49 00
        E 0 80 4a 00
        E 0 80 4b 00
        E 0 80 4c 00
        E 0 80 4d 00
        E 0 80 60 00
        E 0 80 61 00
        E 0 80 62 00
        E 0 80 63 00
        E 0 80 64 00
        E 0 80 65 00
        E 0 8f 51 00
        E 0 8f 69 00
        E 120 90 19 66
        E 0 90 31 66
        E 0 90 32 66
        E 0 90 48 64
        E 0 90 49 66
        E 0 90 4a 66
        E 0 90 4b 64
        E 0 90 4c 64
        E 0 90 4d 64
        E 0 90 60 64
        E 0 90 61 66
        E 0 90 62 66
        E 0 90 63 64
        E 0 90 64 64
        E 0 90 65 64
        E 0 9f 51 64
        E 0 9f 69 64
        E 120 80 19 00
        E 0 80 31 00
        E 0 80 32 00
        E 0 80 48 00
        E 0 80 49 00
        E 0 80 4a 00
        E 0 80 4b 00
        E 0 80 4c 00
        E 0 80 4d 00
        E 0 80 60 00
        E 0 80 61 00
        E 0 80 62 00
        E 0 80 63 00
        E 0 80 64 00
        E 0 80 65 00
        E 0 8f 51 00
        E 0 8f 69 00
        E 120 90 31 66
        E 0 90 32 66
        E 0 90 48 64
        E 0 90 49 66
        E 0 90 4a 66
        E 0 90 4b 64
        E 0 90 4c 64
        E 0 90 4d 64
        E 0 90 60 64
        E 0 90 61 66
        E 0 90 62 66
        E 0 90 63 64
        E 0 90 64 64
        E 0 90 65 64
        E 0 9d 51 64
        E 0 9d 69 64
        E 120 80 31 00
        E 0 80 32 00
        E 0 80 48 00
        E 0 80 49 00
        E 0 80 4a 00
        E 0 80 4b 00
        E 0 80 4c 00
        E 0 80 4d 00
        E 0 80 60 00
        E 0 80 61 00
        E 0 80 62 00
        E 0 80 63 00
        E 0 80 64 00
        E 0 80 65 00
        E 0 8d 51 00
        E 0 8d 69 00
        E 120 90 19 66
        E 0 90 31 66
        E 0 90 32 66
        E 0 90 48 64
        E 0 90 49 66
        E 0 90 4a 66
        E 0 90 4b 64
        E 0 90 4c 64
        E 0 90 4d 64
        E 0 90 60 64
        E 0 90 61 66
        E 0 90 62 66
        E 0 90 63 64
        E 0 90 64 64
        E 0 90 65 64
        E 0 9f 51 64
        E 0 9f 69 64
        E 120 80 19 00
        E 0 80 31 00
        E 0 80 32 00
        E 0 80 48 00
        E 0 80 49 00
        E 0 80 4a 00
        E 0 80 4b 00
        E 0 80 4c 00
        E 0 80 4d 00
        E 0 80 60 00
        E 0 80 61 00
        E 0 80 62 00
        E 0 80 63 00
        E 0 80 64 00
        E 0 80 65 00
        E 0 8f 51 00
        E 0 8f 69 00
        E 120 90 31 66
        E 0 90 32 66
        E 0 90 48 64
        E 0 90 49 66
        E 0 90 4a 66
        E 0 90 4b 64
        E 0 90 4c 64
        E 0 90 4d 64
        E 0 90 60 64
        E 0 90 61 66
        E 0 90 62 66
        E 0 90 63 64
        E 0 90 64 64
        E 0 90 65 64
        E 0 9d 51 64
        E 0 9d 69 64
        E 120 80 31 00
        E 0 80 32 00
        E 0 80 48 00
        E 0 80 49 00
        E 0 80 4a 00
        E 0 80 4b 00
        E 0 80 4c 00
        E 0 80 4d 00
        E 0 80 60 00
        E 0 80 61 00
        E 0 80 62 00
        E 0 80 63 00
        E 0 80 64 00
        E 0 80 65 00
        E 0 8d 51 00
        E 0 8d 69 00
        E 120 90 31 66
        E 0 90 32 66
        E 0 90 48 64
        E 0 90 49 66
        E 0 90 4a 66
        E 0 90 4b 64
        E 0 90 4c 64
        E 0 90 4d 64
        E 0 90 60 64
        E 0 90 61 66
        E 0 90 62 66
        E 0 90 63 64
        E 0 90 64 64
        E 0 90 65 64
        E 0 9f 51 64
        E 0 9f 69 64
        E 120 80 31 00
        E 0 80 32 00
        E 0 80 48 00
        E 0 80 49 00
        E 0 80 4a 00
        E 0 80 4b 00
        E 0 80 4c 00
        E 0 80 4d 00
        E 0 80 60 00
        E 0 80 61 00
        E 0 80 62 00
        E 0 80 63 00
        E 0 80 64 00
        E 0 80 65 00
        E 0 8f 51 00
        E 0 8f 69 00
        E 120 90 6c 65
        E 0 93 49 67
        E 0 93 4a 66
        E 0 93 4b 64
        E 0 93 4c 65
        E 0 93 4d 64
        E 0 93 61 67
        E 0 93 62 66
        E 0 93 63 64
        E 0 93 64 65
        E 0 93 65 64
        E 120 80 6c 00
        E 0 83 49 00
        E 0 83 4a 00
        E 0 83 4b 00
        E 0 83 4c 00
        E 0 83 4d 00
        E 0 83 61 00
        E 0 83 62 00
        E 0 83 63 00
        E 0 83 64 00
        E 0 83 65 00
        E 120 90 0c 64
        E 0 90 31 67
        E 0 90 32 66
        E 0 90 49 67
        E 0 90 4a 66
        E 0 90 4b 64
        E 0 90 4c 65
        E 0 90 4d 64
        E 0 90 61 67
        E 0 90 62 66
        E 0 90 63 64
        E 0 90 64 65
        E 0 90 65 64
        E 0 9f 51 64
        E 0 9f 69 64
        E 120 80 0c 00
        E 0 80 31 00
        E 0 80 32 00
        E 240 80 49 00
        E 0 80 4a 00
        E 0 80 4b 00
        E 0 80 4c 00
        E 0 80 4d 00
        E 0 80 61 00
        E 0 80 62 00
        E 0 80 63 00
        E 0 80 64 00
        E 0 80 65 00
        E 0 8f 51 00
        E 0 8f 69 00
        E 120 90 31 67
        E 0 90 32 66
        E 0 90 49 67
        E 0 90 4a 66
        E 0 90 4b 64
        E 0 90 4c 65
        E 0 90 4d 64
        E 0 90 61 67
        E 0 90 62 66
        E 0 90 63 64
        E 0 90 64 65
        E 0 90 65 64
        E 0 9f 51 64
        E 0 9f 69 64
        E 120 80 31 00
        E 0 80 32 00
        E 0 80 49 00
        E 0 80 4a 00
        E 0 80 4b 00
        E 0 80 4c 00
        E 0 80 4d 00
        E 0 80 61 00
        E 0 80 62 00
        E 0 80 63 00
        E 0 80 64 00
        E 0 80 65 00
        E 0 8f 51 00
        E 0 8f 69 00
        E 120 93 49 67
        E 0 93 4a 66
        E 0 93 4b 64
        E 0 93 4c 65
        E 0 93 4d 64
        E 0 93 61 67
        E 0 93 62 66
        E 0 93 63 64
        E 0 93 64 65
        E 0 93 65 64
        E 120 83 49 00
        E 0 83 4a 00
        E 0 83 4b 00
        E 0 83 4c 00
        E 0 83 4d 00
        E 0 83 61 00
        E 0 83 62 00
        E 0 83 63 00
        E 0 83 64 00
        E 0 83 65 00
        E 120 90 0c 64
        E 0 90 10 64
        E 0 90 31 66
        E 0 90 32 66
        E 0 90 49 66
        E 0 90 4a 66
        E 0 90 4b 64
        E 0 90 4c 65
        E 0 90 4d 64
        E 0 90 61 66
        E 0 90 62 66
        E 0 90 63 64
        E 0 90 64 65
        E 0 90 65 64
        E 0 9f 51 64
        E 0 9f 69 64
        E 120 80 0c 00
        E 0 80 10 00
        E 0 80 31 00
        E 0 80 32 00
        E 240 80 49 00
        E 0 80 4a 00
        E 0 80 4b 00
        E 0 80 4c 00
        E 0 80 4d 00
        E 0 80 61 00
        E 0 80 62 00
        E 0 80 63 00
        E 0 80 64 00
        E 0 80 65 00
        E 0 8f 51 00
        E 0 8f 69 00
        E 120 90 31 66
        E 0 90 32 66
        E 0 90 49 66
        E 0 90 4a 66
        E 0 90 4b 64
        E 0 90 4c 65
        E 0 90 4d 64
        E 0 90 61 66
        E 0 90 62 66
        E 0 90 63 64
        E 0 90 64 65
        E 0 90 65 64
        E 0 9f 51 64
        E 0 9f 69 64
        E 120 80 31 00
        E 0 80 32 00
        E 0 80 49 00
        E 0 80 4a 00
        E 0 80 4b 00
        E 0 80 4c 00
        E 0 80 4d 00
        E 0 80 61 00
        E 0 80 62 00
        E 0 80 63 00
        E 0 80 64 00
        E 0 80 65 00
        E 0 8f 51 00
        E 0 8f 69 00
        E 120 93 49 66
        E 0 93 4a 66
        E 0 93 4b 64
        E 0 93 4c 65
        E 0 93 4d 64
        E 0 93 61 66
        E 0 93 62 66
        E 0 93 63 64
        E 0 93 64 65
        E 0 93 65 64
        E 120 83 49 00
        E 0 83 4a 00
        E 0 83 4b 00
        E 0 83 4c 00
        E 0 83 4d 00
        E 0 83 61 00
        E 0 83 62 00
        E 0 83 63 00
        E 0 83 64 00
        E 0 83 65 00
        E 120 90 09 64
        E 0 90 1a 66
        E 0 90 32 66
        E 0 90 33 66
        E 0 90 49 64
        E 0 90 4a 66
        E 0 90 4b 66
        E 0 90 4c 65
        E 0 90 4d 64
        E 0 90 61 64
        E 0 90 62 66
        E 0 90 63 66
        E 0 90 64 65
        E 0 90 65 64
        E 0 9f 51 64
        E 0 9f 69 64
        E 120 80 09 00
        E 0 80 1a 00
        E 0 80 32 00
        E 0 80 33 00
        E 240 80 49 00
        E 0 80 4a 00
        E 0 80 4b 00
        E 0 80 4c 00
        E 0 80 4d 00
        E 0 80 61 00
        E 0 80 62 00
        E 0 80 63 00
        E 0 80 64 00
        E 0 80 65 00
        E 0 8f 51 00
        E 0 8f 69 00
        E 120 90 1a 66
        E 0 90 32 66
        E 0 90 33 66
        E 0 90 49 64
        E 0 90 4a 66
        E 0 90 4b 66
        E 0 90 4c 65
        E 0 90 4d 64
        E 0 90 61 64
        E 0 90 62 66
        E 0 90 63 66
        E 0 90 64 65
        E 0 90 65 64
        E 0 9f 51 64
        E 0 9f 69 64
        E 120 80 1a 00
        E 0 80 32 00
        E 0 80 33 00
        E 0 80 49 00
        E 0 80 4a 00
        E 0 80 4b 00
        E 0 80 4c 00
        E 0 80 4d 00
        E 0 80 61 00
        E 0 80 62 00
        E 0 80 63 00
        E 0 80 64 00
        E 0 80 65 00
        E 0 8f 51 00
        E 0 8f 69 00
        E 120 90 49 64
        E 0 90 4a 66
        E 0 90 4b 66
        E 0 90 4c 65
        E 0 90 4d 64
        E 0 90 61 64
        E 0 90 62 66
        E 0 90 63 66
        E 0 90 64 65
        E 0 90 65 64
        E 0 9d 51 64
        E 0 9d 69 64
        E 120 80 49 00
        E 0 80 4a 00
        E 0 80 4b 00
        E 0 80 4c 00
        E 0 80 4d 00
        E 0 80 61 00
        E 0 80 62 00
        E 0 80 63 00
        E 0 80 64 00
        E 0 80 65 00
        E 0 8d 51 00
        E 0 8d 69 00
        E 120 90 1a 66
        E 0 90 32 66
        E 0 90 33 66
        E 0 90 49 64
        E 0 90 4a 66
        E 0 90 4b 66
        E 0 90 4c 65
        E 0 90 4d 64
        E 0 90 61 64
        E 0 90 62 66
        E 0 90 63 66
        E 0 90 64 65
        E 0 90 65 64
        E 0 9f 51 64
        E 0 9f 69 64
        E 120 80 1a 00
        E 0 80 32 00
        E 0 80 33 00
        E 0 80 49 00
        E 0 80 4a 00
        E 0 80 4b 00
        E 0 80 4c 00
        E 0 80 4d 00
        E 0 80 61 00
        E 0 80 62 00
        E 0 80 63 00
        E 0 80 64 00
        E 0 80 65 00
        E 0 8f 51 00
        E 0 8f 69 00
        E 120 90 32 66
        E 0 90 33 66
        E 0 90 49 64
        E 0 90 4a 66
        E 0 90 4b 66
        E 0 90 4c 64
        E 0 90 4d 64
        E 0 90 61 64
        E 0 90 62 66
        E 0 90 63 66
        E 0 90 64 64
        E 0 90 65 64
        E 0 9f 51 64
        E 0 9f 69 64
        E 120 80 32 00
        E 0 80 33 00
        E 0 80 49 00
        E 0 80 4a 00
        E 0 80 4b 00
        E 0 80 4c 00
        E 0 80 4d 00
        E 0 80 61 00
        E 0 80 62 00
        E 0 80 63 00
        E 0 80 64 00
        E 0 80 65 00
        E 0 8f 51 00
        E 0 8f 69 00
        E 120 90 1a 66
        E 0 90 32 66
        E 0 90 33 66
        E 0 90 49 64
        E 0 90 4a 66
        E 0 90 4b 66
        E 0 90 4c 64
        E 0 90 4d 64
        E 0 90 61 64
        E 0 90 62 66
        E 0 90 63 66
        E 0 90 64 64
        E 0 90 65 64
        E 0 9f 51 64
        E 0 9f 69 64
        E 120 80 1a 00
        E 0 80 32 00
        E 0 80 33 00
        E 0 80 49 00
        E 0 80 4a 00
        E 0 80 4b 00
        E 0 80 4c 00
        E 0 80 4d 00
        E 0 80 61 00
        E 0 80 62 00
        E 0 80 63 00
        E 0 80 64 00
        E 0 80 65 00
        E 0 8f 51 00
        E 0 8f 69 00
        E 120 90 6c 66
        E 0 93 48 67
        E 0 93 49 66
        E 0 93 4a 64
        E 0 93 4b 64
        E 0 93 4c 64
        E 0 93 4d 67
        E 0 93 60 67
        E 0 93 61 66
        E 0 93 62 64
        E 0 93 63 64
        E 0 93 64 64
        E 0 93 65 67
        E 120 80 6c 00
        E 0 83 48 00
        E 0 83 49 00
        E 0 83 4a 00
        E 0 83 4b 00
        E 0 83 4c 00
        E 0 83 4d 00
        E 0 83 60 00
        E 0 83 61 00
        E 0 83 62 00
        E 0 83 63 00
        E 0 83 64 00
        E 0 83 65 00
        E 120 90 07 64
        E 0 90 18 67
        E 0 90 30 67
        E 0 90 31 66
        E 0 90 48 67
        E 0 90 49 66
        E 0 90 4a 64
        E 0 90 4b 64
        E 0 90 4c 64
        E 0 90 4d 67
        E 0 90 60 67
        E 0 90 61 66
        E 0 90 62 64
        E 0 90 63 64
        E 0 90 64 64
        E 0 90 65 67
        E 0 9f 51 64
        E 0 9f 69 64
        E 120 80 07 00
        E 0 80 18 00
        E 0 80 30 00
        E 0 80 31 00
        E 240 80 48 00
        E 0 80 49 00
        E 0 80 4a 00
        E 0 80 4b 00
        E 0 80 4c 00
        E 0 80 4d 00
        E 0 80 60 00
        E 0 80 61 00
        E 0 80 62 00
        E 0 80 63 00
        E 0 80 64 00
        E 0 80 65 00
        E 0 8f 51 00
        E 0 8f 69 00
        E 120 90 30 67
        E 0 90 31 66
        E 0 90 48 67
        E 0 90 49 66
        E 0 90 4a 64
        E 0 90 4b 64
        E 0 90 4c 64
        E 0 90 4d 67
        E 0 90 60 67
        E 0 90 61 66
        E 0 90 62 64
        E 0 90 63 64
        E 0 90 64 64
        E 0 90 65 67
        E 0 9f 51 64
        E 0 9f 69 64
        E 120 80 30 00
        E 0 80 31 00
        E 0 80 48 00
        E 0 80 49 00
        E 0 80 4a 00
        E 0 80 4b 00
        E 0 80 4c 00
        E 0 80 4d 00
        E 0 80 60 00
        E 0 80 61 00
        E 0 80 62 00
        E 0 80 63 00
        E 0 80 64 00
        E 0 80 65 00
        E 0 8f 51 00
        E 0 8f 69 00
        E 120 93 48 66
        E 0 93 49 66
        E 0 93 4a 64
        E 0 93 4b 64
        E 0 93 4c 64
        E 0 93 4d 67
        E 0 93 60 66
        E 0 93 61 66
        E 0 93 62 64
        E 0 93 63 64
        E 0 93 64 64
        E 0 93 65 67
        E 120 83 48 00
        E 0 83 49 00
        E 0 83 4a 00
        E 0 83 4b 00
        E 0 83 4c 00
        E 0 83 4d 00
        E 0 83 60 00
        E 0 83 61 00
        E 0 83 62 00
        E 0 83 63 00
        E 0 83 64 00
        E 0 83 65 00
        E 120 90 07 64
        E 0 90 10 64
        E 0 90 18 66
        E 0 90 30 66
        E 0 90 31 66
        E 0 90 48 66
        E 0 90 49 66
        E 0 90 4a 64
        E 0 90 4b 64
        E 0 90 4c 64
        E 0 90 4d 67
        E 0 90 60 66
        E 0 90 61 66
        E 0 90 62 64
        E 0 90 63 64
        E 0 90 64 64
        E 0 90 65 67
        E 0 9f 51 64
        E 0 9f 69 64
        E 120 80 07 00
        E 0 80 10 00
        E 0 80 18 00
        E 0 80 30 00
        E 0 80 31 00
        E 240 80 48 00
        E 0 80 49 00
        E 0 80 4a 00
        E 0 80 4b 00
        E 0 80 4c 00
        E 0 80 4d 00
        E 0 80 60 00
        E 0 80 61 00
        E 0 80 62 00
        E 0 80 63 00
        E 0 80 64 00
        E 0 80 65 00
        E 0 8f 51 00
        E 0 8f 69 00
        E 120 90 30 66
        E 0 90 31 66
        E 0 90 48 66
        E 0 90 49 66
        E 0 90 4a 64
        E 0 90 4b 64
        E 0 90 4c 64
        E 0 90 4d 67
        E 0 90 60 66
        E 0 90 61 66
        E 0 90 62 64
        E 0 90 63 64
        E 0 90 64 64
        E 0 90 65 67
        E 0 9f 51 64
        E 0 9f 69 64
        E 120 80 30 00
        E 0 80 31 00
        E 0 80 48 00
        E 0 80 49 00
        E 0 80 4a 00
        E 0 80 4b 00
        E 0 80 4c 00
        E 0 80 4d 00
        E 0 80 60 00
        E 0 80 61 00
        E 0 80 62 00
        E 0 80 63 00
        E 0 80 64 00
        E 0 80 65 00
        E 0 8f 51 00
        E 0 8f 69 00
        E 120 93 48 64
        E 0 93 49 66
        E 0 93 4a 66
        E 0 93 4b 64
        E 0 93 4c 64
        E 0 93 4d 64
        E 0 93 60 64
        E 0 93 61 66
        E 0 93 62 66
        E 0 93 63 64
        E 0 93 64 64
        E 0 93 65 64
        E 120 83 48 00
        E 0 83 49 00
        E 0 83 4a 00
        E 0 83 4b 00
        E 0 83 4c 00
        E 0 83 4d 00
        E 0 83 60 00
        E 0 83 61 00
        E 0 83 62 00
        E 0 83 63 00
        E 0 83 64 00
        E 0 83 65 00
        E 120 90 04 64
        E 0 90 19 66
        E 0 90 31 66
        E 0 90 32 66
        E 0 90 48 64
        E 0 90 49 66
        E 0 90 4a 66
        E 0 90 4b 64
        E 0 90 4c 64
        E 0 90 4d 64
        E 0 90 60 64
        E 0 90 61 66
        E 0 90 62 66
        E 0 90 63 64
        E 0 90 64 64
        E 0 90 65 64
        E 0 90 74 60
        E 0 9f 51 64
        E 0 9f 69 64
        E 120 80 04 00
        E 0 80 19 00
        E 0 80 31 00
        E 0 80 32 00
        E 240 80 48 00
        E 0 80 49 00
        E 0 80 4a 00
        E 0 80 4b 00
        E 0 80 4c 00
        E 0 80 4d 00
        E 0 80 60 00
        E 0 80 61 00
        E 0 80 62 00
        E 0 80 63 00
        E 0 80 64 00
        E 0 80 65 00
        E 0 8f 51 00
        E 0 8f 69 00
        E 120 90 19 66
        E 0 90 31 66
        E 0 90 32 66
        E 0 90 48 64
        E 0 90 49 66
        E 0 90 4a 66
        E 0 90 4b 64
        E 0 90 4c 64
        E 0 90 4d 64
        E 0 90 60 64
        E 0 90 61 66
        E 0 90 62 66
        E 0 90 63 64
        E 0 90 64 64
        E 0 90 65 64
        E 0 9f 51 64
        E 0 9f 69 64
        E 120 80 19 00
        E 0 80 31 00
        E 0 80 32 00
        E 0 80 48 00
        E 0 80 49 00
        E 0 80 4a 00
        E 0 80 4b 00
        E 0 80 4c 00
        E 0 80 4d 00
        E 0 80 60 00
        E 0 80 61 00
        E 0 80 62 00
        E 0 80 63 00
        E 0 80 64 00
        E 0 80 65 00
        E 0 8f 51 00
        E 0 8f 69 00
        E 120 90 31 66
        E 0 90 32 66
        E 0 90 48 64
        E 0 90 49 66
        E 0 90 4a 66
        E 0 90 4b 64
        E 0 90 4c 64
        E 0 90 4d 64
        E 0 90 60 64
        E 0 90 61 66
        E 0 90 62 66
        E 0 90 63 64
        E 0 90 64 64
        E 0 90 65 64
        E 0 9d 51 64
        E 0 9d 69 64
        E 120 80 31 00
        E 0 80 32 00
        E 0 80 48 00
        E 0 80 49 00
        E 0 80 4a 00
        E 0 80 4b 00
        E 0 80 4c 00
        E 0 80 4d 00
        E 0 80 60 00
        E 0 80 61 00
        E 0 80 62 00
        E 0 80 63 00
        E 0 80 64 00
        E 0 80 65 00
        E 0 8d 51 00
        E 0 8d 69 00
        E 120 90 19 66
        E 0 90 31 66
        E 0 90 32 66
        E 0 90 48 64
        E 0 90 49 66
        E 0 90 4a 66
        E 0 90 4b 64
        E 0 90 4c 64
        E 0 90 4d 64
        E 0 90 60 64
        E 0 90 61 66
        E 0 90 62 66
        E 0 90 63 64
        E 0 90 64 64
        E 0 90 65 64
        E 0 9f 51 64
        E 0 9f 69 64
        E 120 80 19 00
        E 0 80 31 00
        E 0 80 32 00
        E 0 80 48 00
        E 0 80 49 00
        E 0 80 4a 00
        E 0 80 4b 00
        E 0 80 4c 00
        E 0 80 4d 00
        E 0 80 60 00
        E 0 80 61 00
        E 0 80 62 00
        E 0 80 63 00
        E 0 80 64 00
        E 0 80 65 00
        E 0 8f 51 00
        E 0 8f 69 00
        E 120 90 31 66
        E 0 90 32 66
        E 0 90 48 64
        E 0 90 49 66
        E 0 90 4a 66
        E 0 90 4b 64
        E 0 90 4c 64
        E 0 90 4d 64
        E 0 90 60 64
        E 0 90 61 66
        E 0 90 62 66
        E 0 90 63 64
        E 0 90 64 64
        E 0 90 65 64
        E 0 9d 51 64
        E 0 9d 69 64
        E 120 80 31 00
        E 0 80 32 00
        E 0 80 48 00
        E 0 80 49 00
        E 0 80 4a 00
        E 0 80 4b 00
        E 0 80 4c 00
        E 0 80 4d 00
        E 0 80 60 00
        E 0 80 61 00
        E 0 80 62 00
        E 0 80 63 00
        E 0 80 64 00
        E 0 80 65 00
        E 0 8d 51 00
        E 0 8d 69 00
        E 120 90 31 66
        E 0 90 32 66
        E 0 90 48 64
        E 0 90 49 66
        E 0 90 4a 66
        E 0 90 4b 64
        E 0 90 4c 64
        E 0 90 4d 64
        E 0 90 60 64
        E 0 90 61 66
        E 0 90 62 66
        E 0 90 63 64
        E 0 90 64 64
        E 0 90 65 64
        E 0 9f 51 64
        E 0 9f 69 64
        E 120 80 31 00
        E 0 80 32 00
        E 0 80 48 00
        E 0 80 49 00
        E 0 80 4a 00
        E 0 80 4b 00
        E 0 80 4c 00
        E 0 80 4d 00
        E 0 80 60 00
        E 0 80 61 00
        E 0 80 62 00
        E 0 80 63 00
        E 0 80 64 00
        E 0 80 65 00
        E 0 8f 51 00
        E 0 8f 69 00
        E 120 90 6c 65
        E 0 93 49 67
        E 0 93 4a 66
        E 0 93 4b 64
        E 0 93 4c 65
        E 0 93 4d 64
        E 0 93 61 67
        E 0 93 62 66
        E 0 93 63 64
        E 0 93 64 65
        E 0 93 65 64
        E 120 80 6c 00
        E 0 83 49 00
        E 0 83 4a 00
        E 0 83 4b 00
        E 0 83 4c 00
        E 0 83 4d 00
        E 0 83 61 00
        E 0 83 62 00
        E 0 83 63 00
        E 0 83 64 00
        E 0 83 65 00
        E 120 80 74 00
        E 0 90 0c 64
        E 0 90 31 67
        E 0 90 32 66
        E 0 90 49 67
        E 0 90 4a 66
        E 0 90 4b 64
        E 0 90 4c 65
        E 0 90 4d 64
        E 0 90 61 67
        E 0 90 62 66
        E 0 90 63 64
        E 0 90 64 65
        E 0 90 65 64
        E 0 9f 51 64
        E 0 9f 69 64
        E 120 80 0c 00
        E 0 80 31 00
        E 0 80 32 00
        E 240 80 49 00
        E 0 80 4a 00
        E 0 80 4b 00
        E 0 80 4c 00
        E 0 80 4d 00
        E 0 80 61 00
        E 0 80 62 00
        E 0 80 63 00
        E 0 80 64 00
        E 0 80 65 00
        E 0 8f 51 00
        E 0 8f 69 00
        E 120 90 31 67
        E 0 90 32 66
        E 0 90 49 67
        E 0 90 4a 66
        E 0 90 4b 64
        E 0 90 4c 65
        E 0 90 4d 64
        E 0 90 61 67
        E 0 90 62 66
        E 0 90 63 64
        E 0 90 64 65
        E 0 90 65 64
        E 0 9f 51 64
        E 0 9f 69 64
        E 120 80 31 00
        E 0 80 32 00
        E 0 80 49 00
        E 0 80 4a 00
        E 0 80 4b 00
        E 0 80 4c 00
        E 0 80 4d 00
        E 0 80 61 00
        E 0 80 62 00
        E 0 80 63 00
        E 0 80 64 00
        E 0 80 65 00
        E 0 8f 51 00
        E 0 8f 69 00
        E 120 93 49 67
        E 0 93 4a 66
        E 0 93 4b 64
        E 0 93 4c 65
        E 0 93 4d 64
        E 0 93 61 67
        E 0 93 62 66
        E 0 93 63 64
        E 0 93 64 65
        E 0 93 65 64
        E 120 83 49 00
        E 0 83 4a 00
        E 0 83 4b 00
        E 0 83 4c 00
        E 0 83 4d 00
        E 0 83 61 00
        E 0 83 62 00
        E 0 83 63 00
        E 0 83 64 00
        E 0 83 65 00
        E 120 90 0c 64
        E 0 90 10 64
        E 0 90 31 66
        E 0 90 32 66
        E 0 90 49 66
        E 0 90 4a 66
        E 0 90 4b 64
        E 0 90 4c 65
        E 0 90 4d 64
        E 0 90 61 66
        E 0 90 62 66
        E 0 90 63 64
        E 0 90 64 65
        E 0 90 65 64
        E 0 9f 51 64
        E 0 9f 69 64
        E 120 80 0c 00
        E 0 80 10 00
        E 0 80 31 00
        E 0 80 32 00
        E 0 80 61 00
        E 0 80 62 00
        E 0 80 63 00
        E 0 80 64 00
        E 0 80 65 00
        E 0 8f 51 00
        E 0 8f 69 00
        E 120 90 61 66
        E 0 90 62 66
        E 0 90 63 64
        E 0 90 64 65
        E 0 90 65 64
        E 0 9d 51 64
        E 0 9d 69 64
        E 120 80 49 00
        E 0 80 4a 00
        E 0 80 4b 00
        E 0 80 4c 00
        E 0 80 4d 00
        E 0 80 61 00
        E 0 80 62 00
        E 0 80 63 00
        E 0 80 64 00
        E 0 80 65 00
        E 0 8d 51 00
        E 0 8d 69 00
        E 120 90 31 66
        E 0 90 32 66
        E 0 90 49 66
        E 0 90 4a 66
        E 0 90 4b 64
        E 0 90 4c 65
        E 0 90 4d 64
        E 0 90 61 66
        E 0 90 62 66
        E 0 90 63 64
        E 0 90 64 65
        E 0 90 65 64
        E 0 9f 51 64
        E 0 9f 69 64
        E 120 80 31 00
        E 0 80 32 00
        E 0 80 49 00
        E 0 80 4a 00
        E 0 80 4b 00
        E 0 80 4c 00
        E 0 80 4d 00
        E 0 80 61 00
        E 0 80 62 00
        E 0 80 63 00
        E 0 80 64 00
        E 0 80 65 00
        E 0 8f 51 00
        E 0 8f 69 00
        E 120 93 49 66
        E 0 93 4a 66
        E 0 93 4b 64
        E 0 93 4c 65
        E 0 93 4d 64
        E 0 93 61 66
        E 0 93 62 66
        E 0 93 63 64
        E 0 93 64 65
        E 0 93 65 64
        E 120 83 49 00
        E 0 83 4a 00
        E 0 83 4b 00
        E 0 83 4c 00
        E 0 83 4d 00
        E 0 83 61 00
        E 0 83 62 00
        E 0 83 63 00
        E 0 83 64 00
        E 0 83 65 00
        E 120 90 09 64
        E 0 90 1a 66
        E 0 90 32 66
        E 0 90 33 66
        E 0 90 49 64
        E 0 90 4a 66
        E 0 90 4b 66
        E 0 90 4c 65
        E 0 90 4d 64
        E 0 90 61 64
        E 0 90 62 66
        E 0 90 63 66
        E 0 90 64 65
        E 0 90 65 64
        E 0 9f 51 64
        E 0 9f 69 64
        E 120 80 09 00
        E 0 80 1a 00
        E 0 80 32 00
        E 0 80 33 00
        E 240 80 49 00
        E 0 80 4a 00
        E 0 80 4b 00
        E 0 80 4c 00
        E 0 80 4d 00
        E 0 80 61 00
        E 0 80 62 00
        E 0 80 63 00
        E 0 80 64 00
        E 0 80 65 00
        E 0 8f 51 00
        E 0 8f 69 00
        E 120 90 1a 66
        E 0 90 32 66
        E 0 90 33 66
        E 0 90 49 64
        E 0 90 4a 66
        E 0 90 4b 66
        E 0 90 4c 65
        E 0 90 4d 64
        E 0 90 61 64
        E 0 90 62 66
        E 0 90 63 66
        E 0 90 64 65
        E 0 90 65 64
        E 0 9f 51 64
        E 0 9f 69 64
        E 120 80 1a 00
        E 0 80 32 00
        E 0 80 33 00
        E 0 80 49 00
        E 0 80 4a 00
        E 0 80 4b 00
        E 0 80 4c 00
        E 0 80 4d 00
        E 0 80 61 00
        E 0 80 62 00
        E 0 80 63 00
        E 0 80 64 00
        E 0 80 65 00
        E 0 8f 51 00
        E 0 8f 69 00
        E 120 90 49 64
        E 0 90 4a 66
        E 0 90 4b 66
        E 0 90 4c 65
        E 0 90 4d 64
        E 0 90 61 64
        E 0 90 62 66
        E 0 90 63 66
        E 0 90 64 65
        E 0 90 65 64
        E 0 9d 51 64
        E 0 9d 69 64
        E 120 80 49 00
        E 0 80 4a 00
        E 0 80 4b 00
        E 0 80 4c 00
        E 0 80 4d 00
        E 0 80 61 00
        E 0 80 62 00
        E 0 80 63 00
        E 0 80 64 00
        E 0 80 65 00
        E 0 8d 51 00
        E 0 8d 69 00
        E 120 90 1a 66
        E 0 90 32 66
        E 0 90 33 66
        E 0 90 49 64
        E 0 90 4a 66
        E 0 90 4b 66
        E 0 90 4c 65
        E 0 90 4d 64
        E 0 90 61 64
        E 0 90 62 66
        E 0 90 63 66
        E 0 90 64 65
        E 0 90 65 64
        E 0 9f 51 64
        E 0 9f 69 64
        E 120 80 1a 00
        E 0 80 32 00
        E 0 80 33 00
        E 0 80 49 00
        E 0 80 4a 00
        E 0 80 4b 00
        E 0 80 4c 00
        E 0 80 4d 00
        E 0 80 61 00
        E 0 80 62 00
        E 0 80 63 00
        E 0 80 64 00
        E 0 80 65 00
        E 0 8f 51 00
        E 0 8f 69 00
        E 120 90 32 66
        E 0 90 33 66
        E 0 90 49 64
        E 0 90 4a 66
        E 0 90 4b 66
        E 0 90 4c 65
        E 0 90 4d 64
        E 0 90 61 64
        E 0 90 62 66
        E 0 90 63 66
        E 0 90 64 65
        E 0 90 65 64
        E 0 9d 51 64
        E 0 9d 69 64
        E 120 80 32 00
        E 0 80 33 00
        E 0 80 49 00
        E 0 80 4a 00
        E 0 80 4b 00
        E 0 80 4c 00
        E 0 80 4d 00
        E 0 80 61 00
        E 0 80 62 00
        E 0 80 63 00
        E 0 80 64 00
        E 0 80 65 00
        E 0 8d 51 00
        E 0 8d 69 00
        E 120 90 1a 66
        E 0 90 32 66
        E 0 90 33 66
        E 0 90 49 64
        E 0 90 4a 66
        E 0 90 4b 66
        E 0 90 4c 65
        E 0 90 4d 64
        E 0 90 61 64
        E 0 90 62 66
        E 0 90 63 66
        E 0 90 64 65
        E 0 90 65 64
        E 0 9f 51 64
        E 0 9f 69 64
        E 120 80 1a 00
        E 0 80 32 00
        E 0 80 33 00
        E 0 80 49 00
        E 0 80 4a 00
        E 0 80 4b 00
        E 0 80 4c 00
        E 0 80 4d 00
        E 0 80 61 00
        E 0 80 62 00
        E 0 80 63 00
        E 0 80 64 00
        E 0 80 65 00
        E 0 8f 51 00
        E 0 8f 69 00
        E 120 90 6c 66
        E 0 93 48 67
        E 0 93 49 66
        E 0 93 4a 64
        E 0 93 4b 64
        E 0 93 4c 64
        E 0 93 4d 67
        E 0 93 60 67
        E 0 93 61 66
        E 0 93 62 64
        E 0 93 63 64
        E 0 93 64 64
        E 0 93 65 67
        E 0 9d 51 64
        E 0 9d 69 64
        E 120 80 6c 00
        E 0 83 48 00
        E 0 83 49 00
        E 0 83 4a 00
        E 0 83 4b 00
        E 0 83 4c 00
        E 0 83 4d 00
        E 0 83 60 00
        E 0 83 61 00
        E 0 83 62 00
        E 0 83 63 00
        E 0 83 64 00
        E 0 83 65 00
        E 0 8d 51 00
        E 0 8d 69 00
        <X 120 0
          /wFbYmVnaW5fcGcgc29uZ190cmFpbmVyX3BnXzJd
        >
        E 0 90 07 64
        E 0 90 18 67
        E 0 90 30 67
        E 0 90 31 66
        E 0 90 48 67
        E 0 90 49 66
        E 0 90 4a 64
        E 0 90 4b 64
        E 0 90 4c 64
        E 0 90 4d 67
        E 0 90 60 67
        E 0 90 61 66
        E 0 90 62 64
        E 0 90 63 64
        E 0 90 64 64
        E 0 90 65 67
        E 0 9f 51 64
        E 0 9f 69 64
        E 120 80 07 00
        E 0 80 18 00
        E 0 80 30 00
        E 0 80 31 00
        E 240 80 48 00
        E 0 80 49 00
        E 0 80 4a 00
        E 0 80 4b 00
        E 0 80 4c 00
        E 0 80 4d 00
        E 0 80 60 00
        E 0 80 61 00
        E 0 80 62 00
        E 0 80 63 00
        E 0 80 64 00
        E 0 80 65 00
        E 0 8f 51 00
        E 0 8f 69 00
        E 120 90 30 67
        E 0 90 31 66
        E 0 90 48 67
        E 0 90 49 66
        E 0 90 4a 64
        E 0 90 4b 64
        E 0 90 4c 64
        E 0 90 4d 67
        E 0 90 60 67
        E 0 90 61 66
        E 0 90 62 64
        E 0 90 63 64
        E 0 90 64 64
        E 0 90 65 67
        E 0 9f 51 64
        E 0 9f 69 64
        E 120 80 30 00
        E 0 80 31 00
        E 0 80 48 00
        E 0 80 49 00
        E 0 80 4a 00
        E 0 80 4b 00
        E 0 80 4c 00
        E 0 80 4d 00
        E 0 80 60 00
        E 0 80 61 00
        E 0 80 62 00
        E 0 80 63 00
        E 0 80 64 00
        E 0 80 65 00
        E 0 8f 51 00
        E 0 8f 69 00
        E 120 93 48 66
        E 0 93 49 66
        E 0 93 4a 64
        E 0 93 4b 64
        E 0 93 4c 64
        E 0 93 4d 67
        E 0 93 60 66
        E 0 93 61 66
        E 0 93 62 64
        E 0 93 63 64
        E 0 93 64 64
        E 0 93 65 67
        E 120 83 48 00
        E 0 83 49 00
        E 0 83 4a 00
        E 0 83 4b 00
        E 0 83 4c 00
        E 0 83 4d 00
        E 0 83 60 00
        E 0 83 61 00
        E 0 83 62 00
        E 0 83 63 00
        E 0 83 64 00
        E 0 83 65 00
        E 120 90 07 64
        E 0 90 10 64
        E 0 90 18 66
        E 0 90 30 66
        E 0 90 31 66
        E 0 90 48 66
        E 0 90 49 66
        E 0 90 4a 64
        E 0 90 4b 64
        E 0 90 4c 64
        E 0 90 4d 67
        E 0 90 60 66
        E 0 90 61 66
        E 0 90 62 64
        E 0 90 63 64
        E 0 90 64 64
        E 0 90 65 67
        E 0 9f 51 64
        E 0 9f 69 64
        E 120 80 07 00
        E 0 80 10 00
        E 0 80 18 00
        E 0 80 30 00
        E 0 80 31 00
        E 0 80 48 00
        E 0 80 49 00
        E 0 80 4a 00
        E 0 80 4b 00
        E 0 80 4c 00
        E 0 80 4d 00
        E 0 80 60 00
        E 0 80 61 00
        E 0 80 62 00
        E 0 80 63 00
        E 0 80 64 00
        E 0 80 65 00
        E 0 8f 51 00
        E 0 8f 69 00
        E 120 90 30 66
        E 0 90 31 66
        E 0 90 48 66
        E 0 90 49 66
        E 0 90 4a 64
        E 0 90 4b 64
        E 0 90 4c 64
        E 0 90 4d 67
        E 0 90 60 66
        E 0 90 61 66
        E 0 90 62 64
        E 0 90 63 64
        E 0 90 64 64
        E 0 90 65 67
        E 0 9d 51 64
        E 0 9d 69 64
        E 120 80 30 00
        E 0 80 31 00
        E 0 80 48 00
        E 0 80 49 00
        E 0 80 4a 00
        E 0 80 4b 00
        E 0 80 4c 00
        E 0 80 4d 00
        E 0 80 60 00
        E 0 80 61 00
        E 0 80 62 00
        E 0 80 63 00
        E 0 80 64 00
        E 0 80 65 00
        E 0 8d 51 00
        E 0 8d 69 00
        E 120 90 30 66
        E 0 90 31 66
        E 0 90 48 66
        E 0 90 49 66
        E 0 90 4a 64
        E 0 90 4b 64
        E 0 90 4c 64
        E 0 90 4d 67
        E 0 90 60 66
        E 0 90 61 66
        E 0 90 62 64
        E 0 90 63 64
        E 0 90 64 64
        E 0 90 65 67
        E 0 9f 51 64
        E 0 9f 69 64
        E 120 80 30 00
        E 0 80 31 00
        E 0 80 48 00
        E 0 80 49 00
        E 0 80 4a 00
        E 0 80 4b 00
        E 0 80 4c 00
        E 0 80 4d 00
        E 0 80 60 00
        E 0 80 61 00
        E 0 80 62 00
        E 0 80 63 00
        E 0 80 64 00
        E 0 80 65 00
        E 0 8f 51 00
        E 0 8f 69 00
        E 120 93 48 64
        E 0 93 49 66
        E 0 93 4a 66
        E 0 93 4b 64
        E 0 93 4c 64
        E 0 93 4d 64
        E 0 93 60 64
        E 0 93 61 66
        E 0 93 62 66
        E 0 93 63 64
        E 0 93 64 64
        E 0 93 65 64
        E 120 83 48 00
        E 0 83 49 00
        E 0 83 4a 00
        E 0 83 4b 00
        E 0 83 4c 00
        E 0 83 4d 00
        E 0 83 60 00
        E 0 83 61 00
        E 0 83 62 00
        E 0 83 63 00
        E 0 83 64 00
        E 0 83 65 00
        <X 120 0
          /wFbcGdfbm9ybSBzb25nX3RyYWluZXJfcGdfMl0=
        >
        E 0 90 04 64
        E 0 90 19 66
        E 0 90 31 66
        E 0 90 32 66
        E 0 90 48 64
        E 0 90 49 66
        E 0 90 4a 66
        E 0 90 4b 64
        E 0 90 4c 64
        E 0 90 4d 64
        E 0 90 60 64
        E 0 90 61 66
        E 0 90 62 66
        E 0 90 63 64
        E 0 90 64 64
        E 0 90 65 64
        E 0 9f 51 64
        E 0 9f 69 64
        E 120 80 04 00
        E 0 80 19 00
        E 0 80 31 00
        E 0 80 32 00
        E 240 80 48 00
        E 0 80 49 00
        E 0 80 4a 00
        E 0 80 4b 00
        E 0 80 4c 00
        E 0 80 4d 00
        E 0 80 60 00
        E 0 80 61 00
        E 0 80 62 00
        E 0 80 63 00
        E 0 80 64 00
        E 0 80 65 00
        E 0 8f 51 00
        E 0 8f 69 00
        E 120 90 19 66
        E 0 90 31 66
        E 0 90 32 66
        E 0 90 48 64
        E 0 90 49 66
        E 0 90 4a 66
        E 0 90 4b 64
        E 0 90 4c 64
        E 0 90 4d 64
        E 0 90 60 64
        E 0 90 61 66
        E 0 90 62 66
        E 0 90 63 64
        E 0 90 64 64
        E 0 90 65 64
        E 0 9f 51 64
        E 0 9f 69 64
        E 120 80 19 00
        E 0 80 31 00
        E 0 80 32 00
        E 0 80 48 00
        E 0 80 49 00
        E 0 80 4a 00
        E 0 80 4b 00
        E 0 80 4c 00
        E 0 80 4d 00
        E 0 80 60 00
        E 0 80 61 00
        E 0 80 62 00
        E 0 80 63 00
        E 0 80 64 00
        E 0 80 65 00
        E 0 8f 51 00
        E 0 8f 69 00
        E 120 90 31 66
        E 0 90 32 66
        E 0 90 48 64
        E 0 90 49 66
        E 0 90 4a 66
        E 0 90 4b 64
        E 0 90 4c 64
        E 0 90 4d 64
        E 0 90 60 64
        E 0 90 61 66
        E 0 90 62 66
        E 0 90 63 64
        E 0 90 64 64
        E 0 90 65 64
        E 0 9d 51 64
        E 0 9d 69 64
        E 120 80 31 00
        E 0 80 32 00
        E 0 80 48 00
        E 0 80 49 00
        E 0 80 4a 00
        E 0 80 4b 00
        E 0 80 4c 00
        E 0 80 4d 00
        E 0 80 60 00
        E 0 80 61 00
        E 0 80 62 00
        E 0 80 63 00
        E 0 80 64 00
        E 0 80 65 00
        E 0 8d 51 00
        E 0 8d 69 00
        E 120 90 19 66
        E 0 90 31 66
        E 0 90 32 66
        E 0 90 48 64
        E 0 90 49 66
        E 0 90 4a 66
        E 0 90 4b 64
        E 0 90 4c 64
        E 0 90 4d 64
        E 0 90 60 64
        E 0 90 61 66
        E 0 90 62 66
        E 0 90 63 64
        E 0 90 64 64
        E 0 90 65 64
        E 0 9f 51 64
        E 0 9f 69 64
        E 120 80 19 00
        E 0 80 31 00
        E 0 80 32 00
        E 0 80 48 00
        E 0 80 49 00
        E 0 80 4a 00
        E 0 80 4b 00
        E 0 80 4c 00
        E 0 80 4d 00
        E 0 80 60 00
        E 0 80 61 00
        E 0 80 62 00
        E 0 80 63 00
        E 0 80 64 00
        E 0 80 65 00
        E 0 8f 51 00
        E 0 8f 69 00
        E 120 90 31 66
        E 0 90 32 66
        E 0 90 48 64
        E 0 90 49 66
        E 0 90 4a 66
        E 0 90 4b 64
        E 0 90 4c 64
        E 0 90 4d 64
        E 0 90 60 64
        E 0 90 61 66
        E 0 90 62 66
        E 0 90 63 64
        E 0 90 64 64
        E 0 90 65 64
        E 0 9d 51 64
        E 0 9d 69 64
        E 120 80 31 00
        E 0 80 32 00
        E 0 80 48 00
        E 0 80 49 00
        E 0 80 4a 00
        E 0 80 4b 00
        E 0 80 4c 00
        E 0 80 4d 00
        E 0 80 60 00
        E 0 80 61 00
        E 0 80 62 00
        E 0 80 63 00
        E 0 80 64 00
        E 0 80 65 00
        E 0 8d 51 00
        E 0 8d 69 00
        E 120 90 31 66
        E 0 90 32 66
        E 0 90 48 64
        E 0 90 49 66
        E 0 90 4a 66
        E 0 90 4b 64
        E 0 90 4c 64
        E 0 90 4d 64
        E 0 90 60 64
        E 0 90 61 66
        E 0 90 62 66
        E 0 90 63 64
        E 0 90 64 64
        E 0 90 65 64
        E 0 9f 51 64
        E 0 9f 69 64
        E 120 80 31 00
        E 0 80 32 00
        E 0 80 48 00
        E 0 80 49 00
        E 0 80 4a 00
        E 0 80 4b 00
        E 0 80 4c 00
        E 0 80 4d 00
        E 0 80 60 00
        E 0 80 61 00
        E 0 80 62 00
        E 0 80 63 00
        E 0 80 64 00
        E 0 80 65 00
        E 0 8f 51 00
        E 0 8f 69 00
        E 120 90 6c 65
        E 0 93 49 67
        E 0 93 4a 66
        E 0 93 4b 64
        E 0 93 4c 65
        E 0 93 4d 64
        E 0 93 61 67
        E 0 93 62 66
        E 0 93 63 64
        E 0 93 64 65
        E 0 93 65 64
        E 120 80 6c 00
        E 0 83 49 00
        E 0 83 4a 00
        E 0 83 4b 00
        E 0 83 4c 00
        E 0 83 4d 00
        E 0 83 61 00
        E 0 83 62 00
        E 0 83 63 00
        E 0 83 64 00
        E 0 83 65 00
        E 120 90 0c 64
        E 0 90 31 67
        E 0 90 32 66
        E 0 90 49 67
        E 0 90 4a 66
        E 0 90 4b 64
        E 0 90 4c 65
        E 0 90 4d 64
        E 0 90 61 67
        E 0 90 62 66
        E 0 90 63 64
        E 0 90 64 65
        E 0 90 65 64
        E 0 9f 51 64
        E 0 9f 69 64
        E 120 80 0c 00
        E 0 80 31 00
        E 0 80 32 00
        E 240 80 49 00
        E 0 80 4a 00
        E 0 80 4b 00
        E 0 80 4c 00
        E 0 80 4d 00
        E 0 80 61 00
        E 0 80 62 00
        E 0 80 63 00
        E 0 80 64 00
        E 0 80 65 00
        E 0 8f 51 00
        E 0 8f 69 00
        E 120 90 31 67
        E 0 90 32 66
        E 0 90 49 67
        E 0 90 4a 66
        E 0 90 4b 64
        E 0 90 4c 65
        E 0 90 4d 64
        E 0 90 61 67
        E 0 90 62 66
        E 0 90 63 64
        E 0 90 64 65
        E 0 90 65 64
        E 0 9f 51 64
        E 0 9f 69 64
        E 120 80 31 00
        E 0 80 32 00
        E 240 80 49 00
        E 0 80 4a 00
        E 0 80 4b 00
        E 0 80 4c 00
        E 0 80 4d 00
        E 0 80 61 00
        E 0 80 62 00
        E 0 80 63 00
        E 0 80 64 00
        E 0 80 65 00
        E 0 8f 51 00
        E 0 8f 69 00
        E 120 90 31 67
        E 0 90 32 66
        E 0 90 49 67
        E 0 90 4a 66
        E 0 90 4b 64
        E 0 90 4c 65
        E 0 90 4d 64
        E 0 90 61 67
        E 0 90 62 66
        E 0 90 63 64
        E 0 90 64 65
        E 0 90 65 64
        E 0 9f 51 64
        E 0 9f 69 64
        E 120 80 31 00
        E 0 80 32 00
        E 240 80 49 00
        E 0 80 4a 00
        E 0 80 4b 00
        E 0 80 4c 00
        E 0 80 4d 00
        E 0 80 61 00
        E 0 80 62 00
        E 0 80 63 00
        E 0 80 64 00
        E 0 80 65 00
        E 0 8f 51 00
        E 0 8f 69 00
        E 120 90 31 67
        E 0 90 32 66
        E 0 90 49 67
        E 0 90 4a 66
        E 0 90 4b 64
        E 0 90 4c 65
        E 0 90 4d 64
        E 0 90 61 67
        E 0 90 62 66
        E 0 90 63 64
        E 0 90 64 65
        E 0 90 65 64
        E 0 9f 51 64
        E 0 9f 69 64
        E 120 80 31 00
        E 0 80 32 00
        E 0 80 49 00
        E 0 80 4a 00
        E 0 80 4b 00
        E 0 80 4c 00
        E 0 80 4d 00
        E 0 80 61 00
        E 0 80 62 00
        E 0 80 63 00
        E 0 80 64 00
        E 0 80 65 00
        E 0 8f 51 00
        E 0 8f 69 00
        E 120 90 6c 66
        E 0 93 4a 64
        E 0 93 4b 66
        E 0 93 4c 67
        E 0 93 4d 66
        E 0 93 62 64
        E 0 93 63 66
        E 0 93 64 67
        E 0 93 65 66
        E 120 80 6c 00
        E 0 83 4a 00
        E 0 83 4b 00
        E 0 83 4c 00
        E 0 83 4d 00
        E 0 83 62 00
        E 0 83 63 00
        E 0 83 64 00
        E 0 83 65 00
        E 120 90 0e 64
        E 0 90 33 66
        E 0 90 34 67
        E 0 90 4a 64
        E 0 90 4b 66
        E 0 90 4c 67
        E 0 90 4d 66
        E 0 90 62 64
        E 0 90 63 66
        E 0 90 64 67
        E 0 90 65 66
        E 0 9f 51 64
        E 0 9f 69 64
        E 120 80 0e 00
        E 0 80 33 00
        E 0 80 34 00
        E 0 80 4a 00
        E 0 80 4b 00
        E 0 80 4c 00
        E 0 80 4d 00
        E 0 80 62 00
        E 0 80 63 00
        E 0 80 64 00
        E 0 80 65 00
        E 0 8f 51 00
        E 0 8f 69 00
        E 120 90 4a 64
        E 0 90 4b 66
        E 0 90 4c 67
        E 0 90 4d 66
        E 0 90 62 64
        E 0 90 63 66
        E 0 90 64 67
        E 0 90 65 66
        E 0 9d 51 64
        E 0 9d 69 64
        E 120 80 4a 00
        E 0 80 4b 00
        E 0 80 4c 00
        E 0 80 4d 00
        E 0 80 62 00
        E 0 80 63 00
        E 0 80 64 00
        E 0 80 65 00
        E 0 8d 51 00
        E 0 8d 69 00
        E 120 90 33 66
        E 0 90 34 67
        E 0 90 4a 64
        E 0 90 4b 66
        E 0 90 4c 67
        E 0 90 4d 66
        E 0 90 62 64
        E 0 90 63 66
        E 0 90 64 67
        E 0 90 65 66
        E 0 9f 51 64
        E 0 9f 69 64
        E 120 80 33 00
        E 0 80 34 00
        E 240 80 4a 00
        E 0 80 4b 00
        E 0 80 4c 00
        E 0 80 4d 00
        E 0 80 62 00
        E 0 80 63 00
        E 0 80 64 00
        E 0 80 65 00
        E 0 8f 51 00
        E 0 8f 69 00
        E 120 90 33 66
        E 0 90 34 67
        E 0 90 4a 64
        E 0 90 4b 66
        E 0 90 4c 67
        E 0 90 4d 66
        E 0 90 62 64
        E 0 90 63 66
        E 0 90 64 67
        E 0 90 65 66
        E 0 9f 51 64
        E 0 9f 69 64
        E 120 80 33 00
        E 0 80 34 00
        E 240 80 4a 00
        E 0 80 4b 00
        E 0 80 4c 00
        E 0 80 4d 00
        E 0 80 62 00
        E 0 80 63 00
        E 0 80 64 00
        E 0 80 65 00
        E 0 8f 51 00
        E 0 8f 69 00
        E 120 90 33 66
        E 0 90 34 67
        E 0 90 4a 64
        E 0 90 4b 66
        E 0 90 4c 67
        E 0 90 4d 66
        E 0 90 62 64
        E 0 90 63 66
        E 0 90 64 67
        E 0 90 65 66
        E 0 9f 51 64
        E 0 9f 69 64
        E 120 80 33 00
        E 0 80 34 00
        E 0 80 4a 00
        E 0 80 4b 00
        E 0 80 4c 00
        E 0 80 4d 00
        E 0 80 62 00
        E 0 80 63 00
        E 0 80 64 00
        E 0 80 65 00
        E 0 8f 51 00
        E 0 8f 69 00
        E 120 90 6c 66
        E 0 93 48 67
        E 0 93 49 66
        E 0 93 4a 64
        E 0 93 4b 64
        E 0 93 4c 64
        E 0 93 4d 67
        E 0 93 60 67
        E 0 93 61 66
        E 0 93 62 64
        E 0 93 63 64
        E 0 93 64 64
        E 0 93 65 67
        E 120 80 6c 00
        E 0 83 48 00
        E 0 83 49 00
        E 0 83 4a 00
        E 0 83 4b 00
        E 0 83 4c 00
        E 0 83 4d 00
        E 0 83 60 00
        E 0 83 61 00
        E 0 83 62 00
        E 0 83 63 00
        E 0 83 64 00
        E 0 83 65 00
        <X 120 0
          /wFbZW5kX3BnIHNvbmdfdHJhaW5lcl9wZ18yXQ==
        >
        E 0 90 07 64
        E 0 90 18 67
        E 0 90 30 67
        E 0 90 31 66
        E 0 90 48 67
        E 0 90 49 66
        E 0 90 4a 64
        E 0 90 4b 64
        E 0 90 4c 64
        E 0 90 4d 67
        E 0 90 60 67
        E 0 90 61 66
        E 0 90 62 64
        E 0 90 63 64
        E 0 90 64 64
        E 0 90 65 67
        E 0 9f 51 64
        E 0 9f 69 64
        E 120 80 07 00
        E 0 80 18 00
        E 0 80 30 00
        E 0 80 31 00
        E 240 80 48 00
        E 0 80 49 00
        E 0 80 4a 00
        E 0 80 4b 00
        E 0 80 4c 00
        E 0 80 4d 00
        E 0 80 60 00
        E 0 80 61 00
        E 0 80 62 00
        E 0 80 63 00
        E 0 80 64 00
        E 0 80 65 00
        E 0 8f 51 00
        E 0 8f 69 00
        E 120 90 30 67
        E 0 90 31 66
        E 0 90 48 67
        E 0 90 49 66
        E 0 90 4a 64
        E 0 90 4b 64
        E 0 90 4c 64
        E 0 90 4d 67
        E 0 90 60 67
        E 0 90 61 66
        E 0 90 62 64
        E 0 90 63 64
        E 0 90 64 64
        E 0 90 65 67
        E 0 9f 51 64
        E 0 9f 69 64
        E 120 80 30 00
        E 0 80 31 00
        E 0 80 48 00
        E 0 80 49 00
        E 0 80 4a 00
        E 0 80 4b 00
        E 0 80 4c 00
        E 0 80 4d 00
        E 0 80 60 00
        E 0 80 61 00
        E 0 80 62 00
        E 0 80 63 00
        E 0 80 64 00
        E 0 80 65 00
        E 0 8f 51 00
        E 0 8f 69 00
        E 120 93 48 66
        E 0 93 49 66
        E 0 93 4a 64
        E 0 93 4b 64
        E 0 93 4c 64
        E 0 93 4d 67
        E 0 93 60 66
        E 0 93 61 66
        E 0 93 62 64
        E 0 93 63 64
        E 0 93 64 64
        E 0 93 65 67
        E 120 83 48 00
        E 0 83 49 00
        E 0 83 4a 00
        E 0 83 4b 00
        E 0 83 4c 00
        E 0 83 4d 00
        E 0 83 60 00
        E 0 83 61 00
        E 0 83 62 00
        E 0 83 63 00
        E 0 83 64 00
        E 0 83 65 00
        E 120 90 07 64
        E 0 90 10 64
        E 0 90 18 66
        E 0 90 30 66
        E 0 90 31 66
        E 0 90 48 66
        E 0 90 49 66
        E 0 90 4a 64
        E 0 90 4b 64
        E 0 90 4c 64
        E 0 90 4d 67
        E 0 90 60 66
        E 0 90 61 66
        E 0 90 62 64
        E 0 90 63 64
        E 0 90 64 64
        E 0 90 65 67
        E 0 9f 51 64
        E 0 9f 69 64
        E 120 80 07 00
        E 0 80 10 00
        E 0 80 18 00
        E 0 80 30 00
        E 0 80 31 00
        E 0 80 48 00
        E 0 80 49 00
        E 0 80 4a 00
        E 0 80 4b 00
        E 0 80 4c 00
        E 0 80 4d 00
        E 0 80 60 00
        E 0 80 61 00
        E 0 80 62 00
        E 0 80 63 00
        E 0 80 64 00
        E 0 80 65 00
        E 0 8f 51 00
        E 0 8f 69 00
        E 120 90 30 66
        E 0 90 31 66
        E 0 90 48 66
        E 0 90 49 66
        E 0 90 4a 64
        E 0 90 4b 64
        E 0 90 4c 64
        E 0 90 4d 67
        E 0 90 60 66
        E 0 90 61 66
        E 0 90 62 64
        E 0 90 63 64
        E 0 90 64 64
        E 0 90 65 67
        E 0 9d 51 64
        E 0 9d 69 64
        E 120 80 30 00
        E 0 80 31 00
        E 0 80 48 00
        E 0 80 49 00
        E 0 80 4a 00
        E 0 80 4b 00
        E 0 80 4c 00
        E 0 80 4d 00
        E 0 80 60 00
        E 0 80 61 00
        E 0 80 62 00
        E 0 80 63 00
        E 0 80 64 00
        E 0 80 65 00
        E 0 8d 51 00
        E 0 8d 69 00
        E 120 90 30 66
        E 0 90 31 66
        E 0 90 48 66
        E 0 90 49 66
        E 0 90 4a 64
        E 0 90 4b 64
        E 0 90 4c 64
        E 0 90 4d 67
        E 0 90 60 66
        E 0 90 61 66
        E 0 90 62 64
        E 0 90 63 64
        E 0 90 64 64
        E 0 90 65 67
        E 0 9f 51 64
        E 0 9f 69 64
        E 120 80 30 00
        E 0 80 31 00
        E 0 80 48 00
        E 0 80 49 00
        E 0 80 4a 00
        E 0 80 4b 00
        E 0 80 4c 00
        E 0 80 4d 00
        E 0 80 60 00
        E 0 80 61 00
        E 0 80 62 00
        E 0 80 63 00
        E 0 80 64 00
        E 0 80 65 00
        E 0 8f 51 00
        E 0 8f 69 00
        E 120 93 48 64
        E 0 93 49 66
        E 0 93 4a 66
        E 0 93 4b 64
        E 0 93 4c 64
        E 0 93 4d 64
        E 0 93 60 64
        E 0 93 61 66
        E 0 93 62 66
        E 0 93 63 64
        E 0 93 64 64
        E 0 93 65 64
        E 120 83 48 00
        E 0 83 49 00
        E 0 83 4a 00
        E 0 83 4b 00
        E 0 83 4c 00
        E 0 83 4d 00
        E 0 83 60 00
        E 0 83 61 00
        E 0 83 62 00
        E 0 83 63 00
        E 0 83 64 00
        E 0 83 65 00
        E 120 90 04 64
        E 0 90 19 66
        E 0 90 31 66
        E 0 90 32 66
        E 0 90 48 64
        E 0 90 49 66
        E 0 90 4a 66
        E 0 90 4b 64
        E 0 90 4c 64
        E 0 90 4d 64
        E 0 90 60 64
        E 0 90 61 66
        E 0 90 62 66
        E 0 90 63 64
        E 0 90 64 64
        E 0 90 65 64
        E 0 9f 51 64
        E 0 9f 69 64
        E 120 80 04 00
        E 0 80 19 00
        E 0 80 31 00
        E 0 80 32 00
        E 240 80 48 00
        E 0 80 49 00
        E 0 80 4a 00
        E 0 80 4b 00
        E 0 80 4c 00
        E 0 80 4d 00
        E 0 80 60 00
        E 0 80 61 00
        E 0 80 62 00
        E 0 80 63 00
        E 0 80 64 00
        E 0 80 65 00
        E 0 8f 51 00
        E 0 8f 69 00
        E 120 90 19 66
        E 0 90 31 66
        E 0 90 32 66
        E 0 90 48 64
        E 0 90 49 66
        E 0 90 4a 66
        E 0 90 4b 64
        E 0 90 4c 64
        E 0 90 4d 64
        E 0 90 60 64
        E 0 90 61 66
        E 0 90 62 66
        E 0 90 63 64
        E 0 90 64 64
        E 0 90 65 64
        E 0 9f 51 64
        E 0 9f 69 64
        E 120 80 19 00
        E 0 80 31 00
        E 0 80 32 00
        E 0 80 48 00
        E 0 80 49 00
        E 0 80 4a 00
        E 0 80 4b 00
        E 0 80 4c 00
        E 0 80 4d 00
        E 0 80 60 00
        E 0 80 61 00
        E 0 80 62 00
        E 0 80 63 00
        E 0 80 64 00
        E 0 80 65 00
        E 0 8f 51 00
        E 0 8f 69 00
        E 120 90 31 66
        E 0 90 32 66
        E 0 90 48 64
        E 0 90 49 66
        E 0 90 4a 66
        E 0 90 4b 64
        E 0 90 4c 64
        E 0 90 4d 64
        E 0 90 60 64
        E 0 90 61 66
        E 0 90 62 66
        E 0 90 63 64
        E 0 90 64 64
        E 0 90 65 64
        E 0 9d 51 64
        E 0 9d 69 64
        E 120 80 31 00
        E 0 80 32 00
        E 0 80 48 00
        E 0 80 49 00
        E 0 80 4a 00
        E 0 80 4b 00
        E 0 80 4c 00
        E 0 80 4d 00
        E 0 80 60 00
        E 0 80 61 00
        E 0 80 62 00
        E 0 80 63 00
        E 0 80 64 00
        E 0 80 65 00
        E 0 8d 51 00
        E 0 8d 69 00
        E 120 90 19 66
        E 0 90 31 66
        E 0 90 32 66
        E 0 90 48 64
        E 0 90 49 66
        E 0 90 4a 66
        E 0 90 4b 64
        E 0 90 4c 64
        E 0 90 4d 64
        E 0 90 60 64
        E 0 90 61 66
        E 0 90 62 66
        E 0 90 63 64
        E 0 90 64 64
        E 0 90 65 64
        E 0 9f 51 64
        E 0 9f 69 64
        E 120 80 19 00
        E 0 80 31 00
        E 0 80 32 00
        E 0 80 48 00
        E 0 80 49 00
        E 0 80 4a 00
        E 0 80 4b 00
        E 0 80 4c 00
        E 0 80 4d 00
        E 0 80 60 00
        E 0 80 61 00
        E 0 80 62 00
        E 0 80 63 00
        E 0 80 64 00
        E 0 80 65 00
        E 0 8f 51 00
        E 0 8f 69 00
        E 120 90 31 66
        E 0 90 32 66
        E 0 90 48 64
        E 0 90 49 66
        E 0 90 4a 66
        E 0 90 4b 64
        E 0 90 4c 64
        E 0 90 4d 64
        E 0 90 60 64
        E 0 90 61 66
        E 0 90 62 66
        E 0 90 63 64
        E 0 90 64 64
        E 0 90 65 64
        E 0 9d 51 64
        E 0 9d 69 64
        E 120 80 31 00
        E 0 80 32 00
        E 0 80 48 00
        E 0 80 49 00
        E 0 80 4a 00
        E 0 80 4b 00
        E 0 80 4c 00
        E 0 80 4d 00
        E 0 80 60 00
        E 0 80 61 00
        E 0 80 62 00
        E 0 80 63 00
        E 0 80 64 00
        E 0 80 65 00
        E 0 8d 51 00
        E 0 8d 69 00
        E 120 90 31 66
        E 0 90 32 66
        E 0 90 48 64
        E 0 90 49 66
        E 0 90 4a 66
        E 0 90 4b 64
        E 0 90 4c 64
        E 0 90 4d 64
        E 0 90 60 64
        E 0 90 61 66
        E 0 90 62 66
        E 0 90 63 64
        E 0 90 64 64
        E 0 90 65 64
        E 0 9f 51 64
        E 0 9f 69 64
        E 120 80 31 00
        E 0 80 32 00
        E 0 80 48 00
        E 0 80 49 00
        E 0 80 4a 00
        E 0 80 4b 00
        E 0 80 4c 00
        E 0 80 4d 00
        E 0 80 60 00
        E 0 80 61 00
        E 0 80 62 00
        E 0 80 63 00
        E 0 80 64 00
        E 0 80 65 00
        E 0 8f 51 00
        E 0 8f 69 00
        E 120 90 6c 65
        E 0 93 49 67
        E 0 93 4a 66
        E 0 93 4b 64
        E 0 93 4c 65
        E 0 93 4d 64
        E 0 93 61 67
        E 0 93 62 66
        E 0 93 63 64
        E 0 93 64 65
        E 0 93 65 64
        E 120 80 6c 00
        E 0 83 49 00
        E 0 83 4a 00
        E 0 83 4b 00
        E 0 83 4c 00
        E 0 83 4d 00
        E 0 83 61 00
        E 0 83 62 00
        E 0 83 63 00
        E 0 83 64 00
        E 0 83 65 00
        E 120 90 0c 64
        E 0 90 19 67
        E 0 90 31 67
        E 0 90 32 66
        E 0 90 49 67
        E 0 90 4a 66
        E 0 90 4b 64
        E 0 90 4c 65
        E 0 90 4d 64
        E 0 90 61 67
        E 0 90 62 66
        E 0 90 63 64
        E 0 90 64 65
        E 0 90 65 64
        E 0 90 74 60
        E 0 9f 51 64
        E 0 9f 69 64
        E 120 80 0c 00
        E 0 80 19 00
        E 0 80 31 00
        E 0 80 32 00
        E 240 80 49 00
        E 0 80 4a 00
        E 0 80 4b 00
        E 0 80 4c 00
        E 0 80 4d 00
        E 0 80 61 00
        E 0 80 62 00
        E 0 80 63 00
        E 0 80 64 00
        E 0 80 65 00
        E 0 8f 51 00
        E 0 8f 69 00
        E 120 90 31 67
        E 0 90 32 66
        E 0 90 49 67
        E 0 90 4a 66
        E 0 90 4b 64
        E 0 90 4c 65
        E 0 90 4d 64
        E 0 90 61 67
        E 0 90 62 66
        E 0 90 63 64
        E 0 90 64 65
        E 0 90 65 64
        E 0 9f 51 64
        E 0 9f 69 64
        E 120 80 31 00
        E 0 80 32 00
        E 0 80 49 00
        E 0 80 4a 00
        E 0 80 4b 00
        E 0 80 4c 00
        E 0 80 4d 00
        E 0 80 61 00
        E 0 80 62 00
        E 0 80 63 00
        E 0 80 64 00
        E 0 80 65 00
        E 0 8f 51 00
        E 0 8f 69 00
        E 120 93 49 67
        E 0 93 4a 66
        E 0 93 4b 64
        E 0 93 4c 65
        E 0 93 4d 64
        E 0 93 61 67
        E 0 93 62 66
        E 0 93 63 64
        E 0 93 64 65
        E 0 93 65 64
        E 120 83 49 00
        E 0 83 4a 00
        E 0 83 4b 00
        E 0 83 4c 00
        E 0 83 4d 00
        E 0 83 61 00
        E 0 83 62 00
        E 0 83 63 00
        E 0 83 64 00
        E 0 83 65 00
        E 120 90 0c 64
        E 0 90 10 64
        E 0 90 19 66
        E 0 90 31 66
        E 0 90 32 66
        E 0 90 49 66
        E 0 90 4a 66
        E 0 90 4b 64
        E 0 90 4c 65
        E 0 90 4d 64
        E 0 90 61 66
        E 0 90 62 66
        E 0 90 63 64
        E 0 90 64 65
        E 0 90 65 64
        E 0 9f 51 64
        E 0 9f 69 64
        E 120 80 0c 00
        E 0 80 10 00
        E 0 80 19 00
        E 0 80 31 00
        E 0 80 32 00
        E 0 80 61 00
        E 0 80 62 00
        E 0 80 63 00
        E 0 80 64 00
        E 0 80 65 00
        E 0 8f 51 00
        E 0 8f 69 00
        E 120 90 61 66
        E 0 90 62 66
        E 0 90 63 64
        E 0 90 64 65
        E 0 90 65 64
        E 0 9d 51 64
        E 0 9d 69 64
        E 120 80 49 00
        E 0 80 4a 00
        E 0 80 4b 00
        E 0 80 4c 00
        E 0 80 4d 00
        E 0 80 61 00
        E 0 80 62 00
        E 0 80 63 00
        E 0 80 64 00
        E 0 80 65 00
        E 0 8d 51 00
        E 0 8d 69 00
        E 120 90 31 66
        E 0 90 32 66
        E 0 90 49 66
        E 0 90 4a 66
        E 0 90 4b 64
        E 0 90 4c 65
        E 0 90 4d 64
        E 0 90 61 66
        E 0 90 62 66
        E 0 90 63 64
        E 0 90 64 65
        E 0 90 65 64
        E 0 9f 51 64
        E 0 9f 69 64
        E 120 80 31 00
        E 0 80 32 00
        E 0 80 49 00
        E 0 80 4a 00
        E 0 80 4b 00
        E 0 80 4c 00
        E 0 80 4d 00
        E 0 80 61 00
        E 0 80 62 00
        E 0 80 63 00
        E 0 80 64 00
        E 0 80 65 00
        E 0 8f 51 00
        E 0 8f 69 00
        E 120 93 49 66
        E 0 93 4a 66
        E 0 93 4b 64
        E 0 93 4c 65
        E 0 93 4d 64
        E 0 93 61 66
        E 0 93 62 66
        E 0 93 63 64
        E 0 93 64 65
        E 0 93 65 64
        E 120 83 49 00
        E 0 83 4a 00
        E 0 83 4b 00
        E 0 83 4c 00
        E 0 83 4d 00
        E 0 83 61 00
        E 0 83 62 00
        E 0 83 63 00
        E 0 83 64 00
        E 0 83 65 00
        E 120 80 74 00
        E 0 90 09 64
        E 0 90 1a 66
        E 0 90 32 66
        E 0 90 33 66
        E 0 90 49 64
        E 0 90 4a 66
        E 0 90 4b 66
        E 0 90 4c 65
        E 0 90 4d 64
        E 0 90 61 64
        E 0 90 62 66
        E 0 90 63 66
        E 0 90 64 65
        E 0 90 65 64
        E 0 9f 51 64
        E 0 9f 69 64
        E 120 80 09 00
        E 0 80 1a 00
        E 0 80 32 00
        E 0 80 33 00
        E 240 80 49 00
        E 0 80 4a 00
        E 0 80 4b 00
        E 0 80 4c 00
        E 0 80 4d 00
        E 0 80 61 00
        E 0 80 62 00
        E 0 80 63 00
        E 0 80 64 00
        E 0 80 65 00
        E 0 8f 51 00
        E 0 8f 69 00
        E 120 90 1a 66
        E 0 90 32 66
        E 0 90 33 66
        E 0 90 49 64
        E 0 90 4a 66
        E 0 90 4b 66
        E 0 90 4c 65
        E 0 90 4d 64
        E 0 90 61 64
        E 0 90 62 66
        E 0 90 63 66
        E 0 90 64 65
        E 0 90 65 64
        E 0 9f 51 64
        E 0 9f 69 64
        E 120 80 1a 00
        E 0 80 32 00
        E 0 80 33 00
        E 0 80 49 00
        E 0 80 4a 00
        E 0 80 4b 00
        E 0 80 4c 00
        E 0 80 4d 00
        E 0 80 61 00
        E 0 80 62 00
        E 0 80 63 00
        E 0 80 64 00
        E 0 80 65 00
        E 0 8f 51 00
        E 0 8f 69 00
        E 120 90 49 64
        E 0 90 4a 66
        E 0 90 4b 66
        E 0 90 4c 65
        E 0 90 4d 64
        E 0 90 61 64
        E 0 90 62 66
        E 0 90 63 66
        E 0 90 64 65
        E 0 90 65 64
        E 0 9d 51 64
        E 0 9d 69 64
        E 120 80 49 00
        E 0 80 4a 00
        E 0 80 4b 00
        E 0 80 4c 00
        E 0 80 4d 00
        E 0 80 61 00
        E 0 80 62 00
        E 0 80 63 00
        E 0 80 64 00
        E 0 80 65 00
        E 0 8d 51 00
        E 0 8d 69 00
        E 120 90 1a 66
        E 0 90 32 66
        E 0 90 33 66
        E 0 90 49 64
        E 0 90 4a 66
        E 0 90 4b 66
        E 0 90 4c 65
        E 0 90 4d 64
        E 0 90 61 64
        E 0 90 62 66
        E 0 90 63 66
        E 0 90 64 65
        E 0 90 65 64
        E 0 9f 51 64
        E 0 9f 69 64
        E 120 80 1a 00
        E 0 80 32 00
        E 0 80 33 00
        E 0 80 49 00
        E 0 80 4a 00
        E 0 80 4b 00
        E 0 80 4c 00
        E 0 80 4d 00
        E 0 80 61 00
        E 0 80 62 00
        E 0 80 63 00
        E 0 80 64 00
        E 0 80 65 00
        E 0 8f 51 00
        E 0 8f 69 00
        E 120 90 49 64
        E 0 90 4a 66
        E 0 90 4b 66
        E 0 90 4c 64
        E 0 90 4d 64
        E 0 90 61 64
        E 0 90 62 66
        E 0 90 63 66
        E 0 90 64 64
        E 0 90 65 64
        E 0 9d 51 64
        E 0 9d 69 64
        E 120 80 49 00
        E 0 80 4a 00
        E 0 80 4b 00
        E 0 80 4c 00
        E 0 80 4d 00
        E 0 80 61 00
        E 0 80 62 00
        E 0 80 63 00
        E 0 80 64 00
        E 0 80 65 00
        E 0 8d 51 00
        E 0 8d 69 00
        E 120 90 1a 66
        E 0 90 32 66
        E 0 90 33 66
        E 0 90 49 64
        E 0 90 4a 66
        E 0 90 4b 66
        E 0 90 4c 64
        E 0 90 4d 64
        E 0 90 61 64
        E 0 90 62 66
        E 0 90 63 66
        E 0 90 64 64
        E 0 90 65 64
        E 0 9f 51 64
        E 0 9f 69 64
        E 120 80 1a 00
        E 0 80 32 00
        E 0 80 33 00
        E 0 80 49 00
        E 0 80 4a 00
        E 0 80 4b 00
        E 0 80 4c 00
        E 0 80 4d 00
        E 0 80 61 00
        E 0 80 62 00
        E 0 80 63 00
        E 0 80 64 00
        E 0 80 65 00
        E 0 8f 51 00
        E 0 8f 69 00
        E 120 90 6c 66
        E 0 93 48 67
        E 0 93 49 66
        E 0 93 4a 64
        E 0 93 4b 64
        E 0 93 4c 64
        E 0 93 4d 67
        E 0 93 60 67
        E 0 93 61 66
        E 0 93 62 64
        E 0 93 63 64
        E 0 93 64 64
        E 0 93 65 67
        E 120 80 6c 00
        E 0 83 48 00
        E 0 83 49 00
        E 0 83 4a 00
        E 0 83 4b 00
        E 0 83 4c 00
        E 0 83 4d 00
        E 0 83 60 00
        E 0 83 61 00
        E 0 83 62 00
        E 0 83 63 00
        E 0 83 64 00
        E 0 83 65 00
        E 120 90 07 64
        E 0 90 18 67
        E 0 90 30 67
        E 0 90 31 66
        E 0 90 48 67
        E 0 90 49 66
        E 0 90 4a 64
        E 0 90 4b 64
        E 0 90 4c 64
        E 0 90 4d 67
        E 0 90 60 67
        E 0 90 61 66
        E 0 90 62 64
        E 0 90 63 64
        E 0 90 64 64
        E 0 90 65 67
        E 0 9f 51 64
        E 0 9f 69 64
        E 120 80 07 00
        E 0 80 18 00
        E 0 80 30 00
        E 0 80 31 00
        E 240 80 48 00
        E 0 80 49 00
        E 0 80 4a 00
        E 0 80 4b 00
        E 0 80 4c 00
        E 0 80 4d 00
        E 0 80 60 00
        E 0 80 61 00
        E 0 80 62 00
        E 0 80 63 00
        E 0 80 64 00
        E 0 80 65 00
        E 0 8f 51 00
        E 0 8f 69 00
        E 120 90 30 67
        E 0 90 31 66
        E 0 90 48 67
        E 0 90 49 66
        E 0 90 4a 64
        E 0 90 4b 64
        E 0 90 4c 64
        E 0 90 4d 67
        E 0 90 60 67
        E 0 90 61 66
        E 0 90 62 64
        E 0 90 63 64
        E 0 90 64 64
        E 0 90 65 67
        E 0 9f 51 64
        E 0 9f 69 64
        E 120 80 30 00
        E 0 80 31 00
        E 0 80 48 00
        E 0 80 49 00
        E 0 80 4a 00
        E 0 80 4b 00
        E 0 80 4c 00
        E 0 80 4d 00
        E 0 80 60 00
        E 0 80 61 00
        E 0 80 62 00
        E 0 80 63 00
        E 0 80 64 00
        E 0 80 65 00
        E 0 8f 51 00
        E 0 8f 69 00
        E 120 93 48 66
        E 0 93 49 66
        E 0 93 4a 64
        E 0 93 4b 64
        E 0 93 4c 64
        E 0 93 4d 67
        E 0 93 60 66
        E 0 93 61 66
        E 0 93 62 64
        E 0 93 63 64
        E 0 93 64 64
        E 0 93 65 67
        E 120 83 48 00
        E 0 83 49 00
        E 0 83 4a 00
        E 0 83 4b 00
        E 0 83 4c 00
        E 0 83 4d 00
        E 0 83 60 00
        E 0 83 61 00
        E 0 83 62 00
        E 0 83 63 00
        E 0 83 64 00
        E 0 83 65 00
        E 120 90 07 64
        E 0 90 10 64
        E 0 90 18 66
        E 0 90 30 66
        E 0 90 31 66
        E 0 90 48 66
        E 0 90 49 66
        E 0 90 4a 64
        E 0 90 4b 64
        E 0 90 4c 64
        E 0 90 4d 67
        E 0 90 60 66
        E 0 90 61 66
        E 0 90 62 64
        E 0 90 63 64
        E 0 90 64 64
        E 0 90 65 67
        E 0 9f 51 64
        E 0 9f 69 64
        E 120 80 07 00
        E 0 80 10 00
        E 0 80 18 00
        E 0 80 30 00
        E 0 80 31 00
        E 0 80 48 00
        E 0 80 49 00
        E 0 80 4a 00
        E 0 80 4b 00
        E 0 80 4c 00
        E 0 80 4d 00
        E 0 80 60 00
        E 0 80 61 00
        E 0 80 62 00
        E 0 80 63 00
        E 0 80 64 00
        E 0 80 65 00
        E 0 8f 51 00
        E 0 8f 69 00
        E 120 90 30 66
        E 0 90 31 66
        E 0 90 48 66
        E 0 90 49 66
        E 0 90 4a 64
        E 0 90 4b 64
        E 0 90 4c 64
        E 0 90 4d 67
        E 0 90 60 66
        E 0 90 61 66
        E 0 90 62 64
        E 0 90 63 64
        E 0 90 64 64
        E 0 90 65 67
        E 0 9d 51 64
        E 0 9d 69 64
        E 120 80 30 00
        E 0 80 31 00
        E 0 80 48 00
        E 0 80 49 00
        E 0 80 4a 00
        E 0 80 4b 00
        E 0 80 4c 00
        E 0 80 4d 00
        E 0 80 60 00
        E 0 80 61 00
        E 0 80 62 00
        E 0 80 63 00
        E 0 80 64 00
        E 0 80 65 00
        E 0 8d 51 00
        E 0 8d 69 00
        E 120 90 30 66
        E 0 90 31 66
        E 0 90 48 66
        E 0 90 49 66
        E 0 90 4a 64
        E 0 90 4b 64
        E 0 90 4c 64
        E 0 90 4d 67
        E 0 90 60 66
        E 0 90 61 66
        E 0 90 62 64
        E 0 90 63 64
        E 0 90 64 64
        E 0 90 65 67
        E 0 9f 51 64
        E 0 9f 69 64
        E 120 80 30 00
        E 0 80 31 00
        E 0 80 48 00
        E 0 80 49 00
        E 0 80 4a 00
        E 0 80 4b 00
        E 0 80 4c 00
        E 0 80 4d 00
        E 0 80 60 00
        E 0 80 61 00
        E 0 80 62 00
        E 0 80 63 00
        E 0 80 64 00
        E 0 80 65 00
        E 0 8f 51 00
        E 0 8f 69 00
        E 120 93 48 64
        E 0 93 49 66
        E 0 93 4a 66
        E 0 93 4b 64
        E 0 93 4c 64
        E 0 93 4d 64
        E 0 93 60 64
        E 0 93 61 66
        E 0 93 62 66
        E 0 93 63 64
        E 0 93 64 64
        E 0 93 65 64
        E 120 83 48 00
        E 0 83 49 00
        E 0 83 4a 00
        E 0 83 4b 00
        E 0 83 4c 00
        E 0 83 4d 00
        E 0 83 60 00
        E 0 83 61 00
        E 0 83 62 00
        E 0 83 63 00
        E 0 83 64 00
        E 0 83 65 00
        E 120 90 04 64
        E 0 90 19 66
        E 0 90 31 66
        E 0 90 32 66
        E 0 90 48 64
        E 0 90 49 66
        E 0 90 4a 66
        E 0 90 4b 64
        E 0 90 4c 64
        E 0 90 4d 64
        E 0 90 60 64
        E 0 90 61 66
        E 0 90 62 66
        E 0 90 63 64
        E 0 90 64 64
        E 0 90 65 64
        E 0 9f 51 64
        E 0 9f 69 64
        E 120 80 04 00
        E 0 80 19 00
        E 0 80 31 00
        E 0 80 32 00
        E 240 80 48 00
        E 0 80 49 00
        E 0 80 4a 00
        E 0 80 4b 00
        E 0 80 4c 00
        E 0 80 4d 00
        E 0 80 60 00
        E 0 80 61 00
        E 0 80 62 00
        E 0 80 63 00
        E 0 80 64 00
        E 0 80 65 00
        E 0 8f 51 00
        E 0 8f 69 00
        E 120 90 19 66
        E 0 90 31 66
        E 0 90 32 66
        E 0 90 48 64
        E 0 90 49 66
        E 0 90 4a 66
        E 0 90 4b 64
        E 0 90 4c 64
        E 0 90 4d 64
        E 0 90 60 64
        E 0 90 61 66
        E 0 90 62 66
        E 0 90 63 64
        E 0 90 64 64
        E 0 90 65 64
        E 0 9f 51 64
        E 0 9f 69 64
        E 120 80 19 00
        E 0 80 31 00
        E 0 80 32 00
        E 0 80 48 00
        E 0 80 49 00
        E 0 80 4a 00
        E 0 80 4b 00
        E 0 80 4c 00
        E 0 80 4d 00
        E 0 80 60 00
        E 0 80 61 00
        E 0 80 62 00
        E 0 80 63 00
        E 0 80 64 00
        E 0 80 65 00
        E 0 8f 51 00
        E 0 8f 69 00
        E 120 90 31 66
        E 0 90 32 66
        E 0 90 48 64
        E 0 90 49 66
        E 0 90 4a 66
        E 0 90 4b 64
        E 0 90 4c 64
        E 0 90 4d 64
        E 0 90 60 64
        E 0 90 61 66
        E 0 90 62 66
        E 0 90 63 64
        E 0 90 64 64
        E 0 90 65 64
        E 0 9d 51 64
        E 0 9d 69 64
        E 120 80 31 00
        E 0 80 32 00
        E 0 80 48 00
        E 0 80 49 00
        E 0 80 4a 00
        E 0 80 4b 00
        E 0 80 4c 00
        E 0 80 4d 00
        E 0 80 60 00
        E 0 80 61 00
        E 0 80 62 00
        E 0 80 63 00
        E 0 80 64 00
        E 0 80 65 00
        E 0 8d 51 00
        E 0 8d 69 00
        E 120 90 19 66
        E 0 90 31 66
        E 0 90 32 66
        E 0 90 48 64
        E 0 90 49 66
        E 0 90 4a 66
        E 0 90 4b 64
        E 0 90 4c 64
        E 0 90 4d 64
        E 0 90 60 64
        E 0 90 61 66
        E 0 90 62 66
        E 0 90 63 64
        E 0 90 64 64
        E 0 90 65 64
        E 0 9f 51 64
        E 0 9f 69 64
        E 120 80 19 00
        E 0 80 31 00
        E 0 80 32 00
        E 0 80 48 00
        E 0 80 49 00
        E 0 80 4a 00
        E 0 80 4b 00
        E 0 80 4c 00
        E 0 80 4d 00
        E 0 80 60 00
        E 0 80 61 00
        E 0 80 62 00
        E 0 80 63 00
        E 0 80 64 00
        E 0 80 65 00
        E 0 8f 51 00
        E 0 8f 69 00
        E 120 90 31 66
        E 0 90 32 66
        E 0 90 48 64
        E 0 90 49 66
        E 0 90 4a 66
        E 0 90 4b 64
        E 0 90 4c 64
        E 0 90 4d 64
        E 0 90 60 64
        E 0 90 61 66
        E 0 90 62 66
        E 0 90 63 64
        E 0 90 64 64
        E 0 90 65 64
        E 0 9d 51 64
        E 0 9d 69 64
        E 120 80 31 00
        E 0 80 32 00
        E 0 80 48 00
        E 0 80 49 00
        E 0 80 4a 00
        E 0 80 4b 00
        E 0 80 4c 00
        E 0 80 4d 00
        E 0 80 60 00
        E 0 80 61 00
        E 0 80 62 00
        E 0 80 63 00
        E 0 80 64 00
        E 0 80 65 00
        E 0 8d 51 00
        E 0 8d 69 00
        E 120 90 31 66
        E 0 90 32 66
        E 0 90 48 64
        E 0 90 49 66
        E 0 90 4a 66
        E 0 90 4b 64
        E 0 90 4c 64
        E 0 90 4d 64
        E 0 90 60 64
        E 0 90 61 66
        E 0 90 62 66
        E 0 90 63 64
        E 0 90 64 64
        E 0 90 65 64
        E 0 9f 51 64
        E 0 9f 69 64
        E 120 80 31 00
        E 0 80 32 00
        E 0 80 48 00
        E 0 80 49 00
        E 0 80 4a 00
        E 0 80 4b 00
        E 0 80 4c 00
        E 0 80 4d 00
        E 0 80 60 00
        E 0 80 61 00
        E 0 80 62 00
        E 0 80 63 00
        E 0 80 64 00
        E 0 80 65 00
        E 0 8f 51 00
        E 0 8f 69 00
        E 120 90 6c 65
        E 0 93 49 67
        E 0 93 4a 66
        E 0 93 4b 64
        E 0 93 4c 65
        E 0 93 4d 64
        E 0 93 61 67
        E 0 93 62 66
        E 0 93 63 64
        E 0 93 64 65
        E 0 93 65 64
        E 120 80 6c 00
        E 0 83 49 00
        E 0 83 4a 00
        E 0 83 4b 00
        E 0 83 4c 00
        E 0 83 4d 00
        E 0 83 61 00
        E 0 83 62 00
        E 0 83 63 00
        E 0 83 64 00
        E 0 83 65 00
        E 120 90 0c 64
        E 0 90 31 67
        E 0 90 32 66
        E 0 90 49 67
        E 0 90 4a 66
        E 0 90 4b 64
        E 0 90 4c 65
        E 0 90 4d 64
        E 0 90 61 67
        E 0 90 62 66
        E 0 90 63 64
        E 0 90 64 65
        E 0 90 65 64
        E 0 9f 51 64
        E 0 9f 69 64
        E 120 80 0c 00
        E 0 80 31 00
        E 0 80 32 00
        E 240 80 49 00
        E 0 80 4a 00
        E 0 80 4b 00
        E 0 80 4c 00
        E 0 80 4d 00
        E 0 80 61 00
        E 0 80 62 00
        E 0 80 63 00
        E 0 80 64 00
        E 0 80 65 00
        E 0 8f 51 00
        E 0 8f 69 00
        E 120 90 31 67
        E 0 90 32 66
        E 0 90 49 67
        E 0 90 4a 66
        E 0 90 4b 64
        E 0 90 4c 65
        E 0 90 4d 64
        E 0 90 61 67
        E 0 90 62 66
        E 0 90 63 64
        E 0 90 64 65
        E 0 90 65 64
        E 0 9f 51 64
        E 0 9f 69 64
        E 120 80 31 00
        E 0 80 32 00
        E 0 80 49 00
        E 0 80 4a 00
        E 0 80 4b 00
        E 0 80 4c 00
        E 0 80 4d 00
        E 0 80 61 00
        E 0 80 62 00
        E 0 80 63 00
        E 0 80 64 00
        E 0 80 65 00
        E 0 8f 51 00
        E 0 8f 69 00
        E 120 93 49 67
        E 0 93 4a 66
        E 0 93 4b 64
        E 0 93 4c 65
        E 0 93 4d 64
        E 0 93 61 67
        E 0 93 62 66
        E 0 93 63 64
        E 0 93 64 65
        E 0 93 65 64
        E 120 83 49 00
        E 0 83 4a 00
        E 0 83 4b 00
        E 0 83 4c 00
        E 0 83 4d 00
        E 0 83 61 00
        E 0 83 62 00
        E 0 83 63 00
        E 0 83 64 00
        E 0 83 65 00
        E 120 90 0c 64
        E 0 90 10 64
        E 0 90 31 66
        E 0 90 32 66
        E 0 90 49 66
        E 0 90 4a 66
        E 0 90 4b 64
        E 0 90 4c 65
        E 0 90 4d 64
        E 0 90 61 66
        E 0 90 62 66
        E 0 90 63 64
        E 0 90 64 65
        E 0 90 65 64
        E 0 9f 51 64
        E 0 9f 69 64
        E 120 80 0c 00
        E 0 80 10 00
        E 0 80 31 00
        E 0 80 32 00
        E 0 80 61 00
        E 0 80 62 00
        E 0 80 63 00
        E 0 80 64 00
        E 0 80 65 00
        E 0 8f 51 00
        E 0 8f 69 00
        E 120 90 61 66
        E 0 90 62 66
        E 0 90 63 64
        E 0 90 64 65
        E 0 90 65 64
        E 0 9d 51 64
        E 0 9d 69 64
        E 120 80 49 00
        E 0 80 4a 00
        E 0 80 4b 00
        E 0 80 4c 00
        E 0 80 4d 00
        E 0 80 61 00
        E 0 80 62 00
        E 0 80 63 00
        E 0 80 64 00
        E 0 80 65 00
        E 0 8d 51 00
        E 0 8d 69 00
        E 120 90 31 66
        E 0 90 32 66
        E 0 90 49 66
        E 0 90 4a 66
        E 0 90 4b 64
        E 0 90 4c 65
        E 0 90 4d 64
        E 0 90 61 66
        E 0 90 62 66
        E 0 90 63 64
        E 0 90 64 65
        E 0 90 65 64
        E 0 9f 51 64
        E 0 9f 69 64
        E 120 80 31 00
        E 0 80 32 00
        E 0 80 49 00
        E 0 80 4a 00
        E 0 80 4b 00
        E 0 80 4c 00
        E 0 80 4d 00
        E 0 80 61 00
        E 0 80 62 00
        E 0 80 63 00
        E 0 80 64 00
        E 0 80 65 00
        E 0 8f 51 00
        E 0 8f 69 00
        E 120 93 49 66
        E 0 93 4a 66
        E 0 93 4b 64
        E 0 93 4c 65
        E 0 93 4d 64
        E 0 93 61 66
        E 0 93 62 66
        E 0 93 63 64
        E 0 93 64 65
        E 0 93 65 64
        E 120 83 49 00
        E 0 83 4a 00
        E 0 83 4b 00
        E 0 83 4c 00
        E 0 83 4d 00
        E 0 83 61 00
        E 0 83 62 00
        E 0 83 63 00
        E 0 83 64 00
        E 0 83 65 00
        E 120 90 09 64
        E 0 90 1a 66
        E 0 90 32 66
        E 0 90 33 66
        E 0 90 49 64
        E 0 90 4a 66
        E 0 90 4b 66
        E 0 90 4c 65
        E 0 90 4d 64
        E 0 90 61 64
        E 0 90 62 66
        E 0 90 63 66
        E 0 90 64 65
        E 0 90 65 64
        E 0 9f 51 64
        E 0 9f 69 64
        E 120 80 09 00
        E 0 80 1a 00
        E 0 80 32 00
        E 0 80 33 00
        E 240 80 49 00
        E 0 80 4a 00
        E 0 80 4b 00
        E 0 80 4c 00
        E 0 80 4d 00
        E 0 80 61 00
        E 0 80 62 00
        E 0 80 63 00
        E 0 80 64 00
        E 0 80 65 00
        E 0 8f 51 00
        E 0 8f 69 00
        E 120 90 1a 66
        E 0 90 32 66
        E 0 90 33 66
        E 0 90 49 64
        E 0 90 4a 66
        E 0 90 4b 66
        E 0 90 4c 65
        E 0 90 4d 64
        E 0 90 61 64
        E 0 90 62 66
        E 0 90 63 66
        E 0 90 64 65
        E 0 90 65 64
        E 0 9f 51 64
        E 0 9f 69 64
        E 120 80 1a 00
        E 0 80 32 00
        E 0 80 33 00
        E 0 80 49 00
        E 0 80 4a 00
        E 0 80 4b 00
        E 0 80 4c 00
        E 0 80 4d 00
        E 0 80 61 00
        E 0 80 62 00
        E 0 80 63 00
        E 0 80 64 00
        E 0 80 65 00
        E 0 8f 51 00
        E 0 8f 69 00
        E 120 90 49 64
        E 0 90 4a 66
        E 0 90 4b 66
        E 0 90 4c 65
        E 0 90 4d 64
        E 0 90 61 64
        E 0 90 62 66
        E 0 90 63 66
        E 0 90 64 65
        E 0 90 65 64
        E 0 9d 51 64
        E 0 9d 69 64
        E 120 80 49 00
        E 0 80 4a 00
        E 0 80 4b 00
        E 0 80 4c 00
        E 0 80 4d 00
        E 0 80 61 00
        E 0 80 62 00
        E 0 80 63 00
        E 0 80 64 00
        E 0 80 65 00
        E 0 8d 51 00
        E 0 8d 69 00
        E 120 90 1a 66
        E 0 90 32 66
        E 0 90 33 66
        E 0 90 49 64
        E 0 90 4a 66
        E 0 90 4b 66
        E 0 90 4c 65
        E 0 90 4d 64
        E 0 90 61 64
        E 0 90 62 66
        E 0 90 63 66
        E 0 90 64 65
        E 0 90 65 64
        E 0 9f 51 64
        E 0 9f 69 64
        E 120 80 1a 00
        E 0 80 32 00
        E 0 80 33 00
        E 0 80 49 00
        E 0 80 4a 00
        E 0 80 4b 00
        E 0 80 4c 00
        E 0 80 4d 00
        E 0 80 61 00
        E 0 80 62 00
        E 0 80 63 00
        E 0 80 64 00
        E 0 80 65 00
        E 0 8f 51 00
        E 0 8f 69 00
        E 120 90 49 64
        E 0 90 4a 66
        E 0 90 4b 66
        E 0 90 4c 64
        E 0 90 4d 64
        E 0 90 61 64
        E 0 90 62 66
        E 0 90 63 66
        E 0 90 64 64
        E 0 90 65 64
        E 0 9d 51 64
        E 0 9d 69 64
        E 120 80 49 00
        E 0 80 4a 00
        E 0 80 4b 00
        E 0 80 4c 00
        E 0 80 4d 00
        E 0 80 61 00
        E 0 80 62 00
        E 0 80 63 00
        E 0 80 64 00
        E 0 80 65 00
        E 0 8d 51 00
        E 0 8d 69 00
        E 120 90 1a 66
        E 0 90 32 66
        E 0 90 33 66
        E 0 90 49 64
        E 0 90 4a 66
        E 0 90 4b 66
        E 0 90 4c 64
        E 0 90 4d 64
        E 0 90 61 64
        E 0 90 62 66
        E 0 90 63 66
        E 0 90 64 64
        E 0 90 65 64
        E 0 9f 51 64
        E 0 9f 69 64
        E 120 80 1a 00
        E 0 80 32 00
        E 0 80 33 00
        E 0 80 49 00
        E 0 80 4a 00
        E 0 80 4b 00
        E 0 80 4c 00
        E 0 80 4d 00
        E 0 80 61 00
        E 0 80 62 00
        E 0 80 63 00
        E 0 80 64 00
        E 0 80 65 00
        E 0 8f 51 00
        E 0 8f 69 00
        E 120 90 6c 66
        E 0 93 48 67
        E 0 93 49 66
        E 0 93 4a 64
        E 0 93 4b 64
        E 0 93 4c 64
        E 0 93 4d 67
        E 0 93 60 67
        E 0 93 61 66
        E 0 93 62 64
        E 0 93 63 64
        E 0 93 64 64
        E 0 93 65 67
        E 0 9d 51 64
        E 0 9d 69 64
        E 120 80 6c 00
        E 0 83 48 00
        E 0 83 49 00
        E 0 83 4a 00
        E 0 83 4b 00
        E 0 83 4c 00
        E 0 83 4d 00
        E 0 83 60 00
        E 0 83 61 00
        E 0 83 62 00
        E 0 83 63 00
        E 0 83 64 00
        E 0 83 65 00
        E 0 8d 51 00
        E 0 8d 69 00
        E 120 90 07 64
        E 0 90 18 67
        E 0 90 30 67
        E 0 90 31 66
        E 0 90 48 67
        E 0 90 49 66
        E 0 90 4a 64
        E 0 90 4b 64
        E 0 90 4c 64
        E 0 90 4d 67
        E 0 90 60 67
        E 0 90 61 66
        E 0 90 62 64
        E 0 90 63 64
        E 0 90 64 64
        E 0 90 65 67
        E 0 9f 51 64
        E 0 9f 69 64
        E 120 80 07 00
        E 0 80 18 00
        E 0 80 30 00
        E 0 80 31 00
        E 240 80 48 00
        E 0 80 49 00
        E 0 80 4a 00
        E 0 80 4b 00
        E 0 80 4c 00
        E 0 80 4d 00
        E 0 80 60 00
        E 0 80 61 00
        E 0 80 62 00
        E 0 80 63 00
        E 0 80 64 00
        E 0 80 65 00
        E 0 8f 51 00
        E 0 8f 69 00
        E 120 90 30 67
        E 0 90 31 66
        E 0 90 48 67
        E 0 90 49 66
        E 0 90 4a 64
        E 0 90 4b 64
        E 0 90 4c 64
        E 0 90 4d 67
        E 0 90 60 67
        E 0 90 61 66
        E 0 90 62 64
        E 0 90 63 64
        E 0 90 64 64
        E 0 90 65 67
        E 0 9f 51 64
        E 0 9f 69 64
        E 120 80 30 00
        E 0 80 31 00
        E 0 80 48 00
        E 0 80 49 00
        E 0 80 4a 00
        E 0 80 4b 00
        E 0 80 4c 00
        E 0 80 4d 00
        E 0 80 60 00
        E 0 80 61 00
        E 0 80 62 00
        E 0 80 63 00
        E 0 80 64 00
        E 0 80 65 00
        E 0 8f 51 00
        E 0 8f 69 00
        E 120 93 48 66
        E 0 93 49 66
        E 0 93 4a 64
        E 0 93 4b 64
        E 0 93 4c 64
        E 0 93 4d 67
        E 0 93 60 66
        E 0 93 61 66
        E 0 93 62 64
        E 0 93 63 64
        E 0 93 64 64
        E 0 93 65 67
        E 120 83 48 00
        E 0 83 49 00
        E 0 83 4a 00
        E 0 83 4b 00
        E 0 83 4c 00
        E 0 83 4d 00
        E 0 83 60 00
        E 0 83 61 00
        E 0 83 62 00
        E 0 83 63 00
        E 0 83 64 00
        E 0 83 65 00
        E 120 90 07 64
        E 0 90 10 64
        E 0 90 18 66
        E 0 90 30 66
        E 0 90 31 66
        E 0 90 48 66
        E 0 90 49 66
        E 0 90 4a 64
        E 0 90 4b 64
        E 0 90 4c 64
        E 0 90 4d 67
        E 0 90 60 66
        E 0 90 61 66
        E 0 90 62 64
        E 0 90 63 64
        E 0 90 64 64
        E 0 90 65 67
        E 0 9f 51 64
        E 0 9f 69 64
        E 120 80 07 00
        E 0 80 10 00
        E 0 80 18 00
        E 0 80 30 00
        E 0 80 31 00
        E 0 80 48 00
        E 0 80 49 00
        E 0 80 4a 00
        E 0 80 4b 00
        E 0 80 4c 00
        E 0 80 4d 00
        E 0 80 60 00
        E 0 80 61 00
        E 0 80 62 00
        E 0 80 63 00
        E 0 80 64 00
        E 0 80 65 00
        E 0 8f 51 00
        E 0 8f 69 00
        E 120 90 30 66
        E 0 90 31 66
        E 0 90 48 66
        E 0 90 49 66
        E 0 90 4a 64
        E 0 90 4b 64
        E 0 90 4c 64
        E 0 90 4d 67
        E 0 90 60 66
        E 0 90 61 66
        E 0 90 62 64
        E 0 90 63 64
        E 0 90 64 64
        E 0 90 65 67
        E 0 9d 51 64
        E 0 9d 69 64
        E 120 80 30 00
        E 0 80 31 00
        E 0 80 48 00
        E 0 80 49 00
        E 0 80 4a 00
        E 0 80 4b 00
        E 0 80 4c 00
        E 0 80 4d 00
        E 0 80 60 00
        E 0 80 61 00
        E 0 80 62 00
        E 0 80 63 00
        E 0 80 64 00
        E 0 80 65 00
        E 0 8d 51 00
        E 0 8d 69 00
        E 120 90 30 66
        E 0 90 31 66
        E 0 90 48 66
        E 0 90 49 66
        E 0 90 4a 64
        E 0 90 4b 64
        E 0 90 4c 64
        E 0 90 4d 67
        E 0 90 60 66
        E 0 90 61 66
        E 0 90 62 64
        E 0 90 63 64
        E 0 90 64 64
        E 0 90 65 67
        E 0 9f 51 64
        E 0 9f 69 64
        E 120 80 30 00
        E 0 80 31 00
        E 0 80 48 00
        E 0 80 49 00
        E 0 80 4a 00
        E 0 80 4b 00
        E 0 80 4c 00
        E 0 80 4d 00
        E 0 80 60 00
        E 0 80 61 00
        E 0 80 62 00
        E 0 80 63 00
        E 0 80 64 00
        E 0 80 65 00
        E 0 8f 51 00
        E 0 8f 69 00
        E 120 93 48 64
        E 0 93 49 66
        E 0 93 4a 66
        E 0 93 4b 64
        E 0 93 4c 64
        E 0 93 4d 64
        E 0 93 60 64
        E 0 93 61 66
        E 0 93 62 66
        E 0 93 63 64
        E 0 93 64 64
        E 0 93 65 64
        E 120 83 48 00
        E 0 83 49 00
        E 0 83 4a 00
        E 0 83 4b 00
        E 0 83 4c 00
        E 0 83 4d 00
        E 0 83 60 00
        E 0 83 61 00
        E 0 83 62 00
        E 0 83 63 00
        E 0 83 64 00
        E 0 83 65 00
        E 120 90 04 64
        E 0 90 19 66
        E 0 90 31 66
        E 0 90 32 66
        E 0 90 48 64
        E 0 90 49 66
        E 0 90 4a 66
        E 0 90 4b 64
        E 0 90 4c 64
        E 0 90 4d 64
        E 0 90 60 64
        E 0 90 61 66
        E 0 90 62 66
        E 0 90 63 64
        E 0 90 64 64
        E 0 90 65 64
        E 0 9f 51 64
        E 0 9f 69 64
        E 120 80 04 00
        E 0 80 19 00
        E 0 80 31 00
        E 0 80 32 00
        E 240 80 48 00
        E 0 80 49 00
        E 0 80 4a 00
        E 0 80 4b 00
        E 0 80 4c 00
        E 0 80 4d 00
        E 0 80 60 00
        E 0 80 61 00
        E 0 80 62 00
        E 0 80 63 00
        E 0 80 64 00
        E 0 80 65 00
        E 0 8f 51 00
        E 0 8f 69 00
        E 120 90 19 66
        E 0 90 31 66
        E 0 90 32 66
        E 0 90 48 64
        E 0 90 49 66
        E 0 90 4a 66
        E 0 90 4b 64
        E 0 90 4c 64
        E 0 90 4d 64
        E 0 90 60 64
        E 0 90 61 66
        E 0 90 62 66
        E 0 90 63 64
        E 0 90 64 64
        E 0 90 65 64
        E 0 9f 51 64
        E 0 9f 69 64
        E 120 80 19 00
        E 0 80 31 00
        E 0 80 32 00
        E 0 80 48 00
        E 0 80 49 00
        E 0 80 4a 00
        E 0 80 4b 00
        E 0 80 4c 00
        E 0 80 4d 00
        E 0 80 60 00
        E 0 80 61 00
        E 0 80 62 00
        E 0 80 63 00
        E 0 80 64 00
        E 0 80 65 00
        E 0 8f 51 00
        E 0 8f 69 00
        E 120 90 31 66
        E 0 90 32 66
        E 0 90 48 64
        E 0 90 49 66
        E 0 90 4a 66
        E 0 90 4b 64
        E 0 90 4c 64
        E 0 90 4d 64
        E 0 90 60 64
        E 0 90 61 66
        E 0 90 62 66
        E 0 90 63 64
        E 0 90 64 64
        E 0 90 65 64
        E 0 9d 51 64
        E 0 9d 69 64
        E 120 80 31 00
        E 0 80 32 00
        E 0 80 48 00
        E 0 80 49 00
        E 0 80 4a 00
        E 0 80 4b 00
        E 0 80 4c 00
        E 0 80 4d 00
        E 0 80 60 00
        E 0 80 61 00
        E 0 80 62 00
        E 0 80 63 00
        E 0 80 64 00
        E 0 80 65 00
        E 0 8d 51 00
        E 0 8d 69 00
        E 120 90 19 66
        E 0 90 31 66
        E 0 90 32 66
        E 0 90 48 64
        E 0 90 49 66
        E 0 90 4a 66
        E 0 90 4b 64
        E 0 90 4c 64
        E 0 90 4d 64
        E 0 90 60 64
        E 0 90 61 66
        E 0 90 62 66
        E 0 90 63 64
        E 0 90 64 64
        E 0 90 65 64
        E 0 9f 51 64
        E 0 9f 69 64
        E 120 80 19 00
        E 0 80 31 00
        E 0 80 32 00
        E 0 80 48 00
        E 0 80 49 00
        E 0 80 4a 00
        E 0 80 4b 00
        E 0 80 4c 00
        E 0 80 4d 00
        E 0 80 60 00
        E 0 80 61 00
        E 0 80 62 00
        E 0 80 63 00
        E 0 80 64 00
        E 0 80 65 00
        E 0 8f 51 00
        E 0 8f 69 00
        E 120 90 31 66
        E 0 90 32 66
        E 0 90 48 64
        E 0 90 49 66
        E 0 90 4a 66
        E 0 90 4b 64
        E 0 90 4c 64
        E 0 90 4d 64
        E 0 90 60 64
        E 0 90 61 66
        E 0 90 62 66
        E 0 90 63 64
        E 0 90 64 64
        E 0 90 65 64
        E 0 9d 51 64
        E 0 9d 69 64
        E 120 80 31 00
        E 0 80 32 00
        E 0 80 48 00
        E 0 80 49 00
        E 0 80 4a 00
        E 0 80 4b 00
        E 0 80 4c 00
        E 0 80 4d 00
        E 0 80 60 00
        E 0 80 61 00
        E 0 80 62 00
        E 0 80 63 00
        E 0 80 64 00
        E 0 80 65 00
        E 0 8d 51 00
        E 0 8d 69 00
        E 120 90 31 66
        E 0 90 32 66
        E 0 90 48 64
        E 0 90 49 66
        E 0 90 4a 66
        E 0 90 4b 64
        E 0 90 4c 64
        E 0 90 4d 64
        E 0 90 60 64
        E 0 90 61 66
        E 0 90 62 66
        E 0 90 63 64
        E 0 90 64 64
        E 0 90 65 64
        E 0 9f 51 64
        E 0 9f 69 64
        E 120 80 31 00
        E 0 80 32 00
        E 0 80 48 00
        E 0 80 49 00
        E 0 80 4a 00
        E 0 80 4b 00
        E 0 80 4c 00
        E 0 80 4d 00
        E 0 80 60 00
        E 0 80 61 00
        E 0 80 62 00
        E 0 80 63 00
        E 0 80 64 00
        E 0 80 65 00
        E 0 8f 51 00
        E 0 8f 69 00
        E 120 90 6c 65
        E 0 93 49 67
        E 0 93 4a 66
        E 0 93 4b 64
        E 0 93 4c 65
        E 0 93 4d 64
        E 0 93 61 67
        E 0 93 62 66
        E 0 93 63 64
        E 0 93 64 65
        E 0 93 65 64
        E 120 80 6c 00
        E 0 83 49 00
        E 0 83 4a 00
        E 0 83 4b 00
        E 0 83 4c 00
        E 0 83 4d 00
        E 0 83 61 00
        E 0 83 62 00
        E 0 83 63 00
        E 0 83 64 00
        E 0 83 65 00
        E 120 90 0c 64
        E 0 90 31 67
        E 0 90 32 66
        E 0 90 49 67
        E 0 90 4a 66
        E 0 90 4b 64
        E 0 90 4c 65
        E 0 90 4d 64
        E 0 90 61 67
        E 0 90 62 66
        E 0 90 63 64
        E 0 90 64 65
        E 0 90 65 64
        E 0 9f 51 64
        E 0 9f 69 64
        E 120 80 0c 00
        E 0 80 31 00
        E 0 80 32 00
        E 240 80 49 00
        E 0 80 4a 00
        E 0 80 4b 00
        E 0 80 4c 00
        E 0 80 4d 00
        E 0 80 61 00
        E 0 80 62 00
        E 0 80 63 00
        E 0 80 64 00
        E 0 80 65 00
        E 0 8f 51 00
        E 0 8f 69 00
        E 120 90 31 67
        E 0 90 32 66
        E 0 90 49 67
        E 0 90 4a 66
        E 0 90 4b 64
        E 0 90 4c 65
        E 0 90 4d 64
        E 0 90 61 67
        E 0 90 62 66
        E 0 90 63 64
        E 0 90 64 65
        E 0 90 65 64
        E 0 9f 51 64
        E 0 9f 69 64
        E 120 80 31 00
        E 0 80 32 00
        E 0 80 49 00
        E 0 80 4a 00
        E 0 80 4b 00
        E 0 80 4c 00
        E 0 80 4d 00
        E 0 80 61 00
        E 0 80 62 00
        E 0 80 63 00
        E 0 80 64 00
        E 0 80 65 00
        E 0 8f 51 00
        E 0 8f 69 00
        E 120 93 49 67
        E 0 93 4a 66
        E 0 93 4b 64
        E 0 93 4c 65
        E 0 93 4d 64
        E 0 93 61 67
        E 0 93 62 66
        E 0 93 63 64
        E 0 93 64 65
        E 0 93 65 64
        E 120 83 49 00
        E 0 83 4a 00
        E 0 83 4b 00
        E 0 83 4c 00
        E 0 83 4d 00
        E 0 83 61 00
        E 0 83 62 00
        E 0 83 63 00
        E 0 83 64 00
        E 0 83 65 00
        E 120 90 0c 64
        E 0 90 10 64
        E 0 90 31 66
        E 0 90 32 66
        E 0 90 49 66
        E 0 90 4a 66
        E 0 90 4b 64
        E 0 90 4c 65
        E 0 90 4d 64
        E 0 90 61 66
        E 0 90 62 66
        E 0 90 63 64
        E 0 90 64 65
        E 0 90 65 64
        E 0 9f 51 64
        E 0 9f 69 64
        E 120 80 0c 00
        E 0 80 10 00
        E 0 80 31 00
        E 0 80 32 00
        E 240 80 49 00
        E 0 80 4a 00
        E 0 80 4b 00
        E 0 80 4c 00
        E 0 80 4d 00
        E 0 80 61 00
        E 0 80 62 00
        E 0 80 63 00
        E 0 80 64 00
        E 0 80 65 00
        E 0 8f 51 00
        E 0 8f 69 00
        E 120 90 31 66
        E 0 90 32 66
        E 0 90 49 66
        E 0 90 4a 66
        E 0 90 4b 64
        E 0 90 4c 65
        E 0 90 4d 64
        E 0 90 61 66
        E 0 90 62 66
        E 0 90 63 64
        E 0 90 64 65
        E 0 90 65 64
        E 0 9f 51 64
        E 0 9f 69 64
        E 120 80 31 00
        E 0 80 32 00
        E 0 80 49 00
        E 0 80 4a 00
        E 0 80 4b 00
        E 0 80 4c 00
        E 0 80 4d 00
        E 0 80 61 00
        E 0 80 62 00
        E 0 80 63 00
        E 0 80 64 00
        E 0 80 65 00
        E 0 8f 51 00
        E 0 8f 69 00
        E 120 93 49 66
        E 0 93 4a 66
        E 0 93 4b 64
        E 0 93 4c 65
        E 0 93 4d 64
        E 0 93 61 66
        E 0 93 62 66
        E 0 93 63 64
        E 0 93 64 65
        E 0 93 65 64
        E 120 83 49 00
        E 0 83 4a 00
        E 0 83 4b 00
        E 0 83 4c 00
        E 0 83 4d 00
        E 0 83 61 00
        E 0 83 62 00
        E 0 83 63 00
        E 0 83 64 00
        E 0 83 65 00
        E 120 90 09 64
        E 0 90 1a 66
        E 0 90 32 66
        E 0 90 33 66
        E 0 90 49 64
        E 0 90 4a 66
        E 0 90 4b 66
        E 0 90 4c 65
        E 0 90 4d 64
        E 0 90 61 64
        E 0 90 62 66
        E 0 90 63 66
        E 0 90 64 65
        E 0 90 65 64
        E 0 9f 51 64
        E 0 9f 69 64
        E 120 80 09 00
        E 0 80 1a 00
        E 0 80 32 00
        E 0 80 33 00
        E 240 80 49 00
        E 0 80 4a 00
        E 0 80 4b 00
        E 0 80 4c 00
        E 0 80 4d 00
        E 0 80 61 00
        E 0 80 62 00
        E 0 80 63 00
        E 0 80 64 00
        E 0 80 65 00
        E 0 8f 51 00
        E 0 8f 69 00
        E 120 90 1a 66
        E 0 90 32 66
        E 0 90 33 66
        E 0 90 49 64
        E 0 90 4a 66
        E 0 90 4b 66
        E 0 90 4c 65
        E 0 90 4d 64
        E 0 90 61 64
        E 0 90 62 66
        E 0 90 63 66
        E 0 90 64 65
        E 0 90 65 64
        E 0 9f 51 64
        E 0 9f 69 64
        E 120 80 1a 00
        E 0 80 32 00
        E 0 80 33 00
        E 0 80 49 00
        E 0 80 4a 00
        E 0 80 4b 00
        E 0 80 4c 00
        E 0 80 4d 00
        E 0 80 61 00
        E 0 80 62 00
        E 0 80 63 00
        E 0 80 64 00
        E 0 80 65 00
        E 0 8f 51 00
        E 0 8f 69 00
        E 120 90 32 66
        E 0 90 33 66
        E 0 90 49 64
        E 0 90 4a 66
        E 0 90 4b 66
        E 0 90 4c 65
        E 0 90 4d 64
        E 0 90 61 64
        E 0 90 62 66
        E 0 90 63 66
        E 0 90 64 65
        E 0 90 65 64
        E 0 9d 51 64
        E 0 9d 69 64
        E 120 80 32 00
        E 0 80 33 00
        E 0 80 49 00
        E 0 80 4a 00
        E 0 80 4b 00
        E 0 80 4c 00
        E 0 80 4d 00
        E 0 80 61 00
        E 0 80 62 00
        E 0 80 63 00
        E 0 80 64 00
        E 0 80 65 00
        E 0 8d 51 00
        E 0 8d 69 00
        E 120 90 1a 66
        E 0 90 32 66
        E 0 90 33 66
        E 0 90 49 64
        E 0 90 4a 66
        E 0 90 4b 66
        E 0 90 4c 65
        E 0 90 4d 64
        E 0 90 61 64
        E 0 90 62 66
        E 0 90 63 66
        E 0 90 64 65
        E 0 90 65 64
        E 0 9f 51 64
        E 0 9f 69 64
        E 120 80 1a 00
        E 0 80 32 00
        E 0 80 33 00
        E 0 80 49 00
        E 0 80 4a 00
        E 0 80 4b 00
        E 0 80 4c 00
        E 0 80 4d 00
        E 0 80 61 00
        E 0 80 62 00
        E 0 80 63 00
        E 0 80 64 00
        E 0 80 65 00
        E 0 8f 51 00
        E 0 8f 69 00
        E 120 90 49 64
        E 0 90 4a 66
        E 0 90 4b 66
        E 0 90 4c 64
        E 0 90 4d 64
        E 0 90 61 64
        E 0 90 62 66
        E 0 90 63 66
        E 0 90 64 64
        E 0 90 65 64
        E 0 9d 51 64
        E 0 9d 69 64
        E 120 80 49 00
        E 0 80 4a 00
        E 0 80 4b 00
        E 0 80 4c 00
        E 0 80 4d 00
        E 0 80 61 00
        E 0 80 62 00
        E 0 80 63 00
        E 0 80 64 00
        E 0 80 65 00
        E 0 8d 51 00
        E 0 8d 69 00
        E 120 90 1a 66
        E 0 90 32 66
        E 0 90 33 66
        E 0 90 49 64
        E 0 90 4a 66
        E 0 90 4b 66
        E 0 90 4c 64
        E 0 90 4d 64
        E 0 90 61 64
        E 0 90 62 66
        E 0 90 63 66
        E 0 90 64 64
        E 0 90 65 64
        E 0 9f 51 64
        E 0 9f 69 64
        E 120 80 1a 00
        E 0 80 32 00
        E 0 80 33 00
        E 0 80 49 00
        E 0 80 4a 00
        E 0 80 4b 00
        E 0 80 4c 00
        E 0 80 4d 00
        E 0 80 61 00
        E 0 80 62 00
        E 0 80 63 00
        E 0 80 64 00
        E 0 80 65 00
        E 0 8f 51 00
        E 0 8f 69 00
        E 120 90 6c 66
        E 0 93 48 67
        E 0 93 49 66
        E 0 93 4a 64
        E 0 93 4b 64
        E 0 93 4c 64
        E 0 93 4d 67
        E 0 93 60 67
        E 0 93 61 66
        E 0 93 62 64
        E 0 93 63 64
        E 0 93 64 64
        E 0 93 65 67
        E 120 80 6c 00
        E 0 83 48 00
        E 0 83 49 00
        E 0 83 4a 00
        E 0 83 4b 00
        E 0 83 4c 00
        E 0 83 4d 00
        E 0 83 60 00
        E 0 83 61 00
        E 0 83 62 00
        E 0 83 63 00
        E 0 83 64 00
        E 0 83 65 00
        E 120 90 07 64
        E 0 90 18 67
        E 0 90 30 67
        E 0 90 31 66
        E 0 90 48 67
        E 0 90 49 66
        E 0 90 4a 64
        E 0 90 4b 64
        E 0 90 4c 64
        E 0 90 4d 67
        E 0 90 60 67
        E 0 90 61 66
        E 0 90 62 64
        E 0 90 63 64
        E 0 90 64 64
        E 0 90 65 67
        E 0 9f 51 64
        E 0 9f 69 64
        E 120 80 07 00
        E 0 80 18 00
        E 0 80 30 00
        E 0 80 31 00
        E 240 80 48 00
        E 0 80 49 00
        E 0 80 4a 00
        E 0 80 4b 00
        E 0 80 4c 00
        E 0 80 4d 00
        E 0 80 60 00
        E 0 80 61 00
        E 0 80 62 00
        E 0 80 63 00
        E 0 80 64 00
        E 0 80 65 00
        E 0 8f 51 00
        E 0 8f 69 00
        E 120 90 30 67
        E 0 90 31 66
        E 0 90 48 67
        E 0 90 49 66
        E 0 90 4a 64
        E 0 90 4b 64
        E 0 90 4c 64
        E 0 90 4d 67
        E 0 90 60 67
        E 0 90 61 66
        E 0 90 62 64
        E 0 90 63 64
        E 0 90 64 64
        E 0 90 65 67
        E 0 9f 51 64
        E 0 9f 69 64
        E 120 80 30 00
        E 0 80 31 00
        E 0 80 48 00
        E 0 80 49 00
        E 0 80 4a 00
        E 0 80 4b 00
        E 0 80 4c 00
        E 0 80 4d 00
        E 0 80 60 00
        E 0 80 61 00
        E 0 80 62 00
        E 0 80 63 00
        E 0 80 64 00
        E 0 80 65 00
        E 0 8f 51 00
        E 0 8f 69 00
        E 120 93 48 66
        E 0 93 49 66
        E 0 93 4a 64
        E 0 93 4b 64
        E 0 93 4c 64
        E 0 93 4d 67
        E 0 93 60 66
        E 0 93 61 66
        E 0 93 62 64
        E 0 93 63 64
        E 0 93 64 64
        E 0 93 65 67
        E 120 83 48 00
        E 0 83 49 00
        E 0 83 4a 00
        E 0 83 4b 00
        E 0 83 4c 00
        E 0 83 4d 00
        E 0 83 60 00
        E 0 83 61 00
        E 0 83 62 00
        E 0 83 63 00
        E 0 83 64 00
        E 0 83 65 00
        E 120 90 07 64
        E 0 90 10 64
        E 0 90 18 66
        E 0 90 30 66
        E 0 90 31 66
        E 0 90 48 66
        E 0 90 49 66
        E 0 90 4a 64
        E 0 90 4b 64
        E 0 90 4c 64
        E 0 90 4d 67
        E 0 90 60 66
        E 0 90 61 66
        E 0 90 62 64
        E 0 90 63 64
        E 0 90 64 64
        E 0 90 65 67
        E 0 9f 51 64
        E 0 9f 69 64
        E 120 80 07 00
        E 0 80 10 00
        E 0 80 18 00
        E 0 80 30 00
        E 0 80 31 00
        E 0 80 48 00
        E 0 80 49 00
        E 0 80 4a 00
        E 0 80 4b 00
        E 0 80 4c 00
        E 0 80 4d 00
        E 0 80 60 00
        E 0 80 61 00
        E 0 80 62 00
        E 0 80 63 00
        E 0 80 64 00
        E 0 80 65 00
        E 0 8f 51 00
        E 0 8f 69 00
        E 120 90 30 66
        E 0 90 31 66
        E 0 90 48 66
        E 0 90 49 66
        E 0 90 4a 64
        E 0 90 4b 64
        E 0 90 4c 64
        E 0 90 4d 67
        E 0 90 60 66
        E 0 90 61 66
        E 0 90 62 64
        E 0 90 63 64
        E 0 90 64 64
        E 0 90 65 67
        E 0 9d 51 64
        E 0 9d 69 64
        E 120 80 30 00
        E 0 80 31 00
        E 0 80 48 00
        E 0 80 49 00
        E 0 80 4a 00
        E 0 80 4b 00
        E 0 80 4c 00
        E 0 80 4d 00
        E 0 80 60 00
        E 0 80 61 00
        E 0 80 62 00
        E 0 80 63 00
        E 0 80 64 00
        E 0 80 65 00
        E 0 8d 51 00
        E 0 8d 69 00
        E 120 90 30 66
        E 0 90 31 66
        E 0 90 48 66
        E 0 90 49 66
        E 0 90 4a 64
        E 0 90 4b 64
        E 0 90 4c 64
        E 0 90 4d 67
        E 0 90 60 66
        E 0 90 61 66
        E 0 90 62 64
        E 0 90 63 64
        E 0 90 64 64
        E 0 90 65 67
        E 0 9f 51 64
        E 0 9f 69 64
        E 120 80 30 00
        E 0 80 31 00
        E 0 80 48 00
        E 0 80 49 00
        E 0 80 4a 00
        E 0 80 4b 00
        E 0 80 4c 00
        E 0 80 4d 00
        E 0 80 60 00
        E 0 80 61 00
        E 0 80 62 00
        E 0 80 63 00
        E 0 80 64 00
        E 0 80 65 00
        E 0 8f 51 00
        E 0 8f 69 00
        E 120 93 48 64
        E 0 93 49 66
        E 0 93 4a 66
        E 0 93 4b 64
        E 0 93 4c 64
        E 0 93 4d 64
        E 0 93 60 64
        E 0 93 61 66
        E 0 93 62 66
        E 0 93 63 64
        E 0 93 64 64
        E 0 93 65 64
        E 120 83 48 00
        E 0 83 49 00
        E 0 83 4a 00
        E 0 83 4b 00
        E 0 83 4c 00
        E 0 83 4d 00
        E 0 83 60 00
        E 0 83 61 00
        E 0 83 62 00
        E 0 83 63 00
        E 0 83 64 00
        E 0 83 65 00
        E 120 90 04 64
        E 0 90 19 66
        E 0 90 31 66
        E 0 90 32 66
        E 0 90 48 64
        E 0 90 49 66
        E 0 90 4a 66
        E 0 90 4b 64
        E 0 90 4c 64
        E 0 90 4d 64
        E 0 90 60 64
        E 0 90 61 66
        E 0 90 62 66
        E 0 90 63 64
        E 0 90 64 64
        E 0 90 65 64
        E 0 9f 51 64
        E 0 9f 69 64
        E 120 80 04 00
        E 0 80 19 00
        E 0 80 31 00
        E 0 80 32 00
        E 240 80 48 00
        E 0 80 49 00
        E 0 80 4a 00
        E 0 80 4b 00
        E 0 80 4c 00
        E 0 80 4d 00
        E 0 80 60 00
        E 0 80 61 00
        E 0 80 62 00
        E 0 80 63 00
        E 0 80 64 00
        E 0 80 65 00
        E 0 8f 51 00
        E 0 8f 69 00
        E 120 90 19 66
        E 0 90 31 66
        E 0 90 32 66
        E 0 90 48 64
        E 0 90 49 66
        E 0 90 4a 66
        E 0 90 4b 64
        E 0 90 4c 64
        E 0 90 4d 64
        E 0 90 60 64
        E 0 90 61 66
        E 0 90 62 66
        E 0 90 63 64
        E 0 90 64 64
        E 0 90 65 64
        E 0 9f 51 64
        E 0 9f 69 64
        E 120 80 19 00
        E 0 80 31 00
        E 0 80 32 00
        E 0 80 48 00
        E 0 80 49 00
        E 0 80 4a 00
        E 0 80 4b 00
        E 0 80 4c 00
        E 0 80 4d 00
        E 0 80 60 00
        E 0 80 61 00
        E 0 80 62 00
        E 0 80 63 00
        E 0 80 64 00
        E 0 80 65 00
        E 0 8f 51 00
        E 0 8f 69 00
        E 120 90 31 66
        E 0 90 32 66
        E 0 90 48 64
        E 0 90 49 66
        E 0 90 4a 66
        E 0 90 4b 64
        E 0 90 4c 64
        E 0 90 4d 64
        E 0 90 60 64
        E 0 90 61 66
        E 0 90 62 66
        E 0 90 63 64
        E 0 90 64 64
        E 0 90 65 64
        E 0 9d 51 64
        E 0 9d 69 64
        E 120 80 31 00
        E 0 80 32 00
        E 0 80 48 00
        E 0 80 49 00
        E 0 80 4a 00
        E 0 80 4b 00
        E 0 80 4c 00
        E 0 80 4d 00
        E 0 80 60 00
        E 0 80 61 00
        E 0 80 62 00
        E 0 80 63 00
        E 0 80 64 00
        E 0 80 65 00
        E 0 8d 51 00
        E 0 8d 69 00
        E 120 90 19 66
        E 0 90 31 66
        E 0 90 32 66
        E 0 90 48 64
        E 0 90 49 66
        E 0 90 4a 66
        E 0 90 4b 64
        E 0 90 4c 64
        E 0 90 4d 64
        E 0 90 60 64
        E 0 90 61 66
        E 0 90 62 66
        E 0 90 63 64
        E 0 90 64 64
        E 0 90 65 64
        E 0 9f 51 64
        E 0 9f 69 64
        E 120 80 19 00
        E 0 80 31 00
        E 0 80 32 00
        E 0 80 48 00
        E 0 80 49 00
        E 0 80 4a 00
        E 0 80 4b 00
        E 0 80 4c 00
        E 0 80 4d 00
        E 0 80 60 00
        E 0 80 61 00
        E 0 80 62 00
        E 0 80 63 00
        E 0 80 64 00
        E 0 80 65 00
        E 0 8f 51 00
        E 0 8f 69 00
        E 120 90 31 66
        E 0 90 32 66
        E 0 90 48 64
        E 0 90 49 66
        E 0 90 4a 66
        E 0 90 4b 64
        E 0 90 4c 64
        E 0 90 4d 64
        E 0 90 60 64
        E 0 90 61 66
        E 0 90 62 66
        E 0 90 63 64
        E 0 90 64 64
        E 0 90 65 64
        E 0 9d 51 64
        E 0 9d 69 64
        E 120 80 31 00
        E 0 80 32 00
        E 0 80 48 00
        E 0 80 49 00
        E 0 80 4a 00
        E 0 80 4b 00
        E 0 80 4c 00
        E 0 80 4d 00
        E 0 80 60 00
        E 0 80 61 00
        E 0 80 62 00
        E 0 80 63 00
        E 0 80 64 00
        E 0 80 65 00
        E 0 8d 51 00
        E 0 8d 69 00
        E 120 90 31 66
        E 0 90 32 66
        E 0 90 48 64
        E 0 90 49 66
        E 0 90 4a 66
        E 0 90 4b 64
        E 0 90 4c 64
        E 0 90 4d 64
        E 0 90 60 64
        E 0 90 61 66
        E 0 90 62 66
        E 0 90 63 64
        E 0 90 64 64
        E 0 90 65 64
        E 0 9f 51 64
        E 0 9f 69 64
        E 120 80 31 00
        E 0 80 32 00
        E 0 80 48 00
        E 0 80 49 00
        E 0 80 4a 00
        E 0 80 4b 00
        E 0 80 4c 00
        E 0 80 4d 00
        E 0 80 60 00
        E 0 80 61 00
        E 0 80 62 00
        E 0 80 63 00
        E 0 80 64 00
        E 0 80 65 00
        E 0 8f 51 00
        E 0 8f 69 00
        E 120 90 6c 65
        E 0 93 49 67
        E 0 93 4a 66
        E 0 93 4b 64
        E 0 93 4c 65
        E 0 93 4d 64
        E 0 93 61 67
        E 0 93 62 66
        E 0 93 63 64
        E 0 93 64 65
        E 0 93 65 64
        E 120 80 6c 00
        E 0 83 49 00
        E 0 83 4a 00
        E 0 83 4b 00
        E 0 83 4c 00
        E 0 83 4d 00
        E 0 83 61 00
        E 0 83 62 00
        E 0 83 63 00
        E 0 83 64 00
        E 0 83 65 00
        E 120 90 0c 64
        E 0 90 31 67
        E 0 90 32 66
        E 0 90 49 67
        E 0 90 4a 66
        E 0 90 4b 64
        E 0 90 4c 65
        E 0 90 4d 64
        E 0 90 61 67
        E 0 90 62 66
        E 0 90 63 64
        E 0 90 64 65
        E 0 90 65 64
        E 0 9f 51 64
        E 0 9f 69 64
        E 120 80 0c 00
        E 0 80 31 00
        E 0 80 32 00
        E 240 80 49 00
        E 0 80 4a 00
        E 0 80 4b 00
        E 0 80 4c 00
        E 0 80 4d 00
        E 0 80 61 00
        E 0 80 62 00
        E 0 80 63 00
        E 0 80 64 00
        E 0 80 65 00
        E 0 8f 51 00
        E 0 8f 69 00
        E 120 90 31 67
        E 0 90 32 66
        E 0 90 49 67
        E 0 90 4a 66
        E 0 90 4b 64
        E 0 90 4c 65
        E 0 90 4d 64
        E 0 90 61 67
        E 0 90 62 66
        E 0 90 63 64
        E 0 90 64 65
        E 0 90 65 64
        E 0 9f 51 64
        E 0 9f 69 64
        E 120 80 31 00
        E 0 80 32 00
        E 240 80 49 00
        E 0 80 4a 00
        E 0 80 4b 00
        E 0 80 4c 00
        E 0 80 4d 00
        E 0 80 61 00
        E 0 80 62 00
        E 0 80 63 00
        E 0 80 64 00
        E 0 80 65 00
        E 0 8f 51 00
        E 0 8f 69 00
        E 120 90 31 67
        E 0 90 32 66
        E 0 90 49 67
        E 0 90 4a 66
        E 0 90 4b 64
        E 0 90 4c 65
        E 0 90 4d 64
        E 0 90 61 67
        E 0 90 62 66
        E 0 90 63 64
        E 0 90 64 65
        E 0 90 65 64
        E 0 9f 51 64
        E 0 9f 69 64
        E 120 80 31 00
        E 0 80 32 00
        E 240 80 49 00
        E 0 80 4a 00
        E 0 80 4b 00
        E 0 80 4c 00
        E 0 80 4d 00
        E 0 80 61 00
        E 0 80 62 00
        E 0 80 63 00
        E 0 80 64 00
        E 0 80 65 00
        E 0 8f 51 00
        E 0 8f 69 00
        E 120 90 31 67
        E 0 90 32 66
        E 0 90 49 67
        E 0 90 4a 66
        E 0 90 4b 64
        E 0 90 4c 65
        E 0 90 4d 64
        E 0 90 61 67
        E 0 90 62 66
        E 0 90 63 64
        E 0 90 64 65
        E 0 90 65 64
        E 0 9f 51 64
        E 0 9f 69 64
        E 120 80 31 00
        E 0 80 32 00
        E 0 80 49 00
        E 0 80 4a 00
        E 0 80 4b 00
        E 0 80 4c 00
        E 0 80 4d 00
        E 0 80 61 00
        E 0 80 62 00
        E 0 80 63 00
        E 0 80 64 00
        E 0 80 65 00
        E 0 8f 51 00
        E 0 8f 69 00
        E 120 90 6c 66
        E 0 93 4a 64
        E 0 93 4b 66
        E 0 93 4c 67
        E 0 93 4d 66
        E 0 93 62 64
        E 0 93 63 66
        E 0 93 64 67
        E 0 93 65 66
        E 120 80 6c 00
        E 0 83 4a 00
        E 0 83 4b 00
        E 0 83 4c 00
        E 0 83 4d 00
        E 0 83 62 00
        E 0 83 63 00
        E 0 83 64 00
        E 0 83 65 00
        E 120 90 0e 64
        E 0 90 33 66
        E 0 90 34 67
        E 0 90 4a 64
        E 0 90 4b 66
        E 0 90 4c 67
        E 0 90 4d 66
        E 0 90 62 64
        E 0 90 63 66
        E 0 90 64 67
        E 0 90 65 66
        E 0 9d 51 64
        E 0 9d 69 64
        E 120 80 0e 00
        E 0 80 33 00
        E 0 80 34 00
        E 240 80 4a 00
        E 0 80 4b 00
        E 0 80 4c 00
        E 0 80 4d 00
        E 0 80 62 00
        E 0 80 63 00
        E 0 80 64 00
        E 0 80 65 00
        E 0 8d 51 00
        E 0 8d 69 00
        E 120 90 33 66
        E 0 90 34 67
        E 0 90 4a 64
        E 0 90 4b 66
        E 0 90 4c 67
        E 0 90 4d 66
        E 0 90 62 64
        E 0 90 63 66
        E 0 90 64 67
        E 0 90 65 66
        E 0 9f 51 64
        E 0 9f 69 64
        E 120 80 33 00
        E 0 80 34 00
        E 240 80 4a 00
        E 0 80 4b 00
        E 0 80 4c 00
        E 0 80 4d 00
        E 0 80 62 00
        E 0 80 63 00
        E 0 80 64 00
        E 0 80 65 00
        E 0 8f 51 00
        E 0 8f 69 00
        E 120 90 33 66
        E 0 90 34 67
        E 0 90 4a 64
        E 0 90 4b 66
        E 0 90 4c 67
        E 0 90 4d 66
        E 0 90 62 64
        E 0 90 63 66
        E 0 90 64 67
        E 0 90 65 66
        E 0 9f 51 64
        E 0 9f 69 64
        E 120 80 33 00
        E 0 80 34 00
        E 240 80 4a 00
        E 0 80 4b 00
        E 0 80 4c 00
        E 0 80 4d 00
        E 0 80 62 00
        E 0 80 63 00
        E 0 80 64 00
        E 0 80 65 00
        E 0 8f 51 00
        E 0 8f 69 00
        E 120 90 33 66
        E 0 90 34 67
        E 0 90 4a 64
        E 0 90 4b 66
        E 0 90 4c 67
        E 0 90 4d 66
        E 0 90 62 64
        E 0 90 63 66
        E 0 90 64 67
        E 0 90 65 66
        E 0 9f 51 64
        E 0 9f 69 64
        E 120 80 33 00
        E 0 80 34 00
        E 0 80 4a 00
        E 0 80 4b 00
        E 0 80 4c 00
        E 0 80 4d 00
        E 0 80 62 00
        E 0 80 63 00
        E 0 80 64 00
        E 0 80 65 00
        E 0 8f 51 00
        E 0 8f 69 00
        E 120 93 48 67
        E 0 93 49 66
        E 0 93 4a 64
        E 0 93 4b 64
        E 0 93 4c 64
        E 0 93 4d 67
        E 0 93 60 67
        E 0 93 61 66
        E 0 93 62 64
        E 0 93 63 64
        E 0 93 64 64
        E 0 93 65 67
        E 0 9d 51 64
        E 0 9d 69 64
        E 120 83 48 00
        E 0 83 49 00
        E 0 83 4a 00
        E 0 83 4b 00
        E 0 83 4c 00
        E 0 83 4d 00
        E 0 83 60 00
        E 0 83 61 00
        E 0 83 62 00
        E 0 83 63 00
        E 0 83 64 00
        E 0 83 65 00
        E 0 8d 51 00
        E 0 8d 69 00
        <X 120 0
          /wFbYmVnaW5fcGcgc29uZ190cmFpbmVyX3BnXzNd
        >
        E 0 90 07 64
        E 0 90 18 67
        E 0 90 30 67
        E 0 90 31 66
        E 0 90 48 67
        E 0 90 49 66
        E 0 90 4a 64
        E 0 90 4b 64
        E 0 90 4c 64
        E 0 90 4d 67
        E 0 90 60 67
        E 0 90 61 66
        E 0 90 62 64
        E 0 90 63 64
        E 0 90 64 64
        E 0 90 65 67
        E 0 9f 51 64
        E 0 9f 69 64
        E 120 80 07 00
        E 0 80 18 00
        E 0 80 30 00
        E 0 80 31 00
        E 240 80 48 00
        E 0 80 49 00
        E 0 80 4a 00
        E 0 80 4b 00
        E 0 80 4c 00
        E 0 80 4d 00
        E 0 80 60 00
        E 0 80 61 00
        E 0 80 62 00
        E 0 80 63 00
        E 0 80 64 00
        E 0 80 65 00
        E 0 8f 51 00
        E 0 8f 69 00
        E 120 90 18 67
        E 0 90 30 67
        E 0 90 31 66
        E 0 90 48 67
        E 0 90 49 66
        E 0 90 4a 64
        E 0 90 4b 64
        E 0 90 4c 64
        E 0 90 4d 67
        E 0 90 60 67
        E 0 90 61 66
        E 0 90 62 64
        E 0 90 63 64
        E 0 90 64 64
        E 0 90 65 67
        E 0 9f 51 64
        E 0 9f 69 64
        E 120 80 18 00
        E 0 80 30 00
        E 0 80 31 00
        E 240 80 48 00
        E 0 80 49 00
        E 0 80 4a 00
        E 0 80 4b 00
        E 0 80 4c 00
        E 0 80 4d 00
        E 0 80 60 00
        E 0 80 61 00
        E 0 80 62 00
        E 0 80 63 00
        E 0 80 64 00
        E 0 80 65 00
        E 0 8f 51 00
        E 0 8f 69 00
        E 120 90 18 67
        E 0 90 30 67
        E 0 90 31 66
        E 0 90 48 67
        E 0 90 49 66
        E 0 90 4a 64
        E 0 90 4b 64
        E 0 90 4c 64
        E 0 90 4d 67
        E 0 90 60 67
        E 0 90 61 66
        E 0 90 62 64
        E 0 90 63 64
        E 0 90 64 64
        E 0 90 65 67
        E 0 9f 51 64
        E 0 9f 69 64
        E 120 80 18 00
        E 0 80 30 00
        E 0 80 31 00
        E 240 80 48 00
        E 0 80 49 00
        E 0 80 4a 00
        E 0 80 4b 00
        E 0 80 4c 00
        E 0 80 4d 00
        E 0 80 60 00
        E 0 80 61 00
        E 0 80 62 00
        E 0 80 63 00
        E 0 80 64 00
        E 0 80 65 00
        E 0 8f 51 00
        E 0 8f 69 00
        E 120 90 18 67
        E 0 90 30 67
        E 0 90 31 66
        E 0 90 48 67
        E 0 90 49 66
        E 0 90 4a 64
        E 0 90 4b 64
        E 0 90 4c 64
        E 0 90 4d 67
        E 0 90 60 67
        E 0 90 61 66
        E 0 90 62 64
        E 0 90 63 64
        E 0 90 64 64
        E 0 90 65 67
        E 0 9f 51 64
        E 0 9f 69 64
        E 120 80 18 00
        E 0 80 30 00
        E 0 80 31 00
        E 0 80 48 00
        E 0 80 49 00
        E 0 80 4a 00
        E 0 80 4b 00
        E 0 80 4c 00
        E 0 80 4d 00
        E 0 80 60 00
        E 0 80 61 00
        E 0 80 62 00
        E 0 80 63 00
        E 0 80 64 00
        E 0 80 65 00
        E 0 8f 51 00
        E 0 8f 69 00
        E 120 90 6c 65
        E 0 93 49 67
        E 0 93 4a 66
        E 0 93 4b 64
        E 0 93 4c 65
        E 0 93 4d 64
        E 0 93 61 67
        E 0 93 62 66
        E 0 93 63 64
        E 0 93 64 65
        E 0 93 65 64
        E 120 80 6c 00
        E 0 83 49 00
        E 0 83 4a 00
        E 0 83 4b 00
        E 0 83 4c 00
        E 0 83 4d 00
        E 0 83 61 00
        E 0 83 62 00
        E 0 83 63 00
        E 0 83 64 00
        E 0 83 65 00
        <X 120 0
          /wFbcGdfbm9ybSBzb25nX3RyYWluZXJfcGdfM10=
        >
        E 0 90 0c 64
        E 0 90 19 67
        E 0 90 31 67
        E 0 90 32 66
        E 0 90 49 67
        E 0 90 4a 66
        E 0 90 4b 64
        E 0 90 4c 65
        E 0 90 4d 64
        E 0 90 61 67
        E 0 90 62 66
        E 0 90 63 64
        E 0 90 64 65
        E 0 90 65 64
        E 0 9f 51 64
        E 0 9f 69 64
        E 120 80 0c 00
        E 0 80 19 00
        E 0 80 31 00
        E 0 80 32 00
        E 0 80 49 00
        E 0 80 4a 00
        E 0 80 4b 00
        E 0 80 4c 00
        E 0 80 4d 00
        E 0 80 61 00
        E 0 80 62 00
        E 0 80 63 00
        E 0 80 64 00
        E 0 80 65 00
        E 0 8f 51 00
        E 0 8f 69 00
        E 120 90 49 67
        E 0 90 4a 66
        E 0 90 4b 64
        E 0 90 4c 65
        E 0 90 4d 64
        E 0 90 61 67
        E 0 90 62 66
        E 0 90 63 64
        E 0 90 64 65
        E 0 90 65 64
        E 0 9d 51 64
        E 0 9d 69 64
        E 120 80 49 00
        E 0 80 4a 00
        E 0 80 4b 00
        E 0 80 4c 00
        E 0 80 4d 00
        E 0 80 61 00
        E 0 80 62 00
        E 0 80 63 00
        E 0 80 64 00
        E 0 80 65 00
        E 0 8d 51 00
        E 0 8d 69 00
        E 120 90 19 67
        E 0 90 31 67
        E 0 90 32 66
        E 0 90 49 67
        E 0 90 4a 66
        E 0 90 4b 64
        E 0 90 4c 65
        E 0 90 4d 64
        E 0 90 61 67
        E 0 90 62 66
        E 0 90 63 64
        E 0 90 64 65
        E 0 90 65 64
        E 0 9f 51 64
        E 0 9f 69 64
        E 120 80 19 00
        E 0 80 31 00
        E 0 80 32 00
        E 240 80 49 00
        E 0 80 4a 00
        E 0 80 4b 00
        E 0 80 4c 00
        E 0 80 4d 00
        E 0 80 61 00
        E 0 80 62 00
        E 0 80 63 00
        E 0 80 64 00
        E 0 80 65 00
        E 0 8f 51 00
        E 0 8f 69 00
        E 120 90 19 67
        E 0 90 31 67
        E 0 90 32 66
        E 0 90 49 67
        E 0 90 4a 66
        E 0 90 4b 64
        E 0 90 4c 65
        E 0 90 4d 64
        E 0 90 61 67
        E 0 90 62 66
        E 0 90 63 64
        E 0 90 64 65
        E 0 90 65 64
        E 0 9f 51 64
        E 0 9f 69 64
        E 120 80 19 00
        E 0 80 31 00
        E 0 80 32 00
        E 240 80 49 00
        E 0 80 4a 00
        E 0 80 4b 00
        E 0 80 4c 00
        E 0 80 4d 00
        E 0 80 61 00
        E 0 80 62 00
        E 0 80 63 00
        E 0 80 64 00
        E 0 80 65 00
        E 0 8f 51 00
        E 0 8f 69 00
        E 120 90 19 67
        E 0 90 31 67
        E 0 90 32 66
        E 0 90 49 67
        E 0 90 4a 66
        E 0 90 4b 64
        E 0 90 4c 65
        E 0 90 4d 64
        E 0 90 61 67
        E 0 90 62 66
        E 0 90 63 64
        E 0 90 64 65
        E 0 90 65 64
        E 0 9f 51 64
        E 0 9f 69 64
        E 120 80 19 00
        E 0 80 31 00
        E 0 80 32 00
        E 0 80 49 00
        E 0 80 4a 00
        E 0 80 4b 00
        E 0 80 4c 00
        E 0 80 4d 00
        E 0 80 61 00
        E 0 80 62 00
        E 0 80 63 00
        E 0 80 64 00
        E 0 80 65 00
        E 0 8f 51 00
        E 0 8f 69 00
        E 120 90 6c 66
        E 0 93 48 67
        E 0 93 49 66
        E 0 93 4a 64
        E 0 93 4b 64
        E 0 93 4c 64
        E 0 93 4d 67
        E 0 93 60 67
        E 0 93 61 66
        E 0 93 62 64
        E 0 93 63 64
        E 0 93 64 64
        E 0 93 65 67
        E 120 80 6c 00
        E 0 83 48 00
        E 0 83 49 00
        E 0 83 4a 00
        E 0 83 4b 00
        E 0 83 4c 00
        E 0 83 4d 00
        E 0 83 60 00
        E 0 83 61 00
        E 0 83 62 00
        E 0 83 63 00
        E 0 83 64 00
        E 0 83 65 00
        E 120 90 07 64
        E 0 90 18 67
        E 0 90 30 67
        E 0 90 31 66
        E 0 90 48 67
        E 0 90 49 66
        E 0 90 4a 64
        E 0 90 4b 64
        E 0 90 4c 64
        E 0 90 4d 67
        E 0 90 60 67
        E 0 90 61 66
        E 0 90 62 64
        E 0 90 63 64
        E 0 90 64 64
        E 0 90 65 67
        E 0 9f 51 64
        E 0 9f 69 64
        E 120 80 07 00
        E 0 80 18 00
        E 0 80 30 00
        E 0 80 31 00
        E 240 80 48 00
        E 0 80 49 00
        E 0 80 4a 00
        E 0 80 4b 00
        E 0 80 4c 00
        E 0 80 4d 00
        E 0 80 60 00
        E 0 80 61 00
        E 0 80 62 00
        E 0 80 63 00
        E 0 80 64 00
        E 0 80 65 00
        E 0 8f 51 00
        E 0 8f 69 00
        E 120 90 30 67
        E 0 90 31 66
        E 0 90 48 67
        E 0 90 49 66
        E 0 90 4a 64
        E 0 90 4b 64
        E 0 90 4c 64
        E 0 90 4d 67
        E 0 90 60 67
        E 0 90 61 66
        E 0 90 62 64
        E 0 90 63 64
        E 0 90 64 64
        E 0 90 65 67
        E 0 9f 51 64
        E 0 9f 69 64
        E 120 80 30 00
        E 0 80 31 00
        E 240 80 48 00
        E 0 80 49 00
        E 0 80 4a 00
        E 0 80 4b 00
        E 0 80 4c 00
        E 0 80 4d 00
        E 0 80 60 00
        E 0 80 61 00
        E 0 80 62 00
        E 0 80 63 00
        E 0 80 64 00
        E 0 80 65 00
        E 0 8f 51 00
        E 0 8f 69 00
        E 120 90 18 67
        E 0 90 30 67
        E 0 90 31 66
        E 0 90 48 67
        E 0 90 49 66
        E 0 90 4a 64
        E 0 90 4b 64
        E 0 90 4c 64
        E 0 90 4d 67
        E 0 90 60 67
        E 0 90 61 66
        E 0 90 62 64
        E 0 90 63 64
        E 0 90 64 64
        E 0 90 65 67
        E 0 9f 51 64
        E 0 9f 69 64
        E 120 80 18 00
        E 0 80 30 00
        E 0 80 31 00
        E 240 80 48 00
        E 0 80 49 00
        E 0 80 4a 00
        E 0 80 4b 00
        E 0 80 4c 00
        E 0 80 4d 00
        E 0 80 60 00
        E 0 80 61 00
        E 0 80 62 00
        E 0 80 63 00
        E 0 80 64 00
        E 0 80 65 00
        E 0 8f 51 00
        E 0 8f 69 00
        E 120 90 30 67
        E 0 90 31 66
        E 0 90 48 67
        E 0 90 49 66
        E 0 90 4a 64
        E 0 90 4b 64
        E 0 90 4c 64
        E 0 90 4d 67
        E 0 90 60 67
        E 0 90 61 66
        E 0 90 62 64
        E 0 90 63 64
        E 0 90 64 64
        E 0 90 65 67
        E 0 9f 51 64
        E 0 9f 69 64
        E 120 80 30 00
        E 0 80 31 00
        E 0 80 48 00
        E 0 80 49 00
        E 0 80 4a 00
        E 0 80 4b 00
        E 0 80 4c 00
        E 0 80 4d 00
        E 0 80 60 00
        E 0 80 61 00
        E 0 80 62 00
        E 0 80 63 00
        E 0 80 64 00
        E 0 80 65 00
        E 0 8f 51 00
        E 0 8f 69 00
        E 120 90 6c 65
        E 0 93 48 67
        E 0 93 49 66
        E 0 93 4a 64
        E 0 93 4b 64
        E 0 93 4c 64
        E 0 93 4d 65
        E 0 93 60 67
        E 0 93 61 66
        E 0 93 62 64
        E 0 93 63 64
        E 0 93 64 64
        E 0 93 65 65
        E 120 80 6c 00
        E 0 83 48 00
        E 0 83 49 00
        E 0 83 4a 00
        E 0 83 4b 00
        E 0 83 4c 00
        E 0 83 4d 00
        E 0 83 60 00
        E 0 83 61 00
        E 0 83 62 00
        E 0 83 63 00
        E 0 83 64 00
        E 0 83 65 00
        E 120 90 18 67
        E 0 90 30 67
        E 0 90 31 66
        E 0 90 48 67
        E 0 90 49 66
        E 0 90 4a 64
        E 0 90 4b 64
        E 0 90 4c 64
        E 0 90 4d 65
        E 0 90 60 67
        E 0 90 61 66
        E 0 90 62 64
        E 0 90 63 64
        E 0 90 64 64
        E 0 90 65 65
        E 0 9f 51 64
        E 0 9f 69 64
        E 120 80 18 00
        E 0 80 30 00
        E 0 80 31 00
        E 0 80 48 00
        E 0 80 49 00
        E 0 80 4a 00
        E 0 80 4b 00
        E 0 80 4c 00
        E 0 80 4d 00
        E 0 80 60 00
        E 0 80 61 00
        E 0 80 62 00
        E 0 80 63 00
        E 0 80 64 00
        E 0 80 65 00
        E 0 8f 51 00
        E 0 8f 69 00
        E 120 90 48 67
        E 0 90 49 66
        E 0 90 4a 64
        E 0 90 4b 64
        E 0 90 4c 64
        E 0 90 4d 65
        E 0 90 60 67
        E 0 90 61 66
        E 0 90 62 64
        E 0 90 63 64
        E 0 90 64 64
        E 0 90 65 65
        E 0 9d 51 64
        E 0 9d 69 64
        E 120 80 48 00
        E 0 80 49 00
        E 0 80 4a 00
        E 0 80 4b 00
        E 0 80 4c 00
        E 0 80 4d 00
        E 0 80 60 00
        E 0 80 61 00
        E 0 80 62 00
        E 0 80 63 00
        E 0 80 64 00
        E 0 80 65 00
        E 0 8d 51 00
        E 0 8d 69 00
        E 120 90 18 67
        E 0 90 30 67
        E 0 90 31 66
        E 0 90 48 67
        E 0 90 49 66
        E 0 90 4a 64
        E 0 90 4b 64
        E 0 90 4c 64
        E 0 90 4d 65
        E 0 90 60 67
        E 0 90 61 66
        E 0 90 62 64
        E 0 90 63 64
        E 0 90 64 64
        E 0 90 65 65
        E 0 9f 51 64
        E 0 9f 69 64
        E 120 80 18 00
        E 0 80 30 00
        E 0 80 31 00
        E 0 80 48 00
        E 0 80 49 00
        E 0 80 4a 00
        E 0 80 4b 00
        E 0 80 4c 00
        E 0 80 4d 00
        E 0 80 60 00
        E 0 80 61 00
        E 0 80 62 00
        E 0 80 63 00
        E 0 80 64 00
        E 0 80 65 00
        E 0 8f 51 00
        E 0 8f 69 00
        E 120 90 48 67
        E 0 90 49 66
        E 0 90 4a 64
        E 0 90 4b 64
        E 0 90 4c 64
        E 0 90 4d 65
        E 0 90 60 67
        E 0 90 61 66
        E 0 90 62 64
        E 0 90 63 64
        E 0 90 64 64
        E 0 90 65 65
        E 0 9d 51 64
        E 0 9d 69 64
        E 120 80 48 00
        E 0 80 49 00
        E 0 80 4a 00
        E 0 80 4b 00
        E 0 80 4c 00
        E 0 80 4d 00
        E 0 80 60 00
        E 0 80 61 00
        E 0 80 62 00
        E 0 80 63 00
        E 0 80 64 00
        E 0 80 65 00
        E 0 8d 51 00
        E 0 8d 69 00
        E 120 90 18 67
        E 0 90 30 67
        E 0 90 31 66
        E 0 90 48 67
        E 0 90 49 66
        E 0 90 4a 64
        E 0 90 4b 64
        E 0 90 4c 64
        E 0 90 4d 65
        E 0 90 60 67
        E 0 90 61 66
        E 0 90 62 64
        E 0 90 63 64
        E 0 90 64 64
        E 0 90 65 65
        E 0 9f 51 64
        E 0 9f 69 64
        E 120 80 18 00
        E 0 80 30 00
        E 0 80 31 00
        E 0 80 48 00
        E 0 80 49 00
        E 0 80 4a 00
        E 0 80 4b 00
        E 0 80 4c 00
        E 0 80 4d 00
        E 0 80 60 00
        E 0 80 61 00
        E 0 80 62 00
        E 0 80 63 00
        E 0 80 64 00
        E 0 80 65 00
        E 0 8f 51 00
        E 0 8f 69 00
        E 120 90 48 67
        E 0 90 49 66
        E 0 90 4a 64
        E 0 90 4b 64
        E 0 90 4c 64
        E 0 90 4d 65
        E 0 90 60 67
        E 0 90 61 66
        E 0 90 62 64
        E 0 90 63 64
        E 0 90 64 64
        E 0 90 65 65
        E 0 9d 51 64
        E 0 9d 69 64
        E 120 80 48 00
        E 0 80 49 00
        E 0 80 4a 00
        E 0 80 4b 00
        E 0 80 4c 00
        E 0 80 4d 00
        E 0 80 60 00
        E 0 80 61 00
        E 0 80 62 00
        E 0 80 63 00
        E 0 80 64 00
        E 0 80 65 00
        E 0 8d 51 00
        E 0 8d 69 00
        E 120 90 30 67
        E 0 90 31 66
        E 0 90 48 67
        E 0 90 49 66
        E 0 90 4a 64
        E 0 90 4b 64
        E 0 90 4c 64
        E 0 90 4d 65
        E 0 90 60 67
        E 0 90 61 66
        E 0 90 62 64
        E 0 90 63 64
        E 0 90 64 64
        E 0 90 65 65
        E 0 9f 51 64
        E 0 9f 69 64
        E 120 80 30 00
        E 0 80 31 00
        E 0 80 48 00
        E 0 80 49 00
        E 0 80 4a 00
        E 0 80 4b 00
        E 0 80 4c 00
        E 0 80 4d 00
        E 0 80 60 00
        E 0 80 61 00
        E 0 80 62 00
        E 0 80 63 00
        E 0 80 64 00
        E 0 80 65 00
        E 0 8f 51 00
        E 0 8f 69 00
        E 120 93 49 67
        E 0 93 4a 66
        E 0 93 4b 64
        E 0 93 4c 65
        E 0 93 4d 64
        E 0 93 61 67
        E 0 93 62 66
        E 0 93 63 64
        E 0 93 64 65
        E 0 93 65 64
        E 120 83 49 00
        E 0 83 4a 00
        E 0 83 4b 00
        E 0 83 4c 00
        E 0 83 4d 00
        E 0 83 61 00
        E 0 83 62 00
        E 0 83 63 00
        E 0 83 64 00
        E 0 83 65 00
        <X 120 0
          /wFbZW5kX3BnIHNvbmdfdHJhaW5lcl9wZ18zXQ==
        >
        <X 0 0
          /wFbYmVnaW5fcGcgc29uZ190cmFpbmVyX3BnXzRd
        >
        E 0 90 0c 64
        E 0 90 31 67
        E 0 90 32 66
        E 0 90 49 67
        E 0 90 4a 66
        E 0 90 4b 64
        E 0 90 4c 65
        E 0 90 4d 64
        E 0 90 61 67
        E 0 90 62 66
        E 0 90 63 64
        E 0 90 64 65
        E 0 90 65 64
        E 0 9f 51 64
        E 0 9f 69 64
        E 120 80 0c 00
        E 0 80 31 00
        E 0 80 32 00
        E 240 80 49 00
        E 0 80 4a 00
        E 0 80 4b 00
        E 0 80 4c 00
        E 0 80 4d 00
        E 0 80 61 00
        E 0 80 62 00
        E 0 80 63 00
        E 0 80 64 00
        E 0 80 65 00
        E 0 8f 51 00
        E 0 8f 69 00
        E 120 90 31 67
        E 0 90 32 66
        E 0 90 49 67
        E 0 90 4a 66
        E 0 90 4b 64
        E 0 90 4c 65
        E 0 90 4d 64
        E 0 90 61 67
        E 0 90 62 66
        E 0 90 63 64
        E 0 90 64 65
        E 0 90 65 64
        E 0 9f 51 64
        E 0 9f 69 64
        E 120 80 31 00
        E 0 80 32 00
        E 240 80 49 00
        E 0 80 4a 00
        E 0 80 4b 00
        E 0 80 4c 00
        E 0 80 4d 00
        E 0 80 61 00
        E 0 80 62 00
        E 0 80 63 00
        E 0 80 64 00
        E 0 80 65 00
        E 0 8f 51 00
        E 0 8f 69 00
        E 120 90 19 67
        E 0 90 31 67
        E 0 90 32 66
        E 0 90 49 67
        E 0 90 4a 66
        E 0 90 4b 64
        E 0 90 4c 65
        E 0 90 4d 64
        E 0 90 61 67
        E 0 90 62 66
        E 0 90 63 64
        E 0 90 64 65
        E 0 90 65 64
        E 0 9f 51 64
        E 0 9f 69 64
        E 120 80 19 00
        E 0 80 31 00
        E 0 80 32 00
        E 240 80 49 00
        E 0 80 4a 00
        E 0 80 4b 00
        E 0 80 4c 00
        E 0 80 4d 00
        E 0 80 61 00
        E 0 80 62 00
        E 0 80 63 00
        E 0 80 64 00
        E 0 80 65 00
        E 0 8f 51 00
        E 0 8f 69 00
        E 120 90 19 67
        E 0 90 31 67
        E 0 90 32 66
        E 0 90 49 67
        E 0 90 4a 66
        E 0 90 4b 64
        E 0 90 4c 65
        E 0 90 4d 64
        E 0 90 61 67
        E 0 90 62 66
        E 0 90 63 64
        E 0 90 64 65
        E 0 90 65 64
        E 0 9f 51 64
        E 0 9f 69 64
        E 120 80 19 00
        E 0 80 31 00
        E 0 80 32 00
        E 0 80 49 00
        E 0 80 4a 00
        E 0 80 4b 00
        E 0 80 4c 00
        E 0 80 4d 00
        E 0 80 61 00
        E 0 80 62 00
        E 0 80 63 00
        E 0 80 64 00
        E 0 80 65 00
        E 0 8f 51 00
        E 0 8f 69 00
        E 120 90 49 67
        E 0 90 4a 66
        E 0 90 4b 64
        E 0 90 4c 65
        E 0 90 4d 64
        E 0 90 61 67
        E 0 90 62 66
        E 0 90 63 64
        E 0 90 64 65
        E 0 90 65 64
        E 0 9d 51 64
        E 0 9d 69 64
        E 120 80 49 00
        E 0 80 4a 00
        E 0 80 4b 00
        E 0 80 4c 00
        E 0 80 4d 00
        E 0 80 61 00
        E 0 80 62 00
        E 0 80 63 00
        E 0 80 64 00
        E 0 80 65 00
        E 0 8d 51 00
        E 0 8d 69 00
        <X 120 0
          /wFbcGdfbm9ybSBzb25nX3RyYWluZXJfcGdfNF0=
        >
        E 0 90 19 67
        E 0 90 31 67
        E 0 90 32 66
        E 0 90 49 67
        E 0 90 4a 66
        E 0 90 4b 64
        E 0 90 4c 65
        E 0 90 4d 64
        E 0 90 61 67
        E 0 90 62 66
        E 0 90 63 64
        E 0 90 64 65
        E 0 90 65 64
        E 0 9f 51 64
        E 0 9f 69 64
        E 120 80 19 00
        E 0 80 31 00
        E 0 80 32 00
        E 0 80 49 00
        E 0 80 4a 00
        E 0 80 4b 00
        E 0 80 4c 00
        E 0 80 4d 00
        E 0 80 61 00
        E 0 80 62 00
        E 0 80 63 00
        E 0 80 64 00
        E 0 80 65 00
        E 0 8f 51 00
        E 0 8f 69 00
        E 120 90 49 67
        E 0 90 4a 66
        E 0 90 4b 64
        E 0 90 4c 65
        E 0 90 4d 64
        E 0 90 61 67
        E 0 90 62 66
        E 0 90 63 64
        E 0 90 64 65
        E 0 90 65 64
        E 0 9d 51 64
        E 0 9d 69 64
        E 120 80 49 00
        E 0 80 4a 00
        E 0 80 4b 00
        E 0 80 4c 00
        E 0 80 4d 00
        E 0 80 61 00
        E 0 80 62 00
        E 0 80 63 00
        E 0 80 64 00
        E 0 80 65 00
        E 0 8d 51 00
        E 0 8d 69 00
        E 120 90 31 67
        E 0 90 32 66
        E 0 90 49 67
        E 0 90 4a 66
        E 0 90 4b 64
        E 0 90 4c 65
        E 0 90 4d 64
        E 0 90 61 67
        E 0 90 62 66
        E 0 90 63 64
        E 0 90 64 65
        E 0 90 65 64
        E 0 9f 51 64
        E 0 9f 69 64
        E 120 80 31 00
        E 0 80 32 00
        E 240 80 49 00
        E 0 80 4a 00
        E 0 80 4b 00
        E 0 80 4c 00
        E 0 80 4d 00
        E 0 80 61 00
        E 0 80 62 00
        E 0 80 63 00
        E 0 80 64 00
        E 0 80 65 00
        E 0 8f 51 00
        E 0 8f 69 00
        E 120 90 31 67
        E 0 90 32 66
        E 0 90 49 67
        E 0 90 4a 66
        E 0 90 4b 64
        E 0 90 4c 65
        E 0 90 4d 64
        E 0 90 61 67
        E 0 90 62 66
        E 0 90 63 64
        E 0 90 64 65
        E 0 90 65 64
        E 0 9f 51 64
        E 0 9f 69 64
        E 120 80 31 00
        E 0 80 32 00
        E 0 80 49 00
        E 0 80 4a 00
        E 0 80 4b 00
        E 0 80 4c 00
        E 0 80 4d 00
        E 0 80 61 00
        E 0 80 62 00
        E 0 80 63 00
        E 0 80 64 00
        E 0 80 65 00
        E 0 8f 51 00
        E 0 8f 69 00
        E 120 90 31 67
        E 0 90 32 66
        E 0 90 49 67
        E 0 90 4a 66
        E 0 90 4b 64
        E 0 90 4c 65
        E 0 90 4d 64
        E 0 90 61 67
        E 0 90 62 66
        E 0 90 63 64
        E 0 90 64 65
        E 0 90 65 64
        E 0 9d 51 64
        E 0 9d 69 64
        E 120 80 31 00
        E 0 80 32 00
        E 0 80 49 00
        E 0 80 4a 00
        E 0 80 4b 00
        E 0 80 4c 00
        E 0 80 4d 00
        E 0 80 61 00
        E 0 80 62 00
        E 0 80 63 00
        E 0 80 64 00
        E 0 80 65 00
        E 0 8d 51 00
        E 0 8d 69 00
        E 120 90 31 67
        E 0 90 32 66
        E 0 90 49 67
        E 0 90 4a 66
        E 0 90 4b 64
        E 0 90 4c 65
        E 0 90 4d 64
        E 0 90 61 67
        E 0 90 62 66
        E 0 90 63 64
        E 0 90 64 65
        E 0 90 65 64
        E 0 9f 51 64
        E 0 9f 69 64
        E 120 80 31 00
        E 0 80 32 00
        E 0 80 49 00
        E 0 80 4a 00
        E 0 80 4b 00
        E 0 80 4c 00
        E 0 80 4d 00
        E 0 80 61 00
        E 0 80 62 00
        E 0 80 63 00
        E 0 80 64 00
        E 0 80 65 00
        E 0 8f 51 00
        E 0 8f 69 00
        E 120 90 6c 66
        E 0 93 4a 64
        E 0 93 4b 66
        E 0 93 4c 67
        E 0 93 4d 66
        E 0 93 62 64
        E 0 93 63 66
        E 0 93 64 67
        E 0 93 65 66
        E 120 80 6c 00
        E 0 83 4a 00
        E 0 83 4b 00
        E 0 83 4c 00
        E 0 83 4d 00
        E 0 83 62 00
        E 0 83 63 00
        E 0 83 64 00
        E 0 83 65 00
        E 120 90 0e 64
        E 0 90 33 66
        E 0 90 34 67
        E 0 90 4a 64
        E 0 90 4b 66
        E 0 90 4c 67
        E 0 90 4d 66
        E 0 90 62 64
        E 0 90 63 66
        E 0 90 64 67
        E 0 90 65 66
        E 0 9f 51 64
        E 0 9f 69 64
        E 120 80 0e 00
        E 0 80 33 00
        E 0 80 34 00
        E 240 80 4a 00
        E 0 80 4b 00
        E 0 80 4c 00
        E 0 80 4d 00
        E 0 80 62 00
        E 0 80 63 00
        E 0 80 64 00
        E 0 80 65 00
        E 0 8f 51 00
        E 0 8f 69 00
        E 120 90 33 66
        E 0 90 34 67
        E 0 90 4a 64
        E 0 90 4b 66
        E 0 90 4c 67
        E 0 90 4d 66
        E 0 90 62 64
        E 0 90 63 66
        E 0 90 64 67
        E 0 90 65 66
        E 0 9f 51 64
        E 0 9f 69 64
        E 120 80 33 00
        E 0 80 34 00
        E 240 80 4a 00
        E 0 80 4b 00
        E 0 80 4c 00
        E 0 80 4d 00
        E 0 80 62 00
        E 0 80 63 00
        E 0 80 64 00
        E 0 80 65 00
        E 0 8f 51 00
        E 0 8f 69 00
        E 120 90 33 66
        E 0 90 34 67
        E 0 90 4a 64
        E 0 90 4b 66
        E 0 90 4c 67
        E 0 90 4d 66
        E 0 90 62 64
        E 0 90 63 66
        E 0 90 64 67
        E 0 90 65 66
        E 0 9f 51 64
        E 0 9f 69 64
        E 120 80 33 00
        E 0 80 34 00
        E 240 80 4a 00
        E 0 80 4b 00
        E 0 80 4c 00
        E 0 80 4d 00
        E 0 80 62 00
        E 0 80 63 00
        E 0 80 64 00
        E 0 80 65 00
        E 0 8f 51 00
        E 0 8f 69 00
        E 120 90 33 66
        E 0 90 34 67
        E 0 90 4a 64
        E 0 90 4b 66
        E 0 90 4c 67
        E 0 90 4d 66
        E 0 90 62 64
        E 0 90 63 66
        E 0 90 64 67
        E 0 90 65 66
        E 0 9f 51 64
        E 0 9f 69 64
        E 120 80 33 00
        E 0 80 34 00
        E 0 80 4a 00
        E 0 80 4b 00
        E 0 80 4c 00
        E 0 80 4d 00
        E 0 80 62 00
        E 0 80 63 00
        E 0 80 64 00
        E 0 80 65 00
        E 0 8f 51 00
        E 0 8f 69 00
        E 120 90 4a 64
        E 0 90 4b 66
        E 0 90 4c 67
        E 0 90 4d 66
        E 0 90 62 64
        E 0 90 63 66
        E 0 90 64 67
        E 0 90 65 66
        E 0 9d 51 64
        E 0 9d 69 64
        E 120 80 4a 00
        E 0 80 4b 00
        E 0 80 4c 00
        E 0 80 4d 00
        E 0 80 62 00
        E 0 80 63 00
        E 0 80 64 00
        E 0 80 65 00
        E 0 8d 51 00
        E 0 8d 69 00
        E 120 90 33 66
        E 0 90 34 67
        E 0 90 4a 64
        E 0 90 4b 66
        E 0 90 4c 67
        E 0 90 4d 66
        E 0 90 62 64
        E 0 90 63 66
        E 0 90 64 67
        E 0 90 65 66
        E 0 9f 51 64
        E 0 9f 69 64
        E 120 80 33 00
        E 0 80 34 00
        E 0 80 4a 00
        E 0 80 4b 00
        E 0 80 4c 00
        E 0 80 4d 00
        E 0 80 62 00
        E 0 80 63 00
        E 0 80 64 00
        E 0 80 65 00
        E 0 8f 51 00
        E 0 8f 69 00
        E 120 90 33 66
        E 0 90 34 67
        E 0 90 4a 64
        E 0 90 4b 66
        E 0 90 4c 67
        E 0 90 4d 66
        E 0 90 62 64
        E 0 90 63 66
        E 0 90 64 67
        E 0 90 65 66
        E 0 9d 51 64
        E 0 9d 69 64
        E 120 80 33 00
        E 0 80 34 00
        E 0 80 4a 00
        E 0 80 4b 00
        E 0 80 4c 00
        E 0 80 4d 00
        E 0 80 62 00
        E 0 80 63 00
        E 0 80 64 00
        E 0 80 65 00
        E 0 8d 51 00
        E 0 8d 69 00
        E 120 90 33 66
        E 0 90 34 67
        E 0 90 4a 64
        E 0 90 4b 66
        E 0 90 4c 67
        E 0 90 4d 66
        E 0 90 62 64
        E 0 90 63 66
        E 0 90 64 67
        E 0 90 65 66
        E 0 9f 51 64
        E 0 9f 69 64
        E 120 80 33 00
        E 0 80 34 00
        E 240 80 4a 00
        E 0 80 4b 00
        E 0 80 4c 00
        E 0 80 4d 00
        E 0 80 62 00
        E 0 80 63 00
        E 0 80 64 00
        E 0 80 65 00
        E 0 8f 51 00
        E 0 8f 69 00
        E 120 90 33 66
        E 0 90 34 67
        E 0 90 4a 64
        E 0 90 4b 66
        E 0 90 4c 67
        E 0 90 4d 66
        E 0 90 62 64
        E 0 90 63 66
        E 0 90 64 67
        E 0 90 65 66
        E 0 9f 51 64
        E 0 9f 69 64
        E 120 80 33 00
        E 0 80 34 00
        E 240 80 4a 00
        E 0 80 4b 00
        E 0 80 4c 00
        E 0 80 4d 00
        E 0 80 62 00
        E 0 80 63 00
        E 0 80 64 00
        E 0 80 65 00
        E 0 8f 51 00
        E 0 8f 69 00
        E 120 90 6c 65
        E 0 93 31 67
        E 0 93 32 66
        E 0 93 49 67
        E 0 93 4a 66
        E 0 93 4b 64
        E 0 93 4c 65
        E 0 93 4d 64
        E 0 93 61 67
        E 0 93 62 66
        E 0 93 63 64
        E 0 93 64 65
        E 0 93 65 64
        E 120 80 6c 00
        E 0 83 31 00
        E 0 83 32 00
        E 0 83 49 00
        E 0 83 4a 00
        E 0 83 4b 00
        E 0 83 4c 00
        E 0 83 4d 00
        E 0 83 61 00
        E 0 83 62 00
        E 0 83 63 00
        E 0 83 64 00
        E 0 83 65 00
        E 120 93 49 67
        E 0 93 4a 66
        E 0 93 4b 64
        E 0 93 4c 65
        E 0 93 4d 64
        E 0 93 61 67
        E 0 93 62 66
        E 0 93 63 64
        E 0 93 64 65
        E 0 93 65 64
        E 120 83 49 00
        E 0 83 4a 00
        E 0 83 4b 00
        E 0 83 4c 00
        E 0 83 4d 00
        E 0 83 61 00
        E 0 83 62 00
        E 0 83 63 00
        E 0 83 64 00
        E 0 83 65 00
        <X 120 0
          /wFbYmVnaW5fcGcgc29uZ190cmFpbmVyX3BnXzVd
        >
        <X 0 0
          /wFbZW5kX3BnIHNvbmdfdHJhaW5lcl9wZ180XQ==
        >
        E 0 90 0c 64
        E 0 90 31 67
        E 0 90 32 66
        E 0 90 49 67
        E 0 90 4a 66
        E 0 90 4b 64
        E 0 90 4c 65
        E 0 90 4d 64
        E 0 90 61 67
        E 0 90 62 66
        E 0 90 63 64
        E 0 90 64 65
        E 0 90 65 64
        E 0 90 74 60
        E 0 9f 51 64
        E 0 9f 69 64
        E 120 80 0c 00
        E 0 80 31 00
        E 0 80 32 00
        E 240 80 49 00
        E 0 80 4a 00
        E 0 80 4b 00
        E 0 80 4c 00
        E 0 80 4d 00
        E 0 80 61 00
        E 0 80 62 00
        E 0 80 63 00
        E 0 80 64 00
        E 0 80 65 00
        E 0 8f 51 00
        E 0 8f 69 00
        E 120 90 31 67
        E 0 90 32 66
        E 0 90 49 67
        E 0 90 4a 66
        E 0 90 4b 64
        E 0 90 4c 65
        E 0 90 4d 64
        E 0 90 61 67
        E 0 90 62 66
        E 0 90 63 64
        E 0 90 64 65
        E 0 90 65 64
        E 0 9f 51 64
        E 0 9f 69 64
        E 120 80 31 00
        E 0 80 32 00
        E 240 80 49 00
        E 0 80 4a 00
        E 0 80 4b 00
        E 0 80 4c 00
        E 0 80 4d 00
        E 0 80 61 00
        E 0 80 62 00
        E 0 80 63 00
        E 0 80 64 00
        E 0 80 65 00
        E 0 8f 51 00
        E 0 8f 69 00
        E 120 90 19 67
        E 0 90 31 67
        E 0 90 32 66
        E 0 90 49 67
        E 0 90 4a 66
        E 0 90 4b 64
        E 0 90 4c 65
        E 0 90 4d 64
        E 0 90 61 67
        E 0 90 62 66
        E 0 90 63 64
        E 0 90 64 65
        E 0 90 65 64
        E 0 9f 51 64
        E 0 9f 69 64
        E 120 80 19 00
        E 0 80 31 00
        E 0 80 32 00
        E 240 80 49 00
        E 0 80 4a 00
        E 0 80 4b 00
        E 0 80 4c 00
        E 0 80 4d 00
        E 0 80 61 00
        E 0 80 62 00
        E 0 80 63 00
        E 0 80 64 00
        E 0 80 65 00
        E 0 8f 51 00
        E 0 8f 69 00
        E 120 90 19 67
        E 0 90 31 67
        E 0 90 32 66
        E 0 90 49 67
        E 0 90 4a 66
        E 0 90 4b 64
        E 0 90 4c 65
        E 0 90 4d 64
        E 0 90 61 67
        E 0 90 62 66
        E 0 90 63 64
        E 0 90 64 65
        E 0 90 65 64
        E 0 9f 51 64
        E 0 9f 69 64
        E 120 80 19 00
        E 0 80 31 00
        E 0 80 32 00
        E 0 80 49 00
        E 0 80 4a 00
        E 0 80 4b 00
        E 0 80 4c 00
        E 0 80 4d 00
        E 0 80 61 00
        E 0 80 62 00
        E 0 80 63 00
        E 0 80 64 00
        E 0 80 65 00
        E 0 8f 51 00
        E 0 8f 69 00
        E 120 90 49 67
        E 0 90 4a 66
        E 0 90 4b 64
        E 0 90 4c 65
        E 0 90 4d 64
        E 0 90 61 67
        E 0 90 62 66
        E 0 90 63 64
        E 0 90 64 65
        E 0 90 65 64
        E 0 9d 51 64
        E 0 9d 69 64
        E 120 80 49 00
        E 0 80 4a 00
        E 0 80 4b 00
        E 0 80 4c 00
        E 0 80 4d 00
        E 0 80 61 00
        E 0 80 62 00
        E 0 80 63 00
        E 0 80 64 00
        E 0 80 65 00
        E 0 8d 51 00
        E 0 8d 69 00
        <X 120 0
          /wFbcGdfbm9ybSBzb25nX3RyYWluZXJfcGdfNV0=
        >
        E 0 90 19 67
        E 0 90 31 67
        E 0 90 32 66
        E 0 90 49 67
        E 0 90 4a 66
        E 0 90 4b 64
        E 0 90 4c 65
        E 0 90 4d 64
        E 0 90 61 67
        E 0 90 62 66
        E 0 90 63 64
        E 0 90 64 65
        E 0 90 65 64
        E 0 9f 51 64
        E 0 9f 69 64
        E 120 80 19 00
        E 0 80 31 00
        E 0 80 32 00
        E 0 80 49 00
        E 0 80 4a 00
        E 0 80 4b 00
        E 0 80 4c 00
        E 0 80 4d 00
        E 0 80 61 00
        E 0 80 62 00
        E 0 80 63 00
        E 0 80 64 00
        E 0 80 65 00
        E 0 8f 51 00
        E 0 8f 69 00
        E 120 90 49 67
        E 0 90 4a 66
        E 0 90 4b 64
        E 0 90 4c 65
        E 0 90 4d 64
        E 0 90 61 67
        E 0 90 62 66
        E 0 90 63 64
        E 0 90 64 65
        E 0 90 65 64
        E 0 9d 51 64
        E 0 9d 69 64
        E 120 80 49 00
        E 0 80 4a 00
        E 0 80 4b 00
        E 0 80 4c 00
        E 0 80 4d 00
        E 0 80 61 00
        E 0 80 62 00
        E 0 80 63 00
        E 0 80 64 00
        E 0 80 65 00
        E 0 8d 51 00
        E 0 8d 69 00
        E 120 90 31 67
        E 0 90 32 66
        E 0 90 49 67
        E 0 90 4a 66
        E 0 90 4b 64
        E 0 90 4c 65
        E 0 90 4d 64
        E 0 90 61 67
        E 0 90 62 66
        E 0 90 63 64
        E 0 90 64 65
        E 0 90 65 64
        E 0 9f 51 64
        E 0 9f 69 64
        E 120 80 31 00
        E 0 80 32 00
        E 240 80 49 00
        E 0 80 4a 00
        E 0 80 4b 00
        E 0 80 4c 00
        E 0 80 4d 00
        E 0 80 61 00
        E 0 80 62 00
        E 0 80 63 00
        E 0 80 64 00
        E 0 80 65 00
        E 0 8f 51 00
        E 0 8f 69 00
        E 120 90 31 67
        E 0 90 32 66
        E 0 90 49 67
        E 0 90 4a 66
        E 0 90 4b 64
        E 0 90 4c 65
        E 0 90 4d 64
        E 0 90 61 67
        E 0 90 62 66
        E 0 90 63 64
        E 0 90 64 65
        E 0 90 65 64
        E 0 9f 51 64
        E 0 9f 69 64
        E 120 80 31 00
        E 0 80 32 00
        E 0 80 49 00
        E 0 80 4a 00
        E 0 80 4b 00
        E 0 80 4c 00
        E 0 80 4d 00
        E 0 80 61 00
        E 0 80 62 00
        E 0 80 63 00
        E 0 80 64 00
        E 0 80 65 00
        E 0 8f 51 00
        E 0 8f 69 00
        E 120 90 49 67
        E 0 90 4a 66
        E 0 90 4b 64
        E 0 90 4c 65
        E 0 90 4d 64
        E 0 90 61 67
        E 0 90 62 66
        E 0 90 63 64
        E 0 90 64 65
        E 0 90 65 64
        E 0 9d 51 64
        E 0 9d 69 64
        E 120 80 49 00
        E 0 80 4a 00
        E 0 80 4b 00
        E 0 80 4c 00
        E 0 80 4d 00
        E 0 80 61 00
        E 0 80 62 00
        E 0 80 63 00
        E 0 80 64 00
        E 0 80 65 00
        E 0 8d 51 00
        E 0 8d 69 00
        E 120 90 31 67
        E 0 90 32 66
        E 0 90 49 67
        E 0 90 4a 66
        E 0 90 4b 64
        E 0 90 4c 65
        E 0 90 4d 64
        E 0 90 61 67
        E 0 90 62 66
        E 0 90 63 64
        E 0 90 64 65
        E 0 90 65 64
        E 120 80 31 00
        E 0 80 32 00
        E 0 80 49 00
        E 0 80 4a 00
        E 0 80 4b 00
        E 0 80 4c 00
        E 0 80 4d 00
        E 0 80 61 00
        E 0 80 62 00
        E 0 80 63 00
        E 0 80 64 00
        E 0 80 65 00
        E 360 90 0e 64
        E 0 90 33 66
        E 0 90 34 67
        E 0 90 4a 64
        E 0 90 4b 66
        E 0 90 4c 67
        E 0 90 4d 66
        E 0 90 62 64
        E 0 90 63 66
        E 0 90 64 67
        E 0 90 65 66
        E 0 90 6c 66
        E 0 9f 51 64
        E 0 9f 69 64
        E 120 80 74 00
        E 0 80 0e 00
        E 0 80 6c 00
        E 3240 80 33 00
        E 0 80 34 00
        E 0 80 4a 00
        E 0 80 4b 00
        E 0 80 4c 00
        E 0 80 4d 00
        E 0 80 62 00
        E 0 80 63 00
        E 0 80 64 00
        E 0 80 65 00
        E 0 8f 51 00
        E 0 8f 69 00
        E 480 90 33 66
        E 0 90 34 65
        E 0 90 4a 64
        E 0 90 4b 66
        E 0 90 4c 65
        E 0 90 4d 66
        E 0 90 62 64
        E 0 90 63 66
        E 0 90 64 65
        E 0 90 65 66
        E 0 90 6c 65
        E 0 9f 51 64
        E 0 9f 69 64
        E 120 80 6c 00
        E 3240 80 33 00
        E 0 80 34 00
        E 0 80 4a 00
        E 0 80 4b 00
        E 0 80 4c 00
        E 0 80 4d 00
        E 0 80 62 00
        E 0 80 63 00
        E 0 80 64 00
        E 0 80 65 00
        E 0 8f 51 00
        E 0 8f 69 00
        E 240 90 6c 66
        E 0 93 48 67
        E 0 93 49 66
        E 0 93 4a 64
        E 0 93 4b 64
        E 0 93 4c 64
        E 0 93 4d 67
        E 0 93 60 67
        E 0 93 61 66
        E 0 93 62 64
        E 0 93 63 64
        E 0 93 64 64
        E 0 93 65 67
        E 120 80 6c 00
        E 0 83 48 00
        E 0 83 49 00
        E 0 83 4a 00
        E 0 83 4b 00
        E 0 83 4c 00
        E 0 83 4d 00
        E 0 83 60 00
        E 0 83 61 00
        E 0 83 62 00
        E 0 83 63 00
        E 0 83 64 00
        E 0 83 65 00
        <X 120 0
          /wFbZW5kX3BnIHNvbmdfdHJhaW5lcl9wZ181XQ==
        >
        E 0 90 07 64
        E 0 90 18 67
        E 0 90 30 67
        E 0 90 31 66
        E 0 90 48 67
        E 0 90 49 66
        E 0 90 4a 64
        E 0 90 4b 64
        E 0 90 4c 64
        E 0 90 4d 67
        E 0 90 60 67
        E 0 90 61 66
        E 0 90 62 64
        E 0 90 63 64
        E 0 90 64 64
        E 0 90 65 67
        E 0 9f 51 64
        E 0 9f 69 64
        E 120 80 07 00
        E 0 80 18 00
        E 0 80 30 00
        E 0 80 31 00
        E 240 80 48 00
        E 0 80 49 00
        E 0 80 4a 00
        E 0 80 4b 00
        E 0 80 4c 00
        E 0 80 4d 00
        E 0 80 60 00
        E 0 80 61 00
        E 0 80 62 00
        E 0 80 63 00
        E 0 80 64 00
        E 0 80 65 00
        E 0 8f 51 00
        E 0 8f 69 00
        E 120 90 30 67
        E 0 90 31 66
        E 0 90 48 67
        E 0 90 49 66
        E 0 90 4a 64
        E 0 90 4b 64
        E 0 90 4c 64
        E 0 90 4d 67
        E 0 90 60 67
        E 0 90 61 66
        E 0 90 62 64
        E 0 90 63 64
        E 0 90 64 64
        E 0 90 65 67
        E 0 9f 51 64
        E 0 9f 69 64
        E 120 80 30 00
        E 0 80 31 00
        E 0 80 48 00
        E 0 80 49 00
        E 0 80 4a 00
        E 0 80 4b 00
        E 0 80 4c 00
        E 0 80 4d 00
        E 0 80 60 00
        E 0 80 61 00
        E 0 80 62 00
        E 0 80 63 00
        E 0 80 64 00
        E 0 80 65 00
        E 0 8f 51 00
        E 0 8f 69 00
        E 120 93 48 66
        E 0 93 49 66
        E 0 93 4a 64
        E 0 93 4b 64
        E 0 93 4c 64
        E 0 93 4d 67
        E 0 93 60 66
        E 0 93 61 66
        E 0 93 62 64
        E 0 93 63 64
        E 0 93 64 64
        E 0 93 65 67
        E 120 83 48 00
        E 0 83 49 00
        E 0 83 4a 00
        E 0 83 4b 00
        E 0 83 4c 00
        E 0 83 4d 00
        E 0 83 60 00
        E 0 83 61 00
        E 0 83 62 00
        E 0 83 63 00
        E 0 83 64 00
        E 0 83 65 00
        E 120 90 07 64
        E 0 90 10 64
        E 0 90 18 66
        E 0 90 30 66
        E 0 90 31 66
        E 0 90 48 66
        E 0 90 49 66
        E 0 90 4a 64
        E 0 90 4b 64
        E 0 90 4c 64
        E 0 90 4d 67
        E 0 90 60 66
        E 0 90 61 66
        E 0 90 62 64
        E 0 90 63 64
        E 0 90 64 64
        E 0 90 65 67
        E 0 9f 51 64
        E 0 9f 69 64
        E 120 80 07 00
        E 0 80 10 00
        E 0 80 18 00
        E 0 80 30 00
        E 0 80 31 00
        E 240 80 48 00
        E 0 80 49 00
        E 0 80 4a 00
        E 0 80 4b 00
        E 0 80 4c 00
        E 0 80 4d 00
        E 0 80 60 00
        E 0 80 61 00
        E 0 80 62 00
        E 0 80 63 00
        E 0 80 64 00
        E 0 80 65 00
        E 0 8f 51 00
        E 0 8f 69 00
        E 120 90 30 66
        E 0 90 31 66
        E 0 90 48 66
        E 0 90 49 66
        E 0 90 4a 64
        E 0 90 4b 64
        E 0 90 4c 64
        E 0 90 4d 67
        E 0 90 60 66
        E 0 90 61 66
        E 0 90 62 64
        E 0 90 63 64
        E 0 90 64 64
        E 0 90 65 67
        E 0 9f 51 64
        E 0 9f 69 64
        E 120 80 30 00
        E 0 80 31 00
        E 0 80 48 00
        E 0 80 49 00
        E 0 80 4a 00
        E 0 80 4b 00
        E 0 80 4c 00
        E 0 80 4d 00
        E 0 80 60 00
        E 0 80 61 00
        E 0 80 62 00
        E 0 80 63 00
        E 0 80 64 00
        E 0 80 65 00
        E 0 8f 51 00
        E 0 8f 69 00
        E 120 93 48 64
        E 0 93 49 66
        E 0 93 4a 66
        E 0 93 4b 64
        E 0 93 4c 64
        E 0 93 4d 64
        E 0 93 60 64
        E 0 93 61 66
        E 0 93 62 66
        E 0 93 63 64
        E 0 93 64 64
        E 0 93 65 64
        E 120 83 48 00
        E 0 83 49 00
        E 0 83 4a 00
        E 0 83 4b 00
        E 0 83 4c 00
        E 0 83 4d 00
        E 0 83 60 00
        E 0 83 61 00
        E 0 83 62 00
        E 0 83 63 00
        E 0 83 64 00
        E 0 83 65 00
        E 120 90 04 64
        E 0 90 19 66
        E 0 90 31 66
        E 0 90 32 66
        E 0 90 48 64
        E 0 90 49 66
        E 0 90 4a 66
        E 0 90 4b 64
        E 0 90 4c 64
        E 0 90 4d 64
        E 0 90 60 64
        E 0 90 61 66
        E 0 90 62 66
        E 0 90 63 64
        E 0 90 64 64
        E 0 90 65 64
        E 0 9f 51 64
        E 0 9f 69 64
        E 120 80 04 00
        E 0 80 19 00
        E 0 80 31 00
        E 0 80 32 00
        E 240 80 48 00
        E 0 80 49 00
        E 0 80 4a 00
        E 0 80 4b 00
        E 0 80 4c 00
        E 0 80 4d 00
        E 0 80 60 00
        E 0 80 61 00
        E 0 80 62 00
        E 0 80 63 00
        E 0 80 64 00
        E 0 80 65 00
        E 0 8f 51 00
        E 0 8f 69 00
        E 120 90 19 66
        E 0 90 31 66
        E 0 90 32 66
        E 0 90 48 64
        E 0 90 49 66
        E 0 90 4a 66
        E 0 90 4b 64
        E 0 90 4c 64
        E 0 90 4d 64
        E 0 90 60 64
        E 0 90 61 66
        E 0 90 62 66
        E 0 90 63 64
        E 0 90 64 64
        E 0 90 65 64
        E 0 9f 51 64
        E 0 9f 69 64
        E 120 80 19 00
        E 0 80 31 00
        E 0 80 32 00
        E 240 80 48 00
        E 0 80 49 00
        E 0 80 4a 00
        E 0 80 4b 00
        E 0 80 4c 00
        E 0 80 4d 00
        E 0 80 60 00
        E 0 80 61 00
        E 0 80 62 00
        E 0 80 63 00
        E 0 80 64 00
        E 0 80 65 00
        E 0 8f 51 00
        E 0 8f 69 00
        E 120 90 19 66
        E 0 90 31 66
        E 0 90 32 66
        E 0 90 48 64
        E 0 90 49 66
        E 0 90 4a 66
        E 0 90 4b 64
        E 0 90 4c 64
        E 0 90 4d 64
        E 0 90 60 64
        E 0 90 61 66
        E 0 90 62 66
        E 0 90 63 64
        E 0 90 64 64
        E 0 90 65 64
        E 0 9f 51 64
        E 0 9f 69 64
        E 120 80 19 00
        E 0 80 31 00
        E 0 80 32 00
        E 0 80 60 00
        E 0 80 61 00
        E 0 80 62 00
        E 0 80 63 00
        E 0 80 64 00
        E 0 80 65 00
        E 0 8f 51 00
        E 0 8f 69 00
        E 120 90 60 64
        E 0 90 61 66
        E 0 90 62 66
        E 0 90 63 64
        E 0 90 64 64
        E 0 90 65 64
        E 0 9d 51 64
        E 0 9d 69 64
        E 120 80 48 00
        E 0 80 49 00
        E 0 80 4a 00
        E 0 80 4b 00
        E 0 80 4c 00
        E 0 80 4d 00
        E 0 80 60 00
        E 0 80 61 00
        E 0 80 62 00
        E 0 80 63 00
        E 0 80 64 00
        E 0 80 65 00
        E 0 8d 51 00
        E 0 8d 69 00
        E 120 90 31 66
        E 0 90 32 66
        E 0 90 48 64
        E 0 90 49 66
        E 0 90 4a 66
        E 0 90 4b 64
        E 0 90 4c 64
        E 0 90 4d 64
        E 0 90 60 64
        E 0 90 61 66
        E 0 90 62 66
        E 0 90 63 64
        E 0 90 64 64
        E 0 90 65 64
        E 0 9f 51 64
        E 0 9f 69 64
        E 120 80 31 00
        E 0 80 32 00
        E 0 80 48 00
        E 0 80 49 00
        E 0 80 4a 00
        E 0 80 4b 00
        E 0 80 4c 00
        E 0 80 4d 00
        E 0 80 60 00
        E 0 80 61 00
        E 0 80 62 00
        E 0 80 63 00
        E 0 80 64 00
        E 0 80 65 00
        E 0 8f 51 00
        E 0 8f 69 00
        E 120 90 6c 65
        E 0 93 49 67
        E 0 93 4a 66
        E 0 93 4b 64
        E 0 93 4c 65
        E 0 93 4d 64
        E 0 93 61 67
        E 0 93 62 66
        E 0 93 63 64
        E 0 93 64 65
        E 0 93 65 64
        E 120 80 6c 00
        E 0 83 49 00
        E 0 83 4a 00
        E 0 83 4b 00
        E 0 83 4c 00
        E 0 83 4d 00
        E 0 83 61 00
        E 0 83 62 00
        E 0 83 63 00
        E 0 83 64 00
        E 0 83 65 00
        E 120 90 0c 64
        E 0 90 31 67
        E 0 90 32 66
        E 0 90 49 67
        E 0 90 4a 66
        E 0 90 4b 64
        E 0 90 4c 65
        E 0 90 4d 64
        E 0 90 61 67
        E 0 90 62 66
        E 0 90 63 64
        E 0 90 64 65
        E 0 90 65 64
        E 0 9f 51 64
        E 0 9f 69 64
        E 120 80 0c 00
        E 0 80 31 00
        E 0 80 32 00
        E 240 80 49 00
        E 0 80 4a 00
        E 0 80 4b 00
        E 0 80 4c 00
        E 0 80 4d 00
        E 0 80 61 00
        E 0 80 62 00
        E 0 80 63 00
        E 0 80 64 00
        E 0 80 65 00
        E 0 8f 51 00
        E 0 8f 69 00
        E 120 90 31 67
        E 0 90 32 66
        E 0 90 49 67
        E 0 90 4a 66
        E 0 90 4b 64
        E 0 90 4c 65
        E 0 90 4d 64
        E 0 90 61 67
        E 0 90 62 66
        E 0 90 63 64
        E 0 90 64 65
        E 0 90 65 64
        E 0 9f 51 64
        E 0 9f 69 64
        E 120 80 31 00
        E 0 80 32 00
        E 0 80 49 00
        E 0 80 4a 00
        E 0 80 4b 00
        E 0 80 4c 00
        E 0 80 4d 00
        E 0 80 61 00
        E 0 80 62 00
        E 0 80 63 00
        E 0 80 64 00
        E 0 80 65 00
        E 0 8f 51 00
        E 0 8f 69 00
        E 120 93 49 67
        E 0 93 4a 66
        E 0 93 4b 64
        E 0 93 4c 65
        E 0 93 4d 64
        E 0 93 61 67
        E 0 93 62 66
        E 0 93 63 64
        E 0 93 64 65
        E 0 93 65 64
        E 120 83 49 00
        E 0 83 4a 00
        E 0 83 4b 00
        E 0 83 4c 00
        E 0 83 4d 00
        E 0 83 61 00
        E 0 83 62 00
        E 0 83 63 00
        E 0 83 64 00
        E 0 83 65 00
        E 120 90 0c 64
        E 0 90 10 64
        E 0 90 31 66
        E 0 90 32 66
        E 0 90 49 66
        E 0 90 4a 66
        E 0 90 4b 64
        E 0 90 4c 65
        E 0 90 4d 64
        E 0 90 61 66
        E 0 90 62 66
        E 0 90 63 64
        E 0 90 64 65
        E 0 90 65 64
        E 0 9f 51 64
        E 0 9f 69 64
        E 120 80 0c 00
        E 0 80 10 00
        E 0 80 31 00
        E 0 80 32 00
        E 0 80 49 00
        E 0 80 4a 00
        E 0 80 4b 00
        E 0 80 4c 00
        E 0 80 4d 00
        E 0 80 61 00
        E 0 80 62 00
        E 0 80 63 00
        E 0 80 64 00
        E 0 80 65 00
        E 0 8f 51 00
        E 0 8f 69 00
        E 120 90 31 66
        E 0 90 32 66
        E 0 90 49 66
        E 0 90 4a 66
        E 0 90 4b 64
        E 0 90 4c 65
        E 0 90 4d 64
        E 0 90 61 66
        E 0 90 62 66
        E 0 90 63 64
        E 0 90 64 65
        E 0 90 65 64
        E 0 9d 51 64
        E 0 9d 69 64
        E 120 80 31 00
        E 0 80 32 00
        E 0 80 49 00
        E 0 80 4a 00
        E 0 80 4b 00
        E 0 80 4c 00
        E 0 80 4d 00
        E 0 80 61 00
        E 0 80 62 00
        E 0 80 63 00
        E 0 80 64 00
        E 0 80 65 00
        E 0 8d 51 00
        E 0 8d 69 00
        E 120 90 31 66
        E 0 90 32 66
        E 0 90 49 66
        E 0 90 4a 66
        E 0 90 4b 64
        E 0 90 4c 65
        E 0 90 4d 64
        E 0 90 61 66
        E 0 90 62 66
        E 0 90 63 64
        E 0 90 64 65
        E 0 90 65 64
        E 0 9f 51 64
        E 0 9f 69 64
        E 120 80 31 00
        E 0 80 32 00
        E 0 80 49 00
        E 0 80 4a 00
        E 0 80 4b 00
        E 0 80 4c 00
        E 0 80 4d 00
        E 0 80 61 00
        E 0 80 62 00
        E 0 80 63 00
        E 0 80 64 00
        E 0 80 65 00
        E 0 8f 51 00
        E 0 8f 69 00
        E 120 93 49 66
        E 0 93 4a 66
        E 0 93 4b 64
        E 0 93 4c 65
        E 0 93 4d 64
        E 0 93 61 66
        E 0 93 62 66
        E 0 93 63 64
        E 0 93 64 65
        E 0 93 65 64
        E 120 83 49 00
        E 0 83 4a 00
        E 0 83 4b 00
        E 0 83 4c 00
        E 0 83 4d 00
        E 0 83 61 00
        E 0 83 62 00
        E 0 83 63 00
        E 0 83 64 00
        E 0 83 65 00
        E 120 90 09 64
        E 0 90 1a 66
        E 0 90 32 66
        E 0 90 33 66
        E 0 90 49 64
        E 0 90 4a 66
        E 0 90 4b 66
        E 0 90 4c 65
        E 0 90 4d 64
        E 0 90 61 64
        E 0 90 62 66
        E 0 90 63 66
        E 0 90 64 65
        E 0 90 65 64
        E 0 9f 51 64
        E 0 9f 69 64
        E 120 80 09 00
        E 0 80 1a 00
        E 0 80 32 00
        E 0 80 33 00
        E 240 80 49 00
        E 0 80 4a 00
        E 0 80 4b 00
        E 0 80 4c 00
        E 0 80 4d 00
        E 0 80 61 00
        E 0 80 62 00
        E 0 80 63 00
        E 0 80 64 00
        E 0 80 65 00
        E 0 8f 51 00
        E 0 8f 69 00
        E 120 90 1a 66
        E 0 90 32 66
        E 0 90 33 66
        E 0 90 49 64
        E 0 90 4a 66
        E 0 90 4b 66
        E 0 90 4c 65
        E 0 90 4d 64
        E 0 90 61 64
        E 0 90 62 66
        E 0 90 63 66
        E 0 90 64 65
        E 0 90 65 64
        E 0 9f 51 64
        E 0 9f 69 64
        E 120 80 1a 00
        E 0 80 32 00
        E 0 80 33 00
        E 0 80 49 00
        E 0 80 4a 00
        E 0 80 4b 00
        E 0 80 4c 00
        E 0 80 4d 00
        E 0 80 61 00
        E 0 80 62 00
        E 0 80 63 00
        E 0 80 64 00
        E 0 80 65 00
        E 0 8f 51 00
        E 0 8f 69 00
        E 120 90 49 64
        E 0 90 4a 66
        E 0 90 4b 66
        E 0 90 4c 65
        E 0 90 4d 64
        E 0 90 61 64
        E 0 90 62 66
        E 0 90 63 66
        E 0 90 64 65
        E 0 90 65 64
        E 0 9d 51 64
        E 0 9d 69 64
        E 120 80 49 00
        E 0 80 4a 00
        E 0 80 4b 00
        E 0 80 4c 00
        E 0 80 4d 00
        E 0 80 61 00
        E 0 80 62 00
        E 0 80 63 00
        E 0 80 64 00
        E 0 80 65 00
        E 0 8d 51 00
        E 0 8d 69 00
        E 120 90 1a 66
        E 0 90 32 66
        E 0 90 33 66
        E 0 90 49 64
        E 0 90 4a 66
        E 0 90 4b 66
        E 0 90 4c 65
        E 0 90 4d 64
        E 0 90 61 64
        E 0 90 62 66
        E 0 90 63 66
        E 0 90 64 65
        E 0 90 65 64
        E 0 9f 51 64
        E 0 9f 69 64
        E 120 80 1a 00
        E 0 80 32 00
        E 0 80 33 00
        E 0 80 49 00
        E 0 80 4a 00
        E 0 80 4b 00
        E 0 80 4c 00
        E 0 80 4d 00
        E 0 80 61 00
        E 0 80 62 00
        E 0 80 63 00
        E 0 80 64 00
        E 0 80 65 00
        E 0 8f 51 00
        E 0 8f 69 00
        E 120 90 49 64
        E 0 90 4a 66
        E 0 90 4b 66
        E 0 90 4c 64
        E 0 90 4d 64
        E 0 90 61 64
        E 0 90 62 66
        E 0 90 63 66
        E 0 90 64 64
        E 0 90 65 64
        E 0 9d 51 64
        E 0 9d 69 64
        E 120 80 49 00
        E 0 80 4a 00
        E 0 80 4b 00
        E 0 80 4c 00
        E 0 80 4d 00
        E 0 80 61 00
        E 0 80 62 00
        E 0 80 63 00
        E 0 80 64 00
        E 0 80 65 00
        E 0 8d 51 00
        E 0 8d 69 00
        E 120 90 1a 66
        E 0 90 32 66
        E 0 90 33 66
        E 0 90 49 64
        E 0 90 4a 66
        E 0 90 4b 66
        E 0 90 4c 64
        E 0 90 4d 64
        E 0 90 61 64
        E 0 90 62 66
        E 0 90 63 66
        E 0 90 64 64
        E 0 90 65 64
        E 0 9f 51 64
        E 0 9f 69 64
        E 120 80 1a 00
        E 0 80 32 00
        E 0 80 33 00
        E 0 80 49 00
        E 0 80 4a 00
        E 0 80 4b 00
        E 0 80 4c 00
        E 0 80 4d 00
        E 0 80 61 00
        E 0 80 62 00
        E 0 80 63 00
        E 0 80 64 00
        E 0 80 65 00
        E 0 8f 51 00
        E 0 8f 69 00
        E 120 90 6c 66
        E 0 93 48 67
        E 0 93 49 66
        E 0 93 4a 64
        E 0 93 4b 64
        E 0 93 4c 64
        E 0 93 4d 67
        E 0 93 60 67
        E 0 93 61 66
        E 0 93 62 64
        E 0 93 63 64
        E 0 93 64 64
        E 0 93 65 67
        E 120 80 6c 00
        E 0 83 48 00
        E 0 83 49 00
        E 0 83 4a 00
        E 0 83 4b 00
        E 0 83 4c 00
        E 0 83 4d 00
        E 0 83 60 00
        E 0 83 61 00
        E 0 83 62 00
        E 0 83 63 00
        E 0 83 64 00
        E 0 83 65 00
        E 120 90 07 64
        E 0 90 18 67
        E 0 90 30 67
        E 0 90 31 66
        E 0 90 48 67
        E 0 90 49 66
        E 0 90 4a 64
        E 0 90 4b 64
        E 0 90 4c 64
        E 0 90 4d 67
        E 0 90 60 67
        E 0 90 61 66
        E 0 90 62 64
        E 0 90 63 64
        E 0 90 64 64
        E 0 90 65 67
        E 0 9f 51 64
        E 0 9f 69 64
        E 120 80 07 00
        E 0 80 18 00
        E 0 80 30 00
        E 0 80 31 00
        E 240 80 48 00
        E 0 80 49 00
        E 0 80 4a 00
        E 0 80 4b 00
        E 0 80 4c 00
        E 0 80 4d 00
        E 0 80 60 00
        E 0 80 61 00
        E 0 80 62 00
        E 0 80 63 00
        E 0 80 64 00
        E 0 80 65 00
        E 0 8f 51 00
        E 0 8f 69 00
        E 120 90 30 67
        E 0 90 31 66
        E 0 90 48 67
        E 0 90 49 66
        E 0 90 4a 64
        E 0 90 4b 64
        E 0 90 4c 64
        E 0 90 4d 67
        E 0 90 60 67
        E 0 90 61 66
        E 0 90 62 64
        E 0 90 63 64
        E 0 90 64 64
        E 0 90 65 67
        E 0 9f 51 64
        E 0 9f 69 64
        E 120 80 30 00
        E 0 80 31 00
        E 0 80 48 00
        E 0 80 49 00
        E 0 80 4a 00
        E 0 80 4b 00
        E 0 80 4c 00
        E 0 80 4d 00
        E 0 80 60 00
        E 0 80 61 00
        E 0 80 62 00
        E 0 80 63 00
        E 0 80 64 00
        E 0 80 65 00
        E 0 8f 51 00
        E 0 8f 69 00
        E 120 93 48 66
        E 0 93 49 66
        E 0 93 4a 64
        E 0 93 4b 64
        E 0 93 4c 64
        E 0 93 4d 67
        E 0 93 60 66
        E 0 93 61 66
        E 0 93 62 64
        E 0 93 63 64
        E 0 93 64 64
        E 0 93 65 67
        E 120 83 48 00
        E 0 83 49 00
        E 0 83 4a 00
        E 0 83 4b 00
        E 0 83 4c 00
        E 0 83 4d 00
        E 0 83 60 00
        E 0 83 61 00
        E 0 83 62 00
        E 0 83 63 00
        E 0 83 64 00
        E 0 83 65 00
        E 120 90 07 64
        E 0 90 10 64
        E 0 90 18 66
        E 0 90 30 66
        E 0 90 31 66
        E 0 90 48 66
        E 0 90 49 66
        E 0 90 4a 64
        E 0 90 4b 64
        E 0 90 4c 64
        E 0 90 4d 67
        E 0 90 60 66
        E 0 90 61 66
        E 0 90 62 64
        E 0 90 63 64
        E 0 90 64 64
        E 0 90 65 67
        E 0 9f 51 64
        E 0 9f 69 64
        E 120 80 07 00
        E 0 80 10 00
        E 0 80 18 00
        E 0 80 30 00
        E 0 80 31 00
        E 240 80 48 00
        E 0 80 49 00
        E 0 80 4a 00
        E 0 80 4b 00
        E 0 80 4c 00
        E 0 80 4d 00
        E 0 80 60 00
        E 0 80 61 00
        E 0 80 62 00
        E 0 80 63 00
        E 0 80 64 00
        E 0 80 65 00
        E 0 8f 51 00
        E 0 8f 69 00
        E 120 90 30 66
        E 0 90 31 66
        E 0 90 48 66
        E 0 90 49 66
        E 0 90 4a 64
        E 0 90 4b 64
        E 0 90 4c 64
        E 0 90 4d 67
        E 0 90 60 66
        E 0 90 61 66
        E 0 90 62 64
        E 0 90 63 64
        E 0 90 64 64
        E 0 90 65 67
        E 0 9f 51 64
        E 0 9f 69 64
        E 120 80 30 00
        E 0 80 31 00
        E 0 80 48 00
        E 0 80 49 00
        E 0 80 4a 00
        E 0 80 4b 00
        E 0 80 4c 00
        E 0 80 4d 00
        E 0 80 60 00
        E 0 80 61 00
        E 0 80 62 00
        E 0 80 63 00
        E 0 80 64 00
        E 0 80 65 00
        E 0 8f 51 00
        E 0 8f 69 00
        E 120 93 48 64
        E 0 93 49 66
        E 0 93 4a 66
        E 0 93 4b 64
        E 0 93 4c 64
        E 0 93 4d 64
        E 0 93 60 64
        E 0 93 61 66
        E 0 93 62 66
        E 0 93 63 64
        E 0 93 64 64
        E 0 93 65 64
        E 120 83 48 00
        E 0 83 49 00
        E 0 83 4a 00
        E 0 83 4b 00
        E 0 83 4c 00
        E 0 83 4d 00
        E 0 83 60 00
        E 0 83 61 00
        E 0 83 62 00
        E 0 83 63 00
        E 0 83 64 00
        E 0 83 65 00
        E 120 90 04 64
        E 0 90 19 66
        E 0 90 31 66
        E 0 90 32 66
        E 0 90 48 64
        E 0 90 49 66
        E 0 90 4a 66
        E 0 90 4b 64
        E 0 90 4c 64
        E 0 90 4d 64
        E 0 90 60 64
        E 0 90 61 66
        E 0 90 62 66
        E 0 90 63 64
        E 0 90 64 64
        E 0 90 65 64
        E 0 9f 51 64
        E 0 9f 69 64
        E 120 80 04 00
        E 0 80 19 00
        E 0 80 31 00
        E 0 80 32 00
        E 240 80 48 00
        E 0 80 49 00
        E 0 80 4a 00
        E 0 80 4b 00
        E 0 80 4c 00
        E 0 80 4d 00
        E 0 80 60 00
        E 0 80 61 00
        E 0 80 62 00
        E 0 80 63 00
        E 0 80 64 00
        E 0 80 65 00
        E 0 8f 51 00
        E 0 8f 69 00
        E 120 90 19 66
        E 0 90 31 66
        E 0 90 32 66
        E 0 90 48 64
        E 0 90 49 66
        E 0 90 4a 66
        E 0 90 4b 64
        E 0 90 4c 64
        E 0 90 4d 64
        E 0 90 60 64
        E 0 90 61 66
        E 0 90 62 66
        E 0 90 63 64
        E 0 90 64 64
        E 0 90 65 64
        E 0 9f 51 64
        E 0 9f 69 64
        E 120 80 19 00
        E 0 80 31 00
        E 0 80 32 00
        E 0 80 48 00
        E 0 80 49 00
        E 0 80 4a 00
        E 0 80 4b 00
        E 0 80 4c 00
        E 0 80 4d 00
        E 0 80 60 00
        E 0 80 61 00
        E 0 80 62 00
        E 0 80 63 00
        E 0 80 64 00
        E 0 80 65 00
        E 0 8f 51 00
        E 0 8f 69 00
        E 120 90 31 66
        E 0 90 32 66
        E 0 90 48 64
        E 0 90 49 66
        E 0 90 4a 66
        E 0 90 4b 64
        E 0 90 4c 64
        E 0 90 4d 64
        E 0 90 60 64
        E 0 90 61 66
        E 0 90 62 66
        E 0 90 63 64
        E 0 90 64 64
        E 0 90 65 64
        E 0 9d 51 64
        E 0 9d 69 64
        E 120 80 31 00
        E 0 80 32 00
        E 0 80 48 00
        E 0 80 49 00
        E 0 80 4a 00
        E 0 80 4b 00
        E 0 80 4c 00
        E 0 80 4d 00
        E 0 80 60 00
        E 0 80 61 00
        E 0 80 62 00
        E 0 80 63 00
        E 0 80 64 00
        E 0 80 65 00
        E 0 8d 51 00
        E 0 8d 69 00
        E 120 90 19 66
        E 0 90 31 66
        E 0 90 32 66
        E 0 90 48 64
        E 0 90 49 66
        E 0 90 4a 66
        E 0 90 4b 64
        E 0 90 4c 64
        E 0 90 4d 64
        E 0 90 60 64
        E 0 90 61 66
        E 0 90 62 66
        E 0 90 63 64
        E 0 90 64 64
        E 0 90 65 64
        E 0 9f 51 64
        E 0 9f 69 64
        E 120 80 19 00
        E 0 80 31 00
        E 0 80 32 00
        E 0 80 48 00
        E 0 80 49 00
        E 0 80 4a 00
        E 0 80 4b 00
        E 0 80 4c 00
        E 0 80 4d 00
        E 0 80 60 00
        E 0 80 61 00
        E 0 80 62 00
        E 0 80 63 00
        E 0 80 64 00
        E 0 80 65 00
        E 0 8f 51 00
        E 0 8f 69 00
        E 120 90 31 66
        E 0 90 32 66
        E 0 90 48 64
        E 0 90 49 66
        E 0 90 4a 66
        E 0 90 4b 64
        E 0 90 4c 64
        E 0 90 4d 64
        E 0 90 60 64
        E 0 90 61 66
        E 0 90 62 66
        E 0 90 63 64
        E 0 90 64 64
        E 0 90 65 64
        E 0 9d 51 64
        E 0 9d 69 64
        E 120 80 31 00
        E 0 80 32 00
        E 0 80 48 00
        E 0 80 49 00
        E 0 80 4a 00
        E 0 80 4b 00
        E 0 80 4c 00
        E 0 80 4d 00
        E 0 80 60 00
        E 0 80 61 00
        E 0 80 62 00
        E 0 80 63 00
        E 0 80 64 00
        E 0 80 65 00
        E 0 8d 51 00
        E 0 8d 69 00
        E 120 90 31 66
        E 0 90 32 66
        E 0 90 48 64
        E 0 90 49 66
        E 0 90 4a 66
        E 0 90 4b 64
        E 0 90 4c 64
        E 0 90 4d 64
        E 0 90 60 64
        E 0 90 61 66
        E 0 90 62 66
        E 0 90 63 64
        E 0 90 64 64
        E 0 90 65 64
        E 0 9f 51 64
        E 0 9f 69 64
        E 120 80 31 00
        E 0 80 32 00
        E 0 80 48 00
        E 0 80 49 00
        E 0 80 4a 00
        E 0 80 4b 00
        E 0 80 4c 00
        E 0 80 4d 00
        E 0 80 60 00
        E 0 80 61 00
        E 0 80 62 00
        E 0 80 63 00
        E 0 80 64 00
        E 0 80 65 00
        E 0 8f 51 00
        E 0 8f 69 00
        E 120 90 6c 65
        E 0 93 49 67
        E 0 93 4a 66
        E 0 93 4b 64
        E 0 93 4c 65
        E 0 93 4d 64
        E 0 93 61 67
        E 0 93 62 66
        E 0 93 63 64
        E 0 93 64 65
        E 0 93 65 64
        E 120 80 6c 00
        E 0 83 49 00
        E 0 83 4a 00
        E 0 83 4b 00
        E 0 83 4c 00
        E 0 83 4d 00
        E 0 83 61 00
        E 0 83 62 00
        E 0 83 63 00
        E 0 83 64 00
        E 0 83 65 00
        E 120 90 0c 64
        E 0 90 31 67
        E 0 90 32 66
        E 0 90 49 67
        E 0 90 4a 66
        E 0 90 4b 64
        E 0 90 4c 65
        E 0 90 4d 64
        E 0 90 61 67
        E 0 90 62 66
        E 0 90 63 64
        E 0 90 64 65
        E 0 90 65 64
        E 0 9f 51 64
        E 0 9f 69 64
        E 120 80 0c 00
        E 0 80 31 00
        E 0 80 32 00
        E 240 80 49 00
        E 0 80 4a 00
        E 0 80 4b 00
        E 0 80 4c 00
        E 0 80 4d 00
        E 0 80 61 00
        E 0 80 62 00
        E 0 80 63 00
        E 0 80 64 00
        E 0 80 65 00
        E 0 8f 51 00
        E 0 8f 69 00
        E 120 90 31 67
        E 0 90 32 66
        E 0 90 49 67
        E 0 90 4a 66
        E 0 90 4b 64
        E 0 90 4c 65
        E 0 90 4d 64
        E 0 90 61 67
        E 0 90 62 66
        E 0 90 63 64
        E 0 90 64 65
        E 0 90 65 64
        E 0 9f 51 64
        E 0 9f 69 64
        E 120 80 31 00
        E 0 80 32 00
        E 0 80 49 00
        E 0 80 4a 00
        E 0 80 4b 00
        E 0 80 4c 00
        E 0 80 4d 00
        E 0 80 61 00
        E 0 80 62 00
        E 0 80 63 00
        E 0 80 64 00
        E 0 80 65 00
        E 0 8f 51 00
        E 0 8f 69 00
        E 120 93 49 67
        E 0 93 4a 66
        E 0 93 4b 64
        E 0 93 4c 65
        E 0 93 4d 64
        E 0 93 61 67
        E 0 93 62 66
        E 0 93 63 64
        E 0 93 64 65
        E 0 93 65 64
        E 120 83 49 00
        E 0 83 4a 00
        E 0 83 4b 00
        E 0 83 4c 00
        E 0 83 4d 00
        E 0 83 61 00
        E 0 83 62 00
        E 0 83 63 00
        E 0 83 64 00
        E 0 83 65 00
        E 120 90 0c 64
        E 0 90 10 64
        E 0 90 31 66
        E 0 90 32 66
        E 0 90 49 66
        E 0 90 4a 66
        E 0 90 4b 64
        E 0 90 4c 65
        E 0 90 4d 64
        E 0 90 61 66
        E 0 90 62 66
        E 0 90 63 64
        E 0 90 64 65
        E 0 90 65 64
        E 0 9f 51 64
        E 0 9f 69 64
        E 120 80 0c 00
        E 0 80 10 00
        E 0 80 31 00
        E 0 80 32 00
        E 0 80 61 00
        E 0 80 62 00
        E 0 80 63 00
        E 0 80 64 00
        E 0 80 65 00
        E 0 8f 51 00
        E 0 8f 69 00
        E 120 90 61 66
        E 0 90 62 66
        E 0 90 63 64
        E 0 90 64 65
        E 0 90 65 64
        E 0 9d 51 64
        E 0 9d 69 64
        E 120 80 49 00
        E 0 80 4a 00
        E 0 80 4b 00
        E 0 80 4c 00
        E 0 80 4d 00
        E 0 80 61 00
        E 0 80 62 00
        E 0 80 63 00
        E 0 80 64 00
        E 0 80 65 00
        E 0 8d 51 00
        E 0 8d 69 00
        E 120 90 31 66
        E 0 90 32 66
        E 0 90 49 66
        E 0 90 4a 66
        E 0 90 4b 64
        E 0 90 4c 65
        E 0 90 4d 64
        E 0 90 61 66
        E 0 90 62 66
        E 0 90 63 64
        E 0 90 64 65
        E 0 90 65 64
        E 0 9f 51 64
        E 0 9f 69 64
        E 120 80 31 00
        E 0 80 32 00
        E 0 80 49 00
        E 0 80 4a 00
        E 0 80 4b 00
        E 0 80 4c 00
        E 0 80 4d 00
        E 0 80 61 00
        E 0 80 62 00
        E 0 80 63 00
        E 0 80 64 00
        E 0 80 65 00
        E 0 8f 51 00
        E 0 8f 69 00
        E 120 93 49 66
        E 0 93 4a 66
        E 0 93 4b 64
        E 0 93 4c 65
        E 0 93 4d 64
        E 0 93 61 66
        E 0 93 62 66
        E 0 93 63 64
        E 0 93 64 65
        E 0 93 65 64
        E 120 83 49 00
        E 0 83 4a 00
        E 0 83 4b 00
        E 0 83 4c 00
        E 0 83 4d 00
        E 0 83 61 00
        E 0 83 62 00
        E 0 83 63 00
        E 0 83 64 00
        E 0 83 65 00
        E 120 90 09 64
        E 0 90 1a 66
        E 0 90 32 66
        E 0 90 33 66
        E 0 90 49 64
        E 0 90 4a 66
        E 0 90 4b 66
        E 0 90 4c 65
        E 0 90 4d 64
        E 0 90 61 64
        E 0 90 62 66
        E 0 90 63 66
        E 0 90 64 65
        E 0 90 65 64
        E 0 9f 51 64
        E 0 9f 69 64
        E 120 80 09 00
        E 0 80 1a 00
        E 0 80 32 00
        E 0 80 33 00
        E 240 80 49 00
        E 0 80 4a 00
        E 0 80 4b 00
        E 0 80 4c 00
        E 0 80 4d 00
        E 0 80 61 00
        E 0 80 62 00
        E 0 80 63 00
        E 0 80 64 00
        E 0 80 65 00
        E 0 8f 51 00
        E 0 8f 69 00
        E 120 90 1a 66
        E 0 90 32 66
        E 0 90 33 66
        E 0 90 49 64
        E 0 90 4a 66
        E 0 90 4b 66
        E 0 90 4c 65
        E 0 90 4d 64
        E 0 90 61 64
        E 0 90 62 66
        E 0 90 63 66
        E 0 90 64 65
        E 0 90 65 64
        E 0 9f 51 64
        E 0 9f 69 64
        E 120 80 1a 00
        E 0 80 32 00
        E 0 80 33 00
        E 0 80 49 00
        E 0 80 4a 00
        E 0 80 4b 00
        E 0 80 4c 00
        E 0 80 4d 00
        E 0 80 61 00
        E 0 80 62 00
        E 0 80 63 00
        E 0 80 64 00
        E 0 80 65 00
        E 0 8f 51 00
        E 0 8f 69 00
        E 120 90 49 64
        E 0 90 4a 66
        E 0 90 4b 66
        E 0 90 4c 65
        E 0 90 4d 64
        E 0 90 61 64
        E 0 90 62 66
        E 0 90 63 66
        E 0 90 64 65
        E 0 90 65 64
        E 0 9d 51 64
        E 0 9d 69 64
        E 120 80 49 00
        E 0 80 4a 00
        E 0 80 4b 00
        E 0 80 4c 00
        E 0 80 4d 00
        E 0 80 61 00
        E 0 80 62 00
        E 0 80 63 00
        E 0 80 64 00
        E 0 80 65 00
        E 0 8d 51 00
        E 0 8d 69 00
        E 120 90 1a 66
        E 0 90 32 66
        E 0 90 33 66
        E 0 90 49 64
        E 0 90 4a 66
        E 0 90 4b 66
        E 0 90 4c 65
        E 0 90 4d 64
        E 0 90 61 64
        E 0 90 62 66
        E 0 90 63 66
        E 0 90 64 65
        E 0 90 65 64
        E 0 9f 51 64
        E 0 9f 69 64
        E 120 80 1a 00
        E 0 80 32 00
        E 0 80 33 00
        E 0 80 49 00
        E 0 80 4a 00
        E 0 80 4b 00
        E 0 80 4c 00
        E 0 80 4d 00
        E 0 80 61 00
        E 0 80 62 00
        E 0 80 63 00
        E 0 80 64 00
        E 0 80 65 00
        E 0 8f 51 00
        E 0 8f 69 00
        E 120 90 49 64
        E 0 90 4a 66
        E 0 90 4b 66
        E 0 90 4c 64
        E 0 90 4d 64
        E 0 90 61 64
        E 0 90 62 66
        E 0 90 63 66
        E 0 90 64 64
        E 0 90 65 64
        E 0 9d 51 64
        E 0 9d 69 64
        E 120 80 49 00
        E 0 80 4a 00
        E 0 80 4b 00
        E 0 80 4c 00
        E 0 80 4d 00
        E 0 80 61 00
        E 0 80 62 00
        E 0 80 63 00
        E 0 80 64 00
        E 0 80 65 00
        E 0 8d 51 00
        E 0 8d 69 00
        E 120 90 1a 66
        E 0 90 32 66
        E 0 90 33 66
        E 0 90 49 64
        E 0 90 4a 66
        E 0 90 4b 66
        E 0 90 4c 64
        E 0 90 4d 64
        E 0 90 61 64
        E 0 90 62 66
        E 0 90 63 66
        E 0 90 64 64
        E 0 90 65 64
        E 0 9f 51 64
        E 0 9f 69 64
        E 120 80 1a 00
        E 0 80 32 00
        E 0 80 33 00
        E 0 80 49 00
        E 0 80 4a 00
        E 0 80 4b 00
        E 0 80 4c 00
        E 0 80 4d 00
        E 0 80 61 00
        E 0 80 62 00
        E 0 80 63 00
        E 0 80 64 00
        E 0 80 65 00
        E 0 8f 51 00
        E 0 8f 69 00
        E 120 90 6c 66
        E 0 93 48 67
        E 0 93 49 66
        E 0 93 4a 64
        E 0 93 4b 64
        E 0 93 4c 64
        E 0 93 4d 67
        E 0 93 60 67
        E 0 93 61 66
        E 0 93 62 64
        E 0 93 63 64
        E 0 93 64 64
        E 0 93 65 67
        E 120 80 6c 00
        E 0 83 48 00
        E 0 83 49 00
        E 0 83 4a 00
        E 0 83 4b 00
        E 0 83 4c 00
        E 0 83 4d 00
        E 0 83 60 00
        E 0 83 61 00
        E 0 83 62 00
        E 0 83 63 00
        E 0 83 64 00
        E 0 83 65 00
        E 120 90 07 64
        E 0 90 18 67
        E 0 90 30 67
        E 0 90 31 66
        E 0 90 48 67
        E 0 90 49 66
        E 0 90 4a 64
        E 0 90 4b 64
        E 0 90 4c 64
        E 0 90 4d 67
        E 0 90 60 67
        E 0 90 61 66
        E 0 90 62 64
        E 0 90 63 64
        E 0 90 64 64
        E 0 90 65 67
        E 0 9f 51 64
        E 0 9f 69 64
        E 120 80 07 00
        E 0 80 18 00
        E 0 80 30 00
        E 0 80 31 00
        E 240 80 48 00
        E 0 80 49 00
        E 0 80 4a 00
        E 0 80 4b 00
        E 0 80 4c 00
        E 0 80 4d 00
        E 0 80 60 00
        E 0 80 61 00
        E 0 80 62 00
        E 0 80 63 00
        E 0 80 64 00
        E 0 80 65 00
        E 0 8f 51 00
        E 0 8f 69 00
        E 120 90 30 67
        E 0 90 31 66
        E 0 90 48 67
        E 0 90 49 66
        E 0 90 4a 64
        E 0 90 4b 64
        E 0 90 4c 64
        E 0 90 4d 67
        E 0 90 60 67
        E 0 90 61 66
        E 0 90 62 64
        E 0 90 63 64
        E 0 90 64 64
        E 0 90 65 67
        E 0 9f 51 64
        E 0 9f 69 64
        E 120 80 30 00
        E 0 80 31 00
        E 0 80 48 00
        E 0 80 49 00
        E 0 80 4a 00
        E 0 80 4b 00
        E 0 80 4c 00
        E 0 80 4d 00
        E 0 80 60 00
        E 0 80 61 00
        E 0 80 62 00
        E 0 80 63 00
        E 0 80 64 00
        E 0 80 65 00
        E 0 8f 51 00
        E 0 8f 69 00
        E 120 93 48 66
        E 0 93 49 66
        E 0 93 4a 64
        E 0 93 4b 64
        E 0 93 4c 64
        E 0 93 4d 67
        E 0 93 60 66
        E 0 93 61 66
        E 0 93 62 64
        E 0 93 63 64
        E 0 93 64 64
        E 0 93 65 67
        E 120 83 48 00
        E 0 83 49 00
        E 0 83 4a 00
        E 0 83 4b 00
        E 0 83 4c 00
        E 0 83 4d 00
        E 0 83 60 00
        E 0 83 61 00
        E 0 83 62 00
        E 0 83 63 00
        E 0 83 64 00
        E 0 83 65 00
        E 120 90 07 64
        E 0 90 10 64
        E 0 90 18 66
        E 0 90 30 66
        E 0 90 31 66
        E 0 90 48 66
        E 0 90 49 66
        E 0 90 4a 64
        E 0 90 4b 64
        E 0 90 4c 64
        E 0 90 4d 67
        E 0 90 60 66
        E 0 90 61 66
        E 0 90 62 64
        E 0 90 63 64
        E 0 90 64 64
        E 0 90 65 67
        E 0 9f 51 64
        E 0 9f 69 64
        E 120 80 07 00
        E 0 80 10 00
        E 0 80 18 00
        E 0 80 30 00
        E 0 80 31 00
        E 0 80 48 00
        E 0 80 49 00
        E 0 80 4a 00
        E 0 80 4b 00
        E 0 80 4c 00
        E 0 80 4d 00
        E 0 80 60 00
        E 0 80 61 00
        E 0 80 62 00
        E 0 80 63 00
        E 0 80 64 00
        E 0 80 65 00
        E 0 8f 51 00
        E 0 8f 69 00
        E 120 90 30 66
        E 0 90 31 66
        E 0 90 48 66
        E 0 90 49 66
        E 0 90 4a 64
        E 0 90 4b 64
        E 0 90 4c 64
        E 0 90 4d 67
        E 0 90 60 66
        E 0 90 61 66
        E 0 90 62 64
        E 0 90 63 64
        E 0 90 64 64
        E 0 90 65 67
        E 0 9d 51 64
        E 0 9d 69 64
        E 120 80 30 00
        E 0 80 31 00
        E 0 80 48 00
        E 0 80 49 00
        E 0 80 4a 00
        E 0 80 4b 00
        E 0 80 4c 00
        E 0 80 4d 00
        E 0 80 60 00
        E 0 80 61 00
        E 0 80 62 00
        E 0 80 63 00
        E 0 80 64 00
        E 0 80 65 00
        E 0 8d 51 00
        E 0 8d 69 00
        E 120 90 30 66
        E 0 90 31 66
        E 0 90 48 66
        E 0 90 49 66
        E 0 90 4a 64
        E 0 90 4b 64
        E 0 90 4c 64
        E 0 90 4d 67
        E 0 90 60 66
        E 0 90 61 66
        E 0 90 62 64
        E 0 90 63 64
        E 0 90 64 64
        E 0 90 65 67
        E 0 9f 51 64
        E 0 9f 69 64
        E 120 80 30 00
        E 0 80 31 00
        E 0 80 48 00
        E 0 80 49 00
        E 0 80 4a 00
        E 0 80 4b 00
        E 0 80 4c 00
        E 0 80 4d 00
        E 0 80 60 00
        E 0 80 61 00
        E 0 80 62 00
        E 0 80 63 00
        E 0 80 64 00
        E 0 80 65 00
        E 0 8f 51 00
        E 0 8f 69 00
        E 120 93 48 64
        E 0 93 49 66
        E 0 93 4a 66
        E 0 93 4b 64
        E 0 93 4c 64
        E 0 93 4d 64
        E 0 93 60 64
        E 0 93 61 66
        E 0 93 62 66
        E 0 93 63 64
        E 0 93 64 64
        E 0 93 65 64
        E 120 83 48 00
        E 0 83 49 00
        E 0 83 4a 00
        E 0 83 4b 00
        E 0 83 4c 00
        E 0 83 4d 00
        E 0 83 60 00
        E 0 83 61 00
        E 0 83 62 00
        E 0 83 63 00
        E 0 83 64 00
        E 0 83 65 00
        E 120 90 04 64
        E 0 90 19 66
        E 0 90 31 66
        E 0 90 32 66
        E 0 90 48 64
        E 0 90 49 66
        E 0 90 4a 66
        E 0 90 4b 64
        E 0 90 4c 64
        E 0 90 4d 64
        E 0 90 60 64
        E 0 90 61 66
        E 0 90 62 66
        E 0 90 63 64
        E 0 90 64 64
        E 0 90 65 64
        E 0 9f 51 64
        E 0 9f 69 64
        E 120 80 04 00
        E 0 80 19 00
        E 0 80 31 00
        E 0 80 32 00
        E 240 80 48 00
        E 0 80 49 00
        E 0 80 4a 00
        E 0 80 4b 00
        E 0 80 4c 00
        E 0 80 4d 00
        E 0 80 60 00
        E 0 80 61 00
        E 0 80 62 00
        E 0 80 63 00
        E 0 80 64 00
        E 0 80 65 00
        E 0 8f 51 00
        E 0 8f 69 00
        E 120 90 19 66
        E 0 90 31 66
        E 0 90 32 66
        E 0 90 48 64
        E 0 90 49 66
        E 0 90 4a 66
        E 0 90 4b 64
        E 0 90 4c 64
        E 0 90 4d 64
        E 0 90 60 64
        E 0 90 61 66
        E 0 90 62 66
        E 0 90 63 64
        E 0 90 64 64
        E 0 90 65 64
        E 0 9f 51 64
        E 0 9f 69 64
        E 120 80 19 00
        E 0 80 31 00
        E 0 80 32 00
        E 0 80 48 00
        E 0 80 49 00
        E 0 80 4a 00
        E 0 80 4b 00
        E 0 80 4c 00
        E 0 80 4d 00
        E 0 80 60 00
        E 0 80 61 00
        E 0 80 62 00
        E 0 80 63 00
        E 0 80 64 00
        E 0 80 65 00
        E 0 8f 51 00
        E 0 8f 69 00
        E 120 90 31 66
        E 0 90 32 66
        E 0 90 48 64
        E 0 90 49 66
        E 0 90 4a 66
        E 0 90 4b 64
        E 0 90 4c 64
        E 0 90 4d 64
        E 0 90 60 64
        E 0 90 61 66
        E 0 90 62 66
        E 0 90 63 64
        E 0 90 64 64
        E 0 90 65 64
        E 0 9d 51 64
        E 0 9d 69 64
        E 120 80 31 00
        E 0 80 32 00
        E 0 80 48 00
        E 0 80 49 00
        E 0 80 4a 00
        E 0 80 4b 00
        E 0 80 4c 00
        E 0 80 4d 00
        E 0 80 60 00
        E 0 80 61 00
        E 0 80 62 00
        E 0 80 63 00
        E 0 80 64 00
        E 0 80 65 00
        E 0 8d 51 00
        E 0 8d 69 00
        E 120 90 19 66
        E 0 90 31 66
        E 0 90 32 66
        E 0 90 48 64
        E 0 90 49 66
        E 0 90 4a 66
        E 0 90 4b 64
        E 0 90 4c 64
        E 0 90 4d 64
        E 0 90 60 64
        E 0 90 61 66
        E 0 90 62 66
        E 0 90 63 64
        E 0 90 64 64
        E 0 90 65 64
        E 0 9f 51 64
        E 0 9f 69 64
        E 120 80 19 00
        E 0 80 31 00
        E 0 80 32 00
        E 0 80 48 00
        E 0 80 49 00
        E 0 80 4a 00
        E 0 80 4b 00
        E 0 80 4c 00
        E 0 80 4d 00
        E 0 80 60 00
        E 0 80 61 00
        E 0 80 62 00
        E 0 80 63 00
        E 0 80 64 00
        E 0 80 65 00
        E 0 8f 51 00
        E 0 8f 69 00
        E 120 90 31 66
        E 0 90 32 66
        E 0 90 48 64
        E 0 90 49 66
        E 0 90 4a 66
        E 0 90 4b 64
        E 0 90 4c 64
        E 0 90 4d 64
        E 0 90 60 64
        E 0 90 61 66
        E 0 90 62 66
        E 0 90 63 64
        E 0 90 64 64
        E 0 90 65 64
        E 0 9d 51 64
        E 0 9d 69 64
        E 120 80 31 00
        E 0 80 32 00
        E 0 80 48 00
        E 0 80 49 00
        E 0 80 4a 00
        E 0 80 4b 00
        E 0 80 4c 00
        E 0 80 4d 00
        E 0 80 60 00
        E 0 80 61 00
        E 0 80 62 00
        E 0 80 63 00
        E 0 80 64 00
        E 0 80 65 00
        E 0 8d 51 00
        E 0 8d 69 00
        E 120 90 31 66
        E 0 90 32 66
        E 0 90 48 64
        E 0 90 49 66
        E 0 90 4a 66
        E 0 90 4b 64
        E 0 90 4c 64
        E 0 90 4d 64
        E 0 90 60 64
        E 0 90 61 66
        E 0 90 62 66
        E 0 90 63 64
        E 0 90 64 64
        E 0 90 65 64
        E 0 9f 51 64
        E 0 9f 69 64
        E 120 80 31 00
        E 0 80 32 00
        E 0 80 48 00
        E 0 80 49 00
        E 0 80 4a 00
        E 0 80 4b 00
        E 0 80 4c 00
        E 0 80 4d 00
        E 0 80 60 00
        E 0 80 61 00
        E 0 80 62 00
        E 0 80 63 00
        E 0 80 64 00
        E 0 80 65 00
        E 0 8f 51 00
        E 0 8f 69 00
        E 120 90 6c 65
        E 0 93 49 67
        E 0 93 4a 66
        E 0 93 4b 64
        E 0 93 4c 65
        E 0 93 4d 64
        E 0 93 61 67
        E 0 93 62 66
        E 0 93 63 64
        E 0 93 64 65
        E 0 93 65 64
        E 120 80 6c 00
        E 0 83 49 00
        E 0 83 4a 00
        E 0 83 4b 00
        E 0 83 4c 00
        E 0 83 4d 00
        E 0 83 61 00
        E 0 83 62 00
        E 0 83 63 00
        E 0 83 64 00
        E 0 83 65 00
        E 120 90 0c 64
        E 0 90 31 67
        E 0 90 32 66
        E 0 90 49 67
        E 0 90 4a 66
        E 0 90 4b 64
        E 0 90 4c 65
        E 0 90 4d 64
        E 0 90 61 67
        E 0 90 62 66
        E 0 90 63 64
        E 0 90 64 65
        E 0 90 65 64
        E 0 9f 51 64
        E 0 9f 69 64
        E 120 80 0c 00
        E 0 80 31 00
        E 0 80 32 00
        E 240 80 49 00
        E 0 80 4a 00
        E 0 80 4b 00
        E 0 80 4c 00
        E 0 80 4d 00
        E 0 80 61 00
        E 0 80 62 00
        E 0 80 63 00
        E 0 80 64 00
        E 0 80 65 00
        E 0 8f 51 00
        E 0 8f 69 00
        E 120 90 31 67
        E 0 90 32 66
        E 0 90 49 67
        E 0 90 4a 66
        E 0 90 4b 64
        E 0 90 4c 65
        E 0 90 4d 64
        E 0 90 61 67
        E 0 90 62 66
        E 0 90 63 64
        E 0 90 64 65
        E 0 90 65 64
        E 0 9f 51 64
        E 0 9f 69 64
        E 120 80 31 00
        E 0 80 32 00
        E 0 80 49 00
        E 0 80 4a 00
        E 0 80 4b 00
        E 0 80 4c 00
        E 0 80 4d 00
        E 0 80 61 00
        E 0 80 62 00
        E 0 80 63 00
        E 0 80 64 00
        E 0 80 65 00
        E 0 8f 51 00
        E 0 8f 69 00
        E 120 93 49 67
        E 0 93 4a 66
        E 0 93 4b 64
        E 0 93 4c 65
        E 0 93 4d 64
        E 0 93 61 67
        E 0 93 62 66
        E 0 93 63 64
        E 0 93 64 65
        E 0 93 65 64
        E 120 83 49 00
        E 0 83 4a 00
        E 0 83 4b 00
        E 0 83 4c 00
        E 0 83 4d 00
        E 0 83 61 00
        E 0 83 62 00
        E 0 83 63 00
        E 0 83 64 00
        E 0 83 65 00
        E 120 90 0c 64
        E 0 90 10 64
        E 0 90 31 66
        E 0 90 32 66
        E 0 90 49 66
        E 0 90 4a 66
        E 0 90 4b 64
        E 0 90 4c 65
        E 0 90 4d 64
        E 0 90 61 66
        E 0 90 62 66
        E 0 90 63 64
        E 0 90 64 65
        E 0 90 65 64
        E 0 9f 51 64
        E 0 9f 69 64
        E 120 80 0c 00
        E 0 80 10 00
        E 0 80 31 00
        E 0 80 32 00
        E 0 80 61 00
        E 0 80 62 00
        E 0 80 63 00
        E 0 80 64 00
        E 0 80 65 00
        E 0 8f 51 00
        E 0 8f 69 00
        E 120 90 61 66
        E 0 90 62 66
        E 0 90 63 64
        E 0 90 64 65
        E 0 90 65 64
        E 0 9d 51 64
        E 0 9d 69 64
        E 120 80 49 00
        E 0 80 4a 00
        E 0 80 4b 00
        E 0 80 4c 00
        E 0 80 4d 00
        E 0 80 61 00
        E 0 80 62 00
        E 0 80 63 00
        E 0 80 64 00
        E 0 80 65 00
        E 0 8d 51 00
        E 0 8d 69 00
        E 120 90 31 66
        E 0 90 32 66
        E 0 90 49 66
        E 0 90 4a 66
        E 0 90 4b 64
        E 0 90 4c 65
        E 0 90 4d 64
        E 0 90 61 66
        E 0 90 62 66
        E 0 90 63 64
        E 0 90 64 65
        E 0 90 65 64
        E 0 9f 51 64
        E 0 9f 69 64
        E 120 80 31 00
        E 0 80 32 00
        E 0 80 49 00
        E 0 80 4a 00
        E 0 80 4b 00
        E 0 80 4c 00
        E 0 80 4d 00
        E 0 80 61 00
        E 0 80 62 00
        E 0 80 63 00
        E 0 80 64 00
        E 0 80 65 00
        E 0 8f 51 00
        E 0 8f 69 00
        E 120 93 49 66
        E 0 93 4a 66
        E 0 93 4b 64
        E 0 93 4c 65
        E 0 93 4d 64
        E 0 93 61 66
        E 0 93 62 66
        E 0 93 63 64
        E 0 93 64 65
        E 0 93 65 64
        E 120 83 49 00
        E 0 83 4a 00
        E 0 83 4b 00
        E 0 83 4c 00
        E 0 83 4d 00
        E 0 83 61 00
        E 0 83 62 00
        E 0 83 63 00
        E 0 83 64 00
        E 0 83 65 00
        E 120 90 09 64
        E 0 90 1a 66
        E 0 90 32 66
        E 0 90 33 66
        E 0 90 49 64
        E 0 90 4a 66
        E 0 90 4b 66
        E 0 90 4c 65
        E 0 90 4d 64
        E 0 90 61 64
        E 0 90 62 66
        E 0 90 63 66
        E 0 90 64 65
        E 0 90 65 64
        E 0 9f 51 64
        E 0 9f 69 64
        E 120 80 09 00
        E 0 80 1a 00
        E 0 80 32 00
        E 0 80 33 00
        E 240 80 49 00
        E 0 80 4a 00
        E 0 80 4b 00
        E 0 80 4c 00
        E 0 80 4d 00
        E 0 80 61 00
        E 0 80 62 00
        E 0 80 63 00
        E 0 80 64 00
        E 0 80 65 00
        E 0 8f 51 00
        E 0 8f 69 00
        E 120 90 1a 66
        E 0 90 32 66
        E 0 90 33 66
        E 0 90 49 64
        E 0 90 4a 66
        E 0 90 4b 66
        E 0 90 4c 65
        E 0 90 4d 64
        E 0 90 61 64
        E 0 90 62 66
        E 0 90 63 66
        E 0 90 64 65
        E 0 90 65 64
        E 0 9f 51 64
        E 0 9f 69 64
        E 120 80 1a 00
        E 0 80 32 00
        E 0 80 33 00
        E 0 80 49 00
        E 0 80 4a 00
        E 0 80 4b 00
        E 0 80 4c 00
        E 0 80 4d 00
        E 0 80 61 00
        E 0 80 62 00
        E 0 80 63 00
        E 0 80 64 00
        E 0 80 65 00
        E 0 8f 51 00
        E 0 8f 69 00
        E 120 90 49 64
        E 0 90 4a 66
        E 0 90 4b 66
        E 0 90 4c 65
        E 0 90 4d 64
        E 0 90 61 64
        E 0 90 62 66
        E 0 90 63 66
        E 0 90 64 65
        E 0 90 65 64
        E 0 9d 51 64
        E 0 9d 69 64
        E 120 80 49 00
        E 0 80 4a 00
        E 0 80 4b 00
        E 0 80 4c 00
        E 0 80 4d 00
        E 0 80 61 00
        E 0 80 62 00
        E 0 80 63 00
        E 0 80 64 00
        E 0 80 65 00
        E 0 8d 51 00
        E 0 8d 69 00
        E 120 90 1a 66
        E 0 90 32 66
        E 0 90 33 66
        E 0 90 49 64
        E 0 90 4a 66
        E 0 90 4b 66
        E 0 90 4c 65
        E 0 90 4d 64
        E 0 90 61 64
        E 0 90 62 66
        E 0 90 63 66
        E 0 90 64 65
        E 0 90 65 64
        E 0 9f 51 64
        E 0 9f 69 64
        E 120 80 1a 00
        E 0 80 32 00
        E 0 80 33 00
        E 0 80 49 00
        E 0 80 4a 00
        E 0 80 4b 00
        E 0 80 4c 00
        E 0 80 4d 00
        E 0 80 61 00
        E 0 80 62 00
        E 0 80 63 00
        E 0 80 64 00
        E 0 80 65 00
        E 0 8f 51 00
        E 0 8f 69 00
        E 120 90 32 66
        E 0 90 33 66
        E 0 90 49 64
        E 0 90 4a 66
        E 0 90 4b 66
        E 0 90 4c 64
        E 0 90 4d 64
        E 0 90 61 64
        E 0 90 62 66
        E 0 90 63 66
        E 0 90 64 64
        E 0 90 65 64
        E 0 9d 51 64
        E 0 9d 69 64
        E 120 80 32 00
        E 0 80 33 00
        E 0 80 49 00
        E 0 80 4a 00
        E 0 80 4b 00
        E 0 80 4c 00
        E 0 80 4d 00
        E 0 80 61 00
        E 0 80 62 00
        E 0 80 63 00
        E 0 80 64 00
        E 0 80 65 00
        E 0 8d 51 00
        E 0 8d 69 00
        E 120 90 1a 66
        E 0 90 32 66
        E 0 90 33 66
        E 0 90 49 64
        E 0 90 4a 66
        E 0 90 4b 66
        E 0 90 4c 64
        E 0 90 4d 64
        E 0 90 61 64
        E 0 90 62 66
        E 0 90 63 66
        E 0 90 64 64
        E 0 90 65 64
        E 0 9f 51 64
        E 0 9f 69 64
        E 120 80 1a 00
        E 0 80 32 00
        E 0 80 33 00
        E 0 80 49 00
        E 0 80 4a 00
        E 0 80 4b 00
        E 0 80 4c 00
        E 0 80 4d 00
        E 0 80 61 00
        E 0 80 62 00
        E 0 80 63 00
        E 0 80 64 00
        E 0 80 65 00
        E 0 8f 51 00
        E 0 8f 69 00
        E 120 90 6c 66
        E 0 93 48 67
        E 0 93 49 66
        E 0 93 4a 64
        E 0 93 4b 64
        E 0 93 4c 64
        E 0 93 4d 67
        E 0 93 60 67
        E 0 93 61 66
        E 0 93 62 64
        E 0 93 63 64
        E 0 93 64 64
        E 0 93 65 67
        E 120 80 6c 00
        E 0 83 48 00
        E 0 83 49 00
        E 0 83 4a 00
        E 0 83 4b 00
        E 0 83 4c 00
        E 0 83 4d 00
        E 0 83 60 00
        E 0 83 61 00
        E 0 83 62 00
        E 0 83 63 00
        E 0 83 64 00
        E 0 83 65 00
        E 120 90 07 64
        E 0 90 18 67
        E 0 90 30 67
        E 0 90 31 66
        E 0 90 48 67
        E 0 90 49 66
        E 0 90 4a 64
        E 0 90 4b 64
        E 0 90 4c 64
        E 0 90 4d 67
        E 0 90 60 67
        E 0 90 61 66
        E 0 90 62 64
        E 0 90 63 64
        E 0 90 64 64
        E 0 90 65 67
        E 0 9f 51 64
        E 0 9f 69 64
        E 120 80 07 00
        E 0 80 18 00
        E 0 80 30 00
        E 0 80 31 00
        E 240 80 48 00
        E 0 80 49 00
        E 0 80 4a 00
        E 0 80 4b 00
        E 0 80 4c 00
        E 0 80 4d 00
        E 0 80 60 00
        E 0 80 61 00
        E 0 80 62 00
        E 0 80 63 00
        E 0 80 64 00
        E 0 80 65 00
        E 0 8f 51 00
        E 0 8f 69 00
        E 120 90 30 67
        E 0 90 31 66
        E 0 90 48 67
        E 0 90 49 66
        E 0 90 4a 64
        E 0 90 4b 64
        E 0 90 4c 64
        E 0 90 4d 67
        E 0 90 60 67
        E 0 90 61 66
        E 0 90 62 64
        E 0 90 63 64
        E 0 90 64 64
        E 0 90 65 67
        E 0 9f 51 64
        E 0 9f 69 64
        E 120 80 30 00
        E 0 80 31 00
        E 0 80 48 00
        E 0 80 49 00
        E 0 80 4a 00
        E 0 80 4b 00
        E 0 80 4c 00
        E 0 80 4d 00
        E 0 80 60 00
        E 0 80 61 00
        E 0 80 62 00
        E 0 80 63 00
        E 0 80 64 00
        E 0 80 65 00
        E 0 8f 51 00
        E 0 8f 69 00
        E 120 93 48 66
        E 0 93 49 66
        E 0 93 4a 64
        E 0 93 4b 64
        E 0 93 4c 64
        E 0 93 4d 67
        E 0 93 60 66
        E 0 93 61 66
        E 0 93 62 64
        E 0 93 63 64
        E 0 93 64 64
        E 0 93 65 67
        E 120 83 48 00
        E 0 83 49 00
        E 0 83 4a 00
        E 0 83 4b 00
        E 0 83 4c 00
        E 0 83 4d 00
        E 0 83 60 00
        E 0 83 61 00
        E 0 83 62 00
        E 0 83 63 00
        E 0 83 64 00
        E 0 83 65 00
        E 120 90 07 64
        E 0 90 10 64
        E 0 90 18 66
        E 0 90 30 66
        E 0 90 31 66
        E 0 90 48 66
        E 0 90 49 66
        E 0 90 4a 64
        E 0 90 4b 64
        E 0 90 4c 64
        E 0 90 4d 67
        E 0 90 60 66
        E 0 90 61 66
        E 0 90 62 64
        E 0 90 63 64
        E 0 90 64 64
        E 0 90 65 67
        E 0 9f 51 64
        E 0 9f 69 64
        E 120 80 07 00
        E 0 80 10 00
        E 0 80 18 00
        E 0 80 30 00
        E 0 80 31 00
        E 240 80 48 00
        E 0 80 49 00
        E 0 80 4a 00
        E 0 80 4b 00
        E 0 80 4c 00
        E 0 80 4d 00
        E 0 80 60 00
        E 0 80 61 00
        E 0 80 62 00
        E 0 80 63 00
        E 0 80 64 00
        E 0 80 65 00
        E 0 8f 51 00
        E 0 8f 69 00
        E 120 90 30 66
        E 0 90 31 66
        E 0 90 48 66
        E 0 90 49 66
        E 0 90 4a 64
        E 0 90 4b 64
        E 0 90 4c 64
        E 0 90 4d 67
        E 0 90 60 66
        E 0 90 61 66
        E 0 90 62 64
        E 0 90 63 64
        E 0 90 64 64
        E 0 90 65 67
        E 0 9f 51 64
        E 0 9f 69 64
        E 120 80 30 00
        E 0 80 31 00
        E 0 80 48 00
        E 0 80 49 00
        E 0 80 4a 00
        E 0 80 4b 00
        E 0 80 4c 00
        E 0 80 4d 00
        E 0 80 60 00
        E 0 80 61 00
        E 0 80 62 00
        E 0 80 63 00
        E 0 80 64 00
        E 0 80 65 00
        E 0 8f 51 00
        E 0 8f 69 00
        E 120 93 48 64
        E 0 93 49 66
        E 0 93 4a 66
        E 0 93 4b 64
        E 0 93 4c 64
        E 0 93 4d 64
        E 0 93 60 64
        E 0 93 61 66
        E 0 93 62 66
        E 0 93 63 64
        E 0 93 64 64
        E 0 93 65 64
        E 120 83 48 00
        E 0 83 49 00
        E 0 83 4a 00
        E 0 83 4b 00
        E 0 83 4c 00
        E 0 83 4d 00
        E 0 83 60 00
        E 0 83 61 00
        E 0 83 62 00
        E 0 83 63 00
        E 0 83 64 00
        E 0 83 65 00
        E 120 90 04 64
        E 0 90 19 66
        E 0 90 31 66
        E 0 90 32 66
        E 0 90 48 64
        E 0 90 49 66
        E 0 90 4a 66
        E 0 90 4b 64
        E 0 90 4c 64
        E 0 90 4d 64
        E 0 90 60 64
        E 0 90 61 66
        E 0 90 62 66
        E 0 90 63 64
        E 0 90 64 64
        E 0 90 65 64
        E 0 90 74 60
        E 0 9f 51 64
        E 0 9f 69 64
        E 120 80 04 00
        E 0 80 19 00
        E 0 80 31 00
        E 0 80 32 00
        E 240 80 48 00
        E 0 80 49 00
        E 0 80 4a 00
        E 0 80 4b 00
        E 0 80 4c 00
        E 0 80 4d 00
        E 0 80 60 00
        E 0 80 61 00
        E 0 80 62 00
        E 0 80 63 00
        E 0 80 64 00
        E 0 80 65 00
        E 0 8f 51 00
        E 0 8f 69 00
        E 120 90 19 66
        E 0 90 31 66
        E 0 90 32 66
        E 0 90 48 64
        E 0 90 49 66
        E 0 90 4a 66
        E 0 90 4b 64
        E 0 90 4c 64
        E 0 90 4d 64
        E 0 90 60 64
        E 0 90 61 66
        E 0 90 62 66
        E 0 90 63 64
        E 0 90 64 64
        E 0 90 65 64
        E 0 9f 51 64
        E 0 9f 69 64
        E 120 80 19 00
        E 0 80 31 00
        E 0 80 32 00
        E 0 80 48 00
        E 0 80 49 00
        E 0 80 4a 00
        E 0 80 4b 00
        E 0 80 4c 00
        E 0 80 4d 00
        E 0 80 60 00
        E 0 80 61 00
        E 0 80 62 00
        E 0 80 63 00
        E 0 80 64 00
        E 0 80 65 00
        E 0 8f 51 00
        E 0 8f 69 00
        E 120 90 31 66
        E 0 90 32 66
        E 0 90 48 64
        E 0 90 49 66
        E 0 90 4a 66
        E 0 90 4b 64
        E 0 90 4c 64
        E 0 90 4d 64
        E 0 90 60 64
        E 0 90 61 66
        E 0 90 62 66
        E 0 90 63 64
        E 0 90 64 64
        E 0 90 65 64
        E 0 9d 51 64
        E 0 9d 69 64
        E 120 80 31 00
        E 0 80 32 00
        E 0 80 48 00
        E 0 80 49 00
        E 0 80 4a 00
        E 0 80 4b 00
        E 0 80 4c 00
        E 0 80 4d 00
        E 0 80 60 00
        E 0 80 61 00
        E 0 80 62 00
        E 0 80 63 00
        E 0 80 64 00
        E 0 80 65 00
        E 0 8d 51 00
        E 0 8d 69 00
        E 120 90 19 66
        E 0 90 31 66
        E 0 90 32 66
        E 0 90 48 64
        E 0 90 49 66
        E 0 90 4a 66
        E 0 90 4b 64
        E 0 90 4c 64
        E 0 90 4d 64
        E 0 90 60 64
        E 0 90 61 66
        E 0 90 62 66
        E 0 90 63 64
        E 0 90 64 64
        E 0 90 65 64
        E 0 9f 51 64
        E 0 9f 69 64
        E 120 80 19 00
        E 0 80 31 00
        E 0 80 32 00
        E 0 80 48 00
        E 0 80 49 00
        E 0 80 4a 00
        E 0 80 4b 00
        E 0 80 4c 00
        E 0 80 4d 00
        E 0 80 60 00
        E 0 80 61 00
        E 0 80 62 00
        E 0 80 63 00
        E 0 80 64 00
        E 0 80 65 00
        E 0 8f 51 00
        E 0 8f 69 00
        E 120 90 31 66
        E 0 90 32 66
        E 0 90 48 64
        E 0 90 49 66
        E 0 90 4a 66
        E 0 90 4b 64
        E 0 90 4c 64
        E 0 90 4d 64
        E 0 90 60 64
        E 0 90 61 66
        E 0 90 62 66
        E 0 90 63 64
        E 0 90 64 64
        E 0 90 65 64
        E 0 9d 51 64
        E 0 9d 69 64
        E 120 80 31 00
        E 0 80 32 00
        E 0 80 48 00
        E 0 80 49 00
        E 0 80 4a 00
        E 0 80 4b 00
        E 0 80 4c 00
        E 0 80 4d 00
        E 0 80 60 00
        E 0 80 61 00
        E 0 80 62 00
        E 0 80 63 00
        E 0 80 64 00
        E 0 80 65 00
        E 0 8d 51 00
        E 0 8d 69 00
        E 120 90 31 66
        E 0 90 32 66
        E 0 90 48 64
        E 0 90 49 66
        E 0 90 4a 66
        E 0 90 4b 64
        E 0 90 4c 64
        E 0 90 4d 64
        E 0 90 60 64
        E 0 90 61 66
        E 0 90 62 66
        E 0 90 63 64
        E 0 90 64 64
        E 0 90 65 64
        E 0 9f 51 64
        E 0 9f 69 64
        E 120 80 31 00
        E 0 80 32 00
        E 0 80 48 00
        E 0 80 49 00
        E 0 80 4a 00
        E 0 80 4b 00
        E 0 80 4c 00
        E 0 80 4d 00
        E 0 80 60 00
        E 0 80 61 00
        E 0 80 62 00
        E 0 80 63 00
        E 0 80 64 00
        E 0 80 65 00
        E 0 8f 51 00
        E 0 8f 69 00
        E 120 90 6c 65
        E 0 93 49 67
        E 0 93 4a 66
        E 0 93 4b 64
        E 0 93 4c 65
        E 0 93 4d 64
        E 0 93 61 67
        E 0 93 62 66
        E 0 93 63 64
        E 0 93 64 65
        E 0 93 65 64
        E 120 80 6c 00
        E 0 83 49 00
        E 0 83 4a 00
        E 0 83 4b 00
        E 0 83 4c 00
        E 0 83 4d 00
        E 0 83 61 00
        E 0 83 62 00
        E 0 83 63 00
        E 0 83 64 00
        E 0 83 65 00
        E 120 90 0c 64
        E 0 90 31 67
        E 0 90 32 66
        E 0 90 49 67
        E 0 90 4a 66
        E 0 90 4b 64
        E 0 90 4c 65
        E 0 90 4d 64
        E 0 90 61 67
        E 0 90 62 66
        E 0 90 63 64
        E 0 90 64 65
        E 0 90 65 64
        E 0 9f 51 64
        E 0 9f 69 64
        E 120 80 74 00
        E 0 80 0c 00
        E 0 80 31 00
        E 0 80 32 00
        E 240 80 49 00
        E 0 80 4a 00
        E 0 80 4b 00
        E 0 80 4c 00
        E 0 80 4d 00
        E 0 80 61 00
        E 0 80 62 00
        E 0 80 63 00
        E 0 80 64 00
        E 0 80 65 00
        E 0 8f 51 00
        E 0 8f 69 00
        E 120 90 31 67
        E 0 90 32 66
        E 0 90 49 67
        E 0 90 4a 66
        E 0 90 4b 64
        E 0 90 4c 65
        E 0 90 4d 64
        E 0 90 61 67
        E 0 90 62 66
        E 0 90 63 64
        E 0 90 64 65
        E 0 90 65 64
        E 0 9f 51 64
        E 0 9f 69 64
        E 120 80 31 00
        E 0 80 32 00
        E 0 80 49 00
        E 0 80 4a 00
        E 0 80 4b 00
        E 0 80 4c 00
        E 0 80 4d 00
        E 0 80 61 00
        E 0 80 62 00
        E 0 80 63 00
        E 0 80 64 00
        E 0 80 65 00
        E 0 8f 51 00
        E 0 8f 69 00
        E 120 93 49 67
        E 0 93 4a 66
        E 0 93 4b 64
        E 0 93 4c 65
        E 0 93 4d 64
        E 0 93 61 67
        E 0 93 62 66
        E 0 93 63 64
        E 0 93 64 65
        E 0 93 65 64
        E 120 83 49 00
        E 0 83 4a 00
        E 0 83 4b 00
        E 0 83 4c 00
        E 0 83 4d 00
        E 0 83 61 00
        E 0 83 62 00
        E 0 83 63 00
        E 0 83 64 00
        E 0 83 65 00
        E 120 90 0c 64
        E 0 90 10 64
        E 0 90 31 66
        E 0 90 32 66
        E 0 90 49 66
        E 0 90 4a 66
        E 0 90 4b 64
        E 0 90 4c 65
        E 0 90 4d 64
        E 0 90 61 66
        E 0 90 62 66
        E 0 90 63 64
        E 0 90 64 65
        E 0 90 65 64
        E 0 9f 51 64
        E 0 9f 69 64
        E 120 80 0c 00
        E 0 80 10 00
        E 0 80 31 00
        E 0 80 32 00
        E 0 80 61 00
        E 0 80 62 00
        E 0 80 63 00
        E 0 80 64 00
        E 0 80 65 00
        E 0 8f 51 00
        E 0 8f 69 00
        E 120 90 61 66
        E 0 90 62 66
        E 0 90 63 64
        E 0 90 64 65
        E 0 90 65 64
        E 0 9d 51 64
        E 0 9d 69 64
        E 120 80 49 00
        E 0 80 4a 00
        E 0 80 4b 00
        E 0 80 4c 00
        E 0 80 4d 00
        E 0 80 61 00
        E 0 80 62 00
        E 0 80 63 00
        E 0 80 64 00
        E 0 80 65 00
        E 0 8d 51 00
        E 0 8d 69 00
        E 120 90 31 66
        E 0 90 32 66
        E 0 90 49 66
        E 0 90 4a 66
        E 0 90 4b 64
        E 0 90 4c 65
        E 0 90 4d 64
        E 0 90 61 66
        E 0 90 62 66
        E 0 90 63 64
        E 0 90 64 65
        E 0 90 65 64
        E 0 9f 51 64
        E 0 9f 69 64
        E 120 80 31 00
        E 0 80 32 00
        E 0 80 49 00
        E 0 80 4a 00
        E 0 80 4b 00
        E 0 80 4c 00
        E 0 80 4d 00
        E 0 80 61 00
        E 0 80 62 00
        E 0 80 63 00
        E 0 80 64 00
        E 0 80 65 00
        E 0 8f 51 00
        E 0 8f 69 00
        E 120 93 49 66
        E 0 93 4a 66
        E 0 93 4b 64
        E 0 93 4c 65
        E 0 93 4d 64
        E 0 93 61 66
        E 0 93 62 66
        E 0 93 63 64
        E 0 93 64 65
        E 0 93 65 64
        E 120 83 49 00
        E 0 83 4a 00
        E 0 83 4b 00
        E 0 83 4c 00
        E 0 83 4d 00
        E 0 83 61 00
        E 0 83 62 00
        E 0 83 63 00
        E 0 83 64 00
        E 0 83 65 00
        E 120 90 09 64
        E 0 90 1a 66
        E 0 90 32 66
        E 0 90 33 66
        E 0 90 49 64
        E 0 90 4a 66
        E 0 90 4b 66
        E 0 90 4c 65
        E 0 90 4d 64
        E 0 90 61 64
        E 0 90 62 66
        E 0 90 63 66
        E 0 90 64 65
        E 0 90 65 64
        E 0 9f 51 64
        E 0 9f 69 64
        E 120 80 09 00
        E 0 80 1a 00
        E 0 80 32 00
        E 0 80 33 00
        E 240 80 49 00
        E 0 80 4a 00
        E 0 80 4b 00
        E 0 80 4c 00
        E 0 80 4d 00
        E 0 80 61 00
        E 0 80 62 00
        E 0 80 63 00
        E 0 80 64 00
        E 0 80 65 00
        E 0 8f 51 00
        E 0 8f 69 00
        E 120 90 1a 66
        E 0 90 32 66
        E 0 90 33 66
        E 0 90 49 64
        E 0 90 4a 66
        E 0 90 4b 66
        E 0 90 4c 65
        E 0 90 4d 64
        E 0 90 61 64
        E 0 90 62 66
        E 0 90 63 66
        E 0 90 64 65
        E 0 90 65 64
        E 0 9f 51 64
        E 0 9f 69 64
        E 120 80 1a 00
        E 0 80 32 00
        E 0 80 33 00
        E 0 80 49 00
        E 0 80 4a 00
        E 0 80 4b 00
        E 0 80 4c 00
        E 0 80 4d 00
        E 0 80 61 00
        E 0 80 62 00
        E 0 80 63 00
        E 0 80 64 00
        E 0 80 65 00
        E 0 8f 51 00
        E 0 8f 69 00
        E 120 90 49 64
        E 0 90 4a 66
        E 0 90 4b 66
        E 0 90 4c 65
        E 0 90 4d 64
        E 0 90 61 64
        E 0 90 62 66
        E 0 90 63 66
        E 0 90 64 65
        E 0 90 65 64
        E 0 9d 51 64
        E 0 9d 69 64
        E 120 80 49 00
        E 0 80 4a 00
        E 0 80 4b 00
        E 0 80 4c 00
        E 0 80 4d 00
        E 0 80 61 00
        E 0 80 62 00
        E 0 80 63 00
        E 0 80 64 00
        E 0 80 65 00
        E 0 8d 51 00
        E 0 8d 69 00
        E 120 90 1a 66
        E 0 90 32 66
        E 0 90 33 66
        E 0 90 49 64
        E 0 90 4a 66
        E 0 90 4b 66
        E 0 90 4c 65
        E 0 90 4d 64
        E 0 90 61 64
        E 0 90 62 66
        E 0 90 63 66
        E 0 90 64 65
        E 0 90 65 64
        E 0 9f 51 64
        E 0 9f 69 64
        E 120 80 1a 00
        E 0 80 32 00
        E 0 80 33 00
        E 0 80 49 00
        E 0 80 4a 00
        E 0 80 4b 00
        E 0 80 4c 00
        E 0 80 4d 00
        E 0 80 61 00
        E 0 80 62 00
        E 0 80 63 00
        E 0 80 64 00
        E 0 80 65 00
        E 0 8f 51 00
        E 0 8f 69 00
        E 120 90 32 66
        E 0 90 33 66
        E 0 90 49 64
        E 0 90 4a 66
        E 0 90 4b 66
        E 0 90 4c 64
        E 0 90 4d 64
        E 0 90 61 64
        E 0 90 62 66
        E 0 90 63 66
        E 0 90 64 64
        E 0 90 65 64
        E 0 9d 51 64
        E 0 9d 69 64
        E 120 80 32 00
        E 0 80 33 00
        E 0 80 49 00
        E 0 80 4a 00
        E 0 80 4b 00
        E 0 80 4c 00
        E 0 80 4d 00
        E 0 80 61 00
        E 0 80 62 00
        E 0 80 63 00
        E 0 80 64 00
        E 0 80 65 00
        E 0 8d 51 00
        E 0 8d 69 00
        E 120 90 1a 66
        E 0 90 32 66
        E 0 90 33 66
        E 0 90 49 64
        E 0 90 4a 66
        E 0 90 4b 66
        E 0 90 4c 64
        E 0 90 4d 64
        E 0 90 61 64
        E 0 90 62 66
        E 0 90 63 66
        E 0 90 64 64
        E 0 90 65 64
        E 0 9f 51 64
        E 0 9f 69 64
        E 120 80 1a 00
        E 0 80 32 00
        E 0 80 33 00
        E 0 80 49 00
        E 0 80 4a 00
        E 0 80 4b 00
        E 0 80 4c 00
        E 0 80 4d 00
        E 0 80 61 00
        E 0 80 62 00
        E 0 80 63 00
        E 0 80 64 00
        E 0 80 65 00
        E 0 8f 51 00
        E 0 8f 69 00
        E 120 90 6c 66
        E 0 93 48 67
        E 0 93 49 66
        E 0 93 4a 64
        E 0 93 4b 64
        E 0 93 4c 64
        E 0 93 4d 67
        E 0 93 60 67
        E 0 93 61 66
        E 0 93 62 64
        E 0 93 63 64
        E 0 93 64 64
        E 0 93 65 67
        E 120 80 6c 00
        E 0 83 48 00
        E 0 83 49 00
        E 0 83 4a 00
        E 0 83 4b 00
        E 0 83 4c 00
        E 0 83 4d 00
        E 0 83 60 00
        E 0 83 61 00
        E 0 83 62 00
        E 0 83 63 00
        E 0 83 64 00
        E 0 83 65 00
        E 120 90 07 64
        E 0 90 18 67
        E 0 90 30 67
        E 0 90 31 66
        E 0 90 48 67
        E 0 90 49 66
        E 0 90 4a 64
        E 0 90 4b 64
        E 0 90 4c 64
        E 0 90 4d 67
        E 0 90 60 67
        E 0 90 61 66
        E 0 90 62 64
        E 0 90 63 64
        E 0 90 64 64
        E 0 90 65 67
        E 0 9f 51 64
        E 0 9f 69 64
        E 120 80 07 00
        E 0 80 18 00
        E 0 80 30 00
        E 0 80 31 00
        E 240 80 48 00
        E 0 80 49 00
        E 0 80 4a 00
        E 0 80 4b 00
        E 0 80 4c 00
        E 0 80 4d 00
        E 0 80 60 00
        E 0 80 61 00
        E 0 80 62 00
        E 0 80 63 00
        E 0 80 64 00
        E 0 80 65 00
        E 0 8f 51 00
        E 0 8f 69 00
        E 120 90 30 67
        E 0 90 31 66
        E 0 90 48 67
        E 0 90 49 66
        E 0 90 4a 64
        E 0 90 4b 64
        E 0 90 4c 64
        E 0 90 4d 67
        E 0 90 60 67
        E 0 90 61 66
        E 0 90 62 64
        E 0 90 63 64
        E 0 90 64 64
        E 0 90 65 67
        E 0 9f 51 64
        E 0 9f 69 64
        E 120 80 30 00
        E 0 80 31 00
        E 0 80 48 00
        E 0 80 49 00
        E 0 80 4a 00
        E 0 80 4b 00
        E 0 80 4c 00
        E 0 80 4d 00
        E 0 80 60 00
        E 0 80 61 00
        E 0 80 62 00
        E 0 80 63 00
        E 0 80 64 00
        E 0 80 65 00
        E 0 8f 51 00
        E 0 8f 69 00
        E 120 93 48 66
        E 0 93 49 66
        E 0 93 4a 64
        E 0 93 4b 64
        E 0 93 4c 64
        E 0 93 4d 67
        E 0 93 60 66
        E 0 93 61 66
        E 0 93 62 64
        E 0 93 63 64
        E 0 93 64 64
        E 0 93 65 67
        E 120 83 48 00
        E 0 83 49 00
        E 0 83 4a 00
        E 0 83 4b 00
        E 0 83 4c 00
        E 0 83 4d 00
        E 0 83 60 00
        E 0 83 61 00
        E 0 83 62 00
        E 0 83 63 00
        E 0 83 64 00
        E 0 83 65 00
        E 120 90 07 64
        E 0 90 10 64
        E 0 90 18 66
        E 0 90 30 66
        E 0 90 31 66
        E 0 90 48 66
        E 0 90 49 66
        E 0 90 4a 64
        E 0 90 4b 64
        E 0 90 4c 64
        E 0 90 4d 67
        E 0 90 60 66
        E 0 90 61 66
        E 0 90 62 64
        E 0 90 63 64
        E 0 90 64 64
        E 0 90 65 67
        E 0 9f 51 64
        E 0 9f 69 64
        E 120 80 07 00
        E 0 80 10 00
        E 0 80 18 00
        E 0 80 30 00
        E 0 80 31 00
        E 0 80 48 00
        E 0 80 49 00
        E 0 80 4a 00
        E 0 80 4b 00
        E 0 80 4c 00
        E 0 80 4d 00
        E 0 80 60 00
        E 0 80 61 00
        E 0 80 62 00
        E 0 80 63 00
        E 0 80 64 00
        E 0 80 65 00
        E 0 8f 51 00
        E 0 8f 69 00
        E 120 90 30 66
        E 0 90 31 66
        E 0 90 48 66
        E 0 90 49 66
        E 0 90 4a 64
        E 0 90 4b 64
        E 0 90 4c 64
        E 0 90 4d 67
        E 0 90 60 66
        E 0 90 61 66
        E 0 90 62 64
        E 0 90 63 64
        E 0 90 64 64
        E 0 90 65 67
        E 0 9d 51 64
        E 0 9d 69 64
        E 120 80 30 00
        E 0 80 31 00
        E 0 80 48 00
        E 0 80 49 00
        E 0 80 4a 00
        E 0 80 4b 00
        E 0 80 4c 00
        E 0 80 4d 00
        E 0 80 60 00
        E 0 80 61 00
        E 0 80 62 00
        E 0 80 63 00
        E 0 80 64 00
        E 0 80 65 00
        E 0 8d 51 00
        E 0 8d 69 00
        E 120 90 30 66
        E 0 90 31 66
        E 0 90 48 66
        E 0 90 49 66
        E 0 90 4a 64
        E 0 90 4b 64
        E 0 90 4c 64
        E 0 90 4d 67
        E 0 90 60 66
        E 0 90 61 66
        E 0 90 62 64
        E 0 90 63 64
        E 0 90 64 64
        E 0 90 65 67
        E 0 9f 51 64
        E 0 9f 69 64
        E 120 80 30 00
        E 0 80 31 00
        E 0 80 48 00
        E 0 80 49 00
        E 0 80 4a 00
        E 0 80 4b 00
        E 0 80 4c 00
        E 0 80 4d 00
        E 0 80 60 00
        E 0 80 61 00
        E 0 80 62 00
        E 0 80 63 00
        E 0 80 64 00
        E 0 80 65 00
        E 0 8f 51 00
        E 0 8f 69 00
        E 120 93 48 64
        E 0 93 49 66
        E 0 93 4a 66
        E 0 93 4b 64
        E 0 93 4c 64
        E 0 93 4d 64
        E 0 93 60 64
        E 0 93 61 66
        E 0 93 62 66
        E 0 93 63 64
        E 0 93 64 64
        E 0 93 65 64
        E 120 83 48 00
        E 0 83 49 00
        E 0 83 4a 00
        E 0 83 4b 00
        E 0 83 4c 00
        E 0 83 4d 00
        E 0 83 60 00
        E 0 83 61 00
        E 0 83 62 00
        E 0 83 63 00
        E 0 83 64 00
        E 0 83 65 00
        E 120 90 04 64
        E 0 90 19 66
        E 0 90 31 66
        E 0 90 32 66
        E 0 90 48 64
        E 0 90 49 66
        E 0 90 4a 66
        E 0 90 4b 64
        E 0 90 4c 64
        E 0 90 4d 64
        E 0 90 60 64
        E 0 90 61 66
        E 0 90 62 66
        E 0 90 63 64
        E 0 90 64 64
        E 0 90 65 64
        E 0 9f 51 64
        E 0 9f 69 64
        E 120 80 04 00
        E 0 80 19 00
        E 0 80 31 00
        E 0 80 32 00
        E 240 80 48 00
        E 0 80 49 00
        E 0 80 4a 00
        E 0 80 4b 00
        E 0 80 4c 00
        E 0 80 4d 00
        E 0 80 60 00
        E 0 80 61 00
        E 0 80 62 00
        E 0 80 63 00
        E 0 80 64 00
        E 0 80 65 00
        E 0 8f 51 00
        E 0 8f 69 00
        E 120 90 19 66
        E 0 90 31 66
        E 0 90 32 66
        E 0 90 48 64
        E 0 90 49 66
        E 0 90 4a 66
        E 0 90 4b 64
        E 0 90 4c 64
        E 0 90 4d 64
        E 0 90 60 64
        E 0 90 61 66
        E 0 90 62 66
        E 0 90 63 64
        E 0 90 64 64
        E 0 90 65 64
        E 0 9f 51 64
        E 0 9f 69 64
        E 120 80 19 00
        E 0 80 31 00
        E 0 80 32 00
        E 0 80 48 00
        E 0 80 49 00
        E 0 80 4a 00
        E 0 80 4b 00
        E 0 80 4c 00
        E 0 80 4d 00
        E 0 80 60 00
        E 0 80 61 00
        E 0 80 62 00
        E 0 80 63 00
        E 0 80 64 00
        E 0 80 65 00
        E 0 8f 51 00
        E 0 8f 69 00
        E 120 90 31 66
        E 0 90 32 66
        E 0 90 48 64
        E 0 90 49 66
        E 0 90 4a 66
        E 0 90 4b 64
        E 0 90 4c 64
        E 0 90 4d 64
        E 0 90 60 64
        E 0 90 61 66
        E 0 90 62 66
        E 0 90 63 64
        E 0 90 64 64
        E 0 90 65 64
        E 0 9d 51 64
        E 0 9d 69 64
        E 120 80 31 00
        E 0 80 32 00
        E 0 80 48 00
        E 0 80 49 00
        E 0 80 4a 00
        E 0 80 4b 00
        E 0 80 4c 00
        E 0 80 4d 00
        E 0 80 60 00
        E 0 80 61 00
        E 0 80 62 00
        E 0 80 63 00
        E 0 80 64 00
        E 0 80 65 00
        E 0 8d 51 00
        E 0 8d 69 00
        E 120 90 19 66
        E 0 90 31 66
        E 0 90 32 66
        E 0 90 48 64
        E 0 90 49 66
        E 0 90 4a 66
        E 0 90 4b 64
        E 0 90 4c 64
        E 0 90 4d 64
        E 0 90 60 64
        E 0 90 61 66
        E 0 90 62 66
        E 0 90 63 64
        E 0 90 64 64
        E 0 90 65 64
        E 0 9f 51 64
        E 0 9f 69 64
        E 120 80 19 00
        E 0 80 31 00
        E 0 80 32 00
        E 0 80 48 00
        E 0 80 49 00
        E 0 80 4a 00
        E 0 80 4b 00
        E 0 80 4c 00
        E 0 80 4d 00
        E 0 80 60 00
        E 0 80 61 00
        E 0 80 62 00
        E 0 80 63 00
        E 0 80 64 00
        E 0 80 65 00
        E 0 8f 51 00
        E 0 8f 69 00
        E 120 90 31 66
        E 0 90 32 66
        E 0 90 48 64
        E 0 90 49 66
        E 0 90 4a 66
        E 0 90 4b 64
        E 0 90 4c 64
        E 0 90 4d 64
        E 0 90 60 64
        E 0 90 61 66
        E 0 90 62 66
        E 0 90 63 64
        E 0 90 64 64
        E 0 90 65 64
        E 0 9d 51 64
        E 0 9d 69 64
        E 120 80 31 00
        E 0 80 32 00
        E 0 80 48 00
        E 0 80 49 00
        E 0 80 4a 00
        E 0 80 4b 00
        E 0 80 4c 00
        E 0 80 4d 00
        E 0 80 60 00
        E 0 80 61 00
        E 0 80 62 00
        E 0 80 63 00
        E 0 80 64 00
        E 0 80 65 00
        E 0 8d 51 00
        E 0 8d 69 00
        E 120 90 31 66
        E 0 90 32 66
        E 0 90 48 64
        E 0 90 49 66
        E 0 90 4a 66
        E 0 90 4b 64
        E 0 90 4c 64
        E 0 90 4d 64
        E 0 90 60 64
        E 0 90 61 66
        E 0 90 62 66
        E 0 90 63 64
        E 0 90 64 64
        E 0 90 65 64
        E 0 9f 51 64
        E 0 9f 69 64
        E 120 80 31 00
        E 0 80 32 00
        E 0 80 48 00
        E 0 80 49 00
        E 0 80 4a 00
        E 0 80 4b 00
        E 0 80 4c 00
        E 0 80 4d 00
        E 0 80 60 00
        E 0 80 61 00
        E 0 80 62 00
        E 0 80 63 00
        E 0 80 64 00
        E 0 80 65 00
        E 0 8f 51 00
        E 0 8f 69 00
        E 120 90 6c 65
        E 0 93 49 67
        E 0 93 4a 66
        E 0 93 4b 64
        E 0 93 4c 65
        E 0 93 4d 64
        E 0 93 61 67
        E 0 93 62 66
        E 0 93 63 64
        E 0 93 64 65
        E 0 93 65 64
        E 120 80 6c 00
        E 0 83 49 00
        E 0 83 4a 00
        E 0 83 4b 00
        E 0 83 4c 00
        E 0 83 4d 00
        E 0 83 61 00
        E 0 83 62 00
        E 0 83 63 00
        E 0 83 64 00
        E 0 83 65 00
        E 120 90 0c 64
        E 0 90 31 67
        E 0 90 32 66
        E 0 90 49 67
        E 0 90 4a 66
        E 0 90 4b 64
        E 0 90 4c 65
        E 0 90 4d 64
        E 0 90 61 67
        E 0 90 62 66
        E 0 90 63 64
        E 0 90 64 65
        E 0 90 65 64
        E 0 9f 51 64
        E 0 9f 69 64
        E 120 80 0c 00
        E 0 80 31 00
        E 0 80 32 00
        E 240 80 49 00
        E 0 80 4a 00
        E 0 80 4b 00
        E 0 80 4c 00
        E 0 80 4d 00
        E 0 80 61 00
        E 0 80 62 00
        E 0 80 63 00
        E 0 80 64 00
        E 0 80 65 00
        E 0 8f 51 00
        E 0 8f 69 00
        E 120 90 31 67
        E 0 90 32 66
        E 0 90 49 67
        E 0 90 4a 66
        E 0 90 4b 64
        E 0 90 4c 65
        E 0 90 4d 64
        E 0 90 61 67
        E 0 90 62 66
        E 0 90 63 64
        E 0 90 64 65
        E 0 90 65 64
        E 0 9f 51 64
        E 0 9f 69 64
        E 120 80 31 00
        E 0 80 32 00
        E 240 80 49 00
        E 0 80 4a 00
        E 0 80 4b 00
        E 0 80 4c 00
        E 0 80 4d 00
        E 0 80 61 00
        E 0 80 62 00
        E 0 80 63 00
        E 0 80 64 00
        E 0 80 65 00
        E 0 8f 51 00
        E 0 8f 69 00
        E 120 90 31 67
        E 0 90 32 66
        E 0 90 49 67
        E 0 90 4a 66
        E 0 90 4b 64
        E 0 90 4c 65
        E 0 90 4d 64
        E 0 90 61 67
        E 0 90 62 66
        E 0 90 63 64
        E 0 90 64 65
        E 0 90 65 64
        E 0 9f 51 64
        E 0 9f 69 64
        E 120 80 31 00
        E 0 80 32 00
        E 240 80 49 00
        E 0 80 4a 00
        E 0 80 4b 00
        E 0 80 4c 00
        E 0 80 4d 00
        E 0 80 61 00
        E 0 80 62 00
        E 0 80 63 00
        E 0 80 64 00
        E 0 80 65 00
        E 0 8f 51 00
        E 0 8f 69 00
        E 120 90 31 67
        E 0 90 32 66
        E 0 90 49 67
        E 0 90 4a 66
        E 0 90 4b 64
        E 0 90 4c 65
        E 0 90 4d 64
        E 0 90 61 67
        E 0 90 62 66
        E 0 90 63 64
        E 0 90 64 65
        E 0 90 65 64
        E 0 9f 51 64
        E 0 9f 69 64
        E 120 80 31 00
        E 0 80 32 00
        E 0 80 49 00
        E 0 80 4a 00
        E 0 80 4b 00
        E 0 80 4c 00
        E 0 80 4d 00
        E 0 80 61 00
        E 0 80 62 00
        E 0 80 63 00
        E 0 80 64 00
        E 0 80 65 00
        E 0 8f 51 00
        E 0 8f 69 00
        E 120 90 6c 66
        E 0 93 4a 64
        E 0 93 4b 66
        E 0 93 4c 67
        E 0 93 4d 66
        E 0 93 62 64
        E 0 93 63 66
        E 0 93 64 67
        E 0 93 65 66
        E 120 80 6c 00
        E 0 83 4a 00
        E 0 83 4b 00
        E 0 83 4c 00
        E 0 83 4d 00
        E 0 83 62 00
        E 0 83 63 00
        E 0 83 64 00
        E 0 83 65 00
        E 120 90 0e 64
        E 0 90 33 66
        E 0 90 34 67
        E 0 90 4a 64
        E 0 90 4b 66
        E 0 90 4c 67
        E 0 90 4d 66
        E 0 90 62 64
        E 0 90 63 66
        E 0 90 64 67
        E 0 90 65 66
        E 0 9f 51 64
        E 0 9f 69 64
        E 120 80 0e 00
        E 0 80 33 00
        E 0 80 34 00
        E 0 80 4a 00
        E 0 80 4b 00
        E 0 80 4c 00
        E 0 80 4d 00
        E 0 80 62 00
        E 0 80 63 00
        E 0 80 64 00
        E 0 80 65 00
        E 0 8f 51 00
        E 0 8f 69 00
        E 120 90 4a 64
        E 0 90 4b 66
        E 0 90 4c 67
        E 0 90 4d 66
        E 0 90 62 64
        E 0 90 63 66
        E 0 90 64 67
        E 0 90 65 66
        E 0 9d 51 64
        E 0 9d 69 64
        E 120 80 4a 00
        E 0 80 4b 00
        E 0 80 4c 00
        E 0 80 4d 00
        E 0 80 62 00
        E 0 80 63 00
        E 0 80 64 00
        E 0 80 65 00
        E 0 8d 51 00
        E 0 8d 69 00
        E 120 90 33 66
        E 0 90 34 67
        E 0 90 4a 64
        E 0 90 4b 66
        E 0 90 4c 67
        E 0 90 4d 66
        E 0 90 62 64
        E 0 90 63 66
        E 0 90 64 67
        E 0 90 65 66
        E 0 9f 51 64
        E 0 9f 69 64
        E 120 80 33 00
        E 0 80 34 00
        E 240 80 4a 00
        E 0 80 4b 00
        E 0 80 4c 00
        E 0 80 4d 00
        E 0 80 62 00
        E 0 80 63 00
        E 0 80 64 00
        E 0 80 65 00
        E 0 8f 51 00
        E 0 8f 69 00
        E 120 90 33 66
        E 0 90 34 67
        E 0 90 4a 64
        E 0 90 4b 66
        E 0 90 4c 67
        E 0 90 4d 66
        E 0 90 62 64
        E 0 90 63 66
        E 0 90 64 67
        E 0 90 65 66
        E 0 9f 51 64
        E 0 9f 69 64
        E 120 80 33 00
        E 0 80 34 00
        E 240 80 4a 00
        E 0 80 4b 00
        E 0 80 4c 00
        E 0 80 4d 00
        E 0 80 62 00
        E 0 80 63 00
        E 0 80 64 00
        E 0 80 65 00
        E 0 8f 51 00
        E 0 8f 69 00
        E 120 90 33 66
        E 0 90 34 67
        E 0 90 4a 64
        E 0 90 4b 66
        E 0 90 4c 67
        E 0 90 4d 66
        E 0 90 62 64
        E 0 90 63 66
        E 0 90 64 67
        E 0 90 65 66
        E 0 9f 51 64
        E 0 9f 69 64
        E 120 80 33 00
        E 0 80 34 00
        E 0 80 4a 00
        E 0 80 4b 00
        E 0 80 4c 00
        E 0 80 4d 00
        E 0 80 62 00
        E 0 80 63 00
        E 0 80 64 00
        E 0 80 65 00
        E 0 8f 51 00
        E 0 8f 69 00
        E 120 93 48 67
        E 0 93 49 66
        E 0 93 4a 64
        E 0 93 4b 64
        E 0 93 4c 64
        E 0 93 4d 67
        E 0 93 60 67
        E 0 93 61 66
        E 0 93 62 64
        E 0 93 63 64
        E 0 93 64 64
        E 0 93 65 67
        E 120 83 48 00
        E 0 83 49 00
        E 0 83 4a 00
        E 0 83 4b 00
        E 0 83 4c 00
        E 0 83 4d 00
        E 0 83 60 00
        E 0 83 61 00
        E 0 83 62 00
        E 0 83 63 00
        E 0 83 64 00
        E 0 83 65 00
        E 120 90 07 64
        E 0 90 18 67
        E 0 90 30 67
        E 0 90 31 66
        E 0 90 48 67
        E 0 90 49 66
        E 0 90 4a 64
        E 0 90 4b 64
        E 0 90 4c 64
        E 0 90 4d 67
        E 0 90 60 67
        E 0 90 61 66
        E 0 90 62 64
        E 0 90 63 64
        E 0 90 64 64
        E 0 90 65 67
        E 0 90 6c 66
        E 0 9f 51 64
        E 0 9f 69 64
        E 120 80 07 00
        E 0 80 18 00
        E 0 80 30 00
        E 0 80 31 00
        E 0 80 6c 00
        E 240 80 48 00
        E 0 80 49 00
        E 0 80 4a 00
        E 0 80 4b 00
        E 0 80 4c 00
        E 0 80 4d 00
        E 0 80 60 00
        E 0 80 61 00
        E 0 80 62 00
        E 0 80 63 00
        E 0 80 64 00
        E 0 80 65 00
        E 0 8f 51 00
        E 0 8f 69 00
        E 120 90 30 67
        E 0 90 31 66
        E 0 90 48 67
        E 0 90 49 66
        E 0 90 4a 64
        E 0 90 4b 64
        E 0 90 4c 64
        E 0 90 4d 67
        E 0 90 60 67
        E 0 90 61 66
        E 0 90 62 64
        E 0 90 63 64
        E 0 90 64 64
        E 0 90 65 67
        E 0 9f 51 64
        E 0 9f 69 64
        E 120 80 30 00
        E 0 80 31 00
        E 0 80 48 00
        E 0 80 49 00
        E 0 80 4a 00
        E 0 80 4b 00
        E 0 80 4c 00
        E 0 80 4d 00
        E 0 80 60 00
        E 0 80 61 00
        E 0 80 62 00
        E 0 80 63 00
        E 0 80 64 00
        E 0 80 65 00
        E 0 8f 51 00
        E 0 8f 69 00
        E 120 93 48 66
        E 0 93 49 66
        E 0 93 4a 64
        E 0 93 4b 64
        E 0 93 4c 64
        E 0 93 4d 67
        E 0 93 60 66
        E 0 93 61 66
        E 0 93 62 64
        E 0 93 63 64
        E 0 93 64 64
        E 0 93 65 67
        E 120 83 48 00
        E 0 83 49 00
        E 0 83 4a 00
        E 0 83 4b 00
        E 0 83 4c 00
        E 0 83 4d 00
        E 0 83 60 00
        E 0 83 61 00
        E 0 83 62 00
        E 0 83 63 00
        E 0 83 64 00
        E 0 83 65 00
        E 120 90 07 64
        E 0 90 10 64
        E 0 90 18 66
        E 0 90 30 66
        E 0 90 31 66
        E 0 90 48 66
        E 0 90 49 66
        E 0 90 4a 64
        E 0 90 4b 64
        E 0 90 4c 64
        E 0 90 4d 67
        E 0 90 60 66
        E 0 90 61 66
        E 0 90 62 64
        E 0 90 63 64
        E 0 90 64 64
        E 0 90 65 67
        E 0 9f 51 64
        E 0 9f 69 64
        E 120 80 07 00
        E 0 80 10 00
        E 0 80 18 00
        E 0 80 30 00
        E 0 80 31 00
        E 0 80 48 00
        E 0 80 49 00
        E 0 80 4a 00
        E 0 80 4b 00
        E 0 80 4c 00
        E 0 80 4d 00
        E 0 8f 51 00
        E 0 8f 69 00
        E 120 90 30 66
        E 0 90 31 66
        E 0 90 48 66
        E 0 90 49 66
        E 0 90 4a 64
        E 0 90 4b 64
        E 0 90 4c 64
        E 0 90 4d 67
        E 0 9d 51 64
        E 0 9d 69 64
        E 120 80 60 00
        E 0 80 61 00
        E 0 80 62 00
        E 0 80 63 00
        E 0 80 64 00
        E 0 80 65 00
        E 0 80 30 00
        E 0 80 31 00
        E 0 80 48 00
        E 0 80 49 00
        E 0 80 4a 00
        E 0 80 4b 00
        E 0 80 4c 00
        E 0 80 4d 00
        E 0 8d 51 00
        E 0 8d 69 00
        E 120 90 30 66
        E 0 90 31 66
        E 0 90 48 66
        E 0 90 49 66
        E 0 90 4a 64
        E 0 90 4b 64
        E 0 90 4c 64
        E 0 90 4d 67
        E 0 90 60 66
        E 0 90 61 66
        E 0 90 62 64
        E 0 90 63 64
        E 0 90 64 64
        E 0 90 65 67
        E 0 9f 51 64
        E 0 9f 69 64
        E 120 80 30 00
        E 0 80 31 00
        E 0 80 48 00
        E 0 80 49 00
        E 0 80 4a 00
        E 0 80 4b 00
        E 0 80 4c 00
        E 0 80 4d 00
        E 0 80 60 00
        E 0 80 61 00
        E 0 80 62 00
        E 0 80 63 00
        E 0 80 64 00
        E 0 80 65 00
        E 0 8f 51 00
        E 0 8f 69 00
        E 120 93 48 64
        E 0 93 49 66
        E 0 93 4a 66
        E 0 93 4b 64
        E 0 93 4c 64
        E 0 93 4d 64
        E 0 93 60 64
        E 0 93 61 66
        E 0 93 62 66
        E 0 93 63 64
        E 0 93 64 64
        E 0 93 65 64
        E 120 83 48 00
        E 0 83 49 00
        E 0 83 4a 00
        E 0 83 4b 00
        E 0 83 4c 00
        E 0 83 4d 00
        E 0 83 60 00
        E 0 83 61 00
        E 0 83 62 00
        E 0 83 63 00
        E 0 83 64 00
        E 0 83 65 00
        E 120 90 04 64
        E 0 90 19 66
        E 0 90 31 66
        E 0 90 32 66
        E 0 90 48 64
        E 0 90 49 66
        E 0 90 4a 66
        E 0 90 4b 64
        E 0 90 4c 64
        E 0 90 4d 64
        E 0 90 60 64
        E 0 90 61 66
        E 0 90 62 66
        E 0 90 63 64
        E 0 90 64 64
        E 0 90 65 64
        E 0 9f 51 64
        E 0 9f 69 64
        E 120 80 04 00
        E 0 80 19 00
        E 0 80 31 00
        E 0 80 32 00
        E 240 80 48 00
        E 0 80 49 00
        E 0 80 4a 00
        E 0 80 4b 00
        E 0 80 4c 00
        E 0 80 4d 00
        E 0 80 60 00
        E 0 80 61 00
        E 0 80 62 00
        E 0 80 63 00
        E 0 80 64 00
        E 0 80 65 00
        E 0 8f 51 00
        E 0 8f 69 00
        E 120 90 19 66
        E 0 90 31 66
        E 0 90 32 66
        E 0 90 48 64
        E 0 90 49 66
        E 0 90 4a 66
        E 0 90 4b 64
        E 0 90 4c 64
        E 0 90 4d 64
        E 0 90 60 64
        E 0 90 61 66
        E 0 90 62 66
        E 0 90 63 64
        E 0 90 64 64
        E 0 90 65 64
        E 0 9f 51 64
        E 0 9f 69 64
        E 120 80 19 00
        E 0 80 31 00
        E 0 80 32 00
        E 240 80 48 00
        E 0 80 49 00
        E 0 80 4a 00
        E 0 80 4b 00
        E 0 80 4c 00
        E 0 80 4d 00
        E 0 80 60 00
        E 0 80 61 00
        E 0 80 62 00
        E 0 80 63 00
        E 0 80 64 00
        E 0 80 65 00
        E 0 8f 51 00
        E 0 8f 69 00
        E 120 90 19 66
        E 0 90 31 66
        E 0 90 32 66
        E 0 90 48 64
        E 0 90 49 66
        E 0 90 4a 66
        E 0 90 4b 64
        E 0 90 4c 64
        E 0 90 4d 64
        E 0 90 60 64
        E 0 90 61 66
        E 0 90 62 66
        E 0 90 63 64
        E 0 90 64 64
        E 0 90 65 64
        E 0 9d 51 64
        E 0 9d 69 64
        E 120 80 19 00
        E 0 80 31 00
        E 0 80 32 00
        E 0 80 48 00
        E 0 80 49 00
        E 0 80 4a 00
        E 0 80 4b 00
        E 0 80 4c 00
        E 0 80 4d 00
        E 0 80 60 00
        E 0 80 61 00
        E 0 80 62 00
        E 0 80 63 00
        E 0 80 64 00
        E 0 80 65 00
        E 0 8d 51 00
        E 0 8d 69 00
        E 120 90 31 66
        E 0 90 32 66
        E 0 90 48 64
        E 0 90 49 66
        E 0 90 4a 66
        E 0 90 4b 64
        E 0 90 4c 64
        E 0 90 4d 64
        E 0 90 60 64
        E 0 90 61 66
        E 0 90 62 66
        E 0 90 63 64
        E 0 90 64 64
        E 0 90 65 64
        E 0 9d 51 64
        E 0 9d 69 64
        E 120 80 31 00
        E 0 80 32 00
        E 0 80 48 00
        E 0 80 49 00
        E 0 80 4a 00
        E 0 80 4b 00
        E 0 80 4c 00
        E 0 80 4d 00
        E 0 80 60 00
        E 0 80 61 00
        E 0 80 62 00
        E 0 80 63 00
        E 0 80 64 00
        E 0 80 65 00
        E 0 8d 51 00
        E 0 8d 69 00
        E 120 90 31 66
        E 0 90 32 66
        E 0 90 48 64
        E 0 90 49 66
        E 0 90 4a 66
        E 0 90 4b 64
        E 0 90 4c 64
        E 0 90 4d 64
        E 0 90 60 64
        E 0 90 61 66
        E 0 90 62 66
        E 0 90 63 64
        E 0 90 64 64
        E 0 90 65 64
        E 0 9f 51 64
        E 0 9f 69 64
        E 120 80 31 00
        E 0 80 32 00
        E 0 80 48 00
        E 0 80 49 00
        E 0 80 4a 00
        E 0 80 4b 00
        E 0 80 4c 00
        E 0 80 4d 00
        E 0 80 60 00
        E 0 80 61 00
        E 0 80 62 00
        E 0 80 63 00
        E 0 80 64 00
        E 0 80 65 00
        E 0 8f 51 00
        E 0 8f 69 00
        E 120 90 6c 65
        E 0 93 49 67
        E 0 93 4a 66
        E 0 93 4b 64
        E 0 93 4c 65
        E 0 93 4d 64
        E 0 93 61 67
        E 0 93 62 66
        E 0 93 63 64
        E 0 93 64 65
        E 0 93 65 64
        E 120 80 6c 00
        E 0 83 49 00
        E 0 83 4a 00
        E 0 83 4b 00
        E 0 83 4c 00
        E 0 83 4d 00
        E 0 83 61 00
        E 0 83 62 00
        E 0 83 63 00
        E 0 83 64 00
        E 0 83 65 00
        E 120 90 0c 64
        E 0 90 31 67
        E 0 90 32 66
        E 0 90 49 67
        E 0 90 4a 66
        E 0 90 4b 64
        E 0 90 4c 65
        E 0 90 4d 64
        E 0 90 61 67
        E 0 90 62 66
        E 0 90 63 64
        E 0 90 64 65
        E 0 90 65 64
        E 0 9f 51 64
        E 0 9f 69 64
        E 120 80 0c 00
        E 0 80 31 00
        E 0 80 32 00
        E 240 80 49 00
        E 0 80 4a 00
        E 0 80 4b 00
        E 0 80 4c 00
        E 0 80 4d 00
        E 0 80 61 00
        E 0 80 62 00
        E 0 80 63 00
        E 0 80 64 00
        E 0 80 65 00
        E 0 8f 51 00
        E 0 8f 69 00
        E 120 90 31 67
        E 0 90 32 66
        E 0 90 49 67
        E 0 90 4a 66
        E 0 90 4b 64
        E 0 90 4c 65
        E 0 90 4d 64
        E 0 90 61 67
        E 0 90 62 66
        E 0 90 63 64
        E 0 90 64 65
        E 0 90 65 64
        E 0 9f 51 64
        E 0 9f 69 64
        E 120 80 31 00
        E 0 80 32 00
        E 240 80 49 00
        E 0 80 4a 00
        E 0 80 4b 00
        E 0 80 4c 00
        E 0 80 4d 00
        E 0 80 61 00
        E 0 80 62 00
        E 0 80 63 00
        E 0 80 64 00
        E 0 80 65 00
        E 0 8f 51 00
        E 0 8f 69 00
        E 120 90 31 67
        E 0 90 32 66
        E 0 90 49 67
        E 0 90 4a 66
        E 0 90 4b 64
        E 0 90 4c 65
        E 0 90 4d 64
        E 0 90 61 67
        E 0 90 62 66
        E 0 90 63 64
        E 0 90 64 65
        E 0 90 65 64
        E 0 9f 51 64
        E 0 9f 69 64
        E 120 80 31 00
        E 0 80 32 00
        E 0 80 49 00
        E 0 80 4a 00
        E 0 80 4b 00
        E 0 80 4c 00
        E 0 80 4d 00
        E 0 80 61 00
        E 0 80 62 00
        E 0 80 63 00
        E 0 80 64 00
        E 0 80 65 00
        E 0 8f 51 00
        E 0 8f 69 00
        E 120 90 31 67
        E 0 90 32 66
        E 0 90 49 67
        E 0 90 4a 66
        E 0 90 4b 64
        E 0 90 4c 65
        E 0 90 4d 64
        E 0 90 61 67
        E 0 90 62 66
        E 0 90 63 64
        E 0 90 64 65
        E 0 90 65 64
        E 0 9d 51 64
        E 0 9d 69 64
        E 120 80 31 00
        E 0 80 32 00
        E 0 80 49 00
        E 0 80 4a 00
        E 0 80 4b 00
        E 0 80 4c 00
        E 0 80 4d 00
        E 0 80 61 00
        E 0 80 62 00
        E 0 80 63 00
        E 0 80 64 00
        E 0 80 65 00
        E 0 8d 51 00
        E 0 8d 69 00
        E 120 90 31 67
        E 0 90 32 66
        E 0 90 49 67
        E 0 90 4a 66
        E 0 90 4b 64
        E 0 90 4c 65
        E 0 90 4d 64
        E 0 90 61 67
        E 0 90 62 66
        E 0 90 63 64
        E 0 90 64 65
        E 0 90 65 64
        E 0 9f 51 64
        E 0 9f 69 64
        E 120 80 31 00
        E 0 80 32 00
        E 0 80 49 00
        E 0 80 4a 00
        E 0 80 4b 00
        E 0 80 4c 00
        E 0 80 4d 00
        E 0 80 61 00
        E 0 80 62 00
        E 0 80 63 00
        E 0 80 64 00
        E 0 80 65 00
        E 0 8f 51 00
        E 0 8f 69 00
        E 120 90 6c 66
        E 0 93 4a 64
        E 0 93 4b 66
        E 0 93 4c 67
        E 0 93 4d 66
        E 0 93 62 64
        E 0 93 63 66
        E 0 93 64 67
        E 0 93 65 66
        E 120 80 6c 00
        E 0 83 4a 00
        E 0 83 4b 00
        E 0 83 4c 00
        E 0 83 4d 00
        E 0 83 62 00
        E 0 83 63 00
        E 0 83 64 00
        E 0 83 65 00
        E 120 90 0e 64
        E 0 90 33 66
        E 0 90 34 67
        E 0 90 4a 64
        E 0 90 4b 66
        E 0 90 4c 67
        E 0 90 4d 66
        E 0 90 62 64
        E 0 90 63 66
        E 0 90 64 67
        E 0 90 65 66
        E 0 9f 51 64
        E 0 9f 69 64
        E 120 80 0e 00
        E 0 80 33 00
        E 0 80 34 00
        E 240 80 4a 00
        E 0 80 4b 00
        E 0 80 4c 00
        E 0 80 4d 00
        E 0 80 62 00
        E 0 80 63 00
        E 0 80 64 00
        E 0 80 65 00
        E 0 8f 51 00
        E 0 8f 69 00
        E 120 90 33 66
        E 0 90 34 67
        E 0 90 4a 64
        E 0 90 4b 66
        E 0 90 4c 67
        E 0 90 4d 66
        E 0 90 62 64
        E 0 90 63 66
        E 0 90 64 67
        E 0 90 65 66
        E 0 9f 51 64
        E 0 9f 69 64
        E 120 80 33 00
        E 0 80 34 00
        E 240 80 4a 00
        E 0 80 4b 00
        E 0 80 4c 00
        E 0 80 4d 00
        E 0 80 62 00
        E 0 80 63 00
        E 0 80 64 00
        E 0 80 65 00
        E 0 8f 51 00
        E 0 8f 69 00
        E 120 90 33 66
        E 0 90 34 65
        E 0 90 4a 64
        E 0 90 4b 66
        E 0 90 4c 65
        E 0 90 4d 66
        E 0 90 62 64
        E 0 90 63 66
        E 0 90 64 65
        E 0 90 65 66
        E 0 90 6c 65
        E 0 9f 51 64
        E 0 9f 69 64
        E 120 80 33 00
        E 0 80 34 00
        E 0 80 4a 00
        E 0 80 4b 00
        E 0 80 4c 00
        E 0 80 4d 00
        E 0 80 62 00
        E 0 80 63 00
        E 0 80 64 00
        E 0 80 65 00
        E 0 80 6c 00
        E 0 8f 51 00
        E 0 8f 69 00
        E 120 90 33 66
        E 0 90 34 65
        E 0 90 4a 64
        E 0 90 4b 66
        E 0 90 4c 65
        E 0 90 4d 66
        E 0 90 62 64
        E 0 90 63 66
        E 0 90 64 65
        E 0 90 65 66
        E 0 9d 51 64
        E 0 9d 69 64
        E 120 80 33 00
        E 0 80 34 00
        E 0 80 4a 00
        E 0 80 4b 00
        E 0 80 4c 00
        E 0 80 4d 00
        E 0 80 62 00
        E 0 80 63 00
        E 0 80 64 00
        E 0 80 65 00
        E 0 8d 51 00
        E 0 8d 69 00
        E 120 90 33 66
        E 0 90 34 65
        E 0 90 4a 64
        E 0 90 4b 66
        E 0 90 4c 65
        E 0 90 4d 66
        E 0 90 62 64
        E 0 90 63 66
        E 0 90 64 65
        E 0 90 65 66
        E 0 9f 51 64
        E 0 9f 69 64
        E 120 80 33 00
        E 0 80 34 00
        E 0 80 4a 00
        E 0 80 4b 00
        E 0 80 4c 00
        E 0 80 4d 00
        E 0 80 62 00
        E 0 80 63 00
        E 0 80 64 00
        E 0 80 65 00
        E 0 8f 51 00
        E 0 8f 69 00
        E 120 90 6c 66
        E 0 93 48 67
        E 0 93 49 66
        E 0 93 4a 64
        E 0 93 4b 64
        E 0 93 4c 64
        E 0 93 4d 67
        E 0 93 60 67
        E 0 93 61 66
        E 0 93 62 64
        E 0 93 63 64
        E 0 93 64 64
        E 0 93 65 67
        E 120 80 6c 00
        E 0 83 48 00
        E 0 83 49 00
        E 0 83 4a 00
        E 0 83 4b 00
        E 0 83 4c 00
        E 0 83 4d 00
        E 0 83 60 00
        E 0 83 61 00
        E 0 83 62 00
        E 0 83 63 00
        E 0 83 64 00
        E 0 83 65 00
        E 120 90 07 64
        E 0 90 18 67
        E 0 90 30 67
        E 0 90 31 66
        E 0 90 48 67
        E 0 90 49 66
        E 0 90 4a 64
        E 0 90 4b 64
        E 0 90 4c 64
        E 0 90 4d 67
        E 0 90 60 67
        E 0 90 61 66
        E 0 90 62 64
        E 0 90 63 64
        E 0 90 64 64
        E 0 90 65 67
        E 0 9f 51 64
        E 0 9f 69 64
        E 120 80 07 00
        E 0 80 18 00
        E 0 80 30 00
        E 0 80 31 00
        E 240 80 48 00
        E 0 80 49 00
        E 0 80 4a 00
        E 0 80 4b 00
        E 0 80 4c 00
        E 0 80 4d 00
        E 0 80 60 00
        E 0 80 61 00
        E 0 80 62 00
        E 0 80 63 00
        E 0 80 64 00
        E 0 80 65 00
        E 0 8f 51 00
        E 0 8f 69 00
        E 120 90 30 67
        E 0 90 31 66
        E 0 90 48 67
        E 0 90 49 66
        E 0 90 4a 64
        E 0 90 4b 64
        E 0 90 4c 64
        E 0 90 4d 67
        E 0 90 60 67
        E 0 90 61 66
        E 0 90 62 64
        E 0 90 63 64
        E 0 90 64 64
        E 0 90 65 67
        E 0 9f 51 64
        E 0 9f 69 64
        E 120 80 30 00
        E 0 80 31 00
        E 0 80 48 00
        E 0 80 49 00
        E 0 80 4a 00
        E 0 80 4b 00
        E 0 80 4c 00
        E 0 80 4d 00
        E 0 80 60 00
        E 0 80 61 00
        E 0 80 62 00
        E 0 80 63 00
        E 0 80 64 00
        E 0 80 65 00
        E 0 8f 51 00
        E 0 8f 69 00
        E 120 93 48 66
        E 0 93 49 66
        E 0 93 4a 64
        E 0 93 4b 64
        E 0 93 4c 64
        E 0 93 4d 67
        E 0 93 60 66
        E 0 93 61 66
        E 0 93 62 64
        E 0 93 63 64
        E 0 93 64 64
        E 0 93 65 67
        E 120 83 48 00
        E 0 83 49 00
        E 0 83 4a 00
        E 0 83 4b 00
        E 0 83 4c 00
        E 0 83 4d 00
        E 0 83 60 00
        E 0 83 61 00
        E 0 83 62 00
        E 0 83 63 00
        E 0 83 64 00
        E 0 83 65 00
        E 120 90 07 64
        E 0 90 10 64
        E 0 90 18 66
        E 0 90 30 66
        E 0 90 31 66
        E 0 90 48 66
        E 0 90 49 66
        E 0 90 4a 64
        E 0 90 4b 64
        E 0 90 4c 64
        E 0 90 4d 67
        E 0 90 60 66
        E 0 90 61 66
        E 0 90 62 64
        E 0 90 63 64
        E 0 90 64 64
        E 0 90 65 67
        E 0 9f 51 64
        E 0 9f 69 64
        E 120 80 07 00
        E 0 80 10 00
        E 0 80 18 00
        E 0 80 30 00
        E 0 80 31 00
        E 0 80 48 00
        E 0 80 49 00
        E 0 80 4a 00
        E 0 80 4b 00
        E 0 80 4c 00
        E 0 80 4d 00
        E 120 90 30 66
        E 0 90 31 66
        E 0 90 48 66
        E 0 90 49 66
        E 0 90 4a 64
        E 0 90 4b 64
        E 0 90 4c 64
        E 0 90 4d 67
        E 120 80 60 00
        E 0 80 61 00
        E 0 80 62 00
        E 0 80 63 00
        E 0 80 64 00
        E 0 80 65 00
        E 0 80 30 00
        E 0 80 31 00
        E 0 80 48 00
        E 0 80 49 00
        E 0 80 4a 00
        E 0 80 4b 00
        E 0 80 4c 00
        E 0 80 4d 00
        E 0 8f 51 00
        E 0 8f 69 00
        E 120 90 30 66
        E 0 90 31 66
        E 0 90 48 66
        E 0 90 49 66
        E 0 90 4a 64
        E 0 90 4b 64
        E 0 90 4c 64
        E 0 90 4d 67
        E 0 90 60 66
        E 0 90 61 66
        E 0 90 62 64
        E 0 90 63 64
        E 0 90 64 64
        E 0 90 65 67
        E 0 9f 51 64
        E 0 9f 69 64
        E 120 80 30 00
        E 0 80 31 00
        E 0 80 48 00
        E 0 80 49 00
        E 0 80 4a 00
        E 0 80 4b 00
        E 0 80 4c 00
        E 0 80 4d 00
        E 0 80 60 00
        E 0 80 61 00
        E 0 80 62 00
        E 0 80 63 00
        E 0 80 64 00
        E 0 80 65 00
        E 0 8f 51 00
        E 0 8f 69 00
        E 120 93 48 64
        E 0 93 49 66
        E 0 93 4a 66
        E 0 93 4b 64
        E 0 93 4c 64
        E 0 93 4d 64
        E 0 93 60 64
        E 0 93 61 66
        E 0 93 62 66
        E 0 93 63 64
        E 0 93 64 64
        E 0 93 65 64
        E 120 83 48 00
        E 0 83 49 00
        E 0 83 4a 00
        E 0 83 4b 00
        E 0 83 4c 00
        E 0 83 4d 00
        E 0 83 60 00
        E 0 83 61 00
        E 0 83 62 00
        E 0 83 63 00
        E 0 83 64 00
        E 0 83 65 00
        E 120 90 04 64
        E 0 90 19 66
        E 0 90 31 66
        E 0 90 32 66
        E 0 90 48 64
        E 0 90 49 66
        E 0 90 4a 66
        E 0 90 4b 64
        E 0 90 4c 64
        E 0 90 4d 64
        E 0 90 60 64
        E 0 90 61 66
        E 0 90 62 66
        E 0 90 63 64
        E 0 90 64 64
        E 0 90 65 64
        E 0 9f 51 64
        E 0 9f 69 64
        E 120 80 04 00
        E 0 80 19 00
        E 0 80 31 00
        E 0 80 32 00
        E 240 80 48 00
        E 0 80 49 00
        E 0 80 4a 00
        E 0 80 4b 00
        E 0 80 4c 00
        E 0 80 4d 00
        E 0 80 60 00
        E 0 80 61 00
        E 0 80 62 00
        E 0 80 63 00
        E 0 80 64 00
        E 0 80 65 00
        E 0 8f 51 00
        E 0 8f 69 00
        E 120 90 19 66
        E 0 90 31 66
        E 0 90 32 66
        E 0 90 48 64
        E 0 90 49 66
        E 0 90 4a 66
        E 0 90 4b 64
        E 0 90 4c 64
        E 0 90 4d 64
        E 0 90 60 64
        E 0 90 61 66
        E 0 90 62 66
        E 0 90 63 64
        E 0 90 64 64
        E 0 90 65 64
        E 0 9f 51 64
        E 0 9f 69 64
        E 120 80 19 00
        E 0 80 31 00
        E 0 80 32 00
        E 0 80 48 00
        E 0 80 49 00
        E 0 80 4a 00
        E 0 80 4b 00
        E 0 80 4c 00
        E 0 80 4d 00
        E 0 80 60 00
        E 0 80 61 00
        E 0 80 62 00
        E 0 80 63 00
        E 0 80 64 00
        E 0 80 65 00
        E 0 8f 51 00
        E 0 8f 69 00
        E 120 90 31 66
        E 0 90 32 66
        E 0 90 48 64
        E 0 90 49 66
        E 0 90 4a 66
        E 0 90 4b 64
        E 0 90 4c 64
        E 0 90 4d 64
        E 0 90 60 64
        E 0 90 61 66
        E 0 90 62 66
        E 0 90 63 64
        E 0 90 64 64
        E 0 90 65 64
        E 0 9d 51 64
        E 0 9d 69 64
        E 120 80 31 00
        E 0 80 32 00
        E 0 80 48 00
        E 0 80 49 00
        E 0 80 4a 00
        E 0 80 4b 00
        E 0 80 4c 00
        E 0 80 4d 00
        E 0 80 60 00
        E 0 80 61 00
        E 0 80 62 00
        E 0 80 63 00
        E 0 80 64 00
        E 0 80 65 00
        E 0 8d 51 00
        E 0 8d 69 00
        E 120 90 19 66
        E 0 90 31 66
        E 0 90 32 66
        E 0 90 48 64
        E 0 90 49 66
        E 0 90 4a 66
        E 0 90 4b 64
        E 0 90 4c 64
        E 0 90 4d 64
        E 0 90 60 64
        E 0 90 61 66
        E 0 90 62 66
        E 0 90 63 64
        E 0 90 64 64
        E 0 90 65 64
        E 0 9f 51 64
        E 0 9f 69 64
        E 120 80 19 00
        E 0 80 31 00
        E 0 80 32 00
        E 0 80 48 00
        E 0 80 49 00
        E 0 80 4a 00
        E 0 80 4b 00
        E 0 80 4c 00
        E 0 80 4d 00
        E 0 80 60 00
        E 0 80 61 00
        E 0 80 62 00
        E 0 80 63 00
        E 0 80 64 00
        E 0 80 65 00
        E 0 8f 51 00
        E 0 8f 69 00
        E 120 90 31 66
        E 0 90 32 66
        E 0 90 48 64
        E 0 90 49 66
        E 0 90 4a 66
        E 0 90 4b 64
        E 0 90 4c 64
        E 0 90 4d 64
        E 0 90 60 64
        E 0 90 61 66
        E 0 90 62 66
        E 0 90 63 64
        E 0 90 64 64
        E 0 90 65 64
        E 0 9d 51 64
        E 0 9d 69 64
        E 120 80 31 00
        E 0 80 32 00
        E 0 80 48 00
        E 0 80 49 00
        E 0 80 4a 00
        E 0 80 4b 00
        E 0 80 4c 00
        E 0 80 4d 00
        E 0 80 60 00
        E 0 80 61 00
        E 0 80 62 00
        E 0 80 63 00
        E 0 80 64 00
        E 0 80 65 00
        E 0 8d 51 00
        E 0 8d 69 00
        E 120 90 31 66
        E 0 90 32 66
        E 0 90 48 64
        E 0 90 49 66
        E 0 90 4a 66
        E 0 90 4b 64
        E 0 90 4c 64
        E 0 90 4d 64
        E 0 90 60 64
        E 0 90 61 66
        E 0 90 62 66
        E 0 90 63 64
        E 0 90 64 64
        E 0 90 65 64
        E 0 9f 51 64
        E 0 9f 69 64
        E 120 80 31 00
        E 0 80 32 00
        E 0 80 48 00
        E 0 80 49 00
        E 0 80 4a 00
        E 0 80 4b 00
        E 0 80 4c 00
        E 0 80 4d 00
        E 0 80 60 00
        E 0 80 61 00
        E 0 80 62 00
        E 0 80 63 00
        E 0 80 64 00
        E 0 80 65 00
        E 0 8f 51 00
        E 0 8f 69 00
        E 120 90 6c 65
        E 0 93 49 67
        E 0 93 4a 66
        E 0 93 4b 64
        E 0 93 4c 65
        E 0 93 4d 64
        E 0 93 61 67
        E 0 93 62 66
        E 0 93 63 64
        E 0 93 64 65
        E 0 93 65 64
        E 120 80 6c 00
        E 0 83 49 00
        E 0 83 4a 00
        E 0 83 4b 00
        E 0 83 4c 00
        E 0 83 4d 00
        E 0 83 61 00
        E 0 83 62 00
        E 0 83 63 00
        E 0 83 64 00
        E 0 83 65 00
        E 120 90 0c 64
        E 0 90 31 67
        E 0 90 32 66
        E 0 90 49 67
        E 0 90 4a 66
        E 0 90 4b 64
        E 0 90 4c 65
        E 0 90 4d 64
        E 0 90 61 67
        E 0 90 62 66
        E 0 90 63 64
        E 0 90 64 65
        E 0 90 65 64
        E 0 90 74 60
        E 0 9f 51 64
        E 0 9f 69 64
        E 120 80 0c 00
        E 0 80 31 00
        E 0 80 32 00
        E 240 80 49 00
        E 0 80 4a 00
        E 0 80 4b 00
        E 0 80 4c 00
        E 0 80 4d 00
        E 0 80 61 00
        E 0 80 62 00
        E 0 80 63 00
        E 0 80 64 00
        E 0 80 65 00
        E 0 8f 51 00
        E 0 8f 69 00
        E 120 90 31 67
        E 0 90 32 66
        E 0 90 49 67
        E 0 90 4a 66
        E 0 90 4b 64
        E 0 90 4c 65
        E 0 90 4d 64
        E 0 90 61 67
        E 0 90 62 66
        E 0 90 63 64
        E 0 90 64 65
        E 0 90 65 64
        E 0 9f 51 64
        E 0 9f 69 64
        E 120 80 31 00
        E 0 80 32 00
        E 0 80 49 00
        E 0 80 4a 00
        E 0 80 4b 00
        E 0 80 4c 00
        E 0 80 4d 00
        E 0 80 61 00
        E 0 80 62 00
        E 0 80 63 00
        E 0 80 64 00
        E 0 80 65 00
        E 0 8f 51 00
        E 0 8f 69 00
        E 120 93 49 67
        E 0 93 4a 66
        E 0 93 4b 64
        E 0 93 4c 65
        E 0 93 4d 64
        E 0 93 61 67
        E 0 93 62 66
        E 0 93 63 64
        E 0 93 64 65
        E 0 93 65 64
        E 120 83 49 00
        E 0 83 4a 00
        E 0 83 4b 00
        E 0 83 4c 00
        E 0 83 4d 00
        E 0 83 61 00
        E 0 83 62 00
        E 0 83 63 00
        E 0 83 64 00
        E 0 83 65 00
        E 120 90 0c 64
        E 0 90 10 64
        E 0 90 31 66
        E 0 90 32 66
        E 0 90 49 66
        E 0 90 4a 66
        E 0 90 4b 64
        E 0 90 4c 65
        E 0 90 4d 64
        E 0 90 61 66
        E 0 90 62 66
        E 0 90 63 64
        E 0 90 64 65
        E 0 90 65 64
        E 0 9f 51 64
        E 0 9f 69 64
        E 120 80 0c 00
        E 0 80 10 00
        E 0 80 31 00
        E 0 80 32 00
        E 0 80 49 00
        E 0 80 4a 00
        E 0 80 4b 00
        E 0 80 4c 00
        E 0 80 4d 00
        E 0 80 61 00
        E 0 80 62 00
        E 0 80 63 00
        E 0 80 64 00
        E 0 80 65 00
        E 0 8f 51 00
        E 0 8f 69 00
        E 120 90 49 66
        E 0 90 4a 66
        E 0 90 4b 64
        E 0 90 4c 65
        E 0 90 4d 64
        E 0 90 61 66
        E 0 90 62 66
        E 0 90 63 64
        E 0 90 64 65
        E 0 90 65 64
        E 0 9d 51 64
        E 0 9d 69 64
        E 120 80 49 00
        E 0 80 4a 00
        E 0 80 4b 00
        E 0 80 4c 00
        E 0 80 4d 00
        E 0 80 61 00
        E 0 80 62 00
        E 0 80 63 00
        E 0 80 64 00
        E 0 80 65 00
        E 0 8d 51 00
        E 0 8d 69 00
        E 120 90 31 66
        E 0 90 32 66
        E 0 90 49 66
        E 0 90 4a 66
        E 0 90 4b 64
        E 0 90 4c 65
        E 0 90 4d 64
        E 0 90 61 66
        E 0 90 62 66
        E 0 90 63 64
        E 0 90 64 65
        E 0 90 65 64
        E 0 9f 51 64
        E 0 9f 69 64
        E 120 80 31 00
        E 0 80 32 00
        E 0 80 49 00
        E 0 80 4a 00
        E 0 80 4b 00
        E 0 80 4c 00
        E 0 80 4d 00
        E 0 80 61 00
        E 0 80 62 00
        E 0 80 63 00
        E 0 80 64 00
        E 0 80 65 00
        E 0 8f 51 00
        E 0 8f 69 00
        E 120 93 49 66
        E 0 93 4a 66
        E 0 93 4b 64
        E 0 93 4c 65
        E 0 93 4d 64
        E 0 93 61 66
        E 0 93 62 66
        E 0 93 63 64
        E 0 93 64 65
        E 0 93 65 64
        E 120 83 49 00
        E 0 83 4a 00
        E 0 83 4b 00
        E 0 83 4c 00
        E 0 83 4d 00
        E 0 83 61 00
        E 0 83 62 00
        E 0 83 63 00
        E 0 83 64 00
        E 0 83 65 00
        E 120 90 09 64
        E 0 90 1a 66
        E 0 90 32 66
        E 0 90 33 66
        E 0 90 49 64
        E 0 90 4a 66
        E 0 90 4b 66
        E 0 90 4c 65
        E 0 90 4d 64
        E 0 90 61 64
        E 0 90 62 66
        E 0 90 63 66
        E 0 90 64 65
        E 0 90 65 64
        E 0 9f 51 64
        E 0 9f 69 64
        E 120 80 09 00
        E 0 80 1a 00
        E 0 80 32 00
        E 0 80 33 00
        E 240 80 49 00
        E 0 80 4a 00
        E 0 80 4b 00
        E 0 80 4c 00
        E 0 80 4d 00
        E 0 80 61 00
        E 0 80 62 00
        E 0 80 63 00
        E 0 80 64 00
        E 0 80 65 00
        E 0 8f 51 00
        E 0 8f 69 00
        E 120 90 1a 66
        E 0 90 32 66
        E 0 90 33 66
        E 0 90 49 64
        E 0 90 4a 66
        E 0 90 4b 66
        E 0 90 4c 65
        E 0 90 4d 64
        E 0 90 61 64
        E 0 90 62 66
        E 0 90 63 66
        E 0 90 64 65
        E 0 90 65 64
        E 0 9f 51 64
        E 0 9f 69 64
        E 120 80 1a 00
        E 0 80 32 00
        E 0 80 33 00
        E 0 80 49 00
        E 0 80 4a 00
        E 0 80 4b 00
        E 0 80 4c 00
        E 0 80 4d 00
        E 0 80 61 00
        E 0 80 62 00
        E 0 80 63 00
        E 0 80 64 00
        E 0 80 65 00
        E 0 8f 51 00
        E 0 8f 69 00
        E 120 90 49 64
        E 0 90 4a 66
        E 0 90 4b 66
        E 0 90 4c 65
        E 0 90 4d 64
        E 0 90 61 64
        E 0 90 62 66
        E 0 90 63 66
        E 0 90 64 65
        E 0 90 65 64
        E 0 9d 51 64
        E 0 9d 69 64
        E 120 80 49 00
        E 0 80 4a 00
        E 0 80 4b 00
        E 0 80 4c 00
        E 0 80 4d 00
        E 0 80 61 00
        E 0 80 62 00
        E 0 80 63 00
        E 0 80 64 00
        E 0 80 65 00
        E 0 8d 51 00
        E 0 8d 69 00
        E 120 90 1a 66
        E 0 90 32 66
        E 0 90 33 66
        E 0 90 49 64
        E 0 90 4a 66
        E 0 90 4b 66
        E 0 90 4c 65
        E 0 90 4d 64
        E 0 90 61 64
        E 0 90 62 66
        E 0 90 63 66
        E 0 90 64 65
        E 0 90 65 64
        E 0 9f 51 64
        E 0 9f 69 64
        E 120 80 1a 00
        E 0 80 32 00
        E 0 80 33 00
        E 0 80 49 00
        E 0 80 4a 00
        E 0 80 4b 00
        E 0 80 4c 00
        E 0 80 4d 00
        E 0 80 61 00
        E 0 80 62 00
        E 0 80 63 00
        E 0 80 64 00
        E 0 80 65 00
        E 0 8f 51 00
        E 0 8f 69 00
        E 120 90 49 64
        E 0 90 4a 66
        E 0 90 4b 66
        E 0 90 4c 64
        E 0 90 4d 64
        E 0 90 61 64
        E 0 90 62 66
        E 0 90 63 66
        E 0 90 64 64
        E 0 90 65 64
        E 0 9d 51 64
        E 0 9d 69 64
        E 120 80 49 00
        E 0 80 4a 00
        E 0 80 4b 00
        E 0 80 4c 00
        E 0 80 4d 00
        E 0 80 61 00
        E 0 80 62 00
        E 0 80 63 00
        E 0 80 64 00
        E 0 80 65 00
        E 0 8d 51 00
        E 0 8d 69 00
        E 120 90 1a 66
        E 0 90 32 66
        E 0 90 33 66
        E 0 90 49 64
        E 0 90 4a 66
        E 0 90 4b 66
        E 0 90 4c 64
        E 0 90 4d 64
        E 0 90 61 64
        E 0 90 62 66
        E 0 90 63 66
        E 0 90 64 64
        E 0 90 65 64
        E 0 9d 51 64
        E 0 9d 69 64
        E 120 80 1a 00
        E 0 80 32 00
        E 0 80 33 00
        E 0 80 49 00
        E 0 80 4a 00
        E 0 80 4b 00
        E 0 80 4c 00
        E 0 80 4d 00
        E 0 80 61 00
        E 0 80 62 00
        E 0 80 63 00
        E 0 80 64 00
        E 0 80 65 00
        E 0 8d 51 00
        E 0 8d 69 00
        E 120 90 6c 66
        E 0 93 48 67
        E 0 93 49 66
        E 0 93 4a 64
        E 0 93 4b 64
        E 0 93 4c 64
        E 0 93 4d 67
        E 0 93 60 67
        E 0 93 61 66
        E 0 93 62 64
        E 0 93 63 64
        E 0 93 64 64
        E 0 93 65 67
        E 120 80 6c 00
        E 0 83 48 00
        E 0 83 49 00
        E 0 83 4a 00
        E 0 83 4b 00
        E 0 83 4c 00
        E 0 83 4d 00
        E 0 83 60 00
        E 0 83 61 00
        E 0 83 62 00
        E 0 83 63 00
        E 0 83 64 00
        E 0 83 65 00
        E 120 80 74 00
        E 0 90 07 64
        E 0 90 18 67
        E 0 90 30 67
        E 0 90 31 66
        E 0 90 48 67
        E 0 90 49 66
        E 0 90 4a 64
        E 0 90 4b 64
        E 0 90 4c 64
        E 0 90 4d 67
        E 0 90 60 67
        E 0 90 61 66
        E 0 90 62 64
        E 0 90 63 64
        E 0 90 64 64
        E 0 90 65 67
        E 0 9f 51 64
        E 0 9f 69 64
        E 120 80 07 00
        E 0 80 18 00
        E 0 80 30 00
        E 0 80 31 00
        E 240 80 48 00
        E 0 80 49 00
        E 0 80 4a 00
        E 0 80 4b 00
        E 0 80 4c 00
        E 0 80 4d 00
        E 0 80 60 00
        E 0 80 61 00
        E 0 80 62 00
        E 0 80 63 00
        E 0 80 64 00
        E 0 80 65 00
        E 0 8f 51 00
        E 0 8f 69 00
        E 120 90 30 67
        E 0 90 31 66
        E 0 90 48 67
        E 0 90 49 66
        E 0 90 4a 64
        E 0 90 4b 64
        E 0 90 4c 64
        E 0 90 4d 67
        E 0 90 60 67
        E 0 90 61 66
        E 0 90 62 64
        E 0 90 63 64
        E 0 90 64 64
        E 0 90 65 67
        E 0 9f 51 64
        E 0 9f 69 64
        E 120 80 30 00
        E 0 80 31 00
        E 0 80 48 00
        E 0 80 49 00
        E 0 80 4a 00
        E 0 80 4b 00
        E 0 80 4c 00
        E 0 80 4d 00
        E 0 80 60 00
        E 0 80 61 00
        E 0 80 62 00
        E 0 80 63 00
        E 0 80 64 00
        E 0 80 65 00
        E 0 8f 51 00
        E 0 8f 69 00
        E 120 93 48 66
        E 0 93 49 66
        E 0 93 4a 64
        E 0 93 4b 64
        E 0 93 4c 64
        E 0 93 4d 67
        E 0 93 60 66
        E 0 93 61 66
        E 0 93 62 64
        E 0 93 63 64
        E 0 93 64 64
        E 0 93 65 67
        E 120 83 48 00
        E 0 83 49 00
        E 0 83 4a 00
        E 0 83 4b 00
        E 0 83 4c 00
        E 0 83 4d 00
        E 0 83 60 00
        E 0 83 61 00
        E 0 83 62 00
        E 0 83 63 00
        E 0 83 64 00
        E 0 83 65 00
        E 120 90 07 64
        E 0 90 10 64
        E 0 90 18 66
        E 0 90 30 66
        E 0 90 31 66
        E 0 90 48 66
        E 0 90 49 66
        E 0 90 4a 64
        E 0 90 4b 64
        E 0 90 4c 64
        E 0 90 4d 67
        E 0 90 60 66
        E 0 90 61 66
        E 0 90 62 64
        E 0 90 63 64
        E 0 90 64 64
        E 0 90 65 67
        E 0 9f 51 64
        E 0 9f 69 64
        E 120 80 07 00
        E 0 80 10 00
        E 0 80 18 00
        E 0 80 30 00
        E 0 80 31 00
        E 240 80 48 00
        E 0 80 49 00
        E 0 80 4a 00
        E 0 80 4b 00
        E 0 80 4c 00
        E 0 80 4d 00
        E 0 80 60 00
        E 0 80 61 00
        E 0 80 62 00
        E 0 80 63 00
        E 0 80 64 00
        E 0 80 65 00
        E 0 8f 51 00
        E 0 8f 69 00
        E 120 90 30 66
        E 0 90 31 66
        E 0 90 48 66
        E 0 90 49 66
        E 0 90 4a 64
        E 0 90 4b 64
        E 0 90 4c 64
        E 0 90 4d 67
        E 0 90 60 66
        E 0 90 61 66
        E 0 90 62 64
        E 0 90 63 64
        E 0 90 64 64
        E 0 90 65 67
        E 0 9f 51 64
        E 0 9f 69 64
        E 120 80 30 00
        E 0 80 31 00
        E 0 80 48 00
        E 0 80 49 00
        E 0 80 4a 00
        E 0 80 4b 00
        E 0 80 4c 00
        E 0 80 4d 00
        E 0 80 60 00
        E 0 80 61 00
        E 0 80 62 00
        E 0 80 63 00
        E 0 80 64 00
        E 0 80 65 00
        E 0 8f 51 00
        E 0 8f 69 00
        E 120 93 48 64
        E 0 93 49 66
        E 0 93 4a 66
        E 0 93 4b 64
        E 0 93 4c 64
        E 0 93 4d 64
        E 0 93 60 64
        E 0 93 61 66
        E 0 93 62 66
        E 0 93 63 64
        E 0 93 64 64
        E 0 93 65 64
        E 120 83 48 00
        E 0 83 49 00
        E 0 83 4a 00
        E 0 83 4b 00
        E 0 83 4c 00
        E 0 83 4d 00
        E 0 83 60 00
        E 0 83 61 00
        E 0 83 62 00
        E 0 83 63 00
        E 0 83 64 00
        E 0 83 65 00
        E 120 90 04 64
        E 0 90 19 66
        E 0 90 31 66
        E 0 90 32 66
        E 0 90 48 64
        E 0 90 49 66
        E 0 90 4a 66
        E 0 90 4b 64
        E 0 90 4c 64
        E 0 90 4d 64
        E 0 90 60 64
        E 0 90 61 66
        E 0 90 62 66
        E 0 90 63 64
        E 0 90 64 64
        E 0 90 65 64
        E 0 9f 51 64
        E 0 9f 69 64
        E 120 80 04 00
        E 0 80 19 00
        E 0 80 31 00
        E 0 80 32 00
        E 240 80 48 00
        E 0 80 49 00
        E 0 80 4a 00
        E 0 80 4b 00
        E 0 80 4c 00
        E 0 80 4d 00
        E 0 80 60 00
        E 0 80 61 00
        E 0 80 62 00
        E 0 80 63 00
        E 0 80 64 00
        E 0 80 65 00
        E 0 8f 51 00
        E 0 8f 69 00
        E 120 90 19 66
        E 0 90 31 66
        E 0 90 32 66
        E 0 90 48 64
        E 0 90 49 66
        E 0 90 4a 66
        E 0 90 4b 64
        E 0 90 4c 64
        E 0 90 4d 64
        E 0 90 60 64
        E 0 90 61 66
        E 0 90 62 66
        E 0 90 63 64
        E 0 90 64 64
        E 0 90 65 64
        E 0 9f 51 64
        E 0 9f 69 64
        E 120 80 19 00
        E 0 80 31 00
        E 0 80 32 00
        E 0 80 48 00
        E 0 80 49 00
        E 0 80 4a 00
        E 0 80 4b 00
        E 0 80 4c 00
        E 0 80 4d 00
        E 0 80 60 00
        E 0 80 61 00
        E 0 80 62 00
        E 0 80 63 00
        E 0 80 64 00
        E 0 80 65 00
        E 0 8f 51 00
        E 0 8f 69 00
        E 120 90 31 66
        E 0 90 32 66
        E 0 90 48 64
        E 0 90 49 66
        E 0 90 4a 66
        E 0 90 4b 64
        E 0 90 4c 64
        E 0 90 4d 64
        E 0 90 60 64
        E 0 90 61 66
        E 0 90 62 66
        E 0 90 63 64
        E 0 90 64 64
        E 0 90 65 64
        E 0 9d 51 64
        E 0 9d 69 64
        E 120 80 31 00
        E 0 80 32 00
        E 0 80 48 00
        E 0 80 49 00
        E 0 80 4a 00
        E 0 80 4b 00
        E 0 80 4c 00
        E 0 80 4d 00
        E 0 80 60 00
        E 0 80 61 00
        E 0 80 62 00
        E 0 80 63 00
        E 0 80 64 00
        E 0 80 65 00
        E 0 8d 51 00
        E 0 8d 69 00
        E 120 90 19 66
        E 0 90 31 66
        E 0 90 32 66
        E 0 90 48 64
        E 0 90 49 66
        E 0 90 4a 66
        E 0 90 4b 64
        E 0 90 4c 64
        E 0 90 4d 64
        E 0 90 60 64
        E 0 90 61 66
        E 0 90 62 66
        E 0 90 63 64
        E 0 90 64 64
        E 0 90 65 64
        E 0 9f 51 64
        E 0 9f 69 64
        E 120 80 19 00
        E 0 80 31 00
        E 0 80 32 00
        E 0 80 48 00
        E 0 80 49 00
        E 0 80 4a 00
        E 0 80 4b 00
        E 0 80 4c 00
        E 0 80 4d 00
        E 120 90 31 66
        E 0 90 32 66
        E 0 90 48 64
        E 0 90 49 66
        E 0 90 4a 66
        E 0 90 4b 64
        E 0 90 4c 64
        E 0 90 4d 64
        E 120 80 60 00
        E 0 80 61 00
        E 0 80 62 00
        E 0 80 63 00
        E 0 80 64 00
        E 0 80 65 00
        E 0 80 31 00
        E 0 80 32 00
        E 0 80 48 00
        E 0 80 49 00
        E 0 80 4a 00
        E 0 80 4b 00
        E 0 80 4c 00
        E 0 80 4d 00
        E 0 8f 51 00
        E 0 8f 69 00
        E 120 90 31 66
        E 0 90 32 66
        E 0 90 48 64
        E 0 90 49 66
        E 0 90 4a 66
        E 0 90 4b 64
        E 0 90 4c 64
        E 0 90 4d 64
        E 0 90 60 64
        E 0 90 61 66
        E 0 90 62 66
        E 0 90 63 64
        E 0 90 64 64
        E 0 90 65 64
        E 0 9f 51 64
        E 0 9f 69 64
        E 120 80 31 00
        E 0 80 32 00
        E 0 80 48 00
        E 0 80 49 00
        E 0 80 4a 00
        E 0 80 4b 00
        E 0 80 4c 00
        E 0 80 4d 00
        E 0 80 60 00
        E 0 80 61 00
        E 0 80 62 00
        E 0 80 63 00
        E 0 80 64 00
        E 0 80 65 00
        E 0 8f 51 00
        E 0 8f 69 00
        E 120 90 6c 65
        E 0 93 49 67
        E 0 93 4a 66
        E 0 93 4b 64
        E 0 93 4c 65
        E 0 93 4d 64
        E 0 93 61 67
        E 0 93 62 66
        E 0 93 63 64
        E 0 93 64 65
        E 0 93 65 64
        E 120 80 6c 00
        E 0 83 49 00
        E 0 83 4a 00
        E 0 83 4b 00
        E 0 83 4c 00
        E 0 83 4d 00
        E 0 83 61 00
        E 0 83 62 00
        E 0 83 63 00
        E 0 83 64 00
        E 0 83 65 00
        E 120 90 0c 64
        E 0 90 31 67
        E 0 90 32 66
        E 0 90 49 67
        E 0 90 4a 66
        E 0 90 4b 64
        E 0 90 4c 65
        E 0 90 4d 64
        E 0 90 61 67
        E 0 90 62 66
        E 0 90 63 64
        E 0 90 64 65
        E 0 90 65 64
        E 0 9f 51 64
        E 0 9f 69 64
        E 120 80 0c 00
        E 0 80 31 00
        E 0 80 32 00
        E 240 80 49 00
        E 0 80 4a 00
        E 0 80 4b 00
        E 0 80 4c 00
        E 0 80 4d 00
        E 0 80 61 00
        E 0 80 62 00
        E 0 80 63 00
        E 0 80 64 00
        E 0 80 65 00
        E 0 8f 51 00
        E 0 8f 69 00
        E 120 90 31 67
        E 0 90 32 66
        E 0 90 49 67
        E 0 90 4a 66
        E 0 90 4b 64
        E 0 90 4c 65
        E 0 90 4d 64
        E 0 90 61 67
        E 0 90 62 66
        E 0 90 63 64
        E 0 90 64 65
        E 0 90 65 64
        E 0 9f 51 64
        E 0 9f 69 64
        E 120 80 31 00
        E 0 80 32 00
        E 0 80 49 00
        E 0 80 4a 00
        E 0 80 4b 00
        E 0 80 4c 00
        E 0 80 4d 00
        E 0 80 61 00
        E 0 80 62 00
        E 0 80 63 00
        E 0 80 64 00
        E 0 80 65 00
        E 0 8f 51 00
        E 0 8f 69 00
        E 120 93 49 67
        E 0 93 4a 66
        E 0 93 4b 64
        E 0 93 4c 65
        E 0 93 4d 64
        E 0 93 61 67
        E 0 93 62 66
        E 0 93 63 64
        E 0 93 64 65
        E 0 93 65 64
        E 120 83 49 00
        E 0 83 4a 00
        E 0 83 4b 00
        E 0 83 4c 00
        E 0 83 4d 00
        E 0 83 61 00
        E 0 83 62 00
        E 0 83 63 00
        E 0 83 64 00
        E 0 83 65 00
        E 120 90 0c 64
        E 0 90 10 64
        E 0 90 31 66
        E 0 90 32 66
        E 0 90 49 66
        E 0 90 4a 66
        E 0 90 4b 64
        E 0 90 4c 65
        E 0 90 4d 64
        E 0 90 61 66
        E 0 90 62 66
        E 0 90 63 64
        E 0 90 64 65
        E 0 90 65 64
        E 0 9f 51 64
        E 0 9f 69 64
        E 120 80 0c 00
        E 0 80 10 00
        E 0 80 31 00
        E 0 80 32 00
        E 0 80 61 00
        E 0 80 62 00
        E 0 80 63 00
        E 0 80 64 00
        E 0 80 65 00
        E 0 8f 51 00
        E 0 8f 69 00
        E 120 90 61 66
        E 0 90 62 66
        E 0 90 63 64
        E 0 90 64 65
        E 0 90 65 64
        E 0 9d 51 64
        E 0 9d 69 64
        E 120 80 49 00
        E 0 80 4a 00
        E 0 80 4b 00
        E 0 80 4c 00
        E 0 80 4d 00
        E 0 80 61 00
        E 0 80 62 00
        E 0 80 63 00
        E 0 80 64 00
        E 0 80 65 00
        E 0 8d 51 00
        E 0 8d 69 00
        E 120 90 31 66
        E 0 90 32 66
        E 0 90 49 66
        E 0 90 4a 66
        E 0 90 4b 64
        E 0 90 4c 65
        E 0 90 4d 64
        E 0 90 61 66
        E 0 90 62 66
        E 0 90 63 64
        E 0 90 64 65
        E 0 90 65 64
        E 0 9f 51 64
        E 0 9f 69 64
        E 120 80 31 00
        E 0 80 32 00
        E 0 80 49 00
        E 0 80 4a 00
        E 0 80 4b 00
        E 0 80 4c 00
        E 0 80 4d 00
        E 0 80 61 00
        E 0 80 62 00
        E 0 80 63 00
        E 0 80 64 00
        E 0 80 65 00
        E 0 8f 51 00
        E 0 8f 69 00
        E 120 93 49 66
        E 0 93 4a 66
        E 0 93 4b 64
        E 0 93 4c 65
        E 0 93 4d 64
        E 0 93 61 66
        E 0 93 62 66
        E 0 93 63 64
        E 0 93 64 65
        E 0 93 65 64
        E 120 83 49 00
        E 0 83 4a 00
        E 0 83 4b 00
        E 0 83 4c 00
        E 0 83 4d 00
        E 0 83 61 00
        E 0 83 62 00
        E 0 83 63 00
        E 0 83 64 00
        E 0 83 65 00
        E 120 90 09 64
        E 0 90 1a 66
        E 0 90 32 66
        E 0 90 33 66
        E 0 90 49 64
        E 0 90 4a 66
        E 0 90 4b 66
        E 0 90 4c 65
        E 0 90 4d 64
        E 0 90 61 64
        E 0 90 62 66
        E 0 90 63 66
        E 0 90 64 65
        E 0 90 65 64
        E 0 9f 51 64
        E 0 9f 69 64
        E 120 80 09 00
        E 0 80 1a 00
        E 0 80 32 00
        E 0 80 33 00
        E 240 80 49 00
        E 0 80 4a 00
        E 0 80 4b 00
        E 0 80 4c 00
        E 0 80 4d 00
        E 0 80 61 00
        E 0 80 62 00
        E 0 80 63 00
        E 0 80 64 00
        E 0 80 65 00
        E 0 8f 51 00
        E 0 8f 69 00
        E 120 90 1a 66
        E 0 90 32 66
        E 0 90 33 66
        E 0 90 49 64
        E 0 90 4a 66
        E 0 90 4b 66
        E 0 90 4c 65
        E 0 90 4d 64
        E 0 90 61 64
        E 0 90 62 66
        E 0 90 63 66
        E 0 90 64 65
        E 0 90 65 64
        E 0 9f 51 64
        E 0 9f 69 64
        E 120 80 1a 00
        E 0 80 32 00
        E 0 80 33 00
        E 0 80 49 00
        E 0 80 4a 00
        E 0 80 4b 00
        E 0 80 4c 00
        E 0 80 4d 00
        E 0 80 61 00
        E 0 80 62 00
        E 0 80 63 00
        E 0 80 64 00
        E 0 80 65 00
        E 0 8f 51 00
        E 0 8f 69 00
        E 120 90 49 64
        E 0 90 4a 66
        E 0 90 4b 66
        E 0 90 4c 65
        E 0 90 4d 64
        E 0 90 61 64
        E 0 90 62 66
        E 0 90 63 66
        E 0 90 64 65
        E 0 90 65 64
        E 0 9d 51 64
        E 0 9d 69 64
        E 120 80 49 00
        E 0 80 4a 00
        E 0 80 4b 00
        E 0 80 4c 00
        E 0 80 4d 00
        E 0 80 61 00
        E 0 80 62 00
        E 0 80 63 00
        E 0 80 64 00
        E 0 80 65 00
        E 0 8d 51 00
        E 0 8d 69 00
        E 120 90 1a 66
        E 0 90 32 66
        E 0 90 33 66
        E 0 90 49 64
        E 0 90 4a 66
        E 0 90 4b 66
        E 0 90 4c 65
        E 0 90 4d 64
        E 0 90 61 64
        E 0 90 62 66
        E 0 90 63 66
        E 0 90 64 65
        E 0 90 65 64
        E 0 9d 51 64
        E 0 9d 69 64
        E 120 80 1a 00
        E 0 80 32 00
        E 0 80 33 00
        E 0 80 49 00
        E 0 80 4a 00
        E 0 80 4b 00
        E 0 80 4c 00
        E 0 80 4d 00
        E 0 80 61 00
        E 0 80 62 00
        E 0 80 63 00
        E 0 80 64 00
        E 0 80 65 00
        E 0 8d 51 00
        E 0 8d 69 00
        E 120 90 49 64
        E 0 90 4a 66
        E 0 90 4b 66
        E 0 90 4c 64
        E 0 90 4d 64
        E 0 90 61 64
        E 0 90 62 66
        E 0 90 63 66
        E 0 90 64 64
        E 0 90 65 64
        E 0 9d 51 64
        E 0 9d 69 64
        E 120 80 49 00
        E 0 80 4a 00
        E 0 80 4b 00
        E 0 80 4c 00
        E 0 80 4d 00
        E 0 80 61 00
        E 0 80 62 00
        E 0 80 63 00
        E 0 80 64 00
        E 0 80 65 00
        E 0 8d 51 00
        E 0 8d 69 00
        E 120 90 1a 66
        E 0 90 32 66
        E 0 90 33 66
        E 0 90 49 64
        E 0 90 4a 66
        E 0 90 4b 66
        E 0 90 4c 64
        E 0 90 4d 64
        E 0 90 61 64
        E 0 90 62 66
        E 0 90 63 66
        E 0 90 64 64
        E 0 90 65 64
        E 0 9f 51 64
        E 0 9f 69 64
        E 120 80 1a 00
        E 0 80 32 00
        E 0 80 33 00
        E 0 80 49 00
        E 0 80 4a 00
        E 0 80 4b 00
        E 0 80 4c 00
        E 0 80 4d 00
        E 0 80 61 00
        E 0 80 62 00
        E 0 80 63 00
        E 0 80 64 00
        E 0 80 65 00
        E 0 8f 51 00
        E 0 8f 69 00
        E 120 90 6c 66
        E 0 93 48 67
        E 0 93 49 66
        E 0 93 4a 64
        E 0 93 4b 64
        E 0 93 4c 64
        E 0 93 4d 67
        E 0 93 60 67
        E 0 93 61 66
        E 0 93 62 64
        E 0 93 63 64
        E 0 93 64 64
        E 0 93 65 67
        E 120 80 6c 00
        E 0 83 48 00
        E 0 83 49 00
        E 0 83 4a 00
        E 0 83 4b 00
        E 0 83 4c 00
        E 0 83 4d 00
        E 0 83 60 00
        E 0 83 61 00
        E 0 83 62 00
        E 0 83 63 00
        E 0 83 64 00
        E 0 83 65 00
        E 120 90 07 64
        E 0 90 18 67
        E 0 90 30 67
        E 0 90 31 66
        E 0 90 48 67
        E 0 90 49 66
        E 0 90 4a 64
        E 0 90 4b 64
        E 0 90 4c 64
        E 0 90 4d 67
        E 0 90 60 67
        E 0 90 61 66
        E 0 90 62 64
        E 0 90 63 64
        E 0 90 64 64
        E 0 90 65 67
        E 0 9f 51 64
        E 0 9f 69 64
        E 120 80 07 00
        E 0 80 18 00
        E 0 80 30 00
        E 0 80 31 00
        E 240 80 48 00
        E 0 80 49 00
        E 0 80 4a 00
        E 0 80 4b 00
        E 0 80 4c 00
        E 0 80 4d 00
        E 0 80 60 00
        E 0 80 61 00
        E 0 80 62 00
        E 0 80 63 00
        E 0 80 64 00
        E 0 80 65 00
        E 0 8f 51 00
        E 0 8f 69 00
        E 120 90 30 67
        E 0 90 31 66
        E 0 90 48 67
        E 0 90 49 66
        E 0 90 4a 64
        E 0 90 4b 64
        E 0 90 4c 64
        E 0 90 4d 67
        E 0 90 60 67
        E 0 90 61 66
        E 0 90 62 64
        E 0 90 63 64
        E 0 90 64 64
        E 0 90 65 67
        E 0 9f 51 64
        E 0 9f 69 64
        E 120 80 30 00
        E 0 80 31 00
        E 0 80 48 00
        E 0 80 49 00
        E 0 80 4a 00
        E 0 80 4b 00
        E 0 80 4c 00
        E 0 80 4d 00
        E 0 80 60 00
        E 0 80 61 00
        E 0 80 62 00
        E 0 80 63 00
        E 0 80 64 00
        E 0 80 65 00
        E 0 8f 51 00
        E 0 8f 69 00
        E 120 93 48 66
        E 0 93 49 66
        E 0 93 4a 64
        E 0 93 4b 64
        E 0 93 4c 64
        E 0 93 4d 67
        E 0 93 60 66
        E 0 93 61 66
        E 0 93 62 64
        E 0 93 63 64
        E 0 93 64 64
        E 0 93 65 67
        E 120 83 48 00
        E 0 83 49 00
        E 0 83 4a 00
        E 0 83 4b 00
        E 0 83 4c 00
        E 0 83 4d 00
        E 0 83 60 00
        E 0 83 61 00
        E 0 83 62 00
        E 0 83 63 00
        E 0 83 64 00
        E 0 83 65 00
        E 120 90 07 64
        E 0 90 10 64
        E 0 90 18 66
        E 0 90 30 66
        E 0 90 31 66
        E 0 90 48 66
        E 0 90 49 66
        E 0 90 4a 64
        E 0 90 4b 64
        E 0 90 4c 64
        E 0 90 4d 67
        E 0 90 60 66
        E 0 90 61 66
        E 0 90 62 64
        E 0 90 63 64
        E 0 90 64 64
        E 0 90 65 67
        E 0 9f 51 64
        E 0 9f 69 64
        E 120 80 07 00
        E 0 80 10 00
        E 0 80 18 00
        E 0 80 30 00
        E 0 80 31 00
        E 0 80 48 00
        E 0 80 49 00
        E 0 80 4a 00
        E 0 80 4b 00
        E 0 80 4c 00
        E 0 80 4d 00
        E 0 80 60 00
        E 0 80 61 00
        E 0 80 62 00
        E 0 80 63 00
        E 0 80 64 00
        E 0 80 65 00
        E 0 8f 51 00
        E 0 8f 69 00
        E 120 90 30 66
        E 0 90 31 66
        E 0 90 48 66
        E 0 90 49 66
        E 0 90 4a 64
        E 0 90 4b 64
        E 0 90 4c 64
        E 0 90 4d 67
        E 0 90 60 66
        E 0 90 61 66
        E 0 90 62 64
        E 0 90 63 64
        E 0 90 64 64
        E 0 90 65 67
        E 0 9d 51 64
        E 0 9d 69 64
        E 120 80 30 00
        E 0 80 31 00
        E 0 80 48 00
        E 0 80 49 00
        E 0 80 4a 00
        E 0 80 4b 00
        E 0 80 4c 00
        E 0 80 4d 00
        E 0 80 60 00
        E 0 80 61 00
        E 0 80 62 00
        E 0 80 63 00
        E 0 80 64 00
        E 0 80 65 00
        E 0 8d 51 00
        E 0 8d 69 00
        E 120 90 30 66
        E 0 90 31 66
        E 0 90 48 66
        E 0 90 49 66
        E 0 90 4a 64
        E 0 90 4b 64
        E 0 90 4c 64
        E 0 90 4d 67
        E 0 90 60 66
        E 0 90 61 66
        E 0 90 62 64
        E 0 90 63 64
        E 0 90 64 64
        E 0 90 65 67
        E 0 9f 51 64
        E 0 9f 69 64
        E 120 80 30 00
        E 0 80 31 00
        E 0 80 48 00
        E 0 80 49 00
        E 0 80 4a 00
        E 0 80 4b 00
        E 0 80 4c 00
        E 0 80 4d 00
        E 0 80 60 00
        E 0 80 61 00
        E 0 80 62 00
        E 0 80 63 00
        E 0 80 64 00
        E 0 80 65 00
        E 0 8f 51 00
        E 0 8f 69 00
        E 120 93 48 64
        E 0 93 49 66
        E 0 93 4a 66
        E 0 93 4b 64
        E 0 93 4c 64
        E 0 93 4d 64
        E 0 93 60 64
        E 0 93 61 66
        E 0 93 62 66
        E 0 93 63 64
        E 0 93 64 64
        E 0 93 65 64
        E 120 83 48 00
        E 0 83 49 00
        E 0 83 4a 00
        E 0 83 4b 00
        E 0 83 4c 00
        E 0 83 4d 00
        E 0 83 60 00
        E 0 83 61 00
        E 0 83 62 00
        E 0 83 63 00
        E 0 83 64 00
        E 0 83 65 00
        E 120 90 04 64
        E 0 90 19 66
        E 0 90 31 66
        E 0 90 32 66
        E 0 90 48 64
        E 0 90 49 66
        E 0 90 4a 66
        E 0 90 4b 64
        E 0 90 4c 64
        E 0 90 4d 64
        E 0 90 60 64
        E 0 90 61 66
        E 0 90 62 66
        E 0 90 63 64
        E 0 90 64 64
        E 0 90 65 64
        E 0 9f 51 64
        E 0 9f 69 64
        E 120 80 04 00
        E 0 80 19 00
        E 0 80 31 00
        E 0 80 32 00
        E 240 80 48 00
        E 0 80 49 00
        E 0 80 4a 00
        E 0 80 4b 00
        E 0 80 4c 00
        E 0 80 4d 00
        E 0 80 60 00
        E 0 80 61 00
        E 0 80 62 00
        E 0 80 63 00
        E 0 80 64 00
        E 0 80 65 00
        E 0 8f 51 00
        E 0 8f 69 00
        E 120 90 19 66
        E 0 90 31 66
        E 0 90 32 66
        E 0 90 48 64
        E 0 90 49 66
        E 0 90 4a 66
        E 0 90 4b 64
        E 0 90 4c 64
        E 0 90 4d 64
        E 0 90 60 64
        E 0 90 61 66
        E 0 90 62 66
        E 0 90 63 64
        E 0 90 64 64
        E 0 90 65 64
        E 0 9f 51 64
        E 0 9f 69 64
        E 120 80 19 00
        E 0 80 31 00
        E 0 80 32 00
        E 0 80 48 00
        E 0 80 49 00
        E 0 80 4a 00
        E 0 80 4b 00
        E 0 80 4c 00
        E 0 80 4d 00
        E 0 80 60 00
        E 0 80 61 00
        E 0 80 62 00
        E 0 80 63 00
        E 0 80 64 00
        E 0 80 65 00
        E 0 8f 51 00
        E 0 8f 69 00
        E 120 90 31 66
        E 0 90 32 66
        E 0 90 48 64
        E 0 90 49 66
        E 0 90 4a 66
        E 0 90 4b 64
        E 0 90 4c 64
        E 0 90 4d 64
        E 0 90 60 64
        E 0 90 61 66
        E 0 90 62 66
        E 0 90 63 64
        E 0 90 64 64
        E 0 90 65 64
        E 0 9d 51 64
        E 0 9d 69 64
        E 120 80 31 00
        E 0 80 32 00
        E 0 80 48 00
        E 0 80 49 00
        E 0 80 4a 00
        E 0 80 4b 00
        E 0 80 4c 00
        E 0 80 4d 00
        E 0 80 60 00
        E 0 80 61 00
        E 0 80 62 00
        E 0 80 63 00
        E 0 80 64 00
        E 0 80 65 00
        E 0 8d 51 00
        E 0 8d 69 00
        E 120 90 19 66
        E 0 90 31 66
        E 0 90 32 66
        E 0 90 48 64
        E 0 90 49 66
        E 0 90 4a 66
        E 0 90 4b 64
        E 0 90 4c 64
        E 0 90 4d 64
        E 0 90 60 64
        E 0 90 61 66
        E 0 90 62 66
        E 0 90 63 64
        E 0 90 64 64
        E 0 90 65 64
        E 0 9f 51 64
        E 0 9f 69 64
        E 120 80 19 00
        E 0 80 31 00
        E 0 80 32 00
        E 0 80 48 00
        E 0 80 49 00
        E 0 80 4a 00
        E 0 80 4b 00
        E 0 80 4c 00
        E 0 80 4d 00
        E 0 80 60 00
        E 0 80 61 00
        E 0 80 62 00
        E 0 80 63 00
        E 0 80 64 00
        E 0 80 65 00
        E 0 8f 51 00
        E 0 8f 69 00
        E 120 90 31 66
        E 0 90 32 66
        E 0 90 48 64
        E 0 90 49 66
        E 0 90 4a 66
        E 0 90 4b 64
        E 0 90 4c 64
        E 0 90 4d 64
        E 0 90 60 64
        E 0 90 61 66
        E 0 90 62 66
        E 0 90 63 64
        E 0 90 64 64
        E 0 90 65 64
        E 0 9d 51 64
        E 0 9d 69 64
        E 120 80 31 00
        E 0 80 32 00
        E 0 80 48 00
        E 0 80 49 00
        E 0 80 4a 00
        E 0 80 4b 00
        E 0 80 4c 00
        E 0 80 4d 00
        E 0 80 60 00
        E 0 80 61 00
        E 0 80 62 00
        E 0 80 63 00
        E 0 80 64 00
        E 0 80 65 00
        E 0 8d 51 00
        E 0 8d 69 00
        E 120 90 31 66
        E 0 90 32 66
        E 0 90 48 64
        E 0 90 49 66
        E 0 90 4a 66
        E 0 90 4b 64
        E 0 90 4c 64
        E 0 90 4d 64
        E 0 90 60 64
        E 0 90 61 66
        E 0 90 62 66
        E 0 90 63 64
        E 0 90 64 64
        E 0 90 65 64
        E 0 9f 51 64
        E 0 9f 69 64
        E 120 80 31 00
        E 0 80 32 00
        E 0 80 48 00
        E 0 80 49 00
        E 0 80 4a 00
        E 0 80 4b 00
        E 0 80 4c 00
        E 0 80 4d 00
        E 0 80 60 00
        E 0 80 61 00
        E 0 80 62 00
        E 0 80 63 00
        E 0 80 64 00
        E 0 80 65 00
        E 0 8f 51 00
        E 0 8f 69 00
        E 120 90 6c 65
        E 0 93 49 67
        E 0 93 4a 66
        E 0 93 4b 64
        E 0 93 4c 65
        E 0 93 4d 64
        E 0 93 61 67
        E 0 93 62 66
        E 0 93 63 64
        E 0 93 64 65
        E 0 93 65 64
        E 120 80 6c 00
        E 0 83 49 00
        E 0 83 4a 00
        E 0 83 4b 00
        E 0 83 4c 00
        E 0 83 4d 00
        E 0 83 61 00
        E 0 83 62 00
        E 0 83 63 00
        E 0 83 64 00
        E 0 83 65 00
        E 120 90 0c 64
        E 0 90 31 67
        E 0 90 32 66
        E 0 90 49 67
        E 0 90 4a 66
        E 0 90 4b 64
        E 0 90 4c 65
        E 0 90 4d 64
        E 0 90 61 67
        E 0 90 62 66
        E 0 90 63 64
        E 0 90 64 65
        E 0 90 65 64
        E 0 9f 51 64
        E 0 9f 69 64
        E 120 80 0c 00
        E 480 80 31 00
        E 0 80 32 00
        E 240 80 49 00
        E 0 80 4a 00
        E 0 80 4b 00
        E 0 80 4c 00
        E 0 80 4d 00
        E 0 80 61 00
        E 0 80 62 00
        E 0 80 63 00
        E 0 80 64 00
        E 0 80 65 00
        E 0 8f 51 00
        E 0 8f 69 00
        E 120 90 31 67
        E 0 90 32 66
        E 0 90 49 67
        E 0 90 4a 66
        E 0 90 4b 64
        E 0 90 4c 65
        E 0 90 4d 64
        E 0 90 61 67
        E 0 90 62 66
        E 0 90 63 64
        E 0 90 64 65
        E 0 90 65 64
        E 0 9f 51 64
        E 0 9f 69 64
        E 120 80 31 00
        E 0 80 32 00
        E 240 80 49 00
        E 0 80 4a 00
        E 0 80 4b 00
        E 0 80 4c 00
        E 0 80 4d 00
        E 0 80 61 00
        E 0 80 62 00
        E 0 80 63 00
        E 0 80 64 00
        E 0 80 65 00
        E 0 8f 51 00
        E 0 8f 69 00
        E 120 90 31 67
        E 0 90 32 66
        E 0 90 49 67
        E 0 90 4a 66
        E 0 90 4b 64
        E 0 90 4c 65
        E 0 90 4d 64
        E 0 90 61 67
        E 0 90 62 66
        E 0 90 63 64
        E 0 90 64 65
        E 0 90 65 64
        E 0 9f 51 64
        E 0 9f 69 64
        E 120 80 31 00
        E 0 80 32 00
        E 0 80 49 00
        E 0 80 4a 00
        E 0 80 4b 00
        E 0 80 4c 00
        E 0 80 4d 00
        E 0 80 61 00
        E 0 80 62 00
        E 0 80 63 00
        E 0 80 64 00
        E 0 80 65 00
        E 0 8f 51 00
        E 0 8f 69 00
        E 120 90 6c 66
        E 0 93 4a 64
        E 0 93 4b 66
        E 0 93 4c 67
        E 0 93 4d 66
        E 0 93 62 64
        E 0 93 63 66
        E 0 93 64 67
        E 0 93 65 66
        E 120 80 6c 00
        E 0 83 4a 00
        E 0 83 4b 00
        E 0 83 4c 00
        E 0 83 4d 00
        E 0 83 62 00
        E 0 83 63 00
        E 0 83 64 00
        E 0 83 65 00
        E 120 90 33 66
        E 0 90 34 67
        E 0 90 4a 64
        E 0 90 4b 66
        E 0 90 4c 67
        E 0 90 4d 66
        E 0 90 62 64
        E 0 90 63 66
        E 0 90 64 67
        E 0 90 65 66
        E 0 9e 0e 64
        E 0 9f 51 64
        E 0 9f 69 64
        E 120 80 33 00
        E 0 80 34 00
        E 0 8e 0e 00
        E 240 80 4a 00
        E 0 80 4b 00
        E 0 80 4c 00
        E 0 80 4d 00
        E 0 80 62 00
        E 0 80 63 00
        E 0 80 64 00
        E 0 80 65 00
        E 0 8f 51 00
        E 0 8f 69 00
        E 120 90 33 66
        E 0 90 34 67
        E 0 90 4a 64
        E 0 90 4b 66
        E 0 90 4c 67
        E 0 90 4d 66
        E 0 90 62 64
        E 0 90 63 66
        E 0 90 64 67
        E 0 90 65 66
        E 0 9f 51 64
        E 0 9f 69 64
        E 120 80 33 00
        E 0 80 34 00
        E 240 80 4a 00
        E 0 80 4b 00
        E 0 80 4c 00
        E 0 80 4d 00
        E 0 80 62 00
        E 0 80 63 00
        E 0 80 64 00
        E 0 80 65 00
        E 0 8f 51 00
        E 0 8f 69 00
        E 120 90 33 66
        E 0 90 34 67
        E 0 90 4a 64
        E 0 90 4b 66
        E 0 90 4c 67
        E 0 90 4d 66
        E 0 90 62 64
        E 0 90 63 66
        E 0 90 64 67
        E 0 90 65 66
        E 0 9f 51 64
        E 0 9f 69 64
        E 120 80 33 00
        E 0 80 34 00
        E 0 80 62 00
        E 0 80 63 00
        E 0 80 64 00
        E 0 80 65 00
        E 0 8f 51 00
        E 0 8f 69 00
        E 120 90 62 64
        E 0 90 63 66
        E 0 90 64 67
        E 0 90 65 66
        E 0 9d 51 64
        E 0 9d 69 64
        E 120 80 4a 00
        E 0 80 4b 00
        E 0 80 4c 00
        E 0 80 4d 00
        E 0 80 62 00
        E 0 80 63 00
        E 0 80 64 00
        E 0 80 65 00
        E 0 8d 51 00
        E 0 8d 69 00
        E 120 93 60 67
        E 0 93 61 66
        E 0 93 62 64
        E 0 93 63 64
        E 0 93 64 64
        E 0 93 65 67
        E 0 93 30 67
        E 0 93 31 66
        E 0 93 48 67
        E 0 93 49 66
        E 0 93 4a 64
        E 0 93 4b 64
        E 0 93 4c 64
        E 0 93 4d 67
        E 120 83 60 00
        E 0 83 61 00
        E 0 83 62 00
        E 0 83 63 00
        E 0 83 64 00
        E 0 83 65 00
        E 0 83 30 00
        E 0 83 31 00
        E 0 83 48 00
        E 0 83 49 00
        E 0 83 4a 00
        E 0 83 4b 00
        E 0 83 4c 00
        E 0 83 4d 00
        E 120 93 60 67
        E 0 93 61 66
        E 0 93 62 64
        E 0 93 63 64
        E 0 93 64 64
        E 0 93 65 67
        E 0 93 48 67
        E 0 93 49 66
        E 0 93 4a 64
        E 0 93 4b 64
        E 0 93 4c 64
        E 0 93 4d 67
        E 120 83 60 00
        E 0 83 61 00
        E 0 83 62 00
        E 0 83 63 00
        E 0 83 64 00
        E 0 83 65 00
        E 0 83 48 00
        E 0 83 49 00
        E 0 83 4a 00
        E 0 83 4b 00
        E 0 83 4c 00
        E 0 83 4d 00
        E 120 90 07 64
        E 0 90 18 67
        E 0 90 30 67
        E 0 90 31 66
        E 0 90 48 67
        E 0 90 49 66
        E 0 90 4a 64
        E 0 90 4b 64
        E 0 90 4c 64
        E 0 90 4d 67
        E 0 90 60 67
        E 0 90 61 66
        E 0 90 62 64
        E 0 90 63 64
        E 0 90 64 64
        E 0 90 65 67
        E 0 9f 51 64
        E 0 9f 69 64
        E 120 80 07 00
        E 0 80 18 00
        E 0 80 30 00
        E 0 80 31 00
        E 240 80 48 00
        E 0 80 49 00
        E 0 80 4a 00
        E 0 80 4b 00
        E 0 80 4c 00
        E 0 80 4d 00
        E 0 80 60 00
        E 0 80 61 00
        E 0 80 62 00
        E 0 80 63 00
        E 0 80 64 00
        E 0 80 65 00
        E 0 8f 51 00
        E 0 8f 69 00
        E 120 90 18 67
        E 0 90 30 67
        E 0 90 31 66
        E 0 90 48 67
        E 0 90 49 66
        E 0 90 4a 64
        E 0 90 4b 64
        E 0 90 4c 64
        E 0 90 4d 67
        E 0 90 60 67
        E 0 90 61 66
        E 0 90 62 64
        E 0 90 63 64
        E 0 90 64 64
        E 0 90 65 67
        E 0 9f 51 64
        E 0 9f 69 64
        E 120 80 18 00
        E 0 80 30 00
        E 0 80 31 00
        E 240 80 48 00
        E 0 80 49 00
        E 0 80 4a 00
        E 0 80 4b 00
        E 0 80 4c 00
        E 0 80 4d 00
        E 0 80 60 00
        E 0 80 61 00
        E 0 80 62 00
        E 0 80 63 00
        E 0 80 64 00
        E 0 80 65 00
        E 0 8f 51 00
        E 0 8f 69 00
        E 120 90 18 67
        E 0 90 30 67
        E 0 90 31 66
        E 0 90 48 67
        E 0 90 49 66
        E 0 90 4a 64
        E 0 90 4b 64
        E 0 90 4c 64
        E 0 90 4d 67
        E 0 90 60 67
        E 0 90 61 66
        E 0 90 62 64
        E 0 90 63 64
        E 0 90 64 64
        E 0 90 65 67
        E 0 9f 51 64
        E 0 9f 69 64
        E 120 80 18 00
        E 0 80 30 00
        E 0 80 31 00
        E 240 80 48 00
        E 0 80 49 00
        E 0 80 4a 00
        E 0 80 4b 00
        E 0 80 4c 00
        E 0 80 4d 00
        E 0 80 60 00
        E 0 80 61 00
        E 0 80 62 00
        E 0 80 63 00
        E 0 80 64 00
        E 0 80 65 00
        E 0 8f 51 00
        E 0 8f 69 00
        E 120 90 18 67
        E 0 90 30 67
        E 0 90 31 66
        E 0 90 48 67
        E 0 90 49 66
        E 0 90 4a 64
        E 0 90 4b 64
        E 0 90 4c 64
        E 0 90 4d 67
        E 0 90 60 67
        E 0 90 61 66
        E 0 90 62 64
        E 0 90 63 64
        E 0 90 64 64
        E 0 90 65 67
        E 0 9f 51 64
        E 0 9f 69 64
        E 120 80 18 00
        E 0 80 30 00
        E 0 80 31 00
        E 0 80 48 00
        E 0 80 49 00
        E 0 80 4a 00
        E 0 80 4b 00
        E 0 80 4c 00
        E 0 80 4d 00
        E 0 80 60 00
        E 0 80 61 00
        E 0 80 62 00
        E 0 80 63 00
        E 0 80 64 00
        E 0 80 65 00
        E 0 8f 51 00
        E 0 8f 69 00
        E 120 90 6c 65
        E 0 93 49 67
        E 0 93 4a 66
        E 0 93 4b 64
        E 0 93 4c 65
        E 0 93 4d 64
        E 0 93 61 67
        E 0 93 62 66
        E 0 93 63 64
        E 0 93 64 65
        E 0 93 65 64
        E 120 80 6c 00
        E 0 83 49 00
        E 0 83 4a 00
        E 0 83 4b 00
        E 0 83 4c 00
        E 0 83 4d 00
        E 0 83 61 00
        E 0 83 62 00
        E 0 83 63 00
        E 0 83 64 00
        E 0 83 65 00
        E 120 90 0c 64
        E 0 90 19 67
        E 0 90 31 67
        E 0 90 32 66
        E 0 90 49 67
        E 0 90 4a 66
        E 0 90 4b 64
        E 0 90 4c 65
        E 0 90 4d 64
        E 0 90 61 67
        E 0 90 62 66
        E 0 90 63 64
        E 0 90 64 65
        E 0 90 65 64
        E 0 9f 51 64
        E 0 9f 69 64
        E 120 80 0c 00
        E 0 80 19 00
        E 0 80 31 00
        E 0 80 32 00
        E 0 80 49 00
        E 0 80 4a 00
        E 0 80 4b 00
        E 0 80 4c 00
        E 0 80 4d 00
        E 0 80 61 00
        E 0 80 62 00
        E 0 80 63 00
        E 0 80 64 00
        E 0 80 65 00
        E 0 8f 51 00
        E 0 8f 69 00
        E 120 90 49 67
        E 0 90 4a 66
        E 0 90 4b 64
        E 0 90 4c 65
        E 0 90 4d 64
        E 0 90 61 67
        E 0 90 62 66
        E 0 90 63 64
        E 0 90 64 65
        E 0 90 65 64
        E 0 9d 51 64
        E 0 9d 69 64
        E 120 80 49 00
        E 0 80 4a 00
        E 0 80 4b 00
        E 0 80 4c 00
        E 0 80 4d 00
        E 0 80 61 00
        E 0 80 62 00
        E 0 80 63 00
        E 0 80 64 00
        E 0 80 65 00
        E 0 8d 51 00
        E 0 8d 69 00
        E 120 90 19 67
        E 0 90 31 67
        E 0 90 32 66
        E 0 90 49 67
        E 0 90 4a 66
        E 0 90 4b 64
        E 0 90 4c 65
        E 0 90 4d 64
        E 0 90 61 67
        E 0 90 62 66
        E 0 90 63 64
        E 0 90 64 65
        E 0 90 65 64
        E 0 9f 51 64
        E 0 9f 69 64
        E 120 80 19 00
        E 0 80 31 00
        E 0 80 32 00
        E 240 80 49 00
        E 0 80 4a 00
        E 0 80 4b 00
        E 0 80 4c 00
        E 0 80 4d 00
        E 0 80 61 00
        E 0 80 62 00
        E 0 80 63 00
        E 0 80 64 00
        E 0 80 65 00
        E 0 8f 51 00
        E 0 8f 69 00
        E 120 90 19 67
        E 0 90 31 67
        E 0 90 32 66
        E 0 90 49 67
        E 0 90 4a 66
        E 0 90 4b 64
        E 0 90 4c 65
        E 0 90 4d 64
        E 0 90 61 67
        E 0 90 62 66
        E 0 90 63 64
        E 0 90 64 65
        E 0 90 65 64
        E 0 9f 51 64
        E 0 9f 69 64
        E 120 80 19 00
        E 0 80 31 00
        E 0 80 32 00
        E 0 80 49 00
        E 0 80 4a 00
        E 0 80 4b 00
        E 0 80 4c 00
        E 0 80 4d 00
        E 0 80 61 00
        E 0 80 62 00
        E 0 80 63 00
        E 0 80 64 00
        E 0 80 65 00
        E 0 8f 51 00
        E 0 8f 69 00
        E 120 90 49 67
        E 0 90 4a 66
        E 0 90 4b 64
        E 0 90 4c 65
        E 0 90 4d 64
        E 0 90 61 67
        E 0 90 62 66
        E 0 90 63 64
        E 0 90 64 65
        E 0 90 65 64
        E 0 9d 51 64
        E 0 9d 69 64
        E 120 80 49 00
        E 0 80 4a 00
        E 0 80 4b 00
        E 0 80 4c 00
        E 0 80 4d 00
        E 0 80 61 00
        E 0 80 62 00
        E 0 80 63 00
        E 0 80 64 00
        E 0 80 65 00
        E 0 8d 51 00
        E 0 8d 69 00
        E 120 90 19 67
        E 0 90 31 67
        E 0 90 32 66
        E 0 90 49 67
        E 0 90 4a 66
        E 0 90 4b 64
        E 0 90 4c 65
        E 0 90 4d 64
        E 0 90 61 67
        E 0 90 62 66
        E 0 90 63 64
        E 0 90 64 65
        E 0 90 65 64
        E 0 9f 51 64
        E 0 9f 69 64
        E 120 80 19 00
        E 0 80 31 00
        E 0 80 32 00
        E 0 80 49 00
        E 0 80 4a 00
        E 0 80 4b 00
        E 0 80 4c 00
        E 0 80 4d 00
        E 0 80 61 00
        E 0 80 62 00
        E 0 80 63 00
        E 0 80 64 00
        E 0 80 65 00
        E 0 8f 51 00
        E 0 8f 69 00
        E 120 90 6c 66
        E 0 93 48 67
        E 0 93 49 66
        E 0 93 4a 64
        E 0 93 4b 64
        E 0 93 4c 64
        E 0 93 4d 67
        E 0 93 60 67
        E 0 93 61 66
        E 0 93 62 64
        E 0 93 63 64
        E 0 93 64 64
        E 0 93 65 67
        E 120 80 6c 00
        E 0 83 48 00
        E 0 83 49 00
        E 0 83 4a 00
        E 0 83 4b 00
        E 0 83 4c 00
        E 0 83 4d 00
        E 0 83 60 00
        E 0 83 61 00
        E 0 83 62 00
        E 0 83 63 00
        E 0 83 64 00
        E 0 83 65 00
        E 120 90 07 64
        E 0 90 18 67
        E 0 90 30 67
        E 0 90 31 66
        E 0 90 48 67
        E 0 90 49 66
        E 0 90 4a 64
        E 0 90 4b 64
        E 0 90 4c 64
        E 0 90 4d 67
        E 0 90 60 67
        E 0 90 61 66
        E 0 90 62 64
        E 0 90 63 64
        E 0 90 64 64
        E 0 90 65 67
        E 0 9f 51 64
        E 0 9f 69 64
        E 120 80 07 00
        E 0 80 18 00
        E 0 80 30 00
        E 0 80 31 00
        E 240 80 48 00
        E 0 80 49 00
        E 0 80 4a 00
        E 0 80 4b 00
        E 0 80 4c 00
        E 0 80 4d 00
        E 0 80 60 00
        E 0 80 61 00
        E 0 80 62 00
        E 0 80 63 00
        E 0 80 64 00
        E 0 80 65 00
        E 0 8f 51 00
        E 0 8f 69 00
        E 120 90 30 67
        E 0 90 31 66
        E 0 90 48 67
        E 0 90 49 66
        E 0 90 4a 64
        E 0 90 4b 64
        E 0 90 4c 64
        E 0 90 4d 67
        E 0 90 60 67
        E 0 90 61 66
        E 0 90 62 64
        E 0 90 63 64
        E 0 90 64 64
        E 0 90 65 67
        E 0 9f 51 64
        E 0 9f 69 64
        E 120 80 30 00
        E 0 80 31 00
        E 240 80 48 00
        E 0 80 49 00
        E 0 80 4a 00
        E 0 80 4b 00
        E 0 80 4c 00
        E 0 80 4d 00
        E 0 80 60 00
        E 0 80 61 00
        E 0 80 62 00
        E 0 80 63 00
        E 0 80 64 00
        E 0 80 65 00
        E 0 8f 51 00
        E 0 8f 69 00
        E 120 90 18 67
        E 0 90 30 67
        E 0 90 31 66
        E 0 90 48 67
        E 0 90 49 66
        E 0 90 4a 64
        E 0 90 4b 64
        E 0 90 4c 64
        E 0 90 4d 67
        E 0 90 60 67
        E 0 90 61 66
        E 0 90 62 64
        E 0 90 63 64
        E 0 90 64 64
        E 0 90 65 67
        E 0 9f 51 64
        E 0 9f 69 64
        E 120 80 18 00
        E 0 80 30 00
        E 0 80 31 00
        E 240 80 48 00
        E 0 80 49 00
        E 0 80 4a 00
        E 0 80 4b 00
        E 0 80 4c 00
        E 0 80 4d 00
        E 0 80 60 00
        E 0 80 61 00
        E 0 80 62 00
        E 0 80 63 00
        E 0 80 64 00
        E 0 80 65 00
        E 0 8f 51 00
        E 0 8f 69 00
        E 120 90 30 67
        E 0 90 31 66
        E 0 90 48 67
        E 0 90 49 66
        E 0 90 4a 64
        E 0 90 4b 64
        E 0 90 4c 64
        E 0 90 4d 67
        E 0 90 60 67
        E 0 90 61 66
        E 0 90 62 64
        E 0 90 63 64
        E 0 90 64 64
        E 0 90 65 67
        E 0 9f 51 64
        E 0 9f 69 64
        E 120 80 30 00
        E 0 80 31 00
        E 0 80 48 00
        E 0 80 49 00
        E 0 80 4a 00
        E 0 80 4b 00
        E 0 80 4c 00
        E 0 80 4d 00
        E 0 80 60 00
        E 0 80 61 00
        E 0 80 62 00
        E 0 80 63 00
        E 0 80 64 00
        E 0 80 65 00
        E 0 8f 51 00
        E 0 8f 69 00
        E 120 90 74 60
        E 0 93 48 67
        E 0 93 49 66
        E 0 93 4a 64
        E 0 93 4b 64
        E 0 93 4c 64
        E 0 93 4d 67
        E 0 93 60 67
        E 0 93 61 66
        E 0 93 62 64
        E 0 93 63 64
        E 0 93 64 64
        E 0 93 65 67
        E 120 83 48 00
        E 0 83 49 00
        E 0 83 4a 00
        E 0 83 4b 00
        E 0 83 4c 00
        E 0 83 4d 00
        E 0 83 60 00
        E 0 83 61 00
        E 0 83 62 00
        E 0 83 63 00
        E 0 83 64 00
        E 0 83 65 00
        E 120 90 18 67
        E 0 90 30 67
        E 0 90 31 66
        E 0 90 48 67
        E 0 90 49 66
        E 0 90 4a 64
        E 0 90 4b 64
        E 0 90 4c 64
        E 0 90 4d 65
        E 0 90 60 67
        E 0 90 61 66
        E 0 90 62 64
        E 0 90 63 64
        E 0 90 64 64
        E 0 90 65 65
        E 0 90 6c 65
        E 0 9f 51 64
        E 0 9f 69 64
        E 120 80 18 00
        E 0 80 30 00
        E 0 80 31 00
        E 0 80 48 00
        E 0 80 49 00
        E 0 80 4a 00
        E 0 80 4b 00
        E 0 80 4c 00
        E 0 80 4d 00
        E 0 80 60 00
        E 0 80 61 00
        E 0 80 62 00
        E 0 80 63 00
        E 0 80 64 00
        E 0 80 65 00
        E 0 80 6c 00
        E 0 8f 51 00
        E 0 8f 69 00
        E 120 90 48 67
        E 0 90 49 66
        E 0 90 4a 64
        E 0 90 4b 64
        E 0 90 4c 64
        E 0 90 4d 65
        E 0 90 60 67
        E 0 90 61 66
        E 0 90 62 64
        E 0 90 63 64
        E 0 90 64 64
        E 0 90 65 65
        E 0 9d 51 64
        E 0 9d 69 64
        E 120 80 48 00
        E 0 80 49 00
        E 0 80 4a 00
        E 0 80 4b 00
        E 0 80 4c 00
        E 0 80 4d 00
        E 0 80 60 00
        E 0 80 61 00
        E 0 80 62 00
        E 0 80 63 00
        E 0 80 64 00
        E 0 80 65 00
        E 0 8d 51 00
        E 0 8d 69 00
        E 120 90 18 67
        E 0 90 30 67
        E 0 90 31 66
        E 0 90 48 67
        E 0 90 49 66
        E 0 90 4a 64
        E 0 90 4b 64
        E 0 90 4c 64
        E 0 90 4d 65
        E 0 90 60 67
        E 0 90 61 66
        E 0 90 62 64
        E 0 90 63 64
        E 0 90 64 64
        E 0 90 65 65
        E 0 9f 51 64
        E 0 9f 69 64
        E 120 80 18 00
        E 0 80 30 00
        E 0 80 31 00
        E 0 80 48 00
        E 0 80 49 00
        E 0 80 4a 00
        E 0 80 4b 00
        E 0 80 4c 00
        E 0 80 4d 00
        E 0 80 60 00
        E 0 80 61 00
        E 0 80 62 00
        E 0 80 63 00
        E 0 80 64 00
        E 0 80 65 00
        E 0 8f 51 00
        E 0 8f 69 00
        E 120 90 48 67
        E 0 90 49 66
        E 0 90 4a 64
        E 0 90 4b 64
        E 0 90 4c 64
        E 0 90 4d 65
        E 0 90 60 67
        E 0 90 61 66
        E 0 90 62 64
        E 0 90 63 64
        E 0 90 64 64
        E 0 90 65 65
        E 0 9d 51 64
        E 0 9d 69 64
        E 120 80 48 00
        E 0 80 49 00
        E 0 80 4a 00
        E 0 80 4b 00
        E 0 80 4c 00
        E 0 80 4d 00
        E 0 80 60 00
        E 0 80 61 00
        E 0 80 62 00
        E 0 80 63 00
        E 0 80 64 00
        E 0 80 65 00
        E 0 8d 51 00
        E 0 8d 69 00
        E 120 90 18 67
        E 0 90 30 67
        E 0 90 31 66
        E 0 90 48 67
        E 0 90 49 66
        E 0 90 4a 64
        E 0 90 4b 64
        E 0 90 4c 64
        E 0 90 4d 65
        E 0 90 60 67
        E 0 90 61 66
        E 0 90 62 64
        E 0 90 63 64
        E 0 90 64 64
        E 0 90 65 65
        E 0 9f 51 64
        E 0 9f 69 64
        E 120 80 18 00
        E 0 80 30 00
        E 0 80 31 00
        E 0 80 48 00
        E 0 80 49 00
        E 0 80 4a 00
        E 0 80 4b 00
        E 0 80 4c 00
        E 0 80 4d 00
        E 0 80 60 00
        E 0 80 61 00
        E 0 80 62 00
        E 0 80 63 00
        E 0 80 64 00
        E 0 80 65 00
        E 0 8f 51 00
        E 0 8f 69 00
        E 120 90 48 67
        E 0 90 49 66
        E 0 90 4a 64
        E 0 90 4b 64
        E 0 90 4c 64
        E 0 90 4d 65
        E 0 90 60 67
        E 0 90 61 66
        E 0 90 62 64
        E 0 90 63 64
        E 0 90 64 64
        E 0 90 65 65
        E 0 9d 51 64
        E 0 9d 69 64
        E 120 80 48 00
        E 0 80 49 00
        E 0 80 4a 00
        E 0 80 4b 00
        E 0 80 4c 00
        E 0 80 4d 00
        E 0 80 60 00
        E 0 80 61 00
        E 0 80 62 00
        E 0 80 63 00
        E 0 80 64 00
        E 0 80 65 00
        E 0 8d 51 00
        E 0 8d 69 00
        E 120 90 30 67
        E 0 90 31 66
        E 0 90 48 67
        E 0 90 49 66
        E 0 90 4a 64
        E 0 90 4b 64
        E 0 90 4c 64
        E 0 90 4d 65
        E 0 90 60 67
        E 0 90 61 66
        E 0 90 62 64
        E 0 90 63 64
        E 0 90 64 64
        E 0 90 65 65
        E 0 9f 51 64
        E 0 9f 69 64
        E 120 80 30 00
        E 0 80 31 00
        E 0 80 48 00
        E 0 80 49 00
        E 0 80 4a 00
        E 0 80 4b 00
        E 0 80 4c 00
        E 0 80 4d 00
        E 0 80 60 00
        E 0 80 61 00
        E 0 80 62 00
        E 0 80 63 00
        E 0 80 64 00
        E 0 80 65 00
        E 0 8f 51 00
        E 0 8f 69 00
        E 120 93 49 67
        E 0 93 4a 66
        E 0 93 4b 64
        E 0 93 4c 65
        E 0 93 4d 64
        E 0 93 61 67
        E 0 93 62 66
        E 0 93 63 64
        E 0 93 64 65
        E 0 93 65 64
        E 120 83 49 00
        E 0 83 4a 00
        E 0 83 4b 00
        E 0 83 4c 00
        E 0 83 4d 00
        E 0 83 61 00
        E 0 83 62 00
        E 0 83 63 00
        E 0 83 64 00
        E 0 83 65 00
        E 120 80 74 00
        E 0 90 0c 64
        E 0 90 31 67
        E 0 90 32 66
        E 0 90 49 67
        E 0 90 4a 66
        E 0 90 4b 64
        E 0 90 4c 65
        E 0 90 4d 64
        E 0 90 61 67
        E 0 90 62 66
        E 0 90 63 64
        E 0 90 64 65
        E 0 90 65 64
        E 0 9f 51 64
        E 0 9f 69 64
        E 120 80 0c 00
        E 0 80 31 00
        E 0 80 32 00
        E 240 80 49 00
        E 0 80 4a 00
        E 0 80 4b 00
        E 0 80 4c 00
        E 0 80 4d 00
        E 0 80 61 00
        E 0 80 62 00
        E 0 80 63 00
        E 0 80 64 00
        E 0 80 65 00
        E 0 8f 51 00
        E 0 8f 69 00
        E 120 90 31 67
        E 0 90 32 66
        E 0 90 49 67
        E 0 90 4a 66
        E 0 90 4b 64
        E 0 90 4c 65
        E 0 90 4d 64
        E 0 90 61 67
        E 0 90 62 66
        E 0 90 63 64
        E 0 90 64 65
        E 0 90 65 64
        E 0 9f 51 64
        E 0 9f 69 64
        E 120 80 31 00
        E 0 80 32 00
        E 240 80 49 00
        E 0 80 4a 00
        E 0 80 4b 00
        E 0 80 4c 00
        E 0 80 4d 00
        E 0 80 61 00
        E 0 80 62 00
        E 0 80 63 00
        E 0 80 64 00
        E 0 80 65 00
        E 0 8f 51 00
        E 0 8f 69 00
        E 120 90 19 67
        E 0 90 31 67
        E 0 90 32 66
        E 0 90 49 67
        E 0 90 4a 66
        E 0 90 4b 64
        E 0 90 4c 65
        E 0 90 4d 64
        E 0 90 61 67
        E 0 90 62 66
        E 0 90 63 64
        E 0 90 64 65
        E 0 90 65 64
        E 0 9f 51 64
        E 0 9f 69 64
        E 120 80 19 00
        E 0 80 31 00
        E 0 80 32 00
        E 240 80 49 00
        E 0 80 4a 00
        E 0 80 4b 00
        E 0 80 4c 00
        E 0 80 4d 00
        E 0 80 61 00
        E 0 80 62 00
        E 0 80 63 00
        E 0 80 64 00
        E 0 80 65 00
        E 0 8f 51 00
        E 0 8f 69 00
        E 120 90 19 67
        E 0 90 31 67
        E 0 90 32 66
        E 0 90 49 67
        E 0 90 4a 66
        E 0 90 4b 64
        E 0 90 4c 65
        E 0 90 4d 64
        E 0 90 61 67
        E 0 90 62 66
        E 0 90 63 64
        E 0 90 64 65
        E 0 90 65 64
        E 0 9f 51 64
        E 0 9f 69 64
        E 120 80 19 00
        E 0 80 31 00
        E 0 80 32 00
        E 0 80 49 00
        E 0 80 4a 00
        E 0 80 4b 00
        E 0 80 4c 00
        E 0 80 4d 00
        E 0 80 61 00
        E 0 80 62 00
        E 0 80 63 00
        E 0 80 64 00
        E 0 80 65 00
        E 0 8f 51 00
        E 0 8f 69 00
        E 120 90 49 67
        E 0 90 4a 66
        E 0 90 4b 64
        E 0 90 4c 65
        E 0 90 4d 64
        E 0 90 61 67
        E 0 90 62 66
        E 0 90 63 64
        E 0 90 64 65
        E 0 90 65 64
        E 0 9d 51 64
        E 0 9d 69 64
        E 120 80 49 00
        E 0 80 4a 00
        E 0 80 4b 00
        E 0 80 4c 00
        E 0 80 4d 00
        E 0 80 61 00
        E 0 80 62 00
        E 0 80 63 00
        E 0 80 64 00
        E 0 80 65 00
        E 0 8d 51 00
        E 0 8d 69 00
        E 120 90 19 67
        E 0 90 31 67
        E 0 90 32 66
        E 0 90 49 67
        E 0 90 4a 66
        E 0 90 4b 64
        E 0 90 4c 65
        E 0 90 4d 64
        E 0 90 61 67
        E 0 90 62 66
        E 0 90 63 64
        E 0 90 64 65
        E 0 90 65 64
        E 0 9f 51 64
        E 0 9f 69 64
        E 120 80 19 00
        E 0 80 31 00
        E 0 80 32 00
        E 0 80 49 00
        E 0 80 4a 00
        E 0 80 4b 00
        E 0 80 4c 00
        E 0 80 4d 00
        E 0 80 61 00
        E 0 80 62 00
        E 0 80 63 00
        E 0 80 64 00
        E 0 80 65 00
        E 0 8f 51 00
        E 0 8f 69 00
        E 120 90 49 67
        E 0 90 4a 66
        E 0 90 4b 64
        E 0 90 4c 65
        E 0 90 4d 64
        E 0 90 61 67
        E 0 90 62 66
        E 0 90 63 64
        E 0 90 64 65
        E 0 90 65 64
        E 0 9d 51 64
        E 0 9d 69 64
        E 120 80 49 00
        E 0 80 4a 00
        E 0 80 4b 00
        E 0 80 4c 00
        E 0 80 4d 00
        E 0 80 61 00
        E 0 80 62 00
        E 0 80 63 00
        E 0 80 64 00
        E 0 80 65 00
        E 0 8d 51 00
        E 0 8d 69 00
        E 120 90 31 67
        E 0 90 32 66
        E 0 90 49 67
        E 0 90 4a 66
        E 0 90 4b 64
        E 0 90 4c 65
        E 0 90 4d 64
        E 0 90 61 67
        E 0 90 62 66
        E 0 90 63 64
        E 0 90 64 65
        E 0 90 65 64
        E 0 9f 51 64
        E 0 9f 69 64
        E 120 80 31 00
        E 0 80 32 00
        E 240 80 49 00
        E 0 80 4a 00
        E 0 80 4b 00
        E 0 80 4c 00
        E 0 80 4d 00
        E 0 80 61 00
        E 0 80 62 00
        E 0 80 63 00
        E 0 80 64 00
        E 0 80 65 00
        E 0 8f 51 00
        E 0 8f 69 00
        E 120 90 31 67
        E 0 90 32 66
        E 0 90 49 67
        E 0 90 4a 66
        E 0 90 4b 64
        E 0 90 4c 65
        E 0 90 4d 64
        E 0 90 61 67
        E 0 90 62 66
        E 0 90 63 64
        E 0 90 64 65
        E 0 90 65 64
        E 0 9f 51 64
        E 0 9f 69 64
        E 120 80 31 00
        E 0 80 32 00
        E 0 80 49 00
        E 0 80 4a 00
        E 0 80 4b 00
        E 0 80 4c 00
        E 0 80 4d 00
        E 0 80 61 00
        E 0 80 62 00
        E 0 80 63 00
        E 0 80 64 00
        E 0 80 65 00
        E 0 8f 51 00
        E 0 8f 69 00
        E 120 90 31 67
        E 0 90 32 66
        E 0 90 49 67
        E 0 90 4a 66
        E 0 90 4b 64
        E 0 90 4c 65
        E 0 90 4d 64
        E 0 90 61 67
        E 0 90 62 66
        E 0 90 63 64
        E 0 90 64 65
        E 0 90 65 64
        E 0 9d 51 64
        E 0 9d 69 64
        E 120 80 31 00
        E 0 80 32 00
        E 0 80 49 00
        E 0 80 4a 00
        E 0 80 4b 00
        E 0 80 4c 00
        E 0 80 4d 00
        E 0 80 61 00
        E 0 80 62 00
        E 0 80 63 00
        E 0 80 64 00
        E 0 80 65 00
        E 0 8d 51 00
        E 0 8d 69 00
        E 120 90 31 67
        E 0 90 32 66
        E 0 90 49 67
        E 0 90 4a 66
        E 0 90 4b 64
        E 0 90 4c 65
        E 0 90 4d 64
        E 0 90 61 67
        E 0 90 62 66
        E 0 90 63 64
        E 0 90 64 65
        E 0 90 65 64
        E 0 9f 51 64
        E 0 9f 69 64
        E 120 80 31 00
        E 0 80 32 00
        E 0 80 49 00
        E 0 80 4a 00
        E 0 80 4b 00
        E 0 80 4c 00
        E 0 80 4d 00
        E 0 80 61 00
        E 0 80 62 00
        E 0 80 63 00
        E 0 80 64 00
        E 0 80 65 00
        E 0 8f 51 00
        E 0 8f 69 00
        E 120 90 6c 66
        E 0 93 4a 64
        E 0 93 4b 66
        E 0 93 4c 67
        E 0 93 4d 66
        E 0 93 62 64
        E 0 93 63 66
        E 0 93 64 67
        E 0 93 65 66
        E 120 80 6c 00
        E 0 83 4a 00
        E 0 83 4b 00
        E 0 83 4c 00
        E 0 83 4d 00
        E 0 83 62 00
        E 0 83 63 00
        E 0 83 64 00
        E 0 83 65 00
        E 120 90 0e 64
        E 0 90 33 66
        E 0 90 34 67
        E 0 90 4a 64
        E 0 90 4b 66
        E 0 90 4c 67
        E 0 90 4d 66
        E 0 90 62 64
        E 0 90 63 66
        E 0 90 64 67
        E 0 90 65 66
        E 0 9f 51 64
        E 0 9f 69 64
        E 120 80 0e 00
        E 0 80 33 00
        E 0 80 34 00
        E 240 80 4a 00
        E 0 80 4b 00
        E 0 80 4c 00
        E 0 80 4d 00
        E 0 80 62 00
        E 0 80 63 00
        E 0 80 64 00
        E 0 80 65 00
        E 0 8f 51 00
        E 0 8f 69 00
        E 120 90 33 66
        E 0 90 34 67
        E 0 90 4a 64
        E 0 90 4b 66
        E 0 90 4c 67
        E 0 90 4d 66
        E 0 90 62 64
        E 0 90 63 66
        E 0 90 64 67
        E 0 90 65 66
        E 0 9f 51 64
        E 0 9f 69 64
        E 120 80 33 00
        E 0 80 34 00
        E 240 80 4a 00
        E 0 80 4b 00
        E 0 80 4c 00
        E 0 80 4d 00
        E 0 80 62 00
        E 0 80 63 00
        E 0 80 64 00
        E 0 80 65 00
        E 0 8f 51 00
        E 0 8f 69 00
        E 120 90 33 66
        E 0 90 34 67
        E 0 90 4a 64
        E 0 90 4b 66
        E 0 90 4c 67
        E 0 90 4d 66
        E 0 90 62 64
        E 0 90 63 66
        E 0 90 64 67
        E 0 90 65 66
        E 0 9f 51 64
        E 0 9f 69 64
        E 120 80 33 00
        E 0 80 34 00
        E 240 80 4a 00
        E 0 80 4b 00
        E 0 80 4c 00
        E 0 80 4d 00
        E 0 80 62 00
        E 0 80 63 00
        E 0 80 64 00
        E 0 80 65 00
        E 0 8f 51 00
        E 0 8f 69 00
        E 120 90 33 66
        E 0 90 34 67
        E 0 90 4a 64
        E 0 90 4b 66
        E 0 90 4c 67
        E 0 90 4d 66
        E 0 90 62 64
        E 0 90 63 66
        E 0 90 64 67
        E 0 90 65 66
        E 0 9f 51 64
        E 0 9f 69 64
        E 120 80 33 00
        E 0 80 34 00
        E 0 80 4a 00
        E 0 80 4b 00
        E 0 80 4c 00
        E 0 80 4d 00
        E 0 80 62 00
        E 0 80 63 00
        E 0 80 64 00
        E 0 80 65 00
        E 0 8f 51 00
        E 0 8f 69 00
        E 120 90 33 66
        E 0 90 34 67
        E 0 90 4a 64
        E 0 90 4b 66
        E 0 90 4c 67
        E 0 90 4d 66
        E 0 90 62 64
        E 0 90 63 66
        E 0 90 64 67
        E 0 90 65 66
        E 0 9d 51 64
        E 0 9d 69 64
        E 120 80 33 00
        E 0 80 34 00
        E 0 80 4a 00
        E 0 80 4b 00
        E 0 80 4c 00
        E 0 80 4d 00
        E 0 80 62 00
        E 0 80 63 00
        E 0 80 64 00
        E 0 80 65 00
        E 0 8d 51 00
        E 0 8d 69 00
        E 120 90 33 66
        E 0 90 34 67
        E 0 90 4a 64
        E 0 90 4b 66
        E 0 90 4c 67
        E 0 90 4d 66
        E 0 90 62 64
        E 0 90 63 66
        E 0 90 64 67
        E 0 90 65 66
        E 0 9f 51 64
        E 0 9f 69 64
        E 120 80 33 00
        E 0 80 34 00
        E 0 80 4a 00
        E 0 80 4b 00
        E 0 80 4c 00
        E 0 80 4d 00
        E 0 80 62 00
        E 0 80 63 00
        E 0 80 64 00
        E 0 80 65 00
        E 0 8f 51 00
        E 0 8f 69 00
        E 120 90 4a 64
        E 0 90 4b 66
        E 0 90 4c 67
        E 0 90 4d 66
        E 0 90 62 64
        E 0 90 63 66
        E 0 90 64 67
        E 0 90 65 66
        E 0 9d 51 64
        E 0 9d 69 64
        E 120 80 4a 00
        E 0 80 4b 00
        E 0 80 4c 00
        E 0 80 4d 00
        E 0 80 62 00
        E 0 80 63 00
        E 0 80 64 00
        E 0 80 65 00
        E 0 8d 51 00
        E 0 8d 69 00
        E 120 90 33 66
        E 0 90 34 67
        E 0 90 4a 64
        E 0 90 4b 66
        E 0 90 4c 67
        E 0 90 4d 66
        E 0 90 62 64
        E 0 90 63 66
        E 0 90 64 67
        E 0 90 65 66
        E 0 9f 51 64
        E 0 9f 69 64
        E 120 80 33 00
        E 0 80 34 00
        E 0 80 4a 00
        E 0 80 4b 00
        E 0 80 4c 00
        E 0 80 4d 00
        E 0 80 62 00
        E 0 80 63 00
        E 0 80 64 00
        E 0 80 65 00
        E 0 8f 51 00
        E 0 8f 69 00
        E 120 90 4a 64
        E 0 90 4b 66
        E 0 90 4c 67
        E 0 90 4d 66
        E 0 9d 51 64
        E 0 9d 62 64
        E 0 9d 63 66
        E 0 9d 64 67
        E 0 9d 65 66
        E 0 9d 69 64
        E 120 80 4a 00
        E 0 80 4b 00
        E 0 80 4c 00
        E 0 80 4d 00
        E 0 8d 51 00
        E 0 8d 62 00
        E 0 8d 63 00
        E 0 8d 64 00
        E 0 8d 65 00
        E 0 8d 69 00
        E 120 90 33 66
        E 0 90 34 67
        E 0 90 4a 64
        E 0 90 4b 66
        E 0 90 4c 67
        E 0 90 4d 66
        E 0 90 62 64
        E 0 90 63 66
        E 0 90 64 67
        E 0 90 65 66
        E 0 9f 51 64
        E 0 9f 69 64
        E 120 80 33 00
        E 0 80 34 00
        E 0 80 4a 00
        E 0 80 4b 00
        E 0 80 4c 00
        E 0 80 4d 00
        E 0 80 62 00
        E 0 80 63 00
        E 0 80 64 00
        E 0 80 65 00
        E 0 8f 51 00
        E 0 8f 69 00
        E 120 90 4a 64
        E 0 90 4b 66
        E 0 90 4c 67
        E 0 90 4d 66
        E 0 9d 51 64
        E 0 9d 62 64
        E 0 9d 63 66
        E 0 9d 64 67
        E 0 9d 65 66
        E 0 9d 69 64
        E 120 80 4a 00
        E 0 80 4b 00
        E 0 80 4c 00
        E 0 80 4d 00
        E 0 8d 51 00
        E 0 8d 62 00
        E 0 8d 63 00
        E 0 8d 64 00
        E 0 8d 65 00
        E 0 8d 69 00
        E 120 90 33 66
        E 0 90 34 67
        E 0 90 4a 64
        E 0 90 4b 66
        E 0 90 4c 67
        E 0 90 4d 66
        E 0 90 62 64
        E 0 90 63 66
        E 0 90 64 67
        E 0 90 65 66
        E 0 9f 51 64
        E 0 9f 69 64
        E 120 80 33 00
        E 0 80 34 00
        E 0 80 4a 00
        E 0 80 4b 00
        E 0 80 4c 00
        E 0 80 4d 00
        E 0 80 62 00
        E 0 80 63 00
        E 0 80 64 00
        E 0 80 65 00
        E 0 8f 51 00
        E 0 8f 69 00
        E 120 90 6c 65
        E 0 93 49 67
        E 0 93 4a 66
        E 0 93 4b 64
        E 0 93 4c 65
        E 0 93 4d 64
        E 0 93 61 67
        E 0 93 62 66
        E 0 93 63 64
        E 0 93 64 65
        E 0 93 65 64
        E 120 80 6c 00
        E 0 83 49 00
        E 0 83 4a 00
        E 0 83 4b 00
        E 0 83 4c 00
        E 0 83 4d 00
        E 0 83 61 00
        E 0 83 62 00
        E 0 83 63 00
        E 0 83 64 00
        E 0 83 65 00
        E 120 90 0c 64
        E 0 90 31 67
        E 0 90 32 66
        E 0 90 49 67
        E 0 90 4a 66
        E 0 90 4b 64
        E 0 90 4c 65
        E 0 90 4d 64
        E 0 90 61 67
        E 0 90 62 66
        E 0 90 63 64
        E 0 90 64 65
        E 0 90 65 64
        E 0 9f 51 64
        E 0 9f 69 64
        E 120 80 0c 00
        E 0 80 31 00
        E 0 80 32 00
        E 240 80 49 00
        E 0 80 4a 00
        E 0 80 4b 00
        E 0 80 4c 00
        E 0 80 4d 00
        E 0 80 61 00
        E 0 80 62 00
        E 0 80 63 00
        E 0 80 64 00
        E 0 80 65 00
        E 0 8f 51 00
        E 0 8f 69 00
        E 120 90 31 67
        E 0 90 32 66
        E 0 90 49 67
        E 0 90 4a 66
        E 0 90 4b 64
        E 0 90 4c 65
        E 0 90 4d 64
        E 0 90 61 67
        E 0 90 62 66
        E 0 90 63 64
        E 0 90 64 65
        E 0 90 65 64
        E 0 9f 51 64
        E 0 9f 69 64
        E 120 80 31 00
        E 0 80 32 00
        E 240 80 49 00
        E 0 80 4a 00
        E 0 80 4b 00
        E 0 80 4c 00
        E 0 80 4d 00
        E 0 80 61 00
        E 0 80 62 00
        E 0 80 63 00
        E 0 80 64 00
        E 0 80 65 00
        E 0 8f 51 00
        E 0 8f 69 00
        E 120 90 19 67
        E 0 90 31 67
        E 0 90 32 66
        E 0 90 49 67
        E 0 90 4a 66
        E 0 90 4b 64
        E 0 90 4c 65
        E 0 90 4d 64
        E 0 90 61 67
        E 0 90 62 66
        E 0 90 63 64
        E 0 90 64 65
        E 0 90 65 64
        E 0 9f 51 64
        E 0 9f 69 64
        E 120 80 19 00
        E 0 80 31 00
        E 0 80 32 00
        E 240 80 49 00
        E 0 80 4a 00
        E 0 80 4b 00
        E 0 80 4c 00
        E 0 80 4d 00
        E 0 80 61 00
        E 0 80 62 00
        E 0 80 63 00
        E 0 80 64 00
        E 0 80 65 00
        E 0 8f 51 00
        E 0 8f 69 00
        E 120 90 19 67
        E 0 90 31 67
        E 0 90 32 66
        E 0 90 49 67
        E 0 90 4a 66
        E 0 90 4b 64
        E 0 90 4c 65
        E 0 90 4d 64
        E 0 90 61 67
        E 0 90 62 66
        E 0 90 63 64
        E 0 90 64 65
        E 0 90 65 64
        E 0 9f 51 64
        E 0 9f 69 64
        E 120 80 19 00
        E 0 80 31 00
        E 0 80 32 00
        E 0 80 49 00
        E 0 80 4a 00
        E 0 80 4b 00
        E 0 80 4c 00
        E 0 80 4d 00
        E 0 80 61 00
        E 0 80 62 00
        E 0 80 63 00
        E 0 80 64 00
        E 0 80 65 00
        E 0 8f 51 00
        E 0 8f 69 00
        E 120 90 49 67
        E 0 90 4a 66
        E 0 90 4b 64
        E 0 90 4c 65
        E 0 90 4d 64
        E 0 90 61 67
        E 0 90 62 66
        E 0 90 63 64
        E 0 90 64 65
        E 0 90 65 64
        E 0 9d 51 64
        E 0 9d 69 64
        E 120 80 49 00
        E 0 80 4a 00
        E 0 80 4b 00
        E 0 80 4c 00
        E 0 80 4d 00
        E 0 80 61 00
        E 0 80 62 00
        E 0 80 63 00
        E 0 80 64 00
        E 0 80 65 00
        E 0 8d 51 00
        E 0 8d 69 00
        E 120 90 19 67
        E 0 90 31 67
        E 0 90 32 66
        E 0 90 49 67
        E 0 90 4a 66
        E 0 90 4b 64
        E 0 90 4c 65
        E 0 90 4d 64
        E 0 90 61 67
        E 0 90 62 66
        E 0 90 63 64
        E 0 90 64 65
        E 0 90 65 64
        E 0 9f 51 64
        E 0 9f 69 64
        E 120 80 19 00
        E 0 80 31 00
        E 0 80 32 00
        E 0 80 49 00
        E 0 80 4a 00
        E 0 80 4b 00
        E 0 80 4c 00
        E 0 80 4d 00
        E 0 80 61 00
        E 0 80 62 00
        E 0 80 63 00
        E 0 80 64 00
        E 0 80 65 00
        E 0 8f 51 00
        E 0 8f 69 00
        E 120 90 49 67
        E 0 90 4a 66
        E 0 90 4b 64
        E 0 90 4c 65
        E 0 90 4d 64
        E 0 90 61 67
        E 0 90 62 66
        E 0 90 63 64
        E 0 90 64 65
        E 0 90 65 64
        E 0 9d 51 64
        E 0 9d 69 64
        E 120 80 49 00
        E 0 80 4a 00
        E 0 80 4b 00
        E 0 80 4c 00
        E 0 80 4d 00
        E 0 80 61 00
        E 0 80 62 00
        E 0 80 63 00
        E 0 80 64 00
        E 0 80 65 00
        E 0 8d 51 00
        E 0 8d 69 00
        E 120 90 31 67
        E 0 90 32 66
        E 0 90 49 67
        E 0 90 4a 66
        E 0 90 4b 64
        E 0 90 4c 65
        E 0 90 4d 64
        E 0 90 61 67
        E 0 90 62 66
        E 0 90 63 64
        E 0 90 64 65
        E 0 90 65 64
        E 0 9f 51 64
        E 0 9f 69 64
        E 120 80 31 00
        E 0 80 32 00
        E 240 80 49 00
        E 0 80 4a 00
        E 0 80 4b 00
        E 0 80 4c 00
        E 0 80 4d 00
        E 0 80 61 00
        E 0 80 62 00
        E 0 80 63 00
        E 0 80 64 00
        E 0 80 65 00
        E 0 8f 51 00
        E 0 8f 69 00
        E 120 90 31 67
        E 0 90 32 66
        E 0 90 49 67
        E 0 90 4a 66
        E 0 90 4b 64
        E 0 90 4c 65
        E 0 90 4d 64
        E 0 90 61 67
        E 0 90 62 66
        E 0 90 63 64
        E 0 90 64 65
        E 0 90 65 64
        E 0 9f 51 64
        E 0 9f 69 64
        E 120 80 31 00
        E 0 80 32 00
        E 0 80 49 00
        E 0 80 4a 00
        E 0 80 4b 00
        E 0 80 4c 00
        E 0 80 4d 00
        E 0 80 61 00
        E 0 80 62 00
        E 0 80 63 00
        E 0 80 64 00
        E 0 80 65 00
        E 0 8f 51 00
        E 0 8f 69 00
        E 120 90 49 67
        E 0 90 4a 66
        E 0 90 4b 64
        E 0 90 4c 65
        E 0 90 4d 64
        E 0 90 61 67
        E 0 90 62 66
        E 0 90 63 64
        E 0 90 64 65
        E 0 90 65 64
        E 0 9d 51 64
        E 0 9d 69 64
        E 120 80 49 00
        E 0 80 4a 00
        E 0 80 4b 00
        E 0 80 4c 00
        E 0 80 4d 00
        E 0 80 61 00
        E 0 80 62 00
        E 0 80 63 00
        E 0 80 64 00
        E 0 80 65 00
        E 0 8d 51 00
        E 0 8d 69 00
        E 120 90 31 67
        E 0 90 32 66
        E 0 90 49 67
        E 0 90 4a 66
        E 0 90 4b 64
        E 0 90 4c 65
        E 0 90 4d 64
        E 0 90 61 67
        E 0 90 62 66
        E 0 90 63 64
        E 0 90 64 65
        E 0 90 65 64
        E 0 9f 51 64
        E 0 9f 69 64
        E 120 80 31 00
        E 0 80 32 00
        E 0 80 49 00
        E 0 80 4a 00
        E 0 80 4b 00
        E 0 80 4c 00
        E 0 80 4d 00
        E 0 80 61 00
        E 0 80 62 00
        E 0 80 63 00
        E 0 80 64 00
        E 0 80 65 00
        E 0 8f 51 00
        E 0 8f 69 00
        E 360 90 0e 64
        E 0 90 33 66
        E 0 90 34 67
        E 0 90 4a 64
        E 0 90 4b 66
        E 0 90 4c 67
        E 0 90 4d 66
        E 0 90 62 64
        E 0 90 63 66
        E 0 90 64 67
        E 0 90 65 66
        E 0 90 6c 66
        E 0 9f 51 64
        E 0 9f 69 64
        E 120 80 0e 00
        E 0 80 6c 00
        E 360 80 33 00
        E 0 80 34 00
        E 360 80 4a 00
        E 0 80 4b 00
        E 0 80 4c 00
        E 0 80 4d 00
        E 0 80 62 00
        E 0 80 63 00
        E 0 80 64 00
        E 0 80 65 00
        E 0 8f 51 00
        E 0 8f 69 00
        E 120 90 33 66
        E 0 90 34 67
        E 0 90 4a 64
        E 0 90 4b 66
        E 0 90 4c 67
        E 0 90 4d 66
        E 0 90 62 64
        E 0 90 63 66
        E 0 90 64 67
        E 0 90 65 66
        E 0 9f 51 64
        E 0 9f 69 64
        E 1920 80 33 00
        E 0 80 34 00
        E 360 80 4a 00
        E 0 80 4b 00
        E 0 80 4c 00
        E 0 80 4d 00
        E 0 80 62 00
        E 0 80 63 00
        E 0 80 64 00
        E 0 80 65 00
        E 0 8f 51 00
        E 0 8f 69 00
        E 120 90 6c 65
        E 0 93 33 66
        E 0 93 34 65
        E 0 93 4a 64
        E 0 93 4b 66
        E 0 93 4c 65
        E 0 93 4d 66
        E 0 93 62 64
        E 0 93 63 66
        E 0 93 64 65
        E 0 93 65 66
        E 120 80 6c 00
        E 0 83 33 00
        E 0 83 34 00
        E 0 83 4a 00
        E 0 83 4b 00
        E 0 83 4c 00
        E 0 83 4d 00
        E 0 83 62 00
        E 0 83 63 00
        E 0 83 64 00
        E 0 83 65 00
        E 120 93 4a 64
        E 0 93 4b 66
        E 0 93 4c 65
        E 0 93 4d 66
        E 0 93 62 64
        E 0 93 63 66
        E 0 93 64 65
        E 0 93 65 66
        E 120 83 4a 00
        E 0 83 4b 00
        E 0 83 4c 00
        E 0 83 4d 00
        E 0 83 62 00
        E 0 83 63 00
        E 0 83 64 00
        E 0 83 65 00
        E 120 90 33 66
        E 0 90 34 65
        E 0 90 4a 64
        E 0 90 4b 66
        E 0 90 4c 65
        E 0 90 4d 66
        E 0 90 62 64
        E 0 90 63 66
        E 0 90 64 65
        E 0 90 65 66
        E 0 9f 51 64
        E 0 9f 69 64
        E 480 80 33 00
        E 0 80 34 00
        E 360 80 4a 00
        E 0 80 4b 00
        E 0 80 4c 00
        E 0 80 4d 00
        E 0 80 62 00
        E 0 80 63 00
        E 0 80 64 00
        E 0 80 65 00
        E 0 8f 51 00
        E 0 8f 69 00
        E 120 90 33 66
        E 0 90 34 65
        E 0 90 4a 64
        E 0 90 4b 66
        E 0 90 4c 65
        E 0 90 4d 66
        E 0 90 62 64
        E 0 90 63 66
        E 0 90 64 65
        E 0 90 65 66
        E 0 9f 51 64
        E 0 9f 69 64
        E 480 80 33 00
        E 0 80 34 00
        E 120 80 4a 00
        E 0 80 4b 00
        E 0 80 4c 00
        E 0 80 4d 00
        E 0 80 62 00
        E 0 80 63 00
        E 0 80 64 00
        E 0 80 65 00
        E 0 8f 51 00
        E 0 8f 69 00
        E 120 90 4a 64
        E 0 90 4b 66
        E 0 90 4c 65
        E 0 90 4d 66
        E 0 90 62 64
        E 0 90 63 66
        E 0 90 64 65
        E 0 90 65 66
        E 0 9d 51 64
        E 0 9d 69 64
        E 120 80 4a 00
        E 0 80 4b 00
        E 0 80 4c 00
        E 0 80 4d 00
        E 0 80 62 00
        E 0 80 63 00
        E 0 80 64 00
        E 0 80 65 00
        E 0 8d 51 00
        E 0 8d 69 00
        E 120 90 33 66
        E 0 90 34 65
        E 0 90 4a 64
        E 0 90 4b 66
        E 0 90 4c 65
        E 0 90 4d 66
        E 0 90 62 64
        E 0 90 63 66
        E 0 90 64 65
        E 0 90 65 66
        E 0 9f 51 64
        E 0 9f 69 64
        E 120 80 33 00
        E 0 80 34 00
        E 0 80 4a 00
        E 0 80 4b 00
        E 0 80 4c 00
        E 0 80 4d 00
        E 0 80 62 00
        E 0 80 63 00
        E 0 80 64 00
        E 0 80 65 00
        E 0 8f 51 00
        E 0 8f 69 00
        E 120 90 4a 64
        E 0 90 4b 66
        E 0 90 4c 65
        E 0 90 4d 66
        E 0 90 62 64
        E 0 90 63 66
        E 0 90 64 65
        E 0 90 65 66
        E 0 9d 51 64
        E 0 9d 69 64
        E 120 80 4a 00
        E 0 80 4b 00
        E 0 80 4c 00
        E 0 80 4d 00
        E 0 80 62 00
        E 0 80 63 00
        E 0 80 64 00
        E 0 80 65 00
        E 0 8d 51 00
        E 0 8d 69 00
        E 120 90 33 66
        E 0 90 34 65
        E 0 90 4a 64
        E 0 90 4b 66
        E 0 90 4c 65
        E 0 90 4d 66
        E 0 90 62 64
        E 0 90 63 66
        E 0 90 64 65
        E 0 90 65 66
        E 0 9f 51 64
        E 0 9f 69 64
        E 120 80 33 00
        E 0 80 34 00
        E 0 80 4a 00
        E 0 80 4b 00
        E 0 80 4c 00
        E 0 80 4d 00
        E 0 80 62 00
        E 0 80 63 00
        E 0 80 64 00
        E 0 80 65 00
        E 0 8f 51 00
        E 0 8f 69 00
        E 120 90 4a 64
        E 0 90 4b 66
        E 0 90 4c 65
        E 0 90 4d 66
        E 0 90 62 64
        E 0 90 63 66
        E 0 90 64 65
        E 0 90 65 66
        E 0 9d 51 64
        E 0 9d 69 64
        E 120 80 4a 00
        E 0 80 4b 00
        E 0 80 4c 00
        E 0 80 4d 00
        E 0 80 62 00
        E 0 80 63 00
        E 0 80 64 00
        E 0 80 65 00
        E 0 8d 51 00
        E 0 8d 69 00
        E 120 90 33 66
        E 0 90 34 65
        E 0 90 4a 64
        E 0 90 4b 66
        E 0 90 4c 65
        E 0 90 4d 66
        E 0 90 62 64
        E 0 90 63 66
        E 0 90 64 65
        E 0 90 65 66
        E 0 9f 51 64
        E 0 9f 69 64
        E 120 80 33 00
        E 0 80 34 00
        E 0 80 4a 00
        E 0 80 4b 00
        E 0 80 4c 00
        E 0 80 4d 00
        E 0 80 62 00
        E 0 80 63 00
        E 0 80 64 00
        E 0 80 65 00
        E 0 8f 51 00
        E 0 8f 69 00
        E 120 90 4a 64
        E 0 90 4b 66
        E 0 90 4c 65
        E 0 90 4d 66
        E 0 90 62 64
        E 0 90 63 66
        E 0 90 64 65
        E 0 90 65 66
        E 0 9d 51 64
        E 0 9d 69 64
        E 120 80 4a 00
        E 0 80 4b 00
        E 0 80 4c 00
        E 0 80 4d 00
        E 0 80 62 00
        E 0 80 63 00
        E 0 80 64 00
        E 0 80 65 00
        E 0 8d 51 00
        E 0 8d 69 00
        E 120 90 33 66
        E 0 90 34 65
        E 0 90 4a 64
        E 0 90 4b 66
        E 0 90 4c 65
        E 0 90 4d 66
        E 0 90 62 64
        E 0 90 63 66
        E 0 90 64 65
        E 0 90 65 66
        E 0 9f 51 64
        E 0 9f 69 64
        E 120 80 33 00
        E 0 80 34 00
        E 0 80 4a 00
        E 0 80 4b 00
        E 0 80 4c 00
        E 0 80 4d 00
        E 0 80 62 00
        E 0 80 63 00
        E 0 80 64 00
        E 0 80 65 00
        E 0 8f 51 00
        E 0 8f 69 00
        E 120 90 6c 66
        E 0 93 48 67
        E 0 93 49 66
        E 0 93 4a 64
        E 0 93 4b 64
        E 0 93 4c 64
        E 0 93 4d 67
        E 0 93 60 67
        E 0 93 61 66
        E 0 93 62 64
        E 0 93 63 64
        E 0 93 64 64
        E 0 93 65 67
        E 120 80 6c 00
        E 0 83 48 00
        E 0 83 49 00
        E 0 83 4a 00
        E 0 83 4b 00
        E 0 83 4c 00
        E 0 83 4d 00
        E 0 83 60 00
        E 0 83 61 00
        E 0 83 62 00
        E 0 83 63 00
        E 0 83 64 00
        E 0 83 65 00
        E 120 90 07 64
        E 0 90 18 67
        E 0 90 30 67
        E 0 90 31 66
        E 0 90 48 67
        E 0 90 49 66
        E 0 90 4a 64
        E 0 90 4b 64
        E 0 90 4c 64
        E 0 90 4d 67
        E 0 90 60 67
        E 0 90 61 66
        E 0 90 62 64
        E 0 90 63 64
        E 0 90 64 64
        E 0 90 65 67
        E 0 9f 51 64
        E 0 9f 69 64
        E 120 80 07 00
        E 0 80 18 00
        E 0 80 30 00
        E 0 80 31 00
        E 240 80 48 00
        E 0 80 49 00
        E 0 80 4a 00
        E 0 80 4b 00
        E 0 80 4c 00
        E 0 80 4d 00
        E 0 80 60 00
        E 0 80 61 00
        E 0 80 62 00
        E 0 80 63 00
        E 0 80 64 00
        E 0 80 65 00
        E 0 8f 51 00
        E 0 8f 69 00
        E 120 90 30 67
        E 0 90 31 66
        E 0 90 48 67
        E 0 90 49 66
        E 0 90 4a 64
        E 0 90 4b 64
        E 0 90 4c 64
        E 0 90 4d 67
        E 0 90 60 67
        E 0 90 61 66
        E 0 90 62 64
        E 0 90 63 64
        E 0 90 64 64
        E 0 90 65 67
        E 0 9f 51 64
        E 0 9f 69 64
        E 120 80 30 00
        E 0 80 31 00
        E 0 80 48 00
        E 0 80 49 00
        E 0 80 4a 00
        E 0 80 4b 00
        E 0 80 4c 00
        E 0 80 4d 00
        E 0 80 60 00
        E 0 80 61 00
        E 0 80 62 00
        E 0 80 63 00
        E 0 80 64 00
        E 0 80 65 00
        E 0 8f 51 00
        E 0 8f 69 00
        E 120 93 48 66
        E 0 93 49 66
        E 0 93 4a 64
        E 0 93 4b 64
        E 0 93 4c 64
        E 0 93 4d 67
        E 0 93 60 66
        E 0 93 61 66
        E 0 93 62 64
        E 0 93 63 64
        E 0 93 64 64
        E 0 93 65 67
        E 120 83 48 00
        E 0 83 49 00
        E 0 83 4a 00
        E 0 83 4b 00
        E 0 83 4c 00
        E 0 83 4d 00
        E 0 83 60 00
        E 0 83 61 00
        E 0 83 62 00
        E 0 83 63 00
        E 0 83 64 00
        E 0 83 65 00
        E 120 90 07 64
        E 0 90 10 64
        E 0 90 18 66
        E 0 90 30 66
        E 0 90 31 66
        E 0 90 48 66
        E 0 90 49 66
        E 0 90 4a 64
        E 0 90 4b 64
        E 0 90 4c 64
        E 0 90 4d 67
        E 0 90 60 66
        E 0 90 61 66
        E 0 90 62 64
        E 0 90 63 64
        E 0 90 64 64
        E 0 90 65 67
        E 0 90 74 60
        E 0 9f 51 64
        E 0 9f 69 64
        E 120 80 07 00
        E 0 80 10 00
        E 0 80 18 00
        E 0 80 30 00
        E 0 80 31 00
        E 0 80 48 00
        E 0 80 49 00
        E 0 80 4a 00
        E 0 80 4b 00
        E 0 80 4c 00
        E 0 80 4d 00
        E 0 80 60 00
        E 0 80 61 00
        E 0 80 62 00
        E 0 80 63 00
        E 0 80 64 00
        E 0 80 65 00
        E 0 8f 51 00
        E 0 8f 69 00
        E 120 90 30 66
        E 0 90 31 66
        E 0 90 48 66
        E 0 90 49 66
        E 0 90 4a 64
        E 0 90 4b 64
        E 0 90 4c 64
        E 0 90 4d 67
        E 0 90 60 66
        E 0 90 61 66
        E 0 90 62 64
        E 0 90 63 64
        E 0 90 64 64
        E 0 90 65 67
        E 0 9d 51 64
        E 0 9d 69 64
        E 120 80 30 00
        E 0 80 31 00
        E 0 80 48 00
        E 0 80 49 00
        E 0 80 4a 00
        E 0 80 4b 00
        E 0 80 4c 00
        E 0 80 4d 00
        E 0 80 60 00
        E 0 80 61 00
        E 0 80 62 00
        E 0 80 63 00
        E 0 80 64 00
        E 0 80 65 00
        E 0 8d 51 00
        E 0 8d 69 00
        E 120 90 30 66
        E 0 90 31 66
        E 0 90 48 66
        E 0 90 49 66
        E 0 90 4a 64
        E 0 90 4b 64
        E 0 90 4c 64
        E 0 90 4d 67
        E 0 90 60 66
        E 0 90 61 66
        E 0 90 62 64
        E 0 90 63 64
        E 0 90 64 64
        E 0 90 65 67
        E 0 9f 51 64
        E 0 9f 69 64
        E 120 80 30 00
        E 0 80 31 00
        E 0 80 48 00
        E 0 80 49 00
        E 0 80 4a 00
        E 0 80 4b 00
        E 0 80 4c 00
        E 0 80 4d 00
        E 0 80 60 00
        E 0 80 61 00
        E 0 80 62 00
        E 0 80 63 00
        E 0 80 64 00
        E 0 80 65 00
        E 0 8f 51 00
        E 0 8f 69 00
        E 120 93 48 64
        E 0 93 49 66
        E 0 93 4a 66
        E 0 93 4b 64
        E 0 93 4c 64
        E 0 93 4d 64
        E 0 93 60 64
        E 0 93 61 66
        E 0 93 62 66
        E 0 93 63 64
        E 0 93 64 64
        E 0 93 65 64
        E 120 83 48 00
        E 0 83 49 00
        E 0 83 4a 00
        E 0 83 4b 00
        E 0 83 4c 00
        E 0 83 4d 00
        E 0 83 60 00
        E 0 83 61 00
        E 0 83 62 00
        E 0 83 63 00
        E 0 83 64 00
        E 0 83 65 00
        E 120 90 04 64
        E 0 90 19 66
        E 0 90 31 66
        E 0 90 32 66
        E 0 90 48 64
        E 0 90 49 66
        E 0 90 4a 66
        E 0 90 4b 64
        E 0 90 4c 64
        E 0 90 4d 64
        E 0 90 60 64
        E 0 90 61 66
        E 0 90 62 66
        E 0 90 63 64
        E 0 90 64 64
        E 0 90 65 64
        E 0 9f 51 64
        E 0 9f 69 64
        E 120 80 04 00
        E 0 80 19 00
        E 0 80 31 00
        E 0 80 32 00
        E 240 80 48 00
        E 0 80 49 00
        E 0 80 4a 00
        E 0 80 4b 00
        E 0 80 4c 00
        E 0 80 4d 00
        E 0 80 60 00
        E 0 80 61 00
        E 0 80 62 00
        E 0 80 63 00
        E 0 80 64 00
        E 0 80 65 00
        E 0 8f 51 00
        E 0 8f 69 00
        E 120 90 19 66
        E 0 90 31 66
        E 0 90 32 66
        E 0 90 48 64
        E 0 90 49 66
        E 0 90 4a 66
        E 0 90 4b 64
        E 0 90 4c 64
        E 0 90 4d 64
        E 0 90 60 64
        E 0 90 61 66
        E 0 90 62 66
        E 0 90 63 64
        E 0 90 64 64
        E 0 90 65 64
        E 0 9f 51 64
        E 0 9f 69 64
        E 120 80 19 00
        E 0 80 31 00
        E 0 80 32 00
        E 0 80 48 00
        E 0 80 49 00
        E 0 80 4a 00
        E 0 80 4b 00
        E 0 80 4c 00
        E 0 80 4d 00
        E 0 80 60 00
        E 0 80 61 00
        E 0 80 62 00
        E 0 80 63 00
        E 0 80 64 00
        E 0 80 65 00
        E 0 8f 51 00
        E 0 8f 69 00
        E 120 90 31 66
        E 0 90 32 66
        E 0 90 48 64
        E 0 90 49 66
        E 0 90 4a 66
        E 0 90 4b 64
        E 0 90 4c 64
        E 0 90 4d 64
        E 0 90 60 64
        E 0 90 61 66
        E 0 90 62 66
        E 0 90 63 64
        E 0 90 64 64
        E 0 90 65 64
        E 0 9d 51 64
        E 0 9d 69 64
        E 120 80 31 00
        E 0 80 32 00
        E 0 80 48 00
        E 0 80 49 00
        E 0 80 4a 00
        E 0 80 4b 00
        E 0 80 4c 00
        E 0 80 4d 00
        E 0 80 60 00
        E 0 80 61 00
        E 0 80 62 00
        E 0 80 63 00
        E 0 80 64 00
        E 0 80 65 00
        E 0 8d 51 00
        E 0 8d 69 00
        E 120 90 19 66
        E 0 90 31 66
        E 0 90 32 66
        E 0 90 48 64
        E 0 90 49 66
        E 0 90 4a 66
        E 0 90 4b 64
        E 0 90 4c 64
        E 0 90 4d 64
        E 0 90 60 64
        E 0 90 61 66
        E 0 90 62 66
        E 0 90 63 64
        E 0 90 64 64
        E 0 90 65 64
        E 0 9f 51 64
        E 0 9f 69 64
        E 120 80 19 00
        E 0 80 31 00
        E 0 80 32 00
        E 240 80 48 00
        E 0 80 49 00
        E 0 80 4a 00
        E 0 80 4b 00
        E 0 80 4c 00
        E 0 80 4d 00
        E 0 80 60 00
        E 0 80 61 00
        E 0 80 62 00
        E 0 80 63 00
        E 0 80 64 00
        E 0 80 65 00
        E 0 8f 51 00
        E 0 8f 69 00
        E 120 90 31 66
        E 0 90 32 66
        E 0 90 48 64
        E 0 90 49 66
        E 0 90 4a 66
        E 0 90 4b 64
        E 0 90 4c 64
        E 0 90 4d 64
        E 0 90 60 64
        E 0 90 61 66
        E 0 90 62 66
        E 0 90 63 64
        E 0 90 64 64
        E 0 90 65 64
        E 0 9f 51 64
        E 0 9f 69 64
        E 120 80 31 00
        E 0 80 32 00
        E 0 80 48 00
        E 0 80 49 00
        E 0 80 4a 00
        E 0 80 4b 00
        E 0 80 4c 00
        E 0 80 4d 00
        E 0 80 60 00
        E 0 80 61 00
        E 0 80 62 00
        E 0 80 63 00
        E 0 80 64 00
        E 0 80 65 00
        E 0 8f 51 00
        E 0 8f 69 00
        E 120 90 6c 65
        E 0 93 49 67
        E 0 93 4a 66
        E 0 93 4b 64
        E 0 93 4c 65
        E 0 93 4d 64
        E 0 93 61 67
        E 0 93 62 66
        E 0 93 63 64
        E 0 93 64 65
        E 0 93 65 64
        E 120 80 6c 00
        E 0 83 49 00
        E 0 83 4a 00
        E 0 83 4b 00
        E 0 83 4c 00
        E 0 83 4d 00
        E 0 83 61 00
        E 0 83 62 00
        E 0 83 63 00
        E 0 83 64 00
        E 0 83 65 00
        E 120 90 0c 64
        E 0 90 31 67
        E 0 90 32 66
        E 0 90 49 67
        E 0 90 4a 66
        E 0 90 4b 64
        E 0 90 4c 65
        E 0 90 4d 64
        E 0 90 61 67
        E 0 90 62 66
        E 0 90 63 64
        E 0 90 64 65
        E 0 90 65 64
        E 0 9f 51 64
        E 0 9f 69 64
        E 120 80 74 00
        E 0 80 0c 00
        E 0 80 31 00
        E 0 80 32 00
        E 240 80 49 00
        E 0 80 4a 00
        E 0 80 4b 00
        E 0 80 4c 00
        E 0 80 4d 00
        E 0 80 61 00
        E 0 80 62 00
        E 0 80 63 00
        E 0 80 64 00
        E 0 80 65 00
        E 0 8f 51 00
        E 0 8f 69 00
        E 120 90 31 67
        E 0 90 32 66
        E 0 90 49 67
        E 0 90 4a 66
        E 0 90 4b 64
        E 0 90 4c 65
        E 0 90 4d 64
        E 0 90 61 67
        E 0 90 62 66
        E 0 90 63 64
        E 0 90 64 65
        E 0 90 65 64
        E 0 9f 51 64
        E 0 9f 69 64
        E 120 80 31 00
        E 0 80 32 00
        E 0 80 49 00
        E 0 80 4a 00
        E 0 80 4b 00
        E 0 80 4c 00
        E 0 80 4d 00
        E 0 80 61 00
        E 0 80 62 00
        E 0 80 63 00
        E 0 80 64 00
        E 0 80 65 00
        E 0 8f 51 00
        E 0 8f 69 00
        E 120 93 49 67
        E 0 93 4a 66
        E 0 93 4b 64
        E 0 93 4c 65
        E 0 93 4d 64
        E 0 93 61 67
        E 0 93 62 66
        E 0 93 63 64
        E 0 93 64 65
        E 0 93 65 64
        E 120 83 49 00
        E 0 83 4a 00
        E 0 83 4b 00
        E 0 83 4c 00
        E 0 83 4d 00
        E 0 83 61 00
        E 0 83 62 00
        E 0 83 63 00
        E 0 83 64 00
        E 0 83 65 00
        E 120 90 0c 64
        E 0 90 10 64
        E 0 90 31 66
        E 0 90 32 66
        E 0 90 49 66
        E 0 90 4a 66
        E 0 90 4b 64
        E 0 90 4c 65
        E 0 90 4d 64
        E 0 90 61 66
        E 0 90 62 66
        E 0 90 63 64
        E 0 90 64 65
        E 0 90 65 64
        E 0 9f 51 64
        E 0 9f 69 64
        E 120 80 0c 00
        E 0 80 10 00
        E 0 80 31 00
        E 0 80 32 00
        E 240 80 49 00
        E 0 80 4a 00
        E 0 80 4b 00
        E 0 80 4c 00
        E 0 80 4d 00
        E 0 80 61 00
        E 0 80 62 00
        E 0 80 63 00
        E 0 80 64 00
        E 0 80 65 00
        E 0 8f 51 00
        E 0 8f 69 00
        E 120 90 31 66
        E 0 90 32 66
        E 0 90 49 66
        E 0 90 4a 66
        E 0 90 4b 64
        E 0 90 4c 65
        E 0 90 4d 64
        E 0 90 61 66
        E 0 90 62 66
        E 0 90 63 64
        E 0 90 64 65
        E 0 90 65 64
        E 0 9f 51 64
        E 0 9f 69 64
        E 120 80 31 00
        E 0 80 32 00
        E 0 80 49 00
        E 0 80 4a 00
        E 0 80 4b 00
        E 0 80 4c 00
        E 0 80 4d 00
        E 0 80 61 00
        E 0 80 62 00
        E 0 80 63 00
        E 0 80 64 00
        E 0 80 65 00
        E 0 8f 51 00
        E 0 8f 69 00
        E 120 93 49 66
        E 0 93 4a 66
        E 0 93 4b 64
        E 0 93 4c 65
        E 0 93 4d 64
        E 0 93 61 66
        E 0 93 62 66
        E 0 93 63 64
        E 0 93 64 65
        E 0 93 65 64
        E 120 83 49 00
        E 0 83 4a 00
        E 0 83 4b 00
        E 0 83 4c 00
        E 0 83 4d 00
        E 0 83 61 00
        E 0 83 62 00
        E 0 83 63 00
        E 0 83 64 00
        E 0 83 65 00
        E 120 90 09 64
        E 0 90 1a 66
        E 0 90 32 66
        E 0 90 33 66
        E 0 90 49 64
        E 0 90 4a 66
        E 0 90 4b 66
        E 0 90 4c 65
        E 0 90 4d 64
        E 0 90 61 64
        E 0 90 62 66
        E 0 90 63 66
        E 0 90 64 65
        E 0 90 65 64
        E 0 9f 51 64
        E 0 9f 69 64
        E 120 80 09 00
        E 0 80 1a 00
        E 0 80 32 00
        E 0 80 33 00
        E 240 80 49 00
        E 0 80 4a 00
        E 0 80 4b 00
        E 0 80 4c 00
        E 0 80 4d 00
        E 0 80 61 00
        E 0 80 62 00
        E 0 80 63 00
        E 0 80 64 00
        E 0 80 65 00
        E 0 8f 51 00
        E 0 8f 69 00
        E 120 90 1a 66
        E 0 90 32 66
        E 0 90 33 66
        E 0 90 49 64
        E 0 90 4a 66
        E 0 90 4b 66
        E 0 90 4c 65
        E 0 90 4d 64
        E 0 90 61 64
        E 0 90 62 66
        E 0 90 63 66
        E 0 90 64 65
        E 0 90 65 64
        E 0 9f 51 64
        E 0 9f 69 64
        E 120 80 1a 00
        E 0 80 32 00
        E 0 80 33 00
        E 0 80 49 00
        E 0 80 4a 00
        E 0 80 4b 00
        E 0 80 4c 00
        E 0 80 4d 00
        E 0 80 61 00
        E 0 80 62 00
        E 0 80 63 00
        E 0 80 64 00
        E 0 80 65 00
        E 0 8f 51 00
        E 0 8f 69 00
        E 120 90 49 64
        E 0 90 4a 66
        E 0 90 4b 66
        E 0 90 4c 65
        E 0 90 4d 64
        E 0 90 61 64
        E 0 90 62 66
        E 0 90 63 66
        E 0 90 64 65
        E 0 90 65 64
        E 0 9d 51 64
        E 0 9d 69 64
        E 120 80 49 00
        E 0 80 4a 00
        E 0 80 4b 00
        E 0 80 4c 00
        E 0 80 4d 00
        E 0 80 61 00
        E 0 80 62 00
        E 0 80 63 00
        E 0 80 64 00
        E 0 80 65 00
        E 0 8d 51 00
        E 0 8d 69 00
        E 120 90 1a 66
        E 0 90 32 66
        E 0 90 33 66
        E 0 90 49 64
        E 0 90 4a 66
        E 0 90 4b 66
        E 0 90 4c 65
        E 0 90 4d 64
        E 0 90 61 64
        E 0 90 62 66
        E 0 90 63 66
        E 0 90 64 65
        E 0 90 65 64
        E 0 9f 51 64
        E 0 9f 69 64
        E 120 80 1a 00
        E 0 80 32 00
        E 0 80 33 00
        E 0 80 49 00
        E 0 80 4a 00
        E 0 80 4b 00
        E 0 80 4c 00
        E 0 80 4d 00
        E 0 80 61 00
        E 0 80 62 00
        E 0 80 63 00
        E 0 80 64 00
        E 0 80 65 00
        E 0 8f 51 00
        E 0 8f 69 00
        E 120 90 32 66
        E 0 90 33 66
        E 0 90 49 64
        E 0 90 4a 66
        E 0 90 4b 66
        E 0 90 4c 65
        E 0 90 4d 64
        E 0 90 61 64
        E 0 90 62 66
        E 0 90 63 66
        E 0 90 64 65
        E 0 90 65 64
        E 0 9d 51 64
        E 0 9d 69 64
        E 120 80 32 00
        E 0 80 33 00
        E 0 80 49 00
        E 0 80 4a 00
        E 0 80 4b 00
        E 0 80 4c 00
        E 0 80 4d 00
        E 0 80 61 00
        E 0 80 62 00
        E 0 80 63 00
        E 0 80 64 00
        E 0 80 65 00
        E 0 8d 51 00
        E 0 8d 69 00
        E 120 90 1a 66
        E 0 90 32 66
        E 0 90 33 66
        E 0 90 49 64
        E 0 90 4a 66
        E 0 90 4b 66
        E 0 90 4c 65
        E 0 90 4d 64
        E 0 90 61 64
        E 0 90 62 66
        E 0 90 63 66
        E 0 90 64 65
        E 0 90 65 64
        E 0 9f 51 64
        E 0 9f 69 64
        E 120 80 1a 00
        E 0 80 32 00
        E 0 80 33 00
        E 0 80 49 00
        E 0 80 4a 00
        E 0 80 4b 00
        E 0 80 4c 00
        E 0 80 4d 00
        E 0 80 61 00
        E 0 80 62 00
        E 0 80 63 00
        E 0 80 64 00
        E 0 80 65 00
        E 0 8f 51 00
        E 0 8f 69 00
        E 120 90 6c 66
        E 0 93 48 67
        E 0 93 49 66
        E 0 93 4a 64
        E 0 93 4b 64
        E 0 93 4c 64
        E 0 93 4d 67
        E 0 93 60 67
        E 0 93 61 66
        E 0 93 62 64
        E 0 93 63 64
        E 0 93 64 64
        E 0 93 65 67
        E 120 80 6c 00
        E 0 83 48 00
        E 0 83 49 00
        E 0 83 4a 00
        E 0 83 4b 00
        E 0 83 4c 00
        E 0 83 4d 00
        E 0 83 60 00
        E 0 83 61 00
        E 0 83 62 00
        E 0 83 63 00
        E 0 83 64 00
        E 0 83 65 00
        E 120 90 07 64
        E 0 90 18 67
        E 0 90 30 67
        E 0 90 31 66
        E 0 90 48 67
        E 0 90 49 66
        E 0 90 4a 64
        E 0 90 4b 64
        E 0 90 4c 64
        E 0 90 4d 67
        E 0 90 60 67
        E 0 90 61 66
        E 0 90 62 64
        E 0 90 63 64
        E 0 90 64 64
        E 0 90 65 67
        E 0 90 6c 66
        E 0 9f 51 64
        E 0 9f 69 64
        E 120 80 07 00
        E 0 80 18 00
        E 0 80 30 00
        E 0 80 31 00
        E 0 80 6c 00
        E 240 80 48 00
        E 0 80 49 00
        E 0 80 4a 00
        E 0 80 4b 00
        E 0 80 4c 00
        E 0 80 4d 00
        E 0 80 60 00
        E 0 80 61 00
        E 0 80 62 00
        E 0 80 63 00
        E 0 80 64 00
        E 0 80 65 00
        E 0 8f 51 00
        E 0 8f 69 00
        E 120 90 30 67
        E 0 90 31 66
        E 0 90 48 67
        E 0 90 49 66
        E 0 90 4a 64
        E 0 90 4b 64
        E 0 90 4c 64
        E 0 90 4d 67
        E 0 90 60 67
        E 0 90 61 66
        E 0 90 62 64
        E 0 90 63 64
        E 0 90 64 64
        E 0 90 65 67
        E 0 9f 51 64
        E 0 9f 69 64
        E 120 80 30 00
        E 0 80 31 00
        E 0 80 48 00
        E 0 80 49 00
        E 0 80 4a 00
        E 0 80 4b 00
        E 0 80 4c 00
        E 0 80 4d 00
        E 0 80 60 00
        E 0 80 61 00
        E 0 80 62 00
        E 0 80 63 00
        E 0 80 64 00
        E 0 80 65 00
        E 0 8f 51 00
        E 0 8f 69 00
        E 120 93 48 66
        E 0 93 49 66
        E 0 93 4a 64
        E 0 93 4b 64
        E 0 93 4c 64
        E 0 93 4d 67
        E 0 93 60 66
        E 0 93 61 66
        E 0 93 62 64
        E 0 93 63 64
        E 0 93 64 64
        E 0 93 65 67
        E 120 83 48 00
        E 0 83 49 00
        E 0 83 4a 00
        E 0 83 4b 00
        E 0 83 4c 00
        E 0 83 4d 00
        E 0 83 60 00
        E 0 83 61 00
        E 0 83 62 00
        E 0 83 63 00
        E 0 83 64 00
        E 0 83 65 00
        E 120 90 07 64
        E 0 90 10 64
        E 0 90 18 66
        E 0 90 30 66
        E 0 90 31 66
        E 0 90 48 66
        E 0 90 49 66
        E 0 90 4a 64
        E 0 90 4b 64
        E 0 90 4c 64
        E 0 90 4d 67
        E 0 90 60 66
        E 0 90 61 66
        E 0 90 62 64
        E 0 90 63 64
        E 0 90 64 64
        E 0 90 65 67
        E 0 9f 51 64
        E 0 9f 69 64
        E 120 80 07 00
        E 0 80 10 00
        E 0 80 18 00
        E 0 80 30 00
        E 0 80 31 00
        E 240 80 48 00
        E 0 80 49 00
        E 0 80 4a 00
        E 0 80 4b 00
        E 0 80 4c 00
        E 0 80 4d 00
        E 0 80 60 00
        E 0 80 61 00
        E 0 80 62 00
        E 0 80 63 00
        E 0 80 64 00
        E 0 80 65 00
        E 0 8f 51 00
        E 0 8f 69 00
        E 120 90 30 66
        E 0 90 31 66
        E 0 90 48 66
        E 0 90 49 66
        E 0 90 4a 64
        E 0 90 4b 64
        E 0 90 4c 64
        E 0 90 4d 67
        E 0 90 60 66
        E 0 90 61 66
        E 0 90 62 64
        E 0 90 63 64
        E 0 90 64 64
        E 0 90 65 67
        E 0 9f 51 64
        E 0 9f 69 64
        E 120 80 30 00
        E 0 80 31 00
        E 0 80 48 00
        E 0 80 49 00
        E 0 80 4a 00
        E 0 80 4b 00
        E 0 80 4c 00
        E 0 80 4d 00
        E 0 80 60 00
        E 0 80 61 00
        E 0 80 62 00
        E 0 80 63 00
        E 0 80 64 00
        E 0 80 65 00
        E 0 8f 51 00
        E 0 8f 69 00
        E 120 93 48 64
        E 0 93 49 66
        E 0 93 4a 66
        E 0 93 4b 64
        E 0 93 4c 64
        E 0 93 4d 64
        E 0 93 60 64
        E 0 93 61 66
        E 0 93 62 66
        E 0 93 63 64
        E 0 93 64 64
        E 0 93 65 64
        E 120 83 48 00
        E 0 83 49 00
        E 0 83 4a 00
        E 0 83 4b 00
        E 0 83 4c 00
        E 0 83 4d 00
        E 0 83 60 00
        E 0 83 61 00
        E 0 83 62 00
        E 0 83 63 00
        E 0 83 64 00
        E 0 83 65 00
        E 120 90 04 64
        E 0 90 19 66
        E 0 90 31 66
        E 0 90 32 66
        E 0 90 48 64
        E 0 90 49 66
        E 0 90 4a 66
        E 0 90 4b 64
        E 0 90 4c 64
        E 0 90 4d 64
        E 0 90 60 64
        E 0 90 61 66
        E 0 90 62 66
        E 0 90 63 64
        E 0 90 64 64
        E 0 90 65 64
        E 0 9f 51 64
        E 0 9f 69 64
        E 120 80 04 00
        E 0 80 19 00
        E 0 80 31 00
        E 0 80 32 00
        E 240 80 48 00
        E 0 80 49 00
        E 0 80 4a 00
        E 0 80 4b 00
        E 0 80 4c 00
        E 0 80 4d 00
        E 0 80 60 00
        E 0 80 61 00
        E 0 80 62 00
        E 0 80 63 00
        E 0 80 64 00
        E 0 80 65 00
        E 0 8f 51 00
        E 0 8f 69 00
        E 120 90 19 66
        E 0 90 31 66
        E 0 90 32 66
        E 0 90 48 64
        E 0 90 49 66
        E 0 90 4a 66
        E 0 90 4b 64
        E 0 90 4c 64
        E 0 90 4d 64
        E 0 90 60 64
        E 0 90 61 66
        E 0 90 62 66
        E 0 90 63 64
        E 0 90 64 64
        E 0 90 65 64
        E 0 9f 51 64
        E 0 9f 69 64
        E 120 80 19 00
        E 0 80 31 00
        E 0 80 32 00
        E 0 80 48 00
        E 0 80 49 00
        E 0 80 4a 00
        E 0 80 4b 00
        E 0 80 4c 00
        E 0 80 4d 00
        E 0 80 60 00
        E 0 80 61 00
        E 0 80 62 00
        E 0 80 63 00
        E 0 80 64 00
        E 0 80 65 00
        E 0 8f 51 00
        E 0 8f 69 00
        E 120 90 31 66
        E 0 90 32 66
        E 0 90 48 64
        E 0 90 49 66
        E 0 90 4a 66
        E 0 90 4b 64
        E 0 90 4c 64
        E 0 90 4d 64
        E 0 90 60 64
        E 0 90 61 66
        E 0 90 62 66
        E 0 90 63 64
        E 0 90 64 64
        E 0 90 65 64
        E 0 9d 51 64
        E 0 9d 69 64
        E 120 80 31 00
        E 0 80 32 00
        E 0 80 48 00
        E 0 80 49 00
        E 0 80 4a 00
        E 0 80 4b 00
        E 0 80 4c 00
        E 0 80 4d 00
        E 0 80 60 00
        E 0 80 61 00
        E 0 80 62 00
        E 0 80 63 00
        E 0 80 64 00
        E 0 80 65 00
        E 0 8d 51 00
        E 0 8d 69 00
        E 120 90 19 66
        E 0 90 31 66
        E 0 90 32 66
        E 0 90 48 64
        E 0 90 49 66
        E 0 90 4a 66
        E 0 90 4b 64
        E 0 90 4c 64
        E 0 90 4d 64
        E 0 90 60 64
        E 0 90 61 66
        E 0 90 62 66
        E 0 90 63 64
        E 0 90 64 64
        E 0 90 65 64
        E 0 9f 51 64
        E 0 9f 69 64
        E 120 80 19 00
        E 0 80 31 00
        E 0 80 32 00
        E 240 80 48 00
        E 0 80 49 00
        E 0 80 4a 00
        E 0 80 4b 00
        E 0 80 4c 00
        E 0 80 4d 00
        E 0 80 60 00
        E 0 80 61 00
        E 0 80 62 00
        E 0 80 63 00
        E 0 80 64 00
        E 0 80 65 00
        E 0 8f 51 00
        E 0 8f 69 00
        E 120 90 31 66
        E 0 90 32 66
        E 0 90 48 64
        E 0 90 49 66
        E 0 90 4a 66
        E 0 90 4b 64
        E 0 90 4c 64
        E 0 90 4d 64
        E 0 90 60 64
        E 0 90 61 66
        E 0 90 62 66
        E 0 90 63 64
        E 0 90 64 64
        E 0 90 65 64
        E 0 9f 51 64
        E 0 9f 69 64
        E 120 80 31 00
        E 0 80 32 00
        E 0 80 48 00
        E 0 80 49 00
        E 0 80 4a 00
        E 0 80 4b 00
        E 0 80 4c 00
        E 0 80 4d 00
        E 0 80 60 00
        E 0 80 61 00
        E 0 80 62 00
        E 0 80 63 00
        E 0 80 64 00
        E 0 80 65 00
        E 0 8f 51 00
        E 0 8f 69 00
        E 120 90 6c 65
        E 0 93 49 67
        E 0 93 4a 66
        E 0 93 4b 64
        E 0 93 4c 65
        E 0 93 4d 64
        E 0 93 61 67
        E 0 93 62 66
        E 0 93 63 64
        E 0 93 64 65
        E 0 93 65 64
        E 120 80 6c 00
        E 0 83 49 00
        E 0 83 4a 00
        E 0 83 4b 00
        E 0 83 4c 00
        E 0 83 4d 00
        E 0 83 61 00
        E 0 83 62 00
        E 0 83 63 00
        E 0 83 64 00
        E 0 83 65 00
        E 120 90 0c 64
        E 0 90 31 67
        E 0 90 32 66
        E 0 90 49 67
        E 0 90 4a 66
        E 0 90 4b 64
        E 0 90 4c 65
        E 0 90 4d 64
        E 0 90 61 67
        E 0 90 62 66
        E 0 90 63 64
        E 0 90 64 65
        E 0 90 65 64
        E 0 9f 51 64
        E 0 9f 69 64
        E 120 80 0c 00
        E 0 80 31 00
        E 0 80 32 00
        E 240 80 49 00
        E 0 80 4a 00
        E 0 80 4b 00
        E 0 80 4c 00
        E 0 80 4d 00
        E 0 80 61 00
        E 0 80 62 00
        E 0 80 63 00
        E 0 80 64 00
        E 0 80 65 00
        E 0 8f 51 00
        E 0 8f 69 00
        E 120 90 31 67
        E 0 90 32 66
        E 0 90 49 67
        E 0 90 4a 66
        E 0 90 4b 64
        E 0 90 4c 65
        E 0 90 4d 64
        E 0 90 61 67
        E 0 90 62 66
        E 0 90 63 64
        E 0 90 64 65
        E 0 90 65 64
        E 0 9f 51 64
        E 0 9f 69 64
        E 120 80 31 00
        E 0 80 32 00
        E 0 80 49 00
        E 0 80 4a 00
        E 0 80 4b 00
        E 0 80 4c 00
        E 0 80 4d 00
        E 0 80 61 00
        E 0 80 62 00
        E 0 80 63 00
        E 0 80 64 00
        E 0 80 65 00
        E 0 8f 51 00
        E 0 8f 69 00
        E 120 93 49 67
        E 0 93 4a 66
        E 0 93 4b 64
        E 0 93 4c 65
        E 0 93 4d 64
        E 0 93 61 67
        E 0 93 62 66
        E 0 93 63 64
        E 0 93 64 65
        E 0 93 65 64
        E 120 83 49 00
        E 0 83 4a 00
        E 0 83 4b 00
        E 0 83 4c 00
        E 0 83 4d 00
        E 0 83 61 00
        E 0 83 62 00
        E 0 83 63 00
        E 0 83 64 00
        E 0 83 65 00
        E 120 90 0c 64
        E 0 90 10 64
        E 0 90 31 66
        E 0 90 32 66
        E 0 90 49 66
        E 0 90 4a 66
        E 0 90 4b 64
        E 0 90 4c 65
        E 0 90 4d 64
        E 0 90 61 66
        E 0 90 62 66
        E 0 90 63 64
        E 0 90 64 65
        E 0 90 65 64
        E 0 9f 51 64
        E 0 9f 69 64
        E 120 80 0c 00
        E 0 80 10 00
        E 0 80 31 00
        E 0 80 32 00
        E 240 80 49 00
        E 0 80 4a 00
        E 0 80 4b 00
        E 0 80 4c 00
        E 0 80 4d 00
        E 0 80 61 00
        E 0 80 62 00
        E 0 80 63 00
        E 0 80 64 00
        E 0 80 65 00
        E 0 8f 51 00
        E 0 8f 69 00
        E 120 90 31 66
        E 0 90 32 66
        E 0 90 49 66
        E 0 90 4a 66
        E 0 90 4b 64
        E 0 90 4c 65
        E 0 90 4d 64
        E 0 90 61 66
        E 0 90 62 66
        E 0 90 63 64
        E 0 90 64 65
        E 0 90 65 64
        E 0 9f 51 64
        E 0 9f 69 64
        E 120 80 31 00
        E 0 80 32 00
        E 0 80 49 00
        E 0 80 4a 00
        E 0 80 4b 00
        E 0 80 4c 00
        E 0 80 4d 00
        E 0 80 61 00
        E 0 80 62 00
        E 0 80 63 00
        E 0 80 64 00
        E 0 80 65 00
        E 0 8f 51 00
        E 0 8f 69 00
        E 120 93 49 66
        E 0 93 4a 66
        E 0 93 4b 64
        E 0 93 4c 65
        E 0 93 4d 64
        E 0 93 61 66
        E 0 93 62 66
        E 0 93 63 64
        E 0 93 64 65
        E 0 93 65 64
        E 120 83 49 00
        E 0 83 4a 00
        E 0 83 4b 00
        E 0 83 4c 00
        E 0 83 4d 00
        E 0 83 61 00
        E 0 83 62 00
        E 0 83 63 00
        E 0 83 64 00
        E 0 83 65 00
        E 120 90 09 64
        E 0 90 1a 66
        E 0 90 32 66
        E 0 90 33 66
        E 0 90 49 64
        E 0 90 4a 66
        E 0 90 4b 66
        E 0 90 4c 65
        E 0 90 4d 64
        E 0 90 61 64
        E 0 90 62 66
        E 0 90 63 66
        E 0 90 64 65
        E 0 90 65 64
        E 0 9f 51 64
        E 0 9f 69 64
        E 120 80 09 00
        E 0 80 1a 00
        E 0 80 32 00
        E 0 80 33 00
        E 240 80 49 00
        E 0 80 4a 00
        E 0 80 4b 00
        E 0 80 4c 00
        E 0 80 4d 00
        E 0 80 61 00
        E 0 80 62 00
        E 0 80 63 00
        E 0 80 64 00
        E 0 80 65 00
        E 0 8f 51 00
        E 0 8f 69 00
        E 120 90 1a 66
        E 0 90 32 66
        E 0 90 33 66
        E 0 90 49 64
        E 0 90 4a 66
        E 0 90 4b 66
        E 0 90 4c 65
        E 0 90 4d 64
        E 0 90 61 64
        E 0 90 62 66
        E 0 90 63 66
        E 0 90 64 65
        E 0 90 65 64
        E 0 9f 51 64
        E 0 9f 69 64
        E 120 80 1a 00
        E 0 80 32 00
        E 0 80 33 00
        E 0 80 49 00
        E 0 80 4a 00
        E 0 80 4b 00
        E 0 80 4c 00
        E 0 80 4d 00
        E 0 80 61 00
        E 0 80 62 00
        E 0 80 63 00
        E 0 80 64 00
        E 0 80 65 00
        E 0 8f 51 00
        E 0 8f 69 00
        E 120 90 49 64
        E 0 90 4a 66
        E 0 90 4b 66
        E 0 90 4c 65
        E 0 90 4d 64
        E 0 90 61 64
        E 0 90 62 66
        E 0 90 63 66
        E 0 90 64 65
        E 0 90 65 64
        E 0 9d 51 64
        E 0 9d 69 64
        E 120 80 49 00
        E 0 80 4a 00
        E 0 80 4b 00
        E 0 80 4c 00
        E 0 80 4d 00
        E 0 80 61 00
        E 0 80 62 00
        E 0 80 63 00
        E 0 80 64 00
        E 0 80 65 00
        E 0 8d 51 00
        E 0 8d 69 00
        E 120 90 1a 66
        E 0 90 32 66
        E 0 90 33 66
        E 0 90 49 64
        E 0 90 4a 66
        E 0 90 4b 66
        E 0 90 4c 65
        E 0 90 4d 64
        E 0 90 61 64
        E 0 90 62 66
        E 0 90 63 66
        E 0 90 64 65
        E 0 90 65 64
        E 0 9f 51 64
        E 0 9f 69 64
        E 120 80 1a 00
        E 0 80 32 00
        E 0 80 33 00
        E 0 80 49 00
        E 0 80 4a 00
        E 0 80 4b 00
        E 0 80 4c 00
        E 0 80 4d 00
        E 0 80 61 00
        E 0 80 62 00
        E 0 80 63 00
        E 0 80 64 00
        E 0 80 65 00
        E 0 8f 51 00
        E 0 8f 69 00
        E 120 90 49 64
        E 0 90 4a 66
        E 0 90 4b 66
        E 0 90 4c 65
        E 0 90 4d 64
        E 0 90 61 64
        E 0 90 62 66
        E 0 90 63 66
        E 0 90 64 65
        E 0 90 65 64
        E 0 9d 51 64
        E 0 9d 69 64
        E 120 80 49 00
        E 0 80 4a 00
        E 0 80 4b 00
        E 0 80 4c 00
        E 0 80 4d 00
        E 0 80 61 00
        E 0 80 62 00
        E 0 80 63 00
        E 0 80 64 00
        E 0 80 65 00
        E 0 8d 51 00
        E 0 8d 69 00
        E 120 90 1a 66
        E 0 90 32 66
        E 0 90 33 66
        E 0 90 49 64
        E 0 90 4a 66
        E 0 90 4b 66
        E 0 90 4c 65
        E 0 90 4d 64
        E 0 90 61 64
        E 0 90 62 66
        E 0 90 63 66
        E 0 90 64 65
        E 0 90 65 64
        E 0 9f 51 64
        E 0 9f 69 64
        E 120 80 1a 00
        E 0 80 32 00
        E 0 80 33 00
        E 0 80 49 00
        E 0 80 4a 00
        E 0 80 4b 00
        E 0 80 4c 00
        E 0 80 4d 00
        E 0 80 61 00
        E 0 80 62 00
        E 0 80 63 00
        E 0 80 64 00
        E 0 80 65 00
        E 0 8f 51 00
        E 0 8f 69 00
        E 120 90 6c 66
        E 0 93 48 67
        E 0 93 49 66
        E 0 93 4a 64
        E 0 93 4b 64
        E 0 93 4c 64
        E 0 93 4d 67
        E 0 93 60 67
        E 0 93 61 66
        E 0 93 62 64
        E 0 93 63 64
        E 0 93 64 64
        E 0 93 65 67
        E 120 80 6c 00
        E 0 83 48 00
        E 0 83 49 00
        E 0 83 4a 00
        E 0 83 4b 00
        E 0 83 4c 00
        E 0 83 4d 00
        E 0 83 60 00
        E 0 83 61 00
        E 0 83 62 00
        E 0 83 63 00
        E 0 83 64 00
        E 0 83 65 00
        E 120 90 07 64
        E 0 90 18 67
        E 0 90 30 67
        E 0 90 31 66
        E 0 90 48 67
        E 0 90 49 66
        E 0 90 4a 64
        E 0 90 4b 64
        E 0 90 4c 64
        E 0 90 4d 67
        E 0 90 60 67
        E 0 90 61 66
        E 0 90 62 64
        E 0 90 63 64
        E 0 90 64 64
        E 0 90 65 67
        E 0 90 6c 66
        E 0 9f 51 64
        E 0 9f 69 64
        E 120 80 07 00
        E 0 80 18 00
        E 0 80 30 00
        E 0 80 31 00
        E 0 80 6c 00
        E 240 80 48 00
        E 0 80 49 00
        E 0 80 4a 00
        E 0 80 4b 00
        E 0 80 4c 00
        E 0 80 4d 00
        E 0 80 60 00
        E 0 80 61 00
        E 0 80 62 00
        E 0 80 63 00
        E 0 80 64 00
        E 0 80 65 00
        E 0 8f 51 00
        E 0 8f 69 00
        E 120 90 30 67
        E 0 90 31 66
        E 0 90 48 67
        E 0 90 49 66
        E 0 90 4a 64
        E 0 90 4b 64
        E 0 90 4c 64
        E 0 90 4d 67
        E 0 90 60 67
        E 0 90 61 66
        E 0 90 62 64
        E 0 90 63 64
        E 0 90 64 64
        E 0 90 65 67
        E 0 9f 51 64
        E 0 9f 69 64
        E 120 80 30 00
        E 0 80 31 00
        E 0 80 48 00
        E 0 80 49 00
        E 0 80 4a 00
        E 0 80 4b 00
        E 0 80 4c 00
        E 0 80 4d 00
        E 0 80 60 00
        E 0 80 61 00
        E 0 80 62 00
        E 0 80 63 00
        E 0 80 64 00
        E 0 80 65 00
        E 0 8f 51 00
        E 0 8f 69 00
        E 120 93 48 66
        E 0 93 49 66
        E 0 93 4a 64
        E 0 93 4b 64
        E 0 93 4c 64
        E 0 93 4d 67
        E 0 93 60 66
        E 0 93 61 66
        E 0 93 62 64
        E 0 93 63 64
        E 0 93 64 64
        E 0 93 65 67
        E 120 83 48 00
        E 0 83 49 00
        E 0 83 4a 00
        E 0 83 4b 00
        E 0 83 4c 00
        E 0 83 4d 00
        E 0 83 60 00
        E 0 83 61 00
        E 0 83 62 00
        E 0 83 63 00
        E 0 83 64 00
        E 0 83 65 00
        E 120 90 07 64
        E 0 90 10 64
        E 0 90 18 66
        E 0 90 30 66
        E 0 90 31 66
        E 0 90 48 66
        E 0 90 49 66
        E 0 90 4a 64
        E 0 90 4b 64
        E 0 90 4c 64
        E 0 90 4d 67
        E 0 90 60 66
        E 0 90 61 66
        E 0 90 62 64
        E 0 90 63 64
        E 0 90 64 64
        E 0 90 65 67
        E 0 9f 51 64
        E 0 9f 69 64
        E 120 80 07 00
        E 0 80 10 00
        E 0 80 18 00
        E 0 80 30 00
        E 0 80 31 00
        E 240 80 48 00
        E 0 80 49 00
        E 0 80 4a 00
        E 0 80 4b 00
        E 0 80 4c 00
        E 0 80 4d 00
        E 0 80 60 00
        E 0 80 61 00
        E 0 80 62 00
        E 0 80 63 00
        E 0 80 64 00
        E 0 80 65 00
        E 0 8f 51 00
        E 0 8f 69 00
        E 120 90 30 66
        E 0 90 31 66
        E 0 90 48 66
        E 0 90 49 66
        E 0 90 4a 64
        E 0 90 4b 64
        E 0 90 4c 64
        E 0 90 4d 67
        E 0 90 60 66
        E 0 90 61 66
        E 0 90 62 64
        E 0 90 63 64
        E 0 90 64 64
        E 0 90 65 67
        E 0 9f 51 64
        E 0 9f 69 64
        E 120 80 30 00
        E 0 80 31 00
        E 0 80 48 00
        E 0 80 49 00
        E 0 80 4a 00
        E 0 80 4b 00
        E 0 80 4c 00
        E 0 80 4d 00
        E 0 80 60 00
        E 0 80 61 00
        E 0 80 62 00
        E 0 80 63 00
        E 0 80 64 00
        E 0 80 65 00
        E 0 8f 51 00
        E 0 8f 69 00
        E 120 93 48 64
        E 0 93 49 66
        E 0 93 4a 66
        E 0 93 4b 64
        E 0 93 4c 64
        E 0 93 4d 64
        E 0 93 60 64
        E 0 93 61 66
        E 0 93 62 66
        E 0 93 63 64
        E 0 93 64 64
        E 0 93 65 64
        E 120 83 48 00
        E 0 83 49 00
        E 0 83 4a 00
        E 0 83 4b 00
        E 0 83 4c 00
        E 0 83 4d 00
        E 0 83 60 00
        E 0 83 61 00
        E 0 83 62 00
        E 0 83 63 00
        E 0 83 64 00
        E 0 83 65 00
        E 120 90 04 64
        E 0 90 19 66
        E 0 90 31 66
        E 0 90 32 66
        E 0 90 48 64
        E 0 90 49 66
        E 0 90 4a 66
        E 0 90 4b 64
        E 0 90 4c 64
        E 0 90 4d 64
        E 0 90 60 64
        E 0 90 61 66
        E 0 90 62 66
        E 0 90 63 64
        E 0 90 64 64
        E 0 90 65 64
        E 0 9f 51 64
        E 0 9f 69 64
        E 120 80 04 00
        E 0 80 19 00
        E 0 80 31 00
        E 0 80 32 00
        E 240 80 48 00
        E 0 80 49 00
        E 0 80 4a 00
        E 0 80 4b 00
        E 0 80 4c 00
        E 0 80 4d 00
        E 0 80 60 00
        E 0 80 61 00
        E 0 80 62 00
        E 0 80 63 00
        E 0 80 64 00
        E 0 80 65 00
        E 0 8f 51 00
        E 0 8f 69 00
        E 120 90 19 66
        E 0 90 31 66
        E 0 90 32 66
        E 0 90 48 64
        E 0 90 49 66
        E 0 90 4a 66
        E 0 90 4b 64
        E 0 90 4c 64
        E 0 90 4d 64
        E 0 90 60 64
        E 0 90 61 66
        E 0 90 62 66
        E 0 90 63 64
        E 0 90 64 64
        E 0 90 65 64
        E 0 9f 51 64
        E 0 9f 69 64
        E 120 80 19 00
        E 0 80 31 00
        E 0 80 32 00
        E 0 80 48 00
        E 0 80 49 00
        E 0 80 4a 00
        E 0 80 4b 00
        E 0 80 4c 00
        E 0 80 4d 00
        E 0 80 60 00
        E 0 80 61 00
        E 0 80 62 00
        E 0 80 63 00
        E 0 80 64 00
        E 0 80 65 00
        E 0 8f 51 00
        E 0 8f 69 00
        E 120 90 31 66
        E 0 90 32 66
        E 0 90 48 64
        E 0 90 49 66
        E 0 90 4a 66
        E 0 90 4b 64
        E 0 90 4c 64
        E 0 90 4d 64
        E 0 90 60 64
        E 0 90 61 66
        E 0 90 62 66
        E 0 90 63 64
        E 0 90 64 64
        E 0 90 65 64
        E 0 9d 51 64
        E 0 9d 69 64
        E 120 80 31 00
        E 0 80 32 00
        E 0 80 48 00
        E 0 80 49 00
        E 0 80 4a 00
        E 0 80 4b 00
        E 0 80 4c 00
        E 0 80 4d 00
        E 0 80 60 00
        E 0 80 61 00
        E 0 80 62 00
        E 0 80 63 00
        E 0 80 64 00
        E 0 80 65 00
        E 0 8d 51 00
        E 0 8d 69 00
        E 120 90 19 66
        E 0 90 31 66
        E 0 90 32 66
        E 0 90 48 64
        E 0 90 49 66
        E 0 90 4a 66
        E 0 90 4b 64
        E 0 90 4c 64
        E 0 90 4d 64
        E 0 90 60 64
        E 0 90 61 66
        E 0 90 62 66
        E 0 90 63 64
        E 0 90 64 64
        E 0 90 65 64
        E 0 9f 51 64
        E 0 9f 69 64
        E 120 80 19 00
        E 0 80 31 00
        E 0 80 32 00
        E 0 80 48 00
        E 0 80 49 00
        E 0 80 4a 00
        E 0 80 4b 00
        E 0 80 4c 00
        E 0 80 4d 00
        E 0 80 60 00
        E 0 80 61 00
        E 0 80 62 00
        E 0 80 63 00
        E 0 80 64 00
        E 0 80 65 00
        E 0 8f 51 00
        E 0 8f 69 00
        E 120 90 31 66
        E 0 90 32 66
        E 0 90 48 64
        E 0 90 49 66
        E 0 90 4a 66
        E 0 90 4b 64
        E 0 90 4c 64
        E 0 90 4d 64
        E 0 90 60 64
        E 0 90 61 66
        E 0 90 62 66
        E 0 90 63 64
        E 0 90 64 64
        E 0 90 65 64
        E 0 9d 51 64
        E 0 9d 69 64
        E 120 80 31 00
        E 0 80 32 00
        E 0 80 48 00
        E 0 80 49 00
        E 0 80 4a 00
        E 0 80 4b 00
        E 0 80 4c 00
        E 0 80 4d 00
        E 0 80 60 00
        E 0 80 61 00
        E 0 80 62 00
        E 0 80 63 00
        E 0 80 64 00
        E 0 80 65 00
        E 0 8d 51 00
        E 0 8d 69 00
        E 120 90 31 66
        E 0 90 32 66
        E 0 90 48 64
        E 0 90 49 66
        E 0 90 4a 66
        E 0 90 4b 64
        E 0 90 4c 64
        E 0 90 4d 64
        E 0 90 60 64
        E 0 90 61 66
        E 0 90 62 66
        E 0 90 63 64
        E 0 90 64 64
        E 0 90 65 64
        E 0 9f 51 64
        E 0 9f 69 64
        E 120 80 31 00
        E 0 80 32 00
        E 0 80 48 00
        E 0 80 49 00
        E 0 80 4a 00
        E 0 80 4b 00
        E 0 80 4c 00
        E 0 80 4d 00
        E 0 80 60 00
        E 0 80 61 00
        E 0 80 62 00
        E 0 80 63 00
        E 0 80 64 00
        E 0 80 65 00
        E 0 8f 51 00
        E 0 8f 69 00
        E 120 90 6c 65
        E 0 93 49 67
        E 0 93 4a 66
        E 0 93 4b 64
        E 0 93 4c 65
        E 0 93 4d 64
        E 0 93 61 67
        E 0 93 62 66
        E 0 93 63 64
        E 0 93 64 65
        E 0 93 65 64
        E 120 80 6c 00
        E 0 83 49 00
        E 0 83 4a 00
        E 0 83 4b 00
        E 0 83 4c 00
        E 0 83 4d 00
        E 0 83 61 00
        E 0 83 62 00
        E 0 83 63 00
        E 0 83 64 00
        E 0 83 65 00
        E 120 90 0c 64
        E 0 90 31 67
        E 0 90 32 66
        E 0 90 49 67
        E 0 90 4a 66
        E 0 90 4b 64
        E 0 90 4c 65
        E 0 90 4d 64
        E 0 90 61 67
        E 0 90 62 66
        E 0 90 63 64
        E 0 90 64 65
        E 0 90 65 64
        E 0 9f 51 64
        E 0 9f 69 64
        E 120 80 0c 00
        E 0 80 31 00
        E 0 80 32 00
        E 240 80 49 00
        E 0 80 4a 00
        E 0 80 4b 00
        E 0 80 4c 00
        E 0 80 4d 00
        E 0 80 61 00
        E 0 80 62 00
        E 0 80 63 00
        E 0 80 64 00
        E 0 80 65 00
        E 0 8f 51 00
        E 0 8f 69 00
        E 120 90 31 67
        E 0 90 32 66
        E 0 90 49 67
        E 0 90 4a 66
        E 0 90 4b 64
        E 0 90 4c 65
        E 0 90 4d 64
        E 0 90 61 67
        E 0 90 62 66
        E 0 90 63 64
        E 0 90 64 65
        E 0 90 65 64
        E 0 9f 51 64
        E 0 9f 69 64
        E 120 80 31 00
        E 0 80 32 00
        E 0 80 49 00
        E 0 80 4a 00
        E 0 80 4b 00
        E 0 80 4c 00
        E 0 80 4d 00
        E 0 80 61 00
        E 0 80 62 00
        E 0 80 63 00
        E 0 80 64 00
        E 0 80 65 00
        E 0 8f 51 00
        E 0 8f 69 00
        E 120 93 49 67
        E 0 93 4a 66
        E 0 93 4b 64
        E 0 93 4c 65
        E 0 93 4d 64
        E 0 93 61 67
        E 0 93 62 66
        E 0 93 63 64
        E 0 93 64 65
        E 0 93 65 64
        E 120 83 49 00
        E 0 83 4a 00
        E 0 83 4b 00
        E 0 83 4c 00
        E 0 83 4d 00
        E 0 83 61 00
        E 0 83 62 00
        E 0 83 63 00
        E 0 83 64 00
        E 0 83 65 00
        E 120 90 0c 64
        E 0 90 10 64
        E 0 90 31 66
        E 0 90 32 66
        E 0 90 49 66
        E 0 90 4a 66
        E 0 90 4b 64
        E 0 90 4c 65
        E 0 90 4d 64
        E 0 90 61 66
        E 0 90 62 66
        E 0 90 63 64
        E 0 90 64 65
        E 0 90 65 64
        E 0 9f 51 64
        E 0 9f 69 64
        E 120 80 0c 00
        E 0 80 10 00
        E 0 80 31 00
        E 0 80 32 00
        E 240 80 49 00
        E 0 80 4a 00
        E 0 80 4b 00
        E 0 80 4c 00
        E 0 80 4d 00
        E 0 80 61 00
        E 0 80 62 00
        E 0 80 63 00
        E 0 80 64 00
        E 0 80 65 00
        E 0 8f 51 00
        E 0 8f 69 00
        E 120 90 31 66
        E 0 90 32 66
        E 0 90 49 66
        E 0 90 4a 66
        E 0 90 4b 64
        E 0 90 4c 65
        E 0 90 4d 64
        E 0 90 61 66
        E 0 90 62 66
        E 0 90 63 64
        E 0 90 64 65
        E 0 90 65 64
        E 0 9f 51 64
        E 0 9f 69 64
        E 120 80 31 00
        E 0 80 32 00
        E 0 80 49 00
        E 0 80 4a 00
        E 0 80 4b 00
        E 0 80 4c 00
        E 0 80 4d 00
        E 0 80 61 00
        E 0 80 62 00
        E 0 80 63 00
        E 0 80 64 00
        E 0 80 65 00
        E 0 8f 51 00
        E 0 8f 69 00
        E 120 93 49 66
        E 0 93 4a 66
        E 0 93 4b 64
        E 0 93 4c 65
        E 0 93 4d 64
        E 0 93 61 66
        E 0 93 62 66
        E 0 93 63 64
        E 0 93 64 65
        E 0 93 65 64
        E 120 83 49 00
        E 0 83 4a 00
        E 0 83 4b 00
        E 0 83 4c 00
        E 0 83 4d 00
        E 0 83 61 00
        E 0 83 62 00
        E 0 83 63 00
        E 0 83 64 00
        E 0 83 65 00
        E 120 90 09 64
        E 0 90 1a 66
        E 0 90 32 66
        E 0 90 33 66
        E 0 90 49 64
        E 0 90 4a 66
        E 0 90 4b 66
        E 0 90 4c 65
        E 0 90 4d 64
        E 0 90 61 64
        E 0 90 62 66
        E 0 90 63 66
        E 0 90 64 65
        E 0 90 65 64
        E 0 9f 51 64
        E 0 9f 69 64
        E 120 80 09 00
        E 0 80 1a 00
        E 0 80 32 00
        E 0 80 33 00
        E 240 80 49 00
        E 0 80 4a 00
        E 0 80 4b 00
        E 0 80 4c 00
        E 0 80 4d 00
        E 0 80 61 00
        E 0 80 62 00
        E 0 80 63 00
        E 0 80 64 00
        E 0 80 65 00
        E 0 8f 51 00
        E 0 8f 69 00
        E 120 90 1a 66
        E 0 90 32 66
        E 0 90 33 66
        E 0 90 49 64
        E 0 90 4a 66
        E 0 90 4b 66
        E 0 90 4c 65
        E 0 90 4d 64
        E 0 90 61 64
        E 0 90 62 66
        E 0 90 63 66
        E 0 90 64 65
        E 0 90 65 64
        E 0 9f 51 64
        E 0 9f 69 64
        E 120 80 1a 00
        E 0 80 32 00
        E 0 80 33 00
        E 0 80 49 00
        E 0 80 4a 00
        E 0 80 4b 00
        E 0 80 4c 00
        E 0 80 4d 00
        E 0 80 61 00
        E 0 80 62 00
        E 0 80 63 00
        E 0 80 64 00
        E 0 80 65 00
        E 0 8f 51 00
        E 0 8f 69 00
        E 120 90 32 66
        E 0 90 33 66
        E 0 90 49 64
        E 0 90 4a 66
        E 0 90 4b 66
        E 0 90 4c 65
        E 0 90 4d 64
        E 0 90 61 64
        E 0 90 62 66
        E 0 90 63 66
        E 0 90 64 65
        E 0 90 65 64
        E 0 9d 51 64
        E 0 9d 69 64
        E 120 80 32 00
        E 0 80 33 00
        E 0 80 49 00
        E 0 80 4a 00
        E 0 80 4b 00
        E 0 80 4c 00
        E 0 80 4d 00
        E 0 80 61 00
        E 0 80 62 00
        E 0 80 63 00
        E 0 80 64 00
        E 0 80 65 00
        E 0 8d 51 00
        E 0 8d 69 00
        E 120 90 1a 66
        E 0 90 32 66
        E 0 90 33 66
        E 0 90 49 64
        E 0 90 4a 66
        E 0 90 4b 66
        E 0 90 4c 65
        E 0 90 4d 64
        E 0 90 61 64
        E 0 90 62 66
        E 0 90 63 66
        E 0 90 64 65
        E 0 90 65 64
        E 0 9f 51 64
        E 0 9f 69 64
        E 120 80 1a 00
        E 0 80 32 00
        E 0 80 33 00
        E 0 80 49 00
        E 0 80 4a 00
        E 0 80 4b 00
        E 0 80 4c 00
        E 0 80 4d 00
        E 0 80 61 00
        E 0 80 62 00
        E 0 80 63 00
        E 0 80 64 00
        E 0 80 65 00
        E 0 8f 51 00
        E 0 8f 69 00
        E 120 90 49 64
        E 0 90 4a 66
        E 0 90 4b 66
        E 0 90 4c 65
        E 0 90 4d 64
        E 0 90 61 64
        E 0 90 62 66
        E 0 90 63 66
        E 0 90 64 65
        E 0 90 65 64
        E 0 9d 51 64
        E 0 9d 69 64
        E 120 80 49 00
        E 0 80 4a 00
        E 0 80 4b 00
        E 0 80 4c 00
        E 0 80 4d 00
        E 0 80 61 00
        E 0 80 62 00
        E 0 80 63 00
        E 0 80 64 00
        E 0 80 65 00
        E 0 8d 51 00
        E 0 8d 69 00
        E 120 90 1a 66
        E 0 90 32 66
        E 0 90 33 66
        E 0 90 49 64
        E 0 90 4a 66
        E 0 90 4b 66
        E 0 90 4c 65
        E 0 90 4d 64
        E 0 90 61 64
        E 0 90 62 66
        E 0 90 63 66
        E 0 90 64 65
        E 0 90 65 64
        E 0 9f 51 64
        E 0 9f 69 64
        E 120 80 1a 00
        E 0 80 32 00
        E 0 80 33 00
        E 0 80 49 00
        E 0 80 4a 00
        E 0 80 4b 00
        E 0 80 4c 00
        E 0 80 4d 00
        E 0 80 61 00
        E 0 80 62 00
        E 0 80 63 00
        E 0 80 64 00
        E 0 80 65 00
        E 0 8f 51 00
        E 0 8f 69 00
        E 120 90 6c 66
        E 0 93 48 67
        E 0 93 49 66
        E 0 93 4a 64
        E 0 93 4b 64
        E 0 93 4c 64
        E 0 93 4d 67
        E 0 93 60 67
        E 0 93 61 66
        E 0 93 62 64
        E 0 93 63 64
        E 0 93 64 64
        E 0 93 65 67
        E 120 80 6c 00
        E 0 83 48 00
        E 0 83 49 00
        E 0 83 4a 00
        E 0 83 4b 00
        E 0 83 4c 00
        E 0 83 4d 00
        E 0 83 60 00
        E 0 83 61 00
        E 0 83 62 00
        E 0 83 63 00
        E 0 83 64 00
        E 0 83 65 00
        E 120 90 07 64
        E 0 90 18 67
        E 0 90 30 67
        E 0 90 31 66
        E 0 90 48 67
        E 0 90 49 66
        E 0 90 4a 64
        E 0 90 4b 64
        E 0 90 4c 64
        E 0 90 4d 67
        E 0 90 60 67
        E 0 90 61 66
        E 0 90 62 64
        E 0 90 63 64
        E 0 90 64 64
        E 0 90 65 67
        E 0 90 6c 66
        E 0 9f 51 64
        E 0 9f 69 64
        E 120 80 07 00
        E 0 80 18 00
        E 0 80 30 00
        E 0 80 31 00
        E 0 80 6c 00
        E 240 80 48 00
        E 0 80 49 00
        E 0 80 4a 00
        E 0 80 4b 00
        E 0 80 4c 00
        E 0 80 4d 00
        E 0 80 60 00
        E 0 80 61 00
        E 0 80 62 00
        E 0 80 63 00
        E 0 80 64 00
        E 0 80 65 00
        E 0 8f 51 00
        E 0 8f 69 00
        E 120 90 30 67
        E 0 90 31 66
        E 0 90 48 67
        E 0 90 49 66
        E 0 90 4a 64
        E 0 90 4b 64
        E 0 90 4c 64
        E 0 90 4d 67
        E 0 90 60 67
        E 0 90 61 66
        E 0 90 62 64
        E 0 90 63 64
        E 0 90 64 64
        E 0 90 65 67
        E 0 9f 51 64
        E 0 9f 69 64
        E 120 80 30 00
        E 0 80 31 00
        E 0 80 48 00
        E 0 80 49 00
        E 0 80 4a 00
        E 0 80 4b 00
        E 0 80 4c 00
        E 0 80 4d 00
        E 0 80 60 00
        E 0 80 61 00
        E 0 80 62 00
        E 0 80 63 00
        E 0 80 64 00
        E 0 80 65 00
        E 0 8f 51 00
        E 0 8f 69 00
        E 120 93 48 66
        E 0 93 49 66
        E 0 93 4a 64
        E 0 93 4b 64
        E 0 93 4c 64
        E 0 93 4d 67
        E 0 93 60 66
        E 0 93 61 66
        E 0 93 62 64
        E 0 93 63 64
        E 0 93 64 64
        E 0 93 65 67
        E 120 83 48 00
        E 0 83 49 00
        E 0 83 4a 00
        E 0 83 4b 00
        E 0 83 4c 00
        E 0 83 4d 00
        E 0 83 60 00
        E 0 83 61 00
        E 0 83 62 00
        E 0 83 63 00
        E 0 83 64 00
        E 0 83 65 00
        E 120 90 07 64
        E 0 90 10 64
        E 0 90 18 66
        E 0 90 30 66
        E 0 90 31 66
        E 0 90 48 66
        E 0 90 49 66
        E 0 90 4a 64
        E 0 90 4b 64
        E 0 90 4c 64
        E 0 90 4d 67
        E 0 90 60 66
        E 0 90 61 66
        E 0 90 62 64
        E 0 90 63 64
        E 0 90 64 64
        E 0 90 65 67
        E 0 9f 51 64
        E 0 9f 69 64
        E 120 80 07 00
        E 0 80 10 00
        E 0 80 18 00
        E 0 80 30 00
        E 0 80 31 00
        E 240 80 48 00
        E 0 80 49 00
        E 0 80 4a 00
        E 0 80 4b 00
        E 0 80 4c 00
        E 0 80 4d 00
        E 0 80 60 00
        E 0 80 61 00
        E 0 80 62 00
        E 0 80 63 00
        E 0 80 64 00
        E 0 80 65 00
        E 0 8f 51 00
        E 0 8f 69 00
        E 120 90 30 66
        E 0 90 31 66
        E 0 90 48 66
        E 0 90 49 66
        E 0 90 4a 64
        E 0 90 4b 64
        E 0 90 4c 64
        E 0 90 4d 67
        E 0 90 60 66
        E 0 90 61 66
        E 0 90 62 64
        E 0 90 63 64
        E 0 90 64 64
        E 0 90 65 67
        E 0 9f 51 64
        E 0 9f 69 64
        E 120 80 30 00
        E 0 80 31 00
        E 0 80 48 00
        E 0 80 49 00
        E 0 80 4a 00
        E 0 80 4b 00
        E 0 80 4c 00
        E 0 80 4d 00
        E 0 80 60 00
        E 0 80 61 00
        E 0 80 62 00
        E 0 80 63 00
        E 0 80 64 00
        E 0 80 65 00
        E 0 8f 51 00
        E 0 8f 69 00
        E 120 93 48 64
        E 0 93 49 66
        E 0 93 4a 66
        E 0 93 4b 64
        E 0 93 4c 64
        E 0 93 4d 64
        E 0 93 60 64
        E 0 93 61 66
        E 0 93 62 66
        E 0 93 63 64
        E 0 93 64 64
        E 0 93 65 64
        E 120 83 48 00
        E 0 83 49 00
        E 0 83 4a 00
        E 0 83 4b 00
        E 0 83 4c 00
        E 0 83 4d 00
        E 0 83 60 00
        E 0 83 61 00
        E 0 83 62 00
        E 0 83 63 00
        E 0 83 64 00
        E 0 83 65 00
        E 120 90 04 64
        E 0 90 19 66
        E 0 90 31 66
        E 0 90 32 66
        E 0 90 48 64
        E 0 90 49 66
        E 0 90 4a 66
        E 0 90 4b 64
        E 0 90 4c 64
        E 0 90 4d 64
        E 0 90 60 64
        E 0 90 61 66
        E 0 90 62 66
        E 0 90 63 64
        E 0 90 64 64
        E 0 90 65 64
        E 0 9f 51 64
        E 0 9f 69 64
        E 120 80 04 00
        E 0 80 19 00
        E 0 80 31 00
        E 0 80 32 00
        E 240 80 48 00
        E 0 80 49 00
        E 0 80 4a 00
        E 0 80 4b 00
        E 0 80 4c 00
        E 0 80 4d 00
        E 0 80 60 00
        E 0 80 61 00
        E 0 80 62 00
        E 0 80 63 00
        E 0 80 64 00
        E 0 80 65 00
        E 0 8f 51 00
        E 0 8f 69 00
        E 120 90 19 66
        E 0 90 31 66
        E 0 90 32 66
        E 0 90 48 64
        E 0 90 49 66
        E 0 90 4a 66
        E 0 90 4b 64
        E 0 90 4c 64
        E 0 90 4d 64
        E 0 90 60 64
        E 0 90 61 66
        E 0 90 62 66
        E 0 90 63 64
        E 0 90 64 64
        E 0 90 65 64
        E 0 9f 51 64
        E 0 9f 69 64
        E 120 80 19 00
        E 0 80 31 00
        E 0 80 32 00
        E 0 80 48 00
        E 0 80 49 00
        E 0 80 4a 00
        E 0 80 4b 00
        E 0 80 4c 00
        E 0 80 4d 00
        E 0 80 60 00
        E 0 80 61 00
        E 0 80 62 00
        E 0 80 63 00
        E 0 80 64 00
        E 0 80 65 00
        E 0 8f 51 00
        E 0 8f 69 00
        E 120 90 31 66
        E 0 90 32 66
        E 0 90 48 64
        E 0 90 49 66
        E 0 90 4a 66
        E 0 90 4b 64
        E 0 90 4c 64
        E 0 90 4d 64
        E 0 90 60 64
        E 0 90 61 66
        E 0 90 62 66
        E 0 90 63 64
        E 0 90 64 64
        E 0 90 65 64
        E 0 9d 51 64
        E 0 9d 69 64
        E 120 80 31 00
        E 0 80 32 00
        E 0 80 48 00
        E 0 80 49 00
        E 0 80 4a 00
        E 0 80 4b 00
        E 0 80 4c 00
        E 0 80 4d 00
        E 0 80 60 00
        E 0 80 61 00
        E 0 80 62 00
        E 0 80 63 00
        E 0 80 64 00
        E 0 80 65 00
        E 0 8d 51 00
        E 0 8d 69 00
        E 120 90 19 66
        E 0 90 31 66
        E 0 90 32 66
        E 0 90 48 64
        E 0 90 49 66
        E 0 90 4a 66
        E 0 90 4b 64
        E 0 90 4c 64
        E 0 90 4d 64
        E 0 90 60 64
        E 0 90 61 66
        E 0 90 62 66
        E 0 90 63 64
        E 0 90 64 64
        E 0 90 65 64
        E 0 9f 51 64
        E 0 9f 69 64
        E 120 80 19 00
        E 0 80 31 00
        E 0 80 32 00
        E 0 80 48 00
        E 0 80 49 00
        E 0 80 4a 00
        E 0 80 4b 00
        E 0 80 4c 00
        E 0 80 4d 00
        E 0 80 60 00
        E 0 80 61 00
        E 0 80 62 00
        E 0 80 63 00
        E 0 80 64 00
        E 0 80 65 00
        E 0 8f 51 00
        E 0 8f 69 00
        E 120 90 31 66
        E 0 90 32 66
        E 0 90 48 64
        E 0 90 49 66
        E 0 90 4a 66
        E 0 90 4b 64
        E 0 90 4c 64
        E 0 90 4d 64
        E 0 90 60 64
        E 0 90 61 66
        E 0 90 62 66
        E 0 90 63 64
        E 0 90 64 64
        E 0 90 65 64
        E 0 9d 51 64
        E 0 9d 69 64
        E 120 80 31 00
        E 0 80 32 00
        E 0 80 48 00
        E 0 80 49 00
        E 0 80 4a 00
        E 0 80 4b 00
        E 0 80 4c 00
        E 0 80 4d 00
        E 0 80 60 00
        E 0 80 61 00
        E 0 80 62 00
        E 0 80 63 00
        E 0 80 64 00
        E 0 80 65 00
        E 0 8d 51 00
        E 0 8d 69 00
        E 120 90 31 66
        E 0 90 32 66
        E 0 90 48 64
        E 0 90 49 66
        E 0 90 4a 66
        E 0 90 4b 64
        E 0 90 4c 64
        E 0 90 4d 64
        E 0 90 60 64
        E 0 90 61 66
        E 0 90 62 66
        E 0 90 63 64
        E 0 90 64 64
        E 0 90 65 64
        E 0 9f 51 64
        E 0 9f 69 64
        E 120 80 31 00
        E 0 80 32 00
        E 0 80 48 00
        E 0 80 49 00
        E 0 80 4a 00
        E 0 80 4b 00
        E 0 80 4c 00
        E 0 80 4d 00
        E 0 80 60 00
        E 0 80 61 00
        E 0 80 62 00
        E 0 80 63 00
        E 0 80 64 00
        E 0 80 65 00
        E 0 8f 51 00
        E 0 8f 69 00
        E 120 90 6c 65
        E 0 93 49 67
        E 0 93 4a 66
        E 0 93 4b 64
        E 0 93 4c 65
        E 0 93 4d 64
        E 0 93 61 67
        E 0 93 62 66
        E 0 93 63 64
        E 0 93 64 65
        E 0 93 65 64
        E 120 80 6c 00
        E 0 83 49 00
        E 0 83 4a 00
        E 0 83 4b 00
        E 0 83 4c 00
        E 0 83 4d 00
        E 0 83 61 00
        E 0 83 62 00
        E 0 83 63 00
        E 0 83 64 00
        E 0 83 65 00
        E 120 90 0c 64
        E 0 90 31 67
        E 0 90 32 66
        E 0 90 49 67
        E 0 90 4a 66
        E 0 90 4b 64
        E 0 90 4c 65
        E 0 90 4d 64
        E 0 90 61 67
        E 0 90 62 66
        E 0 90 63 64
        E 0 90 64 65
        E 0 90 65 64
        E 0 9f 51 64
        E 0 9f 69 64
        E 120 80 0c 00
        E 0 80 31 00
        E 0 80 32 00
        E 240 80 49 00
        E 0 80 4a 00
        E 0 80 4b 00
        E 0 80 4c 00
        E 0 80 4d 00
        E 0 80 61 00
        E 0 80 62 00
        E 0 80 63 00
        E 0 80 64 00
        E 0 80 65 00
        E 0 8f 51 00
        E 0 8f 69 00
        E 120 90 31 67
        E 0 90 32 66
        E 0 90 49 67
        E 0 90 4a 66
        E 0 90 4b 64
        E 0 90 4c 65
        E 0 90 4d 64
        E 0 90 61 67
        E 0 90 62 66
        E 0 90 63 64
        E 0 90 64 65
        E 0 90 65 64
        E 0 9f 51 64
        E 0 9f 69 64
        E 120 80 31 00
        E 0 80 32 00
        E 0 80 49 00
        E 0 80 4a 00
        E 0 80 4b 00
        E 0 80 4c 00
        E 0 80 4d 00
        E 0 80 61 00
        E 0 80 62 00
        E 0 80 63 00
        E 0 80 64 00
        E 0 80 65 00
        E 0 8f 51 00
        E 0 8f 69 00
        E 120 93 49 67
        E 0 93 4a 66
        E 0 93 4b 64
        E 0 93 4c 65
        E 0 93 4d 64
        E 0 93 61 67
        E 0 93 62 66
        E 0 93 63 64
        E 0 93 64 65
        E 0 93 65 64
        E 120 83 49 00
        E 0 83 4a 00
        E 0 83 4b 00
        E 0 83 4c 00
        E 0 83 4d 00
        E 0 83 61 00
        E 0 83 62 00
        E 0 83 63 00
        E 0 83 64 00
        E 0 83 65 00
        E 120 90 0c 64
        E 0 90 10 64
        E 0 90 31 66
        E 0 90 32 66
        E 0 90 49 66
        E 0 90 4a 66
        E 0 90 4b 64
        E 0 90 4c 65
        E 0 90 4d 64
        E 0 90 61 66
        E 0 90 62 66
        E 0 90 63 64
        E 0 90 64 65
        E 0 90 65 64
        E 0 9f 51 64
        E 0 9f 69 64
        E 120 80 0c 00
        E 0 80 10 00
        E 0 80 31 00
        E 0 80 32 00
        E 240 80 49 00
        E 0 80 4a 00
        E 0 80 4b 00
        E 0 80 4c 00
        E 0 80 4d 00
        E 0 80 61 00
        E 0 80 62 00
        E 0 80 63 00
        E 0 80 64 00
        E 0 80 65 00
        E 0 8f 51 00
        E 0 8f 69 00
        E 120 90 31 66
        E 0 90 32 66
        E 0 90 49 66
        E 0 90 4a 66
        E 0 90 4b 64
        E 0 90 4c 65
        E 0 90 4d 64
        E 0 90 61 66
        E 0 90 62 66
        E 0 90 63 64
        E 0 90 64 65
        E 0 90 65 64
        E 0 9f 51 64
        E 0 9f 69 64
        E 120 80 31 00
        E 0 80 32 00
        E 0 80 49 00
        E 0 80 4a 00
        E 0 80 4b 00
        E 0 80 4c 00
        E 0 80 4d 00
        E 0 80 61 00
        E 0 80 62 00
        E 0 80 63 00
        E 0 80 64 00
        E 0 80 65 00
        E 0 8f 51 00
        E 0 8f 69 00
        E 120 93 49 66
        E 0 93 4a 66
        E 0 93 4b 64
        E 0 93 4c 65
        E 0 93 4d 64
        E 0 93 61 66
        E 0 93 62 66
        E 0 93 63 64
        E 0 93 64 65
        E 0 93 65 64
        E 120 83 49 00
        E 0 83 4a 00
        E 0 83 4b 00
        E 0 83 4c 00
        E 0 83 4d 00
        E 0 83 61 00
        E 0 83 62 00
        E 0 83 63 00
        E 0 83 64 00
        E 0 83 65 00
        E 120 90 09 64
        E 0 90 1a 66
        E 0 90 32 66
        E 0 90 33 66
        E 0 90 49 64
        E 0 90 4a 66
        E 0 90 4b 66
        E 0 90 4c 65
        E 0 90 4d 64
        E 0 90 61 64
        E 0 90 62 66
        E 0 90 63 66
        E 0 90 64 65
        E 0 90 65 64
        E 0 9f 51 64
        E 0 9f 69 64
        E 120 80 09 00
        E 0 80 1a 00
        E 0 80 32 00
        E 0 80 33 00
        E 240 80 49 00
        E 0 80 4a 00
        E 0 80 4b 00
        E 0 80 4c 00
        E 0 80 4d 00
        E 0 80 61 00
        E 0 80 62 00
        E 0 80 63 00
        E 0 80 64 00
        E 0 80 65 00
        E 0 8f 51 00
        E 0 8f 69 00
        E 120 90 1a 66
        E 0 90 32 66
        E 0 90 33 66
        E 0 90 49 64
        E 0 90 4a 66
        E 0 90 4b 66
        E 0 90 4c 65
        E 0 90 4d 64
        E 0 90 61 64
        E 0 90 62 66
        E 0 90 63 66
        E 0 90 64 65
        E 0 90 65 64
        E 0 9f 51 64
        E 0 9f 69 64
        E 120 80 1a 00
        E 0 80 32 00
        E 0 80 33 00
        E 0 80 49 00
        E 0 80 4a 00
        E 0 80 4b 00
        E 0 80 4c 00
        E 0 80 4d 00
        E 0 80 61 00
        E 0 80 62 00
        E 0 80 63 00
        E 0 80 64 00
        E 0 80 65 00
        E 0 8f 51 00
        E 0 8f 69 00
        E 120 90 32 66
        E 0 90 33 66
        E 0 90 49 64
        E 0 90 4a 66
        E 0 90 4b 66
        E 0 90 4c 65
        E 0 90 4d 64
        E 0 90 61 64
        E 0 90 62 66
        E 0 90 63 66
        E 0 90 64 65
        E 0 90 65 64
        E 0 9d 51 64
        E 0 9d 69 64
        E 120 80 32 00
        E 0 80 33 00
        E 0 80 49 00
        E 0 80 4a 00
        E 0 80 4b 00
        E 0 80 4c 00
        E 0 80 4d 00
        E 0 80 61 00
        E 0 80 62 00
        E 0 80 63 00
        E 0 80 64 00
        E 0 80 65 00
        E 0 8d 51 00
        E 0 8d 69 00
        E 120 90 1a 66
        E 0 90 32 66
        E 0 90 33 66
        E 0 90 49 64
        E 0 90 4a 66
        E 0 90 4b 66
        E 0 90 4c 65
        E 0 90 4d 64
        E 0 90 61 64
        E 0 90 62 66
        E 0 90 63 66
        E 0 90 64 65
        E 0 90 65 64
        E 0 9f 51 64
        E 0 9f 69 64
        E 120 80 1a 00
        E 0 80 32 00
        E 0 80 33 00
        E 0 80 49 00
        E 0 80 4a 00
        E 0 80 4b 00
        E 0 80 4c 00
        E 0 80 4d 00
        E 0 80 61 00
        E 0 80 62 00
        E 0 80 63 00
        E 0 80 64 00
        E 0 80 65 00
        E 0 8f 51 00
        E 0 8f 69 00
        E 120 90 32 66
        E 0 90 33 66
        E 0 90 49 64
        E 0 90 4a 66
        E 0 90 4b 66
        E 0 90 4c 65
        E 0 90 4d 64
        E 0 90 61 64
        E 0 90 62 66
        E 0 90 63 66
        E 0 90 64 65
        E 0 90 65 64
        E 0 9d 51 64
        E 0 9d 69 64
        E 120 80 32 00
        E 0 80 33 00
        E 0 80 49 00
        E 0 80 4a 00
        E 0 80 4b 00
        E 0 80 4c 00
        E 0 80 4d 00
        E 0 80 61 00
        E 0 80 62 00
        E 0 80 63 00
        E 0 80 64 00
        E 0 80 65 00
        E 0 8d 51 00
        E 0 8d 69 00
        E 120 90 1a 66
        E 0 90 32 66
        E 0 90 33 66
        E 0 90 49 64
        E 0 90 4a 66
        E 0 90 4b 66
        E 0 90 4c 65
        E 0 90 4d 64
        E 0 90 61 64
        E 0 90 62 66
        E 0 90 63 66
        E 0 90 64 65
        E 0 90 65 64
        E 0 9f 51 64
        E 0 9f 69 64
        E 120 80 1a 00
        E 0 80 32 00
        E 0 80 33 00
        E 0 80 49 00
        E 0 80 4a 00
        E 0 80 4b 00
        E 0 80 4c 00
        E 0 80 4d 00
        E 0 80 61 00
        E 0 80 62 00
        E 0 80 63 00
        E 0 80 64 00
        E 0 80 65 00
        E 0 8f 51 00
        E 0 8f 69 00
        E 120 90 6c 66
        E 0 93 48 67
        E 0 93 49 66
        E 0 93 4a 64
        E 0 93 4b 64
        E 0 93 4c 64
        E 0 93 4d 67
        E 0 93 60 67
        E 0 93 61 66
        E 0 93 62 64
        E 0 93 63 64
        E 0 93 64 64
        E 0 93 65 67
        E 120 80 6c 00
        E 0 83 48 00
        E 0 83 49 00
        E 0 83 4a 00
        E 0 83 4b 00
        E 0 83 4c 00
        E 0 83 4d 00
        E 0 83 60 00
        E 0 83 61 00
        E 0 83 62 00
        E 0 83 63 00
        E 0 83 64 00
        E 0 83 65 00
        E 120 90 07 64
        E 0 90 18 67
        E 0 90 30 67
        E 0 90 31 66
        E 0 90 48 67
        E 0 90 49 66
        E 0 90 4a 64
        E 0 90 4b 64
        E 0 90 4c 64
        E 0 90 4d 67
        E 0 90 60 67
        E 0 90 61 66
        E 0 90 62 64
        E 0 90 63 64
        E 0 90 64 64
        E 0 90 65 67
        E 0 9f 51 64
        E 0 9f 69 64
        E 120 80 07 00
        E 5639 80 18 00
        E 0 80 30 00
        E 0 80 31 00
        E 0 80 48 00
        E 0 80 49 00
        E 0 80 4a 00
        E 0 80 4b 00
        E 0 80 4c 00
        E 0 80 4d 00
        E 0 80 60 00
        E 0 80 61 00
        E 0 80 62 00
        E 0 80 63 00
        E 0 80 64 00
        E 0 80 65 00
        E 0 8f 51 00
        E 0 8f 69 00
        E 3841 b0 7b 00
        GUID {5F6C89C4-4A61-439B-8755-E679FDD5E4A6}
        IGNTEMPO 0 120.00000000 4 4
        SRCCOLOR 53
        VELLANE 132 128 60
        COLORMAP "C:\Program Files\REAPER (x64)\Data\color_maps\rockband_guitarbass.png"
        CFGEDITVIEW -834.978404 85.096304 7 12 0 0 0
        CFGEDIT 1 1 0 1 1 0 1 1 1 1 1 0.12500000 53 44 1253 718 0 2 1 1 0.00000000 0 1 1 0 0.500000 0 0 1.000000 64
        KEYSNAP 0 7 "102030050700" 0 "Pentatonic"
        EVTFILTER 0 -1 -1 -1 -1 0 1 0 0 -1.00000000 -1.00000000
      >
    >
  >
  <TRACK '{7CB125E7-7812-49B2-AADC-F1C77FB31F7A}'
    NAME "EVENTS"
    PEAKCOL 16576
    BEAT -1
    AUTOMODE 0
    VOLPAN 1.00000000000000 0.00000000000000 -1.00000000000000 -1.00000000000000 1.00000000000000
    MUTESOLO 0 0 0
    IPHASE 0
    ISBUS 0 0
    BUSCOMP 0 0
    SHOWINMIX 1 0.666700 0.500000 1 0.500000 -1 -1 -1
    FREEMODE 0
    SEL 0
    REC 0 0 0 0 0 0 0
    VU 2
    TRACKHEIGHT 0 0
    INQ 0 0 0 0.5000000000 100 0 0 100
    NCHAN 2
    FX 1
    TRACKID {7CB125E7-7812-49B2-AADC-F1C77FB31F7A}
    PERF 0
    MIDIOUT -1
    <MIDINOTENAMES
      0 26 "Hi-Hat"
      0 25 "Snare"
      0 24 "Kick"
    >
    MAINSEND 1 0
    <FXCHAIN
      SHOW 0
      LASTSEL 0
      DOCKED 0
    >
    <ITEM
      POSITION 0.00000000000000
      SNAPOFFS 0.00000000000000
      LENGTH 236.43058956916099
      LOOP 0
      ALLTAKES 0
      SEL 0
      FADEIN 1 0.000000 0.000000 1 0
      FADEOUT 1 0.000000 0.000000 1 0
      MUTE 0
      IGUID {81C77833-ED50-4207-BCF8-EE0B5888A037}
      IID 14
      NAME "EVENTS"
      VOLPAN 1.000000 0.000000 1.000000 -1.000000
      SOFFS 0.00000000000000 0.00000000000000
      PLAYRATE 1.00000000000000 1 0.00000000000000 -1
      CHANMODE 0
      GUID {FC7535D1-A397-4397-917B-5B4855E67317}
      <SOURCE MIDI
        HASDATA 1 480 QN
        POOLEDEVTS {EA790057-321F-4FB9-B7C9-2CE16F3ECDFC}
        <X 0 0
          /wNFVkVOVFM=
        >
        <X 3840 0
          /wFbcHJjX2ludHJvXQ==
        >
        <X 0 0
          /wFbY3Jvd2RfbWVsbG93XQ==
        >
        <X 0 0
          /wFbY3Jvd2Rfbm9jbGFwXQ==
        >
        <X 480 0
          /wFbbXVzaWNfc3RhcnRd
        >
        <X 14880 0
          /wFbcHJjX3ZlcnNlXzFhXQ==
        >
        <X 30720 0
          /wFbcHJjX3ZlcnNlXzFiXQ==
        >
        <X 30720 0
          /wFbcHJjX2Nob3J1c18xXQ==
        >
        <X 0 0
          /wFbY3Jvd2RfY2xhcF0=
        >
        <X 0 0
          /wFbY3Jvd2Rfbm9ybWFsXQ==
        >
        <X 19200 0
          /wFbcHJjX2JyaWRnZV0=
        >
        <X 0 0
          /wFbY3Jvd2RfbWVsbG93XQ==
        >
        <X 15360 0
          /wFbcHJjX3ZlcnNlXzJhXQ==
        >
        <X 0 0
          /wFbY3Jvd2Rfbm9jbGFwXQ==
        >
        <X 30720 0
          /wFbcHJjX3ZlcnNlXzJiXQ==
        >
        <X 30720 0
          /wFbcHJjX2Nob3J1c18yXQ==
        >
        <X 0 0
          /wFbY3Jvd2RfY2xhcF0=
        >
        <X 0 0
          /wFbY3Jvd2Rfbm9ybWFsXQ==
        >
        <X 19200 0
          /wFbcHJjX291dHJvX2Fd
        >
        <X 15360 0
          /wFbcHJjX291dHJvX2Jd
        >
        <X 15840 0
          /wFbbXVzaWNfZW5kXQ==
        >
        <X 9115 0
          /wFbZW5kXQ==
        >
        E 5 b0 7b 00
        GUID {38A7418C-75F1-4234-B680-D8278401E2C3}
        IGNTEMPO 0 120.00000000 4 4
        SRCCOLOR 54
        VELLANE 132 128 60
        COLORMAP "C:\Program Files\REAPER (x64)\Data\color_maps\rockband_guitarbass.png"
        CFGEDITVIEW -14959.251014 4.749808 0 48 0 0 0
        CFGEDIT 1 1 0 1 1 0 1 1 1 1 1 0.12500000 53 44 1253 718 0 2 1 1 0.00000000 0 1 1 0 0.500000 0 0 1.000000 64
        KEYSNAP 0 7 "102030050700" 0 "Pentatonic"
        EVTFILTER 0 -1 -1 -1 -1 0 1 0 0 -1.00000000 -1.00000000
      >
    >
  >
  <TRACK '{FBA4D458-505E-48F8-9E06-27C2D0A5B21F}'
    NAME "BEAT"
    PEAKCOL 16576
    BEAT -1
    AUTOMODE 0
    VOLPAN 1.00000000000000 0.00000000000000 -1.00000000000000 -1.00000000000000 1.00000000000000
    MUTESOLO 0 0 0
    IPHASE 0
    ISBUS 0 0
    BUSCOMP 0 0
    SHOWINMIX 1 0.666700 0.500000 1 0.500000 -1 -1 -1
    FREEMODE 0
    SEL 0
    REC 0 0 0 0 0 0 0
    VU 2
    TRACKHEIGHT 0 0
    INQ 0 0 0 0.5000000000 100 0 0 100
    NCHAN 2
    FX 1
    TRACKID {FBA4D458-505E-48F8-9E06-27C2D0A5B21F}
    PERF 0
    MIDIOUT -1
    <MIDINOTENAMES
      0 13 "Up Beats"
      0 12 "Downbeat"
    >
    MAINSEND 1 0
    <FXCHAIN
      SHOW 0
      LASTSEL 0
      DOCKED 0
    >
    <ITEM
      POSITION 0.00000000000000
      SNAPOFFS 0.00000000000000
      LENGTH 236.43058956916099
      LOOP 0
      ALLTAKES 0
      SEL 0
      FADEIN 1 0.000000 0.000000 1 0
      FADEOUT 1 0.000000 0.000000 1 0
      MUTE 0
      IGUID {18A26788-3C5C-4ABE-A93F-42C0F2059EE9}
      IID 15
      NAME "BEAT"
      VOLPAN 1.000000 0.000000 1.000000 -1.000000
      SOFFS 0.00000000000000 0.00000000000000
      PLAYRATE 1.00000000000000 1 0.00000000000000 -1
      CHANMODE 0
      GUID {A68819A0-17A7-44CD-A4D7-11E7106FB9E2}
      <SOURCE MIDI
        HASDATA 1 480 QN
        POOLEDEVTS {A0FF01CA-F5A2-4366-A3CE-A23914C9507A}
        <X 0 0
          /wNCRUFU
        >
        E 0 96 0c 64
        E 120 86 0c 00
        E 360 96 0d 64
        E 120 86 0d 00
        E 360 96 0d 64
        E 120 86 0d 00
        E 360 96 0d 64
        E 120 86 0d 00
        E 360 96 0c 64
        E 120 86 0c 00
        E 360 96 0d 64
        E 120 86 0d 00
        E 360 96 0d 64
        E 120 86 0d 00
        E 360 96 0d 64
        E 120 86 0d 00
        E 360 96 0c 64
        E 120 86 0c 00
        E 360 96 0d 64
        E 120 86 0d 00
        E 360 96 0d 64
        E 120 86 0d 00
        E 360 96 0d 64
        E 120 86 0d 00
        E 360 96 0c 64
        E 120 86 0c 00
        E 360 96 0d 64
        E 120 86 0d 00
        E 360 96 0d 64
        E 120 86 0d 00
        E 360 96 0d 64
        E 120 86 0d 00
        E 360 96 0c 64
        E 120 86 0c 00
        E 360 96 0d 64
        E 120 86 0d 00
        E 360 96 0d 64
        E 120 86 0d 00
        E 360 96 0d 64
        E 120 86 0d 00
        E 360 96 0c 64
        E 120 86 0c 00
        E 360 96 0d 64
        E 120 86 0d 00
        E 360 96 0d 64
        E 120 86 0d 00
        E 360 96 0d 64
        E 120 86 0d 00
        E 360 96 0c 64
        E 120 86 0c 00
        E 360 96 0d 64
        E 120 86 0d 00
        E 360 96 0d 64
        E 120 86 0d 00
        E 360 96 0d 64
        E 120 86 0d 00
        E 360 96 0c 64
        E 120 86 0c 00
        E 360 96 0d 64
        E 120 86 0d 00
        E 360 96 0d 64
        E 120 86 0d 00
        E 360 96 0d 64
        E 120 86 0d 00
        E 360 96 0c 64
        E 120 86 0c 00
        E 360 96 0d 64
        E 120 86 0d 00
        E 360 96 0d 64
        E 120 86 0d 00
        E 360 96 0d 64
        E 120 86 0d 00
        E 360 96 0c 64
        E 120 86 0c 00
        E 360 96 0d 64
        E 120 86 0d 00
        E 360 96 0d 64
        E 120 86 0d 00
        E 360 96 0d 64
        E 120 86 0d 00
        E 360 96 0c 64
        E 120 86 0c 00
        E 360 96 0d 64
        E 120 86 0d 00
        E 360 96 0d 64
        E 120 86 0d 00
        E 360 96 0d 64
        E 120 86 0d 00
        E 360 96 0c 64
        E 120 86 0c 00
        E 360 96 0d 64
        E 120 86 0d 00
        E 360 96 0d 64
        E 120 86 0d 00
        E 360 96 0d 64
        E 120 86 0d 00
        E 360 96 0c 64
        E 120 86 0c 00
        E 360 96 0d 64
        E 120 86 0d 00
        E 360 96 0d 64
        E 120 86 0d 00
        E 360 96 0d 64
        E 120 86 0d 00
        E 360 96 0c 64
        E 120 86 0c 00
        E 360 96 0d 64
        E 120 86 0d 00
        E 360 96 0d 64
        E 120 86 0d 00
        E 360 96 0d 64
        E 120 86 0d 00
        E 360 96 0c 64
        E 120 86 0c 00
        E 360 96 0d 64
        E 120 86 0d 00
        E 360 96 0d 64
        E 120 86 0d 00
        E 360 96 0d 64
        E 120 86 0d 00
        E 360 96 0c 64
        E 120 86 0c 00
        E 360 96 0d 64
        E 120 86 0d 00
        E 360 96 0d 64
        E 120 86 0d 00
        E 360 96 0d 64
        E 120 86 0d 00
        E 360 96 0c 64
        E 120 86 0c 00
        E 360 96 0d 64
        E 120 86 0d 00
        E 360 96 0d 64
        E 120 86 0d 00
        E 360 96 0d 64
        E 120 86 0d 00
        E 360 96 0c 64
        E 120 86 0c 00
        E 360 96 0d 64
        E 120 86 0d 00
        E 360 96 0d 64
        E 120 86 0d 00
        E 360 96 0d 64
        E 120 86 0d 00
        E 360 96 0c 64
        E 120 86 0c 00
        E 360 96 0d 64
        E 120 86 0d 00
        E 360 96 0d 64
        E 120 86 0d 00
        E 360 96 0d 64
        E 120 86 0d 00
        E 360 96 0c 64
        E 120 86 0c 00
        E 360 96 0d 64
        E 120 86 0d 00
        E 360 96 0d 64
        E 120 86 0d 00
        E 360 96 0d 64
        E 120 86 0d 00
        E 360 96 0c 64
        E 120 86 0c 00
        E 360 96 0d 64
        E 120 86 0d 00
        E 360 96 0d 64
        E 120 86 0d 00
        E 360 96 0d 64
        E 120 86 0d 00
        E 360 96 0c 64
        E 120 86 0c 00
        E 360 96 0d 64
        E 120 86 0d 00
        E 360 96 0d 64
        E 120 86 0d 00
        E 360 96 0d 64
        E 120 86 0d 00
        E 360 96 0c 64
        E 120 86 0c 00
        E 360 96 0d 64
        E 120 86 0d 00
        E 360 96 0d 64
        E 120 86 0d 00
        E 360 96 0d 64
        E 120 86 0d 00
        E 360 96 0c 64
        E 120 86 0c 00
        E 360 96 0d 64
        E 120 86 0d 00
        E 360 96 0d 64
        E 120 86 0d 00
        E 360 96 0d 64
        E 120 86 0d 00
        E 360 96 0c 64
        E 120 86 0c 00
        E 360 96 0d 64
        E 120 86 0d 00
        E 360 96 0d 64
        E 120 86 0d 00
        E 360 96 0d 64
        E 120 86 0d 00
        E 360 96 0c 64
        E 120 86 0c 00
        E 360 96 0d 64
        E 120 86 0d 00
        E 360 96 0d 64
        E 120 86 0d 00
        E 360 96 0d 64
        E 120 86 0d 00
        E 360 96 0c 64
        E 120 86 0c 00
        E 360 96 0d 64
        E 120 86 0d 00
        E 360 96 0d 64
        E 120 86 0d 00
        E 360 96 0d 64
        E 120 86 0d 00
        E 360 96 0c 64
        E 120 86 0c 00
        E 360 96 0d 64
        E 120 86 0d 00
        E 360 96 0d 64
        E 120 86 0d 00
        E 360 96 0d 64
        E 120 86 0d 00
        E 360 96 0c 64
        E 120 86 0c 00
        E 360 96 0d 64
        E 120 86 0d 00
        E 360 96 0d 64
        E 120 86 0d 00
        E 360 96 0d 64
        E 120 86 0d 00
        E 360 96 0c 64
        E 120 86 0c 00
        E 360 96 0d 64
        E 120 86 0d 00
        E 360 96 0d 64
        E 120 86 0d 00
        E 360 96 0d 64
        E 120 86 0d 00
        E 360 96 0c 64
        E 120 86 0c 00
        E 360 96 0d 64
        E 120 86 0d 00
        E 360 96 0d 64
        E 120 86 0d 00
        E 360 96 0d 64
        E 120 86 0d 00
        E 360 96 0c 64
        E 120 86 0c 00
        E 360 96 0d 64
        E 120 86 0d 00
        E 360 96 0d 64
        E 120 86 0d 00
        E 360 96 0d 64
        E 120 86 0d 00
        E 360 96 0c 64
        E 120 86 0c 00
        E 360 96 0d 64
        E 120 86 0d 00
        E 360 96 0d 64
        E 120 86 0d 00
        E 360 96 0d 64
        E 120 86 0d 00
        E 360 96 0c 64
        E 120 86 0c 00
        E 360 96 0d 64
        E 120 86 0d 00
        E 360 96 0d 64
        E 120 86 0d 00
        E 360 96 0d 64
        E 120 86 0d 00
        E 360 96 0c 64
        E 120 86 0c 00
        E 360 96 0d 64
        E 120 86 0d 00
        E 360 96 0d 64
        E 120 86 0d 00
        E 360 96 0d 64
        E 120 86 0d 00
        E 360 96 0c 64
        E 120 86 0c 00
        E 360 96 0d 64
        E 120 86 0d 00
        E 360 96 0d 64
        E 120 86 0d 00
        E 360 96 0d 64
        E 120 86 0d 00
        E 360 96 0c 64
        E 120 86 0c 00
        E 360 96 0d 64
        E 120 86 0d 00
        E 360 96 0d 64
        E 120 86 0d 00
        E 360 96 0d 64
        E 120 86 0d 00
        E 360 96 0c 64
        E 120 86 0c 00
        E 360 96 0d 64
        E 120 86 0d 00
        E 360 96 0d 64
        E 120 86 0d 00
        E 360 96 0d 64
        E 120 86 0d 00
        E 360 96 0c 64
        E 120 86 0c 00
        E 360 96 0d 64
        E 120 86 0d 00
        E 360 96 0d 64
        E 120 86 0d 00
        E 360 96 0d 64
        E 120 86 0d 00
        E 360 96 0c 64
        E 120 86 0c 00
        E 360 96 0d 64
        E 120 86 0d 00
        E 360 96 0d 64
        E 120 86 0d 00
        E 360 96 0d 64
        E 120 86 0d 00
        E 360 96 0c 64
        E 120 86 0c 00
        E 360 96 0d 64
        E 120 86 0d 00
        E 360 96 0d 64
        E 120 86 0d 00
        E 360 96 0d 64
        E 120 86 0d 00
        E 360 96 0c 64
        E 120 86 0c 00
        E 360 96 0d 64
        E 120 86 0d 00
        E 360 96 0d 64
        E 120 86 0d 00
        E 360 96 0d 64
        E 120 86 0d 00
        E 360 96 0c 64
        E 120 86 0c 00
        E 360 96 0d 64
        E 120 86 0d 00
        E 360 96 0d 64
        E 120 86 0d 00
        E 360 96 0d 64
        E 120 86 0d 00
        E 360 96 0c 64
        E 120 86 0c 00
        E 360 96 0d 64
        E 120 86 0d 00
        E 360 96 0d 64
        E 120 86 0d 00
        E 360 96 0d 64
        E 120 86 0d 00
        E 360 96 0c 64
        E 120 86 0c 00
        E 360 96 0d 64
        E 120 86 0d 00
        E 360 96 0d 64
        E 120 86 0d 00
        E 360 96 0d 64
        E 120 86 0d 00
        E 360 96 0c 64
        E 120 86 0c 00
        E 360 96 0d 64
        E 120 86 0d 00
        E 360 96 0d 64
        E 120 86 0d 00
        E 360 96 0d 64
        E 120 86 0d 00
        E 360 96 0c 64
        E 120 86 0c 00
        E 360 96 0d 64
        E 120 86 0d 00
        E 360 96 0d 64
        E 120 86 0d 00
        E 360 96 0d 64
        E 120 86 0d 00
        E 360 96 0c 64
        E 120 86 0c 00
        E 360 96 0d 64
        E 120 86 0d 00
        E 360 96 0d 64
        E 120 86 0d 00
        E 360 96 0d 64
        E 120 86 0d 00
        E 360 96 0c 64
        E 120 86 0c 00
        E 360 96 0d 64
        E 120 86 0d 00
        E 360 96 0d 64
        E 120 86 0d 00
        E 360 96 0d 64
        E 120 86 0d 00
        E 360 96 0c 64
        E 120 86 0c 00
        E 360 96 0d 64
        E 120 86 0d 00
        E 360 96 0d 64
        E 120 86 0d 00
        E 360 96 0d 64
        E 120 86 0d 00
        E 360 96 0c 64
        E 120 86 0c 00
        E 360 96 0d 64
        E 120 86 0d 00
        E 360 96 0d 64
        E 120 86 0d 00
        E 360 96 0d 64
        E 120 86 0d 00
        E 360 96 0c 64
        E 120 86 0c 00
        E 360 96 0d 64
        E 120 86 0d 00
        E 360 96 0d 64
        E 120 86 0d 00
        E 360 96 0d 64
        E 120 86 0d 00
        E 360 96 0c 64
        E 120 86 0c 00
        E 360 96 0d 64
        E 120 86 0d 00
        E 360 96 0d 64
        E 120 86 0d 00
        E 360 96 0d 64
        E 120 86 0d 00
        E 360 96 0c 64
        E 120 86 0c 00
        E 360 96 0d 64
        E 120 86 0d 00
        E 360 96 0d 64
        E 120 86 0d 00
        E 360 96 0d 64
        E 120 86 0d 00
        E 360 96 0c 64
        E 120 86 0c 00
        E 360 96 0d 64
        E 120 86 0d 00
        E 360 96 0d 64
        E 120 86 0d 00
        E 360 96 0d 64
        E 120 86 0d 00
        E 360 96 0c 64
        E 120 86 0c 00
        E 360 96 0d 64
        E 120 86 0d 00
        E 360 96 0d 64
        E 120 86 0d 00
        E 360 96 0d 64
        E 120 86 0d 00
        E 360 96 0c 64
        E 120 86 0c 00
        E 360 96 0d 64
        E 120 86 0d 00
        E 360 96 0d 64
        E 120 86 0d 00
        E 360 96 0d 64
        E 120 86 0d 00
        E 360 96 0c 64
        E 120 86 0c 00
        E 360 96 0d 64
        E 120 86 0d 00
        E 360 96 0d 64
        E 120 86 0d 00
        E 360 96 0d 64
        E 120 86 0d 00
        E 360 96 0c 64
        E 120 86 0c 00
        E 360 96 0d 64
        E 120 86 0d 00
        E 360 96 0d 64
        E 120 86 0d 00
        E 360 96 0d 64
        E 120 86 0d 00
        E 360 96 0c 64
        E 120 86 0c 00
        E 360 96 0d 64
        E 120 86 0d 00
        E 360 96 0d 64
        E 120 86 0d 00
        E 360 96 0d 64
        E 120 86 0d 00
        E 360 96 0c 64
        E 120 86 0c 00
        E 360 96 0d 64
        E 120 86 0d 00
        E 360 96 0d 64
        E 120 86 0d 00
        E 360 96 0d 64
        E 120 86 0d 00
        E 360 96 0c 64
        E 120 86 0c 00
        E 360 96 0d 64
        E 120 86 0d 00
        E 360 96 0d 64
        E 120 86 0d 00
        E 360 96 0d 64
        E 120 86 0d 00
        E 360 96 0c 64
        E 120 86 0c 00
        E 360 96 0d 64
        E 120 86 0d 00
        E 360 96 0d 64
        E 120 86 0d 00
        E 360 96 0d 64
        E 120 86 0d 00
        E 360 96 0c 64
        E 120 86 0c 00
        E 360 96 0d 64
        E 120 86 0d 00
        E 360 96 0d 64
        E 120 86 0d 00
        E 360 96 0d 64
        E 120 86 0d 00
        E 360 96 0c 64
        E 120 86 0c 00
        E 360 96 0d 64
        E 120 86 0d 00
        E 360 96 0d 64
        E 120 86 0d 00
        E 360 96 0d 64
        E 120 86 0d 00
        E 360 96 0c 64
        E 120 86 0c 00
        E 360 96 0d 64
        E 120 86 0d 00
        E 360 96 0d 64
        E 120 86 0d 00
        E 360 96 0d 64
        E 120 86 0d 00
        E 360 96 0c 64
        E 120 86 0c 00
        E 360 96 0d 64
        E 120 86 0d 00
        E 360 96 0d 64
        E 120 86 0d 00
        E 360 96 0d 64
        E 120 86 0d 00
        E 360 96 0c 64
        E 120 86 0c 00
        E 360 96 0d 64
        E 120 86 0d 00
        E 360 96 0d 64
        E 120 86 0d 00
        E 360 96 0d 64
        E 120 86 0d 00
        E 360 96 0c 64
        E 120 86 0c 00
        E 360 96 0d 64
        E 120 86 0d 00
        E 360 96 0d 64
        E 120 86 0d 00
        E 360 96 0d 64
        E 120 86 0d 00
        E 360 96 0c 64
        E 120 86 0c 00
        E 360 96 0d 64
        E 120 86 0d 00
        E 360 96 0d 64
        E 120 86 0d 00
        E 360 96 0d 64
        E 120 86 0d 00
        E 360 96 0c 64
        E 120 86 0c 00
        E 360 96 0d 64
        E 120 86 0d 00
        E 360 96 0d 64
        E 120 86 0d 00
        E 360 96 0d 64
        E 120 86 0d 00
        E 360 96 0c 64
        E 120 86 0c 00
        E 360 96 0d 64
        E 120 86 0d 00
        E 360 96 0d 64
        E 120 86 0d 00
        E 360 96 0d 64
        E 120 86 0d 00
        E 360 96 0c 64
        E 120 86 0c 00
        E 360 96 0d 64
        E 120 86 0d 00
        E 360 96 0d 64
        E 120 86 0d 00
        E 360 96 0d 64
        E 120 86 0d 00
        E 360 96 0c 64
        E 120 86 0c 00
        E 360 96 0d 64
        E 120 86 0d 00
        E 360 96 0d 64
        E 120 86 0d 00
        E 360 96 0d 64
        E 120 86 0d 00
        E 360 96 0c 64
        E 120 86 0c 00
        E 360 96 0d 64
        E 120 86 0d 00
        E 360 96 0d 64
        E 120 86 0d 00
        E 360 96 0d 64
        E 120 86 0d 00
        E 360 96 0c 64
        E 120 86 0c 00
        E 360 96 0d 64
        E 120 86 0d 00
        E 360 96 0d 64
        E 120 86 0d 00
        E 360 96 0d 64
        E 120 86 0d 00
        E 360 96 0c 64
        E 120 86 0c 00
        E 360 96 0d 64
        E 120 86 0d 00
        E 360 96 0d 64
        E 120 86 0d 00
        E 360 96 0d 64
        E 120 86 0d 00
        E 360 96 0c 64
        E 120 86 0c 00
        E 360 96 0d 64
        E 120 86 0d 00
        E 360 96 0d 64
        E 120 86 0d 00
        E 360 96 0d 64
        E 120 86 0d 00
        E 360 96 0c 64
        E 120 86 0c 00
        E 360 96 0d 64
        E 120 86 0d 00
        E 360 96 0d 64
        E 120 86 0d 00
        E 360 96 0d 64
        E 120 86 0d 00
        E 360 96 0c 64
        E 120 86 0c 00
        E 360 96 0d 64
        E 120 86 0d 00
        E 360 96 0d 64
        E 120 86 0d 00
        E 360 96 0d 64
        E 120 86 0d 00
        E 360 96 0c 64
        E 120 86 0c 00
        E 360 96 0d 64
        E 120 86 0d 00
        E 360 96 0d 64
        E 120 86 0d 00
        E 360 96 0d 64
        E 120 86 0d 00
        E 360 96 0c 64
        E 120 86 0c 00
        E 360 96 0d 64
        E 120 86 0d 00
        E 360 96 0d 64
        E 120 86 0d 00
        E 360 96 0d 64
        E 120 86 0d 00
        E 360 96 0c 64
        E 120 86 0c 00
        E 360 96 0d 64
        E 120 86 0d 00
        E 360 96 0d 64
        E 120 86 0d 00
        E 360 96 0d 64
        E 120 86 0d 00
        E 360 96 0c 64
        E 120 86 0c 00
        E 360 96 0d 64
        E 120 86 0d 00
        E 360 96 0d 64
        E 120 86 0d 00
        E 360 96 0d 64
        E 120 86 0d 00
        E 360 96 0c 64
        E 120 86 0c 00
        E 360 96 0d 64
        E 120 86 0d 00
        E 360 96 0d 64
        E 120 86 0d 00
        E 360 96 0d 64
        E 120 86 0d 00
        E 360 96 0c 64
        E 120 86 0c 00
        E 360 96 0d 64
        E 120 86 0d 00
        E 360 96 0d 64
        E 120 86 0d 00
        E 360 96 0d 64
        E 120 86 0d 00
        E 360 96 0c 64
        E 120 86 0c 00
        E 360 96 0d 64
        E 120 86 0d 00
        E 360 96 0d 64
        E 120 86 0d 00
        E 360 96 0d 64
        E 120 86 0d 00
        E 360 96 0c 64
        E 120 86 0c 00
        E 360 96 0d 64
        E 120 86 0d 00
        E 360 96 0d 64
        E 120 86 0d 00
        E 360 96 0d 64
        E 120 86 0d 00
        E 360 96 0c 64
        E 120 86 0c 00
        E 360 96 0d 64
        E 120 86 0d 00
        E 360 96 0d 64
        E 120 86 0d 00
        E 360 96 0d 64
        E 120 86 0d 00
        E 360 96 0c 64
        E 120 86 0c 00
        E 360 96 0d 64
        E 120 86 0d 00
        E 360 96 0d 64
        E 120 86 0d 00
        E 360 96 0d 64
        E 120 86 0d 00
        E 360 96 0c 64
        E 120 86 0c 00
        E 360 96 0d 64
        E 120 86 0d 00
        E 360 96 0d 64
        E 120 86 0d 00
        E 360 96 0d 64
        E 120 86 0d 00
        E 360 96 0c 64
        E 120 86 0c 00
        E 360 96 0d 64
        E 120 86 0d 00
        E 360 96 0d 64
        E 120 86 0d 00
        E 360 96 0d 64
        E 120 86 0d 00
        E 360 96 0c 64
        E 120 86 0c 00
        E 360 96 0d 64
        E 120 86 0d 00
        E 360 96 0d 64
        E 120 86 0d 00
        E 360 96 0d 64
        E 120 86 0d 00
        E 360 96 0c 64
        E 120 86 0c 00
        E 360 96 0d 64
        E 120 86 0d 00
        E 360 96 0d 64
        E 120 86 0d 00
        E 360 96 0d 64
        E 120 86 0d 00
        E 360 96 0c 64
        E 120 86 0c 00
        E 360 96 0d 64
        E 120 86 0d 00
        E 360 96 0d 64
        E 120 86 0d 00
        E 360 96 0d 64
        E 120 86 0d 00
        E 360 96 0c 64
        E 120 86 0c 00
        E 360 96 0d 64
        E 120 86 0d 00
        E 360 96 0d 64
        E 120 86 0d 00
        E 360 96 0d 64
        E 120 86 0d 00
        E 360 96 0c 64
        E 120 86 0c 00
        E 360 96 0d 64
        E 120 86 0d 00
        E 360 96 0d 64
        E 120 86 0d 00
        E 360 96 0d 64
        E 120 86 0d 00
        E 360 96 0c 64
        E 120 86 0c 00
        E 360 96 0d 64
        E 120 86 0d 00
        E 360 96 0d 64
        E 120 86 0d 00
        E 360 96 0d 64
        E 120 86 0d 00
        E 360 96 0c 64
        E 120 86 0c 00
        E 360 96 0d 64
        E 120 86 0d 00
        E 360 96 0d 64
        E 120 86 0d 00
        E 360 96 0d 64
        E 120 86 0d 00
        E 360 96 0c 64
        E 120 86 0c 00
        E 360 96 0d 64
        E 120 86 0d 00
        E 360 96 0d 64
        E 120 86 0d 00
        E 360 96 0d 64
        E 120 86 0d 00
        E 360 96 0c 64
        E 120 86 0c 00
        E 360 96 0d 64
        E 120 86 0d 00
        E 360 96 0d 64
        E 120 86 0d 00
        E 360 96 0d 64
        E 120 86 0d 00
        E 360 96 0c 64
        E 120 86 0c 00
        E 360 96 0d 64
        E 120 86 0d 00
        E 360 96 0d 64
        E 120 86 0d 00
        E 360 96 0d 64
        E 120 86 0d 00
        E 360 96 0c 64
        E 120 86 0c 00
        E 360 96 0d 64
        E 120 86 0d 00
        E 360 96 0d 64
        E 120 86 0d 00
        E 360 96 0d 64
        E 120 86 0d 00
        E 360 96 0c 64
        E 120 86 0c 00
        E 360 96 0d 64
        E 120 86 0d 00
        E 360 96 0d 64
        E 120 86 0d 00
        E 360 96 0d 64
        E 120 86 0d 00
        E 360 96 0c 64
        E 120 86 0c 00
        E 360 96 0d 64
        E 120 86 0d 00
        E 360 96 0d 64
        E 120 86 0d 00
        E 360 96 0d 64
        E 120 86 0d 00
        E 360 96 0c 64
        E 120 86 0c 00
        E 360 96 0d 64
        E 120 86 0d 00
        E 360 96 0d 64
        E 120 86 0d 00
        E 360 96 0d 64
        E 120 86 0d 00
        E 360 96 0c 64
        E 120 86 0c 00
        E 360 96 0d 64
        E 120 86 0d 00
        E 360 96 0d 64
        E 120 86 0d 00
        E 360 96 0d 64
        E 120 86 0d 00
        E 360 96 0c 64
        E 120 86 0c 00
        E 360 96 0d 64
        E 120 86 0d 00
        E 360 96 0d 64
        E 120 86 0d 00
        E 360 96 0d 64
        E 120 86 0d 00
        E 360 96 0c 64
        E 120 86 0c 00
        E 360 96 0d 64
        E 120 86 0d 00
        E 360 96 0d 64
        E 120 86 0d 00
        E 360 96 0d 64
        E 120 86 0d 00
        E 360 96 0c 64
        E 120 86 0c 00
        E 360 96 0d 64
        E 120 86 0d 00
        E 360 96 0d 64
        E 120 86 0d 00
        E 360 96 0d 64
        E 120 86 0d 00
        E 360 96 0c 64
        E 120 86 0c 00
        E 360 96 0d 64
        E 120 86 0d 00
        E 360 96 0d 64
        E 120 86 0d 00
        E 360 96 0d 64
        E 120 86 0d 00
        E 360 96 0c 64
        E 120 86 0c 00
        E 360 96 0d 64
        E 120 86 0d 00
        E 360 96 0d 64
        E 120 86 0d 00
        E 360 96 0d 64
        E 120 86 0d 00
        E 360 96 0c 64
        E 120 86 0c 00
        E 360 96 0d 64
        E 120 86 0d 00
        E 360 96 0d 64
        E 120 86 0d 00
        E 360 96 0d 64
        E 120 86 0d 00
        E 360 96 0c 64
        E 120 86 0c 00
        E 360 96 0d 64
        E 120 86 0d 00
        E 360 96 0d 64
        E 120 86 0d 00
        E 360 96 0d 64
        E 120 86 0d 00
        E 360 96 0c 64
        E 120 86 0c 00
        E 360 96 0d 64
        E 120 86 0d 00
        E 360 96 0d 64
        E 120 86 0d 00
        E 360 96 0d 64
        E 120 86 0d 00
        E 360 96 0c 64
        E 120 86 0c 00
        E 360 96 0d 64
        E 120 86 0d 00
        E 360 96 0d 64
        E 120 86 0d 00
        E 360 96 0d 64
        E 120 86 0d 00
        E 360 96 0c 64
        E 120 86 0c 00
        E 360 96 0d 64
        E 120 86 0d 00
        E 360 96 0d 64
        E 120 86 0d 00
        E 360 96 0d 64
        E 120 86 0d 00
        E 360 96 0c 64
        E 120 86 0c 00
        E 360 96 0d 64
        E 120 86 0d 00
        E 360 96 0d 64
        E 120 86 0d 00
        E 360 96 0d 64
        E 120 86 0d 00
        E 360 96 0c 64
        E 120 86 0c 00
        E 360 96 0d 64
        E 120 86 0d 00
        E 360 96 0d 64
        E 120 86 0d 00
        E 360 96 0d 64
        E 120 86 0d 00
        E 360 96 0c 64
        E 120 86 0c 00
        E 360 96 0d 64
        E 120 86 0d 00
        E 360 96 0d 64
        E 120 86 0d 00
        E 360 96 0d 64
        E 120 86 0d 00
        E 360 96 0c 64
        E 120 86 0c 00
        E 360 96 0d 64
        E 120 86 0d 00
        E 360 96 0d 64
        E 120 86 0d 00
        E 360 96 0d 64
        E 120 86 0d 00
        E 360 96 0c 64
        E 120 86 0c 00
        E 360 96 0d 64
        E 120 86 0d 00
        E 360 96 0d 64
        E 120 86 0d 00
        E 360 96 0d 64
        E 120 86 0d 00
        E 360 96 0c 64
        E 120 86 0c 00
        E 360 96 0d 64
        E 120 86 0d 00
        E 360 96 0d 64
        E 120 86 0d 00
        E 360 96 0d 64
        E 120 86 0d 00
        E 360 b0 7b 00
        GUID {4410A133-FE18-4C3E-BB54-268CDD3E8704}
        IGNTEMPO 0 120.00000000 4 4
        SRCCOLOR 55
        VELLANE 132 128 60
        COLORMAP "C:\Program Files\REAPER (x64)\Data\color_maps\rockband_guitarbass.png"
        CFGEDITVIEW -14959.251014 4.749808 0 48 0 0 0
        CFGEDIT 1 1 0 1 1 0 1 1 1 1 1 0.12500000 53 44 1253 718 0 2 1 1 0.00000000 0 1 1 0 0.500000 0 0 1.000000 64
        KEYSNAP 0 7 "102030050700" 0 "Pentatonic"
        EVTFILTER 0 -1 -1 -1 -1 0 1 0 0 -1.00000000 -1.00000000
      >
    >
  >
  <TRACK '{72BD6E5A-4372-483A-9848-14E0729E2C3B}'
    NAME "backing"
    PEAKCOL 16576
    BEAT -1
    AUTOMODE 0
    VOLPAN 1.00000000000000 0.00000000000000 -1.00000000000000 -1.00000000000000 1.00000000000000
    MUTESOLO 0 0 0
    IPHASE 0
    ISBUS 0 0
    BUSCOMP 0 0
    SHOWINMIX 1 0.666700 0.500000 1 0.500000 -1 -1 -1
    FREEMODE 0
    SEL 0
    REC 0 0 0 0 0 0 0
    VU 2
    TRACKHEIGHT 0 0
    INQ 0 0 0 0.5000000000 100 0 0 100
    NCHAN 2
    FX 1
    TRACKID {72BD6E5A-4372-483A-9848-14E0729E2C3B}
    PERF 0
    MIDIOUT -1
    MAINSEND 1 0
    <ITEM
      POSITION 0.00000000000000
      SNAPOFFS 0.00000000000000
      LENGTH 236.43058956916099
      LOOP 0
      ALLTAKES 0
      SEL 0
      FADEIN 1 0.000000 0.000000 1 0
      FADEOUT 1 0.000000 0.000000 1 0
      MUTE 0
      IGUID {41023AAC-1AF9-4238-91C1-A65083D825D0}
      IID 16
      NAME "backing.wav"
      VOLPAN 1.000000 0.000000 1.000000 -1.000000
      SOFFS 0.00000000000000
      PLAYRATE 1.00000000000000 1 0.00000000000000 -1
      CHANMODE 0
      GUID {CA9377FF-C78E-4664-B46D-54319B110DFB}
      <SOURCE WAVE
        FILE "wav\backing.wav"
      >
    >
  >
  <EXTENSIONS
  >
>
