<REAPER_PROJECT 0.1 "4.22/x64"
  RIPPLE 0
  GROUPOVERRIDE 0 0 0
  AUTOXFADE 1
  ENVATTACH 1
  MIXERUIFLAGS 11 48
  PEAKGAIN 1.00000000000000
  FEEDBACK 0
  PANLAW 1.00000000000000
  PROJOFFS 0.00000000000000 0
  MAXPROJLEN 0 600.00000000000000
  GRID 3199 8 1.00000000000000 8 1.00000000000000 0
  TIMEMODE 1 0 -1
  PANMODE 3
  CURSOR 0.00000000000000
  ZOOM 5.77598994475964 0 0
  VZOOMEX 6
  USE_REC_CFG 0
  RECMODE 1
  SMPTESYNC 0 23.976024 100 40 1000 300 0 0.000000 1
  LOOP 1
  LOOPGRAN 0 4.00000000000000
  RECORD_PATH "" ""
  <RECORD_CFG
    ZXZhdxAD
  >
  <APPLYFX_CFG
  >
  RENDER_FILE ""
  RENDER_PATTERN ""
  RENDER_FMT 0 2 0
  RENDER_1X 0
  RENDER_RANGE 2 0.00000000000000 0.00000000000000
  RENDER_RESAMPLE 3 0 1
  RENDER_ADDTOPROJ 0
  RENDER_STEMS 0
  RENDER_DITHER 0
  TIMELOCKMODE 0
  ITEMMIX 0
  DEFPITCHMODE 393216
  TAKELANE 1
  SAMPLERATE 44100 0 0
  <RENDER_CFG
  >
  LOCK 1
  <METRONOME 6 2.000000
    VOL 0.250000 0.125000
    FREQ 800 1600 1
    BEATLEN 4
    SAMPLES "" ""
  >
  GLOBAL_AUTO -1
  TEMPO 120.00000000000000 4 4
  PLAYRATE 1.00000000000000 0 0.25000 4.00000
  SELECTION 194.42554622500001 0.00000000000000
  SELECTION2 194.42554622500001 0.00000000000000
  MASTERAUTOMODE 0
  MASTERTRACKHEIGHT 0
  MASTERPEAKCOL 16576
  MASTERMUTESOLO 0
  MASTERTRACKVIEW 0 0.666700 0.500000 0.500000 -1 -1 -1
  MASTERHWOUT 0 0 1.00000000000000 0.00000000000000 0 0 0 -1.00000000000000
  MASTER_NCH 2 2
  MASTER_VOLUME 1.00000000000000 0.00000000000000 -1.00000000000000 -1.00000000000000 1.00000000000000
  MASTER_PANMODE -1
  MASTER_FX 1
  MASTER_SEL 0
  <MASTERPLAYSPEEDENV
    ACT 0
    VIS 0 1 1.000000
    LANEHEIGHT 0 0
    ARM 0
    DEFSHAPE 0 -1 -1
  >
  <TEMPOENVEX
    ACT 1
    VIS 1 0 1.000000
    LANEHEIGHT 0 0
    ARM 0
    DEFSHAPE 1 -1 -1
    PT 0.000000000000 134.4998957626 1
    PT 37.472148000000 135.0001350001 1
    PT 44.583252000000 134.4998957626 1
    PT 82.055400000000 135.0001350001 1
    PT 85.610952000000 134.4998957626 1
    PT 112.376772000000 135.0001350001 1
    PT 114.154548000000 134.4998957626 1
    PT 126.641546525000 135.0001350001 1
    PT 130.200802225000 134.4998957626 1
    PT 180.163666225000 135.0001350001 1
    PT 183.719218225000 134.4998957626 1
  >
  <PROJBAY
  >
  <TRACK '{E57F9491-AF5A-4C9E-A36E-4E6A7A6D9476}'
    NAME "PART DRUMS"
    PEAKCOL 16576
    BEAT -1
    AUTOMODE 0
    VOLPAN 1.00000000000000 0.00000000000000 -1.00000000000000 -1.00000000000000 1.00000000000000
    MUTESOLO 0 0 0
    IPHASE 0
    ISBUS 0 0
    BUSCOMP 0 0
    SHOWINMIX 1 0.666700 0.500000 1 0.500000 -1 -1 -1
    FREEMODE 0
    SEL 0
    REC 0 0 0 0 0 0 0
    VU 2
    TRACKHEIGHT 0 0
    INQ 0 0 0 0.5000000000 100 0 0 100
    NCHAN 2
    FX 1
    TRACKID {E57F9491-AF5A-4C9E-A36E-4E6A7A6D9476}
    PERF 0
    MIDIOUT -1
    <MIDINOTENAMES
      0 127 "CYMBAL SWELLS"
      0 126 "DRUM ROLL"
      0 125 "---"
      0 124 "DRUM FILL"
      0 123 "DRUM FILL"
      0 122 "DRUM FILL"
      0 121 "DRUM FILL"
      0 120 "DRUM FILL (use all 5)"
      0 118 "----"
      0 116 "OVERDRIVE"
      0 114 "----"
      0 112 "TOM GEMS PAD 4"
      0 111 "TOM GEMS PAD 3"
      0 110 "TOM GEMS PAD 2"
      0 103 "Solo Marker"
      0 102 "----"
      0 100 "EXPERT Green"
      0 99 "EXPERT Blue"
      0 98 "EXPERT Yellow"
      0 97 "EXPERT Red"
      0 96 "EXPERT Kick"
      0 92 "----"
      0 88 "HARD Green"
      0 87 "HARD Blue"
      0 86 "HARD Yellow"
      0 85 "HARD Red"
      0 84 "HARD Kick"
      0 80 "----"
      0 76 "MEDIUM Green"
      0 75 "MEDIUM Blue"
      0 74 "MEDIUM Yellow"
      0 73 "MEDIUM Red"
      0 72 "MEDIUM Kick"
      0 68 "----"
      0 64 "EASY Green"
      0 63 "EASY Blue"
      0 62 "EASY Yellow"
      0 61 "EASY Red"
      0 60 "EASY Kick"
      0 56 "----"
      0 52 "-- DRUM ANIMATION --"
      0 51 "FLOOR TOM RH"
      0 50 "FLOOR TOM LH"
      0 49 "TOM2 RH"
      0 48 "TOM2 LH"
      0 47 "TOM1 RH"
      0 46 "TOM1 LH"
      0 45 "SOFT CRASH 2 LH"
      0 44 "CRASH 2 LH"
      0 43 "RIDE LH"
      0 42 "RIDE CYM RH"
      0 41 "CRASH2 CHOKE"
      0 40 "CRASH1 CHOKE"
      0 39 "CRASH2 SOFT RH"
      0 38 "CRASH2 HARD RH"
      0 37 "CRASH1 SOFT RH"
      0 36 "CRASH1 HARD RH"
      0 35 "CRASH1 SOFT LH"
      0 34 "CRASH1 HARD LH"
      0 32 "PERCUSSION RH"
      0 31 "HI-HAT RH"
      0 30 "HI-HAT LH"
      0 29 "SOFT SNARE RH"
      0 28 "SOFT SNARE LH"
      0 27 "SNARE RH"
      0 26 "SNARE LH"
      0 25 "HI-HAT OPEN"
      0 24 "KICK RF"
    >
    MAINSEND 1 0
    <FXCHAIN
      WNDRECT 0 43 891 559
      SHOW 0
      LASTSEL 0
      DOCKED 0
      BYPASS 0 0
      <VST "VSTi: RBN Preview (RBN)" "rbprev_vst64.dll" 0 ""
        dnBicu5e7f4AAAAAAgAAAAEAAAAAAAAAAgAAAAAAAAAEAAAAAQAAAA==
        AAAQAAMBqgAAABAAAAA=
      >
      FLOATPOS 0 0 0 0
      FXID {CF73BD4D-953F-4286-A2B8-AE886B3E3635}
      WAK 0
    >
    <ITEM
      POSITION 0.00000000000000
      SNAPOFFS 0.00000000000000
      LENGTH 194.42554622500001
      LOOP 0
      ALLTAKES 0
      SEL 0
      FADEIN 1 0.000000 0.000000 1 0
      FADEOUT 1 0.000000 0.000000 1 0
      MUTE 0
      IGUID {B258D95F-8BB2-4F99-9B8B-000F8DB57CAD}
      IID 1
      NAME "PART DRUMS"
      VOLPAN 1.000000 0.000000 1.000000 -1.000000
      SOFFS 0.00000000000000 0.00000000000000
      PLAYRATE 1.00000000000000 1 0.00000000000000 -1
      CHANMODE 0
      GUID {3AB6F16A-7F24-47D2-9233-6A002F3C979B}
      <SOURCE MIDI
        HASDATA 1 480 QN
        POOLEDEVTS {33C06AAF-6057-4BB7-BD66-00993F2E8B6D}
        <X 0 0
          /wNQQVJUIERSVU1T
        >
        <X 240 0
          /wFbbWl4IDEgZHJ1bXMwXQ==
        >
        <X 0 0
          /wFbbWl4IDAgZHJ1bXMwXQ==
        >
        <X 120 0
          /wFbbWl4IDIgZHJ1bXMwXQ==
        >
        <X 120 0
          /wFbbWl4IDMgZHJ1bXMwXQ==
        >
        <X 5280 0
          /wFbcGxheV0=
        >
        E 0 90 18 60
        E 0 90 2a 60
        E 0 90 3f 60
        E 0 90 48 60
        E 0 90 4b 60
        E 0 90 54 60
        E 0 90 57 60
        E 0 90 60 60
        E 0 90 63 60
        E 120 80 18 00
        E 0 80 2a 00
        E 0 80 3f 00
        E 0 80 48 00
        E 0 80 4b 00
        E 0 80 54 00
        E 0 80 57 00
        E 0 80 60 00
        E 0 80 63 00
        E 360 90 1a 60
        E 0 90 3d 60
        E 0 90 49 60
        E 0 90 55 60
        E 0 90 61 60
        E 120 80 1a 00
        E 0 80 3d 00
        E 0 80 49 00
        E 0 80 55 00
        E 0 80 61 00
        E 120 90 18 60
        E 0 90 54 60
        E 0 90 60 60
        E 120 80 18 00
        E 0 80 54 00
        E 0 80 60 00
        E 120 90 18 60
        E 0 90 3c 60
        E 0 90 48 60
        E 0 90 54 60
        E 0 90 60 60
        E 120 80 18 00
        E 0 80 3c 00
        E 0 80 48 00
        E 0 80 54 00
        E 0 80 60 00
        E 360 90 1a 60
        E 0 90 3d 60
        E 0 90 49 60
        E 0 90 55 60
        E 0 90 61 60
        E 120 80 1a 00
        E 0 80 3d 00
        E 0 80 49 00
        E 0 80 55 00
        E 0 80 61 00
        E 360 90 18 60
        E 0 90 3c 60
        E 0 90 48 60
        E 0 90 54 60
        E 0 90 60 60
        E 120 80 18 00
        E 0 80 3c 00
        E 0 80 48 00
        E 0 80 54 00
        E 0 80 60 00
        E 360 90 1a 60
        E 0 90 3d 60
        E 0 90 49 60
        E 0 90 55 60
        E 0 90 61 60
        E 120 80 1a 00
        E 0 80 3d 00
        E 0 80 49 00
        E 0 80 55 00
        E 0 80 61 00
        E 120 90 18 60
        E 0 90 54 60
        E 0 90 60 60
        E 120 80 18 00
        E 0 80 54 00
        E 0 80 60 00
        E 120 90 18 60
        E 0 90 3c 60
        E 0 90 48 60
        E 0 90 54 60
        E 0 90 60 60
        E 120 80 18 00
        E 0 80 3c 00
        E 0 80 48 00
        E 0 80 54 00
        E 0 80 60 00
        E 360 90 1a 60
        E 0 90 3d 60
        E 0 90 49 60
        E 0 90 55 60
        E 0 90 61 60
        E 120 80 1a 00
        E 0 80 3d 00
        E 0 80 49 00
        E 0 80 55 00
        E 0 80 61 00
        E 360 90 18 60
        E 0 90 3c 60
        E 0 90 48 60
        E 0 90 54 60
        E 0 90 60 60
        E 120 80 18 00
        E 0 80 3c 00
        E 0 80 48 00
        E 0 80 54 00
        E 0 80 60 00
        E 360 90 1a 60
        E 0 90 3d 60
        E 0 90 49 60
        E 0 90 55 60
        E 0 90 61 60
        E 120 80 1a 00
        E 0 80 3d 00
        E 0 80 49 00
        E 0 80 55 00
        E 0 80 61 00
        E 120 90 18 60
        E 0 90 54 60
        E 0 90 60 60
        E 120 80 18 00
        E 0 80 54 00
        E 0 80 60 00
        E 120 90 18 60
        E 0 90 3c 60
        E 0 90 48 60
        E 0 90 54 60
        E 0 90 60 60
        E 120 80 18 00
        E 0 80 3c 00
        E 0 80 48 00
        E 0 80 54 00
        E 0 80 60 00
        E 360 90 1a 60
        E 0 90 3d 60
        E 0 90 49 60
        E 0 90 55 60
        E 0 90 61 60
        E 120 80 1a 00
        E 0 80 3d 00
        E 0 80 49 00
        E 0 80 55 00
        E 0 80 61 00
        E 360 90 18 60
        E 0 90 3c 60
        E 0 90 48 60
        E 0 90 54 60
        E 0 90 60 60
        E 120 80 18 00
        E 0 80 3c 00
        E 0 80 48 00
        E 0 80 54 00
        E 0 80 60 00
        E 360 90 1a 60
        E 0 90 3d 60
        E 0 90 49 60
        E 0 90 55 60
        E 0 90 61 60
        E 120 80 1a 00
        E 0 80 3d 00
        E 0 80 49 00
        E 0 80 55 00
        E 0 80 61 00
        E 120 90 18 60
        E 0 90 54 60
        E 0 90 60 60
        E 120 80 18 00
        E 0 80 54 00
        E 0 80 60 00
        E 120 90 18 60
        E 0 90 3c 60
        E 0 90 48 60
        E 0 90 54 60
        E 0 90 60 60
        E 120 80 18 00
        E 0 80 3c 00
        E 0 80 48 00
        E 0 80 54 00
        E 0 80 60 00
        E 120 90 18 60
        E 0 90 19 60
        E 0 90 1e 60
        E 0 90 54 60
        E 0 90 56 60
        E 0 90 60 60
        E 0 90 62 60
        E 120 80 18 00
        E 0 80 1e 00
        E 0 80 54 00
        E 0 80 56 00
        E 0 80 60 00
        E 0 80 62 00
        E 120 80 19 00
        E 0 90 1a 60
        E 0 90 3d 60
        E 0 90 49 60
        E 0 90 55 60
        E 0 90 61 60
        E 120 80 1a 00
        E 0 80 3d 00
        E 0 80 49 00
        E 0 80 55 00
        E 0 80 61 00
        E 120 90 18 60
        E 0 90 54 60
        E 0 90 60 60
        E 120 80 18 00
        E 0 80 54 00
        E 0 80 60 00
        E 120 90 18 60
        E 0 90 3c 60
        E 0 90 48 60
        E 0 90 54 60
        E 0 90 60 60
        E 120 80 18 00
        E 0 80 3c 00
        E 0 80 48 00
        E 0 80 54 00
        E 0 80 60 00
        E 360 90 1a 60
        E 0 90 3d 60
        E 0 90 49 60
        E 0 90 55 60
        E 0 90 61 60
        E 120 80 1a 00
        E 0 80 3d 00
        E 0 80 49 00
        E 0 80 55 00
        E 0 80 61 00
        E 120 90 18 60
        E 0 90 54 60
        E 0 90 60 60
        E 120 80 18 00
        E 0 80 54 00
        E 0 80 60 00
        E 120 90 18 60
        E 0 90 3c 60
        E 0 90 48 60
        E 0 90 54 60
        E 0 90 60 60
        E 120 80 18 00
        E 0 80 3c 00
        E 0 80 48 00
        E 0 80 54 00
        E 0 80 60 00
        E 360 90 1a 60
        E 0 90 3d 60
        E 0 90 49 60
        E 0 90 55 60
        E 0 90 61 60
        E 120 80 1a 00
        E 0 80 3d 00
        E 0 80 49 00
        E 0 80 55 00
        E 0 80 61 00
        E 360 90 18 60
        E 0 90 3c 60
        E 0 90 48 60
        E 0 90 54 60
        E 0 90 60 60
        E 120 80 18 00
        E 0 80 3c 00
        E 0 80 48 00
        E 0 80 54 00
        E 0 80 60 00
        E 360 90 1a 60
        E 0 90 3d 60
        E 0 90 49 60
        E 0 90 55 60
        E 0 90 61 60
        E 120 80 1a 00
        E 0 80 3d 00
        E 0 80 49 00
        E 0 80 55 00
        E 0 80 61 00
        E 120 90 18 60
        E 0 90 54 60
        E 0 90 60 60
        E 120 80 18 00
        E 0 80 54 00
        E 0 80 60 00
        E 120 90 18 60
        E 0 90 3c 60
        E 0 90 48 60
        E 0 90 54 60
        E 0 90 60 60
        E 120 80 18 00
        E 0 80 3c 00
        E 0 80 48 00
        E 0 80 54 00
        E 0 80 60 00
        E 360 90 1a 60
        E 0 90 3d 60
        E 0 90 49 60
        E 0 90 55 60
        E 0 90 61 60
        E 120 80 1a 00
        E 0 80 3d 00
        E 0 80 49 00
        E 0 80 55 00
        E 0 80 61 00
        E 360 90 18 60
        E 0 90 3c 60
        E 0 90 48 60
        E 0 90 54 60
        E 0 90 60 60
        E 120 80 18 00
        E 0 80 3c 00
        E 0 80 48 00
        E 0 80 54 00
        E 0 80 60 00
        E 360 90 1a 60
        E 0 90 3d 60
        E 0 90 49 60
        E 0 90 55 60
        E 0 90 61 60
        E 120 80 1a 00
        E 0 80 3d 00
        E 0 80 49 00
        E 0 80 55 00
        E 0 80 61 00
        E 120 90 18 60
        E 0 90 54 60
        E 0 90 60 60
        E 120 80 18 00
        E 0 80 54 00
        E 0 80 60 00
        E 120 90 18 60
        E 0 90 3c 60
        E 0 90 48 60
        E 0 90 54 60
        E 0 90 60 60
        E 120 80 18 00
        E 0 80 3c 00
        E 0 80 48 00
        E 0 80 54 00
        E 0 80 60 00
        E 360 90 1a 60
        E 0 90 3d 60
        E 0 90 49 60
        E 0 90 55 60
        E 0 90 61 60
        E 120 80 1a 00
        E 0 80 3d 00
        E 0 80 49 00
        E 0 80 55 00
        E 0 80 61 00
        E 360 90 18 60
        E 0 90 3c 60
        E 0 90 48 60
        E 0 90 54 60
        E 0 90 60 60
        E 0 90 74 60
        E 120 80 18 00
        E 0 80 3c 00
        E 0 80 48 00
        E 0 80 54 00
        E 0 80 60 00
        E 360 90 1a 60
        E 0 90 3d 60
        E 0 90 49 60
        E 0 90 55 60
        E 0 90 61 60
        E 120 80 1a 00
        E 0 80 3d 00
        E 0 80 49 00
        E 0 80 55 00
        E 0 80 61 00
        E 120 90 18 60
        E 0 90 54 60
        E 0 90 60 60
        E 120 80 18 00
        E 0 80 54 00
        E 0 80 60 00
        E 120 90 18 60
        E 0 90 3c 60
        E 0 90 48 60
        E 0 90 54 60
        E 0 90 60 60
        E 120 80 18 00
        E 0 80 3c 00
        E 0 80 48 00
        E 0 80 54 00
        E 0 80 60 00
        E 120 90 18 60
        E 0 90 19 60
        E 0 90 1e 60
        E 0 90 54 60
        E 0 90 56 60
        E 0 90 60 60
        E 0 90 62 60
        E 120 80 18 00
        E 0 80 1e 00
        E 0 80 54 00
        E 0 80 56 00
        E 0 80 60 00
        E 0 80 62 00
        E 120 80 19 00
        E 0 90 1a 60
        E 0 90 3d 60
        E 0 90 49 60
        E 0 90 55 60
        E 0 90 61 60
        E 120 80 1a 00
        E 0 80 3d 00
        E 0 80 49 00
        E 0 80 55 00
        E 0 80 61 00
        E 120 90 18 60
        E 0 90 54 60
        E 0 90 60 60
        E 120 80 18 00
        E 0 80 54 00
        E 0 80 60 00
        E 120 90 18 60
        E 0 90 2a 60
        E 0 90 3f 60
        E 0 90 48 60
        E 0 90 4b 60
        E 0 90 54 60
        E 0 90 57 60
        E 0 90 60 60
        E 0 90 63 60
        E 120 80 74 00
        E 0 80 18 00
        E 0 80 2a 00
        E 0 80 3f 00
        E 0 80 48 00
        E 0 80 4b 00
        E 0 80 54 00
        E 0 80 57 00
        E 0 80 60 00
        E 0 80 63 00
        E 360 90 1a 60
        E 0 90 3d 60
        E 0 90 49 60
        E 0 90 55 60
        E 0 90 61 60
        E 120 80 1a 00
        E 0 80 3d 00
        E 0 80 49 00
        E 0 80 55 00
        E 0 80 61 00
        E 120 90 18 60
        E 0 90 54 60
        E 0 90 60 60
        E 120 80 18 00
        E 0 80 54 00
        E 0 80 60 00
        E 120 90 18 60
        E 0 90 3c 60
        E 0 90 48 60
        E 0 90 54 60
        E 0 90 60 60
        E 120 80 18 00
        E 0 80 3c 00
        E 0 80 48 00
        E 0 80 54 00
        E 0 80 60 00
        E 360 90 1a 60
        E 0 90 3d 60
        E 0 90 49 60
        E 0 90 55 60
        E 0 90 61 60
        E 120 80 1a 00
        E 0 80 3d 00
        E 0 80 49 00
        E 0 80 55 00
        E 0 80 61 00
        E 360 90 18 60
        E 0 90 3c 60
        E 0 90 48 60
        E 0 90 54 60
        E 0 90 60 60
        E 120 80 18 00
        E 0 80 3c 00
        E 0 80 48 00
        E 0 80 54 00
        E 0 80 60 00
        E 360 90 1a 60
        E 0 90 3d 60
        E 0 90 49 60
        E 0 90 55 60
        E 0 90 61 60
        E 120 80 1a 00
        E 0 80 3d 00
        E 0 80 49 00
        E 0 80 55 00
        E 0 80 61 00
        E 120 90 18 60
        E 0 90 54 60
        E 0 90 60 60
        E 120 80 18 00
        E 0 80 54 00
        E 0 80 60 00
        E 120 90 18 60
        E 0 90 3c 60
        E 0 90 48 60
        E 0 90 54 60
        E 0 90 60 60
        E 120 80 18 00
        E 0 80 3c 00
        E 0 80 48 00
        E 0 80 54 00
        E 0 80 60 00
        E 360 90 1a 60
        E 0 90 3d 60
        E 0 90 49 60
        E 0 90 55 60
        E 0 90 61 60
        E 120 80 1a 00
        E 0 80 3d 00
        E 0 80 49 00
        E 0 80 55 00
        E 0 80 61 00
        E 360 90 18 60
        E 0 90 3c 60
        E 0 90 48 60
        E 0 90 54 60
        E 0 90 60 60
        E 120 80 18 00
        E 0 80 3c 00
        E 0 80 48 00
        E 0 80 54 00
        E 0 80 60 00
        E 360 90 1a 60
        E 0 90 3d 60
        E 0 90 49 60
        E 0 90 55 60
        E 0 90 61 60
        E 120 80 1a 00
        E 0 80 3d 00
        E 0 80 49 00
        E 0 80 55 00
        E 0 80 61 00
        E 120 90 18 60
        E 0 90 54 60
        E 0 90 60 60
        E 120 80 18 00
        E 0 80 54 00
        E 0 80 60 00
        E 120 90 18 60
        E 0 90 3c 60
        E 0 90 48 60
        E 0 90 54 60
        E 0 90 60 60
        E 120 80 18 00
        E 0 80 3c 00
        E 0 80 48 00
        E 0 80 54 00
        E 0 80 60 00
        E 360 90 1a 60
        E 0 90 3d 60
        E 0 90 49 60
        E 0 90 55 60
        E 0 90 61 60
        E 120 80 1a 00
        E 0 80 3d 00
        E 0 80 49 00
        E 0 80 55 00
        E 0 80 61 00
        E 360 90 18 60
        E 0 90 3c 60
        E 0 90 48 60
        E 0 90 54 60
        E 0 90 60 60
        E 0 90 78 60
        E 0 90 79 60
        E 0 90 7a 60
        E 0 90 7b 60
        E 0 90 7c 60
        E 120 80 18 00
        E 0 80 3c 00
        E 0 80 48 00
        E 0 80 54 00
        E 0 80 60 00
        E 360 90 1a 60
        E 0 90 3d 60
        E 0 90 49 60
        E 0 90 55 60
        E 0 90 61 60
        E 120 80 1a 00
        E 0 80 3d 00
        E 0 80 49 00
        E 0 80 55 00
        E 0 80 61 00
        E 120 90 18 60
        E 0 90 54 60
        E 0 90 60 60
        E 120 80 18 00
        E 0 80 54 00
        E 0 80 60 00
        E 120 90 18 60
        E 0 90 3c 60
        E 0 90 48 60
        E 0 90 54 60
        E 0 90 60 60
        E 120 80 18 00
        E 0 80 3c 00
        E 0 80 48 00
        E 0 80 54 00
        E 0 80 60 00
        E 120 90 18 60
        E 0 90 19 60
        E 0 90 1e 60
        E 0 90 54 60
        E 0 90 56 60
        E 0 90 60 60
        E 0 90 62 60
        E 120 80 18 00
        E 0 80 1e 00
        E 0 80 54 00
        E 0 80 56 00
        E 0 80 60 00
        E 0 80 62 00
        E 120 80 19 00
        E 0 90 1a 60
        E 0 90 3d 60
        E 0 90 49 60
        E 0 90 55 60
        E 0 90 61 60
        E 120 80 1a 00
        E 0 80 3d 00
        E 0 80 49 00
        E 0 80 55 00
        E 0 80 61 00
        E 120 90 18 60
        E 0 90 54 60
        E 0 90 60 60
        E 120 80 18 00
        E 0 80 54 00
        E 0 80 60 00
        E 120 80 78 00
        E 0 80 79 00
        E 0 80 7a 00
        E 0 80 7b 00
        E 0 80 7c 00
        E 0 90 18 60
        E 0 90 3c 60
        E 0 90 48 60
        E 0 90 54 60
        E 0 90 60 60
        E 120 80 18 00
        E 0 80 3c 00
        E 0 80 48 00
        E 0 80 54 00
        E 0 80 60 00
        E 360 90 1a 60
        E 0 90 3d 60
        E 0 90 49 60
        E 0 90 55 60
        E 0 90 61 60
        E 120 80 1a 00
        E 0 80 3d 00
        E 0 80 49 00
        E 0 80 55 00
        E 0 80 61 00
        E 120 90 18 60
        E 0 90 54 60
        E 0 90 60 60
        E 120 80 18 00
        E 0 80 54 00
        E 0 80 60 00
        E 120 90 18 60
        E 0 90 3c 60
        E 0 90 48 60
        E 0 90 54 60
        E 0 90 60 60
        E 120 80 18 00
        E 0 80 3c 00
        E 0 80 48 00
        E 0 80 54 00
        E 0 80 60 00
        E 360 90 1a 60
        E 0 90 3d 60
        E 0 90 49 60
        E 0 90 55 60
        E 0 90 61 60
        E 120 80 1a 00
        E 0 80 3d 00
        E 0 80 49 00
        E 0 80 55 00
        E 0 80 61 00
        E 360 90 18 60
        E 0 90 3c 60
        E 0 90 48 60
        E 0 90 54 60
        E 0 90 60 60
        E 120 80 18 00
        E 0 80 3c 00
        E 0 80 48 00
        E 0 80 54 00
        E 0 80 60 00
        E 360 90 1a 60
        E 0 90 3d 60
        E 0 90 49 60
        E 0 90 55 60
        E 0 90 61 60
        E 120 80 1a 00
        E 0 80 3d 00
        E 0 80 49 00
        E 0 80 55 00
        E 0 80 61 00
        E 120 90 18 60
        E 0 90 54 60
        E 0 90 60 60
        E 120 80 18 00
        E 0 80 54 00
        E 0 80 60 00
        E 120 90 18 60
        E 0 90 3c 60
        E 0 90 48 60
        E 0 90 54 60
        E 0 90 60 60
        E 120 80 18 00
        E 0 80 3c 00
        E 0 80 48 00
        E 0 80 54 00
        E 0 80 60 00
        E 360 90 1a 60
        E 0 90 3d 60
        E 0 90 49 60
        E 0 90 55 60
        E 0 90 61 60
        E 120 80 1a 00
        E 0 80 3d 00
        E 0 80 49 00
        E 0 80 55 00
        E 0 80 61 00
        E 360 90 18 60
        E 0 90 3c 60
        E 0 90 48 60
        E 0 90 54 60
        E 0 90 60 60
        E 120 80 18 00
        E 0 80 3c 00
        E 0 80 48 00
        E 0 80 54 00
        E 0 80 60 00
        E 360 90 1a 60
        E 0 90 3d 60
        E 0 90 49 60
        E 0 90 55 60
        E 0 90 61 60
        E 120 80 1a 00
        E 0 80 3d 00
        E 0 80 49 00
        E 0 80 55 00
        E 0 80 61 00
        E 120 90 18 60
        E 0 90 54 60
        E 0 90 60 60
        E 120 80 18 00
        E 0 80 54 00
        E 0 80 60 00
        E 120 90 18 60
        E 0 90 3c 60
        E 0 90 48 60
        E 0 90 54 60
        E 0 90 60 60
        E 120 80 18 00
        E 0 80 3c 00
        E 0 80 48 00
        E 0 80 54 00
        E 0 80 60 00
        E 360 90 1a 60
        E 0 90 3d 60
        E 0 90 49 60
        E 0 90 55 60
        E 0 90 61 60
        E 120 80 1a 00
        E 0 80 3d 00
        E 0 80 49 00
        E 0 80 55 00
        E 0 80 61 00
        E 360 90 18 60
        E 0 90 3c 60
        E 0 90 48 60
        E 0 90 54 60
        E 0 90 60 60
        E 120 80 18 00
        E 0 80 3c 00
        E 0 80 48 00
        E 0 80 54 00
        E 0 80 60 00
        E 360 90 1a 60
        E 0 90 3d 60
        E 0 90 49 60
        E 0 90 55 60
        E 0 90 61 60
        E 0 90 74 60
        E 120 80 1a 00
        E 0 80 3d 00
        E 0 80 49 00
        E 0 80 55 00
        E 0 80 61 00
        E 120 90 18 60
        E 0 90 54 60
        E 0 90 60 60
        E 120 80 18 00
        E 0 80 54 00
        E 0 80 60 00
        E 120 90 18 60
        E 0 90 3c 60
        E 0 90 48 60
        E 0 90 54 60
        E 0 90 60 60
        E 120 80 18 00
        E 0 80 3c 00
        E 0 80 48 00
        E 0 80 54 00
        E 0 80 60 00
        E 120 90 18 60
        E 0 90 19 60
        E 0 90 1e 60
        E 0 90 54 60
        E 0 90 56 60
        E 0 90 60 60
        E 0 90 62 60
        E 120 80 18 00
        E 0 80 1e 00
        E 0 80 54 00
        E 0 80 56 00
        E 0 80 60 00
        E 0 80 62 00
        E 120 80 19 00
        E 0 90 1a 60
        E 0 90 3d 60
        E 0 90 49 60
        E 0 90 55 60
        E 0 90 61 60
        E 120 80 1a 00
        E 0 80 3d 00
        E 0 80 49 00
        E 0 80 55 00
        E 0 80 61 00
        E 120 90 18 60
        E 0 90 54 60
        E 0 90 60 60
        E 120 80 18 00
        E 0 80 54 00
        E 0 80 60 00
        E 120 90 18 60
        E 0 90 3f 60
        E 0 90 48 60
        E 0 90 4b 60
        E 0 90 54 60
        E 0 90 57 60
        E 0 90 60 60
        E 0 90 63 60
        E 120 80 74 00
        E 0 80 18 00
        E 0 80 3f 00
        E 0 80 48 00
        E 0 80 4b 00
        E 0 80 54 00
        E 0 80 57 00
        E 0 80 60 00
        E 0 80 63 00
        E 3720 90 18 60
        E 0 90 3c 60
        E 0 90 48 60
        E 0 90 54 60
        E 0 90 60 60
        E 120 80 18 00
        E 0 80 3c 00
        E 0 80 48 00
        E 0 80 54 00
        E 0 80 60 00
        E 1800 90 78 60
        E 0 90 79 60
        E 0 90 7a 60
        E 0 90 7b 60
        E 0 90 7c 60
        E 1440 90 1a 60
        E 0 90 3d 60
        E 0 90 49 60
        E 0 90 55 60
        E 0 90 61 60
        E 120 80 1a 00
        E 0 80 3d 00
        E 0 80 49 00
        E 0 80 55 00
        E 0 80 61 00
        <X 360 0
          /wFbaW50ZW5zZV0=
        >
        E 0 80 78 00
        E 0 80 79 00
        E 0 80 7a 00
        E 0 80 7b 00
        E 0 80 7c 00
        E 0 90 18 60
        E 0 90 1f 60
        E 0 90 3e 60
        E 0 90 48 60
        E 0 90 4a 60
        E 0 90 54 60
        E 0 90 56 60
        E 0 90 60 60
        E 0 90 62 60
        E 120 80 18 00
        E 0 80 1f 00
        E 0 80 3e 00
        E 0 80 48 00
        E 0 80 4a 00
        E 0 80 54 00
        E 0 80 56 00
        E 0 80 60 00
        E 0 80 62 00
        E 120 90 1f 60
        E 0 90 56 60
        E 0 90 62 60
        E 120 80 1f 00
        E 0 80 56 00
        E 0 80 62 00
        E 120 90 1a 60
        E 0 90 1f 60
        E 0 90 3d 60
        E 0 90 3e 60
        E 0 90 49 60
        E 0 90 4a 60
        E 0 90 55 60
        E 0 90 56 60
        E 0 90 61 60
        E 0 90 62 60
        E 120 80 1a 00
        E 0 80 1f 00
        E 0 80 3d 00
        E 0 80 3e 00
        E 0 80 49 00
        E 0 80 4a 00
        E 0 80 55 00
        E 0 80 56 00
        E 0 80 61 00
        E 0 80 62 00
        E 120 90 18 60
        E 0 90 1f 60
        E 0 90 54 60
        E 0 90 56 60
        E 0 90 60 60
        E 0 90 62 60
        E 120 80 18 00
        E 0 80 1f 00
        E 0 80 54 00
        E 0 80 56 00
        E 0 80 60 00
        E 0 80 62 00
        E 120 90 18 60
        E 0 90 1f 60
        E 0 90 3e 60
        E 0 90 48 60
        E 0 90 4a 60
        E 0 90 54 60
        E 0 90 56 60
        E 0 90 60 60
        E 0 90 62 60
        E 120 80 18 00
        E 0 80 1f 00
        E 0 80 3e 00
        E 0 80 48 00
        E 0 80 4a 00
        E 0 80 54 00
        E 0 80 56 00
        E 0 80 60 00
        E 0 80 62 00
        E 120 90 1f 60
        E 0 90 56 60
        E 0 90 62 60
        E 120 80 1f 00
        E 0 80 56 00
        E 0 80 62 00
        E 120 90 1a 60
        E 0 90 1f 60
        E 0 90 3d 60
        E 0 90 3e 60
        E 0 90 49 60
        E 0 90 4a 60
        E 0 90 55 60
        E 0 90 56 60
        E 0 90 61 60
        E 0 90 62 60
        E 120 80 1a 00
        E 0 80 1f 00
        E 0 80 3d 00
        E 0 80 3e 00
        E 0 80 49 00
        E 0 80 4a 00
        E 0 80 55 00
        E 0 80 56 00
        E 0 80 61 00
        E 0 80 62 00
        E 120 90 1f 60
        E 0 90 56 60
        E 0 90 62 60
        E 120 80 1f 00
        E 0 80 56 00
        E 0 80 62 00
        E 120 90 18 60
        E 0 90 1f 60
        E 0 90 3e 60
        E 0 90 48 60
        E 0 90 4a 60
        E 0 90 54 60
        E 0 90 56 60
        E 0 90 60 60
        E 0 90 62 60
        E 120 80 18 00
        E 0 80 1f 00
        E 0 80 3e 00
        E 0 80 48 00
        E 0 80 4a 00
        E 0 80 54 00
        E 0 80 56 00
        E 0 80 60 00
        E 0 80 62 00
        E 120 90 1f 60
        E 0 90 56 60
        E 0 90 62 60
        E 120 80 1f 00
        E 0 80 56 00
        E 0 80 62 00
        E 120 90 1a 60
        E 0 90 1f 60
        E 0 90 3d 60
        E 0 90 3e 60
        E 0 90 49 60
        E 0 90 4a 60
        E 0 90 55 60
        E 0 90 56 60
        E 0 90 61 60
        E 0 90 62 60
        E 120 80 1a 00
        E 0 80 1f 00
        E 0 80 3d 00
        E 0 80 3e 00
        E 0 80 49 00
        E 0 80 4a 00
        E 0 80 55 00
        E 0 80 56 00
        E 0 80 61 00
        E 0 80 62 00
        E 120 90 18 60
        E 0 90 1f 60
        E 0 90 54 60
        E 0 90 56 60
        E 0 90 60 60
        E 0 90 62 60
        E 120 80 18 00
        E 0 80 1f 00
        E 0 80 54 00
        E 0 80 56 00
        E 0 80 60 00
        E 0 80 62 00
        E 120 90 18 60
        E 0 90 1f 60
        E 0 90 3e 60
        E 0 90 48 60
        E 0 90 4a 60
        E 0 90 54 60
        E 0 90 56 60
        E 0 90 60 60
        E 0 90 62 60
        E 120 80 18 00
        E 0 80 1f 00
        E 0 80 3e 00
        E 0 80 48 00
        E 0 80 4a 00
        E 0 80 54 00
        E 0 80 56 00
        E 0 80 60 00
        E 0 80 62 00
        E 120 90 1f 60
        E 0 90 56 60
        E 0 90 62 60
        E 120 80 1f 00
        E 0 80 56 00
        E 0 80 62 00
        E 120 90 1a 60
        E 0 90 1f 60
        E 0 90 3d 60
        E 0 90 3e 60
        E 0 90 49 60
        E 0 90 4a 60
        E 0 90 55 60
        E 0 90 56 60
        E 0 90 61 60
        E 0 90 62 60
        E 120 80 1a 00
        E 0 80 1f 00
        E 0 80 3d 00
        E 0 80 3e 00
        E 0 80 49 00
        E 0 80 4a 00
        E 0 80 55 00
        E 0 80 56 00
        E 0 80 61 00
        E 0 80 62 00
        E 120 90 1f 60
        E 0 90 56 60
        E 0 90 62 60
        E 120 80 1f 00
        E 0 80 56 00
        E 0 80 62 00
        E 120 90 18 60
        E 0 90 1f 60
        E 0 90 3e 60
        E 0 90 48 60
        E 0 90 4a 60
        E 0 90 54 60
        E 0 90 56 60
        E 0 90 60 60
        E 0 90 62 60
        E 0 90 74 60
        E 120 80 18 00
        E 0 80 1f 00
        E 0 80 3e 00
        E 0 80 48 00
        E 0 80 4a 00
        E 0 80 54 00
        E 0 80 56 00
        E 0 80 60 00
        E 0 80 62 00
        E 120 90 1f 60
        E 0 90 56 60
        E 0 90 62 60
        E 120 80 1f 00
        E 0 80 56 00
        E 0 80 62 00
        E 120 90 1a 60
        E 0 90 1f 60
        E 0 90 3d 60
        E 0 90 3e 60
        E 0 90 49 60
        E 0 90 4a 60
        E 0 90 55 60
        E 0 90 56 60
        E 0 90 61 60
        E 0 90 62 60
        E 120 80 1a 00
        E 0 80 1f 00
        E 0 80 3d 00
        E 0 80 3e 00
        E 0 80 49 00
        E 0 80 4a 00
        E 0 80 55 00
        E 0 80 56 00
        E 0 80 61 00
        E 0 80 62 00
        E 120 90 18 60
        E 0 90 1f 60
        E 0 90 54 60
        E 0 90 56 60
        E 0 90 60 60
        E 0 90 62 60
        E 120 80 18 00
        E 0 80 1f 00
        E 0 80 54 00
        E 0 80 56 00
        E 0 80 60 00
        E 0 80 62 00
        E 120 90 18 60
        E 0 90 1f 60
        E 0 90 3e 60
        E 0 90 48 60
        E 0 90 4a 60
        E 0 90 54 60
        E 0 90 56 60
        E 0 90 60 60
        E 0 90 62 60
        E 120 80 18 00
        E 0 80 1f 00
        E 0 80 3e 00
        E 0 80 48 00
        E 0 80 4a 00
        E 0 80 54 00
        E 0 80 56 00
        E 0 80 60 00
        E 0 80 62 00
        E 120 90 1f 60
        E 0 90 56 60
        E 0 90 62 60
        E 120 80 1f 00
        E 0 80 56 00
        E 0 80 62 00
        E 120 90 1a 60
        E 0 90 1f 60
        E 0 90 3d 60
        E 0 90 3e 60
        E 0 90 49 60
        E 0 90 4a 60
        E 0 90 55 60
        E 0 90 56 60
        E 0 90 61 60
        E 0 90 62 60
        E 120 80 1a 00
        E 0 80 1f 00
        E 0 80 3d 00
        E 0 80 3e 00
        E 0 80 49 00
        E 0 80 4a 00
        E 0 80 55 00
        E 0 80 56 00
        E 0 80 61 00
        E 0 80 62 00
        E 120 90 1f 60
        E 0 90 56 60
        E 0 90 62 60
        E 120 80 1f 00
        E 0 80 56 00
        E 0 80 62 00
        E 120 90 18 60
        E 0 90 1f 60
        E 0 90 3e 60
        E 0 90 48 60
        E 0 90 4a 60
        E 0 90 54 60
        E 0 90 56 60
        E 0 90 60 60
        E 0 90 62 60
        E 120 80 18 00
        E 0 80 1f 00
        E 0 80 3e 00
        E 0 80 48 00
        E 0 80 4a 00
        E 0 80 54 00
        E 0 80 56 00
        E 0 80 60 00
        E 0 80 62 00
        E 120 90 1f 60
        E 0 90 56 60
        E 0 90 62 60
        E 120 80 1f 00
        E 0 80 56 00
        E 0 80 62 00
        E 120 90 1a 60
        E 0 90 1f 60
        E 0 90 3d 60
        E 0 90 3e 60
        E 0 90 49 60
        E 0 90 4a 60
        E 0 90 55 60
        E 0 90 56 60
        E 0 90 61 60
        E 0 90 62 60
        E 120 80 1a 00
        E 0 80 1f 00
        E 0 80 3d 00
        E 0 80 3e 00
        E 0 80 49 00
        E 0 80 4a 00
        E 0 80 55 00
        E 0 80 56 00
        E 0 80 61 00
        E 0 80 62 00
        E 120 90 18 60
        E 0 90 1f 60
        E 0 90 54 60
        E 0 90 56 60
        E 0 90 60 60
        E 0 90 62 60
        E 120 80 18 00
        E 0 80 1f 00
        E 0 80 54 00
        E 0 80 56 00
        E 0 80 60 00
        E 0 80 62 00
        E 120 90 18 60
        E 0 90 1f 60
        E 0 90 3e 60
        E 0 90 48 60
        E 0 90 4a 60
        E 0 90 54 60
        E 0 90 56 60
        E 0 90 60 60
        E 0 90 62 60
        E 120 80 18 00
        E 0 80 1f 00
        E 0 80 3e 00
        E 0 80 48 00
        E 0 80 4a 00
        E 0 80 54 00
        E 0 80 56 00
        E 0 80 60 00
        E 0 80 62 00
        E 120 90 1f 60
        E 0 90 56 60
        E 0 90 62 60
        E 120 80 1f 00
        E 0 80 56 00
        E 0 80 62 00
        E 120 90 1a 60
        E 0 90 1f 60
        E 0 90 3d 60
        E 0 90 3e 60
        E 0 90 49 60
        E 0 90 4a 60
        E 0 90 55 60
        E 0 90 56 60
        E 0 90 61 60
        E 0 90 62 60
        E 120 80 1a 00
        E 0 80 1f 00
        E 0 80 3d 00
        E 0 80 3e 00
        E 0 80 49 00
        E 0 80 4a 00
        E 0 80 55 00
        E 0 80 56 00
        E 0 80 61 00
        E 0 80 62 00
        E 120 90 1f 60
        E 0 90 56 60
        E 0 90 62 60
        E 120 80 1f 00
        E 0 80 56 00
        E 0 80 62 00
        E 120 80 74 00
        E 0 90 18 60
        E 0 90 1f 60
        E 0 90 3e 60
        E 0 90 48 60
        E 0 90 4a 60
        E 0 90 54 60
        E 0 90 56 60
        E 0 90 60 60
        E 0 90 62 60
        E 120 80 18 00
        E 0 80 1f 00
        E 0 80 3e 00
        E 0 80 48 00
        E 0 80 4a 00
        E 0 80 54 00
        E 0 80 56 00
        E 0 80 60 00
        E 0 80 62 00
        E 120 90 1f 60
        E 0 90 56 60
        E 0 90 62 60
        E 120 80 1f 00
        E 0 80 56 00
        E 0 80 62 00
        E 120 90 1a 60
        E 0 90 1f 60
        E 0 90 3d 60
        E 0 90 3e 60
        E 0 90 49 60
        E 0 90 4a 60
        E 0 90 55 60
        E 0 90 56 60
        E 0 90 61 60
        E 0 90 62 60
        E 120 80 1a 00
        E 0 80 1f 00
        E 0 80 3d 00
        E 0 80 3e 00
        E 0 80 49 00
        E 0 80 4a 00
        E 0 80 55 00
        E 0 80 56 00
        E 0 80 61 00
        E 0 80 62 00
        E 120 90 18 60
        E 0 90 1f 60
        E 0 90 54 60
        E 0 90 56 60
        E 0 90 60 60
        E 0 90 62 60
        E 120 80 18 00
        E 0 80 1f 00
        E 0 80 54 00
        E 0 80 56 00
        E 0 80 60 00
        E 0 80 62 00
        E 120 90 18 60
        E 0 90 1f 60
        E 0 90 3e 60
        E 0 90 48 60
        E 0 90 4a 60
        E 0 90 54 60
        E 0 90 56 60
        E 0 90 60 60
        E 0 90 62 60
        E 120 80 18 00
        E 0 80 1f 00
        E 0 80 3e 00
        E 0 80 48 00
        E 0 80 4a 00
        E 0 80 54 00
        E 0 80 56 00
        E 0 80 60 00
        E 0 80 62 00
        E 120 90 1f 60
        E 0 90 56 60
        E 0 90 62 60
        E 120 80 1f 00
        E 0 80 56 00
        E 0 80 62 00
        E 120 90 1a 60
        E 0 90 1f 60
        E 0 90 3d 60
        E 0 90 3e 60
        E 0 90 49 60
        E 0 90 4a 60
        E 0 90 55 60
        E 0 90 56 60
        E 0 90 61 60
        E 0 90 62 60
        E 120 80 1a 00
        E 0 80 1f 00
        E 0 80 3d 00
        E 0 80 3e 00
        E 0 80 49 00
        E 0 80 4a 00
        E 0 80 55 00
        E 0 80 56 00
        E 0 80 61 00
        E 0 80 62 00
        E 120 90 1f 60
        E 0 90 56 60
        E 0 90 62 60
        E 120 80 1f 00
        E 0 80 56 00
        E 0 80 62 00
        E 120 90 18 60
        E 0 90 1f 60
        E 0 90 3e 60
        E 0 90 48 60
        E 0 90 4a 60
        E 0 90 54 60
        E 0 90 56 60
        E 0 90 60 60
        E 0 90 62 60
        E 120 80 18 00
        E 0 80 1f 00
        E 0 80 3e 00
        E 0 80 48 00
        E 0 80 4a 00
        E 0 80 54 00
        E 0 80 56 00
        E 0 80 60 00
        E 0 80 62 00
        E 120 90 1f 60
        E 0 90 56 60
        E 0 90 62 60
        E 120 80 1f 00
        E 0 80 56 00
        E 0 80 62 00
        E 120 90 1a 60
        E 0 90 1f 60
        E 0 90 3d 60
        E 0 90 3e 60
        E 0 90 49 60
        E 0 90 4a 60
        E 0 90 55 60
        E 0 90 56 60
        E 0 90 61 60
        E 0 90 62 60
        E 120 80 1a 00
        E 0 80 1f 00
        E 0 80 3d 00
        E 0 80 3e 00
        E 0 80 49 00
        E 0 80 4a 00
        E 0 80 55 00
        E 0 80 56 00
        E 0 80 61 00
        E 0 80 62 00
        E 120 90 18 60
        E 0 90 1f 60
        E 0 90 54 60
        E 0 90 56 60
        E 0 90 60 60
        E 0 90 62 60
        E 120 80 18 00
        E 0 80 1f 00
        E 0 80 54 00
        E 0 80 56 00
        E 0 80 60 00
        E 0 80 62 00
        E 120 90 18 60
        E 0 90 1f 60
        E 0 90 3e 60
        E 0 90 48 60
        E 0 90 4a 60
        E 0 90 54 60
        E 0 90 56 60
        E 0 90 60 60
        E 0 90 62 60
        E 120 80 18 00
        E 0 80 1f 00
        E 0 80 3e 00
        E 0 80 48 00
        E 0 80 4a 00
        E 0 80 54 00
        E 0 80 56 00
        E 0 80 60 00
        E 0 80 62 00
        E 120 90 1f 60
        E 0 90 56 60
        E 0 90 62 60
        E 120 80 1f 00
        E 0 80 56 00
        E 0 80 62 00
        E 120 90 1a 60
        E 0 90 1f 60
        E 0 90 3d 60
        E 0 90 3e 60
        E 0 90 49 60
        E 0 90 4a 60
        E 0 90 55 60
        E 0 90 56 60
        E 0 90 61 60
        E 0 90 62 60
        E 120 80 1a 00
        E 0 80 1f 00
        E 0 80 3d 00
        E 0 80 3e 00
        E 0 80 49 00
        E 0 80 4a 00
        E 0 80 55 00
        E 0 80 56 00
        E 0 80 61 00
        E 0 80 62 00
        E 120 90 1f 60
        E 0 90 56 60
        E 0 90 62 60
        E 120 80 1f 00
        E 0 80 56 00
        E 0 80 62 00
        E 120 90 18 60
        E 0 90 1f 60
        E 0 90 3e 60
        E 0 90 48 60
        E 0 90 4a 60
        E 0 90 54 60
        E 0 90 56 60
        E 0 90 60 60
        E 0 90 62 60
        E 120 80 18 00
        E 0 80 1f 00
        E 0 80 3e 00
        E 0 80 48 00
        E 0 80 4a 00
        E 0 80 54 00
        E 0 80 56 00
        E 0 80 60 00
        E 0 80 62 00
        E 120 90 1f 60
        E 0 90 56 60
        E 0 90 62 60
        E 120 80 1f 00
        E 0 80 56 00
        E 0 80 62 00
        E 120 90 1a 60
        E 0 90 1f 60
        E 0 90 3d 60
        E 0 90 3e 60
        E 0 90 49 60
        E 0 90 4a 60
        E 0 90 55 60
        E 0 90 56 60
        E 0 90 61 60
        E 0 90 62 60
        E 120 80 1a 00
        E 0 80 1f 00
        E 0 80 3d 00
        E 0 80 3e 00
        E 0 80 49 00
        E 0 80 4a 00
        E 0 80 55 00
        E 0 80 56 00
        E 0 80 61 00
        E 0 80 62 00
        E 120 90 18 60
        E 0 90 1f 60
        E 0 90 54 60
        E 0 90 56 60
        E 0 90 60 60
        E 0 90 62 60
        E 120 80 18 00
        E 0 80 1f 00
        E 0 80 54 00
        E 0 80 56 00
        E 0 80 60 00
        E 0 80 62 00
        E 120 90 18 60
        E 0 90 1f 60
        E 0 90 3e 60
        E 0 90 48 60
        E 0 90 4a 60
        E 0 90 54 60
        E 0 90 56 60
        E 0 90 60 60
        E 0 90 62 60
        E 120 80 18 00
        E 0 80 1f 00
        E 0 80 3e 00
        E 0 80 48 00
        E 0 80 4a 00
        E 0 80 54 00
        E 0 80 56 00
        E 0 80 60 00
        E 0 80 62 00
        E 120 90 1f 60
        E 0 90 56 60
        E 0 90 62 60
        E 120 80 1f 00
        E 0 80 56 00
        E 0 80 62 00
        E 120 90 1a 60
        E 0 90 1f 60
        E 0 90 3d 60
        E 0 90 3e 60
        E 0 90 49 60
        E 0 90 4a 60
        E 0 90 55 60
        E 0 90 56 60
        E 0 90 61 60
        E 0 90 62 60
        E 120 80 1a 00
        E 0 80 1f 00
        E 0 80 3d 00
        E 0 80 3e 00
        E 0 80 49 00
        E 0 80 4a 00
        E 0 80 55 00
        E 0 80 56 00
        E 0 80 61 00
        E 0 80 62 00
        E 120 90 1f 60
        E 0 90 56 60
        E 0 90 62 60
        E 120 80 1f 00
        E 0 80 56 00
        E 0 80 62 00
        E 120 90 18 60
        E 0 90 1f 60
        E 0 90 3e 60
        E 0 90 48 60
        E 0 90 4a 60
        E 0 90 54 60
        E 0 90 56 60
        E 0 90 60 60
        E 0 90 62 60
        E 0 90 78 60
        E 0 90 79 60
        E 0 90 7a 60
        E 0 90 7b 60
        E 0 90 7c 60
        E 120 80 18 00
        E 0 80 1f 00
        E 0 80 3e 00
        E 0 80 48 00
        E 0 80 4a 00
        E 0 80 54 00
        E 0 80 56 00
        E 0 80 60 00
        E 0 80 62 00
        E 120 90 1f 60
        E 0 90 56 60
        E 0 90 62 60
        E 120 80 1f 00
        E 0 80 56 00
        E 0 80 62 00
        E 120 90 1a 60
        E 0 90 1f 60
        E 0 90 3d 60
        E 0 90 3e 60
        E 0 90 49 60
        E 0 90 4a 60
        E 0 90 55 60
        E 0 90 56 60
        E 0 90 61 60
        E 0 90 62 60
        E 120 80 1a 00
        E 0 80 1f 00
        E 0 80 3d 00
        E 0 80 3e 00
        E 0 80 49 00
        E 0 80 4a 00
        E 0 80 55 00
        E 0 80 56 00
        E 0 80 61 00
        E 0 80 62 00
        E 120 90 18 60
        E 0 90 1f 60
        E 0 90 54 60
        E 0 90 56 60
        E 0 90 60 60
        E 0 90 62 60
        E 120 80 18 00
        E 0 80 1f 00
        E 0 80 54 00
        E 0 80 56 00
        E 0 80 60 00
        E 0 80 62 00
        E 120 90 18 60
        E 0 90 1f 60
        E 0 90 3e 60
        E 0 90 48 60
        E 0 90 4a 60
        E 0 90 54 60
        E 0 90 56 60
        E 0 90 60 60
        E 0 90 62 60
        E 120 80 18 00
        E 0 80 1f 00
        E 0 80 3e 00
        E 0 80 48 00
        E 0 80 4a 00
        E 0 80 54 00
        E 0 80 56 00
        E 0 80 60 00
        E 0 80 62 00
        E 120 90 1f 60
        E 0 90 56 60
        E 0 90 62 60
        E 120 80 1f 00
        E 0 80 56 00
        E 0 80 62 00
        E 120 90 1a 60
        E 0 90 1f 60
        E 0 90 3d 60
        E 0 90 3e 60
        E 0 90 49 60
        E 0 90 4a 60
        E 0 90 55 60
        E 0 90 56 60
        E 0 90 61 60
        E 0 90 62 60
        E 120 80 1a 00
        E 0 80 1f 00
        E 0 80 3d 00
        E 0 80 3e 00
        E 0 80 49 00
        E 0 80 4a 00
        E 0 80 55 00
        E 0 80 56 00
        E 0 80 61 00
        E 0 80 62 00
        E 120 90 19 60
        E 0 90 1f 60
        E 0 90 57 60
        E 0 90 63 60
        E 120 80 1f 00
        E 0 80 57 00
        E 0 80 63 00
        E 120 80 78 00
        E 0 80 79 00
        E 0 80 7a 00
        E 0 80 7b 00
        E 0 80 7c 00
        E 0 90 18 60
        E 0 90 1f 60
        E 0 90 3f 60
        E 0 90 48 60
        E 0 90 4b 60
        E 0 90 54 60
        E 0 90 57 60
        E 0 90 60 60
        E 0 90 63 60
        E 120 80 18 00
        E 0 80 1f 00
        E 0 80 3f 00
        E 0 80 48 00
        E 0 80 4b 00
        E 0 80 54 00
        E 0 80 57 00
        E 0 80 60 00
        E 0 80 63 00
        E 120 80 19 00
        E 0 90 1f 60
        E 0 90 56 60
        E 0 90 62 60
        E 120 80 1f 00
        E 0 80 56 00
        E 0 80 62 00
        E 120 90 1a 60
        E 0 90 1f 60
        E 0 90 3d 60
        E 0 90 3e 60
        E 0 90 49 60
        E 0 90 4a 60
        E 0 90 55 60
        E 0 90 56 60
        E 0 90 61 60
        E 0 90 62 60
        E 120 80 1a 00
        E 0 80 1f 00
        E 0 80 3d 00
        E 0 80 3e 00
        E 0 80 49 00
        E 0 80 4a 00
        E 0 80 55 00
        E 0 80 56 00
        E 0 80 61 00
        E 0 80 62 00
        E 120 90 18 60
        E 0 90 1f 60
        E 0 90 54 60
        E 0 90 56 60
        E 0 90 60 60
        E 0 90 62 60
        E 120 80 18 00
        E 0 80 1f 00
        E 0 80 54 00
        E 0 80 56 00
        E 0 80 60 00
        E 0 80 62 00
        E 120 90 18 60
        E 0 90 1f 60
        E 0 90 3e 60
        E 0 90 48 60
        E 0 90 4a 60
        E 0 90 54 60
        E 0 90 56 60
        E 0 90 60 60
        E 0 90 62 60
        E 120 80 18 00
        E 0 80 1f 00
        E 0 80 3e 00
        E 0 80 48 00
        E 0 80 4a 00
        E 0 80 54 00
        E 0 80 56 00
        E 0 80 60 00
        E 0 80 62 00
        E 120 90 1f 60
        E 0 90 56 60
        E 0 90 62 60
        E 120 80 1f 00
        E 0 80 56 00
        E 0 80 62 00
        E 120 90 1a 60
        E 0 90 1f 60
        E 0 90 3d 60
        E 0 90 3e 60
        E 0 90 49 60
        E 0 90 4a 60
        E 0 90 55 60
        E 0 90 56 60
        E 0 90 61 60
        E 0 90 62 60
        E 120 80 1a 00
        E 0 80 1f 00
        E 0 80 3d 00
        E 0 80 3e 00
        E 0 80 49 00
        E 0 80 4a 00
        E 0 80 55 00
        E 0 80 56 00
        E 0 80 61 00
        E 0 80 62 00
        E 120 90 1f 60
        E 0 90 56 60
        E 0 90 62 60
        E 120 80 1f 00
        E 0 80 56 00
        E 0 80 62 00
        E 120 90 18 60
        E 0 90 1f 60
        E 0 90 3e 60
        E 0 90 48 60
        E 0 90 4a 60
        E 0 90 54 60
        E 0 90 56 60
        E 0 90 60 60
        E 0 90 62 60
        E 120 80 18 00
        E 0 80 1f 00
        E 0 80 3e 00
        E 0 80 48 00
        E 0 80 4a 00
        E 0 80 54 00
        E 0 80 56 00
        E 0 80 60 00
        E 0 80 62 00
        E 120 90 1f 60
        E 0 90 56 60
        E 0 90 62 60
        E 120 80 1f 00
        E 0 80 56 00
        E 0 80 62 00
        E 120 90 1a 60
        E 0 90 1f 60
        E 0 90 3d 60
        E 0 90 3e 60
        E 0 90 49 60
        E 0 90 4a 60
        E 0 90 55 60
        E 0 90 56 60
        E 0 90 61 60
        E 0 90 62 60
        E 120 80 1a 00
        E 0 80 1f 00
        E 0 80 3d 00
        E 0 80 3e 00
        E 0 80 49 00
        E 0 80 4a 00
        E 0 80 55 00
        E 0 80 56 00
        E 0 80 61 00
        E 0 80 62 00
        E 120 90 18 60
        E 0 90 1f 60
        E 0 90 54 60
        E 0 90 56 60
        E 0 90 60 60
        E 0 90 62 60
        E 120 80 18 00
        E 0 80 1f 00
        E 0 80 54 00
        E 0 80 56 00
        E 0 80 60 00
        E 0 80 62 00
        E 120 90 18 60
        E 0 90 1f 60
        E 0 90 3e 60
        E 0 90 48 60
        E 0 90 4a 60
        E 0 90 54 60
        E 0 90 56 60
        E 0 90 60 60
        E 0 90 62 60
        E 120 80 18 00
        E 0 80 1f 00
        E 0 80 3e 00
        E 0 80 48 00
        E 0 80 4a 00
        E 0 80 54 00
        E 0 80 56 00
        E 0 80 60 00
        E 0 80 62 00
        E 120 90 1f 60
        E 0 90 56 60
        E 0 90 62 60
        E 120 80 1f 00
        E 0 80 56 00
        E 0 80 62 00
        E 120 90 1a 60
        E 0 90 1f 60
        E 0 90 3d 60
        E 0 90 3e 60
        E 0 90 49 60
        E 0 90 4a 60
        E 0 90 55 60
        E 0 90 56 60
        E 0 90 61 60
        E 0 90 62 60
        E 120 80 1a 00
        E 0 80 1f 00
        E 0 80 3d 00
        E 0 80 3e 00
        E 0 80 49 00
        E 0 80 4a 00
        E 0 80 55 00
        E 0 80 56 00
        E 0 80 61 00
        E 0 80 62 00
        E 120 90 1f 60
        E 0 90 56 60
        E 0 90 62 60
        E 120 80 1f 00
        E 0 80 56 00
        E 0 80 62 00
        E 120 90 18 60
        E 0 90 1f 60
        E 0 90 3e 60
        E 0 90 48 60
        E 0 90 4a 60
        E 0 90 54 60
        E 0 90 56 60
        E 0 90 60 60
        E 0 90 62 60
        E 0 90 74 60
        E 120 80 18 00
        E 0 80 1f 00
        E 0 80 3e 00
        E 0 80 48 00
        E 0 80 4a 00
        E 0 80 54 00
        E 0 80 56 00
        E 0 80 60 00
        E 0 80 62 00
        E 120 90 1f 60
        E 0 90 56 60
        E 0 90 62 60
        E 120 80 1f 00
        E 0 80 56 00
        E 0 80 62 00
        E 120 90 1a 60
        E 0 90 1f 60
        E 0 90 3d 60
        E 0 90 3e 60
        E 0 90 49 60
        E 0 90 4a 60
        E 0 90 55 60
        E 0 90 56 60
        E 0 90 61 60
        E 0 90 62 60
        E 120 80 1a 00
        E 0 80 1f 00
        E 0 80 3d 00
        E 0 80 3e 00
        E 0 80 49 00
        E 0 80 4a 00
        E 0 80 55 00
        E 0 80 56 00
        E 0 80 61 00
        E 0 80 62 00
        E 120 90 18 60
        E 0 90 1f 60
        E 0 90 54 60
        E 0 90 56 60
        E 0 90 60 60
        E 0 90 62 60
        E 120 80 18 00
        E 0 80 1f 00
        E 0 80 54 00
        E 0 80 56 00
        E 0 80 60 00
        E 0 80 62 00
        E 120 90 18 60
        E 0 90 1f 60
        E 0 90 3e 60
        E 0 90 48 60
        E 0 90 4a 60
        E 0 90 54 60
        E 0 90 56 60
        E 0 90 60 60
        E 0 90 62 60
        E 120 80 18 00
        E 0 80 1f 00
        E 0 80 3e 00
        E 0 80 48 00
        E 0 80 4a 00
        E 0 80 54 00
        E 0 80 56 00
        E 0 80 60 00
        E 0 80 62 00
        E 120 90 1f 60
        E 0 90 56 60
        E 0 90 62 60
        E 120 80 1f 00
        E 0 80 56 00
        E 0 80 62 00
        E 120 90 1a 60
        E 0 90 1f 60
        E 0 90 3d 60
        E 0 90 3e 60
        E 0 90 49 60
        E 0 90 4a 60
        E 0 90 55 60
        E 0 90 56 60
        E 0 90 61 60
        E 0 90 62 60
        E 120 80 1a 00
        E 0 80 1f 00
        E 0 80 3d 00
        E 0 80 3e 00
        E 0 80 49 00
        E 0 80 4a 00
        E 0 80 55 00
        E 0 80 56 00
        E 0 80 61 00
        E 0 80 62 00
        E 120 90 1f 60
        E 0 90 56 60
        E 0 90 62 60
        E 120 80 1f 00
        E 0 80 56 00
        E 0 80 62 00
        E 120 90 18 60
        E 0 90 1f 60
        E 0 90 3e 60
        E 0 90 48 60
        E 0 90 4a 60
        E 0 90 54 60
        E 0 90 56 60
        E 0 90 60 60
        E 0 90 62 60
        E 120 80 18 00
        E 0 80 1f 00
        E 0 80 3e 00
        E 0 80 48 00
        E 0 80 4a 00
        E 0 80 54 00
        E 0 80 56 00
        E 0 80 60 00
        E 0 80 62 00
        E 120 80 74 00
        E 1680 90 78 60
        E 0 90 79 60
        E 0 90 7a 60
        E 0 90 7b 60
        E 0 90 7c 60
        <X 1920 0
          /wFbcGxheV0=
        >
        E 0 80 78 00
        E 0 80 79 00
        E 0 80 7a 00
        E 0 80 7b 00
        E 0 80 7c 00
        E 0 90 18 60
        E 0 90 2a 60
        E 0 90 3f 60
        E 0 90 48 60
        E 0 90 4b 60
        E 0 90 54 60
        E 0 90 57 60
        E 0 90 60 60
        E 0 90 63 60
        E 120 80 18 00
        E 0 80 2a 00
        E 0 80 3f 00
        E 0 80 48 00
        E 0 80 4b 00
        E 0 80 54 00
        E 0 80 57 00
        E 0 80 60 00
        E 0 80 63 00
        E 360 90 1a 60
        E 0 90 3d 60
        E 0 90 49 60
        E 0 90 55 60
        E 0 90 61 60
        E 120 80 1a 00
        E 0 80 3d 00
        E 0 80 49 00
        E 0 80 55 00
        E 0 80 61 00
        E 120 90 18 60
        E 0 90 54 60
        E 0 90 60 60
        E 120 80 18 00
        E 0 80 54 00
        E 0 80 60 00
        E 120 90 18 60
        E 0 90 3c 60
        E 0 90 48 60
        E 0 90 54 60
        E 0 90 60 60
        E 120 80 18 00
        E 0 80 3c 00
        E 0 80 48 00
        E 0 80 54 00
        E 0 80 60 00
        E 360 90 1a 60
        E 0 90 3d 60
        E 0 90 49 60
        E 0 90 55 60
        E 0 90 61 60
        E 120 80 1a 00
        E 0 80 3d 00
        E 0 80 49 00
        E 0 80 55 00
        E 0 80 61 00
        E 360 90 18 60
        E 0 90 3c 60
        E 0 90 48 60
        E 0 90 54 60
        E 0 90 60 60
        E 120 80 18 00
        E 0 80 3c 00
        E 0 80 48 00
        E 0 80 54 00
        E 0 80 60 00
        E 360 90 1a 60
        E 0 90 3d 60
        E 0 90 49 60
        E 0 90 55 60
        E 0 90 61 60
        E 120 80 1a 00
        E 0 80 3d 00
        E 0 80 49 00
        E 0 80 55 00
        E 0 80 61 00
        E 120 90 18 60
        E 0 90 54 60
        E 0 90 60 60
        E 120 80 18 00
        E 0 80 54 00
        E 0 80 60 00
        E 120 90 18 60
        E 0 90 3c 60
        E 0 90 48 60
        E 0 90 54 60
        E 0 90 60 60
        E 120 80 18 00
        E 0 80 3c 00
        E 0 80 48 00
        E 0 80 54 00
        E 0 80 60 00
        E 840 90 18 60
        E 0 90 3c 60
        E 0 90 48 60
        E 0 90 54 60
        E 0 90 60 60
        E 120 80 18 00
        E 0 80 3c 00
        E 0 80 48 00
        E 0 80 54 00
        E 0 80 60 00
        E 360 90 1a 60
        E 0 90 3d 60
        E 0 90 49 60
        E 0 90 55 60
        E 0 90 61 60
        E 120 80 1a 00
        E 0 80 3d 00
        E 0 80 49 00
        E 0 80 55 00
        E 0 80 61 00
        E 120 90 18 60
        E 0 90 54 60
        E 0 90 60 60
        E 120 80 18 00
        E 0 80 54 00
        E 0 80 60 00
        E 120 90 18 60
        E 0 90 3c 60
        E 0 90 48 60
        E 0 90 54 60
        E 0 90 60 60
        E 120 80 18 00
        E 0 80 3c 00
        E 0 80 48 00
        E 0 80 54 00
        E 0 80 60 00
        E 360 90 1a 60
        E 0 90 3d 60
        E 0 90 49 60
        E 0 90 55 60
        E 0 90 61 60
        E 120 80 1a 00
        E 0 80 3d 00
        E 0 80 49 00
        E 0 80 55 00
        E 0 80 61 00
        E 360 90 18 60
        E 0 90 3c 60
        E 0 90 48 60
        E 0 90 54 60
        E 0 90 60 60
        E 0 90 78 60
        E 0 90 79 60
        E 0 90 7a 60
        E 0 90 7b 60
        E 0 90 7c 60
        E 120 80 18 00
        E 0 80 3c 00
        E 0 80 48 00
        E 0 80 54 00
        E 0 80 60 00
        E 360 90 1a 60
        E 0 90 3d 60
        E 0 90 49 60
        E 0 90 55 60
        E 0 90 61 60
        E 120 80 1a 00
        E 0 80 3d 00
        E 0 80 49 00
        E 0 80 55 00
        E 0 80 61 00
        E 120 90 18 60
        E 0 90 54 60
        E 0 90 60 60
        E 120 80 18 00
        E 0 80 54 00
        E 0 80 60 00
        E 120 90 18 60
        E 0 90 3c 60
        E 0 90 48 60
        E 0 90 54 60
        E 0 90 60 60
        E 120 80 18 00
        E 0 80 3c 00
        E 0 80 48 00
        E 0 80 54 00
        E 0 80 60 00
        E 840 80 78 00
        E 0 80 79 00
        E 0 80 7a 00
        E 0 80 7b 00
        E 0 80 7c 00
        E 0 90 18 60
        E 0 90 3c 60
        E 0 90 48 60
        E 0 90 54 60
        E 0 90 60 60
        E 120 80 18 00
        E 0 80 3c 00
        E 0 80 48 00
        E 0 80 54 00
        E 0 80 60 00
        E 360 90 1a 60
        E 0 90 3d 60
        E 0 90 49 60
        E 0 90 55 60
        E 0 90 61 60
        E 120 80 1a 00
        E 0 80 3d 00
        E 0 80 49 00
        E 0 80 55 00
        E 0 80 61 00
        E 120 90 18 60
        E 0 90 54 60
        E 0 90 60 60
        E 120 80 18 00
        E 0 80 54 00
        E 0 80 60 00
        E 120 90 18 60
        E 0 90 3c 60
        E 0 90 48 60
        E 0 90 54 60
        E 0 90 60 60
        E 120 80 18 00
        E 0 80 3c 00
        E 0 80 48 00
        E 0 80 54 00
        E 0 80 60 00
        E 360 90 1a 60
        E 0 90 3d 60
        E 0 90 49 60
        E 0 90 55 60
        E 0 90 61 60
        E 120 80 1a 00
        E 0 80 3d 00
        E 0 80 49 00
        E 0 80 55 00
        E 0 80 61 00
        E 360 90 18 60
        E 0 90 3c 60
        E 0 90 48 60
        E 0 90 54 60
        E 0 90 60 60
        E 120 80 18 00
        E 0 80 3c 00
        E 0 80 48 00
        E 0 80 54 00
        E 0 80 60 00
        E 360 90 1a 60
        E 0 90 3d 60
        E 0 90 49 60
        E 0 90 55 60
        E 0 90 61 60
        E 120 80 1a 00
        E 0 80 3d 00
        E 0 80 49 00
        E 0 80 55 00
        E 0 80 61 00
        E 120 90 18 60
        E 0 90 54 60
        E 0 90 60 60
        E 120 80 18 00
        E 0 80 54 00
        E 0 80 60 00
        E 120 90 18 60
        E 0 90 3c 60
        E 0 90 48 60
        E 0 90 54 60
        E 0 90 60 60
        E 120 80 18 00
        E 0 80 3c 00
        E 0 80 48 00
        E 0 80 54 00
        E 0 80 60 00
        E 840 90 18 60
        E 0 90 3c 60
        E 0 90 48 60
        E 0 90 54 60
        E 0 90 60 60
        E 120 80 18 00
        E 0 80 3c 00
        E 0 80 48 00
        E 0 80 54 00
        E 0 80 60 00
        E 360 90 1a 60
        E 0 90 3d 60
        E 0 90 49 60
        E 0 90 55 60
        E 0 90 61 60
        E 120 80 1a 00
        E 0 80 3d 00
        E 0 80 49 00
        E 0 80 55 00
        E 0 80 61 00
        E 120 90 18 60
        E 0 90 54 60
        E 0 90 60 60
        E 120 80 18 00
        E 0 80 54 00
        E 0 80 60 00
        E 120 90 18 60
        E 0 90 3c 60
        E 0 90 48 60
        E 0 90 54 60
        E 0 90 60 60
        E 120 80 18 00
        E 0 80 3c 00
        E 0 80 48 00
        E 0 80 54 00
        E 0 80 60 00
        E 360 90 1a 60
        E 0 90 3d 60
        E 0 90 49 60
        E 0 90 55 60
        E 0 90 61 60
        E 120 80 1a 00
        E 0 80 3d 00
        E 0 80 49 00
        E 0 80 55 00
        E 0 80 61 00
        E 360 90 18 60
        E 0 90 3c 60
        E 0 90 48 60
        E 0 90 54 60
        E 0 90 60 60
        E 0 90 74 60
        E 120 80 18 00
        E 0 80 3c 00
        E 0 80 48 00
        E 0 80 54 00
        E 0 80 60 00
        E 360 90 1a 60
        E 0 90 3d 60
        E 0 90 49 60
        E 0 90 55 60
        E 0 90 61 60
        E 120 80 1a 00
        E 0 80 3d 00
        E 0 80 49 00
        E 0 80 55 00
        E 0 80 61 00
        E 120 90 18 60
        E 0 90 54 60
        E 0 90 60 60
        E 120 80 18 00
        E 0 80 54 00
        E 0 80 60 00
        E 120 90 18 60
        E 0 90 3c 60
        E 0 90 48 60
        E 0 90 54 60
        E 0 90 60 60
        E 120 80 18 00
        E 0 80 3c 00
        E 0 80 48 00
        E 0 80 54 00
        E 0 80 60 00
        E 840 90 18 60
        E 0 90 2a 60
        E 0 90 3f 60
        E 0 90 48 60
        E 0 90 4b 60
        E 0 90 54 60
        E 0 90 57 60
        E 0 90 60 60
        E 0 90 63 60
        E 120 80 74 00
        E 0 80 18 00
        E 0 80 2a 00
        E 0 80 3f 00
        E 0 80 48 00
        E 0 80 4b 00
        E 0 80 54 00
        E 0 80 57 00
        E 0 80 60 00
        E 0 80 63 00
        E 360 90 1a 60
        E 0 90 3d 60
        E 0 90 49 60
        E 0 90 55 60
        E 0 90 61 60
        E 120 80 1a 00
        E 0 80 3d 00
        E 0 80 49 00
        E 0 80 55 00
        E 0 80 61 00
        E 120 90 18 60
        E 0 90 54 60
        E 0 90 60 60
        E 120 80 18 00
        E 0 80 54 00
        E 0 80 60 00
        E 120 90 18 60
        E 0 90 3c 60
        E 0 90 48 60
        E 0 90 54 60
        E 0 90 60 60
        E 120 80 18 00
        E 0 80 3c 00
        E 0 80 48 00
        E 0 80 54 00
        E 0 80 60 00
        E 360 90 1a 60
        E 0 90 3d 60
        E 0 90 49 60
        E 0 90 55 60
        E 0 90 61 60
        E 120 80 1a 00
        E 0 80 3d 00
        E 0 80 49 00
        E 0 80 55 00
        E 0 80 61 00
        E 360 90 18 60
        E 0 90 3c 60
        E 0 90 48 60
        E 0 90 54 60
        E 0 90 60 60
        E 120 80 18 00
        E 0 80 3c 00
        E 0 80 48 00
        E 0 80 54 00
        E 0 80 60 00
        E 360 90 1a 60
        E 0 90 3d 60
        E 0 90 49 60
        E 0 90 55 60
        E 0 90 61 60
        E 120 80 1a 00
        E 0 80 3d 00
        E 0 80 49 00
        E 0 80 55 00
        E 0 80 61 00
        E 120 90 18 60
        E 0 90 54 60
        E 0 90 60 60
        E 120 80 18 00
        E 0 80 54 00
        E 0 80 60 00
        E 120 90 18 60
        E 0 90 3c 60
        E 0 90 48 60
        E 0 90 54 60
        E 0 90 60 60
        E 120 80 18 00
        E 0 80 3c 00
        E 0 80 48 00
        E 0 80 54 00
        E 0 80 60 00
        E 360 90 1a 60
        E 0 90 3d 60
        E 0 90 49 60
        E 0 90 55 60
        E 0 90 61 60
        E 120 80 1a 00
        E 0 80 3d 00
        E 0 80 49 00
        E 0 80 55 00
        E 0 80 61 00
        E 360 90 18 60
        E 0 90 3c 60
        E 0 90 48 60
        E 0 90 54 60
        E 0 90 60 60
        E 120 80 18 00
        E 0 80 3c 00
        E 0 80 48 00
        E 0 80 54 00
        E 0 80 60 00
        E 360 90 1a 60
        E 0 90 3d 60
        E 0 90 49 60
        E 0 90 55 60
        E 0 90 61 60
        E 120 80 1a 00
        E 0 80 3d 00
        E 0 80 49 00
        E 0 80 55 00
        E 0 80 61 00
        E 120 90 18 60
        E 0 90 54 60
        E 0 90 60 60
        E 120 80 18 00
        E 0 80 54 00
        E 0 80 60 00
        E 120 90 18 60
        E 0 90 3c 60
        E 0 90 48 60
        E 0 90 54 60
        E 0 90 60 60
        E 120 80 18 00
        E 0 80 3c 00
        E 0 80 48 00
        E 0 80 54 00
        E 0 80 60 00
        E 360 90 1a 60
        E 0 90 3d 60
        E 0 90 49 60
        E 0 90 55 60
        E 0 90 61 60
        E 120 80 1a 00
        E 0 80 3d 00
        E 0 80 49 00
        E 0 80 55 00
        E 0 80 61 00
        E 360 90 18 60
        E 0 90 3c 60
        E 0 90 48 60
        E 0 90 54 60
        E 0 90 60 60
        E 0 90 78 60
        E 0 90 79 60
        E 0 90 7a 60
        E 0 90 7b 60
        E 0 90 7c 60
        E 120 80 18 00
        E 0 80 3c 00
        E 0 80 48 00
        E 0 80 54 00
        E 0 80 60 00
        E 360 90 1a 60
        E 0 90 3d 60
        E 0 90 49 60
        E 0 90 55 60
        E 0 90 61 60
        E 120 80 1a 00
        E 0 80 3d 00
        E 0 80 49 00
        E 0 80 55 00
        E 0 80 61 00
        E 120 90 18 60
        E 0 90 54 60
        E 0 90 60 60
        E 120 80 18 00
        E 0 80 54 00
        E 0 80 60 00
        E 120 90 18 60
        E 0 90 3c 60
        E 0 90 48 60
        E 0 90 54 60
        E 0 90 60 60
        E 120 80 18 00
        E 0 80 3c 00
        E 0 80 48 00
        E 0 80 54 00
        E 0 80 60 00
        E 120 90 18 60
        E 0 90 19 60
        E 0 90 1e 60
        E 0 90 54 60
        E 0 90 56 60
        E 0 90 60 60
        E 0 90 62 60
        E 120 80 18 00
        E 0 80 1e 00
        E 0 80 54 00
        E 0 80 56 00
        E 0 80 60 00
        E 0 80 62 00
        E 120 80 19 00
        E 0 90 1a 60
        E 0 90 3d 60
        E 0 90 49 60
        E 0 90 55 60
        E 0 90 61 60
        E 120 80 1a 00
        E 0 80 3d 00
        E 0 80 49 00
        E 0 80 55 00
        E 0 80 61 00
        E 120 90 18 60
        E 0 90 54 60
        E 0 90 60 60
        E 120 80 18 00
        E 0 80 54 00
        E 0 80 60 00
        E 120 80 78 00
        E 0 80 79 00
        E 0 80 7a 00
        E 0 80 7b 00
        E 0 80 7c 00
        E 0 90 18 60
        E 0 90 3c 60
        E 0 90 48 60
        E 0 90 54 60
        E 0 90 60 60
        E 120 80 18 00
        E 0 80 3c 00
        E 0 80 48 00
        E 0 80 54 00
        E 0 80 60 00
        E 360 90 1a 60
        E 0 90 3d 60
        E 0 90 49 60
        E 0 90 55 60
        E 0 90 61 60
        E 120 80 1a 00
        E 0 80 3d 00
        E 0 80 49 00
        E 0 80 55 00
        E 0 80 61 00
        E 120 90 18 60
        E 0 90 54 60
        E 0 90 60 60
        E 120 80 18 00
        E 0 80 54 00
        E 0 80 60 00
        E 120 90 18 60
        E 0 90 3c 60
        E 0 90 48 60
        E 0 90 54 60
        E 0 90 60 60
        E 120 80 18 00
        E 0 80 3c 00
        E 0 80 48 00
        E 0 80 54 00
        E 0 80 60 00
        E 360 90 1a 60
        E 0 90 3d 60
        E 0 90 49 60
        E 0 90 55 60
        E 0 90 61 60
        E 120 80 1a 00
        E 0 80 3d 00
        E 0 80 49 00
        E 0 80 55 00
        E 0 80 61 00
        E 360 90 18 60
        E 0 90 3c 60
        E 0 90 48 60
        E 0 90 54 60
        E 0 90 60 60
        E 120 80 18 00
        E 0 80 3c 00
        E 0 80 48 00
        E 0 80 54 00
        E 0 80 60 00
        E 360 90 1a 60
        E 0 90 3d 60
        E 0 90 49 60
        E 0 90 55 60
        E 0 90 61 60
        E 120 80 1a 00
        E 0 80 3d 00
        E 0 80 49 00
        E 0 80 55 00
        E 0 80 61 00
        E 120 90 18 60
        E 0 90 54 60
        E 0 90 60 60
        E 120 80 18 00
        E 0 80 54 00
        E 0 80 60 00
        E 120 90 18 60
        E 0 90 3c 60
        E 0 90 48 60
        E 0 90 54 60
        E 0 90 60 60
        E 120 80 18 00
        E 0 80 3c 00
        E 0 80 48 00
        E 0 80 54 00
        E 0 80 60 00
        E 360 90 1a 60
        E 0 90 3d 60
        E 0 90 49 60
        E 0 90 55 60
        E 0 90 61 60
        E 120 80 1a 00
        E 0 80 3d 00
        E 0 80 49 00
        E 0 80 55 00
        E 0 80 61 00
        E 360 90 18 60
        E 0 90 3c 60
        E 0 90 48 60
        E 0 90 54 60
        E 0 90 60 60
        E 0 90 74 60
        E 120 80 18 00
        E 0 80 3c 00
        E 0 80 48 00
        E 0 80 54 00
        E 0 80 60 00
        E 360 90 1a 60
        E 0 90 3d 60
        E 0 90 49 60
        E 0 90 55 60
        E 0 90 61 60
        E 120 80 1a 00
        E 0 80 3d 00
        E 0 80 49 00
        E 0 80 55 00
        E 0 80 61 00
        E 120 90 18 60
        E 0 90 54 60
        E 0 90 60 60
        E 120 80 18 00
        E 0 80 54 00
        E 0 80 60 00
        E 120 90 18 60
        E 0 90 3c 60
        E 0 90 48 60
        E 0 90 54 60
        E 0 90 60 60
        E 120 80 18 00
        E 0 80 3c 00
        E 0 80 48 00
        E 0 80 54 00
        E 0 80 60 00
        E 360 90 1a 60
        E 0 90 3d 60
        E 0 90 49 60
        E 0 90 55 60
        E 0 90 61 60
        E 120 80 1a 00
        E 0 80 3d 00
        E 0 80 49 00
        E 0 80 55 00
        E 0 80 61 00
        E 360 90 18 60
        E 0 90 3c 60
        E 0 90 48 60
        E 0 90 54 60
        E 0 90 60 60
        E 120 80 18 00
        E 0 80 3c 00
        E 0 80 48 00
        E 0 80 54 00
        E 0 80 60 00
        E 360 90 1a 60
        E 0 90 3d 60
        E 0 90 49 60
        E 0 90 55 60
        E 0 90 61 60
        E 120 80 1a 00
        E 0 80 3d 00
        E 0 80 49 00
        E 0 80 55 00
        E 0 80 61 00
        E 120 90 18 60
        E 0 90 54 60
        E 0 90 60 60
        E 120 80 18 00
        E 0 80 54 00
        E 0 80 60 00
        E 120 90 18 60
        E 0 90 3c 60
        E 0 90 48 60
        E 0 90 54 60
        E 0 90 60 60
        E 120 80 18 00
        E 0 80 3c 00
        E 0 80 48 00
        E 0 80 54 00
        E 0 80 60 00
        E 120 90 18 60
        E 0 90 19 60
        E 0 90 1e 60
        E 0 90 54 60
        E 0 90 56 60
        E 0 90 60 60
        E 0 90 62 60
        E 120 80 18 00
        E 0 80 1e 00
        E 0 80 54 00
        E 0 80 56 00
        E 0 80 60 00
        E 0 80 62 00
        E 120 80 19 00
        E 0 90 1a 60
        E 0 90 3d 60
        E 0 90 49 60
        E 0 90 55 60
        E 0 90 61 60
        E 120 80 1a 00
        E 0 80 3d 00
        E 0 80 49 00
        E 0 80 55 00
        E 0 80 61 00
        E 120 90 18 60
        E 0 90 54 60
        E 0 90 60 60
        E 120 80 18 00
        E 0 80 54 00
        E 0 80 60 00
        E 120 90 18 60
        E 0 90 2a 60
        E 0 90 3f 60
        E 0 90 48 60
        E 0 90 4b 60
        E 0 90 54 60
        E 0 90 57 60
        E 0 90 60 60
        E 0 90 63 60
        E 120 80 74 00
        E 0 80 18 00
        E 0 80 2a 00
        E 0 80 3f 00
        E 0 80 48 00
        E 0 80 4b 00
        E 0 80 54 00
        E 0 80 57 00
        E 0 80 60 00
        E 0 80 63 00
        E 3720 90 18 60
        E 0 90 3c 60
        E 0 90 48 60
        E 0 90 54 60
        E 0 90 60 60
        E 120 80 18 00
        E 0 80 3c 00
        E 0 80 48 00
        E 0 80 54 00
        E 0 80 60 00
        E 1800 90 78 60
        E 0 90 79 60
        E 0 90 7a 60
        E 0 90 7b 60
        E 0 90 7c 60
        E 1440 90 1a 60
        E 0 90 3d 60
        E 0 90 49 60
        E 0 90 55 60
        E 0 90 61 60
        E 120 80 1a 00
        E 0 80 3d 00
        E 0 80 49 00
        E 0 80 55 00
        E 0 80 61 00
        <X 360 0
          /wFbaW50ZW5zZV0=
        >
        E 0 80 78 00
        E 0 80 79 00
        E 0 80 7a 00
        E 0 80 7b 00
        E 0 80 7c 00
        E 0 90 18 60
        E 0 90 1f 60
        E 0 90 3e 60
        E 0 90 48 60
        E 0 90 4a 60
        E 0 90 54 60
        E 0 90 56 60
        E 0 90 60 60
        E 0 90 62 60
        E 120 80 18 00
        E 0 80 1f 00
        E 0 80 3e 00
        E 0 80 48 00
        E 0 80 4a 00
        E 0 80 54 00
        E 0 80 56 00
        E 0 80 60 00
        E 0 80 62 00
        E 120 90 1f 60
        E 0 90 56 60
        E 0 90 62 60
        E 120 80 1f 00
        E 0 80 56 00
        E 0 80 62 00
        E 120 90 1a 60
        E 0 90 1f 60
        E 0 90 3d 60
        E 0 90 3e 60
        E 0 90 49 60
        E 0 90 4a 60
        E 0 90 55 60
        E 0 90 56 60
        E 0 90 61 60
        E 0 90 62 60
        E 120 80 1a 00
        E 0 80 1f 00
        E 0 80 3d 00
        E 0 80 3e 00
        E 0 80 49 00
        E 0 80 4a 00
        E 0 80 55 00
        E 0 80 56 00
        E 0 80 61 00
        E 0 80 62 00
        E 120 90 18 60
        E 0 90 1f 60
        E 0 90 54 60
        E 0 90 56 60
        E 0 90 60 60
        E 0 90 62 60
        E 120 80 18 00
        E 0 80 1f 00
        E 0 80 54 00
        E 0 80 56 00
        E 0 80 60 00
        E 0 80 62 00
        E 120 90 18 60
        E 0 90 1f 60
        E 0 90 3e 60
        E 0 90 48 60
        E 0 90 4a 60
        E 0 90 54 60
        E 0 90 56 60
        E 0 90 60 60
        E 0 90 62 60
        E 120 80 18 00
        E 0 80 1f 00
        E 0 80 3e 00
        E 0 80 48 00
        E 0 80 4a 00
        E 0 80 54 00
        E 0 80 56 00
        E 0 80 60 00
        E 0 80 62 00
        E 120 90 1f 60
        E 0 90 56 60
        E 0 90 62 60
        E 120 80 1f 00
        E 0 80 56 00
        E 0 80 62 00
        E 120 90 1a 60
        E 0 90 1f 60
        E 0 90 3d 60
        E 0 90 3e 60
        E 0 90 49 60
        E 0 90 4a 60
        E 0 90 55 60
        E 0 90 56 60
        E 0 90 61 60
        E 0 90 62 60
        E 120 80 1a 00
        E 0 80 1f 00
        E 0 80 3d 00
        E 0 80 3e 00
        E 0 80 49 00
        E 0 80 4a 00
        E 0 80 55 00
        E 0 80 56 00
        E 0 80 61 00
        E 0 80 62 00
        E 120 90 1f 60
        E 0 90 56 60
        E 0 90 62 60
        E 120 80 1f 00
        E 0 80 56 00
        E 0 80 62 00
        E 120 90 18 60
        E 0 90 1f 60
        E 0 90 3e 60
        E 0 90 48 60
        E 0 90 4a 60
        E 0 90 54 60
        E 0 90 56 60
        E 0 90 60 60
        E 0 90 62 60
        E 120 80 18 00
        E 0 80 1f 00
        E 0 80 3e 00
        E 0 80 48 00
        E 0 80 4a 00
        E 0 80 54 00
        E 0 80 56 00
        E 0 80 60 00
        E 0 80 62 00
        E 120 90 1f 60
        E 0 90 56 60
        E 0 90 62 60
        E 120 80 1f 00
        E 0 80 56 00
        E 0 80 62 00
        E 120 90 1a 60
        E 0 90 1f 60
        E 0 90 3d 60
        E 0 90 3e 60
        E 0 90 49 60
        E 0 90 4a 60
        E 0 90 55 60
        E 0 90 56 60
        E 0 90 61 60
        E 0 90 62 60
        E 120 80 1a 00
        E 0 80 1f 00
        E 0 80 3d 00
        E 0 80 3e 00
        E 0 80 49 00
        E 0 80 4a 00
        E 0 80 55 00
        E 0 80 56 00
        E 0 80 61 00
        E 0 80 62 00
        E 120 90 18 60
        E 0 90 1f 60
        E 0 90 54 60
        E 0 90 56 60
        E 0 90 60 60
        E 0 90 62 60
        E 120 80 18 00
        E 0 80 1f 00
        E 0 80 54 00
        E 0 80 56 00
        E 0 80 60 00
        E 0 80 62 00
        E 120 90 18 60
        E 0 90 1f 60
        E 0 90 3e 60
        E 0 90 48 60
        E 0 90 4a 60
        E 0 90 54 60
        E 0 90 56 60
        E 0 90 60 60
        E 0 90 62 60
        E 120 80 18 00
        E 0 80 1f 00
        E 0 80 3e 00
        E 0 80 48 00
        E 0 80 4a 00
        E 0 80 54 00
        E 0 80 56 00
        E 0 80 60 00
        E 0 80 62 00
        E 120 90 1f 60
        E 0 90 56 60
        E 0 90 62 60
        E 120 80 1f 00
        E 0 80 56 00
        E 0 80 62 00
        E 120 90 1a 60
        E 0 90 1f 60
        E 0 90 3d 60
        E 0 90 3e 60
        E 0 90 49 60
        E 0 90 4a 60
        E 0 90 55 60
        E 0 90 56 60
        E 0 90 61 60
        E 0 90 62 60
        E 120 80 1a 00
        E 0 80 1f 00
        E 0 80 3d 00
        E 0 80 3e 00
        E 0 80 49 00
        E 0 80 4a 00
        E 0 80 55 00
        E 0 80 56 00
        E 0 80 61 00
        E 0 80 62 00
        E 120 90 1f 60
        E 0 90 56 60
        E 0 90 62 60
        E 120 80 1f 00
        E 0 80 56 00
        E 0 80 62 00
        E 120 90 18 60
        E 0 90 1f 60
        E 0 90 3e 60
        E 0 90 48 60
        E 0 90 4a 60
        E 0 90 54 60
        E 0 90 56 60
        E 0 90 60 60
        E 0 90 62 60
        E 120 80 18 00
        E 0 80 1f 00
        E 0 80 3e 00
        E 0 80 48 00
        E 0 80 4a 00
        E 0 80 54 00
        E 0 80 56 00
        E 0 80 60 00
        E 0 80 62 00
        E 120 90 1f 60
        E 0 90 56 60
        E 0 90 62 60
        E 120 80 1f 00
        E 0 80 56 00
        E 0 80 62 00
        E 120 90 1a 60
        E 0 90 1f 60
        E 0 90 3d 60
        E 0 90 3e 60
        E 0 90 49 60
        E 0 90 4a 60
        E 0 90 55 60
        E 0 90 56 60
        E 0 90 61 60
        E 0 90 62 60
        E 120 80 1a 00
        E 0 80 1f 00
        E 0 80 3d 00
        E 0 80 3e 00
        E 0 80 49 00
        E 0 80 4a 00
        E 0 80 55 00
        E 0 80 56 00
        E 0 80 61 00
        E 0 80 62 00
        E 120 90 18 60
        E 0 90 1f 60
        E 0 90 54 60
        E 0 90 56 60
        E 0 90 60 60
        E 0 90 62 60
        E 120 80 18 00
        E 0 80 1f 00
        E 0 80 54 00
        E 0 80 56 00
        E 0 80 60 00
        E 0 80 62 00
        E 120 90 18 60
        E 0 90 1f 60
        E 0 90 3e 60
        E 0 90 48 60
        E 0 90 4a 60
        E 0 90 54 60
        E 0 90 56 60
        E 0 90 60 60
        E 0 90 62 60
        E 120 80 18 00
        E 0 80 1f 00
        E 0 80 3e 00
        E 0 80 48 00
        E 0 80 4a 00
        E 0 80 54 00
        E 0 80 56 00
        E 0 80 60 00
        E 0 80 62 00
        E 120 90 1f 60
        E 0 90 56 60
        E 0 90 62 60
        E 120 80 1f 00
        E 0 80 56 00
        E 0 80 62 00
        E 120 90 1a 60
        E 0 90 1f 60
        E 0 90 3d 60
        E 0 90 3e 60
        E 0 90 49 60
        E 0 90 4a 60
        E 0 90 55 60
        E 0 90 56 60
        E 0 90 61 60
        E 0 90 62 60
        E 120 80 1a 00
        E 0 80 1f 00
        E 0 80 3d 00
        E 0 80 3e 00
        E 0 80 49 00
        E 0 80 4a 00
        E 0 80 55 00
        E 0 80 56 00
        E 0 80 61 00
        E 0 80 62 00
        E 120 90 1f 60
        E 0 90 56 60
        E 0 90 62 60
        E 120 80 1f 00
        E 0 80 56 00
        E 0 80 62 00
        E 120 90 18 60
        E 0 90 1f 60
        E 0 90 3e 60
        E 0 90 48 60
        E 0 90 4a 60
        E 0 90 54 60
        E 0 90 56 60
        E 0 90 60 60
        E 0 90 62 60
        E 0 90 78 60
        E 0 90 79 60
        E 0 90 7a 60
        E 0 90 7b 60
        E 0 90 7c 60
        E 120 80 18 00
        E 0 80 1f 00
        E 0 80 3e 00
        E 0 80 48 00
        E 0 80 4a 00
        E 0 80 54 00
        E 0 80 56 00
        E 0 80 60 00
        E 0 80 62 00
        E 120 90 1f 60
        E 0 90 56 60
        E 0 90 62 60
        E 120 80 1f 00
        E 0 80 56 00
        E 0 80 62 00
        E 120 90 1a 60
        E 0 90 1f 60
        E 0 90 3d 60
        E 0 90 3e 60
        E 0 90 49 60
        E 0 90 4a 60
        E 0 90 55 60
        E 0 90 56 60
        E 0 90 61 60
        E 0 90 62 60
        E 120 80 1a 00
        E 0 80 1f 00
        E 0 80 3d 00
        E 0 80 3e 00
        E 0 80 49 00
        E 0 80 4a 00
        E 0 80 55 00
        E 0 80 56 00
        E 0 80 61 00
        E 0 80 62 00
        E 120 90 18 60
        E 0 90 1f 60
        E 0 90 54 60
        E 0 90 56 60
        E 0 90 60 60
        E 0 90 62 60
        E 120 80 18 00
        E 0 80 1f 00
        E 0 80 54 00
        E 0 80 56 00
        E 0 80 60 00
        E 0 80 62 00
        E 120 90 18 60
        E 0 90 1f 60
        E 0 90 3e 60
        E 0 90 48 60
        E 0 90 4a 60
        E 0 90 54 60
        E 0 90 56 60
        E 0 90 60 60
        E 0 90 62 60
        E 120 80 18 00
        E 0 80 1f 00
        E 0 80 3e 00
        E 0 80 48 00
        E 0 80 4a 00
        E 0 80 54 00
        E 0 80 56 00
        E 0 80 60 00
        E 0 80 62 00
        E 120 90 1f 60
        E 0 90 56 60
        E 0 90 62 60
        E 120 80 1f 00
        E 0 80 56 00
        E 0 80 62 00
        E 120 90 1a 60
        E 0 90 1f 60
        E 0 90 3d 60
        E 0 90 3e 60
        E 0 90 49 60
        E 0 90 4a 60
        E 0 90 55 60
        E 0 90 56 60
        E 0 90 61 60
        E 0 90 62 60
        E 120 80 1a 00
        E 0 80 1f 00
        E 0 80 3d 00
        E 0 80 3e 00
        E 0 80 49 00
        E 0 80 4a 00
        E 0 80 55 00
        E 0 80 56 00
        E 0 80 61 00
        E 0 80 62 00
        E 120 90 1f 60
        E 0 90 56 60
        E 0 90 62 60
        E 120 80 1f 00
        E 0 80 56 00
        E 0 80 62 00
        E 120 80 78 00
        E 0 80 79 00
        E 0 80 7a 00
        E 0 80 7b 00
        E 0 80 7c 00
        E 0 90 18 60
        E 0 90 1f 60
        E 0 90 3e 60
        E 0 90 48 60
        E 0 90 4a 60
        E 0 90 54 60
        E 0 90 56 60
        E 0 90 60 60
        E 0 90 62 60
        E 120 80 18 00
        E 0 80 1f 00
        E 0 80 3e 00
        E 0 80 48 00
        E 0 80 4a 00
        E 0 80 54 00
        E 0 80 56 00
        E 0 80 60 00
        E 0 80 62 00
        E 120 90 1f 60
        E 0 90 56 60
        E 0 90 62 60
        E 120 80 1f 00
        E 0 80 56 00
        E 0 80 62 00
        E 120 90 1a 60
        E 0 90 1f 60
        E 0 90 3d 60
        E 0 90 3e 60
        E 0 90 49 60
        E 0 90 4a 60
        E 0 90 55 60
        E 0 90 56 60
        E 0 90 61 60
        E 0 90 62 60
        E 120 80 1a 00
        E 0 80 1f 00
        E 0 80 3d 00
        E 0 80 3e 00
        E 0 80 49 00
        E 0 80 4a 00
        E 0 80 55 00
        E 0 80 56 00
        E 0 80 61 00
        E 0 80 62 00
        E 120 90 18 60
        E 0 90 1f 60
        E 0 90 54 60
        E 0 90 56 60
        E 0 90 60 60
        E 0 90 62 60
        E 120 80 18 00
        E 0 80 1f 00
        E 0 80 54 00
        E 0 80 56 00
        E 0 80 60 00
        E 0 80 62 00
        E 120 90 18 60
        E 0 90 1f 60
        E 0 90 3e 60
        E 0 90 48 60
        E 0 90 4a 60
        E 0 90 54 60
        E 0 90 56 60
        E 0 90 60 60
        E 0 90 62 60
        E 120 80 18 00
        E 0 80 1f 00
        E 0 80 3e 00
        E 0 80 48 00
        E 0 80 4a 00
        E 0 80 54 00
        E 0 80 56 00
        E 0 80 60 00
        E 0 80 62 00
        E 120 90 1f 60
        E 0 90 56 60
        E 0 90 62 60
        E 120 80 1f 00
        E 0 80 56 00
        E 0 80 62 00
        E 120 90 1a 60
        E 0 90 1f 60
        E 0 90 3d 60
        E 0 90 3e 60
        E 0 90 49 60
        E 0 90 4a 60
        E 0 90 55 60
        E 0 90 56 60
        E 0 90 61 60
        E 0 90 62 60
        E 120 80 1a 00
        E 0 80 1f 00
        E 0 80 3d 00
        E 0 80 3e 00
        E 0 80 49 00
        E 0 80 4a 00
        E 0 80 55 00
        E 0 80 56 00
        E 0 80 61 00
        E 0 80 62 00
        E 120 90 1f 60
        E 0 90 56 60
        E 0 90 62 60
        E 120 80 1f 00
        E 0 80 56 00
        E 0 80 62 00
        E 120 90 18 60
        E 0 90 1f 60
        E 0 90 3e 60
        E 0 90 48 60
        E 0 90 4a 60
        E 0 90 54 60
        E 0 90 56 60
        E 0 90 60 60
        E 0 90 62 60
        E 120 80 18 00
        E 0 80 1f 00
        E 0 80 3e 00
        E 0 80 48 00
        E 0 80 4a 00
        E 0 80 54 00
        E 0 80 56 00
        E 0 80 60 00
        E 0 80 62 00
        E 120 90 1f 60
        E 0 90 56 60
        E 0 90 62 60
        E 120 80 1f 00
        E 0 80 56 00
        E 0 80 62 00
        E 120 90 1a 60
        E 0 90 1f 60
        E 0 90 3d 60
        E 0 90 3e 60
        E 0 90 49 60
        E 0 90 4a 60
        E 0 90 55 60
        E 0 90 56 60
        E 0 90 61 60
        E 0 90 62 60
        E 120 80 1a 00
        E 0 80 1f 00
        E 0 80 3d 00
        E 0 80 3e 00
        E 0 80 49 00
        E 0 80 4a 00
        E 0 80 55 00
        E 0 80 56 00
        E 0 80 61 00
        E 0 80 62 00
        E 120 90 18 60
        E 0 90 1f 60
        E 0 90 54 60
        E 0 90 56 60
        E 0 90 60 60
        E 0 90 62 60
        E 120 80 18 00
        E 0 80 1f 00
        E 0 80 54 00
        E 0 80 56 00
        E 0 80 60 00
        E 0 80 62 00
        E 120 90 18 60
        E 0 90 1f 60
        E 0 90 3e 60
        E 0 90 48 60
        E 0 90 4a 60
        E 0 90 54 60
        E 0 90 56 60
        E 0 90 60 60
        E 0 90 62 60
        E 120 80 18 00
        E 0 80 1f 00
        E 0 80 3e 00
        E 0 80 48 00
        E 0 80 4a 00
        E 0 80 54 00
        E 0 80 56 00
        E 0 80 60 00
        E 0 80 62 00
        E 120 90 1f 60
        E 0 90 56 60
        E 0 90 62 60
        E 120 80 1f 00
        E 0 80 56 00
        E 0 80 62 00
        E 120 90 1a 60
        E 0 90 1f 60
        E 0 90 3d 60
        E 0 90 3e 60
        E 0 90 49 60
        E 0 90 4a 60
        E 0 90 55 60
        E 0 90 56 60
        E 0 90 61 60
        E 0 90 62 60
        E 120 80 1a 00
        E 0 80 1f 00
        E 0 80 3d 00
        E 0 80 3e 00
        E 0 80 49 00
        E 0 80 4a 00
        E 0 80 55 00
        E 0 80 56 00
        E 0 80 61 00
        E 0 80 62 00
        E 120 90 1f 60
        E 0 90 56 60
        E 0 90 62 60
        E 120 80 1f 00
        E 0 80 56 00
        E 0 80 62 00
        E 120 90 18 60
        E 0 90 1f 60
        E 0 90 3e 60
        E 0 90 48 60
        E 0 90 4a 60
        E 0 90 54 60
        E 0 90 56 60
        E 0 90 60 60
        E 0 90 62 60
        E 120 80 18 00
        E 0 80 1f 00
        E 0 80 3e 00
        E 0 80 48 00
        E 0 80 4a 00
        E 0 80 54 00
        E 0 80 56 00
        E 0 80 60 00
        E 0 80 62 00
        E 120 90 1f 60
        E 0 90 56 60
        E 0 90 62 60
        E 120 80 1f 00
        E 0 80 56 00
        E 0 80 62 00
        E 120 90 1a 60
        E 0 90 1f 60
        E 0 90 3d 60
        E 0 90 3e 60
        E 0 90 49 60
        E 0 90 4a 60
        E 0 90 55 60
        E 0 90 56 60
        E 0 90 61 60
        E 0 90 62 60
        E 120 80 1a 00
        E 0 80 1f 00
        E 0 80 3d 00
        E 0 80 3e 00
        E 0 80 49 00
        E 0 80 4a 00
        E 0 80 55 00
        E 0 80 56 00
        E 0 80 61 00
        E 0 80 62 00
        E 120 90 18 60
        E 0 90 1f 60
        E 0 90 54 60
        E 0 90 56 60
        E 0 90 60 60
        E 0 90 62 60
        E 120 80 18 00
        E 0 80 1f 00
        E 0 80 54 00
        E 0 80 56 00
        E 0 80 60 00
        E 0 80 62 00
        E 120 90 18 60
        E 0 90 1f 60
        E 0 90 3e 60
        E 0 90 48 60
        E 0 90 4a 60
        E 0 90 54 60
        E 0 90 56 60
        E 0 90 60 60
        E 0 90 62 60
        E 120 80 18 00
        E 0 80 1f 00
        E 0 80 3e 00
        E 0 80 48 00
        E 0 80 4a 00
        E 0 80 54 00
        E 0 80 56 00
        E 0 80 60 00
        E 0 80 62 00
        E 120 90 1f 60
        E 0 90 56 60
        E 0 90 62 60
        E 120 80 1f 00
        E 0 80 56 00
        E 0 80 62 00
        E 120 90 1a 60
        E 0 90 1f 60
        E 0 90 3d 60
        E 0 90 3e 60
        E 0 90 49 60
        E 0 90 4a 60
        E 0 90 55 60
        E 0 90 56 60
        E 0 90 61 60
        E 0 90 62 60
        E 120 80 1a 00
        E 0 80 1f 00
        E 0 80 3d 00
        E 0 80 3e 00
        E 0 80 49 00
        E 0 80 4a 00
        E 0 80 55 00
        E 0 80 56 00
        E 0 80 61 00
        E 0 80 62 00
        E 120 90 1f 60
        E 0 90 56 60
        E 0 90 62 60
        E 120 80 1f 00
        E 0 80 56 00
        E 0 80 62 00
        E 120 90 18 60
        E 0 90 1f 60
        E 0 90 3e 60
        E 0 90 48 60
        E 0 90 4a 60
        E 0 90 54 60
        E 0 90 56 60
        E 0 90 60 60
        E 0 90 62 60
        E 0 90 74 60
        E 120 80 18 00
        E 0 80 1f 00
        E 0 80 3e 00
        E 0 80 48 00
        E 0 80 4a 00
        E 0 80 54 00
        E 0 80 56 00
        E 0 80 60 00
        E 0 80 62 00
        E 120 90 1f 60
        E 0 90 56 60
        E 0 90 62 60
        E 120 80 1f 00
        E 0 80 56 00
        E 0 80 62 00
        E 120 90 1a 60
        E 0 90 1f 60
        E 0 90 3d 60
        E 0 90 3e 60
        E 0 90 49 60
        E 0 90 4a 60
        E 0 90 55 60
        E 0 90 56 60
        E 0 90 61 60
        E 0 90 62 60
        E 120 80 1a 00
        E 0 80 1f 00
        E 0 80 3d 00
        E 0 80 3e 00
        E 0 80 49 00
        E 0 80 4a 00
        E 0 80 55 00
        E 0 80 56 00
        E 0 80 61 00
        E 0 80 62 00
        E 120 90 18 60
        E 0 90 1f 60
        E 0 90 54 60
        E 0 90 56 60
        E 0 90 60 60
        E 0 90 62 60
        E 120 80 18 00
        E 0 80 1f 00
        E 0 80 54 00
        E 0 80 56 00
        E 0 80 60 00
        E 0 80 62 00
        E 120 90 18 60
        E 0 90 1f 60
        E 0 90 3e 60
        E 0 90 48 60
        E 0 90 4a 60
        E 0 90 54 60
        E 0 90 56 60
        E 0 90 60 60
        E 0 90 62 60
        E 120 80 18 00
        E 0 80 1f 00
        E 0 80 3e 00
        E 0 80 48 00
        E 0 80 4a 00
        E 0 80 54 00
        E 0 80 56 00
        E 0 80 60 00
        E 0 80 62 00
        E 120 90 1f 60
        E 0 90 56 60
        E 0 90 62 60
        E 120 80 1f 00
        E 0 80 56 00
        E 0 80 62 00
        E 120 90 1a 60
        E 0 90 1f 60
        E 0 90 3d 60
        E 0 90 3e 60
        E 0 90 49 60
        E 0 90 4a 60
        E 0 90 55 60
        E 0 90 56 60
        E 0 90 61 60
        E 0 90 62 60
        E 120 80 1a 00
        E 0 80 1f 00
        E 0 80 3d 00
        E 0 80 3e 00
        E 0 80 49 00
        E 0 80 4a 00
        E 0 80 55 00
        E 0 80 56 00
        E 0 80 61 00
        E 0 80 62 00
        E 120 90 19 60
        E 0 90 1f 60
        E 0 90 57 60
        E 0 90 63 60
        E 120 80 1f 00
        E 0 80 57 00
        E 0 80 63 00
        E 120 80 74 00
        E 0 90 18 60
        E 0 90 1f 60
        E 0 90 3f 60
        E 0 90 48 60
        E 0 90 4b 60
        E 0 90 54 60
        E 0 90 57 60
        E 0 90 60 60
        E 0 90 63 60
        E 120 80 18 00
        E 0 80 1f 00
        E 0 80 3f 00
        E 0 80 48 00
        E 0 80 4b 00
        E 0 80 54 00
        E 0 80 57 00
        E 0 80 60 00
        E 0 80 63 00
        E 120 80 19 00
        E 0 90 1f 60
        E 0 90 56 60
        E 0 90 62 60
        E 120 80 1f 00
        E 0 80 56 00
        E 0 80 62 00
        E 120 90 1a 60
        E 0 90 1f 60
        E 0 90 3d 60
        E 0 90 3e 60
        E 0 90 49 60
        E 0 90 4a 60
        E 0 90 55 60
        E 0 90 56 60
        E 0 90 61 60
        E 0 90 62 60
        E 120 80 1a 00
        E 0 80 1f 00
        E 0 80 3d 00
        E 0 80 3e 00
        E 0 80 49 00
        E 0 80 4a 00
        E 0 80 55 00
        E 0 80 56 00
        E 0 80 61 00
        E 0 80 62 00
        E 120 90 18 60
        E 0 90 1f 60
        E 0 90 54 60
        E 0 90 56 60
        E 0 90 60 60
        E 0 90 62 60
        E 120 80 18 00
        E 0 80 1f 00
        E 0 80 54 00
        E 0 80 56 00
        E 0 80 60 00
        E 0 80 62 00
        E 120 90 18 60
        E 0 90 1f 60
        E 0 90 3e 60
        E 0 90 48 60
        E 0 90 4a 60
        E 0 90 54 60
        E 0 90 56 60
        E 0 90 60 60
        E 0 90 62 60
        E 120 80 18 00
        E 0 80 1f 00
        E 0 80 3e 00
        E 0 80 48 00
        E 0 80 4a 00
        E 0 80 54 00
        E 0 80 56 00
        E 0 80 60 00
        E 0 80 62 00
        E 120 90 1f 60
        E 0 90 56 60
        E 0 90 62 60
        E 120 80 1f 00
        E 0 80 56 00
        E 0 80 62 00
        E 120 90 1a 60
        E 0 90 1f 60
        E 0 90 3d 60
        E 0 90 3e 60
        E 0 90 49 60
        E 0 90 4a 60
        E 0 90 55 60
        E 0 90 56 60
        E 0 90 61 60
        E 0 90 62 60
        E 120 80 1a 00
        E 0 80 1f 00
        E 0 80 3d 00
        E 0 80 3e 00
        E 0 80 49 00
        E 0 80 4a 00
        E 0 80 55 00
        E 0 80 56 00
        E 0 80 61 00
        E 0 80 62 00
        E 120 90 1f 60
        E 0 90 56 60
        E 0 90 62 60
        E 120 80 1f 00
        E 0 80 56 00
        E 0 80 62 00
        E 120 90 18 60
        E 0 90 1f 60
        E 0 90 3e 60
        E 0 90 48 60
        E 0 90 4a 60
        E 0 90 54 60
        E 0 90 56 60
        E 0 90 60 60
        E 0 90 62 60
        E 120 80 18 00
        E 0 80 1f 00
        E 0 80 3e 00
        E 0 80 48 00
        E 0 80 4a 00
        E 0 80 54 00
        E 0 80 56 00
        E 0 80 60 00
        E 0 80 62 00
        E 120 90 1f 60
        E 0 90 56 60
        E 0 90 62 60
        E 120 80 1f 00
        E 0 80 56 00
        E 0 80 62 00
        E 120 90 1a 60
        E 0 90 1f 60
        E 0 90 3d 60
        E 0 90 3e 60
        E 0 90 49 60
        E 0 90 4a 60
        E 0 90 55 60
        E 0 90 56 60
        E 0 90 61 60
        E 0 90 62 60
        E 120 80 1a 00
        E 0 80 1f 00
        E 0 80 3d 00
        E 0 80 3e 00
        E 0 80 49 00
        E 0 80 4a 00
        E 0 80 55 00
        E 0 80 56 00
        E 0 80 61 00
        E 0 80 62 00
        E 120 90 18 60
        E 0 90 1f 60
        E 0 90 54 60
        E 0 90 56 60
        E 0 90 60 60
        E 0 90 62 60
        E 120 80 18 00
        E 0 80 1f 00
        E 0 80 54 00
        E 0 80 56 00
        E 0 80 60 00
        E 0 80 62 00
        E 120 90 18 60
        E 0 90 1f 60
        E 0 90 3e 60
        E 0 90 48 60
        E 0 90 4a 60
        E 0 90 54 60
        E 0 90 56 60
        E 0 90 60 60
        E 0 90 62 60
        E 120 80 18 00
        E 0 80 1f 00
        E 0 80 3e 00
        E 0 80 48 00
        E 0 80 4a 00
        E 0 80 54 00
        E 0 80 56 00
        E 0 80 60 00
        E 0 80 62 00
        E 120 90 1f 60
        E 0 90 56 60
        E 0 90 62 60
        E 120 80 1f 00
        E 0 80 56 00
        E 0 80 62 00
        E 120 90 1a 60
        E 0 90 1f 60
        E 0 90 3d 60
        E 0 90 3e 60
        E 0 90 49 60
        E 0 90 4a 60
        E 0 90 55 60
        E 0 90 56 60
        E 0 90 61 60
        E 0 90 62 60
        E 120 80 1a 00
        E 0 80 1f 00
        E 0 80 3d 00
        E 0 80 3e 00
        E 0 80 49 00
        E 0 80 4a 00
        E 0 80 55 00
        E 0 80 56 00
        E 0 80 61 00
        E 0 80 62 00
        E 120 90 1f 60
        E 0 90 56 60
        E 0 90 62 60
        E 120 80 1f 00
        E 0 80 56 00
        E 0 80 62 00
        E 120 90 18 60
        E 0 90 1f 60
        E 0 90 3e 60
        E 0 90 48 60
        E 0 90 4a 60
        E 0 90 54 60
        E 0 90 56 60
        E 0 90 60 60
        E 0 90 62 60
        E 120 80 18 00
        E 0 80 1f 00
        E 0 80 3e 00
        E 0 80 48 00
        E 0 80 4a 00
        E 0 80 54 00
        E 0 80 56 00
        E 0 80 60 00
        E 0 80 62 00
        E 120 90 1f 60
        E 0 90 56 60
        E 0 90 62 60
        E 120 80 1f 00
        E 0 80 56 00
        E 0 80 62 00
        E 120 90 1a 60
        E 0 90 1f 60
        E 0 90 3d 60
        E 0 90 3e 60
        E 0 90 49 60
        E 0 90 4a 60
        E 0 90 55 60
        E 0 90 56 60
        E 0 90 61 60
        E 0 90 62 60
        E 120 80 1a 00
        E 0 80 1f 00
        E 0 80 3d 00
        E 0 80 3e 00
        E 0 80 49 00
        E 0 80 4a 00
        E 0 80 55 00
        E 0 80 56 00
        E 0 80 61 00
        E 0 80 62 00
        E 120 90 18 60
        E 0 90 1f 60
        E 0 90 54 60
        E 0 90 56 60
        E 0 90 60 60
        E 0 90 62 60
        E 120 80 18 00
        E 0 80 1f 00
        E 0 80 54 00
        E 0 80 56 00
        E 0 80 60 00
        E 0 80 62 00
        E 120 90 18 60
        E 0 90 1f 60
        E 0 90 3e 60
        E 0 90 48 60
        E 0 90 4a 60
        E 0 90 54 60
        E 0 90 56 60
        E 0 90 60 60
        E 0 90 62 60
        E 120 80 18 00
        E 0 80 1f 00
        E 0 80 3e 00
        E 0 80 48 00
        E 0 80 4a 00
        E 0 80 54 00
        E 0 80 56 00
        E 0 80 60 00
        E 0 80 62 00
        E 120 90 1f 60
        E 0 90 56 60
        E 0 90 62 60
        E 120 80 1f 00
        E 0 80 56 00
        E 0 80 62 00
        E 120 90 1a 60
        E 0 90 1f 60
        E 0 90 3d 60
        E 0 90 3e 60
        E 0 90 49 60
        E 0 90 4a 60
        E 0 90 55 60
        E 0 90 56 60
        E 0 90 61 60
        E 0 90 62 60
        E 120 80 1a 00
        E 0 80 1f 00
        E 0 80 3d 00
        E 0 80 3e 00
        E 0 80 49 00
        E 0 80 4a 00
        E 0 80 55 00
        E 0 80 56 00
        E 0 80 61 00
        E 0 80 62 00
        E 120 90 1f 60
        E 0 90 56 60
        E 0 90 62 60
        E 120 80 1f 00
        E 0 80 56 00
        E 0 80 62 00
        E 120 90 18 60
        E 0 90 1f 60
        E 0 90 3e 60
        E 0 90 48 60
        E 0 90 4a 60
        E 0 90 54 60
        E 0 90 56 60
        E 0 90 60 60
        E 0 90 62 60
        E 120 80 18 00
        E 0 80 1f 00
        E 0 80 3e 00
        E 0 80 48 00
        E 0 80 4a 00
        E 0 80 54 00
        E 0 80 56 00
        E 0 80 60 00
        E 0 80 62 00
        <X 360 0
          /wFbbWVsbG93XQ==
        >
        E 1440 90 78 60
        E 0 90 79 60
        E 0 90 7a 60
        E 0 90 7b 60
        E 0 90 7c 60
        E 1920 80 78 00
        E 0 80 79 00
        E 0 80 7a 00
        E 0 80 7b 00
        E 0 80 7c 00
        E 0 90 18 60
        E 0 90 2a 60
        E 0 90 3f 60
        E 0 90 48 60
        E 0 90 4b 60
        E 0 90 54 60
        E 0 90 57 60
        E 0 90 60 60
        E 0 90 63 60
        E 120 80 18 00
        E 0 80 2a 00
        E 0 80 3f 00
        E 0 80 48 00
        E 0 80 4b 00
        E 0 80 54 00
        E 0 80 57 00
        E 0 80 60 00
        E 0 80 63 00
        E 1800 90 18 60
        E 0 90 3c 60
        E 0 90 48 60
        E 0 90 54 60
        E 0 90 60 60
        E 120 80 18 00
        E 0 80 3c 00
        E 0 80 48 00
        E 0 80 54 00
        E 0 80 60 00
        E 1800 90 18 60
        E 0 90 3c 60
        E 0 90 48 60
        E 0 90 54 60
        E 0 90 60 60
        E 120 80 18 00
        E 0 80 3c 00
        E 0 80 48 00
        E 0 80 54 00
        E 0 80 60 00
        E 1800 90 18 60
        E 0 90 3c 60
        E 0 90 48 60
        E 0 90 54 60
        E 0 90 60 60
        E 0 90 78 60
        E 0 90 79 60
        E 0 90 7a 60
        E 0 90 7b 60
        E 0 90 7c 60
        E 120 80 18 00
        E 0 80 3c 00
        E 0 80 48 00
        E 0 80 54 00
        E 0 80 60 00
        E 1800 80 78 00
        E 0 80 79 00
        E 0 80 7a 00
        E 0 80 7b 00
        E 0 80 7c 00
        E 0 90 18 60
        E 0 90 3c 60
        E 0 90 48 60
        E 0 90 54 60
        E 0 90 60 60
        E 0 90 74 60
        E 120 80 18 00
        E 0 80 3c 00
        E 0 80 48 00
        E 0 80 54 00
        E 0 80 60 00
        E 1800 90 18 60
        E 0 90 3c 60
        E 0 90 48 60
        E 0 90 54 60
        E 0 90 60 60
        E 120 80 18 00
        E 0 80 3c 00
        E 0 80 48 00
        E 0 80 54 00
        E 0 80 60 00
        E 120 80 74 00
        E 1680 90 18 60
        E 0 90 3c 60
        E 0 90 48 60
        E 0 90 54 60
        E 0 90 60 60
        E 120 80 18 00
        E 0 80 3c 00
        E 0 80 48 00
        E 0 80 54 00
        E 0 80 60 00
        E 1800 90 18 60
        E 0 90 3c 60
        E 0 90 48 60
        E 0 90 54 60
        E 0 90 60 60
        E 0 90 78 60
        E 0 90 79 60
        E 0 90 7a 60
        E 0 90 7b 60
        E 0 90 7c 60
        E 120 80 18 00
        E 0 80 3c 00
        E 0 80 48 00
        E 0 80 54 00
        E 0 80 60 00
        E 1800 80 78 00
        E 0 80 79 00
        E 0 80 7a 00
        E 0 80 7b 00
        E 0 80 7c 00
        E 0 90 18 60
        E 0 90 2a 60
        E 0 90 3f 60
        E 0 90 48 60
        E 0 90 4b 60
        E 0 90 54 60
        E 0 90 57 60
        E 0 90 60 60
        E 0 90 63 60
        E 120 80 18 00
        E 0 80 2a 00
        E 0 80 3f 00
        E 0 80 48 00
        E 0 80 4b 00
        E 0 80 54 00
        E 0 80 57 00
        E 0 80 60 00
        E 0 80 63 00
        E 360 90 1a 60
        E 0 90 3d 60
        E 0 90 49 60
        E 0 90 55 60
        E 0 90 61 60
        E 120 80 1a 00
        E 0 80 3d 00
        E 0 80 49 00
        E 0 80 55 00
        E 0 80 61 00
        E 360 90 18 60
        E 0 90 3c 60
        E 0 90 48 60
        E 0 90 54 60
        E 0 90 60 60
        E 120 80 18 00
        E 0 80 3c 00
        E 0 80 48 00
        E 0 80 54 00
        E 0 80 60 00
        E 360 90 1a 60
        E 0 90 3d 60
        E 0 90 49 60
        E 0 90 55 60
        E 0 90 61 60
        E 120 80 1a 00
        E 0 80 3d 00
        E 0 80 49 00
        E 0 80 55 00
        E 0 80 61 00
        E 360 90 18 60
        E 0 90 3c 60
        E 0 90 48 60
        E 0 90 54 60
        E 0 90 60 60
        E 120 80 18 00
        E 0 80 3c 00
        E 0 80 48 00
        E 0 80 54 00
        E 0 80 60 00
        E 360 90 1a 60
        E 0 90 3d 60
        E 0 90 49 60
        E 0 90 55 60
        E 0 90 61 60
        E 120 80 1a 00
        E 0 80 3d 00
        E 0 80 49 00
        E 0 80 55 00
        E 0 80 61 00
        E 360 90 18 60
        E 0 90 3c 60
        E 0 90 48 60
        E 0 90 54 60
        E 0 90 60 60
        E 120 80 18 00
        E 0 80 3c 00
        E 0 80 48 00
        E 0 80 54 00
        E 0 80 60 00
        E 360 90 1a 60
        E 0 90 3d 60
        E 0 90 49 60
        E 0 90 55 60
        E 0 90 61 60
        E 120 80 1a 00
        E 0 80 3d 00
        E 0 80 49 00
        E 0 80 55 00
        E 0 80 61 00
        E 360 90 18 60
        E 0 90 2a 60
        E 0 90 3f 60
        E 0 90 48 60
        E 0 90 4b 60
        E 0 90 54 60
        E 0 90 57 60
        E 0 90 60 60
        E 0 90 63 60
        E 120 80 18 00
        E 0 80 2a 00
        E 0 80 3f 00
        E 0 80 48 00
        E 0 80 4b 00
        E 0 80 54 00
        E 0 80 57 00
        E 0 80 60 00
        E 0 80 63 00
        E 360 90 1a 60
        E 0 90 3d 60
        E 0 90 49 60
        E 0 90 55 60
        E 0 90 61 60
        E 120 80 1a 00
        E 0 80 3d 00
        E 0 80 49 00
        E 0 80 55 00
        E 0 80 61 00
        E 360 90 18 60
        E 0 90 3c 60
        E 0 90 48 60
        E 0 90 54 60
        E 0 90 60 60
        E 120 80 18 00
        E 0 80 3c 00
        E 0 80 48 00
        E 0 80 54 00
        E 0 80 60 00
        E 360 90 1a 60
        E 0 90 3d 60
        E 0 90 49 60
        E 0 90 55 60
        E 0 90 61 60
        E 120 80 1a 00
        E 0 80 3d 00
        E 0 80 49 00
        E 0 80 55 00
        E 0 80 61 00
        E 360 90 18 60
        E 0 90 3c 60
        E 0 90 48 60
        E 0 90 54 60
        E 0 90 60 60
        E 0 90 78 60
        E 0 90 79 60
        E 0 90 7a 60
        E 0 90 7b 60
        E 0 90 7c 60
        E 120 80 18 00
        E 0 80 3c 00
        E 0 80 48 00
        E 0 80 54 00
        E 0 80 60 00
        E 360 90 1a 60
        E 0 90 3d 60
        E 0 90 49 60
        E 0 90 55 60
        E 0 90 61 60
        E 120 80 1a 00
        E 0 80 3d 00
        E 0 80 49 00
        E 0 80 55 00
        E 0 80 61 00
        E 360 90 18 60
        E 0 90 3c 60
        E 0 90 48 60
        E 0 90 54 60
        E 0 90 60 60
        E 120 80 18 00
        E 0 80 3c 00
        E 0 80 48 00
        E 0 80 54 00
        E 0 80 60 00
        E 360 90 1a 60
        E 0 90 3d 60
        E 0 90 49 60
        E 0 90 55 60
        E 0 90 61 60
        E 120 80 1a 00
        E 0 80 3d 00
        E 0 80 49 00
        E 0 80 55 00
        E 0 80 61 00
        E 360 80 78 00
        E 0 80 79 00
        E 0 80 7a 00
        E 0 80 7b 00
        E 0 80 7c 00
        E 0 90 18 60
        E 0 90 2a 60
        E 0 90 3f 60
        E 0 90 48 60
        E 0 90 4b 60
        E 0 90 54 60
        E 0 90 57 60
        E 0 90 60 60
        E 0 90 63 60
        E 120 80 18 00
        E 0 80 2a 00
        E 0 80 3f 00
        E 0 80 48 00
        E 0 80 4b 00
        E 0 80 54 00
        E 0 80 57 00
        E 0 80 60 00
        E 0 80 63 00
        E 360 90 1a 60
        E 0 90 3d 60
        E 0 90 49 60
        E 0 90 55 60
        E 0 90 61 60
        E 120 80 1a 00
        E 0 80 3d 00
        E 0 80 49 00
        E 0 80 55 00
        E 0 80 61 00
        E 360 90 18 60
        E 0 90 3c 60
        E 0 90 48 60
        E 0 90 54 60
        E 0 90 60 60
        E 120 80 18 00
        E 0 80 3c 00
        E 0 80 48 00
        E 0 80 54 00
        E 0 80 60 00
        E 360 90 1a 60
        E 0 90 3d 60
        E 0 90 49 60
        E 0 90 55 60
        E 0 90 61 60
        E 120 80 1a 00
        E 0 80 3d 00
        E 0 80 49 00
        E 0 80 55 00
        E 0 80 61 00
        E 360 90 18 60
        E 0 90 3c 60
        E 0 90 48 60
        E 0 90 54 60
        E 0 90 60 60
        E 120 80 18 00
        E 0 80 3c 00
        E 0 80 48 00
        E 0 80 54 00
        E 0 80 60 00
        E 360 90 1a 60
        E 0 90 3d 60
        E 0 90 49 60
        E 0 90 55 60
        E 0 90 61 60
        E 120 80 1a 00
        E 0 80 3d 00
        E 0 80 49 00
        E 0 80 55 00
        E 0 80 61 00
        E 360 90 18 60
        E 0 90 3c 60
        E 0 90 48 60
        E 0 90 54 60
        E 0 90 60 60
        E 120 80 18 00
        E 0 80 3c 00
        E 0 80 48 00
        E 0 80 54 00
        E 0 80 60 00
        E 360 90 1a 60
        E 0 90 3d 60
        E 0 90 49 60
        E 0 90 55 60
        E 0 90 61 60
        E 120 80 1a 00
        E 0 80 3d 00
        E 0 80 49 00
        E 0 80 55 00
        E 0 80 61 00
        E 360 90 18 60
        E 0 90 2a 60
        E 0 90 3f 60
        E 0 90 48 60
        E 0 90 4b 60
        E 0 90 54 60
        E 0 90 57 60
        E 0 90 60 60
        E 0 90 63 60
        E 120 80 18 00
        E 0 80 2a 00
        E 0 80 3f 00
        E 0 80 48 00
        E 0 80 4b 00
        E 0 80 54 00
        E 0 80 57 00
        E 0 80 60 00
        E 0 80 63 00
        E 1800 90 78 60
        E 0 90 79 60
        E 0 90 7a 60
        E 0 90 7b 60
        E 0 90 7c 60
        <X 1920 0
          /wFbcGxheV0=
        >
        E 0 80 78 00
        E 0 80 79 00
        E 0 80 7a 00
        E 0 80 7b 00
        E 0 80 7c 00
        E 0 90 18 60
        E 0 90 26 60
        E 0 90 40 60
        E 0 90 48 60
        E 0 90 4c 60
        E 0 90 54 60
        E 0 90 58 60
        E 0 90 60 60
        E 0 90 64 60
        E 120 80 18 00
        E 0 80 26 00
        E 0 80 40 00
        E 0 80 48 00
        E 0 80 4c 00
        E 0 80 54 00
        E 0 80 58 00
        E 0 80 60 00
        E 0 80 64 00
        E 120 90 1f 60
        E 0 90 56 60
        E 0 90 62 60
        E 120 80 1f 00
        E 0 80 56 00
        E 0 80 62 00
        E 120 90 1a 60
        E 0 90 1f 60
        E 0 90 3d 60
        E 0 90 3e 60
        E 0 90 49 60
        E 0 90 4a 60
        E 0 90 55 60
        E 0 90 56 60
        E 0 90 61 60
        E 0 90 62 60
        E 120 80 1a 00
        E 0 80 1f 00
        E 0 80 3d 00
        E 0 80 3e 00
        E 0 80 49 00
        E 0 80 4a 00
        E 0 80 55 00
        E 0 80 56 00
        E 0 80 61 00
        E 0 80 62 00
        E 120 90 18 60
        E 0 90 1f 60
        E 0 90 54 60
        E 0 90 56 60
        E 0 90 60 60
        E 0 90 62 60
        E 120 80 18 00
        E 0 80 1f 00
        E 0 80 54 00
        E 0 80 56 00
        E 0 80 60 00
        E 0 80 62 00
        E 120 90 18 60
        E 0 90 1f 60
        E 0 90 3e 60
        E 0 90 48 60
        E 0 90 4a 60
        E 0 90 54 60
        E 0 90 56 60
        E 0 90 60 60
        E 0 90 62 60
        E 120 80 18 00
        E 0 80 1f 00
        E 0 80 3e 00
        E 0 80 48 00
        E 0 80 4a 00
        E 0 80 54 00
        E 0 80 56 00
        E 0 80 60 00
        E 0 80 62 00
        E 120 90 1f 60
        E 0 90 56 60
        E 0 90 62 60
        E 120 80 1f 00
        E 0 80 56 00
        E 0 80 62 00
        E 120 90 1a 60
        E 0 90 1f 60
        E 0 90 3d 60
        E 0 90 3e 60
        E 0 90 49 60
        E 0 90 4a 60
        E 0 90 55 60
        E 0 90 56 60
        E 0 90 61 60
        E 0 90 62 60
        E 120 80 1a 00
        E 0 80 1f 00
        E 0 80 3d 00
        E 0 80 3e 00
        E 0 80 49 00
        E 0 80 4a 00
        E 0 80 55 00
        E 0 80 56 00
        E 0 80 61 00
        E 0 80 62 00
        E 120 90 1f 60
        E 0 90 56 60
        E 0 90 62 60
        E 120 80 1f 00
        E 0 80 56 00
        E 0 80 62 00
        E 120 90 18 60
        E 0 90 1f 60
        E 0 90 3e 60
        E 0 90 48 60
        E 0 90 4a 60
        E 0 90 54 60
        E 0 90 56 60
        E 0 90 60 60
        E 0 90 62 60
        E 120 80 18 00
        E 0 80 1f 00
        E 0 80 3e 00
        E 0 80 48 00
        E 0 80 4a 00
        E 0 80 54 00
        E 0 80 56 00
        E 0 80 60 00
        E 0 80 62 00
        E 120 90 1f 60
        E 0 90 56 60
        E 0 90 62 60
        E 120 80 1f 00
        E 0 80 56 00
        E 0 80 62 00
        E 120 90 1a 60
        E 0 90 1f 60
        E 0 90 3d 60
        E 0 90 3e 60
        E 0 90 49 60
        E 0 90 4a 60
        E 0 90 55 60
        E 0 90 56 60
        E 0 90 61 60
        E 0 90 62 60
        E 120 80 1a 00
        E 0 80 1f 00
        E 0 80 3d 00
        E 0 80 3e 00
        E 0 80 49 00
        E 0 80 4a 00
        E 0 80 55 00
        E 0 80 56 00
        E 0 80 61 00
        E 0 80 62 00
        E 120 90 18 60
        E 0 90 1f 60
        E 0 90 54 60
        E 0 90 56 60
        E 0 90 60 60
        E 0 90 62 60
        E 120 80 18 00
        E 0 80 1f 00
        E 0 80 54 00
        E 0 80 56 00
        E 0 80 60 00
        E 0 80 62 00
        E 120 90 18 60
        E 0 90 1f 60
        E 0 90 3e 60
        E 0 90 48 60
        E 0 90 4a 60
        E 0 90 54 60
        E 0 90 56 60
        E 0 90 60 60
        E 0 90 62 60
        E 120 80 18 00
        E 0 80 1f 00
        E 0 80 3e 00
        E 0 80 48 00
        E 0 80 4a 00
        E 0 80 54 00
        E 0 80 56 00
        E 0 80 60 00
        E 0 80 62 00
        E 120 90 1f 60
        E 0 90 56 60
        E 0 90 62 60
        E 120 80 1f 00
        E 0 80 56 00
        E 0 80 62 00
        E 120 90 1a 60
        E 0 90 1f 60
        E 0 90 3d 60
        E 0 90 3e 60
        E 0 90 49 60
        E 0 90 4a 60
        E 0 90 55 60
        E 0 90 56 60
        E 0 90 61 60
        E 0 90 62 60
        E 120 80 1a 00
        E 0 80 1f 00
        E 0 80 3d 00
        E 0 80 3e 00
        E 0 80 49 00
        E 0 80 4a 00
        E 0 80 55 00
        E 0 80 56 00
        E 0 80 61 00
        E 0 80 62 00
        E 120 90 1f 60
        E 0 90 56 60
        E 0 90 62 60
        E 120 80 1f 00
        E 0 80 56 00
        E 0 80 62 00
        E 120 90 18 60
        E 0 90 1f 60
        E 0 90 3e 60
        E 0 90 48 60
        E 0 90 4a 60
        E 0 90 54 60
        E 0 90 56 60
        E 0 90 60 60
        E 0 90 62 60
        E 120 80 18 00
        E 0 80 1f 00
        E 0 80 3e 00
        E 0 80 48 00
        E 0 80 4a 00
        E 0 80 54 00
        E 0 80 56 00
        E 0 80 60 00
        E 0 80 62 00
        E 120 90 1f 60
        E 0 90 56 60
        E 0 90 62 60
        E 120 80 1f 00
        E 0 80 56 00
        E 0 80 62 00
        E 120 90 1a 60
        E 0 90 1f 60
        E 0 90 3d 60
        E 0 90 3e 60
        E 0 90 49 60
        E 0 90 4a 60
        E 0 90 55 60
        E 0 90 56 60
        E 0 90 61 60
        E 0 90 62 60
        E 120 80 1a 00
        E 0 80 1f 00
        E 0 80 3d 00
        E 0 80 3e 00
        E 0 80 49 00
        E 0 80 4a 00
        E 0 80 55 00
        E 0 80 56 00
        E 0 80 61 00
        E 0 80 62 00
        E 120 90 18 60
        E 0 90 1f 60
        E 0 90 54 60
        E 0 90 56 60
        E 0 90 60 60
        E 0 90 62 60
        E 120 80 18 00
        E 0 80 1f 00
        E 0 80 54 00
        E 0 80 56 00
        E 0 80 60 00
        E 0 80 62 00
        E 120 90 18 60
        E 0 90 1f 60
        E 0 90 3e 60
        E 0 90 48 60
        E 0 90 4a 60
        E 0 90 54 60
        E 0 90 56 60
        E 0 90 60 60
        E 0 90 62 60
        E 120 80 18 00
        E 0 80 1f 00
        E 0 80 3e 00
        E 0 80 48 00
        E 0 80 4a 00
        E 0 80 54 00
        E 0 80 56 00
        E 0 80 60 00
        E 0 80 62 00
        E 120 90 1f 60
        E 0 90 56 60
        E 0 90 62 60
        E 120 80 1f 00
        E 0 80 56 00
        E 0 80 62 00
        E 120 90 1a 60
        E 0 90 1f 60
        E 0 90 3d 60
        E 0 90 3e 60
        E 0 90 49 60
        E 0 90 4a 60
        E 0 90 55 60
        E 0 90 56 60
        E 0 90 61 60
        E 0 90 62 60
        E 120 80 1a 00
        E 0 80 1f 00
        E 0 80 3d 00
        E 0 80 3e 00
        E 0 80 49 00
        E 0 80 4a 00
        E 0 80 55 00
        E 0 80 56 00
        E 0 80 61 00
        E 0 80 62 00
        E 120 90 1f 60
        E 0 90 56 60
        E 0 90 62 60
        E 120 80 1f 00
        E 0 80 56 00
        E 0 80 62 00
        E 120 90 18 60
        E 0 90 1f 60
        E 0 90 3e 60
        E 0 90 48 60
        E 0 90 4a 60
        E 0 90 54 60
        E 0 90 56 60
        E 0 90 60 60
        E 0 90 62 60
        E 120 80 18 00
        E 0 80 1f 00
        E 0 80 3e 00
        E 0 80 48 00
        E 0 80 4a 00
        E 0 80 54 00
        E 0 80 56 00
        E 0 80 60 00
        E 0 80 62 00
        E 120 90 1f 60
        E 0 90 56 60
        E 0 90 62 60
        E 120 80 1f 00
        E 0 80 56 00
        E 0 80 62 00
        E 120 90 1a 60
        E 0 90 1f 60
        E 0 90 3d 60
        E 0 90 3e 60
        E 0 90 49 60
        E 0 90 4a 60
        E 0 90 55 60
        E 0 90 56 60
        E 0 90 61 60
        E 0 90 62 60
        E 120 80 1a 00
        E 0 80 1f 00
        E 0 80 3d 00
        E 0 80 3e 00
        E 0 80 49 00
        E 0 80 4a 00
        E 0 80 55 00
        E 0 80 56 00
        E 0 80 61 00
        E 0 80 62 00
        E 120 90 18 60
        E 0 90 1f 60
        E 0 90 54 60
        E 0 90 56 60
        E 0 90 60 60
        E 0 90 62 60
        E 120 80 18 00
        E 0 80 1f 00
        E 0 80 54 00
        E 0 80 56 00
        E 0 80 60 00
        E 0 80 62 00
        E 120 90 18 60
        E 0 90 1f 60
        E 0 90 3e 60
        E 0 90 48 60
        E 0 90 4a 60
        E 0 90 54 60
        E 0 90 56 60
        E 0 90 60 60
        E 0 90 62 60
        E 120 80 18 00
        E 0 80 1f 00
        E 0 80 3e 00
        E 0 80 48 00
        E 0 80 4a 00
        E 0 80 54 00
        E 0 80 56 00
        E 0 80 60 00
        E 0 80 62 00
        E 120 90 1f 60
        E 0 90 56 60
        E 0 90 62 60
        E 120 80 1f 00
        E 0 80 56 00
        E 0 80 62 00
        E 120 90 1a 60
        E 0 90 1f 60
        E 0 90 3d 60
        E 0 90 3e 60
        E 0 90 49 60
        E 0 90 4a 60
        E 0 90 55 60
        E 0 90 56 60
        E 0 90 61 60
        E 0 90 62 60
        E 120 80 1a 00
        E 0 80 1f 00
        E 0 80 3d 00
        E 0 80 3e 00
        E 0 80 49 00
        E 0 80 4a 00
        E 0 80 55 00
        E 0 80 56 00
        E 0 80 61 00
        E 0 80 62 00
        E 120 90 19 60
        E 0 90 1f 60
        E 0 90 57 60
        E 0 90 63 60
        E 120 80 1f 00
        E 0 80 57 00
        E 0 80 63 00
        E 120 80 19 00
        E 0 90 18 60
        E 0 90 1f 60
        E 0 90 3e 60
        E 0 90 48 60
        E 0 90 4a 60
        E 0 90 54 60
        E 0 90 56 60
        E 0 90 60 60
        E 0 90 62 60
        E 120 80 18 00
        E 0 80 1f 00
        E 0 80 3e 00
        E 0 80 48 00
        E 0 80 4a 00
        E 0 80 54 00
        E 0 80 56 00
        E 0 80 60 00
        E 0 80 62 00
        E 120 90 1f 60
        E 0 90 56 60
        E 0 90 62 60
        E 120 80 1f 00
        E 0 80 56 00
        E 0 80 62 00
        E 120 90 1a 60
        E 0 90 1f 60
        E 0 90 3d 60
        E 0 90 3e 60
        E 0 90 49 60
        E 0 90 4a 60
        E 0 90 55 60
        E 0 90 56 60
        E 0 90 61 60
        E 0 90 62 60
        E 120 80 1a 00
        E 0 80 1f 00
        E 0 80 3d 00
        E 0 80 3e 00
        E 0 80 49 00
        E 0 80 4a 00
        E 0 80 55 00
        E 0 80 56 00
        E 0 80 61 00
        E 0 80 62 00
        E 120 90 18 60
        E 0 90 1f 60
        E 0 90 54 60
        E 0 90 56 60
        E 0 90 60 60
        E 0 90 62 60
        E 120 80 18 00
        E 0 80 1f 00
        E 0 80 54 00
        E 0 80 56 00
        E 0 80 60 00
        E 0 80 62 00
        E 120 90 18 60
        E 0 90 1f 60
        E 0 90 3e 60
        E 0 90 48 60
        E 0 90 4a 60
        E 0 90 54 60
        E 0 90 56 60
        E 0 90 60 60
        E 0 90 62 60
        E 120 80 18 00
        E 0 80 1f 00
        E 0 80 3e 00
        E 0 80 48 00
        E 0 80 4a 00
        E 0 80 54 00
        E 0 80 56 00
        E 0 80 60 00
        E 0 80 62 00
        E 120 90 1f 60
        E 0 90 56 60
        E 0 90 62 60
        E 120 80 1f 00
        E 0 80 56 00
        E 0 80 62 00
        E 120 90 1a 60
        E 0 90 1f 60
        E 0 90 3d 60
        E 0 90 3e 60
        E 0 90 49 60
        E 0 90 4a 60
        E 0 90 55 60
        E 0 90 56 60
        E 0 90 61 60
        E 0 90 62 60
        E 120 80 1a 00
        E 0 80 1f 00
        E 0 80 3d 00
        E 0 80 3e 00
        E 0 80 49 00
        E 0 80 4a 00
        E 0 80 55 00
        E 0 80 56 00
        E 0 80 61 00
        E 0 80 62 00
        E 120 90 1f 60
        E 0 90 56 60
        E 0 90 62 60
        E 120 80 1f 00
        E 0 80 56 00
        E 0 80 62 00
        E 120 90 18 60
        E 0 90 1f 60
        E 0 90 3e 60
        E 0 90 48 60
        E 0 90 4a 60
        E 0 90 54 60
        E 0 90 56 60
        E 0 90 60 60
        E 0 90 62 60
        E 120 80 18 00
        E 0 80 1f 00
        E 0 80 3e 00
        E 0 80 48 00
        E 0 80 4a 00
        E 0 80 54 00
        E 0 80 56 00
        E 0 80 60 00
        E 0 80 62 00
        E 120 90 1f 60
        E 0 90 56 60
        E 0 90 62 60
        E 120 80 1f 00
        E 0 80 56 00
        E 0 80 62 00
        E 120 90 1a 60
        E 0 90 1f 60
        E 0 90 3d 60
        E 0 90 3e 60
        E 0 90 49 60
        E 0 90 4a 60
        E 0 90 55 60
        E 0 90 56 60
        E 0 90 61 60
        E 0 90 62 60
        E 120 80 1a 00
        E 0 80 1f 00
        E 0 80 3d 00
        E 0 80 3e 00
        E 0 80 49 00
        E 0 80 4a 00
        E 0 80 55 00
        E 0 80 56 00
        E 0 80 61 00
        E 0 80 62 00
        E 120 90 18 60
        E 0 90 1f 60
        E 0 90 54 60
        E 0 90 56 60
        E 0 90 60 60
        E 0 90 62 60
        E 120 80 18 00
        E 0 80 1f 00
        E 0 80 54 00
        E 0 80 56 00
        E 0 80 60 00
        E 0 80 62 00
        E 120 90 18 60
        E 0 90 1f 60
        E 0 90 3e 60
        E 0 90 48 60
        E 0 90 4a 60
        E 0 90 54 60
        E 0 90 56 60
        E 0 90 60 60
        E 0 90 62 60
        E 120 80 18 00
        E 0 80 1f 00
        E 0 80 3e 00
        E 0 80 48 00
        E 0 80 4a 00
        E 0 80 54 00
        E 0 80 56 00
        E 0 80 60 00
        E 0 80 62 00
        E 120 90 1f 60
        E 0 90 56 60
        E 0 90 62 60
        E 120 80 1f 00
        E 0 80 56 00
        E 0 80 62 00
        E 120 90 1a 60
        E 0 90 1f 60
        E 0 90 3d 60
        E 0 90 3e 60
        E 0 90 49 60
        E 0 90 4a 60
        E 0 90 55 60
        E 0 90 56 60
        E 0 90 61 60
        E 0 90 62 60
        E 120 80 1a 00
        E 0 80 1f 00
        E 0 80 3d 00
        E 0 80 3e 00
        E 0 80 49 00
        E 0 80 4a 00
        E 0 80 55 00
        E 0 80 56 00
        E 0 80 61 00
        E 0 80 62 00
        E 120 90 1f 60
        E 0 90 56 60
        E 0 90 62 60
        E 120 80 1f 00
        E 0 80 56 00
        E 0 80 62 00
        E 120 90 18 60
        E 0 90 3c 60
        E 0 90 48 60
        E 0 90 54 60
        E 0 90 60 60
        E 120 80 18 00
        E 0 80 3c 00
        E 0 80 48 00
        E 0 80 54 00
        E 0 80 60 00
        E 1800 90 78 60
        E 0 90 79 60
        E 0 90 7a 60
        E 0 90 7b 60
        E 0 90 7c 60
        E 1680 90 19 60
        E 0 90 1f 60
        E 0 90 57 60
        E 0 90 63 60
        E 120 80 1f 00
        E 0 80 57 00
        E 0 80 63 00
        <X 120 0
          /wFbaW50ZW5zZV0=
        >
        E 0 80 78 00
        E 0 80 79 00
        E 0 80 7a 00
        E 0 80 7b 00
        E 0 80 7c 00
        E 0 80 19 00
        E 0 90 18 60
        E 0 90 1f 60
        E 0 90 3e 60
        E 0 90 48 60
        E 0 90 4a 60
        E 0 90 54 60
        E 0 90 56 60
        E 0 90 60 60
        E 0 90 62 60
        E 0 90 74 60
        E 120 80 18 00
        E 0 80 1f 00
        E 0 80 3e 00
        E 0 80 48 00
        E 0 80 4a 00
        E 0 80 54 00
        E 0 80 56 00
        E 0 80 60 00
        E 0 80 62 00
        E 120 90 1f 60
        E 0 90 56 60
        E 0 90 62 60
        E 120 80 1f 00
        E 0 80 56 00
        E 0 80 62 00
        E 120 90 1a 60
        E 0 90 1f 60
        E 0 90 3d 60
        E 0 90 3e 60
        E 0 90 49 60
        E 0 90 4a 60
        E 0 90 55 60
        E 0 90 56 60
        E 0 90 61 60
        E 0 90 62 60
        E 120 80 1a 00
        E 0 80 1f 00
        E 0 80 3d 00
        E 0 80 3e 00
        E 0 80 49 00
        E 0 80 4a 00
        E 0 80 55 00
        E 0 80 56 00
        E 0 80 61 00
        E 0 80 62 00
        E 120 90 18 60
        E 0 90 1f 60
        E 0 90 54 60
        E 0 90 56 60
        E 0 90 60 60
        E 0 90 62 60
        E 120 80 18 00
        E 0 80 1f 00
        E 0 80 54 00
        E 0 80 56 00
        E 0 80 60 00
        E 0 80 62 00
        E 120 90 18 60
        E 0 90 1f 60
        E 0 90 3e 60
        E 0 90 48 60
        E 0 90 4a 60
        E 0 90 54 60
        E 0 90 56 60
        E 0 90 60 60
        E 0 90 62 60
        E 120 80 18 00
        E 0 80 1f 00
        E 0 80 3e 00
        E 0 80 48 00
        E 0 80 4a 00
        E 0 80 54 00
        E 0 80 56 00
        E 0 80 60 00
        E 0 80 62 00
        E 120 90 1f 60
        E 0 90 56 60
        E 0 90 62 60
        E 120 80 1f 00
        E 0 80 56 00
        E 0 80 62 00
        E 120 90 1a 60
        E 0 90 1f 60
        E 0 90 3d 60
        E 0 90 3e 60
        E 0 90 49 60
        E 0 90 4a 60
        E 0 90 55 60
        E 0 90 56 60
        E 0 90 61 60
        E 0 90 62 60
        E 120 80 1a 00
        E 0 80 1f 00
        E 0 80 3d 00
        E 0 80 3e 00
        E 0 80 49 00
        E 0 80 4a 00
        E 0 80 55 00
        E 0 80 56 00
        E 0 80 61 00
        E 0 80 62 00
        E 120 90 1f 60
        E 0 90 56 60
        E 0 90 62 60
        E 120 80 1f 00
        E 0 80 56 00
        E 0 80 62 00
        E 120 90 18 60
        E 0 90 1f 60
        E 0 90 3e 60
        E 0 90 48 60
        E 0 90 4a 60
        E 0 90 54 60
        E 0 90 56 60
        E 0 90 60 60
        E 0 90 62 60
        E 120 80 18 00
        E 0 80 1f 00
        E 0 80 3e 00
        E 0 80 48 00
        E 0 80 4a 00
        E 0 80 54 00
        E 0 80 56 00
        E 0 80 60 00
        E 0 80 62 00
        E 120 90 1f 60
        E 0 90 56 60
        E 0 90 62 60
        E 120 80 1f 00
        E 0 80 56 00
        E 0 80 62 00
        E 120 90 1a 60
        E 0 90 1f 60
        E 0 90 3d 60
        E 0 90 3e 60
        E 0 90 49 60
        E 0 90 4a 60
        E 0 90 55 60
        E 0 90 56 60
        E 0 90 61 60
        E 0 90 62 60
        E 120 80 1a 00
        E 0 80 1f 00
        E 0 80 3d 00
        E 0 80 3e 00
        E 0 80 49 00
        E 0 80 4a 00
        E 0 80 55 00
        E 0 80 56 00
        E 0 80 61 00
        E 0 80 62 00
        E 120 90 18 60
        E 0 90 1f 60
        E 0 90 54 60
        E 0 90 56 60
        E 0 90 60 60
        E 0 90 62 60
        E 120 80 18 00
        E 0 80 1f 00
        E 0 80 54 00
        E 0 80 56 00
        E 0 80 60 00
        E 0 80 62 00
        E 120 90 18 60
        E 0 90 1f 60
        E 0 90 3e 60
        E 0 90 48 60
        E 0 90 4a 60
        E 0 90 54 60
        E 0 90 56 60
        E 0 90 60 60
        E 0 90 62 60
        E 120 80 18 00
        E 0 80 1f 00
        E 0 80 3e 00
        E 0 80 48 00
        E 0 80 4a 00
        E 0 80 54 00
        E 0 80 56 00
        E 0 80 60 00
        E 0 80 62 00
        E 120 90 1f 60
        E 0 90 56 60
        E 0 90 62 60
        E 120 80 1f 00
        E 0 80 56 00
        E 0 80 62 00
        E 120 90 1a 60
        E 0 90 1f 60
        E 0 90 3d 60
        E 0 90 3e 60
        E 0 90 49 60
        E 0 90 4a 60
        E 0 90 55 60
        E 0 90 56 60
        E 0 90 61 60
        E 0 90 62 60
        E 120 80 1a 00
        E 0 80 1f 00
        E 0 80 3d 00
        E 0 80 3e 00
        E 0 80 49 00
        E 0 80 4a 00
        E 0 80 55 00
        E 0 80 56 00
        E 0 80 61 00
        E 0 80 62 00
        E 120 90 1f 60
        E 0 90 56 60
        E 0 90 62 60
        E 120 80 1f 00
        E 0 80 56 00
        E 0 80 62 00
        E 120 90 18 60
        E 0 90 1f 60
        E 0 90 3e 60
        E 0 90 48 60
        E 0 90 4a 60
        E 0 90 54 60
        E 0 90 56 60
        E 0 90 60 60
        E 0 90 62 60
        E 120 80 74 00
        E 0 80 18 00
        E 0 80 1f 00
        E 0 80 3e 00
        E 0 80 48 00
        E 0 80 4a 00
        E 0 80 54 00
        E 0 80 56 00
        E 0 80 60 00
        E 0 80 62 00
        E 120 90 1f 60
        E 0 90 56 60
        E 0 90 62 60
        E 120 80 1f 00
        E 0 80 56 00
        E 0 80 62 00
        E 120 90 1a 60
        E 0 90 1f 60
        E 0 90 3d 60
        E 0 90 3e 60
        E 0 90 49 60
        E 0 90 4a 60
        E 0 90 55 60
        E 0 90 56 60
        E 0 90 61 60
        E 0 90 62 60
        E 120 80 1a 00
        E 0 80 1f 00
        E 0 80 3d 00
        E 0 80 3e 00
        E 0 80 49 00
        E 0 80 4a 00
        E 0 80 55 00
        E 0 80 56 00
        E 0 80 61 00
        E 0 80 62 00
        E 120 90 18 60
        E 0 90 1f 60
        E 0 90 54 60
        E 0 90 56 60
        E 0 90 60 60
        E 0 90 62 60
        E 120 80 18 00
        E 0 80 1f 00
        E 0 80 54 00
        E 0 80 56 00
        E 0 80 60 00
        E 0 80 62 00
        E 120 90 18 60
        E 0 90 1f 60
        E 0 90 3e 60
        E 0 90 48 60
        E 0 90 4a 60
        E 0 90 54 60
        E 0 90 56 60
        E 0 90 60 60
        E 0 90 62 60
        E 120 80 18 00
        E 0 80 1f 00
        E 0 80 3e 00
        E 0 80 48 00
        E 0 80 4a 00
        E 0 80 54 00
        E 0 80 56 00
        E 0 80 60 00
        E 0 80 62 00
        E 120 90 1f 60
        E 0 90 56 60
        E 0 90 62 60
        E 120 80 1f 00
        E 0 80 56 00
        E 0 80 62 00
        E 120 90 1a 60
        E 0 90 1f 60
        E 0 90 3d 60
        E 0 90 3e 60
        E 0 90 49 60
        E 0 90 4a 60
        E 0 90 55 60
        E 0 90 56 60
        E 0 90 61 60
        E 0 90 62 60
        E 120 80 1a 00
        E 0 80 1f 00
        E 0 80 3d 00
        E 0 80 3e 00
        E 0 80 49 00
        E 0 80 4a 00
        E 0 80 55 00
        E 0 80 56 00
        E 0 80 61 00
        E 0 80 62 00
        E 120 90 1f 60
        E 0 90 56 60
        E 0 90 62 60
        E 120 80 1f 00
        E 0 80 56 00
        E 0 80 62 00
        E 120 90 18 60
        E 0 90 1f 60
        E 0 90 3e 60
        E 0 90 48 60
        E 0 90 4a 60
        E 0 90 54 60
        E 0 90 56 60
        E 0 90 60 60
        E 0 90 62 60
        E 0 90 78 60
        E 0 90 79 60
        E 0 90 7a 60
        E 0 90 7b 60
        E 0 90 7c 60
        E 120 80 18 00
        E 0 80 1f 00
        E 0 80 3e 00
        E 0 80 48 00
        E 0 80 4a 00
        E 0 80 54 00
        E 0 80 56 00
        E 0 80 60 00
        E 0 80 62 00
        E 120 90 1f 60
        E 0 90 56 60
        E 0 90 62 60
        E 120 80 1f 00
        E 0 80 56 00
        E 0 80 62 00
        E 120 90 1a 60
        E 0 90 1f 60
        E 0 90 3d 60
        E 0 90 3e 60
        E 0 90 49 60
        E 0 90 4a 60
        E 0 90 55 60
        E 0 90 56 60
        E 0 90 61 60
        E 0 90 62 60
        E 120 80 1a 00
        E 0 80 1f 00
        E 0 80 3d 00
        E 0 80 3e 00
        E 0 80 49 00
        E 0 80 4a 00
        E 0 80 55 00
        E 0 80 56 00
        E 0 80 61 00
        E 0 80 62 00
        E 120 90 18 60
        E 0 90 1f 60
        E 0 90 54 60
        E 0 90 56 60
        E 0 90 60 60
        E 0 90 62 60
        E 120 80 18 00
        E 0 80 1f 00
        E 0 80 54 00
        E 0 80 56 00
        E 0 80 60 00
        E 0 80 62 00
        E 120 90 18 60
        E 0 90 1f 60
        E 0 90 3e 60
        E 0 90 48 60
        E 0 90 4a 60
        E 0 90 54 60
        E 0 90 56 60
        E 0 90 60 60
        E 0 90 62 60
        E 120 80 18 00
        E 0 80 1f 00
        E 0 80 3e 00
        E 0 80 48 00
        E 0 80 4a 00
        E 0 80 54 00
        E 0 80 56 00
        E 0 80 60 00
        E 0 80 62 00
        E 120 90 1f 60
        E 0 90 56 60
        E 0 90 62 60
        E 120 80 1f 00
        E 0 80 56 00
        E 0 80 62 00
        E 120 90 1a 60
        E 0 90 1f 60
        E 0 90 3d 60
        E 0 90 3e 60
        E 0 90 49 60
        E 0 90 4a 60
        E 0 90 55 60
        E 0 90 56 60
        E 0 90 61 60
        E 0 90 62 60
        E 120 80 1a 00
        E 0 80 1f 00
        E 0 80 3d 00
        E 0 80 3e 00
        E 0 80 49 00
        E 0 80 4a 00
        E 0 80 55 00
        E 0 80 56 00
        E 0 80 61 00
        E 0 80 62 00
        E 120 90 19 60
        E 0 90 1f 60
        E 0 90 57 60
        E 0 90 63 60
        E 120 80 1f 00
        E 0 80 57 00
        E 0 80 63 00
        E 120 80 78 00
        E 0 80 79 00
        E 0 80 7a 00
        E 0 80 7b 00
        E 0 80 7c 00
        E 0 80 19 00
        E 0 90 18 60
        E 0 90 1f 60
        E 0 90 3e 60
        E 0 90 48 60
        E 0 90 4a 60
        E 0 90 54 60
        E 0 90 56 60
        E 0 90 60 60
        E 0 90 62 60
        E 120 80 18 00
        E 0 80 1f 00
        E 0 80 3e 00
        E 0 80 48 00
        E 0 80 4a 00
        E 0 80 54 00
        E 0 80 56 00
        E 0 80 60 00
        E 0 80 62 00
        E 120 90 1f 60
        E 0 90 56 60
        E 0 90 62 60
        E 120 80 1f 00
        E 0 80 56 00
        E 0 80 62 00
        E 120 90 1a 60
        E 0 90 1f 60
        E 0 90 3d 60
        E 0 90 3e 60
        E 0 90 49 60
        E 0 90 4a 60
        E 0 90 55 60
        E 0 90 56 60
        E 0 90 61 60
        E 0 90 62 60
        E 120 80 1a 00
        E 0 80 1f 00
        E 0 80 3d 00
        E 0 80 3e 00
        E 0 80 49 00
        E 0 80 4a 00
        E 0 80 55 00
        E 0 80 56 00
        E 0 80 61 00
        E 0 80 62 00
        E 120 90 18 60
        E 0 90 1f 60
        E 0 90 54 60
        E 0 90 56 60
        E 0 90 60 60
        E 0 90 62 60
        E 120 80 18 00
        E 0 80 1f 00
        E 0 80 54 00
        E 0 80 56 00
        E 0 80 60 00
        E 0 80 62 00
        E 120 90 18 60
        E 0 90 1f 60
        E 0 90 3e 60
        E 0 90 48 60
        E 0 90 4a 60
        E 0 90 54 60
        E 0 90 56 60
        E 0 90 60 60
        E 0 90 62 60
        E 120 80 18 00
        E 0 80 1f 00
        E 0 80 3e 00
        E 0 80 48 00
        E 0 80 4a 00
        E 0 80 54 00
        E 0 80 56 00
        E 0 80 60 00
        E 0 80 62 00
        E 120 90 1f 60
        E 0 90 56 60
        E 0 90 62 60
        E 120 80 1f 00
        E 0 80 56 00
        E 0 80 62 00
        E 120 90 1a 60
        E 0 90 1f 60
        E 0 90 3d 60
        E 0 90 3e 60
        E 0 90 49 60
        E 0 90 4a 60
        E 0 90 55 60
        E 0 90 56 60
        E 0 90 61 60
        E 0 90 62 60
        E 120 80 1a 00
        E 0 80 1f 00
        E 0 80 3d 00
        E 0 80 3e 00
        E 0 80 49 00
        E 0 80 4a 00
        E 0 80 55 00
        E 0 80 56 00
        E 0 80 61 00
        E 0 80 62 00
        E 120 90 1f 60
        E 0 90 56 60
        E 0 90 62 60
        E 120 80 1f 00
        E 0 80 56 00
        E 0 80 62 00
        E 120 90 18 60
        E 0 90 1f 60
        E 0 90 3e 60
        E 0 90 48 60
        E 0 90 4a 60
        E 0 90 54 60
        E 0 90 56 60
        E 0 90 60 60
        E 0 90 62 60
        E 120 80 18 00
        E 0 80 1f 00
        E 0 80 3e 00
        E 0 80 48 00
        E 0 80 4a 00
        E 0 80 54 00
        E 0 80 56 00
        E 0 80 60 00
        E 0 80 62 00
        E 120 90 1f 60
        E 0 90 56 60
        E 0 90 62 60
        E 120 80 1f 00
        E 0 80 56 00
        E 0 80 62 00
        E 120 90 1a 60
        E 0 90 1f 60
        E 0 90 3d 60
        E 0 90 3e 60
        E 0 90 49 60
        E 0 90 4a 60
        E 0 90 55 60
        E 0 90 56 60
        E 0 90 61 60
        E 0 90 62 60
        E 120 80 1a 00
        E 0 80 1f 00
        E 0 80 3d 00
        E 0 80 3e 00
        E 0 80 49 00
        E 0 80 4a 00
        E 0 80 55 00
        E 0 80 56 00
        E 0 80 61 00
        E 0 80 62 00
        E 120 90 18 60
        E 0 90 1f 60
        E 0 90 54 60
        E 0 90 56 60
        E 0 90 60 60
        E 0 90 62 60
        E 120 80 18 00
        E 0 80 1f 00
        E 0 80 54 00
        E 0 80 56 00
        E 0 80 60 00
        E 0 80 62 00
        E 120 90 18 60
        E 0 90 1f 60
        E 0 90 3e 60
        E 0 90 48 60
        E 0 90 4a 60
        E 0 90 54 60
        E 0 90 56 60
        E 0 90 60 60
        E 0 90 62 60
        E 120 80 18 00
        E 0 80 1f 00
        E 0 80 3e 00
        E 0 80 48 00
        E 0 80 4a 00
        E 0 80 54 00
        E 0 80 56 00
        E 0 80 60 00
        E 0 80 62 00
        E 120 90 1f 60
        E 0 90 56 60
        E 0 90 62 60
        E 120 80 1f 00
        E 0 80 56 00
        E 0 80 62 00
        E 120 90 1a 60
        E 0 90 1f 60
        E 0 90 3d 60
        E 0 90 3e 60
        E 0 90 49 60
        E 0 90 4a 60
        E 0 90 55 60
        E 0 90 56 60
        E 0 90 61 60
        E 0 90 62 60
        E 120 80 1a 00
        E 0 80 1f 00
        E 0 80 3d 00
        E 0 80 3e 00
        E 0 80 49 00
        E 0 80 4a 00
        E 0 80 55 00
        E 0 80 56 00
        E 0 80 61 00
        E 0 80 62 00
        E 120 90 1f 60
        E 0 90 56 60
        E 0 90 62 60
        E 120 80 1f 00
        E 0 80 56 00
        E 0 80 62 00
        E 120 90 18 60
        E 0 90 1f 60
        E 0 90 3e 60
        E 0 90 48 60
        E 0 90 4a 60
        E 0 90 54 60
        E 0 90 56 60
        E 0 90 60 60
        E 0 90 62 60
        E 120 80 18 00
        E 0 80 1f 00
        E 0 80 3e 00
        E 0 80 48 00
        E 0 80 4a 00
        E 0 80 54 00
        E 0 80 56 00
        E 0 80 60 00
        E 0 80 62 00
        E 120 90 1f 60
        E 0 90 56 60
        E 0 90 62 60
        E 120 80 1f 00
        E 0 80 56 00
        E 0 80 62 00
        E 120 90 1a 60
        E 0 90 1f 60
        E 0 90 3d 60
        E 0 90 3e 60
        E 0 90 49 60
        E 0 90 4a 60
        E 0 90 55 60
        E 0 90 56 60
        E 0 90 61 60
        E 0 90 62 60
        E 120 80 1a 00
        E 0 80 1f 00
        E 0 80 3d 00
        E 0 80 3e 00
        E 0 80 49 00
        E 0 80 4a 00
        E 0 80 55 00
        E 0 80 56 00
        E 0 80 61 00
        E 0 80 62 00
        E 120 90 18 60
        E 0 90 1f 60
        E 0 90 54 60
        E 0 90 56 60
        E 0 90 60 60
        E 0 90 62 60
        E 120 80 18 00
        E 0 80 1f 00
        E 0 80 54 00
        E 0 80 56 00
        E 0 80 60 00
        E 0 80 62 00
        E 120 90 18 60
        E 0 90 1f 60
        E 0 90 3e 60
        E 0 90 48 60
        E 0 90 4a 60
        E 0 90 54 60
        E 0 90 56 60
        E 0 90 60 60
        E 0 90 62 60
        E 120 80 18 00
        E 0 80 1f 00
        E 0 80 3e 00
        E 0 80 48 00
        E 0 80 4a 00
        E 0 80 54 00
        E 0 80 56 00
        E 0 80 60 00
        E 0 80 62 00
        E 120 90 1f 60
        E 0 90 56 60
        E 0 90 62 60
        E 120 80 1f 00
        E 0 80 56 00
        E 0 80 62 00
        E 120 90 1a 60
        E 0 90 1f 60
        E 0 90 3d 60
        E 0 90 3e 60
        E 0 90 49 60
        E 0 90 4a 60
        E 0 90 55 60
        E 0 90 56 60
        E 0 90 61 60
        E 0 90 62 60
        E 120 80 1a 00
        E 0 80 1f 00
        E 0 80 3d 00
        E 0 80 3e 00
        E 0 80 49 00
        E 0 80 4a 00
        E 0 80 55 00
        E 0 80 56 00
        E 0 80 61 00
        E 0 80 62 00
        E 120 90 1f 60
        E 0 90 56 60
        E 0 90 62 60
        E 120 80 1f 00
        E 0 80 56 00
        E 0 80 62 00
        E 120 90 18 60
        E 0 90 1f 60
        E 0 90 3e 60
        E 0 90 48 60
        E 0 90 4a 60
        E 0 90 54 60
        E 0 90 56 60
        E 0 90 60 60
        E 0 90 62 60
        E 0 90 78 60
        E 0 90 79 60
        E 0 90 7a 60
        E 0 90 7b 60
        E 0 90 7c 60
        E 120 80 18 00
        E 0 80 1f 00
        E 0 80 3e 00
        E 0 80 48 00
        E 0 80 4a 00
        E 0 80 54 00
        E 0 80 56 00
        E 0 80 60 00
        E 0 80 62 00
        E 120 90 1f 60
        E 0 90 56 60
        E 0 90 62 60
        E 120 80 1f 00
        E 0 80 56 00
        E 0 80 62 00
        E 120 90 1a 60
        E 0 90 1f 60
        E 0 90 3d 60
        E 0 90 3e 60
        E 0 90 49 60
        E 0 90 4a 60
        E 0 90 55 60
        E 0 90 56 60
        E 0 90 61 60
        E 0 90 62 60
        E 120 80 1a 00
        E 0 80 1f 00
        E 0 80 3d 00
        E 0 80 3e 00
        E 0 80 49 00
        E 0 80 4a 00
        E 0 80 55 00
        E 0 80 56 00
        E 0 80 61 00
        E 0 80 62 00
        E 120 90 18 60
        E 0 90 1f 60
        E 0 90 54 60
        E 0 90 56 60
        E 0 90 60 60
        E 0 90 62 60
        E 120 80 18 00
        E 0 80 1f 00
        E 0 80 54 00
        E 0 80 56 00
        E 0 80 60 00
        E 0 80 62 00
        E 120 90 18 60
        E 0 90 1f 60
        E 0 90 3e 60
        E 0 90 48 60
        E 0 90 4a 60
        E 0 90 54 60
        E 0 90 56 60
        E 0 90 60 60
        E 0 90 62 60
        E 120 80 18 00
        E 0 80 1f 00
        E 0 80 3e 00
        E 0 80 48 00
        E 0 80 4a 00
        E 0 80 54 00
        E 0 80 56 00
        E 0 80 60 00
        E 0 80 62 00
        E 120 90 1f 60
        E 0 90 56 60
        E 0 90 62 60
        E 120 80 1f 00
        E 0 80 56 00
        E 0 80 62 00
        E 120 90 1a 60
        E 0 90 1f 60
        E 0 90 3d 60
        E 0 90 3e 60
        E 0 90 49 60
        E 0 90 4a 60
        E 0 90 55 60
        E 0 90 56 60
        E 0 90 61 60
        E 0 90 62 60
        E 120 80 1a 00
        E 0 80 1f 00
        E 0 80 3d 00
        E 0 80 3e 00
        E 0 80 49 00
        E 0 80 4a 00
        E 0 80 55 00
        E 0 80 56 00
        E 0 80 61 00
        E 0 80 62 00
        E 120 90 19 60
        E 0 90 1f 60
        E 0 90 57 60
        E 0 90 63 60
        E 120 80 1f 00
        E 0 80 57 00
        E 0 80 63 00
        E 120 80 78 00
        E 0 80 79 00
        E 0 80 7a 00
        E 0 80 7b 00
        E 0 80 7c 00
        E 0 80 19 00
        E 0 90 18 60
        E 0 90 1f 60
        E 0 90 3e 60
        E 0 90 48 60
        E 0 90 4a 60
        E 0 90 54 60
        E 0 90 56 60
        E 0 90 60 60
        E 0 90 62 60
        E 120 80 18 00
        E 0 80 1f 00
        E 0 80 3e 00
        E 0 80 48 00
        E 0 80 4a 00
        E 0 80 54 00
        E 0 80 56 00
        E 0 80 60 00
        E 0 80 62 00
        E 120 90 1f 60
        E 0 90 56 60
        E 0 90 62 60
        E 120 80 1f 00
        E 0 80 56 00
        E 0 80 62 00
        E 120 90 1a 60
        E 0 90 1f 60
        E 0 90 3d 60
        E 0 90 3e 60
        E 0 90 49 60
        E 0 90 4a 60
        E 0 90 55 60
        E 0 90 56 60
        E 0 90 61 60
        E 0 90 62 60
        E 120 80 1a 00
        E 0 80 1f 00
        E 0 80 3d 00
        E 0 80 3e 00
        E 0 80 49 00
        E 0 80 4a 00
        E 0 80 55 00
        E 0 80 56 00
        E 0 80 61 00
        E 0 80 62 00
        E 120 90 18 60
        E 0 90 1f 60
        E 0 90 54 60
        E 0 90 56 60
        E 0 90 60 60
        E 0 90 62 60
        E 120 80 18 00
        E 0 80 1f 00
        E 0 80 54 00
        E 0 80 56 00
        E 0 80 60 00
        E 0 80 62 00
        E 120 90 18 60
        E 0 90 1f 60
        E 0 90 3e 60
        E 0 90 48 60
        E 0 90 4a 60
        E 0 90 54 60
        E 0 90 56 60
        E 0 90 60 60
        E 0 90 62 60
        E 120 80 18 00
        E 0 80 1f 00
        E 0 80 3e 00
        E 0 80 48 00
        E 0 80 4a 00
        E 0 80 54 00
        E 0 80 56 00
        E 0 80 60 00
        E 0 80 62 00
        E 120 90 1f 60
        E 0 90 56 60
        E 0 90 62 60
        E 120 80 1f 00
        E 0 80 56 00
        E 0 80 62 00
        E 120 90 1a 60
        E 0 90 1f 60
        E 0 90 3d 60
        E 0 90 3e 60
        E 0 90 49 60
        E 0 90 4a 60
        E 0 90 55 60
        E 0 90 56 60
        E 0 90 61 60
        E 0 90 62 60
        E 120 80 1a 00
        E 0 80 1f 00
        E 0 80 3d 00
        E 0 80 3e 00
        E 0 80 49 00
        E 0 80 4a 00
        E 0 80 55 00
        E 0 80 56 00
        E 0 80 61 00
        E 0 80 62 00
        E 120 90 1f 60
        E 0 90 56 60
        E 0 90 62 60
        E 120 80 1f 00
        E 0 80 56 00
        E 0 80 62 00
        E 120 90 18 60
        E 0 90 1f 60
        E 0 90 3e 60
        E 0 90 48 60
        E 0 90 4a 60
        E 0 90 54 60
        E 0 90 56 60
        E 0 90 60 60
        E 0 90 62 60
        E 120 80 18 00
        E 0 80 1f 00
        E 0 80 3e 00
        E 0 80 48 00
        E 0 80 4a 00
        E 0 80 54 00
        E 0 80 56 00
        E 0 80 60 00
        E 0 80 62 00
        E 120 90 1f 60
        E 0 90 56 60
        E 0 90 62 60
        E 120 80 1f 00
        E 0 80 56 00
        E 0 80 62 00
        E 120 90 1a 60
        E 0 90 1f 60
        E 0 90 3d 60
        E 0 90 3e 60
        E 0 90 49 60
        E 0 90 4a 60
        E 0 90 55 60
        E 0 90 56 60
        E 0 90 61 60
        E 0 90 62 60
        E 120 80 1a 00
        E 0 80 1f 00
        E 0 80 3d 00
        E 0 80 3e 00
        E 0 80 49 00
        E 0 80 4a 00
        E 0 80 55 00
        E 0 80 56 00
        E 0 80 61 00
        E 0 80 62 00
        E 120 90 18 60
        E 0 90 1f 60
        E 0 90 54 60
        E 0 90 56 60
        E 0 90 60 60
        E 0 90 62 60
        E 120 80 18 00
        E 0 80 1f 00
        E 0 80 54 00
        E 0 80 56 00
        E 0 80 60 00
        E 0 80 62 00
        E 120 90 18 60
        E 0 90 1f 60
        E 0 90 3e 60
        E 0 90 48 60
        E 0 90 4a 60
        E 0 90 54 60
        E 0 90 56 60
        E 0 90 60 60
        E 0 90 62 60
        E 120 80 18 00
        E 0 80 1f 00
        E 0 80 3e 00
        E 0 80 48 00
        E 0 80 4a 00
        E 0 80 54 00
        E 0 80 56 00
        E 0 80 60 00
        E 0 80 62 00
        E 120 90 1f 60
        E 0 90 56 60
        E 0 90 62 60
        E 120 80 1f 00
        E 0 80 56 00
        E 0 80 62 00
        E 120 90 1a 60
        E 0 90 1f 60
        E 0 90 3d 60
        E 0 90 3e 60
        E 0 90 49 60
        E 0 90 4a 60
        E 0 90 55 60
        E 0 90 56 60
        E 0 90 61 60
        E 0 90 62 60
        E 120 80 1a 00
        E 0 80 1f 00
        E 0 80 3d 00
        E 0 80 3e 00
        E 0 80 49 00
        E 0 80 4a 00
        E 0 80 55 00
        E 0 80 56 00
        E 0 80 61 00
        E 0 80 62 00
        E 120 90 1f 60
        E 0 90 56 60
        E 0 90 62 60
        E 120 80 1f 00
        E 0 80 56 00
        E 0 80 62 00
        E 120 90 18 60
        E 0 90 1f 60
        E 0 90 3e 60
        E 0 90 48 60
        E 0 90 4a 60
        E 0 90 54 60
        E 0 90 56 60
        E 0 90 60 60
        E 0 90 62 60
        E 120 80 18 00
        E 0 80 1f 00
        E 0 80 3e 00
        E 0 80 48 00
        E 0 80 4a 00
        E 0 80 54 00
        E 0 80 56 00
        E 0 80 60 00
        E 0 80 62 00
        E 120 90 1f 60
        E 0 90 56 60
        E 0 90 62 60
        E 120 80 1f 00
        E 0 80 56 00
        E 0 80 62 00
        E 120 90 1a 60
        E 0 90 1f 60
        E 0 90 3d 60
        E 0 90 3e 60
        E 0 90 49 60
        E 0 90 4a 60
        E 0 90 55 60
        E 0 90 56 60
        E 0 90 61 60
        E 0 90 62 60
        E 120 80 1a 00
        E 0 80 1f 00
        E 0 80 3d 00
        E 0 80 3e 00
        E 0 80 49 00
        E 0 80 4a 00
        E 0 80 55 00
        E 0 80 56 00
        E 0 80 61 00
        E 0 80 62 00
        E 120 90 18 60
        E 0 90 1f 60
        E 0 90 54 60
        E 0 90 56 60
        E 0 90 60 60
        E 0 90 62 60
        E 120 80 18 00
        E 0 80 1f 00
        E 0 80 54 00
        E 0 80 56 00
        E 0 80 60 00
        E 0 80 62 00
        E 120 90 18 60
        E 0 90 1f 60
        E 0 90 3e 60
        E 0 90 48 60
        E 0 90 4a 60
        E 0 90 54 60
        E 0 90 56 60
        E 0 90 60 60
        E 0 90 62 60
        E 120 80 18 00
        E 0 80 1f 00
        E 0 80 3e 00
        E 0 80 48 00
        E 0 80 4a 00
        E 0 80 54 00
        E 0 80 56 00
        E 0 80 60 00
        E 0 80 62 00
        E 120 90 1f 60
        E 0 90 56 60
        E 0 90 62 60
        E 120 80 1f 00
        E 0 80 56 00
        E 0 80 62 00
        E 120 90 1a 60
        E 0 90 1f 60
        E 0 90 3d 60
        E 0 90 3e 60
        E 0 90 49 60
        E 0 90 4a 60
        E 0 90 55 60
        E 0 90 56 60
        E 0 90 61 60
        E 0 90 62 60
        E 120 80 1a 00
        E 0 80 1f 00
        E 0 80 3d 00
        E 0 80 3e 00
        E 0 80 49 00
        E 0 80 4a 00
        E 0 80 55 00
        E 0 80 56 00
        E 0 80 61 00
        E 0 80 62 00
        E 120 90 18 60
        E 0 90 1f 60
        E 0 90 54 60
        E 0 90 56 60
        E 0 90 60 60
        E 0 90 62 60
        E 120 80 18 00
        E 0 80 1f 00
        E 0 80 54 00
        E 0 80 56 00
        E 0 80 60 00
        E 0 80 62 00
        E 120 90 18 60
        E 0 90 2a 60
        E 0 90 3f 60
        E 0 90 48 60
        E 0 90 4b 60
        E 0 90 54 60
        E 0 90 57 60
        E 0 90 60 60
        E 0 90 63 60
        E 120 80 18 00
        E 0 80 2a 00
        E 0 80 3f 00
        E 0 80 48 00
        E 0 80 4b 00
        E 0 80 54 00
        E 0 80 57 00
        E 0 80 60 00
        E 0 80 63 00
        <X 120 0
          /wFbaWRsZV9yZWFsdGltZV0=
        >
        E 9360 b0 7b 00
        GUID {CAB74612-5188-4CDC-8801-751CF9B207B9}
        IGNTEMPO 0 120.00000000 4 4
        SRCCOLOR 114
        VELLANE 132 100 0
        COLORMAP "C:\Program Files\REAPER (x64)\Data\color_maps\rockband_guitarbass.png"
        CFGEDITVIEW 0.000000 0.003417 0 12 0 0 0
        CFGEDIT 1 1 0 1 1 0 1 1 1 1 1 0.12500000 53 44 1253 718 0 2 0 1 0.00000000 0 1 0 0 0.500000 0 0 1.000000 64
        KEYSNAP 0 7 "102030050700" 0 "Pentatonic"
        EVTFILTER 0 -1 -1 -1 -1 0 1 0 0 -1.00000000 -1.00000000
      >
    >
  >
  <TRACK '{4CE94FD9-B26D-422C-B835-8BD1B743A15D}'
    NAME "PART GUITAR"
    PEAKCOL 16576
    BEAT -1
    AUTOMODE 0
    VOLPAN 1.00000000000000 0.00000000000000 -1.00000000000000 -1.00000000000000 1.00000000000000
    MUTESOLO 0 0 0
    IPHASE 0
    ISBUS 0 0
    BUSCOMP 0 0
    SHOWINMIX 1 0.666700 0.500000 1 0.500000 -1 -1 -1
    FREEMODE 0
    SEL 0
    REC 0 0 0 0 0 0 0
    VU 2
    TRACKHEIGHT 0 0
    INQ 0 0 0 0.5000000000 100 0 0 100
    NCHAN 2
    FX 1
    TRACKID {4CE94FD9-B26D-422C-B835-8BD1B743A15D}
    PERF 0
    MIDIOUT -1
    <MIDINOTENAMES
      0 127 "TRILL MARKER"
      0 126 "TREMOLO MARKER"
      0 125 "---"
      0 124 "BRE"
      0 123 "BRE"
      0 122 "BRE"
      0 121 "BRE"
      0 120 "BRE (use all 5)"
      0 119 "----"
      0 116 "OVERDRIVE"
      0 115 "----"
      0 103 "Solo Marker"
      0 102 "Force HOPO Off"
      0 101 "Force HOPO On"
      0 100 "EXPERT Orange"
      0 99 "EXPERT Blue"
      0 98 "EXPERT Yellow"
      0 97 "EXPERT Red"
      0 96 "EXPERT Green"
      0 95 "----"
      0 90 "Force HOPO Off"
      0 89 "Force HOPO On"
      0 88 "HARD Orange"
      0 87 "HARD Blue"
      0 86 "HARD Yellow"
      0 85 "HARD Red"
      0 84 "HARD Green"
      0 77 "----"
      0 76 "MEDIUM Orange"
      0 75 "MEDIUM Blue"
      0 74 "MEDIUM Yellow"
      0 73 "MEDIUM Red"
      0 72 "MEDIUM Green"
      0 65 "----"
      0 64 "EASY Orange"
      0 63 "EASY Blue"
      0 62 "EASY Yellow"
      0 61 "EASY Red"
      0 60 "EASY Green"
      0 59 "Fret 12"
      0 57 "Fret 11"
      0 56 "Fret 10"
      0 55 "Fret 9"
      0 53 "Fret 8"
      0 52 "Fret 7"
      0 50 "Fret 6"
      0 49 "Fret 5"
      0 47 "Fret 4"
      0 45 "Fret 3"
      0 43 "Fret 2"
      0 40 "Fret 1"
    >
    MAINSEND 1 0
    <FXCHAIN
      WNDRECT 0 43 891 559
      SHOW 0
      LASTSEL 0
      DOCKED 0
      BYPASS 0 0
      <VST "VSTi: RBN Preview (RBN)" "rbprev_vst64.dll" 0 ""
        dnBicu5e7f4AAAAAAgAAAAEAAAAAAAAAAgAAAAAAAAAEAAAAAQAAAA==
        AAAQAAMAqgAAABAAAAA=
      >
      FLOATPOS 0 0 0 0
      FXID {4FC850E8-48AF-4CF8-B612-9317FE2DD11B}
      WAK 0
    >
    <ITEM
      POSITION 0.00000000000000
      SNAPOFFS 0.00000000000000
      LENGTH 194.42554622500001
      LOOP 0
      ALLTAKES 0
      SEL 0
      FADEIN 1 0.000000 0.000000 1 0
      FADEOUT 1 0.000000 0.000000 1 0
      MUTE 0
      IGUID {A9F0F344-A3E1-4FA4-BA98-E69AC54F61D2}
      IID 2
      NAME "PART GUITAR"
      VOLPAN 1.000000 0.000000 1.000000 -1.000000
      SOFFS 0.00000000000000 0.00000000000000
      PLAYRATE 1.00000000000000 1 0.00000000000000 -1
      CHANMODE 0
      GUID {3576A242-4DF2-49A3-BB08-31D5A300B50E}
      <SOURCE MIDI
        HASDATA 1 480 QN
        POOLEDEVTS {3A7129A2-F970-4DDE-A08D-ADCDB412C566}
        <X 0 0
          /wNQQVJUIEdVSVRBUg==
        >
        <X 4320 0
          /wFbbWFwIEhhbmRNYXBfQWxsQ2hvcmRzXQ==
        >
        <X 0 0
          /wFbcGxheV0=
        >
        E 240 90 56 60
        E 0 90 57 60
        E 0 90 62 60
        E 0 90 63 60
        E 120 80 56 00
        E 0 80 57 00
        E 0 80 62 00
        E 0 80 63 00
        E 120 90 40 60
        E 0 90 4b 60
        E 0 90 4c 60
        E 0 90 57 60
        E 0 90 58 60
        E 0 90 63 60
        E 0 90 64 60
        E 0 90 65 60
        E 120 80 40 00
        E 0 80 4b 00
        E 0 80 4c 00
        E 0 80 57 00
        E 0 80 58 00
        E 0 80 63 00
        E 0 80 64 00
        E 0 80 65 00
        E 360 90 49 60
        E 0 90 4b 60
        E 0 90 55 60
        E 0 90 57 60
        E 0 90 61 60
        E 0 90 63 60
        E 120 80 49 00
        E 0 80 4b 00
        E 0 80 55 00
        E 0 80 57 00
        E 0 80 61 00
        E 0 80 63 00
        E 360 90 3d 60
        E 0 90 49 60
        E 0 90 4a 60
        E 0 90 55 60
        E 0 90 56 60
        E 0 90 61 60
        E 0 90 62 60
        E 2400 80 3d 00
        E 0 80 49 00
        E 0 80 4a 00
        E 0 80 55 00
        E 0 80 56 00
        E 0 80 61 00
        E 0 80 62 00
        E 240 90 56 60
        E 0 90 57 60
        E 0 90 62 60
        E 0 90 63 60
        E 120 80 56 00
        E 0 80 57 00
        E 0 80 62 00
        E 0 80 63 00
        E 120 90 40 60
        E 0 90 4b 60
        E 0 90 4c 60
        E 0 90 57 60
        E 0 90 58 60
        E 0 90 63 60
        E 0 90 64 60
        E 0 90 65 60
        E 120 80 40 00
        E 0 80 4b 00
        E 0 80 4c 00
        E 0 80 57 00
        E 0 80 58 00
        E 0 80 63 00
        E 0 80 64 00
        E 0 80 65 00
        E 360 90 49 60
        E 0 90 4b 60
        E 0 90 55 60
        E 0 90 57 60
        E 0 90 61 60
        E 0 90 63 60
        E 120 80 49 00
        E 0 80 4b 00
        E 0 80 55 00
        E 0 80 57 00
        E 0 80 61 00
        E 0 80 63 00
        E 360 90 3d 60
        E 0 90 49 60
        E 0 90 4a 60
        E 0 90 55 60
        E 0 90 56 60
        E 0 90 61 60
        E 0 90 62 60
        E 2400 80 3d 00
        E 0 80 49 00
        E 0 80 4a 00
        E 0 80 55 00
        E 0 80 56 00
        E 0 80 61 00
        E 0 80 62 00
        E 240 90 56 60
        E 0 90 57 60
        E 0 90 62 60
        E 0 90 63 60
        E 120 80 56 00
        E 0 80 57 00
        E 0 80 62 00
        E 0 80 63 00
        E 120 90 40 60
        E 0 90 4b 60
        E 0 90 4c 60
        E 0 90 57 60
        E 0 90 58 60
        E 0 90 63 60
        E 0 90 64 60
        E 0 90 65 60
        E 120 80 40 00
        E 0 80 4b 00
        E 0 80 4c 00
        E 0 80 57 00
        E 0 80 58 00
        E 0 80 63 00
        E 0 80 64 00
        E 0 80 65 00
        E 360 90 49 60
        E 0 90 4b 60
        E 0 90 55 60
        E 0 90 57 60
        E 0 90 61 60
        E 0 90 63 60
        E 120 80 49 00
        E 0 80 4b 00
        E 0 80 55 00
        E 0 80 57 00
        E 0 80 61 00
        E 0 80 63 00
        E 360 90 3d 60
        E 0 90 49 60
        E 0 90 4a 60
        E 0 90 55 60
        E 0 90 56 60
        E 0 90 61 60
        E 0 90 62 60
        E 2400 80 3d 00
        E 0 80 49 00
        E 0 80 4a 00
        E 0 80 55 00
        E 0 80 56 00
        E 0 80 61 00
        E 0 80 62 00
        E 240 90 56 60
        E 0 90 57 60
        E 0 90 62 60
        E 0 90 63 60
        E 120 80 56 00
        E 0 80 57 00
        E 0 80 62 00
        E 0 80 63 00
        E 120 90 40 60
        E 0 90 4b 60
        E 0 90 4c 60
        E 0 90 57 60
        E 0 90 58 60
        E 0 90 63 60
        E 0 90 64 60
        E 0 90 65 60
        E 120 80 40 00
        E 0 80 4b 00
        E 0 80 4c 00
        E 0 80 57 00
        E 0 80 58 00
        E 0 80 63 00
        E 0 80 64 00
        E 0 80 65 00
        E 360 90 49 60
        E 0 90 4b 60
        E 0 90 55 60
        E 0 90 57 60
        E 0 90 61 60
        E 0 90 63 60
        E 120 80 49 00
        E 0 80 4b 00
        E 0 80 55 00
        E 0 80 57 00
        E 0 80 61 00
        E 0 80 63 00
        E 360 90 3d 60
        E 0 90 49 60
        E 0 90 4a 60
        E 0 90 55 60
        E 0 90 56 60
        E 0 90 61 60
        E 0 90 62 60
        E 1920 90 74 60
        E 480 80 3d 00
        E 0 80 49 00
        E 0 80 4a 00
        E 0 80 55 00
        E 0 80 56 00
        E 0 80 61 00
        E 0 80 62 00
        E 240 90 56 60
        E 0 90 57 60
        E 0 90 62 60
        E 0 90 63 60
        E 120 80 56 00
        E 0 80 57 00
        E 0 80 62 00
        E 0 80 63 00
        E 120 90 40 60
        E 0 90 4b 60
        E 0 90 4c 60
        E 0 90 57 60
        E 0 90 58 60
        E 0 90 63 60
        E 0 90 64 60
        E 0 90 65 60
        E 120 80 40 00
        E 0 80 4b 00
        E 0 80 4c 00
        E 0 80 57 00
        E 0 80 58 00
        E 0 80 63 00
        E 0 80 64 00
        E 0 80 65 00
        E 360 90 49 60
        E 0 90 4b 60
        E 0 90 55 60
        E 0 90 57 60
        E 0 90 61 60
        E 0 90 63 60
        E 120 80 49 00
        E 0 80 4b 00
        E 0 80 55 00
        E 0 80 57 00
        E 0 80 61 00
        E 0 80 63 00
        E 360 90 3d 60
        E 0 90 49 60
        E 0 90 4a 60
        E 0 90 55 60
        E 0 90 56 60
        E 0 90 61 60
        E 0 90 62 60
        E 120 80 74 00
        E 2280 80 3d 00
        E 0 80 49 00
        E 0 80 4a 00
        E 0 80 55 00
        E 0 80 56 00
        E 0 80 61 00
        E 0 80 62 00
        E 240 90 56 60
        E 0 90 57 60
        E 0 90 62 60
        E 0 90 63 60
        E 120 80 56 00
        E 0 80 57 00
        E 0 80 62 00
        E 0 80 63 00
        E 120 90 40 60
        E 0 90 4b 60
        E 0 90 4c 60
        E 0 90 57 60
        E 0 90 58 60
        E 0 90 63 60
        E 0 90 64 60
        E 0 90 65 60
        E 120 80 40 00
        E 0 80 4b 00
        E 0 80 4c 00
        E 0 80 57 00
        E 0 80 58 00
        E 0 80 63 00
        E 0 80 64 00
        E 0 80 65 00
        E 360 90 49 60
        E 0 90 4b 60
        E 0 90 55 60
        E 0 90 57 60
        E 0 90 61 60
        E 0 90 63 60
        E 120 80 49 00
        E 0 80 4b 00
        E 0 80 55 00
        E 0 80 57 00
        E 0 80 61 00
        E 0 80 63 00
        E 360 90 3d 60
        E 0 90 49 60
        E 0 90 4a 60
        E 0 90 55 60
        E 0 90 56 60
        E 0 90 61 60
        E 0 90 62 60
        E 2400 80 3d 00
        E 0 80 49 00
        E 0 80 4a 00
        E 0 80 55 00
        E 0 80 56 00
        E 0 80 61 00
        E 0 80 62 00
        E 240 90 56 60
        E 0 90 57 60
        E 0 90 62 60
        E 0 90 63 60
        E 120 80 56 00
        E 0 80 57 00
        E 0 80 62 00
        E 0 80 63 00
        E 120 90 40 60
        E 0 90 4b 60
        E 0 90 4c 60
        E 0 90 57 60
        E 0 90 58 60
        E 0 90 63 60
        E 0 90 64 60
        E 0 90 65 60
        E 120 80 40 00
        E 0 80 4b 00
        E 0 80 4c 00
        E 0 80 57 00
        E 0 80 58 00
        E 0 80 63 00
        E 0 80 64 00
        E 0 80 65 00
        E 360 90 49 60
        E 0 90 4b 60
        E 0 90 55 60
        E 0 90 57 60
        E 0 90 61 60
        E 0 90 63 60
        E 120 80 49 00
        E 0 80 4b 00
        E 0 80 55 00
        E 0 80 57 00
        E 0 80 61 00
        E 0 80 63 00
        E 360 90 3d 60
        E 0 90 49 60
        E 0 90 4a 60
        E 0 90 55 60
        E 0 90 56 60
        E 0 90 61 60
        E 0 90 62 60
        E 2400 80 3d 00
        E 0 80 49 00
        E 0 80 4a 00
        E 0 80 55 00
        E 0 80 56 00
        E 0 80 61 00
        E 0 80 62 00
        E 240 90 56 60
        E 0 90 57 60
        E 0 90 62 60
        E 0 90 63 60
        E 120 80 56 00
        E 0 80 57 00
        E 0 80 62 00
        E 0 80 63 00
        E 120 90 40 60
        E 0 90 4b 60
        E 0 90 4c 60
        E 0 90 57 60
        E 0 90 58 60
        E 0 90 63 60
        E 0 90 64 60
        E 0 90 65 60
        E 120 80 40 00
        E 0 80 4b 00
        E 0 80 4c 00
        E 0 80 57 00
        E 0 80 58 00
        E 0 80 63 00
        E 0 80 64 00
        E 0 80 65 00
        E 360 90 49 60
        E 0 90 4b 60
        E 0 90 55 60
        E 0 90 57 60
        E 0 90 61 60
        E 0 90 63 60
        E 120 80 49 00
        E 0 80 4b 00
        E 0 80 55 00
        E 0 80 57 00
        E 0 80 61 00
        E 0 80 63 00
        E 360 90 3d 60
        E 0 90 49 60
        E 0 90 4a 60
        E 0 90 55 60
        E 0 90 56 60
        E 0 90 61 60
        E 0 90 62 60
        E 2400 80 3d 00
        E 0 80 49 00
        E 0 80 4a 00
        E 0 80 55 00
        E 0 80 56 00
        E 0 80 61 00
        E 0 80 62 00
        E 0 90 74 60
        E 240 90 56 60
        E 0 90 57 60
        E 0 90 62 60
        E 0 90 63 60
        E 120 80 56 00
        E 0 80 57 00
        E 0 80 62 00
        E 0 80 63 00
        E 120 90 40 60
        E 0 90 4b 60
        E 0 90 4c 60
        E 0 90 57 60
        E 0 90 58 60
        E 0 90 63 60
        E 0 90 64 60
        E 0 90 65 60
        E 120 80 40 00
        E 0 80 4b 00
        E 0 80 4c 00
        E 0 80 57 00
        E 0 80 58 00
        E 0 80 63 00
        E 0 80 64 00
        E 0 80 65 00
        E 360 90 49 60
        E 0 90 4a 60
        E 0 90 55 60
        E 0 90 56 60
        E 0 90 61 60
        E 0 90 62 60
        E 120 80 49 00
        E 0 80 4a 00
        E 0 80 55 00
        E 0 80 56 00
        E 0 80 61 00
        E 0 80 62 00
        E 360 90 3e 60
        E 0 90 49 60
        E 0 90 4b 60
        E 0 90 55 60
        E 0 90 57 60
        E 0 90 61 60
        E 0 90 63 60
        E 120 80 74 00
        E 2280 80 3e 00
        E 0 80 49 00
        E 0 80 4b 00
        E 0 80 55 00
        E 0 80 57 00
        E 0 80 61 00
        E 0 80 63 00
        E 240 90 56 60
        E 0 90 57 60
        E 0 90 62 60
        E 0 90 63 60
        E 120 80 56 00
        E 0 80 57 00
        E 0 80 62 00
        E 0 80 63 00
        E 120 90 40 60
        E 0 90 4b 60
        E 0 90 4c 60
        E 0 90 57 60
        E 0 90 58 60
        E 0 90 63 60
        E 0 90 64 60
        E 0 90 65 60
        E 120 80 40 00
        E 0 80 4b 00
        E 0 80 4c 00
        E 0 80 57 00
        E 0 80 58 00
        E 0 80 63 00
        E 0 80 64 00
        E 0 80 65 00
        E 360 90 49 60
        E 0 90 4b 60
        E 0 90 55 60
        E 0 90 57 60
        E 0 90 61 60
        E 0 90 63 60
        E 120 80 49 00
        E 0 80 4b 00
        E 0 80 55 00
        E 0 80 57 00
        E 0 80 61 00
        E 0 80 63 00
        E 360 90 3f 60
        E 0 90 4a 60
        E 0 90 4b 60
        E 0 90 56 60
        E 0 90 57 60
        E 0 90 62 60
        E 0 90 63 60
        E 3360 80 3f 00
        E 0 80 4a 00
        E 0 80 4b 00
        E 0 80 56 00
        E 0 80 57 00
        E 0 80 62 00
        E 0 80 63 00
        <X 480 0
          /wFbaW50ZW5zZV0=
        >
        <X 0 0
          /wFbbWFwIEhhbmRNYXBfTm9DaG9yZHNd
        >
        E 0 90 74 60
        E 480 90 4a 60
        E 0 90 56 60
        E 0 90 62 60
        E 120 80 4a 00
        E 0 80 56 00
        E 0 80 62 00
        E 360 90 3c 60
        E 0 90 49 60
        E 0 90 55 60
        E 0 90 61 60
        E 120 80 3c 00
        E 0 80 49 00
        E 0 80 55 00
        E 0 80 61 00
        E 360 90 4a 60
        E 0 90 56 60
        E 0 90 62 60
        E 120 80 4a 00
        E 0 80 56 00
        E 0 80 62 00
        E 120 90 57 60
        E 0 90 63 60
        E 120 80 57 00
        E 0 80 63 00
        E 360 90 4b 60
        E 0 90 57 60
        E 0 90 63 60
        E 120 80 4b 00
        E 0 80 57 00
        E 0 80 63 00
        E 360 90 55 60
        E 0 90 61 60
        E 120 80 55 00
        E 0 80 61 00
        E 120 90 40 60
        E 0 90 4c 60
        E 0 90 58 60
        E 0 90 64 60
        E 120 80 40 00
        E 0 80 4c 00
        E 0 80 58 00
        E 0 80 64 00
        E 120 90 58 60
        E 0 90 64 60
        E 120 80 58 00
        E 0 80 64 00
        E 120 90 49 60
        E 0 90 55 60
        E 0 90 61 60
        E 120 80 49 00
        E 0 80 55 00
        E 0 80 61 00
        E 120 90 49 60
        E 0 90 55 60
        E 0 90 61 60
        E 120 80 49 00
        E 0 80 55 00
        E 0 80 61 00
        E 120 80 74 00
        E 480 90 4a 60
        E 0 90 56 60
        E 0 90 62 60
        E 120 80 4a 00
        E 0 80 56 00
        E 0 80 62 00
        E 360 90 3c 60
        E 0 90 49 60
        E 0 90 55 60
        E 0 90 61 60
        E 120 80 3c 00
        E 0 80 49 00
        E 0 80 55 00
        E 0 80 61 00
        E 360 90 4a 60
        E 0 90 56 60
        E 0 90 62 60
        E 120 80 4a 00
        E 0 80 56 00
        E 0 80 62 00
        E 120 90 57 60
        E 0 90 63 60
        E 120 80 57 00
        E 0 80 63 00
        E 360 90 57 60
        E 0 90 63 60
        E 120 80 57 00
        E 0 80 63 00
        E 120 90 4a 60
        E 0 90 56 60
        E 0 90 62 60
        E 120 80 4a 00
        E 0 80 56 00
        E 0 80 62 00
        E 120 90 56 60
        E 0 90 62 60
        E 120 80 56 00
        E 0 80 62 00
        E 120 90 3c 60
        E 0 90 49 60
        E 0 90 55 60
        E 0 90 61 60
        E 120 80 3c 00
        E 0 80 49 00
        E 0 80 55 00
        E 0 80 61 00
        E 120 90 55 60
        E 0 90 61 60
        E 120 80 55 00
        E 0 80 61 00
        E 120 90 3c 60
        E 0 90 48 60
        E 0 90 54 60
        E 0 90 60 60
        E 120 80 3c 00
        E 0 80 48 00
        E 0 80 54 00
        E 0 80 60 00
        E 120 90 48 60
        E 0 90 54 60
        E 0 90 60 60
        E 120 80 48 00
        E 0 80 54 00
        E 0 80 60 00
        E 600 90 4a 60
        E 0 90 56 60
        E 0 90 62 60
        E 120 80 4a 00
        E 0 80 56 00
        E 0 80 62 00
        E 360 90 3c 60
        E 0 90 49 60
        E 0 90 55 60
        E 0 90 61 60
        E 120 80 3c 00
        E 0 80 49 00
        E 0 80 55 00
        E 0 80 61 00
        E 360 90 4a 60
        E 0 90 56 60
        E 0 90 62 60
        E 120 80 4a 00
        E 0 80 56 00
        E 0 80 62 00
        E 120 90 57 60
        E 0 90 63 60
        E 120 80 57 00
        E 0 80 63 00
        E 360 90 4b 60
        E 0 90 57 60
        E 0 90 63 60
        E 120 80 4b 00
        E 0 80 57 00
        E 0 80 63 00
        E 360 90 55 60
        E 0 90 61 60
        E 120 80 55 00
        E 0 80 61 00
        E 120 90 40 60
        E 0 90 4c 60
        E 0 90 58 60
        E 0 90 64 60
        E 120 80 40 00
        E 0 80 4c 00
        E 0 80 58 00
        E 0 80 64 00
        E 120 90 58 60
        E 0 90 64 60
        E 120 80 58 00
        E 0 80 64 00
        E 120 90 49 60
        E 0 90 55 60
        E 0 90 61 60
        E 120 80 49 00
        E 0 80 55 00
        E 0 80 61 00
        E 120 90 49 60
        E 0 90 55 60
        E 0 90 61 60
        E 120 80 49 00
        E 0 80 55 00
        E 0 80 61 00
        E 600 90 4a 60
        E 0 90 56 60
        E 0 90 62 60
        E 120 80 4a 00
        E 0 80 56 00
        E 0 80 62 00
        E 360 90 3c 60
        E 0 90 49 60
        E 0 90 55 60
        E 0 90 61 60
        E 120 80 3c 00
        E 0 80 49 00
        E 0 80 55 00
        E 0 80 61 00
        E 360 90 4a 60
        E 0 90 56 60
        E 0 90 62 60
        E 120 80 4a 00
        E 0 80 56 00
        E 0 80 62 00
        E 120 90 57 60
        E 0 90 63 60
        E 120 80 57 00
        E 0 80 63 00
        E 360 90 57 60
        E 0 90 63 60
        E 120 80 57 00
        E 0 80 63 00
        E 120 90 4a 60
        E 0 90 56 60
        E 0 90 62 60
        E 120 80 4a 00
        E 0 80 56 00
        E 0 80 62 00
        E 120 90 56 60
        E 0 90 62 60
        E 120 80 56 00
        E 0 80 62 00
        E 120 90 3c 60
        E 0 90 49 60
        E 0 90 55 60
        E 0 90 61 60
        E 120 80 3c 00
        E 0 80 49 00
        E 0 80 55 00
        E 0 80 61 00
        E 120 90 55 60
        E 0 90 61 60
        E 120 80 55 00
        E 0 80 61 00
        E 120 90 4a 60
        E 0 90 56 60
        E 0 90 62 60
        E 120 80 4a 00
        E 0 80 56 00
        E 0 80 62 00
        E 840 90 4a 60
        E 0 90 56 60
        E 0 90 62 60
        E 120 80 4a 00
        E 0 80 56 00
        E 0 80 62 00
        E 360 90 3c 60
        E 0 90 49 60
        E 0 90 55 60
        E 0 90 61 60
        E 120 80 3c 00
        E 0 80 49 00
        E 0 80 55 00
        E 0 80 61 00
        E 360 90 4a 60
        E 0 90 56 60
        E 0 90 62 60
        E 120 80 4a 00
        E 0 80 56 00
        E 0 80 62 00
        E 120 90 57 60
        E 0 90 63 60
        E 120 80 57 00
        E 0 80 63 00
        E 360 90 57 60
        E 0 90 63 60
        E 120 80 57 00
        E 0 80 63 00
        E 120 90 4a 60
        E 0 90 56 60
        E 0 90 62 60
        E 120 80 4a 00
        E 0 80 56 00
        E 0 80 62 00
        E 120 90 56 60
        E 0 90 62 60
        E 120 80 56 00
        E 0 80 62 00
        E 120 90 3c 60
        E 0 90 49 60
        E 0 90 55 60
        E 0 90 61 60
        E 120 80 3c 00
        E 0 80 49 00
        E 0 80 55 00
        E 0 80 61 00
        E 120 90 55 60
        E 0 90 61 60
        E 120 80 55 00
        E 0 80 61 00
        E 120 90 4a 60
        E 0 90 56 60
        E 0 90 62 60
        E 120 80 4a 00
        E 0 80 56 00
        E 0 80 62 00
        E 840 90 4a 60
        E 0 90 56 60
        E 0 90 62 60
        E 120 80 4a 00
        E 0 80 56 00
        E 0 80 62 00
        E 360 90 3c 60
        E 0 90 49 60
        E 0 90 55 60
        E 0 90 61 60
        E 120 80 3c 00
        E 0 80 49 00
        E 0 80 55 00
        E 0 80 61 00
        E 360 90 4a 60
        E 0 90 56 60
        E 0 90 62 60
        E 120 80 4a 00
        E 0 80 56 00
        E 0 80 62 00
        E 120 90 58 60
        E 0 90 64 60
        E 120 80 58 00
        E 0 80 64 00
        E 120 90 40 60
        E 0 90 4c 60
        E 0 90 58 60
        E 0 90 64 60
        E 2400 80 40 00
        E 0 80 4c 00
        E 0 80 58 00
        E 0 80 64 00
        <X 240 0
          /wFbcGxheV0=
        >
        <X 0 0
          /wFbbWFwIEhhbmRNYXBfQWxsQ2hvcmRzXQ==
        >
        E 0 90 56 60
        E 0 90 57 60
        E 0 90 62 60
        E 0 90 63 60
        E 120 80 56 00
        E 0 80 57 00
        E 0 80 62 00
        E 0 80 63 00
        E 120 90 40 60
        E 0 90 4b 60
        E 0 90 4c 60
        E 0 90 57 60
        E 0 90 58 60
        E 0 90 63 60
        E 0 90 64 60
        E 0 90 65 60
        E 120 80 40 00
        E 0 80 4b 00
        E 0 80 4c 00
        E 0 80 57 00
        E 0 80 58 00
        E 0 80 63 00
        E 0 80 64 00
        E 0 80 65 00
        E 360 90 49 60
        E 0 90 4b 60
        E 0 90 55 60
        E 0 90 57 60
        E 0 90 61 60
        E 0 90 63 60
        E 120 80 49 00
        E 0 80 4b 00
        E 0 80 55 00
        E 0 80 57 00
        E 0 80 61 00
        E 0 80 63 00
        E 360 90 3d 60
        E 0 90 49 60
        E 0 90 4a 60
        E 0 90 55 60
        E 0 90 56 60
        E 0 90 61 60
        E 0 90 62 60
        E 2400 80 3d 00
        E 0 80 49 00
        E 0 80 4a 00
        E 0 80 55 00
        E 0 80 56 00
        E 0 80 61 00
        E 0 80 62 00
        E 240 90 56 60
        E 0 90 57 60
        E 0 90 62 60
        E 0 90 63 60
        E 120 80 56 00
        E 0 80 57 00
        E 0 80 62 00
        E 0 80 63 00
        E 120 90 40 60
        E 0 90 4b 60
        E 0 90 4c 60
        E 0 90 57 60
        E 0 90 58 60
        E 0 90 63 60
        E 0 90 64 60
        E 0 90 65 60
        E 120 80 40 00
        E 0 80 4b 00
        E 0 80 4c 00
        E 0 80 57 00
        E 0 80 58 00
        E 0 80 63 00
        E 0 80 64 00
        E 0 80 65 00
        E 360 90 49 60
        E 0 90 4b 60
        E 0 90 55 60
        E 0 90 57 60
        E 0 90 61 60
        E 0 90 63 60
        E 120 80 49 00
        E 0 80 4b 00
        E 0 80 55 00
        E 0 80 57 00
        E 0 80 61 00
        E 0 80 63 00
        E 360 90 3d 60
        E 0 90 49 60
        E 0 90 4a 60
        E 0 90 55 60
        E 0 90 56 60
        E 0 90 61 60
        E 0 90 62 60
        E 2400 80 3d 00
        E 0 80 49 00
        E 0 80 4a 00
        E 0 80 55 00
        E 0 80 56 00
        E 0 80 61 00
        E 0 80 62 00
        E 240 90 56 60
        E 0 90 57 60
        E 0 90 62 60
        E 0 90 63 60
        E 120 80 56 00
        E 0 80 57 00
        E 0 80 62 00
        E 0 80 63 00
        E 120 90 40 60
        E 0 90 4b 60
        E 0 90 4c 60
        E 0 90 57 60
        E 0 90 58 60
        E 0 90 63 60
        E 0 90 64 60
        E 0 90 65 60
        E 120 80 40 00
        E 0 80 4b 00
        E 0 80 4c 00
        E 0 80 57 00
        E 0 80 58 00
        E 0 80 63 00
        E 0 80 64 00
        E 0 80 65 00
        E 360 90 49 60
        E 0 90 4b 60
        E 0 90 55 60
        E 0 90 57 60
        E 0 90 61 60
        E 0 90 63 60
        E 120 80 49 00
        E 0 80 4b 00
        E 0 80 55 00
        E 0 80 57 00
        E 0 80 61 00
        E 0 80 63 00
        E 360 90 3d 60
        E 0 90 49 60
        E 0 90 4a 60
        E 0 90 55 60
        E 0 90 56 60
        E 0 90 61 60
        E 0 90 62 60
        E 2400 80 3d 00
        E 0 80 49 00
        E 0 80 4a 00
        E 0 80 55 00
        E 0 80 56 00
        E 0 80 61 00
        E 0 80 62 00
        E 240 90 56 60
        E 0 90 57 60
        E 0 90 62 60
        E 0 90 63 60
        E 120 80 56 00
        E 0 80 57 00
        E 0 80 62 00
        E 0 80 63 00
        E 120 90 40 60
        E 0 90 4b 60
        E 0 90 4c 60
        E 0 90 57 60
        E 0 90 58 60
        E 0 90 63 60
        E 0 90 64 60
        E 0 90 65 60
        E 120 80 40 00
        E 0 80 4b 00
        E 0 80 4c 00
        E 0 80 57 00
        E 0 80 58 00
        E 0 80 63 00
        E 0 80 64 00
        E 0 80 65 00
        E 360 90 49 60
        E 0 90 4b 60
        E 0 90 55 60
        E 0 90 57 60
        E 0 90 61 60
        E 0 90 63 60
        E 120 80 49 00
        E 0 80 4b 00
        E 0 80 55 00
        E 0 80 57 00
        E 0 80 61 00
        E 0 80 63 00
        E 360 90 3d 60
        E 0 90 49 60
        E 0 90 4a 60
        E 0 90 55 60
        E 0 90 56 60
        E 0 90 61 60
        E 0 90 62 60
        E 1920 90 74 60
        E 480 80 3d 00
        E 0 80 49 00
        E 0 80 4a 00
        E 0 80 55 00
        E 0 80 56 00
        E 0 80 61 00
        E 0 80 62 00
        E 240 90 56 60
        E 0 90 57 60
        E 0 90 62 60
        E 0 90 63 60
        E 120 80 56 00
        E 0 80 57 00
        E 0 80 62 00
        E 0 80 63 00
        E 120 90 40 60
        E 0 90 4b 60
        E 0 90 4c 60
        E 0 90 57 60
        E 0 90 58 60
        E 0 90 63 60
        E 0 90 64 60
        E 0 90 65 60
        E 120 80 40 00
        E 0 80 4b 00
        E 0 80 4c 00
        E 0 80 57 00
        E 0 80 58 00
        E 0 80 63 00
        E 0 80 64 00
        E 0 80 65 00
        E 360 90 49 60
        E 0 90 4b 60
        E 0 90 55 60
        E 0 90 57 60
        E 0 90 61 60
        E 0 90 63 60
        E 120 80 49 00
        E 0 80 4b 00
        E 0 80 55 00
        E 0 80 57 00
        E 0 80 61 00
        E 0 80 63 00
        E 360 90 3d 60
        E 0 90 49 60
        E 0 90 4a 60
        E 0 90 55 60
        E 0 90 56 60
        E 0 90 61 60
        E 0 90 62 60
        E 120 80 74 00
        E 2280 80 3d 00
        E 0 80 49 00
        E 0 80 4a 00
        E 0 80 55 00
        E 0 80 56 00
        E 0 80 61 00
        E 0 80 62 00
        E 240 90 56 60
        E 0 90 57 60
        E 0 90 62 60
        E 0 90 63 60
        E 120 80 56 00
        E 0 80 57 00
        E 0 80 62 00
        E 0 80 63 00
        E 120 90 40 60
        E 0 90 4b 60
        E 0 90 4c 60
        E 0 90 57 60
        E 0 90 58 60
        E 0 90 63 60
        E 0 90 64 60
        E 0 90 65 60
        E 120 80 40 00
        E 0 80 4b 00
        E 0 80 4c 00
        E 0 80 57 00
        E 0 80 58 00
        E 0 80 63 00
        E 0 80 64 00
        E 0 80 65 00
        E 360 90 49 60
        E 0 90 4b 60
        E 0 90 55 60
        E 0 90 57 60
        E 0 90 61 60
        E 0 90 63 60
        E 120 80 49 00
        E 0 80 4b 00
        E 0 80 55 00
        E 0 80 57 00
        E 0 80 61 00
        E 0 80 63 00
        E 360 90 3d 60
        E 0 90 49 60
        E 0 90 4a 60
        E 0 90 55 60
        E 0 90 56 60
        E 0 90 61 60
        E 0 90 62 60
        E 2400 80 3d 00
        E 0 80 49 00
        E 0 80 4a 00
        E 0 80 55 00
        E 0 80 56 00
        E 0 80 61 00
        E 0 80 62 00
        E 240 90 56 60
        E 0 90 57 60
        E 0 90 62 60
        E 0 90 63 60
        E 120 80 56 00
        E 0 80 57 00
        E 0 80 62 00
        E 0 80 63 00
        E 120 90 40 60
        E 0 90 4b 60
        E 0 90 4c 60
        E 0 90 57 60
        E 0 90 58 60
        E 0 90 63 60
        E 0 90 64 60
        E 0 90 65 60
        E 120 80 40 00
        E 0 80 4b 00
        E 0 80 4c 00
        E 0 80 57 00
        E 0 80 58 00
        E 0 80 63 00
        E 0 80 64 00
        E 0 80 65 00
        E 360 90 49 60
        E 0 90 4b 60
        E 0 90 55 60
        E 0 90 57 60
        E 0 90 61 60
        E 0 90 63 60
        E 120 80 49 00
        E 0 80 4b 00
        E 0 80 55 00
        E 0 80 57 00
        E 0 80 61 00
        E 0 80 63 00
        E 360 90 3d 60
        E 0 90 49 60
        E 0 90 4a 60
        E 0 90 55 60
        E 0 90 56 60
        E 0 90 61 60
        E 0 90 62 60
        E 2400 80 3d 00
        E 0 80 49 00
        E 0 80 4a 00
        E 0 80 55 00
        E 0 80 56 00
        E 0 80 61 00
        E 0 80 62 00
        E 240 90 56 60
        E 0 90 57 60
        E 0 90 62 60
        E 0 90 63 60
        E 120 80 56 00
        E 0 80 57 00
        E 0 80 62 00
        E 0 80 63 00
        E 120 90 40 60
        E 0 90 4b 60
        E 0 90 4c 60
        E 0 90 57 60
        E 0 90 58 60
        E 0 90 63 60
        E 0 90 64 60
        E 0 90 65 60
        E 120 80 40 00
        E 0 80 4b 00
        E 0 80 4c 00
        E 0 80 57 00
        E 0 80 58 00
        E 0 80 63 00
        E 0 80 64 00
        E 0 80 65 00
        E 360 90 49 60
        E 0 90 4b 60
        E 0 90 55 60
        E 0 90 57 60
        E 0 90 61 60
        E 0 90 63 60
        E 120 80 49 00
        E 0 80 4b 00
        E 0 80 55 00
        E 0 80 57 00
        E 0 80 61 00
        E 0 80 63 00
        E 360 90 3d 60
        E 0 90 49 60
        E 0 90 4a 60
        E 0 90 55 60
        E 0 90 56 60
        E 0 90 61 60
        E 0 90 62 60
        E 1920 80 3d 00
        E 0 80 49 00
        E 0 80 4a 00
        E 240 80 55 00
        E 0 80 56 00
        E 0 80 61 00
        E 0 80 62 00
        <X 240 0
          /wFbbWFwIEhhbmRNYXBfTm9DaG9yZHNd
        >
        E 0 90 3d 60
        E 0 90 4a 60
        E 0 90 56 60
        E 0 90 62 60
        E 120 80 3d 00
        E 0 80 4a 00
        E 480 80 56 00
        E 0 80 62 00
        E 120 90 4a 60
        E 0 90 56 60
        E 0 90 62 60
        E 120 80 4a 00
        E 240 80 56 00
        E 0 80 62 00
        E 120 90 57 60
        E 0 90 63 60
        E 120 80 57 00
        E 0 80 63 00
        E 120 90 3c 60
        E 0 90 49 60
        E 0 90 55 60
        E 0 90 61 60
        E 480 80 3c 00
        E 0 80 49 00
        E 360 80 55 00
        E 0 80 61 00
        E 120 90 40 60
        E 0 90 4c 60
        E 0 90 58 60
        E 0 90 64 60
        E 480 80 40 00
        E 0 80 4c 00
        E 360 80 58 00
        E 0 80 64 00
        E 120 90 3e 60
        E 0 90 4b 60
        E 0 90 57 60
        E 0 90 63 60
        E 120 80 3e 00
        E 0 80 4b 00
        E 480 80 57 00
        E 0 80 63 00
        E 120 90 4a 60
        E 0 90 56 60
        E 0 90 62 60
        E 720 80 4a 00
        E 360 80 56 00
        E 0 80 62 00
        E 120 90 3c 60
        E 0 90 49 60
        E 0 90 55 60
        E 0 90 61 60
        E 480 80 3c 00
        E 0 80 49 00
        E 360 80 55 00
        E 0 80 61 00
        E 120 90 40 60
        E 0 90 4c 60
        E 0 90 58 60
        E 0 90 64 60
        E 0 90 74 60
        E 480 80 40 00
        E 0 80 4c 00
        E 360 80 58 00
        E 0 80 64 00
        E 120 90 3e 60
        E 0 90 4b 60
        E 0 90 57 60
        E 0 90 63 60
        E 120 80 3e 00
        E 0 80 4b 00
        E 480 80 57 00
        E 0 80 63 00
        E 120 90 4a 60
        E 0 90 56 60
        E 0 90 62 60
        E 720 80 4a 00
        E 360 80 56 00
        E 0 80 62 00
        <X 120 0
          /wFbaW50ZW5zZV0=
        >
        E 0 90 3c 60
        E 0 90 49 60
        E 0 90 55 60
        E 0 90 61 60
        E 120 80 3c 00
        E 0 80 49 00
        E 240 80 55 00
        E 0 80 61 00
        E 120 80 74 00
        E 0 90 4a 60
        E 0 90 56 60
        E 0 90 62 60
        E 120 80 4a 00
        E 0 80 56 00
        E 0 80 62 00
        E 360 90 3c 60
        E 0 90 49 60
        E 0 90 55 60
        E 0 90 61 60
        E 120 80 3c 00
        E 0 80 49 00
        E 0 80 55 00
        E 0 80 61 00
        E 360 90 4a 60
        E 0 90 56 60
        E 0 90 62 60
        E 120 80 4a 00
        E 0 80 56 00
        E 0 80 62 00
        E 120 90 57 60
        E 0 90 63 60
        E 120 80 57 00
        E 0 80 63 00
        E 360 90 4b 60
        E 0 90 57 60
        E 0 90 63 60
        E 120 80 4b 00
        E 0 80 57 00
        E 0 80 63 00
        E 360 90 55 60
        E 0 90 61 60
        E 120 80 55 00
        E 0 80 61 00
        E 120 90 40 60
        E 0 90 4c 60
        E 0 90 58 60
        E 0 90 64 60
        E 120 80 40 00
        E 0 80 4c 00
        E 0 80 58 00
        E 0 80 64 00
        E 120 90 58 60
        E 0 90 64 60
        E 120 80 58 00
        E 0 80 64 00
        E 120 90 49 60
        E 0 90 55 60
        E 0 90 61 60
        E 120 80 49 00
        E 0 80 55 00
        E 0 80 61 00
        E 120 90 55 60
        E 0 90 61 60
        E 120 80 55 00
        E 0 80 61 00
        E 600 90 4a 60
        E 0 90 56 60
        E 0 90 62 60
        E 120 80 4a 00
        E 0 80 56 00
        E 0 80 62 00
        E 360 90 3c 60
        E 0 90 49 60
        E 0 90 55 60
        E 0 90 61 60
        E 120 80 3c 00
        E 0 80 49 00
        E 0 80 55 00
        E 0 80 61 00
        E 360 90 4a 60
        E 0 90 56 60
        E 0 90 62 60
        E 120 80 4a 00
        E 0 80 56 00
        E 0 80 62 00
        E 120 90 57 60
        E 0 90 63 60
        E 120 80 57 00
        E 0 80 63 00
        E 360 90 57 60
        E 0 90 63 60
        E 120 80 57 00
        E 0 80 63 00
        E 120 90 4a 60
        E 0 90 56 60
        E 0 90 62 60
        E 120 80 4a 00
        E 0 80 56 00
        E 0 80 62 00
        E 120 90 56 60
        E 0 90 62 60
        E 120 80 56 00
        E 0 80 62 00
        E 120 90 3c 60
        E 0 90 49 60
        E 0 90 55 60
        E 0 90 61 60
        E 120 80 3c 00
        E 0 80 49 00
        E 0 80 55 00
        E 0 80 61 00
        E 120 90 55 60
        E 0 90 61 60
        E 120 80 55 00
        E 0 80 61 00
        E 120 90 48 60
        E 0 90 54 60
        E 0 90 60 60
        E 120 80 48 00
        E 0 80 54 00
        E 0 80 60 00
        E 120 90 54 60
        E 0 90 60 60
        E 120 80 54 00
        E 0 80 60 00
        E 600 90 4a 60
        E 0 90 56 60
        E 0 90 62 60
        E 120 80 4a 00
        E 0 80 56 00
        E 0 80 62 00
        E 360 90 3c 60
        E 0 90 49 60
        E 0 90 55 60
        E 0 90 61 60
        E 120 80 3c 00
        E 0 80 49 00
        E 0 80 55 00
        E 0 80 61 00
        E 360 90 4a 60
        E 0 90 56 60
        E 0 90 62 60
        E 120 80 4a 00
        E 0 80 56 00
        E 0 80 62 00
        E 120 90 57 60
        E 0 90 63 60
        E 120 80 57 00
        E 0 80 63 00
        E 360 90 4b 60
        E 0 90 57 60
        E 0 90 63 60
        E 120 80 4b 00
        E 0 80 57 00
        E 0 80 63 00
        E 360 90 55 60
        E 0 90 61 60
        E 120 80 55 00
        E 0 80 61 00
        E 120 90 40 60
        E 0 90 4c 60
        E 0 90 58 60
        E 0 90 64 60
        E 120 80 40 00
        E 0 80 4c 00
        E 0 80 58 00
        E 0 80 64 00
        E 120 90 58 60
        E 0 90 64 60
        E 120 80 58 00
        E 0 80 64 00
        E 120 90 49 60
        E 0 90 55 60
        E 0 90 61 60
        E 120 80 49 00
        E 0 80 55 00
        E 0 80 61 00
        E 120 90 55 60
        E 0 90 61 60
        E 120 80 55 00
        E 0 80 61 00
        E 600 90 4a 60
        E 0 90 56 60
        E 0 90 62 60
        E 120 80 4a 00
        E 0 80 56 00
        E 0 80 62 00
        E 360 90 3c 60
        E 0 90 49 60
        E 0 90 55 60
        E 0 90 61 60
        E 120 80 3c 00
        E 0 80 49 00
        E 0 80 55 00
        E 0 80 61 00
        E 360 90 4a 60
        E 0 90 56 60
        E 0 90 62 60
        E 120 80 4a 00
        E 0 80 56 00
        E 0 80 62 00
        E 120 90 57 60
        E 0 90 63 60
        E 120 80 57 00
        E 0 80 63 00
        E 360 90 57 60
        E 0 90 63 60
        E 120 80 57 00
        E 0 80 63 00
        E 120 90 4a 60
        E 0 90 56 60
        E 0 90 62 60
        E 120 80 4a 00
        E 0 80 56 00
        E 0 80 62 00
        E 120 90 56 60
        E 0 90 62 60
        E 120 80 56 00
        E 0 80 62 00
        E 120 90 3c 60
        E 0 90 49 60
        E 0 90 55 60
        E 0 90 61 60
        E 120 80 3c 00
        E 0 80 49 00
        E 0 80 55 00
        E 0 80 61 00
        E 120 90 55 60
        E 0 90 61 60
        E 120 80 55 00
        E 0 80 61 00
        E 120 90 4a 60
        E 0 90 56 60
        E 0 90 62 60
        E 120 80 4a 00
        E 0 80 56 00
        E 0 80 62 00
        E 840 90 4a 60
        E 0 90 56 60
        E 0 90 62 60
        E 120 80 4a 00
        E 0 80 56 00
        E 0 80 62 00
        E 360 90 3c 60
        E 0 90 49 60
        E 0 90 55 60
        E 0 90 61 60
        E 120 80 3c 00
        E 0 80 49 00
        E 0 80 55 00
        E 0 80 61 00
        E 360 90 4a 60
        E 0 90 56 60
        E 0 90 62 60
        E 120 80 4a 00
        E 0 80 56 00
        E 0 80 62 00
        E 120 90 57 60
        E 0 90 63 60
        E 120 80 57 00
        E 0 80 63 00
        E 360 90 57 60
        E 0 90 63 60
        E 120 80 57 00
        E 0 80 63 00
        E 120 90 4a 60
        E 0 90 56 60
        E 0 90 62 60
        E 120 80 4a 00
        E 0 80 56 00
        E 0 80 62 00
        E 120 90 56 60
        E 0 90 62 60
        E 120 80 56 00
        E 0 80 62 00
        E 120 90 3c 60
        E 0 90 49 60
        E 0 90 55 60
        E 0 90 61 60
        E 120 80 3c 00
        E 0 80 49 00
        E 0 80 55 00
        E 0 80 61 00
        E 120 90 55 60
        E 0 90 61 60
        E 120 80 55 00
        E 0 80 61 00
        E 120 90 4a 60
        E 0 90 56 60
        E 0 90 62 60
        E 120 80 4a 00
        E 0 80 56 00
        E 0 80 62 00
        E 840 90 4a 60
        E 0 90 56 60
        E 0 90 62 60
        E 120 80 4a 00
        E 0 80 56 00
        E 0 80 62 00
        E 360 90 3c 60
        E 0 90 49 60
        E 0 90 55 60
        E 0 90 61 60
        E 120 80 3c 00
        E 0 80 49 00
        E 0 80 55 00
        E 0 80 61 00
        E 360 90 4a 60
        E 0 90 56 60
        E 0 90 62 60
        E 120 80 4a 00
        E 0 80 56 00
        E 0 80 62 00
        E 120 90 58 60
        E 0 90 64 60
        E 120 80 58 00
        E 0 80 64 00
        E 120 90 40 60
        E 0 90 4c 60
        E 0 90 58 60
        E 0 90 64 60
        E 3360 80 40 00
        E 0 80 4c 00
        E 240 80 58 00
        E 0 80 64 00
        <X 240 0
          /wFbcGxheV9zb2xvXQ==
        >
        E 0 90 3c 60
        E 0 90 49 60
        E 0 90 55 60
        E 0 90 61 60
        E 0 90 67 60
        E 0 90 74 60
        E 480 80 3c 00
        E 0 80 49 00
        E 120 80 55 00
        E 0 80 61 00
        E 120 90 55 60
        E 0 90 61 60
        E 120 80 55 00
        E 0 80 61 00
        E 120 90 3d 60
        E 0 90 4a 60
        E 0 90 56 60
        E 0 90 62 60
        E 120 80 3d 00
        E 0 80 4a 00
        E 0 80 56 00
        E 0 80 62 00
        E 120 90 56 60
        E 0 90 62 60
        E 120 80 56 00
        E 0 80 62 00
        E 120 90 49 60
        E 0 90 55 60
        E 0 90 61 60
        E 120 80 49 00
        E 0 80 55 00
        E 0 80 61 00
        E 120 90 49 60
        E 0 90 55 60
        E 0 90 61 60
        E 120 80 49 00
        E 0 80 55 00
        E 0 80 61 00
        E 1080 90 3e 60
        E 0 90 4b 60
        E 0 90 57 60
        E 0 90 63 60
        E 120 80 3e 00
        E 0 80 4b 00
        E 0 80 57 00
        E 0 80 63 00
        E 120 90 57 60
        E 0 90 63 60
        E 120 80 57 00
        E 0 80 63 00
        E 120 90 4a 60
        E 0 90 56 60
        E 0 90 62 60
        E 120 80 4a 00
        E 0 80 56 00
        E 0 80 62 00
        E 120 90 55 60
        E 0 90 61 60
        E 120 80 55 00
        E 0 80 61 00
        E 120 90 3c 60
        E 0 90 48 60
        E 0 90 54 60
        E 0 90 60 60
        E 120 80 3c 00
        E 0 80 48 00
        E 0 80 54 00
        E 0 80 60 00
        E 120 90 48 60
        E 0 90 54 60
        E 0 90 60 60
        E 120 80 48 00
        E 0 80 54 00
        E 0 80 60 00
        E 120 80 74 00
        E 240 90 54 60
        E 0 90 60 60
        E 120 80 54 00
        E 0 80 60 00
        E 120 90 3d 60
        E 0 90 4a 60
        E 0 90 56 60
        E 0 90 62 60
        E 120 80 3d 00
        E 0 80 4a 00
        E 0 80 56 00
        E 0 80 62 00
        E 120 90 57 60
        E 0 90 63 60
        E 0 90 65 60
        E 120 80 57 00
        E 0 80 63 00
        E 0 80 65 00
        E 120 90 4b 60
        E 0 90 57 60
        E 0 90 63 60
        E 120 80 4b 00
        E 0 80 57 00
        E 0 80 63 00
        E 120 90 4b 60
        E 0 90 57 60
        E 0 90 63 60
        E 120 80 4b 00
        E 0 80 57 00
        E 0 80 63 00
        E 360 90 3d 60
        E 0 90 4a 60
        E 0 90 56 60
        E 0 90 62 60
        E 120 80 3d 00
        E 0 80 4a 00
        E 0 80 56 00
        E 0 80 62 00
        E 360 90 49 60
        E 0 90 55 60
        E 0 90 61 60
        E 120 80 49 00
        E 0 80 55 00
        E 0 80 61 00
        E 360 90 56 60
        E 0 90 62 60
        E 120 80 56 00
        E 0 80 62 00
        E 120 90 3c 60
        E 0 90 49 60
        E 0 90 55 60
        E 0 90 61 60
        E 120 80 3c 00
        E 0 80 49 00
        E 0 80 55 00
        E 0 80 61 00
        E 120 90 54 60
        E 0 90 60 60
        E 120 80 54 00
        E 0 80 60 00
        E 120 90 3c 60
        E 0 90 49 60
        E 0 90 55 60
        E 0 90 61 60
        E 480 80 3c 00
        E 0 80 49 00
        E 120 80 55 00
        E 0 80 61 00
        E 120 90 55 60
        E 0 90 61 60
        E 120 80 55 00
        E 0 80 61 00
        E 120 90 3d 60
        E 0 90 4a 60
        E 0 90 56 60
        E 0 90 62 60
        E 120 80 3d 00
        E 0 80 4a 00
        E 0 80 56 00
        E 0 80 62 00
        E 120 90 56 60
        E 0 90 62 60
        E 120 80 56 00
        E 0 80 62 00
        E 120 90 49 60
        E 0 90 55 60
        E 0 90 61 60
        E 120 80 49 00
        E 0 80 55 00
        E 0 80 61 00
        E 120 90 49 60
        E 0 90 55 60
        E 0 90 61 60
        E 120 80 49 00
        E 0 80 55 00
        E 0 80 61 00
        E 840 90 56 60
        E 0 90 62 60
        E 120 80 56 00
        E 0 80 62 00
        E 120 90 3e 60
        E 0 90 4b 60
        E 0 90 57 60
        E 0 90 63 60
        E 120 80 3e 00
        E 0 80 4b 00
        E 0 80 57 00
        E 0 80 63 00
        E 120 90 57 60
        E 0 90 63 60
        E 120 80 57 00
        E 0 80 63 00
        E 120 90 4a 60
        E 0 90 56 60
        E 0 90 62 60
        E 120 80 4a 00
        E 0 80 56 00
        E 0 80 62 00
        E 120 90 55 60
        E 0 90 61 60
        E 120 80 55 00
        E 0 80 61 00
        E 120 90 3c 60
        E 0 90 48 60
        E 0 90 54 60
        E 0 90 60 60
        E 120 80 3c 00
        E 0 80 48 00
        E 0 80 54 00
        E 0 80 60 00
        E 120 90 48 60
        E 0 90 54 60
        E 0 90 60 60
        E 120 80 48 00
        E 0 80 54 00
        E 0 80 60 00
        E 360 90 54 60
        E 0 90 60 60
        E 120 80 54 00
        E 0 80 60 00
        E 120 90 3d 60
        E 0 90 4a 60
        E 0 90 56 60
        E 0 90 62 60
        E 120 80 3d 00
        E 0 80 4a 00
        E 0 80 56 00
        E 0 80 62 00
        E 120 90 57 60
        E 0 90 63 60
        E 0 90 65 60
        E 120 80 57 00
        E 0 80 63 00
        E 0 80 65 00
        E 120 90 4b 60
        E 0 90 57 60
        E 0 90 63 60
        E 120 80 4b 00
        E 0 80 57 00
        E 0 80 63 00
        E 120 90 4b 60
        E 0 90 57 60
        E 0 90 63 60
        E 120 80 4b 00
        E 0 80 57 00
        E 0 80 63 00
        E 360 90 3d 60
        E 0 90 4a 60
        E 0 90 56 60
        E 0 90 62 60
        E 120 80 3d 00
        E 0 80 4a 00
        E 0 80 56 00
        E 0 80 62 00
        E 360 90 49 60
        E 0 90 55 60
        E 0 90 61 60
        E 120 80 49 00
        E 0 80 55 00
        E 0 80 61 00
        E 360 90 56 60
        E 0 90 62 60
        E 120 80 56 00
        E 0 80 62 00
        E 120 90 3c 60
        E 0 90 49 60
        E 0 90 55 60
        E 0 90 61 60
        E 120 80 3c 00
        E 0 80 49 00
        E 0 80 55 00
        E 0 80 61 00
        E 120 90 54 60
        E 0 90 60 60
        E 120 80 54 00
        E 0 80 60 00
        E 120 90 3c 60
        E 0 90 49 60
        E 0 90 55 60
        E 0 90 61 60
        E 480 80 3c 00
        E 0 80 49 00
        E 120 80 55 00
        E 0 80 61 00
        E 120 90 55 60
        E 0 90 61 60
        E 120 80 55 00
        E 0 80 61 00
        E 120 90 3d 60
        E 0 90 4a 60
        E 0 90 56 60
        E 0 90 62 60
        E 120 80 3d 00
        E 0 80 4a 00
        E 0 80 56 00
        E 0 80 62 00
        E 120 90 56 60
        E 0 90 62 60
        E 120 80 56 00
        E 0 80 62 00
        E 120 90 49 60
        E 0 90 55 60
        E 0 90 61 60
        E 120 80 49 00
        E 0 80 55 00
        E 0 80 61 00
        E 120 90 49 60
        E 0 90 55 60
        E 0 90 61 60
        E 120 80 49 00
        E 0 80 55 00
        E 0 80 61 00
        E 840 90 56 60
        E 0 90 62 60
        E 120 80 56 00
        E 0 80 62 00
        E 120 90 3e 60
        E 0 90 4b 60
        E 0 90 57 60
        E 0 90 63 60
        E 120 80 3e 00
        E 0 80 4b 00
        E 0 80 57 00
        E 0 80 63 00
        E 120 90 57 60
        E 0 90 63 60
        E 120 80 57 00
        E 0 80 63 00
        E 120 90 4a 60
        E 0 90 56 60
        E 0 90 62 60
        E 120 80 4a 00
        E 0 80 56 00
        E 0 80 62 00
        E 120 90 55 60
        E 0 90 61 60
        E 120 80 55 00
        E 0 80 61 00
        E 120 90 3c 60
        E 0 90 48 60
        E 0 90 54 60
        E 0 90 60 60
        E 0 90 74 60
        E 120 80 3c 00
        E 0 80 48 00
        E 0 80 54 00
        E 0 80 60 00
        E 120 90 48 60
        E 0 90 54 60
        E 0 90 60 60
        E 120 80 48 00
        E 0 80 54 00
        E 0 80 60 00
        E 360 90 54 60
        E 0 90 60 60
        E 120 80 54 00
        E 0 80 60 00
        E 120 90 3d 60
        E 0 90 4a 60
        E 0 90 56 60
        E 0 90 62 60
        E 120 80 3d 00
        E 0 80 4a 00
        E 0 80 56 00
        E 0 80 62 00
        E 120 90 57 60
        E 0 90 63 60
        E 0 90 65 60
        E 120 80 57 00
        E 0 80 63 00
        E 0 80 65 00
        E 120 90 4b 60
        E 0 90 57 60
        E 0 90 63 60
        E 120 80 4b 00
        E 0 80 57 00
        E 0 80 63 00
        E 120 90 4b 60
        E 0 90 57 60
        E 0 90 63 60
        E 120 80 4b 00
        E 0 80 57 00
        E 0 80 63 00
        E 360 90 3d 60
        E 0 90 4a 60
        E 0 90 56 60
        E 0 90 62 60
        E 120 80 3d 00
        E 0 80 4a 00
        E 0 80 56 00
        E 0 80 62 00
        E 360 90 49 60
        E 0 90 55 60
        E 0 90 61 60
        E 120 80 49 00
        E 0 80 55 00
        E 0 80 61 00
        E 360 90 56 60
        E 0 90 62 60
        E 120 80 56 00
        E 0 80 62 00
        E 120 90 3c 60
        E 0 90 49 60
        E 0 90 55 60
        E 0 90 61 60
        E 120 80 3c 00
        E 0 80 49 00
        E 0 80 55 00
        E 0 80 61 00
        E 120 90 54 60
        E 0 90 60 60
        E 120 80 54 00
        E 0 80 60 00
        E 120 90 3c 60
        E 0 90 49 60
        E 0 90 55 60
        E 0 90 61 60
        E 120 80 74 00
        E 360 80 3c 00
        E 0 80 49 00
        E 120 80 55 00
        E 0 80 61 00
        E 120 90 55 60
        E 0 90 61 60
        E 120 80 55 00
        E 0 80 61 00
        E 120 90 3d 60
        E 0 90 4a 60
        E 0 90 56 60
        E 0 90 62 60
        E 120 80 3d 00
        E 0 80 4a 00
        E 0 80 56 00
        E 0 80 62 00
        E 120 90 56 60
        E 0 90 62 60
        E 120 80 56 00
        E 0 80 62 00
        E 120 90 49 60
        E 0 90 55 60
        E 0 90 61 60
        E 120 80 49 00
        E 0 80 55 00
        E 0 80 61 00
        E 120 90 49 60
        E 0 90 55 60
        E 0 90 61 60
        E 120 80 49 00
        E 0 80 55 00
        E 0 80 61 00
        E 840 90 56 60
        E 0 90 62 60
        E 120 80 56 00
        E 0 80 62 00
        E 120 90 3e 60
        E 0 90 4b 60
        E 0 90 57 60
        E 0 90 63 60
        E 120 80 3e 00
        E 0 80 4b 00
        E 0 80 57 00
        E 0 80 63 00
        E 120 90 57 60
        E 0 90 63 60
        E 120 80 57 00
        E 0 80 63 00
        E 120 90 4a 60
        E 0 90 56 60
        E 0 90 62 60
        E 120 80 4a 00
        E 0 80 56 00
        E 0 80 62 00
        E 120 90 55 60
        E 0 90 61 60
        E 120 80 55 00
        E 0 80 61 00
        E 120 90 3c 60
        E 0 90 48 60
        E 0 90 54 60
        E 0 90 60 60
        E 120 80 3c 00
        E 0 80 48 00
        E 0 80 54 00
        E 0 80 60 00
        E 120 90 48 60
        E 0 90 54 60
        E 0 90 60 60
        E 120 80 48 00
        E 0 80 54 00
        E 0 80 60 00
        E 360 90 54 60
        E 0 90 60 60
        E 120 80 54 00
        E 0 80 60 00
        E 120 90 3d 60
        E 0 90 4a 60
        E 0 90 56 60
        E 0 90 62 60
        E 120 80 3d 00
        E 0 80 4a 00
        E 0 80 56 00
        E 0 80 62 00
        E 120 90 57 60
        E 0 90 63 60
        E 0 90 65 60
        E 120 80 57 00
        E 0 80 63 00
        E 0 80 65 00
        E 120 90 4b 60
        E 0 90 57 60
        E 0 90 63 60
        E 120 80 4b 00
        E 0 80 57 00
        E 0 80 63 00
        E 120 90 4b 60
        E 0 90 57 60
        E 0 90 63 60
        E 120 80 4b 00
        E 0 80 57 00
        E 0 80 63 00
        E 360 90 3d 60
        E 0 90 4a 60
        E 0 90 56 60
        E 0 90 62 60
        E 120 80 3d 00
        E 0 80 4a 00
        E 0 80 56 00
        E 0 80 62 00
        E 360 90 49 60
        E 0 90 55 60
        E 0 90 61 60
        E 120 80 49 00
        E 0 80 55 00
        E 0 80 61 00
        E 360 90 56 60
        E 0 90 62 60
        E 120 80 56 00
        E 0 80 62 00
        E 120 90 3c 60
        E 0 90 49 60
        E 0 90 55 60
        E 0 90 61 60
        E 120 80 3c 00
        E 0 80 49 00
        E 0 80 55 00
        E 0 80 61 00
        E 120 90 54 60
        E 0 90 60 60
        E 120 80 54 00
        E 0 80 60 00
        E 600 90 4a 60
        E 0 90 56 60
        E 0 90 62 60
        E 120 80 4a 00
        E 0 80 56 00
        E 0 80 62 00
        E 360 90 3c 60
        E 0 90 49 60
        E 0 90 55 60
        E 0 90 61 60
        E 120 80 3c 00
        E 0 80 49 00
        E 0 80 55 00
        E 0 80 61 00
        E 360 90 4a 60
        E 0 90 56 60
        E 0 90 62 60
        E 120 80 4a 00
        E 0 80 56 00
        E 0 80 62 00
        E 120 90 57 60
        E 0 90 63 60
        E 120 80 57 00
        E 0 80 63 00
        E 360 90 4b 60
        E 0 90 57 60
        E 0 90 63 60
        E 120 80 4b 00
        E 0 80 57 00
        E 0 80 63 00
        E 360 90 57 60
        E 0 90 63 60
        E 120 80 57 00
        E 0 80 63 00
        E 120 90 3d 60
        E 0 90 4a 60
        E 0 90 56 60
        E 0 90 62 60
        E 120 80 3d 00
        E 0 80 4a 00
        E 0 80 56 00
        E 0 80 62 00
        E 120 90 56 60
        E 0 90 62 60
        E 120 80 56 00
        E 0 80 62 00
        E 120 90 49 60
        E 0 90 55 60
        E 0 90 61 60
        E 120 80 49 00
        E 0 80 55 00
        E 0 80 61 00
        E 120 90 54 60
        E 0 90 60 60
        E 120 80 54 00
        E 0 80 60 00
        E 600 90 4a 60
        E 0 90 56 60
        E 0 90 62 60
        E 120 80 4a 00
        E 0 80 56 00
        E 0 80 62 00
        E 360 90 3c 60
        E 0 90 49 60
        E 0 90 55 60
        E 0 90 61 60
        E 120 80 3c 00
        E 0 80 49 00
        E 0 80 55 00
        E 0 80 61 00
        E 360 90 4a 60
        E 0 90 56 60
        E 0 90 62 60
        E 120 80 4a 00
        E 0 80 56 00
        E 0 80 62 00
        E 120 90 57 60
        E 0 90 63 60
        E 120 80 57 00
        E 0 80 63 00
        E 360 90 57 60
        E 0 90 63 60
        E 120 80 57 00
        E 0 80 63 00
        E 120 90 4a 60
        E 0 90 56 60
        E 0 90 62 60
        E 120 80 4a 00
        E 0 80 56 00
        E 0 80 62 00
        E 120 90 56 60
        E 0 90 62 60
        E 120 80 56 00
        E 0 80 62 00
        E 120 90 3c 60
        E 0 90 49 60
        E 0 90 55 60
        E 0 90 61 60
        E 120 80 3c 00
        E 0 80 49 00
        E 0 80 55 00
        E 0 80 61 00
        E 120 90 55 60
        E 0 90 61 60
        E 120 80 55 00
        E 0 80 61 00
        E 120 90 4a 60
        E 0 90 56 60
        E 0 90 62 60
        E 120 80 4a 00
        E 0 80 56 00
        E 0 80 62 00
        E 840 90 4a 60
        E 0 90 56 60
        E 0 90 62 60
        E 120 80 4a 00
        E 0 80 56 00
        E 0 80 62 00
        E 360 90 3c 60
        E 0 90 49 60
        E 0 90 55 60
        E 0 90 61 60
        E 120 80 3c 00
        E 0 80 49 00
        E 0 80 55 00
        E 0 80 61 00
        E 360 90 4a 60
        E 0 90 56 60
        E 0 90 62 60
        E 120 80 4a 00
        E 0 80 56 00
        E 0 80 62 00
        E 120 90 57 60
        E 0 90 63 60
        E 120 80 57 00
        E 0 80 63 00
        E 360 90 4b 60
        E 0 90 57 60
        E 0 90 63 60
        E 120 80 4b 00
        E 0 80 57 00
        E 0 80 63 00
        E 360 90 57 60
        E 0 90 63 60
        E 120 80 57 00
        E 0 80 63 00
        E 120 90 3d 60
        E 0 90 4a 60
        E 0 90 56 60
        E 0 90 62 60
        E 120 80 3d 00
        E 0 80 4a 00
        E 0 80 56 00
        E 0 80 62 00
        E 120 90 56 60
        E 0 90 62 60
        E 120 80 56 00
        E 0 80 62 00
        E 120 90 49 60
        E 0 90 55 60
        E 0 90 61 60
        E 120 80 49 00
        E 0 80 55 00
        E 0 80 61 00
        E 120 90 54 60
        E 0 90 60 60
        E 120 80 54 00
        E 0 80 60 00
        E 600 90 4a 60
        E 0 90 56 60
        E 0 90 62 60
        E 120 80 4a 00
        E 0 80 56 00
        E 0 80 62 00
        E 360 90 3c 60
        E 0 90 49 60
        E 0 90 55 60
        E 0 90 61 60
        E 120 80 3c 00
        E 0 80 49 00
        E 0 80 55 00
        E 0 80 61 00
        E 360 90 4a 60
        E 0 90 56 60
        E 0 90 62 60
        E 120 80 4a 00
        E 0 80 56 00
        E 0 80 62 00
        E 120 90 57 60
        E 0 90 63 60
        E 120 80 57 00
        E 0 80 63 00
        E 360 90 57 60
        E 0 90 63 60
        E 120 80 57 00
        E 0 80 63 00
        E 120 90 4a 60
        E 0 90 56 60
        E 0 90 62 60
        E 120 80 4a 00
        E 0 80 56 00
        E 0 80 62 00
        E 120 90 56 60
        E 0 90 62 60
        E 120 80 56 00
        E 0 80 62 00
        E 120 90 3c 60
        E 0 90 49 60
        E 0 90 55 60
        E 0 90 61 60
        E 120 80 3c 00
        E 0 80 49 00
        E 0 80 55 00
        E 0 80 61 00
        E 120 90 55 60
        E 0 90 61 60
        E 120 80 55 00
        E 0 80 61 00
        E 120 90 4a 60
        E 0 90 56 60
        E 0 90 62 60
        E 120 80 67 00
        E 0 80 4a 00
        E 0 80 56 00
        E 0 80 62 00
        <X 360 0
          /wFbaW50ZW5zZV0=
        >
        E 0 90 74 60
        E 480 90 4a 60
        E 0 90 56 60
        E 0 90 62 60
        E 120 80 4a 00
        E 0 80 56 00
        E 0 80 62 00
        E 360 90 3c 60
        E 0 90 49 60
        E 0 90 55 60
        E 0 90 61 60
        E 120 80 3c 00
        E 0 80 49 00
        E 0 80 55 00
        E 0 80 61 00
        E 360 90 4a 60
        E 0 90 56 60
        E 0 90 62 60
        E 120 80 4a 00
        E 0 80 56 00
        E 0 80 62 00
        E 120 90 57 60
        E 0 90 63 60
        E 120 80 57 00
        E 0 80 63 00
        E 360 90 4b 60
        E 0 90 57 60
        E 0 90 63 60
        E 120 80 4b 00
        E 0 80 57 00
        E 0 80 63 00
        E 360 90 55 60
        E 0 90 61 60
        E 120 80 55 00
        E 0 80 61 00
        E 120 90 40 60
        E 0 90 4c 60
        E 0 90 58 60
        E 0 90 64 60
        E 120 80 40 00
        E 0 80 4c 00
        E 0 80 58 00
        E 0 80 64 00
        E 120 90 58 60
        E 0 90 64 60
        E 120 80 58 00
        E 0 80 64 00
        E 120 90 49 60
        E 0 90 55 60
        E 0 90 61 60
        E 120 80 49 00
        E 0 80 55 00
        E 0 80 61 00
        E 120 90 49 60
        E 0 90 55 60
        E 0 90 61 60
        E 120 80 49 00
        E 0 80 55 00
        E 0 80 61 00
        E 240 80 74 00
        E 360 90 4a 60
        E 0 90 56 60
        E 0 90 62 60
        E 120 80 4a 00
        E 0 80 56 00
        E 0 80 62 00
        E 360 90 3c 60
        E 0 90 49 60
        E 0 90 55 60
        E 0 90 61 60
        E 120 80 3c 00
        E 0 80 49 00
        E 0 80 55 00
        E 0 80 61 00
        E 360 90 4a 60
        E 0 90 56 60
        E 0 90 62 60
        E 120 80 4a 00
        E 0 80 56 00
        E 0 80 62 00
        E 120 90 57 60
        E 0 90 63 60
        E 120 80 57 00
        E 0 80 63 00
        E 360 90 57 60
        E 0 90 63 60
        E 120 80 57 00
        E 0 80 63 00
        E 120 90 4a 60
        E 0 90 56 60
        E 0 90 62 60
        E 120 80 4a 00
        E 0 80 56 00
        E 0 80 62 00
        E 120 90 56 60
        E 0 90 62 60
        E 120 80 56 00
        E 0 80 62 00
        E 120 90 3c 60
        E 0 90 49 60
        E 0 90 55 60
        E 0 90 61 60
        E 120 80 3c 00
        E 0 80 49 00
        E 0 80 55 00
        E 0 80 61 00
        E 120 90 55 60
        E 0 90 61 60
        E 120 80 55 00
        E 0 80 61 00
        E 120 90 3c 60
        E 0 90 48 60
        E 0 90 54 60
        E 0 90 60 60
        E 120 80 3c 00
        E 0 80 48 00
        E 0 80 54 00
        E 0 80 60 00
        E 120 90 48 60
        E 0 90 54 60
        E 0 90 60 60
        E 120 80 48 00
        E 0 80 54 00
        E 0 80 60 00
        E 600 90 4a 60
        E 0 90 56 60
        E 0 90 62 60
        E 120 80 4a 00
        E 0 80 56 00
        E 0 80 62 00
        E 360 90 3c 60
        E 0 90 49 60
        E 0 90 55 60
        E 0 90 61 60
        E 120 80 3c 00
        E 0 80 49 00
        E 0 80 55 00
        E 0 80 61 00
        E 360 90 4a 60
        E 0 90 56 60
        E 0 90 62 60
        E 120 80 4a 00
        E 0 80 56 00
        E 0 80 62 00
        E 120 90 57 60
        E 0 90 63 60
        E 120 80 57 00
        E 0 80 63 00
        E 360 90 4b 60
        E 0 90 57 60
        E 0 90 63 60
        E 120 80 4b 00
        E 0 80 57 00
        E 0 80 63 00
        E 360 90 55 60
        E 0 90 61 60
        E 120 80 55 00
        E 0 80 61 00
        E 120 90 40 60
        E 0 90 4c 60
        E 0 90 58 60
        E 0 90 64 60
        E 120 80 40 00
        E 0 80 4c 00
        E 0 80 58 00
        E 0 80 64 00
        E 120 90 58 60
        E 0 90 64 60
        E 120 80 58 00
        E 0 80 64 00
        E 120 90 49 60
        E 0 90 55 60
        E 0 90 61 60
        E 120 80 49 00
        E 0 80 55 00
        E 0 80 61 00
        E 120 90 49 60
        E 0 90 55 60
        E 0 90 61 60
        E 120 80 49 00
        E 0 80 55 00
        E 0 80 61 00
        E 600 90 4a 60
        E 0 90 56 60
        E 0 90 62 60
        E 120 80 4a 00
        E 0 80 56 00
        E 0 80 62 00
        E 360 90 3c 60
        E 0 90 49 60
        E 0 90 55 60
        E 0 90 61 60
        E 120 80 3c 00
        E 0 80 49 00
        E 0 80 55 00
        E 0 80 61 00
        E 360 90 4a 60
        E 0 90 56 60
        E 0 90 62 60
        E 120 80 4a 00
        E 0 80 56 00
        E 0 80 62 00
        E 120 90 57 60
        E 0 90 63 60
        E 120 80 57 00
        E 0 80 63 00
        E 360 90 57 60
        E 0 90 63 60
        E 120 80 57 00
        E 0 80 63 00
        E 120 90 4a 60
        E 0 90 56 60
        E 0 90 62 60
        E 120 80 4a 00
        E 0 80 56 00
        E 0 80 62 00
        E 120 90 56 60
        E 0 90 62 60
        E 120 80 56 00
        E 0 80 62 00
        E 120 90 3c 60
        E 0 90 49 60
        E 0 90 55 60
        E 0 90 61 60
        E 120 80 3c 00
        E 0 80 49 00
        E 0 80 55 00
        E 0 80 61 00
        E 120 90 55 60
        E 0 90 61 60
        E 120 80 55 00
        E 0 80 61 00
        E 120 90 4a 60
        E 0 90 56 60
        E 0 90 62 60
        E 120 80 4a 00
        E 0 80 56 00
        E 0 80 62 00
        E 840 90 4a 60
        E 0 90 56 60
        E 0 90 62 60
        E 120 80 4a 00
        E 0 80 56 00
        E 0 80 62 00
        E 360 90 3c 60
        E 0 90 49 60
        E 0 90 55 60
        E 0 90 61 60
        E 120 80 3c 00
        E 0 80 49 00
        E 0 80 55 00
        E 0 80 61 00
        E 360 90 4a 60
        E 0 90 56 60
        E 0 90 62 60
        E 120 80 4a 00
        E 0 80 56 00
        E 0 80 62 00
        E 120 90 57 60
        E 0 90 63 60
        E 120 80 57 00
        E 0 80 63 00
        E 360 90 57 60
        E 0 90 63 60
        E 120 80 57 00
        E 0 80 63 00
        E 120 90 4a 60
        E 0 90 56 60
        E 0 90 62 60
        E 120 80 4a 00
        E 0 80 56 00
        E 0 80 62 00
        E 120 90 56 60
        E 0 90 62 60
        E 120 80 56 00
        E 0 80 62 00
        E 120 90 3c 60
        E 0 90 49 60
        E 0 90 55 60
        E 0 90 61 60
        E 120 80 3c 00
        E 0 80 49 00
        E 0 80 55 00
        E 0 80 61 00
        E 120 90 55 60
        E 0 90 61 60
        E 120 80 55 00
        E 0 80 61 00
        E 120 90 4a 60
        E 0 90 56 60
        E 0 90 62 60
        E 120 80 4a 00
        E 0 80 56 00
        E 0 80 62 00
        E 840 90 4a 60
        E 0 90 56 60
        E 0 90 62 60
        E 120 80 4a 00
        E 0 80 56 00
        E 0 80 62 00
        E 360 90 3c 60
        E 0 90 49 60
        E 0 90 55 60
        E 0 90 61 60
        E 120 80 3c 00
        E 0 80 49 00
        E 0 80 55 00
        E 0 80 61 00
        E 360 90 4a 60
        E 0 90 56 60
        E 0 90 62 60
        E 120 80 4a 00
        E 0 80 56 00
        E 0 80 62 00
        E 120 90 57 60
        E 0 90 63 60
        E 120 80 57 00
        E 0 80 63 00
        E 120 90 3e 60
        E 0 90 4b 60
        E 0 90 57 60
        E 0 90 63 60
        E 5760 80 3e 00
        E 0 80 4b 00
        E 0 80 57 00
        E 0 80 63 00
        <X 120 0
          /wFbaWRsZV9yZWFsdGltZV0=
        >
        E 3720 b0 7b 00
        GUID {E4CB3D05-53F1-4DEB-ACDC-2CC4E1318B3A}
        IGNTEMPO 0 120.00000000 4 4
        SRCCOLOR 115
        VELLANE 132 100 0
        COLORMAP "C:\Program Files\REAPER (x64)\Data\color_maps\rockband_guitarbass.png"
        CFGEDITVIEW 0.000000 0.003322 0 12 0 0 0
        CFGEDIT 1 1 0 1 1 0 1 1 1 1 1 0.12500000 53 44 1253 718 0 2 0 1 0.00000000 0 1 0 0 0.500000 0 0 1.000000 64
        KEYSNAP 0 7 "102030050700" 0 "Pentatonic"
        EVTFILTER 0 -1 -1 -1 -1 0 1 0 0 -1.00000000 -1.00000000
      >
    >
  >
  <TRACK '{46D2E519-A6DF-4C79-ACED-4678E3540944}'
    NAME "PART BASS"
    PEAKCOL 16576
    BEAT -1
    AUTOMODE 0
    VOLPAN 1.00000000000000 0.00000000000000 -1.00000000000000 -1.00000000000000 1.00000000000000
    MUTESOLO 0 0 0
    IPHASE 0
    ISBUS 0 0
    BUSCOMP 0 0
    SHOWINMIX 1 0.666700 0.500000 1 0.500000 -1 -1 -1
    FREEMODE 0
    SEL 0
    REC 0 0 0 0 0 0 0
    VU 2
    TRACKHEIGHT 0 0
    INQ 0 0 0 0.5000000000 100 0 0 100
    NCHAN 2
    FX 1
    TRACKID {46D2E519-A6DF-4C79-ACED-4678E3540944}
    PERF 0
    MIDIOUT -1
    <MIDINOTENAMES
      0 127 "TRILL MARKER"
      0 126 "TREMOLO MARKER"
      0 125 "---"
      0 124 "BRE"
      0 123 "BRE"
      0 122 "BRE"
      0 121 "BRE"
      0 120 "BRE (use all 5)"
      0 119 "----"
      0 116 "OVERDRIVE"
      0 115 "----"
      0 103 "Solo Marker"
      0 102 "Force HOPO Off"
      0 101 "Force HOPO On"
      0 100 "EXPERT Orange"
      0 99 "EXPERT Blue"
      0 98 "EXPERT Yellow"
      0 97 "EXPERT Red"
      0 96 "EXPERT Green"
      0 95 "----"
      0 90 "Force HOPO Off"
      0 89 "Force HOPO On"
      0 88 "HARD Orange"
      0 87 "HARD Blue"
      0 86 "HARD Yellow"
      0 85 "HARD Red"
      0 84 "HARD Green"
      0 77 "----"
      0 76 "MEDIUM Orange"
      0 75 "MEDIUM Blue"
      0 74 "MEDIUM Yellow"
      0 73 "MEDIUM Red"
      0 72 "MEDIUM Green"
      0 65 "----"
      0 64 "EASY Orange"
      0 63 "EASY Blue"
      0 62 "EASY Yellow"
      0 61 "EASY Red"
      0 60 "EASY Green"
      0 59 "Fret 12"
      0 57 "Fret 11"
      0 56 "Fret 10"
      0 55 "Fret 9"
      0 53 "Fret 8"
      0 52 "Fret 7"
      0 50 "Fret 6"
      0 49 "Fret 5"
      0 47 "Fret 4"
      0 45 "Fret 3"
      0 43 "Fret 2"
      0 40 "Fret 1"
    >
    MAINSEND 1 0
    <FXCHAIN
      WNDRECT 0 43 891 559
      SHOW 0
      LASTSEL 0
      DOCKED 0
      BYPASS 0 0
      <VST "VSTi: RBN Preview (RBN)" "rbprev_vst64.dll" 0 ""
        dnBicu5e7f4AAAAAAgAAAAEAAAAAAAAAAgAAAAAAAAAEAAAAAQAAAA==
        AAAQAAMAqgAAABAAAAA=
      >
      FLOATPOS 0 0 0 0
      FXID {D447CFC0-3226-4C51-8687-8CD68E41D17F}
      WAK 0
    >
    <ITEM
      POSITION 0.00000000000000
      SNAPOFFS 0.00000000000000
      LENGTH 194.42554622500001
      LOOP 0
      ALLTAKES 0
      SEL 0
      FADEIN 1 0.000000 0.000000 1 0
      FADEOUT 1 0.000000 0.000000 1 0
      MUTE 0
      IGUID {2B43867B-E3FC-4316-8653-EC97DE367E41}
      IID 4
      NAME "PART BASS"
      VOLPAN 1.000000 0.000000 1.000000 -1.000000
      SOFFS 0.00000000000000 0.00000000000000
      PLAYRATE 1.00000000000000 1 0.00000000000000 -1
      CHANMODE 0
      GUID {B0844CFD-1126-4269-A7A2-462CB742737F}
      <SOURCE MIDI
        HASDATA 1 480 QN
        POOLEDEVTS {1C0C83EB-D9CC-4B00-861A-2636998F4ADE}
        <X 0 0
          /wNQQVJUIEJBU1M=
        >
        <X 4560 0
          /wFbaWRsZV0=
        >
        <X 960 0
          /wFbbWFwIFN0cnVtTWFwX1BpY2td
        >
        <X 0 0
          /wFbcGxheV0=
        >
        E 240 90 61 60
        E 0 90 55 60
        E 0 90 49 60
        E 0 90 3d 60
        E 480 80 49 00
        E 0 80 3d 00
        E 360 80 61 00
        E 0 80 55 00
        E 120 90 61 60
        E 0 90 55 60
        E 0 90 49 60
        E 0 90 3d 60
        E 480 80 49 00
        E 0 80 3d 00
        E 360 80 61 00
        E 0 80 55 00
        E 120 90 61 60
        E 0 90 55 60
        E 0 90 49 60
        E 0 90 3d 60
        E 120 80 49 00
        E 0 80 3d 00
        E 480 80 61 00
        E 0 80 55 00
        E 120 90 63 60
        E 0 90 57 60
        E 0 90 4b 60
        E 120 80 63 00
        E 0 80 57 00
        E 0 80 4b 00
        E 120 90 64 60
        E 0 90 65 60
        E 0 90 58 60
        E 0 90 4b 60
        E 0 90 3e 60
        E 120 80 64 00
        E 0 80 65 00
        E 0 80 58 00
        E 0 80 4b 00
        E 0 80 3e 00
        E 360 90 62 60
        E 0 90 56 60
        E 0 90 4a 60
        E 120 80 62 00
        E 0 80 56 00
        E 0 80 4a 00
        E 360 90 61 60
        E 0 90 55 60
        E 0 90 49 60
        E 0 90 3d 60
        E 480 80 49 00
        E 0 80 3d 00
        E 360 80 61 00
        E 0 80 55 00
        E 120 90 61 60
        E 0 90 55 60
        E 0 90 49 60
        E 0 90 3d 60
        E 480 80 49 00
        E 0 80 3d 00
        E 360 80 61 00
        E 0 80 55 00
        E 120 90 61 60
        E 0 90 55 60
        E 0 90 49 60
        E 0 90 3d 60
        E 120 80 49 00
        E 0 80 3d 00
        E 480 80 61 00
        E 0 80 55 00
        E 120 90 63 60
        E 0 90 57 60
        E 0 90 4b 60
        E 120 80 63 00
        E 0 80 57 00
        E 0 80 4b 00
        E 120 90 64 60
        E 0 90 65 60
        E 0 90 58 60
        E 0 90 4b 60
        E 0 90 3e 60
        E 120 80 64 00
        E 0 80 65 00
        E 0 80 58 00
        E 0 80 4b 00
        E 0 80 3e 00
        E 360 90 62 60
        E 0 90 56 60
        E 0 90 4a 60
        E 120 80 62 00
        E 0 80 56 00
        E 0 80 4a 00
        E 360 90 61 60
        E 0 90 55 60
        E 0 90 49 60
        E 0 90 3d 60
        E 480 80 49 00
        E 0 80 3d 00
        E 360 80 61 00
        E 0 80 55 00
        E 120 90 61 60
        E 0 90 55 60
        E 0 90 49 60
        E 0 90 3d 60
        E 480 80 49 00
        E 0 80 3d 00
        E 360 80 61 00
        E 0 80 55 00
        E 120 90 61 60
        E 0 90 55 60
        E 0 90 49 60
        E 0 90 3d 60
        E 120 80 49 00
        E 0 80 3d 00
        E 480 80 61 00
        E 0 80 55 00
        E 120 90 63 60
        E 0 90 57 60
        E 0 90 4b 60
        E 120 80 63 00
        E 0 80 57 00
        E 0 80 4b 00
        E 120 90 64 60
        E 0 90 65 60
        E 0 90 58 60
        E 0 90 4b 60
        E 0 90 3e 60
        E 120 80 64 00
        E 0 80 65 00
        E 0 80 58 00
        E 0 80 4b 00
        E 0 80 3e 00
        E 360 90 62 60
        E 0 90 56 60
        E 0 90 4a 60
        E 120 80 62 00
        E 0 80 56 00
        E 0 80 4a 00
        E 360 90 61 60
        E 0 90 55 60
        E 0 90 49 60
        E 0 90 3d 60
        E 480 80 49 00
        E 0 80 3d 00
        E 360 80 61 00
        E 0 80 55 00
        E 120 90 61 60
        E 0 90 55 60
        E 0 90 49 60
        E 0 90 3d 60
        E 480 80 49 00
        E 0 80 3d 00
        E 360 80 61 00
        E 0 80 55 00
        E 120 90 61 60
        E 0 90 74 60
        E 0 90 55 60
        E 0 90 49 60
        E 0 90 3d 60
        E 120 80 49 00
        E 0 80 3d 00
        E 480 80 61 00
        E 0 80 55 00
        E 120 90 63 60
        E 0 90 57 60
        E 0 90 4b 60
        E 120 80 63 00
        E 0 80 57 00
        E 0 80 4b 00
        E 120 90 64 60
        E 0 90 65 60
        E 0 90 58 60
        E 0 90 4b 60
        E 0 90 3e 60
        E 120 80 64 00
        E 0 80 65 00
        E 0 80 58 00
        E 0 80 4b 00
        E 0 80 3e 00
        E 360 90 62 60
        E 0 90 56 60
        E 0 90 4a 60
        E 120 80 62 00
        E 0 80 56 00
        E 0 80 4a 00
        E 120 90 60 60
        E 0 90 54 60
        E 120 80 60 00
        E 0 80 54 00
        E 120 90 61 60
        E 0 90 55 60
        E 0 90 49 60
        E 0 90 3d 60
        E 120 80 74 00
        E 360 80 49 00
        E 0 80 3d 00
        E 120 80 61 00
        E 0 80 55 00
        E 120 90 60 60
        E 0 90 54 60
        E 120 80 60 00
        E 0 80 54 00
        E 120 90 61 60
        E 0 90 55 60
        E 0 90 49 60
        E 0 90 3d 60
        E 480 80 49 00
        E 0 80 3d 00
        E 120 80 61 00
        E 0 80 55 00
        E 120 90 60 60
        E 0 90 54 60
        E 120 80 60 00
        E 0 80 54 00
        E 120 90 61 60
        E 0 90 55 60
        E 0 90 49 60
        E 0 90 3d 60
        E 120 80 49 00
        E 0 80 3d 00
        E 480 80 61 00
        E 0 80 55 00
        E 120 90 63 60
        E 0 90 57 60
        E 0 90 4b 60
        E 120 80 63 00
        E 0 80 57 00
        E 0 80 4b 00
        E 120 90 64 60
        E 0 90 65 60
        E 0 90 58 60
        E 0 90 4b 60
        E 0 90 3e 60
        E 120 80 64 00
        E 0 80 65 00
        E 0 80 58 00
        E 0 80 4b 00
        E 0 80 3e 00
        E 360 90 62 60
        E 0 90 56 60
        E 0 90 4a 60
        E 120 80 62 00
        E 0 80 56 00
        E 0 80 4a 00
        E 360 90 61 60
        E 0 90 55 60
        E 0 90 49 60
        E 0 90 3d 60
        E 480 80 49 00
        E 0 80 3d 00
        E 120 80 61 00
        E 0 80 55 00
        E 120 90 60 60
        E 0 90 54 60
        E 120 80 60 00
        E 0 80 54 00
        E 120 90 61 60
        E 0 90 55 60
        E 0 90 49 60
        E 0 90 3d 60
        E 480 80 49 00
        E 0 80 3d 00
        E 120 80 61 00
        E 0 80 55 00
        E 120 90 60 60
        E 0 90 54 60
        E 120 80 60 00
        E 0 80 54 00
        E 120 90 61 60
        E 0 90 55 60
        E 0 90 49 60
        E 0 90 3d 60
        E 120 80 49 00
        E 0 80 3d 00
        E 480 80 61 00
        E 0 80 55 00
        E 120 90 63 60
        E 0 90 57 60
        E 0 90 4b 60
        E 120 80 63 00
        E 0 80 57 00
        E 0 80 4b 00
        E 120 90 64 60
        E 0 90 65 60
        E 0 90 58 60
        E 0 90 4b 60
        E 0 90 3e 60
        E 120 80 64 00
        E 0 80 65 00
        E 0 80 58 00
        E 0 80 4b 00
        E 0 80 3e 00
        E 360 90 62 60
        E 0 90 56 60
        E 0 90 4a 60
        E 120 80 62 00
        E 0 80 56 00
        E 0 80 4a 00
        E 120 90 60 60
        E 0 90 54 60
        E 120 80 60 00
        E 0 80 54 00
        E 120 90 61 60
        E 0 90 55 60
        E 0 90 49 60
        E 0 90 3d 60
        E 480 80 49 00
        E 0 80 3d 00
        E 120 80 61 00
        E 0 80 55 00
        E 120 90 60 60
        E 0 90 54 60
        E 120 80 60 00
        E 0 80 54 00
        E 120 90 61 60
        E 0 90 55 60
        E 0 90 49 60
        E 0 90 3d 60
        E 480 80 49 00
        E 0 80 3d 00
        E 120 80 61 00
        E 0 80 55 00
        E 120 90 60 60
        E 0 90 54 60
        E 120 80 60 00
        E 0 80 54 00
        E 120 90 61 60
        E 0 90 55 60
        E 0 90 49 60
        E 0 90 3d 60
        E 120 80 49 00
        E 0 80 3d 00
        E 480 80 61 00
        E 0 80 55 00
        E 120 90 63 60
        E 0 90 57 60
        E 0 90 4b 60
        E 120 80 63 00
        E 0 80 57 00
        E 0 80 4b 00
        E 120 90 64 60
        E 0 90 65 60
        E 0 90 58 60
        E 0 90 4b 60
        E 0 90 3e 60
        E 120 80 64 00
        E 0 80 65 00
        E 0 80 58 00
        E 0 80 4b 00
        E 0 80 3e 00
        E 360 90 62 60
        E 0 90 56 60
        E 0 90 4a 60
        E 120 80 62 00
        E 0 80 56 00
        E 0 80 4a 00
        E 360 90 61 60
        E 0 90 55 60
        E 0 90 49 60
        E 0 90 3d 60
        E 480 80 49 00
        E 0 80 3d 00
        E 120 80 61 00
        E 0 80 55 00
        E 120 90 60 60
        E 0 90 54 60
        E 120 80 60 00
        E 0 80 54 00
        E 120 90 61 60
        E 0 90 55 60
        E 0 90 49 60
        E 0 90 3d 60
        E 480 80 49 00
        E 0 80 3d 00
        E 120 80 61 00
        E 0 80 55 00
        E 120 90 60 60
        E 0 90 54 60
        E 120 80 60 00
        E 0 80 54 00
        E 120 90 61 60
        E 0 90 55 60
        E 0 90 49 60
        E 0 90 3d 60
        E 120 80 49 00
        E 0 80 3d 00
        E 360 90 74 60
        E 120 80 61 00
        E 0 80 55 00
        E 120 90 63 60
        E 0 90 57 60
        E 0 90 4b 60
        E 120 80 63 00
        E 0 80 57 00
        E 0 80 4b 00
        E 120 90 64 60
        E 0 90 65 60
        E 0 90 58 60
        E 0 90 4b 60
        E 0 90 3e 60
        E 120 80 64 00
        E 0 80 65 00
        E 0 80 58 00
        E 0 80 4b 00
        E 0 80 3e 00
        E 360 90 60 60
        E 0 90 54 60
        E 0 90 48 60
        E 120 80 60 00
        E 0 80 54 00
        E 0 80 48 00
        E 360 90 61 60
        E 0 90 55 60
        E 0 90 49 60
        E 0 90 3d 60
        E 120 80 74 00
        E 2040 80 49 00
        E 0 80 3d 00
        E 240 80 61 00
        E 0 80 55 00
        E 240 90 63 60
        E 0 90 57 60
        E 0 90 4b 60
        E 120 80 63 00
        E 0 80 57 00
        E 0 80 4b 00
        E 120 90 64 60
        E 0 90 65 60
        E 0 90 58 60
        E 0 90 4b 60
        E 0 90 3e 60
        E 120 80 64 00
        E 0 80 65 00
        E 0 80 58 00
        E 0 80 4b 00
        E 0 80 3e 00
        E 360 90 61 60
        E 0 90 55 60
        E 0 90 49 60
        E 120 80 61 00
        E 0 80 55 00
        E 0 80 49 00
        E 360 90 62 60
        E 0 90 56 60
        E 0 90 4a 60
        E 0 90 3e 60
        E 3360 80 62 00
        E 0 80 56 00
        E 0 80 4a 00
        E 0 80 3e 00
        <X 480 0
          /wFbaW50ZW5zZV0=
        >
        E 0 90 63 60
        E 0 90 57 60
        E 0 90 4b 60
        E 0 90 3e 60
        E 120 80 63 00
        E 0 80 57 00
        E 0 80 4b 00
        E 0 80 3e 00
        E 120 90 63 60
        E 0 90 57 60
        E 0 90 4b 60
        E 120 80 63 00
        E 0 80 57 00
        E 0 80 4b 00
        E 120 90 63 60
        E 0 90 57 60
        E 0 90 4b 60
        E 0 90 3e 60
        E 120 80 63 00
        E 0 80 57 00
        E 0 80 4b 00
        E 0 80 3e 00
        E 120 90 63 60
        E 0 90 57 60
        E 0 90 4b 60
        E 120 80 63 00
        E 0 80 57 00
        E 0 80 4b 00
        E 120 90 63 60
        E 0 90 57 60
        E 0 90 4b 60
        E 0 90 3e 60
        E 120 80 63 00
        E 0 80 57 00
        E 0 80 4b 00
        E 0 80 3e 00
        E 120 90 63 60
        E 0 90 57 60
        E 0 90 4b 60
        E 120 80 63 00
        E 0 80 57 00
        E 0 80 4b 00
        E 120 90 63 60
        E 0 90 57 60
        E 0 90 4b 60
        E 0 90 3e 60
        E 120 80 63 00
        E 0 80 57 00
        E 0 80 4b 00
        E 0 80 3e 00
        E 120 90 63 60
        E 0 90 57 60
        E 0 90 4b 60
        E 120 80 63 00
        E 0 80 57 00
        E 0 80 4b 00
        E 120 90 63 60
        E 0 90 57 60
        E 0 90 4b 60
        E 0 90 3e 60
        E 120 80 63 00
        E 0 80 57 00
        E 0 80 4b 00
        E 0 80 3e 00
        E 120 90 63 60
        E 0 90 57 60
        E 0 90 4b 60
        E 120 80 63 00
        E 0 80 57 00
        E 0 80 4b 00
        E 120 90 63 60
        E 0 90 57 60
        E 0 90 4b 60
        E 0 90 3e 60
        E 120 80 63 00
        E 0 80 57 00
        E 0 80 4b 00
        E 0 80 3e 00
        E 120 90 63 60
        E 0 90 57 60
        E 0 90 4b 60
        E 120 80 63 00
        E 0 80 57 00
        E 0 80 4b 00
        E 120 90 63 60
        E 0 90 57 60
        E 0 90 4b 60
        E 0 90 3e 60
        E 120 80 63 00
        E 0 80 57 00
        E 0 80 4b 00
        E 0 80 3e 00
        E 120 90 63 60
        E 0 90 57 60
        E 0 90 4b 60
        E 120 80 63 00
        E 0 80 57 00
        E 0 80 4b 00
        E 120 90 63 60
        E 0 90 57 60
        E 0 90 4b 60
        E 120 80 63 00
        E 0 80 57 00
        E 0 80 4b 00
        E 120 90 63 60
        E 0 90 57 60
        E 120 80 63 00
        E 0 80 57 00
        E 120 90 60 60
        E 0 90 54 60
        E 0 90 48 60
        E 0 90 3c 60
        E 120 80 60 00
        E 0 80 54 00
        E 0 80 48 00
        E 0 80 3c 00
        E 120 90 60 60
        E 0 90 54 60
        E 0 90 48 60
        E 120 80 60 00
        E 0 80 54 00
        E 0 80 48 00
        E 120 90 60 60
        E 0 90 54 60
        E 0 90 48 60
        E 0 90 3c 60
        E 120 80 60 00
        E 0 80 54 00
        E 0 80 48 00
        E 0 80 3c 00
        E 120 90 60 60
        E 0 90 54 60
        E 0 90 48 60
        E 120 80 60 00
        E 0 80 54 00
        E 0 80 48 00
        E 120 90 60 60
        E 0 90 54 60
        E 0 90 48 60
        E 0 90 3c 60
        E 120 80 60 00
        E 0 80 54 00
        E 0 80 48 00
        E 0 80 3c 00
        E 120 90 60 60
        E 0 90 54 60
        E 0 90 48 60
        E 120 80 60 00
        E 0 80 54 00
        E 0 80 48 00
        E 120 90 60 60
        E 0 90 54 60
        E 0 90 48 60
        E 0 90 3c 60
        E 120 80 60 00
        E 0 80 54 00
        E 0 80 48 00
        E 0 80 3c 00
        E 120 90 60 60
        E 0 90 54 60
        E 0 90 48 60
        E 120 80 60 00
        E 0 80 54 00
        E 0 80 48 00
        E 120 90 60 60
        E 0 90 54 60
        E 0 90 48 60
        E 0 90 3c 60
        E 120 80 60 00
        E 0 80 54 00
        E 0 80 48 00
        E 0 80 3c 00
        E 120 90 60 60
        E 0 90 54 60
        E 0 90 48 60
        E 120 80 60 00
        E 0 80 54 00
        E 0 80 48 00
        E 120 90 60 60
        E 0 90 54 60
        E 0 90 48 60
        E 0 90 3c 60
        E 120 80 60 00
        E 0 80 54 00
        E 0 80 48 00
        E 0 80 3c 00
        E 120 90 60 60
        E 0 90 54 60
        E 0 90 48 60
        E 120 80 60 00
        E 0 80 54 00
        E 0 80 48 00
        E 120 90 60 60
        E 0 90 54 60
        E 0 90 48 60
        E 0 90 3c 60
        E 120 80 60 00
        E 0 80 54 00
        E 0 80 48 00
        E 0 80 3c 00
        E 120 90 60 60
        E 0 90 54 60
        E 0 90 48 60
        E 120 80 60 00
        E 0 80 54 00
        E 0 80 48 00
        E 120 90 60 60
        E 0 90 54 60
        E 0 90 48 60
        E 120 80 60 00
        E 0 80 54 00
        E 0 80 48 00
        E 120 90 61 60
        E 0 90 55 60
        E 120 80 61 00
        E 0 80 55 00
        E 0 90 62 60
        E 0 90 65 60
        E 120 80 62 00
        E 0 80 65 00
        E 0 90 63 60
        E 0 90 57 60
        E 0 90 4b 60
        E 0 90 3e 60
        E 120 80 63 00
        E 0 80 57 00
        E 0 80 4b 00
        E 0 80 3e 00
        E 120 90 63 60
        E 0 90 57 60
        E 0 90 4b 60
        E 120 80 63 00
        E 0 80 57 00
        E 0 80 4b 00
        E 120 90 63 60
        E 0 90 57 60
        E 0 90 4b 60
        E 0 90 3e 60
        E 120 80 63 00
        E 0 80 57 00
        E 0 80 4b 00
        E 0 80 3e 00
        E 120 90 63 60
        E 0 90 57 60
        E 0 90 4b 60
        E 120 80 63 00
        E 0 80 57 00
        E 0 80 4b 00
        E 120 90 63 60
        E 0 90 57 60
        E 0 90 4b 60
        E 0 90 3e 60
        E 120 80 63 00
        E 0 80 57 00
        E 0 80 4b 00
        E 0 80 3e 00
        E 120 90 63 60
        E 0 90 57 60
        E 0 90 4b 60
        E 120 80 63 00
        E 0 80 57 00
        E 0 80 4b 00
        E 120 90 63 60
        E 0 90 57 60
        E 0 90 4b 60
        E 0 90 3e 60
        E 120 80 63 00
        E 0 80 57 00
        E 0 80 4b 00
        E 0 80 3e 00
        E 120 90 63 60
        E 0 90 57 60
        E 0 90 4b 60
        E 120 80 63 00
        E 0 80 57 00
        E 0 80 4b 00
        E 120 90 63 60
        E 0 90 74 60
        E 0 90 57 60
        E 0 90 4b 60
        E 0 90 3e 60
        E 120 80 63 00
        E 0 80 57 00
        E 0 80 4b 00
        E 0 80 3e 00
        E 120 90 63 60
        E 0 90 57 60
        E 0 90 4b 60
        E 120 80 63 00
        E 0 80 57 00
        E 0 80 4b 00
        E 120 90 63 60
        E 0 90 57 60
        E 0 90 4b 60
        E 0 90 3e 60
        E 120 80 63 00
        E 0 80 57 00
        E 0 80 4b 00
        E 0 80 3e 00
        E 120 90 63 60
        E 0 90 57 60
        E 0 90 4b 60
        E 120 80 63 00
        E 0 80 57 00
        E 0 80 4b 00
        E 120 90 63 60
        E 0 90 57 60
        E 0 90 4b 60
        E 0 90 3e 60
        E 120 80 63 00
        E 0 80 57 00
        E 0 80 4b 00
        E 0 80 3e 00
        E 120 90 63 60
        E 0 90 57 60
        E 0 90 4b 60
        E 120 80 63 00
        E 0 80 57 00
        E 0 80 4b 00
        E 120 90 63 60
        E 0 90 57 60
        E 0 90 4b 60
        E 120 80 63 00
        E 0 80 57 00
        E 0 80 4b 00
        E 120 90 63 60
        E 0 90 57 60
        E 120 80 63 00
        E 0 80 57 00
        E 0 90 62 60
        E 0 90 65 60
        E 120 80 62 00
        E 0 80 65 00
        E 0 90 60 60
        E 0 90 54 60
        E 0 90 48 60
        E 0 90 3c 60
        E 120 80 74 00
        E 0 80 60 00
        E 0 80 54 00
        E 0 80 48 00
        E 0 80 3c 00
        E 120 90 60 60
        E 0 90 54 60
        E 0 90 48 60
        E 120 80 60 00
        E 0 80 54 00
        E 0 80 48 00
        E 120 90 60 60
        E 0 90 54 60
        E 0 90 48 60
        E 0 90 3c 60
        E 120 80 60 00
        E 0 80 54 00
        E 0 80 48 00
        E 0 80 3c 00
        E 120 90 60 60
        E 0 90 54 60
        E 0 90 48 60
        E 120 80 60 00
        E 0 80 54 00
        E 0 80 48 00
        E 120 90 60 60
        E 0 90 54 60
        E 0 90 48 60
        E 0 90 3c 60
        E 120 80 60 00
        E 0 80 54 00
        E 0 80 48 00
        E 0 80 3c 00
        E 120 90 60 60
        E 0 90 54 60
        E 0 90 48 60
        E 120 80 60 00
        E 0 80 54 00
        E 0 80 48 00
        E 120 90 60 60
        E 0 90 54 60
        E 0 90 48 60
        E 0 90 3c 60
        E 120 80 60 00
        E 0 80 54 00
        E 0 80 48 00
        E 0 80 3c 00
        E 120 90 60 60
        E 0 90 54 60
        E 0 90 48 60
        E 120 80 60 00
        E 0 80 54 00
        E 0 80 48 00
        E 120 90 60 60
        E 0 90 54 60
        E 0 90 48 60
        E 0 90 3c 60
        E 120 80 60 00
        E 0 80 54 00
        E 0 80 48 00
        E 0 80 3c 00
        E 120 90 60 60
        E 0 90 54 60
        E 0 90 48 60
        E 120 80 60 00
        E 0 80 54 00
        E 0 80 48 00
        E 120 90 60 60
        E 0 90 54 60
        E 0 90 48 60
        E 0 90 3c 60
        E 120 80 60 00
        E 0 80 54 00
        E 0 80 48 00
        E 0 80 3c 00
        E 120 90 60 60
        E 0 90 54 60
        E 0 90 48 60
        E 120 80 60 00
        E 0 80 54 00
        E 0 80 48 00
        E 120 90 60 60
        E 0 90 54 60
        E 0 90 48 60
        E 0 90 3c 60
        E 120 80 60 00
        E 0 80 54 00
        E 0 80 48 00
        E 0 80 3c 00
        E 120 90 60 60
        E 0 90 54 60
        E 0 90 48 60
        E 120 80 60 00
        E 0 80 54 00
        E 0 80 48 00
        E 120 90 60 60
        E 0 90 54 60
        E 0 90 48 60
        E 120 80 60 00
        E 0 80 54 00
        E 0 80 48 00
        E 120 90 60 60
        E 0 90 54 60
        E 120 80 60 00
        E 0 80 54 00
        E 120 90 62 60
        E 0 90 56 60
        E 0 90 4a 60
        E 0 90 3e 60
        E 120 80 62 00
        E 0 80 56 00
        E 0 80 4a 00
        E 0 80 3e 00
        E 120 90 62 60
        E 0 90 56 60
        E 0 90 4a 60
        E 120 80 62 00
        E 0 80 56 00
        E 0 80 4a 00
        E 120 90 62 60
        E 0 90 56 60
        E 0 90 4a 60
        E 0 90 3e 60
        E 120 80 62 00
        E 0 80 56 00
        E 0 80 4a 00
        E 0 80 3e 00
        E 120 90 62 60
        E 0 90 56 60
        E 0 90 4a 60
        E 120 80 62 00
        E 0 80 56 00
        E 0 80 4a 00
        E 120 90 62 60
        E 0 90 56 60
        E 0 90 4a 60
        E 0 90 3e 60
        E 120 80 62 00
        E 0 80 56 00
        E 0 80 4a 00
        E 0 80 3e 00
        E 120 90 62 60
        E 0 90 56 60
        E 0 90 4a 60
        E 120 80 62 00
        E 0 80 56 00
        E 0 80 4a 00
        E 120 90 62 60
        E 0 90 56 60
        E 0 90 4a 60
        E 120 80 62 00
        E 0 80 56 00
        E 0 80 4a 00
        E 120 90 62 60
        E 0 90 56 60
        E 120 80 62 00
        E 0 80 56 00
        E 120 90 60 60
        E 0 90 54 60
        E 0 90 48 60
        E 0 90 3c 60
        E 120 80 60 00
        E 0 80 54 00
        E 0 80 48 00
        E 0 80 3c 00
        E 120 90 60 60
        E 0 90 54 60
        E 0 90 48 60
        E 120 80 60 00
        E 0 80 54 00
        E 0 80 48 00
        E 120 90 60 60
        E 0 90 54 60
        E 0 90 48 60
        E 0 90 3c 60
        E 120 80 60 00
        E 0 80 54 00
        E 0 80 48 00
        E 0 80 3c 00
        E 120 90 60 60
        E 0 90 54 60
        E 0 90 48 60
        E 120 80 60 00
        E 0 80 54 00
        E 0 80 48 00
        E 120 90 60 60
        E 0 90 54 60
        E 0 90 48 60
        E 0 90 3c 60
        E 120 80 60 00
        E 0 80 54 00
        E 0 80 48 00
        E 0 80 3c 00
        E 120 90 60 60
        E 0 90 54 60
        E 0 90 48 60
        E 120 80 60 00
        E 0 80 54 00
        E 0 80 48 00
        E 120 90 60 60
        E 0 90 54 60
        E 0 90 48 60
        E 120 80 60 00
        E 0 80 54 00
        E 0 80 48 00
        E 120 90 60 60
        E 0 90 54 60
        E 120 80 60 00
        E 0 80 54 00
        E 120 90 62 60
        E 0 90 56 60
        E 0 90 4a 60
        E 0 90 3e 60
        E 120 80 62 00
        E 0 80 56 00
        E 0 80 4a 00
        E 0 80 3e 00
        E 120 90 62 60
        E 0 90 56 60
        E 0 90 4a 60
        E 120 80 62 00
        E 0 80 56 00
        E 0 80 4a 00
        E 120 90 62 60
        E 0 90 56 60
        E 0 90 4a 60
        E 0 90 3e 60
        E 120 80 62 00
        E 0 80 56 00
        E 0 80 4a 00
        E 0 80 3e 00
        E 120 90 62 60
        E 0 90 56 60
        E 0 90 4a 60
        E 120 80 62 00
        E 0 80 56 00
        E 0 80 4a 00
        E 120 90 62 60
        E 0 90 56 60
        E 0 90 4a 60
        E 0 90 3e 60
        E 120 80 62 00
        E 0 80 56 00
        E 0 80 4a 00
        E 0 80 3e 00
        E 120 90 62 60
        E 0 90 56 60
        E 0 90 4a 60
        E 120 80 62 00
        E 0 80 56 00
        E 0 80 4a 00
        E 120 90 62 60
        E 0 90 56 60
        E 0 90 4a 60
        E 120 80 62 00
        E 0 80 56 00
        E 0 80 4a 00
        E 120 90 62 60
        E 0 90 56 60
        E 120 80 62 00
        E 0 80 56 00
        E 120 90 60 60
        E 0 90 54 60
        E 0 90 48 60
        E 0 90 3c 60
        E 2400 80 60 00
        E 0 80 54 00
        E 0 80 48 00
        E 0 80 3c 00
        <X 1440 0
          /wFbcGxheV0=
        >
        E 0 90 61 60
        E 0 90 55 60
        E 0 90 49 60
        E 0 90 3d 60
        E 480 80 49 00
        E 0 80 3d 00
        E 360 80 61 00
        E 0 80 55 00
        E 120 90 61 60
        E 0 90 55 60
        E 0 90 49 60
        E 0 90 3d 60
        E 480 80 49 00
        E 0 80 3d 00
        E 360 80 61 00
        E 0 80 55 00
        E 120 90 61 60
        E 0 90 55 60
        E 0 90 49 60
        E 0 90 3d 60
        E 120 80 49 00
        E 0 80 3d 00
        E 480 80 61 00
        E 0 80 55 00
        E 120 90 63 60
        E 0 90 57 60
        E 0 90 4b 60
        E 120 80 63 00
        E 0 80 57 00
        E 0 80 4b 00
        E 120 90 64 60
        E 0 90 65 60
        E 0 90 58 60
        E 0 90 4b 60
        E 0 90 3e 60
        E 120 80 64 00
        E 0 80 65 00
        E 0 80 58 00
        E 0 80 4b 00
        E 0 80 3e 00
        E 360 90 62 60
        E 0 90 56 60
        E 0 90 4a 60
        E 120 80 62 00
        E 0 80 56 00
        E 0 80 4a 00
        E 360 90 61 60
        E 0 90 55 60
        E 0 90 49 60
        E 0 90 3d 60
        E 480 80 49 00
        E 0 80 3d 00
        E 360 80 61 00
        E 0 80 55 00
        E 120 90 61 60
        E 0 90 55 60
        E 0 90 49 60
        E 0 90 3d 60
        E 480 80 49 00
        E 0 80 3d 00
        E 360 80 61 00
        E 0 80 55 00
        E 120 90 61 60
        E 0 90 55 60
        E 0 90 49 60
        E 0 90 3d 60
        E 120 80 49 00
        E 0 80 3d 00
        E 480 80 61 00
        E 0 80 55 00
        E 120 90 63 60
        E 0 90 57 60
        E 0 90 4b 60
        E 120 80 63 00
        E 0 80 57 00
        E 0 80 4b 00
        E 120 90 64 60
        E 0 90 65 60
        E 0 90 58 60
        E 0 90 4b 60
        E 0 90 3e 60
        E 120 80 64 00
        E 0 80 65 00
        E 0 80 58 00
        E 0 80 4b 00
        E 0 80 3e 00
        E 360 90 62 60
        E 0 90 56 60
        E 0 90 4a 60
        E 120 80 62 00
        E 0 80 56 00
        E 0 80 4a 00
        E 360 90 61 60
        E 0 90 55 60
        E 0 90 49 60
        E 0 90 3d 60
        E 480 80 49 00
        E 0 80 3d 00
        E 360 80 61 00
        E 0 80 55 00
        E 120 90 61 60
        E 0 90 55 60
        E 0 90 49 60
        E 0 90 3d 60
        E 480 80 49 00
        E 0 80 3d 00
        E 360 80 61 00
        E 0 80 55 00
        E 120 90 61 60
        E 0 90 55 60
        E 0 90 49 60
        E 0 90 3d 60
        E 120 80 49 00
        E 0 80 3d 00
        E 480 80 61 00
        E 0 80 55 00
        E 120 90 63 60
        E 0 90 57 60
        E 0 90 4b 60
        E 120 80 63 00
        E 0 80 57 00
        E 0 80 4b 00
        E 120 90 64 60
        E 0 90 65 60
        E 0 90 58 60
        E 0 90 4b 60
        E 0 90 3e 60
        E 120 80 64 00
        E 0 80 65 00
        E 0 80 58 00
        E 0 80 4b 00
        E 0 80 3e 00
        E 360 90 62 60
        E 0 90 56 60
        E 0 90 4a 60
        E 120 80 62 00
        E 0 80 56 00
        E 0 80 4a 00
        E 360 90 61 60
        E 0 90 55 60
        E 0 90 49 60
        E 0 90 3d 60
        E 480 80 49 00
        E 0 80 3d 00
        E 360 80 61 00
        E 0 80 55 00
        E 120 90 61 60
        E 0 90 55 60
        E 0 90 49 60
        E 0 90 3d 60
        E 480 80 49 00
        E 0 80 3d 00
        E 360 80 61 00
        E 0 80 55 00
        E 120 90 61 60
        E 0 90 74 60
        E 0 90 55 60
        E 0 90 49 60
        E 0 90 3d 60
        E 120 80 49 00
        E 0 80 3d 00
        E 480 80 61 00
        E 0 80 55 00
        E 120 90 63 60
        E 0 90 57 60
        E 0 90 4b 60
        E 120 80 63 00
        E 0 80 57 00
        E 0 80 4b 00
        E 120 90 64 60
        E 0 90 65 60
        E 0 90 58 60
        E 0 90 4b 60
        E 0 90 3e 60
        E 120 80 64 00
        E 0 80 65 00
        E 0 80 58 00
        E 0 80 4b 00
        E 0 80 3e 00
        E 360 90 62 60
        E 0 90 56 60
        E 0 90 4a 60
        E 120 80 62 00
        E 0 80 56 00
        E 0 80 4a 00
        E 120 90 60 60
        E 0 90 54 60
        E 120 80 60 00
        E 0 80 54 00
        E 120 90 61 60
        E 0 90 55 60
        E 0 90 49 60
        E 0 90 3d 60
        E 120 80 74 00
        E 360 80 49 00
        E 0 80 3d 00
        E 120 80 61 00
        E 0 80 55 00
        E 120 90 60 60
        E 0 90 54 60
        E 120 80 60 00
        E 0 80 54 00
        E 120 90 61 60
        E 0 90 55 60
        E 0 90 49 60
        E 0 90 3d 60
        E 480 80 49 00
        E 0 80 3d 00
        E 120 80 61 00
        E 0 80 55 00
        E 120 90 60 60
        E 0 90 54 60
        E 120 80 60 00
        E 0 80 54 00
        E 120 90 61 60
        E 0 90 55 60
        E 0 90 49 60
        E 0 90 3d 60
        E 120 80 49 00
        E 0 80 3d 00
        E 480 80 61 00
        E 0 80 55 00
        E 120 90 63 60
        E 0 90 57 60
        E 0 90 4b 60
        E 120 80 63 00
        E 0 80 57 00
        E 0 80 4b 00
        E 120 90 64 60
        E 0 90 65 60
        E 0 90 58 60
        E 0 90 4b 60
        E 0 90 3e 60
        E 120 80 64 00
        E 0 80 65 00
        E 0 80 58 00
        E 0 80 4b 00
        E 0 80 3e 00
        E 360 90 62 60
        E 0 90 56 60
        E 0 90 4a 60
        E 120 80 62 00
        E 0 80 56 00
        E 0 80 4a 00
        E 360 90 61 60
        E 0 90 55 60
        E 0 90 49 60
        E 0 90 3d 60
        E 480 80 49 00
        E 0 80 3d 00
        E 120 80 61 00
        E 0 80 55 00
        E 120 90 60 60
        E 0 90 54 60
        E 120 80 60 00
        E 0 80 54 00
        E 120 90 61 60
        E 0 90 55 60
        E 0 90 49 60
        E 0 90 3d 60
        E 480 80 49 00
        E 0 80 3d 00
        E 120 80 61 00
        E 0 80 55 00
        E 120 90 60 60
        E 0 90 54 60
        E 120 80 60 00
        E 0 80 54 00
        E 120 90 61 60
        E 0 90 55 60
        E 0 90 49 60
        E 0 90 3d 60
        E 120 80 49 00
        E 0 80 3d 00
        E 480 80 61 00
        E 0 80 55 00
        E 120 90 63 60
        E 0 90 57 60
        E 0 90 4b 60
        E 120 80 63 00
        E 0 80 57 00
        E 0 80 4b 00
        E 120 90 64 60
        E 0 90 65 60
        E 0 90 58 60
        E 0 90 4b 60
        E 0 90 3e 60
        E 120 80 64 00
        E 0 80 65 00
        E 0 80 58 00
        E 0 80 4b 00
        E 0 80 3e 00
        E 360 90 62 60
        E 0 90 56 60
        E 0 90 4a 60
        E 120 80 62 00
        E 0 80 56 00
        E 0 80 4a 00
        E 120 90 60 60
        E 0 90 54 60
        E 120 80 60 00
        E 0 80 54 00
        E 120 90 61 60
        E 0 90 55 60
        E 0 90 49 60
        E 0 90 3d 60
        E 480 80 49 00
        E 0 80 3d 00
        E 120 80 61 00
        E 0 80 55 00
        E 120 90 60 60
        E 0 90 54 60
        E 120 80 60 00
        E 0 80 54 00
        E 120 90 61 60
        E 0 90 55 60
        E 0 90 49 60
        E 0 90 3d 60
        E 480 80 49 00
        E 0 80 3d 00
        E 120 80 61 00
        E 0 80 55 00
        E 120 90 60 60
        E 0 90 54 60
        E 120 80 60 00
        E 0 80 54 00
        E 120 90 61 60
        E 0 90 55 60
        E 0 90 49 60
        E 0 90 3d 60
        E 120 80 49 00
        E 0 80 3d 00
        E 480 80 61 00
        E 0 80 55 00
        E 120 90 63 60
        E 0 90 57 60
        E 0 90 4b 60
        E 120 80 63 00
        E 0 80 57 00
        E 0 80 4b 00
        E 120 90 64 60
        E 0 90 65 60
        E 0 90 58 60
        E 0 90 4b 60
        E 0 90 3e 60
        E 120 80 64 00
        E 0 80 65 00
        E 0 80 58 00
        E 0 80 4b 00
        E 0 80 3e 00
        E 360 90 62 60
        E 0 90 56 60
        E 0 90 4a 60
        E 120 80 62 00
        E 0 80 56 00
        E 0 80 4a 00
        E 120 90 60 60
        E 0 90 54 60
        E 120 80 60 00
        E 0 80 54 00
        E 120 90 61 60
        E 0 90 55 60
        E 0 90 49 60
        E 0 90 3d 60
        E 480 80 49 00
        E 0 80 3d 00
        E 120 80 61 00
        E 0 80 55 00
        E 120 90 60 60
        E 0 90 54 60
        E 120 80 60 00
        E 0 80 54 00
        E 120 90 61 60
        E 0 90 55 60
        E 0 90 49 60
        E 0 90 3d 60
        E 480 80 49 00
        E 0 80 3d 00
        E 120 80 61 00
        E 0 80 55 00
        E 120 90 60 60
        E 0 90 54 60
        E 120 80 60 00
        E 0 80 54 00
        E 120 90 61 60
        E 0 90 55 60
        E 0 90 49 60
        E 0 90 3d 60
        E 120 80 49 00
        E 0 80 3d 00
        E 480 80 61 00
        E 0 80 55 00
        E 120 90 63 60
        E 0 90 57 60
        E 0 90 4b 60
        E 120 80 63 00
        E 0 80 57 00
        E 0 80 4b 00
        E 120 90 64 60
        E 0 90 65 60
        E 0 90 58 60
        E 0 90 4b 60
        E 0 90 3e 60
        E 120 80 64 00
        E 0 80 65 00
        E 0 80 58 00
        E 0 80 4b 00
        E 0 80 3e 00
        E 360 90 60 60
        E 0 90 54 60
        E 0 90 48 60
        E 120 80 60 00
        E 0 80 54 00
        E 0 80 48 00
        E 360 90 61 60
        E 0 90 55 60
        E 0 90 49 60
        E 0 90 3d 60
        E 2160 80 49 00
        E 0 80 3d 00
        E 240 80 61 00
        E 0 80 55 00
        E 240 90 63 60
        E 0 90 74 60
        E 0 90 57 60
        E 0 90 4b 60
        E 120 80 63 00
        E 0 80 57 00
        E 0 80 4b 00
        E 120 90 64 60
        E 0 90 65 60
        E 0 90 58 60
        E 0 90 4b 60
        E 0 90 3e 60
        E 120 80 64 00
        E 0 80 65 00
        E 0 80 58 00
        E 0 80 4b 00
        E 0 80 3e 00
        E 360 90 61 60
        E 0 90 55 60
        E 0 90 49 60
        E 120 80 61 00
        E 0 80 55 00
        E 0 80 49 00
        E 360 90 62 60
        E 0 90 56 60
        E 0 90 4a 60
        E 0 90 3e 60
        E 120 80 74 00
        E 3240 80 62 00
        E 0 80 56 00
        E 0 80 4a 00
        E 0 80 3e 00
        <X 480 0
          /wFbaW50ZW5zZV0=
        >
        E 0 90 63 60
        E 0 90 57 60
        E 0 90 4b 60
        E 0 90 3e 60
        E 120 80 63 00
        E 0 80 57 00
        E 0 80 4b 00
        E 0 80 3e 00
        E 120 90 63 60
        E 0 90 57 60
        E 0 90 4b 60
        E 120 80 63 00
        E 0 80 57 00
        E 0 80 4b 00
        E 120 90 63 60
        E 0 90 57 60
        E 0 90 4b 60
        E 0 90 3e 60
        E 120 80 63 00
        E 0 80 57 00
        E 0 80 4b 00
        E 0 80 3e 00
        E 120 90 63 60
        E 0 90 57 60
        E 0 90 4b 60
        E 120 80 63 00
        E 0 80 57 00
        E 0 80 4b 00
        E 120 90 63 60
        E 0 90 57 60
        E 0 90 4b 60
        E 0 90 3e 60
        E 120 80 63 00
        E 0 80 57 00
        E 0 80 4b 00
        E 0 80 3e 00
        E 120 90 63 60
        E 0 90 57 60
        E 0 90 4b 60
        E 120 80 63 00
        E 0 80 57 00
        E 0 80 4b 00
        E 120 90 63 60
        E 0 90 57 60
        E 0 90 4b 60
        E 0 90 3e 60
        E 120 80 63 00
        E 0 80 57 00
        E 0 80 4b 00
        E 0 80 3e 00
        E 120 90 63 60
        E 0 90 57 60
        E 0 90 4b 60
        E 120 80 63 00
        E 0 80 57 00
        E 0 80 4b 00
        E 120 90 63 60
        E 0 90 57 60
        E 0 90 4b 60
        E 0 90 3e 60
        E 120 80 63 00
        E 0 80 57 00
        E 0 80 4b 00
        E 0 80 3e 00
        E 120 90 63 60
        E 0 90 57 60
        E 0 90 4b 60
        E 120 80 63 00
        E 0 80 57 00
        E 0 80 4b 00
        E 120 90 63 60
        E 0 90 57 60
        E 0 90 4b 60
        E 0 90 3e 60
        E 120 80 63 00
        E 0 80 57 00
        E 0 80 4b 00
        E 0 80 3e 00
        E 120 90 63 60
        E 0 90 57 60
        E 0 90 4b 60
        E 120 80 63 00
        E 0 80 57 00
        E 0 80 4b 00
        E 120 90 63 60
        E 0 90 57 60
        E 0 90 4b 60
        E 0 90 3e 60
        E 120 80 63 00
        E 0 80 57 00
        E 0 80 4b 00
        E 0 80 3e 00
        E 120 90 63 60
        E 0 90 57 60
        E 0 90 4b 60
        E 120 80 63 00
        E 0 80 57 00
        E 0 80 4b 00
        E 120 90 63 60
        E 0 90 57 60
        E 0 90 4b 60
        E 120 80 63 00
        E 0 80 57 00
        E 0 80 4b 00
        E 120 90 63 60
        E 0 90 57 60
        E 120 80 63 00
        E 0 80 57 00
        E 120 90 60 60
        E 0 90 54 60
        E 0 90 48 60
        E 0 90 3c 60
        E 120 80 60 00
        E 0 80 54 00
        E 0 80 48 00
        E 0 80 3c 00
        E 120 90 60 60
        E 0 90 54 60
        E 0 90 48 60
        E 120 80 60 00
        E 0 80 54 00
        E 0 80 48 00
        E 120 90 60 60
        E 0 90 54 60
        E 0 90 48 60
        E 0 90 3c 60
        E 120 80 60 00
        E 0 80 54 00
        E 0 80 48 00
        E 0 80 3c 00
        E 120 90 60 60
        E 0 90 54 60
        E 0 90 48 60
        E 120 80 60 00
        E 0 80 54 00
        E 0 80 48 00
        E 120 90 60 60
        E 0 90 54 60
        E 0 90 48 60
        E 0 90 3c 60
        E 120 80 60 00
        E 0 80 54 00
        E 0 80 48 00
        E 0 80 3c 00
        E 120 90 60 60
        E 0 90 54 60
        E 0 90 48 60
        E 120 80 60 00
        E 0 80 54 00
        E 0 80 48 00
        E 120 90 60 60
        E 0 90 54 60
        E 0 90 48 60
        E 0 90 3c 60
        E 120 80 60 00
        E 0 80 54 00
        E 0 80 48 00
        E 0 80 3c 00
        E 120 90 60 60
        E 0 90 54 60
        E 0 90 48 60
        E 120 80 60 00
        E 0 80 54 00
        E 0 80 48 00
        E 120 90 60 60
        E 0 90 54 60
        E 0 90 48 60
        E 0 90 3c 60
        E 120 80 60 00
        E 0 80 54 00
        E 0 80 48 00
        E 0 80 3c 00
        E 120 90 60 60
        E 0 90 54 60
        E 0 90 48 60
        E 120 80 60 00
        E 0 80 54 00
        E 0 80 48 00
        E 120 90 60 60
        E 0 90 54 60
        E 0 90 48 60
        E 0 90 3c 60
        E 120 80 60 00
        E 0 80 54 00
        E 0 80 48 00
        E 0 80 3c 00
        E 120 90 60 60
        E 0 90 54 60
        E 0 90 48 60
        E 120 80 60 00
        E 0 80 54 00
        E 0 80 48 00
        E 120 90 60 60
        E 0 90 54 60
        E 0 90 48 60
        E 0 90 3c 60
        E 120 80 60 00
        E 0 80 54 00
        E 0 80 48 00
        E 0 80 3c 00
        E 120 90 60 60
        E 0 90 54 60
        E 0 90 48 60
        E 120 80 60 00
        E 0 80 54 00
        E 0 80 48 00
        E 120 90 60 60
        E 0 90 54 60
        E 0 90 48 60
        E 120 80 60 00
        E 0 80 54 00
        E 0 80 48 00
        E 120 90 61 60
        E 0 90 55 60
        E 120 80 61 00
        E 0 80 55 00
        E 120 90 63 60
        E 0 90 57 60
        E 0 90 4b 60
        E 0 90 3e 60
        E 120 80 63 00
        E 0 80 57 00
        E 0 80 4b 00
        E 0 80 3e 00
        E 120 90 63 60
        E 0 90 57 60
        E 0 90 4b 60
        E 120 80 63 00
        E 0 80 57 00
        E 0 80 4b 00
        E 120 90 63 60
        E 0 90 57 60
        E 0 90 4b 60
        E 0 90 3e 60
        E 120 80 63 00
        E 0 80 57 00
        E 0 80 4b 00
        E 0 80 3e 00
        E 120 90 63 60
        E 0 90 57 60
        E 0 90 4b 60
        E 120 80 63 00
        E 0 80 57 00
        E 0 80 4b 00
        E 120 90 63 60
        E 0 90 57 60
        E 0 90 4b 60
        E 0 90 3e 60
        E 120 80 63 00
        E 0 80 57 00
        E 0 80 4b 00
        E 0 80 3e 00
        E 120 90 63 60
        E 0 90 57 60
        E 0 90 4b 60
        E 120 80 63 00
        E 0 80 57 00
        E 0 80 4b 00
        E 120 90 63 60
        E 0 90 57 60
        E 0 90 4b 60
        E 0 90 3e 60
        E 120 80 63 00
        E 0 80 57 00
        E 0 80 4b 00
        E 0 80 3e 00
        E 120 90 63 60
        E 0 90 57 60
        E 0 90 4b 60
        E 120 80 63 00
        E 0 80 57 00
        E 0 80 4b 00
        E 120 90 63 60
        E 0 90 57 60
        E 0 90 4b 60
        E 0 90 3e 60
        E 120 80 63 00
        E 0 80 57 00
        E 0 80 4b 00
        E 0 80 3e 00
        E 120 90 63 60
        E 0 90 57 60
        E 0 90 4b 60
        E 120 80 63 00
        E 0 80 57 00
        E 0 80 4b 00
        E 120 90 63 60
        E 0 90 57 60
        E 0 90 4b 60
        E 0 90 3e 60
        E 120 80 63 00
        E 0 80 57 00
        E 0 80 4b 00
        E 0 80 3e 00
        E 120 90 63 60
        E 0 90 57 60
        E 0 90 4b 60
        E 120 80 63 00
        E 0 80 57 00
        E 0 80 4b 00
        E 120 90 63 60
        E 0 90 57 60
        E 0 90 4b 60
        E 0 90 3e 60
        E 120 80 63 00
        E 0 80 57 00
        E 0 80 4b 00
        E 0 80 3e 00
        E 120 90 63 60
        E 0 90 57 60
        E 0 90 4b 60
        E 120 80 63 00
        E 0 80 57 00
        E 0 80 4b 00
        E 120 90 63 60
        E 0 90 57 60
        E 0 90 4b 60
        E 120 80 63 00
        E 0 80 57 00
        E 0 80 4b 00
        E 120 90 63 60
        E 0 90 57 60
        E 120 80 63 00
        E 0 80 57 00
        E 120 90 60 60
        E 0 90 54 60
        E 0 90 48 60
        E 0 90 3c 60
        E 120 80 60 00
        E 0 80 54 00
        E 0 80 48 00
        E 0 80 3c 00
        E 120 90 60 60
        E 0 90 54 60
        E 0 90 48 60
        E 120 80 60 00
        E 0 80 54 00
        E 0 80 48 00
        E 120 90 60 60
        E 0 90 54 60
        E 0 90 48 60
        E 0 90 3c 60
        E 120 80 60 00
        E 0 80 54 00
        E 0 80 48 00
        E 0 80 3c 00
        E 120 90 60 60
        E 0 90 54 60
        E 0 90 48 60
        E 120 80 60 00
        E 0 80 54 00
        E 0 80 48 00
        E 120 90 60 60
        E 0 90 54 60
        E 0 90 48 60
        E 0 90 3c 60
        E 120 80 60 00
        E 0 80 54 00
        E 0 80 48 00
        E 0 80 3c 00
        E 120 90 60 60
        E 0 90 54 60
        E 0 90 48 60
        E 120 80 60 00
        E 0 80 54 00
        E 0 80 48 00
        E 120 90 60 60
        E 0 90 54 60
        E 0 90 48 60
        E 0 90 3c 60
        E 120 80 60 00
        E 0 80 54 00
        E 0 80 48 00
        E 0 80 3c 00
        E 120 90 60 60
        E 0 90 54 60
        E 0 90 48 60
        E 120 80 60 00
        E 0 80 54 00
        E 0 80 48 00
        E 120 90 60 60
        E 0 90 54 60
        E 0 90 48 60
        E 0 90 3c 60
        E 120 80 60 00
        E 0 80 54 00
        E 0 80 48 00
        E 0 80 3c 00
        E 120 90 60 60
        E 0 90 54 60
        E 0 90 48 60
        E 120 80 60 00
        E 0 80 54 00
        E 0 80 48 00
        E 120 90 60 60
        E 0 90 54 60
        E 0 90 48 60
        E 0 90 3c 60
        E 120 80 60 00
        E 0 80 54 00
        E 0 80 48 00
        E 0 80 3c 00
        E 120 90 60 60
        E 0 90 54 60
        E 0 90 48 60
        E 120 80 60 00
        E 0 80 54 00
        E 0 80 48 00
        E 120 90 60 60
        E 0 90 54 60
        E 0 90 48 60
        E 0 90 3c 60
        E 120 80 60 00
        E 0 80 54 00
        E 0 80 48 00
        E 0 80 3c 00
        E 120 90 60 60
        E 0 90 54 60
        E 0 90 48 60
        E 120 80 60 00
        E 0 80 54 00
        E 0 80 48 00
        E 120 90 60 60
        E 0 90 54 60
        E 0 90 48 60
        E 120 80 60 00
        E 0 80 54 00
        E 0 80 48 00
        E 120 90 60 60
        E 0 90 54 60
        E 120 80 60 00
        E 0 80 54 00
        E 120 90 62 60
        E 0 90 74 60
        E 0 90 56 60
        E 0 90 4a 60
        E 0 90 3e 60
        E 120 80 62 00
        E 0 80 56 00
        E 0 80 4a 00
        E 0 80 3e 00
        E 120 90 62 60
        E 0 90 56 60
        E 0 90 4a 60
        E 120 80 62 00
        E 0 80 56 00
        E 0 80 4a 00
        E 120 90 62 60
        E 0 90 56 60
        E 0 90 4a 60
        E 0 90 3e 60
        E 120 80 62 00
        E 0 80 56 00
        E 0 80 4a 00
        E 0 80 3e 00
        E 120 90 62 60
        E 0 90 56 60
        E 0 90 4a 60
        E 120 80 62 00
        E 0 80 56 00
        E 0 80 4a 00
        E 120 90 62 60
        E 0 90 56 60
        E 0 90 4a 60
        E 0 90 3e 60
        E 120 80 62 00
        E 0 80 56 00
        E 0 80 4a 00
        E 0 80 3e 00
        E 120 90 62 60
        E 0 90 56 60
        E 0 90 4a 60
        E 120 80 62 00
        E 0 80 56 00
        E 0 80 4a 00
        E 120 90 62 60
        E 0 90 56 60
        E 0 90 4a 60
        E 120 80 62 00
        E 0 80 56 00
        E 0 80 4a 00
        E 120 90 62 60
        E 0 90 56 60
        E 120 80 62 00
        E 0 80 56 00
        E 120 90 60 60
        E 0 90 54 60
        E 0 90 48 60
        E 0 90 3c 60
        E 120 80 60 00
        E 0 80 54 00
        E 0 80 48 00
        E 0 80 3c 00
        E 120 90 60 60
        E 0 90 54 60
        E 0 90 48 60
        E 120 80 60 00
        E 0 80 54 00
        E 0 80 48 00
        E 120 90 60 60
        E 0 90 54 60
        E 0 90 48 60
        E 0 90 3c 60
        E 120 80 60 00
        E 0 80 54 00
        E 0 80 48 00
        E 0 80 3c 00
        E 120 90 60 60
        E 0 90 54 60
        E 0 90 48 60
        E 120 80 60 00
        E 0 80 54 00
        E 0 80 48 00
        E 120 90 60 60
        E 0 90 54 60
        E 0 90 48 60
        E 0 90 3c 60
        E 120 80 60 00
        E 0 80 54 00
        E 0 80 48 00
        E 0 80 3c 00
        E 120 90 60 60
        E 0 90 54 60
        E 0 90 48 60
        E 120 80 60 00
        E 0 80 54 00
        E 0 80 48 00
        E 120 90 60 60
        E 0 90 54 60
        E 0 90 48 60
        E 120 80 60 00
        E 0 80 54 00
        E 0 80 48 00
        E 120 90 60 60
        E 0 90 54 60
        E 120 80 60 00
        E 0 80 54 00
        E 120 90 62 60
        E 0 90 56 60
        E 0 90 4a 60
        E 0 90 3e 60
        E 120 80 74 00
        E 0 80 62 00
        E 0 80 56 00
        E 0 80 4a 00
        E 0 80 3e 00
        E 120 90 62 60
        E 0 90 56 60
        E 0 90 4a 60
        E 120 80 62 00
        E 0 80 56 00
        E 0 80 4a 00
        E 120 90 62 60
        E 0 90 56 60
        E 0 90 4a 60
        E 0 90 3e 60
        E 120 80 62 00
        E 0 80 56 00
        E 0 80 4a 00
        E 0 80 3e 00
        E 120 90 62 60
        E 0 90 56 60
        E 0 90 4a 60
        E 120 80 62 00
        E 0 80 56 00
        E 0 80 4a 00
        E 120 90 62 60
        E 0 90 56 60
        E 0 90 4a 60
        E 0 90 3e 60
        E 120 80 62 00
        E 0 80 56 00
        E 0 80 4a 00
        E 0 80 3e 00
        E 120 90 62 60
        E 0 90 56 60
        E 0 90 4a 60
        E 120 80 62 00
        E 0 80 56 00
        E 0 80 4a 00
        E 120 90 62 60
        E 0 90 56 60
        E 0 90 4a 60
        E 120 80 62 00
        E 0 80 56 00
        E 0 80 4a 00
        E 120 90 62 60
        E 0 90 56 60
        E 120 80 62 00
        E 0 80 56 00
        E 120 90 60 60
        E 0 90 54 60
        E 0 90 48 60
        E 0 90 3c 60
        <X 2400 0
          /wFbaWRsZV0=
        >
        E 0 80 60 00
        E 0 80 54 00
        E 0 80 48 00
        E 0 80 3c 00
        <X 16080 0
          /wFbbWVsbG93XQ==
        >
        E 0 90 61 60
        E 0 90 55 60
        E 120 80 61 00
        E 0 80 55 00
        E 120 90 62 60
        E 0 90 56 60
        E 0 90 4a 60
        E 0 90 3e 60
        E 120 80 62 00
        E 0 80 56 00
        E 0 80 4a 00
        E 0 80 3e 00
        E 120 90 63 60
        E 0 90 57 60
        E 120 80 63 00
        E 0 80 57 00
        E 120 90 64 60
        E 0 90 58 60
        E 0 90 4b 60
        E 0 90 3e 60
        E 120 80 64 00
        E 0 80 58 00
        E 0 80 4b 00
        E 0 80 3e 00
        E 120 90 64 60
        E 0 90 58 60
        E 0 90 4b 60
        E 120 80 64 00
        E 0 80 58 00
        E 0 80 4b 00
        E 360 90 64 60
        E 0 90 58 60
        E 0 90 4b 60
        E 120 80 64 00
        E 0 80 58 00
        E 0 80 4b 00
        E 120 90 64 60
        E 0 90 58 60
        E 0 90 4b 60
        E 0 90 3e 60
        E 120 80 64 00
        E 0 80 58 00
        E 0 80 4b 00
        E 0 80 3e 00
        E 120 90 64 60
        E 0 90 58 60
        E 0 90 4b 60
        E 120 80 64 00
        E 0 80 58 00
        E 0 80 4b 00
        E 360 90 64 60
        E 0 90 58 60
        E 0 90 4b 60
        E 120 80 64 00
        E 0 80 58 00
        E 0 80 4b 00
        E 360 90 64 60
        E 0 90 58 60
        E 0 90 4b 60
        E 0 90 3e 60
        E 120 80 64 00
        E 0 80 58 00
        E 0 80 4b 00
        E 0 80 3e 00
        E 360 90 64 60
        E 0 90 58 60
        E 0 90 4b 60
        E 120 80 64 00
        E 0 80 58 00
        E 0 80 4b 00
        E 120 90 64 60
        E 0 90 58 60
        E 0 90 4b 60
        E 0 90 3e 60
        E 120 80 64 00
        E 0 80 58 00
        E 0 80 4b 00
        E 0 80 3e 00
        E 120 90 64 60
        E 0 90 58 60
        E 120 80 64 00
        E 0 80 58 00
        E 120 90 61 60
        E 0 90 55 60
        E 0 90 49 60
        E 120 80 61 00
        E 0 80 55 00
        E 0 80 49 00
        E 120 90 62 60
        E 0 90 56 60
        E 120 80 62 00
        E 0 80 56 00
        E 120 90 63 60
        E 0 90 57 60
        E 0 90 4b 60
        E 0 90 3e 60
        E 120 80 63 00
        E 0 80 57 00
        E 0 80 4b 00
        E 0 80 3e 00
        E 120 90 63 60
        E 0 90 57 60
        E 0 90 4b 60
        E 120 80 63 00
        E 0 80 57 00
        E 0 80 4b 00
        E 360 90 63 60
        E 0 90 57 60
        E 0 90 4b 60
        E 120 80 63 00
        E 0 80 57 00
        E 0 80 4b 00
        E 120 90 63 60
        E 0 90 57 60
        E 0 90 4b 60
        E 0 90 3e 60
        E 120 80 63 00
        E 0 80 57 00
        E 0 80 4b 00
        E 0 80 3e 00
        E 120 90 63 60
        E 0 90 57 60
        E 0 90 4b 60
        E 120 80 63 00
        E 0 80 57 00
        E 0 80 4b 00
        E 360 90 63 60
        E 0 90 57 60
        E 0 90 4b 60
        E 120 80 63 00
        E 0 80 57 00
        E 0 80 4b 00
        E 360 90 63 60
        E 0 90 57 60
        E 0 90 4b 60
        E 0 90 3e 60
        E 120 80 63 00
        E 0 80 57 00
        E 0 80 4b 00
        E 0 80 3e 00
        E 360 90 63 60
        E 0 90 57 60
        E 0 90 4b 60
        E 120 80 63 00
        E 0 80 57 00
        E 0 80 4b 00
        E 120 90 63 60
        E 0 90 57 60
        E 0 90 4b 60
        E 0 90 3e 60
        E 120 80 63 00
        E 0 80 57 00
        E 0 80 4b 00
        E 0 80 3e 00
        E 120 90 63 60
        E 0 90 57 60
        E 120 80 63 00
        E 0 80 57 00
        E 120 90 62 60
        E 0 90 56 60
        E 0 90 4a 60
        E 0 90 3e 60
        E 120 80 62 00
        E 0 80 56 00
        E 0 80 4a 00
        E 0 80 3e 00
        E 120 90 61 60
        E 0 90 55 60
        E 120 80 61 00
        E 0 80 55 00
        E 120 90 64 60
        E 0 90 58 60
        E 0 90 4b 60
        E 0 90 3e 60
        E 120 80 64 00
        E 0 80 58 00
        E 0 80 4b 00
        E 0 80 3e 00
        E 120 90 64 60
        E 0 90 58 60
        E 0 90 4b 60
        E 120 80 64 00
        E 0 80 58 00
        E 0 80 4b 00
        E 360 90 64 60
        E 0 90 58 60
        E 0 90 4b 60
        E 120 80 64 00
        E 0 80 58 00
        E 0 80 4b 00
        E 120 90 64 60
        E 0 90 58 60
        E 0 90 4b 60
        E 0 90 3e 60
        E 120 80 64 00
        E 0 80 58 00
        E 0 80 4b 00
        E 0 80 3e 00
        E 120 90 64 60
        E 0 90 58 60
        E 0 90 4b 60
        E 120 80 64 00
        E 0 80 58 00
        E 0 80 4b 00
        E 360 90 64 60
        E 0 90 58 60
        E 0 90 4b 60
        E 120 80 64 00
        E 0 80 58 00
        E 0 80 4b 00
        E 360 90 64 60
        E 0 90 58 60
        E 0 90 4b 60
        E 0 90 3e 60
        E 120 80 64 00
        E 0 80 58 00
        E 0 80 4b 00
        E 0 80 3e 00
        E 360 90 64 60
        E 0 90 58 60
        E 120 80 64 00
        E 0 80 58 00
        E 120 90 62 60
        E 0 90 56 60
        E 0 90 4a 60
        E 0 90 3e 60
        E 120 80 62 00
        E 0 80 56 00
        E 0 80 4a 00
        E 0 80 3e 00
        E 120 90 64 60
        E 0 90 58 60
        E 120 80 64 00
        E 0 80 58 00
        E 120 90 62 60
        E 0 90 56 60
        E 0 90 4a 60
        E 0 90 3e 60
        E 120 80 62 00
        E 0 80 56 00
        E 0 80 4a 00
        E 0 80 3e 00
        E 120 90 61 60
        E 0 90 55 60
        E 120 80 61 00
        E 0 80 55 00
        E 120 90 63 60
        E 0 90 74 60
        E 0 90 57 60
        E 0 90 4b 60
        E 0 90 3e 60
        E 120 80 63 00
        E 0 80 57 00
        E 0 80 4b 00
        E 0 80 3e 00
        E 120 90 63 60
        E 0 90 57 60
        E 0 90 4b 60
        E 120 80 63 00
        E 0 80 57 00
        E 0 80 4b 00
        E 360 90 63 60
        E 0 90 57 60
        E 0 90 4b 60
        E 120 80 63 00
        E 0 80 57 00
        E 0 80 4b 00
        E 120 90 63 60
        E 0 90 57 60
        E 0 90 4b 60
        E 0 90 3e 60
        E 120 80 63 00
        E 0 80 57 00
        E 0 80 4b 00
        E 0 80 3e 00
        E 120 90 63 60
        E 0 90 57 60
        E 0 90 4b 60
        E 120 80 63 00
        E 0 80 57 00
        E 0 80 4b 00
        E 360 90 63 60
        E 0 90 57 60
        E 0 90 4b 60
        E 120 80 63 00
        E 0 80 57 00
        E 0 80 4b 00
        E 360 90 63 60
        E 0 90 57 60
        E 0 90 4b 60
        E 0 90 3e 60
        E 120 80 63 00
        E 0 80 57 00
        E 0 80 4b 00
        E 0 80 3e 00
        E 360 90 63 60
        E 0 90 57 60
        E 120 80 63 00
        E 0 80 57 00
        E 120 90 62 60
        E 0 90 56 60
        E 0 90 4a 60
        E 0 90 3e 60
        E 120 80 62 00
        E 0 80 56 00
        E 0 80 4a 00
        E 0 80 3e 00
        E 120 90 62 60
        E 0 90 56 60
        E 120 80 62 00
        E 0 80 56 00
        E 120 90 61 60
        E 0 90 55 60
        E 0 90 49 60
        E 120 80 61 00
        E 0 80 55 00
        E 0 80 49 00
        <X 360 0
          /wFbcGxheV0=
        >
        E 0 90 64 60
        E 0 90 58 60
        E 0 90 4b 60
        E 0 90 3e 60
        E 120 80 74 00
        E 0 80 64 00
        E 0 80 58 00
        E 0 80 4b 00
        E 0 80 3e 00
        E 120 90 64 60
        E 0 90 58 60
        E 0 90 4b 60
        E 120 80 64 00
        E 0 80 58 00
        E 0 80 4b 00
        E 360 90 64 60
        E 0 90 58 60
        E 0 90 4b 60
        E 120 80 64 00
        E 0 80 58 00
        E 0 80 4b 00
        E 120 90 64 60
        E 0 90 58 60
        E 0 90 4b 60
        E 0 90 3e 60
        E 120 80 64 00
        E 0 80 58 00
        E 0 80 4b 00
        E 0 80 3e 00
        E 120 90 64 60
        E 0 90 58 60
        E 0 90 4b 60
        E 120 80 64 00
        E 0 80 58 00
        E 0 80 4b 00
        E 360 90 64 60
        E 0 90 58 60
        E 0 90 4b 60
        E 120 80 64 00
        E 0 80 58 00
        E 0 80 4b 00
        E 360 90 64 60
        E 0 90 58 60
        E 0 90 4b 60
        E 0 90 3e 60
        E 120 80 64 00
        E 0 80 58 00
        E 0 80 4b 00
        E 0 80 3e 00
        E 360 90 64 60
        E 0 90 58 60
        E 0 90 4b 60
        E 120 80 64 00
        E 0 80 58 00
        E 0 80 4b 00
        E 120 90 64 60
        E 0 90 58 60
        E 0 90 4b 60
        E 0 90 3e 60
        E 120 80 64 00
        E 0 80 58 00
        E 0 80 4b 00
        E 0 80 3e 00
        E 120 90 64 60
        E 0 90 58 60
        E 0 90 4b 60
        E 120 80 64 00
        E 0 80 58 00
        E 0 80 4b 00
        E 360 90 64 60
        E 0 90 58 60
        E 120 80 64 00
        E 0 80 58 00
        E 120 90 61 60
        E 0 90 55 60
        E 0 90 49 60
        E 0 90 3d 60
        E 120 80 61 00
        E 0 80 55 00
        E 0 80 49 00
        E 0 80 3d 00
        E 120 90 61 60
        E 0 90 55 60
        E 0 90 49 60
        E 120 80 61 00
        E 0 80 55 00
        E 0 80 49 00
        E 360 90 61 60
        E 0 90 55 60
        E 0 90 49 60
        E 120 80 61 00
        E 0 80 55 00
        E 0 80 49 00
        E 120 90 61 60
        E 0 90 55 60
        E 0 90 49 60
        E 0 90 3d 60
        E 120 80 61 00
        E 0 80 55 00
        E 0 80 49 00
        E 0 80 3d 00
        E 120 90 61 60
        E 0 90 55 60
        E 0 90 49 60
        E 120 80 61 00
        E 0 80 55 00
        E 0 80 49 00
        E 360 90 61 60
        E 0 90 55 60
        E 0 90 49 60
        E 120 80 61 00
        E 0 80 55 00
        E 0 80 49 00
        E 360 90 61 60
        E 0 90 55 60
        E 0 90 49 60
        E 0 90 3d 60
        E 120 80 61 00
        E 0 80 55 00
        E 0 80 49 00
        E 0 80 3d 00
        E 360 90 61 60
        E 0 90 55 60
        E 0 90 49 60
        E 120 80 61 00
        E 0 80 55 00
        E 0 80 49 00
        E 120 90 61 60
        E 0 90 55 60
        E 0 90 49 60
        E 0 90 3d 60
        E 120 80 61 00
        E 0 80 55 00
        E 0 80 49 00
        E 0 80 3d 00
        E 120 90 61 60
        E 0 90 55 60
        E 0 90 49 60
        E 120 80 61 00
        E 0 80 55 00
        E 0 80 49 00
        E 360 90 61 60
        E 0 90 55 60
        E 120 80 61 00
        E 0 80 55 00
        E 120 90 64 60
        E 0 90 58 60
        E 0 90 4b 60
        E 0 90 3e 60
        E 120 80 64 00
        E 0 80 58 00
        E 0 80 4b 00
        E 0 80 3e 00
        E 120 90 64 60
        E 0 90 58 60
        E 0 90 4b 60
        E 120 80 64 00
        E 0 80 58 00
        E 0 80 4b 00
        E 360 90 64 60
        E 0 90 58 60
        E 0 90 4b 60
        E 120 80 64 00
        E 0 80 58 00
        E 0 80 4b 00
        E 120 90 64 60
        E 0 90 58 60
        E 0 90 4b 60
        E 0 90 3e 60
        E 120 80 64 00
        E 0 80 58 00
        E 0 80 4b 00
        E 0 80 3e 00
        E 120 90 64 60
        E 0 90 58 60
        E 0 90 4b 60
        E 120 80 64 00
        E 0 80 58 00
        E 0 80 4b 00
        E 360 90 64 60
        E 0 90 58 60
        E 0 90 4b 60
        E 120 80 64 00
        E 0 80 58 00
        E 0 80 4b 00
        E 360 90 64 60
        E 0 90 58 60
        E 0 90 4b 60
        E 0 90 3e 60
        E 120 80 64 00
        E 0 80 58 00
        E 0 80 4b 00
        E 0 80 3e 00
        E 360 90 64 60
        E 0 90 58 60
        E 0 90 4b 60
        E 120 80 64 00
        E 0 80 58 00
        E 0 80 4b 00
        E 120 90 64 60
        E 0 90 58 60
        E 0 90 4b 60
        E 0 90 3e 60
        E 120 80 64 00
        E 0 80 58 00
        E 0 80 4b 00
        E 0 80 3e 00
        E 120 90 64 60
        E 0 90 58 60
        E 0 90 4b 60
        E 120 80 64 00
        E 0 80 58 00
        E 0 80 4b 00
        E 120 90 64 60
        E 0 90 58 60
        E 0 90 4b 60
        E 120 80 64 00
        E 0 80 58 00
        E 0 80 4b 00
        E 120 90 62 60
        E 0 90 65 60
        E 0 90 56 60
        E 120 80 62 00
        E 0 80 65 00
        E 0 80 56 00
        E 120 90 61 60
        E 0 90 55 60
        E 0 90 49 60
        E 0 90 3d 60
        E 3360 80 61 00
        E 0 80 55 00
        E 0 80 49 00
        E 0 80 3d 00
        <X 480 0
          /wFbaW50ZW5zZV0=
        >
        E 0 90 63 60
        E 0 90 74 60
        E 0 90 57 60
        E 0 90 4b 60
        E 0 90 3e 60
        E 120 80 63 00
        E 0 80 57 00
        E 0 80 4b 00
        E 0 80 3e 00
        E 120 90 63 60
        E 0 90 57 60
        E 0 90 4b 60
        E 120 80 63 00
        E 0 80 57 00
        E 0 80 4b 00
        E 120 90 63 60
        E 0 90 57 60
        E 0 90 4b 60
        E 0 90 3e 60
        E 120 80 63 00
        E 0 80 57 00
        E 0 80 4b 00
        E 0 80 3e 00
        E 120 90 63 60
        E 0 90 57 60
        E 0 90 4b 60
        E 120 80 63 00
        E 0 80 57 00
        E 0 80 4b 00
        E 120 90 63 60
        E 0 90 57 60
        E 0 90 4b 60
        E 0 90 3e 60
        E 120 80 63 00
        E 0 80 57 00
        E 0 80 4b 00
        E 0 80 3e 00
        E 120 90 63 60
        E 0 90 57 60
        E 0 90 4b 60
        E 120 80 63 00
        E 0 80 57 00
        E 0 80 4b 00
        E 120 90 63 60
        E 0 90 57 60
        E 0 90 4b 60
        E 0 90 3e 60
        E 120 80 63 00
        E 0 80 57 00
        E 0 80 4b 00
        E 0 80 3e 00
        E 120 90 63 60
        E 0 90 57 60
        E 0 90 4b 60
        E 120 80 63 00
        E 0 80 57 00
        E 0 80 4b 00
        E 120 90 63 60
        E 0 90 57 60
        E 0 90 4b 60
        E 0 90 3e 60
        E 120 80 63 00
        E 0 80 57 00
        E 0 80 4b 00
        E 0 80 3e 00
        E 120 90 63 60
        E 0 90 57 60
        E 0 90 4b 60
        E 120 80 63 00
        E 0 80 57 00
        E 0 80 4b 00
        E 120 90 63 60
        E 0 90 57 60
        E 0 90 4b 60
        E 0 90 3e 60
        E 120 80 63 00
        E 0 80 57 00
        E 0 80 4b 00
        E 0 80 3e 00
        E 120 90 63 60
        E 0 90 57 60
        E 0 90 4b 60
        E 120 80 63 00
        E 0 80 57 00
        E 0 80 4b 00
        E 120 90 63 60
        E 0 90 57 60
        E 0 90 4b 60
        E 0 90 3e 60
        E 120 80 63 00
        E 0 80 57 00
        E 0 80 4b 00
        E 0 80 3e 00
        E 120 90 63 60
        E 0 90 57 60
        E 0 90 4b 60
        E 120 80 63 00
        E 0 80 57 00
        E 0 80 4b 00
        E 120 90 63 60
        E 0 90 57 60
        E 0 90 4b 60
        E 120 80 63 00
        E 0 80 57 00
        E 0 80 4b 00
        E 120 90 63 60
        E 0 90 57 60
        E 120 80 63 00
        E 0 80 57 00
        E 0 90 62 60
        E 0 90 65 60
        E 120 80 62 00
        E 0 80 65 00
        E 0 90 60 60
        E 0 90 54 60
        E 0 90 48 60
        E 0 90 3c 60
        E 120 80 74 00
        E 0 80 60 00
        E 0 80 54 00
        E 0 80 48 00
        E 0 80 3c 00
        E 120 90 60 60
        E 0 90 54 60
        E 0 90 48 60
        E 120 80 60 00
        E 0 80 54 00
        E 0 80 48 00
        E 120 90 60 60
        E 0 90 54 60
        E 0 90 48 60
        E 0 90 3c 60
        E 120 80 60 00
        E 0 80 54 00
        E 0 80 48 00
        E 0 80 3c 00
        E 120 90 60 60
        E 0 90 54 60
        E 0 90 48 60
        E 120 80 60 00
        E 0 80 54 00
        E 0 80 48 00
        E 120 90 60 60
        E 0 90 54 60
        E 0 90 48 60
        E 0 90 3c 60
        E 120 80 60 00
        E 0 80 54 00
        E 0 80 48 00
        E 0 80 3c 00
        E 120 90 60 60
        E 0 90 54 60
        E 0 90 48 60
        E 120 80 60 00
        E 0 80 54 00
        E 0 80 48 00
        E 120 90 60 60
        E 0 90 54 60
        E 0 90 48 60
        E 0 90 3c 60
        E 120 80 60 00
        E 0 80 54 00
        E 0 80 48 00
        E 0 80 3c 00
        E 120 90 60 60
        E 0 90 54 60
        E 0 90 48 60
        E 120 80 60 00
        E 0 80 54 00
        E 0 80 48 00
        E 120 90 60 60
        E 0 90 54 60
        E 0 90 48 60
        E 0 90 3c 60
        E 120 80 60 00
        E 0 80 54 00
        E 0 80 48 00
        E 0 80 3c 00
        E 120 90 60 60
        E 0 90 54 60
        E 0 90 48 60
        E 120 80 60 00
        E 0 80 54 00
        E 0 80 48 00
        E 120 90 60 60
        E 0 90 54 60
        E 0 90 48 60
        E 0 90 3c 60
        E 120 80 60 00
        E 0 80 54 00
        E 0 80 48 00
        E 0 80 3c 00
        E 120 90 60 60
        E 0 90 54 60
        E 0 90 48 60
        E 120 80 60 00
        E 0 80 54 00
        E 0 80 48 00
        E 120 90 60 60
        E 0 90 54 60
        E 0 90 48 60
        E 0 90 3c 60
        E 120 80 60 00
        E 0 80 54 00
        E 0 80 48 00
        E 0 80 3c 00
        E 120 90 60 60
        E 0 90 54 60
        E 0 90 48 60
        E 120 80 60 00
        E 0 80 54 00
        E 0 80 48 00
        E 120 90 60 60
        E 0 90 54 60
        E 0 90 48 60
        E 120 80 60 00
        E 0 80 54 00
        E 0 80 48 00
        E 120 90 60 60
        E 0 90 54 60
        E 120 80 60 00
        E 0 80 54 00
        E 120 90 63 60
        E 0 90 57 60
        E 0 90 4b 60
        E 0 90 3e 60
        E 120 80 63 00
        E 0 80 57 00
        E 0 80 4b 00
        E 0 80 3e 00
        E 120 90 63 60
        E 0 90 57 60
        E 0 90 4b 60
        E 120 80 63 00
        E 0 80 57 00
        E 0 80 4b 00
        E 120 90 63 60
        E 0 90 57 60
        E 0 90 4b 60
        E 0 90 3e 60
        E 120 80 63 00
        E 0 80 57 00
        E 0 80 4b 00
        E 0 80 3e 00
        E 120 90 63 60
        E 0 90 57 60
        E 0 90 4b 60
        E 120 80 63 00
        E 0 80 57 00
        E 0 80 4b 00
        E 120 90 63 60
        E 0 90 57 60
        E 0 90 4b 60
        E 0 90 3e 60
        E 120 80 63 00
        E 0 80 57 00
        E 0 80 4b 00
        E 0 80 3e 00
        E 120 90 63 60
        E 0 90 57 60
        E 0 90 4b 60
        E 120 80 63 00
        E 0 80 57 00
        E 0 80 4b 00
        E 120 90 63 60
        E 0 90 57 60
        E 0 90 4b 60
        E 0 90 3e 60
        E 120 80 63 00
        E 0 80 57 00
        E 0 80 4b 00
        E 0 80 3e 00
        E 120 90 63 60
        E 0 90 57 60
        E 0 90 4b 60
        E 120 80 63 00
        E 0 80 57 00
        E 0 80 4b 00
        E 120 90 63 60
        E 0 90 57 60
        E 0 90 4b 60
        E 0 90 3e 60
        E 120 80 63 00
        E 0 80 57 00
        E 0 80 4b 00
        E 0 80 3e 00
        E 120 90 63 60
        E 0 90 57 60
        E 0 90 4b 60
        E 120 80 63 00
        E 0 80 57 00
        E 0 80 4b 00
        E 120 90 63 60
        E 0 90 57 60
        E 0 90 4b 60
        E 0 90 3e 60
        E 120 80 63 00
        E 0 80 57 00
        E 0 80 4b 00
        E 0 80 3e 00
        E 120 90 63 60
        E 0 90 57 60
        E 0 90 4b 60
        E 120 80 63 00
        E 0 80 57 00
        E 0 80 4b 00
        E 120 90 63 60
        E 0 90 57 60
        E 0 90 4b 60
        E 0 90 3e 60
        E 120 80 63 00
        E 0 80 57 00
        E 0 80 4b 00
        E 0 80 3e 00
        E 120 90 63 60
        E 0 90 57 60
        E 0 90 4b 60
        E 120 80 63 00
        E 0 80 57 00
        E 0 80 4b 00
        E 120 90 63 60
        E 0 90 57 60
        E 0 90 4b 60
        E 120 80 63 00
        E 0 80 57 00
        E 0 80 4b 00
        E 120 90 63 60
        E 0 90 57 60
        E 120 80 63 00
        E 0 80 57 00
        E 0 90 62 60
        E 0 90 65 60
        E 120 80 62 00
        E 0 80 65 00
        E 0 90 60 60
        E 0 90 54 60
        E 0 90 48 60
        E 0 90 3c 60
        E 120 80 60 00
        E 0 80 54 00
        E 0 80 48 00
        E 0 80 3c 00
        E 120 90 60 60
        E 0 90 54 60
        E 0 90 48 60
        E 120 80 60 00
        E 0 80 54 00
        E 0 80 48 00
        E 120 90 60 60
        E 0 90 54 60
        E 0 90 48 60
        E 0 90 3c 60
        E 120 80 60 00
        E 0 80 54 00
        E 0 80 48 00
        E 0 80 3c 00
        E 120 90 60 60
        E 0 90 54 60
        E 0 90 48 60
        E 120 80 60 00
        E 0 80 54 00
        E 0 80 48 00
        E 120 90 60 60
        E 0 90 54 60
        E 0 90 48 60
        E 0 90 3c 60
        E 120 80 60 00
        E 0 80 54 00
        E 0 80 48 00
        E 0 80 3c 00
        E 120 90 60 60
        E 0 90 54 60
        E 0 90 48 60
        E 120 80 60 00
        E 0 80 54 00
        E 0 80 48 00
        E 120 90 60 60
        E 0 90 54 60
        E 0 90 48 60
        E 0 90 3c 60
        E 120 80 60 00
        E 0 80 54 00
        E 0 80 48 00
        E 0 80 3c 00
        E 120 90 60 60
        E 0 90 54 60
        E 0 90 48 60
        E 120 80 60 00
        E 0 80 54 00
        E 0 80 48 00
        E 120 90 60 60
        E 0 90 54 60
        E 0 90 48 60
        E 0 90 3c 60
        E 119 80 60 00
        E 0 80 54 00
        E 0 80 48 00
        E 0 80 3c 00
        E 120 90 60 60
        E 0 90 54 60
        E 121 80 60 00
        E 0 80 54 00
        E 120 90 60 60
        E 0 90 54 60
        E 0 90 48 60
        E 0 90 3c 60
        E 120 80 60 00
        E 0 80 54 00
        E 0 80 48 00
        E 0 80 3c 00
        E 119 90 60 60
        E 0 90 54 60
        E 120 80 60 00
        E 0 80 54 00
        E 121 90 60 60
        E 0 90 54 60
        E 0 90 48 60
        E 0 90 3c 60
        E 120 80 60 00
        E 0 80 54 00
        E 0 80 48 00
        E 0 80 3c 00
        E 119 90 60 60
        E 0 90 54 60
        E 120 80 60 00
        E 0 80 54 00
        E 121 90 60 60
        E 0 90 54 60
        E 0 90 48 60
        E 120 80 60 00
        E 0 80 54 00
        E 0 80 48 00
        E 120 90 60 60
        E 0 90 54 60
        E 119 80 60 00
        E 0 80 54 00
        E 0 90 61 60
        E 120 80 61 00
        E 0 90 62 60
        E 0 90 56 60
        E 0 90 4a 60
        E 0 90 3e 60
        E 120 80 62 00
        E 0 80 56 00
        E 0 80 4a 00
        E 0 80 3e 00
        E 120 90 62 60
        E 0 90 56 60
        E 120 80 62 00
        E 0 80 56 00
        E 121 90 62 60
        E 0 90 56 60
        E 0 90 4a 60
        E 0 90 3e 60
        E 120 80 62 00
        E 0 80 56 00
        E 0 80 4a 00
        E 0 80 3e 00
        E 120 90 62 60
        E 0 90 56 60
        E 0 90 4a 60
        E 120 80 62 00
        E 0 80 56 00
        E 0 80 4a 00
        E 120 90 62 60
        E 0 90 56 60
        E 0 90 4a 60
        E 0 90 3e 60
        E 120 80 62 00
        E 0 80 56 00
        E 0 80 4a 00
        E 0 80 3e 00
        E 120 90 62 60
        E 0 90 56 60
        E 0 90 4a 60
        E 120 80 62 00
        E 0 80 56 00
        E 0 80 4a 00
        E 120 90 62 60
        E 0 90 56 60
        E 0 90 4a 60
        E 119 80 62 00
        E 0 80 56 00
        E 0 80 4a 00
        E 120 90 62 60
        E 0 90 56 60
        E 120 80 62 00
        E 0 80 56 00
        E 120 90 60 60
        E 0 90 54 60
        E 0 90 48 60
        E 0 90 3c 60
        E 120 80 60 00
        E 0 80 54 00
        E 0 80 48 00
        E 0 80 3c 00
        E 120 90 60 60
        E 0 90 54 60
        E 120 80 60 00
        E 0 80 54 00
        E 120 90 60 60
        E 0 90 54 60
        E 0 90 48 60
        E 120 80 60 00
        E 0 80 54 00
        E 0 80 48 00
        E 120 90 60 60
        E 0 90 54 60
        E 120 80 60 00
        E 0 80 54 00
        E 120 90 60 60
        E 0 90 54 60
        E 0 90 48 60
        E 0 90 3c 60
        E 120 80 60 00
        E 0 80 54 00
        E 0 80 48 00
        E 0 80 3c 00
        E 120 90 60 60
        E 0 90 54 60
        E 120 80 60 00
        E 0 80 54 00
        E 121 90 60 60
        E 0 90 54 60
        E 0 90 48 60
        E 120 80 60 00
        E 0 80 54 00
        E 0 80 48 00
        E 120 90 60 60
        E 0 90 54 60
        E 120 80 60 00
        E 0 80 54 00
        E 120 90 62 60
        E 0 90 56 60
        E 0 90 4a 60
        E 0 90 3e 60
        E 120 80 62 00
        E 0 80 56 00
        E 0 80 4a 00
        E 0 80 3e 00
        E 120 90 62 60
        E 0 90 56 60
        E 0 90 4a 60
        E 120 80 62 00
        E 0 80 56 00
        E 0 80 4a 00
        E 120 90 62 60
        E 0 90 56 60
        E 0 90 4a 60
        E 120 80 62 00
        E 0 80 56 00
        E 0 80 4a 00
        E 119 90 62 60
        E 0 90 56 60
        E 120 80 62 00
        E 0 80 56 00
        E 120 90 62 60
        E 0 90 56 60
        E 0 90 4a 60
        E 0 90 3e 60
        E 120 80 62 00
        E 0 80 56 00
        E 0 80 4a 00
        E 0 80 3e 00
        E 120 90 62 60
        E 0 90 56 60
        E 120 80 62 00
        E 0 80 56 00
        E 120 90 62 60
        E 0 90 56 60
        E 0 90 4a 60
        E 120 80 62 00
        E 0 80 56 00
        E 0 80 4a 00
        E 120 90 63 60
        E 0 90 57 60
        E 120 80 63 00
        E 0 80 57 00
        E 120 90 63 60
        E 0 90 57 60
        E 0 90 4b 60
        E 0 90 3e 60
        <X 5760 0
          /wFbaWRsZV9yZWFsdGltZV0=
        >
        E 0 80 63 00
        E 0 80 57 00
        E 0 80 4b 00
        E 0 80 3e 00
        E 3841 b0 7b 00
        GUID {42934822-E39C-4407-91DA-399BFA3FC599}
        IGNTEMPO 0 120.00000000 4 4
        SRCCOLOR 117
        VELLANE 132 100 0
        COLORMAP "C:\Program Files\REAPER (x64)\Data\color_maps\rockband_guitarbass.png"
        CFGEDITVIEW 0.000000 0.003329 0 12 0 0 0
        CFGEDIT 1 1 0 1 1 0 1 1 1 1 1 0.12500000 53 44 1253 718 0 2 0 1 0.00000000 0 1 0 0 0.500000 0 0 1.000000 64
        KEYSNAP 0 7 "102030050700" 0 "Pentatonic"
        EVTFILTER 0 -1 -1 -1 -1 0 1 0 0 -1.00000000 -1.00000000
      >
    >
  >
  <TRACK '{C3979D52-4D44-471A-8B26-E22B579452E1}'
    NAME "PART VOCALS"
    PEAKCOL 16576
    BEAT -1
    AUTOMODE 0
    VOLPAN 1.00000000000000 0.00000000000000 -1.00000000000000 -1.00000000000000 1.00000000000000
    MUTESOLO 0 0 0
    IPHASE 0
    ISBUS 1 1
    BUSCOMP 0 0
    SHOWINMIX 1 0.666700 0.500000 1 0.500000 -1 -1 -1
    FREEMODE 0
    SEL 0
    REC 0 0 0 0 0 0 0
    VU 2
    TRACKHEIGHT 0 0
    INQ 0 0 0 0.5000000000 100 0 0 100
    NCHAN 2
    FX 1
    TRACKID {C3979D52-4D44-471A-8B26-E22B579452E1}
    PERF 0
    MIDIOUT -1
    <MIDINOTENAMES
      0 116 "OVERDRIVE"
      0 115 "----"
      0 105 "Phrase Marker"
      0 104 "----"
      0 97 "Non-Displayed Percussion"
      0 96 "Displayed Percussion"
      0 95 "----"
      0 84 "C6 (Unused Highest Note)"
      0 83 "B5"
      0 82 "A#4"
      0 81 "A4"
      0 80 "G#4"
      0 79 "G4"
      0 78 "F#4"
      0 77 "F4"
      0 76 "E4"
      0 75 "D#4"
      0 74 "D4"
      0 73 "C#4"
      0 72 "C4"
      0 71 "B3"
      0 70 "A#3"
      0 69 "A3"
      0 68 "G#3"
      0 67 "G3"
      0 66 "F#3"
      0 65 "F3"
      0 64 "E3"
      0 63 "D#3"
      0 62 "D3"
      0 61 "C#3"
      0 60 "C3"
      0 59 "B2"
      0 58 "A#2"
      0 57 "A2"
      0 56 "G#2"
      0 55 "G2"
      0 54 "F#2"
      0 53 "F2"
      0 52 "E2"
      0 51 "D#2"
      0 50 "D2"
      0 49 "C#2"
      0 48 "C2"
      0 47 "B1"
      0 46 "A#1"
      0 45 "A1"
      0 44 "G#1"
      0 43 "G1"
      0 42 "F#1"
      0 41 "F1"
      0 40 "E1"
      0 39 "D#1"
      0 38 "D1"
      0 37 "C#1"
      0 36 "Lowest Note C1"
      0 2 "---"
      0 1 "Lyric Shift"
      0 0 "Range Shift"
    >
    MAINSEND 1 0
    <FXCHAIN
      SHOW 0
      LASTSEL 0
      DOCKED 0
    >
    <ITEM
      POSITION 0.00000000000000
      SNAPOFFS 0.00000000000000
      LENGTH 194.42554622500001
      LOOP 0
      ALLTAKES 0
      SEL 0
      FADEIN 1 0.000000 0.000000 1 0
      FADEOUT 1 0.000000 0.000000 1 0
      MUTE 0
      IGUID {B0E056E1-2A54-4C5E-A5CF-935A8D0FEA8D}
      IID 6
      NAME "PART VOCALS"
      VOLPAN 1.000000 0.000000 1.000000 -1.000000
      SOFFS 0.00000000000000 0.00000000000000
      PLAYRATE 1.00000000000000 1 0.00000000000000 -1
      CHANMODE 0
      GUID {41D27AA6-910B-4099-BB0B-8980B2CD1212}
      <SOURCE MIDI
        HASDATA 1 480 QN
        POOLEDEVTS {692C8329-23F1-47C1-9F5A-7979F623E98D}
        <X 0 0
          /wNQQVJUIFZPQ0FMUw==
        >
        <X 5760 0
          /wFbcGxheV0=
        >
        E 0 90 69 60
        <X 480 0
          /wVDYW4=
        >
        E 0 90 3f 60
        E 150 80 3f 00
        <X 90 0
          /wVJ
        >
        E 0 90 3f 60
        E 150 80 3f 00
        <X 90 0
          /wViZWF0
        >
        E 0 90 3f 60
        E 180 80 3f 00
        <X 60 0
          /wUnZW0=
        >
        E 0 90 3f 60
        E 390 80 3f 00
        <X 90 0
          /wVub3c=
        >
        E 0 90 3f 60
        E 870 80 3f 00
        E 90 90 01 60
        E 58 80 01 00
        <X 1622 0
          /wVDYW4=
        >
        E 0 90 3f 60
        E 150 80 3f 00
        <X 90 0
          /wVJ
        >
        E 0 90 3f 60
        E 150 80 3f 00
        <X 90 0
          /wVnZXQ=
        >
        E 0 90 3f 60
        E 120 80 3f 00
        <X 120 0
          /wV5b3Vy
        >
        E 0 90 3f 60
        E 390 80 3f 00
        <X 90 0
          /wVsb3Zl
        >
        E 0 90 3f 60
        E 870 80 3f 00
        E 330 80 69 00
        E 960 90 69 60
        E 0 90 74 60
        <X 480 0
          /wVDYW4=
        >
        E 0 90 3f 60
        E 150 80 3f 00
        <X 90 0
          /wVJ
        >
        E 0 90 3f 60
        E 150 80 3f 00
        <X 90 0
          /wViZWF0
        >
        E 0 90 3f 60
        E 180 80 3f 00
        <X 60 0
          /wUnZW0=
        >
        E 0 90 3f 60
        E 390 80 3f 00
        <X 90 0
          /wVub3c=
        >
        E 0 90 3f 60
        E 870 80 3f 00
        E 330 90 01 60
        E 58 80 01 00
        <X 1382 0
          /wVDYW4=
        >
        E 0 90 3f 60
        E 150 80 3f 00
        <X 90 0
          /wVJ
        >
        E 0 90 3f 60
        E 150 80 3f 00
        <X 90 0
          /wVnZXQ=
        >
        E 0 90 3f 60
        E 120 80 3f 00
        <X 120 0
          /wV5b3Vy
        >
        E 0 90 3f 60
        E 390 80 3f 00
        <X 90 0
          /wVsb3Zl
        >
        E 0 90 3f 60
        E 870 80 3f 00
        E 330 80 69 00
        E 0 80 74 00
        E 960 90 69 60
        <X 480 0
          /wVEb24ndA==
        >
        E 0 90 3f 60
        E 150 80 3f 00
        <X 90 0
          /wV5b3U=
        >
        E 0 90 3f 60
        E 150 80 3f 00
        <X 90 0
          /wVyZS0=
        >
        E 0 90 3f 60
        E 180 80 3f 00
        <X 60 0
          /wVhLQ==
        >
        E 0 90 3f 60
        E 240 80 3f 00
        <X 240 0
          /wVsaXpl
        >
        E 0 90 3f 60
        E 870 80 3f 00
        E 90 90 01 60
        E 58 80 01 00
        <X 1382 0
          /wVJ
        >
        E 0 90 3f 60
        E 150 80 3f 00
        <X 90 0
          /wVsb25n
        >
        E 0 90 3f 60
        E 330 80 3f 00
        <X 150 0
          /wVmb3I=
        >
        E 0 90 3f 60
        E 120 80 3f 00
        <X 120 0
          /wV5b3Vy
        >
        E 0 90 3f 60
        E 390 80 3f 00
        <X 90 0
          /wVsaXBz
        >
        E 0 90 3f 60
        E 660 80 3f 00
        E 540 80 69 00
        E 960 90 69 60
        <X 480 0
          /wVEb24ndA==
        >
        E 0 90 3f 60
        E 150 80 3f 00
        <X 90 0
          /wV5b3U=
        >
        E 0 90 3f 60
        E 150 80 3f 00
        <X 90 0
          /wVyZS0=
        >
        E 0 90 3f 60
        E 180 80 3f 00
        <X 60 0
          /wVhLQ==
        >
        E 0 90 3f 60
        E 240 80 3f 00
        <X 240 0
          /wVsaXpl
        >
        E 0 90 3f 60
        E 870 80 3f 00
        E 90 90 01 60
        E 58 80 01 00
        <X 1382 0
          /wVJ
        >
        E 0 90 3f 60
        E 150 80 3f 00
        <X 90 0
          /wVsb25n
        >
        E 0 90 3f 60
        E 330 80 3f 00
        <X 150 0
          /wVmb3I=
        >
        E 0 90 3f 60
        E 120 80 3f 00
        <X 120 0
          /wV5b3Vy
        >
        E 0 90 3f 60
        E 390 80 3f 00
        <X 90 0
          /wVsaXBz
        >
        E 0 90 3f 60
        E 660 80 3f 00
        E 540 80 69 00
        E 960 90 69 60
        E 0 90 74 60
        <X 480 0
          /wVMZXQ=
        >
        E 0 90 3d 60
        E 180 80 3d 00
        <X 60 0
          /wVtZQ==
        >
        E 0 90 3d 60
        E 150 80 3d 00
        <X 90 0
          /wVvdXQ=
        >
        E 0 90 3d 60
        E 360 80 3d 00
        <X 120 0
          /wVvZg==
        >
        E 0 90 3d 60
        E 90 80 3d 00
        <X 150 0
          /wVoZXJl
        >
        E 0 90 40 60
        E 630 80 40 00
        E 90 90 01 60
        E 58 80 01 00
        <X 1862 0
          /wVsZXQ=
        >
        E 0 90 3d 60
        E 180 80 3d 00
        <X 60 0
          /wVtZQ==
        >
        E 0 90 3d 60
        E 150 80 3d 00
        <X 90 0
          /wVvdXQ=
        >
        E 0 90 3d 60
        E 360 80 3d 00
        <X 120 0
          /wVvZg==
        >
        E 0 90 3d 60
        E 90 80 3d 00
        <X 150 0
          /wVoZXJl
        >
        E 0 90 40 60
        E 630 80 40 00
        <X 90 0
          /wFbaW50ZW5zZV0=
        >
        E 0 80 69 00
        E 0 80 74 00
        E 0 90 69 60
        <X 240 0
          /wVZb3U=
        >
        E 0 90 3d 60
        E 120 80 3d 00
        <X 120 0
          /wVkcml2ZQ==
        >
        E 0 90 3d 60
        E 300 80 3d 00
        <X 180 0
          /wVtZQ==
        >
        E 0 90 40 60
        E 330 80 40 00
        <X 150 0
          /wVyb3VuZA==
        >
        E 0 90 42 60
        E 300 80 42 00
        <X 180 0
          /wVhbmQ=
        >
        E 0 90 44 60
        E 180 80 44 00
        <X 60 0
          /wVyb3VuZA==
        >
        E 0 90 42 60
        E 120 80 42 00
        <X 210 0
          /wUr
        >
        E 0 90 40 60
        E 30 80 40 00
        E 30 90 01 60
        E 58 80 01 00
        <X 32 0
          /wV5b3U=
        >
        E 0 90 40 60
        E 90 80 40 00
        <X 150 0
          /wVkcml2ZQ==
        >
        E 0 90 3d 60
        E 90 80 3d 00
        <X 150 0
          /wVtZQ==
        >
        E 0 90 40 60
        E 90 80 40 00
        <X 150 0
          /wVyb3VuZA==
        >
        E 0 90 42 60
        E 300 80 42 00
        <X 180 0
          /wVhbmQ=
        >
        E 0 90 44 60
        E 180 80 44 00
        <X 60 0
          /wVyb3VuZA==
        >
        E 0 90 42 60
        E 120 80 42 00
        <X 210 0
          /wUr
        >
        E 0 90 40 60
        E 30 80 69 00
        E 0 80 40 00
        E 0 90 69 60
        <X 120 0
          /wVVbi0=
        >
        E 0 90 40 60
        E 90 80 40 00
        <X 150 0
          /wV0aWw=
        >
        E 0 90 3d 60
        E 90 80 3d 00
        <X 150 0
          /wVJ
        >
        E 0 90 40 60
        E 90 80 40 00
        <X 150 0
          /wVjcmFzaA==
        >
        E 0 90 42 60
        E 300 80 42 00
        <X 180 0
          /wVpbi0=
        >
        E 0 90 44 60
        E 150 80 44 00
        <X 90 0
          /wV0bw==
        >
        E 0 90 42 60
        E 120 80 42 00
        <X 210 0
          /wUr
        >
        E 0 90 40 60
        E 30 80 40 00
        <X 120 0
          /wV0aGU=
        >
        E 0 90 40 60
        E 60 80 40 00
        <X 180 0
          /wVzdGFycw==
        >
        E 0 90 3d 60
        E 690 80 3d 00
        E 270 80 69 00
        E 0 90 69 60
        <X 240 0
          /wVZb3U=
        >
        E 0 90 3d 60
        E 120 80 3d 00
        <X 120 0
          /wV0YWtl
        >
        E 0 90 3d 60
        E 300 80 3d 00
        <X 180 0
          /wVtZQ==
        >
        E 0 90 40 60
        E 330 80 40 00
        <X 150 0
          /wVmb3I=
        >
        E 0 90 42 60
        E 300 80 42 00
        <X 180 0
          /wVh
        >
        E 0 90 44 60
        E 180 80 44 00
        <X 60 0
          /wVzcGlu
        >
        E 0 90 42 60
        E 120 80 42 00
        <X 210 0
          /wUr
        >
        E 0 90 40 60
        E 30 80 40 00
        E 30 90 01 60
        E 58 80 01 00
        <X 32 0
          /wV5b3U=
        >
        E 0 90 40 60
        E 90 80 40 00
        <X 150 0
          /wV0YWtl
        >
        E 0 90 3d 60
        E 90 80 3d 00
        <X 150 0
          /wVtZQ==
        >
        E 0 90 40 60
        E 90 80 40 00
        <X 150 0
          /wVmb3I=
        >
        E 0 90 42 60
        E 300 80 42 00
        <X 180 0
          /wVh
        >
        E 0 90 44 60
        E 180 80 44 00
        <X 60 0
          /wVzcGlu
        >
        E 0 90 42 60
        E 120 80 42 00
        <X 210 0
          /wUr
        >
        E 0 90 40 60
        E 30 80 69 00
        E 0 80 40 00
        E 0 90 69 60
        <X 120 0
          /wVVbi0=
        >
        E 0 90 40 60
        E 90 80 40 00
        <X 150 0
          /wV0aWw=
        >
        E 0 90 3d 60
        E 90 80 3d 00
        <X 150 0
          /wVJ
        >
        E 0 90 40 60
        E 90 80 40 00
        <X 150 0
          /wVjcmFzaA==
        >
        E 0 90 42 60
        E 300 80 42 00
        <X 180 0
          /wVpbi0=
        >
        E 0 90 44 60
        E 150 80 44 00
        <X 90 0
          /wV0bw==
        >
        E 0 90 42 60
        E 120 80 42 00
        <X 210 0
          /wUr
        >
        E 0 90 40 60
        E 30 80 40 00
        <X 120 0
          /wV0aGU=
        >
        E 0 90 40 60
        E 60 80 40 00
        <X 180 0
          /wVzdGFycw==
        >
        E 0 90 3d 60
        E 690 80 3d 00
        E 750 80 69 00
        E 960 90 69 60
        E 0 90 74 60
        <X 240 0
          /wVJJ20=
        >
        E 0 90 44 60
        E 180 80 44 00
        <X 60 0
          /wVicmVhay0=
        >
        E 0 90 42 60
        E 150 80 42 00
        <X 90 0
          /wVpbmc=
        >
        E 0 90 40 60
        E 150 80 40 00
        <X 90 0
          /wVpbi0=
        >
        E 0 90 42 60
        E 300 80 42 00
        <X 180 0
          /wV0bw==
        >
        E 0 90 44 60
        E 300 80 44 00
        <X 180 0
          /wVjYXJz
        >
        E 0 90 3d 60
        E 990 80 3d 00
        E 210 90 01 60
        E 58 80 01 00
        <X 902 0
          /wVJJ20=
        >
        E 0 90 44 60
        E 180 80 44 00
        <X 60 0
          /wVicmVhay0=
        >
        E 0 90 42 60
        E 150 80 42 00
        <X 90 0
          /wVpbmc=
        >
        E 0 90 40 60
        E 150 80 40 00
        <X 90 0
          /wVpbi0=
        >
        E 0 90 42 60
        E 300 80 42 00
        <X 180 0
          /wV0bw==
        >
        E 0 90 44 60
        E 300 80 44 00
        <X 180 0
          /wVjYXJz
        >
        E 0 90 3d 60
        E 1140 80 3d 00
        <X 300 0
          /wFbcGxheV0=
        >
        E 480 80 69 00
        E 0 80 74 00
        E 1920 90 69 60
        <X 480 0
          /wVDYW4=
        >
        E 0 90 3f 60
        E 150 80 3f 00
        <X 90 0
          /wVJ
        >
        E 0 90 3f 60
        E 150 80 3f 00
        <X 90 0
          /wViZWF0
        >
        E 0 90 3f 60
        E 180 80 3f 00
        <X 60 0
          /wUnZW0=
        >
        E 0 90 3f 60
        E 390 80 3f 00
        <X 90 0
          /wVub3c=
        >
        E 0 90 3f 60
        E 870 80 3f 00
        E 90 90 01 60
        E 58 80 01 00
        <X 1622 0
          /wVDYW4=
        >
        E 0 90 3f 60
        E 150 80 3f 00
        <X 90 0
          /wVJ
        >
        E 0 90 3f 60
        E 150 80 3f 00
        <X 90 0
          /wVnZXQ=
        >
        E 0 90 3f 60
        E 120 80 3f 00
        <X 120 0
          /wV5b3Vy
        >
        E 0 90 3f 60
        E 390 80 3f 00
        <X 90 0
          /wVsb3Zl
        >
        E 0 90 3f 60
        E 870 80 3f 00
        E 330 80 69 00
        E 960 90 69 60
        <X 480 0
          /wVDYW4=
        >
        E 0 90 3f 60
        E 150 80 3f 00
        <X 90 0
          /wVJ
        >
        E 0 90 3f 60
        E 150 80 3f 00
        <X 90 0
          /wViZWF0
        >
        E 0 90 3f 60
        E 180 80 3f 00
        <X 60 0
          /wUnZW0=
        >
        E 0 90 3f 60
        E 390 80 3f 00
        <X 90 0
          /wVub3c=
        >
        E 0 90 3f 60
        E 870 80 3f 00
        E 90 90 01 60
        E 58 80 01 00
        <X 1622 0
          /wVDYW4=
        >
        E 0 90 3f 60
        E 150 80 3f 00
        <X 90 0
          /wVJ
        >
        E 0 90 3f 60
        E 150 80 3f 00
        <X 90 0
          /wVnZXQ=
        >
        E 0 90 3f 60
        E 120 80 3f 00
        <X 120 0
          /wV5b3Vy
        >
        E 0 90 3f 60
        E 390 80 3f 00
        <X 90 0
          /wVsb3Zl
        >
        E 0 90 3f 60
        E 870 80 3f 00
        E 330 80 69 00
        E 960 90 69 60
        E 0 90 74 60
        <X 240 0
          /wVZb3U=
        >
        E 0 90 3f 60
        E 60 80 3f 00
        <X 180 0
          /wVrZWVw
        >
        E 0 90 3f 60
        E 150 80 3f 00
        <X 90 0
          /wVpZy0=
        >
        E 0 90 3f 60
        E 150 80 3f 00
        <X 90 0
          /wVub3It
        >
        E 0 90 3f 60
        E 180 80 3f 00
        <X 60 0
          /wVpbmc=
        >
        E 0 90 3f 60
        E 360 80 3f 00
        <X 120 0
          /wVtZQ==
        >
        E 0 90 3f 60
        E 870 80 3f 00
        E 90 90 01 60
        E 58 80 01 00
        <X 1622 0
          /wVhbmQ=
        >
        E 0 90 3f 60
        E 150 80 3f 00
        <X 90 0
          /wV0aGU=
        >
        E 0 90 3f 60
        E 90 80 3f 00
        <X 150 0
          /wV0ZWFyLQ==
        >
        E 0 90 3f 60
        E 120 80 3f 00
        <X 120 0
          /wVkcm9wcw==
        >
        E 0 90 3f 60
        E 390 80 3f 00
        <X 120 0
          /wVmYWxs
        >
        E 0 90 3f 60
        E 660 80 3f 00
        E 510 80 69 00
        E 0 80 74 00
        E 960 90 69 60
        <X 240 0
          /wVZb3U=
        >
        E 0 90 3f 60
        E 60 80 3f 00
        <X 180 0
          /wVrZWVw
        >
        E 0 90 3f 60
        E 150 80 3f 00
        <X 90 0
          /wVpZy0=
        >
        E 0 90 3f 60
        E 150 80 3f 00
        <X 90 0
          /wVub3It
        >
        E 0 90 3f 60
        E 180 80 3f 00
        <X 60 0
          /wVpbmc=
        >
        E 0 90 3f 60
        E 240 80 3f 00
        <X 240 0
          /wVtZQ==
        >
        E 0 90 3f 60
        E 810 80 3f 00
        E 150 90 01 60
        E 58 80 01 00
        <X 1622 0
          /wVhbmQ=
        >
        E 0 90 3f 60
        E 150 80 3f 00
        <X 90 0
          /wV0aGU=
        >
        E 0 90 3f 60
        E 90 80 3f 00
        <X 150 0
          /wV0ZWFyLQ==
        >
        E 0 90 3f 60
        E 120 80 3f 00
        <X 120 0
          /wVkcm9wcw==
        >
        E 0 90 3f 60
        E 390 80 3f 00
        <X 120 0
          /wVmYWxs
        >
        E 0 90 3f 60
        E 660 80 3f 00
        E 510 80 69 00
        E 960 90 69 60
        <X 480 0
          /wVMZXQ=
        >
        E 0 90 3d 60
        E 180 80 3d 00
        <X 60 0
          /wVtZQ==
        >
        E 0 90 3d 60
        E 150 80 3d 00
        <X 90 0
          /wVvdXQ=
        >
        E 0 90 3d 60
        E 360 80 3d 00
        <X 120 0
          /wVvZg==
        >
        E 0 90 3d 60
        E 90 80 3d 00
        <X 150 0
          /wVoZXJl
        >
        E 0 90 40 60
        E 630 80 40 00
        E 90 90 01 60
        E 58 80 01 00
        <X 1862 0
          /wVsZXQ=
        >
        E 0 90 3d 60
        E 180 80 3d 00
        <X 60 0
          /wVtZQ==
        >
        E 0 90 3d 60
        E 150 80 3d 00
        <X 90 0
          /wVvdXQ=
        >
        E 0 90 3d 60
        E 360 80 3d 00
        <X 120 0
          /wVvZg==
        >
        E 0 90 3d 60
        E 90 80 3d 00
        <X 150 0
          /wVoZXJl
        >
        E 0 90 40 60
        E 630 80 40 00
        <X 90 0
          /wFbaW50ZW5zZV0=
        >
        E 0 80 69 00
        E 0 90 69 60
        <X 240 0
          /wVZb3U=
        >
        E 0 90 3d 60
        E 120 80 3d 00
        <X 120 0
          /wVkcml2ZQ==
        >
        E 0 90 3d 60
        E 300 80 3d 00
        <X 180 0
          /wVtZQ==
        >
        E 0 90 40 60
        E 330 80 40 00
        <X 150 0
          /wVyb3VuZA==
        >
        E 0 90 42 60
        E 300 80 42 00
        <X 180 0
          /wVhbmQ=
        >
        E 0 90 44 60
        E 180 80 44 00
        <X 60 0
          /wVyb3VuZA==
        >
        E 0 90 42 60
        E 120 80 42 00
        <X 210 0
          /wUr
        >
        E 0 90 40 60
        E 30 80 40 00
        E 30 90 01 60
        E 58 80 01 00
        <X 32 0
          /wV5b3U=
        >
        E 0 90 40 60
        E 90 80 40 00
        <X 150 0
          /wVkcml2ZQ==
        >
        E 0 90 3d 60
        E 90 80 3d 00
        <X 150 0
          /wVtZQ==
        >
        E 0 90 40 60
        E 90 80 40 00
        <X 150 0
          /wVyb3VuZA==
        >
        E 0 90 42 60
        E 300 80 42 00
        <X 180 0
          /wVhbmQ=
        >
        E 0 90 44 60
        E 180 80 44 00
        <X 60 0
          /wVyb3VuZA==
        >
        E 0 90 42 60
        E 120 80 42 00
        <X 210 0
          /wUr
        >
        E 0 90 40 60
        E 30 80 40 00
        E 60 80 69 00
        E 0 90 69 60
        E 0 90 74 60
        <X 60 0
          /wVVbi0=
        >
        E 0 90 40 60
        E 90 80 40 00
        <X 150 0
          /wV0aWw=
        >
        E 0 90 3d 60
        E 90 80 3d 00
        <X 150 0
          /wVJ
        >
        E 0 90 40 60
        E 90 80 40 00
        <X 150 0
          /wVjcmFzaA==
        >
        E 0 90 42 60
        E 300 80 42 00
        <X 180 0
          /wVpbi0=
        >
        E 0 90 44 60
        E 150 80 44 00
        <X 90 0
          /wV0bw==
        >
        E 0 90 42 60
        E 120 80 42 00
        <X 210 0
          /wUr
        >
        E 0 90 40 60
        E 30 80 40 00
        <X 120 0
          /wV0aGU=
        >
        E 0 90 40 60
        E 60 80 40 00
        <X 180 0
          /wVzdGFycw==
        >
        E 0 90 3d 60
        E 690 80 3d 00
        E 270 80 69 00
        E 0 80 74 00
        E 0 90 69 60
        <X 240 0
          /wVZb3U=
        >
        E 0 90 3d 60
        E 120 80 3d 00
        <X 120 0
          /wV0YWtl
        >
        E 0 90 3d 60
        E 300 80 3d 00
        <X 180 0
          /wVtZQ==
        >
        E 0 90 40 60
        E 330 80 40 00
        <X 150 0
          /wVmb3I=
        >
        E 0 90 42 60
        E 300 80 42 00
        <X 180 0
          /wVh
        >
        E 0 90 44 60
        E 180 80 44 00
        <X 60 0
          /wVzcGlu
        >
        E 0 90 42 60
        E 120 80 42 00
        <X 210 0
          /wUr
        >
        E 0 90 40 60
        E 30 80 40 00
        E 30 90 01 60
        E 58 80 01 00
        <X 32 0
          /wV5b3U=
        >
        E 0 90 40 60
        E 90 80 40 00
        <X 150 0
          /wV0YWtl
        >
        E 0 90 3d 60
        E 90 80 3d 00
        <X 150 0
          /wVtZQ==
        >
        E 0 90 40 60
        E 90 80 40 00
        <X 150 0
          /wVmb3I=
        >
        E 0 90 42 60
        E 300 80 42 00
        <X 180 0
          /wVh
        >
        E 0 90 44 60
        E 180 80 44 00
        <X 60 0
          /wVzcGlu
        >
        E 0 90 42 60
        E 120 80 42 00
        <X 210 0
          /wUr
        >
        E 0 90 40 60
        E 30 80 69 00
        E 0 80 40 00
        E 0 90 69 60
        <X 120 0
          /wVVbi0=
        >
        E 0 90 40 60
        E 90 80 40 00
        <X 150 0
          /wV0aWw=
        >
        E 0 90 3d 60
        E 90 80 3d 00
        <X 150 0
          /wVJ
        >
        E 0 90 40 60
        E 90 80 40 00
        <X 150 0
          /wVjcmFzaA==
        >
        E 0 90 42 60
        E 300 80 42 00
        <X 180 0
          /wVpbi0=
        >
        E 0 90 44 60
        E 150 80 44 00
        <X 90 0
          /wV0bw==
        >
        E 0 90 42 60
        E 120 80 42 00
        <X 210 0
          /wUr
        >
        E 0 90 40 60
        E 30 80 40 00
        <X 120 0
          /wV0aGU=
        >
        E 0 90 40 60
        E 60 80 40 00
        <X 180 0
          /wVzdGFycw==
        >
        E 0 90 3d 60
        E 690 80 3d 00
        E 750 80 69 00
        E 960 90 69 60
        E 0 90 74 60
        <X 240 0
          /wVJJ20=
        >
        E 0 90 44 60
        E 180 80 44 00
        <X 60 0
          /wVicmVhay0=
        >
        E 0 90 42 60
        E 150 80 42 00
        <X 90 0
          /wVpbmc=
        >
        E 0 90 40 60
        E 150 80 40 00
        <X 90 0
          /wVpbi0=
        >
        E 0 90 42 60
        E 300 80 42 00
        <X 180 0
          /wV0bw==
        >
        E 0 90 44 60
        E 300 80 44 00
        <X 180 0
          /wVjYXJz
        >
        E 0 90 3d 60
        E 990 80 3d 00
        E 90 90 01 60
        E 58 80 01 00
        <X 1022 0
          /wVJJ20=
        >
        E 0 90 44 60
        E 180 80 44 00
        <X 60 0
          /wVicmVhay0=
        >
        E 0 90 42 60
        E 150 80 42 00
        <X 90 0
          /wVpbmc=
        >
        E 0 90 40 60
        E 150 80 40 00
        <X 90 0
          /wVpbi0=
        >
        E 0 90 42 60
        E 300 80 42 00
        <X 180 0
          /wV0bw==
        >
        E 0 90 44 60
        E 300 80 44 00
        <X 180 0
          /wVjYXJz
        >
        E 0 90 3d 60
        E 1140 80 3d 00
        E 780 80 69 00
        E 0 80 74 00
        <X 1440 0
          /wFbbWVsbG93XQ==
        >
        <X 0 0
          /wFbdGFtYm91cmluZV9zdGFydF0=
        >
        E 0 90 69 60
        E 480 90 60 60
        E 120 80 60 00
        E 1800 90 60 60
        E 120 80 60 00
        E 1800 90 60 60
        E 120 80 60 00
        E 1800 90 60 60
        E 120 80 60 00
        E 1320 80 69 00
        E 0 90 69 60
        E 480 90 60 60
        E 120 80 60 00
        E 1800 90 60 60
        E 120 80 60 00
        E 1800 90 60 60
        E 120 80 60 00
        E 1800 90 60 60
        E 120 80 60 00
        <X 1800 0
          /wFbcGxheV0=
        >
        E 0 80 69 00
        E 0 90 69 60
        E 480 90 60 60
        E 120 80 60 00
        E 840 90 60 60
        E 120 80 60 00
        E 840 90 60 60
        E 120 80 60 00
        E 840 90 60 60
        E 120 80 60 00
        E 840 90 60 60
        E 120 80 60 00
        E 840 90 60 60
        E 120 80 60 00
        E 840 90 60 60
        E 120 80 60 00
        E 840 90 60 60
        E 120 80 60 00
        E 360 80 69 00
        E 0 90 69 60
        E 480 90 60 60
        E 120 80 60 00
        E 840 90 60 60
        E 120 80 60 00
        E 840 90 60 60
        E 120 80 60 00
        E 840 90 60 60
        E 120 80 60 00
        E 840 90 60 60
        E 120 80 60 00
        E 840 90 60 60
        E 120 80 60 00
        E 840 90 60 60
        E 120 80 60 00
        E 840 90 60 60
        E 120 80 60 00
        E 360 80 69 00
        E 0 90 61 60
        E 0 90 69 60
        E 120 80 61 00
        E 120 90 61 60
        E 120 80 61 00
        E 120 90 60 60
        E 120 80 60 00
        E 120 90 61 60
        E 120 80 61 00
        E 120 90 61 60
        E 120 80 61 00
        E 120 90 61 60
        E 120 80 61 00
        E 120 90 60 60
        E 120 80 60 00
        E 120 90 61 60
        E 120 80 61 00
        E 120 90 61 60
        E 120 80 61 00
        E 120 90 61 60
        E 120 80 61 00
        E 120 90 60 60
        E 120 80 60 00
        E 120 90 61 60
        E 120 80 61 00
        E 120 90 61 60
        E 120 80 61 00
        E 120 90 61 60
        E 120 80 61 00
        E 120 90 60 60
        E 120 80 60 00
        E 120 90 61 60
        E 120 80 61 00
        E 120 90 61 60
        E 120 80 61 00
        E 120 90 61 60
        E 120 80 61 00
        E 120 90 60 60
        E 240 90 61 60
        E 120 80 61 00
        E 120 90 61 60
        E 120 80 61 00
        E 120 90 61 60
        E 120 80 61 00
        E 120 90 60 00
        E 0 90 60 60
        E 120 80 60 00
        E 120 90 61 60
        E 120 80 61 00
        E 120 90 61 60
        E 120 80 61 00
        E 120 90 61 60
        E 120 80 61 00
        E 120 90 60 60
        E 120 80 60 00
        E 120 90 61 60
        E 120 80 61 00
        E 120 90 61 60
        E 120 80 61 00
        E 120 90 61 60
        E 120 80 61 00
        E 120 90 60 60
        E 120 80 60 00
        E 120 90 61 60
        E 120 80 61 00
        E 120 80 69 00
        E 0 90 61 60
        E 0 90 69 60
        E 120 80 61 00
        E 120 90 61 60
        E 120 80 61 00
        E 120 90 60 60
        E 120 80 60 00
        E 120 90 61 60
        E 120 80 61 00
        E 120 90 61 60
        E 120 80 61 00
        E 120 90 61 60
        E 120 80 61 00
        E 120 90 60 60
        E 120 80 60 00
        E 120 90 61 60
        E 120 80 61 00
        E 120 90 61 60
        E 120 80 61 00
        E 120 90 61 60
        E 120 80 61 00
        E 120 90 60 60
        E 120 80 60 00
        E 120 90 61 60
        E 120 80 61 00
        E 120 90 61 60
        E 120 80 61 00
        E 120 90 61 60
        E 120 80 61 00
        E 120 90 60 60
        E 120 80 60 00
        E 120 90 61 60
        E 120 80 61 00
        E 120 90 60 60
        E 120 80 60 00
        <X 120 0
          /wFbdGFtYm91cmluZV9lbmRd
        >
        E 0 80 69 00
        <X 2160 0
          /wFbaW50ZW5zZV0=
        >
        E 0 90 69 60
        <X 240 0
          /wVZb3U=
        >
        E 0 90 3d 60
        E 120 80 3d 00
        <X 120 0
          /wVkcml2ZQ==
        >
        E 0 90 3d 60
        E 300 80 3d 00
        <X 180 0
          /wVtZQ==
        >
        E 0 90 40 60
        E 330 80 40 00
        <X 150 0
          /wVyb3VuZA==
        >
        E 0 90 42 60
        E 300 80 42 00
        <X 180 0
          /wVhbmQ=
        >
        E 0 90 44 60
        E 180 80 44 00
        <X 60 0
          /wVyb3VuZA==
        >
        E 0 90 42 60
        E 120 80 42 00
        <X 210 0
          /wUr
        >
        E 0 90 40 60
        E 30 80 40 00
        E 30 90 01 60
        E 58 80 01 00
        <X 32 0
          /wV5b3U=
        >
        E 0 90 40 60
        E 90 80 40 00
        <X 150 0
          /wVkcml2ZQ==
        >
        E 0 90 3d 60
        E 90 80 3d 00
        <X 150 0
          /wVtZQ==
        >
        E 0 90 40 60
        E 90 80 40 00
        <X 150 0
          /wVyb3VuZA==
        >
        E 0 90 42 60
        E 300 80 42 00
        <X 180 0
          /wVhbmQ=
        >
        E 0 90 44 60
        E 180 80 44 00
        <X 60 0
          /wVyb3VuZA==
        >
        E 0 90 42 60
        E 120 80 42 00
        <X 210 0
          /wUr
        >
        E 0 90 40 60
        E 30 80 40 00
        E 60 80 69 00
        E 0 90 69 60
        E 0 90 74 60
        <X 60 0
          /wVVbi0=
        >
        E 0 90 40 60
        E 90 80 40 00
        <X 150 0
          /wV0aWw=
        >
        E 0 90 3d 60
        E 90 80 3d 00
        <X 150 0
          /wVJ
        >
        E 0 90 40 60
        E 90 80 40 00
        <X 150 0
          /wVjcmFzaA==
        >
        E 0 90 42 60
        E 300 80 42 00
        <X 180 0
          /wVpbi0=
        >
        E 0 90 44 60
        E 150 80 44 00
        <X 90 0
          /wV0bw==
        >
        E 0 90 42 60
        E 120 80 42 00
        <X 210 0
          /wUr
        >
        E 0 90 40 60
        E 30 80 40 00
        <X 120 0
          /wV0aGU=
        >
        E 0 90 40 60
        E 60 80 40 00
        <X 180 0
          /wVzdGFycw==
        >
        E 0 90 3d 60
        E 690 80 3d 00
        E 270 80 69 00
        E 0 80 74 00
        E 0 90 69 60
        <X 240 0
          /wVZb3U=
        >
        E 0 90 3d 60
        E 120 80 3d 00
        <X 120 0
          /wV0YWtl
        >
        E 0 90 3d 60
        E 300 80 3d 00
        <X 180 0
          /wVtZQ==
        >
        E 0 90 40 60
        E 330 80 40 00
        <X 150 0
          /wVmb3I=
        >
        E 0 90 42 60
        E 300 80 42 00
        <X 180 0
          /wVh
        >
        E 0 90 44 60
        E 180 80 44 00
        <X 60 0
          /wVzcGlu
        >
        E 0 90 42 60
        E 120 80 42 00
        <X 210 0
          /wUr
        >
        E 0 90 40 60
        E 30 80 40 00
        E 30 90 01 60
        E 58 80 01 00
        <X 32 0
          /wV5b3U=
        >
        E 0 90 40 60
        E 90 80 40 00
        <X 150 0
          /wV0YWtl
        >
        E 0 90 3d 60
        E 90 80 3d 00
        <X 150 0
          /wVtZQ==
        >
        E 0 90 40 60
        E 90 80 40 00
        <X 150 0
          /wVmb3I=
        >
        E 0 90 42 60
        E 300 80 42 00
        <X 180 0
          /wVh
        >
        E 0 90 44 60
        E 180 80 44 00
        <X 60 0
          /wVzcGlu
        >
        E 0 90 42 60
        E 120 80 42 00
        <X 210 0
          /wUr
        >
        E 0 90 40 60
        E 30 80 69 00
        E 0 80 40 00
        E 0 90 69 60
        <X 120 0
          /wVVbi0=
        >
        E 0 90 40 60
        E 90 80 40 00
        <X 150 0
          /wV0aWw=
        >
        E 0 90 3d 60
        E 90 80 3d 00
        <X 150 0
          /wVJ
        >
        E 0 90 40 60
        E 90 80 40 00
        <X 150 0
          /wVjcmFzaA==
        >
        E 0 90 42 60
        E 300 80 42 00
        <X 180 0
          /wVpbi0=
        >
        E 0 90 44 60
        E 150 80 44 00
        <X 90 0
          /wV0bw==
        >
        E 0 90 42 60
        E 120 80 42 00
        <X 210 0
          /wUr
        >
        E 0 90 40 60
        E 30 80 40 00
        <X 120 0
          /wV0aGU=
        >
        E 0 90 40 60
        E 60 80 40 00
        <X 180 0
          /wVzdGFycw==
        >
        E 0 90 3d 60
        E 690 80 3d 00
        E 750 80 69 00
        E 960 90 69 60
        <X 240 0
          /wVJJ20=
        >
        E 0 90 44 60
        E 180 80 44 00
        <X 60 0
          /wVicmVhay0=
        >
        E 0 90 42 60
        E 150 80 42 00
        <X 90 0
          /wVpbmc=
        >
        E 0 90 40 60
        E 150 80 40 00
        <X 90 0
          /wVpbi0=
        >
        E 0 90 42 60
        E 300 80 42 00
        <X 180 0
          /wV0bw==
        >
        E 0 90 44 60
        E 300 80 44 00
        <X 180 0
          /wVjYXJz
        >
        E 0 90 3d 60
        E 990 80 3d 00
        E 90 90 01 60
        E 58 80 01 00
        <X 1022 0
          /wVJJ20=
        >
        E 0 90 44 60
        E 180 80 44 00
        <X 60 0
          /wVicmVhay0=
        >
        E 0 90 42 60
        E 150 80 42 00
        <X 90 0
          /wVpbmc=
        >
        E 0 90 40 60
        E 150 80 40 00
        <X 90 0
          /wVpbi0=
        >
        E 0 90 42 60
        E 300 80 42 00
        <X 180 0
          /wV0bw==
        >
        E 0 90 44 60
        E 300 80 44 00
        <X 180 0
          /wVjYXJz
        >
        E 0 90 3d 60
        E 1620 80 3d 00
        <X 180 0
          /wFbaWRsZV9yZWFsdGltZV0=
        >
        E 119 80 69 00
        E 7682 b0 7b 00
        GUID {F7BDF357-4E36-4A4E-AB41-AF3B58538024}
        IGNTEMPO 0 120.00000000 4 4
        SRCCOLOR 119
        VELLANE 132 100 0
        COLORMAP "C:\Program Files\REAPER (x64)\Data\color_maps\rockband_guitarbass.png"
        CFGEDITVIEW 0.000000 0.003393 0 12 0 0 0
        CFGEDIT 1 1 0 1 1 0 1 1 1 1 1 0.12500000 53 44 1253 718 0 2 0 1 0.00000000 0 1 0 0 0.500000 0 0 1.000000 64
        KEYSNAP 0 7 "102030050700" 0 "Pentatonic"
        EVTFILTER 0 -1 -1 -1 -1 0 1 0 0 -1.00000000 -1.00000000
      >
    >
  >
  <TRACK '{12DA0BD9-E21F-4135-84BE-4FB06A2E37AE}'
    NAME "HARM1"
    PEAKCOL 16576
    BEAT -1
    AUTOMODE 0
    VOLPAN 1.00000000000000 0.00000000000000 -1.00000000000000 -1.00000000000000 1.00000000000000
    MUTESOLO 0 0 0
    IPHASE 0
    ISBUS 0 0
    BUSCOMP 0 0
    SHOWINMIX 1 0.666700 0.500000 1 0.500000 -1 -1 -1
    FREEMODE 0
    SEL 0
    REC 0 0 0 0 0 0 0
    VU 2
    TRACKHEIGHT 0 0
    INQ 0 0 0 0.5000000000 100 0 0 100
    NCHAN 2
    FX 0
    TRACKID {12DA0BD9-E21F-4135-84BE-4FB06A2E37AE}
    PERF 0
    MIDIOUT -1
    <MIDINOTENAMES
      0 116 "OVERDRIVE"
      0 115 "----"
      0 105 "Phrase Marker"
      0 104 "----"
      0 84 "C6 (Unused Highest Note)"
      0 83 "B5"
      0 82 "A#4"
      0 81 "A4"
      0 80 "G#4"
      0 79 "G4"
      0 78 "F#4"
      0 77 "F4"
      0 76 "E4"
      0 75 "D#4"
      0 74 "D4"
      0 73 "C#4"
      0 72 "C4"
      0 71 "B3"
      0 70 "A#3"
      0 69 "A3"
      0 68 "G#3"
      0 67 "G3"
      0 66 "F#3"
      0 65 "F3"
      0 64 "E3"
      0 63 "D#3"
      0 62 "D3"
      0 61 "C#3"
      0 60 "C3"
      0 59 "B2"
      0 58 "A#2"
      0 57 "A2"
      0 56 "G#2"
      0 55 "G2"
      0 54 "F#2"
      0 53 "F2"
      0 52 "E2"
      0 51 "D#2"
      0 50 "D2"
      0 49 "C#2"
      0 48 "C2"
      0 47 "B1"
      0 46 "A#1"
      0 45 "A1"
      0 44 "G#1"
      0 43 "G1"
      0 42 "F#1"
      0 41 "F1"
      0 40 "E1"
      0 39 "D#1"
      0 38 "D1"
      0 37 "C#1"
      0 36 "Lowest Note C1"
      0 2 "---"
      0 1 "Lyric Shift"
      0 0 "Range Shift"
    >
    MAINSEND 1 0
    <FXCHAIN
      WNDRECT 0 43 655 467
      SHOW 0
      LASTSEL 1
      DOCKED 0
      BYPASS 0 0
      <JS "MIDI/midi_note_filter" ""
        36.000000 84.000000 - - - - - - - - - - - - - - - - - - - - - - - - - - - - - - - - - - - - - - - - - - - - - - - - - - - - - - - - - - - - - - 
      >
      FLOATPOS 0 0 0 0
      FXID {371218A4-9B5F-4F4A-B6BD-4B53F01DE594}
      WAK 0
      BYPASS 0 0
      <VST "VSTi: ReaSynth (Cockos)" "reasynth.dll" 0 ""
        eXNlcu9e7f4AAAAAAgAAAAEAAAAAAAAAAgAAAAAAAAA4AAAAAAAAAA==
        AAAQAO++rd4N8K3eppvEOxe30ToAAIA/AAAAAAAAAABBA+o96WeIPQ==
        AAAAAAAAAD8AAIA/AACAPwAAAD8AABAAAAA=
      >
      FLOATPOS 0 0 0 0
      FXID {F8114581-EA39-42D8-9658-B779B0D7AFF7}
      WAK 0
    >
    <ITEM
      POSITION 0.00000000000000
      SNAPOFFS 0.00000000000000
      LENGTH 194.42554622500001
      LOOP 0
      ALLTAKES 0
      SEL 0
      FADEIN 1 0.000000 0.000000 1 0
      FADEOUT 1 0.000000 0.000000 1 0
      MUTE 0
      IGUID {FF8018F1-F1DF-4ED5-BACF-0AF60792EC1E}
      IID 7
      NAME "HARM1"
      VOLPAN 1.000000 0.000000 1.000000 -1.000000
      SOFFS 0.00000000000000 0.00000000000000
      PLAYRATE 1.00000000000000 1 0.00000000000000 -1
      CHANMODE 0
      GUID {CFCA2DA2-D047-49BA-8304-575BF28C7BA1}
      <SOURCE MIDI
        HASDATA 1 480 QN
        POOLEDEVTS {C2F76904-1910-4BCD-A618-858A19957D02}
        <X 0 0
          /wNIQVJNMQ==
        >
        E 5760 90 69 60
        <X 480 0
          /wVDYW4=
        >
        E 0 90 3f 60
        E 150 80 3f 00
        <X 90 0
          /wVJ
        >
        E 0 90 3f 60
        E 150 80 3f 00
        <X 90 0
          /wViZWF0
        >
        E 0 90 3f 60
        E 180 80 3f 00
        <X 60 0
          /wUnZW0=
        >
        E 0 90 3f 60
        E 390 80 3f 00
        <X 90 0
          /wVub3c=
        >
        E 0 90 3f 60
        E 870 80 3f 00
        E 90 90 01 60
        E 60 80 01 00
        <X 1620 0
          /wVDYW4=
        >
        E 0 90 3f 60
        E 150 80 3f 00
        <X 90 0
          /wVJ
        >
        E 0 90 3f 60
        E 150 80 3f 00
        <X 90 0
          /wVnZXQ=
        >
        E 0 90 3f 60
        E 120 80 3f 00
        <X 120 0
          /wV5b3Vy
        >
        E 0 90 3f 60
        E 390 80 3f 00
        <X 90 0
          /wVsb3Zl
        >
        E 0 90 3f 60
        E 870 80 3f 00
        E 330 80 69 00
        E 960 90 69 60
        E 0 90 74 60
        <X 480 0
          /wVDYW4=
        >
        E 0 90 3f 60
        E 150 80 3f 00
        <X 90 0
          /wVJ
        >
        E 0 90 3f 60
        E 150 80 3f 00
        <X 90 0
          /wViZWF0
        >
        E 0 90 3f 60
        E 180 80 3f 00
        <X 60 0
          /wUnZW0=
        >
        E 0 90 3f 60
        E 390 80 3f 00
        <X 90 0
          /wVub3c=
        >
        E 0 90 3f 60
        E 870 80 3f 00
        E 330 90 01 60
        E 60 80 01 00
        <X 1380 0
          /wVDYW4=
        >
        E 0 90 3f 60
        E 150 80 3f 00
        <X 90 0
          /wVJ
        >
        E 0 90 3f 60
        E 150 80 3f 00
        <X 90 0
          /wVnZXQ=
        >
        E 0 90 3f 60
        E 120 80 3f 00
        <X 120 0
          /wV5b3Vy
        >
        E 0 90 3f 60
        E 390 80 3f 00
        <X 90 0
          /wVsb3Zl
        >
        E 0 90 3f 60
        E 870 80 3f 00
        E 330 80 69 00
        E 0 80 74 00
        E 960 90 69 60
        <X 480 0
          /wVEb24ndA==
        >
        E 0 90 3f 60
        E 150 80 3f 00
        <X 90 0
          /wV5b3U=
        >
        E 0 90 3f 60
        E 150 80 3f 00
        <X 90 0
          /wVyZS0=
        >
        E 0 90 3f 60
        E 180 80 3f 00
        <X 60 0
          /wVhLQ==
        >
        E 0 90 3f 60
        E 240 80 3f 00
        <X 240 0
          /wVsaXpl
        >
        E 0 90 3f 60
        E 870 80 3f 00
        E 90 90 01 60
        E 60 80 01 00
        <X 1380 0
          /wVJ
        >
        E 0 90 3f 60
        E 150 80 3f 00
        <X 90 0
          /wVsb25n
        >
        E 0 90 3f 60
        E 330 80 3f 00
        <X 150 0
          /wVmb3I=
        >
        E 0 90 3f 60
        E 120 80 3f 00
        <X 120 0
          /wV5b3Vy
        >
        E 0 90 3f 60
        E 390 80 3f 00
        <X 90 0
          /wVsaXBz
        >
        E 0 90 3f 60
        E 660 80 3f 00
        E 540 80 69 00
        E 960 90 69 60
        <X 480 0
          /wVEb24ndA==
        >
        E 0 90 3f 60
        E 150 80 3f 00
        <X 90 0
          /wV5b3U=
        >
        E 0 90 3f 60
        E 150 80 3f 00
        <X 90 0
          /wVyZS0=
        >
        E 0 90 3f 60
        E 180 80 3f 00
        <X 60 0
          /wVhLQ==
        >
        E 0 90 3f 60
        E 240 80 3f 00
        <X 240 0
          /wVsaXpl
        >
        E 0 90 3f 60
        E 870 80 3f 00
        E 90 90 01 60
        E 60 80 01 00
        <X 1380 0
          /wVJ
        >
        E 0 90 3f 60
        E 150 80 3f 00
        <X 90 0
          /wVsb25n
        >
        E 0 90 3f 60
        E 330 80 3f 00
        <X 150 0
          /wVmb3I=
        >
        E 0 90 3f 60
        E 120 80 3f 00
        <X 120 0
          /wV5b3Vy
        >
        E 0 90 3f 60
        E 390 80 3f 00
        <X 90 0
          /wVsaXBz
        >
        E 0 90 3f 60
        E 660 80 3f 00
        E 540 80 69 00
        E 960 90 69 60
        E 0 90 74 60
        <X 480 0
          /wVMZXQ=
        >
        E 0 90 3d 60
        E 180 80 3d 00
        <X 60 0
          /wVtZQ==
        >
        E 0 90 3d 60
        E 150 80 3d 00
        <X 90 0
          /wVvdXQ=
        >
        E 0 90 3d 60
        E 360 80 3d 00
        <X 120 0
          /wVvZg==
        >
        E 0 90 3d 60
        E 90 80 3d 00
        <X 150 0
          /wVoZXJl
        >
        E 0 90 40 60
        E 630 80 40 00
        E 90 90 01 60
        E 60 80 01 00
        <X 1860 0
          /wVsZXQ=
        >
        E 0 90 3d 60
        E 180 80 3d 00
        <X 60 0
          /wVtZQ==
        >
        E 0 90 3d 60
        E 150 80 3d 00
        <X 90 0
          /wVvdXQ=
        >
        E 0 90 3d 60
        E 360 80 3d 00
        <X 120 0
          /wVvZg==
        >
        E 0 90 3d 60
        E 90 80 3d 00
        <X 150 0
          /wVoZXJl
        >
        E 0 90 40 60
        E 630 80 40 00
        E 90 80 69 00
        E 0 80 74 00
        E 0 90 69 60
        <X 240 0
          /wVZb3U=
        >
        E 0 90 3d 60
        E 120 80 3d 00
        <X 120 0
          /wVkcml2ZQ==
        >
        E 0 90 3d 60
        E 300 80 3d 00
        <X 180 0
          /wVtZQ==
        >
        E 0 90 40 60
        E 330 80 40 00
        <X 150 0
          /wVyb3VuZA==
        >
        E 0 90 42 60
        E 300 80 42 00
        <X 180 0
          /wVhbmQ=
        >
        E 0 90 44 60
        E 180 80 44 00
        <X 60 0
          /wVyb3VuZA==
        >
        E 0 90 42 60
        E 120 80 42 00
        <X 210 0
          /wUr
        >
        E 0 90 40 60
        E 30 80 40 00
        E 30 90 01 60
        E 60 80 01 00
        <X 30 0
          /wV5b3U=
        >
        E 0 90 40 60
        E 90 80 40 00
        <X 150 0
          /wVkcml2ZQ==
        >
        E 0 90 3d 60
        E 90 80 3d 00
        <X 150 0
          /wVtZQ==
        >
        E 0 90 40 60
        E 90 80 40 00
        <X 150 0
          /wVyb3VuZA==
        >
        E 0 90 42 60
        E 300 80 42 00
        <X 180 0
          /wVhbmQ=
        >
        E 0 90 44 60
        E 180 80 44 00
        <X 60 0
          /wVyb3VuZA==
        >
        E 0 90 42 60
        E 120 80 42 00
        <X 210 0
          /wUr
        >
        E 0 90 40 60
        E 30 80 69 00
        E 0 80 40 00
        E 0 90 69 60
        <X 120 0
          /wVVbi0=
        >
        E 0 90 40 60
        E 90 80 40 00
        <X 150 0
          /wV0aWw=
        >
        E 0 90 3d 60
        E 90 80 3d 00
        <X 150 0
          /wVJ
        >
        E 0 90 40 60
        E 90 80 40 00
        <X 150 0
          /wVjcmFzaA==
        >
        E 0 90 42 60
        E 300 80 42 00
        <X 180 0
          /wVpbi0=
        >
        E 0 90 44 60
        E 150 80 44 00
        <X 90 0
          /wV0bw==
        >
        E 0 90 42 60
        E 120 80 42 00
        <X 210 0
          /wUr
        >
        E 0 90 40 60
        E 30 80 40 00
        <X 120 0
          /wV0aGU=
        >
        E 0 90 40 60
        E 60 80 40 00
        <X 180 0
          /wVzdGFycw==
        >
        E 0 90 3d 60
        E 690 80 3d 00
        E 270 80 69 00
        E 0 90 69 60
        <X 240 0
          /wVZb3U=
        >
        E 0 90 3d 60
        E 120 80 3d 00
        <X 120 0
          /wV0YWtl
        >
        E 0 90 3d 60
        E 300 80 3d 00
        <X 180 0
          /wVtZQ==
        >
        E 0 90 40 60
        E 330 80 40 00
        <X 150 0
          /wVmb3I=
        >
        E 0 90 42 60
        E 300 80 42 00
        <X 180 0
          /wVh
        >
        E 0 90 44 60
        E 180 80 44 00
        <X 60 0
          /wVzcGlu
        >
        E 0 90 42 60
        E 120 80 42 00
        <X 210 0
          /wUr
        >
        E 0 90 40 60
        E 30 80 40 00
        E 30 90 01 60
        E 60 80 01 00
        <X 30 0
          /wV5b3U=
        >
        E 0 90 40 60
        E 90 80 40 00
        <X 150 0
          /wV0YWtl
        >
        E 0 90 3d 60
        E 90 80 3d 00
        <X 150 0
          /wVtZQ==
        >
        E 0 90 40 60
        E 90 80 40 00
        <X 150 0
          /wVmb3I=
        >
        E 0 90 42 60
        E 300 80 42 00
        <X 180 0
          /wVh
        >
        E 0 90 44 60
        E 180 80 44 00
        <X 60 0
          /wVzcGlu
        >
        E 0 90 42 60
        E 120 80 42 00
        <X 210 0
          /wUr
        >
        E 0 90 40 60
        E 30 80 69 00
        E 0 80 40 00
        E 0 90 69 60
        <X 120 0
          /wVVbi0=
        >
        E 0 90 40 60
        E 90 80 40 00
        <X 150 0
          /wV0aWw=
        >
        E 0 90 3d 60
        E 90 80 3d 00
        <X 150 0
          /wVJ
        >
        E 0 90 40 60
        E 90 80 40 00
        <X 150 0
          /wVjcmFzaA==
        >
        E 0 90 42 60
        E 300 80 42 00
        <X 180 0
          /wVpbi0=
        >
        E 0 90 44 60
        E 150 80 44 00
        <X 90 0
          /wV0bw==
        >
        E 0 90 42 60
        E 120 80 42 00
        <X 210 0
          /wUr
        >
        E 0 90 40 60
        E 30 80 40 00
        <X 120 0
          /wV0aGU=
        >
        E 0 90 40 60
        E 60 80 40 00
        <X 180 0
          /wVzdGFycw==
        >
        E 0 90 3d 60
        E 690 80 3d 00
        E 750 80 69 00
        E 960 90 69 60
        E 0 90 74 60
        <X 240 0
          /wVJJ20=
        >
        E 0 90 44 60
        E 180 80 44 00
        <X 60 0
          /wVicmVhay0=
        >
        E 0 90 42 60
        E 150 80 42 00
        <X 90 0
          /wVpbmc=
        >
        E 0 90 40 60
        E 150 80 40 00
        <X 90 0
          /wVpbi0=
        >
        E 0 90 42 60
        E 300 80 42 00
        <X 180 0
          /wV0bw==
        >
        E 0 90 44 60
        E 300 80 44 00
        <X 180 0
          /wVjYXJz
        >
        E 0 90 3d 60
        E 990 80 3d 00
        E 210 90 01 60
        E 60 80 01 00
        <X 900 0
          /wVJJ20=
        >
        E 0 90 44 60
        E 180 80 44 00
        <X 60 0
          /wVicmVhay0=
        >
        E 0 90 42 60
        E 150 80 42 00
        <X 90 0
          /wVpbmc=
        >
        E 0 90 40 60
        E 150 80 40 00
        <X 90 0
          /wVpbi0=
        >
        E 0 90 42 60
        E 300 80 42 00
        <X 180 0
          /wV0bw==
        >
        E 0 90 44 60
        E 300 80 44 00
        <X 180 0
          /wVjYXJz
        >
        E 0 90 3d 60
        E 1140 80 3d 00
        E 780 80 69 00
        E 0 80 74 00
        E 1920 90 69 60
        <X 480 0
          /wVDYW4=
        >
        E 0 90 3f 60
        E 150 80 3f 00
        <X 90 0
          /wVJ
        >
        E 0 90 3f 60
        E 150 80 3f 00
        <X 90 0
          /wViZWF0
        >
        E 0 90 3f 60
        E 180 80 3f 00
        <X 60 0
          /wUnZW0=
        >
        E 0 90 3f 60
        E 390 80 3f 00
        <X 90 0
          /wVub3c=
        >
        E 0 90 3f 60
        E 870 80 3f 00
        E 90 90 01 60
        E 60 80 01 00
        <X 1620 0
          /wVDYW4=
        >
        E 0 90 3f 60
        E 150 80 3f 00
        <X 90 0
          /wVJ
        >
        E 0 90 3f 60
        E 150 80 3f 00
        <X 90 0
          /wVnZXQ=
        >
        E 0 90 3f 60
        E 120 80 3f 00
        <X 120 0
          /wV5b3Vy
        >
        E 0 90 3f 60
        E 390 80 3f 00
        <X 90 0
          /wVsb3Zl
        >
        E 0 90 3f 60
        E 870 80 3f 00
        E 330 80 69 00
        E 960 90 69 60
        <X 480 0
          /wVDYW4=
        >
        E 0 90 3f 60
        E 150 80 3f 00
        <X 90 0
          /wVJ
        >
        E 0 90 3f 60
        E 150 80 3f 00
        <X 90 0
          /wViZWF0
        >
        E 0 90 3f 60
        E 180 80 3f 00
        <X 60 0
          /wUnZW0=
        >
        E 0 90 3f 60
        E 390 80 3f 00
        <X 90 0
          /wVub3c=
        >
        E 0 90 3f 60
        E 870 80 3f 00
        E 90 90 01 60
        E 60 80 01 00
        <X 1620 0
          /wVDYW4=
        >
        E 0 90 3f 60
        E 150 80 3f 00
        <X 90 0
          /wVJ
        >
        E 0 90 3f 60
        E 150 80 3f 00
        <X 90 0
          /wVnZXQ=
        >
        E 0 90 3f 60
        E 120 80 3f 00
        <X 120 0
          /wV5b3Vy
        >
        E 0 90 3f 60
        E 390 80 3f 00
        <X 90 0
          /wVsb3Zl
        >
        E 0 90 3f 60
        E 870 80 3f 00
        E 330 80 69 00
        E 960 90 69 60
        E 0 90 74 60
        <X 240 0
          /wVZb3U=
        >
        E 0 90 3f 60
        E 60 80 3f 00
        <X 180 0
          /wVrZWVw
        >
        E 0 90 3f 60
        E 150 80 3f 00
        <X 90 0
          /wVpZy0=
        >
        E 0 90 3f 60
        E 150 80 3f 00
        <X 90 0
          /wVub3It
        >
        E 0 90 3f 60
        E 180 80 3f 00
        <X 60 0
          /wVpbmc=
        >
        E 0 90 3f 60
        E 360 80 3f 00
        <X 120 0
          /wVtZQ==
        >
        E 0 90 3f 60
        E 870 80 3f 00
        E 90 90 01 60
        E 60 80 01 00
        <X 1620 0
          /wVhbmQ=
        >
        E 0 90 3f 60
        E 150 80 3f 00
        <X 90 0
          /wV0aGU=
        >
        E 0 90 3f 60
        E 90 80 3f 00
        <X 150 0
          /wV0ZWFyLQ==
        >
        E 0 90 3f 60
        E 120 80 3f 00
        <X 120 0
          /wVkcm9wcw==
        >
        E 0 90 3f 60
        E 390 80 3f 00
        <X 120 0
          /wVmYWxs
        >
        E 0 90 3f 60
        E 660 80 3f 00
        E 510 80 69 00
        E 0 80 74 00
        E 960 90 69 60
        <X 240 0
          /wVZb3U=
        >
        E 0 90 3f 60
        E 60 80 3f 00
        <X 180 0
          /wVrZWVw
        >
        E 0 90 3f 60
        E 150 80 3f 00
        <X 90 0
          /wVpZy0=
        >
        E 0 90 3f 60
        E 150 80 3f 00
        <X 90 0
          /wVub3It
        >
        E 0 90 3f 60
        E 180 80 3f 00
        <X 60 0
          /wVpbmc=
        >
        E 0 90 3f 60
        E 240 80 3f 00
        <X 240 0
          /wVtZQ==
        >
        E 0 90 3f 60
        E 810 80 3f 00
        E 150 90 01 60
        E 60 80 01 00
        <X 1620 0
          /wVhbmQ=
        >
        E 0 90 3f 60
        E 150 80 3f 00
        <X 90 0
          /wV0aGU=
        >
        E 0 90 3f 60
        E 90 80 3f 00
        <X 150 0
          /wV0ZWFyLQ==
        >
        E 0 90 3f 60
        E 120 80 3f 00
        <X 120 0
          /wVkcm9wcw==
        >
        E 0 90 3f 60
        E 390 80 3f 00
        <X 120 0
          /wVmYWxs
        >
        E 0 90 3f 60
        E 660 80 3f 00
        E 510 80 69 00
        E 960 90 69 60
        <X 480 0
          /wVMZXQ=
        >
        E 0 90 3d 60
        E 180 80 3d 00
        <X 60 0
          /wVtZQ==
        >
        E 0 90 3d 60
        E 150 80 3d 00
        <X 90 0
          /wVvdXQ=
        >
        E 0 90 3d 60
        E 360 80 3d 00
        <X 120 0
          /wVvZg==
        >
        E 0 90 3d 60
        E 90 80 3d 00
        <X 150 0
          /wVoZXJl
        >
        E 0 90 40 60
        E 630 80 40 00
        E 90 90 01 60
        E 60 80 01 00
        <X 1860 0
          /wVsZXQ=
        >
        E 0 90 3d 60
        E 180 80 3d 00
        <X 60 0
          /wVtZQ==
        >
        E 0 90 3d 60
        E 150 80 3d 00
        <X 90 0
          /wVvdXQ=
        >
        E 0 90 3d 60
        E 360 80 3d 00
        <X 120 0
          /wVvZg==
        >
        E 0 90 3d 60
        E 90 80 3d 00
        <X 150 0
          /wVoZXJl
        >
        E 0 90 40 60
        E 630 80 40 00
        E 90 80 69 00
        E 0 90 69 60
        <X 240 0
          /wVZb3U=
        >
        E 0 90 3d 60
        E 120 80 3d 00
        <X 120 0
          /wVkcml2ZQ==
        >
        E 0 90 3d 60
        E 300 80 3d 00
        <X 180 0
          /wVtZQ==
        >
        E 0 90 40 60
        E 330 80 40 00
        <X 150 0
          /wVyb3VuZA==
        >
        E 0 90 42 60
        E 300 80 42 00
        <X 180 0
          /wVhbmQ=
        >
        E 0 90 44 60
        E 180 80 44 00
        <X 60 0
          /wVyb3VuZA==
        >
        E 0 90 42 60
        E 120 80 42 00
        <X 210 0
          /wUr
        >
        E 0 90 40 60
        E 30 80 40 00
        E 30 90 01 60
        E 60 80 01 00
        <X 30 0
          /wV5b3U=
        >
        E 0 90 40 60
        E 90 80 40 00
        <X 150 0
          /wVkcml2ZQ==
        >
        E 0 90 3d 60
        E 90 80 3d 00
        <X 150 0
          /wVtZQ==
        >
        E 0 90 40 60
        E 90 80 40 00
        <X 150 0
          /wVyb3VuZA==
        >
        E 0 90 42 60
        E 300 80 42 00
        <X 180 0
          /wVhbmQ=
        >
        E 0 90 44 60
        E 180 80 44 00
        <X 60 0
          /wVyb3VuZA==
        >
        E 0 90 42 60
        E 120 80 42 00
        <X 210 0
          /wUr
        >
        E 0 90 40 60
        E 30 80 40 00
        E 60 80 69 00
        E 0 90 69 60
        E 0 90 74 60
        <X 60 0
          /wVVbi0=
        >
        E 0 90 40 60
        E 90 80 40 00
        <X 150 0
          /wV0aWw=
        >
        E 0 90 3d 60
        E 90 80 3d 00
        <X 150 0
          /wVJ
        >
        E 0 90 40 60
        E 90 80 40 00
        <X 150 0
          /wVjcmFzaA==
        >
        E 0 90 42 60
        E 300 80 42 00
        <X 180 0
          /wVpbi0=
        >
        E 0 90 44 60
        E 150 80 44 00
        <X 90 0
          /wV0bw==
        >
        E 0 90 42 60
        E 120 80 42 00
        <X 210 0
          /wUr
        >
        E 0 90 40 60
        E 30 80 40 00
        <X 120 0
          /wV0aGU=
        >
        E 0 90 40 60
        E 60 80 40 00
        <X 180 0
          /wVzdGFycw==
        >
        E 0 90 3d 60
        E 690 80 3d 00
        E 270 80 69 00
        E 0 80 74 00
        E 0 90 69 60
        <X 240 0
          /wVZb3U=
        >
        E 0 90 3d 60
        E 120 80 3d 00
        <X 120 0
          /wV0YWtl
        >
        E 0 90 3d 60
        E 300 80 3d 00
        <X 180 0
          /wVtZQ==
        >
        E 0 90 40 60
        E 330 80 40 00
        <X 150 0
          /wVmb3I=
        >
        E 0 90 42 60
        E 300 80 42 00
        <X 180 0
          /wVh
        >
        E 0 90 44 60
        E 180 80 44 00
        <X 60 0
          /wVzcGlu
        >
        E 0 90 42 60
        E 120 80 42 00
        <X 210 0
          /wUr
        >
        E 0 90 40 60
        E 30 80 40 00
        E 30 90 01 60
        E 60 80 01 00
        <X 30 0
          /wV5b3U=
        >
        E 0 90 40 60
        E 90 80 40 00
        <X 150 0
          /wV0YWtl
        >
        E 0 90 3d 60
        E 90 80 3d 00
        <X 150 0
          /wVtZQ==
        >
        E 0 90 40 60
        E 90 80 40 00
        <X 150 0
          /wVmb3I=
        >
        E 0 90 42 60
        E 300 80 42 00
        <X 180 0
          /wVh
        >
        E 0 90 44 60
        E 180 80 44 00
        <X 60 0
          /wVzcGlu
        >
        E 0 90 42 60
        E 120 80 42 00
        <X 210 0
          /wUr
        >
        E 0 90 40 60
        E 30 80 69 00
        E 0 80 40 00
        E 0 90 69 60
        <X 120 0
          /wVVbi0=
        >
        E 0 90 40 60
        E 90 80 40 00
        <X 150 0
          /wV0aWw=
        >
        E 0 90 3d 60
        E 90 80 3d 00
        <X 150 0
          /wVJ
        >
        E 0 90 40 60
        E 90 80 40 00
        <X 150 0
          /wVjcmFzaA==
        >
        E 0 90 42 60
        E 300 80 42 00
        <X 180 0
          /wVpbi0=
        >
        E 0 90 44 60
        E 150 80 44 00
        <X 90 0
          /wV0bw==
        >
        E 0 90 42 60
        E 120 80 42 00
        <X 210 0
          /wUr
        >
        E 0 90 40 60
        E 30 80 40 00
        <X 120 0
          /wV0aGU=
        >
        E 0 90 40 60
        E 60 80 40 00
        <X 180 0
          /wVzdGFycw==
        >
        E 0 90 3d 60
        E 690 80 3d 00
        E 750 80 69 00
        E 960 90 69 60
        E 0 90 74 60
        <X 240 0
          /wVJJ20=
        >
        E 0 90 44 60
        E 180 80 44 00
        <X 60 0
          /wVicmVhay0=
        >
        E 0 90 42 60
        E 150 80 42 00
        <X 90 0
          /wVpbmc=
        >
        E 0 90 40 60
        E 150 80 40 00
        <X 90 0
          /wVpbi0=
        >
        E 0 90 42 60
        E 300 80 42 00
        <X 180 0
          /wV0bw==
        >
        E 0 90 44 60
        E 300 80 44 00
        <X 180 0
          /wVjYXJz
        >
        E 0 90 3d 60
        E 990 80 3d 00
        E 90 90 01 60
        E 60 80 01 00
        <X 1020 0
          /wVJJ20=
        >
        E 0 90 44 60
        E 180 80 44 00
        <X 60 0
          /wVicmVhay0=
        >
        E 0 90 42 60
        E 150 80 42 00
        <X 90 0
          /wVpbmc=
        >
        E 0 90 40 60
        E 150 80 40 00
        <X 90 0
          /wVpbi0=
        >
        E 0 90 42 60
        E 300 80 42 00
        <X 180 0
          /wV0bw==
        >
        E 0 90 44 60
        E 300 80 44 00
        <X 180 0
          /wVjYXJz
        >
        E 0 90 3d 60
        E 1140 80 3d 00
        E 780 80 69 00
        E 0 80 74 00
        E 46560 90 69 60
        <X 240 0
          /wVZb3U=
        >
        E 0 90 3d 60
        E 120 80 3d 00
        <X 120 0
          /wVkcml2ZQ==
        >
        E 0 90 3d 60
        E 300 80 3d 00
        <X 180 0
          /wVtZQ==
        >
        E 0 90 40 60
        E 330 80 40 00
        <X 150 0
          /wVyb3VuZA==
        >
        E 0 90 42 60
        E 300 80 42 00
        <X 180 0
          /wVhbmQ=
        >
        E 0 90 44 60
        E 180 80 44 00
        <X 60 0
          /wVyb3VuZA==
        >
        E 0 90 42 60
        E 120 80 42 00
        <X 210 0
          /wUr
        >
        E 0 90 40 60
        E 30 80 40 00
        E 30 90 01 60
        E 60 80 01 00
        <X 30 0
          /wV5b3U=
        >
        E 0 90 40 60
        E 90 80 40 00
        <X 150 0
          /wVkcml2ZQ==
        >
        E 0 90 3d 60
        E 90 80 3d 00
        <X 150 0
          /wVtZQ==
        >
        E 0 90 40 60
        E 90 80 40 00
        <X 150 0
          /wVyb3VuZA==
        >
        E 0 90 42 60
        E 300 80 42 00
        <X 180 0
          /wVhbmQ=
        >
        E 0 90 44 60
        E 180 80 44 00
        <X 60 0
          /wVyb3VuZA==
        >
        E 0 90 42 60
        E 120 80 42 00
        <X 210 0
          /wUr
        >
        E 0 90 40 60
        E 30 80 40 00
        E 60 80 69 00
        E 0 90 74 60
        E 1 90 69 60
        <X 59 0
          /wVVbi0=
        >
        E 0 90 40 60
        E 90 80 40 00
        <X 150 0
          /wV0aWw=
        >
        E 0 90 3d 60
        E 90 80 3d 00
        <X 150 0
          /wVJ
        >
        E 0 90 40 60
        E 90 80 40 00
        <X 150 0
          /wVjcmFzaA==
        >
        E 0 90 42 60
        E 300 80 42 00
        <X 180 0
          /wVpbi0=
        >
        E 0 90 44 60
        E 150 80 44 00
        <X 90 0
          /wV0bw==
        >
        E 0 90 42 60
        E 120 80 42 00
        <X 210 0
          /wUr
        >
        E 0 90 40 60
        E 30 80 40 00
        <X 120 0
          /wV0aGU=
        >
        E 0 90 40 60
        E 60 80 40 00
        <X 180 0
          /wVzdGFycw==
        >
        E 0 90 3d 60
        E 690 80 3d 00
        E 269 80 74 00
        E 1 80 69 00
        E 0 90 69 60
        <X 240 0
          /wVZb3U=
        >
        E 0 90 3d 60
        E 120 80 3d 00
        <X 120 0
          /wV0YWtl
        >
        E 0 90 3d 60
        E 300 80 3d 00
        <X 180 0
          /wVtZQ==
        >
        E 0 90 40 60
        E 330 80 40 00
        <X 150 0
          /wVmb3I=
        >
        E 0 90 42 60
        E 300 80 42 00
        <X 180 0
          /wVh
        >
        E 0 90 44 60
        E 180 80 44 00
        <X 60 0
          /wVzcGlu
        >
        E 0 90 42 60
        E 120 80 42 00
        <X 210 0
          /wUr
        >
        E 0 90 40 60
        E 30 80 40 00
        E 30 90 01 60
        E 60 80 01 00
        <X 30 0
          /wV5b3U=
        >
        E 0 90 40 60
        E 90 80 40 00
        <X 150 0
          /wV0YWtl
        >
        E 0 90 3d 60
        E 90 80 3d 00
        <X 150 0
          /wVtZQ==
        >
        E 0 90 40 60
        E 90 80 40 00
        <X 150 0
          /wVmb3I=
        >
        E 0 90 42 60
        E 300 80 42 00
        <X 180 0
          /wVh
        >
        E 0 90 44 60
        E 180 80 44 00
        <X 60 0
          /wVzcGlu
        >
        E 0 90 42 60
        E 120 80 42 00
        <X 210 0
          /wUr
        >
        E 0 90 40 60
        E 30 80 69 00
        E 0 80 40 00
        E 0 90 69 60
        <X 120 0
          /wVVbi0=
        >
        E 0 90 40 60
        E 90 80 40 00
        <X 150 0
          /wV0aWw=
        >
        E 0 90 3d 60
        E 90 80 3d 00
        <X 150 0
          /wVJ
        >
        E 0 90 40 60
        E 90 80 40 00
        <X 150 0
          /wVjcmFzaA==
        >
        E 0 90 42 60
        E 300 80 42 00
        <X 180 0
          /wVpbi0=
        >
        E 0 90 44 60
        E 150 80 44 00
        <X 90 0
          /wV0bw==
        >
        E 0 90 42 60
        E 120 80 42 00
        <X 210 0
          /wUr
        >
        E 0 90 40 60
        E 30 80 40 00
        <X 120 0
          /wV0aGU=
        >
        E 0 90 40 60
        E 60 80 40 00
        <X 180 0
          /wVzdGFycw==
        >
        E 0 90 3d 60
        E 690 80 3d 00
        E 750 80 69 00
        E 960 90 69 60
        <X 240 0
          /wVJJ20=
        >
        E 0 90 44 60
        E 180 80 44 00
        <X 60 0
          /wVicmVhay0=
        >
        E 0 90 42 60
        E 150 80 42 00
        <X 90 0
          /wVpbmc=
        >
        E 0 90 40 60
        E 150 80 40 00
        <X 90 0
          /wVpbi0=
        >
        E 0 90 42 60
        E 300 80 42 00
        <X 180 0
          /wV0bw==
        >
        E 0 90 44 60
        E 300 80 44 00
        <X 180 0
          /wVjYXJz
        >
        E 0 90 3d 60
        E 990 80 3d 00
        E 90 90 01 60
        E 60 80 01 00
        <X 1020 0
          /wVJJ20=
        >
        E 0 90 44 60
        E 180 80 44 00
        <X 60 0
          /wVicmVhay0=
        >
        E 0 90 42 60
        E 150 80 42 00
        <X 90 0
          /wVpbmc=
        >
        E 0 90 40 60
        E 150 80 40 00
        <X 90 0
          /wVpbi0=
        >
        E 0 90 42 60
        E 300 80 42 00
        <X 180 0
          /wV0bw==
        >
        E 0 90 44 60
        E 300 80 44 00
        <X 180 0
          /wVjYXJz
        >
        E 0 90 3d 60
        E 1620 80 3d 00
        E 299 80 69 00
        E 7681 b0 7b 00
        GUID {021F934D-D2B4-444C-8FE8-885578E79B2F}
        IGNTEMPO 0 120.00000000 4 4
        SRCCOLOR 120
        VELLANE 132 100 0
        COLORMAP "C:\Program Files\REAPER (x64)\Data\color_maps\rockband_guitarbass.png"
        CFGEDITVIEW 0.000000 0.003393 0 12 0 0 0
        CFGEDIT 1 1 0 1 1 0 1 1 1 1 1 0.12500000 53 44 1253 718 0 2 0 1 0.00000000 0 1 0 0 0.500000 0 0 1.000000 64
        KEYSNAP 0 7 "102030050700" 0 "Pentatonic"
        EVTFILTER 0 -1 -1 -1 -1 0 1 0 0 -1.00000000 -1.00000000
      >
    >
  >
  <TRACK '{661A8EE3-4DDA-4D18-999E-ED127992D64C}'
    NAME "HARM2"
    PEAKCOL 16576
    BEAT -1
    AUTOMODE 0
    VOLPAN 1.00000000000000 0.00000000000000 -1.00000000000000 -1.00000000000000 1.00000000000000
    MUTESOLO 0 0 0
    IPHASE 0
    ISBUS 2 -1
    BUSCOMP 0 0
    SHOWINMIX 1 0.666700 0.500000 1 0.500000 -1 -1 -1
    FREEMODE 0
    SEL 0
    REC 0 0 0 0 0 0 0
    VU 2
    TRACKHEIGHT 0 0
    INQ 0 0 0 0.5000000000 100 0 0 100
    NCHAN 2
    FX 0
    TRACKID {661A8EE3-4DDA-4D18-999E-ED127992D64C}
    PERF 0
    MIDIOUT -1
    <MIDINOTENAMES
      0 105 "Phrase Marker"
      0 104 "----"
      0 84 "C6 (Unused Highest Note)"
      0 83 "B5"
      0 82 "A#4"
      0 81 "A4"
      0 80 "G#4"
      0 79 "G4"
      0 78 "F#4"
      0 77 "F4"
      0 76 "E4"
      0 75 "D#4"
      0 74 "D4"
      0 73 "C#4"
      0 72 "C4"
      0 71 "B3"
      0 70 "A#3"
      0 69 "A3"
      0 68 "G#3"
      0 67 "G3"
      0 66 "F#3"
      0 65 "F3"
      0 64 "E3"
      0 63 "D#3"
      0 62 "D3"
      0 61 "C#3"
      0 60 "C3"
      0 59 "B2"
      0 58 "A#2"
      0 57 "A2"
      0 56 "G#2"
      0 55 "G2"
      0 54 "F#2"
      0 53 "F2"
      0 52 "E2"
      0 51 "D#2"
      0 50 "D2"
      0 49 "C#2"
      0 48 "C2"
      0 47 "B1"
      0 46 "A#1"
      0 45 "A1"
      0 44 "G#1"
      0 43 "G1"
      0 42 "F#1"
      0 41 "F1"
      0 40 "E1"
      0 39 "D#1"
      0 38 "D1"
      0 37 "C#1"
      0 36 "Lowest Note C1"
    >
    MAINSEND 1 0
    <FXCHAIN
      WNDRECT 0 43 655 467
      SHOW 0
      LASTSEL 1
      DOCKED 0
      BYPASS 0 0
      <JS "MIDI/midi_note_filter" ""
        36.000000 84.000000 - - - - - - - - - - - - - - - - - - - - - - - - - - - - - - - - - - - - - - - - - - - - - - - - - - - - - - - - - - - - - - 
      >
      FLOATPOS 0 0 0 0
      FXID {C7E6DF87-E326-4A01-BEE1-2081BEAE7939}
      WAK 0
      BYPASS 0 0
      <VST "VSTi: ReaSynth (Cockos)" "reasynth.dll" 0 ""
        eXNlcu9e7f4AAAAAAgAAAAEAAAAAAAAAAgAAAAAAAAA4AAAAAAAAAA==
        AAAQAO++rd4N8K3eppvEOxe30ToAAIA/AAAAAAAAAABMzdo96WeIPQ==
        AAAAAAAAAD8AAIA/AACAPwAAAD8AABAAAAA=
      >
      FLOATPOS 0 0 0 0
      FXID {79EAC9BD-E8C1-422F-B3D0-573DCF0FBD19}
      WAK 0
    >
    <ITEM
      POSITION 0.00000000000000
      SNAPOFFS 0.00000000000000
      LENGTH 194.42541950113377
      LOOP 0
      ALLTAKES 0
      SEL 0
      FADEIN 1 0.000000 0.000000 1 0
      FADEOUT 1 0.000000 0.000000 1 0
      MUTE 0
      IGUID {F06FDDDC-33C2-442C-918E-3F093980AE8D}
      IID 8
      NAME "HARM2"
      VOLPAN 1.000000 0.000000 1.000000 -1.000000
      SOFFS 0.00000000000000 0.00000000000000
      PLAYRATE 1.00000000000000 1 0.00000000000000 -1
      CHANMODE 0
      GUID {8C7C2B8A-4656-44EC-AD16-1BB503954C46}
      <SOURCE MIDI
        HASDATA 1 480 QN
        POOLEDEVTS {FF0087AD-8CD5-4A64-BB34-2835E32EE6C0}
        <X 0 0
          /wNIQVJNMg==
        >
        E 5760 90 69 60
        <X 480 0
          /wVDYW4=
        >
        E 0 90 44 60
        E 150 80 44 00
        <X 90 0
          /wVJ
        >
        E 0 90 44 60
        E 150 80 44 00
        <X 90 0
          /wViZWF0
        >
        E 0 90 44 60
        E 180 80 44 00
        <X 60 0
          /wUnZW0=
        >
        E 0 90 44 60
        E 390 80 44 00
        <X 90 0
          /wVub3c=
        >
        E 0 90 44 60
        E 870 80 44 00
        E 90 80 69 00
        E 0 90 69 60
        <X 1680 0
          /wVDYW4=
        >
        E 0 90 44 60
        E 150 80 44 00
        <X 90 0
          /wVJ
        >
        E 0 90 44 60
        E 150 80 44 00
        <X 90 0
          /wVnZXQ=
        >
        E 0 90 44 60
        E 120 80 44 00
        <X 120 0
          /wV5b3Vy
        >
        E 0 90 44 60
        E 390 80 44 00
        <X 90 0
          /wVsb3Zl
        >
        E 0 90 44 60
        E 870 80 44 00
        E 330 80 69 00
        E 960 90 69 60
        <X 480 0
          /wVDYW4=
        >
        E 0 90 44 60
        E 150 80 44 00
        <X 90 0
          /wVJ
        >
        E 0 90 44 60
        E 150 80 44 00
        <X 90 0
          /wViZWF0
        >
        E 0 90 44 60
        E 180 80 44 00
        <X 60 0
          /wUnZW0=
        >
        E 0 90 44 60
        E 390 80 44 00
        <X 90 0
          /wVub3c=
        >
        E 0 90 44 60
        E 870 80 44 00
        E 330 80 69 00
        E 0 90 69 60
        <X 1440 0
          /wVDYW4=
        >
        E 0 90 44 60
        E 150 80 44 00
        <X 90 0
          /wVJ
        >
        E 0 90 44 60
        E 150 80 44 00
        <X 90 0
          /wVnZXQ=
        >
        E 0 90 44 60
        E 120 80 44 00
        <X 120 0
          /wV5b3Vy
        >
        E 0 90 44 60
        E 390 80 44 00
        <X 90 0
          /wVsb3Zl
        >
        E 0 90 44 60
        E 870 80 44 00
        E 330 80 69 00
        E 960 90 69 60
        <X 480 0
          /wVEb24ndA==
        >
        E 0 90 44 60
        E 150 80 44 00
        <X 90 0
          /wV5b3U=
        >
        E 0 90 44 60
        E 150 80 44 00
        <X 90 0
          /wVyZS0=
        >
        E 0 90 44 60
        E 180 80 44 00
        <X 60 0
          /wVhLQ==
        >
        E 0 90 44 60
        E 240 80 44 00
        <X 240 0
          /wVsaXpl
        >
        E 0 90 44 60
        E 870 80 44 00
        E 90 80 69 00
        E 0 90 69 60
        <X 1440 0
          /wVJ
        >
        E 0 90 44 60
        E 150 80 44 00
        <X 90 0
          /wVsb25n
        >
        E 0 90 44 60
        E 330 80 44 00
        <X 150 0
          /wVmb3I=
        >
        E 0 90 44 60
        E 120 80 44 00
        <X 120 0
          /wV5b3Vy
        >
        E 0 90 44 60
        E 390 80 44 00
        <X 90 0
          /wVsaXBz
        >
        E 0 90 44 60
        E 660 80 44 00
        E 540 80 69 00
        E 960 90 69 60
        <X 480 0
          /wVEb24ndA==
        >
        E 0 90 44 60
        E 150 80 44 00
        <X 90 0
          /wV5b3U=
        >
        E 0 90 44 60
        E 150 80 44 00
        <X 90 0
          /wVyZS0=
        >
        E 0 90 44 60
        E 180 80 44 00
        <X 60 0
          /wVhLQ==
        >
        E 0 90 44 60
        E 240 80 44 00
        <X 240 0
          /wVsaXpl
        >
        E 0 90 44 60
        E 870 80 44 00
        E 90 80 69 00
        E 0 90 69 60
        <X 1440 0
          /wVJ
        >
        E 0 90 44 60
        E 150 80 44 00
        <X 90 0
          /wVsb25n
        >
        E 0 90 44 60
        E 330 80 44 00
        <X 150 0
          /wVmb3I=
        >
        E 0 90 44 60
        E 120 80 44 00
        <X 120 0
          /wV5b3Vy
        >
        E 0 90 44 60
        E 390 80 44 00
        <X 90 0
          /wVsaXBz
        >
        E 0 90 44 60
        E 660 80 44 00
        E 540 80 69 00
        E 960 90 69 60
        <X 480 0
          /wVMZXQ=
        >
        E 0 90 3d 60
        E 180 80 3d 00
        <X 60 0
          /wVtZQ==
        >
        E 0 90 3d 60
        E 150 80 3d 00
        <X 90 0
          /wVvdXQ=
        >
        E 0 90 3d 60
        E 360 80 3d 00
        <X 120 0
          /wVvZg==
        >
        E 0 90 3d 60
        E 90 80 3d 00
        <X 150 0
          /wVoZXJl
        >
        E 0 90 40 60
        E 630 80 40 00
        E 90 80 69 00
        E 0 90 69 60
        <X 1920 0
          /wVsZXQ=
        >
        E 0 90 3d 60
        E 180 80 3d 00
        <X 60 0
          /wVtZQ==
        >
        E 0 90 3d 60
        E 150 80 3d 00
        <X 90 0
          /wVvdXQ=
        >
        E 0 90 3d 60
        E 360 80 3d 00
        <X 120 0
          /wVvZg==
        >
        E 0 90 3d 60
        E 90 80 3d 00
        <X 150 0
          /wVoZXJl
        >
        E 0 90 40 60
        E 630 80 40 00
        E 90 80 69 00
        E 0 90 69 60
        <X 240 0
          /wVZb3U=
        >
        E 0 90 3d 60
        E 120 80 3d 00
        <X 120 0
          /wVkcml2ZQ==
        >
        E 0 90 3d 60
        E 300 80 3d 00
        <X 180 0
          /wVtZQ==
        >
        E 0 90 40 60
        E 330 80 40 00
        <X 150 0
          /wVyb3VuZA==
        >
        E 0 90 42 60
        E 300 80 42 00
        <X 180 0
          /wVhbmQ=
        >
        E 0 90 44 60
        E 180 80 44 00
        <X 60 0
          /wVyb3VuZA==
        >
        E 0 90 42 60
        E 120 80 42 00
        <X 210 0
          /wUr
        >
        E 0 90 40 60
        E 30 80 40 00
        E 30 80 69 00
        E 0 90 69 60
        <X 90 0
          /wV5b3U=
        >
        E 0 90 40 60
        E 90 80 40 00
        <X 150 0
          /wVkcml2ZQ==
        >
        E 0 90 3d 60
        E 90 80 3d 00
        <X 150 0
          /wVtZQ==
        >
        E 0 90 40 60
        E 90 80 40 00
        <X 150 0
          /wVyb3VuZA==
        >
        E 0 90 42 60
        E 300 80 42 00
        <X 180 0
          /wVhbmQ=
        >
        E 0 90 44 60
        E 180 80 44 00
        <X 60 0
          /wVyb3VuZA==
        >
        E 0 90 42 60
        E 120 80 42 00
        <X 210 0
          /wUr
        >
        E 0 90 40 60
        E 30 80 69 00
        E 0 80 40 00
        E 0 90 69 60
        <X 120 0
          /wVVbi0=
        >
        E 0 90 40 60
        E 90 80 40 00
        <X 150 0
          /wV0aWw=
        >
        E 0 90 3d 60
        E 90 80 3d 00
        <X 150 0
          /wVJ
        >
        E 0 90 40 60
        E 90 80 40 00
        <X 150 0
          /wVjcmFzaA==
        >
        E 0 90 42 60
        E 300 80 42 00
        <X 180 0
          /wVpbi0=
        >
        E 0 90 44 60
        E 150 80 44 00
        <X 90 0
          /wV0bw==
        >
        E 0 90 42 60
        E 120 80 42 00
        <X 210 0
          /wUr
        >
        E 0 90 40 60
        E 30 80 40 00
        <X 120 0
          /wV0aGU=
        >
        E 0 90 40 60
        E 60 80 40 00
        <X 180 0
          /wVzdGFycw==
        >
        E 0 90 3d 60
        E 690 80 3d 00
        E 270 80 69 00
        E 0 90 69 60
        <X 240 0
          /wVZb3U=
        >
        E 0 90 3d 60
        E 120 80 3d 00
        <X 120 0
          /wV0YWtl
        >
        E 0 90 3d 60
        E 300 80 3d 00
        <X 180 0
          /wVtZQ==
        >
        E 0 90 40 60
        E 330 80 40 00
        <X 150 0
          /wVmb3I=
        >
        E 0 90 42 60
        E 300 80 42 00
        <X 180 0
          /wVh
        >
        E 0 90 44 60
        E 180 80 44 00
        <X 60 0
          /wVzcGlu
        >
        E 0 90 42 60
        E 120 80 42 00
        <X 210 0
          /wUr
        >
        E 0 90 40 60
        E 30 80 40 00
        E 30 80 69 00
        E 0 90 69 60
        <X 90 0
          /wV5b3U=
        >
        E 0 90 40 60
        E 90 80 40 00
        <X 150 0
          /wV0YWtl
        >
        E 0 90 3d 60
        E 90 80 3d 00
        <X 150 0
          /wVtZQ==
        >
        E 0 90 40 60
        E 90 80 40 00
        <X 150 0
          /wVmb3I=
        >
        E 0 90 42 60
        E 300 80 42 00
        <X 180 0
          /wVh
        >
        E 0 90 44 60
        E 180 80 44 00
        <X 60 0
          /wVzcGlu
        >
        E 0 90 42 60
        E 120 80 42 00
        <X 210 0
          /wUr
        >
        E 0 90 40 60
        E 30 80 69 00
        E 0 80 40 00
        E 0 90 69 60
        <X 120 0
          /wVVbi0=
        >
        E 0 90 40 60
        E 90 80 40 00
        <X 150 0
          /wV0aWw=
        >
        E 0 90 3d 60
        E 90 80 3d 00
        <X 150 0
          /wVJ
        >
        E 0 90 40 60
        E 90 80 40 00
        <X 150 0
          /wVjcmFzaA==
        >
        E 0 90 42 60
        E 300 80 42 00
        <X 180 0
          /wVpbi0=
        >
        E 0 90 44 60
        E 150 80 44 00
        <X 90 0
          /wV0bw==
        >
        E 0 90 42 60
        E 120 80 42 00
        <X 210 0
          /wUr
        >
        E 0 90 40 60
        E 30 80 40 00
        <X 120 0
          /wV0aGU=
        >
        E 0 90 40 60
        E 60 80 40 00
        <X 180 0
          /wVzdGFycw==
        >
        E 0 90 3d 60
        E 690 80 3d 00
        E 750 80 69 00
        E 960 90 69 60
        <X 240 0
          /wVJJ20=
        >
        E 0 90 44 60
        E 180 80 44 00
        <X 60 0
          /wVicmVhay0=
        >
        E 0 90 42 60
        E 150 80 42 00
        <X 90 0
          /wVpbmc=
        >
        E 0 90 40 60
        E 150 80 40 00
        <X 90 0
          /wVpbi0=
        >
        E 0 90 42 60
        E 300 80 42 00
        <X 180 0
          /wV0bw==
        >
        E 0 90 44 60
        E 300 80 44 00
        <X 180 0
          /wVjYXJz
        >
        E 0 90 3d 60
        E 990 80 3d 00
        E 210 80 69 00
        E 0 90 69 60
        <X 960 0
          /wVJJ20=
        >
        E 0 90 44 60
        E 180 80 44 00
        <X 60 0
          /wVicmVhay0=
        >
        E 0 90 42 60
        E 150 80 42 00
        <X 90 0
          /wVpbmc=
        >
        E 0 90 40 60
        E 150 80 40 00
        <X 90 0
          /wVpbi0=
        >
        E 0 90 42 60
        E 300 80 42 00
        <X 180 0
          /wV0bw==
        >
        E 0 90 44 60
        E 300 80 44 00
        <X 180 0
          /wVjYXJz
        >
        E 0 90 3d 60
        E 1140 80 3d 00
        E 780 80 69 00
        E 1920 90 69 60
        <X 480 0
          /wVDYW4=
        >
        E 0 90 44 60
        E 150 80 44 00
        <X 90 0
          /wVJ
        >
        E 0 90 44 60
        E 150 80 44 00
        <X 90 0
          /wViZWF0
        >
        E 0 90 44 60
        E 180 80 44 00
        <X 60 0
          /wUnZW0=
        >
        E 0 90 44 60
        E 390 80 44 00
        <X 90 0
          /wVub3c=
        >
        E 0 90 44 60
        E 870 80 44 00
        E 90 80 69 00
        E 0 90 69 60
        <X 1680 0
          /wVDYW4=
        >
        E 0 90 44 60
        E 150 80 44 00
        <X 90 0
          /wVJ
        >
        E 0 90 44 60
        E 150 80 44 00
        <X 90 0
          /wVnZXQ=
        >
        E 0 90 44 60
        E 120 80 44 00
        <X 120 0
          /wV5b3Vy
        >
        E 0 90 44 60
        E 390 80 44 00
        <X 90 0
          /wVsb3Zl
        >
        E 0 90 44 60
        E 870 80 44 00
        E 330 80 69 00
        E 960 90 69 60
        <X 480 0
          /wVDYW4=
        >
        E 0 90 44 60
        E 150 80 44 00
        <X 90 0
          /wVJ
        >
        E 0 90 44 60
        E 150 80 44 00
        <X 90 0
          /wViZWF0
        >
        E 0 90 44 60
        E 180 80 44 00
        <X 60 0
          /wUnZW0=
        >
        E 0 90 44 60
        E 390 80 44 00
        <X 90 0
          /wVub3c=
        >
        E 0 90 44 60
        E 870 80 44 00
        E 90 80 69 00
        E 0 90 69 60
        <X 1680 0
          /wVDYW4=
        >
        E 0 90 44 60
        E 150 80 44 00
        <X 90 0
          /wVJ
        >
        E 0 90 44 60
        E 150 80 44 00
        <X 90 0
          /wVnZXQ=
        >
        E 0 90 44 60
        E 120 80 44 00
        <X 120 0
          /wV5b3Vy
        >
        E 0 90 44 60
        E 390 80 44 00
        <X 90 0
          /wVsb3Zl
        >
        E 0 90 44 60
        E 870 80 44 00
        E 330 80 69 00
        E 960 90 69 60
        <X 240 0
          /wVZb3U=
        >
        E 0 90 44 60
        E 60 80 44 00
        <X 180 0
          /wVrZWVw
        >
        E 0 90 44 60
        E 150 80 44 00
        <X 90 0
          /wVpZy0=
        >
        E 0 90 44 60
        E 150 80 44 00
        <X 90 0
          /wVub3It
        >
        E 0 90 44 60
        E 180 80 44 00
        <X 60 0
          /wVpbmc=
        >
        E 0 90 44 60
        E 360 80 44 00
        <X 120 0
          /wVtZQ==
        >
        E 0 90 44 60
        E 870 80 44 00
        E 90 80 69 00
        E 0 90 69 60
        <X 1680 0
          /wVhbmQ=
        >
        E 0 90 44 60
        E 150 80 44 00
        <X 90 0
          /wV0aGU=
        >
        E 0 90 44 60
        E 90 80 44 00
        <X 150 0
          /wV0ZWFyLQ==
        >
        E 0 90 44 60
        E 120 80 44 00
        <X 120 0
          /wVkcm9wcw==
        >
        E 0 90 44 60
        E 390 80 44 00
        <X 120 0
          /wVmYWxs
        >
        E 0 90 44 60
        E 660 80 44 00
        E 510 80 69 00
        E 960 90 69 60
        <X 240 0
          /wVZb3U=
        >
        E 0 90 44 60
        E 60 80 44 00
        <X 180 0
          /wVrZWVw
        >
        E 0 90 44 60
        E 150 80 44 00
        <X 90 0
          /wVpZy0=
        >
        E 0 90 44 60
        E 150 80 44 00
        <X 90 0
          /wVub3It
        >
        E 0 90 44 60
        E 180 80 44 00
        <X 60 0
          /wVpbmc=
        >
        E 0 90 44 60
        E 240 80 44 00
        <X 240 0
          /wVtZQ==
        >
        E 0 90 44 60
        E 810 80 44 00
        E 150 80 69 00
        E 0 90 69 60
        <X 1680 0
          /wVhbmQ=
        >
        E 0 90 44 60
        E 150 80 44 00
        <X 90 0
          /wV0aGU=
        >
        E 0 90 44 60
        E 90 80 44 00
        <X 150 0
          /wV0ZWFyLQ==
        >
        E 0 90 44 60
        E 120 80 44 00
        <X 120 0
          /wVkcm9wcw==
        >
        E 0 90 44 60
        E 390 80 44 00
        <X 120 0
          /wVmYWxs
        >
        E 0 90 44 60
        E 660 80 44 00
        E 510 80 69 00
        E 960 90 69 60
        <X 480 0
          /wVMZXQ=
        >
        E 0 90 3d 60
        E 180 80 3d 00
        <X 60 0
          /wVtZQ==
        >
        E 0 90 3d 60
        E 150 80 3d 00
        <X 90 0
          /wVvdXQ=
        >
        E 0 90 3d 60
        E 360 80 3d 00
        <X 120 0
          /wVvZg==
        >
        E 0 90 3d 60
        E 90 80 3d 00
        <X 150 0
          /wVoZXJl
        >
        E 0 90 40 60
        E 630 80 40 00
        E 90 80 69 00
        E 0 90 69 60
        <X 1920 0
          /wVsZXQ=
        >
        E 0 90 3d 60
        E 180 80 3d 00
        <X 60 0
          /wVtZQ==
        >
        E 0 90 3d 60
        E 150 80 3d 00
        <X 90 0
          /wVvdXQ=
        >
        E 0 90 3d 60
        E 360 80 3d 00
        <X 120 0
          /wVvZg==
        >
        E 0 90 3d 60
        E 90 80 3d 00
        <X 150 0
          /wVoZXJl
        >
        E 0 90 40 60
        E 630 80 40 00
        E 90 80 69 00
        E 0 90 69 60
        <X 240 0
          /wVZb3U=
        >
        E 0 90 3d 60
        E 120 80 3d 00
        <X 120 0
          /wVkcml2ZQ==
        >
        E 0 90 3d 60
        E 300 80 3d 00
        <X 180 0
          /wVtZQ==
        >
        E 0 90 40 60
        E 330 80 40 00
        <X 150 0
          /wVyb3VuZA==
        >
        E 0 90 42 60
        E 300 80 42 00
        <X 180 0
          /wVhbmQ=
        >
        E 0 90 44 60
        E 180 80 44 00
        <X 60 0
          /wVyb3VuZA==
        >
        E 0 90 42 60
        E 120 80 42 00
        <X 210 0
          /wUr
        >
        E 0 90 40 60
        E 30 80 40 00
        E 30 80 69 00
        E 0 90 69 60
        <X 90 0
          /wV5b3U=
        >
        E 0 90 40 60
        E 90 80 40 00
        <X 150 0
          /wVkcml2ZQ==
        >
        E 0 90 3d 60
        E 90 80 3d 00
        <X 150 0
          /wVtZQ==
        >
        E 0 90 40 60
        E 90 80 40 00
        <X 150 0
          /wVyb3VuZA==
        >
        E 0 90 42 60
        E 300 80 42 00
        <X 180 0
          /wVhbmQ=
        >
        E 0 90 44 60
        E 180 80 44 00
        <X 60 0
          /wVyb3VuZA==
        >
        E 0 90 42 60
        E 120 80 42 00
        <X 210 0
          /wUr
        >
        E 0 90 40 60
        E 30 80 40 00
        E 60 80 69 00
        E 0 90 69 60
        <X 60 0
          /wVVbi0=
        >
        E 0 90 40 60
        E 90 80 40 00
        <X 150 0
          /wV0aWw=
        >
        E 0 90 3d 60
        E 90 80 3d 00
        <X 150 0
          /wVJ
        >
        E 0 90 40 60
        E 90 80 40 00
        <X 150 0
          /wVjcmFzaA==
        >
        E 0 90 42 60
        E 300 80 42 00
        <X 180 0
          /wVpbi0=
        >
        E 0 90 44 60
        E 150 80 44 00
        <X 90 0
          /wV0bw==
        >
        E 0 90 42 60
        E 120 80 42 00
        <X 210 0
          /wUr
        >
        E 0 90 40 60
        E 30 80 40 00
        <X 120 0
          /wV0aGU=
        >
        E 0 90 40 60
        E 60 80 40 00
        <X 180 0
          /wVzdGFycw==
        >
        E 0 90 3d 60
        E 690 80 3d 00
        E 270 80 69 00
        E 0 90 69 60
        <X 240 0
          /wVZb3U=
        >
        E 0 90 3d 60
        E 120 80 3d 00
        <X 120 0
          /wV0YWtl
        >
        E 0 90 3d 60
        E 300 80 3d 00
        <X 180 0
          /wVtZQ==
        >
        E 0 90 40 60
        E 330 80 40 00
        <X 150 0
          /wVmb3I=
        >
        E 0 90 42 60
        E 300 80 42 00
        <X 180 0
          /wVh
        >
        E 0 90 44 60
        E 180 80 44 00
        <X 60 0
          /wVzcGlu
        >
        E 0 90 42 60
        E 120 80 42 00
        <X 210 0
          /wUr
        >
        E 0 90 40 60
        E 30 80 40 00
        E 30 80 69 00
        E 0 90 69 60
        <X 90 0
          /wV5b3U=
        >
        E 0 90 40 60
        E 90 80 40 00
        <X 150 0
          /wV0YWtl
        >
        E 0 90 3d 60
        E 90 80 3d 00
        <X 150 0
          /wVtZQ==
        >
        E 0 90 40 60
        E 90 80 40 00
        <X 150 0
          /wVmb3I=
        >
        E 0 90 42 60
        E 300 80 42 00
        <X 180 0
          /wVh
        >
        E 0 90 44 60
        E 180 80 44 00
        <X 60 0
          /wVzcGlu
        >
        E 0 90 42 60
        E 120 80 42 00
        <X 210 0
          /wUr
        >
        E 0 90 40 60
        E 30 80 69 00
        E 0 80 40 00
        E 0 90 69 60
        <X 120 0
          /wVVbi0=
        >
        E 0 90 40 60
        E 90 80 40 00
        <X 150 0
          /wV0aWw=
        >
        E 0 90 3d 60
        E 90 80 3d 00
        <X 150 0
          /wVJ
        >
        E 0 90 40 60
        E 90 80 40 00
        <X 150 0
          /wVjcmFzaA==
        >
        E 0 90 42 60
        E 300 80 42 00
        <X 180 0
          /wVpbi0=
        >
        E 0 90 44 60
        E 150 80 44 00
        <X 90 0
          /wV0bw==
        >
        E 0 90 42 60
        E 120 80 42 00
        <X 210 0
          /wUr
        >
        E 0 90 40 60
        E 30 80 40 00
        <X 120 0
          /wV0aGU=
        >
        E 0 90 40 60
        E 60 80 40 00
        <X 180 0
          /wVzdGFycw==
        >
        E 0 90 3d 60
        E 690 80 3d 00
        E 750 80 69 00
        E 960 90 69 60
        <X 240 0
          /wVJJ20=
        >
        E 0 90 44 60
        E 180 80 44 00
        <X 60 0
          /wVicmVhay0=
        >
        E 0 90 42 60
        E 150 80 42 00
        <X 90 0
          /wVpbmc=
        >
        E 0 90 40 60
        E 150 80 40 00
        <X 90 0
          /wVpbi0=
        >
        E 0 90 42 60
        E 300 80 42 00
        <X 180 0
          /wV0bw==
        >
        E 0 90 44 60
        E 300 80 44 00
        <X 180 0
          /wVjYXJz
        >
        E 0 90 3d 60
        E 990 80 3d 00
        E 90 80 69 00
        E 0 90 69 60
        <X 1080 0
          /wVJJ20=
        >
        E 0 90 44 60
        E 180 80 44 00
        <X 60 0
          /wVicmVhay0=
        >
        E 0 90 42 60
        E 150 80 42 00
        <X 90 0
          /wVpbmc=
        >
        E 0 90 40 60
        E 150 80 40 00
        <X 90 0
          /wVpbi0=
        >
        E 0 90 42 60
        E 300 80 42 00
        <X 180 0
          /wV0bw==
        >
        E 0 90 44 60
        E 300 80 44 00
        <X 180 0
          /wVjYXJz
        >
        E 0 90 3d 60
        E 1140 80 3d 00
        E 780 80 69 00
        E 46560 90 69 60
        <X 240 0
          /wVZb3U=
        >
        E 0 90 3d 60
        E 120 80 3d 00
        <X 120 0
          /wVkcml2ZQ==
        >
        E 0 90 3d 60
        E 300 80 3d 00
        <X 180 0
          /wVtZQ==
        >
        E 0 90 40 60
        E 330 80 40 00
        <X 150 0
          /wVyb3VuZA==
        >
        E 0 90 42 60
        E 300 80 42 00
        <X 180 0
          /wVhbmQ=
        >
        E 0 90 44 60
        E 180 80 44 00
        <X 60 0
          /wVyb3VuZA==
        >
        E 0 90 42 60
        E 120 80 42 00
        <X 210 0
          /wUr
        >
        E 0 90 40 60
        E 30 80 40 00
        E 30 80 69 00
        E 0 90 69 60
        <X 90 0
          /wV5b3U=
        >
        E 0 90 40 60
        E 90 80 40 00
        <X 150 0
          /wVkcml2ZQ==
        >
        E 0 90 3d 60
        E 90 80 3d 00
        <X 150 0
          /wVtZQ==
        >
        E 0 90 40 60
        E 90 80 40 00
        <X 150 0
          /wVyb3VuZA==
        >
        E 0 90 42 60
        E 300 80 42 00
        <X 180 0
          /wVhbmQ=
        >
        E 0 90 44 60
        E 180 80 44 00
        <X 60 0
          /wVyb3VuZA==
        >
        E 0 90 42 60
        E 120 80 42 00
        <X 210 0
          /wUr
        >
        E 0 90 40 60
        E 30 80 40 00
        E 60 80 69 00
        E 0 90 69 60
        <X 60 0
          /wVVbi0=
        >
        E 0 90 40 60
        E 90 80 40 00
        <X 150 0
          /wV0aWw=
        >
        E 0 90 3d 60
        E 90 80 3d 00
        <X 150 0
          /wVJ
        >
        E 0 90 40 60
        E 90 80 40 00
        <X 150 0
          /wVjcmFzaA==
        >
        E 0 90 42 60
        E 300 80 42 00
        <X 180 0
          /wVpbi0=
        >
        E 0 90 44 60
        E 150 80 44 00
        <X 90 0
          /wV0bw==
        >
        E 0 90 42 60
        E 120 80 42 00
        <X 210 0
          /wUr
        >
        E 0 90 40 60
        E 30 80 40 00
        <X 120 0
          /wV0aGU=
        >
        E 0 90 40 60
        E 60 80 40 00
        <X 180 0
          /wVzdGFycw==
        >
        E 0 90 3d 60
        E 690 80 3d 00
        E 270 80 69 00
        E 0 90 69 60
        <X 240 0
          /wVZb3U=
        >
        E 0 90 3d 60
        E 120 80 3d 00
        <X 120 0
          /wV0YWtl
        >
        E 0 90 3d 60
        E 300 80 3d 00
        <X 180 0
          /wVtZQ==
        >
        E 0 90 40 60
        E 330 80 40 00
        <X 150 0
          /wVmb3I=
        >
        E 0 90 42 60
        E 300 80 42 00
        <X 180 0
          /wVh
        >
        E 0 90 44 60
        E 180 80 44 00
        <X 60 0
          /wVzcGlu
        >
        E 0 90 42 60
        E 120 80 42 00
        <X 210 0
          /wUr
        >
        E 0 90 40 60
        E 30 80 40 00
        E 30 80 69 00
        E 0 90 69 60
        <X 90 0
          /wV5b3U=
        >
        E 0 90 40 60
        E 90 80 40 00
        <X 150 0
          /wV0YWtl
        >
        E 0 90 3d 60
        E 90 80 3d 00
        <X 150 0
          /wVtZQ==
        >
        E 0 90 40 60
        E 90 80 40 00
        <X 150 0
          /wVmb3I=
        >
        E 0 90 42 60
        E 300 80 42 00
        <X 180 0
          /wVh
        >
        E 0 90 44 60
        E 180 80 44 00
        <X 60 0
          /wVzcGlu
        >
        E 0 90 42 60
        E 120 80 42 00
        <X 210 0
          /wUr
        >
        E 0 90 40 60
        E 30 80 69 00
        E 0 80 40 00
        E 0 90 69 60
        <X 120 0
          /wVVbi0=
        >
        E 0 90 40 60
        E 90 80 40 00
        <X 150 0
          /wV0aWw=
        >
        E 0 90 3d 60
        E 90 80 3d 00
        <X 150 0
          /wVJ
        >
        E 0 90 40 60
        E 90 80 40 00
        <X 150 0
          /wVjcmFzaA==
        >
        E 0 90 42 60
        E 300 80 42 00
        <X 180 0
          /wVpbi0=
        >
        E 0 90 44 60
        E 150 80 44 00
        <X 90 0
          /wV0bw==
        >
        E 0 90 42 60
        E 120 80 42 00
        <X 210 0
          /wUr
        >
        E 0 90 40 60
        E 30 80 40 00
        <X 120 0
          /wV0aGU=
        >
        E 0 90 40 60
        E 60 80 40 00
        <X 180 0
          /wVzdGFycw==
        >
        E 0 90 3d 60
        E 690 80 3d 00
        E 750 80 69 00
        E 960 90 69 60
        <X 240 0
          /wVJJ20=
        >
        E 0 90 44 60
        E 180 80 44 00
        <X 60 0
          /wVicmVhay0=
        >
        E 0 90 42 60
        E 150 80 42 00
        <X 90 0
          /wVpbmc=
        >
        E 0 90 40 60
        E 150 80 40 00
        <X 90 0
          /wVpbi0=
        >
        E 0 90 42 60
        E 300 80 42 00
        <X 180 0
          /wV0bw==
        >
        E 0 90 44 60
        E 300 80 44 00
        <X 180 0
          /wVjYXJz
        >
        E 0 90 3d 60
        E 990 80 3d 00
        E 90 80 69 00
        E 0 90 69 60
        <X 1080 0
          /wVJJ20=
        >
        E 0 90 44 60
        E 180 80 44 00
        <X 60 0
          /wVicmVhay0=
        >
        E 0 90 42 60
        E 150 80 42 00
        <X 90 0
          /wVpbmc=
        >
        E 0 90 40 60
        E 150 80 40 00
        <X 90 0
          /wVpbi0=
        >
        E 0 90 42 60
        E 300 80 42 00
        <X 180 0
          /wV0bw==
        >
        E 0 90 44 60
        E 300 80 44 00
        <X 180 0
          /wVjYXJz
        >
        E 0 90 3d 60
        E 1620 80 3d 00
        E 299 80 69 00
        E 7681 b0 7b 00
        GUID {2C01CB1F-145C-4A5E-955C-DF1A59C8BFC6}
        IGNTEMPO 0 120.00000000 4 4
        SRCCOLOR 121
        VELLANE 132 100 0
        COLORMAP "C:\Program Files\REAPER (x64)\Data\color_maps\rockband_guitarbass.png"
        CFGEDITVIEW 0.000000 0.003393 0 12 0 0 0
        CFGEDIT 1 1 0 1 1 0 1 1 1 1 1 0.12500000 53 44 1253 718 0 2 0 1 0.00000000 0 1 0 0 0.500000 0 0 1.000000 64
        KEYSNAP 0 7 "102030050700" 0 "Pentatonic"
        EVTFILTER 0 -1 -1 -1 -1 0 1 0 0 -1.00000000 -1.00000000
      >
    >
  >
  <TRACK '{7812ABE4-2BC5-47EC-A8A1-2F7D80DFEC98}'
    NAME "PART REAL_BASS"
    PEAKCOL 16576
    BEAT -1
    AUTOMODE 0
    VOLPAN 1.00000000000000 0.00000000000000 -1.00000000000000 -1.00000000000000 1.00000000000000
    MUTESOLO 0 0 0
    IPHASE 0
    ISBUS 0 0
    BUSCOMP 0 0
    SHOWINMIX 1 0.666700 0.500000 1 0.500000 -1 -1 -1
    FREEMODE 0
    SEL 0
    REC 0 0 0 0 0 0 0
    VU 2
    TRACKHEIGHT 0 0
    INQ 0 0 0 0.5000000000 100 0 0 100
    NCHAN 2
    FX 0
    TRACKID {7812ABE4-2BC5-47EC-A8A1-2F7D80DFEC98}
    PERF 0
    MIDIOUT -1
    <MIDINOTENAMES
      0 127 "Trill Marker"
      0 126 "Tremolo Marker"
      0 125 "BRE"
      0 124 "BRE"
      0 123 "BRE"
      0 122 "BRE"
      0 121 "BRE"
      0 120 "BRE (use all 6)"
      0 119 "-----------"
      0 116 "OVERDRIVE"
      0 115 "Solo Marker"
      0 109 "-----------"
      0 108 "Fret Hand Position"
      0 107 "Force Chord Numbering"
      0 106 "Loose Strumming"
      0 105 "Strum Direction"
      0 104 "Arpeggio Marker"
      0 103 "Slide Marker"
      0 102 "Force HOPO"
      0 101 "EXPERT e String"
      0 100 "EXPERT B String"
      0 99 "EXPERT G String"
      0 98 "EXPERT D String"
      0 97 "EXPERT A String"
      0 96 "EXPERT E String"
      0 95 "-----------"
      0 82 "Loose Strumming"
      0 81 "Strum Direction"
      0 80 "Arpeggio Marker"
      0 79 "Slide Marker"
      0 78 "Force HOPO"
      0 77 "HARD e String"
      0 76 "HARD B String"
      0 75 "HARD G String"
      0 74 "HARD D String"
      0 73 "HARD A String"
      0 72 "HARD E String"
      0 71 "-----------"
      0 58 "Loose Strumming"
      0 56 "Arpeggio Marker"
      0 55 "Slide Marker"
      0 53 "MEDIUM e String"
      0 52 "MEDIUM B String"
      0 51 "MEDIUM G String"
      0 50 "MEDIUM D String"
      0 49 "MEDIUM A String"
      0 48 "MEDIUM E String"
      0 47 "-----------"
      0 32 "Arpeggio Marker"
      0 31 "Slide Marker"
      0 29 "EASY e String"
      0 28 "EASY B String"
      0 27 "EASY G String"
      0 26 "EASY D String"
      0 25 "EASY A String"
      0 24 "EASY E String"
      0 21 "-----------"
      0 18 "Flat/Sharp Swap"
      0 17 "Hide Chord Names"
      0 16 "Slash Chord"
      0 15 "D#"
      0 14 "D"
      0 13 "C#"
      0 12 "C"
      0 11 "B"
      0 10 "A#"
      0 9 "A"
      0 8 "G#"
      0 7 "G"
      0 6 "F#"
      0 5 "F"
      0 4 "E"
    >
    MAINSEND 1 0
    <FXCHAIN
      WNDRECT 0 43 729 467
      SHOW 0
      LASTSEL 2
      DOCKED 0
      BYPASS 0 0
      <JS "c3/progtr" ""
        0.000000 3.000000 0.000000 0.000000 0.000000 0.000000 0.000000 0.000000 0.000000 1.000000 - - - - - - - - - - - - - - - - - - - - - - - - - - - - - - - - - - - - - - - - - - - - - - - - - - - - - - 
      >
      FLOATPOS 0 0 0 0
      FXID {B86318F3-C6FB-4204-A28B-57FC45C8E93A}
      WAK 0
      BYPASS 0 0
      <JS "MIDI/midi_transpose" ""
        -12.000000 1.000000 0.000000 127.000000 - - - - - - - - - - - - - - - - - - - - - - - - - - - - - - - - - - - - - - - - - - - - - - - - - - - - - - - - - - - - 
      >
      FLOATPOS 0 0 0 0
      FXID {2D1D75F3-5D8A-4678-8499-88DE5C331247}
      WAK 0
      BYPASS 0 0
      <VST "VSTi: ReaSynth (Cockos)" "reasynth.dll" 0 ""
        eXNlcu9e7f4AAAAAAgAAAAEAAAAAAAAAAgAAAAAAAAA4AAAAAAAAAA==
        AAAQAO++rd4N8K3eppvEO+gJMjwAAAAAAAAAAAAAgD8AAIA/4jAEPA==
        AAAAAAAAAD+01hM+j8L1PQAAAD8AABAAAAA=
      >
      FLOATPOS 0 0 0 0
      FXID {39D76A53-56EB-4E78-AB5C-8062D02E5BB2}
      WAK 0
    >
    <ITEM
      POSITION 0.00000000000000
      SNAPOFFS 0.00000000000000
      LENGTH 194.42541950113377
      LOOP 0
      ALLTAKES 0
      SEL 0
      FADEIN 1 0.000000 0.000000 1 0
      FADEOUT 1 0.000000 0.000000 1 0
      MUTE 0
      IGUID {3E3D946D-CEF7-4FA1-A757-4BF3111EAA1E}
      IID 5
      NAME "PART REAL_BASS"
      VOLPAN 1.000000 0.000000 1.000000 -1.000000
      SOFFS 0.00000000000000 0.00000000000000
      PLAYRATE 1.00000000000000 1 0.00000000000000 -1
      CHANMODE 0
      GUID {DE9CE3BE-9E69-48A5-BED8-6786832E7E8D}
      <SOURCE MIDI
        HASDATA 1 480 QN
        POOLEDEVTS {DBF46DF1-6CE4-4228-9972-DC3BC292861E}
        <X 0 0
          /wNQQVJUIFJFQUxfQkFTUw==
        >
        E 5760 90 18 68
        E 0 90 30 68
        E 0 90 48 68
        E 0 90 60 68
        E 0 90 6c 66
        E 120 80 6c 00
        E 360 80 18 00
        E 0 80 30 00
        E 360 80 48 00
        E 0 80 60 00
        E 120 90 18 68
        E 0 90 30 68
        E 0 90 48 68
        E 0 90 60 68
        E 480 80 18 00
        E 0 80 30 00
        E 360 80 48 00
        E 0 80 60 00
        E 120 90 18 68
        E 0 90 30 68
        E 0 90 48 68
        E 0 90 60 68
        E 120 80 18 00
        E 0 80 30 00
        E 480 80 48 00
        E 0 80 60 00
        E 120 90 31 66
        E 0 90 49 66
        E 0 90 4f 64
        E 0 90 61 66
        E 0 90 67 64
        E 120 80 31 00
        E 0 80 49 00
        E 0 80 4f 00
        E 0 80 61 00
        E 0 80 67 00
        E 120 90 19 68
        E 0 90 1e 64
        E 0 90 31 68
        E 0 90 36 64
        E 0 90 49 68
        E 0 90 4e 64
        E 0 90 61 68
        E 0 90 66 64
        E 120 80 19 00
        E 0 80 1e 00
        E 0 80 31 00
        E 0 80 36 00
        E 0 80 49 00
        E 0 80 4e 00
        E 0 80 61 00
        E 0 80 66 00
        E 360 90 30 69
        E 0 90 48 69
        E 0 90 60 69
        E 120 80 30 00
        E 0 80 48 00
        E 0 80 60 00
        E 360 90 18 68
        E 0 90 30 68
        E 0 90 48 68
        E 0 90 60 68
        E 480 80 18 00
        E 0 80 30 00
        E 360 80 48 00
        E 0 80 60 00
        E 120 90 18 68
        E 0 90 30 68
        E 0 90 48 68
        E 0 90 60 68
        E 480 80 18 00
        E 0 80 30 00
        E 360 80 48 00
        E 0 80 60 00
        E 120 90 18 68
        E 0 90 30 68
        E 0 90 48 68
        E 0 90 60 68
        E 120 80 18 00
        E 0 80 30 00
        E 480 80 48 00
        E 0 80 60 00
        <X 120 0
          /wFbYmVnaW5fcGIgc29uZ190cmFpbmVyX3BiXzFd
        >
        E 0 90 31 66
        E 0 90 49 66
        E 0 90 4f 64
        E 0 90 61 66
        E 0 90 67 64
        E 120 80 31 00
        E 0 80 49 00
        E 0 80 4f 00
        E 0 80 61 00
        E 0 80 67 00
        E 120 90 19 68
        E 0 90 1e 64
        E 0 90 31 68
        E 0 90 36 64
        E 0 90 49 68
        E 0 90 4e 64
        E 0 90 61 68
        E 0 90 66 64
        E 120 80 19 00
        E 0 80 1e 00
        E 0 80 31 00
        E 0 80 36 00
        E 0 80 49 00
        E 0 80 4e 00
        E 0 80 61 00
        E 0 80 66 00
        E 360 90 30 69
        E 0 90 48 69
        E 0 90 60 69
        E 120 80 30 00
        E 0 80 48 00
        E 0 80 60 00
        <X 120 0
          /wFbcGJfbm9ybSBzb25nX3RyYWluZXJfcGJfMV0=
        >
        E 240 90 18 68
        E 0 90 30 68
        E 0 90 48 68
        E 0 90 60 68
        E 480 80 18 00
        E 0 80 30 00
        E 360 80 48 00
        E 0 80 60 00
        E 120 90 18 68
        E 0 90 30 68
        E 0 90 48 68
        E 0 90 60 68
        E 480 80 18 00
        E 0 80 30 00
        E 360 80 48 00
        E 0 80 60 00
        E 120 90 18 68
        E 0 90 30 68
        E 0 90 48 68
        E 0 90 60 68
        E 120 80 18 00
        E 0 80 30 00
        E 480 80 48 00
        E 0 80 60 00
        <X 120 0
          /wFbZW5kX3BiIHNvbmdfdHJhaW5lcl9wYl8xXQ==
        >
        E 0 90 31 66
        E 0 90 49 66
        E 0 90 4f 64
        E 0 90 61 66
        E 0 90 67 64
        E 120 80 31 00
        E 0 80 49 00
        E 0 80 4f 00
        E 0 80 61 00
        E 0 80 67 00
        E 120 90 19 68
        E 0 90 1e 64
        E 0 90 31 68
        E 0 90 36 64
        E 0 90 49 68
        E 0 90 4e 64
        E 0 90 61 68
        E 0 90 66 64
        E 120 80 19 00
        E 0 80 1e 00
        E 0 80 31 00
        E 0 80 36 00
        E 0 80 49 00
        E 0 80 4e 00
        E 0 80 61 00
        E 0 80 66 00
        E 360 90 30 69
        E 0 90 48 69
        E 0 90 60 69
        E 120 80 30 00
        E 0 80 48 00
        E 0 80 60 00
        E 360 90 18 68
        E 0 90 30 68
        E 0 90 48 68
        E 0 90 60 68
        E 480 80 18 00
        E 0 80 30 00
        E 360 80 48 00
        E 0 80 60 00
        E 120 90 18 68
        E 0 90 30 68
        E 0 90 48 68
        E 0 90 60 68
        E 480 80 18 00
        E 0 80 30 00
        E 360 80 48 00
        E 0 80 60 00
        E 120 90 18 68
        E 0 90 30 68
        E 0 90 48 68
        E 0 90 60 68
        E 0 90 74 64
        E 120 80 18 00
        E 0 80 30 00
        E 480 80 48 00
        E 0 80 60 00
        E 120 90 31 66
        E 0 90 49 66
        E 0 90 4f 64
        E 0 90 61 66
        E 0 90 67 64
        E 120 80 31 00
        E 0 80 49 00
        E 0 80 4f 00
        E 0 80 61 00
        E 0 80 67 00
        E 120 90 19 68
        E 0 90 1e 64
        E 0 90 31 68
        E 0 90 36 64
        E 0 90 49 68
        E 0 90 4e 64
        E 0 90 61 68
        E 0 90 66 64
        E 120 80 19 00
        E 0 80 1e 00
        E 0 80 31 00
        E 0 80 36 00
        E 0 80 49 00
        E 0 80 4e 00
        E 0 80 61 00
        E 0 80 66 00
        E 360 90 30 69
        E 0 90 48 69
        E 0 90 60 69
        E 120 80 30 00
        E 0 80 48 00
        E 0 80 60 00
        E 120 90 48 66
        E 0 90 60 66
        E 120 80 48 00
        E 0 80 60 00
        E 120 90 18 68
        E 0 90 30 68
        E 0 90 48 68
        E 0 90 60 68
        E 120 80 74 00
        E 360 80 18 00
        E 0 80 30 00
        E 120 80 48 00
        E 0 80 60 00
        E 120 90 48 66
        E 0 90 60 66
        E 120 80 48 00
        E 0 80 60 00
        E 120 90 18 68
        E 0 90 30 68
        E 0 90 48 68
        E 0 90 60 68
        E 480 80 18 00
        E 0 80 30 00
        E 120 80 48 00
        E 0 80 60 00
        E 120 90 48 66
        E 0 90 60 66
        E 120 80 48 00
        E 0 80 60 00
        E 120 90 18 68
        E 0 90 30 68
        E 0 90 48 68
        E 0 90 60 68
        E 120 80 18 00
        E 0 80 30 00
        E 480 80 48 00
        E 0 80 60 00
        E 120 90 31 66
        E 0 90 49 66
        E 0 90 4f 64
        E 0 90 61 66
        E 0 90 67 64
        E 120 80 31 00
        E 0 80 49 00
        E 0 80 4f 00
        E 0 80 61 00
        E 0 80 67 00
        E 120 90 19 68
        E 0 90 1e 64
        E 0 90 31 68
        E 0 90 36 64
        E 0 90 49 68
        E 0 90 4e 64
        E 0 90 61 68
        E 0 90 66 64
        E 120 80 19 00
        E 0 80 1e 00
        E 0 80 31 00
        E 0 80 36 00
        E 0 80 49 00
        E 0 80 4e 00
        E 0 80 61 00
        E 0 80 66 00
        E 360 90 30 69
        E 0 90 48 69
        E 0 90 60 69
        E 120 80 30 00
        E 0 80 48 00
        E 0 80 60 00
        E 360 90 18 68
        E 0 90 30 68
        E 0 90 48 68
        E 0 90 60 68
        E 480 80 18 00
        E 0 80 30 00
        E 120 80 48 00
        E 0 80 60 00
        E 120 90 48 66
        E 0 90 60 66
        E 120 80 48 00
        E 0 80 60 00
        E 120 90 18 68
        E 0 90 30 68
        E 0 90 48 68
        E 0 90 60 68
        E 480 80 18 00
        E 0 80 30 00
        E 120 80 48 00
        E 0 80 60 00
        E 120 90 48 66
        E 0 90 60 66
        E 120 80 48 00
        E 0 80 60 00
        E 120 90 18 68
        E 0 90 30 68
        E 0 90 48 68
        E 0 90 60 68
        E 120 80 18 00
        E 0 80 30 00
        E 480 80 48 00
        E 0 80 60 00
        E 120 90 31 66
        E 0 90 49 66
        E 0 90 4f 64
        E 0 90 61 66
        E 0 90 67 64
        E 120 80 31 00
        E 0 80 49 00
        E 0 80 4f 00
        E 0 80 61 00
        E 0 80 67 00
        E 120 90 19 68
        E 0 90 1e 64
        E 0 90 31 68
        E 0 90 36 64
        E 0 90 49 68
        E 0 90 4e 64
        E 0 90 61 68
        E 0 90 66 64
        E 120 80 19 00
        E 0 80 1e 00
        E 0 80 31 00
        E 0 80 36 00
        E 0 80 49 00
        E 0 80 4e 00
        E 0 80 61 00
        E 0 80 66 00
        E 360 90 30 69
        E 0 90 48 69
        E 0 90 60 69
        E 120 80 30 00
        E 0 80 48 00
        E 0 80 60 00
        E 120 90 48 66
        E 0 90 60 66
        E 120 80 48 00
        E 0 80 60 00
        E 120 90 18 68
        E 0 90 30 68
        E 0 90 48 68
        E 0 90 60 68
        E 480 80 18 00
        E 0 80 30 00
        E 120 80 48 00
        E 0 80 60 00
        E 120 90 48 66
        E 0 90 60 66
        E 120 80 48 00
        E 0 80 60 00
        E 120 90 18 68
        E 0 90 30 68
        E 0 90 48 68
        E 0 90 60 68
        E 480 80 18 00
        E 0 80 30 00
        E 120 80 48 00
        E 0 80 60 00
        E 120 90 48 66
        E 0 90 60 66
        E 120 80 48 00
        E 0 80 60 00
        E 120 90 18 68
        E 0 90 30 68
        E 0 90 48 68
        E 0 90 60 68
        E 120 80 18 00
        E 0 80 30 00
        E 480 80 48 00
        E 0 80 60 00
        E 120 90 31 66
        E 0 90 49 66
        E 0 90 4f 64
        E 0 90 61 66
        E 0 90 67 64
        E 120 80 31 00
        E 0 80 49 00
        E 0 80 4f 00
        E 0 80 61 00
        E 0 80 67 00
        E 120 90 19 68
        E 0 90 1e 64
        E 0 90 31 68
        E 0 90 36 64
        E 0 90 49 68
        E 0 90 4e 64
        E 0 90 61 68
        E 0 90 66 64
        E 120 80 19 00
        E 0 80 1e 00
        E 0 80 31 00
        E 0 80 36 00
        E 0 80 49 00
        E 0 80 4e 00
        E 0 80 61 00
        E 0 80 66 00
        E 360 90 30 69
        E 0 90 48 69
        E 0 90 60 69
        E 120 80 30 00
        E 0 80 48 00
        E 0 80 60 00
        E 360 90 18 68
        E 0 90 30 68
        E 0 90 48 68
        E 0 90 60 68
        E 480 80 18 00
        E 0 80 30 00
        E 120 80 48 00
        E 0 80 60 00
        E 120 90 48 66
        E 0 90 60 66
        E 120 80 48 00
        E 0 80 60 00
        E 120 90 18 68
        E 0 90 30 68
        E 0 90 48 68
        E 0 90 60 68
        E 480 80 18 00
        E 0 80 30 00
        E 120 80 48 00
        E 0 80 60 00
        E 120 90 48 66
        E 0 90 60 66
        E 120 80 48 00
        E 0 80 60 00
        E 120 90 18 68
        E 0 90 30 68
        E 0 90 48 68
        E 0 90 60 68
        E 120 80 18 00
        E 0 80 30 00
        E 360 90 74 64
        E 120 80 48 00
        E 0 80 60 00
        E 120 90 31 66
        E 0 90 49 66
        E 0 90 4f 64
        E 0 90 61 66
        E 0 90 67 64
        E 120 80 31 00
        E 0 80 49 00
        E 0 80 4f 00
        E 0 80 61 00
        E 0 80 67 00
        E 120 90 19 68
        E 0 90 1e 64
        E 0 90 31 68
        E 0 90 36 64
        E 0 90 49 68
        E 0 90 4e 64
        E 0 90 61 68
        E 0 90 66 64
        E 120 80 19 00
        E 0 80 1e 00
        E 0 80 31 00
        E 0 80 36 00
        E 0 80 49 00
        E 0 80 4e 00
        E 0 80 61 00
        E 0 80 66 00
        E 360 90 30 68
        E 0 90 48 68
        E 0 90 60 68
        E 120 80 30 00
        E 0 80 48 00
        E 0 80 60 00
        E 360 90 18 69
        E 0 90 30 69
        E 0 90 48 69
        E 0 90 60 69
        E 120 80 74 00
        E 2040 80 18 00
        E 0 80 30 00
        E 240 80 48 00
        E 0 80 60 00
        E 240 90 31 66
        E 0 90 49 66
        E 0 90 4f 64
        E 0 90 61 66
        E 0 90 67 64
        E 120 80 31 00
        E 0 80 49 00
        E 0 80 4f 00
        E 0 80 61 00
        E 0 80 67 00
        E 120 90 19 68
        E 0 90 1e 64
        E 0 90 31 68
        E 0 90 36 64
        E 0 90 49 68
        E 0 90 4e 64
        E 0 90 61 68
        E 0 90 66 64
        E 120 80 19 00
        E 0 80 1e 00
        E 0 80 31 00
        E 0 80 36 00
        E 0 80 49 00
        E 0 80 4e 00
        E 0 80 61 00
        E 0 80 66 00
        E 360 90 31 64
        E 0 90 49 64
        E 0 90 61 64
        E 120 80 31 00
        E 0 80 49 00
        E 0 80 61 00
        E 360 90 19 66
        E 0 90 31 66
        E 0 90 49 66
        E 0 90 61 66
        E 3360 80 19 00
        E 0 80 31 00
        E 0 80 49 00
        E 0 80 61 00
        <X 480 0
          /wFbYmVnaW5fcGIgc29uZ190cmFpbmVyX3BiXzJd
        >
        E 0 90 19 68
        E 0 90 31 68
        E 0 90 49 68
        E 0 90 61 68
        E 120 80 19 00
        E 0 80 31 00
        E 0 80 49 00
        E 0 80 61 00
        E 120 90 31 68
        E 0 90 49 68
        E 0 90 61 68
        E 120 80 31 00
        E 0 80 49 00
        E 0 80 61 00
        E 120 90 19 68
        E 0 90 31 68
        E 0 90 49 68
        E 0 90 61 68
        E 120 80 19 00
        E 0 80 31 00
        E 0 80 49 00
        E 0 80 61 00
        E 120 90 31 68
        E 0 90 49 68
        E 0 90 61 68
        E 120 80 31 00
        E 0 80 49 00
        E 0 80 61 00
        E 120 90 19 68
        E 0 90 31 68
        E 0 90 49 68
        E 0 90 61 68
        E 120 80 19 00
        E 0 80 31 00
        E 0 80 49 00
        E 0 80 61 00
        E 120 90 31 68
        E 0 90 49 68
        E 0 90 61 68
        E 120 80 31 00
        E 0 80 49 00
        E 0 80 61 00
        E 120 90 19 68
        E 0 90 31 68
        E 0 90 49 68
        E 0 90 61 68
        E 120 80 19 00
        E 0 80 31 00
        E 0 80 49 00
        E 0 80 61 00
        E 120 90 31 68
        E 0 90 49 68
        E 0 90 61 68
        E 120 80 31 00
        E 0 80 49 00
        E 0 80 61 00
        <X 120 0
          /wFbcGJfbm9ybSBzb25nX3RyYWluZXJfcGJfMl0=
        >
        E 0 90 19 68
        E 0 90 31 68
        E 0 90 49 68
        E 0 90 61 68
        E 120 80 19 00
        E 0 80 31 00
        E 0 80 49 00
        E 0 80 61 00
        E 120 90 31 68
        E 0 90 49 68
        E 0 90 61 68
        E 120 80 31 00
        E 0 80 49 00
        E 0 80 61 00
        E 120 90 19 68
        E 0 90 31 68
        E 0 90 49 68
        E 0 90 61 68
        E 120 80 19 00
        E 0 80 31 00
        E 0 80 49 00
        E 0 80 61 00
        E 120 90 31 68
        E 0 90 49 68
        E 0 90 61 68
        E 120 80 31 00
        E 0 80 49 00
        E 0 80 61 00
        E 120 90 61 68
        E 0 90 19 68
        E 0 90 31 68
        E 0 90 49 68
        E 120 80 61 00
        E 0 80 19 00
        E 0 80 31 00
        E 0 80 49 00
        E 120 90 31 68
        E 0 90 49 68
        E 0 90 61 68
        E 120 80 31 00
        E 0 80 49 00
        E 0 80 61 00
        E 120 90 31 68
        E 0 90 49 68
        E 0 90 61 68
        E 120 80 31 00
        E 0 80 49 00
        E 0 80 61 00
        E 120 90 49 68
        E 0 90 61 68
        E 120 80 49 00
        E 0 80 61 00
        E 120 90 61 64
        E 0 90 19 64
        E 0 90 31 64
        E 0 90 49 64
        E 120 80 61 00
        E 0 80 19 00
        E 0 80 31 00
        E 0 80 49 00
        E 120 90 61 64
        E 0 90 31 64
        E 0 90 49 64
        E 120 80 61 00
        E 0 80 31 00
        E 0 80 49 00
        E 120 90 61 64
        E 0 90 19 64
        E 0 90 31 64
        E 0 90 49 64
        E 120 80 61 00
        E 0 80 19 00
        E 0 80 31 00
        E 0 80 49 00
        E 120 90 61 64
        E 0 90 31 64
        E 0 90 49 64
        E 120 80 61 00
        E 0 80 31 00
        E 0 80 49 00
        E 120 90 61 64
        E 0 90 19 64
        E 0 90 31 64
        E 0 90 49 64
        E 120 80 61 00
        E 0 80 19 00
        E 0 80 31 00
        E 0 80 49 00
        E 120 90 61 64
        E 0 90 31 64
        E 0 90 49 64
        E 120 80 61 00
        E 0 80 31 00
        E 0 80 49 00
        E 120 90 19 64
        E 0 90 31 64
        E 0 90 49 64
        E 0 90 61 64
        E 120 80 19 00
        E 0 80 31 00
        E 0 80 49 00
        E 0 80 61 00
        E 120 90 31 64
        E 0 90 49 64
        E 0 90 61 64
        E 120 80 31 00
        E 0 80 49 00
        E 0 80 61 00
        E 120 90 19 64
        E 0 90 31 64
        E 0 90 49 64
        E 0 90 61 64
        E 120 80 19 00
        E 0 80 31 00
        E 0 80 49 00
        E 0 80 61 00
        E 120 90 31 64
        E 0 90 49 64
        E 0 90 61 64
        E 120 80 31 00
        E 0 80 49 00
        E 0 80 61 00
        E 120 90 61 64
        E 0 90 19 64
        E 0 90 31 64
        E 0 90 49 64
        E 120 80 61 00
        E 0 80 19 00
        E 0 80 31 00
        E 0 80 49 00
        E 120 90 61 64
        E 0 90 31 64
        E 0 90 49 64
        E 120 80 61 00
        E 0 80 31 00
        E 0 80 49 00
        E 120 90 61 64
        E 0 90 19 64
        E 0 90 31 64
        E 0 90 49 64
        E 120 80 61 00
        E 0 80 19 00
        E 0 80 31 00
        E 0 80 49 00
        E 120 90 61 64
        E 0 90 31 64
        E 0 90 49 64
        E 120 80 61 00
        E 0 80 31 00
        E 0 80 49 00
        E 120 90 61 64
        E 0 90 31 64
        E 0 90 49 64
        E 120 80 61 00
        E 0 80 31 00
        E 0 80 49 00
        E 120 90 49 66
        E 0 90 4f 64
        E 0 90 61 66
        E 0 90 67 64
        E 120 80 49 00
        E 0 80 4f 00
        E 60 80 61 00
        E 0 80 67 00
        <X 60 0
          /wFbZW5kX3BiIHNvbmdfdHJhaW5lcl9wYl8yXQ==
        >
        E 0 90 19 68
        E 0 90 31 68
        E 0 90 49 68
        E 0 90 61 68
        E 120 80 19 00
        E 0 80 31 00
        E 0 80 49 00
        E 0 80 61 00
        E 120 90 31 68
        E 0 90 49 68
        E 0 90 61 68
        E 120 80 31 00
        E 0 80 49 00
        E 0 80 61 00
        E 120 90 19 68
        E 0 90 31 68
        E 0 90 49 68
        E 0 90 61 68
        E 120 80 19 00
        E 0 80 31 00
        E 0 80 49 00
        E 0 80 61 00
        E 120 90 31 68
        E 0 90 49 68
        E 0 90 61 68
        E 120 80 31 00
        E 0 80 49 00
        E 0 80 61 00
        E 120 90 61 68
        E 0 90 19 68
        E 0 90 31 68
        E 0 90 49 68
        E 120 80 61 00
        E 0 80 19 00
        E 0 80 31 00
        E 0 80 49 00
        E 120 90 61 68
        E 0 90 31 68
        E 0 90 49 68
        E 120 80 61 00
        E 0 80 31 00
        E 0 80 49 00
        E 120 90 61 68
        E 0 90 19 68
        E 0 90 31 68
        E 0 90 49 68
        E 120 80 61 00
        E 0 80 19 00
        E 0 80 31 00
        E 0 80 49 00
        E 120 90 61 68
        E 0 90 31 68
        E 0 90 49 68
        E 120 80 61 00
        E 0 80 31 00
        E 0 80 49 00
        E 120 90 19 68
        E 0 90 31 68
        E 0 90 49 68
        E 0 90 61 68
        E 0 90 74 64
        E 120 80 19 00
        E 0 80 31 00
        E 0 80 49 00
        E 0 80 61 00
        E 120 90 31 68
        E 0 90 49 68
        E 0 90 61 68
        E 120 80 31 00
        E 0 80 49 00
        E 0 80 61 00
        E 120 90 19 68
        E 0 90 31 68
        E 0 90 49 68
        E 0 90 61 68
        E 120 80 19 00
        E 0 80 31 00
        E 0 80 49 00
        E 0 80 61 00
        E 120 90 31 68
        E 0 90 49 68
        E 0 90 61 68
        E 120 80 31 00
        E 0 80 49 00
        E 0 80 61 00
        E 120 90 19 68
        E 0 90 31 68
        E 0 90 49 68
        E 0 90 61 68
        E 120 80 19 00
        E 0 80 31 00
        E 0 80 49 00
        E 0 80 61 00
        E 120 90 61 68
        E 0 90 31 68
        E 0 90 49 68
        E 120 80 61 00
        E 0 80 31 00
        E 0 80 49 00
        E 120 90 61 68
        E 0 90 31 68
        E 0 90 49 68
        E 120 80 61 00
        E 0 80 31 00
        E 0 80 49 00
        E 120 90 61 68
        E 0 90 67 64
        E 0 90 49 68
        E 0 90 4f 64
        E 120 80 49 00
        E 0 80 4f 00
        E 60 80 61 00
        E 0 80 67 00
        E 60 90 61 64
        E 0 90 19 64
        E 0 90 31 64
        E 0 90 49 64
        E 120 80 74 00
        E 0 80 61 00
        E 0 80 19 00
        E 0 80 31 00
        E 0 80 49 00
        E 120 90 31 64
        E 0 90 49 64
        E 0 90 61 64
        E 120 80 31 00
        E 0 80 49 00
        E 0 80 61 00
        E 120 90 19 64
        E 0 90 31 64
        E 0 90 49 64
        E 0 90 61 64
        E 120 80 19 00
        E 0 80 31 00
        E 0 80 49 00
        E 0 80 61 00
        E 120 90 31 64
        E 0 90 49 64
        E 0 90 61 64
        E 120 80 31 00
        E 0 80 49 00
        E 0 80 61 00
        E 120 90 19 64
        E 0 90 31 64
        E 0 90 49 64
        E 0 90 61 64
        E 120 80 19 00
        E 0 80 31 00
        E 0 80 49 00
        E 0 80 61 00
        E 120 90 31 64
        E 0 90 49 64
        E 0 90 61 64
        E 120 80 31 00
        E 0 80 49 00
        E 0 80 61 00
        E 120 90 19 64
        E 0 90 31 64
        E 0 90 49 64
        E 0 90 61 64
        E 120 80 19 00
        E 0 80 31 00
        E 0 80 49 00
        E 0 80 61 00
        E 120 90 61 64
        E 0 90 31 64
        E 0 90 49 64
        E 120 80 61 00
        E 0 80 31 00
        E 0 80 49 00
        E 120 90 61 64
        E 0 90 19 64
        E 0 90 31 64
        E 0 90 49 64
        E 120 80 61 00
        E 0 80 19 00
        E 0 80 31 00
        E 0 80 49 00
        E 120 90 61 64
        E 0 90 31 64
        E 0 90 49 64
        E 120 80 61 00
        E 0 80 31 00
        E 0 80 49 00
        E 120 90 19 64
        E 0 90 31 64
        E 0 90 49 64
        E 0 90 61 64
        E 120 80 19 00
        E 0 80 31 00
        E 0 80 49 00
        E 0 80 61 00
        E 120 90 31 64
        E 0 90 49 64
        E 0 90 61 64
        E 120 80 31 00
        E 0 80 49 00
        E 0 80 61 00
        E 120 90 19 64
        E 0 90 31 64
        E 0 90 49 64
        E 0 90 61 64
        E 120 80 19 00
        E 0 80 31 00
        E 0 80 49 00
        E 0 80 61 00
        E 120 90 31 64
        E 0 90 49 64
        E 0 90 61 64
        E 120 80 31 00
        E 0 80 49 00
        E 0 80 61 00
        E 120 90 31 64
        E 0 90 49 64
        E 0 90 61 64
        E 120 80 31 00
        E 0 80 49 00
        E 0 80 61 00
        E 120 90 49 64
        E 0 90 61 64
        E 120 80 49 00
        E 0 80 61 00
        E 120 90 61 66
        E 0 90 19 66
        E 0 90 31 66
        E 0 90 49 66
        E 120 80 61 00
        E 0 80 19 00
        E 0 80 31 00
        E 0 80 49 00
        E 120 90 61 66
        E 0 90 31 66
        E 0 90 49 66
        E 120 80 61 00
        E 0 80 31 00
        E 0 80 49 00
        E 120 90 61 66
        E 0 90 19 66
        E 0 90 31 66
        E 0 90 49 66
        E 120 80 61 00
        E 0 80 19 00
        E 0 80 31 00
        E 0 80 49 00
        E 120 90 31 66
        E 0 90 49 66
        E 0 90 61 66
        E 120 80 31 00
        E 0 80 49 00
        E 0 80 61 00
        E 120 90 61 66
        E 0 90 19 66
        E 0 90 31 66
        E 0 90 49 66
        E 120 80 61 00
        E 0 80 19 00
        E 0 80 31 00
        E 0 80 49 00
        E 120 90 31 66
        E 0 90 49 66
        E 0 90 61 66
        E 120 80 31 00
        E 0 80 49 00
        E 0 80 61 00
        E 120 90 31 66
        E 0 90 49 66
        E 0 90 61 66
        E 120 80 31 00
        E 0 80 49 00
        E 0 80 61 00
        E 120 90 49 66
        E 0 90 61 66
        E 120 80 49 00
        E 0 80 61 00
        E 120 90 19 64
        E 0 90 31 64
        E 0 90 49 64
        E 0 90 61 64
        E 120 80 19 00
        E 0 80 31 00
        E 0 80 49 00
        E 0 80 61 00
        E 120 90 31 64
        E 0 90 49 64
        E 0 90 61 64
        E 120 80 31 00
        E 0 80 49 00
        E 0 80 61 00
        E 120 90 19 64
        E 0 90 31 64
        E 0 90 49 64
        E 0 90 61 64
        E 120 80 19 00
        E 0 80 31 00
        E 0 80 49 00
        E 0 80 61 00
        E 120 90 31 64
        E 0 90 49 64
        E 0 90 61 64
        E 120 80 31 00
        E 0 80 49 00
        E 0 80 61 00
        E 120 90 19 64
        E 0 90 31 64
        E 0 90 49 64
        E 0 90 61 64
        E 120 80 19 00
        E 0 80 31 00
        E 0 80 49 00
        E 0 80 61 00
        E 120 90 31 64
        E 0 90 49 64
        E 0 90 61 64
        E 120 80 31 00
        E 0 80 49 00
        E 0 80 61 00
        E 120 90 31 64
        E 0 90 49 64
        E 0 90 61 64
        E 120 80 31 00
        E 0 80 49 00
        E 0 80 61 00
        E 120 90 49 64
        E 0 90 61 64
        E 120 80 49 00
        E 0 80 61 00
        E 120 90 19 66
        E 0 90 31 66
        E 0 90 49 66
        E 0 90 61 66
        E 120 80 19 00
        E 0 80 31 00
        E 0 80 49 00
        E 0 80 61 00
        E 120 90 31 66
        E 0 90 49 66
        E 0 90 61 66
        E 120 80 31 00
        E 0 80 49 00
        E 0 80 61 00
        E 120 90 19 66
        E 0 90 31 66
        E 0 90 49 66
        E 0 90 61 66
        E 120 80 19 00
        E 0 80 31 00
        E 0 80 49 00
        E 0 80 61 00
        E 120 90 31 66
        E 0 90 49 66
        E 0 90 61 66
        E 120 80 31 00
        E 0 80 49 00
        E 0 80 61 00
        E 120 90 19 66
        E 0 90 31 66
        E 0 90 49 66
        E 0 90 61 66
        E 120 80 19 00
        E 0 80 31 00
        E 0 80 49 00
        E 0 80 61 00
        E 120 90 31 66
        E 0 90 49 66
        E 0 90 61 66
        E 120 80 31 00
        E 0 80 49 00
        E 0 80 61 00
        E 120 90 31 66
        E 0 90 49 66
        E 0 90 61 66
        E 120 80 31 00
        E 0 80 49 00
        E 0 80 61 00
        E 120 90 49 66
        E 0 90 61 66
        E 120 80 49 00
        E 0 80 61 00
        E 120 90 19 64
        E 0 90 31 64
        E 0 90 49 64
        E 0 90 61 64
        E 2400 80 19 00
        E 0 80 31 00
        E 0 80 49 00
        E 0 80 61 00
        E 1440 90 18 68
        E 0 90 30 68
        E 0 90 48 68
        E 0 90 60 68
        E 480 80 18 00
        E 0 80 30 00
        E 360 80 48 00
        E 0 80 60 00
        E 120 90 60 68
        E 0 90 18 68
        E 0 90 30 68
        E 0 90 48 68
        E 480 80 18 00
        E 0 80 30 00
        E 360 80 60 00
        E 0 80 48 00
        E 120 90 18 68
        E 0 90 30 68
        E 0 90 48 68
        E 0 90 60 68
        E 120 80 18 00
        E 0 80 30 00
        E 480 80 48 00
        E 0 80 60 00
        E 120 90 61 66
        E 0 90 67 64
        E 0 90 31 66
        E 0 90 49 66
        E 0 90 4f 64
        E 120 80 61 00
        E 0 80 67 00
        E 0 80 31 00
        E 0 80 49 00
        E 0 80 4f 00
        E 120 90 19 68
        E 0 90 1e 64
        E 0 90 31 68
        E 0 90 36 64
        E 0 90 49 68
        E 0 90 4e 64
        E 0 90 61 68
        E 0 90 66 64
        E 120 80 19 00
        E 0 80 1e 00
        E 0 80 31 00
        E 0 80 36 00
        E 0 80 49 00
        E 0 80 4e 00
        E 0 80 61 00
        E 0 80 66 00
        E 360 90 30 69
        E 0 90 48 69
        E 0 90 60 69
        E 120 80 30 00
        E 0 80 48 00
        E 0 80 60 00
        E 360 90 18 68
        E 0 90 30 68
        E 0 90 48 68
        E 0 90 60 68
        E 480 80 18 00
        E 0 80 30 00
        E 360 80 48 00
        E 0 80 60 00
        E 120 90 18 68
        E 0 90 30 68
        E 0 90 48 68
        E 0 90 60 68
        E 480 80 18 00
        E 0 80 30 00
        E 360 80 48 00
        E 0 80 60 00
        E 120 90 18 68
        E 0 90 30 68
        E 0 90 48 68
        E 0 90 60 68
        E 120 80 18 00
        E 0 80 30 00
        E 480 80 48 00
        E 0 80 60 00
        E 120 90 31 66
        E 0 90 49 66
        E 0 90 4f 64
        E 0 90 61 66
        E 0 90 67 64
        E 120 80 31 00
        E 0 80 49 00
        E 0 80 4f 00
        E 0 80 61 00
        E 0 80 67 00
        E 120 90 19 68
        E 0 90 1e 64
        E 0 90 31 68
        E 0 90 36 64
        E 0 90 49 68
        E 0 90 4e 64
        E 0 90 61 68
        E 0 90 66 64
        E 120 80 19 00
        E 0 80 1e 00
        E 0 80 31 00
        E 0 80 36 00
        E 0 80 49 00
        E 0 80 4e 00
        E 0 80 61 00
        E 0 80 66 00
        E 360 90 30 69
        E 0 90 48 69
        E 0 90 60 69
        E 120 80 30 00
        E 0 80 48 00
        E 0 80 60 00
        E 360 90 18 68
        E 0 90 30 68
        E 0 90 48 68
        E 0 90 60 68
        E 480 80 18 00
        E 0 80 30 00
        E 360 80 48 00
        E 0 80 60 00
        E 120 90 18 68
        E 0 90 30 68
        E 0 90 48 68
        E 0 90 60 68
        E 480 80 18 00
        E 0 80 30 00
        E 360 80 48 00
        E 0 80 60 00
        E 120 90 60 68
        E 0 90 18 68
        E 0 90 30 68
        E 0 90 48 68
        E 120 80 18 00
        E 0 80 30 00
        E 480 80 60 00
        E 0 80 48 00
        E 120 90 31 66
        E 0 90 49 66
        E 0 90 4f 64
        E 0 90 61 66
        E 0 90 67 64
        E 120 80 31 00
        E 0 80 49 00
        E 0 80 4f 00
        E 0 80 61 00
        E 0 80 67 00
        E 120 90 61 68
        E 0 90 66 64
        E 0 90 19 68
        E 0 90 1e 64
        E 0 90 31 68
        E 0 90 36 64
        E 0 90 49 68
        E 0 90 4e 64
        E 120 80 61 00
        E 0 80 66 00
        E 0 80 19 00
        E 0 80 1e 00
        E 0 80 31 00
        E 0 80 36 00
        E 0 80 49 00
        E 0 80 4e 00
        E 360 90 30 69
        E 0 90 48 69
        E 0 90 60 69
        E 120 80 30 00
        E 0 80 48 00
        E 0 80 60 00
        E 360 90 18 68
        E 0 90 30 68
        E 0 90 48 68
        E 0 90 60 68
        E 480 80 18 00
        E 0 80 30 00
        E 360 80 48 00
        E 0 80 60 00
        E 120 90 18 68
        E 0 90 30 68
        E 0 90 48 68
        E 0 90 60 68
        E 480 80 18 00
        E 0 80 30 00
        E 360 80 48 00
        E 0 80 60 00
        E 120 90 18 68
        E 0 90 30 68
        E 0 90 48 68
        E 0 90 60 68
        E 0 90 74 64
        E 120 80 18 00
        E 0 80 30 00
        E 480 80 48 00
        E 0 80 60 00
        E 120 90 31 66
        E 0 90 49 66
        E 0 90 4f 64
        E 0 90 61 66
        E 0 90 67 64
        E 120 80 31 00
        E 0 80 49 00
        E 0 80 4f 00
        E 0 80 61 00
        E 0 80 67 00
        E 120 90 19 68
        E 0 90 1e 64
        E 0 90 31 68
        E 0 90 36 64
        E 0 90 49 68
        E 0 90 4e 64
        E 0 90 61 68
        E 0 90 66 64
        E 120 80 19 00
        E 0 80 1e 00
        E 0 80 31 00
        E 0 80 36 00
        E 0 80 49 00
        E 0 80 4e 00
        E 0 80 61 00
        E 0 80 66 00
        E 360 90 60 69
        E 0 90 30 69
        E 0 90 48 69
        E 120 80 60 00
        E 0 80 30 00
        E 0 80 48 00
        E 120 90 48 66
        E 0 90 60 66
        E 120 80 48 00
        E 0 80 60 00
        E 120 90 18 68
        E 0 90 30 68
        E 0 90 48 68
        E 0 90 60 68
        E 120 80 74 00
        E 360 80 18 00
        E 0 80 30 00
        E 120 80 48 00
        E 0 80 60 00
        E 120 90 48 66
        E 0 90 60 66
        E 120 80 48 00
        E 0 80 60 00
        E 120 90 18 68
        E 0 90 30 68
        E 0 90 48 68
        E 0 90 60 68
        E 480 80 18 00
        E 0 80 30 00
        E 120 80 48 00
        E 0 80 60 00
        E 120 90 48 66
        E 0 90 60 66
        E 120 80 48 00
        E 0 80 60 00
        E 120 90 18 68
        E 0 90 30 68
        E 0 90 48 68
        E 0 90 60 68
        E 120 80 18 00
        E 0 80 30 00
        E 480 80 48 00
        E 0 80 60 00
        E 120 90 31 66
        E 0 90 49 66
        E 0 90 4f 64
        E 0 90 61 66
        E 0 90 67 64
        E 120 80 31 00
        E 0 80 49 00
        E 0 80 4f 00
        E 0 80 61 00
        E 0 80 67 00
        E 120 90 61 68
        E 0 90 66 64
        E 0 90 19 68
        E 0 90 1e 64
        E 0 90 31 68
        E 0 90 36 64
        E 0 90 49 68
        E 0 90 4e 64
        E 120 80 61 00
        E 0 80 66 00
        E 0 80 19 00
        E 0 80 1e 00
        E 0 80 31 00
        E 0 80 36 00
        E 0 80 49 00
        E 0 80 4e 00
        E 360 90 30 69
        E 0 90 48 69
        E 0 90 60 69
        E 120 80 30 00
        E 0 80 48 00
        E 0 80 60 00
        E 360 90 18 68
        E 0 90 30 68
        E 0 90 48 68
        E 0 90 60 68
        E 480 80 18 00
        E 0 80 30 00
        E 120 80 48 00
        E 0 80 60 00
        E 120 90 60 66
        E 0 90 48 66
        E 120 80 60 00
        E 0 80 48 00
        E 120 90 60 68
        E 0 90 18 68
        E 0 90 30 68
        E 0 90 48 68
        E 480 80 18 00
        E 0 80 30 00
        E 120 80 60 00
        E 0 80 48 00
        E 120 90 60 66
        E 0 90 48 66
        E 120 80 60 00
        E 0 80 48 00
        E 120 90 60 68
        E 0 90 18 68
        E 0 90 30 68
        E 0 90 48 68
        E 120 80 18 00
        E 0 80 30 00
        E 480 80 60 00
        E 0 80 48 00
        E 120 90 61 66
        E 0 90 67 64
        E 0 90 31 66
        E 0 90 49 66
        E 0 90 4f 64
        E 120 80 61 00
        E 0 80 67 00
        E 0 80 31 00
        E 0 80 49 00
        E 0 80 4f 00
        E 120 90 61 68
        E 0 90 66 64
        E 0 90 19 68
        E 0 90 1e 64
        E 0 90 31 68
        E 0 90 36 64
        E 0 90 49 68
        E 0 90 4e 64
        E 120 80 61 00
        E 0 80 66 00
        E 0 80 19 00
        E 0 80 1e 00
        E 0 80 31 00
        E 0 80 36 00
        E 0 80 49 00
        E 0 80 4e 00
        E 360 90 60 69
        E 0 90 30 69
        E 0 90 48 69
        E 120 80 60 00
        E 0 80 30 00
        E 0 80 48 00
        E 120 90 60 66
        E 0 90 48 66
        E 120 80 60 00
        E 0 80 48 00
        E 120 90 60 68
        E 0 90 18 68
        E 0 90 30 68
        E 0 90 48 68
        E 480 80 18 00
        E 0 80 30 00
        E 120 80 60 00
        E 0 80 48 00
        E 120 90 48 66
        E 0 90 60 66
        E 120 80 48 00
        E 0 80 60 00
        E 120 90 60 68
        E 0 90 18 68
        E 0 90 30 68
        E 0 90 48 68
        E 480 80 18 00
        E 0 80 30 00
        E 120 80 60 00
        E 0 80 48 00
        E 120 90 48 66
        E 0 90 60 66
        E 120 80 48 00
        E 0 80 60 00
        E 120 90 60 68
        E 0 90 18 68
        E 0 90 30 68
        E 0 90 48 68
        E 120 80 18 00
        E 0 80 30 00
        E 480 80 60 00
        E 0 80 48 00
        E 120 90 61 66
        E 0 90 67 64
        E 0 90 31 66
        E 0 90 49 66
        E 0 90 4f 64
        E 120 80 61 00
        E 0 80 67 00
        E 0 80 31 00
        E 0 80 49 00
        E 0 80 4f 00
        E 120 90 19 68
        E 0 90 1e 64
        E 0 90 31 68
        E 0 90 36 64
        E 0 90 49 68
        E 0 90 4e 64
        E 0 90 61 68
        E 0 90 66 64
        E 120 80 19 00
        E 0 80 1e 00
        E 0 80 31 00
        E 0 80 36 00
        E 0 80 49 00
        E 0 80 4e 00
        E 0 80 61 00
        E 0 80 66 00
        E 360 90 30 69
        E 0 90 48 69
        E 0 90 60 69
        E 120 80 30 00
        E 0 80 48 00
        E 0 80 60 00
        E 120 90 60 66
        E 0 90 48 66
        E 120 80 60 00
        E 0 80 48 00
        E 120 90 18 68
        E 0 90 30 68
        E 0 90 48 68
        E 0 90 60 68
        E 480 80 18 00
        E 0 80 30 00
        E 120 80 48 00
        E 0 80 60 00
        E 120 90 60 66
        E 0 90 48 66
        E 120 80 60 00
        E 0 80 48 00
        E 120 90 60 68
        E 0 90 18 68
        E 0 90 30 68
        E 0 90 48 68
        E 480 80 18 00
        E 0 80 30 00
        E 120 80 60 00
        E 0 80 48 00
        E 120 90 48 66
        E 0 90 60 66
        E 120 80 48 00
        E 0 80 60 00
        E 120 90 60 68
        E 0 90 18 68
        E 0 90 30 68
        E 0 90 48 68
        E 120 80 18 00
        E 0 80 30 00
        E 480 80 60 00
        E 0 80 48 00
        E 120 90 61 66
        E 0 90 67 64
        E 0 90 31 66
        E 0 90 49 66
        E 0 90 4f 64
        E 120 80 61 00
        E 0 80 67 00
        E 0 80 31 00
        E 0 80 49 00
        E 0 80 4f 00
        E 120 90 19 68
        E 0 90 1e 64
        E 0 90 31 68
        E 0 90 36 64
        E 0 90 49 68
        E 0 90 4e 64
        E 0 90 61 68
        E 0 90 66 64
        E 120 80 19 00
        E 0 80 1e 00
        E 0 80 31 00
        E 0 80 36 00
        E 0 80 49 00
        E 0 80 4e 00
        E 0 80 61 00
        E 0 80 66 00
        E 360 90 30 68
        E 0 90 48 68
        E 0 90 60 68
        E 120 80 30 00
        E 0 80 48 00
        E 0 80 60 00
        E 360 90 18 69
        E 0 90 30 69
        E 0 90 48 69
        E 0 90 60 69
        E 2160 80 18 00
        E 0 80 30 00
        E 240 80 48 00
        E 0 80 60 00
        E 240 90 31 66
        E 0 90 49 66
        E 0 90 4f 64
        E 0 90 61 66
        E 0 90 67 64
        E 0 90 74 64
        E 120 80 31 00
        E 0 80 49 00
        E 0 80 4f 00
        E 0 80 61 00
        E 0 80 67 00
        E 120 90 61 68
        E 0 90 66 64
        E 0 90 19 68
        E 0 90 1e 64
        E 0 90 31 68
        E 0 90 36 64
        E 0 90 49 68
        E 0 90 4e 64
        E 120 80 61 00
        E 0 80 66 00
        E 0 80 19 00
        E 0 80 1e 00
        E 0 80 31 00
        E 0 80 36 00
        E 0 80 49 00
        E 0 80 4e 00
        E 360 90 61 64
        E 0 90 31 64
        E 0 90 49 64
        E 120 80 61 00
        E 0 80 31 00
        E 0 80 49 00
        E 360 90 61 66
        E 0 90 19 66
        E 0 90 31 66
        E 0 90 49 66
        E 120 80 74 00
        E 3240 80 61 00
        E 0 80 19 00
        E 0 80 31 00
        E 0 80 49 00
        E 480 90 61 68
        E 0 90 19 68
        E 0 90 31 68
        E 0 90 49 68
        E 120 80 61 00
        E 0 80 19 00
        E 0 80 31 00
        E 0 80 49 00
        E 120 90 61 68
        E 0 90 31 68
        E 0 90 49 68
        E 120 80 61 00
        E 0 80 31 00
        E 0 80 49 00
        E 120 90 19 68
        E 0 90 31 68
        E 0 90 49 68
        E 0 90 61 68
        E 120 80 19 00
        E 0 80 31 00
        E 0 80 49 00
        E 0 80 61 00
        E 120 90 61 68
        E 0 90 31 68
        E 0 90 49 68
        E 120 80 61 00
        E 0 80 31 00
        E 0 80 49 00
        E 120 90 19 68
        E 0 90 31 68
        E 0 90 49 68
        E 0 90 61 68
        E 120 80 19 00
        E 0 80 31 00
        E 0 80 49 00
        E 0 80 61 00
        E 120 90 61 68
        E 0 90 31 68
        E 0 90 49 68
        E 120 80 61 00
        E 0 80 31 00
        E 0 80 49 00
        E 120 90 19 68
        E 0 90 31 68
        E 0 90 49 68
        E 0 90 61 68
        E 120 80 19 00
        E 0 80 31 00
        E 0 80 49 00
        E 0 80 61 00
        E 120 90 31 68
        E 0 90 49 68
        E 0 90 61 68
        E 120 80 31 00
        E 0 80 49 00
        E 0 80 61 00
        E 120 90 19 68
        E 0 90 31 68
        E 0 90 49 68
        E 0 90 61 68
        E 120 80 19 00
        E 0 80 31 00
        E 0 80 49 00
        E 0 80 61 00
        E 120 90 61 68
        E 0 90 31 68
        E 0 90 49 68
        E 120 80 61 00
        E 0 80 31 00
        E 0 80 49 00
        E 120 90 61 68
        E 0 90 19 68
        E 0 90 31 68
        E 0 90 49 68
        E 120 80 61 00
        E 0 80 19 00
        E 0 80 31 00
        E 0 80 49 00
        E 120 90 31 68
        E 0 90 49 68
        E 0 90 61 68
        E 120 80 31 00
        E 0 80 49 00
        E 0 80 61 00
        E 120 90 61 68
        E 0 90 19 68
        E 0 90 31 68
        E 0 90 49 68
        E 120 80 61 00
        E 0 80 19 00
        E 0 80 31 00
        E 0 80 49 00
        E 120 90 31 68
        E 0 90 49 68
        E 0 90 61 68
        E 120 80 31 00
        E 0 80 49 00
        E 0 80 61 00
        E 120 90 31 68
        E 0 90 49 68
        E 0 90 61 68
        E 120 80 31 00
        E 0 80 49 00
        E 0 80 61 00
        E 120 90 49 68
        E 0 90 61 68
        E 120 80 49 00
        E 0 80 61 00
        E 120 90 61 64
        E 0 90 19 64
        E 0 90 31 64
        E 0 90 49 64
        E 120 80 61 00
        E 0 80 19 00
        E 0 80 31 00
        E 0 80 49 00
        E 120 90 31 64
        E 0 90 49 64
        E 0 90 61 64
        E 120 80 31 00
        E 0 80 49 00
        E 0 80 61 00
        E 120 90 19 64
        E 0 90 31 64
        E 0 90 49 64
        E 0 90 61 64
        E 120 80 19 00
        E 0 80 31 00
        E 0 80 49 00
        E 0 80 61 00
        E 120 90 61 64
        E 0 90 31 64
        E 0 90 49 64
        E 120 80 61 00
        E 0 80 31 00
        E 0 80 49 00
        E 120 90 19 64
        E 0 90 31 64
        E 0 90 49 64
        E 0 90 61 64
        E 120 80 19 00
        E 0 80 31 00
        E 0 80 49 00
        E 0 80 61 00
        E 120 90 61 64
        E 0 90 31 64
        E 0 90 49 64
        E 120 80 61 00
        E 0 80 31 00
        E 0 80 49 00
        E 120 90 19 64
        E 0 90 31 64
        E 0 90 49 64
        E 0 90 61 64
        E 120 80 19 00
        E 0 80 31 00
        E 0 80 49 00
        E 0 80 61 00
        E 120 90 61 64
        E 0 90 31 64
        E 0 90 49 64
        E 120 80 61 00
        E 0 80 31 00
        E 0 80 49 00
        E 120 90 19 64
        E 0 90 31 64
        E 0 90 49 64
        E 0 90 61 64
        E 120 80 19 00
        E 0 80 31 00
        E 0 80 49 00
        E 0 80 61 00
        E 120 90 31 64
        E 0 90 49 64
        E 0 90 61 64
        E 120 80 31 00
        E 0 80 49 00
        E 0 80 61 00
        E 120 90 19 64
        E 0 90 31 64
        E 0 90 49 64
        E 0 90 61 64
        E 120 80 19 00
        E 0 80 31 00
        E 0 80 49 00
        E 0 80 61 00
        E 120 90 61 64
        E 0 90 31 64
        E 0 90 49 64
        E 120 80 61 00
        E 0 80 31 00
        E 0 80 49 00
        E 120 90 61 64
        E 0 90 19 64
        E 0 90 31 64
        E 0 90 49 64
        E 120 80 61 00
        E 0 80 19 00
        E 0 80 31 00
        E 0 80 49 00
        E 120 90 31 64
        E 0 90 49 64
        E 0 90 61 64
        E 120 80 31 00
        E 0 80 49 00
        E 0 80 61 00
        E 120 90 61 64
        E 0 90 31 64
        E 0 90 49 64
        E 120 80 61 00
        E 0 80 31 00
        E 0 80 49 00
        E 120 90 49 66
        E 0 90 4f 64
        E 0 90 61 66
        E 0 90 67 64
        E 120 80 49 00
        E 0 80 4f 00
        E 60 80 61 00
        E 0 80 67 00
        E 60 90 61 68
        E 0 90 19 68
        E 0 90 31 68
        E 0 90 49 68
        E 120 80 61 00
        E 0 80 19 00
        E 0 80 31 00
        E 0 80 49 00
        E 120 90 31 68
        E 0 90 49 68
        E 0 90 61 68
        E 120 80 31 00
        E 0 80 49 00
        E 0 80 61 00
        E 120 90 61 68
        E 0 90 19 68
        E 0 90 31 68
        E 0 90 49 68
        E 120 80 61 00
        E 0 80 19 00
        E 0 80 31 00
        E 0 80 49 00
        E 120 90 31 68
        E 0 90 49 68
        E 0 90 61 68
        E 120 80 31 00
        E 0 80 49 00
        E 0 80 61 00
        E 120 90 19 68
        E 0 90 31 68
        E 0 90 49 68
        E 0 90 61 68
        E 120 80 19 00
        E 0 80 31 00
        E 0 80 49 00
        E 0 80 61 00
        E 120 90 61 68
        E 0 90 31 68
        E 0 90 49 68
        E 120 80 61 00
        E 0 80 31 00
        E 0 80 49 00
        E 120 90 19 68
        E 0 90 31 68
        E 0 90 49 68
        E 0 90 61 68
        E 120 80 19 00
        E 0 80 31 00
        E 0 80 49 00
        E 0 80 61 00
        E 120 90 61 68
        E 0 90 31 68
        E 0 90 49 68
        E 120 80 61 00
        E 0 80 31 00
        E 0 80 49 00
        E 120 90 19 68
        E 0 90 31 68
        E 0 90 49 68
        E 0 90 61 68
        E 120 80 19 00
        E 0 80 31 00
        E 0 80 49 00
        E 0 80 61 00
        E 120 90 61 68
        E 0 90 31 68
        E 0 90 49 68
        E 120 80 61 00
        E 0 80 31 00
        E 0 80 49 00
        E 120 90 19 68
        E 0 90 31 68
        E 0 90 49 68
        E 0 90 61 68
        E 120 80 19 00
        E 0 80 31 00
        E 0 80 49 00
        E 0 80 61 00
        E 120 90 31 68
        E 0 90 49 68
        E 0 90 61 68
        E 120 80 31 00
        E 0 80 49 00
        E 0 80 61 00
        E 120 90 19 68
        E 0 90 31 68
        E 0 90 49 68
        E 0 90 61 68
        E 120 80 19 00
        E 0 80 31 00
        E 0 80 49 00
        E 0 80 61 00
        E 120 90 61 68
        E 0 90 31 68
        E 0 90 49 68
        E 120 80 61 00
        E 0 80 31 00
        E 0 80 49 00
        E 120 90 61 68
        E 0 90 31 68
        E 0 90 49 68
        E 120 80 61 00
        E 0 80 31 00
        E 0 80 49 00
        E 120 90 49 68
        E 0 90 61 68
        E 120 80 49 00
        E 0 80 61 00
        E 120 90 61 64
        E 0 90 19 64
        E 0 90 31 64
        E 0 90 49 64
        E 120 80 61 00
        E 0 80 19 00
        E 0 80 31 00
        E 0 80 49 00
        E 120 90 31 64
        E 0 90 49 64
        E 0 90 61 64
        E 120 80 31 00
        E 0 80 49 00
        E 0 80 61 00
        E 120 90 61 64
        E 0 90 19 64
        E 0 90 31 64
        E 0 90 49 64
        E 120 80 61 00
        E 0 80 19 00
        E 0 80 31 00
        E 0 80 49 00
        E 120 90 31 64
        E 0 90 49 64
        E 0 90 61 64
        E 120 80 31 00
        E 0 80 49 00
        E 0 80 61 00
        E 120 90 61 64
        E 0 90 19 64
        E 0 90 31 64
        E 0 90 49 64
        E 120 80 61 00
        E 0 80 19 00
        E 0 80 31 00
        E 0 80 49 00
        E 120 90 31 64
        E 0 90 49 64
        E 0 90 61 64
        E 120 80 31 00
        E 0 80 49 00
        E 0 80 61 00
        E 120 90 19 64
        E 0 90 31 64
        E 0 90 49 64
        E 0 90 61 64
        E 120 80 19 00
        E 0 80 31 00
        E 0 80 49 00
        E 0 80 61 00
        E 120 90 31 64
        E 0 90 49 64
        E 0 90 61 64
        E 120 80 31 00
        E 0 80 49 00
        E 0 80 61 00
        E 120 90 19 64
        E 0 90 31 64
        E 0 90 49 64
        E 0 90 61 64
        E 120 80 19 00
        E 0 80 31 00
        E 0 80 49 00
        E 0 80 61 00
        E 120 90 31 64
        E 0 90 49 64
        E 0 90 61 64
        E 120 80 31 00
        E 0 80 49 00
        E 0 80 61 00
        E 120 90 19 64
        E 0 90 31 64
        E 0 90 49 64
        E 0 90 61 64
        E 120 80 19 00
        E 0 80 31 00
        E 0 80 49 00
        E 0 80 61 00
        E 120 90 31 64
        E 0 90 49 64
        E 0 90 61 64
        E 120 80 31 00
        E 0 80 49 00
        E 0 80 61 00
        E 120 90 19 64
        E 0 90 31 64
        E 0 90 49 64
        E 0 90 61 64
        E 120 80 19 00
        E 0 80 31 00
        E 0 80 49 00
        E 0 80 61 00
        E 120 90 31 64
        E 0 90 49 64
        E 0 90 61 64
        E 120 80 31 00
        E 0 80 49 00
        E 0 80 61 00
        E 120 90 61 64
        E 0 90 31 64
        E 0 90 49 64
        E 120 80 61 00
        E 0 80 31 00
        E 0 80 49 00
        E 120 90 61 64
        E 0 90 49 64
        E 120 80 61 00
        E 0 80 49 00
        E 120 90 61 66
        E 0 90 74 64
        E 0 90 19 66
        E 0 90 31 66
        E 0 90 49 66
        E 120 80 61 00
        E 0 80 19 00
        E 0 80 31 00
        E 0 80 49 00
        E 120 90 31 66
        E 0 90 49 66
        E 0 90 61 66
        E 120 80 31 00
        E 0 80 49 00
        E 0 80 61 00
        E 120 90 61 66
        E 0 90 19 66
        E 0 90 31 66
        E 0 90 49 66
        E 120 80 61 00
        E 0 80 19 00
        E 0 80 31 00
        E 0 80 49 00
        E 120 90 31 66
        E 0 90 49 66
        E 0 90 61 66
        E 120 80 31 00
        E 0 80 49 00
        E 0 80 61 00
        E 120 90 61 66
        E 0 90 19 66
        E 0 90 31 66
        E 0 90 49 66
        E 120 80 61 00
        E 0 80 19 00
        E 0 80 31 00
        E 0 80 49 00
        E 120 90 31 66
        E 0 90 49 66
        E 0 90 61 66
        E 120 80 31 00
        E 0 80 49 00
        E 0 80 61 00
        E 120 90 61 66
        E 0 90 31 66
        E 0 90 49 66
        E 120 80 61 00
        E 0 80 31 00
        E 0 80 49 00
        E 120 90 49 66
        E 0 90 61 66
        E 120 80 49 00
        E 0 80 61 00
        E 120 90 19 64
        E 0 90 31 64
        E 0 90 49 64
        E 0 90 61 64
        E 120 80 19 00
        E 0 80 31 00
        E 0 80 49 00
        E 0 80 61 00
        E 120 90 31 64
        E 0 90 49 64
        E 0 90 61 64
        E 120 80 31 00
        E 0 80 49 00
        E 0 80 61 00
        E 120 90 19 64
        E 0 90 31 64
        E 0 90 49 64
        E 0 90 61 64
        E 120 80 19 00
        E 0 80 31 00
        E 0 80 49 00
        E 0 80 61 00
        E 120 90 61 64
        E 0 90 31 64
        E 0 90 49 64
        E 120 80 61 00
        E 0 80 31 00
        E 0 80 49 00
        E 120 90 19 64
        E 0 90 31 64
        E 0 90 49 64
        E 0 90 61 64
        E 120 80 19 00
        E 0 80 31 00
        E 0 80 49 00
        E 0 80 61 00
        E 120 90 61 64
        E 0 90 31 64
        E 0 90 49 64
        E 120 80 61 00
        E 0 80 31 00
        E 0 80 49 00
        E 120 90 31 64
        E 0 90 49 64
        E 0 90 61 64
        E 120 80 31 00
        E 0 80 49 00
        E 0 80 61 00
        E 120 90 49 64
        E 0 90 61 64
        E 120 80 49 00
        E 0 80 61 00
        E 120 90 19 66
        E 0 90 31 66
        E 0 90 49 66
        E 0 90 61 66
        E 120 80 74 00
        E 0 80 19 00
        E 0 80 31 00
        E 0 80 49 00
        E 0 80 61 00
        E 120 90 31 66
        E 0 90 49 66
        E 0 90 61 66
        E 120 80 31 00
        E 0 80 49 00
        E 0 80 61 00
        E 120 90 19 66
        E 0 90 31 66
        E 0 90 49 66
        E 0 90 61 66
        E 120 80 19 00
        E 0 80 31 00
        E 0 80 49 00
        E 0 80 61 00
        E 120 90 31 66
        E 0 90 49 66
        E 0 90 61 66
        E 120 80 31 00
        E 0 80 49 00
        E 0 80 61 00
        E 120 90 61 66
        E 0 90 19 66
        E 0 90 31 66
        E 0 90 49 66
        E 120 80 61 00
        E 0 80 19 00
        E 0 80 31 00
        E 0 80 49 00
        E 120 90 31 66
        E 0 90 49 66
        E 0 90 61 66
        E 120 80 31 00
        E 0 80 49 00
        E 0 80 61 00
        E 120 90 61 66
        E 0 90 31 66
        E 0 90 49 66
        E 120 80 61 00
        E 0 80 31 00
        E 0 80 49 00
        E 120 90 49 66
        E 0 90 61 66
        E 120 80 49 00
        E 0 80 61 00
        E 120 90 61 64
        E 0 90 19 64
        E 0 90 31 64
        E 0 90 49 64
        E 2400 80 61 00
        E 0 80 19 00
        E 0 80 31 00
        E 0 80 49 00
        E 16080 90 48 66
        E 0 90 60 66
        E 120 80 48 00
        E 0 80 60 00
        E 120 90 18 68
        E 0 90 30 68
        E 0 90 48 68
        E 0 90 60 68
        E 120 80 18 00
        E 0 80 30 00
        E 0 80 48 00
        E 0 80 60 00
        E 120 90 49 66
        E 0 90 61 66
        E 120 80 49 00
        E 0 80 61 00
        <X 120 0
          /wFbYmVnaW5fcGIgc29uZ190cmFpbmVyX3BiXzNd
        >
        E 0 90 19 68
        E 0 90 31 68
        E 0 90 49 68
        E 0 90 61 68
        E 120 80 19 00
        E 0 80 31 00
        E 0 80 49 00
        E 0 80 61 00
        E 120 90 61 68
        E 0 90 31 68
        E 0 90 49 68
        E 120 80 61 00
        E 0 80 31 00
        E 0 80 49 00
        E 360 90 31 68
        E 0 90 49 68
        E 0 90 61 68
        E 120 80 31 00
        E 0 80 49 00
        E 0 80 61 00
        E 120 90 19 68
        E 0 90 31 68
        E 0 90 49 68
        E 0 90 61 68
        E 120 80 19 00
        E 0 80 31 00
        E 0 80 49 00
        E 0 80 61 00
        E 120 90 31 68
        E 0 90 49 68
        E 0 90 61 68
        E 120 80 31 00
        E 0 80 49 00
        E 0 80 61 00
        E 360 90 31 68
        E 0 90 49 68
        E 0 90 61 68
        E 120 80 31 00
        E 0 80 49 00
        E 0 80 61 00
        <X 120 0
          /wFbcGJfbm9ybSBzb25nX3RyYWluZXJfcGJfM10=
        >
        E 240 90 19 68
        E 0 90 31 68
        E 0 90 49 68
        E 0 90 61 68
        E 120 80 19 00
        E 0 80 31 00
        E 0 80 49 00
        E 0 80 61 00
        E 360 90 31 68
        E 0 90 49 68
        E 0 90 61 68
        E 120 80 31 00
        E 0 80 49 00
        E 0 80 61 00
        E 120 90 61 68
        E 0 90 19 68
        E 0 90 31 68
        E 0 90 49 68
        E 120 80 61 00
        E 0 80 19 00
        E 0 80 31 00
        E 0 80 49 00
        E 120 90 49 68
        E 0 90 61 68
        E 120 80 49 00
        E 0 80 61 00
        E 120 90 30 66
        E 0 90 48 66
        E 0 90 60 66
        E 120 80 30 00
        E 0 80 48 00
        E 0 80 60 00
        E 120 90 48 68
        E 0 90 60 68
        E 120 80 48 00
        E 0 80 60 00
        E 120 90 18 69
        E 0 90 30 69
        E 0 90 48 69
        E 0 90 60 69
        E 120 80 18 00
        E 0 80 30 00
        E 0 80 48 00
        E 0 80 60 00
        E 120 90 30 69
        E 0 90 48 69
        E 0 90 60 69
        E 120 80 30 00
        E 0 80 48 00
        E 0 80 60 00
        E 360 90 60 69
        E 0 90 30 69
        E 0 90 48 69
        E 120 80 60 00
        E 0 80 30 00
        E 0 80 48 00
        E 120 90 18 69
        E 0 90 30 69
        E 0 90 48 69
        E 0 90 60 69
        E 120 80 18 00
        E 0 80 30 00
        E 0 80 48 00
        E 0 80 60 00
        E 120 90 30 69
        E 0 90 48 69
        E 0 90 60 69
        E 120 80 30 00
        E 0 80 48 00
        E 0 80 60 00
        E 360 90 60 69
        E 0 90 30 69
        E 0 90 48 69
        E 120 80 60 00
        E 0 80 30 00
        E 0 80 48 00
        E 360 90 18 69
        E 0 90 30 69
        E 0 90 48 69
        E 0 90 60 69
        E 120 80 18 00
        E 0 80 30 00
        E 0 80 48 00
        E 0 80 60 00
        E 360 90 30 69
        E 0 90 48 69
        E 0 90 60 69
        E 120 80 30 00
        E 0 80 48 00
        E 0 80 60 00
        E 120 90 18 69
        E 0 90 30 69
        E 0 90 48 69
        E 0 90 60 69
        E 120 80 18 00
        E 0 80 30 00
        E 0 80 48 00
        E 0 80 60 00
        E 120 90 48 69
        E 0 90 60 69
        E 120 80 48 00
        E 0 80 60 00
        E 120 90 60 68
        E 0 90 18 68
        E 0 90 30 68
        E 0 90 48 68
        E 120 80 60 00
        E 0 80 18 00
        E 0 80 30 00
        E 0 80 48 00
        E 120 90 48 64
        E 0 90 60 64
        E 120 80 48 00
        E 0 80 60 00
        <X 120 0
          /wFbZW5kX3BiIHNvbmdfdHJhaW5lcl9wYl8zXQ==
        >
        E 0 90 19 68
        E 0 90 31 68
        E 0 90 49 68
        E 0 90 61 68
        E 120 80 19 00
        E 0 80 31 00
        E 0 80 49 00
        E 0 80 61 00
        E 120 90 31 68
        E 0 90 49 68
        E 0 90 61 68
        E 120 80 31 00
        E 0 80 49 00
        E 0 80 61 00
        E 360 90 31 68
        E 0 90 49 68
        E 0 90 61 68
        E 120 80 31 00
        E 0 80 49 00
        E 0 80 61 00
        E 120 90 19 68
        E 0 90 31 68
        E 0 90 49 68
        E 0 90 61 68
        E 120 80 19 00
        E 0 80 31 00
        E 0 80 49 00
        E 0 80 61 00
        E 120 90 61 68
        E 0 90 31 68
        E 0 90 49 68
        E 120 80 61 00
        E 0 80 31 00
        E 0 80 49 00
        E 360 90 31 68
        E 0 90 49 68
        E 0 90 61 68
        E 120 80 31 00
        E 0 80 49 00
        E 0 80 61 00
        E 360 90 19 68
        E 0 90 31 68
        E 0 90 49 68
        E 0 90 61 68
        E 120 80 19 00
        E 0 80 31 00
        E 0 80 49 00
        E 0 80 61 00
        E 360 90 49 68
        E 0 90 61 68
        E 120 80 49 00
        E 0 80 61 00
        E 120 90 19 66
        E 0 90 31 66
        E 0 90 49 66
        E 0 90 61 66
        E 120 80 19 00
        E 0 80 31 00
        E 0 80 49 00
        E 0 80 61 00
        E 120 90 49 68
        E 0 90 61 68
        E 120 80 49 00
        E 0 80 61 00
        E 120 90 19 66
        E 0 90 31 66
        E 0 90 49 66
        E 0 90 61 66
        E 120 80 19 00
        E 0 80 31 00
        E 0 80 49 00
        E 0 80 61 00
        E 120 90 48 68
        E 0 90 60 68
        E 120 80 48 00
        E 0 80 60 00
        E 120 90 60 69
        E 0 90 74 64
        E 0 90 18 69
        E 0 90 30 69
        E 0 90 48 69
        E 120 80 60 00
        E 0 80 18 00
        E 0 80 30 00
        E 0 80 48 00
        E 120 90 30 69
        E 0 90 48 69
        E 0 90 60 69
        E 120 80 30 00
        E 0 80 48 00
        E 0 80 60 00
        E 360 90 30 69
        E 0 90 48 69
        E 0 90 60 69
        E 120 80 30 00
        E 0 80 48 00
        E 0 80 60 00
        E 120 90 18 69
        E 0 90 30 69
        E 0 90 48 69
        E 0 90 60 69
        E 120 80 18 00
        E 0 80 30 00
        E 0 80 48 00
        E 0 80 60 00
        E 120 90 30 69
        E 0 90 48 69
        E 0 90 60 69
        E 120 80 30 00
        E 0 80 48 00
        E 0 80 60 00
        E 360 90 30 69
        E 0 90 48 69
        E 0 90 60 69
        E 120 80 30 00
        E 0 80 48 00
        E 0 80 60 00
        E 360 90 18 69
        E 0 90 30 69
        E 0 90 48 69
        E 0 90 60 69
        E 120 80 18 00
        E 0 80 30 00
        E 0 80 48 00
        E 0 80 60 00
        E 360 90 60 69
        E 0 90 48 69
        E 120 80 60 00
        E 0 80 48 00
        E 120 90 18 68
        E 0 90 30 68
        E 0 90 48 68
        E 0 90 60 68
        E 120 80 18 00
        E 0 80 30 00
        E 0 80 48 00
        E 0 80 60 00
        E 120 90 48 68
        E 0 90 60 68
        E 120 80 48 00
        E 0 80 60 00
        E 120 90 30 66
        E 0 90 48 66
        E 0 90 60 66
        E 120 80 30 00
        E 0 80 48 00
        E 0 80 60 00
        E 360 90 19 68
        E 0 90 31 68
        E 0 90 49 68
        E 0 90 61 68
        E 120 80 74 00
        E 0 80 19 00
        E 0 80 31 00
        E 0 80 49 00
        E 0 80 61 00
        E 120 90 31 68
        E 0 90 49 68
        E 0 90 61 68
        E 120 80 31 00
        E 0 80 49 00
        E 0 80 61 00
        E 360 90 31 68
        E 0 90 49 68
        E 0 90 61 68
        E 120 80 31 00
        E 0 80 49 00
        E 0 80 61 00
        E 120 90 19 68
        E 0 90 31 68
        E 0 90 49 68
        E 0 90 61 68
        E 120 80 19 00
        E 0 80 31 00
        E 0 80 49 00
        E 0 80 61 00
        E 120 90 31 68
        E 0 90 49 68
        E 0 90 61 68
        E 120 80 31 00
        E 0 80 49 00
        E 0 80 61 00
        E 360 90 31 68
        E 0 90 49 68
        E 0 90 61 68
        E 120 80 31 00
        E 0 80 49 00
        E 0 80 61 00
        E 360 90 19 68
        E 0 90 31 68
        E 0 90 49 68
        E 0 90 61 68
        E 120 80 19 00
        E 0 80 31 00
        E 0 80 49 00
        E 0 80 61 00
        E 360 90 31 68
        E 0 90 49 68
        E 0 90 61 68
        E 120 80 31 00
        E 0 80 49 00
        E 0 80 61 00
        E 120 90 19 68
        E 0 90 31 68
        E 0 90 49 68
        E 0 90 61 68
        E 120 80 19 00
        E 0 80 31 00
        E 0 80 49 00
        E 0 80 61 00
        E 120 90 31 68
        E 0 90 49 68
        E 0 90 61 68
        E 120 80 31 00
        E 0 80 49 00
        E 0 80 61 00
        E 360 90 49 68
        E 0 90 61 68
        E 120 80 49 00
        E 0 80 61 00
        E 120 90 19 64
        E 0 90 31 64
        E 0 90 49 64
        E 0 90 61 64
        E 120 80 19 00
        E 0 80 31 00
        E 0 80 49 00
        E 0 80 61 00
        E 120 90 31 64
        E 0 90 49 64
        E 0 90 61 64
        E 120 80 31 00
        E 0 80 49 00
        E 0 80 61 00
        E 360 90 31 64
        E 0 90 49 64
        E 0 90 61 64
        E 120 80 31 00
        E 0 80 49 00
        E 0 80 61 00
        E 120 90 61 64
        E 0 90 19 64
        E 0 90 31 64
        E 0 90 49 64
        E 120 80 61 00
        E 0 80 19 00
        E 0 80 31 00
        E 0 80 49 00
        E 120 90 31 64
        E 0 90 49 64
        E 0 90 61 64
        E 120 80 31 00
        E 0 80 49 00
        E 0 80 61 00
        E 360 90 31 64
        E 0 90 49 64
        E 0 90 61 64
        E 120 80 31 00
        E 0 80 49 00
        E 0 80 61 00
        E 360 90 19 64
        E 0 90 31 64
        E 0 90 49 64
        E 0 90 61 64
        E 120 80 19 00
        E 0 80 31 00
        E 0 80 49 00
        E 0 80 61 00
        E 360 90 31 64
        E 0 90 49 64
        E 0 90 61 64
        E 120 80 31 00
        E 0 80 49 00
        E 0 80 61 00
        E 120 90 19 64
        E 0 90 31 64
        E 0 90 49 64
        E 0 90 61 64
        E 120 80 19 00
        E 0 80 31 00
        E 0 80 49 00
        E 0 80 61 00
        E 120 90 31 64
        E 0 90 49 64
        E 0 90 61 64
        E 120 80 31 00
        E 0 80 49 00
        E 0 80 61 00
        E 360 90 61 66
        E 0 90 49 66
        E 120 80 61 00
        E 0 80 49 00
        E 120 90 19 68
        E 0 90 31 68
        E 0 90 49 68
        E 0 90 61 68
        E 120 80 19 00
        E 0 80 31 00
        E 0 80 49 00
        E 0 80 61 00
        E 120 90 31 68
        E 0 90 49 68
        E 0 90 61 68
        E 120 80 31 00
        E 0 80 49 00
        E 0 80 61 00
        E 360 90 31 68
        E 0 90 49 68
        E 0 90 61 68
        E 120 80 31 00
        E 0 80 49 00
        E 0 80 61 00
        E 120 90 19 68
        E 0 90 31 68
        E 0 90 49 68
        E 0 90 61 68
        E 120 80 19 00
        E 0 80 31 00
        E 0 80 49 00
        E 0 80 61 00
        E 120 90 31 68
        E 0 90 49 68
        E 0 90 61 68
        E 120 80 31 00
        E 0 80 49 00
        E 0 80 61 00
        E 360 90 31 68
        E 0 90 49 68
        E 0 90 61 68
        E 120 80 31 00
        E 0 80 49 00
        E 0 80 61 00
        E 360 90 19 68
        E 0 90 31 68
        E 0 90 49 68
        E 0 90 61 68
        E 120 80 19 00
        E 0 80 31 00
        E 0 80 49 00
        E 0 80 61 00
        E 360 90 31 68
        E 0 90 49 68
        E 0 90 61 68
        E 120 80 31 00
        E 0 80 49 00
        E 0 80 61 00
        E 120 90 19 68
        E 0 90 31 68
        E 0 90 49 68
        E 0 90 61 68
        E 120 80 19 00
        E 0 80 31 00
        E 0 80 49 00
        E 0 80 61 00
        E 120 90 31 68
        E 0 90 49 68
        E 0 90 61 68
        E 120 80 31 00
        E 0 80 49 00
        E 0 80 61 00
        E 120 90 31 68
        E 0 90 49 68
        E 0 90 4f 64
        E 0 90 61 68
        E 0 90 67 64
        E 120 80 31 00
        E 0 80 49 00
        E 0 80 4f 00
        E 120 90 49 68
        E 0 90 4f 64
        E 120 80 49 00
        E 0 80 4f 00
        E 60 80 61 00
        E 0 80 67 00
        E 60 90 19 64
        E 0 90 31 64
        E 0 90 49 64
        E 0 90 61 64
        E 3360 80 19 00
        E 0 80 31 00
        E 0 80 49 00
        E 0 80 61 00
        E 480 90 19 68
        E 0 90 31 68
        E 0 90 49 68
        E 0 90 61 68
        E 0 90 74 64
        E 120 80 19 00
        E 0 80 31 00
        E 0 80 49 00
        E 0 80 61 00
        E 120 90 31 68
        E 0 90 49 68
        E 0 90 61 68
        E 120 80 31 00
        E 0 80 49 00
        E 0 80 61 00
        E 120 90 19 68
        E 0 90 31 68
        E 0 90 49 68
        E 0 90 61 68
        E 120 80 19 00
        E 0 80 31 00
        E 0 80 49 00
        E 0 80 61 00
        E 120 90 31 68
        E 0 90 49 68
        E 0 90 61 68
        E 120 80 31 00
        E 0 80 49 00
        E 0 80 61 00
        E 120 90 19 68
        E 0 90 31 68
        E 0 90 49 68
        E 0 90 61 68
        E 120 80 19 00
        E 0 80 31 00
        E 0 80 49 00
        E 0 80 61 00
        E 120 90 31 68
        E 0 90 49 68
        E 0 90 61 68
        E 120 80 31 00
        E 0 80 49 00
        E 0 80 61 00
        E 120 90 19 68
        E 0 90 31 68
        E 0 90 49 68
        E 0 90 61 68
        E 120 80 19 00
        E 0 80 31 00
        E 0 80 49 00
        E 0 80 61 00
        E 120 90 31 68
        E 0 90 49 68
        E 0 90 61 68
        E 120 80 31 00
        E 0 80 49 00
        E 0 80 61 00
        E 120 90 19 68
        E 0 90 31 68
        E 0 90 49 68
        E 0 90 61 68
        E 120 80 19 00
        E 0 80 31 00
        E 0 80 49 00
        E 0 80 61 00
        E 120 90 31 68
        E 0 90 49 68
        E 0 90 61 68
        E 120 80 31 00
        E 0 80 49 00
        E 0 80 61 00
        E 120 90 19 68
        E 0 90 31 68
        E 0 90 49 68
        E 0 90 61 68
        E 120 80 19 00
        E 0 80 31 00
        E 0 80 49 00
        E 0 80 61 00
        E 120 90 31 68
        E 0 90 49 68
        E 0 90 61 68
        E 120 80 31 00
        E 0 80 49 00
        E 0 80 61 00
        E 120 90 19 68
        E 0 90 31 68
        E 0 90 49 68
        E 0 90 61 68
        E 120 80 19 00
        E 0 80 31 00
        E 0 80 49 00
        E 0 80 61 00
        E 120 90 31 68
        E 0 90 49 68
        E 0 90 61 68
        E 120 80 31 00
        E 0 80 49 00
        E 0 80 61 00
        E 120 90 31 68
        E 0 90 49 68
        E 0 90 61 68
        E 120 80 31 00
        E 0 80 49 00
        E 0 80 61 00
        E 120 90 49 68
        E 0 90 4f 64
        E 0 90 61 68
        E 0 90 67 64
        E 120 80 49 00
        E 0 80 4f 00
        E 60 80 61 00
        E 0 80 67 00
        E 60 90 19 64
        E 0 90 31 64
        E 0 90 49 64
        E 0 90 61 64
        E 120 80 74 00
        E 0 80 19 00
        E 0 80 31 00
        E 0 80 49 00
        E 0 80 61 00
        E 120 90 31 64
        E 0 90 49 64
        E 0 90 61 64
        E 120 80 31 00
        E 0 80 49 00
        E 0 80 61 00
        E 120 90 19 64
        E 0 90 31 64
        E 0 90 49 64
        E 0 90 61 64
        E 120 80 19 00
        E 0 80 31 00
        E 0 80 49 00
        E 0 80 61 00
        E 120 90 31 64
        E 0 90 49 64
        E 0 90 61 64
        E 120 80 31 00
        E 0 80 49 00
        E 0 80 61 00
        E 120 90 19 64
        E 0 90 31 64
        E 0 90 49 64
        E 0 90 61 64
        E 120 80 19 00
        E 0 80 31 00
        E 0 80 49 00
        E 0 80 61 00
        E 120 90 31 64
        E 0 90 49 64
        E 0 90 61 64
        E 120 80 31 00
        E 0 80 49 00
        E 0 80 61 00
        E 120 90 19 64
        E 0 90 31 64
        E 0 90 49 64
        E 0 90 61 64
        E 120 80 19 00
        E 0 80 31 00
        E 0 80 49 00
        E 0 80 61 00
        E 120 90 31 64
        E 0 90 49 64
        E 0 90 61 64
        E 120 80 31 00
        E 0 80 49 00
        E 0 80 61 00
        E 120 90 19 64
        E 0 90 31 64
        E 0 90 49 64
        E 0 90 61 64
        E 120 80 19 00
        E 0 80 31 00
        E 0 80 49 00
        E 0 80 61 00
        E 120 90 31 64
        E 0 90 49 64
        E 0 90 61 64
        E 120 80 31 00
        E 0 80 49 00
        E 0 80 61 00
        E 120 90 19 64
        E 0 90 31 64
        E 0 90 49 64
        E 0 90 61 64
        E 120 80 19 00
        E 0 80 31 00
        E 0 80 49 00
        E 0 80 61 00
        E 120 90 31 64
        E 0 90 49 64
        E 0 90 61 64
        E 120 80 31 00
        E 0 80 49 00
        E 0 80 61 00
        E 120 90 19 64
        E 0 90 31 64
        E 0 90 49 64
        E 0 90 61 64
        E 120 80 19 00
        E 0 80 31 00
        E 0 80 49 00
        E 0 80 61 00
        E 120 90 31 64
        E 0 90 49 64
        E 0 90 61 64
        E 120 80 31 00
        E 0 80 49 00
        E 0 80 61 00
        E 120 90 31 64
        E 0 90 49 64
        E 0 90 61 64
        E 120 80 31 00
        E 0 80 49 00
        E 0 80 61 00
        E 120 90 49 64
        E 0 90 61 64
        E 120 80 49 00
        E 0 80 61 00
        E 120 90 19 68
        E 0 90 31 68
        E 0 90 49 68
        E 0 90 61 68
        E 120 80 19 00
        E 0 80 31 00
        E 0 80 49 00
        E 0 80 61 00
        E 120 90 31 68
        E 0 90 49 68
        E 0 90 61 68
        E 120 80 31 00
        E 0 80 49 00
        E 0 80 61 00
        E 120 90 19 68
        E 0 90 31 68
        E 0 90 49 68
        E 0 90 61 68
        E 120 80 19 00
        E 0 80 31 00
        E 0 80 49 00
        E 0 80 61 00
        E 120 90 31 68
        E 0 90 49 68
        E 0 90 61 68
        E 120 80 31 00
        E 0 80 49 00
        E 0 80 61 00
        E 120 90 61 68
        E 0 90 19 68
        E 0 90 31 68
        E 0 90 49 68
        E 120 80 61 00
        E 0 80 19 00
        E 0 80 31 00
        E 0 80 49 00
        E 120 90 31 68
        E 0 90 49 68
        E 0 90 61 68
        E 120 80 31 00
        E 0 80 49 00
        E 0 80 61 00
        E 120 90 19 68
        E 0 90 31 68
        E 0 90 49 68
        E 0 90 61 68
        E 120 80 19 00
        E 0 80 31 00
        E 0 80 49 00
        E 0 80 61 00
        E 120 90 31 68
        E 0 90 49 68
        E 0 90 61 68
        E 120 80 31 00
        E 0 80 49 00
        E 0 80 61 00
        E 120 90 19 68
        E 0 90 31 68
        E 0 90 49 68
        E 0 90 61 68
        E 120 80 19 00
        E 0 80 31 00
        E 0 80 49 00
        E 0 80 61 00
        E 120 90 31 68
        E 0 90 49 68
        E 0 90 61 68
        E 120 80 31 00
        E 0 80 49 00
        E 0 80 61 00
        E 120 90 19 68
        E 0 90 31 68
        E 0 90 49 68
        E 0 90 61 68
        E 120 80 19 00
        E 0 80 31 00
        E 0 80 49 00
        E 0 80 61 00
        E 120 90 31 68
        E 0 90 49 68
        E 0 90 61 68
        E 120 80 31 00
        E 0 80 49 00
        E 0 80 61 00
        E 120 90 19 68
        E 0 90 31 68
        E 0 90 49 68
        E 0 90 61 68
        E 120 80 19 00
        E 0 80 31 00
        E 0 80 49 00
        E 0 80 61 00
        E 120 90 31 68
        E 0 90 49 68
        E 0 90 61 68
        E 120 80 31 00
        E 0 80 49 00
        E 0 80 61 00
        E 120 90 31 68
        E 0 90 49 68
        E 0 90 61 68
        E 120 80 31 00
        E 0 80 49 00
        E 0 80 61 00
        E 120 90 49 68
        E 0 90 4f 64
        E 0 90 61 68
        E 0 90 67 64
        E 120 80 49 00
        E 0 80 4f 00
        E 60 80 61 00
        E 0 80 67 00
        E 60 90 19 64
        E 0 90 31 64
        E 0 90 49 64
        E 0 90 61 64
        E 120 80 19 00
        E 0 80 31 00
        E 0 80 49 00
        E 0 80 61 00
        E 120 90 31 64
        E 0 90 49 64
        E 0 90 61 64
        E 120 80 31 00
        E 0 80 49 00
        E 0 80 61 00
        E 120 90 19 64
        E 0 90 31 64
        E 0 90 49 64
        E 0 90 61 64
        E 120 80 19 00
        E 0 80 31 00
        E 0 80 49 00
        E 0 80 61 00
        E 120 90 31 64
        E 0 90 49 64
        E 0 90 61 64
        E 120 80 31 00
        E 0 80 49 00
        E 0 80 61 00
        E 120 90 19 64
        E 0 90 31 64
        E 0 90 49 64
        E 0 90 61 64
        E 120 80 19 00
        E 0 80 31 00
        E 0 80 49 00
        E 0 80 61 00
        E 120 90 31 64
        E 0 90 49 64
        E 0 90 61 64
        E 120 80 31 00
        E 0 80 49 00
        E 0 80 61 00
        E 120 90 19 64
        E 0 90 31 64
        E 0 90 49 64
        E 0 90 61 64
        E 120 80 19 00
        E 0 80 31 00
        E 0 80 49 00
        E 0 80 61 00
        E 120 90 31 64
        E 0 90 49 64
        E 0 90 61 64
        E 120 80 31 00
        E 0 80 49 00
        E 0 80 61 00
        E 120 90 19 64
        E 0 90 31 64
        E 0 90 49 64
        E 0 90 61 64
        E 120 80 19 00
        E 0 80 31 00
        E 0 80 49 00
        E 0 80 61 00
        E 120 90 49 64
        E 0 90 61 64
        E 120 80 49 00
        E 0 80 61 00
        E 120 90 19 64
        E 0 90 31 64
        E 0 90 49 64
        E 0 90 61 64
        E 120 80 19 00
        E 0 80 31 00
        E 0 80 49 00
        E 0 80 61 00
        E 120 90 49 64
        E 0 90 61 64
        E 120 80 49 00
        E 0 80 61 00
        E 120 90 19 64
        E 0 90 31 64
        E 0 90 49 64
        E 0 90 61 64
        E 120 80 19 00
        E 0 80 31 00
        E 0 80 49 00
        E 0 80 61 00
        E 120 90 49 64
        E 0 90 61 64
        E 120 80 49 00
        E 0 80 61 00
        E 120 90 31 64
        E 0 90 49 64
        E 0 90 61 64
        E 120 80 31 00
        E 0 80 49 00
        E 0 80 61 00
        E 120 90 49 64
        E 0 90 61 64
        E 120 80 49 00
        E 0 80 61 00
        E 120 90 19 66
        E 0 90 31 66
        E 0 90 49 66
        E 0 90 61 66
        E 120 80 19 00
        E 0 80 31 00
        E 0 80 49 00
        E 0 80 61 00
        E 120 90 49 66
        E 0 90 61 66
        E 120 80 49 00
        E 0 80 61 00
        E 120 90 19 66
        E 0 90 31 66
        E 0 90 49 66
        E 0 90 61 66
        E 120 80 19 00
        E 0 80 31 00
        E 0 80 49 00
        E 0 80 61 00
        E 120 90 31 66
        E 0 90 49 66
        E 0 90 61 66
        E 120 80 31 00
        E 0 80 49 00
        E 0 80 61 00
        E 120 90 19 66
        E 0 90 31 66
        E 0 90 49 66
        E 0 90 61 66
        E 120 80 19 00
        E 0 80 31 00
        E 0 80 49 00
        E 0 80 61 00
        E 120 90 31 66
        E 0 90 49 66
        E 0 90 61 66
        E 120 80 31 00
        E 0 80 49 00
        E 0 80 61 00
        E 120 90 31 66
        E 0 90 49 66
        E 0 90 61 66
        E 120 80 31 00
        E 0 80 49 00
        E 0 80 61 00
        E 120 90 49 66
        E 0 90 61 66
        E 120 80 49 00
        E 0 80 61 00
        E 120 90 19 64
        E 0 90 31 64
        E 0 90 49 64
        E 0 90 61 64
        E 120 80 19 00
        E 0 80 31 00
        E 0 80 49 00
        E 0 80 61 00
        E 120 90 61 64
        E 0 90 49 64
        E 120 80 61 00
        E 0 80 49 00
        E 120 90 31 64
        E 0 90 49 64
        E 0 90 61 64
        E 120 80 31 00
        E 0 80 49 00
        E 0 80 61 00
        E 120 90 49 64
        E 0 90 61 64
        E 120 80 49 00
        E 0 80 61 00
        E 120 90 19 64
        E 0 90 31 64
        E 0 90 49 64
        E 0 90 61 64
        E 120 80 19 00
        E 0 80 31 00
        E 0 80 49 00
        E 0 80 61 00
        E 120 90 49 64
        E 0 90 61 64
        E 120 80 49 00
        E 0 80 61 00
        E 120 90 31 64
        E 0 90 49 64
        E 0 90 61 64
        E 120 80 31 00
        E 0 80 49 00
        E 0 80 61 00
        E 120 90 49 64
        E 0 90 61 64
        E 120 80 49 00
        E 0 80 61 00
        E 120 90 61 66
        E 0 90 19 66
        E 0 90 31 66
        E 0 90 49 66
        E 120 80 61 00
        E 0 80 19 00
        E 0 80 31 00
        E 0 80 49 00
        E 120 90 31 66
        E 0 90 49 66
        E 0 90 61 66
        E 120 80 31 00
        E 0 80 49 00
        E 0 80 61 00
        E 120 90 61 66
        E 0 90 31 66
        E 0 90 49 66
        E 120 80 61 00
        E 0 80 31 00
        E 0 80 49 00
        E 120 90 49 66
        E 0 90 61 66
        E 120 80 49 00
        E 0 80 61 00
        E 120 90 19 66
        E 0 90 31 66
        E 0 90 49 66
        E 0 90 61 66
        E 120 80 19 00
        E 0 80 31 00
        E 0 80 49 00
        E 0 80 61 00
        E 120 90 49 66
        E 0 90 61 66
        E 120 80 49 00
        E 0 80 61 00
        E 120 90 61 66
        E 0 90 31 66
        E 0 90 49 66
        E 120 80 61 00
        E 0 80 31 00
        E 0 80 49 00
        E 120 90 49 66
        E 0 90 4f 64
        E 0 90 61 66
        E 0 90 67 64
        E 120 80 49 00
        E 0 80 4f 00
        E 60 80 61 00
        E 0 80 67 00
        E 60 90 19 68
        E 0 90 31 68
        E 0 90 49 68
        E 0 90 61 68
        E 5759 80 61 00
        E 0 80 19 00
        E 0 80 31 00
        E 0 80 49 00
        E 3841 b0 7b 00
        GUID {7A079262-9C13-44B7-A486-35AFFF4CDAB8}
        IGNTEMPO 0 120.00000000 4 4
        SRCCOLOR 118
        VELLANE 132 100 0
        COLORMAP "C:\Program Files\REAPER (x64)\Data\color_maps\rockband_guitarbass.png"
        CFGEDITVIEW 0.000000 0.003329 7 12 0 0 0
        CFGEDIT 1 1 0 1 1 0 1 1 1 1 1 0.12500000 53 44 1253 718 0 2 0 1 0.00000000 0 1 0 0 0.500000 0 0 1.000000 64
        KEYSNAP 0 7 "102030050700" 0 "Pentatonic"
        EVTFILTER 0 -1 -1 -1 -1 0 1 0 0 -1.00000000 -1.00000000
      >
    >
  >
  <TRACK '{F8088D68-6FF1-4DA4-96D7-E45EBF6AB923}'
    NAME "PART REAL_GUITAR"
    PEAKCOL 16576
    BEAT -1
    AUTOMODE 0
    VOLPAN 1.00000000000000 0.00000000000000 -1.00000000000000 -1.00000000000000 1.00000000000000
    MUTESOLO 0 0 0
    IPHASE 0
    ISBUS 0 0
    BUSCOMP 0 0
    SHOWINMIX 1 0.666700 0.500000 1 0.500000 -1 -1 -1
    FREEMODE 0
    SEL 0
    REC 0 0 0 0 0 0 0
    VU 2
    TRACKHEIGHT 0 0
    INQ 0 0 0 0.5000000000 100 0 0 100
    NCHAN 2
    FX 0
    TRACKID {F8088D68-6FF1-4DA4-96D7-E45EBF6AB923}
    PERF 0
    MIDIOUT -1
    <MIDINOTENAMES
      0 127 "Trill Marker"
      0 126 "Tremolo Marker"
      0 125 "BRE"
      0 124 "BRE"
      0 123 "BRE"
      0 122 "BRE"
      0 121 "BRE"
      0 120 "BRE (use all 6)"
      0 119 "-----------"
      0 116 "OVERDRIVE"
      0 115 "Solo Marker"
      0 109 "-----------"
      0 108 "Fret Hand Position"
      0 107 "Force Chord Numbering"
      0 106 "Loose Strumming"
      0 105 "Strum Direction"
      0 104 "Arpeggio Marker"
      0 103 "Slide Marker"
      0 102 "Force HOPO"
      0 101 "EXPERT e String"
      0 100 "EXPERT B String"
      0 99 "EXPERT G String"
      0 98 "EXPERT D String"
      0 97 "EXPERT A String"
      0 96 "EXPERT E String"
      0 95 "-----------"
      0 82 "Loose Strumming"
      0 81 "Strum Direction"
      0 80 "Arpeggio Marker"
      0 79 "Slide Marker"
      0 78 "Force HOPO"
      0 77 "HARD e String"
      0 76 "HARD B String"
      0 75 "HARD G String"
      0 74 "HARD D String"
      0 73 "HARD A String"
      0 72 "HARD E String"
      0 71 "-----------"
      0 58 "Loose Strumming"
      0 56 "Arpeggio Marker"
      0 55 "Slide Marker"
      0 53 "MEDIUM e String"
      0 52 "MEDIUM B String"
      0 51 "MEDIUM G String"
      0 50 "MEDIUM D String"
      0 49 "MEDIUM A String"
      0 48 "MEDIUM E String"
      0 47 "-----------"
      0 32 "Arpeggio Marker"
      0 31 "Slide Marker"
      0 29 "EASY e String"
      0 28 "EASY B String"
      0 27 "EASY G String"
      0 26 "EASY D String"
      0 25 "EASY A String"
      0 24 "EASY E String"
      0 21 "-----------"
      0 18 "Flat/Sharp Swap"
      0 17 "Hide Chord Names"
      0 16 "Slash Chord"
      0 15 "D#"
      0 14 "D"
      0 13 "C#"
      0 12 "C"
      0 11 "B"
      0 10 "A#"
      0 9 "A"
      0 8 "G#"
      0 7 "G"
      0 6 "F#"
      0 5 "F"
      0 4 "E"
    >
    MAINSEND 1 0
    <FXCHAIN
      WNDRECT 0 43 729 467
      SHOW 0
      LASTSEL 1
      DOCKED 0
      BYPASS 0 0
      <JS "c3/progtr" ""
        0.000000 3.000000 0.000000 0.000000 0.000000 0.000000 0.000000 0.000000 0.000000 1.000000 - - - - - - - - - - - - - - - - - - - - - - - - - - - - - - - - - - - - - - - - - - - - - - - - - - - - - - 
      >
      FLOATPOS 0 0 0 0
      FXID {B5BF5D74-00BF-469F-B183-42CBDF4B2F16}
      WAK 0
      BYPASS 0 0
      <VST "VSTi: ReaSynth (Cockos)" "reasynth.dll" 0 ""
        eXNlcu9e7f4AAAAAAgAAAAEAAAAAAAAAAgAAAAAAAAA4AAAAAAAAAA==
        AAAQAO++rd4N8K3eppvEO+gJMjyHFlk/AAAAAAAAAADMm4A+4jAEPA==
        AAAAAAAAAD+01hM+j8L1PQAAAD8AABAAAAA=
      >
      FLOATPOS 0 0 0 0
      FXID {FFE351ED-0F2E-456B-A364-FACE156ED2DF}
      WAK 0
    >
    <ITEM
      POSITION 0.00000000000000
      SNAPOFFS 0.00000000000000
      LENGTH 194.42541950113377
      LOOP 0
      ALLTAKES 0
      SEL 0
      FADEIN 1 0.000000 0.000000 1 0
      FADEOUT 1 0.000000 0.000000 1 0
      MUTE 0
      IGUID {EB6CA8E7-F3E1-42B4-AE19-264BC0132F8F}
      IID 3
      NAME "PART REAL_GUITAR"
      VOLPAN 1.000000 0.000000 1.000000 -1.000000
      SOFFS 0.00000000000000 0.00000000000000
      PLAYRATE 1.00000000000000 1 0.00000000000000 -1
      CHANMODE 0
      GUID {EF2996C8-2F8F-4C12-9647-087F8EB98C87}
      <SOURCE MIDI
        HASDATA 1 480 QN
        POOLEDEVTS {B6F83B23-CD87-4C25-8358-89D023D1D9CB}
        <X 0 0
          /wNQQVJUIFJFQUxfR1VJVEFS
        >
        <X 4320 0
          /wFbYmVnaW5fcGcgc29uZ190cmFpbmVyX3BnXzFd
        >
        E 240 90 0b 64
        E 0 90 48 6b
        E 0 90 49 6d
        E 0 90 4f 64
        E 0 90 60 6b
        E 0 90 61 6d
        E 0 90 67 64
        E 0 90 6c 6b
        E 120 80 0b 00
        E 0 80 48 00
        E 0 80 49 00
        E 0 80 4f 00
        E 0 80 60 00
        E 0 80 61 00
        E 0 80 67 00
        E 0 80 6c 00
        E 120 90 0d 64
        E 0 90 30 6d
        E 0 90 31 6f
        E 0 90 48 6d
        E 0 90 49 6f
        E 0 90 4e 64
        E 0 90 60 6d
        E 0 90 61 6f
        E 0 90 66 64
        E 0 90 6c 6d
        E 120 80 0d 00
        E 0 80 30 00
        E 0 80 31 00
        E 0 80 48 00
        E 0 80 49 00
        E 0 80 4e 00
        E 0 80 60 00
        E 0 80 61 00
        E 0 80 66 00
        E 0 80 6c 00
        E 360 90 09 64
        E 0 90 30 69
        E 0 90 31 6b
        E 0 90 48 69
        E 0 90 49 6b
        E 0 90 60 69
        E 0 90 61 6b
        E 0 90 6c 69
        E 120 80 09 00
        E 0 80 30 00
        E 0 80 31 00
        E 0 80 48 00
        E 0 80 49 00
        E 0 80 60 00
        E 0 80 61 00
        E 0 80 6c 00
        E 360 90 08 64
        E 0 90 18 68
        E 0 90 30 68
        E 0 90 31 6a
        E 0 90 48 68
        E 0 90 49 6a
        E 0 90 60 68
        E 0 90 61 6a
        E 0 90 6c 68
        E 120 80 08 00
        E 0 80 6c 00
        <X 360 0
          /wFbcGdfbm9ybSBzb25nX3RyYWluZXJfcGdfMV0=
        >
        E 1920 80 18 00
        E 0 80 30 00
        E 0 80 31 00
        E 0 80 48 00
        E 0 80 49 00
        E 0 80 60 00
        E 0 80 61 00
        E 240 90 0b 64
        E 0 90 48 6b
        E 0 90 49 6d
        E 0 90 4f 64
        E 0 90 60 6b
        E 0 90 61 6d
        E 0 90 67 64
        E 0 90 6c 6b
        E 120 80 0b 00
        E 0 80 48 00
        E 0 80 49 00
        E 0 80 4f 00
        E 0 80 60 00
        E 0 80 61 00
        E 0 80 67 00
        E 0 80 6c 00
        E 120 90 0d 64
        E 0 90 30 6d
        E 0 90 31 6f
        E 0 90 48 6d
        E 0 90 49 6f
        E 0 90 4e 64
        E 0 90 60 6d
        E 0 90 61 6f
        E 0 90 66 64
        E 0 90 6c 6d
        E 120 80 0d 00
        E 0 80 30 00
        E 0 80 31 00
        E 0 80 48 00
        E 0 80 49 00
        E 0 80 4e 00
        E 0 80 60 00
        E 0 80 61 00
        E 0 80 66 00
        E 0 80 6c 00
        E 360 90 09 64
        E 0 90 30 69
        E 0 90 31 6b
        E 0 90 48 69
        E 0 90 49 6b
        E 0 90 60 69
        E 0 90 61 6b
        E 0 90 6c 69
        E 120 80 09 00
        E 0 80 30 00
        E 0 80 31 00
        E 0 80 48 00
        E 0 80 49 00
        E 0 80 60 00
        E 0 80 61 00
        E 0 80 6c 00
        E 360 90 08 64
        E 0 90 18 68
        E 0 90 30 68
        E 0 90 31 6a
        E 0 90 48 68
        E 0 90 49 6a
        E 0 90 60 68
        E 0 90 61 6a
        E 0 90 6c 68
        E 120 80 08 00
        E 0 80 6c 00
        <X 2280 0
          /wFbZW5kX3BnIHNvbmdfdHJhaW5lcl9wZ18xXQ==
        >
        E 0 80 18 00
        E 0 80 30 00
        E 0 80 31 00
        E 0 80 48 00
        E 0 80 49 00
        E 0 80 60 00
        E 0 80 61 00
        E 240 90 0b 64
        E 0 90 48 6b
        E 0 90 49 6d
        E 0 90 4f 64
        E 0 90 60 6b
        E 0 90 61 6d
        E 0 90 67 64
        E 0 90 6c 6b
        E 120 80 0b 00
        E 0 80 48 00
        E 0 80 49 00
        E 0 80 4f 00
        E 0 80 60 00
        E 0 80 61 00
        E 0 80 67 00
        E 0 80 6c 00
        E 120 90 0d 64
        E 0 90 30 6d
        E 0 90 31 6f
        E 0 90 48 6d
        E 0 90 49 6f
        E 0 90 4e 64
        E 0 90 60 6d
        E 0 90 61 6f
        E 0 90 66 64
        E 0 90 6c 6d
        E 120 80 0d 00
        E 0 80 30 00
        E 0 80 31 00
        E 0 80 48 00
        E 0 80 49 00
        E 0 80 4e 00
        E 0 80 60 00
        E 0 80 61 00
        E 0 80 66 00
        E 0 80 6c 00
        E 360 90 09 64
        E 0 90 30 69
        E 0 90 31 6b
        E 0 90 48 69
        E 0 90 49 6b
        E 0 90 60 69
        E 0 90 61 6b
        E 0 90 6c 69
        E 120 80 09 00
        E 0 80 30 00
        E 0 80 31 00
        E 0 80 48 00
        E 0 80 49 00
        E 0 80 60 00
        E 0 80 61 00
        E 0 80 6c 00
        E 360 90 08 64
        E 0 90 18 68
        E 0 90 30 68
        E 0 90 31 6a
        E 0 90 48 68
        E 0 90 49 6a
        E 0 90 60 68
        E 0 90 61 6a
        E 0 90 6c 68
        E 120 80 08 00
        E 0 80 6c 00
        E 2280 80 18 00
        E 0 80 30 00
        E 0 80 31 00
        E 0 80 48 00
        E 0 80 49 00
        E 0 80 60 00
        E 0 80 61 00
        E 240 90 0b 64
        E 0 90 48 6b
        E 0 90 49 6d
        E 0 90 4f 64
        E 0 90 60 6b
        E 0 90 61 6d
        E 0 90 67 64
        E 0 90 6c 6b
        E 120 80 0b 00
        E 0 80 48 00
        E 0 80 49 00
        E 0 80 4f 00
        E 0 80 60 00
        E 0 80 61 00
        E 0 80 67 00
        E 0 80 6c 00
        E 120 90 0d 64
        E 0 90 30 6d
        E 0 90 31 6f
        E 0 90 48 6d
        E 0 90 49 6f
        E 0 90 4e 64
        E 0 90 60 6d
        E 0 90 61 6f
        E 0 90 66 64
        E 0 90 6c 6d
        E 120 80 0d 00
        E 0 80 30 00
        E 0 80 31 00
        E 0 80 48 00
        E 0 80 49 00
        E 0 80 4e 00
        E 0 80 60 00
        E 0 80 61 00
        E 0 80 66 00
        E 0 80 6c 00
        E 360 90 09 64
        E 0 90 30 69
        E 0 90 31 6b
        E 0 90 48 69
        E 0 90 49 6b
        E 0 90 60 69
        E 0 90 61 6b
        E 0 90 6c 69
        E 120 80 09 00
        E 0 80 30 00
        E 0 80 31 00
        E 0 80 48 00
        E 0 80 49 00
        E 0 80 60 00
        E 0 80 61 00
        E 0 80 6c 00
        E 360 90 08 64
        E 0 90 18 68
        E 0 90 30 68
        E 0 90 31 6a
        E 0 90 48 68
        E 0 90 49 6a
        E 0 90 60 68
        E 0 90 61 6a
        E 0 90 6c 68
        E 120 80 08 00
        E 0 80 6c 00
        E 1800 90 74 64
        E 480 80 18 00
        E 0 80 30 00
        E 0 80 31 00
        E 0 80 48 00
        E 0 80 49 00
        E 0 80 60 00
        E 0 80 61 00
        E 240 90 0b 64
        E 0 90 48 6b
        E 0 90 49 6d
        E 0 90 4f 64
        E 0 90 60 6b
        E 0 90 61 6d
        E 0 90 67 64
        E 0 90 6c 6b
        E 120 80 0b 00
        E 0 80 48 00
        E 0 80 49 00
        E 0 80 4f 00
        E 0 80 60 00
        E 0 80 61 00
        E 0 80 67 00
        E 0 80 6c 00
        E 120 90 0d 64
        E 0 90 30 6d
        E 0 90 31 6f
        E 0 90 48 6d
        E 0 90 49 6f
        E 0 90 4e 64
        E 0 90 60 6d
        E 0 90 61 6f
        E 0 90 66 64
        E 0 90 6c 6d
        E 120 80 0d 00
        E 0 80 30 00
        E 0 80 31 00
        E 0 80 48 00
        E 0 80 49 00
        E 0 80 4e 00
        E 0 80 60 00
        E 0 80 61 00
        E 0 80 66 00
        E 0 80 6c 00
        E 360 90 09 64
        E 0 90 30 69
        E 0 90 31 6b
        E 0 90 48 69
        E 0 90 49 6b
        E 0 90 60 69
        E 0 90 61 6b
        E 0 90 6c 69
        E 120 80 09 00
        E 0 80 30 00
        E 0 80 31 00
        E 0 80 48 00
        E 0 80 49 00
        E 0 80 60 00
        E 0 80 61 00
        E 0 80 6c 00
        E 360 90 08 64
        E 0 90 18 68
        E 0 90 30 68
        E 0 90 31 6a
        E 0 90 48 68
        E 0 90 49 6a
        E 0 90 60 68
        E 0 90 61 6a
        E 0 90 6c 68
        E 120 80 74 00
        E 0 80 08 00
        E 0 80 6c 00
        E 2280 80 18 00
        E 0 80 30 00
        E 0 80 31 00
        E 0 80 48 00
        E 0 80 49 00
        E 0 80 60 00
        E 0 80 61 00
        E 240 90 0b 64
        E 0 90 48 6b
        E 0 90 49 6d
        E 0 90 4f 64
        E 0 90 60 6b
        E 0 90 61 6d
        E 0 90 67 64
        E 0 90 6c 6b
        E 120 80 0b 00
        E 0 80 48 00
        E 0 80 49 00
        E 0 80 4f 00
        E 0 80 60 00
        E 0 80 61 00
        E 0 80 67 00
        E 0 80 6c 00
        E 120 90 0d 64
        E 0 90 30 6d
        E 0 90 31 6f
        E 0 90 48 6d
        E 0 90 49 6f
        E 0 90 4e 64
        E 0 90 60 6d
        E 0 90 61 6f
        E 0 90 66 64
        E 0 90 6c 6d
        E 120 80 0d 00
        E 0 80 30 00
        E 0 80 31 00
        E 0 80 48 00
        E 0 80 49 00
        E 0 80 4e 00
        E 0 80 60 00
        E 0 80 61 00
        E 0 80 66 00
        E 0 80 6c 00
        E 360 90 09 64
        E 0 90 30 69
        E 0 90 31 6b
        E 0 90 48 69
        E 0 90 49 6b
        E 0 90 60 69
        E 0 90 61 6b
        E 0 90 6c 69
        E 120 80 09 00
        E 0 80 30 00
        E 0 80 31 00
        E 0 80 48 00
        E 0 80 49 00
        E 0 80 60 00
        E 0 80 61 00
        E 0 80 6c 00
        E 360 90 08 64
        E 0 90 18 68
        E 0 90 30 68
        E 0 90 31 6a
        E 0 90 48 68
        E 0 90 49 6a
        E 0 90 60 68
        E 0 90 61 6a
        E 0 90 6c 68
        E 120 80 08 00
        E 0 80 6c 00
        E 2280 80 18 00
        E 0 80 30 00
        E 0 80 31 00
        E 0 80 48 00
        E 0 80 49 00
        E 0 80 60 00
        E 0 80 61 00
        E 240 90 0b 64
        E 0 90 48 6b
        E 0 90 49 6d
        E 0 90 4f 64
        E 0 90 60 6b
        E 0 90 61 6d
        E 0 90 67 64
        E 0 90 6c 6b
        E 120 80 0b 00
        E 0 80 48 00
        E 0 80 49 00
        E 0 80 4f 00
        E 0 80 60 00
        E 0 80 61 00
        E 0 80 67 00
        E 0 80 6c 00
        E 120 90 0d 64
        E 0 90 30 6d
        E 0 90 31 6f
        E 0 90 48 6d
        E 0 90 49 6f
        E 0 90 4e 64
        E 0 90 60 6d
        E 0 90 61 6f
        E 0 90 66 64
        E 0 90 6c 6d
        E 120 80 0d 00
        E 0 80 30 00
        E 0 80 31 00
        E 0 80 48 00
        E 0 80 49 00
        E 0 80 4e 00
        E 0 80 60 00
        E 0 80 61 00
        E 0 80 66 00
        E 0 80 6c 00
        E 360 90 09 64
        E 0 90 30 69
        E 0 90 31 6b
        E 0 90 48 69
        E 0 90 49 6b
        E 0 90 60 69
        E 0 90 61 6b
        E 0 90 6c 69
        E 120 80 09 00
        E 0 80 30 00
        E 0 80 31 00
        E 0 80 48 00
        E 0 80 49 00
        E 0 80 60 00
        E 0 80 61 00
        E 0 80 6c 00
        E 360 90 08 64
        E 0 90 18 68
        E 0 90 30 68
        E 0 90 31 6a
        E 0 90 48 68
        E 0 90 49 6a
        E 0 90 60 68
        E 0 90 61 6a
        E 0 90 6c 68
        E 120 80 08 00
        E 0 80 6c 00
        E 2280 80 18 00
        E 0 80 30 00
        E 0 80 31 00
        E 0 80 48 00
        E 0 80 49 00
        E 0 80 60 00
        E 0 80 61 00
        E 240 90 0b 64
        E 0 90 48 6b
        E 0 90 49 6d
        E 0 90 4f 64
        E 0 90 60 6b
        E 0 90 61 6d
        E 0 90 67 64
        E 0 90 6c 6b
        E 120 80 0b 00
        E 0 80 48 00
        E 0 80 49 00
        E 0 80 4f 00
        E 0 80 60 00
        E 0 80 61 00
        E 0 80 67 00
        E 0 80 6c 00
        E 120 90 0d 64
        E 0 90 30 6d
        E 0 90 31 6f
        E 0 90 48 6d
        E 0 90 49 6f
        E 0 90 4e 64
        E 0 90 60 6d
        E 0 90 61 6f
        E 0 90 66 64
        E 0 90 6c 6d
        E 120 80 0d 00
        E 0 80 30 00
        E 0 80 31 00
        E 0 80 48 00
        E 0 80 49 00
        E 0 80 4e 00
        E 0 80 60 00
        E 0 80 61 00
        E 0 80 66 00
        E 0 80 6c 00
        E 360 90 09 64
        E 0 90 30 69
        E 0 90 31 6b
        E 0 90 48 69
        E 0 90 49 6b
        E 0 90 60 69
        E 0 90 61 6b
        E 0 90 6c 69
        E 120 80 09 00
        E 0 80 30 00
        E 0 80 31 00
        E 0 80 48 00
        E 0 80 49 00
        E 0 80 60 00
        E 0 80 61 00
        E 0 80 6c 00
        E 360 90 08 64
        E 0 90 18 68
        E 0 90 30 68
        E 0 90 31 6a
        E 0 90 48 68
        E 0 90 49 6a
        E 0 90 60 68
        E 0 90 61 6a
        E 0 90 6c 68
        E 120 80 08 00
        E 0 80 6c 00
        <X 2280 0
          /wFbYmVnaW5fcGcgc29uZ190cmFpbmVyX3BnXzJd
        >
        E 0 80 18 00
        E 0 80 30 00
        E 0 80 31 00
        E 0 80 48 00
        E 0 80 49 00
        E 0 80 60 00
        E 0 80 61 00
        E 0 90 74 64
        E 240 90 0b 64
        E 0 90 48 6b
        E 0 90 49 6d
        E 0 90 4f 64
        E 0 90 60 6b
        E 0 90 61 6d
        E 0 90 67 64
        E 0 90 6c 6b
        E 120 80 0b 00
        E 0 80 48 00
        E 0 80 49 00
        E 0 80 4f 00
        E 0 80 60 00
        E 0 80 61 00
        E 0 80 67 00
        E 0 80 6c 00
        E 120 90 0d 64
        E 0 90 30 6d
        E 0 90 31 6f
        E 0 90 48 6d
        E 0 90 49 6f
        E 0 90 4e 64
        E 0 90 60 6d
        E 0 90 61 6f
        E 0 90 66 64
        E 0 90 6c 6d
        E 120 80 0d 00
        E 0 80 30 00
        E 0 80 31 00
        E 0 80 48 00
        E 0 80 49 00
        E 0 80 4e 00
        E 0 80 60 00
        E 0 80 61 00
        E 0 80 66 00
        E 0 80 6c 00
        E 360 90 08 64
        E 0 90 30 68
        E 0 90 31 6a
        E 0 90 48 68
        E 0 90 49 6a
        E 0 90 60 68
        E 0 90 61 6a
        E 0 90 6c 68
        E 120 80 08 00
        E 0 80 30 00
        E 0 80 31 00
        E 0 80 48 00
        E 0 80 49 00
        E 0 80 60 00
        E 0 80 61 00
        E 0 80 6c 00
        E 360 90 09 64
        E 0 90 18 69
        E 0 90 30 69
        E 0 90 31 6b
        E 0 90 48 69
        E 0 90 49 6b
        E 0 90 60 69
        E 0 90 61 6b
        E 0 90 6c 69
        E 120 80 74 00
        E 0 80 09 00
        E 0 80 6c 00
        <X 360 0
          /wFbcGdfbm9ybSBzb25nX3RyYWluZXJfcGdfMl0=
        >
        E 1920 80 18 00
        E 0 80 30 00
        E 0 80 31 00
        E 0 80 48 00
        E 0 80 49 00
        E 0 80 60 00
        E 0 80 61 00
        E 240 90 0b 64
        E 0 90 48 6b
        E 0 90 49 6d
        E 0 90 4f 64
        E 0 90 60 6b
        E 0 90 61 6d
        E 0 90 67 64
        E 0 90 6c 6b
        E 120 80 0b 00
        E 0 80 48 00
        E 0 80 49 00
        E 0 80 4f 00
        E 0 80 60 00
        E 0 80 61 00
        E 0 80 67 00
        E 0 80 6c 00
        E 120 90 0d 64
        E 0 90 30 6d
        E 0 90 31 6f
        E 0 90 48 6d
        E 0 90 49 6f
        E 0 90 4e 64
        E 0 90 60 6d
        E 0 90 61 6f
        E 0 90 66 64
        E 0 90 6c 6d
        E 120 80 0d 00
        E 0 80 30 00
        E 0 80 31 00
        E 0 80 48 00
        E 0 80 49 00
        E 0 80 4e 00
        E 0 80 60 00
        E 0 80 61 00
        E 0 80 66 00
        E 0 80 6c 00
        E 360 90 09 64
        E 0 90 30 69
        E 0 90 31 6b
        E 0 90 48 69
        E 0 90 49 6b
        E 0 90 60 69
        E 0 90 61 6b
        E 0 90 6c 69
        E 120 80 09 00
        E 0 80 30 00
        E 0 80 31 00
        E 0 80 48 00
        E 0 80 49 00
        E 0 80 60 00
        E 0 80 61 00
        E 0 80 6c 00
        E 360 90 0b 64
        E 0 90 18 6b
        E 0 90 30 6b
        E 0 90 31 6d
        E 0 90 48 6b
        E 0 90 49 6d
        E 0 90 60 6b
        E 0 90 61 6d
        E 0 90 6c 6b
        E 120 80 0b 00
        E 0 80 6c 00
        E 2280 80 18 00
        <X 960 0
          /wFbZW5kX3BnIHNvbmdfdHJhaW5lcl9wZ18yXQ==
        >
        E 0 80 30 00
        E 0 80 31 00
        E 0 80 48 00
        E 0 80 49 00
        E 0 80 60 00
        E 0 80 61 00
        <X 480 0
          /wFbYmVnaW5fcGcgc29uZ190cmFpbmVyX3BnXzNd
        >
        E 0 90 74 64
        E 480 90 32 6a
        E 0 90 4a 6a
        E 0 90 62 6a
        E 0 90 6c 68
        E 120 80 32 00
        E 0 80 4a 00
        E 0 80 62 00
        E 0 80 6c 00
        <X 360 0
          /wFbcGdfbm9ybSBzb25nX3RyYWluZXJfcGdfM10=
        >
        E 0 90 1a 68
        E 0 90 32 68
        E 0 90 4a 68
        E 0 90 62 68
        E 120 80 1a 00
        E 0 80 32 00
        E 0 80 4a 00
        E 0 80 62 00
        E 360 90 33 68
        E 0 90 4b 68
        E 0 90 63 68
        E 120 80 33 00
        E 0 80 4b 00
        E 0 80 63 00
        E 120 90 4b 6a
        E 0 90 63 6a
        E 120 80 4b 00
        E 0 80 63 00
        E 360 90 33 6a
        E 0 90 4b 6a
        E 0 90 63 6a
        E 120 80 33 00
        E 0 80 4b 00
        E 0 80 63 00
        E 360 90 4d 6d
        E 0 90 65 6d
        E 0 90 6c 6d
        E 120 80 4d 00
        E 0 80 65 00
        E 0 80 6c 00
        E 120 90 4d 70
        E 0 90 65 70
        E 120 80 4d 00
        E 0 80 65 00
        E 120 90 4d 70
        E 0 90 65 70
        E 120 80 4d 00
        E 0 80 65 00
        E 120 90 35 6d
        E 0 90 4d 6d
        E 0 90 65 6d
        E 120 80 35 00
        E 0 80 4d 00
        E 0 80 65 00
        E 120 90 35 6d
        E 0 90 4d 6d
        E 0 90 65 6d
        E 120 80 35 00
        E 0 80 4d 00
        E 0 80 65 00
        E 120 80 74 00
        E 480 90 32 6a
        E 0 90 4a 6a
        E 0 90 62 6a
        E 0 90 6c 68
        E 120 80 32 00
        E 0 80 4a 00
        E 0 80 62 00
        E 0 80 6c 00
        E 360 90 1a 68
        E 0 90 32 68
        E 0 90 4a 68
        E 0 90 62 68
        E 120 80 1a 00
        E 0 80 32 00
        E 0 80 4a 00
        E 0 80 62 00
        E 360 90 32 6a
        E 0 90 4a 6a
        E 0 90 62 6a
        E 120 80 32 00
        E 0 80 4a 00
        E 0 80 62 00
        E 120 90 4b 68
        E 0 90 63 68
        E 120 80 4b 00
        E 0 80 63 00
        E 360 90 4b 68
        E 0 90 63 68
        E 120 80 4b 00
        E 0 80 63 00
        E 120 90 32 6a
        E 0 90 4a 6a
        E 0 90 62 6a
        E 120 80 32 00
        E 0 80 4a 00
        E 0 80 62 00
        E 120 90 4a 6a
        E 0 90 62 6a
        E 120 80 4a 00
        E 0 80 62 00
        E 120 90 1a 68
        E 0 90 32 68
        E 0 90 4a 68
        E 0 90 62 68
        E 0 90 6c 66
        E 120 80 1a 00
        E 0 80 32 00
        E 0 80 4a 00
        E 0 80 62 00
        E 0 80 6c 00
        E 120 90 4a 68
        E 0 90 62 68
        E 120 80 4a 00
        E 0 80 62 00
        E 120 90 1a 66
        E 0 90 32 66
        E 0 90 4a 66
        E 0 90 62 66
        E 120 80 1a 00
        E 0 80 32 00
        E 0 80 4a 00
        E 0 80 62 00
        E 120 90 32 66
        E 0 90 4a 66
        E 0 90 62 66
        E 120 80 32 00
        E 0 80 4a 00
        E 0 80 62 00
        <X 120 0
          /wFbZW5kX3BnIHNvbmdfdHJhaW5lcl9wZ18zXQ==
        >
        E 480 90 32 6a
        E 0 90 4a 6a
        E 0 90 62 6a
        E 0 90 6c 68
        E 120 80 32 00
        E 0 80 4a 00
        E 0 80 62 00
        E 0 80 6c 00
        E 360 90 1a 68
        E 0 90 32 68
        E 0 90 4a 68
        E 0 90 62 68
        E 120 80 1a 00
        E 0 80 32 00
        E 0 80 4a 00
        E 0 80 62 00
        E 360 90 33 68
        E 0 90 4b 68
        E 0 90 63 68
        E 120 80 33 00
        E 0 80 4b 00
        E 0 80 63 00
        E 120 90 4b 6a
        E 0 90 63 6a
        E 120 80 4b 00
        E 0 80 63 00
        E 360 90 33 6a
        E 0 90 4b 6a
        E 0 90 63 6a
        E 120 80 33 00
        E 0 80 4b 00
        E 0 80 63 00
        E 360 90 4d 6d
        E 0 90 65 6d
        E 0 90 6c 6d
        E 120 80 4d 00
        E 0 80 65 00
        E 0 80 6c 00
        E 120 90 4d 70
        E 0 90 65 70
        E 120 80 4d 00
        E 0 80 65 00
        E 120 90 4d 70
        E 0 90 65 70
        E 120 80 4d 00
        E 0 80 65 00
        E 120 90 35 6d
        E 0 90 4d 6d
        E 0 90 65 6d
        E 120 80 35 00
        E 0 80 4d 00
        E 0 80 65 00
        E 120 90 35 6d
        E 0 90 4d 6d
        E 0 90 65 6d
        E 120 80 35 00
        E 0 80 4d 00
        E 0 80 65 00
        E 600 90 32 6a
        E 0 90 4a 6a
        E 0 90 62 6a
        E 0 90 6c 68
        E 120 80 32 00
        E 0 80 4a 00
        E 0 80 62 00
        E 0 80 6c 00
        E 360 90 1a 68
        E 0 90 32 68
        E 0 90 4a 68
        E 0 90 62 68
        E 120 80 1a 00
        E 0 80 32 00
        E 0 80 4a 00
        E 0 80 62 00
        E 360 90 32 6a
        E 0 90 4a 6a
        E 0 90 62 6a
        E 120 80 32 00
        E 0 80 4a 00
        E 0 80 62 00
        E 120 90 4b 68
        E 0 90 63 68
        E 120 80 4b 00
        E 0 80 63 00
        E 360 90 4b 68
        E 0 90 63 68
        E 120 80 4b 00
        E 0 80 63 00
        E 120 90 32 6a
        E 0 90 4a 6a
        E 0 90 62 6a
        E 120 80 32 00
        E 0 80 4a 00
        E 0 80 62 00
        E 120 90 4a 6a
        E 0 90 62 6a
        E 120 80 4a 00
        E 0 80 62 00
        E 120 90 1a 68
        E 0 90 32 68
        E 0 90 4a 68
        E 0 90 62 68
        E 120 80 1a 00
        E 0 80 32 00
        E 0 80 4a 00
        E 0 80 62 00
        E 120 90 4a 68
        E 0 90 62 68
        E 120 80 4a 00
        E 0 80 62 00
        E 120 90 32 6a
        E 0 90 4a 6a
        E 0 90 62 6a
        E 120 80 32 00
        E 0 80 4a 00
        E 0 80 62 00
        E 840 90 32 6a
        E 0 90 4a 6a
        E 0 90 62 6a
        E 0 90 6c 68
        E 120 80 32 00
        E 0 80 4a 00
        E 0 80 62 00
        E 0 80 6c 00
        E 360 90 1a 68
        E 0 90 32 68
        E 0 90 4a 68
        E 0 90 62 68
        E 120 80 1a 00
        E 0 80 32 00
        E 0 80 4a 00
        E 0 80 62 00
        E 360 90 32 6a
        E 0 90 4a 6a
        E 0 90 62 6a
        E 120 80 32 00
        E 0 80 4a 00
        E 0 80 62 00
        E 120 90 4b 6a
        E 0 90 63 6a
        E 120 80 4b 00
        E 0 80 63 00
        E 360 90 4b 6a
        E 0 90 63 6a
        E 120 80 4b 00
        E 0 80 63 00
        E 120 90 32 6a
        E 0 90 4a 6a
        E 0 90 62 6a
        E 120 80 32 00
        E 0 80 4a 00
        E 0 80 62 00
        E 120 90 4a 6a
        E 0 90 62 6a
        E 120 80 4a 00
        E 0 80 62 00
        E 120 90 1a 68
        E 0 90 32 68
        E 0 90 4a 68
        E 0 90 62 68
        E 120 80 1a 00
        E 0 80 32 00
        E 0 80 4a 00
        E 0 80 62 00
        E 120 90 4a 68
        E 0 90 62 68
        E 120 80 4a 00
        E 0 80 62 00
        E 120 90 32 6a
        E 0 90 4a 6a
        E 0 90 62 6a
        E 120 80 32 00
        E 0 80 4a 00
        E 0 80 62 00
        E 840 90 32 6a
        E 0 90 4a 6a
        E 0 90 62 6a
        E 0 90 6c 68
        E 120 80 32 00
        E 0 80 4a 00
        E 0 80 62 00
        E 0 80 6c 00
        E 360 90 1a 68
        E 0 90 32 68
        E 0 90 4a 68
        E 0 90 62 68
        E 120 80 1a 00
        E 0 80 32 00
        E 0 80 4a 00
        E 0 80 62 00
        E 360 90 32 6a
        E 0 90 4a 6a
        E 0 90 62 6a
        E 0 90 6c 6a
        E 120 80 32 00
        E 0 80 4a 00
        E 0 80 62 00
        E 0 80 6c 00
        E 120 90 4a 6d
        E 0 90 62 6d
        E 120 80 4a 00
        E 0 80 62 00
        E 120 90 4a 6d
        E 0 90 62 6d
        E 2400 80 4a 00
        E 0 80 62 00
        E 240 90 48 6b
        E 0 90 49 6d
        E 0 90 4f 64
        E 0 90 60 6b
        E 0 90 61 6d
        E 0 90 67 64
        E 0 90 6c 6b
        E 120 80 48 00
        E 0 80 49 00
        E 0 80 4f 00
        E 0 80 60 00
        E 0 80 61 00
        E 0 80 67 00
        E 0 80 6c 00
        E 120 90 0d 64
        E 0 90 30 6d
        E 0 90 31 6f
        E 0 90 48 6d
        E 0 90 49 6f
        E 0 90 4e 64
        E 0 90 60 6d
        E 0 90 61 6f
        E 0 90 66 64
        E 0 90 6c 6d
        E 120 80 0d 00
        E 0 80 30 00
        E 0 80 31 00
        E 0 80 48 00
        E 0 80 49 00
        E 0 80 4e 00
        E 0 80 60 00
        E 0 80 61 00
        E 0 80 66 00
        E 0 80 6c 00
        E 360 90 09 64
        E 0 90 30 69
        E 0 90 31 6b
        E 0 90 48 69
        E 0 90 49 6b
        E 0 90 60 69
        E 0 90 61 6b
        E 0 90 6c 69
        E 120 80 09 00
        E 0 80 30 00
        E 0 80 31 00
        E 0 80 48 00
        E 0 80 49 00
        E 0 80 60 00
        E 0 80 61 00
        E 0 80 6c 00
        E 360 90 08 64
        E 0 90 18 68
        E 0 90 30 68
        E 0 90 31 6a
        E 0 90 48 68
        E 0 90 49 6a
        E 0 90 60 68
        E 0 90 61 6a
        E 0 90 6c 68
        E 120 80 08 00
        E 0 80 6c 00
        E 2280 80 18 00
        E 0 80 30 00
        E 0 80 31 00
        E 0 80 48 00
        E 0 80 49 00
        E 0 80 60 00
        E 0 80 61 00
        E 240 90 0b 64
        E 0 90 48 6b
        E 0 90 49 6d
        E 0 90 4f 64
        E 0 90 60 6b
        E 0 90 61 6d
        E 0 90 67 64
        E 0 90 6c 6b
        E 120 80 0b 00
        E 0 80 48 00
        E 0 80 49 00
        E 0 80 4f 00
        E 0 80 60 00
        E 0 80 61 00
        E 0 80 67 00
        E 0 80 6c 00
        E 120 90 0d 64
        E 0 90 30 6d
        E 0 90 31 6f
        E 0 90 48 6d
        E 0 90 49 6f
        E 0 90 4e 64
        E 0 90 60 6d
        E 0 90 61 6f
        E 0 90 66 64
        E 0 90 6c 6d
        E 120 80 0d 00
        E 0 80 30 00
        E 0 80 31 00
        E 0 80 48 00
        E 0 80 49 00
        E 0 80 4e 00
        E 0 80 60 00
        E 0 80 61 00
        E 0 80 66 00
        E 0 80 6c 00
        E 360 90 09 64
        E 0 90 30 69
        E 0 90 31 6b
        E 0 90 48 69
        E 0 90 49 6b
        E 0 90 60 69
        E 0 90 61 6b
        E 0 90 6c 69
        E 120 80 09 00
        E 0 80 30 00
        E 0 80 31 00
        E 0 80 48 00
        E 0 80 49 00
        E 0 80 60 00
        E 0 80 61 00
        E 0 80 6c 00
        E 360 90 08 64
        E 0 90 18 68
        E 0 90 30 68
        E 0 90 31 6a
        E 0 90 48 68
        E 0 90 49 6a
        E 0 90 60 68
        E 0 90 61 6a
        E 0 90 6c 68
        E 120 80 08 00
        E 0 80 6c 00
        E 2280 80 18 00
        E 0 80 30 00
        E 0 80 31 00
        E 0 80 48 00
        E 0 80 49 00
        E 0 80 60 00
        E 0 80 61 00
        E 240 90 0b 64
        E 0 90 48 6b
        E 0 90 49 6d
        E 0 90 4f 64
        E 0 90 60 6b
        E 0 90 61 6d
        E 0 90 67 64
        E 0 90 6c 6b
        E 120 80 0b 00
        E 0 80 48 00
        E 0 80 49 00
        E 0 80 4f 00
        E 0 80 60 00
        E 0 80 61 00
        E 0 80 67 00
        E 0 80 6c 00
        E 120 90 0d 64
        E 0 90 30 6d
        E 0 90 31 6f
        E 0 90 48 6d
        E 0 90 49 6f
        E 0 90 4e 64
        E 0 90 60 6d
        E 0 90 61 6f
        E 0 90 66 64
        E 0 90 6c 6d
        E 120 80 0d 00
        E 0 80 30 00
        E 0 80 31 00
        E 0 80 48 00
        E 0 80 49 00
        E 0 80 4e 00
        E 0 80 60 00
        E 0 80 61 00
        E 0 80 66 00
        E 0 80 6c 00
        E 360 90 09 64
        E 0 90 30 69
        E 0 90 31 6b
        E 0 90 48 69
        E 0 90 49 6b
        E 0 90 60 69
        E 0 90 61 6b
        E 0 90 6c 69
        E 120 80 09 00
        E 0 80 30 00
        E 0 80 31 00
        E 0 80 48 00
        E 0 80 49 00
        E 0 80 60 00
        E 0 80 61 00
        E 0 80 6c 00
        E 360 90 08 64
        E 0 90 18 68
        E 0 90 30 68
        E 0 90 31 6a
        E 0 90 48 68
        E 0 90 49 6a
        E 0 90 60 68
        E 0 90 61 6a
        E 0 90 6c 68
        E 120 80 08 00
        E 0 80 6c 00
        E 2280 80 18 00
        E 0 80 30 00
        E 0 80 31 00
        E 0 80 48 00
        E 0 80 49 00
        E 0 80 60 00
        E 0 80 61 00
        E 240 90 0b 64
        E 0 90 48 6b
        E 0 90 49 6d
        E 0 90 4f 64
        E 0 90 60 6b
        E 0 90 61 6d
        E 0 90 67 64
        E 0 90 6c 6b
        E 120 80 0b 00
        E 0 80 48 00
        E 0 80 49 00
        E 0 80 4f 00
        E 0 80 60 00
        E 0 80 61 00
        E 0 80 67 00
        E 0 80 6c 00
        E 120 90 0d 64
        E 0 90 30 6d
        E 0 90 31 6f
        E 0 90 48 6d
        E 0 90 49 6f
        E 0 90 4e 64
        E 0 90 60 6d
        E 0 90 61 6f
        E 0 90 66 64
        E 0 90 6c 6d
        E 120 80 0d 00
        E 0 80 30 00
        E 0 80 31 00
        E 0 80 48 00
        E 0 80 49 00
        E 0 80 4e 00
        E 0 80 60 00
        E 0 80 61 00
        E 0 80 66 00
        E 0 80 6c 00
        E 360 90 09 64
        E 0 90 30 69
        E 0 90 31 6b
        E 0 90 48 69
        E 0 90 49 6b
        E 0 90 60 69
        E 0 90 61 6b
        E 0 90 6c 69
        E 120 80 09 00
        E 0 80 30 00
        E 0 80 31 00
        E 0 80 48 00
        E 0 80 49 00
        E 0 80 60 00
        E 0 80 61 00
        E 0 80 6c 00
        E 360 90 08 64
        E 0 90 18 68
        E 0 90 30 68
        E 0 90 31 6a
        E 0 90 48 68
        E 0 90 49 6a
        E 0 90 60 68
        E 0 90 61 6a
        E 0 90 6c 68
        E 120 80 08 00
        E 0 80 6c 00
        E 1800 90 74 64
        E 480 80 18 00
        E 0 80 30 00
        E 0 80 31 00
        E 0 80 48 00
        E 0 80 49 00
        E 0 80 60 00
        E 0 80 61 00
        E 240 90 0b 64
        E 0 90 48 6b
        E 0 90 49 6d
        E 0 90 4f 64
        E 0 90 60 6b
        E 0 90 61 6d
        E 0 90 67 64
        E 0 90 6c 6b
        E 120 80 0b 00
        E 0 80 48 00
        E 0 80 49 00
        E 0 80 4f 00
        E 0 80 60 00
        E 0 80 61 00
        E 0 80 67 00
        E 0 80 6c 00
        E 120 90 0d 64
        E 0 90 30 6d
        E 0 90 31 6f
        E 0 90 48 6d
        E 0 90 49 6f
        E 0 90 4e 64
        E 0 90 60 6d
        E 0 90 61 6f
        E 0 90 66 64
        E 0 90 6c 6d
        E 120 80 0d 00
        E 0 80 30 00
        E 0 80 31 00
        E 0 80 48 00
        E 0 80 49 00
        E 0 80 4e 00
        E 0 80 60 00
        E 0 80 61 00
        E 0 80 66 00
        E 0 80 6c 00
        E 360 90 09 64
        E 0 90 30 69
        E 0 90 31 6b
        E 0 90 48 69
        E 0 90 49 6b
        E 0 90 60 69
        E 0 90 61 6b
        E 0 90 6c 69
        E 120 80 09 00
        E 0 80 30 00
        E 0 80 31 00
        E 0 80 48 00
        E 0 80 49 00
        E 0 80 60 00
        E 0 80 61 00
        E 0 80 6c 00
        E 360 90 08 64
        E 0 90 18 68
        E 0 90 30 68
        E 0 90 31 6a
        E 0 90 48 68
        E 0 90 49 6a
        E 0 90 60 68
        E 0 90 61 6a
        E 0 90 6c 68
        E 120 80 74 00
        E 0 80 08 00
        E 0 80 6c 00
        E 2280 80 18 00
        E 0 80 30 00
        E 0 80 31 00
        E 0 80 48 00
        E 0 80 49 00
        E 0 80 60 00
        E 0 80 61 00
        E 240 90 0b 64
        E 0 90 48 6b
        E 0 90 49 6d
        E 0 90 4f 64
        E 0 90 60 6b
        E 0 90 61 6d
        E 0 90 67 64
        E 0 90 6c 6b
        E 120 80 0b 00
        E 0 80 48 00
        E 0 80 49 00
        E 0 80 4f 00
        E 0 80 60 00
        E 0 80 61 00
        E 0 80 67 00
        E 0 80 6c 00
        E 120 90 0d 64
        E 0 90 30 6d
        E 0 90 31 6f
        E 0 90 48 6d
        E 0 90 49 6f
        E 0 90 4e 64
        E 0 90 60 6d
        E 0 90 61 6f
        E 0 90 66 64
        E 0 90 6c 6d
        E 120 80 0d 00
        E 0 80 30 00
        E 0 80 31 00
        E 0 80 48 00
        E 0 80 49 00
        E 0 80 4e 00
        E 0 80 60 00
        E 0 80 61 00
        E 0 80 66 00
        E 0 80 6c 00
        E 360 90 09 64
        E 0 90 30 69
        E 0 90 31 6b
        E 0 90 48 69
        E 0 90 49 6b
        E 0 90 60 69
        E 0 90 61 6b
        E 0 90 6c 69
        E 120 80 09 00
        E 0 80 30 00
        E 0 80 31 00
        E 0 80 48 00
        E 0 80 49 00
        E 0 80 60 00
        E 0 80 61 00
        E 0 80 6c 00
        E 360 90 08 64
        E 0 90 18 68
        E 0 90 30 68
        E 0 90 31 6a
        E 0 90 48 68
        E 0 90 49 6a
        E 0 90 60 68
        E 0 90 61 6a
        E 0 90 6c 68
        E 120 80 08 00
        E 0 80 6c 00
        E 2280 80 18 00
        E 0 80 30 00
        E 0 80 31 00
        E 0 80 48 00
        E 0 80 49 00
        E 0 80 60 00
        E 0 80 61 00
        E 240 90 0b 64
        E 0 90 48 6b
        E 0 90 49 6d
        E 0 90 4f 64
        E 0 90 60 6b
        E 0 90 61 6d
        E 0 90 67 64
        E 0 90 6c 6b
        E 120 80 0b 00
        E 0 80 48 00
        E 0 80 49 00
        E 0 80 4f 00
        E 0 80 60 00
        E 0 80 61 00
        E 0 80 67 00
        E 0 80 6c 00
        E 120 90 0d 64
        E 0 90 30 6d
        E 0 90 31 6f
        E 0 90 48 6d
        E 0 90 49 6f
        E 0 90 4e 64
        E 0 90 60 6d
        E 0 90 61 6f
        E 0 90 66 64
        E 0 90 6c 6d
        E 120 80 0d 00
        E 0 80 30 00
        E 0 80 31 00
        E 0 80 48 00
        E 0 80 49 00
        E 0 80 4e 00
        E 0 80 60 00
        E 0 80 61 00
        E 0 80 66 00
        E 0 80 6c 00
        E 360 90 09 64
        E 0 90 30 69
        E 0 90 31 6b
        E 0 90 48 69
        E 0 90 49 6b
        E 0 90 60 69
        E 0 90 61 6b
        E 0 90 6c 69
        E 120 80 09 00
        E 0 80 30 00
        E 0 80 31 00
        E 0 80 48 00
        E 0 80 49 00
        E 0 80 60 00
        E 0 80 61 00
        E 0 80 6c 00
        E 360 90 08 64
        E 0 90 18 68
        E 0 90 30 68
        E 0 90 31 6a
        E 0 90 48 68
        E 0 90 49 6a
        E 0 90 60 68
        E 0 90 61 6a
        E 0 90 6c 68
        E 120 80 08 00
        E 0 80 6c 00
        E 2280 80 18 00
        E 0 80 30 00
        E 0 80 31 00
        E 0 80 48 00
        E 0 80 49 00
        E 0 80 60 00
        E 0 80 61 00
        E 240 90 0b 64
        E 0 90 48 6b
        E 0 90 49 6d
        E 0 90 4f 64
        E 0 90 60 6b
        E 0 90 61 6d
        E 0 90 67 64
        E 0 90 6c 6b
        E 120 80 0b 00
        E 0 80 48 00
        E 0 80 49 00
        E 0 80 4f 00
        E 0 80 60 00
        E 0 80 61 00
        E 0 80 67 00
        E 0 80 6c 00
        E 120 90 0d 64
        E 0 90 30 6d
        E 0 90 31 6f
        E 0 90 48 6d
        E 0 90 49 6f
        E 0 90 4e 64
        E 0 90 60 6d
        E 0 90 61 6f
        E 0 90 66 64
        E 0 90 6c 6d
        E 120 80 0d 00
        E 0 80 30 00
        E 0 80 31 00
        E 0 80 48 00
        E 0 80 49 00
        E 0 80 4e 00
        E 0 80 60 00
        E 0 80 61 00
        E 0 80 66 00
        E 0 80 6c 00
        E 360 90 09 64
        E 0 90 30 69
        E 0 90 31 6b
        E 0 90 48 69
        E 0 90 49 6b
        E 0 90 60 69
        E 0 90 61 6b
        E 0 90 6c 69
        E 120 80 09 00
        E 0 80 30 00
        E 0 80 31 00
        E 0 80 48 00
        E 0 80 49 00
        E 0 80 60 00
        E 0 80 61 00
        E 0 80 6c 00
        E 360 90 08 64
        E 0 90 18 68
        E 0 90 30 68
        E 0 90 31 6a
        E 0 90 48 68
        E 0 90 49 6a
        E 0 90 60 68
        E 0 90 61 6a
        E 0 90 6c 68
        E 120 80 08 00
        E 0 80 6c 00
        E 1800 80 18 00
        E 0 80 30 00
        E 0 80 31 00
        E 240 80 48 00
        E 0 80 49 00
        E 0 80 60 00
        E 0 80 61 00
        <X 240 0
          /wFbYmVnaW5fcGcgc29uZ190cmFpbmVyX3BnXzRd
        >
        E 0 90 1c 68
        E 0 90 34 68
        E 0 90 4c 68
        E 0 90 64 68
        E 120 80 1c 00
        E 0 80 34 00
        E 480 80 4c 00
        E 0 80 64 00
        E 120 90 34 68
        E 0 90 4c 68
        E 0 90 64 68
        E 120 80 34 00
        E 240 80 4c 00
        E 0 80 64 00
        E 120 90 4c 69
        E 0 90 64 69
        E 120 80 4c 00
        E 0 80 64 00
        E 120 90 1b 6a
        E 0 90 33 6a
        E 0 90 4b 6a
        E 0 90 63 6a
        E 480 80 1b 00
        E 0 80 33 00
        E 360 80 4b 00
        E 0 80 63 00
        E 120 90 4d 68
        E 0 90 65 68
        E 840 80 4d 00
        E 0 80 65 00
        E 120 90 1c 6b
        E 0 90 34 6b
        E 0 90 4c 6b
        E 0 90 64 6b
        E 120 80 1c 00
        E 0 80 34 00
        E 480 80 4c 00
        E 0 80 64 00
        E 120 90 34 69
        E 0 90 4c 69
        E 0 90 64 69
        E 720 80 34 00
        E 360 80 4c 00
        E 0 80 64 00
        E 120 90 1b 6a
        E 0 90 33 6a
        E 0 90 4b 6a
        E 0 90 63 6a
        E 480 80 1b 00
        E 0 80 33 00
        E 360 80 4b 00
        E 0 80 63 00
        E 120 90 4d 68
        E 0 90 65 68
        E 0 90 74 64
        E 840 80 4d 00
        E 0 80 65 00
        E 120 90 1c 6b
        E 0 90 34 6b
        E 0 90 4c 6b
        E 0 90 64 6b
        E 120 80 1c 00
        E 0 80 34 00
        E 480 80 4c 00
        E 0 80 64 00
        E 120 90 34 69
        E 0 90 4c 69
        E 0 90 64 69
        E 720 80 34 00
        E 360 80 4c 00
        E 0 80 64 00
        E 120 90 1b 6a
        E 0 90 33 6a
        E 0 90 4b 6a
        E 0 90 63 6a
        E 120 80 1b 00
        E 0 80 33 00
        E 240 80 4b 00
        E 0 80 63 00
        <X 120 0
          /wFbZW5kX3BnIHNvbmdfdHJhaW5lcl9wZ180XQ==
        >
        E 0 80 74 00
        E 0 90 32 6a
        E 0 90 4a 6a
        E 0 90 62 6a
        E 120 80 32 00
        E 0 80 4a 00
        E 0 80 62 00
        E 360 90 1a 68
        E 0 90 32 68
        E 0 90 4a 68
        E 0 90 62 68
        E 120 80 1a 00
        E 0 80 32 00
        E 0 80 4a 00
        E 0 80 62 00
        E 360 90 33 68
        E 0 90 4b 68
        E 0 90 63 68
        E 120 80 33 00
        E 0 80 4b 00
        E 0 80 63 00
        E 120 90 4b 6a
        E 0 90 63 6a
        E 120 80 4b 00
        E 0 80 63 00
        E 360 90 33 6a
        E 0 90 4b 6a
        E 0 90 63 6a
        E 120 80 33 00
        E 0 80 4b 00
        E 0 80 63 00
        E 360 90 4d 6d
        E 0 90 65 6d
        E 0 90 6c 6d
        E 120 80 4d 00
        E 0 80 65 00
        E 0 80 6c 00
        E 120 90 4d 70
        E 0 90 65 70
        E 120 80 4d 00
        E 0 80 65 00
        E 120 90 4d 70
        E 0 90 65 70
        E 120 80 4d 00
        E 0 80 65 00
        E 120 90 35 6d
        E 0 90 4d 6d
        E 0 90 65 6d
        E 120 80 35 00
        E 0 80 4d 00
        E 0 80 65 00
        E 120 90 4d 6d
        E 0 90 65 6d
        E 120 80 4d 00
        E 0 80 65 00
        E 600 90 32 6a
        E 0 90 4a 6a
        E 0 90 62 6a
        E 0 90 6c 68
        E 120 80 32 00
        E 0 80 4a 00
        E 0 80 62 00
        E 0 80 6c 00
        E 360 90 1a 68
        E 0 90 32 68
        E 0 90 4a 68
        E 0 90 62 68
        E 120 80 1a 00
        E 0 80 32 00
        E 0 80 4a 00
        E 0 80 62 00
        E 360 90 32 6a
        E 0 90 4a 6a
        E 0 90 62 6a
        E 120 80 32 00
        E 0 80 4a 00
        E 0 80 62 00
        E 120 90 4b 68
        E 0 90 63 68
        E 120 80 4b 00
        E 0 80 63 00
        E 360 90 4b 68
        E 0 90 63 68
        E 120 80 4b 00
        E 0 80 63 00
        E 120 90 32 6a
        E 0 90 4a 6a
        E 0 90 62 6a
        E 120 80 32 00
        E 0 80 4a 00
        E 0 80 62 00
        E 120 90 4a 6a
        E 0 90 62 6a
        E 120 80 4a 00
        E 0 80 62 00
        E 120 90 1a 68
        E 0 90 32 68
        E 0 90 4a 68
        E 0 90 62 68
        E 0 90 6c 66
        E 120 80 1a 00
        E 0 80 32 00
        E 0 80 4a 00
        E 0 80 62 00
        E 0 80 6c 00
        E 120 90 4a 68
        E 0 90 62 68
        E 120 80 4a 00
        E 0 80 62 00
        E 120 90 32 66
        E 0 90 4a 66
        E 0 90 62 66
        E 120 80 32 00
        E 0 80 4a 00
        E 0 80 62 00
        E 120 90 4a 66
        E 0 90 62 66
        E 120 80 4a 00
        E 0 80 62 00
        E 600 90 32 6a
        E 0 90 4a 6a
        E 0 90 62 6a
        E 0 90 6c 68
        E 120 80 32 00
        E 0 80 4a 00
        E 0 80 62 00
        E 0 80 6c 00
        E 360 90 1a 68
        E 0 90 32 68
        E 0 90 4a 68
        E 0 90 62 68
        E 120 80 1a 00
        E 0 80 32 00
        E 0 80 4a 00
        E 0 80 62 00
        E 360 90 33 68
        E 0 90 4b 68
        E 0 90 63 68
        E 120 80 33 00
        E 0 80 4b 00
        E 0 80 63 00
        E 120 90 4b 6a
        E 0 90 63 6a
        E 120 80 4b 00
        E 0 80 63 00
        E 360 90 33 6a
        E 0 90 4b 6a
        E 0 90 63 6a
        E 120 80 33 00
        E 0 80 4b 00
        E 0 80 63 00
        E 360 90 4d 6d
        E 0 90 65 6d
        E 0 90 6c 6d
        E 120 80 4d 00
        E 0 80 65 00
        E 0 80 6c 00
        E 120 90 4d 70
        E 0 90 65 70
        E 120 80 4d 00
        E 0 80 65 00
        E 120 90 4d 70
        E 0 90 65 70
        E 120 80 4d 00
        E 0 80 65 00
        E 120 90 35 6d
        E 0 90 4d 6d
        E 0 90 65 6d
        E 120 80 35 00
        E 0 80 4d 00
        E 0 80 65 00
        E 120 90 4d 6d
        E 0 90 65 6d
        E 120 80 4d 00
        E 0 80 65 00
        E 600 90 32 6a
        E 0 90 4a 6a
        E 0 90 62 6a
        E 0 90 6c 68
        E 120 80 32 00
        E 0 80 4a 00
        E 0 80 62 00
        E 0 80 6c 00
        E 360 90 1a 68
        E 0 90 32 68
        E 0 90 4a 68
        E 0 90 62 68
        E 120 80 1a 00
        E 0 80 32 00
        E 0 80 4a 00
        E 0 80 62 00
        E 360 90 32 6a
        E 0 90 4a 6a
        E 0 90 62 6a
        E 120 80 32 00
        E 0 80 4a 00
        E 0 80 62 00
        E 120 90 4b 68
        E 0 90 63 68
        E 120 80 4b 00
        E 0 80 63 00
        E 360 90 4b 68
        E 0 90 63 68
        E 120 80 4b 00
        E 0 80 63 00
        E 120 90 32 6a
        E 0 90 4a 6a
        E 0 90 62 6a
        E 120 80 32 00
        E 0 80 4a 00
        E 0 80 62 00
        E 120 90 4a 6a
        E 0 90 62 6a
        E 120 80 4a 00
        E 0 80 62 00
        E 120 90 1a 68
        E 0 90 32 68
        E 0 90 4a 68
        E 0 90 62 68
        E 120 80 1a 00
        E 0 80 32 00
        E 0 80 4a 00
        E 0 80 62 00
        E 120 90 4a 68
        E 0 90 62 68
        E 120 80 4a 00
        E 0 80 62 00
        E 120 90 32 6a
        E 0 90 4a 6a
        E 0 90 62 6a
        E 120 80 32 00
        E 0 80 4a 00
        E 0 80 62 00
        E 840 90 32 6a
        E 0 90 4a 6a
        E 0 90 62 6a
        E 120 80 32 00
        E 0 80 4a 00
        E 0 80 62 00
        E 360 90 1a 68
        E 0 90 32 68
        E 0 90 4a 68
        E 0 90 62 68
        E 120 80 1a 00
        E 0 80 32 00
        E 0 80 4a 00
        E 0 80 62 00
        E 360 90 32 6a
        E 0 90 4a 6a
        E 0 90 62 6a
        E 120 80 32 00
        E 0 80 4a 00
        E 0 80 62 00
        E 120 90 4b 6a
        E 0 90 63 6a
        E 120 80 4b 00
        E 0 80 63 00
        E 360 90 4b 6a
        E 0 90 63 6a
        E 120 80 4b 00
        E 0 80 63 00
        E 120 90 32 6a
        E 0 90 4a 6a
        E 0 90 62 6a
        E 120 80 32 00
        E 0 80 4a 00
        E 0 80 62 00
        E 120 90 4a 6a
        E 0 90 62 6a
        E 120 80 4a 00
        E 0 80 62 00
        E 120 90 1a 68
        E 0 90 32 68
        E 0 90 4a 68
        E 0 90 62 68
        E 120 80 1a 00
        E 0 80 32 00
        E 0 80 4a 00
        E 0 80 62 00
        E 120 90 4a 68
        E 0 90 62 68
        E 120 80 4a 00
        E 0 80 62 00
        E 120 90 32 6a
        E 0 90 4a 6a
        E 0 90 62 6a
        E 120 80 32 00
        E 0 80 4a 00
        E 0 80 62 00
        E 840 90 32 6a
        E 0 90 4a 6a
        E 0 90 62 6a
        E 120 80 32 00
        E 0 80 4a 00
        E 0 80 62 00
        E 360 90 1a 68
        E 0 90 32 68
        E 0 90 4a 68
        E 0 90 62 68
        E 120 80 1a 00
        E 0 80 32 00
        E 0 80 4a 00
        E 0 80 62 00
        E 360 90 32 6a
        E 0 90 4a 6a
        E 0 90 62 6a
        E 0 90 6c 6a
        E 120 80 32 00
        E 0 80 4a 00
        E 0 80 62 00
        E 0 80 6c 00
        E 120 90 4a 6d
        E 0 90 62 6d
        E 120 80 4a 00
        E 0 80 62 00
        E 120 90 4a 6d
        E 0 90 62 6d
        E 3600 80 4a 00
        E 0 80 62 00
        <X 240 0
          /wFbYmVnaW5fcGcgc29uZ190cmFpbmVyX3BnXzVd
        >
        E 0 90 1b 6a
        E 0 90 33 6a
        E 0 90 4b 6a
        E 0 90 63 6a
        E 0 90 73 64
        E 0 90 74 64
        E 480 80 1b 00
        E 0 80 33 00
        E 120 80 4b 00
        E 0 80 63 00
        E 120 90 4b 6a
        E 0 90 63 6a
        E 120 80 4b 00
        E 0 80 63 00
        E 120 90 1b 6d
        E 0 90 33 6d
        E 0 90 4b 6d
        E 0 90 63 6d
        E 120 80 1b 00
        E 0 80 33 00
        E 0 80 4b 00
        E 0 80 63 00
        E 120 90 4b 6d
        E 0 90 63 6d
        E 120 80 4b 00
        E 0 80 63 00
        E 120 90 33 6a
        E 0 90 4b 6a
        E 0 90 63 6a
        E 120 80 33 00
        E 0 80 4b 00
        E 0 80 63 00
        E 120 90 33 6a
        E 0 90 4b 6a
        E 0 90 63 6a
        E 120 80 33 00
        E 0 80 4b 00
        E 0 80 63 00
        <X 120 0
          /wFbcGdfbm9ybSBzb25nX3RyYWluZXJfcGdfNV0=
        >
        E 960 90 1c 6d
        E 0 90 34 6d
        E 0 90 4c 6d
        E 0 90 64 6d
        E 120 80 1c 00
        E 0 80 34 00
        E 0 80 4c 00
        E 0 80 64 00
        E 120 90 4c 6d
        E 0 90 64 6d
        E 120 80 4c 00
        E 0 80 64 00
        E 120 90 34 6b
        E 0 90 4c 6b
        E 0 90 64 6b
        E 120 80 34 00
        E 0 80 4c 00
        E 0 80 64 00
        E 120 90 4b 6d
        E 0 90 63 6d
        E 120 80 4b 00
        E 0 80 63 00
        E 120 90 1a 6b
        E 0 90 32 6b
        E 0 90 4a 6b
        E 0 90 62 6b
        E 120 80 1a 00
        E 0 80 32 00
        E 0 80 4a 00
        E 0 80 62 00
        E 120 90 32 6b
        E 0 90 4a 6b
        E 0 90 62 6b
        E 120 80 32 00
        E 0 80 4a 00
        E 0 80 62 00
        E 120 80 74 00
        E 240 90 4a 6b
        E 0 90 62 6b
        E 120 80 4a 00
        E 0 80 62 00
        E 120 90 1b 6d
        E 0 90 33 6d
        E 0 90 4b 6d
        E 0 90 4f 64
        E 0 90 63 6d
        E 0 90 67 64
        E 0 90 6c 6d
        E 120 80 1b 00
        E 0 80 33 00
        E 0 80 4b 00
        E 0 80 4f 00
        E 0 80 63 00
        E 0 80 67 00
        E 0 80 6c 00
        E 120 90 4b 6f
        E 0 90 4e 64
        E 0 90 63 6f
        E 0 90 66 64
        E 120 80 4b 00
        E 0 80 4e 00
        E 0 80 63 00
        E 0 80 66 00
        E 120 90 33 6f
        E 0 90 4b 6f
        E 0 90 63 6f
        E 120 80 33 00
        E 0 80 4b 00
        E 0 80 63 00
        E 120 90 33 6f
        E 0 90 4b 6f
        E 0 90 63 6f
        E 120 80 33 00
        E 0 80 4b 00
        E 0 80 63 00
        E 360 90 1b 6d
        E 0 90 33 6d
        E 0 90 4b 6d
        E 0 90 63 6d
        E 0 90 6c 6c
        E 120 80 1b 00
        E 0 80 33 00
        E 0 80 4b 00
        E 0 80 63 00
        E 0 80 6c 00
        E 360 90 33 6c
        E 0 90 4b 6c
        E 0 90 63 6c
        E 120 80 33 00
        E 0 80 4b 00
        E 0 80 63 00
        E 360 90 4b 6d
        E 0 90 63 6d
        E 120 80 4b 00
        E 0 80 63 00
        E 120 90 1b 6c
        E 0 90 33 6c
        E 0 90 4b 6c
        E 0 90 63 6c
        E 120 80 1b 00
        E 0 80 33 00
        E 0 80 4b 00
        E 0 80 63 00
        E 120 90 4a 6d
        E 0 90 62 6d
        E 120 80 4a 00
        E 0 80 62 00
        <X 120 0
          /wFbZW5kX3BnIHNvbmdfdHJhaW5lcl9wZ181XQ==
        >
        E 0 90 1b 6a
        E 0 90 33 6a
        E 0 90 4b 6a
        E 0 90 63 6a
        E 0 90 6c 6a
        E 120 80 6c 00
        E 360 80 1b 00
        E 0 80 33 00
        E 120 80 4b 00
        E 0 80 63 00
        E 120 90 4b 6a
        E 0 90 63 6a
        E 120 80 4b 00
        E 0 80 63 00
        E 120 90 1b 6d
        E 0 90 33 6d
        E 0 90 4b 6d
        E 0 90 63 6d
        E 120 80 1b 00
        E 0 80 33 00
        E 0 80 4b 00
        E 0 80 63 00
        E 120 90 4b 6d
        E 0 90 63 6d
        E 120 80 4b 00
        E 0 80 63 00
        E 120 90 33 6a
        E 0 90 4b 6a
        E 0 90 63 6a
        E 120 80 33 00
        E 0 80 4b 00
        E 0 80 63 00
        E 120 90 33 6a
        E 0 90 4b 6a
        E 0 90 63 6a
        E 120 80 33 00
        E 0 80 4b 00
        E 0 80 63 00
        E 840 90 4c 6b
        E 0 90 64 6b
        E 120 80 4c 00
        E 0 80 64 00
        E 120 90 1c 6d
        E 0 90 34 6d
        E 0 90 4c 6d
        E 0 90 64 6d
        E 120 80 1c 00
        E 0 80 34 00
        E 0 80 4c 00
        E 0 80 64 00
        E 120 90 4c 6d
        E 0 90 64 6d
        E 120 80 4c 00
        E 0 80 64 00
        E 120 90 34 6b
        E 0 90 4c 6b
        E 0 90 64 6b
        E 120 80 34 00
        E 0 80 4c 00
        E 0 80 64 00
        E 120 90 4b 6d
        E 0 90 63 6d
        E 120 80 4b 00
        E 0 80 63 00
        E 120 90 1a 6b
        E 0 90 32 6b
        E 0 90 4a 6b
        E 0 90 62 6b
        E 120 80 1a 00
        E 0 80 32 00
        E 0 80 4a 00
        E 0 80 62 00
        E 600 90 4a 6b
        E 0 90 62 6b
        E 120 80 4a 00
        E 0 80 62 00
        E 120 90 1b 6d
        E 0 90 33 6d
        E 0 90 4b 6d
        E 0 90 4f 64
        E 0 90 63 6d
        E 0 90 67 64
        E 0 90 6c 6d
        E 120 80 1b 00
        E 0 80 33 00
        E 0 80 4b 00
        E 0 80 4f 00
        E 0 80 63 00
        E 0 80 67 00
        E 0 80 6c 00
        E 120 90 4b 6f
        E 0 90 4e 64
        E 0 90 63 6f
        E 0 90 66 64
        E 120 80 4b 00
        E 0 80 4e 00
        E 0 80 63 00
        E 0 80 66 00
        E 120 90 33 6f
        E 0 90 4b 6f
        E 0 90 63 6f
        E 120 80 33 00
        E 0 80 4b 00
        E 0 80 63 00
        E 120 90 33 6f
        E 0 90 4b 6f
        E 0 90 63 6f
        E 120 80 33 00
        E 0 80 4b 00
        E 0 80 63 00
        E 360 90 1b 6d
        E 0 90 33 6d
        E 0 90 4b 6d
        E 0 90 63 6d
        E 0 90 6c 6c
        E 120 80 1b 00
        E 0 80 33 00
        E 0 80 4b 00
        E 0 80 63 00
        E 0 80 6c 00
        E 360 90 33 6c
        E 0 90 4b 6c
        E 0 90 63 6c
        E 120 80 33 00
        E 0 80 4b 00
        E 0 80 63 00
        E 360 90 4b 6d
        E 0 90 63 6d
        E 120 80 4b 00
        E 0 80 63 00
        E 120 90 1b 6c
        E 0 90 33 6c
        E 0 90 4b 6c
        E 0 90 63 6c
        E 120 80 1b 00
        E 0 80 33 00
        E 0 80 4b 00
        E 0 80 63 00
        E 120 90 4a 6d
        E 0 90 62 6d
        E 120 80 4a 00
        E 0 80 62 00
        E 120 90 1b 6a
        E 0 90 33 6a
        E 0 90 4b 6a
        E 0 90 63 6a
        E 0 90 6c 6a
        E 120 80 6c 00
        E 360 80 1b 00
        E 0 80 33 00
        E 120 80 4b 00
        E 0 80 63 00
        E 120 90 4b 6a
        E 0 90 63 6a
        E 120 80 4b 00
        E 0 80 63 00
        E 120 90 1b 6d
        E 0 90 33 6d
        E 0 90 4b 6d
        E 0 90 63 6d
        E 120 80 1b 00
        E 0 80 33 00
        E 0 80 4b 00
        E 0 80 63 00
        E 120 90 4b 6d
        E 0 90 63 6d
        E 120 80 4b 00
        E 0 80 63 00
        E 120 90 33 6a
        E 0 90 4b 6a
        E 0 90 63 6a
        E 120 80 33 00
        E 0 80 4b 00
        E 0 80 63 00
        E 120 90 33 6a
        E 0 90 4b 6a
        E 0 90 63 6a
        E 120 80 33 00
        E 0 80 4b 00
        E 0 80 63 00
        E 840 90 4c 6b
        E 0 90 64 6b
        E 120 80 4c 00
        E 0 80 64 00
        E 120 90 1c 6d
        E 0 90 34 6d
        E 0 90 4c 6d
        E 0 90 64 6d
        E 120 80 1c 00
        E 0 80 34 00
        E 0 80 4c 00
        E 0 80 64 00
        E 120 90 4c 6d
        E 0 90 64 6d
        E 120 80 4c 00
        E 0 80 64 00
        E 120 90 34 6b
        E 0 90 4c 6b
        E 0 90 64 6b
        E 120 80 34 00
        E 0 80 4c 00
        E 0 80 64 00
        E 120 90 4b 6d
        E 0 90 63 6d
        E 120 80 4b 00
        E 0 80 63 00
        E 120 90 1a 6b
        E 0 90 32 6b
        E 0 90 4a 6b
        E 0 90 62 6b
        E 0 90 74 64
        E 120 80 1a 00
        E 0 80 32 00
        E 0 80 4a 00
        E 0 80 62 00
        E 600 90 4a 6b
        E 0 90 62 6b
        E 120 80 4a 00
        E 0 80 62 00
        E 120 90 1b 6d
        E 0 90 33 6d
        E 0 90 4b 6d
        E 0 90 4f 64
        E 0 90 63 6d
        E 0 90 67 64
        E 0 90 6c 6d
        E 120 80 1b 00
        E 0 80 33 00
        E 0 80 4b 00
        E 0 80 4f 00
        E 0 80 63 00
        E 0 80 67 00
        E 0 80 6c 00
        E 120 90 4b 6f
        E 0 90 4e 64
        E 0 90 63 6f
        E 0 90 66 64
        E 120 80 4b 00
        E 0 80 4e 00
        E 0 80 63 00
        E 0 80 66 00
        E 120 90 33 6f
        E 0 90 4b 6f
        E 0 90 63 6f
        E 120 80 33 00
        E 0 80 4b 00
        E 0 80 63 00
        E 120 90 33 6f
        E 0 90 4b 6f
        E 0 90 63 6f
        E 120 80 33 00
        E 0 80 4b 00
        E 0 80 63 00
        E 360 90 1b 6d
        E 0 90 33 6d
        E 0 90 4b 6d
        E 0 90 63 6d
        E 0 90 6c 6c
        E 120 80 1b 00
        E 0 80 33 00
        E 0 80 4b 00
        E 0 80 63 00
        E 0 80 6c 00
        E 360 90 33 6c
        E 0 90 4b 6c
        E 0 90 63 6c
        E 120 80 33 00
        E 0 80 4b 00
        E 0 80 63 00
        E 360 90 4b 6d
        E 0 90 63 6d
        E 120 80 4b 00
        E 0 80 63 00
        E 120 90 1b 6c
        E 0 90 33 6c
        E 0 90 4b 6c
        E 0 90 63 6c
        E 120 80 1b 00
        E 0 80 33 00
        E 0 80 4b 00
        E 0 80 63 00
        E 120 90 4a 6d
        E 0 90 62 6d
        E 120 80 4a 00
        E 0 80 62 00
        E 120 90 1b 6a
        E 0 90 33 6a
        E 0 90 4b 6a
        E 0 90 63 6a
        E 0 90 6c 6a
        E 120 80 74 00
        E 0 80 6c 00
        E 360 80 1b 00
        E 0 80 33 00
        E 120 80 4b 00
        E 0 80 63 00
        E 120 90 4b 6a
        E 0 90 63 6a
        E 120 80 4b 00
        E 0 80 63 00
        E 120 90 1b 6d
        E 0 90 33 6d
        E 0 90 4b 6d
        E 0 90 63 6d
        E 120 80 1b 00
        E 0 80 33 00
        E 0 80 4b 00
        E 0 80 63 00
        E 120 90 4b 6d
        E 0 90 63 6d
        E 120 80 4b 00
        E 0 80 63 00
        E 120 90 33 6a
        E 0 90 4b 6a
        E 0 90 63 6a
        E 120 80 33 00
        E 0 80 4b 00
        E 0 80 63 00
        E 120 90 33 6a
        E 0 90 4b 6a
        E 0 90 63 6a
        E 120 80 33 00
        E 0 80 4b 00
        E 0 80 63 00
        E 840 90 4c 6b
        E 0 90 64 6b
        E 120 80 4c 00
        E 0 80 64 00
        E 120 90 1c 6d
        E 0 90 34 6d
        E 0 90 4c 6d
        E 0 90 64 6d
        E 120 80 1c 00
        E 0 80 34 00
        E 0 80 4c 00
        E 0 80 64 00
        E 120 90 4c 6d
        E 0 90 64 6d
        E 120 80 4c 00
        E 0 80 64 00
        E 120 90 34 6b
        E 0 90 4c 6b
        E 0 90 64 6b
        E 120 80 34 00
        E 0 80 4c 00
        E 0 80 64 00
        E 120 90 4b 6d
        E 0 90 63 6d
        E 120 80 4b 00
        E 0 80 63 00
        E 120 90 1a 6b
        E 0 90 32 6b
        E 0 90 4a 6b
        E 0 90 62 6b
        E 120 80 1a 00
        E 0 80 32 00
        E 0 80 4a 00
        E 0 80 62 00
        E 600 90 4a 6b
        E 0 90 62 6b
        E 120 80 4a 00
        E 0 80 62 00
        E 120 90 1b 6d
        E 0 90 33 6d
        E 0 90 4b 6d
        E 0 90 4f 64
        E 0 90 63 6d
        E 0 90 67 64
        E 0 90 6c 6d
        E 120 80 1b 00
        E 0 80 33 00
        E 0 80 4b 00
        E 0 80 4f 00
        E 0 80 63 00
        E 0 80 67 00
        E 0 80 6c 00
        E 120 90 4b 6f
        E 0 90 4e 64
        E 0 90 63 6f
        E 0 90 66 64
        E 120 80 4b 00
        E 0 80 4e 00
        E 0 80 63 00
        E 0 80 66 00
        E 120 90 33 6f
        E 0 90 4b 6f
        E 0 90 63 6f
        E 120 80 33 00
        E 0 80 4b 00
        E 0 80 63 00
        E 120 90 33 6f
        E 0 90 4b 6f
        E 0 90 63 6f
        E 120 80 33 00
        E 0 80 4b 00
        E 0 80 63 00
        E 360 90 1b 6d
        E 0 90 33 6d
        E 0 90 4b 6d
        E 0 90 63 6d
        E 0 90 6c 6c
        E 120 80 1b 00
        E 0 80 33 00
        E 0 80 4b 00
        E 0 80 63 00
        E 0 80 6c 00
        E 360 90 33 6c
        E 0 90 4b 6c
        E 0 90 63 6c
        E 120 80 33 00
        E 0 80 4b 00
        E 0 80 63 00
        E 360 90 4b 6d
        E 0 90 63 6d
        E 120 80 4b 00
        E 0 80 63 00
        E 120 90 1b 6c
        E 0 90 33 6c
        E 0 90 4b 6c
        E 0 90 63 6c
        E 120 80 1b 00
        E 0 80 33 00
        E 0 80 4b 00
        E 0 80 63 00
        E 120 90 4a 6d
        E 0 90 62 6d
        E 120 80 4a 00
        E 0 80 62 00
        E 600 90 32 6a
        E 0 90 4a 6a
        E 0 90 62 6a
        E 0 90 6c 68
        E 120 80 32 00
        E 0 80 4a 00
        E 0 80 62 00
        E 0 80 6c 00
        E 360 90 1a 68
        E 0 90 32 68
        E 0 90 4a 68
        E 0 90 62 68
        E 120 80 1a 00
        E 0 80 32 00
        E 0 80 4a 00
        E 0 80 62 00
        E 360 90 33 68
        E 0 90 4b 68
        E 0 90 63 68
        E 120 80 33 00
        E 0 80 4b 00
        E 0 80 63 00
        E 120 90 4b 6a
        E 0 90 63 6a
        E 120 80 4b 00
        E 0 80 63 00
        E 360 90 33 6a
        E 0 90 4b 6a
        E 0 90 63 6a
        E 120 80 33 00
        E 0 80 4b 00
        E 0 80 63 00
        E 360 90 4b 6a
        E 0 90 63 6a
        E 120 80 4b 00
        E 0 80 63 00
        E 120 90 1a 6a
        E 0 90 32 6a
        E 0 90 4a 6a
        E 0 90 62 6a
        E 120 80 1a 00
        E 0 80 32 00
        E 0 80 4a 00
        E 0 80 62 00
        E 120 90 4a 6a
        E 0 90 62 6a
        E 120 80 4a 00
        E 0 80 62 00
        E 120 90 32 68
        E 0 90 4a 68
        E 0 90 62 68
        E 120 80 32 00
        E 0 80 4a 00
        E 0 80 62 00
        E 120 90 49 6b
        E 0 90 61 6b
        E 120 80 49 00
        E 0 80 61 00
        E 600 90 32 6a
        E 0 90 4a 6a
        E 0 90 62 6a
        E 120 80 32 00
        E 0 80 4a 00
        E 0 80 62 00
        E 360 90 1a 68
        E 0 90 32 68
        E 0 90 4a 68
        E 0 90 62 68
        E 120 80 1a 00
        E 0 80 32 00
        E 0 80 4a 00
        E 0 80 62 00
        E 360 90 32 6a
        E 0 90 4a 6a
        E 0 90 62 6a
        E 120 80 32 00
        E 0 80 4a 00
        E 0 80 62 00
        E 120 90 4b 68
        E 0 90 63 68
        E 120 80 4b 00
        E 0 80 63 00
        E 360 90 4b 68
        E 0 90 63 68
        E 120 80 4b 00
        E 0 80 63 00
        E 120 90 32 6a
        E 0 90 4a 6a
        E 0 90 62 6a
        E 120 80 32 00
        E 0 80 4a 00
        E 0 80 62 00
        E 120 90 4a 6a
        E 0 90 62 6a
        E 120 80 4a 00
        E 0 80 62 00
        E 120 90 1a 68
        E 0 90 32 68
        E 0 90 4a 68
        E 0 90 62 68
        E 120 80 1a 00
        E 0 80 32 00
        E 0 80 4a 00
        E 0 80 62 00
        E 120 90 4a 68
        E 0 90 62 68
        E 120 80 4a 00
        E 0 80 62 00
        E 120 90 32 6a
        E 0 90 4a 6a
        E 0 90 62 6a
        E 120 80 32 00
        E 0 80 4a 00
        E 0 80 62 00
        E 840 90 32 6a
        E 0 90 4a 6a
        E 0 90 62 6a
        E 120 80 32 00
        E 0 80 4a 00
        E 0 80 62 00
        E 360 90 1a 68
        E 0 90 32 68
        E 0 90 4a 68
        E 0 90 62 68
        E 120 80 1a 00
        E 0 80 32 00
        E 0 80 4a 00
        E 0 80 62 00
        E 360 90 33 68
        E 0 90 4b 68
        E 0 90 63 68
        E 120 80 33 00
        E 0 80 4b 00
        E 0 80 63 00
        E 120 90 4b 6a
        E 0 90 63 6a
        E 120 80 4b 00
        E 0 80 63 00
        E 360 90 33 6a
        E 0 90 4b 6a
        E 0 90 63 6a
        E 120 80 33 00
        E 0 80 4b 00
        E 0 80 63 00
        E 360 90 4b 6a
        E 0 90 63 6a
        E 120 80 4b 00
        E 0 80 63 00
        E 120 90 1a 6a
        E 0 90 32 6a
        E 0 90 4a 6a
        E 0 90 62 6a
        E 120 80 1a 00
        E 0 80 32 00
        E 0 80 4a 00
        E 0 80 62 00
        E 120 90 4a 6a
        E 0 90 62 6a
        E 120 80 4a 00
        E 0 80 62 00
        E 120 90 32 68
        E 0 90 4a 68
        E 0 90 62 68
        E 120 80 32 00
        E 0 80 4a 00
        E 0 80 62 00
        E 120 90 49 6b
        E 0 90 61 6b
        E 120 80 49 00
        E 0 80 61 00
        E 600 90 32 6a
        E 0 90 4a 6a
        E 0 90 62 6a
        E 120 80 32 00
        E 0 80 4a 00
        E 0 80 62 00
        E 360 90 1a 68
        E 0 90 32 68
        E 0 90 4a 68
        E 0 90 62 68
        E 120 80 1a 00
        E 0 80 32 00
        E 0 80 4a 00
        E 0 80 62 00
        E 360 90 32 6a
        E 0 90 4a 6a
        E 0 90 62 6a
        E 120 80 32 00
        E 0 80 4a 00
        E 0 80 62 00
        E 120 90 4b 68
        E 0 90 63 68
        E 120 80 4b 00
        E 0 80 63 00
        E 360 90 4b 68
        E 0 90 63 68
        E 120 80 4b 00
        E 0 80 63 00
        E 120 90 32 6a
        E 0 90 4a 6a
        E 0 90 62 6a
        E 120 80 32 00
        E 0 80 4a 00
        E 0 80 62 00
        E 120 90 4a 6a
        E 0 90 62 6a
        E 120 80 4a 00
        E 0 80 62 00
        E 120 90 1a 68
        E 0 90 32 68
        E 0 90 4a 68
        E 0 90 62 68
        E 120 80 1a 00
        E 0 80 32 00
        E 0 80 4a 00
        E 0 80 62 00
        E 120 90 4a 68
        E 0 90 62 68
        E 120 80 4a 00
        E 0 80 62 00
        E 120 90 32 6a
        E 0 90 4a 6a
        E 0 90 62 6a
        E 120 80 73 00
        E 0 80 32 00
        E 0 80 4a 00
        E 0 80 62 00
        E 360 90 74 64
        E 480 90 32 6a
        E 0 90 4a 6a
        E 0 90 62 6a
        E 120 80 32 00
        E 0 80 4a 00
        E 0 80 62 00
        E 360 90 1a 68
        E 0 90 32 68
        E 0 90 4a 68
        E 0 90 62 68
        E 120 80 1a 00
        E 0 80 32 00
        E 0 80 4a 00
        E 0 80 62 00
        E 360 90 33 68
        E 0 90 4b 68
        E 0 90 63 68
        E 120 80 33 00
        E 0 80 4b 00
        E 0 80 63 00
        E 120 90 4b 6a
        E 0 90 63 6a
        E 120 80 4b 00
        E 0 80 63 00
        E 360 90 33 6a
        E 0 90 4b 6a
        E 0 90 63 6a
        E 120 80 33 00
        E 0 80 4b 00
        E 0 80 63 00
        E 360 90 4d 6d
        E 0 90 65 6d
        E 0 90 6c 6d
        E 120 80 4d 00
        E 0 80 65 00
        E 0 80 6c 00
        E 120 90 4d 70
        E 0 90 65 70
        E 120 80 4d 00
        E 0 80 65 00
        E 120 90 4d 70
        E 0 90 65 70
        E 120 80 4d 00
        E 0 80 65 00
        E 120 90 35 6d
        E 0 90 4d 6d
        E 0 90 65 6d
        E 120 80 35 00
        E 0 80 4d 00
        E 0 80 65 00
        E 120 90 35 6d
        E 0 90 4d 6d
        E 0 90 65 6d
        E 120 80 35 00
        E 0 80 4d 00
        E 0 80 65 00
        E 240 80 74 00
        E 360 90 32 6a
        E 0 90 4a 6a
        E 0 90 62 6a
        E 0 90 6c 68
        E 120 80 32 00
        E 0 80 4a 00
        E 0 80 62 00
        E 0 80 6c 00
        E 360 90 1a 68
        E 0 90 32 68
        E 0 90 4a 68
        E 0 90 62 68
        E 120 80 1a 00
        E 0 80 32 00
        E 0 80 4a 00
        E 0 80 62 00
        E 360 90 32 6a
        E 0 90 4a 6a
        E 0 90 62 6a
        E 120 80 32 00
        E 0 80 4a 00
        E 0 80 62 00
        E 120 90 4b 68
        E 0 90 63 68
        E 120 80 4b 00
        E 0 80 63 00
        E 360 90 4b 68
        E 0 90 63 68
        E 120 80 4b 00
        E 0 80 63 00
        E 120 90 32 6a
        E 0 90 4a 6a
        E 0 90 62 6a
        E 120 80 32 00
        E 0 80 4a 00
        E 0 80 62 00
        E 120 90 4a 6a
        E 0 90 62 6a
        E 120 80 4a 00
        E 0 80 62 00
        E 120 90 1a 68
        E 0 90 32 68
        E 0 90 4a 68
        E 0 90 62 68
        E 120 80 1a 00
        E 0 80 32 00
        E 0 80 4a 00
        E 0 80 62 00
        E 120 90 4a 68
        E 0 90 62 68
        E 120 80 4a 00
        E 0 80 62 00
        E 120 90 1a 6a
        E 0 90 32 6a
        E 0 90 4a 6a
        E 0 90 62 6a
        E 120 80 1a 00
        E 0 80 32 00
        E 0 80 4a 00
        E 0 80 62 00
        E 840 90 32 6a
        E 0 90 4a 6a
        E 0 90 62 6a
        E 120 80 32 00
        E 0 80 4a 00
        E 0 80 62 00
        E 360 90 1a 68
        E 0 90 32 68
        E 0 90 4a 68
        E 0 90 62 68
        E 120 80 1a 00
        E 0 80 32 00
        E 0 80 4a 00
        E 0 80 62 00
        E 360 90 33 68
        E 0 90 4b 68
        E 0 90 63 68
        E 120 80 33 00
        E 0 80 4b 00
        E 0 80 63 00
        E 120 90 4b 6a
        E 0 90 63 6a
        E 120 80 4b 00
        E 0 80 63 00
        E 360 90 33 6a
        E 0 90 4b 6a
        E 0 90 63 6a
        E 120 80 33 00
        E 0 80 4b 00
        E 0 80 63 00
        E 360 90 4d 6d
        E 0 90 65 6d
        E 0 90 6c 6d
        E 120 80 4d 00
        E 0 80 65 00
        E 0 80 6c 00
        E 120 90 4d 70
        E 0 90 65 70
        E 120 80 4d 00
        E 0 80 65 00
        E 120 90 4d 70
        E 0 90 65 70
        E 120 80 4d 00
        E 0 80 65 00
        E 120 90 35 6d
        E 0 90 4d 6d
        E 0 90 65 6d
        E 120 80 35 00
        E 0 80 4d 00
        E 0 80 65 00
        E 120 90 35 6d
        E 0 90 4d 6d
        E 0 90 65 6d
        E 120 80 35 00
        E 0 80 4d 00
        E 0 80 65 00
        E 600 90 32 6a
        E 0 90 4a 6a
        E 0 90 62 6a
        E 0 90 6c 68
        E 120 80 32 00
        E 0 80 4a 00
        E 0 80 62 00
        E 0 80 6c 00
        E 360 90 1a 68
        E 0 90 32 68
        E 0 90 4a 68
        E 0 90 62 68
        E 120 80 1a 00
        E 0 80 32 00
        E 0 80 4a 00
        E 0 80 62 00
        E 360 90 32 6a
        E 0 90 4a 6a
        E 0 90 62 6a
        E 120 80 32 00
        E 0 80 4a 00
        E 0 80 62 00
        E 120 90 4b 68
        E 0 90 63 68
        E 120 80 4b 00
        E 0 80 63 00
        E 360 90 4b 68
        E 0 90 63 68
        E 120 80 4b 00
        E 0 80 63 00
        E 120 90 32 6a
        E 0 90 4a 6a
        E 0 90 62 6a
        E 120 80 32 00
        E 0 80 4a 00
        E 0 80 62 00
        E 120 90 4a 6a
        E 0 90 62 6a
        E 120 80 4a 00
        E 0 80 62 00
        E 120 90 1a 68
        E 0 90 32 68
        E 0 90 4a 68
        E 0 90 62 68
        E 120 80 1a 00
        E 0 80 32 00
        E 0 80 4a 00
        E 0 80 62 00
        E 120 90 4a 68
        E 0 90 62 68
        E 120 80 4a 00
        E 0 80 62 00
        E 120 90 32 6a
        E 0 90 4a 6a
        E 0 90 62 6a
        E 120 80 32 00
        E 0 80 4a 00
        E 0 80 62 00
        E 840 90 32 6a
        E 0 90 4a 6a
        E 0 90 62 6a
        E 120 80 32 00
        E 0 80 4a 00
        E 0 80 62 00
        E 360 90 1a 68
        E 0 90 32 68
        E 0 90 4a 68
        E 0 90 62 68
        E 120 80 1a 00
        E 0 80 32 00
        E 0 80 4a 00
        E 0 80 62 00
        E 360 90 32 6a
        E 0 90 4a 6a
        E 0 90 62 6a
        E 120 80 32 00
        E 0 80 4a 00
        E 0 80 62 00
        E 120 90 4b 6a
        E 0 90 63 6a
        E 120 80 4b 00
        E 0 80 63 00
        E 360 90 4b 6a
        E 0 90 63 6a
        E 120 80 4b 00
        E 0 80 63 00
        E 120 90 32 6a
        E 0 90 4a 6a
        E 0 90 62 6a
        E 120 80 32 00
        E 0 80 4a 00
        E 0 80 62 00
        E 120 90 4a 6a
        E 0 90 62 6a
        E 120 80 4a 00
        E 0 80 62 00
        E 120 90 1a 68
        E 0 90 32 68
        E 0 90 4a 68
        E 0 90 62 68
        E 120 80 1a 00
        E 0 80 32 00
        E 0 80 4a 00
        E 0 80 62 00
        E 120 90 4a 68
        E 0 90 62 68
        E 120 80 4a 00
        E 0 80 62 00
        E 120 90 32 6a
        E 0 90 4a 6a
        E 0 90 62 6a
        E 120 80 32 00
        E 0 80 4a 00
        E 0 80 62 00
        E 840 90 32 6a
        E 0 90 4a 6a
        E 0 90 62 6a
        E 120 80 32 00
        E 0 80 4a 00
        E 0 80 62 00
        E 360 90 1a 68
        E 0 90 32 68
        E 0 90 4a 68
        E 0 90 62 68
        E 120 80 1a 00
        E 0 80 32 00
        E 0 80 4a 00
        E 0 80 62 00
        E 360 90 32 6a
        E 0 90 4a 6a
        E 0 90 62 6a
        E 120 80 32 00
        E 0 80 4a 00
        E 0 80 62 00
        E 120 90 4b 6a
        E 0 90 63 6a
        E 120 80 4b 00
        E 0 80 63 00
        E 120 90 1b 6a
        E 0 90 33 6a
        E 0 90 4b 6a
        E 0 90 63 6a
        E 5759 80 63 00
        E 0 80 1b 00
        E 0 80 33 00
        E 0 80 4b 00
        E 3841 b0 7b 00
        GUID {13873455-CD03-44C7-8063-D3E51609C358}
        IGNTEMPO 0 120.00000000 4 4
        SRCCOLOR 116
        VELLANE 132 100 0
        COLORMAP "C:\Program Files\REAPER (x64)\Data\color_maps\rockband_guitarbass.png"
        CFGEDITVIEW 0.000000 0.003329 7 12 0 0 0
        CFGEDIT 1 1 0 1 1 0 1 1 1 1 1 0.12500000 53 44 1253 718 0 2 0 1 0.00000000 0 1 0 0 0.500000 0 0 1.000000 64
        KEYSNAP 0 7 "102030050700" 0 "Pentatonic"
        EVTFILTER 0 -1 -1 -1 -1 0 1 0 0 -1.00000000 -1.00000000
      >
    >
  >
  <TRACK '{7D7E470A-6D07-4940-939E-A0D91181C833}'
    NAME "EVENTS"
    PEAKCOL 16576
    BEAT -1
    AUTOMODE 0
    VOLPAN 1.00000000000000 0.00000000000000 -1.00000000000000 -1.00000000000000 1.00000000000000
    MUTESOLO 0 0 0
    IPHASE 0
    ISBUS 0 0
    BUSCOMP 0 0
    SHOWINMIX 1 0.666700 0.500000 1 0.500000 -1 -1 -1
    FREEMODE 0
    SEL 0
    REC 0 0 0 0 0 0 0
    VU 2
    TRACKHEIGHT 0 0
    INQ 0 0 0 0.5000000000 100 0 0 100
    NCHAN 2
    FX 1
    TRACKID {7D7E470A-6D07-4940-939E-A0D91181C833}
    PERF 0
    MIDIOUT -1
    <MIDINOTENAMES
      0 26 "Hi-Hat"
      0 25 "Snare"
      0 24 "Kick"
    >
    MAINSEND 1 0
    <FXCHAIN
      SHOW 0
      LASTSEL 0
      DOCKED 0
    >
    <ITEM
      POSITION 0.00000000000000
      SNAPOFFS 0.00000000000000
      LENGTH 194.42554622500001
      LOOP 0
      ALLTAKES 0
      SEL 0
      FADEIN 1 0.000000 0.000000 1 0
      FADEOUT 1 0.000000 0.000000 1 0
      MUTE 0
      IGUID {1932595D-EF97-4265-9191-1520BA3C409E}
      IID 9
      NAME "EVENTS"
      VOLPAN 1.000000 0.000000 1.000000 -1.000000
      SOFFS 0.00000000000000 0.00000000000000
      PLAYRATE 1.00000000000000 1 0.00000000000000 -1
      CHANMODE 0
      GUID {18FBE479-32C4-4387-8C0D-C4F2804251D1}
      <SOURCE MIDI
        HASDATA 1 480 QN
        POOLEDEVTS {836A6054-7786-40BB-8A26-2DD1C84206A1}
        <X 0 0
          /wNFVkVOVFM=
        >
        <X 3840 0
          /wFbcHJjX3ZlcnNlXzFd
        >
        <X 1920 0
          /wFbY3Jvd2Rfbm9ybWFsXQ==
        >
        <X 0 0
          /wFbbXVzaWNfc3RhcnRd
        >
        <X 0 0
          /wFbY3Jvd2Rfbm9jbGFwXQ==
        >
        <X 30720 0
          /wFbY3Jvd2RfY2xhcF0=
        >
        <X 7680 0
          /wFbY3Jvd2RfaW50ZW5zZV0=
        >
        <X 0 0
          /wFbcHJjX2Nob3J1c18xXQ==
        >
        <X 21360 0
          /wFbY3Jvd2Rfbm9jbGFwXQ==
        >
        <X 3600 0
          /wFbcHJjX3ZlcnNlXzJd
        >
        <X 0 0
          /wFbY3Jvd2Rfbm9ybWFsXQ==
        >
        <X 30720 0
          /wFbY3Jvd2RfY2xhcF0=
        >
        <X 7680 0
          /wFbcHJjX2Nob3J1c18yXQ==
        >
        <X 0 0
          /wFbY3Jvd2RfaW50ZW5zZV0=
        >
        <X 21360 0
          /wFbY3Jvd2Rfbm9jbGFwXQ==
        >
        <X 240 0
          /wFbY3Jvd2Rfbm9ybWFsXQ==
        >
        <X 3360 0
          /wFbcHJjX2JyZWFrX2Fd
        >
        <X 15360 0
          /wFbcHJjX2JyZWFrX2Jd
        >
        <X 15360 0
          /wFbcHJjX2JyZWFrX2Nd
        >
        <X 0 0
          /wFbY3Jvd2RfY2xhcF0=
        >
        <X 15360 0
          /wFbcHJjX291dHJvX2Nob3J1c10=
        >
        <X 0 0
          /wFbY3Jvd2RfaW50ZW5zZV0=
        >
        <X 21600 0
          /wFbbXVzaWNfZW5kXQ==
        >
        <X 0 0
          /wFbY3Jvd2RfcmVhbHRpbWVd
        >
        <X 9115 0
          /wFbZW5kXQ==
        >
        E 5 b0 7b 00
        GUID {4F6C7383-C37B-4F2C-84F5-0E2E4E1002D6}
        IGNTEMPO 0 120.00000000 4 4
        SRCCOLOR 122
        VELLANE 132 100 0
        COLORMAP "C:\Program Files\REAPER (x64)\Data\color_maps\rockband_guitarbass.png"
        CFGEDITVIEW 0.000000 0.003268 0 48 0 0 0
        CFGEDIT 1 1 0 1 1 0 1 1 1 1 1 0.12500000 53 44 1253 718 0 2 0 1 0.00000000 0 1 0 0 0.500000 0 0 1.000000 64
        KEYSNAP 0 7 "102030050700" 0 "Pentatonic"
        EVTFILTER 0 -1 -1 -1 -1 0 1 0 0 -1.00000000 -1.00000000
      >
    >
  >
  <TRACK '{DD1482B0-A17C-4729-AC1B-8A661AC5A843}'
    NAME "VENUE"
    PEAKCOL 16576
    BEAT -1
    AUTOMODE 0
    VOLPAN 1.00000000000000 0.00000000000000 -1.00000000000000 -1.00000000000000 1.00000000000000
    MUTESOLO 0 0 0
    IPHASE 0
    ISBUS 1 1
    BUSCOMP 1 0
    SHOWINMIX 1 0.666700 0.500000 1 0.500000 -1 -1 -1
    FREEMODE 0
    SEL 0
    REC 0 0 0 0 0 0 0
    VU 2
    TRACKHEIGHT 0 0
    INQ 0 0 0 0.5000000000 100 0 0 100
    NCHAN 2
    FX 1
    TRACKID {DD1482B0-A17C-4729-AC1B-8A661AC5A843}
    PERF 0
    MIDIOUT -1
    <MIDINOTENAMES
      0 87 "Guitarist Sing Along"
      0 86 "Drummer Sing Along"
      0 85 "Bassist Sing Along"
      0 84 "----"
      0 41 "Spotlight on Keys"
      0 40 "Spotlight on Vocals"
      0 39 "Spotlight on Guitar"
      0 38 "Spotlight on Drums"
      0 37 "Spotlight on Bass"
    >
    MAINSEND 1 0
    <FXCHAIN
      SHOW 0
      LASTSEL 0
      DOCKED 0
    >
    <ITEM
      POSITION 0.00000000000000
      SNAPOFFS 0.00000000000000
      LENGTH 194.42554622500001
      LOOP 0
      ALLTAKES 0
      SEL 0
      FADEIN 1 0.000000 0.000000 1 0
      FADEOUT 1 0.000000 0.000000 1 0
      MUTE 0
      IGUID {BE0E7FFE-2459-493D-B820-A13BBFEE60E3}
      IID 10
      NAME "VENUE"
      VOLPAN 1.000000 0.000000 1.000000 -1.000000
      SOFFS 0.00000000000000 0.00000000000000
      PLAYRATE 1.00000000000000 1 0.00000000000000 -1
      CHANMODE 0
      GUID {01291DA4-BC43-4A29-8AD1-6CECED7217DA}
      <SOURCE MIDI
        HASDATA 1 480 QN
        POOLEDEVTS {BF5EAD71-146C-457F-BA81-1CB04FB72BE1}
        <X 0 0
          /wNWRU5VRQ==
        >
        <X 0 0
          /wFbY29vcF9hbGxfZmFyXQ==
        >
        <X 0 0
          /wFbZmlsbV9zaWx2ZXJ0b25lLnBwXQ==
        >
        <X 4560 0
          /wFbY29vcF9nX2Nsb3NldXBfaGFuZF0=
        >
        <X 720 0
          /wFbbGlnaHRpbmcgKGJsYWNrb3V0X2Zhc3QpXQ==
        >
        <X 480 0
          /wFbZmlyc3Rd
        >
        <X 0 0
          /wFbbGlnaHRpbmcgKGZsYXJlX2Zhc3QpXQ==
        >
        <X 0 0
          /wFbbGlnaHRpbmcgKHZlcnNlKV0=
        >
        E 0 90 57 60
        <X 480 0
          /wFbY29vcF9ndl9iZWhpbmRd
        >
        <X 0 0
          /wFbbGlnaHRpbmcgKGZsYXJlX2Zhc3QpXQ==
        >
        <X 480 0
          /wFbbmV4dF0=
        >
        <X 960 0
          /wFbbmV4dF0=
        >
        <X 480 0
          /wFbY29vcF9iX25lYXJd
        >
        <X 480 0
          /wFbbmV4dF0=
        >
        <X 960 0
          /wFbZGlyZWN0ZWRfZHJ1bXNfa2Rd
        >
        <X 0 0
          /wFbbmV4dF0=
        >
        <X 960 0
          /wFbbmV4dF0=
        >
        <X 960 0
          /wFbY29vcF9kX25lYXJd
        >
        <X 0 0
          /wFbbmV4dF0=
        >
        <X 960 0
          /wFbbmV4dF0=
        >
        <X 960 0
          /wFbY29vcF92X2Nsb3NldXBd
        >
        <X 0 0
          /wFbbmV4dF0=
        >
        <X 960 0
          /wFbbmV4dF0=
        >
        <X 960 0
          /wFbbmV4dF0=
        >
        <X 960 0
          /wFbZGlyZWN0ZWRfZHVvX2RydW1zXQ==
        >
        <X 0 0
          /wFbbmV4dF0=
        >
        <X 960 0
          /wFbbmV4dF0=
        >
        <X 960 0
          /wFbbmV4dF0=
        >
        <X 960 0
          /wFbY29vcF9nX2JlaGluZF0=
        >
        <X 0 0
          /wFbbmV4dF0=
        >
        <X 960 0
          /wFbbmV4dF0=
        >
        <X 960 0
          /wFbZGlyZWN0ZWRfZHVvX2diXQ==
        >
        <X 0 0
          /wFbZmlyc3Rd
        >
        <X 960 0
          /wFbbmV4dF0=
        >
        <X 960 0
          /wFbbmV4dF0=
        >
        <X 960 0
          /wFbbmV4dF0=
        >
        <X 960 0
          /wFbZGlyZWN0ZWRfdm9jYWxzX2Nsc10=
        >
        <X 0 0
          /wFbbmV4dF0=
        >
        <X 960 0
          /wFbbmV4dF0=
        >
        <X 960 0
          /wFbbmV4dF0=
        >
        <X 960 0
          /wFbbmV4dF0=
        >
        <X 960 0
          /wFbY29vcF9ndl9uZWFyXQ==
        >
        <X 0 0
          /wFbbmV4dF0=
        >
        <X 960 0
          /wFbbmV4dF0=
        >
        <X 960 0
          /wFbbmV4dF0=
        >
        <X 960 0
          /wFbbmV4dF0=
        >
        <X 960 0
          /wFbbmV4dF0=
        >
        <X 960 0
          /wFbbmV4dF0=
        >
        <X 960 0
          /wFbbmV4dF0=
        >
        <X 480 0
          /wFbY29vcF9nX2Nsb3NldXBfaGFuZF0=
        >
        <X 480 0
          /wFbbmV4dF0=
        >
        <X 480 0
          /wFbbGlnaHRpbmcgKGJsYWNrb3V0X2Zhc3QpXQ==
        >
        <X 480 0
          /wFbY29vcF9hbGxfYmVoaW5kXQ==
        >
        <X 0 0
          /wFbZmlyc3Rd
        >
        <X 0 0
          /wFbbGlnaHRpbmcgKGZsYXJlX2Zhc3QpXQ==
        >
        <X 0 0
          /wFbbGlnaHRpbmcgKG1hbnVhbF93YXJtKV0=
        >
        <X 480 0
          /wFbbGlnaHRpbmcgKGZsYXJlX2Zhc3QpXQ==
        >
        <X 480 0
          /wFbbmV4dF0=
        >
        <X 960 0
          /wFbbmV4dF0=
        >
        <X 960 0
          /wFbbmV4dF0=
        >
        <X 960 0
          /wFbY29vcF9hbGxfZmFyXQ==
        >
        <X 0 0
          /wFbbmV4dF0=
        >
        <X 960 0
          /wFbbmV4dF0=
        >
        <X 960 0
          /wFbbmV4dF0=
        >
        <X 720 0
          /wFbY29vcF9ndl9uZWFyXQ==
        >
        <X 240 0
          /wFbbmV4dF0=
        >
        <X 0 0
          /wFbZmlsbV9zaWx2ZXJ0b25lLnBwXQ==
        >
        <X 480 0
          /wFbbGlnaHRpbmcgKGJsYWNrb3V0X2Zhc3QpXQ==
        >
        <X 479 0
          /wFbbGlnaHRpbmcgKGZsYXJlX2Zhc3QpXQ==
        >
        <X 1 0
          /wFbZmlyc3Rd
        >
        <X 0 0
          /wFbbGlnaHRpbmcgKG1hbnVhbF9jb29sKV0=
        >
        <X 0 0
          /wFbc3BhY2Vfd29vc2gucHBd
        >
        <X 480 0
          /wFbbGlnaHRpbmcgKGZsYXJlX2Zhc3QpXQ==
        >
        <X 480 0
          /wFbbmV4dF0=
        >
        <X 960 0
          /wFbbmV4dF0=
        >
        <X 960 0
          /wFbbmV4dF0=
        >
        <X 960 0
          /wFbY29vcF9kX25lYXJd
        >
        <X 0 0
          /wFbbmV4dF0=
        >
        <X 960 0
          /wFbbmV4dF0=
        >
        <X 960 0
          /wFbbmV4dF0=
        >
        <X 959 0
          /wFbbmV4dF0=
        >
        <X 961 0
          /wFbZGlyZWN0ZWRfdm9jYWxzX2NhbV9wcl0=
        >
        <X 0 0
          /wFbbmV4dF0=
        >
        <X 960 0
          /wFbbmV4dF0=
        >
        <X 960 0
          /wFbbmV4dF0=
        >
        <X 959 0
          /wFbbmV4dF0=
        >
        <X 961 0
          /wFbZGlyZWN0ZWRfdm9jYWxzXQ==
        >
        <X 0 0
          /wFbbmV4dF0=
        >
        <X 960 0
          /wFbbmV4dF0=
        >
        <X 960 0
          /wFbY29vcF9kX25lYXJd
        >
        <X 0 0
          /wFbbmV4dF0=
        >
        <X 959 0
          /wFbbmV4dF0=
        >
        <X 961 0
          /wFbY29vcF9hbGxfbmVhcl0=
        >
        <X 0 0
          /wFbbmV4dF0=
        >
        <X 960 0
          /wFbbmV4dF0=
        >
        <X 960 0
          /wFbbmV4dF0=
        >
        <X 959 0
          /wFbbmV4dF0=
        >
        <X 961 0
          /wFbZGlyZWN0ZWRfYWxsX2NhbV0=
        >
        <X 0 0
          /wFbbmV4dF0=
        >
        <X 960 0
          /wFbbmV4dF0=
        >
        <X 0 0
          /wFbc3BhY2Vfd29vc2gucHBd
        >
        <X 480 0
          /wFbbmV4dF0=
        >
        <X 240 0
          /wFbbGlnaHRpbmcgKGJsYWNrb3V0X2Zhc3QpXQ==
        >
        <X 240 0
          /wFbUHJvRmlsbV9hLnBwXQ==
        >
        <X 1920 0
          /wFbY29vcF9hbGxfYmVoaW5kXQ==
        >
        <X 480 0
          /wFbUHJvRmlsbV9hLnBwXQ==
        >
        <X 240 0
          /wFbZmlsbV9zaWx2ZXJ0b25lLnBwXQ==
        >
        <X 1200 0
          /wFbY29vcF9kX25lYXJd
        >
        <X 0 0
          /wFbZmlyc3Rd
        >
        <X 0 0
          /wFbbGlnaHRpbmcgKGZsYXJlX2Zhc3QpXQ==
        >
        <X 0 0
          /wFbbGlnaHRpbmcgKHZlcnNlKV0=
        >
        <X 480 0
          /wFbbGlnaHRpbmcgKGZsYXJlX2Zhc3QpXQ==
        >
        <X 480 0
          /wFbbmV4dF0=
        >
        <X 960 0
          /wFbbmV4dF0=
        >
        <X 960 0
          /wFbbmV4dF0=
        >
        <X 0 0
          /wFbZmlsbV9zaWx2ZXJ0b25lLnBwXQ==
        >
        <X 960 0
          /wFbZGlyZWN0ZWRfZHJ1bXNfa2Rd
        >
        <X 0 0
          /wFbbmV4dF0=
        >
        <X 960 0
          /wFbbmV4dF0=
        >
        <X 960 0
          /wFbbmV4dF0=
        >
        <X 960 0
          /wFbbmV4dF0=
        >
        <X 960 0
          /wFbY29vcF9ndl9uZWFyXQ==
        >
        <X 0 0
          /wFbbmV4dF0=
        >
        <X 960 0
          /wFbbmV4dF0=
        >
        <X 960 0
          /wFbbmV4dF0=
        >
        <X 720 0
          /wFbY29vcF9iX2Nsb3NldXBfaGFuZF0=
        >
        <X 240 0
          /wFbbmV4dF0=
        >
        <X 960 0
          /wFbbmV4dF0=
        >
        <X 480 0
          /wFbY29vcF9ndl9uZWFyXQ==
        >
        <X 480 0
          /wFbbmV4dF0=
        >
        <X 960 0
          /wFbbmV4dF0=
        >
        <X 480 0
          /wFbY29vcF9nX2Nsb3NldXBfaGFuZF0=
        >
        <X 480 0
          /wFbbmV4dF0=
        >
        <X 960 0
          /wFbZmlyc3Rd
        >
        <X 480 0
          /wFbY29vcF9kX2Nsb3NldXBfaGFuZF0=
        >
        <X 480 0
          /wFbbmV4dF0=
        >
        <X 960 0
          /wFbbmV4dF0=
        >
        <X 960 0
          /wFbbmV4dF0=
        >
        <X 960 0
          /wFbY29vcF9kdl9uZWFyXQ==
        >
        <X 0 0
          /wFbbmV4dF0=
        >
        <X 960 0
          /wFbbmV4dF0=
        >
        <X 960 0
          /wFbbmV4dF0=
        >
        <X 960 0
          /wFbbmV4dF0=
        >
        <X 960 0
          /wFbY29vcF9iZ19uZWFyXQ==
        >
        <X 0 0
          /wFbbmV4dF0=
        >
        <X 960 0
          /wFbbmV4dF0=
        >
        <X 960 0
          /wFbbmV4dF0=
        >
        <X 960 0
          /wFbbmV4dF0=
        >
        <X 960 0
          /wFbbmV4dF0=
        >
        <X 960 0
          /wFbbmV4dF0=
        >
        <X 960 0
          /wFbbmV4dF0=
        >
        <X 960 0
          /wFbbmV4dF0=
        >
        <X 480 0
          /wFbbGlnaHRpbmcgKGJsYWNrb3V0X2Zhc3QpXQ==
        >
        <X 480 0
          /wFbZGlyZWN0ZWRfZ3VpdGFyXQ==
        >
        <X 0 0
          /wFbZGlyZWN0ZWRfdm9jYWxzXQ==
        >
        <X 0 0
          /wFbZmlyc3Rd
        >
        <X 0 0
          /wFbbGlnaHRpbmcgKGZsYXJlX2Zhc3QpXQ==
        >
        <X 0 0
          /wFbbGlnaHRpbmcgKG1hbnVhbF93YXJtKV0=
        >
        <X 480 0
          /wFbbGlnaHRpbmcgKGZsYXJlX2Zhc3QpXQ==
        >
        <X 480 0
          /wFbbmV4dF0=
        >
        <X 960 0
          /wFbbmV4dF0=
        >
        <X 960 0
          /wFbbmV4dF0=
        >
        <X 960 0
          /wFbZGlyZWN0ZWRfZ3VpdGFyXQ==
        >
        <X 0 0
          /wFbZGlyZWN0ZWRfdm9jYWxzXQ==
        >
        <X 0 0
          /wFbbmV4dF0=
        >
        <X 960 0
          /wFbbmV4dF0=
        >
        <X 960 0
          /wFbbmV4dF0=
        >
        <X 720 0
          /wFbZGlyZWN0ZWRfZHJ1bXNd
        >
        <X 240 0
          /wFbbmV4dF0=
        >
        <X 960 0
          /wFbZGlyZWN0ZWRfYWxsXQ==
        >
        <X 0 0
          /wFbZmlyc3Rd
        >
        <X 0 0
          /wFbbGlnaHRpbmcgKG1hbnVhbF9jb29sKV0=
        >
        <X 0 0
          /wFbc3BhY2Vfd29vc2gucHBd
        >
        <X 960 0
          /wFbbmV4dF0=
        >
        <X 960 0
          /wFbbmV4dF0=
        >
        <X 960 0
          /wFbbmV4dF0=
        >
        <X 960 0
          /wFbZGlyZWN0ZWRfYWxsXQ==
        >
        <X 0 0
          /wFbbmV4dF0=
        >
        <X 960 0
          /wFbbmV4dF0=
        >
        <X 960 0
          /wFbbmV4dF0=
        >
        <X 960 0
          /wFbbmV4dF0=
        >
        <X 960 0
          /wFbY29vcF9iX25lYXJd
        >
        <X 0 0
          /wFbbmV4dF0=
        >
        <X 960 0
          /wFbbmV4dF0=
        >
        <X 960 0
          /wFbbmV4dF0=
        >
        <X 960 0
          /wFbbmV4dF0=
        >
        <X 960 0
          /wFbY29vcF9nX2Nsb3NldXBfaGFuZF0=
        >
        <X 0 0
          /wFbbmV4dF0=
        >
        <X 960 0
          /wFbbmV4dF0=
        >
        <X 960 0
          /wFbbmV4dF0=
        >
        <X 960 0
          /wFbbmV4dF0=
        >
        <X 960 0
          /wFbY29vcF92X25lYXJd
        >
        <X 0 0
          /wFbbmV4dF0=
        >
        <X 960 0
          /wFbbmV4dF0=
        >
        <X 960 0
          /wFbbmV4dF0=
        >
        <X 960 0
          /wFbbmV4dF0=
        >
        <X 960 0
          /wFbY29vcF92X25lYXJd
        >
        <X 0 0
          /wFbbmV4dF0=
        >
        <X 960 0
          /wFbbmV4dF0=
        >
        <X 0 0
          /wFbc3BhY2Vfd29vc2gucHBd
        >
        <X 480 0
          /wFbbmV4dF0=
        >
        <X 240 0
          /wFbbGlnaHRpbmcgKGJsYWNrb3V0X2Zhc3QpXQ==
        >
        <X 240 0
          /wFbY29vcF9hbGxfYmVoaW5kXQ==
        >
        E 3780 90 25 60
        E 0 90 27 60
        <X 60 0
          /wFbZGlyZWN0ZWRfZHJ1bXNfa2Rd
        >
        <X 0 0
          /wFbZmlyc3Rd
        >
        <X 0 0
          /wFbbGlnaHRpbmcgKGRpc2Nob3JkKV0=
        >
        <X 0 0
          /wFbUHJvRmlsbV9hLnBwXQ==
        >
        <X 480 0
          /wFbY29vcF9nX25lYXJd
        >
        E 0 80 25 00
        E 1380 90 25 60
        <X 60 0
          /wFbZGlyZWN0ZWRfZHJ1bXNfa2Rd
        >
        <X 0 0
          /wFbbmV4dF0=
        >
        <X 480 0
          /wFbY29vcF9nX25lYXJd
        >
        E 0 80 25 00
        E 1380 90 25 60
        <X 60 0
          /wFbY29vcF9iZ19iZWhpbmRd
        >
        <X 0 0
          /wFbbmV4dF0=
        >
        E 480 80 25 00
        E 1380 90 25 60
        <X 60 0
          /wFbY29vcF9iZ19uZWFyXQ==
        >
        <X 0 0
          /wFbbmV4dF0=
        >
        E 480 80 25 00
        E 1380 90 25 60
        <X 60 0
          /wFbZGlyZWN0ZWRfZHJ1bXNfa2Rd
        >
        <X 0 0
          /wFbbmV4dF0=
        >
        E 480 80 25 00
        E 1380 90 25 60
        <X 60 0
          /wFbbmV4dF0=
        >
        <X 480 0
          /wFbY29vcF9nX2JlaGluZF0=
        >
        E 0 80 25 00
        E 1380 90 25 60
        <X 60 0
          /wFbY29vcF9nX2Nsb3NldXBfaGFuZF0=
        >
        <X 0 0
          /wFbbmV4dF0=
        >
        E 480 80 25 00
        E 1380 90 25 60
        <X 60 0
          /wFbbmV4dF0=
        >
        E 480 80 25 00
        E 540 90 26 60
        <X 180 0
          /wFbY29vcF9iX25lYXJd
        >
        <X 720 0
          /wFbY29vcF9iX2Nsb3NldXBfaGFuZF0=
        >
        <X 0 0
          /wFbZmlyc3Rd
        >
        <X 0 0
          /wFbbGlnaHRpbmcgKGZsYXJlX2Zhc3QpXQ==
        >
        <X 0 0
          /wFbbGlnaHRpbmcgKHZlcnNlKV0=
        >
        E 0 80 27 00
        E 0 80 26 00
        <X 960 0
          /wFbbmV4dF0=
        >
        <X 960 0
          /wFbbmV4dF0=
        >
        <X 960 0
          /wFbbmV4dF0=
        >
        <X 480 0
          /wFbbGlnaHRpbmcgKGJsYWNrb3V0X2Zhc3QpXQ==
        >
        <X 479 0
          /wFbbGlnaHRpbmcgKGZsYXJlX2Zhc3QpXQ==
        >
        <X 1 0
          /wFbY29vcF9iZ19uZWFyXQ==
        >
        <X 0 0
          /wFbbmV4dF0=
        >
        <X 480 0
          /wFbbGlnaHRpbmcgKGZsYXJlX2Zhc3QpXQ==
        >
        <X 480 0
          /wFbbmV4dF0=
        >
        <X 960 0
          /wFbbmV4dF0=
        >
        <X 960 0
          /wFbbmV4dF0=
        >
        <X 480 0
          /wFbbGlnaHRpbmcgKGJsYWNrb3V0X2Zhc3QpXQ==
        >
        <X 479 0
          /wFbbGlnaHRpbmcgKGZsYXJlX2Zhc3QpXQ==
        >
        <X 1 0
          /wFbZGlyZWN0ZWRfYWxsXQ==
        >
        <X 0 0
          /wFbbmV4dF0=
        >
        <X 480 0
          /wFbbGlnaHRpbmcgKGZsYXJlX2Zhc3QpXQ==
        >
        <X 480 0
          /wFbbmV4dF0=
        >
        <X 960 0
          /wFbbmV4dF0=
        >
        <X 960 0
          /wFbbmV4dF0=
        >
        <X 480 0
          /wFbbGlnaHRpbmcgKGJsYWNrb3V0X2Zhc3QpXQ==
        >
        <X 479 0
          /wFbbGlnaHRpbmcgKGZsYXJlX2Zhc3QpXQ==
        >
        <X 1 0
          /wFbY29vcF9hbGxfZmFyXQ==
        >
        <X 0 0
          /wFbbmV4dF0=
        >
        <X 480 0
          /wFbbGlnaHRpbmcgKGZsYXJlX2Zhc3QpXQ==
        >
        <X 480 0
          /wFbbmV4dF0=
        >
        <X 960 0
          /wFbZGlyZWN0ZWRfYWxsX3llYWhd
        >
        <X 0 0
          /wFbbmV4dF0=
        >
        <X 960 0
          /wFbbmV4dF0=
        >
        <X 480 0
          /wFbbGlnaHRpbmcgKGJsYWNrb3V0X2Zhc3QpXQ==
        >
        <X 479 0
          /wFbbGlnaHRpbmcgKGZsYXJlX2Zhc3QpXQ==
        >
        <X 1 0
          /wFbZmlyc3Rd
        >
        <X 480 0
          /wFbbGlnaHRpbmcgKGZsYXJlX2Zhc3QpXQ==
        >
        <X 480 0
          /wFbY29vcF9kX25lYXJd
        >
        <X 0 0
          /wFbbmV4dF0=
        >
        <X 960 0
          /wFbbmV4dF0=
        >
        <X 960 0
          /wFbbmV4dF0=
        >
        <X 960 0
          /wFbZGlyZWN0ZWRfZHVvX2diXQ==
        >
        <X 0 0
          /wFbbmV4dF0=
        >
        <X 960 0
          /wFbbmV4dF0=
        >
        <X 960 0
          /wFbbmV4dF0=
        >
        <X 960 0
          /wFbbmV4dF0=
        >
        <X 960 0
          /wFbY29vcF92X2Nsb3NldXBd
        >
        <X 0 0
          /wFbbmV4dF0=
        >
        <X 960 0
          /wFbbmV4dF0=
        >
        <X 960 0
          /wFbY29vcF9kX2Nsb3NldXBfaGFuZF0=
        >
        <X 0 0
          /wFbbmV4dF0=
        >
        <X 960 0
          /wFbbmV4dF0=
        >
        <X 480 0
          /wFbbGlnaHRpbmcgKGJsYWNrb3V0X2Zhc3QpXQ==
        >
        E 420 90 27 60
        <X 60 0
          /wFbbGlnaHRpbmcgKHZlcnNlKV0=
        >
        <X 480 0
          /wFbY29vcF9nX2Nsb3NldXBfaGFuZF0=
        >
        <X 1920 0
          /wFbY29vcF9ndl9uZWFyXQ==
        >
        E 180 90 28 60
        <X 1260 0
          /wFbZmlyc3Rd
        >
        <X 0 0
          /wFbbGlnaHRpbmcgKGZsYXJlX2Zhc3QpXQ==
        >
        <X 0 0
          /wFbbGlnaHRpbmcgKG1hbnVhbF93YXJtKV0=
        >
        E 0 80 27 00
        E 0 80 28 00
        <X 480 0
          /wFbbGlnaHRpbmcgKGZsYXJlX2Zhc3QpXQ==
        >
        <X 480 0
          /wFbbmV4dF0=
        >
        <X 960 0
          /wFbbmV4dF0=
        >
        <X 960 0
          /wFbbmV4dF0=
        >
        <X 960 0
          /wFbY29vcF9kX2JlaGluZF0=
        >
        <X 0 0
          /wFbbmV4dF0=
        >
        <X 960 0
          /wFbbmV4dF0=
        >
        <X 960 0
          /wFbbmV4dF0=
        >
        <X 960 0
          /wFbbmV4dF0=
        >
        <X 960 0
          /wFbY29vcF9iX25lYXJd
        >
        <X 0 0
          /wFbbmV4dF0=
        >
        <X 960 0
          /wFbbmV4dF0=
        >
        <X 960 0
          /wFbbmV4dF0=
        >
        <X 960 0
          /wFbbmV4dF0=
        >
        <X 960 0
          /wFbY29vcF9hbGxfYmVoaW5kXQ==
        >
        <X 0 0
          /wFbbmV4dF0=
        >
        <X 960 0
          /wFbbmV4dF0=
        >
        <X 960 0
          /wFbbmV4dF0=
        >
        <X 960 0
          /wFbbmV4dF0=
        >
        <X 960 0
          /wFbY29vcF9ndl9uZWFyXQ==
        >
        <X 0 0
          /wFbbmV4dF0=
        >
        <X 960 0
          /wFbbmV4dF0=
        >
        <X 960 0
          /wFbbmV4dF0=
        >
        <X 960 0
          /wFbbmV4dF0=
        >
        <X 960 0
          /wFbbmV4dF0=
        >
        <X 960 0
          /wFbbmV4dF0=
        >
        <X 720 0
          /wFbbGlnaHRpbmcgKGJsYWNrb3V0X3Nsb3cpXQ==
        >
        <X 240 0
          /wFbY29vcF9hbGxfZmFyXQ==
        >
        E 3839 80 57 00
        E 5761 b0 7b 00
        GUID {40936F5A-430A-40A1-97D7-A7D7D0B9237B}
        IGNTEMPO 0 120.00000000 4 4
        SRCCOLOR 123
        VELLANE 132 100 0
        COLORMAP "C:\Program Files\REAPER (x64)\Data\color_maps\rockband_guitarbass.png"
        CFGEDITVIEW -10176.000000 0.004605 0 43 0 0 0
        CFGEDIT 1 1 0 1 1 0 1 1 1 1 1 0.12500000 53 44 1253 718 0 2 0 1 0.00000000 0 1 0 0 0.500000 0 0 1.000000 64
        KEYSNAP 0 7 "102030050700" 0 "Pentatonic"
        EVTFILTER 0 -1 -1 -1 -1 0 1 0 0 -1.00000000 -1.00000000
      >
    >
  >
  <TRACK '{58C04EBB-B65A-40FD-A286-2415F89FC9D3}'
    NAME "CAMERA"
    PEAKCOL 16576
    BEAT -1
    AUTOMODE 0
    VOLPAN 1.00000000000000 0.00000000000000 -1.00000000000000 -1.00000000000000 1.00000000000000
    MUTESOLO 1 0 0
    IPHASE 0
    ISBUS 0 0
    BUSCOMP 0 0
    SHOWINMIX 1 0.666700 0.500000 1 0.500000 -1 -1 -1
    FREEMODE 0
    SEL 0
    REC 0 0 0 0 0 0 0
    VU 2
    TRACKHEIGHT 0 1
    INQ 0 0 0 0.5000000000 100 0 0 100
    NCHAN 2
    FX 1
    TRACKID {58C04EBB-B65A-40FD-A286-2415F89FC9D3}
    PERF 0
    MIDIOUT -1
    <MIDINOTENAMES
      0 102 "RANDOM"
      0 100 "All_Behind"
      0 99 "All_Far"
      0 98 "All_Near"
      0 96 "Front_Behind"
      0 95 "Front_Near"
      0 93 "D_Behind"
      0 92 "D_Near"
      0 91 "V_Behind"
      0 90 "V_Near"
      0 89 "B_Behind"
      0 88 "B_Near"
      0 87 "G_Behind"
      0 86 "G_Near"
      0 85 "K_Behind"
      0 84 "K_Near"
      0 82 "D_Hand"
      0 81 "D_Head"
      0 80 "V_Closeup"
      0 79 "B_Hand"
      0 78 "B_Head"
      0 77 "G_Hand"
      0 76 "G_Head"
      0 75 "K_Hand"
      0 74 "K_Head"
      0 72 "DV_Near"
      0 71 "BD_Near"
      0 70 "DG_Near"
      0 69 "BV_Behind"
      0 68 "BV_Near"
      0 67 "GV_Behind"
      0 66 "GV_Near"
      0 65 "KV_Behind"
      0 64 "KV_Near"
      0 63 "BG_Behind"
      0 62 "BG_Near"
      0 61 "BK_Behind"
      0 60 "BK_Near"
      0 59 "GK_Behind"
      0 58 "GK_Near"
      0 56 "D_All"
      0 55 "D_All_Cam"
      0 54 "D_All_LT*"
      0 53 "D_All_Yeah"
      0 52 "D_BRE"
      0 51 "D_BRE_Jump"
      0 49 "D_Drums_NP"
      0 48 "D_Bass_NP"
      0 47 "D_Gtr_NP"
      0 46 "D_Vox_NP"
      0 45 "D_Keys_NP"
      0 43 "D_Drums"
      0 42 "D_Drums_LT*"
      0 41 "D_Vocals"
      0 40 "D_Bass"
      0 39 "D_Gtr"
      0 38 "D_Keys"
      0 36 "D_Vox_Cam_PR"
      0 35 "D_Vox_Cam_PT"
      0 34 "D_Gtr_Cam_PR"
      0 33 "D_Gtr_Cam_PT"
      0 32 "D_Keys_Cam"
      0 31 "D_Bass_Cam"
      0 29 "D_Stagedive"
      0 28 "D_Crowdsurf"
      0 26 "D_Vox_CLS"
      0 25 "D_Bass_CLS*"
      0 24 "D_Gtr_CLS*"
      0 23 "D_Drums_KD*"
      0 21 "D_Drums_Point"
      0 20 "D_Crowd_Gtr"
      0 19 "D_Crowd_Bass"
      0 17 "D_Duo_Drums"
      0 16 "D_Duo_Gtr"
      0 15 "D_Duo_Bass"
      0 14 "D_Duo_KV"
      0 13 "D_Duo_GB"
      0 12 "D_Duo_KB"
      0 11 "D_Duo_KG"
      0 10 "D_Crowd*"
    >
    MAINSEND 1 0
    <FXCHAIN
      SHOW 0
      LASTSEL 0
      DOCKED 0
    >
    <ITEM
      POSITION 0.00000000000000
      SNAPOFFS 0.00000000000000
      LENGTH 194.42554622500001
      LOOP 0
      ALLTAKES 0
      SEL 0
      FADEIN 1 0.000000 0.000000 1 0
      FADEOUT 1 0.000000 0.000000 1 0
      MUTE 0
      IGUID {399A8FE0-73C9-4DDE-9AFF-6C2DD013A222}
      IID 19
      NAME "CAMERA"
      VOLPAN 1.000000 0.000000 1.000000 -1.000000
      SOFFS 0.00000000000000 0.00000000000000
      PLAYRATE 1.00000000000000 1 0.00000000000000 -1
      CHANMODE 0
      GUID {0D2A60A2-2123-4AB5-AADB-13327B7193BD}
      <SOURCE MIDI
        HASDATA 1 480 QN
        POOLEDEVTS {9623C53E-19DA-487A-98EE-365472080706}
        E 0 90 63 40
        E 60 80 63 00
        E 4500 90 4d 40
        E 60 80 4d 00
        E 1620 90 43 40
        E 60 80 43 00
        E 1860 90 58 40
        E 60 80 58 00
        E 1380 90 17 40
        E 1920 90 5c 40
        E 60 80 5c 00
        E 1860 90 50 40
        E 60 80 50 00
        E 2820 90 11 40
        E 60 80 11 00
        E 2820 90 57 40
        E 60 80 57 00
        E 1860 90 0d 40
        E 60 80 0d 00
        E 3780 90 1a 40
        E 60 80 1a 00
        E 3780 90 42 40
        E 60 80 42 00
        E 6180 90 4d 40
        E 60 80 4d 00
        E 1380 90 64 40
        E 60 80 64 00
        E 3780 90 63 40
        E 60 80 63 00
        E 2580 90 42 40
        E 60 80 42 00
        E 4980 90 5c 40
        E 60 80 5c 00
        E 3780 90 24 40
        E 60 80 24 00
        E 3780 90 29 40
        E 60 80 29 00
        E 1860 90 5c 40
        E 60 80 5c 00
        E 1860 90 62 40
        E 60 80 62 00
        E 3780 90 37 40
        E 60 80 37 00
        E 3780 90 64 40
        E 60 80 64 00
        E 1860 90 5c 40
        E 60 80 5c 00
        E 3780 80 17 00
        E 3840 90 42 40
        E 60 80 42 00
        E 2580 90 4f 40
        E 60 80 4f 00
        E 1620 90 42 40
        E 60 80 42 00
        E 1860 90 4d 40
        E 60 80 4d 00
        E 1860 90 52 40
        E 60 80 52 00
        E 3300 90 48 40
        E 60 80 48 00
        E 3780 90 3e 40
        E 60 80 3e 00
        E 7620 90 27 40
        E 0 90 29 40
        E 60 80 27 00
        E 0 80 29 00
        E 3780 90 27 40
        E 0 90 29 40
        E 60 80 27 00
        E 0 80 29 00
        E 2580 90 2b 40
        E 60 80 2b 00
        E 1140 90 38 40
        E 60 80 38 00
        E 3780 90 38 40
        E 60 80 38 00
        E 3780 90 58 40
        E 60 80 58 00
        E 3780 90 4d 40
        E 60 80 4d 00
        E 3780 90 5a 40
        E 60 80 5a 00
        E 3780 90 5a 40
        E 60 80 5a 00
        E 1860 90 64 40
        E 60 80 64 00
        E 3780 90 17 40
        E 480 90 56 40
        E 60 80 56 00
        E 1380 80 17 00
        E 480 90 56 40
        E 60 80 56 00
        E 1380 90 3f 40
        E 60 80 3f 00
        E 1860 90 3e 40
        E 60 80 3e 00
        E 1860 90 17 40
        E 60 80 17 00
        E 2340 90 57 40
        E 60 80 57 00
        E 1380 90 4d 40
        E 60 80 4d 00
        E 3060 90 58 40
        E 60 80 58 00
        E 660 90 4f 40
        E 60 80 4f 00
        E 3780 90 3e 40
        E 60 80 3e 00
        E 3780 90 38 40
        E 60 80 38 00
        E 3780 90 63 40
        E 60 80 63 00
        E 1860 90 35 40
        E 60 80 35 00
        E 2820 90 5c 40
        E 60 80 5c 00
        E 2820 90 0d 40
        E 60 80 0d 00
        E 3780 90 50 40
        E 60 80 50 00
        E 1860 90 52 40
        E 60 80 52 00
        E 2340 90 4d 40
        E 60 80 4d 00
        E 1860 90 42 40
        E 60 80 42 00
        E 5220 90 5d 40
        E 60 80 5d 00
        E 3780 90 58 40
        E 60 80 58 00
        E 3780 90 64 40
        E 60 80 64 00
        E 3780 90 42 40
        E 60 80 42 00
        E 15300 b0 7b 00
        GUID {B37D85E4-DD74-46AF-A651-E61DC4187017}
        IGNTEMPO 0 120.00000000 4 4
        SRCCOLOR 157
        VELLANE 132 100 0
        COLORMAP "C:\Program Files\REAPER (x64)\Data\color_maps\rockband_guitarbass.png"
      >
    >
  >
  <TRACK '{AF88CAA2-60B0-4B10-BC5D-D85C7A05B031}'
    NAME "LIGHTING"
    PEAKCOL 16576
    BEAT -1
    AUTOMODE 0
    VOLPAN 1.00000000000000 0.00000000000000 -1.00000000000000 -1.00000000000000 1.00000000000000
    MUTESOLO 1 0 0
    IPHASE 0
    ISBUS 2 -1
    BUSCOMP 0 0
    SHOWINMIX 1 0.666700 0.500000 1 0.500000 -1 -1 -1
    FREEMODE 0
    SEL 0
    REC 0 0 0 0 0 0 0
    VU 2
    TRACKHEIGHT 0 1
    INQ 0 0 0 0.5000000000 100 0 0 100
    NCHAN 2
    FX 1
    TRACKID {AF88CAA2-60B0-4B10-BC5D-D85C7A05B031}
    PERF 0
    MIDIOUT -1
    <MIDINOTENAMES
      0 71 "Default"
      0 70 "Color_Muted"
      0 69 "Video_Grainy"
      0 68 "16mm Film"
      0 67 "Shitty_TV"
      0 66 "Bloom"
      0 65 "Sepia_Ink"
      0 64 "Silvertone"
      0 63 "Film_BW"
      0 62 "Video_BW"
      0 61 "Contrast BW"
      0 60 "Photocopy"
      0 59 "Blue_Filter"
      0 58 "Desat_Blue"
      0 57 "Video_Security"
      0 55 "Bright"
      0 54 "Posterize"
      0 53 "Clean_Trails"
      0 52 "Video_Trails"
      0 51 "Flicker_Trails"
      0 50 "Desat_Posterize"
      0 49 "Film_Contrast"
      0 48 "Film_Contrast_Blue"
      0 47 "Film_Contrast_Green"
      0 46 "Film_Contrast_Red"
      0 45 "Horror_Movie"
      0 44 "Photo_Negative"
      0 43 "Mirror"
      0 42 "Psych_Blue_Red"
      0 41 "Space_Woosh"
      0 39 "Verse"
      0 38 "Chorus"
      0 37 "Manual_Cool"
      0 36 "Manual_Warm"
      0 35 "Dischord"
      0 34 "Stomp"
      0 32 "first"
      0 31 "prev"
      0 30 "next"
      0 28 "Loop_Cool"
      0 27 "Loop_Warm"
      0 26 "Harmony"
      0 25 "Frenzy"
      0 24 "Silhouettes"
      0 23 "Silhouettes_Spot"
      0 22 "Searchlights"
      0 21 "Sweep"
      0 20 "Strobe_Slow"
      0 19 "Strobe_Fast"
      0 18 "Blackout_Slow"
      0 17 "Blackout_Fast"
      0 16 "Blackout_Spot"
      0 15 "Flare_Slow"
      0 14 "Flare_Fast"
      0 13 "BRE"
      0 11 "BONUSFX"
      0 10 "BONUSFX_Opt"
      0 8 "STROBE"
    >
    MAINSEND 1 0
    <FXCHAIN
      SHOW 0
      LASTSEL 0
      DOCKED 0
    >
    <ITEM
      POSITION 0.00000000000000
      SNAPOFFS 0.00000000000000
      LENGTH 194.42554622500001
      LOOP 0
      ALLTAKES 0
      SEL 0
      FADEIN 1 0.000000 0.000000 1 0
      FADEOUT 1 0.000000 0.000000 1 0
      MUTE 0
      IGUID {A29E0114-C3F5-4FD7-9F40-ACACD283253D}
      IID 20
      NAME "LIGHTING"
      VOLPAN 1.000000 0.000000 1.000000 -1.000000
      SOFFS 0.00000000000000 0.00000000000000
      PLAYRATE 1.00000000000000 1 0.00000000000000 -1
      CHANMODE 0
      GUID {4108D09F-DED3-4043-AAED-B2C6D02270C7}
      <SOURCE MIDI
        HASDATA 1 480 QN
        POOLEDEVTS {32D36731-8319-4A1D-9649-90531E4D0248}
        E 0 90 40 40
        E 5280 90 11 40
        E 480 80 11 00
        E 0 90 0e 40
        E 0 80 0e 00
        E 0 90 27 40
        E 0 90 20 40
        E 60 80 20 00
        E 420 80 27 00
        E 0 90 0e 40
        E 480 90 1e 40
        E 60 80 1e 00
        E 900 90 1e 40
        E 60 80 1e 00
        E 900 90 1e 40
        E 60 80 1e 00
        E 900 90 1e 40
        E 60 80 1e 00
        E 900 90 1e 40
        E 60 80 1e 00
        E 900 90 1e 40
        E 60 80 1e 00
        E 900 90 1e 40
        E 60 80 1e 00
        E 900 90 1e 40
        E 60 80 1e 00
        E 900 90 1e 40
        E 60 80 1e 00
        E 900 90 1e 40
        E 60 80 1e 00
        E 900 90 1e 40
        E 60 80 1e 00
        E 900 90 1e 40
        E 60 80 1e 00
        E 900 90 1e 40
        E 60 80 1e 00
        E 900 90 1e 40
        E 60 80 1e 00
        E 900 90 1e 40
        E 60 80 1e 00
        E 900 90 20 40
        E 60 80 20 00
        E 900 90 1e 40
        E 60 80 1e 00
        E 900 90 1e 40
        E 60 80 1e 00
        E 900 90 1e 40
        E 60 80 1e 00
        E 900 90 1e 40
        E 60 80 1e 00
        E 900 90 1e 40
        E 60 80 1e 00
        E 900 90 1e 40
        E 60 80 1e 00
        E 900 90 1e 40
        E 60 80 1e 00
        E 900 90 1e 40
        E 60 80 1e 00
        E 900 90 1e 40
        E 60 80 1e 00
        E 900 90 1e 40
        E 60 80 1e 00
        E 900 90 1e 40
        E 60 80 1e 00
        E 900 90 1e 40
        E 60 80 1e 00
        E 900 90 1e 40
        E 60 80 1e 00
        E 900 90 1e 40
        E 60 80 1e 00
        E 900 90 1e 40
        E 60 80 1e 00
        E 420 80 0e 00
        E 0 90 11 40
        E 480 90 20 40
        E 0 80 11 00
        E 0 90 0e 40
        E 0 80 0e 00
        E 0 90 24 40
        E 60 80 20 00
        E 420 80 24 00
        E 0 90 0e 40
        E 480 90 1e 40
        E 60 80 1e 00
        E 900 90 1e 40
        E 60 80 1e 00
        E 900 90 1e 40
        E 60 80 1e 00
        E 900 90 1e 40
        E 60 80 1e 00
        E 900 90 1e 40
        E 60 80 1e 00
        E 900 90 1e 40
        E 60 80 1e 00
        E 900 90 1e 40
        E 0 80 40 00
        E 60 80 1e 00
        E 420 80 0e 00
        E 0 90 11 40
        E 479 80 11 00
        E 0 90 0e 40
        E 1 90 20 40
        E 0 80 0e 00
        E 0 90 25 40
        E 0 90 29 40
        E 60 80 20 00
        E 420 80 25 00
        E 0 90 0e 40
        E 480 90 1e 40
        E 60 80 1e 00
        E 900 90 1e 40
        E 60 80 1e 00
        E 900 90 1e 40
        E 60 80 1e 00
        E 900 90 1e 40
        E 60 80 1e 00
        E 900 90 1e 40
        E 60 80 1e 00
        E 900 90 1e 40
        E 60 80 1e 00
        E 899 90 1e 40
        E 60 80 1e 00
        E 901 90 1e 40
        E 60 80 1e 00
        E 900 90 1e 40
        E 60 80 1e 00
        E 900 90 1e 40
        E 60 80 1e 00
        E 899 90 1e 40
        E 60 80 1e 00
        E 901 90 1e 40
        E 60 80 1e 00
        E 900 90 1e 40
        E 60 80 1e 00
        E 900 90 1e 40
        E 60 80 1e 00
        E 899 90 1e 40
        E 60 80 1e 00
        E 901 90 1e 40
        E 60 80 1e 00
        E 900 90 1e 40
        E 60 80 1e 00
        E 900 90 1e 40
        E 60 80 1e 00
        E 899 90 1e 40
        E 60 80 1e 00
        E 901 90 1e 40
        E 60 80 1e 00
        E 900 90 1e 40
        E 0 80 29 00
        E 60 80 1e 00
        E 420 90 1e 40
        E 60 80 1e 00
        E 180 80 0e 00
        E 0 90 11 40
        E 240 90 47 40
        E 2400 80 47 00
        E 240 90 40 40
        E 1200 90 20 40
        E 0 80 11 00
        E 0 90 0e 40
        E 0 80 0e 00
        E 0 90 27 40
        E 60 80 20 00
        E 420 80 27 00
        E 0 90 0e 40
        E 480 90 1e 40
        E 60 80 1e 00
        E 900 90 1e 40
        E 60 80 1e 00
        E 900 90 1e 40
        E 0 80 40 00
        E 60 80 1e 00
        E 900 90 1e 40
        E 60 80 1e 00
        E 900 90 1e 40
        E 60 80 1e 00
        E 900 90 1e 40
        E 60 80 1e 00
        E 900 90 1e 40
        E 60 80 1e 00
        E 900 90 1e 40
        E 60 80 1e 00
        E 900 90 1e 40
        E 60 80 1e 00
        E 900 90 1e 40
        E 60 80 1e 00
        E 900 90 1e 40
        E 60 80 1e 00
        E 900 90 1e 40
        E 60 80 1e 00
        E 900 90 1e 40
        E 60 80 1e 00
        E 900 90 1e 40
        E 60 80 1e 00
        E 900 90 1e 40
        E 60 80 1e 00
        E 900 90 20 40
        E 60 80 20 00
        E 900 90 1e 40
        E 60 80 1e 00
        E 900 90 1e 40
        E 60 80 1e 00
        E 900 90 1e 40
        E 60 80 1e 00
        E 900 90 1e 40
        E 60 80 1e 00
        E 900 90 1e 40
        E 60 80 1e 00
        E 900 90 1e 40
        E 60 80 1e 00
        E 900 90 1e 40
        E 60 80 1e 00
        E 900 90 1e 40
        E 60 80 1e 00
        E 900 90 1e 40
        E 60 80 1e 00
        E 900 90 1e 40
        E 60 80 1e 00
        E 900 90 1e 40
        E 60 80 1e 00
        E 900 90 1e 40
        E 60 80 1e 00
        E 900 90 1e 40
        E 60 80 1e 00
        E 900 90 1e 40
        E 60 80 1e 00
        E 900 90 1e 40
        E 60 80 1e 00
        E 420 80 0e 00
        E 0 90 11 40
        E 480 90 20 40
        E 0 80 11 00
        E 0 90 0e 40
        E 0 80 0e 00
        E 0 90 24 40
        E 60 80 20 00
        E 420 80 24 00
        E 0 90 0e 40
        E 480 90 1e 40
        E 60 80 1e 00
        E 900 90 1e 40
        E 60 80 1e 00
        E 900 90 1e 40
        E 60 80 1e 00
        E 900 90 1e 40
        E 60 80 1e 00
        E 900 90 1e 40
        E 60 80 1e 00
        E 900 90 1e 40
        E 60 80 1e 00
        E 900 90 1e 40
        E 60 80 1e 00
        E 900 90 20 40
        E 0 80 0e 00
        E 0 90 25 40
        E 0 90 29 40
        E 60 80 20 00
        E 900 90 1e 40
        E 60 80 1e 00
        E 900 90 1e 40
        E 60 80 1e 00
        E 900 90 1e 40
        E 60 80 1e 00
        E 900 90 1e 40
        E 60 80 1e 00
        E 900 90 1e 40
        E 60 80 1e 00
        E 900 90 1e 40
        E 60 80 1e 00
        E 900 90 1e 40
        E 60 80 1e 00
        E 900 90 1e 40
        E 60 80 1e 00
        E 900 90 1e 40
        E 60 80 1e 00
        E 900 90 1e 40
        E 60 80 1e 00
        E 900 90 1e 40
        E 60 80 1e 00
        E 900 90 1e 40
        E 60 80 1e 00
        E 900 90 1e 40
        E 60 80 1e 00
        E 900 90 1e 40
        E 60 80 1e 00
        E 900 90 1e 40
        E 60 80 1e 00
        E 900 90 1e 40
        E 60 80 1e 00
        E 900 90 1e 40
        E 60 80 1e 00
        E 900 90 1e 40
        E 60 80 1e 00
        E 900 90 1e 40
        E 60 80 1e 00
        E 900 90 1e 40
        E 60 80 1e 00
        E 900 90 1e 40
        E 0 80 29 00
        E 60 80 1e 00
        E 420 90 1e 40
        E 60 80 1e 00
        E 180 80 25 00
        E 0 90 11 40
        E 4080 90 20 40
        E 0 80 11 00
        E 0 90 23 40
        E 0 90 47 40
        E 60 80 20 00
        E 0 80 47 00
        E 1860 90 1e 40
        E 60 80 1e 00
        E 1860 90 1e 40
        E 60 80 1e 00
        E 1860 90 1e 40
        E 60 80 1e 00
        E 1860 90 1e 40
        E 60 80 1e 00
        E 1860 90 1e 40
        E 60 80 1e 00
        E 1860 90 1e 40
        E 60 80 1e 00
        E 1860 90 1e 40
        E 60 80 1e 00
        E 1860 90 20 40
        E 0 80 23 00
        E 0 90 0e 40
        E 0 80 0e 00
        E 0 90 27 40
        E 60 80 20 00
        E 900 90 1e 40
        E 60 80 1e 00
        E 900 90 1e 40
        E 60 80 1e 00
        E 900 90 1e 40
        E 60 80 1e 00
        E 420 80 27 00
        E 0 90 11 40
        E 479 80 11 00
        E 0 90 0e 40
        E 1 90 1e 40
        E 60 80 1e 00
        E 420 80 0e 00
        E 480 90 1e 40
        E 60 80 1e 00
        E 900 90 1e 40
        E 60 80 1e 00
        E 900 90 1e 40
        E 60 80 1e 00
        E 420 90 11 40
        E 479 80 11 00
        E 0 90 0e 40
        E 1 90 1e 40
        E 60 80 1e 00
        E 420 80 0e 00
        E 480 90 1e 40
        E 60 80 1e 00
        E 900 90 1e 40
        E 60 80 1e 00
        E 900 90 1e 40
        E 60 80 1e 00
        E 420 90 11 40
        E 479 80 11 00
        E 0 90 0e 40
        E 1 90 1e 40
        E 60 80 1e 00
        E 420 80 0e 00
        E 480 90 1e 40
        E 60 80 1e 00
        E 900 90 1e 40
        E 60 80 1e 00
        E 900 90 1e 40
        E 60 80 1e 00
        E 420 90 11 40
        E 479 80 11 00
        E 0 90 0e 40
        E 1 90 20 40
        E 60 80 20 00
        E 420 80 0e 00
        E 480 90 1e 40
        E 60 80 1e 00
        E 900 90 1e 40
        E 60 80 1e 00
        E 900 90 1e 40
        E 60 80 1e 00
        E 900 90 1e 40
        E 60 80 1e 00
        E 900 90 1e 40
        E 60 80 1e 00
        E 900 90 1e 40
        E 60 80 1e 00
        E 900 90 1e 40
        E 60 80 1e 00
        E 900 90 1e 40
        E 60 80 1e 00
        E 900 90 1e 40
        E 60 80 1e 00
        E 900 90 1e 40
        E 60 80 1e 00
        E 900 90 1e 40
        E 60 80 1e 00
        E 420 90 11 40
        E 480 80 11 00
        E 0 90 27 40
        E 3840 90 20 40
        E 0 80 27 00
        E 0 90 0e 40
        E 0 80 0e 00
        E 0 90 24 40
        E 60 80 20 00
        E 420 80 24 00
        E 0 90 0e 40
        E 480 90 1e 40
        E 60 80 1e 00
        E 900 90 1e 40
        E 60 80 1e 00
        E 900 90 1e 40
        E 60 80 1e 00
        E 900 90 1e 40
        E 60 80 1e 00
        E 900 90 1e 40
        E 60 80 1e 00
        E 900 90 1e 40
        E 60 80 1e 00
        E 900 90 1e 40
        E 60 80 1e 00
        E 900 90 1e 40
        E 60 80 1e 00
        E 900 90 1e 40
        E 60 80 1e 00
        E 900 90 1e 40
        E 60 80 1e 00
        E 900 90 1e 40
        E 60 80 1e 00
        E 900 90 1e 40
        E 60 80 1e 00
        E 900 90 1e 40
        E 60 80 1e 00
        E 900 90 1e 40
        E 60 80 1e 00
        E 900 90 1e 40
        E 60 80 1e 00
        E 900 90 1e 40
        E 60 80 1e 00
        E 900 90 1e 40
        E 60 80 1e 00
        E 900 90 1e 40
        E 60 80 1e 00
        E 900 90 1e 40
        E 60 80 1e 00
        E 900 90 1e 40
        E 60 80 1e 00
        E 900 90 1e 40
        E 60 80 1e 00
        E 660 80 0e 00
        E 0 90 12 40
        E 60 80 12 00
        E 9780 b0 7b 00
        GUID {72CD2029-1D23-4BB5-B095-D3AF09B3B478}
        IGNTEMPO 0 120.00000000 4 4
        SRCCOLOR 159
        VELLANE 132 100 0
        COLORMAP "C:\Program Files\REAPER (x64)\Data\color_maps\rockband_guitarbass.png"
        CFGEDITVIEW 0.000000 0.003268 56 12 0 0 0
        CFGEDIT 1 1 0 1 1 0 1 1 1 1 1 0.12500000 53 44 1253 718 0 0 0 1 0.00000000 0 1 0 0 0.500000 0 0 1.000000 64
        KEYSNAP 0 7 "102030050700" 0 "Pentatonic"
        EVTFILTER 0 -1 -1 -1 -1 0 1 0 0 -1.00000000 -1.00000000
      >
    >
  >
  <TRACK '{3A77287A-121A-4E5A-8F4F-370A02D15A48}'
    NAME "BEAT"
    PEAKCOL 16576
    BEAT -1
    AUTOMODE 0
    VOLPAN 1.00000000000000 0.00000000000000 -1.00000000000000 -1.00000000000000 1.00000000000000
    MUTESOLO 0 0 0
    IPHASE 0
    ISBUS 0 0
    BUSCOMP 0 0
    SHOWINMIX 1 0.666700 0.500000 1 0.500000 -1 -1 -1
    FREEMODE 0
    SEL 0
    REC 0 0 0 0 0 0 0
    VU 2
    TRACKHEIGHT 0 0
    INQ 0 0 0 0.5000000000 100 0 0 100
    NCHAN 2
    FX 1
    TRACKID {3A77287A-121A-4E5A-8F4F-370A02D15A48}
    PERF 0
    MIDIOUT -1
    <MIDINOTENAMES
      0 13 "Up Beats"
      0 12 "Downbeat"
    >
    MAINSEND 1 0
    <FXCHAIN
      SHOW 0
      LASTSEL 0
      DOCKED 0
    >
    <ITEM
      POSITION 0.00000000000000
      SNAPOFFS 0.00000000000000
      LENGTH 194.42554622500001
      LOOP 0
      ALLTAKES 0
      SEL 0
      FADEIN 1 0.000000 0.000000 1 0
      FADEOUT 1 0.000000 0.000000 1 0
      MUTE 0
      IGUID {E6D2293E-994A-4682-BA1A-4B19F480112F}
      IID 11
      NAME "BEAT"
      VOLPAN 1.000000 0.000000 1.000000 -1.000000
      SOFFS 0.00000000000000 0.00000000000000
      PLAYRATE 1.00000000000000 1 0.00000000000000 -1
      CHANMODE 0
      GUID {25DBFE8E-FE49-4077-A880-5F46AADFD182}
      <SOURCE MIDI
        HASDATA 1 480 QN
        POOLEDEVTS {370E2193-6F4D-4BA8-8817-676ED1E76EB9}
        <X 0 0
          /wNCRUFU
        >
        E 0 96 0c 64
        E 120 86 0c 00
        E 360 96 0d 64
        E 120 86 0d 00
        E 360 96 0d 64
        E 120 86 0d 00
        E 360 96 0d 64
        E 120 86 0d 00
        E 360 96 0c 64
        E 120 86 0c 00
        E 360 96 0d 64
        E 120 86 0d 00
        E 360 96 0d 64
        E 120 86 0d 00
        E 360 96 0d 64
        E 120 86 0d 00
        E 360 96 0c 64
        E 120 86 0c 00
        E 360 96 0d 64
        E 120 86 0d 00
        E 360 96 0d 64
        E 120 86 0d 00
        E 360 96 0d 64
        E 120 86 0d 00
        E 360 96 0c 64
        E 120 86 0c 00
        E 360 96 0d 64
        E 120 86 0d 00
        E 360 96 0d 64
        E 120 86 0d 00
        E 360 96 0d 64
        E 120 86 0d 00
        E 360 96 0c 64
        E 120 86 0c 00
        E 360 96 0d 64
        E 120 86 0d 00
        E 360 96 0d 64
        E 120 86 0d 00
        E 360 96 0d 64
        E 120 86 0d 00
        E 360 96 0c 64
        E 120 86 0c 00
        E 360 96 0d 64
        E 120 86 0d 00
        E 360 96 0d 64
        E 120 86 0d 00
        E 360 96 0d 64
        E 120 86 0d 00
        E 360 96 0c 64
        E 120 86 0c 00
        E 360 96 0d 64
        E 120 86 0d 00
        E 360 96 0d 64
        E 120 86 0d 00
        E 360 96 0d 64
        E 120 86 0d 00
        E 360 96 0c 64
        E 120 86 0c 00
        E 360 96 0d 64
        E 120 86 0d 00
        E 360 96 0d 64
        E 120 86 0d 00
        E 360 96 0d 64
        E 120 86 0d 00
        E 360 96 0c 64
        E 120 86 0c 00
        E 360 96 0d 64
        E 120 86 0d 00
        E 360 96 0d 64
        E 120 86 0d 00
        E 360 96 0d 64
        E 120 86 0d 00
        E 360 96 0c 64
        E 120 86 0c 00
        E 360 96 0d 64
        E 120 86 0d 00
        E 360 96 0d 64
        E 120 86 0d 00
        E 360 96 0d 64
        E 120 86 0d 00
        E 360 96 0c 64
        E 120 86 0c 00
        E 360 96 0d 64
        E 120 86 0d 00
        E 360 96 0d 64
        E 120 86 0d 00
        E 360 96 0d 64
        E 120 86 0d 00
        E 360 96 0c 64
        E 120 86 0c 00
        E 360 96 0d 64
        E 120 86 0d 00
        E 360 96 0d 64
        E 120 86 0d 00
        E 360 96 0d 64
        E 120 86 0d 00
        E 360 96 0c 64
        E 120 86 0c 00
        E 360 96 0d 64
        E 120 86 0d 00
        E 360 96 0d 64
        E 120 86 0d 00
        E 360 96 0d 64
        E 120 86 0d 00
        E 360 96 0c 64
        E 120 86 0c 00
        E 360 96 0d 64
        E 120 86 0d 00
        E 360 96 0d 64
        E 120 86 0d 00
        E 360 96 0d 64
        E 120 86 0d 00
        E 360 96 0c 64
        E 120 86 0c 00
        E 360 96 0d 64
        E 120 86 0d 00
        E 360 96 0d 64
        E 120 86 0d 00
        E 360 96 0d 64
        E 120 86 0d 00
        E 360 96 0c 64
        E 120 86 0c 00
        E 360 96 0d 64
        E 120 86 0d 00
        E 360 96 0d 64
        E 120 86 0d 00
        E 360 96 0d 64
        E 120 86 0d 00
        E 360 96 0c 64
        E 120 86 0c 00
        E 360 96 0d 64
        E 120 86 0d 00
        E 360 96 0d 64
        E 120 86 0d 00
        E 360 96 0d 64
        E 120 86 0d 00
        E 360 96 0c 64
        E 120 86 0c 00
        E 360 96 0d 64
        E 120 86 0d 00
        E 360 96 0d 64
        E 120 86 0d 00
        E 360 96 0d 64
        E 120 86 0d 00
        E 360 96 0c 64
        E 120 86 0c 00
        E 360 96 0d 64
        E 120 86 0d 00
        E 360 96 0d 64
        E 120 86 0d 00
        E 360 96 0d 64
        E 120 86 0d 00
        E 360 96 0c 64
        E 120 86 0c 00
        E 360 96 0d 64
        E 120 86 0d 00
        E 360 96 0d 64
        E 120 86 0d 00
        E 360 96 0d 64
        E 120 86 0d 00
        E 360 96 0c 64
        E 120 86 0c 00
        E 360 96 0d 64
        E 120 86 0d 00
        E 360 96 0d 64
        E 120 86 0d 00
        E 360 96 0d 64
        E 120 86 0d 00
        E 360 96 0c 64
        E 120 86 0c 00
        E 360 96 0d 64
        E 120 86 0d 00
        E 360 96 0d 64
        E 120 86 0d 00
        E 360 96 0d 64
        E 120 86 0d 00
        E 360 96 0c 64
        E 120 86 0c 00
        E 360 96 0d 64
        E 120 86 0d 00
        E 360 96 0d 64
        E 120 86 0d 00
        E 360 96 0d 64
        E 120 86 0d 00
        E 360 96 0c 64
        E 120 86 0c 00
        E 360 96 0d 64
        E 120 86 0d 00
        E 360 96 0d 64
        E 120 86 0d 00
        E 360 96 0d 64
        E 120 86 0d 00
        E 360 96 0c 64
        E 120 86 0c 00
        E 360 96 0d 64
        E 120 86 0d 00
        E 360 96 0d 64
        E 120 86 0d 00
        E 360 96 0d 64
        E 120 86 0d 00
        E 360 96 0c 64
        E 120 86 0c 00
        E 360 96 0d 64
        E 120 86 0d 00
        E 360 96 0d 64
        E 120 86 0d 00
        E 360 96 0d 64
        E 120 86 0d 00
        E 360 96 0c 64
        E 120 86 0c 00
        E 360 96 0d 64
        E 120 86 0d 00
        E 360 96 0d 64
        E 120 86 0d 00
        E 360 96 0d 64
        E 120 86 0d 00
        E 360 96 0c 64
        E 120 86 0c 00
        E 360 96 0d 64
        E 120 86 0d 00
        E 360 96 0d 64
        E 120 86 0d 00
        E 360 96 0d 64
        E 120 86 0d 00
        E 360 96 0c 64
        E 120 86 0c 00
        E 360 96 0d 64
        E 120 86 0d 00
        E 360 96 0d 64
        E 120 86 0d 00
        E 360 96 0d 64
        E 120 86 0d 00
        E 360 96 0c 64
        E 120 86 0c 00
        E 360 96 0d 64
        E 120 86 0d 00
        E 360 96 0d 64
        E 120 86 0d 00
        E 360 96 0d 64
        E 120 86 0d 00
        E 360 96 0c 64
        E 120 86 0c 00
        E 360 96 0d 64
        E 120 86 0d 00
        E 360 96 0d 64
        E 120 86 0d 00
        E 360 96 0d 64
        E 120 86 0d 00
        E 360 96 0c 64
        E 120 86 0c 00
        E 360 96 0d 64
        E 120 86 0d 00
        E 360 96 0d 64
        E 120 86 0d 00
        E 360 96 0d 64
        E 120 86 0d 00
        E 360 96 0c 64
        E 120 86 0c 00
        E 360 96 0d 64
        E 120 86 0d 00
        E 360 96 0d 64
        E 120 86 0d 00
        E 360 96 0d 64
        E 120 86 0d 00
        E 360 96 0c 64
        E 120 86 0c 00
        E 360 96 0d 64
        E 120 86 0d 00
        E 360 96 0d 64
        E 120 86 0d 00
        E 360 96 0d 64
        E 120 86 0d 00
        E 360 96 0c 64
        E 120 86 0c 00
        E 360 96 0d 64
        E 120 86 0d 00
        E 360 96 0d 64
        E 120 86 0d 00
        E 360 96 0d 64
        E 120 86 0d 00
        E 360 96 0c 64
        E 120 86 0c 00
        E 360 96 0d 64
        E 120 86 0d 00
        E 360 96 0d 64
        E 120 86 0d 00
        E 360 96 0d 64
        E 120 86 0d 00
        E 360 96 0c 64
        E 120 86 0c 00
        E 360 96 0d 64
        E 120 86 0d 00
        E 360 96 0d 64
        E 120 86 0d 00
        E 360 96 0d 64
        E 120 86 0d 00
        E 360 96 0c 64
        E 120 86 0c 00
        E 360 96 0d 64
        E 120 86 0d 00
        E 360 96 0d 64
        E 120 86 0d 00
        E 360 96 0d 64
        E 120 86 0d 00
        E 360 96 0c 64
        E 120 86 0c 00
        E 360 96 0d 64
        E 120 86 0d 00
        E 360 96 0d 64
        E 120 86 0d 00
        E 360 96 0d 64
        E 120 86 0d 00
        E 360 96 0c 64
        E 120 86 0c 00
        E 360 96 0d 64
        E 120 86 0d 00
        E 360 96 0d 64
        E 120 86 0d 00
        E 360 96 0d 64
        E 120 86 0d 00
        E 360 96 0c 64
        E 120 86 0c 00
        E 360 96 0d 64
        E 120 86 0d 00
        E 360 96 0d 64
        E 120 86 0d 00
        E 360 96 0d 64
        E 120 86 0d 00
        E 360 96 0c 64
        E 120 86 0c 00
        E 360 96 0d 64
        E 120 86 0d 00
        E 360 96 0d 64
        E 120 86 0d 00
        E 360 96 0d 64
        E 120 86 0d 00
        E 360 96 0c 64
        E 120 86 0c 00
        E 360 96 0d 64
        E 120 86 0d 00
        E 360 96 0d 64
        E 120 86 0d 00
        E 360 96 0d 64
        E 120 86 0d 00
        E 360 96 0c 64
        E 120 86 0c 00
        E 360 96 0d 64
        E 120 86 0d 00
        E 360 96 0d 64
        E 120 86 0d 00
        E 360 96 0d 64
        E 120 86 0d 00
        E 360 96 0c 64
        E 120 86 0c 00
        E 360 96 0d 64
        E 120 86 0d 00
        E 360 96 0d 64
        E 120 86 0d 00
        E 360 96 0d 64
        E 120 86 0d 00
        E 360 96 0c 64
        E 120 86 0c 00
        E 360 96 0d 64
        E 120 86 0d 00
        E 360 96 0d 64
        E 120 86 0d 00
        E 360 96 0d 64
        E 120 86 0d 00
        E 360 96 0c 64
        E 120 86 0c 00
        E 360 96 0d 64
        E 120 86 0d 00
        E 360 96 0d 64
        E 120 86 0d 00
        E 360 96 0d 64
        E 120 86 0d 00
        E 360 96 0c 64
        E 120 86 0c 00
        E 360 96 0d 64
        E 120 86 0d 00
        E 360 96 0d 64
        E 120 86 0d 00
        E 360 96 0d 64
        E 120 86 0d 00
        E 360 96 0c 64
        E 120 86 0c 00
        E 360 96 0d 64
        E 120 86 0d 00
        E 360 96 0d 64
        E 120 86 0d 00
        E 360 96 0d 64
        E 120 86 0d 00
        E 360 96 0c 64
        E 120 86 0c 00
        E 360 96 0d 64
        E 120 86 0d 00
        E 360 96 0d 64
        E 120 86 0d 00
        E 360 96 0d 64
        E 120 86 0d 00
        E 360 96 0c 64
        E 120 86 0c 00
        E 360 96 0d 64
        E 120 86 0d 00
        E 360 96 0d 64
        E 120 86 0d 00
        E 360 96 0d 64
        E 120 86 0d 00
        E 360 96 0c 64
        E 120 86 0c 00
        E 360 96 0d 64
        E 120 86 0d 00
        E 360 96 0d 64
        E 120 86 0d 00
        E 360 96 0d 64
        E 120 86 0d 00
        E 360 96 0c 64
        E 120 86 0c 00
        E 360 96 0d 64
        E 120 86 0d 00
        E 360 96 0d 64
        E 120 86 0d 00
        E 360 96 0d 64
        E 120 86 0d 00
        E 360 96 0c 64
        E 120 86 0c 00
        E 360 96 0d 64
        E 120 86 0d 00
        E 360 96 0d 64
        E 120 86 0d 00
        E 360 96 0d 64
        E 120 86 0d 00
        E 360 96 0c 64
        E 120 86 0c 00
        E 360 96 0d 64
        E 120 86 0d 00
        E 360 96 0d 64
        E 120 86 0d 00
        E 360 96 0d 64
        E 120 86 0d 00
        E 360 96 0c 64
        E 120 86 0c 00
        E 360 96 0d 64
        E 120 86 0d 00
        E 360 96 0d 64
        E 120 86 0d 00
        E 360 96 0d 64
        E 120 86 0d 00
        E 360 96 0c 64
        E 120 86 0c 00
        E 360 96 0d 64
        E 120 86 0d 00
        E 360 96 0d 64
        E 120 86 0d 00
        E 360 96 0d 64
        E 120 86 0d 00
        E 360 96 0c 64
        E 120 86 0c 00
        E 360 96 0d 64
        E 120 86 0d 00
        E 360 96 0d 64
        E 120 86 0d 00
        E 360 96 0d 64
        E 120 86 0d 00
        E 360 96 0c 64
        E 120 86 0c 00
        E 360 96 0d 64
        E 120 86 0d 00
        E 360 96 0d 64
        E 120 86 0d 00
        E 360 96 0d 64
        E 120 86 0d 00
        E 360 96 0c 64
        E 120 86 0c 00
        E 360 96 0d 64
        E 120 86 0d 00
        E 360 96 0d 64
        E 120 86 0d 00
        E 360 96 0d 64
        E 120 86 0d 00
        E 360 96 0c 64
        E 120 86 0c 00
        E 360 96 0d 64
        E 120 86 0d 00
        E 360 96 0d 64
        E 120 86 0d 00
        E 360 96 0d 64
        E 120 86 0d 00
        E 360 96 0c 64
        E 120 86 0c 00
        E 360 96 0d 64
        E 120 86 0d 00
        E 360 96 0d 64
        E 120 86 0d 00
        E 360 96 0d 64
        E 120 86 0d 00
        E 360 96 0c 64
        E 120 86 0c 00
        E 360 96 0d 64
        E 120 86 0d 00
        E 360 96 0d 64
        E 120 86 0d 00
        E 360 96 0d 64
        E 120 86 0d 00
        E 360 96 0c 64
        E 120 86 0c 00
        E 360 96 0d 64
        E 120 86 0d 00
        E 360 96 0d 64
        E 120 86 0d 00
        E 360 96 0d 64
        E 120 86 0d 00
        E 360 96 0c 64
        E 120 86 0c 00
        E 360 96 0d 64
        E 120 86 0d 00
        E 360 96 0d 64
        E 120 86 0d 00
        E 360 96 0d 64
        E 120 86 0d 00
        E 360 96 0c 64
        E 120 86 0c 00
        E 360 96 0d 64
        E 120 86 0d 00
        E 360 96 0d 64
        E 120 86 0d 00
        E 360 96 0d 64
        E 120 86 0d 00
        E 360 96 0c 64
        E 120 86 0c 00
        E 360 96 0d 64
        E 120 86 0d 00
        E 360 96 0d 64
        E 120 86 0d 00
        E 360 96 0d 64
        E 120 86 0d 00
        E 360 96 0c 64
        E 120 86 0c 00
        E 360 96 0d 64
        E 120 86 0d 00
        E 360 96 0d 64
        E 120 86 0d 00
        E 360 96 0d 64
        E 120 86 0d 00
        E 360 96 0c 64
        E 120 86 0c 00
        E 360 96 0d 64
        E 120 86 0d 00
        E 360 96 0d 64
        E 120 86 0d 00
        E 360 96 0d 64
        E 120 86 0d 00
        E 360 96 0c 64
        E 120 86 0c 00
        E 360 96 0d 64
        E 120 86 0d 00
        E 360 96 0d 64
        E 120 86 0d 00
        E 360 96 0d 64
        E 120 86 0d 00
        E 360 96 0c 64
        E 120 86 0c 00
        E 360 96 0d 64
        E 120 86 0d 00
        E 360 96 0d 64
        E 120 86 0d 00
        E 360 96 0d 64
        E 120 86 0d 00
        E 360 96 0c 64
        E 120 86 0c 00
        E 360 96 0d 64
        E 120 86 0d 00
        E 360 96 0d 64
        E 120 86 0d 00
        E 360 96 0d 64
        E 120 86 0d 00
        E 360 96 0c 64
        E 120 86 0c 00
        E 360 96 0d 64
        E 120 86 0d 00
        E 360 96 0d 64
        E 120 86 0d 00
        E 360 96 0d 64
        E 120 86 0d 00
        E 360 96 0c 64
        E 120 86 0c 00
        E 360 96 0d 64
        E 120 86 0d 00
        E 360 96 0d 64
        E 120 86 0d 00
        E 360 96 0d 64
        E 120 86 0d 00
        E 360 96 0c 64
        E 120 86 0c 00
        E 360 96 0d 64
        E 120 86 0d 00
        E 360 96 0d 64
        E 120 86 0d 00
        E 360 96 0d 64
        E 120 86 0d 00
        E 360 96 0c 64
        E 120 86 0c 00
        E 360 96 0d 64
        E 120 86 0d 00
        E 360 96 0d 64
        E 120 86 0d 00
        E 360 96 0d 64
        E 120 86 0d 00
        E 360 96 0c 64
        E 120 86 0c 00
        E 360 96 0d 64
        E 120 86 0d 00
        E 360 96 0d 64
        E 120 86 0d 00
        E 360 96 0d 64
        E 120 86 0d 00
        E 360 96 0c 64
        E 120 86 0c 00
        E 360 96 0d 64
        E 120 86 0d 00
        E 360 96 0d 64
        E 120 86 0d 00
        E 360 96 0d 64
        E 120 86 0d 00
        E 360 96 0c 64
        E 120 86 0c 00
        E 360 96 0d 64
        E 120 86 0d 00
        E 360 96 0d 64
        E 120 86 0d 00
        E 360 96 0d 64
        E 120 86 0d 00
        E 360 96 0c 64
        E 120 86 0c 00
        E 360 96 0d 64
        E 120 86 0d 00
        E 360 96 0d 64
        E 120 86 0d 00
        E 360 96 0d 64
        E 120 86 0d 00
        E 360 96 0c 64
        E 120 86 0c 00
        E 360 96 0d 64
        E 120 86 0d 00
        E 360 96 0d 64
        E 120 86 0d 00
        E 360 96 0d 64
        E 120 86 0d 00
        E 360 96 0c 64
        E 120 86 0c 00
        E 360 96 0d 64
        E 120 86 0d 00
        E 360 96 0d 64
        E 120 86 0d 00
        E 360 96 0d 64
        E 120 86 0d 00
        E 360 96 0c 64
        E 120 86 0c 00
        E 360 96 0d 64
        E 120 86 0d 00
        E 360 96 0d 64
        E 120 86 0d 00
        E 360 96 0d 64
        E 120 86 0d 00
        E 360 96 0c 64
        E 120 86 0c 00
        E 360 96 0d 64
        E 120 86 0d 00
        E 360 96 0d 64
        E 120 86 0d 00
        E 360 96 0d 64
        E 120 86 0d 00
        E 360 96 0c 64
        E 120 86 0c 00
        E 360 96 0d 64
        E 120 86 0d 00
        E 360 96 0d 64
        E 120 86 0d 00
        E 360 96 0d 64
        E 120 86 0d 00
        E 360 96 0c 64
        E 120 86 0c 00
        E 360 96 0d 64
        E 120 86 0d 00
        E 360 96 0d 64
        E 120 86 0d 00
        E 360 96 0d 64
        E 120 86 0d 00
        E 360 96 0c 64
        E 120 86 0c 00
        E 360 96 0d 64
        E 120 86 0d 00
        E 360 96 0d 64
        E 120 86 0d 00
        E 360 96 0d 64
        E 120 86 0d 00
        E 360 96 0c 64
        E 120 86 0c 00
        E 360 96 0d 64
        E 120 86 0d 00
        E 360 96 0d 64
        E 120 86 0d 00
        E 360 96 0d 64
        E 120 86 0d 00
        E 360 96 0c 64
        E 120 86 0c 00
        E 360 96 0d 64
        E 120 86 0d 00
        E 360 96 0d 64
        E 120 86 0d 00
        E 360 96 0d 64
        E 120 86 0d 00
        E 360 96 0c 64
        E 120 86 0c 00
        E 360 96 0d 64
        E 120 86 0d 00
        E 360 96 0d 64
        E 120 86 0d 00
        E 360 96 0d 64
        E 120 86 0d 00
        E 360 96 0c 64
        E 120 86 0c 00
        E 360 96 0d 64
        E 120 86 0d 00
        E 360 96 0d 64
        E 120 86 0d 00
        E 360 96 0d 64
        E 120 86 0d 00
        E 360 96 0c 64
        E 120 86 0c 00
        E 360 96 0d 64
        E 120 86 0d 00
        E 360 96 0d 64
        E 120 86 0d 00
        E 360 96 0d 64
        E 120 86 0d 00
        E 360 96 0c 64
        E 120 86 0c 00
        E 360 96 0d 64
        E 120 86 0d 00
        E 360 96 0d 64
        E 120 86 0d 00
        E 360 96 0d 64
        E 120 86 0d 00
        E 360 96 0c 64
        E 120 86 0c 00
        E 360 96 0d 64
        E 120 86 0d 00
        E 360 96 0d 64
        E 120 86 0d 00
        E 360 96 0d 64
        E 120 86 0d 00
        E 360 96 0c 64
        E 120 86 0c 00
        E 360 96 0d 64
        E 120 86 0d 00
        E 360 96 0d 64
        E 120 86 0d 00
        E 360 96 0d 64
        E 120 86 0d 00
        E 360 96 0c 64
        E 120 86 0c 00
        E 360 96 0d 64
        E 120 86 0d 00
        E 360 96 0d 64
        E 120 86 0d 00
        E 360 96 0d 64
        E 120 86 0d 00
        E 360 96 0c 64
        E 120 86 0c 00
        E 360 96 0d 64
        E 120 86 0d 00
        E 360 96 0d 64
        E 120 86 0d 00
        E 360 96 0d 64
        E 120 86 0d 00
        E 360 96 0c 64
        E 120 86 0c 00
        E 360 96 0d 64
        E 120 86 0d 00
        E 360 96 0d 64
        E 120 86 0d 00
        E 360 96 0d 64
        E 120 86 0d 00
        E 360 96 0c 64
        E 120 86 0c 00
        E 360 96 0d 64
        E 120 86 0d 00
        E 360 96 0d 64
        E 120 86 0d 00
        E 360 96 0d 64
        E 120 86 0d 00
        E 360 96 0c 64
        E 120 86 0c 00
        E 360 96 0d 64
        E 120 86 0d 00
        E 360 96 0d 64
        E 120 86 0d 00
        E 360 96 0d 64
        E 120 86 0d 00
        E 360 96 0c 64
        E 120 86 0c 00
        E 360 96 0d 64
        E 120 86 0d 00
        E 360 96 0d 64
        E 120 86 0d 00
        E 360 96 0d 64
        E 120 86 0d 00
        E 360 96 0c 64
        E 120 86 0c 00
        E 360 96 0d 64
        E 120 86 0d 00
        E 360 96 0d 64
        E 120 86 0d 00
        E 360 96 0d 64
        E 120 86 0d 00
        E 360 96 0c 64
        E 120 86 0c 00
        E 360 96 0d 64
        E 120 86 0d 00
        E 360 96 0d 64
        E 120 86 0d 00
        E 360 96 0d 64
        E 120 86 0d 00
        E 360 96 0c 64
        E 120 86 0c 00
        E 360 96 0d 64
        E 120 86 0d 00
        E 360 96 0d 64
        E 120 86 0d 00
        E 360 96 0d 64
        E 120 86 0d 00
        E 360 96 0c 64
        E 120 86 0c 00
        E 360 96 0d 64
        E 120 86 0d 00
        E 360 96 0d 64
        E 120 86 0d 00
        E 360 96 0d 64
        E 120 86 0d 00
        E 360 96 0c 64
        E 120 86 0c 00
        E 360 96 0d 64
        E 120 86 0d 00
        E 360 96 0d 64
        E 120 86 0d 00
        E 360 96 0d 64
        E 120 86 0d 00
        E 360 96 0c 64
        E 120 86 0c 00
        E 360 96 0d 64
        E 120 86 0d 00
        E 360 96 0d 64
        E 120 86 0d 00
        E 360 96 0d 64
        E 120 86 0d 00
        E 360 96 0c 64
        E 120 86 0c 00
        E 360 96 0d 64
        E 120 86 0d 00
        E 360 96 0d 64
        E 120 86 0d 00
        E 360 96 0d 64
        E 120 86 0d 00
        E 360 96 0c 64
        E 120 86 0c 00
        E 360 96 0d 64
        E 120 86 0d 00
        E 360 96 0d 64
        E 120 86 0d 00
        E 360 96 0d 64
        E 120 86 0d 00
        E 360 b0 7b 00
        GUID {BBE201E1-AD35-4747-90FC-89100D867359}
        IGNTEMPO 0 120.00000000 4 4
        SRCCOLOR 124
        VELLANE 132 100 0
        COLORMAP "C:\Program Files\REAPER (x64)\Data\color_maps\rockband_guitarbass.png"
        CFGEDITVIEW 0.000000 0.003268 0 48 0 0 0
        CFGEDIT 1 1 0 1 1 0 1 1 1 1 1 0.12500000 53 44 1253 718 0 2 0 1 0.00000000 0 1 0 0 0.500000 0 0 1.000000 64
        KEYSNAP 0 7 "102030050700" 0 "Pentatonic"
        EVTFILTER 0 -1 -1 -1 -1 0 1 0 0 -1.00000000 -1.00000000
      >
    >
  >
  <TRACK '{1A901CBC-88C0-4674-A839-C342C8DB9560}'
    NAME "backing"
    PEAKCOL 16576
    BEAT -1
    AUTOMODE 0
    VOLPAN 1.00000000000000 0.00000000000000 -1.00000000000000 -1.00000000000000 1.00000000000000
    MUTESOLO 0 0 0
    IPHASE 0
    ISBUS 0 0
    BUSCOMP 0 0
    SHOWINMIX 1 0.666700 0.500000 1 0.500000 -1 -1 -1
    FREEMODE 0
    SEL 0
    REC 0 0 0 0 0 0 0
    VU 2
    TRACKHEIGHT 0 0
    INQ 0 0 0 0.5000000000 100 0 0 100
    NCHAN 2
    FX 1
    TRACKID {1A901CBC-88C0-4674-A839-C342C8DB9560}
    PERF 0
    MIDIOUT -1
    MAINSEND 1 0
    <ITEM
      POSITION 0.00000000000000
      SNAPOFFS 0.00000000000000
      LENGTH 194.42541950113377
      LOOP 0
      ALLTAKES 0
      SEL 0
      FADEIN 1 0.000000 0.000000 1 0
      FADEOUT 1 0.000000 0.000000 1 0
      MUTE 0
      IGUID {C194D7CD-B424-437E-903C-E59B70C9E3C7}
      IID 12
      NAME "backing.wav"
      VOLPAN 1.000000 0.000000 1.000000 -1.000000
      SOFFS 0.00000000000000
      PLAYRATE 1.00000000000000 1 0.00000000000000 -1
      CHANMODE 0
      GUID {CCB3A187-B972-4FDB-89E3-0F4053DCA01C}
      <SOURCE WAVE
        FILE "wav\backing.wav"
      >
    >
  >
  <EXTENSIONS
  >
>
