<REAPER_PROJECT 0.1 "4.22/x64"
  RIPPLE 0
  GROUPOVERRIDE 0 0 0
  AUTOXFADE 1
  ENVATTACH 1
  MIXERUIFLAGS 11 48
  PEAKGAIN 1.00000000000000
  FEEDBACK 0
  PANLAW 1.00000000000000
  PROJOFFS 0.00000000000000 0
  MAXPROJLEN 0 600.00000000000000
  GRID 3199 8 1.00000000000000 8 1.00000000000000 0
  TIMEMODE 1 0 -1
  PANMODE 3
  CURSOR 0.00000000000000
  ZOOM 10.29345786773578 0 0
  VZOOMEX 6
  USE_REC_CFG 0
  RECMODE 1
  SMPTESYNC 0 23.976024 100 40 1000 300 0 0.000000 1
  LOOP 1
  LOOPGRAN 0 4.00000000000000
  RECORD_PATH "" ""
  <RECORD_CFG
    ZXZhdxAD
  >
  <APPLYFX_CFG
  >
  RENDER_FILE ""
  RENDER_PATTERN ""
  RENDER_FMT 0 2 0
  RENDER_1X 0
  RENDER_RANGE 1 0.00000000000000 0.00000000000000
  RENDER_RESAMPLE 3 0 1
  RENDER_ADDTOPROJ 0
  RENDER_STEMS 0
  RENDER_DITHER 0
  TIMELOCKMODE 0
  ITEMMIX 0
  DEFPITCHMODE 393216
  TAKELANE 1
  SAMPLERATE 44100 0 0
  <RENDER_CFG
  >
  LOCK 1
  <METRONOME 6 2.000000
    VOL 0.250000 0.125000
    FREQ 800 1600 1
    BEATLEN 4
    SAMPLES "" ""
  >
  GLOBAL_AUTO -1
  TEMPO 120.00000000000000 4 4
  PLAYRATE 1.00000000000000 0 0.25000 4.00000
  SELECTION 109.09842099999985 0.00000000000000
  SELECTION2 109.09842099999985 0.00000000000000
  MASTERAUTOMODE 0
  MASTERTRACKHEIGHT 0
  MASTERPEAKCOL 16576
  MASTERMUTESOLO 0
  MASTERTRACKVIEW 0 0.666700 0.500000 0.500000 -1 -1 -1
  MASTERHWOUT 0 0 1.00000000000000 0.00000000000000 0 0 0 -1.00000000000000
  MASTER_NCH 2 2
  MASTER_VOLUME 0.32971657736377 0.00000000000000 -1.00000000000000 -1.00000000000000 1.00000000000000
  MASTER_PANMODE -1
  MASTER_FX 1
  MASTER_SEL 0
  <MASTERPLAYSPEEDENV
    ACT 0
    VIS 0 1 1.000000
    LANEHEIGHT 0 0
    ARM 0
    DEFSHAPE 0 -1 -1
  >
  <TEMPOENVEX
    ACT 1
    VIS 1 0 1.000000
    LANEHEIGHT 0 0
    ARM 0
    DEFSHAPE 1 -1 -1
    PT 0.000000000000 228.5714285714 1
    PT 6.300000000000 224.0001194667 1
    PT 11.657140000000 221.7139225258 1
    PT 12.739616000000 227.4286537361 1
    PT 14.850168000000 222.8569518369 1
    PT 15.657861000000 225.1432473912 1
    PT 21.254298000000 212.5714771592 1
    PT 22.383330000000 224.0001194667 1
    PT 27.472613000000 225.1432473912 1
    PT 30.937074000000 219.4281701885 1
    PT 32.030826000000 226.2853005069 1
    PT 35.212650000000 219.4281701885 1
    PT 37.400154000000 228.5714285714 1
    PT 38.450154000000 221.7139225258 1
    PT 39.532630000000 226.2853005069 1
    PT 44.835670000000 229.7143119673 1
    PT 45.880446000000 219.4289726701 1
    PT 48.067942000000 218.2858016000 1
    PT 49.167418000000 233.1428038531 1
    PT 50.196830000000 224.0001194667 1
    PT 54.482542000000 221.7139225258 1
    PT 59.624303000000 227.4286537361 1
    PT 61.998674000000 224.0001194667 1
    PT 65.212958000000 214.8573884084 1
    PT 66.329978000000 221.7139225258 1
    PT 67.141835000000 231.9997216003 1
    PT 68.176319000000 226.2853005069 1
    PT 70.562687000000 224.0001194667 1
    PT 76.991255000000 222.8569518369 1
    PT 80.222027000000 226.2853005069 1
    PT 81.282635000000 218.2858016000 1
    PT 82.382111000000 226.2853005069 1
    PT 85.563935000000 220.5712058995 1
    PT 86.652019000000 222.8569518369 1
    PT 92.036639000000 227.4286537361 1
    PT 93.091915000000 220.5712058995 1
    PT 94.179999000000 227.4286537361 1
    PT 98.401103000000 221.7139225258 1
    PT 99.483579000000 225.1432473912 1
    PT 100.549567000000 228.5714285714 1
    PT 101.599567000000 220.5712058995 1
    PT 103.503714000000 205.7140506125 1
    PT 103.795381000000 226.2853005069 1
  >
  <PROJBAY
  >
  <TRACK '{44505A2D-711B-4B32-9CDD-B63A37C397D4}'
    NAME "PART DRUMS"
    PEAKCOL 16576
    BEAT -1
    AUTOMODE 0
    VOLPAN 1.00000000000000 0.00000000000000 -1.00000000000000 -1.00000000000000 1.00000000000000
    MUTESOLO 0 0 0
    IPHASE 0
    ISBUS 0 0
    BUSCOMP 0 0
    SHOWINMIX 1 0.666700 0.500000 1 0.500000 -1 -1 -1
    FREEMODE 0
    SEL 0
    REC 0 0 0 0 0 0 0
    VU 2
    TRACKHEIGHT 0 0
    INQ 0 0 0 0.5000000000 100 0 0 100
    NCHAN 2
    FX 1
    TRACKID {44505A2D-711B-4B32-9CDD-B63A37C397D4}
    PERF 0
    MIDIOUT -1
    <MIDINOTENAMES
      0 127 "CYMBAL SWELLS"
      0 126 "DRUM ROLL"
      0 125 "---"
      0 124 "DRUM FILL"
      0 123 "DRUM FILL"
      0 122 "DRUM FILL"
      0 121 "DRUM FILL"
      0 120 "DRUM FILL (use all 5)"
      0 118 "----"
      0 116 "OVERDRIVE"
      0 114 "----"
      0 112 "TOM GEMS PAD 4"
      0 111 "TOM GEMS PAD 3"
      0 110 "TOM GEMS PAD 2"
      0 103 "Solo Marker"
      0 102 "----"
      0 100 "EXPERT Green"
      0 99 "EXPERT Blue"
      0 98 "EXPERT Yellow"
      0 97 "EXPERT Red"
      0 96 "EXPERT Kick"
      0 92 "----"
      0 88 "HARD Green"
      0 87 "HARD Blue"
      0 86 "HARD Yellow"
      0 85 "HARD Red"
      0 84 "HARD Kick"
      0 80 "----"
      0 76 "MEDIUM Green"
      0 75 "MEDIUM Blue"
      0 74 "MEDIUM Yellow"
      0 73 "MEDIUM Red"
      0 72 "MEDIUM Kick"
      0 68 "----"
      0 64 "EASY Green"
      0 63 "EASY Blue"
      0 62 "EASY Yellow"
      0 61 "EASY Red"
      0 60 "EASY Kick"
      0 56 "----"
      0 52 "-- DRUM ANIMATION --"
      0 51 "FLOOR TOM RH"
      0 50 "FLOOR TOM LH"
      0 49 "TOM2 RH"
      0 48 "TOM2 LH"
      0 47 "TOM1 RH"
      0 46 "TOM1 LH"
      0 45 "SOFT CRASH 2 LH"
      0 44 "CRASH 2 LH"
      0 43 "RIDE LH"
      0 42 "RIDE CYM RH"
      0 41 "CRASH2 CHOKE"
      0 40 "CRASH1 CHOKE"
      0 39 "CRASH2 SOFT RH"
      0 38 "CRASH2 HARD RH"
      0 37 "CRASH1 SOFT RH"
      0 36 "CRASH1 HARD RH"
      0 35 "CRASH1 SOFT LH"
      0 34 "CRASH1 HARD LH"
      0 32 "PERCUSSION RH"
      0 31 "HI-HAT RH"
      0 30 "HI-HAT LH"
      0 29 "SOFT SNARE RH"
      0 28 "SOFT SNARE LH"
      0 27 "SNARE RH"
      0 26 "SNARE LH"
      0 25 "HI-HAT OPEN"
      0 24 "KICK RF"
    >
    MAINSEND 1 0
    <FXCHAIN
      WNDRECT 0 43 891 559
      SHOW 0
      LASTSEL 0
      DOCKED 0
      BYPASS 0 0
      <VST "VSTi: RBN Preview (RBN)" "rbprev_vst64.dll" 0 ""
        dnBicu5e7f4AAAAAAgAAAAEAAAAAAAAAAgAAAAAAAAAEAAAAAQAAAA==
        AAAQAAMBqgAAABAAAAA=
      >
      FLOATPOS 0 0 0 0
      FXID {A7942206-7397-4A1B-8905-1F1B2002519B}
      WAK 0
    >
    <ITEM
      POSITION 0.00000000000000
      SNAPOFFS 0.00000000000000
      LENGTH 109.09839002267573
      LOOP 0
      ALLTAKES 0
      SEL 0
      FADEIN 1 0.000000 0.000000 1 0
      FADEOUT 1 0.000000 0.000000 1 0
      MUTE 0
      IGUID {B02D1392-498A-40D9-8B48-E7995CF44A07}
      IID 1
      NAME "PART DRUMS"
      VOLPAN 1.000000 0.000000 1.000000 -1.000000
      SOFFS 0.00000000000000 0.00000000000000
      PLAYRATE 1.00000000000000 1 0.00000000000000 -1
      CHANMODE 0
      GUID {A35BED32-F116-410E-BD41-6A6CF6A7D266}
      <SOURCE MIDI
        HASDATA 1 480 QN
        POOLEDEVTS {66B15AFD-73A4-49D2-96F5-8A6C1713482B}
        <X 0 0
          /wNQQVJUIERSVU1T
        >
        <X 120 0
          /wFbbWl4IDAgZHJ1bXMwXQ==
        >
        <X 120 0
          /wFbbWl4IDEgZHJ1bXMwXQ==
        >
        <X 120 0
          /wFbbWl4IDIgZHJ1bXMwXQ==
        >
        <X 120 0
          /wFbbWl4IDMgZHJ1bXMwXQ==
        >
        E 0 90 19 60
        E 1440 80 19 00
        E 1920 90 19 60
        <X 3600 0
          /wFbaW50ZW5zZV0=
        >
        E 240 90 1a 60
        E 0 90 1f 60
        E 0 90 3d 60
        E 0 90 3e 60
        E 0 90 49 60
        E 0 90 4a 60
        E 0 90 55 60
        E 0 90 56 60
        E 0 90 61 60
        E 0 90 62 60
        E 120 80 1a 00
        E 0 80 1f 00
        E 0 80 3d 00
        E 0 80 3e 00
        E 0 80 49 00
        E 0 80 4a 00
        E 0 80 55 00
        E 0 80 56 00
        E 0 80 61 00
        E 0 80 62 00
        E 120 90 18 60
        E 0 90 54 60
        E 0 90 60 60
        E 120 80 18 00
        E 0 80 54 00
        E 0 80 60 00
        E 120 90 1a 60
        E 0 90 1f 60
        E 0 90 49 60
        E 0 90 4a 60
        E 0 90 55 60
        E 0 90 56 60
        E 0 90 61 60
        E 0 90 62 60
        E 120 80 1a 00
        E 0 80 1f 00
        E 0 80 49 00
        E 0 80 4a 00
        E 0 80 55 00
        E 0 80 56 00
        E 0 80 61 00
        E 0 80 62 00
        E 120 90 18 60
        E 0 90 54 60
        E 0 90 60 60
        E 120 80 18 00
        E 0 80 54 00
        E 0 80 60 00
        E 120 90 1a 60
        E 0 90 1f 60
        E 0 90 3d 60
        E 0 90 3e 60
        E 0 90 49 60
        E 0 90 4a 60
        E 0 90 55 60
        E 0 90 56 60
        E 0 90 61 60
        E 0 90 62 60
        E 120 80 1a 00
        E 0 80 1f 00
        E 0 80 3d 00
        E 0 80 3e 00
        E 0 80 49 00
        E 0 80 4a 00
        E 0 80 55 00
        E 0 80 56 00
        E 0 80 61 00
        E 0 80 62 00
        E 120 90 18 60
        E 0 90 60 60
        E 120 80 18 00
        E 0 80 60 00
        E 120 90 1a 60
        E 0 90 55 60
        E 0 90 61 60
        E 120 80 1a 00
        E 0 80 55 00
        E 0 80 61 00
        E 360 90 1a 60
        E 0 90 1f 60
        E 0 90 3d 60
        E 0 90 3e 60
        E 0 90 49 60
        E 0 90 4a 60
        E 0 90 55 60
        E 0 90 56 60
        E 0 90 61 60
        E 0 90 62 60
        E 120 80 1a 00
        E 0 80 1f 00
        E 0 80 3d 00
        E 0 80 3e 00
        E 0 80 49 00
        E 0 80 4a 00
        E 0 80 55 00
        E 0 80 56 00
        E 0 80 61 00
        E 0 80 62 00
        E 120 90 18 60
        E 0 90 54 60
        E 0 90 60 60
        E 120 80 18 00
        E 0 80 54 00
        E 0 80 60 00
        E 120 90 1a 60
        E 0 90 1f 60
        E 0 90 49 60
        E 0 90 4a 60
        E 0 90 55 60
        E 0 90 56 60
        E 0 90 61 60
        E 0 90 62 60
        E 120 80 1a 00
        E 0 80 1f 00
        E 0 80 49 00
        E 0 80 4a 00
        E 0 80 55 00
        E 0 80 56 00
        E 0 80 61 00
        E 0 80 62 00
        E 120 90 18 60
        E 0 90 54 60
        E 0 90 60 60
        E 120 80 18 00
        E 0 80 54 00
        E 0 80 60 00
        E 120 90 1a 60
        E 0 90 1f 60
        E 0 90 3d 60
        E 0 90 3e 60
        E 0 90 49 60
        E 0 90 4a 60
        E 0 90 55 60
        E 0 90 56 60
        E 0 90 61 60
        E 0 90 62 60
        E 120 80 1a 00
        E 0 80 1f 00
        E 0 80 3d 00
        E 0 80 3e 00
        E 0 80 49 00
        E 0 80 4a 00
        E 0 80 55 00
        E 0 80 56 00
        E 0 80 61 00
        E 0 80 62 00
        E 120 90 18 60
        E 0 90 60 60
        E 120 80 18 00
        E 0 80 60 00
        E 120 90 1a 60
        E 0 90 55 60
        E 0 90 61 60
        E 120 80 1a 00
        E 0 80 55 00
        E 0 80 61 00
        E 360 90 1a 60
        E 0 90 1f 60
        E 0 90 3d 60
        E 0 90 3e 60
        E 0 90 49 60
        E 0 90 4a 60
        E 0 90 55 60
        E 0 90 56 60
        E 0 90 61 60
        E 0 90 62 60
        E 120 80 1a 00
        E 0 80 1f 00
        E 0 80 3d 00
        E 0 80 3e 00
        E 0 80 49 00
        E 0 80 4a 00
        E 0 80 55 00
        E 0 80 56 00
        E 0 80 61 00
        E 0 80 62 00
        E 120 90 18 60
        E 0 90 54 60
        E 0 90 60 60
        E 120 80 18 00
        E 0 80 54 00
        E 0 80 60 00
        E 120 90 1a 60
        E 0 90 1f 60
        E 0 90 49 60
        E 0 90 4a 60
        E 0 90 55 60
        E 0 90 56 60
        E 0 90 61 60
        E 0 90 62 60
        E 120 80 1a 00
        E 0 80 1f 00
        E 0 80 49 00
        E 0 80 4a 00
        E 0 80 55 00
        E 0 80 56 00
        E 0 80 61 00
        E 0 80 62 00
        E 120 90 18 60
        E 0 90 54 60
        E 0 90 60 60
        E 120 80 18 00
        E 0 80 54 00
        E 0 80 60 00
        E 120 90 1a 60
        E 0 90 1f 60
        E 0 90 3d 60
        E 0 90 3e 60
        E 0 90 49 60
        E 0 90 4a 60
        E 0 90 55 60
        E 0 90 56 60
        E 0 90 61 60
        E 0 90 62 60
        E 120 80 1a 00
        E 0 80 1f 00
        E 0 80 3d 00
        E 0 80 3e 00
        E 0 80 49 00
        E 0 80 4a 00
        E 0 80 55 00
        E 0 80 56 00
        E 0 80 61 00
        E 0 80 62 00
        E 120 90 18 60
        E 0 90 60 60
        E 120 80 18 00
        E 0 80 60 00
        E 120 90 1a 60
        E 0 90 55 60
        E 0 90 61 60
        E 120 80 1a 00
        E 0 80 55 00
        E 0 80 61 00
        E 360 90 1a 60
        E 0 90 1f 60
        E 0 90 3d 60
        E 0 90 3e 60
        E 0 90 49 60
        E 0 90 4a 60
        E 0 90 55 60
        E 0 90 56 60
        E 0 90 61 60
        E 0 90 62 60
        E 120 80 1a 00
        E 0 80 1f 00
        E 0 80 3d 00
        E 0 80 3e 00
        E 0 80 49 00
        E 0 80 4a 00
        E 0 80 55 00
        E 0 80 56 00
        E 0 80 61 00
        E 0 80 62 00
        E 120 90 18 60
        E 0 90 54 60
        E 0 90 60 60
        E 120 80 18 00
        E 0 80 54 00
        E 0 80 60 00
        E 120 90 1a 60
        E 0 90 1f 60
        E 0 90 49 60
        E 0 90 4a 60
        E 0 90 55 60
        E 0 90 56 60
        E 0 90 61 60
        E 0 90 62 60
        E 120 80 1a 00
        E 0 80 1f 00
        E 0 80 49 00
        E 0 80 4a 00
        E 0 80 55 00
        E 0 80 56 00
        E 0 80 61 00
        E 0 80 62 00
        E 120 90 18 60
        E 0 90 54 60
        E 0 90 60 60
        E 120 80 18 00
        E 0 80 54 00
        E 0 80 60 00
        E 120 90 1a 60
        E 0 90 1f 60
        E 0 90 3d 60
        E 0 90 3e 60
        E 0 90 49 60
        E 0 90 4a 60
        E 0 90 55 60
        E 0 90 56 60
        E 0 90 61 60
        E 0 90 62 60
        E 120 80 1a 00
        E 0 80 1f 00
        E 0 80 3d 00
        E 0 80 3e 00
        E 0 80 49 00
        E 0 80 4a 00
        E 0 80 55 00
        E 0 80 56 00
        E 0 80 61 00
        E 0 80 62 00
        E 120 90 18 60
        E 0 90 60 60
        E 120 80 18 00
        E 0 80 60 00
        E 120 90 1a 60
        E 0 90 55 60
        E 0 90 61 60
        E 120 80 1a 00
        E 0 80 55 00
        E 0 80 61 00
        E 360 90 1a 60
        E 0 90 1f 60
        E 0 90 3d 60
        E 0 90 3e 60
        E 0 90 49 60
        E 0 90 4a 60
        E 0 90 55 60
        E 0 90 56 60
        E 0 90 61 60
        E 0 90 62 60
        E 120 80 1a 00
        E 0 80 1f 00
        E 0 80 3d 00
        E 0 80 3e 00
        E 0 80 49 00
        E 0 80 4a 00
        E 0 80 55 00
        E 0 80 56 00
        E 0 80 61 00
        E 0 80 62 00
        E 120 90 18 60
        E 0 90 54 60
        E 0 90 60 60
        E 120 80 18 00
        E 0 80 54 00
        E 0 80 60 00
        E 120 90 1a 60
        E 0 90 1f 60
        E 0 90 49 60
        E 0 90 4a 60
        E 0 90 55 60
        E 0 90 56 60
        E 0 90 61 60
        E 0 90 62 60
        E 120 80 1a 00
        E 0 80 1f 00
        E 0 80 49 00
        E 0 80 4a 00
        E 0 80 55 00
        E 0 80 56 00
        E 0 80 61 00
        E 0 80 62 00
        E 120 90 18 60
        E 0 90 54 60
        E 0 90 60 60
        E 120 80 18 00
        E 0 80 54 00
        E 0 80 60 00
        E 120 90 1a 60
        E 0 90 1f 60
        E 0 90 3d 60
        E 0 90 3e 60
        E 0 90 49 60
        E 0 90 4a 60
        E 0 90 55 60
        E 0 90 56 60
        E 0 90 61 60
        E 0 90 62 60
        E 120 80 1a 00
        E 0 80 1f 00
        E 0 80 3d 00
        E 0 80 3e 00
        E 0 80 49 00
        E 0 80 4a 00
        E 0 80 55 00
        E 0 80 56 00
        E 0 80 61 00
        E 0 80 62 00
        E 120 90 18 60
        E 0 90 60 60
        E 120 80 18 00
        E 0 80 60 00
        E 120 90 1a 60
        E 0 90 55 60
        E 0 90 61 60
        E 120 80 1a 00
        E 0 80 55 00
        E 0 80 61 00
        E 360 90 1a 60
        E 0 90 1f 60
        E 0 90 3d 60
        E 0 90 3e 60
        E 0 90 49 60
        E 0 90 4a 60
        E 0 90 55 60
        E 0 90 56 60
        E 0 90 61 60
        E 0 90 62 60
        E 120 80 1a 00
        E 0 80 1f 00
        E 0 80 3d 00
        E 0 80 3e 00
        E 0 80 49 00
        E 0 80 4a 00
        E 0 80 55 00
        E 0 80 56 00
        E 0 80 61 00
        E 0 80 62 00
        E 120 90 18 60
        E 0 90 54 60
        E 0 90 60 60
        E 120 80 18 00
        E 0 80 54 00
        E 0 80 60 00
        E 120 90 1a 60
        E 0 90 1f 60
        E 0 90 49 60
        E 0 90 4a 60
        E 0 90 55 60
        E 0 90 56 60
        E 0 90 61 60
        E 0 90 62 60
        E 120 80 1a 00
        E 0 80 1f 00
        E 0 80 49 00
        E 0 80 4a 00
        E 0 80 55 00
        E 0 80 56 00
        E 0 80 61 00
        E 0 80 62 00
        E 120 90 18 60
        E 0 90 54 60
        E 0 90 60 60
        E 120 80 18 00
        E 0 80 54 00
        E 0 80 60 00
        E 120 90 1a 60
        E 0 90 1f 60
        E 0 90 3d 60
        E 0 90 3e 60
        E 0 90 49 60
        E 0 90 4a 60
        E 0 90 55 60
        E 0 90 56 60
        E 0 90 61 60
        E 0 90 62 60
        E 120 80 1a 00
        E 0 80 1f 00
        E 0 80 3d 00
        E 0 80 3e 00
        E 0 80 49 00
        E 0 80 4a 00
        E 0 80 55 00
        E 0 80 56 00
        E 0 80 61 00
        E 0 80 62 00
        E 120 90 18 60
        E 0 90 60 60
        E 120 80 18 00
        E 0 80 60 00
        E 120 90 1a 60
        E 0 90 55 60
        E 0 90 61 60
        E 120 80 1a 00
        E 0 80 55 00
        E 0 80 61 00
        E 360 90 1a 60
        E 0 90 1f 60
        E 0 90 3d 60
        E 0 90 3e 60
        E 0 90 49 60
        E 0 90 4a 60
        E 0 90 55 60
        E 0 90 56 60
        E 0 90 61 60
        E 0 90 62 60
        E 0 90 74 60
        E 120 80 1a 00
        E 0 80 1f 00
        E 0 80 3d 00
        E 0 80 3e 00
        E 0 80 49 00
        E 0 80 4a 00
        E 0 80 55 00
        E 0 80 56 00
        E 0 80 61 00
        E 0 80 62 00
        E 120 90 18 60
        E 0 90 54 60
        E 0 90 60 60
        E 120 80 18 00
        E 0 80 54 00
        E 0 80 60 00
        E 120 90 1a 60
        E 0 90 1f 60
        E 0 90 49 60
        E 0 90 4a 60
        E 0 90 55 60
        E 0 90 56 60
        E 0 90 61 60
        E 0 90 62 60
        E 120 80 1a 00
        E 0 80 1f 00
        E 0 80 49 00
        E 0 80 4a 00
        E 0 80 55 00
        E 0 80 56 00
        E 0 80 61 00
        E 0 80 62 00
        E 120 90 18 60
        E 0 90 54 60
        E 0 90 60 60
        E 120 80 18 00
        E 0 80 54 00
        E 0 80 60 00
        E 120 90 1a 60
        E 0 90 1f 60
        E 0 90 3d 60
        E 0 90 3e 60
        E 0 90 49 60
        E 0 90 4a 60
        E 0 90 55 60
        E 0 90 56 60
        E 0 90 61 60
        E 0 90 62 60
        E 120 80 1a 00
        E 0 80 1f 00
        E 0 80 3d 00
        E 0 80 3e 00
        E 0 80 49 00
        E 0 80 4a 00
        E 0 80 55 00
        E 0 80 56 00
        E 0 80 61 00
        E 0 80 62 00
        E 120 90 18 60
        E 0 90 60 60
        E 120 80 18 00
        E 0 80 60 00
        E 120 90 1a 60
        E 0 90 55 60
        E 0 90 61 60
        E 120 80 1a 00
        E 0 80 55 00
        E 0 80 61 00
        E 360 90 1a 60
        E 0 90 1f 60
        E 0 90 3d 60
        E 0 90 3e 60
        E 0 90 49 60
        E 0 90 4a 60
        E 0 90 55 60
        E 0 90 56 60
        E 0 90 61 60
        E 0 90 62 60
        E 120 80 1a 00
        E 0 80 1f 00
        E 0 80 3d 00
        E 0 80 3e 00
        E 0 80 49 00
        E 0 80 4a 00
        E 0 80 55 00
        E 0 80 56 00
        E 0 80 61 00
        E 0 80 62 00
        E 120 90 18 60
        E 0 90 54 60
        E 0 90 60 60
        E 120 80 18 00
        E 0 80 54 00
        E 0 80 60 00
        E 120 90 1a 60
        E 0 90 1f 60
        E 0 90 49 60
        E 0 90 4a 60
        E 0 90 55 60
        E 0 90 56 60
        E 0 90 61 60
        E 0 90 62 60
        E 120 80 1a 00
        E 0 80 1f 00
        E 0 80 49 00
        E 0 80 4a 00
        E 0 80 55 00
        E 0 80 56 00
        E 0 80 61 00
        E 0 80 62 00
        E 120 90 18 60
        E 0 90 54 60
        E 0 90 60 60
        E 120 80 18 00
        E 0 80 54 00
        E 0 80 60 00
        E 120 90 1a 60
        E 0 90 1f 60
        E 0 90 3d 60
        E 0 90 3e 60
        E 0 90 49 60
        E 0 90 4a 60
        E 0 90 55 60
        E 0 90 56 60
        E 0 90 61 60
        E 0 90 62 60
        E 120 80 1a 00
        E 0 80 1f 00
        E 0 80 3d 00
        E 0 80 3e 00
        E 0 80 49 00
        E 0 80 4a 00
        E 0 80 55 00
        E 0 80 56 00
        E 0 80 61 00
        E 0 80 62 00
        E 120 90 18 60
        E 0 90 60 60
        E 120 80 18 00
        E 0 80 60 00
        E 120 90 1a 60
        E 0 90 55 60
        E 0 90 61 60
        E 120 80 1a 00
        E 0 80 55 00
        E 0 80 61 00
        E 360 80 74 00
        E 0 90 1a 60
        E 0 90 1f 60
        E 0 90 3d 60
        E 0 90 3e 60
        E 0 90 49 60
        E 0 90 4a 60
        E 0 90 55 60
        E 0 90 56 60
        E 0 90 61 60
        E 0 90 62 60
        E 120 80 1a 00
        E 0 80 1f 00
        E 0 80 3d 00
        E 0 80 3e 00
        E 0 80 49 00
        E 0 80 4a 00
        E 0 80 55 00
        E 0 80 56 00
        E 0 80 61 00
        E 0 80 62 00
        E 0 90 18 60
        E 0 90 60 60
        E 120 80 18 00
        E 0 80 60 00
        E 120 90 18 60
        E 0 90 60 60
        E 120 80 18 00
        E 0 80 60 00
        E 0 90 1a 60
        E 0 90 1f 60
        E 0 90 49 60
        E 0 90 4a 60
        E 0 90 55 60
        E 0 90 56 60
        E 0 90 61 60
        E 0 90 62 60
        E 120 80 1a 00
        E 0 80 1f 00
        E 0 80 49 00
        E 0 80 4a 00
        E 0 80 55 00
        E 0 80 56 00
        E 0 80 61 00
        E 0 80 62 00
        E 0 90 18 60
        E 0 90 60 60
        E 120 80 18 00
        E 0 80 60 00
        E 120 90 18 60
        E 0 90 60 60
        E 120 80 18 00
        E 0 80 60 00
        E 0 90 1a 60
        E 0 90 1f 60
        E 0 90 3d 60
        E 0 90 3e 60
        E 0 90 49 60
        E 0 90 4a 60
        E 0 90 55 60
        E 0 90 56 60
        E 0 90 61 60
        E 0 90 62 60
        E 120 80 1a 00
        E 0 80 1f 00
        E 0 80 3d 00
        E 0 80 3e 00
        E 0 80 49 00
        E 0 80 4a 00
        E 0 80 55 00
        E 0 80 56 00
        E 0 80 61 00
        E 0 80 62 00
        E 0 90 18 60
        E 0 90 60 60
        E 120 80 18 00
        E 0 80 60 00
        E 120 90 18 60
        E 0 90 60 60
        E 120 80 18 00
        E 0 80 60 00
        E 0 90 1a 60
        E 0 90 55 60
        E 0 90 61 60
        E 120 80 1a 00
        E 0 80 55 00
        E 0 80 61 00
        E 360 90 1a 60
        E 0 90 1f 60
        E 0 90 3d 60
        E 0 90 3e 60
        E 0 90 49 60
        E 0 90 4a 60
        E 0 90 55 60
        E 0 90 56 60
        E 0 90 61 60
        E 0 90 62 60
        E 120 80 1a 00
        E 0 80 1f 00
        E 0 80 3d 00
        E 0 80 3e 00
        E 0 80 49 00
        E 0 80 4a 00
        E 0 80 55 00
        E 0 80 56 00
        E 0 80 61 00
        E 0 80 62 00
        E 0 90 18 60
        E 0 90 60 60
        E 120 80 18 00
        E 0 80 60 00
        E 120 90 18 60
        E 0 90 60 60
        E 120 80 18 00
        E 0 80 60 00
        E 0 90 1a 60
        E 0 90 1f 60
        E 0 90 49 60
        E 0 90 4a 60
        E 0 90 55 60
        E 0 90 56 60
        E 0 90 61 60
        E 0 90 62 60
        E 120 80 1a 00
        E 0 80 1f 00
        E 0 80 49 00
        E 0 80 4a 00
        E 0 80 55 00
        E 0 80 56 00
        E 0 80 61 00
        E 0 80 62 00
        E 0 90 18 60
        E 0 90 60 60
        E 120 80 18 00
        E 0 80 60 00
        E 120 90 18 60
        E 0 90 60 60
        E 120 80 18 00
        E 0 80 60 00
        E 0 90 1a 60
        E 0 90 1f 60
        E 0 90 3d 60
        E 0 90 3e 60
        E 0 90 49 60
        E 0 90 4a 60
        E 0 90 55 60
        E 0 90 56 60
        E 0 90 61 60
        E 0 90 62 60
        E 120 80 1a 00
        E 0 80 1f 00
        E 0 80 3d 00
        E 0 80 3e 00
        E 0 80 49 00
        E 0 80 4a 00
        E 0 80 55 00
        E 0 80 56 00
        E 0 80 61 00
        E 0 80 62 00
        E 0 90 18 60
        E 0 90 60 60
        E 120 80 18 00
        E 0 80 60 00
        E 120 90 18 60
        E 0 90 60 60
        E 120 80 18 00
        E 0 80 60 00
        E 0 90 1a 60
        E 0 90 55 60
        E 0 90 61 60
        E 120 80 1a 00
        E 0 80 55 00
        E 0 80 61 00
        E 360 90 1a 60
        E 0 90 1f 60
        E 0 90 3d 60
        E 0 90 3e 60
        E 0 90 49 60
        E 0 90 4a 60
        E 0 90 55 60
        E 0 90 56 60
        E 0 90 61 60
        E 0 90 62 60
        E 120 80 1a 00
        E 0 80 1f 00
        E 0 80 3d 00
        E 0 80 3e 00
        E 0 80 49 00
        E 0 80 4a 00
        E 0 80 55 00
        E 0 80 56 00
        E 0 80 61 00
        E 0 80 62 00
        E 0 90 18 60
        E 0 90 60 60
        E 120 80 18 00
        E 0 80 60 00
        E 120 90 18 60
        E 0 90 60 60
        E 120 80 18 00
        E 0 80 60 00
        E 0 90 1a 60
        E 0 90 1f 60
        E 0 90 49 60
        E 0 90 4a 60
        E 0 90 55 60
        E 0 90 56 60
        E 0 90 61 60
        E 0 90 62 60
        E 120 80 1a 00
        E 0 80 1f 00
        E 0 80 49 00
        E 0 80 4a 00
        E 0 80 55 00
        E 0 80 56 00
        E 0 80 61 00
        E 0 80 62 00
        E 0 90 18 60
        E 0 90 60 60
        E 120 80 18 00
        E 0 80 60 00
        E 120 90 18 60
        E 0 90 60 60
        E 120 80 18 00
        E 0 80 60 00
        E 0 90 1a 60
        E 0 90 1f 60
        E 0 90 3d 60
        E 0 90 3e 60
        E 0 90 49 60
        E 0 90 4a 60
        E 0 90 55 60
        E 0 90 56 60
        E 0 90 61 60
        E 0 90 62 60
        E 120 80 1a 00
        E 0 80 1f 00
        E 0 80 3d 00
        E 0 80 3e 00
        E 0 80 49 00
        E 0 80 4a 00
        E 0 80 55 00
        E 0 80 56 00
        E 0 80 61 00
        E 0 80 62 00
        E 0 90 18 60
        E 0 90 60 60
        E 120 80 18 00
        E 0 80 60 00
        E 120 90 18 60
        E 0 90 60 60
        E 120 80 18 00
        E 0 80 60 00
        E 0 90 1a 60
        E 0 90 55 60
        E 0 90 61 60
        E 120 80 1a 00
        E 0 80 55 00
        E 0 80 61 00
        E 360 90 1a 60
        E 0 90 1f 60
        E 0 90 3d 60
        E 0 90 3e 60
        E 0 90 49 60
        E 0 90 4a 60
        E 0 90 55 60
        E 0 90 56 60
        E 0 90 61 60
        E 0 90 62 60
        E 0 90 78 60
        E 0 90 79 60
        E 0 90 7a 60
        E 0 90 7b 60
        E 0 90 7c 60
        E 120 80 1a 00
        E 0 80 1f 00
        E 0 80 3d 00
        E 0 80 3e 00
        E 0 80 49 00
        E 0 80 4a 00
        E 0 80 55 00
        E 0 80 56 00
        E 0 80 61 00
        E 0 80 62 00
        E 0 90 18 60
        E 0 90 60 60
        E 120 80 18 00
        E 0 80 60 00
        E 120 90 18 60
        E 0 90 60 60
        E 120 80 18 00
        E 0 80 60 00
        E 0 90 1a 60
        E 0 90 1f 60
        E 0 90 49 60
        E 0 90 4a 60
        E 0 90 55 60
        E 0 90 56 60
        E 0 90 61 60
        E 0 90 62 60
        E 120 80 1a 00
        E 0 80 1f 00
        E 0 80 49 00
        E 0 80 4a 00
        E 0 80 55 00
        E 0 80 56 00
        E 0 80 61 00
        E 0 80 62 00
        E 0 90 18 60
        E 0 90 60 60
        E 120 80 18 00
        E 0 80 60 00
        E 120 90 18 60
        E 0 90 60 60
        E 120 80 18 00
        E 0 80 60 00
        E 0 90 1a 60
        E 0 90 1f 60
        E 0 90 3d 60
        E 0 90 3e 60
        E 0 90 49 60
        E 0 90 4a 60
        E 0 90 55 60
        E 0 90 56 60
        E 0 90 61 60
        E 0 90 62 60
        E 120 80 1a 00
        E 0 80 1f 00
        E 0 80 3d 00
        E 0 80 3e 00
        E 0 80 49 00
        E 0 80 4a 00
        E 0 80 55 00
        E 0 80 56 00
        E 0 80 61 00
        E 0 80 62 00
        E 0 90 18 60
        E 0 90 60 60
        E 120 80 18 00
        E 0 80 60 00
        E 120 90 18 60
        E 0 90 60 60
        E 120 80 18 00
        E 0 80 60 00
        E 0 90 1a 60
        E 0 90 55 60
        E 0 90 61 60
        E 120 80 1a 00
        E 0 80 55 00
        E 0 80 61 00
        E 360 80 78 00
        E 0 80 79 00
        E 0 80 7a 00
        E 0 80 7b 00
        E 0 80 7c 00
        E 0 90 1a 60
        E 0 90 1f 60
        E 0 90 3d 60
        E 0 90 3e 60
        E 0 90 49 60
        E 0 90 4a 60
        E 0 90 55 60
        E 0 90 56 60
        E 0 90 61 60
        E 0 90 62 60
        E 120 80 1a 00
        E 0 80 1f 00
        E 0 80 3d 00
        E 0 80 3e 00
        E 0 80 49 00
        E 0 80 4a 00
        E 0 80 55 00
        E 0 80 56 00
        E 0 80 61 00
        E 0 80 62 00
        E 0 90 18 60
        E 0 90 60 60
        E 120 80 18 00
        E 0 80 60 00
        E 120 90 18 60
        E 0 90 60 60
        E 120 80 18 00
        E 0 80 60 00
        E 0 90 1a 60
        E 0 90 1f 60
        E 0 90 49 60
        E 0 90 4a 60
        E 0 90 55 60
        E 0 90 56 60
        E 0 90 61 60
        E 0 90 62 60
        E 120 80 1a 00
        E 0 80 1f 00
        E 0 80 49 00
        E 0 80 4a 00
        E 0 80 55 00
        E 0 80 56 00
        E 0 80 61 00
        E 0 80 62 00
        E 0 90 18 60
        E 0 90 60 60
        E 120 80 18 00
        E 0 80 60 00
        E 120 90 18 60
        E 0 90 60 60
        E 120 80 18 00
        E 0 80 60 00
        E 0 90 1a 60
        E 0 90 1f 60
        E 0 90 3d 60
        E 0 90 3e 60
        E 0 90 49 60
        E 0 90 4a 60
        E 0 90 55 60
        E 0 90 56 60
        E 0 90 61 60
        E 0 90 62 60
        E 120 80 1a 00
        E 0 80 1f 00
        E 0 80 3d 00
        E 0 80 3e 00
        E 0 80 49 00
        E 0 80 4a 00
        E 0 80 55 00
        E 0 80 56 00
        E 0 80 61 00
        E 0 80 62 00
        E 0 90 18 60
        E 0 90 60 60
        E 120 80 18 00
        E 0 80 60 00
        E 120 90 18 60
        E 0 90 60 60
        E 120 80 18 00
        E 0 80 60 00
        E 0 90 1a 60
        E 0 90 55 60
        E 0 90 61 60
        E 120 80 1a 00
        E 0 80 55 00
        E 0 80 61 00
        E 360 90 1a 60
        E 0 90 1f 60
        E 0 90 3d 60
        E 0 90 3e 60
        E 0 90 49 60
        E 0 90 4a 60
        E 0 90 55 60
        E 0 90 56 60
        E 0 90 61 60
        E 0 90 62 60
        E 120 80 1a 00
        E 0 80 1f 00
        E 0 80 3d 00
        E 0 80 3e 00
        E 0 80 49 00
        E 0 80 4a 00
        E 0 80 55 00
        E 0 80 56 00
        E 0 80 61 00
        E 0 80 62 00
        E 0 90 18 60
        E 0 90 60 60
        E 120 80 18 00
        E 0 80 60 00
        E 120 90 18 60
        E 0 90 60 60
        E 120 80 18 00
        E 0 80 60 00
        E 0 90 1a 60
        E 0 90 1f 60
        E 0 90 49 60
        E 0 90 4a 60
        E 0 90 55 60
        E 0 90 56 60
        E 0 90 61 60
        E 0 90 62 60
        E 120 80 1a 00
        E 0 80 1f 00
        E 0 80 49 00
        E 0 80 4a 00
        E 0 80 55 00
        E 0 80 56 00
        E 0 80 61 00
        E 0 80 62 00
        E 0 90 18 60
        E 0 90 60 60
        E 120 80 18 00
        E 0 80 60 00
        E 120 90 18 60
        E 0 90 60 60
        E 120 80 18 00
        E 0 80 60 00
        E 0 90 1a 60
        E 0 90 1f 60
        E 0 90 3d 60
        E 0 90 3e 60
        E 0 90 49 60
        E 0 90 4a 60
        E 0 90 55 60
        E 0 90 56 60
        E 0 90 61 60
        E 0 90 62 60
        E 120 80 1a 00
        E 0 80 1f 00
        E 0 80 3d 00
        E 0 80 3e 00
        E 0 80 49 00
        E 0 80 4a 00
        E 0 80 55 00
        E 0 80 56 00
        E 0 80 61 00
        E 0 80 62 00
        E 0 90 18 60
        E 0 90 60 60
        E 120 80 18 00
        E 0 80 60 00
        E 120 90 18 60
        E 0 90 60 60
        E 120 80 18 00
        E 0 80 60 00
        E 0 90 1a 60
        E 0 90 55 60
        E 0 90 61 60
        E 120 80 1a 00
        E 0 80 55 00
        E 0 80 61 00
        E 360 90 1a 60
        E 0 90 1f 60
        E 0 90 3d 60
        E 0 90 3e 60
        E 0 90 49 60
        E 0 90 4a 60
        E 0 90 55 60
        E 0 90 56 60
        E 0 90 61 60
        E 0 90 62 60
        E 120 80 1a 00
        E 0 80 1f 00
        E 0 80 3d 00
        E 0 80 3e 00
        E 0 80 49 00
        E 0 80 4a 00
        E 0 80 55 00
        E 0 80 56 00
        E 0 80 61 00
        E 0 80 62 00
        E 0 90 18 60
        E 0 90 60 60
        E 120 80 18 00
        E 0 80 60 00
        E 120 90 18 60
        E 0 90 60 60
        E 120 80 18 00
        E 0 80 60 00
        E 0 90 1a 60
        E 0 90 1f 60
        E 0 90 49 60
        E 0 90 4a 60
        E 0 90 55 60
        E 0 90 56 60
        E 0 90 61 60
        E 0 90 62 60
        E 120 80 1a 00
        E 0 80 1f 00
        E 0 80 49 00
        E 0 80 4a 00
        E 0 80 55 00
        E 0 80 56 00
        E 0 80 61 00
        E 0 80 62 00
        E 0 90 18 60
        E 0 90 60 60
        E 120 80 18 00
        E 0 80 60 00
        E 120 90 18 60
        E 0 90 60 60
        E 120 80 18 00
        E 0 80 60 00
        E 0 90 1a 60
        E 0 90 1f 60
        E 0 90 3d 60
        E 0 90 3e 60
        E 0 90 49 60
        E 0 90 4a 60
        E 0 90 55 60
        E 0 90 56 60
        E 0 90 61 60
        E 0 90 62 60
        E 120 80 1a 00
        E 0 80 1f 00
        E 0 80 3d 00
        E 0 80 3e 00
        E 0 80 49 00
        E 0 80 4a 00
        E 0 80 55 00
        E 0 80 56 00
        E 0 80 61 00
        E 0 80 62 00
        E 0 90 18 60
        E 0 90 60 60
        E 120 80 18 00
        E 0 80 60 00
        E 120 90 18 60
        E 0 90 60 60
        E 120 80 18 00
        E 0 80 60 00
        E 0 90 1a 60
        E 0 90 55 60
        E 0 90 61 60
        E 120 80 1a 00
        E 0 80 55 00
        E 0 80 61 00
        E 360 90 1a 60
        E 0 90 1f 60
        E 0 90 3d 60
        E 0 90 3e 60
        E 0 90 49 60
        E 0 90 4a 60
        E 0 90 55 60
        E 0 90 56 60
        E 0 90 61 60
        E 0 90 62 60
        E 0 90 78 60
        E 0 90 79 60
        E 0 90 7a 60
        E 0 90 7b 60
        E 0 90 7c 60
        E 120 80 1a 00
        E 0 80 1f 00
        E 0 80 3d 00
        E 0 80 3e 00
        E 0 80 49 00
        E 0 80 4a 00
        E 0 80 55 00
        E 0 80 56 00
        E 0 80 61 00
        E 0 80 62 00
        E 0 90 18 60
        E 0 90 60 60
        E 120 80 18 00
        E 0 80 60 00
        E 120 90 18 60
        E 0 90 60 60
        E 120 80 18 00
        E 0 80 60 00
        E 0 90 1a 60
        E 0 90 1f 60
        E 0 90 49 60
        E 0 90 4a 60
        E 0 90 55 60
        E 0 90 56 60
        E 0 90 61 60
        E 0 90 62 60
        E 120 80 1a 00
        E 0 80 1f 00
        E 0 80 49 00
        E 0 80 4a 00
        E 0 80 55 00
        E 0 80 56 00
        E 0 80 61 00
        E 0 80 62 00
        E 0 90 18 60
        E 0 90 60 60
        E 120 80 18 00
        E 0 80 60 00
        E 120 90 18 60
        E 0 90 60 60
        E 120 80 18 00
        E 0 80 60 00
        E 0 90 1a 60
        E 0 90 1f 60
        E 0 90 3d 60
        E 0 90 3e 60
        E 0 90 49 60
        E 0 90 4a 60
        E 0 90 55 60
        E 0 90 56 60
        E 0 90 61 60
        E 0 90 62 60
        E 120 80 1a 00
        E 0 80 1f 00
        E 0 80 3d 00
        E 0 80 3e 00
        E 0 80 49 00
        E 0 80 4a 00
        E 0 80 55 00
        E 0 80 56 00
        E 0 80 61 00
        E 0 80 62 00
        E 120 90 1a 60
        E 0 90 31 60
        E 0 90 55 60
        E 0 90 57 60
        E 0 90 61 60
        E 0 90 63 60
        E 0 90 6f 60
        E 120 80 1a 00
        E 0 80 31 00
        E 0 80 55 00
        E 0 80 57 00
        E 0 80 61 00
        E 0 80 63 00
        E 120 90 1a 60
        E 0 90 31 60
        E 0 90 49 60
        E 0 90 4b 60
        E 0 90 55 60
        E 0 90 57 60
        E 0 90 61 60
        E 0 90 63 60
        E 120 80 6f 00
        E 0 80 1a 00
        E 0 80 31 00
        E 0 80 49 00
        E 0 80 4b 00
        E 0 80 55 00
        E 0 80 57 00
        E 0 80 61 00
        E 0 80 63 00
        E 360 80 19 00
        E 0 80 78 00
        E 0 80 79 00
        E 0 80 7a 00
        E 0 80 7b 00
        E 0 80 7c 00
        E 0 90 18 60
        E 0 90 26 60
        E 0 90 40 60
        E 0 90 48 60
        E 0 90 4c 60
        E 0 90 54 60
        E 0 90 58 60
        E 0 90 60 60
        E 0 90 64 60
        E 120 80 18 00
        E 0 80 26 00
        E 0 80 40 00
        E 0 80 48 00
        E 0 80 4c 00
        E 0 80 54 00
        E 0 80 58 00
        E 0 80 60 00
        E 0 80 64 00
        E 120 90 19 60
        E 240 80 19 00
        E 0 90 1a 60
        E 0 90 26 60
        E 0 90 3d 60
        E 0 90 40 60
        E 0 90 49 60
        E 0 90 4c 60
        E 0 90 55 60
        E 0 90 58 60
        E 0 90 61 60
        E 0 90 64 60
        E 120 80 1a 00
        E 0 80 26 00
        E 0 80 3d 00
        E 0 80 40 00
        E 0 80 49 00
        E 0 80 4c 00
        E 0 80 55 00
        E 0 80 58 00
        E 0 80 61 00
        E 0 80 64 00
        E 120 90 19 60
        E 240 80 19 00
        E 0 90 18 60
        E 0 90 26 60
        E 0 90 40 60
        E 0 90 4c 60
        E 0 90 54 60
        E 0 90 58 60
        E 0 90 60 60
        E 0 90 64 60
        E 120 80 18 00
        E 0 80 26 00
        E 0 80 40 00
        E 0 80 4c 00
        E 0 80 54 00
        E 0 80 58 00
        E 0 80 60 00
        E 0 80 64 00
        E 120 90 18 60
        E 0 90 19 60
        E 0 90 60 60
        E 120 80 18 00
        E 0 80 60 00
        E 120 80 19 00
        E 0 90 1a 60
        E 0 90 26 60
        E 0 90 3d 60
        E 0 90 40 60
        E 0 90 49 60
        E 0 90 4c 60
        E 0 90 55 60
        E 0 90 58 60
        E 0 90 61 60
        E 0 90 64 60
        E 120 80 1a 00
        E 0 80 26 00
        E 0 80 3d 00
        E 0 80 40 00
        E 0 80 49 00
        E 0 80 4c 00
        E 0 80 55 00
        E 0 80 58 00
        E 0 80 61 00
        E 0 80 64 00
        E 120 90 19 60
        E 240 80 19 00
        E 0 90 18 60
        E 0 90 26 60
        E 0 90 40 60
        E 0 90 4c 60
        E 0 90 54 60
        E 0 90 58 60
        E 0 90 60 60
        E 0 90 64 60
        E 120 80 18 00
        E 0 80 26 00
        E 0 80 40 00
        E 0 80 4c 00
        E 0 80 54 00
        E 0 80 58 00
        E 0 80 60 00
        E 0 80 64 00
        E 120 90 19 60
        E 240 80 19 00
        E 0 90 1a 60
        E 0 90 26 60
        E 0 90 3d 60
        E 0 90 40 60
        E 0 90 49 60
        E 0 90 4c 60
        E 0 90 55 60
        E 0 90 58 60
        E 0 90 61 60
        E 0 90 64 60
        E 120 80 1a 00
        E 0 80 26 00
        E 0 80 3d 00
        E 0 80 40 00
        E 0 80 49 00
        E 0 80 4c 00
        E 0 80 55 00
        E 0 80 58 00
        E 0 80 61 00
        E 0 80 64 00
        E 120 90 19 60
        E 240 80 19 00
        E 0 90 18 60
        E 0 90 26 60
        E 0 90 40 60
        E 0 90 4c 60
        E 0 90 54 60
        E 0 90 58 60
        E 0 90 60 60
        E 0 90 64 60
        E 120 80 18 00
        E 0 80 26 00
        E 0 80 40 00
        E 0 80 4c 00
        E 0 80 54 00
        E 0 80 58 00
        E 0 80 60 00
        E 0 80 64 00
        E 120 90 18 60
        E 0 90 19 60
        E 0 90 60 60
        E 120 80 18 00
        E 0 80 60 00
        E 120 80 19 00
        E 0 90 1a 60
        E 0 90 26 60
        E 0 90 3d 60
        E 0 90 40 60
        E 0 90 49 60
        E 0 90 4c 60
        E 0 90 55 60
        E 0 90 58 60
        E 0 90 61 60
        E 0 90 64 60
        E 120 80 1a 00
        E 0 80 26 00
        E 0 80 3d 00
        E 0 80 40 00
        E 0 80 49 00
        E 0 80 4c 00
        E 0 80 55 00
        E 0 80 58 00
        E 0 80 61 00
        E 0 80 64 00
        E 120 90 19 60
        E 240 80 19 00
        E 0 90 18 60
        E 0 90 26 60
        E 0 90 40 60
        E 0 90 48 60
        E 0 90 4c 60
        E 0 90 54 60
        E 0 90 58 60
        E 0 90 60 60
        E 0 90 64 60
        E 0 90 74 60
        E 120 80 18 00
        E 0 80 26 00
        E 0 80 40 00
        E 0 80 48 00
        E 0 80 4c 00
        E 0 80 54 00
        E 0 80 58 00
        E 0 80 60 00
        E 0 80 64 00
        E 120 90 19 60
        E 240 80 19 00
        E 0 90 1a 60
        E 0 90 26 60
        E 0 90 3d 60
        E 0 90 40 60
        E 0 90 49 60
        E 0 90 4c 60
        E 0 90 55 60
        E 0 90 58 60
        E 0 90 61 60
        E 0 90 64 60
        E 120 80 1a 00
        E 0 80 26 00
        E 0 80 3d 00
        E 0 80 40 00
        E 0 80 49 00
        E 0 80 4c 00
        E 0 80 55 00
        E 0 80 58 00
        E 0 80 61 00
        E 0 80 64 00
        E 120 90 19 60
        E 240 80 19 00
        E 0 90 18 60
        E 0 90 26 60
        E 0 90 40 60
        E 0 90 4c 60
        E 0 90 54 60
        E 0 90 58 60
        E 0 90 60 60
        E 0 90 64 60
        E 120 80 18 00
        E 0 80 26 00
        E 0 80 40 00
        E 0 80 4c 00
        E 0 80 54 00
        E 0 80 58 00
        E 0 80 60 00
        E 0 80 64 00
        E 120 90 18 60
        E 0 90 19 60
        E 0 90 60 60
        E 120 80 18 00
        E 0 80 60 00
        E 120 80 19 00
        E 0 90 1a 60
        E 0 90 26 60
        E 0 90 3d 60
        E 0 90 40 60
        E 0 90 49 60
        E 0 90 4c 60
        E 0 90 55 60
        E 0 90 58 60
        E 0 90 61 60
        E 0 90 64 60
        E 120 80 1a 00
        E 0 80 26 00
        E 0 80 3d 00
        E 0 80 40 00
        E 0 80 49 00
        E 0 80 4c 00
        E 0 80 55 00
        E 0 80 58 00
        E 0 80 61 00
        E 0 80 64 00
        E 120 90 19 60
        E 240 80 19 00
        E 0 90 18 60
        E 0 90 26 60
        E 0 90 40 60
        E 0 90 4c 60
        E 0 90 54 60
        E 0 90 58 60
        E 0 90 60 60
        E 0 90 64 60
        E 120 80 18 00
        E 0 80 26 00
        E 0 80 40 00
        E 0 80 4c 00
        E 0 80 54 00
        E 0 80 58 00
        E 0 80 60 00
        E 0 80 64 00
        E 120 90 19 60
        E 240 80 19 00
        E 0 90 1a 60
        E 0 90 26 60
        E 0 90 3d 60
        E 0 90 40 60
        E 0 90 49 60
        E 0 90 4c 60
        E 0 90 55 60
        E 0 90 58 60
        E 0 90 61 60
        E 0 90 64 60
        E 120 80 1a 00
        E 0 80 26 00
        E 0 80 3d 00
        E 0 80 40 00
        E 0 80 49 00
        E 0 80 4c 00
        E 0 80 55 00
        E 0 80 58 00
        E 0 80 61 00
        E 0 80 64 00
        E 120 90 19 60
        E 240 80 19 00
        E 0 90 18 60
        E 0 90 26 60
        E 0 90 40 60
        E 0 90 4c 60
        E 0 90 54 60
        E 0 90 58 60
        E 0 90 60 60
        E 0 90 64 60
        E 120 80 18 00
        E 0 80 26 00
        E 0 80 40 00
        E 0 80 4c 00
        E 0 80 54 00
        E 0 80 58 00
        E 0 80 60 00
        E 0 80 64 00
        E 120 90 18 60
        E 0 90 19 60
        E 0 90 60 60
        E 120 80 18 00
        E 0 80 60 00
        E 120 80 19 00
        E 0 90 1a 60
        E 0 90 26 60
        E 0 90 3d 60
        E 0 90 40 60
        E 0 90 49 60
        E 0 90 4c 60
        E 0 90 55 60
        E 0 90 58 60
        E 0 90 61 60
        E 0 90 64 60
        E 120 80 1a 00
        E 0 80 26 00
        E 0 80 3d 00
        E 0 80 40 00
        E 0 80 49 00
        E 0 80 4c 00
        E 0 80 55 00
        E 0 80 58 00
        E 0 80 61 00
        E 0 80 64 00
        E 120 90 19 60
        E 240 80 74 00
        E 0 80 19 00
        E 0 90 18 60
        E 0 90 26 60
        E 0 90 40 60
        E 0 90 48 60
        E 0 90 4c 60
        E 0 90 54 60
        E 0 90 58 60
        E 0 90 60 60
        E 0 90 64 60
        E 120 80 18 00
        E 0 80 26 00
        E 0 80 40 00
        E 0 80 48 00
        E 0 80 4c 00
        E 0 80 54 00
        E 0 80 58 00
        E 0 80 60 00
        E 0 80 64 00
        E 120 90 19 60
        E 240 80 19 00
        E 0 90 1a 60
        E 0 90 26 60
        E 0 90 3d 60
        E 0 90 40 60
        E 0 90 49 60
        E 0 90 4c 60
        E 0 90 55 60
        E 0 90 58 60
        E 0 90 61 60
        E 0 90 64 60
        E 120 80 1a 00
        E 0 80 26 00
        E 0 80 3d 00
        E 0 80 40 00
        E 0 80 49 00
        E 0 80 4c 00
        E 0 80 55 00
        E 0 80 58 00
        E 0 80 61 00
        E 0 80 64 00
        E 120 90 19 60
        E 240 80 19 00
        E 0 90 18 60
        E 0 90 26 60
        E 0 90 40 60
        E 0 90 4c 60
        E 0 90 54 60
        E 0 90 58 60
        E 0 90 60 60
        E 0 90 64 60
        E 120 80 18 00
        E 0 80 26 00
        E 0 80 40 00
        E 0 80 4c 00
        E 0 80 54 00
        E 0 80 58 00
        E 0 80 60 00
        E 0 80 64 00
        E 120 90 18 60
        E 0 90 19 60
        E 0 90 60 60
        E 120 80 18 00
        E 0 80 60 00
        E 120 80 19 00
        E 0 90 1a 60
        E 0 90 26 60
        E 0 90 3d 60
        E 0 90 40 60
        E 0 90 49 60
        E 0 90 4c 60
        E 0 90 55 60
        E 0 90 58 60
        E 0 90 61 60
        E 0 90 64 60
        E 120 80 1a 00
        E 0 80 26 00
        E 0 80 3d 00
        E 0 80 40 00
        E 0 80 49 00
        E 0 80 4c 00
        E 0 80 55 00
        E 0 80 58 00
        E 0 80 61 00
        E 0 80 64 00
        E 120 90 19 60
        E 240 80 19 00
        E 0 90 18 60
        E 0 90 26 60
        E 0 90 40 60
        E 0 90 4c 60
        E 0 90 54 60
        E 0 90 58 60
        E 0 90 60 60
        E 0 90 64 60
        E 120 80 18 00
        E 0 80 26 00
        E 0 80 40 00
        E 0 80 4c 00
        E 0 80 54 00
        E 0 80 58 00
        E 0 80 60 00
        E 0 80 64 00
        E 120 90 19 60
        E 240 80 19 00
        E 0 90 1a 60
        E 0 90 26 60
        E 0 90 3d 60
        E 0 90 40 60
        E 0 90 49 60
        E 0 90 4c 60
        E 0 90 55 60
        E 0 90 58 60
        E 0 90 61 60
        E 0 90 64 60
        E 120 80 1a 00
        E 0 80 26 00
        E 0 80 3d 00
        E 0 80 40 00
        E 0 80 49 00
        E 0 80 4c 00
        E 0 80 55 00
        E 0 80 58 00
        E 0 80 61 00
        E 0 80 64 00
        E 120 90 19 60
        E 240 80 19 00
        E 0 90 18 60
        E 0 90 26 60
        E 0 90 40 60
        E 0 90 4c 60
        E 0 90 54 60
        E 0 90 58 60
        E 0 90 60 60
        E 0 90 64 60
        E 120 80 18 00
        E 0 80 26 00
        E 0 80 40 00
        E 0 80 4c 00
        E 0 80 54 00
        E 0 80 58 00
        E 0 80 60 00
        E 0 80 64 00
        E 120 90 18 60
        E 0 90 19 60
        E 0 90 60 60
        E 120 80 18 00
        E 0 80 60 00
        E 120 80 19 00
        E 0 90 1a 60
        E 0 90 26 60
        E 0 90 3d 60
        E 0 90 40 60
        E 0 90 49 60
        E 0 90 4c 60
        E 0 90 55 60
        E 0 90 58 60
        E 0 90 61 60
        E 0 90 64 60
        E 120 80 1a 00
        E 0 80 26 00
        E 0 80 3d 00
        E 0 80 40 00
        E 0 80 49 00
        E 0 80 4c 00
        E 0 80 55 00
        E 0 80 58 00
        E 0 80 61 00
        E 0 80 64 00
        E 120 90 19 60
        E 240 80 19 00
        E 0 90 18 60
        E 0 90 26 60
        E 0 90 40 60
        E 0 90 48 60
        E 0 90 4c 60
        E 0 90 54 60
        E 0 90 58 60
        E 0 90 60 60
        E 0 90 64 60
        E 120 80 18 00
        E 0 80 26 00
        E 0 80 40 00
        E 0 80 48 00
        E 0 80 4c 00
        E 0 80 54 00
        E 0 80 58 00
        E 0 80 60 00
        E 0 80 64 00
        E 120 90 19 60
        E 240 80 19 00
        E 0 90 1a 60
        E 0 90 26 60
        E 0 90 3d 60
        E 0 90 40 60
        E 0 90 49 60
        E 0 90 4c 60
        E 0 90 55 60
        E 0 90 58 60
        E 0 90 61 60
        E 0 90 64 60
        E 120 80 1a 00
        E 0 80 26 00
        E 0 80 3d 00
        E 0 80 40 00
        E 0 80 49 00
        E 0 80 4c 00
        E 0 80 55 00
        E 0 80 58 00
        E 0 80 61 00
        E 0 80 64 00
        E 120 90 19 60
        E 240 80 19 00
        E 0 90 18 60
        E 0 90 26 60
        E 0 90 40 60
        E 0 90 4c 60
        E 0 90 54 60
        E 0 90 58 60
        E 0 90 60 60
        E 0 90 64 60
        E 120 80 18 00
        E 0 80 26 00
        E 0 80 40 00
        E 0 80 4c 00
        E 0 80 54 00
        E 0 80 58 00
        E 0 80 60 00
        E 0 80 64 00
        E 120 90 18 60
        E 0 90 19 60
        E 0 90 60 60
        E 120 80 18 00
        E 0 80 60 00
        E 120 80 19 00
        E 0 90 1a 60
        E 0 90 26 60
        E 0 90 3d 60
        E 0 90 40 60
        E 0 90 49 60
        E 0 90 4c 60
        E 0 90 55 60
        E 0 90 58 60
        E 0 90 61 60
        E 0 90 64 60
        E 120 80 1a 00
        E 0 80 26 00
        E 0 80 3d 00
        E 0 80 40 00
        E 0 80 49 00
        E 0 80 4c 00
        E 0 80 55 00
        E 0 80 58 00
        E 0 80 61 00
        E 0 80 64 00
        E 120 90 19 60
        E 240 80 19 00
        E 0 90 18 60
        E 0 90 26 60
        E 0 90 40 60
        E 0 90 4c 60
        E 0 90 54 60
        E 0 90 58 60
        E 0 90 60 60
        E 0 90 64 60
        E 0 90 78 60
        E 0 90 79 60
        E 0 90 7a 60
        E 0 90 7b 60
        E 0 90 7c 60
        E 120 80 18 00
        E 0 80 26 00
        E 0 80 40 00
        E 0 80 4c 00
        E 0 80 54 00
        E 0 80 58 00
        E 0 80 60 00
        E 0 80 64 00
        E 120 90 19 60
        E 240 80 19 00
        E 0 90 1a 60
        E 0 90 26 60
        E 0 90 3d 60
        E 0 90 40 60
        E 0 90 49 60
        E 0 90 4c 60
        E 0 90 55 60
        E 0 90 58 60
        E 0 90 61 60
        E 0 90 64 60
        E 120 80 1a 00
        E 0 80 26 00
        E 0 80 3d 00
        E 0 80 40 00
        E 0 80 49 00
        E 0 80 4c 00
        E 0 80 55 00
        E 0 80 58 00
        E 0 80 61 00
        E 0 80 64 00
        E 120 90 19 60
        E 240 80 19 00
        E 0 90 18 60
        E 0 90 26 60
        E 0 90 40 60
        E 0 90 4c 60
        E 0 90 54 60
        E 0 90 58 60
        E 0 90 60 60
        E 0 90 64 60
        E 120 80 18 00
        E 0 80 26 00
        E 0 80 40 00
        E 0 80 4c 00
        E 0 80 54 00
        E 0 80 58 00
        E 0 80 60 00
        E 0 80 64 00
        E 120 90 18 60
        E 0 90 19 60
        E 0 90 60 60
        E 120 80 18 00
        E 0 80 60 00
        E 120 80 19 00
        E 0 90 1a 60
        E 0 90 26 60
        E 0 90 3d 60
        E 0 90 40 60
        E 0 90 49 60
        E 0 90 4c 60
        E 0 90 55 60
        E 0 90 58 60
        E 0 90 61 60
        E 0 90 64 60
        E 120 80 1a 00
        E 0 80 26 00
        E 0 80 3d 00
        E 0 80 40 00
        E 0 80 49 00
        E 0 80 4c 00
        E 0 80 55 00
        E 0 80 58 00
        E 0 80 61 00
        E 0 80 64 00
        E 120 90 19 60
        E 240 80 78 00
        E 0 80 79 00
        E 0 80 7a 00
        E 0 80 7b 00
        E 0 80 7c 00
        E 0 80 19 00
        E 0 90 18 60
        E 0 90 26 60
        E 0 90 40 60
        E 0 90 48 60
        E 0 90 4c 60
        E 0 90 54 60
        E 0 90 58 60
        E 0 90 60 60
        E 0 90 64 60
        E 120 80 18 00
        E 0 80 26 00
        E 0 80 40 00
        E 0 80 48 00
        E 0 80 4c 00
        E 0 80 54 00
        E 0 80 58 00
        E 0 80 60 00
        E 0 80 64 00
        E 120 90 19 60
        E 240 80 19 00
        E 0 90 1a 60
        E 0 90 26 60
        E 0 90 3d 60
        E 0 90 40 60
        E 0 90 49 60
        E 0 90 4c 60
        E 0 90 55 60
        E 0 90 58 60
        E 0 90 61 60
        E 0 90 64 60
        E 120 80 1a 00
        E 0 80 26 00
        E 0 80 3d 00
        E 0 80 40 00
        E 0 80 49 00
        E 0 80 4c 00
        E 0 80 55 00
        E 0 80 58 00
        E 0 80 61 00
        E 0 80 64 00
        E 120 90 19 60
        E 240 80 19 00
        E 0 90 18 60
        E 0 90 26 60
        E 0 90 40 60
        E 0 90 4c 60
        E 0 90 54 60
        E 0 90 58 60
        E 0 90 60 60
        E 0 90 64 60
        E 120 80 18 00
        E 0 80 26 00
        E 0 80 40 00
        E 0 80 4c 00
        E 0 80 54 00
        E 0 80 58 00
        E 0 80 60 00
        E 0 80 64 00
        E 120 90 18 60
        E 0 90 19 60
        E 0 90 60 60
        E 120 80 18 00
        E 0 80 60 00
        E 120 80 19 00
        E 0 90 1a 60
        E 0 90 26 60
        E 0 90 3d 60
        E 0 90 40 60
        E 0 90 49 60
        E 0 90 4c 60
        E 0 90 55 60
        E 0 90 58 60
        E 0 90 61 60
        E 0 90 64 60
        E 120 80 1a 00
        E 0 80 26 00
        E 0 80 3d 00
        E 0 80 40 00
        E 0 80 49 00
        E 0 80 4c 00
        E 0 80 55 00
        E 0 80 58 00
        E 0 80 61 00
        E 0 80 64 00
        E 120 90 19 60
        E 240 80 19 00
        E 0 90 18 60
        E 0 90 26 60
        E 0 90 40 60
        E 0 90 4c 60
        E 0 90 54 60
        E 0 90 58 60
        E 0 90 60 60
        E 0 90 64 60
        E 120 80 18 00
        E 0 80 26 00
        E 0 80 40 00
        E 0 80 4c 00
        E 0 80 54 00
        E 0 80 58 00
        E 0 80 60 00
        E 0 80 64 00
        E 120 90 19 60
        E 240 80 19 00
        E 0 90 1a 60
        E 0 90 26 60
        E 0 90 3d 60
        E 0 90 40 60
        E 0 90 49 60
        E 0 90 4c 60
        E 0 90 55 60
        E 0 90 58 60
        E 0 90 61 60
        E 0 90 64 60
        E 120 80 1a 00
        E 0 80 26 00
        E 0 80 3d 00
        E 0 80 40 00
        E 0 80 49 00
        E 0 80 4c 00
        E 0 80 55 00
        E 0 80 58 00
        E 0 80 61 00
        E 0 80 64 00
        E 120 90 19 60
        E 240 80 19 00
        E 0 90 18 60
        E 0 90 26 60
        E 0 90 40 60
        E 0 90 4c 60
        E 0 90 54 60
        E 0 90 58 60
        E 0 90 60 60
        E 0 90 64 60
        E 120 80 18 00
        E 0 80 26 00
        E 0 80 40 00
        E 0 80 4c 00
        E 0 80 54 00
        E 0 80 58 00
        E 0 80 60 00
        E 0 80 64 00
        E 120 90 19 60
        E 240 80 19 00
        E 0 90 1a 60
        E 0 90 26 60
        E 0 90 3d 60
        E 0 90 40 60
        E 0 90 49 60
        E 0 90 4c 60
        E 0 90 55 60
        E 0 90 58 60
        E 0 90 61 60
        E 0 90 64 60
        E 120 80 1a 00
        E 0 80 26 00
        E 0 80 3d 00
        E 0 80 40 00
        E 0 80 49 00
        E 0 80 4c 00
        E 0 80 55 00
        E 0 80 58 00
        E 0 80 61 00
        E 0 80 64 00
        E 120 90 19 60
        E 240 80 19 00
        E 0 90 18 60
        E 0 90 26 60
        E 0 90 40 60
        E 0 90 48 60
        E 0 90 4c 60
        E 0 90 54 60
        E 0 90 58 60
        E 0 90 60 60
        E 0 90 64 60
        E 120 80 18 00
        E 0 80 26 00
        E 0 80 40 00
        E 0 80 48 00
        E 0 80 4c 00
        E 0 80 54 00
        E 0 80 58 00
        E 0 80 60 00
        E 0 80 64 00
        E 120 90 19 60
        E 240 80 19 00
        E 0 90 1a 60
        E 0 90 26 60
        E 0 90 3d 60
        E 0 90 40 60
        E 0 90 49 60
        E 0 90 4c 60
        E 0 90 55 60
        E 0 90 58 60
        E 0 90 61 60
        E 0 90 64 60
        E 120 80 1a 00
        E 0 80 26 00
        E 0 80 3d 00
        E 0 80 40 00
        E 0 80 49 00
        E 0 80 4c 00
        E 0 80 55 00
        E 0 80 58 00
        E 0 80 61 00
        E 0 80 64 00
        E 120 90 19 60
        E 240 80 19 00
        E 0 90 18 60
        E 0 90 26 60
        E 0 90 40 60
        E 0 90 4c 60
        E 0 90 54 60
        E 0 90 58 60
        E 0 90 60 60
        E 0 90 64 60
        E 120 80 18 00
        E 0 80 26 00
        E 0 80 40 00
        E 0 80 4c 00
        E 0 80 54 00
        E 0 80 58 00
        E 0 80 60 00
        E 0 80 64 00
        E 120 90 18 60
        E 0 90 19 60
        E 0 90 60 60
        E 120 80 18 00
        E 0 80 60 00
        E 120 80 19 00
        E 0 90 1a 60
        E 0 90 26 60
        E 0 90 3d 60
        E 0 90 40 60
        E 0 90 49 60
        E 0 90 4c 60
        E 0 90 55 60
        E 0 90 58 60
        E 0 90 61 60
        E 0 90 64 60
        E 120 80 1a 00
        E 0 80 26 00
        E 0 80 3d 00
        E 0 80 40 00
        E 0 80 49 00
        E 0 80 4c 00
        E 0 80 55 00
        E 0 80 58 00
        E 0 80 61 00
        E 0 80 64 00
        E 120 90 19 60
        E 240 80 19 00
        E 0 90 18 60
        E 0 90 26 60
        E 0 90 40 60
        E 0 90 4c 60
        E 0 90 54 60
        E 0 90 58 60
        E 0 90 60 60
        E 0 90 64 60
        E 120 80 18 00
        E 0 80 26 00
        E 0 80 40 00
        E 0 80 4c 00
        E 0 80 54 00
        E 0 80 58 00
        E 0 80 60 00
        E 0 80 64 00
        E 120 90 19 60
        E 240 80 19 00
        E 0 90 1a 60
        E 0 90 26 60
        E 0 90 3d 60
        E 0 90 40 60
        E 0 90 49 60
        E 0 90 4c 60
        E 0 90 55 60
        E 0 90 58 60
        E 0 90 61 60
        E 0 90 64 60
        E 120 80 1a 00
        E 0 80 26 00
        E 0 80 3d 00
        E 0 80 40 00
        E 0 80 49 00
        E 0 80 4c 00
        E 0 80 55 00
        E 0 80 58 00
        E 0 80 61 00
        E 0 80 64 00
        E 120 90 19 60
        E 240 80 19 00
        E 0 90 18 60
        E 0 90 26 60
        E 0 90 40 60
        E 0 90 4c 60
        E 0 90 54 60
        E 0 90 58 60
        E 0 90 60 60
        E 0 90 64 60
        E 120 80 18 00
        E 0 80 26 00
        E 0 80 40 00
        E 0 80 4c 00
        E 0 80 54 00
        E 0 80 58 00
        E 0 80 60 00
        E 0 80 64 00
        E 120 90 18 60
        E 0 90 19 60
        E 0 90 60 60
        E 120 80 18 00
        E 0 80 60 00
        E 120 80 19 00
        E 0 90 1a 60
        E 0 90 26 60
        E 0 90 3d 60
        E 0 90 40 60
        E 0 90 49 60
        E 0 90 4c 60
        E 0 90 55 60
        E 0 90 58 60
        E 0 90 61 60
        E 0 90 64 60
        E 120 80 1a 00
        E 0 80 26 00
        E 0 80 3d 00
        E 0 80 40 00
        E 0 80 49 00
        E 0 80 4c 00
        E 0 80 55 00
        E 0 80 58 00
        E 0 80 61 00
        E 0 80 64 00
        E 120 90 19 60
        E 240 80 19 00
        E 0 90 18 60
        E 0 90 26 60
        E 0 90 40 60
        E 0 90 48 60
        E 0 90 4c 60
        E 0 90 54 60
        E 0 90 58 60
        E 0 90 60 60
        E 0 90 64 60
        E 120 80 18 00
        E 0 80 26 00
        E 0 80 40 00
        E 0 80 48 00
        E 0 80 4c 00
        E 0 80 54 00
        E 0 80 58 00
        E 0 80 60 00
        E 0 80 64 00
        E 120 90 19 60
        E 240 80 19 00
        E 0 90 1a 60
        E 0 90 26 60
        E 0 90 3d 60
        E 0 90 40 60
        E 0 90 49 60
        E 0 90 4c 60
        E 0 90 55 60
        E 0 90 58 60
        E 0 90 61 60
        E 0 90 64 60
        E 120 80 1a 00
        E 0 80 26 00
        E 0 80 3d 00
        E 0 80 40 00
        E 0 80 49 00
        E 0 80 4c 00
        E 0 80 55 00
        E 0 80 58 00
        E 0 80 61 00
        E 0 80 64 00
        E 120 90 19 60
        E 240 80 19 00
        E 0 90 18 60
        E 0 90 26 60
        E 0 90 40 60
        E 0 90 4c 60
        E 0 90 54 60
        E 0 90 58 60
        E 0 90 60 60
        E 0 90 64 60
        E 120 80 18 00
        E 0 80 26 00
        E 0 80 40 00
        E 0 80 4c 00
        E 0 80 54 00
        E 0 80 58 00
        E 0 80 60 00
        E 0 80 64 00
        E 120 90 18 60
        E 0 90 19 60
        E 0 90 60 60
        E 120 80 18 00
        E 0 80 60 00
        E 120 80 19 00
        E 0 90 1a 60
        E 0 90 26 60
        E 0 90 3d 60
        E 0 90 40 60
        E 0 90 49 60
        E 0 90 4c 60
        E 0 90 55 60
        E 0 90 58 60
        E 0 90 61 60
        E 0 90 64 60
        E 120 80 1a 00
        E 0 80 26 00
        E 0 80 3d 00
        E 0 80 40 00
        E 0 80 49 00
        E 0 80 4c 00
        E 0 80 55 00
        E 0 80 58 00
        E 0 80 61 00
        E 0 80 64 00
        E 120 90 19 60
        E 240 80 19 00
        E 0 90 18 60
        E 0 90 26 60
        E 0 90 40 60
        E 0 90 4c 60
        E 0 90 54 60
        E 0 90 58 60
        E 0 90 60 60
        E 0 90 64 60
        E 120 80 18 00
        E 0 80 26 00
        E 0 80 40 00
        E 0 80 4c 00
        E 0 80 54 00
        E 0 80 58 00
        E 0 80 60 00
        E 0 80 64 00
        E 120 90 19 60
        E 240 80 19 00
        E 0 90 1a 60
        E 0 90 26 60
        E 0 90 3d 60
        E 0 90 40 60
        E 0 90 49 60
        E 0 90 4c 60
        E 0 90 55 60
        E 0 90 58 60
        E 0 90 61 60
        E 0 90 64 60
        E 120 80 1a 00
        E 0 80 26 00
        E 0 80 3d 00
        E 0 80 40 00
        E 0 80 49 00
        E 0 80 4c 00
        E 0 80 55 00
        E 0 80 58 00
        E 0 80 61 00
        E 0 80 64 00
        E 120 90 19 60
        E 240 80 19 00
        E 0 90 18 60
        E 0 90 2f 60
        E 0 90 3e 60
        E 0 90 4a 60
        E 0 90 54 60
        E 0 90 56 60
        E 0 90 60 60
        E 0 90 62 60
        E 0 90 6e 60
        E 120 80 18 00
        E 0 80 2f 00
        E 0 80 3e 00
        E 0 80 4a 00
        E 0 80 54 00
        E 0 80 56 00
        E 0 80 60 00
        E 0 80 62 00
        E 0 90 2e 60
        E 0 90 62 60
        E 120 80 2e 00
        E 0 80 62 00
        E 0 90 19 60
        E 0 90 2f 60
        E 0 90 56 60
        E 0 90 62 60
        E 120 80 2f 00
        E 0 80 56 00
        E 0 80 62 00
        E 0 90 2e 60
        E 0 90 62 60
        E 120 80 6e 00
        E 0 80 19 00
        E 0 80 2e 00
        E 0 80 62 00
        E 0 90 31 60
        E 0 90 3f 60
        E 0 90 4b 60
        E 0 90 57 60
        E 0 90 63 60
        E 0 90 6f 60
        E 120 80 31 00
        E 0 80 3f 00
        E 0 80 4b 00
        E 0 80 57 00
        E 0 80 63 00
        E 0 90 30 60
        E 0 90 63 60
        E 120 80 30 00
        E 0 80 63 00
        E 0 90 19 60
        E 0 90 31 60
        E 0 90 57 60
        E 0 90 63 60
        E 120 80 31 00
        E 0 80 57 00
        E 0 80 63 00
        E 0 90 30 60
        E 0 90 63 60
        E 120 80 6f 00
        E 0 80 19 00
        E 0 80 30 00
        E 0 80 63 00
        E 0 90 18 60
        E 0 90 26 60
        E 0 90 40 60
        E 0 90 48 60
        E 0 90 4c 60
        E 0 90 54 60
        E 0 90 58 60
        E 0 90 60 60
        E 0 90 64 60
        E 0 90 74 60
        E 120 80 18 00
        E 0 80 26 00
        E 0 80 40 00
        E 0 80 48 00
        E 0 80 4c 00
        E 0 80 54 00
        E 0 80 58 00
        E 0 80 60 00
        E 0 80 64 00
        E 120 90 19 60
        E 240 80 19 00
        E 0 90 1a 60
        E 0 90 26 60
        E 0 90 3d 60
        E 0 90 40 60
        E 0 90 49 60
        E 0 90 4c 60
        E 0 90 55 60
        E 0 90 58 60
        E 0 90 61 60
        E 0 90 64 60
        E 120 80 1a 00
        E 0 80 26 00
        E 0 80 3d 00
        E 0 80 40 00
        E 0 80 49 00
        E 0 80 4c 00
        E 0 80 55 00
        E 0 80 58 00
        E 0 80 61 00
        E 0 80 64 00
        E 120 90 19 60
        E 240 80 19 00
        E 0 90 18 60
        E 0 90 26 60
        E 0 90 40 60
        E 0 90 4c 60
        E 0 90 54 60
        E 0 90 58 60
        E 0 90 60 60
        E 0 90 64 60
        E 120 80 18 00
        E 0 80 26 00
        E 0 80 40 00
        E 0 80 4c 00
        E 0 80 54 00
        E 0 80 58 00
        E 0 80 60 00
        E 0 80 64 00
        E 120 90 18 60
        E 0 90 19 60
        E 0 90 60 60
        E 120 80 18 00
        E 0 80 60 00
        E 120 80 19 00
        E 0 90 1a 60
        E 0 90 26 60
        E 0 90 3d 60
        E 0 90 40 60
        E 0 90 49 60
        E 0 90 4c 60
        E 0 90 55 60
        E 0 90 58 60
        E 0 90 61 60
        E 0 90 64 60
        E 120 80 1a 00
        E 0 80 26 00
        E 0 80 3d 00
        E 0 80 40 00
        E 0 80 49 00
        E 0 80 4c 00
        E 0 80 55 00
        E 0 80 58 00
        E 0 80 61 00
        E 0 80 64 00
        E 120 90 19 60
        E 240 80 19 00
        E 0 90 18 60
        E 0 90 26 60
        E 0 90 40 60
        E 0 90 4c 60
        E 0 90 54 60
        E 0 90 58 60
        E 0 90 60 60
        E 0 90 64 60
        E 120 80 18 00
        E 0 80 26 00
        E 0 80 40 00
        E 0 80 4c 00
        E 0 80 54 00
        E 0 80 58 00
        E 0 80 60 00
        E 0 80 64 00
        E 120 90 19 60
        E 240 80 19 00
        E 0 90 1a 60
        E 0 90 26 60
        E 0 90 3d 60
        E 0 90 40 60
        E 0 90 49 60
        E 0 90 4c 60
        E 0 90 55 60
        E 0 90 58 60
        E 0 90 61 60
        E 0 90 64 60
        E 120 80 1a 00
        E 0 80 26 00
        E 0 80 3d 00
        E 0 80 40 00
        E 0 80 49 00
        E 0 80 4c 00
        E 0 80 55 00
        E 0 80 58 00
        E 0 80 61 00
        E 0 80 64 00
        E 120 90 19 60
        E 240 80 19 00
        E 0 90 18 60
        E 0 90 26 60
        E 0 90 40 60
        E 0 90 4c 60
        E 0 90 54 60
        E 0 90 58 60
        E 0 90 60 60
        E 0 90 64 60
        E 120 80 18 00
        E 0 80 26 00
        E 0 80 40 00
        E 0 80 4c 00
        E 0 80 54 00
        E 0 80 58 00
        E 0 80 60 00
        E 0 80 64 00
        E 120 90 19 60
        E 240 80 19 00
        E 0 90 1a 60
        E 0 90 31 60
        E 0 90 3d 60
        E 0 90 3f 60
        E 0 90 49 60
        E 0 90 4b 60
        E 0 90 55 60
        E 0 90 57 60
        E 0 90 61 60
        E 0 90 63 60
        E 0 90 6f 60
        E 120 80 1a 00
        E 0 80 31 00
        E 0 80 3d 00
        E 0 80 3f 00
        E 0 80 49 00
        E 0 80 4b 00
        E 0 80 55 00
        E 0 80 57 00
        E 0 80 61 00
        E 0 80 63 00
        E 0 80 6f 00
        E 120 90 19 60
        E 240 80 74 00
        E 0 80 19 00
        E 0 90 18 60
        E 0 90 26 60
        E 0 90 40 60
        E 0 90 48 60
        E 0 90 4c 60
        E 0 90 54 60
        E 0 90 58 60
        E 0 90 60 60
        E 0 90 64 60
        E 120 80 18 00
        E 0 80 26 00
        E 0 80 40 00
        E 0 80 48 00
        E 0 80 4c 00
        E 0 80 54 00
        E 0 80 58 00
        E 0 80 60 00
        E 0 80 64 00
        E 120 90 18 60
        E 0 90 19 60
        E 0 90 60 60
        E 120 80 18 00
        E 0 80 60 00
        E 120 80 19 00
        E 0 90 1a 60
        E 0 90 26 60
        E 0 90 3d 60
        E 0 90 40 60
        E 0 90 49 60
        E 0 90 4c 60
        E 0 90 55 60
        E 0 90 58 60
        E 0 90 61 60
        E 0 90 64 60
        E 120 80 1a 00
        E 0 80 26 00
        E 0 80 3d 00
        E 0 80 40 00
        E 0 80 49 00
        E 0 80 4c 00
        E 0 80 55 00
        E 0 80 58 00
        E 0 80 61 00
        E 0 80 64 00
        E 120 90 18 60
        E 0 90 19 60
        E 0 90 60 60
        E 120 80 18 00
        E 0 80 60 00
        E 120 80 19 00
        E 0 90 18 60
        E 0 90 26 60
        E 0 90 40 60
        E 0 90 4c 60
        E 0 90 54 60
        E 0 90 58 60
        E 0 90 60 60
        E 0 90 64 60
        E 120 80 18 00
        E 0 80 26 00
        E 0 80 40 00
        E 0 80 4c 00
        E 0 80 54 00
        E 0 80 58 00
        E 0 80 60 00
        E 0 80 64 00
        E 120 90 19 60
        E 240 80 19 00
        E 0 90 1a 60
        E 0 90 26 60
        E 0 90 3d 60
        E 0 90 40 60
        E 0 90 49 60
        E 0 90 4c 60
        E 0 90 55 60
        E 0 90 58 60
        E 0 90 61 60
        E 0 90 64 60
        E 120 80 1a 00
        E 0 80 26 00
        E 0 80 3d 00
        E 0 80 40 00
        E 0 80 49 00
        E 0 80 4c 00
        E 0 80 55 00
        E 0 80 58 00
        E 0 80 61 00
        E 0 80 64 00
        E 120 90 19 60
        E 240 80 19 00
        E 0 90 18 60
        E 0 90 26 60
        E 0 90 40 60
        E 0 90 4c 60
        E 0 90 54 60
        E 0 90 58 60
        E 0 90 60 60
        E 0 90 64 60
        E 120 80 18 00
        E 0 80 26 00
        E 0 80 40 00
        E 0 80 4c 00
        E 0 80 54 00
        E 0 80 58 00
        E 0 80 60 00
        E 0 80 64 00
        E 120 90 18 60
        E 0 90 19 60
        E 0 90 60 60
        E 120 80 18 00
        E 0 80 60 00
        E 120 80 19 00
        E 0 90 1a 60
        E 0 90 26 60
        E 0 90 3d 60
        E 0 90 40 60
        E 0 90 49 60
        E 0 90 4c 60
        E 0 90 55 60
        E 0 90 58 60
        E 0 90 61 60
        E 0 90 64 60
        E 120 80 1a 00
        E 0 80 26 00
        E 0 80 3d 00
        E 0 80 40 00
        E 0 80 49 00
        E 0 80 4c 00
        E 0 80 55 00
        E 0 80 58 00
        E 0 80 61 00
        E 0 80 64 00
        E 120 90 18 60
        E 0 90 19 60
        E 0 90 60 60
        E 120 80 18 00
        E 0 80 60 00
        E 120 80 19 00
        E 0 90 18 60
        E 0 90 26 60
        E 0 90 40 60
        E 0 90 4c 60
        E 0 90 54 60
        E 0 90 58 60
        E 0 90 60 60
        E 0 90 64 60
        E 120 80 18 00
        E 0 80 26 00
        E 0 80 40 00
        E 0 80 4c 00
        E 0 80 54 00
        E 0 80 58 00
        E 0 80 60 00
        E 0 80 64 00
        E 120 90 19 60
        E 240 80 19 00
        E 0 90 1a 60
        E 0 90 26 60
        E 0 90 3d 60
        E 0 90 40 60
        E 0 90 49 60
        E 0 90 4c 60
        E 0 90 55 60
        E 0 90 58 60
        E 0 90 61 60
        E 0 90 64 60
        E 120 80 1a 00
        E 0 80 26 00
        E 0 80 3d 00
        E 0 80 40 00
        E 0 80 49 00
        E 0 80 4c 00
        E 0 80 55 00
        E 0 80 58 00
        E 0 80 61 00
        E 0 80 64 00
        E 120 90 19 60
        E 240 80 19 00
        E 0 90 18 60
        E 0 90 26 60
        E 0 90 40 60
        E 0 90 48 60
        E 0 90 4c 60
        E 0 90 54 60
        E 0 90 58 60
        E 0 90 60 60
        E 0 90 64 60
        E 120 80 18 00
        E 0 80 26 00
        E 0 80 40 00
        E 0 80 48 00
        E 0 80 4c 00
        E 0 80 54 00
        E 0 80 58 00
        E 0 80 60 00
        E 0 80 64 00
        E 120 90 18 60
        E 0 90 19 60
        E 0 90 60 60
        E 120 80 18 00
        E 0 80 60 00
        E 120 80 19 00
        E 0 90 1a 60
        E 0 90 26 60
        E 0 90 3d 60
        E 0 90 40 60
        E 0 90 49 60
        E 0 90 4c 60
        E 0 90 55 60
        E 0 90 58 60
        E 0 90 61 60
        E 0 90 64 60
        E 120 80 1a 00
        E 0 80 26 00
        E 0 80 3d 00
        E 0 80 40 00
        E 0 80 49 00
        E 0 80 4c 00
        E 0 80 55 00
        E 0 80 58 00
        E 0 80 61 00
        E 0 80 64 00
        E 120 90 18 60
        E 0 90 19 60
        E 0 90 60 60
        E 120 80 18 00
        E 0 80 60 00
        E 120 80 19 00
        E 0 90 18 60
        E 0 90 26 60
        E 0 90 40 60
        E 0 90 4c 60
        E 0 90 54 60
        E 0 90 58 60
        E 0 90 60 60
        E 0 90 64 60
        E 120 80 18 00
        E 0 80 26 00
        E 0 80 40 00
        E 0 80 4c 00
        E 0 80 54 00
        E 0 80 58 00
        E 0 80 60 00
        E 0 80 64 00
        E 120 90 19 60
        E 240 80 19 00
        E 0 90 1a 60
        E 0 90 26 60
        E 0 90 3d 60
        E 0 90 40 60
        E 0 90 49 60
        E 0 90 4c 60
        E 0 90 55 60
        E 0 90 58 60
        E 0 90 61 60
        E 0 90 64 60
        E 120 80 1a 00
        E 0 80 26 00
        E 0 80 3d 00
        E 0 80 40 00
        E 0 80 49 00
        E 0 80 4c 00
        E 0 80 55 00
        E 0 80 58 00
        E 0 80 61 00
        E 0 80 64 00
        E 120 90 19 60
        E 240 80 19 00
        E 0 90 18 60
        E 0 90 26 60
        E 0 90 40 60
        E 0 90 4c 60
        E 0 90 54 60
        E 0 90 58 60
        E 0 90 60 60
        E 0 90 64 60
        E 0 90 78 60
        E 0 90 79 60
        E 0 90 7a 60
        E 0 90 7b 60
        E 0 90 7c 60
        E 120 80 18 00
        E 0 80 26 00
        E 0 80 40 00
        E 0 80 4c 00
        E 0 80 54 00
        E 0 80 58 00
        E 0 80 60 00
        E 0 80 64 00
        E 120 90 18 60
        E 0 90 19 60
        E 0 90 60 60
        E 120 80 18 00
        E 0 80 60 00
        E 120 80 19 00
        E 0 90 1a 60
        E 0 90 26 60
        E 0 90 3d 60
        E 0 90 40 60
        E 0 90 49 60
        E 0 90 4c 60
        E 0 90 55 60
        E 0 90 58 60
        E 0 90 61 60
        E 0 90 64 60
        E 120 80 1a 00
        E 0 80 26 00
        E 0 80 3d 00
        E 0 80 40 00
        E 0 80 49 00
        E 0 80 4c 00
        E 0 80 55 00
        E 0 80 58 00
        E 0 80 61 00
        E 0 80 64 00
        E 120 90 18 60
        E 0 90 19 60
        E 0 90 60 60
        E 120 80 18 00
        E 0 80 60 00
        E 120 80 19 00
        E 0 90 18 60
        E 0 90 26 60
        E 0 90 40 60
        E 0 90 4c 60
        E 0 90 54 60
        E 0 90 58 60
        E 0 90 60 60
        E 0 90 64 60
        E 120 80 18 00
        E 0 80 26 00
        E 0 80 40 00
        E 0 80 4c 00
        E 0 80 54 00
        E 0 80 58 00
        E 0 80 60 00
        E 0 80 64 00
        E 120 90 19 60
        E 240 80 19 00
        E 0 90 1a 60
        E 0 90 26 60
        E 0 90 3d 60
        E 0 90 40 60
        E 0 90 49 60
        E 0 90 4c 60
        E 0 90 55 60
        E 0 90 58 60
        E 0 90 61 60
        E 0 90 64 60
        E 120 80 1a 00
        E 0 80 26 00
        E 0 80 3d 00
        E 0 80 40 00
        E 0 80 49 00
        E 0 80 4c 00
        E 0 80 55 00
        E 0 80 58 00
        E 0 80 61 00
        E 0 80 64 00
        E 120 90 19 60
        E 240 80 78 00
        E 0 80 79 00
        E 0 80 7a 00
        E 0 80 7b 00
        E 0 80 7c 00
        E 0 80 19 00
        E 0 90 18 60
        E 0 90 26 60
        E 0 90 40 60
        E 0 90 48 60
        E 0 90 4c 60
        E 0 90 54 60
        E 0 90 58 60
        E 0 90 60 60
        E 0 90 64 60
        E 120 80 18 00
        E 0 80 26 00
        E 0 80 40 00
        E 0 80 48 00
        E 0 80 4c 00
        E 0 80 54 00
        E 0 80 58 00
        E 0 80 60 00
        E 0 80 64 00
        E 120 90 18 60
        E 0 90 19 60
        E 0 90 60 60
        E 120 80 18 00
        E 0 80 60 00
        E 120 80 19 00
        E 0 90 1a 60
        E 0 90 26 60
        E 0 90 3d 60
        E 0 90 40 60
        E 0 90 49 60
        E 0 90 4c 60
        E 0 90 55 60
        E 0 90 58 60
        E 0 90 61 60
        E 0 90 64 60
        E 120 80 1a 00
        E 0 80 26 00
        E 0 80 3d 00
        E 0 80 40 00
        E 0 80 49 00
        E 0 80 4c 00
        E 0 80 55 00
        E 0 80 58 00
        E 0 80 61 00
        E 0 80 64 00
        E 120 90 18 60
        E 0 90 19 60
        E 0 90 60 60
        E 120 80 18 00
        E 0 80 60 00
        E 120 80 19 00
        E 0 90 18 60
        E 0 90 26 60
        E 0 90 40 60
        E 0 90 4c 60
        E 0 90 54 60
        E 0 90 58 60
        E 0 90 60 60
        E 0 90 64 60
        E 120 80 18 00
        E 0 80 26 00
        E 0 80 40 00
        E 0 80 4c 00
        E 0 80 54 00
        E 0 80 58 00
        E 0 80 60 00
        E 0 80 64 00
        E 120 90 19 60
        E 240 80 19 00
        E 0 90 1a 60
        E 0 90 26 60
        E 0 90 3d 60
        E 0 90 40 60
        E 0 90 49 60
        E 0 90 4c 60
        E 0 90 55 60
        E 0 90 58 60
        E 0 90 61 60
        E 0 90 64 60
        E 120 80 1a 00
        E 0 80 26 00
        E 0 80 3d 00
        E 0 80 40 00
        E 0 80 49 00
        E 0 80 4c 00
        E 0 80 55 00
        E 0 80 58 00
        E 0 80 61 00
        E 0 80 64 00
        E 120 90 19 60
        E 240 80 19 00
        E 0 90 18 60
        E 0 90 26 60
        E 0 90 40 60
        E 0 90 4c 60
        E 0 90 54 60
        E 0 90 58 60
        E 0 90 60 60
        E 0 90 64 60
        E 120 80 18 00
        E 0 80 26 00
        E 0 80 40 00
        E 0 80 4c 00
        E 0 80 54 00
        E 0 80 58 00
        E 0 80 60 00
        E 0 80 64 00
        E 120 90 18 60
        E 0 90 19 60
        E 0 90 60 60
        E 120 80 18 00
        E 0 80 60 00
        E 120 80 19 00
        E 0 90 1a 60
        E 0 90 26 60
        E 0 90 3d 60
        E 0 90 40 60
        E 0 90 49 60
        E 0 90 4c 60
        E 0 90 55 60
        E 0 90 58 60
        E 0 90 61 60
        E 0 90 64 60
        E 120 80 1a 00
        E 0 80 26 00
        E 0 80 3d 00
        E 0 80 40 00
        E 0 80 49 00
        E 0 80 4c 00
        E 0 80 55 00
        E 0 80 58 00
        E 0 80 61 00
        E 0 80 64 00
        E 120 90 18 60
        E 0 90 19 60
        E 0 90 60 60
        E 120 80 18 00
        E 0 80 60 00
        E 120 80 19 00
        E 0 90 18 60
        E 0 90 26 60
        E 0 90 40 60
        E 0 90 4c 60
        E 0 90 54 60
        E 0 90 58 60
        E 0 90 60 60
        E 0 90 64 60
        E 120 80 18 00
        E 0 80 26 00
        E 0 80 40 00
        E 0 80 4c 00
        E 0 80 54 00
        E 0 80 58 00
        E 0 80 60 00
        E 0 80 64 00
        E 120 90 19 60
        E 240 80 19 00
        E 0 90 1a 60
        E 0 90 26 60
        E 0 90 3d 60
        E 0 90 40 60
        E 0 90 49 60
        E 0 90 4c 60
        E 0 90 55 60
        E 0 90 58 60
        E 0 90 61 60
        E 0 90 64 60
        E 120 80 1a 00
        E 0 80 26 00
        E 0 80 3d 00
        E 0 80 40 00
        E 0 80 49 00
        E 0 80 4c 00
        E 0 80 55 00
        E 0 80 58 00
        E 0 80 61 00
        E 0 80 64 00
        E 120 90 19 60
        E 240 80 19 00
        E 0 90 18 60
        E 0 90 26 60
        E 0 90 40 60
        E 0 90 48 60
        E 0 90 4c 60
        E 0 90 54 60
        E 0 90 58 60
        E 0 90 60 60
        E 0 90 64 60
        E 120 80 18 00
        E 0 80 26 00
        E 0 80 40 00
        E 0 80 48 00
        E 0 80 4c 00
        E 0 80 54 00
        E 0 80 58 00
        E 0 80 60 00
        E 0 80 64 00
        E 120 90 18 60
        E 0 90 19 60
        E 0 90 60 60
        E 120 80 18 00
        E 0 80 60 00
        E 120 80 19 00
        E 0 90 1a 60
        E 0 90 26 60
        E 0 90 3d 60
        E 0 90 40 60
        E 0 90 49 60
        E 0 90 4c 60
        E 0 90 55 60
        E 0 90 58 60
        E 0 90 61 60
        E 0 90 64 60
        E 120 80 1a 00
        E 0 80 26 00
        E 0 80 3d 00
        E 0 80 40 00
        E 0 80 49 00
        E 0 80 4c 00
        E 0 80 55 00
        E 0 80 58 00
        E 0 80 61 00
        E 0 80 64 00
        E 120 90 18 60
        E 0 90 19 60
        E 0 90 60 60
        E 120 80 18 00
        E 0 80 60 00
        E 120 80 19 00
        E 0 90 18 60
        E 0 90 26 60
        E 0 90 40 60
        E 0 90 4c 60
        E 0 90 54 60
        E 0 90 58 60
        E 0 90 60 60
        E 0 90 64 60
        E 120 80 18 00
        E 0 80 26 00
        E 0 80 40 00
        E 0 80 4c 00
        E 0 80 54 00
        E 0 80 58 00
        E 0 80 60 00
        E 0 80 64 00
        E 120 90 19 60
        E 240 80 19 00
        E 0 90 1a 60
        E 0 90 26 60
        E 0 90 3d 60
        E 0 90 40 60
        E 0 90 49 60
        E 0 90 4c 60
        E 0 90 55 60
        E 0 90 58 60
        E 0 90 61 60
        E 0 90 64 60
        E 120 80 1a 00
        E 0 80 26 00
        E 0 80 3d 00
        E 0 80 40 00
        E 0 80 49 00
        E 0 80 4c 00
        E 0 80 55 00
        E 0 80 58 00
        E 0 80 61 00
        E 0 80 64 00
        E 120 90 19 60
        E 240 80 19 00
        E 0 90 18 60
        E 0 90 26 60
        E 0 90 40 60
        E 0 90 4c 60
        E 0 90 54 60
        E 0 90 58 60
        E 0 90 60 60
        E 0 90 64 60
        E 120 80 18 00
        E 0 80 26 00
        E 0 80 40 00
        E 0 80 4c 00
        E 0 80 54 00
        E 0 80 58 00
        E 0 80 60 00
        E 0 80 64 00
        E 120 90 18 60
        E 0 90 19 60
        E 0 90 60 60
        E 120 80 18 00
        E 0 80 60 00
        E 120 80 19 00
        E 0 90 1a 60
        E 0 90 26 60
        E 0 90 3d 60
        E 0 90 40 60
        E 0 90 49 60
        E 0 90 4c 60
        E 0 90 55 60
        E 0 90 58 60
        E 0 90 61 60
        E 0 90 64 60
        E 120 80 1a 00
        E 0 80 26 00
        E 0 80 3d 00
        E 0 80 40 00
        E 0 80 49 00
        E 0 80 4c 00
        E 0 80 55 00
        E 0 80 58 00
        E 0 80 61 00
        E 0 80 64 00
        E 120 90 19 60
        E 240 80 19 00
        E 0 90 18 60
        E 0 90 26 60
        E 0 90 40 60
        E 0 90 4c 60
        E 0 90 54 60
        E 0 90 58 60
        E 0 90 60 60
        E 0 90 64 60
        E 120 80 18 00
        E 0 80 26 00
        E 0 80 40 00
        E 0 80 4c 00
        E 0 80 54 00
        E 0 80 58 00
        E 0 80 60 00
        E 0 80 64 00
        E 120 90 19 60
        E 0 90 1a 60
        E 0 90 55 60
        E 0 90 61 60
        E 120 80 1a 00
        E 0 80 55 00
        E 0 80 61 00
        E 120 80 19 00
        E 0 90 1a 60
        E 0 90 3d 60
        E 0 90 40 60
        E 0 90 49 60
        E 0 90 55 60
        E 0 90 61 60
        E 120 80 1a 00
        E 0 80 3d 00
        E 0 80 40 00
        E 0 80 49 00
        E 0 80 55 00
        E 0 80 61 00
        E 120 90 19 60
        E 0 90 1a 60
        E 0 90 55 60
        E 0 90 61 60
        E 120 80 1a 00
        E 0 80 55 00
        E 0 80 61 00
        E 120 80 19 00
        E 0 90 18 60
        E 0 90 26 60
        E 0 90 40 60
        E 0 90 48 60
        E 0 90 4c 60
        E 0 90 54 60
        E 0 90 58 60
        E 0 90 60 60
        E 0 90 64 60
        E 120 80 18 00
        E 0 80 26 00
        E 0 80 40 00
        E 0 80 48 00
        E 0 80 4c 00
        E 0 80 54 00
        E 0 80 58 00
        E 0 80 60 00
        E 0 80 64 00
        E 120 90 19 60
        E 240 80 19 00
        E 0 90 1a 60
        E 0 90 26 60
        E 0 90 3d 60
        E 0 90 40 60
        E 0 90 49 60
        E 0 90 4c 60
        E 0 90 55 60
        E 0 90 58 60
        E 0 90 61 60
        E 0 90 64 60
        E 120 80 1a 00
        E 0 80 26 00
        E 0 80 3d 00
        E 0 80 40 00
        E 0 80 49 00
        E 0 80 4c 00
        E 0 80 55 00
        E 0 80 58 00
        E 0 80 61 00
        E 0 80 64 00
        E 120 90 19 60
        E 240 80 19 00
        E 0 90 18 60
        E 0 90 26 60
        E 0 90 40 60
        E 0 90 4c 60
        E 0 90 54 60
        E 0 90 58 60
        E 0 90 60 60
        E 0 90 64 60
        E 120 80 18 00
        E 0 80 26 00
        E 0 80 40 00
        E 0 80 4c 00
        E 0 80 54 00
        E 0 80 58 00
        E 0 80 60 00
        E 0 80 64 00
        E 120 90 19 60
        E 240 80 19 00
        E 0 90 1a 60
        E 0 90 26 60
        E 0 90 3d 60
        E 0 90 40 60
        E 0 90 49 60
        E 0 90 4c 60
        E 0 90 55 60
        E 0 90 58 60
        E 0 90 61 60
        E 0 90 64 60
        E 120 80 1a 00
        E 0 80 26 00
        E 0 80 3d 00
        E 0 80 40 00
        E 0 80 49 00
        E 0 80 4c 00
        E 0 80 55 00
        E 0 80 58 00
        E 0 80 61 00
        E 0 80 64 00
        E 120 90 19 60
        E 240 80 19 00
        E 0 90 18 60
        E 0 90 26 60
        E 0 90 40 60
        E 0 90 4c 60
        E 0 90 54 60
        E 0 90 58 60
        E 0 90 60 60
        E 0 90 64 60
        E 120 80 18 00
        E 0 80 26 00
        E 0 80 40 00
        E 0 80 4c 00
        E 0 80 54 00
        E 0 80 58 00
        E 0 80 60 00
        E 0 80 64 00
        E 120 90 18 60
        E 0 90 19 60
        E 0 90 60 60
        E 120 80 18 00
        E 0 80 60 00
        E 120 80 19 00
        E 0 90 1a 60
        E 0 90 26 60
        E 0 90 3d 60
        E 0 90 40 60
        E 0 90 49 60
        E 0 90 4c 60
        E 0 90 55 60
        E 0 90 58 60
        E 0 90 61 60
        E 0 90 64 60
        E 120 80 1a 00
        E 0 80 26 00
        E 0 80 3d 00
        E 0 80 40 00
        E 0 80 49 00
        E 0 80 4c 00
        E 0 80 55 00
        E 0 80 58 00
        E 0 80 61 00
        E 0 80 64 00
        E 120 90 18 60
        E 0 90 19 60
        E 0 90 60 60
        E 120 80 18 00
        E 0 80 60 00
        E 120 80 19 00
        E 0 90 18 60
        E 0 90 26 60
        E 0 90 40 60
        E 0 90 4c 60
        E 0 90 54 60
        E 0 90 58 60
        E 0 90 60 60
        E 0 90 64 60
        E 120 80 18 00
        E 0 80 26 00
        E 0 80 40 00
        E 0 80 4c 00
        E 0 80 54 00
        E 0 80 58 00
        E 0 80 60 00
        E 0 80 64 00
        E 120 90 19 60
        E 240 80 19 00
        E 0 90 1a 60
        E 0 90 26 60
        E 0 90 3d 60
        E 0 90 40 60
        E 0 90 49 60
        E 0 90 4c 60
        E 0 90 55 60
        E 0 90 58 60
        E 0 90 61 60
        E 0 90 64 60
        E 120 80 1a 00
        E 0 80 26 00
        E 0 80 3d 00
        E 0 80 40 00
        E 0 80 49 00
        E 0 80 4c 00
        E 0 80 55 00
        E 0 80 58 00
        E 0 80 61 00
        E 0 80 64 00
        E 120 90 19 60
        E 240 80 19 00
        E 0 90 18 60
        E 0 90 26 60
        E 0 90 40 60
        E 0 90 48 60
        E 0 90 4c 60
        E 0 90 54 60
        E 0 90 58 60
        E 0 90 60 60
        E 0 90 64 60
        E 120 80 18 00
        E 0 80 26 00
        E 0 80 40 00
        E 0 80 48 00
        E 0 80 4c 00
        E 0 80 54 00
        E 0 80 58 00
        E 0 80 60 00
        E 0 80 64 00
        E 120 90 18 60
        E 0 90 19 60
        E 0 90 60 60
        E 120 80 18 00
        E 0 80 60 00
        E 120 80 19 00
        E 0 90 1a 60
        E 0 90 26 60
        E 0 90 3d 60
        E 0 90 40 60
        E 0 90 49 60
        E 0 90 4c 60
        E 0 90 55 60
        E 0 90 58 60
        E 0 90 61 60
        E 0 90 64 60
        E 120 80 1a 00
        E 0 80 26 00
        E 0 80 3d 00
        E 0 80 40 00
        E 0 80 49 00
        E 0 80 4c 00
        E 0 80 55 00
        E 0 80 58 00
        E 0 80 61 00
        E 0 80 64 00
        E 120 90 18 60
        E 0 90 19 60
        E 0 90 60 60
        E 120 80 18 00
        E 0 80 60 00
        E 120 80 19 00
        E 0 90 18 60
        E 0 90 26 60
        E 0 90 40 60
        E 0 90 4c 60
        E 0 90 54 60
        E 0 90 58 60
        E 0 90 60 60
        E 0 90 64 60
        E 120 80 18 00
        E 0 80 26 00
        E 0 80 40 00
        E 0 80 4c 00
        E 0 80 54 00
        E 0 80 58 00
        E 0 80 60 00
        E 0 80 64 00
        E 120 90 19 60
        E 240 80 19 00
        E 0 90 1a 60
        E 0 90 26 60
        E 0 90 3d 60
        E 0 90 40 60
        E 0 90 49 60
        E 0 90 4c 60
        E 0 90 55 60
        E 0 90 58 60
        E 0 90 61 60
        E 0 90 64 60
        E 120 80 1a 00
        E 0 80 26 00
        E 0 80 3d 00
        E 0 80 40 00
        E 0 80 49 00
        E 0 80 4c 00
        E 0 80 55 00
        E 0 80 58 00
        E 0 80 61 00
        E 0 80 64 00
        E 120 90 19 60
        E 240 80 19 00
        E 0 90 18 60
        E 0 90 26 60
        E 0 90 40 60
        E 0 90 4c 60
        E 0 90 54 60
        E 0 90 58 60
        E 0 90 60 60
        E 0 90 64 60
        E 0 90 78 60
        E 0 90 79 60
        E 0 90 7a 60
        E 0 90 7b 60
        E 0 90 7c 60
        E 120 80 18 00
        E 0 80 26 00
        E 0 80 40 00
        E 0 80 4c 00
        E 0 80 54 00
        E 0 80 58 00
        E 0 80 60 00
        E 0 80 64 00
        E 120 90 18 60
        E 0 90 19 60
        E 0 90 60 60
        E 120 80 18 00
        E 0 80 60 00
        E 120 80 19 00
        E 0 90 1a 60
        E 0 90 26 60
        E 0 90 3d 60
        E 0 90 40 60
        E 0 90 49 60
        E 0 90 4c 60
        E 0 90 55 60
        E 0 90 58 60
        E 0 90 61 60
        E 0 90 64 60
        E 120 80 1a 00
        E 0 80 26 00
        E 0 80 3d 00
        E 0 80 40 00
        E 0 80 49 00
        E 0 80 4c 00
        E 0 80 55 00
        E 0 80 58 00
        E 0 80 61 00
        E 0 80 64 00
        E 120 90 18 60
        E 0 90 19 60
        E 0 90 60 60
        E 120 80 18 00
        E 0 80 60 00
        E 120 80 19 00
        E 0 90 18 60
        E 0 90 26 60
        E 0 90 40 60
        E 0 90 4c 60
        E 0 90 54 60
        E 0 90 58 60
        E 0 90 60 60
        E 0 90 64 60
        E 120 80 18 00
        E 0 80 26 00
        E 0 80 40 00
        E 0 80 4c 00
        E 0 80 54 00
        E 0 80 58 00
        E 0 80 60 00
        E 0 80 64 00
        E 120 90 19 60
        E 240 80 19 00
        E 0 90 1a 60
        E 0 90 26 60
        E 0 90 3d 60
        E 0 90 40 60
        E 0 90 49 60
        E 0 90 4c 60
        E 0 90 55 60
        E 0 90 58 60
        E 0 90 61 60
        E 0 90 64 60
        E 120 80 1a 00
        E 0 80 26 00
        E 0 80 3d 00
        E 0 80 40 00
        E 0 80 49 00
        E 0 80 4c 00
        E 0 80 55 00
        E 0 80 58 00
        E 0 80 61 00
        E 0 80 64 00
        E 120 90 19 60
        E 240 80 78 00
        E 0 80 79 00
        E 0 80 7a 00
        E 0 80 7b 00
        E 0 80 7c 00
        E 0 80 19 00
        E 0 90 18 60
        E 0 90 26 60
        E 0 90 40 60
        E 0 90 48 60
        E 0 90 4c 60
        E 0 90 54 60
        E 0 90 58 60
        E 0 90 60 60
        E 0 90 64 60
        E 120 80 18 00
        E 0 80 26 00
        E 0 80 40 00
        E 0 80 48 00
        E 0 80 4c 00
        E 0 80 54 00
        E 0 80 58 00
        E 0 80 60 00
        E 0 80 64 00
        E 120 90 18 60
        E 0 90 19 60
        E 0 90 60 60
        E 120 80 18 00
        E 0 80 60 00
        E 120 80 19 00
        E 0 90 1a 60
        E 0 90 26 60
        E 0 90 3d 60
        E 0 90 40 60
        E 0 90 49 60
        E 0 90 4c 60
        E 0 90 55 60
        E 0 90 58 60
        E 0 90 61 60
        E 0 90 64 60
        E 120 80 1a 00
        E 0 80 26 00
        E 0 80 3d 00
        E 0 80 40 00
        E 0 80 49 00
        E 0 80 4c 00
        E 0 80 55 00
        E 0 80 58 00
        E 0 80 61 00
        E 0 80 64 00
        E 120 90 18 60
        E 0 90 19 60
        E 0 90 60 60
        E 120 80 18 00
        E 0 80 60 00
        E 120 80 19 00
        E 0 90 18 60
        E 0 90 26 60
        E 0 90 40 60
        E 0 90 4c 60
        E 0 90 54 60
        E 0 90 58 60
        E 0 90 60 60
        E 0 90 64 60
        E 120 80 18 00
        E 0 80 26 00
        E 0 80 40 00
        E 0 80 4c 00
        E 0 80 54 00
        E 0 80 58 00
        E 0 80 60 00
        E 0 80 64 00
        E 120 90 19 60
        E 240 80 19 00
        E 0 90 1a 60
        E 0 90 26 60
        E 0 90 3d 60
        E 0 90 40 60
        E 0 90 49 60
        E 0 90 4c 60
        E 0 90 55 60
        E 0 90 58 60
        E 0 90 61 60
        E 0 90 64 60
        E 120 80 1a 00
        E 0 80 26 00
        E 0 80 3d 00
        E 0 80 40 00
        E 0 80 49 00
        E 0 80 4c 00
        E 0 80 55 00
        E 0 80 58 00
        E 0 80 61 00
        E 0 80 64 00
        E 120 90 19 60
        E 240 80 19 00
        E 0 90 18 60
        E 0 90 26 60
        E 0 90 40 60
        E 0 90 4c 60
        E 0 90 54 60
        E 0 90 58 60
        E 0 90 60 60
        E 0 90 64 60
        E 0 90 74 60
        E 120 80 18 00
        E 0 80 26 00
        E 0 80 40 00
        E 0 80 4c 00
        E 0 80 54 00
        E 0 80 58 00
        E 0 80 60 00
        E 0 80 64 00
        E 120 90 18 60
        E 0 90 19 60
        E 0 90 60 60
        E 120 80 18 00
        E 0 80 60 00
        E 120 80 19 00
        E 0 90 1a 60
        E 0 90 26 60
        E 0 90 3d 60
        E 0 90 40 60
        E 0 90 49 60
        E 0 90 4c 60
        E 0 90 55 60
        E 0 90 58 60
        E 0 90 61 60
        E 0 90 64 60
        E 120 80 1a 00
        E 0 80 26 00
        E 0 80 3d 00
        E 0 80 40 00
        E 0 80 49 00
        E 0 80 4c 00
        E 0 80 55 00
        E 0 80 58 00
        E 0 80 61 00
        E 0 80 64 00
        E 120 90 18 60
        E 0 90 19 60
        E 0 90 60 60
        E 120 80 18 00
        E 0 80 60 00
        E 120 80 19 00
        E 0 90 18 60
        E 0 90 26 60
        E 0 90 40 60
        E 0 90 4c 60
        E 0 90 54 60
        E 0 90 58 60
        E 0 90 60 60
        E 0 90 64 60
        E 120 80 18 00
        E 0 80 26 00
        E 0 80 40 00
        E 0 80 4c 00
        E 0 80 54 00
        E 0 80 58 00
        E 0 80 60 00
        E 0 80 64 00
        E 120 90 19 60
        E 240 80 19 00
        E 0 90 1a 60
        E 0 90 26 60
        E 0 90 3d 60
        E 0 90 40 60
        E 0 90 49 60
        E 0 90 4c 60
        E 0 90 55 60
        E 0 90 58 60
        E 0 90 61 60
        E 0 90 64 60
        E 120 80 1a 00
        E 0 80 26 00
        E 0 80 3d 00
        E 0 80 40 00
        E 0 80 49 00
        E 0 80 4c 00
        E 0 80 55 00
        E 0 80 58 00
        E 0 80 61 00
        E 0 80 64 00
        E 120 90 19 60
        E 240 80 74 00
        E 0 80 19 00
        E 0 90 18 60
        E 0 90 26 60
        E 0 90 40 60
        E 0 90 48 60
        E 0 90 4c 60
        E 0 90 54 60
        E 0 90 58 60
        E 0 90 60 60
        E 0 90 64 60
        E 120 80 18 00
        E 0 80 26 00
        E 0 80 40 00
        E 0 80 48 00
        E 0 80 4c 00
        E 0 80 54 00
        E 0 80 58 00
        E 0 80 60 00
        E 0 80 64 00
        E 120 90 18 60
        E 0 90 19 60
        E 0 90 60 60
        E 120 80 18 00
        E 0 80 60 00
        E 120 80 19 00
        E 0 90 1a 60
        E 0 90 26 60
        E 0 90 3d 60
        E 0 90 40 60
        E 0 90 49 60
        E 0 90 4c 60
        E 0 90 55 60
        E 0 90 58 60
        E 0 90 61 60
        E 0 90 64 60
        E 120 80 1a 00
        E 0 80 26 00
        E 0 80 3d 00
        E 0 80 40 00
        E 0 80 49 00
        E 0 80 4c 00
        E 0 80 55 00
        E 0 80 58 00
        E 0 80 61 00
        E 0 80 64 00
        E 120 90 19 60
        E 240 80 19 00
        E 0 90 18 60
        E 0 90 26 60
        E 0 90 40 60
        E 0 90 4c 60
        E 0 90 54 60
        E 0 90 58 60
        E 0 90 60 60
        E 0 90 64 60
        E 120 80 18 00
        E 0 80 26 00
        E 0 80 40 00
        E 0 80 4c 00
        E 0 80 54 00
        E 0 80 58 00
        E 0 80 60 00
        E 0 80 64 00
        E 120 90 19 60
        E 240 80 19 00
        E 0 90 1a 60
        E 0 90 26 60
        E 0 90 3d 60
        E 0 90 40 60
        E 0 90 49 60
        E 0 90 4c 60
        E 0 90 55 60
        E 0 90 58 60
        E 0 90 61 60
        E 0 90 64 60
        E 120 80 1a 00
        E 0 80 26 00
        E 0 80 3d 00
        E 0 80 40 00
        E 0 80 49 00
        E 0 80 4c 00
        E 0 80 55 00
        E 0 80 58 00
        E 0 80 61 00
        E 0 80 64 00
        E 120 90 19 60
        E 240 80 19 00
        E 0 90 18 60
        E 0 90 26 60
        E 0 90 40 60
        E 0 90 4c 60
        E 0 90 54 60
        E 0 90 58 60
        E 0 90 60 60
        E 0 90 64 60
        E 0 90 78 60
        E 0 90 79 60
        E 0 90 7a 60
        E 0 90 7b 60
        E 0 90 7c 60
        E 120 80 18 00
        E 0 80 26 00
        E 0 80 40 00
        E 0 80 4c 00
        E 0 80 54 00
        E 0 80 58 00
        E 0 80 60 00
        E 0 80 64 00
        E 120 90 18 60
        E 0 90 19 60
        E 0 90 60 60
        E 120 80 18 00
        E 0 80 60 00
        E 120 80 19 00
        E 0 90 1a 60
        E 0 90 26 60
        E 0 90 3d 60
        E 0 90 40 60
        E 0 90 49 60
        E 0 90 4c 60
        E 0 90 55 60
        E 0 90 58 60
        E 0 90 61 60
        E 0 90 64 60
        E 120 80 1a 00
        E 0 80 26 00
        E 0 80 3d 00
        E 0 80 40 00
        E 0 80 49 00
        E 0 80 4c 00
        E 0 80 55 00
        E 0 80 58 00
        E 0 80 61 00
        E 0 80 64 00
        E 120 90 19 60
        E 240 80 19 00
        E 0 90 18 60
        E 0 90 26 60
        E 0 90 40 60
        E 0 90 4c 60
        E 0 90 54 60
        E 0 90 58 60
        E 0 90 60 60
        E 0 90 64 60
        E 120 80 18 00
        E 0 80 26 00
        E 0 80 40 00
        E 0 80 4c 00
        E 0 80 54 00
        E 0 80 58 00
        E 0 80 60 00
        E 0 80 64 00
        E 120 90 19 60
        E 0 90 1a 60
        E 0 90 55 60
        E 0 90 61 60
        E 120 80 1a 00
        E 0 80 55 00
        E 0 80 61 00
        E 120 80 19 00
        E 0 90 1a 60
        E 0 90 3d 60
        E 0 90 49 60
        E 0 90 55 60
        E 0 90 61 60
        E 120 80 1a 00
        E 0 80 3d 00
        E 0 80 49 00
        E 0 80 55 00
        E 0 80 61 00
        E 120 90 19 60
        E 0 90 1a 60
        E 0 90 55 60
        E 0 90 61 60
        E 120 80 1a 00
        E 0 80 55 00
        E 0 80 61 00
        E 120 80 78 00
        E 0 80 79 00
        E 0 80 7a 00
        E 0 80 7b 00
        E 0 80 7c 00
        E 0 80 19 00
        E 0 90 18 60
        E 0 90 26 60
        E 0 90 40 60
        E 0 90 48 60
        E 0 90 4c 60
        E 0 90 54 60
        E 0 90 58 60
        E 0 90 60 60
        E 0 90 64 60
        E 120 80 18 00
        E 0 80 26 00
        E 0 80 40 00
        E 0 80 48 00
        E 0 80 4c 00
        E 0 80 54 00
        E 0 80 58 00
        E 0 80 60 00
        E 0 80 64 00
        E 120 90 19 60
        E 240 80 19 00
        E 0 90 1a 60
        E 0 90 26 60
        E 0 90 3d 60
        E 0 90 40 60
        E 0 90 49 60
        E 0 90 4c 60
        E 0 90 55 60
        E 0 90 58 60
        E 0 90 61 60
        E 0 90 64 60
        E 120 80 1a 00
        E 0 80 26 00
        E 0 80 3d 00
        E 0 80 40 00
        E 0 80 49 00
        E 0 80 4c 00
        E 0 80 55 00
        E 0 80 58 00
        E 0 80 61 00
        E 0 80 64 00
        E 120 90 19 60
        E 240 80 19 00
        E 0 90 18 60
        E 0 90 26 60
        E 0 90 40 60
        E 0 90 4c 60
        E 0 90 54 60
        E 0 90 58 60
        E 0 90 60 60
        E 0 90 64 60
        E 120 80 18 00
        E 0 80 26 00
        E 0 80 40 00
        E 0 80 4c 00
        E 0 80 54 00
        E 0 80 58 00
        E 0 80 60 00
        E 0 80 64 00
        E 120 90 18 60
        E 0 90 19 60
        E 0 90 60 60
        E 120 80 18 00
        E 0 80 60 00
        E 120 80 19 00
        E 0 90 1a 60
        E 0 90 26 60
        E 0 90 3d 60
        E 0 90 40 60
        E 0 90 49 60
        E 0 90 4c 60
        E 0 90 55 60
        E 0 90 58 60
        E 0 90 61 60
        E 0 90 64 60
        E 120 80 1a 00
        E 0 80 26 00
        E 0 80 3d 00
        E 0 80 40 00
        E 0 80 49 00
        E 0 80 4c 00
        E 0 80 55 00
        E 0 80 58 00
        E 0 80 61 00
        E 0 80 64 00
        E 120 90 19 60
        E 240 80 19 00
        E 0 90 18 60
        E 0 90 26 60
        E 0 90 40 60
        E 0 90 4c 60
        E 0 90 54 60
        E 0 90 58 60
        E 0 90 60 60
        E 0 90 64 60
        E 120 80 18 00
        E 0 80 26 00
        E 0 80 40 00
        E 0 80 4c 00
        E 0 80 54 00
        E 0 80 58 00
        E 0 80 60 00
        E 0 80 64 00
        E 120 90 19 60
        E 240 80 19 00
        E 0 90 1a 60
        E 0 90 26 60
        E 0 90 3d 60
        E 0 90 40 60
        E 0 90 49 60
        E 0 90 4c 60
        E 0 90 55 60
        E 0 90 58 60
        E 0 90 61 60
        E 0 90 64 60
        E 120 80 1a 00
        E 0 80 26 00
        E 0 80 3d 00
        E 0 80 40 00
        E 0 80 49 00
        E 0 80 4c 00
        E 0 80 55 00
        E 0 80 58 00
        E 0 80 61 00
        E 0 80 64 00
        E 120 90 19 60
        E 240 80 19 00
        E 0 90 18 60
        E 0 90 26 60
        E 0 90 40 60
        E 0 90 4c 60
        E 0 90 54 60
        E 0 90 58 60
        E 0 90 60 60
        E 0 90 64 60
        E 120 80 18 00
        E 0 80 26 00
        E 0 80 40 00
        E 0 80 4c 00
        E 0 80 54 00
        E 0 80 58 00
        E 0 80 60 00
        E 0 80 64 00
        E 120 90 19 60
        E 240 80 19 00
        E 0 90 1a 60
        E 0 90 26 60
        E 0 90 3d 60
        E 0 90 40 60
        E 0 90 49 60
        E 0 90 4c 60
        E 0 90 55 60
        E 0 90 58 60
        E 0 90 61 60
        E 0 90 64 60
        E 120 80 1a 00
        E 0 80 26 00
        E 0 80 3d 00
        E 0 80 40 00
        E 0 80 49 00
        E 0 80 4c 00
        E 0 80 55 00
        E 0 80 58 00
        E 0 80 61 00
        E 0 80 64 00
        E 120 90 19 60
        E 240 80 19 00
        E 0 90 18 60
        E 0 90 26 60
        E 0 90 40 60
        E 0 90 48 60
        E 0 90 4c 60
        E 0 90 54 60
        E 0 90 58 60
        E 0 90 60 60
        E 0 90 64 60
        E 120 80 18 00
        E 0 80 26 00
        E 0 80 40 00
        E 0 80 48 00
        E 0 80 4c 00
        E 0 80 54 00
        E 0 80 58 00
        E 0 80 60 00
        E 0 80 64 00
        E 120 90 19 60
        E 240 80 19 00
        E 0 90 1a 60
        E 0 90 26 60
        E 0 90 3d 60
        E 0 90 40 60
        E 0 90 49 60
        E 0 90 4c 60
        E 0 90 55 60
        E 0 90 58 60
        E 0 90 61 60
        E 0 90 64 60
        E 120 80 1a 00
        E 0 80 26 00
        E 0 80 3d 00
        E 0 80 40 00
        E 0 80 49 00
        E 0 80 4c 00
        E 0 80 55 00
        E 0 80 58 00
        E 0 80 61 00
        E 0 80 64 00
        E 120 90 19 60
        E 240 80 19 00
        E 0 90 18 60
        E 0 90 26 60
        E 0 90 40 60
        E 0 90 4c 60
        E 0 90 54 60
        E 0 90 58 60
        E 0 90 60 60
        E 0 90 64 60
        E 120 80 18 00
        E 0 80 26 00
        E 0 80 40 00
        E 0 80 4c 00
        E 0 80 54 00
        E 0 80 58 00
        E 0 80 60 00
        E 0 80 64 00
        E 120 90 18 60
        E 0 90 19 60
        E 0 90 60 60
        E 120 80 18 00
        E 0 80 60 00
        E 120 80 19 00
        E 0 90 1a 60
        E 0 90 26 60
        E 0 90 3d 60
        E 0 90 40 60
        E 0 90 49 60
        E 0 90 4c 60
        E 0 90 55 60
        E 0 90 58 60
        E 0 90 61 60
        E 0 90 64 60
        E 120 80 1a 00
        E 0 80 26 00
        E 0 80 3d 00
        E 0 80 40 00
        E 0 80 49 00
        E 0 80 4c 00
        E 0 80 55 00
        E 0 80 58 00
        E 0 80 61 00
        E 0 80 64 00
        E 120 90 19 60
        E 240 80 19 00
        E 0 90 18 60
        E 0 90 26 60
        E 0 90 40 60
        E 0 90 4c 60
        E 0 90 54 60
        E 0 90 58 60
        E 0 90 60 60
        E 0 90 64 60
        E 120 80 18 00
        E 0 80 26 00
        E 0 80 40 00
        E 0 80 4c 00
        E 0 80 54 00
        E 0 80 58 00
        E 0 80 60 00
        E 0 80 64 00
        E 120 90 19 60
        E 240 80 19 00
        E 0 90 1a 60
        E 0 90 26 60
        E 0 90 3d 60
        E 0 90 40 60
        E 0 90 49 60
        E 0 90 4c 60
        E 0 90 55 60
        E 0 90 58 60
        E 0 90 61 60
        E 0 90 64 60
        E 120 80 1a 00
        E 0 80 26 00
        E 0 80 3d 00
        E 0 80 40 00
        E 0 80 49 00
        E 0 80 4c 00
        E 0 80 55 00
        E 0 80 58 00
        E 0 80 61 00
        E 0 80 64 00
        E 120 90 19 60
        E 240 80 19 00
        E 0 90 18 60
        E 0 90 26 60
        E 0 90 40 60
        E 0 90 4c 60
        E 0 90 54 60
        E 0 90 58 60
        E 0 90 60 60
        E 0 90 64 60
        E 120 80 18 00
        E 0 80 26 00
        E 0 80 40 00
        E 0 80 4c 00
        E 0 80 54 00
        E 0 80 58 00
        E 0 80 60 00
        E 0 80 64 00
        E 120 90 18 60
        E 0 90 19 60
        E 0 90 60 60
        E 120 80 18 00
        E 0 80 60 00
        E 120 80 19 00
        E 0 90 1a 60
        E 0 90 26 60
        E 0 90 3d 60
        E 0 90 40 60
        E 0 90 49 60
        E 0 90 4c 60
        E 0 90 55 60
        E 0 90 58 60
        E 0 90 61 60
        E 0 90 64 60
        E 120 80 1a 00
        E 0 80 26 00
        E 0 80 3d 00
        E 0 80 40 00
        E 0 80 49 00
        E 0 80 4c 00
        E 0 80 55 00
        E 0 80 58 00
        E 0 80 61 00
        E 0 80 64 00
        E 120 90 19 60
        E 240 80 19 00
        E 0 90 18 60
        E 0 90 26 60
        E 0 90 40 60
        E 0 90 48 60
        E 0 90 4c 60
        E 0 90 54 60
        E 0 90 58 60
        E 0 90 60 60
        E 0 90 64 60
        E 120 80 18 00
        E 0 80 26 00
        E 0 80 40 00
        E 0 80 48 00
        E 0 80 4c 00
        E 0 80 54 00
        E 0 80 58 00
        E 0 80 60 00
        E 0 80 64 00
        E 120 90 19 60
        E 240 80 19 00
        E 0 90 1a 60
        E 0 90 26 60
        E 0 90 3d 60
        E 0 90 40 60
        E 0 90 49 60
        E 0 90 4c 60
        E 0 90 55 60
        E 0 90 58 60
        E 0 90 61 60
        E 0 90 64 60
        E 120 80 1a 00
        E 0 80 26 00
        E 0 80 3d 00
        E 0 80 40 00
        E 0 80 49 00
        E 0 80 4c 00
        E 0 80 55 00
        E 0 80 58 00
        E 0 80 61 00
        E 0 80 64 00
        E 120 90 19 60
        E 240 80 19 00
        E 0 90 18 60
        E 0 90 26 60
        E 0 90 40 60
        E 0 90 4c 60
        E 0 90 54 60
        E 0 90 58 60
        E 0 90 60 60
        E 0 90 64 60
        E 120 80 18 00
        E 0 80 26 00
        E 0 80 40 00
        E 0 80 4c 00
        E 0 80 54 00
        E 0 80 58 00
        E 0 80 60 00
        E 0 80 64 00
        E 120 90 18 60
        E 0 90 19 60
        E 0 90 60 60
        E 120 80 18 00
        E 0 80 60 00
        E 120 80 19 00
        E 0 90 1a 60
        E 0 90 26 60
        E 0 90 3d 60
        E 0 90 40 60
        E 0 90 49 60
        E 0 90 4c 60
        E 0 90 55 60
        E 0 90 58 60
        E 0 90 61 60
        E 0 90 64 60
        E 120 80 1a 00
        E 0 80 26 00
        E 0 80 3d 00
        E 0 80 40 00
        E 0 80 49 00
        E 0 80 4c 00
        E 0 80 55 00
        E 0 80 58 00
        E 0 80 61 00
        E 0 80 64 00
        E 120 90 19 60
        E 240 80 19 00
        E 0 90 18 60
        E 0 90 26 60
        E 0 90 40 60
        E 0 90 4c 60
        E 0 90 54 60
        E 0 90 58 60
        E 0 90 60 60
        E 0 90 64 60
        E 120 80 18 00
        E 0 80 26 00
        E 0 80 40 00
        E 0 80 4c 00
        E 0 80 54 00
        E 0 80 58 00
        E 0 80 60 00
        E 0 80 64 00
        E 120 90 19 60
        E 240 80 19 00
        E 0 90 1a 60
        E 0 90 26 60
        E 0 90 3d 60
        E 0 90 40 60
        E 0 90 49 60
        E 0 90 4c 60
        E 0 90 55 60
        E 0 90 58 60
        E 0 90 61 60
        E 0 90 64 60
        E 120 80 1a 00
        E 0 80 26 00
        E 0 80 3d 00
        E 0 80 40 00
        E 0 80 49 00
        E 0 80 4c 00
        E 0 80 55 00
        E 0 80 58 00
        E 0 80 61 00
        E 0 80 64 00
        E 120 90 19 60
        E 240 80 19 00
        E 0 90 18 60
        E 0 90 26 60
        E 0 90 40 60
        E 0 90 4c 60
        E 0 90 54 60
        E 0 90 58 60
        E 0 90 60 60
        E 0 90 64 60
        E 120 80 18 00
        E 0 80 26 00
        E 0 80 40 00
        E 0 80 4c 00
        E 0 80 54 00
        E 0 80 58 00
        E 0 80 60 00
        E 0 80 64 00
        E 120 90 18 60
        E 0 90 19 60
        E 0 90 60 60
        E 120 80 18 00
        E 0 80 60 00
        E 120 80 19 00
        E 0 90 1a 60
        E 0 90 26 60
        E 0 90 3d 60
        E 0 90 40 60
        E 0 90 49 60
        E 0 90 4c 60
        E 0 90 55 60
        E 0 90 58 60
        E 0 90 61 60
        E 0 90 64 60
        E 120 80 1a 00
        E 0 80 26 00
        E 0 80 3d 00
        E 0 80 40 00
        E 0 80 49 00
        E 0 80 4c 00
        E 0 80 55 00
        E 0 80 58 00
        E 0 80 61 00
        E 0 80 64 00
        E 120 90 19 60
        E 240 80 19 00
        E 0 90 18 60
        E 0 90 26 60
        E 0 90 40 60
        E 0 90 48 60
        E 0 90 4c 60
        E 0 90 54 60
        E 0 90 58 60
        E 0 90 60 60
        E 0 90 64 60
        E 0 90 74 60
        E 120 80 18 00
        E 0 80 26 00
        E 0 80 40 00
        E 0 80 48 00
        E 0 80 4c 00
        E 0 80 54 00
        E 0 80 58 00
        E 0 80 60 00
        E 0 80 64 00
        E 120 90 19 60
        E 240 80 19 00
        E 0 90 1a 60
        E 0 90 26 60
        E 0 90 3d 60
        E 0 90 40 60
        E 0 90 49 60
        E 0 90 4c 60
        E 0 90 55 60
        E 0 90 58 60
        E 0 90 61 60
        E 0 90 64 60
        E 120 80 1a 00
        E 0 80 26 00
        E 0 80 3d 00
        E 0 80 40 00
        E 0 80 49 00
        E 0 80 4c 00
        E 0 80 55 00
        E 0 80 58 00
        E 0 80 61 00
        E 0 80 64 00
        E 120 90 19 60
        E 240 80 19 00
        E 0 90 18 60
        E 0 90 26 60
        E 0 90 40 60
        E 0 90 4c 60
        E 0 90 54 60
        E 0 90 58 60
        E 0 90 60 60
        E 0 90 64 60
        E 120 80 18 00
        E 0 80 26 00
        E 0 80 40 00
        E 0 80 4c 00
        E 0 80 54 00
        E 0 80 58 00
        E 0 80 60 00
        E 0 80 64 00
        E 120 90 18 60
        E 0 90 19 60
        E 0 90 60 60
        E 120 80 18 00
        E 0 80 60 00
        E 120 80 19 00
        E 0 90 1a 60
        E 0 90 26 60
        E 0 90 3d 60
        E 0 90 40 60
        E 0 90 49 60
        E 0 90 4c 60
        E 0 90 55 60
        E 0 90 58 60
        E 0 90 61 60
        E 0 90 64 60
        E 120 80 1a 00
        E 0 80 26 00
        E 0 80 3d 00
        E 0 80 40 00
        E 0 80 49 00
        E 0 80 4c 00
        E 0 80 55 00
        E 0 80 58 00
        E 0 80 61 00
        E 0 80 64 00
        E 120 90 19 60
        E 240 80 19 00
        E 0 90 18 60
        E 0 90 26 60
        E 0 90 40 60
        E 0 90 4c 60
        E 0 90 54 60
        E 0 90 58 60
        E 0 90 60 60
        E 0 90 64 60
        E 120 80 18 00
        E 0 80 26 00
        E 0 80 40 00
        E 0 80 4c 00
        E 0 80 54 00
        E 0 80 58 00
        E 0 80 60 00
        E 0 80 64 00
        E 120 90 19 60
        E 240 80 19 00
        E 0 90 1a 60
        E 0 90 26 60
        E 0 90 3d 60
        E 0 90 40 60
        E 0 90 49 60
        E 0 90 4c 60
        E 0 90 55 60
        E 0 90 58 60
        E 0 90 61 60
        E 0 90 64 60
        E 120 80 1a 00
        E 0 80 26 00
        E 0 80 3d 00
        E 0 80 40 00
        E 0 80 49 00
        E 0 80 4c 00
        E 0 80 55 00
        E 0 80 58 00
        E 0 80 61 00
        E 0 80 64 00
        E 120 90 19 60
        E 240 80 19 00
        E 0 90 18 60
        E 0 90 26 60
        E 0 90 40 60
        E 0 90 4c 60
        E 0 90 54 60
        E 0 90 58 60
        E 0 90 60 60
        E 0 90 64 60
        E 120 80 18 00
        E 0 80 26 00
        E 0 80 40 00
        E 0 80 4c 00
        E 0 80 54 00
        E 0 80 58 00
        E 0 80 60 00
        E 0 80 64 00
        E 120 90 18 60
        E 0 90 19 60
        E 0 90 60 60
        E 120 80 18 00
        E 0 80 60 00
        E 120 80 19 00
        E 0 90 1a 60
        E 0 90 26 60
        E 0 90 3d 60
        E 0 90 40 60
        E 0 90 49 60
        E 0 90 4c 60
        E 0 90 55 60
        E 0 90 58 60
        E 0 90 61 60
        E 0 90 64 60
        E 120 80 1a 00
        E 0 80 26 00
        E 0 80 3d 00
        E 0 80 40 00
        E 0 80 49 00
        E 0 80 4c 00
        E 0 80 55 00
        E 0 80 58 00
        E 0 80 61 00
        E 0 80 64 00
        E 120 90 19 60
        E 240 80 74 00
        E 0 80 19 00
        E 0 90 18 60
        E 0 90 26 60
        E 0 90 40 60
        E 0 90 48 60
        E 0 90 4c 60
        E 0 90 54 60
        E 0 90 58 60
        E 0 90 60 60
        E 0 90 64 60
        E 120 80 18 00
        E 0 80 26 00
        E 0 80 40 00
        E 0 80 48 00
        E 0 80 4c 00
        E 0 80 54 00
        E 0 80 58 00
        E 0 80 60 00
        E 0 80 64 00
        E 120 90 19 60
        E 240 80 19 00
        E 0 90 1a 60
        E 0 90 26 60
        E 0 90 3d 60
        E 0 90 40 60
        E 0 90 49 60
        E 0 90 4c 60
        E 0 90 55 60
        E 0 90 58 60
        E 0 90 61 60
        E 0 90 64 60
        E 120 80 1a 00
        E 0 80 26 00
        E 0 80 3d 00
        E 0 80 40 00
        E 0 80 49 00
        E 0 80 4c 00
        E 0 80 55 00
        E 0 80 58 00
        E 0 80 61 00
        E 0 80 64 00
        E 120 90 19 60
        E 240 80 19 00
        E 0 90 18 60
        E 0 90 26 60
        E 0 90 40 60
        E 0 90 4c 60
        E 0 90 54 60
        E 0 90 58 60
        E 0 90 60 60
        E 0 90 64 60
        E 120 80 18 00
        E 0 80 26 00
        E 0 80 40 00
        E 0 80 4c 00
        E 0 80 54 00
        E 0 80 58 00
        E 0 80 60 00
        E 0 80 64 00
        E 120 90 18 60
        E 0 90 19 60
        E 0 90 60 60
        E 120 80 18 00
        E 0 80 60 00
        E 120 80 19 00
        E 0 90 1a 60
        E 0 90 26 60
        E 0 90 3d 60
        E 0 90 40 60
        E 0 90 49 60
        E 0 90 4c 60
        E 0 90 55 60
        E 0 90 58 60
        E 0 90 61 60
        E 0 90 64 60
        E 120 80 1a 00
        E 0 80 26 00
        E 0 80 3d 00
        E 0 80 40 00
        E 0 80 49 00
        E 0 80 4c 00
        E 0 80 55 00
        E 0 80 58 00
        E 0 80 61 00
        E 0 80 64 00
        E 120 90 19 60
        E 240 80 19 00
        E 0 90 18 60
        E 0 90 26 60
        E 0 90 40 60
        E 0 90 4c 60
        E 0 90 54 60
        E 0 90 58 60
        E 0 90 60 60
        E 0 90 64 60
        E 120 80 18 00
        E 0 80 26 00
        E 0 80 40 00
        E 0 80 4c 00
        E 0 80 54 00
        E 0 80 58 00
        E 0 80 60 00
        E 0 80 64 00
        E 120 90 19 60
        E 240 80 19 00
        E 0 90 1a 60
        E 0 90 26 60
        E 0 90 3d 60
        E 0 90 40 60
        E 0 90 49 60
        E 0 90 4c 60
        E 0 90 55 60
        E 0 90 58 60
        E 0 90 61 60
        E 0 90 64 60
        E 120 80 1a 00
        E 0 80 26 00
        E 0 80 3d 00
        E 0 80 40 00
        E 0 80 49 00
        E 0 80 4c 00
        E 0 80 55 00
        E 0 80 58 00
        E 0 80 61 00
        E 0 80 64 00
        E 120 90 19 60
        E 240 80 19 00
        E 0 90 18 60
        E 0 90 26 60
        E 0 90 40 60
        E 0 90 4c 60
        E 0 90 54 60
        E 0 90 58 60
        E 0 90 60 60
        E 0 90 64 60
        E 120 80 18 00
        E 0 80 26 00
        E 0 80 40 00
        E 0 80 4c 00
        E 0 80 54 00
        E 0 80 58 00
        E 0 80 60 00
        E 0 80 64 00
        E 120 90 18 60
        E 0 90 19 60
        E 0 90 60 60
        E 120 80 18 00
        E 0 80 60 00
        E 120 80 19 00
        E 0 90 1a 60
        E 0 90 26 60
        E 0 90 3d 60
        E 0 90 40 60
        E 0 90 49 60
        E 0 90 4c 60
        E 0 90 55 60
        E 0 90 58 60
        E 0 90 61 60
        E 0 90 64 60
        E 120 80 1a 00
        E 0 80 26 00
        E 0 80 3d 00
        E 0 80 40 00
        E 0 80 49 00
        E 0 80 4c 00
        E 0 80 55 00
        E 0 80 58 00
        E 0 80 61 00
        E 0 80 64 00
        E 120 90 19 60
        E 240 80 19 00
        E 0 90 18 60
        E 0 90 26 60
        E 0 90 40 60
        E 0 90 48 60
        E 0 90 4c 60
        E 0 90 54 60
        E 0 90 58 60
        E 0 90 60 60
        E 0 90 64 60
        E 120 80 18 00
        E 0 80 26 00
        E 0 80 40 00
        E 0 80 48 00
        E 0 80 4c 00
        E 0 80 54 00
        E 0 80 58 00
        E 0 80 60 00
        E 0 80 64 00
        E 120 90 19 60
        E 240 80 19 00
        E 0 90 1a 60
        E 0 90 26 60
        E 0 90 3d 60
        E 0 90 40 60
        E 0 90 49 60
        E 0 90 4c 60
        E 0 90 55 60
        E 0 90 58 60
        E 0 90 61 60
        E 0 90 64 60
        E 120 80 1a 00
        E 0 80 26 00
        E 0 80 3d 00
        E 0 80 40 00
        E 0 80 49 00
        E 0 80 4c 00
        E 0 80 55 00
        E 0 80 58 00
        E 0 80 61 00
        E 0 80 64 00
        E 120 90 19 60
        E 240 80 19 00
        E 0 90 18 60
        E 0 90 26 60
        E 0 90 40 60
        E 0 90 4c 60
        E 0 90 54 60
        E 0 90 58 60
        E 0 90 60 60
        E 0 90 64 60
        E 120 80 18 00
        E 0 80 26 00
        E 0 80 40 00
        E 0 80 4c 00
        E 0 80 54 00
        E 0 80 58 00
        E 0 80 60 00
        E 0 80 64 00
        E 120 90 18 60
        E 0 90 19 60
        E 0 90 60 60
        E 120 80 18 00
        E 0 80 60 00
        E 120 80 19 00
        E 0 90 1a 60
        E 0 90 26 60
        E 0 90 3d 60
        E 0 90 40 60
        E 0 90 49 60
        E 0 90 4c 60
        E 0 90 55 60
        E 0 90 58 60
        E 0 90 61 60
        E 0 90 64 60
        E 120 80 1a 00
        E 0 80 26 00
        E 0 80 3d 00
        E 0 80 40 00
        E 0 80 49 00
        E 0 80 4c 00
        E 0 80 55 00
        E 0 80 58 00
        E 0 80 61 00
        E 0 80 64 00
        E 120 90 19 60
        E 240 80 19 00
        E 0 90 18 60
        E 0 90 26 60
        E 0 90 40 60
        E 0 90 4c 60
        E 0 90 54 60
        E 0 90 58 60
        E 0 90 60 60
        E 0 90 64 60
        E 120 80 18 00
        E 0 80 26 00
        E 0 80 40 00
        E 0 80 4c 00
        E 0 80 54 00
        E 0 80 58 00
        E 0 80 60 00
        E 0 80 64 00
        E 120 90 19 60
        E 240 80 19 00
        E 0 90 1a 60
        E 0 90 26 60
        E 0 90 3d 60
        E 0 90 40 60
        E 0 90 49 60
        E 0 90 4c 60
        E 0 90 55 60
        E 0 90 58 60
        E 0 90 61 60
        E 0 90 64 60
        E 120 80 1a 00
        E 0 80 26 00
        E 0 80 3d 00
        E 0 80 40 00
        E 0 80 49 00
        E 0 80 4c 00
        E 0 80 55 00
        E 0 80 58 00
        E 0 80 61 00
        E 0 80 64 00
        E 120 90 19 60
        E 240 80 19 00
        E 0 90 18 60
        E 0 90 26 60
        E 0 90 40 60
        E 0 90 4c 60
        E 0 90 54 60
        E 0 90 58 60
        E 0 90 60 60
        E 0 90 64 60
        E 120 80 18 00
        E 0 80 26 00
        E 0 80 40 00
        E 0 80 4c 00
        E 0 80 54 00
        E 0 80 58 00
        E 0 80 60 00
        E 0 80 64 00
        E 120 90 18 60
        E 0 90 19 60
        E 0 90 60 60
        E 120 80 18 00
        E 0 80 60 00
        E 120 80 19 00
        E 0 90 1a 60
        E 0 90 26 60
        E 0 90 3d 60
        E 0 90 40 60
        E 0 90 49 60
        E 0 90 4c 60
        E 0 90 55 60
        E 0 90 58 60
        E 0 90 61 60
        E 0 90 64 60
        E 120 80 1a 00
        E 0 80 26 00
        E 0 80 3d 00
        E 0 80 40 00
        E 0 80 49 00
        E 0 80 4c 00
        E 0 80 55 00
        E 0 80 58 00
        E 0 80 61 00
        E 0 80 64 00
        E 120 90 19 60
        E 240 80 19 00
        E 0 90 18 60
        E 0 90 26 60
        E 0 90 40 60
        E 0 90 48 60
        E 0 90 4c 60
        E 0 90 54 60
        E 0 90 58 60
        E 0 90 60 60
        E 0 90 64 60
        E 120 80 18 00
        E 0 80 26 00
        E 0 80 40 00
        E 0 80 48 00
        E 0 80 4c 00
        E 0 80 54 00
        E 0 80 58 00
        E 0 80 60 00
        E 0 80 64 00
        E 120 90 19 60
        E 240 80 19 00
        E 0 90 1a 60
        E 0 90 26 60
        E 0 90 3d 60
        E 0 90 40 60
        E 0 90 49 60
        E 0 90 4c 60
        E 0 90 55 60
        E 0 90 58 60
        E 0 90 61 60
        E 0 90 64 60
        E 120 80 1a 00
        E 0 80 26 00
        E 0 80 3d 00
        E 0 80 40 00
        E 0 80 49 00
        E 0 80 4c 00
        E 0 80 55 00
        E 0 80 58 00
        E 0 80 61 00
        E 0 80 64 00
        E 120 90 19 60
        E 240 80 19 00
        E 0 90 18 60
        E 0 90 26 60
        E 0 90 40 60
        E 0 90 4c 60
        E 0 90 54 60
        E 0 90 58 60
        E 0 90 60 60
        E 0 90 64 60
        E 120 80 18 00
        E 0 80 26 00
        E 0 80 40 00
        E 0 80 4c 00
        E 0 80 54 00
        E 0 80 58 00
        E 0 80 60 00
        E 0 80 64 00
        E 120 90 18 60
        E 0 90 19 60
        E 0 90 60 60
        E 120 80 18 00
        E 0 80 60 00
        E 120 80 19 00
        E 0 90 1a 60
        E 0 90 26 60
        E 0 90 3d 60
        E 0 90 40 60
        E 0 90 49 60
        E 0 90 4c 60
        E 0 90 55 60
        E 0 90 58 60
        E 0 90 61 60
        E 0 90 64 60
        E 120 80 1a 00
        E 0 80 26 00
        E 0 80 3d 00
        E 0 80 40 00
        E 0 80 49 00
        E 0 80 4c 00
        E 0 80 55 00
        E 0 80 58 00
        E 0 80 61 00
        E 0 80 64 00
        E 120 90 19 60
        E 240 80 19 00
        E 0 90 18 60
        E 0 90 26 60
        E 0 90 40 60
        E 0 90 4c 60
        E 0 90 54 60
        E 0 90 58 60
        E 0 90 60 60
        E 0 90 64 60
        E 0 90 74 60
        E 120 80 18 00
        E 0 80 26 00
        E 0 80 40 00
        E 0 80 4c 00
        E 0 80 54 00
        E 0 80 58 00
        E 0 80 60 00
        E 0 80 64 00
        E 120 90 19 60
        E 240 80 19 00
        E 0 90 1a 60
        E 0 90 26 60
        E 0 90 3d 60
        E 0 90 40 60
        E 0 90 49 60
        E 0 90 4c 60
        E 0 90 55 60
        E 0 90 58 60
        E 0 90 61 60
        E 0 90 64 60
        E 120 80 1a 00
        E 0 80 26 00
        E 0 80 3d 00
        E 0 80 40 00
        E 0 80 49 00
        E 0 80 4c 00
        E 0 80 55 00
        E 0 80 58 00
        E 0 80 61 00
        E 0 80 64 00
        E 120 90 19 60
        E 240 80 19 00
        E 0 90 18 60
        E 0 90 2f 60
        E 0 90 3e 60
        E 0 90 4a 60
        E 0 90 54 60
        E 0 90 56 60
        E 0 90 60 60
        E 0 90 62 60
        E 0 90 6e 60
        E 120 80 18 00
        E 0 80 2f 00
        E 0 80 3e 00
        E 0 80 4a 00
        E 0 80 54 00
        E 0 80 56 00
        E 0 80 60 00
        E 0 80 62 00
        E 0 90 2e 60
        E 0 90 62 60
        E 120 80 2e 00
        E 0 80 62 00
        E 0 90 19 60
        E 0 90 2f 60
        E 0 90 56 60
        E 0 90 62 60
        E 120 80 2f 00
        E 0 80 56 00
        E 0 80 62 00
        E 0 90 2e 60
        E 0 90 62 60
        E 120 80 6e 00
        E 0 80 19 00
        E 0 80 2e 00
        E 0 80 62 00
        E 0 90 31 60
        E 0 90 3f 60
        E 0 90 4b 60
        E 0 90 57 60
        E 0 90 63 60
        E 0 90 6f 60
        E 120 80 31 00
        E 0 80 3f 00
        E 0 80 4b 00
        E 0 80 57 00
        E 0 80 63 00
        E 0 90 30 60
        E 0 90 63 60
        E 120 80 30 00
        E 0 80 63 00
        E 0 90 19 60
        E 0 90 31 60
        E 0 90 57 60
        E 0 90 63 60
        E 120 80 31 00
        E 0 80 57 00
        E 0 80 63 00
        E 0 90 30 60
        E 0 90 63 60
        E 120 80 6f 00
        E 0 80 19 00
        E 0 80 30 00
        E 0 80 63 00
        E 0 90 18 60
        E 0 90 26 60
        E 0 90 40 60
        E 0 90 48 60
        E 0 90 4c 60
        E 0 90 54 60
        E 0 90 58 60
        E 0 90 60 60
        E 0 90 64 60
        E 120 80 74 00
        E 0 80 18 00
        E 0 80 26 00
        E 0 80 40 00
        E 0 80 48 00
        E 0 80 4c 00
        E 0 80 54 00
        E 0 80 58 00
        E 0 80 60 00
        E 0 80 64 00
        E 120 90 19 60
        E 240 80 19 00
        E 0 90 1a 60
        E 0 90 26 60
        E 0 90 3d 60
        E 0 90 40 60
        E 0 90 49 60
        E 0 90 4c 60
        E 0 90 55 60
        E 0 90 58 60
        E 0 90 61 60
        E 0 90 64 60
        E 120 80 1a 00
        E 0 80 26 00
        E 0 80 3d 00
        E 0 80 40 00
        E 0 80 49 00
        E 0 80 4c 00
        E 0 80 55 00
        E 0 80 58 00
        E 0 80 61 00
        E 0 80 64 00
        E 120 90 19 60
        E 240 80 19 00
        E 0 90 18 60
        E 0 90 26 60
        E 0 90 40 60
        E 0 90 4c 60
        E 0 90 54 60
        E 0 90 58 60
        E 0 90 60 60
        E 0 90 64 60
        E 120 80 18 00
        E 0 80 26 00
        E 0 80 40 00
        E 0 80 4c 00
        E 0 80 54 00
        E 0 80 58 00
        E 0 80 60 00
        E 0 80 64 00
        E 120 90 18 60
        E 0 90 19 60
        E 0 90 60 60
        E 120 80 18 00
        E 0 80 60 00
        E 120 80 19 00
        E 0 90 1a 60
        E 0 90 26 60
        E 0 90 3d 60
        E 0 90 40 60
        E 0 90 49 60
        E 0 90 4c 60
        E 0 90 55 60
        E 0 90 58 60
        E 0 90 61 60
        E 0 90 64 60
        E 120 80 1a 00
        E 0 80 26 00
        E 0 80 3d 00
        E 0 80 40 00
        E 0 80 49 00
        E 0 80 4c 00
        E 0 80 55 00
        E 0 80 58 00
        E 0 80 61 00
        E 0 80 64 00
        E 120 90 19 60
        E 240 80 19 00
        E 0 90 18 60
        E 0 90 26 60
        E 0 90 40 60
        E 0 90 4c 60
        E 0 90 54 60
        E 0 90 58 60
        E 0 90 60 60
        E 0 90 64 60
        E 0 90 78 60
        E 0 90 79 60
        E 0 90 7a 60
        E 0 90 7b 60
        E 0 90 7c 60
        E 120 80 18 00
        E 0 80 26 00
        E 0 80 40 00
        E 0 80 4c 00
        E 0 80 54 00
        E 0 80 58 00
        E 0 80 60 00
        E 0 80 64 00
        E 120 90 19 60
        E 240 80 19 00
        E 0 90 1a 60
        E 0 90 26 60
        E 0 90 3d 60
        E 0 90 40 60
        E 0 90 49 60
        E 0 90 4c 60
        E 0 90 55 60
        E 0 90 58 60
        E 0 90 61 60
        E 0 90 64 60
        E 120 80 1a 00
        E 0 80 26 00
        E 0 80 3d 00
        E 0 80 40 00
        E 0 80 49 00
        E 0 80 4c 00
        E 0 80 55 00
        E 0 80 58 00
        E 0 80 61 00
        E 0 80 64 00
        E 120 90 19 60
        E 240 80 19 00
        E 0 90 18 60
        E 0 90 26 60
        E 0 90 40 60
        E 0 90 4c 60
        E 0 90 54 60
        E 0 90 58 60
        E 0 90 60 60
        E 0 90 64 60
        E 120 80 18 00
        E 0 80 26 00
        E 0 80 40 00
        E 0 80 4c 00
        E 0 80 54 00
        E 0 80 58 00
        E 0 80 60 00
        E 0 80 64 00
        E 120 90 19 60
        E 240 80 19 00
        E 0 90 1a 60
        E 0 90 31 60
        E 0 90 3d 60
        E 0 90 3f 60
        E 0 90 49 60
        E 0 90 4c 60
        E 0 90 55 60
        E 0 90 57 60
        E 0 90 61 60
        E 0 90 63 60
        E 0 90 6f 60
        E 120 80 1a 00
        E 0 80 31 00
        E 0 80 3d 00
        E 0 80 3f 00
        E 0 80 49 00
        E 0 80 4c 00
        E 0 80 55 00
        E 0 80 57 00
        E 0 80 61 00
        E 0 80 63 00
        E 0 80 6f 00
        E 120 90 19 60
        E 240 80 78 00
        E 0 80 79 00
        E 0 80 7a 00
        E 0 80 7b 00
        E 0 80 7c 00
        E 0 80 19 00
        E 0 90 18 60
        E 0 90 26 60
        E 0 90 40 60
        E 0 90 48 60
        E 0 90 4c 60
        E 0 90 54 60
        E 0 90 58 60
        E 0 90 60 60
        E 0 90 64 60
        E 120 80 18 00
        E 0 80 26 00
        E 0 80 40 00
        E 0 80 48 00
        E 0 80 4c 00
        E 0 80 54 00
        E 0 80 58 00
        E 0 80 60 00
        E 0 80 64 00
        E 120 90 19 60
        E 240 80 19 00
        E 0 90 1a 60
        E 0 90 26 60
        E 0 90 3d 60
        E 0 90 40 60
        E 0 90 49 60
        E 0 90 4c 60
        E 0 90 55 60
        E 0 90 58 60
        E 0 90 61 60
        E 0 90 64 60
        E 120 80 1a 00
        E 0 80 26 00
        E 0 80 3d 00
        E 0 80 40 00
        E 0 80 49 00
        E 0 80 4c 00
        E 0 80 55 00
        E 0 80 58 00
        E 0 80 61 00
        E 0 80 64 00
        E 120 90 19 60
        E 240 80 19 00
        E 0 90 26 60
        E 0 90 40 60
        E 0 90 4c 60
        E 0 90 58 60
        E 0 90 64 60
        E 120 80 26 00
        E 0 80 40 00
        E 0 80 4c 00
        E 0 80 58 00
        E 0 80 64 00
        E 120 90 18 60
        E 0 90 19 60
        E 0 90 54 60
        E 0 90 60 60
        E 120 80 18 00
        E 0 80 54 00
        E 0 80 60 00
        E 120 80 19 00
        E 0 90 1a 60
        E 0 90 26 60
        E 0 90 3d 60
        E 0 90 40 60
        E 0 90 49 60
        E 0 90 4c 60
        E 0 90 55 60
        E 0 90 58 60
        E 0 90 61 60
        E 0 90 64 60
        E 120 80 1a 00
        E 0 80 26 00
        E 0 80 3d 00
        E 0 80 40 00
        E 0 80 49 00
        E 0 80 4c 00
        E 0 80 55 00
        E 0 80 58 00
        E 0 80 61 00
        E 0 80 64 00
        E 120 90 19 60
        E 240 80 19 00
        E 0 90 26 60
        E 0 90 40 60
        E 0 90 4c 60
        E 0 90 58 60
        E 0 90 64 60
        E 120 80 26 00
        E 0 80 40 00
        E 0 80 4c 00
        E 0 80 58 00
        E 0 80 64 00
        E 120 90 54 60
        E 0 90 18 60
        E 0 90 19 60
        E 0 90 60 60
        E 120 80 54 00
        E 0 80 18 00
        E 0 80 60 00
        E 120 80 19 00
        E 0 90 1a 60
        E 0 90 26 60
        E 0 90 3d 60
        E 0 90 40 60
        E 0 90 49 60
        E 0 90 4c 60
        E 0 90 55 60
        E 0 90 58 60
        E 0 90 61 60
        E 0 90 64 60
        E 120 80 1a 00
        E 0 80 26 00
        E 0 80 3d 00
        E 0 80 40 00
        E 0 80 49 00
        E 0 80 4c 00
        E 0 80 55 00
        E 0 80 58 00
        E 0 80 61 00
        E 0 80 64 00
        E 120 90 19 60
        E 240 80 19 00
        E 0 90 26 60
        E 0 90 40 60
        E 0 90 4c 60
        E 0 90 58 60
        E 0 90 64 60
        E 120 80 26 00
        E 0 80 40 00
        E 0 80 4c 00
        E 0 80 58 00
        E 0 80 64 00
        E 120 90 18 60
        E 0 90 19 60
        E 0 90 60 60
        E 120 80 18 00
        E 0 80 60 00
        E 120 80 19 00
        E 0 90 1a 60
        E 0 90 26 60
        E 0 90 3d 60
        E 0 90 40 60
        E 0 90 49 60
        E 0 90 4c 60
        E 0 90 55 60
        E 0 90 58 60
        E 0 90 61 60
        E 0 90 64 60
        E 120 80 1a 00
        E 0 80 26 00
        E 0 80 3d 00
        E 0 80 40 00
        E 0 80 49 00
        E 0 80 4c 00
        E 0 80 55 00
        E 0 80 58 00
        E 0 80 61 00
        E 0 80 64 00
        E 120 90 19 60
        E 240 80 19 00
        E 0 90 18 60
        E 0 90 26 60
        E 0 90 40 60
        E 0 90 48 60
        E 0 90 4c 60
        E 0 90 54 60
        E 0 90 58 60
        E 0 90 60 60
        E 0 90 64 60
        E 120 80 18 00
        E 0 80 26 00
        E 0 80 40 00
        E 0 80 48 00
        E 0 80 4c 00
        E 0 80 54 00
        E 0 80 58 00
        E 0 80 60 00
        E 0 80 64 00
        E 120 90 19 60
        E 240 80 19 00
        E 0 90 1a 60
        E 0 90 26 60
        E 0 90 3d 60
        E 0 90 40 60
        E 0 90 49 60
        E 0 90 4c 60
        E 0 90 55 60
        E 0 90 58 60
        E 0 90 61 60
        E 0 90 64 60
        E 120 80 1a 00
        E 0 80 26 00
        E 0 80 3d 00
        E 0 80 40 00
        E 0 80 49 00
        E 0 80 4c 00
        E 0 80 55 00
        E 0 80 58 00
        E 0 80 61 00
        E 0 80 64 00
        E 120 90 19 60
        E 240 80 19 00
        E 0 90 26 60
        E 0 90 40 60
        E 0 90 4c 60
        E 0 90 58 60
        E 0 90 64 60
        E 120 80 26 00
        E 0 80 40 00
        E 0 80 4c 00
        E 0 80 58 00
        E 0 80 64 00
        E 120 90 54 60
        E 0 90 18 60
        E 0 90 19 60
        E 0 90 60 60
        E 120 80 54 00
        E 0 80 18 00
        E 0 80 60 00
        E 0 90 18 60
        E 0 90 60 60
        E 120 80 19 00
        E 0 80 18 00
        E 0 80 60 00
        E 0 90 1a 60
        E 0 90 26 60
        E 0 90 3d 60
        E 0 90 40 60
        E 0 90 49 60
        E 0 90 4c 60
        E 0 90 55 60
        E 0 90 58 60
        E 0 90 61 60
        E 0 90 64 60
        E 120 80 1a 00
        E 0 80 26 00
        E 0 80 3d 00
        E 0 80 40 00
        E 0 80 49 00
        E 0 80 4c 00
        E 0 80 55 00
        E 0 80 58 00
        E 0 80 61 00
        E 0 80 64 00
        E 120 90 19 60
        E 240 80 19 00
        E 0 90 26 60
        E 0 90 40 60
        E 0 90 4c 60
        E 0 90 58 60
        E 0 90 64 60
        E 120 80 26 00
        E 0 80 40 00
        E 0 80 4c 00
        E 0 80 58 00
        E 0 80 64 00
        E 120 90 18 60
        E 0 90 19 60
        E 0 90 54 60
        E 0 90 60 60
        E 120 80 18 00
        E 0 80 54 00
        E 0 80 60 00
        E 0 90 18 60
        E 0 90 60 60
        E 120 80 19 00
        E 0 80 18 00
        E 0 80 60 00
        E 0 90 1a 60
        E 0 90 26 60
        E 0 90 3d 60
        E 0 90 40 60
        E 0 90 49 60
        E 0 90 4c 60
        E 0 90 55 60
        E 0 90 58 60
        E 0 90 61 60
        E 0 90 64 60
        E 120 80 1a 00
        E 0 80 26 00
        E 0 80 3d 00
        E 0 80 40 00
        E 0 80 49 00
        E 0 80 4c 00
        E 0 80 55 00
        E 0 80 58 00
        E 0 80 61 00
        E 0 80 64 00
        E 120 90 19 60
        E 240 80 19 00
        E 0 90 26 60
        E 0 90 40 60
        E 0 90 4c 60
        E 0 90 58 60
        E 0 90 64 60
        E 120 80 26 00
        E 0 80 40 00
        E 0 80 4c 00
        E 0 80 58 00
        E 0 80 64 00
        E 120 90 54 60
        E 0 90 18 60
        E 0 90 19 60
        E 0 90 60 60
        E 120 80 54 00
        E 0 80 18 00
        E 0 80 60 00
        E 0 90 18 60
        E 0 90 60 60
        E 120 80 19 00
        E 0 80 18 00
        E 0 80 60 00
        E 0 90 1a 60
        E 0 90 26 60
        E 0 90 3d 60
        E 0 90 40 60
        E 0 90 49 60
        E 0 90 4c 60
        E 0 90 55 60
        E 0 90 58 60
        E 0 90 61 60
        E 0 90 64 60
        E 120 80 1a 00
        E 0 80 26 00
        E 0 80 3d 00
        E 0 80 40 00
        E 0 80 49 00
        E 0 80 4c 00
        E 0 80 55 00
        E 0 80 58 00
        E 0 80 61 00
        E 0 80 64 00
        E 120 90 19 60
        E 240 80 19 00
        E 0 90 18 60
        E 0 90 26 60
        E 0 90 40 60
        E 0 90 48 60
        E 0 90 4c 60
        E 0 90 54 60
        E 0 90 58 60
        E 0 90 60 60
        E 0 90 64 60
        E 120 80 18 00
        E 0 80 26 00
        E 0 80 40 00
        E 0 80 48 00
        E 0 80 4c 00
        E 0 80 54 00
        E 0 80 58 00
        E 0 80 60 00
        E 0 80 64 00
        E 120 90 19 60
        E 240 80 19 00
        E 0 90 1a 60
        E 0 90 26 60
        E 0 90 3d 60
        E 0 90 40 60
        E 0 90 49 60
        E 0 90 4c 60
        E 0 90 55 60
        E 0 90 58 60
        E 0 90 61 60
        E 0 90 64 60
        E 120 80 1a 00
        E 0 80 26 00
        E 0 80 3d 00
        E 0 80 40 00
        E 0 80 49 00
        E 0 80 4c 00
        E 0 80 55 00
        E 0 80 58 00
        E 0 80 61 00
        E 0 80 64 00
        E 120 90 19 60
        E 240 80 19 00
        E 0 90 26 60
        E 0 90 40 60
        E 0 90 4c 60
        E 0 90 58 60
        E 0 90 64 60
        E 120 80 26 00
        E 0 80 40 00
        E 0 80 4c 00
        E 0 80 58 00
        E 0 80 64 00
        E 120 90 18 60
        E 0 90 19 60
        E 0 90 54 60
        E 0 90 60 60
        E 120 80 18 00
        E 0 80 54 00
        E 0 80 60 00
        E 120 80 19 00
        E 0 90 1a 60
        E 0 90 26 60
        E 0 90 3d 60
        E 0 90 40 60
        E 0 90 49 60
        E 0 90 4c 60
        E 0 90 55 60
        E 0 90 58 60
        E 0 90 61 60
        E 0 90 64 60
        E 120 80 1a 00
        E 0 80 26 00
        E 0 80 3d 00
        E 0 80 40 00
        E 0 80 49 00
        E 0 80 4c 00
        E 0 80 55 00
        E 0 80 58 00
        E 0 80 61 00
        E 0 80 64 00
        E 120 90 19 60
        E 240 80 19 00
        E 0 90 26 60
        E 0 90 40 60
        E 0 90 4c 60
        E 0 90 58 60
        E 0 90 64 60
        E 120 80 26 00
        E 0 80 40 00
        E 0 80 4c 00
        E 0 80 58 00
        E 0 80 64 00
        E 120 90 18 60
        E 0 90 19 60
        E 0 90 54 60
        E 0 90 60 60
        E 120 80 18 00
        E 0 80 54 00
        E 0 80 60 00
        E 120 80 19 00
        E 0 90 1a 60
        E 0 90 26 60
        E 0 90 3d 60
        E 0 90 40 60
        E 0 90 49 60
        E 0 90 4c 60
        E 0 90 55 60
        E 0 90 58 60
        E 0 90 61 60
        E 0 90 64 60
        E 120 80 1a 00
        E 0 80 26 00
        E 0 80 3d 00
        E 0 80 40 00
        E 0 80 49 00
        E 0 80 4c 00
        E 0 80 55 00
        E 0 80 58 00
        E 0 80 61 00
        E 0 80 64 00
        E 120 90 19 60
        E 240 80 19 00
        E 0 90 26 60
        E 0 90 40 60
        E 0 90 4c 60
        E 0 90 58 60
        E 0 90 64 60
        E 120 80 26 00
        E 0 80 40 00
        E 0 80 4c 00
        E 0 80 58 00
        E 0 80 64 00
        E 120 90 18 60
        E 0 90 19 60
        E 0 90 54 60
        E 0 90 60 60
        E 120 80 18 00
        E 0 80 54 00
        E 0 80 60 00
        E 120 80 19 00
        E 0 90 1a 60
        E 0 90 26 60
        E 0 90 3d 60
        E 0 90 40 60
        E 0 90 49 60
        E 0 90 4c 60
        E 0 90 55 60
        E 0 90 58 60
        E 0 90 61 60
        E 0 90 64 60
        E 120 80 1a 00
        E 0 80 26 00
        E 0 80 3d 00
        E 0 80 40 00
        E 0 80 49 00
        E 0 80 4c 00
        E 0 80 55 00
        E 0 80 58 00
        E 0 80 61 00
        E 0 80 64 00
        E 120 90 19 60
        E 240 80 19 00
        E 0 90 18 60
        E 0 90 26 60
        E 0 90 40 60
        E 0 90 48 60
        E 0 90 4c 60
        E 0 90 54 60
        E 0 90 58 60
        E 0 90 60 60
        E 0 90 64 60
        E 120 80 18 00
        E 0 80 26 00
        E 0 80 40 00
        E 0 80 48 00
        E 0 80 4c 00
        E 0 80 54 00
        E 0 80 58 00
        E 0 80 60 00
        E 0 80 64 00
        E 120 90 19 60
        E 240 80 19 00
        E 0 90 1a 60
        E 0 90 26 60
        E 0 90 3d 60
        E 0 90 40 60
        E 0 90 49 60
        E 0 90 4c 60
        E 0 90 55 60
        E 0 90 58 60
        E 0 90 61 60
        E 0 90 64 60
        E 120 80 1a 00
        E 0 80 26 00
        E 0 80 3d 00
        E 0 80 40 00
        E 0 80 49 00
        E 0 80 4c 00
        E 0 80 55 00
        E 0 80 58 00
        E 0 80 61 00
        E 0 80 64 00
        E 120 90 19 60
        E 240 80 19 00
        E 0 90 26 60
        E 0 90 40 60
        E 0 90 4c 60
        E 0 90 58 60
        E 0 90 64 60
        E 120 80 26 00
        E 0 80 40 00
        E 0 80 4c 00
        E 0 80 58 00
        E 0 80 64 00
        E 120 90 18 60
        E 0 90 19 60
        E 0 90 54 60
        E 0 90 60 60
        E 120 80 18 00
        E 0 80 54 00
        E 0 80 60 00
        E 0 90 18 60
        E 0 90 60 60
        E 120 80 19 00
        E 0 80 18 00
        E 0 80 60 00
        E 0 90 1a 60
        E 0 90 26 60
        E 0 90 3d 60
        E 0 90 40 60
        E 0 90 49 60
        E 0 90 4c 60
        E 0 90 55 60
        E 0 90 58 60
        E 0 90 61 60
        E 0 90 64 60
        E 120 80 1a 00
        E 0 80 26 00
        E 0 80 3d 00
        E 0 80 40 00
        E 0 80 49 00
        E 0 80 4c 00
        E 0 80 55 00
        E 0 80 58 00
        E 0 80 61 00
        E 0 80 64 00
        E 120 90 19 60
        E 240 80 19 00
        E 0 90 26 60
        E 0 90 40 60
        E 0 90 4c 60
        E 0 90 58 60
        E 0 90 64 60
        E 0 90 78 60
        E 0 90 79 60
        E 0 90 7a 60
        E 0 90 7b 60
        E 0 90 7c 60
        E 120 80 26 00
        E 0 80 40 00
        E 0 80 4c 00
        E 0 80 58 00
        E 0 80 64 00
        E 120 90 18 60
        E 0 90 19 60
        E 0 90 54 60
        E 0 90 60 60
        E 120 80 18 00
        E 0 80 54 00
        E 0 80 60 00
        E 0 90 18 60
        E 0 90 60 60
        E 120 80 19 00
        E 0 80 18 00
        E 0 80 60 00
        E 0 90 1a 60
        E 0 90 26 60
        E 0 90 3d 60
        E 0 90 40 60
        E 0 90 49 60
        E 0 90 4c 60
        E 0 90 55 60
        E 0 90 58 60
        E 0 90 61 60
        E 0 90 64 60
        E 120 80 1a 00
        E 0 80 26 00
        E 0 80 3d 00
        E 0 80 40 00
        E 0 80 49 00
        E 0 80 4c 00
        E 0 80 55 00
        E 0 80 58 00
        E 0 80 61 00
        E 0 80 64 00
        E 120 90 19 60
        E 240 80 19 00
        E 0 90 26 60
        E 0 90 40 60
        E 0 90 4c 60
        E 0 90 58 60
        E 0 90 64 60
        E 120 80 26 00
        E 0 80 40 00
        E 0 80 4c 00
        E 0 80 58 00
        E 0 80 64 00
        E 120 90 18 60
        E 0 90 19 60
        E 0 90 54 60
        E 0 90 60 60
        E 120 80 18 00
        E 0 80 54 00
        E 0 80 60 00
        E 0 90 18 60
        E 0 90 60 60
        E 120 80 19 00
        E 0 80 18 00
        E 0 80 60 00
        E 0 90 1a 60
        E 0 90 26 60
        E 0 90 3d 60
        E 0 90 40 60
        E 0 90 49 60
        E 0 90 4c 60
        E 0 90 55 60
        E 0 90 58 60
        E 0 90 61 60
        E 0 90 64 60
        E 120 80 1a 00
        E 0 80 26 00
        E 0 80 3d 00
        E 0 80 40 00
        E 0 80 49 00
        E 0 80 4c 00
        E 0 80 55 00
        E 0 80 58 00
        E 0 80 61 00
        E 0 80 64 00
        E 120 90 19 60
        E 240 80 78 00
        E 0 80 79 00
        E 0 80 7a 00
        E 0 80 7b 00
        E 0 80 7c 00
        E 0 80 19 00
        E 0 90 18 60
        E 0 90 26 60
        E 0 90 40 60
        E 0 90 48 60
        E 0 90 4c 60
        E 0 90 54 60
        E 0 90 58 60
        E 0 90 60 60
        E 0 90 64 60
        E 120 80 18 00
        E 0 80 26 00
        E 0 80 40 00
        E 0 80 48 00
        E 0 80 4c 00
        E 0 80 54 00
        E 0 80 58 00
        E 0 80 60 00
        E 0 80 64 00
        E 120 90 19 60
        E 240 80 19 00
        E 0 90 1a 60
        E 0 90 26 60
        E 0 90 3d 60
        E 0 90 40 60
        E 0 90 49 60
        E 0 90 4c 60
        E 0 90 55 60
        E 0 90 58 60
        E 0 90 61 60
        E 0 90 64 60
        E 120 80 1a 00
        E 0 80 26 00
        E 0 80 3d 00
        E 0 80 40 00
        E 0 80 49 00
        E 0 80 4c 00
        E 0 80 55 00
        E 0 80 58 00
        E 0 80 61 00
        E 0 80 64 00
        E 120 90 19 60
        E 240 80 19 00
        E 0 90 26 60
        E 0 90 40 60
        E 0 90 4c 60
        E 0 90 58 60
        E 0 90 64 60
        E 120 80 26 00
        E 0 80 40 00
        E 0 80 4c 00
        E 0 80 58 00
        E 0 80 64 00
        E 120 90 18 60
        E 0 90 19 60
        E 0 90 60 60
        E 0 90 54 60
        E 120 80 18 00
        E 0 80 60 00
        E 0 80 54 00
        E 120 80 19 00
        E 0 90 1a 60
        E 0 90 26 60
        E 0 90 3d 60
        E 0 90 40 60
        E 0 90 49 60
        E 0 90 4c 60
        E 0 90 55 60
        E 0 90 58 60
        E 0 90 61 60
        E 0 90 64 60
        E 120 80 1a 00
        E 0 80 26 00
        E 0 80 3d 00
        E 0 80 40 00
        E 0 80 49 00
        E 0 80 4c 00
        E 0 80 55 00
        E 0 80 58 00
        E 0 80 61 00
        E 0 80 64 00
        E 120 90 19 60
        E 240 80 19 00
        E 0 90 26 60
        E 0 90 40 60
        E 0 90 4c 60
        E 0 90 58 60
        E 0 90 64 60
        E 120 80 26 00
        E 0 80 40 00
        E 0 80 4c 00
        E 0 80 58 00
        E 0 80 64 00
        E 120 90 18 60
        E 0 90 19 60
        E 0 90 54 60
        E 0 90 60 60
        E 120 80 18 00
        E 0 80 54 00
        E 0 80 60 00
        E 120 80 19 00
        E 0 90 1a 60
        E 0 90 26 60
        E 0 90 3d 60
        E 0 90 40 60
        E 0 90 49 60
        E 0 90 4c 60
        E 0 90 55 60
        E 0 90 58 60
        E 0 90 61 60
        E 0 90 64 60
        E 120 80 1a 00
        E 0 80 26 00
        E 0 80 3d 00
        E 0 80 40 00
        E 0 80 49 00
        E 0 80 4c 00
        E 0 80 55 00
        E 0 80 58 00
        E 0 80 61 00
        E 0 80 64 00
        E 120 90 19 60
        E 240 80 19 00
        E 0 90 26 60
        E 0 90 40 60
        E 0 90 4c 60
        E 0 90 58 60
        E 0 90 64 60
        E 120 80 26 00
        E 0 80 40 00
        E 0 80 4c 00
        E 0 80 58 00
        E 0 80 64 00
        E 120 90 18 60
        E 0 90 19 60
        E 0 90 54 60
        E 0 90 60 60
        E 120 80 18 00
        E 0 80 54 00
        E 0 80 60 00
        E 120 80 19 00
        E 0 90 1a 60
        E 0 90 26 60
        E 0 90 3d 60
        E 0 90 40 60
        E 0 90 49 60
        E 0 90 4c 60
        E 0 90 55 60
        E 0 90 58 60
        E 0 90 61 60
        E 0 90 64 60
        E 120 80 1a 00
        E 0 80 26 00
        E 0 80 3d 00
        E 0 80 40 00
        E 0 80 49 00
        E 0 80 4c 00
        E 0 80 55 00
        E 0 80 58 00
        E 0 80 61 00
        E 0 80 64 00
        E 120 90 19 60
        E 240 80 19 00
        E 0 90 18 60
        E 0 90 26 60
        E 0 90 40 60
        E 0 90 48 60
        E 0 90 4c 60
        E 0 90 54 60
        E 0 90 58 60
        E 0 90 60 60
        E 0 90 64 60
        E 120 80 18 00
        E 0 80 26 00
        E 0 80 40 00
        E 0 80 48 00
        E 0 80 4c 00
        E 0 80 54 00
        E 0 80 58 00
        E 0 80 60 00
        E 0 80 64 00
        E 120 90 19 60
        E 240 80 19 00
        E 0 90 1a 60
        E 0 90 26 60
        E 0 90 3d 60
        E 0 90 40 60
        E 0 90 49 60
        E 0 90 4c 60
        E 0 90 55 60
        E 0 90 58 60
        E 0 90 61 60
        E 0 90 64 60
        E 120 80 1a 00
        E 0 80 26 00
        E 0 80 3d 00
        E 0 80 40 00
        E 0 80 49 00
        E 0 80 4c 00
        E 0 80 55 00
        E 0 80 58 00
        E 0 80 61 00
        E 0 80 64 00
        E 120 90 19 60
        E 240 80 19 00
        E 0 90 26 60
        E 0 90 40 60
        E 0 90 4c 60
        E 0 90 58 60
        E 0 90 64 60
        E 120 80 26 00
        E 0 80 40 00
        E 0 80 4c 00
        E 0 80 58 00
        E 0 80 64 00
        E 120 90 18 60
        E 0 90 19 60
        E 0 90 54 60
        E 0 90 60 60
        E 120 80 18 00
        E 0 80 54 00
        E 0 80 60 00
        E 0 90 18 60
        E 0 90 60 60
        E 120 80 19 00
        E 0 80 18 00
        E 0 80 60 00
        E 0 90 1a 60
        E 0 90 26 60
        E 0 90 3d 60
        E 0 90 40 60
        E 0 90 49 60
        E 0 90 4c 60
        E 0 90 55 60
        E 0 90 58 60
        E 0 90 61 60
        E 0 90 64 60
        E 120 80 1a 00
        E 0 80 26 00
        E 0 80 3d 00
        E 0 80 40 00
        E 0 80 49 00
        E 0 80 4c 00
        E 0 80 55 00
        E 0 80 58 00
        E 0 80 61 00
        E 0 80 64 00
        E 120 90 19 60
        E 240 80 19 00
        E 0 90 26 60
        E 0 90 40 60
        E 0 90 4c 60
        E 0 90 58 60
        E 0 90 64 60
        E 120 80 26 00
        E 0 80 40 00
        E 0 80 4c 00
        E 0 80 58 00
        E 0 80 64 00
        E 120 90 18 60
        E 0 90 19 60
        E 0 90 54 60
        E 0 90 60 60
        E 120 80 18 00
        E 0 80 54 00
        E 0 80 60 00
        E 0 90 18 60
        E 0 90 60 60
        E 120 80 19 00
        E 0 80 18 00
        E 0 80 60 00
        E 0 90 1a 60
        E 0 90 26 60
        E 0 90 3d 60
        E 0 90 40 60
        E 0 90 49 60
        E 0 90 4c 60
        E 0 90 55 60
        E 0 90 58 60
        E 0 90 61 60
        E 0 90 64 60
        E 120 80 1a 00
        E 0 80 26 00
        E 0 80 3d 00
        E 0 80 40 00
        E 0 80 49 00
        E 0 80 4c 00
        E 0 80 55 00
        E 0 80 58 00
        E 0 80 61 00
        E 0 80 64 00
        E 120 90 19 60
        E 240 80 19 00
        E 0 90 26 60
        E 0 90 40 60
        E 0 90 4c 60
        E 0 90 58 60
        E 0 90 64 60
        E 120 80 26 00
        E 0 80 40 00
        E 0 80 4c 00
        E 0 80 58 00
        E 0 80 64 00
        E 120 90 18 60
        E 0 90 19 60
        E 0 90 54 60
        E 0 90 60 60
        E 120 80 18 00
        E 0 80 54 00
        E 0 80 60 00
        E 0 90 18 60
        E 0 90 60 60
        E 120 80 19 00
        E 0 80 18 00
        E 0 80 60 00
        E 0 90 1a 60
        E 0 90 26 60
        E 0 90 3d 60
        E 0 90 40 60
        E 0 90 49 60
        E 0 90 4c 60
        E 0 90 55 60
        E 0 90 58 60
        E 0 90 61 60
        E 0 90 64 60
        E 120 80 1a 00
        E 0 80 26 00
        E 0 80 3d 00
        E 0 80 40 00
        E 0 80 49 00
        E 0 80 4c 00
        E 0 80 55 00
        E 0 80 58 00
        E 0 80 61 00
        E 0 80 64 00
        E 120 90 19 60
        E 240 80 19 00
        E 0 90 18 60
        E 0 90 26 60
        E 0 90 40 60
        E 0 90 48 60
        E 0 90 4c 60
        E 0 90 54 60
        E 0 90 58 60
        E 0 90 60 60
        E 0 90 64 60
        E 0 90 74 60
        E 120 80 18 00
        E 0 80 26 00
        E 0 80 40 00
        E 0 80 48 00
        E 0 80 4c 00
        E 0 80 54 00
        E 0 80 58 00
        E 0 80 60 00
        E 0 80 64 00
        E 120 90 19 60
        E 240 80 19 00
        E 0 90 1a 60
        E 0 90 26 60
        E 0 90 3d 60
        E 0 90 40 60
        E 0 90 49 60
        E 0 90 4c 60
        E 0 90 55 60
        E 0 90 58 60
        E 0 90 61 60
        E 0 90 64 60
        E 120 80 1a 00
        E 0 80 26 00
        E 0 80 3d 00
        E 0 80 40 00
        E 0 80 49 00
        E 0 80 4c 00
        E 0 80 55 00
        E 0 80 58 00
        E 0 80 61 00
        E 0 80 64 00
        E 120 90 19 60
        E 240 80 19 00
        E 0 90 26 60
        E 0 90 40 60
        E 0 90 4c 60
        E 0 90 58 60
        E 0 90 64 60
        E 120 80 26 00
        E 0 80 40 00
        E 0 80 4c 00
        E 0 80 58 00
        E 0 80 64 00
        E 120 90 18 60
        E 0 90 19 60
        E 0 90 54 60
        E 0 90 60 60
        E 120 80 18 00
        E 0 80 54 00
        E 0 80 60 00
        E 120 80 19 00
        E 0 90 1a 60
        E 0 90 26 60
        E 0 90 3d 60
        E 0 90 40 60
        E 0 90 49 60
        E 0 90 4c 60
        E 0 90 55 60
        E 0 90 58 60
        E 0 90 61 60
        E 0 90 64 60
        E 120 80 1a 00
        E 0 80 26 00
        E 0 80 3d 00
        E 0 80 40 00
        E 0 80 49 00
        E 0 80 4c 00
        E 0 80 55 00
        E 0 80 58 00
        E 0 80 61 00
        E 0 80 64 00
        E 120 90 19 60
        E 240 80 19 00
        E 0 90 26 60
        E 0 90 40 60
        E 0 90 4c 60
        E 0 90 58 60
        E 0 90 64 60
        E 120 80 26 00
        E 0 80 40 00
        E 0 80 4c 00
        E 0 80 58 00
        E 0 80 64 00
        E 120 90 18 60
        E 0 90 19 60
        E 0 90 54 60
        E 0 90 60 60
        E 120 80 18 00
        E 0 80 54 00
        E 0 80 60 00
        E 120 80 19 00
        E 0 90 1a 60
        E 0 90 26 60
        E 0 90 3d 60
        E 0 90 40 60
        E 0 90 49 60
        E 0 90 4c 60
        E 0 90 55 60
        E 0 90 58 60
        E 0 90 61 60
        E 0 90 64 60
        E 120 80 1a 00
        E 0 80 26 00
        E 0 80 3d 00
        E 0 80 40 00
        E 0 80 49 00
        E 0 80 4c 00
        E 0 80 55 00
        E 0 80 58 00
        E 0 80 61 00
        E 0 80 64 00
        E 120 90 19 60
        E 240 80 19 00
        E 0 90 26 60
        E 0 90 40 60
        E 0 90 4c 60
        E 0 90 58 60
        E 0 90 64 60
        E 120 80 26 00
        E 0 80 40 00
        E 0 80 4c 00
        E 0 80 58 00
        E 0 80 64 00
        E 120 90 19 60
        E 240 80 19 00
        E 0 90 1a 60
        E 0 90 26 60
        E 0 90 3d 60
        E 0 90 40 60
        E 0 90 49 60
        E 0 90 4c 60
        E 0 90 55 60
        E 0 90 58 60
        E 0 90 61 60
        E 0 90 64 60
        E 120 80 1a 00
        E 0 80 26 00
        E 0 80 3d 00
        E 0 80 40 00
        E 0 80 49 00
        E 0 80 4c 00
        E 0 80 55 00
        E 0 80 58 00
        E 0 80 61 00
        E 0 80 64 00
        E 120 90 19 60
        E 240 80 74 00
        E 0 80 19 00
        E 0 90 18 60
        E 0 90 26 60
        E 0 90 40 60
        E 0 90 48 60
        E 0 90 4c 60
        E 0 90 54 60
        E 0 90 58 60
        E 0 90 60 60
        E 0 90 64 60
        E 120 80 18 00
        E 0 80 26 00
        E 0 80 40 00
        E 0 80 48 00
        E 0 80 4c 00
        E 0 80 54 00
        E 0 80 58 00
        E 0 80 60 00
        E 0 80 64 00
        E 120 90 19 60
        E 240 80 19 00
        E 0 90 1a 60
        E 0 90 26 60
        E 0 90 3d 60
        E 0 90 40 60
        E 0 90 49 60
        E 0 90 4c 60
        E 0 90 55 60
        E 0 90 58 60
        E 0 90 61 60
        E 0 90 64 60
        E 120 80 1a 00
        E 0 80 26 00
        E 0 80 3d 00
        E 0 80 40 00
        E 0 80 49 00
        E 0 80 4c 00
        E 0 80 55 00
        E 0 80 58 00
        E 0 80 61 00
        E 0 80 64 00
        E 120 90 19 60
        E 240 80 19 00
        E 0 90 18 60
        E 0 90 26 60
        E 0 90 40 60
        E 0 90 4c 60
        E 0 90 54 60
        E 0 90 58 60
        E 0 90 60 60
        E 0 90 64 60
        E 120 80 18 00
        E 0 80 26 00
        E 0 80 40 00
        E 0 80 4c 00
        E 0 80 54 00
        E 0 80 58 00
        E 0 80 60 00
        E 0 80 64 00
        E 120 90 18 60
        E 0 90 19 60
        E 0 90 60 60
        E 120 80 18 00
        E 0 80 60 00
        E 120 80 19 00
        E 0 90 1a 60
        E 0 90 26 60
        E 0 90 3d 60
        E 0 90 40 60
        E 0 90 49 60
        E 0 90 4c 60
        E 0 90 55 60
        E 0 90 58 60
        E 0 90 61 60
        E 0 90 64 60
        E 120 80 1a 00
        E 0 80 26 00
        E 0 80 3d 00
        E 0 80 40 00
        E 0 80 49 00
        E 0 80 4c 00
        E 0 80 55 00
        E 0 80 58 00
        E 0 80 61 00
        E 0 80 64 00
        E 120 90 19 60
        E 240 80 19 00
        E 0 90 18 60
        E 0 90 26 60
        E 0 90 40 60
        E 0 90 4c 60
        E 0 90 54 60
        E 0 90 58 60
        E 0 90 60 60
        E 0 90 64 60
        E 0 90 78 60
        E 0 90 79 60
        E 0 90 7a 60
        E 0 90 7b 60
        E 0 90 7c 60
        E 120 80 18 00
        E 0 80 26 00
        E 0 80 40 00
        E 0 80 4c 00
        E 0 80 54 00
        E 0 80 58 00
        E 0 80 60 00
        E 0 80 64 00
        E 120 90 19 60
        E 240 80 19 00
        E 0 90 1a 60
        E 0 90 26 60
        E 0 90 3d 60
        E 0 90 40 60
        E 0 90 49 60
        E 0 90 4c 60
        E 0 90 55 60
        E 0 90 58 60
        E 0 90 61 60
        E 0 90 64 60
        E 120 80 1a 00
        E 0 80 26 00
        E 0 80 3d 00
        E 0 80 40 00
        E 0 80 49 00
        E 0 80 4c 00
        E 0 80 55 00
        E 0 80 58 00
        E 0 80 61 00
        E 0 80 64 00
        E 120 90 19 60
        E 240 80 19 00
        E 0 90 18 60
        E 0 90 26 60
        E 0 90 40 60
        E 0 90 4c 60
        E 0 90 54 60
        E 0 90 58 60
        E 0 90 60 60
        E 0 90 64 60
        E 120 80 18 00
        E 0 80 26 00
        E 0 80 40 00
        E 0 80 4c 00
        E 0 80 54 00
        E 0 80 58 00
        E 0 80 60 00
        E 0 80 64 00
        E 120 90 19 60
        E 240 80 19 00
        E 0 90 1a 60
        E 0 90 31 60
        E 0 90 3d 60
        E 0 90 3f 60
        E 0 90 49 60
        E 0 90 4b 60
        E 0 90 55 60
        E 0 90 57 60
        E 0 90 61 60
        E 0 90 63 60
        E 0 90 6f 60
        E 120 80 1a 00
        E 0 80 31 00
        E 0 80 3d 00
        E 0 80 3f 00
        E 0 80 49 00
        E 0 80 4b 00
        E 0 80 55 00
        E 0 80 57 00
        E 0 80 61 00
        E 0 80 63 00
        E 0 80 6f 00
        E 120 90 19 60
        E 240 80 78 00
        E 0 80 79 00
        E 0 80 7a 00
        E 0 80 7b 00
        E 0 80 7c 00
        E 0 80 19 00
        E 0 90 18 60
        E 0 90 26 60
        E 0 90 40 60
        E 0 90 48 60
        E 0 90 4c 60
        E 0 90 54 60
        E 0 90 58 60
        E 0 90 60 60
        E 0 90 64 60
        E 120 80 18 00
        E 0 80 26 00
        E 0 80 40 00
        E 0 80 48 00
        E 0 80 4c 00
        E 0 80 54 00
        E 0 80 58 00
        E 0 80 60 00
        E 0 80 64 00
        E 120 90 18 60
        E 0 90 19 60
        E 0 90 60 60
        E 120 80 18 00
        E 0 80 60 00
        E 120 80 19 00
        E 0 90 1a 60
        E 0 90 26 60
        E 0 90 3d 60
        E 0 90 40 60
        E 0 90 49 60
        E 0 90 4c 60
        E 0 90 55 60
        E 0 90 58 60
        E 0 90 61 60
        E 0 90 64 60
        E 120 80 1a 00
        E 0 80 26 00
        E 0 80 3d 00
        E 0 80 40 00
        E 0 80 49 00
        E 0 80 4c 00
        E 0 80 55 00
        E 0 80 58 00
        E 0 80 61 00
        E 0 80 64 00
        E 120 90 18 60
        E 0 90 19 60
        E 0 90 60 60
        E 120 80 18 00
        E 0 80 60 00
        E 120 80 19 00
        E 0 90 18 60
        E 0 90 26 60
        E 0 90 40 60
        E 0 90 4c 60
        E 0 90 54 60
        E 0 90 58 60
        E 0 90 60 60
        E 0 90 64 60
        E 120 80 18 00
        E 0 80 26 00
        E 0 80 40 00
        E 0 80 4c 00
        E 0 80 54 00
        E 0 80 58 00
        E 0 80 60 00
        E 0 80 64 00
        E 120 90 19 60
        E 240 80 19 00
        E 0 90 1a 60
        E 0 90 26 60
        E 0 90 3d 60
        E 0 90 40 60
        E 0 90 49 60
        E 0 90 4c 60
        E 0 90 55 60
        E 0 90 58 60
        E 0 90 61 60
        E 0 90 64 60
        E 120 80 1a 00
        E 0 80 26 00
        E 0 80 3d 00
        E 0 80 40 00
        E 0 80 49 00
        E 0 80 4c 00
        E 0 80 55 00
        E 0 80 58 00
        E 0 80 61 00
        E 0 80 64 00
        E 120 90 19 60
        E 240 80 19 00
        E 0 90 18 60
        E 0 90 26 60
        E 0 90 40 60
        E 0 90 4c 60
        E 0 90 54 60
        E 0 90 58 60
        E 0 90 60 60
        E 0 90 64 60
        E 120 80 18 00
        E 0 80 26 00
        E 0 80 40 00
        E 0 80 4c 00
        E 0 80 54 00
        E 0 80 58 00
        E 0 80 60 00
        E 0 80 64 00
        E 120 90 18 60
        E 0 90 19 60
        E 0 90 60 60
        E 120 80 18 00
        E 0 80 60 00
        E 120 80 19 00
        E 0 90 1a 60
        E 0 90 26 60
        E 0 90 3d 60
        E 0 90 40 60
        E 0 90 49 60
        E 0 90 4c 60
        E 0 90 55 60
        E 0 90 58 60
        E 0 90 61 60
        E 0 90 64 60
        E 120 80 1a 00
        E 0 80 26 00
        E 0 80 3d 00
        E 0 80 40 00
        E 0 80 49 00
        E 0 80 4c 00
        E 0 80 55 00
        E 0 80 58 00
        E 0 80 61 00
        E 0 80 64 00
        E 120 90 18 60
        E 0 90 19 60
        E 0 90 60 60
        E 120 80 18 00
        E 0 80 60 00
        E 120 80 19 00
        E 0 90 18 60
        E 0 90 26 60
        E 0 90 40 60
        E 0 90 4c 60
        E 0 90 54 60
        E 0 90 58 60
        E 0 90 60 60
        E 0 90 64 60
        E 120 80 18 00
        E 0 80 26 00
        E 0 80 40 00
        E 0 80 4c 00
        E 0 80 54 00
        E 0 80 58 00
        E 0 80 60 00
        E 0 80 64 00
        E 120 90 19 60
        E 240 80 19 00
        E 0 90 1a 60
        E 0 90 26 60
        E 0 90 3d 60
        E 0 90 40 60
        E 0 90 49 60
        E 0 90 4c 60
        E 0 90 55 60
        E 0 90 58 60
        E 0 90 61 60
        E 0 90 64 60
        E 120 80 1a 00
        E 0 80 26 00
        E 0 80 3d 00
        E 0 80 40 00
        E 0 80 49 00
        E 0 80 4c 00
        E 0 80 55 00
        E 0 80 58 00
        E 0 80 61 00
        E 0 80 64 00
        E 120 90 19 60
        E 240 80 19 00
        E 0 90 18 60
        E 0 90 26 60
        E 0 90 40 60
        E 0 90 48 60
        E 0 90 4c 60
        E 0 90 54 60
        E 0 90 58 60
        E 0 90 60 60
        E 0 90 64 60
        E 120 80 18 00
        E 0 80 26 00
        E 0 80 40 00
        E 0 80 48 00
        E 0 80 4c 00
        E 0 80 54 00
        E 0 80 58 00
        E 0 80 60 00
        E 0 80 64 00
        E 120 90 18 60
        E 0 90 19 60
        E 0 90 60 60
        E 120 80 18 00
        E 0 80 60 00
        E 120 80 19 00
        E 0 90 1a 60
        E 0 90 26 60
        E 0 90 3d 60
        E 0 90 40 60
        E 0 90 49 60
        E 0 90 4c 60
        E 0 90 55 60
        E 0 90 58 60
        E 0 90 61 60
        E 0 90 64 60
        E 120 80 1a 00
        E 0 80 26 00
        E 0 80 3d 00
        E 0 80 40 00
        E 0 80 49 00
        E 0 80 4c 00
        E 0 80 55 00
        E 0 80 58 00
        E 0 80 61 00
        E 0 80 64 00
        E 120 90 18 60
        E 0 90 19 60
        E 0 90 60 60
        E 120 80 18 00
        E 0 80 60 00
        E 120 80 19 00
        E 0 90 18 60
        E 0 90 26 60
        E 0 90 40 60
        E 0 90 4c 60
        E 0 90 54 60
        E 0 90 58 60
        E 0 90 60 60
        E 0 90 64 60
        E 120 80 18 00
        E 0 80 26 00
        E 0 80 40 00
        E 0 80 4c 00
        E 0 80 54 00
        E 0 80 58 00
        E 0 80 60 00
        E 0 80 64 00
        E 120 90 19 60
        E 240 80 19 00
        E 0 90 1a 60
        E 0 90 26 60
        E 0 90 3d 60
        E 0 90 40 60
        E 0 90 49 60
        E 0 90 4c 60
        E 0 90 55 60
        E 0 90 58 60
        E 0 90 61 60
        E 0 90 64 60
        E 120 80 1a 00
        E 0 80 26 00
        E 0 80 3d 00
        E 0 80 40 00
        E 0 80 49 00
        E 0 80 4c 00
        E 0 80 55 00
        E 0 80 58 00
        E 0 80 61 00
        E 0 80 64 00
        E 120 90 19 60
        E 240 80 19 00
        E 0 90 18 60
        E 0 90 26 60
        E 0 90 40 60
        E 0 90 4c 60
        E 0 90 54 60
        E 0 90 58 60
        E 0 90 60 60
        E 0 90 64 60
        E 120 80 18 00
        E 0 80 26 00
        E 0 80 40 00
        E 0 80 4c 00
        E 0 80 54 00
        E 0 80 58 00
        E 0 80 60 00
        E 0 80 64 00
        E 120 90 18 60
        E 0 90 19 60
        E 0 90 60 60
        E 120 80 18 00
        E 0 80 60 00
        E 120 80 19 00
        E 0 90 1a 60
        E 0 90 26 60
        E 0 90 3d 60
        E 0 90 40 60
        E 0 90 49 60
        E 0 90 4c 60
        E 0 90 55 60
        E 0 90 58 60
        E 0 90 61 60
        E 0 90 64 60
        E 120 80 1a 00
        E 0 80 26 00
        E 0 80 3d 00
        E 0 80 40 00
        E 0 80 49 00
        E 0 80 4c 00
        E 0 80 55 00
        E 0 80 58 00
        E 0 80 61 00
        E 0 80 64 00
        E 120 90 18 60
        E 0 90 19 60
        E 0 90 60 60
        E 120 80 18 00
        E 0 80 60 00
        E 120 80 19 00
        E 0 90 18 60
        E 0 90 26 60
        E 0 90 40 60
        E 0 90 4c 60
        E 0 90 54 60
        E 0 90 58 60
        E 0 90 60 60
        E 0 90 64 60
        E 120 80 18 00
        E 0 80 26 00
        E 0 80 40 00
        E 0 80 4c 00
        E 0 80 54 00
        E 0 80 58 00
        E 0 80 60 00
        E 0 80 64 00
        E 120 90 19 60
        E 240 80 19 00
        E 0 90 1a 60
        E 0 90 26 60
        E 0 90 3d 60
        E 0 90 40 60
        E 0 90 49 60
        E 0 90 4c 60
        E 0 90 55 60
        E 0 90 58 60
        E 0 90 61 60
        E 0 90 64 60
        E 120 80 1a 00
        E 0 80 26 00
        E 0 80 3d 00
        E 0 80 40 00
        E 0 80 49 00
        E 0 80 4c 00
        E 0 80 55 00
        E 0 80 58 00
        E 0 80 61 00
        E 0 80 64 00
        E 120 90 19 60
        E 240 80 19 00
        E 0 90 18 60
        E 0 90 26 60
        E 0 90 40 60
        E 0 90 48 60
        E 0 90 4c 60
        E 0 90 54 60
        E 0 90 58 60
        E 0 90 60 60
        E 0 90 64 60
        E 120 80 18 00
        E 0 80 26 00
        E 0 80 40 00
        E 0 80 48 00
        E 0 80 4c 00
        E 0 80 54 00
        E 0 80 58 00
        E 0 80 60 00
        E 0 80 64 00
        E 120 90 18 60
        E 0 90 19 60
        E 0 90 60 60
        E 120 80 18 00
        E 0 80 60 00
        E 120 80 19 00
        E 0 90 1a 60
        E 0 90 26 60
        E 0 90 3d 60
        E 0 90 40 60
        E 0 90 49 60
        E 0 90 4c 60
        E 0 90 55 60
        E 0 90 58 60
        E 0 90 61 60
        E 0 90 64 60
        E 120 80 1a 00
        E 0 80 26 00
        E 0 80 3d 00
        E 0 80 40 00
        E 0 80 49 00
        E 0 80 4c 00
        E 0 80 55 00
        E 0 80 58 00
        E 0 80 61 00
        E 0 80 64 00
        E 120 90 18 60
        E 0 90 19 60
        E 0 90 60 60
        E 120 80 18 00
        E 0 80 60 00
        E 120 80 19 00
        E 0 90 18 60
        E 0 90 26 60
        E 0 90 40 60
        E 0 90 4c 60
        E 0 90 54 60
        E 0 90 58 60
        E 0 90 60 60
        E 0 90 64 60
        E 120 80 18 00
        E 0 80 26 00
        E 0 80 40 00
        E 0 80 4c 00
        E 0 80 54 00
        E 0 80 58 00
        E 0 80 60 00
        E 0 80 64 00
        E 120 90 19 60
        E 240 80 19 00
        E 0 90 1a 60
        E 0 90 26 60
        E 0 90 3d 60
        E 0 90 40 60
        E 0 90 49 60
        E 0 90 4c 60
        E 0 90 55 60
        E 0 90 58 60
        E 0 90 61 60
        E 0 90 64 60
        E 120 80 1a 00
        E 0 80 26 00
        E 0 80 3d 00
        E 0 80 40 00
        E 0 80 49 00
        E 0 80 4c 00
        E 0 80 55 00
        E 0 80 58 00
        E 0 80 61 00
        E 0 80 64 00
        E 120 90 19 60
        E 240 80 19 00
        E 0 90 18 60
        E 0 90 26 60
        E 0 90 40 60
        E 0 90 4c 60
        E 0 90 54 60
        E 0 90 58 60
        E 0 90 60 60
        E 0 90 64 60
        E 120 80 18 00
        E 0 80 26 00
        E 0 80 40 00
        E 0 80 4c 00
        E 0 80 54 00
        E 0 80 58 00
        E 0 80 60 00
        E 0 80 64 00
        E 120 90 18 60
        E 0 90 19 60
        E 0 90 60 60
        E 120 80 18 00
        E 0 80 60 00
        E 120 80 19 00
        E 0 90 1a 60
        E 0 90 26 60
        E 0 90 3d 60
        E 0 90 40 60
        E 0 90 49 60
        E 0 90 4c 60
        E 0 90 55 60
        E 0 90 58 60
        E 0 90 61 60
        E 0 90 64 60
        E 120 80 1a 00
        E 0 80 26 00
        E 0 80 3d 00
        E 0 80 40 00
        E 0 80 49 00
        E 0 80 4c 00
        E 0 80 55 00
        E 0 80 58 00
        E 0 80 61 00
        E 0 80 64 00
        E 120 90 18 60
        E 0 90 19 60
        E 0 90 60 60
        E 120 80 18 00
        E 0 80 60 00
        E 120 80 19 00
        E 0 90 18 60
        E 0 90 26 60
        E 0 90 40 60
        E 0 90 4c 60
        E 0 90 54 60
        E 0 90 58 60
        E 0 90 60 60
        E 0 90 64 60
        E 120 80 18 00
        E 0 80 26 00
        E 0 80 40 00
        E 0 80 4c 00
        E 0 80 54 00
        E 0 80 58 00
        E 0 80 60 00
        E 0 80 64 00
        E 120 90 19 60
        E 240 80 19 00
        E 0 90 1a 60
        E 0 90 26 60
        E 0 90 3d 60
        E 0 90 40 60
        E 0 90 49 60
        E 0 90 4c 60
        E 0 90 55 60
        E 0 90 58 60
        E 0 90 61 60
        E 0 90 64 60
        E 120 80 1a 00
        E 0 80 26 00
        E 0 80 3d 00
        E 0 80 40 00
        E 0 80 49 00
        E 0 80 4c 00
        E 0 80 55 00
        E 0 80 58 00
        E 0 80 61 00
        E 0 80 64 00
        E 120 90 19 60
        E 240 80 19 00
        E 0 90 18 60
        E 0 90 26 60
        E 0 90 40 60
        E 0 90 48 60
        E 0 90 4c 60
        E 0 90 54 60
        E 0 90 58 60
        E 0 90 60 60
        E 0 90 64 60
        E 120 80 18 00
        E 0 80 26 00
        E 0 80 40 00
        E 0 80 48 00
        E 0 80 4c 00
        E 0 80 54 00
        E 0 80 58 00
        E 0 80 60 00
        E 0 80 64 00
        E 120 90 18 60
        E 0 90 19 60
        E 0 90 60 60
        E 120 80 18 00
        E 0 80 60 00
        E 120 80 19 00
        E 0 90 1a 60
        E 0 90 26 60
        E 0 90 3d 60
        E 0 90 40 60
        E 0 90 49 60
        E 0 90 4c 60
        E 0 90 55 60
        E 0 90 58 60
        E 0 90 61 60
        E 0 90 64 60
        E 120 80 1a 00
        E 0 80 26 00
        E 0 80 3d 00
        E 0 80 40 00
        E 0 80 49 00
        E 0 80 4c 00
        E 0 80 55 00
        E 0 80 58 00
        E 0 80 61 00
        E 0 80 64 00
        E 120 90 18 60
        E 0 90 19 60
        E 0 90 60 60
        E 120 80 18 00
        E 0 80 60 00
        E 120 80 19 00
        E 0 90 18 60
        E 0 90 26 60
        E 0 90 40 60
        E 0 90 4c 60
        E 0 90 54 60
        E 0 90 58 60
        E 0 90 60 60
        E 0 90 64 60
        E 120 80 18 00
        E 0 80 26 00
        E 0 80 40 00
        E 0 80 4c 00
        E 0 80 54 00
        E 0 80 58 00
        E 0 80 60 00
        E 0 80 64 00
        E 120 90 19 60
        E 240 80 19 00
        E 0 90 1a 60
        E 0 90 26 60
        E 0 90 3d 60
        E 0 90 40 60
        E 0 90 49 60
        E 0 90 4c 60
        E 0 90 55 60
        E 0 90 58 60
        E 0 90 61 60
        E 0 90 64 60
        E 120 80 1a 00
        E 0 80 26 00
        E 0 80 3d 00
        E 0 80 40 00
        E 0 80 49 00
        E 0 80 4c 00
        E 0 80 55 00
        E 0 80 58 00
        E 0 80 61 00
        E 0 80 64 00
        E 120 90 19 60
        E 240 80 19 00
        E 0 90 18 60
        E 0 90 26 60
        E 0 90 40 60
        E 0 90 4c 60
        E 0 90 54 60
        E 0 90 58 60
        E 0 90 60 60
        E 0 90 64 60
        E 0 90 78 60
        E 0 90 79 60
        E 0 90 7a 60
        E 0 90 7b 60
        E 0 90 7c 60
        E 120 80 18 00
        E 0 80 26 00
        E 0 80 40 00
        E 0 80 4c 00
        E 0 80 54 00
        E 0 80 58 00
        E 0 80 60 00
        E 0 80 64 00
        E 120 90 18 60
        E 0 90 19 60
        E 0 90 60 60
        E 120 80 18 00
        E 0 80 60 00
        E 120 80 19 00
        E 0 90 1a 60
        E 0 90 26 60
        E 0 90 3d 60
        E 0 90 40 60
        E 0 90 49 60
        E 0 90 4c 60
        E 0 90 55 60
        E 0 90 58 60
        E 0 90 61 60
        E 0 90 64 60
        E 120 80 1a 00
        E 0 80 26 00
        E 0 80 3d 00
        E 0 80 40 00
        E 0 80 49 00
        E 0 80 4c 00
        E 0 80 55 00
        E 0 80 58 00
        E 0 80 61 00
        E 0 80 64 00
        E 120 90 18 60
        E 0 90 19 60
        E 0 90 60 60
        E 120 80 18 00
        E 0 80 60 00
        E 120 80 19 00
        E 0 90 18 60
        E 0 90 26 60
        E 0 90 40 60
        E 0 90 4c 60
        E 0 90 54 60
        E 0 90 58 60
        E 0 90 60 60
        E 0 90 64 60
        E 120 80 18 00
        E 0 80 26 00
        E 0 80 40 00
        E 0 80 4c 00
        E 0 80 54 00
        E 0 80 58 00
        E 0 80 60 00
        E 0 80 64 00
        E 120 90 19 60
        E 240 80 19 00
        E 0 90 1a 60
        E 0 90 26 60
        E 0 90 3d 60
        E 0 90 40 60
        E 0 90 49 60
        E 0 90 4c 60
        E 0 90 55 60
        E 0 90 58 60
        E 0 90 61 60
        E 0 90 64 60
        E 120 80 1a 00
        E 0 80 26 00
        E 0 80 3d 00
        E 0 80 40 00
        E 0 80 49 00
        E 0 80 4c 00
        E 0 80 55 00
        E 0 80 58 00
        E 0 80 61 00
        E 0 80 64 00
        E 120 90 19 60
        E 240 80 78 00
        E 0 80 79 00
        E 0 80 7a 00
        E 0 80 7b 00
        E 0 80 7c 00
        E 0 80 19 00
        E 0 90 18 60
        E 0 90 26 60
        E 0 90 40 60
        E 0 90 48 60
        E 0 90 4c 60
        E 0 90 54 60
        E 0 90 58 60
        E 0 90 60 60
        E 0 90 64 60
        E 120 80 18 00
        E 0 80 26 00
        E 0 80 40 00
        E 0 80 48 00
        E 0 80 4c 00
        E 0 80 54 00
        E 0 80 58 00
        E 0 80 60 00
        E 0 80 64 00
        E 120 90 19 60
        E 240 80 19 00
        E 0 90 1a 60
        E 0 90 26 60
        E 0 90 3d 60
        E 0 90 40 60
        E 0 90 49 60
        E 0 90 4c 60
        E 0 90 55 60
        E 0 90 58 60
        E 0 90 61 60
        E 0 90 64 60
        E 120 80 1a 00
        E 0 80 26 00
        E 0 80 3d 00
        E 0 80 40 00
        E 0 80 49 00
        E 0 80 4c 00
        E 0 80 55 00
        E 0 80 58 00
        E 0 80 61 00
        E 0 80 64 00
        E 120 90 19 60
        E 240 80 19 00
        E 0 90 18 60
        E 0 90 26 60
        E 0 90 40 60
        E 0 90 4c 60
        E 0 90 54 60
        E 0 90 58 60
        E 0 90 60 60
        E 0 90 64 60
        E 120 80 18 00
        E 0 80 26 00
        E 0 80 40 00
        E 0 80 4c 00
        E 0 80 54 00
        E 0 80 58 00
        E 0 80 60 00
        E 0 80 64 00
        E 120 90 19 60
        E 240 80 19 00
        E 0 90 1a 60
        E 0 90 26 60
        E 0 90 3d 60
        E 0 90 40 60
        E 0 90 49 60
        E 0 90 4c 60
        E 0 90 55 60
        E 0 90 58 60
        E 0 90 61 60
        E 0 90 64 60
        E 120 80 1a 00
        E 0 80 26 00
        E 0 80 3d 00
        E 0 80 40 00
        E 0 80 49 00
        E 0 80 4c 00
        E 0 80 55 00
        E 0 80 58 00
        E 0 80 61 00
        E 0 80 64 00
        E 120 90 19 60
        E 240 80 19 00
        E 0 90 18 60
        E 0 90 26 60
        E 0 90 40 60
        E 0 90 4c 60
        E 0 90 54 60
        E 0 90 58 60
        E 0 90 60 60
        E 0 90 64 60
        E 120 80 18 00
        E 0 80 26 00
        E 0 80 40 00
        E 0 80 4c 00
        E 0 80 54 00
        E 0 80 58 00
        E 0 80 60 00
        E 0 80 64 00
        E 120 90 18 60
        E 0 90 19 60
        E 0 90 60 60
        E 120 80 18 00
        E 0 80 60 00
        E 120 80 19 00
        E 0 90 1a 60
        E 0 90 26 60
        E 0 90 3d 60
        E 0 90 40 60
        E 0 90 49 60
        E 0 90 4c 60
        E 0 90 55 60
        E 0 90 58 60
        E 0 90 61 60
        E 0 90 64 60
        E 120 80 1a 00
        E 0 80 26 00
        E 0 80 3d 00
        E 0 80 40 00
        E 0 80 49 00
        E 0 80 4c 00
        E 0 80 55 00
        E 0 80 58 00
        E 0 80 61 00
        E 0 80 64 00
        E 120 90 18 60
        E 0 90 19 60
        E 0 90 60 60
        E 120 80 18 00
        E 0 80 60 00
        E 120 80 19 00
        E 0 90 18 60
        E 0 90 26 60
        E 0 90 40 60
        E 0 90 4c 60
        E 0 90 54 60
        E 0 90 58 60
        E 0 90 60 60
        E 0 90 64 60
        E 120 80 18 00
        E 0 80 26 00
        E 0 80 40 00
        E 0 80 4c 00
        E 0 80 54 00
        E 0 80 58 00
        E 0 80 60 00
        E 0 80 64 00
        E 120 90 19 60
        E 240 80 19 00
        E 0 90 1a 60
        E 0 90 26 60
        E 0 90 3d 60
        E 0 90 40 60
        E 0 90 49 60
        E 0 90 4c 60
        E 0 90 55 60
        E 0 90 58 60
        E 0 90 61 60
        E 0 90 64 60
        E 120 80 1a 00
        E 0 80 26 00
        E 0 80 3d 00
        E 0 80 40 00
        E 0 80 49 00
        E 0 80 4c 00
        E 0 80 55 00
        E 0 80 58 00
        E 0 80 61 00
        E 0 80 64 00
        E 120 90 19 60
        E 240 80 19 00
        E 0 90 18 60
        E 0 90 26 60
        E 0 90 40 60
        E 0 90 48 60
        E 0 90 4c 60
        E 0 90 54 60
        E 0 90 58 60
        E 0 90 60 60
        E 0 90 64 60
        E 120 80 18 00
        E 0 80 26 00
        E 0 80 40 00
        E 0 80 48 00
        E 0 80 4c 00
        E 0 80 54 00
        E 0 80 58 00
        E 0 80 60 00
        E 0 80 64 00
        E 120 90 18 60
        E 0 90 19 60
        E 0 90 60 60
        E 120 80 18 00
        E 0 80 60 00
        E 120 80 19 00
        E 0 90 1a 60
        E 0 90 26 60
        E 0 90 3d 60
        E 0 90 40 60
        E 0 90 49 60
        E 0 90 4c 60
        E 0 90 55 60
        E 0 90 58 60
        E 0 90 61 60
        E 0 90 64 60
        E 120 80 1a 00
        E 0 80 26 00
        E 0 80 3d 00
        E 0 80 40 00
        E 0 80 49 00
        E 0 80 4c 00
        E 0 80 55 00
        E 0 80 58 00
        E 0 80 61 00
        E 0 80 64 00
        E 120 90 18 60
        E 0 90 19 60
        E 0 90 60 60
        E 120 80 18 00
        E 0 80 60 00
        E 120 80 19 00
        E 0 90 18 60
        E 0 90 26 60
        E 0 90 40 60
        E 0 90 4c 60
        E 0 90 54 60
        E 0 90 58 60
        E 0 90 60 60
        E 0 90 64 60
        E 120 80 18 00
        E 0 80 26 00
        E 0 80 40 00
        E 0 80 4c 00
        E 0 80 54 00
        E 0 80 58 00
        E 0 80 60 00
        E 0 80 64 00
        E 120 90 19 60
        E 240 80 19 00
        E 0 90 1a 60
        E 0 90 26 60
        E 0 90 3d 60
        E 0 90 40 60
        E 0 90 49 60
        E 0 90 4c 60
        E 0 90 55 60
        E 0 90 58 60
        E 0 90 61 60
        E 0 90 64 60
        E 120 80 1a 00
        E 0 80 26 00
        E 0 80 3d 00
        E 0 80 40 00
        E 0 80 49 00
        E 0 80 4c 00
        E 0 80 55 00
        E 0 80 58 00
        E 0 80 61 00
        E 0 80 64 00
        E 120 90 19 60
        E 240 80 19 00
        E 0 90 18 60
        E 0 90 26 60
        E 0 90 40 60
        E 0 90 4c 60
        E 0 90 54 60
        E 0 90 58 60
        E 0 90 60 60
        E 0 90 64 60
        E 120 80 18 00
        E 0 80 26 00
        E 0 80 40 00
        E 0 80 4c 00
        E 0 80 54 00
        E 0 80 58 00
        E 0 80 60 00
        E 0 80 64 00
        E 120 90 18 60
        E 0 90 19 60
        E 0 90 60 60
        E 120 80 18 00
        E 0 80 60 00
        E 120 80 19 00
        E 0 90 1a 60
        E 0 90 26 60
        E 0 90 3d 60
        E 0 90 40 60
        E 0 90 49 60
        E 0 90 4c 60
        E 0 90 55 60
        E 0 90 58 60
        E 0 90 61 60
        E 0 90 64 60
        E 120 80 1a 00
        E 0 80 26 00
        E 0 80 3d 00
        E 0 80 40 00
        E 0 80 49 00
        E 0 80 4c 00
        E 0 80 55 00
        E 0 80 58 00
        E 0 80 61 00
        E 0 80 64 00
        E 120 90 18 60
        E 0 90 19 60
        E 0 90 60 60
        E 120 80 18 00
        E 0 80 60 00
        E 120 80 19 00
        E 0 90 18 60
        E 0 90 26 60
        E 0 90 40 60
        E 0 90 4c 60
        E 0 90 54 60
        E 0 90 58 60
        E 0 90 60 60
        E 0 90 64 60
        E 120 80 18 00
        E 0 80 26 00
        E 0 80 40 00
        E 0 80 4c 00
        E 0 80 54 00
        E 0 80 58 00
        E 0 80 60 00
        E 0 80 64 00
        E 120 90 19 60
        E 240 80 19 00
        E 0 90 1a 60
        E 0 90 26 60
        E 0 90 3d 60
        E 0 90 40 60
        E 0 90 49 60
        E 0 90 4c 60
        E 0 90 55 60
        E 0 90 58 60
        E 0 90 61 60
        E 0 90 64 60
        E 120 80 1a 00
        E 0 80 26 00
        E 0 80 3d 00
        E 0 80 40 00
        E 0 80 49 00
        E 0 80 4c 00
        E 0 80 55 00
        E 0 80 58 00
        E 0 80 61 00
        E 0 80 64 00
        E 120 90 19 60
        E 240 80 19 00
        E 0 90 18 60
        E 0 90 26 60
        E 0 90 40 60
        E 0 90 48 60
        E 0 90 4c 60
        E 0 90 54 60
        E 0 90 58 60
        E 0 90 60 60
        E 0 90 64 60
        E 120 80 18 00
        E 0 80 26 00
        E 0 80 40 00
        E 0 80 48 00
        E 0 80 4c 00
        E 0 80 54 00
        E 0 80 58 00
        E 0 80 60 00
        E 0 80 64 00
        E 120 90 18 60
        E 0 90 19 60
        E 0 90 60 60
        E 120 80 18 00
        E 0 80 60 00
        E 120 80 19 00
        E 0 90 1a 60
        E 0 90 26 60
        E 0 90 3d 60
        E 0 90 40 60
        E 0 90 49 60
        E 0 90 4c 60
        E 0 90 55 60
        E 0 90 58 60
        E 0 90 61 60
        E 0 90 64 60
        E 120 80 1a 00
        E 0 80 26 00
        E 0 80 3d 00
        E 0 80 40 00
        E 0 80 49 00
        E 0 80 4c 00
        E 0 80 55 00
        E 0 80 58 00
        E 0 80 61 00
        E 0 80 64 00
        E 120 90 18 60
        E 0 90 19 60
        E 0 90 60 60
        E 120 80 18 00
        E 0 80 60 00
        E 120 80 19 00
        E 0 90 18 60
        E 0 90 26 60
        E 0 90 40 60
        E 0 90 4c 60
        E 0 90 54 60
        E 0 90 58 60
        E 0 90 60 60
        E 0 90 64 60
        E 120 80 18 00
        E 0 80 26 00
        E 0 80 40 00
        E 0 80 4c 00
        E 0 80 54 00
        E 0 80 58 00
        E 0 80 60 00
        E 0 80 64 00
        E 120 90 19 60
        E 240 80 19 00
        E 0 90 1a 60
        E 0 90 26 60
        E 0 90 3d 60
        E 0 90 40 60
        E 0 90 49 60
        E 0 90 4c 60
        E 0 90 55 60
        E 0 90 58 60
        E 0 90 61 60
        E 0 90 64 60
        E 120 80 1a 00
        E 0 80 26 00
        E 0 80 3d 00
        E 0 80 40 00
        E 0 80 49 00
        E 0 80 4c 00
        E 0 80 55 00
        E 0 80 58 00
        E 0 80 61 00
        E 0 80 64 00
        E 120 90 19 60
        E 240 80 19 00
        E 0 90 18 60
        E 0 90 26 60
        E 0 90 40 60
        E 0 90 4c 60
        E 0 90 54 60
        E 0 90 58 60
        E 0 90 60 60
        E 0 90 64 60
        E 120 80 18 00
        E 0 80 26 00
        E 0 80 40 00
        E 0 80 4c 00
        E 0 80 54 00
        E 0 80 58 00
        E 0 80 60 00
        E 0 80 64 00
        E 120 90 18 60
        E 0 90 19 60
        E 0 90 60 60
        E 120 80 18 00
        E 0 80 60 00
        E 120 80 19 00
        E 0 90 1a 60
        E 0 90 26 60
        E 0 90 3d 60
        E 0 90 40 60
        E 0 90 49 60
        E 0 90 4c 60
        E 0 90 55 60
        E 0 90 58 60
        E 0 90 61 60
        E 0 90 64 60
        E 120 80 1a 00
        E 0 80 26 00
        E 0 80 3d 00
        E 0 80 40 00
        E 0 80 49 00
        E 0 80 4c 00
        E 0 80 55 00
        E 0 80 58 00
        E 0 80 61 00
        E 0 80 64 00
        E 120 90 18 60
        E 0 90 19 60
        E 0 90 60 60
        E 120 80 18 00
        E 0 80 60 00
        E 120 80 19 00
        E 0 90 18 60
        E 0 90 26 60
        E 0 90 40 60
        E 0 90 4c 60
        E 0 90 54 60
        E 0 90 58 60
        E 0 90 60 60
        E 0 90 64 60
        E 120 80 18 00
        E 0 80 26 00
        E 0 80 40 00
        E 0 80 4c 00
        E 0 80 54 00
        E 0 80 58 00
        E 0 80 60 00
        E 0 80 64 00
        E 120 90 19 60
        E 240 80 19 00
        E 0 90 1a 60
        E 0 90 26 60
        E 0 90 3d 60
        E 0 90 40 60
        E 0 90 49 60
        E 0 90 4c 60
        E 0 90 55 60
        E 0 90 58 60
        E 0 90 61 60
        E 0 90 64 60
        E 120 80 1a 00
        E 0 80 26 00
        E 0 80 3d 00
        E 0 80 40 00
        E 0 80 49 00
        E 0 80 4c 00
        E 0 80 55 00
        E 0 80 58 00
        E 0 80 61 00
        E 0 80 64 00
        E 120 90 19 60
        E 240 80 19 00
        E 0 90 18 60
        E 0 90 26 60
        E 0 90 40 60
        E 0 90 48 60
        E 0 90 4c 60
        E 0 90 54 60
        E 0 90 58 60
        E 0 90 60 60
        E 0 90 64 60
        E 120 80 18 00
        E 0 80 26 00
        E 0 80 40 00
        E 0 80 48 00
        E 0 80 4c 00
        E 0 80 54 00
        E 0 80 58 00
        E 0 80 60 00
        E 0 80 64 00
        E 120 90 18 60
        E 0 90 19 60
        E 0 90 60 60
        E 120 80 18 00
        E 0 80 60 00
        E 120 80 19 00
        E 0 90 1a 60
        E 0 90 26 60
        E 0 90 3d 60
        E 0 90 40 60
        E 0 90 49 60
        E 0 90 4c 60
        E 0 90 55 60
        E 0 90 58 60
        E 0 90 61 60
        E 0 90 64 60
        E 120 80 1a 00
        E 0 80 26 00
        E 0 80 3d 00
        E 0 80 40 00
        E 0 80 49 00
        E 0 80 4c 00
        E 0 80 55 00
        E 0 80 58 00
        E 0 80 61 00
        E 0 80 64 00
        E 120 90 19 60
        E 240 80 19 00
        E 0 90 18 60
        E 0 90 26 60
        E 0 90 40 60
        E 0 90 4c 60
        E 0 90 54 60
        E 0 90 58 60
        E 0 90 60 60
        E 0 90 64 60
        E 120 80 18 00
        E 0 80 26 00
        E 0 80 40 00
        E 0 80 4c 00
        E 0 80 54 00
        E 0 80 58 00
        E 0 80 60 00
        E 0 80 64 00
        E 120 90 19 60
        E 240 80 19 00
        E 0 90 1a 60
        E 0 90 26 60
        E 0 90 3d 60
        E 0 90 40 60
        E 0 90 49 60
        E 0 90 4c 60
        E 0 90 55 60
        E 0 90 58 60
        E 0 90 61 60
        E 0 90 64 60
        E 120 80 1a 00
        E 0 80 26 00
        E 0 80 3d 00
        E 0 80 40 00
        E 0 80 49 00
        E 0 80 4c 00
        E 0 80 55 00
        E 0 80 58 00
        E 0 80 61 00
        E 0 80 64 00
        E 120 90 19 60
        E 240 80 19 00
        E 0 90 18 60
        E 0 90 26 60
        E 0 90 40 60
        E 0 90 4c 60
        E 0 90 54 60
        E 0 90 58 60
        E 0 90 60 60
        E 0 90 64 60
        E 120 80 18 00
        E 0 80 26 00
        E 0 80 40 00
        E 0 80 4c 00
        E 0 80 54 00
        E 0 80 58 00
        E 0 80 60 00
        E 0 80 64 00
        E 120 90 19 60
        E 240 80 19 00
        E 0 90 1a 60
        E 0 90 26 60
        E 0 90 3d 60
        E 0 90 40 60
        E 0 90 49 60
        E 0 90 4c 60
        E 0 90 55 60
        E 0 90 58 60
        E 0 90 61 60
        E 0 90 64 60
        E 120 80 1a 00
        E 0 80 26 00
        E 0 80 3d 00
        E 0 80 40 00
        E 0 80 49 00
        E 0 80 4c 00
        E 0 80 55 00
        E 0 80 58 00
        E 0 80 61 00
        E 0 80 64 00
        E 120 90 19 60
        E 240 80 19 00
        E 0 90 18 60
        E 0 90 26 60
        E 0 90 40 60
        E 0 90 4c 60
        E 0 90 54 60
        E 0 90 58 60
        E 0 90 60 60
        E 0 90 64 60
        E 120 80 18 00
        E 0 80 26 00
        E 0 80 40 00
        E 0 80 4c 00
        E 0 80 54 00
        E 0 80 58 00
        E 0 80 60 00
        E 0 80 64 00
        E 120 90 19 60
        E 240 80 19 00
        E 0 90 1a 60
        E 0 90 26 60
        E 0 90 3d 60
        E 0 90 40 60
        E 0 90 49 60
        E 0 90 4c 60
        E 0 90 55 60
        E 0 90 58 60
        E 0 90 61 60
        E 0 90 64 60
        E 120 80 1a 00
        E 0 80 26 00
        E 0 80 3d 00
        E 0 80 40 00
        E 0 80 49 00
        E 0 80 4c 00
        E 0 80 55 00
        E 0 80 58 00
        E 0 80 61 00
        E 0 80 64 00
        E 120 90 55 60
        E 0 90 19 60
        E 0 90 1a 60
        E 0 90 61 60
        E 120 80 55 00
        E 0 80 1a 00
        E 0 80 61 00
        E 120 80 19 00
        E 0 90 18 60
        E 0 90 29 60
        E 0 90 40 60
        E 0 90 48 60
        E 0 90 4c 60
        E 0 90 54 60
        E 0 90 58 60
        E 0 90 60 60
        E 0 90 64 60
        E 120 80 18 00
        E 0 80 29 00
        E 0 80 40 00
        E 0 80 48 00
        E 0 80 4c 00
        E 0 80 54 00
        E 0 80 58 00
        E 0 80 60 00
        E 0 80 64 00
        <X 120 0
          /wFbaWRsZV9yZWFsdGltZV0=
        >
        E 3600 b0 7b 00
        GUID {526AA217-BE45-4503-9B2E-A797440AAE7E}
        IGNTEMPO 0 120.00000000 4 4
        SRCCOLOR 3
        VELLANE 132 128 60
        COLORMAP "C:\Program Files\REAPER (x64)\Data\color_maps\rockband_guitarbass.png"
        CFGEDITVIEW -12968.014830 10.293458 12 12 0 0 0
        CFGEDIT 1 1 0 1 1 0 1 1 1 1 1 0.12500000 53 44 1253 718 0 2 1 1 0.00000000 0 1 1 0 0.500000 0 0 1.000000 64
        KEYSNAP 0 7 "102030050700" 0 "Pentatonic"
        EVTFILTER 0 -1 -1 -1 -1 0 1 0 0 -1.00000000 -1.00000000
      >
    >
  >
  <TRACK '{0DF040AA-D927-40F3-A147-81768797C7E7}'
    NAME "PART BASS"
    PEAKCOL 16576
    BEAT -1
    AUTOMODE 0
    VOLPAN 1.00000000000000 0.00000000000000 -1.00000000000000 -1.00000000000000 1.00000000000000
    MUTESOLO 0 0 0
    IPHASE 0
    ISBUS 0 0
    BUSCOMP 0 0
    SHOWINMIX 1 0.666700 0.500000 1 0.500000 -1 -1 -1
    FREEMODE 0
    SEL 0
    REC 0 0 0 0 0 0 0
    VU 2
    TRACKHEIGHT 0 0
    INQ 0 0 0 0.5000000000 100 0 0 100
    NCHAN 2
    FX 1
    TRACKID {0DF040AA-D927-40F3-A147-81768797C7E7}
    PERF 0
    MIDIOUT -1
    <MIDINOTENAMES
      0 127 "TRILL MARKER"
      0 126 "TREMOLO MARKER"
      0 125 "---"
      0 124 "BRE"
      0 123 "BRE"
      0 122 "BRE"
      0 121 "BRE"
      0 120 "BRE (use all 5)"
      0 119 "----"
      0 116 "OVERDRIVE"
      0 115 "----"
      0 103 "Solo Marker"
      0 102 "Force HOPO Off"
      0 101 "Force HOPO On"
      0 100 "EXPERT Orange"
      0 99 "EXPERT Blue"
      0 98 "EXPERT Yellow"
      0 97 "EXPERT Red"
      0 96 "EXPERT Green"
      0 95 "----"
      0 90 "Force HOPO Off"
      0 89 "Force HOPO On"
      0 88 "HARD Orange"
      0 87 "HARD Blue"
      0 86 "HARD Yellow"
      0 85 "HARD Red"
      0 84 "HARD Green"
      0 77 "----"
      0 76 "MEDIUM Orange"
      0 75 "MEDIUM Blue"
      0 74 "MEDIUM Yellow"
      0 73 "MEDIUM Red"
      0 72 "MEDIUM Green"
      0 65 "----"
      0 64 "EASY Orange"
      0 63 "EASY Blue"
      0 62 "EASY Yellow"
      0 61 "EASY Red"
      0 60 "EASY Green"
      0 59 "Fret 12"
      0 57 "Fret 11"
      0 56 "Fret 10"
      0 55 "Fret 9"
      0 53 "Fret 8"
      0 52 "Fret 7"
      0 50 "Fret 6"
      0 49 "Fret 5"
      0 47 "Fret 4"
      0 45 "Fret 3"
      0 43 "Fret 2"
      0 40 "Fret 1"
    >
    MAINSEND 1 0
    <FXCHAIN
      WNDRECT 0 43 891 559
      SHOW 0
      LASTSEL 0
      DOCKED 0
      BYPASS 0 0
      <VST "VSTi: RBN Preview (RBN)" "rbprev_vst64.dll" 0 ""
        dnBicu5e7f4AAAAAAgAAAAEAAAAAAAAAAgAAAAAAAAAEAAAAAQAAAA==
        AAAQAAMAqgAAABAAAAA=
      >
      FLOATPOS 0 0 0 0
      FXID {2B1CB8E0-FA0C-496B-9468-89B83BE11D7D}
      WAK 0
    >
    <ITEM
      POSITION 0.00000000000000
      SNAPOFFS 0.00000000000000
      LENGTH 109.09842099999999
      LOOP 0
      ALLTAKES 0
      SEL 0
      FADEIN 1 0.000000 0.000000 1 0
      FADEOUT 1 0.000000 0.000000 1 0
      MUTE 0
      IGUID {760A4BF1-0624-41C6-965B-DB216244BE0E}
      IID 2
      NAME "PART BASS"
      VOLPAN 1.000000 0.000000 1.000000 -1.000000
      SOFFS 0.00000000000000 0.00000000000000
      PLAYRATE 1.00000000000000 1 0.00000000000000 -1
      CHANMODE 0
      GUID {0AA4D196-E7BE-4D92-AD1F-0916E92F29B8}
      <SOURCE MIDI
        HASDATA 1 480 QN
        POOLEDEVTS {D10C7D02-EB65-4C03-9886-4C51B48F46FF}
        <X 0 0
          /wNQQVJUIEJBU1M=
        >
        <X 7680 0
          /wFbaW50ZW5zZV0=
        >
        E 0 90 3c 60
        E 0 90 48 60
        E 0 90 55 60
        E 0 90 61 60
        E 120 80 3c 00
        E 0 80 48 00
        E 0 80 55 00
        E 0 80 61 00
        E 120 90 61 60
        E 120 80 61 00
        E 120 90 55 60
        E 0 90 61 60
        E 120 80 55 00
        E 0 80 61 00
        E 120 90 61 60
        E 120 80 61 00
        E 120 90 48 60
        E 0 90 55 60
        E 0 90 61 60
        E 120 80 48 00
        E 0 80 55 00
        E 0 80 61 00
        E 360 90 57 60
        E 0 90 63 60
        E 120 80 57 00
        E 0 80 63 00
        E 360 90 3f 60
        E 0 90 4b 60
        E 0 90 58 60
        E 0 90 64 60
        E 120 80 3f 00
        E 0 80 4b 00
        E 0 80 58 00
        E 0 80 64 00
        E 120 90 64 60
        E 120 80 64 00
        E 120 90 58 60
        E 0 90 64 60
        E 120 80 58 00
        E 0 80 64 00
        E 120 90 64 60
        E 120 80 64 00
        E 120 90 4b 60
        E 0 90 58 60
        E 0 90 64 60
        E 120 80 4b 00
        E 0 80 58 00
        E 0 80 64 00
        E 360 90 55 60
        E 0 90 61 60
        E 120 80 55 00
        E 0 80 61 00
        E 360 90 3e 60
        E 0 90 4a 60
        E 0 90 57 60
        E 0 90 63 60
        E 120 80 3e 00
        E 0 80 4a 00
        E 0 80 57 00
        E 0 80 63 00
        E 120 90 63 60
        E 120 80 63 00
        E 120 90 57 60
        E 0 90 63 60
        E 120 80 57 00
        E 0 80 63 00
        E 120 90 63 60
        E 120 80 63 00
        E 120 90 4a 60
        E 0 90 57 60
        E 0 90 63 60
        E 120 80 4a 00
        E 0 80 57 00
        E 0 80 63 00
        E 360 90 55 60
        E 0 90 61 60
        E 120 80 55 00
        E 0 80 61 00
        E 360 90 3d 60
        E 0 90 49 60
        E 0 90 56 60
        E 0 90 62 60
        E 120 80 3d 00
        E 0 80 49 00
        E 0 80 56 00
        E 0 80 62 00
        E 120 90 62 60
        E 120 80 62 00
        E 120 90 56 60
        E 0 90 62 60
        E 120 80 56 00
        E 0 80 62 00
        E 120 90 62 60
        E 120 80 62 00
        E 120 90 49 60
        E 0 90 56 60
        E 0 90 62 60
        E 120 80 49 00
        E 0 80 56 00
        E 0 80 62 00
        E 120 90 60 60
        E 120 80 60 00
        E 120 90 54 60
        E 0 90 60 60
        E 120 80 54 00
        E 0 80 60 00
        E 360 90 3c 60
        E 0 90 48 60
        E 0 90 55 60
        E 0 90 61 60
        E 120 80 3c 00
        E 0 80 48 00
        E 0 80 55 00
        E 0 80 61 00
        E 120 90 61 60
        E 120 80 61 00
        E 120 90 55 60
        E 0 90 61 60
        E 120 80 55 00
        E 0 80 61 00
        E 120 90 61 60
        E 120 80 61 00
        E 120 90 48 60
        E 0 90 55 60
        E 0 90 61 60
        E 120 80 48 00
        E 0 80 55 00
        E 0 80 61 00
        E 360 90 57 60
        E 0 90 63 60
        E 120 80 57 00
        E 0 80 63 00
        E 360 90 3f 60
        E 0 90 4b 60
        E 0 90 58 60
        E 0 90 64 60
        E 120 80 3f 00
        E 0 80 4b 00
        E 0 80 58 00
        E 0 80 64 00
        E 120 90 64 60
        E 120 80 64 00
        E 120 90 58 60
        E 0 90 64 60
        E 120 80 58 00
        E 0 80 64 00
        E 120 90 64 60
        E 120 80 64 00
        E 120 90 4b 60
        E 0 90 58 60
        E 0 90 64 60
        E 120 80 4b 00
        E 0 80 58 00
        E 0 80 64 00
        E 360 90 55 60
        E 0 90 61 60
        E 120 80 55 00
        E 0 80 61 00
        E 360 90 3e 60
        E 0 90 4a 60
        E 0 90 57 60
        E 0 90 63 60
        E 0 90 74 60
        E 120 80 3e 00
        E 0 80 4a 00
        E 0 80 57 00
        E 0 80 63 00
        E 120 90 63 60
        E 120 80 63 00
        E 120 90 57 60
        E 0 90 63 60
        E 120 80 57 00
        E 0 80 63 00
        E 120 90 63 60
        E 120 80 63 00
        E 120 90 4a 60
        E 0 90 57 60
        E 0 90 63 60
        E 120 80 4a 00
        E 0 80 57 00
        E 0 80 63 00
        E 360 90 58 60
        E 0 90 64 60
        E 120 80 58 00
        E 0 80 64 00
        E 360 90 3d 60
        E 0 90 49 60
        E 0 90 56 60
        E 0 90 62 60
        E 120 80 3d 00
        E 0 80 49 00
        E 0 80 56 00
        E 0 80 62 00
        E 120 90 62 60
        E 120 80 62 00
        E 120 90 56 60
        E 0 90 62 60
        E 120 80 56 00
        E 0 80 62 00
        E 120 90 62 60
        E 120 80 62 00
        E 120 90 49 60
        E 0 90 56 60
        E 0 90 62 60
        E 120 80 49 00
        E 0 80 56 00
        E 0 80 62 00
        E 120 90 63 60
        E 120 80 63 00
        E 120 90 58 60
        E 0 90 64 60
        E 0 90 65 60
        E 120 80 58 00
        E 0 80 64 00
        E 0 80 65 00
        E 360 80 74 00
        E 0 90 3c 60
        E 0 90 48 60
        E 0 90 55 60
        E 0 90 61 60
        E 120 80 3c 00
        E 0 80 48 00
        E 0 80 55 00
        E 0 80 61 00
        E 120 90 61 60
        E 120 80 61 00
        E 120 90 55 60
        E 0 90 61 60
        E 120 80 55 00
        E 0 80 61 00
        E 120 90 61 60
        E 120 80 61 00
        E 120 90 48 60
        E 0 90 55 60
        E 0 90 61 60
        E 120 80 48 00
        E 0 80 55 00
        E 0 80 61 00
        E 360 90 57 60
        E 0 90 63 60
        E 120 80 57 00
        E 0 80 63 00
        E 360 90 3f 60
        E 0 90 4b 60
        E 0 90 58 60
        E 0 90 64 60
        E 120 80 3f 00
        E 0 80 4b 00
        E 0 80 58 00
        E 0 80 64 00
        E 120 90 64 60
        E 120 80 64 00
        E 120 90 58 60
        E 0 90 64 60
        E 120 80 58 00
        E 0 80 64 00
        E 120 90 64 60
        E 120 80 64 00
        E 120 90 4b 60
        E 0 90 58 60
        E 0 90 64 60
        E 120 80 4b 00
        E 0 80 58 00
        E 0 80 64 00
        E 360 90 55 60
        E 0 90 61 60
        E 120 80 55 00
        E 0 80 61 00
        E 360 90 3e 60
        E 0 90 4a 60
        E 0 90 57 60
        E 0 90 63 60
        E 120 80 3e 00
        E 0 80 4a 00
        E 0 80 57 00
        E 0 80 63 00
        E 120 90 63 60
        E 120 80 63 00
        E 120 90 57 60
        E 0 90 63 60
        E 120 80 57 00
        E 0 80 63 00
        E 120 90 63 60
        E 120 80 63 00
        E 120 90 4a 60
        E 0 90 57 60
        E 0 90 63 60
        E 120 80 4a 00
        E 0 80 57 00
        E 0 80 63 00
        E 360 90 54 60
        E 0 90 60 60
        E 120 80 54 00
        E 0 80 60 00
        E 360 90 3d 60
        E 0 90 49 60
        E 0 90 56 60
        E 0 90 62 60
        E 120 80 3d 00
        E 0 80 49 00
        E 0 80 56 00
        E 0 80 62 00
        E 120 90 62 60
        E 120 80 62 00
        E 120 90 56 60
        E 0 90 62 60
        E 120 80 56 00
        E 0 80 62 00
        E 120 90 62 60
        E 120 80 62 00
        E 120 90 49 60
        E 0 90 56 60
        E 0 90 62 60
        E 120 80 49 00
        E 0 80 56 00
        E 0 80 62 00
        E 120 90 60 60
        E 120 80 60 00
        E 120 90 54 60
        E 0 90 60 60
        E 120 80 54 00
        E 0 80 60 00
        E 360 90 3c 60
        E 0 90 48 60
        E 0 90 55 60
        E 0 90 61 60
        E 120 80 3c 00
        E 0 80 48 00
        E 0 80 55 00
        E 0 80 61 00
        E 120 90 61 60
        E 120 80 61 00
        E 120 90 55 60
        E 0 90 61 60
        E 120 80 55 00
        E 0 80 61 00
        E 120 90 61 60
        E 120 80 61 00
        E 120 90 48 60
        E 0 90 55 60
        E 0 90 61 60
        E 120 80 48 00
        E 0 80 55 00
        E 0 80 61 00
        E 360 90 57 60
        E 0 90 63 60
        E 120 80 57 00
        E 0 80 63 00
        E 360 90 3f 60
        E 0 90 4b 60
        E 0 90 58 60
        E 0 90 64 60
        E 120 80 3f 00
        E 0 80 4b 00
        E 0 80 58 00
        E 0 80 64 00
        E 120 90 64 60
        E 120 80 64 00
        E 120 90 58 60
        E 0 90 64 60
        E 120 80 58 00
        E 0 80 64 00
        E 120 90 64 60
        E 120 80 64 00
        E 120 90 4b 60
        E 0 90 58 60
        E 0 90 64 60
        E 120 80 4b 00
        E 0 80 58 00
        E 0 80 64 00
        E 360 90 55 60
        E 0 90 61 60
        E 120 80 55 00
        E 0 80 61 00
        E 360 90 3e 60
        E 0 90 4a 60
        E 0 90 57 60
        E 0 90 63 60
        E 120 80 3e 00
        E 0 80 4a 00
        E 0 80 57 00
        E 0 80 63 00
        E 120 90 63 60
        E 120 80 63 00
        E 120 90 57 60
        E 0 90 63 60
        E 120 80 57 00
        E 0 80 63 00
        E 120 90 63 60
        E 120 80 63 00
        E 120 90 4a 60
        E 0 90 57 60
        E 0 90 63 60
        E 120 80 4a 00
        E 0 80 57 00
        E 0 80 63 00
        E 360 90 58 60
        E 0 90 64 60
        E 120 80 58 00
        E 0 80 64 00
        E 360 90 3d 60
        E 0 90 49 60
        E 0 90 56 60
        E 0 90 62 60
        E 120 80 3d 00
        E 0 80 49 00
        E 0 80 56 00
        E 0 80 62 00
        E 120 90 62 60
        E 120 80 62 00
        E 120 90 56 60
        E 0 90 62 60
        E 120 80 56 00
        E 0 80 62 00
        E 120 90 62 60
        E 120 80 62 00
        E 120 90 48 60
        E 0 90 56 60
        E 0 90 62 60
        E 120 80 48 00
        E 0 80 56 00
        E 0 80 62 00
        E 120 90 61 60
        E 120 80 61 00
        E 120 90 55 60
        E 0 90 61 60
        E 120 80 55 00
        E 0 80 61 00
        E 120 90 61 60
        E 120 80 61 00
        E 120 90 3d 60
        E 0 90 49 60
        E 0 90 56 60
        E 0 90 62 60
        E 120 80 3d 00
        E 0 80 49 00
        E 0 80 56 00
        E 0 80 62 00
        E 120 90 62 60
        E 120 80 62 00
        E 120 90 56 60
        E 0 90 62 60
        E 120 80 56 00
        E 0 80 62 00
        E 120 90 62 60
        E 120 80 62 00
        E 120 90 3d 60
        E 0 90 49 60
        E 0 90 56 60
        E 0 90 62 60
        E 120 80 3d 00
        E 0 80 49 00
        E 0 80 56 00
        E 0 80 62 00
        E 120 90 62 60
        E 120 80 62 00
        E 120 90 56 60
        E 0 90 62 60
        E 120 80 56 00
        E 0 80 62 00
        E 120 90 62 60
        E 120 80 62 00
        E 120 90 3e 60
        E 0 90 4a 60
        E 0 90 57 60
        E 0 90 63 60
        E 120 80 3e 00
        E 0 80 4a 00
        E 0 80 57 00
        E 0 80 63 00
        E 120 90 63 60
        E 120 80 63 00
        E 120 90 57 60
        E 0 90 63 60
        E 120 80 57 00
        E 0 80 63 00
        E 120 90 63 60
        E 120 80 63 00
        E 120 90 4b 60
        E 0 90 58 60
        E 0 90 64 60
        E 120 80 4b 00
        E 0 80 58 00
        E 0 80 64 00
        E 120 90 64 60
        E 120 80 64 00
        E 120 90 58 60
        E 0 90 64 60
        E 120 80 58 00
        E 0 80 64 00
        E 120 90 60 60
        E 120 80 60 00
        E 120 90 3c 60
        E 0 90 48 60
        E 0 90 55 60
        E 0 90 61 60
        E 120 80 3c 00
        E 0 80 48 00
        E 0 80 55 00
        E 0 80 61 00
        E 120 90 61 60
        E 120 80 61 00
        E 120 90 48 60
        E 0 90 55 60
        E 0 90 61 60
        E 120 80 48 00
        E 0 80 55 00
        E 0 80 61 00
        E 120 90 61 60
        E 120 80 61 00
        E 120 90 3c 60
        E 0 90 48 60
        E 0 90 55 60
        E 0 90 61 60
        E 120 80 3c 00
        E 0 80 48 00
        E 0 80 55 00
        E 0 80 61 00
        E 120 90 61 60
        E 120 80 61 00
        E 120 90 55 60
        E 0 90 61 60
        E 120 80 55 00
        E 0 80 61 00
        E 120 90 61 60
        E 120 80 61 00
        E 120 90 3c 60
        E 0 90 48 60
        E 0 90 55 60
        E 0 90 61 60
        E 120 80 3c 00
        E 0 80 48 00
        E 0 80 55 00
        E 0 80 61 00
        E 120 90 61 60
        E 120 80 61 00
        E 120 90 48 60
        E 0 90 55 60
        E 0 90 61 60
        E 120 80 48 00
        E 0 80 55 00
        E 0 80 61 00
        E 120 90 61 60
        E 120 80 61 00
        E 120 90 48 60
        E 0 90 55 60
        E 0 90 61 60
        E 120 80 48 00
        E 0 80 55 00
        E 0 80 61 00
        E 120 90 61 60
        E 120 80 61 00
        E 120 90 55 60
        E 0 90 61 60
        E 120 80 55 00
        E 0 80 61 00
        E 120 90 61 60
        E 120 80 61 00
        E 120 90 3d 60
        E 0 90 49 60
        E 0 90 56 60
        E 0 90 62 60
        E 0 90 74 60
        E 120 80 3d 00
        E 0 80 49 00
        E 0 80 56 00
        E 0 80 62 00
        E 120 90 62 60
        E 120 80 62 00
        E 120 90 56 60
        E 0 90 62 60
        E 120 80 56 00
        E 0 80 62 00
        E 120 90 62 60
        E 120 80 62 00
        E 120 90 3d 60
        E 0 90 49 60
        E 0 90 56 60
        E 0 90 62 60
        E 120 80 3d 00
        E 0 80 49 00
        E 0 80 56 00
        E 0 80 62 00
        E 120 90 62 60
        E 120 80 62 00
        E 120 90 56 60
        E 0 90 62 60
        E 120 80 56 00
        E 0 80 62 00
        E 120 90 62 60
        E 120 80 62 00
        E 120 90 3e 60
        E 0 90 4a 60
        E 0 90 57 60
        E 0 90 63 60
        E 120 80 3e 00
        E 0 80 4a 00
        E 0 80 57 00
        E 0 80 63 00
        E 120 90 63 60
        E 120 80 63 00
        E 120 90 57 60
        E 0 90 63 60
        E 120 80 57 00
        E 0 80 63 00
        E 120 90 63 60
        E 120 80 63 00
        E 120 90 4b 60
        E 0 90 58 60
        E 0 90 64 60
        E 120 80 4b 00
        E 0 80 58 00
        E 0 80 64 00
        E 120 90 64 60
        E 120 80 64 00
        E 120 90 58 60
        E 0 90 64 60
        E 120 80 58 00
        E 0 80 64 00
        E 120 90 64 60
        E 120 80 64 00
        E 120 90 3c 60
        E 0 90 48 60
        E 0 90 55 60
        E 0 90 61 60
        E 120 80 74 00
        E 0 80 3c 00
        E 0 80 48 00
        E 0 80 55 00
        E 0 80 61 00
        E 120 90 61 60
        E 120 80 61 00
        E 120 90 48 60
        E 0 90 55 60
        E 0 90 61 60
        E 120 80 48 00
        E 0 80 55 00
        E 0 80 61 00
        E 120 90 61 60
        E 120 80 61 00
        E 120 90 3c 60
        E 0 90 48 60
        E 0 90 55 60
        E 0 90 61 60
        E 120 80 3c 00
        E 0 80 48 00
        E 0 80 55 00
        E 0 80 61 00
        E 120 90 61 60
        E 120 80 61 00
        E 120 90 55 60
        E 0 90 61 60
        E 120 80 55 00
        E 0 80 61 00
        E 120 90 61 60
        E 120 80 61 00
        E 120 90 3c 60
        E 0 90 48 60
        E 0 90 55 60
        E 0 90 61 60
        E 120 80 3c 00
        E 0 80 48 00
        E 0 80 55 00
        E 0 80 61 00
        E 120 90 61 60
        E 120 80 61 00
        E 120 90 48 60
        E 0 90 55 60
        E 0 90 61 60
        E 120 80 48 00
        E 0 80 55 00
        E 0 80 61 00
        E 120 90 61 60
        E 120 80 61 00
        E 120 90 48 60
        E 0 90 55 60
        E 0 90 61 60
        E 120 80 48 00
        E 0 80 55 00
        E 0 80 61 00
        E 120 90 61 60
        E 120 80 61 00
        E 120 90 55 60
        E 0 90 61 60
        E 120 80 55 00
        E 0 80 61 00
        E 120 90 61 60
        E 120 80 61 00
        E 120 90 3d 60
        E 0 90 49 60
        E 0 90 56 60
        E 0 90 62 60
        E 120 80 3d 00
        E 0 80 49 00
        E 0 80 56 00
        E 0 80 62 00
        E 120 90 62 60
        E 120 80 62 00
        E 120 90 56 60
        E 0 90 62 60
        E 120 80 56 00
        E 0 80 62 00
        E 120 90 62 60
        E 120 80 62 00
        E 120 90 3d 60
        E 0 90 49 60
        E 0 90 56 60
        E 0 90 62 60
        E 120 80 3d 00
        E 0 80 49 00
        E 0 80 56 00
        E 0 80 62 00
        E 120 90 62 60
        E 120 80 62 00
        E 120 90 56 60
        E 0 90 62 60
        E 120 80 56 00
        E 0 80 62 00
        E 120 90 62 60
        E 120 80 62 00
        E 120 90 3e 60
        E 0 90 4a 60
        E 0 90 57 60
        E 0 90 63 60
        E 120 80 3e 00
        E 0 80 4a 00
        E 0 80 57 00
        E 0 80 63 00
        E 120 90 63 60
        E 120 80 63 00
        E 120 90 57 60
        E 0 90 63 60
        E 120 80 57 00
        E 0 80 63 00
        E 120 90 63 60
        E 120 80 63 00
        E 120 90 4b 60
        E 0 90 58 60
        E 0 90 64 60
        E 120 80 4b 00
        E 0 80 58 00
        E 0 80 64 00
        E 120 90 64 60
        E 120 80 64 00
        E 120 90 58 60
        E 0 90 64 60
        E 120 80 58 00
        E 0 80 64 00
        E 120 90 64 60
        E 120 80 64 00
        E 120 90 3d 60
        E 0 90 49 60
        E 0 90 56 60
        E 0 90 62 60
        E 120 80 3d 00
        E 0 80 49 00
        E 0 80 56 00
        E 0 80 62 00
        E 120 90 62 60
        E 120 80 62 00
        E 120 90 49 60
        E 0 90 56 60
        E 0 90 62 60
        E 120 80 49 00
        E 0 80 56 00
        E 0 80 62 00
        E 120 90 62 60
        E 120 80 62 00
        E 120 90 3d 60
        E 0 90 49 60
        E 0 90 56 60
        E 0 90 62 60
        E 120 80 3d 00
        E 0 80 49 00
        E 0 80 56 00
        E 0 80 62 00
        E 120 90 62 60
        E 120 80 62 00
        E 120 90 56 60
        E 0 90 62 60
        E 120 80 56 00
        E 0 80 62 00
        E 120 90 62 60
        E 120 80 62 00
        E 120 90 3d 60
        E 0 90 49 60
        E 0 90 56 60
        E 0 90 62 60
        E 120 80 3d 00
        E 0 80 49 00
        E 0 80 56 00
        E 0 80 62 00
        E 120 90 62 60
        E 120 80 62 00
        E 120 90 49 60
        E 0 90 56 60
        E 0 90 62 60
        E 120 80 49 00
        E 0 80 56 00
        E 0 80 62 00
        E 120 90 62 60
        E 120 80 62 00
        E 120 90 49 60
        E 0 90 56 60
        E 0 90 62 60
        E 120 80 49 00
        E 0 80 56 00
        E 0 80 62 00
        E 120 90 62 60
        E 120 80 62 00
        E 120 90 56 60
        E 0 90 62 60
        E 120 80 56 00
        E 0 80 62 00
        E 120 90 62 60
        E 120 80 62 00
        E 120 90 3c 60
        E 0 90 48 60
        E 0 90 55 60
        E 0 90 61 60
        E 120 80 3c 00
        E 0 80 48 00
        E 0 80 55 00
        E 0 80 61 00
        E 120 90 61 60
        E 120 80 61 00
        E 120 90 55 60
        E 0 90 61 60
        E 120 80 55 00
        E 0 80 61 00
        E 120 90 61 60
        E 120 80 61 00
        E 120 90 3c 60
        E 0 90 48 60
        E 0 90 55 60
        E 0 90 61 60
        E 120 80 3c 00
        E 0 80 48 00
        E 0 80 55 00
        E 0 80 61 00
        E 120 90 61 60
        E 120 80 61 00
        E 120 90 55 60
        E 0 90 61 60
        E 120 80 55 00
        E 0 80 61 00
        E 120 90 61 60
        E 120 80 61 00
        E 120 90 3d 60
        E 0 90 49 60
        E 0 90 56 60
        E 0 90 62 60
        E 120 80 3d 00
        E 0 80 49 00
        E 600 80 56 00
        E 0 80 62 00
        E 240 90 3e 60
        E 0 90 4a 60
        E 0 90 57 60
        E 0 90 63 60
        E 120 80 3e 00
        E 0 80 4a 00
        E 0 80 57 00
        E 0 80 63 00
        E 120 90 63 60
        E 120 80 63 00
        E 120 90 54 60
        E 0 90 60 60
        E 120 80 54 00
        E 0 80 60 00
        E 120 90 60 60
        E 120 80 60 00
        E 120 90 3c 60
        E 0 90 48 60
        E 0 90 55 60
        E 0 90 61 60
        E 120 80 3c 00
        E 0 80 48 00
        E 0 80 55 00
        E 0 80 61 00
        E 120 90 61 60
        E 120 80 61 00
        E 120 90 48 60
        E 0 90 55 60
        E 0 90 61 60
        E 120 80 48 00
        E 0 80 55 00
        E 0 80 61 00
        E 120 90 61 60
        E 120 80 61 00
        E 120 90 3c 60
        E 0 90 48 60
        E 0 90 55 60
        E 0 90 61 60
        E 120 80 3c 00
        E 0 80 48 00
        E 0 80 55 00
        E 0 80 61 00
        E 120 90 61 60
        E 120 80 61 00
        E 120 90 55 60
        E 0 90 61 60
        E 120 80 55 00
        E 0 80 61 00
        E 120 90 61 60
        E 120 80 61 00
        E 120 90 3c 60
        E 0 90 48 60
        E 0 90 55 60
        E 0 90 61 60
        E 120 80 3c 00
        E 0 80 48 00
        E 0 80 55 00
        E 0 80 61 00
        E 120 90 61 60
        E 120 80 61 00
        E 120 90 48 60
        E 0 90 55 60
        E 0 90 61 60
        E 120 80 48 00
        E 0 80 55 00
        E 0 80 61 00
        E 120 90 61 60
        E 120 80 61 00
        E 120 90 3c 60
        E 0 90 48 60
        E 0 90 55 60
        E 0 90 61 60
        E 120 80 3c 00
        E 0 80 48 00
        E 0 80 55 00
        E 0 80 61 00
        E 360 90 54 60
        E 0 90 60 60
        E 120 80 54 00
        E 0 80 60 00
        E 360 90 3c 60
        E 0 90 48 60
        E 0 90 55 60
        E 0 90 61 60
        E 120 80 3c 00
        E 0 80 48 00
        E 0 80 55 00
        E 0 80 61 00
        E 120 90 61 60
        E 120 80 61 00
        E 120 90 55 60
        E 0 90 61 60
        E 120 80 55 00
        E 0 80 61 00
        E 120 90 61 60
        E 120 80 61 00
        E 120 90 48 60
        E 0 90 55 60
        E 0 90 61 60
        E 120 80 48 00
        E 0 80 55 00
        E 0 80 61 00
        E 360 90 57 60
        E 0 90 63 60
        E 120 80 57 00
        E 0 80 63 00
        E 360 90 3f 60
        E 0 90 4b 60
        E 0 90 58 60
        E 0 90 64 60
        E 120 80 3f 00
        E 0 80 4b 00
        E 0 80 58 00
        E 0 80 64 00
        E 120 90 64 60
        E 120 80 64 00
        E 120 90 58 60
        E 0 90 64 60
        E 120 80 58 00
        E 0 80 64 00
        E 120 90 64 60
        E 120 80 64 00
        E 120 90 4b 60
        E 0 90 58 60
        E 0 90 64 60
        E 120 80 4b 00
        E 0 80 58 00
        E 0 80 64 00
        E 360 90 55 60
        E 0 90 61 60
        E 120 80 55 00
        E 0 80 61 00
        E 360 90 3e 60
        E 0 90 4a 60
        E 0 90 57 60
        E 0 90 63 60
        E 0 90 74 60
        E 120 80 3e 00
        E 0 80 4a 00
        E 0 80 57 00
        E 0 80 63 00
        E 120 90 63 60
        E 120 80 63 00
        E 120 90 57 60
        E 0 90 63 60
        E 120 80 57 00
        E 0 80 63 00
        E 120 90 63 60
        E 120 80 63 00
        E 120 90 4a 60
        E 0 90 57 60
        E 0 90 63 60
        E 120 80 4a 00
        E 0 80 57 00
        E 0 80 63 00
        E 360 90 55 60
        E 0 90 61 60
        E 120 80 55 00
        E 0 80 61 00
        E 360 90 3d 60
        E 0 90 49 60
        E 0 90 56 60
        E 0 90 62 60
        E 120 80 3d 00
        E 0 80 49 00
        E 0 80 56 00
        E 0 80 62 00
        E 120 90 62 60
        E 120 80 62 00
        E 120 90 56 60
        E 0 90 62 60
        E 120 80 56 00
        E 0 80 62 00
        E 120 90 62 60
        E 120 80 62 00
        E 120 90 49 60
        E 0 90 56 60
        E 0 90 62 60
        E 120 80 49 00
        E 0 80 56 00
        E 0 80 62 00
        E 360 90 54 60
        E 0 90 60 60
        E 120 80 54 00
        E 0 80 60 00
        E 360 80 74 00
        E 0 90 3c 60
        E 0 90 48 60
        E 0 90 55 60
        E 0 90 61 60
        E 120 80 3c 00
        E 0 80 48 00
        E 0 80 55 00
        E 0 80 61 00
        E 120 90 61 60
        E 120 80 61 00
        E 120 90 55 60
        E 0 90 61 60
        E 120 80 55 00
        E 0 80 61 00
        E 120 90 61 60
        E 120 80 61 00
        E 120 90 48 60
        E 0 90 55 60
        E 0 90 61 60
        E 120 80 48 00
        E 0 80 55 00
        E 0 80 61 00
        E 360 90 57 60
        E 0 90 63 60
        E 120 80 57 00
        E 0 80 63 00
        E 360 90 3f 60
        E 0 90 4b 60
        E 0 90 58 60
        E 0 90 64 60
        E 120 80 3f 00
        E 0 80 4b 00
        E 0 80 58 00
        E 0 80 64 00
        E 120 90 64 60
        E 120 80 64 00
        E 120 90 58 60
        E 0 90 64 60
        E 120 80 58 00
        E 0 80 64 00
        E 120 90 64 60
        E 120 80 64 00
        E 120 90 4b 60
        E 0 90 58 60
        E 0 90 64 60
        E 120 80 4b 00
        E 0 80 58 00
        E 0 80 64 00
        E 360 90 55 60
        E 0 90 61 60
        E 120 80 55 00
        E 0 80 61 00
        E 360 90 3e 60
        E 0 90 4a 60
        E 0 90 57 60
        E 0 90 63 60
        E 120 80 3e 00
        E 0 80 4a 00
        E 0 80 57 00
        E 0 80 63 00
        E 120 90 63 60
        E 120 80 63 00
        E 120 90 57 60
        E 0 90 63 60
        E 120 80 57 00
        E 0 80 63 00
        E 120 90 63 60
        E 120 80 63 00
        E 120 90 4a 60
        E 0 90 57 60
        E 0 90 63 60
        E 120 80 4a 00
        E 0 80 57 00
        E 0 80 63 00
        E 360 90 58 60
        E 0 90 64 60
        E 120 80 58 00
        E 0 80 64 00
        E 360 90 3d 60
        E 0 90 49 60
        E 0 90 56 60
        E 0 90 62 60
        E 120 80 3d 00
        E 0 80 49 00
        E 0 80 56 00
        E 0 80 62 00
        E 120 90 62 60
        E 120 80 62 00
        E 120 90 56 60
        E 0 90 62 60
        E 120 80 56 00
        E 0 80 62 00
        E 120 90 62 60
        E 120 80 62 00
        E 120 90 49 60
        E 0 90 56 60
        E 0 90 62 60
        E 120 80 49 00
        E 0 80 56 00
        E 0 80 62 00
        E 120 90 63 60
        E 120 80 63 00
        E 120 90 58 60
        E 0 90 64 60
        E 0 90 65 60
        E 120 80 58 00
        E 0 80 64 00
        E 0 80 65 00
        E 360 90 3c 60
        E 0 90 48 60
        E 0 90 55 60
        E 0 90 61 60
        E 120 80 3c 00
        E 0 80 48 00
        E 0 80 55 00
        E 0 80 61 00
        E 120 90 61 60
        E 120 80 61 00
        E 120 90 55 60
        E 0 90 61 60
        E 120 80 55 00
        E 0 80 61 00
        E 120 90 61 60
        E 120 80 61 00
        E 120 90 48 60
        E 0 90 55 60
        E 0 90 61 60
        E 120 80 48 00
        E 0 80 55 00
        E 0 80 61 00
        E 360 90 57 60
        E 0 90 63 60
        E 120 80 57 00
        E 0 80 63 00
        E 360 90 3f 60
        E 0 90 4b 60
        E 0 90 58 60
        E 0 90 64 60
        E 120 80 3f 00
        E 0 80 4b 00
        E 0 80 58 00
        E 0 80 64 00
        E 120 90 64 60
        E 120 80 64 00
        E 120 90 58 60
        E 0 90 64 60
        E 120 80 58 00
        E 0 80 64 00
        E 120 90 64 60
        E 120 80 64 00
        E 120 90 4b 60
        E 0 90 58 60
        E 0 90 64 60
        E 120 80 4b 00
        E 0 80 58 00
        E 0 80 64 00
        E 360 90 55 60
        E 0 90 61 60
        E 120 80 55 00
        E 0 80 61 00
        E 360 90 3e 60
        E 0 90 4a 60
        E 0 90 57 60
        E 0 90 63 60
        E 120 80 3e 00
        E 0 80 4a 00
        E 0 80 57 00
        E 0 80 63 00
        E 120 90 63 60
        E 120 80 63 00
        E 120 90 57 60
        E 0 90 63 60
        E 120 80 57 00
        E 0 80 63 00
        E 120 90 63 60
        E 120 80 63 00
        E 120 90 4a 60
        E 0 90 57 60
        E 0 90 63 60
        E 120 80 4a 00
        E 0 80 57 00
        E 0 80 63 00
        E 360 90 55 60
        E 0 90 61 60
        E 120 80 55 00
        E 0 80 61 00
        E 360 90 3d 60
        E 0 90 49 60
        E 0 90 56 60
        E 0 90 62 60
        E 120 80 3d 00
        E 0 80 49 00
        E 0 80 56 00
        E 0 80 62 00
        E 120 90 62 60
        E 120 80 62 00
        E 120 90 56 60
        E 0 90 62 60
        E 120 80 56 00
        E 0 80 62 00
        E 120 90 62 60
        E 120 80 62 00
        E 120 90 49 60
        E 0 90 56 60
        E 0 90 62 60
        E 120 80 49 00
        E 0 80 56 00
        E 0 80 62 00
        E 360 90 54 60
        E 0 90 60 60
        E 120 80 54 00
        E 0 80 60 00
        E 360 90 3c 60
        E 0 90 48 60
        E 0 90 55 60
        E 0 90 61 60
        E 120 80 3c 00
        E 0 80 48 00
        E 0 80 55 00
        E 0 80 61 00
        E 120 90 61 60
        E 120 80 61 00
        E 120 90 55 60
        E 0 90 61 60
        E 120 80 55 00
        E 0 80 61 00
        E 120 90 61 60
        E 120 80 61 00
        E 120 90 48 60
        E 0 90 55 60
        E 0 90 61 60
        E 120 80 48 00
        E 0 80 55 00
        E 0 80 61 00
        E 360 90 57 60
        E 0 90 63 60
        E 120 80 57 00
        E 0 80 63 00
        E 360 90 3f 60
        E 0 90 4b 60
        E 0 90 58 60
        E 0 90 64 60
        E 120 80 3f 00
        E 0 80 4b 00
        E 0 80 58 00
        E 0 80 64 00
        E 120 90 64 60
        E 120 80 64 00
        E 120 90 58 60
        E 0 90 64 60
        E 120 80 58 00
        E 0 80 64 00
        E 120 90 64 60
        E 120 80 64 00
        E 120 90 4b 60
        E 0 90 58 60
        E 0 90 64 60
        E 120 80 4b 00
        E 0 80 58 00
        E 0 80 64 00
        E 360 90 55 60
        E 0 90 61 60
        E 120 80 55 00
        E 0 80 61 00
        E 360 90 3e 60
        E 0 90 4a 60
        E 0 90 57 60
        E 0 90 63 60
        E 120 80 3e 00
        E 0 80 4a 00
        E 0 80 57 00
        E 0 80 63 00
        E 120 90 63 60
        E 120 80 63 00
        E 120 90 57 60
        E 0 90 63 60
        E 120 80 57 00
        E 0 80 63 00
        E 120 90 63 60
        E 120 80 63 00
        E 120 90 4a 60
        E 0 90 57 60
        E 0 90 63 60
        E 120 80 4a 00
        E 0 80 57 00
        E 0 80 63 00
        E 360 90 58 60
        E 0 90 64 60
        E 120 80 58 00
        E 0 80 64 00
        E 360 90 3d 60
        E 0 90 49 60
        E 0 90 56 60
        E 0 90 62 60
        E 0 90 74 60
        E 120 80 3d 00
        E 0 80 49 00
        E 0 80 56 00
        E 0 80 62 00
        E 120 90 62 60
        E 120 80 62 00
        E 120 90 56 60
        E 0 90 62 60
        E 120 80 56 00
        E 0 80 62 00
        E 120 90 62 60
        E 120 80 62 00
        E 120 90 48 60
        E 0 90 56 60
        E 0 90 62 60
        E 120 80 48 00
        E 0 80 56 00
        E 0 80 62 00
        E 120 90 61 60
        E 120 80 61 00
        E 120 90 55 60
        E 0 90 61 60
        E 120 80 55 00
        E 0 80 61 00
        E 120 90 61 60
        E 120 80 61 00
        E 120 90 3d 60
        E 0 90 49 60
        E 0 90 56 60
        E 0 90 62 60
        E 120 80 74 00
        E 0 80 3d 00
        E 0 80 49 00
        E 0 80 56 00
        E 0 80 62 00
        E 120 90 62 60
        E 120 80 62 00
        E 120 90 56 60
        E 0 90 62 60
        E 120 80 56 00
        E 0 80 62 00
        E 120 90 62 60
        E 120 80 62 00
        E 120 90 3d 60
        E 0 90 49 60
        E 0 90 56 60
        E 0 90 62 60
        E 120 80 3d 00
        E 0 80 49 00
        E 0 80 56 00
        E 0 80 62 00
        E 120 90 62 60
        E 120 80 62 00
        E 120 90 56 60
        E 0 90 62 60
        E 120 80 56 00
        E 0 80 62 00
        E 120 90 62 60
        E 120 80 62 00
        E 120 90 3e 60
        E 0 90 4a 60
        E 0 90 57 60
        E 0 90 63 60
        E 120 80 3e 00
        E 0 80 4a 00
        E 0 80 57 00
        E 0 80 63 00
        E 120 90 63 60
        E 120 80 63 00
        E 120 90 57 60
        E 0 90 63 60
        E 120 80 57 00
        E 0 80 63 00
        E 120 90 63 60
        E 120 80 63 00
        E 120 90 4b 60
        E 0 90 58 60
        E 0 90 64 60
        E 120 80 4b 00
        E 0 80 58 00
        E 0 80 64 00
        E 120 90 64 60
        E 120 80 64 00
        E 120 90 58 60
        E 0 90 64 60
        E 120 80 58 00
        E 0 80 64 00
        E 120 90 60 60
        E 120 80 60 00
        E 120 90 3c 60
        E 0 90 48 60
        E 0 90 55 60
        E 0 90 61 60
        E 120 80 3c 00
        E 0 80 48 00
        E 0 80 55 00
        E 0 80 61 00
        E 120 90 61 60
        E 120 80 61 00
        E 120 90 48 60
        E 0 90 55 60
        E 0 90 61 60
        E 120 80 48 00
        E 0 80 55 00
        E 0 80 61 00
        E 120 90 61 60
        E 120 80 61 00
        E 120 90 3c 60
        E 0 90 48 60
        E 0 90 55 60
        E 0 90 61 60
        E 120 80 3c 00
        E 0 80 48 00
        E 0 80 55 00
        E 0 80 61 00
        E 120 90 61 60
        E 120 80 61 00
        E 120 90 55 60
        E 0 90 61 60
        E 120 80 55 00
        E 0 80 61 00
        E 120 90 61 60
        E 120 80 61 00
        E 120 90 3c 60
        E 0 90 48 60
        E 0 90 55 60
        E 0 90 61 60
        E 120 80 3c 00
        E 0 80 48 00
        E 0 80 55 00
        E 0 80 61 00
        E 120 90 61 60
        E 120 80 61 00
        E 120 90 48 60
        E 0 90 55 60
        E 0 90 61 60
        E 120 80 48 00
        E 0 80 55 00
        E 0 80 61 00
        E 120 90 61 60
        E 120 80 61 00
        E 120 90 48 60
        E 0 90 55 60
        E 0 90 61 60
        E 120 80 48 00
        E 0 80 55 00
        E 0 80 61 00
        E 120 90 61 60
        E 120 80 61 00
        E 120 90 55 60
        E 0 90 61 60
        E 120 80 55 00
        E 0 80 61 00
        E 120 90 61 60
        E 120 80 61 00
        E 120 90 3d 60
        E 0 90 49 60
        E 0 90 56 60
        E 0 90 62 60
        E 120 80 3d 00
        E 0 80 49 00
        E 0 80 56 00
        E 0 80 62 00
        E 120 90 62 60
        E 120 80 62 00
        E 120 90 56 60
        E 0 90 62 60
        E 120 80 56 00
        E 0 80 62 00
        E 120 90 62 60
        E 120 80 62 00
        E 120 90 3d 60
        E 0 90 49 60
        E 0 90 56 60
        E 0 90 62 60
        E 120 80 3d 00
        E 0 80 49 00
        E 0 80 56 00
        E 0 80 62 00
        E 120 90 62 60
        E 120 80 62 00
        E 120 90 56 60
        E 0 90 62 60
        E 120 80 56 00
        E 0 80 62 00
        E 120 90 62 60
        E 120 80 62 00
        E 120 90 3e 60
        E 0 90 4a 60
        E 0 90 57 60
        E 0 90 63 60
        E 120 80 3e 00
        E 0 80 4a 00
        E 0 80 57 00
        E 0 80 63 00
        E 120 90 63 60
        E 120 80 63 00
        E 120 90 57 60
        E 0 90 63 60
        E 120 80 57 00
        E 0 80 63 00
        E 120 90 63 60
        E 120 80 63 00
        E 120 90 4b 60
        E 0 90 58 60
        E 0 90 64 60
        E 120 80 4b 00
        E 0 80 58 00
        E 0 80 64 00
        E 120 90 64 60
        E 120 80 64 00
        E 120 90 58 60
        E 0 90 64 60
        E 120 80 58 00
        E 0 80 64 00
        E 120 90 64 60
        E 120 80 64 00
        E 120 90 3c 60
        E 0 90 48 60
        E 0 90 55 60
        E 0 90 61 60
        E 120 80 3c 00
        E 0 80 48 00
        E 0 80 55 00
        E 0 80 61 00
        E 120 90 61 60
        E 120 80 61 00
        E 120 90 48 60
        E 0 90 55 60
        E 0 90 61 60
        E 120 80 48 00
        E 0 80 55 00
        E 0 80 61 00
        E 120 90 61 60
        E 120 80 61 00
        E 120 90 3c 60
        E 0 90 48 60
        E 0 90 55 60
        E 0 90 61 60
        E 120 80 3c 00
        E 0 80 48 00
        E 0 80 55 00
        E 0 80 61 00
        E 120 90 61 60
        E 120 80 61 00
        E 120 90 55 60
        E 0 90 61 60
        E 120 80 55 00
        E 0 80 61 00
        E 120 90 61 60
        E 120 80 61 00
        E 120 90 3c 60
        E 0 90 48 60
        E 0 90 55 60
        E 0 90 61 60
        E 120 80 3c 00
        E 0 80 48 00
        E 0 80 55 00
        E 0 80 61 00
        E 120 90 61 60
        E 120 80 61 00
        E 120 90 48 60
        E 0 90 55 60
        E 0 90 61 60
        E 120 80 48 00
        E 0 80 55 00
        E 0 80 61 00
        E 120 90 61 60
        E 120 80 61 00
        E 120 90 48 60
        E 0 90 55 60
        E 0 90 61 60
        E 120 80 48 00
        E 0 80 55 00
        E 0 80 61 00
        E 120 90 61 60
        E 120 80 61 00
        E 120 90 55 60
        E 0 90 61 60
        E 120 80 55 00
        E 0 80 61 00
        E 120 90 61 60
        E 120 80 61 00
        E 120 90 3d 60
        E 0 90 49 60
        E 0 90 56 60
        E 0 90 62 60
        E 0 90 74 60
        E 120 80 3d 00
        E 0 80 49 00
        E 0 80 56 00
        E 0 80 62 00
        E 120 90 62 60
        E 120 80 62 00
        E 120 90 56 60
        E 0 90 62 60
        E 120 80 56 00
        E 0 80 62 00
        E 120 90 62 60
        E 120 80 62 00
        E 120 90 3d 60
        E 0 90 49 60
        E 0 90 56 60
        E 0 90 62 60
        E 120 80 3d 00
        E 0 80 49 00
        E 0 80 56 00
        E 0 80 62 00
        E 120 90 62 60
        E 120 80 62 00
        E 120 90 56 60
        E 0 90 62 60
        E 120 80 56 00
        E 0 80 62 00
        E 120 90 62 60
        E 120 80 62 00
        E 120 90 3e 60
        E 0 90 4a 60
        E 0 90 57 60
        E 0 90 63 60
        E 120 80 3e 00
        E 0 80 4a 00
        E 0 80 57 00
        E 0 80 63 00
        E 120 90 63 60
        E 120 80 63 00
        E 120 90 57 60
        E 0 90 63 60
        E 120 80 57 00
        E 0 80 63 00
        E 120 90 63 60
        E 120 80 63 00
        E 120 90 4b 60
        E 0 90 58 60
        E 0 90 64 60
        E 120 80 4b 00
        E 0 80 58 00
        E 0 80 64 00
        E 120 90 64 60
        E 120 80 64 00
        E 120 90 58 60
        E 0 90 64 60
        E 120 80 58 00
        E 0 80 64 00
        E 120 90 61 60
        E 120 80 61 00
        E 120 90 3d 60
        E 0 90 49 60
        E 0 90 56 60
        E 0 90 62 60
        E 120 80 74 00
        E 0 80 3d 00
        E 0 80 49 00
        E 0 80 56 00
        E 0 80 62 00
        E 120 90 62 60
        E 120 80 62 00
        E 120 90 49 60
        E 0 90 56 60
        E 0 90 62 60
        E 120 80 49 00
        E 0 80 56 00
        E 0 80 62 00
        E 120 90 62 60
        E 120 80 62 00
        E 120 90 3d 60
        E 0 90 49 60
        E 0 90 56 60
        E 0 90 62 60
        E 120 80 3d 00
        E 0 80 49 00
        E 0 80 56 00
        E 0 80 62 00
        E 120 90 62 60
        E 120 80 62 00
        E 120 90 56 60
        E 0 90 62 60
        E 120 80 56 00
        E 0 80 62 00
        E 120 90 62 60
        E 120 80 62 00
        E 120 90 3d 60
        E 0 90 49 60
        E 0 90 56 60
        E 0 90 62 60
        E 120 80 3d 00
        E 0 80 49 00
        E 0 80 56 00
        E 0 80 62 00
        E 120 90 62 60
        E 120 80 62 00
        E 120 90 49 60
        E 0 90 56 60
        E 0 90 62 60
        E 120 80 49 00
        E 0 80 56 00
        E 0 80 62 00
        E 120 90 62 60
        E 120 80 62 00
        E 120 90 49 60
        E 0 90 56 60
        E 0 90 62 60
        E 120 80 49 00
        E 0 80 56 00
        E 0 80 62 00
        E 120 90 62 60
        E 120 80 62 00
        E 120 90 56 60
        E 0 90 62 60
        E 120 80 56 00
        E 0 80 62 00
        E 120 90 62 60
        E 120 80 62 00
        E 120 90 3c 60
        E 0 90 48 60
        E 0 90 55 60
        E 0 90 61 60
        E 120 80 3c 00
        E 0 80 48 00
        E 0 80 55 00
        E 0 80 61 00
        E 120 90 61 60
        E 120 80 61 00
        E 120 90 55 60
        E 0 90 61 60
        E 120 80 55 00
        E 0 80 61 00
        E 120 90 61 60
        E 120 80 61 00
        E 120 90 3c 60
        E 0 90 48 60
        E 0 90 55 60
        E 0 90 61 60
        E 120 80 3c 00
        E 0 80 48 00
        E 0 80 55 00
        E 0 80 61 00
        E 120 90 61 60
        E 120 80 61 00
        E 120 90 55 60
        E 0 90 61 60
        E 120 80 55 00
        E 0 80 61 00
        E 120 90 61 60
        E 120 80 61 00
        E 120 90 3d 60
        E 0 90 49 60
        E 0 90 56 60
        E 0 90 62 60
        E 120 80 3d 00
        E 0 80 49 00
        E 0 80 56 00
        E 0 80 62 00
        E 120 90 62 60
        E 120 80 62 00
        E 120 90 56 60
        E 0 90 62 60
        E 120 80 56 00
        E 0 80 62 00
        E 120 90 62 60
        E 120 80 62 00
        E 120 90 4a 60
        E 0 90 57 60
        E 0 90 63 60
        E 120 80 4a 00
        E 0 80 57 00
        E 0 80 63 00
        E 120 90 63 60
        E 120 80 63 00
        E 120 90 57 60
        E 0 90 63 60
        E 120 80 57 00
        E 0 80 63 00
        E 120 90 63 60
        E 120 80 63 00
        E 120 90 3c 60
        E 0 90 48 60
        E 0 90 55 60
        E 0 90 61 60
        E 120 80 3c 00
        E 0 80 48 00
        E 0 80 55 00
        E 0 80 61 00
        E 120 90 61 60
        E 120 80 61 00
        E 120 90 48 60
        E 0 90 55 60
        E 0 90 61 60
        E 120 80 48 00
        E 0 80 55 00
        E 0 80 61 00
        E 120 90 61 60
        E 120 80 61 00
        E 120 90 3c 60
        E 0 90 48 60
        E 0 90 55 60
        E 0 90 61 60
        E 120 80 3c 00
        E 0 80 48 00
        E 0 80 55 00
        E 0 80 61 00
        E 120 90 61 60
        E 120 80 61 00
        E 120 90 55 60
        E 0 90 61 60
        E 120 80 55 00
        E 0 80 61 00
        E 120 90 61 60
        E 120 80 61 00
        E 120 90 3c 60
        E 0 90 48 60
        E 0 90 55 60
        E 0 90 61 60
        E 120 80 3c 00
        E 0 80 48 00
        E 0 80 55 00
        E 0 80 61 00
        E 120 90 61 60
        E 120 80 61 00
        E 120 90 48 60
        E 0 90 55 60
        E 0 90 61 60
        E 120 80 48 00
        E 0 80 55 00
        E 0 80 61 00
        E 120 90 61 60
        E 120 80 61 00
        E 120 90 3c 60
        E 0 90 48 60
        E 0 90 55 60
        E 0 90 61 60
        E 120 80 3c 00
        E 0 80 48 00
        E 0 80 55 00
        E 0 80 61 00
        E 360 90 54 60
        E 0 90 60 60
        E 120 80 54 00
        E 0 80 60 00
        E 360 90 3c 60
        E 0 90 48 60
        E 0 90 54 60
        E 0 90 60 60
        E 0 90 67 60
        E 720 80 3c 00
        E 0 80 48 00
        E 0 80 54 00
        E 0 80 60 00
        E 720 90 54 60
        E 0 90 55 60
        E 0 90 60 60
        E 120 80 54 00
        E 0 80 55 00
        E 0 80 60 00
        E 360 90 3e 60
        E 0 90 48 60
        E 0 90 4a 60
        E 0 90 55 60
        E 0 90 57 60
        E 0 90 61 60
        E 0 90 63 60
        E 120 80 3e 00
        E 0 80 48 00
        E 0 80 4a 00
        E 360 80 61 00
        E 0 80 63 00
        E 120 80 55 00
        E 0 80 57 00
        E 120 90 61 60
        E 120 80 61 00
        E 120 90 49 60
        E 0 90 4a 60
        E 0 90 56 60
        E 0 90 58 60
        E 0 90 62 60
        E 0 90 64 60
        E 0 90 65 60
        E 120 80 49 00
        E 0 80 4a 00
        E 360 80 62 00
        E 0 80 64 00
        E 0 80 65 00
        E 120 80 56 00
        E 0 80 58 00
        E 120 90 60 60
        E 120 80 60 00
        E 120 90 3d 60
        E 0 90 48 60
        E 0 90 49 60
        E 0 90 55 60
        E 0 90 56 60
        E 0 90 61 60
        E 0 90 62 60
        E 0 90 65 60
        E 120 80 3d 00
        E 0 80 48 00
        E 0 80 49 00
        E 0 80 55 00
        E 0 80 56 00
        E 360 80 61 00
        E 0 80 62 00
        E 0 80 65 00
        E 960 90 48 60
        E 0 90 54 60
        E 0 90 60 60
        E 120 80 48 00
        E 0 80 54 00
        E 0 80 60 00
        E 120 90 60 60
        E 120 80 60 00
        E 600 90 54 60
        E 0 90 60 60
        E 120 80 54 00
        E 0 80 60 00
        E 120 90 60 60
        E 120 80 60 00
        E 600 90 54 60
        E 0 90 60 60
        E 120 80 54 00
        E 0 80 60 00
        E 120 90 60 60
        E 120 80 60 00
        E 120 90 3c 60
        E 0 90 48 60
        E 0 90 49 60
        E 0 90 55 60
        E 0 90 57 60
        E 0 90 60 60
        E 0 90 62 60
        E 120 80 3c 00
        E 0 80 48 00
        E 0 80 49 00
        E 0 80 55 00
        E 0 80 57 00
        E 360 80 60 00
        E 0 80 62 00
        E 960 90 55 60
        E 0 90 61 60
        E 120 80 55 00
        E 0 80 61 00
        E 120 90 61 60
        E 120 80 61 00
        E 120 90 3c 60
        E 0 90 48 60
        E 0 90 4a 60
        E 0 90 55 60
        E 0 90 57 60
        E 0 90 61 60
        E 0 90 63 60
        E 0 90 74 60
        E 120 80 3c 00
        E 0 80 48 00
        E 0 80 4a 00
        E 360 80 61 00
        E 0 80 63 00
        E 120 80 55 00
        E 0 80 57 00
        E 360 90 3e 60
        E 0 90 49 60
        E 0 90 4a 60
        E 0 90 56 60
        E 0 90 58 60
        E 0 90 62 60
        E 0 90 64 60
        E 120 80 3e 00
        E 0 80 49 00
        E 0 80 4a 00
        E 360 80 62 00
        E 0 80 64 00
        E 120 80 56 00
        E 0 80 58 00
        E 120 90 60 60
        E 120 80 60 00
        E 120 90 3d 60
        E 0 90 48 60
        E 0 90 49 60
        E 0 90 55 60
        E 0 90 56 60
        E 0 90 61 60
        E 0 90 62 60
        E 0 90 65 60
        E 120 80 3d 00
        E 0 80 48 00
        E 0 80 49 00
        E 0 80 55 00
        E 0 80 56 00
        E 360 80 61 00
        E 0 80 62 00
        E 0 80 65 00
        E 960 90 48 60
        E 0 90 54 60
        E 0 90 60 60
        E 120 80 48 00
        E 0 80 54 00
        E 0 80 60 00
        E 120 90 60 60
        E 120 80 60 00
        E 600 90 54 60
        E 0 90 60 60
        E 120 80 54 00
        E 0 80 60 00
        E 120 90 60 60
        E 120 80 60 00
        E 600 90 54 60
        E 0 90 60 60
        E 120 80 54 00
        E 0 80 60 00
        E 120 90 61 60
        E 120 80 61 00
        E 120 90 3c 60
        E 0 90 48 60
        E 0 90 49 60
        E 0 90 54 60
        E 0 90 55 60
        E 0 90 60 60
        E 0 90 61 60
        E 0 90 65 60
        E 120 80 3c 00
        E 0 80 48 00
        E 0 80 49 00
        E 0 80 54 00
        E 0 80 55 00
        E 360 80 74 00
        E 0 80 60 00
        E 0 80 61 00
        E 0 80 65 00
        E 960 90 55 60
        E 0 90 61 60
        E 120 80 55 00
        E 0 80 61 00
        E 120 90 61 60
        E 120 80 61 00
        E 120 90 3c 60
        E 0 90 48 60
        E 0 90 4a 60
        E 0 90 55 60
        E 0 90 57 60
        E 0 90 61 60
        E 0 90 63 60
        E 120 80 3c 00
        E 0 80 48 00
        E 0 80 4a 00
        E 360 80 61 00
        E 0 80 63 00
        E 120 80 55 00
        E 0 80 57 00
        E 120 90 61 60
        E 120 80 61 00
        E 120 90 3e 60
        E 0 90 49 60
        E 0 90 4a 60
        E 0 90 56 60
        E 0 90 58 60
        E 0 90 62 60
        E 0 90 64 60
        E 0 90 65 60
        E 120 80 3e 00
        E 0 80 49 00
        E 0 80 4a 00
        E 360 80 62 00
        E 0 80 64 00
        E 0 80 65 00
        E 120 80 56 00
        E 0 80 58 00
        E 120 90 60 60
        E 120 80 60 00
        E 120 90 3d 60
        E 0 90 48 60
        E 0 90 49 60
        E 0 90 55 60
        E 0 90 56 60
        E 0 90 61 60
        E 0 90 62 60
        E 0 90 65 60
        E 120 80 3d 00
        E 0 80 48 00
        E 0 80 49 00
        E 0 80 55 00
        E 0 80 56 00
        E 360 80 61 00
        E 0 80 62 00
        E 0 80 65 00
        E 960 90 48 60
        E 0 90 54 60
        E 0 90 60 60
        E 120 80 48 00
        E 0 80 54 00
        E 0 80 60 00
        E 120 90 60 60
        E 120 80 60 00
        E 600 90 48 60
        E 0 90 54 60
        E 0 90 60 60
        E 120 80 48 00
        E 0 80 54 00
        E 0 80 60 00
        E 120 90 60 60
        E 120 80 60 00
        E 600 90 54 60
        E 0 90 60 60
        E 120 80 54 00
        E 0 80 60 00
        E 360 90 3c 60
        E 0 90 48 60
        E 0 90 49 60
        E 0 90 55 60
        E 0 90 57 60
        E 0 90 60 60
        E 0 90 62 60
        E 120 80 3c 00
        E 0 80 48 00
        E 0 80 49 00
        E 0 80 55 00
        E 0 80 57 00
        E 360 80 60 00
        E 0 80 62 00
        E 960 90 55 60
        E 0 90 61 60
        E 120 80 55 00
        E 0 80 61 00
        E 120 90 61 60
        E 120 80 61 00
        E 120 90 3c 60
        E 0 90 48 60
        E 0 90 4a 60
        E 0 90 55 60
        E 0 90 57 60
        E 0 90 61 60
        E 0 90 63 60
        E 120 80 3c 00
        E 0 80 48 00
        E 0 80 4a 00
        E 360 80 61 00
        E 0 80 63 00
        E 120 80 55 00
        E 0 80 57 00
        E 120 90 61 60
        E 120 80 61 00
        E 120 90 3e 60
        E 0 90 49 60
        E 0 90 4a 60
        E 0 90 56 60
        E 0 90 58 60
        E 0 90 62 60
        E 0 90 64 60
        E 0 90 65 60
        E 120 80 3e 00
        E 0 80 49 00
        E 0 80 4a 00
        E 360 80 62 00
        E 0 80 64 00
        E 0 80 65 00
        E 120 80 56 00
        E 0 80 58 00
        E 120 90 60 60
        E 120 80 60 00
        E 120 90 3d 60
        E 0 90 49 60
        E 0 90 55 60
        E 0 90 61 60
        E 120 80 3d 00
        E 0 80 49 00
        E 0 80 55 00
        E 0 80 61 00
        E 360 90 49 60
        E 0 90 55 60
        E 0 90 61 60
        E 120 80 49 00
        E 0 80 55 00
        E 0 80 61 00
        E 360 90 3d 60
        E 0 90 49 60
        E 0 90 55 60
        E 0 90 61 60
        E 120 80 3d 00
        E 0 80 49 00
        E 0 80 55 00
        E 0 80 61 00
        E 360 90 55 60
        E 0 90 61 60
        E 120 80 55 00
        E 0 80 61 00
        E 360 90 3d 60
        E 0 90 49 60
        E 0 90 55 60
        E 0 90 61 60
        E 0 90 74 60
        E 120 80 3d 00
        E 0 80 49 00
        E 0 80 55 00
        E 0 80 61 00
        E 360 90 55 60
        E 0 90 61 60
        E 120 80 55 00
        E 0 80 61 00
        E 360 90 3d 60
        E 0 90 49 60
        E 0 90 55 60
        E 0 90 61 60
        E 120 80 3d 00
        E 0 80 49 00
        E 0 80 55 00
        E 0 80 61 00
        E 360 90 48 60
        E 0 90 54 60
        E 0 90 60 60
        E 120 80 48 00
        E 0 80 54 00
        E 0 80 60 00
        E 120 80 67 00
        E 240 90 3c 60
        E 0 90 49 60
        E 0 90 55 60
        E 0 90 61 60
        E 120 80 3c 00
        E 0 80 49 00
        E 0 80 55 00
        E 0 80 61 00
        E 120 90 61 60
        E 120 80 61 00
        E 120 90 55 60
        E 0 90 61 60
        E 120 80 55 00
        E 0 80 61 00
        E 120 90 61 60
        E 120 80 61 00
        E 120 90 49 60
        E 0 90 55 60
        E 0 90 61 60
        E 120 80 49 00
        E 0 80 55 00
        E 0 80 61 00
        E 360 90 57 60
        E 0 90 63 60
        E 120 80 57 00
        E 0 80 63 00
        E 360 80 74 00
        E 0 90 3f 60
        E 0 90 4b 60
        E 0 90 58 60
        E 0 90 64 60
        E 120 80 3f 00
        E 0 80 4b 00
        E 0 80 58 00
        E 0 80 64 00
        E 120 90 64 60
        E 120 80 64 00
        E 120 90 58 60
        E 0 90 64 60
        E 120 80 58 00
        E 0 80 64 00
        E 120 90 64 60
        E 120 80 64 00
        E 120 90 4b 60
        E 0 90 58 60
        E 0 90 64 60
        E 120 80 4b 00
        E 0 80 58 00
        E 0 80 64 00
        E 360 90 55 60
        E 0 90 61 60
        E 120 80 55 00
        E 0 80 61 00
        E 360 90 3e 60
        E 0 90 4a 60
        E 0 90 57 60
        E 0 90 63 60
        E 120 80 3e 00
        E 0 80 4a 00
        E 0 80 57 00
        E 0 80 63 00
        E 120 90 63 60
        E 120 80 63 00
        E 120 90 57 60
        E 0 90 63 60
        E 120 80 57 00
        E 0 80 63 00
        E 120 90 63 60
        E 120 80 63 00
        E 120 90 4a 60
        E 0 90 57 60
        E 0 90 63 60
        E 120 80 4a 00
        E 0 80 57 00
        E 0 80 63 00
        E 360 90 55 60
        E 0 90 61 60
        E 120 80 55 00
        E 0 80 61 00
        E 360 90 3d 60
        E 0 90 49 60
        E 0 90 56 60
        E 0 90 62 60
        E 120 80 3d 00
        E 0 80 49 00
        E 0 80 56 00
        E 0 80 62 00
        E 120 90 62 60
        E 120 80 62 00
        E 120 90 56 60
        E 0 90 62 60
        E 120 80 56 00
        E 0 80 62 00
        E 120 90 62 60
        E 120 80 62 00
        E 120 90 49 60
        E 0 90 56 60
        E 0 90 62 60
        E 120 80 49 00
        E 0 80 56 00
        E 0 80 62 00
        E 120 90 60 60
        E 120 80 60 00
        E 120 90 54 60
        E 0 90 60 60
        E 120 80 54 00
        E 0 80 60 00
        E 360 90 3c 60
        E 0 90 48 60
        E 0 90 55 60
        E 0 90 61 60
        E 120 80 3c 00
        E 0 80 48 00
        E 0 80 55 00
        E 0 80 61 00
        E 120 90 61 60
        E 120 80 61 00
        E 120 90 55 60
        E 0 90 61 60
        E 120 80 55 00
        E 0 80 61 00
        E 120 90 61 60
        E 120 80 61 00
        E 120 90 48 60
        E 0 90 55 60
        E 0 90 61 60
        E 120 80 48 00
        E 0 80 55 00
        E 0 80 61 00
        E 360 90 57 60
        E 0 90 63 60
        E 120 80 57 00
        E 0 80 63 00
        E 360 90 3f 60
        E 0 90 4b 60
        E 0 90 58 60
        E 0 90 64 60
        E 120 80 3f 00
        E 0 80 4b 00
        E 0 80 58 00
        E 0 80 64 00
        E 120 90 64 60
        E 120 80 64 00
        E 120 90 58 60
        E 0 90 64 60
        E 120 80 58 00
        E 0 80 64 00
        E 120 90 64 60
        E 120 80 64 00
        E 120 90 4b 60
        E 0 90 58 60
        E 0 90 64 60
        E 120 80 4b 00
        E 0 80 58 00
        E 0 80 64 00
        E 360 90 55 60
        E 0 90 61 60
        E 120 80 55 00
        E 0 80 61 00
        E 360 90 3e 60
        E 0 90 4a 60
        E 0 90 57 60
        E 0 90 63 60
        E 120 80 3e 00
        E 0 80 4a 00
        E 0 80 57 00
        E 0 80 63 00
        E 120 90 63 60
        E 120 80 63 00
        E 120 90 57 60
        E 0 90 63 60
        E 120 80 57 00
        E 0 80 63 00
        E 120 90 63 60
        E 120 80 63 00
        E 120 90 4a 60
        E 0 90 57 60
        E 0 90 63 60
        E 120 80 4a 00
        E 0 80 57 00
        E 0 80 63 00
        E 360 90 58 60
        E 0 90 64 60
        E 120 80 58 00
        E 0 80 64 00
        E 360 90 3d 60
        E 0 90 49 60
        E 0 90 56 60
        E 0 90 62 60
        E 120 80 3d 00
        E 0 80 49 00
        E 0 80 56 00
        E 0 80 62 00
        E 120 90 62 60
        E 120 80 62 00
        E 120 90 56 60
        E 0 90 62 60
        E 120 80 56 00
        E 0 80 62 00
        E 120 90 62 60
        E 120 80 62 00
        E 120 90 49 60
        E 0 90 56 60
        E 0 90 62 60
        E 120 80 49 00
        E 0 80 56 00
        E 0 80 62 00
        E 120 90 63 60
        E 120 80 63 00
        E 120 90 58 60
        E 0 90 64 60
        E 0 90 65 60
        E 120 80 58 00
        E 0 80 64 00
        E 0 80 65 00
        E 360 90 3c 60
        E 0 90 48 60
        E 0 90 55 60
        E 0 90 61 60
        E 120 80 3c 00
        E 0 80 48 00
        E 0 80 55 00
        E 0 80 61 00
        E 120 90 61 60
        E 120 80 61 00
        E 120 90 55 60
        E 0 90 61 60
        E 120 80 55 00
        E 0 80 61 00
        E 120 90 61 60
        E 120 80 61 00
        E 120 90 48 60
        E 0 90 55 60
        E 0 90 61 60
        E 120 80 48 00
        E 0 80 55 00
        E 0 80 61 00
        E 360 90 57 60
        E 0 90 63 60
        E 120 80 57 00
        E 0 80 63 00
        E 360 90 3f 60
        E 0 90 4b 60
        E 0 90 58 60
        E 0 90 64 60
        E 120 80 3f 00
        E 0 80 4b 00
        E 0 80 58 00
        E 0 80 64 00
        E 120 90 64 60
        E 120 80 64 00
        E 120 90 58 60
        E 0 90 64 60
        E 120 80 58 00
        E 0 80 64 00
        E 120 90 64 60
        E 120 80 64 00
        E 120 90 4b 60
        E 0 90 58 60
        E 0 90 64 60
        E 120 80 4b 00
        E 0 80 58 00
        E 0 80 64 00
        E 360 90 55 60
        E 0 90 61 60
        E 120 80 55 00
        E 0 80 61 00
        E 360 90 3e 60
        E 0 90 4a 60
        E 0 90 57 60
        E 0 90 63 60
        E 120 80 3e 00
        E 0 80 4a 00
        E 0 80 57 00
        E 0 80 63 00
        E 120 90 63 60
        E 120 80 63 00
        E 120 90 57 60
        E 0 90 63 60
        E 120 80 57 00
        E 0 80 63 00
        E 120 90 63 60
        E 120 80 63 00
        E 120 90 4a 60
        E 0 90 57 60
        E 0 90 63 60
        E 120 80 4a 00
        E 0 80 57 00
        E 0 80 63 00
        E 360 90 55 60
        E 0 90 61 60
        E 120 80 55 00
        E 0 80 61 00
        E 360 90 3d 60
        E 0 90 49 60
        E 0 90 56 60
        E 0 90 62 60
        E 120 80 3d 00
        E 0 80 49 00
        E 0 80 56 00
        E 0 80 62 00
        E 120 90 62 60
        E 120 80 62 00
        E 120 90 56 60
        E 0 90 62 60
        E 120 80 56 00
        E 0 80 62 00
        E 120 90 62 60
        E 120 80 62 00
        E 120 90 49 60
        E 0 90 56 60
        E 0 90 62 60
        E 120 80 49 00
        E 0 80 56 00
        E 0 80 62 00
        E 120 90 60 60
        E 120 80 60 00
        E 120 90 54 60
        E 0 90 60 60
        E 120 80 54 00
        E 0 80 60 00
        E 360 90 3c 60
        E 0 90 48 60
        E 0 90 55 60
        E 0 90 61 60
        E 120 80 3c 00
        E 0 80 48 00
        E 0 80 55 00
        E 0 80 61 00
        E 120 90 61 60
        E 120 80 61 00
        E 120 90 55 60
        E 0 90 61 60
        E 120 80 55 00
        E 0 80 61 00
        E 120 90 61 60
        E 120 80 61 00
        E 120 90 48 60
        E 0 90 55 60
        E 0 90 61 60
        E 120 80 48 00
        E 0 80 55 00
        E 0 80 61 00
        E 360 90 57 60
        E 0 90 63 60
        E 120 80 57 00
        E 0 80 63 00
        E 360 90 3f 60
        E 0 90 4b 60
        E 0 90 58 60
        E 0 90 64 60
        E 120 80 3f 00
        E 0 80 4b 00
        E 0 80 58 00
        E 0 80 64 00
        E 120 90 64 60
        E 120 80 64 00
        E 120 90 58 60
        E 0 90 64 60
        E 120 80 58 00
        E 0 80 64 00
        E 120 90 64 60
        E 120 80 64 00
        E 120 90 4b 60
        E 0 90 58 60
        E 0 90 64 60
        E 120 80 4b 00
        E 0 80 58 00
        E 0 80 64 00
        E 360 90 55 60
        E 0 90 61 60
        E 120 80 55 00
        E 0 80 61 00
        E 360 90 3e 60
        E 0 90 4a 60
        E 0 90 57 60
        E 0 90 63 60
        E 120 80 3e 00
        E 0 80 4a 00
        E 0 80 57 00
        E 0 80 63 00
        E 120 90 63 60
        E 120 80 63 00
        E 120 90 57 60
        E 0 90 63 60
        E 120 80 57 00
        E 0 80 63 00
        E 120 90 63 60
        E 120 80 63 00
        E 120 90 4a 60
        E 0 90 57 60
        E 0 90 63 60
        E 120 80 4a 00
        E 0 80 57 00
        E 0 80 63 00
        E 360 90 58 60
        E 0 90 64 60
        E 120 80 58 00
        E 0 80 64 00
        E 360 90 3d 60
        E 0 90 49 60
        E 0 90 56 60
        E 0 90 62 60
        E 120 80 3d 00
        E 0 80 49 00
        E 0 80 56 00
        E 0 80 62 00
        E 120 90 62 60
        E 120 80 62 00
        E 120 90 56 60
        E 0 90 62 60
        E 120 80 56 00
        E 0 80 62 00
        E 120 90 62 60
        E 120 80 62 00
        E 120 90 48 60
        E 0 90 56 60
        E 0 90 62 60
        E 120 80 48 00
        E 0 80 56 00
        E 0 80 62 00
        E 120 90 61 60
        E 120 80 61 00
        E 120 90 55 60
        E 0 90 61 60
        E 120 80 55 00
        E 0 80 61 00
        E 120 90 60 60
        E 120 80 60 00
        E 120 90 3d 60
        E 0 90 49 60
        E 0 90 56 60
        E 0 90 62 60
        E 120 80 3d 00
        E 0 80 49 00
        E 0 80 56 00
        E 0 80 62 00
        <X 359 0
          /wFbaWRsZV9yZWFsdGltZV0=
        >
        E 3361 b0 7b 00
        GUID {B3B056A8-8E66-45D5-8C10-97C41C282077}
        IGNTEMPO 0 120.00000000 4 4
        SRCCOLOR 4
        VELLANE 132 128 60
        COLORMAP "C:\Program Files\REAPER (x64)\Data\color_maps\rockband_guitarbass.png"
        CFGEDITVIEW -12968.014830 10.293458 0 12 0 0 0
        CFGEDIT 1 1 0 1 1 0 1 1 1 1 1 0.12500000 53 44 1253 718 0 2 1 1 0.00000000 0 1 1 0 0.500000 0 0 1.000000 64
        KEYSNAP 0 7 "102030050700" 0 "Pentatonic"
        EVTFILTER 0 -1 -1 -1 -1 0 1 0 0 -1.00000000 -1.00000000
      >
    >
  >
  <TRACK '{070C4BB0-4D39-4AFB-B807-AC94079E4A66}'
    NAME "PART VOCALS"
    PEAKCOL 16576
    BEAT -1
    AUTOMODE 0
    VOLPAN 1.00000000000000 0.00000000000000 -1.00000000000000 -1.00000000000000 1.00000000000000
    MUTESOLO 0 0 0
    IPHASE 0
    ISBUS 1 1
    BUSCOMP 0 0
    SHOWINMIX 1 0.666700 0.500000 1 0.500000 -1 -1 -1
    FREEMODE 0
    SEL 0
    REC 0 0 0 0 0 0 0
    VU 2
    TRACKHEIGHT 0 0
    INQ 0 0 0 0.5000000000 100 0 0 100
    NCHAN 2
    FX 1
    TRACKID {070C4BB0-4D39-4AFB-B807-AC94079E4A66}
    PERF 0
    MIDIOUT -1
    <MIDINOTENAMES
      0 116 "OVERDRIVE"
      0 115 "----"
      0 105 "Phrase Marker"
      0 104 "----"
      0 97 "Non-Displayed Percussion"
      0 96 "Displayed Percussion"
      0 95 "----"
      0 84 "C6 (Unused Highest Note)"
      0 83 "B5"
      0 82 "A#4"
      0 81 "A4"
      0 80 "G#4"
      0 79 "G4"
      0 78 "F#4"
      0 77 "F4"
      0 76 "E4"
      0 75 "D#4"
      0 74 "D4"
      0 73 "C#4"
      0 72 "C4"
      0 71 "B3"
      0 70 "A#3"
      0 69 "A3"
      0 68 "G#3"
      0 67 "G3"
      0 66 "F#3"
      0 65 "F3"
      0 64 "E3"
      0 63 "D#3"
      0 62 "D3"
      0 61 "C#3"
      0 60 "C3"
      0 59 "B2"
      0 58 "A#2"
      0 57 "A2"
      0 56 "G#2"
      0 55 "G2"
      0 54 "F#2"
      0 53 "F2"
      0 52 "E2"
      0 51 "D#2"
      0 50 "D2"
      0 49 "C#2"
      0 48 "C2"
      0 47 "B1"
      0 46 "A#1"
      0 45 "A1"
      0 44 "G#1"
      0 43 "G1"
      0 42 "F#1"
      0 41 "F1"
      0 40 "E1"
      0 39 "D#1"
      0 38 "D1"
      0 37 "C#1"
      0 36 "Lowest Note C1"
      0 2 "---"
      0 1 "Lyric Shift"
      0 0 "Range Shift"
    >
    MAINSEND 1 0
    <FXCHAIN
      WNDRECT 0 43 729 467
      SHOW 0
      LASTSEL 0
      DOCKED 0
    >
    <ITEM
      POSITION 0.00000000000000
      SNAPOFFS 0.00000000000000
      LENGTH 109.09839002267573
      LOOP 0
      ALLTAKES 0
      SEL 0
      FADEIN 1 0.000000 0.000000 1 0
      FADEOUT 1 0.000000 0.000000 1 0
      MUTE 0
      IGUID {BF8D2E61-8B66-4E75-A3B0-9E046FADABAE}
      IID 3
      NAME "PART VOCALS"
      VOLPAN 1.000000 0.000000 1.000000 -1.000000
      SOFFS 0.00000000000000 0.00000000000000
      PLAYRATE 1.00000000000000 1 0.00000000000000 -1
      CHANMODE 0
      GUID {AD8A6611-7D9D-4955-BE4A-82D8A373B514}
      <SOURCE MIDI
        HASDATA 1 480 QN
        POOLEDEVTS {53880EB9-3133-4902-B0CE-70F4869A7D53}
        <X 0 0
          /wNQQVJUIFZPQ0FMUw==
        >
        <X 7680 0
          /wFbaWRsZV0=
        >
        <X 30720 0
          /wFbaW50ZW5zZV0=
        >
        E 0 90 69 60
        <X 480 0
          /wVTbw==
        >
        E 0 90 43 60
        E 360 80 43 00
        <X 120 0
          /wUr
        >
        E 0 90 41 60
        E 240 80 41 00
        <X 240 0
          /wVtYS0=
        >
        E 0 90 43 60
        E 360 80 43 00
        <X 120 0
          /wUr
        >
        E 0 90 41 60
        E 240 80 41 00
        <X 240 0
          /wVueQ==
        >
        E 0 90 43 60
        E 360 80 43 00
        <X 120 0
          /wUr
        >
        E 0 90 41 60
        E 240 80 41 00
        <X 240 0
          /wVnaXJscw==
        >
        E 0 90 43 60
        E 360 80 43 00
        <X 120 0
          /wUr
        >
        E 0 90 41 60
        E 240 80 41 00
        <X 240 0
          /wVJ
        >
        E 0 90 41 60
        E 690 80 41 00
        <X 390 0
          /wVrbm93
        >
        E 0 90 41 60
        E 1140 80 41 00
        <X 180 0
          /wUr
        >
        E 0 90 3f 60
        E 600 80 3f 00
        E 360 80 69 00
        E 0 90 69 60
        E 0 90 74 60
        <X 480 0
          /wVQb2kt
        >
        E 0 90 3f 60
        E 360 80 3f 00
        <X 120 0
          /wUr
        >
        E 0 90 3c 60
        E 240 80 3c 00
        <X 240 0
          /wVzb24=
        >
        E 0 90 3f 60
        E 360 80 3f 00
        <X 120 0
          /wUr
        >
        E 0 90 3c 60
        E 180 80 3c 00
        <X 270 0
          /wV0aGVpcg==
        >
        E 0 90 3f 60
        E 360 80 3f 00
        <X 120 0
          /wUr
        >
        E 0 90 3c 60
        E 240 80 3c 00
        <X 240 0
          /wV3b21icw==
        >
        E 0 90 3f 60
        E 360 80 3f 00
        <X 150 0
          /wUr
        >
        E 0 90 3c 60
        E 240 80 3c 00
        <X 240 0
          /wVmb3I=
        >
        E 0 90 3f 60
        E 360 80 3f 00
        <X 120 0
          /wUr
        >
        E 0 90 3c 60
        E 120 80 3c 00
        <X 360 0
          /wVzdXJl
        >
        E 0 90 3f 60
        E 1290 80 3f 00
        <X 150 0
          /wUr
        >
        E 0 90 3c 60
        E 270 80 3c 00
        E 690 80 69 00
        E 0 80 74 00
        E 0 90 69 60
        <X 480 0
          /wVJJ20=
        >
        E 0 90 3c 60
        E 300 80 3c 00
        <X 180 0
          /wUr
        >
        E 0 90 3a 60
        E 120 80 3a 00
        <X 360 0
          /wVzaWNr
        >
        E 0 90 3c 60
        E 150 80 3c 00
        <X 810 0
          /wVvZl4=
        >
        E 0 90 3c 60
        E 180 80 3c 00
        <X 780 0
          /wVhbGxe
        >
        E 0 90 43 60
        E 780 80 43 00
        <X 180 0
          /wV0aGVzZSM=
        >
        E 0 90 41 60
        E 570 80 41 00
        <X 390 0
          /wVnaXJscyM=
        >
        E 0 90 41 60
        E 2310 80 41 00
        E 90 80 69 00
        E 480 90 69 60
        <X 90 0
          /wVQb2ktIw==
        >
        E 0 90 3f 60
        E 390 80 3f 00
        <X 480 0
          /wVzb24tIw==
        >
        E 0 90 3f 60
        E 180 80 3f 00
        <X 300 0
          /wVpbmcj
        >
        E 0 90 3f 60
        E 120 80 3f 00
        <X 360 0
          /wV0aGVpciM=
        >
        E 0 90 40 60
        E 510 80 40 00
        <X 90 0
          /wFbaWRsZV9pbnRlbnNlXQ==
        >
        E 840 80 69 00
        <X 3840 0
          /wFbaW50ZW5zZV0=
        >
        E 0 90 69 60
        <X 480 0
          /wVXZSdyZV4=
        >
        E 0 90 3f 60
        E 120 80 3f 00
        <X 360 0
          /wVsb29rLSM=
        >
        E 0 90 3f 60
        E 120 80 3f 00
        <X 120 0
          /wVpbmde
        >
        E 0 90 3f 60
        E 60 80 3f 00
        <X 180 0
          /wVmb3Ij
        >
        E 0 90 3f 60
        E 180 80 3f 00
        <X 300 0
          /wV3aXZlc14=
        >
        E 0 90 3f 60
        E 300 80 3f 00
        E 90 90 01 60
        E 30 80 01 00
        <X 60 0
          /wVzbyM=
        >
        E 0 90 3f 60
        E 150 80 3f 00
        <X 330 0
          /wV0aXJlZCM=
        >
        E 0 90 3f 60
        E 240 80 3f 00
        <X 240 0
          /wVvZl4=
        >
        E 0 90 3f 60
        E 90 80 3f 00
        <X 390 0
          /wVzbHV0cyM=
        >
        E 0 90 3f 60
        E 300 80 3f 00
        E 60 80 69 00
        E 30 90 69 60
        E 0 90 74 60
        <X 90 0
          /wVDb20tIw==
        >
        E 0 90 3f 60
        E 120 80 3f 00
        <X 120 0
          /wVpbmde
        >
        E 0 90 3f 60
        E 60 80 3f 00
        <X 180 0
          /wV0byM=
        >
        E 0 90 3f 60
        E 90 80 3f 00
        <X 150 0
          /wV1c14=
        >
        E 0 90 3f 60
        E 90 80 3f 00
        <X 150 0
          /wVpbl4=
        >
        E 0 90 3f 60
        E 90 80 3f 00
        <X 150 0
          /wV0aGUj
        >
        E 0 90 3f 60
        E 60 80 3f 00
        <X 180 0
          /wVjbHVicyM=
        >
        E 0 90 3f 60
        E 210 80 3f 00
        E 30 90 01 60
        E 30 80 01 00
        <X 210 0
          /wV3aXRoXg==
        >
        E 0 90 3f 60
        E 90 80 3f 00
        <X 150 0
          /wV0aGVpciM=
        >
        E 0 90 3f 60
        E 90 80 3f 00
        <X 150 0
          /wVjby0j
        >
        E 0 90 3f 60
        E 360 80 3f 00
        <X 120 0
          /wVjYWluZSM=
        >
        E 0 90 3f 60
        E 300 80 3f 00
        E 180 80 69 00
        E 0 80 74 00
        E 240 90 69 60
        <X 240 0
          /wVXZSdyZV4=
        >
        E 0 90 3f 60
        E 120 80 3f 00
        <X 360 0
          /wVsb29rLSM=
        >
        E 0 90 3f 60
        E 120 80 3f 00
        <X 120 0
          /wVpbmde
        >
        E 0 90 3f 60
        E 60 80 3f 00
        <X 180 0
          /wVmb3Ij
        >
        E 0 90 3f 60
        E 180 80 3f 00
        <X 300 0
          /wV3aXZlc14=
        >
        E 0 90 3f 60
        E 300 80 3f 00
        E 90 90 01 60
        E 30 80 01 00
        <X 60 0
          /wVzbyM=
        >
        E 0 90 3f 60
        E 150 80 3f 00
        <X 330 0
          /wV0aXJlZCM=
        >
        E 0 90 3f 60
        E 240 80 3f 00
        <X 240 0
          /wVvZl4=
        >
        E 0 90 3f 60
        E 90 80 3f 00
        <X 390 0
          /wVzbHV0cyM=
        >
        E 0 90 3f 60
        E 300 80 3f 00
        E 60 80 69 00
        E 0 90 69 60
        <X 120 0
          /wVDb20tIw==
        >
        E 0 90 3f 60
        E 120 80 3f 00
        <X 120 0
          /wVpbmde
        >
        E 0 90 3f 60
        E 60 80 3f 00
        <X 180 0
          /wV0byM=
        >
        E 0 90 3f 60
        E 90 80 3f 00
        <X 150 0
          /wV1c14=
        >
        E 0 90 3f 60
        E 90 80 3f 00
        <X 150 0
          /wVpbl4=
        >
        E 0 90 3f 60
        E 90 80 3f 00
        <X 150 0
          /wV0aGUj
        >
        E 0 90 3f 60
        E 60 80 3f 00
        <X 180 0
          /wVjbHVicyM=
        >
        E 0 90 3f 60
        E 209 80 3f 00
        E 31 90 01 60
        E 30 80 01 00
        <X 209 0
          /wV3aXRoXg==
        >
        E 0 90 3f 60
        E 90 80 3f 00
        <X 150 0
          /wV0aGVpciM=
        >
        E 0 90 3f 60
        E 90 80 3f 00
        <X 150 0
          /wVjby0j
        >
        E 0 90 3f 60
        E 360 80 3f 00
        <X 120 0
          /wVjYWluZSM=
        >
        E 0 90 3f 60
        E 300 80 3f 00
        E 181 80 69 00
        E 0 90 69 60
        <X 480 0
          /wVJXg==
        >
        E 0 90 3f 60
        E 270 80 3f 00
        <X 210 0
          /wVrbm93Iw==
        >
        E 0 90 3f 60
        E 270 80 3f 00
        <X 210 0
          /wV5b3Uj
        >
        E 0 90 3f 60
        E 150 80 3f 00
        <X 330 0
          /wV0aGluayM=
        >
        E 0 90 3f 60
        E 180 80 3f 00
        <X 300 0
          /wV5b3Uj
        >
        E 0 90 3f 60
        E 180 80 3f 00
        <X 300 0
          /wVoYXZlIw==
        >
        E 0 90 3f 60
        E 180 80 3f 00
        <X 300 0
          /wVpdF4=
        >
        E 0 90 3f 60
        E 180 80 3f 00
        <X 300 0
          /wVhbGwj
        >
        E 0 90 3f 60
        E 150 80 3f 00
        E 90 80 69 00
        E 0 90 69 60
        E 0 90 74 60
        <X 240 0
          /wVCdXQj
        >
        E 0 90 3f 60
        E 150 80 3f 00
        <X 330 0
          /wV5b3Ve
        >
        E 0 90 3f 60
        E 150 80 3f 00
        <X 330 0
          /wV3aWxsXg==
        >
        E 0 90 3f 60
        E 120 80 3f 00
        <X 360 0
          /wVuZS0j
        >
        E 0 90 3f 60
        E 180 80 3f 00
        <X 300 0
          /wV2ZXIj
        >
        E 0 90 3f 60
        E 150 80 3f 00
        <X 330 0
          /wVlLSM=
        >
        E 0 90 3f 60
        E 150 80 3f 00
        <X 330 0
          /wV2ZW4j
        >
        E 0 90 3f 60
        E 150 80 3f 00
        E 330 80 69 00
        E 0 80 74 00
        E 0 90 69 60
        <X 480 0
          /wVXZSdyZV4=
        >
        E 0 90 3f 60
        E 120 80 3f 00
        <X 360 0
          /wVsb29rLSM=
        >
        E 0 90 3f 60
        E 120 80 3f 00
        <X 120 0
          /wVpbmde
        >
        E 0 90 3f 60
        E 60 80 3f 00
        <X 180 0
          /wVmb3Ij
        >
        E 0 90 3f 60
        E 180 80 3f 00
        <X 300 0
          /wV3aXZlc14=
        >
        E 0 90 3f 60
        E 300 80 3f 00
        E 60 90 01 60
        E 30 80 01 00
        <X 90 0
          /wVzbyM=
        >
        E 0 90 3f 60
        E 150 80 3f 00
        <X 330 0
          /wV0aXJlZCM=
        >
        E 0 90 3f 60
        E 240 80 3f 00
        <X 240 0
          /wVvZl4=
        >
        E 0 90 3f 60
        E 90 80 3f 00
        <X 390 0
          /wVzbHV0cyM=
        >
        E 0 90 3f 60
        E 300 80 3f 00
        E 60 80 69 00
        E 0 90 69 60
        <X 120 0
          /wVDb20tIw==
        >
        E 0 90 3f 60
        E 120 80 3f 00
        <X 120 0
          /wVpbmde
        >
        E 0 90 3f 60
        E 60 80 3f 00
        <X 180 0
          /wV0byM=
        >
        E 0 90 3f 60
        E 90 80 3f 00
        <X 150 0
          /wV1c14=
        >
        E 0 90 3f 60
        E 90 80 3f 00
        <X 150 0
          /wVpbl4=
        >
        E 0 90 3f 60
        E 90 80 3f 00
        <X 150 0
          /wV0aGUj
        >
        E 0 90 3f 60
        E 60 80 3f 00
        <X 180 0
          /wVjbHVicyM=
        >
        E 0 90 3f 60
        E 209 80 3f 00
        E 31 90 01 60
        E 30 80 01 00
        <X 209 0
          /wV3aXRoXg==
        >
        E 0 90 3f 60
        E 90 80 3f 00
        <X 150 0
          /wV0aGVpciM=
        >
        E 0 90 3f 60
        E 90 80 3f 00
        <X 150 0
          /wVjby0j
        >
        E 0 90 3f 60
        E 360 80 3f 00
        <X 121 0
          /wVjYWluZSM=
        >
        E 0 90 3f 60
        E 300 80 3f 00
        E 180 80 69 00
        E 0 90 69 60
        <X 480 0
          /wVZb3U=
        >
        E 0 90 3f 60
        E 360 80 3f 00
        <X 120 0
          /wUr
        >
        E 0 90 3c 60
        E 240 80 3c 00
        <X 240 0
          /wV3aWxs
        >
        E 0 90 3f 60
        E 360 80 3f 00
        <X 120 0
          /wUr
        >
        E 0 90 3c 60
        E 150 80 3c 00
        <X 330 0
          /wVuZS0=
        >
        E 0 90 3f 60
        E 360 80 3f 00
        <X 120 0
          /wUr
        >
        E 0 90 3c 60
        E 240 80 3c 00
        <X 240 0
          /wV2ZXI=
        >
        E 0 90 3f 60
        E 360 80 3f 00
        <X 120 0
          /wUr
        >
        E 0 90 3c 60
        E 180 80 3c 00
        <X 300 0
          /wVlLQ==
        >
        E 0 90 3f 60
        E 360 80 3f 00
        <X 120 0
          /wUr
        >
        E 0 90 3c 60
        E 240 80 3c 00
        <X 240 0
          /wV2ZW4=
        >
        E 0 90 3f 60
        E 360 80 3f 00
        <X 120 0
          /wUr
        >
        E 0 90 3c 60
        E 240 80 3c 00
        <X 240 0
          /wVrbm93Iw==
        >
        E 0 90 3f 60
        E 1410 80 3f 00
        E 30 80 69 00
        E 0 90 69 60
        <X 480 0
          /wVZb3Ve
        >
        E 0 90 3f 60
        E 390 80 3f 00
        <X 570 0
          /wV0aGluayM=
        >
        E 0 90 3f 60
        E 330 80 3f 00
        <X 630 0
          /wV5b3Ve
        >
        E 0 90 3f 60
        E 330 80 3f 00
        <X 630 0
          /wVoYXZlIw==
        >
        E 0 90 3f 60
        E 450 80 3f 00
        <X 510 0
          /wVjb24tIw==
        >
        E 0 90 3c 60
        E 480 80 3c 00
        <X 480 0
          /wV0cm9sIw==
        >
        E 0 90 3c 60
        E 1350 80 3c 00
        E 90 80 69 00
        E 960 90 69 60
        E 0 90 74 60
        <X 480 0
          /wVPbmVe
        >
        E 0 90 3a 60
        E 600 80 3a 00
        <X 360 0
          /wVkYXkj
        >
        E 0 90 3a 60
        E 540 80 3a 00
        <X 420 0
          /wV3ZSdsbCM=
        >
        E 0 90 3a 60
        E 360 80 3a 00
        <X 600 0
          /wVsb3NlIw==
        >
        E 0 90 41 60
        E 540 80 41 00
        <X 420 0
          /wV5b3Ve
        >
        E 0 90 41 60
        E 270 80 41 00
        <X 690 0
          /wVhbGxe
        >
        E 0 90 41 60
        E 2460 80 41 00
        E 180 80 69 00
        E 0 80 74 00
        E 0 90 69 60
        <X 240 0
          /wVPbmVe
        >
        E 0 90 3f 60
        E 540 80 3f 00
        <X 420 0
          /wVkYXkj
        >
        E 0 90 3f 60
        E 540 80 3f 00
        <X 420 0
          /wV3ZSdsbCM=
        >
        E 0 90 3f 60
        E 1020 80 3f 00
        <X 420 0
          /wFbaWRsZV9pbnRlbnNlXQ==
        >
        E 0 80 69 00
        <X 3840 0
          /wFbcGxheV0=
        >
        <X 0 0
          /wFbdGFtYm91cmluZV9zdGFydF0=
        >
        E 0 90 60 60
        E 0 90 69 60
        E 120 80 60 00
        E 360 90 60 60
        E 120 80 60 00
        E 360 90 60 60
        E 120 80 60 00
        E 360 90 60 60
        E 120 80 60 00
        E 360 90 60 60
        E 120 80 60 00
        E 360 90 60 60
        E 120 80 60 00
        E 360 90 60 60
        E 120 80 60 00
        E 360 90 60 60
        E 120 80 60 00
        E 360 80 69 00
        E 0 90 60 60
        E 0 90 69 60
        E 120 80 60 00
        E 360 90 60 60
        E 120 80 60 00
        E 360 90 60 60
        E 120 80 60 00
        E 360 90 60 60
        E 120 80 60 00
        E 360 90 60 60
        E 120 80 60 00
        E 360 90 60 60
        E 120 80 60 00
        E 360 90 60 60
        E 120 80 60 00
        E 360 90 60 60
        E 120 80 60 00
        E 360 80 69 00
        E 0 90 60 60
        E 0 90 69 60
        E 120 80 60 00
        E 360 90 60 60
        E 120 80 60 00
        E 360 90 60 60
        E 120 80 60 00
        E 360 90 60 60
        E 120 80 60 00
        E 360 90 60 60
        E 120 80 60 00
        E 360 90 60 60
        E 120 80 60 00
        E 360 90 60 60
        E 120 80 60 00
        E 360 90 60 60
        E 120 80 60 00
        E 360 80 69 00
        E 0 90 60 60
        E 0 90 69 60
        E 120 80 60 00
        E 360 90 60 60
        E 120 80 60 00
        E 360 90 60 60
        E 120 80 60 00
        E 360 90 60 60
        E 120 80 60 00
        E 360 90 60 60
        E 120 80 60 00
        E 360 90 60 60
        E 120 80 60 00
        E 360 90 60 60
        E 120 80 60 00
        E 360 90 60 60
        E 120 80 60 00
        E 360 80 69 00
        E 0 90 60 60
        E 0 90 69 60
        E 120 80 60 00
        E 360 90 60 60
        E 120 80 60 00
        E 360 90 60 60
        E 120 80 60 00
        E 360 90 60 60
        E 120 80 60 00
        E 360 90 60 60
        E 120 80 60 00
        E 360 90 60 60
        E 120 80 60 00
        E 360 90 60 60
        E 120 80 60 00
        E 360 90 60 60
        E 120 80 60 00
        E 360 80 69 00
        E 0 90 60 60
        E 0 90 69 60
        E 120 80 60 00
        E 360 90 60 60
        E 120 80 60 00
        E 360 90 60 60
        E 120 80 60 00
        E 360 90 60 60
        E 120 80 60 00
        E 360 90 60 60
        E 120 80 60 00
        E 360 90 60 60
        E 120 80 60 00
        E 360 90 60 60
        E 120 80 60 00
        E 360 90 60 60
        E 120 80 60 00
        E 360 80 69 00
        E 0 90 60 60
        E 0 90 69 60
        E 120 80 60 00
        E 360 90 60 60
        E 120 80 60 00
        E 360 90 60 60
        E 120 80 60 00
        E 360 90 60 60
        E 120 80 60 00
        E 360 90 60 60
        E 120 80 60 00
        E 360 90 60 60
        E 120 80 60 00
        E 360 90 60 60
        E 120 80 60 00
        E 360 90 60 60
        E 120 80 60 00
        <X 360 0
          /wFbdGFtYm91cmluZV9lbmRd
        >
        <X 0 0
          /wFbaWRsZV0=
        >
        E 0 80 69 00
        <X 3840 0
          /wFbaW50ZW5zZV0=
        >
        E 0 90 69 60
        E 0 90 74 60
        <X 480 0
          /wVXZSdyZV4=
        >
        E 0 90 3f 60
        E 120 80 3f 00
        <X 360 0
          /wVsb29rLSM=
        >
        E 0 90 3f 60
        E 120 80 3f 00
        <X 120 0
          /wVpbmde
        >
        E 0 90 3f 60
        E 60 80 3f 00
        <X 180 0
          /wVmb3Ij
        >
        E 0 90 3f 60
        E 180 80 3f 00
        <X 300 0
          /wV3aXZlc14=
        >
        E 0 90 3f 60
        E 300 80 3f 00
        E 60 90 01 60
        E 30 80 01 00
        <X 90 0
          /wVzbyM=
        >
        E 0 90 3f 60
        E 150 80 3f 00
        <X 330 0
          /wV0aXJlZCM=
        >
        E 0 90 3f 60
        E 240 80 3f 00
        <X 240 0
          /wVvZl4=
        >
        E 0 90 3f 60
        E 90 80 3f 00
        <X 390 0
          /wVzbHV0cyM=
        >
        E 0 90 3f 60
        E 300 80 3f 00
        E 60 80 69 00
        E 0 80 74 00
        E 60 90 69 60
        <X 60 0
          /wVDb20tIw==
        >
        E 0 90 3f 60
        E 120 80 3f 00
        <X 120 0
          /wVpbmde
        >
        E 0 90 3f 60
        E 60 80 3f 00
        <X 180 0
          /wV0byM=
        >
        E 0 90 3f 60
        E 90 80 3f 00
        <X 150 0
          /wV1c14=
        >
        E 0 90 3f 60
        E 90 80 3f 00
        <X 150 0
          /wVpbl4=
        >
        E 0 90 3f 60
        E 90 80 3f 00
        <X 150 0
          /wV0aGUj
        >
        E 0 90 3f 60
        E 60 80 3f 00
        <X 180 0
          /wVjbHVicyM=
        >
        E 0 90 3f 60
        E 210 80 3f 00
        E 30 90 01 60
        E 30 80 01 00
        <X 210 0
          /wV3aXRoXg==
        >
        E 0 90 3f 60
        E 90 80 3f 00
        <X 150 0
          /wV0aGVpciM=
        >
        E 0 90 3f 60
        E 90 80 3f 00
        <X 150 0
          /wVjby0j
        >
        E 0 90 3f 60
        E 360 80 3f 00
        <X 120 0
          /wVjYWluZSM=
        >
        E 0 90 3f 60
        E 300 80 3f 00
        E 180 80 69 00
        E 0 90 69 60
        <X 480 0
          /wVXZSdyZV4=
        >
        E 0 90 3f 60
        E 120 80 3f 00
        <X 360 0
          /wVsb29rLSM=
        >
        E 0 90 3f 60
        E 120 80 3f 00
        <X 120 0
          /wVpbmde
        >
        E 0 90 3f 60
        E 60 80 3f 00
        <X 180 0
          /wVmb3Ij
        >
        E 0 90 3f 60
        E 180 80 3f 00
        <X 300 0
          /wV3aXZlc14=
        >
        E 0 90 3f 60
        E 300 80 3f 00
        E 60 90 01 60
        E 30 80 01 00
        <X 90 0
          /wVzbyM=
        >
        E 0 90 3f 60
        E 150 80 3f 00
        <X 330 0
          /wV0aXJlZCM=
        >
        E 0 90 3f 60
        E 240 80 3f 00
        <X 240 0
          /wVvZl4=
        >
        E 0 90 3f 60
        E 90 80 3f 00
        <X 390 0
          /wVzbHV0cyM=
        >
        E 0 90 3f 60
        E 300 80 3f 00
        E 90 80 69 00
        E 30 90 69 60
        <X 60 0
          /wVDb20tIw==
        >
        E 0 90 3f 60
        E 120 80 3f 00
        <X 120 0
          /wVpbmde
        >
        E 0 90 3f 60
        E 60 80 3f 00
        <X 180 0
          /wV0byM=
        >
        E 0 90 3f 60
        E 90 80 3f 00
        <X 150 0
          /wV1c14=
        >
        E 0 90 3f 60
        E 90 80 3f 00
        <X 150 0
          /wVpbl4=
        >
        E 0 90 3f 60
        E 90 80 3f 00
        <X 150 0
          /wV0aGUj
        >
        E 0 90 3f 60
        E 60 80 3f 00
        <X 180 0
          /wVjbHVicyM=
        >
        E 0 90 3f 60
        E 209 80 3f 00
        E 31 90 01 60
        E 30 80 01 00
        <X 209 0
          /wV3aXRoXg==
        >
        E 0 90 3f 60
        E 90 80 3f 00
        <X 150 0
          /wV0aGVpciM=
        >
        E 0 90 3f 60
        E 90 80 3f 00
        <X 150 0
          /wVjby0j
        >
        E 0 90 3f 60
        E 360 80 3f 00
        <X 120 0
          /wVjYWluZSM=
        >
        E 0 90 3f 60
        E 300 80 3f 00
        E 181 80 69 00
        E 0 90 69 60
        <X 480 0
          /wVJXg==
        >
        E 0 90 3f 60
        E 270 80 3f 00
        <X 210 0
          /wVrbm93Iw==
        >
        E 0 90 3f 60
        E 270 80 3f 00
        <X 210 0
          /wV5b3Uj
        >
        E 0 90 3f 60
        E 150 80 3f 00
        <X 330 0
          /wV0aGluayM=
        >
        E 0 90 3f 60
        E 180 80 3f 00
        <X 300 0
          /wV5b3Uj
        >
        E 0 90 3f 60
        E 180 80 3f 00
        <X 300 0
          /wVoYXZlIw==
        >
        E 0 90 3f 60
        E 180 80 3f 00
        <X 300 0
          /wVpdF4=
        >
        E 0 90 3f 60
        E 180 80 3f 00
        <X 300 0
          /wVhbGwj
        >
        E 0 90 3f 60
        E 150 80 3f 00
        E 90 80 69 00
        E 0 90 69 60
        <X 240 0
          /wVCdXQj
        >
        E 0 90 3f 60
        E 150 80 3f 00
        <X 330 0
          /wV5b3Ve
        >
        E 0 90 3f 60
        E 150 80 3f 00
        <X 330 0
          /wV3aWxsXg==
        >
        E 0 90 3f 60
        E 120 80 3f 00
        <X 360 0
          /wVuZS0j
        >
        E 0 90 3f 60
        E 180 80 3f 00
        <X 300 0
          /wV2ZXIj
        >
        E 0 90 3f 60
        E 150 80 3f 00
        <X 330 0
          /wVlLSM=
        >
        E 0 90 3f 60
        E 150 80 3f 00
        <X 330 0
          /wV2ZW4j
        >
        E 0 90 3f 60
        E 150 80 3f 00
        E 330 80 69 00
        E 0 90 69 60
        <X 480 0
          /wVXZSdyZV4=
        >
        E 0 90 3f 60
        E 120 80 3f 00
        <X 360 0
          /wVsb29rLSM=
        >
        E 0 90 3f 60
        E 120 80 3f 00
        <X 120 0
          /wVpbmde
        >
        E 0 90 3f 60
        E 60 80 3f 00
        <X 180 0
          /wVmb3Ij
        >
        E 0 90 3f 60
        E 180 80 3f 00
        <X 300 0
          /wV3aXZlc14=
        >
        E 0 90 3f 60
        E 300 80 3f 00
        <X 180 0
          /wVzbyM=
        >
        E 0 90 3f 60
        E 150 80 3f 00
        <X 330 0
          /wV0aXJlZCM=
        >
        E 0 90 3f 60
        E 240 80 3f 00
        <X 240 0
          /wVvZl4=
        >
        E 0 90 3f 60
        E 90 80 3f 00
        <X 390 0
          /wVzbHV0cyM=
        >
        E 0 90 3f 60
        E 300 80 3f 00
        E 90 80 69 00
        E 0 90 69 60
        <X 90 0
          /wVDb20tIw==
        >
        E 0 90 3f 60
        E 120 80 3f 00
        <X 120 0
          /wVpbmde
        >
        E 0 90 3f 60
        E 60 80 3f 00
        <X 180 0
          /wV0byM=
        >
        E 0 90 3f 60
        E 90 80 3f 00
        <X 150 0
          /wV1c14=
        >
        E 0 90 3f 60
        E 90 80 3f 00
        <X 150 0
          /wVpbl4=
        >
        E 0 90 3f 60
        E 90 80 3f 00
        <X 150 0
          /wV0aGUj
        >
        E 0 90 3f 60
        E 60 80 3f 00
        <X 180 0
          /wVjbHVicyM=
        >
        E 0 90 3f 60
        E 209 80 3f 00
        <X 270 0
          /wV3aXRoXg==
        >
        E 0 90 3f 60
        E 90 80 3f 00
        <X 150 0
          /wV0aGVpciM=
        >
        E 0 90 3f 60
        E 90 80 3f 00
        <X 150 0
          /wVjby0j
        >
        E 0 90 3f 60
        E 360 80 3f 00
        <X 121 0
          /wVjYWluZSM=
        >
        E 0 90 3f 60
        E 300 80 3f 00
        <X 180 0
          /wFbaWRsZV9yZWFsdGltZV0=
        >
        E 30 80 69 00
        E 3810 b0 7b 00
        GUID {A15A9F75-FB4D-4707-9460-87CE0EB85F79}
        IGNTEMPO 0 120.00000000 4 4
        SRCCOLOR 5
        VELLANE 132 128 60
        COLORMAP "C:\Program Files\REAPER (x64)\Data\color_maps\rockband_guitarbass.png"
        CFGEDITVIEW 92806.170953 28.704884 0 12 0 0 0
        CFGEDIT 1 1 0 1 1 0 1 1 1 1 1 0.12500000 53 44 1253 718 0 2 1 1 0.00000000 0 1 1 0 0.500000 0 0 1.000000 64
        KEYSNAP 0 7 "102030050700" 0 "Pentatonic"
        EVTFILTER 0 -1 -1 -1 -1 0 1 0 0 -1.00000000 -1.00000000
      >
    >
  >
  <TRACK '{A8495470-FFF8-4B1A-A10F-45C3F4DD0D64}'
    NAME "HARM1"
    PEAKCOL 16576
    BEAT -1
    AUTOMODE 0
    VOLPAN 1.00000000000000 0.00000000000000 -1.00000000000000 -1.00000000000000 1.00000000000000
    MUTESOLO 0 0 0
    IPHASE 0
    ISBUS 0 0
    BUSCOMP 0 0
    SHOWINMIX 1 0.666700 0.500000 1 0.500000 -1 -1 -1
    FREEMODE 0
    SEL 0
    REC 0 0 0 0 0 0 0
    VU 2
    TRACKHEIGHT 0 0
    INQ 0 0 0 0.5000000000 100 0 0 100
    NCHAN 2
    FX 0
    TRACKID {A8495470-FFF8-4B1A-A10F-45C3F4DD0D64}
    PERF 0
    MIDIOUT -1
    <MIDINOTENAMES
      0 116 "OVERDRIVE"
      0 115 "----"
      0 105 "Phrase Marker"
      0 104 "----"
      0 84 "C6 (Unused Highest Note)"
      0 83 "B5"
      0 82 "A#4"
      0 81 "A4"
      0 80 "G#4"
      0 79 "G4"
      0 78 "F#4"
      0 77 "F4"
      0 76 "E4"
      0 75 "D#4"
      0 74 "D4"
      0 73 "C#4"
      0 72 "C4"
      0 71 "B3"
      0 70 "A#3"
      0 69 "A3"
      0 68 "G#3"
      0 67 "G3"
      0 66 "F#3"
      0 65 "F3"
      0 64 "E3"
      0 63 "D#3"
      0 62 "D3"
      0 61 "C#3"
      0 60 "C3"
      0 59 "B2"
      0 58 "A#2"
      0 57 "A2"
      0 56 "G#2"
      0 55 "G2"
      0 54 "F#2"
      0 53 "F2"
      0 52 "E2"
      0 51 "D#2"
      0 50 "D2"
      0 49 "C#2"
      0 48 "C2"
      0 47 "B1"
      0 46 "A#1"
      0 45 "A1"
      0 44 "G#1"
      0 43 "G1"
      0 42 "F#1"
      0 41 "F1"
      0 40 "E1"
      0 39 "D#1"
      0 38 "D1"
      0 37 "C#1"
      0 36 "Lowest Note C1"
      0 2 "---"
      0 1 "Lyric Shift"
      0 0 "Range Shift"
    >
    MAINSEND 1 0
    <FXCHAIN
      WNDRECT 0 43 655 467
      SHOW 0
      LASTSEL 1
      DOCKED 0
      BYPASS 0 0
      <JS "MIDI/midi_note_filter" ""
        36.000000 84.000000 - - - - - - - - - - - - - - - - - - - - - - - - - - - - - - - - - - - - - - - - - - - - - - - - - - - - - - - - - - - - - - 
      >
      FLOATPOS 0 0 0 0
      FXID {B5EA1BB2-4355-4A4C-8603-BE7E5A3CEA0D}
      WAK 0
      BYPASS 0 0
      <VST "VSTi: ReaSynth (Cockos)" "reasynth.dll" 0 ""
        eXNlcu9e7f4AAAAAAgAAAAEAAAAAAAAAAgAAAAAAAAA4AAAAAAAAAA==
        AAAQAO++rd4N8K3eppvEOxe30ToAAIA/AAAAAAAAAADMm4A+6WeIPQ==
        AAAAAAAAAD8AAIA/AACAPwAAAD8AABAAAAA=
      >
      FLOATPOS 0 0 0 0
      FXID {09772EC0-4A63-4B8E-9179-184DFB70B698}
      WAK 0
    >
    <ITEM
      POSITION 0.00000000000000
      SNAPOFFS 0.00000000000000
      LENGTH 109.09839002267573
      LOOP 0
      ALLTAKES 0
      SEL 0
      FADEIN 1 0.000000 0.000000 1 0
      FADEOUT 1 0.000000 0.000000 1 0
      MUTE 0
      IGUID {3F9E9EA6-2CB6-48F9-BCE7-90F70CE848DA}
      IID 4
      NAME "HARM1"
      VOLPAN 1.000000 0.000000 1.000000 -1.000000
      SOFFS 0.00000000000000 0.00000000000000
      PLAYRATE 1.00000000000000 1 0.00000000000000 -1
      CHANMODE 0
      GUID {026D8185-2E77-42BB-85AE-43ED1828A159}
      <SOURCE MIDI
        HASDATA 1 480 QN
        POOLEDEVTS {EC210D52-A0A6-4489-996A-97950DD3A3D1}
        <X 0 0
          /wNIQVJNMQ==
        >
        <X 7680 0
          /wFbaWRsZV0=
        >
        <X 30720 0
          /wFbaW50ZW5zZV0=
        >
        E 0 90 69 60
        <X 480 0
          /wVTbw==
        >
        E 0 90 43 60
        E 360 80 43 00
        <X 120 0
          /wUr
        >
        E 0 90 41 60
        E 240 80 41 00
        <X 240 0
          /wVtYS0=
        >
        E 0 90 43 60
        E 360 80 43 00
        <X 120 0
          /wUr
        >
        E 0 90 41 60
        E 240 80 41 00
        <X 240 0
          /wVueQ==
        >
        E 0 90 43 60
        E 360 80 43 00
        <X 120 0
          /wUr
        >
        E 0 90 41 60
        E 240 80 41 00
        <X 240 0
          /wVnaXJscw==
        >
        E 0 90 43 60
        E 360 80 43 00
        <X 120 0
          /wUr
        >
        E 0 90 41 60
        E 240 80 41 00
        <X 240 0
          /wVJ
        >
        E 0 90 41 60
        E 690 80 41 00
        <X 390 0
          /wVrbm93
        >
        E 0 90 41 60
        E 1140 80 41 00
        <X 180 0
          /wUr
        >
        E 0 90 3f 60
        E 600 80 3f 00
        E 360 80 69 00
        E 0 90 69 60
        E 0 90 74 60
        <X 480 0
          /wVQb2kt
        >
        E 0 90 3f 60
        E 360 80 3f 00
        <X 120 0
          /wUr
        >
        E 0 90 3c 60
        E 240 80 3c 00
        <X 240 0
          /wVzb24=
        >
        E 0 90 3f 60
        E 360 80 3f 00
        <X 120 0
          /wUr
        >
        E 0 90 3c 60
        E 180 80 3c 00
        <X 270 0
          /wV0aGVpcg==
        >
        E 0 90 3f 60
        E 360 80 3f 00
        <X 120 0
          /wUr
        >
        E 0 90 3c 60
        E 240 80 3c 00
        <X 240 0
          /wV3b21icw==
        >
        E 0 90 3f 60
        E 360 80 3f 00
        <X 150 0
          /wUr
        >
        E 0 90 3c 60
        E 240 80 3c 00
        <X 240 0
          /wVmb3I=
        >
        E 0 90 3f 60
        E 360 80 3f 00
        <X 120 0
          /wUr
        >
        E 0 90 3c 60
        E 120 80 3c 00
        <X 360 0
          /wVzdXJl
        >
        E 0 90 3f 60
        E 1290 80 3f 00
        <X 150 0
          /wUr
        >
        E 0 90 3c 60
        E 270 80 3c 00
        E 690 80 69 00
        E 0 80 74 00
        E 0 90 69 60
        <X 480 0
          /wVJJ20=
        >
        E 0 90 3c 60
        E 300 80 3c 00
        <X 180 0
          /wUr
        >
        E 0 90 3a 60
        E 120 80 3a 00
        <X 360 0
          /wVzaWNr
        >
        E 0 90 3c 60
        E 150 80 3c 00
        <X 810 0
          /wVvZl4=
        >
        E 0 90 3c 60
        E 180 80 3c 00
        <X 780 0
          /wVhbGxe
        >
        E 0 90 43 60
        E 780 80 43 00
        <X 180 0
          /wV0aGVzZSM=
        >
        E 0 90 41 60
        E 570 80 41 00
        <X 390 0
          /wVnaXJscyM=
        >
        E 0 90 41 60
        E 2310 80 41 00
        E 90 80 69 00
        E 480 90 69 60
        <X 90 0
          /wVQb2ktIw==
        >
        E 0 90 3f 60
        E 390 80 3f 00
        <X 480 0
          /wVzb24tIw==
        >
        E 0 90 3f 60
        E 180 80 3f 00
        <X 300 0
          /wVpbmcj
        >
        E 0 90 3f 60
        E 120 80 3f 00
        <X 360 0
          /wV0aGVpciM=
        >
        E 0 90 40 60
        E 510 80 40 00
        <X 90 0
          /wFbaWRsZV9pbnRlbnNlXQ==
        >
        E 840 80 69 00
        <X 3840 0
          /wFbaW50ZW5zZV0=
        >
        E 0 90 69 60
        <X 480 0
          /wVXZSdyZV4=
        >
        E 0 90 3f 60
        E 120 80 3f 00
        <X 360 0
          /wVsb29rLSM=
        >
        E 0 90 3f 60
        E 120 80 3f 00
        <X 120 0
          /wVpbmde
        >
        E 0 90 3f 60
        E 60 80 3f 00
        <X 180 0
          /wVmb3Ij
        >
        E 0 90 3f 60
        E 180 80 3f 00
        <X 300 0
          /wV3aXZlc14=
        >
        E 0 90 3f 60
        E 300 80 3f 00
        E 90 90 01 60
        E 30 80 01 00
        <X 60 0
          /wVzbyM=
        >
        E 0 90 3f 60
        E 150 80 3f 00
        <X 330 0
          /wV0aXJlZCM=
        >
        E 0 90 3f 60
        E 240 80 3f 00
        <X 240 0
          /wVvZl4=
        >
        E 0 90 3f 60
        E 90 80 3f 00
        <X 390 0
          /wVzbHV0cyM=
        >
        E 0 90 3f 60
        E 300 80 3f 00
        E 60 80 69 00
        E 30 90 69 60
        E 0 90 74 60
        <X 90 0
          /wVDb20tIw==
        >
        E 0 90 3f 60
        E 120 80 3f 00
        <X 120 0
          /wVpbmde
        >
        E 0 90 3f 60
        E 60 80 3f 00
        <X 180 0
          /wV0byM=
        >
        E 0 90 3f 60
        E 90 80 3f 00
        <X 150 0
          /wV1c14=
        >
        E 0 90 3f 60
        E 90 80 3f 00
        <X 150 0
          /wVpbl4=
        >
        E 0 90 3f 60
        E 90 80 3f 00
        <X 150 0
          /wV0aGUj
        >
        E 0 90 3f 60
        E 60 80 3f 00
        <X 180 0
          /wVjbHVicyM=
        >
        E 0 90 3f 60
        E 210 80 3f 00
        E 30 90 01 60
        E 30 80 01 00
        <X 210 0
          /wV3aXRoXg==
        >
        E 0 90 3f 60
        E 90 80 3f 00
        <X 150 0
          /wV0aGVpciM=
        >
        E 0 90 3f 60
        E 90 80 3f 00
        <X 150 0
          /wVjby0j
        >
        E 0 90 3f 60
        E 360 80 3f 00
        <X 120 0
          /wVjYWluZSM=
        >
        E 0 90 3f 60
        E 300 80 3f 00
        E 180 80 69 00
        E 0 80 74 00
        E 240 90 69 60
        <X 240 0
          /wVXZSdyZV4=
        >
        E 0 90 3f 60
        E 120 80 3f 00
        <X 360 0
          /wVsb29rLSM=
        >
        E 0 90 3f 60
        E 120 80 3f 00
        <X 120 0
          /wVpbmde
        >
        E 0 90 3f 60
        E 60 80 3f 00
        <X 180 0
          /wVmb3Ij
        >
        E 0 90 3f 60
        E 180 80 3f 00
        <X 300 0
          /wV3aXZlc14=
        >
        E 0 90 3f 60
        E 300 80 3f 00
        E 90 90 01 60
        E 30 80 01 00
        <X 60 0
          /wVzbyM=
        >
        E 0 90 3f 60
        E 150 80 3f 00
        <X 330 0
          /wV0aXJlZCM=
        >
        E 0 90 3f 60
        E 240 80 3f 00
        <X 240 0
          /wVvZl4=
        >
        E 0 90 3f 60
        E 90 80 3f 00
        <X 390 0
          /wVzbHV0cyM=
        >
        E 0 90 3f 60
        E 300 80 3f 00
        E 60 80 69 00
        E 0 90 69 60
        <X 120 0
          /wVDb20tIw==
        >
        E 0 90 3f 60
        E 120 80 3f 00
        <X 120 0
          /wVpbmde
        >
        E 0 90 3f 60
        E 60 80 3f 00
        <X 180 0
          /wV0byM=
        >
        E 0 90 3f 60
        E 90 80 3f 00
        <X 150 0
          /wV1c14=
        >
        E 0 90 3f 60
        E 90 80 3f 00
        <X 150 0
          /wVpbl4=
        >
        E 0 90 3f 60
        E 90 80 3f 00
        <X 150 0
          /wV0aGUj
        >
        E 0 90 3f 60
        E 60 80 3f 00
        <X 180 0
          /wVjbHVicyM=
        >
        E 0 90 3f 60
        E 209 80 3f 00
        E 31 90 01 60
        E 30 80 01 00
        <X 209 0
          /wV3aXRoXg==
        >
        E 0 90 3f 60
        E 90 80 3f 00
        <X 150 0
          /wV0aGVpciM=
        >
        E 0 90 3f 60
        E 90 80 3f 00
        <X 150 0
          /wVjby0j
        >
        E 0 90 3f 60
        E 360 80 3f 00
        <X 120 0
          /wVjYWluZSM=
        >
        E 0 90 3f 60
        E 300 80 3f 00
        E 181 80 69 00
        E 0 90 69 60
        <X 480 0
          /wVJXg==
        >
        E 0 90 3f 60
        E 270 80 3f 00
        <X 210 0
          /wVrbm93Iw==
        >
        E 0 90 3f 60
        E 270 80 3f 00
        <X 210 0
          /wV5b3Uj
        >
        E 0 90 3f 60
        E 150 80 3f 00
        <X 330 0
          /wV0aGluayM=
        >
        E 0 90 3f 60
        E 180 80 3f 00
        <X 300 0
          /wV5b3Uj
        >
        E 0 90 3f 60
        E 180 80 3f 00
        <X 300 0
          /wVoYXZlIw==
        >
        E 0 90 3f 60
        E 180 80 3f 00
        <X 300 0
          /wVpdF4=
        >
        E 0 90 3f 60
        E 180 80 3f 00
        <X 300 0
          /wVhbGwj
        >
        E 0 90 3f 60
        E 150 80 3f 00
        E 90 80 69 00
        E 0 90 69 60
        E 0 90 74 60
        <X 240 0
          /wVCdXQj
        >
        E 0 90 3f 60
        E 150 80 3f 00
        <X 330 0
          /wV5b3Ve
        >
        E 0 90 3f 60
        E 150 80 3f 00
        <X 330 0
          /wV3aWxsXg==
        >
        E 0 90 3f 60
        E 120 80 3f 00
        <X 360 0
          /wVuZS0j
        >
        E 0 90 3f 60
        E 180 80 3f 00
        <X 300 0
          /wV2ZXIj
        >
        E 0 90 3f 60
        E 150 80 3f 00
        <X 330 0
          /wVlLSM=
        >
        E 0 90 3f 60
        E 150 80 3f 00
        <X 330 0
          /wV2ZW4j
        >
        E 0 90 3f 60
        E 150 80 3f 00
        E 330 80 69 00
        E 0 80 74 00
        E 0 90 69 60
        <X 480 0
          /wVXZSdyZV4=
        >
        E 0 90 3f 60
        E 120 80 3f 00
        <X 360 0
          /wVsb29rLSM=
        >
        E 0 90 3f 60
        E 120 80 3f 00
        <X 120 0
          /wVpbmde
        >
        E 0 90 3f 60
        E 60 80 3f 00
        <X 180 0
          /wVmb3Ij
        >
        E 0 90 3f 60
        E 180 80 3f 00
        <X 300 0
          /wV3aXZlc14=
        >
        E 0 90 3f 60
        E 300 80 3f 00
        E 60 90 01 60
        E 30 80 01 00
        <X 90 0
          /wVzbyM=
        >
        E 0 90 3f 60
        E 150 80 3f 00
        <X 330 0
          /wV0aXJlZCM=
        >
        E 0 90 3f 60
        E 240 80 3f 00
        <X 240 0
          /wVvZl4=
        >
        E 0 90 3f 60
        E 90 80 3f 00
        <X 390 0
          /wVzbHV0cyM=
        >
        E 0 90 3f 60
        E 300 80 3f 00
        E 60 80 69 00
        E 0 90 69 60
        <X 120 0
          /wVDb20tIw==
        >
        E 0 90 3f 60
        E 120 80 3f 00
        <X 120 0
          /wVpbmde
        >
        E 0 90 3f 60
        E 60 80 3f 00
        <X 180 0
          /wV0byM=
        >
        E 0 90 3f 60
        E 90 80 3f 00
        <X 150 0
          /wV1c14=
        >
        E 0 90 3f 60
        E 90 80 3f 00
        <X 150 0
          /wVpbl4=
        >
        E 0 90 3f 60
        E 90 80 3f 00
        <X 150 0
          /wV0aGUj
        >
        E 0 90 3f 60
        E 60 80 3f 00
        <X 180 0
          /wVjbHVicyM=
        >
        E 0 90 3f 60
        E 209 80 3f 00
        E 31 90 01 60
        E 30 80 01 00
        <X 209 0
          /wV3aXRoXg==
        >
        E 0 90 3f 60
        E 90 80 3f 00
        <X 150 0
          /wV0aGVpciM=
        >
        E 0 90 3f 60
        E 90 80 3f 00
        <X 150 0
          /wVjby0j
        >
        E 0 90 3f 60
        E 360 80 3f 00
        <X 121 0
          /wVjYWluZSM=
        >
        E 0 90 3f 60
        E 300 80 3f 00
        E 180 80 69 00
        E 0 90 69 60
        <X 480 0
          /wVZb3U=
        >
        E 0 90 3f 60
        E 360 80 3f 00
        <X 120 0
          /wUr
        >
        E 0 90 3c 60
        E 240 80 3c 00
        <X 240 0
          /wV3aWxs
        >
        E 0 90 3f 60
        E 360 80 3f 00
        <X 120 0
          /wUr
        >
        E 0 90 3c 60
        E 150 80 3c 00
        <X 330 0
          /wVuZS0=
        >
        E 0 90 3f 60
        E 360 80 3f 00
        <X 120 0
          /wUr
        >
        E 0 90 3c 60
        E 240 80 3c 00
        <X 240 0
          /wV2ZXI=
        >
        E 0 90 3f 60
        E 360 80 3f 00
        <X 120 0
          /wUr
        >
        E 0 90 3c 60
        E 180 80 3c 00
        <X 300 0
          /wVlLQ==
        >
        E 0 90 3f 60
        E 360 80 3f 00
        <X 120 0
          /wUr
        >
        E 0 90 3c 60
        E 240 80 3c 00
        <X 240 0
          /wV2ZW4=
        >
        E 0 90 3f 60
        E 360 80 3f 00
        <X 120 0
          /wUr
        >
        E 0 90 3c 60
        E 240 80 3c 00
        <X 240 0
          /wVrbm93Iw==
        >
        E 0 90 3f 60
        E 1410 80 3f 00
        E 30 80 69 00
        E 0 90 69 60
        <X 480 0
          /wVZb3Ve
        >
        E 0 90 3f 60
        E 390 80 3f 00
        <X 570 0
          /wV0aGluayM=
        >
        E 0 90 3f 60
        E 330 80 3f 00
        <X 630 0
          /wV5b3Ve
        >
        E 0 90 3f 60
        E 330 80 3f 00
        <X 630 0
          /wVoYXZlIw==
        >
        E 0 90 3f 60
        E 450 80 3f 00
        <X 510 0
          /wVjb24tIw==
        >
        E 0 90 3c 60
        E 480 80 3c 00
        <X 480 0
          /wV0cm9sIw==
        >
        E 0 90 3c 60
        E 1350 80 3c 00
        E 90 80 69 00
        E 960 90 69 60
        E 0 90 74 60
        <X 480 0
          /wVPbmVe
        >
        E 0 90 3a 60
        E 600 80 3a 00
        <X 360 0
          /wVkYXkj
        >
        E 0 90 3a 60
        E 540 80 3a 00
        <X 420 0
          /wV3ZSdsbCM=
        >
        E 0 90 3a 60
        E 360 80 3a 00
        <X 600 0
          /wVsb3NlIw==
        >
        E 0 90 41 60
        E 540 80 41 00
        <X 420 0
          /wV5b3Ve
        >
        E 0 90 41 60
        E 270 80 41 00
        <X 690 0
          /wVhbGxe
        >
        E 0 90 41 60
        E 2460 80 41 00
        E 180 80 69 00
        E 0 80 74 00
        E 0 90 69 60
        <X 240 0
          /wVPbmVe
        >
        E 0 90 3f 60
        E 540 80 3f 00
        <X 420 0
          /wVkYXkj
        >
        E 0 90 3f 60
        E 540 80 3f 00
        <X 420 0
          /wV3ZSdsbCM=
        >
        E 0 90 3f 60
        E 1020 80 3f 00
        <X 420 0
          /wFbaWRsZV9pbnRlbnNlXQ==
        >
        E 0 80 69 00
        <X 34560 0
          /wFbaW50ZW5zZV0=
        >
        E 0 90 69 60
        E 0 90 74 60
        <X 480 0
          /wVXZSdyZV4=
        >
        E 0 90 3f 60
        E 120 80 3f 00
        <X 360 0
          /wVsb29rLSM=
        >
        E 0 90 3f 60
        E 120 80 3f 00
        <X 120 0
          /wVpbmde
        >
        E 0 90 3f 60
        E 60 80 3f 00
        <X 180 0
          /wVmb3Ij
        >
        E 0 90 3f 60
        E 180 80 3f 00
        <X 300 0
          /wV3aXZlc14=
        >
        E 0 90 3f 60
        E 300 80 3f 00
        E 60 90 01 60
        E 30 80 01 00
        <X 90 0
          /wVzbyM=
        >
        E 0 90 3f 60
        E 150 80 3f 00
        <X 330 0
          /wV0aXJlZCM=
        >
        E 0 90 3f 60
        E 240 80 3f 00
        <X 240 0
          /wVvZl4=
        >
        E 0 90 3f 60
        E 90 80 3f 00
        <X 390 0
          /wVzbHV0cyM=
        >
        E 0 90 3f 60
        E 300 80 3f 00
        E 60 80 69 00
        E 0 80 74 00
        E 60 90 69 60
        <X 60 0
          /wVDb20tIw==
        >
        E 0 90 3f 60
        E 120 80 3f 00
        <X 120 0
          /wVpbmde
        >
        E 0 90 3f 60
        E 60 80 3f 00
        <X 180 0
          /wV0byM=
        >
        E 0 90 3f 60
        E 90 80 3f 00
        <X 150 0
          /wV1c14=
        >
        E 0 90 3f 60
        E 90 80 3f 00
        <X 150 0
          /wVpbl4=
        >
        E 0 90 3f 60
        E 90 80 3f 00
        <X 150 0
          /wV0aGUj
        >
        E 0 90 3f 60
        E 60 80 3f 00
        <X 180 0
          /wVjbHVicyM=
        >
        E 0 90 3f 60
        E 210 80 3f 00
        E 30 90 01 60
        E 30 80 01 00
        <X 210 0
          /wV3aXRoXg==
        >
        E 0 90 3f 60
        E 90 80 3f 00
        <X 150 0
          /wV0aGVpciM=
        >
        E 0 90 3f 60
        E 90 80 3f 00
        <X 150 0
          /wVjby0j
        >
        E 0 90 3f 60
        E 360 80 3f 00
        <X 120 0
          /wVjYWluZSM=
        >
        E 0 90 3f 60
        E 300 80 3f 00
        E 180 80 69 00
        E 0 90 69 60
        <X 480 0
          /wVXZSdyZV4=
        >
        E 0 90 3f 60
        E 120 80 3f 00
        <X 360 0
          /wVsb29rLSM=
        >
        E 0 90 3f 60
        E 120 80 3f 00
        <X 120 0
          /wVpbmde
        >
        E 0 90 3f 60
        E 60 80 3f 00
        <X 180 0
          /wVmb3Ij
        >
        E 0 90 3f 60
        E 180 80 3f 00
        <X 300 0
          /wV3aXZlc14=
        >
        E 0 90 3f 60
        E 300 80 3f 00
        E 60 90 01 60
        E 30 80 01 00
        <X 90 0
          /wVzbyM=
        >
        E 0 90 3f 60
        E 150 80 3f 00
        <X 330 0
          /wV0aXJlZCM=
        >
        E 0 90 3f 60
        E 240 80 3f 00
        <X 240 0
          /wVvZl4=
        >
        E 0 90 3f 60
        E 90 80 3f 00
        <X 390 0
          /wVzbHV0cyM=
        >
        E 0 90 3f 60
        E 300 80 3f 00
        E 90 80 69 00
        E 30 90 69 60
        <X 60 0
          /wVDb20tIw==
        >
        E 0 90 3f 60
        E 120 80 3f 00
        <X 120 0
          /wVpbmde
        >
        E 0 90 3f 60
        E 60 80 3f 00
        <X 180 0
          /wV0byM=
        >
        E 0 90 3f 60
        E 90 80 3f 00
        <X 150 0
          /wV1c14=
        >
        E 0 90 3f 60
        E 90 80 3f 00
        <X 150 0
          /wVpbl4=
        >
        E 0 90 3f 60
        E 90 80 3f 00
        <X 150 0
          /wV0aGUj
        >
        E 0 90 3f 60
        E 60 80 3f 00
        <X 180 0
          /wVjbHVicyM=
        >
        E 0 90 3f 60
        E 209 80 3f 00
        E 31 90 01 60
        E 30 80 01 00
        <X 209 0
          /wV3aXRoXg==
        >
        E 0 90 3f 60
        E 90 80 3f 00
        <X 150 0
          /wV0aGVpciM=
        >
        E 0 90 3f 60
        E 90 80 3f 00
        <X 150 0
          /wVjby0j
        >
        E 0 90 3f 60
        E 360 80 3f 00
        <X 120 0
          /wVjYWluZSM=
        >
        E 0 90 3f 60
        E 300 80 3f 00
        E 181 80 69 00
        E 0 90 69 60
        <X 480 0
          /wVJXg==
        >
        E 0 90 3f 60
        E 270 80 3f 00
        <X 210 0
          /wVrbm93Iw==
        >
        E 0 90 3f 60
        E 270 80 3f 00
        <X 210 0
          /wV5b3Uj
        >
        E 0 90 3f 60
        E 150 80 3f 00
        <X 330 0
          /wV0aGluayM=
        >
        E 0 90 3f 60
        E 180 80 3f 00
        <X 300 0
          /wV5b3Uj
        >
        E 0 90 3f 60
        E 180 80 3f 00
        <X 300 0
          /wVoYXZlIw==
        >
        E 0 90 3f 60
        E 180 80 3f 00
        <X 300 0
          /wVpdF4=
        >
        E 0 90 3f 60
        E 180 80 3f 00
        <X 300 0
          /wVhbGwj
        >
        E 0 90 3f 60
        E 150 80 3f 00
        E 90 80 69 00
        E 0 90 69 60
        <X 240 0
          /wVCdXQj
        >
        E 0 90 3f 60
        E 150 80 3f 00
        <X 330 0
          /wV5b3Ve
        >
        E 0 90 3f 60
        E 150 80 3f 00
        <X 330 0
          /wV3aWxsXg==
        >
        E 0 90 3f 60
        E 120 80 3f 00
        <X 360 0
          /wVuZS0j
        >
        E 0 90 3f 60
        E 180 80 3f 00
        <X 300 0
          /wV2ZXIj
        >
        E 0 90 3f 60
        E 150 80 3f 00
        <X 330 0
          /wVlLSM=
        >
        E 0 90 3f 60
        E 150 80 3f 00
        <X 330 0
          /wV2ZW4j
        >
        E 0 90 3f 60
        E 150 80 3f 00
        E 330 80 69 00
        E 0 90 69 60
        <X 480 0
          /wVXZSdyZV4=
        >
        E 0 90 3f 60
        E 120 80 3f 00
        <X 360 0
          /wVsb29rLSM=
        >
        E 0 90 3f 60
        E 120 80 3f 00
        <X 120 0
          /wVpbmde
        >
        E 0 90 3f 60
        E 60 80 3f 00
        <X 180 0
          /wVmb3Ij
        >
        E 0 90 3f 60
        E 180 80 3f 00
        <X 300 0
          /wV3aXZlc14=
        >
        E 0 90 3f 60
        E 300 80 3f 00
        <X 180 0
          /wVzbyM=
        >
        E 0 90 3f 60
        E 150 80 3f 00
        <X 330 0
          /wV0aXJlZCM=
        >
        E 0 90 3f 60
        E 240 80 3f 00
        <X 240 0
          /wVvZl4=
        >
        E 0 90 3f 60
        E 90 80 3f 00
        <X 390 0
          /wVzbHV0cyM=
        >
        E 0 90 3f 60
        E 300 80 3f 00
        E 90 80 69 00
        E 0 90 69 60
        <X 90 0
          /wVDb20tIw==
        >
        E 0 90 3f 60
        E 120 80 3f 00
        <X 120 0
          /wVpbmde
        >
        E 0 90 3f 60
        E 60 80 3f 00
        <X 180 0
          /wV0byM=
        >
        E 0 90 3f 60
        E 90 80 3f 00
        <X 150 0
          /wV1c14=
        >
        E 0 90 3f 60
        E 90 80 3f 00
        <X 150 0
          /wVpbl4=
        >
        E 0 90 3f 60
        E 90 80 3f 00
        <X 150 0
          /wV0aGUj
        >
        E 0 90 3f 60
        E 60 80 3f 00
        <X 180 0
          /wVjbHVicyM=
        >
        E 0 90 3f 60
        E 209 80 3f 00
        <X 270 0
          /wV3aXRoXg==
        >
        E 0 90 3f 60
        E 90 80 3f 00
        <X 150 0
          /wV0aGVpciM=
        >
        E 0 90 3f 60
        E 90 80 3f 00
        <X 150 0
          /wVjby0j
        >
        E 0 90 3f 60
        E 360 80 3f 00
        <X 121 0
          /wVjYWluZSM=
        >
        E 0 90 3f 60
        E 300 80 3f 00
        <X 180 0
          /wFbaWRsZV9yZWFsdGltZV0=
        >
        E 30 80 69 00
        E 3810 b0 7b 00
        GUID {34669B6D-C324-4ECE-884C-2836C802DBA4}
        IGNTEMPO 0 120.00000000 4 4
        SRCCOLOR 6
        VELLANE 132 128 60
        COLORMAP "C:\Program Files\REAPER (x64)\Data\color_maps\rockband_guitarbass.png"
        CFGEDITVIEW -12968.014830 10.293458 0 12 0 0 0
        CFGEDIT 1 1 0 1 1 0 1 1 1 1 1 0.12500000 53 44 1253 718 0 2 1 1 0.00000000 0 1 1 0 0.500000 0 0 1.000000 64
        KEYSNAP 0 7 "102030050700" 0 "Pentatonic"
        EVTFILTER 0 -1 -1 -1 -1 0 1 0 0 -1.00000000 -1.00000000
      >
    >
  >
  <TRACK '{3DEE5FA6-3BB6-4530-B19F-B715F0CE20A1}'
    NAME "HARM2"
    PEAKCOL 16576
    BEAT -1
    AUTOMODE 0
    VOLPAN 1.00000000000000 0.00000000000000 -1.00000000000000 -1.00000000000000 1.00000000000000
    MUTESOLO 0 0 0
    IPHASE 0
    ISBUS 2 -1
    BUSCOMP 0 0
    SHOWINMIX 1 0.666700 0.500000 1 0.500000 -1 -1 -1
    FREEMODE 0
    SEL 0
    REC 0 0 0 0 0 0 0
    VU 2
    TRACKHEIGHT 0 0
    INQ 0 0 0 0.5000000000 100 0 0 100
    NCHAN 2
    FX 0
    TRACKID {3DEE5FA6-3BB6-4530-B19F-B715F0CE20A1}
    PERF 0
    MIDIOUT -1
    <MIDINOTENAMES
      0 105 "Phrase Marker"
      0 104 "----"
      0 84 "C6 (Unused Highest Note)"
      0 83 "B5"
      0 82 "A#4"
      0 81 "A4"
      0 80 "G#4"
      0 79 "G4"
      0 78 "F#4"
      0 77 "F4"
      0 76 "E4"
      0 75 "D#4"
      0 74 "D4"
      0 73 "C#4"
      0 72 "C4"
      0 71 "B3"
      0 70 "A#3"
      0 69 "A3"
      0 68 "G#3"
      0 67 "G3"
      0 66 "F#3"
      0 65 "F3"
      0 64 "E3"
      0 63 "D#3"
      0 62 "D3"
      0 61 "C#3"
      0 60 "C3"
      0 59 "B2"
      0 58 "A#2"
      0 57 "A2"
      0 56 "G#2"
      0 55 "G2"
      0 54 "F#2"
      0 53 "F2"
      0 52 "E2"
      0 51 "D#2"
      0 50 "D2"
      0 49 "C#2"
      0 48 "C2"
      0 47 "B1"
      0 46 "A#1"
      0 45 "A1"
      0 44 "G#1"
      0 43 "G1"
      0 42 "F#1"
      0 41 "F1"
      0 40 "E1"
      0 39 "D#1"
      0 38 "D1"
      0 37 "C#1"
      0 36 "Lowest Note C1"
    >
    MAINSEND 1 0
    <FXCHAIN
      WNDRECT 0 43 655 467
      SHOW 0
      LASTSEL 1
      DOCKED 0
      BYPASS 0 0
      <JS "MIDI/midi_note_filter" ""
        36.000000 84.000000 - - - - - - - - - - - - - - - - - - - - - - - - - - - - - - - - - - - - - - - - - - - - - - - - - - - - - - - - - - - - - - 
      >
      FLOATPOS 0 0 0 0
      FXID {F81F0778-17F1-455C-BDBA-524A4D0B782E}
      WAK 0
      BYPASS 0 0
      <VST "VSTi: ReaSynth (Cockos)" "reasynth.dll" 0 ""
        eXNlcu9e7f4AAAAAAgAAAAEAAAAAAAAAAgAAAAAAAAA4AAAAAAAAAA==
        AAAQAO++rd4N8K3eppvEOxe30ToAAIA/AAAAAAAAAADMm4A+6WeIPQ==
        AAAAAAAAAD8AAIA/AACAPwAAAD8AABAAAAA=
      >
      FLOATPOS 0 0 0 0
      FXID {8BA17B31-301C-4E89-BCC2-E96201F6E061}
      WAK 0
    >
    <ITEM
      POSITION 0.00000000000000
      SNAPOFFS 0.00000000000000
      LENGTH 109.09839002267573
      LOOP 0
      ALLTAKES 0
      SEL 0
      FADEIN 1 0.000000 0.000000 1 0
      FADEOUT 1 0.000000 0.000000 1 0
      MUTE 0
      IGUID {52965A50-E1C1-45A7-BC20-AF8DB977133B}
      IID 5
      NAME "HARM2"
      VOLPAN 1.000000 0.000000 1.000000 -1.000000
      SOFFS 0.00000000000000 0.00000000000000
      PLAYRATE 1.00000000000000 1 0.00000000000000 -1
      CHANMODE 0
      GUID {5A57B03D-347D-4B6C-AE60-2A44D54AC0D4}
      <SOURCE MIDI
        HASDATA 1 480 QN
        POOLEDEVTS {68658C1A-17A3-4FA9-AFB1-E84B8107136E}
        <X 0 0
          /wNIQVJNMg==
        >
        E 58560 90 69 60
        <X 480 0
          /wVHaXJscyM=
        >
        E 0 90 45 60
        E 2310 80 45 00
        E 570 80 69 00
        E 58080 90 69 60
        <X 480 0
          /wVBbGxe
        >
        E 0 90 45 60
        E 2460 80 45 00
        E 180 80 69 00
        E 72720 b0 7b 00
        GUID {02B75D4B-F474-4728-87B3-71D63B4E269C}
        IGNTEMPO 0 120.00000000 4 4
        SRCCOLOR 7
        VELLANE 132 128 60
        COLORMAP "C:\Program Files\REAPER (x64)\Data\color_maps\rockband_guitarbass.png"
        CFGEDITVIEW -12968.014830 10.293458 0 12 0 0 0
        CFGEDIT 1 1 0 1 1 0 1 1 1 1 1 0.12500000 53 44 1253 718 0 2 1 1 0.00000000 0 1 1 0 0.500000 0 0 1.000000 64
        KEYSNAP 0 7 "102030050700" 0 "Pentatonic"
        EVTFILTER 0 -1 -1 -1 -1 0 1 0 0 -1.00000000 -1.00000000
      >
    >
  >
  <TRACK '{AE812042-B7A3-432B-AD5C-0741190A553F}'
    NAME "PART REAL_BASS"
    PEAKCOL 16576
    BEAT -1
    AUTOMODE 0
    VOLPAN 1.00000000000000 0.00000000000000 -1.00000000000000 -1.00000000000000 1.00000000000000
    MUTESOLO 0 0 0
    IPHASE 0
    ISBUS 0 0
    BUSCOMP 0 0
    SHOWINMIX 1 0.666700 0.500000 1 0.500000 -1 -1 -1
    FREEMODE 0
    SEL 0
    REC 0 0 0 0 0 0 0
    VU 2
    TRACKHEIGHT 0 0
    INQ 0 0 0 0.5000000000 100 0 0 100
    NCHAN 2
    FX 0
    TRACKID {AE812042-B7A3-432B-AD5C-0741190A553F}
    PERF 0
    MIDIOUT -1
    <MIDINOTENAMES
      0 127 "Trill Marker"
      0 126 "Tremolo Marker"
      0 125 "BRE"
      0 124 "BRE"
      0 123 "BRE"
      0 122 "BRE"
      0 121 "BRE"
      0 120 "BRE (use all 6)"
      0 119 "-----------"
      0 116 "OVERDRIVE"
      0 115 "Solo Marker"
      0 109 "-----------"
      0 108 "Fret Hand Position"
      0 107 "Force Chord Numbering"
      0 106 "Loose Strumming"
      0 105 "Strum Direction"
      0 104 "Arpeggio Marker"
      0 103 "Slide Marker"
      0 102 "Force HOPO"
      0 101 "EXPERT e String"
      0 100 "EXPERT B String"
      0 99 "EXPERT G String"
      0 98 "EXPERT D String"
      0 97 "EXPERT A String"
      0 96 "EXPERT E String"
      0 95 "-----------"
      0 82 "Loose Strumming"
      0 81 "Strum Direction"
      0 80 "Arpeggio Marker"
      0 79 "Slide Marker"
      0 78 "Force HOPO"
      0 77 "HARD e String"
      0 76 "HARD B String"
      0 75 "HARD G String"
      0 74 "HARD D String"
      0 73 "HARD A String"
      0 72 "HARD E String"
      0 71 "-----------"
      0 58 "Loose Strumming"
      0 56 "Arpeggio Marker"
      0 55 "Slide Marker"
      0 53 "MEDIUM e String"
      0 52 "MEDIUM B String"
      0 51 "MEDIUM G String"
      0 50 "MEDIUM D String"
      0 49 "MEDIUM A String"
      0 48 "MEDIUM E String"
      0 47 "-----------"
      0 32 "Arpeggio Marker"
      0 31 "Slide Marker"
      0 29 "EASY e String"
      0 28 "EASY B String"
      0 27 "EASY G String"
      0 26 "EASY D String"
      0 25 "EASY A String"
      0 24 "EASY E String"
      0 21 "-----------"
      0 18 "Flat/Sharp Swap"
      0 17 "Hide Chord Names"
      0 16 "Slash Chord"
      0 15 "D#"
      0 14 "D"
      0 13 "C#"
      0 12 "C"
      0 11 "B"
      0 10 "A#"
      0 9 "A"
      0 8 "G#"
      0 7 "G"
      0 6 "F#"
      0 5 "F"
      0 4 "E"
    >
    MAINSEND 1 0
    <FXCHAIN
      WNDRECT 0 43 729 467
      SHOW 0
      LASTSEL 1
      DOCKED 0
      BYPASS 0 0
      <JS "c3/progtr" ""
        0.000000 3.000000 0.000000 0.000000 0.000000 0.000000 0.000000 -2.000000 0.000000 1.000000 - - - - - - - - - - - - - - - - - - - - - - - - - - - - - - - - - - - - - - - - - - - - - - - - - - - - - - 
      >
      FLOATPOS 0 0 0 0
      FXID {5A31C121-798C-4F65-85EC-2A6E556AD7C6}
      WAK 0
      BYPASS 0 0
      <JS "MIDI/midi_transpose" ""
        -2.000000 1.000000 0.000000 127.000000 - - - - - - - - - - - - - - - - - - - - - - - - - - - - - - - - - - - - - - - - - - - - - - - - - - - - - - - - - - - - 
      >
      FLOATPOS 0 0 0 0
      FXID {F962304F-C506-4ED1-B22B-2B37421A08DA}
      WAK 0
      BYPASS 0 0
      <VST "VSTi: ReaSynth (Cockos)" "reasynth.dll" 0 ""
        eXNlcu9e7f4AAAAAAgAAAAEAAAAAAAAAAgAAAAAAAAA4AAAAAAAAAA==
        AAAQAO++rd4N8K3eppvEO+gJMjwAAAAAAAAAAAAAgD8AAIA/4jAEPA==
        AAAAAAAAAD+01hM+j8L1PQAAAD8AABAAAAA=
      >
      FLOATPOS 0 0 0 0
      FXID {2A6AD523-08DE-4E3E-99E6-F7C6A4858D2F}
      WAK 0
    >
    <ITEM
      POSITION 0.00000000000000
      SNAPOFFS 0.00000000000000
      LENGTH 109.09842099999999
      LOOP 0
      ALLTAKES 0
      SEL 0
      FADEIN 1 0.000000 0.000000 1 0
      FADEOUT 1 0.000000 0.000000 1 0
      MUTE 0
      IGUID {EB3C1A83-0A6A-4DEE-992D-38F362783409}
      IID 6
      NAME "PART REAL_BASS"
      VOLPAN 1.000000 0.000000 1.000000 -1.000000
      SOFFS 0.00000000000000 0.00000000000000
      PLAYRATE 1.00000000000000 1 0.00000000000000 -1
      CHANMODE 0
      GUID {CFBF106D-1394-4D43-8C03-63114A00CA1A}
      <SOURCE MIDI
        HASDATA 1 480 QN
        POOLEDEVTS {CFCB9742-B78F-42B2-A043-630C7C38A88C}
        <X 0 0
          /wNQQVJUIFJFQUxfQkFTUw==
        >
        <X 7680 0
          /wFbYmVnaW5fcGIgc29uZ190cmFpbmVyX3BiXzFd
        >
        E 0 90 19 69
        E 0 90 31 69
        E 0 90 49 69
        E 0 90 61 69
        E 0 90 6c 69
        E 120 80 19 00
        E 0 80 31 00
        E 0 80 49 00
        E 0 80 61 00
        E 0 80 6c 00
        E 120 90 61 69
        E 120 80 61 00
        E 120 90 31 69
        E 0 90 49 69
        E 0 90 61 69
        E 120 80 31 00
        E 0 80 49 00
        E 0 80 61 00
        E 120 90 61 69
        E 120 80 61 00
        E 120 90 31 69
        E 0 90 49 69
        E 0 90 61 69
        E 120 80 31 00
        E 0 80 49 00
        E 0 80 61 00
        E 360 90 4a 6b
        E 0 90 62 6b
        E 120 80 4a 00
        E 0 80 62 00
        E 360 90 1b 69
        E 0 90 33 69
        E 0 90 4b 69
        E 0 90 63 69
        E 120 80 1b 00
        E 0 80 33 00
        E 0 80 4b 00
        E 0 80 63 00
        E 120 90 63 69
        E 120 80 63 00
        E 120 90 33 69
        E 0 90 4b 69
        E 0 90 63 69
        E 120 80 33 00
        E 0 80 4b 00
        E 0 80 63 00
        E 120 90 63 69
        E 120 80 63 00
        E 120 90 33 69
        E 0 90 4b 69
        E 0 90 63 69
        E 120 80 33 00
        E 0 80 4b 00
        E 0 80 63 00
        E 360 90 4a 6b
        E 0 90 62 6b
        E 120 80 4a 00
        E 0 80 62 00
        <X 360 0
          /wFbcGJfbm9ybSBzb25nX3RyYWluZXJfcGJfMV0=
        >
        E 0 90 1a 6c
        E 0 90 32 6c
        E 0 90 4a 6c
        E 0 90 62 6c
        E 120 80 1a 00
        E 0 80 32 00
        E 0 80 4a 00
        E 0 80 62 00
        E 120 90 62 6c
        E 120 80 62 00
        E 120 90 32 6c
        E 0 90 4a 6c
        E 0 90 62 6c
        E 120 80 32 00
        E 0 80 4a 00
        E 0 80 62 00
        E 120 90 62 6c
        E 120 80 62 00
        E 120 90 32 6c
        E 0 90 4a 6c
        E 0 90 62 6c
        E 120 80 32 00
        E 0 80 4a 00
        E 0 80 62 00
        E 360 90 49 6c
        E 0 90 61 6c
        E 120 80 49 00
        E 0 80 61 00
        E 360 90 1a 69
        E 0 90 32 69
        E 0 90 4a 69
        E 0 90 62 69
        E 120 80 1a 00
        E 0 80 32 00
        E 0 80 4a 00
        E 0 80 62 00
        E 120 90 62 69
        E 120 80 62 00
        E 120 90 32 69
        E 0 90 4a 69
        E 0 90 62 69
        E 120 80 32 00
        E 0 80 4a 00
        E 0 80 62 00
        E 120 90 62 69
        E 120 80 62 00
        E 120 90 32 69
        E 0 90 4a 69
        E 0 90 62 69
        E 120 80 32 00
        E 0 80 4a 00
        E 0 80 62 00
        E 120 90 60 6c
        E 0 90 6c 6c
        E 120 80 60 00
        E 0 80 6c 00
        E 120 90 48 6e
        E 0 90 60 6e
        E 120 80 48 00
        E 0 80 60 00
        E 360 90 19 69
        E 0 90 31 69
        E 0 90 49 69
        E 0 90 61 69
        E 0 90 6c 69
        E 120 80 19 00
        E 0 80 31 00
        E 0 80 49 00
        E 0 80 61 00
        E 0 80 6c 00
        E 120 90 61 69
        E 120 80 61 00
        E 120 90 31 69
        E 0 90 49 69
        E 0 90 61 69
        E 120 80 31 00
        E 0 80 49 00
        E 0 80 61 00
        E 120 90 61 69
        E 120 80 61 00
        E 120 90 31 69
        E 0 90 49 69
        E 0 90 61 69
        E 120 80 31 00
        E 0 80 49 00
        E 0 80 61 00
        E 360 90 4a 6b
        E 0 90 62 6b
        E 120 80 4a 00
        E 0 80 62 00
        E 360 90 1b 69
        E 0 90 33 69
        E 0 90 4b 69
        E 0 90 63 69
        E 120 80 1b 00
        E 0 80 33 00
        E 0 80 4b 00
        E 0 80 63 00
        E 120 90 63 69
        E 120 80 63 00
        E 120 90 33 69
        E 0 90 4b 69
        E 0 90 63 69
        E 120 80 33 00
        E 0 80 4b 00
        E 0 80 63 00
        E 120 90 63 69
        E 120 80 63 00
        E 120 90 33 69
        E 0 90 4b 69
        E 0 90 63 69
        E 120 80 33 00
        E 0 80 4b 00
        E 0 80 63 00
        E 360 90 4a 6b
        E 0 90 62 6b
        E 120 80 4a 00
        E 0 80 62 00
        E 360 90 1a 6c
        E 0 90 32 6c
        E 0 90 4a 6c
        E 0 90 62 6c
        E 0 90 74 64
        E 120 80 1a 00
        E 0 80 32 00
        E 0 80 4a 00
        E 0 80 62 00
        E 120 90 62 6c
        E 120 80 62 00
        E 120 90 32 6c
        E 0 90 4a 6c
        E 0 90 62 6c
        E 120 80 32 00
        E 0 80 4a 00
        E 0 80 62 00
        E 120 90 62 6c
        E 120 80 62 00
        E 120 90 32 6c
        E 0 90 4a 6c
        E 0 90 62 6c
        E 120 80 32 00
        E 0 80 4a 00
        E 0 80 62 00
        E 360 90 49 6c
        E 0 90 61 6c
        E 120 80 49 00
        E 0 80 61 00
        E 360 90 1a 69
        E 0 90 32 69
        E 0 90 4a 69
        E 0 90 62 69
        E 120 80 1a 00
        E 0 80 32 00
        E 0 80 4a 00
        E 0 80 62 00
        E 120 90 62 69
        E 120 80 62 00
        E 120 90 32 69
        E 0 90 4a 69
        E 0 90 62 69
        E 120 80 32 00
        E 0 80 4a 00
        E 0 80 62 00
        E 120 90 62 69
        E 120 80 62 00
        E 120 90 32 69
        E 0 90 4a 69
        E 0 90 62 69
        E 120 80 32 00
        E 0 80 4a 00
        E 0 80 62 00
        E 120 90 63 6b
        E 0 90 6c 6b
        E 120 80 63 00
        E 0 80 6c 00
        E 120 90 4b 6e
        E 0 90 63 6e
        E 0 90 66 64
        E 120 80 4b 00
        E 0 80 63 00
        E 0 80 66 00
        <X 360 0
          /wFbZW5kX3BiIHNvbmdfdHJhaW5lcl9wYl8xXQ==
        >
        E 0 80 74 00
        E 0 90 19 69
        E 0 90 31 69
        E 0 90 49 69
        E 0 90 61 69
        E 0 90 6c 69
        E 120 80 19 00
        E 0 80 31 00
        E 0 80 49 00
        E 0 80 61 00
        E 0 80 6c 00
        E 120 90 61 69
        E 120 80 61 00
        E 120 90 31 69
        E 0 90 49 69
        E 0 90 61 69
        E 120 80 31 00
        E 0 80 49 00
        E 0 80 61 00
        E 120 90 61 69
        E 120 80 61 00
        E 120 90 31 69
        E 0 90 49 69
        E 0 90 61 69
        E 120 80 31 00
        E 0 80 49 00
        E 0 80 61 00
        E 360 90 4a 6b
        E 0 90 62 6b
        E 120 80 4a 00
        E 0 80 62 00
        E 360 90 1b 69
        E 0 90 33 69
        E 0 90 4b 69
        E 0 90 63 69
        E 120 80 1b 00
        E 0 80 33 00
        E 0 80 4b 00
        E 0 80 63 00
        E 120 90 63 69
        E 120 80 63 00
        E 120 90 33 69
        E 0 90 4b 69
        E 0 90 63 69
        E 120 80 33 00
        E 0 80 4b 00
        E 0 80 63 00
        E 120 90 63 69
        E 120 80 63 00
        E 120 90 33 69
        E 0 90 4b 69
        E 0 90 63 69
        E 120 80 33 00
        E 0 80 4b 00
        E 0 80 63 00
        E 360 90 4a 6b
        E 0 90 62 6b
        E 120 80 4a 00
        E 0 80 62 00
        E 360 90 1a 6c
        E 0 90 32 6c
        E 0 90 4a 6c
        E 0 90 62 6c
        E 120 80 1a 00
        E 0 80 32 00
        E 0 80 4a 00
        E 0 80 62 00
        E 120 90 62 6c
        E 120 80 62 00
        E 120 90 32 6c
        E 0 90 4a 6c
        E 0 90 62 6c
        E 120 80 32 00
        E 0 80 4a 00
        E 0 80 62 00
        E 120 90 62 6c
        E 120 80 62 00
        E 120 90 32 6c
        E 0 90 4a 6c
        E 0 90 62 6c
        E 120 80 32 00
        E 0 80 4a 00
        E 0 80 62 00
        E 360 90 49 6c
        E 0 90 61 6c
        E 120 80 49 00
        E 0 80 61 00
        E 360 90 1a 69
        E 0 90 32 69
        E 0 90 4a 69
        E 0 90 62 69
        E 120 80 1a 00
        E 0 80 32 00
        E 0 80 4a 00
        E 0 80 62 00
        E 120 90 62 69
        E 120 80 62 00
        E 120 90 32 69
        E 0 90 4a 69
        E 0 90 62 69
        E 120 80 32 00
        E 0 80 4a 00
        E 0 80 62 00
        E 120 90 62 69
        E 120 80 62 00
        E 120 90 32 69
        E 0 90 4a 69
        E 0 90 62 69
        E 120 80 32 00
        E 0 80 4a 00
        E 0 80 62 00
        E 120 90 60 6c
        E 0 90 6c 6c
        E 120 80 60 00
        E 0 80 6c 00
        E 120 90 48 6e
        E 0 90 60 6e
        E 120 80 48 00
        E 0 80 60 00
        E 360 90 19 69
        E 0 90 31 69
        E 0 90 49 69
        E 0 90 61 69
        E 0 90 6c 69
        E 120 80 19 00
        E 0 80 31 00
        E 0 80 49 00
        E 0 80 61 00
        E 0 80 6c 00
        E 120 90 61 69
        E 120 80 61 00
        E 120 90 31 69
        E 0 90 49 69
        E 0 90 61 69
        E 120 80 31 00
        E 0 80 49 00
        E 0 80 61 00
        E 120 90 61 69
        E 120 80 61 00
        E 120 90 31 69
        E 0 90 49 69
        E 0 90 61 69
        E 120 80 31 00
        E 0 80 49 00
        E 0 80 61 00
        E 360 90 4a 6b
        E 0 90 62 6b
        E 120 80 4a 00
        E 0 80 62 00
        E 360 90 1b 69
        E 0 90 33 69
        E 0 90 4b 69
        E 0 90 63 69
        E 120 80 1b 00
        E 0 80 33 00
        E 0 80 4b 00
        E 0 80 63 00
        E 120 90 63 69
        E 120 80 63 00
        E 120 90 33 69
        E 0 90 4b 69
        E 0 90 63 69
        E 120 80 33 00
        E 0 80 4b 00
        E 0 80 63 00
        E 120 90 63 69
        E 120 80 63 00
        E 120 90 33 69
        E 0 90 4b 69
        E 0 90 63 69
        E 120 80 33 00
        E 0 80 4b 00
        E 0 80 63 00
        E 360 90 4a 6b
        E 0 90 62 6b
        E 120 80 4a 00
        E 0 80 62 00
        E 360 90 1a 6c
        E 0 90 32 6c
        E 0 90 4a 6c
        E 0 90 62 6c
        E 120 80 1a 00
        E 0 80 32 00
        E 0 80 4a 00
        E 0 80 62 00
        E 120 90 62 6c
        E 120 80 62 00
        E 120 90 32 6c
        E 0 90 4a 6c
        E 0 90 62 6c
        E 120 80 32 00
        E 0 80 4a 00
        E 0 80 62 00
        E 120 90 62 6c
        E 120 80 62 00
        E 120 90 32 6c
        E 0 90 4a 6c
        E 0 90 62 6c
        E 120 80 32 00
        E 0 80 4a 00
        E 0 80 62 00
        E 360 90 4b 6b
        E 0 90 63 6b
        E 120 80 4b 00
        E 0 80 63 00
        E 360 90 1a 69
        E 0 90 32 69
        E 0 90 4a 69
        E 0 90 62 69
        E 120 80 1a 00
        E 0 80 32 00
        E 0 80 4a 00
        E 0 80 62 00
        E 120 90 62 69
        E 120 80 62 00
        E 120 90 32 69
        E 0 90 4a 69
        E 0 90 62 69
        E 120 80 32 00
        E 0 80 4a 00
        E 0 80 62 00
        E 120 90 62 69
        E 120 80 62 00
        E 120 90 32 69
        E 0 90 4a 69
        E 0 90 62 69
        E 120 80 32 00
        E 0 80 4a 00
        E 0 80 62 00
        E 120 90 61 69
        E 120 80 61 00
        E 120 90 49 69
        E 0 90 61 69
        E 120 80 49 00
        E 0 80 61 00
        E 120 90 61 69
        E 120 80 61 00
        <X 120 0
          /wFbYmVnaW5fcGIgc29uZ190cmFpbmVyX3BiXzJd
        >
        E 0 90 19 6c
        E 0 90 31 6c
        E 0 90 49 6c
        E 0 90 61 6c
        E 0 90 6c 6b
        E 120 80 19 00
        E 0 80 31 00
        E 0 80 49 00
        E 0 80 61 00
        E 0 80 6c 00
        E 120 90 61 6c
        E 120 80 61 00
        E 120 90 31 6c
        E 0 90 49 6c
        E 0 90 61 6c
        E 120 80 31 00
        E 0 80 49 00
        E 0 80 61 00
        E 120 90 61 6c
        E 120 80 61 00
        E 120 90 31 6c
        E 0 90 49 6c
        E 0 90 61 6c
        E 120 80 31 00
        E 0 80 49 00
        E 0 80 61 00
        E 120 90 61 6c
        E 120 80 61 00
        E 120 90 49 6c
        E 0 90 61 6c
        E 120 80 49 00
        E 0 80 61 00
        E 120 90 61 6c
        E 120 80 61 00
        E 120 90 1a 6b
        E 0 90 32 6b
        E 0 90 4a 6b
        E 0 90 62 6b
        E 120 80 1a 00
        E 0 80 32 00
        E 0 80 4a 00
        E 0 80 62 00
        E 120 90 62 6b
        E 120 80 62 00
        E 120 90 4a 6b
        E 0 90 62 6b
        E 120 80 4a 00
        E 0 80 62 00
        E 120 90 62 6b
        E 120 80 62 00
        E 120 90 32 6e
        E 0 90 4a 6e
        E 0 90 62 6e
        E 120 80 32 00
        E 0 80 4a 00
        E 0 80 62 00
        E 120 90 62 6e
        E 120 80 62 00
        E 120 90 4a 6e
        E 0 90 62 6e
        E 120 80 4a 00
        E 0 80 62 00
        E 120 90 61 6b
        E 120 80 61 00
        <X 120 0
          /wFbcGJfbm9ybSBzb25nX3RyYWluZXJfcGJfMl0=
        >
        E 0 90 19 69
        E 0 90 31 69
        E 0 90 49 69
        E 0 90 61 69
        E 0 90 6c 69
        E 120 80 19 00
        E 0 80 31 00
        E 0 80 49 00
        E 0 80 61 00
        E 0 80 6c 00
        E 120 90 61 69
        E 120 80 61 00
        E 120 90 31 69
        E 0 90 49 69
        E 0 90 61 69
        E 120 80 31 00
        E 0 80 49 00
        E 0 80 61 00
        E 120 90 61 69
        E 120 80 61 00
        E 120 90 19 69
        E 0 90 31 69
        E 0 90 49 69
        E 0 90 61 69
        E 120 80 19 00
        E 0 80 31 00
        E 0 80 49 00
        E 0 80 61 00
        E 120 90 61 69
        E 120 80 61 00
        E 120 90 31 69
        E 0 90 49 69
        E 0 90 61 69
        E 120 80 31 00
        E 0 80 49 00
        E 0 80 61 00
        E 120 90 61 69
        E 120 80 61 00
        E 120 90 19 69
        E 0 90 31 69
        E 0 90 49 69
        E 0 90 61 69
        E 120 80 19 00
        E 0 80 31 00
        E 0 80 49 00
        E 0 80 61 00
        E 120 90 61 69
        E 120 80 61 00
        E 120 90 31 69
        E 0 90 49 69
        E 0 90 61 69
        E 120 80 31 00
        E 0 80 49 00
        E 0 80 61 00
        E 120 90 61 69
        E 120 80 61 00
        E 120 90 31 69
        E 0 90 49 69
        E 0 90 61 69
        E 120 80 31 00
        E 0 80 49 00
        E 0 80 61 00
        E 120 90 61 69
        E 120 80 61 00
        E 120 90 49 69
        E 0 90 61 69
        E 120 80 49 00
        E 0 80 61 00
        E 120 90 61 69
        E 120 80 61 00
        E 120 90 19 6b
        E 0 90 31 6b
        E 0 90 49 6b
        E 0 90 61 6b
        E 0 90 74 64
        E 120 80 19 00
        E 0 80 31 00
        E 0 80 49 00
        E 0 80 61 00
        E 120 90 61 6b
        E 120 80 61 00
        E 120 90 31 6b
        E 0 90 49 6b
        E 0 90 61 6b
        E 120 80 31 00
        E 0 80 49 00
        E 0 80 61 00
        E 120 90 61 6b
        E 120 80 61 00
        E 120 90 31 6b
        E 0 90 49 6b
        E 0 90 61 6b
        E 120 80 31 00
        E 0 80 49 00
        E 0 80 61 00
        E 120 90 61 6b
        E 120 80 61 00
        E 120 90 49 6b
        E 0 90 61 6b
        E 120 80 49 00
        E 0 80 61 00
        E 120 90 61 6b
        E 120 80 61 00
        E 120 90 19 6c
        E 0 90 31 6c
        E 0 90 49 6c
        E 0 90 61 6c
        E 120 80 19 00
        E 0 80 31 00
        E 0 80 49 00
        E 0 80 61 00
        E 120 90 61 6c
        E 120 80 61 00
        E 120 90 49 6c
        E 0 90 61 6c
        E 120 80 49 00
        E 0 80 61 00
        E 120 90 61 6c
        E 120 80 61 00
        E 120 90 32 69
        E 0 90 4a 69
        E 0 90 62 69
        E 120 80 32 00
        E 0 80 4a 00
        E 0 80 62 00
        E 120 90 62 69
        E 120 80 62 00
        E 120 90 4a 69
        E 0 90 62 69
        E 120 80 4a 00
        E 0 80 62 00
        E 120 90 62 69
        E 120 80 62 00
        E 120 90 19 69
        E 0 90 31 69
        E 0 90 49 69
        E 0 90 61 69
        E 120 80 74 00
        E 0 80 19 00
        E 0 80 31 00
        E 0 80 49 00
        E 0 80 61 00
        E 120 90 61 69
        E 120 80 61 00
        E 120 90 31 69
        E 0 90 49 69
        E 0 90 61 69
        E 120 80 31 00
        E 0 80 49 00
        E 0 80 61 00
        E 120 90 61 69
        E 120 80 61 00
        E 120 90 19 69
        E 0 90 31 69
        E 0 90 49 69
        E 0 90 61 69
        E 120 80 19 00
        E 0 80 31 00
        E 0 80 49 00
        E 0 80 61 00
        E 120 90 61 69
        E 120 80 61 00
        E 120 90 31 69
        E 0 90 49 69
        E 0 90 61 69
        E 120 80 31 00
        E 0 80 49 00
        E 0 80 61 00
        E 120 90 61 69
        E 120 80 61 00
        E 120 90 19 69
        E 0 90 31 69
        E 0 90 49 69
        E 0 90 61 69
        E 120 80 19 00
        E 0 80 31 00
        E 0 80 49 00
        E 0 80 61 00
        E 120 90 61 69
        E 120 80 61 00
        E 120 90 31 69
        E 0 90 49 69
        E 0 90 61 69
        E 120 80 31 00
        E 0 80 49 00
        E 0 80 61 00
        E 120 90 61 69
        E 120 80 61 00
        E 120 90 31 69
        E 0 90 49 69
        E 0 90 61 69
        E 120 80 31 00
        E 0 80 49 00
        E 0 80 61 00
        E 120 90 61 69
        E 120 80 61 00
        E 120 90 49 69
        E 0 90 61 69
        E 120 80 49 00
        E 0 80 61 00
        E 120 90 61 69
        E 120 80 61 00
        <X 120 0
          /wFbYmVnaW5fcGIgc29uZ190cmFpbmVyX3BiXzNd
        >
        <X 0 0
          /wFbZW5kX3BiIHNvbmdfdHJhaW5lcl9wYl8yXQ==
        >
        E 0 90 19 6c
        E 0 90 31 6c
        E 0 90 49 6c
        E 0 90 61 6c
        E 0 90 6c 6b
        E 120 80 19 00
        E 0 80 31 00
        E 0 80 49 00
        E 0 80 61 00
        E 0 80 6c 00
        E 120 90 61 6c
        E 120 80 61 00
        E 120 90 31 6c
        E 0 90 49 6c
        E 0 90 61 6c
        E 120 80 31 00
        E 0 80 49 00
        E 0 80 61 00
        E 120 90 61 6c
        E 120 80 61 00
        E 120 90 31 6c
        E 0 90 49 6c
        E 0 90 61 6c
        E 120 80 31 00
        E 0 80 49 00
        E 0 80 61 00
        E 120 90 61 6c
        E 120 80 61 00
        E 120 90 49 6c
        E 0 90 61 6c
        E 120 80 49 00
        E 0 80 61 00
        E 120 90 61 6c
        E 120 80 61 00
        E 120 90 1a 6b
        E 0 90 32 6b
        E 0 90 4a 6b
        E 0 90 62 6b
        E 120 80 1a 00
        E 0 80 32 00
        E 0 80 4a 00
        E 0 80 62 00
        E 120 90 62 6b
        E 120 80 62 00
        E 120 90 4a 6b
        E 0 90 62 6b
        E 120 80 4a 00
        E 0 80 62 00
        E 120 90 62 6b
        E 120 80 62 00
        E 120 90 32 6e
        E 0 90 4a 6e
        E 0 90 62 6e
        E 120 80 32 00
        E 0 80 4a 00
        E 0 80 62 00
        E 120 90 62 6e
        E 120 80 62 00
        E 120 90 4a 6e
        E 0 90 62 6e
        E 120 80 4a 00
        E 0 80 62 00
        E 120 90 62 6e
        E 120 80 62 00
        E 120 90 19 6e
        E 0 90 31 6e
        E 0 90 49 6e
        E 0 90 61 6e
        E 120 80 19 00
        E 0 80 31 00
        E 0 80 49 00
        E 0 80 61 00
        E 120 90 61 6e
        E 120 80 61 00
        E 120 90 31 6e
        E 0 90 49 6e
        E 0 90 61 6e
        E 120 80 31 00
        E 0 80 49 00
        E 0 80 61 00
        E 120 90 61 6e
        E 120 80 61 00
        E 120 90 19 6e
        E 0 90 31 6e
        E 0 90 49 6e
        E 0 90 61 6e
        E 120 80 19 00
        E 0 80 31 00
        E 0 80 49 00
        E 0 80 61 00
        E 120 90 61 6e
        E 120 80 61 00
        E 120 90 31 6e
        E 0 90 49 6e
        E 0 90 61 6e
        E 120 80 31 00
        E 0 80 49 00
        E 0 80 61 00
        E 120 90 61 6e
        E 120 80 61 00
        E 120 90 19 6e
        E 0 90 31 6e
        E 0 90 49 6e
        E 0 90 61 6e
        E 120 80 19 00
        E 0 80 31 00
        E 0 80 49 00
        E 0 80 61 00
        E 120 90 61 6e
        E 120 80 61 00
        E 120 90 31 6e
        E 0 90 49 6e
        E 0 90 61 6e
        E 120 80 31 00
        E 0 80 49 00
        E 0 80 61 00
        E 120 90 61 6e
        E 120 80 61 00
        E 120 90 31 6e
        E 0 90 49 6e
        E 0 90 61 6e
        E 120 80 31 00
        E 0 80 49 00
        E 0 80 61 00
        E 120 90 61 6e
        E 120 80 61 00
        E 120 90 49 6e
        E 0 90 61 6e
        E 120 80 49 00
        E 0 80 61 00
        E 120 90 61 6e
        E 120 80 61 00
        E 120 90 19 6b
        E 0 90 31 6b
        E 0 90 49 6b
        E 0 90 61 6b
        E 0 90 6c 69
        E 120 80 19 00
        E 0 80 31 00
        E 0 80 49 00
        E 0 80 61 00
        E 0 80 6c 00
        E 120 90 61 6b
        E 120 80 61 00
        E 120 90 31 6b
        E 0 90 49 6b
        E 0 90 61 6b
        E 120 80 31 00
        E 0 80 49 00
        E 0 80 61 00
        E 120 90 61 6b
        E 120 80 61 00
        E 120 90 31 6b
        E 0 90 49 6b
        E 0 90 61 6b
        E 120 80 31 00
        E 0 80 49 00
        E 0 80 61 00
        E 120 90 61 6b
        E 120 80 61 00
        E 120 90 49 6b
        E 0 90 61 6b
        E 120 80 49 00
        E 0 80 61 00
        E 120 90 61 6b
        E 120 80 61 00
        E 120 90 19 6c
        E 0 90 31 6c
        E 0 90 49 6c
        E 0 90 61 6c
        E 120 80 19 00
        E 480 80 31 00
        E 120 80 49 00
        E 0 80 61 00
        E 240 90 32 69
        E 0 90 4a 69
        E 0 90 62 69
        E 0 90 6c 67
        E 120 80 32 00
        E 0 80 4a 00
        E 0 80 62 00
        E 0 80 6c 00
        E 120 90 62 69
        E 120 80 62 00
        E 120 90 49 67
        E 0 90 61 67
        E 120 80 49 00
        E 0 80 61 00
        E 120 90 61 67
        E 120 80 61 00
        E 120 90 19 69
        E 0 90 31 69
        E 0 90 49 69
        E 0 90 61 69
        E 0 90 6c 69
        E 120 80 19 00
        E 0 80 31 00
        E 0 80 49 00
        E 0 80 61 00
        E 0 80 6c 00
        E 120 90 61 69
        E 120 80 61 00
        E 120 90 31 69
        E 0 90 49 69
        E 0 90 61 69
        E 120 80 31 00
        E 0 80 49 00
        E 0 80 61 00
        E 120 90 61 69
        E 120 80 61 00
        E 120 90 19 69
        E 0 90 31 69
        E 0 90 49 69
        E 0 90 61 69
        E 120 80 19 00
        E 0 80 31 00
        E 0 80 49 00
        E 0 80 61 00
        E 120 90 61 69
        E 120 80 61 00
        E 120 90 31 69
        E 0 90 49 69
        E 0 90 61 69
        E 120 80 31 00
        E 0 80 49 00
        E 0 80 61 00
        E 120 90 61 69
        E 120 80 61 00
        E 120 90 19 69
        E 0 90 31 69
        E 0 90 49 69
        E 0 90 61 69
        E 120 80 19 00
        E 0 80 31 00
        E 0 80 49 00
        E 0 80 61 00
        E 120 90 61 69
        E 120 80 61 00
        E 120 90 31 69
        E 0 90 49 69
        E 0 90 61 69
        E 120 80 31 00
        E 0 80 49 00
        E 0 80 61 00
        E 120 90 61 69
        E 120 80 61 00
        E 120 90 31 69
        E 0 90 49 69
        E 0 90 61 69
        E 120 80 31 00
        E 0 80 49 00
        E 0 80 61 00
        E 120 90 61 69
        E 120 80 61 00
        E 120 90 30 64
        E 0 90 48 64
        E 0 90 60 64
        E 120 80 30 00
        E 0 80 48 00
        E 0 80 60 00
        <X 360 0
          /wFbZW5kX3BiIHNvbmdfdHJhaW5lcl9wYl8zXQ==
        >
        E 0 90 19 69
        E 0 90 31 69
        E 0 90 49 69
        E 0 90 61 69
        E 120 80 19 00
        E 0 80 31 00
        E 0 80 49 00
        E 0 80 61 00
        E 120 90 61 69
        E 120 80 61 00
        E 120 90 31 69
        E 0 90 49 69
        E 0 90 61 69
        E 120 80 31 00
        E 0 80 49 00
        E 0 80 61 00
        E 120 90 61 69
        E 120 80 61 00
        E 120 90 31 69
        E 0 90 49 69
        E 0 90 61 69
        E 120 80 31 00
        E 0 80 49 00
        E 0 80 61 00
        E 360 90 4a 6b
        E 0 90 62 6b
        E 120 80 4a 00
        E 0 80 62 00
        E 360 90 1b 69
        E 0 90 33 69
        E 0 90 4b 69
        E 0 90 63 69
        E 120 80 1b 00
        E 0 80 33 00
        E 0 80 4b 00
        E 0 80 63 00
        E 120 90 63 69
        E 120 80 63 00
        E 120 90 33 69
        E 0 90 4b 69
        E 0 90 63 69
        E 120 80 33 00
        E 0 80 4b 00
        E 0 80 63 00
        E 120 90 63 69
        E 120 80 63 00
        E 120 90 33 69
        E 0 90 4b 69
        E 0 90 63 69
        E 120 80 33 00
        E 0 80 4b 00
        E 0 80 63 00
        E 360 90 4a 6b
        E 0 90 62 6b
        E 120 80 4a 00
        E 0 80 62 00
        E 360 90 1a 6c
        E 0 90 32 6c
        E 0 90 4a 6c
        E 0 90 62 6c
        E 0 90 74 64
        E 120 80 1a 00
        E 0 80 32 00
        E 0 80 4a 00
        E 0 80 62 00
        E 120 90 62 6c
        E 120 80 62 00
        E 120 90 32 6c
        E 0 90 4a 6c
        E 0 90 62 6c
        E 120 80 32 00
        E 0 80 4a 00
        E 0 80 62 00
        E 120 90 62 6c
        E 120 80 62 00
        E 120 90 32 6c
        E 0 90 4a 6c
        E 0 90 62 6c
        E 120 80 32 00
        E 0 80 4a 00
        E 0 80 62 00
        E 360 90 49 6c
        E 0 90 61 6c
        E 120 80 49 00
        E 0 80 61 00
        E 360 90 1a 69
        E 0 90 32 69
        E 0 90 4a 69
        E 0 90 62 69
        E 120 80 1a 00
        E 0 80 32 00
        E 0 80 4a 00
        E 0 80 62 00
        E 120 90 62 69
        E 120 80 62 00
        E 120 90 32 69
        E 0 90 4a 69
        E 0 90 62 69
        E 120 80 32 00
        E 0 80 4a 00
        E 0 80 62 00
        E 120 90 62 69
        E 120 80 62 00
        E 120 90 32 69
        E 0 90 4a 69
        E 0 90 62 69
        E 120 80 32 00
        E 0 80 4a 00
        E 0 80 62 00
        E 360 90 48 6e
        E 0 90 60 6e
        E 0 90 6c 6c
        E 120 80 48 00
        E 0 80 60 00
        E 0 80 6c 00
        E 360 80 74 00
        E 0 90 19 69
        E 0 90 31 69
        E 0 90 49 69
        E 0 90 61 69
        E 0 90 6c 69
        E 120 80 19 00
        E 0 80 31 00
        E 0 80 49 00
        E 0 80 61 00
        E 0 80 6c 00
        E 120 90 61 69
        E 120 80 61 00
        E 120 90 31 69
        E 0 90 49 69
        E 0 90 61 69
        E 120 80 31 00
        E 0 80 49 00
        E 0 80 61 00
        E 120 90 61 69
        E 120 80 61 00
        E 120 90 31 69
        E 0 90 49 69
        E 0 90 61 69
        E 120 80 31 00
        E 0 80 49 00
        E 0 80 61 00
        E 360 90 4a 6b
        E 0 90 62 6b
        E 120 80 4a 00
        E 0 80 62 00
        E 360 90 1b 69
        E 0 90 33 69
        E 0 90 4b 69
        E 0 90 63 69
        E 120 80 1b 00
        E 0 80 33 00
        E 0 80 4b 00
        E 0 80 63 00
        E 120 90 63 69
        E 120 80 63 00
        E 120 90 33 69
        E 0 90 4b 69
        E 0 90 63 69
        E 120 80 33 00
        E 0 80 4b 00
        E 0 80 63 00
        E 120 90 63 69
        E 120 80 63 00
        E 120 90 33 69
        E 0 90 4b 69
        E 0 90 63 69
        E 120 80 33 00
        E 0 80 4b 00
        E 0 80 63 00
        E 360 90 4a 6b
        E 0 90 62 6b
        E 120 80 4a 00
        E 0 80 62 00
        E 360 90 1a 6c
        E 0 90 32 6c
        E 0 90 4a 6c
        E 0 90 62 6c
        E 120 80 1a 00
        E 0 80 32 00
        E 0 80 4a 00
        E 0 80 62 00
        E 120 90 62 6c
        E 120 80 62 00
        E 120 90 32 6c
        E 0 90 4a 6c
        E 0 90 62 6c
        E 120 80 32 00
        E 0 80 4a 00
        E 0 80 62 00
        E 120 90 62 6c
        E 120 80 62 00
        E 120 90 32 6c
        E 0 90 4a 6c
        E 0 90 62 6c
        E 120 80 32 00
        E 0 80 4a 00
        E 0 80 62 00
        E 360 90 49 6c
        E 0 90 61 6c
        E 120 80 49 00
        E 0 80 61 00
        E 360 90 1a 69
        E 0 90 32 69
        E 0 90 4a 69
        E 0 90 62 69
        E 120 80 1a 00
        E 0 80 32 00
        E 0 80 4a 00
        E 0 80 62 00
        E 120 90 62 69
        E 120 80 62 00
        E 120 90 32 69
        E 0 90 4a 69
        E 0 90 62 69
        E 120 80 32 00
        E 0 80 4a 00
        E 0 80 62 00
        E 120 90 62 69
        E 120 80 62 00
        E 120 90 32 69
        E 0 90 4a 69
        E 0 90 62 69
        E 120 80 32 00
        E 0 80 4a 00
        E 0 80 62 00
        E 120 90 63 6b
        E 0 90 6c 6b
        E 120 80 63 00
        E 0 80 6c 00
        E 120 90 4b 6e
        E 0 90 63 6e
        E 0 90 66 64
        E 120 80 4b 00
        E 0 80 63 00
        E 0 80 66 00
        E 360 90 19 69
        E 0 90 31 69
        E 0 90 49 69
        E 0 90 61 69
        E 0 90 6c 69
        E 120 80 19 00
        E 0 80 31 00
        E 0 80 49 00
        E 0 80 61 00
        E 0 80 6c 00
        E 120 90 61 69
        E 120 80 61 00
        E 120 90 31 69
        E 0 90 49 69
        E 0 90 61 69
        E 120 80 31 00
        E 0 80 49 00
        E 0 80 61 00
        E 120 90 61 69
        E 120 80 61 00
        E 120 90 31 69
        E 0 90 49 69
        E 0 90 61 69
        E 120 80 31 00
        E 0 80 49 00
        E 0 80 61 00
        E 360 90 4a 6b
        E 0 90 62 6b
        E 120 80 4a 00
        E 0 80 62 00
        E 360 90 1b 69
        E 0 90 33 69
        E 0 90 4b 69
        E 0 90 63 69
        E 120 80 1b 00
        E 0 80 33 00
        E 0 80 4b 00
        E 0 80 63 00
        E 120 90 63 69
        E 120 80 63 00
        E 120 90 33 69
        E 0 90 4b 69
        E 0 90 63 69
        E 120 80 33 00
        E 0 80 4b 00
        E 0 80 63 00
        E 120 90 63 69
        E 120 80 63 00
        E 120 90 33 69
        E 0 90 4b 69
        E 0 90 63 69
        E 120 80 33 00
        E 0 80 4b 00
        E 0 80 63 00
        E 360 90 4a 6b
        E 0 90 62 6b
        E 120 80 4a 00
        E 0 80 62 00
        E 360 90 1a 6c
        E 0 90 32 6c
        E 0 90 4a 6c
        E 0 90 62 6c
        E 120 80 1a 00
        E 0 80 32 00
        E 0 80 4a 00
        E 0 80 62 00
        E 120 90 62 6c
        E 120 80 62 00
        E 120 90 32 6c
        E 0 90 4a 6c
        E 0 90 62 6c
        E 120 80 32 00
        E 0 80 4a 00
        E 0 80 62 00
        E 120 90 62 6c
        E 120 80 62 00
        E 120 90 32 6c
        E 0 90 4a 6c
        E 0 90 62 6c
        E 120 80 32 00
        E 0 80 4a 00
        E 0 80 62 00
        E 360 90 49 6c
        E 0 90 61 6c
        E 120 80 49 00
        E 0 80 61 00
        E 360 90 1a 69
        E 0 90 32 69
        E 0 90 4a 69
        E 0 90 62 69
        E 120 80 1a 00
        E 0 80 32 00
        E 0 80 4a 00
        E 0 80 62 00
        E 120 90 62 69
        E 120 80 62 00
        E 120 90 32 69
        E 0 90 4a 69
        E 0 90 62 69
        E 120 80 32 00
        E 0 80 4a 00
        E 0 80 62 00
        E 120 90 62 69
        E 120 80 62 00
        E 120 90 32 69
        E 0 90 4a 69
        E 0 90 62 69
        E 120 80 32 00
        E 0 80 4a 00
        E 0 80 62 00
        E 360 90 48 6e
        E 0 90 60 6e
        E 0 90 6c 6c
        E 120 80 48 00
        E 0 80 60 00
        E 0 80 6c 00
        E 360 90 19 69
        E 0 90 31 69
        E 0 90 49 69
        E 0 90 61 69
        E 0 90 6c 69
        E 120 80 19 00
        E 0 80 31 00
        E 0 80 49 00
        E 0 80 61 00
        E 0 80 6c 00
        E 120 90 61 69
        E 120 80 61 00
        E 120 90 31 69
        E 0 90 49 69
        E 0 90 61 69
        E 120 80 31 00
        E 0 80 49 00
        E 0 80 61 00
        E 120 90 61 69
        E 120 80 61 00
        E 120 90 31 69
        E 0 90 49 69
        E 0 90 61 69
        E 120 80 31 00
        E 0 80 49 00
        E 0 80 61 00
        E 360 90 4a 6b
        E 0 90 62 6b
        E 120 80 4a 00
        E 0 80 62 00
        E 360 90 1b 69
        E 0 90 33 69
        E 0 90 4b 69
        E 0 90 63 69
        E 120 80 1b 00
        E 0 80 33 00
        E 0 80 4b 00
        E 0 80 63 00
        E 120 90 63 69
        E 120 80 63 00
        E 120 90 33 69
        E 0 90 4b 69
        E 0 90 63 69
        E 120 80 33 00
        E 0 80 4b 00
        E 0 80 63 00
        E 120 90 63 69
        E 120 80 63 00
        E 120 90 33 69
        E 0 90 4b 69
        E 0 90 63 69
        E 120 80 33 00
        E 0 80 4b 00
        E 0 80 63 00
        E 360 90 4a 6b
        E 0 90 62 6b
        E 120 80 4a 00
        E 0 80 62 00
        E 360 90 1a 6c
        E 0 90 32 6c
        E 0 90 4a 6c
        E 0 90 62 6c
        E 120 80 1a 00
        E 0 80 32 00
        E 0 80 4a 00
        E 0 80 62 00
        E 120 90 62 6c
        E 120 80 62 00
        E 120 90 32 6c
        E 0 90 4a 6c
        E 0 90 62 6c
        E 120 80 32 00
        E 0 80 4a 00
        E 0 80 62 00
        E 120 90 62 6c
        E 120 80 62 00
        E 120 90 32 6c
        E 0 90 4a 6c
        E 0 90 62 6c
        E 120 80 32 00
        E 0 80 4a 00
        E 0 80 62 00
        E 360 90 49 6c
        E 0 90 61 6c
        E 120 80 49 00
        E 0 80 61 00
        E 360 90 1a 69
        E 0 90 32 69
        E 0 90 4a 69
        E 0 90 62 69
        E 0 90 74 64
        E 120 80 1a 00
        E 0 80 32 00
        E 0 80 4a 00
        E 0 80 62 00
        E 120 90 62 69
        E 120 80 62 00
        E 120 90 32 69
        E 0 90 4a 69
        E 0 90 62 69
        E 120 80 32 00
        E 0 80 4a 00
        E 0 80 62 00
        E 120 90 62 69
        E 120 80 62 00
        E 120 90 32 69
        E 0 90 4a 69
        E 0 90 62 69
        E 120 80 32 00
        E 0 80 4a 00
        E 0 80 62 00
        E 120 90 61 69
        E 120 80 61 00
        E 120 90 49 69
        E 0 90 61 69
        E 120 80 49 00
        E 0 80 61 00
        E 120 90 61 69
        E 120 80 61 00
        E 120 90 19 6c
        E 0 90 31 6c
        E 0 90 49 6c
        E 0 90 61 6c
        E 0 90 6c 6b
        E 120 80 74 00
        E 0 80 19 00
        E 0 80 31 00
        E 0 80 49 00
        E 0 80 61 00
        E 0 80 6c 00
        E 120 90 61 6c
        E 120 80 61 00
        E 120 90 31 6c
        E 0 90 49 6c
        E 0 90 61 6c
        E 120 80 31 00
        E 0 80 49 00
        E 0 80 61 00
        E 120 90 61 6c
        E 120 80 61 00
        E 120 90 31 6c
        E 0 90 49 6c
        E 0 90 61 6c
        E 120 80 31 00
        E 0 80 49 00
        E 0 80 61 00
        E 120 90 61 6c
        E 120 80 61 00
        E 120 90 49 6c
        E 0 90 61 6c
        E 120 80 49 00
        E 0 80 61 00
        E 120 90 61 6c
        E 120 80 61 00
        E 120 90 1a 6b
        E 0 90 32 6b
        E 0 90 4a 6b
        E 0 90 62 6b
        E 120 80 1a 00
        E 0 80 32 00
        E 0 80 4a 00
        E 0 80 62 00
        E 120 90 62 6b
        E 120 80 62 00
        E 120 90 4a 6b
        E 0 90 62 6b
        E 120 80 4a 00
        E 0 80 62 00
        E 120 90 62 6b
        E 120 80 62 00
        E 120 90 32 6e
        E 0 90 4a 6e
        E 0 90 62 6e
        E 120 80 32 00
        E 0 80 4a 00
        E 0 80 62 00
        E 120 90 62 6e
        E 120 80 62 00
        E 120 90 4a 6e
        E 0 90 62 6e
        E 120 80 4a 00
        E 0 80 62 00
        E 120 90 61 6b
        E 120 80 61 00
        E 120 90 19 69
        E 0 90 31 69
        E 0 90 49 69
        E 0 90 61 69
        E 0 90 6c 69
        E 120 80 19 00
        E 0 80 31 00
        E 0 80 49 00
        E 0 80 61 00
        E 0 80 6c 00
        E 120 90 61 69
        E 120 80 61 00
        E 120 90 31 69
        E 0 90 49 69
        E 0 90 61 69
        E 120 80 31 00
        E 0 80 49 00
        E 0 80 61 00
        E 120 90 61 69
        E 120 80 61 00
        E 120 90 19 69
        E 0 90 31 69
        E 0 90 49 69
        E 0 90 61 69
        E 120 80 19 00
        E 0 80 31 00
        E 0 80 49 00
        E 0 80 61 00
        E 120 90 61 69
        E 120 80 61 00
        E 120 90 31 69
        E 0 90 49 69
        E 0 90 61 69
        E 120 80 31 00
        E 0 80 49 00
        E 0 80 61 00
        E 120 90 61 69
        E 120 80 61 00
        E 120 90 19 69
        E 0 90 31 69
        E 0 90 49 69
        E 0 90 61 69
        E 120 80 19 00
        E 0 80 31 00
        E 0 80 49 00
        E 0 80 61 00
        E 120 90 61 69
        E 120 80 61 00
        E 120 90 31 69
        E 0 90 49 69
        E 0 90 61 69
        E 120 80 31 00
        E 0 80 49 00
        E 0 80 61 00
        E 120 90 61 69
        E 120 80 61 00
        E 120 90 31 69
        E 0 90 49 69
        E 0 90 61 69
        E 120 80 31 00
        E 0 80 49 00
        E 0 80 61 00
        E 120 90 61 69
        E 120 80 61 00
        E 120 90 49 69
        E 0 90 61 69
        E 120 80 49 00
        E 0 80 61 00
        E 120 90 61 69
        E 120 80 61 00
        E 120 90 19 6b
        E 0 90 31 6b
        E 0 90 49 6b
        E 0 90 61 6b
        E 120 80 19 00
        E 0 80 31 00
        E 0 80 49 00
        E 0 80 61 00
        E 120 90 61 6b
        E 120 80 61 00
        E 120 90 31 6b
        E 0 90 49 6b
        E 0 90 61 6b
        E 120 80 31 00
        E 0 80 49 00
        E 0 80 61 00
        E 120 90 61 6b
        E 120 80 61 00
        E 120 90 31 6b
        E 0 90 49 6b
        E 0 90 61 6b
        E 120 80 31 00
        E 0 80 49 00
        E 0 80 61 00
        E 120 90 61 6b
        E 120 80 61 00
        E 120 90 49 6b
        E 0 90 61 6b
        E 120 80 49 00
        E 0 80 61 00
        E 120 90 61 6b
        E 120 80 61 00
        E 120 90 19 6c
        E 0 90 31 6c
        E 0 90 49 6c
        E 0 90 61 6c
        E 120 80 19 00
        E 0 80 31 00
        E 0 80 49 00
        E 0 80 61 00
        E 120 90 61 6c
        E 120 80 61 00
        E 120 90 49 6c
        E 0 90 61 6c
        E 120 80 49 00
        E 0 80 61 00
        E 120 90 61 6c
        E 120 80 61 00
        E 120 90 32 69
        E 0 90 4a 69
        E 0 90 62 69
        E 120 80 32 00
        E 0 80 4a 00
        E 0 80 62 00
        E 120 90 62 69
        E 120 80 62 00
        E 120 90 4a 69
        E 0 90 62 69
        E 120 80 4a 00
        E 0 80 62 00
        E 120 90 62 69
        E 120 80 62 00
        E 120 90 19 69
        E 0 90 31 69
        E 0 90 49 69
        E 0 90 61 69
        E 120 80 19 00
        E 0 80 31 00
        E 0 80 49 00
        E 0 80 61 00
        E 120 90 61 69
        E 120 80 61 00
        E 120 90 31 69
        E 0 90 49 69
        E 0 90 61 69
        E 120 80 31 00
        E 0 80 49 00
        E 0 80 61 00
        E 120 90 61 69
        E 120 80 61 00
        E 120 90 19 69
        E 0 90 31 69
        E 0 90 49 69
        E 0 90 61 69
        E 120 80 19 00
        E 0 80 31 00
        E 0 80 49 00
        E 0 80 61 00
        E 120 90 61 69
        E 120 80 61 00
        E 120 90 31 69
        E 0 90 49 69
        E 0 90 61 69
        E 120 80 31 00
        E 0 80 49 00
        E 0 80 61 00
        E 120 90 61 69
        E 120 80 61 00
        E 120 90 19 69
        E 0 90 31 69
        E 0 90 49 69
        E 0 90 61 69
        E 120 80 19 00
        E 0 80 31 00
        E 0 80 49 00
        E 0 80 61 00
        E 120 90 61 69
        E 120 80 61 00
        E 120 90 31 69
        E 0 90 49 69
        E 0 90 61 69
        E 120 80 31 00
        E 0 80 49 00
        E 0 80 61 00
        E 120 90 61 69
        E 120 80 61 00
        E 120 90 31 69
        E 0 90 49 69
        E 0 90 61 69
        E 120 80 31 00
        E 0 80 49 00
        E 0 80 61 00
        E 120 90 61 69
        E 120 80 61 00
        E 120 90 49 69
        E 0 90 61 69
        E 120 80 49 00
        E 0 80 61 00
        E 120 90 61 69
        E 120 80 61 00
        E 120 90 19 6c
        E 0 90 31 6c
        E 0 90 49 6c
        E 0 90 61 6c
        E 0 90 6c 6b
        E 0 90 74 64
        E 120 80 19 00
        E 0 80 31 00
        E 0 80 49 00
        E 0 80 61 00
        E 0 80 6c 00
        E 120 90 61 6c
        E 120 80 61 00
        E 120 90 31 6c
        E 0 90 49 6c
        E 0 90 61 6c
        E 120 80 31 00
        E 0 80 49 00
        E 0 80 61 00
        E 120 90 61 6c
        E 120 80 61 00
        E 120 90 31 6c
        E 0 90 49 6c
        E 0 90 61 6c
        E 120 80 31 00
        E 0 80 49 00
        E 0 80 61 00
        E 120 90 61 6c
        E 120 80 61 00
        E 120 90 49 6c
        E 0 90 61 6c
        E 120 80 49 00
        E 0 80 61 00
        E 120 90 61 6c
        E 120 80 61 00
        E 120 90 1a 6b
        E 0 90 32 6b
        E 0 90 4a 6b
        E 0 90 62 6b
        E 120 80 1a 00
        E 0 80 32 00
        E 0 80 4a 00
        E 0 80 62 00
        E 120 90 62 6b
        E 120 80 62 00
        E 120 90 4a 6b
        E 0 90 62 6b
        E 120 80 4a 00
        E 0 80 62 00
        E 120 90 62 6b
        E 120 80 62 00
        E 120 90 32 6e
        E 0 90 4a 6e
        E 0 90 62 6e
        E 120 80 32 00
        E 0 80 4a 00
        E 0 80 62 00
        E 120 90 62 6e
        E 120 80 62 00
        E 120 90 4a 6e
        E 0 90 62 6e
        E 120 80 4a 00
        E 0 80 62 00
        E 120 90 62 6e
        E 120 80 62 00
        E 120 90 19 6e
        E 0 90 31 6e
        E 0 90 49 6e
        E 0 90 61 6e
        E 120 80 74 00
        E 0 80 19 00
        E 0 80 31 00
        E 0 80 49 00
        E 0 80 61 00
        E 120 90 61 6e
        E 120 80 61 00
        E 120 90 31 6e
        E 0 90 49 6e
        E 0 90 61 6e
        E 120 80 31 00
        E 0 80 49 00
        E 0 80 61 00
        E 120 90 61 6e
        E 120 80 61 00
        E 120 90 19 6e
        E 0 90 31 6e
        E 0 90 49 6e
        E 0 90 61 6e
        E 120 80 19 00
        E 0 80 31 00
        E 0 80 49 00
        E 0 80 61 00
        E 120 90 61 6e
        E 120 80 61 00
        E 120 90 31 6e
        E 0 90 49 6e
        E 0 90 61 6e
        E 120 80 31 00
        E 0 80 49 00
        E 0 80 61 00
        E 120 90 61 6e
        E 120 80 61 00
        E 120 90 19 6e
        E 0 90 31 6e
        E 0 90 49 6e
        E 0 90 61 6e
        E 120 80 19 00
        E 0 80 31 00
        E 0 80 49 00
        E 0 80 61 00
        E 120 90 61 6e
        E 120 80 61 00
        E 120 90 31 6e
        E 0 90 49 6e
        E 0 90 61 6e
        E 120 80 31 00
        E 0 80 49 00
        E 0 80 61 00
        E 120 90 61 6e
        E 120 80 61 00
        E 120 90 31 6e
        E 0 90 49 6e
        E 0 90 61 6e
        E 120 80 31 00
        E 0 80 49 00
        E 0 80 61 00
        E 120 90 61 6e
        E 120 80 61 00
        E 120 90 49 6e
        E 0 90 61 6e
        E 120 80 49 00
        E 0 80 61 00
        E 120 90 61 6e
        E 120 80 61 00
        E 120 90 19 6b
        E 0 90 31 6b
        E 0 90 49 6b
        E 0 90 61 6b
        E 0 90 6c 69
        E 120 80 19 00
        E 0 80 31 00
        E 0 80 49 00
        E 0 80 61 00
        E 0 80 6c 00
        E 120 90 61 6b
        E 120 80 61 00
        E 120 90 31 6b
        E 0 90 49 6b
        E 0 90 61 6b
        E 120 80 31 00
        E 0 80 49 00
        E 0 80 61 00
        E 120 90 61 6b
        E 120 80 61 00
        E 120 90 31 6b
        E 0 90 49 6b
        E 0 90 61 6b
        E 120 80 31 00
        E 0 80 49 00
        E 0 80 61 00
        E 120 90 61 6b
        E 120 80 61 00
        E 120 90 49 6b
        E 0 90 61 6b
        E 120 80 49 00
        E 0 80 61 00
        E 120 90 61 6b
        E 120 80 61 00
        E 120 90 19 6c
        E 0 90 31 6c
        E 0 90 49 6c
        E 0 90 61 6c
        E 120 80 19 00
        E 0 80 31 00
        E 0 80 49 00
        E 0 80 61 00
        E 120 90 61 6c
        E 120 80 61 00
        E 120 90 49 6c
        E 0 90 61 6c
        E 120 80 49 00
        E 0 80 61 00
        E 120 90 61 6c
        E 120 80 61 00
        E 120 90 32 69
        E 0 90 4a 69
        E 0 90 62 69
        E 0 90 6c 67
        E 120 80 32 00
        E 0 80 4a 00
        E 0 80 62 00
        E 0 80 6c 00
        E 120 90 62 69
        E 120 80 62 00
        E 120 90 49 67
        E 0 90 61 67
        E 120 80 49 00
        E 0 80 61 00
        E 120 90 61 67
        E 120 80 61 00
        E 120 90 19 69
        E 0 90 31 69
        E 0 90 49 69
        E 0 90 61 69
        E 0 90 6c 69
        E 120 80 19 00
        E 0 80 31 00
        E 0 80 49 00
        E 0 80 61 00
        E 0 80 6c 00
        E 120 90 61 69
        E 120 80 61 00
        E 120 90 31 69
        E 0 90 49 69
        E 0 90 61 69
        E 120 80 31 00
        E 0 80 49 00
        E 0 80 61 00
        E 120 90 61 69
        E 120 80 61 00
        E 120 90 19 69
        E 0 90 31 69
        E 0 90 49 69
        E 0 90 61 69
        E 120 80 19 00
        E 0 80 31 00
        E 0 80 49 00
        E 0 80 61 00
        E 120 90 61 69
        E 120 80 61 00
        E 120 90 31 69
        E 0 90 49 69
        E 0 90 61 69
        E 120 80 31 00
        E 0 80 49 00
        E 0 80 61 00
        E 120 90 61 69
        E 120 80 61 00
        E 120 90 19 69
        E 0 90 31 69
        E 0 90 49 69
        E 0 90 61 69
        E 120 80 19 00
        E 0 80 31 00
        E 0 80 49 00
        E 0 80 61 00
        E 120 90 61 69
        E 120 80 61 00
        E 120 90 31 69
        E 0 90 49 69
        E 0 90 61 69
        E 120 80 31 00
        E 0 80 49 00
        E 0 80 61 00
        E 120 90 61 69
        E 120 80 61 00
        E 120 90 19 69
        E 0 90 31 69
        E 0 90 49 69
        E 0 90 61 69
        E 120 80 19 00
        E 0 80 31 00
        E 0 80 49 00
        E 0 80 61 00
        E 360 90 30 64
        E 0 90 48 64
        E 0 90 60 64
        E 0 90 6c 66
        E 120 80 30 00
        E 0 80 48 00
        E 0 80 60 00
        E 0 80 6c 00
        <X 360 0
          /wFbYmVnaW5fcGIgc29uZ190cmFpbmVyX3BiXzRd
        >
        E 0 90 11 64
        E 0 90 18 66
        E 0 90 30 66
        E 0 90 48 66
        E 0 90 60 66
        E 0 90 73 64
        E 720 80 18 00
        E 0 80 30 00
        E 0 80 48 00
        E 0 80 60 00
        E 720 93 48 64
        E 0 93 4a 64
        E 0 93 60 64
        E 0 93 61 64
        E 0 93 62 64
        E 120 83 48 00
        E 0 83 4a 00
        E 0 83 60 00
        E 0 83 61 00
        E 0 83 62 00
        E 360 90 18 66
        E 0 90 30 66
        E 0 90 32 66
        E 0 90 48 66
        E 0 90 4a 66
        E 0 90 60 66
        E 0 90 62 66
        E 120 80 18 00
        E 360 80 60 00
        E 0 80 62 00
        E 120 80 30 00
        E 0 80 32 00
        E 0 80 48 00
        E 0 80 4a 00
        E 120 93 60 64
        E 0 93 61 64
        E 0 93 62 64
        E 120 83 60 00
        E 0 83 61 00
        E 0 83 62 00
        E 120 90 18 69
        E 0 90 30 69
        E 0 90 32 69
        E 0 90 48 69
        E 0 90 4a 69
        E 0 90 60 69
        E 0 90 62 69
        E 0 90 6c 69
        E 120 80 18 00
        E 0 80 6c 00
        E 360 80 60 00
        E 0 80 62 00
        E 120 80 30 00
        E 0 80 32 00
        E 0 80 48 00
        E 0 80 4a 00
        E 120 93 60 64
        E 0 93 61 64
        E 0 93 62 64
        E 120 83 60 00
        E 0 83 61 00
        E 0 83 62 00
        <X 120 0
          /wFbcGJfbm9ybSBzb25nX3RyYWluZXJfcGJfNF0=
        >
        E 0 90 18 64
        E 0 90 30 64
        E 0 90 48 64
        E 0 90 4a 64
        E 0 90 60 64
        E 0 90 62 64
        E 0 90 6c 66
        E 120 80 18 00
        E 0 80 30 00
        E 0 80 48 00
        E 0 80 4a 00
        E 0 80 6c 00
        E 360 80 60 00
        E 0 80 62 00
        E 960 93 18 64
        E 0 93 60 64
        E 0 93 61 64
        E 0 93 62 64
        E 120 83 18 00
        E 0 83 60 00
        E 0 83 61 00
        E 0 83 62 00
        E 120 93 60 64
        E 0 93 61 64
        E 0 93 62 64
        E 120 83 60 00
        E 0 83 61 00
        E 0 83 62 00
        E 600 93 18 64
        E 0 93 60 64
        E 0 93 61 64
        E 0 93 62 64
        E 120 83 18 00
        E 0 83 60 00
        E 0 83 61 00
        E 0 83 62 00
        E 120 93 60 64
        E 0 93 61 64
        E 0 93 62 64
        E 120 83 60 00
        E 0 83 61 00
        E 0 83 62 00
        E 600 93 48 64
        E 0 93 4a 64
        E 0 93 60 64
        E 0 93 61 64
        E 0 93 62 64
        E 120 83 48 00
        E 0 83 4a 00
        E 0 83 60 00
        E 0 83 61 00
        E 0 83 62 00
        E 120 93 60 64
        E 0 93 61 64
        E 0 93 62 64
        E 120 83 60 00
        E 0 83 61 00
        E 0 83 62 00
        E 120 90 18 66
        E 0 90 30 66
        E 0 90 32 66
        E 0 90 48 66
        E 0 90 4a 66
        E 0 90 60 66
        E 0 90 62 66
        E 120 80 18 00
        E 0 80 30 00
        E 0 80 32 00
        E 0 80 48 00
        E 0 80 4a 00
        E 360 80 60 00
        E 0 80 62 00
        E 960 93 48 64
        E 0 93 4a 64
        E 0 93 60 64
        E 0 93 61 64
        E 0 93 62 64
        E 120 83 48 00
        E 0 83 4a 00
        E 0 83 60 00
        E 0 83 61 00
        E 0 83 62 00
        E 120 93 60 64
        E 0 93 61 64
        E 0 93 62 64
        E 120 83 60 00
        E 0 83 61 00
        E 0 83 62 00
        E 120 90 18 67
        E 0 90 30 67
        E 0 90 32 67
        E 0 90 48 67
        E 0 90 4a 67
        E 0 90 60 67
        E 0 90 62 67
        E 0 90 6c 67
        E 0 90 74 64
        E 120 80 18 00
        E 0 80 6c 00
        E 360 80 60 00
        E 0 80 62 00
        E 120 80 30 00
        E 0 80 32 00
        E 0 80 48 00
        E 0 80 4a 00
        E 360 90 18 69
        E 0 90 30 69
        E 0 90 32 69
        E 0 90 48 69
        E 0 90 4a 69
        E 0 90 60 69
        E 0 90 62 69
        E 0 90 6c 69
        E 120 80 18 00
        E 0 80 6c 00
        E 360 80 60 00
        E 0 80 62 00
        E 120 80 30 00
        E 0 80 32 00
        E 0 80 48 00
        E 0 80 4a 00
        E 120 93 60 64
        E 0 93 61 64
        E 0 93 62 64
        E 120 83 60 00
        E 0 83 61 00
        E 0 83 62 00
        E 120 90 18 64
        E 0 90 30 64
        E 0 90 48 64
        E 0 90 4a 64
        E 0 90 60 64
        E 0 90 62 64
        E 0 90 6c 66
        E 120 80 18 00
        E 0 80 30 00
        E 0 80 48 00
        E 0 80 4a 00
        E 0 80 6c 00
        E 360 80 60 00
        E 0 80 62 00
        E 960 93 18 64
        E 0 93 60 64
        E 0 93 61 64
        E 0 93 62 64
        E 120 83 18 00
        E 0 83 60 00
        E 0 83 61 00
        E 0 83 62 00
        E 120 93 60 64
        E 0 93 61 64
        E 0 93 62 64
        E 120 83 60 00
        E 0 83 61 00
        E 0 83 62 00
        E 600 93 18 64
        E 0 93 60 64
        E 0 93 61 64
        E 0 93 62 64
        E 120 83 18 00
        E 0 83 60 00
        E 0 83 61 00
        E 0 83 62 00
        E 120 93 60 64
        E 0 93 61 64
        E 0 93 62 64
        E 120 83 60 00
        E 0 83 61 00
        E 0 83 62 00
        E 600 93 48 64
        E 0 93 4a 64
        E 0 93 60 64
        E 0 93 61 64
        E 0 93 62 64
        E 120 83 48 00
        E 0 83 4a 00
        E 0 83 60 00
        E 0 83 61 00
        E 0 83 62 00
        E 120 93 60 64
        E 0 93 61 64
        E 0 93 62 64
        E 120 83 60 00
        E 0 83 61 00
        E 0 83 62 00
        <X 120 0
          /wFbZW5kX3BiIHNvbmdfdHJhaW5lcl9wYl80XQ==
        >
        E 0 90 1f 64
        E 0 90 37 64
        E 0 90 4f 64
        E 0 90 67 64
        E 0 90 6c 70
        E 0 93 18 70
        E 0 93 30 70
        E 0 93 32 70
        E 0 93 48 70
        E 0 93 4a 70
        E 0 93 60 70
        E 0 93 61 70
        E 0 93 62 70
        E 120 80 6c 00
        E 360 80 74 00
        E 0 80 1f 00
        E 0 80 37 00
        E 0 80 4f 00
        E 0 80 67 00
        E 0 83 18 00
        E 0 83 30 00
        E 0 83 32 00
        E 0 83 48 00
        E 0 83 4a 00
        E 0 83 60 00
        E 0 83 61 00
        E 0 83 62 00
        E 960 93 48 64
        E 0 93 4a 64
        E 0 93 60 64
        E 0 93 61 64
        E 0 93 62 64
        E 120 83 48 00
        E 0 83 4a 00
        E 0 83 60 00
        E 0 83 61 00
        E 0 83 62 00
        E 120 93 60 64
        E 0 93 61 64
        E 0 93 62 64
        E 120 83 60 00
        E 0 83 61 00
        E 0 83 62 00
        E 120 90 18 67
        E 0 90 30 67
        E 0 90 32 67
        E 0 90 48 67
        E 0 90 4a 67
        E 0 90 60 67
        E 0 90 62 67
        E 0 90 6c 67
        E 120 80 18 00
        E 0 80 6c 00
        E 360 80 60 00
        E 0 80 62 00
        E 120 80 30 00
        E 0 80 32 00
        E 0 80 48 00
        E 0 80 4a 00
        E 120 93 60 64
        E 0 93 61 64
        E 0 93 62 64
        E 120 83 60 00
        E 0 83 61 00
        E 0 83 62 00
        E 120 90 18 69
        E 0 90 30 69
        E 0 90 32 69
        E 0 90 48 69
        E 0 90 4a 69
        E 0 90 60 69
        E 0 90 62 69
        E 0 90 6c 69
        E 120 80 18 00
        E 0 80 6c 00
        E 360 80 60 00
        E 0 80 62 00
        E 120 80 30 00
        E 0 80 32 00
        E 0 80 48 00
        E 0 80 4a 00
        E 120 90 6c 66
        E 0 93 60 64
        E 0 93 61 64
        E 0 93 62 64
        E 120 80 6c 00
        E 0 83 60 00
        E 0 83 61 00
        E 0 83 62 00
        E 120 90 18 64
        E 0 90 30 64
        E 0 90 48 64
        E 0 90 4a 64
        E 0 90 60 64
        E 0 90 62 64
        E 120 80 18 00
        E 0 80 30 00
        E 0 80 48 00
        E 0 80 4a 00
        E 360 80 60 00
        E 0 80 62 00
        E 960 93 18 64
        E 0 93 30 64
        E 0 93 48 64
        E 0 93 4a 64
        E 0 93 60 64
        E 0 93 61 64
        E 0 93 62 64
        E 120 83 18 00
        E 0 83 30 00
        E 0 83 48 00
        E 0 83 4a 00
        E 0 83 60 00
        E 0 83 61 00
        E 0 83 62 00
        E 120 93 60 64
        E 0 93 61 64
        E 0 93 62 64
        E 120 83 60 00
        E 0 83 61 00
        E 0 83 62 00
        E 600 93 18 64
        E 0 93 30 64
        E 0 93 48 64
        E 0 93 4a 64
        E 0 93 60 64
        E 0 93 61 64
        E 0 93 62 64
        E 120 83 18 00
        E 0 83 30 00
        E 0 83 48 00
        E 0 83 4a 00
        E 0 83 60 00
        E 0 83 61 00
        E 0 83 62 00
        E 120 93 60 64
        E 0 93 61 64
        E 0 93 62 64
        E 120 83 60 00
        E 0 83 61 00
        E 0 83 62 00
        E 600 93 48 64
        E 0 93 4a 64
        E 0 93 60 64
        E 0 93 61 64
        E 0 93 62 64
        E 120 83 48 00
        E 0 83 4a 00
        E 0 83 60 00
        E 0 83 61 00
        E 0 83 62 00
        E 360 90 18 66
        E 0 90 30 66
        E 0 90 32 66
        E 0 90 48 66
        E 0 90 4a 66
        E 0 90 60 66
        E 0 90 62 66
        E 120 80 18 00
        E 0 80 30 00
        E 0 80 32 00
        E 0 80 48 00
        E 0 80 4a 00
        E 360 80 60 00
        E 0 80 62 00
        E 960 93 48 64
        E 0 93 4a 64
        E 0 93 60 64
        E 0 93 61 64
        E 0 93 62 64
        E 120 83 48 00
        E 0 83 4a 00
        E 0 83 60 00
        E 0 83 61 00
        E 0 83 62 00
        E 120 93 60 64
        E 0 93 61 64
        E 0 93 62 64
        E 120 83 60 00
        E 0 83 61 00
        E 0 83 62 00
        E 120 90 18 67
        E 0 90 30 67
        E 0 90 32 67
        E 0 90 48 67
        E 0 90 4a 67
        E 0 90 60 67
        E 0 90 62 67
        E 0 90 6c 67
        E 120 80 18 00
        E 0 80 6c 00
        E 360 80 60 00
        E 0 80 62 00
        E 120 80 30 00
        E 0 80 32 00
        E 0 80 48 00
        E 0 80 4a 00
        E 120 93 60 64
        E 0 93 61 64
        E 0 93 62 64
        E 120 83 60 00
        E 0 83 61 00
        E 0 83 62 00
        E 120 90 30 69
        E 0 90 32 69
        E 0 90 48 69
        E 0 90 4a 69
        E 0 90 60 69
        E 0 90 62 69
        E 0 90 6c 69
        E 120 80 6c 00
        E 360 80 60 00
        E 0 80 62 00
        E 120 80 30 00
        E 0 80 32 00
        E 0 80 48 00
        E 0 80 4a 00
        E 120 93 60 64
        E 0 93 61 64
        E 0 93 62 64
        E 120 83 60 00
        E 0 83 61 00
        E 0 83 62 00
        E 120 80 11 00
        E 0 90 19 69
        E 0 90 31 69
        E 0 90 49 69
        E 0 90 61 69
        E 120 80 19 00
        E 0 80 31 00
        E 0 80 49 00
        E 0 80 61 00
        E 360 90 31 69
        E 0 90 49 69
        E 0 90 61 69
        E 120 80 31 00
        E 0 80 49 00
        E 0 80 61 00
        E 360 90 19 69
        E 0 90 31 69
        E 0 90 49 69
        E 0 90 61 69
        E 120 80 19 00
        E 0 80 31 00
        E 0 80 49 00
        E 0 80 61 00
        E 360 90 31 69
        E 0 90 49 69
        E 0 90 61 69
        E 120 80 31 00
        E 0 80 49 00
        E 0 80 61 00
        E 360 90 19 69
        E 0 90 31 69
        E 0 90 49 69
        E 0 90 61 69
        E 0 90 74 64
        E 120 80 19 00
        E 0 80 31 00
        E 0 80 49 00
        E 0 80 61 00
        E 360 90 31 69
        E 0 90 49 69
        E 0 90 61 69
        E 120 80 31 00
        E 0 80 49 00
        E 0 80 61 00
        E 360 90 31 69
        E 0 90 49 69
        E 0 90 61 69
        E 120 80 31 00
        E 0 80 49 00
        E 0 80 61 00
        E 360 90 30 64
        E 0 90 48 64
        E 0 90 60 64
        E 120 80 30 00
        E 0 80 48 00
        E 0 80 60 00
        E 120 80 73 00
        E 240 90 19 69
        E 0 90 31 69
        E 0 90 49 69
        E 0 90 61 69
        E 120 80 19 00
        E 0 80 31 00
        E 0 80 49 00
        E 0 80 61 00
        E 120 90 61 69
        E 120 80 61 00
        E 120 90 31 69
        E 0 90 49 69
        E 0 90 61 69
        E 120 80 31 00
        E 0 80 49 00
        E 0 80 61 00
        E 120 90 61 69
        E 120 80 61 00
        E 120 90 31 69
        E 0 90 49 69
        E 0 90 61 69
        E 120 80 31 00
        E 0 80 49 00
        E 0 80 61 00
        E 360 90 4a 6b
        E 0 90 62 6b
        E 120 80 4a 00
        E 0 80 62 00
        E 360 80 74 00
        E 0 90 1b 69
        E 0 90 33 69
        E 0 90 4b 69
        E 0 90 63 69
        E 120 80 1b 00
        E 0 80 33 00
        E 0 80 4b 00
        E 0 80 63 00
        E 120 90 63 69
        E 120 80 63 00
        E 120 90 33 69
        E 0 90 4b 69
        E 0 90 63 69
        E 120 80 33 00
        E 0 80 4b 00
        E 0 80 63 00
        E 120 90 63 69
        E 120 80 63 00
        E 120 90 33 69
        E 0 90 4b 69
        E 0 90 63 69
        E 120 80 33 00
        E 0 80 4b 00
        E 0 80 63 00
        E 360 90 4a 6b
        E 0 90 62 6b
        E 120 80 4a 00
        E 0 80 62 00
        E 360 90 1a 6c
        E 0 90 32 6c
        E 0 90 4a 6c
        E 0 90 62 6c
        E 120 80 1a 00
        E 0 80 32 00
        E 0 80 4a 00
        E 0 80 62 00
        E 120 90 62 6c
        E 120 80 62 00
        E 120 90 32 6c
        E 0 90 4a 6c
        E 0 90 62 6c
        E 120 80 32 00
        E 0 80 4a 00
        E 0 80 62 00
        E 120 90 62 6c
        E 120 80 62 00
        E 120 90 32 6c
        E 0 90 4a 6c
        E 0 90 62 6c
        E 120 80 32 00
        E 0 80 4a 00
        E 0 80 62 00
        E 360 90 49 6c
        E 0 90 61 6c
        E 120 80 49 00
        E 0 80 61 00
        E 360 90 1a 69
        E 0 90 32 69
        E 0 90 4a 69
        E 0 90 62 69
        E 120 80 1a 00
        E 0 80 32 00
        E 0 80 4a 00
        E 0 80 62 00
        E 120 90 62 69
        E 120 80 62 00
        E 120 90 32 69
        E 0 90 4a 69
        E 0 90 62 69
        E 120 80 32 00
        E 0 80 4a 00
        E 0 80 62 00
        E 120 90 62 69
        E 120 80 62 00
        E 120 90 32 69
        E 0 90 4a 69
        E 0 90 62 69
        E 120 80 32 00
        E 0 80 4a 00
        E 0 80 62 00
        E 120 90 60 6c
        E 0 90 6c 6c
        E 120 80 60 00
        E 0 80 6c 00
        E 120 90 48 6e
        E 0 90 60 6e
        E 120 80 48 00
        E 0 80 60 00
        E 360 90 19 69
        E 0 90 31 69
        E 0 90 49 69
        E 0 90 61 69
        E 0 90 6c 69
        E 120 80 19 00
        E 0 80 31 00
        E 0 80 49 00
        E 0 80 61 00
        E 0 80 6c 00
        E 120 90 61 69
        E 120 80 61 00
        E 120 90 31 69
        E 0 90 49 69
        E 0 90 61 69
        E 120 80 31 00
        E 0 80 49 00
        E 0 80 61 00
        E 120 90 61 69
        E 120 80 61 00
        E 120 90 31 69
        E 0 90 49 69
        E 0 90 61 69
        E 120 80 31 00
        E 0 80 49 00
        E 0 80 61 00
        E 360 90 4a 6b
        E 0 90 62 6b
        E 120 80 4a 00
        E 0 80 62 00
        E 360 90 1b 69
        E 0 90 33 69
        E 0 90 4b 69
        E 0 90 63 69
        E 120 80 1b 00
        E 0 80 33 00
        E 0 80 4b 00
        E 0 80 63 00
        E 120 90 63 69
        E 120 80 63 00
        E 120 90 33 69
        E 0 90 4b 69
        E 0 90 63 69
        E 120 80 33 00
        E 0 80 4b 00
        E 0 80 63 00
        E 120 90 63 69
        E 120 80 63 00
        E 120 90 33 69
        E 0 90 4b 69
        E 0 90 63 69
        E 120 80 33 00
        E 0 80 4b 00
        E 0 80 63 00
        E 360 90 4a 6b
        E 0 90 62 6b
        E 120 80 4a 00
        E 0 80 62 00
        E 360 90 1a 6c
        E 0 90 32 6c
        E 0 90 4a 6c
        E 0 90 62 6c
        E 120 80 1a 00
        E 0 80 32 00
        E 0 80 4a 00
        E 0 80 62 00
        E 120 90 62 6c
        E 120 80 62 00
        E 120 90 32 6c
        E 0 90 4a 6c
        E 0 90 62 6c
        E 120 80 32 00
        E 0 80 4a 00
        E 0 80 62 00
        E 120 90 62 6c
        E 120 80 62 00
        E 120 90 32 6c
        E 0 90 4a 6c
        E 0 90 62 6c
        E 120 80 32 00
        E 0 80 4a 00
        E 0 80 62 00
        E 360 90 49 6c
        E 0 90 61 6c
        E 120 80 49 00
        E 0 80 61 00
        E 360 90 1a 69
        E 0 90 32 69
        E 0 90 4a 69
        E 0 90 62 69
        E 120 80 1a 00
        E 0 80 32 00
        E 0 80 4a 00
        E 0 80 62 00
        E 120 90 62 69
        E 120 80 62 00
        E 120 90 32 69
        E 0 90 4a 69
        E 0 90 62 69
        E 120 80 32 00
        E 0 80 4a 00
        E 0 80 62 00
        E 120 90 62 69
        E 120 80 62 00
        E 120 90 32 69
        E 0 90 4a 69
        E 0 90 62 69
        E 120 80 32 00
        E 0 80 4a 00
        E 0 80 62 00
        E 120 90 63 6b
        E 0 90 6c 6b
        E 120 80 63 00
        E 0 80 6c 00
        E 120 90 4b 6e
        E 0 90 63 6e
        E 0 90 66 64
        E 120 80 4b 00
        E 0 80 63 00
        E 0 80 66 00
        E 360 90 19 69
        E 0 90 31 69
        E 0 90 49 69
        E 0 90 61 69
        E 0 90 6c 69
        E 120 80 19 00
        E 0 80 31 00
        E 0 80 49 00
        E 0 80 61 00
        E 0 80 6c 00
        E 120 90 61 69
        E 120 80 61 00
        E 120 90 31 69
        E 0 90 49 69
        E 0 90 61 69
        E 120 80 31 00
        E 0 80 49 00
        E 0 80 61 00
        E 120 90 61 69
        E 120 80 61 00
        E 120 90 31 69
        E 0 90 49 69
        E 0 90 61 69
        E 120 80 31 00
        E 0 80 49 00
        E 0 80 61 00
        E 360 90 4a 6b
        E 0 90 62 6b
        E 120 80 4a 00
        E 0 80 62 00
        E 360 90 1b 69
        E 0 90 33 69
        E 0 90 4b 69
        E 0 90 63 69
        E 120 80 1b 00
        E 0 80 33 00
        E 0 80 4b 00
        E 0 80 63 00
        E 120 90 63 69
        E 120 80 63 00
        E 120 90 33 69
        E 0 90 4b 69
        E 0 90 63 69
        E 120 80 33 00
        E 0 80 4b 00
        E 0 80 63 00
        E 120 90 63 69
        E 120 80 63 00
        E 120 90 33 69
        E 0 90 4b 69
        E 0 90 63 69
        E 120 80 33 00
        E 0 80 4b 00
        E 0 80 63 00
        E 360 90 4a 6b
        E 0 90 62 6b
        E 120 80 4a 00
        E 0 80 62 00
        E 360 90 1a 6c
        E 0 90 32 6c
        E 0 90 4a 6c
        E 0 90 62 6c
        E 120 80 1a 00
        E 0 80 32 00
        E 0 80 4a 00
        E 0 80 62 00
        E 120 90 62 6c
        E 120 80 62 00
        E 120 90 32 6c
        E 0 90 4a 6c
        E 0 90 62 6c
        E 120 80 32 00
        E 0 80 4a 00
        E 0 80 62 00
        E 120 90 62 6c
        E 120 80 62 00
        E 120 90 32 6c
        E 0 90 4a 6c
        E 0 90 62 6c
        E 120 80 32 00
        E 0 80 4a 00
        E 0 80 62 00
        E 360 90 49 6c
        E 0 90 61 6c
        E 120 80 49 00
        E 0 80 61 00
        E 360 90 1a 69
        E 0 90 32 69
        E 0 90 4a 69
        E 0 90 62 69
        E 120 80 1a 00
        E 0 80 32 00
        E 0 80 4a 00
        E 0 80 62 00
        E 120 90 62 69
        E 120 80 62 00
        E 120 90 32 69
        E 0 90 4a 69
        E 0 90 62 69
        E 120 80 32 00
        E 0 80 4a 00
        E 0 80 62 00
        E 120 90 62 69
        E 120 80 62 00
        E 120 90 32 69
        E 0 90 4a 69
        E 0 90 62 69
        E 120 80 32 00
        E 0 80 4a 00
        E 0 80 62 00
        E 120 90 60 6c
        E 0 90 6c 6c
        E 120 80 60 00
        E 0 80 6c 00
        E 120 90 48 6e
        E 0 90 60 6e
        E 120 80 48 00
        E 0 80 60 00
        E 360 90 19 69
        E 0 90 31 69
        E 0 90 49 69
        E 0 90 61 69
        E 0 90 6c 69
        E 120 80 19 00
        E 0 80 31 00
        E 0 80 49 00
        E 0 80 61 00
        E 0 80 6c 00
        E 120 90 61 69
        E 120 80 61 00
        E 120 90 31 69
        E 0 90 49 69
        E 0 90 61 69
        E 120 80 31 00
        E 0 80 49 00
        E 0 80 61 00
        E 120 90 61 69
        E 120 80 61 00
        E 120 90 31 69
        E 0 90 49 69
        E 0 90 61 69
        E 120 80 31 00
        E 0 80 49 00
        E 0 80 61 00
        E 360 90 4a 6b
        E 0 90 62 6b
        E 120 80 4a 00
        E 0 80 62 00
        E 360 90 1b 69
        E 0 90 33 69
        E 0 90 4b 69
        E 0 90 63 69
        E 120 80 1b 00
        E 0 80 33 00
        E 0 80 4b 00
        E 0 80 63 00
        E 120 90 63 69
        E 120 80 63 00
        E 120 90 33 69
        E 0 90 4b 69
        E 0 90 63 69
        E 120 80 33 00
        E 0 80 4b 00
        E 0 80 63 00
        E 120 90 63 69
        E 120 80 63 00
        E 120 90 33 69
        E 0 90 4b 69
        E 0 90 63 69
        E 120 80 33 00
        E 0 80 4b 00
        E 0 80 63 00
        E 360 90 4a 6b
        E 0 90 62 6b
        E 120 80 4a 00
        E 0 80 62 00
        E 360 90 1a 6c
        E 0 90 32 6c
        E 0 90 4a 6c
        E 0 90 62 6c
        E 120 80 1a 00
        E 0 80 32 00
        E 0 80 4a 00
        E 0 80 62 00
        E 120 90 62 6c
        E 120 80 62 00
        E 120 90 32 6c
        E 0 90 4a 6c
        E 0 90 62 6c
        E 120 80 32 00
        E 0 80 4a 00
        E 0 80 62 00
        E 120 90 62 6c
        E 120 80 62 00
        E 120 90 32 6c
        E 0 90 4a 6c
        E 0 90 62 6c
        E 120 80 32 00
        E 0 80 4a 00
        E 0 80 62 00
        E 360 90 49 6c
        E 0 90 61 6c
        E 120 80 49 00
        E 0 80 61 00
        E 360 90 1a 69
        E 0 90 32 69
        E 0 90 4a 69
        E 0 90 62 69
        E 120 80 1a 00
        E 0 80 32 00
        E 0 80 4a 00
        E 0 80 62 00
        E 120 90 62 69
        E 120 80 62 00
        E 120 90 32 69
        E 0 90 4a 69
        E 0 90 62 69
        E 120 80 32 00
        E 0 80 4a 00
        E 0 80 62 00
        E 120 90 62 69
        E 120 80 62 00
        E 120 90 32 69
        E 0 90 4a 69
        E 0 90 62 69
        E 120 80 32 00
        E 0 80 4a 00
        E 0 80 62 00
        E 120 90 60 6c
        E 0 90 6c 6c
        E 120 80 60 00
        E 0 80 6c 00
        E 120 90 48 6e
        E 0 90 60 6e
        E 120 80 48 00
        E 0 80 60 00
        E 360 90 19 69
        E 0 90 31 69
        E 0 90 49 69
        E 0 90 61 69
        E 0 90 6c 69
        E 120 80 19 00
        E 0 80 31 00
        E 0 80 49 00
        E 0 80 61 00
        E 0 80 6c 00
        E 3720 b0 7b 00
        GUID {2C55D86A-52EB-42ED-965A-F4D45E10034A}
        IGNTEMPO 0 120.00000000 4 4
        SRCCOLOR 8
        VELLANE 132 128 60
        COLORMAP "C:\Program Files\REAPER (x64)\Data\color_maps\rockband_guitarbass.png"
        CFGEDITVIEW -12968.014830 10.293458 7 12 0 0 0
        CFGEDIT 1 1 0 1 1 0 1 1 1 1 1 0.12500000 53 44 1253 718 0 2 1 1 0.00000000 0 1 1 0 0.500000 0 0 1.000000 64
        KEYSNAP 0 7 "102030050700" 0 "Pentatonic"
        EVTFILTER 0 -1 -1 -1 -1 0 1 0 0 -1.00000000 -1.00000000
      >
    >
  >
  <TRACK '{A567E493-E8CD-4841-B9F3-71790C29FC04}'
    NAME "EVENTS"
    PEAKCOL 16576
    BEAT -1
    AUTOMODE 0
    VOLPAN 1.00000000000000 0.00000000000000 -1.00000000000000 -1.00000000000000 1.00000000000000
    MUTESOLO 0 0 0
    IPHASE 0
    ISBUS 0 0
    BUSCOMP 0 0
    SHOWINMIX 1 0.666700 0.500000 1 0.500000 -1 -1 -1
    FREEMODE 0
    SEL 0
    REC 0 0 0 0 0 0 0
    VU 2
    TRACKHEIGHT 0 0
    INQ 0 0 0 0.5000000000 100 0 0 100
    NCHAN 2
    FX 1
    TRACKID {A567E493-E8CD-4841-B9F3-71790C29FC04}
    PERF 0
    MIDIOUT -1
    <MIDINOTENAMES
      0 26 "Hi-Hat"
      0 25 "Snare"
      0 24 "Kick"
    >
    MAINSEND 1 0
    <FXCHAIN
      SHOW 0
      LASTSEL 0
      DOCKED 0
    >
    <ITEM
      POSITION 0.00000000000000
      SNAPOFFS 0.00000000000000
      LENGTH 109.09842099999999
      LOOP 0
      ALLTAKES 0
      SEL 0
      FADEIN 1 0.000000 0.000000 1 0
      FADEOUT 1 0.000000 0.000000 1 0
      MUTE 0
      IGUID {72291561-BE82-441F-93BC-F627838022BA}
      IID 7
      NAME "EVENTS"
      VOLPAN 1.000000 0.000000 1.000000 -1.000000
      SOFFS 0.00000000000000 0.00000000000000
      PLAYRATE 1.00000000000000 1 0.00000000000000 -1
      CHANMODE 0
      GUID {0B60D4D0-B2B3-4289-9048-641235F1A821}
      <SOURCE MIDI
        HASDATA 1 480 QN
        POOLEDEVTS {FAD886DE-332B-4C5A-935F-ED2E1553EB14}
        <X 0 0
          /wNFVkVOVFM=
        >
        <X 7680 0
          /wFbcHJjX2ludHJvXQ==
        >
        <X 480 0
          /wFbY3Jvd2Rfbm9jbGFwXQ==
        >
        <X 0 0
          /wFbbXVzaWNfc3RhcnRd
        >
        <X 0 0
          /wFbY3Jvd2Rfbm9ybWFsXQ==
        >
        <X 30240 0
          /wFbY3Jvd2RfaW50ZW5zZV0=
        >
        <X 0 0
          /wFbcHJjX3ZlcnNlXzFd
        >
        <X 30720 0
          /wFbcHJjX2Nob3J1c18xXQ==
        >
        <X 30720 0
          /wFbcHJjX3ZlcnNlXzJd
        >
        <X 30720 0
          /wFbY3Jvd2RfY2xhcF0=
        >
        <X 0 0
          /wFbY3Jvd2Rfbm9ybWFsXQ==
        >
        <X 0 0
          /wFbcHJjX2Jhc3Nfc29sb10=
        >
        <X 30720 0
          /wFbcHJjX2Nob3J1c18zXQ==
        >
        <X 31200 0
          /wFbY3Jvd2RfcmVhbHRpbWVd
        >
        <X 0 0
          /wFbbXVzaWNfZW5kXQ==
        >
        <X 3355 0
          /wFbZW5kXQ==
        >
        E 5 b0 7b 00
        GUID {A37C6AF5-3C6E-4575-8D54-26D6CAD318A5}
        IGNTEMPO 0 120.00000000 4 4
        SRCCOLOR 9
        VELLANE 132 128 60
        COLORMAP "C:\Program Files\REAPER (x64)\Data\color_maps\rockband_guitarbass.png"
        CFGEDITVIEW -12968.014830 10.293458 0 48 0 0 0
        CFGEDIT 1 1 0 1 1 0 1 1 1 1 1 0.12500000 53 44 1253 718 0 2 1 1 0.00000000 0 1 1 0 0.500000 0 0 1.000000 64
        KEYSNAP 0 7 "102030050700" 0 "Pentatonic"
        EVTFILTER 0 -1 -1 -1 -1 0 1 0 0 -1.00000000 -1.00000000
      >
    >
  >
  <TRACK '{A64DADF2-3598-4B53-8638-6FCED1D0098B}'
    NAME "BEAT"
    PEAKCOL 16576
    BEAT -1
    AUTOMODE 0
    VOLPAN 1.00000000000000 0.00000000000000 -1.00000000000000 -1.00000000000000 1.00000000000000
    MUTESOLO 0 0 0
    IPHASE 0
    ISBUS 0 0
    BUSCOMP 0 0
    SHOWINMIX 1 0.666700 0.500000 1 0.500000 -1 -1 -1
    FREEMODE 0
    SEL 0
    REC 0 0 0 0 0 0 0
    VU 2
    TRACKHEIGHT 0 0
    INQ 0 0 0 0.5000000000 100 0 0 100
    NCHAN 2
    FX 1
    TRACKID {A64DADF2-3598-4B53-8638-6FCED1D0098B}
    PERF 0
    MIDIOUT -1
    <MIDINOTENAMES
      0 13 "Up Beats"
      0 12 "Downbeat"
    >
    MAINSEND 1 0
    <FXCHAIN
      SHOW 0
      LASTSEL 0
      DOCKED 0
    >
    <ITEM
      POSITION 0.00000000000000
      SNAPOFFS 0.00000000000000
      LENGTH 109.09842099999985
      LOOP 0
      ALLTAKES 0
      SEL 0
      FADEIN 1 0.000000 0.000000 1 0
      FADEOUT 1 0.000000 0.000000 1 0
      MUTE 0
      IGUID {ACCF9581-A770-4809-924F-9E8EDCCF2D79}
      IID 8
      NAME "BEAT"
      VOLPAN 1.000000 0.000000 1.000000 -1.000000
      SOFFS 0.00000000000000 0.00000000000000
      PLAYRATE 1.00000000000000 1 0.00000000000000 -1
      CHANMODE 0
      GUID {D540C1FF-3190-4F19-BB68-88E9DD054282}
      <SOURCE MIDI
        HASDATA 1 480 QN
        POOLEDEVTS {CB626DC7-8A64-4A8D-8641-D0CC289291B6}
        <X 0 0
          /wNCRUFU
        >
        E 0 96 0c 64
        E 120 86 0c 00
        E 360 96 0d 64
        E 120 86 0d 00
        E 360 96 0d 64
        E 120 86 0d 00
        E 360 96 0d 64
        E 120 86 0d 00
        E 360 96 0c 64
        E 120 86 0c 00
        E 360 96 0d 64
        E 120 86 0d 00
        E 360 96 0d 64
        E 120 86 0d 00
        E 360 96 0d 64
        E 120 86 0d 00
        E 360 96 0c 64
        E 120 86 0c 00
        E 360 96 0d 64
        E 120 86 0d 00
        E 360 96 0d 64
        E 120 86 0d 00
        E 360 96 0d 64
        E 120 86 0d 00
        E 360 96 0c 64
        E 120 86 0c 00
        E 360 96 0d 64
        E 120 86 0d 00
        E 360 96 0d 64
        E 120 86 0d 00
        E 360 96 0d 64
        E 120 86 0d 00
        E 360 96 0c 64
        E 120 86 0c 00
        E 360 96 0d 64
        E 120 86 0d 00
        E 360 96 0d 64
        E 120 86 0d 00
        E 360 96 0d 64
        E 120 86 0d 00
        E 360 96 0c 64
        E 120 86 0c 00
        E 360 96 0d 64
        E 120 86 0d 00
        E 360 96 0d 64
        E 120 86 0d 00
        E 360 96 0d 64
        E 120 86 0d 00
        E 360 96 0c 64
        E 120 86 0c 00
        E 360 96 0d 64
        E 120 86 0d 00
        E 360 96 0d 64
        E 120 86 0d 00
        E 360 96 0d 64
        E 120 86 0d 00
        E 360 96 0c 64
        E 120 86 0c 00
        E 360 96 0d 64
        E 120 86 0d 00
        E 360 96 0d 64
        E 120 86 0d 00
        E 360 96 0d 64
        E 120 86 0d 00
        E 360 96 0c 64
        E 120 86 0c 00
        E 360 96 0d 64
        E 120 86 0d 00
        E 360 96 0d 64
        E 120 86 0d 00
        E 360 96 0d 64
        E 120 86 0d 00
        E 360 96 0c 64
        E 120 86 0c 00
        E 360 96 0d 64
        E 120 86 0d 00
        E 360 96 0d 64
        E 120 86 0d 00
        E 360 96 0d 64
        E 120 86 0d 00
        E 360 96 0c 64
        E 120 86 0c 00
        E 360 96 0d 64
        E 120 86 0d 00
        E 360 96 0d 64
        E 120 86 0d 00
        E 360 96 0d 64
        E 120 86 0d 00
        E 360 96 0c 64
        E 120 86 0c 00
        E 360 96 0d 64
        E 120 86 0d 00
        E 360 96 0d 64
        E 120 86 0d 00
        E 360 96 0d 64
        E 120 86 0d 00
        E 360 96 0c 64
        E 120 86 0c 00
        E 360 96 0d 64
        E 120 86 0d 00
        E 360 96 0d 64
        E 120 86 0d 00
        E 360 96 0d 64
        E 120 86 0d 00
        E 360 96 0c 64
        E 120 86 0c 00
        E 360 96 0d 64
        E 120 86 0d 00
        E 360 96 0d 64
        E 120 86 0d 00
        E 360 96 0d 64
        E 120 86 0d 00
        E 360 96 0c 64
        E 120 86 0c 00
        E 360 96 0d 64
        E 120 86 0d 00
        E 360 96 0d 64
        E 120 86 0d 00
        E 360 96 0d 64
        E 120 86 0d 00
        E 360 96 0c 64
        E 120 86 0c 00
        E 360 96 0d 64
        E 120 86 0d 00
        E 360 96 0d 64
        E 120 86 0d 00
        E 360 96 0d 64
        E 120 86 0d 00
        E 360 96 0c 64
        E 120 86 0c 00
        E 360 96 0d 64
        E 120 86 0d 00
        E 360 96 0d 64
        E 120 86 0d 00
        E 360 96 0d 64
        E 120 86 0d 00
        E 360 96 0c 64
        E 120 86 0c 00
        E 360 96 0d 64
        E 120 86 0d 00
        E 360 96 0d 64
        E 120 86 0d 00
        E 360 96 0d 64
        E 120 86 0d 00
        E 360 96 0c 64
        E 120 86 0c 00
        E 360 96 0d 64
        E 120 86 0d 00
        E 360 96 0d 64
        E 120 86 0d 00
        E 360 96 0d 64
        E 120 86 0d 00
        E 360 96 0c 64
        E 120 86 0c 00
        E 360 96 0d 64
        E 120 86 0d 00
        E 360 96 0d 64
        E 120 86 0d 00
        E 360 96 0d 64
        E 120 86 0d 00
        E 360 96 0c 64
        E 120 86 0c 00
        E 360 96 0d 64
        E 120 86 0d 00
        E 360 96 0d 64
        E 120 86 0d 00
        E 360 96 0d 64
        E 120 86 0d 00
        E 360 96 0c 64
        E 120 86 0c 00
        E 360 96 0d 64
        E 120 86 0d 00
        E 360 96 0d 64
        E 120 86 0d 00
        E 360 96 0d 64
        E 120 86 0d 00
        E 360 96 0c 64
        E 120 86 0c 00
        E 360 96 0d 64
        E 120 86 0d 00
        E 360 96 0d 64
        E 120 86 0d 00
        E 360 96 0d 64
        E 120 86 0d 00
        E 360 96 0c 64
        E 120 86 0c 00
        E 360 96 0d 64
        E 120 86 0d 00
        E 360 96 0d 64
        E 120 86 0d 00
        E 360 96 0d 64
        E 120 86 0d 00
        E 360 96 0c 64
        E 120 86 0c 00
        E 360 96 0d 64
        E 120 86 0d 00
        E 360 96 0d 64
        E 120 86 0d 00
        E 360 96 0d 64
        E 120 86 0d 00
        E 360 96 0c 64
        E 120 86 0c 00
        E 360 96 0d 64
        E 120 86 0d 00
        E 360 96 0d 64
        E 120 86 0d 00
        E 360 96 0d 64
        E 120 86 0d 00
        E 360 96 0c 64
        E 120 86 0c 00
        E 360 96 0d 64
        E 120 86 0d 00
        E 360 96 0d 64
        E 120 86 0d 00
        E 360 96 0d 64
        E 120 86 0d 00
        E 360 96 0c 64
        E 120 86 0c 00
        E 360 96 0d 64
        E 120 86 0d 00
        E 360 96 0d 64
        E 120 86 0d 00
        E 360 96 0d 64
        E 120 86 0d 00
        E 360 96 0c 64
        E 120 86 0c 00
        E 360 96 0d 64
        E 120 86 0d 00
        E 360 96 0d 64
        E 120 86 0d 00
        E 360 96 0d 64
        E 120 86 0d 00
        E 360 96 0c 64
        E 120 86 0c 00
        E 360 96 0d 64
        E 120 86 0d 00
        E 360 96 0d 64
        E 120 86 0d 00
        E 360 96 0d 64
        E 120 86 0d 00
        E 360 96 0c 64
        E 120 86 0c 00
        E 360 96 0d 64
        E 120 86 0d 00
        E 360 96 0d 64
        E 120 86 0d 00
        E 360 96 0d 64
        E 120 86 0d 00
        E 360 96 0c 64
        E 120 86 0c 00
        E 360 96 0d 64
        E 120 86 0d 00
        E 360 96 0d 64
        E 120 86 0d 00
        E 360 96 0d 64
        E 120 86 0d 00
        E 360 96 0c 64
        E 120 86 0c 00
        E 360 96 0d 64
        E 120 86 0d 00
        E 360 96 0d 64
        E 120 86 0d 00
        E 360 96 0d 64
        E 120 86 0d 00
        E 360 96 0c 64
        E 120 86 0c 00
        E 360 96 0d 64
        E 120 86 0d 00
        E 360 96 0d 64
        E 120 86 0d 00
        E 360 96 0d 64
        E 120 86 0d 00
        E 360 96 0c 64
        E 120 86 0c 00
        E 360 96 0d 64
        E 120 86 0d 00
        E 360 96 0d 64
        E 120 86 0d 00
        E 360 96 0d 64
        E 120 86 0d 00
        E 360 96 0c 64
        E 120 86 0c 00
        E 360 96 0d 64
        E 120 86 0d 00
        E 360 96 0d 64
        E 120 86 0d 00
        E 360 96 0d 64
        E 120 86 0d 00
        E 360 96 0c 64
        E 120 86 0c 00
        E 360 96 0d 64
        E 120 86 0d 00
        E 360 96 0d 64
        E 120 86 0d 00
        E 360 96 0d 64
        E 120 86 0d 00
        E 360 96 0c 64
        E 120 86 0c 00
        E 360 96 0d 64
        E 120 86 0d 00
        E 360 96 0d 64
        E 120 86 0d 00
        E 360 96 0d 64
        E 120 86 0d 00
        E 360 96 0c 64
        E 120 86 0c 00
        E 360 96 0d 64
        E 120 86 0d 00
        E 360 96 0d 64
        E 120 86 0d 00
        E 360 96 0d 64
        E 120 86 0d 00
        E 360 96 0c 64
        E 120 86 0c 00
        E 360 96 0d 64
        E 120 86 0d 00
        E 360 96 0d 64
        E 120 86 0d 00
        E 360 96 0d 64
        E 120 86 0d 00
        E 360 96 0c 64
        E 120 86 0c 00
        E 360 96 0d 64
        E 120 86 0d 00
        E 360 96 0d 64
        E 120 86 0d 00
        E 360 96 0d 64
        E 120 86 0d 00
        E 360 96 0c 64
        E 120 86 0c 00
        E 360 96 0d 64
        E 120 86 0d 00
        E 360 96 0d 64
        E 120 86 0d 00
        E 360 96 0d 64
        E 120 86 0d 00
        E 360 96 0c 64
        E 120 86 0c 00
        E 360 96 0d 64
        E 120 86 0d 00
        E 360 96 0d 64
        E 120 86 0d 00
        E 360 96 0d 64
        E 120 86 0d 00
        E 360 96 0c 64
        E 120 86 0c 00
        E 360 96 0d 64
        E 120 86 0d 00
        E 360 96 0d 64
        E 120 86 0d 00
        E 360 96 0d 64
        E 120 86 0d 00
        E 360 96 0c 64
        E 120 86 0c 00
        E 360 96 0d 64
        E 120 86 0d 00
        E 360 96 0d 64
        E 120 86 0d 00
        E 360 96 0d 64
        E 120 86 0d 00
        E 360 96 0c 64
        E 120 86 0c 00
        E 360 96 0d 64
        E 120 86 0d 00
        E 360 96 0d 64
        E 120 86 0d 00
        E 360 96 0d 64
        E 120 86 0d 00
        E 360 96 0c 64
        E 120 86 0c 00
        E 360 96 0d 64
        E 120 86 0d 00
        E 360 96 0d 64
        E 120 86 0d 00
        E 360 96 0d 64
        E 120 86 0d 00
        E 360 96 0c 64
        E 120 86 0c 00
        E 360 96 0d 64
        E 120 86 0d 00
        E 360 96 0d 64
        E 120 86 0d 00
        E 360 96 0d 64
        E 120 86 0d 00
        E 360 96 0c 64
        E 120 86 0c 00
        E 360 96 0d 64
        E 120 86 0d 00
        E 360 96 0d 64
        E 120 86 0d 00
        E 360 96 0d 64
        E 120 86 0d 00
        E 360 96 0c 64
        E 120 86 0c 00
        E 360 96 0d 64
        E 120 86 0d 00
        E 360 96 0d 64
        E 120 86 0d 00
        E 360 96 0d 64
        E 120 86 0d 00
        E 360 96 0c 64
        E 120 86 0c 00
        E 360 96 0d 64
        E 120 86 0d 00
        E 360 96 0d 64
        E 120 86 0d 00
        E 360 96 0d 64
        E 120 86 0d 00
        E 360 96 0c 64
        E 120 86 0c 00
        E 360 96 0d 64
        E 120 86 0d 00
        E 360 96 0d 64
        E 120 86 0d 00
        E 360 96 0d 64
        E 120 86 0d 00
        E 360 96 0c 64
        E 120 86 0c 00
        E 360 96 0d 64
        E 120 86 0d 00
        E 360 96 0d 64
        E 120 86 0d 00
        E 360 96 0d 64
        E 120 86 0d 00
        E 360 96 0c 64
        E 120 86 0c 00
        E 360 96 0d 64
        E 120 86 0d 00
        E 360 96 0d 64
        E 120 86 0d 00
        E 360 96 0d 64
        E 120 86 0d 00
        E 360 96 0c 64
        E 120 86 0c 00
        E 360 96 0d 64
        E 120 86 0d 00
        E 360 96 0d 64
        E 120 86 0d 00
        E 360 96 0d 64
        E 120 86 0d 00
        E 360 96 0c 64
        E 120 86 0c 00
        E 360 96 0d 64
        E 120 86 0d 00
        E 360 96 0d 64
        E 120 86 0d 00
        E 360 96 0d 64
        E 120 86 0d 00
        E 360 96 0c 64
        E 120 86 0c 00
        E 360 96 0d 64
        E 120 86 0d 00
        E 360 96 0d 64
        E 120 86 0d 00
        E 360 96 0d 64
        E 120 86 0d 00
        E 360 96 0c 64
        E 120 86 0c 00
        E 360 96 0d 64
        E 120 86 0d 00
        E 360 96 0d 64
        E 120 86 0d 00
        E 360 96 0d 64
        E 120 86 0d 00
        E 360 96 0c 64
        E 120 86 0c 00
        E 360 96 0d 64
        E 120 86 0d 00
        E 360 96 0d 64
        E 120 86 0d 00
        E 360 96 0d 64
        E 120 86 0d 00
        E 360 96 0c 64
        E 120 86 0c 00
        E 360 96 0d 64
        E 120 86 0d 00
        E 360 96 0d 64
        E 120 86 0d 00
        E 360 96 0d 64
        E 120 86 0d 00
        E 360 96 0c 64
        E 120 86 0c 00
        E 360 96 0d 64
        E 120 86 0d 00
        E 360 96 0d 64
        E 120 86 0d 00
        E 360 96 0d 64
        E 120 86 0d 00
        E 360 96 0c 64
        E 120 86 0c 00
        E 360 96 0d 64
        E 120 86 0d 00
        E 360 96 0d 64
        E 120 86 0d 00
        E 360 96 0d 64
        E 120 86 0d 00
        E 360 96 0c 64
        E 120 86 0c 00
        E 360 96 0d 64
        E 120 86 0d 00
        E 360 96 0d 64
        E 120 86 0d 00
        E 360 96 0d 64
        E 120 86 0d 00
        E 360 96 0c 64
        E 120 86 0c 00
        E 360 96 0d 64
        E 120 86 0d 00
        E 360 96 0d 64
        E 120 86 0d 00
        E 360 96 0d 64
        E 120 86 0d 00
        E 360 96 0c 64
        E 120 86 0c 00
        E 360 96 0d 64
        E 120 86 0d 00
        E 360 96 0d 64
        E 120 86 0d 00
        E 360 96 0d 64
        E 120 86 0d 00
        E 360 96 0c 64
        E 120 86 0c 00
        E 360 96 0d 64
        E 120 86 0d 00
        E 360 96 0d 64
        E 120 86 0d 00
        E 360 96 0d 64
        E 120 86 0d 00
        E 360 96 0c 64
        E 120 86 0c 00
        E 360 96 0d 64
        E 120 86 0d 00
        E 360 96 0d 64
        E 120 86 0d 00
        E 360 96 0d 64
        E 120 86 0d 00
        E 360 96 0c 64
        E 120 86 0c 00
        E 360 96 0d 64
        E 120 86 0d 00
        E 360 96 0d 64
        E 120 86 0d 00
        E 360 96 0d 64
        E 120 86 0d 00
        E 360 96 0c 64
        E 120 86 0c 00
        E 360 96 0d 64
        E 120 86 0d 00
        E 360 96 0d 64
        E 120 86 0d 00
        E 360 96 0d 64
        E 120 86 0d 00
        E 360 96 0c 64
        E 120 86 0c 00
        E 360 96 0d 64
        E 120 86 0d 00
        E 360 96 0d 64
        E 120 86 0d 00
        E 360 96 0d 64
        E 120 86 0d 00
        E 360 96 0c 64
        E 120 86 0c 00
        E 360 96 0d 64
        E 120 86 0d 00
        E 360 96 0d 64
        E 120 86 0d 00
        E 360 96 0d 64
        E 120 86 0d 00
        E 360 96 0c 64
        E 120 86 0c 00
        E 360 96 0d 64
        E 120 86 0d 00
        E 360 96 0d 64
        E 120 86 0d 00
        E 360 96 0d 64
        E 120 86 0d 00
        E 360 96 0c 64
        E 120 86 0c 00
        E 360 96 0d 64
        E 120 86 0d 00
        E 360 96 0d 64
        E 120 86 0d 00
        E 360 96 0d 64
        E 120 86 0d 00
        E 360 96 0c 64
        E 120 86 0c 00
        E 360 96 0d 64
        E 120 86 0d 00
        E 360 96 0d 64
        E 120 86 0d 00
        E 360 96 0d 64
        E 120 86 0d 00
        E 360 96 0c 64
        E 120 86 0c 00
        E 360 96 0d 64
        E 120 86 0d 00
        E 360 96 0d 64
        E 120 86 0d 00
        E 360 96 0d 64
        E 120 86 0d 00
        E 360 96 0c 64
        E 120 86 0c 00
        E 360 96 0d 64
        E 120 86 0d 00
        E 360 96 0d 64
        E 120 86 0d 00
        E 360 96 0d 64
        E 120 86 0d 00
        E 360 96 0c 64
        E 120 86 0c 00
        E 360 96 0d 64
        E 120 86 0d 00
        E 360 96 0d 64
        E 120 86 0d 00
        E 360 96 0d 64
        E 120 86 0d 00
        E 360 96 0c 64
        E 120 86 0c 00
        E 360 96 0d 64
        E 120 86 0d 00
        E 360 96 0d 64
        E 120 86 0d 00
        E 360 96 0d 64
        E 120 86 0d 00
        E 360 96 0c 64
        E 120 86 0c 00
        E 360 96 0d 64
        E 120 86 0d 00
        E 360 96 0d 64
        E 120 86 0d 00
        E 360 96 0d 64
        E 120 86 0d 00
        E 360 96 0c 64
        E 120 86 0c 00
        E 360 96 0d 64
        E 120 86 0d 00
        E 360 96 0d 64
        E 120 86 0d 00
        E 360 96 0d 64
        E 120 86 0d 00
        E 360 96 0c 64
        E 120 86 0c 00
        E 360 96 0d 64
        E 120 86 0d 00
        E 360 96 0d 64
        E 120 86 0d 00
        E 360 96 0d 64
        E 120 86 0d 00
        E 360 96 0c 64
        E 120 86 0c 00
        E 360 96 0d 64
        E 120 86 0d 00
        E 360 96 0d 64
        E 120 86 0d 00
        E 360 96 0d 64
        E 120 86 0d 00
        E 360 96 0c 64
        E 120 86 0c 00
        E 360 96 0d 64
        E 120 86 0d 00
        E 360 96 0d 64
        E 120 86 0d 00
        E 360 96 0d 64
        E 120 86 0d 00
        E 360 96 0c 64
        E 120 86 0c 00
        E 360 96 0d 64
        E 120 86 0d 00
        E 360 96 0d 64
        E 120 86 0d 00
        E 360 96 0d 64
        E 120 86 0d 00
        E 360 96 0c 64
        E 120 86 0c 00
        E 360 96 0d 64
        E 120 86 0d 00
        E 360 96 0d 64
        E 120 86 0d 00
        E 360 96 0d 64
        E 120 86 0d 00
        E 360 96 0c 64
        E 120 86 0c 00
        E 360 96 0d 64
        E 120 86 0d 00
        E 360 96 0d 64
        E 120 86 0d 00
        E 360 96 0d 64
        E 120 86 0d 00
        E 360 96 0c 64
        E 120 86 0c 00
        E 360 96 0d 64
        E 120 86 0d 00
        E 360 96 0d 64
        E 120 86 0d 00
        E 360 96 0d 64
        E 120 86 0d 00
        E 360 96 0c 64
        E 120 86 0c 00
        E 360 96 0d 64
        E 120 86 0d 00
        E 360 96 0d 64
        E 120 86 0d 00
        E 360 96 0d 64
        E 120 86 0d 00
        E 360 96 0c 64
        E 120 86 0c 00
        E 360 96 0d 64
        E 120 86 0d 00
        E 360 96 0d 64
        E 120 86 0d 00
        E 360 96 0d 64
        E 120 86 0d 00
        E 360 96 0c 64
        E 120 86 0c 00
        E 360 96 0d 64
        E 120 86 0d 00
        E 360 96 0d 64
        E 120 86 0d 00
        E 360 96 0d 64
        E 120 86 0d 00
        E 360 96 0c 64
        E 120 86 0c 00
        E 360 96 0d 64
        E 120 86 0d 00
        E 360 96 0d 64
        E 120 86 0d 00
        E 360 96 0d 64
        E 120 86 0d 00
        E 360 96 0c 64
        E 120 86 0c 00
        E 360 96 0d 64
        E 120 86 0d 00
        E 360 96 0d 64
        E 120 86 0d 00
        E 360 96 0d 64
        E 120 86 0d 00
        E 360 96 0c 64
        E 120 86 0c 00
        E 360 96 0d 64
        E 120 86 0d 00
        E 360 96 0d 64
        E 120 86 0d 00
        E 360 96 0d 64
        E 120 86 0d 00
        E 360 96 0c 64
        E 120 86 0c 00
        E 360 96 0d 64
        E 120 86 0d 00
        E 360 96 0d 64
        E 120 86 0d 00
        E 360 96 0d 64
        E 120 86 0d 00
        E 360 96 0c 64
        E 120 86 0c 00
        E 360 96 0d 64
        E 120 86 0d 00
        E 360 96 0d 64
        E 120 86 0d 00
        E 360 96 0d 64
        E 120 86 0d 00
        E 360 96 0c 64
        E 120 86 0c 00
        E 360 96 0d 64
        E 120 86 0d 00
        E 360 96 0d 64
        E 120 86 0d 00
        E 360 96 0d 64
        E 120 86 0d 00
        E 360 96 0c 64
        E 120 86 0c 00
        E 360 96 0d 64
        E 120 86 0d 00
        E 360 96 0d 64
        E 120 86 0d 00
        E 360 96 0d 64
        E 120 86 0d 00
        E 360 96 0c 64
        E 120 86 0c 00
        E 360 96 0d 64
        E 120 86 0d 00
        E 360 96 0d 64
        E 120 86 0d 00
        E 360 96 0d 64
        E 120 86 0d 00
        E 360 96 0c 64
        E 120 86 0c 00
        E 360 96 0d 64
        E 120 86 0d 00
        E 360 96 0d 64
        E 120 86 0d 00
        E 360 96 0d 64
        E 120 86 0d 00
        E 360 96 0c 64
        E 120 86 0c 00
        E 360 96 0d 64
        E 120 86 0d 00
        E 360 96 0d 64
        E 120 86 0d 00
        E 360 96 0d 64
        E 120 86 0d 00
        E 360 96 0c 64
        E 120 86 0c 00
        E 360 96 0d 64
        E 120 86 0d 00
        E 360 96 0d 64
        E 120 86 0d 00
        E 360 96 0d 64
        E 120 86 0d 00
        E 360 96 0c 64
        E 120 86 0c 00
        E 360 96 0d 64
        E 120 86 0d 00
        E 360 96 0d 64
        E 120 86 0d 00
        E 360 96 0d 64
        E 120 86 0d 00
        E 360 b0 7b 00
        GUID {704FC3DC-D17C-47C5-8DB1-438EBF1413CD}
        IGNTEMPO 0 120.00000000 4 4
        SRCCOLOR 10
        VELLANE 132 128 60
        COLORMAP "C:\Program Files\REAPER (x64)\Data\color_maps\rockband_guitarbass.png"
        CFGEDITVIEW -12968.014830 10.293458 0 48 0 0 0
        CFGEDIT 1 1 0 1 1 0 1 1 1 1 1 0.12500000 53 44 1253 718 0 2 1 1 0.00000000 0 1 1 0 0.500000 0 0 1.000000 64
        KEYSNAP 0 7 "102030050700" 0 "Pentatonic"
        EVTFILTER 0 -1 -1 -1 -1 0 1 0 0 -1.00000000 -1.00000000
      >
    >
  >
  <TRACK '{24F70994-CEE8-484A-977F-03A64001C9FF}'
    NAME "backing"
    PEAKCOL 16576
    BEAT -1
    AUTOMODE 0
    VOLPAN 1.00000000000000 0.00000000000000 -1.00000000000000 -1.00000000000000 1.00000000000000
    MUTESOLO 0 0 0
    IPHASE 0
    ISBUS 0 0
    BUSCOMP 0 0
    SHOWINMIX 1 0.666700 0.500000 1 0.500000 -1 -1 -1
    FREEMODE 0
    SEL 0
    REC 0 0 0 0 0 0 0
    VU 2
    TRACKHEIGHT 0 0
    INQ 0 0 0 0.5000000000 100 0 0 100
    NCHAN 2
    FX 1
    TRACKID {24F70994-CEE8-484A-977F-03A64001C9FF}
    PERF 0
    MIDIOUT -1
    MAINSEND 1 0
    <ITEM
      POSITION 0.00000000000000
      SNAPOFFS 0.00000000000000
      LENGTH 109.09839002267573
      LOOP 0
      ALLTAKES 0
      SEL 0
      FADEIN 1 0.000000 0.000000 1 0
      FADEOUT 1 0.000000 0.000000 1 0
      MUTE 0
      IGUID {28117A50-69CA-4B3D-B7A1-F990A7C63A9E}
      IID 9
      NAME "backing.wav"
      VOLPAN 1.000000 0.000000 1.000000 -1.000000
      SOFFS 0.00000000000000
      PLAYRATE 1.00000000000000 1 0.00000000000000 -1
      CHANMODE 0
      GUID {7E78495B-43AE-4F99-B363-32AB19A59B9D}
      <SOURCE WAVE
        FILE "wav\backing.wav"
      >
    >
  >
  <EXTENSIONS
  >
>
