<REAPER_PROJECT 0.1 "4.22/x64"
  RIPPLE 0
  GROUPOVERRIDE 0 0 0
  AUTOXFADE 1
  ENVATTACH 1
  MIXERUIFLAGS 11 48
  PEAKGAIN 1.00000000000000
  FEEDBACK 0
  PANLAW 1.00000000000000
  PROJOFFS 0.00000000000000 0
  MAXPROJLEN 0 600.00000000000000
  GRID 3199 8 1.00000000000000 8 1.00000000000000 0
  TIMEMODE 1 0 -1
  PANMODE 3
  CURSOR 0.00000000000000
  ZOOM 8.39339466186077 0 0
  VZOOMEX 5
  USE_REC_CFG 0
  RECMODE 1
  SMPTESYNC 0 23.976024 100 40 1000 300 0 0.000000 1
  LOOP 1
  LOOPGRAN 0 4.00000000000000
  RECORD_PATH "" ""
  <RECORD_CFG
    ZXZhdxgD
  >
  <APPLYFX_CFG
  >
  RENDER_FILE ""
  RENDER_PATTERN ""
  RENDER_FMT 0 2 0
  RENDER_1X 0
  RENDER_RANGE 1 0.00000000000000 0.00000000000000
  RENDER_RESAMPLE 3 0 1
  RENDER_ADDTOPROJ 0
  RENDER_STEMS 0
  RENDER_DITHER 0
  TIMELOCKMODE 0
  ITEMMIX 0
  DEFPITCHMODE 393216
  TAKELANE 1
  SAMPLERATE 44100 0 0
  <RENDER_CFG
  >
  LOCK 1
  <METRONOME 6 2.000000
    VOL 0.250000 0.125000
    FREQ 800 1600 1
    BEATLEN 4
    SAMPLES "" ""
  >
  GLOBAL_AUTO -1
  TEMPO 100.00000000000000 4 4
  PLAYRATE 1.00000000000000 0 0.25000 4.00000
  SELECTION 149.57649390171980 0.00000000000000
  SELECTION2 149.57649390171980 0.00000000000000
  MASTERAUTOMODE 0
  MASTERTRACKHEIGHT 0
  MASTERPEAKCOL 16576
  MASTERMUTESOLO 0
  MASTERTRACKVIEW 0 0.666700 0.500000 0.500000 -1 -1 -1
  MASTERHWOUT 0 0 1.00000000000000 0.00000000000000 0 0 0 -1.00000000000000
  MASTER_NCH 2 2
  MASTER_VOLUME 1.00000000000000 0.00000000000000 -1.00000000000000 -1.00000000000000 1.00000000000000
  MASTER_PANMODE -1
  MASTER_FX 1
  MASTER_SEL 0
  <MASTERPLAYSPEEDENV
    ACT 0
    VIS 0 1 1.000000
    LANEHEIGHT 0 0
    ARM 0
    DEFSHAPE 0 -1 -1
  >
  <TEMPOENVEX
    ACT 1
    VIS 1 0 1.000000
    LANEHEIGHT 0 0
    ARM 0
    DEFSHAPE 1 -1 -1
    PT 0.000000000000 100.0000000000 1 262150
    PT 18.000000000000 100.0000000000 1 262148
    PT 20.400000000000 100.0000000000 1 262150
    PT 63.600000000000 100.0000000000 1 262148
    PT 73.200000000000 100.0000000000 1 262150
    PT 138.000000000000 97.0000000000 1
    PT 139.855670103093 95.0000000000 1
    PT 141.750406945198 92.0000000000 1
  >
  <PROJBAY
  >
  <TRACK '{567CA81F-6B3E-4F40-BDB3-CD4FE07A9755}'
    NAME "PART GUITAR"
    PEAKCOL 16576
    BEAT -1
    AUTOMODE 0
    VOLPAN 1.00000000000000 0.00000000000000 -1.00000000000000 -1.00000000000000 1.00000000000000
    MUTESOLO 0 0 0
    IPHASE 0
    ISBUS 1 1
    BUSCOMP 0 0
    SHOWINMIX 1 0.666700 0.500000 1 0.500000 -1 -1 -1
    FREEMODE 0
    SEL 0
    REC 0 0 0 0 0 0 0
    VU 2
    TRACKHEIGHT 0 0
    INQ 0 0 0 0.5000000000 100 0 0 100
    NCHAN 2
    FX 1
    TRACKID {567CA81F-6B3E-4F40-BDB3-CD4FE07A9755}
    PERF 0
    MIDIOUT -1
    <MIDINOTENAMES
      0 127 "TRILL MARKER"
      0 126 "TREMOLO MARKER"
      0 125 "---"
      0 124 "BRE"
      0 123 "BRE"
      0 122 "BRE"
      0 121 "BRE"
      0 120 "BRE (use all 5)"
      0 119 "----"
      0 116 "OVERDRIVE"
      0 115 "----"
      0 103 "Solo Marker"
      0 102 "Force HOPO Off"
      0 101 "Force HOPO On"
      0 100 "EXPERT Orange"
      0 99 "EXPERT Blue"
      0 98 "EXPERT Yellow"
      0 97 "EXPERT Red"
      0 96 "EXPERT Green"
      0 95 "----"
      0 90 "Force HOPO Off"
      0 89 "Force HOPO On"
      0 88 "HARD Orange"
      0 87 "HARD Blue"
      0 86 "HARD Yellow"
      0 85 "HARD Red"
      0 84 "HARD Green"
      0 77 "----"
      0 76 "MEDIUM Orange"
      0 75 "MEDIUM Blue"
      0 74 "MEDIUM Yellow"
      0 73 "MEDIUM Red"
      0 72 "MEDIUM Green"
      0 65 "----"
      0 64 "EASY Orange"
      0 63 "EASY Blue"
      0 62 "EASY Yellow"
      0 61 "EASY Red"
      0 60 "EASY Green"
      0 59 "Fret 12"
      0 57 "Fret 11"
      0 56 "Fret 10"
      0 55 "Fret 9"
      0 53 "Fret 8"
      0 52 "Fret 7"
      0 50 "Fret 6"
      0 49 "Fret 5"
      0 47 "Fret 4"
      0 45 "Fret 3"
      0 43 "Fret 2"
      0 40 "Fret 1"
    >
    MAINSEND 1 0
    <FXCHAIN
      WNDRECT 279 220 891 559
      SHOW 0
      LASTSEL 0
      DOCKED 0
      BYPASS 0 0
      <VST "VSTi: RBN Preview (RBN)" "rbprev_vst64.dll" 0 ""
        dnBicu5e7f4AAAAAAgAAAAEAAAAAAAAAAgAAAAAAAAAEAAAAAQAAAA==
        AAAQAAMAqgAAABAAAAA=
      >
      FLOATPOS 0 0 0 0
      FXID {E7AB7634-2F79-4710-868C-E623800149DF}
      WAK 0
    >
    <ITEM
      POSITION 0.00000000000000
      SNAPOFFS 0.00000000000000
      LENGTH 149.57649390171980
      LOOP 0
      ALLTAKES 0
      SEL 0
      FADEIN 1 0.000000 0.000000 1 0
      FADEOUT 1 0.000000 0.000000 1 0
      MUTE 0
      IGUID {73BF759C-2AF7-4F37-9D26-14CC76B63B50}
      IID 16
      NAME "PART GUITAR"
      VOLPAN 1.000000 0.000000 1.000000 -1.000000
      SOFFS 0.00000000000000 0.00000000000000
      PLAYRATE 1.00000000000000 1 0.00000000000000 -1
      CHANMODE 0
      GUID {C761FC2D-B5D3-4B42-870C-A7A5F2FCBFAC}
      <SOURCE MIDI
        HASDATA 1 480 QN
        POOLEDEVTS {8684FB49-5566-4316-94A7-5AE34BC22744}
        <X 0 0
          /wNQQVJUIEdVSVRBUg==
        >
        <X 2880 0
          /wFbbWVsbG93XQ==
        >
        E 0 90 3c 60
        E 0 90 49 60
        E 0 90 55 60
        E 0 90 61 60
        E 120 80 3c 00
        E 0 80 49 00
        E 0 80 55 00
        E 0 80 61 00
        E 120 90 56 60
        E 0 90 62 60
        E 120 80 56 00
        E 0 80 62 00
        E 120 90 4b 60
        E 0 90 57 60
        E 0 90 63 60
        E 120 80 4b 00
        E 0 80 57 00
        E 0 80 63 00
        E 120 90 58 60
        E 0 90 64 60
        E 120 80 58 00
        E 0 80 64 00
        E 120 90 3e 60
        E 0 90 4b 60
        E 0 90 57 60
        E 0 90 63 60
        E 120 80 3e 00
        E 0 80 4b 00
        E 0 80 57 00
        E 0 80 63 00
        E 120 90 56 60
        E 0 90 62 60
        E 120 80 56 00
        E 0 80 62 00
        E 120 90 48 60
        E 0 90 54 60
        E 0 90 60 60
        E 120 80 48 00
        E 0 80 54 00
        E 0 80 60 00
        E 120 90 55 60
        E 0 90 61 60
        E 120 80 55 00
        E 0 80 61 00
        E 120 90 3d 60
        E 0 90 4a 60
        E 0 90 56 60
        E 0 90 62 60
        E 120 80 3d 00
        E 0 80 4a 00
        E 0 80 56 00
        E 0 80 62 00
        E 120 90 57 60
        E 0 90 63 60
        E 120 80 57 00
        E 0 80 63 00
        E 120 90 4a 60
        E 0 90 56 60
        E 0 90 62 60
        E 120 80 4a 00
        E 240 80 56 00
        E 0 80 62 00
        E 120 90 3c 60
        E 0 90 49 60
        E 0 90 55 60
        E 0 90 61 60
        E 120 80 3c 00
        E 0 80 49 00
        E 0 80 55 00
        E 0 80 61 00
        E 120 90 56 60
        E 0 90 62 60
        E 120 80 56 00
        E 0 80 62 00
        E 120 90 4b 60
        E 0 90 57 60
        E 0 90 63 60
        E 120 80 4b 00
        E 0 80 57 00
        E 0 80 63 00
        E 120 90 58 60
        E 0 90 64 60
        E 120 80 58 00
        E 0 80 64 00
        E 120 90 3e 60
        E 0 90 4b 60
        E 0 90 57 60
        E 0 90 63 60
        E 120 80 3e 00
        E 0 80 4b 00
        E 239 80 57 00
        E 0 80 63 00
        E 121 90 48 60
        E 0 90 54 60
        E 0 90 60 60
        E 120 80 48 00
        E 0 80 54 00
        E 0 80 60 00
        E 120 90 55 60
        E 0 90 61 60
        E 120 80 55 00
        E 0 80 61 00
        E 120 90 3d 60
        E 0 90 4a 60
        E 0 90 56 60
        E 0 90 62 60
        E 120 80 3d 00
        E 0 80 4a 00
        E 0 80 56 00
        E 0 80 62 00
        E 120 90 57 60
        E 0 90 63 60
        E 600 80 57 00
        E 0 80 63 00
        E 120 90 3c 60
        E 0 90 49 60
        E 0 90 55 60
        E 0 90 61 60
        E 120 80 3c 00
        E 0 80 49 00
        E 0 80 55 00
        E 0 80 61 00
        E 120 90 56 60
        E 0 90 62 60
        E 120 80 56 00
        E 0 80 62 00
        E 120 90 4b 60
        E 0 90 57 60
        E 0 90 63 60
        E 120 80 4b 00
        E 0 80 57 00
        E 0 80 63 00
        E 120 90 58 60
        E 0 90 64 60
        E 120 80 58 00
        E 0 80 64 00
        E 120 90 3e 60
        E 0 90 4b 60
        E 0 90 57 60
        E 0 90 63 60
        E 120 80 3e 00
        E 0 80 4b 00
        E 0 80 57 00
        E 0 80 63 00
        E 120 90 56 60
        E 0 90 62 60
        E 120 80 56 00
        E 0 80 62 00
        E 120 90 48 60
        E 0 90 54 60
        E 0 90 60 60
        E 120 80 48 00
        E 0 80 54 00
        E 0 80 60 00
        E 120 90 55 60
        E 0 90 61 60
        E 120 80 55 00
        E 0 80 61 00
        E 120 90 3d 60
        E 0 90 4a 60
        E 0 90 56 60
        E 0 90 62 60
        E 120 80 3d 00
        E 0 80 4a 00
        E 0 80 56 00
        E 0 80 62 00
        E 120 90 57 60
        E 0 90 63 60
        E 120 80 57 00
        E 0 80 63 00
        E 120 90 4a 60
        E 0 90 56 60
        E 0 90 62 60
        E 120 80 4a 00
        E 0 80 56 00
        E 0 80 62 00
        E 120 90 54 60
        E 0 90 60 60
        E 120 80 54 00
        E 0 80 60 00
        E 120 90 3c 60
        E 0 90 49 60
        E 0 90 55 60
        E 0 90 61 60
        E 120 80 3c 00
        E 0 80 49 00
        E 0 80 55 00
        E 0 80 61 00
        E 120 90 56 60
        E 0 90 62 60
        E 120 80 56 00
        E 0 80 62 00
        E 120 90 4b 60
        E 0 90 57 60
        E 0 90 63 60
        E 120 80 4b 00
        E 0 80 57 00
        E 0 80 63 00
        E 120 90 58 60
        E 0 90 64 60
        E 120 80 58 00
        E 0 80 64 00
        E 120 90 3e 60
        E 0 90 4b 60
        E 0 90 57 60
        E 0 90 63 60
        E 120 80 3e 00
        E 0 80 4b 00
        E 0 80 57 00
        E 0 80 63 00
        E 120 90 56 60
        E 0 90 62 60
        E 120 80 56 00
        E 0 80 62 00
        E 120 90 48 60
        E 0 90 54 60
        E 0 90 60 60
        E 0 90 74 60
        E 120 80 48 00
        E 0 80 54 00
        E 0 80 60 00
        E 120 90 55 60
        E 0 90 61 60
        E 120 80 55 00
        E 0 80 61 00
        E 120 90 3e 60
        E 0 90 4a 60
        E 0 90 4b 60
        E 0 90 56 60
        E 0 90 57 60
        E 0 90 62 60
        E 0 90 63 60
        E 1920 80 3e 00
        E 0 80 4a 00
        E 0 80 4b 00
        E 0 80 56 00
        E 0 80 57 00
        E 0 80 62 00
        E 0 80 63 00
        E 960 90 3c 60
        E 0 90 49 60
        E 0 90 55 60
        E 0 90 61 60
        E 120 80 74 00
        E 0 80 3c 00
        E 0 80 49 00
        E 0 80 55 00
        E 0 80 61 00
        E 120 90 55 60
        E 0 90 61 60
        E 120 80 55 00
        E 0 80 61 00
        E 0 90 62 60
        E 120 80 62 00
        E 0 90 4b 60
        E 0 90 57 60
        E 0 90 63 60
        E 120 80 4b 00
        E 0 80 57 00
        E 0 80 63 00
        E 120 90 58 60
        E 0 90 64 60
        E 120 80 58 00
        E 0 80 64 00
        E 120 90 3e 60
        E 0 90 4b 60
        E 0 90 57 60
        E 0 90 63 60
        E 120 80 3e 00
        E 0 80 4b 00
        E 0 80 57 00
        E 0 80 63 00
        E 120 90 56 60
        E 0 90 62 60
        E 120 80 56 00
        E 0 80 62 00
        E 120 90 48 60
        E 0 90 54 60
        E 0 90 60 60
        E 120 80 48 00
        E 0 80 54 00
        E 0 80 60 00
        E 120 90 55 60
        E 0 90 61 60
        E 120 80 55 00
        E 0 80 61 00
        E 120 90 3d 60
        E 0 90 4a 60
        E 0 90 56 60
        E 0 90 62 60
        E 120 80 3d 00
        E 0 80 4a 00
        E 0 80 56 00
        E 0 80 62 00
        E 120 90 56 60
        E 0 90 57 60
        E 0 90 62 60
        E 0 90 63 60
        E 600 80 56 00
        E 0 80 57 00
        E 0 80 62 00
        E 0 80 63 00
        E 120 90 3c 60
        E 0 90 49 60
        E 0 90 55 60
        E 0 90 61 60
        E 120 80 3c 00
        E 0 80 49 00
        E 0 80 55 00
        E 0 80 61 00
        E 120 90 55 60
        E 0 90 61 60
        E 120 80 55 00
        E 0 80 61 00
        E 0 90 62 60
        E 120 80 62 00
        E 0 90 4b 60
        E 0 90 57 60
        E 0 90 63 60
        E 120 80 4b 00
        E 0 80 57 00
        E 0 80 63 00
        E 120 90 58 60
        E 0 90 64 60
        E 120 80 58 00
        E 0 80 64 00
        E 120 90 3e 60
        E 0 90 4b 60
        E 0 90 57 60
        E 0 90 63 60
        E 120 80 3e 00
        E 0 80 4b 00
        E 0 80 57 00
        E 0 80 63 00
        E 120 90 56 60
        E 0 90 62 60
        E 120 80 56 00
        E 0 80 62 00
        E 120 90 48 60
        E 0 90 4a 60
        E 0 90 54 60
        E 0 90 56 60
        E 0 90 60 60
        E 0 90 62 60
        E 120 80 48 00
        E 0 80 4a 00
        E 0 80 54 00
        E 0 80 56 00
        E 0 80 60 00
        E 0 80 62 00
        E 120 90 56 60
        E 0 90 57 60
        E 0 90 62 60
        E 0 90 63 60
        E 120 80 56 00
        E 0 80 57 00
        E 0 80 62 00
        E 0 80 63 00
        E 120 90 3e 60
        E 0 90 4a 60
        E 0 90 4b 60
        E 0 90 56 60
        E 0 90 57 60
        E 0 90 62 60
        E 0 90 63 60
        E 480 80 3e 00
        E 0 80 4a 00
        E 0 80 4b 00
        E 360 80 56 00
        E 0 80 57 00
        E 0 80 62 00
        E 0 80 63 00
        E 120 90 3c 60
        E 0 90 49 60
        E 0 90 55 60
        E 0 90 61 60
        E 120 80 3c 00
        E 0 80 49 00
        E 0 80 55 00
        E 0 80 61 00
        E 120 90 55 60
        E 0 90 61 60
        E 120 80 55 00
        E 0 80 61 00
        E 0 90 62 60
        E 120 80 62 00
        E 0 90 4b 60
        E 0 90 57 60
        E 0 90 63 60
        E 120 80 4b 00
        E 0 80 57 00
        E 0 80 63 00
        E 120 90 58 60
        E 0 90 64 60
        E 120 80 58 00
        E 0 80 64 00
        E 120 90 3e 60
        E 0 90 4b 60
        E 0 90 57 60
        E 0 90 63 60
        E 120 80 3e 00
        E 0 80 4b 00
        E 0 80 57 00
        E 0 80 63 00
        E 120 90 56 60
        E 0 90 62 60
        E 120 80 56 00
        E 0 80 62 00
        E 120 90 48 60
        E 0 90 54 60
        E 0 90 60 60
        E 120 80 48 00
        E 0 80 54 00
        E 0 80 60 00
        E 120 90 55 60
        E 0 90 61 60
        E 120 80 55 00
        E 0 80 61 00
        E 120 90 3d 60
        E 0 90 4a 60
        E 0 90 56 60
        E 0 90 62 60
        E 120 80 3d 00
        E 0 80 4a 00
        E 0 80 56 00
        E 0 80 62 00
        E 120 90 56 60
        E 0 90 57 60
        E 0 90 62 60
        E 0 90 63 60
        E 600 80 56 00
        E 0 80 57 00
        E 0 80 62 00
        E 0 80 63 00
        E 120 90 3c 60
        E 0 90 49 60
        E 0 90 55 60
        E 0 90 61 60
        E 120 80 3c 00
        E 0 80 49 00
        E 0 80 55 00
        E 0 80 61 00
        E 120 90 55 60
        E 0 90 61 60
        E 120 80 55 00
        E 0 80 61 00
        E 0 90 62 60
        E 120 80 62 00
        E 0 90 4b 60
        E 0 90 57 60
        E 0 90 63 60
        E 120 80 4b 00
        E 0 80 57 00
        E 0 80 63 00
        E 120 90 58 60
        E 0 90 64 60
        E 120 80 58 00
        E 0 80 64 00
        E 120 90 3e 60
        E 0 90 4b 60
        E 0 90 57 60
        E 0 90 63 60
        E 120 80 3e 00
        E 0 80 4b 00
        E 0 80 57 00
        E 0 80 63 00
        E 120 90 56 60
        E 0 90 62 60
        E 120 80 56 00
        E 0 80 62 00
        E 120 90 48 60
        E 0 90 4a 60
        E 0 90 54 60
        E 0 90 56 60
        E 0 90 60 60
        E 0 90 62 60
        E 120 80 48 00
        E 0 80 4a 00
        E 0 80 54 00
        E 0 80 56 00
        E 0 80 60 00
        E 0 80 62 00
        E 120 90 56 60
        E 0 90 57 60
        E 0 90 62 60
        E 0 90 63 60
        E 120 80 56 00
        E 0 80 57 00
        E 0 80 62 00
        E 0 80 63 00
        E 120 90 3e 60
        E 0 90 4a 60
        E 0 90 4b 60
        E 0 90 56 60
        E 0 90 57 60
        E 0 90 62 60
        E 0 90 63 60
        E 480 80 3e 00
        E 0 80 4a 00
        E 0 80 4b 00
        E 360 80 56 00
        E 0 80 57 00
        E 0 80 62 00
        E 0 80 63 00
        E 120 90 3c 60
        E 0 90 49 60
        E 0 90 55 60
        E 0 90 61 60
        E 120 80 3c 00
        E 0 80 49 00
        E 0 80 55 00
        E 0 80 61 00
        E 120 90 55 60
        E 0 90 61 60
        E 120 80 55 00
        E 0 80 61 00
        E 0 90 62 60
        E 120 80 62 00
        E 0 90 4b 60
        E 0 90 57 60
        E 0 90 63 60
        E 120 80 4b 00
        E 0 80 57 00
        E 0 80 63 00
        E 120 90 58 60
        E 0 90 64 60
        E 120 80 58 00
        E 0 80 64 00
        E 120 90 3e 60
        E 0 90 4b 60
        E 0 90 57 60
        E 0 90 63 60
        E 120 80 3e 00
        E 0 80 4b 00
        E 0 80 57 00
        E 0 80 63 00
        E 120 90 56 60
        E 0 90 62 60
        E 120 80 56 00
        E 0 80 62 00
        E 120 90 48 60
        E 0 90 54 60
        E 0 90 60 60
        E 120 80 48 00
        E 0 80 54 00
        E 0 80 60 00
        E 120 90 55 60
        E 0 90 61 60
        E 120 80 55 00
        E 0 80 61 00
        E 120 90 3d 60
        E 0 90 4a 60
        E 0 90 56 60
        E 0 90 62 60
        E 120 80 3d 00
        E 0 80 4a 00
        E 0 80 56 00
        E 0 80 62 00
        E 120 90 55 60
        E 0 90 56 60
        E 0 90 61 60
        E 0 90 62 60
        E 600 80 55 00
        E 0 80 56 00
        E 0 80 61 00
        E 0 80 62 00
        E 120 90 3c 60
        E 0 90 49 60
        E 0 90 55 60
        E 0 90 61 60
        E 120 80 3c 00
        E 0 80 49 00
        E 0 80 55 00
        E 0 80 61 00
        E 120 90 55 60
        E 0 90 61 60
        E 120 80 55 00
        E 0 80 61 00
        E 0 90 62 60
        E 120 80 62 00
        E 0 90 4b 60
        E 0 90 57 60
        E 0 90 63 60
        E 120 80 4b 00
        E 0 80 57 00
        E 0 80 63 00
        E 120 90 58 60
        E 0 90 64 60
        E 120 80 58 00
        E 0 80 64 00
        E 120 90 3e 60
        E 0 90 4b 60
        E 0 90 57 60
        E 0 90 63 60
        E 120 80 3e 00
        E 0 80 4b 00
        E 0 80 57 00
        E 0 80 63 00
        E 120 90 56 60
        E 0 90 62 60
        E 120 80 56 00
        E 0 80 62 00
        E 120 90 48 60
        E 0 90 4a 60
        E 0 90 54 60
        E 0 90 56 60
        E 0 90 60 60
        E 0 90 62 60
        E 120 80 48 00
        E 0 80 4a 00
        E 0 80 54 00
        E 0 80 56 00
        E 0 80 60 00
        E 0 80 62 00
        E 120 90 55 60
        E 0 90 56 60
        E 0 90 61 60
        E 0 90 62 60
        E 120 80 55 00
        E 0 80 56 00
        E 0 80 61 00
        E 0 80 62 00
        E 120 90 3e 60
        E 0 90 49 60
        E 0 90 4a 60
        E 0 90 55 60
        E 0 90 56 60
        E 0 90 61 60
        E 0 90 62 60
        E 480 80 3e 00
        E 0 80 49 00
        E 0 80 4a 00
        E 360 80 55 00
        E 0 80 56 00
        E 0 80 61 00
        E 0 80 62 00
        E 120 90 3c 60
        E 0 90 49 60
        E 0 90 55 60
        E 0 90 61 60
        E 0 90 74 60
        E 120 80 3c 00
        E 0 80 49 00
        E 0 80 55 00
        E 0 80 61 00
        E 120 90 55 60
        E 0 90 61 60
        E 120 80 55 00
        E 0 80 61 00
        E 0 90 62 60
        E 120 80 62 00
        E 0 90 4b 60
        E 0 90 57 60
        E 0 90 63 60
        E 120 80 4b 00
        E 0 80 57 00
        E 0 80 63 00
        E 120 90 58 60
        E 0 90 64 60
        E 120 80 58 00
        E 0 80 64 00
        E 120 90 3e 60
        E 0 90 4b 60
        E 0 90 57 60
        E 0 90 63 60
        E 120 80 3e 00
        E 0 80 4b 00
        E 0 80 57 00
        E 0 80 63 00
        E 120 90 56 60
        E 0 90 62 60
        E 120 80 56 00
        E 0 80 62 00
        E 120 90 48 60
        E 0 90 54 60
        E 0 90 60 60
        E 120 80 48 00
        E 0 80 54 00
        E 0 80 60 00
        E 120 90 55 60
        E 0 90 61 60
        E 120 80 55 00
        E 0 80 61 00
        E 120 90 3d 60
        E 0 90 4a 60
        E 0 90 56 60
        E 0 90 62 60
        E 120 80 3d 00
        E 0 80 4a 00
        E 0 80 56 00
        E 0 80 62 00
        E 120 90 55 60
        E 0 90 56 60
        E 0 90 61 60
        E 0 90 62 60
        E 600 80 55 00
        E 0 80 56 00
        E 0 80 61 00
        E 0 80 62 00
        E 120 90 3c 60
        E 0 90 49 60
        E 0 90 55 60
        E 0 90 61 60
        E 120 80 74 00
        E 0 80 3c 00
        E 0 80 49 00
        E 0 80 55 00
        E 0 80 61 00
        E 120 90 55 60
        E 0 90 61 60
        E 120 80 55 00
        E 0 80 61 00
        E 0 90 62 60
        E 120 80 62 00
        E 0 90 4b 60
        E 0 90 57 60
        E 0 90 63 60
        E 120 80 4b 00
        E 0 80 57 00
        E 0 80 63 00
        E 120 90 58 60
        E 0 90 64 60
        E 120 80 58 00
        E 0 80 64 00
        E 120 90 3e 60
        E 0 90 4b 60
        E 0 90 57 60
        E 0 90 63 60
        E 120 80 3e 00
        E 0 80 4b 00
        E 0 80 57 00
        E 0 80 63 00
        E 120 90 56 60
        E 0 90 62 60
        E 120 80 56 00
        E 0 80 62 00
        E 120 90 48 60
        E 0 90 4a 60
        E 0 90 54 60
        E 0 90 56 60
        E 0 90 60 60
        E 0 90 62 60
        E 120 80 48 00
        E 0 80 4a 00
        E 0 80 54 00
        E 0 80 56 00
        E 0 80 60 00
        E 0 80 62 00
        E 120 90 55 60
        E 0 90 56 60
        E 0 90 61 60
        E 0 90 62 60
        E 120 80 55 00
        E 0 80 56 00
        E 0 80 61 00
        E 0 80 62 00
        E 120 90 3e 60
        E 0 90 49 60
        E 0 90 4a 60
        E 0 90 55 60
        E 0 90 56 60
        E 0 90 61 60
        E 0 90 62 60
        E 480 80 3e 00
        E 0 80 49 00
        E 0 80 4a 00
        E 360 80 55 00
        E 0 80 56 00
        E 0 80 61 00
        E 0 80 62 00
        E 120 90 3c 60
        E 0 90 49 60
        E 0 90 55 60
        E 0 90 61 60
        E 120 80 3c 00
        E 0 80 49 00
        E 0 80 55 00
        E 0 80 61 00
        E 120 90 55 60
        E 0 90 61 60
        E 120 80 55 00
        E 0 80 61 00
        E 0 90 62 60
        E 120 80 62 00
        E 0 90 4b 60
        E 0 90 57 60
        E 0 90 63 60
        E 120 80 4b 00
        E 0 80 57 00
        E 0 80 63 00
        E 120 90 58 60
        E 0 90 64 60
        E 120 80 58 00
        E 0 80 64 00
        E 120 90 3e 60
        E 0 90 4b 60
        E 0 90 57 60
        E 0 90 63 60
        E 120 80 3e 00
        E 0 80 4b 00
        E 0 80 57 00
        E 0 80 63 00
        E 120 90 56 60
        E 0 90 62 60
        E 120 80 56 00
        E 0 80 62 00
        E 120 90 48 60
        E 0 90 54 60
        E 0 90 60 60
        E 120 80 48 00
        E 0 80 54 00
        E 0 80 60 00
        E 120 90 55 60
        E 0 90 61 60
        E 120 80 55 00
        E 0 80 61 00
        E 120 90 3d 60
        E 0 90 4a 60
        E 0 90 56 60
        E 0 90 62 60
        E 120 80 3d 00
        E 0 80 4a 00
        E 0 80 56 00
        E 0 80 62 00
        E 120 90 56 60
        E 0 90 57 60
        E 0 90 62 60
        E 0 90 63 60
        E 600 80 56 00
        E 0 80 57 00
        E 0 80 62 00
        E 0 80 63 00
        E 120 90 3c 60
        E 0 90 49 60
        E 0 90 55 60
        E 0 90 61 60
        E 120 80 3c 00
        E 0 80 49 00
        E 0 80 55 00
        E 0 80 61 00
        E 120 90 55 60
        E 0 90 61 60
        E 120 80 55 00
        E 0 80 61 00
        E 0 90 62 60
        E 120 80 62 00
        E 0 90 4b 60
        E 0 90 57 60
        E 0 90 63 60
        E 120 80 4b 00
        E 0 80 57 00
        E 0 80 63 00
        E 120 90 58 60
        E 0 90 64 60
        E 120 80 58 00
        E 0 80 64 00
        E 120 90 3e 60
        E 0 90 4b 60
        E 0 90 57 60
        E 0 90 63 60
        E 120 80 3e 00
        E 0 80 4b 00
        E 0 80 57 00
        E 0 80 63 00
        E 120 90 56 60
        E 0 90 62 60
        E 120 80 56 00
        E 0 80 62 00
        E 120 90 48 60
        E 0 90 4a 60
        E 0 90 54 60
        E 0 90 56 60
        E 0 90 60 60
        E 0 90 62 60
        E 120 80 48 00
        E 0 80 4a 00
        E 0 80 54 00
        E 0 80 56 00
        E 0 80 60 00
        E 0 80 62 00
        E 120 90 56 60
        E 0 90 57 60
        E 0 90 62 60
        E 0 90 63 60
        E 120 80 56 00
        E 0 80 57 00
        E 0 80 62 00
        E 0 80 63 00
        E 120 90 3e 60
        E 0 90 4a 60
        E 0 90 4b 60
        E 0 90 56 60
        E 0 90 57 60
        E 0 90 62 60
        E 0 90 63 60
        E 480 80 3e 00
        E 0 80 4a 00
        E 0 80 4b 00
        E 360 80 56 00
        E 0 80 57 00
        E 0 80 62 00
        E 0 80 63 00
        E 120 90 3c 60
        E 0 90 49 60
        E 0 90 55 60
        E 0 90 61 60
        E 120 80 3c 00
        E 0 80 49 00
        E 0 80 55 00
        E 0 80 61 00
        E 120 90 55 60
        E 0 90 61 60
        E 120 80 55 00
        E 0 80 61 00
        E 0 90 62 60
        E 120 80 62 00
        E 0 90 4b 60
        E 0 90 57 60
        E 0 90 63 60
        E 120 80 4b 00
        E 0 80 57 00
        E 0 80 63 00
        E 120 90 58 60
        E 0 90 64 60
        E 120 80 58 00
        E 0 80 64 00
        E 120 90 3e 60
        E 0 90 4b 60
        E 0 90 57 60
        E 0 90 63 60
        E 120 80 3e 00
        E 0 80 4b 00
        E 0 80 57 00
        E 0 80 63 00
        E 120 90 56 60
        E 0 90 62 60
        E 120 80 56 00
        E 0 80 62 00
        E 120 90 48 60
        E 0 90 54 60
        E 0 90 60 60
        E 120 80 48 00
        E 0 80 54 00
        E 0 80 60 00
        E 120 90 55 60
        E 0 90 61 60
        E 120 80 55 00
        E 0 80 61 00
        E 120 90 3d 60
        E 0 90 4a 60
        E 0 90 56 60
        E 0 90 62 60
        E 120 80 3d 00
        E 0 80 4a 00
        E 0 80 56 00
        E 0 80 62 00
        E 120 90 56 60
        E 0 90 57 60
        E 0 90 62 60
        E 0 90 63 60
        E 600 80 56 00
        E 0 80 57 00
        E 0 80 62 00
        E 0 80 63 00
        E 120 90 3c 60
        E 0 90 49 60
        E 0 90 55 60
        E 0 90 61 60
        E 0 90 74 60
        E 120 80 3c 00
        E 0 80 49 00
        E 0 80 55 00
        E 0 80 61 00
        E 120 90 55 60
        E 0 90 61 60
        E 120 80 55 00
        E 0 80 61 00
        E 0 90 62 60
        E 120 80 62 00
        E 0 90 4b 60
        E 0 90 57 60
        E 0 90 63 60
        E 120 80 4b 00
        E 0 80 57 00
        E 0 80 63 00
        E 120 90 58 60
        E 0 90 64 60
        E 120 80 58 00
        E 0 80 64 00
        E 120 90 3e 60
        E 0 90 4b 60
        E 0 90 57 60
        E 0 90 63 60
        E 120 80 3e 00
        E 0 80 4b 00
        E 0 80 57 00
        E 0 80 63 00
        E 120 90 56 60
        E 0 90 62 60
        E 120 80 56 00
        E 0 80 62 00
        E 120 90 48 60
        E 0 90 4a 60
        E 0 90 54 60
        E 0 90 56 60
        E 0 90 60 60
        E 0 90 62 60
        E 120 80 48 00
        E 0 80 4a 00
        E 0 80 54 00
        E 0 80 56 00
        E 0 80 60 00
        E 0 80 62 00
        E 120 90 56 60
        E 0 90 57 60
        E 0 90 62 60
        E 0 90 63 60
        E 120 80 56 00
        E 0 80 57 00
        E 0 80 62 00
        E 0 80 63 00
        E 120 90 3e 60
        E 0 90 4a 60
        E 0 90 4b 60
        E 0 90 56 60
        E 0 90 57 60
        E 0 90 62 60
        E 0 90 63 60
        E 840 80 3e 00
        E 0 80 4a 00
        E 0 80 4b 00
        E 0 80 56 00
        E 0 80 57 00
        E 0 80 62 00
        E 0 80 63 00
        E 120 80 74 00
        <X 360 0
          /wFbaWRsZV0=
        >
        <X 6840 0
          /wFbbWVsbG93XQ==
        >
        E 480 90 3c 60
        E 0 90 49 60
        E 0 90 55 60
        E 0 90 61 60
        E 120 80 3c 00
        E 0 80 49 00
        E 0 80 55 00
        E 0 80 61 00
        E 120 90 55 60
        E 0 90 61 60
        E 120 80 55 00
        E 0 80 61 00
        E 0 90 62 60
        E 120 80 62 00
        E 0 90 4b 60
        E 0 90 57 60
        E 0 90 63 60
        E 120 80 4b 00
        E 0 80 57 00
        E 0 80 63 00
        E 120 90 58 60
        E 0 90 64 60
        E 120 80 58 00
        E 0 80 64 00
        E 120 90 3e 60
        E 0 90 4b 60
        E 0 90 57 60
        E 0 90 63 60
        E 120 80 3e 00
        E 0 80 4b 00
        E 0 80 57 00
        E 0 80 63 00
        E 120 90 56 60
        E 0 90 62 60
        E 120 80 56 00
        E 0 80 62 00
        E 120 90 48 60
        E 0 90 54 60
        E 0 90 60 60
        E 120 80 48 00
        E 0 80 54 00
        E 0 80 60 00
        E 120 90 55 60
        E 0 90 61 60
        E 120 80 55 00
        E 0 80 61 00
        E 120 90 3d 60
        E 0 90 4a 60
        E 0 90 56 60
        E 0 90 62 60
        E 120 80 3d 00
        E 0 80 4a 00
        E 0 80 56 00
        E 0 80 62 00
        E 120 90 56 60
        E 0 90 57 60
        E 0 90 62 60
        E 0 90 63 60
        E 600 80 56 00
        E 0 80 57 00
        E 0 80 62 00
        E 0 80 63 00
        E 120 90 3c 60
        E 0 90 49 60
        E 0 90 55 60
        E 0 90 61 60
        E 120 80 3c 00
        E 0 80 49 00
        E 0 80 55 00
        E 0 80 61 00
        E 120 90 55 60
        E 0 90 61 60
        E 120 80 55 00
        E 0 80 61 00
        E 0 90 62 60
        E 120 80 62 00
        E 0 90 4b 60
        E 0 90 57 60
        E 0 90 63 60
        E 120 80 4b 00
        E 0 80 57 00
        E 0 80 63 00
        E 120 90 58 60
        E 0 90 64 60
        E 120 80 58 00
        E 0 80 64 00
        E 120 90 3e 60
        E 0 90 4b 60
        E 0 90 57 60
        E 0 90 63 60
        E 120 80 3e 00
        E 0 80 4b 00
        E 0 80 57 00
        E 0 80 63 00
        E 120 90 56 60
        E 0 90 62 60
        E 120 80 56 00
        E 0 80 62 00
        E 120 90 48 60
        E 0 90 4a 60
        E 0 90 54 60
        E 0 90 56 60
        E 0 90 60 60
        E 0 90 62 60
        E 120 80 48 00
        E 0 80 4a 00
        E 0 80 54 00
        E 0 80 56 00
        E 0 80 60 00
        E 0 80 62 00
        E 120 90 56 60
        E 0 90 57 60
        E 0 90 62 60
        E 0 90 63 60
        E 120 80 56 00
        E 0 80 57 00
        E 0 80 62 00
        E 0 80 63 00
        E 120 90 3e 60
        E 0 90 4a 60
        E 0 90 4b 60
        E 0 90 56 60
        E 0 90 57 60
        E 0 90 62 60
        E 0 90 63 60
        E 480 80 3e 00
        E 0 80 4a 00
        E 0 80 4b 00
        E 360 80 56 00
        E 0 80 57 00
        E 0 80 62 00
        E 0 80 63 00
        E 120 90 3c 60
        E 0 90 49 60
        E 0 90 55 60
        E 0 90 61 60
        E 120 80 3c 00
        E 0 80 49 00
        E 0 80 55 00
        E 0 80 61 00
        E 120 90 55 60
        E 0 90 61 60
        E 120 80 55 00
        E 0 80 61 00
        E 0 90 62 60
        E 120 80 62 00
        E 0 90 4b 60
        E 0 90 57 60
        E 0 90 63 60
        E 120 80 4b 00
        E 0 80 57 00
        E 0 80 63 00
        E 120 90 58 60
        E 0 90 64 60
        E 120 80 58 00
        E 0 80 64 00
        E 120 90 3e 60
        E 0 90 4b 60
        E 0 90 57 60
        E 0 90 63 60
        E 120 80 3e 00
        E 0 80 4b 00
        E 0 80 57 00
        E 0 80 63 00
        E 120 90 56 60
        E 0 90 62 60
        E 120 80 56 00
        E 0 80 62 00
        E 120 90 48 60
        E 0 90 54 60
        E 0 90 60 60
        E 120 80 48 00
        E 0 80 54 00
        E 0 80 60 00
        E 120 90 55 60
        E 0 90 61 60
        E 120 80 55 00
        E 0 80 61 00
        E 120 90 3d 60
        E 0 90 4a 60
        E 0 90 56 60
        E 0 90 62 60
        E 120 80 3d 00
        E 0 80 4a 00
        E 0 80 56 00
        E 0 80 62 00
        E 120 90 56 60
        E 0 90 57 60
        E 0 90 62 60
        E 0 90 63 60
        E 600 80 56 00
        E 0 80 57 00
        E 0 80 62 00
        E 0 80 63 00
        E 120 90 3c 60
        E 0 90 49 60
        E 0 90 55 60
        E 0 90 61 60
        E 0 90 74 60
        E 120 80 3c 00
        E 0 80 49 00
        E 0 80 55 00
        E 0 80 61 00
        E 120 90 55 60
        E 0 90 61 60
        E 120 80 55 00
        E 0 80 61 00
        E 0 90 62 60
        E 120 80 62 00
        E 0 90 4b 60
        E 0 90 57 60
        E 0 90 63 60
        E 120 80 4b 00
        E 0 80 57 00
        E 0 80 63 00
        E 120 90 58 60
        E 0 90 64 60
        E 120 80 58 00
        E 0 80 64 00
        E 120 90 3e 60
        E 0 90 4b 60
        E 0 90 57 60
        E 0 90 63 60
        E 120 80 3e 00
        E 0 80 4b 00
        E 0 80 57 00
        E 0 80 63 00
        E 120 90 56 60
        E 0 90 62 60
        E 120 80 56 00
        E 0 80 62 00
        E 120 90 48 60
        E 0 90 4a 60
        E 0 90 54 60
        E 0 90 56 60
        E 0 90 60 60
        E 0 90 62 60
        E 120 80 48 00
        E 0 80 4a 00
        E 0 80 54 00
        E 0 80 56 00
        E 0 80 60 00
        E 0 80 62 00
        E 120 90 56 60
        E 0 90 57 60
        E 0 90 62 60
        E 0 90 63 60
        E 120 80 56 00
        E 0 80 57 00
        E 0 80 62 00
        E 0 80 63 00
        E 120 90 3e 60
        E 0 90 4a 60
        E 0 90 4b 60
        E 0 90 56 60
        E 0 90 57 60
        E 0 90 62 60
        E 0 90 63 60
        E 480 80 3e 00
        E 0 80 4a 00
        E 0 80 4b 00
        E 360 80 56 00
        E 0 80 57 00
        E 0 80 62 00
        E 0 80 63 00
        E 120 90 3c 60
        E 0 90 49 60
        E 0 90 55 60
        E 0 90 61 60
        E 120 80 74 00
        E 0 80 3c 00
        E 0 80 49 00
        E 0 80 55 00
        E 0 80 61 00
        E 120 90 55 60
        E 0 90 61 60
        E 120 80 55 00
        E 0 80 61 00
        E 0 90 62 60
        E 120 80 62 00
        E 0 90 4b 60
        E 0 90 57 60
        E 0 90 63 60
        E 120 80 4b 00
        E 0 80 57 00
        E 0 80 63 00
        E 120 90 58 60
        E 0 90 64 60
        E 120 80 58 00
        E 0 80 64 00
        E 120 90 3e 60
        E 0 90 4b 60
        E 0 90 57 60
        E 0 90 63 60
        E 120 80 3e 00
        E 0 80 4b 00
        E 0 80 57 00
        E 0 80 63 00
        E 120 90 56 60
        E 0 90 62 60
        E 120 80 56 00
        E 0 80 62 00
        E 120 90 48 60
        E 0 90 54 60
        E 0 90 60 60
        E 120 80 48 00
        E 0 80 54 00
        E 0 80 60 00
        E 120 90 55 60
        E 0 90 61 60
        E 120 80 55 00
        E 0 80 61 00
        E 120 90 3d 60
        E 0 90 4a 60
        E 0 90 56 60
        E 0 90 62 60
        E 120 80 3d 00
        E 0 80 4a 00
        E 0 80 56 00
        E 0 80 62 00
        E 120 90 56 60
        E 0 90 57 60
        E 0 90 62 60
        E 0 90 63 60
        E 600 80 56 00
        E 0 80 57 00
        E 0 80 62 00
        E 0 80 63 00
        E 120 90 3c 60
        E 0 90 49 60
        E 0 90 55 60
        E 0 90 61 60
        E 120 80 3c 00
        E 0 80 49 00
        E 0 80 55 00
        E 0 80 61 00
        E 120 90 55 60
        E 0 90 61 60
        E 120 80 55 00
        E 0 80 61 00
        E 0 90 62 60
        E 120 80 62 00
        E 0 90 4b 60
        E 0 90 57 60
        E 0 90 63 60
        E 120 80 4b 00
        E 0 80 57 00
        E 0 80 63 00
        E 120 90 58 60
        E 0 90 64 60
        E 120 80 58 00
        E 0 80 64 00
        E 120 90 3e 60
        E 0 90 4b 60
        E 0 90 57 60
        E 0 90 63 60
        E 120 80 3e 00
        E 0 80 4b 00
        E 0 80 57 00
        E 0 80 63 00
        E 120 90 56 60
        E 0 90 62 60
        E 120 80 56 00
        E 0 80 62 00
        E 120 90 48 60
        E 0 90 4a 60
        E 0 90 54 60
        E 0 90 56 60
        E 0 90 60 60
        E 0 90 62 60
        E 120 80 48 00
        E 0 80 4a 00
        E 0 80 54 00
        E 0 80 56 00
        E 0 80 60 00
        E 0 80 62 00
        E 120 90 56 60
        E 0 90 57 60
        E 0 90 62 60
        E 0 90 63 60
        E 120 80 56 00
        E 0 80 57 00
        E 0 80 62 00
        E 0 80 63 00
        E 120 90 3e 60
        E 0 90 4a 60
        E 0 90 4b 60
        E 0 90 56 60
        E 0 90 57 60
        E 0 90 62 60
        E 0 90 63 60
        E 480 80 3e 00
        E 0 80 4a 00
        E 0 80 4b 00
        E 360 80 56 00
        E 0 80 57 00
        E 0 80 62 00
        E 0 80 63 00
        E 120 90 3c 60
        E 0 90 49 60
        E 0 90 55 60
        E 0 90 61 60
        E 120 80 3c 00
        E 0 80 49 00
        E 0 80 55 00
        E 0 80 61 00
        E 120 90 55 60
        E 0 90 61 60
        E 120 80 55 00
        E 0 80 61 00
        E 0 90 62 60
        E 120 80 62 00
        E 0 90 4b 60
        E 0 90 57 60
        E 0 90 63 60
        E 120 80 4b 00
        E 0 80 57 00
        E 0 80 63 00
        E 120 90 58 60
        E 0 90 64 60
        E 120 80 58 00
        E 0 80 64 00
        E 120 90 3e 60
        E 0 90 4b 60
        E 0 90 57 60
        E 0 90 63 60
        E 120 80 3e 00
        E 0 80 4b 00
        E 0 80 57 00
        E 0 80 63 00
        E 120 90 56 60
        E 0 90 62 60
        E 120 80 56 00
        E 0 80 62 00
        E 120 90 48 60
        E 0 90 54 60
        E 0 90 60 60
        E 120 80 48 00
        E 0 80 54 00
        E 0 80 60 00
        E 120 90 55 60
        E 0 90 61 60
        E 120 80 55 00
        E 0 80 61 00
        E 120 90 3d 60
        E 0 90 4a 60
        E 0 90 56 60
        E 0 90 62 60
        E 120 80 3d 00
        E 0 80 4a 00
        E 0 80 56 00
        E 0 80 62 00
        E 120 90 56 60
        E 0 90 57 60
        E 0 90 62 60
        E 0 90 63 60
        E 600 80 56 00
        E 0 80 57 00
        E 0 80 62 00
        E 0 80 63 00
        E 120 90 3c 60
        E 0 90 49 60
        E 0 90 55 60
        E 0 90 61 60
        E 0 90 74 60
        E 120 80 3c 00
        E 0 80 49 00
        E 0 80 55 00
        E 0 80 61 00
        E 120 90 55 60
        E 0 90 61 60
        E 120 80 55 00
        E 0 80 61 00
        E 0 90 62 60
        E 120 80 62 00
        E 0 90 4b 60
        E 0 90 57 60
        E 0 90 63 60
        E 120 80 4b 00
        E 0 80 57 00
        E 0 80 63 00
        E 120 90 58 60
        E 0 90 64 60
        E 120 80 58 00
        E 0 80 64 00
        E 120 90 3e 60
        E 0 90 4b 60
        E 0 90 57 60
        E 0 90 63 60
        E 120 80 3e 00
        E 0 80 4b 00
        E 0 80 57 00
        E 0 80 63 00
        E 120 90 56 60
        E 0 90 62 60
        E 120 80 56 00
        E 0 80 62 00
        E 120 90 48 60
        E 0 90 4a 60
        E 0 90 54 60
        E 0 90 56 60
        E 0 90 60 60
        E 0 90 62 60
        E 120 80 48 00
        E 0 80 4a 00
        E 0 80 54 00
        E 0 80 56 00
        E 0 80 60 00
        E 0 80 62 00
        E 120 90 56 60
        E 0 90 57 60
        E 0 90 62 60
        E 0 90 63 60
        E 120 80 56 00
        E 0 80 57 00
        E 0 80 62 00
        E 0 80 63 00
        E 120 90 3e 60
        E 0 90 4a 60
        E 0 90 4b 60
        E 0 90 56 60
        E 0 90 57 60
        E 0 90 62 60
        E 0 90 63 60
        E 480 80 3e 00
        E 0 80 4a 00
        E 0 80 4b 00
        E 360 80 56 00
        E 0 80 57 00
        E 0 80 62 00
        E 0 80 63 00
        E 120 80 74 00
        E 0 90 3c 60
        E 0 90 49 60
        E 0 90 55 60
        E 0 90 61 60
        E 120 80 3c 00
        E 0 80 49 00
        E 0 80 55 00
        E 0 80 61 00
        E 120 90 55 60
        E 0 90 61 60
        E 120 80 55 00
        E 0 80 61 00
        E 0 90 62 60
        E 120 80 62 00
        E 0 90 4b 60
        E 0 90 57 60
        E 0 90 63 60
        E 120 80 4b 00
        E 0 80 57 00
        E 0 80 63 00
        E 120 90 58 60
        E 0 90 64 60
        E 120 80 58 00
        E 0 80 64 00
        E 120 90 3e 60
        E 0 90 4b 60
        E 0 90 57 60
        E 0 90 63 60
        E 120 80 3e 00
        E 0 80 4b 00
        E 0 80 57 00
        E 0 80 63 00
        E 120 90 56 60
        E 0 90 62 60
        E 120 80 56 00
        E 0 80 62 00
        E 120 90 48 60
        E 0 90 54 60
        E 0 90 60 60
        E 120 80 48 00
        E 0 80 54 00
        E 0 80 60 00
        E 120 90 55 60
        E 0 90 61 60
        E 120 80 55 00
        E 0 80 61 00
        E 120 90 3d 60
        E 0 90 4a 60
        E 0 90 56 60
        E 0 90 62 60
        E 120 80 3d 00
        E 0 80 4a 00
        E 0 80 56 00
        E 0 80 62 00
        E 120 90 55 60
        E 0 90 56 60
        E 0 90 61 60
        E 0 90 62 60
        E 600 80 55 00
        E 0 80 56 00
        E 0 80 61 00
        E 0 80 62 00
        E 120 90 3c 60
        E 0 90 49 60
        E 0 90 55 60
        E 0 90 61 60
        E 120 80 3c 00
        E 0 80 49 00
        E 0 80 55 00
        E 0 80 61 00
        E 120 90 55 60
        E 0 90 61 60
        E 120 80 55 00
        E 0 80 61 00
        E 0 90 62 60
        E 120 80 62 00
        E 0 90 4b 60
        E 0 90 57 60
        E 0 90 63 60
        E 120 80 4b 00
        E 0 80 57 00
        E 0 80 63 00
        E 120 90 58 60
        E 0 90 64 60
        E 120 80 58 00
        E 0 80 64 00
        E 120 90 3e 60
        E 0 90 4b 60
        E 0 90 57 60
        E 0 90 63 60
        E 120 80 3e 00
        E 0 80 4b 00
        E 0 80 57 00
        E 0 80 63 00
        E 120 90 56 60
        E 0 90 62 60
        E 120 80 56 00
        E 0 80 62 00
        E 120 90 48 60
        E 0 90 4a 60
        E 0 90 54 60
        E 0 90 56 60
        E 0 90 60 60
        E 0 90 62 60
        E 120 80 48 00
        E 0 80 4a 00
        E 0 80 54 00
        E 0 80 56 00
        E 0 80 60 00
        E 0 80 62 00
        E 120 90 55 60
        E 0 90 56 60
        E 0 90 61 60
        E 0 90 62 60
        E 120 80 55 00
        E 0 80 56 00
        E 0 80 61 00
        E 0 80 62 00
        E 120 90 3e 60
        E 0 90 49 60
        E 0 90 4a 60
        E 0 90 55 60
        E 0 90 56 60
        E 0 90 61 60
        E 0 90 62 60
        E 480 80 3e 00
        E 0 80 49 00
        E 0 80 4a 00
        E 360 80 55 00
        E 0 80 56 00
        E 0 80 61 00
        E 0 80 62 00
        E 120 90 3c 60
        E 0 90 49 60
        E 0 90 55 60
        E 0 90 61 60
        E 120 80 3c 00
        E 0 80 49 00
        E 0 80 55 00
        E 0 80 61 00
        E 120 90 55 60
        E 0 90 61 60
        E 120 80 55 00
        E 0 80 61 00
        E 0 90 62 60
        E 120 80 62 00
        E 0 90 4b 60
        E 0 90 57 60
        E 0 90 63 60
        E 120 80 4b 00
        E 0 80 57 00
        E 0 80 63 00
        E 120 90 58 60
        E 0 90 64 60
        E 120 80 58 00
        E 0 80 64 00
        E 120 90 3e 60
        E 0 90 4b 60
        E 0 90 57 60
        E 0 90 63 60
        E 120 80 3e 00
        E 0 80 4b 00
        E 0 80 57 00
        E 0 80 63 00
        E 120 90 56 60
        E 0 90 62 60
        E 120 80 56 00
        E 0 80 62 00
        E 120 90 48 60
        E 0 90 54 60
        E 0 90 60 60
        E 120 80 48 00
        E 0 80 54 00
        E 0 80 60 00
        E 120 90 55 60
        E 0 90 61 60
        E 120 80 55 00
        E 0 80 61 00
        E 120 90 3d 60
        E 0 90 4a 60
        E 0 90 56 60
        E 0 90 62 60
        E 120 80 3d 00
        E 0 80 4a 00
        E 0 80 56 00
        E 0 80 62 00
        E 120 90 55 60
        E 0 90 56 60
        E 0 90 61 60
        E 0 90 62 60
        E 600 80 55 00
        E 0 80 56 00
        E 0 80 61 00
        E 0 80 62 00
        E 120 90 3c 60
        E 0 90 49 60
        E 0 90 55 60
        E 0 90 61 60
        E 120 80 3c 00
        E 0 80 49 00
        E 0 80 55 00
        E 0 80 61 00
        E 120 90 55 60
        E 0 90 61 60
        E 120 80 55 00
        E 0 80 61 00
        E 0 90 62 60
        E 120 80 62 00
        E 0 90 4b 60
        E 0 90 57 60
        E 0 90 63 60
        E 120 80 4b 00
        E 0 80 57 00
        E 0 80 63 00
        E 120 90 58 60
        E 0 90 64 60
        E 120 80 58 00
        E 0 80 64 00
        E 120 90 3e 60
        E 0 90 4b 60
        E 0 90 57 60
        E 0 90 63 60
        E 120 80 3e 00
        E 0 80 4b 00
        E 0 80 57 00
        E 0 80 63 00
        E 120 90 56 60
        E 0 90 62 60
        E 120 80 56 00
        E 0 80 62 00
        E 120 90 48 60
        E 0 90 4a 60
        E 0 90 54 60
        E 0 90 56 60
        E 0 90 60 60
        E 0 90 62 60
        E 120 80 48 00
        E 0 80 4a 00
        E 0 80 54 00
        E 0 80 56 00
        E 0 80 60 00
        E 0 80 62 00
        E 120 90 55 60
        E 0 90 56 60
        E 0 90 61 60
        E 0 90 62 60
        E 120 80 55 00
        E 0 80 56 00
        E 0 80 61 00
        E 0 80 62 00
        E 120 90 3e 60
        E 0 90 49 60
        E 0 90 4a 60
        E 0 90 55 60
        E 0 90 56 60
        E 0 90 61 60
        E 0 90 62 60
        E 480 80 3e 00
        E 0 80 49 00
        E 0 80 4a 00
        E 360 80 55 00
        E 0 80 56 00
        E 0 80 61 00
        E 0 80 62 00
        E 120 90 3c 60
        E 0 90 49 60
        E 0 90 55 60
        E 0 90 61 60
        E 120 80 3c 00
        E 0 80 49 00
        E 0 80 55 00
        E 0 80 61 00
        E 120 90 55 60
        E 0 90 61 60
        E 120 80 55 00
        E 0 80 61 00
        E 0 90 62 60
        E 120 80 62 00
        E 0 90 4b 60
        E 0 90 57 60
        E 0 90 63 60
        E 120 80 4b 00
        E 0 80 57 00
        E 0 80 63 00
        E 120 90 58 60
        E 0 90 64 60
        E 120 80 58 00
        E 0 80 64 00
        E 120 90 3e 60
        E 0 90 4b 60
        E 0 90 57 60
        E 0 90 63 60
        E 120 80 3e 00
        E 0 80 4b 00
        E 0 80 57 00
        E 0 80 63 00
        E 120 90 56 60
        E 0 90 62 60
        E 120 80 56 00
        E 0 80 62 00
        E 120 90 48 60
        E 0 90 54 60
        E 0 90 60 60
        E 120 80 48 00
        E 0 80 54 00
        E 0 80 60 00
        E 120 90 55 60
        E 0 90 61 60
        E 120 80 55 00
        E 0 80 61 00
        E 120 90 3d 60
        E 0 90 4a 60
        E 0 90 56 60
        E 0 90 62 60
        E 120 80 3d 00
        E 0 80 4a 00
        E 0 80 56 00
        E 0 80 62 00
        E 120 90 56 60
        E 0 90 57 60
        E 0 90 62 60
        E 0 90 63 60
        E 600 80 56 00
        E 0 80 57 00
        E 0 80 62 00
        E 0 80 63 00
        E 120 90 3c 60
        E 0 90 49 60
        E 0 90 55 60
        E 0 90 61 60
        e 0 90 74 60
        E 120 80 3c 00
        E 0 80 49 00
        E 0 80 55 00
        E 0 80 61 00
        E 120 90 55 60
        E 0 90 61 60
        E 120 80 55 00
        E 0 80 61 00
        E 0 90 62 60
        E 120 80 62 00
        E 0 90 4b 60
        E 0 90 57 60
        E 0 90 63 60
        E 120 80 4b 00
        E 0 80 57 00
        E 0 80 63 00
        E 120 90 58 60
        E 0 90 64 60
        E 120 80 58 00
        E 0 80 64 00
        E 120 90 3e 60
        E 0 90 4b 60
        E 0 90 57 60
        E 0 90 63 60
        E 120 80 3e 00
        E 0 80 4b 00
        E 0 80 57 00
        E 0 80 63 00
        E 120 90 56 60
        E 0 90 62 60
        E 120 80 56 00
        E 0 80 62 00
        E 120 90 48 60
        E 0 90 4a 60
        E 0 90 54 60
        E 0 90 56 60
        E 0 90 60 60
        E 0 90 62 60
        E 120 80 48 00
        E 0 80 4a 00
        E 0 80 54 00
        E 0 80 56 00
        E 0 80 60 00
        E 0 80 62 00
        E 120 90 56 60
        E 0 90 57 60
        E 0 90 62 60
        E 0 90 63 60
        E 120 80 56 00
        E 0 80 57 00
        E 0 80 62 00
        E 0 80 63 00
        E 120 90 3e 60
        E 0 90 4a 60
        E 0 90 4b 60
        E 0 90 56 60
        E 0 90 57 60
        E 0 90 62 60
        E 0 90 63 60
        E 480 80 3e 00
        E 0 80 4a 00
        E 0 80 4b 00
        E 360 80 56 00
        E 0 80 57 00
        E 0 80 62 00
        E 0 80 63 00
        e 120 80 74 00
        E 0 90 3c 60
        E 0 90 49 60
        E 0 90 55 60
        E 0 90 61 60
        E 120 80 3c 00
        E 0 80 49 00
        E 0 80 55 00
        E 0 80 61 00
        E 120 90 55 60
        E 0 90 61 60
        E 120 80 55 00
        E 0 80 61 00
        E 0 90 62 60
        E 120 80 62 00
        E 0 90 4b 60
        E 0 90 57 60
        E 0 90 63 60
        E 120 80 4b 00
        E 0 80 57 00
        E 0 80 63 00
        E 120 90 58 60
        E 0 90 64 60
        E 120 80 58 00
        E 0 80 64 00
        E 120 90 3e 60
        E 0 90 4b 60
        E 0 90 57 60
        E 0 90 63 60
        E 120 80 3e 00
        E 0 80 4b 00
        E 0 80 57 00
        E 0 80 63 00
        E 120 90 56 60
        E 0 90 62 60
        E 120 80 56 00
        E 0 80 62 00
        E 120 90 48 60
        E 0 90 54 60
        E 0 90 60 60
        E 120 80 48 00
        E 0 80 54 00
        E 0 80 60 00
        E 120 90 55 60
        E 0 90 61 60
        E 120 80 55 00
        E 0 80 61 00
        E 120 90 3d 60
        E 0 90 4a 60
        E 0 90 56 60
        E 0 90 62 60
        E 120 80 3d 00
        E 0 80 4a 00
        E 0 80 56 00
        E 0 80 62 00
        E 120 90 56 60
        E 0 90 57 60
        E 0 90 62 60
        E 0 90 63 60
        E 600 80 56 00
        E 0 80 57 00
        E 0 80 62 00
        E 0 80 63 00
        E 120 90 3c 60
        E 0 90 49 60
        E 0 90 55 60
        E 0 90 61 60
        E 120 80 3c 00
        E 0 80 49 00
        E 0 80 55 00
        E 0 80 61 00
        E 120 90 55 60
        E 0 90 61 60
        E 120 80 55 00
        E 0 80 61 00
        E 0 90 62 60
        E 120 80 62 00
        E 0 90 4b 60
        E 0 90 57 60
        E 0 90 63 60
        E 120 80 4b 00
        E 0 80 57 00
        E 0 80 63 00
        E 120 90 58 60
        E 0 90 64 60
        E 120 80 58 00
        E 0 80 64 00
        E 120 90 3e 60
        E 0 90 4b 60
        E 0 90 57 60
        E 0 90 63 60
        E 120 80 3e 00
        E 0 80 4b 00
        E 0 80 57 00
        E 0 80 63 00
        E 120 90 56 60
        E 0 90 62 60
        E 120 80 56 00
        E 0 80 62 00
        E 120 90 48 60
        E 0 90 4a 60
        E 0 90 54 60
        E 0 90 56 60
        E 0 90 60 60
        E 0 90 62 60
        E 120 80 48 00
        E 0 80 4a 00
        E 0 80 54 00
        E 0 80 56 00
        E 0 80 60 00
        E 0 80 62 00
        E 120 90 56 60
        E 0 90 57 60
        E 0 90 62 60
        E 0 90 63 60
        E 120 80 56 00
        E 0 80 57 00
        E 0 80 62 00
        E 0 80 63 00
        E 120 90 3e 60
        E 0 90 4a 60
        E 0 90 4b 60
        E 0 90 56 60
        E 0 90 57 60
        E 0 90 62 60
        E 0 90 63 60
        E 480 80 3e 00
        E 0 80 4a 00
        E 0 80 4b 00
        E 360 80 56 00
        E 0 80 57 00
        E 0 80 62 00
        E 0 80 63 00
        E 120 90 3c 60
        E 0 90 49 60
        E 0 90 55 60
        E 0 90 61 60
        E 120 80 3c 00
        E 0 80 49 00
        E 0 80 55 00
        E 0 80 61 00
        E 120 90 55 60
        E 0 90 61 60
        E 120 80 55 00
        E 0 80 61 00
        E 0 90 62 60
        E 120 80 62 00
        E 0 90 4b 60
        E 0 90 57 60
        E 0 90 63 60
        E 120 80 4b 00
        E 0 80 57 00
        E 0 80 63 00
        E 120 90 58 60
        E 0 90 64 60
        E 120 80 58 00
        E 0 80 64 00
        E 120 90 3e 60
        E 0 90 4b 60
        E 0 90 57 60
        E 0 90 63 60
        E 120 80 3e 00
        E 0 80 4b 00
        E 0 80 57 00
        E 0 80 63 00
        E 120 90 56 60
        E 0 90 62 60
        E 120 80 56 00
        E 0 80 62 00
        E 120 90 48 60
        E 0 90 54 60
        E 0 90 60 60
        E 120 80 48 00
        E 0 80 54 00
        E 0 80 60 00
        E 120 90 55 60
        E 0 90 61 60
        E 120 80 55 00
        E 0 80 61 00
        E 120 90 3d 60
        E 0 90 4a 60
        E 0 90 56 60
        E 0 90 62 60
        E 120 80 3d 00
        E 0 80 4a 00
        E 0 80 56 00
        E 0 80 62 00
        E 120 90 55 60
        E 0 90 56 60
        E 0 90 61 60
        E 0 90 62 60
        E 600 80 55 00
        E 0 80 56 00
        E 0 80 61 00
        E 0 80 62 00
        E 120 90 3c 60
        E 0 90 49 60
        E 0 90 55 60
        E 0 90 61 60
        E 120 80 3c 00
        E 0 80 49 00
        E 0 80 55 00
        E 0 80 61 00
        E 120 90 55 60
        E 0 90 61 60
        E 120 80 55 00
        E 0 80 61 00
        E 0 90 62 60
        E 120 80 62 00
        E 0 90 4b 60
        E 0 90 57 60
        E 0 90 63 60
        E 120 80 4b 00
        E 0 80 57 00
        E 0 80 63 00
        E 120 90 58 60
        E 0 90 64 60
        E 120 80 58 00
        E 0 80 64 00
        E 120 90 3e 60
        E 0 90 4b 60
        E 0 90 57 60
        E 0 90 63 60
        E 120 80 3e 00
        E 0 80 4b 00
        E 0 80 57 00
        E 0 80 63 00
        E 120 90 56 60
        E 0 90 62 60
        E 120 80 56 00
        E 0 80 62 00
        E 120 90 48 60
        E 0 90 4a 60
        E 0 90 54 60
        E 0 90 56 60
        E 0 90 60 60
        E 0 90 62 60
        E 120 80 48 00
        E 0 80 4a 00
        E 0 80 54 00
        E 0 80 56 00
        E 0 80 60 00
        E 0 80 62 00
        E 120 90 55 60
        E 0 90 56 60
        E 0 90 61 60
        E 0 90 62 60
        E 120 80 55 00
        E 0 80 56 00
        E 0 80 61 00
        E 0 80 62 00
        E 120 90 3e 60
        E 0 90 49 60
        E 0 90 4a 60
        E 0 90 55 60
        E 0 90 56 60
        E 0 90 61 60
        E 0 90 62 60
        E 480 80 3e 00
        E 0 80 49 00
        E 0 80 4a 00
        E 360 80 55 00
        E 0 80 56 00
        E 0 80 61 00
        E 0 80 62 00
        E 120 90 3c 60
        E 0 90 49 60
        E 0 90 55 60
        E 0 90 61 60
        E 120 80 3c 00
        E 0 80 49 00
        E 0 80 55 00
        E 0 80 61 00
        E 120 90 55 60
        E 0 90 61 60
        E 120 80 55 00
        E 0 80 61 00
        E 0 90 62 60
        E 120 80 62 00
        E 0 90 4b 60
        E 0 90 57 60
        E 0 90 63 60
        E 120 80 4b 00
        E 0 80 57 00
        E 0 80 63 00
        E 120 90 58 60
        E 0 90 64 60
        E 120 80 58 00
        E 0 80 64 00
        E 120 90 3e 60
        E 0 90 4b 60
        E 0 90 57 60
        E 0 90 63 60
        E 120 80 3e 00
        E 0 80 4b 00
        E 0 80 57 00
        E 0 80 63 00
        E 120 90 56 60
        E 0 90 62 60
        E 120 80 56 00
        E 0 80 62 00
        E 120 90 48 60
        E 0 90 54 60
        E 0 90 60 60
        E 120 80 48 00
        E 0 80 54 00
        E 0 80 60 00
        E 120 90 55 60
        E 0 90 61 60
        E 120 80 55 00
        E 0 80 61 00
        E 120 90 3d 60
        E 0 90 4a 60
        E 0 90 56 60
        E 0 90 62 60
        E 120 80 3d 00
        E 0 80 4a 00
        E 0 80 56 00
        E 0 80 62 00
        E 120 90 55 60
        E 0 90 56 60
        E 0 90 61 60
        E 0 90 62 60
        E 600 80 55 00
        E 0 80 56 00
        E 0 80 61 00
        E 0 80 62 00
        E 120 90 3c 60
        E 0 90 49 60
        E 0 90 55 60
        E 0 90 61 60
        E 120 80 3c 00
        E 0 80 49 00
        E 0 80 55 00
        E 0 80 61 00
        E 120 90 55 60
        E 0 90 61 60
        E 120 80 55 00
        E 0 80 61 00
        E 0 90 62 60
        E 120 80 62 00
        E 0 90 4b 60
        E 0 90 57 60
        E 0 90 63 60
        E 120 80 4b 00
        E 0 80 57 00
        E 0 80 63 00
        E 120 90 58 60
        E 0 90 64 60
        E 120 80 58 00
        E 0 80 64 00
        E 120 90 3e 60
        E 0 90 4b 60
        E 0 90 57 60
        E 0 90 63 60
        E 120 80 3e 00
        E 0 80 4b 00
        E 0 80 57 00
        E 0 80 63 00
        E 120 90 56 60
        E 0 90 62 60
        E 120 80 56 00
        E 0 80 62 00
        E 120 90 48 60
        E 0 90 4a 60
        E 0 90 54 60
        E 0 90 56 60
        E 0 90 60 60
        E 0 90 62 60
        E 120 80 48 00
        E 0 80 4a 00
        E 0 80 54 00
        E 0 80 56 00
        E 0 80 60 00
        E 0 80 62 00
        E 120 90 55 60
        E 0 90 56 60
        E 0 90 61 60
        E 0 90 62 60
        E 120 80 55 00
        E 0 80 56 00
        E 0 80 61 00
        E 0 80 62 00
        E 120 90 3e 60
        E 0 90 49 60
        E 0 90 4a 60
        E 0 90 55 60
        E 0 90 56 60
        E 0 90 61 60
        E 0 90 62 60
        E 2400 80 3e 00
        E 0 80 49 00
        E 0 80 4a 00
        E 0 80 55 00
        E 0 80 56 00
        E 0 80 61 00
        E 0 80 62 00
        <X 480 0
          /wFbaWRsZV9yZWFsdGltZV0=
        >
        E 960 b0 7b 00
        GUID {66D26AB7-C197-4B1D-88CC-9EC20067C097}
        IGNTEMPO 0 120.00000000 4 4
        SRCCOLOR 32
        VELLANE 132 128 60
        COLORMAP "C:\Program Files\REAPER (x64)\Data\color_maps\rockband_guitarbass.png"
        BANKPROGRAMFILE "C:\Users\Ruggery\AppData\Roaming\REAPER\Data\GM.reabank"
        CFGEDITVIEW -5952.000000 8.393395 0 14 0 0 0
        CFGEDIT 1 1 0 1 1 0 1 1 1 1 1 0.25000000 -8 0 1542 880 0 2 1 1 0.00000000 0 1 0 0 0.500000 0 0 1.000000 64
        KEYSNAP 0 3 "102034050607" 0 "Major"
        EVTFILTER 0 -1 -1 -1 -1 0 1 0 0 -1.00000000 -1.00000000
      >
    >
  >
  <TRACK '{D9943C9B-0719-47BE-90B4-FB93DCE8898C}'
    NAME "guitar"
    PEAKCOL 16576
    BEAT -1
    AUTOMODE 0
    VOLPAN 1.00000000000000 0.00000000000000 -1.00000000000000 -1.00000000000000 1.00000000000000
    MUTESOLO 0 0 0
    IPHASE 0
    ISBUS 2 -1
    BUSCOMP 0 0
    SHOWINMIX 1 0.666700 0.500000 1 0.500000 -1 -1 -1
    FREEMODE 0
    SEL 0
    REC 0 0 0 0 0 0 0
    VU 2
    TRACKHEIGHT 0 0
    INQ 0 0 0 0.5000000000 100 0 0 100
    NCHAN 2
    FX 1
    TRACKID {D9943C9B-0719-47BE-90B4-FB93DCE8898C}
    PERF 0
    MIDIOUT -1
    MAINSEND 1 0
    <ITEM
      POSITION 0.00000000000000
      SNAPOFFS 0.00000000000000
      LENGTH 149.57648526077097
      LOOP 0
      ALLTAKES 0
      SEL 0
      FADEIN 1 0.000000 0.000000 1 0
      FADEOUT 1 0.000000 0.000000 1 0
      MUTE 0
      IGUID {5364CA19-BA11-4AC2-AC14-43842A2EACD4}
      IID 4
      NAME "guitar.wav"
      VOLPAN 1.000000 0.000000 1.000000 -1.000000
      SOFFS 0.00000000000000
      PLAYRATE 1.00000000000000 1 0.00000000000000 -1
      CHANMODE 0
      GUID {CB3EE42C-2874-4CCE-94F8-104CCBC57FD2}
      <SOURCE WAVE
        FILE "wav\guitar.wav"
      >
    >
  >
  <TRACK '{D0D34670-7213-4941-B052-4475E08F4F05}'
    NAME "PART KEYS"
    PEAKCOL 16576
    BEAT -1
    AUTOMODE 0
    VOLPAN 1.00000000000000 0.00000000000000 -1.00000000000000 -1.00000000000000 1.00000000000000
    MUTESOLO 0 0 0
    IPHASE 0
    ISBUS 1 1
    BUSCOMP 0 0
    SHOWINMIX 1 0.666700 0.500000 1 0.500000 -1 -1 -1
    FREEMODE 0
    SEL 0
    REC 0 0 0 0 0 0 0
    VU 2
    TRACKHEIGHT 0 0
    INQ 0 0 0 0.5000000000 100 0 0 100
    NCHAN 2
    FX 1
    TRACKID {D0D34670-7213-4941-B052-4475E08F4F05}
    PERF 0
    MIDIOUT -1
    <MIDINOTENAMES
      0 127 "TRILL MARKER"
      0 125 "---"
      0 124 "BRE"
      0 123 "BRE"
      0 122 "BRE"
      0 121 "BRE"
      0 120 "BRE (use all 5)"
      0 119 "----"
      0 116 "OVERDRIVE"
      0 115 "----"
      0 103 "Solo Marker"
      0 102 "Force HOPO Off"
      0 101 "Force HOPO On"
      0 100 "EXPERT Orange"
      0 99 "EXPERT Blue"
      0 98 "EXPERT Yellow"
      0 97 "EXPERT Red"
      0 96 "EXPERT Green"
      0 95 "----"
      0 90 "Force HOPO Off"
      0 89 "Force HOPO On"
      0 88 "HARD Orange"
      0 87 "HARD Blue"
      0 86 "HARD Yellow"
      0 85 "HARD Red"
      0 84 "HARD Green"
      0 77 "----"
      0 76 "MEDIUM Orange"
      0 75 "MEDIUM Blue"
      0 74 "MEDIUM Yellow"
      0 73 "MEDIUM Red"
      0 72 "MEDIUM Green"
      0 65 "----"
      0 64 "EASY Orange"
      0 63 "EASY Blue"
      0 62 "EASY Yellow"
      0 61 "EASY Red"
      0 60 "EASY Green"
    >
    MAINSEND 1 0
    <FXCHAIN
      WNDRECT 0 43 891 559
      SHOW 0
      LASTSEL 0
      DOCKED 0
      BYPASS 0 0
      <VST "VSTi: RBN Preview (RBN)" "rbprev_vst64.dll" 0 ""
        dnBicu5e7f4AAAAAAgAAAAEAAAAAAAAAAgAAAAAAAAAEAAAAAQAAAA==
        AAAQAAMAqgAAABAAAAA=
      >
      FLOATPOS 0 0 0 0
      FXID {F4A5964C-C4F1-4AF4-B8CA-D5844235E81E}
      WAK 0
    >
    <ITEM
      POSITION 0.00000000000000
      SNAPOFFS 0.00000000000000
      LENGTH 149.57649390171980
      LOOP 0
      ALLTAKES 0
      SEL 0
      FADEIN 1 0.000000 0.000000 1 0
      FADEOUT 1 0.000000 0.000000 1 0
      MUTE 0
      IGUID {A4A9DF94-4F34-4D87-BF38-7F1B0EC8FD3B}
      IID 17
      NAME "PART KEYS"
      VOLPAN 1.000000 0.000000 1.000000 -1.000000
      SOFFS 0.00000000000000 0.00000000000000
      PLAYRATE 1.00000000000000 1 0.00000000000000 -1
      CHANMODE 0
      GUID {1B8BEA8F-901F-41B8-85D6-CB837C0E3994}
      <SOURCE MIDI
        HASDATA 1 480 QN
        POOLEDEVTS {30324314-ADA0-4789-9EFD-8B2DF789DEFA}
        <X 0 0
          /wNQQVJUIEtFWVM=
        >
        <X 5760 0
          /wFbaWRsZV0=
        >
        <X 10560 0
          /wFbbWVsbG93XQ==
        >
        E 0 90 3c 60
        E 0 90 48 60
        E 0 90 55 60
        E 0 90 61 60
        E 120 80 3c 00
        E 0 80 48 00
        E 0 80 55 00
        E 0 80 61 00
        E 120 90 56 60
        E 0 90 62 60
        E 120 80 56 00
        E 0 80 62 00
        E 120 90 4b 60
        E 0 90 58 60
        E 0 90 64 60
        E 120 80 4b 00
        E 0 80 58 00
        E 0 80 64 00
        E 120 90 57 60
        E 0 90 63 60
        E 120 80 57 00
        E 0 80 63 00
        E 120 90 3e 60
        E 0 90 4b 60
        E 0 90 58 60
        E 0 90 64 60
        E 120 80 3e 00
        E 0 80 4b 00
        E 0 80 58 00
        E 0 80 64 00
        E 120 90 56 60
        E 0 90 62 60
        E 120 80 56 00
        E 0 80 62 00
        E 120 90 48 60
        E 0 90 55 60
        E 0 90 61 60
        E 120 80 48 00
        E 240 80 55 00
        E 0 80 61 00
        E 120 90 3d 60
        E 0 90 49 60
        E 0 90 56 60
        E 0 90 62 60
        E 120 80 3d 00
        E 0 80 49 00
        E 0 80 56 00
        E 0 80 62 00
        E 120 90 57 60
        E 0 90 63 60
        E 120 80 57 00
        E 0 80 63 00
        E 120 90 48 60
        E 0 90 54 60
        E 0 90 60 60
        E 120 80 48 00
        E 240 80 54 00
        E 0 80 60 00
        E 120 90 3c 60
        E 0 90 48 60
        E 0 90 55 60
        E 0 90 61 60
        E 0 90 74 60
        E 120 80 3c 00
        E 0 80 48 00
        E 0 80 55 00
        E 0 80 61 00
        E 120 90 56 60
        E 0 90 62 60
        E 120 80 56 00
        E 0 80 62 00
        E 120 90 4b 60
        E 0 90 58 60
        E 0 90 64 60
        E 120 80 4b 00
        E 0 80 58 00
        E 0 80 64 00
        E 120 90 57 60
        E 0 90 63 60
        E 120 80 57 00
        E 0 80 63 00
        E 120 90 3e 60
        E 0 90 4b 60
        E 0 90 58 60
        E 0 90 64 60
        E 120 80 3e 00
        E 0 80 4b 00
        E 0 80 58 00
        E 0 80 64 00
        E 120 90 56 60
        E 0 90 62 60
        E 120 80 56 00
        E 0 80 62 00
        E 120 90 48 60
        E 0 90 55 60
        E 0 90 61 60
        E 120 80 48 00
        E 0 80 55 00
        E 0 80 61 00
        E 120 90 54 60
        E 0 90 60 60
        E 120 80 54 00
        E 0 80 60 00
        E 120 90 3c 60
        E 0 90 48 60
        E 0 90 55 60
        E 0 90 61 60
        E 480 80 3c 00
        E 0 80 48 00
        E 360 80 55 00
        E 0 80 61 00
        E 120 80 74 00
        E 0 90 3c 60
        E 0 90 48 60
        E 0 90 55 60
        E 0 90 61 60
        E 120 80 3c 00
        E 0 80 48 00
        E 0 80 55 00
        E 0 80 61 00
        E 120 90 56 60
        E 0 90 62 60
        E 120 80 56 00
        E 0 80 62 00
        E 120 90 4b 60
        E 0 90 58 60
        E 0 90 64 60
        E 120 80 4b 00
        E 0 80 58 00
        E 0 80 64 00
        E 120 90 57 60
        E 0 90 63 60
        E 120 80 57 00
        E 0 80 63 00
        E 120 90 3e 60
        E 0 90 4b 60
        E 0 90 58 60
        E 0 90 64 60
        E 120 80 3e 00
        E 0 80 4b 00
        E 0 80 58 00
        E 0 80 64 00
        E 120 90 56 60
        E 0 90 62 60
        E 120 80 56 00
        E 0 80 62 00
        E 120 90 48 60
        E 0 90 55 60
        E 0 90 61 60
        E 120 80 48 00
        E 240 80 55 00
        E 0 80 61 00
        E 120 90 3d 60
        E 0 90 49 60
        E 0 90 56 60
        E 0 90 62 60
        E 120 80 3d 00
        E 0 80 49 00
        E 0 80 56 00
        E 0 80 62 00
        E 120 90 54 60
        E 0 90 60 60
        E 120 80 54 00
        E 0 80 60 00
        E 120 90 4a 60
        E 0 90 57 60
        E 0 90 63 60
        E 120 80 4a 00
        E 240 80 57 00
        E 0 80 63 00
        E 120 90 3c 60
        E 0 90 48 60
        E 0 90 55 60
        E 0 90 61 60
        E 120 80 3c 00
        E 0 80 48 00
        E 0 80 55 00
        E 0 80 61 00
        E 120 90 56 60
        E 0 90 62 60
        E 120 80 56 00
        E 0 80 62 00
        E 120 90 4b 60
        E 0 90 58 60
        E 0 90 64 60
        E 120 80 4b 00
        E 0 80 58 00
        E 0 80 64 00
        E 120 90 57 60
        E 0 90 63 60
        E 120 80 57 00
        E 0 80 63 00
        E 120 90 3e 60
        E 0 90 4b 60
        E 0 90 58 60
        E 0 90 64 60
        E 120 80 3e 00
        E 0 80 4b 00
        E 0 80 58 00
        E 0 80 64 00
        E 120 90 56 60
        E 0 90 62 60
        E 120 80 56 00
        E 0 80 62 00
        E 120 90 48 60
        E 0 90 55 60
        E 0 90 61 60
        E 120 80 48 00
        E 0 80 55 00
        E 0 80 61 00
        E 120 90 54 60
        E 0 90 60 60
        E 120 80 54 00
        E 0 80 60 00
        E 120 90 3c 60
        E 0 90 48 60
        E 0 90 55 60
        E 0 90 61 60
        E 480 80 3c 00
        E 0 80 48 00
        E 360 80 55 00
        E 0 80 61 00
        E 120 90 3d 60
        E 0 90 49 60
        E 0 90 56 60
        E 0 90 62 60
        E 120 80 3d 00
        E 0 80 49 00
        E 0 80 56 00
        E 0 80 62 00
        E 120 90 57 60
        E 0 90 63 60
        E 360 80 57 00
        E 0 80 63 00
        E 120 90 58 60
        E 0 90 64 60
        E 120 80 58 00
        E 0 80 64 00
        E 120 90 3e 60
        E 0 90 4a 60
        E 0 90 57 60
        E 0 90 63 60
        E 120 80 3e 00
        E 0 80 4a 00
        E 240 80 57 00
        E 0 80 63 00
        E 120 90 49 60
        E 0 90 56 60
        E 0 90 62 60
        E 120 80 49 00
        E 240 80 56 00
        E 0 80 62 00
        E 120 90 3c 60
        E 0 90 48 60
        E 0 90 55 60
        E 0 90 61 60
        E 120 80 3c 00
        E 0 80 48 00
        E 240 80 55 00
        E 0 80 61 00
        E 120 90 49 60
        E 0 90 56 60
        E 0 90 62 60
        E 120 80 49 00
        E 0 80 56 00
        E 0 80 62 00
        E 120 90 54 60
        E 0 90 60 60
        E 120 80 54 00
        E 0 80 60 00
        E 120 90 3c 60
        E 0 90 48 60
        E 0 90 55 60
        E 0 90 61 60
        E 120 80 3c 00
        E 0 80 48 00
        E 0 80 55 00
        E 0 80 61 00
        E 120 90 56 60
        E 0 90 62 60
        E 360 80 56 00
        E 0 80 62 00
        E 120 90 57 60
        E 0 90 63 60
        E 120 80 57 00
        E 0 80 63 00
        E 120 90 3e 60
        E 0 90 4b 60
        E 0 90 58 60
        E 0 90 64 60
        E 120 80 3e 00
        E 0 80 4b 00
        E 240 80 58 00
        E 0 80 64 00
        E 120 90 4a 60
        E 0 90 57 60
        E 0 90 63 60
        E 120 80 4a 00
        E 240 80 57 00
        E 0 80 63 00
        E 120 90 3d 60
        E 0 90 49 60
        E 0 90 56 60
        E 0 90 62 60
        E 480 80 3d 00
        E 0 80 49 00
        E 240 80 56 00
        E 0 80 62 00
        E 240 90 3d 60
        E 0 90 49 60
        E 0 90 56 60
        E 0 90 62 60
        E 0 90 74 60
        E 120 80 3d 00
        E 0 80 49 00
        E 0 80 56 00
        E 0 80 62 00
        E 120 90 57 60
        E 0 90 63 60
        E 360 80 57 00
        E 0 80 63 00
        E 120 90 58 60
        E 0 90 64 60
        E 120 80 58 00
        E 0 80 64 00
        E 120 90 3e 60
        E 0 90 4a 60
        E 0 90 57 60
        E 0 90 63 60
        E 120 80 3e 00
        E 0 80 4a 00
        E 240 80 57 00
        E 0 80 63 00
        E 120 90 49 60
        E 0 90 56 60
        E 0 90 62 60
        E 120 80 49 00
        E 240 80 56 00
        E 0 80 62 00
        E 120 90 3c 60
        E 0 90 48 60
        E 0 90 55 60
        E 0 90 61 60
        E 120 80 3c 00
        E 0 80 48 00
        E 240 80 55 00
        E 0 80 61 00
        E 120 90 49 60
        E 0 90 56 60
        E 0 90 62 60
        E 120 80 49 00
        E 240 80 56 00
        E 0 80 62 00
        E 120 90 3c 60
        E 0 90 48 60
        E 0 90 55 60
        E 0 90 61 60
        E 120 80 74 00
        E 0 80 3c 00
        E 0 80 48 00
        E 0 80 55 00
        E 0 80 61 00
        E 120 90 56 60
        E 0 90 62 60
        E 360 80 56 00
        E 0 80 62 00
        E 120 90 57 60
        E 0 90 63 60
        E 120 80 57 00
        E 0 80 63 00
        E 120 90 3e 60
        E 0 90 4b 60
        E 0 90 58 60
        E 0 90 64 60
        E 120 80 3e 00
        E 0 80 4b 00
        E 0 80 58 00
        E 0 80 64 00
        E 120 90 57 60
        E 0 90 63 60
        E 120 80 57 00
        E 0 80 63 00
        E 120 90 3e 60
        E 0 90 4b 60
        E 0 90 58 60
        E 0 90 64 60
        E 1200 80 3e 00
        E 0 80 4b 00
        E 0 80 58 00
        E 0 80 64 00
        <X 480 0
          /wFbaWRsZV0=
        >
        <X 10800 0
          /wFbbWVsbG93XQ==
        >
        E 480 90 3d 60
        E 0 90 49 60
        E 0 90 56 60
        E 0 90 62 60
        E 120 80 3d 00
        E 0 80 49 00
        E 0 80 56 00
        E 0 80 62 00
        E 120 90 57 60
        E 0 90 63 60
        E 120 80 57 00
        E 0 80 63 00
        E 120 90 4b 60
        E 0 90 4c 60
        E 0 90 57 60
        E 0 90 58 60
        E 0 90 63 60
        E 0 90 64 60
        E 120 80 4b 00
        E 0 80 4c 00
        E 0 80 57 00
        E 0 80 58 00
        E 0 80 63 00
        E 0 80 64 00
        E 120 90 57 60
        E 0 90 63 60
        E 120 80 57 00
        E 0 80 63 00
        E 120 90 3c 60
        E 0 90 48 60
        E 0 90 55 60
        E 0 90 61 60
        E 120 80 3c 00
        E 0 80 48 00
        E 0 80 55 00
        E 0 80 61 00
        E 120 90 56 60
        E 0 90 62 60
        E 120 80 56 00
        E 0 80 62 00
        E 120 90 4a 60
        E 0 90 4b 60
        E 0 90 56 60
        E 0 90 58 60
        E 0 90 62 60
        E 0 90 64 60
        E 120 80 4a 00
        E 0 80 4b 00
        E 0 80 56 00
        E 0 80 58 00
        E 0 80 62 00
        E 0 80 64 00
        E 120 90 56 60
        E 0 90 62 60
        E 120 80 56 00
        E 0 80 62 00
        E 120 90 3c 60
        E 0 90 48 60
        E 0 90 49 60
        E 0 90 54 60
        E 0 90 55 60
        E 0 90 60 60
        E 0 90 61 60
        E 120 80 3c 00
        E 0 80 48 00
        E 0 80 49 00
        E 0 80 54 00
        E 0 80 55 00
        E 0 80 60 00
        E 0 80 61 00
        E 120 90 54 60
        E 0 90 56 60
        E 0 90 60 60
        E 0 90 62 60
        E 120 80 54 00
        E 0 80 56 00
        E 0 80 60 00
        E 0 80 62 00
        E 120 90 3c 60
        E 0 90 48 60
        E 0 90 49 60
        E 0 90 54 60
        E 0 90 55 60
        E 0 90 60 60
        E 0 90 61 60
        E 120 80 3c 00
        E 0 80 48 00
        E 0 80 49 00
        E 0 80 54 00
        E 0 80 55 00
        E 0 80 60 00
        E 0 80 61 00
        E 120 90 55 60
        E 0 90 56 60
        E 0 90 61 60
        E 0 90 62 60
        E 120 80 55 00
        E 0 80 56 00
        E 0 80 61 00
        E 0 80 62 00
        E 360 90 49 60
        E 0 90 56 60
        E 0 90 62 60
        E 120 80 49 00
        E 0 80 56 00
        E 0 80 62 00
        E 120 90 3d 60
        E 0 90 49 60
        E 0 90 56 60
        E 0 90 63 60
        E 120 80 3d 00
        E 0 80 49 00
        E 0 80 56 00
        E 0 80 63 00
        E 0 90 62 60
        E 120 80 62 00
        E 240 90 3d 60
        E 0 90 49 60
        E 0 90 56 60
        E 0 90 62 60
        E 120 80 3d 00
        E 0 80 49 00
        E 0 80 56 00
        E 0 80 62 00
        E 120 90 57 60
        E 0 90 63 60
        E 120 80 57 00
        E 0 80 63 00
        E 120 90 4b 60
        E 0 90 4c 60
        E 0 90 57 60
        E 0 90 58 60
        E 0 90 63 60
        E 0 90 64 60
        E 120 80 4b 00
        E 0 80 4c 00
        E 0 80 57 00
        E 0 80 58 00
        E 0 80 63 00
        E 0 80 64 00
        E 120 90 57 60
        E 0 90 63 60
        E 120 80 57 00
        E 0 80 63 00
        E 120 90 3c 60
        E 0 90 48 60
        E 0 90 55 60
        E 0 90 61 60
        E 120 80 3c 00
        E 0 80 48 00
        E 0 80 55 00
        E 0 80 61 00
        E 120 90 56 60
        E 0 90 62 60
        E 120 80 56 00
        E 0 80 62 00
        E 120 90 4a 60
        E 0 90 4b 60
        E 0 90 56 60
        E 0 90 58 60
        E 0 90 62 60
        E 0 90 64 60
        E 120 80 4a 00
        E 0 80 4b 00
        E 0 80 56 00
        E 0 80 58 00
        E 0 80 62 00
        E 0 80 64 00
        E 120 90 56 60
        E 0 90 62 60
        E 120 80 56 00
        E 0 80 62 00
        E 120 90 3d 60
        E 0 90 48 60
        E 0 90 4a 60
        E 0 90 54 60
        E 0 90 56 60
        E 0 90 60 60
        E 0 90 62 60
        E 0 90 74 60
        E 120 80 3d 00
        E 0 80 48 00
        E 0 80 4a 00
        E 0 80 54 00
        E 0 80 56 00
        E 0 80 60 00
        E 0 80 62 00
        E 120 90 57 60
        E 0 90 63 60
        E 120 80 57 00
        E 0 80 63 00
        E 120 90 49 60
        E 0 90 56 60
        E 0 90 62 60
        E 120 80 49 00
        E 0 80 56 00
        E 0 80 62 00
        E 120 90 54 60
        E 0 90 55 60
        E 0 90 60 60
        E 0 90 61 60
        E 120 80 54 00
        E 0 80 55 00
        E 0 80 60 00
        E 0 80 61 00
        E 120 80 74 00
        E 960 90 3c 60
        E 0 90 48 60
        E 0 90 55 60
        E 0 90 61 60
        E 120 80 3c 00
        E 0 80 48 00
        E 0 80 55 00
        E 0 80 61 00
        E 120 90 56 60
        E 0 90 62 60
        E 120 80 56 00
        E 0 80 62 00
        E 120 90 4b 60
        E 0 90 58 60
        E 0 90 64 60
        E 120 80 4b 00
        E 0 80 58 00
        E 0 80 64 00
        E 120 90 57 60
        E 0 90 63 60
        E 120 80 57 00
        E 0 80 63 00
        E 120 90 3e 60
        E 0 90 4b 60
        E 0 90 58 60
        E 0 90 64 60
        E 120 80 3e 00
        E 0 80 4b 00
        E 0 80 58 00
        E 0 80 64 00
        E 120 90 56 60
        E 0 90 62 60
        E 120 80 56 00
        E 0 80 62 00
        E 120 90 48 60
        E 0 90 55 60
        E 0 90 61 60
        E 120 80 48 00
        E 240 80 55 00
        E 0 80 61 00
        E 120 90 3d 60
        E 0 90 49 60
        E 0 90 56 60
        E 0 90 62 60
        E 120 80 3d 00
        E 0 80 49 00
        E 0 80 56 00
        E 0 80 62 00
        E 120 90 57 60
        E 0 90 63 60
        E 120 80 57 00
        E 0 80 63 00
        E 120 90 48 60
        E 0 90 54 60
        E 0 90 60 60
        E 120 80 48 00
        E 240 80 54 00
        E 0 80 60 00
        E 120 90 3c 60
        E 0 90 48 60
        E 0 90 55 60
        E 0 90 61 60
        E 120 80 3c 00
        E 0 80 48 00
        E 0 80 55 00
        E 0 80 61 00
        E 120 90 56 60
        E 0 90 62 60
        E 120 80 56 00
        E 0 80 62 00
        E 120 90 4b 60
        E 0 90 58 60
        E 0 90 64 60
        E 120 80 4b 00
        E 0 80 58 00
        E 0 80 64 00
        E 120 90 57 60
        E 0 90 63 60
        E 120 80 57 00
        E 0 80 63 00
        E 120 90 3e 60
        E 0 90 4b 60
        E 0 90 58 60
        E 0 90 64 60
        E 120 80 3e 00
        E 0 80 4b 00
        E 0 80 58 00
        E 0 80 64 00
        E 120 90 56 60
        E 0 90 62 60
        E 120 80 56 00
        E 0 80 62 00
        E 120 90 48 60
        E 0 90 55 60
        E 0 90 61 60
        E 120 80 48 00
        E 0 80 55 00
        E 0 80 61 00
        E 120 90 54 60
        E 0 90 60 60
        E 120 80 54 00
        E 0 80 60 00
        E 120 90 3c 60
        E 0 90 48 60
        E 0 90 55 60
        E 0 90 61 60
        E 480 80 3c 00
        E 0 80 48 00
        E 360 80 55 00
        E 0 80 61 00
        E 120 90 3c 60
        E 0 90 48 60
        E 0 90 55 60
        E 0 90 61 60
        E 120 80 3c 00
        E 0 80 48 00
        E 0 80 55 00
        E 0 80 61 00
        E 120 90 56 60
        E 0 90 62 60
        E 120 80 56 00
        E 0 80 62 00
        E 120 90 4b 60
        E 0 90 58 60
        E 0 90 64 60
        E 120 80 4b 00
        E 0 80 58 00
        E 0 80 64 00
        E 120 90 57 60
        E 0 90 63 60
        E 120 80 57 00
        E 0 80 63 00
        E 120 90 3e 60
        E 0 90 4b 60
        E 0 90 58 60
        E 0 90 64 60
        E 120 80 3e 00
        E 0 80 4b 00
        E 0 80 58 00
        E 0 80 64 00
        E 120 90 56 60
        E 0 90 62 60
        E 120 80 56 00
        E 0 80 62 00
        E 120 90 48 60
        E 0 90 55 60
        E 0 90 61 60
        E 120 80 48 00
        E 240 80 55 00
        E 0 80 61 00
        E 120 90 3d 60
        E 0 90 49 60
        E 0 90 56 60
        E 0 90 62 60
        E 120 80 3d 00
        E 0 80 49 00
        E 0 80 56 00
        E 0 80 62 00
        E 120 90 54 60
        E 0 90 60 60
        E 120 80 54 00
        E 0 80 60 00
        E 120 90 4a 60
        E 0 90 57 60
        E 0 90 63 60
        E 120 80 4a 00
        E 240 80 57 00
        E 0 80 63 00
        E 120 90 3c 60
        E 0 90 48 60
        E 0 90 55 60
        E 0 90 61 60
        E 0 90 74 60
        E 120 80 3c 00
        E 0 80 48 00
        E 0 80 55 00
        E 0 80 61 00
        E 120 90 56 60
        E 0 90 62 60
        E 120 80 56 00
        E 0 80 62 00
        E 120 90 4b 60
        E 0 90 58 60
        E 0 90 64 60
        E 120 80 4b 00
        E 0 80 58 00
        E 0 80 64 00
        E 120 90 57 60
        E 0 90 63 60
        E 120 80 57 00
        E 0 80 63 00
        E 120 90 3e 60
        E 0 90 4b 60
        E 0 90 58 60
        E 0 90 64 60
        E 120 80 3e 00
        E 0 80 4b 00
        E 0 80 58 00
        E 0 80 64 00
        E 120 90 56 60
        E 0 90 62 60
        E 120 80 56 00
        E 0 80 62 00
        E 120 90 48 60
        E 0 90 55 60
        E 0 90 61 60
        E 120 80 48 00
        E 0 80 55 00
        E 0 80 61 00
        E 120 90 54 60
        E 0 90 60 60
        E 120 80 54 00
        E 0 80 60 00
        E 120 90 3c 60
        E 0 90 48 60
        E 0 90 55 60
        E 0 90 61 60
        E 480 80 3c 00
        E 0 80 48 00
        E 360 80 55 00
        E 0 80 61 00
        E 120 90 3e 60
        E 0 90 4b 60
        E 0 90 58 60
        E 0 90 64 60
        E 120 80 74 00
        E 0 80 3e 00
        E 0 80 4b 00
        E 0 80 58 00
        E 0 80 64 00
        E 0 90 64 60
        E 120 80 64 00
        E 0 90 58 60
        E 0 90 64 60
        E 120 80 58 00
        E 0 80 64 00
        E 120 90 49 60
        E 0 90 56 60
        E 0 90 62 60
        E 120 80 49 00
        E 0 80 56 00
        E 0 80 62 00
        E 120 90 57 60
        E 0 90 63 60
        E 120 80 57 00
        E 0 80 63 00
        E 0 90 63 60
        E 120 80 63 00
        E 0 90 3e 60
        E 0 90 4a 60
        E 0 90 57 60
        E 0 90 63 60
        E 120 80 3e 00
        E 0 80 4a 00
        E 0 80 57 00
        E 0 80 63 00
        E 120 90 56 60
        E 0 90 62 60
        E 120 80 56 00
        E 0 80 62 00
        E 120 90 3e 60
        E 0 90 4a 60
        E 0 90 57 60
        E 0 90 63 60
        E 120 80 3e 00
        E 0 80 4a 00
        E 0 80 57 00
        E 0 80 63 00
        E 1320 90 3e 60
        E 0 90 4b 60
        E 0 90 58 60
        E 0 90 64 60
        E 120 80 3e 00
        E 0 80 4b 00
        E 0 80 58 00
        E 0 80 64 00
        E 0 90 64 60
        E 120 80 64 00
        E 0 90 58 60
        E 0 90 64 60
        E 120 80 58 00
        E 0 80 64 00
        E 120 90 49 60
        E 0 90 56 60
        E 0 90 62 60
        E 120 80 49 00
        E 0 80 56 00
        E 0 80 62 00
        E 120 90 57 60
        E 0 90 63 60
        E 120 80 57 00
        E 0 80 63 00
        E 0 90 63 60
        E 120 80 63 00
        E 0 90 3e 60
        E 0 90 4a 60
        E 0 90 57 60
        E 0 90 63 60
        E 120 80 3e 00
        E 0 80 4a 00
        E 0 80 57 00
        E 0 80 63 00
        E 120 90 56 60
        E 0 90 62 60
        E 120 80 56 00
        E 0 80 62 00
        E 120 90 3e 60
        E 0 90 4a 60
        E 0 90 57 60
        E 0 90 63 60
        E 120 80 3e 00
        E 0 80 4a 00
        E 0 80 57 00
        E 0 80 63 00
        E 1320 90 3e 60
        E 0 90 4b 60
        E 0 90 58 60
        E 0 90 64 60
        E 120 80 3e 00
        E 0 80 4b 00
        E 0 80 58 00
        E 0 80 64 00
        E 0 90 64 60
        E 120 80 64 00
        E 0 90 58 60
        E 0 90 64 60
        E 120 80 58 00
        E 0 80 64 00
        E 120 90 49 60
        E 0 90 56 60
        E 0 90 62 60
        E 120 80 49 00
        E 0 80 56 00
        E 0 80 62 00
        E 120 90 57 60
        E 0 90 63 60
        E 120 80 57 00
        E 0 80 63 00
        E 0 90 63 60
        E 120 80 63 00
        E 0 90 3e 60
        E 0 90 4a 60
        E 0 90 57 60
        E 0 90 63 60
        E 120 80 3e 00
        E 0 80 4a 00
        E 0 80 57 00
        E 0 80 63 00
        E 120 90 56 60
        E 0 90 62 60
        E 120 80 56 00
        E 0 80 62 00
        E 120 90 4a 60
        E 0 90 57 60
        E 0 90 63 60
        E 0 90 74 60
        E 120 80 4a 00
        E 0 80 57 00
        E 0 80 63 00
        E 120 90 54 60
        E 0 90 60 60
        E 120 80 54 00
        E 0 80 60 00
        E 120 90 3c 60
        E 0 90 48 60
        E 0 90 55 60
        E 0 90 61 60
        E 120 80 3c 00
        E 0 80 48 00
        E 0 80 55 00
        E 0 80 61 00
        E 120 90 56 60
        E 0 90 62 60
        E 120 80 56 00
        E 0 80 62 00
        E 120 90 4a 60
        E 0 90 57 60
        E 0 90 63 60
        E 120 80 4a 00
        E 0 80 57 00
        E 0 80 63 00
        E 120 90 58 60
        E 0 90 64 60
        E 120 80 58 00
        E 0 80 64 00
        E 120 80 74 00
        E 0 90 3d 60
        E 0 90 49 60
        E 0 90 56 60
        E 0 90 62 60
        E 120 80 3d 00
        E 0 80 49 00
        E 0 80 56 00
        E 0 80 62 00
        E 120 90 58 60
        E 0 90 64 60
        E 120 80 58 00
        E 0 80 64 00
        E 0 90 64 60
        E 120 80 64 00
        E 0 90 4b 60
        E 0 90 58 60
        E 0 90 64 60
        E 120 80 4b 00
        E 0 80 58 00
        E 0 80 64 00
        E 120 90 56 60
        E 0 90 62 60
        E 120 80 56 00
        E 0 80 62 00
        E 120 90 3e 60
        E 0 90 4a 60
        E 0 90 57 60
        E 0 90 63 60
        E 120 80 3e 00
        E 0 80 4a 00
        E 0 80 57 00
        E 0 80 63 00
        E 0 90 63 60
        E 120 80 63 00
        E 0 90 57 60
        E 0 90 63 60
        E 120 80 57 00
        E 0 80 63 00
        E 120 90 49 60
        E 0 90 56 60
        E 0 90 62 60
        E 120 80 49 00
        E 0 80 56 00
        E 0 80 62 00
        E 120 90 57 60
        E 0 90 63 60
        E 120 80 57 00
        E 0 80 63 00
        E 120 90 3c 60
        E 0 90 48 60
        E 0 90 54 60
        E 0 90 60 60
        E 120 80 3c 00
        E 0 80 48 00
        E 0 80 54 00
        E 0 80 60 00
        E 120 90 55 60
        E 0 90 61 60
        E 120 80 55 00
        E 0 80 61 00
        E 120 90 49 60
        E 0 90 56 60
        E 0 90 62 60
        E 120 80 49 00
        E 0 80 56 00
        E 0 80 62 00
        E 120 90 57 60
        E 0 90 63 60
        E 120 80 57 00
        E 0 80 63 00
        E 120 90 3d 60
        E 0 90 49 60
        E 0 90 56 60
        E 0 90 62 60
        E 120 80 3d 00
        E 0 80 49 00
        E 0 80 56 00
        E 0 80 62 00
        E 120 90 57 60
        E 0 90 63 60
        E 360 80 57 00
        E 0 80 63 00
        E 120 90 58 60
        E 0 90 64 60
        E 120 80 58 00
        E 0 80 64 00
        E 120 90 3e 60
        E 0 90 4a 60
        E 0 90 57 60
        E 0 90 63 60
        E 120 80 3e 00
        E 0 80 4a 00
        E 240 80 57 00
        E 0 80 63 00
        E 120 90 49 60
        E 0 90 56 60
        E 0 90 62 60
        E 120 80 49 00
        E 240 80 56 00
        E 0 80 62 00
        E 120 90 3c 60
        E 0 90 48 60
        E 0 90 55 60
        E 0 90 61 60
        E 120 80 3c 00
        E 0 80 48 00
        E 240 80 55 00
        E 0 80 61 00
        E 120 90 49 60
        E 0 90 56 60
        E 0 90 62 60
        E 120 80 49 00
        E 0 80 56 00
        E 0 80 62 00
        E 120 90 54 60
        E 0 90 60 60
        E 120 80 54 00
        E 0 80 60 00
        E 120 90 3c 60
        E 0 90 48 60
        E 0 90 55 60
        E 0 90 61 60
        E 120 80 3c 00
        E 0 80 48 00
        E 0 80 55 00
        E 0 80 61 00
        E 120 90 56 60
        E 0 90 62 60
        E 360 80 56 00
        E 0 80 62 00
        E 120 90 57 60
        E 0 90 63 60
        E 120 80 57 00
        E 0 80 63 00
        E 120 90 3e 60
        E 0 90 4b 60
        E 0 90 58 60
        E 0 90 64 60
        E 120 80 3e 00
        E 0 80 4b 00
        E 240 80 58 00
        E 0 80 64 00
        E 120 90 4a 60
        E 0 90 57 60
        E 0 90 63 60
        E 120 80 4a 00
        E 240 80 57 00
        E 0 80 63 00
        E 120 90 3d 60
        E 0 90 49 60
        E 0 90 56 60
        E 0 90 62 60
        E 480 80 3d 00
        E 0 80 49 00
        E 240 80 56 00
        E 0 80 62 00
        E 240 90 3d 60
        E 0 90 49 60
        E 0 90 56 60
        E 0 90 62 60
        E 120 80 3d 00
        E 0 80 49 00
        E 0 80 56 00
        E 0 80 62 00
        E 120 90 57 60
        E 0 90 63 60
        E 360 80 57 00
        E 0 80 63 00
        E 120 90 58 60
        E 0 90 64 60
        E 120 80 58 00
        E 0 80 64 00
        E 120 90 3e 60
        E 0 90 4a 60
        E 0 90 57 60
        E 0 90 63 60
        E 120 80 3e 00
        E 0 80 4a 00
        E 240 80 57 00
        E 0 80 63 00
        E 120 90 49 60
        E 0 90 56 60
        E 0 90 62 60
        E 120 80 49 00
        E 240 80 56 00
        E 0 80 62 00
        E 120 90 3c 60
        E 0 90 48 60
        E 0 90 55 60
        E 0 90 61 60
        E 120 80 3c 00
        E 0 80 48 00
        E 240 80 55 00
        E 0 80 61 00
        E 120 90 49 60
        E 0 90 56 60
        E 0 90 62 60
        E 120 80 49 00
        E 240 80 56 00
        E 0 80 62 00
        E 120 90 3c 60
        E 0 90 48 60
        E 0 90 55 60
        E 0 90 61 60
        E 120 80 3c 00
        E 0 80 48 00
        E 0 80 55 00
        E 0 80 61 00
        E 120 90 56 60
        E 0 90 62 60
        E 360 80 56 00
        E 0 80 62 00
        E 120 90 57 60
        E 0 90 63 60
        E 120 80 57 00
        E 0 80 63 00
        E 120 90 3e 60
        E 0 90 4b 60
        E 0 90 58 60
        E 0 90 64 60
        E 120 80 3e 00
        E 0 80 4b 00
        E 0 80 58 00
        E 0 80 64 00
        E 120 90 57 60
        E 0 90 63 60
        E 120 80 57 00
        E 0 80 63 00
        E 120 90 3e 60
        E 0 90 4b 60
        E 0 90 58 60
        E 0 90 64 60
        E 1200 80 3e 00
        E 0 80 4b 00
        E 0 80 58 00
        E 0 80 64 00
        <X 480 0
          /wFbaWRsZV9yZWFsdGltZV0=
        >
        E 25680 b0 7b 00
        GUID {F1A817C4-146E-419A-8CFB-E83DBD867180}
        IGNTEMPO 0 120.00000000 4 4
        SRCCOLOR 33
        VELLANE 132 128 60
        COLORMAP "C:\Program Files\REAPER (x64)\Data\color_maps\rockband_guitarbass.png"
        CFGEDITVIEW 80022.109017 65.271961 0 14 0 0 0
        CFGEDIT 1 1 0 1 1 0 1 1 1 1 1 0.25000000 -8 0 1542 880 0 2 1 1 0.00000000 0 1 0 0 0.500000 0 0 1.000000 64
        KEYSNAP 0 3 "102034050607" 0 "Major"
        EVTFILTER 0 -1 -1 -1 -1 0 1 0 0 -1.00000000 -1.00000000
      >
    >
  >
  <TRACK '{0150E974-3A7F-4483-BD36-85A90460C4D1}'
    NAME "PART REAL_KEYS_X"
    PEAKCOL 16576
    BEAT -1
    AUTOMODE 0
    VOLPAN 1.00000000000000 0.00000000000000 -1.00000000000000 -1.00000000000000 1.00000000000000
    MUTESOLO 0 0 0
    IPHASE 0
    ISBUS 0 0
    BUSCOMP 0 0
    SHOWINMIX 1 0.666700 0.500000 1 0.500000 -1 -1 -1
    FREEMODE 0
    SEL 0
    REC 0 0 0 0 0 0 0
    VU 2
    TRACKHEIGHT 0 0
    INQ 0 0 0 0.5000000000 100 0 0 100
    NCHAN 2
    FX 0
    TRACKID {0150E974-3A7F-4483-BD36-85A90460C4D1}
    PERF 0
    MIDIOUT -1
    <MIDINOTENAMES
      0 127 "TRILL MARKER"
      0 126 "GLISSANDO MARKER"
      0 125 "---"
      0 116 "OVERDRIVE"
      0 115 "SOLO"
      0 114 "---"
      0 72 "Highest playable note B#3"
      0 71 "B3"
      0 70 "A#3"
      0 69 "A3"
      0 68 "G#3"
      0 67 "G3"
      0 66 "F#3"
      0 65 "F3"
      0 64 "E3"
      0 63 "D#3"
      0 62 "D3"
      0 61 "C#3"
      0 60 "C3"
      0 59 "B2"
      0 58 "A#2"
      0 57 "A2"
      0 56 "G#2"
      0 55 "G2"
      0 54 "F#2"
      0 53 "F2"
      0 52 "E2"
      0 51 "D#2"
      0 50 "D2"
      0 49 "C#2"
      0 48 "Lowest playable note C2"
      0 10 "---"
      0 9 "Range A2-C4"
      0 8 "Range"
      0 7 "Range"
      0 6 "Range"
      0 5 "Range F2-A3"
      0 4 "Range"
      0 3 "Range"
      0 2 "Range"
      0 1 "Range"
      0 0 "Range C2-E3"
    >
    MAINSEND 1 0
    <FXCHAIN
      WNDRECT 0 43 655 467
      SHOW 0
      LASTSEL 1
      DOCKED 0
      BYPASS 0 0
      <JS "MIDI/midi_note_filter" ""
        48.000000 72.000000 - - - - - - - - - - - - - - - - - - - - - - - - - - - - - - - - - - - - - - - - - - - - - - - - - - - - - - - - - - - - - - 
      >
      FLOATPOS 0 0 0 0
      FXID {24AECE22-2BBC-41BB-951B-81B4F5EA378B}
      WAK 0
      BYPASS 0 0
      <VST "VSTi: ReaSynth (Cockos)" "reasynth.dll" 0 ""
        eXNlcu9e7f4AAAAAAgAAAAEAAAAAAAAAAgAAAAAAAAA4AAAAAAAAAA==
        AAAQAO++rd4N8K3eppvEOxe30ToAAIA/AAAAAAAAAACm+zw96WeIPQ==
        AAAAAAAAAD8AAIA/AACAPwAAAD8AABAAAAA=
      >
      FLOATPOS 0 0 0 0
      FXID {8908BBF5-53FE-4843-B5D3-7E6BF9D880D8}
      WAK 0
    >
    <ITEM
      POSITION 0.00000000000000
      SNAPOFFS 0.00000000000000
      LENGTH 149.57649390171977
      LOOP 0
      ALLTAKES 0
      SEL 0
      FADEIN 1 0.000000 0.000000 1 0
      FADEOUT 1 0.000000 0.000000 1 0
      MUTE 0
      IGUID {4C6DE78F-E829-4BAA-BE4E-3D3B00ED7124}
      IID 10
      NAME "PART REAL_KEYS_X"
      VOLPAN 1.000000 0.000000 1.000000 -1.000000
      SOFFS 0.00000000000000 0.00000000000000
      PLAYRATE 1.00000000000000 1 0.00000000000000 -1
      CHANMODE 0
      GUID {98D741CE-59E2-48B7-9D00-BC5F5B2A6BB3}
      <SOURCE MIDI
        HASDATA 1 480 QN
        POOLEDEVTS {D1D3D90E-8055-4A67-848C-766A5633BA84}
        <X 0 0
          /wNQQVJUIFJFQUxfS0VZU19Y
        >
        E 0 90 07 60
        E 120 80 07 00
        <X 16200 0
          /wFbYmVnaW5fa2V5IHNvbmdfdHJhaW5lcl9rZXlfMV0=
        >
        E 0 90 3c 60
        E 120 80 3c 00
        E 120 90 3f 60
        E 120 80 3f 00
        E 120 90 46 60
        E 120 80 46 00
        E 120 90 43 60
        E 120 80 43 00
        E 120 90 41 60
        E 120 80 41 00
        E 120 90 3f 60
        E 120 80 3f 00
        E 120 90 3c 60
        E 360 80 3c 00
        E 120 90 3e 60
        E 120 80 3e 00
        E 120 90 3f 60
        E 120 80 3f 00
        E 120 90 3a 60
        E 360 80 3a 00
        <X 120 0
          /wFba2V5X25vcm0gc29uZ190cmFpbmVyX2tleV8xXQ==
        >
        E 0 90 3c 60
        E 0 90 74 60
        E 120 80 3c 00
        E 120 90 3f 60
        E 120 80 3f 00
        E 120 90 46 60
        E 120 80 46 00
        E 120 90 43 60
        E 120 80 43 00
        E 120 90 41 60
        E 120 80 41 00
        E 120 90 3f 60
        E 120 80 3f 00
        E 120 90 3c 60
        E 120 80 3c 00
        E 120 90 3a 60
        E 120 80 3a 00
        E 120 90 3c 60
        E 840 80 3c 00
        E 120 90 3c 60
        E 0 80 74 00
        E 120 80 3c 00
        E 120 90 3f 60
        E 120 80 3f 00
        E 120 90 46 60
        E 120 80 46 00
        E 120 90 43 60
        E 120 80 43 00
        E 120 90 41 60
        E 120 80 41 00
        E 120 90 3f 60
        E 120 80 3f 00
        E 120 90 3c 60
        E 360 80 3c 00
        E 120 90 3a 60
        E 120 80 3a 00
        E 120 90 37 60
        E 120 80 37 00
        E 120 90 3e 60
        E 360 80 3e 00
        E 120 90 3c 60
        E 120 80 3c 00
        E 120 90 3f 60
        E 120 80 3f 00
        E 120 90 46 60
        E 120 80 46 00
        E 120 90 43 60
        E 120 80 43 00
        E 120 90 41 60
        E 120 80 41 00
        E 120 90 3f 60
        E 120 80 3f 00
        E 120 90 3c 60
        E 120 80 3c 00
        E 120 90 3a 60
        E 120 80 3a 00
        E 120 90 3c 60
        E 840 80 3c 00
        <X 120 0
          /wFbYmVnaW5fa2V5IHNvbmdfdHJhaW5lcl9rZXlfMl0=
        >
        <X 0 0
          /wFbZW5kX2tleSBzb25nX3RyYWluZXJfa2V5XzFd
        >
        E 0 90 05 60
        E 0 90 3b 60
        E 120 80 05 00
        E 0 80 3b 00
        E 120 90 3d 60
        E 360 80 3d 00
        E 120 90 3e 60
        E 120 80 3e 00
        E 120 90 3d 60
        E 360 80 3d 00
        E 120 90 3b 60
        E 360 80 3b 00
        E 120 90 3a 60
        E 360 80 3a 00
        E 120 90 3b 60
        E 120 80 3b 00
        E 120 90 36 60
        E 120 80 36 00
        <X 120 0
          /wFba2V5X25vcm0gc29uZ190cmFpbmVyX2tleV8yXQ==
        >
        E 0 90 3b 60
        E 120 80 3b 00
        E 120 90 3d 60
        E 360 80 3d 00
        E 120 90 3e 60
        E 120 80 3e 00
        E 120 90 42 60
        E 360 80 42 00
        E 120 90 3e 60
        E 360 80 3e 00
        E 120 90 3d 60
        E 720 80 3d 00
        E 240 90 3b 60
        E 0 90 74 60
        E 120 80 3b 00
        E 120 90 3d 60
        E 360 80 3d 00
        E 120 90 3e 60
        E 120 80 3e 00
        E 120 90 3d 60
        E 360 80 3d 00
        E 120 90 3b 60
        E 360 80 3b 00
        E 120 90 3a 60
        E 360 80 3a 00
        E 120 90 3b 60
        E 240 80 3b 00
        E 240 90 3b 60
        E 120 80 3b 00
        E 0 80 74 00
        E 120 90 3d 60
        E 360 80 3d 00
        E 120 90 3e 60
        E 120 80 3e 00
        E 120 90 42 60
        E 120 80 42 00
        E 120 90 3e 60
        E 120 80 3e 00
        E 120 90 42 60
        E 1200 80 42 00
        <X 240 0
          /wFbZW5kX2tleSBzb25nX3RyYWluZXJfa2V5XzJd
        >
        E 0 90 07 60
        E 120 80 07 00
        <X 11400 0
          /wFbYmVnaW5fa2V5IHNvbmdfdHJhaW5lcl9rZXlfM10=
        >
        E 0 90 3c 60
        E 120 80 3c 00
        E 120 90 43 60
        E 120 80 43 00
        E 120 90 3f 60
        E 0 90 43 60
        E 120 80 3f 00
        E 0 80 43 00
        E 120 90 3c 60
        E 120 80 3c 00
        E 120 90 37 60
        E 120 80 37 00
        E 120 90 3e 60
        E 120 80 3e 00
        E 120 90 3a 60
        E 0 90 3e 60
        E 120 80 3a 00
        E 0 80 3e 00
        E 120 90 37 60
        E 120 80 37 00
        <X 120 0
          /wFba2V5X25vcm0gc29uZ190cmFpbmVyX2tleV8zXQ==
        >
        E 0 90 3c 60
        E 120 80 3c 00
        E 120 90 3f 60
        E 0 90 43 60
        E 120 80 3f 00
        E 0 80 43 00
        E 120 90 3c 60
        E 120 80 3c 00
        E 120 90 41 60
        E 0 90 45 60
        E 120 80 41 00
        E 0 80 45 00
        E 360 90 45 60
        E 120 80 45 00
        E 120 90 46 60
        E 120 80 46 00
        E 0 90 45 60
        E 120 80 45 00
        E 240 90 3c 60
        E 120 80 3c 00
        E 120 90 43 60
        E 120 80 43 00
        E 120 90 3f 60
        E 0 90 43 60
        E 120 80 3f 00
        E 0 80 43 00
        E 120 90 3c 60
        E 120 80 3c 00
        E 120 90 37 60
        E 120 80 37 00
        E 120 90 3e 60
        E 120 80 3e 00
        E 120 90 3a 60
        E 0 90 3e 60
        E 120 80 3a 00
        E 0 80 3e 00
        E 120 90 37 60
        E 120 80 37 00
        E 120 90 41 60
        E 0 90 74 60
        E 120 80 41 00
        E 120 90 43 60
        E 120 80 43 00
        E 120 90 41 60
        E 120 80 41 00
        E 120 90 3c 60
        E 120 80 3c 00
        E 120 80 74 00
        <X 960 0
          /wFbZW5kX2tleSBzb25nX3RyYWluZXJfa2V5XzNd
        >
        E 0 90 3c 60
        E 120 80 3c 00
        E 120 90 3f 60
        E 120 80 3f 00
        E 120 90 46 60
        E 120 80 46 00
        E 120 90 43 60
        E 120 80 43 00
        E 120 90 41 60
        E 120 80 41 00
        E 120 90 3f 60
        E 120 80 3f 00
        E 120 90 3c 60
        E 360 80 3c 00
        E 120 90 3e 60
        E 120 80 3e 00
        E 120 90 3f 60
        E 120 80 3f 00
        E 120 90 3a 60
        E 360 80 3a 00
        E 120 90 3c 60
        E 120 80 3c 00
        E 120 90 3f 60
        E 120 80 3f 00
        E 120 90 46 60
        E 120 80 46 00
        E 120 90 43 60
        E 120 80 43 00
        E 120 90 41 60
        E 120 80 41 00
        E 120 90 3f 60
        E 120 80 3f 00
        E 120 90 3c 60
        E 120 80 3c 00
        E 120 90 3a 60
        E 120 80 3a 00
        E 120 90 3c 60
        E 840 80 3c 00
        E 120 90 3c 60
        E 120 80 3c 00
        E 120 90 3f 60
        E 120 80 3f 00
        E 120 90 46 60
        E 120 80 46 00
        E 120 90 43 60
        E 120 80 43 00
        E 120 90 41 60
        E 120 80 41 00
        E 120 90 3f 60
        E 120 80 3f 00
        E 120 90 3c 60
        E 360 80 3c 00
        E 120 90 3a 60
        E 120 80 3a 00
        E 120 90 37 60
        E 120 80 37 00
        E 120 90 3e 60
        E 360 80 3e 00
        E 120 90 3c 60
        E 0 90 74 60
        E 120 80 3c 00
        E 120 90 3f 60
        E 120 80 3f 00
        E 120 90 46 60
        E 120 80 46 00
        E 120 90 43 60
        E 120 80 43 00
        E 120 90 41 60
        E 120 80 41 00
        E 120 90 3f 60
        E 120 80 3f 00
        E 120 90 3c 60
        E 120 80 3c 00
        E 120 90 3a 60
        E 120 80 3a 00
        E 120 90 3c 60
        E 840 80 3c 00
        <X 120 0
          /wFbYmVnaW5fa2V5IHNvbmdfdHJhaW5lcl9rZXlfNF0=
        >
        E 0 90 44 60
        E 120 80 44 00
        E 0 90 44 60
        E 0 80 74 00
        E 120 80 44 00
        E 0 90 44 60
        E 120 80 44 00
        E 120 90 3d 60
        E 120 80 3d 00
        E 120 90 42 60
        E 120 80 42 00
        E 0 90 42 60
        E 120 80 42 00
        E 0 90 42 60
        E 120 80 42 00
        E 120 90 3d 60
        E 120 80 3d 00
        E 120 90 42 60
        E 120 80 42 00
        <X 1320 0
          /wFba2V5X25vcm0gc29uZ190cmFpbmVyX2tleV80XQ==
        >
        E 0 90 44 60
        E 120 80 44 00
        E 0 90 44 60
        E 120 80 44 00
        E 0 90 44 60
        E 120 80 44 00
        E 120 90 3d 60
        E 120 80 3d 00
        E 120 90 42 60
        E 120 80 42 00
        E 0 90 42 60
        E 120 80 42 00
        E 0 90 42 60
        E 120 80 42 00
        E 120 90 3d 60
        E 120 80 3d 00
        E 120 90 42 60
        E 120 80 42 00
        E 1320 90 44 60
        E 120 80 44 00
        E 0 90 44 60
        E 120 80 44 00
        E 0 90 44 60
        E 120 80 44 00
        E 120 90 3d 60
        E 120 80 3d 00
        E 120 90 42 60
        E 120 80 42 00
        E 0 90 42 60
        E 120 80 42 00
        E 0 90 42 60
        E 120 80 42 00
        E 120 90 3d 60
        E 120 80 3d 00
        E 120 90 42 60
        E 0 90 74 60
        E 120 80 42 00
        E 120 90 38 60
        E 120 80 38 00
        E 120 90 3a 60
        E 120 80 3a 00
        E 120 90 3d 60
        E 120 80 3d 00
        E 120 90 3f 60
        E 120 80 3f 00
        E 120 90 42 60
        E 120 80 42 00
        E 120 90 3d 60
        E 0 80 74 00
        E 120 80 3d 00
        E 120 90 44 60
        E 120 80 44 00
        E 0 90 44 60
        E 120 80 44 00
        E 0 90 44 60
        E 120 80 44 00
        E 120 90 3d 60
        E 120 80 3d 00
        E 120 90 42 60
        E 120 80 42 00
        E 0 90 42 60
        E 120 80 42 00
        E 0 90 42 60
        E 120 80 42 00
        E 120 90 3d 60
        E 120 80 3d 00
        E 120 90 3f 60
        E 120 80 3f 00
        E 120 90 38 60
        E 120 80 38 00
        E 120 90 3a 60
        E 120 80 3a 00
        E 120 90 3d 60
        E 120 80 3d 00
        E 120 90 3f 60
        E 120 80 3f 00
        <X 120 0
          /wFbZW5kX2tleSBzb25nX3RyYWluZXJfa2V5XzRd
        >
        E 0 90 05 60
        E 0 90 3b 60
        E 120 80 05 00
        E 0 80 3b 00
        E 120 90 3d 60
        E 360 80 3d 00
        E 120 90 3e 60
        E 120 80 3e 00
        E 120 90 3d 60
        E 360 80 3d 00
        E 120 90 3b 60
        E 360 80 3b 00
        E 120 90 3a 60
        E 360 80 3a 00
        E 120 90 3b 60
        E 120 80 3b 00
        E 120 90 36 60
        E 120 80 36 00
        E 120 90 3b 60
        E 120 80 3b 00
        E 120 90 3d 60
        E 360 80 3d 00
        E 120 90 3e 60
        E 120 80 3e 00
        E 120 90 42 60
        E 360 80 42 00
        E 120 90 3e 60
        E 360 80 3e 00
        E 120 90 3d 60
        E 720 80 3d 00
        E 240 90 3b 60
        E 120 80 3b 00
        E 120 90 3d 60
        E 360 80 3d 00
        E 120 90 3e 60
        E 120 80 3e 00
        E 120 90 3d 60
        E 360 80 3d 00
        E 120 90 3b 60
        E 360 80 3b 00
        E 120 90 3a 60
        E 360 80 3a 00
        E 120 90 3b 60
        E 240 80 3b 00
        E 240 90 3b 60
        E 120 80 3b 00
        E 120 90 3d 60
        E 360 80 3d 00
        E 120 90 3e 60
        E 120 80 3e 00
        E 120 90 42 60
        E 120 80 42 00
        E 120 90 3e 60
        E 120 80 3e 00
        E 120 90 42 60
        E 1200 80 42 00
        E 26160 b0 7b 00
        GUID {565F6821-F3B8-41FB-AA05-8C73051B6604}
        IGNTEMPO 0 120.00000000 4 4
        SRCCOLOR 29
        VELLANE 132 128 60
        COLORMAP "C:\Program Files\REAPER (x64)\Data\color_maps\rockband_guitarbass.png"
        TEXTSTRINGFILE "C:\Program Files\REAPER (x64)\Data\Text_Strings\Text Events List - PRO Trainers.txt"
        CFGEDITVIEW 66098.825843 65.271961 0 13 0 0 0
        CFGEDIT 1 1 0 1 1 0 1 1 1 1 1 0.25000000 -7 0 1544 880 0 2 1 1 0.00000000 0 1 1 0 0.500000 0 0 1.000000 64
        KEYSNAP 0 3 "102034050607" 0 "Major"
        EVTFILTER 0 -1 -1 -1 -1 0 1 0 0 -1.00000000 -1.00000000
      >
    >
  >
  <TRACK '{6D3F8C2F-DEEC-4794-9D2B-FA709EC2DAF6}'
    NAME "PART REAL_KEYS_H"
    PEAKCOL 16576
    BEAT -1
    AUTOMODE 0
    VOLPAN 1.00000000000000 0.00000000000000 -1.00000000000000 -1.00000000000000 1.00000000000000
    MUTESOLO 0 0 0
    IPHASE 0
    ISBUS 0 0
    BUSCOMP 0 0
    SHOWINMIX 1 0.666700 0.500000 1 0.500000 -1 -1 -1
    FREEMODE 0
    SEL 0
    REC 0 0 0 0 0 0 0
    VU 2
    TRACKHEIGHT 0 0
    INQ 0 0 0 0.5000000000 100 0 0 100
    NCHAN 2
    FX 0
    TRACKID {6D3F8C2F-DEEC-4794-9D2B-FA709EC2DAF6}
    PERF 0
    MIDIOUT -1
    <MIDINOTENAMES
      0 127 "TRILL MARKER"
      0 126 "GLISSANDO MARKER"
      0 125 "---"
      0 116 "OVERDRIVE"
      0 115 "SOLO"
      0 114 "---"
      0 72 "Highest playable note B#3"
      0 71 "B3"
      0 70 "A#3"
      0 69 "A3"
      0 68 "G#3"
      0 67 "G3"
      0 66 "F#3"
      0 65 "F3"
      0 64 "E3"
      0 63 "D#3"
      0 62 "D3"
      0 61 "C#3"
      0 60 "C3"
      0 59 "B2"
      0 58 "A#2"
      0 57 "A2"
      0 56 "G#2"
      0 55 "G2"
      0 54 "F#2"
      0 53 "F2"
      0 52 "E2"
      0 51 "D#2"
      0 50 "D2"
      0 49 "C#2"
      0 48 "Lowest playable note C2"
      0 10 "---"
      0 9 "Range A2-C4"
      0 8 "Range"
      0 7 "Range"
      0 6 "Range"
      0 5 "Range F2-A3"
      0 4 "Range"
      0 3 "Range"
      0 2 "Range"
      0 1 "Range"
      0 0 "Range C2-E3"
    >
    MAINSEND 1 0
    <FXCHAIN
      WNDRECT 0 43 655 467
      SHOW 0
      LASTSEL 1
      DOCKED 0
      BYPASS 0 0
      <JS "MIDI/midi_note_filter" ""
        48.000000 72.000000 - - - - - - - - - - - - - - - - - - - - - - - - - - - - - - - - - - - - - - - - - - - - - - - - - - - - - - - - - - - - - - 
      >
      FLOATPOS 0 0 0 0
      FXID {24AECE22-2BBC-41BB-951B-81B4F5EA378B}
      WAK 0
      BYPASS 0 0
      <VST "VSTi: ReaSynth (Cockos)" "reasynth.dll" 0 ""
        eXNlcu9e7f4AAAAAAgAAAAEAAAAAAAAAAgAAAAAAAAA4AAAAAAAAAA==
        AAAQAO++rd4N8K3eppvEOxe30ToAAIA/AAAAAAAAAACm+zw96WeIPQ==
        AAAAAAAAAD8AAIA/AACAPwAAAD8AABAAAAA=
      >
      FLOATPOS 0 0 0 0
      FXID {8908BBF5-53FE-4843-B5D3-7E6BF9D880D8}
      WAK 0
    >
    <ITEM
      POSITION 0.00000000000000
      SNAPOFFS 0.00000000000000
      LENGTH 149.57649390171977
      LOOP 0
      ALLTAKES 0
      SEL 0
      FADEIN 1 0.000000 0.000000 1 0
      FADEOUT 1 0.000000 0.000000 1 0
      MUTE 0
      IGUID {4C6DE78F-E829-4BAA-BE4E-3D3B00ED7124}
      IID 10
      NAME "PART REAL_KEYS_H"
      VOLPAN 1.000000 0.000000 1.000000 -1.000000
      SOFFS 0.00000000000000 0.00000000000000
      PLAYRATE 1.00000000000000 1 0.00000000000000 -1
      CHANMODE 0
      GUID {98D741CE-59E2-48B7-9D00-BC5F5B2A6BB3}
      <SOURCE MIDI
        HASDATA 1 480 QN
        POOLEDEVTS {64906146-CB1C-4AB0-B34F-CF503345F3DE}
        <X 0 0
          /wNQQVJUIFJFQUxfS0VZU19I
        >
        E 0 90 07 60
        E 0 90 07 60
        E 0 90 07 60
        E 120 80 07 00
        E 0 80 07 00
        E 0 80 07 00
        E 16200 90 3c 60
        E 120 80 3c 00
        E 120 90 3f 60
        E 120 80 3f 00
        E 120 90 46 60
        E 120 80 46 00
        E 120 90 43 60
        E 120 80 43 00
        E 120 90 41 60
        E 120 80 41 00
        E 120 90 3f 60
        E 120 80 3f 00
        E 120 90 3c 60
        E 360 80 3c 00
        E 120 90 3e 60
        E 120 80 3e 00
        E 120 90 3f 60
        E 120 80 3f 00
        E 120 90 3a 60
        E 360 80 3a 00
        E 120 90 3c 60
        E 120 80 3c 00
        E 120 90 3f 60
        E 120 80 3f 00
        E 120 90 46 60
        E 120 80 46 00
        E 120 90 43 60
        E 120 80 43 00
        E 120 90 41 60
        E 120 80 41 00
        E 120 90 3f 60
        E 120 80 3f 00
        E 120 90 3c 60
        E 120 80 3c 00
        E 120 90 3a 60
        E 120 80 3a 00
        E 120 90 3c 60
        E 840 80 3c 00
        E 120 90 3c 60
        E 120 80 3c 00
        E 120 90 3f 60
        E 120 80 3f 00
        E 120 90 46 60
        E 120 80 46 00
        E 120 90 43 60
        E 120 80 43 00
        E 120 90 41 60
        E 120 80 41 00
        E 120 90 3f 60
        E 120 80 3f 00
        E 120 90 3c 60
        E 360 80 3c 00
        E 120 90 3a 60
        E 120 80 3a 00
        E 120 90 37 60
        E 120 80 37 00
        E 120 90 3e 60
        E 360 80 3e 00
        E 120 90 3c 60
        E 120 80 3c 00
        E 120 90 3f 60
        E 120 80 3f 00
        E 120 90 46 60
        E 120 80 46 00
        E 120 90 43 60
        E 120 80 43 00
        E 120 90 41 60
        E 120 80 41 00
        E 120 90 3f 60
        E 120 80 3f 00
        E 120 90 3c 60
        E 120 80 3c 00
        E 120 90 3a 60
        E 120 80 3a 00
        E 120 90 3c 60
        E 840 80 3c 00
        E 120 90 05 60
        E 0 90 05 60
        E 0 90 05 60
        E 0 90 3b 60
        E 120 80 05 00
        E 0 80 05 00
        E 0 80 05 00
        E 0 80 3b 00
        E 120 90 3d 60
        E 360 80 3d 00
        E 120 90 3e 60
        E 120 80 3e 00
        E 120 90 3d 60
        E 360 80 3d 00
        E 120 90 3b 60
        E 360 80 3b 00
        E 120 90 3a 60
        E 360 80 3a 00
        E 120 90 3b 60
        E 120 80 3b 00
        E 120 90 36 60
        E 120 80 36 00
        E 120 90 3b 60
        E 120 80 3b 00
        E 120 90 3d 60
        E 360 80 3d 00
        E 120 90 3e 60
        E 120 80 3e 00
        E 120 90 42 60
        E 360 80 42 00
        E 120 90 3e 60
        E 360 80 3e 00
        E 120 90 3d 60
        E 720 80 3d 00
        E 240 90 3b 60
        E 120 80 3b 00
        E 120 90 3d 60
        E 360 80 3d 00
        E 120 90 3e 60
        E 120 80 3e 00
        E 120 90 3d 60
        E 360 80 3d 00
        E 120 90 3b 60
        E 360 80 3b 00
        E 120 90 3a 60
        E 360 80 3a 00
        E 120 90 3b 60
        E 240 80 3b 00
        E 240 90 3b 60
        E 120 80 3b 00
        E 120 90 3d 60
        E 360 80 3d 00
        E 120 90 3e 60
        E 120 80 3e 00
        E 120 90 42 60
        E 120 80 42 00
        E 120 90 3e 60
        E 120 80 3e 00
        E 120 90 42 60
        E 1200 80 42 00
        E 240 90 07 60
        E 0 90 07 60
        E 0 90 07 60
        E 120 80 07 00
        E 0 80 07 00
        E 0 80 07 00
        E 11400 90 3c 60
        E 120 80 3c 00
        E 120 90 43 60
        E 120 80 43 00
        E 120 90 3f 60
        E 0 90 43 60
        E 120 80 3f 00
        E 0 80 43 00
        E 120 90 3c 60
        E 120 80 3c 00
        E 120 90 37 60
        E 120 80 37 00
        E 120 90 3e 60
        E 120 80 3e 00
        E 120 90 3a 60
        E 0 90 3e 60
        E 120 80 3a 00
        E 0 80 3e 00
        E 120 90 37 60
        E 120 80 37 00
        E 120 90 3c 60
        E 120 80 3c 00
        E 120 90 3f 60
        E 0 90 43 60
        E 120 80 3f 00
        E 0 80 43 00
        E 120 90 3c 60
        E 120 80 3c 00
        E 120 90 41 60
        E 0 90 45 60
        E 120 80 41 00
        E 0 80 45 00
        E 360 90 45 60
        E 120 80 45 00
        E 120 90 46 60
        E 120 80 46 00
        E 360 90 3c 60
        E 120 80 3c 00
        E 120 90 43 60
        E 120 80 43 00
        E 120 90 3f 60
        E 0 90 43 60
        E 120 80 3f 00
        E 0 80 43 00
        E 120 90 3c 60
        E 120 80 3c 00
        E 120 90 37 60
        E 120 80 37 00
        E 120 90 3e 60
        E 120 80 3e 00
        E 120 90 3a 60
        E 0 90 3e 60
        E 120 80 3a 00
        E 0 80 3e 00
        E 120 90 37 60
        E 120 80 37 00
        E 120 90 41 60
        E 120 80 41 00
        E 120 90 43 60
        E 120 80 43 00
        E 120 90 41 60
        E 120 80 41 00
        E 120 90 3c 60
        E 120 80 3c 00
        E 1080 90 3c 60
        E 120 80 3c 00
        E 120 90 3f 60
        E 120 80 3f 00
        E 120 90 46 60
        E 120 80 46 00
        E 120 90 43 60
        E 120 80 43 00
        E 120 90 41 60
        E 120 80 41 00
        E 120 90 3f 60
        E 120 80 3f 00
        E 120 90 3c 60
        E 360 80 3c 00
        E 120 90 3e 60
        E 120 80 3e 00
        E 120 90 3f 60
        E 120 80 3f 00
        E 120 90 3a 60
        E 360 80 3a 00
        E 120 90 3c 60
        E 120 80 3c 00
        E 120 90 3f 60
        E 120 80 3f 00
        E 120 90 46 60
        E 120 80 46 00
        E 120 90 43 60
        E 120 80 43 00
        E 120 90 41 60
        E 120 80 41 00
        E 120 90 3f 60
        E 120 80 3f 00
        E 120 90 3c 60
        E 120 80 3c 00
        E 120 90 3a 60
        E 120 80 3a 00
        E 120 90 3c 60
        E 840 80 3c 00
        E 120 90 3c 60
        E 120 80 3c 00
        E 120 90 3f 60
        E 120 80 3f 00
        E 120 90 46 60
        E 120 80 46 00
        E 120 90 43 60
        E 120 80 43 00
        E 120 90 41 60
        E 120 80 41 00
        E 120 90 3f 60
        E 120 80 3f 00
        E 120 90 3c 60
        E 360 80 3c 00
        E 120 90 3a 60
        E 120 80 3a 00
        E 120 90 37 60
        E 120 80 37 00
        E 120 90 3e 60
        E 360 80 3e 00
        E 120 90 3c 60
        E 120 80 3c 00
        E 120 90 3f 60
        E 120 80 3f 00
        E 120 90 46 60
        E 120 80 46 00
        E 120 90 43 60
        E 120 80 43 00
        E 120 90 41 60
        E 120 80 41 00
        E 120 90 3f 60
        E 120 80 3f 00
        E 120 90 3c 60
        E 120 80 3c 00
        E 120 90 3a 60
        E 120 80 3a 00
        E 120 90 3c 60
        E 840 80 3c 00
        E 120 90 44 60
        E 120 80 44 00
        E 120 90 44 60
        E 120 80 44 00
        E 120 90 3d 60
        E 120 80 3d 00
        E 120 90 42 60
        E 120 80 42 00
        E 120 90 42 60
        E 120 80 42 00
        E 120 90 3d 60
        E 120 80 3d 00
        E 120 90 42 60
        E 120 80 42 00
        E 1320 90 44 60
        E 120 80 44 00
        E 120 90 44 60
        E 120 80 44 00
        E 120 90 3d 60
        E 120 80 3d 00
        E 120 90 42 60
        E 120 80 42 00
        E 120 90 42 60
        E 120 80 42 00
        E 120 90 3d 60
        E 120 80 3d 00
        E 120 90 42 60
        E 120 80 42 00
        E 1320 90 44 60
        E 120 80 44 00
        E 120 90 44 60
        E 120 80 44 00
        E 120 90 3d 60
        E 120 80 3d 00
        E 120 90 42 60
        E 120 80 42 00
        E 120 90 42 60
        E 120 80 42 00
        E 120 90 3d 60
        E 120 80 3d 00
        E 120 90 42 60
        E 120 80 42 00
        E 120 90 38 60
        E 120 80 38 00
        E 120 90 3a 60
        E 120 80 3a 00
        E 120 90 3d 60
        E 120 80 3d 00
        E 120 90 3f 60
        E 120 80 3f 00
        E 120 90 42 60
        E 120 80 42 00
        E 120 90 3d 60
        E 120 80 3d 00
        E 120 90 44 60
        E 120 80 44 00
        E 120 90 44 60
        E 120 80 44 00
        E 120 90 3d 60
        E 120 80 3d 00
        E 120 90 42 60
        E 120 80 42 00
        E 120 90 42 60
        E 120 80 42 00
        E 120 90 3d 60
        E 120 80 3d 00
        E 120 90 3f 60
        E 120 80 3f 00
        E 120 90 38 60
        E 120 80 38 00
        E 120 90 3a 60
        E 120 80 3a 00
        E 120 90 3d 60
        E 120 80 3d 00
        E 120 90 3f 60
        E 120 80 3f 00
        E 120 90 05 60
        E 0 90 05 60
        E 0 90 05 60
        E 0 90 3b 60
        E 120 80 05 00
        E 0 80 05 00
        E 0 80 05 00
        E 0 80 3b 00
        E 120 90 3d 60
        E 360 80 3d 00
        E 120 90 3e 60
        E 120 80 3e 00
        E 120 90 3d 60
        E 360 80 3d 00
        E 120 90 3b 60
        E 360 80 3b 00
        E 120 90 3a 60
        E 360 80 3a 00
        E 120 90 3b 60
        E 120 80 3b 00
        E 120 90 36 60
        E 120 80 36 00
        E 120 90 3b 60
        E 120 80 3b 00
        E 120 90 3d 60
        E 360 80 3d 00
        E 120 90 3e 60
        E 120 80 3e 00
        E 120 90 42 60
        E 360 80 42 00
        E 120 90 3e 60
        E 360 80 3e 00
        E 120 90 3d 60
        E 720 80 3d 00
        E 240 90 3b 60
        E 120 80 3b 00
        E 120 90 3d 60
        E 360 80 3d 00
        E 120 90 3e 60
        E 120 80 3e 00
        E 120 90 3d 60
        E 360 80 3d 00
        E 120 90 3b 60
        E 360 80 3b 00
        E 120 90 3a 60
        E 360 80 3a 00
        E 120 90 3b 60
        E 240 80 3b 00
        E 240 90 3b 60
        E 120 80 3b 00
        E 120 90 3d 60
        E 360 80 3d 00
        E 120 90 3e 60
        E 120 80 3e 00
        E 120 90 42 60
        E 120 80 42 00
        E 120 90 3e 60
        E 120 80 3e 00
        E 120 90 42 60
        E 1200 80 42 00
        E 26160 b0 7b 00
        GUID {565F6821-F3B8-41FB-AA05-8C73051B6604}
        IGNTEMPO 0 120.00000000 4 4
        SRCCOLOR 29
        VELLANE 132 128 60
        COLORMAP "C:\Program Files\REAPER (x64)\Data\color_maps\rockband_guitarbass.png"
        TEXTSTRINGFILE "C:\Program Files\REAPER (x64)\Data\Text_Strings\Text Events List - PRO Trainers.txt"
        CFGEDITVIEW -7778.510458 7.507864 0 13 0 0 0
        CFGEDIT 1 1 0 1 1 0 1 1 1 1 1 0.25000000 -7 0 1544 880 0 2 1 1 0.00000000 0 1 1 0 0.500000 0 0 1.000000 64
        KEYSNAP 0 3 "102034050607" 0 "Major"
        EVTFILTER 0 -1 -1 -1 -1 0 1 0 0 -1.00000000 -1.00000000
      >
    >
  >
  <TRACK '{8F52B843-B20A-4D2B-AF19-205639A076F5}'
    NAME "PART REAL_KEYS_M"
    PEAKCOL 16576
    BEAT -1
    AUTOMODE 0
    VOLPAN 1.00000000000000 0.00000000000000 -1.00000000000000 -1.00000000000000 1.00000000000000
    MUTESOLO 0 0 0
    IPHASE 0
    ISBUS 0 0
    BUSCOMP 0 0
    SHOWINMIX 1 0.666700 0.500000 1 0.500000 -1 -1 -1
    FREEMODE 0
    SEL 0
    REC 0 0 0 0 0 0 0
    VU 2
    TRACKHEIGHT 0 0
    INQ 0 0 0 0.5000000000 100 0 0 100
    NCHAN 2
    FX 0
    TRACKID {8F52B843-B20A-4D2B-AF19-205639A076F5}
    PERF 0
    MIDIOUT -1
    <MIDINOTENAMES
      0 127 "TRILL MARKER"
      0 126 "GLISSANDO MARKER"
      0 125 "---"
      0 116 "OVERDRIVE"
      0 115 "SOLO"
      0 114 "---"
      0 72 "Highest playable note B#3"
      0 71 "B3"
      0 70 "A#3"
      0 69 "A3"
      0 68 "G#3"
      0 67 "G3"
      0 66 "F#3"
      0 65 "F3"
      0 64 "E3"
      0 63 "D#3"
      0 62 "D3"
      0 61 "C#3"
      0 60 "C3"
      0 59 "B2"
      0 58 "A#2"
      0 57 "A2"
      0 56 "G#2"
      0 55 "G2"
      0 54 "F#2"
      0 53 "F2"
      0 52 "E2"
      0 51 "D#2"
      0 50 "D2"
      0 49 "C#2"
      0 48 "Lowest playable note C2"
      0 10 "---"
      0 9 "Range A2-C4"
      0 8 "Range"
      0 7 "Range"
      0 6 "Range"
      0 5 "Range F2-A3"
      0 4 "Range"
      0 3 "Range"
      0 2 "Range"
      0 1 "Range"
      0 0 "Range C2-E3"
    >
    MAINSEND 1 0
    <FXCHAIN
      WNDRECT 0 43 655 467
      SHOW 0
      LASTSEL 1
      DOCKED 0
      BYPASS 0 0
      <JS "MIDI/midi_note_filter" ""
        48.000000 72.000000 - - - - - - - - - - - - - - - - - - - - - - - - - - - - - - - - - - - - - - - - - - - - - - - - - - - - - - - - - - - - - - 
      >
      FLOATPOS 0 0 0 0
      FXID {24AECE22-2BBC-41BB-951B-81B4F5EA378B}
      WAK 0
      BYPASS 0 0
      <VST "VSTi: ReaSynth (Cockos)" "reasynth.dll" 0 ""
        eXNlcu9e7f4AAAAAAgAAAAEAAAAAAAAAAgAAAAAAAAA4AAAAAAAAAA==
        AAAQAO++rd4N8K3eppvEOxe30ToAAIA/AAAAAAAAAACm+zw96WeIPQ==
        AAAAAAAAAD8AAIA/AACAPwAAAD8AABAAAAA=
      >
      FLOATPOS 0 0 0 0
      FXID {8908BBF5-53FE-4843-B5D3-7E6BF9D880D8}
      WAK 0
    >
    <ITEM
      POSITION 0.00000000000000
      SNAPOFFS 0.00000000000000
      LENGTH 149.57649390171977
      LOOP 0
      ALLTAKES 0
      SEL 0
      FADEIN 1 0.000000 0.000000 1 0
      FADEOUT 1 0.000000 0.000000 1 0
      MUTE 0
      IGUID {4C6DE78F-E829-4BAA-BE4E-3D3B00ED7124}
      IID 10
      NAME "PART REAL_KEYS_M"
      VOLPAN 1.000000 0.000000 1.000000 -1.000000
      SOFFS 0.00000000000000 0.00000000000000
      PLAYRATE 1.00000000000000 1 0.00000000000000 -1
      CHANMODE 0
      GUID {98D741CE-59E2-48B7-9D00-BC5F5B2A6BB3}
      <SOURCE MIDI
        HASDATA 1 480 QN
        POOLEDEVTS {16F219B2-7A7D-4488-87ED-AE3D00A2FFE1}
        <X 0 0
          /wNQQVJUIFJFQUxfS0VZU19N
        >
        E 0 90 07 60
        E 0 90 07 60
        E 0 90 07 60
        E 0 90 07 60
        E 0 90 07 60
        E 0 90 07 60
        E 120 80 07 00
        E 0 80 07 00
        E 0 80 07 00
        E 0 80 07 00
        E 0 80 07 00
        E 0 80 07 00
        E 16200 90 3c 60
        E 120 80 3c 00
        E 360 90 46 60
        E 120 80 46 00
        E 360 90 41 60
        E 120 80 41 00
        E 360 90 3c 60
        E 120 80 3c 00
        E 360 90 3e 60
        E 120 80 3e 00
        E 360 90 3a 60
        E 120 80 3a 00
        E 360 90 3c 60
        E 120 80 3c 00
        E 360 90 46 60
        E 120 80 46 00
        E 360 90 41 60
        E 120 80 41 00
        E 360 90 3c 60
        E 120 80 3c 00
        E 360 90 3c 60
        E 480 80 3c 00
        E 480 90 3c 60
        E 120 80 3c 00
        E 360 90 46 60
        E 120 80 46 00
        E 360 90 41 60
        E 120 80 41 00
        E 360 90 3c 60
        E 120 80 3c 00
        E 360 90 3a 60
        E 120 80 3a 00
        E 360 90 3e 60
        E 120 80 3e 00
        E 360 90 3c 60
        E 120 80 3c 00
        E 360 90 46 60
        E 120 80 46 00
        E 360 90 41 60
        E 120 80 41 00
        E 360 90 3c 60
        E 120 80 3c 00
        E 360 90 3c 60
        E 480 80 3c 00
        E 480 90 05 60
        E 0 90 05 60
        E 0 90 05 60
        E 0 90 05 60
        E 0 90 05 60
        E 0 90 05 60
        E 0 90 3b 60
        E 120 80 05 00
        E 0 80 05 00
        E 0 80 05 00
        E 0 80 05 00
        E 0 80 05 00
        E 0 80 05 00
        E 0 80 3b 00
        E 840 90 3d 60
        E 120 80 3d 00
        E 360 90 3b 60
        E 120 80 3b 00
        E 360 90 3a 60
        E 120 80 3a 00
        E 360 90 3b 60
        E 120 80 3b 00
        E 360 90 3b 60
        E 120 80 3b 00
        E 840 90 42 60
        E 120 80 42 00
        E 360 90 3e 60
        E 120 80 3e 00
        E 360 90 3d 60
        E 480 80 3d 00
        E 480 90 3b 60
        E 120 80 3b 00
        E 840 90 3d 60
        E 120 80 3d 00
        E 360 90 3b 60
        E 120 80 3b 00
        E 360 90 3a 60
        E 120 80 3a 00
        E 360 90 3b 60
        E 120 80 3b 00
        E 360 90 3b 60
        E 120 80 3b 00
        E 840 90 42 60
        E 120 80 42 00
        E 360 90 42 60
        E 1200 80 42 00
        E 240 90 07 60
        E 0 90 07 60
        E 0 90 07 60
        E 0 90 07 60
        E 0 90 07 60
        E 0 90 07 60
        E 120 80 07 00
        E 0 80 07 00
        E 0 80 07 00
        E 0 80 07 00
        E 0 80 07 00
        E 0 80 07 00
        E 11400 90 3c 60
        E 120 80 3c 00
        E 360 90 3f 60
        E 0 90 43 60
        E 120 80 3f 00
        E 0 80 43 00
        E 360 90 37 60
        E 120 80 37 00
        E 360 90 3a 60
        E 0 90 3e 60
        E 120 80 3a 00
        E 0 80 3e 00
        E 360 90 3c 60
        E 120 80 3c 00
        E 360 90 3c 60
        E 120 80 3c 00
        E 600 90 45 60
        E 120 80 45 00
        E 120 90 46 60
        E 120 80 46 00
        E 360 90 3c 60
        E 120 80 3c 00
        E 360 90 3f 60
        E 0 90 43 60
        E 120 80 3f 00
        E 0 80 43 00
        E 360 90 37 60
        E 120 80 37 00
        E 360 90 3a 60
        E 0 90 3e 60
        E 120 80 3a 00
        E 0 80 3e 00
        E 360 90 41 60
        E 120 80 41 00
        E 360 90 41 60
        E 120 80 41 00
        E 1320 90 3c 60
        E 120 80 3c 00
        E 360 90 46 60
        E 120 80 46 00
        E 360 90 41 60
        E 120 80 41 00
        E 360 90 3c 60
        E 120 80 3c 00
        E 360 90 3e 60
        E 120 80 3e 00
        E 360 90 3a 60
        E 120 80 3a 00
        E 360 90 3c 60
        E 120 80 3c 00
        E 360 90 46 60
        E 120 80 46 00
        E 360 90 41 60
        E 120 80 41 00
        E 360 90 3c 60
        E 120 80 3c 00
        E 360 90 3c 60
        E 480 80 3c 00
        E 480 90 3c 60
        E 120 80 3c 00
        E 360 90 46 60
        E 120 80 46 00
        E 360 90 41 60
        E 120 80 41 00
        E 360 90 3c 60
        E 120 80 3c 00
        E 360 90 3a 60
        E 120 80 3a 00
        E 360 90 3e 60
        E 120 80 3e 00
        E 360 90 3c 60
        E 120 80 3c 00
        E 360 90 46 60
        E 120 80 46 00
        E 360 90 41 60
        E 120 80 41 00
        E 360 90 3c 60
        E 120 80 3c 00
        E 360 90 3c 60
        E 480 80 3c 00
        E 480 90 44 60
        E 120 80 44 00
        E 360 90 3d 60
        E 120 80 3d 00
        E 360 90 42 60
        E 120 80 42 00
        E 360 90 42 60
        E 120 80 42 00
        E 1320 90 44 60
        E 120 80 44 00
        E 360 90 3d 60
        E 120 80 3d 00
        E 360 90 42 60
        E 120 80 42 00
        E 360 90 42 60
        E 120 80 42 00
        E 1320 90 44 60
        E 120 80 44 00
        E 360 90 3d 60
        E 120 80 3d 00
        E 360 90 42 60
        E 120 80 42 00
        E 360 90 42 60
        E 120 80 42 00
        E 360 90 3a 60
        E 120 80 3a 00
        E 360 90 3f 60
        E 120 80 3f 00
        E 360 90 3d 60
        E 120 80 3d 00
        E 360 90 44 60
        E 120 80 44 00
        E 360 90 42 60
        E 120 80 42 00
        E 360 90 3d 60
        E 120 80 3d 00
        E 360 90 38 60
        E 120 80 38 00
        E 360 90 3d 60
        E 120 80 3d 00
        E 360 90 05 60
        E 0 90 05 60
        E 0 90 05 60
        E 0 90 05 60
        E 0 90 05 60
        E 0 90 05 60
        E 0 90 3b 60
        E 120 80 05 00
        E 0 80 05 00
        E 0 80 05 00
        E 0 80 05 00
        E 0 80 05 00
        E 0 80 05 00
        E 0 80 3b 00
        E 840 90 3d 60
        E 120 80 3d 00
        E 360 90 3b 60
        E 120 80 3b 00
        E 360 90 3a 60
        E 120 80 3a 00
        E 360 90 3b 60
        E 120 80 3b 00
        E 360 90 3b 60
        E 120 80 3b 00
        E 840 90 42 60
        E 120 80 42 00
        E 360 90 3e 60
        E 120 80 3e 00
        E 360 90 3d 60
        E 480 80 3d 00
        E 480 90 3b 60
        E 120 80 3b 00
        E 840 90 3d 60
        E 120 80 3d 00
        E 360 90 3b 60
        E 120 80 3b 00
        E 360 90 3a 60
        E 120 80 3a 00
        E 360 90 3b 60
        E 120 80 3b 00
        E 360 90 3b 60
        E 120 80 3b 00
        E 840 90 42 60
        E 120 80 42 00
        E 360 90 42 60
        E 1200 80 42 00
        E 26160 b0 7b 00
        GUID {565F6821-F3B8-41FB-AA05-8C73051B6604}
        IGNTEMPO 0 120.00000000 4 4
        SRCCOLOR 29
        VELLANE 132 128 60
        COLORMAP "C:\Program Files\REAPER (x64)\Data\color_maps\rockband_guitarbass.png"
        TEXTSTRINGFILE "C:\Program Files\REAPER (x64)\Data\Text_Strings\Text Events List - PRO Trainers.txt"
        CFGEDITVIEW 7759.155830 32.993280 0 13 0 0 0
        CFGEDIT 1 1 0 1 1 0 1 1 1 1 1 0.25000000 -7 0 1544 880 0 2 1 1 0.00000000 0 1 1 0 0.500000 0 0 1.000000 64
        KEYSNAP 0 3 "102034050607" 0 "Major"
        EVTFILTER 0 -1 -1 -1 -1 0 1 0 0 -1.00000000 -1.00000000
      >
    >
  >
  <TRACK '{3FB8FBAA-8172-492A-8732-D868FCD2B3F7}'
    NAME "PART REAL_KEYS_E"
    PEAKCOL 16576
    BEAT -1
    AUTOMODE 0
    VOLPAN 1.00000000000000 0.00000000000000 -1.00000000000000 -1.00000000000000 1.00000000000000
    MUTESOLO 0 0 0
    IPHASE 0
    ISBUS 0 0
    BUSCOMP 0 0
    SHOWINMIX 1 0.666700 0.500000 1 0.500000 -1 -1 -1
    FREEMODE 0
    SEL 0
    REC 0 0 0 0 0 0 0
    VU 2
    TRACKHEIGHT 0 0
    INQ 0 0 0 0.5000000000 100 0 0 100
    NCHAN 2
    FX 0
    TRACKID {3FB8FBAA-8172-492A-8732-D868FCD2B3F7}
    PERF 0
    MIDIOUT -1
    <MIDINOTENAMES
      0 127 "TRILL MARKER"
      0 126 "GLISSANDO MARKER"
      0 125 "---"
      0 116 "OVERDRIVE"
      0 115 "SOLO"
      0 114 "---"
      0 72 "Highest playable note B#3"
      0 71 "B3"
      0 70 "A#3"
      0 69 "A3"
      0 68 "G#3"
      0 67 "G3"
      0 66 "F#3"
      0 65 "F3"
      0 64 "E3"
      0 63 "D#3"
      0 62 "D3"
      0 61 "C#3"
      0 60 "C3"
      0 59 "B2"
      0 58 "A#2"
      0 57 "A2"
      0 56 "G#2"
      0 55 "G2"
      0 54 "F#2"
      0 53 "F2"
      0 52 "E2"
      0 51 "D#2"
      0 50 "D2"
      0 49 "C#2"
      0 48 "Lowest playable note C2"
      0 10 "---"
      0 9 "Range A2-C4"
      0 8 "Range"
      0 7 "Range"
      0 6 "Range"
      0 5 "Range F2-A3"
      0 4 "Range"
      0 3 "Range"
      0 2 "Range"
      0 1 "Range"
      0 0 "Range C2-E3"
    >
    MAINSEND 1 0
    <FXCHAIN
      WNDRECT 0 43 655 467
      SHOW 0
      LASTSEL 1
      DOCKED 0
      BYPASS 0 0
      <JS "MIDI/midi_note_filter" ""
        48.000000 72.000000 - - - - - - - - - - - - - - - - - - - - - - - - - - - - - - - - - - - - - - - - - - - - - - - - - - - - - - - - - - - - - - 
      >
      FLOATPOS 0 0 0 0
      FXID {24AECE22-2BBC-41BB-951B-81B4F5EA378B}
      WAK 0
      BYPASS 0 0
      <VST "VSTi: ReaSynth (Cockos)" "reasynth.dll" 0 ""
        eXNlcu9e7f4AAAAAAgAAAAEAAAAAAAAAAgAAAAAAAAA4AAAAAAAAAA==
        AAAQAO++rd4N8K3eppvEOxe30ToAAIA/AAAAAAAAAACm+zw96WeIPQ==
        AAAAAAAAAD8AAIA/AACAPwAAAD8AABAAAAA=
      >
      FLOATPOS 0 0 0 0
      FXID {8908BBF5-53FE-4843-B5D3-7E6BF9D880D8}
      WAK 0
    >
    <ITEM
      POSITION 0.00000000000000
      SNAPOFFS 0.00000000000000
      LENGTH 149.57649390171977
      LOOP 0
      ALLTAKES 0
      SEL 0
      FADEIN 1 0.000000 0.000000 1 0
      FADEOUT 1 0.000000 0.000000 1 0
      MUTE 0
      IGUID {4C6DE78F-E829-4BAA-BE4E-3D3B00ED7124}
      IID 10
      NAME "PART REAL_KEYS_E"
      VOLPAN 1.000000 0.000000 1.000000 -1.000000
      SOFFS 0.00000000000000 0.00000000000000
      PLAYRATE 1.00000000000000 1 0.00000000000000 -1
      CHANMODE 0
      GUID {98D741CE-59E2-48B7-9D00-BC5F5B2A6BB3}
      <SOURCE MIDI
        HASDATA 1 480 QN
        POOLEDEVTS {B04CD2E5-B020-4AB0-AF63-F96E3374FEAB}
        <X 0 0
          /wNQQVJUIFJFQUxfS0VZU19F
        >
        E 0 90 05 60
        E 0 90 05 60
        E 0 90 05 60
        E 0 90 05 60
        E 0 90 05 60
        E 0 90 05 60
        E 0 90 05 60
        E 0 90 05 60
        E 0 90 05 60
        E 0 90 05 60
        E 120 80 05 00
        E 0 80 05 00
        E 0 80 05 00
        E 0 80 05 00
        E 0 80 05 00
        E 0 80 05 00
        E 0 80 05 00
        E 0 80 05 00
        E 0 80 05 00
        E 0 80 05 00
        e 16200 90 3c 60
        e 120 80 3c 00
        e 840 90 41 60
        e 120 80 41 00
        e 840 90 3e 60
        e 120 80 3e 00
        e 840 90 3c 60
        e 120 80 3c 00
        e 840 90 41 60
        e 120 80 41 00
        e 840 90 3c 60
        e 120 80 3c 00
        e 840 90 3c 60
        e 120 80 3c 00
        e 840 90 41 60
        e 120 80 41 00
        e 840 90 3a 60
        e 120 80 3a 00
        e 840 90 3c 60
        e 120 80 3c 00
        e 840 90 41 60
        e 120 80 41 00
        e 840 90 3c 60
        e 120 80 3c 00
        e 840 90 3b 60
        e 120 80 3b 00
        e 840 90 3d 60
        e 120 80 3d 00
        e 840 90 3a 60
        e 120 80 3a 00
        e 840 90 3b 60
        e 120 80 3b 00
        e 840 90 42 60
        e 120 80 42 00
        e 840 90 3d 60
        e 120 80 3d 00
        e 840 90 3b 60
        e 120 80 3b 00
        e 840 90 3d 60
        e 120 80 3d 00
        e 840 90 3a 60
        e 120 80 3a 00
        e 840 90 3b 60
        e 120 80 3b 00
        e 840 90 42 60
        e 120 80 42 00
        E 360 90 42 60
        E 1200 80 42 00
        e 11760 90 3c 60
        e 120 80 3c 00
        e 840 90 37 60
        e 120 80 37 00
        e 840 90 3c 60
        e 120 80 3c 00
        e 360 90 3c 60
        e 120 80 3c 00
        e 840 90 3a 60
        e 120 80 3a 00
        e 360 90 3c 60
        e 120 80 3c 00
        e 840 90 37 60
        e 120 80 37 00
        e 840 90 41 60
        e 120 80 41 00
        e 1800 90 3c 60
        e 120 80 3c 00
        e 840 90 41 60
        e 120 80 41 00
        e 840 90 3e 60
        e 120 80 3e 00
        e 840 90 3c 60
        e 120 80 3c 00
        e 840 90 41 60
        e 120 80 41 00
        e 840 90 3c 60
        e 120 80 3c 00
        e 840 90 3c 60
        e 120 80 3c 00
        e 840 90 41 60
        e 120 80 41 00
        e 840 90 3a 60
        e 120 80 3a 00
        e 840 90 3c 60
        e 120 80 3c 00
        e 840 90 41 60
        e 120 80 41 00
        e 840 90 3c 60
        e 120 80 3c 00
        e 840 90 44 60
        e 120 80 44 00
        e 840 90 42 60
        e 120 80 42 00
        e 360 90 42 60
        e 120 80 42 00
        e 1320 90 44 60
        e 120 80 44 00
        e 840 90 42 60
        e 120 80 42 00
        e 360 90 42 60
        e 120 80 42 00
        e 1320 90 44 60
        e 120 80 44 00
        e 840 90 42 60
        e 120 80 42 00
        e 840 90 3a 60
        e 120 80 3a 00
        e 840 90 3d 60
        e 120 80 3d 00
        e 840 90 42 60
        e 120 80 42 00
        e 840 90 38 60
        e 120 80 38 00
        e 840 90 3b 60
        e 120 80 3b 00
        e 840 90 3d 60
        e 120 80 3d 00
        e 840 90 3a 60
        e 120 80 3a 00
        e 840 90 3b 60
        e 120 80 3b 00
        e 840 90 42 60
        e 120 80 42 00
        e 840 90 3d 60
        e 120 80 3d 00
        e 840 90 3b 60
        e 120 80 3b 00
        e 840 90 3d 60
        e 120 80 3d 00
        e 840 90 3a 60
        e 120 80 3a 00
        e 840 90 3b 60
        e 120 80 3b 00
        e 840 90 42 60
        e 120 80 42 00
        E 360 90 42 60
        E 1200 80 42 00
        E 26160 b0 7b 00
        GUID {565F6821-F3B8-41FB-AA05-8C73051B6604}
        IGNTEMPO 0 120.00000000 4 4
        SRCCOLOR 29
        VELLANE 132 128 60
        COLORMAP "C:\Program Files\REAPER (x64)\Data\color_maps\rockband_guitarbass.png"
        TEXTSTRINGFILE "C:\Program Files\REAPER (x64)\Data\Text_Strings\Text Events List - PRO Trainers.txt"
        CFGEDITVIEW 16245.732520 32.993280 0 13 0 0 0
        CFGEDIT 1 1 0 1 1 0 1 1 1 1 1 0.25000000 -7 0 1544 880 0 2 1 1 0.00000000 0 1 1 0 0.500000 0 0 1.000000 64
        KEYSNAP 0 3 "102034050607" 0 "Major"
        EVTFILTER 0 -1 -1 -1 -1 0 1 0 0 -1.00000000 -1.00000000
      >
    >
  >
  <TRACK '{550AEC99-424C-4F7A-AFB2-3F6C187912D9}'
    NAME "PART KEYS_ANIM_RH"
    PEAKCOL 16576
    BEAT -1
    AUTOMODE 0
    VOLPAN 1.00000000000000 0.00000000000000 -1.00000000000000 -1.00000000000000 1.00000000000000
    MUTESOLO 0 0 0
    IPHASE 0
    ISBUS 0 0
    BUSCOMP 0 0
    SHOWINMIX 1 0.666700 0.500000 1 0.500000 -1 -1 -1
    FREEMODE 0
    SEL 0
    REC 0 0 0 0 0 0 0
    VU 2
    TRACKHEIGHT 0 0
    INQ 0 0 0 0.5000000000 100 0 0 100
    NCHAN 2
    FX 0
    TRACKID {550AEC99-424C-4F7A-AFB2-3F6C187912D9}
    PERF 0
    MIDIOUT -1
    <MIDINOTENAMES
      0 72 "Highest playable note B#3"
      0 71 "B3"
      0 70 "A#3"
      0 69 "A3"
      0 68 "G#3"
      0 67 "G3"
      0 66 "F#3"
      0 65 "F3"
      0 64 "E3"
      0 63 "D#3"
      0 62 "D3"
      0 61 "C#3"
      0 60 "C3"
      0 59 "B2"
      0 58 "A#2"
      0 57 "A2"
      0 56 "G#2"
      0 55 "G2"
      0 54 "F#2"
      0 53 "F2"
      0 52 "E2"
      0 51 "D#2"
      0 50 "D2"
      0 49 "C#2"
      0 48 "Lowest playable note C2"
    >
    MAINSEND 1 0
    <FXCHAIN
      WNDRECT 0 43 655 467
      SHOW 0
      LASTSEL 1
      DOCKED 0
      BYPASS 0 0
      <JS "MIDI/midi_note_filter" ""
        48.000000 72.000000 - - - - - - - - - - - - - - - - - - - - - - - - - - - - - - - - - - - - - - - - - - - - - - - - - - - - - - - - - - - - - - 
      >
      FLOATPOS 0 0 0 0
      FXID {24AECE22-2BBC-41BB-951B-81B4F5EA378B}
      WAK 0
      BYPASS 0 0
      <VST "VSTi: ReaSynth (Cockos)" "reasynth.dll" 0 ""
        eXNlcu9e7f4AAAAAAgAAAAEAAAAAAAAAAgAAAAAAAAA4AAAAAAAAAA==
        AAAQAO++rd4N8K3eppvEOxe30ToAAIA/AAAAAAAAAACm+zw96WeIPQ==
        AAAAAAAAAD8AAIA/AACAPwAAAD8AABAAAAA=
      >
      FLOATPOS 0 0 0 0
      FXID {8908BBF5-53FE-4843-B5D3-7E6BF9D880D8}
      WAK 0
    >
    <ITEM
      POSITION 0.00000000000000
      SNAPOFFS 0.00000000000000
      LENGTH 149.57649390171977
      LOOP 0
      ALLTAKES 0
      SEL 0
      FADEIN 1 0.000000 0.000000 1 0
      FADEOUT 1 0.000000 0.000000 1 0
      MUTE 0
      IGUID {4C6DE78F-E829-4BAA-BE4E-3D3B00ED7124}
      IID 10
      NAME "PART KEYS_ANIM_RH"
      VOLPAN 1.000000 0.000000 1.000000 -1.000000
      SOFFS 0.00000000000000 0.00000000000000
      PLAYRATE 1.00000000000000 1 0.00000000000000 -1
      CHANMODE 0
      GUID {98D741CE-59E2-48B7-9D00-BC5F5B2A6BB3}
      <SOURCE MIDI
        HASDATA 1 480 QN
        POOLEDEVTS {CB803240-707A-42E3-83DD-AE95F51A517A}
        <X 0 0
          /wNQQVJUIEtFWVNfQU5JTV9SSA==
        >
        E 16320 90 3c 60
        E 120 90 3c 00
        E 120 90 3f 60
        E 120 90 3f 00
        E 120 90 46 60
        E 120 90 46 00
        E 120 90 43 60
        E 120 90 43 00
        E 120 90 41 60
        E 120 90 41 00
        E 120 90 3f 60
        E 120 90 3f 00
        E 120 90 3c 60
        E 360 90 3c 00
        E 120 90 3e 60
        E 120 90 3e 00
        E 120 90 3f 60
        E 120 90 3f 00
        E 120 90 3a 60
        E 360 90 3a 00
        E 120 90 3c 60
        E 120 90 3c 00
        E 120 90 3f 60
        E 120 90 3f 00
        E 120 90 46 60
        E 120 90 46 00
        E 120 90 43 60
        E 120 90 43 00
        E 120 90 41 60
        E 120 90 41 00
        E 120 90 3f 60
        E 120 90 3f 00
        E 120 90 3c 60
        E 120 90 3c 00
        E 120 90 3a 60
        E 120 90 3a 00
        E 120 90 3c 60
        E 840 90 3c 00
        E 120 90 3c 60
        E 120 90 3c 00
        E 120 90 3f 60
        E 120 90 3f 00
        E 120 90 46 60
        E 120 90 46 00
        E 120 90 43 60
        E 120 90 43 00
        E 120 90 41 60
        E 120 90 41 00
        E 120 90 3f 60
        E 120 90 3f 00
        E 120 90 3c 60
        E 360 90 3c 00
        E 120 90 3a 60
        E 120 90 3a 00
        E 120 90 37 60
        E 120 90 37 00
        E 120 90 3e 60
        E 360 90 3e 00
        E 120 90 3c 60
        E 120 90 3c 00
        E 120 90 3f 60
        E 120 90 3f 00
        E 120 90 46 60
        E 120 90 46 00
        E 120 90 43 60
        E 120 90 43 00
        E 120 90 41 60
        E 120 90 41 00
        E 120 90 3f 60
        E 120 90 3f 00
        E 120 90 3c 60
        E 120 90 3c 00
        E 120 90 3a 60
        E 120 90 3a 00
        E 120 90 3c 60
        E 840 90 3c 00
        E 120 90 3b 60
        E 120 90 3b 00
        E 120 90 3d 60
        E 360 90 3d 00
        E 120 90 3e 60
        E 120 90 3e 00
        E 120 90 3d 60
        E 360 90 3d 00
        E 120 90 3b 60
        E 360 90 3b 00
        E 120 90 3a 60
        E 360 90 3a 00
        E 120 90 3b 60
        E 120 90 3b 00
        E 120 90 36 60
        E 120 90 36 00
        E 120 90 3b 60
        E 120 90 3b 00
        E 120 90 3d 60
        E 360 90 3d 00
        E 120 90 3e 60
        E 120 90 3e 00
        E 120 90 42 60
        E 360 90 42 00
        E 120 90 3e 60
        E 360 90 3e 00
        E 120 90 3d 60
        E 720 90 3d 00
        E 240 90 3b 60
        E 120 90 3b 00
        E 120 90 3d 60
        E 360 90 3d 00
        E 120 90 3e 60
        E 120 90 3e 00
        E 120 90 3d 60
        E 360 90 3d 00
        E 120 90 3b 60
        E 360 90 3b 00
        E 120 90 3a 60
        E 360 90 3a 00
        E 120 90 3b 60
        E 240 90 3b 00
        E 240 90 3b 60
        E 120 90 3b 00
        E 120 90 3d 60
        E 360 90 3d 00
        E 120 90 3e 60
        E 120 90 3e 00
        E 120 90 42 60
        E 120 90 42 00
        E 120 90 3e 60
        E 120 90 3e 00
        E 120 90 42 60
        E 1200 90 42 00
        E 11760 90 3c 60
        E 120 90 3c 00 164
        E 120 90 43 60
        E 120 90 43 00 152
        E 120 90 3f 60
        E 0 90 43 60
        E 120 90 3f 00 160
        E 0 90 43 00 104
        E 120 90 3c 60
        E 120 90 3c 00 80
        E 120 90 37 60
        E 120 90 37 00 148
        E 120 90 3e 60
        E 120 90 3e 00 208
        E 120 90 3a 60
        E 0 90 3e 60
        E 120 90 3a 00 156
        E 0 90 3e 00 92
        E 120 90 37 60
        E 120 90 37 00 64
        E 120 90 3c 60
        E 120 90 3c 00 268
        E 120 90 3f 60
        E 0 90 43 60
        E 120 90 3f 00 132
        E 0 90 43 00 124
        E 120 90 3c 60
        E 120 90 3c 00 4
        E 120 90 41 60
        E 0 90 45 60
        E 120 90 41 00 176
        E 0 90 45 00 200
        E 360 90 45 60
        E 120 90 45 00 144
        E 120 90 46 60
        E 120 90 46 00 16
        E 0 90 45 60
        E 120 90 45 00 64
        E 240 90 3c 60
        E 120 90 3c 00 196
        E 120 90 43 60
        E 120 90 43 00 88
        E 120 90 3f 60
        E 0 90 43 60
        E 120 90 3f 00 152
        E 0 90 43 00 152
        E 120 90 3c 60
        E 120 90 3c 00 72
        E 120 90 37 60
        E 120 90 37 00 148
        E 120 90 3e 60
        E 120 90 3e 00 104
        E 120 90 3a 60
        E 0 90 3e 60
        E 120 90 3a 00 164
        E 0 90 3e 00 152
        E 120 90 37 60
        E 120 90 37 00 112
        E 120 90 41 60
        E 120 90 41 00 36
        E 120 90 43 60
        E 120 90 43 00 104
        E 120 90 41 60
        E 120 90 41 00 -4
        E 120 90 3c 60
        E 120 90 3c 00 780
        E 1080 90 3c 60
        E 120 90 3c 00
        E 120 90 3f 60
        E 120 90 3f 00
        E 120 90 46 60
        E 120 90 46 00
        E 120 90 43 60
        E 120 90 43 00
        E 120 90 41 60
        E 120 90 41 00
        E 120 90 3f 60
        E 120 90 3f 00
        E 120 90 3c 60
        E 360 90 3c 00
        E 120 90 3e 60
        E 120 90 3e 00
        E 120 90 3f 60
        E 120 90 3f 00
        E 120 90 3a 60
        E 360 90 3a 00
        E 120 90 3c 60
        E 120 90 3c 00
        E 120 90 3f 60
        E 120 90 3f 00
        E 120 90 46 60
        E 120 90 46 00
        E 120 90 43 60
        E 120 90 43 00
        E 120 90 41 60
        E 120 90 41 00
        E 120 90 3f 60
        E 120 90 3f 00
        E 120 90 3c 60
        E 120 90 3c 00
        E 120 90 3a 60
        E 120 90 3a 00
        E 120 90 3c 60
        E 840 90 3c 00
        E 120 90 3c 60
        E 120 90 3c 00
        E 120 90 3f 60
        E 120 90 3f 00
        E 120 90 46 60
        E 120 90 46 00
        E 120 90 43 60
        E 120 90 43 00
        E 120 90 41 60
        E 120 90 41 00
        E 120 90 3f 60
        E 120 90 3f 00
        E 120 90 3c 60
        E 360 90 3c 00
        E 120 90 3a 60
        E 120 90 3a 00
        E 120 90 37 60
        E 120 90 37 00
        E 120 90 3e 60
        E 360 90 3e 00
        E 120 90 3c 60
        E 120 90 3c 00
        E 120 90 3f 60
        E 120 90 3f 00
        E 120 90 46 60
        E 120 90 46 00
        E 120 90 43 60
        E 120 90 43 00
        E 120 90 41 60
        E 120 90 41 00
        E 120 90 3f 60
        E 120 90 3f 00
        E 120 90 3c 60
        E 120 90 3c 00
        E 120 90 3a 60
        E 120 90 3a 00
        E 120 90 3c 60
        E 840 90 3c 00
        E 120 90 44 60
        E 120 90 44 00
        E 0 90 44 60
        E 120 90 44 00
        E 0 90 44 60
        E 120 90 44 00
        E 120 90 3d 60
        E 120 90 3d 00
        E 120 90 42 60
        E 120 90 42 00
        E 0 90 42 60
        E 120 90 42 00
        E 0 90 42 60
        E 120 90 42 00
        E 120 90 3d 60
        E 120 90 3d 00
        E 120 90 42 60
        E 120 90 42 00
        E 1320 90 44 60
        E 120 90 44 00
        E 0 90 44 60
        E 120 90 44 00
        E 0 90 44 60
        E 120 90 44 00
        E 120 90 3d 60
        E 120 90 3d 00
        E 120 90 42 60
        E 120 90 42 00
        E 0 90 42 60
        E 120 90 42 00
        E 0 90 42 60
        E 120 90 42 00
        E 120 90 3d 60
        E 120 90 3d 00
        E 120 90 42 60
        E 120 90 42 00
        E 1320 90 44 60
        E 120 90 44 00
        E 0 90 44 60
        E 120 90 44 00
        E 0 90 44 60
        E 120 90 44 00
        E 120 90 3d 60
        E 120 90 3d 00
        E 120 90 42 60
        E 120 90 42 00
        E 0 90 42 60
        E 120 90 42 00
        E 0 90 42 60
        E 120 90 42 00
        E 120 90 3d 60
        E 120 90 3d 00
        E 120 90 42 60
        E 120 90 42 00
        E 120 90 38 60
        E 120 90 38 00
        E 120 90 3a 60
        E 120 90 3a 00
        E 120 90 3d 60
        E 120 90 3d 00
        E 120 90 3f 60
        E 120 90 3f 00
        E 120 90 42 60
        E 120 90 42 00
        E 120 90 3d 60
        E 120 90 3d 00
        E 120 90 44 60
        E 120 90 44 00
        E 0 90 44 60
        E 120 90 44 00
        E 0 90 44 60
        E 120 90 44 00
        E 120 90 3d 60
        E 120 90 3d 00
        E 120 90 42 60
        E 120 90 42 00
        E 0 90 42 60
        E 120 90 42 00
        E 0 90 42 60
        E 120 90 42 00
        E 120 90 3d 60
        E 120 90 3d 00
        E 120 90 3f 60
        E 120 90 3f 00
        E 120 90 38 60
        E 120 90 38 00
        E 120 90 3a 60
        E 120 90 3a 00
        E 120 90 3d 60
        E 120 90 3d 00
        E 120 90 3f 60
        E 120 90 3f 00
        E 120 90 3b 60
        E 120 90 3b 00
        E 120 90 3d 60
        E 360 90 3d 00
        E 120 90 3e 60
        E 120 90 3e 00
        E 120 90 3d 60
        E 360 90 3d 00
        E 120 90 3b 60
        E 360 90 3b 00
        E 120 90 3a 60
        E 360 90 3a 00
        E 120 90 3b 60
        E 120 90 3b 00
        E 120 90 36 60
        E 120 90 36 00
        E 120 90 3b 60
        E 120 90 3b 00
        E 120 90 3d 60
        E 360 90 3d 00
        E 120 90 3e 60
        E 120 90 3e 00
        E 120 90 42 60
        E 360 90 42 00
        E 120 90 3e 60
        E 360 90 3e 00
        E 120 90 3d 60
        E 720 90 3d 00
        E 240 90 3b 60
        E 120 90 3b 00
        E 120 90 3d 60
        E 360 90 3d 00
        E 120 90 3e 60
        E 120 90 3e 00
        E 120 90 3d 60
        E 360 90 3d 00
        E 120 90 3b 60
        E 360 90 3b 00
        E 120 90 3a 60
        E 360 90 3a 00
        E 120 90 3b 60
        E 240 90 3b 00
        E 240 90 3b 60
        E 120 90 3b 00
        E 120 90 3d 60
        E 360 90 3d 00
        E 120 90 3e 60
        E 120 90 3e 00
        E 120 90 42 60
        E 120 90 42 00
        E 120 90 3e 60
        E 120 90 3e 00
        E 120 90 42 60
        E 1200 90 42 00
        E 26160 b0 7b 00
        GUID {565F6821-F3B8-41FB-AA05-8C73051B6604}
        IGNTEMPO 0 120.00000000 4 4
        SRCCOLOR 29
        VELLANE 132 128 60
        COLORMAP "C:\Program Files\REAPER (x64)\Data\color_maps\rockband_guitarbass.png"
        TEXTSTRINGFILE "C:\Program Files\REAPER (x64)\Data\Text_Strings\Text Events List - PRO Trainers.txt"
        CFGEDITVIEW -6957.852258 8.393395 0 22 0 0 0
        CFGEDIT 1 1 0 1 1 0 1 1 1 1 1 0.25000000 -7 0 1544 880 0 2 1 1 0.00000000 0 1 1 0 0.500000 0 0 1.000000 64
        KEYSNAP 0 3 "102034050607" 0 "Major"
        EVTFILTER 0 -1 -1 -1 -1 0 1 0 0 -1.00000000 -1.00000000
      >
    >
  >
  <TRACK '{13FB795F-1BC9-4EAC-848F-125CDAA381FD}'
    NAME "PART KEYS_ANIM_LH"
    PEAKCOL 16576
    BEAT -1
    AUTOMODE 0
    VOLPAN 1.00000000000000 0.00000000000000 -1.00000000000000 -1.00000000000000 1.00000000000000
    MUTESOLO 0 0 0
    IPHASE 0
    ISBUS 0 0
    BUSCOMP 0 0
    SHOWINMIX 1 0.666700 0.500000 1 0.500000 -1 -1 -1
    FREEMODE 0
    SEL 0
    REC 0 0 0 0 0 0 0
    VU 2
    TRACKHEIGHT 0 0
    INQ 0 0 0 0.5000000000 100 0 0 100
    NCHAN 2
    FX 1
    TRACKID {13FB795F-1BC9-4EAC-848F-125CDAA381FD}
    PERF 0
    MIDIOUT -1
    <MIDINOTENAMES
      0 72 "Highest playable note B#3"
      0 71 "B3"
      0 70 "A#3"
      0 69 "A3"
      0 68 "G#3"
      0 67 "G3"
      0 66 "F#3"
      0 65 "F3"
      0 64 "E3"
      0 63 "D#3"
      0 62 "D3"
      0 61 "C#3"
      0 60 "C3"
      0 59 "B2"
      0 58 "A#2"
      0 57 "A2"
      0 56 "G#2"
      0 55 "G2"
      0 54 "F#2"
      0 53 "F2"
      0 52 "E2"
      0 51 "D#2"
      0 50 "D2"
      0 49 "C#2"
      0 48 "Lowest playable note C2"
    >
    MAINSEND 1 0
    <FXCHAIN
      SHOW 0
      LASTSEL 0
      DOCKED 0
    >
    <ITEM
      POSITION 0.00000000000000
      SNAPOFFS 0.00000000000000
      LENGTH 149.57649390171980
      LOOP 0
      ALLTAKES 0
      SEL 0
      FADEIN 1 0.000000 0.000000 1 0
      FADEOUT 1 0.000000 0.000000 1 0
      MUTE 0
      IGUID {DE5CF80C-BB8A-4C58-B80C-9292D307B853}
      IID 29
      NAME "PART KEYS_ANIM_LH"
      VOLPAN 1.000000 0.000000 1.000000 -1.000000
      SOFFS 0.00000000000000 0.00000000000000
      PLAYRATE 1.00000000000000 1 0.00000000000000 -1
      CHANMODE 0
      GUID {591DEA97-B1C4-4E55-9C1F-8F42835A3105}
      <SOURCE MIDI
        HASDATA 1 480 QN
        POOLEDEVTS {1AADA7CF-7188-4EDA-B5F9-FC640543ADD9}
        <X 0 0
          /wNQQVJUIEtFWVNfQU5JTV9MSA==
        >
        E 119040 b0 7b 00
        GUID {7AFB30D4-8841-4CBC-B1D3-67BC81E0185E}
        IGNTEMPO 0 120.00000000 4 4
        SRCCOLOR 42
        VELLANE 132 128 60
        COLORMAP "C:\Program Files\REAPER (x64)\Data\color_maps\rockband_guitarbass.png"
        CFGEDITVIEW -6957.852258 8.393395 0 22 0 0 0
        CFGEDIT 1 1 0 1 1 0 1 1 1 1 1 0.25000000 -8 0 1542 880 0 2 1 1 0.00000000 0 1 1 0 0.500000 0 0 1.000000 64
        KEYSNAP 0 3 "102034050607" 0 "Major"
        EVTFILTER 0 -1 -1 -1 -1 0 1 0 0 -1.00000000 -1.00000000
      >
    >
  >
  <TRACK '{6457775E-0866-4FB2-9014-9060407D39A5}'
    NAME "keys"
    PEAKCOL 16576
    BEAT -1
    AUTOMODE 0
    VOLPAN 1.00000000000000 0.00000000000000 -1.00000000000000 -1.00000000000000 1.00000000000000
    MUTESOLO 0 0 0
    IPHASE 0
    ISBUS 2 -1
    BUSCOMP 0 0
    SHOWINMIX 1 0.666700 0.500000 1 0.500000 -1 -1 -1
    FREEMODE 0
    SEL 0
    REC 0 0 0 0 0 0 0
    VU 2
    TRACKHEIGHT 0 0
    INQ 0 0 0 0.5000000000 100 0 0 100
    NCHAN 2
    FX 1
    TRACKID {6457775E-0866-4FB2-9014-9060407D39A5}
    PERF 0
    MIDIOUT -1
    MAINSEND 1 0
    <ITEM
      POSITION 0.00000000000000
      SNAPOFFS 0.00000000000000
      LENGTH 149.57648526077097
      LOOP 0
      ALLTAKES 0
      SEL 0
      FADEIN 1 0.000000 0.000000 1 0
      FADEOUT 1 0.000000 0.000000 1 0
      MUTE 0
      IGUID {537F5747-9AE8-44E6-87D1-B6203C7425F4}
      IID 3
      NAME "keys.wav"
      VOLPAN 1.000000 0.000000 1.000000 -1.000000
      SOFFS 0.00000000000000
      PLAYRATE 1.00000000000000 1 0.00000000000000 -1
      CHANMODE 0
      GUID {9C50D37D-42D2-4555-BE20-2A9C310CF4AE}
      <SOURCE WAVE
        FILE "wav\keys.wav"
      >
    >
  >
  <TRACK '{8784D1B9-36AF-4585-A75C-40401823BEA6}'
    NAME "PART REAL_GUITAR"
    PEAKCOL 16576
    BEAT -1
    AUTOMODE 0
    VOLPAN 1.00000000000000 0.00000000000000 -1.00000000000000 -1.00000000000000 1.00000000000000
    MUTESOLO 0 0 0
    IPHASE 0
    ISBUS 0 0
    BUSCOMP 0 0
    SHOWINMIX 1 0.666700 0.500000 1 0.500000 -1 -1 -1
    FREEMODE 0
    SEL 0
    REC 0 0 0 0 0 0 0
    VU 2
    TRACKHEIGHT 0 0
    INQ 0 0 0 0.5000000000 100 0 0 100
    NCHAN 2
    FX 0
    TRACKID {8784D1B9-36AF-4585-A75C-40401823BEA6}
    PERF 0
    MIDIOUT -1
    <MIDINOTENAMES
      0 127 "Trill Marker"
      0 126 "Tremolo Marker"
      0 125 "BRE"
      0 124 "BRE"
      0 123 "BRE"
      0 122 "BRE"
      0 121 "BRE"
      0 120 "BRE (use all 6)"
      0 119 "-----------"
      0 116 "OVERDRIVE"
      0 115 "Solo Marker"
      0 109 "-----------"
      0 108 "Fret Hand Position"
      0 107 "Force Chord Numbering"
      0 106 "Loose Strumming"
      0 105 "Strum Direction"
      0 104 "Arpeggio Marker"
      0 103 "Slide Marker"
      0 102 "Force HOPO"
      0 101 "EXPERT e String"
      0 100 "EXPERT B String"
      0 99 "EXPERT G String"
      0 98 "EXPERT D String"
      0 97 "EXPERT A String"
      0 96 "EXPERT E String"
      0 21 "-----------"
      0 18 "Flat/Sharp Swap"
      0 17 "Hide Chord Names"
      0 16 "Slash Chord"
      0 15 "D#"
      0 14 "D"
      0 13 "C#"
      0 12 "C"
      0 11 "B"
      0 10 "A#"
      0 9 "A"
      0 8 "G#"
      0 7 "G"
      0 6 "F#"
      0 5 "F"
      0 4 "E"
      0 95 "-----------"
      0 82 "Loose Strumming"
      0 81 "Strum Direction"
      0 80 "Arpeggio Marker"
      0 79 "Slide Marker"
      0 78 "Force HOPO"
      0 77 "HARD e String"
      0 76 "HARD B String"
      0 75 "HARD G String"
      0 74 "HARD D String"
      0 73 "HARD A String"
      0 72 "HARD E String"
      0 71 "-----------"
      0 58 "Loose Strumming"
      0 56 "Arpeggio Marker"
      0 55 "Slide Marker"
      0 53 "MEDIUM e String"
      0 52 "MEDIUM B String"
      0 51 "MEDIUM G String"
      0 50 "MEDIUM D String"
      0 49 "MEDIUM A String"
      0 48 "MEDIUM E String"
      0 47 "-----------"
      0 32 "Arpeggio Marker"
      0 31 "Slide Marker"
      0 29 "EASY e String"
      0 28 "EASY B String"
      0 27 "EASY G String"
      0 26 "EASY D String"
      0 25 "EASY A String"
      0 24 "EASY E String"
      1 127 "Trill Marker"
      1 126 "Tremolo Marker"
      1 125 "BRE"
      1 124 "BRE"
      1 123 "BRE"
      1 122 "BRE"
      1 121 "BRE"
      1 120 "BRE (use all 6)"
      1 119 "-----------"
      1 116 "OVERDRIVE"
      1 115 "Solo Marker"
      1 109 "-----------"
      1 108 "Fret Hand Position"
      1 107 "Force Chord Numbering"
      1 106 "Loose Strumming"
      1 105 "Strum Direction"
      1 104 "Arpeggio Marker"
      1 103 "Slide Marker"
      1 102 "Force HOPO"
      1 101 "EXPERT e String"
      1 100 "EXPERT B String"
      1 99 "EXPERT G String"
      1 98 "EXPERT D String"
      1 97 "EXPERT A String"
      1 96 "EXPERT E String"
      1 95 "-----------"
      1 82 "Loose Strumming"
      1 81 "Strum Direction"
      1 80 "Arpeggio Marker"
      1 79 "Slide Marker"
      1 78 "Force HOPO"
      1 77 "HARD e String"
      1 76 "HARD B String"
      1 75 "HARD G String"
      1 74 "HARD D String"
      1 73 "HARD A String"
      1 72 "HARD E String"
      1 71 "-----------"
      1 58 "Loose Strumming"
      1 56 "Arpeggio Marker"
      1 55 "Slide Marker"
      1 53 "MEDIUM e String"
      1 52 "MEDIUM B String"
      1 51 "MEDIUM G String"
      1 50 "MEDIUM D String"
      1 49 "MEDIUM A String"
      1 48 "MEDIUM E String"
      1 47 "-----------"
      1 32 "Arpeggio Marker"
      1 31 "Slide Marker"
      1 29 "EASY e String"
      1 28 "EASY B String"
      1 27 "EASY G String"
      1 26 "EASY D String"
      1 25 "EASY A String"
      1 24 "EASY E String"
      1 21 "-----------"
      1 18 "Flat/Sharp Swap"
      1 17 "Hide Chord Names"
      1 16 "Slash Chord"
      1 15 "D#"
      1 14 "D"
      1 13 "C#"
      1 12 "C"
      1 11 "B"
      1 10 "A#"
      1 9 "A"
      1 8 "G#"
      1 7 "G"
      1 6 "F#"
      1 5 "F"
      1 4 "E"
    >
    MAINSEND 1 0
    <FXCHAIN
      WNDRECT 0 43 655 467
      SHOW 0
      LASTSEL 1
      DOCKED 0
      BYPASS 0 0
      <JS "c3/progtr" ""
        0.000000 3.000000 0.000000 0.000000 0.000000 0.000000 0.000000 0.000000 0.000000 1.000000 - - - - - - - - - - - - - - - - - - - - - - - - - - - - - - - - - - - - - - - - - - - - - - - - - - - - - - 
      >
      FLOATPOS 0 0 0 0
      FXID {47F29526-A171-4BE0-9BAD-56C61AD3F73B}
      WAK 0
      BYPASS 0 0
      <VST "VSTi: ReaSynth (Cockos)" "reasynth.dll" 0 ""
        eXNlcu9e7f4AAAAAAgAAAAEAAAAAAAAAAgAAAAAAAAA4AAAAAAAAAA==
        AAAQAO++rd4N8K3eppvEO017Cj6HFlk/AAAAAAAAAADMm4A+4jAEPA==
        AAAAAAAAAD+01hM+j8L1PQAAAD8AABAAAAA=
      >
      FLOATPOS 0 0 0 0
      FXID {DD7B0941-63D7-45AA-B65D-E88D9653932D}
      WAK 0
    >
    <ITEM
      POSITION 0.00000000000000
      SNAPOFFS 0.00000000000000
      LENGTH 149.57649390171983
      LOOP 0
      ALLTAKES 0
      SEL 0
      FADEIN 1 0.000000 0.000000 1 0
      FADEOUT 1 0.000000 0.000000 1 0
      MUTE 0
      IGUID {3B959799-E512-4259-88EC-E66100156A60}
      IID 9
      NAME "PART REAL_GUITAR"
      VOLPAN 1.000000 0.000000 1.000000 -1.000000
      SOFFS 0.00000000000000 0.00000000000000
      PLAYRATE 1.00000000000000 1 0.00000000000000 -1
      CHANMODE 0
      GUID {0C33EF85-0A9C-46A1-B03D-6BC7F695E18B}
      <SOURCE MIDI
        HASDATA 1 480 QN
        POOLEDEVTS {908209ED-4322-40D3-93E9-0FD045AB37C4}
        <X 0 0
          /wNQQVJUIFJFQUxfR1VJVEFS
        >
        E 2880 90 0c 64
        E 0 90 19 67
        E 0 90 31 67
        E 0 90 38 64
        E 0 90 49 67
        E 0 90 50 64
        E 0 90 61 67
        E 0 90 68 64
        E 0 90 6c 67
        E 0 91 32 69
        E 0 91 33 69
        E 0 91 34 68
        E 0 91 35 67
        E 0 91 4a 69
        E 0 91 4b 69
        E 0 91 4c 68
        E 0 91 4d 67
        E 0 91 62 69
        E 0 91 63 69
        E 0 91 64 68
        E 0 91 65 67
        E 120 80 0c 00
        E 0 80 19 00
        E 0 80 31 00
        E 0 80 49 00
        E 0 80 61 00
        E 0 80 6c 00
        E 0 81 32 00
        E 0 81 33 00
        E 0 81 34 00
        E 0 81 35 00
        E 0 81 4a 00
        E 0 81 4b 00
        E 0 81 4c 00
        E 0 81 4d 00
        E 0 81 62 00
        E 0 81 63 00
        E 0 81 64 00
        E 0 81 65 00
        E 120 90 4a 69
        E 0 90 62 69
        E 120 80 4a 00
        E 0 80 62 00
        E 120 90 63 69
        E 120 80 63 00
        E 120 90 35 67
        E 0 90 4d 67
        E 0 90 65 67
        E 120 80 35 00
        E 0 80 4d 00
        E 0 80 65 00
        E 120 90 4c 68
        E 0 90 64 68
        E 120 80 4c 00
        E 0 80 64 00
        E 120 90 63 69
        E 120 80 38 00
        E 0 80 50 00
        E 0 80 68 00
        E 0 80 63 00
        E 120 90 07 64
        E 0 90 18 67
        E 0 90 30 67
        E 0 90 38 64
        E 0 90 48 67
        E 0 90 50 64
        E 0 90 60 67
        E 0 90 68 64
        E 0 91 31 69
        E 0 91 32 69
        E 0 91 33 67
        E 0 91 34 67
        E 0 91 49 69
        E 0 91 4a 69
        E 0 91 4b 67
        E 0 91 4c 67
        E 0 91 61 69
        E 0 91 62 69
        E 0 91 63 67
        E 0 91 64 67
        E 120 80 07 00
        E 0 80 18 00
        E 0 80 30 00
        E 0 80 48 00
        E 0 80 60 00
        E 0 81 31 00
        E 0 81 32 00
        E 0 81 33 00
        E 0 81 34 00
        E 0 81 49 00
        E 0 81 4a 00
        E 0 81 4b 00
        E 0 81 4c 00
        E 0 81 61 00
        E 0 81 62 00
        E 0 81 63 00
        E 0 81 64 00
        E 120 90 49 69
        E 0 90 61 69
        E 120 80 49 00
        E 0 80 61 00
        E 120 90 62 69
        E 120 80 62 00
        E 120 90 34 67
        E 0 90 4c 67
        E 0 90 64 67
        E 120 80 34 00
        E 0 80 4c 00
        E 0 80 64 00
        E 120 90 4b 67
        E 0 90 63 67
        E 360 80 38 00
        E 0 80 50 00
        E 0 80 68 00
        E 0 80 4b 00
        E 0 80 63 00
        E 120 90 0c 64
        E 0 90 19 67
        E 0 90 31 67
        E 0 90 38 64
        E 0 90 49 67
        E 0 90 50 64
        E 0 90 61 67
        E 0 90 68 64
        E 0 91 32 69
        E 0 91 33 69
        E 0 91 34 68
        E 0 91 35 67
        E 0 91 4a 69
        E 0 91 4b 69
        E 0 91 4c 68
        E 0 91 4d 67
        E 0 91 62 69
        E 0 91 63 69
        E 0 91 64 68
        E 0 91 65 67
        E 120 80 0c 00
        E 0 80 19 00
        E 0 80 31 00
        E 0 80 49 00
        E 0 80 61 00
        E 0 81 32 00
        E 0 81 33 00
        E 0 81 34 00
        E 0 81 35 00
        E 0 81 4a 00
        E 0 81 4b 00
        E 0 81 4c 00
        E 0 81 4d 00
        E 0 81 62 00
        E 0 81 63 00
        E 0 81 64 00
        E 0 81 65 00
        E 120 90 4a 69
        E 0 90 62 69
        E 120 80 4a 00
        E 0 80 62 00
        E 120 90 63 69
        E 120 80 63 00
        E 120 90 35 67
        E 0 90 4d 67
        E 0 90 65 67
        E 120 80 35 00
        E 0 80 4d 00
        E 0 80 65 00
        E 120 90 4c 68
        E 0 90 64 68
        E 360 80 38 00
        E 0 80 50 00
        E 0 80 68 00
        E 0 80 4c 00
        E 0 80 64 00
        E 120 90 07 64
        E 0 90 18 67
        E 0 90 30 67
        E 0 90 38 64
        E 0 90 48 67
        E 0 90 50 64
        E 0 90 60 67
        E 0 90 68 64
        E 0 91 31 69
        E 0 91 32 69
        E 0 91 33 67
        E 0 91 34 67
        E 0 91 49 69
        E 0 91 4a 69
        E 0 91 4b 67
        E 0 91 4c 67
        E 0 91 61 69
        E 0 91 62 69
        E 0 91 63 67
        E 0 91 64 67
        E 120 80 07 00
        E 0 80 18 00
        E 0 80 30 00
        E 0 80 48 00
        E 0 80 60 00
        E 0 81 31 00
        E 0 81 32 00
        E 0 81 33 00
        E 0 81 34 00
        E 0 81 49 00
        E 0 81 4a 00
        E 0 81 4b 00
        E 0 81 4c 00
        E 0 81 61 00
        E 0 81 62 00
        E 0 81 63 00
        E 0 81 64 00
        E 120 90 49 69
        E 0 90 61 69
        E 120 80 49 00
        E 0 80 61 00
        E 120 90 4a 69
        E 0 90 62 69
        E 120 80 4a 00
        E 0 80 62 00
        E 120 90 34 67
        E 0 90 4c 67
        E 0 90 64 67
        E 600 80 38 00
        E 0 80 50 00
        E 0 80 68 00
        E 0 80 34 00
        E 0 80 4c 00
        E 0 80 64 00
        E 120 90 0c 64
        E 0 90 19 67
        E 0 90 31 67
        E 0 90 38 64
        E 0 90 49 67
        E 0 90 50 64
        E 0 90 61 67
        E 0 90 68 64
        E 0 91 32 69
        E 0 91 33 69
        E 0 91 34 68
        E 0 91 35 67
        E 0 91 4a 69
        E 0 91 4b 69
        E 0 91 4c 68
        E 0 91 4d 67
        E 0 91 62 69
        E 0 91 63 69
        E 0 91 64 68
        E 0 91 65 67
        E 120 80 0c 00
        E 0 80 19 00
        E 0 80 31 00
        E 0 80 49 00
        E 0 80 61 00
        E 0 81 32 00
        E 0 81 33 00
        E 0 81 34 00
        E 0 81 35 00
        E 0 81 4a 00
        E 0 81 4b 00
        E 0 81 4c 00
        E 0 81 4d 00
        E 0 81 62 00
        E 0 81 63 00
        E 0 81 64 00
        E 0 81 65 00
        E 120 90 4a 69
        E 0 90 62 69
        E 120 80 4a 00
        E 0 80 62 00
        E 120 90 63 69
        E 120 80 63 00
        E 120 90 35 67
        E 0 90 4d 67
        E 0 90 65 67
        E 120 80 35 00
        E 0 80 4d 00
        E 0 80 65 00
        E 120 90 4c 68
        E 0 90 64 68
        E 120 80 4c 00
        E 0 80 64 00
        E 120 90 63 69
        E 120 80 38 00
        E 0 80 50 00
        E 0 80 68 00
        E 0 80 63 00
        E 120 90 07 64
        E 0 90 18 67
        E 0 90 30 67
        E 0 90 38 64
        E 0 90 48 67
        E 0 90 50 64
        E 0 90 60 67
        E 0 90 68 64
        E 0 91 31 69
        E 0 91 32 69
        E 0 91 33 67
        E 0 91 34 67
        E 0 91 49 69
        E 0 91 4a 69
        E 0 91 4b 67
        E 0 91 4c 67
        E 0 91 61 69
        E 0 91 62 69
        E 0 91 63 67
        E 0 91 64 67
        E 120 80 07 00
        E 0 80 18 00
        E 0 80 30 00
        E 0 80 48 00
        E 0 80 60 00
        E 0 81 31 00
        E 0 81 32 00
        E 0 81 33 00
        E 0 81 34 00
        E 0 81 49 00
        E 0 81 4a 00
        E 0 81 4b 00
        E 0 81 4c 00
        E 0 81 61 00
        E 0 81 62 00
        E 0 81 63 00
        E 0 81 64 00
        E 120 90 49 69
        E 0 90 61 69
        E 120 80 49 00
        E 0 80 61 00
        E 120 90 62 69
        E 120 80 62 00
        E 120 90 34 67
        E 0 90 4c 67
        E 0 90 64 67
        E 120 80 34 00
        E 0 80 4c 00
        E 0 80 64 00
        E 120 90 4b 67
        E 0 90 63 67
        E 120 80 4b 00
        E 0 80 63 00
        E 120 90 62 69
        E 120 80 38 00
        E 0 80 50 00
        E 0 80 68 00
        E 0 80 62 00
        E 120 90 0c 64
        E 0 90 19 67
        E 0 90 31 67
        E 0 90 38 64
        E 0 90 49 67
        E 0 90 50 64
        E 0 90 61 67
        E 0 90 68 64
        E 0 91 32 69
        E 0 91 33 69
        E 0 91 34 68
        E 0 91 35 67
        E 0 91 4a 69
        E 0 91 4b 69
        E 0 91 4c 68
        E 0 91 4d 67
        E 0 91 62 69
        E 0 91 63 69
        E 0 91 64 68
        E 0 91 65 67
        E 120 80 0c 00
        E 0 80 19 00
        E 0 80 31 00
        E 0 80 49 00
        E 0 80 61 00
        E 0 81 32 00
        E 0 81 33 00
        E 0 81 34 00
        E 0 81 35 00
        E 0 81 4a 00
        E 0 81 4b 00
        E 0 81 4c 00
        E 0 81 4d 00
        E 0 81 62 00
        E 0 81 63 00
        E 0 81 64 00
        E 0 81 65 00
        E 120 90 4a 69
        E 0 90 62 69
        E 120 80 4a 00
        E 0 80 62 00
        E 120 90 63 69
        E 120 80 63 00
        E 120 90 35 67
        E 0 90 4d 67
        E 0 90 65 67
        E 120 80 35 00
        E 0 80 4d 00
        E 0 80 65 00
        E 120 90 4c 68
        E 0 90 64 68
        E 120 80 4c 00
        E 0 80 64 00
        E 120 90 4b 69
        E 0 90 63 69
        E 120 80 38 00
        E 0 80 50 00
        E 0 80 68 00
        E 0 80 4b 00
        E 0 80 63 00
        E 120 90 07 64
        E 0 90 30 67
        E 0 90 38 64
        E 0 90 48 67
        E 0 90 50 64
        E 0 90 60 67
        E 0 90 68 64
        E 0 90 74 60
        E 0 91 31 69
        E 0 91 32 69
        E 0 91 33 67
        E 0 91 34 67
        E 0 91 49 69
        E 0 91 4a 69
        E 0 91 4b 67
        E 0 91 4c 67
        E 0 91 61 69
        E 0 91 62 69
        E 0 91 63 67
        E 0 91 64 67
        E 120 80 07 00
        E 0 80 30 00
        E 0 80 48 00
        E 0 80 60 00
        E 0 81 31 00
        E 0 81 32 00
        E 0 81 33 00
        E 0 81 34 00
        E 0 81 49 00
        E 0 81 4a 00
        E 0 81 4b 00
        E 0 81 4c 00
        E 0 81 61 00
        E 0 81 62 00
        E 0 81 63 00
        E 0 81 64 00
        E 120 90 49 69
        E 0 90 61 69
        E 120 80 49 00
        E 0 80 61 00
        E 120 90 1b 67
        E 0 90 33 67
        E 0 90 34 67
        E 0 90 4b 67
        E 0 90 4c 67
        E 0 90 63 67
        E 0 90 64 67
        E 1920 80 38 00
        E 0 80 50 00
        E 0 80 68 00
        E 0 80 1b 00
        E 0 80 33 00
        E 0 80 34 00
        E 0 80 4b 00
        E 0 80 4c 00
        E 0 80 63 00
        E 0 80 64 00
        <X 960 0
          /wFbYmVnaW5fcGcgc29uZ190cmFpbmVyX3BnXzFd
        >
        E 0 90 0c 64
        E 0 90 19 67
        E 0 90 31 67
        E 0 90 38 64
        E 0 90 49 67
        E 0 90 50 64
        E 0 90 61 67
        E 0 90 68 64
        E 0 91 32 69
        E 0 91 33 69
        E 0 91 34 68
        E 0 91 35 67
        E 0 91 4a 69
        E 0 91 4b 69
        E 0 91 4c 68
        E 0 91 4d 67
        E 0 91 62 69
        E 0 91 63 69
        E 0 91 64 68
        E 0 91 65 67
        E 120 80 0c 00
        E 0 80 19 00
        E 0 80 31 00
        E 0 80 49 00
        E 0 80 61 00
        E 0 80 74 00
        E 0 81 32 00
        E 0 81 33 00
        E 0 81 34 00
        E 0 81 35 00
        E 0 81 4a 00
        E 0 81 4b 00
        E 0 81 4c 00
        E 0 81 4d 00
        E 0 81 62 00
        E 0 81 63 00
        E 0 81 64 00
        E 0 81 65 00
        E 120 90 4a 69
        E 0 90 62 69
        E 120 80 4a 00
        E 0 80 62 00
        E 0 90 63 69
        E 120 80 63 00
        E 0 90 4c 68
        E 0 90 64 68
        E 120 80 4c 00
        E 0 80 64 00
        E 120 90 1d 67
        E 0 90 35 67
        E 0 90 4d 67
        E 0 90 65 67
        E 120 80 1d 00
        E 0 80 35 00
        E 0 80 4d 00
        E 0 80 65 00
        E 120 90 4c 68
        E 0 90 64 68
        E 120 80 4c 00
        E 0 80 64 00
        E 120 90 4b 69
        E 0 90 63 69
        E 120 80 38 00
        E 0 80 50 00
        E 0 80 68 00
        E 0 80 4b 00
        E 0 80 63 00
        <X 120 0
          /wFbcGdfbm9ybSBzb25nX3RyYWluZXJfcGdfMV0=
        >
        E 0 90 07 64
        E 0 90 18 67
        E 0 90 30 67
        E 0 90 38 64
        E 0 90 48 67
        E 0 90 50 64
        E 0 90 60 67
        E 0 90 68 64
        E 0 91 31 69
        E 0 91 32 69
        E 0 91 33 67
        E 0 91 34 67
        E 0 91 49 69
        E 0 91 4a 69
        E 0 91 4b 67
        E 0 91 4c 67
        E 0 91 61 69
        E 0 91 62 69
        E 0 91 63 67
        E 0 91 64 67
        E 120 80 07 00
        E 0 80 18 00
        E 0 80 30 00
        E 0 80 48 00
        E 0 80 60 00
        E 0 81 31 00
        E 0 81 32 00
        E 0 81 33 00
        E 0 81 34 00
        E 0 81 49 00
        E 0 81 4a 00
        E 0 81 4b 00
        E 0 81 4c 00
        E 0 81 61 00
        E 0 81 62 00
        E 0 81 63 00
        E 0 81 64 00
        E 120 90 49 69
        E 0 90 61 69
        E 120 80 49 00
        E 0 80 61 00
        E 120 90 4a 69
        E 0 90 62 69
        E 120 80 4a 00
        E 0 80 62 00
        E 120 90 1c 67
        E 0 90 34 67
        E 0 90 4b 67
        E 0 90 4c 67
        E 0 90 63 67
        E 0 90 64 67
        E 120 80 1c 00
        E 0 80 34 00
        E 480 80 38 00
        E 0 80 50 00
        E 0 80 68 00
        E 0 80 4b 00
        E 0 80 4c 00
        E 0 80 63 00
        E 0 80 64 00
        E 120 90 0c 64
        E 0 90 19 67
        E 0 90 31 67
        E 0 90 38 64
        E 0 90 49 67
        E 0 90 50 64
        E 0 90 61 67
        E 0 90 68 64
        E 0 91 32 69
        E 0 91 33 69
        E 0 91 34 68
        E 0 91 35 67
        E 0 91 4a 69
        E 0 91 4b 69
        E 0 91 4c 68
        E 0 91 4d 67
        E 0 91 62 69
        E 0 91 63 69
        E 0 91 64 68
        E 0 91 65 67
        E 120 80 0c 00
        E 0 80 19 00
        E 0 80 31 00
        E 0 80 49 00
        E 0 80 61 00
        E 0 81 32 00
        E 0 81 33 00
        E 0 81 34 00
        E 0 81 35 00
        E 0 81 4a 00
        E 0 81 4b 00
        E 0 81 4c 00
        E 0 81 4d 00
        E 0 81 62 00
        E 0 81 63 00
        E 0 81 64 00
        E 0 81 65 00
        E 120 90 4a 69
        E 0 90 62 69
        E 120 80 4a 00
        E 0 80 62 00
        E 0 90 63 69
        E 120 80 63 00
        E 0 90 4c 68
        E 0 90 64 68
        E 120 80 4c 00
        E 0 80 64 00
        E 120 90 1d 67
        E 0 90 35 67
        E 0 90 4d 67
        E 0 90 65 67
        E 120 80 1d 00
        E 0 80 35 00
        E 0 80 4d 00
        E 0 80 65 00
        E 120 90 4c 68
        E 0 90 64 68
        E 120 80 4c 00
        E 0 80 64 00
        E 120 90 4b 69
        E 0 90 63 69
        E 120 80 38 00
        E 0 80 50 00
        E 0 80 68 00
        E 0 80 4b 00
        E 0 80 63 00
        E 120 90 07 64
        E 0 90 18 67
        E 0 90 30 67
        E 0 90 38 64
        E 0 90 48 67
        E 0 90 50 64
        E 0 90 60 67
        E 0 90 62 69
        E 0 90 68 64
        E 0 91 31 69
        E 0 91 32 69
        E 0 91 33 67
        E 0 91 34 67
        E 0 91 49 69
        E 0 91 4a 69
        E 0 91 4b 67
        E 0 91 4c 67
        E 0 91 61 69
        E 0 91 63 67
        E 0 91 64 67
        E 120 80 07 00
        E 0 80 18 00
        E 0 80 30 00
        E 0 80 48 00
        E 0 80 60 00
        E 0 80 62 00
        E 0 81 31 00
        E 0 81 32 00
        E 0 81 33 00
        E 0 81 34 00
        E 0 81 49 00
        E 0 81 4a 00
        E 0 81 4b 00
        E 0 81 4c 00
        E 0 81 61 00
        E 0 81 63 00
        E 0 81 64 00
        E 120 90 4b 67
        E 0 90 4c 67
        E 0 90 63 67
        E 0 90 64 67
        E 120 80 4b 00
        E 0 80 4c 00
        E 0 80 63 00
        E 0 80 64 00
        E 120 90 4b 67
        E 0 90 4c 67
        E 0 90 63 67
        E 0 90 64 67
        E 240 90 1c 67
        E 0 90 34 67
        E 600 80 38 00
        E 0 80 50 00
        E 0 80 68 00
        E 0 80 4b 00
        E 0 80 4c 00
        E 0 80 63 00
        E 0 80 64 00
        E 0 80 1c 00
        E 0 80 34 00
        <X 120 0
          /wFbZW5kX3BnIHNvbmdfdHJhaW5lcl9wZ18xXQ==
        >
        E 0 90 0c 64
        E 0 90 19 67
        E 0 90 31 67
        E 0 90 38 64
        E 0 90 49 67
        E 0 90 50 64
        E 0 90 61 67
        E 0 90 68 64
        E 0 91 32 69
        E 0 91 33 69
        E 0 91 34 68
        E 0 91 35 67
        E 0 91 4a 69
        E 0 91 4b 69
        E 0 91 4c 68
        E 0 91 4d 67
        E 0 91 62 69
        E 0 91 63 69
        E 0 91 64 68
        E 0 91 65 67
        E 120 80 0c 00
        E 0 80 19 00
        E 0 80 31 00
        E 0 80 49 00
        E 0 80 61 00
        E 0 81 32 00
        E 0 81 33 00
        E 0 81 34 00
        E 0 81 35 00
        E 0 81 4a 00
        E 0 81 4b 00
        E 0 81 4c 00
        E 0 81 4d 00
        E 0 81 62 00
        E 0 81 63 00
        E 0 81 64 00
        E 0 81 65 00
        E 120 90 4a 69
        E 0 90 62 69
        E 120 80 4a 00
        E 0 80 62 00
        E 0 90 63 69
        E 120 80 63 00
        E 0 90 4c 68
        E 0 90 64 68
        E 120 80 4c 00
        E 0 80 64 00
        E 120 90 1d 67
        E 0 90 35 67
        E 0 90 4d 67
        E 0 90 65 67
        E 120 80 1d 00
        E 0 80 35 00
        E 0 80 4d 00
        E 0 80 65 00
        E 120 90 4c 68
        E 0 90 64 68
        E 120 80 4c 00
        E 0 80 64 00
        E 120 90 4b 69
        E 0 90 63 69
        E 120 80 38 00
        E 0 80 50 00
        E 0 80 68 00
        E 0 80 4b 00
        E 0 80 63 00
        E 120 90 07 64
        E 0 90 18 67
        E 0 90 30 67
        E 0 90 38 64
        E 0 90 48 67
        E 0 90 50 64
        E 0 90 60 67
        E 0 90 68 64
        E 0 91 31 69
        E 0 91 32 69
        E 0 91 33 67
        E 0 91 34 67
        E 0 91 49 69
        E 0 91 4a 69
        E 0 91 4b 67
        E 0 91 4c 67
        E 0 91 61 69
        E 0 91 62 69
        E 0 91 63 67
        E 0 91 64 67
        E 120 80 07 00
        E 0 80 18 00
        E 0 80 30 00
        E 0 80 48 00
        E 0 80 60 00
        E 0 81 31 00
        E 0 81 32 00
        E 0 81 33 00
        E 0 81 34 00
        E 0 81 49 00
        E 0 81 4a 00
        E 0 81 4b 00
        E 0 81 4c 00
        E 0 81 61 00
        E 0 81 62 00
        E 0 81 63 00
        E 0 81 64 00
        E 120 90 19 69
        E 0 90 49 69
        E 0 90 61 69
        E 120 80 19 00
        E 0 80 49 00
        E 0 80 61 00
        E 120 90 4a 69
        E 0 90 62 69
        E 120 80 4a 00
        E 0 80 62 00
        E 120 90 1c 67
        E 0 90 34 67
        E 0 90 4b 67
        E 0 90 4c 67
        E 0 90 63 67
        E 0 90 64 67
        E 120 80 1c 00
        E 0 80 34 00
        E 480 80 38 00
        E 0 80 50 00
        E 0 80 68 00
        E 0 80 4b 00
        E 0 80 4c 00
        E 0 80 63 00
        E 0 80 64 00
        E 120 90 0c 64
        E 0 90 19 67
        E 0 90 31 67
        E 0 90 38 64
        E 0 90 49 67
        E 0 90 50 64
        E 0 90 61 67
        E 0 90 68 64
        E 0 91 32 69
        E 0 91 33 69
        E 0 91 34 68
        E 0 91 35 67
        E 0 91 4a 69
        E 0 91 4b 69
        E 0 91 4c 68
        E 0 91 4d 67
        E 0 91 62 69
        E 0 91 63 69
        E 0 91 64 68
        E 0 91 65 67
        E 120 80 0c 00
        E 0 80 19 00
        E 0 80 31 00
        E 0 80 49 00
        E 0 80 61 00
        E 0 81 32 00
        E 0 81 33 00
        E 0 81 34 00
        E 0 81 35 00
        E 0 81 4a 00
        E 0 81 4b 00
        E 0 81 4c 00
        E 0 81 4d 00
        E 0 81 62 00
        E 0 81 63 00
        E 0 81 64 00
        E 0 81 65 00
        E 120 90 4a 69
        E 0 90 62 69
        E 120 80 4a 00
        E 0 80 62 00
        E 0 90 63 69
        E 120 80 63 00
        E 0 90 4c 68
        E 0 90 64 68
        E 120 80 4c 00
        E 0 80 64 00
        E 120 90 1d 67
        E 0 90 35 67
        E 0 90 4d 67
        E 0 90 65 67
        E 120 80 1d 00
        E 0 80 35 00
        E 0 80 4d 00
        E 0 80 65 00
        E 120 90 4c 68
        E 0 90 64 68
        E 120 80 4c 00
        E 0 80 64 00
        E 120 90 4b 69
        E 0 90 63 69
        E 120 80 38 00
        E 0 80 50 00
        E 0 80 68 00
        E 0 80 4b 00
        E 0 80 63 00
        E 120 90 07 64
        E 0 90 18 67
        E 0 90 30 67
        E 0 90 38 64
        E 0 90 48 67
        E 0 90 50 64
        E 0 90 60 67
        E 0 90 62 69
        E 0 90 68 64
        E 0 91 31 69
        E 0 91 32 69
        E 0 91 33 67
        E 0 91 34 67
        E 0 91 49 69
        E 0 91 4a 69
        E 0 91 4b 67
        E 0 91 4c 67
        E 0 91 61 69
        E 0 91 63 67
        E 0 91 64 67
        E 120 80 07 00
        E 0 80 18 00
        E 0 80 30 00
        E 0 80 48 00
        E 0 80 60 00
        E 0 80 62 00
        E 0 81 31 00
        E 0 81 32 00
        E 0 81 33 00
        E 0 81 34 00
        E 0 81 49 00
        E 0 81 4a 00
        E 0 81 4b 00
        E 0 81 4c 00
        E 0 81 61 00
        E 0 81 63 00
        E 0 81 64 00
        E 120 90 4b 67
        E 0 90 4c 67
        E 0 90 63 67
        E 0 90 64 67
        E 120 80 4b 00
        E 0 80 4c 00
        E 0 80 63 00
        E 0 80 64 00
        E 120 90 1b 67
        E 0 90 1c 67
        E 0 90 33 67
        E 0 90 34 67
        E 0 90 4b 67
        E 0 90 4c 67
        E 0 90 63 67
        E 0 90 64 67
        E 480 80 38 00
        E 0 80 1b 00
        E 0 80 1c 00
        E 0 80 33 00
        E 0 80 34 00
        E 360 80 50 00
        E 0 80 68 00
        E 0 80 4b 00
        E 0 80 4c 00
        E 0 80 63 00
        E 0 80 64 00
        <X 120 0
          /wFbYmVnaW5fcGcgc29uZ190cmFpbmVyX3BnXzJd
        >
        E 0 90 0b 64
        E 0 90 12 64
        E 0 90 19 66
        E 0 90 31 66
        E 0 90 38 64
        E 0 90 49 66
        E 0 90 50 64
        E 0 90 61 66
        E 0 90 68 64
        E 0 90 6c 66
        E 0 91 32 68
        E 0 91 33 68
        E 0 91 34 67
        E 0 91 35 66
        E 0 91 4a 68
        E 0 91 4b 68
        E 0 91 4c 67
        E 0 91 4d 66
        E 0 91 62 68
        E 0 91 63 68
        E 0 91 64 67
        E 0 91 65 66
        E 120 80 0b 00
        E 0 80 19 00
        E 0 80 31 00
        E 0 80 49 00
        E 0 80 61 00
        E 0 80 6c 00
        E 0 81 32 00
        E 0 81 33 00
        E 0 81 34 00
        E 0 81 35 00
        E 0 81 4a 00
        E 0 81 4b 00
        E 0 81 4c 00
        E 0 81 4d 00
        E 0 81 62 00
        E 0 81 63 00
        E 0 81 64 00
        E 0 81 65 00
        E 120 90 4a 68
        E 0 90 62 68
        E 120 80 4a 00
        E 0 80 62 00
        E 0 90 63 68
        E 120 80 63 00
        E 0 90 4c 67
        E 0 90 64 67
        E 120 80 4c 00
        E 0 80 64 00
        E 120 90 1d 66
        E 0 90 35 66
        E 0 90 4d 66
        E 0 90 65 66
        E 120 80 1d 00
        E 0 80 35 00
        E 0 80 4d 00
        E 0 80 65 00
        E 120 90 4c 67
        E 0 90 64 67
        E 120 80 4c 00
        E 0 80 64 00
        E 120 90 4b 68
        E 0 90 63 68
        E 120 80 38 00
        E 0 80 50 00
        E 0 80 68 00
        E 0 80 4b 00
        E 0 80 63 00
        E 120 90 06 64
        E 0 90 18 66
        E 0 90 30 66
        E 0 90 38 64
        E 0 90 48 66
        E 0 90 50 64
        E 0 90 60 66
        E 0 90 68 64
        E 0 91 31 68
        E 0 91 32 68
        E 0 91 33 66
        E 0 91 34 66
        E 0 91 49 68
        E 0 91 4a 68
        E 0 91 4b 66
        E 0 91 4c 66
        E 0 91 61 68
        E 0 91 62 68
        E 0 91 63 66
        E 0 91 64 66
        E 120 80 06 00
        E 0 80 18 00
        E 0 80 30 00
        E 0 80 48 00
        E 0 80 60 00
        E 0 81 31 00
        E 0 81 32 00
        E 0 81 33 00
        E 0 81 34 00
        E 0 81 49 00
        E 0 81 4a 00
        E 0 81 4b 00
        E 0 81 4c 00
        E 0 81 61 00
        E 0 81 62 00
        E 0 81 63 00
        E 0 81 64 00
        E 120 90 49 68
        E 0 90 61 68
        E 120 80 49 00
        E 0 80 61 00
        E 120 90 4a 68
        E 0 90 62 68
        E 120 80 4a 00
        E 0 80 62 00
        E 120 90 1c 66
        E 0 90 34 66
        E 0 90 4b 66
        E 0 90 4c 66
        E 0 90 63 66
        E 0 90 64 66
        E 120 80 1c 00
        E 0 80 34 00
        E 480 80 38 00
        E 0 80 50 00
        E 0 80 68 00
        E 0 80 4b 00
        E 0 80 4c 00
        E 0 80 63 00
        E 0 80 64 00
        <X 120 0
          /wFbcGdfbm9ybSBzb25nX3RyYWluZXJfcGdfMl0=
        >
        E 0 90 0b 64
        E 0 90 19 66
        E 0 90 31 66
        E 0 90 38 64
        E 0 90 49 66
        E 0 90 50 64
        E 0 90 61 66
        E 0 90 68 64
        E 0 91 32 68
        E 0 91 33 68
        E 0 91 34 67
        E 0 91 35 66
        E 0 91 4a 68
        E 0 91 4b 68
        E 0 91 4c 67
        E 0 91 4d 66
        E 0 91 62 68
        E 0 91 63 68
        E 0 91 64 67
        E 0 91 65 66
        E 120 80 0b 00
        E 0 80 19 00
        E 0 80 31 00
        E 0 80 49 00
        E 0 80 61 00
        E 0 81 32 00
        E 0 81 33 00
        E 0 81 34 00
        E 0 81 35 00
        E 0 81 4a 00
        E 0 81 4b 00
        E 0 81 4c 00
        E 0 81 4d 00
        E 0 81 62 00
        E 0 81 63 00
        E 0 81 64 00
        E 0 81 65 00
        E 120 90 4a 68
        E 0 90 62 68
        E 120 80 4a 00
        E 0 80 62 00
        E 0 90 63 68
        E 120 80 63 00
        E 0 90 4c 67
        E 0 90 64 67
        E 120 80 4c 00
        E 0 80 64 00
        E 120 90 1d 66
        E 0 90 35 66
        E 0 90 4d 66
        E 0 90 65 66
        E 120 80 1d 00
        E 0 80 35 00
        E 0 80 4d 00
        E 0 80 65 00
        E 120 90 4c 67
        E 0 90 64 67
        E 120 80 4c 00
        E 0 80 64 00
        E 120 90 4b 68
        E 0 90 63 68
        E 120 80 38 00
        E 0 80 50 00
        E 0 80 68 00
        E 0 80 4b 00
        E 0 80 63 00
        E 120 90 06 64
        E 0 90 18 66
        E 0 90 30 66
        E 0 90 38 64
        E 0 90 48 66
        E 0 90 50 64
        E 0 90 60 66
        E 0 90 62 68
        E 0 90 68 64
        E 0 91 31 68
        E 0 91 32 68
        E 0 91 33 66
        E 0 91 34 66
        E 0 91 49 68
        E 0 91 4a 68
        E 0 91 4b 66
        E 0 91 4c 66
        E 0 91 61 68
        E 0 91 63 66
        E 0 91 64 66
        E 120 80 06 00
        E 0 80 18 00
        E 0 80 30 00
        E 0 80 48 00
        E 0 80 60 00
        E 0 80 62 00
        E 0 81 31 00
        E 0 81 32 00
        E 0 81 33 00
        E 0 81 34 00
        E 0 81 49 00
        E 0 81 4a 00
        E 0 81 4b 00
        E 0 81 4c 00
        E 0 81 61 00
        E 0 81 63 00
        E 0 81 64 00
        E 120 90 4b 66
        E 0 90 4c 66
        E 0 90 63 66
        E 0 90 64 66
        E 120 80 4b 00
        E 0 80 4c 00
        E 0 80 63 00
        E 0 80 64 00
        E 120 90 4b 66
        E 0 90 4c 66
        E 0 90 63 66
        E 0 90 64 66
        E 240 90 1c 66
        E 0 90 34 66
        E 600 80 38 00
        E 0 80 50 00
        E 0 80 68 00
        E 0 80 4b 00
        E 0 80 4c 00
        E 0 80 63 00
        E 0 80 64 00
        E 0 80 1c 00
        E 0 80 34 00
        E 120 90 0b 64
        E 0 90 19 66
        E 0 90 31 66
        E 0 90 38 64
        E 0 90 49 66
        E 0 90 50 64
        E 0 90 61 66
        E 0 90 68 64
        E 0 90 74 60
        E 0 91 32 68
        E 0 91 33 68
        E 0 91 34 67
        E 0 91 35 66
        E 0 91 4a 68
        E 0 91 4b 68
        E 0 91 4c 67
        E 0 91 4d 66
        E 0 91 62 68
        E 0 91 63 68
        E 0 91 64 67
        E 0 91 65 66
        E 120 80 0b 00
        E 0 80 19 00
        E 0 80 31 00
        E 0 80 49 00
        E 0 80 61 00
        E 0 81 32 00
        E 0 81 33 00
        E 0 81 34 00
        E 0 81 35 00
        E 0 81 4a 00
        E 0 81 4b 00
        E 0 81 4c 00
        E 0 81 4d 00
        E 0 81 62 00
        E 0 81 63 00
        E 0 81 64 00
        E 0 81 65 00
        E 120 90 4a 68
        E 0 90 62 68
        E 120 80 4a 00
        E 0 80 62 00
        E 0 90 63 68
        E 120 80 63 00
        E 0 90 4c 67
        E 0 90 64 67
        E 120 80 4c 00
        E 0 80 64 00
        E 120 90 1d 66
        E 0 90 35 66
        E 0 90 4d 66
        E 0 90 65 66
        E 120 80 1d 00
        E 0 80 35 00
        E 0 80 4d 00
        E 0 80 65 00
        E 120 90 4c 67
        E 0 90 64 67
        E 120 80 4c 00
        E 0 80 64 00
        E 120 90 4b 68
        E 0 90 63 68
        E 120 80 38 00
        E 0 80 50 00
        E 0 80 68 00
        E 0 80 4b 00
        E 0 80 63 00
        E 120 90 06 64
        E 0 90 18 66
        E 0 90 30 66
        E 0 90 38 64
        E 0 90 48 66
        E 0 90 50 64
        E 0 90 60 66
        E 0 90 68 64
        E 0 91 31 68
        E 0 91 32 68
        E 0 91 33 66
        E 0 91 34 66
        E 0 91 49 68
        E 0 91 4a 68
        E 0 91 4b 66
        E 0 91 4c 66
        E 0 91 61 68
        E 0 91 62 68
        E 0 91 63 66
        E 0 91 64 66
        E 120 80 06 00
        E 0 80 18 00
        E 0 80 30 00
        E 0 80 48 00
        E 0 80 60 00
        E 0 81 31 00
        E 0 81 32 00
        E 0 81 33 00
        E 0 81 34 00
        E 0 81 49 00
        E 0 81 4a 00
        E 0 81 4b 00
        E 0 81 4c 00
        E 0 81 61 00
        E 0 81 62 00
        E 0 81 63 00
        E 0 81 64 00
        E 120 90 19 68
        E 0 90 49 68
        E 0 90 61 68
        E 120 80 19 00
        E 0 80 49 00
        E 0 80 61 00
        E 120 90 4a 68
        E 0 90 62 68
        E 120 80 4a 00
        E 0 80 62 00
        E 120 90 1c 66
        E 0 90 34 66
        E 0 90 4b 66
        E 0 90 4c 66
        E 0 90 63 66
        E 0 90 64 66
        E 120 80 1c 00
        E 0 80 34 00
        E 480 80 38 00
        E 0 80 50 00
        E 0 80 68 00
        E 0 80 4b 00
        E 0 80 4c 00
        E 0 80 63 00
        E 0 80 64 00
        E 120 90 0b 64
        E 0 90 19 66
        E 0 90 31 66
        E 0 90 38 64
        E 0 90 49 66
        E 0 90 50 64
        E 0 90 61 66
        E 0 90 68 64
        E 0 91 32 68
        E 0 91 33 68
        E 0 91 34 67
        E 0 91 35 66
        E 0 91 4a 68
        E 0 91 4b 68
        E 0 91 4c 67
        E 0 91 4d 66
        E 0 91 62 68
        E 0 91 63 68
        E 0 91 64 67
        E 0 91 65 66
        E 120 80 0b 00
        E 0 80 19 00
        E 0 80 31 00
        E 0 80 49 00
        E 0 80 61 00
        E 0 80 74 00
        E 0 81 32 00
        E 0 81 33 00
        E 0 81 34 00
        E 0 81 35 00
        E 0 81 4a 00
        E 0 81 4b 00
        E 0 81 4c 00
        E 0 81 4d 00
        E 0 81 62 00
        E 0 81 63 00
        E 0 81 64 00
        E 0 81 65 00
        E 120 90 4a 68
        E 0 90 62 68
        E 120 80 4a 00
        E 0 80 62 00
        E 0 90 63 68
        E 120 80 63 00
        E 0 90 4c 67
        E 0 90 64 67
        E 120 80 4c 00
        E 0 80 64 00
        E 120 90 1d 66
        E 0 90 35 66
        E 0 90 4d 66
        E 0 90 65 66
        E 120 80 1d 00
        E 0 80 35 00
        E 0 80 4d 00
        E 0 80 65 00
        E 120 90 4c 67
        E 0 90 64 67
        E 120 80 4c 00
        E 0 80 64 00
        E 120 90 4b 68
        E 0 90 63 68
        E 120 80 38 00
        E 0 80 50 00
        E 0 80 68 00
        E 0 80 4b 00
        E 0 80 63 00
        E 120 90 06 64
        E 0 90 18 66
        E 0 90 30 66
        E 0 90 38 64
        E 0 90 48 66
        E 0 90 50 64
        E 0 90 60 66
        E 0 90 62 68
        E 0 90 68 64
        E 0 91 31 68
        E 0 91 32 68
        E 0 91 33 66
        E 0 91 34 66
        E 0 91 49 68
        E 0 91 4a 68
        E 0 91 4b 66
        E 0 91 4c 66
        E 0 91 61 68
        E 0 91 63 66
        E 0 91 64 66
        E 120 80 06 00
        E 0 80 18 00
        E 0 80 30 00
        E 0 80 48 00
        E 0 80 60 00
        E 0 80 62 00
        E 0 81 31 00
        E 0 81 32 00
        E 0 81 33 00
        E 0 81 34 00
        E 0 81 49 00
        E 0 81 4a 00
        E 0 81 4b 00
        E 0 81 4c 00
        E 0 81 61 00
        E 0 81 63 00
        E 0 81 64 00
        E 120 90 4b 66
        E 0 90 4c 66
        E 0 90 63 66
        E 0 90 64 66
        E 120 80 4b 00
        E 0 80 4c 00
        E 0 80 63 00
        E 0 80 64 00
        E 120 90 1b 66
        E 0 90 1c 66
        E 0 90 33 66
        E 0 90 34 66
        E 0 90 4b 66
        E 0 90 4c 66
        E 0 90 63 66
        E 0 90 64 66
        E 480 80 38 00
        E 0 80 1b 00
        E 0 80 1c 00
        E 0 80 33 00
        E 0 80 34 00
        E 360 80 50 00
        E 0 80 68 00
        E 0 80 4b 00
        E 0 80 4c 00
        E 0 80 63 00
        E 0 80 64 00
        <X 120 0
          /wFbZW5kX3BnIHNvbmdfdHJhaW5lcl9wZ18yXQ==
        >
        <X 0 0
          /wFbYmVnaW5fcGcgc29uZ190cmFpbmVyX3BnXzNd
        >
        E 0 90 0d 64
        E 0 90 19 68
        E 0 90 31 68
        E 0 90 38 64
        E 0 90 49 68
        E 0 90 50 64
        E 0 90 61 68
        E 0 90 68 64
        E 0 90 6c 68
        E 0 91 32 6a
        E 0 91 33 6a
        E 0 91 34 69
        E 0 91 35 68
        E 0 91 4a 6a
        E 0 91 4b 6a
        E 0 91 4c 69
        E 0 91 4d 68
        E 0 91 62 6a
        E 0 91 63 6a
        E 0 91 64 69
        E 0 91 65 68
        E 120 80 0d 00
        E 0 80 19 00
        E 0 80 31 00
        E 0 80 49 00
        E 0 80 61 00
        E 0 80 6c 00
        E 0 81 32 00
        E 0 81 33 00
        E 0 81 34 00
        E 0 81 35 00
        E 0 81 4a 00
        E 0 81 4b 00
        E 0 81 4c 00
        E 0 81 4d 00
        E 0 81 62 00
        E 0 81 63 00
        E 0 81 64 00
        E 0 81 65 00
        E 120 90 4a 6a
        E 0 90 62 6a
        E 120 80 4a 00
        E 0 80 62 00
        E 0 90 63 6a
        E 120 80 63 00
        E 0 90 4c 69
        E 0 90 64 69
        E 120 80 4c 00
        E 0 80 64 00
        E 120 90 1d 68
        E 0 90 35 68
        E 0 90 4d 68
        E 0 90 65 68
        E 120 80 1d 00
        E 0 80 35 00
        E 0 80 4d 00
        E 0 80 65 00
        E 120 90 4c 69
        E 0 90 64 69
        E 120 80 4c 00
        E 0 80 64 00
        E 120 90 4b 6a
        E 0 90 63 6a
        E 120 80 38 00
        E 0 80 50 00
        E 0 80 68 00
        E 0 80 4b 00
        E 0 80 63 00
        E 120 90 08 64
        E 0 90 18 68
        E 0 90 30 68
        E 0 90 38 64
        E 0 90 48 68
        E 0 90 50 64
        E 0 90 60 68
        E 0 90 68 64
        E 0 91 31 6a
        E 0 91 32 6a
        E 0 91 33 68
        E 0 91 34 68
        E 0 91 49 6a
        E 0 91 4a 6a
        E 0 91 4b 68
        E 0 91 4c 68
        E 0 91 61 6a
        E 0 91 62 6a
        E 0 91 63 68
        E 0 91 64 68
        E 120 80 08 00
        E 0 80 18 00
        E 0 80 30 00
        E 0 80 48 00
        E 0 80 60 00
        E 0 81 31 00
        E 0 81 32 00
        E 0 81 33 00
        E 0 81 34 00
        E 0 81 49 00
        E 0 81 4a 00
        E 0 81 4b 00
        E 0 81 4c 00
        E 0 81 61 00
        E 0 81 62 00
        E 0 81 63 00
        E 0 81 64 00
        E 120 90 49 6a
        E 0 90 61 6a
        E 120 80 49 00
        E 0 80 61 00
        E 120 90 4a 6a
        E 0 90 62 6a
        E 120 80 4a 00
        E 0 80 62 00
        E 120 90 1c 68
        E 0 90 34 68
        E 0 90 4b 68
        E 0 90 4c 68
        E 0 90 63 68
        E 0 90 64 68
        E 120 80 1c 00
        E 0 80 34 00
        E 480 80 38 00
        E 0 80 50 00
        E 0 80 68 00
        E 0 80 4b 00
        E 0 80 4c 00
        E 0 80 63 00
        E 0 80 64 00
        <X 120 0
          /wFbcGdfbm9ybSBzb25nX3RyYWluZXJfcGdfM10=
        >
        E 0 90 0d 64
        E 0 90 19 68
        E 0 90 31 68
        E 0 90 38 64
        E 0 90 49 68
        E 0 90 50 64
        E 0 90 61 68
        E 0 90 68 64
        E 0 91 32 6a
        E 0 91 33 6a
        E 0 91 34 69
        E 0 91 35 68
        E 0 91 4a 6a
        E 0 91 4b 6a
        E 0 91 4c 69
        E 0 91 4d 68
        E 0 91 62 6a
        E 0 91 63 6a
        E 0 91 64 69
        E 0 91 65 68
        E 120 80 0d 00
        E 0 80 19 00
        E 0 80 31 00
        E 0 80 49 00
        E 0 80 61 00
        E 0 81 32 00
        E 0 81 33 00
        E 0 81 34 00
        E 0 81 35 00
        E 0 81 4a 00
        E 0 81 4b 00
        E 0 81 4c 00
        E 0 81 4d 00
        E 0 81 62 00
        E 0 81 63 00
        E 0 81 64 00
        E 0 81 65 00
        E 120 90 4a 6a
        E 0 90 62 6a
        E 120 80 4a 00
        E 0 80 62 00
        E 0 90 63 6a
        E 120 80 63 00
        E 0 90 4c 69
        E 0 90 64 69
        E 120 80 4c 00
        E 0 80 64 00
        E 120 90 1d 68
        E 0 90 35 68
        E 0 90 4d 68
        E 0 90 65 68
        E 120 80 1d 00
        E 0 80 35 00
        E 0 80 4d 00
        E 0 80 65 00
        E 120 90 4c 69
        E 0 90 64 69
        E 120 80 4c 00
        E 0 80 64 00
        E 120 90 4b 6a
        E 0 90 63 6a
        E 120 80 38 00
        E 0 80 50 00
        E 0 80 68 00
        E 0 80 4b 00
        E 0 80 63 00
        E 120 90 08 64
        E 0 90 18 68
        E 0 90 30 68
        E 0 90 38 64
        E 0 90 48 68
        E 0 90 50 64
        E 0 90 60 68
        E 0 90 62 6a
        E 0 90 68 64
        E 0 91 31 6a
        E 0 91 32 6a
        E 0 91 33 68
        E 0 91 34 68
        E 0 91 49 6a
        E 0 91 4a 6a
        E 0 91 4b 68
        E 0 91 4c 68
        E 0 91 61 6a
        E 0 91 63 68
        E 0 91 64 68
        E 120 80 08 00
        E 0 80 18 00
        E 0 80 30 00
        E 0 80 48 00
        E 0 80 60 00
        E 0 80 62 00
        E 0 81 31 00
        E 0 81 32 00
        E 0 81 33 00
        E 0 81 34 00
        E 0 81 49 00
        E 0 81 4a 00
        E 0 81 4b 00
        E 0 81 4c 00
        E 0 81 61 00
        E 0 81 63 00
        E 0 81 64 00
        E 120 90 4b 68
        E 0 90 4c 68
        E 0 90 63 68
        E 0 90 64 68
        E 120 80 4b 00
        E 0 80 4c 00
        E 0 80 63 00
        E 0 80 64 00
        E 120 90 4b 68
        E 0 90 4c 68
        E 0 90 63 68
        E 0 90 64 68
        E 240 90 1c 68
        E 0 90 34 68
        E 600 80 38 00
        E 0 80 50 00
        E 0 80 68 00
        E 0 80 4b 00
        E 0 80 4c 00
        E 0 80 63 00
        E 0 80 64 00
        E 0 80 1c 00
        E 0 80 34 00
        E 120 90 0d 64
        E 0 90 19 68
        E 0 90 31 68
        E 0 90 38 64
        E 0 90 49 68
        E 0 90 50 64
        E 0 90 61 68
        E 0 90 68 64
        E 0 90 6c 68
        E 0 91 32 6a
        E 0 91 33 6a
        E 0 91 34 69
        E 0 91 35 68
        E 0 91 4a 6a
        E 0 91 4b 6a
        E 0 91 4c 69
        E 0 91 4d 68
        E 0 91 62 6a
        E 0 91 63 6a
        E 0 91 64 69
        E 0 91 65 68
        E 120 80 0d 00
        E 0 80 19 00
        E 0 80 31 00
        E 0 80 49 00
        E 0 80 61 00
        E 0 80 6c 00
        E 0 81 32 00
        E 0 81 33 00
        E 0 81 34 00
        E 0 81 35 00
        E 0 81 4a 00
        E 0 81 4b 00
        E 0 81 4c 00
        E 0 81 4d 00
        E 0 81 62 00
        E 0 81 63 00
        E 0 81 64 00
        E 0 81 65 00
        E 120 90 4a 6a
        E 0 90 62 6a
        E 120 80 4a 00
        E 0 80 62 00
        E 0 90 63 6a
        E 120 80 63 00
        E 0 90 4c 69
        E 0 90 64 69
        E 120 80 4c 00
        E 0 80 64 00
        E 120 90 1d 68
        E 0 90 35 68
        E 0 90 4d 68
        E 0 90 65 68
        E 120 80 1d 00
        E 0 80 35 00
        E 0 80 4d 00
        E 0 80 65 00
        E 120 90 4c 69
        E 0 90 64 69
        E 120 80 4c 00
        E 0 80 64 00
        E 120 90 4b 6a
        E 0 90 63 6a
        E 120 80 38 00
        E 0 80 50 00
        E 0 80 68 00
        E 0 80 4b 00
        E 0 80 63 00
        E 120 90 08 64
        E 0 90 18 68
        E 0 90 30 68
        E 0 90 38 64
        E 0 90 48 68
        E 0 90 50 64
        E 0 90 60 68
        E 0 90 68 64
        E 0 91 31 6a
        E 0 91 32 6a
        E 0 91 33 68
        E 0 91 34 68
        E 0 91 49 6a
        E 0 91 4a 6a
        E 0 91 4b 68
        E 0 91 4c 68
        E 0 91 61 6a
        E 0 91 62 6a
        E 0 91 63 68
        E 0 91 64 68
        E 120 80 08 00
        E 0 80 18 00
        E 0 80 30 00
        E 0 80 48 00
        E 0 80 60 00
        E 0 81 31 00
        E 0 81 32 00
        E 0 81 33 00
        E 0 81 34 00
        E 0 81 49 00
        E 0 81 4a 00
        E 0 81 4b 00
        E 0 81 4c 00
        E 0 81 61 00
        E 0 81 62 00
        E 0 81 63 00
        E 0 81 64 00
        E 120 90 19 6a
        E 0 90 49 6a
        E 0 90 61 6a
        E 120 80 19 00
        E 0 80 49 00
        E 0 80 61 00
        E 120 90 4a 6a
        E 0 90 62 6a
        E 120 80 4a 00
        E 0 80 62 00
        E 120 90 1c 68
        E 0 90 34 68
        E 0 90 4b 68
        E 0 90 4c 68
        E 0 90 63 68
        E 0 90 64 68
        E 120 80 1c 00
        E 0 80 34 00
        E 480 80 38 00
        E 0 80 50 00
        E 0 80 68 00
        E 0 80 4b 00
        E 0 80 4c 00
        E 0 80 63 00
        E 0 80 64 00
        E 120 90 0d 64
        E 0 90 19 68
        E 0 90 31 68
        E 0 90 38 64
        E 0 90 49 68
        E 0 90 50 64
        E 0 90 61 68
        E 0 90 68 64
        E 0 90 74 60
        E 0 91 32 6a
        E 0 91 33 6a
        E 0 91 34 69
        E 0 91 35 68
        E 0 91 4a 6a
        E 0 91 4b 6a
        E 0 91 4c 69
        E 0 91 4d 68
        E 0 91 62 6a
        E 0 91 63 6a
        E 0 91 64 69
        E 0 91 65 68
        E 120 80 0d 00
        E 0 80 19 00
        E 0 80 31 00
        E 0 80 49 00
        E 0 80 61 00
        E 0 81 32 00
        E 0 81 33 00
        E 0 81 34 00
        E 0 81 35 00
        E 0 81 4a 00
        E 0 81 4b 00
        E 0 81 4c 00
        E 0 81 4d 00
        E 0 81 62 00
        E 0 81 63 00
        E 0 81 64 00
        E 0 81 65 00
        E 120 90 4a 6a
        E 0 90 62 6a
        E 120 80 4a 00
        E 0 80 62 00
        E 0 90 63 6a
        E 120 80 63 00
        E 0 90 4c 69
        E 0 90 64 69
        E 120 80 4c 00
        E 0 80 64 00
        E 120 90 1d 68
        E 0 90 35 68
        E 0 90 4d 68
        E 0 90 65 68
        E 120 80 1d 00
        E 0 80 35 00
        E 0 80 4d 00
        E 0 80 65 00
        E 120 90 4c 69
        E 0 90 64 69
        E 120 80 4c 00
        E 0 80 64 00
        E 120 90 4b 6a
        E 0 90 63 6a
        E 120 80 38 00
        E 0 80 50 00
        E 0 80 68 00
        E 0 80 4b 00
        E 0 80 63 00
        E 120 90 08 64
        E 0 90 18 68
        E 0 90 30 68
        E 0 90 38 64
        E 0 90 48 68
        E 0 90 50 64
        E 0 90 60 68
        E 0 90 62 6a
        E 0 90 68 64
        E 0 91 31 6a
        E 0 91 32 6a
        E 0 91 33 68
        E 0 91 34 68
        E 0 91 49 6a
        E 0 91 4a 6a
        E 0 91 4b 68
        E 0 91 4c 68
        E 0 91 61 6a
        E 0 91 63 68
        E 0 91 64 68
        E 120 80 08 00
        E 0 80 18 00
        E 0 80 30 00
        E 0 80 48 00
        E 0 80 60 00
        E 0 80 62 00
        E 0 81 31 00
        E 0 81 32 00
        E 0 81 33 00
        E 0 81 34 00
        E 0 81 49 00
        E 0 81 4a 00
        E 0 81 4b 00
        E 0 81 4c 00
        E 0 81 61 00
        E 0 81 63 00
        E 0 81 64 00
        E 120 90 4b 68
        E 0 90 4c 68
        E 0 90 63 68
        E 0 90 64 68
        E 120 80 4b 00
        E 0 80 4c 00
        E 0 80 63 00
        E 0 80 64 00
        E 120 90 1b 68
        E 0 90 1c 68
        E 0 90 33 68
        E 0 90 34 68
        E 0 90 4b 68
        E 0 90 4c 68
        E 0 90 63 68
        E 0 90 64 68
        <X 960 0
          /wFbZW5kX3BnIHNvbmdfdHJhaW5lcl9wZ18zXQ==
        >
        E 0 80 12 00
        E 0 80 38 00
        E 0 80 50 00
        E 0 80 68 00
        E 0 80 1b 00
        E 0 80 1c 00
        E 0 80 33 00
        E 0 80 34 00
        E 0 80 4b 00
        E 0 80 4c 00
        E 0 80 63 00
        E 0 80 64 00
        E 0 80 74 00
        E 7680 90 0c 64
        E 0 90 19 67
        E 0 90 31 67
        E 0 90 38 64
        E 0 90 49 67
        E 0 90 50 64
        E 0 90 61 67
        E 0 90 68 64
        E 0 90 6c 67
        E 0 91 32 69
        E 0 91 33 69
        E 0 91 34 68
        E 0 91 35 67
        E 0 91 4a 69
        E 0 91 4b 69
        E 0 91 4c 68
        E 0 91 4d 67
        E 0 91 62 69
        E 0 91 63 69
        E 0 91 64 68
        E 0 91 65 67
        E 120 80 0c 00
        E 0 80 19 00
        E 0 80 31 00
        E 0 80 49 00
        E 0 80 61 00
        E 0 80 6c 00
        E 0 81 32 00
        E 0 81 33 00
        E 0 81 34 00
        E 0 81 35 00
        E 0 81 4a 00
        E 0 81 4b 00
        E 0 81 4c 00
        E 0 81 4d 00
        E 0 81 62 00
        E 0 81 63 00
        E 0 81 64 00
        E 0 81 65 00
        E 120 90 4a 69
        E 0 90 62 69
        E 120 80 4a 00
        E 0 80 62 00
        E 0 90 63 69
        E 120 80 63 00
        E 0 90 4c 68
        E 0 90 64 68
        E 120 80 4c 00
        E 0 80 64 00
        E 120 90 1d 67
        E 0 90 35 67
        E 0 90 4d 67
        E 0 90 65 67
        E 120 80 1d 00
        E 0 80 35 00
        E 0 80 4d 00
        E 0 80 65 00
        E 120 90 4c 68
        E 0 90 64 68
        E 120 80 4c 00
        E 0 80 64 00
        E 120 90 4b 69
        E 0 90 63 69
        E 120 80 38 00
        E 0 80 50 00
        E 0 80 68 00
        E 0 80 4b 00
        E 0 80 63 00
        E 120 90 07 64
        E 0 90 18 67
        E 0 90 30 67
        E 0 90 38 64
        E 0 90 48 67
        E 0 90 50 64
        E 0 90 60 67
        E 0 90 68 64
        E 0 91 31 69
        E 0 91 32 69
        E 0 91 33 67
        E 0 91 34 67
        E 0 91 49 69
        E 0 91 4a 69
        E 0 91 4b 67
        E 0 91 4c 67
        E 0 91 61 69
        E 0 91 62 69
        E 0 91 63 67
        E 0 91 64 67
        E 120 80 07 00
        E 0 80 18 00
        E 0 80 30 00
        E 0 80 48 00
        E 0 80 60 00
        E 0 81 31 00
        E 0 81 32 00
        E 0 81 33 00
        E 0 81 34 00
        E 0 81 49 00
        E 0 81 4a 00
        E 0 81 4b 00
        E 0 81 4c 00
        E 0 81 61 00
        E 0 81 62 00
        E 0 81 63 00
        E 0 81 64 00
        E 120 90 49 69
        E 0 90 61 69
        E 120 80 49 00
        E 0 80 61 00
        E 120 90 4a 69
        E 0 90 62 69
        E 120 80 4a 00
        E 0 80 62 00
        E 120 90 1c 67
        E 0 90 34 67
        E 0 90 4b 67
        E 0 90 4c 67
        E 0 90 63 67
        E 0 90 64 67
        E 120 80 1c 00
        E 0 80 34 00
        E 480 80 38 00
        E 0 80 50 00
        E 0 80 68 00
        E 0 80 4b 00
        E 0 80 4c 00
        E 0 80 63 00
        E 0 80 64 00
        E 120 90 0c 64
        E 0 90 19 67
        E 0 90 31 67
        E 0 90 38 64
        E 0 90 49 67
        E 0 90 50 64
        E 0 90 61 67
        E 0 90 68 64
        E 0 91 32 69
        E 0 91 33 69
        E 0 91 34 68
        E 0 91 35 67
        E 0 91 4a 69
        E 0 91 4b 69
        E 0 91 4c 68
        E 0 91 4d 67
        E 0 91 62 69
        E 0 91 63 69
        E 0 91 64 68
        E 0 91 65 67
        E 120 80 0c 00
        E 0 80 19 00
        E 0 80 31 00
        E 0 80 49 00
        E 0 80 61 00
        E 0 81 32 00
        E 0 81 33 00
        E 0 81 34 00
        E 0 81 35 00
        E 0 81 4a 00
        E 0 81 4b 00
        E 0 81 4c 00
        E 0 81 4d 00
        E 0 81 62 00
        E 0 81 63 00
        E 0 81 64 00
        E 0 81 65 00
        E 120 90 4a 69
        E 0 90 62 69
        E 120 80 4a 00
        E 0 80 62 00
        E 0 90 63 69
        E 120 80 63 00
        E 0 90 4c 68
        E 0 90 64 68
        E 120 80 4c 00
        E 0 80 64 00
        E 120 90 1d 67
        E 0 90 35 67
        E 0 90 4d 67
        E 0 90 65 67
        E 120 80 1d 00
        E 0 80 35 00
        E 0 80 4d 00
        E 0 80 65 00
        E 120 90 4c 68
        E 0 90 64 68
        E 120 80 4c 00
        E 0 80 64 00
        E 120 90 4b 69
        E 0 90 63 69
        E 120 80 38 00
        E 0 80 50 00
        E 0 80 68 00
        E 0 80 4b 00
        E 0 80 63 00
        E 120 90 07 64
        E 0 90 18 67
        E 0 90 30 67
        E 0 90 38 64
        E 0 90 48 67
        E 0 90 50 64
        E 0 90 60 67
        E 0 90 62 69
        E 0 90 68 64
        E 0 91 31 69
        E 0 91 32 69
        E 0 91 33 67
        E 0 91 34 67
        E 0 91 49 69
        E 0 91 4a 69
        E 0 91 4b 67
        E 0 91 4c 67
        E 0 91 61 69
        E 0 91 63 67
        E 0 91 64 67
        E 120 80 07 00
        E 0 80 18 00
        E 0 80 30 00
        E 0 80 48 00
        E 0 80 60 00
        E 0 80 62 00
        E 0 81 31 00
        E 0 81 32 00
        E 0 81 33 00
        E 0 81 34 00
        E 0 81 49 00
        E 0 81 4a 00
        E 0 81 4b 00
        E 0 81 4c 00
        E 0 81 61 00
        E 0 81 63 00
        E 0 81 64 00
        E 120 90 4b 67
        E 0 90 4c 67
        E 0 90 63 67
        E 0 90 64 67
        E 120 80 4b 00
        E 0 80 4c 00
        E 0 80 63 00
        E 0 80 64 00
        E 120 90 4b 67
        E 0 90 4c 67
        E 0 90 63 67
        E 0 90 64 67
        E 240 90 1c 67
        E 0 90 34 67
        E 600 80 38 00
        E 0 80 50 00
        E 0 80 68 00
        E 0 80 4b 00
        E 0 80 4c 00
        E 0 80 63 00
        E 0 80 64 00
        E 0 80 1c 00
        E 0 80 34 00
        E 120 90 0c 64
        E 0 90 19 67
        E 0 90 31 67
        E 0 90 38 64
        E 0 90 49 67
        E 0 90 50 64
        E 0 90 61 67
        E 0 90 68 64
        E 0 91 32 69
        E 0 91 33 69
        E 0 91 34 68
        E 0 91 35 67
        E 0 91 4a 69
        E 0 91 4b 69
        E 0 91 4c 68
        E 0 91 4d 67
        E 0 91 62 69
        E 0 91 63 69
        E 0 91 64 68
        E 0 91 65 67
        E 120 80 0c 00
        E 0 80 19 00
        E 0 80 31 00
        E 0 80 49 00
        E 0 80 61 00
        E 0 81 32 00
        E 0 81 33 00
        E 0 81 34 00
        E 0 81 35 00
        E 0 81 4a 00
        E 0 81 4b 00
        E 0 81 4c 00
        E 0 81 4d 00
        E 0 81 62 00
        E 0 81 63 00
        E 0 81 64 00
        E 0 81 65 00
        E 120 90 4a 69
        E 0 90 62 69
        E 120 80 4a 00
        E 0 80 62 00
        E 0 90 63 69
        E 120 80 63 00
        E 0 90 4c 68
        E 0 90 64 68
        E 120 80 4c 00
        E 0 80 64 00
        E 120 90 1d 67
        E 0 90 35 67
        E 0 90 4d 67
        E 0 90 65 67
        E 120 80 1d 00
        E 0 80 35 00
        E 0 80 4d 00
        E 0 80 65 00
        E 120 90 4c 68
        E 0 90 64 68
        E 120 80 4c 00
        E 0 80 64 00
        E 120 90 4b 69
        E 0 90 63 69
        E 120 80 38 00
        E 0 80 50 00
        E 0 80 68 00
        E 0 80 4b 00
        E 0 80 63 00
        E 120 90 07 64
        E 0 90 18 67
        E 0 90 30 67
        E 0 90 38 64
        E 0 90 48 67
        E 0 90 50 64
        E 0 90 60 67
        E 0 90 68 64
        E 0 91 31 69
        E 0 91 32 69
        E 0 91 33 67
        E 0 91 34 67
        E 0 91 49 69
        E 0 91 4a 69
        E 0 91 4b 67
        E 0 91 4c 67
        E 0 91 61 69
        E 0 91 62 69
        E 0 91 63 67
        E 0 91 64 67
        E 120 80 07 00
        E 0 80 18 00
        E 0 80 30 00
        E 0 80 48 00
        E 0 80 60 00
        E 0 81 31 00
        E 0 81 32 00
        E 0 81 33 00
        E 0 81 34 00
        E 0 81 49 00
        E 0 81 4a 00
        E 0 81 4b 00
        E 0 81 4c 00
        E 0 81 61 00
        E 0 81 62 00
        E 0 81 63 00
        E 0 81 64 00
        E 120 90 19 69
        E 0 90 49 69
        E 0 90 61 69
        E 120 80 19 00
        E 0 80 49 00
        E 0 80 61 00
        E 120 90 4a 69
        E 0 90 62 69
        E 120 80 4a 00
        E 0 80 62 00
        E 120 90 1c 67
        E 0 90 34 67
        E 0 90 4b 67
        E 0 90 4c 67
        E 0 90 63 67
        E 0 90 64 67
        E 120 80 1c 00
        E 0 80 34 00
        E 480 80 38 00
        E 0 80 50 00
        E 0 80 68 00
        E 0 80 4b 00
        E 0 80 4c 00
        E 0 80 63 00
        E 0 80 64 00
        E 120 90 0c 64
        E 0 90 19 67
        E 0 90 31 67
        E 0 90 38 64
        E 0 90 49 67
        E 0 90 50 64
        E 0 90 61 67
        E 0 90 68 64
        E 0 90 74 60
        E 0 91 32 69
        E 0 91 33 69
        E 0 91 34 68
        E 0 91 35 67
        E 0 91 4a 69
        E 0 91 4b 69
        E 0 91 4c 68
        E 0 91 4d 67
        E 0 91 62 69
        E 0 91 63 69
        E 0 91 64 68
        E 0 91 65 67
        E 120 80 0c 00
        E 0 80 19 00
        E 0 80 31 00
        E 0 80 49 00
        E 0 80 61 00
        E 0 81 32 00
        E 0 81 33 00
        E 0 81 34 00
        E 0 81 35 00
        E 0 81 4a 00
        E 0 81 4b 00
        E 0 81 4c 00
        E 0 81 4d 00
        E 0 81 62 00
        E 0 81 63 00
        E 0 81 64 00
        E 0 81 65 00
        E 120 90 4a 69
        E 0 90 62 69
        E 120 80 4a 00
        E 0 80 62 00
        E 0 90 63 69
        E 120 80 63 00
        E 0 90 4c 68
        E 0 90 64 68
        E 120 80 4c 00
        E 0 80 64 00
        E 120 90 1d 67
        E 0 90 35 67
        E 0 90 4d 67
        E 0 90 65 67
        E 120 80 1d 00
        E 0 80 35 00
        E 0 80 4d 00
        E 0 80 65 00
        E 120 90 4c 68
        E 0 90 64 68
        E 120 80 4c 00
        E 0 80 64 00
        E 120 90 4b 69
        E 0 90 63 69
        E 120 80 38 00
        E 0 80 50 00
        E 0 80 68 00
        E 0 80 4b 00
        E 0 80 63 00
        E 120 90 07 64
        E 0 90 18 67
        E 0 90 30 67
        E 0 90 38 64
        E 0 90 48 67
        E 0 90 50 64
        E 0 90 60 67
        E 0 90 62 69
        E 0 90 68 64
        E 0 91 31 69
        E 0 91 32 69
        E 0 91 33 67
        E 0 91 34 67
        E 0 91 49 69
        E 0 91 4a 69
        E 0 91 4b 67
        E 0 91 4c 67
        E 0 91 61 69
        E 0 91 63 67
        E 0 91 64 67
        E 120 80 07 00
        E 0 80 18 00
        E 0 80 30 00
        E 0 80 48 00
        E 0 80 60 00
        E 0 80 62 00
        E 0 81 31 00
        E 0 81 32 00
        E 0 81 33 00
        E 0 81 34 00
        E 0 81 49 00
        E 0 81 4a 00
        E 0 81 4b 00
        E 0 81 4c 00
        E 0 81 61 00
        E 0 81 63 00
        E 0 81 64 00
        E 120 90 4b 67
        E 0 90 4c 67
        E 0 90 63 67
        E 0 90 64 67
        E 120 80 4b 00
        E 0 80 4c 00
        E 0 80 63 00
        E 0 80 64 00
        E 120 90 1b 67
        E 0 90 1c 67
        E 0 90 33 67
        E 0 90 34 67
        E 0 90 4b 67
        E 0 90 4c 67
        E 0 90 63 67
        E 0 90 64 67
        E 480 80 38 00
        E 0 80 1b 00
        E 0 80 1c 00
        E 0 80 33 00
        E 0 80 34 00
        E 360 80 50 00
        E 0 80 68 00
        E 0 80 4b 00
        E 0 80 4c 00
        E 0 80 63 00
        E 0 80 64 00
        E 120 90 0d 64
        E 0 90 12 64
        E 0 90 19 68
        E 0 90 31 68
        E 0 90 38 64
        E 0 90 49 68
        E 0 90 50 64
        E 0 90 61 68
        E 0 90 68 64
        E 0 90 6c 68
        E 0 91 32 6a
        E 0 91 33 6a
        E 0 91 34 69
        E 0 91 35 68
        E 0 91 4a 6a
        E 0 91 4b 6a
        E 0 91 4c 69
        E 0 91 4d 68
        E 0 91 62 6a
        E 0 91 63 6a
        E 0 91 64 69
        E 0 91 65 68
        E 120 80 0d 00
        E 0 80 19 00
        E 0 80 31 00
        E 0 80 49 00
        E 0 80 61 00
        E 0 80 6c 00
        E 0 80 74 00
        E 0 81 32 00
        E 0 81 33 00
        E 0 81 34 00
        E 0 81 35 00
        E 0 81 4a 00
        E 0 81 4b 00
        E 0 81 4c 00
        E 0 81 4d 00
        E 0 81 62 00
        E 0 81 63 00
        E 0 81 64 00
        E 0 81 65 00
        E 120 90 4a 6a
        E 0 90 62 6a
        E 120 80 4a 00
        E 0 80 62 00
        E 0 90 63 6a
        E 120 80 63 00
        E 0 90 4c 69
        E 0 90 64 69
        E 120 80 4c 00
        E 0 80 64 00
        E 120 90 1d 68
        E 0 90 35 68
        E 0 90 4d 68
        E 0 90 65 68
        E 120 80 1d 00
        E 0 80 35 00
        E 0 80 4d 00
        E 0 80 65 00
        E 120 90 4c 69
        E 0 90 64 69
        E 120 80 4c 00
        E 0 80 64 00
        E 120 90 4b 6a
        E 0 90 63 6a
        E 120 80 38 00
        E 0 80 50 00
        E 0 80 68 00
        E 0 80 4b 00
        E 0 80 63 00
        E 120 90 08 64
        E 0 90 18 68
        E 0 90 30 68
        E 0 90 38 64
        E 0 90 48 68
        E 0 90 50 64
        E 0 90 60 68
        E 0 90 68 64
        E 0 91 31 6a
        E 0 91 32 6a
        E 0 91 33 68
        E 0 91 34 68
        E 0 91 49 6a
        E 0 91 4a 6a
        E 0 91 4b 68
        E 0 91 4c 68
        E 0 91 61 6a
        E 0 91 62 6a
        E 0 91 63 68
        E 0 91 64 68
        E 120 80 08 00
        E 0 80 18 00
        E 0 80 30 00
        E 0 80 48 00
        E 0 80 60 00
        E 0 81 31 00
        E 0 81 32 00
        E 0 81 33 00
        E 0 81 34 00
        E 0 81 49 00
        E 0 81 4a 00
        E 0 81 4b 00
        E 0 81 4c 00
        E 0 81 61 00
        E 0 81 62 00
        E 0 81 63 00
        E 0 81 64 00
        E 120 90 49 6a
        E 0 90 61 6a
        E 120 80 49 00
        E 0 80 61 00
        E 120 90 4a 6a
        E 0 90 62 6a
        E 120 80 4a 00
        E 0 80 62 00
        E 120 90 1c 68
        E 0 90 34 68
        E 0 90 4b 68
        E 0 90 4c 68
        E 0 90 63 68
        E 0 90 64 68
        E 120 80 1c 00
        E 0 80 34 00
        E 480 80 38 00
        E 0 80 50 00
        E 0 80 68 00
        E 0 80 4b 00
        E 0 80 4c 00
        E 0 80 63 00
        E 0 80 64 00
        E 120 90 0d 64
        E 0 90 19 68
        E 0 90 31 68
        E 0 90 38 64
        E 0 90 49 68
        E 0 90 50 64
        E 0 90 61 68
        E 0 90 68 64
        E 0 91 32 6a
        E 0 91 33 6a
        E 0 91 34 69
        E 0 91 35 68
        E 0 91 4a 6a
        E 0 91 4b 6a
        E 0 91 4c 69
        E 0 91 4d 68
        E 0 91 62 6a
        E 0 91 63 6a
        E 0 91 64 69
        E 0 91 65 68
        E 120 80 0d 00
        E 0 80 19 00
        E 0 80 31 00
        E 0 80 49 00
        E 0 80 61 00
        E 0 81 32 00
        E 0 81 33 00
        E 0 81 34 00
        E 0 81 35 00
        E 0 81 4a 00
        E 0 81 4b 00
        E 0 81 4c 00
        E 0 81 4d 00
        E 0 81 62 00
        E 0 81 63 00
        E 0 81 64 00
        E 0 81 65 00
        E 120 90 4a 6a
        E 0 90 62 6a
        E 120 80 4a 00
        E 0 80 62 00
        E 0 90 63 6a
        E 120 80 63 00
        E 0 90 4c 69
        E 0 90 64 69
        E 120 80 4c 00
        E 0 80 64 00
        E 120 90 1d 68
        E 0 90 35 68
        E 0 90 4d 68
        E 0 90 65 68
        E 120 80 1d 00
        E 0 80 35 00
        E 0 80 4d 00
        E 0 80 65 00
        E 120 90 4c 69
        E 0 90 64 69
        E 120 80 4c 00
        E 0 80 64 00
        E 120 90 4b 6a
        E 0 90 63 6a
        E 120 80 38 00
        E 0 80 50 00
        E 0 80 68 00
        E 0 80 4b 00
        E 0 80 63 00
        E 120 90 08 64
        E 0 90 18 68
        E 0 90 30 68
        E 0 90 38 64
        E 0 90 48 68
        E 0 90 50 64
        E 0 90 60 68
        E 0 90 62 6a
        E 0 90 68 64
        E 0 91 31 6a
        E 0 91 32 6a
        E 0 91 33 68
        E 0 91 34 68
        E 0 91 49 6a
        E 0 91 4a 6a
        E 0 91 4b 68
        E 0 91 4c 68
        E 0 91 61 6a
        E 0 91 63 68
        E 0 91 64 68
        E 120 80 08 00
        E 0 80 18 00
        E 0 80 30 00
        E 0 80 48 00
        E 0 80 60 00
        E 0 80 62 00
        E 0 81 31 00
        E 0 81 32 00
        E 0 81 33 00
        E 0 81 34 00
        E 0 81 49 00
        E 0 81 4a 00
        E 0 81 4b 00
        E 0 81 4c 00
        E 0 81 61 00
        E 0 81 63 00
        E 0 81 64 00
        E 120 90 4b 68
        E 0 90 4c 68
        E 0 90 63 68
        E 0 90 64 68
        E 120 80 4b 00
        E 0 80 4c 00
        E 0 80 63 00
        E 0 80 64 00
        E 120 90 4b 68
        E 0 90 4c 68
        E 0 90 63 68
        E 0 90 64 68
        E 240 90 1c 68
        E 0 90 34 68
        E 600 80 38 00
        E 0 80 50 00
        E 0 80 68 00
        E 0 80 4b 00
        E 0 80 4c 00
        E 0 80 63 00
        E 0 80 64 00
        E 0 80 1c 00
        E 0 80 34 00
        E 120 90 0d 64
        E 0 90 19 68
        E 0 90 31 68
        E 0 90 38 64
        E 0 90 49 68
        E 0 90 50 64
        E 0 90 61 68
        E 0 90 68 64
        E 0 91 32 6a
        E 0 91 33 6a
        E 0 91 34 69
        E 0 91 35 68
        E 0 91 4a 6a
        E 0 91 4b 6a
        E 0 91 4c 69
        E 0 91 4d 68
        E 0 91 62 6a
        E 0 91 63 6a
        E 0 91 64 69
        E 0 91 65 68
        E 120 80 0d 00
        E 0 80 19 00
        E 0 80 31 00
        E 0 80 49 00
        E 0 80 61 00
        E 0 81 32 00
        E 0 81 33 00
        E 0 81 34 00
        E 0 81 35 00
        E 0 81 4a 00
        E 0 81 4b 00
        E 0 81 4c 00
        E 0 81 4d 00
        E 0 81 62 00
        E 0 81 63 00
        E 0 81 64 00
        E 0 81 65 00
        E 120 90 4a 6a
        E 0 90 62 6a
        E 120 80 4a 00
        E 0 80 62 00
        E 0 90 63 6a
        E 120 80 63 00
        E 0 90 4c 69
        E 0 90 64 69
        E 120 80 4c 00
        E 0 80 64 00
        E 120 90 1d 68
        E 0 90 35 68
        E 0 90 4d 68
        E 0 90 65 68
        E 120 80 1d 00
        E 0 80 35 00
        E 0 80 4d 00
        E 0 80 65 00
        E 120 90 4c 69
        E 0 90 64 69
        E 120 80 4c 00
        E 0 80 64 00
        E 120 90 4b 6a
        E 0 90 63 6a
        E 120 80 38 00
        E 0 80 50 00
        E 0 80 68 00
        E 0 80 4b 00
        E 0 80 63 00
        E 120 90 08 64
        E 0 90 18 68
        E 0 90 30 68
        E 0 90 38 64
        E 0 90 48 68
        E 0 90 50 64
        E 0 90 60 68
        E 0 90 68 64
        E 0 91 31 6a
        E 0 91 32 6a
        E 0 91 33 68
        E 0 91 34 68
        E 0 91 49 6a
        E 0 91 4a 6a
        E 0 91 4b 68
        E 0 91 4c 68
        E 0 91 61 6a
        E 0 91 62 6a
        E 0 91 63 68
        E 0 91 64 68
        E 120 80 08 00
        E 0 80 18 00
        E 0 80 30 00
        E 0 80 48 00
        E 0 80 60 00
        E 0 81 31 00
        E 0 81 32 00
        E 0 81 33 00
        E 0 81 34 00
        E 0 81 49 00
        E 0 81 4a 00
        E 0 81 4b 00
        E 0 81 4c 00
        E 0 81 61 00
        E 0 81 62 00
        E 0 81 63 00
        E 0 81 64 00
        E 120 90 19 6a
        E 0 90 49 6a
        E 0 90 61 6a
        E 120 80 19 00
        E 0 80 49 00
        E 0 80 61 00
        E 120 90 4a 6a
        E 0 90 62 6a
        E 120 80 4a 00
        E 0 80 62 00
        E 120 90 1c 68
        E 0 90 34 68
        E 0 90 4b 68
        E 0 90 4c 68
        E 0 90 63 68
        E 0 90 64 68
        E 120 80 1c 00
        E 0 80 34 00
        E 480 80 38 00
        E 0 80 50 00
        E 0 80 68 00
        E 0 80 4b 00
        E 0 80 4c 00
        E 0 80 63 00
        E 0 80 64 00
        E 120 90 0d 64
        E 0 90 19 68
        E 0 90 31 68
        E 0 90 38 64
        E 0 90 49 68
        E 0 90 50 64
        E 0 90 61 68
        E 0 90 68 64
        E 0 90 74 60
        E 0 91 32 6a
        E 0 91 33 6a
        E 0 91 34 69
        E 0 91 35 68
        E 0 91 4a 6a
        E 0 91 4b 6a
        E 0 91 4c 69
        E 0 91 4d 68
        E 0 91 62 6a
        E 0 91 63 6a
        E 0 91 64 69
        E 0 91 65 68
        E 120 80 0d 00
        E 0 80 19 00
        E 0 80 31 00
        E 0 80 49 00
        E 0 80 61 00
        E 0 81 32 00
        E 0 81 33 00
        E 0 81 34 00
        E 0 81 35 00
        E 0 81 4a 00
        E 0 81 4b 00
        E 0 81 4c 00
        E 0 81 4d 00
        E 0 81 62 00
        E 0 81 63 00
        E 0 81 64 00
        E 0 81 65 00
        E 120 90 4a 6a
        E 0 90 62 6a
        E 120 80 4a 00
        E 0 80 62 00
        E 0 90 63 6a
        E 120 80 63 00
        E 0 90 4c 69
        E 0 90 64 69
        E 120 80 4c 00
        E 0 80 64 00
        E 120 90 1d 68
        E 0 90 35 68
        E 0 90 4d 68
        E 0 90 65 68
        E 120 80 1d 00
        E 0 80 35 00
        E 0 80 4d 00
        E 0 80 65 00
        E 120 90 4c 69
        E 0 90 64 69
        E 120 80 4c 00
        E 0 80 64 00
        E 120 90 4b 6a
        E 0 90 63 6a
        E 120 80 38 00
        E 0 80 50 00
        E 0 80 68 00
        E 0 80 4b 00
        E 0 80 63 00
        E 120 90 08 64
        E 0 90 18 68
        E 0 90 30 68
        E 0 90 38 64
        E 0 90 48 68
        E 0 90 50 64
        E 0 90 60 68
        E 0 90 62 6a
        E 0 90 68 64
        E 0 91 31 6a
        E 0 91 32 6a
        E 0 91 33 68
        E 0 91 34 68
        E 0 91 49 6a
        E 0 91 4a 6a
        E 0 91 4b 68
        E 0 91 4c 68
        E 0 91 61 6a
        E 0 91 63 68
        E 0 91 64 68
        E 120 80 08 00
        E 0 80 18 00
        E 0 80 30 00
        E 0 80 48 00
        E 0 80 60 00
        E 0 80 62 00
        E 0 81 31 00
        E 0 81 32 00
        E 0 81 33 00
        E 0 81 34 00
        E 0 81 49 00
        E 0 81 4a 00
        E 0 81 4b 00
        E 0 81 4c 00
        E 0 81 61 00
        E 0 81 63 00
        E 0 81 64 00
        E 120 90 4b 68
        E 0 90 4c 68
        E 0 90 63 68
        E 0 90 64 68
        E 120 80 4b 00
        E 0 80 4c 00
        E 0 80 63 00
        E 0 80 64 00
        E 120 90 1b 68
        E 0 90 1c 68
        E 0 90 33 68
        E 0 90 34 68
        E 0 90 4b 68
        E 0 90 4c 68
        E 0 90 63 68
        E 0 90 64 68
        E 480 80 38 00
        E 0 80 1b 00
        E 0 80 1c 00
        E 0 80 33 00
        E 0 80 34 00
        E 360 80 50 00
        E 0 80 68 00
        E 0 80 4b 00
        E 0 80 4c 00
        E 0 80 63 00
        E 0 80 64 00
        E 120 90 0b 64
        E 0 90 19 66
        E 0 90 31 66
        E 0 90 38 64
        E 0 90 49 66
        E 0 90 50 64
        E 0 90 61 66
        E 0 90 68 64
        E 0 90 6c 66
        E 0 80 74 00
        E 0 91 32 68
        E 0 91 33 68
        E 0 91 34 67
        E 0 91 35 66
        E 0 91 4a 68
        E 0 91 4b 68
        E 0 91 4c 67
        E 0 91 4d 66
        E 0 91 62 68
        E 0 91 63 68
        E 0 91 64 67
        E 0 91 65 66
        E 120 80 0b 00
        E 0 80 19 00
        E 0 80 31 00
        E 0 80 49 00
        E 0 80 61 00
        E 0 80 6c 00
        E 0 81 32 00
        E 0 81 33 00
        E 0 81 34 00
        E 0 81 35 00
        E 0 81 4a 00
        E 0 81 4b 00
        E 0 81 4c 00
        E 0 81 4d 00
        E 0 81 62 00
        E 0 81 63 00
        E 0 81 64 00
        E 0 81 65 00
        E 120 90 4a 68
        E 0 90 62 68
        E 120 80 4a 00
        E 0 80 62 00
        E 0 90 63 68
        E 120 80 63 00
        E 0 90 4c 67
        E 0 90 64 67
        E 120 80 4c 00
        E 0 80 64 00
        E 120 90 1d 66
        E 0 90 35 66
        E 0 90 4d 66
        E 0 90 65 66
        E 120 80 1d 00
        E 0 80 35 00
        E 0 80 4d 00
        E 0 80 65 00
        E 120 90 4c 67
        E 0 90 64 67
        E 120 80 4c 00
        E 0 80 64 00
        E 120 90 4b 68
        E 0 90 63 68
        E 120 80 38 00
        E 0 80 50 00
        E 0 80 68 00
        E 0 80 4b 00
        E 0 80 63 00
        E 120 90 06 64
        E 0 90 18 66
        E 0 90 30 66
        E 0 90 38 64
        E 0 90 48 66
        E 0 90 50 64
        E 0 90 60 66
        E 0 90 68 64
        E 0 91 31 68
        E 0 91 32 68
        E 0 91 33 66
        E 0 91 34 66
        E 0 91 49 68
        E 0 91 4a 68
        E 0 91 4b 66
        E 0 91 4c 66
        E 0 91 61 68
        E 0 91 62 68
        E 0 91 63 66
        E 0 91 64 66
        E 120 80 06 00
        E 0 80 18 00
        E 0 80 30 00
        E 0 80 48 00
        E 0 80 60 00
        E 0 81 31 00
        E 0 81 32 00
        E 0 81 33 00
        E 0 81 34 00
        E 0 81 49 00
        E 0 81 4a 00
        E 0 81 4b 00
        E 0 81 4c 00
        E 0 81 61 00
        E 0 81 62 00
        E 0 81 63 00
        E 0 81 64 00
        E 120 90 49 68
        E 0 90 61 68
        E 120 80 49 00
        E 0 80 61 00
        E 120 90 4a 68
        E 0 90 62 68
        E 120 80 4a 00
        E 0 80 62 00
        E 120 90 1c 66
        E 0 90 34 66
        E 0 90 4b 66
        E 0 90 4c 66
        E 0 90 63 66
        E 0 90 64 66
        E 120 80 1c 00
        E 0 80 34 00
        E 480 80 38 00
        E 0 80 50 00
        E 0 80 68 00
        E 0 80 4b 00
        E 0 80 4c 00
        E 0 80 63 00
        E 0 80 64 00
        E 120 90 0b 64
        E 0 90 19 66
        E 0 90 31 66
        E 0 90 38 64
        E 0 90 49 66
        E 0 90 50 64
        E 0 90 61 66
        E 0 90 68 64
        E 0 91 32 68
        E 0 91 33 68
        E 0 91 34 67
        E 0 91 35 66
        E 0 91 4a 68
        E 0 91 4b 68
        E 0 91 4c 67
        E 0 91 4d 66
        E 0 91 62 68
        E 0 91 63 68
        E 0 91 64 67
        E 0 91 65 66
        E 120 80 0b 00
        E 0 80 19 00
        E 0 80 31 00
        E 0 80 49 00
        E 0 80 61 00
        E 0 81 32 00
        E 0 81 33 00
        E 0 81 34 00
        E 0 81 35 00
        E 0 81 4a 00
        E 0 81 4b 00
        E 0 81 4c 00
        E 0 81 4d 00
        E 0 81 62 00
        E 0 81 63 00
        E 0 81 64 00
        E 0 81 65 00
        E 120 90 4a 68
        E 0 90 62 68
        E 120 80 4a 00
        E 0 80 62 00
        E 0 90 63 68
        E 120 80 63 00
        E 0 90 4c 67
        E 0 90 64 67
        E 120 80 4c 00
        E 0 80 64 00
        E 120 90 1d 66
        E 0 90 35 66
        E 0 90 4d 66
        E 0 90 65 66
        E 120 80 1d 00
        E 0 80 35 00
        E 0 80 4d 00
        E 0 80 65 00
        E 120 90 4c 67
        E 0 90 64 67
        E 120 80 4c 00
        E 0 80 64 00
        E 120 90 4b 68
        E 0 90 63 68
        E 120 80 38 00
        E 0 80 50 00
        E 0 80 68 00
        E 0 80 4b 00
        E 0 80 63 00
        E 120 90 06 64
        E 0 90 18 66
        E 0 90 30 66
        E 0 90 38 64
        E 0 90 48 66
        E 0 90 50 64
        E 0 90 60 66
        E 0 90 62 68
        E 0 90 68 64
        E 0 91 31 68
        E 0 91 32 68
        E 0 91 33 66
        E 0 91 34 66
        E 0 91 49 68
        E 0 91 4a 68
        E 0 91 4b 66
        E 0 91 4c 66
        E 0 91 61 68
        E 0 91 63 66
        E 0 91 64 66
        E 120 80 06 00
        E 0 80 18 00
        E 0 80 30 00
        E 0 80 48 00
        E 0 80 60 00
        E 0 80 62 00
        E 0 81 31 00
        E 0 81 32 00
        E 0 81 33 00
        E 0 81 34 00
        E 0 81 49 00
        E 0 81 4a 00
        E 0 81 4b 00
        E 0 81 4c 00
        E 0 81 61 00
        E 0 81 63 00
        E 0 81 64 00
        E 120 90 4b 66
        E 0 90 4c 66
        E 0 90 63 66
        E 0 90 64 66
        E 120 80 4b 00
        E 0 80 4c 00
        E 0 80 63 00
        E 0 80 64 00
        E 120 90 4b 66
        E 0 90 4c 66
        E 0 90 63 66
        E 0 90 64 66
        E 240 90 1c 66
        E 0 90 34 66
        E 600 80 38 00
        E 0 80 50 00
        E 0 80 68 00
        E 0 80 4b 00
        E 0 80 4c 00
        E 0 80 63 00
        E 0 80 64 00
        E 0 80 1c 00
        E 0 80 34 00
        E 120 90 0b 64
        E 0 90 19 66
        E 0 90 31 66
        E 0 90 38 64
        E 0 90 49 66
        E 0 90 50 64
        E 0 90 61 66
        E 0 90 68 64
        E 0 91 32 68
        E 0 91 33 68
        E 0 91 34 67
        E 0 91 35 66
        E 0 91 4a 68
        E 0 91 4b 68
        E 0 91 4c 67
        E 0 91 4d 66
        E 0 91 62 68
        E 0 91 63 68
        E 0 91 64 67
        E 0 91 65 66
        E 120 80 0b 00
        E 0 80 19 00
        E 0 80 31 00
        E 0 80 49 00
        E 0 80 61 00
        E 0 81 32 00
        E 0 81 33 00
        E 0 81 34 00
        E 0 81 35 00
        E 0 81 4a 00
        E 0 81 4b 00
        E 0 81 4c 00
        E 0 81 4d 00
        E 0 81 62 00
        E 0 81 63 00
        E 0 81 64 00
        E 0 81 65 00
        E 120 90 4a 68
        E 0 90 62 68
        E 120 80 4a 00
        E 0 80 62 00
        E 0 90 63 68
        E 120 80 63 00
        E 0 90 4c 67
        E 0 90 64 67
        E 120 80 4c 00
        E 0 80 64 00
        E 120 90 1d 66
        E 0 90 35 66
        E 0 90 4d 66
        E 0 90 65 66
        E 120 80 1d 00
        E 0 80 35 00
        E 0 80 4d 00
        E 0 80 65 00
        E 120 90 4c 67
        E 0 90 64 67
        E 120 80 4c 00
        E 0 80 64 00
        E 120 90 4b 68
        E 0 90 63 68
        E 120 80 38 00
        E 0 80 50 00
        E 0 80 68 00
        E 0 80 4b 00
        E 0 80 63 00
        E 120 90 06 64
        E 0 90 18 66
        E 0 90 30 66
        E 0 90 38 64
        E 0 90 48 66
        E 0 90 50 64
        E 0 90 60 66
        E 0 90 68 64
        E 0 91 31 68
        E 0 91 32 68
        E 0 91 33 66
        E 0 91 34 66
        E 0 91 49 68
        E 0 91 4a 68
        E 0 91 4b 66
        E 0 91 4c 66
        E 0 91 61 68
        E 0 91 62 68
        E 0 91 63 66
        E 0 91 64 66
        E 120 80 06 00
        E 0 80 18 00
        E 0 80 30 00
        E 0 80 48 00
        E 0 80 60 00
        E 0 81 31 00
        E 0 81 32 00
        E 0 81 33 00
        E 0 81 34 00
        E 0 81 49 00
        E 0 81 4a 00
        E 0 81 4b 00
        E 0 81 4c 00
        E 0 81 61 00
        E 0 81 62 00
        E 0 81 63 00
        E 0 81 64 00
        E 120 90 19 68
        E 0 90 49 68
        E 0 90 61 68
        E 120 80 19 00
        E 0 80 49 00
        E 0 80 61 00
        E 120 90 4a 68
        E 0 90 62 68
        E 120 80 4a 00
        E 0 80 62 00
        E 120 90 1c 66
        E 0 90 34 66
        E 0 90 4b 66
        E 0 90 4c 66
        E 0 90 63 66
        E 0 90 64 66
        E 120 80 1c 00
        E 0 80 34 00
        E 480 80 38 00
        E 0 80 50 00
        E 0 80 68 00
        E 0 80 4b 00
        E 0 80 4c 00
        E 0 80 63 00
        E 0 80 64 00
        E 120 90 0b 64
        E 0 90 19 66
        E 0 90 31 66
        E 0 90 38 64
        E 0 90 49 66
        E 0 90 50 64
        E 0 90 61 66
        E 0 90 68 64
        E 0 91 32 68
        E 0 91 33 68
        E 0 91 34 67
        E 0 91 35 66
        E 0 91 4a 68
        E 0 91 4b 68
        E 0 91 4c 67
        E 0 91 4d 66
        E 0 91 62 68
        E 0 91 63 68
        E 0 91 64 67
        E 0 91 65 66
        E 120 80 0b 00
        E 0 80 19 00
        E 0 80 31 00
        E 0 80 49 00
        E 0 80 61 00
        E 0 81 32 00
        E 0 81 33 00
        E 0 81 34 00
        E 0 81 35 00
        E 0 81 4a 00
        E 0 81 4b 00
        E 0 81 4c 00
        E 0 81 4d 00
        E 0 81 62 00
        E 0 81 63 00
        E 0 81 64 00
        E 0 81 65 00
        E 120 90 4a 68
        E 0 90 62 68
        E 120 80 4a 00
        E 0 80 62 00
        E 0 90 63 68
        E 120 80 63 00
        E 0 90 4c 67
        E 0 90 64 67
        E 120 80 4c 00
        E 0 80 64 00
        E 120 90 1d 66
        E 0 90 35 66
        E 0 90 4d 66
        E 0 90 65 66
        E 120 80 1d 00
        E 0 80 35 00
        E 0 80 4d 00
        E 0 80 65 00
        E 120 90 4c 67
        E 0 90 64 67
        E 120 80 4c 00
        E 0 80 64 00
        E 120 90 4b 68
        E 0 90 63 68
        E 120 80 38 00
        E 0 80 50 00
        E 0 80 68 00
        E 0 80 4b 00
        E 0 80 63 00
        E 120 90 06 64
        E 0 90 18 66
        E 0 90 30 66
        E 0 90 38 64
        E 0 90 48 66
        E 0 90 50 64
        E 0 90 60 66
        E 0 90 62 68
        E 0 90 68 64
        E 0 91 31 68
        E 0 91 32 68
        E 0 91 33 66
        E 0 91 34 66
        E 0 91 49 68
        E 0 91 4a 68
        E 0 91 4b 66
        E 0 91 4c 66
        E 0 91 61 68
        E 0 91 63 66
        E 0 91 64 66
        E 120 80 06 00
        E 0 80 18 00
        E 0 80 30 00
        E 0 80 48 00
        E 0 80 60 00
        E 0 80 62 00
        E 0 81 31 00
        E 0 81 32 00
        E 0 81 33 00
        E 0 81 34 00
        E 0 81 49 00
        E 0 81 4a 00
        E 0 81 4b 00
        E 0 81 4c 00
        E 0 81 61 00
        E 0 81 63 00
        E 0 81 64 00
        E 120 90 4b 66
        E 0 90 4c 66
        E 0 90 63 66
        E 0 90 64 66
        E 120 80 4b 00
        E 0 80 4c 00
        E 0 80 63 00
        E 0 80 64 00
        E 120 90 1b 66
        E 0 90 1c 66
        E 0 90 33 66
        E 0 90 34 66
        E 0 90 4b 66
        E 0 90 4c 66
        E 0 90 63 66
        E 0 90 64 66
        E 480 80 38 00
        E 0 80 1b 00
        E 0 80 1c 00
        E 0 80 33 00
        E 0 80 34 00
        E 360 80 50 00
        E 0 80 68 00
        E 0 80 4b 00
        E 0 80 4c 00
        E 0 80 63 00
        E 0 80 64 00
        E 120 90 0d 64
        E 0 90 19 68
        E 0 90 31 68
        E 0 90 38 64
        E 0 90 49 68
        E 0 90 50 64
        E 0 90 61 68
        E 0 90 68 64
        E 0 90 6c 68
        E 0 91 32 6a
        E 0 91 33 6a
        E 0 91 34 69
        E 0 91 35 68
        E 0 91 4a 6a
        E 0 91 4b 6a
        E 0 91 4c 69
        E 0 91 4d 68
        E 0 91 62 6a
        E 0 91 63 6a
        E 0 91 64 69
        E 0 91 65 68
        E 120 80 0d 00
        E 0 80 19 00
        E 0 80 31 00
        E 0 80 49 00
        E 0 80 61 00
        E 0 80 6c 00
        E 0 81 32 00
        E 0 81 33 00
        E 0 81 34 00
        E 0 81 35 00
        E 0 81 4a 00
        E 0 81 4b 00
        E 0 81 4c 00
        E 0 81 4d 00
        E 0 81 62 00
        E 0 81 63 00
        E 0 81 64 00
        E 0 81 65 00
        E 120 90 4a 6a
        E 0 90 62 6a
        E 120 80 4a 00
        E 0 80 62 00
        E 0 90 63 6a
        E 120 80 63 00
        E 0 90 4c 69
        E 0 90 64 69
        E 120 80 4c 00
        E 0 80 64 00
        E 120 90 1d 68
        E 0 90 35 68
        E 0 90 4d 68
        E 0 90 65 68
        E 120 80 1d 00
        E 0 80 35 00
        E 0 80 4d 00
        E 0 80 65 00
        E 120 90 4c 69
        E 0 90 64 69
        E 120 80 4c 00
        E 0 80 64 00
        E 120 90 4b 6a
        E 0 90 63 6a
        E 120 80 38 00
        E 0 80 50 00
        E 0 80 68 00
        E 0 80 4b 00
        E 0 80 63 00
        E 120 90 08 64
        E 0 90 18 68
        E 0 90 30 68
        E 0 90 38 64
        E 0 90 48 68
        E 0 90 50 64
        E 0 90 60 68
        E 0 90 68 64
        E 0 91 31 6a
        E 0 91 32 6a
        E 0 91 33 68
        E 0 91 34 68
        E 0 91 49 6a
        E 0 91 4a 6a
        E 0 91 4b 68
        E 0 91 4c 68
        E 0 91 61 6a
        E 0 91 62 6a
        E 0 91 63 68
        E 0 91 64 68
        E 120 80 08 00
        E 0 80 18 00
        E 0 80 30 00
        E 0 80 48 00
        E 0 80 60 00
        E 0 81 31 00
        E 0 81 32 00
        E 0 81 33 00
        E 0 81 34 00
        E 0 81 49 00
        E 0 81 4a 00
        E 0 81 4b 00
        E 0 81 4c 00
        E 0 81 61 00
        E 0 81 62 00
        E 0 81 63 00
        E 0 81 64 00
        E 120 90 49 6a
        E 0 90 61 6a
        E 120 80 49 00
        E 0 80 61 00
        E 120 90 4a 6a
        E 0 90 62 6a
        E 120 80 4a 00
        E 0 80 62 00
        E 120 90 1c 68
        E 0 90 34 68
        E 0 90 4b 68
        E 0 90 4c 68
        E 0 90 63 68
        E 0 90 64 68
        E 120 80 1c 00
        E 0 80 34 00
        E 480 80 38 00
        E 0 80 50 00
        E 0 80 68 00
        E 0 80 4b 00
        E 0 80 4c 00
        E 0 80 63 00
        E 0 80 64 00
        E 120 90 0d 64
        E 0 90 19 68
        E 0 90 31 68
        E 0 90 38 64
        E 0 90 49 68
        E 0 90 50 64
        E 0 90 61 68
        E 0 90 68 64
        e 0 90 74 60
        E 0 91 32 6a
        E 0 91 33 6a
        E 0 91 34 69
        E 0 91 35 68
        E 0 91 4a 6a
        E 0 91 4b 6a
        E 0 91 4c 69
        E 0 91 4d 68
        E 0 91 62 6a
        E 0 91 63 6a
        E 0 91 64 69
        E 0 91 65 68
        E 120 80 0d 00
        E 0 80 19 00
        E 0 80 31 00
        E 0 80 49 00
        E 0 80 61 00
        E 0 81 32 00
        E 0 81 33 00
        E 0 81 34 00
        E 0 81 35 00
        E 0 81 4a 00
        E 0 81 4b 00
        E 0 81 4c 00
        E 0 81 4d 00
        E 0 81 62 00
        E 0 81 63 00
        E 0 81 64 00
        E 0 81 65 00
        E 120 90 4a 6a
        E 0 90 62 6a
        E 120 80 4a 00
        E 0 80 62 00
        E 0 90 63 6a
        E 120 80 63 00
        E 0 90 4c 69
        E 0 90 64 69
        E 120 80 4c 00
        E 0 80 64 00
        E 120 90 1d 68
        E 0 90 35 68
        E 0 90 4d 68
        E 0 90 65 68
        E 120 80 1d 00
        E 0 80 35 00
        E 0 80 4d 00
        E 0 80 65 00
        E 120 90 4c 69
        E 0 90 64 69
        E 120 80 4c 00
        E 0 80 64 00
        E 120 90 4b 6a
        E 0 90 63 6a
        E 120 80 38 00
        E 0 80 50 00
        E 0 80 68 00
        E 0 80 4b 00
        E 0 80 63 00
        E 120 90 08 64
        E 0 90 18 68
        E 0 90 30 68
        E 0 90 38 64
        E 0 90 48 68
        E 0 90 50 64
        E 0 90 60 68
        E 0 90 62 6a
        E 0 90 68 64
        E 0 91 31 6a
        E 0 91 32 6a
        E 0 91 33 68
        E 0 91 34 68
        E 0 91 49 6a
        E 0 91 4a 6a
        E 0 91 4b 68
        E 0 91 4c 68
        E 0 91 61 6a
        E 0 91 63 68
        E 0 91 64 68
        E 120 80 08 00
        E 0 80 18 00
        E 0 80 30 00
        E 0 80 48 00
        E 0 80 60 00
        E 0 80 62 00
        E 0 81 31 00
        E 0 81 32 00
        E 0 81 33 00
        E 0 81 34 00
        E 0 81 49 00
        E 0 81 4a 00
        E 0 81 4b 00
        E 0 81 4c 00
        E 0 81 61 00
        E 0 81 63 00
        E 0 81 64 00
        E 120 90 4b 68
        E 0 90 4c 68
        E 0 90 63 68
        E 0 90 64 68
        E 120 80 4b 00
        E 0 80 4c 00
        E 0 80 63 00
        E 0 80 64 00
        E 120 90 4b 68
        E 0 90 4c 68
        E 0 90 63 68
        E 0 90 64 68
        E 240 90 1c 68
        E 0 90 34 68
        E 600 80 38 00
        E 0 80 50 00
        E 0 80 68 00
        E 0 80 4b 00
        E 0 80 4c 00
        E 0 80 63 00
        E 0 80 64 00
        E 0 80 1c 00
        E 0 80 34 00
        E 120 90 0d 64
        E 0 90 19 68
        E 0 90 31 68
        E 0 90 38 64
        E 0 90 49 68
        E 0 90 50 64
        E 0 90 61 68
        E 0 90 68 64
        e 0 80 74 00
        E 0 91 32 6a
        E 0 91 33 6a
        E 0 91 34 69
        E 0 91 35 68
        E 0 91 4a 6a
        E 0 91 4b 6a
        E 0 91 4c 69
        E 0 91 4d 68
        E 0 91 62 6a
        E 0 91 63 6a
        E 0 91 64 69
        E 0 91 65 68
        E 120 80 0d 00
        E 0 80 19 00
        E 0 80 31 00
        E 0 80 49 00
        E 0 80 61 00
        E 0 81 32 00
        E 0 81 33 00
        E 0 81 34 00
        E 0 81 35 00
        E 0 81 4a 00
        E 0 81 4b 00
        E 0 81 4c 00
        E 0 81 4d 00
        E 0 81 62 00
        E 0 81 63 00
        E 0 81 64 00
        E 0 81 65 00
        E 120 90 4a 6a
        E 0 90 62 6a
        E 120 80 4a 00
        E 0 80 62 00
        E 0 90 63 6a
        E 120 80 63 00
        E 0 90 4c 69
        E 0 90 64 69
        E 120 80 4c 00
        E 0 80 64 00
        E 120 90 1d 68
        E 0 90 35 68
        E 0 90 4d 68
        E 0 90 65 68
        E 120 80 1d 00
        E 0 80 35 00
        E 0 80 4d 00
        E 0 80 65 00
        E 120 90 4c 69
        E 0 90 64 69
        E 120 80 4c 00
        E 0 80 64 00
        E 120 90 4b 6a
        E 0 90 63 6a
        E 120 80 38 00
        E 0 80 50 00
        E 0 80 68 00
        E 0 80 4b 00
        E 0 80 63 00
        E 120 90 08 64
        E 0 90 18 68
        E 0 90 30 68
        E 0 90 38 64
        E 0 90 48 68
        E 0 90 50 64
        E 0 90 60 68
        E 0 90 68 64
        E 0 91 31 6a
        E 0 91 32 6a
        E 0 91 33 68
        E 0 91 34 68
        E 0 91 49 6a
        E 0 91 4a 6a
        E 0 91 4b 68
        E 0 91 4c 68
        E 0 91 61 6a
        E 0 91 62 6a
        E 0 91 63 68
        E 0 91 64 68
        E 120 80 08 00
        E 0 80 18 00
        E 0 80 30 00
        E 0 80 48 00
        E 0 80 60 00
        E 0 81 31 00
        E 0 81 32 00
        E 0 81 33 00
        E 0 81 34 00
        E 0 81 49 00
        E 0 81 4a 00
        E 0 81 4b 00
        E 0 81 4c 00
        E 0 81 61 00
        E 0 81 62 00
        E 0 81 63 00
        E 0 81 64 00
        E 120 90 19 6a
        E 0 90 49 6a
        E 0 90 61 6a
        E 120 80 19 00
        E 0 80 49 00
        E 0 80 61 00
        E 120 90 4a 6a
        E 0 90 62 6a
        E 120 80 4a 00
        E 0 80 62 00
        E 120 90 1c 68
        E 0 90 34 68
        E 0 90 4b 68
        E 0 90 4c 68
        E 0 90 63 68
        E 0 90 64 68
        E 120 80 1c 00
        E 0 80 34 00
        E 480 80 38 00
        E 0 80 50 00
        E 0 80 68 00
        E 0 80 4b 00
        E 0 80 4c 00
        E 0 80 63 00
        E 0 80 64 00
        E 120 90 0d 64
        E 0 90 19 68
        E 0 90 31 68
        E 0 90 38 64
        E 0 90 49 68
        E 0 90 50 64
        E 0 90 61 68
        E 0 90 68 64
        E 0 91 32 6a
        E 0 91 33 6a
        E 0 91 34 69
        E 0 91 35 68
        E 0 91 4a 6a
        E 0 91 4b 6a
        E 0 91 4c 69
        E 0 91 4d 68
        E 0 91 62 6a
        E 0 91 63 6a
        E 0 91 64 69
        E 0 91 65 68
        E 120 80 0d 00
        E 0 80 19 00
        E 0 80 31 00
        E 0 80 49 00
        E 0 80 61 00
        E 0 81 32 00
        E 0 81 33 00
        E 0 81 34 00
        E 0 81 35 00
        E 0 81 4a 00
        E 0 81 4b 00
        E 0 81 4c 00
        E 0 81 4d 00
        E 0 81 62 00
        E 0 81 63 00
        E 0 81 64 00
        E 0 81 65 00
        E 120 90 4a 6a
        E 0 90 62 6a
        E 120 80 4a 00
        E 0 80 62 00
        E 0 90 63 6a
        E 120 80 63 00
        E 0 90 4c 69
        E 0 90 64 69
        E 120 80 4c 00
        E 0 80 64 00
        E 120 90 1d 68
        E 0 90 35 68
        E 0 90 4d 68
        E 0 90 65 68
        E 120 80 1d 00
        E 0 80 35 00
        E 0 80 4d 00
        E 0 80 65 00
        E 120 90 4c 69
        E 0 90 64 69
        E 120 80 4c 00
        E 0 80 64 00
        E 120 90 4b 6a
        E 0 90 63 6a
        E 120 80 38 00
        E 0 80 50 00
        E 0 80 68 00
        E 0 80 4b 00
        E 0 80 63 00
        E 120 90 08 64
        E 0 90 18 68
        E 0 90 30 68
        E 0 90 38 64
        E 0 90 48 68
        E 0 90 50 64
        E 0 90 60 68
        E 0 90 62 6a
        E 0 90 68 64
        E 0 91 31 6a
        E 0 91 32 6a
        E 0 91 33 68
        E 0 91 34 68
        E 0 91 49 6a
        E 0 91 4a 6a
        E 0 91 4b 68
        E 0 91 4c 68
        E 0 91 61 6a
        E 0 91 63 68
        E 0 91 64 68
        E 120 80 08 00
        E 0 80 18 00
        E 0 80 30 00
        E 0 80 48 00
        E 0 80 60 00
        E 0 80 62 00
        E 0 81 31 00
        E 0 81 32 00
        E 0 81 33 00
        E 0 81 34 00
        E 0 81 49 00
        E 0 81 4a 00
        E 0 81 4b 00
        E 0 81 4c 00
        E 0 81 61 00
        E 0 81 63 00
        E 0 81 64 00
        E 120 90 4b 68
        E 0 90 4c 68
        E 0 90 63 68
        E 0 90 64 68
        E 120 80 4b 00
        E 0 80 4c 00
        E 0 80 63 00
        E 0 80 64 00
        E 120 90 1b 68
        E 0 90 1c 68
        E 0 90 33 68
        E 0 90 34 68
        E 0 90 4b 68
        E 0 90 4c 68
        E 0 90 63 68
        E 0 90 64 68
        E 480 80 38 00
        E 0 80 1b 00
        E 0 80 1c 00
        E 0 80 33 00
        E 0 80 34 00
        E 360 80 50 00
        E 0 80 68 00
        E 0 80 4b 00
        E 0 80 4c 00
        E 0 80 63 00
        E 0 80 64 00
        E 120 90 0b 64
        E 0 90 19 66
        E 0 90 31 66
        E 0 90 38 64
        E 0 90 49 66
        E 0 90 50 64
        E 0 90 61 66
        E 0 90 68 64
        E 0 90 6c 66
        E 0 91 32 68
        E 0 91 33 68
        E 0 91 34 67
        E 0 91 35 66
        E 0 91 4a 68
        E 0 91 4b 68
        E 0 91 4c 67
        E 0 91 4d 66
        E 0 91 62 68
        E 0 91 63 68
        E 0 91 64 67
        E 0 91 65 66
        E 120 80 0b 00
        E 0 80 19 00
        E 0 80 31 00
        E 0 80 49 00
        E 0 80 61 00
        E 0 80 6c 00
        E 0 81 32 00
        E 0 81 33 00
        E 0 81 34 00
        E 0 81 35 00
        E 0 81 4a 00
        E 0 81 4b 00
        E 0 81 4c 00
        E 0 81 4d 00
        E 0 81 62 00
        E 0 81 63 00
        E 0 81 64 00
        E 0 81 65 00
        E 120 90 4a 68
        E 0 90 62 68
        E 120 80 4a 00
        E 0 80 62 00
        E 0 90 63 68
        E 120 80 63 00
        E 0 90 4c 67
        E 0 90 64 67
        E 120 80 4c 00
        E 0 80 64 00
        E 120 90 1d 66
        E 0 90 35 66
        E 0 90 4d 66
        E 0 90 65 66
        E 120 80 1d 00
        E 0 80 35 00
        E 0 80 4d 00
        E 0 80 65 00
        E 120 90 4c 67
        E 0 90 64 67
        E 120 80 4c 00
        E 0 80 64 00
        E 120 90 4b 68
        E 0 90 63 68
        E 120 80 38 00
        E 0 80 50 00
        E 0 80 68 00
        E 0 80 4b 00
        E 0 80 63 00
        E 120 90 06 64
        E 0 90 18 66
        E 0 90 30 66
        E 0 90 38 64
        E 0 90 48 66
        E 0 90 50 64
        E 0 90 60 66
        E 0 90 68 64
        E 0 91 31 68
        E 0 91 32 68
        E 0 91 33 66
        E 0 91 34 66
        E 0 91 49 68
        E 0 91 4a 68
        E 0 91 4b 66
        E 0 91 4c 66
        E 0 91 61 68
        E 0 91 62 68
        E 0 91 63 66
        E 0 91 64 66
        E 120 80 06 00
        E 0 80 18 00
        E 0 80 30 00
        E 0 80 48 00
        E 0 80 60 00
        E 0 81 31 00
        E 0 81 32 00
        E 0 81 33 00
        E 0 81 34 00
        E 0 81 49 00
        E 0 81 4a 00
        E 0 81 4b 00
        E 0 81 4c 00
        E 0 81 61 00
        E 0 81 62 00
        E 0 81 63 00
        E 0 81 64 00
        E 120 90 49 68
        E 0 90 61 68
        E 120 80 49 00
        E 0 80 61 00
        E 120 90 4a 68
        E 0 90 62 68
        E 120 80 4a 00
        E 0 80 62 00
        E 120 90 1c 66
        E 0 90 34 66
        E 0 90 4b 66
        E 0 90 4c 66
        E 0 90 63 66
        E 0 90 64 66
        E 120 80 1c 00
        E 0 80 34 00
        E 480 80 38 00
        E 0 80 50 00
        E 0 80 68 00
        E 0 80 4b 00
        E 0 80 4c 00
        E 0 80 63 00
        E 0 80 64 00
        E 120 90 0b 64
        E 0 90 19 66
        E 0 90 31 66
        E 0 90 38 64
        E 0 90 49 66
        E 0 90 50 64
        E 0 90 61 66
        E 0 90 68 64
        E 0 91 32 68
        E 0 91 33 68
        E 0 91 34 67
        E 0 91 35 66
        E 0 91 4a 68
        E 0 91 4b 68
        E 0 91 4c 67
        E 0 91 4d 66
        E 0 91 62 68
        E 0 91 63 68
        E 0 91 64 67
        E 0 91 65 66
        E 120 80 0b 00
        E 0 80 19 00
        E 0 80 31 00
        E 0 80 49 00
        E 0 80 61 00
        E 0 81 32 00
        E 0 81 33 00
        E 0 81 34 00
        E 0 81 35 00
        E 0 81 4a 00
        E 0 81 4b 00
        E 0 81 4c 00
        E 0 81 4d 00
        E 0 81 62 00
        E 0 81 63 00
        E 0 81 64 00
        E 0 81 65 00
        E 120 90 4a 68
        E 0 90 62 68
        E 120 80 4a 00
        E 0 80 62 00
        E 0 90 63 68
        E 120 80 63 00
        E 0 90 4c 67
        E 0 90 64 67
        E 120 80 4c 00
        E 0 80 64 00
        E 120 90 1d 66
        E 0 90 35 66
        E 0 90 4d 66
        E 0 90 65 66
        E 120 80 1d 00
        E 0 80 35 00
        E 0 80 4d 00
        E 0 80 65 00
        E 120 90 4c 67
        E 0 90 64 67
        E 120 80 4c 00
        E 0 80 64 00
        E 120 90 4b 68
        E 0 90 63 68
        E 120 80 38 00
        E 0 80 50 00
        E 0 80 68 00
        E 0 80 4b 00
        E 0 80 63 00
        E 120 90 06 64
        E 0 90 18 66
        E 0 90 30 66
        E 0 90 38 64
        E 0 90 48 66
        E 0 90 50 64
        E 0 90 60 66
        E 0 90 62 68
        E 0 90 68 64
        E 0 91 31 68
        E 0 91 32 68
        E 0 91 33 66
        E 0 91 34 66
        E 0 91 49 68
        E 0 91 4a 68
        E 0 91 4b 66
        E 0 91 4c 66
        E 0 91 61 68
        E 0 91 63 66
        E 0 91 64 66
        E 120 80 06 00
        E 0 80 18 00
        E 0 80 30 00
        E 0 80 48 00
        E 0 80 60 00
        E 0 80 62 00
        E 0 81 31 00
        E 0 81 32 00
        E 0 81 33 00
        E 0 81 34 00
        E 0 81 49 00
        E 0 81 4a 00
        E 0 81 4b 00
        E 0 81 4c 00
        E 0 81 61 00
        E 0 81 63 00
        E 0 81 64 00
        E 120 90 4b 66
        E 0 90 4c 66
        E 0 90 63 66
        E 0 90 64 66
        E 120 80 4b 00
        E 0 80 4c 00
        E 0 80 63 00
        E 0 80 64 00
        E 120 90 4b 66
        E 0 90 4c 66
        E 0 90 63 66
        E 0 90 64 66
        E 240 90 1c 66
        E 0 90 34 66
        E 600 80 38 00
        E 0 80 50 00
        E 0 80 68 00
        E 0 80 4b 00
        E 0 80 4c 00
        E 0 80 63 00
        E 0 80 64 00
        E 0 80 1c 00
        E 0 80 34 00
        E 120 90 0b 64
        E 0 90 19 66
        E 0 90 31 66
        E 0 90 38 64
        E 0 90 49 66
        E 0 90 50 64
        E 0 90 61 66
        E 0 90 68 64
        E 0 91 32 68
        E 0 91 33 68
        E 0 91 34 67
        E 0 91 35 66
        E 0 91 4a 68
        E 0 91 4b 68
        E 0 91 4c 67
        E 0 91 4d 66
        E 0 91 62 68
        E 0 91 63 68
        E 0 91 64 67
        E 0 91 65 66
        E 120 80 0b 00
        E 0 80 19 00
        E 0 80 31 00
        E 0 80 49 00
        E 0 80 61 00
        E 0 81 32 00
        E 0 81 33 00
        E 0 81 34 00
        E 0 81 35 00
        E 0 81 4a 00
        E 0 81 4b 00
        E 0 81 4c 00
        E 0 81 4d 00
        E 0 81 62 00
        E 0 81 63 00
        E 0 81 64 00
        E 0 81 65 00
        E 120 90 4a 68
        E 0 90 62 68
        E 120 80 4a 00
        E 0 80 62 00
        E 0 90 63 68
        E 120 80 63 00
        E 0 90 4c 67
        E 0 90 64 67
        E 120 80 4c 00
        E 0 80 64 00
        E 120 90 1d 66
        E 0 90 35 66
        E 0 90 4d 66
        E 0 90 65 66
        E 120 80 1d 00
        E 0 80 35 00
        E 0 80 4d 00
        E 0 80 65 00
        E 120 90 4c 67
        E 0 90 64 67
        E 120 80 4c 00
        E 0 80 64 00
        E 120 90 4b 68
        E 0 90 63 68
        E 120 80 38 00
        E 0 80 50 00
        E 0 80 68 00
        E 0 80 4b 00
        E 0 80 63 00
        E 120 90 06 64
        E 0 90 18 66
        E 0 90 30 66
        E 0 90 38 64
        E 0 90 48 66
        E 0 90 50 64
        E 0 90 60 66
        E 0 90 68 64
        E 0 91 31 68
        E 0 91 32 68
        E 0 91 33 66
        E 0 91 34 66
        E 0 91 49 68
        E 0 91 4a 68
        E 0 91 4b 66
        E 0 91 4c 66
        E 0 91 61 68
        E 0 91 62 68
        E 0 91 63 66
        E 0 91 64 66
        E 120 80 06 00
        E 0 80 18 00
        E 0 80 30 00
        E 0 80 48 00
        E 0 80 60 00
        E 0 81 31 00
        E 0 81 32 00
        E 0 81 33 00
        E 0 81 34 00
        E 0 81 49 00
        E 0 81 4a 00
        E 0 81 4b 00
        E 0 81 4c 00
        E 0 81 61 00
        E 0 81 62 00
        E 0 81 63 00
        E 0 81 64 00
        E 120 90 19 68
        E 0 90 49 68
        E 0 90 61 68
        E 120 80 19 00
        E 0 80 49 00
        E 0 80 61 00
        E 120 90 4a 68
        E 0 90 62 68
        E 120 80 4a 00
        E 0 80 62 00
        E 120 90 1c 66
        E 0 90 34 66
        E 0 90 4b 66
        E 0 90 4c 66
        E 0 90 63 66
        E 0 90 64 66
        E 120 80 1c 00
        E 0 80 34 00
        E 480 80 38 00
        E 0 80 50 00
        E 0 80 68 00
        E 0 80 4b 00
        E 0 80 4c 00
        E 0 80 63 00
        E 0 80 64 00
        E 120 90 0b 64
        E 0 90 19 66
        E 0 90 31 66
        E 0 90 38 64
        E 0 90 49 66
        E 0 90 50 64
        E 0 90 61 66
        E 0 90 68 64
        E 0 91 32 68
        E 0 91 33 68
        E 0 91 34 67
        E 0 91 35 66
        E 0 91 4a 68
        E 0 91 4b 68
        E 0 91 4c 67
        E 0 91 4d 66
        E 0 91 62 68
        E 0 91 63 68
        E 0 91 64 67
        E 0 91 65 66
        E 120 80 0b 00
        E 0 80 19 00
        E 0 80 31 00
        E 0 80 49 00
        E 0 80 61 00
        E 0 81 32 00
        E 0 81 33 00
        E 0 81 34 00
        E 0 81 35 00
        E 0 81 4a 00
        E 0 81 4b 00
        E 0 81 4c 00
        E 0 81 4d 00
        E 0 81 62 00
        E 0 81 63 00
        E 0 81 64 00
        E 0 81 65 00
        E 120 90 4a 68
        E 0 90 62 68
        E 120 80 4a 00
        E 0 80 62 00
        E 0 90 63 68
        E 120 80 63 00
        E 0 90 4c 67
        E 0 90 64 67
        E 120 80 4c 00
        E 0 80 64 00
        E 120 90 1d 66
        E 0 90 35 66
        E 0 90 4d 66
        E 0 90 65 66
        E 120 80 1d 00
        E 0 80 35 00
        E 0 80 4d 00
        E 0 80 65 00
        E 120 90 4c 67
        E 0 90 64 67
        E 120 80 4c 00
        E 0 80 64 00
        E 120 90 4b 68
        E 0 90 63 68
        E 120 80 38 00
        E 0 80 50 00
        E 0 80 68 00
        E 0 80 4b 00
        E 0 80 63 00
        E 120 90 06 64
        E 0 90 18 66
        E 0 90 30 66
        E 0 90 38 64
        E 0 90 48 66
        E 0 90 50 64
        E 0 90 60 66
        E 0 90 62 68
        E 0 90 68 64
        E 0 91 31 68
        E 0 91 32 68
        E 0 91 33 66
        E 0 91 34 66
        E 0 91 49 68
        E 0 91 4a 68
        E 0 91 4b 66
        E 0 91 4c 66
        E 0 91 61 68
        E 0 91 63 66
        E 0 91 64 66
        E 120 80 06 00
        E 0 80 18 00
        E 0 80 30 00
        E 0 80 48 00
        E 0 80 60 00
        E 0 80 62 00
        E 0 81 31 00
        E 0 81 32 00
        E 0 81 33 00
        E 0 81 34 00
        E 0 81 49 00
        E 0 81 4a 00
        E 0 81 4b 00
        E 0 81 4c 00
        E 0 81 61 00
        E 0 81 63 00
        E 0 81 64 00
        E 120 90 4b 66
        E 0 90 4c 66
        E 0 90 63 66
        E 0 90 64 66
        E 120 80 4b 00
        E 0 80 4c 00
        E 0 80 63 00
        E 0 80 64 00
        E 120 90 1b 66
        E 0 90 1c 66
        E 0 90 33 66
        E 0 90 34 66
        E 0 90 4b 66
        E 0 90 4c 66
        E 0 90 63 66
        E 0 90 64 66
        E 2400 80 12 00
        E 0 80 38 00
        E 0 80 50 00
        E 0 80 68 00
        E 0 80 1b 00
        E 0 80 1c 00
        E 0 80 33 00
        E 0 80 34 00
        E 0 80 4b 00
        E 0 80 4c 00
        E 0 80 63 00
        E 0 80 64 00
        E 1440 b0 7b 00
        GUID {4FF0679B-FCC1-48DA-ACF3-91A291F09128}
        IGNTEMPO 0 120.00000000 4 4
        SRCCOLOR 18
        VELLANE 132 128 60
        COLORMAP "C:\Program Files\REAPER (x64)\Data\color_maps\rockband_guitarbass.png"
        TEXTSTRINGFILE "C:\Program Files\REAPER (x64)\Data\Text_Strings\Text Events List - PRO Trainers.txt"
        CFGEDITVIEW 5043.515011 74.709800 0 12 0 0 0
        CFGEDIT 1 1 0 1 1 0 1 1 2 1 1 0.25000000 -8 -8 1544 872 0 2 1 1 0.00000000 0 1 0 0 0.500000 0 0 1.000000 64
        KEYSNAP 0 3 "102034050607" 0 "Major"
        EVTFILTER 2 -1 -1 -1 -1 1 0 0 0 -1.00000000 -1.00000000
      >
    >
  >
  <TRACK '{089EDADD-5CF8-42F5-ACCC-8AF93D2CA886}'
    NAME "EVENTS"
    PEAKCOL 16576
    BEAT -1
    AUTOMODE 0
    VOLPAN 1.00000000000000 0.00000000000000 -1.00000000000000 -1.00000000000000 1.00000000000000
    MUTESOLO 0 0 0
    IPHASE 0
    ISBUS 0 0
    BUSCOMP 0 0
    SHOWINMIX 1 0.666700 0.500000 1 0.500000 -1 -1 -1
    FREEMODE 0
    SEL 0
    REC 0 0 0 0 0 0 0
    VU 2
    TRACKHEIGHT 0 0
    INQ 0 0 0 0.5000000000 100 0 0 100
    NCHAN 2
    FX 1
    TRACKID {089EDADD-5CF8-42F5-ACCC-8AF93D2CA886}
    PERF 0
    MIDIOUT -1
    MAINSEND 1 0
    <ITEM
      POSITION 0.00000000000000
      SNAPOFFS 0.00000000000000
      LENGTH 149.57649390171980
      LOOP 0
      ALLTAKES 0
      SEL 0
      FADEIN 1 0.000000 0.000000 1 0
      FADEOUT 1 0.000000 0.000000 1 0
      MUTE 0
      IGUID {7D56502E-D83D-45CE-9FC5-34848AD0E2BC}
      IID 11
      NAME "EVENTS"
      VOLPAN 1.000000 0.000000 1.000000 -1.000000
      SOFFS 0.00000000000000 0.00000000000000
      PLAYRATE 1.00000000000000 1 0.00000000000000 -1
      CHANMODE 0
      GUID {7020BE04-39EA-4EE3-B5D5-861B621AD81B}
      <SOURCE MIDI
        HASDATA 1 480 QN
        POOLEDEVTS {9B9F0E01-0C29-435B-B981-126F093462FD}
        <X 0 0
          /wNFVkVOVFM=
        >
        <X 2880 0
          /wFbcHJjX2ludHJvXQ==
        >
        <X 1440 0
          /wFbY3Jvd2Rfbm9jbGFwXQ==
        >
        <X 0 0
          /wFbY3Jvd2RfbWVsbG93XQ==
        >
        <X 480 0
          /wFbbXVzaWNfc3RhcnRd
        >
        <X 11520 0
          /wFbcHJjX21lbG9keV8xYV0=
        >
        <X 11520 0
          /wFbcHJjX21lbG9keV8xYl0=
        >
        <X 11520 0
          /wFbcHJjX3BlcmNfc29sb18xYV0=
        >
        <X 11520 0
          /wFbcHJjX3BlcmNfc29sb18xYl0=
        >
        <X 7680 0
          /wFbcHJjX21lbG9keV8yYV0=
        >
        <X 11520 0
          /wFbcHJjX21lbG9keV8yYl0=
        >
        <X 11520 0
          /wFbcHJjX21lbG9keV8yY10=
        >
        <X 11520 0
          /wFbcHJjX291dHJvX2Fd
        >
        <X 11520 0
          /wFbcHJjX291dHJvX2Jd
        >
        <X 11520 0
          /wFbbXVzaWNfZW5kXQ==
        >
        <X 2875 0
          /wFbZW5kXQ==
        >
        E 5 b0 7b 00
        GUID {A91BB312-66D0-4E7A-9F85-4D56A49FC6CA}
        IGNTEMPO 0 120.00000000 4 4
        SRCCOLOR 30
        VELLANE 132 128 60
        COLORMAP "C:\Program Files\REAPER (x64)\Data\color_maps\rockband_guitarbass.png"
        TEXTSTRINGFILE "C:\Program Files\REAPER (x64)\Data\Text_Strings\Text Events List - Events.txt"
        CFGEDITVIEW -5952.000000 8.405550 61 12 0 0 0
        CFGEDIT 1 1 0 1 1 0 1 1 1 1 1 0.25000000 -8 -8 1544 872 0 0 1 1 0.00000000 0 1 0 0 0.500000 0 0 1.000000 64
        KEYSNAP 0 3 "102034050607" 0 "Major"
        EVTFILTER 0 -1 -1 -1 -1 0 1 0 0 -1.00000000 -1.00000000
      >
    >
  >
  <TRACK '{7754B102-F769-40C5-A55A-D7344332F88C}'
    NAME "BEAT"
    PEAKCOL 16576
    BEAT -1
    AUTOMODE 0
    VOLPAN 1.00000000000000 0.00000000000000 -1.00000000000000 -1.00000000000000 1.00000000000000
    MUTESOLO 0 0 0
    IPHASE 0
    ISBUS 0 0
    BUSCOMP 0 0
    SHOWINMIX 1 0.666700 0.500000 1 0.500000 -1 -1 -1
    FREEMODE 0
    SEL 0
    REC 0 0 0 0 0 0 0
    VU 2
    TRACKHEIGHT 0 0
    INQ 0 0 0 0.5000000000 100 0 0 100
    NCHAN 2
    FX 1
    TRACKID {7754B102-F769-40C5-A55A-D7344332F88C}
    PERF 0
    MIDIOUT -1
    MAINSEND 1 0
    <ITEM
      POSITION 0.00000000000000
      SNAPOFFS 0.00000000000000
      LENGTH 149.57649390171980
      LOOP 0
      ALLTAKES 0
      SEL 0
      FADEIN 1 0.000000 0.000000 1 0
      FADEOUT 1 0.000000 0.000000 1 0
      MUTE 0
      IGUID {94FDA42B-030B-40A2-9739-158896CD7923}
      IID 11
      NAME "BEAT"
      VOLPAN 1.000000 0.000000 1.000000 -1.000000
      SOFFS 0.00000000000000 0.00000000000000
      PLAYRATE 1.00000000000000 1 0.00000000000000 -1
      CHANMODE 0
      GUID {368061FE-F517-4A25-8467-477C790C1FAC}
      <SOURCE MIDI
        HASDATA 1 480 QN
        POOLEDEVTS {8DC82B85-EDD1-4E9B-B3C9-D462107A5A3F}
        <X 0 0
          /wNCRUFU
        >
        e 0 96 0c 64
        e 120 86 0c 00
        e 360 96 0d 64
        e 120 86 0d 00
        e 360 96 0d 64
        e 120 86 0d 00
        e 360 96 0d 64
        e 120 86 0d 00
        e 360 96 0d 64
        e 120 86 0d 00
        e 360 96 0d 64
        e 120 86 0d 00
        e 360 96 0c 64
        e 120 86 0c 00
        e 360 96 0d 64
        e 120 86 0d 00
        e 360 96 0d 64
        e 120 86 0d 00
        e 360 96 0d 64
        e 120 86 0d 00
        e 360 96 0d 64
        e 120 86 0d 00
        e 360 96 0d 64
        e 120 86 0d 00
        e 360 96 0c 64
        e 120 86 0c 00
        e 360 96 0d 64
        e 120 86 0d 00
        e 360 96 0d 64
        e 120 86 0d 00
        e 360 96 0d 64
        e 120 86 0d 00
        e 360 96 0d 64
        e 120 86 0d 00
        e 360 96 0d 64
        e 120 86 0d 00
        e 360 96 0c 64
        e 120 86 0c 00
        e 360 96 0d 64
        e 120 86 0d 00
        e 360 96 0d 64
        e 120 86 0d 00
        e 360 96 0d 64
        e 120 86 0d 00
        e 360 96 0d 64
        e 120 86 0d 00
        e 360 96 0d 64
        e 120 86 0d 00
        e 360 96 0c 64
        e 120 86 0c 00
        e 360 96 0d 64
        e 120 86 0d 00
        e 360 96 0d 64
        e 120 86 0d 00
        e 360 96 0d 64
        e 120 86 0d 00
        e 360 96 0d 64
        e 120 86 0d 00
        e 360 96 0d 64
        e 120 86 0d 00
        e 360 96 0c 64
        e 120 86 0c 00
        e 360 96 0d 64
        e 120 86 0d 00
        e 360 96 0d 64
        e 120 86 0d 00
        e 360 96 0d 64
        e 120 86 0d 00
        e 360 96 0c 64
        e 120 86 0c 00
        e 360 96 0d 64
        e 120 86 0d 00
        e 360 96 0d 64
        e 120 86 0d 00
        e 360 96 0d 64
        e 120 86 0d 00
        e 360 96 0d 64
        e 120 86 0d 00
        e 360 96 0d 64
        e 120 86 0d 00
        e 360 96 0c 64
        e 120 86 0c 00
        e 360 96 0d 64
        e 120 86 0d 00
        e 360 96 0d 64
        e 120 86 0d 00
        e 360 96 0d 64
        e 120 86 0d 00
        e 360 96 0d 64
        e 120 86 0d 00
        e 360 96 0d 64
        e 120 86 0d 00
        e 360 96 0c 64
        e 120 86 0c 00
        e 360 96 0d 64
        e 120 86 0d 00
        e 360 96 0d 64
        e 120 86 0d 00
        e 360 96 0d 64
        e 120 86 0d 00
        e 360 96 0d 64
        e 120 86 0d 00
        e 360 96 0d 64
        e 120 86 0d 00
        e 360 96 0c 64
        e 120 86 0c 00
        e 360 96 0d 64
        e 120 86 0d 00
        e 360 96 0d 64
        e 120 86 0d 00
        e 360 96 0d 64
        e 120 86 0d 00
        e 360 96 0d 64
        e 120 86 0d 00
        e 360 96 0d 64
        e 120 86 0d 00
        e 360 96 0c 64
        e 120 86 0c 00
        e 360 96 0d 64
        e 120 86 0d 00
        e 360 96 0d 64
        e 120 86 0d 00
        e 360 96 0d 64
        e 120 86 0d 00
        e 360 96 0d 64
        e 120 86 0d 00
        e 360 96 0d 64
        e 120 86 0d 00
        e 360 96 0c 64
        e 120 86 0c 00
        e 360 96 0d 64
        e 120 86 0d 00
        e 360 96 0d 64
        e 120 86 0d 00
        e 360 96 0d 64
        e 120 86 0d 00
        e 360 96 0d 64
        e 120 86 0d 00
        e 360 96 0d 64
        e 120 86 0d 00
        e 360 96 0c 64
        e 120 86 0c 00
        e 360 96 0d 64
        e 120 86 0d 00
        e 360 96 0d 64
        e 120 86 0d 00
        e 360 96 0d 64
        e 120 86 0d 00
        e 360 96 0d 64
        e 120 86 0d 00
        e 360 96 0d 64
        e 120 86 0d 00
        e 360 96 0c 64
        e 120 86 0c 00
        e 360 96 0d 64
        e 120 86 0d 00
        e 360 96 0d 64
        e 120 86 0d 00
        e 360 96 0d 64
        e 120 86 0d 00
        e 360 96 0d 64
        e 120 86 0d 00
        e 360 96 0d 64
        e 120 86 0d 00
        e 360 96 0c 64
        e 120 86 0c 00
        e 360 96 0d 64
        e 120 86 0d 00
        e 360 96 0d 64
        e 120 86 0d 00
        e 360 96 0d 64
        e 120 86 0d 00
        e 360 96 0d 64
        e 120 86 0d 00
        e 360 96 0d 64
        e 120 86 0d 00
        e 360 96 0c 64
        e 120 86 0c 00
        e 360 96 0d 64
        e 120 86 0d 00
        e 360 96 0d 64
        e 120 86 0d 00
        e 360 96 0d 64
        e 120 86 0d 00
        e 360 96 0d 64
        e 120 86 0d 00
        e 360 96 0d 64
        e 120 86 0d 00
        e 360 96 0c 64
        e 120 86 0c 00
        e 360 96 0d 64
        e 120 86 0d 00
        e 360 96 0d 64
        e 120 86 0d 00
        e 360 96 0d 64
        e 120 86 0d 00
        e 360 96 0d 64
        e 120 86 0d 00
        e 360 96 0d 64
        e 120 86 0d 00
        e 360 96 0c 64
        e 120 86 0c 00
        e 360 96 0d 64
        e 120 86 0d 00
        e 360 96 0d 64
        e 120 86 0d 00
        e 360 96 0d 64
        e 120 86 0d 00
        e 360 96 0d 64
        e 120 86 0d 00
        e 360 96 0d 64
        e 120 86 0d 00
        e 360 96 0c 64
        e 120 86 0c 00
        e 360 96 0d 64
        e 120 86 0d 00
        e 360 96 0d 64
        e 120 86 0d 00
        e 360 96 0d 64
        e 120 86 0d 00
        e 360 96 0c 64
        e 120 86 0c 00
        e 360 96 0d 64
        e 120 86 0d 00
        e 360 96 0d 64
        e 120 86 0d 00
        e 360 96 0d 64
        e 120 86 0d 00
        e 360 96 0c 64
        e 120 86 0c 00
        e 360 96 0d 64
        e 120 86 0d 00
        e 360 96 0d 64
        e 120 86 0d 00
        e 360 96 0d 64
        e 120 86 0d 00
        e 360 96 0c 64
        e 120 86 0c 00
        e 360 96 0d 64
        e 120 86 0d 00
        e 360 96 0d 64
        e 120 86 0d 00
        e 360 96 0d 64
        e 120 86 0d 00
        e 360 96 0c 64
        e 120 86 0c 00
        e 360 96 0d 64
        e 120 86 0d 00
        e 360 96 0d 64
        e 120 86 0d 00
        e 360 96 0d 64
        e 120 86 0d 00
        e 360 96 0d 64
        e 120 86 0d 00
        e 360 96 0d 64
        e 120 86 0d 00
        e 360 96 0c 64
        e 120 86 0c 00
        e 360 96 0d 64
        e 120 86 0d 00
        e 360 96 0d 64
        e 120 86 0d 00
        e 360 96 0d 64
        e 120 86 0d 00
        e 360 96 0d 64
        e 120 86 0d 00
        e 360 96 0d 64
        e 120 86 0d 00
        e 360 96 0c 64
        e 120 86 0c 00
        e 360 96 0d 64
        e 120 86 0d 00
        e 360 96 0d 64
        e 120 86 0d 00
        e 360 96 0d 64
        e 120 86 0d 00
        e 360 96 0d 64
        e 120 86 0d 00
        e 360 96 0d 64
        e 120 86 0d 00
        e 360 96 0c 64
        e 120 86 0c 00
        e 360 96 0d 64
        e 120 86 0d 00
        e 360 96 0d 64
        e 120 86 0d 00
        e 360 96 0d 64
        e 120 86 0d 00
        e 360 96 0d 64
        e 120 86 0d 00
        e 360 96 0d 64
        e 120 86 0d 00
        e 360 96 0c 64
        e 120 86 0c 00
        e 360 96 0d 64
        e 120 86 0d 00
        e 360 96 0d 64
        e 120 86 0d 00
        e 360 96 0d 64
        e 120 86 0d 00
        e 360 96 0d 64
        e 120 86 0d 00
        e 360 96 0d 64
        e 120 86 0d 00
        e 360 96 0c 64
        e 120 86 0c 00
        e 360 96 0d 64
        e 120 86 0d 00
        e 360 96 0d 64
        e 120 86 0d 00
        e 360 96 0d 64
        e 120 86 0d 00
        e 360 96 0d 64
        e 120 86 0d 00
        e 360 96 0d 64
        e 120 86 0d 00
        e 360 96 0c 64
        e 120 86 0c 00
        e 360 96 0d 64
        e 120 86 0d 00
        e 360 96 0d 64
        e 120 86 0d 00
        e 360 96 0d 64
        e 120 86 0d 00
        e 360 96 0d 64
        e 120 86 0d 00
        e 360 96 0d 64
        e 120 86 0d 00
        e 360 96 0c 64
        e 120 86 0c 00
        e 360 96 0d 64
        e 120 86 0d 00
        e 360 96 0d 64
        e 120 86 0d 00
        e 360 96 0d 64
        e 120 86 0d 00
        e 360 96 0d 64
        e 120 86 0d 00
        e 360 96 0d 64
        e 120 86 0d 00
        e 360 96 0c 64
        e 120 86 0c 00
        e 360 96 0d 64
        e 120 86 0d 00
        e 360 96 0d 64
        e 120 86 0d 00
        e 360 96 0d 64
        e 120 86 0d 00
        e 360 96 0d 64
        e 120 86 0d 00
        e 360 96 0d 64
        e 120 86 0d 00
        e 360 96 0c 64
        e 120 86 0c 00
        e 360 96 0d 64
        e 120 86 0d 00
        e 360 96 0d 64
        e 120 86 0d 00
        e 360 96 0d 64
        e 120 86 0d 00
        e 360 96 0d 64
        e 120 86 0d 00
        e 360 96 0d 64
        e 120 86 0d 00
        e 360 96 0c 64
        e 120 86 0c 00
        e 360 96 0d 64
        e 120 86 0d 00
        e 360 96 0d 64
        e 120 86 0d 00
        e 360 96 0d 64
        e 120 86 0d 00
        e 360 96 0d 64
        e 120 86 0d 00
        e 360 96 0d 64
        e 120 86 0d 00
        e 360 96 0c 64
        e 120 86 0c 00
        e 360 96 0d 64
        e 120 86 0d 00
        e 360 96 0d 64
        e 120 86 0d 00
        e 360 96 0d 64
        e 120 86 0d 00
        e 360 96 0d 64
        e 120 86 0d 00
        e 360 96 0d 64
        e 120 86 0d 00
        e 360 96 0c 64
        e 120 86 0c 00
        e 360 96 0d 64
        e 120 86 0d 00
        e 360 96 0d 64
        e 120 86 0d 00
        e 360 96 0d 64
        e 120 86 0d 00
        e 360 96 0d 64
        e 120 86 0d 00
        e 360 96 0d 64
        e 120 86 0d 00
        e 360 96 0c 64
        e 120 86 0c 00
        e 360 96 0d 64
        e 120 86 0d 00
        e 360 96 0d 64
        e 120 86 0d 00
        e 360 96 0d 64
        e 120 86 0d 00
        e 360 96 0d 64
        e 120 86 0d 00
        e 360 96 0d 64
        e 120 86 0d 00
        e 360 96 0c 64
        e 120 86 0c 00
        e 360 96 0d 64
        e 120 86 0d 00
        e 360 96 0d 64
        e 120 86 0d 00
        e 360 96 0d 64
        e 120 86 0d 00
        e 360 96 0d 64
        e 120 86 0d 00
        e 360 96 0d 64
        e 120 86 0d 00
        e 360 96 0c 64
        e 120 86 0c 00
        e 360 96 0d 64
        e 120 86 0d 00
        e 360 96 0d 64
        e 120 86 0d 00
        e 360 96 0d 64
        e 120 86 0d 00
        e 360 96 0d 64
        e 120 86 0d 00
        e 360 96 0d 64
        e 120 86 0d 00
        e 360 96 0c 64
        e 120 86 0c 00
        e 360 96 0d 64
        e 120 86 0d 00
        e 360 96 0d 64
        e 120 86 0d 00
        e 360 96 0d 64
        e 120 86 0d 00
        e 360 96 0d 64
        e 120 86 0d 00
        e 360 96 0d 64
        e 120 86 0d 00
        e 360 96 0c 64
        e 120 86 0c 00
        e 360 96 0d 64
        e 120 86 0d 00
        e 360 96 0d 64
        e 120 86 0d 00
        e 360 96 0d 64
        e 120 86 0d 00
        e 360 96 0d 64
        e 120 86 0d 00
        e 360 96 0d 64
        e 120 86 0d 00
        e 360 96 0c 64
        e 120 86 0c 00
        e 360 96 0d 64
        e 120 86 0d 00
        e 360 96 0d 64
        e 120 86 0d 00
        e 360 96 0d 64
        e 120 86 0d 00
        e 360 96 0d 64
        e 120 86 0d 00
        e 360 96 0d 64
        e 120 86 0d 00
        e 360 96 0c 64
        e 120 86 0c 00
        e 360 96 0d 64
        e 120 86 0d 00
        e 360 96 0d 64
        e 120 86 0d 00
        e 360 96 0d 64
        e 120 86 0d 00
        e 360 96 0d 64
        e 120 86 0d 00
        e 360 96 0d 64
        e 120 86 0d 00
        e 360 96 0c 64
        e 120 86 0c 00
        e 360 96 0d 64
        e 120 86 0d 00
        e 360 96 0d 64
        e 120 86 0d 00
        e 360 96 0d 64
        e 120 86 0d 00
        e 360 96 0d 64
        e 120 86 0d 00
        e 360 96 0d 64
        e 120 86 0d 00
        E 360 b0 7b 00
        GUID {68E3C400-BEE4-44E6-91B0-D5B3946B320C}
        IGNTEMPO 0 120.00000000 4 4
        SRCCOLOR 31
        VELLANE 132 128 60
        COLORMAP "C:\Program Files\REAPER (x64)\Data\color_maps\rockband_guitarbass.png"
        CFGEDITVIEW -5996.038194 8.405550 61 12 0 0 0
        CFGEDIT 1 1 0 1 1 0 1 1 1 1 1 0.25000000 -8 -8 1544 872 0 0 1 1 0.00000000 0 1 0 0 0.500000 0 0 1.000000 64
        KEYSNAP 0 3 "102034050607" 0 "Major"
        EVTFILTER 0 -1 -1 -1 -1 0 1 0 0 -1.00000000 -1.00000000
      >
    >
  >
  <TRACK '{A22ABEA6-0881-467E-A86D-0AC67A1F7870}'
    NAME "backing"
    PEAKCOL 16576
    BEAT -1
    AUTOMODE 0
    VOLPAN 1.00000000000000 0.00000000000000 -1.00000000000000 -1.00000000000000 1.00000000000000
    MUTESOLO 0 0 0
    IPHASE 0
    ISBUS 0 0
    BUSCOMP 0 0
    SHOWINMIX 1 0.666700 0.500000 1 0.500000 -1 -1 -1
    FREEMODE 0
    SEL 0
    REC 0 0 0 0 0 0 0
    VU 2
    TRACKHEIGHT 0 0
    INQ 0 0 0 0.5000000000 100 0 0 100
    NCHAN 2
    FX 1
    TRACKID {A22ABEA6-0881-467E-A86D-0AC67A1F7870}
    PERF 0
    MIDIOUT -1
    MAINSEND 1 0
    <ITEM
      POSITION 0.00000000000000
      SNAPOFFS 0.00000000000000
      LENGTH 149.57648526077097
      LOOP 0
      ALLTAKES 0
      SEL 0
      FADEIN 1 0.000000 0.000000 1 0
      FADEOUT 1 0.000000 0.000000 1 0
      MUTE 0
      IGUID {FEC356FE-F1CB-4A9A-8DFD-8AB210BD2176}
      IID 1
      NAME "backing.wav"
      VOLPAN 1.000000 0.000000 1.000000 -1.000000
      SOFFS 0.00000000000000
      PLAYRATE 1.00000000000000 1 0.00000000000000 -1
      CHANMODE 0
      GUID {89D0E936-9FE4-45D1-81FA-F88A3CAB437E}
      <SOURCE WAVE
        FILE "wav\backing.wav"
      >
    >
  >
  <EXTENSIONS
  >
>
