<REAPER_PROJECT 0.1 "4.22/x64"
  RIPPLE 0
  GROUPOVERRIDE 0 0 0
  AUTOXFADE 1
  ENVATTACH 1
  MIXERUIFLAGS 11 48
  PEAKGAIN 1.00000000000000
  FEEDBACK 0
  PANLAW 1.00000000000000
  PROJOFFS 0.00000000000000 0
  MAXPROJLEN 0 600.00000000000000
  GRID 3199 8 1.00000000000000 8 1.00000000000000 0
  TIMEMODE 1 0 1
  PANMODE 3
  CURSOR 29.99622996852231
  ZOOM 7.39566251355306 0 0
  VZOOMEX 6
  USE_REC_CFG 0
  RECMODE 1
  SMPTESYNC 0 23.976024 100 40 1000 300 0 0.000000 1
  LOOP 1
  LOOPGRAN 0 4.00000000000000
  RECORD_PATH "" ""
  <RECORD_CFG
    ZXZhdxAD
  >
  <APPLYFX_CFG
  >
  RENDER_FILE ""
  RENDER_PATTERN ""
  RENDER_FMT 0 2 0
  RENDER_1X 0
  RENDER_RANGE 1 0.00000000000000 0.00000000000000
  RENDER_RESAMPLE 3 0 1
  RENDER_ADDTOPROJ 0
  RENDER_STEMS 0
  RENDER_DITHER 0
  TIMELOCKMODE 0
  ITEMMIX 0
  DEFPITCHMODE 393216
  TAKELANE 1
  SAMPLERATE 44100 0 0
  <RENDER_CFG
  >
  LOCK 1
  <METRONOME 6 2.000000
    VOL 0.250000 0.125000
    FREQ 800 1600 1
    BEATLEN 4
    SAMPLES "" ""
  >
  GLOBAL_AUTO -1
  TEMPO 80.00000000000000 3 4
  PLAYRATE 1.00000000000000 0 0.25000 4.00000
  SELECTION 0.00000000000000 151.98097262100961
  SELECTION2 0.00000000000000 151.98097262100961
  MASTERAUTOMODE 0
  MASTERTRACKHEIGHT 367
  MASTERPEAKCOL 16576
  MASTERMUTESOLO 0
  MASTERTRACKVIEW 0 0.666700 0.500000 0.500000 -1 -1 -1
  MASTERHWOUT 0 0 1.00000000000000 0.00000000000000 0 0 0 -1.00000000000000
  MASTER_NCH 2 2
  MASTER_VOLUME 1.00000000000000 0.00000000000000 -1.00000000000000 -1.00000000000000 1.00000000000000
  MASTER_PANMODE -1
  MASTER_FX 1
  MASTER_SEL 0
  <MASTERPLAYSPEEDENV
    ACT 0
    VIS 0 1 1.000000
    LANEHEIGHT 0 0
    ARM 0
    DEFSHAPE 0 -1 -1
  >
  <TEMPOENVEX
    ACT 1
    VIS 1 0 1.000000
    LANEHEIGHT 0 0
    ARM 0
    DEFSHAPE 1 -1 -1
    PT 0.000000000000 90.0119999920 1 262147 1
    PT 9.344212876308 90.0110000080 1 0 1
    PT 97.987919874095 90.0100000000 1 0 1
    PT 109.319994088071 90.0119999920 1 0 1
  >
  <PROJBAY
  >
  <TRACK '{7D8699D1-D8F6-4045-A889-BAE2AC9F6126}'
    NAME "PART DRUMS"
    PEAKCOL 16576
    BEAT -1
    AUTOMODE 0
    VOLPAN 1.00000000000000 0.00000000000000 -1.00000000000000 -1.00000000000000 1.00000000000000
    MUTESOLO 0 0 0
    IPHASE 0
    ISBUS 1 1
    BUSCOMP 0 0
    SHOWINMIX 1 0.666700 0.500000 1 0.500000 -1 -1 -1
    FREEMODE 0
    SEL 0
    REC 0 0 0 0 0 0 0
    VU 2
    TRACKHEIGHT 0 0
    INQ 0 0 0 0.5000000000 100 0 0 100
    NCHAN 2
    FX 1
    TRACKID {7D8699D1-D8F6-4045-A889-BAE2AC9F6126}
    PERF 0
    MIDIOUT -1
    <MIDINOTENAMES
      0 127 "CYMBAL SWELLS"
      0 126 "DRUM ROLL"
      0 125 "---"
      0 124 "DRUM FILL"
      0 123 "DRUM FILL"
      0 122 "DRUM FILL"
      0 121 "DRUM FILL"
      0 120 "DRUM FILL (use all 5)"
      0 118 "----"
      0 116 "OVERDRIVE"
      0 114 "----"
      0 112 "TOM GEMS PAD 4"
      0 111 "TOM GEMS PAD 3"
      0 110 "TOM GEMS PAD 2"
      0 103 "Solo Marker"
      0 102 "----"
      0 100 "EXPERT Green"
      0 99 "EXPERT Blue"
      0 98 "EXPERT Yellow"
      0 97 "EXPERT Red"
      0 96 "EXPERT Kick"
      0 92 "----"
      0 88 "HARD Green"
      0 87 "HARD Blue"
      0 86 "HARD Yellow"
      0 85 "HARD Red"
      0 84 "HARD Kick"
      0 80 "----"
      0 76 "MEDIUM Green"
      0 75 "MEDIUM Blue"
      0 74 "MEDIUM Yellow"
      0 73 "MEDIUM Red"
      0 72 "MEDIUM Kick"
      0 68 "----"
      0 64 "EASY Green"
      0 63 "EASY Blue"
      0 62 "EASY Yellow"
      0 61 "EASY Red"
      0 60 "EASY Kick"
      0 56 "----"
      0 52 "-- DRUM ANIMATION --"
      0 51 "FLOOR TOM RH"
      0 50 "FLOOR TOM LH"
      0 49 "TOM2 RH"
      0 48 "TOM2 LH"
      0 47 "TOM1 RH"
      0 46 "TOM1 LH"
      0 45 "SOFT CRASH 2 LH"
      0 44 "CRASH 2 LH"
      0 43 "RIDE LH"
      0 42 "RIDE CYM RH"
      0 41 "CRASH2 CHOKE"
      0 40 "CRASH1 CHOKE"
      0 39 "CRASH2 SOFT RH"
      0 38 "CRASH2 HARD RH"
      0 37 "CRASH1 SOFT RH"
      0 36 "CRASH1 HARD RH"
      0 35 "CRASH1 SOFT LH"
      0 34 "CRASH1 HARD LH"
      0 32 "PERCUSSION RH"
      0 31 "HI-HAT RH"
      0 30 "HI-HAT LH"
      0 29 "SOFT SNARE RH"
      0 28 "SOFT SNARE LH"
      0 27 "SNARE RH"
      0 26 "SNARE LH"
      0 25 "HI-HAT OPEN"
      0 24 "KICK RF"
    >
    MAINSEND 1 0
    <FXCHAIN
      WNDRECT 149 229 878 559
      SHOW 0
      LASTSEL 0
      DOCKED 0
      BYPASS 0 0
      <VST "VSTi: RBN Preview (RBN)" "rbprev_vst64.dll" 0 ""
        dnBicu5e7f4AAAAAAgAAAAEAAAAAAAAAAgAAAAAAAAAEAAAAAQAAAA==
        AAAQAAMBqgAAABAAAAA=
      >
      FLOATPOS 0 0 0 0
      FXID {30FA7203-D810-495B-93F8-0F46972096D5}
      WAK 0
    >
    <ITEM
      POSITION 0.00000000000000
      SNAPOFFS 0.00000000000000
      LENGTH 151.98097262100958
      LOOP 0
      ALLTAKES 0
      SEL 0
      FADEIN 1 0.000000 0.000000 1 0
      FADEOUT 1 0.000000 0.000000 1 0
      MUTE 0
      IGUID {4E87E92F-90AF-46FB-9DB8-C25A76DDA18E}
      IID 94
      NAME "PART DRUMS"
      VOLPAN 1.000000 0.000000 1.000000 -1.000000
      SOFFS 0.00000000000000 0.00000000000000
      PLAYRATE 1.00000000000000 1 0.00000000000000 -1
      CHANMODE 0
      GUID {641F7FA2-6B47-4518-8FC9-919F96160E75}
      <SOURCE MIDI
        HASDATA 1 480 QN
        POOLEDEVTS {F216C8F5-CFFF-4C63-89D5-3A339F8C4A0F}
        <X 0 0
          /wNQQVJUIERSVU1T
        >
        E 0 90 19 60
        E 0 90 1e 60
        <X 120 0
          /wFbbWl4IDAgZHJ1bXM0XQ==
        >
        E 0 80 1e 00
        <X 120 0
          /wFbbWl4IDEgZHJ1bXM0XQ==
        >
        <X 120 0
          /wFbbWl4IDIgZHJ1bXM0XQ==
        >
        <X 120 0
          /wFbbWl4IDMgZHJ1bXM0XQ==
        >
        E 960 80 19 00
        <X 1440 0
          /wFbcGxheV0=
        >
        E 0 90 19 60
        E 0 90 3c 60
        E 0 90 48 60
        E 0 90 54 60
        E 0 90 60 60
        E 120 80 19 00
        E 0 80 3c 00
        E 0 80 48 00
        E 0 80 54 00
        E 0 80 60 00
        E 360 90 20 60
        E 0 90 4a 60
        E 0 90 56 60
        E 0 90 62 60
        E 120 80 20 00
        E 0 80 4a 00
        E 0 80 56 00
        E 0 80 62 00
        E 120 90 20 60
        E 0 90 56 60
        E 0 90 62 60
        E 120 80 20 00
        E 0 80 56 00
        E 0 80 62 00
        E 120 90 20 60
        E 0 90 3e 60
        E 0 90 4a 60
        E 0 90 56 60
        E 0 90 62 60
        E 120 80 20 00
        E 0 80 3e 00
        E 0 80 4a 00
        E 0 80 56 00
        E 0 80 62 00
        E 840 90 20 60
        E 0 90 3e 60
        E 0 90 4a 60
        E 0 90 56 60
        E 0 90 62 60
        E 120 80 20 00
        E 0 80 3e 00
        E 0 80 4a 00
        E 0 80 56 00
        E 0 80 62 00
        E 360 90 20 60
        E 0 90 3e 60
        E 0 90 4a 60
        E 0 90 56 60
        E 0 90 62 60
        E 120 80 20 00
        E 0 80 3e 00
        E 0 80 4a 00
        E 0 80 56 00
        E 0 80 62 00
        E 120 90 19 60
        E 0 90 60 60
        E 120 80 19 00
        E 0 80 60 00
        E 120 90 19 60
        E 0 90 3c 60
        E 0 90 48 60
        E 0 90 54 60
        E 0 90 60 60
        E 120 80 19 00
        E 0 80 3c 00 -1
        E 0 80 48 00
        E 0 80 54 00
        E 0 80 60 00
        E 360 90 20 60
        E 0 90 4a 60
        E 0 90 56 60
        E 0 90 62 60
        E 120 80 20 00
        E 0 80 4a 00
        E 0 80 56 00
        E 0 80 62 00
        E 120 90 20 60
        E 0 90 56 60
        E 0 90 62 60
        E 120 80 20 00
        E 0 80 56 00
        E 0 80 62 00
        E 120 90 20 60
        E 0 90 3e 60
        E 0 90 4a 60
        E 0 90 56 60
        E 0 90 62 60
        E 120 80 20 00
        E 0 80 3e 00
        E 0 80 4a 00
        E 0 80 56 00
        E 0 80 62 00
        E 840 90 20 60
        E 0 90 3e 60
        E 0 90 4a 60
        E 0 90 56 60
        E 0 90 62 60
        E 120 80 20 00
        E 0 80 3e 00
        E 0 80 4a 00
        E 0 80 56 00
        E 0 80 62 00
        E 360 90 20 60
        E 0 90 3e 60
        E 0 90 4a 60
        E 0 90 56 60
        E 0 90 62 60
        E 120 80 20 00
        E 0 80 3e 00
        E 0 80 4a 00
        E 0 80 56 00
        E 0 80 62 00
        E 120 90 19 60
        E 0 90 60 60
        E 120 80 19 00
        E 0 80 60 00
        E 120 90 19 60
        E 0 90 3c 60
        E 0 90 48 60
        E 0 90 54 60
        E 0 90 60 60
        E 120 80 19 00
        E 0 80 3c 00
        E 0 80 48 00
        E 0 80 54 00
        E 0 80 60 00
        E 360 90 20 60
        E 0 90 4a 60
        E 0 90 56 60
        E 0 90 62 60
        E 120 80 20 00
        E 0 80 4a 00
        E 0 80 56 00
        E 0 80 62 00
        E 120 90 20 60
        E 0 90 56 60
        E 0 90 62 60
        E 120 80 20 00
        E 0 80 56 00
        E 0 80 62 00
        E 120 90 20 60
        E 0 90 3e 60
        E 0 90 4a 60
        E 0 90 56 60
        E 0 90 62 60
        E 120 80 20 00
        E 0 80 3e 00
        E 0 80 4a 00
        E 0 80 56 00
        E 0 80 62 00
        E 360 90 78 60
        E 0 90 79 60
        E 0 90 7a 60
        E 0 90 7b 60
        E 0 90 7c 60
        E 480 90 20 60
        E 0 90 3e 60
        E 0 90 4a 60
        E 0 90 56 60
        E 0 90 62 60
        E 120 80 20 00
        E 0 80 3e 00
        E 0 80 4a 00
        E 0 80 56 00
        E 0 80 62 00
        E 360 90 20 60
        E 0 90 3e 60
        E 0 90 4a 60
        E 0 90 56 60
        E 0 90 62 60
        E 120 80 20 00
        E 0 80 3e 00
        E 0 80 4a 00
        E 0 80 56 00
        E 0 80 62 00
        E 120 90 19 60
        E 0 90 60 60
        E 120 80 19 00
        E 0 80 60 00
        E 120 80 78 00
        E 0 80 79 00
        E 0 80 7a 00
        E 0 80 7b 00
        E 0 80 7c 00
        E 0 90 19 60
        E 0 90 3c 60
        E 0 90 48 60
        E 0 90 54 60
        E 0 90 60 60
        E 120 80 19 00
        E 0 80 3c 00
        E 0 80 48 00
        E 0 80 54 00
        E 0 80 60 00
        E 360 90 20 60
        E 0 90 4a 60
        E 0 90 56 60
        E 0 90 62 60
        E 120 80 20 00
        E 0 80 4a 00
        E 0 80 56 00
        E 0 80 62 00
        E 120 90 20 60
        E 0 90 56 60
        E 0 90 62 60
        E 120 80 20 00
        E 0 80 56 00
        E 0 80 62 00
        E 120 90 20 60
        E 0 90 3e 60 -1
        E 0 90 4a 60
        E 0 90 56 60
        E 0 90 62 60
        E 120 80 20 00
        E 0 80 3e 00 -1
        E 0 80 4a 00
        E 0 80 56 00
        E 0 80 62 00
        E 840 90 20 60
        E 0 90 3e 60
        E 0 90 4a 60
        E 0 90 56 60
        E 0 90 62 60
        E 120 80 20 00
        E 0 80 3e 00
        E 0 80 4a 00
        E 0 80 56 00
        E 0 80 62 00
        E 360 90 20 60
        E 0 90 3e 60
        E 0 90 4a 60
        E 0 90 56 60
        E 0 90 62 60
        E 120 80 20 00
        E 0 80 3e 00
        E 0 80 4a 00
        E 0 80 56 00
        E 0 80 62 00
        E 120 90 19 60
        E 0 90 60 60
        E 120 80 19 00
        E 0 80 60 00
        E 120 90 19 60
        E 0 90 3c 60
        E 0 90 48 60
        E 0 90 54 60
        E 0 90 60 60
        E 0 90 74 60
        E 120 80 19 00
        E 0 80 3c 00
        E 0 80 48 00
        E 0 80 54 00
        E 0 80 60 00
        E 360 90 20 60
        E 0 90 4a 60
        E 0 90 56 60
        E 0 90 62 60
        E 120 80 20 00
        E 0 80 4a 00
        E 0 80 56 00
        E 0 80 62 00
        E 120 90 20 60
        E 0 90 56 60
        E 0 90 62 60
        E 120 80 20 00
        E 0 80 56 00
        E 0 80 62 00
        E 120 90 20 60
        E 0 90 3e 60
        E 0 90 4a 60
        E 0 90 56 60
        E 0 90 62 60
        E 120 80 20 00
        E 0 80 3e 00
        E 0 80 4a 00
        E 0 80 56 00
        E 0 80 62 00
        E 840 90 20 60
        E 0 90 3e 60 -1
        E 0 90 4a 60
        E 0 90 56 60
        E 0 90 62 60
        E 120 80 20 00
        E 0 80 3e 00
        E 0 80 4a 00
        E 0 80 56 00
        E 0 80 62 00
        E 360 90 20 60
        E 0 90 3e 60
        E 0 90 4a 60
        E 0 90 56 60
        E 0 90 62 60
        E 120 80 20 00
        E 0 80 3e 00
        E 0 80 4a 00
        E 0 80 56 00
        E 0 80 62 00
        E 120 90 19 60
        E 0 90 60 60
        E 120 80 19 00
        E 0 80 60 00
        E 120 80 74 00
        E 0 90 19 60
        E 0 90 3c 60
        E 0 90 48 60
        E 0 90 54 60
        E 0 90 60 60
        E 120 80 19 00
        E 0 80 3c 00
        E 0 80 48 00
        E 0 80 54 00
        E 0 80 60 00
        E 360 90 20 60
        E 0 90 4a 60
        E 0 90 56 60
        E 0 90 62 60
        E 120 80 20 00
        E 0 80 4a 00
        E 0 80 56 00
        E 0 80 62 00
        E 120 90 20 60
        E 0 90 56 60
        E 0 90 62 60
        E 120 80 20 00
        E 0 80 56 00
        E 0 80 62 00
        E 120 90 20 60
        E 0 90 3e 60
        E 0 90 4a 60
        E 0 90 56 60
        E 0 90 62 60
        E 120 80 20 00
        E 0 80 3e 00
        E 0 80 4a 00
        E 0 80 56 00
        E 0 80 62 00
        E 840 90 20 60
        E 0 90 3e 60
        E 0 90 4a 60
        E 0 90 56 60
        E 0 90 62 60
        E 120 80 20 00
        E 0 80 3e 00 -1
        E 0 80 4a 00
        E 0 80 56 00
        E 0 80 62 00
        E 360 90 20 60
        E 0 90 3e 60
        E 0 90 4a 60
        E 0 90 56 60
        E 0 90 62 60
        E 120 80 20 00
        E 0 80 3e 00
        E 0 80 4a 00
        E 0 80 56 00
        E 0 80 62 00
        E 120 90 19 60
        E 0 90 60 60
        E 120 80 19 00
        E 0 80 60 00
        E 120 90 19 60
        E 0 90 3c 60
        E 0 90 48 60
        E 0 90 54 60
        E 0 90 60 60
        E 120 80 19 00
        E 0 80 3c 00
        E 0 80 48 00
        E 0 80 54 00
        E 0 80 60 00
        E 360 90 20 60
        E 0 90 4a 60
        E 0 90 56 60
        E 0 90 62 60
        E 120 80 20 00
        E 0 80 4a 00
        E 0 80 56 00
        E 0 80 62 00
        E 120 90 20 60
        E 0 90 56 60
        E 0 90 62 60
        E 120 80 20 00
        E 0 80 56 00
        E 0 80 62 00
        E 120 90 20 60
        E 0 90 3e 60 -1
        E 0 90 4a 60
        E 0 90 56 60
        E 0 90 62 60
        E 120 80 20 00
        E 0 80 3e 00 -1
        E 0 80 4a 00
        E 0 80 56 00
        E 0 80 62 00
        E 360 90 78 60
        E 0 90 79 60
        E 0 90 7a 60
        E 0 90 7b 60
        E 0 90 7c 60
        E 480 90 20 60
        E 0 90 3e 60
        E 0 90 4a 60
        E 0 90 56 60
        E 0 90 62 60
        E 120 80 20 00
        E 0 80 3e 00
        E 0 80 4a 00
        E 0 80 56 00
        E 0 80 62 00
        E 360 90 20 60
        E 0 90 3e 60
        E 0 90 4a 60
        E 0 90 56 60
        E 0 90 62 60
        E 120 80 20 00
        E 0 80 3e 00
        E 0 80 4a 00
        E 0 80 56 00
        E 0 80 62 00
        E 120 90 19 60
        E 0 90 60 60
        E 120 80 19 00
        E 0 80 60 00
        E 120 80 78 00
        E 0 80 79 00
        E 0 80 7a 00
        E 0 80 7b 00
        E 0 80 7c 00
        E 0 90 19 60
        E 0 90 3c 60
        E 0 90 48 60
        E 0 90 54 60
        E 0 90 60 60
        E 120 80 19 00
        E 0 80 3c 00
        E 0 80 48 00
        E 0 80 54 00
        E 0 80 60 00
        E 360 90 20 60
        E 0 90 4a 60
        E 0 90 56 60
        E 0 90 62 60
        E 120 80 20 00
        E 0 80 4a 00
        E 0 80 56 00
        E 0 80 62 00
        E 120 90 20 60
        E 0 90 56 60
        E 0 90 62 60
        E 120 80 20 00
        E 0 80 56 00
        E 0 80 62 00
        E 120 90 20 60
        E 0 90 3e 60
        E 0 90 4a 60
        E 0 90 56 60
        E 0 90 62 60
        E 120 80 20 00
        E 0 80 3e 00
        E 0 80 4a 00
        E 0 80 56 00
        E 0 80 62 00
        E 840 90 20 60
        E 0 90 3e 60
        E 0 90 4a 60
        E 0 90 56 60
        E 0 90 62 60
        E 120 80 20 00
        E 0 80 3e 00
        E 0 80 4a 00
        E 0 80 56 00
        E 0 80 62 00
        E 360 90 20 60
        E 0 90 3e 60
        E 0 90 4a 60
        E 0 90 56 60
        E 0 90 62 60
        E 120 80 20 00
        E 0 80 3e 00
        E 0 80 4a 00
        E 0 80 56 00
        E 0 80 62 00
        E 120 90 19 60
        E 0 90 60 60
        E 120 80 19 00
        E 0 80 60 00
        E 120 90 19 60
        E 0 90 3c 60
        E 0 90 48 60
        E 0 90 54 60
        E 0 90 60 60
        E 120 80 19 00
        E 0 80 3c 00 -1
        E 0 80 48 00
        E 0 80 54 00
        E 0 80 60 00
        E 360 90 20 60
        E 0 90 4a 60
        E 0 90 56 60
        E 0 90 62 60
        E 120 80 20 00
        E 0 80 4a 00
        E 0 80 56 00
        E 0 80 62 00
        E 120 90 20 60
        E 0 90 56 60
        E 0 90 62 60
        E 120 80 20 00
        E 0 80 56 00
        E 0 80 62 00
        E 120 90 20 60
        E 0 90 3e 60
        E 0 90 4a 60
        E 0 90 56 60
        E 0 90 62 60
        E 120 80 20 00
        E 0 80 3e 00
        E 0 80 4a 00
        E 0 80 56 00
        E 0 80 62 00
        E 360 90 78 60
        E 0 90 79 60
        E 0 90 7a 60
        E 0 90 7b 60
        E 0 90 7c 60
        E 480 90 20 60
        E 0 90 3e 60
        E 0 90 4a 60
        E 0 90 56 60
        E 0 90 62 60
        E 120 80 20 00
        E 0 80 3e 00
        E 0 80 4a 00
        E 0 80 56 00
        E 0 80 62 00
        E 360 90 20 60
        E 0 90 3e 60
        E 0 90 4a 60
        E 0 90 56 60
        E 0 90 62 60
        E 120 80 20 00
        E 0 80 3e 00
        E 0 80 4a 00
        E 0 80 56 00
        E 0 80 62 00
        E 120 90 19 60
        E 0 90 60 60
        E 120 80 19 00
        E 0 80 60 00
        E 120 80 78 00
        E 0 80 79 00
        E 0 80 7a 00
        E 0 80 7b 00
        E 0 80 7c 00
        E 0 90 19 60
        E 0 90 3c 60
        E 0 90 48 60
        E 0 90 54 60
        E 0 90 60 60
        E 0 90 74 60
        E 120 80 19 00
        E 0 80 3c 00
        E 0 80 48 00
        E 0 80 54 00
        E 0 80 60 00
        E 360 90 20 60
        E 0 90 4a 60
        E 0 90 56 60
        E 0 90 62 60
        E 120 80 20 00
        E 0 80 4a 00
        E 0 80 56 00
        E 0 80 62 00
        E 120 90 20 60
        E 0 90 56 60
        E 0 90 62 60
        E 120 80 20 00
        E 0 80 56 00
        E 0 80 62 00
        E 120 90 20 60
        E 0 90 3e 60
        E 0 90 4a 60
        E 0 90 56 60
        E 0 90 62 60
        E 120 80 20 00
        E 0 80 3e 00
        E 0 80 4a 00
        E 0 80 56 00
        E 0 80 62 00
        E 840 90 20 60
        E 0 90 3e 60
        E 0 90 4a 60
        E 0 90 56 60
        E 0 90 62 60
        E 120 80 20 00
        E 0 80 3e 00
        E 0 80 4a 00
        E 0 80 56 00
        E 0 80 62 00
        E 360 90 20 60
        E 0 90 3e 60
        E 0 90 4a 60
        E 0 90 56 60
        E 0 90 62 60
        E 120 80 20 00
        E 0 80 3e 00
        E 0 80 4a 00
        E 0 80 56 00
        E 0 80 62 00
        E 120 90 19 60
        E 0 90 60 60
        E 120 80 19 00
        E 0 80 60 00
        E 120 90 19 60
        E 0 90 3c 60
        E 0 90 48 60
        E 0 90 54 60
        E 0 90 60 60
        E 120 80 74 00
        E 0 80 19 00
        E 0 80 3c 00
        E 0 80 48 00
        E 0 80 54 00
        E 0 80 60 00
        E 360 90 20 60
        E 0 90 4a 60
        E 0 90 56 60
        E 0 90 62 60
        E 120 80 20 00
        E 0 80 4a 00
        E 0 80 56 00
        E 0 80 62 00
        E 120 90 20 60
        E 0 90 56 60
        E 0 90 62 60
        E 120 80 20 00
        E 0 80 56 00
        E 0 80 62 00
        E 120 90 20 60
        E 0 90 3e 60 -1
        E 0 90 4a 60
        E 0 90 56 60
        E 0 90 62 60
        E 120 80 20 00
        E 0 80 3e 00 -1
        E 0 80 4a 00
        E 0 80 56 00
        E 0 80 62 00
        E 360 90 78 60
        E 0 90 79 60
        E 0 90 7a 60
        E 0 90 7b 60
        E 0 90 7c 60
        E 480 90 20 60
        E 0 90 3e 60
        E 0 90 4a 60
        E 0 90 56 60
        E 0 90 62 60
        E 120 80 20 00
        E 0 80 3e 00
        E 0 80 4a 00
        E 0 80 56 00
        E 0 80 62 00
        E 360 90 20 60
        E 0 90 3e 60
        E 0 90 4a 60
        E 0 90 56 60
        E 0 90 62 60
        E 120 80 20 00
        E 0 80 3e 00
        E 0 80 4a 00
        E 0 80 56 00
        E 0 80 62 00
        E 120 90 19 60
        E 0 90 60 60
        E 120 80 19 00
        E 0 80 60 00
        E 120 80 78 00
        E 0 80 79 00
        E 0 80 7a 00
        E 0 80 7b 00
        E 0 80 7c 00
        E 0 90 19 60
        E 0 90 3c 60
        E 0 90 48 60
        E 0 90 54 60
        E 0 90 60 60
        E 120 80 19 00
        E 0 80 3c 00
        E 0 80 48 00
        E 0 80 54 00
        E 0 80 60 00
        E 360 90 20 60
        E 0 90 4a 60
        E 0 90 56 60
        E 0 90 62 60
        E 120 80 20 00
        E 0 80 4a 00
        E 0 80 56 00
        E 0 80 62 00
        E 120 90 20 60
        E 0 90 56 60
        E 0 90 62 60
        E 120 80 20 00
        E 0 80 56 00
        E 0 80 62 00
        E 120 90 20 60
        E 0 90 3e 60
        E 0 90 4a 60
        E 0 90 56 60
        E 0 90 62 60
        E 120 80 20 00
        E 0 80 3e 00
        E 0 80 4a 00
        E 0 80 56 00
        E 0 80 62 00
        E 840 90 20 60
        E 0 90 3e 60 -1
        E 0 90 4a 60
        E 0 90 56 60
        E 0 90 62 60
        E 120 80 20 00
        E 0 80 3e 00
        E 0 80 4a 00
        E 0 80 56 00
        E 0 80 62 00
        E 360 90 20 60
        E 0 90 3e 60
        E 0 90 4a 60
        E 0 90 56 60
        E 0 90 62 60
        E 120 80 20 00
        E 0 80 3e 00
        E 0 80 4a 00
        E 0 80 56 00
        E 0 80 62 00
        E 120 90 19 60
        E 0 90 60 60
        E 120 80 19 00
        E 0 80 60 00
        E 120 90 19 60
        E 0 90 3c 60
        E 0 90 48 60
        E 0 90 54 60
        E 0 90 60 60
        E 120 80 19 00
        E 0 80 3c 00
        E 0 80 48 00
        E 0 80 54 00
        E 0 80 60 00
        E 360 90 20 60
        E 0 90 4a 60
        E 0 90 56 60
        E 0 90 62 60
        E 120 80 20 00
        E 0 80 4a 00
        E 0 80 56 00
        E 0 80 62 00
        E 120 90 20 60
        E 0 90 56 60
        E 0 90 62 60
        E 120 80 20 00
        E 0 80 56 00
        E 0 80 62 00
        E 120 90 20 60
        E 0 90 3e 60
        E 0 90 4a 60
        E 0 90 56 60
        E 0 90 62 60
        E 120 80 20 00
        E 0 80 3e 00
        E 0 80 4a 00
        E 0 80 56 00
        E 0 80 62 00
        E 840 90 20 60
        E 0 90 3e 60
        E 0 90 4a 60
        E 0 90 56 60
        E 0 90 62 60
        E 120 80 20 00
        E 0 80 3e 00 -1
        E 0 80 4a 00
        E 0 80 56 00
        E 0 80 62 00
        E 360 90 20 60
        E 0 90 3e 60
        E 0 90 4a 60
        E 0 90 56 60
        E 0 90 62 60
        E 120 80 20 00
        E 0 80 3e 00
        E 0 80 4a 00
        E 0 80 56 00
        E 0 80 62 00
        E 120 90 19 60
        E 0 90 60 60
        E 120 80 19 00
        E 0 80 60 00
        E 120 90 19 60
        E 0 90 3c 60
        E 0 90 48 60
        E 0 90 54 60
        E 0 90 60 60
        E 120 80 19 00
        E 0 80 3c 00
        E 0 80 48 00
        E 0 80 54 00
        E 0 80 60 00
        E 360 90 20 60
        E 0 90 4a 60
        E 0 90 56 60
        E 0 90 62 60
        E 120 80 20 00
        E 0 80 4a 00
        E 0 80 56 00
        E 0 80 62 00
        E 120 90 20 60
        E 0 90 56 60
        E 0 90 62 60
        E 120 80 20 00
        E 0 80 56 00
        E 0 80 62 00
        E 120 90 20 60
        E 0 90 3e 60 -1
        E 0 90 4a 60
        E 0 90 56 60
        E 0 90 62 60
        E 120 80 20 00
        E 0 80 3e 00 -1
        E 0 80 4a 00
        E 0 80 56 00
        E 0 80 62 00
        E 360 90 78 60
        E 0 90 79 60
        E 0 90 7a 60
        E 0 90 7b 60
        E 0 90 7c 60
        E 480 90 20 60
        E 0 90 3e 60
        E 0 90 4a 60
        E 0 90 56 60
        E 0 90 62 60
        E 120 80 20 00
        E 0 80 3e 00
        E 0 80 4a 00
        E 0 80 56 00
        E 0 80 62 00
        E 360 90 20 60
        E 0 90 3e 60
        E 0 90 4a 60
        E 0 90 56 60
        E 0 90 62 60
        E 120 80 20 00
        E 0 80 3e 00
        E 0 80 4a 00
        E 0 80 56 00
        E 0 80 62 00
        E 120 90 19 60
        E 0 90 60 60
        E 120 80 19 00
        E 0 80 60 00
        E 120 80 78 00
        E 0 80 79 00
        E 0 80 7a 00
        E 0 80 7b 00
        E 0 80 7c 00
        E 0 90 19 60
        E 0 90 3c 60
        E 0 90 48 60
        E 0 90 54 60
        E 0 90 60 60
        E 120 80 19 00
        E 0 80 3c 00
        E 0 80 48 00
        E 0 80 54 00
        E 0 80 60 00
        E 360 90 20 60
        E 0 90 4a 60
        E 0 90 56 60
        E 0 90 62 60
        E 120 80 20 00
        E 0 80 4a 00
        E 0 80 56 00
        E 0 80 62 00
        E 120 90 20 60
        E 0 90 56 60
        E 0 90 62 60
        E 120 80 20 00
        E 0 80 56 00
        E 0 80 62 00
        E 120 90 20 60
        E 0 90 3e 60
        E 0 90 4a 60
        E 0 90 56 60
        E 0 90 62 60
        E 120 80 20 00
        E 0 80 3e 00
        E 0 80 4a 00
        E 0 80 56 00
        E 0 80 62 00
        E 840 90 20 60
        E 0 90 3e 60
        E 0 90 4a 60
        E 0 90 56 60
        E 0 90 62 60
        E 120 80 20 00
        E 0 80 3e 00
        E 0 80 4a 00
        E 0 80 56 00
        E 0 80 62 00
        E 360 90 20 60
        E 0 90 3e 60
        E 0 90 4a 60
        E 0 90 56 60
        E 0 90 62 60
        E 120 80 20 00
        E 0 80 3e 00
        E 0 80 4a 00
        E 0 80 56 00
        E 0 80 62 00
        E 120 90 19 60
        E 0 90 60 60
        E 120 80 19 00
        E 0 80 60 00
        E 120 90 19 60
        E 0 90 3c 60
        E 0 90 48 60
        E 0 90 54 60
        E 0 90 60 60
        E 120 80 19 00
        E 0 80 3c 00 -1
        E 0 80 48 00
        E 0 80 54 00
        E 0 80 60 00
        E 360 90 20 60
        E 0 90 4a 60
        E 0 90 56 60
        E 0 90 62 60
        E 120 80 20 00
        E 0 80 4a 00
        E 0 80 56 00
        E 0 80 62 00
        E 120 90 20 60
        E 0 90 56 60
        E 0 90 62 60
        E 120 80 20 00
        E 0 80 56 00
        E 0 80 62 00
        E 120 90 20 60
        E 0 90 3e 60
        E 0 90 4a 60
        E 0 90 56 60
        E 0 90 62 60
        E 120 80 20 00
        E 0 80 3e 00
        E 0 80 4a 00
        E 0 80 56 00
        E 0 80 62 00
        E 360 90 78 60
        E 0 90 79 60
        E 0 90 7a 60
        E 0 90 7b 60
        E 0 90 7c 60
        E 480 90 20 60
        E 0 90 3e 60
        E 0 90 4a 60
        E 0 90 56 60
        E 0 90 62 60
        E 120 80 20 00
        E 0 80 3e 00
        E 0 80 4a 00
        E 0 80 56 00
        E 0 80 62 00
        E 360 90 20 60
        E 0 90 3e 60
        E 0 90 4a 60
        E 0 90 56 60
        E 0 90 62 60
        E 120 80 20 00
        E 0 80 3e 00
        E 0 80 4a 00
        E 0 80 56 00
        E 0 80 62 00
        E 120 90 19 60
        E 0 90 60 60
        E 120 80 19 00
        E 0 80 60 00
        E 120 80 78 00
        E 0 80 79 00
        E 0 80 7a 00
        E 0 80 7b 00
        E 0 80 7c 00
        E 0 90 19 60
        E 0 90 3c 60
        E 0 90 48 60
        E 0 90 54 60
        E 0 90 60 60
        E 120 80 19 00
        E 0 80 3c 00
        E 0 80 48 00
        E 0 80 54 00
        E 0 80 60 00
        E 360 90 20 60
        E 0 90 4a 60
        E 0 90 56 60
        E 0 90 62 60
        E 120 80 20 00
        E 0 80 4a 00
        E 0 80 56 00
        E 0 80 62 00
        E 120 90 20 60
        E 0 90 56 60
        E 0 90 62 60
        E 120 80 20 00
        E 0 80 56 00
        E 0 80 62 00
        E 120 90 20 60
        E 0 90 3e 60
        E 0 90 4a 60
        E 0 90 56 60
        E 0 90 62 60
        E 120 80 20 00
        E 0 80 3e 00
        E 0 80 4a 00
        E 0 80 56 00
        E 0 80 62 00
        E 840 90 20 60
        E 0 90 3e 60
        E 0 90 4a 60
        E 0 90 56 60
        E 0 90 62 60
        E 120 80 20 00
        E 0 80 3e 00
        E 0 80 4a 00
        E 0 80 56 00
        E 0 80 62 00
        E 360 90 20 60
        E 0 90 3e 60
        E 0 90 4a 60
        E 0 90 56 60
        E 0 90 62 60
        E 120 80 20 00
        E 0 80 3e 00
        E 0 80 4a 00
        E 0 80 56 00
        E 0 80 62 00
        E 120 90 19 60
        E 0 90 60 60
        E 120 80 19 00
        E 0 80 60 00
        E 120 90 19 60
        E 0 90 3c 60
        E 0 90 48 60
        E 0 90 54 60
        E 0 90 60 60
        E 0 90 74 60
        E 120 80 19 00
        E 0 80 3c 00
        E 0 80 48 00
        E 0 80 54 00
        E 0 80 60 00
        E 360 90 20 60
        E 0 90 4a 60
        E 0 90 56 60
        E 0 90 62 60
        E 120 80 20 00
        E 0 80 4a 00
        E 0 80 56 00
        E 0 80 62 00
        E 120 90 20 60
        E 0 90 56 60
        E 0 90 62 60
        E 120 80 20 00
        E 0 80 56 00
        E 0 80 62 00
        E 120 90 20 60
        E 0 90 3e 60 -1
        E 0 90 4a 60
        E 0 90 56 60
        E 0 90 62 60
        E 120 80 20 00
        E 0 80 3e 00 -1
        E 0 80 4a 00
        E 0 80 56 00
        E 0 80 62 00
        E 840 90 20 60
        E 0 90 3e 60
        E 0 90 4a 60
        E 0 90 56 60
        E 0 90 62 60
        E 120 80 20 00
        E 0 80 3e 00
        E 0 80 4a 00
        E 0 80 56 00
        E 0 80 62 00
        E 360 90 20 60
        E 0 90 3e 60
        E 0 90 4a 60
        E 0 90 56 60
        E 0 90 62 60
        E 120 80 20 00
        E 0 80 3e 00
        E 0 80 4a 00
        E 0 80 56 00
        E 0 80 62 00
        E 120 90 19 60
        E 0 90 60 60
        E 120 80 19 00
        E 0 80 60 00
        E 120 80 74 00
        E 0 90 19 60
        E 0 90 3c 60
        E 0 90 48 60
        E 0 90 54 60
        E 0 90 60 60
        E 120 80 19 00
        E 0 80 3c 00
        E 0 80 48 00
        E 0 80 54 00
        E 0 80 60 00
        E 360 90 20 60
        E 0 90 4a 60
        E 0 90 56 60
        E 0 90 62 60
        E 120 80 20 00
        E 0 80 4a 00
        E 0 80 56 00
        E 0 80 62 00
        E 120 90 20 60
        E 0 90 56 60
        E 0 90 62 60
        E 120 80 20 00
        E 0 80 56 00
        E 0 80 62 00
        E 120 90 20 60
        E 0 90 3e 60
        E 0 90 4a 60
        E 0 90 56 60
        E 0 90 62 60
        E 120 80 20 00
        E 0 80 3e 00
        E 0 80 4a 00
        E 0 80 56 00
        E 0 80 62 00
        E 840 90 20 60
        E 0 90 3e 60 -1
        E 0 90 4a 60
        E 0 90 56 60
        E 0 90 62 60
        E 120 80 20 00
        E 0 80 3e 00
        E 0 80 4a 00
        E 0 80 56 00
        E 0 80 62 00
        E 360 90 20 60
        E 0 90 3e 60
        E 0 90 4a 60
        E 0 90 56 60
        E 0 90 62 60
        E 120 80 20 00
        E 0 80 3e 00
        E 0 80 4a 00
        E 0 80 56 00
        E 0 80 62 00
        E 120 90 19 60
        E 0 90 60 60
        E 120 80 19 00
        E 0 80 60 00
        E 120 90 19 60
        E 0 90 3c 60
        E 0 90 48 60
        E 0 90 54 60
        E 0 90 60 60
        E 120 80 19 00
        E 0 80 3c 00
        E 0 80 48 00
        E 0 80 54 00
        E 0 80 60 00
        E 360 90 20 60
        E 0 90 4a 60
        E 0 90 56 60
        E 0 90 62 60
        E 120 80 20 00
        E 0 80 4a 00
        E 0 80 56 00
        E 0 80 62 00
        E 120 90 20 60
        E 0 90 56 60
        E 0 90 62 60
        E 120 80 20 00
        E 0 80 56 00
        E 0 80 62 00
        E 120 90 20 60
        E 0 90 3e 60
        E 0 90 4a 60
        E 0 90 56 60
        E 0 90 62 60
        E 120 80 20 00
        E 0 80 3e 00
        E 0 80 4a 00
        E 0 80 56 00
        E 0 80 62 00
        E 840 90 20 60
        E 0 90 3e 60
        E 0 90 4a 60
        E 0 90 56 60
        E 0 90 62 60
        E 120 80 20 00
        E 0 80 3e 00 -1
        E 0 80 4a 00
        E 0 80 56 00
        E 0 80 62 00
        E 360 90 20 60
        E 0 90 3e 60
        E 0 90 4a 60
        E 0 90 56 60
        E 0 90 62 60
        E 120 80 20 00
        E 0 80 3e 00
        E 0 80 4a 00
        E 0 80 56 00
        E 0 80 62 00
        E 120 90 19 60
        E 0 90 60 60
        E 120 80 19 00
        E 0 80 60 00
        E 120 90 19 60
        E 0 90 3c 60
        E 0 90 48 60
        E 0 90 54 60
        E 0 90 60 60
        E 120 80 19 00
        E 0 80 3c 00
        E 0 80 48 00
        E 0 80 54 00
        E 0 80 60 00
        E 360 90 20 60
        E 0 90 4a 60
        E 0 90 56 60
        E 0 90 62 60
        E 120 80 20 00
        E 0 80 4a 00
        E 0 80 56 00
        E 0 80 62 00
        E 120 90 20 60
        E 0 90 56 60
        E 0 90 62 60
        E 120 80 20 00
        E 0 80 56 00
        E 0 80 62 00
        E 120 90 20 60
        E 0 90 3e 60 -1
        E 0 90 4a 60
        E 0 90 56 60
        E 0 90 62 60
        E 120 80 20 00
        E 0 80 3e 00 -1
        E 0 80 4a 00
        E 0 80 56 00
        E 0 80 62 00
        E 360 90 78 60
        E 0 90 79 60
        E 0 90 7a 60
        E 0 90 7b 60
        E 0 90 7c 60
        E 480 90 20 60
        E 0 90 3e 60
        E 0 90 4a 60
        E 0 90 56 60
        E 0 90 62 60
        E 120 80 20 00
        E 0 80 3e 00
        E 0 80 4a 00
        E 0 80 56 00
        E 0 80 62 00
        E 360 90 20 60
        E 0 90 3e 60
        E 0 90 4a 60
        E 0 90 56 60
        E 0 90 62 60
        E 120 80 20 00
        E 0 80 3e 00
        E 0 80 4a 00
        E 0 80 56 00
        E 0 80 62 00
        E 120 90 19 60
        E 0 90 60 60
        E 120 80 19 00
        E 0 80 60 00
        E 120 80 78 00
        E 0 80 79 00
        E 0 80 7a 00
        E 0 80 7b 00
        E 0 80 7c 00
        E 0 90 19 60
        E 0 90 3c 60
        E 0 90 48 60
        E 0 90 54 60
        E 0 90 60 60
        E 120 80 19 00
        E 0 80 3c 00
        E 0 80 48 00
        E 0 80 54 00
        E 0 80 60 00
        E 360 90 20 60
        E 0 90 4a 60
        E 0 90 56 60
        E 0 90 62 60
        E 120 80 20 00
        E 0 80 4a 00
        E 0 80 56 00
        E 0 80 62 00
        E 120 90 20 60
        E 0 90 56 60
        E 0 90 62 60
        E 120 80 20 00
        E 0 80 56 00
        E 0 80 62 00
        E 120 90 20 60
        E 0 90 3e 60
        E 0 90 4a 60
        E 0 90 56 60
        E 0 90 62 60
        E 120 80 20 00
        E 0 80 3e 00
        E 0 80 4a 00
        E 0 80 56 00
        E 0 80 62 00
        E 840 90 20 60
        E 0 90 3e 60
        E 0 90 4a 60
        E 0 90 56 60
        E 0 90 62 60
        E 120 80 20 00
        E 0 80 3e 00
        E 0 80 4a 00
        E 0 80 56 00
        E 0 80 62 00
        E 360 90 20 60
        E 0 90 3e 60
        E 0 90 4a 60
        E 0 90 56 60
        E 0 90 62 60
        E 120 80 20 00
        E 0 80 3e 00
        E 0 80 4a 00
        E 0 80 56 00
        E 0 80 62 00
        E 120 90 19 60
        E 0 90 60 60
        E 120 80 19 00
        E 0 80 60 00
        E 120 90 19 60
        E 0 90 3c 60
        E 0 90 48 60
        E 0 90 54 60
        E 0 90 60 60
        E 120 80 19 00
        E 0 80 3c 00 -1
        E 0 80 48 00
        E 0 80 54 00
        E 0 80 60 00
        E 360 90 20 60
        E 0 90 4a 60
        E 0 90 56 60
        E 0 90 62 60
        E 120 80 20 00
        E 0 80 4a 00
        E 0 80 56 00
        E 0 80 62 00
        E 120 90 20 60
        E 0 90 56 60
        E 0 90 62 60
        E 120 80 20 00
        E 0 80 56 00
        E 0 80 62 00
        E 120 90 20 60
        E 0 90 3e 60
        E 0 90 4a 60
        E 0 90 56 60
        E 0 90 62 60
        E 120 80 20 00
        E 0 80 3e 00
        E 0 80 4a 00
        E 0 80 56 00
        E 0 80 62 00
        E 360 90 78 60
        E 0 90 79 60
        E 0 90 7a 60
        E 0 90 7b 60
        E 0 90 7c 60
        E 480 90 20 60
        E 0 90 3e 60
        E 0 90 4a 60
        E 0 90 56 60
        E 0 90 62 60
        E 120 80 20 00
        E 0 80 3e 00
        E 0 80 4a 00
        E 0 80 56 00
        E 0 80 62 00
        E 360 90 20 60
        E 0 90 3e 60
        E 0 90 4a 60
        E 0 90 56 60
        E 0 90 62 60
        E 120 80 20 00
        E 0 80 3e 00
        E 0 80 4a 00
        E 0 80 56 00
        E 0 80 62 00
        E 120 90 19 60
        E 0 90 60 60
        E 120 80 19 00
        E 0 80 60 00
        E 120 80 78 00
        E 0 80 79 00
        E 0 80 7a 00
        E 0 80 7b 00
        E 0 80 7c 00
        E 0 90 19 60
        E 0 90 3c 60
        E 0 90 48 60
        E 0 90 54 60
        E 0 90 60 60
        E 120 80 19 00
        E 0 80 3c 00
        E 0 80 48 00
        E 0 80 54 00
        E 0 80 60 00
        E 360 90 20 60
        E 0 90 4a 60
        E 0 90 56 60
        E 0 90 62 60
        E 120 80 20 00
        E 0 80 4a 00
        E 0 80 56 00
        E 0 80 62 00
        E 120 90 20 60
        E 0 90 56 60
        E 0 90 62 60
        E 120 80 20 00
        E 0 80 56 00
        E 0 80 62 00
        E 120 90 20 60
        E 0 90 3e 60
        E 0 90 4a 60
        E 0 90 56 60
        E 0 90 62 60
        E 120 80 20 00
        E 0 80 3e 00
        E 0 80 4a 00
        E 0 80 56 00
        E 0 80 62 00
        E 840 90 20 60
        E 0 90 3e 60
        E 0 90 4a 60
        E 0 90 56 60
        E 0 90 62 60
        E 120 80 20 00
        E 0 80 3e 00
        E 0 80 4a 00
        E 0 80 56 00
        E 0 80 62 00
        E 360 90 20 60
        E 0 90 3e 60
        E 0 90 4a 60
        E 0 90 56 60
        E 0 90 62 60
        E 120 80 20 00
        E 0 80 3e 00
        E 0 80 4a 00
        E 0 80 56 00
        E 0 80 62 00
        E 120 90 19 60
        E 0 90 60 60
        E 120 80 19 00
        E 0 80 60 00
        E 120 90 19 60
        E 0 90 3c 60
        E 0 90 48 60
        E 0 90 54 60
        E 0 90 60 60
        E 120 80 19 00
        E 0 80 3c 00
        E 0 80 48 00
        E 0 80 54 00
        E 0 80 60 00
        E 360 90 20 60
        E 0 90 4a 60
        E 0 90 56 60
        E 0 90 62 60
        E 120 80 20 00
        E 0 80 4a 00
        E 0 80 56 00
        E 0 80 62 00
        E 120 90 20 60
        E 0 90 56 60
        E 0 90 62 60
        E 120 80 20 00
        E 0 80 56 00
        E 0 80 62 00
        E 120 90 20 60
        E 0 90 3e 60 -1
        E 0 90 4a 60
        E 0 90 56 60
        E 0 90 62 60
        E 120 80 20 00
        E 0 80 3e 00 -1
        E 0 80 4a 00
        E 0 80 56 00
        E 0 80 62 00
        E 360 90 78 60
        E 0 90 79 60
        E 0 90 7a 60
        E 0 90 7b 60
        E 0 90 7c 60
        E 480 90 20 60
        E 0 90 3e 60
        E 0 90 4a 60
        E 0 90 56 60
        E 0 90 62 60
        E 120 80 20 00
        E 0 80 3e 00
        E 0 80 4a 00
        E 0 80 56 00
        E 0 80 62 00
        E 360 90 20 60
        E 0 90 3e 60
        E 0 90 4a 60
        E 0 90 56 60
        E 0 90 62 60
        E 120 80 20 00
        E 0 80 3e 00
        E 0 80 4a 00
        E 0 80 56 00
        E 0 80 62 00
        E 120 90 19 60
        E 0 90 60 60
        E 120 80 19 00
        E 0 80 60 00
        E 120 80 78 00
        E 0 80 79 00
        E 0 80 7a 00
        E 0 80 7b 00
        E 0 80 7c 00
        E 0 90 19 60
        E 0 90 3c 60
        E 0 90 48 60
        E 0 90 54 60
        E 0 90 60 60
        E 120 80 19 00
        E 0 80 3c 00
        E 0 80 48 00
        E 0 80 54 00
        E 0 80 60 00
        E 360 90 20 60
        E 0 90 4a 60
        E 0 90 56 60
        E 0 90 62 60
        E 120 80 20 00
        E 0 80 4a 00
        E 0 80 56 00
        E 0 80 62 00
        E 120 90 20 60
        E 0 90 56 60
        E 0 90 62 60
        E 120 80 20 00
        E 0 80 56 00
        E 0 80 62 00
        E 120 90 20 60
        E 0 90 3e 60
        E 0 90 4a 60
        E 0 90 56 60
        E 0 90 62 60
        E 120 80 20 00
        E 0 80 3e 00
        E 0 80 4a 00
        E 0 80 56 00
        E 0 80 62 00
        E 840 90 20 60
        E 0 90 3e 60 -1
        E 0 90 4a 60
        E 0 90 56 60
        E 0 90 62 60
        E 120 80 20 00
        E 0 80 3e 00
        E 0 80 4a 00
        E 0 80 56 00
        E 0 80 62 00
        E 360 90 20 60
        E 0 90 3e 60
        E 0 90 4a 60
        E 0 90 56 60
        E 0 90 62 60
        E 120 80 20 00
        E 0 80 3e 00
        E 0 80 4a 00
        E 0 80 56 00
        E 0 80 62 00
        E 120 90 19 60
        E 0 90 60 60
        E 120 80 19 00
        E 0 80 60 00
        E 120 90 19 60
        E 0 90 3c 60
        E 0 90 48 60
        E 0 90 54 60
        E 0 90 60 60
        E 120 80 19 00
        E 0 80 3c 00
        E 0 80 48 00
        E 0 80 54 00
        E 0 80 60 00
        E 360 90 20 60
        E 0 90 4a 60
        E 0 90 56 60
        E 0 90 62 60
        E 120 80 20 00
        E 0 80 4a 00
        E 0 80 56 00
        E 0 80 62 00
        E 120 90 20 60
        E 0 90 56 60
        E 0 90 62 60
        E 120 80 20 00
        E 0 80 56 00
        E 0 80 62 00
        E 120 90 20 60
        E 0 90 3e 60
        E 0 90 4a 60
        E 0 90 56 60
        E 0 90 62 60
        E 120 80 20 00
        E 0 80 3e 00
        E 0 80 4a 00
        E 0 80 56 00
        E 0 80 62 00
        E 360 90 78 60
        E 0 90 79 60
        E 0 90 7a 60
        E 0 90 7b 60
        E 0 90 7c 60
        E 480 90 20 60
        E 0 90 3e 60
        E 0 90 4a 60
        E 0 90 56 60
        E 0 90 62 60
        E 120 80 20 00
        E 0 80 3e 00 -1
        E 0 80 4a 00
        E 0 80 56 00
        E 0 80 62 00
        E 360 90 20 60
        E 0 90 3e 60
        E 0 90 4a 60
        E 0 90 56 60
        E 0 90 62 60
        E 120 80 20 00
        E 0 80 3e 00
        E 0 80 4a 00
        E 0 80 56 00
        E 0 80 62 00
        E 120 90 19 60
        E 0 90 60 60
        E 120 80 19 00
        E 0 80 60 00
        E 120 80 78 00
        E 0 80 79 00
        E 0 80 7a 00
        E 0 80 7b 00
        E 0 80 7c 00
        E 0 90 19 60
        E 0 90 3c 60
        E 0 90 48 60
        E 0 90 54 60
        E 0 90 60 60
        E 120 80 19 00
        E 0 80 3c 00
        E 0 80 48 00
        E 0 80 54 00
        E 0 80 60 00
        E 360 90 20 60
        E 0 90 4a 60
        E 0 90 56 60
        E 0 90 62 60
        E 120 80 20 00
        E 0 80 4a 00
        E 0 80 56 00
        E 0 80 62 00
        E 120 90 20 60
        E 0 90 56 60
        E 0 90 62 60
        E 120 80 20 00
        E 0 80 56 00
        E 0 80 62 00
        E 120 90 20 60
        E 0 90 3e 60 -1
        E 0 90 4a 60
        E 0 90 56 60
        E 0 90 62 60
        E 120 80 20 00
        E 0 80 3e 00 -1
        E 0 80 4a 00
        E 0 80 56 00
        E 0 80 62 00
        E 360 90 74 60
        E 480 90 20 60
        E 0 90 3e 60
        E 0 90 4a 60
        E 0 90 56 60
        E 0 90 62 60
        E 120 80 20 00
        E 0 80 3e 00
        E 0 80 4a 00
        E 0 80 56 00
        E 0 80 62 00
        E 360 90 20 60
        E 0 90 3e 60
        E 0 90 4a 60
        E 0 90 56 60
        E 0 90 62 60
        E 120 80 20 00
        E 0 80 3e 00
        E 0 80 4a 00
        E 0 80 56 00
        E 0 80 62 00
        E 120 90 19 60
        E 0 90 60 60
        E 120 80 19 00
        E 0 80 60 00
        E 120 90 19 60
        E 0 90 3c 60
        E 0 90 48 60
        E 0 90 54 60
        E 0 90 60 60
        E 120 80 19 00
        E 0 80 3c 00
        E 0 80 48 00
        E 0 80 54 00
        E 0 80 60 00
        E 360 90 20 60
        E 0 90 4a 60
        E 0 90 56 60
        E 0 90 62 60
        E 120 80 20 00
        E 0 80 4a 00
        E 0 80 56 00
        E 0 80 62 00
        E 120 90 20 60
        E 0 90 56 60
        E 0 90 62 60
        E 120 80 20 00
        E 0 80 56 00
        E 0 80 62 00
        E 120 90 20 60
        E 0 90 3e 60
        E 0 90 4a 60
        E 0 90 56 60
        E 0 90 62 60
        E 120 80 20 00
        E 0 80 3e 00
        E 0 80 4a 00
        E 0 80 56 00
        E 0 80 62 00
        E 840 90 20 60
        E 0 90 3e 60
        E 0 90 4a 60
        E 0 90 56 60
        E 0 90 62 60
        E 120 80 20 00
        E 0 80 3e 00
        E 0 80 4a 00
        E 0 80 56 00
        E 0 80 62 00
        E 360 90 20 60
        E 0 90 3e 60
        E 0 90 4a 60
        E 0 90 56 60
        E 0 90 62 60
        E 120 80 20 00
        E 0 80 3e 00
        E 0 80 4a 00
        E 0 80 56 00
        E 0 80 62 00
        E 120 90 19 60
        E 0 90 60 60
        E 120 80 19 00
        E 0 80 60 00
        E 120 80 74 00
        E 0 90 19 60
        E 0 90 3c 60
        E 0 90 48 60
        E 0 90 54 60
        E 0 90 60 60
        E 120 80 19 00
        E 0 80 3c 00 -1
        E 0 80 48 00
        E 0 80 54 00
        E 0 80 60 00
        E 360 90 20 60
        E 0 90 4a 60
        E 0 90 56 60
        E 0 90 62 60
        E 120 80 20 00
        E 0 80 4a 00
        E 0 80 56 00
        E 0 80 62 00
        E 120 90 20 60
        E 0 90 56 60
        E 0 90 62 60
        E 120 80 20 00
        E 0 80 56 00
        E 0 80 62 00
        E 120 90 20 60
        E 0 90 3e 60
        E 0 90 4a 60
        E 0 90 56 60
        E 0 90 62 60
        E 120 80 20 00
        E 0 80 3e 00
        E 0 80 4a 00
        E 0 80 56 00
        E 0 80 62 00
        E 840 90 20 60
        E 0 90 3e 60
        E 0 90 4a 60
        E 0 90 56 60
        E 0 90 62 60
        E 120 80 20 00
        E 0 80 3e 00
        E 0 80 4a 00
        E 0 80 56 00
        E 0 80 62 00
        E 360 90 20 60
        E 0 90 3e 60
        E 0 90 4a 60
        E 0 90 56 60
        E 0 90 62 60
        E 120 80 20 00
        E 0 80 3e 00
        E 0 80 4a 00
        E 0 80 56 00
        E 0 80 62 00
        E 120 90 19 60
        E 0 90 60 60
        E 120 80 19 00
        E 0 80 60 00
        E 120 90 19 60
        E 0 90 3c 60
        E 0 90 48 60
        E 0 90 54 60
        E 0 90 60 60
        E 120 80 19 00
        E 0 80 3c 00
        E 0 80 48 00
        E 0 80 54 00
        E 0 80 60 00
        E 360 90 20 60
        E 0 90 4a 60
        E 0 90 56 60
        E 0 90 62 60
        E 120 80 20 00
        E 0 80 4a 00
        E 0 80 56 00
        E 0 80 62 00
        E 120 90 20 60
        E 0 90 56 60
        E 0 90 62 60
        E 120 80 20 00
        E 0 80 56 00
        E 0 80 62 00
        E 120 90 20 60
        E 0 90 3e 60
        E 0 90 4a 60
        E 0 90 56 60
        E 0 90 62 60
        E 120 80 20 00
        E 0 80 3e 00
        E 0 80 4a 00
        E 0 80 56 00
        E 0 80 62 00
        E 840 90 20 60
        E 0 90 3e 60
        E 0 90 4a 60
        E 0 90 56 60
        E 0 90 62 60
        E 120 80 20 00
        E 0 80 3e 00
        E 0 80 4a 00
        E 0 80 56 00
        E 0 80 62 00
        E 360 90 20 60
        E 0 90 3e 60
        E 0 90 4a 60
        E 0 90 56 60
        E 0 90 62 60
        E 120 80 20 00
        E 0 80 3e 00
        E 0 80 4a 00
        E 0 80 56 00
        E 0 80 62 00
        E 120 90 19 60
        E 0 90 60 60
        E 120 80 19 00
        E 0 80 60 00
        E 120 90 19 60
        E 0 90 3c 60
        E 0 90 48 60
        E 0 90 54 60
        E 0 90 60 60
        E 120 80 19 00
        E 0 80 3c 00
        E 0 80 48 00
        E 0 80 54 00
        E 0 80 60 00
        E 360 90 20 60
        E 0 90 4a 60
        E 0 90 56 60
        E 0 90 62 60
        E 120 80 20 00
        E 0 80 4a 00
        E 0 80 56 00
        E 0 80 62 00
        E 120 90 20 60
        E 0 90 56 60
        E 0 90 62 60
        E 120 80 20 00
        E 0 80 56 00
        E 0 80 62 00
        E 120 90 20 60
        E 0 90 3e 60 -1
        E 0 90 4a 60
        E 0 90 56 60
        E 0 90 62 60
        E 120 80 20 00
        E 0 80 3e 00 -1
        E 0 80 4a 00
        E 0 80 56 00
        E 0 80 62 00
        E 360 90 78 60
        E 0 90 79 60
        E 0 90 7a 60
        E 0 90 7b 60
        E 0 90 7c 60
        E 480 90 20 60
        E 0 90 3e 60
        E 0 90 4a 60
        E 0 90 56 60
        E 0 90 62 60
        E 120 80 20 00
        E 0 80 3e 00
        E 0 80 4a 00
        E 0 80 56 00
        E 0 80 62 00
        E 360 90 20 60
        E 0 90 3e 60
        E 0 90 4a 60
        E 0 90 56 60
        E 0 90 62 60
        E 120 80 20 00
        E 0 80 3e 00
        E 0 80 4a 00
        E 0 80 56 00
        E 0 80 62 00
        E 120 90 19 60
        E 0 90 60 60
        E 120 80 19 00
        E 0 80 60 00
        E 120 80 78 00
        E 0 80 79 00
        E 0 80 7a 00
        E 0 80 7b 00
        E 0 80 7c 00
        E 0 90 19 60
        E 0 90 3c 60
        E 0 90 48 60
        E 0 90 54 60
        E 0 90 60 60
        E 120 80 19 00
        E 0 80 3c 00
        E 0 80 48 00
        E 0 80 54 00
        E 0 80 60 00
        E 360 90 20 60
        E 0 90 4a 60
        E 0 90 56 60
        E 0 90 62 60
        E 120 80 20 00
        E 0 80 4a 00
        E 0 80 56 00
        E 0 80 62 00
        E 120 90 20 60
        E 0 90 56 60
        E 0 90 62 60
        E 120 80 20 00
        E 0 80 56 00
        E 0 80 62 00
        E 120 90 20 60
        E 0 90 3e 60
        E 0 90 4a 60
        E 0 90 56 60
        E 0 90 62 60
        E 120 80 20 00
        E 0 80 3e 00
        E 0 80 4a 00
        E 0 80 56 00
        E 0 80 62 00
        E 840 90 20 60
        E 0 90 3e 60 -1
        E 0 90 4a 60
        E 0 90 56 60
        E 0 90 62 60
        E 120 80 20 00
        E 0 80 3e 00
        E 0 80 4a 00
        E 0 80 56 00
        E 0 80 62 00
        E 360 90 20 60
        E 0 90 3e 60
        E 0 90 4a 60
        E 0 90 56 60
        E 0 90 62 60
        E 120 80 20 00
        E 0 80 3e 00
        E 0 80 4a 00
        E 0 80 56 00
        E 0 80 62 00
        E 120 90 19 60
        E 0 90 60 60
        E 120 80 19 00
        E 0 80 60 00
        E 120 90 19 60
        E 0 90 3c 60
        E 0 90 48 60
        E 0 90 54 60
        E 0 90 60 60
        E 120 80 19 00
        E 0 80 3c 00
        E 0 80 48 00
        E 0 80 54 00
        E 0 80 60 00
        E 360 90 20 60
        E 0 90 4a 60
        E 0 90 56 60
        E 0 90 62 60
        E 120 80 20 00
        E 0 80 4a 00
        E 0 80 56 00
        E 0 80 62 00
        E 120 90 20 60
        E 0 90 56 60
        E 0 90 62 60
        E 120 80 20 00
        E 0 80 56 00
        E 0 80 62 00
        E 120 90 20 60
        E 0 90 3e 60
        E 0 90 4a 60
        E 0 90 56 60
        E 0 90 62 60
        E 120 80 20 00
        E 0 80 3e 00
        E 0 80 4a 00
        E 0 80 56 00
        E 0 80 62 00
        E 360 90 78 60
        E 0 90 79 60
        E 0 90 7a 60
        E 0 90 7b 60
        E 0 90 7c 60
        E 480 90 20 60
        E 0 90 3e 60
        E 0 90 4a 60
        E 0 90 56 60
        E 0 90 62 60
        E 120 80 20 00
        E 0 80 3e 00 -1
        E 0 80 4a 00
        E 0 80 56 00
        E 0 80 62 00
        E 360 90 20 60
        E 0 90 3e 60
        E 0 90 4a 60
        E 0 90 56 60
        E 0 90 62 60
        E 120 80 20 00
        E 0 80 3e 00
        E 0 80 4a 00
        E 0 80 56 00
        E 0 80 62 00
        E 120 90 19 60
        E 0 90 60 60
        E 120 80 19 00
        E 0 80 60 00
        E 120 80 78 00
        E 0 80 79 00
        E 0 80 7a 00
        E 0 80 7b 00
        E 0 80 7c 00
        E 0 90 19 60
        E 0 90 3c 60
        E 0 90 48 60
        E 0 90 54 60
        E 0 90 60 60
        E 120 80 19 00
        E 0 80 3c 00
        E 0 80 48 00
        E 0 80 54 00
        E 0 80 60 00
        E 360 90 20 60
        E 0 90 4a 60
        E 0 90 56 60
        E 0 90 62 60
        E 120 80 20 00
        E 0 80 4a 00
        E 0 80 56 00
        E 0 80 62 00
        E 120 90 20 60
        E 0 90 56 60
        E 0 90 62 60
        E 120 80 20 00
        E 0 80 56 00
        E 0 80 62 00
        E 120 90 20 60
        E 0 90 3e 60 -1
        E 0 90 4a 60
        E 0 90 56 60
        E 0 90 62 60
        E 120 80 20 00
        E 0 80 3e 00 -1
        E 0 80 4a 00
        E 0 80 56 00
        E 0 80 62 00
        E 840 90 20 60
        E 0 90 3e 60
        E 0 90 4a 60
        E 0 90 56 60
        E 0 90 62 60
        E 120 80 20 00
        E 0 80 3e 00
        E 0 80 4a 00
        E 0 80 56 00
        E 0 80 62 00
        E 360 90 20 60
        E 0 90 3e 60
        E 0 90 4a 60
        E 0 90 56 60
        E 0 90 62 60
        E 120 80 20 00
        E 0 80 3e 00
        E 0 80 4a 00
        E 0 80 56 00
        E 0 80 62 00
        E 120 90 19 60
        E 0 90 60 60
        E 120 80 19 00
        E 0 80 60 00
        E 120 90 19 60
        E 0 90 3c 60
        E 0 90 48 60
        E 0 90 54 60
        E 0 90 60 60
        E 120 80 19 00
        E 0 80 3c 00
        E 0 80 48 00
        E 0 80 54 00
        E 0 80 60 00
        E 360 90 20 60
        E 0 90 4a 60
        E 0 90 56 60
        E 0 90 62 60
        E 120 80 20 00
        E 0 80 4a 00
        E 0 80 56 00
        E 0 80 62 00
        E 120 90 20 60
        E 0 90 56 60
        E 0 90 62 60
        E 120 80 20 00
        E 0 80 56 00
        E 0 80 62 00
        E 120 90 20 60
        E 0 90 3e 60 -1
        E 0 90 4a 60
        E 0 90 56 60
        E 0 90 62 60
        E 120 80 20 00
        E 0 80 3e 00 -1
        E 0 80 4a 00
        E 0 80 56 00
        E 0 80 62 00
        E 840 90 20 60
        E 0 90 3e 60
        E 0 90 4a 60
        E 0 90 56 60
        E 0 90 62 60
        E 120 80 20 00
        E 0 80 3e 00
        E 0 80 4a 00
        E 0 80 56 00
        E 0 80 62 00
        E 360 90 20 60
        E 0 90 3e 60
        E 0 90 4a 60
        E 0 90 56 60
        E 0 90 62 60
        E 120 80 20 00
        E 0 80 3e 00
        E 0 80 4a 00
        E 0 80 56 00
        E 0 80 62 00
        E 120 90 19 60
        E 0 90 60 60
        E 120 80 19 00
        E 0 80 60 00
        E 120 90 19 60
        E 0 90 3c 60
        E 0 90 48 60
        E 0 90 54 60
        E 0 90 60 60
        E 120 80 19 00
        E 0 80 3c 00
        E 0 80 48 00
        E 0 80 54 00
        E 0 80 60 00
        <X 360 0
          /wFbaWRsZV9yZWFsdGltZV0=
        >
        E 2400 b0 7b 00
        GUID {8C5ABED4-B1DC-4CC0-8DCA-61DE88E5F5C5}
        IGNTEMPO 0 120.00000000 4 4
        SRCCOLOR 132
        VELLANE 132 128 60
        COLORMAP "C:\Program Files\REAPER (x64)\Data\color_maps\rockband_guitarbass.png"
        CFGEDITVIEW -5472.000000 7.231767 0 12 0 0 0
        CFGEDIT 1 1 0 1 1 0 1 1 1 1 1 0.25000000 -8 -8 1370 736 0 2 1 1 0.00000000 0 1 0 0 0.500000 0 0 1.000000 64
        KEYSNAP 0 3 "102034050607" 0 "Major"
        EVTFILTER 0 -1 -1 -1 -1 0 1 0 0 -1.00000000 -1.00000000
      >
    >
  >
  <TRACK '{70E6483C-6297-4FC4-A252-05ABD6C17996}'
    NAME "kick"
    PEAKCOL 16576
    BEAT -1
    AUTOMODE 0
    VOLPAN 1.00000000000000 0.00000000000000 -1.00000000000000 -1.00000000000000 1.00000000000000
    MUTESOLO 0 0 0
    IPHASE 0
    ISBUS 0 0
    BUSCOMP 0 0
    SHOWINMIX 1 0.666700 0.500000 1 0.500000 -1 -1 -1
    FREEMODE 0
    SEL 0
    REC 0 0 0 0 0 0 0
    VU 2
    TRACKHEIGHT 0 0
    INQ 0 0 0 0.5000000000 100 0 0 100
    NCHAN 2
    FX 1
    TRACKID {70E6483C-6297-4FC4-A252-05ABD6C17996}
    PERF 0
    MIDIOUT -1
    MAINSEND 1 0
    <ITEM
      POSITION 0.00000000000000
      SNAPOFFS 0.00000000000000
      LENGTH 151.98097505668935
      LOOP 0
      ALLTAKES 0
      SEL 0
      FADEIN 1 0.000000 0.000000 1 0
      FADEOUT 1 0.000000 0.000000 1 0
      MUTE 0
      IGUID {DCEEDE54-6BE7-478A-9914-4B3D381EB4D3}
      IID 26
      NAME "kick.wav"
      VOLPAN 1.000000 0.000000 1.000000 -1.000000
      SOFFS 0.00000000000000
      PLAYRATE 1.00000000000000 1 0.00000000000000 -1
      CHANMODE 0
      GUID {8C183D67-E0B7-4A2C-BACB-D3A485B83238}
      <SOURCE WAVE
        FILE "wav\kick.wav"
      >
    >
  >
  <TRACK '{EA4D14F8-80B2-4A20-A29B-0093B6E3B89D}'
    NAME "kit"
    PEAKCOL 16576
    BEAT -1
    AUTOMODE 0
    VOLPAN 1.00000000000000 0.00000000000000 -1.00000000000000 -1.00000000000000 1.00000000000000
    MUTESOLO 0 0 0
    IPHASE 0
    ISBUS 2 -1
    BUSCOMP 0 0
    SHOWINMIX 1 0.666700 0.500000 1 0.500000 -1 -1 -1
    FREEMODE 0
    SEL 0
    REC 0 0 0 0 0 0 0
    VU 2
    TRACKHEIGHT 0 0
    INQ 0 0 0 0.5000000000 100 0 0 100
    NCHAN 2
    FX 1
    TRACKID {EA4D14F8-80B2-4A20-A29B-0093B6E3B89D}
    PERF 0
    MIDIOUT -1
    MAINSEND 1 0
    <ITEM
      POSITION 0.00000000000000
      SNAPOFFS 0.00000000000000
      LENGTH 151.98097505668935
      LOOP 0
      ALLTAKES 0
      SEL 0
      FADEIN 1 0.000000 0.000000 1 0
      FADEOUT 1 0.000000 0.000000 1 0
      MUTE 0
      IGUID {627BEF6D-0B53-468D-B847-A001949C44DC}
      IID 27
      NAME "kit.wav"
      VOLPAN 1.000000 0.000000 1.000000 -1.000000
      SOFFS 0.00000000000000
      PLAYRATE 1.00000000000000 1 0.00000000000000 -1
      CHANMODE 0
      GUID {917363FB-A4B0-4FB5-B0FB-6E4D1B94ABB6}
      <SOURCE WAVE
        FILE "wav\kit.wav"
      >
    >
  >
  <TRACK '{57053195-8545-48F8-A15D-29628E4322FF}'
    NAME "PART BASS"
    PEAKCOL 16576
    BEAT -1
    AUTOMODE 0
    VOLPAN 1.00000000000000 0.00000000000000 -1.00000000000000 -1.00000000000000 1.00000000000000
    MUTESOLO 0 0 0
    IPHASE 0
    ISBUS 1 1
    BUSCOMP 0 0
    SHOWINMIX 1 0.666700 0.500000 1 0.500000 -1 -1 -1
    FREEMODE 0
    SEL 0
    REC 0 0 0 0 0 0 0
    VU 2
    TRACKHEIGHT 0 0
    INQ 0 0 0 0.5000000000 100 0 0 100
    NCHAN 2
    FX 0
    TRACKID {57053195-8545-48F8-A15D-29628E4322FF}
    PERF 0
    MIDIOUT -1
    <MIDINOTENAMES
      0 127 "TRILL MARKER"
      0 126 "TREMOLO MARKER"
      0 125 "---"
      0 124 "BRE"
      0 123 "BRE"
      0 122 "BRE"
      0 121 "BRE"
      0 120 "BRE (use all 5)"
      0 119 "----"
      0 116 "OVERDRIVE"
      0 115 "----"
      0 103 "Solo Marker"
      0 102 "Force HOPO Off"
      0 101 "Force HOPO On"
      0 100 "EXPERT Orange"
      0 99 "EXPERT Blue"
      0 98 "EXPERT Yellow"
      0 97 "EXPERT Red"
      0 96 "EXPERT Green"
      0 95 "----"
      0 90 "Force HOPO Off"
      0 89 "Force HOPO On"
      0 88 "HARD Orange"
      0 87 "HARD Blue"
      0 86 "HARD Yellow"
      0 85 "HARD Red"
      0 84 "HARD Green"
      0 77 "----"
      0 76 "MEDIUM Orange"
      0 75 "MEDIUM Blue"
      0 74 "MEDIUM Yellow"
      0 73 "MEDIUM Red"
      0 72 "MEDIUM Green"
      0 65 "----"
      0 64 "EASY Orange"
      0 63 "EASY Blue"
      0 62 "EASY Yellow"
      0 61 "EASY Red"
      0 60 "EASY Green"
      0 59 "Fret 12"
      0 57 "Fret 11"
      0 56 "Fret 10"
      0 55 "Fret 9"
      0 53 "Fret 8"
      0 52 "Fret 7"
      0 50 "Fret 6"
      0 49 "Fret 5"
      0 47 "Fret 4"
      0 45 "Fret 3"
      0 43 "Fret 2"
      0 40 "Fret 1"
    >
    MAINSEND 1 0
    <FXCHAIN
      WNDRECT 0 43 878 559
      SHOW 0
      LASTSEL 0
      DOCKED 0
      BYPASS 0 0
      <VST "VSTi: RBN Preview (RBN)" "rbprev_vst64.dll" 0 ""
        dnBicu5e7f4AAAAAAgAAAAEAAAAAAAAAAgAAAAAAAAAEAAAAAQAAAA==
        AAAQAAMAqgAAABAAAAA=
      >
      FLOATPOS 0 0 0 0
      FXID {A334AD67-A350-4600-BED8-D4BFDF2EC570}
      WAK 0
    >
    <ITEM
      POSITION 0.00000000000000
      SNAPOFFS 0.00000000000000
      LENGTH 151.98097262100958
      LOOP 0
      ALLTAKES 0
      SEL 0
      FADEIN 1 0.000000 0.000000 1 0
      FADEOUT 1 0.000000 0.000000 1 0
      MUTE 0
      IGUID {1C901C8C-6409-4A30-B7A2-FB33A249D52B}
      IID 95
      NAME "PART BASS"
      VOLPAN 1.000000 0.000000 1.000000 -1.000000
      SOFFS 0.00000000000000 0.00000000000000
      PLAYRATE 1.00000000000000 1 0.00000000000000 -1
      CHANMODE 0
      GUID {5329E45C-A52E-47F3-B63F-C5685FF8C7A4}
      <SOURCE MIDI
        HASDATA 1 480 QN
        POOLEDEVTS {845E67E5-53E7-440F-B581-5235F6B0A23B}
        <X 0 0
          /wNQQVJUIEJBU1M=
        >
        e 2880 90 3d 60
        E 0 90 49 60
        E 0 90 55 60
        E 0 90 61 60
        e 60 80 3d 00
        E 0 80 49 00
        E 0 80 55 00
        E 0 80 61 00
        E 180 90 56 60
        E 0 90 62 60
        E 60 80 56 00
        E 0 80 62 00
        E 180 90 4b 60
        E 0 90 57 60
        E 0 90 63 60
        E 60 80 4b 00
        E 0 80 57 00
        E 0 80 63 00
        E 180 90 56 60
        E 0 90 62 60
        E 60 80 56 00
        E 0 80 62 00
        E 180 90 3e 60
        E 0 90 4b 60
        E 0 90 57 60
        E 0 90 63 60
        E 60 80 3e 00
        E 0 80 4b 00
        E 0 80 57 00
        E 0 80 63 00
        E 180 90 58 60
        E 0 90 64 60
        E 60 80 58 00
        E 0 80 64 00
        E 180 90 3d 60
        E 0 90 49 60
        E 0 90 55 60
        E 0 90 61 60
        E 60 80 3d 00
        E 0 80 49 00
        E 0 80 55 00
        E 0 80 61 00
        E 180 90 56 60
        E 0 90 62 60
        E 60 80 56 00
        E 0 80 62 00
        E 180 90 4b 60
        E 0 90 57 60
        E 0 90 63 60
        E 60 80 4b 00
        E 0 80 57 00
        E 0 80 63 00
        E 180 90 56 60
        E 0 90 62 60
        E 60 80 56 00
        E 0 80 62 00
        E 180 90 4b 60
        E 0 90 57 60
        E 0 90 63 60
        E 60 80 4b 00
        E 0 80 57 00
        E 0 80 63 00
        E 180 90 58 60
        E 0 90 64 60
        E 60 80 58 00
        E 0 80 64 00
        E 180 90 3d 60
        E 0 90 49 60
        E 0 90 55 60
        E 0 90 61 60
        E 60 80 3d 00
        E 0 80 49 00
        E 0 80 55 00
        E 0 80 61 00
        E 180 90 56 60
        E 0 90 62 60
        E 60 80 56 00
        E 0 80 62 00
        E 180 90 4b 60
        E 0 90 57 60
        E 0 90 63 60
        E 60 80 4b 00
        E 0 80 57 00
        E 0 80 63 00
        E 180 90 56 60
        E 0 90 62 60
        E 60 80 56 00
        E 0 80 62 00
        E 180 90 3e 60
        E 0 90 4b 60
        E 0 90 57 60
        E 0 90 63 60
        E 60 80 3e 00
        E 0 80 4b 00
        E 0 80 57 00
        E 0 80 63 00
        E 180 90 58 60
        E 0 90 64 60
        E 60 80 58 00
        E 0 80 64 00
        E 180 90 3d 60
        E 0 90 49 60
        E 0 90 55 60
        E 0 90 61 60
        E 60 80 3d 00
        E 0 80 49 00
        E 0 80 55 00
        E 0 80 61 00
        E 180 90 56 60
        E 0 90 62 60
        E 60 80 56 00
        E 0 80 62 00
        E 180 90 4b 60
        E 0 90 57 60
        E 0 90 63 60
        E 60 80 4b 00
        E 0 80 57 00
        E 0 80 63 00
        E 180 90 56 60
        E 0 90 62 60
        E 60 80 56 00
        E 0 80 62 00
        E 180 90 4b 60
        E 0 90 57 60
        E 0 90 63 60
        E 60 80 4b 00
        E 0 80 57 00
        E 0 80 63 00
        E 180 90 58 60
        E 0 90 64 60
        E 60 80 58 00
        E 0 80 64 00
        E 180 90 3d 60
        E 0 90 49 60
        E 0 90 55 60
        E 0 90 61 60
        E 60 80 3d 00
        E 0 80 49 00
        E 0 80 55 00
        E 0 80 61 00
        E 180 90 56 60
        E 0 90 62 60
        E 60 80 56 00
        E 0 80 62 00
        E 180 90 4b 60
        E 0 90 57 60
        E 0 90 63 60
        E 60 80 4b 00
        E 0 80 57 00
        E 0 80 63 00
        E 180 90 56 60
        E 0 90 62 60
        E 60 80 56 00
        E 0 80 62 00
        E 180 90 3e 60
        E 0 90 4b 60
        E 0 90 57 60
        E 0 90 63 60
        E 60 80 3e 00
        E 0 80 4b 00
        E 0 80 57 00
        E 0 80 63 00
        E 180 90 58 60
        E 0 90 64 60
        E 60 80 58 00
        E 0 80 64 00
        E 180 90 3d 60
        E 0 90 49 60
        E 0 90 55 60
        E 0 90 61 60
        E 60 80 3d 00
        E 0 80 49 00
        E 0 80 55 00
        E 0 80 61 00
        E 180 90 56 60
        E 0 90 62 60
        E 60 80 56 00
        E 0 80 62 00
        E 180 90 4b 60
        E 0 90 57 60
        E 0 90 63 60
        E 60 80 4b 00
        E 0 80 57 00
        E 0 80 63 00
        E 180 90 56 60
        E 0 90 62 60
        E 60 80 56 00
        E 0 80 62 00
        E 180 90 4b 60
        E 0 90 57 60
        E 0 90 63 60
        E 60 80 4b 00
        E 0 80 57 00
        E 0 80 63 00
        E 180 90 58 60
        E 0 90 64 60
        E 60 80 58 00
        E 0 80 64 00
        E 180 90 3c 60
        E 0 90 48 60
        E 0 90 54 60
        E 0 90 60 60
        E 60 80 3c 00
        E 0 80 48 00
        E 0 80 54 00
        E 0 80 60 00
        E 180 90 55 60
        E 0 90 61 60
        E 60 80 55 00
        E 0 80 61 00
        E 180 90 4a 60
        E 0 90 56 60
        E 0 90 62 60
        E 60 80 4a 00
        E 0 80 56 00
        E 0 80 62 00
        E 180 90 55 60
        E 0 90 61 60
        E 60 80 55 00
        E 0 80 61 00
        E 180 90 3e 60
        E 0 90 4a 60
        E 0 90 56 60
        E 0 90 62 60
        E 60 80 3e 00
        E 0 80 4a 00
        E 0 80 56 00
        E 0 80 62 00
        E 180 90 57 60
        E 0 90 63 60
        E 60 80 57 00
        E 0 80 63 00
        E 180 90 3c 60
        E 0 90 48 60
        E 0 90 54 60
        E 0 90 60 60
        E 60 80 3c 00
        E 0 80 48 00
        E 0 80 54 00
        E 0 80 60 00
        E 180 90 55 60
        E 0 90 61 60
        E 60 80 55 00
        E 0 80 61 00
        E 180 90 4a 60
        E 0 90 56 60
        E 0 90 62 60
        E 60 80 4a 00
        E 0 80 56 00
        E 0 80 62 00
        E 180 90 55 60
        E 0 90 61 60
        E 60 80 55 00
        E 0 80 61 00
        E 180 90 4a 60
        E 0 90 56 60
        E 0 90 62 60
        E 60 80 4a 00
        E 0 80 56 00
        E 0 80 62 00
        E 180 90 57 60
        E 0 90 63 60
        E 60 80 57 00
        E 0 80 63 00
        E 180 90 3c 60
        E 0 90 48 60
        E 0 90 54 60
        E 0 90 60 60
        E 0 90 74 60
        E 60 80 3c 00
        E 0 80 48 00
        E 0 80 54 00
        E 0 80 60 00
        E 180 90 55 60
        E 0 90 61 60
        E 60 80 55 00
        E 0 80 61 00
        E 180 90 4a 60
        E 0 90 56 60
        E 0 90 62 60
        E 60 80 4a 00
        E 0 80 56 00
        E 0 80 62 00
        E 180 90 55 60
        E 0 90 61 60
        E 60 80 55 00
        E 0 80 61 00
        E 180 90 3e 60
        E 0 90 4a 60
        E 0 90 56 60
        E 0 90 62 60
        E 60 80 3e 00
        E 0 80 4a 00
        E 0 80 56 00
        E 0 80 62 00
        E 180 90 57 60
        E 0 90 63 60
        E 60 80 57 00
        E 0 80 63 00
        E 180 90 3c 60
        E 0 90 48 60
        E 0 90 54 60
        E 0 90 60 60
        E 60 80 3c 00
        E 0 80 48 00
        E 0 80 54 00
        E 0 80 60 00
        E 180 90 55 60
        E 0 90 61 60
        E 60 80 55 00
        E 0 80 61 00
        E 180 90 4a 60
        E 0 90 56 60
        E 0 90 62 60
        E 60 80 4a 00
        E 0 80 56 00
        E 0 80 62 00
        E 180 90 55 60
        E 0 90 61 60
        E 60 80 55 00
        E 0 80 61 00
        E 180 90 4a 60
        E 0 90 56 60
        E 0 90 62 60
        E 60 80 4a 00
        E 0 80 56 00
        E 0 80 62 00
        E 180 90 57 60
        E 0 90 63 60
        E 60 80 57 00
        E 0 80 63 00
        E 180 80 74 00
        E 0 90 3d 60
        E 0 90 49 60
        E 0 90 55 60
        E 0 90 61 60
        E 60 80 3d 00
        E 0 80 49 00
        E 0 80 55 00
        E 0 80 61 00
        E 180 90 56 60
        E 0 90 62 60
        E 60 80 56 00
        E 0 80 62 00
        E 180 90 4b 60
        E 0 90 57 60
        E 0 90 63 60
        E 60 80 4b 00
        E 0 80 57 00
        E 0 80 63 00
        E 180 90 56 60
        E 0 90 62 60
        E 60 80 56 00
        E 0 80 62 00
        E 180 90 3e 60
        E 0 90 4b 60
        E 0 90 57 60
        E 0 90 63 60
        E 60 80 3e 00
        E 0 80 4b 00
        E 0 80 57 00
        E 0 80 63 00
        E 180 90 58 60
        E 0 90 64 60
        E 60 80 58 00
        E 0 80 64 00
        E 180 90 3d 60
        E 0 90 49 60
        E 0 90 55 60
        E 0 90 61 60
        E 60 80 3d 00
        E 0 80 49 00
        E 0 80 55 00
        E 0 80 61 00
        E 180 90 56 60
        E 0 90 62 60
        E 60 80 56 00
        E 0 80 62 00
        E 180 90 4b 60
        E 0 90 57 60
        E 0 90 63 60
        E 60 80 4b 00
        E 0 80 57 00
        E 0 80 63 00
        E 180 90 56 60
        E 0 90 62 60
        E 60 80 56 00
        E 0 80 62 00
        E 180 90 4b 60
        E 0 90 57 60
        E 0 90 63 60
        E 60 80 4b 00
        E 0 80 57 00
        E 0 80 63 00
        E 180 90 58 60
        E 0 90 64 60
        E 60 80 58 00
        E 0 80 64 00
        E 180 90 3d 60
        E 0 90 49 60
        E 0 90 55 60
        E 0 90 61 60
        E 60 80 3d 00
        E 0 80 49 00
        E 0 80 55 00
        E 0 80 61 00
        E 180 90 56 60
        E 0 90 62 60
        E 60 80 56 00
        E 0 80 62 00
        E 180 90 4b 60
        E 0 90 57 60
        E 0 90 63 60
        E 60 80 4b 00
        E 0 80 57 00
        E 0 80 63 00
        E 180 90 56 60
        E 0 90 62 60
        E 60 80 56 00
        E 0 80 62 00
        E 180 90 3e 60
        E 0 90 4b 60
        E 0 90 57 60
        E 0 90 63 60
        E 60 80 3e 00
        E 0 80 4b 00
        E 0 80 57 00
        E 0 80 63 00
        E 180 90 58 60
        E 0 90 64 60
        E 60 80 58 00
        E 0 80 64 00
        E 180 90 3d 60
        E 0 90 49 60
        E 0 90 55 60
        E 0 90 61 60
        E 60 80 3d 00
        E 0 80 49 00
        E 0 80 55 00
        E 0 80 61 00
        E 180 90 56 60
        E 0 90 62 60
        E 60 80 56 00
        E 0 80 62 00
        E 180 90 4b 60
        E 0 90 57 60
        E 0 90 63 60
        E 60 80 4b 00
        E 0 80 57 00
        E 0 80 63 00
        E 180 90 56 60
        E 0 90 62 60
        E 60 80 56 00
        E 0 80 62 00
        E 180 90 4b 60
        E 0 90 57 60
        E 0 90 63 60
        E 60 80 4b 00
        E 0 80 57 00
        E 0 80 63 00
        E 180 90 58 60
        E 0 90 64 60
        E 60 80 58 00
        E 0 80 64 00
        E 180 90 3c 60
        E 0 90 48 60
        E 0 90 54 60
        E 0 90 60 60
        E 60 80 3c 00
        E 0 80 48 00
        E 0 80 54 00
        E 0 80 60 00
        E 180 90 55 60
        E 0 90 61 60
        E 60 80 55 00
        E 0 80 61 00
        E 180 90 4a 60
        E 0 90 56 60
        E 0 90 62 60
        E 60 80 4a 00
        E 0 80 56 00
        E 0 80 62 00
        E 180 90 55 60
        E 0 90 61 60
        E 60 80 55 00
        E 0 80 61 00
        E 180 90 3e 60
        E 0 90 4a 60
        E 0 90 56 60
        E 0 90 62 60
        E 60 80 3e 00
        E 0 80 4a 00
        E 0 80 56 00
        E 0 80 62 00
        E 180 90 57 60
        E 0 90 63 60
        E 60 80 57 00
        E 0 80 63 00
        E 180 90 3c 60
        E 0 90 48 60
        E 0 90 54 60
        E 0 90 60 60
        E 60 80 3c 00
        E 0 80 48 00
        E 0 80 54 00
        E 0 80 60 00
        E 180 90 55 60
        E 0 90 61 60
        E 60 80 55 00
        E 0 80 61 00
        E 180 90 4a 60
        E 0 90 56 60
        E 0 90 62 60
        E 60 80 4a 00
        E 0 80 56 00
        E 0 80 62 00
        E 180 90 55 60
        E 0 90 61 60
        E 60 80 55 00
        E 0 80 61 00
        E 180 90 4a 60
        E 0 90 56 60
        E 0 90 62 60
        E 60 80 4a 00
        E 0 80 56 00
        E 0 80 62 00
        E 180 90 57 60
        E 0 90 63 60
        E 60 80 57 00
        E 0 80 63 00
        E 180 90 3c 60
        E 0 90 48 60
        E 0 90 54 60
        E 0 90 60 60
        E 60 80 3c 00
        E 0 80 48 00
        E 0 80 54 00
        E 0 80 60 00
        E 180 90 55 60
        E 0 90 61 60
        E 60 80 55 00
        E 0 80 61 00
        E 180 90 4a 60
        E 0 90 56 60
        E 0 90 62 60
        E 60 80 4a 00
        E 0 80 56 00
        E 0 80 62 00
        E 180 90 55 60
        E 0 90 61 60
        E 60 80 55 00
        E 0 80 61 00
        E 180 90 3e 60
        E 0 90 4a 60
        E 0 90 56 60
        E 0 90 62 60
        E 60 80 3e 00
        E 0 80 4a 00
        E 0 80 56 00
        E 0 80 62 00
        E 180 90 57 60
        E 0 90 63 60
        E 60 80 57 00
        E 0 80 63 00
        E 180 90 3c 60
        E 0 90 48 60
        E 0 90 54 60
        E 0 90 60 60
        E 0 90 74 60
        E 60 80 3c 00
        E 0 80 48 00
        E 0 80 54 00
        E 0 80 60 00
        E 180 90 55 60
        E 0 90 61 60
        E 60 80 55 00
        E 0 80 61 00
        E 180 90 4a 60
        E 0 90 56 60
        E 0 90 62 60
        E 60 80 4a 00
        E 0 80 56 00
        E 0 80 62 00
        E 180 90 55 60
        E 0 90 61 60
        E 60 80 55 00
        E 0 80 61 00
        E 180 90 4a 60
        E 0 90 56 60
        E 0 90 62 60
        E 60 80 4a 00
        E 0 80 56 00
        E 0 80 62 00
        E 180 90 57 60
        E 0 90 63 60
        E 60 80 57 00
        E 0 80 63 00
        E 180 80 74 00
        E 0 90 3c 60
        E 0 90 48 60
        E 0 90 54 60
        E 0 90 60 60
        E 60 80 3c 00
        E 0 80 48 00
        E 0 80 54 00
        E 0 80 60 00
        E 180 90 56 60
        E 0 90 62 60
        E 60 80 56 00
        E 0 80 62 00
        E 180 90 4c 60
        E 0 90 58 60
        E 0 90 64 60
        E 60 80 4c 00
        E 0 80 58 00
        E 0 80 64 00
        E 180 90 56 60
        E 0 90 62 60
        E 60 80 56 00
        E 0 80 62 00
        E 180 90 3e 60
        E 0 90 4b 60
        E 0 90 57 60
        E 0 90 63 60
        E 60 80 3e 00
        E 0 80 4b 00
        E 0 80 57 00
        E 0 80 63 00
        E 180 90 58 60
        E 0 90 64 60
        E 60 80 58 00
        E 0 80 64 00
        E 180 90 3c 60
        E 0 90 48 60
        E 0 90 54 60
        E 0 90 60 60
        E 60 80 3c 00
        E 0 80 48 00
        E 0 80 54 00
        E 0 80 60 00
        E 180 90 56 60
        E 0 90 62 60
        E 60 80 56 00
        E 0 80 62 00
        E 180 90 4c 60
        E 0 90 58 60
        E 0 90 64 60
        E 60 80 4c 00
        E 0 80 58 00
        E 0 80 64 00
        E 180 90 56 60
        E 0 90 62 60
        E 60 80 56 00
        E 0 80 62 00
        E 180 90 4b 60
        E 0 90 57 60
        E 0 90 63 60
        E 60 80 4b 00
        E 0 80 57 00
        E 0 80 63 00
        E 180 90 58 60
        E 0 90 64 60
        E 60 80 58 00
        E 0 80 64 00
        E 180 90 3d 60
        E 0 90 49 60
        E 0 90 55 60
        E 0 90 61 60
        E 60 80 3d 00
        E 0 80 49 00
        E 0 80 55 00
        E 0 80 61 00
        E 180 90 56 60
        E 0 90 62 60
        E 60 80 56 00
        E 0 80 62 00
        E 180 90 4b 60
        E 0 90 57 60
        E 0 90 63 60
        E 60 80 4b 00
        E 0 80 57 00
        E 0 80 63 00
        E 180 90 55 60
        E 0 90 61 60
        E 60 80 55 00
        E 0 80 61 00
        E 180 90 3e 60
        E 0 90 4a 60
        E 0 90 56 60
        E 0 90 62 60
        E 60 80 3e 00
        E 0 80 4a 00
        E 0 80 56 00
        E 0 80 62 00
        E 180 90 58 60
        E 0 90 64 60
        E 60 80 58 00
        E 0 80 64 00
        E 180 90 3d 60
        E 0 90 49 60
        E 0 90 55 60
        E 0 90 61 60
        E 60 80 3d 00
        E 0 80 49 00
        E 0 80 55 00
        E 0 80 61 00
        E 180 90 56 60
        E 0 90 62 60
        E 60 80 56 00
        E 0 80 62 00
        E 180 90 4b 60
        E 0 90 57 60
        E 0 90 63 60
        E 60 80 4b 00
        E 0 80 57 00
        E 0 80 63 00
        E 180 90 55 60
        E 0 90 61 60
        E 60 80 55 00
        E 0 80 61 00
        E 180 90 4a 60
        E 0 90 56 60
        E 0 90 62 60
        E 60 80 4a 00
        E 0 80 56 00
        E 0 80 62 00
        E 180 90 58 60
        E 0 90 64 60
        E 60 80 58 00
        E 0 80 64 00
        E 180 90 3c 60
        E 0 90 48 60
        E 0 90 54 60
        E 0 90 60 60
        E 60 80 3c 00
        E 0 80 48 00
        E 0 80 54 00
        E 0 80 60 00
        E 180 90 56 60
        E 0 90 62 60
        E 60 80 56 00
        E 0 80 62 00
        E 180 90 4c 60
        E 0 90 58 60
        E 0 90 64 60
        E 60 80 4c 00
        E 0 80 58 00
        E 0 80 64 00
        E 180 90 56 60
        E 0 90 62 60
        E 60 80 56 00
        E 0 80 62 00
        E 180 90 3e 60
        E 0 90 4b 60
        E 0 90 57 60
        E 0 90 63 60
        E 60 80 3e 00
        E 0 80 4b 00
        E 0 80 57 00
        E 0 80 63 00
        E 180 90 58 60
        E 0 90 64 60
        E 60 80 58 00
        E 0 80 64 00
        E 180 90 3c 60
        E 0 90 48 60
        E 0 90 54 60
        E 0 90 60 60
        E 60 80 3c 00
        E 0 80 48 00
        E 0 80 54 00
        E 0 80 60 00
        E 180 90 56 60
        E 0 90 62 60
        E 60 80 56 00
        E 0 80 62 00
        E 180 90 4c 60
        E 0 90 58 60
        E 0 90 64 60
        E 60 80 4c 00
        E 0 80 58 00
        E 0 80 64 00
        E 180 90 56 60
        E 0 90 62 60
        E 60 80 56 00
        E 0 80 62 00
        E 180 90 4b 60
        E 0 90 57 60
        E 0 90 63 60
        E 60 80 4b 00
        E 0 80 57 00
        E 0 80 63 00
        E 180 90 58 60
        E 0 90 64 60
        E 60 80 58 00
        E 0 80 64 00
        E 180 90 3d 60
        E 0 90 49 60
        E 0 90 55 60
        E 0 90 61 60
        E 60 80 3d 00
        E 0 80 49 00
        E 0 80 55 00
        E 0 80 61 00
        E 180 90 56 60
        E 0 90 62 60
        E 60 80 56 00
        E 0 80 62 00
        E 180 90 4b 60
        E 0 90 57 60
        E 0 90 63 60
        E 60 80 4b 00
        E 0 80 57 00
        E 0 80 63 00
        E 180 90 55 60
        E 0 90 61 60
        E 60 80 55 00
        E 0 80 61 00
        E 180 90 3e 60
        E 0 90 4a 60
        E 0 90 56 60
        E 0 90 62 60
        E 60 80 3e 00
        E 0 80 4a 00
        E 0 80 56 00
        E 0 80 62 00
        E 180 90 58 60
        E 0 90 64 60
        E 60 80 58 00
        E 0 80 64 00
        E 180 90 3d 60
        E 0 90 49 60
        E 0 90 55 60
        E 0 90 61 60
        E 60 80 3d 00
        E 0 80 49 00
        E 0 80 55 00
        E 0 80 61 00
        E 180 90 56 60
        E 0 90 62 60
        E 60 80 56 00
        E 0 80 62 00
        E 180 90 4b 60
        E 0 90 57 60
        E 0 90 63 60
        E 60 80 4b 00
        E 0 80 57 00
        E 0 80 63 00
        E 180 90 55 60
        E 0 90 61 60
        E 60 80 55 00
        E 0 80 61 00
        E 180 90 4a 60
        E 0 90 56 60
        E 0 90 62 60
        E 60 80 4a 00
        E 0 80 56 00
        E 0 80 62 00
        E 180 90 58 60
        E 0 90 64 60
        E 60 80 58 00
        E 0 80 64 00
        E 180 90 3c 60
        E 0 90 48 60
        E 0 90 54 60
        E 0 90 60 60
        E 60 80 3c 00
        E 0 80 48 00
        E 0 80 54 00
        E 0 80 60 00
        E 180 90 55 60
        E 0 90 61 60
        E 60 80 55 00
        E 0 80 61 00
        E 180 90 4b 60
        E 0 90 57 60
        E 0 90 63 60
        E 60 80 4b 00
        E 0 80 57 00
        E 0 80 63 00
        E 180 90 55 60
        E 0 90 61 60
        E 60 80 55 00
        E 0 80 61 00
        E 180 90 3e 60
        E 0 90 4a 60
        E 0 90 56 60
        E 0 90 62 60
        E 60 80 3e 00
        E 0 80 4a 00
        E 0 80 56 00
        E 0 80 62 00
        E 180 90 57 60
        E 0 90 63 60
        E 60 80 57 00
        E 0 80 63 00
        E 180 90 40 60
        E 0 90 4c 60
        E 0 90 58 60
        E 0 90 64 60
        E 960 80 40 00
        E 0 80 4c 00
        E 360 80 58 00
        E 60 80 64 00
        E 60 90 3c 60
        E 0 90 48 60
        E 0 90 54 60
        E 0 90 60 60
        E 0 90 74 60
        E 60 80 3c 00
        E 0 80 48 00
        E 0 80 54 00
        E 0 80 60 00
        E 420 90 4a 60
        E 0 90 56 60
        E 0 90 62 60
        E 60 80 4a 00
        E 0 80 56 00
        E 0 80 62 00
        E 420 90 3e 60
        E 0 90 4b 60
        E 0 90 57 60
        E 0 90 63 60
        E 60 80 3e 00
        E 0 80 4b 00
        E 0 80 57 00
        E 0 80 63 00
        E 420 90 3c 60
        E 0 90 48 60
        E 0 90 54 60
        E 0 90 60 60
        E 60 80 3c 00
        E 0 80 48 00
        E 0 80 54 00
        E 0 80 60 00
        E 420 90 4a 60
        E 0 90 56 60
        E 0 90 62 60
        E 60 80 4a 00
        E 0 80 56 00
        E 0 80 62 00
        E 420 90 4b 60
        E 0 90 57 60
        E 0 90 63 60
        E 60 80 4b 00
        E 0 80 57 00
        E 0 80 63 00
        E 420 90 3c 60
        E 0 90 48 60
        E 0 90 54 60
        E 0 90 60 60
        E 60 80 3c 00
        E 0 80 48 00
        E 0 80 54 00
        E 0 80 60 00
        E 60 80 74 00
        E 360 90 4a 60
        E 0 90 56 60
        E 0 90 62 60
        E 60 80 4a 00
        E 0 80 56 00
        E 0 80 62 00
        E 420 90 3e 60
        E 0 90 4b 60
        E 0 90 57 60
        E 0 90 63 60
        E 60 80 3e 00
        E 0 80 4b 00
        E 0 80 57 00
        E 0 80 63 00
        E 420 90 3c 60
        E 0 90 48 60
        E 0 90 54 60
        E 0 90 60 60
        E 60 80 3c 00
        E 0 80 48 00
        E 0 80 54 00
        E 0 80 60 00
        E 420 90 4a 60
        E 0 90 56 60
        E 0 90 62 60
        E 60 80 4a 00
        E 0 80 56 00
        E 0 80 62 00
        E 420 90 4b 60
        E 0 90 57 60
        E 0 90 63 60
        E 60 80 4b 00
        E 0 80 57 00
        E 0 80 63 00
        E 420 90 3c 60
        E 0 90 48 60
        E 0 90 54 60
        E 0 90 60 60
        E 60 80 3c 00
        E 0 80 48 00
        E 0 80 54 00
        E 0 80 60 00
        E 420 90 4a 60
        E 0 90 56 60
        E 0 90 62 60
        E 60 80 4a 00
        E 0 80 56 00
        E 0 80 62 00
        E 420 90 3e 60
        E 0 90 4b 60
        E 0 90 57 60
        E 0 90 63 60
        E 60 80 3e 00
        E 0 80 4b 00
        E 0 80 57 00
        E 0 80 63 00
        E 420 90 3c 60
        E 0 90 48 60
        E 0 90 54 60
        E 0 90 60 60
        E 60 80 3c 00
        E 0 80 48 00
        E 0 80 54 00
        E 0 80 60 00
        E 420 90 4a 60
        E 0 90 56 60
        E 0 90 62 60
        E 60 80 4a 00
        E 0 80 56 00
        E 0 80 62 00
        E 420 90 3e 60
        E 0 90 4b 60
        E 0 90 57 60
        E 0 90 63 60
        E 60 80 3e 00
        E 0 80 4b 00
        E 0 80 57 00
        E 0 80 63 00
        E 3300 90 3d 60
        E 0 90 49 60
        E 0 90 55 60
        E 0 90 61 60
        E 60 80 3d 00
        E 0 80 49 00
        E 0 80 55 00
        E 0 80 61 00
        E 180 90 56 60
        E 0 90 62 60
        E 60 80 56 00
        E 0 80 62 00
        E 180 90 4b 60
        E 0 90 57 60
        E 0 90 63 60
        E 60 80 4b 00
        E 0 80 57 00
        E 0 80 63 00
        E 180 90 56 60
        E 0 90 62 60
        E 60 80 56 00
        E 0 80 62 00
        E 180 90 3e 60
        E 0 90 4b 60
        E 0 90 57 60
        E 0 90 63 60
        E 60 80 3e 00
        E 0 80 4b 00
        E 0 80 57 00
        E 0 80 63 00
        E 180 90 58 60
        E 0 90 64 60
        E 60 80 58 00
        E 0 80 64 00
        E 180 90 3d 60
        E 0 90 49 60
        E 0 90 55 60
        E 0 90 61 60
        E 60 80 3d 00
        E 0 80 49 00
        E 0 80 55 00
        E 0 80 61 00
        E 180 90 56 60
        E 0 90 62 60
        E 60 80 56 00
        E 0 80 62 00
        E 180 90 4b 60
        E 0 90 57 60
        E 0 90 63 60
        E 60 80 4b 00
        E 0 80 57 00
        E 0 80 63 00
        E 180 90 56 60
        E 0 90 62 60
        E 60 80 56 00
        E 0 80 62 00
        E 180 90 4b 60
        E 0 90 57 60
        E 0 90 63 60
        E 60 80 4b 00
        E 0 80 57 00
        E 0 80 63 00
        E 180 90 58 60
        E 0 90 64 60
        E 60 80 58 00
        E 0 80 64 00
        E 180 90 3d 60
        E 0 90 49 60
        E 0 90 55 60
        E 0 90 61 60
        E 60 80 3d 00
        E 0 80 49 00
        E 0 80 55 00
        E 0 80 61 00
        E 180 90 56 60
        E 0 90 62 60
        E 60 80 56 00
        E 0 80 62 00
        E 180 90 4b 60
        E 0 90 57 60
        E 0 90 63 60
        E 60 80 4b 00
        E 0 80 57 00
        E 0 80 63 00
        E 180 90 56 60
        E 0 90 62 60
        E 60 80 56 00
        E 0 80 62 00
        E 180 90 3e 60
        E 0 90 4b 60
        E 0 90 57 60
        E 0 90 63 60
        E 60 80 3e 00
        E 0 80 4b 00
        E 0 80 57 00
        E 0 80 63 00
        E 180 90 58 60
        E 0 90 64 60
        E 60 80 58 00
        E 0 80 64 00
        E 180 90 3d 60
        E 0 90 49 60
        E 0 90 55 60
        E 0 90 61 60
        E 60 80 3d 00
        E 0 80 49 00
        E 0 80 55 00
        E 0 80 61 00
        E 180 90 56 60
        E 0 90 62 60
        E 60 80 56 00
        E 0 80 62 00
        E 180 90 4b 60
        E 0 90 57 60
        E 0 90 63 60
        E 60 80 4b 00
        E 0 80 57 00
        E 0 80 63 00
        E 180 90 56 60
        E 0 90 62 60
        E 60 80 56 00
        E 0 80 62 00
        E 180 90 4b 60
        E 0 90 57 60
        E 0 90 63 60
        E 60 80 4b 00
        E 0 80 57 00
        E 0 80 63 00
        E 180 90 58 60
        E 0 90 64 60
        E 60 80 58 00
        E 0 80 64 00
        E 180 90 3d 60
        E 0 90 49 60
        E 0 90 55 60
        E 0 90 61 60
        E 60 80 3d 00
        E 0 80 49 00
        E 0 80 55 00
        E 0 80 61 00
        E 180 90 56 60
        E 0 90 62 60
        E 60 80 56 00
        E 0 80 62 00
        E 180 90 4b 60
        E 0 90 57 60
        E 0 90 63 60
        E 60 80 4b 00
        E 0 80 57 00
        E 0 80 63 00
        E 180 90 56 60
        E 0 90 62 60
        E 60 80 56 00
        E 0 80 62 00
        E 180 90 3e 60
        E 0 90 4b 60
        E 0 90 57 60
        E 0 90 63 60
        E 60 80 3e 00
        E 0 80 4b 00
        E 0 80 57 00
        E 0 80 63 00
        E 180 90 58 60
        E 0 90 64 60
        E 60 80 58 00
        E 0 80 64 00
        E 180 90 3d 60
        E 0 90 49 60
        E 0 90 55 60
        E 0 90 61 60
        E 60 80 3d 00
        E 0 80 49 00
        E 0 80 55 00
        E 0 80 61 00
        E 180 90 56 60
        E 0 90 62 60
        E 60 80 56 00
        E 0 80 62 00
        E 180 90 4b 60
        E 0 90 57 60
        E 0 90 63 60
        E 60 80 4b 00
        E 0 80 57 00
        E 0 80 63 00
        E 180 90 56 60
        E 0 90 62 60
        E 60 80 56 00
        E 0 80 62 00
        E 180 90 4b 60
        E 0 90 57 60
        E 0 90 63 60
        E 60 80 4b 00
        E 0 80 57 00
        E 0 80 63 00
        E 180 90 58 60
        E 0 90 64 60
        E 60 80 58 00
        E 0 80 64 00
        E 180 90 3c 60
        E 0 90 48 60
        E 0 90 54 60
        E 0 90 60 60
        E 60 80 3c 00
        E 0 80 48 00
        E 0 80 54 00
        E 0 80 60 00
        E 180 90 55 60
        E 0 90 61 60
        E 60 80 55 00
        E 0 80 61 00
        E 180 90 4a 60
        E 0 90 56 60
        E 0 90 62 60
        E 60 80 4a 00
        E 0 80 56 00
        E 0 80 62 00
        E 180 90 55 60
        E 0 90 61 60
        E 60 80 55 00
        E 0 80 61 00
        E 180 90 3e 60
        E 0 90 4a 60
        E 0 90 56 60
        E 0 90 62 60
        E 60 80 3e 00
        E 0 80 4a 00
        E 0 80 56 00
        E 0 80 62 00
        E 180 90 57 60
        E 0 90 63 60
        E 60 80 57 00
        E 0 80 63 00
        E 180 90 3c 60
        E 0 90 48 60
        E 0 90 54 60
        E 0 90 60 60
        E 60 80 3c 00
        E 0 80 48 00
        E 0 80 54 00
        E 0 80 60 00
        E 180 90 55 60
        E 0 90 61 60
        E 60 80 55 00
        E 0 80 61 00
        E 180 90 4a 60
        E 0 90 56 60
        E 0 90 62 60
        E 60 80 4a 00
        E 0 80 56 00
        E 0 80 62 00
        E 180 90 55 60
        E 0 90 61 60
        E 60 80 55 00
        E 0 80 61 00
        E 180 90 4a 60
        E 0 90 56 60
        E 0 90 62 60
        E 60 80 4a 00
        E 0 80 56 00
        E 0 80 62 00
        E 180 90 57 60
        E 0 90 63 60
        E 60 80 57 00
        E 0 80 63 00
        E 180 90 3c 60
        E 0 90 48 60
        E 0 90 54 60
        E 0 90 60 60
        E 60 80 3c 00
        E 0 80 48 00
        E 0 80 54 00
        E 0 80 60 00
        E 180 90 55 60
        E 0 90 61 60
        E 60 80 55 00
        E 0 80 61 00
        E 180 90 4a 60
        E 0 90 56 60
        E 0 90 62 60
        E 60 80 4a 00
        E 0 80 56 00
        E 0 80 62 00
        E 180 90 55 60
        E 0 90 61 60
        E 60 80 55 00
        E 0 80 61 00
        E 180 90 3e 60
        E 0 90 4a 60
        E 0 90 56 60
        E 0 90 62 60
        E 60 80 3e 00
        E 0 80 4a 00
        E 0 80 56 00
        E 0 80 62 00
        E 180 90 57 60
        E 0 90 63 60
        E 60 80 57 00
        E 0 80 63 00
        E 180 90 3c 60
        E 0 90 48 60
        E 0 90 54 60
        E 0 90 60 60
        E 60 80 3c 00
        E 0 80 48 00
        E 0 80 54 00
        E 0 80 60 00
        E 180 90 55 60
        E 0 90 61 60
        E 60 80 55 00
        E 0 80 61 00
        E 180 90 4a 60
        E 0 90 56 60
        E 0 90 62 60
        E 60 80 4a 00
        E 0 80 56 00
        E 0 80 62 00
        E 180 90 55 60
        E 0 90 61 60
        E 60 80 55 00
        E 0 80 61 00
        E 180 90 4a 60
        E 0 90 56 60
        E 0 90 62 60
        E 60 80 4a 00
        E 0 80 56 00
        E 0 80 62 00
        E 180 90 57 60
        E 0 90 63 60
        E 60 80 57 00
        E 0 80 63 00
        E 180 90 3d 60
        E 0 90 49 60
        E 0 90 55 60
        E 0 90 61 60
        E 60 80 3d 00
        E 0 80 49 00
        E 0 80 55 00
        E 0 80 61 00
        E 180 90 56 60
        E 0 90 62 60
        E 60 80 56 00
        E 0 80 62 00
        E 180 90 4b 60
        E 0 90 57 60
        E 0 90 63 60
        E 60 80 4b 00
        E 0 80 57 00
        E 0 80 63 00
        E 180 90 56 60
        E 0 90 62 60
        E 60 80 56 00
        E 0 80 62 00
        E 180 90 3e 60
        E 0 90 4b 60
        E 0 90 57 60
        E 0 90 63 60
        E 60 80 3e 00
        E 0 80 4b 00
        E 0 80 57 00
        E 0 80 63 00
        E 180 90 58 60
        E 0 90 64 60
        E 60 80 58 00
        E 0 80 64 00
        E 180 90 3d 60
        E 0 90 49 60
        E 0 90 55 60
        E 0 90 61 60
        E 60 80 3d 00
        E 0 80 49 00
        E 0 80 55 00
        E 0 80 61 00
        E 180 90 56 60
        E 0 90 62 60
        E 60 80 56 00
        E 0 80 62 00
        E 180 90 4b 60
        E 0 90 57 60
        E 0 90 63 60
        E 60 80 4b 00
        E 0 80 57 00
        E 0 80 63 00
        E 180 90 56 60
        E 0 90 62 60
        E 60 80 56 00
        E 0 80 62 00
        E 180 90 4b 60
        E 0 90 57 60
        E 0 90 63 60
        E 60 80 4b 00
        E 0 80 57 00
        E 0 80 63 00
        E 180 90 58 60
        E 0 90 64 60
        E 60 80 58 00
        E 0 80 64 00
        E 180 90 3d 60
        E 0 90 49 60
        E 0 90 55 60
        E 0 90 61 60
        E 60 80 3d 00
        E 0 80 49 00
        E 0 80 55 00
        E 0 80 61 00
        E 180 90 56 60
        E 0 90 62 60
        E 60 80 56 00
        E 0 80 62 00
        E 180 90 4b 60
        E 0 90 57 60
        E 0 90 63 60
        E 60 80 4b 00
        E 0 80 57 00
        E 0 80 63 00
        E 180 90 56 60
        E 0 90 62 60
        E 60 80 56 00
        E 0 80 62 00
        E 180 90 3e 60
        E 0 90 4b 60
        E 0 90 57 60
        E 0 90 63 60
        E 60 80 3e 00
        E 0 80 4b 00
        E 0 80 57 00
        E 0 80 63 00
        E 180 90 58 60
        E 0 90 64 60
        E 60 80 58 00
        E 0 80 64 00
        E 180 90 3d 60
        E 0 90 49 60
        E 0 90 55 60
        E 0 90 61 60
        E 60 80 3d 00
        E 0 80 49 00
        E 0 80 55 00
        E 0 80 61 00
        E 180 90 56 60
        E 0 90 62 60
        E 60 80 56 00
        E 0 80 62 00
        E 180 90 4b 60
        E 0 90 57 60
        E 0 90 63 60
        E 60 80 4b 00
        E 0 80 57 00
        E 0 80 63 00
        E 180 90 56 60
        E 0 90 62 60
        E 60 80 56 00
        E 0 80 62 00
        E 180 90 4b 60
        E 0 90 57 60
        E 0 90 63 60
        E 60 80 4b 00
        E 0 80 57 00
        E 0 80 63 00
        E 180 90 58 60
        E 0 90 64 60
        E 60 80 58 00
        E 0 80 64 00
        E 180 90 3c 60
        E 0 90 48 60
        E 0 90 54 60
        E 0 90 60 60
        E 60 80 3c 00
        E 0 80 48 00
        E 0 80 54 00
        E 0 80 60 00
        E 180 90 55 60
        E 0 90 61 60
        E 60 80 55 00
        E 0 80 61 00
        E 180 90 4a 60
        E 0 90 56 60
        E 0 90 62 60
        E 60 80 4a 00
        E 0 80 56 00
        E 0 80 62 00
        E 180 90 55 60
        E 0 90 61 60
        E 60 80 55 00
        E 0 80 61 00
        E 180 90 3e 60
        E 0 90 4a 60
        E 0 90 56 60
        E 0 90 62 60
        E 60 80 3e 00
        E 0 80 4a 00
        E 0 80 56 00
        E 0 80 62 00
        E 180 90 57 60
        E 0 90 63 60
        E 60 80 57 00
        E 0 80 63 00
        E 180 90 3c 60
        E 0 90 48 60
        E 0 90 54 60
        E 0 90 60 60
        E 60 80 3c 00
        E 0 80 48 00
        E 0 80 54 00
        E 0 80 60 00
        E 180 90 55 60
        E 0 90 61 60
        E 60 80 55 00
        E 0 80 61 00
        E 180 90 4a 60
        E 0 90 56 60
        E 0 90 62 60
        E 60 80 4a 00
        E 0 80 56 00
        E 0 80 62 00
        E 180 90 55 60
        E 0 90 61 60
        E 60 80 55 00
        E 0 80 61 00
        E 180 90 4a 60
        E 0 90 56 60
        E 0 90 62 60
        E 60 80 4a 00
        E 0 80 56 00
        E 0 80 62 00
        E 180 90 57 60
        E 0 90 63 60
        E 60 80 57 00
        E 0 80 63 00
        E 180 90 3c 60
        E 0 90 48 60
        E 0 90 54 60
        E 0 90 60 60
        E 60 80 3c 00
        E 0 80 48 00
        E 0 80 54 00
        E 0 80 60 00
        E 180 90 55 60
        E 0 90 61 60
        E 60 80 55 00
        E 0 80 61 00
        E 180 90 4a 60
        E 0 90 56 60
        E 0 90 62 60
        E 60 80 4a 00
        E 0 80 56 00
        E 0 80 62 00
        E 180 90 55 60
        E 0 90 61 60
        E 60 80 55 00
        E 0 80 61 00
        E 180 90 3e 60
        E 0 90 4a 60
        E 0 90 56 60
        E 0 90 62 60
        E 60 80 3e 00
        E 0 80 4a 00
        E 0 80 56 00
        E 0 80 62 00
        E 180 90 57 60
        E 0 90 63 60
        E 60 80 57 00
        E 0 80 63 00
        E 180 90 3c 60
        E 0 90 48 60
        E 0 90 54 60
        E 0 90 60 60
        E 60 80 3c 00
        E 0 80 48 00
        E 0 80 54 00
        E 0 80 60 00
        E 180 90 55 60
        E 0 90 61 60
        E 60 80 55 00
        E 0 80 61 00
        E 180 90 4a 60
        E 0 90 56 60
        E 0 90 62 60
        E 60 80 4a 00
        E 0 80 56 00
        E 0 80 62 00
        E 180 90 55 60
        E 0 90 61 60
        E 60 80 55 00
        E 0 80 61 00
        E 180 90 4a 60
        E 0 90 56 60
        E 0 90 62 60
        E 60 80 4a 00
        E 0 80 56 00
        E 0 80 62 00
        E 180 90 57 60
        E 0 90 63 60
        E 60 80 57 00
        E 0 80 63 00
        E 180 90 3c 60
        E 0 90 48 60
        E 0 90 54 60
        E 0 90 60 60
        E 60 80 3c 00
        E 0 80 48 00
        E 0 80 54 00
        E 0 80 60 00
        E 180 90 56 60
        E 0 90 62 60
        E 60 80 56 00
        E 0 80 62 00
        E 180 90 4c 60
        E 0 90 58 60
        E 0 90 64 60
        E 60 80 4c 00
        E 0 80 58 00
        E 0 80 64 00
        E 180 90 56 60
        E 0 90 62 60
        E 60 80 56 00
        E 0 80 62 00
        E 180 90 3e 60
        E 0 90 4b 60
        E 0 90 57 60
        E 0 90 63 60
        E 60 80 3e 00
        E 0 80 4b 00
        E 0 80 57 00
        E 0 80 63 00
        E 180 90 58 60
        E 0 90 64 60
        E 60 80 58 00
        E 0 80 64 00
        E 180 90 3c 60
        E 0 90 48 60
        E 0 90 54 60
        E 0 90 60 60
        E 0 90 74 60
        E 60 80 3c 00
        E 0 80 48 00
        E 0 80 54 00
        E 0 80 60 00
        E 180 90 56 60
        E 0 90 62 60
        E 60 80 56 00
        E 0 80 62 00
        E 180 90 4c 60
        E 0 90 58 60
        E 0 90 64 60
        E 60 80 4c 00
        E 0 80 58 00
        E 0 80 64 00
        E 180 90 56 60
        E 0 90 62 60
        E 60 80 56 00
        E 0 80 62 00
        E 180 90 4b 60
        E 0 90 57 60
        E 0 90 63 60
        E 60 80 4b 00
        E 0 80 57 00
        E 0 80 63 00
        E 180 90 58 60
        E 0 90 64 60
        E 60 80 58 00
        E 0 80 64 00
        E 180 90 3d 60
        E 0 90 49 60
        E 0 90 55 60
        E 0 90 61 60
        E 60 80 3d 00
        E 0 80 49 00
        E 0 80 55 00
        E 0 80 61 00
        E 180 90 56 60
        E 0 90 62 60
        E 60 80 56 00
        E 0 80 62 00
        E 180 90 4b 60
        E 0 90 57 60
        E 0 90 63 60
        E 60 80 4b 00
        E 0 80 57 00
        E 0 80 63 00
        E 180 90 55 60
        E 0 90 61 60
        E 60 80 55 00
        E 0 80 61 00
        E 180 90 3e 60
        E 0 90 4a 60
        E 0 90 56 60
        E 0 90 62 60
        E 60 80 3e 00
        E 0 80 4a 00
        E 0 80 56 00
        E 0 80 62 00
        E 180 90 58 60
        E 0 90 64 60
        E 60 80 58 00
        E 0 80 64 00
        E 180 90 3d 60
        E 0 90 49 60
        E 0 90 55 60
        E 0 90 61 60
        E 60 80 3d 00
        E 0 80 49 00
        E 0 80 55 00
        E 0 80 61 00
        E 180 90 56 60
        E 0 90 62 60
        E 60 80 56 00
        E 0 80 62 00
        E 180 90 4b 60
        E 0 90 57 60
        E 0 90 63 60
        E 60 80 4b 00
        E 0 80 57 00
        E 0 80 63 00
        E 180 90 55 60
        E 0 90 61 60
        E 60 80 55 00
        E 0 80 61 00
        E 180 90 4a 60
        E 0 90 56 60
        E 0 90 62 60
        E 60 80 4a 00
        E 0 80 56 00
        E 0 80 62 00
        E 180 90 58 60
        E 0 90 64 60
        E 60 80 58 00
        E 0 80 64 00
        E 180 80 74 00
        E 0 90 3c 60
        E 0 90 48 60
        E 0 90 54 60
        E 0 90 60 60
        E 60 80 3c 00
        E 0 80 48 00
        E 0 80 54 00
        E 0 80 60 00
        E 180 90 56 60
        E 0 90 62 60
        E 60 80 56 00
        E 0 80 62 00
        E 180 90 4c 60
        E 0 90 58 60
        E 0 90 64 60
        E 60 80 4c 00
        E 0 80 58 00
        E 0 80 64 00
        E 180 90 56 60
        E 0 90 62 60
        E 60 80 56 00
        E 0 80 62 00
        E 180 90 3e 60
        E 0 90 4b 60
        E 0 90 57 60
        E 0 90 63 60
        E 60 80 3e 00
        E 0 80 4b 00
        E 0 80 57 00
        E 0 80 63 00
        E 180 90 58 60
        E 0 90 64 60
        E 60 80 58 00
        E 0 80 64 00
        E 180 90 3c 60
        E 0 90 48 60
        E 0 90 54 60
        E 0 90 60 60
        E 60 80 3c 00
        E 0 80 48 00
        E 0 80 54 00
        E 0 80 60 00
        E 180 90 56 60
        E 0 90 62 60
        E 60 80 56 00
        E 0 80 62 00
        E 180 90 4c 60
        E 0 90 58 60
        E 0 90 64 60
        E 60 80 4c 00
        E 0 80 58 00
        E 0 80 64 00
        E 180 90 56 60
        E 0 90 62 60
        E 60 80 56 00
        E 0 80 62 00
        E 180 90 4b 60
        E 0 90 57 60
        E 0 90 63 60
        E 60 80 4b 00
        E 0 80 57 00
        E 0 80 63 00
        E 180 90 58 60
        E 0 90 64 60
        E 60 80 58 00
        E 0 80 64 00
        E 180 90 3d 60
        E 0 90 49 60
        E 0 90 55 60
        E 0 90 61 60
        E 60 80 3d 00
        E 0 80 49 00
        E 0 80 55 00
        E 0 80 61 00
        E 180 90 56 60
        E 0 90 62 60
        E 60 80 56 00
        E 0 80 62 00
        E 180 90 4b 60
        E 0 90 57 60
        E 0 90 63 60
        E 60 80 4b 00
        E 0 80 57 00
        E 0 80 63 00
        E 180 90 55 60
        E 0 90 61 60
        E 60 80 55 00
        E 0 80 61 00
        E 180 90 3e 60
        E 0 90 4a 60
        E 0 90 56 60
        E 0 90 62 60
        E 60 80 3e 00
        E 0 80 4a 00
        E 0 80 56 00
        E 0 80 62 00
        E 180 90 58 60
        E 0 90 64 60
        E 60 80 58 00
        E 0 80 64 00
        E 180 90 3d 60
        E 0 90 49 60
        E 0 90 55 60
        E 0 90 61 60
        E 60 80 3d 00
        E 0 80 49 00
        E 0 80 55 00
        E 0 80 61 00
        E 180 90 56 60
        E 0 90 62 60
        E 60 80 56 00
        E 0 80 62 00
        E 180 90 4b 60
        E 0 90 57 60
        E 0 90 63 60
        E 60 80 4b 00
        E 0 80 57 00
        E 0 80 63 00
        E 180 90 55 60
        E 0 90 61 60
        E 60 80 55 00
        E 0 80 61 00
        E 180 90 4a 60
        E 0 90 56 60
        E 0 90 62 60
        E 60 80 4a 00
        E 0 80 56 00
        E 0 80 62 00
        E 180 90 58 60
        E 0 90 64 60
        E 60 80 58 00
        E 0 80 64 00
        E 180 90 3c 60
        E 0 90 48 60
        E 0 90 54 60
        E 0 90 60 60
        E 60 80 3c 00
        E 0 80 48 00
        E 0 80 54 00
        E 0 80 60 00
        E 180 90 55 60
        E 0 90 61 60
        E 60 80 55 00
        E 0 80 61 00
        E 180 90 4b 60
        E 0 90 57 60
        E 0 90 63 60
        E 60 80 4b 00
        E 0 80 57 00
        E 0 80 63 00
        E 180 90 55 60
        E 0 90 61 60
        E 60 80 55 00
        E 0 80 61 00
        E 180 90 3e 60
        E 0 90 4a 60
        E 0 90 56 60
        E 0 90 62 60
        E 60 80 3e 00
        E 0 80 4a 00
        E 0 80 56 00
        E 0 80 62 00
        E 180 90 57 60
        E 0 90 63 60
        E 60 80 57 00
        E 0 80 63 00
        E 180 90 40 60
        E 0 90 4c 60
        E 0 90 58 60
        E 0 90 64 60
        E 960 80 40 00
        E 0 80 4c 00
        E 360 80 58 00
        E 60 80 64 00
        E 60 90 3c 60
        E 0 90 48 60
        E 0 90 54 60
        E 0 90 60 60
        E 60 80 3c 00
        E 0 80 48 00
        E 0 80 54 00
        E 0 80 60 00
        E 420 90 4a 60
        E 0 90 56 60
        E 0 90 62 60
        E 60 80 4a 00
        E 0 80 56 00
        E 0 80 62 00
        E 420 90 3e 60
        E 0 90 4b 60
        E 0 90 57 60
        E 0 90 63 60
        E 60 80 3e 00
        E 0 80 4b 00
        E 0 80 57 00
        E 0 80 63 00
        E 420 90 3c 60
        E 0 90 48 60
        E 0 90 54 60
        E 0 90 60 60
        E 60 80 3c 00
        E 0 80 48 00
        E 0 80 54 00
        E 0 80 60 00
        E 420 90 4a 60
        E 0 90 56 60
        E 0 90 62 60
        E 60 80 4a 00
        E 0 80 56 00
        E 0 80 62 00
        E 420 90 4b 60
        E 0 90 57 60
        E 0 90 63 60
        E 60 80 4b 00
        E 0 80 57 00
        E 0 80 63 00
        E 420 90 3c 60
        E 0 90 48 60
        E 0 90 54 60
        E 0 90 60 60
        E 60 80 3c 00
        E 0 80 48 00
        E 0 80 54 00
        E 0 80 60 00
        E 420 90 4a 60
        E 0 90 56 60
        E 0 90 62 60
        E 60 80 4a 00
        E 0 80 56 00
        E 0 80 62 00
        E 420 90 3e 60
        E 0 90 4b 60
        E 0 90 57 60
        E 0 90 63 60
        E 60 80 3e 00
        E 0 80 4b 00
        E 0 80 57 00
        E 0 80 63 00
        E 420 90 3c 60
        E 0 90 48 60
        E 0 90 54 60
        E 0 90 60 60
        E 60 80 3c 00
        E 0 80 48 00
        E 0 80 54 00
        E 0 80 60 00
        E 420 90 4a 60
        E 0 90 56 60
        E 0 90 62 60
        E 60 80 4a 00
        E 0 80 56 00
        E 0 80 62 00
        E 420 90 4b 60
        E 0 90 57 60
        E 0 90 63 60
        E 60 80 4b 00
        E 0 80 57 00
        E 0 80 63 00
        E 420 90 3c 60
        E 0 90 48 60
        E 0 90 54 60
        E 0 90 60 60
        E 60 80 3c 00
        E 0 80 48 00
        E 0 80 54 00
        E 0 80 60 00
        E 420 90 4a 60
        E 0 90 56 60
        E 0 90 62 60
        E 60 80 4a 00
        E 0 80 56 00
        E 0 80 62 00
        E 420 90 3e 60
        E 0 90 4b 60
        E 0 90 57 60
        E 0 90 63 60
        E 60 80 3e 00
        E 0 80 4b 00
        E 0 80 57 00
        E 0 80 63 00
        E 420 90 3c 60
        E 0 90 48 60
        E 0 90 54 60
        E 0 90 60 60
        E 60 80 3c 00
        E 0 80 48 00
        E 0 80 54 00
        E 0 80 60 00
        E 420 90 4a 60
        E 0 90 56 60
        E 0 90 62 60
        E 60 80 4a 00
        E 0 80 56 00
        E 0 80 62 00
        E 420 90 3e 60
        E 0 90 4b 60
        E 0 90 57 60
        E 0 90 63 60
        E 60 80 3e 00
        E 0 80 4b 00
        E 0 80 57 00
        E 0 80 63 00
        E 6180 b0 7b 00
        GUID {245D4970-7C79-4664-8D8C-3CDF7E977F59}
        IGNTEMPO 0 120.00000000 4 4
        SRCCOLOR 134
        VELLANE 132 128 60
        COLORMAP "C:\Program Files\REAPER (x64)\Data\color_maps\rockband_guitarbass.png"
        CFGEDITVIEW 22484.247611 111.419983 10 12 0 0 0
        CFGEDIT 1 1 0 1 1 0 1 1 1 1 1 0.25000000 -8 -8 1370 736 0 2 1 1 0.00000000 0 1 0 0 0.500000 0 0 1.000000 64
        KEYSNAP 0 3 "102034050607" 0 "Major"
        EVTFILTER 0 -1 -1 -1 -1 0 1 0 0 -1.00000000 -1.00000000
      >
    >
  >
  <TRACK '{A3824492-A9A6-498C-AB22-41C6D2979F42}'
    NAME "bass"
    PEAKCOL 16576
    BEAT -1
    AUTOMODE 0
    VOLPAN 1.00000000000000 0.00000000000000 -1.00000000000000 -1.00000000000000 1.00000000000000
    MUTESOLO 0 0 0
    IPHASE 0
    ISBUS 2 -1
    BUSCOMP 0 0
    SHOWINMIX 1 0.666700 0.500000 1 0.500000 -1 -1 -1
    FREEMODE 0
    SEL 0
    REC 0 0 0 0 0 0 0
    VU 2
    TRACKHEIGHT 0 0
    INQ 0 0 0 0.5000000000 100 0 0 100
    NCHAN 2
    FX 1
    TRACKID {A3824492-A9A6-498C-AB22-41C6D2979F42}
    PERF 0
    MIDIOUT -1
    MAINSEND 1 0
    <ITEM
      POSITION 0.00000000000000
      SNAPOFFS 0.00000000000000
      LENGTH 151.98097505668935
      LOOP 0
      ALLTAKES 0
      SEL 0
      FADEIN 1 0.000000 0.000000 1 0
      FADEOUT 1 0.000000 0.000000 1 0
      MUTE 0
      IGUID {61DEC780-6E59-46C2-9894-A6CB8990D49B}
      IID 24
      NAME "bass.wav"
      VOLPAN 1.000000 0.000000 1.000000 -1.000000
      SOFFS 0.00000000000000
      PLAYRATE 1.00000000000000 1 0.00000000000000 -1
      CHANMODE 0
      GUID {2F900189-D464-4A93-B959-D0A94C56BB15}
      <SOURCE WAVE
        FILE "wav\bass.wav"
      >
    >
  >
  <TRACK '{6004383A-8C85-4372-84D3-13B81BB9DB5D}'
    NAME "PART REAL_KEYS_X"
    PEAKCOL 16576
    BEAT -1
    AUTOMODE 0
    VOLPAN 1.00000000000000 0.00000000000000 -1.00000000000000 -1.00000000000000 1.00000000000000
    MUTESOLO 0 0 0
    IPHASE 0
    ISBUS 1 1
    BUSCOMP 0 0
    SHOWINMIX 1 0.666700 0.500000 1 0.500000 -1 -1 -1
    FREEMODE 0
    SEL 1
    REC 0 0 0 0 0 0 0
    VU 2
    TRACKHEIGHT 0 0
    INQ 0 0 0 0.5000000000 100 0 0 100
    NCHAN 2
    FX 0
    TRACKID {6004383A-8C85-4372-84D3-13B81BB9DB5D}
    PERF 0
    MIDIOUT -1
    <MIDINOTENAMES
      0 127 "TRILL MARKER"
      0 126 "GLISSANDO MARKER"
      0 125 "---"
      0 116 "OVERDRIVE"
      0 115 "SOLO"
      0 114 "---"
      0 72 "Highest playable note B#3"
      0 71 "B3"
      0 70 "A#3"
      0 69 "A3"
      0 68 "G#3"
      0 67 "G3"
      0 66 "F#3"
      0 65 "F3"
      0 64 "E3"
      0 63 "D#3"
      0 62 "D3"
      0 61 "C#3"
      0 60 "C3"
      0 59 "B2"
      0 58 "A#2"
      0 57 "A2"
      0 56 "G#2"
      0 55 "G2"
      0 54 "F#2"
      0 53 "F2"
      0 52 "E2"
      0 51 "D#2"
      0 50 "D2"
      0 49 "C#2"
      0 48 "Lowest playable note C2"
      0 10 "---"
      0 9 "Range A2-C4"
      0 8 "Range"
      0 7 "Range"
      0 6 "Range"
      0 5 "Range F2-A3"
      0 4 "Range"
      0 3 "Range"
      0 2 "Range"
      0 1 "Range"
      0 0 "Range C2-E3"
    >
    MAINSEND 1 0
    <FXCHAIN
      WNDRECT 0 43 655 467
      SHOW 0
      LASTSEL 1
      DOCKED 0
      BYPASS 0 0
      <JS "MIDI/midi_note_filter" ""
        48.000000 72.000000 - - - - - - - - - - - - - - - - - - - - - - - - - - - - - - - - - - - - - - - - - - - - - - - - - - - - - - - - - - - - - - 
      >
      FLOATPOS 0 0 0 0
      FXID {57233E2A-1CC0-419A-99EF-C0DCD05D1CA0}
      WAK 0
      BYPASS 0 0
      <VST "VSTi: ReaSynth (Cockos)" "reasynth.dll" 0 ""
        eXNlcu9e7f4AAAAAAgAAAAEAAAAAAAAAAgAAAAAAAAA4AAAAAAAAAA==
        AAAQAO++rd4N8K3eppvEO0QvRj0AAIA/AAAAAAAAAADL9wI96WeIPQ==
        AAAAAAAAAD8AAIA/AACAPwAAAD8AABAAAAA=
      >
      FLOATPOS 0 0 0 0
      FXID {0A0D8497-5BCF-4D6A-BF4A-DC76B74BD699}
      WAK 0
    >
    <ITEM
      POSITION 0.00000000000000
      SNAPOFFS 0.00000000000000
      LENGTH 151.98097262100958
      LOOP 0
      ALLTAKES 0
      SEL 1
      FADEIN 1 0.000000 0.000000 1 0
      FADEOUT 1 0.000000 0.000000 1 0
      MUTE 0
      IGUID {4D1F90B0-326E-4F56-80C4-C6CD3065DCCF}
      IID 96
      NAME "PART REAL_KEYS_X"
      VOLPAN 1.000000 0.000000 1.000000 -1.000000
      SOFFS 0.00000000000000 0.00000000000000
      PLAYRATE 1.00000000000000 1 0.00000000000000 -1
      CHANMODE 0
      GUID {6B80DAA6-FA38-4B21-AB45-B94AD758CE4A}
      <SOURCE MIDI
        HASDATA 1 480 QN
        POOLEDEVTS {952E7C7E-2062-4D60-BF7B-D4EDD1F0575A}
        <X 0 0
          /wNQQVJUIFJFQUxfS0VZU19Y
        >
        E 0 90 00 60
        E 60 80 00 00
        <X 5700 0
          /wFbYmVnaW5fa2V5IHNvbmdfdHJhaW5lcl9rZXlfMV0=
        >
        E 0 90 30 60
        E 900 80 30 00
        E 60 90 3c 60
        E 420 80 3c 00
        E 60 90 3b 60
        E 900 80 3b 00
        E 60 90 37 60
        E 420 80 37 00
        <X 60 0
          /wFba2V5X25vcm0gc29uZ190cmFpbmVyX2tleV8xXQ==
        >
        E 0 90 39 60
        E 1380 80 39 00
        E 60 90 32 60
        E 900 80 32 00
        E 60 90 37 60
        E 420 80 37 00
        E 60 90 40 60
        E 1380 80 40 00
        E 60 90 39 60
        E 900 80 39 00
        E 60 90 3e 60
        E 420 80 3e 00
        E 60 90 3b 60
        E 0 90 74 60
        E 1260 80 3b 00
        E 180 90 37 60
        E 1380 80 37 00
        <X 60 0
          /wFbZW5kX2tleSBzb25nX3RyYWluZXJfa2V5XzFd
        >
        <X 0 0
          /wFbYmVnaW5fa2V5IHNvbmdfdHJhaW5lcl9rZXlfMl0=
        >
        E 0 80 74 00
        E 0 90 30 60
        E 900 80 30 00
        E 60 90 3c 60
        E 421 80 3c 00
        E 60 90 3b 60
        E 900 80 3b 00
        E 60 90 37 60
        E 420 80 37 00
        <X 59 0
          /wFba2V5X25vcm0gc29uZ190cmFpbmVyX2tleV8yXQ==
        >
        E 1 90 39 60
        E 1380 80 39 00
        E 59 90 3b 7f
        E 420 80 3b 00
        E 60 90 3c 7f
        E 420 80 3c 00
        E 60 90 3e 7f
        E 420 80 3e 00
        E 60 90 40 7f
        E 1380 80 40 00
        E 60 90 39 7f
        E 0 90 74 60
        E 900 80 39 00
        E 60 90 3e 7f
        E 420 80 3e 00
        E 60 90 3b 7f
        E 480 80 74 00
        E 1440 80 3b 00
        <X 960 0
          /wFbZW5kX2tleSBzb25nX3RyYWluZXJfa2V5XzJd
        >
        <X 0 0
          /wFbYmVnaW5fa2V5IHNvbmdfdHJhaW5lcl9rZXlfM10=
        >
        E 0 90 09 7f
        E 60 80 09 00
        E 1620 90 3a 7f
        E 60 80 3a 00
        E 180 90 3d 7f
        E 60 80 3d 00
        E 180 90 3f 7f
        E 60 80 3f 00
        E 180 90 44 7f
        E 60 80 44 00
        E 180 90 46 7f
        E 60 80 46 00
        <X 180 0
          /wFba2V5X25vcm0gc29uZ190cmFpbmVyX2tleV8zXQ==
        >
        E 0 90 47 7f
        E 900 80 47 00
        E 60 90 42 7f
        E 60 80 42 00
        E 180 90 40 7f
        E 60 80 40 00
        E 180 90 42 7f
        E 660 80 42 00
        E 60 90 3f 7f
        E 60 80 3f 00
        E 180 90 44 7f
        E 420 80 44 00
        E 60 90 46 7f
        E 960 80 46 00
        E 240 90 44 7f
        E 60 80 44 00
        E 180 90 3f 7f
        E 1380 80 3f 00
        <X 60 0
          /wFbZW5kX2tleSBzb25nX3RyYWluZXJfa2V5XzNd
        >
        <X 0 0
          /wFbYmVnaW5fa2V5IHNvbmdfdHJhaW5lcl9rZXlfNF0=
        >
        E 0 90 3d 7f
        E 900 80 3d 00
        E 60 90 42 7f
        E 420 80 42 00
        E 60 90 3f 7f
        <X 480 0
          /wFba2V5X25vcm0gc29uZ190cmFpbmVyX2tleV80XQ==
        >
        E 900 80 3f 00
        E 60 90 3e 7f
        E 900 80 3e 00
        E 60 90 40 7f
        E 420 80 40 00
        E 60 90 43 7f
        E 1380 80 43 00
        <X 60 0
          /wFbYmVnaW5fa2V5IHNvbmdfdHJhaW5lcl9rZXlfNV0=
        >
        <X 0 0
          /wFbZW5kX2tleSBzb25nX3RyYWluZXJfa2V5XzRd
        >
        E 0 90 47 7f
        E 60 80 47 00
        E 180 90 48 7f
        E 60 80 48 00
        E 180 90 47 7f
        E 60 80 47 00
        E 180 90 43 7f
        E 60 80 43 00
        E 180 90 45 7f
        E 60 80 45 00
        E 180 90 40 7f
        E 60 80 40 00
        E 180 90 43 7f
        <X 480 0
          /wFba2V5X25vcm0gc29uZ190cmFpbmVyX2tleV81XQ==
        >
        E 420 80 43 00
        E 60 90 45 7f
        E 420 80 45 00
        E 60 90 42 7f
        E 1380 80 42 00
        E 60 90 3e 7f
        E 1380 80 3e 00
        <X 60 0
          /wFbZW5kX2tleSBzb25nX3RyYWluZXJfa2V5XzVd
        >
        E 0 90 47 7f
        E 60 80 47 00
        E 180 90 48 7f
        E 60 80 48 00
        E 180 90 47 7f
        E 60 80 47 00
        E 180 90 43 7f
        E 60 80 43 00
        E 180 90 45 7f
        E 60 80 45 00
        E 180 90 40 7f
        E 60 80 40 00
        E 180 90 43 7f
        E 900 80 43 00
        E 60 90 45 7f
        E 420 80 45 00
        E 60 90 42 7f
        E 1380 80 42 00
        E 60 90 3e 7f
        E 1380 80 3e 00
        E 60 90 00 60
        E 60 80 00 00
        E 2820 90 30 60
        E 0 90 74 60
        E 900 80 30 00
        E 60 90 3c 60
        E 420 80 3c 00
        E 60 90 3b 60
        E 900 80 3b 00
        E 60 90 37 60
        E 420 80 37 00
        E 60 90 39 60
        E 120 80 74 00
        E 1260 80 39 00
        E 60 90 32 60
        E 900 80 32 00
        E 60 90 37 60
        E 420 80 37 00
        E 60 90 40 60
        E 1380 80 40 00
        E 60 90 39 60
        E 900 80 39 00
        E 60 90 3e 60
        E 420 80 3e 00
        E 60 90 3b 60
        E 1260 80 3b 00
        E 180 90 37 60
        E 1380 80 37 00
        E 60 90 30 60
        E 900 80 30 00
        E 60 90 3c 60
        E 421 80 3c 00
        E 60 90 3b 60
        E 900 80 3b 00
        E 60 90 37 60
        E 420 80 37 00
        E 60 90 39 60
        E 1380 80 39 00
        E 59 90 3b 7f
        E 420 80 3b 00
        E 60 90 3c 7f
        E 420 80 3c 00
        E 60 90 3e 7f
        E 420 80 3e 00
        E 60 90 40 7f
        E 1380 80 40 00
        E 60 90 39 7f
        E 900 80 39 00
        E 60 90 3e 7f
        E 420 80 3e 00
        E 60 90 3b 7f
        E 1920 80 3b 00
        E 960 90 09 7f
        E 60 80 09 00
        E 1380 90 74 60
        E 240 90 3a 7f
        E 60 80 3a 00
        E 180 90 3d 7f
        E 60 80 3d 00
        E 180 90 3f 7f
        E 60 80 3f 00
        E 180 90 44 7f
        E 60 80 44 00
        E 180 90 46 7f
        E 60 80 46 00
        E 180 90 47 7f
        E 900 80 47 00
        E 60 90 42 7f
        E 60 80 42 00
        E 180 90 40 7f
        E 60 80 40 00
        E 180 90 42 7f
        E 660 80 42 00
        E 60 90 3f 7f
        E 60 80 3f 00
        E 180 90 44 7f
        E 420 80 44 00
        E 60 80 74 00
        E 0 90 46 7f
        E 960 80 46 00
        E 240 90 44 7f
        E 60 80 44 00
        E 180 90 3f 7f
        E 1380 80 3f 00
        E 60 90 3d 7f
        E 900 80 3d 00
        E 60 90 42 7f
        E 420 80 42 00
        E 60 90 3f 7f
        E 1380 80 3f 00
        E 60 90 3e 7f
        E 900 80 3e 00
        E 60 90 40 7f
        E 420 80 40 00
        E 60 90 43 7f
        E 1380 80 43 00
        E 60 90 47 7f
        E 60 80 47 00
        E 180 90 48 7f
        E 60 80 48 00
        E 180 90 47 7f
        E 60 80 47 00
        E 180 90 43 7f
        E 60 80 43 00
        E 180 90 45 7f
        E 60 80 45 00
        E 180 90 40 7f
        E 60 80 40 00
        E 180 90 43 7f
        E 900 80 43 00
        E 60 90 45 7f
        E 420 80 45 00
        E 60 90 42 7f
        E 1380 80 42 00
        E 60 90 3e 7f
        E 1380 80 3e 00
        E 60 90 47 7f
        E 60 80 47 00
        E 180 90 48 7f
        E 60 80 48 00
        E 180 90 47 7f
        E 60 80 47 00
        E 180 90 43 7f
        E 60 80 43 00
        E 180 90 45 7f
        E 60 80 45 00
        E 180 90 40 7f
        E 60 80 40 00
        E 180 90 43 7f
        E 900 80 43 00
        E 60 90 45 7f
        E 420 80 45 00
        E 60 90 42 7f
        E 1380 80 42 00
        E 60 90 3e 7f
        E 1440 80 3e 00
        E 2880 b0 7b 00
        GUID {8AF36AB4-1FD6-4CDE-825C-F7466101678E}
        IGNTEMPO 0 120.00000000 4 4
        SRCCOLOR 136
        VELLANE 132 128 60
        COLORMAP "C:\Program Files\REAPER (x64)\Data\color_maps\rockband_guitarbass.png"
        TEXTSTRINGFILE "C:\Program Files\REAPER (x64)\Data\Text_Strings\Text Events List - PRO Trainers.txt"
        CFGEDITVIEW -7010.448611 7.395663 0 12 0 0 0
        CFGEDIT 1 1 0 1 1 0 1 1 1 1 1 0.25000000 -8 -8 1370 736 0 2 1 1 0.00000000 0 1 0 0 0.500000 0 0 1.000000 64
        KEYSNAP 0 3 "102034050607" 0 "Major"
        EVTFILTER 0 -1 -1 -1 -1 0 1 0 0 -1.00000000 -1.00000000
      >
    >
  >
  <TRACK '{8EA1210B-B4BE-4C7C-B1FA-6287539F42BB}'
    NAME "keys"
    PEAKCOL 16576
    BEAT -1
    AUTOMODE 0
    VOLPAN 1.00000000000000 0.00000000000000 -1.00000000000000 -1.00000000000000 1.00000000000000
    MUTESOLO 0 0 0
    IPHASE 0
    ISBUS 2 -1
    BUSCOMP 0 0
    SHOWINMIX 1 0.666700 0.500000 1 0.500000 -1 -1 -1
    FREEMODE 0
    SEL 0
    REC 0 0 0 0 0 0 0
    VU 2
    TRACKHEIGHT 0 0
    INQ 0 0 0 0.5000000000 100 0 0 100
    NCHAN 2
    FX 1
    TRACKID {8EA1210B-B4BE-4C7C-B1FA-6287539F42BB}
    PERF 0
    MIDIOUT -1
    MAINSEND 1 0
    <ITEM
      POSITION 0.00000000000000
      SNAPOFFS 0.00000000000000
      LENGTH 151.98097505668935
      LOOP 0
      ALLTAKES 0
      SEL 0
      FADEIN 1 0.000000 0.000000 1 0
      FADEOUT 1 0.000000 0.000000 1 0
      MUTE 0
      IGUID {B99D9490-5615-4819-9E38-9795159E364B}
      IID 25
      NAME "keys.wav"
      VOLPAN 1.000000 0.000000 1.000000 -1.000000
      SOFFS 0.00000000000000
      PLAYRATE 1.00000000000000 1 0.00000000000000 -1
      CHANMODE 0
      GUID {E6BE1701-E1C5-4ACE-8FED-7976815CEFB8}
      <SOURCE WAVE
        FILE "wav\keys.wav"
      >
    >
  >
  <TRACK '{1CB80D08-25F3-47A2-BA13-820C0F2503F4}'
    NAME "PART REAL_BASS"
    PEAKCOL 16576
    BEAT -1
    AUTOMODE 0
    VOLPAN 1.00000000000000 0.00000000000000 -1.00000000000000 -1.00000000000000 1.00000000000000
    MUTESOLO 0 0 0
    IPHASE 0
    ISBUS 0 0
    BUSCOMP 0 0
    SHOWINMIX 1 0.666700 0.500000 1 0.500000 -1 -1 -1
    FREEMODE 0
    SEL 0
    REC 0 0 0 0 0 0 0
    VU 2
    TRACKHEIGHT 0 0
    INQ 0 0 0 0.5000000000 100 0 0 100
    NCHAN 2
    FX 1
    TRACKID {1CB80D08-25F3-47A2-BA13-820C0F2503F4}
    PERF 0
    MIDIOUT -1
    MAINSEND 1 0
    <FXCHAIN
      WNDRECT 450 100 655 467
      SHOW 0
      LASTSEL 2
      DOCKED 0
      BYPASS 0 0
      <JS "c3/progtr" ""
        0.000000 3.000000 0.000000 0.000000 0.000000 0.000000 0.000000 0.000000 0.000000 1.000000 - - - - - - - - - - - - - - - - - - - - - - - - - - - - - - - - - - - - - - - - - - - - - - - - - - - - - - 
      >
      FLOATPOS 0 0 0 0
      FXID {5E7D4F58-452A-41CF-BBA2-EC2BB25309A3}
      WAK 0
      BYPASS 0 0
      <JS "MIDI/midi_transpose" ""
        -12.000000 1.000000 0.000000 127.000000 - - - - - - - - - - - - - - - - - - - - - - - - - - - - - - - - - - - - - - - - - - - - - - - - - - - - - - - - - - - - 
      >
      FLOATPOS 0 0 0 0
      FXID {3066DFCF-777B-4170-99FA-74A14A241CBE}
      WAK 0
      BYPASS 0 0
      <VST "VSTi: ReaSynth (Cockos)" "reasynth.dll" 0 ""
        eXNlcu9e7f4AAAAAAgAAAAEAAAAAAAAAAgAAAAAAAAA4AAAAAAAAAA==
        AAAQAO++rd4N8K3eppvEO3o6mD0AAAAAAAAAAAAAgD8AAIA/4jAEPA==
        AAAAAAAAAD+01hM+j8L1PQAAAD8AABAAAAA=
      >
      FLOATPOS 0 0 0 0
      FXID {BA458AD6-8DF9-403A-A12F-27F5E300304B}
      WAK 0
    >
    <ITEM
      POSITION 0.00000000000000
      SNAPOFFS 0.00000000000000
      LENGTH 151.98097262100958
      LOOP 0
      ALLTAKES 0
      SEL 0
      FADEIN 1 0.000000 0.000000 1 0
      FADEOUT 1 0.000000 0.000000 1 0
      MUTE 0
      IGUID {C66C87C8-320E-4345-A975-BB8B5AD17B63}
      IID 97
      NAME "PART REAL_BASS"
      VOLPAN 1.000000 0.000000 1.000000 -1.000000
      SOFFS 0.00000000000000 0.00000000000000
      PLAYRATE 1.00000000000000 1 0.00000000000000 -1
      CHANMODE 0
      GUID {C00E4F51-5B10-49FA-B096-F3426DDE4BA0}
      <SOURCE MIDI
        HASDATA 1 480 QN
        POOLEDEVTS {B0339580-D0B2-4BCC-9A28-3D0E0E5E21E7}
        <X 0 0
          /wNQQVJUIFJFQUxfQkFTUw==
        >
        E 2880 90 60 71
        E 0 90 6c 71
        E 120 80 60 00
        E 0 80 6c 00
        E 120 90 60 73
        E 120 80 60 00
        E 120 90 61 73
        E 0 90 6c 73
        E 120 80 61 00
        E 0 80 6c 00
        E 120 90 61 75
        E 120 80 61 00
        E 120 90 62 75
        E 120 80 62 00
        E 120 90 63 75
        E 120 80 63 00
        E 120 90 60 71
        E 0 90 6c 71
        E 120 80 60 00
        E 0 80 6c 00
        E 120 90 60 73
        E 120 80 60 00
        E 120 90 61 73
        E 0 90 6c 73
        E 120 80 61 00
        E 0 80 6c 00
        E 120 90 61 75
        E 120 80 61 00
        E 120 90 62 75
        E 120 80 62 00
        E 120 90 63 75
        E 120 80 63 00
        E 120 90 60 71
        E 0 90 6c 71
        E 120 80 60 00
        E 0 80 6c 00
        E 120 90 60 73
        E 120 80 60 00
        E 120 90 61 73
        E 0 90 6c 73
        E 120 80 61 00
        E 0 80 6c 00
        E 120 90 61 75
        E 120 80 61 00
        E 120 90 62 75
        E 120 80 62 00
        E 120 90 63 75
        E 120 80 63 00
        E 120 90 60 71
        E 0 90 6c 71
        E 120 80 60 00
        E 0 80 6c 00
        E 120 90 60 73
        E 120 80 60 00
        E 120 90 61 73
        E 0 90 6c 73
        E 120 80 61 00
        E 0 80 6c 00
        E 120 90 61 75
        E 120 80 61 00
        E 120 90 62 75
        E 120 80 62 00
        E 120 90 63 75
        E 120 80 63 00
        E 120 90 60 71
        E 0 90 6c 71
        E 120 80 60 00
        E 0 80 6c 00
        E 120 90 60 73
        E 120 80 60 00
        E 120 90 61 73
        E 0 90 6c 73
        E 120 80 61 00
        E 0 80 6c 00
        E 120 90 61 75
        E 120 80 61 00
        E 120 90 62 75
        E 120 80 62 00
        E 120 90 63 75
        E 120 80 63 00
        E 120 90 60 71
        E 0 90 6c 71
        E 120 80 60 00
        E 0 80 6c 00
        E 120 90 60 73
        E 120 80 60 00
        E 120 90 61 73
        E 0 90 6c 73
        E 120 80 61 00
        E 0 80 6c 00
        E 120 90 61 75
        E 120 80 61 00
        E 120 90 62 75
        E 120 80 62 00
        E 120 90 63 75
        E 120 80 63 00
        E 120 90 60 6c
        E 0 90 6c 6c
        E 120 80 60 00
        E 0 80 6c 00
        E 120 90 61 6e
        E 0 90 6c 6e
        E 120 80 61 00
        E 0 80 6c 00
        E 120 90 61 70
        E 120 80 61 00
        E 120 90 62 6e
        E 120 80 62 00
        E 120 90 62 70
        E 120 80 62 00
        E 120 90 63 70
        E 120 80 63 00
        E 120 90 60 6c
        E 0 90 6c 6c
        E 120 80 60 00
        E 0 80 6c 00
        E 120 90 61 6e
        E 0 90 6c 6e
        E 120 80 61 00
        E 0 80 6c 00
        E 120 90 61 70
        E 120 80 61 00
        E 120 90 62 6e
        E 120 80 62 00
        E 120 90 62 70
        E 120 80 62 00
        E 120 90 63 70
        E 120 80 63 00
        E 120 90 60 6c
        E 0 90 6c 6c
        E 120 80 60 00
        E 0 80 6c 00
        E 120 90 61 6e
        E 0 90 6c 6e
        E 120 80 61 00
        E 0 80 6c 00
        E 120 90 61 70
        E 120 80 61 00
        E 120 90 62 6e
        E 120 80 62 00
        E 120 90 62 70
        E 120 80 62 00
        E 120 90 63 70
        E 120 80 63 00
        E 120 90 60 6c
        E 0 90 6c 6c
        E 120 80 60 00
        E 0 80 6c 00
        E 120 90 61 6e
        E 0 90 6c 6e
        E 120 80 61 00
        E 0 80 6c 00
        E 120 90 61 70
        E 120 80 61 00
        E 120 90 62 6e
        E 120 80 62 00
        E 120 90 62 70
        E 120 80 62 00
        E 120 90 63 70
        E 120 80 63 00
        E 120 90 60 71
        E 0 90 6c 71
        E 120 80 60 00
        E 0 80 6c 00
        E 120 90 60 73
        E 120 80 60 00
        E 120 90 61 73
        E 0 90 6c 73
        E 120 80 61 00
        E 0 80 6c 00
        E 120 90 61 75
        E 120 80 61 00
        E 120 90 62 75
        E 120 80 62 00
        E 120 90 63 75
        E 120 80 63 00
        E 120 90 60 71
        E 0 90 6c 71
        E 120 80 60 00
        E 0 80 6c 00
        E 120 90 60 73
        E 120 80 60 00
        E 120 90 61 73
        E 0 90 6c 73
        E 120 80 61 00
        E 0 80 6c 00
        E 120 90 61 75
        E 120 80 61 00
        E 120 90 62 75
        E 120 80 62 00
        E 120 90 63 75
        E 120 80 63 00
        E 120 90 60 71
        E 0 90 6c 71
        E 120 80 60 00
        E 0 80 6c 00
        E 120 90 60 73
        E 120 80 60 00
        E 120 90 61 73
        E 0 90 6c 73
        E 120 80 61 00
        E 0 80 6c 00
        E 120 90 61 75
        E 120 80 61 00
        E 120 90 62 75
        E 120 80 62 00
        E 120 90 63 75
        E 120 80 63 00
        E 120 90 60 71
        E 0 90 6c 71
        E 120 80 60 00
        E 0 80 6c 00
        E 120 90 60 73
        E 120 80 60 00
        E 120 90 61 73
        E 0 90 6c 73
        E 120 80 61 00
        E 0 80 6c 00
        E 120 90 61 75
        E 120 80 61 00
        E 120 90 62 75
        E 120 80 62 00
        E 120 90 63 75
        E 120 80 63 00
        E 120 90 60 6c
        E 0 90 6c 6c
        E 120 80 60 00
        E 0 80 6c 00
        E 120 90 61 6e
        E 0 90 6c 6e
        E 120 80 61 00
        E 0 80 6c 00
        E 120 90 61 70
        E 120 80 61 00
        E 120 90 62 6e
        E 120 80 62 00
        E 120 90 62 70
        E 120 80 62 00
        E 120 90 63 70
        E 120 80 63 00
        E 120 90 60 6c
        E 0 90 6c 6c
        E 120 80 60 00
        E 0 80 6c 00
        E 120 90 61 6e
        E 0 90 6c 6e
        E 120 80 61 00
        E 0 80 6c 00
        E 120 90 61 70
        E 120 80 61 00
        E 120 90 62 6e
        E 120 80 62 00
        E 120 90 62 70
        E 120 80 62 00
        E 120 90 63 70
        E 120 80 63 00
        E 120 90 60 6c
        E 0 90 6c 6c
        E 120 80 60 00
        E 0 80 6c 00
        E 120 90 61 6e
        E 0 90 6c 6e
        E 120 80 61 00
        E 0 80 6c 00
        E 120 90 61 70
        E 120 80 61 00
        E 120 90 62 6e
        E 120 80 62 00
        E 120 90 62 70
        E 120 80 62 00
        E 120 90 63 70
        E 120 80 63 00
        E 120 90 60 6c
        E 0 90 6c 6c
        E 120 80 60 00
        E 0 80 6c 00
        E 120 90 61 6e
        E 0 90 6c 6e
        E 120 80 61 00
        E 0 80 6c 00
        E 120 90 61 70
        E 120 80 61 00
        E 120 90 62 6e
        E 120 80 62 00
        E 120 90 62 70
        E 120 80 62 00
        E 120 90 63 70
        E 120 80 63 00
        E 120 90 60 6f
        E 0 90 6c 6f
        E 120 80 60 00
        E 0 80 6c 00
        E 120 90 61 6f
        E 120 80 61 00
        E 120 90 61 71
        E 120 80 61 00
        E 120 90 62 71
        E 0 90 6c 70
        E 120 80 62 00
        E 0 80 6c 00
        E 120 90 63 71
        E 120 80 63 00
        E 120 90 63 73
        E 120 80 63 00
        E 120 90 60 6f
        E 0 90 6c 6f
        E 120 80 60 00
        E 0 80 6c 00
        E 120 90 61 6f
        E 120 80 61 00
        E 120 90 61 71
        E 120 80 61 00
        E 120 90 62 71
        E 0 90 6c 70
        E 120 80 62 00
        E 0 80 6c 00
        E 120 90 63 71
        E 120 80 63 00
        E 120 90 63 73
        E 120 80 63 00
        E 120 90 60 70
        E 0 90 6c 6f
        E 120 80 60 00
        E 0 80 6c 00
        E 120 90 61 6f
        E 120 80 61 00
        E 120 90 61 72
        E 120 80 61 00
        E 120 90 62 71
        E 0 90 6c 71
        E 120 80 62 00
        E 0 80 6c 00
        E 120 90 62 72
        E 120 80 62 00
        E 120 90 63 71
        E 120 80 63 00
        E 120 90 60 70
        E 0 90 6c 6f
        E 120 80 60 00
        E 0 80 6c 00
        E 120 90 61 6f
        E 120 80 61 00
        E 120 90 61 72
        E 120 80 61 00
        E 120 90 62 71
        E 0 90 6c 71
        E 120 80 62 00
        E 0 80 6c 00
        E 120 90 62 72
        E 120 80 62 00
        E 120 90 63 71
        E 120 80 63 00
        E 120 90 60 6f
        E 0 90 6c 6f
        E 120 80 60 00
        E 0 80 6c 00
        E 120 90 61 6f
        E 10 b2 5b 00
        E 10 b2 5d 00
        E 0 b2 65 00
        E 0 b2 64 00
        E 100 80 61 00
        E 120 90 61 71
        E 120 80 61 00
        E 120 90 62 71
        E 0 90 6c 70
        E 120 80 62 00
        E 0 80 6c 00
        E 120 90 63 71
        E 120 80 63 00
        E 120 90 63 73
        E 120 80 63 00
        E 120 90 60 6f
        E 0 90 6c 6f
        E 120 80 60 00
        E 0 80 6c 00
        E 120 90 61 6f
        E 120 80 61 00
        E 120 90 61 71
        E 120 80 61 00
        E 120 90 62 71
        E 0 90 6c 70
        E 120 80 62 00
        E 0 80 6c 00
        E 120 90 63 71
        E 120 80 63 00
        E 120 90 63 73
        E 120 80 63 00
        E 120 90 60 70
        E 0 90 6c 6f
        E 120 80 60 00
        E 0 80 6c 00
        E 120 90 61 6f
        E 120 80 61 00
        E 120 90 61 72
        E 120 80 61 00
        E 120 90 62 71
        E 0 90 6c 71
        E 120 80 62 00
        E 0 80 6c 00
        E 120 90 62 72
        E 120 80 62 00
        E 120 90 63 71
        E 120 80 63 00
        E 120 90 60 70
        E 0 90 6c 6f
        E 120 80 60 00
        E 0 80 6c 00
        E 120 90 61 6f
        E 120 80 61 00
        E 120 90 61 72
        E 120 80 61 00
        E 120 90 62 71
        E 0 90 6c 71
        E 120 80 62 00
        E 0 80 6c 00
        E 120 90 62 72
        E 120 80 62 00
        E 120 90 63 71
        E 120 80 63 00
        E 120 90 60 6e
        E 0 90 6c 6e
        E 120 80 60 00
        E 0 80 6c 00
        E 120 90 61 6e
        E 120 80 61 00
        E 120 90 61 70
        E 0 90 6c 70
        E 120 80 61 00
        E 0 80 6c 00
        E 120 90 61 73
        E 120 80 61 00
        E 120 90 62 72
        E 0 90 6c 72
        E 120 80 62 00
        E 0 80 6c 00
        E 120 90 62 75
        E 120 80 62 00
        E 120 90 63 74
        E 1320 80 63 00
        E 120 90 60 71
        E 120 80 60 00
        E 360 90 61 73
        E 120 80 61 00
        E 360 90 62 70
        E 120 80 62 00
        E 360 90 60 71
        E 120 80 60 00
        E 360 90 61 73
        E 120 80 61 00
        E 360 90 62 70
        E 120 80 62 00
        E 360 90 60 71
        E 120 80 60 00
        E 360 90 61 73
        E 120 80 61 00
        E 360 90 62 70
        E 120 80 62 00
        E 360 90 60 71
        E 120 80 60 00
        E 360 90 61 73
        E 120 80 61 00
        E 360 90 62 70
        E 120 80 62 00
        E 360 90 60 71
        E 120 80 60 00
        E 360 90 61 73
        E 120 80 61 00
        E 360 90 62 70
        E 120 80 62 00
        E 360 90 60 71
        E 120 80 60 00
        E 360 90 61 73
        E 120 80 61 00
        E 360 90 62 70
        E 120 80 62 00
        E 3240 90 60 71
        E 0 90 6c 71
        E 120 80 60 00
        E 0 80 6c 00
        E 120 90 60 73
        E 120 80 60 00
        E 120 90 61 73
        E 0 90 6c 73
        E 120 80 61 00
        E 0 80 6c 00
        E 120 90 61 75
        E 120 80 61 00
        E 120 90 62 75
        E 120 80 62 00
        E 120 90 63 75
        E 120 80 63 00
        E 120 90 60 71
        E 0 90 6c 71
        E 120 80 60 00
        E 0 80 6c 00
        E 120 90 60 73
        E 120 80 60 00
        E 120 90 61 73
        E 0 90 6c 73
        E 120 80 61 00
        E 0 80 6c 00
        E 120 90 61 75
        E 120 80 61 00
        E 120 90 62 75
        E 120 80 62 00
        E 120 90 63 75
        E 120 80 63 00
        E 120 90 60 71
        E 0 90 6c 71
        E 120 80 60 00
        E 0 80 6c 00
        E 120 90 60 73
        E 120 80 60 00
        E 120 90 61 73
        E 0 90 6c 73
        E 120 80 61 00
        E 0 80 6c 00
        E 120 90 61 75
        E 120 80 61 00
        E 120 90 62 75
        E 120 80 62 00
        E 120 90 63 75
        E 120 80 63 00
        E 120 90 60 71
        E 0 90 6c 71
        E 120 80 60 00
        E 0 80 6c 00
        E 120 90 60 73
        E 120 80 60 00
        E 120 90 61 73
        E 0 90 6c 73
        E 120 80 61 00
        E 0 80 6c 00
        E 120 90 61 75
        E 120 80 61 00
        E 120 90 62 75
        E 120 80 62 00
        E 120 90 63 75
        E 120 80 63 00
        E 120 90 60 71
        E 0 90 6c 71
        E 120 80 60 00
        E 0 80 6c 00
        E 120 90 60 73
        E 120 80 60 00
        E 120 90 61 73
        E 0 90 6c 73
        E 120 80 61 00
        E 0 80 6c 00
        E 120 90 61 75
        E 120 80 61 00
        E 120 90 62 75
        E 120 80 62 00
        E 120 90 63 75
        E 120 80 63 00
        E 120 90 60 71
        E 0 90 6c 71
        E 120 80 60 00
        E 0 80 6c 00
        E 120 90 60 73
        E 120 80 60 00
        E 120 90 61 73
        E 0 90 6c 73
        E 120 80 61 00
        E 0 80 6c 00
        E 120 90 61 75
        E 120 80 61 00
        E 120 90 62 75
        E 120 80 62 00
        E 120 90 63 75
        E 120 80 63 00
        E 120 90 60 6c
        E 0 90 6c 6c
        E 120 80 60 00
        E 0 80 6c 00
        E 120 90 61 6e
        E 0 90 6c 6e
        E 120 80 61 00
        E 0 80 6c 00
        E 120 90 61 70
        E 120 80 61 00
        E 120 90 62 6e
        E 120 80 62 00
        E 120 90 62 70
        E 120 80 62 00
        E 120 90 63 70
        E 120 80 63 00
        E 120 90 60 6c
        E 0 90 6c 6c
        E 120 80 60 00
        E 0 80 6c 00
        E 120 90 61 6e
        E 0 90 6c 6e
        E 120 80 61 00
        E 0 80 6c 00
        E 120 90 61 70
        E 120 80 61 00
        E 120 90 62 6e
        E 120 80 62 00
        E 120 90 62 70
        E 120 80 62 00
        E 120 90 63 70
        E 120 80 63 00
        E 120 90 60 6c
        E 0 90 6c 6c
        E 120 80 60 00
        E 0 80 6c 00
        E 120 90 61 6e
        E 0 90 6c 6e
        E 120 80 61 00
        E 0 80 6c 00
        E 120 90 61 70
        E 120 80 61 00
        E 120 90 62 6e
        E 120 80 62 00
        E 120 90 62 70
        E 120 80 62 00
        E 120 90 63 70
        E 120 80 63 00
        E 120 90 60 6c
        E 0 90 6c 6c
        E 120 80 60 00
        E 0 80 6c 00
        E 120 90 61 6e
        E 0 90 6c 6e
        E 120 80 61 00
        E 0 80 6c 00
        E 120 90 61 70
        E 120 80 61 00
        E 120 90 62 6e
        E 120 80 62 00
        E 120 90 62 70
        E 120 80 62 00
        E 120 90 63 70
        E 120 80 63 00
        E 120 90 60 71
        E 0 90 6c 71
        E 120 80 60 00
        E 0 80 6c 00
        E 120 90 60 73
        E 120 80 60 00
        E 120 90 61 73
        E 0 90 6c 73
        E 120 80 61 00
        E 0 80 6c 00
        E 120 90 61 75
        E 120 80 61 00
        E 120 90 62 75
        E 120 80 62 00
        E 120 90 63 75
        E 120 80 63 00
        E 120 90 60 71
        E 0 90 6c 71
        E 120 80 60 00
        E 0 80 6c 00
        E 120 90 60 73
        E 120 80 60 00
        E 120 90 61 73
        E 0 90 6c 73
        E 120 80 61 00
        E 0 80 6c 00
        E 120 90 61 75
        E 120 80 61 00
        E 120 90 62 75
        E 120 80 62 00
        E 120 90 63 75
        E 120 80 63 00
        E 120 90 60 71
        E 0 90 6c 71
        E 120 80 60 00
        E 0 80 6c 00
        E 120 90 60 73
        E 120 80 60 00
        E 120 90 61 73
        E 0 90 6c 73
        E 120 80 61 00
        E 0 80 6c 00
        E 120 90 61 75
        E 120 80 61 00
        E 120 90 62 75
        E 120 80 62 00
        E 120 90 63 75
        E 120 80 63 00
        E 120 90 60 71
        E 0 90 6c 71
        E 120 80 60 00
        E 0 80 6c 00
        E 120 90 60 73
        E 120 80 60 00
        E 120 90 61 73
        E 0 90 6c 73
        E 120 80 61 00
        E 0 80 6c 00
        E 120 90 61 75
        E 120 80 61 00
        E 120 90 62 75
        E 120 80 62 00
        E 120 90 63 75
        E 120 80 63 00
        E 120 90 60 6c
        E 0 90 6c 6c
        E 120 80 60 00
        E 0 80 6c 00
        E 120 90 61 6e
        E 0 90 6c 6e
        E 120 80 61 00
        E 0 80 6c 00
        E 120 90 61 70
        E 120 80 61 00
        E 120 90 62 6e
        E 120 80 62 00
        E 120 90 62 70
        E 120 80 62 00
        E 120 90 63 70
        E 120 80 63 00
        E 120 90 60 6c
        E 0 90 6c 6c
        E 120 80 60 00
        E 0 80 6c 00
        E 120 90 61 6e
        E 0 90 6c 6e
        E 120 80 61 00
        E 0 80 6c 00
        E 120 90 61 70
        E 120 80 61 00
        E 120 90 62 6e
        E 120 80 62 00
        E 120 90 62 70
        E 120 80 62 00
        E 120 90 63 70
        E 120 80 63 00
        E 120 90 60 6c
        E 0 90 6c 6c
        E 120 80 60 00
        E 0 80 6c 00
        E 120 90 61 6e
        E 0 90 6c 6e
        E 120 80 61 00
        E 0 80 6c 00
        E 120 90 61 70
        E 120 80 61 00
        E 120 90 62 6e
        E 120 80 62 00
        E 120 90 62 70
        E 120 80 62 00
        E 120 90 63 70
        E 120 80 63 00
        E 120 90 60 6c
        E 0 90 6c 6c
        E 120 80 60 00
        E 0 80 6c 00
        E 120 90 61 6e
        E 0 90 6c 6e
        E 120 80 61 00
        E 0 80 6c 00
        E 120 90 61 70
        E 120 80 61 00
        E 120 90 62 6e
        E 120 80 62 00
        E 120 90 62 70
        E 120 80 62 00
        E 120 90 63 70
        E 120 80 63 00
        E 120 90 60 6f
        E 0 90 6c 6f
        E 120 80 60 00
        E 0 80 6c 00
        E 120 90 61 6f
        E 120 80 61 00
        E 120 90 61 71
        E 120 80 61 00
        E 120 90 62 71
        E 0 90 6c 70
        E 120 80 62 00
        E 0 80 6c 00
        E 120 90 63 71
        E 120 80 63 00
        E 120 90 63 73
        E 120 80 63 00
        E 120 90 60 6f
        E 0 90 6c 6f
        E 120 80 60 00
        E 0 80 6c 00
        E 120 90 61 6f
        E 120 80 61 00
        E 120 90 61 71
        E 120 80 61 00
        E 120 90 62 71
        E 0 90 6c 70
        E 120 80 62 00
        E 0 80 6c 00
        E 120 90 63 71
        E 120 80 63 00
        E 120 90 63 73
        E 120 80 63 00
        E 120 90 60 70
        E 0 90 6c 6f
        E 120 80 60 00
        E 0 80 6c 00
        E 120 90 61 6f
        E 120 80 61 00
        E 120 90 61 72
        E 120 80 61 00
        E 120 90 62 71
        E 0 90 6c 71
        E 120 80 62 00
        E 0 80 6c 00
        E 120 90 62 72
        E 120 80 62 00
        E 120 90 63 71
        E 120 80 63 00
        E 120 90 60 70
        E 0 90 6c 6f
        E 120 80 60 00
        E 0 80 6c 00
        E 120 90 61 6f
        E 120 80 61 00
        E 120 90 61 72
        E 120 80 61 00
        E 120 90 62 71
        E 0 90 6c 71
        E 120 80 62 00
        E 0 80 6c 00
        E 120 90 62 72
        E 120 80 62 00
        E 120 90 63 71
        E 120 80 63 00
        E 120 90 60 6f
        E 0 90 6c 6f
        E 120 80 60 00
        E 0 80 6c 00
        E 120 90 61 6f
        E 10 b2 5b 00
        E 10 b2 5d 00
        E 0 b2 65 00
        E 0 b2 64 00
        E 100 80 61 00
        E 120 90 61 71
        E 120 80 61 00
        E 120 90 62 71
        E 0 90 6c 70
        E 120 80 62 00
        E 0 80 6c 00
        E 120 90 63 71
        E 120 80 63 00
        E 120 90 63 73
        E 120 80 63 00
        E 120 90 60 6f
        E 0 90 6c 6f
        E 120 80 60 00
        E 0 80 6c 00
        E 120 90 61 6f
        E 120 80 61 00
        E 120 90 61 71
        E 120 80 61 00
        E 120 90 62 71
        E 0 90 6c 70
        E 120 80 62 00
        E 0 80 6c 00
        E 120 90 63 71
        E 120 80 63 00
        E 120 90 63 73
        E 120 80 63 00
        E 120 90 60 70
        E 0 90 6c 6f
        E 120 80 60 00
        E 0 80 6c 00
        E 120 90 61 6f
        E 120 80 61 00
        E 120 90 61 72
        E 120 80 61 00
        E 120 90 62 71
        E 0 90 6c 71
        E 120 80 62 00
        E 0 80 6c 00
        E 120 90 62 72
        E 120 80 62 00
        E 120 90 63 71
        E 120 80 63 00
        E 120 90 60 70
        E 0 90 6c 6f
        E 120 80 60 00
        E 0 80 6c 00
        E 120 90 61 6f
        E 120 80 61 00
        E 120 90 61 72
        E 120 80 61 00
        E 120 90 62 71
        E 0 90 6c 71
        E 120 80 62 00
        E 0 80 6c 00
        E 120 90 62 72
        E 120 80 62 00
        E 120 90 63 71
        E 120 80 63 00
        E 120 90 60 6e
        E 0 90 6c 6e
        E 120 80 60 00
        E 0 80 6c 00
        E 120 90 61 6e
        E 120 80 61 00
        E 120 90 61 70
        E 0 90 6c 70
        E 120 80 61 00
        E 0 80 6c 00
        E 120 90 61 73
        E 120 80 61 00
        E 120 90 62 72
        E 0 90 6c 72
        E 120 80 62 00
        E 0 80 6c 00
        E 120 90 62 75
        E 120 80 62 00
        E 120 90 63 74
        E 1320 80 63 00
        E 120 90 60 71
        E 120 80 60 00
        E 360 90 61 73
        E 120 80 61 00
        E 360 90 62 70
        E 120 80 62 00
        E 360 90 60 71
        E 120 80 60 00
        E 360 90 61 73
        E 120 80 61 00
        E 360 90 62 70
        E 120 80 62 00
        E 360 90 60 71
        E 120 80 60 00
        E 360 90 61 73
        E 120 80 61 00
        E 360 90 62 70
        E 120 80 62 00
        E 360 90 60 71
        E 120 80 60 00
        E 360 90 61 73
        E 120 80 61 00
        E 360 90 62 70
        E 120 80 62 00
        E 360 90 60 71
        E 120 80 60 00
        E 360 90 61 73
        E 120 80 61 00
        E 360 90 62 70
        E 120 80 62 00
        E 360 90 60 71
        E 120 80 60 00
        E 360 90 61 73
        E 120 80 61 00
        E 360 90 62 70
        E 120 80 62 00
        E 6120 b0 7b 00
        GUID {03996953-08F4-4BBC-B3BD-97D44104A5B2}
        IGNTEMPO 0 120.00000000 4 4
        SRCCOLOR 138
        VELLANE 132 128 60
        COLORMAP "C:\Program Files\REAPER (x64)\Data\color_maps\rockband_guitarbass.png"
        CFGEDITVIEW -7010.448611 7.395663 19 12 0 0 0
        CFGEDIT 1 1 0 1 1 0 1 1 1 1 1 0.25000000 -8 -8 1370 736 0 0 1 1 0.00000000 0 1 0 0 0.500000 0 0 1.000000 64
        KEYSNAP 0 3 "102034050607" 0 "Major"
        EVTFILTER 0 -1 -1 -1 -1 0 1 0 0 -1.00000000 -1.00000000
      >
    >
  >
  <TRACK '{4316E072-99B3-4C58-B0FB-6A48783FFC87}'
    NAME "EVENTS"
    PEAKCOL 16576
    BEAT -1
    AUTOMODE 0
    VOLPAN 1.00000000000000 0.00000000000000 -1.00000000000000 -1.00000000000000 1.00000000000000
    MUTESOLO 0 0 0
    IPHASE 0
    ISBUS 0 0
    BUSCOMP 0 0
    SHOWINMIX 1 0.666700 0.500000 1 0.500000 -1 -1 -1
    FREEMODE 0
    SEL 0
    REC 0 0 0 0 0 0 0
    VU 2
    TRACKHEIGHT 0 0
    INQ 0 0 0 0.5000000000 100 0 0 100
    NCHAN 2
    FX 1
    TRACKID {4316E072-99B3-4C58-B0FB-6A48783FFC87}
    PERF 0
    MIDIOUT -1
    MAINSEND 1 0
    <ITEM
      POSITION 0.00000000000000
      SNAPOFFS 0.00000000000000
      LENGTH 151.98097262100961
      LOOP 0
      ALLTAKES 0
      SEL 0
      FADEIN 1 0.000000 0.000000 1 0
      FADEOUT 1 0.000000 0.000000 1 0
      MUTE 0
      IGUID {7D2D2892-77FE-426B-9ED3-DA9F1A665405}
      IID 102
      NAME "EVENTS"
      VOLPAN 1.000000 0.000000 1.000000 -1.000000
      SOFFS 0.00000000000000 0.00000000000000
      PLAYRATE 1.00000000000000 1 0.00000000000000 -1
      CHANMODE 0
      GUID {19747A62-5E9E-4894-AD1F-C01789985629}
      <SOURCE MIDI
        HASDATA 1 480 QN
        POOLEDEVTS {DEAE177D-6384-4CB6-8CB3-B42F9143DA16}
        <X 0 0
          /wNFVkVOVFM=
        >
        <X 4320 0
          /wFbbXVzaWNfc3RhcnRd
        >
        <X 102720 0
          /wFbbXVzaWNfZW5kXQ==
        >
        <X 2395 0
          /wFbZW5kXQ==
        >
        E 5 b0 7b 00
        GUID {E4B3527E-1B77-4A2E-877C-D6D845AC8DE0}
        IGNTEMPO 0 120.00000000 4 4
        SRCCOLOR 139
        VELLANE 132 128 60
        COLORMAP "C:\Program Files\REAPER (x64)\Data\color_maps\rockband_guitarbass.png"
        CFGEDITVIEW -5472.000000 7.231767 61 12 0 0 0
        CFGEDIT 1 1 0 1 1 0 1 1 1 1 1 0.25000000 -8 -8 1370 736 0 0 1 1 0.00000000 0 1 0 0 0.500000 0 0 1.000000 64
        KEYSNAP 0 3 "102034050607" 0 "Major"
        EVTFILTER 0 -1 -1 -1 -1 0 1 0 0 -1.00000000 -1.00000000
      >
    >
  >
  <TRACK '{BB48EE10-A213-4252-9A91-5368AD9543B6}'
    NAME "BEAT"
    PEAKCOL 16576
    BEAT -1
    AUTOMODE 0
    VOLPAN 1.00000000000000 0.00000000000000 -1.00000000000000 -1.00000000000000 1.00000000000000
    MUTESOLO 0 0 0
    IPHASE 0
    ISBUS 0 0
    BUSCOMP 0 0
    SHOWINMIX 1 0.666700 0.500000 1 0.500000 -1 -1 -1
    FREEMODE 0
    SEL 0
    REC 0 0 0 0 0 0 0
    VU 2
    TRACKHEIGHT 0 0
    INQ 0 0 0 0.5000000000 100 0 0 100
    NCHAN 2
    FX 1
    TRACKID {BB48EE10-A213-4252-9A91-5368AD9543B6}
    PERF 0
    MIDIOUT -1
    MAINSEND 1 0
    <ITEM
      POSITION 0.00000000000000
      SNAPOFFS 0.00000000000000
      LENGTH 151.98097262100961
      LOOP 0
      ALLTAKES 0
      SEL 0
      FADEIN 1 0.000000 0.000000 1 0
      FADEOUT 1 0.000000 0.000000 1 0
      MUTE 0
      IGUID {BA07E2FC-8AE5-4200-9FE5-A2D4C9156CAF}
      IID 103
      NAME "BEAT"
      VOLPAN 1.000000 0.000000 1.000000 -1.000000
      SOFFS 0.00000000000000 0.00000000000000
      PLAYRATE 1.00000000000000 1 0.00000000000000 -1
      CHANMODE 0
      GUID {55DC8177-8C11-41E7-99F9-A3BA377CD2C4}
      <SOURCE MIDI
        HASDATA 1 480 QN
        POOLEDEVTS {D59B7190-484F-4BA3-BE29-C282A66C1AB5}
        <X 0 0
          /wNCRUFU
        >
        e 0 96 0c 64
        e 120 86 0c 00
        e 360 96 0d 64
        e 120 86 0d 00
        e 360 96 0d 64
        e 120 86 0d 00
        e 360 96 0c 64
        e 120 86 0c 00
        e 360 96 0d 64
        e 120 86 0d 00
        e 360 96 0d 64
        e 120 86 0d 00
        e 360 96 0c 64
        e 120 86 0c 00
        e 360 96 0d 64
        e 120 86 0d 00
        e 360 96 0d 64
        e 120 86 0d 00
        e 360 96 0c 64
        e 120 86 0c 00
        e 360 96 0d 64
        e 120 86 0d 00
        e 360 96 0d 64
        e 120 86 0d 00
        e 360 96 0c 64
        e 120 86 0c 00
        e 360 96 0d 64
        e 120 86 0d 00
        e 360 96 0d 64
        e 120 86 0d 00
        e 360 96 0c 64
        e 120 86 0c 00
        e 360 96 0d 64
        e 120 86 0d 00
        e 360 96 0d 64
        e 120 86 0d 00
        e 360 96 0c 64
        e 120 86 0c 00
        e 360 96 0d 64
        e 120 86 0d 00
        e 360 96 0d 64
        e 120 86 0d 00
        e 360 96 0c 64
        e 120 86 0c 00
        e 360 96 0d 64
        e 120 86 0d 00
        e 360 96 0d 64
        e 120 86 0d 00
        e 360 96 0c 64
        e 120 86 0c 00
        e 360 96 0d 64
        e 120 86 0d 00
        e 360 96 0d 64
        e 120 86 0d 00
        e 360 96 0c 64
        e 120 86 0c 00
        e 360 96 0d 64
        e 120 86 0d 00
        e 360 96 0d 64
        e 120 86 0d 00
        e 360 96 0c 64
        e 120 86 0c 00
        e 360 96 0d 64
        e 120 86 0d 00
        e 360 96 0d 64
        e 120 86 0d 00
        e 360 96 0c 64
        e 120 86 0c 00
        e 360 96 0d 64
        e 120 86 0d 00
        e 360 96 0d 64
        e 120 86 0d 00
        e 360 96 0c 64
        e 120 86 0c 00
        e 360 96 0d 64
        e 120 86 0d 00
        e 360 96 0d 64
        e 120 86 0d 00
        e 360 96 0c 64
        e 120 86 0c 00
        e 360 96 0d 64
        e 120 86 0d 00
        e 360 96 0d 64
        e 120 86 0d 00
        e 360 96 0c 64
        e 120 86 0c 00
        e 360 96 0d 64
        e 120 86 0d 00
        e 360 96 0d 64
        e 120 86 0d 00
        e 360 96 0c 64
        e 120 86 0c 00
        e 360 96 0d 64
        e 120 86 0d 00
        e 360 96 0d 64
        e 120 86 0d 00
        e 360 96 0c 64
        e 120 86 0c 00
        e 360 96 0d 64
        e 120 86 0d 00
        e 360 96 0d 64
        e 120 86 0d 00
        e 360 96 0c 64
        e 120 86 0c 00
        e 360 96 0d 64
        e 120 86 0d 00
        e 360 96 0d 64
        e 120 86 0d 00
        e 360 96 0c 64
        e 120 86 0c 00
        e 360 96 0d 64
        e 120 86 0d 00
        e 360 96 0d 64
        e 120 86 0d 00
        e 360 96 0c 64
        e 120 86 0c 00
        e 360 96 0d 64
        e 120 86 0d 00
        e 360 96 0d 64
        e 120 86 0d 00
        e 360 96 0c 64
        e 120 86 0c 00
        e 360 96 0d 64
        e 120 86 0d 00
        e 360 96 0d 64
        e 120 86 0d 00
        e 360 96 0c 64
        e 120 86 0c 00
        e 360 96 0d 64
        e 120 86 0d 00
        e 360 96 0d 64
        e 120 86 0d 00
        e 360 96 0c 64
        e 120 86 0c 00
        e 360 96 0d 64
        e 120 86 0d 00
        e 360 96 0d 64
        e 120 86 0d 00
        e 360 96 0c 64
        e 120 86 0c 00
        e 360 96 0d 64
        e 120 86 0d 00
        e 360 96 0d 64
        e 120 86 0d 00
        e 360 96 0c 64
        e 120 86 0c 00
        e 360 96 0d 64
        e 120 86 0d 00
        e 360 96 0d 64
        e 120 86 0d 00
        e 360 96 0c 64
        e 120 86 0c 00
        e 360 96 0d 64
        e 120 86 0d 00
        e 360 96 0d 64
        e 120 86 0d 00
        e 360 96 0c 64
        e 120 86 0c 00
        e 360 96 0d 64
        e 120 86 0d 00
        e 360 96 0d 64
        e 120 86 0d 00
        e 360 96 0c 64
        e 120 86 0c 00
        e 360 96 0d 64
        e 120 86 0d 00
        e 360 96 0d 64
        e 120 86 0d 00
        e 360 96 0c 64
        e 120 86 0c 00
        e 360 96 0d 64
        e 120 86 0d 00
        e 360 96 0d 64
        e 120 86 0d 00
        e 360 96 0c 64
        e 120 86 0c 00
        e 360 96 0d 64
        e 120 86 0d 00
        e 360 96 0d 64
        e 120 86 0d 00
        e 360 96 0c 64
        e 120 86 0c 00
        e 360 96 0d 64
        e 120 86 0d 00
        e 360 96 0d 64
        e 120 86 0d 00
        e 360 96 0c 64
        e 120 86 0c 00
        e 360 96 0d 64
        e 120 86 0d 00
        e 360 96 0d 64
        e 120 86 0d 00
        e 360 96 0c 64
        e 120 86 0c 00
        e 360 96 0d 64
        e 120 86 0d 00
        e 360 96 0d 64
        e 120 86 0d 00
        e 360 96 0c 64
        e 120 86 0c 00
        e 360 96 0d 64
        e 120 86 0d 00
        e 360 96 0d 64
        e 120 86 0d 00
        e 360 96 0c 64
        e 120 86 0c 00
        e 360 96 0d 64
        e 120 86 0d 00
        e 360 96 0d 64
        e 120 86 0d 00
        e 360 96 0c 64
        e 120 86 0c 00
        e 360 96 0d 64
        e 120 86 0d 00
        e 360 96 0d 64
        e 120 86 0d 00
        e 360 96 0c 64
        e 120 86 0c 00
        e 360 96 0d 64
        e 120 86 0d 00
        e 360 96 0d 64
        e 120 86 0d 00
        e 360 96 0c 64
        e 120 86 0c 00
        e 360 96 0d 64
        e 120 86 0d 00
        e 360 96 0d 64
        e 120 86 0d 00
        e 360 96 0c 64
        e 120 86 0c 00
        e 360 96 0d 64
        e 120 86 0d 00
        e 360 96 0d 64
        e 120 86 0d 00
        e 360 96 0c 64
        e 120 86 0c 00
        e 360 96 0d 64
        e 120 86 0d 00
        e 360 96 0d 64
        e 120 86 0d 00
        e 360 96 0c 64
        e 120 86 0c 00
        e 360 96 0d 64
        e 120 86 0d 00
        e 360 96 0d 64
        e 120 86 0d 00
        e 360 96 0c 64
        e 120 86 0c 00
        e 360 96 0d 64
        e 120 86 0d 00
        e 360 96 0d 64
        e 120 86 0d 00
        e 360 96 0c 64
        e 120 86 0c 00
        e 360 96 0d 64
        e 120 86 0d 00
        e 360 96 0d 64
        e 120 86 0d 00
        e 360 96 0c 64
        e 120 86 0c 00
        e 360 96 0d 64
        e 120 86 0d 00
        e 360 96 0d 64
        e 120 86 0d 00
        e 360 96 0c 64
        e 120 86 0c 00
        e 360 96 0d 64
        e 120 86 0d 00
        e 360 96 0d 64
        e 120 86 0d 00
        e 360 96 0c 64
        e 120 86 0c 00
        e 360 96 0d 64
        e 120 86 0d 00
        e 360 96 0d 64
        e 120 86 0d 00
        e 360 96 0c 64
        e 120 86 0c 00
        e 360 96 0d 64
        e 120 86 0d 00
        e 360 96 0d 64
        e 120 86 0d 00
        e 360 96 0c 64
        e 120 86 0c 00
        e 360 96 0d 64
        e 120 86 0d 00
        e 360 96 0d 64
        e 120 86 0d 00
        e 360 96 0c 64
        e 120 86 0c 00
        e 360 96 0d 64
        e 120 86 0d 00
        e 360 96 0d 64
        e 120 86 0d 00
        e 360 96 0c 64
        e 120 86 0c 00
        e 360 96 0d 64
        e 120 86 0d 00
        e 360 96 0d 64
        e 120 86 0d 00
        e 360 96 0c 64
        e 120 86 0c 00
        e 360 96 0d 64
        e 120 86 0d 00
        e 360 96 0d 64
        e 120 86 0d 00
        e 360 96 0c 64
        e 120 86 0c 00
        e 360 96 0d 64
        e 120 86 0d 00
        e 360 96 0d 64
        e 120 86 0d 00
        e 360 96 0c 64
        e 120 86 0c 00
        e 360 96 0d 64
        e 120 86 0d 00
        e 360 96 0d 64
        e 120 86 0d 00
        e 360 96 0c 64
        e 120 86 0c 00
        e 360 96 0d 64
        e 120 86 0d 00
        e 360 96 0d 64
        e 120 86 0d 00
        e 360 96 0c 64
        e 120 86 0c 00
        e 360 96 0d 64
        e 120 86 0d 00
        e 360 96 0d 64
        e 120 86 0d 00
        e 360 96 0c 64
        e 120 86 0c 00
        e 360 96 0d 64
        e 120 86 0d 00
        e 360 96 0d 64
        e 120 86 0d 00
        e 360 96 0c 64
        e 120 86 0c 00
        e 360 96 0d 64
        e 120 86 0d 00
        e 360 96 0d 64
        e 120 86 0d 00
        e 360 96 0c 64
        e 120 86 0c 00
        e 360 96 0d 64
        e 120 86 0d 00
        e 360 96 0d 64
        e 120 86 0d 00
        e 360 96 0c 64
        e 120 86 0c 00
        e 360 96 0d 64
        e 120 86 0d 00
        e 360 96 0d 64
        e 120 86 0d 00
        e 360 96 0c 64
        e 120 86 0c 00
        e 360 96 0d 64
        e 120 86 0d 00
        e 360 96 0d 64
        e 120 86 0d 00
        e 360 96 0c 64
        e 120 86 0c 00
        e 360 96 0d 64
        e 120 86 0d 00
        e 360 96 0d 64
        e 120 86 0d 00
        e 360 96 0c 64
        e 120 86 0c 00
        e 360 96 0d 64
        e 120 86 0d 00
        e 360 96 0d 64
        e 120 86 0d 00
        e 360 96 0c 64
        e 120 86 0c 00
        e 360 96 0d 64
        e 120 86 0d 00
        e 360 96 0d 64
        e 120 86 0d 00
        e 360 96 0c 64
        e 120 86 0c 00
        e 360 96 0d 64
        e 120 86 0d 00
        e 360 96 0d 64
        e 120 86 0d 00
        e 360 96 0c 64
        e 120 86 0c 00
        e 360 96 0d 64
        e 120 86 0d 00
        e 360 96 0d 64
        e 120 86 0d 00
        e 360 96 0c 64
        e 120 86 0c 00
        e 360 96 0d 64
        e 120 86 0d 00
        e 360 96 0d 64
        e 120 86 0d 00
        e 360 96 0c 64
        e 120 86 0c 00
        e 360 96 0d 64
        e 120 86 0d 00
        e 360 96 0d 64
        e 120 86 0d 00
        e 360 96 0c 64
        e 120 86 0c 00
        e 360 96 0d 64
        e 120 86 0d 00
        e 360 96 0d 64
        e 120 86 0d 00
        e 360 96 0c 64
        e 120 86 0c 00
        e 360 96 0d 64
        e 120 86 0d 00
        e 360 96 0d 64
        e 120 86 0d 00
        e 360 96 0c 64
        e 120 86 0c 00
        e 360 96 0d 64
        e 120 86 0d 00
        e 360 96 0d 64
        e 120 86 0d 00
        e 360 96 0c 64
        e 120 86 0c 00
        e 360 96 0d 64
        e 120 86 0d 00
        e 360 96 0d 64
        e 120 86 0d 00
        e 360 96 0c 64
        e 120 86 0c 00
        e 360 96 0d 64
        e 120 86 0d 00
        e 360 96 0d 64
        e 120 86 0d 00
        e 360 96 0c 64
        e 120 86 0c 00
        e 360 96 0d 64
        e 120 86 0d 00
        e 360 96 0d 64
        e 120 86 0d 00
        e 360 96 0c 64
        e 120 86 0c 00
        e 360 96 0d 64
        e 120 86 0d 00
        e 360 96 0d 64
        e 120 86 0d 00
        e 360 96 0c 64
        e 120 86 0c 00
        e 360 96 0d 64
        e 120 86 0d 00
        e 360 96 0d 64
        e 120 86 0d 00
        e 360 96 0c 64
        e 120 86 0c 00
        e 360 96 0d 64
        e 120 86 0d 00
        e 360 96 0d 64
        e 120 86 0d 00
        E 360 b0 7b 00
        GUID {E1E56ADA-301B-46AA-AF7C-452E82CA1106}
        IGNTEMPO 0 120.00000000 4 4
        SRCCOLOR 140
        VELLANE 132 128 60
        COLORMAP "C:\Program Files\REAPER (x64)\Data\color_maps\rockband_guitarbass.png"
        CFGEDITVIEW -7169.328804 7.231767 61 12 0 0 0
        CFGEDIT 1 1 0 1 1 0 1 1 1 1 1 0.25000000 -8 -8 1370 736 0 0 1 1 0.00000000 0 1 0 0 0.500000 0 0 1.000000 64
        KEYSNAP 0 3 "102034050607" 0 "Major"
        EVTFILTER 0 -1 -1 -1 -1 0 1 0 0 -1.00000000 -1.00000000
      >
    >
  >
  <EXTENSIONS
  >
>
